<?xml version="1.0" encoding="utf-8" standalone="no"?>
<!DOCTYPE svg PUBLIC "-//W3C//DTD SVG 1.1//EN"
  "http://www.w3.org/Graphics/SVG/1.1/DTD/svg11.dtd">
<svg xmlns:xlink="http://www.w3.org/1999/xlink" width="720pt" height="360pt" viewBox="0 0 720 360" xmlns="http://www.w3.org/2000/svg" version="1.1">
 <metadata>
  <rdf:RDF xmlns:dc="http://purl.org/dc/elements/1.1/" xmlns:cc="http://creativecommons.org/ns#" xmlns:rdf="http://www.w3.org/1999/02/22-rdf-syntax-ns#">
   <cc:Work>
    <dc:type rdf:resource="http://purl.org/dc/dcmitype/StillImage"/>
    <dc:date>2023-10-23T10:54:58.986941</dc:date>
    <dc:format>image/svg+xml</dc:format>
    <dc:creator>
     <cc:Agent>
      <dc:title>Matplotlib v3.7.1, https://matplotlib.org/</dc:title>
     </cc:Agent>
    </dc:creator>
   </cc:Work>
  </rdf:RDF>
 </metadata>
 <defs>
  <style type="text/css">*{stroke-linejoin: round; stroke-linecap: butt}</style>
 </defs>
 <g id="figure_1">
  <g id="patch_1">
   <path d="M 0 360 
L 720 360 
L 720 0 
L 0 0 
z
" style="fill: #ffffff"/>
  </g>
  <g id="axes_1">
   <g id="patch_2">
    <path d="M 90 288 
L 648 288 
L 648 43.2 
L 90 43.2 
z
" style="fill: #ffffff"/>
   </g>
   <g id="matplotlib.axis_1">
    <g id="xtick_1">
     <g id="line2d_1">
      <defs>
       <path id="ma3abe2c551" d="M 0 0 
L 0 3.5 
" style="stroke: #000000; stroke-width: 0.8"/>
      </defs>
      <g>
       <use xlink:href="#ma3abe2c551" x="122.764922" y="288" style="stroke: #000000; stroke-width: 0.8"/>
      </g>
     </g>
     <g id="text_1">
      <!-- 2023-09-17 -->
      <g transform="translate(61.12158 337.765903) rotate(-30) scale(0.12 -0.12)">
       <defs>
        <path id="DejaVuSans-32" d="M 1228 531 
L 3431 531 
L 3431 0 
L 469 0 
L 469 531 
Q 828 903 1448 1529 
Q 2069 2156 2228 2338 
Q 2531 2678 2651 2914 
Q 2772 3150 2772 3378 
Q 2772 3750 2511 3984 
Q 2250 4219 1831 4219 
Q 1534 4219 1204 4116 
Q 875 4013 500 3803 
L 500 4441 
Q 881 4594 1212 4672 
Q 1544 4750 1819 4750 
Q 2544 4750 2975 4387 
Q 3406 4025 3406 3419 
Q 3406 3131 3298 2873 
Q 3191 2616 2906 2266 
Q 2828 2175 2409 1742 
Q 1991 1309 1228 531 
z
" transform="scale(0.015625)"/>
        <path id="DejaVuSans-30" d="M 2034 4250 
Q 1547 4250 1301 3770 
Q 1056 3291 1056 2328 
Q 1056 1369 1301 889 
Q 1547 409 2034 409 
Q 2525 409 2770 889 
Q 3016 1369 3016 2328 
Q 3016 3291 2770 3770 
Q 2525 4250 2034 4250 
z
M 2034 4750 
Q 2819 4750 3233 4129 
Q 3647 3509 3647 2328 
Q 3647 1150 3233 529 
Q 2819 -91 2034 -91 
Q 1250 -91 836 529 
Q 422 1150 422 2328 
Q 422 3509 836 4129 
Q 1250 4750 2034 4750 
z
" transform="scale(0.015625)"/>
        <path id="DejaVuSans-33" d="M 2597 2516 
Q 3050 2419 3304 2112 
Q 3559 1806 3559 1356 
Q 3559 666 3084 287 
Q 2609 -91 1734 -91 
Q 1441 -91 1130 -33 
Q 819 25 488 141 
L 488 750 
Q 750 597 1062 519 
Q 1375 441 1716 441 
Q 2309 441 2620 675 
Q 2931 909 2931 1356 
Q 2931 1769 2642 2001 
Q 2353 2234 1838 2234 
L 1294 2234 
L 1294 2753 
L 1863 2753 
Q 2328 2753 2575 2939 
Q 2822 3125 2822 3475 
Q 2822 3834 2567 4026 
Q 2313 4219 1838 4219 
Q 1578 4219 1281 4162 
Q 984 4106 628 3988 
L 628 4550 
Q 988 4650 1302 4700 
Q 1616 4750 1894 4750 
Q 2613 4750 3031 4423 
Q 3450 4097 3450 3541 
Q 3450 3153 3228 2886 
Q 3006 2619 2597 2516 
z
" transform="scale(0.015625)"/>
        <path id="DejaVuSans-2d" d="M 313 2009 
L 1997 2009 
L 1997 1497 
L 313 1497 
L 313 2009 
z
" transform="scale(0.015625)"/>
        <path id="DejaVuSans-39" d="M 703 97 
L 703 672 
Q 941 559 1184 500 
Q 1428 441 1663 441 
Q 2288 441 2617 861 
Q 2947 1281 2994 2138 
Q 2813 1869 2534 1725 
Q 2256 1581 1919 1581 
Q 1219 1581 811 2004 
Q 403 2428 403 3163 
Q 403 3881 828 4315 
Q 1253 4750 1959 4750 
Q 2769 4750 3195 4129 
Q 3622 3509 3622 2328 
Q 3622 1225 3098 567 
Q 2575 -91 1691 -91 
Q 1453 -91 1209 -44 
Q 966 3 703 97 
z
M 1959 2075 
Q 2384 2075 2632 2365 
Q 2881 2656 2881 3163 
Q 2881 3666 2632 3958 
Q 2384 4250 1959 4250 
Q 1534 4250 1286 3958 
Q 1038 3666 1038 3163 
Q 1038 2656 1286 2365 
Q 1534 2075 1959 2075 
z
" transform="scale(0.015625)"/>
        <path id="DejaVuSans-31" d="M 794 531 
L 1825 531 
L 1825 4091 
L 703 3866 
L 703 4441 
L 1819 4666 
L 2450 4666 
L 2450 531 
L 3481 531 
L 3481 0 
L 794 0 
L 794 531 
z
" transform="scale(0.015625)"/>
        <path id="DejaVuSans-37" d="M 525 4666 
L 3525 4666 
L 3525 4397 
L 1831 0 
L 1172 0 
L 2766 4134 
L 525 4134 
L 525 4666 
z
" transform="scale(0.015625)"/>
       </defs>
       <use xlink:href="#DejaVuSans-32"/>
       <use xlink:href="#DejaVuSans-30" x="63.623047"/>
       <use xlink:href="#DejaVuSans-32" x="127.246094"/>
       <use xlink:href="#DejaVuSans-33" x="190.869141"/>
       <use xlink:href="#DejaVuSans-2d" x="254.492188"/>
       <use xlink:href="#DejaVuSans-30" x="290.576172"/>
       <use xlink:href="#DejaVuSans-39" x="354.199219"/>
       <use xlink:href="#DejaVuSans-2d" x="417.822266"/>
       <use xlink:href="#DejaVuSans-31" x="453.90625"/>
       <use xlink:href="#DejaVuSans-37" x="517.529297"/>
      </g>
     </g>
    </g>
    <g id="xtick_2">
     <g id="line2d_2">
      <g>
       <use xlink:href="#ma3abe2c551" x="177.420569" y="288" style="stroke: #000000; stroke-width: 0.8"/>
      </g>
     </g>
     <g id="text_2">
      <!-- 2023-09-21 -->
      <g transform="translate(115.777228 337.765903) rotate(-30) scale(0.12 -0.12)">
       <use xlink:href="#DejaVuSans-32"/>
       <use xlink:href="#DejaVuSans-30" x="63.623047"/>
       <use xlink:href="#DejaVuSans-32" x="127.246094"/>
       <use xlink:href="#DejaVuSans-33" x="190.869141"/>
       <use xlink:href="#DejaVuSans-2d" x="254.492188"/>
       <use xlink:href="#DejaVuSans-30" x="290.576172"/>
       <use xlink:href="#DejaVuSans-39" x="354.199219"/>
       <use xlink:href="#DejaVuSans-2d" x="417.822266"/>
       <use xlink:href="#DejaVuSans-32" x="453.90625"/>
       <use xlink:href="#DejaVuSans-31" x="517.529297"/>
      </g>
     </g>
    </g>
    <g id="xtick_3">
     <g id="line2d_3">
      <g>
       <use xlink:href="#ma3abe2c551" x="232.076217" y="288" style="stroke: #000000; stroke-width: 0.8"/>
      </g>
     </g>
     <g id="text_3">
      <!-- 2023-09-25 -->
      <g transform="translate(170.432875 337.765903) rotate(-30) scale(0.12 -0.12)">
       <defs>
        <path id="DejaVuSans-35" d="M 691 4666 
L 3169 4666 
L 3169 4134 
L 1269 4134 
L 1269 2991 
Q 1406 3038 1543 3061 
Q 1681 3084 1819 3084 
Q 2600 3084 3056 2656 
Q 3513 2228 3513 1497 
Q 3513 744 3044 326 
Q 2575 -91 1722 -91 
Q 1428 -91 1123 -41 
Q 819 9 494 109 
L 494 744 
Q 775 591 1075 516 
Q 1375 441 1709 441 
Q 2250 441 2565 725 
Q 2881 1009 2881 1497 
Q 2881 1984 2565 2268 
Q 2250 2553 1709 2553 
Q 1456 2553 1204 2497 
Q 953 2441 691 2322 
L 691 4666 
z
" transform="scale(0.015625)"/>
       </defs>
       <use xlink:href="#DejaVuSans-32"/>
       <use xlink:href="#DejaVuSans-30" x="63.623047"/>
       <use xlink:href="#DejaVuSans-32" x="127.246094"/>
       <use xlink:href="#DejaVuSans-33" x="190.869141"/>
       <use xlink:href="#DejaVuSans-2d" x="254.492188"/>
       <use xlink:href="#DejaVuSans-30" x="290.576172"/>
       <use xlink:href="#DejaVuSans-39" x="354.199219"/>
       <use xlink:href="#DejaVuSans-2d" x="417.822266"/>
       <use xlink:href="#DejaVuSans-32" x="453.90625"/>
       <use xlink:href="#DejaVuSans-35" x="517.529297"/>
      </g>
     </g>
    </g>
    <g id="xtick_4">
     <g id="line2d_4">
      <g>
       <use xlink:href="#ma3abe2c551" x="286.731864" y="288" style="stroke: #000000; stroke-width: 0.8"/>
      </g>
     </g>
     <g id="text_4">
      <!-- 2023-09-29 -->
      <g transform="translate(225.088522 337.765903) rotate(-30) scale(0.12 -0.12)">
       <use xlink:href="#DejaVuSans-32"/>
       <use xlink:href="#DejaVuSans-30" x="63.623047"/>
       <use xlink:href="#DejaVuSans-32" x="127.246094"/>
       <use xlink:href="#DejaVuSans-33" x="190.869141"/>
       <use xlink:href="#DejaVuSans-2d" x="254.492188"/>
       <use xlink:href="#DejaVuSans-30" x="290.576172"/>
       <use xlink:href="#DejaVuSans-39" x="354.199219"/>
       <use xlink:href="#DejaVuSans-2d" x="417.822266"/>
       <use xlink:href="#DejaVuSans-32" x="453.90625"/>
       <use xlink:href="#DejaVuSans-39" x="517.529297"/>
      </g>
     </g>
    </g>
    <g id="xtick_5">
     <g id="line2d_5">
      <g>
       <use xlink:href="#ma3abe2c551" x="314.059688" y="288" style="stroke: #000000; stroke-width: 0.8"/>
      </g>
     </g>
     <g id="text_5">
      <!-- 2023-10-01 -->
      <g transform="translate(252.416346 337.765903) rotate(-30) scale(0.12 -0.12)">
       <use xlink:href="#DejaVuSans-32"/>
       <use xlink:href="#DejaVuSans-30" x="63.623047"/>
       <use xlink:href="#DejaVuSans-32" x="127.246094"/>
       <use xlink:href="#DejaVuSans-33" x="190.869141"/>
       <use xlink:href="#DejaVuSans-2d" x="254.492188"/>
       <use xlink:href="#DejaVuSans-31" x="290.576172"/>
       <use xlink:href="#DejaVuSans-30" x="354.199219"/>
       <use xlink:href="#DejaVuSans-2d" x="417.822266"/>
       <use xlink:href="#DejaVuSans-30" x="453.90625"/>
       <use xlink:href="#DejaVuSans-31" x="517.529297"/>
      </g>
     </g>
    </g>
    <g id="xtick_6">
     <g id="line2d_6">
      <g>
       <use xlink:href="#ma3abe2c551" x="368.715335" y="288" style="stroke: #000000; stroke-width: 0.8"/>
      </g>
     </g>
     <g id="text_6">
      <!-- 2023-10-05 -->
      <g transform="translate(307.071994 337.765903) rotate(-30) scale(0.12 -0.12)">
       <use xlink:href="#DejaVuSans-32"/>
       <use xlink:href="#DejaVuSans-30" x="63.623047"/>
       <use xlink:href="#DejaVuSans-32" x="127.246094"/>
       <use xlink:href="#DejaVuSans-33" x="190.869141"/>
       <use xlink:href="#DejaVuSans-2d" x="254.492188"/>
       <use xlink:href="#DejaVuSans-31" x="290.576172"/>
       <use xlink:href="#DejaVuSans-30" x="354.199219"/>
       <use xlink:href="#DejaVuSans-2d" x="417.822266"/>
       <use xlink:href="#DejaVuSans-30" x="453.90625"/>
       <use xlink:href="#DejaVuSans-35" x="517.529297"/>
      </g>
     </g>
    </g>
    <g id="xtick_7">
     <g id="line2d_7">
      <g>
       <use xlink:href="#ma3abe2c551" x="423.370983" y="288" style="stroke: #000000; stroke-width: 0.8"/>
      </g>
     </g>
     <g id="text_7">
      <!-- 2023-10-09 -->
      <g transform="translate(361.727641 337.765903) rotate(-30) scale(0.12 -0.12)">
       <use xlink:href="#DejaVuSans-32"/>
       <use xlink:href="#DejaVuSans-30" x="63.623047"/>
       <use xlink:href="#DejaVuSans-32" x="127.246094"/>
       <use xlink:href="#DejaVuSans-33" x="190.869141"/>
       <use xlink:href="#DejaVuSans-2d" x="254.492188"/>
       <use xlink:href="#DejaVuSans-31" x="290.576172"/>
       <use xlink:href="#DejaVuSans-30" x="354.199219"/>
       <use xlink:href="#DejaVuSans-2d" x="417.822266"/>
       <use xlink:href="#DejaVuSans-30" x="453.90625"/>
       <use xlink:href="#DejaVuSans-39" x="517.529297"/>
      </g>
     </g>
    </g>
    <g id="xtick_8">
     <g id="line2d_8">
      <g>
       <use xlink:href="#ma3abe2c551" x="478.02663" y="288" style="stroke: #000000; stroke-width: 0.8"/>
      </g>
     </g>
     <g id="text_8">
      <!-- 2023-10-13 -->
      <g transform="translate(416.383288 337.765903) rotate(-30) scale(0.12 -0.12)">
       <use xlink:href="#DejaVuSans-32"/>
       <use xlink:href="#DejaVuSans-30" x="63.623047"/>
       <use xlink:href="#DejaVuSans-32" x="127.246094"/>
       <use xlink:href="#DejaVuSans-33" x="190.869141"/>
       <use xlink:href="#DejaVuSans-2d" x="254.492188"/>
       <use xlink:href="#DejaVuSans-31" x="290.576172"/>
       <use xlink:href="#DejaVuSans-30" x="354.199219"/>
       <use xlink:href="#DejaVuSans-2d" x="417.822266"/>
       <use xlink:href="#DejaVuSans-31" x="453.90625"/>
       <use xlink:href="#DejaVuSans-33" x="517.529297"/>
      </g>
     </g>
    </g>
    <g id="xtick_9">
     <g id="line2d_9">
      <g>
       <use xlink:href="#ma3abe2c551" x="532.682277" y="288" style="stroke: #000000; stroke-width: 0.8"/>
      </g>
     </g>
     <g id="text_9">
      <!-- 2023-10-17 -->
      <g transform="translate(471.038936 337.765903) rotate(-30) scale(0.12 -0.12)">
       <use xlink:href="#DejaVuSans-32"/>
       <use xlink:href="#DejaVuSans-30" x="63.623047"/>
       <use xlink:href="#DejaVuSans-32" x="127.246094"/>
       <use xlink:href="#DejaVuSans-33" x="190.869141"/>
       <use xlink:href="#DejaVuSans-2d" x="254.492188"/>
       <use xlink:href="#DejaVuSans-31" x="290.576172"/>
       <use xlink:href="#DejaVuSans-30" x="354.199219"/>
       <use xlink:href="#DejaVuSans-2d" x="417.822266"/>
       <use xlink:href="#DejaVuSans-31" x="453.90625"/>
       <use xlink:href="#DejaVuSans-37" x="517.529297"/>
      </g>
     </g>
    </g>
    <g id="xtick_10">
     <g id="line2d_10">
      <g>
       <use xlink:href="#ma3abe2c551" x="587.337925" y="288" style="stroke: #000000; stroke-width: 0.8"/>
      </g>
     </g>
     <g id="text_10">
      <!-- 2023-10-21 -->
      <g transform="translate(525.694583 337.765903) rotate(-30) scale(0.12 -0.12)">
       <use xlink:href="#DejaVuSans-32"/>
       <use xlink:href="#DejaVuSans-30" x="63.623047"/>
       <use xlink:href="#DejaVuSans-32" x="127.246094"/>
       <use xlink:href="#DejaVuSans-33" x="190.869141"/>
       <use xlink:href="#DejaVuSans-2d" x="254.492188"/>
       <use xlink:href="#DejaVuSans-31" x="290.576172"/>
       <use xlink:href="#DejaVuSans-30" x="354.199219"/>
       <use xlink:href="#DejaVuSans-2d" x="417.822266"/>
       <use xlink:href="#DejaVuSans-32" x="453.90625"/>
       <use xlink:href="#DejaVuSans-31" x="517.529297"/>
      </g>
     </g>
    </g>
    <g id="xtick_11">
     <g id="line2d_11">
      <g>
       <use xlink:href="#ma3abe2c551" x="641.993572" y="288" style="stroke: #000000; stroke-width: 0.8"/>
      </g>
     </g>
     <g id="text_11">
      <!-- 2023-10-25 -->
      <g transform="translate(580.35023 337.765903) rotate(-30) scale(0.12 -0.12)">
       <use xlink:href="#DejaVuSans-32"/>
       <use xlink:href="#DejaVuSans-30" x="63.623047"/>
       <use xlink:href="#DejaVuSans-32" x="127.246094"/>
       <use xlink:href="#DejaVuSans-33" x="190.869141"/>
       <use xlink:href="#DejaVuSans-2d" x="254.492188"/>
       <use xlink:href="#DejaVuSans-31" x="290.576172"/>
       <use xlink:href="#DejaVuSans-30" x="354.199219"/>
       <use xlink:href="#DejaVuSans-2d" x="417.822266"/>
       <use xlink:href="#DejaVuSans-32" x="453.90625"/>
       <use xlink:href="#DejaVuSans-35" x="517.529297"/>
      </g>
     </g>
    </g>
   </g>
   <g id="matplotlib.axis_2">
    <g id="ytick_1">
     <g id="line2d_12">
      <defs>
       <path id="mb7b0c80827" d="M 0 0 
L -3.5 0 
" style="stroke: #000000; stroke-width: 0.8"/>
      </defs>
      <g>
       <use xlink:href="#mb7b0c80827" x="90" y="284.679565" style="stroke: #000000; stroke-width: 0.8"/>
      </g>
     </g>
     <g id="text_12">
      <!-- 0.20 -->
      <g transform="translate(56.28125 289.238628) scale(0.12 -0.12)">
       <defs>
        <path id="DejaVuSans-2e" d="M 684 794 
L 1344 794 
L 1344 0 
L 684 0 
L 684 794 
z
" transform="scale(0.015625)"/>
       </defs>
       <use xlink:href="#DejaVuSans-30"/>
       <use xlink:href="#DejaVuSans-2e" x="63.623047"/>
       <use xlink:href="#DejaVuSans-32" x="95.410156"/>
       <use xlink:href="#DejaVuSans-30" x="159.033203"/>
      </g>
     </g>
    </g>
    <g id="ytick_2">
     <g id="line2d_13">
      <g>
       <use xlink:href="#mb7b0c80827" x="90" y="257.213551" style="stroke: #000000; stroke-width: 0.8"/>
      </g>
     </g>
     <g id="text_13">
      <!-- 0.25 -->
      <g transform="translate(56.28125 261.772613) scale(0.12 -0.12)">
       <use xlink:href="#DejaVuSans-30"/>
       <use xlink:href="#DejaVuSans-2e" x="63.623047"/>
       <use xlink:href="#DejaVuSans-32" x="95.410156"/>
       <use xlink:href="#DejaVuSans-35" x="159.033203"/>
      </g>
     </g>
    </g>
    <g id="ytick_3">
     <g id="line2d_14">
      <g>
       <use xlink:href="#mb7b0c80827" x="90" y="229.747536" style="stroke: #000000; stroke-width: 0.8"/>
      </g>
     </g>
     <g id="text_14">
      <!-- 0.30 -->
      <g transform="translate(56.28125 234.306599) scale(0.12 -0.12)">
       <use xlink:href="#DejaVuSans-30"/>
       <use xlink:href="#DejaVuSans-2e" x="63.623047"/>
       <use xlink:href="#DejaVuSans-33" x="95.410156"/>
       <use xlink:href="#DejaVuSans-30" x="159.033203"/>
      </g>
     </g>
    </g>
    <g id="ytick_4">
     <g id="line2d_15">
      <g>
       <use xlink:href="#mb7b0c80827" x="90" y="202.281522" style="stroke: #000000; stroke-width: 0.8"/>
      </g>
     </g>
     <g id="text_15">
      <!-- 0.35 -->
      <g transform="translate(56.28125 206.840584) scale(0.12 -0.12)">
       <use xlink:href="#DejaVuSans-30"/>
       <use xlink:href="#DejaVuSans-2e" x="63.623047"/>
       <use xlink:href="#DejaVuSans-33" x="95.410156"/>
       <use xlink:href="#DejaVuSans-35" x="159.033203"/>
      </g>
     </g>
    </g>
    <g id="ytick_5">
     <g id="line2d_16">
      <g>
       <use xlink:href="#mb7b0c80827" x="90" y="174.815508" style="stroke: #000000; stroke-width: 0.8"/>
      </g>
     </g>
     <g id="text_16">
      <!-- 0.40 -->
      <g transform="translate(56.28125 179.37457) scale(0.12 -0.12)">
       <defs>
        <path id="DejaVuSans-34" d="M 2419 4116 
L 825 1625 
L 2419 1625 
L 2419 4116 
z
M 2253 4666 
L 3047 4666 
L 3047 1625 
L 3713 1625 
L 3713 1100 
L 3047 1100 
L 3047 0 
L 2419 0 
L 2419 1100 
L 313 1100 
L 313 1709 
L 2253 4666 
z
" transform="scale(0.015625)"/>
       </defs>
       <use xlink:href="#DejaVuSans-30"/>
       <use xlink:href="#DejaVuSans-2e" x="63.623047"/>
       <use xlink:href="#DejaVuSans-34" x="95.410156"/>
       <use xlink:href="#DejaVuSans-30" x="159.033203"/>
      </g>
     </g>
    </g>
    <g id="ytick_6">
     <g id="line2d_17">
      <g>
       <use xlink:href="#mb7b0c80827" x="90" y="147.349493" style="stroke: #000000; stroke-width: 0.8"/>
      </g>
     </g>
     <g id="text_17">
      <!-- 0.45 -->
      <g transform="translate(56.28125 151.908556) scale(0.12 -0.12)">
       <use xlink:href="#DejaVuSans-30"/>
       <use xlink:href="#DejaVuSans-2e" x="63.623047"/>
       <use xlink:href="#DejaVuSans-34" x="95.410156"/>
       <use xlink:href="#DejaVuSans-35" x="159.033203"/>
      </g>
     </g>
    </g>
    <g id="ytick_7">
     <g id="line2d_18">
      <g>
       <use xlink:href="#mb7b0c80827" x="90" y="119.883479" style="stroke: #000000; stroke-width: 0.8"/>
      </g>
     </g>
     <g id="text_18">
      <!-- 0.50 -->
      <g transform="translate(56.28125 124.442541) scale(0.12 -0.12)">
       <use xlink:href="#DejaVuSans-30"/>
       <use xlink:href="#DejaVuSans-2e" x="63.623047"/>
       <use xlink:href="#DejaVuSans-35" x="95.410156"/>
       <use xlink:href="#DejaVuSans-30" x="159.033203"/>
      </g>
     </g>
    </g>
    <g id="ytick_8">
     <g id="line2d_19">
      <g>
       <use xlink:href="#mb7b0c80827" x="90" y="92.417464" style="stroke: #000000; stroke-width: 0.8"/>
      </g>
     </g>
     <g id="text_19">
      <!-- 0.55 -->
      <g transform="translate(56.28125 96.976527) scale(0.12 -0.12)">
       <use xlink:href="#DejaVuSans-30"/>
       <use xlink:href="#DejaVuSans-2e" x="63.623047"/>
       <use xlink:href="#DejaVuSans-35" x="95.410156"/>
       <use xlink:href="#DejaVuSans-35" x="159.033203"/>
      </g>
     </g>
    </g>
    <g id="ytick_9">
     <g id="line2d_20">
      <g>
       <use xlink:href="#mb7b0c80827" x="90" y="64.95145" style="stroke: #000000; stroke-width: 0.8"/>
      </g>
     </g>
     <g id="text_20">
      <!-- 0.60 -->
      <g transform="translate(56.28125 69.510512) scale(0.12 -0.12)">
       <defs>
        <path id="DejaVuSans-36" d="M 2113 2584 
Q 1688 2584 1439 2293 
Q 1191 2003 1191 1497 
Q 1191 994 1439 701 
Q 1688 409 2113 409 
Q 2538 409 2786 701 
Q 3034 994 3034 1497 
Q 3034 2003 2786 2293 
Q 2538 2584 2113 2584 
z
M 3366 4563 
L 3366 3988 
Q 3128 4100 2886 4159 
Q 2644 4219 2406 4219 
Q 1781 4219 1451 3797 
Q 1122 3375 1075 2522 
Q 1259 2794 1537 2939 
Q 1816 3084 2150 3084 
Q 2853 3084 3261 2657 
Q 3669 2231 3669 1497 
Q 3669 778 3244 343 
Q 2819 -91 2113 -91 
Q 1303 -91 875 529 
Q 447 1150 447 2328 
Q 447 3434 972 4092 
Q 1497 4750 2381 4750 
Q 2619 4750 2861 4703 
Q 3103 4656 3366 4563 
z
" transform="scale(0.015625)"/>
       </defs>
       <use xlink:href="#DejaVuSans-30"/>
       <use xlink:href="#DejaVuSans-2e" x="63.623047"/>
       <use xlink:href="#DejaVuSans-36" x="95.410156"/>
       <use xlink:href="#DejaVuSans-30" x="159.033203"/>
      </g>
     </g>
    </g>
    <g id="text_21">
     <!-- Meters -->
     <g transform="translate(50.201562 182.6875) rotate(-90) scale(0.1 -0.1)">
      <defs>
       <path id="DejaVuSans-4d" d="M 628 4666 
L 1569 4666 
L 2759 1491 
L 3956 4666 
L 4897 4666 
L 4897 0 
L 4281 0 
L 4281 4097 
L 3078 897 
L 2444 897 
L 1241 4097 
L 1241 0 
L 628 0 
L 628 4666 
z
" transform="scale(0.015625)"/>
       <path id="DejaVuSans-65" d="M 3597 1894 
L 3597 1613 
L 953 1613 
Q 991 1019 1311 708 
Q 1631 397 2203 397 
Q 2534 397 2845 478 
Q 3156 559 3463 722 
L 3463 178 
Q 3153 47 2828 -22 
Q 2503 -91 2169 -91 
Q 1331 -91 842 396 
Q 353 884 353 1716 
Q 353 2575 817 3079 
Q 1281 3584 2069 3584 
Q 2775 3584 3186 3129 
Q 3597 2675 3597 1894 
z
M 3022 2063 
Q 3016 2534 2758 2815 
Q 2500 3097 2075 3097 
Q 1594 3097 1305 2825 
Q 1016 2553 972 2059 
L 3022 2063 
z
" transform="scale(0.015625)"/>
       <path id="DejaVuSans-74" d="M 1172 4494 
L 1172 3500 
L 2356 3500 
L 2356 3053 
L 1172 3053 
L 1172 1153 
Q 1172 725 1289 603 
Q 1406 481 1766 481 
L 2356 481 
L 2356 0 
L 1766 0 
Q 1100 0 847 248 
Q 594 497 594 1153 
L 594 3053 
L 172 3053 
L 172 3500 
L 594 3500 
L 594 4494 
L 1172 4494 
z
" transform="scale(0.015625)"/>
       <path id="DejaVuSans-72" d="M 2631 2963 
Q 2534 3019 2420 3045 
Q 2306 3072 2169 3072 
Q 1681 3072 1420 2755 
Q 1159 2438 1159 1844 
L 1159 0 
L 581 0 
L 581 3500 
L 1159 3500 
L 1159 2956 
Q 1341 3275 1631 3429 
Q 1922 3584 2338 3584 
Q 2397 3584 2469 3576 
Q 2541 3569 2628 3553 
L 2631 2963 
z
" transform="scale(0.015625)"/>
       <path id="DejaVuSans-73" d="M 2834 3397 
L 2834 2853 
Q 2591 2978 2328 3040 
Q 2066 3103 1784 3103 
Q 1356 3103 1142 2972 
Q 928 2841 928 2578 
Q 928 2378 1081 2264 
Q 1234 2150 1697 2047 
L 1894 2003 
Q 2506 1872 2764 1633 
Q 3022 1394 3022 966 
Q 3022 478 2636 193 
Q 2250 -91 1575 -91 
Q 1294 -91 989 -36 
Q 684 19 347 128 
L 347 722 
Q 666 556 975 473 
Q 1284 391 1588 391 
Q 1994 391 2212 530 
Q 2431 669 2431 922 
Q 2431 1156 2273 1281 
Q 2116 1406 1581 1522 
L 1381 1569 
Q 847 1681 609 1914 
Q 372 2147 372 2553 
Q 372 3047 722 3315 
Q 1072 3584 1716 3584 
Q 2034 3584 2315 3537 
Q 2597 3491 2834 3397 
z
" transform="scale(0.015625)"/>
      </defs>
      <use xlink:href="#DejaVuSans-4d"/>
      <use xlink:href="#DejaVuSans-65" x="86.279297"/>
      <use xlink:href="#DejaVuSans-74" x="147.802734"/>
      <use xlink:href="#DejaVuSans-65" x="187.011719"/>
      <use xlink:href="#DejaVuSans-72" x="248.535156"/>
      <use xlink:href="#DejaVuSans-73" x="289.648438"/>
     </g>
    </g>
   </g>
   <g id="line2d_21">
    <path d="M 115.363636 112.027299 
L 116.502296 105.345613 
L 117.071625 107.816921 
L 119.348944 114.224017 
L 119.918274 114.407077 
L 120.487603 115.505436 
L 121.056933 117.336035 
L 121.626263 120.997233 
L 122.764922 114.498607 
L 123.334252 114.040957 
L 123.903581 113.125658 
L 124.472911 114.132487 
L 125.042241 114.498607 
L 125.61157 114.498607 
L 126.1809 115.139317 
L 126.75023 114.681667 
L 127.319559 114.590137 
L 127.888889 114.315547 
L 129.027548 115.322376 
L 129.596878 112.118828 
L 130.166208 107.542331 
L 130.735537 108.640691 
L 131.304867 112.484948 
L 131.874197 113.857897 
L 132.443526 114.590137 
L 133.012856 116.054616 
L 133.582185 117.152975 
L 134.720845 119.715814 
L 135.290174 115.963086 
L 135.859504 115.871556 
L 136.428834 114.498607 
L 136.998163 113.949427 
L 137.567493 115.139317 
L 138.136823 114.590137 
L 138.706152 115.322376 
L 139.275482 114.956257 
L 140.414141 116.512266 
L 140.983471 116.237676 
L 142.12213 116.603796 
L 142.69146 115.688496 
L 143.26079 114.224017 
L 143.830119 112.118828 
L 144.399449 111.752709 
L 144.968779 113.674837 
L 145.538108 113.400248 
L 146.107438 116.420736 
L 146.676768 118.159805 
L 147.815427 119.715814 
L 148.384757 123.743131 
L 148.954086 123.377012 
L 149.523416 127.953509 
L 150.662075 122.278652 
L 151.231405 121.637943 
L 151.800735 120.722643 
L 152.370064 120.173464 
L 152.939394 122.004062 
L 153.508724 120.539583 
L 154.647383 120.997233 
L 155.216713 121.637943 
L 156.355372 120.264993 
L 156.924702 116.512266 
L 157.494031 114.315547 
L 158.063361 113.491778 
L 159.20202 117.610625 
L 159.77135 119.075104 
L 160.34068 118.983574 
L 160.910009 119.532754 
L 161.479339 119.075104 
L 162.048669 119.624284 
L 163.187328 119.807344 
L 163.756657 117.702155 
L 164.325987 118.800514 
L 164.895317 118.251335 
L 165.464646 116.603796 
L 166.033976 116.695326 
L 166.603306 117.702155 
L 167.172635 117.885215 
L 167.741965 116.695326 
L 168.311295 117.061445 
L 168.880624 118.159805 
L 169.449954 118.800514 
L 170.019284 117.610625 
L 170.588613 117.885215 
L 171.157943 115.871556 
L 171.727273 114.590137 
L 172.296602 114.773197 
L 172.865932 116.054616 
L 173.435262 118.525925 
L 174.004591 120.173464 
L 174.573921 123.926191 
L 175.143251 125.84832 
L 175.71258 126.30597 
L 176.28191 130.607877 
L 176.85124 128.685748 
L 177.420569 124.292311 
L 177.989899 123.468541 
L 178.559229 124.109251 
L 180.267218 148.181626 
L 181.405877 167.036795 
L 182.544536 181.864646 
L 183.113866 186.349613 
L 184.252525 192.848239 
L 184.821855 193.214359 
L 185.391185 194.642226 
L 185.960514 196.600967 
L 186.529844 201.726643 
L 187.099174 205.753961 
L 187.668503 211.154228 
L 188.237833 212.618707 
L 188.807163 219.300393 
L 189.376492 221.497111 
L 189.945822 225.066779 
L 190.515152 220.856402 
L 191.084481 219.483453 
L 191.653811 219.941102 
L 192.22314 221.222521 
L 192.79247 219.849572 
L 193.3618 220.673342 
L 193.931129 220.673342 
L 194.500459 222.137821 
L 195.069789 223.14465 
L 195.639118 223.23618 
L 196.208448 223.6023 
L 196.777778 224.700659 
L 197.347107 225.524429 
L 197.916437 224.33454 
L 198.485767 219.483453 
L 199.055096 221.405581 
L 199.624426 221.588641 
L 200.193756 223.858584 
L 200.763085 225.341369 
L 201.332415 229.185627 
L 201.901745 234.036714 
L 202.471074 237.697911 
L 203.040404 238.521681 
L 203.609734 239.8031 
L 204.179063 239.62004 
L 205.317723 230.650106 
L 205.887052 233.029884 
L 207.025712 235.409663 
L 207.595041 236.050372 
L 208.164371 235.592723 
L 208.733701 234.494363 
L 209.30303 233.670594 
L 209.87236 236.416492 
L 210.44169 235.135073 
L 211.011019 234.860483 
L 211.580349 232.663764 
L 212.149679 229.826336 
L 212.719008 230.375516 
L 213.288338 232.297645 
L 213.857668 233.029884 
L 214.996327 237.331792 
L 215.565657 242.091349 
L 216.134986 245.386427 
L 216.704316 246.850906 
L 217.273646 246.576316 
L 217.842975 248.773035 
L 218.412305 244.928777 
L 218.981635 242.640528 
L 219.550964 239.8031 
L 220.120294 238.704741 
L 220.689624 240.901459 
L 221.258953 241.176049 
L 221.828283 240.809929 
L 223.536272 240.901459 
L 224.105601 242.182879 
L 224.674931 239.89463 
L 225.81359 232.938354 
L 226.38292 233.853654 
L 226.95225 235.135073 
L 227.521579 235.043543 
L 228.090909 237.789441 
L 228.660239 239.52851 
L 229.229568 245.020307 
L 229.798898 247.491615 
L 230.368228 249.322214 
L 230.937557 246.027136 
L 231.506887 244.654187 
L 232.645546 240.901459 
L 233.214876 239.98616 
L 233.784206 241.633699 
L 234.353535 240.44381 
L 234.922865 241.725229 
L 235.492195 244.288067 
L 236.061524 243.372768 
L 236.630854 242.915118 
L 237.200184 244.379597 
L 237.769513 243.921948 
L 238.338843 243.738888 
L 238.908173 241.450639 
L 239.477502 237.789441 
L 240.046832 238.796271 
L 240.616162 240.44381 
L 241.185491 241.725229 
L 241.754821 242.365938 
L 242.324151 243.372768 
L 242.89348 243.189708 
L 243.46281 242.365938 
L 244.03214 241.084519 
L 244.601469 243.189708 
L 245.170799 242.640528 
L 245.740129 241.816759 
L 246.309458 241.633699 
L 246.878788 242.732058 
L 247.448118 242.732058 
L 248.017447 242.274409 
L 248.586777 242.732058 
L 249.156107 241.816759 
L 249.725436 241.816759 
L 250.294766 242.182879 
L 250.864096 241.816759 
L 252.572084 241.359109 
L 253.141414 241.450639 
L 253.710744 241.725229 
L 254.280073 243.189708 
L 254.849403 244.105007 
L 255.418733 246.576316 
L 255.988062 246.301726 
L 256.557392 250.969753 
L 257.126722 250.878223 
L 257.696051 248.040795 
L 258.265381 246.393256 
L 258.834711 245.294897 
L 259.40404 245.661016 
L 259.97337 244.928777 
L 260.5427 241.633699 
L 261.681359 241.725229 
L 262.250689 242.365938 
L 262.820018 242.274409 
L 263.389348 243.189708 
L 265.097337 243.738888 
L 265.666667 244.196537 
L 266.235996 244.471127 
L 266.805326 245.111837 
L 267.374656 245.477957 
L 267.943985 246.759376 
L 268.513315 247.583145 
L 269.082645 247.583145 
L 269.651974 247.033966 
L 270.790634 247.125496 
L 271.359963 246.484786 
L 271.929293 245.661016 
L 272.498623 244.562657 
L 273.067952 244.288067 
L 273.637282 242.640528 
L 274.775941 235.318133 
L 275.345271 235.226603 
L 275.914601 236.233432 
L 276.48393 236.324962 
L 277.05326 236.874142 
L 278.761249 240.35228 
L 279.330579 240.53534 
L 279.899908 241.267579 
L 280.469238 240.16922 
L 281.038567 240.44381 
L 282.177227 242.274409 
L 282.746556 242.823588 
L 283.315886 243.555828 
L 285.023875 243.098178 
L 285.593205 243.098178 
L 286.162534 243.921948 
L 287.301194 244.562657 
L 288.439853 245.752546 
L 289.009183 246.576316 
L 289.578512 245.569486 
L 290.147842 245.294897 
L 290.717172 246.210196 
L 291.286501 248.589975 
L 291.855831 249.230684 
L 292.425161 249.047624 
L 292.99449 248.315385 
L 293.56382 248.040795 
L 294.13315 247.308555 
L 294.702479 247.400085 
L 295.271809 248.864564 
L 295.841139 249.596804 
L 296.410468 251.335873 
L 296.979798 251.244343 
L 297.549128 251.976583 
L 298.118457 251.152813 
L 298.687787 254.905541 
L 299.257117 257.651439 
L 299.826446 254.997071 
L 300.395776 251.610463 
L 300.965106 251.976583 
L 302.103765 251.518933 
L 302.673095 252.891882 
L 303.242424 252.525762 
L 303.811754 253.166472 
L 304.381084 253.624122 
L 304.950413 256.46155 
L 305.519743 253.258002 
L 306.089073 252.800352 
L 306.658402 250.786693 
L 307.227732 249.688334 
L 307.797062 250.237514 
L 308.366391 249.779864 
L 308.935721 249.871394 
L 309.505051 248.589975 
L 310.64371 253.715651 
L 311.213039 260.671927 
L 311.782369 262.960176 
L 312.351699 263.967005 
L 312.921028 263.967005 
L 313.490358 257.559909 
L 314.059688 249.505274 
L 314.629017 250.329044 
L 315.767677 253.441062 
L 316.337006 255.36319 
L 318.044995 256.9192 
L 318.614325 257.285319 
L 319.183655 259.115918 
L 319.752984 258.475209 
L 320.322314 258.932858 
L 320.891644 257.102259 
L 321.460973 251.793523 
L 322.030303 249.413744 
L 322.599633 249.139154 
L 323.738292 252.983412 
L 324.307622 260.122748 
L 324.876951 264.058535 
L 325.446281 269.824922 
L 327.15427 263.326296 
L 327.7236 259.390508 
L 328.292929 258.292149 
L 328.862259 257.468379 
L 329.431589 257.742969 
L 330.000918 257.651439 
L 330.570248 256.9192 
L 331.139578 258.200619 
L 331.708907 257.651439 
L 332.278237 258.566739 
L 332.847567 258.932858 
L 333.416896 257.102259 
L 333.986226 256.46155 
L 334.555556 256.0039 
L 335.124885 251.976583 
L 335.694215 252.159642 
L 336.263545 251.610463 
L 336.832874 255.72931 
L 337.402204 257.376849 
L 337.971534 261.770287 
L 338.540863 267.536673 
L 339.110193 270.374101 
L 339.679522 271.65552 
L 340.248852 267.262083 
L 340.818182 261.495697 
L 341.387511 257.834499 
L 341.956841 258.017559 
L 342.526171 258.475209 
L 343.0955 259.115918 
L 343.66483 258.932858 
L 344.23416 258.475209 
L 344.803489 260.122748 
L 345.372819 261.129577 
L 345.942149 260.580397 
L 346.511478 260.671927 
L 347.650138 261.221107 
L 348.219467 259.482038 
L 348.788797 254.539421 
L 349.358127 251.885053 
L 349.927456 251.335873 
L 350.496786 257.742969 
L 351.066116 258.200619 
L 351.635445 261.129577 
L 352.204775 265.065365 
L 352.774105 266.163724 
L 353.343434 265.431484 
L 353.912764 273.303059 
L 355.051423 265.248424 
L 355.620753 262.777116 
L 356.190083 262.777116 
L 356.759412 262.044876 
L 357.328742 262.685586 
L 357.898072 262.410996 
L 359.036731 265.065365 
L 359.606061 264.241595 
L 360.17539 264.790775 
L 360.74472 266.346784 
L 361.31405 265.706074 
L 361.883379 262.319466 
L 362.452709 259.848158 
L 363.022039 261.038047 
L 363.591368 260.031218 
L 364.160698 262.685586 
L 364.730028 263.417826 
L 365.299357 263.600885 
L 365.868687 264.790775 
L 366.438017 265.706074 
L 367.007346 266.987493 
L 367.576676 269.275742 
L 368.146006 268.177383 
L 368.715335 264.058535 
L 369.284665 266.895963 
L 369.853994 266.163724 
L 370.423324 262.410996 
L 370.992654 262.777116 
L 371.561983 264.516185 
L 372.131313 267.079023 
L 372.700643 269.092682 
L 373.269972 267.719733 
L 373.839302 268.451972 
L 374.977961 274.126829 
L 376.116621 270.923281 
L 376.68595 270.923281 
L 377.25528 269.184212 
L 377.82461 267.994323 
L 378.393939 263.600885 
L 379.532599 215.822255 
L 380.101928 211.245758 
L 380.671258 215.181545 
L 381.240588 222.046291 
L 381.809917 227.171968 
L 382.379247 231.016225 
L 382.948577 232.846824 
L 383.517906 233.945184 
L 384.087236 233.853654 
L 384.656566 233.945184 
L 385.225895 232.938354 
L 386.364555 237.057202 
L 387.503214 237.331792 
L 388.072544 237.972501 
L 388.641873 239.52851 
L 389.211203 238.979331 
L 389.780533 239.07086 
L 390.349862 240.53534 
L 391.488522 245.477957 
L 392.057851 246.301726 
L 393.196511 250.969753 
L 393.76584 251.701993 
L 394.33517 251.885053 
L 394.9045 250.786693 
L 395.473829 252.342702 
L 396.043159 250.878223 
L 396.612489 251.244343 
L 397.181818 251.335873 
L 397.751148 250.603633 
L 398.320478 252.708822 
L 398.889807 252.891882 
L 399.459137 250.512103 
L 400.028466 250.786693 
L 400.597796 252.068113 
L 401.167126 252.800352 
L 403.444444 250.329044 
L 404.013774 252.068113 
L 404.583104 254.356361 
L 405.152433 254.173301 
L 405.721763 254.356361 
L 406.291093 257.285319 
L 406.860422 243.372768 
L 407.429752 243.372768 
L 407.999082 249.047624 
L 408.568411 251.335873 
L 409.137741 252.159642 
L 426.217631 261.312637 
L 426.786961 260.763457 
L 427.35629 261.587227 
L 427.92562 261.038047 
L 428.494949 260.763457 
L 429.064279 262.502526 
L 429.633609 261.038047 
L 430.202938 262.227936 
L 430.772268 259.390508 
L 431.341598 257.376849 
L 431.910927 260.122748 
L 432.480257 261.587227 
L 433.049587 262.044876 
L 433.618916 262.319466 
L 434.188246 264.607715 
L 434.757576 263.875475 
L 435.326905 264.699245 
L 435.896235 263.234766 
L 436.465565 262.777116 
L 437.034894 261.587227 
L 437.604224 261.221107 
L 438.173554 259.482038 
L 438.742883 258.841328 
L 439.312213 261.038047 
L 439.881543 261.861816 
L 440.450872 262.136406 
L 441.020202 264.150065 
L 441.589532 267.079023 
L 442.158861 262.777116 
L 442.728191 263.509355 
L 443.297521 262.960176 
L 443.86685 263.600885 
L 444.43618 262.319466 
L 445.00551 262.319466 
L 445.574839 262.502526 
L 446.144169 263.875475 
L 446.713499 263.509355 
L 447.282828 263.417826 
L 447.852158 264.516185 
L 448.421488 264.058535 
L 448.990817 264.241595 
L 450.129477 263.967005 
L 450.698806 263.509355 
L 451.837466 264.516185 
L 452.406795 264.882305 
L 453.545455 265.339954 
L 454.114784 265.797604 
L 454.684114 265.431484 
L 455.253444 265.248424 
L 455.822773 266.529844 
L 456.961433 267.719733 
L 457.530762 264.333125 
L 458.100092 261.678757 
L 458.669421 261.129577 
L 459.238751 260.031218 
L 460.94674 267.811263 
L 461.51607 269.275742 
L 462.085399 271.74705 
L 462.654729 270.923281 
L 463.224059 276.872727 
L 464.362718 269.001152 
L 464.932048 267.994323 
L 465.501377 267.445143 
L 466.640037 267.719733 
L 467.209366 267.079023 
L 467.778696 267.628203 
L 468.348026 267.262083 
L 468.917355 269.367272 
L 469.486685 269.550332 
L 470.056015 269.458802 
L 470.625344 267.262083 
L 472.333333 267.536673 
L 472.902663 267.902793 
L 473.471993 267.902793 
L 474.041322 269.641862 
L 474.610652 270.191041 
L 475.179982 269.641862 
L 475.749311 268.543502 
L 476.318641 268.177383 
L 476.887971 269.001152 
L 477.4573 268.818092 
L 478.02663 270.557161 
L 478.59596 270.099511 
L 479.165289 268.909622 
L 479.734619 268.635032 
L 480.303949 269.092682 
L 480.873278 269.184212 
L 481.442608 269.458802 
L 482.011938 270.007981 
L 482.581267 269.916452 
L 483.719927 270.191041 
L 484.289256 269.733392 
L 485.427916 269.641862 
L 486.566575 269.458802 
L 487.135904 270.191041 
L 487.705234 272.02164 
L 488.274564 271.83858 
L 488.843893 271.289401 
L 489.413223 270.557161 
L 489.982553 271.563991 
L 491.121212 274.584479 
L 491.690542 274.676009 
L 492.259871 273.394589 
L 492.829201 270.831751 
L 493.398531 267.536673 
L 493.96786 261.495697 
L 494.53719 258.475209 
L 495.10652 257.376849 
L 495.675849 258.658268 
L 496.245179 261.587227 
L 496.814509 261.587227 
L 497.383838 247.949265 
L 498.522498 215.547665 
L 499.091827 204.014892 
L 500.230487 220.764872 
L 500.799816 228.911037 
L 501.369146 234.860483 
L 501.938476 237.148732 
L 502.507805 235.592723 
L 503.077135 232.389175 
L 503.646465 230.375516 
L 504.215794 229.185627 
L 504.785124 229.277157 
L 505.354454 229.551746 
L 505.923783 230.283986 
L 506.493113 232.572234 
L 507.062443 233.396004 
L 507.631772 235.043543 
L 508.201102 235.958842 
L 508.770432 236.599552 
L 509.339761 238.613211 
L 509.909091 239.71157 
L 510.478421 242.365938 
L 511.61708 244.745717 
L 512.18641 243.738888 
L 512.755739 243.372768 
L 513.325069 244.745717 
L 513.894399 245.661016 
L 515.033058 249.413744 
L 515.602388 250.145984 
L 516.171717 250.145984 
L 516.741047 251.885053 
L 517.310376 253.166472 
L 517.879706 253.074942 
L 518.449036 250.878223 
L 519.018365 251.427403 
L 519.587695 252.159642 
L 520.157025 251.061283 
L 520.726354 251.427403 
L 521.295684 252.434232 
L 521.865014 251.701993 
L 522.434343 251.793523 
L 523.003673 251.701993 
L 523.573003 252.342702 
L 524.142332 252.342702 
L 524.711662 252.891882 
L 525.280992 252.159642 
L 525.850321 251.793523 
L 526.419651 252.159642 
L 526.988981 251.427403 
L 527.55831 252.617292 
L 528.12764 254.447891 
L 528.69697 255.54625 
L 529.266299 256.18696 
L 529.835629 256.09543 
L 530.404959 256.27849 
L 530.974288 256.27849 
L 531.543618 255.54625 
L 532.112948 252.159642 
L 533.251607 169.965753 
L 533.820937 153.307303 
L 534.390266 142.68983 
L 534.959596 138.570982 
L 535.528926 132.713066 
L 536.098255 130.333287 
L 536.667585 127.221269 
L 537.236915 128.136569 
L 537.806244 127.038209 
L 538.375574 125.57373 
L 539.514233 123.468541 
L 540.083563 120.448053 
L 540.652893 122.095592 
L 541.222222 123.102422 
L 541.791552 123.193952 
L 542.360882 123.651601 
L 542.930211 123.102422 
L 543.499541 121.729473 
L 544.068871 122.461712 
L 544.6382 121.088763 
L 545.20753 122.919362 
L 545.77686 124.292311 
L 546.346189 123.651601 
L 546.915519 121.637943 
L 547.484848 118.617454 
L 548.054178 116.969915 
L 548.623508 116.878386 
L 549.192837 117.885215 
L 549.762167 119.807344 
L 550.331497 118.159805 
L 550.900826 120.448053 
L 551.470156 120.173464 
L 552.039486 119.258164 
L 552.608815 118.068275 
L 553.747475 114.498607 
L 554.316804 113.491778 
L 554.886134 113.949427 
L 556.024793 117.702155 
L 557.163453 119.898874 
L 557.732782 120.722643 
L 558.302112 120.905703 
L 558.871442 122.461712 
L 559.440771 119.258164 
L 560.010101 118.708984 
L 560.579431 119.990404 
L 561.14876 122.736302 
L 561.71809 129.143398 
L 562.856749 146.167968 
L 564.564738 174.0846 
L 566.272727 195.228017 
L 568.550046 208.408329 
L 569.688705 210.788108 
L 570.258035 211.245758 
L 570.827365 210.696578 
L 571.966024 217.378264 
L 572.535354 218.293563 
L 573.104683 203.099593 
L 573.674013 194.953428 
L 574.243343 198.156976 
L 575.382002 210.330458 
L 575.951331 213.442476 
L 577.089991 218.659683 
L 577.65932 218.110503 
L 578.22865 216.829084 
L 578.79798 216.462964 
L 579.367309 214.815425 
L 579.936639 213.900126 
L 581.075298 214.174716 
L 581.644628 214.449306 
L 582.213958 215.090015 
L 582.783287 217.378264 
L 583.352617 218.842743 
L 583.921947 218.568153 
L 584.491276 217.927443 
L 585.629936 220.856402 
L 586.199265 221.863231 
L 586.768595 222.229351 
L 588.476584 226.531258 
L 589.045914 228.727977 
L 589.615243 229.551746 
L 590.184573 228.544917 
L 591.323232 230.741636 
L 591.892562 231.839995 
L 592.461892 229.917866 
L 593.031221 230.558576 
L 593.600551 232.389175 
L 594.169881 230.833166 
L 594.73921 226.348198 
L 595.87787 231.290815 
L 596.447199 231.107755 
L 597.016529 225.432899 
L 597.585859 215.364605 
L 598.155188 216.188375 
L 598.724518 220.124162 
L 599.293848 222.87006 
L 599.863177 224.883719 
L 601.001837 226.897378 
L 601.571166 227.171968 
L 602.140496 228.819507 
L 603.279155 227.263498 
L 603.848485 227.904207 
L 604.417815 227.629618 
L 604.987144 226.897378 
L 605.556474 228.361857 
L 606.125803 228.819507 
L 606.695133 228.087267 
L 607.264463 228.087267 
L 607.833792 227.812677 
L 608.403122 224.792189 
L 608.972452 224.975249 
L 609.541781 224.426069 
L 610.680441 229.551746 
L 611.24977 230.375516 
L 611.8191 234.036714 
L 612.38843 235.958842 
L 612.957759 234.036714 
L 613.527089 233.212944 
L 614.096419 234.311303 
L 614.665748 232.846824 
L 615.235078 233.396004 
L 615.804408 233.670594 
L 616.373737 233.762124 
L 616.943067 233.304474 
L 617.512397 234.128244 
L 618.081726 234.036714 
L 618.651056 234.768953 
L 619.789715 234.494363 
L 620.359045 235.135073 
L 621.497704 232.755294 
L 622.067034 229.277157 
L 622.636364 224.700659 
L 622.636364 224.700659 
" clip-path="url(#p276ab324e9)" style="fill: none; stroke: #1f77b4; stroke-width: 1.5; stroke-linecap: square"/>
   </g>
   <g id="line2d_22">
    <path d="M 115.363636 112.484948 
L 117.640955 100.399263 
L 119.918274 89.309648 
L 122.195592 79.196898 
L 124.472911 70.027045 
L 126.75023 61.754858 
L 129.027548 54.327273 
L 129.596878 114.315547 
L 130.735537 114.557359 
L 132.443526 114.919917 
L 134.720845 115.465181 
L 136.998163 115.33356 
L 139.275482 115.881429 
L 140.414141 116.153666 
L 141.552801 114.897246 
L 142.12213 115.134062 
L 142.69146 115.237125 
L 143.26079 116.420736 
L 156.355372 119.384645 
L 156.924702 121.637943 
L 159.20202 122.091458 
L 162.617998 122.54657 
L 163.187328 122.713575 
L 164.325987 122.476139 
L 164.895317 122.648248 
L 165.464646 122.685414 
L 166.033976 122.598563 
L 167.172635 120.082367 
L 167.741965 119.917102 
L 168.311295 120.115481 
L 169.449954 119.698276 
L 170.019284 119.715253 
L 170.588613 118.159805 
L 183.683196 121.088363 
L 184.252525 181.864646 
L 199.624426 183.778917 
L 200.193756 220.398752 
L 211.580349 221.139119 
L 212.149679 236.050372 
L 238.338843 237.103809 
L 238.908173 243.738888 
L 251.433425 244.098545 
L 252.002755 241.542169 
L 255.418733 241.605275 
L 256.557392 241.555652 
L 257.696051 241.528526 
L 258.834711 240.830964 
L 259.40404 240.885631 
L 261.112029 240.356717 
L 261.681359 240.250325 
L 262.250689 239.824512 
L 262.820018 238.112118 
L 263.389348 236.779382 
L 264.528007 236.445789 
L 265.666667 236.585993 
L 266.805326 235.324941 
L 267.374656 235.552036 
L 267.943985 234.7222 
L 268.513315 245.569486 
L 271.359963 245.636917 
L 271.929293 247.033966 
L 273.637282 247.086167 
L 274.775941 246.322698 
L 275.345271 246.407667 
L 276.48393 246.25979 
L 277.62259 246.246564 
L 278.191919 246.514926 
L 278.761249 244.837604 
L 279.330579 238.796271 
L 306.089073 239.759279 
L 306.658402 254.173301 
L 320.322314 254.344075 
L 320.891644 258.749798 
L 333.416896 258.817457 
L 333.986226 259.482038 
L 347.650138 259.540256 
L 348.219467 260.946517 
L 361.31405 260.972565 
L 361.883379 266.072194 
L 374.977961 265.972348 
L 375.547291 269.550332 
L 376.116621 269.43702 
L 377.25528 267.977758 
L 378.393939 263.960991 
L 378.963269 262.458653 
L 379.532599 260.497174 
L 380.101928 259.467211 
L 380.671258 257.183223 
L 382.379247 242.570072 
L 382.948577 238.618307 
L 384.087236 223.280194 
L 384.656566 219.236407 
L 385.225895 212.947322 
L 385.795225 202.543734 
L 386.364555 196.395715 
L 386.933884 194.608894 
L 387.503214 194.230435 
L 388.641873 194.389052 
L 389.211203 237.697911 
L 396.612489 237.897316 
L 398.320478 237.66934 
L 398.889807 237.474228 
L 400.028466 237.439137 
L 400.597796 237.520319 
L 401.736455 236.773147 
L 402.305785 236.683066 
L 402.875115 252.708822 
L 404.013774 252.703711 
L 406.291093 252.62124 
L 408.568411 252.503578 
L 409.137741 252.283584 
L 426.217631 250.853287 
L 427.35629 250.466738 
L 430.772268 250.543019 
L 443.297521 250.763345 
L 443.86685 261.495697 
L 456.392103 261.509941 
L 456.961433 266.438314 
L 470.625344 266.349045 
L 471.194674 269.550332 
L 472.333333 269.515177 
L 474.041322 269.175716 
L 474.610652 268.993392 
L 475.749311 267.914181 
L 476.318641 267.857106 
L 476.887971 267.58614 
L 478.02663 265.199587 
L 478.59596 264.621769 
L 480.303949 261.838944 
L 481.442608 260.799667 
L 482.581267 254.000917 
L 483.150597 253.827946 
L 483.719927 253.800692 
L 484.289256 269.733392 
L 492.259871 269.543743 
L 492.829201 269.435237 
L 493.398531 269.201109 
L 495.10652 268.062278 
L 496.245179 267.702124 
L 497.383838 266.707591 
L 497.953168 265.712626 
L 498.522498 253.074942 
L 500.799816 247.734874 
L 501.369146 245.72237 
L 501.938476 242.987253 
L 503.077135 236.440165 
L 504.785124 229.516746 
L 505.923783 224.266939 
L 506.493113 221.79904 
L 507.062443 218.656642 
L 507.631772 216.313933 
L 508.201102 215.498315 
L 508.770432 215.215707 
L 509.339761 215.148376 
L 511.61708 215.327085 
L 512.18641 241.725229 
L 519.018365 241.901852 
L 520.157025 241.601973 
L 521.295684 241.268531 
L 522.434343 241.149728 
L 523.003673 241.200444 
L 523.573003 241.018101 
L 524.142332 240.460314 
L 525.280992 238.665416 
L 525.850321 252.159642 
L 538.944904 252.364307 
L 539.514233 127.129739 
L 552.608815 129.87596 
L 553.178145 120.722643 
L 562.28742 122.684567 
L 562.856749 122.62374 
L 563.426079 122.391326 
L 563.995409 122.399322 
L 565.134068 122.653093 
L 565.703398 122.541678 
L 566.272727 122.254116 
L 566.842057 179.118747 
L 567.411387 178.941434 
L 568.550046 179.017585 
L 569.119376 179.126494 
L 569.688705 178.76427 
L 570.258035 177.897729 
L 570.827365 176.769533 
L 571.396694 174.751408 
L 571.966024 173.154422 
L 572.535354 172.852734 
L 573.674013 172.847012 
L 574.243343 172.594017 
L 574.812672 171.834952 
L 575.382002 170.243444 
L 575.951331 166.420849 
L 576.520661 163.844321 
L 577.089991 163.645936 
L 577.65932 163.209685 
L 578.79798 163.29355 
L 579.936639 163.476698 
L 580.505969 217.561324 
L 583.352617 217.452208 
L 584.491276 217.504239 
L 586.768595 216.267836 
L 589.045914 215.806347 
L 590.184573 215.642776 
L 593.600551 215.899865 
L 594.169881 229.460216 
L 595.30854 229.328047 
L 598.155188 229.302644 
L 598.724518 229.1558 
L 599.863177 228.141902 
L 600.432507 227.938974 
L 601.001837 227.526885 
L 601.571166 227.286131 
L 602.140496 227.228269 
L 602.709826 226.949288 
L 603.279155 226.414525 
L 603.848485 225.600275 
L 604.987144 224.569463 
L 605.556474 223.497449 
L 606.125803 222.774569 
L 606.695133 222.619047 
L 607.264463 222.663964 
L 607.833792 228.911037 
L 620.928375 229.588289 
L 621.497704 234.402833 
L 622.636364 234.45248 
L 622.636364 234.45248 
" clip-path="url(#p276ab324e9)" style="fill: none; stroke: #ff7f0e; stroke-width: 1.5; stroke-linecap: square"/>
   </g>
   <g id="patch_3">
    <path d="M 90 288 
L 90 43.2 
" style="fill: none; stroke: #000000; stroke-width: 0.8; stroke-linejoin: miter; stroke-linecap: square"/>
   </g>
   <g id="patch_4">
    <path d="M 648 288 
L 648 43.2 
" style="fill: none; stroke: #000000; stroke-width: 0.8; stroke-linejoin: miter; stroke-linecap: square"/>
   </g>
   <g id="patch_5">
    <path d="M 90 288 
L 648 288 
" style="fill: none; stroke: #000000; stroke-width: 0.8; stroke-linejoin: miter; stroke-linecap: square"/>
   </g>
   <g id="patch_6">
    <path d="M 90 43.2 
L 648 43.2 
" style="fill: none; stroke: #000000; stroke-width: 0.8; stroke-linejoin: miter; stroke-linecap: square"/>
   </g>
   <g id="text_22">
    <!-- MDOT1072 -->
    <g transform="translate(335.545313 37.2) scale(0.12 -0.12)">
     <defs>
      <path id="DejaVuSans-44" d="M 1259 4147 
L 1259 519 
L 2022 519 
Q 2988 519 3436 956 
Q 3884 1394 3884 2338 
Q 3884 3275 3436 3711 
Q 2988 4147 2022 4147 
L 1259 4147 
z
M 628 4666 
L 1925 4666 
Q 3281 4666 3915 4102 
Q 4550 3538 4550 2338 
Q 4550 1131 3912 565 
Q 3275 0 1925 0 
L 628 0 
L 628 4666 
z
" transform="scale(0.015625)"/>
      <path id="DejaVuSans-4f" d="M 2522 4238 
Q 1834 4238 1429 3725 
Q 1025 3213 1025 2328 
Q 1025 1447 1429 934 
Q 1834 422 2522 422 
Q 3209 422 3611 934 
Q 4013 1447 4013 2328 
Q 4013 3213 3611 3725 
Q 3209 4238 2522 4238 
z
M 2522 4750 
Q 3503 4750 4090 4092 
Q 4678 3434 4678 2328 
Q 4678 1225 4090 567 
Q 3503 -91 2522 -91 
Q 1538 -91 948 565 
Q 359 1222 359 2328 
Q 359 3434 948 4092 
Q 1538 4750 2522 4750 
z
" transform="scale(0.015625)"/>
      <path id="DejaVuSans-54" d="M -19 4666 
L 3928 4666 
L 3928 4134 
L 2272 4134 
L 2272 0 
L 1638 0 
L 1638 4134 
L -19 4134 
L -19 4666 
z
" transform="scale(0.015625)"/>
     </defs>
     <use xlink:href="#DejaVuSans-4d"/>
     <use xlink:href="#DejaVuSans-44" x="86.279297"/>
     <use xlink:href="#DejaVuSans-4f" x="163.28125"/>
     <use xlink:href="#DejaVuSans-54" x="241.992188"/>
     <use xlink:href="#DejaVuSans-31" x="303.076172"/>
     <use xlink:href="#DejaVuSans-30" x="366.699219"/>
     <use xlink:href="#DejaVuSans-37" x="430.322266"/>
     <use xlink:href="#DejaVuSans-32" x="493.945312"/>
    </g>
   </g>
   <g id="legend_1">
    <g id="patch_7">
     <path d="M 559.04375 80.55625 
L 641 80.55625 
Q 643 80.55625 643 78.55625 
L 643 50.2 
Q 643 48.2 641 48.2 
L 559.04375 48.2 
Q 557.04375 48.2 557.04375 50.2 
L 557.04375 78.55625 
Q 557.04375 80.55625 559.04375 80.55625 
z
" style="fill: #ffffff; opacity: 0.8; stroke: #cccccc; stroke-linejoin: miter"/>
    </g>
    <g id="line2d_23">
     <path d="M 561.04375 56.298437 
L 571.04375 56.298437 
L 581.04375 56.298437 
" style="fill: none; stroke: #1f77b4; stroke-width: 1.5; stroke-linecap: square"/>
    </g>
    <g id="text_23">
     <!-- measured -->
     <g transform="translate(589.04375 59.798437) scale(0.1 -0.1)">
      <defs>
       <path id="DejaVuSans-6d" d="M 3328 2828 
Q 3544 3216 3844 3400 
Q 4144 3584 4550 3584 
Q 5097 3584 5394 3201 
Q 5691 2819 5691 2113 
L 5691 0 
L 5113 0 
L 5113 2094 
Q 5113 2597 4934 2840 
Q 4756 3084 4391 3084 
Q 3944 3084 3684 2787 
Q 3425 2491 3425 1978 
L 3425 0 
L 2847 0 
L 2847 2094 
Q 2847 2600 2669 2842 
Q 2491 3084 2119 3084 
Q 1678 3084 1418 2786 
Q 1159 2488 1159 1978 
L 1159 0 
L 581 0 
L 581 3500 
L 1159 3500 
L 1159 2956 
Q 1356 3278 1631 3431 
Q 1906 3584 2284 3584 
Q 2666 3584 2933 3390 
Q 3200 3197 3328 2828 
z
" transform="scale(0.015625)"/>
       <path id="DejaVuSans-61" d="M 2194 1759 
Q 1497 1759 1228 1600 
Q 959 1441 959 1056 
Q 959 750 1161 570 
Q 1363 391 1709 391 
Q 2188 391 2477 730 
Q 2766 1069 2766 1631 
L 2766 1759 
L 2194 1759 
z
M 3341 1997 
L 3341 0 
L 2766 0 
L 2766 531 
Q 2569 213 2275 61 
Q 1981 -91 1556 -91 
Q 1019 -91 701 211 
Q 384 513 384 1019 
Q 384 1609 779 1909 
Q 1175 2209 1959 2209 
L 2766 2209 
L 2766 2266 
Q 2766 2663 2505 2880 
Q 2244 3097 1772 3097 
Q 1472 3097 1187 3025 
Q 903 2953 641 2809 
L 641 3341 
Q 956 3463 1253 3523 
Q 1550 3584 1831 3584 
Q 2591 3584 2966 3190 
Q 3341 2797 3341 1997 
z
" transform="scale(0.015625)"/>
       <path id="DejaVuSans-75" d="M 544 1381 
L 544 3500 
L 1119 3500 
L 1119 1403 
Q 1119 906 1312 657 
Q 1506 409 1894 409 
Q 2359 409 2629 706 
Q 2900 1003 2900 1516 
L 2900 3500 
L 3475 3500 
L 3475 0 
L 2900 0 
L 2900 538 
Q 2691 219 2414 64 
Q 2138 -91 1772 -91 
Q 1169 -91 856 284 
Q 544 659 544 1381 
z
M 1991 3584 
L 1991 3584 
z
" transform="scale(0.015625)"/>
       <path id="DejaVuSans-64" d="M 2906 2969 
L 2906 4863 
L 3481 4863 
L 3481 0 
L 2906 0 
L 2906 525 
Q 2725 213 2448 61 
Q 2172 -91 1784 -91 
Q 1150 -91 751 415 
Q 353 922 353 1747 
Q 353 2572 751 3078 
Q 1150 3584 1784 3584 
Q 2172 3584 2448 3432 
Q 2725 3281 2906 2969 
z
M 947 1747 
Q 947 1113 1208 752 
Q 1469 391 1925 391 
Q 2381 391 2643 752 
Q 2906 1113 2906 1747 
Q 2906 2381 2643 2742 
Q 2381 3103 1925 3103 
Q 1469 3103 1208 2742 
Q 947 2381 947 1747 
z
" transform="scale(0.015625)"/>
      </defs>
      <use xlink:href="#DejaVuSans-6d"/>
      <use xlink:href="#DejaVuSans-65" x="97.412109"/>
      <use xlink:href="#DejaVuSans-61" x="158.935547"/>
      <use xlink:href="#DejaVuSans-73" x="220.214844"/>
      <use xlink:href="#DejaVuSans-75" x="272.314453"/>
      <use xlink:href="#DejaVuSans-72" x="335.693359"/>
      <use xlink:href="#DejaVuSans-65" x="374.556641"/>
      <use xlink:href="#DejaVuSans-64" x="436.080078"/>
     </g>
    </g>
    <g id="line2d_24">
     <path d="M 561.04375 70.976562 
L 571.04375 70.976562 
L 581.04375 70.976562 
" style="fill: none; stroke: #ff7f0e; stroke-width: 1.5; stroke-linecap: square"/>
    </g>
    <g id="text_24">
     <!-- predicted -->
     <g transform="translate(589.04375 74.476562) scale(0.1 -0.1)">
      <defs>
       <path id="DejaVuSans-70" d="M 1159 525 
L 1159 -1331 
L 581 -1331 
L 581 3500 
L 1159 3500 
L 1159 2969 
Q 1341 3281 1617 3432 
Q 1894 3584 2278 3584 
Q 2916 3584 3314 3078 
Q 3713 2572 3713 1747 
Q 3713 922 3314 415 
Q 2916 -91 2278 -91 
Q 1894 -91 1617 61 
Q 1341 213 1159 525 
z
M 3116 1747 
Q 3116 2381 2855 2742 
Q 2594 3103 2138 3103 
Q 1681 3103 1420 2742 
Q 1159 2381 1159 1747 
Q 1159 1113 1420 752 
Q 1681 391 2138 391 
Q 2594 391 2855 752 
Q 3116 1113 3116 1747 
z
" transform="scale(0.015625)"/>
       <path id="DejaVuSans-69" d="M 603 3500 
L 1178 3500 
L 1178 0 
L 603 0 
L 603 3500 
z
M 603 4863 
L 1178 4863 
L 1178 4134 
L 603 4134 
L 603 4863 
z
" transform="scale(0.015625)"/>
       <path id="DejaVuSans-63" d="M 3122 3366 
L 3122 2828 
Q 2878 2963 2633 3030 
Q 2388 3097 2138 3097 
Q 1578 3097 1268 2742 
Q 959 2388 959 1747 
Q 959 1106 1268 751 
Q 1578 397 2138 397 
Q 2388 397 2633 464 
Q 2878 531 3122 666 
L 3122 134 
Q 2881 22 2623 -34 
Q 2366 -91 2075 -91 
Q 1284 -91 818 406 
Q 353 903 353 1747 
Q 353 2603 823 3093 
Q 1294 3584 2113 3584 
Q 2378 3584 2631 3529 
Q 2884 3475 3122 3366 
z
" transform="scale(0.015625)"/>
      </defs>
      <use xlink:href="#DejaVuSans-70"/>
      <use xlink:href="#DejaVuSans-72" x="63.476562"/>
      <use xlink:href="#DejaVuSans-65" x="102.339844"/>
      <use xlink:href="#DejaVuSans-64" x="163.863281"/>
      <use xlink:href="#DejaVuSans-69" x="227.339844"/>
      <use xlink:href="#DejaVuSans-63" x="255.123047"/>
      <use xlink:href="#DejaVuSans-74" x="310.103516"/>
      <use xlink:href="#DejaVuSans-65" x="349.3125"/>
      <use xlink:href="#DejaVuSans-64" x="410.835938"/>
     </g>
    </g>
   </g>
  </g>
 </g>
 <defs>
  <clipPath id="p276ab324e9">
   <rect x="90" y="43.2" width="558" height="244.8"/>
  </clipPath>
 </defs>
</svg>
