<?xml version="1.0" encoding="utf-8" standalone="no"?>
<!DOCTYPE svg PUBLIC "-//W3C//DTD SVG 1.1//EN"
  "http://www.w3.org/Graphics/SVG/1.1/DTD/svg11.dtd">
<svg xmlns:xlink="http://www.w3.org/1999/xlink" width="710.371301pt" height="351.43625pt" viewBox="0 0 710.371301 351.43625" xmlns="http://www.w3.org/2000/svg" version="1.1">
 <metadata>
  <rdf:RDF xmlns:dc="http://purl.org/dc/elements/1.1/" xmlns:cc="http://creativecommons.org/ns#" xmlns:rdf="http://www.w3.org/1999/02/22-rdf-syntax-ns#">
   <cc:Work>
    <dc:type rdf:resource="http://purl.org/dc/dcmitype/StillImage"/>
    <dc:date>2023-08-22T11:29:54.983009</dc:date>
    <dc:format>image/svg+xml</dc:format>
    <dc:creator>
     <cc:Agent>
      <dc:title>Matplotlib v3.7.1, https://matplotlib.org/</dc:title>
     </cc:Agent>
    </dc:creator>
   </cc:Work>
  </rdf:RDF>
 </metadata>
 <defs>
  <style type="text/css">*{stroke-linejoin: round; stroke-linecap: butt}</style>
 </defs>
 <g id="figure_1">
  <g id="patch_1">
   <path d="M 0 351.43625 
L 710.371301 351.43625 
L 710.371301 0 
L 0 0 
z
" style="fill: #ffffff"/>
  </g>
  <g id="axes_1">
   <g id="patch_2">
    <path d="M 46.0125 327.558125 
L 701.667294 327.558125 
L 701.667294 22.318125 
L 46.0125 22.318125 
z
" style="fill: #ffffff"/>
   </g>
   <g id="matplotlib.axis_1">
    <g id="xtick_1">
     <g id="line2d_1">
      <defs>
       <path id="m943d9f8014" d="M 0 0 
L 0 3.5 
" style="stroke: #000000; stroke-width: 0.8"/>
      </defs>
      <g>
       <use xlink:href="#m943d9f8014" x="90.017388" y="327.558125" style="stroke: #000000; stroke-width: 0.8"/>
      </g>
     </g>
     <g id="text_1">
      <!-- 2018-01 -->
      <g transform="translate(69.125982 342.156563) scale(0.1 -0.1)">
       <defs>
        <path id="DejaVuSans-32" d="M 1228 531 
L 3431 531 
L 3431 0 
L 469 0 
L 469 531 
Q 828 903 1448 1529 
Q 2069 2156 2228 2338 
Q 2531 2678 2651 2914 
Q 2772 3150 2772 3378 
Q 2772 3750 2511 3984 
Q 2250 4219 1831 4219 
Q 1534 4219 1204 4116 
Q 875 4013 500 3803 
L 500 4441 
Q 881 4594 1212 4672 
Q 1544 4750 1819 4750 
Q 2544 4750 2975 4387 
Q 3406 4025 3406 3419 
Q 3406 3131 3298 2873 
Q 3191 2616 2906 2266 
Q 2828 2175 2409 1742 
Q 1991 1309 1228 531 
z
" transform="scale(0.015625)"/>
        <path id="DejaVuSans-30" d="M 2034 4250 
Q 1547 4250 1301 3770 
Q 1056 3291 1056 2328 
Q 1056 1369 1301 889 
Q 1547 409 2034 409 
Q 2525 409 2770 889 
Q 3016 1369 3016 2328 
Q 3016 3291 2770 3770 
Q 2525 4250 2034 4250 
z
M 2034 4750 
Q 2819 4750 3233 4129 
Q 3647 3509 3647 2328 
Q 3647 1150 3233 529 
Q 2819 -91 2034 -91 
Q 1250 -91 836 529 
Q 422 1150 422 2328 
Q 422 3509 836 4129 
Q 1250 4750 2034 4750 
z
" transform="scale(0.015625)"/>
        <path id="DejaVuSans-31" d="M 794 531 
L 1825 531 
L 1825 4091 
L 703 3866 
L 703 4441 
L 1819 4666 
L 2450 4666 
L 2450 531 
L 3481 531 
L 3481 0 
L 794 0 
L 794 531 
z
" transform="scale(0.015625)"/>
        <path id="DejaVuSans-38" d="M 2034 2216 
Q 1584 2216 1326 1975 
Q 1069 1734 1069 1313 
Q 1069 891 1326 650 
Q 1584 409 2034 409 
Q 2484 409 2743 651 
Q 3003 894 3003 1313 
Q 3003 1734 2745 1975 
Q 2488 2216 2034 2216 
z
M 1403 2484 
Q 997 2584 770 2862 
Q 544 3141 544 3541 
Q 544 4100 942 4425 
Q 1341 4750 2034 4750 
Q 2731 4750 3128 4425 
Q 3525 4100 3525 3541 
Q 3525 3141 3298 2862 
Q 3072 2584 2669 2484 
Q 3125 2378 3379 2068 
Q 3634 1759 3634 1313 
Q 3634 634 3220 271 
Q 2806 -91 2034 -91 
Q 1263 -91 848 271 
Q 434 634 434 1313 
Q 434 1759 690 2068 
Q 947 2378 1403 2484 
z
M 1172 3481 
Q 1172 3119 1398 2916 
Q 1625 2713 2034 2713 
Q 2441 2713 2670 2916 
Q 2900 3119 2900 3481 
Q 2900 3844 2670 4047 
Q 2441 4250 2034 4250 
Q 1625 4250 1398 4047 
Q 1172 3844 1172 3481 
z
" transform="scale(0.015625)"/>
        <path id="DejaVuSans-2d" d="M 313 2009 
L 1997 2009 
L 1997 1497 
L 313 1497 
L 313 2009 
z
" transform="scale(0.015625)"/>
       </defs>
       <use xlink:href="#DejaVuSans-32"/>
       <use xlink:href="#DejaVuSans-30" x="63.623047"/>
       <use xlink:href="#DejaVuSans-31" x="127.246094"/>
       <use xlink:href="#DejaVuSans-38" x="190.869141"/>
       <use xlink:href="#DejaVuSans-2d" x="254.492188"/>
       <use xlink:href="#DejaVuSans-30" x="290.576172"/>
       <use xlink:href="#DejaVuSans-31" x="354.199219"/>
      </g>
     </g>
    </g>
    <g id="xtick_2">
     <g id="line2d_2">
      <g>
       <use xlink:href="#m943d9f8014" x="155.303328" y="327.558125" style="stroke: #000000; stroke-width: 0.8"/>
      </g>
     </g>
     <g id="text_2">
      <!-- 2018-07 -->
      <g transform="translate(134.411922 342.156563) scale(0.1 -0.1)">
       <defs>
        <path id="DejaVuSans-37" d="M 525 4666 
L 3525 4666 
L 3525 4397 
L 1831 0 
L 1172 0 
L 2766 4134 
L 525 4134 
L 525 4666 
z
" transform="scale(0.015625)"/>
       </defs>
       <use xlink:href="#DejaVuSans-32"/>
       <use xlink:href="#DejaVuSans-30" x="63.623047"/>
       <use xlink:href="#DejaVuSans-31" x="127.246094"/>
       <use xlink:href="#DejaVuSans-38" x="190.869141"/>
       <use xlink:href="#DejaVuSans-2d" x="254.492188"/>
       <use xlink:href="#DejaVuSans-30" x="290.576172"/>
       <use xlink:href="#DejaVuSans-37" x="354.199219"/>
      </g>
     </g>
    </g>
    <g id="xtick_3">
     <g id="line2d_3">
      <g>
       <use xlink:href="#m943d9f8014" x="221.671355" y="327.558125" style="stroke: #000000; stroke-width: 0.8"/>
      </g>
     </g>
     <g id="text_3">
      <!-- 2019-01 -->
      <g transform="translate(200.779949 342.156563) scale(0.1 -0.1)">
       <defs>
        <path id="DejaVuSans-39" d="M 703 97 
L 703 672 
Q 941 559 1184 500 
Q 1428 441 1663 441 
Q 2288 441 2617 861 
Q 2947 1281 2994 2138 
Q 2813 1869 2534 1725 
Q 2256 1581 1919 1581 
Q 1219 1581 811 2004 
Q 403 2428 403 3163 
Q 403 3881 828 4315 
Q 1253 4750 1959 4750 
Q 2769 4750 3195 4129 
Q 3622 3509 3622 2328 
Q 3622 1225 3098 567 
Q 2575 -91 1691 -91 
Q 1453 -91 1209 -44 
Q 966 3 703 97 
z
M 1959 2075 
Q 2384 2075 2632 2365 
Q 2881 2656 2881 3163 
Q 2881 3666 2632 3958 
Q 2384 4250 1959 4250 
Q 1534 4250 1286 3958 
Q 1038 3666 1038 3163 
Q 1038 2656 1286 2365 
Q 1534 2075 1959 2075 
z
" transform="scale(0.015625)"/>
       </defs>
       <use xlink:href="#DejaVuSans-32"/>
       <use xlink:href="#DejaVuSans-30" x="63.623047"/>
       <use xlink:href="#DejaVuSans-31" x="127.246094"/>
       <use xlink:href="#DejaVuSans-39" x="190.869141"/>
       <use xlink:href="#DejaVuSans-2d" x="254.492188"/>
       <use xlink:href="#DejaVuSans-30" x="290.576172"/>
       <use xlink:href="#DejaVuSans-31" x="354.199219"/>
      </g>
     </g>
    </g>
    <g id="xtick_4">
     <g id="line2d_4">
      <g>
       <use xlink:href="#m943d9f8014" x="286.957296" y="327.558125" style="stroke: #000000; stroke-width: 0.8"/>
      </g>
     </g>
     <g id="text_4">
      <!-- 2019-07 -->
      <g transform="translate(266.065889 342.156563) scale(0.1 -0.1)">
       <use xlink:href="#DejaVuSans-32"/>
       <use xlink:href="#DejaVuSans-30" x="63.623047"/>
       <use xlink:href="#DejaVuSans-31" x="127.246094"/>
       <use xlink:href="#DejaVuSans-39" x="190.869141"/>
       <use xlink:href="#DejaVuSans-2d" x="254.492188"/>
       <use xlink:href="#DejaVuSans-30" x="290.576172"/>
       <use xlink:href="#DejaVuSans-37" x="354.199219"/>
      </g>
     </g>
    </g>
    <g id="xtick_5">
     <g id="line2d_5">
      <g>
       <use xlink:href="#m943d9f8014" x="353.325323" y="327.558125" style="stroke: #000000; stroke-width: 0.8"/>
      </g>
     </g>
     <g id="text_5">
      <!-- 2020-01 -->
      <g transform="translate(332.433917 342.156563) scale(0.1 -0.1)">
       <use xlink:href="#DejaVuSans-32"/>
       <use xlink:href="#DejaVuSans-30" x="63.623047"/>
       <use xlink:href="#DejaVuSans-32" x="127.246094"/>
       <use xlink:href="#DejaVuSans-30" x="190.869141"/>
       <use xlink:href="#DejaVuSans-2d" x="254.492188"/>
       <use xlink:href="#DejaVuSans-30" x="290.576172"/>
       <use xlink:href="#DejaVuSans-31" x="354.199219"/>
      </g>
     </g>
    </g>
    <g id="xtick_6">
     <g id="line2d_6">
      <g>
       <use xlink:href="#m943d9f8014" x="418.971959" y="327.558125" style="stroke: #000000; stroke-width: 0.8"/>
      </g>
     </g>
     <g id="text_6">
      <!-- 2020-07 -->
      <g transform="translate(398.080553 342.156563) scale(0.1 -0.1)">
       <use xlink:href="#DejaVuSans-32"/>
       <use xlink:href="#DejaVuSans-30" x="63.623047"/>
       <use xlink:href="#DejaVuSans-32" x="127.246094"/>
       <use xlink:href="#DejaVuSans-30" x="190.869141"/>
       <use xlink:href="#DejaVuSans-2d" x="254.492188"/>
       <use xlink:href="#DejaVuSans-30" x="290.576172"/>
       <use xlink:href="#DejaVuSans-37" x="354.199219"/>
      </g>
     </g>
    </g>
    <g id="xtick_7">
     <g id="line2d_7">
      <g>
       <use xlink:href="#m943d9f8014" x="485.339987" y="327.558125" style="stroke: #000000; stroke-width: 0.8"/>
      </g>
     </g>
     <g id="text_7">
      <!-- 2021-01 -->
      <g transform="translate(464.44858 342.156563) scale(0.1 -0.1)">
       <use xlink:href="#DejaVuSans-32"/>
       <use xlink:href="#DejaVuSans-30" x="63.623047"/>
       <use xlink:href="#DejaVuSans-32" x="127.246094"/>
       <use xlink:href="#DejaVuSans-31" x="190.869141"/>
       <use xlink:href="#DejaVuSans-2d" x="254.492188"/>
       <use xlink:href="#DejaVuSans-30" x="290.576172"/>
       <use xlink:href="#DejaVuSans-31" x="354.199219"/>
      </g>
     </g>
    </g>
    <g id="xtick_8">
     <g id="line2d_8">
      <g>
       <use xlink:href="#m943d9f8014" x="550.625927" y="327.558125" style="stroke: #000000; stroke-width: 0.8"/>
      </g>
     </g>
     <g id="text_8">
      <!-- 2021-07 -->
      <g transform="translate(529.73452 342.156563) scale(0.1 -0.1)">
       <use xlink:href="#DejaVuSans-32"/>
       <use xlink:href="#DejaVuSans-30" x="63.623047"/>
       <use xlink:href="#DejaVuSans-32" x="127.246094"/>
       <use xlink:href="#DejaVuSans-31" x="190.869141"/>
       <use xlink:href="#DejaVuSans-2d" x="254.492188"/>
       <use xlink:href="#DejaVuSans-30" x="290.576172"/>
       <use xlink:href="#DejaVuSans-37" x="354.199219"/>
      </g>
     </g>
    </g>
    <g id="xtick_9">
     <g id="line2d_9">
      <g>
       <use xlink:href="#m943d9f8014" x="616.993954" y="327.558125" style="stroke: #000000; stroke-width: 0.8"/>
      </g>
     </g>
     <g id="text_9">
      <!-- 2022-01 -->
      <g transform="translate(596.102548 342.156563) scale(0.1 -0.1)">
       <use xlink:href="#DejaVuSans-32"/>
       <use xlink:href="#DejaVuSans-30" x="63.623047"/>
       <use xlink:href="#DejaVuSans-32" x="127.246094"/>
       <use xlink:href="#DejaVuSans-32" x="190.869141"/>
       <use xlink:href="#DejaVuSans-2d" x="254.492188"/>
       <use xlink:href="#DejaVuSans-30" x="290.576172"/>
       <use xlink:href="#DejaVuSans-31" x="354.199219"/>
      </g>
     </g>
    </g>
    <g id="xtick_10">
     <g id="line2d_10">
      <g>
       <use xlink:href="#m943d9f8014" x="682.279894" y="327.558125" style="stroke: #000000; stroke-width: 0.8"/>
      </g>
     </g>
     <g id="text_10">
      <!-- 2022-07 -->
      <g transform="translate(661.388488 342.156563) scale(0.1 -0.1)">
       <use xlink:href="#DejaVuSans-32"/>
       <use xlink:href="#DejaVuSans-30" x="63.623047"/>
       <use xlink:href="#DejaVuSans-32" x="127.246094"/>
       <use xlink:href="#DejaVuSans-32" x="190.869141"/>
       <use xlink:href="#DejaVuSans-2d" x="254.492188"/>
       <use xlink:href="#DejaVuSans-30" x="290.576172"/>
       <use xlink:href="#DejaVuSans-37" x="354.199219"/>
      </g>
     </g>
    </g>
   </g>
   <g id="matplotlib.axis_2">
    <g id="ytick_1">
     <g id="line2d_11">
      <defs>
       <path id="m6c32b9a045" d="M 0 0 
L -3.5 0 
" style="stroke: #000000; stroke-width: 0.8"/>
      </defs>
      <g>
       <use xlink:href="#m6c32b9a045" x="46.0125" y="313.68358" style="stroke: #000000; stroke-width: 0.8"/>
      </g>
     </g>
     <g id="text_11">
      <!-- 0 -->
      <g transform="translate(32.65 317.482798) scale(0.1 -0.1)">
       <use xlink:href="#DejaVuSans-30"/>
      </g>
     </g>
    </g>
    <g id="ytick_2">
     <g id="line2d_12">
      <g>
       <use xlink:href="#m6c32b9a045" x="46.0125" y="264.520038" style="stroke: #000000; stroke-width: 0.8"/>
      </g>
     </g>
     <g id="text_12">
      <!-- 2000 -->
      <g transform="translate(13.5625 268.319257) scale(0.1 -0.1)">
       <use xlink:href="#DejaVuSans-32"/>
       <use xlink:href="#DejaVuSans-30" x="63.623047"/>
       <use xlink:href="#DejaVuSans-30" x="127.246094"/>
       <use xlink:href="#DejaVuSans-30" x="190.869141"/>
      </g>
     </g>
    </g>
    <g id="ytick_3">
     <g id="line2d_13">
      <g>
       <use xlink:href="#m6c32b9a045" x="46.0125" y="215.356497" style="stroke: #000000; stroke-width: 0.8"/>
      </g>
     </g>
     <g id="text_13">
      <!-- 4000 -->
      <g transform="translate(13.5625 219.155716) scale(0.1 -0.1)">
       <defs>
        <path id="DejaVuSans-34" d="M 2419 4116 
L 825 1625 
L 2419 1625 
L 2419 4116 
z
M 2253 4666 
L 3047 4666 
L 3047 1625 
L 3713 1625 
L 3713 1100 
L 3047 1100 
L 3047 0 
L 2419 0 
L 2419 1100 
L 313 1100 
L 313 1709 
L 2253 4666 
z
" transform="scale(0.015625)"/>
       </defs>
       <use xlink:href="#DejaVuSans-34"/>
       <use xlink:href="#DejaVuSans-30" x="63.623047"/>
       <use xlink:href="#DejaVuSans-30" x="127.246094"/>
       <use xlink:href="#DejaVuSans-30" x="190.869141"/>
      </g>
     </g>
    </g>
    <g id="ytick_4">
     <g id="line2d_14">
      <g>
       <use xlink:href="#m6c32b9a045" x="46.0125" y="166.192956" style="stroke: #000000; stroke-width: 0.8"/>
      </g>
     </g>
     <g id="text_14">
      <!-- 6000 -->
      <g transform="translate(13.5625 169.992174) scale(0.1 -0.1)">
       <defs>
        <path id="DejaVuSans-36" d="M 2113 2584 
Q 1688 2584 1439 2293 
Q 1191 2003 1191 1497 
Q 1191 994 1439 701 
Q 1688 409 2113 409 
Q 2538 409 2786 701 
Q 3034 994 3034 1497 
Q 3034 2003 2786 2293 
Q 2538 2584 2113 2584 
z
M 3366 4563 
L 3366 3988 
Q 3128 4100 2886 4159 
Q 2644 4219 2406 4219 
Q 1781 4219 1451 3797 
Q 1122 3375 1075 2522 
Q 1259 2794 1537 2939 
Q 1816 3084 2150 3084 
Q 2853 3084 3261 2657 
Q 3669 2231 3669 1497 
Q 3669 778 3244 343 
Q 2819 -91 2113 -91 
Q 1303 -91 875 529 
Q 447 1150 447 2328 
Q 447 3434 972 4092 
Q 1497 4750 2381 4750 
Q 2619 4750 2861 4703 
Q 3103 4656 3366 4563 
z
" transform="scale(0.015625)"/>
       </defs>
       <use xlink:href="#DejaVuSans-36"/>
       <use xlink:href="#DejaVuSans-30" x="63.623047"/>
       <use xlink:href="#DejaVuSans-30" x="127.246094"/>
       <use xlink:href="#DejaVuSans-30" x="190.869141"/>
      </g>
     </g>
    </g>
    <g id="ytick_5">
     <g id="line2d_15">
      <g>
       <use xlink:href="#m6c32b9a045" x="46.0125" y="117.029414" style="stroke: #000000; stroke-width: 0.8"/>
      </g>
     </g>
     <g id="text_15">
      <!-- 8000 -->
      <g transform="translate(13.5625 120.828633) scale(0.1 -0.1)">
       <use xlink:href="#DejaVuSans-38"/>
       <use xlink:href="#DejaVuSans-30" x="63.623047"/>
       <use xlink:href="#DejaVuSans-30" x="127.246094"/>
       <use xlink:href="#DejaVuSans-30" x="190.869141"/>
      </g>
     </g>
    </g>
    <g id="ytick_6">
     <g id="line2d_16">
      <g>
       <use xlink:href="#m6c32b9a045" x="46.0125" y="67.865873" style="stroke: #000000; stroke-width: 0.8"/>
      </g>
     </g>
     <g id="text_16">
      <!-- 10000 -->
      <g transform="translate(7.2 71.665092) scale(0.1 -0.1)">
       <use xlink:href="#DejaVuSans-31"/>
       <use xlink:href="#DejaVuSans-30" x="63.623047"/>
       <use xlink:href="#DejaVuSans-30" x="127.246094"/>
       <use xlink:href="#DejaVuSans-30" x="190.869141"/>
       <use xlink:href="#DejaVuSans-30" x="254.492188"/>
      </g>
     </g>
    </g>
   </g>
   <g id="line2d_17">
    <path d="M 75.814991 313.680056 
L 96.554999 313.682064 
L 105.63251 313.679646 
L 108.367787 313.07682 
L 108.457961 306.067328 
L 108.518077 307.796245 
L 108.743512 313.452101 
L 108.90883 313.635358 
L 109.314613 313.663668 
L 109.494961 313.634129 
L 109.50999 313.470128 
L 109.630222 298.160191 
L 109.720396 301.867942 
L 109.750454 303.768932 
L 109.81057 300.470878 
L 109.855657 298.172482 
L 109.900744 300.368454 
L 110.141208 311.644522 
L 110.351614 313.051828 
L 110.712309 313.430387 
L 111.012889 313.475003 
L 111.659136 313.525765 
L 112.771281 313.589472 
L 112.906542 313.572716 
L 120.84185 313.52347 
L 120.886937 311.802664 
L 120.962082 309.508775 
L 121.022198 310.246229 
L 121.082314 310.881258 
L 121.14243 310.414204 
L 121.172488 310.565792 
L 121.533183 313.185799 
L 121.803705 313.447799 
L 122.224517 313.559319 
L 124.959794 313.622371 
L 125.545924 313.608441 
L 127.123968 313.634621 
L 140.319423 313.557967 
L 140.559887 305.977194 
L 140.620003 307.7225 
L 140.830409 312.768728 
L 141.025786 313.510442 
L 141.26625 313.62741 
L 142.032728 313.64429 
L 142.137931 313.48922 
L 142.183018 313.534245 
L 142.393424 313.63626 
L 143.220019 313.673378 
L 148.810804 313.68235 
L 171.654871 313.68358 
L 171.6699 313.463532 
L 171.790132 306.640902 
L 171.805161 306.968659 
L 172.045625 313.339435 
L 172.225973 313.602624 
L 172.286089 313.546167 
L 172.301118 313.286174 
L 172.391292 306.149267 
L 172.451408 306.849847 
L 172.571639 284.595151 
L 172.646784 296.226425 
L 172.812103 310.668216 
L 173.022509 313.330012 
L 173.172799 313.547888 
L 173.187828 313.522774 
L 173.232915 310.847253 
L 173.293031 306.579448 
L 173.413263 276.319288 
L 173.428292 278.203891 
L 173.653727 311.150428 
L 173.834075 313.494587 
L 174.05951 313.647076 
L 174.765872 313.674238 
L 177.18554 313.682105 
L 177.230627 313.405314 
L 177.365888 284.267394 
L 177.426004 295.366063 
L 177.621381 311.827656 
L 177.7867 313.509459 
L 178.012134 313.649657 
L 178.162424 313.665758 
L 180.146251 313.674812 
L 180.16128 313.355413 
L 180.296541 303.613247 
L 180.31157 303.887744 
L 180.386715 307.7225 
L 180.476889 307.124344 
L 180.521976 308.074839 
L 180.76244 313.307478 
L 180.957817 313.598404 
L 181.468803 313.6726 
L 184.399456 313.681736 
L 220.123369 313.581975 
L 220.288688 313.529083 
L 220.7095 313.617127 
L 221.445921 313.515973 
L 221.491008 312.270537 
L 221.61124 306.079618 
L 221.641297 306.661387 
L 221.986964 313.182931 
L 222.212399 313.514293 
L 222.708356 313.626058 
L 222.918762 313.526051 
L 223.054023 312.109937 
L 223.144197 312.649506 
L 223.354603 313.342303 
L 223.655182 313.558376 
L 224.43669 313.640316 
L 225.488719 313.645601 
L 225.548835 313.555304 
L 225.578893 312.793719 
L 225.834386 288.651143 
L 225.92456 292.317924 
L 226.180053 311.419598 
L 226.37543 312.684331 
L 226.630923 313.10345 
L 226.916474 313.273064 
L 226.931503 313.255857 
L 227.036706 313.309937 
L 227.26214 313.408264 
L 228.329199 313.309937 
L 228.46446 313.221442 
L 228.494518 313.260773 
L 228.870243 313.484508 
L 229.877185 313.486188 
L 233.333853 313.59361 
L 233.574317 313.59361 
L 235.077216 313.569192 
L 235.182419 312.193924 
L 235.257564 311.098397 
L 235.302651 311.513829 
L 235.528086 312.872381 
L 235.813637 313.296826 
L 236.745434 313.441941 
L 237.226362 313.273064 
L 237.587058 313.432845 
L 239.676088 313.581811 
L 240.247189 313.381224 
L 240.622914 313.491104 
L 241.013668 313.508393 
L 241.404422 313.454969 
L 241.72003 313.523061 
L 245.973235 313.582999 
L 246.018322 307.026017 
L 246.078438 299.733425 
L 246.138554 303.875453 
L 246.333931 312.154184 
L 246.559366 313.047321 
L 246.920062 313.441859 
L 247.23567 313.379995 
L 247.325844 311.82233 
L 247.400989 311.077912 
L 247.461105 311.298328 
L 247.551279 311.672791 
L 247.596366 311.532675 
L 247.626424 311.447868 
L 247.671511 311.672381 
L 247.957062 312.906386 
L 248.212555 313.3464 
L 248.543193 313.514457 
L 250.52702 313.625321 
L 251.398701 313.555959 
L 251.789455 313.509909 
L 252.46576 313.599018 
L 253.517789 313.614996 
L 253.683108 312.787574 
L 253.743224 312.774054 
L 253.788311 312.831411 
L 254.329355 313.484508 
L 256.4785 313.614259 
L 258.928226 313.594307 
L 258.988342 312.336908 
L 259.048458 311.496621 
L 259.108574 311.755959 
L 259.409154 313.219803 
L 259.61956 313.46136 
L 260.0554 313.573945 
L 260.596444 313.61008 
L 264.924794 313.579107 
L 264.954852 300.520041 
L 265.045026 223.796238 
L 265.120171 247.804434 
L 265.330576 309.28754 
L 265.405721 310.758349 
L 266.878563 313.22513 
L 266.893592 313.042815 
L 266.983766 309.004849 
L 267.058911 309.672654 
L 267.179142 311.859202 
L 267.194171 311.791193 
L 267.314403 301.925299 
L 267.35949 303.994265 
L 267.584925 311.855106 
L 267.614983 312.032914 
L 267.630012 311.707615 
L 267.750244 305.710892 
L 267.81036 306.849847 
L 268.065853 311.794061 
L 268.381462 312.847799 
L 268.426549 312.928919 
L 268.486665 312.858861 
L 268.546781 312.727349 
L 268.591868 312.851487 
L 268.982621 313.293958 
L 269.779158 313.445956 
L 269.839274 313.373849 
L 269.89939 313.420555 
L 270.320202 313.529288 
L 271.372231 313.51163 
L 271.447376 313.283306 
L 271.567608 312.465553 
L 271.582637 312.46924 
L 272.063565 313.375488 
L 272.078594 313.349267 
L 272.123681 311.674839 
L 272.198826 276.032501 
L 272.273971 191.921876 
L 272.334087 224.164965 
L 272.544493 299.082008 
L 272.754898 309.000752 
L 272.950275 311.206966 
L 272.995362 311.483511 
L 273.010391 310.875112 
L 273.055478 297.443223 
L 273.145652 204.868275 
L 273.205768 252.188183 
L 273.341029 304.547355 
L 273.852015 296.15268 
L 273.897102 294.460635 
L 273.942189 295.808535 
L 274.302885 310.381428 
L 274.51329 311.224583 
L 281.712177 313.40007 
L 281.862467 312.558964 
L 281.892525 312.606488 
L 282.027786 312.951452 
L 282.042815 312.775283 
L 282.148018 298.393718 
L 282.208134 302.72011 
L 282.388482 311.328646 
L 282.613917 313.014546 
L 282.659004 313.146878 
L 282.734149 310.057768 
L 282.749178 310.762446 
L 282.854381 288.610173 
L 282.899468 293.862478 
L 283.109874 310.840288 
L 283.32028 312.897373 
L 283.650917 313.464679 
L 284.161903 313.598158 
L 284.176932 313.516219 
L 284.282135 277.589346 
L 284.35728 222.690058 
L 284.417396 251.778487 
L 284.567686 306.17139 
L 285.39428 313.429937 
L 285.529541 313.346809 
L 285.649773 313.391056 
L 285.99544 313.567554 
L 288.700659 313.619216 
L 288.820891 302.924958 
L 288.881007 307.804439 
L 289.046325 312.25292 
L 289.151528 312.804781 
L 289.196615 312.624515 
L 289.27176 311.624447 
L 289.346905 312.276683 
L 289.617427 313.378766 
L 289.857891 313.529288 
L 290.233616 313.603525 
L 291.300674 313.656458 
L 295.298386 313.658506 
L 296.230183 313.676942 
L 296.696082 313.675959 
L 297.642909 312.753979 
L 297.77817 313.663791 
L 297.883373 313.675959 
L 298.724996 313.669117 
L 298.785112 312.249233 
L 298.875286 307.779858 
L 298.920373 309.496485 
L 299.130779 312.4084 
L 299.281069 293.862478 
L 299.311127 297.832434 
L 299.491475 310.9591 
L 299.686852 312.956369 
L 299.912286 313.474389 
L 300.137721 313.541989 
L 300.783968 313.497332 
L 300.859113 308.042063 
L 300.949287 304.416252 
L 300.994374 304.998021 
L 301.099577 308.27559 
L 301.325012 312.391807 
L 301.565476 313.239879 
L 301.835997 313.498725 
L 302.39207 313.627205 
L 303.023288 313.640889 
L 303.188607 313.633924 
L 303.955085 313.647936 
L 304.511158 313.53023 
L 304.586303 313.133767 
L 304.676477 313.287403 
L 305.007115 313.58009 
L 305.713477 313.650886 
L 305.833709 313.623108 
L 305.863767 312.549541 
L 305.999028 301.679482 
L 306.044115 303.445272 
L 306.41984 312.515945 
L 306.510014 312.608127 
L 306.765507 312.926461 
L 306.780536 312.915809 
L 306.900768 313.088291 
L 307.005971 313.273064 
L 307.021 313.195631 
L 307.141232 308.570571 
L 307.231405 309.836532 
L 307.426782 312.268899 
L 307.531985 312.743737 
L 307.547014 312.6577 
L 307.577072 308.283784 
L 307.667246 309.6112 
L 307.682275 309.369479 
L 307.727362 309.857017 
L 307.937768 312.5774 
L 308.238348 313.3591 
L 308.568986 313.53445 
L 308.719276 313.560794 
L 308.734305 313.492374 
L 308.764363 312.697441 
L 308.839508 308.14039 
L 308.914653 309.221988 
L 309.140087 312.639674 
L 309.39558 313.273064 
L 309.711189 313.507574 
L 310.537784 313.625812 
L 317.105453 313.658711 
L 317.135511 312.034143 
L 317.255743 297.328508 
L 317.30083 301.70816 
L 317.466149 310.758349 
L 317.676555 312.896553 
L 317.826845 313.252169 
L 317.841874 313.131719 
L 317.962106 310.590373 
L 318.022222 310.787028 
L 318.292743 312.705635 
L 318.367888 312.933836 
L 318.382917 312.272586 
L 318.518178 280.621098 
L 318.533207 281.645338 
L 318.833787 310.836191 
L 319.044193 312.803552 
L 319.314715 313.3591 
L 319.645353 313.53191 
L 320.081193 313.595495 
L 321.043049 313.5991 
L 321.644209 313.637612 
L 322.155194 313.627205 
L 322.185252 313.549896 
L 322.230339 311.625266 
L 322.305484 305.985388 
L 322.3656 307.788052 
L 322.560977 312.400001 
L 322.786412 313.132128 
L 323.056934 313.46136 
L 323.582948 313.573945 
L 323.898557 313.475536 
L 323.943644 313.375488 
L 324.018789 313.408264 
L 324.349427 313.517284 
L 324.830355 313.612538 
L 327.400312 313.653631 
L 327.43037 311.683033 
L 327.520544 306.747423 
L 327.550602 307.767567 
L 327.776037 312.749063 
L 328.016501 313.440876 
L 328.287023 313.563129 
L 328.662748 313.612538 
L 328.78298 313.500118 
L 328.828067 313.058383 
L 329.083559 307.620076 
L 329.143675 308.759031 
L 329.384139 312.259476 
L 329.639632 313.169001 
L 329.895125 313.451282 
L 330.345995 313.489875 
L 330.556401 313.346809 
L 330.586459 313.110005 
L 330.631546 307.693821 
L 330.751778 294.702356 
L 330.781836 295.366063 
L 330.887038 303.494436 
L 331.082415 311.195085 
L 331.322879 312.874839 
L 331.638488 313.355003 
L 331.954097 313.498725 
L 332.254677 313.554034 
L 333.532141 313.558172 
L 333.577228 311.271288 
L 333.667402 304.154046 
L 333.727518 305.878867 
L 333.937924 311.860022 
L 334.178388 313.136635 
L 334.554112 313.474389 
L 334.869721 313.507164 
L 334.899779 313.432149 
L 334.974924 313.492825 
L 335.440823 313.600903 
L 336.462794 313.613317 
L 338.266273 313.630647 
L 338.822346 313.639906 
L 339.077839 313.549035 
L 339.258187 313.418096 
L 339.273216 313.43682 
L 339.393448 313.437434 
L 340.595767 313.608441 
L 341.843173 313.462426 
L 341.918318 312.823627 
L 342.03855 304.317925 
L 342.098666 306.255788 
L 342.354159 312.439742 
L 342.579594 313.252169 
L 342.880174 313.4943 
L 343.406189 313.587956 
L 343.616594 313.597298 
L 352.168091 313.497209 
L 352.213178 313.119018 
L 352.258265 308.058451 
L 352.348439 300.565108 
L 352.393526 302.90857 
L 352.618961 311.863709 
L 352.829366 313.000206 
L 353.054801 313.380404 
L 354.302208 313.604574 
L 356.917252 312.493822 
L 356.962339 303.072449 
L 357.067542 274.001578 
L 357.112629 286.672311 
L 357.277948 309.910278 
L 357.488354 312.471698 
L 357.638644 312.958417 
L 357.653673 312.95432 
L 357.69876 312.992012 
L 357.743847 312.94121 
L 357.788934 312.92728 
L 357.834021 312.965792 
L 358.420151 313.442678 
L 358.720731 313.503149 
L 358.88605 313.524044 
L 359.246746 313.546741 
L 359.291833 313.069035 
L 359.33692 310.553501 
L 359.457152 298.897644 
L 359.517268 301.556573 
L 359.892993 312.290613 
L 360.118427 313.195222 
L 360.358891 313.423832 
L 360.599355 313.52134 
L 361.140399 313.557475 
L 361.335776 313.411541 
L 361.561211 312.80601 
L 361.606298 312.848619 
L 362.477979 313.474389 
L 363.319603 313.584023 
L 363.499951 313.517038 
L 363.590124 312.884672 
L 363.695327 312.117311 
L 363.740414 312.256608 
L 364.176255 313.317311 
L 364.882618 313.549281 
L 365.348517 313.586973 
L 366.250256 313.593692 
L 366.671068 313.462999 
L 366.911532 313.389827 
L 367.136967 313.46136 
L 368.219054 313.584023 
L 368.715011 313.511343 
L 368.910388 310.590373 
L 369.015591 311.361012 
L 369.31617 313.168591 
L 369.556634 313.467915 
L 370.21791 313.566447 
L 372.847983 313.580582 
L 372.89307 312.007922 
L 373.013302 306.350018 
L 373.073418 306.93998 
L 373.148563 307.824924 
L 373.404056 312.456949 
L 373.629491 313.175966 
L 374.005216 313.468366 
L 374.801752 313.592791 
L 374.9821 313.602706 
L 378.724319 313.574027 
L 378.769406 311.861251 
L 378.844551 309.15234 
L 378.904667 310.098738 
L 379.085015 312.501196 
L 379.280392 313.229636 
L 379.505827 313.46136 
L 379.76132 313.536867 
L 379.776349 313.472381 
L 379.821436 308.537796 
L 379.896581 298.721475 
L 379.956696 301.679482 
L 380.167102 311.775215 
L 380.377508 312.985457 
L 380.542827 313.232504 
L 380.557856 313.203416 
L 380.602943 310.287198 
L 380.693117 305.493753 
L 380.738204 307.140732 
L 380.933581 311.413453 
L 381.174045 312.709322 
L 381.204103 311.25531 
L 381.294277 304.649779 
L 381.339364 306.493412 
L 381.534741 311.976376 
L 381.564799 312.184092 
L 381.594857 304.817754 
L 381.70006 253.089515 
L 381.745147 274.803412 
L 381.910465 308.300172 
L 382.090813 312.015297 
L 382.331277 312.909663 
L 382.631857 313.296007 
L 382.676944 313.303381 
L 382.691973 313.244795 
L 382.73706 309.996314 
L 382.812205 304.235986 
L 382.857292 306.153364 
L 383.03764 311.747765 
L 383.278104 312.910073 
L 383.413365 313.132948 
L 383.443423 306.665484 
L 383.533597 270.624511 
L 383.578683 288.679822 
L 383.744002 310.77064 
L 383.969437 312.763402 
L 384.239959 313.241108 
L 384.52551 313.371391 
L 385.201815 313.515932 
L 385.923206 313.443211 
L 386.028409 311.665416 
L 386.118583 312.066099 
L 386.328989 313.023969 
L 386.584482 313.336567 
L 386.839975 313.474389 
L 387.185642 313.437434 
L 387.456163 313.422193 
L 387.816859 313.492825 
L 388.222642 313.524044 
L 390.446933 313.607622 
L 390.972947 313.577018 
L 391.739426 313.621265 
L 393.963717 313.57374 
L 394.008804 313.361558 
L 394.144065 308.14039 
L 394.21921 305.104542 
L 394.264297 306.022261 
L 394.519789 312.316833 
L 394.65505 312.836328 
L 394.685108 312.823218 
L 394.760253 312.896963 
L 394.790311 312.946126 
L 394.820369 312.842473 
L 394.880485 311.528987 
L 394.940601 309.94715 
L 395.000717 310.897646 
L 395.241181 312.783067 
L 395.496674 313.336567 
L 395.797254 313.5002 
L 396.067776 313.51036 
L 396.233095 313.496942 
L 396.278182 309.443224 
L 396.353326 304.703039 
L 396.398413 306.923593 
L 396.578761 311.974737 
L 396.804196 313.164494 
L 397.074718 313.451282 
L 397.375298 313.546905 
L 398.352182 313.5619 
L 398.38224 312.906099 
L 398.427327 307.407034 
L 398.502472 309.660363 
L 398.848139 313.005942 
L 398.893226 313.118609 
L 398.908255 312.568796 
L 398.998429 313.304611 
L 399.238893 313.501674 
L 399.524444 313.567554 
L 400.997285 313.517653 
L 401.042372 312.529465 
L 401.267807 299.172141 
L 401.327923 302.175214 
L 401.5233 311.585935 
L 401.718677 312.724071 
L 402.139488 313.348858 
L 402.169546 306.497509 
L 402.319836 279.760736 
L 402.334865 279.883645 
L 402.379952 285.701331 
L 402.590358 312.610176 
L 402.755677 313.366065 
L 402.981112 313.469882 
L 403.582272 313.530599 
L 403.973025 313.573945 
L 404.64933 313.556287 
L 404.754533 312.936703 
L 404.889794 303.883647 
L 404.934881 306.923593 
L 405.115229 312.088632 
L 405.340664 313.193173 
L 405.626214 313.48078 
L 405.911765 313.524781 
L 406.001939 312.129602 
L 406.031997 307.935542 
L 406.182287 267.797608 
L 406.212345 272.017478 
L 406.43778 310.033187 
L 406.633157 312.527827 
L 406.663215 312.642542 
L 406.723331 309.959441 
L 406.813505 304.719427 
L 406.843563 306.509799 
L 407.023911 312.856813 
L 407.204259 313.402118 
L 407.519867 313.559769 
L 409.578839 313.664815 
L 409.7141 313.657687 
L 411.367289 313.681449 
L 423.014758 313.67006 
L 423.059845 313.463122 
L 423.13499 313.575297 
L 423.330367 313.664324 
L 424.187019 313.68358 
L 424.848295 313.593938 
L 424.908411 313.363197 
L 424.968527 313.546577 
L 425.133846 313.667478 
L 425.870266 313.68358 
L 429.507282 313.609384 
L 429.552369 312.781838 
L 429.582427 312.349199 
L 429.657572 312.539298 
L 429.883007 313.568824 
L 430.078384 313.594184 
L 430.709602 313.673009 
L 432.918863 313.598813 
L 432.994008 311.176239 
L 433.054124 311.993993 
L 433.279559 313.43006 
L 433.474936 313.596027 
L 433.880719 313.660964 
L 436.525821 313.680138 
L 440.56862 313.61516 
L 440.643765 313.353364 
L 440.703881 313.50319 
L 440.884229 313.648182 
L 441.515447 313.678172 
L 444.776738 313.677557 
L 444.821825 313.662562 
L 444.851883 312.982999 
L 444.942057 313.379585 
L 445.092347 313.56952 
L 446.610275 313.680876 
L 461.804586 313.578165 
L 461.849672 313.353774 
L 461.954875 312.067328 
L 462.045049 312.248004 
L 462.255455 313.123525 
L 462.285513 312.832231 
L 462.510948 303.146194 
L 462.556035 303.695187 
L 462.901702 312.821579 
L 463.112108 313.378766 
L 463.397659 313.57714 
L 463.713267 313.621879 
L 464.464717 313.654614 
L 465.336399 313.660473 
L 470.942212 313.578779 
L 470.987299 312.997338 
L 471.077473 312.18573 
L 471.107531 312.265621 
L 471.483256 313.33206 
L 471.934126 313.530558 
L 472.0243 313.304611 
L 472.069387 312.520452 
L 472.17459 311.225402 
L 472.204648 311.325368 
L 472.685576 313.324686 
L 472.986155 313.515932 
L 473.346851 313.589923 
L 474.579228 313.641053 
L 474.909866 313.537687 
L 474.985011 312.56347 
L 475.105243 311.247526 
L 475.165359 311.479824 
L 475.556113 313.206693 
L 475.871722 313.471193 
L 476.412765 313.58599 
L 484.84403 313.511556 
L 485.054436 312.815843 
L 485.14461 312.893276 
L 485.400103 313.295188 
L 485.415132 313.259954 
L 485.44519 311.875181 
L 485.565421 300.335678 
L 485.610508 302.146535 
L 485.850972 309.832435 
L 486.061378 312.28119 
L 486.271784 312.870742 
L 486.722654 313.319769 
L 486.978147 313.422193 
L 487.534219 313.503149 
L 487.624393 313.240288 
L 487.789712 311.436806 
L 487.909944 311.996451 
L 488.165437 312.901879 
L 488.481046 313.352955 
L 488.841742 313.485328 
L 489.487988 313.567554 
L 494.131947 313.566284 
L 494.162005 311.376171 
L 494.282237 300.286515 
L 494.312295 301.458246 
L 494.522701 311.482282 
L 494.733106 312.883033 
L 495.063744 313.334518 
L 495.499585 313.49725 
L 496.040629 313.447758 
L 496.070687 312.965792 
L 496.130803 306.464733 
L 496.251035 294.735131 
L 496.266064 295.493069 
L 496.551614 312.13288 
L 496.777049 313.060841 
L 497.167803 313.416458 
L 497.378209 313.420555 
L 497.648731 313.525601 
L 498.039485 313.580459 
L 504.06611 313.564071 
L 504.186342 312.33445 
L 504.231429 312.606079 
L 504.291545 312.98218 
L 504.351661 312.794129 
L 504.441835 312.580677 
L 504.501951 312.303313 
L 504.547038 312.464324 
L 504.787502 313.139503 
L 505.253401 313.376717 
L 505.373633 313.421374 
L 505.824502 313.564604 
L 507.132025 313.639209 
L 508.24417 313.657769 
L 509.701982 313.666618 
L 511.024533 313.635891 
L 511.054591 313.054696 
L 511.114707 303.138 
L 511.21991 293.329873 
L 511.264997 295.030113 
L 511.580606 312.023081 
L 511.595635 312.000138 
L 511.640722 308.685286 
L 511.730896 301.359919 
L 511.775983 303.219939 
L 512.001418 311.56586 
L 512.256911 312.808469 
L 512.512404 313.083784 
L 512.542462 313.104679 
L 512.557491 313.07559 
L 512.602578 311.436806 
L 512.797954 299.7662 
L 512.843041 301.327143 
L 513.083505 312.840835 
L 513.278882 313.29232 
L 513.534375 313.446611 
L 514.180622 313.55895 
L 521.0639 313.632286 
L 521.108987 308.390305 
L 521.139045 305.53882 
L 521.199161 308.476341 
L 521.36448 312.305362 
L 521.574886 313.231275 
L 521.845408 313.499462 
L 522.145987 313.59951 
L 523.799176 313.484467 
L 523.994553 313.484467 
L 524.550626 313.620159 
L 527.932149 313.654327 
L 528.533309 313.652975 
L 529.765686 313.663177 
L 529.946034 313.350497 
L 529.991121 311.172961 
L 530.051237 309.135952 
L 530.111353 309.598909 
L 530.411933 312.949404 
L 530.682455 313.438581 
L 530.937948 313.557885 
L 534.319471 313.668708 
L 534.499819 313.6515 
L 534.544906 309.000752 
L 534.574964 306.005873 
L 534.650108 307.636464 
L 534.860514 312.155413 
L 535.085949 313.200548 
L 535.416587 313.441859 
L 535.732196 313.290681 
L 535.837399 312.483989 
L 535.897515 312.533153 
L 536.378443 313.388598 
L 536.393472 313.363607 
L 536.55879 311.985799 
L 536.633935 312.333631 
L 536.844341 313.044454 
L 537.46053 313.556738 
L 538.046661 313.623354 
L 538.272095 313.568004 
L 538.392327 278.449708 
L 538.452443 291.588665 
L 538.632791 310.020896 
L 538.828168 312.537659 
L 539.083661 313.342712 
L 539.429328 313.526666 
L 539.895227 313.58009 
L 539.925285 313.550142 
L 539.955343 312.601572 
L 540.015459 309.914375 
L 540.090603 310.369137 
L 540.391183 312.824447 
L 540.706792 313.390237 
L 540.962285 313.53191 
L 541.743793 313.623723 
L 542.044372 313.639332 
L 543.832822 313.665143 
L 548.957709 313.658096 
L 548.987767 311.7957 
L 549.107999 290.216182 
L 549.138057 293.395425 
L 549.243259 308.800001 
L 549.288346 303.494436 
L 549.37852 298.868966 
L 549.423607 301.179652 
L 549.634013 311.32373 
L 549.859448 312.935065 
L 549.949622 313.061661 
L 549.97968 312.932606 
L 550.054825 312.7126 
L 550.084883 312.835508 
L 550.28026 313.203006 
L 550.565811 313.473037 
L 550.610898 313.465416 
L 550.655985 312.181633 
L 550.746159 304.563743 
L 550.806275 307.968318 
L 551.01668 312.163197 
L 551.31726 313.220213 
L 551.662927 313.515891 
L 553.015536 313.643716 
L 553.85716 313.665143 
L 556.186654 313.648919 
L 556.216712 312.949404 
L 556.321915 306.29266 
L 556.367002 308.632026 
L 556.547349 312.416389 
L 556.757755 313.216526 
L 556.772784 313.244795 
L 556.787813 313.201777 
L 556.862958 292.371184 
L 556.923074 301.269785 
L 557.103422 311.224173 
L 557.343886 312.989145 
L 557.689553 313.49135 
L 558.03522 313.589595 
L 570.569399 313.68358 
L 588.393783 313.58939 
L 588.544073 313.415229 
L 588.73945 313.582958 
L 589.009972 313.646174 
L 591.820393 313.642938 
L 592.000741 313.633924 
L 592.662017 313.656048 
L 593.428495 313.669117 
L 593.699017 313.557393 
L 593.924452 312.774054 
L 594.029655 312.191466 
L 594.074742 312.370503 
L 594.375322 313.427519 
L 594.736017 313.573289 
L 595.712902 313.616963 
L 611.493343 313.642487 
L 611.613575 313.633924 
L 628.746626 313.538998 
L 628.8368 313.39925 
L 629.212525 313.646215 
L 629.362814 313.655474 
L 634.142034 313.605819 
L 634.232208 311.60642 
L 634.337411 312.191466 
L 634.382498 312.403689 
L 634.607933 313.265689 
L 634.848396 313.483771 
L 635.209092 313.55432 
L 635.38944 313.598527 
L 636.351296 313.653631 
L 638.184833 313.654573 
L 640.469239 313.575584 
L 640.634558 312.365997 
L 640.694674 312.706044 
L 640.920109 313.248073 
L 641.235718 313.495529 
L 643.189487 313.658506 
L 645.81956 313.621511 
L 645.909734 310.340459 
L 645.96985 307.685628 
L 646.029966 308.349335 
L 646.27043 312.548721 
L 646.525923 313.166133 
L 646.841532 313.418096 
L 647.743271 313.601435 
L 647.90859 313.542972 
L 650.719012 313.471808 
L 650.794157 312.742098 
L 650.89936 312.872791 
L 651.350229 313.490777 
L 652.251969 313.645478 
L 653.198795 313.592668 
L 653.319027 312.461866 
L 653.394172 310.897646 
L 653.454288 311.47122 
L 653.709781 312.884672 
L 654.040419 313.373849 
L 654.310941 313.484385 
L 654.701695 313.532156 
L 655.708637 313.640561 
L 656.159507 313.662685 
L 661.63006 313.620077 
L 661.645089 313.527772 
L 661.810408 295.017822 
L 661.915611 261.488286 
L 661.960698 276.769954 
L 662.020813 296.236668 
L 666.54454 313.603033 
L 666.589627 313.50696 
L 666.619685 312.864597 
L 666.634714 312.008742 
L 666.724888 312.958417 
L 666.935294 313.483177 
L 667.205816 313.574682 
L 667.626627 313.624297 
L 667.656685 312.52291 
L 667.73183 306.304951 
L 667.776917 309.291637 
L 667.942236 312.638854 
L 668.152642 313.325915 
L 668.48328 313.569315 
L 668.663628 313.518677 
L 668.723744 313.404576 
L 668.828947 309.959441 
L 668.964208 301.622124 
L 669.009295 304.133562 
L 669.159585 310.885355 
L 669.189643 310.590373 
L 669.264788 308.959783 
L 669.324903 309.824242 
L 669.430106 311.244249 
L 669.475193 310.67641 
L 669.535309 309.357188 
L 669.610454 309.52926 
L 669.715657 309.869308 
L 669.986179 312.497919 
L 670.211614 312.897782 
L 670.662484 313.340664 
L 671.60931 313.612006 
L 671.684455 313.538711 
L 671.729542 311.51137 
L 671.819716 312.56347 
L 671.864803 312.791671 
L 671.864803 312.791671 
" clip-path="url(#pe53788b42c)" style="fill: none; stroke: #1f77b4; stroke-width: 1.5; stroke-linecap: square"/>
   </g>
   <g id="line2d_18">
    <path d="M 75.814991 313.679892 
L 76.972223 313.558948 
L 77.332919 313.308316 
L 77.603441 312.826807 
L 77.843905 311.90242 
L 78.084368 309.995233 
L 78.279745 306.527452 
L 78.445064 300.508397 
L 78.475122 300.574931 
L 78.50518 300.476457 
L 78.595354 298.444526 
L 78.80576 286.925476 
L 79.091311 257.843225 
L 79.497094 188.310245 
L 80.068195 98.262628 
L 80.413862 74.379072 
L 80.759529 65.182606 
L 81.075138 61.852895 
L 81.390747 60.559035 
L 81.721384 60.048989 
L 82.127167 59.841099 
L 82.878617 59.76498 
L 84.712154 59.661565 
L 84.787299 59.295033 
L 84.847415 59.395434 
L 85.102908 59.949018 
L 85.764183 59.746054 
L 85.839328 59.254953 
L 85.944531 59.517413 
L 86.124879 59.978721 
L 86.139908 59.970167 
L 86.500604 59.855507 
L 86.756097 59.74627 
L 86.891358 58.977119 
L 86.936445 59.176256 
L 87.161879 60.399055 
L 87.191937 60.381263 
L 87.943387 59.829282 
L 88.769982 59.762292 
L 92.452084 59.649521 
L 92.587345 59.207817 
L 92.617403 59.292565 
L 92.902954 60.036772 
L 92.933012 60.024521 
L 93.654404 59.789842 
L 95.157303 59.750384 
L 96.720318 59.756689 
L 97.576971 59.664782 
L 97.682174 59.479833 
L 97.727261 59.542715 
L 98.042869 59.820717 
L 99.53074 59.657338 
L 99.545769 59.576329 
L 99.635943 59.63382 
L 99.951551 59.776003 
L 105.63251 59.774991 
L 108.367787 59.566 
L 108.442932 58.536821 
L 108.503048 58.749418 
L 108.713454 60.882246 
L 108.788599 60.77715 
L 109.134265 59.884963 
L 109.20941 59.689823 
L 109.254497 59.746256 
L 109.434845 60.043302 
L 109.449874 59.967543 
L 109.555077 57.631513 
L 109.600164 56.964779 
L 109.645251 57.894764 
L 109.945831 67.46484 
L 109.96086 67.504439 
L 109.990918 67.40361 
L 110.141208 65.328705 
L 110.486875 61.762238 
L 110.802483 60.524529 
L 111.133121 60.025604 
L 111.463759 59.880486 
L 112.170122 59.771555 
L 114.965514 59.756515 
L 117.775936 59.732463 
L 117.821023 59.252684 
L 117.896167 59.363876 
L 118.121602 59.904076 
L 118.166689 59.882984 
L 118.271892 59.846883 
L 118.467269 59.888348 
L 118.873052 59.813304 
L 119.864965 59.759238 
L 120.69156 59.684699 
L 120.721618 59.549354 
L 120.736647 59.570103 
L 120.856879 55.332123 
L 120.901966 56.656722 
L 121.052256 70.357134 
L 121.14243 72.827492 
L 121.187517 72.336123 
L 121.893879 61.586748 
L 122.224517 60.431851 
L 122.555155 60.002652 
L 122.705445 59.905409 
L 122.720474 59.928184 
L 122.750532 59.423176 
L 122.840706 59.518963 
L 123.111228 59.883605 
L 123.862677 59.697327 
L 123.982909 59.711195 
L 124.328576 59.771435 
L 128.867331 59.75667 
L 129.994506 59.735029 
L 130.08468 58.801587 
L 130.159825 59.116292 
L 130.430347 60.996172 
L 130.490463 61.083023 
L 130.53555 61.028405 
L 131.166767 59.978002 
L 131.332086 59.735956 
L 131.467347 59.30687 
L 131.797985 60.18035 
L 131.903188 60.108543 
L 132.384116 59.842966 
L 133.120536 59.767418 
L 134.11245 59.66702 
L 134.292797 58.443226 
L 134.307826 58.458017 
L 134.382971 59.316768 
L 134.563319 61.282188 
L 134.578348 61.267476 
L 134.803783 60.679932 
L 135.119392 60.148353 
L 135.465059 59.899271 
L 136.63732 59.760805 
L 136.727494 59.652186 
L 136.847726 59.692531 
L 137.148306 59.771608 
L 138.42577 59.750927 
L 138.500915 58.401534 
L 138.591089 59.048258 
L 138.771437 60.900341 
L 138.801495 60.883484 
L 139.087046 60.30552 
L 139.492829 59.671037 
L 139.552945 59.749712 
L 139.748321 59.870346 
L 140.139075 59.812438 
L 140.169133 59.551688 
L 140.259307 59.619225 
L 140.304394 59.70442 
L 140.36451 58.017428 
L 140.454684 58.849548 
L 140.680119 61.480823 
L 140.710177 61.513367 
L 140.755264 61.448334 
L 141.401511 60.024793 
L 141.807293 59.823046 
L 141.822322 59.849083 
L 141.85238 59.424742 
L 141.942554 59.54251 
L 142.198047 59.850202 
L 143.806149 59.757547 
L 143.866265 59.776014 
L 143.926381 58.990319 
L 144.001526 59.228621 
L 144.226961 60.051762 
L 144.287077 59.987815 
L 144.317135 59.753809 
L 144.407309 59.781847 
L 144.662802 59.907346 
L 145.57957 59.766864 
L 148.57034 59.734459 
L 148.585369 59.823975 
L 148.660514 56.147907 
L 148.72063 57.194966 
L 148.810804 62.137014 
L 151.636254 62.733999 
L 151.651283 62.961502 
L 151.681341 61.805784 
L 151.711399 62.213369 
L 151.801573 63.416189 
L 151.891747 64.552117 
L 151.951863 64.303298 
L 152.507935 60.68666 
L 152.838573 60.095689 
L 153.003892 59.819353 
L 153.109095 59.541326 
L 153.139153 59.606585 
L 153.379617 59.958994 
L 153.800429 59.84391 
L 153.845516 58.985544 
L 153.93569 59.213123 
L 154.176154 60.111688 
L 155.483676 59.786347 
L 155.57385 58.847977 
L 155.633966 59.082682 
L 155.859401 60.232099 
L 155.904488 60.212933 
L 156.625879 59.814204 
L 157.347271 59.741882 
L 157.3623 59.830628 
L 157.407387 56.486104 
L 157.497561 57.730086 
L 157.692938 62.03264 
L 157.722996 61.977111 
L 158.429358 60.049696 
L 158.835141 59.841306 
L 159.526475 59.764885 
L 159.541504 59.779933 
L 159.556533 59.648374 
L 159.586591 59.359232 
L 159.676765 59.490399 
L 159.917228 59.85082 
L 160.999316 59.802119 
L 161.044403 58.830279 
L 161.119548 59.061873 
L 161.329954 60.15502 
L 161.39007 58.694177 
L 161.54036 59.006196 
L 161.780823 60.7623 
L 161.82591 60.732082 
L 162.562331 59.875331 
L 162.607418 59.797164 
L 162.622447 59.748459 
L 162.652505 58.710574 
L 162.742679 59.068959 
L 162.968114 60.257999 
L 162.983143 60.252401 
L 163.313781 59.97024 
L 165.598187 59.874973 
L 165.643274 58.746996 
L 165.733448 59.105121 
L 165.928825 60.569154 
L 165.958883 60.555038 
L 166.034028 60.478921 
L 166.124202 59.524221 
L 166.169289 59.623631 
L 166.45484 60.314758 
L 166.469869 60.310554 
L 166.740391 60.053488 
L 167.161202 59.839681 
L 167.732304 59.770992 
L 169.671044 59.705386 
L 169.701102 59.558877 
L 169.791276 59.606445 
L 170.076827 59.790426 
L 170.753131 59.733708 
L 170.798218 59.624132 
L 170.873363 59.659065 
L 171.113827 59.765888 
L 171.204001 59.51506 
L 171.249088 59.541589 
L 171.594755 59.907705 
L 171.294175 59.434802 
L 171.609784 59.885688 
L 171.6699 58.711313 
L 171.745045 59.044102 
L 171.82019 59.70986 
L 172.000538 60.89933 
L 172.030596 60.88376 
L 172.316147 60.33752 
L 172.42135 60.111282 
L 172.436379 60.142744 
L 172.511523 56.006671 
L 172.571639 57.245354 
L 172.751987 65.113245 
L 172.827132 64.6933 
L 173.338118 58.798841 
L 173.383205 59.897962 
L 173.563553 63.259898 
L 173.60864 63.109117 
L 174.179742 60.416172 
L 174.510379 59.996953 
L 174.630611 59.820022 
L 174.735814 58.810064 
L 174.810959 59.241641 
L 175.006336 60.626182 
L 175.036394 60.607094 
L 175.832931 59.843394 
L 176.569351 59.765622 
L 177.18554 59.729879 
L 177.245656 58.143754 
L 177.290743 54.582442 
L 177.365888 56.714216 
L 177.546236 67.857379 
L 177.606352 67.343851 
L 178.102308 61.595418 
L 178.162424 61.289594 
L 179.019077 61.168277 
L 179.169367 60.534565 
L 179.605208 59.765973 
L 179.695382 58.840012 
L 179.755498 59.237118 
L 179.875729 60.698926 
L 179.965903 60.583227 
L 180.16128 60.536851 
L 180.206367 59.401554 
L 180.326599 59.779334 
L 180.582092 60.657141 
L 180.657237 60.677576 
L 180.687295 60.644393 
L 181.348571 59.892666 
L 181.919672 59.780236 
L 183.813325 59.756553 
L 185.165935 59.698576 
L 185.271137 59.438268 
L 185.301195 59.473079 
L 185.37634 59.324316 
L 185.421427 59.474852 
L 185.661891 60.056208 
L 185.67692 60.051709 
L 186.668834 59.77355 
L 187.46537 59.759935 
L 189.734748 59.655824 
L 189.794864 59.564871 
L 189.85498 59.61232 
L 190.140531 59.79098 
L 190.501227 59.778635 
L 190.531285 59.207582 
L 190.621459 59.324908 
L 190.636488 59.423158 
L 190.651517 59.05362 
L 190.666546 58.704736 
L 190.756719 58.893181 
L 190.937067 60.559659 
L 191.012212 60.448043 
L 191.267705 60.363983 
L 191.64343 59.81387 
L 191.658459 59.855357 
L 191.688517 59.228838 
L 191.778691 59.426832 
L 192.019155 60.006872 
L 192.199503 59.944095 
L 195.596055 59.814798 
L 196.723229 59.758438 
L 197.474679 59.658607 
L 197.564853 59.545114 
L 197.594911 59.574 
L 197.880462 59.814935 
L 199.683941 59.667586 
L 199.924404 59.324622 
L 199.969491 59.431002 
L 200.315158 59.956582 
L 200.796086 59.829567 
L 200.88626 59.426013 
L 200.931347 59.474069 
L 201.292043 59.848064 
L 201.322101 59.807306 
L 201.33713 59.734168 
L 201.352159 59.777909 
L 210.57996 59.324849 
L 210.610018 58.675964 
L 210.685163 58.945956 
L 210.955684 60.410241 
L 211.075916 60.312208 
L 211.511757 59.913258 
L 212.037772 59.787892 
L 213.5557 59.756783 
L 215.088657 59.694217 
L 215.208889 58.557761 
L 215.238947 58.717755 
L 215.464382 61.077705 
L 215.569585 60.870451 
L 215.975368 60.106879 
L 216.351092 59.867848 
L 216.967281 59.773377 
L 219.6725 59.661644 
L 219.687529 59.599662 
L 219.777703 59.647597 
L 219.837818 59.707785 
L 219.867876 59.597489 
L 219.988108 58.620696 
L 220.063253 59.025288 
L 220.25863 61.258294 
L 220.303717 61.213249 
L 220.980022 59.967754 
L 221.415863 59.782729 
L 221.536095 58.123313 
L 221.581182 58.562461 
L 221.791587 61.766601 
L 221.866732 61.577045 
L 222.332631 60.235376 
L 222.678298 59.923132 
L 222.768472 59.774766 
L 222.873675 59.280556 
L 222.94882 58.498527 
L 222.993907 58.870091 
L 223.189284 61.399675 
L 223.264429 61.276793 
L 223.745356 60.140482 
L 224.151139 59.840786 
L 225.383516 59.698232 
L 225.654038 58.495531 
L 225.684096 58.776618 
L 226.014734 63.737872 
L 226.119937 63.290661 
L 226.555778 60.772364 
L 226.886416 60.127214 
L 227.26214 59.874079 
L 227.547691 59.706697 
L 227.637865 59.55657 
L 227.682952 59.60203 
L 227.953474 59.830402 
L 228.239025 59.796069 
L 228.269083 58.730258 
L 228.359257 58.968708 
L 228.599721 60.219773 
L 228.629779 60.206262 
L 229.411286 59.804238 
L 229.621692 59.688342 
L 229.696837 59.648043 
L 229.741924 59.678238 
L 230.027475 59.785386 
L 231.635577 59.637935 
L 231.74078 59.6626 
L 232.026331 59.774702 
L 234.686462 59.723316 
L 234.746578 59.475297 
L 234.806694 59.541012 
L 235.032129 59.808522 
L 235.047158 59.759875 
L 235.077216 59.63948 
L 235.16739 57.853065 
L 235.227506 58.273115 
L 235.437912 61.765895 
L 235.543115 61.485726 
L 235.948898 60.288453 
L 236.294564 59.941687 
L 236.65526 59.713212 
L 236.775492 59.268229 
L 236.790521 59.275536 
L 236.820579 59.346001 
L 237.121159 60.179519 
L 237.241391 60.200003 
L 237.25642 60.188521 
L 237.842551 59.836983 
L 238.113072 59.782181 
L 239.676088 59.745993 
L 239.781291 59.438863 
L 239.826377 59.50514 
L 240.096899 59.858181 
L 240.998639 59.746005 
L 241.043726 59.334737 
L 241.1339 59.486892 
L 241.374364 59.872149 
L 245.988264 59.629578 
L 246.033351 57.44459 
L 246.108496 57.979724 
L 246.318902 61.910038 
L 246.379018 61.753796 
L 246.859946 60.259699 
L 247.115438 59.678756 
L 247.190583 59.380029 
L 247.265728 59.444927 
L 247.506192 60.161728 
L 247.566308 60.001272 
L 247.701569 59.998058 
L 247.911975 59.954348 
L 248.513135 59.790155 
L 249.92586 59.755871 
L 249.985976 59.668418 
L 250.136266 59.720281 
L 250.481933 59.765312 
L 251.158237 59.659358 
L 251.338585 59.208282 
L 251.368643 59.158547 
L 251.398701 59.303602 
L 251.639165 60.192645 
L 251.684252 60.170746 
L 252.345528 59.830104 
L 253.307383 59.586603 
L 253.337441 59.400205 
L 253.412586 59.502314 
L 253.50276 59.695356 
L 253.532818 59.555022 
L 253.592934 59.016167 
L 253.683108 59.361053 
L 253.878485 60.35209 
L 253.908543 60.341295 
L 254.84034 59.79655 
L 255.306239 59.690953 
L 255.381384 59.089183 
L 255.456529 59.278833 
L 255.696993 60.088615 
L 255.727051 60.079161 
L 256.598732 59.782698 
L 258.342095 59.756608 
L 258.762907 59.73787 
L 258.958284 57.867386 
L 259.003371 58.566428 
L 259.198748 63.856176 
L 259.273893 63.510501 
L 259.724763 60.785465 
L 260.040371 60.149561 
L 260.431125 59.849861 
L 261.167546 59.769867 
L 262.460039 59.631664 
L 262.625358 58.942088 
L 262.715532 59.228695 
L 262.940967 60.233946 
L 262.955996 60.228294 
L 263.962938 59.780263 
L 264.413808 59.757638 
L 264.443866 59.648995 
L 264.53404 59.682174 
L 264.549069 59.69927 
L 264.564098 59.644603 
L 264.609185 59.544082 
L 264.68433 59.590033 
L 264.804562 59.780824 
L 264.819591 59.627026 
L 264.939823 57.802221 
L 264.999939 44.744887 
L 265.060055 48.159974 
L 265.195316 114.511514 
L 265.28549 127.414867 
L 265.330576 124.796291 
L 265.405721 116.497865 
L 266.878563 114.480735 
L 267.134055 90.131921 
L 267.539838 70.159135 
L 267.765273 63.892712 
L 267.825389 64.586478 
L 267.900534 65.101628 
L 267.945621 64.879413 
L 268.576839 60.618901 
L 268.697071 60.049691 
L 268.757187 59.222873 
L 268.817303 59.407989 
L 269.012679 60.687825 
L 269.072795 60.627821 
L 269.613839 59.942379 
L 270.094767 59.799221 
L 271.282057 59.757606 
L 271.357202 59.797452 
L 271.417318 58.297297 
L 271.492463 58.752719 
L 271.732927 60.675693 
L 271.823101 60.616495 
L 272.123681 59.94536 
L 272.13871 60.027715 
L 272.258942 39.926552 
L 272.334087 52.177778 
L 272.589579 136.777399 
L 272.604608 136.446743 
L 272.709811 126.024638 
L 273.160681 80.761002 
L 273.190739 80.903866 
L 273.235826 81.168176 
L 273.265884 80.848776 
L 273.341029 78.500083 
L 273.836986 77.889867 
L 274.257798 64.492808 
L 274.408087 64.181438 
L 274.51329 63.418903 
L 281.697148 62.906876 
L 281.802351 61.566539 
L 281.832409 61.614303 
L 281.922583 61.901547 
L 281.952641 61.730607 
L 282.11796 60.849225 
L 282.132989 60.882309 
L 282.26825 61.158904 
L 282.298308 61.137721 
L 282.493685 60.654239 
L 282.643975 60.317783 
L 282.659004 60.361857 
L 282.794265 56.743785 
L 282.824323 57.326213 
L 282.929526 62.903795 
L 283.034729 65.811478 
L 283.079816 65.607852 
L 283.696004 60.764062 
L 284.011613 60.141294 
L 284.176932 59.88557 
L 284.252077 58.452844 
L 284.312193 36.19267 
L 284.387338 46.785383 
L 284.567686 135.448056 
L 285.289078 135.461728 
L 285.379251 127.490861 
L 285.875208 79.482697 
L 286.205846 67.305803 
L 286.521455 62.685563 
L 286.837064 60.880044 
L 287.152672 60.185564 
L 287.513368 59.899007 
L 288.114528 59.759325 
L 288.550369 59.796056 
L 288.580427 59.10105 
L 288.670601 59.299883 
L 288.68563 59.36338 
L 288.700659 59.322174 
L 288.730717 57.696512 
L 288.820891 58.634573 
L 289.016267 61.321729 
L 289.046325 61.284364 
L 289.136499 60.894478 
L 289.301818 60.404742 
L 289.497195 60.327714 
L 290.008181 59.889144 
L 290.459051 59.661121 
L 290.504138 58.380928 
L 290.579283 58.762918 
L 290.789688 60.649175 
L 290.834775 60.614098 
L 291.481022 59.891853 
L 292.052124 59.780094 
L 293.990864 59.753449 
L 294.561965 59.772031 
L 294.607052 59.177143 
L 294.712255 57.796008 
L 294.727284 57.934233 
L 294.952719 62.381151 
L 295.042893 62.099875 
L 295.463705 60.45318 
L 295.794343 60.01053 
L 296.215155 59.826666 
L 296.696082 59.772605 
L 298.304184 59.722951 
L 298.394358 59.227481 
L 298.454474 59.353527 
L 298.724996 59.995143 
L 298.800141 59.672158 
L 298.905344 59.786995 
L 299.070663 59.890693 
L 299.085692 59.874798 
L 299.100721 59.932661 
L 299.145808 57.366429 
L 299.235982 58.079854 
L 299.431359 62.158597 
L 299.476446 62.074243 
L 300.092634 60.155174 
L 300.468359 59.868695 
L 300.588591 59.742054 
L 300.693794 58.969331 
L 300.723852 59.076605 
L 300.738881 59.198176 
L 300.75391 58.775316 
L 300.829055 58.77914 
L 300.874142 57.982741 
L 300.889171 58.137267 
L 300.919229 55.862272 
L 300.979345 57.686571 
L 301.174722 73.706203 
L 301.279925 71.606608 
L 301.670679 63.428095 
L 302.016345 61.129167 
L 302.346983 60.265495 
L 302.69265 59.933768 
L 303.188607 59.795396 
L 303.72965 59.756946 
L 303.789766 58.541427 
L 303.87994 58.907432 
L 304.135433 60.978212 
L 304.195549 60.867373 
L 304.405955 60.406099 
L 304.420984 60.414002 
L 304.466071 59.532731 
L 304.556245 59.666895 
L 304.751622 60.232327 
L 304.886883 60.21859 
L 305.442955 59.850382 
L 305.81868 59.80943 
L 305.938912 58.470043 
L 305.96897 58.588969 
L 306.164347 61.238007 
L 306.26955 60.974375 
L 306.374753 60.332563 
L 306.434869 59.946863 
L 306.494985 60.144133 
L 306.630246 60.924467 
L 306.645275 60.60431 
L 306.660304 60.291204 
L 306.750478 60.466731 
L 306.900768 60.911969 
L 306.945855 60.864145 
L 307.036029 60.64841 
L 307.126203 59.28041 
L 307.201347 59.679163 
L 307.366666 61.278286 
L 307.411753 61.232598 
L 307.531985 60.912046 
L 307.577072 58.443235 
L 307.60713 55.212858 
L 307.682275 56.71687 
L 307.862623 67.103443 
L 307.937768 66.49718 
L 308.388638 61.606139 
L 308.704247 60.466882 
L 308.749334 60.004067 
L 308.824479 59.38662 
L 308.869566 59.484904 
L 309.079971 60.4432 
L 309.125058 60.41001 
L 309.756276 59.864192 
L 310.402523 59.77141 
L 313.227973 59.756484 
L 313.678843 59.769453 
L 313.784046 59.356593 
L 313.829133 59.414821 
L 314.189829 59.943316 
L 314.700814 59.812888 
L 315.81296 59.758449 
L 316.444177 59.66919 
L 316.564409 59.447453 
L 316.624525 59.530153 
L 316.864989 59.847142 
L 317.105453 59.816717 
L 317.165569 56.896102 
L 317.240714 57.793006 
L 317.436091 62.970441 
L 317.496207 62.805296 
L 318.067308 60.297094 
L 318.367888 59.982263 
L 318.48812 59.793771 
L 318.608352 59.712644 
L 318.623381 59.733076 
L 319.014135 59.795285 
L 319.374831 59.721142 
L 319.615295 59.758073 
L 319.960961 59.742737 
L 320.667324 59.738943 
L 321.088136 59.756721 
L 321.223397 59.737707 
L 321.809527 59.760528 
L 321.884672 59.67392 
L 322.019933 59.489732 
L 322.049991 59.543021 
L 322.080049 59.382706 
L 322.200281 58.50368 
L 322.275426 58.797906 
L 322.455774 62.731074 
L 322.606064 63.927928 
L 322.621093 63.909054 
L 322.921673 62.17698 
L 323.26734 60.662571 
L 323.748267 59.615234 
L 323.763296 59.671475 
L 323.868499 59.85178 
L 323.898557 59.426613 
L 323.988731 59.666016 
L 324.199137 60.161354 
L 324.544804 59.932803 
L 324.75521 59.843551 
L 325.732094 59.754213 
L 326.197993 59.765207 
L 327.415341 59.783869 
L 327.460428 58.272852 
L 327.550602 58.778181 
L 327.761008 60.615518 
L 327.791066 60.597339 
L 328.677777 59.441405 
L 328.798009 59.167012 
L 328.828067 59.29024 
L 329.233849 60.592936 
L 329.324023 60.481477 
L 329.759864 59.963285 
L 330.27085 59.602649 
L 330.300908 59.343195 
L 330.376053 59.471501 
L 330.511314 59.848238 
L 330.556401 59.691651 
L 330.661604 58.343513 
L 330.736749 58.897774 
L 330.947154 62.753451 
L 331.022299 62.504627 
L 331.533285 60.387368 
L 331.893981 59.973457 
L 332.344851 59.816751 
L 333.456996 59.716323 
L 333.502083 59.712622 
L 333.532141 59.640586 
L 333.607286 59.136689 
L 333.667402 59.303952 
L 333.922895 60.068337 
L 335.48591 59.764073 
L 336.23736 59.759447 
L 338.596911 59.685103 
L 338.76223 59.262441 
L 338.777259 59.283039 
L 338.867433 59.616137 
L 338.91252 59.338753 
L 338.957607 58.804895 
L 339.017723 59.106999 
L 339.273216 60.993385 
L 339.288245 60.986477 
L 339.423506 60.730265 
L 339.81426 60.068421 
L 340.205013 59.851071 
L 340.941434 59.754665 
L 341.272072 59.774066 
L 341.332188 59.367048 
L 341.362246 59.119222 
L 341.437391 59.313869 
L 341.662826 60.050813 
L 341.843173 59.182844 
L 341.88826 59.260888 
L 341.933347 59.377237 
L 341.963405 58.031671 
L 342.03855 58.993014 
L 342.218898 61.867258 
L 342.279014 61.753701 
L 342.820058 60.181875 
L 343.180754 59.897824 
L 343.736826 59.782292 
L 345.510247 59.756595 
L 352.123004 59.678325 
L 352.198149 59.307219 
L 352.228207 59.339322 
L 352.273294 58.013315 
L 352.348439 58.628741 
L 352.543816 61.520643 
L 352.588903 61.452296 
L 353.205091 60.048822 
L 353.610874 59.841095 
L 354.287179 59.762135 
L 354.302208 59.784693 
L 356.917252 59.583322 
L 357.007426 57.217724 
L 357.067542 58.005883 
L 357.262919 63.357338 
L 357.323035 63.155686 
L 357.879108 60.455053 
L 358.209745 60.011095 
L 358.630557 59.826821 
L 359.231717 59.612161 
L 359.382007 58.69575 
L 359.442123 59.056659 
L 359.757732 61.239886 
L 359.78779 61.217854 
L 359.998195 60.652739 
L 360.343862 60.073591 
L 360.6745 59.871972 
L 361.080283 59.765865 
L 361.260631 59.610251 
L 361.636356 59.854999 
L 361.651385 59.746463 
L 361.666414 59.65696 
L 361.756587 59.690954 
L 362.057167 59.821877 
L 363.409777 59.610821 
L 363.530009 59.404284 
L 363.545038 59.424649 
L 363.980878 59.890607 
L 364.70227 59.772229 
L 367.362401 59.757864 
L 367.738126 59.716851 
L 367.783213 59.411458 
L 367.873387 59.5037 
L 368.113851 59.842649 
L 368.654895 59.736943 
L 368.715011 58.956578 
L 368.745069 58.661389 
L 368.820214 58.993617 
L 369.045648 60.793445 
L 369.075706 60.771496 
L 369.887272 59.856044 
L 370.563577 59.769067 
L 372.832954 59.578439 
L 372.923128 59.119724 
L 372.983244 59.271066 
L 373.238737 60.205712 
L 373.449143 60.051775 
L 373.900013 59.829732 
L 375.012158 59.759903 
L 375.417941 59.74494 
L 375.447999 58.19413 
L 375.538173 58.666911 
L 375.763608 60.43025 
L 375.793666 60.413396 
L 376.575173 59.826377 
L 377.416797 59.761809 
L 378.032986 59.654717 
L 378.108131 59.4284 
L 378.168246 59.478938 
L 378.513913 59.922509 
L 378.724319 59.878016 
L 378.769406 58.850228 
L 378.85958 59.149787 
L 379.069986 60.248187 
L 379.085015 60.246069 
L 379.340508 60.028357 
L 379.776349 59.785316 
L 379.836465 57.942449 
L 379.91161 58.183054 
L 380.122015 62.038883 
L 380.19716 61.852694 
L 380.542827 59.879186 
L 380.602943 58.318121 
L 380.663059 58.825927 
L 380.858436 62.532918 
L 380.918552 62.39659 
L 381.174045 61.166483 
L 381.219132 59.650794 
L 381.324335 59.927477 
L 381.489654 60.974997 
L 381.519712 60.947494 
L 381.564799 60.851251 
L 381.745147 58.440493 
L 381.775204 58.732047 
L 381.98561 62.650522 
L 382.105842 62.116926 
L 382.481567 60.541043 
L 382.691973 59.845581 
L 382.752089 59.272778 
L 382.827234 59.525757 
L 383.022611 60.416533 
L 383.052669 60.405072 
L 383.398336 60.036377 
L 383.443423 59.786261 
L 383.473481 59.355174 
L 383.563655 59.527192 
L 383.789089 60.064106 
L 384.660771 59.777363 
L 384.690829 59.356266 
L 384.781003 59.48611 
L 384.991409 59.704061 
L 385.27696 59.842921 
L 385.772916 59.706119 
L 385.938235 58.894028 
L 385.953264 58.952923 
L 386.208757 60.62713 
L 386.31396 60.485566 
L 386.734772 59.970472 
L 387.140555 59.677521 
L 387.170613 59.241154 
L 387.260786 59.373006 
L 387.576395 59.953319 
L 388.387961 59.775127 
L 390.206469 59.763597 
L 390.251556 59.066935 
L 390.34173 59.2861 
L 390.431904 59.654652 
L 390.446933 59.524714 
L 390.476991 59.062589 
L 390.552136 59.432179 
L 390.747513 60.581539 
L 390.7926 60.545496 
L 391.423817 59.88676 
L 391.994919 59.778303 
L 392.040006 59.679834 
L 392.070064 59.589192 
L 392.160238 59.648787 
L 392.43076 59.789956 
L 392.731339 59.780485 
L 392.821513 59.000695 
L 392.881629 59.160369 
L 393.137122 60.134439 
L 393.182209 60.113503 
L 393.858514 59.807594 
L 393.948688 59.748047 
L 394.129036 58.655392 
L 394.144065 58.796459 
L 394.294355 60.47357 
L 394.429616 61.252945 
L 394.459674 61.218322 
L 394.564876 60.953122 
L 394.715166 60.264225 
L 394.820369 60.140596 
L 394.940601 59.663305 
L 394.970659 59.733673 
L 395.181065 60.311501 
L 395.25621 60.237947 
L 395.947544 59.621199 
L 395.992631 59.689853 
L 396.203037 59.842964 
L 396.233095 59.859631 
L 396.278182 57.375916 
L 396.383384 58.58099 
L 396.563732 61.346235 
L 396.578761 61.33971 
L 396.698993 61.01855 
L 397.074718 60.174293 
L 397.435414 59.895371 
L 398.111719 59.73252 
L 398.262008 59.816446 
L 398.292066 58.853357 
L 398.38224 59.141346 
L 398.412298 59.274327 
L 398.427327 59.236217 
L 398.457385 58.814958 
L 398.53253 59.367405 
L 398.727907 60.551432 
L 398.757965 60.531517 
L 399.494386 59.665378 
L 399.629647 58.856893 
L 399.659705 59.009572 
L 399.900169 60.473732 
L 400.005371 60.373289 
L 400.456241 59.923297 
L 400.937169 59.601122 
L 401.132546 58.91602 
L 401.207691 59.023598 
L 401.252778 59.431331 
L 401.433126 61.118767 
L 401.478213 61.065494 
L 401.643532 60.55545 
L 401.989198 60.109674 
L 402.124459 59.984671 
L 402.139488 60.012351 
L 402.289778 57.855096 
L 402.319836 58.150118 
L 402.545271 63.157524 
L 402.635445 62.734484 
L 403.041228 60.655881 
L 403.386895 60.080083 
L 403.777648 59.854701 
L 404.453953 59.767894 
L 404.49904 59.719414 
L 404.574185 59.065097 
L 404.664359 59.41299 
L 404.724475 59.795388 
L 404.739504 59.763768 
L 404.79962 58.264441 
L 404.859736 58.756296 
L 405.055113 61.832696 
L 405.130258 61.639263 
L 405.581127 60.271219 
L 405.791533 59.78374 
L 405.806562 59.506717 
L 405.911765 59.597003 
L 405.956852 59.414216 
L 406.001939 59.683781 
L 406.062055 54.746453 
L 406.1372 56.304122 
L 406.332577 69.883609 
L 406.392693 69.378563 
L 406.753389 62.420863 
L 406.858592 63.112913 
L 406.873621 63.139353 
L 406.918708 63.033246 
L 407.655128 60.168563 
L 408.015824 59.893462 
L 408.571897 59.781495 
L 409.383462 59.767162 
L 409.443578 58.415739 
L 409.533752 58.92409 
L 409.729129 60.616634 
L 409.759187 60.604028 
L 410.675956 59.817139 
L 411.607753 59.75999 
L 414.944189 59.674111 
L 415.019334 59.589171 
L 415.064421 59.626159 
L 415.349972 59.78527 
L 417.739582 59.78145 
L 417.76964 59.209037 
L 417.859814 59.369531 
L 418.130336 59.866534 
L 418.80664 59.773132 
L 418.866756 56.841295 
L 418.95693 57.923227 
L 419.152307 62.436825 
L 419.182365 62.367158 
L 419.828612 60.274274 
L 420.249423 59.882418 
L 420.940757 59.787253 
L 421.136134 59.707127 
L 421.151163 59.634304 
L 421.241337 59.674722 
L 421.602033 59.772997 
L 422.052902 59.717529 
L 422.08296 58.151364 
L 422.097989 57.096625 
L 422.188163 57.829942 
L 422.38354 62.196821 
L 422.443656 62.06435 
L 423.029787 60.024606 
L 423.210135 60.015465 
L 424.637889 59.599202 
L 424.652918 59.431029 
L 424.743092 59.534513 
L 425.013614 59.800982 
L 427.793977 59.756494 
L 428.635601 59.781325 
L 428.680688 56.987 
L 428.785891 58.194236 
L 428.966239 62.37409 
L 428.996297 62.348202 
L 429.53734 59.587713 
L 429.612485 59.822112 
L 429.807862 61.019729 
L 429.852949 60.725757 
L 429.943123 60.553257 
L 430.048326 59.993828 
L 430.078384 60.02731 
L 430.303819 60.487593 
L 430.333877 60.465399 
L 430.709602 60.017544 
L 431.1755 59.887943 
L 431.746602 59.779416 
L 432.302675 59.759452 
L 432.332733 59.44362 
L 432.422907 59.530882 
L 432.498052 59.709818 
L 432.52811 58.599712 
L 432.618284 58.840361 
L 432.828689 60.481075 
L 432.858747 60.14021 
L 432.888805 59.203136 
L 432.918863 57.619957 
L 432.994008 58.398808 
L 433.174356 63.17448 
L 433.234472 62.993368 
L 433.775516 60.414516 
L 434.181299 59.880537 
L 434.526966 59.843383 
L 435.113096 59.771403 
L 439.726997 59.676809 
L 439.817171 59.573459 
L 439.847229 59.601822 
L 440.162837 59.785174 
L 440.463417 59.810735 
L 440.493475 58.820002 
L 440.583649 59.097554 
L 440.839142 59.999526 
L 441.154751 59.872693 
L 441.16978 59.77896 
L 441.199838 57.480887 
L 441.290012 58.244348 
L 441.47036 60.894775 
L 441.515447 60.638187 
L 441.560534 60.587688 
L 441.575563 60.526953 
L 441.650708 60.609193 
L 441.755911 60.645209 
L 441.785969 60.611693 
L 442.417186 59.903124 
L 442.567476 59.830614 
L 442.582505 59.904924 
L 442.612563 58.040728 
L 442.702737 58.580616 
L 442.928172 60.3592 
L 442.95823 60.347765 
L 443.84494 59.802659 
L 444.686564 59.633321 
L 444.791767 59.247791 
L 444.821825 59.28379 
L 445.122405 59.990875 
L 445.137434 59.986049 
L 446.009115 59.775514 
L 448.293522 59.756499 
L 449.105087 59.746462 
L 449.180232 59.013394 
L 449.240348 59.186768 
L 449.480812 60.12879 
L 449.495841 60.124299 
L 450.5629 59.773295 
L 451.103943 59.674561 
L 451.134001 59.632342 
L 451.209146 59.667514 
L 451.539784 59.773356 
L 458.648497 59.572512 
L 458.678555 59.455614 
L 458.7537 59.528845 
L 459.009193 59.820987 
L 459.414976 59.794365 
L 460.752556 59.761189 
L 461.368745 59.707214 
L 461.504006 58.207456 
L 461.549093 58.768143 
L 461.759499 61.799168 
L 461.789557 61.726567 
L 461.849672 61.08579 
L 461.894759 57.271295 
L 461.924817 55.098588 
L 461.984933 56.815175 
L 462.150252 73.596083 
L 462.255455 71.132966 
L 462.390716 68.24702 
L 462.465861 68.804506 
L 462.571064 69.310375 
L 462.616151 69.463384 
L 462.661238 69.254285 
L 462.841586 66.159267 
L 463.172224 62.160409 
L 463.472804 60.813513 
L 463.788412 60.160102 
L 464.149108 59.89054 
L 464.675123 59.783318 
L 466.80924 59.767325 
L 466.884385 58.668175 
L 466.974559 59.126255 
L 467.169936 60.431337 
L 467.184965 60.427879 
L 467.380341 60.195756 
L 467.771095 59.892612 
L 468.176878 59.724799 
L 468.236994 58.943447 
L 468.29711 59.114462 
L 468.372255 59.767398 
L 468.387284 59.227827 
L 468.402313 58.541404 
L 468.492487 59.124106 
L 468.687864 61.172794 
L 468.732951 61.115063 
L 469.349139 59.990452 
L 469.78498 59.818222 
L 470.821981 59.525853 
L 470.927183 58.838096 
L 470.97227 57.554125 
L 471.047415 58.191928 
L 471.242792 63.19827 
L 471.317937 62.902297 
L 471.768807 60.617684 
L 472.0243 59.877056 
L 472.039329 59.921342 
L 472.069387 58.961117 
L 472.159561 59.325033 
L 472.369967 60.451296 
L 472.415054 60.428836 
L 473.166503 59.835249 
L 473.948011 59.763283 
L 474.774605 59.738625 
L 474.909866 58.904249 
L 474.969982 59.122859 
L 475.240504 60.579572 
L 475.315649 60.51527 
L 475.841664 59.925777 
L 476.35265 59.791987 
L 477.720288 59.757022 
L 478.035897 59.656525 
L 478.156129 59.676338 
L 478.441679 59.776533 
L 484.438247 59.632593 
L 484.468305 59.594047 
L 484.54345 59.641125 
L 484.69374 59.76477 
L 484.708769 59.741264 
L 484.84403 59.086199 
L 484.874088 59.185854 
L 485.129581 60.358614 
L 485.14461 60.354124 
L 485.355016 60.127473 
L 485.415132 59.634455 
L 485.490276 58.026868 
L 485.550392 58.640773 
L 485.745769 62.370477 
L 485.805885 62.224032 
L 486.346929 60.282081 
L 486.692596 59.939375 
L 487.173524 59.798514 
L 487.338842 59.67398 
L 487.489132 59.093736 
L 487.51919 59.198045 
L 487.849828 60.370518 
L 488.015147 60.210032 
L 488.42093 59.893387 
L 488.977003 59.781499 
L 490.780482 59.757584 
L 494.056802 59.723298 
L 494.071831 59.636702 
L 494.177034 55.067186 
L 494.207092 55.950912 
L 494.417498 68.098166 
L 494.53773 66.632639 
L 494.913454 62.043511 
L 495.183976 60.766664 
L 495.514614 60.12724 
L 495.890339 59.874119 
L 496.0256 59.7448 
L 496.145832 58.927796 
L 496.205948 59.212958 
L 496.416353 60.42402 
L 496.46144 60.398576 
L 497.152774 59.845469 
L 497.874166 59.766281 
L 501.992109 59.756481 
L 510.423374 59.673334 
L 510.438403 59.643051 
L 510.498519 58.138315 
L 510.573664 58.536034 
L 510.769041 61.217844 
L 510.844186 61.058699 
L 510.964417 60.62227 
L 510.979446 60.683775 
L 511.129736 53.51398 
L 511.144765 54.446097 
L 511.385229 79.582576 
L 511.490432 76.781446 
L 511.851128 66.471786 
L 512.497375 60.844665 
L 512.57252 60.489662 
L 512.617607 58.73152 
L 512.72281 59.273192 
L 512.948244 62.088691 
L 513.023389 62.377146 
L 513.068476 62.290784 
L 513.774839 60.095813 
L 514.150564 59.864116 
L 514.631491 59.60337 
L 514.676578 59.127211 
L 514.751723 59.312726 
L 514.992187 60.019546 
L 515.367912 59.832375 
L 515.503173 59.493223 
L 515.608376 59.401067 
L 515.623405 59.434771 
L 515.878898 60.094919 
L 517.306652 59.761764 
L 520.207247 59.795783 
L 520.237305 58.806354 
L 520.327479 59.104323 
L 520.582972 59.980496 
L 521.0639 59.846393 
L 521.108987 57.215868 
L 521.21419 58.456285 
L 521.394538 61.738493 
L 521.424596 61.701539 
L 522.206103 59.963045 
L 522.55177 59.70527 
L 522.626915 59.216741 
L 522.672002 59.320501 
L 522.927495 60.041738 
L 522.942524 60.037335 
L 523.333278 59.775508 
L 523.543684 59.420525 
L 523.6038 59.530297 
L 523.904379 60.028784 
L 524.054669 60.042343 
L 524.550626 59.830191 
L 525.813061 59.720496 
L 525.918264 59.697964 
L 525.933293 59.704947 
L 526.098612 59.76348 
L 526.113641 59.705622 
L 526.248902 59.409181 
L 526.27896 59.440472 
L 526.339076 59.52355 
L 526.564511 59.926787 
L 527.015381 59.813791 
L 527.661627 59.731694 
L 527.826946 57.407326 
L 527.841975 57.750329 
L 528.082439 64.063408 
L 528.187642 63.57167 
L 528.623483 60.851577 
L 528.939092 60.174957 
L 529.284758 59.898952 
L 529.299787 59.906622 
L 529.314816 59.791815 
L 529.329845 59.670087 
L 529.435048 59.71188 
L 529.70557 59.822261 
L 529.765686 59.819367 
L 529.885918 57.447769 
L 529.931005 58.462479 
L 530.186498 63.749637 
L 530.261643 63.408825 
L 530.727542 60.716793 
L 531.073208 60.061852 
L 531.298643 59.918672 
L 531.674368 59.804381 
L 531.734484 58.673814 
L 531.7946 58.918108 
L 532.020035 60.358915 
L 532.065122 60.331376 
L 532.09518 60.25373 
L 532.230441 60.064055 
L 532.500963 59.870464 
L 532.54605 59.553546 
L 532.621195 59.622013 
L 532.876687 59.912296 
L 533.88363 59.60684 
L 533.928717 59.540569 
L 533.988833 59.590607 
L 534.274384 59.80094 
L 534.439703 59.692173 
L 534.469761 59.668762 
L 534.48479 59.693337 
L 534.574964 58.226457 
L 534.635079 58.638787 
L 534.845485 61.050404 
L 534.92063 60.934614 
L 535.491732 59.814136 
L 536.363414 59.779102 
L 536.453587 59.034681 
L 536.543761 59.458136 
L 536.70908 60.223019 
L 536.739138 60.203517 
L 537.445501 59.991455 
L 537.625849 59.78768 
L 537.9114 59.837501 
L 538.272095 59.690161 
L 538.287124 59.621173 
L 538.302153 59.678341 
L 538.362269 54.054565 
L 538.437414 55.648363 
L 538.632791 67.602577 
L 538.707936 66.85103 
L 539.143777 61.781975 
L 539.459386 60.532043 
L 539.85014 59.463261 
L 539.925285 56.800602 
L 540.00043 57.816477 
L 540.195806 66.071525 
L 540.255922 65.608927 
L 540.721821 61.298276 
L 541.03743 60.346119 
L 541.383097 59.961633 
L 541.848996 59.80585 
L 542.931083 59.75829 
L 543.787735 59.830127 
L 543.817793 57.238861 
L 543.907967 58.020545 
L 544.133402 60.673783 
L 544.16346 60.65192 
L 544.91491 59.860559 
L 545.576185 59.770905 
L 547.184288 59.699772 
L 547.274462 59.360273 
L 547.319549 59.447162 
L 547.605099 59.884302 
L 548.94268 59.748833 
L 549.047883 55.544265 
L 549.077941 56.455679 
L 549.258288 65.916991 
L 549.288346 61.337978 
L 549.333433 58.002152 
L 549.393549 59.970882 
L 549.588926 81.726819 
L 549.664071 78.043044 
L 550.024767 68.244437 
L 550.43055 62.632594 
L 550.565811 60.781462 
L 550.655985 58.010481 
L 550.701072 58.617589 
L 550.88142 62.898518 
L 550.896449 61.312353 
L 550.911478 59.586465 
L 551.001651 60.976932 
L 551.16697 66.663962 
L 551.212057 66.392077 
L 551.813217 60.951687 
L 552.128826 60.21306 
L 552.489522 59.908151 
L 553.015536 59.786845 
L 554.232885 59.780417 
L 554.353117 59.242374 
L 554.368146 59.293988 
L 554.548494 59.825839 
L 554.578552 58.688763 
L 554.668725 59.119051 
L 554.879131 60.352249 
L 554.89416 60.347938 
L 555.164682 60.076049 
L 555.570465 59.850386 
L 556.111509 59.677737 
L 556.216712 58.061508 
L 556.24677 57.569209 
L 556.306886 58.239908 
L 556.502262 63.052359 
L 556.577407 62.74589 
L 556.938103 60.440736 
L 557.028277 60.537132 
L 557.13348 60.485982 
L 557.689553 59.906662 
L 558.230597 59.785208 
L 559.853728 59.756681 
L 568.209847 59.719382 
L 568.284992 58.55909 
L 568.375166 59.026222 
L 568.585572 60.292203 
L 568.91621 59.838845 
L 568.991355 59.920086 
L 569.156674 59.950371 
L 569.246847 58.364385 
L 569.321992 59.160405 
L 569.50234 61.114746 
L 569.517369 61.102508 
L 569.697717 60.655171 
L 570.043384 60.07584 
L 570.434138 59.853275 
L 571.125471 59.768166 
L 574.537053 59.755823 
L 574.882719 59.779782 
L 577.167126 59.756504 
L 578.15904 59.647156 
L 578.189098 58.911754 
L 578.234185 57.531899 
L 578.309329 58.286067 
L 578.504706 61.945727 
L 578.549793 61.857291 
L 579.150953 60.132959 
L 579.526678 59.875922 
L 580.127837 59.775482 
L 580.248069 59.779349 
L 580.353272 55.646123 
L 580.38333 56.426125 
L 580.593736 65.425055 
L 580.68391 64.787562 
L 581.089693 61.31629 
L 581.405302 60.353168 
L 581.750969 59.964091 
L 582.201838 59.808791 
L 583.238839 59.758674 
L 583.749824 59.782994 
L 583.764853 59.543875 
L 583.779882 59.548885 
L 583.824969 52.106772 
L 583.900114 54.097594 
L 584.095491 69.456374 
L 584.170636 68.518528 
L 584.516303 62.178802 
L 584.576419 62.575783 
L 584.666593 62.981768 
L 584.71168 62.864936 
L 585.387985 60.20955 
L 585.74868 59.906998 
L 586.289724 59.785261 
L 587.492043 59.766232 
L 587.522101 55.663133 
L 587.612275 56.80614 
L 587.822681 62.637934 
L 587.897826 62.412027 
L 588.363725 59.726598 
L 588.423841 58.893651 
L 588.483957 59.23191 
L 588.709392 60.768239 
L 588.784537 60.7955 
L 588.814595 60.727687 
L 589.009972 60.266054 
L 589.100146 59.958604 
L 589.130204 59.979412 
L 589.340609 60.101134 
L 590.016914 59.806081 
L 591.083972 59.758378 
L 591.805364 59.709812 
L 591.970683 57.023751 
L 592.000741 51.354243 
L 592.075886 54.359717 
L 592.256234 73.355762 
L 592.331379 72.247234 
L 592.782249 63.241588 
L 593.097857 61.101271 
L 593.413466 60.270162 
L 593.443524 60.148385 
L 593.608843 57.82876 
L 593.668959 58.671031 
L 593.759133 61.310858 
L 594.029655 65.905762 
L 594.059713 65.960959 
L 594.1048 65.867742 
L 594.285148 63.992184 
L 594.630815 61.287424 
L 594.946423 60.342217 
L 595.412322 59.74242 
L 595.757989 59.809026 
L 595.983424 59.782559 
L 596.689786 59.763422 
L 598.628526 59.771979 
L 598.673613 58.857289 
L 598.778816 59.231921 
L 598.989222 60.167371 
L 599.094425 60.060495 
L 599.139512 59.691824 
L 599.259744 59.806831 
L 599.455121 59.971356 
L 600.567266 59.765014 
L 603.723355 59.650315 
L 603.753413 58.802784 
L 603.843586 59.093801 
L 604.069021 60.146459 
L 604.08405 60.144083 
L 605.511805 59.762503 
L 607.675979 59.672251 
L 607.691008 59.580777 
L 607.781182 59.637979 
L 608.096791 59.775463 
L 611.267908 59.773732 
L 611.312995 58.498877 
L 611.328024 57.683258 
L 611.418198 58.340553 
L 611.613575 61.488847 
L 611.658662 61.424771 
L 611.83901 60.772358 
L 611.944213 59.885409 
L 611.9893 59.99065 
L 612.199706 60.515736 
L 612.244793 60.478062 
L 612.87601 59.876441 
L 613.47717 59.775568 
L 615.731519 59.753304 
L 615.776606 59.141893 
L 615.851751 59.295542 
L 616.122273 59.944505 
L 616.16736 59.866296 
L 616.212447 59.600212 
L 616.287592 59.659761 
L 616.543084 59.896433 
L 617.129215 59.67523 
L 617.189331 59.336602 
L 617.249447 59.071979 
L 617.294534 59.244806 
L 617.519969 60.211321 
L 617.550027 60.199752 
L 618.39165 59.796033 
L 619.654086 59.757313 
L 622.163927 59.656299 
L 622.314217 59.633108 
L 622.539652 59.776419 
L 622.975493 59.772476 
L 625.725798 59.756485 
L 628.506162 59.66443 
L 628.626394 58.552484 
L 628.68651 58.674287 
L 628.776684 59.87444 
L 628.8368 60.895954 
L 629.062235 61.20516 
L 629.13738 61.467672 
L 629.182467 61.400508 
L 629.362814 60.819466 
L 633.255323 60.689155 
L 633.585961 60.100273 
L 633.961686 59.865572 
L 634.05186 59.856111 
L 634.172092 58.864554 
L 634.217179 59.090817 
L 634.442614 60.470997 
L 634.50273 60.432206 
L 635.103889 59.877696 
L 635.705049 59.775768 
L 635.855339 59.710319 
L 635.915455 59.410003 
L 635.9906 59.515959 
L 636.231064 59.858327 
L 636.366325 59.824863 
L 636.44147 59.570569 
L 636.486557 59.607243 
L 636.681933 59.831592 
L 636.696962 59.748904 
L 636.711991 59.669858 
L 636.802165 59.71282 
L 637.087716 59.817141 
L 638.755934 59.756908 
L 640.123573 59.669193 
L 640.138602 59.577543 
L 640.228775 59.634529 
L 640.409123 59.74556 
L 640.484268 59.232125 
L 640.559413 59.390747 
L 640.799877 59.983445 
L 642.573298 59.772079 
L 645.789502 59.645463 
L 645.894705 58.054729 
L 645.909734 57.692606 
L 645.96985 58.441105 
L 646.165227 62.750586 
L 646.240372 62.503235 
L 646.706271 60.515551 
L 647.051938 60.027114 
L 647.45772 59.834856 
L 648.239228 59.763662 
L 648.855417 59.749211 
L 648.930562 58.713846 
L 649.005707 58.943758 
L 649.020736 58.918911 
L 649.035765 59.099875 
L 649.276228 60.843025 
L 649.366402 60.702496 
L 649.606866 60.243723 
L 650.087794 59.783083 
L 650.373345 59.825052 
L 650.658896 59.681466 
L 650.734041 58.980131 
L 650.824215 59.27606 
L 651.064679 60.098452 
L 651.229997 60.062385 
L 651.78607 59.82063 
L 652.68781 59.760551 
L 653.138679 59.836959 
L 653.228853 51.078267 
L 653.27394 52.994272 
L 653.484346 78.098854 
L 653.57452 75.940624 
L 653.995332 64.423885 
L 654.220767 62.267609 
L 654.581463 60.633689 
L 654.927129 60.031087 
L 655.302854 59.846193 
L 655.317883 59.873893 
L 655.347941 59.315284 
L 655.438115 59.43044 
L 655.708637 59.910575 
L 656.204594 59.80323 
L 657.211536 59.775591 
L 657.872812 59.711637 
L 658.023102 58.897408 
L 658.05316 58.97446 
L 658.068189 58.935426 
L 658.098247 59.09553 
L 658.368768 61.263067 
L 658.443913 61.143103 
L 658.93987 60.092534 
L 659.300566 59.88464 
L 659.435827 59.856662 
L 659.480914 58.986008 
L 659.586117 59.350036 
L 659.796523 60.091841 
L 659.9919 60.001789 
L 660.006929 59.940933 
L 660.021958 60.072826 
L 660.052016 53.294788 
L 660.14219 55.246516 
L 660.337566 64.062067 
L 660.397682 63.82062 
L 660.938726 59.129846 
L 661.058958 59.455459 
L 661.269364 62.333673 
L 661.284393 62.325412 
L 661.389596 61.898101 
L 661.615031 60.223155 
L 661.765321 57.446222 
L 661.870524 55.314286 
L 662.020813 72.16863 
L 666.54454 72.847991 
L 666.724888 78.988633 
L 666.785004 77.926819 
L 667.205816 65.616692 
L 667.551482 65.472721 
L 667.656685 63.386157 
L 667.761888 61.947757 
L 667.791946 62.155768 
L 667.897149 63.024313 
L 667.957265 62.870217 
L 668.543396 60.341978 
L 668.738773 59.821563 
L 668.813918 59.481663 
L 668.859005 59.619663 
L 668.919121 59.670594 
L 669.08444 60.219316 
L 669.099469 60.196037 
L 669.204672 59.19068 
L 669.294845 59.668047 
L 669.400048 60.650703 
L 669.445135 60.357625 
L 669.505251 60.11094 
L 669.565367 60.26392 
L 669.580396 60.298388 
L 669.640512 59.532772 
L 669.700628 59.932216 
L 669.865947 61.516531 
L 669.926063 61.423331 
L 670.482136 60.097538 
L 670.857861 59.864688 
L 671.489078 59.773698 
L 671.579252 59.78153 
L 671.624339 58.96708 
L 671.654397 57.563434 
L 671.729542 58.134547 
L 671.864803 61.660516 
L 671.864803 61.660516 
" clip-path="url(#pe53788b42c)" style="fill: none; stroke: #ff7f0e; stroke-width: 1.5; stroke-linecap: square"/>
   </g>
   <g id="patch_3">
    <path d="M 46.0125 327.558125 
L 46.0125 22.318125 
" style="fill: none; stroke: #000000; stroke-width: 0.8; stroke-linejoin: miter; stroke-linecap: square"/>
   </g>
   <g id="patch_4">
    <path d="M 701.667294 327.558125 
L 701.667294 22.318125 
" style="fill: none; stroke: #000000; stroke-width: 0.8; stroke-linejoin: miter; stroke-linecap: square"/>
   </g>
   <g id="patch_5">
    <path d="M 46.0125 327.558125 
L 701.667294 327.558125 
" style="fill: none; stroke: #000000; stroke-width: 0.8; stroke-linejoin: miter; stroke-linecap: square"/>
   </g>
   <g id="patch_6">
    <path d="M 46.0125 22.318125 
L 701.667294 22.318125 
" style="fill: none; stroke: #000000; stroke-width: 0.8; stroke-linejoin: miter; stroke-linecap: square"/>
   </g>
   <g id="text_17">
    <!-- training -->
    <g transform="translate(350.596459 16.318125) scale(0.12 -0.12)">
     <defs>
      <path id="DejaVuSans-74" d="M 1172 4494 
L 1172 3500 
L 2356 3500 
L 2356 3053 
L 1172 3053 
L 1172 1153 
Q 1172 725 1289 603 
Q 1406 481 1766 481 
L 2356 481 
L 2356 0 
L 1766 0 
Q 1100 0 847 248 
Q 594 497 594 1153 
L 594 3053 
L 172 3053 
L 172 3500 
L 594 3500 
L 594 4494 
L 1172 4494 
z
" transform="scale(0.015625)"/>
      <path id="DejaVuSans-72" d="M 2631 2963 
Q 2534 3019 2420 3045 
Q 2306 3072 2169 3072 
Q 1681 3072 1420 2755 
Q 1159 2438 1159 1844 
L 1159 0 
L 581 0 
L 581 3500 
L 1159 3500 
L 1159 2956 
Q 1341 3275 1631 3429 
Q 1922 3584 2338 3584 
Q 2397 3584 2469 3576 
Q 2541 3569 2628 3553 
L 2631 2963 
z
" transform="scale(0.015625)"/>
      <path id="DejaVuSans-61" d="M 2194 1759 
Q 1497 1759 1228 1600 
Q 959 1441 959 1056 
Q 959 750 1161 570 
Q 1363 391 1709 391 
Q 2188 391 2477 730 
Q 2766 1069 2766 1631 
L 2766 1759 
L 2194 1759 
z
M 3341 1997 
L 3341 0 
L 2766 0 
L 2766 531 
Q 2569 213 2275 61 
Q 1981 -91 1556 -91 
Q 1019 -91 701 211 
Q 384 513 384 1019 
Q 384 1609 779 1909 
Q 1175 2209 1959 2209 
L 2766 2209 
L 2766 2266 
Q 2766 2663 2505 2880 
Q 2244 3097 1772 3097 
Q 1472 3097 1187 3025 
Q 903 2953 641 2809 
L 641 3341 
Q 956 3463 1253 3523 
Q 1550 3584 1831 3584 
Q 2591 3584 2966 3190 
Q 3341 2797 3341 1997 
z
" transform="scale(0.015625)"/>
      <path id="DejaVuSans-69" d="M 603 3500 
L 1178 3500 
L 1178 0 
L 603 0 
L 603 3500 
z
M 603 4863 
L 1178 4863 
L 1178 4134 
L 603 4134 
L 603 4863 
z
" transform="scale(0.015625)"/>
      <path id="DejaVuSans-6e" d="M 3513 2113 
L 3513 0 
L 2938 0 
L 2938 2094 
Q 2938 2591 2744 2837 
Q 2550 3084 2163 3084 
Q 1697 3084 1428 2787 
Q 1159 2491 1159 1978 
L 1159 0 
L 581 0 
L 581 3500 
L 1159 3500 
L 1159 2956 
Q 1366 3272 1645 3428 
Q 1925 3584 2291 3584 
Q 2894 3584 3203 3211 
Q 3513 2838 3513 2113 
z
" transform="scale(0.015625)"/>
      <path id="DejaVuSans-67" d="M 2906 1791 
Q 2906 2416 2648 2759 
Q 2391 3103 1925 3103 
Q 1463 3103 1205 2759 
Q 947 2416 947 1791 
Q 947 1169 1205 825 
Q 1463 481 1925 481 
Q 2391 481 2648 825 
Q 2906 1169 2906 1791 
z
M 3481 434 
Q 3481 -459 3084 -895 
Q 2688 -1331 1869 -1331 
Q 1566 -1331 1297 -1286 
Q 1028 -1241 775 -1147 
L 775 -588 
Q 1028 -725 1275 -790 
Q 1522 -856 1778 -856 
Q 2344 -856 2625 -561 
Q 2906 -266 2906 331 
L 2906 616 
Q 2728 306 2450 153 
Q 2172 0 1784 0 
Q 1141 0 747 490 
Q 353 981 353 1791 
Q 353 2603 747 3093 
Q 1141 3584 1784 3584 
Q 2172 3584 2450 3431 
Q 2728 3278 2906 2969 
L 2906 3500 
L 3481 3500 
L 3481 434 
z
" transform="scale(0.015625)"/>
     </defs>
     <use xlink:href="#DejaVuSans-74"/>
     <use xlink:href="#DejaVuSans-72" x="39.208984"/>
     <use xlink:href="#DejaVuSans-61" x="80.322266"/>
     <use xlink:href="#DejaVuSans-69" x="141.601562"/>
     <use xlink:href="#DejaVuSans-6e" x="169.384766"/>
     <use xlink:href="#DejaVuSans-69" x="232.763672"/>
     <use xlink:href="#DejaVuSans-6e" x="260.546875"/>
     <use xlink:href="#DejaVuSans-67" x="323.925781"/>
    </g>
   </g>
   <g id="legend_1">
    <g id="patch_7">
     <path d="M 613.273544 191.11625 
L 694.667294 191.11625 
Q 696.667294 191.11625 696.667294 189.11625 
L 696.667294 160.76 
Q 696.667294 158.76 694.667294 158.76 
L 613.273544 158.76 
Q 611.273544 158.76 611.273544 160.76 
L 611.273544 189.11625 
Q 611.273544 191.11625 613.273544 191.11625 
z
" style="fill: #ffffff; opacity: 0.8; stroke: #cccccc; stroke-linejoin: miter"/>
    </g>
    <g id="line2d_19">
     <path d="M 615.273544 166.858438 
L 625.273544 166.858438 
L 635.273544 166.858438 
" style="fill: none; stroke: #1f77b4; stroke-width: 1.5; stroke-linecap: square"/>
    </g>
    <g id="text_18">
     <!-- observed -->
     <g transform="translate(643.273544 170.358438) scale(0.1 -0.1)">
      <defs>
       <path id="DejaVuSans-6f" d="M 1959 3097 
Q 1497 3097 1228 2736 
Q 959 2375 959 1747 
Q 959 1119 1226 758 
Q 1494 397 1959 397 
Q 2419 397 2687 759 
Q 2956 1122 2956 1747 
Q 2956 2369 2687 2733 
Q 2419 3097 1959 3097 
z
M 1959 3584 
Q 2709 3584 3137 3096 
Q 3566 2609 3566 1747 
Q 3566 888 3137 398 
Q 2709 -91 1959 -91 
Q 1206 -91 779 398 
Q 353 888 353 1747 
Q 353 2609 779 3096 
Q 1206 3584 1959 3584 
z
" transform="scale(0.015625)"/>
       <path id="DejaVuSans-62" d="M 3116 1747 
Q 3116 2381 2855 2742 
Q 2594 3103 2138 3103 
Q 1681 3103 1420 2742 
Q 1159 2381 1159 1747 
Q 1159 1113 1420 752 
Q 1681 391 2138 391 
Q 2594 391 2855 752 
Q 3116 1113 3116 1747 
z
M 1159 2969 
Q 1341 3281 1617 3432 
Q 1894 3584 2278 3584 
Q 2916 3584 3314 3078 
Q 3713 2572 3713 1747 
Q 3713 922 3314 415 
Q 2916 -91 2278 -91 
Q 1894 -91 1617 61 
Q 1341 213 1159 525 
L 1159 0 
L 581 0 
L 581 4863 
L 1159 4863 
L 1159 2969 
z
" transform="scale(0.015625)"/>
       <path id="DejaVuSans-73" d="M 2834 3397 
L 2834 2853 
Q 2591 2978 2328 3040 
Q 2066 3103 1784 3103 
Q 1356 3103 1142 2972 
Q 928 2841 928 2578 
Q 928 2378 1081 2264 
Q 1234 2150 1697 2047 
L 1894 2003 
Q 2506 1872 2764 1633 
Q 3022 1394 3022 966 
Q 3022 478 2636 193 
Q 2250 -91 1575 -91 
Q 1294 -91 989 -36 
Q 684 19 347 128 
L 347 722 
Q 666 556 975 473 
Q 1284 391 1588 391 
Q 1994 391 2212 530 
Q 2431 669 2431 922 
Q 2431 1156 2273 1281 
Q 2116 1406 1581 1522 
L 1381 1569 
Q 847 1681 609 1914 
Q 372 2147 372 2553 
Q 372 3047 722 3315 
Q 1072 3584 1716 3584 
Q 2034 3584 2315 3537 
Q 2597 3491 2834 3397 
z
" transform="scale(0.015625)"/>
       <path id="DejaVuSans-65" d="M 3597 1894 
L 3597 1613 
L 953 1613 
Q 991 1019 1311 708 
Q 1631 397 2203 397 
Q 2534 397 2845 478 
Q 3156 559 3463 722 
L 3463 178 
Q 3153 47 2828 -22 
Q 2503 -91 2169 -91 
Q 1331 -91 842 396 
Q 353 884 353 1716 
Q 353 2575 817 3079 
Q 1281 3584 2069 3584 
Q 2775 3584 3186 3129 
Q 3597 2675 3597 1894 
z
M 3022 2063 
Q 3016 2534 2758 2815 
Q 2500 3097 2075 3097 
Q 1594 3097 1305 2825 
Q 1016 2553 972 2059 
L 3022 2063 
z
" transform="scale(0.015625)"/>
       <path id="DejaVuSans-76" d="M 191 3500 
L 800 3500 
L 1894 563 
L 2988 3500 
L 3597 3500 
L 2284 0 
L 1503 0 
L 191 3500 
z
" transform="scale(0.015625)"/>
       <path id="DejaVuSans-64" d="M 2906 2969 
L 2906 4863 
L 3481 4863 
L 3481 0 
L 2906 0 
L 2906 525 
Q 2725 213 2448 61 
Q 2172 -91 1784 -91 
Q 1150 -91 751 415 
Q 353 922 353 1747 
Q 353 2572 751 3078 
Q 1150 3584 1784 3584 
Q 2172 3584 2448 3432 
Q 2725 3281 2906 2969 
z
M 947 1747 
Q 947 1113 1208 752 
Q 1469 391 1925 391 
Q 2381 391 2643 752 
Q 2906 1113 2906 1747 
Q 2906 2381 2643 2742 
Q 2381 3103 1925 3103 
Q 1469 3103 1208 2742 
Q 947 2381 947 1747 
z
" transform="scale(0.015625)"/>
      </defs>
      <use xlink:href="#DejaVuSans-6f"/>
      <use xlink:href="#DejaVuSans-62" x="61.181641"/>
      <use xlink:href="#DejaVuSans-73" x="124.658203"/>
      <use xlink:href="#DejaVuSans-65" x="176.757812"/>
      <use xlink:href="#DejaVuSans-72" x="238.28125"/>
      <use xlink:href="#DejaVuSans-76" x="279.394531"/>
      <use xlink:href="#DejaVuSans-65" x="338.574219"/>
      <use xlink:href="#DejaVuSans-64" x="400.097656"/>
     </g>
    </g>
    <g id="line2d_20">
     <path d="M 615.273544 181.536563 
L 625.273544 181.536563 
L 635.273544 181.536563 
" style="fill: none; stroke: #ff7f0e; stroke-width: 1.5; stroke-linecap: square"/>
    </g>
    <g id="text_19">
     <!-- simulated -->
     <g transform="translate(643.273544 185.036563) scale(0.1 -0.1)">
      <defs>
       <path id="DejaVuSans-6d" d="M 3328 2828 
Q 3544 3216 3844 3400 
Q 4144 3584 4550 3584 
Q 5097 3584 5394 3201 
Q 5691 2819 5691 2113 
L 5691 0 
L 5113 0 
L 5113 2094 
Q 5113 2597 4934 2840 
Q 4756 3084 4391 3084 
Q 3944 3084 3684 2787 
Q 3425 2491 3425 1978 
L 3425 0 
L 2847 0 
L 2847 2094 
Q 2847 2600 2669 2842 
Q 2491 3084 2119 3084 
Q 1678 3084 1418 2786 
Q 1159 2488 1159 1978 
L 1159 0 
L 581 0 
L 581 3500 
L 1159 3500 
L 1159 2956 
Q 1356 3278 1631 3431 
Q 1906 3584 2284 3584 
Q 2666 3584 2933 3390 
Q 3200 3197 3328 2828 
z
" transform="scale(0.015625)"/>
       <path id="DejaVuSans-75" d="M 544 1381 
L 544 3500 
L 1119 3500 
L 1119 1403 
Q 1119 906 1312 657 
Q 1506 409 1894 409 
Q 2359 409 2629 706 
Q 2900 1003 2900 1516 
L 2900 3500 
L 3475 3500 
L 3475 0 
L 2900 0 
L 2900 538 
Q 2691 219 2414 64 
Q 2138 -91 1772 -91 
Q 1169 -91 856 284 
Q 544 659 544 1381 
z
M 1991 3584 
L 1991 3584 
z
" transform="scale(0.015625)"/>
       <path id="DejaVuSans-6c" d="M 603 4863 
L 1178 4863 
L 1178 0 
L 603 0 
L 603 4863 
z
" transform="scale(0.015625)"/>
      </defs>
      <use xlink:href="#DejaVuSans-73"/>
      <use xlink:href="#DejaVuSans-69" x="52.099609"/>
      <use xlink:href="#DejaVuSans-6d" x="79.882812"/>
      <use xlink:href="#DejaVuSans-75" x="177.294922"/>
      <use xlink:href="#DejaVuSans-6c" x="240.673828"/>
      <use xlink:href="#DejaVuSans-61" x="268.457031"/>
      <use xlink:href="#DejaVuSans-74" x="329.736328"/>
      <use xlink:href="#DejaVuSans-65" x="368.945312"/>
      <use xlink:href="#DejaVuSans-64" x="430.46875"/>
     </g>
    </g>
   </g>
  </g>
 </g>
 <defs>
  <clipPath id="pe53788b42c">
   <rect x="46.0125" y="22.318125" width="655.654794" height="305.24"/>
  </clipPath>
 </defs>
</svg>
