<?xml version="1.0" encoding="utf-8" standalone="no"?>
<!DOCTYPE svg PUBLIC "-//W3C//DTD SVG 1.1//EN"
  "http://www.w3.org/Graphics/SVG/1.1/DTD/svg11.dtd">
<svg xmlns:xlink="http://www.w3.org/1999/xlink" width="720pt" height="360pt" viewBox="0 0 720 360" xmlns="http://www.w3.org/2000/svg" version="1.1">
 <metadata>
  <rdf:RDF xmlns:dc="http://purl.org/dc/elements/1.1/" xmlns:cc="http://creativecommons.org/ns#" xmlns:rdf="http://www.w3.org/1999/02/22-rdf-syntax-ns#">
   <cc:Work>
    <dc:type rdf:resource="http://purl.org/dc/dcmitype/StillImage"/>
    <dc:date>2023-10-23T10:53:29.787504</dc:date>
    <dc:format>image/svg+xml</dc:format>
    <dc:creator>
     <cc:Agent>
      <dc:title>Matplotlib v3.7.1, https://matplotlib.org/</dc:title>
     </cc:Agent>
    </dc:creator>
   </cc:Work>
  </rdf:RDF>
 </metadata>
 <defs>
  <style type="text/css">*{stroke-linejoin: round; stroke-linecap: butt}</style>
 </defs>
 <g id="figure_1">
  <g id="patch_1">
   <path d="M 0 360 
L 720 360 
L 720 0 
L 0 0 
z
" style="fill: #ffffff"/>
  </g>
  <g id="axes_1">
   <g id="patch_2">
    <path d="M 90 288 
L 648 288 
L 648 43.2 
L 90 43.2 
z
" style="fill: #ffffff"/>
   </g>
   <g id="matplotlib.axis_1">
    <g id="xtick_1">
     <g id="line2d_1">
      <defs>
       <path id="meecea9172f" d="M 0 0 
L 0 3.5 
" style="stroke: #000000; stroke-width: 0.8"/>
      </defs>
      <g>
       <use xlink:href="#meecea9172f" x="149.370747" y="288" style="stroke: #000000; stroke-width: 0.8"/>
      </g>
     </g>
     <g id="text_1">
      <!-- 2023-08-15 -->
      <g transform="translate(87.727405 337.765903) rotate(-30) scale(0.12 -0.12)">
       <defs>
        <path id="DejaVuSans-32" d="M 1228 531 
L 3431 531 
L 3431 0 
L 469 0 
L 469 531 
Q 828 903 1448 1529 
Q 2069 2156 2228 2338 
Q 2531 2678 2651 2914 
Q 2772 3150 2772 3378 
Q 2772 3750 2511 3984 
Q 2250 4219 1831 4219 
Q 1534 4219 1204 4116 
Q 875 4013 500 3803 
L 500 4441 
Q 881 4594 1212 4672 
Q 1544 4750 1819 4750 
Q 2544 4750 2975 4387 
Q 3406 4025 3406 3419 
Q 3406 3131 3298 2873 
Q 3191 2616 2906 2266 
Q 2828 2175 2409 1742 
Q 1991 1309 1228 531 
z
" transform="scale(0.015625)"/>
        <path id="DejaVuSans-30" d="M 2034 4250 
Q 1547 4250 1301 3770 
Q 1056 3291 1056 2328 
Q 1056 1369 1301 889 
Q 1547 409 2034 409 
Q 2525 409 2770 889 
Q 3016 1369 3016 2328 
Q 3016 3291 2770 3770 
Q 2525 4250 2034 4250 
z
M 2034 4750 
Q 2819 4750 3233 4129 
Q 3647 3509 3647 2328 
Q 3647 1150 3233 529 
Q 2819 -91 2034 -91 
Q 1250 -91 836 529 
Q 422 1150 422 2328 
Q 422 3509 836 4129 
Q 1250 4750 2034 4750 
z
" transform="scale(0.015625)"/>
        <path id="DejaVuSans-33" d="M 2597 2516 
Q 3050 2419 3304 2112 
Q 3559 1806 3559 1356 
Q 3559 666 3084 287 
Q 2609 -91 1734 -91 
Q 1441 -91 1130 -33 
Q 819 25 488 141 
L 488 750 
Q 750 597 1062 519 
Q 1375 441 1716 441 
Q 2309 441 2620 675 
Q 2931 909 2931 1356 
Q 2931 1769 2642 2001 
Q 2353 2234 1838 2234 
L 1294 2234 
L 1294 2753 
L 1863 2753 
Q 2328 2753 2575 2939 
Q 2822 3125 2822 3475 
Q 2822 3834 2567 4026 
Q 2313 4219 1838 4219 
Q 1578 4219 1281 4162 
Q 984 4106 628 3988 
L 628 4550 
Q 988 4650 1302 4700 
Q 1616 4750 1894 4750 
Q 2613 4750 3031 4423 
Q 3450 4097 3450 3541 
Q 3450 3153 3228 2886 
Q 3006 2619 2597 2516 
z
" transform="scale(0.015625)"/>
        <path id="DejaVuSans-2d" d="M 313 2009 
L 1997 2009 
L 1997 1497 
L 313 1497 
L 313 2009 
z
" transform="scale(0.015625)"/>
        <path id="DejaVuSans-38" d="M 2034 2216 
Q 1584 2216 1326 1975 
Q 1069 1734 1069 1313 
Q 1069 891 1326 650 
Q 1584 409 2034 409 
Q 2484 409 2743 651 
Q 3003 894 3003 1313 
Q 3003 1734 2745 1975 
Q 2488 2216 2034 2216 
z
M 1403 2484 
Q 997 2584 770 2862 
Q 544 3141 544 3541 
Q 544 4100 942 4425 
Q 1341 4750 2034 4750 
Q 2731 4750 3128 4425 
Q 3525 4100 3525 3541 
Q 3525 3141 3298 2862 
Q 3072 2584 2669 2484 
Q 3125 2378 3379 2068 
Q 3634 1759 3634 1313 
Q 3634 634 3220 271 
Q 2806 -91 2034 -91 
Q 1263 -91 848 271 
Q 434 634 434 1313 
Q 434 1759 690 2068 
Q 947 2378 1403 2484 
z
M 1172 3481 
Q 1172 3119 1398 2916 
Q 1625 2713 2034 2713 
Q 2441 2713 2670 2916 
Q 2900 3119 2900 3481 
Q 2900 3844 2670 4047 
Q 2441 4250 2034 4250 
Q 1625 4250 1398 4047 
Q 1172 3844 1172 3481 
z
" transform="scale(0.015625)"/>
        <path id="DejaVuSans-31" d="M 794 531 
L 1825 531 
L 1825 4091 
L 703 3866 
L 703 4441 
L 1819 4666 
L 2450 4666 
L 2450 531 
L 3481 531 
L 3481 0 
L 794 0 
L 794 531 
z
" transform="scale(0.015625)"/>
        <path id="DejaVuSans-35" d="M 691 4666 
L 3169 4666 
L 3169 4134 
L 1269 4134 
L 1269 2991 
Q 1406 3038 1543 3061 
Q 1681 3084 1819 3084 
Q 2600 3084 3056 2656 
Q 3513 2228 3513 1497 
Q 3513 744 3044 326 
Q 2575 -91 1722 -91 
Q 1428 -91 1123 -41 
Q 819 9 494 109 
L 494 744 
Q 775 591 1075 516 
Q 1375 441 1709 441 
Q 2250 441 2565 725 
Q 2881 1009 2881 1497 
Q 2881 1984 2565 2268 
Q 2250 2553 1709 2553 
Q 1456 2553 1204 2497 
Q 953 2441 691 2322 
L 691 4666 
z
" transform="scale(0.015625)"/>
       </defs>
       <use xlink:href="#DejaVuSans-32"/>
       <use xlink:href="#DejaVuSans-30" x="63.623047"/>
       <use xlink:href="#DejaVuSans-32" x="127.246094"/>
       <use xlink:href="#DejaVuSans-33" x="190.869141"/>
       <use xlink:href="#DejaVuSans-2d" x="254.492188"/>
       <use xlink:href="#DejaVuSans-30" x="290.576172"/>
       <use xlink:href="#DejaVuSans-38" x="354.199219"/>
       <use xlink:href="#DejaVuSans-2d" x="417.822266"/>
       <use xlink:href="#DejaVuSans-31" x="453.90625"/>
       <use xlink:href="#DejaVuSans-35" x="517.529297"/>
      </g>
     </g>
    </g>
    <g id="xtick_2">
     <g id="line2d_2">
      <g>
       <use xlink:href="#meecea9172f" x="264.994921" y="288" style="stroke: #000000; stroke-width: 0.8"/>
      </g>
     </g>
     <g id="text_2">
      <!-- 2023-09-01 -->
      <g transform="translate(203.35158 337.765903) rotate(-30) scale(0.12 -0.12)">
       <defs>
        <path id="DejaVuSans-39" d="M 703 97 
L 703 672 
Q 941 559 1184 500 
Q 1428 441 1663 441 
Q 2288 441 2617 861 
Q 2947 1281 2994 2138 
Q 2813 1869 2534 1725 
Q 2256 1581 1919 1581 
Q 1219 1581 811 2004 
Q 403 2428 403 3163 
Q 403 3881 828 4315 
Q 1253 4750 1959 4750 
Q 2769 4750 3195 4129 
Q 3622 3509 3622 2328 
Q 3622 1225 3098 567 
Q 2575 -91 1691 -91 
Q 1453 -91 1209 -44 
Q 966 3 703 97 
z
M 1959 2075 
Q 2384 2075 2632 2365 
Q 2881 2656 2881 3163 
Q 2881 3666 2632 3958 
Q 2384 4250 1959 4250 
Q 1534 4250 1286 3958 
Q 1038 3666 1038 3163 
Q 1038 2656 1286 2365 
Q 1534 2075 1959 2075 
z
" transform="scale(0.015625)"/>
       </defs>
       <use xlink:href="#DejaVuSans-32"/>
       <use xlink:href="#DejaVuSans-30" x="63.623047"/>
       <use xlink:href="#DejaVuSans-32" x="127.246094"/>
       <use xlink:href="#DejaVuSans-33" x="190.869141"/>
       <use xlink:href="#DejaVuSans-2d" x="254.492188"/>
       <use xlink:href="#DejaVuSans-30" x="290.576172"/>
       <use xlink:href="#DejaVuSans-39" x="354.199219"/>
       <use xlink:href="#DejaVuSans-2d" x="417.822266"/>
       <use xlink:href="#DejaVuSans-30" x="453.90625"/>
       <use xlink:href="#DejaVuSans-31" x="517.529297"/>
      </g>
     </g>
    </g>
    <g id="xtick_3">
     <g id="line2d_3">
      <g>
       <use xlink:href="#meecea9172f" x="360.21483" y="288" style="stroke: #000000; stroke-width: 0.8"/>
      </g>
     </g>
     <g id="text_3">
      <!-- 2023-09-15 -->
      <g transform="translate(298.571488 337.765903) rotate(-30) scale(0.12 -0.12)">
       <use xlink:href="#DejaVuSans-32"/>
       <use xlink:href="#DejaVuSans-30" x="63.623047"/>
       <use xlink:href="#DejaVuSans-32" x="127.246094"/>
       <use xlink:href="#DejaVuSans-33" x="190.869141"/>
       <use xlink:href="#DejaVuSans-2d" x="254.492188"/>
       <use xlink:href="#DejaVuSans-30" x="290.576172"/>
       <use xlink:href="#DejaVuSans-39" x="354.199219"/>
       <use xlink:href="#DejaVuSans-2d" x="417.822266"/>
       <use xlink:href="#DejaVuSans-31" x="453.90625"/>
       <use xlink:href="#DejaVuSans-35" x="517.529297"/>
      </g>
     </g>
    </g>
    <g id="xtick_4">
     <g id="line2d_4">
      <g>
       <use xlink:href="#meecea9172f" x="469.037583" y="288" style="stroke: #000000; stroke-width: 0.8"/>
      </g>
     </g>
     <g id="text_4">
      <!-- 2023-10-01 -->
      <g transform="translate(407.394241 337.765903) rotate(-30) scale(0.12 -0.12)">
       <use xlink:href="#DejaVuSans-32"/>
       <use xlink:href="#DejaVuSans-30" x="63.623047"/>
       <use xlink:href="#DejaVuSans-32" x="127.246094"/>
       <use xlink:href="#DejaVuSans-33" x="190.869141"/>
       <use xlink:href="#DejaVuSans-2d" x="254.492188"/>
       <use xlink:href="#DejaVuSans-31" x="290.576172"/>
       <use xlink:href="#DejaVuSans-30" x="354.199219"/>
       <use xlink:href="#DejaVuSans-2d" x="417.822266"/>
       <use xlink:href="#DejaVuSans-30" x="453.90625"/>
       <use xlink:href="#DejaVuSans-31" x="517.529297"/>
      </g>
     </g>
    </g>
    <g id="xtick_5">
     <g id="line2d_5">
      <g>
       <use xlink:href="#meecea9172f" x="564.257491" y="288" style="stroke: #000000; stroke-width: 0.8"/>
      </g>
     </g>
     <g id="text_5">
      <!-- 2023-10-15 -->
      <g transform="translate(502.614149 337.765903) rotate(-30) scale(0.12 -0.12)">
       <use xlink:href="#DejaVuSans-32"/>
       <use xlink:href="#DejaVuSans-30" x="63.623047"/>
       <use xlink:href="#DejaVuSans-32" x="127.246094"/>
       <use xlink:href="#DejaVuSans-33" x="190.869141"/>
       <use xlink:href="#DejaVuSans-2d" x="254.492188"/>
       <use xlink:href="#DejaVuSans-31" x="290.576172"/>
       <use xlink:href="#DejaVuSans-30" x="354.199219"/>
       <use xlink:href="#DejaVuSans-2d" x="417.822266"/>
       <use xlink:href="#DejaVuSans-31" x="453.90625"/>
       <use xlink:href="#DejaVuSans-35" x="517.529297"/>
      </g>
     </g>
    </g>
   </g>
   <g id="matplotlib.axis_2">
    <g id="ytick_1">
     <g id="line2d_6">
      <defs>
       <path id="md0c5eb017d" d="M 0 0 
L -3.5 0 
" style="stroke: #000000; stroke-width: 0.8"/>
      </defs>
      <g>
       <use xlink:href="#md0c5eb017d" x="90" y="273.209392" style="stroke: #000000; stroke-width: 0.8"/>
      </g>
     </g>
     <g id="text_6">
      <!-- 0.5 -->
      <g transform="translate(63.91625 277.768454) scale(0.12 -0.12)">
       <defs>
        <path id="DejaVuSans-2e" d="M 684 794 
L 1344 794 
L 1344 0 
L 684 0 
L 684 794 
z
" transform="scale(0.015625)"/>
       </defs>
       <use xlink:href="#DejaVuSans-30"/>
       <use xlink:href="#DejaVuSans-2e" x="63.623047"/>
       <use xlink:href="#DejaVuSans-35" x="95.410156"/>
      </g>
     </g>
    </g>
    <g id="ytick_2">
     <g id="line2d_7">
      <g>
       <use xlink:href="#md0c5eb017d" x="90" y="245.826329" style="stroke: #000000; stroke-width: 0.8"/>
      </g>
     </g>
     <g id="text_7">
      <!-- 0.6 -->
      <g transform="translate(63.91625 250.385391) scale(0.12 -0.12)">
       <defs>
        <path id="DejaVuSans-36" d="M 2113 2584 
Q 1688 2584 1439 2293 
Q 1191 2003 1191 1497 
Q 1191 994 1439 701 
Q 1688 409 2113 409 
Q 2538 409 2786 701 
Q 3034 994 3034 1497 
Q 3034 2003 2786 2293 
Q 2538 2584 2113 2584 
z
M 3366 4563 
L 3366 3988 
Q 3128 4100 2886 4159 
Q 2644 4219 2406 4219 
Q 1781 4219 1451 3797 
Q 1122 3375 1075 2522 
Q 1259 2794 1537 2939 
Q 1816 3084 2150 3084 
Q 2853 3084 3261 2657 
Q 3669 2231 3669 1497 
Q 3669 778 3244 343 
Q 2819 -91 2113 -91 
Q 1303 -91 875 529 
Q 447 1150 447 2328 
Q 447 3434 972 4092 
Q 1497 4750 2381 4750 
Q 2619 4750 2861 4703 
Q 3103 4656 3366 4563 
z
" transform="scale(0.015625)"/>
       </defs>
       <use xlink:href="#DejaVuSans-30"/>
       <use xlink:href="#DejaVuSans-2e" x="63.623047"/>
       <use xlink:href="#DejaVuSans-36" x="95.410156"/>
      </g>
     </g>
    </g>
    <g id="ytick_3">
     <g id="line2d_8">
      <g>
       <use xlink:href="#md0c5eb017d" x="90" y="218.443266" style="stroke: #000000; stroke-width: 0.8"/>
      </g>
     </g>
     <g id="text_8">
      <!-- 0.7 -->
      <g transform="translate(63.91625 223.002328) scale(0.12 -0.12)">
       <defs>
        <path id="DejaVuSans-37" d="M 525 4666 
L 3525 4666 
L 3525 4397 
L 1831 0 
L 1172 0 
L 2766 4134 
L 525 4134 
L 525 4666 
z
" transform="scale(0.015625)"/>
       </defs>
       <use xlink:href="#DejaVuSans-30"/>
       <use xlink:href="#DejaVuSans-2e" x="63.623047"/>
       <use xlink:href="#DejaVuSans-37" x="95.410156"/>
      </g>
     </g>
    </g>
    <g id="ytick_4">
     <g id="line2d_9">
      <g>
       <use xlink:href="#md0c5eb017d" x="90" y="191.060203" style="stroke: #000000; stroke-width: 0.8"/>
      </g>
     </g>
     <g id="text_9">
      <!-- 0.8 -->
      <g transform="translate(63.91625 195.619265) scale(0.12 -0.12)">
       <use xlink:href="#DejaVuSans-30"/>
       <use xlink:href="#DejaVuSans-2e" x="63.623047"/>
       <use xlink:href="#DejaVuSans-38" x="95.410156"/>
      </g>
     </g>
    </g>
    <g id="ytick_5">
     <g id="line2d_10">
      <g>
       <use xlink:href="#md0c5eb017d" x="90" y="163.67714" style="stroke: #000000; stroke-width: 0.8"/>
      </g>
     </g>
     <g id="text_10">
      <!-- 0.9 -->
      <g transform="translate(63.91625 168.236202) scale(0.12 -0.12)">
       <use xlink:href="#DejaVuSans-30"/>
       <use xlink:href="#DejaVuSans-2e" x="63.623047"/>
       <use xlink:href="#DejaVuSans-39" x="95.410156"/>
      </g>
     </g>
    </g>
    <g id="ytick_6">
     <g id="line2d_11">
      <g>
       <use xlink:href="#md0c5eb017d" x="90" y="136.294077" style="stroke: #000000; stroke-width: 0.8"/>
      </g>
     </g>
     <g id="text_11">
      <!-- 1.0 -->
      <g transform="translate(63.91625 140.85314) scale(0.12 -0.12)">
       <use xlink:href="#DejaVuSans-31"/>
       <use xlink:href="#DejaVuSans-2e" x="63.623047"/>
       <use xlink:href="#DejaVuSans-30" x="95.410156"/>
      </g>
     </g>
    </g>
    <g id="ytick_7">
     <g id="line2d_12">
      <g>
       <use xlink:href="#md0c5eb017d" x="90" y="108.911014" style="stroke: #000000; stroke-width: 0.8"/>
      </g>
     </g>
     <g id="text_12">
      <!-- 1.1 -->
      <g transform="translate(63.91625 113.470077) scale(0.12 -0.12)">
       <use xlink:href="#DejaVuSans-31"/>
       <use xlink:href="#DejaVuSans-2e" x="63.623047"/>
       <use xlink:href="#DejaVuSans-31" x="95.410156"/>
      </g>
     </g>
    </g>
    <g id="ytick_8">
     <g id="line2d_13">
      <g>
       <use xlink:href="#md0c5eb017d" x="90" y="81.527951" style="stroke: #000000; stroke-width: 0.8"/>
      </g>
     </g>
     <g id="text_13">
      <!-- 1.2 -->
      <g transform="translate(63.91625 86.087014) scale(0.12 -0.12)">
       <use xlink:href="#DejaVuSans-31"/>
       <use xlink:href="#DejaVuSans-2e" x="63.623047"/>
       <use xlink:href="#DejaVuSans-32" x="95.410156"/>
      </g>
     </g>
    </g>
    <g id="ytick_9">
     <g id="line2d_14">
      <g>
       <use xlink:href="#md0c5eb017d" x="90" y="54.144888" style="stroke: #000000; stroke-width: 0.8"/>
      </g>
     </g>
     <g id="text_14">
      <!-- 1.3 -->
      <g transform="translate(63.91625 58.703951) scale(0.12 -0.12)">
       <use xlink:href="#DejaVuSans-31"/>
       <use xlink:href="#DejaVuSans-2e" x="63.623047"/>
       <use xlink:href="#DejaVuSans-33" x="95.410156"/>
      </g>
     </g>
    </g>
    <g id="text_15">
     <!-- Meters -->
     <g transform="translate(57.836562 182.6875) rotate(-90) scale(0.1 -0.1)">
      <defs>
       <path id="DejaVuSans-4d" d="M 628 4666 
L 1569 4666 
L 2759 1491 
L 3956 4666 
L 4897 4666 
L 4897 0 
L 4281 0 
L 4281 4097 
L 3078 897 
L 2444 897 
L 1241 4097 
L 1241 0 
L 628 0 
L 628 4666 
z
" transform="scale(0.015625)"/>
       <path id="DejaVuSans-65" d="M 3597 1894 
L 3597 1613 
L 953 1613 
Q 991 1019 1311 708 
Q 1631 397 2203 397 
Q 2534 397 2845 478 
Q 3156 559 3463 722 
L 3463 178 
Q 3153 47 2828 -22 
Q 2503 -91 2169 -91 
Q 1331 -91 842 396 
Q 353 884 353 1716 
Q 353 2575 817 3079 
Q 1281 3584 2069 3584 
Q 2775 3584 3186 3129 
Q 3597 2675 3597 1894 
z
M 3022 2063 
Q 3016 2534 2758 2815 
Q 2500 3097 2075 3097 
Q 1594 3097 1305 2825 
Q 1016 2553 972 2059 
L 3022 2063 
z
" transform="scale(0.015625)"/>
       <path id="DejaVuSans-74" d="M 1172 4494 
L 1172 3500 
L 2356 3500 
L 2356 3053 
L 1172 3053 
L 1172 1153 
Q 1172 725 1289 603 
Q 1406 481 1766 481 
L 2356 481 
L 2356 0 
L 1766 0 
Q 1100 0 847 248 
Q 594 497 594 1153 
L 594 3053 
L 172 3053 
L 172 3500 
L 594 3500 
L 594 4494 
L 1172 4494 
z
" transform="scale(0.015625)"/>
       <path id="DejaVuSans-72" d="M 2631 2963 
Q 2534 3019 2420 3045 
Q 2306 3072 2169 3072 
Q 1681 3072 1420 2755 
Q 1159 2438 1159 1844 
L 1159 0 
L 581 0 
L 581 3500 
L 1159 3500 
L 1159 2956 
Q 1341 3275 1631 3429 
Q 1922 3584 2338 3584 
Q 2397 3584 2469 3576 
Q 2541 3569 2628 3553 
L 2631 2963 
z
" transform="scale(0.015625)"/>
       <path id="DejaVuSans-73" d="M 2834 3397 
L 2834 2853 
Q 2591 2978 2328 3040 
Q 2066 3103 1784 3103 
Q 1356 3103 1142 2972 
Q 928 2841 928 2578 
Q 928 2378 1081 2264 
Q 1234 2150 1697 2047 
L 1894 2003 
Q 2506 1872 2764 1633 
Q 3022 1394 3022 966 
Q 3022 478 2636 193 
Q 2250 -91 1575 -91 
Q 1294 -91 989 -36 
Q 684 19 347 128 
L 347 722 
Q 666 556 975 473 
Q 1284 391 1588 391 
Q 1994 391 2212 530 
Q 2431 669 2431 922 
Q 2431 1156 2273 1281 
Q 2116 1406 1581 1522 
L 1381 1569 
Q 847 1681 609 1914 
Q 372 2147 372 2553 
Q 372 3047 722 3315 
Q 1072 3584 1716 3584 
Q 2034 3584 2315 3537 
Q 2597 3491 2834 3397 
z
" transform="scale(0.015625)"/>
      </defs>
      <use xlink:href="#DejaVuSans-4d"/>
      <use xlink:href="#DejaVuSans-65" x="86.279297"/>
      <use xlink:href="#DejaVuSans-74" x="147.802734"/>
      <use xlink:href="#DejaVuSans-65" x="187.011719"/>
      <use xlink:href="#DejaVuSans-72" x="248.535156"/>
      <use xlink:href="#DejaVuSans-73" x="289.648438"/>
     </g>
    </g>
   </g>
   <g id="line2d_15">
    <path d="M 115.363636 266.783693 
L 115.930422 266.674189 
L 116.213814 267.449844 
L 116.497207 267.677978 
L 116.780599 268.271126 
L 117.063992 268.408006 
L 117.347384 269.411795 
L 117.630777 269.639928 
L 117.91417 269.639928 
L 118.764347 267.586724 
L 119.04774 267.358591 
L 119.331133 268.408006 
L 119.614525 267.951738 
L 119.897918 267.769231 
L 120.18131 267.723605 
L 120.464703 267.814858 
L 120.748095 268.179872 
L 121.031488 264.484105 
L 121.314881 263.480316 
L 121.598273 261.472739 
L 121.881666 261.335859 
L 122.165058 261.929007 
L 123.015236 262.567781 
L 123.298629 264.073464 
L 123.582021 264.073464 
L 123.865414 265.031626 
L 124.148807 265.305387 
L 124.432199 265.898534 
L 124.715592 265.214133 
L 124.998984 265.761654 
L 125.282377 265.168506 
L 125.565769 263.069676 
L 125.849162 262.750288 
L 126.132555 263.662823 
L 126.415947 265.670401 
L 126.69934 266.400429 
L 127.83291 263.297809 
L 128.116303 260.605831 
L 128.399695 259.830176 
L 128.683088 260.240817 
L 129.249873 259.602042 
L 129.533266 259.556415 
L 130.100051 241.853235 
L 130.666836 233.594792 
L 131.233621 227.343927 
L 131.517014 225.74699 
L 132.367191 218.72047 
L 132.650584 217.397294 
L 132.933977 216.941027 
L 133.217369 217.077907 
L 133.500762 216.621639 
L 133.784154 214.842196 
L 134.067547 212.013337 
L 134.35094 212.378351 
L 134.634332 212.058964 
L 135.201117 209.914506 
L 135.48451 209.458239 
L 135.767902 209.275732 
L 136.051295 208.682584 
L 136.334688 208.956344 
L 136.901473 208.089436 
L 137.184865 208.363197 
L 137.751651 207.724422 
L 138.318436 207.359408 
L 138.601828 207.815676 
L 139.168614 205.579965 
L 139.735399 205.488711 
L 140.018791 206.948767 
L 140.302184 206.583753 
L 140.868969 206.309993 
L 141.435754 206.355619 
L 141.719147 205.625591 
L 142.002539 205.306204 
L 142.285932 205.397458 
L 143.13611 205.306204 
L 143.419502 206.081859 
L 143.986287 206.811887 
L 144.26968 206.583753 
L 144.553073 205.351831 
L 144.836465 205.716845 
L 145.119858 204.94119 
L 145.40325 205.07807 
L 145.686643 204.986817 
L 146.253428 204.348042 
L 146.536821 204.530549 
L 146.820213 204.849937 
L 147.103606 204.986817 
L 147.386998 205.260577 
L 147.670391 204.439296 
L 147.953784 204.621803 
L 148.520569 203.11612 
L 148.803961 203.344254 
L 149.087354 203.38988 
L 149.370747 201.70169 
L 149.937532 200.104754 
L 150.220924 199.967874 
L 151.071102 197.321522 
L 151.637887 192.302579 
L 152.771458 185.093552 
L 155.321991 173.093715 
L 155.605383 172.454941 
L 156.172169 172.956835 
L 156.455561 172.089927 
L 156.738954 171.724913 
L 157.022346 171.998673 
L 157.305739 171.314272 
L 157.589132 171.268645 
L 157.872524 171.359899 
L 158.155917 170.21923 
L 158.439309 169.762962 
L 158.722702 169.762962 
L 159.006094 168.987307 
L 159.289487 169.306695 
L 159.57288 167.390371 
L 159.856272 167.207864 
L 160.139665 167.664131 
L 160.423057 168.850427 
L 160.70645 169.078561 
L 160.989843 169.124188 
L 161.273235 168.896054 
L 161.556628 169.580455 
L 161.84002 169.762962 
L 162.123413 170.264856 
L 162.406805 168.257279 
L 162.690198 168.850427 
L 162.973591 169.124188 
L 163.256983 168.66792 
L 163.540376 168.485413 
L 163.823768 168.029146 
L 164.107161 167.299117 
L 164.390554 167.618505 
L 164.673946 166.614716 
L 164.957339 166.797223 
L 165.240731 167.755385 
L 165.524124 166.660343 
L 165.807517 166.523463 
L 166.090909 166.751596 
L 166.374302 166.751596 
L 166.941087 167.344744 
L 167.224479 168.941681 
L 167.507872 169.352321 
L 167.791265 167.664131 
L 168.074657 163.557724 
L 168.641442 160.728865 
L 168.924835 159.542569 
L 169.208228 159.451316 
L 169.49162 158.630034 
L 169.775013 158.219393 
L 170.341798 154.797387 
L 170.62519 154.843013 
L 170.908583 154.75176 
L 171.191976 154.067359 
L 171.475368 155.299281 
L 171.758761 154.386746 
L 172.042153 154.523626 
L 172.608939 153.884852 
L 172.892331 152.835436 
L 173.459116 152.105408 
L 173.742509 152.333542 
L 174.025901 153.154823 
L 174.309294 153.382957 
L 174.592687 153.20045 
L 175.442864 154.295492 
L 175.726257 154.249866 
L 176.00965 153.519838 
L 176.293042 153.474211 
L 176.576435 154.204239 
L 177.14322 153.474211 
L 177.426612 153.976105 
L 178.560183 154.934267 
L 178.843575 155.481788 
L 179.126968 154.797387 
L 179.693753 154.523626 
L 180.260538 152.333542 
L 180.543931 152.972316 
L 181.110716 155.846802 
L 181.394109 156.120563 
L 181.677501 156.074936 
L 182.244286 157.854379 
L 182.527679 157.671872 
L 182.811072 155.983682 
L 183.661249 156.668084 
L 183.944642 156.30307 
L 184.228035 156.531203 
L 184.511427 156.348696 
L 185.078212 156.668084 
L 185.361605 156.43995 
L 185.644997 156.531203 
L 185.92839 156.485577 
L 186.211783 156.57683 
L 186.495175 156.531203 
L 186.778568 155.436161 
L 187.06196 155.344908 
L 187.912138 158.995048 
L 188.195531 158.630034 
L 188.478923 204.986817 
L 188.762316 158.812541 
L 189.045708 159.95321 
L 189.329101 159.998837 
L 189.612494 158.26502 
L 190.179279 158.766914 
L 190.462671 158.538781 
L 190.746064 158.538781 
L 191.029457 159.177555 
L 191.312849 158.812541 
L 191.596242 158.721288 
L 191.879634 158.4019 
L 192.163027 159.496942 
L 192.44642 161.048252 
L 192.729812 160.774492 
L 193.013205 161.77828 
L 193.57999 161.413266 
L 194.146775 162.690815 
L 194.430168 164.196498 
L 194.71356 164.242125 
L 194.996953 165.839061 
L 195.280345 166.569089 
L 195.563738 166.888477 
L 195.847131 166.432209 
L 196.697308 166.386582 
L 196.980701 167.390371 
L 197.264093 167.481624 
L 197.547486 167.755385 
L 197.830879 168.439786 
L 198.114271 169.534828 
L 198.681056 172.363687 
L 198.964449 172.409314 
L 199.247842 172.31806 
L 199.531234 173.367476 
L 200.098019 172.774328 
L 201.23159 176.059454 
L 201.514982 176.606975 
L 201.798375 176.470095 
L 202.081767 176.606975 
L 202.648553 179.025193 
L 202.931945 178.979567 
L 203.49873 180.257116 
L 203.782123 179.892102 
L 204.065515 179.983355 
L 204.348908 180.393996 
L 204.632301 180.302743 
L 204.915693 180.89589 
L 205.199086 182.4472 
L 205.482478 182.58408 
L 206.332656 183.633496 
L 206.616049 183.724749 
L 206.899441 184.089763 
L 207.749619 186.279847 
L 208.033012 186.599235 
L 208.599797 186.599235 
L 208.883189 188.287425 
L 209.166582 187.922411 
L 209.449975 189.428093 
L 209.733367 189.975615 
L 210.01676 189.793108 
L 210.300152 190.523136 
L 210.583545 189.564974 
L 210.866938 189.838734 
L 211.15033 189.929988 
L 211.717115 190.842523 
L 212.000508 190.386255 
L 213.134078 150.417218 
L 215.117826 133.307185 
L 215.684611 129.702672 
L 216.534789 123.588686 
L 216.818182 121.85487 
L 217.101574 120.851081 
L 217.66836 117.018434 
L 217.951752 114.737096 
L 218.235145 108.623111 
L 218.80193 104.288569 
L 219.085322 102.463499 
L 219.9355 95.756366 
L 220.785678 90.78305 
L 221.919248 86.996029 
L 222.202641 86.402881 
L 222.486034 86.129121 
L 223.052819 85.034079 
L 223.619604 83.939037 
L 224.186389 82.433354 
L 225.036567 81.383938 
L 225.319959 81.292685 
L 225.886745 79.923882 
L 226.170137 79.513241 
L 226.45353 79.513241 
L 226.736922 78.69196 
L 227.020315 78.737587 
L 227.303707 77.551291 
L 227.5871 77.049397 
L 227.870493 76.182488 
L 229.004063 74.129284 
L 229.287456 74.357418 
L 229.570848 74.403045 
L 230.137633 73.399256 
L 230.421026 71.209172 
L 231.271204 68.836581 
L 231.554596 68.745327 
L 231.837989 68.060926 
L 232.121381 67.787165 
L 232.404774 67.148391 
L 232.688167 68.56282 
L 232.971559 67.787165 
L 233.254952 67.741539 
L 233.538344 67.148391 
L 233.821737 66.87463 
L 234.10513 65.688335 
L 234.388522 63.315743 
L 234.671915 62.768222 
L 234.955307 62.676969 
L 235.2387 63.133236 
L 235.522092 62.859476 
L 236.088878 61.992568 
L 236.37227 61.718807 
L 236.655663 61.946941 
L 236.939055 61.034406 
L 237.222448 57.931786 
L 237.789233 58.068667 
L 238.356018 56.927998 
L 238.639411 56.927998 
L 238.922803 57.247385 
L 239.206196 56.60861 
L 239.489589 57.612399 
L 239.772981 55.969836 
L 240.056374 57.247385 
L 240.339766 56.517357 
L 240.623159 56.745491 
L 241.473337 54.327273 
L 241.756729 54.829167 
L 242.323514 56.699864 
L 242.8903 56.380477 
L 243.457085 57.384265 
L 243.740477 56.699864 
L 244.02387 54.966047 
L 244.307263 55.559195 
L 244.590655 56.426103 
L 244.874048 55.376688 
L 245.15744 54.78354 
L 245.440833 55.878582 
L 245.724225 55.969836 
L 246.007618 56.791117 
L 246.291011 56.60861 
L 246.574403 57.475519 
L 246.857796 57.110505 
L 247.141188 57.475519 
L 247.424581 56.973625 
L 247.707974 57.612399 
L 247.991366 57.201758 
L 248.274759 57.247385 
L 248.558151 57.658026 
L 249.124937 60.121871 
L 249.408329 60.441258 
L 249.691722 60.395631 
L 250.258507 61.034406 
L 250.541899 61.718807 
L 250.825292 60.943152 
L 251.108685 62.038194 
L 251.392077 62.038194 
L 251.67547 58.889948 
L 251.958862 59.026828 
L 252.242255 58.889948 
L 252.525648 58.342427 
L 252.80904 58.251174 
L 253.092433 59.118082 
L 253.375825 59.026828 
L 253.659218 59.619976 
L 253.94261 59.893737 
L 254.226003 59.71123 
L 254.509396 59.84811 
L 254.792788 60.669392 
L 255.076181 60.943152 
L 256.776536 64.502039 
L 257.059929 65.04956 
L 257.343321 64.91268 
L 257.626714 64.410786 
L 258.476892 67.102764 
L 258.760284 67.239644 
L 259.32707 68.836581 
L 259.610462 68.608447 
L 259.893855 69.292848 
L 260.177247 70.433517 
L 260.46064 70.479144 
L 260.744033 71.893573 
L 261.310818 73.308003 
L 261.59421 72.07608 
L 261.877603 72.212961 
L 262.160995 73.079869 
L 262.727781 76.456249 
L 263.577958 79.011347 
L 263.861351 79.741375 
L 264.144744 79.832629 
L 264.428136 78.783213 
L 264.994921 81.338312 
L 265.278314 81.338312 
L 265.561706 82.47898 
L 265.845099 82.570234 
L 266.411884 85.5816 
L 266.695277 85.170959 
L 266.978669 86.448508 
L 267.262062 86.676642 
L 267.545455 86.129121 
L 267.828847 88.091071 
L 268.11224 87.132909 
L 268.679025 86.357255 
L 268.962417 87.40667 
L 269.529203 91.649958 
L 269.812595 92.379986 
L 270.662773 96.030127 
L 270.946166 95.9845 
L 271.229558 93.840042 
L 271.796343 95.071965 
L 272.079736 94.843831 
L 272.363128 96.075753 
L 272.646521 96.760155 
L 272.929914 97.079542 
L 273.780091 98.813359 
L 274.063484 98.904612 
L 274.630269 99.406506 
L 274.913662 99.954027 
L 275.480447 98.767732 
L 276.330625 102.737259 
L 278.03098 105.794252 
L 278.314373 106.113639 
L 278.597765 105.748625 
L 278.881158 106.478653 
L 279.447943 107.208681 
L 280.581513 109.626899 
L 280.864906 109.672526 
L 281.715084 110.767568 
L 281.998476 110.493808 
L 282.281869 109.444392 
L 282.565262 110.448181 
L 283.132047 113.961441 
L 283.415439 114.052695 
L 284.265617 117.794089 
L 284.54901 117.565955 
L 284.832402 117.657208 
L 285.399187 118.250356 
L 285.68258 117.794089 
L 285.965973 117.611582 
L 286.249365 117.109687 
L 286.81615 119.664785 
L 287.099543 119.664785 
L 287.382936 119.892919 
L 287.666328 120.531694 
L 287.949721 120.714201 
L 288.516506 121.85487 
L 288.799898 121.717989 
L 289.366684 123.223672 
L 289.933469 125.870024 
L 290.783647 127.740721 
L 291.067039 129.063897 
L 291.350432 129.292031 
L 291.633824 128.790136 
L 291.917217 129.565791 
L 292.200609 129.15515 
L 292.484002 129.109524 
L 292.767395 129.793925 
L 293.050787 130.113312 
L 293.33418 130.797714 
L 293.900965 131.527742 
L 294.46775 132.805291 
L 295.034535 133.809079 
L 295.317928 134.037213 
L 295.60132 133.809079 
L 295.884713 133.261558 
L 296.734891 137.687354 
L 297.018283 137.641727 
L 297.301676 139.329917 
L 297.585069 139.603677 
L 298.151854 141.702508 
L 298.435246 140.97248 
L 298.718639 140.881226 
L 299.002031 140.561839 
L 299.568817 138.097994 
L 300.135602 138.463008 
L 300.702387 139.512424 
L 300.98578 139.375544 
L 301.269172 139.923065 
L 301.552565 139.968691 
L 301.835957 140.288079 
L 302.11935 140.288079 
L 302.686135 141.154987 
L 303.25292 143.618832 
L 303.536313 144.21198 
L 303.819705 142.569416 
L 304.103098 142.751923 
L 304.386491 143.846966 
L 304.669883 145.672036 
L 305.236668 144.576994 
L 305.520061 144.850754 
L 305.803454 144.62262 
L 306.086846 144.896381 
L 306.370239 143.618832 
L 306.653631 144.531367 
L 306.937024 143.892592 
L 307.220416 144.531367 
L 307.787202 145.078888 
L 308.070594 145.261395 
L 308.353987 146.402064 
L 308.637379 146.675824 
L 308.920772 147.314599 
L 309.204165 147.588359 
L 309.77095 148.683402 
L 310.054342 149.002789 
L 310.621127 150.554098 
L 310.90452 150.508472 
L 311.187913 150.736605 
L 311.471305 151.51226 
L 311.754698 151.557887 
L 312.03809 151.37538 
L 312.321483 152.287915 
L 312.604876 152.516049 
L 312.888268 153.382957 
L 313.171661 153.519838 
L 313.455053 154.61488 
L 313.738446 154.934267 
L 314.021838 155.527415 
L 314.588624 157.580619 
L 314.872016 158.812541 
L 315.155409 159.405689 
L 315.438801 159.177555 
L 315.722194 161.048252 
L 316.288979 161.50452 
L 317.139157 163.60335 
L 317.705942 164.242125 
L 317.989335 165.063406 
L 318.272727 165.245913 
L 319.406298 166.797223 
L 319.68969 167.664131 
L 319.973083 167.618505 
L 320.256475 168.622293 
L 320.539868 168.713547 
L 320.823261 168.439786 
L 321.106653 169.124188 
L 321.390046 169.261068 
L 321.673438 170.675497 
L 321.956831 170.949258 
L 322.240223 170.949258 
L 322.523616 171.542406 
L 322.807009 171.724913 
L 323.373794 173.184969 
L 323.940579 175.2838 
L 324.223972 175.055666 
L 324.507364 175.785694 
L 325.074149 178.021405 
L 325.357542 177.565137 
L 325.640934 175.466307 
L 325.924327 175.648814 
L 326.20772 175.466307 
L 326.774505 177.702018 
L 327.34129 178.660179 
L 327.624683 178.660179 
L 328.191468 180.62213 
L 328.47486 180.62213 
L 328.758253 181.489038 
L 329.041646 181.078397 
L 329.325038 181.990932 
L 329.608431 180.576503 
L 329.891823 180.257116 
L 330.458608 182.812214 
L 330.742001 183.907256 
L 331.025394 185.595446 
L 331.592179 186.006087 
L 331.875571 185.504193 
L 332.158964 186.188594 
L 332.442357 184.500404 
L 333.009142 185.914833 
L 333.292534 185.777953 
L 333.575927 185.367312 
L 333.859319 186.462354 
L 334.142712 186.553608 
L 334.709497 187.831157 
L 334.99289 187.922411 
L 335.276282 188.926199 
L 335.559675 188.561185 
L 335.843068 189.382467 
L 336.12646 189.291213 
L 336.409853 189.017453 
L 336.693245 189.19996 
L 337.543423 191.435671 
L 338.110208 191.891938 
L 338.393601 191.709431 
L 338.676993 191.983192 
L 338.960386 192.621966 
L 339.243779 192.211326 
L 339.527171 192.165699 
L 339.810564 192.941354 
L 343.211275 178.93394 
L 343.494667 178.432046 
L 343.77806 177.24575 
L 344.061453 177.24575 
L 344.344845 176.835109 
L 344.91163 177.10887 
L 345.195023 177.473884 
L 345.478415 178.386419 
L 345.761808 176.743856 
L 346.328593 175.69444 
L 346.611986 175.922574 
L 346.895378 175.69444 
L 347.462164 175.740067 
L 347.745556 175.42068 
L 348.028949 175.785694 
L 348.312341 176.652602 
L 348.595734 176.196335 
L 348.879126 176.971989 
L 349.162519 177.10887 
L 349.445912 176.606975 
L 349.729304 176.789482 
L 350.012697 176.196335 
L 350.296089 175.876947 
L 350.579482 176.470095 
L 350.862875 177.747644 
L 351.42966 178.203912 
L 351.713052 178.158285 
L 351.996445 178.979567 
L 352.279837 178.386419 
L 352.56323 180.439623 
L 352.846623 178.705806 
L 353.130015 179.390207 
L 353.413408 179.162074 
L 353.6968 180.302743 
L 353.980193 180.62213 
L 354.263586 179.983355 
L 354.546978 180.576503 
L 355.113763 180.576503 
L 355.397156 180.393996 
L 355.680549 182.036559 
L 355.963941 181.762799 
L 356.247334 182.4472 
L 356.530726 181.534665 
L 356.814119 181.397785 
L 357.097511 180.713383 
L 357.380904 180.804637 
L 357.947689 184.226643 
L 358.231082 185.367312 
L 358.514474 185.367312 
L 358.797867 185.549819 
L 359.08126 184.637284 
L 359.364652 186.644861 
L 359.648045 184.682911 
L 359.931437 183.633496 
L 360.21483 183.450989 
L 360.498222 182.994721 
L 360.781615 183.679122 
L 361.065008 183.587869 
L 361.3484 184.637284 
L 361.631793 184.27227 
L 361.915185 184.454777 
L 362.198578 185.002298 
L 362.481971 184.500404 
L 362.765363 184.819791 
L 363.048756 184.27227 
L 363.332148 184.317897 
L 363.615541 183.724749 
L 363.898933 182.492827 
L 365.032504 186.872995 
L 365.599289 189.154333 
L 365.882682 188.880572 
L 366.166074 187.420516 
L 366.449467 187.009875 
L 366.732859 187.283636 
L 367.299644 186.644861 
L 367.86643 187.466143 
L 368.149822 187.283636 
L 368.433215 188.104918 
L 368.716607 187.420516 
L 369.850178 188.789319 
L 370.13357 188.971826 
L 370.700356 186.507981 
L 371.267141 188.926199 
L 371.833926 191.344417 
L 372.117318 191.891938 
L 372.400711 191.800685 
L 372.684104 192.074445 
L 372.967496 191.435671 
L 373.250889 191.709431 
L 373.534281 191.116283 
L 373.817674 191.983192 
L 374.101067 191.207537 
L 374.384459 191.800685 
L 374.951244 192.165699 
L 376.084815 194.629544 
L 376.368207 194.492663 
L 376.934992 195.542079 
L 377.218385 195.085811 
L 377.501778 194.948931 
L 377.78517 195.496452 
L 378.351955 198.370937 
L 378.635348 198.462191 
L 378.91874 198.735951 
L 379.202133 197.960297 
L 379.485526 197.823416 
L 379.768918 198.279684 
L 380.052311 198.462191 
L 380.619096 199.830994 
L 380.902489 198.735951 
L 381.185881 199.237846 
L 381.469274 199.283472 
L 381.752666 200.880409 
L 382.036059 200.789155 
L 382.319451 201.017289 
L 382.886237 202.021078 
L 383.169629 202.021078 
L 383.736414 203.344254 
L 384.586592 204.074282 
L 384.869985 204.621803 
L 385.720163 207.085648 
L 386.003555 207.359408 
L 386.57034 209.686373 
L 386.853733 208.31757 
L 387.137125 208.043809 
L 387.420518 208.682584 
L 387.703911 208.865091 
L 387.987303 209.321359 
L 388.270696 209.184478 
L 388.554088 209.366985 
L 389.120874 210.507654 
L 389.404266 211.739577 
L 389.971051 212.925872 
L 390.254444 212.834619 
L 390.537836 213.017126 
L 390.821229 212.560858 
L 391.104622 211.785203 
L 391.388014 212.332724 
L 391.671407 214.705316 
L 391.954799 215.800358 
L 392.238192 216.256625 
L 392.521585 216.393506 
L 392.804977 216.302252 
L 393.08837 215.754731 
L 393.371762 215.845984 
L 393.655155 216.347879 
L 394.22194 216.75852 
L 394.505333 216.75852 
L 394.788725 217.214787 
L 395.072118 217.077907 
L 395.35551 217.214787 
L 395.638903 217.579801 
L 395.922296 217.762308 
L 396.205688 217.579801 
L 396.489081 218.081695 
L 397.055866 218.218576 
L 397.339259 218.902977 
L 397.622651 218.629217 
L 397.906044 218.85735 
L 398.756221 222.142477 
L 399.039614 222.37061 
L 399.323007 224.104427 
L 399.606399 224.834455 
L 399.889792 226.248885 
L 400.173184 226.385765 
L 400.456577 225.74699 
L 400.73997 224.150054 
L 401.023362 223.78504 
L 402.156932 224.971335 
L 402.440325 224.880082 
L 403.00711 225.883871 
L 403.290503 225.975124 
L 403.857288 227.16142 
L 404.140681 227.143169 
L 404.424073 226.705152 
L 404.707466 225.518856 
L 404.990858 226.020751 
L 405.557643 229.26025 
L 406.124429 231.359081 
L 406.407821 233.047271 
L 406.974606 234.416074 
L 407.257999 233.777299 
L 407.541392 231.495961 
L 407.824784 230.81156 
L 408.108177 231.267828 
L 408.674962 231.541588 
L 409.52514 233.330157 
L 410.375317 234.18794 
L 410.65871 233.768174 
L 410.942103 234.370447 
L 411.225495 234.370447 
L 411.508888 233.503539 
L 411.79228 234.32482 
L 412.642458 238.750615 
L 412.925851 239.517145 
L 413.209243 239.25251 
L 413.492636 238.385601 
L 413.776028 240.119418 
L 414.059421 238.704989 
L 414.626206 238.385601 
L 415.192991 240.073791 
L 415.476384 240.438805 
L 416.043169 242.081368 
L 416.326562 241.944488 
L 416.609954 242.126995 
L 416.893347 241.853235 
L 417.176739 242.674516 
L 417.460132 242.90265 
L 417.743525 243.313291 
L 418.026917 242.76577 
L 418.31031 241.031953 
L 419.727273 247.739086 
L 420.294058 248.605994 
L 420.57745 250.294184 
L 420.860843 248.24098 
L 421.427628 248.149727 
L 421.711021 248.925382 
L 421.994413 249.290396 
L 422.277806 249.381649 
L 422.561199 248.605994 
L 422.844591 249.107889 
L 423.411376 251.61736 
L 423.694769 250.522318 
L 423.978162 249.974797 
L 424.261554 252.849283 
L 424.544947 253.351177 
L 425.111732 251.024212 
L 425.395124 252.849283 
L 425.96191 264.027837 
L 426.812087 271.921266 
L 427.09548 273.928843 
L 427.378873 274.567618 
L 427.662265 272.560041 
L 427.945658 271.464998 
L 428.512443 270.59809 
L 428.795835 271.784386 
L 429.079228 272.42316 
L 429.362621 273.700709 
L 429.646013 274.020097 
L 429.929406 274.521991 
L 430.212798 274.248231 
L 430.779584 274.339484 
L 431.062976 274.613245 
L 431.346369 274.385111 
L 431.913154 274.339484 
L 432.196546 274.750125 
L 432.479939 257.685719 
L 432.763332 230.309666 
L 433.330117 208.363197 
L 433.613509 202.477345 
L 434.180295 196.774001 
L 434.463687 195.496452 
L 435.313865 193.853889 
L 435.597257 193.899515 
L 435.88065 193.762635 
L 436.447435 195.952719 
L 436.730828 195.770212 
L 437.864398 198.553444 
L 439.281361 203.481134 
L 439.848146 205.853725 
L 440.131539 206.264366 
L 440.414931 207.222528 
L 440.981717 210.233894 
L 441.265109 210.644534 
L 441.831894 212.013337 
L 442.39868 214.203421 
L 443.53225 219.131111 
L 444.949213 223.78504 
L 445.799391 227.115793 
L 446.649568 229.990278 
L 446.932961 231.359081 
L 447.216353 231.587215 
L 447.499746 232.682257 
L 447.783139 232.408496 
L 448.633316 234.096686 
L 448.916709 233.047271 
L 449.200102 232.910391 
L 449.483494 232.134736 
L 450.617064 227.115793 
L 450.900457 226.613899 
L 451.467242 224.971335 
L 451.750635 224.788828 
L 452.31742 224.834455 
L 452.884205 225.290723 
L 453.45099 225.47323 
L 453.734383 225.792617 
L 454.017776 225.564483 
L 454.584561 225.655737 
L 454.867953 225.290723 
L 455.151346 225.199469 
L 455.434738 225.792617 
L 455.718131 225.883871 
L 457.701879 227.57206 
L 459.118842 229.670891 
L 460.252412 233.047271 
L 460.535805 232.591003 
L 461.10259 233.047271 
L 461.385983 233.686046 
L 461.669375 233.959806 
L 461.952768 233.366658 
L 463.936516 237.56432 
L 464.219909 237.974961 
L 464.503301 237.883707 
L 464.786694 237.655573 
L 465.070086 238.339975 
L 465.353479 238.613735 
L 465.636872 238.385601 
L 465.920264 238.796242 
L 466.203657 238.568108 
L 466.487049 239.754404 
L 466.770442 242.857023 
L 467.053834 242.720143 
L 467.337227 243.815185 
L 467.904012 247.784713 
L 468.187405 250.248558 
L 468.470797 248.697248 
L 468.75419 245.001481 
L 469.037583 243.815185 
L 469.320975 243.678305 
L 469.604368 244.088946 
L 469.88776 244.72772 
L 470.171153 244.72772 
L 470.454545 245.777136 
L 470.737938 245.868389 
L 471.021331 246.233403 
L 471.304723 246.41591 
L 472.154901 247.282818 
L 472.438294 246.917804 
L 472.721686 246.735297 
L 473.005079 246.963431 
L 474.138649 252.712402 
L 474.988827 258.780761 
L 475.272219 257.685719 
L 475.555612 253.716191 
L 475.839005 252.666776 
L 476.122397 252.712402 
L 477.255967 254.491846 
L 477.53936 255.221874 
L 477.822753 255.586888 
L 478.106145 256.362543 
L 478.389538 256.362543 
L 478.67293 257.001317 
L 478.956323 256.95569 
L 479.523108 255.404381 
L 479.806501 255.541261 
L 480.373286 260.103937 
L 480.656679 260.742711 
L 480.940071 262.522155 
L 481.223464 263.343436 
L 481.790249 268.727393 
L 482.073641 267.632351 
L 482.357034 263.252183 
L 482.640427 262.157141 
L 482.923819 262.202767 
L 483.207212 262.385274 
L 483.490604 263.252183 
L 485.19096 265.716027 
L 485.474352 265.807281 
L 485.757745 266.217922 
L 486.041138 265.579147 
L 486.32453 262.522155 
L 486.607923 247.282818 
L 486.891315 239.936911 
L 487.174708 237.83808 
L 487.458101 234.735461 
L 487.741493 233.594792 
L 488.024886 233.092898 
L 488.308278 233.686046 
L 488.591671 236.560531 
L 488.875063 234.872341 
L 489.158456 230.446546 
L 489.441849 228.758356 
L 490.008634 228.940863 
L 490.575419 229.442757 
L 491.142204 230.537799 
L 491.425597 231.039694 
L 491.708989 231.313454 
L 492.275775 233.594792 
L 492.559167 233.822926 
L 492.84256 234.552954 
L 493.125952 233.457912 
L 493.409345 234.872341 
L 494.542915 242.537636 
L 494.826308 242.309502 
L 495.1097 243.952065 
L 495.676486 249.290396 
L 495.959878 246.963431 
L 496.243271 246.233403 
L 496.526663 246.187776 
L 497.943626 250.111677 
L 498.510411 250.841705 
L 498.793804 251.526107 
L 499.360589 254.126832 
L 499.643982 254.628726 
L 499.927374 250.659198 
L 500.210767 235.784876 
L 500.777552 221.777463 
L 501.344337 214.750942 
L 501.911122 209.503866 
L 502.7613 201.838571 
L 503.044693 200.287261 
L 503.611478 198.918458 
L 503.89487 198.462191 
L 504.178263 197.732163 
L 504.461656 198.370937 
L 504.745048 197.91467 
L 505.028441 197.823416 
L 505.311833 197.869043 
L 506.445404 199.329099 
L 506.728796 199.100965 
L 507.012189 199.694113 
L 507.295582 200.926036 
L 507.578974 203.526761 
L 508.145759 205.306204 
L 508.429152 207.359408 
L 508.995937 208.682584 
L 509.27933 208.408823 
L 509.562722 209.093225 
L 509.846115 207.952556 
L 510.129507 208.865091 
L 510.4129 208.865091 
L 510.696293 209.503866 
L 510.979685 210.462027 
L 511.263078 211.922084 
L 511.54647 212.606485 
L 511.829863 212.880245 
L 512.113255 213.473393 
L 512.396648 214.385928 
L 512.680041 214.887823 
L 512.963433 215.07033 
L 513.246826 216.256625 
L 513.813611 217.16916 
L 514.097004 218.218576 
L 514.380396 219.724259 
L 514.663789 219.998019 
L 514.947181 220.728047 
L 515.230574 221.047435 
L 515.513966 223.100638 
L 515.797359 223.92192 
L 516.080752 222.781251 
L 516.364144 222.324984 
L 525.432707 234.872341 
L 525.7161 234.598581 
L 525.999492 234.872341 
L 526.566277 235.784876 
L 527.133062 234.233567 
L 527.699848 236.14989 
L 527.98324 236.879918 
L 528.833418 237.974961 
L 529.683596 242.172622 
L 529.966988 240.530059 
L 530.533773 240.393179 
L 530.817166 239.936911 
L 531.667344 240.530059 
L 531.950736 241.625101 
L 532.234129 240.986326 
L 532.517522 241.21446 
L 532.800914 240.621312 
L 533.084307 241.579474 
L 533.367699 241.670728 
L 533.651092 241.488221 
L 533.934485 240.073791 
L 534.50127 218.081695 
L 535.068055 208.956344 
L 535.63484 204.576176 
L 536.201625 202.477345 
L 536.485018 201.519183 
L 536.76841 201.062916 
L 537.051803 199.648487 
L 537.335196 199.60286 
L 537.901981 200.378515 
L 538.185373 200.424141 
L 539.035551 202.751106 
L 539.318944 202.933613 
L 539.885729 204.348042 
L 540.169121 205.488711 
L 540.452514 205.944979 
L 542.719655 213.245259 
L 543.003047 213.51902 
L 543.569832 214.750942 
L 544.136618 217.351667 
L 544.42001 218.674843 
L 544.703403 218.994231 
L 544.986795 219.769885 
L 545.55358 221.777463 
L 545.836973 222.23373 
L 546.120366 223.465653 
L 546.403758 223.64816 
L 546.687151 224.788828 
L 546.970543 224.651948 
L 547.253936 224.697575 
L 547.537329 225.655737 
L 547.820721 224.697575 
L 548.387506 205.032444 
L 548.954292 198.827205 
L 549.237684 197.595283 
L 549.804469 192.71322 
L 550.087862 192.667593 
L 550.371254 192.393833 
L 550.654647 190.88815 
L 550.93804 190.933776 
L 551.221432 191.116283 
L 551.504825 191.663804 
L 552.07161 193.808262 
L 552.638395 195.405198 
L 553.488573 197.960297 
L 553.771965 199.420353 
L 554.055358 200.241634 
L 555.472321 206.857514 
L 556.322499 210.598908 
L 556.605891 211.100802 
L 557.172676 213.427766 
L 557.739462 215.663477 
L 558.589639 217.899188 
L 559.156425 218.72047 
L 559.72321 220.226153 
L 560.289995 221.731836 
L 560.573388 222.051223 
L 560.85678 222.826878 
L 561.140173 223.191892 
L 561.423565 222.872505 
L 561.706958 221.868716 
L 562.557136 217.16916 
L 562.840528 216.576013 
L 563.407313 216.393506 
L 563.974099 216.75852 
L 564.257491 217.077907 
L 564.540884 216.393506 
L 565.107669 217.762308 
L 565.391061 217.944815 
L 565.674454 217.671055 
L 565.957847 217.990442 
L 566.524632 219.998019 
L 566.808024 219.724259 
L 567.091417 219.906766 
L 567.37481 220.27178 
L 567.658202 220.956181 
L 567.941595 220.317406 
L 568.224987 220.728047 
L 568.791772 222.461864 
L 569.64195 222.598744 
L 569.925343 222.963758 
L 570.208735 223.64816 
L 570.775521 223.556906 
L 571.058913 223.876293 
L 571.342306 224.378188 
L 571.625698 223.967547 
L 571.909091 223.78504 
L 572.759269 224.469441 
L 573.326054 224.469441 
L 573.609446 225.016962 
L 573.892839 225.016962 
L 574.176232 225.381976 
L 574.459624 225.427603 
L 575.309802 226.842032 
L 575.593195 227.024539 
L 575.876587 227.070166 
L 576.726765 227.845821 
L 577.29355 228.712729 
L 577.576943 228.712729 
L 577.860335 229.351504 
L 578.42712 229.990278 
L 578.993906 230.629053 
L 579.277298 230.902814 
L 579.560691 231.450335 
L 579.844083 231.678468 
L 580.127476 232.180363 
L 580.694261 232.271616 
L 581.827831 233.321032 
L 582.394617 234.142313 
L 582.678009 234.279193 
L 583.244794 235.465489 
L 583.811579 237.108052 
L 584.094972 239.435017 
L 584.378365 236.879918 
L 584.94515 236.241144 
L 585.511935 238.066214 
L 585.795328 238.248721 
L 586.07872 238.613735 
L 586.362113 238.568108 
L 586.645505 238.248721 
L 586.928898 238.339975 
L 587.212291 237.7012 
L 587.495683 238.568108 
L 587.779076 239.070003 
L 588.062468 238.887496 
L 588.345861 238.066214 
L 588.629253 238.522482 
L 589.196039 240.9407 
L 589.479431 242.857023 
L 589.762824 243.541425 
L 590.046216 243.313291 
L 590.329609 243.404544 
L 590.896394 245.229615 
L 591.179787 244.408333 
L 591.463179 242.537636 
L 591.746572 242.628889 
L 592.029964 242.309502 
L 592.313357 243.495798 
L 592.59675 243.769558 
L 592.880142 243.860812 
L 593.163535 243.222037 
L 593.446927 243.587051 
L 593.73032 243.404544 
L 594.013713 243.678305 
L 594.297105 243.222037 
L 594.580498 243.222037 
L 594.86389 243.632678 
L 595.147283 243.723932 
L 595.430675 244.180199 
L 595.714068 244.271453 
L 595.997461 244.8646 
L 596.564246 244.271453 
L 596.847638 243.952065 
L 597.414424 243.723932 
L 597.697816 243.358918 
L 598.264601 242.355129 
L 599.681564 239.891284 
L 600.248349 239.343763 
L 600.531742 239.206883 
L 600.815135 238.887496 
L 601.098527 238.978749 
L 601.38192 238.476855 
L 601.665312 238.659362 
L 601.948705 238.431228 
L 602.232098 238.522482 
L 602.51549 238.750615 
L 602.798883 238.796242 
L 603.365668 238.203094 
L 603.64906 237.746827 
L 603.932453 237.56432 
L 604.499238 237.016799 
L 606.199594 237.108052 
L 606.482986 236.743038 
L 606.766379 236.879918 
L 607.049771 236.788665 
L 607.333164 237.290559 
L 607.616557 237.56432 
L 607.899949 238.294348 
L 608.466734 238.613735 
L 608.750127 234.32482 
L 609.03352 224.378188 
L 609.600305 214.933449 
L 609.883697 213.929661 
L 610.450482 210.462027 
L 611.017268 208.226316 
L 611.867445 206.720634 
L 612.434231 206.127486 
L 613.284408 206.355619 
L 614.417979 209.823253 
L 614.701371 210.051387 
L 614.984764 211.283309 
L 615.268156 210.644534 
L 615.551549 211.420189 
L 615.834942 212.788992 
L 616.118334 213.290886 
L 617.535297 219.541752 
L 617.81869 224.697575 
L 618.102082 224.925709 
L 618.385475 222.826878 
L 618.668867 222.37061 
L 619.519045 224.241307 
L 619.802438 225.016962 
L 620.08583 225.153842 
L 620.369223 226.066378 
L 620.652616 227.480807 
L 621.219401 228.119581 
L 621.502793 228.484596 
L 621.786186 230.035905 
L 622.352971 229.397131 
L 622.636364 228.895236 
L 622.636364 228.895236 
" clip-path="url(#p1afba9a2c2)" style="fill: none; stroke: #1f77b4; stroke-width: 1.5; stroke-linecap: square"/>
   </g>
   <g id="line2d_16">
    <path d="M 115.363636 270.703766 
L 115.930422 270.726583 
L 116.213814 266.674189 
L 117.063992 266.888502 
L 118.197562 267.348579 
L 121.881666 267.931453 
L 122.731844 267.983037 
L 123.015236 262.522155 
L 125.849162 263.378996 
L 126.982732 263.968174 
L 128.116303 264.231184 
L 128.399695 264.233162 
L 129.533266 263.006844 
L 129.816658 259.556415 
L 130.383443 259.629244 
L 132.083799 260.219706 
L 132.650584 260.506508 
L 132.933977 260.775158 
L 133.784154 260.824171 
L 136.334688 261.510041 
L 136.61808 208.956344 
L 138.601828 209.608519 
L 138.885221 209.56637 
L 139.168614 209.344776 
L 139.735399 208.382465 
L 140.302184 207.293155 
L 140.585576 206.988991 
L 140.868969 206.910037 
L 141.152362 207.038829 
L 141.719147 207.424699 
L 142.285932 208.032083 
L 142.852717 208.678485 
L 143.13611 208.815598 
L 143.419502 205.306204 
L 143.986287 205.556229 
L 144.26968 205.586542 
L 144.553073 205.457557 
L 145.119858 204.603158 
L 145.970036 203.192174 
L 146.536821 202.738435 
L 147.103606 199.975326 
L 147.386998 200.095625 
L 147.953784 200.873646 
L 148.803961 201.451101 
L 149.654139 201.073112 
L 149.937532 200.443271 
L 150.220924 200.104754 
L 150.504317 200.277471 
L 151.071102 195.841302 
L 151.354495 193.024017 
L 151.92128 192.311519 
L 152.488065 191.788043 
L 153.05485 191.885876 
L 153.338243 191.715846 
L 153.621635 191.705929 
L 153.905028 191.980282 
L 155.321991 192.260829 
L 155.605383 191.922031 
L 155.888776 191.341122 
L 156.172169 191.306332 
L 156.738954 192.076962 
L 157.022346 171.724913 
L 158.439309 175.825466 
L 159.57288 178.594156 
L 160.139665 179.339118 
L 160.70645 179.435366 
L 160.989843 179.457534 
L 161.273235 179.617439 
L 162.123413 180.584862 
L 162.690198 185.211874 
L 163.256983 180.414306 
L 163.540376 182.739287 
L 163.823768 168.485413 
L 164.107161 160.470194 
L 164.390554 138.435928 
L 164.673946 138.578638 
L 164.957339 135.028064 
L 165.240731 134.133024 
L 165.524124 131.86341 
L 165.807517 132.596158 
L 166.090909 126.821741 
L 166.374302 108.792011 
L 167.224479 128.95092 
L 167.507872 132.644004 
L 167.791265 133.406913 
L 168.074657 135.265648 
L 168.924835 142.349858 
L 170.341798 151.173285 
L 170.62519 154.797387 
L 172.042153 161.606352 
L 173.459116 167.239605 
L 174.876079 171.988409 
L 176.293042 176.052598 
L 177.14322 178.223402 
L 177.426612 153.474211 
L 178.560183 159.151447 
L 179.126968 160.968 
L 179.410361 161.544407 
L 179.693753 162.541942 
L 180.543931 168.35853 
L 180.827324 168.603496 
L 181.110716 166.438695 
L 181.394109 166.083715 
L 182.527679 172.273917 
L 183.661249 175.604479 
L 183.944642 176.361026 
L 184.228035 156.30307 
L 184.79482 156.590897 
L 185.92839 156.748103 
L 186.495175 157.04955 
L 187.345353 157.829472 
L 188.478923 159.237178 
L 190.746064 162.4287 
L 191.029457 158.538781 
L 197.547486 167.866068 
L 197.830879 167.755385 
L 204.065515 176.289848 
L 204.348908 176.668864 
L 204.632301 180.393996 
L 204.915693 179.513807 
L 205.199086 179.194774 
L 205.482478 179.342254 
L 206.332656 180.375757 
L 206.616049 180.801826 
L 206.899441 180.664583 
L 207.182834 180.20307 
L 207.466227 180.226894 
L 208.033012 180.650239 
L 209.449975 182.288883 
L 209.733367 182.403588 
L 210.300152 182.987417 
L 211.433723 184.484944 
L 212.000508 184.053555 
L 212.2839 184.469009 
L 212.567293 184.306211 
L 213.134078 182.531598 
L 213.417471 182.532893 
L 214.834434 183.63015 
L 215.401219 183.72336 
L 215.968004 183.368789 
L 216.818182 181.011857 
L 217.101574 180.786457 
L 217.384967 180.706668 
L 217.66836 181.024454 
L 218.80193 183.050542 
L 219.652108 183.670831 
L 219.9355 183.657762 
L 220.502285 183.28859 
L 221.919248 182.011989 
L 222.769426 181.673112 
L 225.319959 181.112982 
L 226.736922 180.564455 
L 228.72067 179.415807 
L 229.287456 179.632154 
L 229.854241 180.227343 
L 231.837989 182.703008 
L 237.789233 189.417991 
L 238.356018 190.112318 
L 238.639411 56.927998 
L 241.189944 62.259912 
L 243.740477 68.092185 
L 245.15744 70.99151 
L 245.440833 54.78354 
L 250.258507 65.062011 
L 250.825292 65.430087 
L 251.108685 64.357043 
L 251.67547 60.408067 
L 251.958862 60.257676 
L 252.242255 59.026828 
L 258.476892 72.263551 
L 258.760284 72.841094 
L 259.043677 67.239644 
L 260.177247 69.246691 
L 260.744033 69.806173 
L 261.027425 69.880061 
L 261.310818 69.776173 
L 261.59421 69.471122 
L 262.160995 68.250817 
L 263.011173 65.772969 
L 263.294566 65.305924 
L 263.577958 65.314056 
L 263.861351 65.940001 
L 264.144744 67.248208 
L 264.711529 71.653228 
L 265.845099 81.929534 
L 266.411884 84.93228 
L 266.978669 86.279012 
L 267.545455 86.690107 
L 268.395632 86.964922 
L 268.962417 87.364914 
L 269.812595 88.387822 
L 270.946166 90.251842 
L 273.780091 95.589153 
L 280.014728 107.248554 
L 285.965973 117.90941 
L 287.382936 120.381928 
L 287.666328 119.892919 
L 292.767395 128.60801 
L 293.050787 129.793925 
L 297.868461 137.659019 
L 298.435246 138.280048 
L 299.002031 139.115723 
L 300.702387 140.68373 
L 304.103098 146.10484 
L 304.386491 145.851564 
L 305.236668 144.00016 
L 305.520061 144.055284 
L 306.370239 145.295721 
L 308.920772 149.081802 
L 310.337735 150.795194 
L 312.03809 152.78341 
L 314.305231 155.939428 
L 314.872016 156.276121 
L 315.438801 156.301276 
L 316.855764 155.911443 
L 317.139157 156.105576 
L 317.42255 156.502269 
L 317.989335 157.927606 
L 319.68969 163.585897 
L 320.256475 164.631091 
L 320.823261 165.27032 
L 322.807009 167.052916 
L 324.223972 168.789237 
L 330.175216 176.832926 
L 336.409853 184.973873 
L 339.810564 189.264663 
L 343.211275 181.041896 
L 343.494667 181.122128 
L 346.611986 184.588304 
L 349.445912 188.027502 
L 350.296089 188.699986 
L 350.579482 188.800313 
L 350.862875 176.223711 
L 351.42966 176.200032 
L 351.996445 175.717903 
L 352.56323 174.801314 
L 353.413408 173.29605 
L 353.6968 173.055158 
L 353.980193 173.08651 
L 354.263586 173.452386 
L 354.546978 174.177813 
L 355.113763 176.571308 
L 356.247334 182.300288 
L 356.530726 181.863178 
L 357.097511 183.165747 
L 357.664297 183.701057 
L 359.364652 184.508074 
L 360.498222 185.578653 
L 363.048756 188.382118 
L 363.332148 184.710287 
L 369.850178 192.798426 
L 370.13357 187.940661 
L 376.368207 195.600112 
L 376.6516 195.940269 
L 376.934992 194.40141 
L 379.202133 197.001982 
L 379.485526 197.249013 
L 379.768918 197.28321 
L 380.335703 197.054211 
L 380.619096 197.131313 
L 381.185881 197.668978 
L 383.453022 200.259617 
L 383.736414 202.011952 
L 386.286948 203.675666 
L 387.137125 204.064614 
L 388.270696 204.322601 
L 388.837481 204.849542 
L 389.404266 205.381117 
L 389.687659 205.296084 
L 390.254444 204.410965 
L 390.537836 212.305348 
L 391.104622 214.742264 
L 391.671407 216.699806 
L 391.954799 216.94416 
L 392.521585 214.170294 
L 392.804977 214.168062 
L 393.371762 214.825459 
L 394.22194 216.673094 
L 394.788725 216.835901 
L 395.638903 216.857909 
L 396.205688 216.748277 
L 397.055866 216.826399 
L 397.339259 218.109071 
L 397.906044 218.270871 
L 398.756221 218.806788 
L 400.173184 220.077248 
L 403.857288 223.770292 
L 404.140681 225.883871 
L 410.942103 232.432063 
L 411.79228 233.228574 
L 412.075673 233.686046 
L 417.743525 232.274059 
L 418.026917 242.674516 
L 425.111732 248.664281 
L 431.062976 253.467744 
L 431.346369 274.339484 
L 433.613509 275.705828 
L 434.463687 275.882959 
L 435.313865 275.468752 
L 435.88065 275.721755 
L 437.864398 276.872727 
L 438.147791 197.230269 
L 438.714576 197.725602 
L 439.564754 198.120211 
L 441.265109 199.613292 
L 443.53225 202.104383 
L 444.382428 202.81941 
L 444.66582 202.985688 
L 444.949213 202.973752 
L 445.232605 202.817512 
L 445.515998 202.798926 
L 446.082783 203.135217 
L 446.366176 225.975124 
L 446.932961 224.694476 
L 447.216353 224.256538 
L 447.499746 224.058377 
L 447.783139 231.632842 
L 448.349924 233.88587 
L 448.633316 234.072449 
L 449.483494 232.39519 
L 449.766887 232.476851 
L 450.050279 232.994818 
L 450.333672 233.177327 
L 450.617064 232.841992 
L 451.467242 230.637041 
L 451.750635 225.975124 
L 452.034027 225.562313 
L 452.31742 225.398455 
L 452.600813 225.456293 
L 452.884205 225.71984 
L 453.45099 226.667122 
L 453.734383 226.780685 
L 454.867953 226.637842 
L 457.135094 226.165082 
L 459.118842 225.534481 
L 459.96902 225.18416 
L 460.819198 225.006149 
L 462.519553 224.357406 
L 463.653123 223.186762 
L 463.936516 223.17981 
L 465.070086 224.162105 
L 465.353479 237.746827 
L 467.053834 237.271368 
L 467.904012 237.157466 
L 471.871508 236.038318 
L 472.154901 246.507164 
L 478.67293 244.423347 
L 478.956323 256.453796 
L 485.474352 254.599606 
L 485.757745 265.579147 
L 492.275775 266.710886 
L 492.559167 232.180363 
L 498.793804 237.917326 
L 499.077197 238.069111 
L 499.360589 251.252346 
L 499.927374 251.053036 
L 500.777552 250.367664 
L 501.344337 249.397566 
L 501.911122 248.100223 
L 503.044693 244.825797 
L 503.89487 243.336583 
L 504.745048 242.974638 
L 505.878619 242.615072 
L 506.162011 198.325311 
L 508.712544 200.467983 
L 510.4129 201.688149 
L 510.979685 201.799287 
L 511.263078 201.669913 
L 511.54647 201.302445 
L 511.829863 200.583845 
L 512.680041 199.43261 
L 512.963433 214.020914 
L 513.246826 214.228849 
L 513.530218 215.481272 
L 514.097004 219.076388 
L 514.380396 219.846237 
L 514.663789 219.131034 
L 515.230574 214.060421 
L 516.364144 208.093125 
L 524.865922 210.315924 
L 525.432707 211.009294 
L 525.7161 211.151756 
L 526.282885 211.123393 
L 527.416455 210.819277 
L 527.699848 210.92355 
L 527.98324 211.19884 
L 528.550025 212.079501 
L 529.116811 212.463438 
L 532.234129 213.156596 
L 533.084307 213.330722 
L 533.367699 240.758193 
L 535.068055 240.249653 
L 535.918233 239.665044 
L 536.485018 239.907806 
L 537.051803 239.315868 
L 537.335196 239.560206 
L 537.901981 239.47442 
L 539.885729 238.877303 
L 540.169121 203.709268 
L 545.270188 209.378403 
L 546.403758 210.345329 
L 546.687151 210.494348 
L 546.970543 223.693786 
L 547.537329 223.1646 
L 548.670899 221.69271 
L 548.954292 221.549545 
L 551.221432 221.827169 
L 553.488573 221.520712 
L 553.771965 196.774001 
L 555.472321 198.355239 
L 556.605891 199.25241 
L 556.889284 199.510474 
L 557.172676 199.551719 
L 557.456069 199.321452 
L 558.306247 199.503101 
L 558.589639 199.16524 
L 558.873032 197.98864 
L 559.156425 195.880598 
L 559.439817 195.23443 
L 560.289995 196.189753 
L 560.573388 220.864927 
L 561.140173 220.032504 
L 561.99035 217.545343 
L 563.123921 213.855668 
L 563.690706 212.48013 
L 563.974099 212.069374 
L 564.257491 212.019823 
L 566.241239 212.576345 
L 567.091417 212.260265 
L 567.37481 219.496125 
L 568.224987 220.085284 
L 568.50838 220.158843 
L 568.791772 220.108876 
L 569.075165 219.902386 
L 569.64195 218.950677 
L 570.492128 216.447645 
L 571.058913 214.79513 
L 571.342306 214.237835 
L 571.625698 213.945854 
L 571.909091 213.982396 
L 572.192483 214.383358 
L 572.759269 216.162073 
L 573.892839 220.777644 
L 574.176232 224.971335 
L 575.026409 223.884164 
L 575.309802 223.772165 
L 575.593195 223.78679 
L 576.726765 224.441159 
L 578.710513 224.249988 
L 580.694261 223.98797 
L 580.977654 231.906602 
L 581.827831 231.574563 
L 582.394617 231.055662 
L 583.244794 230.054735 
L 583.528187 229.860851 
L 584.094972 229.833617 
L 585.511935 230.019503 
L 586.928898 229.808887 
L 587.495683 229.691937 
L 587.779076 237.83808 
L 590.896394 240.380353 
L 594.297105 243.322127 
L 594.580498 244.043319 
L 594.86389 244.143356 
L 595.147283 244.059113 
L 595.430675 243.815455 
L 595.997461 242.843058 
L 596.564246 241.821943 
L 596.847638 241.62758 
L 597.414424 241.727802 
L 597.697816 241.594521 
L 597.981209 241.104749 
L 598.831386 236.465502 
L 599.114779 236.243465 
L 599.681564 236.668624 
L 601.098527 237.954038 
L 601.38192 238.933122 
L 602.232098 239.36527 
L 602.798883 239.868891 
L 603.082275 240.011873 
L 603.64906 239.936168 
L 604.499238 240.660698 
L 605.916201 241.573232 
L 607.049771 242.701165 
L 607.616557 243.706455 
L 607.899949 244.445543 
L 608.183342 237.381813 
L 609.316912 232.194647 
L 609.600305 231.504653 
L 609.883697 231.311067 
L 610.16709 231.684143 
L 610.450482 232.62397 
L 611.017268 235.885342 
L 612.717623 247.131047 
L 613.284408 248.688524 
L 613.567801 248.962229 
L 613.851193 248.967604 
L 614.134586 248.764574 
L 614.701371 247.956069 
L 614.984764 209.823253 
L 615.551549 208.701355 
L 616.118334 208.125259 
L 616.401727 208.122814 
L 616.685119 208.318967 
L 617.251905 209.223175 
L 619.519045 214.04958 
L 620.08583 214.647996 
L 621.219401 215.399928 
L 621.502793 215.571178 
L 621.786186 228.256462 
L 622.636364 228.787564 
L 622.636364 228.787564 
" clip-path="url(#p1afba9a2c2)" style="fill: none; stroke: #ff7f0e; stroke-width: 1.5; stroke-linecap: square"/>
   </g>
   <g id="patch_3">
    <path d="M 90 288 
L 90 43.2 
" style="fill: none; stroke: #000000; stroke-width: 0.8; stroke-linejoin: miter; stroke-linecap: square"/>
   </g>
   <g id="patch_4">
    <path d="M 648 288 
L 648 43.2 
" style="fill: none; stroke: #000000; stroke-width: 0.8; stroke-linejoin: miter; stroke-linecap: square"/>
   </g>
   <g id="patch_5">
    <path d="M 90 288 
L 648 288 
" style="fill: none; stroke: #000000; stroke-width: 0.8; stroke-linejoin: miter; stroke-linecap: square"/>
   </g>
   <g id="patch_6">
    <path d="M 90 43.2 
L 648 43.2 
" style="fill: none; stroke: #000000; stroke-width: 0.8; stroke-linejoin: miter; stroke-linecap: square"/>
   </g>
   <g id="text_16">
    <!-- ARB013 -->
    <g transform="translate(345.1575 37.2) scale(0.12 -0.12)">
     <defs>
      <path id="DejaVuSans-41" d="M 2188 4044 
L 1331 1722 
L 3047 1722 
L 2188 4044 
z
M 1831 4666 
L 2547 4666 
L 4325 0 
L 3669 0 
L 3244 1197 
L 1141 1197 
L 716 0 
L 50 0 
L 1831 4666 
z
" transform="scale(0.015625)"/>
      <path id="DejaVuSans-52" d="M 2841 2188 
Q 3044 2119 3236 1894 
Q 3428 1669 3622 1275 
L 4263 0 
L 3584 0 
L 2988 1197 
Q 2756 1666 2539 1819 
Q 2322 1972 1947 1972 
L 1259 1972 
L 1259 0 
L 628 0 
L 628 4666 
L 2053 4666 
Q 2853 4666 3247 4331 
Q 3641 3997 3641 3322 
Q 3641 2881 3436 2590 
Q 3231 2300 2841 2188 
z
M 1259 4147 
L 1259 2491 
L 2053 2491 
Q 2509 2491 2742 2702 
Q 2975 2913 2975 3322 
Q 2975 3731 2742 3939 
Q 2509 4147 2053 4147 
L 1259 4147 
z
" transform="scale(0.015625)"/>
      <path id="DejaVuSans-42" d="M 1259 2228 
L 1259 519 
L 2272 519 
Q 2781 519 3026 730 
Q 3272 941 3272 1375 
Q 3272 1813 3026 2020 
Q 2781 2228 2272 2228 
L 1259 2228 
z
M 1259 4147 
L 1259 2741 
L 2194 2741 
Q 2656 2741 2882 2914 
Q 3109 3088 3109 3444 
Q 3109 3797 2882 3972 
Q 2656 4147 2194 4147 
L 1259 4147 
z
M 628 4666 
L 2241 4666 
Q 2963 4666 3353 4366 
Q 3744 4066 3744 3513 
Q 3744 3084 3544 2831 
Q 3344 2578 2956 2516 
Q 3422 2416 3680 2098 
Q 3938 1781 3938 1306 
Q 3938 681 3513 340 
Q 3088 0 2303 0 
L 628 0 
L 628 4666 
z
" transform="scale(0.015625)"/>
     </defs>
     <use xlink:href="#DejaVuSans-41"/>
     <use xlink:href="#DejaVuSans-52" x="68.408203"/>
     <use xlink:href="#DejaVuSans-42" x="137.890625"/>
     <use xlink:href="#DejaVuSans-30" x="206.494141"/>
     <use xlink:href="#DejaVuSans-31" x="270.117188"/>
     <use xlink:href="#DejaVuSans-33" x="333.740234"/>
    </g>
   </g>
   <g id="legend_1">
    <g id="patch_7">
     <path d="M 559.04375 80.55625 
L 641 80.55625 
Q 643 80.55625 643 78.55625 
L 643 50.2 
Q 643 48.2 641 48.2 
L 559.04375 48.2 
Q 557.04375 48.2 557.04375 50.2 
L 557.04375 78.55625 
Q 557.04375 80.55625 559.04375 80.55625 
z
" style="fill: #ffffff; opacity: 0.8; stroke: #cccccc; stroke-linejoin: miter"/>
    </g>
    <g id="line2d_17">
     <path d="M 561.04375 56.298437 
L 571.04375 56.298437 
L 581.04375 56.298437 
" style="fill: none; stroke: #1f77b4; stroke-width: 1.5; stroke-linecap: square"/>
    </g>
    <g id="text_17">
     <!-- measured -->
     <g transform="translate(589.04375 59.798437) scale(0.1 -0.1)">
      <defs>
       <path id="DejaVuSans-6d" d="M 3328 2828 
Q 3544 3216 3844 3400 
Q 4144 3584 4550 3584 
Q 5097 3584 5394 3201 
Q 5691 2819 5691 2113 
L 5691 0 
L 5113 0 
L 5113 2094 
Q 5113 2597 4934 2840 
Q 4756 3084 4391 3084 
Q 3944 3084 3684 2787 
Q 3425 2491 3425 1978 
L 3425 0 
L 2847 0 
L 2847 2094 
Q 2847 2600 2669 2842 
Q 2491 3084 2119 3084 
Q 1678 3084 1418 2786 
Q 1159 2488 1159 1978 
L 1159 0 
L 581 0 
L 581 3500 
L 1159 3500 
L 1159 2956 
Q 1356 3278 1631 3431 
Q 1906 3584 2284 3584 
Q 2666 3584 2933 3390 
Q 3200 3197 3328 2828 
z
" transform="scale(0.015625)"/>
       <path id="DejaVuSans-61" d="M 2194 1759 
Q 1497 1759 1228 1600 
Q 959 1441 959 1056 
Q 959 750 1161 570 
Q 1363 391 1709 391 
Q 2188 391 2477 730 
Q 2766 1069 2766 1631 
L 2766 1759 
L 2194 1759 
z
M 3341 1997 
L 3341 0 
L 2766 0 
L 2766 531 
Q 2569 213 2275 61 
Q 1981 -91 1556 -91 
Q 1019 -91 701 211 
Q 384 513 384 1019 
Q 384 1609 779 1909 
Q 1175 2209 1959 2209 
L 2766 2209 
L 2766 2266 
Q 2766 2663 2505 2880 
Q 2244 3097 1772 3097 
Q 1472 3097 1187 3025 
Q 903 2953 641 2809 
L 641 3341 
Q 956 3463 1253 3523 
Q 1550 3584 1831 3584 
Q 2591 3584 2966 3190 
Q 3341 2797 3341 1997 
z
" transform="scale(0.015625)"/>
       <path id="DejaVuSans-75" d="M 544 1381 
L 544 3500 
L 1119 3500 
L 1119 1403 
Q 1119 906 1312 657 
Q 1506 409 1894 409 
Q 2359 409 2629 706 
Q 2900 1003 2900 1516 
L 2900 3500 
L 3475 3500 
L 3475 0 
L 2900 0 
L 2900 538 
Q 2691 219 2414 64 
Q 2138 -91 1772 -91 
Q 1169 -91 856 284 
Q 544 659 544 1381 
z
M 1991 3584 
L 1991 3584 
z
" transform="scale(0.015625)"/>
       <path id="DejaVuSans-64" d="M 2906 2969 
L 2906 4863 
L 3481 4863 
L 3481 0 
L 2906 0 
L 2906 525 
Q 2725 213 2448 61 
Q 2172 -91 1784 -91 
Q 1150 -91 751 415 
Q 353 922 353 1747 
Q 353 2572 751 3078 
Q 1150 3584 1784 3584 
Q 2172 3584 2448 3432 
Q 2725 3281 2906 2969 
z
M 947 1747 
Q 947 1113 1208 752 
Q 1469 391 1925 391 
Q 2381 391 2643 752 
Q 2906 1113 2906 1747 
Q 2906 2381 2643 2742 
Q 2381 3103 1925 3103 
Q 1469 3103 1208 2742 
Q 947 2381 947 1747 
z
" transform="scale(0.015625)"/>
      </defs>
      <use xlink:href="#DejaVuSans-6d"/>
      <use xlink:href="#DejaVuSans-65" x="97.412109"/>
      <use xlink:href="#DejaVuSans-61" x="158.935547"/>
      <use xlink:href="#DejaVuSans-73" x="220.214844"/>
      <use xlink:href="#DejaVuSans-75" x="272.314453"/>
      <use xlink:href="#DejaVuSans-72" x="335.693359"/>
      <use xlink:href="#DejaVuSans-65" x="374.556641"/>
      <use xlink:href="#DejaVuSans-64" x="436.080078"/>
     </g>
    </g>
    <g id="line2d_18">
     <path d="M 561.04375 70.976562 
L 571.04375 70.976562 
L 581.04375 70.976562 
" style="fill: none; stroke: #ff7f0e; stroke-width: 1.5; stroke-linecap: square"/>
    </g>
    <g id="text_18">
     <!-- predicted -->
     <g transform="translate(589.04375 74.476562) scale(0.1 -0.1)">
      <defs>
       <path id="DejaVuSans-70" d="M 1159 525 
L 1159 -1331 
L 581 -1331 
L 581 3500 
L 1159 3500 
L 1159 2969 
Q 1341 3281 1617 3432 
Q 1894 3584 2278 3584 
Q 2916 3584 3314 3078 
Q 3713 2572 3713 1747 
Q 3713 922 3314 415 
Q 2916 -91 2278 -91 
Q 1894 -91 1617 61 
Q 1341 213 1159 525 
z
M 3116 1747 
Q 3116 2381 2855 2742 
Q 2594 3103 2138 3103 
Q 1681 3103 1420 2742 
Q 1159 2381 1159 1747 
Q 1159 1113 1420 752 
Q 1681 391 2138 391 
Q 2594 391 2855 752 
Q 3116 1113 3116 1747 
z
" transform="scale(0.015625)"/>
       <path id="DejaVuSans-69" d="M 603 3500 
L 1178 3500 
L 1178 0 
L 603 0 
L 603 3500 
z
M 603 4863 
L 1178 4863 
L 1178 4134 
L 603 4134 
L 603 4863 
z
" transform="scale(0.015625)"/>
       <path id="DejaVuSans-63" d="M 3122 3366 
L 3122 2828 
Q 2878 2963 2633 3030 
Q 2388 3097 2138 3097 
Q 1578 3097 1268 2742 
Q 959 2388 959 1747 
Q 959 1106 1268 751 
Q 1578 397 2138 397 
Q 2388 397 2633 464 
Q 2878 531 3122 666 
L 3122 134 
Q 2881 22 2623 -34 
Q 2366 -91 2075 -91 
Q 1284 -91 818 406 
Q 353 903 353 1747 
Q 353 2603 823 3093 
Q 1294 3584 2113 3584 
Q 2378 3584 2631 3529 
Q 2884 3475 3122 3366 
z
" transform="scale(0.015625)"/>
      </defs>
      <use xlink:href="#DejaVuSans-70"/>
      <use xlink:href="#DejaVuSans-72" x="63.476562"/>
      <use xlink:href="#DejaVuSans-65" x="102.339844"/>
      <use xlink:href="#DejaVuSans-64" x="163.863281"/>
      <use xlink:href="#DejaVuSans-69" x="227.339844"/>
      <use xlink:href="#DejaVuSans-63" x="255.123047"/>
      <use xlink:href="#DejaVuSans-74" x="310.103516"/>
      <use xlink:href="#DejaVuSans-65" x="349.3125"/>
      <use xlink:href="#DejaVuSans-64" x="410.835938"/>
     </g>
    </g>
   </g>
  </g>
 </g>
 <defs>
  <clipPath id="p1afba9a2c2">
   <rect x="90" y="43.2" width="558" height="244.8"/>
  </clipPath>
 </defs>
</svg>
