<?xml version="1.0" encoding="utf-8" standalone="no"?>
<!DOCTYPE svg PUBLIC "-//W3C//DTD SVG 1.1//EN"
  "http://www.w3.org/Graphics/SVG/1.1/DTD/svg11.dtd">
<svg xmlns:xlink="http://www.w3.org/1999/xlink" width="712.96pt" height="351.43625pt" viewBox="0 0 712.96 351.43625" xmlns="http://www.w3.org/2000/svg" version="1.1">
 <metadata>
  <rdf:RDF xmlns:dc="http://purl.org/dc/elements/1.1/" xmlns:cc="http://creativecommons.org/ns#" xmlns:rdf="http://www.w3.org/1999/02/22-rdf-syntax-ns#">
   <cc:Work>
    <dc:type rdf:resource="http://purl.org/dc/dcmitype/StillImage"/>
    <dc:date>2024-05-10T20:27:14.775289</dc:date>
    <dc:format>image/svg+xml</dc:format>
    <dc:creator>
     <cc:Agent>
      <dc:title>Matplotlib v3.8.4, https://matplotlib.org/</dc:title>
     </cc:Agent>
    </dc:creator>
   </cc:Work>
  </rdf:RDF>
 </metadata>
 <defs>
  <style type="text/css">*{stroke-linejoin: round; stroke-linecap: butt}</style>
 </defs>
 <g id="figure_1">
  <g id="patch_1">
   <path d="M 0 351.43625 
L 712.96 351.43625 
L 712.96 0 
L 0 0 
z
" style="fill: #ffffff"/>
  </g>
  <g id="axes_1">
   <g id="patch_2">
    <path d="M 39.65 327.558125 
L 705.76 327.558125 
L 705.76 22.318125 
L 39.65 22.318125 
z
" style="fill: #ffffff"/>
   </g>
   <g id="matplotlib.axis_1">
    <g id="xtick_1">
     <g id="line2d_1">
      <defs>
       <path id="m50dc0003e4" d="M 0 0 
L 0 3.5 
" style="stroke: #000000; stroke-width: 0.8"/>
      </defs>
      <g>
       <use xlink:href="#m50dc0003e4" x="85.390257" y="327.558125" style="stroke: #000000; stroke-width: 0.8"/>
      </g>
     </g>
     <g id="text_1">
      <!-- 2010 -->
      <g transform="translate(72.665257 342.156563) scale(0.1 -0.1)">
       <defs>
        <path id="DejaVuSans-32" d="M 1228 531 
L 3431 531 
L 3431 0 
L 469 0 
L 469 531 
Q 828 903 1448 1529 
Q 2069 2156 2228 2338 
Q 2531 2678 2651 2914 
Q 2772 3150 2772 3378 
Q 2772 3750 2511 3984 
Q 2250 4219 1831 4219 
Q 1534 4219 1204 4116 
Q 875 4013 500 3803 
L 500 4441 
Q 881 4594 1212 4672 
Q 1544 4750 1819 4750 
Q 2544 4750 2975 4387 
Q 3406 4025 3406 3419 
Q 3406 3131 3298 2873 
Q 3191 2616 2906 2266 
Q 2828 2175 2409 1742 
Q 1991 1309 1228 531 
z
" transform="scale(0.015625)"/>
        <path id="DejaVuSans-30" d="M 2034 4250 
Q 1547 4250 1301 3770 
Q 1056 3291 1056 2328 
Q 1056 1369 1301 889 
Q 1547 409 2034 409 
Q 2525 409 2770 889 
Q 3016 1369 3016 2328 
Q 3016 3291 2770 3770 
Q 2525 4250 2034 4250 
z
M 2034 4750 
Q 2819 4750 3233 4129 
Q 3647 3509 3647 2328 
Q 3647 1150 3233 529 
Q 2819 -91 2034 -91 
Q 1250 -91 836 529 
Q 422 1150 422 2328 
Q 422 3509 836 4129 
Q 1250 4750 2034 4750 
z
" transform="scale(0.015625)"/>
        <path id="DejaVuSans-31" d="M 794 531 
L 1825 531 
L 1825 4091 
L 703 3866 
L 703 4441 
L 1819 4666 
L 2450 4666 
L 2450 531 
L 3481 531 
L 3481 0 
L 794 0 
L 794 531 
z
" transform="scale(0.015625)"/>
       </defs>
       <use xlink:href="#DejaVuSans-32"/>
       <use xlink:href="#DejaVuSans-30" x="63.623047"/>
       <use xlink:href="#DejaVuSans-31" x="127.246094"/>
       <use xlink:href="#DejaVuSans-30" x="190.869141"/>
      </g>
     </g>
    </g>
    <g id="xtick_2">
     <g id="line2d_2">
      <g>
       <use xlink:href="#m50dc0003e4" x="181.421283" y="327.558125" style="stroke: #000000; stroke-width: 0.8"/>
      </g>
     </g>
     <g id="text_2">
      <!-- 2012 -->
      <g transform="translate(168.696283 342.156563) scale(0.1 -0.1)">
       <use xlink:href="#DejaVuSans-32"/>
       <use xlink:href="#DejaVuSans-30" x="63.623047"/>
       <use xlink:href="#DejaVuSans-31" x="127.246094"/>
       <use xlink:href="#DejaVuSans-32" x="190.869141"/>
      </g>
     </g>
    </g>
    <g id="xtick_3">
     <g id="line2d_3">
      <g>
       <use xlink:href="#m50dc0003e4" x="277.583857" y="327.558125" style="stroke: #000000; stroke-width: 0.8"/>
      </g>
     </g>
     <g id="text_3">
      <!-- 2014 -->
      <g transform="translate(264.858857 342.156563) scale(0.1 -0.1)">
       <defs>
        <path id="DejaVuSans-34" d="M 2419 4116 
L 825 1625 
L 2419 1625 
L 2419 4116 
z
M 2253 4666 
L 3047 4666 
L 3047 1625 
L 3713 1625 
L 3713 1100 
L 3047 1100 
L 3047 0 
L 2419 0 
L 2419 1100 
L 313 1100 
L 313 1709 
L 2253 4666 
z
" transform="scale(0.015625)"/>
       </defs>
       <use xlink:href="#DejaVuSans-32"/>
       <use xlink:href="#DejaVuSans-30" x="63.623047"/>
       <use xlink:href="#DejaVuSans-31" x="127.246094"/>
       <use xlink:href="#DejaVuSans-34" x="190.869141"/>
      </g>
     </g>
    </g>
    <g id="xtick_4">
     <g id="line2d_4">
      <g>
       <use xlink:href="#m50dc0003e4" x="373.614883" y="327.558125" style="stroke: #000000; stroke-width: 0.8"/>
      </g>
     </g>
     <g id="text_4">
      <!-- 2016 -->
      <g transform="translate(360.889883 342.156563) scale(0.1 -0.1)">
       <defs>
        <path id="DejaVuSans-36" d="M 2113 2584 
Q 1688 2584 1439 2293 
Q 1191 2003 1191 1497 
Q 1191 994 1439 701 
Q 1688 409 2113 409 
Q 2538 409 2786 701 
Q 3034 994 3034 1497 
Q 3034 2003 2786 2293 
Q 2538 2584 2113 2584 
z
M 3366 4563 
L 3366 3988 
Q 3128 4100 2886 4159 
Q 2644 4219 2406 4219 
Q 1781 4219 1451 3797 
Q 1122 3375 1075 2522 
Q 1259 2794 1537 2939 
Q 1816 3084 2150 3084 
Q 2853 3084 3261 2657 
Q 3669 2231 3669 1497 
Q 3669 778 3244 343 
Q 2819 -91 2113 -91 
Q 1303 -91 875 529 
Q 447 1150 447 2328 
Q 447 3434 972 4092 
Q 1497 4750 2381 4750 
Q 2619 4750 2861 4703 
Q 3103 4656 3366 4563 
z
" transform="scale(0.015625)"/>
       </defs>
       <use xlink:href="#DejaVuSans-32"/>
       <use xlink:href="#DejaVuSans-30" x="63.623047"/>
       <use xlink:href="#DejaVuSans-31" x="127.246094"/>
       <use xlink:href="#DejaVuSans-36" x="190.869141"/>
      </g>
     </g>
    </g>
    <g id="xtick_5">
     <g id="line2d_5">
      <g>
       <use xlink:href="#m50dc0003e4" x="469.777458" y="327.558125" style="stroke: #000000; stroke-width: 0.8"/>
      </g>
     </g>
     <g id="text_5">
      <!-- 2018 -->
      <g transform="translate(457.052458 342.156563) scale(0.1 -0.1)">
       <defs>
        <path id="DejaVuSans-38" d="M 2034 2216 
Q 1584 2216 1326 1975 
Q 1069 1734 1069 1313 
Q 1069 891 1326 650 
Q 1584 409 2034 409 
Q 2484 409 2743 651 
Q 3003 894 3003 1313 
Q 3003 1734 2745 1975 
Q 2488 2216 2034 2216 
z
M 1403 2484 
Q 997 2584 770 2862 
Q 544 3141 544 3541 
Q 544 4100 942 4425 
Q 1341 4750 2034 4750 
Q 2731 4750 3128 4425 
Q 3525 4100 3525 3541 
Q 3525 3141 3298 2862 
Q 3072 2584 2669 2484 
Q 3125 2378 3379 2068 
Q 3634 1759 3634 1313 
Q 3634 634 3220 271 
Q 2806 -91 2034 -91 
Q 1263 -91 848 271 
Q 434 634 434 1313 
Q 434 1759 690 2068 
Q 947 2378 1403 2484 
z
M 1172 3481 
Q 1172 3119 1398 2916 
Q 1625 2713 2034 2713 
Q 2441 2713 2670 2916 
Q 2900 3119 2900 3481 
Q 2900 3844 2670 4047 
Q 2441 4250 2034 4250 
Q 1625 4250 1398 4047 
Q 1172 3844 1172 3481 
z
" transform="scale(0.015625)"/>
       </defs>
       <use xlink:href="#DejaVuSans-32"/>
       <use xlink:href="#DejaVuSans-30" x="63.623047"/>
       <use xlink:href="#DejaVuSans-31" x="127.246094"/>
       <use xlink:href="#DejaVuSans-38" x="190.869141"/>
      </g>
     </g>
    </g>
    <g id="xtick_6">
     <g id="line2d_6">
      <g>
       <use xlink:href="#m50dc0003e4" x="565.808483" y="327.558125" style="stroke: #000000; stroke-width: 0.8"/>
      </g>
     </g>
     <g id="text_6">
      <!-- 2020 -->
      <g transform="translate(553.083483 342.156563) scale(0.1 -0.1)">
       <use xlink:href="#DejaVuSans-32"/>
       <use xlink:href="#DejaVuSans-30" x="63.623047"/>
       <use xlink:href="#DejaVuSans-32" x="127.246094"/>
       <use xlink:href="#DejaVuSans-30" x="190.869141"/>
      </g>
     </g>
    </g>
    <g id="xtick_7">
     <g id="line2d_7">
      <g>
       <use xlink:href="#m50dc0003e4" x="661.971058" y="327.558125" style="stroke: #000000; stroke-width: 0.8"/>
      </g>
     </g>
     <g id="text_7">
      <!-- 2022 -->
      <g transform="translate(649.246058 342.156563) scale(0.1 -0.1)">
       <use xlink:href="#DejaVuSans-32"/>
       <use xlink:href="#DejaVuSans-30" x="63.623047"/>
       <use xlink:href="#DejaVuSans-32" x="127.246094"/>
       <use xlink:href="#DejaVuSans-32" x="190.869141"/>
      </g>
     </g>
    </g>
   </g>
   <g id="matplotlib.axis_2">
    <g id="ytick_1">
     <g id="line2d_8">
      <defs>
       <path id="m178844f606" d="M 0 0 
L -3.5 0 
" style="stroke: #000000; stroke-width: 0.8"/>
      </defs>
      <g>
       <use xlink:href="#m178844f606" x="39.65" y="313.68358" style="stroke: #000000; stroke-width: 0.8"/>
      </g>
     </g>
     <g id="text_8">
      <!-- 0 -->
      <g transform="translate(26.2875 317.482798) scale(0.1 -0.1)">
       <use xlink:href="#DejaVuSans-30"/>
      </g>
     </g>
    </g>
    <g id="ytick_2">
     <g id="line2d_9">
      <g>
       <use xlink:href="#m178844f606" x="39.65" y="251.53556" style="stroke: #000000; stroke-width: 0.8"/>
      </g>
     </g>
     <g id="text_9">
      <!-- 2000 -->
      <g transform="translate(7.2 255.334778) scale(0.1 -0.1)">
       <use xlink:href="#DejaVuSans-32"/>
       <use xlink:href="#DejaVuSans-30" x="63.623047"/>
       <use xlink:href="#DejaVuSans-30" x="127.246094"/>
       <use xlink:href="#DejaVuSans-30" x="190.869141"/>
      </g>
     </g>
    </g>
    <g id="ytick_3">
     <g id="line2d_10">
      <g>
       <use xlink:href="#m178844f606" x="39.65" y="189.38754" style="stroke: #000000; stroke-width: 0.8"/>
      </g>
     </g>
     <g id="text_10">
      <!-- 4000 -->
      <g transform="translate(7.2 193.186758) scale(0.1 -0.1)">
       <use xlink:href="#DejaVuSans-34"/>
       <use xlink:href="#DejaVuSans-30" x="63.623047"/>
       <use xlink:href="#DejaVuSans-30" x="127.246094"/>
       <use xlink:href="#DejaVuSans-30" x="190.869141"/>
      </g>
     </g>
    </g>
    <g id="ytick_4">
     <g id="line2d_11">
      <g>
       <use xlink:href="#m178844f606" x="39.65" y="127.23952" style="stroke: #000000; stroke-width: 0.8"/>
      </g>
     </g>
     <g id="text_11">
      <!-- 6000 -->
      <g transform="translate(7.2 131.038738) scale(0.1 -0.1)">
       <use xlink:href="#DejaVuSans-36"/>
       <use xlink:href="#DejaVuSans-30" x="63.623047"/>
       <use xlink:href="#DejaVuSans-30" x="127.246094"/>
       <use xlink:href="#DejaVuSans-30" x="190.869141"/>
      </g>
     </g>
    </g>
    <g id="ytick_5">
     <g id="line2d_12">
      <g>
       <use xlink:href="#m178844f606" x="39.65" y="65.0915" style="stroke: #000000; stroke-width: 0.8"/>
      </g>
     </g>
     <g id="text_12">
      <!-- 8000 -->
      <g transform="translate(7.2 68.890718) scale(0.1 -0.1)">
       <use xlink:href="#DejaVuSans-38"/>
       <use xlink:href="#DejaVuSans-30" x="63.623047"/>
       <use xlink:href="#DejaVuSans-30" x="127.246094"/>
       <use xlink:href="#DejaVuSans-30" x="190.869141"/>
      </g>
     </g>
    </g>
   </g>
   <g id="line2d_13">
    <path d="M 69.927727 313.637512 
L 70.16342 313.638211 
L 71.884524 313.536599 
L 72.027036 313.505525 
L 72.087329 313.461556 
L 72.098292 313.589658 
L 72.109254 313.591989 
L 72.131179 313.503739 
L 72.147623 312.885754 
L 72.235322 313.56107 
L 72.427165 313.646291 
L 72.564195 313.621509 
L 72.575158 313.405623 
L 72.67382 313.609934 
L 73.013656 313.660896 
L 73.320604 313.601233 
L 73.430229 313.267188 
L 73.446672 313.38892 
L 73.731696 313.669907 
L 73.967389 313.678608 
L 73.97287 313.662527 
L 74.060569 313.443688 
L 74.093457 313.520519 
L 74.246931 313.663537 
L 74.257893 313.654448 
L 74.263375 313.609623 
L 74.285299 310.966157 
L 74.372999 245.942238 
L 74.444255 292.72416 
L 74.641579 310.405271 
L 74.849865 312.660468 
L 75.00334 313.166197 
L 75.025265 312.846135 
L 75.080077 300.360598 
L 75.189701 307.40663 
L 75.195182 307.344482 
L 75.222589 308.206785 
L 75.447319 312.348951 
L 75.661086 313.214362 
L 76.044772 313.483774 
L 76.132472 313.417042 
L 76.143434 313.032579 
L 76.165359 284.435168 
L 76.209209 244.155482 
L 76.269502 294.231249 
L 76.422976 308.836034 
L 76.560007 311.892163 
L 76.576451 310.823217 
L 76.625782 278.026153 
L 76.708 303.312629 
L 76.877918 310.46742 
L 77.042355 312.374587 
L 77.058798 311.92246 
L 77.086204 299.910025 
L 77.179385 219.762384 
L 77.223235 252.545465 
L 77.360266 304.13609 
L 77.584996 309.978004 
L 77.826169 312.226208 
L 78.028975 312.751359 
L 78.034456 312.746698 
L 78.039937 312.720285 
L 78.100231 312.971985 
L 78.303036 313.369732 
L 78.313998 313.329336 
L 78.31948 313.313799 
L 78.379773 313.398631 
L 78.401698 313.398631 
L 78.631909 313.470101 
L 78.642872 313.400728 
L 78.68124 313.114148 
L 78.757977 313.309138 
L 79.075888 313.434987 
L 79.317062 313.370742 
L 79.333506 312.087929 
L 79.481499 269.946911 
L 79.525349 289.274945 
L 79.596604 303.087342 
L 79.662379 301.238439 
L 79.837778 308.105795 
L 80.084433 312.049087 
L 80.418788 313.075306 
L 80.42975 313.044232 
L 80.457156 313.032579 
L 80.511969 313.102496 
L 80.51745 313.102496 
L 81.312227 313.530307 
L 81.893237 313.628268 
L 81.898718 313.592843 
L 81.959012 313.518887 
L 81.926124 313.636813 
L 82.013824 313.57148 
L 82.063155 313.562391 
L 82.052192 313.619101 
L 82.117967 313.59968 
L 82.375585 313.515547 
L 82.44684 313.137454 
L 82.49069 313.399641 
L 82.496171 313.475617 
L 82.523578 312.967324 
L 83.011406 313.468237 
L 83.016888 313.458138 
L 83.11555 313.512362 
L 83.175843 313.574121 
L 83.181324 313.55268 
L 84.288531 313.574976 
L 84.310456 312.86944 
L 84.343344 301.347198 
L 84.403637 244.233167 
L 84.46393 289.601222 
L 84.474893 291.0617 
L 84.496818 281.079175 
L 84.55163 234.522539 
L 84.600961 284.240955 
L 84.737992 305.246986 
L 84.896947 310.1023 
L 84.951759 309.566273 
L 84.957241 309.201154 
L 85.033978 311.051611 
L 85.061384 312.495776 
L 85.121677 310.966934 
L 85.209377 311.963633 
L 85.286114 312.362934 
L 87.41831 312.720285 
L 87.423791 312.681443 
L 87.55534 311.501407 
L 87.993838 304.019562 
L 88.026725 304.710959 
L 88.1802 309.208922 
L 88.388486 311.377888 
L 88.399449 311.307195 
L 88.415892 307.235722 
L 88.492629 239.494381 
L 88.54196 285.336314 
L 88.684472 306.396724 
L 88.837946 310.195522 
L 92.132161 304.190469 
L 92.219861 254.254535 
L 92.263711 232.269673 
L 92.30756 271.345241 
L 92.389779 298.076658 
L 93.398324 312.771557 
L 93.431211 312.742037 
L 93.442174 312.731161 
L 94.258876 311.994707 
L 94.379463 308.051415 
L 94.505531 295.878172 
L 94.538418 267.383305 
L 94.609674 300.811171 
L 94.774111 308.952562 
L 94.801517 308.843802 
L 94.900179 306.932751 
L 94.987878 308.035878 
L 95.333195 311.363905 
L 95.716881 312.549378 
L 95.766212 312.247183 
L 95.908724 307.989267 
L 95.974499 297.835834 
L 96.029311 304.944014 
L 96.221154 310.117837 
L 96.369147 311.036851 
L 96.391072 310.983248 
L 96.456846 310.296512 
L 96.511658 310.874489 
L 96.703501 311.924791 
L 96.708982 311.901485 
L 96.736389 311.590745 
L 96.774757 307.165806 
L 96.791201 305.138227 
L 96.873419 309.42644 
L 97.065262 311.514614 
L 97.405098 312.698533 
L 97.481835 312.671344 
L 97.520203 310.338462 
L 97.575016 307.530926 
L 97.629828 309.729412 
L 97.761377 311.412846 
L 97.777821 311.185229 
L 97.881964 302.916435 
L 97.898408 276.006342 
L 97.986107 306.163669 
L 98.051882 308.478683 
L 98.073807 305.814087 
L 98.112176 257.051196 
L 98.183431 301.238439 
L 98.347868 308.929256 
L 98.62741 311.335938 
L 99.246789 312.613857 
L 99.411225 312.698533 
L 99.614031 312.808846 
L 99.756542 312.88187 
L 99.822317 312.836813 
L 99.866167 312.88187 
L 99.997716 312.937803 
L 100.145709 312.828267 
L 100.211484 312.339629 
L 100.304665 287.076459 
L 100.359477 300.76456 
L 100.386883 231.881248 
L 100.441695 157.692049 
L 100.501989 218.752479 
L 100.666425 297.633853 
L 101.159735 310.04792 
L 101.170698 308.300007 
L 101.203585 282.182302 
L 101.285804 305.371282 
L 101.31321 306.567631 
L 101.340616 302.559084 
L 101.384466 280.745129 
L 101.45024 301.292818 
L 101.499571 293.283492 
L 101.559865 300.290681 
L 101.724301 310.249901 
L 101.932588 312.100359 
L 102.458785 312.931589 
L 102.464267 312.859341 
L 102.48071 310.879927 
L 102.584853 234.056429 
L 102.628703 287.301745 
L 102.683515 301.347198 
L 102.732846 283.114522 
L 102.738328 281.755034 
L 102.776696 297.276502 
L 102.804102 302.0619 
L 102.820546 290.346998 
L 102.880839 232.114303 
L 102.93017 286.812329 
L 103.067201 306.10929 
L 103.127494 307.546463 
L 103.154901 305.231449 
L 103.19875 295.769413 
L 103.270006 303.895266 
L 103.297412 302.605695 
L 103.341262 304.951783 
L 103.352225 305.114921 
L 103.368668 303.491304 
L 103.385112 300.780097 
L 103.461849 306.567631 
L 103.637248 311.114536 
L 103.713985 311.617158 
L 103.730429 311.407408 
L 103.757835 300.818939 
L 103.774279 295.155701 
L 103.856497 304.594432 
L 104.04834 310.459651 
L 104.344326 312.551709 
L 104.481357 312.832152 
L 104.492319 312.788648 
L 104.930817 313.217469 
L 105.39124 313.322344 
L 105.418646 313.351088 
L 105.429608 313.254758 
L 105.462495 308.64959 
L 105.495383 286.058785 
L 105.57212 308.113563 
L 105.725594 312.300786 
L 105.955806 313.111818 
L 105.961287 313.107157 
L 106.06543 313.034133 
L 106.081874 313.068314 
L 106.24631 313.273403 
L 106.251792 313.282725 
L 106.262754 310.330694 
L 106.37786 269.4808 
L 106.399785 284.776982 
L 106.536815 309.838171 
L 106.706733 312.24796 
L 106.821839 312.641823 
L 106.843764 312.447611 
L 106.87117 311.937997 
L 106.986275 302.341566 
L 106.991757 302.776602 
L 107.013682 300.181922 
L 107.205524 311.533258 
L 107.254855 311.59696 
L 107.446698 312.712517 
L 107.654985 313.157652 
L 107.67691 313.021703 
L 107.715278 293.027131 
L 107.797496 309.193385 
L 107.967414 312.327199 
L 108.241475 313.173966 
L 108.329175 313.233783 
L 108.411393 313.170858 
L 108.466206 313.280394 
L 108.592274 313.294378 
L 108.597755 313.285055 
L 108.603236 313.268742 
L 108.674492 313.39397 
L 109.123952 313.503894 
L 109.765255 313.561769 
L 109.891324 313.493407 
L 109.946136 313.268742 
L 110.006429 313.408031 
L 110.127016 313.488901 
L 110.14346 313.407953 
L 110.170866 312.508205 
L 110.192791 296.631717 
L 110.28049 311.844775 
L 110.444927 313.167751 
L 110.614845 313.355749 
L 110.625807 313.347203 
L 110.675138 313.340212 
L 110.729951 313.382006 
L 110.823131 313.427763 
L 110.828613 313.436852 
L 110.965643 313.459536 
L 111.327404 313.48657 
L 111.595984 310.601815 
L 111.612428 311.559671 
L 111.733014 313.104049 
L 111.738496 312.456156 
L 111.80427 271.811351 
L 111.820714 261.945353 
L 111.881007 301.797771 
L 111.946782 295.769413 
L 112.029001 309.597347 
L 112.198918 312.491891 
L 112.352393 313.198825 
L 112.357874 312.998398 
L 112.401724 299.436146 
L 112.418167 289.694444 
L 112.500386 308.59521 
L 112.664822 312.439065 
L 112.949846 313.33089 
L 112.977252 313.236114 
L 113.037546 313.386046 
L 113.086877 313.427685 
L 113.097839 313.272626 
L 113.14717 303.506841 
L 113.163614 287.84554 
L 113.251313 306.808455 
L 113.399306 312.348174 
L 113.59663 313.188726 
L 113.974835 313.498689 
L 114.166677 313.479423 
L 114.753168 313.589581 
L 115.021748 313.620499 
L 115.909706 313.562702 
L 115.931631 312.300009 
L 115.980962 273.520422 
L 116.057699 307.927119 
L 116.216655 312.270489 
L 116.424941 313.195718 
L 116.627747 313.456118 
L 116.994988 313.555244 
L 117.400599 313.533803 
L 117.521186 312.623956 
L 117.581479 313.15066 
L 117.641773 313.292047 
L 117.663698 313.092397 
L 117.680141 312.838366 
L 117.76236 313.326228 
L 117.965165 313.539396 
L 118.699649 313.529375 
L 118.710611 309.709214 
L 118.74898 252.234725 
L 118.820236 303.382545 
L 119.001116 311.928675 
L 119.209403 313.045009 
L 119.390283 313.292047 
L 119.664344 313.464663 
L 119.795893 313.433123 
L 119.801375 313.409662 
L 119.828781 312.637162 
L 119.850706 294.138027 
L 119.867149 275.850972 
L 119.949368 307.259028 
L 120.113804 312.167168 
L 120.14121 312.459264 
L 120.152173 311.908477 
L 120.190541 270.956816 
L 120.206985 256.740456 
L 120.283722 293.50101 
L 120.437196 309.146774 
L 120.464603 308.564136 
L 120.508452 309.931393 
L 120.667408 312.185812 
L 120.683851 312.053748 
L 120.705776 311.843998 
L 120.76607 312.334968 
L 120.941469 312.903622 
L 121.275824 313.254758 
L 122.037714 313.459536 
L 122.317256 313.358856 
L 122.3337 313.308361 
L 122.42688 313.37183 
L 122.870859 313.424112 
L 124.126059 313.533803 
L 124.290496 313.528209 
L 124.449452 313.522616 
L 124.61937 313.526656 
L 124.657738 310.107738 
L 124.668701 306.653085 
L 124.761881 312.959555 
L 124.915356 313.398942 
L 124.920837 313.39397 
L 125.600508 313.510808 
L 125.912938 313.532404 
L 125.945825 313.492474 
L 126.071894 313.536599 
L 126.510391 313.533803 
L 126.954371 313.42955 
L 127.135251 313.015488 
L 127.162657 313.111818 
L 127.370943 313.416654 
L 127.540861 313.471266 
L 127.738185 313.442134 
L 128.269864 313.492474 
L 128.543925 313.383948 
L 128.664512 312.226985 
L 128.724806 312.863226 
L 128.911167 313.324675 
L 129.130416 313.409196 
L 129.196191 313.3037 
L 129.245522 313.111818 
L 129.322259 313.229122 
L 129.601801 313.409196 
L 133.192002 313.317683 
L 133.350958 312.420421 
L 133.394807 292.226976 
L 133.487988 308.486451 
L 133.625019 312.551709 
L 133.6305 312.491114 
L 133.668869 312.010244 
L 133.734643 312.475577 
L 133.866193 313.100942 
L 133.893599 313.044232 
L 133.89908 312.96577 
L 133.910042 313.238444 
L 133.992261 313.194164 
L 134.025148 313.134346 
L 134.036111 313.280394 
L 134.085442 313.358856 
L 134.058035 313.266411 
L 134.140254 313.268742 
L 134.151216 313.245436 
L 134.16766 313.414712 
L 134.200547 313.385968 
L 134.343059 313.495582 
L 134.354021 313.489134 
L 134.545864 313.40337 
L 134.551345 313.431259 
L 134.600676 313.502884 
L 134.61712 313.457827 
L 137.516687 313.39397 
L 138.179915 312.934696 
L 138.185396 313.003059 
L 138.273096 313.357069 
L 138.300502 313.259419 
L 138.739 313.381385 
L 138.755443 313.42753 
L 138.766406 313.344873 
L 138.815737 313.315353 
L 138.854105 313.22213 
L 138.908918 313.360954 
L 138.91988 313.337104 
L 139.133648 313.236114 
L 139.166535 313.331666 
L 139.221347 312.339629 
L 139.517333 276.860878 
L 139.550221 287.286208 
L 139.561183 289.508 
L 139.599552 270.257651 
L 139.610514 268.315525 
L 139.659845 286.656959 
L 139.824282 307.165806 
L 140.005162 311.980724 
L 140.13123 312.500437 
L 140.147674 312.17416 
L 140.213449 297.664927 
L 140.295667 307.569768 
L 140.454623 312.039764 
L 140.66839 313.162313 
L 140.684834 313.075306 
L 140.706759 312.816615 
L 140.767052 310.945959 
L 140.832827 312.204457 
L 140.871195 312.252621 
L 140.898602 312.100359 
L 140.997264 310.351669 
L 141.030151 293.835056 
L 141.112369 212.071567 
L 141.1617 271.189871 
L 141.29325 302.046363 
L 141.550867 309.63619 
L 141.671454 310.987909 
L 141.682416 310.072003 
L 141.74271 291.496736 
L 141.808485 304.625506 
L 141.983884 310.397503 
L 142.170245 311.617158 
L 142.186689 311.495192 
L 142.208614 308.199017 
L 142.263426 292.397883 
L 142.329201 302.629 
L 142.499119 309.550736 
L 142.723849 311.511506 
L 142.893767 312.223101 
L 142.95406 312.109681 
L 143.003391 311.934113 
L 143.140422 308.913719 
L 143.184272 310.994124 
L 143.348708 312.157846 
L 143.546032 312.459264 
L 143.650176 312.617741 
L 143.677582 312.524519 
L 143.770762 312.238638 
L 143.820093 312.355942 
L 144.077711 312.617741 
L 144.132523 312.495776 
L 144.203779 311.875072 
L 144.25311 312.318654 
L 144.362734 312.708632 
L 144.395622 312.559477 
L 144.461397 311.201543 
L 144.52169 310.784374 
L 144.571021 311.219411 
L 145.069812 312.760681 
L 145.300024 312.86944 
L 145.661784 313.075306 
L 145.672747 313.015488 
L 145.700153 312.247183 
L 145.744003 304.936246 
L 145.82074 310.622013 
L 145.990658 312.360604 
L 146.04547 312.524519 
L 146.198944 312.807292 
L 146.264719 312.508982 
L 146.368862 312.637939 
L 146.429156 312.704748 
L 146.434637 312.622402 
L 146.45108 311.571324 
L 146.544261 312.520635 
L 146.768991 313.012381 
L 146.960834 313.114925 
L 147.125271 313.184065 
L 147.147196 313.098611 
L 147.163639 311.662215 
L 147.21297 293.205807 
L 147.289708 306.723001 
L 147.503475 311.576762 
L 147.656949 312.300786 
L 147.678874 311.927898 
L 147.75013 309.589579 
L 147.804942 311.078024 
L 147.97486 312.409545 
L 148.073522 312.474801 
L 148.079004 312.455379 
L 148.100929 308.346618 
L 148.139297 265.285809 
L 148.216034 302.0619 
L 148.407877 310.604922 
L 148.484614 311.34526 
L 148.506539 310.566079 
L 148.621645 303.623369 
L 148.654532 305.658716 
L 148.851856 311.048503 
L 149.032736 312.004806 
L 149.301316 312.630171 
L 149.350647 312.602204 
L 149.493159 312.712517 
L 149.712408 312.919159 
L 149.789145 312.925374 
L 149.761739 312.990629 
L 149.81107 312.959555 
L 149.887807 312.909837 
L 149.920695 312.934696 
L 150.107056 313.036463 
L 150.189274 313.080744 
L 150.227643 313.058992 
L 150.238605 313.011604 
L 150.249568 313.109487 
L 150.326305 313.111818 
L 150.353711 313.145999 
L 150.39208 313.058992 
L 150.441411 313.102496 
L 151.055308 313.132016 
L 151.806235 313.199602 
L 151.833641 310.307388 
L 151.855566 307.189111 
L 151.937785 310.858952 
L 152.047409 312.57113 
L 152.080296 311.958972 
L 152.129627 312.195134 
L 152.14059 302.815445 
L 152.146071 301.432651 
L 152.217327 310.740094 
L 152.376282 312.676782 
L 152.381764 312.65736 
L 152.403689 310.548989 
L 152.458501 245.320758 
L 152.562644 278.492263 
L 152.705156 305.891772 
L 152.90248 310.981694 
L 152.907961 310.775052 
L 152.924405 308.400998 
L 152.990179 310.896241 
L 153.017585 310.656194 
L 153.220391 312.704748 
L 153.280684 312.807292 
L 153.324534 312.760681 
L 153.467046 313.090066 
L 153.483489 313.068314 
L 153.554745 313.157652 
L 153.8014 313.310691 
L 153.806882 313.30603 
L 153.921987 313.335551 
L 153.927468 313.344873 
L 154.130274 313.445553 
L 154.69484 313.379909 
L 154.755133 313.301369 
L 154.798983 313.405312 
L 154.946976 313.4527 
L 154.952457 313.425588 
L 154.96342 313.069868 
L 155.062082 313.464663 
L 155.478655 313.490843 
L 155.517023 310.276314 
L 155.527986 307.476546 
L 155.621166 311.506068 
L 155.747234 312.54394 
L 155.665016 311.413623 
L 155.752716 312.498883 
L 155.769159 311.593076 
L 155.856859 312.870217 
L 156.054183 313.340212 
L 156.372094 313.466372 
L 156.739336 313.391173 
L 156.75578 309.984996 
L 156.788667 271.733666 
L 156.865404 305.324671 
L 157.029841 312.058409 
L 157.260052 313.065207 
L 157.561519 313.395834 
L 157.583444 313.299039 
L 157.632775 312.57113 
L 157.704031 313.177073 
L 157.736918 313.155321 
L 157.906836 313.399563 
L 158.871532 313.613042 
L 158.887975 313.4527 
L 159.008562 313.573655 
L 159.918445 313.656545 
L 160.093844 313.657167 
L 160.992765 313.666489 
L 161.15172 313.600224 
L 161.157202 313.532327 
L 161.255864 313.620499 
L 161.261345 313.618635 
L 161.316157 313.645669 
L 174.493017 313.578239 
L 174.531385 313.519664 
L 174.602641 313.593931 
L 174.77804 313.642873 
L 175.13432 313.671461 
L 177.129485 313.586007 
L 177.145929 313.510808 
L 177.23911 313.587405 
L 178.154474 313.655924 
L 179.195906 313.56511 
L 179.223312 313.128132 
L 179.239756 309.589579 
L 179.332937 312.750582 
L 179.513817 313.457827 
L 179.826247 313.600224 
L 179.864615 313.424966 
L 179.88654 310.952174 
L 179.935871 285.025574 
L 180.007127 305.130458 
L 180.177045 311.957418 
L 180.374369 313.034133 
L 180.396294 313.077636 
L 181.240402 313.510808 
L 181.996811 313.611099 
L 182.03518 313.590668 
L 182.111917 313.605273 
L 185.899442 313.508788 
L 185.915885 311.524713 
L 185.93781 298.597148 
L 186.030991 306.194743 
L 186.261202 311.671537 
L 186.491414 312.884977 
L 186.710663 313.177073 
L 187.32456 313.39195 
L 187.54929 313.012381 
L 187.59314 312.816615 
L 187.664396 312.959555 
L 188.22348 313.435065 
L 188.365992 313.472898 
L 189.127882 313.579482 
L 189.242988 313.533803 
L 189.528011 313.574821 
L 190.415969 313.471189 
L 190.448857 313.173966 
L 190.563962 313.369732 
L 190.750324 313.44563 
L 190.755805 313.440425 
L 190.794174 313.028695 
L 190.854467 305.448967 
L 190.942167 310.877596 
L 191.123047 312.772334 
L 191.40259 313.259419 
L 191.786275 313.442134 
L 191.846569 313.436619 
L 191.863012 313.355749 
L 191.967156 312.48723 
L 191.983599 310.077441 
L 192.054855 207.255095 
L 192.115149 276.161712 
L 192.246698 300.446051 
L 192.416616 306.287965 
L 192.646827 311.185229 
L 192.937332 312.682996 
L 193.035994 312.876432 
L 193.052438 312.76845 
L 193.068881 310.776606 
L 193.140137 300.927698 
L 193.183987 307.391093 
L 193.337461 311.71271 
L 193.611522 312.804185 
L 193.671816 312.906729 
L 193.677297 312.928481 
L 194.170607 312.853903 
L 194.203494 312.971985 
L 195.135302 310.179985 
L 195.146265 310.451883 
L 195.173671 311.095891 
L 195.217521 309.131237 
L 195.239446 309.076858 
L 195.255889 309.387598 
L 195.338108 311.473441 
L 195.354551 310.491502 
L 195.403882 287.255134 
L 195.475138 305.12269 
L 195.656019 311.702611 
L 195.864305 312.609196 
L 196.072591 312.9782 
L 196.160291 313.052777 
L 196.839963 313.326228 
L 196.850925 313.275733 
L 196.938625 313.38993 
L 197.114024 313.399563 
L 197.119505 313.385891 
L 197.179799 313.308361 
L 197.218167 312.937026 
L 197.22913 288.847677 
L 197.272979 222.248305 
L 197.338754 265.596549 
L 197.399047 297.998973 
L 197.459341 287.06869 
L 197.744364 310.575402 
L 197.799177 311.424499 
L 197.804658 310.969265 
L 197.832064 268.315525 
L 197.919764 303.848655 
L 198.100644 311.516944 
L 198.139013 311.89527 
L 198.1719 311.11842 
L 198.188344 310.397503 
L 198.248637 311.516944 
L 198.276043 311.323508 
L 198.489811 312.947126 
L 198.758391 313.282725 
L 198.791278 313.324675 
L 198.796759 313.215139 
L 198.807722 313.122694 
L 198.895421 313.344873 
L 198.93379 313.39397 
L 198.944752 313.254758 
L 198.950234 313.217469 
L 199.026971 313.438716 
L 199.443544 313.548641 
L 200.199952 313.61677 
L 201.044061 313.648466 
L 203.543498 313.556409 
L 203.565423 312.638716 
L 203.653123 313.590668 
L 203.883334 313.664624 
L 204.62878 313.678918 
L 214.198996 313.631531 
L 214.209958 311.906923 
L 214.220921 310.086763 
L 214.314101 313.156098 
L 214.462094 313.533803 
L 214.681343 313.642873 
L 214.938961 313.676277 
L 215.514489 313.681404 
L 219.225277 313.579948 
L 219.247202 312.575014 
L 219.274608 302.68338 
L 219.362308 312.071615 
L 219.526744 313.438561 
L 219.756956 313.572412 
L 219.855618 313.617703 
L 219.987167 313.633861 
L 220.453071 313.566431 
L 220.507883 313.188726 
L 220.579139 313.506225 
L 220.62847 313.556409 
L 220.639433 313.412303 
L 220.644914 313.369499 
L 220.732613 313.529608 
L 220.9409 313.622208 
L 221.039562 313.654836 
L 222.996358 313.5916 
L 223.023765 313.300515 
L 223.062133 305.619874 
L 223.13887 312.034326 
L 223.303307 313.401505 
L 223.560924 313.574821 
L 223.85691 313.633861 
L 224.799681 313.655924 
L 228.318626 313.57451 
L 228.340551 313.425898 
L 228.444694 313.440037 
L 228.450175 313.401013 
L 228.521431 313.58523 
L 228.537875 313.570159 
L 230.933169 313.516945 
L 231.02635 311.999368 
L 231.086643 312.679112 
L 231.174343 313.152991 
L 232.095189 313.584143 
L 233.333945 313.59261 
L 233.361351 310.413817 
L 233.421644 247.495938 
L 233.4929 288.762224 
L 233.646375 308.548599 
L 233.860142 312.044426 
L 233.865624 311.981501 
L 233.903992 312.13221 
L 234.11776 313.058992 
L 234.419227 313.37183 
L 234.539814 313.336327 
L 234.660401 313.09162 
L 234.676844 312.637939 
L 234.770025 313.099388 
L 234.868687 313.243105 
L 234.912537 313.132016 
L 234.945424 312.082491 
L 234.994755 307.841666 
L 235.06053 311.362351 
L 235.224967 312.857011 
L 235.477103 313.273403 
L 235.575765 313.383948 
L 235.707314 313.547165 
L 235.712796 313.563945 
L 235.740202 313.409196 
L 235.800495 313.479423 
L 235.992338 313.51073 
L 236.052631 313.135123 
L 236.112925 313.423956 
L 236.118406 313.447339 
L 236.123887 313.317838 
L 236.140331 312.725723 
L 236.200624 313.336586 
L 236.233512 313.26408 
L 236.255437 313.359633 
L 236.27188 313.101719 
L 236.337655 313.225238 
L 236.381505 312.962663 
L 236.441798 313.315353 
L 236.491129 313.154545 
L 236.617197 312.575014 
L 236.62816 312.488007 
L 236.710378 312.75369 
L 236.715859 312.677558 
L 236.754228 313.072975 
L 236.820003 313.028954 
L 237.028289 312.760681 
L 237.094064 311.339045 
L 237.236576 308.323313 
L 237.296869 309.100163 
L 237.411975 311.516944 
L 237.444862 311.440813 
L 237.488712 311.758545 
L 237.888841 311.178237 
L 237.960097 309.01471 
L 238.02039 310.1023 
L 238.19579 312.540056 
L 238.201271 312.222324 
L 238.310895 308.999173 
L 238.343783 309.465283 
L 238.360226 309.63619 
L 238.37667 307.833897 
L 238.480813 235.610129 
L 238.524663 224.656541 
L 238.595919 230.715973 
L 238.612363 230.638288 
L 238.661694 234.988649 
L 238.968642 305.549957 
L 239.187891 309.473051 
L 239.483877 311.849436 
L 239.560614 312.044426 
L 239.598983 311.913915 
L 239.692163 310.078994 
L 239.763419 311.276897 
L 239.966225 312.271266 
L 240.16903 312.540056 
L 240.317023 312.649592 
L 240.371835 312.676782 
L 240.404722 312.594435 
L 240.596565 312.136871 
L 240.70619 312.338852 
L 240.717152 312.382355 
L 240.750039 311.933336 
L 240.947364 305.922846 
L 241.073432 306.956056 
L 241.237868 311.401194 
L 241.254312 311.172023 
L 241.303643 297.998973 
L 241.314605 295.241155 
L 241.391343 306.862834 
L 241.577704 311.50063 
L 241.791472 312.330306 
L 242.010721 312.676782 
L 242.175157 312.779326 
L 242.361519 312.897407 
L 242.372481 312.714847 
L 242.394406 306.404493 
L 242.427294 292.856224 
L 242.504031 307.375556 
L 242.668468 311.377888 
L 242.673949 311.361574 
L 242.684911 311.317294 
L 242.706836 309.356524 
L 242.728761 258.604897 
L 242.778092 226.754037 
L 242.827423 276.317083 
L 242.958972 303.467999 
L 243.205627 310.389734 
L 243.26044 311.059379 
L 243.315252 310.389734 
L 243.419395 310.740871 
L 243.364583 310.319818 
L 243.430357 310.514807 
L 243.48517 305.076079 
L 243.556426 309.317681 
L 243.633163 310.579286 
L 243.644125 310.078994 
L 243.748268 199.641963 
L 243.803081 254.02148 
L 243.940111 301.758928 
L 244.230616 309.162311 
L 244.373128 310.709797 
L 244.411496 310.016846 
L 244.482752 307.064815 
L 244.548527 308.952562 
L 244.729407 311.328946 
L 244.882882 311.784958 
L 244.893844 311.73757 
L 244.910288 310.287967 
L 244.954137 294.417693 
L 245.030875 305.177069 
L 245.217236 310.670177 
L 245.480335 312.140755 
L 245.617365 312.459264 
L 245.666696 312.343513 
L 245.705065 311.286997 
L 245.759877 307.694064 
L 245.853058 308.509757 
L 246.012013 311.34526 
L 246.061344 311.305641 
L 246.280593 312.325645 
L 246.450511 312.637939 
L 246.499842 312.586667 
L 246.53273 312.532287 
L 246.554655 311.354582 
L 246.576579 304.773107 
L 246.664279 309.79156 
L 246.834197 312.243299 
L 247.037002 312.720285 
L 247.108258 312.828267 
L 247.815336 313.196494 
L 247.913998 312.86711 
L 247.979773 311.635802 
L 248.045547 201.117978 
L 248.105841 285.274166 
L 248.23739 305.930614 
L 248.489526 311.395756 
L 248.582707 311.980724 
L 248.604632 311.727471 
L 248.626557 303.864192 
L 248.725219 310.538113 
L 248.747144 310.970042 
L 248.758106 309.605116 
L 248.796475 178.123211 
L 248.801956 171.053874 
L 248.856768 240.426601 
L 248.867731 246.330663 
L 248.900618 191.25198 
L 248.917062 175.48192 
L 248.977355 244.000112 
L 249.125348 301.013152 
L 249.26786 305.43343 
L 249.284304 304.268155 
L 249.421334 214.169063 
L 249.470665 257.051196 
L 249.607696 303.475767 
L 249.84887 309.643958 
L 250.144856 311.753884 
L 250.375067 312.524519 
L 250.577872 312.776218 
L 250.638166 312.877209 
L 250.862896 313.077636 
L 251.186288 313.278064 
L 251.405537 313.252428 
L 251.619305 312.504321 
L 251.630267 312.597543 
L 251.77826 313.157652 
L 252.09069 313.378122 
L 252.45245 313.299039 
L 252.468894 311.858758 
L 252.562075 313.155321 
L 252.731993 313.313022 
L 253.110197 313.489212 
L 253.7515 313.565188 
L 258.964143 313.675811 
L 259.643815 313.679151 
L 262.154215 313.68358 
L 269.603197 313.64264 
L 269.625122 313.39195 
L 269.712821 313.603253 
L 270.222575 313.673014 
L 274.059431 313.678918 
L 276.032671 313.459536 
L 278.828095 313.668198 
L 278.943201 311.870411 
L 278.976088 309.030247 
L 279.058306 311.050834 
L 280.768448 313.663537 
L 283.876301 313.631375 
L 283.942076 313.305253 
L 284.090069 303.405851 
L 284.111994 306.412261 
L 284.172287 310.304281 
L 284.205175 306.093753 
L 284.221618 301.960909 
L 284.309318 307.97373 
L 284.457311 312.084822 
L 284.501161 312.909837 
L 284.577898 312.385463 
L 284.736853 313.44027 
L 284.819072 312.937803 
L 284.85744 313.405156 
L 284.879365 313.506147 
L 284.906771 313.111041 
L 284.939659 313.257089 
L 284.956102 313.147553 
L 284.978027 313.268742 
L 286.611432 313.568839 
L 286.748462 313.549961 
L 286.863568 313.332443 
L 286.984155 312.779326 
L 287.044448 312.864003 
L 287.219847 313.250097 
L 287.23081 313.240775 
L 287.291103 313.322344 
L 287.302066 313.324675 
L 287.614495 313.445553 
L 287.757007 313.367168 
L 287.762488 313.329336 
L 287.850188 313.490843 
L 288.190024 313.560216 
L 288.348979 313.584143 
L 288.880658 313.58523 
L 288.951914 313.034133 
L 289.056057 313.145999 
L 289.275306 313.401428 
L 289.527442 313.510808 
L 289.620623 313.517877 
L 289.626104 313.440115 
L 289.65351 312.937026 
L 289.730247 298.037816 
L 289.801503 188.144579 
L 289.856316 235.998555 
L 290.037196 303.576758 
L 290.420882 311.306418 
L 290.810048 312.999951 
L 291.051222 313.203486 
L 291.17729 312.359827 
L 291.232103 309.239996 
L 291.303358 311.516944 
L 291.484239 312.758351 
L 291.53357 312.853903 
L 291.796669 313.179404 
L 292.037842 313.310691 
L 292.525671 313.416654 
L 292.536634 313.424112 
L 292.575002 313.324675 
L 292.722995 312.884977 
L 292.750401 312.996844 
L 292.920319 313.273403 
L 292.947725 313.294378 
L 292.964169 308.214554 
L 293.008019 289.407009 
L 293.073793 306.823992 
L 293.23823 312.010244 
L 293.243711 311.999368 
L 293.293042 312.136871 
L 293.737021 313.111818 
L 294.690754 313.533647 
L 294.729123 312.86944 
L 294.740085 312.900514 
L 294.756529 300.313987 
L 294.84971 311.036851 
L 294.937409 312.570353 
L 294.964815 311.71038 
L 295.014146 302.434788 
L 295.085402 310.110068 
L 295.249839 312.682996 
L 295.534863 313.236114 
L 296.620145 313.578316 
L 296.888725 313.581812 
L 297.266929 313.623917 
L 297.847939 313.645669 
L 297.880826 313.651651 
L 297.89727 313.547631 
L 297.963044 312.153185 
L 298.012375 313.024034 
L 298.154887 313.468004 
L 298.319324 313.563945 
L 298.335767 313.513682 
L 298.396061 312.832152 
L 298.489242 313.186395 
L 298.631753 313.471266 
L 298.670122 313.406477 
L 298.703009 311.222518 
L 298.719453 309.278839 
L 298.801671 312.733492 
L 298.966108 313.280394 
L 299.519712 313.609313 
L 300.00754 313.658876 
L 300.023984 308.680664 
L 300.117165 312.9782 
L 300.27612 313.471266 
L 300.281602 313.394824 
L 300.413151 281.910404 
L 300.45152 302.698917 
L 300.594031 312.014905 
L 300.774912 313.142892 
L 300.999642 313.457827 
L 301.005123 313.401428 
L 301.092823 313.535201 
L 301.098304 313.535201 
L 301.131191 313.540561 
L 301.136672 313.442678 
L 301.213409 308.711738 
L 301.284665 312.376917 
L 301.57517 313.471266 
L 301.893081 313.609313 
L 302.02463 313.568839 
L 302.178105 308.975867 
L 302.189067 307.075173 
L 302.205511 308.921488 
L 302.342541 312.814284 
L 302.348023 312.258059 
L 302.397354 243.844742 
L 302.474091 303.46023 
L 302.654971 311.506068 
L 302.912589 313.126578 
L 303.32368 313.476161 
L 303.488117 313.540717 
L 303.745734 313.590668 
L 304.134901 313.627336 
L 306.283541 313.552214 
L 306.305466 310.282529 
L 306.376721 295.761644 
L 306.420571 308.447609 
L 306.563083 313.021703 
L 306.804257 313.469557 
L 307.127649 313.61677 
L 307.500372 313.586396 
L 307.527778 311.265245 
L 307.549703 291.753097 
L 307.637403 310.746309 
L 307.730584 312.747475 
L 313.655786 307.266796 
L 313.776372 237.241515 
L 313.820222 268.937005 
L 313.968215 307.97373 
L 314.176502 312.195134 
L 314.395751 312.832152 
L 314.593075 313.126578 
L 314.598556 313.088512 
L 314.609518 310.183869 
L 314.631443 296.911383 
L 314.719143 308.75058 
L 314.724624 308.851571 
L 314.741068 307.344482 
L 314.75203 306.218049 
L 314.828767 310.032383 
L 315.004166 312.512866 
L 315.135716 312.844581 
L 315.152159 312.703195 
L 315.174084 288.88652 
L 315.206972 268.470895 
L 315.28919 279.890594 
L 315.33304 255.031386 
L 315.387852 289.515768 
L 315.535845 308.400998 
L 315.749613 312.086375 
L 316.023674 312.909837 
L 316.314179 313.186395 
L 316.577277 313.282725 
L 316.703345 313.332443 
L 317.032219 313.268742 
L 317.404942 313.445553 
L 317.57486 313.466372 
L 317.777665 313.498689 
L 320.633382 313.38791 
L 320.721082 313.320014 
L 320.775894 313.39195 
L 321.022549 313.492474 
L 321.186986 313.518188 
L 321.345941 313.504593 
L 321.532303 313.528209 
L 321.680296 313.581734 
L 322.168125 313.432968 
L 322.305155 312.474801 
L 322.332561 312.689988 
L 322.513442 313.173966 
L 323.215038 313.445553 
L 323.439768 313.365848 
L 323.500062 313.077636 
L 323.576799 313.157652 
L 323.697386 313.038794 
L 323.708348 312.9782 
L 323.790567 313.188726 
L 324.037222 313.329336 
L 324.43187 313.259419 
L 324.525051 311.137064 
L 324.61275 312.406438 
L 324.826518 313.110264 
L 325.040286 313.433201 
L 325.045767 313.431336 
L 325.067692 313.39397 
L 325.14991 313.466372 
L 325.232128 313.484317 
L 325.983056 313.429083 
L 326.021424 313.347203 
L 329.715769 313.482686 
L 329.797987 312.770781 
L 329.830874 310.695813 
L 329.924055 311.788842 
L 329.935018 311.412846 
L 330.011755 312.275927 
L 330.044642 312.682996 
L 330.066567 312.049087 
L 330.17071 312.586667 
L 330.181673 312.494999 
L 330.225522 312.701641 
L 330.231004 312.700605 
L 330.559877 313.065207 
L 330.570839 313.003059 
L 330.70787 312.490338 
L 330.724314 312.524519 
L 330.965487 313.186395 
L 330.981931 313.145999 
L 330.992894 313.124247 
L 331.069631 313.226792 
L 331.184736 313.33089 
L 331.212143 313.528209 
L 331.250511 313.26175 
L 331.299842 313.431103 
L 331.376579 313.110264 
L 331.414948 313.358856 
L 331.541016 313.467615 
L 331.617753 313.598048 
L 331.65064 313.522461 
L 331.667084 313.379986 
L 331.678046 313.391795 
L 332.242612 313.622908 
L 332.270019 313.537609 
L 332.280981 313.399641 
L 332.385124 313.484317 
L 332.396087 313.544575 
L 332.467343 313.377967 
L 333.048352 313.289716 
L 333.053833 313.17785 
L 333.119608 313.396249 
L 333.157977 313.314835 
L 333.256639 313.467848 
L 333.289526 313.405001 
L 333.295007 313.329336 
L 333.349819 313.492241 
L 333.404632 313.340212 
L 333.464925 313.354195 
L 333.475888 313.401428 
L 333.547143 313.504593 
L 333.580031 313.377889 
L 333.733505 313.266411 
L 333.766392 313.047339 
L 333.810242 312.06307 
L 333.876017 312.912944 
L 333.886979 312.996067 
L 333.969198 312.754467 
L 333.985641 312.410322 
L 334.045935 313.04967 
L 334.056897 312.959555 
L 334.084303 313.141338 
L 334.106228 312.924597 
L 334.166522 313.070645 
L 334.440583 312.275927 
L 334.484433 312.616964 
L 334.489914 312.665129 
L 334.533764 312.331083 
L 334.588576 312.586667 
L 334.763975 312.69698 
L 335.059961 313.068314 
L 335.202473 313.179404 
L 335.41624 313.329336 
L 335.613565 313.438716 
L 335.673858 313.459536 
L 335.723189 313.41106 
L 335.783482 313.257089 
L 335.838295 312.49966 
L 335.882144 306.723001 
L 335.909551 302.559084 
L 335.980806 308.470914 
L 336.150724 311.913915 
L 336.364492 312.649592 
L 336.435748 312.804185 
L 336.479598 312.645708 
L 336.53441 312.296125 
L 336.589222 307.391093 
L 336.600185 304.392451 
L 336.682403 310.234364 
L 336.687884 310.164448 
L 336.753659 306.26466 
L 336.813952 309.620653 
L 336.989351 312.058409 
L 337.230525 312.723393 
L 337.542955 313.065207 
L 337.679986 312.131433 
L 337.70191 311.468003 
L 337.78961 312.077053 
L 338.047227 312.835259 
L 338.277439 313.003059 
L 338.28292 312.87954 
L 338.299364 301.937604 
L 338.365138 224.811911 
L 338.414469 287.542569 
L 338.496688 301.036457 
L 338.529575 294.666285 
L 338.546019 290.782034 
L 338.600831 301.774465 
L 338.628237 296.888077 
L 338.809117 309.589579 
L 339.121547 311.875072 
L 339.318871 312.364488 
L 339.324352 312.352058 
L 339.335315 312.330306 
L 339.384646 312.470916 
L 339.603895 312.760681 
L 339.757369 312.86944 
L 339.768331 312.857011 
L 339.993062 312.959555 
L 340.217792 313.124247 
L 340.486372 313.226792 
L 340.579552 313.252428 
L 340.61244 313.223684 
L 340.634365 313.245436 
L 340.650808 313.142115 
L 340.733027 311.78185 
L 340.743989 310.790589 
L 340.83717 312.339629 
L 341.012569 312.975092 
L 341.127675 313.080744 
L 341.33048 313.217469 
L 341.390773 313.191056 
L 341.37433 313.285055 
L 341.407217 313.296708 
L 341.522323 313.292047 
L 341.423661 313.280394 
L 341.527804 313.287386 
L 341.714166 313.273403 
L 342.152663 313.212808 
L 342.158145 313.160759 
L 342.223919 313.322344 
L 342.251325 313.299039 
L 342.377394 313.144445 
L 342.497981 312.167168 
L 342.525387 312.422752 
L 342.689823 312.922266 
L 342.695305 312.912944 
L 342.717229 312.836813 
L 342.821373 312.508982 
L 342.832335 312.547824 
L 343.12284 313.299039 
L 343.161208 313.365615 
L 343.358533 312.718732 
L 343.385939 244.621592 
L 343.479119 306.008299 
L 343.52845 309.061321 
L 343.539413 302.489167 
L 343.577781 272.432831 
L 343.649037 302.823213 
L 343.807993 310.939744 
L 343.955986 312.072392 
L 343.977911 311.884394 
L 344.016279 310.576955 
L 344.093016 311.682413 
L 344.42189 312.863226 
L 344.438333 312.873325 
L 344.460258 312.754467 
L 344.60277 310.596377 
L 344.630176 305.95392 
L 344.712395 310.49927 
L 344.876831 312.482569 
L 345.101561 312.959555 
L 345.118005 309.356524 
L 345.222148 312.309331 
L 345.413991 312.689211 
L 345.496209 312.881093 
L 345.819602 313.177073 
L 345.841526 313.15066 
L 345.940188 313.035686 
L 345.951151 310.680276 
L 345.967595 298.581611 
L 346.060775 308.991404 
L 346.230693 312.331083 
L 346.400611 312.863226 
L 346.406092 312.78088 
L 346.422536 283.215513 
L 346.477348 225.588761 
L 346.526679 293.229112 
L 346.66371 308.400998 
L 346.861034 311.617935 
L 347.06932 312.42819 
L 347.074802 312.414206 
L 347.080283 312.409545 
L 347.118651 312.508982 
L 347.129614 312.508982 
L 347.167982 312.512089 
L 347.299532 306.451104 
L 347.354344 295.41983 
L 347.409156 307.018204 
L 347.442044 308.898182 
L 347.447525 306.218049 
L 347.507818 193.504846 
L 347.568112 262.566833 
L 347.644849 300.011015 
L 347.683217 279.968279 
L 347.946316 308.665127 
L 348.176527 311.511506 
L 348.18749 311.309525 
L 348.209415 295.404293 
L 348.236821 260.080912 
L 348.313558 304.151627 
L 348.505401 311.148717 
L 348.708206 312.275927 
L 348.713687 312.257282 
L 348.773981 305.821855 
L 348.850718 264.275904 
L 348.927455 293.13589 
L 349.080929 309.908087 
L 349.267291 312.030442 
L 349.470096 312.594435 
L 349.48654 312.586667 
L 349.546833 312.547824 
L 349.557796 282.819319 
L 349.568758 256.740456 
L 349.661939 304.508978 
L 349.820894 310.90867 
L 350.045624 312.482569 
L 350.221024 312.903622 
L 350.242948 308.02811 
L 350.286798 294.448767 
L 350.352573 307.927119 
L 350.38546 309.418672 
L 350.407385 306.855066 
L 350.500566 203.759269 
L 350.549897 269.79154 
L 350.681446 304.369145 
L 350.971951 311.060933 
L 351.174756 312.355942 
L 351.443336 312.857011 
L 351.558442 312.96577 
L 351.827022 313.170858 
L 351.832503 313.139784 
L 351.843466 312.870217 
L 351.876353 255.264441 
L 351.887315 249.049639 
L 351.947609 288.428178 
L 351.975015 300.267376 
L 351.991459 243.223262 
L 352.029827 223.724321 
L 352.068196 269.01469 
L 352.199745 306.738538 
L 352.413513 311.102106 
L 352.605356 312.167945 
L 352.643724 308.222322 
L 352.720461 311.957418 
L 352.731424 312.077053 
L 352.736905 311.790395 
L 352.764311 272.122091 
L 352.852011 307.538694 
L 353.021929 311.884394 
L 353.246659 312.708632 
L 353.471389 312.931589 
L 354.523784 313.401428 
L 355.367892 313.510808 
L 355.532329 313.528209 
L 356.321625 313.44027 
L 356.354512 307.593074 
L 356.431249 313.149883 
L 356.595686 313.490843 
L 357.406907 313.61677 
L 367.777381 313.568606 
L 367.793824 312.387793 
L 367.826712 299.824571 
L 367.848636 277.171618 
L 367.925374 308.657358 
L 368.067885 313.012381 
L 368.265209 313.416654 
L 368.736595 313.605273 
L 369.043543 313.507157 
L 369.054506 313.052 
L 369.098355 263.965164 
L 369.186055 294.977026 
L 369.34501 310.374197 
L 369.399823 311.219411 
L 369.416266 310.507816 
L 369.454635 281.910404 
L 369.558778 295.567432 
L 369.832839 311.733685 
L 370.046607 312.602204 
L 371.159295 313.257089 
L 371.208626 313.07919 
L 371.219589 312.404107 
L 371.263438 267.46099 
L 371.318251 230.094493 
L 371.3621 276.239398 
L 371.499131 306.505483 
L 371.680011 311.054718 
L 371.926666 312.532287 
L 372.140434 312.816615 
L 372.430939 312.922266 
L 372.496714 312.940911 
L 372.529601 312.873325 
L 372.573451 312.844581 
L 372.6173 312.934696 
L 372.770775 313.043455 
L 372.957136 313.086959 
L 372.962617 313.055885 
L 372.97358 312.86944 
L 372.984542 306.660853 
L 373.044836 223.568951 
L 373.099648 289.539074 
L 373.116092 294.215712 
L 373.143498 260.547022 
L 373.192829 233.201894 
L 373.253122 250.758709 
L 373.412078 304.206007 
L 373.675176 310.498494 
L 374.217818 313.129685 
L 374.22878 313.011604 
L 374.27263 312.641823 
L 374.365811 312.922266 
L 374.502841 312.834482 
L 374.524766 312.352835 
L 374.590541 298.736981 
L 374.661797 307.259028 
L 374.859121 312.162507 
L 374.886527 312.720285 
L 374.935858 311.884394 
L 375.018076 311.743008 
L 375.023557 312.014128 
L 375.133182 312.682996 
L 375.149625 312.646484 
L 375.160588 312.764566 
L 375.166069 312.800301 
L 375.248287 312.609196 
L 375.264731 312.423528 
L 375.346949 312.782433 
L 375.418205 312.959555 
L 375.473018 312.816615 
L 375.642935 313.178627 
L 375.653898 313.086959 
L 375.714191 312.76845 
L 375.686785 313.199602 
L 375.774485 312.880316 
L 375.823816 313.149883 
L 375.867666 312.761458 
L 375.884109 312.884201 
L 376.004696 313.346427 
L 376.043065 313.301369 
L 376.141727 313.457671 
L 376.974873 313.086959 
L 376.996798 313.159982 
L 377.079016 313.26175 
L 377.111903 313.209701 
L 377.122866 313.086959 
L 377.139309 313.285055 
L 377.221528 313.177073 
L 377.331152 313.233783 
L 377.248934 313.118033 
L 377.342115 313.186395 
L 377.440777 313.041901 
L 377.396927 313.278064 
L 377.462701 313.145999 
L 377.627138 313.208147 
L 378.114967 313.3037 
L 379.770296 313.357302 
L 379.912808 312.788648 
L 380.005989 312.940911 
L 380.439006 313.26408 
L 380.762398 313.373927 
L 381.036459 313.445553 
L 382.598607 313.337104 
L 382.702751 312.928481 
L 382.7466 313.006166 
L 382.872669 313.201932 
L 383.009699 313.254758 
L 383.020662 313.236114 
L 383.075474 312.959555 
L 383.190579 312.148523 
L 383.245392 312.382355 
L 383.497528 312.996844 
L 383.766108 313.266411 
L 383.919582 313.354195 
L 384.566366 313.454409 
L 384.599254 313.407254 
L 384.703397 313.503117 
L 384.85139 313.52114 
L 385.054195 313.466372 
L 385.207669 313.472898 
L 385.454325 313.397621 
L 385.470768 313.137454 
L 385.492693 307.934888 
L 385.585874 311.50063 
L 385.777717 312.860118 
L 386.199771 313.364061 
L 386.33132 313.337881 
L 386.512201 313.380064 
L 386.967142 313.282725 
L 386.989067 313.217469 
L 387.060323 313.367401 
L 387.230241 313.464663 
L 387.663257 313.501641 
L 387.734513 313.466372 
L 387.761919 313.528209 
L 387.767401 313.526811 
L 387.981168 313.472898 
L 388.014056 313.257089 
L 388.107236 310.32681 
L 388.134643 275.540232 
L 388.216861 305.674253 
L 388.403222 311.592299 
L 388.633434 312.723393 
L 388.956826 313.164644 
L 388.962307 313.114148 
L 388.995195 311.967517 
L 389.028082 297.206586 
L 389.1103 310.133374 
L 389.285699 312.369149 
L 389.417249 312.776218 
L 389.455617 312.669013 
L 389.576204 310.994124 
L 389.636498 312.072392 
L 389.817378 312.807292 
L 390.157214 313.199602 
L 390.168176 313.186395 
L 390.354538 313.271072 
L 390.475125 313.474529 
L 390.491568 313.42955 
L 390.557343 313.457671 
L 390.59023 313.139784 
L 390.612155 273.442737 
L 390.639561 256.429716 
L 390.699855 300.003247 
L 390.875254 310.195522 
L 391.045172 312.257282 
L 391.313752 313.006166 
L 391.48367 313.145999 
L 391.75225 313.044232 
L 391.779656 312.925374 
L 391.861874 313.052777 
L 392.640208 313.438483 
L 392.662133 313.385968 
L 392.678576 313.324675 
L 392.78272 313.36041 
L 392.980044 313.292047 
L 393.018412 311.928675 
L 393.149961 283.712697 
L 393.330842 311.759321 
L 393.539128 312.824383 
L 393.692603 313.075306 
L 393.698084 312.926927 
L 393.714527 310.381966 
L 393.807708 312.715624 
L 394.026957 313.259419 
L 394.229762 313.347203 
L 394.284575 313.384026 
L 394.290056 313.391872 
L 396.400327 310.032383 
L 396.553801 313.062099 
L 396.767569 313.409196 
L 397.452721 313.530928 
L 397.469165 313.548641 
L 397.567827 313.548641 
L 397.688414 313.555244 
L 397.792557 313.449126 
L 397.84737 312.858565 
L 397.863813 261.867668 
L 397.924107 215.645078 
L 397.973438 264.508959 
L 398.104987 307.484315 
L 398.29683 311.473441 
L 398.318755 286.773487 
L 398.411935 309.193385 
L 398.439342 306.870603 
L 398.483191 309.643958 
L 398.516079 309.061321 
L 398.669553 312.435958 
L 398.850433 313.041124 
L 398.894283 313.118033 
L 399.179307 313.342542 
L 399.190269 313.253205 
L 399.206713 312.056855 
L 399.294412 282.850393 
L 399.321818 301.85215 
L 399.458849 311.282335 
L 399.645211 312.847689 
L 399.86446 313.210478 
L 400.308439 313.445553 
L 400.98811 313.529763 
L 401.053885 313.570082 
L 401.103216 313.551282 
L 401.245728 313.624617 
L 401.251209 313.564255 
L 401.262171 313.48424 
L 401.327946 313.597116 
L 401.360833 313.552214 
L 401.371796 313.539241 
L 401.486902 313.586318 
L 401.634895 313.573655 
L 401.530751 313.486648 
L 401.640376 313.554933 
L 401.760963 313.431259 
L 401.673263 313.57249 
L 401.777406 313.440425 
L 401.947324 313.549961 
L 401.958287 313.548641 
L 401.97473 313.247767 
L 402.067911 313.466217 
L 402.28716 313.560216 
L 402.33101 313.562702 
L 402.347454 312.919159 
L 402.440634 313.385891 
L 402.621515 313.542037 
L 402.846245 313.551282 
L 402.851726 313.525413 
L 402.939426 313.584143 
L 402.950388 313.579482 
L 403.301186 313.612964 
L 403.432736 313.627336 
L 403.805459 313.628112 
L 404.961997 313.600224 
L 405.131915 311.938774 
L 405.137396 312.04831 
L 405.285389 313.301369 
L 405.466269 313.537998 
L 405.477232 313.533803 
L 405.669075 313.575986 
L 406.726951 313.484317 
L 406.825613 312.59832 
L 406.809169 313.562702 
L 406.874944 312.798747 
L 406.984568 276.938563 
L 407.006493 293.104816 
L 407.132561 311.435375 
L 407.434028 313.131239 
L 407.477878 313.195718 
L 407.499803 305.74417 
L 407.592984 312.402553 
L 407.768383 313.198825 
L 407.982151 313.344873 
L 408.245249 313.501641 
L 408.645379 313.592843 
L 410.481588 313.497912 
L 410.514476 313.563945 
L 410.552844 313.257866 
L 410.563807 310.846522 
L 410.662469 313.096281 
L 410.854312 313.498689 
L 411.090004 313.591756 
L 412.076624 313.674257 
L 412.312317 313.670684 
L 414.033421 313.626481 
L 414.044383 313.457594 
L 414.143045 313.64497 
L 414.175933 313.658953 
L 414.181414 313.628501 
L 414.203339 313.424112 
L 414.291038 313.557652 
L 414.537693 313.636969 
L 421.076792 313.53458 
L 421.175454 313.503661 
L 421.197379 313.551204 
L 421.597508 313.600301 
L 422.315549 313.633007 
L 422.447098 313.623917 
L 422.512873 313.634172 
L 423.104845 313.586939 
L 423.236394 313.555399 
L 423.247357 313.568606 
L 423.472087 313.592377 
L 423.53238 313.577306 
L 423.483049 313.597038 
L 423.581711 313.613042 
L 424.080502 313.414867 
L 424.091465 313.323121 
L 424.184646 313.442756 
L 424.453226 313.558118 
L 425.193191 313.623063 
L 425.450808 313.623917 
L 430.849813 313.61343 
L 430.855294 313.485327 
L 430.953956 313.645669 
L 430.959437 313.645669 
L 431.425341 313.655302 
L 431.545928 313.650952 
L 431.803545 313.655924 
L 432.757278 313.548408 
L 432.866903 313.49597 
L 432.910753 311.209312 
L 432.98749 312.904399 
L 433.069708 313.124247 
L 433.119039 313.055885 
L 433.130001 313.002282 
L 433.157408 312.235531 
L 433.239626 313.006166 
L 433.267032 313.107934 
L 433.277994 312.918382 
L 433.310882 307.911582 
L 433.332807 295.202312 
L 433.415025 309.364292 
L 433.721974 312.766896 
L 433.793229 312.944018 
L 433.815154 312.704748 
L 433.891891 309.667264 
L 433.946704 311.58453 
L 433.968629 311.809817 
L 434.012478 311.141726 
L 434.01796 311.166585 
L 434.039884 308.688432 
L 434.100178 311.589968 
L 434.138546 312.184259 
L 434.160471 310.63988 
L 434.209802 295.062479 
L 434.281058 307.779518 
L 434.286539 307.81836 
L 434.297502 307.313408 
L 434.313946 305.713096 
L 434.37972 310.179985 
L 434.549638 312.498106 
L 434.768887 312.999951 
L 435.245753 313.395912 
L 435.251235 313.38558 
L 435.443078 313.425665 
L 435.618477 313.478646 
L 435.623958 313.466528 
L 435.804838 313.410128 
L 436.144674 313.517644 
L 436.347479 313.545611 
L 436.955895 313.452078 
L 437.136775 312.429743 
L 437.197069 312.897407 
L 437.2464 313.021703 
L 437.273806 312.724946 
L 437.334099 310.834093 
L 437.377949 310.964604 
L 437.465649 189.154485 
L 437.586236 245.942238 
L 437.745191 300.329524 
L 437.882222 305.95392 
L 437.898665 304.13609 
L 437.958959 281.988089 
L 438.019252 296.515189 
L 438.178208 308.688432 
L 438.397457 311.360797 
L 438.660555 312.64027 
L 439.011354 313.127355 
L 439.997974 313.42784 
L 440.058267 313.310691 
L 440.063748 313.280394 
L 440.135004 307.911582 
L 440.189817 309.729412 
L 440.359734 312.990629 
L 440.540615 313.220577 
L 440.595427 313.253981 
L 440.617352 312.308555 
L 440.710533 313.03724 
L 440.891413 313.356526 
L 440.913338 313.335551 
L 441.176437 313.446252 
L 441.938327 313.579482 
L 443.538844 313.537143 
L 443.549806 313.308361 
L 443.648468 313.575753 
L 443.862236 313.620499 
L 444.920112 313.673014 
L 445.407941 313.595951 
L 445.479197 312.973538 
L 445.523046 243.534002 
L 445.605265 304.415756 
L 445.76422 311.791172 
L 446.005394 312.878763 
L 446.246568 313.304477 
L 446.252049 313.248543 
L 446.273974 312.713294 
L 446.361674 313.288163 
L 446.575441 313.49061 
L 447.123564 313.601233 
L 447.830641 313.621354 
L 448.000559 313.640076 
L 448.504832 313.597116 
L 448.532238 313.394902 
L 448.537719 313.257866 
L 448.6309 313.609313 
L 448.806299 313.649087 
L 449.146135 313.540095 
L 449.157097 313.533181 
L 449.189985 313.590668 
L 449.228353 313.612109 
L 449.496933 313.660585 
L 449.803882 313.653748 
L 449.940912 313.640076 
L 459.604308 313.639299 
L 459.615271 313.241552 
L 459.713933 313.61677 
L 459.987994 313.66913 
L 461.396668 313.680006 
L 462.723124 313.681715 
L 466.620273 313.681404 
L 476.459069 313.636036 
L 476.519362 310.401387 
L 476.541287 304.540052 
L 476.623505 312.328753 
L 476.77698 313.308361 
L 476.930454 313.468004 
L 476.95786 313.375636 
L 477.072966 310.420808 
L 477.144221 312.171829 
L 477.314139 313.274956 
L 477.505982 313.487036 
L 477.511463 313.478491 
L 477.823893 313.587561 
L 478.037661 313.623917 
L 478.147285 313.538231 
L 478.234985 312.925374 
L 478.30076 313.142892 
L 478.377497 313.313022 
L 478.574821 313.546854 
L 479.117462 313.455807 
L 479.177755 313.310691 
L 479.238049 313.425976 
L 479.429891 313.572956 
L 479.994457 313.635959 
L 479.999939 313.603098 
L 480.010901 313.068081 
L 480.043788 292.817382 
L 480.131488 308.268933 
L 480.290443 312.555593 
L 480.515174 313.220577 
L 480.67961 313.242329 
L 480.750866 313.229899 
L 480.76731 312.875655 
L 480.860491 313.16309 
L 480.893378 313.226792 
L 480.90434 313.072198 
L 480.920784 301.137448 
L 480.981078 194.825491 
L 481.03589 264.353589 
L 481.17292 303.537915 
L 481.392169 309.970235 
L 481.605937 312.081714 
L 481.890961 312.813507 
L 481.951254 312.776218 
L 481.967698 312.739706 
L 482.088285 312.611526 
L 482.115691 312.68222 
L 482.323977 313.052777 
L 483.27771 313.468004 
L 483.485996 313.515236 
L 483.661396 313.543358 
L 484.412323 313.614906 
L 484.543872 313.595019 
L 484.549354 313.598981 
L 484.697347 313.613042 
L 484.93852 313.613974 
L 485.234506 313.629045 
L 485.897734 313.620189 
L 486.045727 313.584143 
L 486.051209 313.590668 
L 486.073134 313.600612 
L 487.443439 313.605895 
L 487.459883 313.080744 
L 487.553064 313.494028 
L 487.602395 313.57249 
L 488.249179 313.506069 
L 488.282066 312.978976 
L 488.380728 313.351864 
L 488.52324 313.567984 
L 490.649955 313.666955 
L 490.841798 313.666489 
L 491.910636 313.682958 
L 495.56113 313.601233 
L 495.572093 313.132016 
L 495.670755 313.553846 
L 495.862598 313.660585 
L 496.14214 313.659031 
L 496.158584 312.686881 
L 496.251765 313.416654 
L 496.449089 313.638522 
L 497.545333 313.538309 
L 497.556296 313.215139 
L 497.654958 313.519664 
L 497.945462 313.665479 
L 498.65254 313.683269 
L 500.762811 313.674257 
L 501.338339 313.683036 
L 502.445546 313.666877 
L 502.456509 313.539163 
L 502.500359 271.889036 
L 502.571615 309.348755 
L 502.64287 311.391094 
L 502.653833 310.823217 
L 502.681239 278.336893 
L 502.77442 303.14949 
L 502.91145 311.784958 
L 503.130699 313.20504 
L 503.338986 313.506147 
L 503.481498 313.573655 
L 506.879856 313.63658 
L 506.923706 312.629394 
L 506.967555 306.870603 
L 507.03333 311.586084 
L 507.181323 313.231453 
L 507.449903 313.552603 
L 507.581452 313.562702 
L 507.586934 313.574821 
L 507.954175 313.616149 
L 507.970619 313.525413 
L 508.0638 313.623063 
L 508.891465 313.641474 
L 509.351887 313.637745 
L 509.790385 313.644271 
L 509.801348 312.919159 
L 509.90001 313.42955 
L 510.097334 313.610245 
L 510.185033 313.631531 
L 510.217921 313.574665 
L 510.239845 313.360643 
L 510.283695 290.681044 
L 510.365914 310.172216 
L 510.4865 311.69795 
L 510.508425 311.591522 
L 510.738637 313.104826 
L 510.979811 313.320014 
L 511.204541 313.429472 
L 511.51697 313.525335 
L 511.522452 313.485405 
L 511.538895 313.279617 
L 511.566301 313.515003 
L 511.626595 313.515236 
L 511.774588 313.544679 
L 512.09798 313.579482 
L 513.051713 313.488901 
L 513.133931 308.64959 
L 513.221631 311.192998 
L 513.303849 311.896824 
L 513.342218 311.548018 
L 513.358661 311.359244 
L 513.418955 311.885171 
L 513.550504 313.006166 
L 513.660129 312.806516 
L 513.583391 313.031025 
L 513.671091 312.899738 
L 513.687535 312.916051 
L 513.714941 312.805739 
L 513.753309 311.18756 
L 513.769753 296.064616 
L 513.819084 234.367169 
L 513.879377 296.188912 
L 514.038333 308.828265 
L 514.334319 312.243299 
L 514.580974 312.906729 
L 514.597418 312.792532 
L 514.685117 312.947126 
L 514.718005 312.594435 
L 514.772817 312.840697 
L 514.811185 312.54394 
L 514.83311 312.283695 
L 514.898885 312.796417 
L 514.997547 313.029472 
L 514.981103 312.634055 
L 515.019472 312.95334 
L 515.123615 313.164644 
L 515.200352 313.13357 
L 515.381233 313.224461 
L 515.90743 313.332443 
L 516.055423 313.409196 
L 515.934836 313.313022 
L 516.060904 313.381462 
L 516.071867 313.324675 
L 516.170529 313.369732 
L 516.696726 313.454409 
L 517.014637 313.468004 
L 517.168111 313.438561 
L 517.211961 313.143669 
L 517.277736 306.047142 
L 517.359954 311.011992 
L 517.524391 312.645708 
L 517.535353 312.630171 
L 517.56824 312.890415 
L 517.644978 312.6426 
L 517.69979 312.835259 
L 517.738158 308.975867 
L 517.798452 232.114303 
L 517.858745 292.972752 
L 518.006738 308.400998 
L 518.209544 311.1728 
L 518.423311 312.153185 
L 518.637079 312.443727 
L 518.439755 312.123664 
L 518.648041 312.42819 
L 518.702854 312.325645 
L 518.757666 312.470916 
L 519.185201 312.884977 
L 519.278382 313.033356 
L 519.283863 313.098611 
L 519.355119 312.827491 
L 519.371563 312.827491 
L 519.49215 311.407408 
L 519.618218 311.980724 
L 519.859392 312.409545 
L 519.936129 312.300786 
L 520.001903 310.987909 
L 520.193746 301.735623 
L 520.237596 281.366609 
L 520.303371 300.112006 
L 520.462326 309.333218 
L 520.489732 309.768254 
L 520.533582 308.579673 
L 520.571951 309.372061 
L 520.681575 310.490725 
L 520.698019 309.760486 
L 520.736387 282.337672 
L 520.758312 266.218029 
L 520.829568 300.943235 
L 520.994005 310.662409 
L 520.999486 310.663186 
L 521.087186 308.012573 
L 521.136517 309.348755 
L 521.311916 311.495192 
L 521.317397 311.489754 
L 521.328359 311.5822 
L 521.399615 311.913915 
L 521.432503 311.655224 
L 521.46539 310.790589 
L 521.50924 312.053748 
L 521.542127 311.628811 
L 521.558571 311.696397 
L 521.564052 311.763983 
L 521.580496 311.435893 
L 522.073806 312.474801 
L 522.090249 312.42819 
L 522.123137 312.265828 
L 522.150543 310.799911 
L 522.276611 302.326029 
L 522.298536 303.064037 
L 522.468454 310.428577 
L 522.572597 311.137841 
L 522.589041 311.126189 
L 522.671259 311.361574 
L 522.682221 311.413623 
L 522.698665 311.201543 
L 522.72059 297.035679 
L 522.742515 278.880688 
L 522.819252 306.505483 
L 522.857621 309.403135 
L 522.912433 305.852929 
L 522.934358 307.204648 
L 522.994651 309.970235 
L 523.098794 309.830402 
L 523.25775 310.420808 
L 523.307081 310.335355 
L 523.329006 307.748444 
L 523.383818 296.491884 
L 523.444111 305.441198 
L 523.515367 309.923624 
L 523.586623 309.504125 
L 523.597586 309.465283 
L 523.630473 309.939161 
L 523.690766 310.273207 
L 523.70721 309.63619 
L 523.729135 308.237859 
L 523.805872 310.319818 
L 523.893572 311.994707 
L 523.937422 311.094338 
L 523.970309 310.335355 
L 524.036084 311.711934 
L 524.167633 312.162507 
L 524.184077 311.990823 
L 524.195039 311.732909 
L 524.271776 312.291464 
L 524.33207 312.478685 
L 524.359476 312.02112 
L 524.381401 312.243299 
L 524.42525 312.42819 
L 524.485544 312.21844 
L 524.518431 311.50063 
L 524.578725 312.052971 
L 524.660943 310.117837 
L 524.671905 310.218827 
L 524.759605 311.154932 
L 524.776049 310.20329 
L 524.880192 290.067332 
L 524.913079 267.77173 
L 524.978854 301.960909 
L 525.110403 310.35866 
L 525.126847 309.776023 
L 525.340615 311.408185 
L 525.631119 312.435958 
L 525.664007 312.261944 
L 525.669488 312.204457 
L 525.757188 312.423528 
L 525.883256 312.57113 
L 525.905181 312.877209 
L 525.965474 312.117449 
L 525.981918 312.426636 
L 526.069617 312.230093 
L 526.042211 312.750582 
L 526.086061 312.48723 
L 526.184723 312.469622 
L 526.21761 312.818168 
L 526.321753 312.504321 
L 526.266941 312.879798 
L 526.338197 312.57113 
L 526.34916 312.623956 
L 526.431378 312.81765 
L 526.376566 312.418867 
L 526.464265 312.788648 
L 526.672552 312.775442 
L 526.688995 308.742812 
L 526.738326 262.489148 
L 526.804101 301.510336 
L 526.963057 310.20329 
L 527.132974 311.447805 
L 527.149418 311.31574 
L 527.171343 308.812728 
L 527.193268 302.823213 
L 527.286449 307.328945 
L 527.544066 311.819916 
L 527.801684 312.579675 
L 528.601942 313.124247 
L 528.711567 313.114925 
L 528.72801 313.128908 
L 529.04044 313.26175 
L 529.045921 313.254758 
L 529.226802 313.238444 
L 529.237764 312.916051 
L 529.26517 282.065774 
L 529.358351 307.227954 
L 529.391238 308.657358 
L 529.407682 305.107153 
L 529.446051 258.760267 
L 529.522788 290.968478 
L 529.736555 310.25767 
L 530.076391 312.459264 
L 530.098316 312.423528 
L 530.15861 311.50063 
L 530.175053 311.250485 
L 530.257272 311.743784 
L 530.52037 312.586667 
L 530.783469 312.884977 
L 530.964349 312.990629 
L 531.260335 313.181734 
L 531.265817 313.173966 
L 531.457659 313.111818 
L 531.633058 313.191056 
L 531.846826 313.231453 
L 531.940007 313.125801 
L 531.956451 312.79564 
L 531.972894 308.035878 
L 532.066075 312.369149 
L 532.230512 312.984414 
L 533.134914 313.369732 
L 533.38705 313.26175 
L 533.551487 312.212225 
L 533.65563 218.053314 
L 533.69948 277.793098 
L 533.759773 299.071026 
L 533.814585 290.121711 
L 533.825548 288.31165 
L 533.88036 301.859919 
L 534.044797 308.975867 
L 534.275008 311.408185 
L 534.538107 312.432074 
L 534.55455 312.423528 
L 534.592919 312.029665 
L 534.620325 307.686296 
L 534.718987 310.939744 
L 534.888905 312.54394 
L 534.960161 312.720285 
L 535.042379 312.645708 
L 535.321922 312.984414 
L 535.89745 313.337881 
L 535.908412 313.247767 
L 535.946781 299.894488 
L 535.968706 275.773287 
L 536.050924 303.716591 
L 536.215361 311.701835 
L 536.220842 311.744561 
L 536.231805 311.649786 
L 536.242767 305.89954 
L 536.30306 230.482918 
L 536.379798 240.504286 
L 536.385279 240.348916 
L 536.39076 242.446412 
L 536.483941 301.145217 
L 536.522309 263.188313 
L 536.538753 257.284251 
L 536.577122 288.420409 
L 536.719633 307.546463 
L 536.933401 311.045396 
L 536.944363 311.06171 
L 536.966288 310.868274 
L 536.982732 310.632112 
L 537.032063 311.424499 
L 537.229387 312.455379 
L 537.289681 312.665129 
L 537.328049 312.475577 
L 537.432192 304.734265 
L 537.487005 309.177848 
L 537.662404 312.470916 
L 537.804915 312.816615 
L 537.821359 312.813507 
L 538.232451 313.162313 
L 538.342075 313.167751 
L 538.385925 308.276702 
L 538.468143 312.364488 
L 538.63258 313.077636 
L 538.862792 313.324675 
L 539.164259 313.438716 
L 539.224552 313.340989 
L 539.268402 312.678335 
L 539.279364 312.48723 
L 539.356102 313.2198 
L 539.520538 313.385891 
L 539.558907 313.299039 
L 539.597275 312.54394 
L 539.674013 313.259419 
L 539.832968 313.409196 
L 539.849412 313.398864 
L 539.854893 313.10638 
L 539.871337 290.424683 
L 539.964517 313.009274 
L 540.074142 313.282725 
L 540.107029 313.149107 
L 540.123473 307.235722 
L 540.216654 312.451495 
L 540.364647 313.058992 
L 540.38109 310.015293 
L 540.430421 249.904174 
L 540.501677 288.342724 
L 540.507158 288.15628 
L 540.518121 290.510137 
L 540.589377 304.866329 
L 540.638708 296.212217 
L 540.671595 277.093933 
L 540.731889 300.251839 
L 540.885363 310.961496 
L 541.110093 312.66979 
L 541.312898 313.068314 
L 541.800727 313.427064 
L 542.124119 313.522616 
L 542.1296 313.502573 
L 542.211819 312.732715 
L 542.255669 313.058992 
L 542.425586 313.431259 
L 542.694166 313.548641 
L 543.527312 313.636969 
L 544.196021 313.653748 
L 545.390928 313.650952 
L 545.407372 299.039952 
L 545.500552 312.782433 
L 545.67047 313.401428 
L 546.158299 313.614906 
L 546.361104 313.635415 
L 546.837971 313.656545 
L 547.188769 313.549884 
L 547.2381 257.983417 
L 547.303875 308.051415 
L 547.446387 311.633472 
L 547.665636 312.847689 
L 547.972584 313.266411 
L 548.016434 313.077636 
L 548.021915 313.068314 
L 548.049321 313.212808 
L 548.22472 313.48758 
L 548.498781 313.526811 
L 548.515225 313.077403 
L 548.520706 312.834482 
L 548.613887 313.482686 
L 548.871505 313.565188 
L 548.964685 313.570082 
L 548.975648 309.648619 
L 549.041422 205.701395 
L 549.090753 279.688613 
L 549.216822 306.544326 
L 549.38674 311.24427 
L 549.584064 312.563361 
L 549.600507 312.255729 
L 549.633395 300.873319 
L 549.715613 310.729995 
L 549.88005 312.757574 
L 550.126705 313.191056 
L 550.587127 313.440425 
L 550.740602 313.308361 
L 550.77897 308.859339 
L 550.86667 312.338852 
L 551.025625 313.195718 
L 551.233912 313.401428 
L 551.995802 313.555244 
L 553.453807 313.496203 
L 553.464769 313.041901 
L 553.519582 241.358821 
L 553.579875 301.533642 
L 553.733349 310.983248 
L 553.980004 312.779326 
L 554.303396 313.273403 
L 554.950181 313.497135 
L 554.955662 313.45907 
L 554.966624 313.060546 
L 555.026918 238.173735 
L 555.092693 298.084427 
L 555.251648 310.086763 
L 555.43801 312.321761 
L 555.712071 312.959555 
L 556.369818 313.271072 
L 556.375299 313.257089 
L 556.430111 312.209118 
L 556.501367 312.944018 
L 556.523292 312.723393 
L 556.643879 313.077636 
L 556.660322 313.036463 
L 556.852165 313.282725 
L 557.553762 313.215139 
L 557.570205 311.670761 
L 557.603093 287.659096 
L 557.690792 304.563358 
L 557.937447 311.869634 
L 558.123809 312.645708 
L 558.414314 313.003059 
L 559.050136 313.236114 
L 559.685957 313.342542 
L 559.691439 313.363517 
L 559.751732 313.282725 
L 559.790101 313.310691 
L 559.943575 313.329336 
L 561.231662 313.229899 
L 561.275512 310.952951 
L 561.352249 312.771557 
L 561.511205 313.102496 
L 561.609867 313.06443 
L 561.62631 311.830792 
L 561.681123 272.510516 
L 561.752378 302.660075 
L 561.916815 311.213973 
L 562.114139 312.390124 
L 562.503306 312.956448 
L 563.095278 313.330113 
L 563.117203 313.178627 
L 563.155571 313.062099 
L 563.221346 313.226792 
L 563.517332 313.134346 
L 563.544738 313.036463 
L 563.621475 313.157652 
L 563.747544 313.240775 
L 563.763987 313.186395 
L 563.922943 312.900514 
L 563.928424 312.925374 
L 563.994199 313.102496 
L 564.049011 313.038794 
L 564.054492 313.033356 
L 564.076417 313.164644 
L 564.251816 313.139784 
L 564.438178 312.971985 
L 564.44914 312.981307 
L 564.476546 312.993737 
L 564.503952 312.877209 
L 564.553283 312.586667 
L 564.63002 312.704748 
L 564.668389 312.57113 
L 564.71772 312.874102 
L 564.734164 312.729607 
L 564.832826 312.999951 
L 564.860232 312.959555 
L 564.997262 313.034133 
L 565.16718 313.142892 
L 565.320655 313.201932 
L 565.348061 313.123471 
L 565.419317 312.274373 
L 565.43576 303.6156 
L 565.47961 247.418253 
L 565.545385 299.529368 
L 565.709821 310.566856 
L 565.92907 312.291464 
L 565.940033 312.279811 
L 565.989364 312.414206 
L 566.186688 312.744368 
L 566.871841 313.111818 
L 566.926653 312.984414 
L 567.00339 313.034133 
L 567.123977 312.981307 
L 567.134939 312.500437 
L 567.195233 237.00846 
L 567.27197 299.894488 
L 567.436407 309.387598 
L 567.595362 310.280975 
L 567.617287 310.141142 
L 567.655655 310.529568 
L 567.896829 312.425082 
L 567.940679 312.528403 
L 567.995491 312.637939 
L 568.022897 312.45771 
L 568.050304 309.550736 
L 568.088672 276.783193 
L 568.127041 259.226377 
L 568.181853 289.329324 
L 568.329846 309.139006 
L 568.373696 310.234364 
L 568.433989 308.937025 
L 568.444952 309.006941 
L 568.642276 311.287773 
L 568.664201 311.09123 
L 568.675163 311.002669 
L 568.729975 311.683967 
L 568.817675 311.869634 
L 568.850562 311.704942 
L 568.927299 311.534035 
L 568.965668 311.342153 
L 569.014999 311.61405 
L 569.031442 311.61405 
L 569.173954 312.419644 
L 569.20136 312.235531 
L 569.228766 311.993153 
L 569.321947 312.101912 
L 569.349353 312.145416 
L 569.398684 312.014128 
L 569.409647 312.02112 
L 569.431572 311.915468 
L 569.508309 312.083268 
L 569.661783 312.334968 
L 569.727558 312.425082 
L 569.754964 312.446834 
L 569.804295 312.334968 
L 569.820739 312.356719 
L 569.881032 312.246407 
L 570.034506 305.705327 
L 570.039987 305.371282 
L 570.105762 307.942656 
L 570.122206 308.525294 
L 570.144131 305.984994 
L 570.18798 301.790002 
L 570.242793 307.911582 
L 570.407229 310.550542 
L 570.599072 311.890609 
L 570.867652 312.661245 
L 571.021126 312.620848 
L 571.026608 312.590551 
L 571.048532 311.662992 
L 571.119788 307.313408 
L 571.180082 309.915856 
L 571.366443 311.739123 
L 571.426737 311.879733 
L 571.443181 311.844775 
L 571.952934 312.288356 
L 571.963897 312.23087 
L 572.139296 309.17008 
L 572.205071 309.783791 
L 572.413357 311.908477 
L 572.572312 312.697757 
L 572.616162 312.503544 
L 572.638087 311.934113 
L 572.709343 312.817392 
L 572.720305 312.638716 
L 572.769636 312.132986 
L 572.840892 312.490338 
L 572.945036 312.540056 
L 572.955998 312.49966 
L 572.988885 311.673868 
L 573.05466 287.426041 
L 573.153322 302.854287 
L 573.36709 309.721643 
L 573.602782 311.516944 
L 573.789144 311.825354 
L 573.811069 311.825354 
L 573.843956 311.903039 
L 573.849437 311.908477 
L 574.112536 312.34429 
L 574.156386 312.455379 
L 574.452372 312.69698 
L 574.556515 312.740483 
L 574.814133 312.71174 
L 574.836058 310.507039 
L 574.907313 235.843185 
L 574.973088 290.642201 
L 575.1156 307.328945 
L 575.367736 310.605699 
L 575.471879 311.334384 
L 575.488323 311.013545 
L 575.537654 296.965762 
L 575.619872 308.066952 
L 575.751422 310.451883 
L 575.773347 310.078994 
L 575.817196 300.55481 
L 575.899415 308.261165 
L 576.003558 310.141142 
L 576.01452 309.372061 
L 576.184438 251.302505 
L 576.206363 260.935448 
L 576.359837 307.212417 
L 576.535237 310.327586 
L 576.55168 310.218827 
L 576.606493 305.728633 
L 576.705155 308.672895 
L 576.809298 310.086763 
L 576.825741 309.628421 
L 576.858629 306.474409 
L 576.935366 309.418672 
L 577.121727 310.73854 
L 577.154615 310.945959 
L 577.17654 310.675615 
L 577.225871 301.176291 
L 577.231352 300.150848 
L 577.297127 307.725138 
L 577.330014 308.789423 
L 577.351939 306.870603 
L 577.390307 297.136669 
L 577.456082 307.795055 
L 577.631481 310.988686 
L 577.932948 311.985385 
L 578.152197 312.257282 
L 578.261822 312.148523 
L 578.289228 312.167168 
L 578.420777 312.27515 
L 578.574252 312.394008 
L 578.749651 312.494999 
L 578.914087 312.645708 
L 578.919569 312.630171 
L 578.957937 312.612303 
L 578.974381 312.463148 
L 579.040155 312.729607 
L 579.06208 312.712517 
L 579.19363 312.720285 
L 579.215555 312.689211 
L 579.41836 312.369149 
L 579.467691 312.470916 
L 579.64309 312.744368 
L 579.654052 312.732715 
L 580.31728 312.841474 
L 580.662597 312.912944 
L 580.996952 312.700864 
L 581.013396 310.636773 
L 581.040802 292.20367 
L 581.12302 308.703969 
L 581.287457 311.424499 
L 581.292938 311.408185 
L 581.303901 311.396532 
L 581.325825 311.50063 
L 581.473818 312.039764 
L 581.501225 311.948096 
L 581.621811 311.744561 
L 581.627293 311.753884 
L 581.950685 312.528403 
L 582.087715 312.57113 
L 582.115122 312.339629 
L 582.180896 312.617741 
L 582.224746 312.645708 
L 582.252152 312.524519 
L 582.339852 309.985772 
L 582.416589 311.544134 
L 582.586507 312.42819 
L 582.707094 312.352058 
L 582.756425 311.489754 
L 582.844124 312.049087 
L 583.233291 312.751359 
L 583.414171 312.776218 
L 583.523796 312.69698 
L 583.622458 289.438083 
L 583.649864 239.572066 
L 583.726601 297.486252 
L 583.863632 307.965962 
L 583.880075 307.802823 
L 583.891038 305.884003 
L 583.923925 241.669561 
L 584.000662 302.240575 
L 584.17058 309.612884 
L 584.411754 311.489754 
L 584.806402 312.325645 
L 584.905064 312.423528 
L 584.998245 312.459264 
L 585.009207 312.410322 
L 585.025651 311.298649 
L 585.042095 307.655222 
L 585.129794 311.990046 
L 585.277787 312.390124 
L 585.283268 312.378471 
L 585.28875 312.160953 
L 585.305193 297.921288 
L 585.398374 310.872935 
L 585.409337 310.952174 
L 585.42578 309.939161 
L 585.442224 308.501988 
L 585.502517 310.665516 
L 585.529923 310.514031 
L 585.710804 312.123664 
L 585.973902 312.586667 
L 586.138339 312.689211 
L 586.215076 312.748252 
L 586.226039 312.620072 
L 586.23152 312.527626 
L 586.297295 215.567393 
L 586.357588 277.404673 
L 586.5001 304.004025 
L 586.702905 308.867108 
L 586.900229 310.41304 
L 586.916673 310.226596 
L 586.927635 297.866908 
L 586.987929 170.121653 
L 587.042741 252.234725 
L 587.17429 303.133953 
L 587.44287 309.48082 
L 587.826556 312.179597 
L 588.128023 312.842251 
L 588.286979 312.989852 
L 588.374678 309.208922 
L 588.418528 311.961303 
L 588.626814 313.048116 
L 588.82962 313.217469 
L 589.0105 313.340989 
L 589.213305 313.420616 
L 589.394186 313.38791 
L 589.613435 313.424112 
L 589.706615 313.464663 
L 589.717578 312.052194 
L 589.723059 308.49422 
L 589.81624 313.335551 
L 589.849127 312.779326 
L 589.925864 313.344873 
L 590.194444 313.482686 
L 590.199925 313.46109 
L 590.216369 313.409196 
L 590.304069 313.498689 
L 590.49043 313.539396 
L 591.668893 313.429161 
L 591.679856 310.436346 
L 591.690818 297.742612 
L 591.78948 311.904592 
L 591.937473 313.186395 
L 592.28279 313.4527 
L 592.808987 313.560216 
L 593.055642 313.597194 
L 593.559915 313.487347 
L 593.620208 313.370043 
L 593.636652 312.086375 
L 593.729833 313.39397 
L 593.757239 313.427685 
L 593.768201 313.3688 
L 593.795608 313.051741 
L 593.877826 313.320014 
L 594.069669 313.533492 
L 594.07515 313.528054 
L 594.140925 311.07414 
L 594.146406 310.890803 
L 594.201218 312.754467 
L 594.354692 313.369732 
L 594.661641 313.555244 
L 594.848002 313.462876 
L 594.869927 312.8943 
L 594.963108 313.340212 
L 595.160432 313.472898 
L 595.215244 313.266411 
L 595.291981 313.399563 
L 595.456418 313.539396 
L 596.377264 313.649709 
L 596.89798 313.655924 
L 597.25974 313.662993 
L 597.632464 313.660585 
L 597.977781 313.493873 
L 598.027112 313.412925 
L 598.070961 313.548641 
L 598.218954 313.637745 
L 598.355985 313.650952 
L 598.624565 313.665091 
L 599.013732 313.64062 
L 599.041138 313.588493 
L 599.123356 313.633861 
L 599.380974 313.549651 
L 599.45223 312.959555 
L 599.496079 313.315353 
L 599.660516 313.619567 
L 603.426116 313.512284 
L 603.44256 313.490843 
L 603.508335 313.580802 
L 603.661809 313.666489 
L 603.678253 313.650408 
L 603.809802 313.645669 
L 607.78917 313.540717 
L 607.838501 313.373927 
L 607.920719 313.48758 
L 608.090637 313.604263 
L 608.348254 313.620499 
L 608.753865 313.634638 
L 608.918302 313.650952 
L 609.143032 313.547165 
L 609.263619 312.649592 
L 609.307468 313.128908 
L 609.526717 313.548641 
L 609.669229 313.601233 
L 609.67471 313.597194 
L 610.140614 313.654137 
L 610.365344 313.650952 
L 614.037764 313.549884 
L 614.098057 311.755437 
L 614.180276 312.326422 
L 614.322787 313.236114 
L 614.350194 313.196494 
L 614.525593 313.358856 
L 614.607811 313.086959 
L 614.585886 313.399563 
L 614.640698 313.240775 
L 614.700992 313.254758 
L 614.673586 313.177073 
L 614.73936 313.201932 
L 614.761285 313.018596 
L 614.843504 313.259419 
L 615.073715 313.438716 
L 615.210746 313.522538 
L 615.221708 313.595951 
L 615.238152 313.504671 
L 615.32037 313.539396 
L 616.920887 313.643572 
L 616.964737 313.646368 
L 616.986662 313.568916 
L 617.019549 313.601233 
L 617.205911 313.558973 
L 617.321016 313.16542 
L 617.414197 313.012381 
L 617.447084 313.104826 
L 617.540265 313.381851 
L 617.556709 313.134346 
L 617.56219 313.118033 
L 617.60604 313.287386 
L 617.688258 313.385891 
L 617.638927 313.139784 
L 617.721146 313.352641 
L 617.732108 313.321567 
L 617.743071 313.401428 
L 617.819808 313.401428 
L 617.880101 313.260196 
L 617.896545 306.505483 
L 617.934913 266.295714 
L 618.006169 302.963046 
L 618.170606 311.736793 
L 618.356967 312.69698 
L 618.521404 312.944018 
L 618.537848 312.934696 
L 618.625547 313.118033 
L 620.79063 313.139784 
L 620.933142 311.975286 
L 620.960548 308.346618 
L 621.05921 308.688432 
L 621.404527 312.863226 
L 621.426452 312.678335 
L 621.442896 312.359827 
L 621.508671 313.052777 
L 621.519633 313.164644 
L 621.541558 312.857011 
L 621.612814 312.999951 
L 621.843025 313.186395 
L 621.848506 313.177073 
L 621.930725 313.254758 
L 622.254117 313.365071 
L 622.500772 313.431259 
L 623.087263 313.349534 
L 623.142075 312.947126 
L 623.229775 313.142892 
L 623.273624 313.212808 
L 623.295549 313.041124 
L 623.339399 310.366429 
L 623.416136 312.122887 
L 623.547686 312.814284 
L 623.575092 312.751359 
L 623.591535 312.239415 
L 623.629904 290.455757 
L 623.74501 300.989846 
L 623.88204 310.506262 
L 623.898484 305.006162 
L 624.051958 202.593994 
L 624.073883 212.848417 
L 624.254763 302.99412 
L 624.523343 309.364292 
L 624.720667 311.067148 
L 624.73163 311.029859 
L 624.753555 310.9211 
L 624.786442 310.77816 
L 624.841254 311.054718 
L 624.983766 311.929452 
L 625.005691 311.697173 
L 625.044059 308.447609 
L 625.142721 310.405271 
L 625.323602 311.971402 
L 625.740175 312.732715 
L 625.849799 312.841474 
L 626.397922 313.027918 
L 626.518508 313.055885 
L 626.644577 313.086959 
L 626.655539 313.062099 
L 626.677464 312.787871 
L 626.715832 306.039373 
L 626.732276 295.722802 
L 626.819976 307.383324 
L 626.841901 308.470914 
L 626.869307 304.695422 
L 626.891232 299.599285 
L 626.967969 307.204648 
L 627.011818 309.558505 
L 627.033743 304.306997 
L 627.143368 213.469897 
L 627.19818 261.246188 
L 627.329729 303.281555 
L 627.55446 309.403135 
L 627.910739 312.181151 
L 628.831584 312.820499 
L 629.001502 312.776218 
L 629.308451 312.959555 
L 629.423557 312.928481 
L 629.500294 309.978004 
L 629.533181 295.287766 
L 629.615399 307.678527 
L 629.774355 311.676199 
L 629.960716 312.478685 
L 630.240259 312.813507 
L 630.481433 312.947126 
L 630.848675 312.887308 
L 630.887043 309.473051 
L 630.980224 311.834676 
L 631.150142 312.748252 
L 631.23236 312.857011 
L 631.484496 313.021703 
L 631.489978 313.009274 
L 631.50094 312.959555 
L 631.594121 313.052777 
L 631.818851 313.077636 
L 631.824332 313.065207 
L 631.851738 312.764566 
L 631.890107 308.991404 
L 631.928475 281.055869 
L 632.021656 301.137448 
L 632.0381 301.28505 
L 632.043581 300.663569 
L 632.08195 280.123649 
L 632.147724 302.201733 
L 632.30668 310.032383 
L 632.410823 311.390318 
L 632.465635 310.758738 
L 632.514966 307.530926 
L 632.591703 309.884782 
L 632.745178 311.40197 
L 633.222044 312.95334 
L 633.233006 312.947126 
L 633.243969 312.962663 
L 633.254931 312.873325 
L 633.276856 311.487424 
L 633.298781 309.869245 
L 633.380999 311.79428 
L 633.671504 312.931589 
L 633.96749 313.102496 
L 634.849967 313.357302 
L 635.765331 313.509254 
L 635.787256 313.532404 
L 635.869475 313.533803 
L 636.121611 313.537998 
L 636.346341 313.445475 
L 636.362785 313.177073 
L 636.52174 234.600224 
L 636.543665 248.350474 
L 636.691658 308.066952 
L 636.697139 308.043647 
L 636.713583 308.323313 
L 636.954757 312.077053 
L 636.960238 312.058409 
L 636.976682 312.140755 
L 636.998607 312.376141 
L 637.009569 290.580053 
L 637.053419 36.19267 
L 637.141118 136.639408 
L 637.349405 298.309713 
L 637.41518 301.665706 
L 637.431623 297.385261 
L 637.491917 241.436506 
L 637.55221 287.402736 
L 637.601541 298.107732 
L 637.612504 284.738139 
L 637.645391 237.47457 
L 637.716647 295.31884 
L 637.804346 300.104237 
L 637.749534 290.696581 
L 637.815309 295.590737 
L 637.870121 229.395327 
L 637.924933 293.159196 
L 638.072926 304.563358 
L 638.363431 310.179985 
L 638.900591 312.602204 
L 638.999253 312.844581 
L 639.015697 312.635609 
L 639.059546 288.016447 
L 639.136284 309.807097 
L 639.30072 312.623956 
L 639.651519 313.217469 
L 639.739218 313.236114 
L 639.744699 313.224461 
L 639.761143 311.869634 
L 639.777587 300.795634 
L 639.865286 312.123664 
L 639.870767 312.052971 
L 639.887211 310.81001 
L 639.974911 312.730384 
L 640.188678 313.245436 
L 640.446296 313.39397 
L 640.923162 313.504593 
L 641.219148 313.544679 
L 641.833045 313.480744 
L 641.865933 313.33089 
L 641.937188 313.506147 
L 642.30443 313.592843 
L 642.468867 313.603253 
L 642.770334 313.609313 
L 651.770502 313.54429 
L 651.863683 313.250097 
L 651.80339 313.551204 
L 651.880127 313.532171 
L 652.022639 313.665712 
L 652.576242 313.677986 
L 653.491606 313.591756 
L 653.497088 313.529608 
L 653.584787 313.634638 
L 653.601231 313.566431 
L 653.694412 313.623063 
L 653.699893 313.633007 
L 653.831442 313.654292 
L 667.342657 313.545844 
L 667.457762 312.807292 
L 667.523537 312.931589 
L 667.578349 313.181734 
L 668.25254 313.58624 
L 668.279946 313.335551 
L 668.34572 313.48222 
L 668.515638 313.093173 
L 668.559488 313.257866 
L 668.674594 313.34798 
L 668.680075 313.314576 
L 668.712962 312.240969 
L 668.7897 308.533062 
L 668.88288 309.504125 
L 669.036355 313.155321 
L 670.00105 313.391795 
L 670.170968 313.44431 
L 670.53821 313.341765 
L 670.576578 312.192027 
L 670.636872 309.302144 
L 670.686203 311.412069 
L 670.845158 312.796417 
L 671.047963 313.145999 
L 671.086332 313.215916 
L 671.206919 313.33322 
L 671.415205 313.338658 
L 671.420687 313.315353 
L 671.596086 312.86944 
L 671.634454 312.962663 
L 671.848222 313.240775 
L 672.034584 313.33089 
L 672.040065 313.299039 
L 672.06199 312.52918 
L 672.083915 300.313987 
L 672.19902 307.422167 
L 672.363457 312.13221 
L 672.516931 312.697757 
L 672.533375 312.563361 
L 672.560781 309.861476 
L 672.686849 277.948468 
L 672.730699 291.123848 
L 672.884173 303.071805 
L 672.790992 287.659096 
L 672.900617 303.025194 
L 672.91706 303.335934 
L 673.196603 311.719702 
L 673.41037 312.587444 
L 673.580288 312.832152 
L 673.618657 311.52549 
L 673.7228 284.0079 
L 673.76665 292.460031 
L 673.920124 309.908087 
L 674.150336 312.109681 
L 674.331216 312.504321 
L 674.342178 312.406438 
L 674.364103 312.378471 
L 674.429878 312.474801 
L 674.44084 312.474801 
L 674.468246 312.490338 
L 674.506615 312.38624 
L 674.544984 311.238055 
L 674.583352 305.394587 
L 674.660089 310.557534 
L 674.824526 312.128325 
L 675.076662 312.645708 
L 675.158881 312.748252 
L 675.394573 312.931589 
L 675.465829 312.826973 
L 675.482273 312.582006 
L 675.482273 312.582006 
" clip-path="url(#p9810a60d2f)" style="fill: none; stroke: #1f77b4; stroke-width: 1.5; stroke-linecap: square"/>
   </g>
   <g id="patch_3">
    <path d="M 39.65 327.558125 
L 39.65 22.318125 
" style="fill: none; stroke: #000000; stroke-width: 0.8; stroke-linejoin: miter; stroke-linecap: square"/>
   </g>
   <g id="patch_4">
    <path d="M 705.76 327.558125 
L 705.76 22.318125 
" style="fill: none; stroke: #000000; stroke-width: 0.8; stroke-linejoin: miter; stroke-linecap: square"/>
   </g>
   <g id="patch_5">
    <path d="M 39.65 327.558125 
L 705.76 327.558125 
" style="fill: none; stroke: #000000; stroke-width: 0.8; stroke-linejoin: miter; stroke-linecap: square"/>
   </g>
   <g id="patch_6">
    <path d="M 39.65 22.318125 
L 705.76 22.318125 
" style="fill: none; stroke: #000000; stroke-width: 0.8; stroke-linejoin: miter; stroke-linecap: square"/>
   </g>
   <g id="text_13">
    <!-- training -->
    <g transform="translate(349.461562 16.318125) scale(0.12 -0.12)">
     <defs>
      <path id="DejaVuSans-74" d="M 1172 4494 
L 1172 3500 
L 2356 3500 
L 2356 3053 
L 1172 3053 
L 1172 1153 
Q 1172 725 1289 603 
Q 1406 481 1766 481 
L 2356 481 
L 2356 0 
L 1766 0 
Q 1100 0 847 248 
Q 594 497 594 1153 
L 594 3053 
L 172 3053 
L 172 3500 
L 594 3500 
L 594 4494 
L 1172 4494 
z
" transform="scale(0.015625)"/>
      <path id="DejaVuSans-72" d="M 2631 2963 
Q 2534 3019 2420 3045 
Q 2306 3072 2169 3072 
Q 1681 3072 1420 2755 
Q 1159 2438 1159 1844 
L 1159 0 
L 581 0 
L 581 3500 
L 1159 3500 
L 1159 2956 
Q 1341 3275 1631 3429 
Q 1922 3584 2338 3584 
Q 2397 3584 2469 3576 
Q 2541 3569 2628 3553 
L 2631 2963 
z
" transform="scale(0.015625)"/>
      <path id="DejaVuSans-61" d="M 2194 1759 
Q 1497 1759 1228 1600 
Q 959 1441 959 1056 
Q 959 750 1161 570 
Q 1363 391 1709 391 
Q 2188 391 2477 730 
Q 2766 1069 2766 1631 
L 2766 1759 
L 2194 1759 
z
M 3341 1997 
L 3341 0 
L 2766 0 
L 2766 531 
Q 2569 213 2275 61 
Q 1981 -91 1556 -91 
Q 1019 -91 701 211 
Q 384 513 384 1019 
Q 384 1609 779 1909 
Q 1175 2209 1959 2209 
L 2766 2209 
L 2766 2266 
Q 2766 2663 2505 2880 
Q 2244 3097 1772 3097 
Q 1472 3097 1187 3025 
Q 903 2953 641 2809 
L 641 3341 
Q 956 3463 1253 3523 
Q 1550 3584 1831 3584 
Q 2591 3584 2966 3190 
Q 3341 2797 3341 1997 
z
" transform="scale(0.015625)"/>
      <path id="DejaVuSans-69" d="M 603 3500 
L 1178 3500 
L 1178 0 
L 603 0 
L 603 3500 
z
M 603 4863 
L 1178 4863 
L 1178 4134 
L 603 4134 
L 603 4863 
z
" transform="scale(0.015625)"/>
      <path id="DejaVuSans-6e" d="M 3513 2113 
L 3513 0 
L 2938 0 
L 2938 2094 
Q 2938 2591 2744 2837 
Q 2550 3084 2163 3084 
Q 1697 3084 1428 2787 
Q 1159 2491 1159 1978 
L 1159 0 
L 581 0 
L 581 3500 
L 1159 3500 
L 1159 2956 
Q 1366 3272 1645 3428 
Q 1925 3584 2291 3584 
Q 2894 3584 3203 3211 
Q 3513 2838 3513 2113 
z
" transform="scale(0.015625)"/>
      <path id="DejaVuSans-67" d="M 2906 1791 
Q 2906 2416 2648 2759 
Q 2391 3103 1925 3103 
Q 1463 3103 1205 2759 
Q 947 2416 947 1791 
Q 947 1169 1205 825 
Q 1463 481 1925 481 
Q 2391 481 2648 825 
Q 2906 1169 2906 1791 
z
M 3481 434 
Q 3481 -459 3084 -895 
Q 2688 -1331 1869 -1331 
Q 1566 -1331 1297 -1286 
Q 1028 -1241 775 -1147 
L 775 -588 
Q 1028 -725 1275 -790 
Q 1522 -856 1778 -856 
Q 2344 -856 2625 -561 
Q 2906 -266 2906 331 
L 2906 616 
Q 2728 306 2450 153 
Q 2172 0 1784 0 
Q 1141 0 747 490 
Q 353 981 353 1791 
Q 353 2603 747 3093 
Q 1141 3584 1784 3584 
Q 2172 3584 2450 3431 
Q 2728 3278 2906 2969 
L 2906 3500 
L 3481 3500 
L 3481 434 
z
" transform="scale(0.015625)"/>
     </defs>
     <use xlink:href="#DejaVuSans-74"/>
     <use xlink:href="#DejaVuSans-72" x="39.208984"/>
     <use xlink:href="#DejaVuSans-61" x="80.322266"/>
     <use xlink:href="#DejaVuSans-69" x="141.601562"/>
     <use xlink:href="#DejaVuSans-6e" x="169.384766"/>
     <use xlink:href="#DejaVuSans-69" x="232.763672"/>
     <use xlink:href="#DejaVuSans-6e" x="260.546875"/>
     <use xlink:href="#DejaVuSans-67" x="323.925781"/>
    </g>
   </g>
   <g id="legend_1">
    <g id="patch_7">
     <path d="M 46.65 44.99625 
L 125.010938 44.99625 
Q 127.010938 44.99625 127.010938 42.99625 
L 127.010938 29.318125 
Q 127.010938 27.318125 125.010938 27.318125 
L 46.65 27.318125 
Q 44.65 27.318125 44.65 29.318125 
L 44.65 42.99625 
Q 44.65 44.99625 46.65 44.99625 
z
" style="fill: #ffffff; opacity: 0.8; stroke: #cccccc; stroke-linejoin: miter"/>
    </g>
    <g id="line2d_14">
     <path d="M 48.65 35.416563 
L 58.65 35.416563 
L 68.65 35.416563 
" style="fill: none; stroke: #1f77b4; stroke-width: 1.5; stroke-linecap: square"/>
    </g>
    <g id="text_14">
     <!-- observed -->
     <g transform="translate(76.65 38.916563) scale(0.1 -0.1)">
      <defs>
       <path id="DejaVuSans-6f" d="M 1959 3097 
Q 1497 3097 1228 2736 
Q 959 2375 959 1747 
Q 959 1119 1226 758 
Q 1494 397 1959 397 
Q 2419 397 2687 759 
Q 2956 1122 2956 1747 
Q 2956 2369 2687 2733 
Q 2419 3097 1959 3097 
z
M 1959 3584 
Q 2709 3584 3137 3096 
Q 3566 2609 3566 1747 
Q 3566 888 3137 398 
Q 2709 -91 1959 -91 
Q 1206 -91 779 398 
Q 353 888 353 1747 
Q 353 2609 779 3096 
Q 1206 3584 1959 3584 
z
" transform="scale(0.015625)"/>
       <path id="DejaVuSans-62" d="M 3116 1747 
Q 3116 2381 2855 2742 
Q 2594 3103 2138 3103 
Q 1681 3103 1420 2742 
Q 1159 2381 1159 1747 
Q 1159 1113 1420 752 
Q 1681 391 2138 391 
Q 2594 391 2855 752 
Q 3116 1113 3116 1747 
z
M 1159 2969 
Q 1341 3281 1617 3432 
Q 1894 3584 2278 3584 
Q 2916 3584 3314 3078 
Q 3713 2572 3713 1747 
Q 3713 922 3314 415 
Q 2916 -91 2278 -91 
Q 1894 -91 1617 61 
Q 1341 213 1159 525 
L 1159 0 
L 581 0 
L 581 4863 
L 1159 4863 
L 1159 2969 
z
" transform="scale(0.015625)"/>
       <path id="DejaVuSans-73" d="M 2834 3397 
L 2834 2853 
Q 2591 2978 2328 3040 
Q 2066 3103 1784 3103 
Q 1356 3103 1142 2972 
Q 928 2841 928 2578 
Q 928 2378 1081 2264 
Q 1234 2150 1697 2047 
L 1894 2003 
Q 2506 1872 2764 1633 
Q 3022 1394 3022 966 
Q 3022 478 2636 193 
Q 2250 -91 1575 -91 
Q 1294 -91 989 -36 
Q 684 19 347 128 
L 347 722 
Q 666 556 975 473 
Q 1284 391 1588 391 
Q 1994 391 2212 530 
Q 2431 669 2431 922 
Q 2431 1156 2273 1281 
Q 2116 1406 1581 1522 
L 1381 1569 
Q 847 1681 609 1914 
Q 372 2147 372 2553 
Q 372 3047 722 3315 
Q 1072 3584 1716 3584 
Q 2034 3584 2315 3537 
Q 2597 3491 2834 3397 
z
" transform="scale(0.015625)"/>
       <path id="DejaVuSans-65" d="M 3597 1894 
L 3597 1613 
L 953 1613 
Q 991 1019 1311 708 
Q 1631 397 2203 397 
Q 2534 397 2845 478 
Q 3156 559 3463 722 
L 3463 178 
Q 3153 47 2828 -22 
Q 2503 -91 2169 -91 
Q 1331 -91 842 396 
Q 353 884 353 1716 
Q 353 2575 817 3079 
Q 1281 3584 2069 3584 
Q 2775 3584 3186 3129 
Q 3597 2675 3597 1894 
z
M 3022 2063 
Q 3016 2534 2758 2815 
Q 2500 3097 2075 3097 
Q 1594 3097 1305 2825 
Q 1016 2553 972 2059 
L 3022 2063 
z
" transform="scale(0.015625)"/>
       <path id="DejaVuSans-76" d="M 191 3500 
L 800 3500 
L 1894 563 
L 2988 3500 
L 3597 3500 
L 2284 0 
L 1503 0 
L 191 3500 
z
" transform="scale(0.015625)"/>
       <path id="DejaVuSans-64" d="M 2906 2969 
L 2906 4863 
L 3481 4863 
L 3481 0 
L 2906 0 
L 2906 525 
Q 2725 213 2448 61 
Q 2172 -91 1784 -91 
Q 1150 -91 751 415 
Q 353 922 353 1747 
Q 353 2572 751 3078 
Q 1150 3584 1784 3584 
Q 2172 3584 2448 3432 
Q 2725 3281 2906 2969 
z
M 947 1747 
Q 947 1113 1208 752 
Q 1469 391 1925 391 
Q 2381 391 2643 752 
Q 2906 1113 2906 1747 
Q 2906 2381 2643 2742 
Q 2381 3103 1925 3103 
Q 1469 3103 1208 2742 
Q 947 2381 947 1747 
z
" transform="scale(0.015625)"/>
      </defs>
      <use xlink:href="#DejaVuSans-6f"/>
      <use xlink:href="#DejaVuSans-62" x="61.181641"/>
      <use xlink:href="#DejaVuSans-73" x="124.658203"/>
      <use xlink:href="#DejaVuSans-65" x="176.757812"/>
      <use xlink:href="#DejaVuSans-72" x="238.28125"/>
      <use xlink:href="#DejaVuSans-76" x="279.394531"/>
      <use xlink:href="#DejaVuSans-65" x="338.574219"/>
      <use xlink:href="#DejaVuSans-64" x="400.097656"/>
     </g>
    </g>
   </g>
  </g>
 </g>
 <defs>
  <clipPath id="p9810a60d2f">
   <rect x="39.65" y="22.318125" width="666.11" height="305.24"/>
  </clipPath>
 </defs>
</svg>
