<?xml version="1.0" encoding="utf-8" standalone="no"?>
<!DOCTYPE svg PUBLIC "-//W3C//DTD SVG 1.1//EN"
  "http://www.w3.org/Graphics/SVG/1.1/DTD/svg11.dtd">
<svg xmlns:xlink="http://www.w3.org/1999/xlink" width="720pt" height="360pt" viewBox="0 0 720 360" xmlns="http://www.w3.org/2000/svg" version="1.1">
 <metadata>
  <rdf:RDF xmlns:dc="http://purl.org/dc/elements/1.1/" xmlns:cc="http://creativecommons.org/ns#" xmlns:rdf="http://www.w3.org/1999/02/22-rdf-syntax-ns#">
   <cc:Work>
    <dc:type rdf:resource="http://purl.org/dc/dcmitype/StillImage"/>
    <dc:date>2023-10-23T10:53:19.612211</dc:date>
    <dc:format>image/svg+xml</dc:format>
    <dc:creator>
     <cc:Agent>
      <dc:title>Matplotlib v3.7.1, https://matplotlib.org/</dc:title>
     </cc:Agent>
    </dc:creator>
   </cc:Work>
  </rdf:RDF>
 </metadata>
 <defs>
  <style type="text/css">*{stroke-linejoin: round; stroke-linecap: butt}</style>
 </defs>
 <g id="figure_1">
  <g id="patch_1">
   <path d="M 0 360 
L 720 360 
L 720 0 
L 0 0 
z
" style="fill: #ffffff"/>
  </g>
  <g id="axes_1">
   <g id="patch_2">
    <path d="M 90 288 
L 648 288 
L 648 43.2 
L 90 43.2 
z
" style="fill: #ffffff"/>
   </g>
   <g id="matplotlib.axis_1">
    <g id="xtick_1">
     <g id="line2d_1">
      <defs>
       <path id="m02d0c07836" d="M 0 0 
L 0 3.5 
" style="stroke: #000000; stroke-width: 0.8"/>
      </defs>
      <g>
       <use xlink:href="#m02d0c07836" x="149.427837" y="288" style="stroke: #000000; stroke-width: 0.8"/>
      </g>
     </g>
     <g id="text_1">
      <!-- 2023-08-15 -->
      <g transform="translate(87.784496 337.765903) rotate(-30) scale(0.12 -0.12)">
       <defs>
        <path id="DejaVuSans-32" d="M 1228 531 
L 3431 531 
L 3431 0 
L 469 0 
L 469 531 
Q 828 903 1448 1529 
Q 2069 2156 2228 2338 
Q 2531 2678 2651 2914 
Q 2772 3150 2772 3378 
Q 2772 3750 2511 3984 
Q 2250 4219 1831 4219 
Q 1534 4219 1204 4116 
Q 875 4013 500 3803 
L 500 4441 
Q 881 4594 1212 4672 
Q 1544 4750 1819 4750 
Q 2544 4750 2975 4387 
Q 3406 4025 3406 3419 
Q 3406 3131 3298 2873 
Q 3191 2616 2906 2266 
Q 2828 2175 2409 1742 
Q 1991 1309 1228 531 
z
" transform="scale(0.015625)"/>
        <path id="DejaVuSans-30" d="M 2034 4250 
Q 1547 4250 1301 3770 
Q 1056 3291 1056 2328 
Q 1056 1369 1301 889 
Q 1547 409 2034 409 
Q 2525 409 2770 889 
Q 3016 1369 3016 2328 
Q 3016 3291 2770 3770 
Q 2525 4250 2034 4250 
z
M 2034 4750 
Q 2819 4750 3233 4129 
Q 3647 3509 3647 2328 
Q 3647 1150 3233 529 
Q 2819 -91 2034 -91 
Q 1250 -91 836 529 
Q 422 1150 422 2328 
Q 422 3509 836 4129 
Q 1250 4750 2034 4750 
z
" transform="scale(0.015625)"/>
        <path id="DejaVuSans-33" d="M 2597 2516 
Q 3050 2419 3304 2112 
Q 3559 1806 3559 1356 
Q 3559 666 3084 287 
Q 2609 -91 1734 -91 
Q 1441 -91 1130 -33 
Q 819 25 488 141 
L 488 750 
Q 750 597 1062 519 
Q 1375 441 1716 441 
Q 2309 441 2620 675 
Q 2931 909 2931 1356 
Q 2931 1769 2642 2001 
Q 2353 2234 1838 2234 
L 1294 2234 
L 1294 2753 
L 1863 2753 
Q 2328 2753 2575 2939 
Q 2822 3125 2822 3475 
Q 2822 3834 2567 4026 
Q 2313 4219 1838 4219 
Q 1578 4219 1281 4162 
Q 984 4106 628 3988 
L 628 4550 
Q 988 4650 1302 4700 
Q 1616 4750 1894 4750 
Q 2613 4750 3031 4423 
Q 3450 4097 3450 3541 
Q 3450 3153 3228 2886 
Q 3006 2619 2597 2516 
z
" transform="scale(0.015625)"/>
        <path id="DejaVuSans-2d" d="M 313 2009 
L 1997 2009 
L 1997 1497 
L 313 1497 
L 313 2009 
z
" transform="scale(0.015625)"/>
        <path id="DejaVuSans-38" d="M 2034 2216 
Q 1584 2216 1326 1975 
Q 1069 1734 1069 1313 
Q 1069 891 1326 650 
Q 1584 409 2034 409 
Q 2484 409 2743 651 
Q 3003 894 3003 1313 
Q 3003 1734 2745 1975 
Q 2488 2216 2034 2216 
z
M 1403 2484 
Q 997 2584 770 2862 
Q 544 3141 544 3541 
Q 544 4100 942 4425 
Q 1341 4750 2034 4750 
Q 2731 4750 3128 4425 
Q 3525 4100 3525 3541 
Q 3525 3141 3298 2862 
Q 3072 2584 2669 2484 
Q 3125 2378 3379 2068 
Q 3634 1759 3634 1313 
Q 3634 634 3220 271 
Q 2806 -91 2034 -91 
Q 1263 -91 848 271 
Q 434 634 434 1313 
Q 434 1759 690 2068 
Q 947 2378 1403 2484 
z
M 1172 3481 
Q 1172 3119 1398 2916 
Q 1625 2713 2034 2713 
Q 2441 2713 2670 2916 
Q 2900 3119 2900 3481 
Q 2900 3844 2670 4047 
Q 2441 4250 2034 4250 
Q 1625 4250 1398 4047 
Q 1172 3844 1172 3481 
z
" transform="scale(0.015625)"/>
        <path id="DejaVuSans-31" d="M 794 531 
L 1825 531 
L 1825 4091 
L 703 3866 
L 703 4441 
L 1819 4666 
L 2450 4666 
L 2450 531 
L 3481 531 
L 3481 0 
L 794 0 
L 794 531 
z
" transform="scale(0.015625)"/>
        <path id="DejaVuSans-35" d="M 691 4666 
L 3169 4666 
L 3169 4134 
L 1269 4134 
L 1269 2991 
Q 1406 3038 1543 3061 
Q 1681 3084 1819 3084 
Q 2600 3084 3056 2656 
Q 3513 2228 3513 1497 
Q 3513 744 3044 326 
Q 2575 -91 1722 -91 
Q 1428 -91 1123 -41 
Q 819 9 494 109 
L 494 744 
Q 775 591 1075 516 
Q 1375 441 1709 441 
Q 2250 441 2565 725 
Q 2881 1009 2881 1497 
Q 2881 1984 2565 2268 
Q 2250 2553 1709 2553 
Q 1456 2553 1204 2497 
Q 953 2441 691 2322 
L 691 4666 
z
" transform="scale(0.015625)"/>
       </defs>
       <use xlink:href="#DejaVuSans-32"/>
       <use xlink:href="#DejaVuSans-30" x="63.623047"/>
       <use xlink:href="#DejaVuSans-32" x="127.246094"/>
       <use xlink:href="#DejaVuSans-33" x="190.869141"/>
       <use xlink:href="#DejaVuSans-2d" x="254.492188"/>
       <use xlink:href="#DejaVuSans-30" x="290.576172"/>
       <use xlink:href="#DejaVuSans-38" x="354.199219"/>
       <use xlink:href="#DejaVuSans-2d" x="417.822266"/>
       <use xlink:href="#DejaVuSans-31" x="453.90625"/>
       <use xlink:href="#DejaVuSans-35" x="517.529297"/>
      </g>
     </g>
    </g>
    <g id="xtick_2">
     <g id="line2d_2">
      <g>
       <use xlink:href="#m02d0c07836" x="265.246121" y="288" style="stroke: #000000; stroke-width: 0.8"/>
      </g>
     </g>
     <g id="text_2">
      <!-- 2023-09-01 -->
      <g transform="translate(203.602779 337.765903) rotate(-30) scale(0.12 -0.12)">
       <defs>
        <path id="DejaVuSans-39" d="M 703 97 
L 703 672 
Q 941 559 1184 500 
Q 1428 441 1663 441 
Q 2288 441 2617 861 
Q 2947 1281 2994 2138 
Q 2813 1869 2534 1725 
Q 2256 1581 1919 1581 
Q 1219 1581 811 2004 
Q 403 2428 403 3163 
Q 403 3881 828 4315 
Q 1253 4750 1959 4750 
Q 2769 4750 3195 4129 
Q 3622 3509 3622 2328 
Q 3622 1225 3098 567 
Q 2575 -91 1691 -91 
Q 1453 -91 1209 -44 
Q 966 3 703 97 
z
M 1959 2075 
Q 2384 2075 2632 2365 
Q 2881 2656 2881 3163 
Q 2881 3666 2632 3958 
Q 2384 4250 1959 4250 
Q 1534 4250 1286 3958 
Q 1038 3666 1038 3163 
Q 1038 2656 1286 2365 
Q 1534 2075 1959 2075 
z
" transform="scale(0.015625)"/>
       </defs>
       <use xlink:href="#DejaVuSans-32"/>
       <use xlink:href="#DejaVuSans-30" x="63.623047"/>
       <use xlink:href="#DejaVuSans-32" x="127.246094"/>
       <use xlink:href="#DejaVuSans-33" x="190.869141"/>
       <use xlink:href="#DejaVuSans-2d" x="254.492188"/>
       <use xlink:href="#DejaVuSans-30" x="290.576172"/>
       <use xlink:href="#DejaVuSans-39" x="354.199219"/>
       <use xlink:href="#DejaVuSans-2d" x="417.822266"/>
       <use xlink:href="#DejaVuSans-30" x="453.90625"/>
       <use xlink:href="#DejaVuSans-31" x="517.529297"/>
      </g>
     </g>
    </g>
    <g id="xtick_3">
     <g id="line2d_3">
      <g>
       <use xlink:href="#m02d0c07836" x="360.625884" y="288" style="stroke: #000000; stroke-width: 0.8"/>
      </g>
     </g>
     <g id="text_3">
      <!-- 2023-09-15 -->
      <g transform="translate(298.982542 337.765903) rotate(-30) scale(0.12 -0.12)">
       <use xlink:href="#DejaVuSans-32"/>
       <use xlink:href="#DejaVuSans-30" x="63.623047"/>
       <use xlink:href="#DejaVuSans-32" x="127.246094"/>
       <use xlink:href="#DejaVuSans-33" x="190.869141"/>
       <use xlink:href="#DejaVuSans-2d" x="254.492188"/>
       <use xlink:href="#DejaVuSans-30" x="290.576172"/>
       <use xlink:href="#DejaVuSans-39" x="354.199219"/>
       <use xlink:href="#DejaVuSans-2d" x="417.822266"/>
       <use xlink:href="#DejaVuSans-31" x="453.90625"/>
       <use xlink:href="#DejaVuSans-35" x="517.529297"/>
      </g>
     </g>
    </g>
    <g id="xtick_4">
     <g id="line2d_4">
      <g>
       <use xlink:href="#m02d0c07836" x="469.631327" y="288" style="stroke: #000000; stroke-width: 0.8"/>
      </g>
     </g>
     <g id="text_4">
      <!-- 2023-10-01 -->
      <g transform="translate(407.987986 337.765903) rotate(-30) scale(0.12 -0.12)">
       <use xlink:href="#DejaVuSans-32"/>
       <use xlink:href="#DejaVuSans-30" x="63.623047"/>
       <use xlink:href="#DejaVuSans-32" x="127.246094"/>
       <use xlink:href="#DejaVuSans-33" x="190.869141"/>
       <use xlink:href="#DejaVuSans-2d" x="254.492188"/>
       <use xlink:href="#DejaVuSans-31" x="290.576172"/>
       <use xlink:href="#DejaVuSans-30" x="354.199219"/>
       <use xlink:href="#DejaVuSans-2d" x="417.822266"/>
       <use xlink:href="#DejaVuSans-30" x="453.90625"/>
       <use xlink:href="#DejaVuSans-31" x="517.529297"/>
      </g>
     </g>
    </g>
    <g id="xtick_5">
     <g id="line2d_5">
      <g>
       <use xlink:href="#m02d0c07836" x="565.01109" y="288" style="stroke: #000000; stroke-width: 0.8"/>
      </g>
     </g>
     <g id="text_5">
      <!-- 2023-10-15 -->
      <g transform="translate(503.367749 337.765903) rotate(-30) scale(0.12 -0.12)">
       <use xlink:href="#DejaVuSans-32"/>
       <use xlink:href="#DejaVuSans-30" x="63.623047"/>
       <use xlink:href="#DejaVuSans-32" x="127.246094"/>
       <use xlink:href="#DejaVuSans-33" x="190.869141"/>
       <use xlink:href="#DejaVuSans-2d" x="254.492188"/>
       <use xlink:href="#DejaVuSans-31" x="290.576172"/>
       <use xlink:href="#DejaVuSans-30" x="354.199219"/>
       <use xlink:href="#DejaVuSans-2d" x="417.822266"/>
       <use xlink:href="#DejaVuSans-31" x="453.90625"/>
       <use xlink:href="#DejaVuSans-35" x="517.529297"/>
      </g>
     </g>
    </g>
   </g>
   <g id="matplotlib.axis_2">
    <g id="ytick_1">
     <g id="line2d_6">
      <defs>
       <path id="m482eddeafc" d="M 0 0 
L -3.5 0 
" style="stroke: #000000; stroke-width: 0.8"/>
      </defs>
      <g>
       <use xlink:href="#m482eddeafc" x="90" y="260.749591" style="stroke: #000000; stroke-width: 0.8"/>
      </g>
     </g>
     <g id="text_6">
      <!-- 0.0 -->
      <g transform="translate(63.91625 265.308653) scale(0.12 -0.12)">
       <defs>
        <path id="DejaVuSans-2e" d="M 684 794 
L 1344 794 
L 1344 0 
L 684 0 
L 684 794 
z
" transform="scale(0.015625)"/>
       </defs>
       <use xlink:href="#DejaVuSans-30"/>
       <use xlink:href="#DejaVuSans-2e" x="63.623047"/>
       <use xlink:href="#DejaVuSans-30" x="95.410156"/>
      </g>
     </g>
    </g>
    <g id="ytick_2">
     <g id="line2d_7">
      <g>
       <use xlink:href="#m482eddeafc" x="90" y="225.567952" style="stroke: #000000; stroke-width: 0.8"/>
      </g>
     </g>
     <g id="text_7">
      <!-- 0.2 -->
      <g transform="translate(63.91625 230.127014) scale(0.12 -0.12)">
       <use xlink:href="#DejaVuSans-30"/>
       <use xlink:href="#DejaVuSans-2e" x="63.623047"/>
       <use xlink:href="#DejaVuSans-32" x="95.410156"/>
      </g>
     </g>
    </g>
    <g id="ytick_3">
     <g id="line2d_8">
      <g>
       <use xlink:href="#m482eddeafc" x="90" y="190.386313" style="stroke: #000000; stroke-width: 0.8"/>
      </g>
     </g>
     <g id="text_8">
      <!-- 0.4 -->
      <g transform="translate(63.91625 194.945375) scale(0.12 -0.12)">
       <defs>
        <path id="DejaVuSans-34" d="M 2419 4116 
L 825 1625 
L 2419 1625 
L 2419 4116 
z
M 2253 4666 
L 3047 4666 
L 3047 1625 
L 3713 1625 
L 3713 1100 
L 3047 1100 
L 3047 0 
L 2419 0 
L 2419 1100 
L 313 1100 
L 313 1709 
L 2253 4666 
z
" transform="scale(0.015625)"/>
       </defs>
       <use xlink:href="#DejaVuSans-30"/>
       <use xlink:href="#DejaVuSans-2e" x="63.623047"/>
       <use xlink:href="#DejaVuSans-34" x="95.410156"/>
      </g>
     </g>
    </g>
    <g id="ytick_4">
     <g id="line2d_9">
      <g>
       <use xlink:href="#m482eddeafc" x="90" y="155.204674" style="stroke: #000000; stroke-width: 0.8"/>
      </g>
     </g>
     <g id="text_9">
      <!-- 0.6 -->
      <g transform="translate(63.91625 159.763736) scale(0.12 -0.12)">
       <defs>
        <path id="DejaVuSans-36" d="M 2113 2584 
Q 1688 2584 1439 2293 
Q 1191 2003 1191 1497 
Q 1191 994 1439 701 
Q 1688 409 2113 409 
Q 2538 409 2786 701 
Q 3034 994 3034 1497 
Q 3034 2003 2786 2293 
Q 2538 2584 2113 2584 
z
M 3366 4563 
L 3366 3988 
Q 3128 4100 2886 4159 
Q 2644 4219 2406 4219 
Q 1781 4219 1451 3797 
Q 1122 3375 1075 2522 
Q 1259 2794 1537 2939 
Q 1816 3084 2150 3084 
Q 2853 3084 3261 2657 
Q 3669 2231 3669 1497 
Q 3669 778 3244 343 
Q 2819 -91 2113 -91 
Q 1303 -91 875 529 
Q 447 1150 447 2328 
Q 447 3434 972 4092 
Q 1497 4750 2381 4750 
Q 2619 4750 2861 4703 
Q 3103 4656 3366 4563 
z
" transform="scale(0.015625)"/>
       </defs>
       <use xlink:href="#DejaVuSans-30"/>
       <use xlink:href="#DejaVuSans-2e" x="63.623047"/>
       <use xlink:href="#DejaVuSans-36" x="95.410156"/>
      </g>
     </g>
    </g>
    <g id="ytick_5">
     <g id="line2d_10">
      <g>
       <use xlink:href="#m482eddeafc" x="90" y="120.023035" style="stroke: #000000; stroke-width: 0.8"/>
      </g>
     </g>
     <g id="text_10">
      <!-- 0.8 -->
      <g transform="translate(63.91625 124.582097) scale(0.12 -0.12)">
       <use xlink:href="#DejaVuSans-30"/>
       <use xlink:href="#DejaVuSans-2e" x="63.623047"/>
       <use xlink:href="#DejaVuSans-38" x="95.410156"/>
      </g>
     </g>
    </g>
    <g id="ytick_6">
     <g id="line2d_11">
      <g>
       <use xlink:href="#m482eddeafc" x="90" y="84.841396" style="stroke: #000000; stroke-width: 0.8"/>
      </g>
     </g>
     <g id="text_11">
      <!-- 1.0 -->
      <g transform="translate(63.91625 89.400458) scale(0.12 -0.12)">
       <use xlink:href="#DejaVuSans-31"/>
       <use xlink:href="#DejaVuSans-2e" x="63.623047"/>
       <use xlink:href="#DejaVuSans-30" x="95.410156"/>
      </g>
     </g>
    </g>
    <g id="ytick_7">
     <g id="line2d_12">
      <g>
       <use xlink:href="#m482eddeafc" x="90" y="49.659757" style="stroke: #000000; stroke-width: 0.8"/>
      </g>
     </g>
     <g id="text_12">
      <!-- 1.2 -->
      <g transform="translate(63.91625 54.218819) scale(0.12 -0.12)">
       <use xlink:href="#DejaVuSans-31"/>
       <use xlink:href="#DejaVuSans-2e" x="63.623047"/>
       <use xlink:href="#DejaVuSans-32" x="95.410156"/>
      </g>
     </g>
    </g>
    <g id="text_13">
     <!-- Meters -->
     <g transform="translate(57.836562 182.6875) rotate(-90) scale(0.1 -0.1)">
      <defs>
       <path id="DejaVuSans-4d" d="M 628 4666 
L 1569 4666 
L 2759 1491 
L 3956 4666 
L 4897 4666 
L 4897 0 
L 4281 0 
L 4281 4097 
L 3078 897 
L 2444 897 
L 1241 4097 
L 1241 0 
L 628 0 
L 628 4666 
z
" transform="scale(0.015625)"/>
       <path id="DejaVuSans-65" d="M 3597 1894 
L 3597 1613 
L 953 1613 
Q 991 1019 1311 708 
Q 1631 397 2203 397 
Q 2534 397 2845 478 
Q 3156 559 3463 722 
L 3463 178 
Q 3153 47 2828 -22 
Q 2503 -91 2169 -91 
Q 1331 -91 842 396 
Q 353 884 353 1716 
Q 353 2575 817 3079 
Q 1281 3584 2069 3584 
Q 2775 3584 3186 3129 
Q 3597 2675 3597 1894 
z
M 3022 2063 
Q 3016 2534 2758 2815 
Q 2500 3097 2075 3097 
Q 1594 3097 1305 2825 
Q 1016 2553 972 2059 
L 3022 2063 
z
" transform="scale(0.015625)"/>
       <path id="DejaVuSans-74" d="M 1172 4494 
L 1172 3500 
L 2356 3500 
L 2356 3053 
L 1172 3053 
L 1172 1153 
Q 1172 725 1289 603 
Q 1406 481 1766 481 
L 2356 481 
L 2356 0 
L 1766 0 
Q 1100 0 847 248 
Q 594 497 594 1153 
L 594 3053 
L 172 3053 
L 172 3500 
L 594 3500 
L 594 4494 
L 1172 4494 
z
" transform="scale(0.015625)"/>
       <path id="DejaVuSans-72" d="M 2631 2963 
Q 2534 3019 2420 3045 
Q 2306 3072 2169 3072 
Q 1681 3072 1420 2755 
Q 1159 2438 1159 1844 
L 1159 0 
L 581 0 
L 581 3500 
L 1159 3500 
L 1159 2956 
Q 1341 3275 1631 3429 
Q 1922 3584 2338 3584 
Q 2397 3584 2469 3576 
Q 2541 3569 2628 3553 
L 2631 2963 
z
" transform="scale(0.015625)"/>
       <path id="DejaVuSans-73" d="M 2834 3397 
L 2834 2853 
Q 2591 2978 2328 3040 
Q 2066 3103 1784 3103 
Q 1356 3103 1142 2972 
Q 928 2841 928 2578 
Q 928 2378 1081 2264 
Q 1234 2150 1697 2047 
L 1894 2003 
Q 2506 1872 2764 1633 
Q 3022 1394 3022 966 
Q 3022 478 2636 193 
Q 2250 -91 1575 -91 
Q 1294 -91 989 -36 
Q 684 19 347 128 
L 347 722 
Q 666 556 975 473 
Q 1284 391 1588 391 
Q 1994 391 2212 530 
Q 2431 669 2431 922 
Q 2431 1156 2273 1281 
Q 2116 1406 1581 1522 
L 1381 1569 
Q 847 1681 609 1914 
Q 372 2147 372 2553 
Q 372 3047 722 3315 
Q 1072 3584 1716 3584 
Q 2034 3584 2315 3537 
Q 2597 3491 2834 3397 
z
" transform="scale(0.015625)"/>
      </defs>
      <use xlink:href="#DejaVuSans-4d"/>
      <use xlink:href="#DejaVuSans-65" x="86.279297"/>
      <use xlink:href="#DejaVuSans-74" x="147.802734"/>
      <use xlink:href="#DejaVuSans-65" x="187.011719"/>
      <use xlink:href="#DejaVuSans-72" x="248.535156"/>
      <use xlink:href="#DejaVuSans-73" x="289.648438"/>
     </g>
    </g>
   </g>
   <g id="line2d_13">
    <path d="M 115.363636 255.684732 
L 116.215241 255.280246 
L 117.634583 255.749215 
L 117.918451 255.338867 
L 118.20232 255.133694 
L 118.770056 254.40093 
L 119.337793 255.016452 
L 119.621661 255.456109 
L 119.90553 255.631973 
L 120.189398 255.954388 
L 120.473267 256.540599 
L 120.757135 256.335425 
L 121.041003 257.361294 
L 121.324872 257.478536 
L 121.60874 258.006125 
L 121.892608 256.892325 
L 122.460345 257.009567 
L 122.744213 256.423357 
L 123.028082 256.364736 
L 123.31195 256.833704 
L 124.447423 256.452667 
L 124.731292 256.511288 
L 125.01516 256.452667 
L 125.299028 256.130252 
L 125.582897 255.397488 
L 125.866765 255.631973 
L 126.434502 258.094057 
L 126.71837 258.856131 
L 127.286107 258.035436 
L 127.569975 258.094057 
L 127.853843 257.478536 
L 128.137712 239.042214 
L 128.705448 248.011236 
L 128.989317 249.447451 
L 129.273185 250.238836 
L 129.557053 228.636977 
L 129.840922 126.665654 
L 130.12479 99.612037 
L 130.408658 103.803442 
L 130.692527 112.919016 
L 130.976395 131.384648 
L 131.544132 179.483223 
L 132.111869 198.18334 
L 133.815079 232.388725 
L 134.098947 180.245297 
L 134.382815 213.864472 
L 134.950552 227.757661 
L 135.23442 233.004246 
L 135.802157 236.873235 
L 136.653762 240.624983 
L 137.221499 241.973267 
L 137.789235 243.26293 
L 138.073104 243.174999 
L 138.356972 243.556035 
L 138.64084 243.526725 
L 139.492445 244.611214 
L 140.060182 246.809504 
L 140.34405 247.571578 
L 140.911787 247.776751 
L 141.195655 248.597446 
L 141.479524 248.919862 
L 141.763392 248.597446 
L 142.614997 248.509515 
L 142.898866 248.187099 
L 143.466602 248.011236 
L 143.750471 247.893993 
L 144.034339 248.24572 
L 144.318207 248.040546 
L 145.453681 248.392272 
L 146.021417 248.509515 
L 146.589154 249.007794 
L 146.873022 248.626757 
L 147.156891 248.568136 
L 148.008496 250.825046 
L 148.292364 251.118151 
L 148.576232 250.531941 
L 148.860101 250.590562 
L 149.143969 250.50263 
L 149.427837 242.559478 
L 149.711706 207.797192 
L 150.563311 232.740451 
L 151.131047 240.302567 
L 151.414916 236.638751 
L 151.698784 225.676614 
L 151.982652 228.519735 
L 152.266521 176.317686 
L 152.550389 172.741802 
L 152.834258 183.674629 
L 153.118126 187.191892 
L 153.401994 193.904003 
L 153.969731 217.205872 
L 154.537468 227.757661 
L 154.821336 231.509409 
L 155.105204 233.619767 
L 155.389073 234.469772 
L 156.808414 240.654293 
L 157.376151 241.56292 
L 157.943888 243.087067 
L 158.227756 243.321551 
L 158.795493 244.230178 
L 159.079361 244.493972 
L 159.363229 244.962941 
L 159.647098 244.406041 
L 159.930966 244.757767 
L 160.782571 247.806062 
L 161.066439 245.900878 
L 161.350308 246.135362 
L 161.634176 246.721572 
L 162.201913 249.330209 
L 162.485781 251.323325 
L 163.053518 249.887109 
L 163.337386 249.681936 
L 163.621255 249.095725 
L 164.47286 248.861241 
L 164.756728 249.242278 
L 165.324465 249.506072 
L 166.459938 249.125036 
L 166.743806 249.330209 
L 167.027675 250.385388 
L 167.595411 247.366404 
L 167.87928 247.278472 
L 168.163148 175.321128 
L 168.447016 160.988281 
L 168.730885 159.229649 
L 169.014753 169.195228 
L 169.298621 184.348771 
L 169.58249 193.493655 
L 169.866358 195.691945 
L 170.434095 215.388619 
L 171.001831 226.467998 
L 171.569568 232.945625 
L 172.137305 236.58013 
L 172.705041 238.690488 
L 173.840515 242.354304 
L 174.408252 244.93363 
L 174.69212 245.431909 
L 174.975988 245.549151 
L 175.543725 247.483646 
L 175.827593 247.923304 
L 176.111462 248.040546 
L 176.39533 247.893993 
L 176.679198 248.099167 
L 177.530803 247.659509 
L 178.09854 247.864683 
L 178.382408 247.776751 
L 178.666277 248.187099 
L 179.517882 248.421583 
L 179.80175 248.216409 
L 180.085618 247.747441 
L 180.369487 247.923304 
L 180.937223 250.825046 
L 181.221092 251.645741 
L 181.788828 252.261262 
L 182.356565 253.84403 
L 182.640433 254.078515 
L 182.924302 253.931962 
L 183.492038 251.792294 
L 184.627512 250.619873 
L 185.195249 250.766425 
L 185.479117 250.766425 
L 186.046854 250.268146 
L 186.330722 250.444009 
L 186.61459 250.268146 
L 186.898459 249.740557 
L 187.182327 249.799178 
L 188.3178 252.876783 
L 188.885537 253.550925 
L 189.169405 253.756099 
L 189.453274 253.492304 
L 190.02101 252.290573 
L 190.304879 252.378504 
L 190.588747 252.261262 
L 190.872615 251.733673 
L 191.156484 251.675051 
L 191.440352 251.147462 
L 191.72422 251.235394 
L 192.291957 252.319883 
L 192.575825 251.968157 
L 192.859694 252.202641 
L 193.42743 252.085399 
L 193.711299 251.909536 
L 193.995167 252.026778 
L 194.279035 252.554367 
L 194.562904 252.73023 
L 194.846772 253.052646 
L 195.13064 253.550925 
L 195.414509 253.785409 
L 195.698377 254.342309 
L 195.982246 254.312999 
L 196.266114 254.459552 
L 196.549982 254.92852 
L 196.833851 254.019894 
L 197.117719 253.902652 
L 197.401587 254.019894 
L 197.969324 253.873341 
L 198.537061 253.756099 
L 198.820929 253.28713 
L 199.388666 253.492304 
L 199.672534 253.228509 
L 199.956402 253.433683 
L 200.240271 253.111267 
L 200.524139 254.019894 
L 200.808007 253.609546 
L 201.091876 253.81472 
L 201.375744 254.840588 
L 201.659612 254.723346 
L 201.943481 254.430241 
L 202.227349 254.92852 
L 202.795086 257.038878 
L 203.078954 258.299231 
L 203.362822 258.650957 
L 204.214427 254.576794 
L 205.066032 254.166446 
L 205.349901 254.254378 
L 205.633769 254.078515 
L 206.201506 254.107825 
L 207.336979 254.078515 
L 207.620848 254.137136 
L 207.904716 253.931962 
L 208.188584 227.024898 
L 208.472453 165.707276 
L 209.607926 226.849035 
L 210.175663 239.012904 
L 210.459531 240.918088 
L 211.311136 244.025004 
L 211.595004 244.640525 
L 211.878873 243.79052 
L 212.162741 241.181883 
L 212.446609 229.574914 
L 212.730478 173.474565 
L 213.014346 154.745138 
L 213.298214 157.324465 
L 213.582083 170.95386 
L 213.865951 175.584923 
L 214.433688 194.959182 
L 215.001424 216.56104 
L 215.569161 224.709367 
L 216.136898 232.740451 
L 216.704634 237.019788 
L 217.272371 238.749109 
L 217.55624 239.833599 
L 217.840108 240.419809 
L 218.407845 54.70831 
L 218.691713 54.327273 
L 218.975581 57.316946 
L 219.827186 85.513674 
L 220.111055 97.794784 
L 220.96266 164.974512 
L 221.246528 175.262507 
L 221.814265 184.29015 
L 222.382001 191.940197 
L 224.652948 216.443798 
L 224.936816 221.133482 
L 225.220685 229.545604 
L 225.504553 234.059425 
L 225.788421 236.169783 
L 226.640026 239.071525 
L 227.207763 240.038772 
L 227.7755 240.214635 
L 228.059368 240.888778 
L 228.343237 242.061199 
L 228.627105 242.178441 
L 228.910973 242.500857 
L 230.330315 246.692262 
L 230.614183 247.190541 
L 230.898052 246.60433 
L 231.749657 247.13192 
L 232.033525 247.542267 
L 232.317393 247.571578 
L 233.168998 248.304341 
L 234.304472 248.83193 
L 234.58834 248.304341 
L 234.872208 248.773309 
L 235.156077 249.476762 
L 235.439945 249.212967 
L 235.723813 250.590562 
L 236.575418 251.968157 
L 236.859287 252.231951 
L 237.143155 253.345752 
L 237.427023 253.756099 
L 237.710892 253.550925 
L 237.99476 252.407815 
L 238.562497 251.61643 
L 238.846365 251.05953 
L 239.130234 251.499188 
L 239.981839 252.14402 
L 240.265707 252.085399 
L 240.549575 252.14402 
L 241.117312 251.968157 
L 241.40118 251.176773 
L 241.685049 251.147462 
L 241.968917 252.554367 
L 242.252785 251.762983 
L 242.536654 250.297457 
L 243.10439 252.085399 
L 243.388259 252.349194 
L 243.672127 253.462994 
L 243.955995 255.925078 
L 244.239864 256.950946 
L 244.523732 256.276804 
L 244.8076 254.488862 
L 245.943074 252.554367 
L 246.226942 253.052646 
L 246.51081 252.847473 
L 246.794679 250.912978 
L 247.078547 250.004351 
L 247.362415 251.03022 
L 247.646284 250.121594 
L 247.930152 248.333651 
L 248.21402 252.026778 
L 248.497889 251.411257 
L 249.065625 255.631973 
L 249.349494 255.690594 
L 249.633362 256.276804 
L 249.917231 255.250936 
L 250.201099 254.957831 
L 250.768836 253.81472 
L 251.052704 254.488862 
L 251.620441 248.480204 
L 251.904309 253.756099 
L 252.188177 253.169888 
L 252.472046 254.107825 
L 252.755914 254.107825 
L 253.039782 254.606104 
L 253.607519 254.049204 
L 254.175256 254.37162 
L 254.742992 255.397488 
L 255.026861 255.749215 
L 255.310729 255.192315 
L 255.594597 255.280246 
L 256.162334 253.609546 
L 256.730071 255.016452 
L 257.013939 254.694036 
L 257.297807 255.133694 
L 257.581676 257.12681 
L 257.865544 256.481978 
L 258.149412 251.147462 
L 258.433281 248.83193 
L 258.717149 255.133694 
L 259.001017 254.694036 
L 259.568754 250.561251 
L 259.852622 252.759541 
L 260.136491 253.81472 
L 260.420359 254.166446 
L 260.704228 254.049204 
L 260.988096 253.28713 
L 261.271964 253.697478 
L 261.555833 253.81472 
L 261.839701 252.70092 
L 262.123569 253.111267 
L 262.975174 258.181988 
L 263.259043 259.207857 
L 263.542911 259.735446 
L 263.826779 259.471652 
L 264.110648 259.94062 
L 264.394516 259.413031 
L 264.678384 261.376836 
L 264.962253 259.764757 
L 265.246121 256.892325 
L 265.813858 255.954388 
L 266.381594 255.045762 
L 266.665463 250.854357 
L 266.949331 253.169888 
L 267.233199 251.880225 
L 267.517068 251.469878 
L 267.800936 252.964715 
L 268.084804 252.671609 
L 268.652541 256.481978 
L 268.936409 256.013009 
L 269.504146 258.973373 
L 270.071883 259.676825 
L 270.355751 259.266478 
L 271.491225 262.490636 
L 272.34283 258.445783 
L 272.626698 258.24061 
L 273.194435 257.331983 
L 273.478303 257.361294 
L 273.762171 256.745773 
L 274.613776 257.742331 
L 274.897645 257.800952 
L 275.181513 257.654399 
L 275.465381 257.12681 
L 275.74925 256.013009 
L 276.316986 258.152678 
L 276.600855 258.152678 
L 277.168591 257.449225 
L 277.45246 258.504404 
L 277.736328 259.119925 
L 278.020196 258.416473 
L 278.304065 258.152678 
L 278.587933 258.504404 
L 278.871801 257.830262 
L 279.439538 258.944062 
L 279.723406 258.504404 
L 280.291143 258.416473 
L 280.575011 258.563025 
L 281.142748 258.211299 
L 281.426616 258.035436 
L 281.710485 258.211299 
L 281.994353 257.595778 
L 282.278221 257.68371 
L 282.56209 257.625088 
L 282.845958 258.299231 
L 283.129827 258.475094 
L 283.413695 258.328541 
L 283.697563 259.413031 
L 283.981432 258.768199 
L 284.2653 259.35441 
L 284.549168 259.676825 
L 284.833037 260.46821 
L 285.116905 260.233725 
L 285.400773 259.530273 
L 285.684642 259.676825 
L 285.96851 258.738888 
L 287.955588 258.328541 
L 288.807193 257.449225 
L 289.091062 256.59922 
L 289.37493 256.863015 
L 289.942667 258.563025 
L 290.226535 258.24061 
L 290.510403 258.621646 
L 290.794272 259.647515 
L 291.07814 259.325099 
L 291.362008 259.237167 
L 291.929745 262.402704 
L 292.78135 259.559583 
L 293.065218 259.35441 
L 293.632955 258.592336 
L 293.916824 257.859573 
L 294.200692 258.24061 
L 294.48456 258.152678 
L 294.768429 258.533715 
L 295.052297 258.680267 
L 295.620034 258.416473 
L 295.903902 257.654399 
L 296.18777 257.537157 
L 296.471639 255.104383 
L 296.755507 258.650957 
L 297.323244 259.676825 
L 297.607112 259.500962 
L 297.89098 259.706136 
L 298.458717 261.259594 
L 298.742585 261.083731 
L 299.310322 258.563025 
L 299.59419 258.82682 
L 299.878059 258.592336 
L 300.161927 258.738888 
L 300.445795 258.475094 
L 300.729664 256.863015 
L 301.013532 256.394046 
L 301.2974 257.302673 
L 301.865137 257.976815 
L 302.149005 257.976815 
L 302.432874 258.475094 
L 302.716742 257.800952 
L 303.00061 257.800952 
L 303.284479 258.563025 
L 303.568347 258.738888 
L 303.852215 258.445783 
L 304.136084 256.423357 
L 304.419952 250.356078 
L 304.703821 253.521615 
L 304.987689 251.909536 
L 305.271557 254.078515 
L 305.555426 255.163004 
L 305.839294 255.544041 
L 306.123162 256.130252 
L 306.407031 255.895767 
L 306.974767 183.967734 
L 307.258636 213.483435 
L 307.542504 231.362856 
L 307.826372 241.59223 
L 308.110241 246.399157 
L 308.394109 248.743999 
L 308.961846 250.912978 
L 309.529582 251.323325 
L 309.813451 251.821604 
L 310.097319 251.909536 
L 310.381187 253.433683 
L 310.665056 254.049204 
L 310.948924 254.37162 
L 311.516661 254.049204 
L 311.800529 253.521615 
L 312.084397 254.547483 
L 312.368266 252.964715 
L 312.652134 255.778525 
L 312.936002 254.840588 
L 313.219871 255.866457 
L 313.787607 256.130252 
L 314.071476 255.954388 
L 314.355344 256.950946 
L 315.206949 256.481978 
L 315.774686 256.716462 
L 316.342423 256.687152 
L 316.626291 257.185431 
L 317.194028 257.537157 
L 317.477896 258.064746 
L 317.761764 258.006125 
L 318.329501 258.357852 
L 319.464974 258.152678 
L 319.748843 258.504404 
L 320.600448 258.357852 
L 320.884316 258.211299 
L 321.168184 258.416473 
L 321.452053 258.035436 
L 321.735921 258.416473 
L 322.019789 258.533715 
L 322.303658 258.328541 
L 322.587526 258.82682 
L 322.871394 258.79751 
L 323.155263 258.533715 
L 323.722999 259.999241 
L 324.006868 259.735446 
L 324.858473 260.145794 
L 325.142341 259.735446 
L 325.426209 260.321657 
L 325.710078 259.735446 
L 326.277815 259.530273 
L 326.845551 260.380278 
L 327.12942 260.409589 
L 327.413288 259.94062 
L 327.697156 259.178546 
L 327.981025 259.559583 
L 328.264893 259.090615 
L 328.548761 259.38372 
L 329.116498 258.533715 
L 329.400366 258.357852 
L 329.684235 259.237167 
L 329.968103 259.325099 
L 330.251971 259.119925 
L 330.53584 260.233725 
L 330.819708 260.849246 
L 331.103576 260.819936 
L 331.387445 261.142352 
L 331.671313 260.790625 
L 332.23905 260.732004 
L 332.806786 262.871673 
L 333.090655 260.556141 
L 333.374523 261.259594 
L 333.658391 260.819936 
L 333.94226 260.937178 
L 334.226128 260.819936 
L 334.509996 260.350967 
L 334.793865 260.116483 
L 335.077733 260.46821 
L 335.361601 260.292346 
L 335.64547 260.526831 
L 335.929338 259.002683 
L 336.213206 252.525057 
L 336.497075 257.361294 
L 336.780943 257.097499 
L 337.064812 259.002683 
L 337.34868 255.338867 
L 337.632548 258.387162 
L 337.916417 258.82682 
L 338.200285 260.46821 
L 338.484153 260.702694 
L 338.768022 259.764757 
L 339.05189 259.706136 
L 339.335758 259.764757 
L 339.619627 258.416473 
L 339.903495 258.24061 
L 340.187363 258.680267 
L 343.593783 206.771324 
L 344.445388 232.359414 
L 345.013125 240.126704 
L 345.86473 246.106051 
L 346.432467 248.685378 
L 347.000203 249.300899 
L 347.284072 250.209525 
L 347.56794 250.590562 
L 347.851809 250.180215 
L 348.135677 250.707804 
L 348.419545 250.737115 
L 348.987282 252.026778 
L 349.555019 252.056088 
L 349.838887 252.847473 
L 350.122755 252.759541 
L 350.406624 252.407815 
L 350.690492 253.052646 
L 350.97436 253.990583 
L 352.109834 255.192315 
L 352.393702 254.899209 
L 352.67757 255.661283 
L 352.961439 257.390604 
L 353.245307 257.771641 
L 353.529175 257.71302 
L 353.813044 256.745773 
L 354.38078 255.895767 
L 354.948517 256.04232 
L 355.232385 255.368178 
L 355.516254 256.276804 
L 356.08399 256.657841 
L 356.367859 256.540599 
L 356.651727 257.12681 
L 356.935595 257.419915 
L 357.219464 256.775083 
L 357.503332 256.950946 
L 357.7872 258.24061 
L 358.071069 258.621646 
L 358.354937 254.899209 
L 358.922674 253.931962 
L 359.206542 255.163004 
L 359.490411 257.214741 
L 359.774279 260.263036 
L 360.058147 261.406146 
L 360.342016 261.142352 
L 361.193621 258.856131 
L 361.477489 259.35441 
L 361.761357 259.266478 
L 362.045226 259.588894 
L 362.329094 259.647515 
L 362.896831 259.325099 
L 363.180699 259.149236 
L 363.464567 259.35441 
L 364.316172 258.475094 
L 364.600041 259.94062 
L 364.883909 260.233725 
L 365.167777 260.732004 
L 365.451646 260.966489 
L 365.735514 261.05442 
L 366.019382 260.849246 
L 366.303251 260.233725 
L 366.587119 260.321657 
L 366.870987 257.214741 
L 367.154856 257.947504 
L 367.438724 258.181988 
L 367.722592 257.800952 
L 368.006461 258.094057 
L 368.290329 258.650957 
L 368.574197 258.592336 
L 369.141934 258.064746 
L 369.425803 258.709578 
L 369.709671 258.504404 
L 370.277408 258.680267 
L 370.561276 258.416473 
L 370.845144 257.859573 
L 371.129013 257.71302 
L 371.696749 259.647515 
L 371.980618 259.471652 
L 372.264486 260.49752 
L 372.832223 260.321657 
L 373.116091 260.614762 
L 373.967696 260.614762 
L 374.251564 260.263036 
L 374.535433 260.116483 
L 374.819301 259.559583 
L 375.103169 259.442341 
L 375.670906 259.764757 
L 376.238643 259.530273 
L 377.090248 259.794067 
L 377.657984 259.119925 
L 379.361194 260.585452 
L 379.645063 260.644073 
L 379.928931 259.969931 
L 380.2128 259.881999 
L 380.496668 260.614762 
L 380.780536 260.233725 
L 381.064405 260.761315 
L 381.348273 260.087173 
L 381.632141 260.087173 
L 381.91601 260.321657 
L 382.199878 260.732004 
L 382.483746 260.732004 
L 382.767615 260.057862 
L 383.051483 260.116483 
L 383.335351 260.057862 
L 383.61922 260.116483 
L 383.903088 259.94062 
L 384.186956 260.321657 
L 384.754693 260.087173 
L 385.32243 260.907868 
L 385.890166 260.761315 
L 386.174035 261.02511 
L 386.457903 260.878557 
L 386.741771 260.350967 
L 387.02564 261.435457 
L 387.309508 261.640631 
L 387.593376 261.200973 
L 388.161113 257.654399 
L 389.012718 260.49752 
L 389.296586 260.028552 
L 389.580455 259.94062 
L 390.148191 261.347525 
L 390.43206 261.083731 
L 390.715928 260.995799 
L 390.999797 261.02511 
L 391.567533 259.618204 
L 392.13527 261.699252 
L 392.419138 261.318215 
L 392.703007 259.061304 
L 392.986875 259.178546 
L 393.270743 261.699252 
L 393.554612 260.673383 
L 393.83848 262.16822 
L 394.406217 262.080289 
L 394.690085 262.226841 
L 394.973953 261.992357 
L 395.257822 261.523389 
L 395.54169 261.669941 
L 395.825558 260.966489 
L 396.393295 260.614762 
L 396.677163 260.057862 
L 396.961032 257.859573 
L 397.2449 259.061304 
L 397.528768 261.347525 
L 397.812637 261.05442 
L 398.096505 261.02511 
L 398.380373 260.292346 
L 399.515847 261.963046 
L 399.799715 254.899209 
L 400.367452 260.761315 
L 400.65132 260.526831 
L 400.935188 260.819936 
L 401.219057 262.402704 
L 401.502925 259.207857 
L 401.786794 261.552699 
L 402.070662 261.464768 
L 402.35453 260.995799 
L 402.638399 261.58201 
L 402.922267 261.552699 
L 403.206135 261.406146 
L 403.490004 261.494078 
L 404.05774 261.259594 
L 404.341609 261.376836 
L 404.625477 261.640631 
L 405.193214 260.233725 
L 405.477082 260.204415 
L 405.76095 260.732004 
L 406.044819 260.995799 
L 406.328687 262.637189 
L 406.612555 262.461325 
L 406.896424 262.69581 
L 407.748029 265.040652 
L 408.315765 262.578568 
L 408.599634 262.197531 
L 408.883502 261.523389 
L 409.16737 258.563025 
L 409.451239 256.863015 
L 409.735107 260.145794 
L 410.018975 261.083731 
L 410.302844 260.995799 
L 412.573791 261.80477 
L 412.857659 261.699252 
L 413.141527 262.549257 
L 413.425396 261.699252 
L 413.993132 262.813052 
L 414.277001 264.014783 
L 414.560869 264.044094 
L 415.128606 262.842362 
L 415.412474 262.344083 
L 415.696342 261.083731 
L 415.980211 261.816494 
L 416.264079 261.963046 
L 416.831816 261.435457 
L 417.115684 261.464768 
L 417.399552 261.992357 
L 417.683421 261.992357 
L 417.967289 261.347525 
L 418.251157 261.02511 
L 418.535026 259.676825 
L 418.818894 260.175104 
L 419.102762 261.58201 
L 419.386631 262.344083 
L 419.670499 262.109599 
L 420.238236 262.256152 
L 420.522104 262.432015 
L 421.089841 263.487194 
L 421.373709 263.633747 
L 421.657577 263.399262 
L 421.941446 262.197531 
L 422.225314 261.816494 
L 422.509182 262.13891 
L 422.793051 261.845804 
L 423.076919 262.256152 
L 423.360788 261.933736 
L 424.212393 262.490636 
L 424.496261 261.787183 
L 424.780129 261.963046 
L 425.347866 260.790625 
L 425.631734 260.907868 
L 425.915603 261.288904 
L 426.199471 260.585452 
L 426.767208 262.256152 
L 427.051076 261.376836 
L 427.334944 262.109599 
L 427.618813 262.080289 
L 427.902681 262.69581 
L 428.186549 262.988915 
L 428.470418 262.050978 
L 428.754286 261.875115 
L 429.038154 262.314773 
L 429.322023 261.992357 
L 429.605891 261.02511 
L 429.889759 261.142352 
L 430.173628 262.109599 
L 430.457496 261.523389 
L 430.741364 261.640631 
L 431.309101 261.523389 
L 431.876838 249.35952 
L 432.160706 255.48542 
L 432.444574 255.866457 
L 433.012311 257.742331 
L 433.580048 258.533715 
L 434.147785 259.881999 
L 434.431653 259.676825 
L 434.715521 258.123367 
L 434.99939 255.163004 
L 435.283258 257.68371 
L 435.567126 256.071631 
L 436.134863 247.923304 
L 436.418731 251.206083 
L 436.7026 252.14402 
L 437.270336 255.250936 
L 438.121941 257.68371 
L 438.689678 258.24061 
L 438.973546 250.942288 
L 439.257415 191.383297 
L 439.541283 188.452245 
L 439.825151 198.828171 
L 440.392888 225.881788 
L 440.676756 235.173225 
L 441.244493 243.81983 
L 441.81223 248.040546 
L 442.379966 250.590562 
L 442.947703 252.231951 
L 443.231571 252.525057 
L 443.51544 253.25782 
L 443.799308 253.316441 
L 444.367045 254.225067 
L 444.650913 254.107825 
L 445.21865 254.694036 
L 445.502518 254.694036 
L 446.637992 255.631973 
L 446.92186 255.544041 
L 447.205728 256.130252 
L 447.489597 256.130252 
L 448.341202 256.569909 
L 448.62507 256.511288 
L 448.908938 256.863015 
L 449.192807 256.716462 
L 449.476675 246.369846 
L 449.760543 231.099061 
L 450.044412 233.23873 
L 450.32828 207.67995 
L 450.896017 219.87313 
L 451.179885 223.038667 
L 451.463753 219.140366 
L 451.747622 223.566256 
L 452.03149 223.683498 
L 452.315358 222.628319 
L 452.883095 229.985261 
L 453.450832 238.77842 
L 454.018568 244.054314 
L 454.870173 248.450893 
L 455.721779 250.766425 
L 456.573384 252.026778 
L 456.857252 252.290573 
L 457.14112 252.73023 
L 457.424989 252.906094 
L 457.992725 252.994025 
L 458.560462 253.81472 
L 459.695935 254.37162 
L 460.54754 255.368178 
L 461.683014 256.775083 
L 461.966882 256.59922 
L 462.25075 256.59922 
L 462.534619 256.950946 
L 462.818487 256.657841 
L 463.102355 256.892325 
L 463.386224 257.566467 
L 463.670092 257.742331 
L 463.95396 257.625088 
L 464.521697 257.771641 
L 465.089434 258.328541 
L 465.373302 258.152678 
L 466.224907 258.006125 
L 466.508775 257.595778 
L 466.792644 258.211299 
L 467.076512 259.442341 
L 467.360381 259.266478 
L 467.644249 259.764757 
L 467.928117 259.237167 
L 468.211986 259.969931 
L 468.495854 260.175104 
L 468.779722 260.644073 
L 469.063591 261.669941 
L 469.347459 261.083731 
L 469.631327 260.761315 
L 469.915196 260.204415 
L 470.482932 260.028552 
L 470.766801 260.292346 
L 471.334537 259.94062 
L 471.618406 260.116483 
L 471.902274 260.087173 
L 472.186142 259.764757 
L 472.470011 260.409589 
L 472.753879 260.145794 
L 473.037747 259.35441 
L 473.321616 259.325099 
L 473.889352 260.350967 
L 474.173221 260.321657 
L 474.457089 260.819936 
L 474.740957 260.878557 
L 475.308694 261.845804 
L 475.592562 261.699252 
L 475.876431 262.490636 
L 476.160299 261.875115 
L 476.444167 260.585452 
L 476.728036 260.702694 
L 477.011904 261.142352 
L 477.295772 261.083731 
L 477.579641 260.644073 
L 477.863509 260.585452 
L 478.147378 260.702694 
L 478.431246 261.083731 
L 478.715114 260.46821 
L 478.998983 260.849246 
L 479.282851 260.673383 
L 479.566719 260.907868 
L 480.134456 260.49752 
L 480.418324 261.02511 
L 480.702193 262.373394 
L 480.986061 262.402704 
L 481.269929 263.135468 
L 481.553798 262.490636 
L 481.837666 262.285462 
L 482.121534 262.344083 
L 482.405403 263.164778 
L 482.689271 263.076847 
L 483.540876 261.904425 
L 484.108613 262.256152 
L 484.392481 262.080289 
L 484.676349 262.080289 
L 484.960218 261.875115 
L 485.244086 261.992357 
L 485.527954 261.728562 
L 485.811823 261.699252 
L 486.095691 261.376836 
L 486.379559 261.728562 
L 486.663428 261.083731 
L 486.947296 260.907868 
L 487.231164 261.318215 
L 487.515033 262.16822 
L 487.798901 262.197531 
L 488.082769 263.575125 
L 488.366638 262.607878 
L 488.650506 263.25271 
L 488.934375 262.519946 
L 489.218243 261.406146 
L 489.502111 261.699252 
L 489.78598 262.578568 
L 490.069848 262.607878 
L 490.921453 261.435457 
L 492.056926 262.256152 
L 492.340795 262.197531 
L 492.624663 262.256152 
L 492.908531 262.16822 
L 493.760136 261.406146 
L 494.044005 261.904425 
L 494.327873 262.13891 
L 494.611741 261.757873 
L 494.89561 261.728562 
L 495.179478 262.050978 
L 495.463346 262.813052 
L 495.747215 263.018225 
L 496.031083 262.666499 
L 496.314951 263.194089 
L 496.59882 263.311331 
L 496.882688 262.69581 
L 497.166556 262.402704 
L 497.450425 261.494078 
L 497.734293 261.845804 
L 498.018161 260.907868 
L 498.30203 260.732004 
L 498.585898 262.080289 
L 498.869766 262.226841 
L 499.437503 262.13891 
L 500.00524 261.406146 
L 500.289108 259.706136 
L 500.572977 259.764757 
L 500.856845 257.038878 
L 501.140713 260.937178 
L 501.424582 252.17333 
L 501.70845 249.037104 
L 501.992318 252.056088 
L 502.276187 245.725014 
L 502.560055 232.388725 
L 502.843923 197.06954 
L 503.41166 166.000381 
L 503.695528 161.750354 
L 505.11487 223.067977 
L 505.398738 231.128372 
L 505.966475 238.80773 
L 506.534212 243.643967 
L 506.81808 245.109493 
L 507.385817 246.897436 
L 507.953553 249.681936 
L 508.52129 251.323325 
L 508.805158 251.675051 
L 509.089027 252.70092 
L 509.372895 252.935404 
L 509.656763 253.375062 
L 509.940632 253.052646 
L 510.508369 253.404373 
L 510.792237 251.792294 
L 511.076105 251.499188 
L 511.359974 252.085399 
L 511.643842 252.349194 
L 511.92771 252.847473 
L 512.211579 252.818162 
L 512.495447 253.433683 
L 512.779315 253.726788 
L 513.063184 253.84403 
L 513.63092 254.312999 
L 513.914789 254.459552 
L 514.482525 255.133694 
L 514.766394 254.840588 
L 515.050262 255.778525 
L 515.33413 256.013009 
L 515.617999 255.807836 
L 515.901867 256.188873 
L 516.185735 256.04232 
L 516.469604 255.426799 
L 516.753472 252.114709 
L 517.03734 252.906094 
L 526.121127 259.090615 
L 526.404996 259.002683 
L 526.688864 258.650957 
L 526.972732 259.119925 
L 527.256601 259.178546 
L 527.824337 257.68371 
L 528.392074 260.028552 
L 528.675942 258.856131 
L 528.959811 259.149236 
L 529.527547 259.207857 
L 529.811416 260.263036 
L 530.095284 259.823378 
L 530.663021 260.614762 
L 530.946889 260.263036 
L 531.230757 259.588894 
L 531.514626 259.735446 
L 532.082363 260.263036 
L 532.650099 260.526831 
L 533.501704 260.204415 
L 533.785573 260.292346 
L 534.069441 260.585452 
L 534.353309 260.438899 
L 534.637178 260.673383 
L 535.488783 260.732004 
L 535.772651 261.464768 
L 536.056519 260.790625 
L 536.340388 260.46821 
L 536.624256 260.644073 
L 537.191993 260.46821 
L 537.475861 259.559583 
L 537.759729 257.214741 
L 538.043598 258.299231 
L 538.327466 257.859573 
L 538.611334 257.654399 
L 538.895203 258.738888 
L 539.179071 259.325099 
L 540.030676 260.204415 
L 540.314544 260.732004 
L 540.598413 260.409589 
L 540.882281 260.937178 
L 541.166149 261.113041 
L 541.450018 260.966489 
L 541.733886 261.113041 
L 542.017754 260.49752 
L 542.585491 260.438899 
L 543.153228 261.58201 
L 543.437096 261.406146 
L 543.720965 262.050978 
L 544.004833 262.109599 
L 544.288701 261.757873 
L 544.57257 261.875115 
L 544.856438 261.259594 
L 545.140306 261.669941 
L 545.708043 260.644073 
L 545.991911 260.966489 
L 546.27578 259.442341 
L 546.559648 259.852689 
L 546.843516 260.46821 
L 547.127385 260.028552 
L 547.411253 260.263036 
L 547.97899 259.618204 
L 548.546726 261.318215 
L 548.830595 261.230283 
L 549.114463 262.461325 
L 549.398331 262.13891 
L 549.6822 260.995799 
L 549.966068 260.614762 
L 550.249936 261.669941 
L 550.533805 261.669941 
L 550.817673 262.578568 
L 551.101541 262.783741 
L 551.669278 261.992357 
L 551.953146 262.373394 
L 552.520883 262.16822 
L 552.804751 262.021668 
L 553.08862 262.109599 
L 553.372488 262.021668 
L 553.656357 262.050978 
L 554.224093 260.907868 
L 554.79183 262.050978 
L 555.075698 262.050978 
L 555.359567 261.787183 
L 555.643435 262.226841 
L 556.211172 261.406146 
L 556.49504 261.288904 
L 557.062777 261.845804 
L 557.346645 261.523389 
L 557.914382 259.38372 
L 558.19825 259.559583 
L 558.482118 261.406146 
L 559.049855 258.738888 
L 559.333723 258.856131 
L 559.617592 258.82682 
L 559.90146 259.207857 
L 560.185328 258.973373 
L 560.469197 256.013009 
L 561.036933 234.381841 
L 561.60467 240.185325 
L 561.888538 234.792188 
L 562.172407 211.666182 
L 562.456275 202.902334 
L 562.740143 200.909219 
L 563.024012 195.926429 
L 563.30788 196.717813 
L 563.875617 211.783424 
L 564.443354 228.168009 
L 565.01109 238.133588 
L 565.578827 243.556035 
L 566.146564 246.692262 
L 566.430432 247.893993 
L 566.7143 248.597446 
L 567.282037 250.444009 
L 567.565905 250.737115 
L 568.133642 251.850915 
L 568.41751 252.085399 
L 568.985247 252.906094 
L 569.836852 254.107825 
L 570.688457 254.869899 
L 570.972325 255.221625 
L 571.256194 255.016452 
L 571.540062 255.250936 
L 572.107799 255.309557 
L 572.391667 255.192315 
L 572.959404 255.280246 
L 573.243272 255.661283 
L 573.52714 255.749215 
L 573.811009 255.544041 
L 574.378745 255.602662 
L 574.662614 255.954388 
L 575.514219 256.423357 
L 575.798087 257.009567 
L 576.081956 256.775083 
L 576.365824 256.745773 
L 577.217429 257.595778 
L 577.785166 257.947504 
L 578.069034 257.625088 
L 579.488376 257.71302 
L 579.772244 257.478536 
L 580.056112 257.537157 
L 580.339981 258.035436 
L 581.191586 258.709578 
L 581.475454 258.621646 
L 581.759322 258.152678 
L 582.043191 257.947504 
L 582.327059 258.328541 
L 582.894796 259.559583 
L 583.178664 259.794067 
L 584.314137 260.116483 
L 584.598006 259.999241 
L 585.165742 260.263036 
L 585.449611 260.116483 
L 585.733479 259.676825 
L 586.585084 260.438899 
L 586.868953 260.116483 
L 587.152821 260.057862 
L 587.436689 258.768199 
L 587.720558 259.471652 
L 588.004426 259.207857 
L 588.572163 260.614762 
L 588.856031 259.735446 
L 589.423768 259.266478 
L 589.707636 260.673383 
L 589.991504 260.438899 
L 590.559241 261.083731 
L 591.126978 260.49752 
L 591.694714 260.438899 
L 591.978583 260.761315 
L 592.262451 260.878557 
L 592.546319 260.087173 
L 592.830188 260.673383 
L 593.114056 260.409589 
L 593.397924 260.673383 
L 593.681793 261.200973 
L 593.965661 260.819936 
L 594.533398 260.907868 
L 594.817266 260.526831 
L 595.101134 259.881999 
L 595.385003 260.028552 
L 595.952739 260.614762 
L 596.236608 260.673383 
L 596.520476 260.438899 
L 596.804345 259.647515 
L 597.088213 260.644073 
L 597.372081 260.350967 
L 597.939818 255.602662 
L 598.223686 255.309557 
L 598.507555 250.268146 
L 598.791423 241.299125 
L 599.075291 237.224962 
L 599.35916 238.690488 
L 600.210765 246.04743 
L 600.494633 247.454336 
L 600.778501 247.864683 
L 601.06237 248.685378 
L 601.630106 251.147462 
L 602.197843 252.964715 
L 603.049448 253.990583 
L 603.617185 254.957831 
L 603.901053 254.195757 
L 604.184921 251.792294 
L 604.46879 253.228509 
L 604.752658 253.433683 
L 605.036526 252.525057 
L 605.320395 245.754325 
L 605.604263 245.49053 
L 605.888131 246.457778 
L 606.455868 249.828488 
L 607.023605 251.323325 
L 607.591342 252.876783 
L 608.442947 254.166446 
L 609.010683 255.016452 
L 609.294552 255.250936 
L 609.57842 255.778525 
L 609.862288 256.013009 
L 610.146157 256.687152 
L 610.430025 256.950946 
L 610.713893 257.009567 
L 610.997762 257.449225 
L 611.565498 257.361294 
L 611.849367 258.152678 
L 612.133235 257.830262 
L 612.417103 257.830262 
L 612.700972 258.211299 
L 612.98484 257.71302 
L 613.268708 257.888883 
L 613.552577 258.211299 
L 613.836445 258.181988 
L 614.120313 258.387162 
L 614.404182 257.918194 
L 614.68805 258.533715 
L 615.255787 258.504404 
L 615.539655 258.387162 
L 615.823523 258.79751 
L 616.107392 258.738888 
L 616.675128 259.031994 
L 616.958997 259.442341 
L 617.242865 258.650957 
L 617.526733 260.028552 
L 618.09447 260.46821 
L 618.662207 259.471652 
L 618.946075 260.145794 
L 619.229944 260.233725 
L 619.513812 259.94062 
L 619.79768 260.46821 
L 620.365417 260.350967 
L 620.933154 260.644073 
L 622.068627 260.526831 
L 622.352495 260.204415 
L 622.636364 260.46821 
L 622.636364 260.46821 
" clip-path="url(#p77c10df197)" style="fill: none; stroke: #1f77b4; stroke-width: 1.5; stroke-linecap: square"/>
   </g>
   <g id="line2d_14">
    <path d="M 115.363636 257.043607 
L 115.931373 257.206436 
L 116.215241 255.280246 
L 117.918451 256.171725 
L 119.90553 256.930428 
L 121.324872 257.358288 
L 121.60874 257.207683 
L 121.892608 256.911813 
L 122.176477 256.817033 
L 122.744213 256.943291 
L 123.028082 256.423357 
L 125.01516 257.10936 
L 127.286107 257.654944 
L 128.137712 257.772926 
L 128.42158 257.993875 
L 128.705448 256.70223 
L 129.273185 249.787569 
L 129.840922 228.636977 
L 130.12479 229.466913 
L 132.395737 238.809394 
L 133.53121 242.34844 
L 134.666684 245.260872 
L 135.802157 247.657637 
L 136.369894 248.691843 
L 136.653762 239.042214 
L 137.789235 242.540039 
L 138.924709 245.418547 
L 140.060182 247.787394 
L 141.195655 249.736818 
L 142.614997 251.695632 
L 143.182734 252.354958 
L 143.466602 248.040546 
L 148.008496 246.362336 
L 149.143969 245.905717 
L 149.427837 245.62413 
L 149.995574 241.49767 
L 150.279442 215.97483 
L 150.563311 215.985468 
L 150.847179 216.15397 
L 151.131047 206.774745 
L 151.414916 193.565373 
L 151.698784 188.476342 
L 151.982652 188.096619 
L 152.266521 188.714298 
L 153.118126 193.237983 
L 153.401994 193.851457 
L 154.821336 207.94064 
L 155.105204 206.878311 
L 155.389073 204.650595 
L 156.240678 206.899739 
L 156.808414 208.114846 
L 157.092283 240.654293 
L 157.660019 254.559156 
L 158.227756 264.071023 
L 158.795493 269.639135 
L 159.363229 272.567766 
L 159.930966 274.050488 
L 160.498703 274.843739 
L 161.350308 275.538079 
L 163.621255 276.872727 
L 163.905123 249.095725 
L 167.87928 247.919927 
L 168.163148 246.010897 
L 168.730885 230.068222 
L 169.298621 223.234932 
L 169.58249 221.757775 
L 169.866358 221.637343 
L 170.434095 225.656817 
L 170.717963 215.388619 
L 171.569568 224.283672 
L 172.137305 227.77349 
L 172.705041 229.536922 
L 172.98891 229.958483 
L 173.272778 230.169414 
L 173.840515 230.178228 
L 174.408252 229.880559 
L 175.543725 228.940386 
L 177.246935 227.293738 
L 177.530803 247.776751 
L 178.666277 249.72806 
L 180.085618 251.688768 
L 181.50496 253.225594 
L 182.924302 254.430176 
L 184.059775 255.203445 
L 184.343643 251.000909 
L 185.762985 252.686442 
L 187.182327 254.007582 
L 188.601669 255.043108 
L 190.304879 255.994692 
L 190.872615 256.2549 
L 191.156484 251.733673 
L 192.575825 253.26079 
L 193.995167 254.457764 
L 195.414509 255.395965 
L 197.117719 256.258114 
L 197.685456 256.493867 
L 197.969324 253.990583 
L 199.388666 255.029784 
L 201.091876 255.984744 
L 202.795086 256.697663 
L 204.498296 257.229886 
L 204.782164 254.40093 
L 205.066032 246.969089 
L 205.349901 244.737476 
L 205.633769 245.244475 
L 206.201506 247.327309 
L 207.336979 251.127742 
L 207.620848 250.957712 
L 207.904716 250.052737 
L 208.188584 250.294857 
L 209.040189 252.46382 
L 209.324058 252.954685 
L 209.607926 252.205743 
L 209.891794 251.043626 
L 210.175663 251.196695 
L 211.027268 253.143966 
L 211.595004 254.207158 
L 211.878873 254.19191 
L 212.162741 253.799389 
L 212.446609 253.983222 
L 213.014346 254.872573 
L 213.298214 255.019708 
L 213.582083 254.961784 
L 214.149819 255.524192 
L 215.001424 256.37504 
L 215.569161 256.867638 
L 215.853029 256.574006 
L 216.136898 255.842583 
L 216.704634 248.670296 
L 216.988503 248.107871 
L 217.840108 250.820927 
L 218.407845 252.302134 
L 218.691713 252.301633 
L 218.975581 251.234101 
L 219.25945 250.685086 
L 219.543318 251.156082 
L 220.394923 253.107624 
L 221.246528 254.572406 
L 222.098133 255.664534 
L 223.233606 256.698047 
L 224.36908 257.392366 
L 225.788421 257.947853 
L 227.491631 258.333391 
L 229.762578 258.590461 
L 233.452867 258.741791 
L 238.562497 258.788464 
L 238.846365 251.61643 
L 240.265707 253.168895 
L 241.685049 254.385735 
L 243.10439 255.339508 
L 244.8076 256.215967 
L 245.375337 256.455633 
L 245.659205 253.375062 
L 247.078547 254.547331 
L 248.781757 255.624551 
L 250.201099 256.326606 
L 250.484967 256.210204 
L 251.052704 254.175876 
L 251.336572 249.477224 
L 251.620441 242.314466 
L 251.904309 238.54017 
L 252.188177 237.76586 
L 252.472046 253.169888 
L 253.891387 254.383397 
L 255.310729 255.337677 
L 257.013939 256.214599 
L 259.001017 256.960946 
L 259.284886 254.694036 
L 260.988096 255.734094 
L 262.691306 256.510542 
L 264.678384 257.171375 
L 266.949331 257.696235 
L 269.788014 258.12093 
L 273.478303 258.438365 
L 278.871801 258.655187 
L 287.67172 258.766076 
L 287.955588 258.357852 
L 290.226535 258.601382 
L 293.065218 258.726054 
L 293.349087 259.35441 
L 295.336165 259.071823 
L 298.742585 258.861009 
L 299.026454 258.938984 
L 299.310322 258.285345 
L 299.59419 256.878885 
L 299.878059 256.216026 
L 300.161927 256.319392 
L 301.2974 257.133737 
L 302.432874 257.68451 
L 303.852215 258.156682 
L 304.136084 258.07136 
L 304.419952 258.701616 
L 304.703821 255.179047 
L 305.271557 245.260517 
L 305.555426 241.458276 
L 305.839294 241.251119 
L 306.690899 245.623776 
L 307.542504 248.94426 
L 308.394109 251.452164 
L 309.245714 253.334727 
L 310.097319 254.742034 
L 310.948924 255.790794 
L 312.084397 256.782962 
L 313.219871 257.449335 
L 314.639212 257.982368 
L 316.342423 258.35227 
L 318.613369 258.59889 
L 322.303658 258.74406 
L 331.103576 258.795176 
L 340.187363 258.797417 
L 343.593783 188.012587 
L 345.580862 216.396902 
L 347.284072 232.970712 
L 348.135677 239.247669 
L 348.987282 244.088136 
L 349.838887 247.781216 
L 350.690492 250.57605 
L 350.97436 251.34471 
L 351.258229 253.081957 
L 352.109834 254.553367 
L 352.961439 255.650357 
L 354.096912 256.688511 
L 355.232385 257.385967 
L 356.651727 257.943976 
L 356.935595 256.071631 
L 358.071069 256.971742 
L 359.206542 257.575947 
L 360.625884 258.059054 
L 362.329094 258.394208 
L 363.464567 258.528132 
L 363.748436 259.413031 
L 365.735514 259.100666 
L 368.574197 258.907833 
L 370.277408 258.857678 
L 370.561276 258.533715 
L 373.683828 258.710619 
L 377.090248 258.771649 
L 377.374116 259.764757 
L 379.077326 259.322306 
L 379.928931 259.290643 
L 380.2128 258.228529 
L 380.780536 253.969513 
L 381.064405 253.998244 
L 381.91601 255.228179 
L 382.767615 256.152266 
L 383.903088 257.025925 
L 384.186956 260.292346 
L 385.038561 260.354698 
L 390.715928 259.896559 
L 390.999797 260.292346 
L 394.973953 259.949206 
L 397.528768 259.822357 
L 397.812637 260.292346 
L 401.786794 259.949206 
L 404.341609 259.819405 
L 404.625477 261.523389 
L 410.302844 261.523385 
L 412.857659 260.995799 
L 418.251157 260.995796 
L 418.535026 261.347525 
L 432.160706 261.26784 
L 433.863916 260.899552 
L 434.431653 260.103762 
L 434.715521 260.200647 
L 434.99939 259.603617 
L 435.567126 256.597686 
L 435.850995 256.236173 
L 436.7026 257.261598 
L 437.554205 258.645052 
L 438.121941 259.184789 
L 438.40581 259.335195 
L 438.689678 255.719904 
L 438.973546 255.826755 
L 439.257415 255.642479 
L 439.825151 254.948808 
L 440.392888 254.857463 
L 440.960625 254.413294 
L 445.21865 255.843688 
L 445.786387 254.70782 
L 447.489597 254.868129 
L 448.057333 253.747716 
L 448.341202 255.895767 
L 448.908938 255.936573 
L 450.044412 256.291523 
L 451.747622 256.634964 
L 452.03149 255.814056 
L 452.315358 223.712809 
L 453.166963 223.608215 
L 454.018568 223.834266 
L 455.154042 223.89665 
L 456.573384 223.745554 
L 458.84433 223.261829 
L 463.670092 221.946174 
L 465.65717 221.370147 
L 465.941039 258.357852 
L 472.470011 258.299544 
L 472.753879 259.94062 
L 479.282851 259.960369 
L 479.566719 260.819936 
L 486.095691 260.819932 
L 486.379559 261.875115 
L 488.366638 261.240636 
L 490.921453 260.67595 
L 492.908531 260.3726 
L 493.1924 262.226841 
L 495.179478 261.494205 
L 497.450425 260.90299 
L 499.721372 260.494868 
L 500.00524 262.226841 
L 500.289108 262.304237 
L 500.572977 261.389842 
L 502.560055 241.251226 
L 503.127792 232.409086 
L 503.41166 230.247404 
L 503.695528 229.362688 
L 503.979397 230.930339 
L 504.263265 231.718297 
L 504.547133 232.856996 
L 505.11487 239.73866 
L 505.682607 245.159736 
L 506.250343 249.006901 
L 506.534212 250.32829 
L 506.81808 233.561146 
L 507.385817 237.974921 
L 507.953553 240.68103 
L 508.805158 243.226942 
L 509.940632 245.663719 
L 510.792237 247.312811 
L 511.076105 246.916975 
L 511.359974 245.450089 
L 511.643842 245.01192 
L 511.92771 246.165092 
L 512.211579 243.440562 
L 512.495447 237.504364 
L 512.779315 235.354338 
L 513.347052 237.872391 
L 513.63092 252.906094 
L 514.198657 254.581858 
L 514.766394 255.673765 
L 515.050262 256.159914 
L 515.617999 255.338233 
L 515.901867 255.784349 
L 516.469604 254.844998 
L 517.03734 255.519092 
L 525.553391 258.846026 
L 529.527547 259.177683 
L 533.785573 259.364435 
L 534.069441 260.46821 
L 536.340388 260.222917 
L 536.624256 259.899665 
L 536.908124 259.212744 
L 537.191993 258.916581 
L 537.475861 259.073264 
L 537.759729 258.471609 
L 538.043598 257.571187 
L 538.327466 257.518077 
L 540.598413 259.279208 
L 541.166149 260.05981 
L 541.733886 260.336955 
L 542.585491 260.380977 
L 547.411253 259.958327 
L 547.695121 258.709578 
L 551.38541 259.083567 
L 553.372488 259.293981 
L 553.940225 257.99537 
L 554.224093 258.166143 
L 554.507962 262.050978 
L 556.778908 262.244825 
L 557.630513 262.413034 
L 557.914382 261.548783 
L 558.19825 259.677063 
L 558.482118 258.760518 
L 559.049855 258.247486 
L 559.333723 256.947462 
L 559.617592 253.068844 
L 559.90146 247.146618 
L 560.185328 244.518507 
L 561.036933 246.995245 
L 561.320802 259.413031 
L 561.60467 259.024576 
L 562.740143 256.524935 
L 563.591748 250.48676 
L 563.875617 249.259141 
L 564.159485 248.838475 
L 564.443354 249.622249 
L 565.578827 256.22636 
L 566.7143 262.557967 
L 567.565905 266.143858 
L 567.849774 267.09405 
L 568.133642 249.38883 
L 568.985247 249.822516 
L 570.12072 250.150849 
L 571.82393 250.358799 
L 574.662614 250.440999 
L 574.946482 255.719904 
L 576.933561 255.835035 
L 581.191586 255.791517 
L 581.475454 255.784473 
L 581.759322 258.709578 
L 588.288294 258.68681 
L 588.572163 258.533715 
L 595.101134 258.461547 
L 595.385003 260.995799 
L 595.668871 259.892265 
L 596.236608 255.330966 
L 597.088213 245.973309 
L 597.372081 244.538425 
L 597.65595 244.666919 
L 598.223686 247.359895 
L 598.507555 247.545252 
L 598.791423 245.565851 
L 599.35916 230.69989 
L 599.643028 230.503424 
L 599.926896 232.248528 
L 600.494633 237.744606 
L 601.346238 247.229236 
L 601.913975 251.236529 
L 602.197843 247.981925 
L 602.76558 249.818664 
L 603.333316 250.929733 
L 604.184921 252.070986 
L 605.604263 253.511805 
L 607.307473 254.876205 
L 608.726815 255.783416 
L 609.010683 253.081957 
L 609.57842 253.877283 
L 610.430025 254.676763 
L 611.849367 255.644147 
L 613.552577 256.542604 
L 615.539655 257.338577 
L 615.823523 258.709578 
L 616.958997 260.869602 
L 617.810602 262.025094 
L 618.662207 262.808935 
L 619.513812 263.309911 
L 620.649285 263.688055 
L 622.068627 263.902563 
L 622.352495 263.926169 
L 622.636364 260.819936 
L 622.636364 260.819936 
" clip-path="url(#p77c10df197)" style="fill: none; stroke: #ff7f0e; stroke-width: 1.5; stroke-linecap: square"/>
   </g>
   <g id="patch_3">
    <path d="M 90 288 
L 90 43.2 
" style="fill: none; stroke: #000000; stroke-width: 0.8; stroke-linejoin: miter; stroke-linecap: square"/>
   </g>
   <g id="patch_4">
    <path d="M 648 288 
L 648 43.2 
" style="fill: none; stroke: #000000; stroke-width: 0.8; stroke-linejoin: miter; stroke-linecap: square"/>
   </g>
   <g id="patch_5">
    <path d="M 90 288 
L 648 288 
" style="fill: none; stroke: #000000; stroke-width: 0.8; stroke-linejoin: miter; stroke-linecap: square"/>
   </g>
   <g id="patch_6">
    <path d="M 90 43.2 
L 648 43.2 
" style="fill: none; stroke: #000000; stroke-width: 0.8; stroke-linejoin: miter; stroke-linecap: square"/>
   </g>
   <g id="text_14">
    <!-- PTK014 -->
    <g transform="translate(346.330312 37.2) scale(0.12 -0.12)">
     <defs>
      <path id="DejaVuSans-50" d="M 1259 4147 
L 1259 2394 
L 2053 2394 
Q 2494 2394 2734 2622 
Q 2975 2850 2975 3272 
Q 2975 3691 2734 3919 
Q 2494 4147 2053 4147 
L 1259 4147 
z
M 628 4666 
L 2053 4666 
Q 2838 4666 3239 4311 
Q 3641 3956 3641 3272 
Q 3641 2581 3239 2228 
Q 2838 1875 2053 1875 
L 1259 1875 
L 1259 0 
L 628 0 
L 628 4666 
z
" transform="scale(0.015625)"/>
      <path id="DejaVuSans-54" d="M -19 4666 
L 3928 4666 
L 3928 4134 
L 2272 4134 
L 2272 0 
L 1638 0 
L 1638 4134 
L -19 4134 
L -19 4666 
z
" transform="scale(0.015625)"/>
      <path id="DejaVuSans-4b" d="M 628 4666 
L 1259 4666 
L 1259 2694 
L 3353 4666 
L 4166 4666 
L 1850 2491 
L 4331 0 
L 3500 0 
L 1259 2247 
L 1259 0 
L 628 0 
L 628 4666 
z
" transform="scale(0.015625)"/>
     </defs>
     <use xlink:href="#DejaVuSans-50"/>
     <use xlink:href="#DejaVuSans-54" x="60.302734"/>
     <use xlink:href="#DejaVuSans-4b" x="121.386719"/>
     <use xlink:href="#DejaVuSans-30" x="186.962891"/>
     <use xlink:href="#DejaVuSans-31" x="250.585938"/>
     <use xlink:href="#DejaVuSans-34" x="314.208984"/>
    </g>
   </g>
   <g id="legend_1">
    <g id="patch_7">
     <path d="M 559.04375 80.55625 
L 641 80.55625 
Q 643 80.55625 643 78.55625 
L 643 50.2 
Q 643 48.2 641 48.2 
L 559.04375 48.2 
Q 557.04375 48.2 557.04375 50.2 
L 557.04375 78.55625 
Q 557.04375 80.55625 559.04375 80.55625 
z
" style="fill: #ffffff; opacity: 0.8; stroke: #cccccc; stroke-linejoin: miter"/>
    </g>
    <g id="line2d_15">
     <path d="M 561.04375 56.298437 
L 571.04375 56.298437 
L 581.04375 56.298437 
" style="fill: none; stroke: #1f77b4; stroke-width: 1.5; stroke-linecap: square"/>
    </g>
    <g id="text_15">
     <!-- measured -->
     <g transform="translate(589.04375 59.798437) scale(0.1 -0.1)">
      <defs>
       <path id="DejaVuSans-6d" d="M 3328 2828 
Q 3544 3216 3844 3400 
Q 4144 3584 4550 3584 
Q 5097 3584 5394 3201 
Q 5691 2819 5691 2113 
L 5691 0 
L 5113 0 
L 5113 2094 
Q 5113 2597 4934 2840 
Q 4756 3084 4391 3084 
Q 3944 3084 3684 2787 
Q 3425 2491 3425 1978 
L 3425 0 
L 2847 0 
L 2847 2094 
Q 2847 2600 2669 2842 
Q 2491 3084 2119 3084 
Q 1678 3084 1418 2786 
Q 1159 2488 1159 1978 
L 1159 0 
L 581 0 
L 581 3500 
L 1159 3500 
L 1159 2956 
Q 1356 3278 1631 3431 
Q 1906 3584 2284 3584 
Q 2666 3584 2933 3390 
Q 3200 3197 3328 2828 
z
" transform="scale(0.015625)"/>
       <path id="DejaVuSans-61" d="M 2194 1759 
Q 1497 1759 1228 1600 
Q 959 1441 959 1056 
Q 959 750 1161 570 
Q 1363 391 1709 391 
Q 2188 391 2477 730 
Q 2766 1069 2766 1631 
L 2766 1759 
L 2194 1759 
z
M 3341 1997 
L 3341 0 
L 2766 0 
L 2766 531 
Q 2569 213 2275 61 
Q 1981 -91 1556 -91 
Q 1019 -91 701 211 
Q 384 513 384 1019 
Q 384 1609 779 1909 
Q 1175 2209 1959 2209 
L 2766 2209 
L 2766 2266 
Q 2766 2663 2505 2880 
Q 2244 3097 1772 3097 
Q 1472 3097 1187 3025 
Q 903 2953 641 2809 
L 641 3341 
Q 956 3463 1253 3523 
Q 1550 3584 1831 3584 
Q 2591 3584 2966 3190 
Q 3341 2797 3341 1997 
z
" transform="scale(0.015625)"/>
       <path id="DejaVuSans-75" d="M 544 1381 
L 544 3500 
L 1119 3500 
L 1119 1403 
Q 1119 906 1312 657 
Q 1506 409 1894 409 
Q 2359 409 2629 706 
Q 2900 1003 2900 1516 
L 2900 3500 
L 3475 3500 
L 3475 0 
L 2900 0 
L 2900 538 
Q 2691 219 2414 64 
Q 2138 -91 1772 -91 
Q 1169 -91 856 284 
Q 544 659 544 1381 
z
M 1991 3584 
L 1991 3584 
z
" transform="scale(0.015625)"/>
       <path id="DejaVuSans-64" d="M 2906 2969 
L 2906 4863 
L 3481 4863 
L 3481 0 
L 2906 0 
L 2906 525 
Q 2725 213 2448 61 
Q 2172 -91 1784 -91 
Q 1150 -91 751 415 
Q 353 922 353 1747 
Q 353 2572 751 3078 
Q 1150 3584 1784 3584 
Q 2172 3584 2448 3432 
Q 2725 3281 2906 2969 
z
M 947 1747 
Q 947 1113 1208 752 
Q 1469 391 1925 391 
Q 2381 391 2643 752 
Q 2906 1113 2906 1747 
Q 2906 2381 2643 2742 
Q 2381 3103 1925 3103 
Q 1469 3103 1208 2742 
Q 947 2381 947 1747 
z
" transform="scale(0.015625)"/>
      </defs>
      <use xlink:href="#DejaVuSans-6d"/>
      <use xlink:href="#DejaVuSans-65" x="97.412109"/>
      <use xlink:href="#DejaVuSans-61" x="158.935547"/>
      <use xlink:href="#DejaVuSans-73" x="220.214844"/>
      <use xlink:href="#DejaVuSans-75" x="272.314453"/>
      <use xlink:href="#DejaVuSans-72" x="335.693359"/>
      <use xlink:href="#DejaVuSans-65" x="374.556641"/>
      <use xlink:href="#DejaVuSans-64" x="436.080078"/>
     </g>
    </g>
    <g id="line2d_16">
     <path d="M 561.04375 70.976562 
L 571.04375 70.976562 
L 581.04375 70.976562 
" style="fill: none; stroke: #ff7f0e; stroke-width: 1.5; stroke-linecap: square"/>
    </g>
    <g id="text_16">
     <!-- predicted -->
     <g transform="translate(589.04375 74.476562) scale(0.1 -0.1)">
      <defs>
       <path id="DejaVuSans-70" d="M 1159 525 
L 1159 -1331 
L 581 -1331 
L 581 3500 
L 1159 3500 
L 1159 2969 
Q 1341 3281 1617 3432 
Q 1894 3584 2278 3584 
Q 2916 3584 3314 3078 
Q 3713 2572 3713 1747 
Q 3713 922 3314 415 
Q 2916 -91 2278 -91 
Q 1894 -91 1617 61 
Q 1341 213 1159 525 
z
M 3116 1747 
Q 3116 2381 2855 2742 
Q 2594 3103 2138 3103 
Q 1681 3103 1420 2742 
Q 1159 2381 1159 1747 
Q 1159 1113 1420 752 
Q 1681 391 2138 391 
Q 2594 391 2855 752 
Q 3116 1113 3116 1747 
z
" transform="scale(0.015625)"/>
       <path id="DejaVuSans-69" d="M 603 3500 
L 1178 3500 
L 1178 0 
L 603 0 
L 603 3500 
z
M 603 4863 
L 1178 4863 
L 1178 4134 
L 603 4134 
L 603 4863 
z
" transform="scale(0.015625)"/>
       <path id="DejaVuSans-63" d="M 3122 3366 
L 3122 2828 
Q 2878 2963 2633 3030 
Q 2388 3097 2138 3097 
Q 1578 3097 1268 2742 
Q 959 2388 959 1747 
Q 959 1106 1268 751 
Q 1578 397 2138 397 
Q 2388 397 2633 464 
Q 2878 531 3122 666 
L 3122 134 
Q 2881 22 2623 -34 
Q 2366 -91 2075 -91 
Q 1284 -91 818 406 
Q 353 903 353 1747 
Q 353 2603 823 3093 
Q 1294 3584 2113 3584 
Q 2378 3584 2631 3529 
Q 2884 3475 3122 3366 
z
" transform="scale(0.015625)"/>
      </defs>
      <use xlink:href="#DejaVuSans-70"/>
      <use xlink:href="#DejaVuSans-72" x="63.476562"/>
      <use xlink:href="#DejaVuSans-65" x="102.339844"/>
      <use xlink:href="#DejaVuSans-64" x="163.863281"/>
      <use xlink:href="#DejaVuSans-69" x="227.339844"/>
      <use xlink:href="#DejaVuSans-63" x="255.123047"/>
      <use xlink:href="#DejaVuSans-74" x="310.103516"/>
      <use xlink:href="#DejaVuSans-65" x="349.3125"/>
      <use xlink:href="#DejaVuSans-64" x="410.835938"/>
     </g>
    </g>
   </g>
  </g>
 </g>
 <defs>
  <clipPath id="p77c10df197">
   <rect x="90" y="43.2" width="558" height="244.8"/>
  </clipPath>
 </defs>
</svg>
