<?xml version="1.0" encoding="utf-8" standalone="no"?>
<!DOCTYPE svg PUBLIC "-//W3C//DTD SVG 1.1//EN"
  "http://www.w3.org/Graphics/SVG/1.1/DTD/svg11.dtd">
<svg xmlns:xlink="http://www.w3.org/1999/xlink" width="712.835pt" height="351.43625pt" viewBox="0 0 712.835 351.43625" xmlns="http://www.w3.org/2000/svg" version="1.1">
 <metadata>
  <rdf:RDF xmlns:dc="http://purl.org/dc/elements/1.1/" xmlns:cc="http://creativecommons.org/ns#" xmlns:rdf="http://www.w3.org/1999/02/22-rdf-syntax-ns#">
   <cc:Work>
    <dc:type rdf:resource="http://purl.org/dc/dcmitype/StillImage"/>
    <dc:date>2024-05-09T21:24:18.019840</dc:date>
    <dc:format>image/svg+xml</dc:format>
    <dc:creator>
     <cc:Agent>
      <dc:title>Matplotlib v3.8.4, https://matplotlib.org/</dc:title>
     </cc:Agent>
    </dc:creator>
   </cc:Work>
  </rdf:RDF>
 </metadata>
 <defs>
  <style type="text/css">*{stroke-linejoin: round; stroke-linecap: butt}</style>
 </defs>
 <g id="figure_1">
  <g id="patch_1">
   <path d="M 0 351.43625 
L 712.835 351.43625 
L 712.835 0 
L 0 0 
z
" style="fill: #ffffff"/>
  </g>
  <g id="axes_1">
   <g id="patch_2">
    <path d="M 26.925 327.558125 
L 705.635 327.558125 
L 705.635 22.318125 
L 26.925 22.318125 
z
" style="fill: #ffffff"/>
   </g>
   <g id="matplotlib.axis_1">
    <g id="xtick_1">
     <g id="line2d_1">
      <defs>
       <path id="m29d2c1ba59" d="M 0 0 
L 0 3.5 
" style="stroke: #000000; stroke-width: 0.8"/>
      </defs>
      <g>
       <use xlink:href="#m29d2c1ba59" x="82.851952" y="327.558125" style="stroke: #000000; stroke-width: 0.8"/>
      </g>
     </g>
     <g id="text_1">
      <!-- 2010 -->
      <g transform="translate(70.126952 342.156563) scale(0.1 -0.1)">
       <defs>
        <path id="DejaVuSans-32" d="M 1228 531 
L 3431 531 
L 3431 0 
L 469 0 
L 469 531 
Q 828 903 1448 1529 
Q 2069 2156 2228 2338 
Q 2531 2678 2651 2914 
Q 2772 3150 2772 3378 
Q 2772 3750 2511 3984 
Q 2250 4219 1831 4219 
Q 1534 4219 1204 4116 
Q 875 4013 500 3803 
L 500 4441 
Q 881 4594 1212 4672 
Q 1544 4750 1819 4750 
Q 2544 4750 2975 4387 
Q 3406 4025 3406 3419 
Q 3406 3131 3298 2873 
Q 3191 2616 2906 2266 
Q 2828 2175 2409 1742 
Q 1991 1309 1228 531 
z
" transform="scale(0.015625)"/>
        <path id="DejaVuSans-30" d="M 2034 4250 
Q 1547 4250 1301 3770 
Q 1056 3291 1056 2328 
Q 1056 1369 1301 889 
Q 1547 409 2034 409 
Q 2525 409 2770 889 
Q 3016 1369 3016 2328 
Q 3016 3291 2770 3770 
Q 2525 4250 2034 4250 
z
M 2034 4750 
Q 2819 4750 3233 4129 
Q 3647 3509 3647 2328 
Q 3647 1150 3233 529 
Q 2819 -91 2034 -91 
Q 1250 -91 836 529 
Q 422 1150 422 2328 
Q 422 3509 836 4129 
Q 1250 4750 2034 4750 
z
" transform="scale(0.015625)"/>
        <path id="DejaVuSans-31" d="M 794 531 
L 1825 531 
L 1825 4091 
L 703 3866 
L 703 4441 
L 1819 4666 
L 2450 4666 
L 2450 531 
L 3481 531 
L 3481 0 
L 794 0 
L 794 531 
z
" transform="scale(0.015625)"/>
       </defs>
       <use xlink:href="#DejaVuSans-32"/>
       <use xlink:href="#DejaVuSans-30" x="63.623047"/>
       <use xlink:href="#DejaVuSans-31" x="127.246094"/>
       <use xlink:href="#DejaVuSans-30" x="190.869141"/>
      </g>
     </g>
    </g>
    <g id="xtick_2">
     <g id="line2d_2">
      <g>
       <use xlink:href="#m29d2c1ba59" x="178.132852" y="327.558125" style="stroke: #000000; stroke-width: 0.8"/>
      </g>
     </g>
     <g id="text_2">
      <!-- 2012 -->
      <g transform="translate(165.407852 342.156563) scale(0.1 -0.1)">
       <use xlink:href="#DejaVuSans-32"/>
       <use xlink:href="#DejaVuSans-30" x="63.623047"/>
       <use xlink:href="#DejaVuSans-31" x="127.246094"/>
       <use xlink:href="#DejaVuSans-32" x="190.869141"/>
      </g>
     </g>
    </g>
    <g id="xtick_3">
     <g id="line2d_3">
      <g>
       <use xlink:href="#m29d2c1ba59" x="273.544274" y="327.558125" style="stroke: #000000; stroke-width: 0.8"/>
      </g>
     </g>
     <g id="text_3">
      <!-- 2014 -->
      <g transform="translate(260.819274 342.156563) scale(0.1 -0.1)">
       <defs>
        <path id="DejaVuSans-34" d="M 2419 4116 
L 825 1625 
L 2419 1625 
L 2419 4116 
z
M 2253 4666 
L 3047 4666 
L 3047 1625 
L 3713 1625 
L 3713 1100 
L 3047 1100 
L 3047 0 
L 2419 0 
L 2419 1100 
L 313 1100 
L 313 1709 
L 2253 4666 
z
" transform="scale(0.015625)"/>
       </defs>
       <use xlink:href="#DejaVuSans-32"/>
       <use xlink:href="#DejaVuSans-30" x="63.623047"/>
       <use xlink:href="#DejaVuSans-31" x="127.246094"/>
       <use xlink:href="#DejaVuSans-34" x="190.869141"/>
      </g>
     </g>
    </g>
    <g id="xtick_4">
     <g id="line2d_4">
      <g>
       <use xlink:href="#m29d2c1ba59" x="368.825175" y="327.558125" style="stroke: #000000; stroke-width: 0.8"/>
      </g>
     </g>
     <g id="text_4">
      <!-- 2016 -->
      <g transform="translate(356.100175 342.156563) scale(0.1 -0.1)">
       <defs>
        <path id="DejaVuSans-36" d="M 2113 2584 
Q 1688 2584 1439 2293 
Q 1191 2003 1191 1497 
Q 1191 994 1439 701 
Q 1688 409 2113 409 
Q 2538 409 2786 701 
Q 3034 994 3034 1497 
Q 3034 2003 2786 2293 
Q 2538 2584 2113 2584 
z
M 3366 4563 
L 3366 3988 
Q 3128 4100 2886 4159 
Q 2644 4219 2406 4219 
Q 1781 4219 1451 3797 
Q 1122 3375 1075 2522 
Q 1259 2794 1537 2939 
Q 1816 3084 2150 3084 
Q 2853 3084 3261 2657 
Q 3669 2231 3669 1497 
Q 3669 778 3244 343 
Q 2819 -91 2113 -91 
Q 1303 -91 875 529 
Q 447 1150 447 2328 
Q 447 3434 972 4092 
Q 1497 4750 2381 4750 
Q 2619 4750 2861 4703 
Q 3103 4656 3366 4563 
z
" transform="scale(0.015625)"/>
       </defs>
       <use xlink:href="#DejaVuSans-32"/>
       <use xlink:href="#DejaVuSans-30" x="63.623047"/>
       <use xlink:href="#DejaVuSans-31" x="127.246094"/>
       <use xlink:href="#DejaVuSans-36" x="190.869141"/>
      </g>
     </g>
    </g>
    <g id="xtick_5">
     <g id="line2d_5">
      <g>
       <use xlink:href="#m29d2c1ba59" x="464.236597" y="327.558125" style="stroke: #000000; stroke-width: 0.8"/>
      </g>
     </g>
     <g id="text_5">
      <!-- 2018 -->
      <g transform="translate(451.511597 342.156563) scale(0.1 -0.1)">
       <defs>
        <path id="DejaVuSans-38" d="M 2034 2216 
Q 1584 2216 1326 1975 
Q 1069 1734 1069 1313 
Q 1069 891 1326 650 
Q 1584 409 2034 409 
Q 2484 409 2743 651 
Q 3003 894 3003 1313 
Q 3003 1734 2745 1975 
Q 2488 2216 2034 2216 
z
M 1403 2484 
Q 997 2584 770 2862 
Q 544 3141 544 3541 
Q 544 4100 942 4425 
Q 1341 4750 2034 4750 
Q 2731 4750 3128 4425 
Q 3525 4100 3525 3541 
Q 3525 3141 3298 2862 
Q 3072 2584 2669 2484 
Q 3125 2378 3379 2068 
Q 3634 1759 3634 1313 
Q 3634 634 3220 271 
Q 2806 -91 2034 -91 
Q 1263 -91 848 271 
Q 434 634 434 1313 
Q 434 1759 690 2068 
Q 947 2378 1403 2484 
z
M 1172 3481 
Q 1172 3119 1398 2916 
Q 1625 2713 2034 2713 
Q 2441 2713 2670 2916 
Q 2900 3119 2900 3481 
Q 2900 3844 2670 4047 
Q 2441 4250 2034 4250 
Q 1625 4250 1398 4047 
Q 1172 3844 1172 3481 
z
" transform="scale(0.015625)"/>
       </defs>
       <use xlink:href="#DejaVuSans-32"/>
       <use xlink:href="#DejaVuSans-30" x="63.623047"/>
       <use xlink:href="#DejaVuSans-31" x="127.246094"/>
       <use xlink:href="#DejaVuSans-38" x="190.869141"/>
      </g>
     </g>
    </g>
    <g id="xtick_6">
     <g id="line2d_6">
      <g>
       <use xlink:href="#m29d2c1ba59" x="559.517497" y="327.558125" style="stroke: #000000; stroke-width: 0.8"/>
      </g>
     </g>
     <g id="text_6">
      <!-- 2020 -->
      <g transform="translate(546.792497 342.156563) scale(0.1 -0.1)">
       <use xlink:href="#DejaVuSans-32"/>
       <use xlink:href="#DejaVuSans-30" x="63.623047"/>
       <use xlink:href="#DejaVuSans-32" x="127.246094"/>
       <use xlink:href="#DejaVuSans-30" x="190.869141"/>
      </g>
     </g>
    </g>
    <g id="xtick_7">
     <g id="line2d_7">
      <g>
       <use xlink:href="#m29d2c1ba59" x="654.928919" y="327.558125" style="stroke: #000000; stroke-width: 0.8"/>
      </g>
     </g>
     <g id="text_7">
      <!-- 2022 -->
      <g transform="translate(642.203919 342.156563) scale(0.1 -0.1)">
       <use xlink:href="#DejaVuSans-32"/>
       <use xlink:href="#DejaVuSans-30" x="63.623047"/>
       <use xlink:href="#DejaVuSans-32" x="127.246094"/>
       <use xlink:href="#DejaVuSans-32" x="190.869141"/>
      </g>
     </g>
    </g>
   </g>
   <g id="matplotlib.axis_2">
    <g id="ytick_1">
     <g id="line2d_8">
      <defs>
       <path id="mdde2c6897b" d="M 0 0 
L -3.5 0 
" style="stroke: #000000; stroke-width: 0.8"/>
      </defs>
      <g>
       <use xlink:href="#mdde2c6897b" x="26.925" y="304.625867" style="stroke: #000000; stroke-width: 0.8"/>
      </g>
     </g>
     <g id="text_8">
      <!-- 0 -->
      <g transform="translate(13.5625 308.425085) scale(0.1 -0.1)">
       <use xlink:href="#DejaVuSans-30"/>
      </g>
     </g>
    </g>
    <g id="ytick_2">
     <g id="line2d_9">
      <g>
       <use xlink:href="#mdde2c6897b" x="26.925" y="255.399166" style="stroke: #000000; stroke-width: 0.8"/>
      </g>
     </g>
     <g id="text_9">
      <!-- 5 -->
      <g transform="translate(13.5625 259.198385) scale(0.1 -0.1)">
       <defs>
        <path id="DejaVuSans-35" d="M 691 4666 
L 3169 4666 
L 3169 4134 
L 1269 4134 
L 1269 2991 
Q 1406 3038 1543 3061 
Q 1681 3084 1819 3084 
Q 2600 3084 3056 2656 
Q 3513 2228 3513 1497 
Q 3513 744 3044 326 
Q 2575 -91 1722 -91 
Q 1428 -91 1123 -41 
Q 819 9 494 109 
L 494 744 
Q 775 591 1075 516 
Q 1375 441 1709 441 
Q 2250 441 2565 725 
Q 2881 1009 2881 1497 
Q 2881 1984 2565 2268 
Q 2250 2553 1709 2553 
Q 1456 2553 1204 2497 
Q 953 2441 691 2322 
L 691 4666 
z
" transform="scale(0.015625)"/>
       </defs>
       <use xlink:href="#DejaVuSans-35"/>
      </g>
     </g>
    </g>
    <g id="ytick_3">
     <g id="line2d_10">
      <g>
       <use xlink:href="#mdde2c6897b" x="26.925" y="206.172466" style="stroke: #000000; stroke-width: 0.8"/>
      </g>
     </g>
     <g id="text_10">
      <!-- 10 -->
      <g transform="translate(7.2 209.971685) scale(0.1 -0.1)">
       <use xlink:href="#DejaVuSans-31"/>
       <use xlink:href="#DejaVuSans-30" x="63.623047"/>
      </g>
     </g>
    </g>
    <g id="ytick_4">
     <g id="line2d_11">
      <g>
       <use xlink:href="#mdde2c6897b" x="26.925" y="156.945766" style="stroke: #000000; stroke-width: 0.8"/>
      </g>
     </g>
     <g id="text_11">
      <!-- 15 -->
      <g transform="translate(7.2 160.744985) scale(0.1 -0.1)">
       <use xlink:href="#DejaVuSans-31"/>
       <use xlink:href="#DejaVuSans-35" x="63.623047"/>
      </g>
     </g>
    </g>
    <g id="ytick_5">
     <g id="line2d_12">
      <g>
       <use xlink:href="#mdde2c6897b" x="26.925" y="107.719066" style="stroke: #000000; stroke-width: 0.8"/>
      </g>
     </g>
     <g id="text_12">
      <!-- 20 -->
      <g transform="translate(7.2 111.518285) scale(0.1 -0.1)">
       <use xlink:href="#DejaVuSans-32"/>
       <use xlink:href="#DejaVuSans-30" x="63.623047"/>
      </g>
     </g>
    </g>
    <g id="ytick_6">
     <g id="line2d_13">
      <g>
       <use xlink:href="#mdde2c6897b" x="26.925" y="58.492366" style="stroke: #000000; stroke-width: 0.8"/>
      </g>
     </g>
     <g id="text_13">
      <!-- 25 -->
      <g transform="translate(7.2 62.291584) scale(0.1 -0.1)">
       <use xlink:href="#DejaVuSans-32"/>
       <use xlink:href="#DejaVuSans-35" x="63.623047"/>
      </g>
     </g>
    </g>
   </g>
   <g id="line2d_14">
    <path d="M 57.775455 193.619658 
L 58.161581 212.399644 
L 59.211194 246.39068 
L 59.29277 247.202921 
L 59.488553 248.753562 
L 59.662582 251.337964 
L 60.162915 262.586265 
L 60.951485 261.527891 
L 61.005869 259.854183 
L 61.065691 261.15869 
L 61.527956 276.665101 
L 61.587778 274.720646 
L 61.783561 260.05109 
L 61.848822 260.78949 
L 62.495992 272.923872 
L 62.501431 273.022325 
L 62.583007 272.653125 
L 62.81142 268.887282 
L 62.909311 266.376721 
L 63.067025 237.726781 
L 63.159478 243.707825 
L 63.496659 271.496297 
L 63.534728 270.26563 
L 63.594551 268.591922 
L 63.648935 269.74875 
L 63.964362 277.305048 
L 63.969801 277.280435 
L 63.996993 277.649635 
L 64.154707 278.954143 
L 64.160145 278.880302 
L 64.306982 258.598902 
L 64.31242 258.623515 
L 64.355928 259.878796 
L 64.948714 286.239694 
L 65.182566 290.350124 
L 65.275019 289.168683 
L 65.50887 284.51676 
L 65.650269 281.193957 
L 65.693776 281.464704 
L 66.194109 289.73479 
L 66.3627 291.433111 
L 66.389892 291.531564 
L 66.449715 291.630018 
L 66.482345 291.506951 
L 66.49866 291.531564 
L 66.520414 291.457724 
L 66.56936 291.703858 
L 66.574798 291.654631 
L 66.612867 291.826925 
L 66.645497 291.531564 
L 66.678128 291.605405 
L 66.716197 291.703858 
L 66.765142 291.777698 
L 66.781457 291.654631 
L 66.830403 291.728471 
L 66.852157 291.630018 
L 66.906541 291.851538 
L 66.911979 291.826925 
L 67.118639 293.156046 
L 67.254599 294.263646 
L 67.401436 294.977433 
L 67.412313 294.95282 
L 67.450382 294.87898 
L 67.602657 292.614552 
L 67.673356 291.605405 
L 67.733179 291.777698 
L 67.765809 291.826925 
L 67.803878 291.408498 
L 67.923523 290.054763 
L 68.005099 290.448577 
L 68.260704 293.795993 
L 68.402103 294.411326 
L 68.440172 294.165193 
L 68.641393 291.876151 
L 68.646831 291.999218 
L 68.65227 291.949991 
L 68.712092 292.417645 
L 68.853491 292.983752 
L 69.06015 254.340792 
L 69.125411 244.323159 
L 69.185234 250.64879 
L 69.381016 273.022325 
L 69.440839 272.923872 
L 69.614868 279.347956 
L 69.854158 284.073719 
L 69.924857 284.861347 
L 69.973803 285.40284 
L 70.006433 284.713666 
L 70.109763 264.383039 
L 70.15327 262.093998 
L 70.218531 264.186132 
L 70.506767 273.982246 
L 71.240952 285.279774 
L 71.355158 286.288921 
L 71.572695 288.725643 
L 71.648832 287.938015 
L 71.730408 283.606066 
L 71.763039 282.990732 
L 71.833738 283.729132 
L 71.855492 283.852199 
L 71.893561 282.867665 
L 71.953383 272.185471 
L 72.045836 224.090985 
L 72.23618 179.393141 
L 72.290564 178.728581 
L 72.334072 179.540821 
L 72.426525 186.850986 
L 72.698445 206.738573 
L 72.709322 206.467826 
L 72.747391 208.486121 
L 73.269478 234.625499 
L 73.655605 244.864653 
L 73.699112 243.953959 
L 73.753496 224.755546 
L 74.0798 153.30299 
L 74.117869 152.983017 
L 74.166815 153.45067 
L 74.172253 153.426057 
L 74.542065 166.446519 
L 74.569257 167.800253 
L 74.639956 165.978866 
L 74.917315 113.77395 
L 75.238181 88.569879 
L 75.308881 89.579027 
L 75.624308 93.418709 
L 75.820091 99.22746 
L 76.249725 116.358352 
L 76.461823 129.452654 
L 76.793566 159.431714 
L 77.168816 183.725091 
L 77.196008 184.143518 
L 77.234077 183.306664 
L 77.386352 179.737728 
L 77.451613 180.648422 
L 77.783356 192.659737 
L 78.522979 212.571937 
L 79.03419 220.620503 
L 79.045066 220.103622 
L 79.240849 211.242816 
L 79.344179 212.375031 
L 79.376809 212.891911 
L 79.637853 218.479141 
L 79.643291 218.454528 
L 79.659607 218.749888 
L 79.81732 220.202076 
L 79.822759 219.931329 
L 80.067487 198.911528 
L 80.078364 199.108435 
L 80.747288 211.759697 
L 80.752726 211.759697 
L 80.959386 215.771673 
L 81.024647 217.199247 
L 81.302006 224.829386 
L 81.443404 229.382855 
L 81.775147 239.252809 
L 81.824093 237.062221 
L 81.883915 200.339102 
L 82.068821 130.855615 
L 82.270042 116.604485 
L 82.433194 114.093924 
L 82.438633 114.167764 
L 82.520209 113.77395 
L 82.819321 110.328081 
L 83.053173 113.429363 
L 83.374039 127.089772 
L 83.841742 168.957081 
L 84.467159 220.300529 
L 84.695572 227.364561 
L 85.369934 242.797131 
L 85.375373 242.797131 
L 85.571156 232.188777 
L 85.712554 215.008659 
L 85.783253 216.903887 
L 85.843076 218.946795 
L 85.881145 216.436233 
L 86.392355 175.331939 
L 86.403232 175.405779 
L 86.419547 175.282712 
L 86.441301 175.898046 
L 86.446739 175.898046 
L 86.528315 179.319301 
L 87.208116 218.011488 
L 87.393022 221.03893 
L 87.409337 221.11277 
L 87.431091 220.571276 
L 87.512667 211.365883 
L 87.795464 185.644932 
L 87.94774 182.10061 
L 88.040193 181.091463 
L 88.0837 181.386823 
L 88.170714 183.109757 
L 88.861392 206.86164 
L 88.959283 209.692175 
L 89.204012 216.387007 
L 89.437863 221.48197 
L 89.611892 224.238665 
L 89.649961 223.377198 
L 89.747853 222.023464 
L 89.82399 222.491117 
L 89.834867 222.540344 
L 90.536422 237.234514 
L 91.069386 246.833721 
L 91.25973 249.541189 
L 91.63498 254.340792 
L 91.640418 254.217726 
L 91.721995 254.734606 
L 91.863393 255.079193 
L 92.01023 211.93199 
L 92.097245 204.818732 
L 92.14619 206.738573 
L 92.227766 212.621164 
L 92.59214 232.164164 
L 92.945636 244.372386 
L 93.146857 247.129081 
L 93.228433 247.695188 
L 93.255625 247.301374 
L 93.326325 244.372386 
L 93.71789 220.054396 
L 93.755959 219.389835 
L 93.891919 215.180952 
L 93.940865 215.697833 
L 94.033318 216.9285 
L 94.076825 216.165486 
L 94.125771 211.956604 
L 94.397691 190.419922 
L 94.555405 188.647761 
L 94.57172 188.672374 
L 94.577158 188.623148 
L 94.615227 189.164641 
L 94.789256 194.062698 
L 94.94697 197.951607 
L 94.952409 197.853154 
L 95.403796 182.149837 
L 95.409235 182.199063 
L 95.414673 182.17445 
L 95.458181 182.371357 
L 96.083597 205.704813 
L 96.507793 225.567786 
L 96.796029 232.927178 
L 96.866728 234.527046 
L 97.590036 249.664256 
L 97.595475 248.679722 
L 97.774942 186.65408 
L 97.889149 175.971886 
L 97.932656 177.301007 
L 98.411236 211.981217 
L 98.530881 221.088156 
L 98.563511 215.771673 
L 98.851747 177.128713 
L 98.911569 179.245461 
L 99.721892 226.749227 
L 99.754522 227.782988 
L 99.803468 225.518559 
L 99.944867 216.017806 
L 100.031881 219.045248 
L 100.41257 235.019313 
L 100.418008 235.166993 
L 100.472392 233.640965 
L 100.673613 225.986213 
L 100.711682 226.306187 
L 100.92378 229.530536 
L 101.037987 232.607204 
L 101.048863 230.859656 
L 101.304469 181.534503 
L 101.309907 181.509889 
L 101.320784 181.821659 
L 101.342537 181.80525 
L 101.353414 181.903703 
L 101.407798 181.362209 
L 101.592704 176.931806 
L 101.647088 177.793274 
L 101.995146 202.652757 
L 102.430219 229.062882 
L 102.740208 239.129742 
L 103.169842 244.987719 
L 103.175281 244.938493 
L 103.229665 245.258466 
L 103.240542 245.258466 
L 103.719122 258.598902 
L 104.377169 275.9267 
L 104.382607 275.9267 
L 104.57839 278.732622 
L 104.649089 279.544863 
L 105.008024 284.049106 
L 105.024339 284.147559 
L 105.334329 286.042787 
L 105.715017 289.21791 
L 105.753086 288.824096 
L 105.818347 287.199615 
L 105.883608 287.913402 
L 105.916238 288.257989 
L 105.959745 287.938015 
L 106.095706 285.673587 
L 106.188159 283.556839 
L 106.237104 284.098333 
L 106.405695 287.888789 
L 106.954974 295.888127 
L 106.971289 295.838901 
L 107.025673 296.011194 
L 107.041989 295.986581 
L 107.210579 297.241862 
L 107.351978 298.472529 
L 107.357416 298.226396 
L 107.362855 297.955649 
L 107.438992 298.275622 
L 107.466184 298.201782 
L 107.645652 294.28826 
L 108.02634 277.255821 
L 108.135109 266.819761 
L 108.162301 267.139734 
L 108.33633 273.588432 
L 108.749649 284.5906 
L 108.863855 286.141241 
L 108.896486 285.525907 
L 108.9835 278.708009 
L 109.08683 271.939338 
L 109.141214 272.628512 
L 109.369627 280.307877 
L 109.962413 293.451406 
L 109.995044 293.525246 
L 110.31591 289.267136 
L 110.402924 286.781188 
L 110.468185 287.002708 
L 110.538885 286.707348 
L 110.495377 287.051935 
L 110.582392 286.978095 
L 111.093602 295.420474 
L 111.300262 297.192635 
L 111.588497 298.127942 
L 111.599374 298.078716 
L 111.653758 297.955649 
L 111.691827 298.251009 
L 111.849541 298.915569 
L 111.860418 298.890956 
L 111.903925 299.13709 
L 111.909363 299.13709 
L 111.985501 299.161703 
L 112.105146 299.604743 
L 112.110584 299.58013 
L 112.29549 299.58013 
L 112.371628 299.235543 
L 112.415135 299.309383 
L 112.540219 299.309383 
L 112.572849 299.112476 
L 112.632672 299.678583 
L 112.63811 299.604743 
L 112.812139 300.909251 
L 112.817577 300.860024 
L 112.991606 301.721491 
L 113.024237 301.819945 
L 113.040552 301.647651 
L 113.084059 301.672265 
L 113.089498 301.573811 
L 113.165636 302.016852 
L 113.171074 302.016852 
L 113.198266 302.115305 
L 113.230896 301.893785 
L 113.236335 301.893785 
L 113.394049 300.958478 
L 113.399487 301.007704 
L 113.453871 300.712344 
L 113.481063 300.736957 
L 113.519132 300.810797 
L 113.633339 301.106158 
L 113.638777 301.081544 
L 113.649654 301.056931 
L 113.687723 301.278451 
L 113.693161 301.278451 
L 113.845436 301.647651 
L 113.948766 301.598425 
L 113.856313 301.746105 
L 113.954205 301.623038 
L 114.122795 302.755252 
L 114.133672 302.656799 
L 114.275071 302.213758 
L 114.280509 302.238372 
L 114.31314 301.992238 
L 114.340332 302.066078 
L 114.400154 301.672265 
L 114.438223 302.115305 
L 114.4491 302.090692 
L 114.508922 302.336825 
L 114.546991 301.943012 
L 114.655759 301.032318 
L 114.693828 301.303064 
L 114.715582 301.524585 
L 114.797158 301.253838 
L 114.802596 301.278451 
L 114.808035 301.204611 
L 114.851542 301.352291 
L 114.905926 301.352291 
L 114.987502 301.253838 
L 115.139777 299.80165 
L 115.156093 299.94933 
L 115.411698 302.632185 
L 115.428013 302.755252 
L 115.455205 302.558345 
L 115.536781 302.016852 
L 115.57485 302.066078 
L 115.580288 302.090692 
L 115.618357 301.918398 
L 115.672741 302.016852 
L 115.808702 297.660289 
L 116.15676 266.130587 
L 116.287281 269.059576 
L 116.412365 272.160858 
L 116.619024 275.729794 
L 116.624463 275.680567 
L 116.657093 276.320514 
L 116.662532 276.320514 
L 116.793053 277.649635 
L 116.820245 277.354275 
L 117.037782 272.431605 
L 117.070412 272.726965 
L 117.619691 284.639826 
L 117.820912 286.461214 
L 117.826351 286.362761 
L 117.89705 286.978095 
L 117.902488 286.953481 
L 118.049325 287.790335 
L 118.081956 287.888789 
L 118.163532 288.110309 
L 118.207039 288.061082 
L 118.212478 287.987242 
L 118.304931 288.208762 
L 118.310369 288.159535 
L 118.457206 288.651802 
L 118.473521 288.627189 
L 118.663866 289.51327 
L 118.707373 289.611723 
L 119.207706 296.724981 
L 119.691725 298.447916 
L 119.70804 298.398689 
L 119.773301 298.620209 
L 119.784178 298.546369 
L 119.969083 299.235543 
L 119.996275 299.309383 
L 120.21925 300.343144 
L 120.251881 300.441597 
L 120.676076 302.164532 
L 120.719584 302.090692 
L 120.735899 302.164532 
L 120.83379 302.016852 
L 120.855544 301.992238 
L 120.860982 301.893785 
L 120.942558 302.312212 
L 120.947997 302.312212 
L 121.138341 303.813626 
L 121.149218 303.789013 
L 121.274301 303.936693 
L 121.317808 303.887466 
L 121.323247 303.813626 
L 121.372193 304.010533 
L 121.4157 303.936693 
L 121.524468 304.20744 
L 121.459207 303.813626 
L 121.535345 304.1336 
L 121.595167 304.010533 
L 121.557098 304.158213 
L 121.606044 304.158213 
L 121.714812 304.478187 
L 121.725689 304.42896 
L 121.834457 304.305893 
L 121.763758 304.65048 
L 121.839896 304.330507 
L 121.850772 304.404347 
L 121.916033 304.182826 
L 121.943225 304.256666 
L 121.975856 304.010533 
L 122.073747 304.158213 
L 122.215146 304.35512 
L 122.220584 304.28128 
L 122.307599 304.478187 
L 122.313037 304.478187 
L 122.394613 304.527413 
L 122.465312 304.675093 
L 122.497943 304.5028 
L 122.503381 304.552027 
L 122.650218 304.379733 
L 122.764425 304.330507 
L 122.797055 304.20744 
L 122.818809 304.35512 
L 122.878631 304.256666 
L 122.88407 304.35512 
L 122.9167 304.1336 
L 122.981961 304.182826 
L 122.992838 304.1336 
L 123.036345 304.35512 
L 123.079852 304.20744 
L 123.243005 304.5028 
L 123.248443 304.453573 
L 123.340896 304.625867 
L 123.422472 304.5028 
L 123.384403 304.65048 
L 123.444226 304.552027 
L 123.520363 304.699707 
L 123.552994 304.625867 
L 123.558432 304.527413 
L 123.607378 304.72432 
L 123.656324 304.699707 
L 123.797722 304.552027 
L 123.993505 304.65048 
L 124.124027 304.822774 
L 124.004382 304.57664 
L 124.134904 304.79816 
L 124.140342 304.773547 
L 124.172972 304.921227 
L 124.232795 304.847387 
L 124.24911 304.896614 
L 124.319809 304.748933 
L 124.325248 304.822774 
L 124.35244 304.748933 
L 124.417701 304.970454 
L 124.428578 304.896614 
L 124.548223 305.044294 
L 124.439454 304.872 
L 124.564538 305.01968 
L 124.684183 304.72432 
L 124.716813 304.79816 
L 124.76032 304.57664 
L 124.787512 304.675093 
L 124.918034 304.379733 
L 124.923473 304.42896 
L 124.961541 304.35512 
L 125.075748 303.98592 
L 125.086625 304.084373 
L 125.097502 304.158213 
L 125.119255 303.98592 
L 125.189955 304.084373 
L 125.195393 304.05976 
L 125.271531 304.20744 
L 125.315038 304.108986 
L 125.456437 303.887466 
L 125.363984 304.232053 
L 125.467313 303.91208 
L 125.521697 303.813626 
L 125.673973 303.075226 
L 125.554328 303.936693 
L 125.68485 303.099839 
L 125.706603 303.025999 
L 125.880632 299.21093 
L 126.027469 297.463382 
L 126.103607 295.765061 
L 126.478857 271.447071 
L 126.587625 275.065233 
L 126.821477 281.981585 
L 126.826915 281.932358 
L 126.886738 282.301558 
L 126.892176 282.252331 
L 127.039013 282.867665 
L 127.04989 282.793825 
L 127.126028 283.138412 
L 127.533908 285.452067 
L 127.789513 288.159535 
L 127.80039 288.257989 
L 127.838459 288.159535 
L 127.963542 289.488656 
L 128.556329 296.035808 
L 128.904387 298.251009 
L 128.909825 298.226396 
L 128.931579 298.300236 
L 129.072978 298.743276 
L 129.089293 298.718663 
L 129.219815 298.743276 
L 129.344898 299.112476 
L 129.350336 299.06325 
L 129.421036 299.28477 
L 129.437351 299.260156 
L 129.453666 299.333996 
L 129.595065 299.65397 
L 129.600503 299.629357 
L 129.616818 299.72781 
L 129.671202 299.703197 
L 129.779971 299.826263 
L 129.785409 299.80165 
L 129.796286 299.777037 
L 129.943123 300.220077 
L 130.100837 300.515437 
L 129.954 300.195464 
L 130.111713 300.490824 
L 130.171536 300.466211 
L 130.323811 299.50629 
L 130.470648 298.915569 
L 130.486964 298.964796 
L 130.492402 299.014023 
L 130.546786 298.595596 
L 130.818706 295.666607 
L 130.824145 295.740447 
L 130.905721 295.4697 
L 130.911159 295.4697 
L 131.128696 294.28826 
L 131.145011 294.312873 
L 131.362547 295.740447 
L 131.520261 297.069568 
L 131.525699 297.044955 
L 131.574645 297.291088 
L 131.737797 297.758742 
L 131.743236 297.709515 
L 131.781305 297.832582 
L 131.835689 297.783355 
L 131.895511 298.004876 
L 131.868319 297.758742 
L 131.955334 297.906422 
L 132.161993 298.521756 
L 132.167432 298.423302 
L 132.17287 298.374076 
L 132.227254 298.743276 
L 132.238131 298.743276 
L 132.270761 298.817116 
L 132.297953 298.620209 
L 132.346899 298.767889 
L 132.368653 298.718663 
L 132.423037 298.866343 
L 132.433913 298.866343 
L 132.586189 299.13709 
L 132.450229 298.767889 
L 132.591627 299.087863 
L 132.597066 299.038636 
L 132.662327 299.28477 
L 132.678642 299.235543 
L 132.792848 299.457063 
L 132.809164 299.407836 
L 132.841794 299.481677 
L 132.858109 299.457063 
L 132.956001 299.604743 
L 132.961439 299.58013 
L 133.015823 299.777037 
L 133.021261 299.777037 
L 133.173537 300.09701 
L 133.184414 300.02317 
L 133.249675 300.121624 
L 133.423704 300.687731 
L 133.521595 300.761571 
L 133.554225 300.810797 
L 133.603171 300.638504 
L 133.614048 300.712344 
L 133.739131 300.441597 
L 133.826146 300.613891 
L 133.853338 300.515437 
L 133.907722 300.589277 
L 133.91316 300.663117 
L 134.005613 300.515437 
L 134.01649 300.564664 
L 134.081751 300.712344 
L 134.125258 300.589277 
L 134.130697 300.564664 
L 134.168765 300.761571 
L 134.212273 300.687731 
L 134.342795 300.786184 
L 134.505947 301.081544 
L 134.544016 301.179998 
L 134.63103 299.186316 
L 134.772429 289.267136 
L 134.810498 289.80863 
L 134.930143 291.334658 
L 135.000842 290.891617 
L 135.283639 289.931697 
L 135.310831 289.980923 
L 135.430476 290.153217 
L 135.522929 289.759403 
L 135.560998 289.88247 
L 135.653451 290.448577 
L 135.69152 290.17783 
L 135.745904 289.95631 
L 135.805726 290.128603 
L 135.903618 291.063911 
L 136.0994 292.614552 
L 136.518158 294.682073 
L 136.572542 294.312873 
L 136.811832 292.540712 
L 136.8499 292.442258 
L 136.887969 292.220738 
L 136.964107 292.417645 
L 137.100067 292.786845 
L 137.116382 292.614552 
L 137.121821 292.565325 
L 137.165328 292.836072 
L 137.203397 292.811459 
L 137.301288 292.909912 
L 137.241466 292.663779 
L 137.317603 292.836072 
L 137.323042 292.762232 
L 137.377426 292.909912 
L 137.420933 292.885299 
L 137.453564 292.983752 
L 137.469879 293.057592 
L 137.546017 292.836072 
L 137.578647 291.753085 
L 137.643908 274.991393 
L 137.861444 195.908699 
L 137.964774 200.905209 
L 138.122488 208.978388 
L 138.155118 206.71396 
L 138.263886 198.763848 
L 138.329147 201.766677 
L 138.688082 223.204905 
L 138.747905 225.74008 
L 138.807727 223.795625 
L 138.818604 223.820238 
L 138.862111 223.623332 
L 138.932811 221.26045 
L 139.161224 208.978388 
L 139.253677 200.560622 
L 139.422267 183.060531 
L 139.438582 183.158984 
L 139.78664 193.545818 
L 139.922601 200.216036 
L 139.982423 201.71745 
L 140.031369 200.166809 
L 140.450126 181.903703 
L 140.466441 181.829863 
L 140.50451 182.32213 
L 140.71117 192.31515 
L 141.331148 227.019974 
L 141.537808 233.616352 
L 141.559561 231.967257 
L 141.690083 215.304019 
L 141.749906 217.839194 
L 141.891304 222.318824 
L 141.929373 222.07269 
L 141.956565 221.48197 
L 142.005511 219.439062 
L 142.152348 210.282896 
L 142.201293 211.242816 
L 142.369884 219.980556 
L 142.772326 238.686702 
L 142.810395 239.006675 
L 142.848464 238.292888 
L 142.881094 238.022141 
L 142.924602 238.809769 
L 143.310729 247.547508 
L 143.598964 253.627005 
L 143.64791 252.716311 
L 144.093859 237.185287 
L 144.099298 237.259127 
L 144.12649 233.813258 
L 144.289642 211.390497 
L 144.387533 213.876445 
L 144.458233 214.762525 
L 144.518055 214.417939 
L 144.556124 214.516392 
L 144.621385 216.04242 
L 144.925936 231.893417 
L 145.056457 230.933496 
L 145.132595 229.505922 
L 145.225048 215.8209 
L 145.350131 172.452177 
L 145.785204 39.195499 
L 145.921164 36.19267 
L 145.948356 37.866378 
L 146.00274 43.035182 
L 146.160454 56.203324 
L 146.372552 62.036688 
L 146.182208 55.784897 
L 146.383429 61.962848 
L 146.416059 61.618261 
L 146.465005 62.971995 
L 146.470443 62.898155 
L 146.475882 62.725862 
L 146.546581 63.981143 
L 146.552019 63.735009 
L 146.562896 63.858076 
L 146.579212 63.833463 
L 146.72061 68.091572 
L 146.726049 67.746985 
L 146.791309 70.356 
L 147.052353 80.004434 
L 147.139368 82.490382 
L 147.362342 89.209827 
L 147.367781 89.1606 
L 147.389534 89.874387 
L 147.661455 98.661353 
L 147.840922 103.85477 
L 148.058458 109.638907 
L 148.254241 115.152298 
L 148.672998 134.326097 
L 148.776328 138.731887 
L 148.798082 135.901352 
L 148.93948 132.357029 
L 148.955796 132.209349 
L 149.01018 133.218497 
L 149.048249 134.473777 
L 149.135263 133.809217 
L 149.456129 127.508199 
L 149.472444 127.532813 
L 149.477883 127.606653 
L 149.526828 126.892866 
L 149.532267 126.892866 
L 149.592089 126.179078 
L 149.651912 126.523665 
L 149.706296 127.163612 
L 150.331713 150.497068 
L 151.392202 206.443213 
L 151.767452 214.811752 
L 151.897974 216.977727 
L 151.919728 217.322314 
L 151.995865 216.682367 
L 152.001304 216.70698 
L 152.039373 216.436233 
L 152.044811 216.362393 
L 152.104634 216.953114 
L 152.490761 222.097304 
L 152.496199 222.048077 
L 152.545145 222.097304 
L 152.637598 220.940476 
L 152.69742 220.842023 
L 152.713735 221.03893 
L 152.893203 223.672558 
L 153.143369 228.127575 
L 153.534935 233.247151 
L 153.540373 233.222538 
L 153.573004 233.444058 
L 153.58388 233.444058 
L 153.736156 234.453206 
L 153.779663 234.576272 
L 153.785102 234.527046 
L 153.910185 218.356075 
L 153.915623 218.503755 
L 153.937377 219.069862 
L 154.513848 236.003847 
L 154.715069 238.071368 
L 154.731384 237.948301 
L 154.736823 237.997528 
L 154.785769 237.431421 
L 154.840153 236.496114 
L 154.905414 236.939154 
L 154.992428 237.480648 
L 155.046812 237.456034 
L 155.199088 210.725936 
L 155.329609 217.543834 
L 155.732051 235.560806 
L 155.759243 233.813258 
L 155.895204 225.66624 
L 155.965903 226.7 
L 155.982218 226.798454 
L 156.101863 227.807601 
L 156.2487 231.228857 
L 156.640266 241.46801 
L 157.92373 260.395677 
L 158.146704 266.425947 
L 158.33161 274.400673 
L 158.630723 283.778359 
L 158.761244 285.329 
L 158.821067 284.9598 
L 159.076672 281.587771 
L 159.114741 281.489318 
L 159.250701 280.430944 
L 159.375785 279.347956 
L 159.402977 279.421796 
L 159.42473 279.298729 
L 159.66402 281.095504 
L 159.723843 281.809291 
L 159.729281 281.784678 
L 159.761911 278.855689 
L 159.843488 279.027983 
L 159.886995 278.781849 
L 159.941379 279.126436 
L 160.03927 280.03713 
L 160.610303 287.322682 
L 160.670126 287.101161 
L 160.811524 285.968947 
L 161.034499 283.064572 
L 161.045376 283.163025 
L 161.213966 283.975266 
L 161.224843 283.778359 
L 161.442379 285.230547 
L 161.621847 286.485828 
L 161.752369 285.796654 
L 161.795876 285.919721 
L 162.078673 289.094843 
L 162.182003 290.054763 
L 162.312525 290.32551 
L 162.551815 291.113137 
L 162.579007 291.039297 
L 162.606199 291.137751 
L 162.666021 291.236204 
L 162.671459 291.063911 
L 162.70409 291.088524 
L 162.758474 290.965457 
L 162.80742 291.162364 
L 162.812858 291.162364 
L 162.992326 292.811459 
L 163.003202 292.885299 
L 163.307753 295.568154 
L 163.340384 295.666607 
L 163.42196 295.765061 
L 163.438275 295.641994 
L 163.585112 295.1005 
L 163.601427 295.17434 
L 163.66125 294.7313 
L 163.79721 294.165193 
L 163.808087 294.189806 
L 163.982116 294.559007 
L 164.063692 292.122285 
L 164.156145 287.814949 
L 164.221406 288.356442 
L 164.509641 290.448577 
L 164.536833 290.25167 
L 164.759808 287.051935 
L 164.841384 287.593428 
L 164.895768 287.814949 
L 164.971906 287.741109 
L 165.086112 287.593428 
L 165.091551 287.642655 
L 165.36891 289.907083 
L 165.521185 290.596257 
L 165.5375 290.497804 
L 165.994327 284.172173 
L 166.124848 285.25516 
L 166.288001 287.691882 
L 166.505537 290.128603 
L 166.668689 290.867004 
L 166.695881 290.965457 
L 167.266914 294.042126 
L 167.58778 296.035808 
L 167.593218 295.986581 
L 167.62041 296.060421 
L 167.658479 296.232714 
L 167.685671 296.035808 
L 167.734617 296.085034 
L 167.783563 296.183488 
L 167.881454 296.306554 
L 167.832508 296.158874 
L 167.897769 296.257328 
L 167.946715 296.183488 
L 168.088113 295.863514 
L 168.387226 296.872661 
L 168.392664 296.749595 
L 168.47424 295.986581 
L 168.523186 296.060421 
L 168.626516 295.961967 
L 168.588447 296.085034 
L 168.637393 296.011194 
L 168.757038 296.232714 
L 168.778791 296.158874 
L 168.81686 296.232714 
L 169.230179 299.014023 
L 169.349824 298.841729 
L 169.387893 298.915569 
L 169.496661 299.014023 
L 169.741389 297.709515 
L 169.540168 299.087863 
L 169.746828 297.734129 
L 169.77402 297.635675 
L 169.850157 297.611062 
L 169.795773 297.734129 
L 169.882788 297.635675 
L 170.01331 297.537222 
L 170.018748 297.512609 
L 170.051379 297.734129 
L 170.078571 297.734129 
L 170.219969 297.832582 
L 170.459259 298.620209 
L 170.263476 297.783355 
L 170.470136 298.497143 
L 170.481013 298.324849 
L 170.551712 298.866343 
L 170.568027 298.792503 
L 170.687672 298.620209 
L 170.774687 298.817116 
L 170.807317 298.743276 
L 170.921524 298.669436 
L 170.948716 298.718663 
L 171.041169 298.595596 
L 171.122745 298.497143 
L 171.220636 297.143408 
L 171.400104 267.361255 
L 171.48168 270.48715 
L 171.737285 276.763554 
L 171.742723 276.738941 
L 171.748162 276.714328 
L 171.775354 277.034301 
L 171.99289 279.790996 
L 172.014644 278.511102 
L 172.052713 268.050428 
L 172.275687 206.590893 
L 172.302879 205.975559 
L 172.346387 207.870787 
L 172.5041 228.226028 
L 172.748829 252.863991 
L 172.776021 251.411804 
L 172.971803 226.03544 
L 173.18934 171.763003 
L 173.211093 171.787616 
L 173.374246 176.587219 
L 173.591782 187.933974 
L 173.640728 187.17096 
L 173.711427 186.112586 
L 173.754934 187.072507 
L 173.890894 192.09363 
L 173.950717 190.567602 
L 174.04317 187.367867 
L 174.102992 188.450854 
L 174.141061 189.755362 
L 174.271583 195.145685 
L 174.538065 209.224522 
L 174.581572 206.910867 
L 175.027521 136.344392 
L 175.196112 141.070155 
L 175.424525 151.456989 
L 175.734514 162.828357 
L 176.000996 179.048554 
L 176.060819 176.537993 
L 176.223971 171.738389 
L 176.22941 171.763003 
L 176.26204 171.443029 
L 176.267478 171.344576 
L 176.349054 171.836843 
L 177.485682 217.642287 
L 177.518312 215.279406 
L 177.735848 192.044403 
L 177.822863 193.348911 
L 177.947946 195.490272 
L 178.127414 201.988197 
L 178.644062 225.936986 
L 178.845284 230.170483 
L 179.122642 237.160674 
L 179.427193 244.027799 
L 179.454385 243.240172 
L 179.612099 236.077687 
L 179.715429 238.219048 
L 180.444175 257.835888 
L 181.004331 265.835227 
L 181.00977 265.392187 
L 181.162045 234.551659 
L 181.205552 236.003847 
L 181.319759 240.50809 
L 181.357828 238.292888 
L 181.618871 222.491117 
L 181.629748 222.540344 
L 181.667817 222.220371 
L 181.711324 221.605037 
L 181.852723 215.89474 
L 181.890792 215.476313 
L 181.945176 216.288553 
L 182.467263 234.896246 
L 182.521647 236.1023 
L 182.532524 235.191606 
L 182.831636 184.192745 
L 182.85339 184.832692 
L 183.544068 219.020635 
L 184.066155 232.065711 
L 184.104224 232.410297 
L 184.147731 231.598057 
L 184.327198 221.62965 
L 184.414213 222.417277 
L 184.490351 222.983384 
L 184.528419 222.614184 
L 184.582804 222.146531 
L 184.648064 222.466504 
L 184.767709 225.543173 
L 185.784692 250.156523 
L 186.034858 252.691698 
L 186.37204 256.752901 
L 186.921319 266.745921 
L 186.948511 265.56448 
L 187.149732 216.657753 
L 187.280254 224.657092 
L 187.410775 232.410297 
L 187.519544 231.204243 
L 187.60112 230.73659 
L 187.650065 231.007337 
L 187.802341 231.54883 
L 187.829533 231.40115 
L 187.894794 231.204243 
L 187.927424 231.499604 
L 187.960055 231.794964 
L 187.987247 231.056563 
L 188.041631 224.558639 
L 188.286359 207.37852 
L 188.411442 204.794119 
L 188.460388 205.581746 
L 188.596348 212.22735 
L 188.993352 213.187271 
L 189.232642 199.009981 
L 189.287026 199.502248 
L 189.727537 214.467165 
L 190.09191 225.9616 
L 191.864831 271.151711 
L 191.979038 271.865498 
L 191.989915 271.545524 
L 192.180259 268.296562 
L 192.196574 268.395015 
L 192.218328 268.493469 
L 192.941636 276.812781 
L 193.153734 277.723475 
L 193.257064 277.526568 
L 193.191803 277.772702 
L 193.278817 277.649635 
L 193.322324 277.748088 
L 193.360393 277.625022 
L 193.387585 277.649635 
L 193.447408 277.649635 
L 193.61056 278.855689 
L 193.784589 281.440091 
L 194.187031 288.085695 
L 194.197908 288.134922 
L 194.491582 290.645484 
L 194.741749 291.826925 
L 194.763502 291.531564 
L 195.008231 268.665762 
L 195.100684 270.880964 
L 195.584702 287.888789 
L 195.747854 288.873323 
L 195.785923 288.947163 
L 196.99325 299.038636 
L 197.004126 298.964796 
L 197.020442 298.817116 
L 197.085703 299.50629 
L 197.091141 299.50629 
L 197.482706 300.835411 
L 197.488145 300.810797 
L 197.553406 300.761571 
L 197.575159 300.860024 
L 197.857956 302.755252 
L 197.885148 302.656799 
L 198.026547 302.066078 
L 198.048301 302.189145 
L 198.097246 302.164532 
L 198.189699 302.459892 
L 198.233207 302.509119 
L 198.35829 302.755252 
L 198.586703 293.156046 
L 198.592141 293.106819 
L 198.635649 293.599086 
L 199.261066 305.339654 
L 199.288258 305.438107 
L 199.375272 305.659627 
L 199.386149 305.315041 
L 199.663508 301.499971 
L 199.707015 301.426131 
L 199.766837 301.475358 
L 200.218225 305.142747 
L 200.250856 304.921227 
L 200.501022 303.050612 
L 200.54453 303.222906 
L 201.104686 307.284109 
L 201.659403 309.79467 
L 201.724664 309.597763 
L 201.887816 309.64699 
L 201.915008 309.745444 
L 201.963954 309.474697 
L 201.991146 309.523923 
L 201.996585 309.49931 
L 202.034653 309.819284 
L 202.426219 311.197631 
L 202.431657 311.173018 
L 202.442534 311.123791 
L 202.507795 311.443765 
L 202.692701 312.649819 
L 202.703578 312.625205 
L 202.719893 312.551365 
L 202.86673 312.132938 
L 202.872168 312.182165 
L 202.953744 312.206779 
L 202.89936 311.960645 
L 202.964621 312.132938 
L 203.051636 311.271471 
L 203.13865 310.533071 
L 203.182157 310.729978 
L 203.236541 310.656137 
L 203.383378 306.004214 
L 203.551969 303.469039 
L 203.562846 303.518266 
L 203.638984 304.35512 
L 204.133879 311.419151 
L 204.171948 311.443765 
L 204.36773 309.893124 
L 204.487375 307.456402 
L 204.509129 307.505629 
L 204.715788 309.57315 
L 204.829995 309.400857 
L 204.840872 309.35163 
L 204.868064 309.622377 
L 205.074723 312.822112 
L 205.080162 312.797499 
L 205.134546 313.043632 
L 205.178053 313.68358 
L 623.891928 113.601657 
L 624.484714 132.677003 
L 625.0775 174.002818 
L 625.360298 188.303174 
L 625.800809 195.761019 
L 626.00203 207.033934 
L 626.355526 225.81392 
L 626.464294 228.865975 
L 626.507802 227.610694 
L 626.627447 221.62965 
L 626.736215 223.106451 
L 626.877613 224.829386 
L 626.915682 224.755546 
L 626.931997 224.829386 
L 627.078834 228.029121 
L 627.116903 226.207733 
L 627.312686 175.627299 
L 627.426892 178.925488 
L 627.622675 187.2448 
L 627.959856 203.809585 
L 628.074063 206.86164 
L 628.411244 215.107112 
L 628.432998 214.836366 
L 628.520012 212.867298 
L 628.585273 213.334951 
L 628.661411 215.697833 
L 629.569625 255.42378 
L 629.895929 263.226212 
L 630.282056 269.625683 
L 630.287495 269.502616 
L 630.363633 270.290243 
L 630.369071 270.26563 
L 630.40714 270.536377 
L 630.412578 270.48715 
L 630.67906 272.751578 
L 630.684499 272.702352 
L 630.706252 272.603898 
L 630.728006 272.037791 
L 630.793267 267.312028 
L 630.869404 264.235359 
L 630.929227 265.392187 
L 631.032557 267.951975 
L 631.12501 267.312028 
L 631.277285 265.515253 
L 631.288162 265.589093 
L 631.39693 266.1552 
L 631.418684 266.130587 
L 631.511137 265.63832 
L 631.42956 266.1552 
L 631.543767 266.00752 
L 631.880948 273.219232 
L 632.000593 274.302219 
L 632.0441 273.686886 
L 632.25076 267.951975 
L 632.49005 258.475835 
L 632.571626 256.605221 
L 632.620572 257.245168 
L 632.805478 261.257144 
L 632.963191 264.89992 
L 632.974068 264.358426 
L 632.984945 264.186132 
L 633.066521 264.875306 
L 633.071959 264.703013 
L 633.10459 264.727626 
L 633.115467 264.629173 
L 633.289496 266.721308 
L 633.294934 266.499787 
L 633.327565 266.893601 
L 633.398264 266.672081 
L 633.425456 267.139734 
L 633.724568 275.606727 
L 633.762637 275.385207 
L 633.980174 277.034301 
L 634.007366 276.640488 
L 634.192271 274.942166 
L 634.19771 274.991393 
L 634.219463 274.499126 
L 634.349985 272.923872 
L 634.415246 271.570138 
L 634.480507 272.333151 
L 634.57296 274.154539 
L 634.779619 277.255821 
L 634.953649 278.732622 
L 634.969964 278.511102 
L 635.269076 264.407653 
L 635.356091 265.909067 
L 636.068522 282.252331 
L 636.253428 284.639826 
L 636.275182 284.467533 
L 636.291497 284.36908 
L 636.432895 279.81561 
L 636.742885 270.388697 
L 636.819022 266.795148 
L 636.873406 267.853522 
L 637.020243 269.527229 
L 637.254095 272.382378 
L 637.547769 243.781665 
L 637.596715 244.003185 
L 637.661975 246.144547 
L 637.966526 262.143224 
L 638.385284 276.492808 
L 638.711588 285.132093 
L 638.787726 285.575134 
L 638.923686 286.141241 
L 638.94544 286.313534 
L 639.021577 286.092014 
L 639.032454 286.116627 
L 639.141222 285.525907 
L 639.239114 285.648974 
L 639.413143 286.510441 
L 639.445773 286.608894 
L 639.48928 286.461214 
L 639.500157 286.461214 
L 639.511034 286.510441 
L 639.55998 286.264308 
L 639.734009 263.053918 
L 639.750324 262.733945 
L 639.821023 263.496959 
L 639.869969 264.801466 
L 640.250657 275.385207 
L 640.479071 283.015345 
L 640.642223 285.870494 
L 640.658538 285.821267 
L 641.158872 290.743937 
L 641.191502 290.39935 
L 641.555875 288.676416 
L 641.599383 288.430282 
L 641.64289 288.701029 
L 641.648328 288.701029 
L 641.81148 289.168683 
L 641.833234 289.135865 
L 642.224799 291.605405 
L 642.230238 291.564382 
L 642.235676 291.556178 
L 642.251991 291.728471 
L 642.25743 291.703858 
L 642.861093 294.091353 
L 642.87197 294.017513 
L 643.056876 287.322682 
L 643.165644 268.961122 
L 643.345111 239.129742 
L 643.377742 240.040436 
L 643.638785 249.073536 
L 643.693169 248.384362 
L 643.807376 249.319669 
L 644.285956 262.906238 
L 644.291394 262.881625 
L 644.470862 264.136906 
L 644.487177 264.235359 
L 644.889619 273.465365 
L 645.362761 285.452067 
L 645.373637 285.427454 
L 645.384514 285.329 
L 645.455214 285.845881 
L 645.542228 286.658121 
L 645.738011 288.774869 
L 645.743449 288.627189 
L 645.825025 289.267136 
L 645.906601 289.685563 
L 645.94467 289.36559 
L 646.031685 289.021003 
L 646.009931 289.390203 
L 646.069754 289.144069 
L 646.075192 289.144069 
L 646.124138 283.482999 
L 646.276413 266.770534 
L 646.281851 266.795148 
L 646.28729 266.770534 
L 646.314482 267.065894 
L 646.52658 270.068723 
L 646.548333 269.847203 
L 646.754993 267.188961 
L 646.776747 267.188961 
L 646.907268 268.148882 
L 646.923584 268.025815 
L 646.956214 267.951975 
L 647.054105 267.385868 
L 647.092174 267.558161 
L 647.113928 267.951975 
L 647.271642 270.093337 
L 647.500055 274.400673 
L 648.386515 286.165854 
L 648.440899 285.821267 
L 648.495283 285.058253 
L 648.565983 285.47668 
L 648.761765 286.682734 
L 648.810711 286.608894 
L 648.783519 286.756575 
L 648.865095 286.658121 
L 649.196838 290.990071 
L 649.207715 290.645484 
L 649.354552 284.861347 
L 649.365429 284.762893 
L 649.479635 283.704519 
L 649.501389 283.926039 
L 649.506827 283.852199 
L 649.577526 284.36908 
L 649.718925 285.03364 
L 649.740679 284.73828 
L 649.773309 284.467533 
L 649.833132 285.082867 
L 650.039791 287.741109 
L 650.137682 289.070229 
L 650.164874 289.021003 
L 650.170313 288.996389 
L 650.192066 289.340976 
L 650.208382 289.611723 
L 650.268204 289.316363 
L 650.300835 289.414816 
L 650.376972 289.168683 
L 650.344342 289.537883 
L 650.431356 289.316363 
L 650.474864 289.73479 
L 650.534686 289.29175 
L 650.578193 289.58711 
L 650.703277 288.873323 
L 650.719592 289.193296 
L 650.746784 288.750256 
L 650.812045 288.774869 
L 650.839237 288.774869 
L 650.844675 288.996389 
L 650.953444 288.922549 
L 650.958882 288.873323 
L 651.029581 289.21791 
L 651.073089 289.316363 
L 651.241679 290.32551 
L 651.252556 290.25167 
L 651.361324 291.334658 
L 651.415708 291.186978 
L 651.529915 290.670097 
L 651.551668 291.063911 
L 651.600614 290.005537 
L 651.633244 290.497804 
L 652.12814 279.52025 
L 652.139016 279.66793 
L 652.16077 279.938677 
L 652.198839 279.151049 
L 652.340237 276.615874 
L 652.519705 275.85286 
L 652.552335 276.025154 
L 652.67198 276.566648 
L 652.568651 275.975927 
L 652.677419 276.492808 
L 652.699172 276.517421 
L 652.726364 276.492808 
L 652.862325 277.501955 
L 652.922147 278.141902 
L 653.068984 267.558161 
L 653.672647 163.615984 
L 653.73247 164.871265 
L 653.86843 175.701139 
L 654.330695 217.297701 
L 654.85822 230.51507 
L 654.950673 231.54883 
L 654.96155 231.130403 
L 655.005057 200.855983 
L 655.20084 144.712931 
L 655.402061 137.279699 
L 655.407499 137.402766 
L 655.418376 137.402766 
L 655.722927 141.882396 
L 655.728365 141.882396 
L 655.956778 150.497068 
L 655.989409 148.897201 
L 656.185192 134.104577 
L 656.19063 134.153804 
L 656.196068 134.05535 
L 656.245014 134.990658 
L 656.402728 144.663704 
L 656.913938 177.719434 
L 656.957445 177.03026 
L 656.962884 176.981033 
L 656.990076 177.497913 
L 657.310942 195.071845 
L 657.89829 233.911712 
L 658.175649 245.233853 
L 658.54546 253.799299 
L 658.724928 257.540528 
L 659.040356 262.217064 
L 659.274207 264.259973 
L 659.317714 263.841546 
L 659.567881 259.804956 
L 659.57332 260.05109 
L 659.660334 259.140396 
L 659.676649 259.140396 
L 659.70928 258.918876 
L 659.74191 259.312689 
L 659.790856 259.066556 
L 659.839801 259.091169 
L 660.041023 257.442075 
L 660.476095 247.695188 
L 660.655563 243.781665 
L 660.666439 243.781665 
L 660.682755 243.658598 
L 660.764331 243.978572 
L 661.047128 248.138228 
L 661.052566 248.039775 
L 661.10695 248.458202 
L 661.123266 247.842868 
L 661.150458 242.772518 
L 661.335364 176.439539 
L 661.68886 141.291675 
L 662.259893 120.271874 
L 662.27077 120.198034 
L 662.384976 119.607314 
L 662.401291 119.804221 
L 662.727596 125.662198 
L 663.39652 160.219342 
L 663.445466 159.702461 
L 663.63581 140.036395 
L 663.777209 138.23962 
L 663.918607 138.485753 
L 664.179651 140.110235 
L 664.647354 163.665211 
L 665.174879 193.988858 
L 665.191195 194.210378 
L 665.223825 193.348911 
L 665.555568 169.350895 
L 665.729597 162.48377 
L 665.941695 158.176434 
L 666.023271 159.160968 
L 666.327822 174.175111 
L 666.512728 185.103439 
L 666.545358 181.436049 
L 666.77921 158.496407 
L 666.953239 141.734716 
L 667.15446 131.544789 
L 667.274105 132.529323 
L 667.681985 146.485092 
L 668.057235 170.483109 
L 668.253018 177.301007 
L 668.263895 176.267246 
L 668.318279 172.058363 
L 668.421609 154.878245 
L 668.660899 131.963216 
L 668.818612 119.828834 
L 669.036149 111.238775 
L 669.052464 111.312615 
L 669.112286 110.820348 
L 669.161232 111.214162 
L 669.248247 111.952562 
L 669.27 111.263388 
L 669.400522 110.106561 
L 669.416837 110.180401 
L 669.454906 110.032721 
L 669.427714 110.229628 
L 669.487536 110.229628 
L 669.835595 118.352033 
L 669.868225 116.407578 
L 669.976993 116.161445 
L 669.933486 116.481418 
L 669.982432 116.210672 
L 669.98787 116.210672 
L 670.0205 115.841471 
L 670.080323 116.555259 
L 670.085761 116.481418 
L 670.60241 130.658708 
L 670.87433 141.094769 
L 670.912399 138.190393 
L 671.124497 126.499052 
L 671.189758 126.646732 
L 671.200635 126.597505 
L 671.222389 126.695959 
L 671.412733 122.240942 
L 671.864121 109.934267 
L 671.902189 110.081947 
L 672.244809 120.148808 
L 673.316175 185.398799 
L 673.321614 185.571092 
L 673.343367 183.478957 
L 673.479328 174.568925 
L 673.522835 175.553459 
L 673.64248 180.722262 
L 673.756686 185.448025 
L 673.77844 182.420583 
L 673.974223 173.732071 
L 674.110183 171.319963 
L 674.131937 171.443029 
L 674.15369 171.492256 
L 674.164567 171.467643 
L 674.338596 175.479619 
L 674.784545 198.911528 
L 674.784545 198.911528 
" clip-path="url(#p107edf61f6)" style="fill: none; stroke: #1f77b4; stroke-width: 1.5; stroke-linecap: square"/>
   </g>
   <g id="line2d_15">
    <path d="M 57.775455 193.250457 
L 60.162915 203.889624 
L 60.973238 204.0125 
L 65.432732 223.885535 
L 65.438171 223.700169 
L 65.454486 222.744956 
L 65.552377 223.195009 
L 69.158042 238.823486 
L 71.850053 249.533206 
L 74.204884 258.016225 
L 74.721532 259.784903 
L 74.726971 259.540817 
L 74.732409 259.296822 
L 74.830301 259.654577 
L 76.875142 266.076672 
L 76.924088 266.242284 
L 76.929526 265.961627 
L 77.011102 263.993336 
L 77.054609 264.133616 
L 78.365266 267.827112 
L 79.039628 269.731134 
L 79.050505 269.464948 
L 79.06682 269.092401 
L 79.164711 269.374201 
L 79.811882 271.147753 
L 79.828197 270.896387 
L 79.849951 270.292013 
L 79.871704 269.264591 
L 79.964157 269.529015 
L 81.068154 272.269783 
L 81.83497 274.199657 
L 81.8676 274.117627 
L 81.987245 265.427091 
L 82.13952 265.889729 
L 84.037525 271.223648 
L 85.402565 274.665159 
L 85.413442 273.964152 
L 85.516771 274.26432 
L 85.565717 274.189714 
L 85.886583 275.016936 
L 85.902898 273.877255 
L 86.006228 274.147709 
L 87.441968 277.561533 
L 87.447406 277.495481 
L 87.534421 276.00315 
L 87.60512 276.176758 
L 88.148961 277.172183 
L 89.649961 280.445711 
L 89.660838 280.055604 
L 89.764168 280.294107 
L 91.640418 283.912843 
L 91.66761 283.968264 
L 91.673049 283.885302 
L 91.683926 283.578658 
L 91.781817 283.76655 
L 91.890585 283.963195 
L 91.9069 283.798405 
L 91.917777 283.281342 
L 91.928654 282.557876 
L 92.031984 282.753182 
L 93.244749 284.801952 
L 93.261064 284.816691 
L 93.266502 284.718823 
L 93.380709 282.010051 
L 93.418778 282.086953 
L 94.114894 283.249563 
L 94.125771 282.594156 
L 94.2291 282.803131 
L 94.898025 284.027523 
L 94.919778 283.910682 
L 94.941532 282.222678 
L 95.044862 282.425837 
L 96.910235 285.746435 
L 98.041424 287.404547 
L 99.308573 289.134574 
L 99.770838 289.758255 
L 99.79803 287.321764 
L 99.917675 287.500711 
L 100.418008 288.281509 
L 100.4452 287.468306 
L 100.537653 287.623725 
L 101.048863 288.373109 
L 101.05974 288.349634 
L 101.092371 285.456492 
L 101.190262 285.636945 
L 103.050197 288.516523 
L 104.872064 290.938232 
L 106.76463 293.103856 
L 107.923011 294.255528 
L 107.933887 293.947459 
L 108.037217 294.067196 
L 108.058971 294.092693 
L 108.064409 294.013141 
L 108.075286 293.104027 
L 108.178616 293.194528 
L 110.120127 295.066426 
L 112.1269 296.694283 
L 114.231563 298.115524 
L 115.716249 298.988152 
L 115.803263 292.788678 
L 115.982731 292.980453 
L 117.918804 294.880554 
L 119.920138 296.534509 
L 121.812704 297.828707 
L 121.818142 297.822895 
L 121.82358 297.861139 
L 121.834457 297.403977 
L 121.937787 297.500831 
L 124.058766 298.785283 
L 124.167534 298.852804 
L 124.172972 298.787255 
L 124.178411 298.721749 
L 124.281741 298.787149 
L 125.603274 299.488729 
L 125.625027 298.706363 
L 125.733795 298.776894 
L 125.771864 298.833727 
L 125.804495 297.449881 
L 125.891509 297.521876 
L 126.288513 297.780247 
L 126.293951 297.709339 
L 126.337459 295.00399 
L 126.348335 294.48802 
L 126.451665 294.601094 
L 127.827582 295.802405 
L 127.833021 295.775271 
L 127.876528 295.056872 
L 127.985296 295.154088 
L 129.997507 296.771674 
L 130.443456 297.082698 
L 130.470648 297.014037 
L 130.530471 295.677266 
L 130.650116 295.80072 
L 132.694957 297.334782 
L 134.848566 298.672689 
L 137.149013 299.839032 
L 137.654785 300.039712 
L 137.70373 294.256434 
L 137.877759 294.446 
L 138.111611 294.663681 
L 138.127926 294.562877 
L 138.144241 294.000144 
L 138.155118 293.081152 
L 138.263886 293.254409 
L 138.737028 293.729335 
L 138.753343 293.630035 
L 138.791412 291.207157 
L 138.905618 291.341884 
L 139.917162 292.513812 
L 139.922601 292.438618 
L 139.987862 290.761016 
L 140.063999 290.879737 
L 141.412724 292.487204 
L 141.434478 291.764762 
L 141.532369 291.883875 
L 141.570438 291.948096 
L 141.586753 291.40688 
L 141.690083 291.534448 
L 142.728819 292.722429 
L 142.756011 292.646369 
L 142.766888 292.590481 
L 142.859341 292.695619 
L 144.784537 294.629502 
L 145.785204 295.514078 
L 146.057124 295.632924 
L 146.840255 296.271949 
L 146.845694 296.202433 
L 146.85657 296.039472 
L 146.9599 296.125129 
L 147.030599 296.184965 
L 147.046915 295.350908 
L 147.155683 295.459196 
L 147.775661 295.974235 
L 147.797415 295.149331 
L 147.91706 295.19488 
L 148.140035 295.392558 
L 148.819835 295.969391 
L 148.825274 295.870742 
L 148.830712 295.772156 
L 148.934042 295.868873 
L 149.048249 295.961836 
L 149.053687 295.87912 
L 149.167894 294.212348 
L 149.227716 294.315255 
L 151.201858 296.038788 
L 152.517953 297.045689 
L 152.528829 296.618253 
L 152.632159 296.720659 
L 154.736823 298.137346 
L 155.074004 298.34914 
L 155.079443 298.27368 
L 155.084881 298.19827 
L 155.188211 298.269768 
L 156.493429 298.922125 
L 158.831944 300.057427 
L 159.751035 300.420298 
L 159.761911 299.662894 
L 159.87068 299.758486 
L 162.350593 300.783179 
L 164.531395 301.511099 
L 164.536833 301.482244 
L 164.542272 301.453408 
L 164.645601 301.488268 
L 165.417855 301.723535 
L 165.477678 300.807081 
L 165.542939 300.834807 
L 168.289335 301.712177 
L 171.351158 302.453723 
L 172.808651 302.739348 
L 172.81409 302.6517 
L 172.98268 298.588016 
L 172.993557 298.152161 
L 173.096887 298.225298 
L 173.56459 298.500863 
L 173.651604 297.119883 
L 173.705988 297.160408 
L 173.83651 297.261554 
L 173.918086 295.904809 
L 173.988786 295.964562 
L 174.55438 296.416261 
L 174.58701 296.326592 
L 174.739286 294.79903 
L 174.750163 294.809443 
L 175.734514 295.68526 
L 175.761706 294.766266 
L 175.870475 294.88808 
L 175.962928 294.935545 
L 175.973804 294.17862 
L 176.082573 294.327693 
L 176.63729 294.839065 
L 176.648167 294.365332 
L 176.751497 294.49099 
L 177.496558 295.148031 
L 177.572696 291.62381 
L 177.69778 291.774644 
L 179.606661 293.832416 
L 181.015208 295.148116 
L 181.047839 292.888148 
L 181.156607 293.097211 
L 181.368705 293.346252 
L 181.444842 292.595319 
L 181.493788 292.658677 
L 182.624977 293.8646 
L 182.652169 292.863985 
L 182.75006 292.980831 
L 183.875811 294.127544 
L 183.881249 294.081176 
L 183.892126 293.810414 
L 183.995456 293.923624 
L 184.104224 294.03579 
L 184.1151 293.99432 
L 184.136854 293.30982 
L 184.240184 293.423561 
L 184.838409 294.032485 
L 184.843847 293.947864 
L 184.849286 293.863297 
L 184.952615 293.975636 
L 186.850619 295.680156 
L 186.948511 295.813573 
L 187.013772 294.105637 
L 187.073594 294.182161 
L 187.410775 294.513476 
L 187.432529 293.690447 
L 187.541297 293.802599 
L 188.596348 294.805745 
L 189.112997 294.918684 
L 191.114331 296.566462 
L 192.593578 297.616578 
L 192.599016 297.556413 
L 192.604455 297.496288 
L 192.707784 297.572574 
L 194.883147 298.880083 
L 197.210786 300.018772 
L 199.745084 301.00864 
L 202.551302 301.862331 
L 205.178053 302.480036 
L 623.946312 302.485726 
L 624.125779 298.594822 
L 624.218232 298.645957 
L 624.898033 298.975684 
L 624.903471 298.926792 
L 625.055747 298.282642 
L 625.061185 298.29036 
L 625.110131 298.290251 
L 625.115569 298.23852 
L 625.490819 293.781242 
L 625.534327 293.826363 
L 625.588711 293.835764 
L 625.594149 293.802409 
L 625.621341 293.642881 
L 625.708356 293.723501 
L 626.219566 294.20433 
L 626.24132 294.10445 
L 626.366403 292.450393 
L 626.393595 292.484298 
L 626.475171 292.703349 
L 626.556747 288.128797 
L 626.605693 288.177462 
L 627.062519 288.826524 
L 627.073396 288.735493 
L 627.12778 286.116094 
L 627.274617 283.282588 
L 627.285494 283.305623 
L 627.312686 283.170996 
L 627.3997 281.693419 
L 627.448646 281.83758 
L 627.840211 282.425447 
L 627.84565 282.401715 
L 627.997925 281.096182 
L 628.046871 280.266511 
L 628.11757 280.397517 
L 628.161077 280.492762 
L 628.166516 280.246292 
L 628.199146 279.826642 
L 628.280722 279.991165 
L 628.32423 279.912531 
L 628.628781 280.506685 
L 629.694708 282.587727 
L 629.705585 282.487777 
L 629.743654 281.296877 
L 629.857861 281.525984 
L 630.418017 282.510885 
L 630.64643 279.899615 
L 630.67906 279.369759 
L 630.684499 278.942733 
L 630.787828 279.136443 
L 630.907473 279.365865 
L 630.956419 279.1882 
L 631.05431 276.933351 
L 631.076064 276.49474 
L 631.173955 276.696149 
L 631.946209 278.353704 
L 631.957086 278.31808 
L 631.967963 278.052196 
L 632.065854 278.280027 
L 632.076731 278.298388 
L 632.21813 274.966444 
L 632.223568 274.971703 
L 632.234445 274.92182 
L 632.479173 271.302546 
L 632.484611 271.314749 
L 632.506365 270.873546 
L 632.604256 271.078716 
L 632.881615 271.621094 
L 632.892492 271.615212 
L 633.017575 270.623438 
L 633.039329 270.647183 
L 633.148097 270.857113 
L 633.262304 268.1618 
L 633.300373 268.227226 
L 633.550539 268.879664 
L 634.023681 270.124678 
L 634.056311 267.960808 
L 634.170518 268.361521 
L 634.931895 270.234226 
L 634.937333 270.08886 
L 635.046101 266.810376 
L 635.214692 267.243018 
L 635.997823 269.427589 
L 636.003261 269.32034 
L 636.030453 268.052318 
L 636.155537 268.378921 
L 636.193605 268.223247 
L 636.568856 269.290261 
L 636.726569 262.772629 
L 636.802707 263.016144 
L 637.275849 264.414452 
L 637.281287 264.389278 
L 637.411809 262.456901 
L 637.417247 262.480021 
L 637.498823 262.654212 
L 637.515138 262.699163 
L 637.536892 262.479009 
L 637.656537 261.491814 
L 637.689168 261.533374 
L 637.721798 261.395478 
L 638.265639 263.136223 
L 638.630012 264.176286 
L 638.640889 263.589197 
L 638.711588 263.794823 
L 638.863864 263.866324 
L 638.869302 263.806954 
L 638.896494 263.553947 
L 638.97807 263.721217 
L 639.059646 263.87857 
L 639.070523 263.060169 
L 639.173853 263.310907 
L 639.494719 264.026584 
L 639.55998 262.497906 
L 639.59261 256.766155 
L 639.685063 257.117601 
L 639.744886 257.265363 
L 639.79927 257.160922 
L 639.826462 257.079094 
L 639.897161 257.172018 
L 640.185397 257.878922 
L 640.870636 259.834789 
L 640.95765 259.79812 
L 640.990281 259.907917 
L 641.213256 260.463893 
L 641.224132 260.24087 
L 641.235009 260.114981 
L 641.327462 260.35827 
L 641.376408 260.191355 
L 641.485176 260.508729 
L 641.50693 260.134794 
L 641.621136 260.428591 
L 641.686397 260.615423 
L 641.702712 260.375603 
L 641.795165 259.616633 
L 641.833234 259.755582 
L 641.909372 259.936151 
L 642.763202 262.586132 
L 642.76864 262.495454 
L 642.774079 262.389959 
L 642.866532 262.681416 
L 642.87197 262.700977 
L 642.899162 262.567397 
L 643.089506 257.374325 
L 643.11126 257.414643 
L 643.116698 257.330039 
L 643.241782 252.07121 
L 643.404934 252.505578 
L 643.584401 253.111224 
L 643.58984 252.805289 
L 643.709485 247.094397 
L 643.807376 247.387653 
L 643.970528 247.950277 
L 644.296833 249.199427 
L 644.30771 248.973876 
L 644.351217 247.842307 
L 644.438231 248.217596 
L 644.688398 249.184561 
L 644.71559 248.915826 
L 644.905934 246.545277 
L 644.938565 246.65389 
L 645.857656 250.127922 
L 645.863094 249.928225 
L 645.939232 247.878296 
L 646.009931 248.094415 
L 646.069754 248.334002 
L 646.075192 248.218841 
L 646.113261 242.4476 
L 646.243783 243.012527 
L 646.450442 243.846453 
L 646.466757 243.516228 
L 646.689732 237.301929 
L 646.711486 237.321128 
L 648.321254 243.336622 
L 648.33757 242.994054 
L 648.364762 241.177057 
L 648.462653 241.563553 
L 648.511599 241.418763 
L 649.169646 243.993824 
L 649.191399 244.070203 
L 649.202276 243.929582 
L 649.245784 242.391067 
L 649.332798 242.748762 
L 650.153998 245.734597 
L 650.159436 245.710534 
L 650.197505 243.932047 
L 650.300835 244.344719 
L 651.502723 248.874352 
L 651.5136 248.74578 
L 651.573422 248.86084 
L 651.595176 246.977354 
L 651.616929 245.673131 
L 651.714821 246.062693 
L 652.220593 247.916242 
L 652.226031 247.68892 
L 652.258661 247.12412 
L 652.340237 247.447653 
L 652.693734 248.810017 
L 652.753556 248.614057 
L 652.813379 248.810095 
L 652.916709 249.126017 
L 652.933024 248.838748 
L 653.11793 245.410299 
L 653.210383 238.610565 
L 653.319151 239.067141 
L 654.488408 243.792095 
L 654.526477 243.656571 
L 654.564546 243.216776 
L 654.640684 243.529289 
L 654.651561 243.574934 
L 654.667876 243.359219 
L 654.684191 242.903067 
L 654.776644 243.245567 
L 654.950673 243.930135 
L 654.966988 243.670083 
L 655.108387 235.955114 
L 655.179086 236.241567 
L 655.956778 239.142411 
L 655.973094 239.123567 
L 656.070985 236.142962 
L 656.201507 236.695317 
L 656.783416 239.098148 
L 656.821485 238.903014 
L 656.935692 235.777772 
L 657.039022 236.193973 
L 657.397956 237.632841 
L 657.425149 237.459547 
L 657.430587 237.341604 
L 657.52304 237.664654 
L 659.111055 244.148166 
L 659.149124 244.005232 
L 659.203508 240.950522 
L 659.361222 237.599287 
L 659.448236 237.441229 
L 659.475428 237.536072 
L 659.491743 237.445515 
L 659.747349 238.499037 
L 661.090635 243.953881 
L 661.10695 243.721925 
L 661.155896 239.797576 
L 661.193965 234.959679 
L 661.286418 235.346373 
L 661.775875 237.339231 
L 661.830259 231.414106 
L 661.911835 231.739259 
L 661.966219 231.980085 
L 661.982534 231.635363 
L 662.140248 228.980991 
L 662.162002 229.079761 
L 663.369328 234.058797 
L 663.380205 233.943763 
L 663.385643 233.939147 
L 663.412835 234.052752 
L 663.418274 234.055518 
L 663.423712 234.088391 
L 663.434589 233.811414 
L 663.505288 228.456144 
L 663.624933 228.979832 
L 664.897521 234.070391 
L 664.989973 230.653424 
L 665.147687 231.181004 
L 665.386977 232.221922 
L 665.397854 231.922204 
L 665.544691 227.015875 
L 665.588198 227.109029 
L 665.604513 227.078587 
L 665.789419 227.573223 
L 666.142916 229.122547 
L 666.490974 230.611909 
L 666.507289 230.232049 
L 666.523604 229.022133 
L 666.588865 221.957201 
L 666.692195 222.411561 
L 667.127268 224.206565 
L 667.143583 223.559943 
L 667.170775 222.354688 
L 667.263228 222.552955 
L 667.268666 222.554889 
L 667.274105 222.516067 
L 667.295858 222.477014 
L 667.415503 221.372751 
L 667.366558 222.66643 
L 667.491641 221.672438 
L 668.051797 223.927039 
L 668.078989 223.847782 
L 668.171442 220.911752 
L 668.24758 221.119449 
L 668.28021 221.248472 
L 668.296525 221.001495 
L 668.399855 216.109413 
L 668.497746 216.550859 
L 668.606514 217.049943 
L 668.639145 216.755032 
L 668.677214 215.636279 
L 668.764228 216.012399 
L 668.829489 216.279024 
L 668.851243 215.942095 
L 668.927381 213.956166 
L 669.003518 214.304862 
L 669.231931 215.316408 
L 669.27 215.149843 
L 669.357015 212.451895 
L 669.454906 212.865245 
L 669.770334 214.27069 
L 669.835595 213.883301 
L 669.879102 211.132541 
L 669.911732 209.433461 
L 669.998747 209.825468 
L 670.439258 211.363309 
L 670.444696 211.340588 
L 670.450135 211.324744 
L 670.493642 211.51526 
L 670.537149 211.716673 
L 670.558903 211.301779 
L 670.564341 211.328629 
L 670.596972 211.4059 
L 670.60241 211.252192 
L 670.613287 211.005871 
L 670.70574 211.410196 
L 670.825385 211.971004 
L 670.847138 211.559192 
L 670.928714 208.489292 
L 671.010291 208.779387 
L 671.18432 209.245723 
L 671.331157 204.021271 
L 671.35291 203.363427 
L 671.45624 203.784204 
L 672.315508 207.516386 
L 672.320947 207.289337 
L 672.380769 206.29308 
L 672.435153 206.438311 
L 672.543922 206.928886 
L 672.554798 206.577985 
L 672.560237 206.492418 
L 672.641813 206.858351 
L 672.886541 207.949194 
L 672.897418 207.596579 
L 672.919172 207.113876 
L 673.006186 207.515935 
L 673.038817 207.6692 
L 673.06057 207.290275 
L 673.093201 206.952716 
L 673.169338 207.278244 
L 673.29986 207.70041 
L 673.305299 207.619792 
L 673.408628 200.449892 
L 673.501081 200.854725 
L 673.724056 201.852387 
L 673.767563 201.549209 
L 673.9144 197.168496 
L 673.952469 197.326177 
L 673.957908 197.340296 
L 673.968784 197.113226 
L 674.006853 196.370128 
L 674.110183 196.57894 
L 674.724723 199.303628 
L 674.762792 199.03472 
L 674.784545 198.48097 
L 674.784545 198.48097 
" clip-path="url(#p107edf61f6)" style="fill: none; stroke: #ff7f0e; stroke-width: 1.5; stroke-linecap: square"/>
   </g>
   <g id="patch_3">
    <path d="M 26.925 327.558125 
L 26.925 22.318125 
" style="fill: none; stroke: #000000; stroke-width: 0.8; stroke-linejoin: miter; stroke-linecap: square"/>
   </g>
   <g id="patch_4">
    <path d="M 705.635 327.558125 
L 705.635 22.318125 
" style="fill: none; stroke: #000000; stroke-width: 0.8; stroke-linejoin: miter; stroke-linecap: square"/>
   </g>
   <g id="patch_5">
    <path d="M 26.925 327.558125 
L 705.635 327.558125 
" style="fill: none; stroke: #000000; stroke-width: 0.8; stroke-linejoin: miter; stroke-linecap: square"/>
   </g>
   <g id="patch_6">
    <path d="M 26.925 22.318125 
L 705.635 22.318125 
" style="fill: none; stroke: #000000; stroke-width: 0.8; stroke-linejoin: miter; stroke-linecap: square"/>
   </g>
   <g id="text_14">
    <!-- training -->
    <g transform="translate(343.036563 16.318125) scale(0.12 -0.12)">
     <defs>
      <path id="DejaVuSans-74" d="M 1172 4494 
L 1172 3500 
L 2356 3500 
L 2356 3053 
L 1172 3053 
L 1172 1153 
Q 1172 725 1289 603 
Q 1406 481 1766 481 
L 2356 481 
L 2356 0 
L 1766 0 
Q 1100 0 847 248 
Q 594 497 594 1153 
L 594 3053 
L 172 3053 
L 172 3500 
L 594 3500 
L 594 4494 
L 1172 4494 
z
" transform="scale(0.015625)"/>
      <path id="DejaVuSans-72" d="M 2631 2963 
Q 2534 3019 2420 3045 
Q 2306 3072 2169 3072 
Q 1681 3072 1420 2755 
Q 1159 2438 1159 1844 
L 1159 0 
L 581 0 
L 581 3500 
L 1159 3500 
L 1159 2956 
Q 1341 3275 1631 3429 
Q 1922 3584 2338 3584 
Q 2397 3584 2469 3576 
Q 2541 3569 2628 3553 
L 2631 2963 
z
" transform="scale(0.015625)"/>
      <path id="DejaVuSans-61" d="M 2194 1759 
Q 1497 1759 1228 1600 
Q 959 1441 959 1056 
Q 959 750 1161 570 
Q 1363 391 1709 391 
Q 2188 391 2477 730 
Q 2766 1069 2766 1631 
L 2766 1759 
L 2194 1759 
z
M 3341 1997 
L 3341 0 
L 2766 0 
L 2766 531 
Q 2569 213 2275 61 
Q 1981 -91 1556 -91 
Q 1019 -91 701 211 
Q 384 513 384 1019 
Q 384 1609 779 1909 
Q 1175 2209 1959 2209 
L 2766 2209 
L 2766 2266 
Q 2766 2663 2505 2880 
Q 2244 3097 1772 3097 
Q 1472 3097 1187 3025 
Q 903 2953 641 2809 
L 641 3341 
Q 956 3463 1253 3523 
Q 1550 3584 1831 3584 
Q 2591 3584 2966 3190 
Q 3341 2797 3341 1997 
z
" transform="scale(0.015625)"/>
      <path id="DejaVuSans-69" d="M 603 3500 
L 1178 3500 
L 1178 0 
L 603 0 
L 603 3500 
z
M 603 4863 
L 1178 4863 
L 1178 4134 
L 603 4134 
L 603 4863 
z
" transform="scale(0.015625)"/>
      <path id="DejaVuSans-6e" d="M 3513 2113 
L 3513 0 
L 2938 0 
L 2938 2094 
Q 2938 2591 2744 2837 
Q 2550 3084 2163 3084 
Q 1697 3084 1428 2787 
Q 1159 2491 1159 1978 
L 1159 0 
L 581 0 
L 581 3500 
L 1159 3500 
L 1159 2956 
Q 1366 3272 1645 3428 
Q 1925 3584 2291 3584 
Q 2894 3584 3203 3211 
Q 3513 2838 3513 2113 
z
" transform="scale(0.015625)"/>
      <path id="DejaVuSans-67" d="M 2906 1791 
Q 2906 2416 2648 2759 
Q 2391 3103 1925 3103 
Q 1463 3103 1205 2759 
Q 947 2416 947 1791 
Q 947 1169 1205 825 
Q 1463 481 1925 481 
Q 2391 481 2648 825 
Q 2906 1169 2906 1791 
z
M 3481 434 
Q 3481 -459 3084 -895 
Q 2688 -1331 1869 -1331 
Q 1566 -1331 1297 -1286 
Q 1028 -1241 775 -1147 
L 775 -588 
Q 1028 -725 1275 -790 
Q 1522 -856 1778 -856 
Q 2344 -856 2625 -561 
Q 2906 -266 2906 331 
L 2906 616 
Q 2728 306 2450 153 
Q 2172 0 1784 0 
Q 1141 0 747 490 
Q 353 981 353 1791 
Q 353 2603 747 3093 
Q 1141 3584 1784 3584 
Q 2172 3584 2450 3431 
Q 2728 3278 2906 2969 
L 2906 3500 
L 3481 3500 
L 3481 434 
z
" transform="scale(0.015625)"/>
     </defs>
     <use xlink:href="#DejaVuSans-74"/>
     <use xlink:href="#DejaVuSans-72" x="39.208984"/>
     <use xlink:href="#DejaVuSans-61" x="80.322266"/>
     <use xlink:href="#DejaVuSans-69" x="141.601562"/>
     <use xlink:href="#DejaVuSans-6e" x="169.384766"/>
     <use xlink:href="#DejaVuSans-69" x="232.763672"/>
     <use xlink:href="#DejaVuSans-6e" x="260.546875"/>
     <use xlink:href="#DejaVuSans-67" x="323.925781"/>
    </g>
   </g>
   <g id="legend_1">
    <g id="patch_7">
     <path d="M 617.24125 59.674375 
L 698.635 59.674375 
Q 700.635 59.674375 700.635 57.674375 
L 700.635 29.318125 
Q 700.635 27.318125 698.635 27.318125 
L 617.24125 27.318125 
Q 615.24125 27.318125 615.24125 29.318125 
L 615.24125 57.674375 
Q 615.24125 59.674375 617.24125 59.674375 
z
" style="fill: #ffffff; opacity: 0.8; stroke: #cccccc; stroke-linejoin: miter"/>
    </g>
    <g id="line2d_16">
     <path d="M 619.24125 35.416562 
L 629.24125 35.416562 
L 639.24125 35.416562 
" style="fill: none; stroke: #1f77b4; stroke-width: 1.5; stroke-linecap: square"/>
    </g>
    <g id="text_15">
     <!-- observed -->
     <g transform="translate(647.24125 38.916562) scale(0.1 -0.1)">
      <defs>
       <path id="DejaVuSans-6f" d="M 1959 3097 
Q 1497 3097 1228 2736 
Q 959 2375 959 1747 
Q 959 1119 1226 758 
Q 1494 397 1959 397 
Q 2419 397 2687 759 
Q 2956 1122 2956 1747 
Q 2956 2369 2687 2733 
Q 2419 3097 1959 3097 
z
M 1959 3584 
Q 2709 3584 3137 3096 
Q 3566 2609 3566 1747 
Q 3566 888 3137 398 
Q 2709 -91 1959 -91 
Q 1206 -91 779 398 
Q 353 888 353 1747 
Q 353 2609 779 3096 
Q 1206 3584 1959 3584 
z
" transform="scale(0.015625)"/>
       <path id="DejaVuSans-62" d="M 3116 1747 
Q 3116 2381 2855 2742 
Q 2594 3103 2138 3103 
Q 1681 3103 1420 2742 
Q 1159 2381 1159 1747 
Q 1159 1113 1420 752 
Q 1681 391 2138 391 
Q 2594 391 2855 752 
Q 3116 1113 3116 1747 
z
M 1159 2969 
Q 1341 3281 1617 3432 
Q 1894 3584 2278 3584 
Q 2916 3584 3314 3078 
Q 3713 2572 3713 1747 
Q 3713 922 3314 415 
Q 2916 -91 2278 -91 
Q 1894 -91 1617 61 
Q 1341 213 1159 525 
L 1159 0 
L 581 0 
L 581 4863 
L 1159 4863 
L 1159 2969 
z
" transform="scale(0.015625)"/>
       <path id="DejaVuSans-73" d="M 2834 3397 
L 2834 2853 
Q 2591 2978 2328 3040 
Q 2066 3103 1784 3103 
Q 1356 3103 1142 2972 
Q 928 2841 928 2578 
Q 928 2378 1081 2264 
Q 1234 2150 1697 2047 
L 1894 2003 
Q 2506 1872 2764 1633 
Q 3022 1394 3022 966 
Q 3022 478 2636 193 
Q 2250 -91 1575 -91 
Q 1294 -91 989 -36 
Q 684 19 347 128 
L 347 722 
Q 666 556 975 473 
Q 1284 391 1588 391 
Q 1994 391 2212 530 
Q 2431 669 2431 922 
Q 2431 1156 2273 1281 
Q 2116 1406 1581 1522 
L 1381 1569 
Q 847 1681 609 1914 
Q 372 2147 372 2553 
Q 372 3047 722 3315 
Q 1072 3584 1716 3584 
Q 2034 3584 2315 3537 
Q 2597 3491 2834 3397 
z
" transform="scale(0.015625)"/>
       <path id="DejaVuSans-65" d="M 3597 1894 
L 3597 1613 
L 953 1613 
Q 991 1019 1311 708 
Q 1631 397 2203 397 
Q 2534 397 2845 478 
Q 3156 559 3463 722 
L 3463 178 
Q 3153 47 2828 -22 
Q 2503 -91 2169 -91 
Q 1331 -91 842 396 
Q 353 884 353 1716 
Q 353 2575 817 3079 
Q 1281 3584 2069 3584 
Q 2775 3584 3186 3129 
Q 3597 2675 3597 1894 
z
M 3022 2063 
Q 3016 2534 2758 2815 
Q 2500 3097 2075 3097 
Q 1594 3097 1305 2825 
Q 1016 2553 972 2059 
L 3022 2063 
z
" transform="scale(0.015625)"/>
       <path id="DejaVuSans-76" d="M 191 3500 
L 800 3500 
L 1894 563 
L 2988 3500 
L 3597 3500 
L 2284 0 
L 1503 0 
L 191 3500 
z
" transform="scale(0.015625)"/>
       <path id="DejaVuSans-64" d="M 2906 2969 
L 2906 4863 
L 3481 4863 
L 3481 0 
L 2906 0 
L 2906 525 
Q 2725 213 2448 61 
Q 2172 -91 1784 -91 
Q 1150 -91 751 415 
Q 353 922 353 1747 
Q 353 2572 751 3078 
Q 1150 3584 1784 3584 
Q 2172 3584 2448 3432 
Q 2725 3281 2906 2969 
z
M 947 1747 
Q 947 1113 1208 752 
Q 1469 391 1925 391 
Q 2381 391 2643 752 
Q 2906 1113 2906 1747 
Q 2906 2381 2643 2742 
Q 2381 3103 1925 3103 
Q 1469 3103 1208 2742 
Q 947 2381 947 1747 
z
" transform="scale(0.015625)"/>
      </defs>
      <use xlink:href="#DejaVuSans-6f"/>
      <use xlink:href="#DejaVuSans-62" x="61.181641"/>
      <use xlink:href="#DejaVuSans-73" x="124.658203"/>
      <use xlink:href="#DejaVuSans-65" x="176.757812"/>
      <use xlink:href="#DejaVuSans-72" x="238.28125"/>
      <use xlink:href="#DejaVuSans-76" x="279.394531"/>
      <use xlink:href="#DejaVuSans-65" x="338.574219"/>
      <use xlink:href="#DejaVuSans-64" x="400.097656"/>
     </g>
    </g>
    <g id="line2d_17">
     <path d="M 619.24125 50.094688 
L 629.24125 50.094688 
L 639.24125 50.094688 
" style="fill: none; stroke: #ff7f0e; stroke-width: 1.5; stroke-linecap: square"/>
    </g>
    <g id="text_16">
     <!-- simulated -->
     <g transform="translate(647.24125 53.594688) scale(0.1 -0.1)">
      <defs>
       <path id="DejaVuSans-6d" d="M 3328 2828 
Q 3544 3216 3844 3400 
Q 4144 3584 4550 3584 
Q 5097 3584 5394 3201 
Q 5691 2819 5691 2113 
L 5691 0 
L 5113 0 
L 5113 2094 
Q 5113 2597 4934 2840 
Q 4756 3084 4391 3084 
Q 3944 3084 3684 2787 
Q 3425 2491 3425 1978 
L 3425 0 
L 2847 0 
L 2847 2094 
Q 2847 2600 2669 2842 
Q 2491 3084 2119 3084 
Q 1678 3084 1418 2786 
Q 1159 2488 1159 1978 
L 1159 0 
L 581 0 
L 581 3500 
L 1159 3500 
L 1159 2956 
Q 1356 3278 1631 3431 
Q 1906 3584 2284 3584 
Q 2666 3584 2933 3390 
Q 3200 3197 3328 2828 
z
" transform="scale(0.015625)"/>
       <path id="DejaVuSans-75" d="M 544 1381 
L 544 3500 
L 1119 3500 
L 1119 1403 
Q 1119 906 1312 657 
Q 1506 409 1894 409 
Q 2359 409 2629 706 
Q 2900 1003 2900 1516 
L 2900 3500 
L 3475 3500 
L 3475 0 
L 2900 0 
L 2900 538 
Q 2691 219 2414 64 
Q 2138 -91 1772 -91 
Q 1169 -91 856 284 
Q 544 659 544 1381 
z
M 1991 3584 
L 1991 3584 
z
" transform="scale(0.015625)"/>
       <path id="DejaVuSans-6c" d="M 603 4863 
L 1178 4863 
L 1178 0 
L 603 0 
L 603 4863 
z
" transform="scale(0.015625)"/>
      </defs>
      <use xlink:href="#DejaVuSans-73"/>
      <use xlink:href="#DejaVuSans-69" x="52.099609"/>
      <use xlink:href="#DejaVuSans-6d" x="79.882812"/>
      <use xlink:href="#DejaVuSans-75" x="177.294922"/>
      <use xlink:href="#DejaVuSans-6c" x="240.673828"/>
      <use xlink:href="#DejaVuSans-61" x="268.457031"/>
      <use xlink:href="#DejaVuSans-74" x="329.736328"/>
      <use xlink:href="#DejaVuSans-65" x="368.945312"/>
      <use xlink:href="#DejaVuSans-64" x="430.46875"/>
     </g>
    </g>
   </g>
  </g>
 </g>
 <defs>
  <clipPath id="p107edf61f6">
   <rect x="26.925" y="22.318125" width="678.71" height="305.24"/>
  </clipPath>
 </defs>
</svg>
