<?xml version="1.0" encoding="utf-8" standalone="no"?>
<!DOCTYPE svg PUBLIC "-//W3C//DTD SVG 1.1//EN"
  "http://www.w3.org/Graphics/SVG/1.1/DTD/svg11.dtd">
<svg xmlns:xlink="http://www.w3.org/1999/xlink" width="720pt" height="360pt" viewBox="0 0 720 360" xmlns="http://www.w3.org/2000/svg" version="1.1">
 <metadata>
  <rdf:RDF xmlns:dc="http://purl.org/dc/elements/1.1/" xmlns:cc="http://creativecommons.org/ns#" xmlns:rdf="http://www.w3.org/1999/02/22-rdf-syntax-ns#">
   <cc:Work>
    <dc:type rdf:resource="http://purl.org/dc/dcmitype/StillImage"/>
    <dc:date>2023-10-23T10:55:02.033793</dc:date>
    <dc:format>image/svg+xml</dc:format>
    <dc:creator>
     <cc:Agent>
      <dc:title>Matplotlib v3.7.1, https://matplotlib.org/</dc:title>
     </cc:Agent>
    </dc:creator>
   </cc:Work>
  </rdf:RDF>
 </metadata>
 <defs>
  <style type="text/css">*{stroke-linejoin: round; stroke-linecap: butt}</style>
 </defs>
 <g id="figure_1">
  <g id="patch_1">
   <path d="M 0 360 
L 720 360 
L 720 0 
L 0 0 
z
" style="fill: #ffffff"/>
  </g>
  <g id="axes_1">
   <g id="patch_2">
    <path d="M 90 288 
L 648 288 
L 648 43.2 
L 90 43.2 
z
" style="fill: #ffffff"/>
   </g>
   <g id="matplotlib.axis_1">
    <g id="xtick_1">
     <g id="line2d_1">
      <defs>
       <path id="m2a7ea28949" d="M 0 0 
L 0 3.5 
" style="stroke: #000000; stroke-width: 0.8"/>
      </defs>
      <g>
       <use xlink:href="#m2a7ea28949" x="122.764922" y="288" style="stroke: #000000; stroke-width: 0.8"/>
      </g>
     </g>
     <g id="text_1">
      <!-- 2023-09-17 -->
      <g transform="translate(61.12158 337.765903) rotate(-30) scale(0.12 -0.12)">
       <defs>
        <path id="DejaVuSans-32" d="M 1228 531 
L 3431 531 
L 3431 0 
L 469 0 
L 469 531 
Q 828 903 1448 1529 
Q 2069 2156 2228 2338 
Q 2531 2678 2651 2914 
Q 2772 3150 2772 3378 
Q 2772 3750 2511 3984 
Q 2250 4219 1831 4219 
Q 1534 4219 1204 4116 
Q 875 4013 500 3803 
L 500 4441 
Q 881 4594 1212 4672 
Q 1544 4750 1819 4750 
Q 2544 4750 2975 4387 
Q 3406 4025 3406 3419 
Q 3406 3131 3298 2873 
Q 3191 2616 2906 2266 
Q 2828 2175 2409 1742 
Q 1991 1309 1228 531 
z
" transform="scale(0.015625)"/>
        <path id="DejaVuSans-30" d="M 2034 4250 
Q 1547 4250 1301 3770 
Q 1056 3291 1056 2328 
Q 1056 1369 1301 889 
Q 1547 409 2034 409 
Q 2525 409 2770 889 
Q 3016 1369 3016 2328 
Q 3016 3291 2770 3770 
Q 2525 4250 2034 4250 
z
M 2034 4750 
Q 2819 4750 3233 4129 
Q 3647 3509 3647 2328 
Q 3647 1150 3233 529 
Q 2819 -91 2034 -91 
Q 1250 -91 836 529 
Q 422 1150 422 2328 
Q 422 3509 836 4129 
Q 1250 4750 2034 4750 
z
" transform="scale(0.015625)"/>
        <path id="DejaVuSans-33" d="M 2597 2516 
Q 3050 2419 3304 2112 
Q 3559 1806 3559 1356 
Q 3559 666 3084 287 
Q 2609 -91 1734 -91 
Q 1441 -91 1130 -33 
Q 819 25 488 141 
L 488 750 
Q 750 597 1062 519 
Q 1375 441 1716 441 
Q 2309 441 2620 675 
Q 2931 909 2931 1356 
Q 2931 1769 2642 2001 
Q 2353 2234 1838 2234 
L 1294 2234 
L 1294 2753 
L 1863 2753 
Q 2328 2753 2575 2939 
Q 2822 3125 2822 3475 
Q 2822 3834 2567 4026 
Q 2313 4219 1838 4219 
Q 1578 4219 1281 4162 
Q 984 4106 628 3988 
L 628 4550 
Q 988 4650 1302 4700 
Q 1616 4750 1894 4750 
Q 2613 4750 3031 4423 
Q 3450 4097 3450 3541 
Q 3450 3153 3228 2886 
Q 3006 2619 2597 2516 
z
" transform="scale(0.015625)"/>
        <path id="DejaVuSans-2d" d="M 313 2009 
L 1997 2009 
L 1997 1497 
L 313 1497 
L 313 2009 
z
" transform="scale(0.015625)"/>
        <path id="DejaVuSans-39" d="M 703 97 
L 703 672 
Q 941 559 1184 500 
Q 1428 441 1663 441 
Q 2288 441 2617 861 
Q 2947 1281 2994 2138 
Q 2813 1869 2534 1725 
Q 2256 1581 1919 1581 
Q 1219 1581 811 2004 
Q 403 2428 403 3163 
Q 403 3881 828 4315 
Q 1253 4750 1959 4750 
Q 2769 4750 3195 4129 
Q 3622 3509 3622 2328 
Q 3622 1225 3098 567 
Q 2575 -91 1691 -91 
Q 1453 -91 1209 -44 
Q 966 3 703 97 
z
M 1959 2075 
Q 2384 2075 2632 2365 
Q 2881 2656 2881 3163 
Q 2881 3666 2632 3958 
Q 2384 4250 1959 4250 
Q 1534 4250 1286 3958 
Q 1038 3666 1038 3163 
Q 1038 2656 1286 2365 
Q 1534 2075 1959 2075 
z
" transform="scale(0.015625)"/>
        <path id="DejaVuSans-31" d="M 794 531 
L 1825 531 
L 1825 4091 
L 703 3866 
L 703 4441 
L 1819 4666 
L 2450 4666 
L 2450 531 
L 3481 531 
L 3481 0 
L 794 0 
L 794 531 
z
" transform="scale(0.015625)"/>
        <path id="DejaVuSans-37" d="M 525 4666 
L 3525 4666 
L 3525 4397 
L 1831 0 
L 1172 0 
L 2766 4134 
L 525 4134 
L 525 4666 
z
" transform="scale(0.015625)"/>
       </defs>
       <use xlink:href="#DejaVuSans-32"/>
       <use xlink:href="#DejaVuSans-30" x="63.623047"/>
       <use xlink:href="#DejaVuSans-32" x="127.246094"/>
       <use xlink:href="#DejaVuSans-33" x="190.869141"/>
       <use xlink:href="#DejaVuSans-2d" x="254.492188"/>
       <use xlink:href="#DejaVuSans-30" x="290.576172"/>
       <use xlink:href="#DejaVuSans-39" x="354.199219"/>
       <use xlink:href="#DejaVuSans-2d" x="417.822266"/>
       <use xlink:href="#DejaVuSans-31" x="453.90625"/>
       <use xlink:href="#DejaVuSans-37" x="517.529297"/>
      </g>
     </g>
    </g>
    <g id="xtick_2">
     <g id="line2d_2">
      <g>
       <use xlink:href="#m2a7ea28949" x="177.420569" y="288" style="stroke: #000000; stroke-width: 0.8"/>
      </g>
     </g>
     <g id="text_2">
      <!-- 2023-09-21 -->
      <g transform="translate(115.777228 337.765903) rotate(-30) scale(0.12 -0.12)">
       <use xlink:href="#DejaVuSans-32"/>
       <use xlink:href="#DejaVuSans-30" x="63.623047"/>
       <use xlink:href="#DejaVuSans-32" x="127.246094"/>
       <use xlink:href="#DejaVuSans-33" x="190.869141"/>
       <use xlink:href="#DejaVuSans-2d" x="254.492188"/>
       <use xlink:href="#DejaVuSans-30" x="290.576172"/>
       <use xlink:href="#DejaVuSans-39" x="354.199219"/>
       <use xlink:href="#DejaVuSans-2d" x="417.822266"/>
       <use xlink:href="#DejaVuSans-32" x="453.90625"/>
       <use xlink:href="#DejaVuSans-31" x="517.529297"/>
      </g>
     </g>
    </g>
    <g id="xtick_3">
     <g id="line2d_3">
      <g>
       <use xlink:href="#m2a7ea28949" x="232.076217" y="288" style="stroke: #000000; stroke-width: 0.8"/>
      </g>
     </g>
     <g id="text_3">
      <!-- 2023-09-25 -->
      <g transform="translate(170.432875 337.765903) rotate(-30) scale(0.12 -0.12)">
       <defs>
        <path id="DejaVuSans-35" d="M 691 4666 
L 3169 4666 
L 3169 4134 
L 1269 4134 
L 1269 2991 
Q 1406 3038 1543 3061 
Q 1681 3084 1819 3084 
Q 2600 3084 3056 2656 
Q 3513 2228 3513 1497 
Q 3513 744 3044 326 
Q 2575 -91 1722 -91 
Q 1428 -91 1123 -41 
Q 819 9 494 109 
L 494 744 
Q 775 591 1075 516 
Q 1375 441 1709 441 
Q 2250 441 2565 725 
Q 2881 1009 2881 1497 
Q 2881 1984 2565 2268 
Q 2250 2553 1709 2553 
Q 1456 2553 1204 2497 
Q 953 2441 691 2322 
L 691 4666 
z
" transform="scale(0.015625)"/>
       </defs>
       <use xlink:href="#DejaVuSans-32"/>
       <use xlink:href="#DejaVuSans-30" x="63.623047"/>
       <use xlink:href="#DejaVuSans-32" x="127.246094"/>
       <use xlink:href="#DejaVuSans-33" x="190.869141"/>
       <use xlink:href="#DejaVuSans-2d" x="254.492188"/>
       <use xlink:href="#DejaVuSans-30" x="290.576172"/>
       <use xlink:href="#DejaVuSans-39" x="354.199219"/>
       <use xlink:href="#DejaVuSans-2d" x="417.822266"/>
       <use xlink:href="#DejaVuSans-32" x="453.90625"/>
       <use xlink:href="#DejaVuSans-35" x="517.529297"/>
      </g>
     </g>
    </g>
    <g id="xtick_4">
     <g id="line2d_4">
      <g>
       <use xlink:href="#m2a7ea28949" x="286.731864" y="288" style="stroke: #000000; stroke-width: 0.8"/>
      </g>
     </g>
     <g id="text_4">
      <!-- 2023-09-29 -->
      <g transform="translate(225.088522 337.765903) rotate(-30) scale(0.12 -0.12)">
       <use xlink:href="#DejaVuSans-32"/>
       <use xlink:href="#DejaVuSans-30" x="63.623047"/>
       <use xlink:href="#DejaVuSans-32" x="127.246094"/>
       <use xlink:href="#DejaVuSans-33" x="190.869141"/>
       <use xlink:href="#DejaVuSans-2d" x="254.492188"/>
       <use xlink:href="#DejaVuSans-30" x="290.576172"/>
       <use xlink:href="#DejaVuSans-39" x="354.199219"/>
       <use xlink:href="#DejaVuSans-2d" x="417.822266"/>
       <use xlink:href="#DejaVuSans-32" x="453.90625"/>
       <use xlink:href="#DejaVuSans-39" x="517.529297"/>
      </g>
     </g>
    </g>
    <g id="xtick_5">
     <g id="line2d_5">
      <g>
       <use xlink:href="#m2a7ea28949" x="314.059688" y="288" style="stroke: #000000; stroke-width: 0.8"/>
      </g>
     </g>
     <g id="text_5">
      <!-- 2023-10-01 -->
      <g transform="translate(252.416346 337.765903) rotate(-30) scale(0.12 -0.12)">
       <use xlink:href="#DejaVuSans-32"/>
       <use xlink:href="#DejaVuSans-30" x="63.623047"/>
       <use xlink:href="#DejaVuSans-32" x="127.246094"/>
       <use xlink:href="#DejaVuSans-33" x="190.869141"/>
       <use xlink:href="#DejaVuSans-2d" x="254.492188"/>
       <use xlink:href="#DejaVuSans-31" x="290.576172"/>
       <use xlink:href="#DejaVuSans-30" x="354.199219"/>
       <use xlink:href="#DejaVuSans-2d" x="417.822266"/>
       <use xlink:href="#DejaVuSans-30" x="453.90625"/>
       <use xlink:href="#DejaVuSans-31" x="517.529297"/>
      </g>
     </g>
    </g>
    <g id="xtick_6">
     <g id="line2d_6">
      <g>
       <use xlink:href="#m2a7ea28949" x="368.715335" y="288" style="stroke: #000000; stroke-width: 0.8"/>
      </g>
     </g>
     <g id="text_6">
      <!-- 2023-10-05 -->
      <g transform="translate(307.071994 337.765903) rotate(-30) scale(0.12 -0.12)">
       <use xlink:href="#DejaVuSans-32"/>
       <use xlink:href="#DejaVuSans-30" x="63.623047"/>
       <use xlink:href="#DejaVuSans-32" x="127.246094"/>
       <use xlink:href="#DejaVuSans-33" x="190.869141"/>
       <use xlink:href="#DejaVuSans-2d" x="254.492188"/>
       <use xlink:href="#DejaVuSans-31" x="290.576172"/>
       <use xlink:href="#DejaVuSans-30" x="354.199219"/>
       <use xlink:href="#DejaVuSans-2d" x="417.822266"/>
       <use xlink:href="#DejaVuSans-30" x="453.90625"/>
       <use xlink:href="#DejaVuSans-35" x="517.529297"/>
      </g>
     </g>
    </g>
    <g id="xtick_7">
     <g id="line2d_7">
      <g>
       <use xlink:href="#m2a7ea28949" x="423.370983" y="288" style="stroke: #000000; stroke-width: 0.8"/>
      </g>
     </g>
     <g id="text_7">
      <!-- 2023-10-09 -->
      <g transform="translate(361.727641 337.765903) rotate(-30) scale(0.12 -0.12)">
       <use xlink:href="#DejaVuSans-32"/>
       <use xlink:href="#DejaVuSans-30" x="63.623047"/>
       <use xlink:href="#DejaVuSans-32" x="127.246094"/>
       <use xlink:href="#DejaVuSans-33" x="190.869141"/>
       <use xlink:href="#DejaVuSans-2d" x="254.492188"/>
       <use xlink:href="#DejaVuSans-31" x="290.576172"/>
       <use xlink:href="#DejaVuSans-30" x="354.199219"/>
       <use xlink:href="#DejaVuSans-2d" x="417.822266"/>
       <use xlink:href="#DejaVuSans-30" x="453.90625"/>
       <use xlink:href="#DejaVuSans-39" x="517.529297"/>
      </g>
     </g>
    </g>
    <g id="xtick_8">
     <g id="line2d_8">
      <g>
       <use xlink:href="#m2a7ea28949" x="478.02663" y="288" style="stroke: #000000; stroke-width: 0.8"/>
      </g>
     </g>
     <g id="text_8">
      <!-- 2023-10-13 -->
      <g transform="translate(416.383288 337.765903) rotate(-30) scale(0.12 -0.12)">
       <use xlink:href="#DejaVuSans-32"/>
       <use xlink:href="#DejaVuSans-30" x="63.623047"/>
       <use xlink:href="#DejaVuSans-32" x="127.246094"/>
       <use xlink:href="#DejaVuSans-33" x="190.869141"/>
       <use xlink:href="#DejaVuSans-2d" x="254.492188"/>
       <use xlink:href="#DejaVuSans-31" x="290.576172"/>
       <use xlink:href="#DejaVuSans-30" x="354.199219"/>
       <use xlink:href="#DejaVuSans-2d" x="417.822266"/>
       <use xlink:href="#DejaVuSans-31" x="453.90625"/>
       <use xlink:href="#DejaVuSans-33" x="517.529297"/>
      </g>
     </g>
    </g>
    <g id="xtick_9">
     <g id="line2d_9">
      <g>
       <use xlink:href="#m2a7ea28949" x="532.682277" y="288" style="stroke: #000000; stroke-width: 0.8"/>
      </g>
     </g>
     <g id="text_9">
      <!-- 2023-10-17 -->
      <g transform="translate(471.038936 337.765903) rotate(-30) scale(0.12 -0.12)">
       <use xlink:href="#DejaVuSans-32"/>
       <use xlink:href="#DejaVuSans-30" x="63.623047"/>
       <use xlink:href="#DejaVuSans-32" x="127.246094"/>
       <use xlink:href="#DejaVuSans-33" x="190.869141"/>
       <use xlink:href="#DejaVuSans-2d" x="254.492188"/>
       <use xlink:href="#DejaVuSans-31" x="290.576172"/>
       <use xlink:href="#DejaVuSans-30" x="354.199219"/>
       <use xlink:href="#DejaVuSans-2d" x="417.822266"/>
       <use xlink:href="#DejaVuSans-31" x="453.90625"/>
       <use xlink:href="#DejaVuSans-37" x="517.529297"/>
      </g>
     </g>
    </g>
    <g id="xtick_10">
     <g id="line2d_10">
      <g>
       <use xlink:href="#m2a7ea28949" x="587.337925" y="288" style="stroke: #000000; stroke-width: 0.8"/>
      </g>
     </g>
     <g id="text_10">
      <!-- 2023-10-21 -->
      <g transform="translate(525.694583 337.765903) rotate(-30) scale(0.12 -0.12)">
       <use xlink:href="#DejaVuSans-32"/>
       <use xlink:href="#DejaVuSans-30" x="63.623047"/>
       <use xlink:href="#DejaVuSans-32" x="127.246094"/>
       <use xlink:href="#DejaVuSans-33" x="190.869141"/>
       <use xlink:href="#DejaVuSans-2d" x="254.492188"/>
       <use xlink:href="#DejaVuSans-31" x="290.576172"/>
       <use xlink:href="#DejaVuSans-30" x="354.199219"/>
       <use xlink:href="#DejaVuSans-2d" x="417.822266"/>
       <use xlink:href="#DejaVuSans-32" x="453.90625"/>
       <use xlink:href="#DejaVuSans-31" x="517.529297"/>
      </g>
     </g>
    </g>
    <g id="xtick_11">
     <g id="line2d_11">
      <g>
       <use xlink:href="#m2a7ea28949" x="641.993572" y="288" style="stroke: #000000; stroke-width: 0.8"/>
      </g>
     </g>
     <g id="text_11">
      <!-- 2023-10-25 -->
      <g transform="translate(580.35023 337.765903) rotate(-30) scale(0.12 -0.12)">
       <use xlink:href="#DejaVuSans-32"/>
       <use xlink:href="#DejaVuSans-30" x="63.623047"/>
       <use xlink:href="#DejaVuSans-32" x="127.246094"/>
       <use xlink:href="#DejaVuSans-33" x="190.869141"/>
       <use xlink:href="#DejaVuSans-2d" x="254.492188"/>
       <use xlink:href="#DejaVuSans-31" x="290.576172"/>
       <use xlink:href="#DejaVuSans-30" x="354.199219"/>
       <use xlink:href="#DejaVuSans-2d" x="417.822266"/>
       <use xlink:href="#DejaVuSans-32" x="453.90625"/>
       <use xlink:href="#DejaVuSans-35" x="517.529297"/>
      </g>
     </g>
    </g>
   </g>
   <g id="matplotlib.axis_2">
    <g id="ytick_1">
     <g id="line2d_12">
      <defs>
       <path id="m76e81c5f0f" d="M 0 0 
L -3.5 0 
" style="stroke: #000000; stroke-width: 0.8"/>
      </defs>
      <g>
       <use xlink:href="#m76e81c5f0f" x="90" y="263.984578" style="stroke: #000000; stroke-width: 0.8"/>
      </g>
     </g>
     <g id="text_12">
      <!-- −0.025 -->
      <g transform="translate(38.590625 268.543641) scale(0.12 -0.12)">
       <defs>
        <path id="DejaVuSans-2212" d="M 678 2272 
L 4684 2272 
L 4684 1741 
L 678 1741 
L 678 2272 
z
" transform="scale(0.015625)"/>
        <path id="DejaVuSans-2e" d="M 684 794 
L 1344 794 
L 1344 0 
L 684 0 
L 684 794 
z
" transform="scale(0.015625)"/>
       </defs>
       <use xlink:href="#DejaVuSans-2212"/>
       <use xlink:href="#DejaVuSans-30" x="83.789062"/>
       <use xlink:href="#DejaVuSans-2e" x="147.412109"/>
       <use xlink:href="#DejaVuSans-30" x="179.199219"/>
       <use xlink:href="#DejaVuSans-32" x="242.822266"/>
       <use xlink:href="#DejaVuSans-35" x="306.445312"/>
      </g>
     </g>
    </g>
    <g id="ytick_2">
     <g id="line2d_13">
      <g>
       <use xlink:href="#m76e81c5f0f" x="90" y="233.65727" style="stroke: #000000; stroke-width: 0.8"/>
      </g>
     </g>
     <g id="text_13">
      <!-- 0.000 -->
      <g transform="translate(48.64625 238.216333) scale(0.12 -0.12)">
       <use xlink:href="#DejaVuSans-30"/>
       <use xlink:href="#DejaVuSans-2e" x="63.623047"/>
       <use xlink:href="#DejaVuSans-30" x="95.410156"/>
       <use xlink:href="#DejaVuSans-30" x="159.033203"/>
       <use xlink:href="#DejaVuSans-30" x="222.65625"/>
      </g>
     </g>
    </g>
    <g id="ytick_3">
     <g id="line2d_14">
      <g>
       <use xlink:href="#m76e81c5f0f" x="90" y="203.329962" style="stroke: #000000; stroke-width: 0.8"/>
      </g>
     </g>
     <g id="text_14">
      <!-- 0.025 -->
      <g transform="translate(48.64625 207.889025) scale(0.12 -0.12)">
       <use xlink:href="#DejaVuSans-30"/>
       <use xlink:href="#DejaVuSans-2e" x="63.623047"/>
       <use xlink:href="#DejaVuSans-30" x="95.410156"/>
       <use xlink:href="#DejaVuSans-32" x="159.033203"/>
       <use xlink:href="#DejaVuSans-35" x="222.65625"/>
      </g>
     </g>
    </g>
    <g id="ytick_4">
     <g id="line2d_15">
      <g>
       <use xlink:href="#m76e81c5f0f" x="90" y="173.002654" style="stroke: #000000; stroke-width: 0.8"/>
      </g>
     </g>
     <g id="text_15">
      <!-- 0.050 -->
      <g transform="translate(48.64625 177.561717) scale(0.12 -0.12)">
       <use xlink:href="#DejaVuSans-30"/>
       <use xlink:href="#DejaVuSans-2e" x="63.623047"/>
       <use xlink:href="#DejaVuSans-30" x="95.410156"/>
       <use xlink:href="#DejaVuSans-35" x="159.033203"/>
       <use xlink:href="#DejaVuSans-30" x="222.65625"/>
      </g>
     </g>
    </g>
    <g id="ytick_5">
     <g id="line2d_16">
      <g>
       <use xlink:href="#m76e81c5f0f" x="90" y="142.675346" style="stroke: #000000; stroke-width: 0.8"/>
      </g>
     </g>
     <g id="text_16">
      <!-- 0.075 -->
      <g transform="translate(48.64625 147.234409) scale(0.12 -0.12)">
       <use xlink:href="#DejaVuSans-30"/>
       <use xlink:href="#DejaVuSans-2e" x="63.623047"/>
       <use xlink:href="#DejaVuSans-30" x="95.410156"/>
       <use xlink:href="#DejaVuSans-37" x="159.033203"/>
       <use xlink:href="#DejaVuSans-35" x="222.65625"/>
      </g>
     </g>
    </g>
    <g id="ytick_6">
     <g id="line2d_17">
      <g>
       <use xlink:href="#m76e81c5f0f" x="90" y="112.348038" style="stroke: #000000; stroke-width: 0.8"/>
      </g>
     </g>
     <g id="text_17">
      <!-- 0.100 -->
      <g transform="translate(48.64625 116.907101) scale(0.12 -0.12)">
       <use xlink:href="#DejaVuSans-30"/>
       <use xlink:href="#DejaVuSans-2e" x="63.623047"/>
       <use xlink:href="#DejaVuSans-31" x="95.410156"/>
       <use xlink:href="#DejaVuSans-30" x="159.033203"/>
       <use xlink:href="#DejaVuSans-30" x="222.65625"/>
      </g>
     </g>
    </g>
    <g id="ytick_7">
     <g id="line2d_18">
      <g>
       <use xlink:href="#m76e81c5f0f" x="90" y="82.02073" style="stroke: #000000; stroke-width: 0.8"/>
      </g>
     </g>
     <g id="text_18">
      <!-- 0.125 -->
      <g transform="translate(48.64625 86.579793) scale(0.12 -0.12)">
       <use xlink:href="#DejaVuSans-30"/>
       <use xlink:href="#DejaVuSans-2e" x="63.623047"/>
       <use xlink:href="#DejaVuSans-31" x="95.410156"/>
       <use xlink:href="#DejaVuSans-32" x="159.033203"/>
       <use xlink:href="#DejaVuSans-35" x="222.65625"/>
      </g>
     </g>
    </g>
    <g id="ytick_8">
     <g id="line2d_19">
      <g>
       <use xlink:href="#m76e81c5f0f" x="90" y="51.693422" style="stroke: #000000; stroke-width: 0.8"/>
      </g>
     </g>
     <g id="text_19">
      <!-- 0.150 -->
      <g transform="translate(48.64625 56.252485) scale(0.12 -0.12)">
       <use xlink:href="#DejaVuSans-30"/>
       <use xlink:href="#DejaVuSans-2e" x="63.623047"/>
       <use xlink:href="#DejaVuSans-31" x="95.410156"/>
       <use xlink:href="#DejaVuSans-35" x="159.033203"/>
       <use xlink:href="#DejaVuSans-30" x="222.65625"/>
      </g>
     </g>
    </g>
    <g id="text_20">
     <!-- Meters -->
     <g transform="translate(32.510937 182.6875) rotate(-90) scale(0.1 -0.1)">
      <defs>
       <path id="DejaVuSans-4d" d="M 628 4666 
L 1569 4666 
L 2759 1491 
L 3956 4666 
L 4897 4666 
L 4897 0 
L 4281 0 
L 4281 4097 
L 3078 897 
L 2444 897 
L 1241 4097 
L 1241 0 
L 628 0 
L 628 4666 
z
" transform="scale(0.015625)"/>
       <path id="DejaVuSans-65" d="M 3597 1894 
L 3597 1613 
L 953 1613 
Q 991 1019 1311 708 
Q 1631 397 2203 397 
Q 2534 397 2845 478 
Q 3156 559 3463 722 
L 3463 178 
Q 3153 47 2828 -22 
Q 2503 -91 2169 -91 
Q 1331 -91 842 396 
Q 353 884 353 1716 
Q 353 2575 817 3079 
Q 1281 3584 2069 3584 
Q 2775 3584 3186 3129 
Q 3597 2675 3597 1894 
z
M 3022 2063 
Q 3016 2534 2758 2815 
Q 2500 3097 2075 3097 
Q 1594 3097 1305 2825 
Q 1016 2553 972 2059 
L 3022 2063 
z
" transform="scale(0.015625)"/>
       <path id="DejaVuSans-74" d="M 1172 4494 
L 1172 3500 
L 2356 3500 
L 2356 3053 
L 1172 3053 
L 1172 1153 
Q 1172 725 1289 603 
Q 1406 481 1766 481 
L 2356 481 
L 2356 0 
L 1766 0 
Q 1100 0 847 248 
Q 594 497 594 1153 
L 594 3053 
L 172 3053 
L 172 3500 
L 594 3500 
L 594 4494 
L 1172 4494 
z
" transform="scale(0.015625)"/>
       <path id="DejaVuSans-72" d="M 2631 2963 
Q 2534 3019 2420 3045 
Q 2306 3072 2169 3072 
Q 1681 3072 1420 2755 
Q 1159 2438 1159 1844 
L 1159 0 
L 581 0 
L 581 3500 
L 1159 3500 
L 1159 2956 
Q 1341 3275 1631 3429 
Q 1922 3584 2338 3584 
Q 2397 3584 2469 3576 
Q 2541 3569 2628 3553 
L 2631 2963 
z
" transform="scale(0.015625)"/>
       <path id="DejaVuSans-73" d="M 2834 3397 
L 2834 2853 
Q 2591 2978 2328 3040 
Q 2066 3103 1784 3103 
Q 1356 3103 1142 2972 
Q 928 2841 928 2578 
Q 928 2378 1081 2264 
Q 1234 2150 1697 2047 
L 1894 2003 
Q 2506 1872 2764 1633 
Q 3022 1394 3022 966 
Q 3022 478 2636 193 
Q 2250 -91 1575 -91 
Q 1294 -91 989 -36 
Q 684 19 347 128 
L 347 722 
Q 666 556 975 473 
Q 1284 391 1588 391 
Q 1994 391 2212 530 
Q 2431 669 2431 922 
Q 2431 1156 2273 1281 
Q 2116 1406 1581 1522 
L 1381 1569 
Q 847 1681 609 1914 
Q 372 2147 372 2553 
Q 372 3047 722 3315 
Q 1072 3584 1716 3584 
Q 2034 3584 2315 3537 
Q 2597 3491 2834 3397 
z
" transform="scale(0.015625)"/>
      </defs>
      <use xlink:href="#DejaVuSans-4d"/>
      <use xlink:href="#DejaVuSans-65" x="86.279297"/>
      <use xlink:href="#DejaVuSans-74" x="147.802734"/>
      <use xlink:href="#DejaVuSans-65" x="187.011719"/>
      <use xlink:href="#DejaVuSans-72" x="248.535156"/>
      <use xlink:href="#DejaVuSans-73" x="289.648438"/>
     </g>
    </g>
   </g>
   <g id="line2d_20">
    <path d="M 115.363636 231.595541 
L 115.932966 228.765717 
L 116.502296 226.542284 
L 117.071625 225.127372 
L 117.640955 224.723111 
L 118.210285 223.91459 
L 118.779614 226.744414 
L 119.348944 228.563587 
L 119.918274 227.148675 
L 120.487603 228.967847 
L 121.056933 227.350805 
L 121.626263 225.127372 
L 122.195592 225.935893 
L 122.764922 225.127372 
L 123.334252 229.776369 
L 123.903581 246.351053 
L 124.472911 247.968095 
L 125.61157 257.468219 
L 126.1809 276.872727 
L 126.75023 256.457568 
L 127.319559 262.117216 
L 127.888889 252.010701 
L 128.458219 249.383007 
L 129.027548 248.574486 
L 129.596878 250.393659 
L 130.166208 241.904186 
L 130.735537 240.085014 
L 131.304867 239.882883 
L 131.874197 236.244538 
L 132.443526 234.829626 
L 133.012856 237.65945 
L 133.582185 239.680753 
L 134.151515 245.744662 
L 134.720845 240.085014 
L 135.290174 236.446668 
L 135.859504 235.233887 
L 136.428834 246.755313 
L 136.998163 252.819222 
L 137.567493 247.361704 
L 138.706152 249.585137 
L 139.275482 255.851177 
L 139.844812 250.191528 
L 140.414141 249.989398 
L 140.983471 251.20218 
L 141.552801 244.73401 
L 142.12213 253.021352 
L 142.69146 256.053307 
L 143.26079 254.638395 
L 143.830119 252.010701 
L 144.968779 245.744662 
L 145.538108 246.148922 
L 146.107438 245.542532 
L 146.676768 242.510577 
L 147.246097 245.946792 
L 147.815427 250.393659 
L 148.954086 241.702056 
L 149.523416 242.510577 
L 150.092746 240.287144 
L 150.662075 242.712707 
L 151.231405 242.308447 
L 151.800735 245.340401 
L 152.370064 253.829874 
L 152.939394 254.234134 
L 153.508724 252.414962 
L 154.647383 247.563835 
L 155.216713 245.138271 
L 155.786042 245.744662 
L 156.355372 245.542532 
L 156.924702 242.106317 
L 157.494031 236.446668 
L 158.063361 235.233887 
L 158.632691 235.233887 
L 160.34068 239.680753 
L 161.479339 244.12762 
L 162.048669 239.276492 
L 162.617998 237.86158 
L 164.325987 249.585137 
L 164.895317 250.595789 
L 165.464646 240.691405 
L 166.033976 242.712707 
L 166.603306 248.978747 
L 167.172635 247.968095 
L 167.741965 244.12762 
L 168.880624 238.467971 
L 169.449954 237.053059 
L 170.019284 236.446668 
L 170.588613 235.638147 
L 172.296602 229.372108 
L 173.435262 231.595541 
L 174.004591 231.999802 
L 174.573921 236.648799 
L 175.143251 240.085014 
L 175.71258 238.670102 
L 176.28191 236.850929 
L 176.85124 238.265841 
L 177.420569 237.053059 
L 177.989899 236.648799 
L 178.559229 234.829626 
L 179.128558 235.436017 
L 179.697888 238.670102 
L 180.267218 238.670102 
L 180.836547 239.276492 
L 181.405877 241.095665 
L 181.975207 239.276492 
L 182.544536 238.872232 
L 183.113866 239.276492 
L 183.683196 237.255189 
L 184.252525 236.648799 
L 185.391185 232.606193 
L 185.960514 233.616844 
L 186.529844 236.446668 
L 187.099174 236.648799 
L 187.668503 236.446668 
L 188.237833 236.648799 
L 188.807163 240.893535 
L 189.376492 236.244538 
L 190.515152 238.872232 
L 191.084481 238.670102 
L 191.653811 240.812683 
L 192.22314 240.085014 
L 193.3618 251.20218 
L 193.931129 254.234134 
L 194.500459 263.734258 
L 195.069789 251.808571 
L 195.639118 251.808571 
L 196.208448 244.936141 
L 196.777778 241.702056 
L 197.347107 241.702056 
L 198.485767 237.65945 
L 199.055096 236.850929 
L 199.624426 236.446668 
L 200.193756 237.65945 
L 200.763085 236.446668 
L 201.332415 233.212584 
L 201.901745 235.436017 
L 202.471074 240.893535 
L 203.040404 237.86158 
L 203.609734 238.467971 
L 204.179063 237.86158 
L 204.748393 236.244538 
L 205.317723 236.446668 
L 205.887052 239.680753 
L 206.456382 244.12762 
L 207.025712 239.680753 
L 207.595041 240.287144 
L 208.164371 239.882883 
L 208.733701 239.276492 
L 209.30303 240.489274 
L 209.87236 243.319098 
L 211.011019 241.095665 
L 211.580349 241.297795 
L 212.149679 238.467971 
L 212.719008 233.414714 
L 213.288338 235.840277 
L 213.857668 235.233887 
L 214.426997 237.45732 
L 214.996327 237.45732 
L 215.565657 241.904186 
L 216.134986 243.319098 
L 216.704316 240.085014 
L 217.273646 240.893535 
L 218.412305 240.085014 
L 218.981635 237.053059 
L 219.550964 235.031756 
L 220.120294 236.244538 
L 220.689624 236.850929 
L 221.258953 237.65945 
L 221.828283 238.265841 
L 222.397612 241.702056 
L 222.966942 237.86158 
L 223.536272 240.085014 
L 224.105601 239.478623 
L 224.674931 240.893535 
L 225.244261 240.287144 
L 225.81359 234.021105 
L 226.38292 232.404062 
L 226.95225 235.031756 
L 227.521579 234.627496 
L 228.090909 233.212584 
L 229.798898 243.116968 
L 230.368228 239.680753 
L 230.937557 241.904186 
L 231.506887 244.936141 
L 232.076217 244.32975 
L 232.645546 244.12762 
L 233.214876 242.712707 
L 233.784206 245.138271 
L 234.353535 243.925489 
L 234.922865 243.723359 
L 235.492195 242.712707 
L 236.061524 251.808571 
L 236.630854 265.14917 
L 237.200184 265.957691 
L 237.769513 266.968343 
L 238.908173 245.946792 
L 239.477502 238.872232 
L 240.046832 238.670102 
L 240.616162 237.45732 
L 241.185491 237.86158 
L 241.754821 237.255189 
L 242.324151 238.670102 
L 242.89348 240.691405 
L 243.46281 240.489274 
L 244.03214 238.063711 
L 244.601469 237.65945 
L 245.170799 238.467971 
L 245.740129 239.478623 
L 246.309458 246.553183 
L 246.878788 247.361704 
L 247.448118 247.361704 
L 248.017447 243.723359 
L 248.586777 241.499926 
L 249.156107 238.670102 
L 249.725436 237.86158 
L 250.294766 235.436017 
L 250.864096 238.467971 
L 251.433425 238.063711 
L 252.002755 236.042408 
L 252.572084 235.031756 
L 253.141414 233.616844 
L 253.710744 235.031756 
L 254.280073 235.031756 
L 254.849403 235.436017 
L 255.418733 235.436017 
L 255.988062 234.829626 
L 256.557392 237.45732 
L 257.126722 237.45732 
L 257.696051 236.648799 
L 258.265381 236.042408 
L 258.834711 235.233887 
L 259.40404 234.223235 
L 259.97337 234.627496 
L 260.5427 234.627496 
L 261.112029 236.244538 
L 261.681359 236.042408 
L 262.250689 239.478623 
L 262.820018 239.882883 
L 263.389348 239.680753 
L 263.958678 240.489274 
L 264.528007 238.063711 
L 265.097337 236.850929 
L 265.666667 236.244538 
L 266.235996 233.010453 
L 266.805326 230.98915 
L 267.943985 234.829626 
L 268.513315 234.223235 
L 269.082645 235.436017 
L 269.651974 234.829626 
L 270.221304 236.244538 
L 270.790634 235.031756 
L 271.359963 234.425365 
L 271.929293 234.627496 
L 272.498623 232.808323 
L 273.067952 231.595541 
L 273.637282 231.595541 
L 274.775941 231.999802 
L 275.345271 232.606193 
L 275.914601 231.999802 
L 276.48393 234.021105 
L 277.05326 235.436017 
L 277.62259 234.829626 
L 278.191919 234.829626 
L 278.761249 236.244538 
L 279.330579 234.223235 
L 279.899908 234.021105 
L 280.469238 231.191281 
L 281.038567 230.58489 
L 281.607897 231.999802 
L 282.177227 232.606193 
L 282.746556 231.595541 
L 283.315886 231.999802 
L 283.885216 237.86158 
L 284.454545 240.085014 
L 285.023875 234.425365 
L 285.593205 234.425365 
L 286.731864 234.021105 
L 287.301194 236.446668 
L 287.870523 236.446668 
L 289.009183 239.276492 
L 289.578512 242.106317 
L 290.147842 241.499926 
L 290.717172 241.904186 
L 291.286501 243.319098 
L 292.425161 237.86158 
L 292.99449 238.872232 
L 293.56382 238.265841 
L 294.13315 237.86158 
L 294.702479 237.053059 
L 295.271809 235.638147 
L 295.841139 234.627496 
L 296.410468 234.425365 
L 296.979798 234.021105 
L 297.549128 234.223235 
L 298.687787 233.414714 
L 299.257117 231.999802 
L 299.826446 234.223235 
L 300.395776 234.425365 
L 301.534435 238.265841 
L 302.103765 237.053059 
L 302.673095 236.446668 
L 303.242424 237.65945 
L 303.811754 235.840277 
L 304.381084 237.053059 
L 304.950413 239.478623 
L 305.519743 238.670102 
L 306.089073 236.648799 
L 306.658402 235.638147 
L 307.227732 235.031756 
L 307.797062 233.010453 
L 308.366391 231.797672 
L 308.935721 231.393411 
L 309.505051 229.169978 
L 310.07438 229.978499 
L 310.64371 229.372108 
L 311.782369 232.808323 
L 312.351699 230.58489 
L 312.921028 230.180629 
L 313.490358 230.98915 
L 314.059688 231.393411 
L 314.629017 231.999802 
L 315.198347 230.98915 
L 315.767677 230.58489 
L 316.337006 228.563587 
L 317.475666 220.478375 
L 318.044995 218.457072 
L 319.183655 218.052811 
L 319.752984 217.24429 
L 320.322314 218.052811 
L 320.891644 216.435769 
L 322.030303 208.552688 
L 322.599633 207.339906 
L 323.168962 206.531385 
L 323.738292 202.893039 
L 324.876951 199.456824 
L 325.446281 200.871736 
L 326.015611 200.871736 
L 326.58494 200.265346 
L 327.15427 201.073867 
L 327.7236 203.701561 
L 328.292929 204.307951 
L 328.862259 205.318603 
L 329.431589 215.222987 
L 330.000918 229.372108 
L 330.570248 239.680753 
L 331.139578 232.808323 
L 331.708907 223.308199 
L 332.278237 218.861333 
L 332.847567 217.04216 
L 333.416896 216.031509 
L 333.986226 216.84003 
L 334.555556 215.627248 
L 335.124885 211.786772 
L 335.694215 210.16973 
L 336.263545 207.137776 
L 336.832874 207.542036 
L 337.402204 209.765469 
L 337.971534 208.754818 
L 338.540863 210.16973 
L 339.110193 221.691157 
L 339.679522 211.786772 
L 340.248852 215.627248 
L 340.818182 214.010206 
L 341.387511 213.201684 
L 341.956841 214.010206 
L 342.526171 214.010206 
L 343.0955 218.861333 
L 343.66483 237.255189 
L 344.23416 241.297795 
L 344.803489 244.53188 
L 345.372819 234.223235 
L 345.942149 228.765717 
L 346.511478 229.776369 
L 347.650138 226.744414 
L 348.219467 224.11672 
L 348.788797 222.297548 
L 349.358127 221.893287 
L 349.927456 220.882636 
L 350.496786 225.127372 
L 351.066116 219.063463 
L 351.635445 220.680505 
L 352.204775 225.329502 
L 352.774105 227.148675 
L 353.343434 224.11672 
L 353.912764 225.531632 
L 354.482094 223.510329 
L 355.051423 222.095417 
L 355.620753 223.91459 
L 356.190083 233.818974 
L 356.759412 241.095665 
L 357.328742 233.616844 
L 357.898072 233.010453 
L 358.467401 233.212584 
L 359.036731 233.818974 
L 359.606061 234.829626 
L 360.74472 241.297795 
L 361.31405 248.170225 
L 361.883379 243.925489 
L 362.452709 236.850929 
L 363.022039 233.818974 
L 364.160698 226.340154 
L 364.730028 226.946544 
L 365.299357 226.340154 
L 365.868687 223.308199 
L 366.438017 228.563587 
L 367.007346 225.127372 
L 367.576676 225.531632 
L 368.146006 224.318851 
L 368.715335 225.935893 
L 369.284665 237.45732 
L 369.853994 238.063711 
L 370.423324 246.553183 
L 370.992654 257.670349 
L 371.561983 248.776616 
L 372.131313 244.936141 
L 372.700643 250.797919 
L 373.269972 249.989398 
L 373.839302 245.340401 
L 374.408632 248.776616 
L 374.977961 246.957444 
L 375.547291 251.00005 
L 376.116621 245.946792 
L 376.68595 245.138271 
L 377.25528 243.723359 
L 378.393939 235.233887 
L 379.532599 232.404062 
L 380.101928 229.978499 
L 381.809917 230.58489 
L 382.379247 239.074362 
L 382.948577 249.787268 
L 383.517906 246.553183 
L 384.087236 240.287144 
L 384.656566 237.45732 
L 385.225895 237.45732 
L 385.795225 235.638147 
L 386.364555 238.063711 
L 387.503214 267.776864 
L 388.072544 262.521476 
L 388.641873 267.776864 
L 389.211203 265.14917 
L 389.780533 259.691652 
L 391.488522 234.021105 
L 392.057851 230.58489 
L 392.627181 229.776369 
L 394.33517 224.318851 
L 394.9045 225.531632 
L 395.473829 225.127372 
L 396.043159 225.329502 
L 396.612489 229.776369 
L 397.181818 243.116968 
L 397.751148 236.042408 
L 398.320478 239.680753 
L 398.889807 248.776616 
L 399.459137 254.436265 
L 400.028466 248.372356 
L 400.597796 250.797919 
L 401.167126 246.957444 
L 401.736455 247.765965 
L 402.305785 241.499926 
L 402.875115 233.616844 
L 403.444444 235.638147 
L 404.013774 231.191281 
L 405.152433 219.871984 
L 405.721763 217.446421 
L 406.291093 214.414466 
L 406.860422 213.605945 
L 407.429752 212.191033 
L 407.999082 211.382512 
L 408.568411 211.220808 
L 426.217631 227.71464 
L 426.786961 226.946544 
L 427.35629 232.201932 
L 427.92562 225.531632 
L 428.494949 228.967847 
L 429.064279 227.957196 
L 429.633609 224.723111 
L 430.772268 220.074114 
L 431.341598 218.052811 
L 431.910927 217.648551 
L 432.480257 215.222987 
L 433.049587 208.956948 
L 434.188246 193.797176 
L 434.757576 175.60545 
L 435.326905 165.094674 
L 435.896235 161.86059 
L 437.034894 151.754075 
L 437.604224 146.094427 
L 438.173554 142.456081 
L 438.742883 139.828387 
L 439.312213 141.64756 
L 439.881543 133.764479 
L 440.450872 133.360218 
L 441.020202 133.360218 
L 441.589532 137.200694 
L 442.158861 138.413475 
L 443.86685 125.477136 
L 444.43618 125.072876 
L 445.00551 121.838791 
L 446.144169 118.402576 
L 446.713499 119.211097 
L 447.282828 119.615358 
L 447.852158 120.82814 
L 448.421488 120.221749 
L 448.990817 120.626009 
L 449.560147 116.987664 
L 450.129477 115.168491 
L 450.698806 119.413228 
L 451.268136 120.423879 
L 451.837466 125.275006 
L 452.406795 126.689918 
L 452.976125 128.711221 
L 453.545455 129.721873 
L 454.114784 132.955957 
L 455.253444 123.051573 
L 455.822773 124.466485 
L 456.392103 123.657964 
L 456.961433 113.551449 
L 457.530762 106.274758 
L 458.100092 102.434283 
L 458.669421 94.349071 
L 459.238751 84.646817 
L 459.808081 66.859351 
L 460.37741 54.327273 
L 460.94674 56.954967 
L 462.085399 65.040178 
L 462.654729 65.8487 
L 463.793388 72.114739 
L 465.501377 91.317117 
L 466.070707 92.529898 
L 467.778696 106.881149 
L 468.348026 113.95571 
L 468.917355 117.796185 
L 469.486685 123.860094 
L 470.056015 126.487788 
L 471.194674 127.296309 
L 471.764004 125.881397 
L 472.902663 132.147436 
L 475.179982 144.477384 
L 475.749311 152.562596 
L 476.318641 150.137032 
L 476.887971 146.296557 
L 477.4573 148.11573 
L 479.165289 155.19029 
L 479.734619 158.020114 
L 480.303949 163.275502 
L 480.873278 165.094674 
L 481.442608 162.871241 
L 482.011938 162.46698 
L 483.150597 165.498935 
L 483.719927 168.530889 
L 484.289256 169.13728 
L 484.858586 168.328759 
L 485.427916 163.881892 
L 485.997245 167.722368 
L 487.135904 171.764974 
L 487.705234 171.764974 
L 488.843893 173.988407 
L 489.413223 175.80758 
L 489.982553 174.999059 
L 490.551882 177.828883 
L 491.121212 176.616101 
L 491.690542 178.233143 
L 492.259871 179.041665 
L 492.829201 182.47788 
L 493.398531 181.467228 
L 493.96786 172.977756 
L 494.53719 176.413971 
L 495.10652 177.020362 
L 496.814509 180.254446 
L 497.383838 184.297052 
L 497.953168 184.903443 
L 498.522498 184.094922 
L 499.091827 185.307704 
L 499.661157 185.509834 
L 500.230487 185.914095 
L 500.799816 187.531137 
L 501.369146 188.137528 
L 501.938476 186.520486 
L 502.507805 190.563091 
L 503.646465 190.158831 
L 504.215794 189.148179 
L 505.354454 187.935398 
L 505.923783 188.137528 
L 506.493113 189.75457 
L 507.062443 193.392916 
L 508.770432 248.170225 
L 509.339761 248.978747 
L 509.909091 242.106317 
L 511.04775 230.98915 
L 512.18641 218.052811 
L 512.755739 214.010206 
L 513.894399 203.701561 
L 514.463728 201.882388 
L 515.033058 197.031261 
L 515.602388 195.818479 
L 516.171717 191.169482 
L 516.741047 187.733267 
L 517.879706 187.329007 
L 518.449036 185.914095 
L 519.018365 185.914095 
L 519.587695 190.967352 
L 520.157025 197.637652 
L 520.726354 202.893039 
L 521.295684 209.9676 
L 521.865014 215.627248 
L 522.434343 219.669854 
L 523.003673 239.882883 
L 524.711662 220.478375 
L 525.280992 215.829378 
L 526.419651 203.49943 
L 526.988981 205.116473 
L 527.55831 204.914342 
L 528.69697 205.318603 
L 529.266299 205.318603 
L 529.835629 208.350557 
L 530.404959 216.435769 
L 530.974288 210.37186 
L 531.543618 209.765469 
L 532.112948 204.914342 
L 532.682277 205.116473 
L 533.251607 205.520733 
L 533.820937 207.542036 
L 534.959596 238.670102 
L 535.528926 237.053059 
L 536.098255 234.223235 
L 536.667585 236.042408 
L 537.236915 228.361457 
L 537.806244 226.744414 
L 538.375574 221.691157 
L 538.944904 222.095417 
L 540.083563 216.435769 
L 540.652893 216.031509 
L 541.222222 216.031509 
L 541.791552 212.797424 
L 542.360882 206.329254 
L 542.930211 207.339906 
L 543.499541 209.563339 
L 544.068871 210.978251 
L 544.6382 210.573991 
L 545.20753 210.776121 
L 545.77686 209.765469 
L 546.346189 209.765469 
L 546.915519 209.563339 
L 547.484848 212.595294 
L 548.054178 212.191033 
L 548.623508 212.191033 
L 549.762167 214.818727 
L 550.331497 221.893287 
L 551.470156 225.531632 
L 552.039486 227.148675 
L 552.608815 222.701808 
L 553.178145 219.265593 
L 553.747475 213.808075 
L 554.316804 211.786772 
L 554.886134 211.382512 
L 555.455464 211.584642 
L 556.024793 212.191033 
L 556.594123 211.988903 
L 557.163453 211.180381 
L 557.732782 215.829378 
L 558.871442 212.191033 
L 559.440771 209.361209 
L 560.579431 211.584642 
L 561.14876 211.584642 
L 561.71809 209.159079 
L 562.28742 208.956948 
L 562.856749 210.978251 
L 563.995409 207.744166 
L 565.134068 202.893039 
L 565.703398 202.084518 
L 566.272727 198.648303 
L 567.411387 194.605697 
L 567.980716 193.190785 
L 568.550046 190.563091 
L 569.119376 191.978003 
L 569.688705 192.786525 
L 570.258035 191.573743 
L 570.827365 194.807828 
L 571.396694 194.201437 
L 571.966024 193.797176 
L 572.535354 192.786525 
L 573.104683 186.722616 
L 573.674013 183.488531 
L 574.243343 184.297052 
L 574.812672 182.275749 
L 575.382002 181.467228 
L 575.951331 181.669358 
L 576.520661 189.956701 
L 577.65932 183.488531 
L 578.22865 191.371613 
L 578.79798 188.946049 
L 579.367309 187.935398 
L 579.936639 187.531137 
L 580.505969 188.137528 
L 581.075298 188.137528 
L 581.644628 188.339658 
L 582.213958 188.946049 
L 582.783287 189.148179 
L 583.352617 188.946049 
L 583.921947 188.137528 
L 585.060606 189.35031 
L 585.629936 188.946049 
L 586.199265 188.339658 
L 586.768595 187.935398 
L 587.337925 188.137528 
L 587.907254 204.510082 
L 588.476584 199.052564 
L 589.045914 201.478127 
L 589.615243 206.935645 
L 590.184573 214.818727 
L 591.323232 219.467724 
L 592.461892 208.350557 
L 593.031221 210.978251 
L 593.600551 216.031509 
L 594.169881 212.393163 
L 594.73921 214.616596 
L 595.30854 209.159079 
L 595.87787 207.542036 
L 596.447199 205.318603 
L 597.016529 204.105821 
L 597.585859 204.712212 
L 598.155188 203.49943 
L 598.724518 202.690909 
L 599.293848 202.084518 
L 599.863177 203.09517 
L 600.432507 198.244043 
L 601.001837 198.648303 
L 601.571166 198.041912 
L 602.709826 201.680258 
L 603.279155 202.488779 
L 603.848485 204.712212 
L 604.417815 209.563339 
L 604.987144 205.924994 
L 605.556474 197.031261 
L 606.125803 201.882388 
L 606.695133 203.49943 
L 607.833792 201.882388 
L 608.403122 202.084518 
L 608.972452 202.690909 
L 609.541781 202.488779 
L 610.111111 201.680258 
L 610.680441 203.09517 
L 611.8191 203.49943 
L 612.38843 213.201684 
L 613.527089 204.510082 
L 614.096419 204.307951 
L 614.665748 205.722864 
L 615.235078 207.946297 
L 615.804408 209.159079 
L 616.373737 209.159079 
L 616.943067 208.350557 
L 617.512397 208.350557 
L 618.081726 208.552688 
L 618.651056 211.180381 
L 619.220386 208.552688 
L 619.789715 209.765469 
L 620.359045 209.563339 
L 621.497704 210.776121 
L 622.067034 210.776121 
L 622.636364 207.339906 
L 622.636364 207.339906 
" clip-path="url(#pfbfe675840)" style="fill: none; stroke: #1f77b4; stroke-width: 1.5; stroke-linecap: square"/>
   </g>
   <g id="line2d_21">
    <path d="M 115.363636 243.116968 
L 119.918274 243.742039 
L 121.056933 243.572701 
L 123.334252 243.573719 
L 127.888889 244.221777 
L 129.027548 244.388626 
L 129.596878 261.308695 
L 131.304867 261.120931 
L 133.012856 260.017992 
L 134.151515 259.509622 
L 135.290174 259.325045 
L 138.136823 259.299196 
L 142.69146 259.34765 
L 143.26079 241.904186 
L 155.786042 243.893969 
L 156.355372 243.97927 
L 156.924702 245.542532 
L 170.019284 247.217671 
L 170.588613 238.872232 
L 182.544536 241.07996 
L 183.683196 241.278348 
L 184.252525 240.085014 
L 189.376492 240.790332 
L 189.945822 240.642061 
L 191.653811 238.902503 
L 192.22314 238.07548 
L 193.3618 237.099305 
L 193.931129 236.829812 
L 195.069789 236.673562 
L 196.777778 236.830999 
L 199.624426 237.260242 
L 200.193756 236.143473 
L 211.580349 238.510609 
L 212.149679 242.510577 
L 224.674931 244.436645 
L 238.338843 246.307134 
L 238.908173 266.523656 
L 252.002755 266.021356 
L 252.572084 238.144563 
L 267.943985 240.316771 
L 268.513315 232.808323 
L 271.359963 233.327573 
L 271.929293 236.446668 
L 278.761249 237.514961 
L 279.330579 234.506217 
L 293.56382 236.853583 
L 306.089073 238.743268 
L 306.658402 239.357345 
L 320.322314 241.19368 
L 320.891644 218.012385 
L 322.599633 213.033986 
L 323.168962 211.84709 
L 323.738292 211.077296 
L 324.307622 210.656199 
L 324.876951 210.497278 
L 326.015611 210.589508 
L 328.292929 211.249702 
L 333.416896 212.894713 
L 333.986226 217.284716 
L 343.66483 220.339406 
L 347.650138 221.533555 
L 348.219467 229.897647 
L 361.31405 232.449601 
L 361.883379 238.387119 
L 367.576676 239.244795 
L 368.715335 238.852451 
L 369.284665 237.908075 
L 369.853994 236.111405 
L 370.992654 233.434488 
L 371.561983 232.434217 
L 372.131313 231.844842 
L 372.700643 231.550921 
L 373.839302 231.439919 
L 374.977961 231.574422 
L 375.547291 244.693584 
L 388.641873 246.012673 
L 389.211203 268.94922 
L 389.780533 268.991633 
L 390.919192 268.408597 
L 392.627181 267.516706 
L 393.76584 267.163947 
L 395.473829 266.904361 
L 396.612489 266.284359 
L 398.889807 265.631702 
L 401.736455 265.438947 
L 402.305785 265.412404 
L 402.875115 246.876592 
L 403.444444 246.508044 
L 404.013774 246.331385 
L 405.152433 245.574238 
L 406.860422 245.314689 
L 408.568411 245.439317 
L 426.217631 244.395095 
L 439.881543 246.270285 
L 443.297521 246.704477 
L 443.86685 138.696458 
L 450.698806 144.841076 
L 456.392103 149.724016 
L 456.961433 124.143077 
L 463.224059 130.462523 
L 469.486685 136.488939 
L 470.625344 137.554241 
L 471.194674 123.90052 
L 477.4573 130.231207 
L 483.719927 136.268349 
L 484.289256 136.803099 
L 484.858586 165.377657 
L 492.259871 170.564585 
L 495.10652 172.373716 
L 497.953168 173.845197 
L 498.522498 184.054496 
L 499.661157 184.356469 
L 500.230487 184.288213 
L 501.369146 183.698633 
L 502.507805 183.402866 
L 503.646465 183.807442 
L 507.062443 185.709502 
L 511.04775 187.978932 
L 511.61708 187.921028 
L 512.18641 237.416894 
L 516.171717 237.962184 
L 518.449036 238.035106 
L 521.865014 238.479019 
L 525.280992 238.972639 
L 525.850321 226.744414 
L 536.667585 229.399724 
L 538.944904 229.931547 
L 539.514233 226.744414 
L 549.192837 229.526156 
L 552.608815 230.454118 
L 553.178145 225.04652 
L 562.28742 227.801777 
L 563.426079 228.179502 
L 563.995409 227.829465 
L 564.564738 226.68874 
L 565.134068 224.901144 
L 565.703398 222.422822 
L 566.272727 218.650753 
L 566.842057 202.973892 
L 567.980716 198.71345 
L 568.550046 197.077141 
L 569.119376 195.960164 
L 569.688705 195.331645 
L 570.258035 195.180506 
L 570.827365 195.210513 
L 572.535354 195.681819 
L 573.104683 195.367886 
L 574.243343 195.232724 
L 574.812672 195.166222 
L 575.951331 195.451214 
L 577.65932 196.295994 
L 579.936639 197.527687 
L 580.505969 189.148179 
L 583.352617 190.803249 
L 583.921947 190.680577 
L 584.491276 190.265185 
L 585.629936 189.934572 
L 586.199265 189.811795 
L 586.768595 189.884126 
L 587.907254 190.352789 
L 591.323232 192.30753 
L 593.600551 193.619045 
L 594.169881 208.310131 
L 602.709826 211.993825 
L 607.264463 213.856266 
L 607.833792 201.76111 
L 616.373737 205.410222 
L 620.928375 207.262157 
L 621.497704 209.765469 
L 622.636364 210.137237 
L 622.636364 210.137237 
" clip-path="url(#pfbfe675840)" style="fill: none; stroke: #ff7f0e; stroke-width: 1.5; stroke-linecap: square"/>
   </g>
   <g id="patch_3">
    <path d="M 90 288 
L 90 43.2 
" style="fill: none; stroke: #000000; stroke-width: 0.8; stroke-linejoin: miter; stroke-linecap: square"/>
   </g>
   <g id="patch_4">
    <path d="M 648 288 
L 648 43.2 
" style="fill: none; stroke: #000000; stroke-width: 0.8; stroke-linejoin: miter; stroke-linecap: square"/>
   </g>
   <g id="patch_5">
    <path d="M 90 288 
L 648 288 
" style="fill: none; stroke: #000000; stroke-width: 0.8; stroke-linejoin: miter; stroke-linecap: square"/>
   </g>
   <g id="patch_6">
    <path d="M 90 43.2 
L 648 43.2 
" style="fill: none; stroke: #000000; stroke-width: 0.8; stroke-linejoin: miter; stroke-linecap: square"/>
   </g>
   <g id="text_21">
    <!-- MDOT1500 -->
    <g transform="translate(335.545313 37.2) scale(0.12 -0.12)">
     <defs>
      <path id="DejaVuSans-44" d="M 1259 4147 
L 1259 519 
L 2022 519 
Q 2988 519 3436 956 
Q 3884 1394 3884 2338 
Q 3884 3275 3436 3711 
Q 2988 4147 2022 4147 
L 1259 4147 
z
M 628 4666 
L 1925 4666 
Q 3281 4666 3915 4102 
Q 4550 3538 4550 2338 
Q 4550 1131 3912 565 
Q 3275 0 1925 0 
L 628 0 
L 628 4666 
z
" transform="scale(0.015625)"/>
      <path id="DejaVuSans-4f" d="M 2522 4238 
Q 1834 4238 1429 3725 
Q 1025 3213 1025 2328 
Q 1025 1447 1429 934 
Q 1834 422 2522 422 
Q 3209 422 3611 934 
Q 4013 1447 4013 2328 
Q 4013 3213 3611 3725 
Q 3209 4238 2522 4238 
z
M 2522 4750 
Q 3503 4750 4090 4092 
Q 4678 3434 4678 2328 
Q 4678 1225 4090 567 
Q 3503 -91 2522 -91 
Q 1538 -91 948 565 
Q 359 1222 359 2328 
Q 359 3434 948 4092 
Q 1538 4750 2522 4750 
z
" transform="scale(0.015625)"/>
      <path id="DejaVuSans-54" d="M -19 4666 
L 3928 4666 
L 3928 4134 
L 2272 4134 
L 2272 0 
L 1638 0 
L 1638 4134 
L -19 4134 
L -19 4666 
z
" transform="scale(0.015625)"/>
     </defs>
     <use xlink:href="#DejaVuSans-4d"/>
     <use xlink:href="#DejaVuSans-44" x="86.279297"/>
     <use xlink:href="#DejaVuSans-4f" x="163.28125"/>
     <use xlink:href="#DejaVuSans-54" x="241.992188"/>
     <use xlink:href="#DejaVuSans-31" x="303.076172"/>
     <use xlink:href="#DejaVuSans-35" x="366.699219"/>
     <use xlink:href="#DejaVuSans-30" x="430.322266"/>
     <use xlink:href="#DejaVuSans-30" x="493.945312"/>
    </g>
   </g>
   <g id="legend_1">
    <g id="patch_7">
     <path d="M 559.04375 80.55625 
L 641 80.55625 
Q 643 80.55625 643 78.55625 
L 643 50.2 
Q 643 48.2 641 48.2 
L 559.04375 48.2 
Q 557.04375 48.2 557.04375 50.2 
L 557.04375 78.55625 
Q 557.04375 80.55625 559.04375 80.55625 
z
" style="fill: #ffffff; opacity: 0.8; stroke: #cccccc; stroke-linejoin: miter"/>
    </g>
    <g id="line2d_22">
     <path d="M 561.04375 56.298437 
L 571.04375 56.298437 
L 581.04375 56.298437 
" style="fill: none; stroke: #1f77b4; stroke-width: 1.5; stroke-linecap: square"/>
    </g>
    <g id="text_22">
     <!-- measured -->
     <g transform="translate(589.04375 59.798437) scale(0.1 -0.1)">
      <defs>
       <path id="DejaVuSans-6d" d="M 3328 2828 
Q 3544 3216 3844 3400 
Q 4144 3584 4550 3584 
Q 5097 3584 5394 3201 
Q 5691 2819 5691 2113 
L 5691 0 
L 5113 0 
L 5113 2094 
Q 5113 2597 4934 2840 
Q 4756 3084 4391 3084 
Q 3944 3084 3684 2787 
Q 3425 2491 3425 1978 
L 3425 0 
L 2847 0 
L 2847 2094 
Q 2847 2600 2669 2842 
Q 2491 3084 2119 3084 
Q 1678 3084 1418 2786 
Q 1159 2488 1159 1978 
L 1159 0 
L 581 0 
L 581 3500 
L 1159 3500 
L 1159 2956 
Q 1356 3278 1631 3431 
Q 1906 3584 2284 3584 
Q 2666 3584 2933 3390 
Q 3200 3197 3328 2828 
z
" transform="scale(0.015625)"/>
       <path id="DejaVuSans-61" d="M 2194 1759 
Q 1497 1759 1228 1600 
Q 959 1441 959 1056 
Q 959 750 1161 570 
Q 1363 391 1709 391 
Q 2188 391 2477 730 
Q 2766 1069 2766 1631 
L 2766 1759 
L 2194 1759 
z
M 3341 1997 
L 3341 0 
L 2766 0 
L 2766 531 
Q 2569 213 2275 61 
Q 1981 -91 1556 -91 
Q 1019 -91 701 211 
Q 384 513 384 1019 
Q 384 1609 779 1909 
Q 1175 2209 1959 2209 
L 2766 2209 
L 2766 2266 
Q 2766 2663 2505 2880 
Q 2244 3097 1772 3097 
Q 1472 3097 1187 3025 
Q 903 2953 641 2809 
L 641 3341 
Q 956 3463 1253 3523 
Q 1550 3584 1831 3584 
Q 2591 3584 2966 3190 
Q 3341 2797 3341 1997 
z
" transform="scale(0.015625)"/>
       <path id="DejaVuSans-75" d="M 544 1381 
L 544 3500 
L 1119 3500 
L 1119 1403 
Q 1119 906 1312 657 
Q 1506 409 1894 409 
Q 2359 409 2629 706 
Q 2900 1003 2900 1516 
L 2900 3500 
L 3475 3500 
L 3475 0 
L 2900 0 
L 2900 538 
Q 2691 219 2414 64 
Q 2138 -91 1772 -91 
Q 1169 -91 856 284 
Q 544 659 544 1381 
z
M 1991 3584 
L 1991 3584 
z
" transform="scale(0.015625)"/>
       <path id="DejaVuSans-64" d="M 2906 2969 
L 2906 4863 
L 3481 4863 
L 3481 0 
L 2906 0 
L 2906 525 
Q 2725 213 2448 61 
Q 2172 -91 1784 -91 
Q 1150 -91 751 415 
Q 353 922 353 1747 
Q 353 2572 751 3078 
Q 1150 3584 1784 3584 
Q 2172 3584 2448 3432 
Q 2725 3281 2906 2969 
z
M 947 1747 
Q 947 1113 1208 752 
Q 1469 391 1925 391 
Q 2381 391 2643 752 
Q 2906 1113 2906 1747 
Q 2906 2381 2643 2742 
Q 2381 3103 1925 3103 
Q 1469 3103 1208 2742 
Q 947 2381 947 1747 
z
" transform="scale(0.015625)"/>
      </defs>
      <use xlink:href="#DejaVuSans-6d"/>
      <use xlink:href="#DejaVuSans-65" x="97.412109"/>
      <use xlink:href="#DejaVuSans-61" x="158.935547"/>
      <use xlink:href="#DejaVuSans-73" x="220.214844"/>
      <use xlink:href="#DejaVuSans-75" x="272.314453"/>
      <use xlink:href="#DejaVuSans-72" x="335.693359"/>
      <use xlink:href="#DejaVuSans-65" x="374.556641"/>
      <use xlink:href="#DejaVuSans-64" x="436.080078"/>
     </g>
    </g>
    <g id="line2d_23">
     <path d="M 561.04375 70.976562 
L 571.04375 70.976562 
L 581.04375 70.976562 
" style="fill: none; stroke: #ff7f0e; stroke-width: 1.5; stroke-linecap: square"/>
    </g>
    <g id="text_23">
     <!-- predicted -->
     <g transform="translate(589.04375 74.476562) scale(0.1 -0.1)">
      <defs>
       <path id="DejaVuSans-70" d="M 1159 525 
L 1159 -1331 
L 581 -1331 
L 581 3500 
L 1159 3500 
L 1159 2969 
Q 1341 3281 1617 3432 
Q 1894 3584 2278 3584 
Q 2916 3584 3314 3078 
Q 3713 2572 3713 1747 
Q 3713 922 3314 415 
Q 2916 -91 2278 -91 
Q 1894 -91 1617 61 
Q 1341 213 1159 525 
z
M 3116 1747 
Q 3116 2381 2855 2742 
Q 2594 3103 2138 3103 
Q 1681 3103 1420 2742 
Q 1159 2381 1159 1747 
Q 1159 1113 1420 752 
Q 1681 391 2138 391 
Q 2594 391 2855 752 
Q 3116 1113 3116 1747 
z
" transform="scale(0.015625)"/>
       <path id="DejaVuSans-69" d="M 603 3500 
L 1178 3500 
L 1178 0 
L 603 0 
L 603 3500 
z
M 603 4863 
L 1178 4863 
L 1178 4134 
L 603 4134 
L 603 4863 
z
" transform="scale(0.015625)"/>
       <path id="DejaVuSans-63" d="M 3122 3366 
L 3122 2828 
Q 2878 2963 2633 3030 
Q 2388 3097 2138 3097 
Q 1578 3097 1268 2742 
Q 959 2388 959 1747 
Q 959 1106 1268 751 
Q 1578 397 2138 397 
Q 2388 397 2633 464 
Q 2878 531 3122 666 
L 3122 134 
Q 2881 22 2623 -34 
Q 2366 -91 2075 -91 
Q 1284 -91 818 406 
Q 353 903 353 1747 
Q 353 2603 823 3093 
Q 1294 3584 2113 3584 
Q 2378 3584 2631 3529 
Q 2884 3475 3122 3366 
z
" transform="scale(0.015625)"/>
      </defs>
      <use xlink:href="#DejaVuSans-70"/>
      <use xlink:href="#DejaVuSans-72" x="63.476562"/>
      <use xlink:href="#DejaVuSans-65" x="102.339844"/>
      <use xlink:href="#DejaVuSans-64" x="163.863281"/>
      <use xlink:href="#DejaVuSans-69" x="227.339844"/>
      <use xlink:href="#DejaVuSans-63" x="255.123047"/>
      <use xlink:href="#DejaVuSans-74" x="310.103516"/>
      <use xlink:href="#DejaVuSans-65" x="349.3125"/>
      <use xlink:href="#DejaVuSans-64" x="410.835938"/>
     </g>
    </g>
   </g>
  </g>
 </g>
 <defs>
  <clipPath id="pfbfe675840">
   <rect x="90" y="43.2" width="558" height="244.8"/>
  </clipPath>
 </defs>
</svg>
