<?xml version="1.0" encoding="utf-8" standalone="no"?>
<!DOCTYPE svg PUBLIC "-//W3C//DTD SVG 1.1//EN"
  "http://www.w3.org/Graphics/SVG/1.1/DTD/svg11.dtd">
<svg xmlns:xlink="http://www.w3.org/1999/xlink" width="720pt" height="360pt" viewBox="0 0 720 360" xmlns="http://www.w3.org/2000/svg" version="1.1">
 <metadata>
  <rdf:RDF xmlns:dc="http://purl.org/dc/elements/1.1/" xmlns:cc="http://creativecommons.org/ns#" xmlns:rdf="http://www.w3.org/1999/02/22-rdf-syntax-ns#">
   <cc:Work>
    <dc:type rdf:resource="http://purl.org/dc/dcmitype/StillImage"/>
    <dc:date>2023-10-23T10:54:22.904633</dc:date>
    <dc:format>image/svg+xml</dc:format>
    <dc:creator>
     <cc:Agent>
      <dc:title>Matplotlib v3.7.1, https://matplotlib.org/</dc:title>
     </cc:Agent>
    </dc:creator>
   </cc:Work>
  </rdf:RDF>
 </metadata>
 <defs>
  <style type="text/css">*{stroke-linejoin: round; stroke-linecap: butt}</style>
 </defs>
 <g id="figure_1">
  <g id="patch_1">
   <path d="M 0 360 
L 720 360 
L 720 0 
L 0 0 
z
" style="fill: #ffffff"/>
  </g>
  <g id="axes_1">
   <g id="patch_2">
    <path d="M 90 288 
L 648 288 
L 648 43.2 
L 90 43.2 
z
" style="fill: #ffffff"/>
   </g>
   <g id="matplotlib.axis_1">
    <g id="xtick_1">
     <g id="line2d_1">
      <defs>
       <path id="md22f686f31" d="M 0 0 
L 0 3.5 
" style="stroke: #000000; stroke-width: 0.8"/>
      </defs>
      <g>
       <use xlink:href="#md22f686f31" x="149.370747" y="288" style="stroke: #000000; stroke-width: 0.8"/>
      </g>
     </g>
     <g id="text_1">
      <!-- 2023-08-15 -->
      <g transform="translate(87.727405 337.765903) rotate(-30) scale(0.12 -0.12)">
       <defs>
        <path id="DejaVuSans-32" d="M 1228 531 
L 3431 531 
L 3431 0 
L 469 0 
L 469 531 
Q 828 903 1448 1529 
Q 2069 2156 2228 2338 
Q 2531 2678 2651 2914 
Q 2772 3150 2772 3378 
Q 2772 3750 2511 3984 
Q 2250 4219 1831 4219 
Q 1534 4219 1204 4116 
Q 875 4013 500 3803 
L 500 4441 
Q 881 4594 1212 4672 
Q 1544 4750 1819 4750 
Q 2544 4750 2975 4387 
Q 3406 4025 3406 3419 
Q 3406 3131 3298 2873 
Q 3191 2616 2906 2266 
Q 2828 2175 2409 1742 
Q 1991 1309 1228 531 
z
" transform="scale(0.015625)"/>
        <path id="DejaVuSans-30" d="M 2034 4250 
Q 1547 4250 1301 3770 
Q 1056 3291 1056 2328 
Q 1056 1369 1301 889 
Q 1547 409 2034 409 
Q 2525 409 2770 889 
Q 3016 1369 3016 2328 
Q 3016 3291 2770 3770 
Q 2525 4250 2034 4250 
z
M 2034 4750 
Q 2819 4750 3233 4129 
Q 3647 3509 3647 2328 
Q 3647 1150 3233 529 
Q 2819 -91 2034 -91 
Q 1250 -91 836 529 
Q 422 1150 422 2328 
Q 422 3509 836 4129 
Q 1250 4750 2034 4750 
z
" transform="scale(0.015625)"/>
        <path id="DejaVuSans-33" d="M 2597 2516 
Q 3050 2419 3304 2112 
Q 3559 1806 3559 1356 
Q 3559 666 3084 287 
Q 2609 -91 1734 -91 
Q 1441 -91 1130 -33 
Q 819 25 488 141 
L 488 750 
Q 750 597 1062 519 
Q 1375 441 1716 441 
Q 2309 441 2620 675 
Q 2931 909 2931 1356 
Q 2931 1769 2642 2001 
Q 2353 2234 1838 2234 
L 1294 2234 
L 1294 2753 
L 1863 2753 
Q 2328 2753 2575 2939 
Q 2822 3125 2822 3475 
Q 2822 3834 2567 4026 
Q 2313 4219 1838 4219 
Q 1578 4219 1281 4162 
Q 984 4106 628 3988 
L 628 4550 
Q 988 4650 1302 4700 
Q 1616 4750 1894 4750 
Q 2613 4750 3031 4423 
Q 3450 4097 3450 3541 
Q 3450 3153 3228 2886 
Q 3006 2619 2597 2516 
z
" transform="scale(0.015625)"/>
        <path id="DejaVuSans-2d" d="M 313 2009 
L 1997 2009 
L 1997 1497 
L 313 1497 
L 313 2009 
z
" transform="scale(0.015625)"/>
        <path id="DejaVuSans-38" d="M 2034 2216 
Q 1584 2216 1326 1975 
Q 1069 1734 1069 1313 
Q 1069 891 1326 650 
Q 1584 409 2034 409 
Q 2484 409 2743 651 
Q 3003 894 3003 1313 
Q 3003 1734 2745 1975 
Q 2488 2216 2034 2216 
z
M 1403 2484 
Q 997 2584 770 2862 
Q 544 3141 544 3541 
Q 544 4100 942 4425 
Q 1341 4750 2034 4750 
Q 2731 4750 3128 4425 
Q 3525 4100 3525 3541 
Q 3525 3141 3298 2862 
Q 3072 2584 2669 2484 
Q 3125 2378 3379 2068 
Q 3634 1759 3634 1313 
Q 3634 634 3220 271 
Q 2806 -91 2034 -91 
Q 1263 -91 848 271 
Q 434 634 434 1313 
Q 434 1759 690 2068 
Q 947 2378 1403 2484 
z
M 1172 3481 
Q 1172 3119 1398 2916 
Q 1625 2713 2034 2713 
Q 2441 2713 2670 2916 
Q 2900 3119 2900 3481 
Q 2900 3844 2670 4047 
Q 2441 4250 2034 4250 
Q 1625 4250 1398 4047 
Q 1172 3844 1172 3481 
z
" transform="scale(0.015625)"/>
        <path id="DejaVuSans-31" d="M 794 531 
L 1825 531 
L 1825 4091 
L 703 3866 
L 703 4441 
L 1819 4666 
L 2450 4666 
L 2450 531 
L 3481 531 
L 3481 0 
L 794 0 
L 794 531 
z
" transform="scale(0.015625)"/>
        <path id="DejaVuSans-35" d="M 691 4666 
L 3169 4666 
L 3169 4134 
L 1269 4134 
L 1269 2991 
Q 1406 3038 1543 3061 
Q 1681 3084 1819 3084 
Q 2600 3084 3056 2656 
Q 3513 2228 3513 1497 
Q 3513 744 3044 326 
Q 2575 -91 1722 -91 
Q 1428 -91 1123 -41 
Q 819 9 494 109 
L 494 744 
Q 775 591 1075 516 
Q 1375 441 1709 441 
Q 2250 441 2565 725 
Q 2881 1009 2881 1497 
Q 2881 1984 2565 2268 
Q 2250 2553 1709 2553 
Q 1456 2553 1204 2497 
Q 953 2441 691 2322 
L 691 4666 
z
" transform="scale(0.015625)"/>
       </defs>
       <use xlink:href="#DejaVuSans-32"/>
       <use xlink:href="#DejaVuSans-30" x="63.623047"/>
       <use xlink:href="#DejaVuSans-32" x="127.246094"/>
       <use xlink:href="#DejaVuSans-33" x="190.869141"/>
       <use xlink:href="#DejaVuSans-2d" x="254.492188"/>
       <use xlink:href="#DejaVuSans-30" x="290.576172"/>
       <use xlink:href="#DejaVuSans-38" x="354.199219"/>
       <use xlink:href="#DejaVuSans-2d" x="417.822266"/>
       <use xlink:href="#DejaVuSans-31" x="453.90625"/>
       <use xlink:href="#DejaVuSans-35" x="517.529297"/>
      </g>
     </g>
    </g>
    <g id="xtick_2">
     <g id="line2d_2">
      <g>
       <use xlink:href="#md22f686f31" x="264.994921" y="288" style="stroke: #000000; stroke-width: 0.8"/>
      </g>
     </g>
     <g id="text_2">
      <!-- 2023-09-01 -->
      <g transform="translate(203.35158 337.765903) rotate(-30) scale(0.12 -0.12)">
       <defs>
        <path id="DejaVuSans-39" d="M 703 97 
L 703 672 
Q 941 559 1184 500 
Q 1428 441 1663 441 
Q 2288 441 2617 861 
Q 2947 1281 2994 2138 
Q 2813 1869 2534 1725 
Q 2256 1581 1919 1581 
Q 1219 1581 811 2004 
Q 403 2428 403 3163 
Q 403 3881 828 4315 
Q 1253 4750 1959 4750 
Q 2769 4750 3195 4129 
Q 3622 3509 3622 2328 
Q 3622 1225 3098 567 
Q 2575 -91 1691 -91 
Q 1453 -91 1209 -44 
Q 966 3 703 97 
z
M 1959 2075 
Q 2384 2075 2632 2365 
Q 2881 2656 2881 3163 
Q 2881 3666 2632 3958 
Q 2384 4250 1959 4250 
Q 1534 4250 1286 3958 
Q 1038 3666 1038 3163 
Q 1038 2656 1286 2365 
Q 1534 2075 1959 2075 
z
" transform="scale(0.015625)"/>
       </defs>
       <use xlink:href="#DejaVuSans-32"/>
       <use xlink:href="#DejaVuSans-30" x="63.623047"/>
       <use xlink:href="#DejaVuSans-32" x="127.246094"/>
       <use xlink:href="#DejaVuSans-33" x="190.869141"/>
       <use xlink:href="#DejaVuSans-2d" x="254.492188"/>
       <use xlink:href="#DejaVuSans-30" x="290.576172"/>
       <use xlink:href="#DejaVuSans-39" x="354.199219"/>
       <use xlink:href="#DejaVuSans-2d" x="417.822266"/>
       <use xlink:href="#DejaVuSans-30" x="453.90625"/>
       <use xlink:href="#DejaVuSans-31" x="517.529297"/>
      </g>
     </g>
    </g>
    <g id="xtick_3">
     <g id="line2d_3">
      <g>
       <use xlink:href="#md22f686f31" x="360.21483" y="288" style="stroke: #000000; stroke-width: 0.8"/>
      </g>
     </g>
     <g id="text_3">
      <!-- 2023-09-15 -->
      <g transform="translate(298.571488 337.765903) rotate(-30) scale(0.12 -0.12)">
       <use xlink:href="#DejaVuSans-32"/>
       <use xlink:href="#DejaVuSans-30" x="63.623047"/>
       <use xlink:href="#DejaVuSans-32" x="127.246094"/>
       <use xlink:href="#DejaVuSans-33" x="190.869141"/>
       <use xlink:href="#DejaVuSans-2d" x="254.492188"/>
       <use xlink:href="#DejaVuSans-30" x="290.576172"/>
       <use xlink:href="#DejaVuSans-39" x="354.199219"/>
       <use xlink:href="#DejaVuSans-2d" x="417.822266"/>
       <use xlink:href="#DejaVuSans-31" x="453.90625"/>
       <use xlink:href="#DejaVuSans-35" x="517.529297"/>
      </g>
     </g>
    </g>
    <g id="xtick_4">
     <g id="line2d_4">
      <g>
       <use xlink:href="#md22f686f31" x="469.037583" y="288" style="stroke: #000000; stroke-width: 0.8"/>
      </g>
     </g>
     <g id="text_4">
      <!-- 2023-10-01 -->
      <g transform="translate(407.394241 337.765903) rotate(-30) scale(0.12 -0.12)">
       <use xlink:href="#DejaVuSans-32"/>
       <use xlink:href="#DejaVuSans-30" x="63.623047"/>
       <use xlink:href="#DejaVuSans-32" x="127.246094"/>
       <use xlink:href="#DejaVuSans-33" x="190.869141"/>
       <use xlink:href="#DejaVuSans-2d" x="254.492188"/>
       <use xlink:href="#DejaVuSans-31" x="290.576172"/>
       <use xlink:href="#DejaVuSans-30" x="354.199219"/>
       <use xlink:href="#DejaVuSans-2d" x="417.822266"/>
       <use xlink:href="#DejaVuSans-30" x="453.90625"/>
       <use xlink:href="#DejaVuSans-31" x="517.529297"/>
      </g>
     </g>
    </g>
    <g id="xtick_5">
     <g id="line2d_5">
      <g>
       <use xlink:href="#md22f686f31" x="564.257491" y="288" style="stroke: #000000; stroke-width: 0.8"/>
      </g>
     </g>
     <g id="text_5">
      <!-- 2023-10-15 -->
      <g transform="translate(502.614149 337.765903) rotate(-30) scale(0.12 -0.12)">
       <use xlink:href="#DejaVuSans-32"/>
       <use xlink:href="#DejaVuSans-30" x="63.623047"/>
       <use xlink:href="#DejaVuSans-32" x="127.246094"/>
       <use xlink:href="#DejaVuSans-33" x="190.869141"/>
       <use xlink:href="#DejaVuSans-2d" x="254.492188"/>
       <use xlink:href="#DejaVuSans-31" x="290.576172"/>
       <use xlink:href="#DejaVuSans-30" x="354.199219"/>
       <use xlink:href="#DejaVuSans-2d" x="417.822266"/>
       <use xlink:href="#DejaVuSans-31" x="453.90625"/>
       <use xlink:href="#DejaVuSans-35" x="517.529297"/>
      </g>
     </g>
    </g>
   </g>
   <g id="matplotlib.axis_2">
    <g id="ytick_1">
     <g id="line2d_6">
      <defs>
       <path id="mcd302e0d1a" d="M 0 0 
L -3.5 0 
" style="stroke: #000000; stroke-width: 0.8"/>
      </defs>
      <g>
       <use xlink:href="#mcd302e0d1a" x="90" y="267.037073" style="stroke: #000000; stroke-width: 0.8"/>
      </g>
     </g>
     <g id="text_6">
      <!-- 0.3 -->
      <g transform="translate(63.91625 271.596135) scale(0.12 -0.12)">
       <defs>
        <path id="DejaVuSans-2e" d="M 684 794 
L 1344 794 
L 1344 0 
L 684 0 
L 684 794 
z
" transform="scale(0.015625)"/>
       </defs>
       <use xlink:href="#DejaVuSans-30"/>
       <use xlink:href="#DejaVuSans-2e" x="63.623047"/>
       <use xlink:href="#DejaVuSans-33" x="95.410156"/>
      </g>
     </g>
    </g>
    <g id="ytick_2">
     <g id="line2d_7">
      <g>
       <use xlink:href="#mcd302e0d1a" x="90" y="218.437871" style="stroke: #000000; stroke-width: 0.8"/>
      </g>
     </g>
     <g id="text_7">
      <!-- 0.4 -->
      <g transform="translate(63.91625 222.996933) scale(0.12 -0.12)">
       <defs>
        <path id="DejaVuSans-34" d="M 2419 4116 
L 825 1625 
L 2419 1625 
L 2419 4116 
z
M 2253 4666 
L 3047 4666 
L 3047 1625 
L 3713 1625 
L 3713 1100 
L 3047 1100 
L 3047 0 
L 2419 0 
L 2419 1100 
L 313 1100 
L 313 1709 
L 2253 4666 
z
" transform="scale(0.015625)"/>
       </defs>
       <use xlink:href="#DejaVuSans-30"/>
       <use xlink:href="#DejaVuSans-2e" x="63.623047"/>
       <use xlink:href="#DejaVuSans-34" x="95.410156"/>
      </g>
     </g>
    </g>
    <g id="ytick_3">
     <g id="line2d_8">
      <g>
       <use xlink:href="#mcd302e0d1a" x="90" y="169.838669" style="stroke: #000000; stroke-width: 0.8"/>
      </g>
     </g>
     <g id="text_8">
      <!-- 0.5 -->
      <g transform="translate(63.91625 174.397731) scale(0.12 -0.12)">
       <use xlink:href="#DejaVuSans-30"/>
       <use xlink:href="#DejaVuSans-2e" x="63.623047"/>
       <use xlink:href="#DejaVuSans-35" x="95.410156"/>
      </g>
     </g>
    </g>
    <g id="ytick_4">
     <g id="line2d_9">
      <g>
       <use xlink:href="#mcd302e0d1a" x="90" y="121.239467" style="stroke: #000000; stroke-width: 0.8"/>
      </g>
     </g>
     <g id="text_9">
      <!-- 0.6 -->
      <g transform="translate(63.91625 125.798529) scale(0.12 -0.12)">
       <defs>
        <path id="DejaVuSans-36" d="M 2113 2584 
Q 1688 2584 1439 2293 
Q 1191 2003 1191 1497 
Q 1191 994 1439 701 
Q 1688 409 2113 409 
Q 2538 409 2786 701 
Q 3034 994 3034 1497 
Q 3034 2003 2786 2293 
Q 2538 2584 2113 2584 
z
M 3366 4563 
L 3366 3988 
Q 3128 4100 2886 4159 
Q 2644 4219 2406 4219 
Q 1781 4219 1451 3797 
Q 1122 3375 1075 2522 
Q 1259 2794 1537 2939 
Q 1816 3084 2150 3084 
Q 2853 3084 3261 2657 
Q 3669 2231 3669 1497 
Q 3669 778 3244 343 
Q 2819 -91 2113 -91 
Q 1303 -91 875 529 
Q 447 1150 447 2328 
Q 447 3434 972 4092 
Q 1497 4750 2381 4750 
Q 2619 4750 2861 4703 
Q 3103 4656 3366 4563 
z
" transform="scale(0.015625)"/>
       </defs>
       <use xlink:href="#DejaVuSans-30"/>
       <use xlink:href="#DejaVuSans-2e" x="63.623047"/>
       <use xlink:href="#DejaVuSans-36" x="95.410156"/>
      </g>
     </g>
    </g>
    <g id="ytick_5">
     <g id="line2d_10">
      <g>
       <use xlink:href="#mcd302e0d1a" x="90" y="72.640264" style="stroke: #000000; stroke-width: 0.8"/>
      </g>
     </g>
     <g id="text_10">
      <!-- 0.7 -->
      <g transform="translate(63.91625 77.199327) scale(0.12 -0.12)">
       <defs>
        <path id="DejaVuSans-37" d="M 525 4666 
L 3525 4666 
L 3525 4397 
L 1831 0 
L 1172 0 
L 2766 4134 
L 525 4134 
L 525 4666 
z
" transform="scale(0.015625)"/>
       </defs>
       <use xlink:href="#DejaVuSans-30"/>
       <use xlink:href="#DejaVuSans-2e" x="63.623047"/>
       <use xlink:href="#DejaVuSans-37" x="95.410156"/>
      </g>
     </g>
    </g>
    <g id="text_11">
     <!-- Meters -->
     <g transform="translate(57.836562 182.6875) rotate(-90) scale(0.1 -0.1)">
      <defs>
       <path id="DejaVuSans-4d" d="M 628 4666 
L 1569 4666 
L 2759 1491 
L 3956 4666 
L 4897 4666 
L 4897 0 
L 4281 0 
L 4281 4097 
L 3078 897 
L 2444 897 
L 1241 4097 
L 1241 0 
L 628 0 
L 628 4666 
z
" transform="scale(0.015625)"/>
       <path id="DejaVuSans-65" d="M 3597 1894 
L 3597 1613 
L 953 1613 
Q 991 1019 1311 708 
Q 1631 397 2203 397 
Q 2534 397 2845 478 
Q 3156 559 3463 722 
L 3463 178 
Q 3153 47 2828 -22 
Q 2503 -91 2169 -91 
Q 1331 -91 842 396 
Q 353 884 353 1716 
Q 353 2575 817 3079 
Q 1281 3584 2069 3584 
Q 2775 3584 3186 3129 
Q 3597 2675 3597 1894 
z
M 3022 2063 
Q 3016 2534 2758 2815 
Q 2500 3097 2075 3097 
Q 1594 3097 1305 2825 
Q 1016 2553 972 2059 
L 3022 2063 
z
" transform="scale(0.015625)"/>
       <path id="DejaVuSans-74" d="M 1172 4494 
L 1172 3500 
L 2356 3500 
L 2356 3053 
L 1172 3053 
L 1172 1153 
Q 1172 725 1289 603 
Q 1406 481 1766 481 
L 2356 481 
L 2356 0 
L 1766 0 
Q 1100 0 847 248 
Q 594 497 594 1153 
L 594 3053 
L 172 3053 
L 172 3500 
L 594 3500 
L 594 4494 
L 1172 4494 
z
" transform="scale(0.015625)"/>
       <path id="DejaVuSans-72" d="M 2631 2963 
Q 2534 3019 2420 3045 
Q 2306 3072 2169 3072 
Q 1681 3072 1420 2755 
Q 1159 2438 1159 1844 
L 1159 0 
L 581 0 
L 581 3500 
L 1159 3500 
L 1159 2956 
Q 1341 3275 1631 3429 
Q 1922 3584 2338 3584 
Q 2397 3584 2469 3576 
Q 2541 3569 2628 3553 
L 2631 2963 
z
" transform="scale(0.015625)"/>
       <path id="DejaVuSans-73" d="M 2834 3397 
L 2834 2853 
Q 2591 2978 2328 3040 
Q 2066 3103 1784 3103 
Q 1356 3103 1142 2972 
Q 928 2841 928 2578 
Q 928 2378 1081 2264 
Q 1234 2150 1697 2047 
L 1894 2003 
Q 2506 1872 2764 1633 
Q 3022 1394 3022 966 
Q 3022 478 2636 193 
Q 2250 -91 1575 -91 
Q 1294 -91 989 -36 
Q 684 19 347 128 
L 347 722 
Q 666 556 975 473 
Q 1284 391 1588 391 
Q 1994 391 2212 530 
Q 2431 669 2431 922 
Q 2431 1156 2273 1281 
Q 2116 1406 1581 1522 
L 1381 1569 
Q 847 1681 609 1914 
Q 372 2147 372 2553 
Q 372 3047 722 3315 
Q 1072 3584 1716 3584 
Q 2034 3584 2315 3537 
Q 2597 3491 2834 3397 
z
" transform="scale(0.015625)"/>
      </defs>
      <use xlink:href="#DejaVuSans-4d"/>
      <use xlink:href="#DejaVuSans-65" x="86.279297"/>
      <use xlink:href="#DejaVuSans-74" x="147.802734"/>
      <use xlink:href="#DejaVuSans-65" x="187.011719"/>
      <use xlink:href="#DejaVuSans-72" x="248.535156"/>
      <use xlink:href="#DejaVuSans-73" x="289.648438"/>
     </g>
    </g>
   </g>
   <g id="line2d_11">
    <path d="M 115.363636 271.350032 
L 115.647029 270.637426 
L 115.930422 269.503735 
L 116.213814 269.584713 
L 116.497207 268.612978 
L 116.780599 268.532 
L 117.063992 268.208088 
L 117.347384 267.074397 
L 117.630777 264.968971 
L 117.91417 265.454838 
L 118.197562 265.697772 
L 118.480955 266.345596 
L 118.764347 263.83528 
L 119.04774 265.049949 
L 119.331133 269.017868 
L 119.614525 268.693956 
L 119.897918 269.746669 
L 120.18131 269.908625 
L 120.464703 268.855912 
L 121.031488 270.799382 
L 121.314881 270.88036 
L 121.598273 272.014051 
L 121.881666 270.313515 
L 122.165058 269.989603 
L 122.448451 274.119477 
L 123.015236 270.070581 
L 123.298629 269.584713 
L 123.582021 268.370044 
L 123.865414 268.370044 
L 124.148807 268.532 
L 124.432199 268.532 
L 124.715592 267.560265 
L 124.998984 267.560265 
L 125.565769 265.211905 
L 125.849162 266.345596 
L 126.132555 264.887993 
L 126.415947 266.18364 
L 126.69934 265.130927 
L 126.982732 262.782567 
L 127.266125 261.810831 
L 127.549518 261.324964 
L 127.83291 258.409758 
L 128.116303 257.276067 
L 128.399695 255.494553 
L 128.683088 254.684773 
L 129.249873 252.012501 
L 129.533266 252.255435 
L 129.816658 253.470104 
L 130.383443 249.421207 
L 130.666836 250.635876 
L 130.950229 247.639693 
L 131.233621 246.18209 
L 131.517014 246.344046 
L 131.800406 245.696222 
L 132.367191 247.963605 
L 132.650584 249.259252 
L 132.933977 249.988053 
L 134.067547 257.357045 
L 134.35094 257.033133 
L 134.634332 257.195089 
L 134.917725 256.628244 
L 135.201117 256.628244 
L 135.48451 257.195089 
L 135.767902 255.899442 
L 136.051295 256.790199 
L 136.334688 256.790199 
L 136.61808 256.628244 
L 136.901473 256.871177 
L 137.184865 257.357045 
L 137.468258 258.085846 
L 138.035043 258.247802 
L 138.318436 258.490736 
L 138.601828 258.571714 
L 138.885221 259.786383 
L 139.168614 258.409758 
L 139.452006 259.624427 
L 139.735399 262.458655 
L 140.302184 264.807015 
L 140.585576 264.078214 
L 141.435754 267.074397 
L 141.719147 267.155375 
L 142.002539 267.641243 
L 142.285932 265.697772 
L 142.852717 267.641243 
L 143.13611 265.697772 
L 143.419502 265.697772 
L 143.702895 266.18364 
L 143.986287 265.130927 
L 144.26968 265.049949 
L 144.553073 264.159192 
L 144.836465 264.807015 
L 145.119858 264.564081 
L 145.40325 264.726037 
L 145.686643 263.83528 
L 146.253428 263.268434 
L 146.536821 266.507552 
L 146.820213 267.722221 
L 147.386998 268.370044 
L 147.670391 267.722221 
L 147.953784 267.722221 
L 148.237176 267.560265 
L 149.087354 266.345596 
L 149.370747 266.831463 
L 149.654139 269.260801 
L 150.504317 267.641243 
L 150.787709 267.803199 
L 151.637887 266.021684 
L 151.92128 266.345596 
L 152.488065 265.130927 
L 152.771458 263.754302 
L 153.05485 261.567898 
L 153.621635 269.179823 
L 153.905028 270.961338 
L 154.188421 270.151559 
L 154.755206 271.042316 
L 155.038598 273.22872 
L 155.321991 273.795566 
L 155.605383 276.872727 
L 155.888776 274.281433 
L 156.172169 274.605345 
L 156.738954 271.852095 
L 157.022346 268.208088 
L 157.305739 266.264618 
L 157.589132 266.264618 
L 157.872524 265.77875 
L 158.155917 267.884177 
L 158.439309 267.317331 
L 158.722702 268.289066 
L 159.289487 264.645059 
L 159.57288 262.863545 
L 160.139665 263.916258 
L 160.423057 266.021684 
L 160.70645 265.454838 
L 160.989843 267.722221 
L 161.273235 266.021684 
L 161.556628 265.211905 
L 162.123413 266.102662 
L 162.406805 267.398309 
L 162.690198 267.722221 
L 162.973591 268.451022 
L 163.256983 269.665691 
L 163.823768 267.560265 
L 164.390554 269.179823 
L 164.957339 259.786383 
L 165.524124 253.146192 
L 166.374302 239.298966 
L 166.657694 239.298966 
L 167.224479 246.344046 
L 168.074657 243.104929 
L 168.35805 240.189723 
L 168.641442 239.460921 
L 168.924835 242.538083 
L 169.208228 243.509818 
L 169.775013 247.396759 
L 170.058405 250.716854 
L 170.341798 248.93534 
L 170.908583 251.850545 
L 171.191976 252.336413 
L 171.475368 253.713038 
L 171.758761 254.279884 
L 172.042153 253.955972 
L 172.608939 254.765751 
L 173.175724 254.03695 
L 173.459116 252.903259 
L 174.025901 261.324964 
L 174.309294 262.053765 
L 174.592687 262.134743 
L 175.159472 265.454838 
L 175.726257 266.426574 
L 176.00965 265.77875 
L 176.293042 268.93689 
L 176.859827 267.641243 
L 177.426612 263.83528 
L 177.710005 263.673324 
L 177.993398 262.701589 
L 178.27679 259.219538 
L 178.843575 261.405942 
L 179.126968 260.839096 
L 179.410361 260.758118 
L 179.693753 260.920074 
L 179.977146 260.515184 
L 180.260538 261.243986 
L 180.827324 264.726037 
L 181.110716 264.240169 
L 181.394109 265.211905 
L 181.677501 264.968971 
L 182.244286 267.479287 
L 182.527679 267.074397 
L 182.811072 266.912441 
L 183.661249 264.564081 
L 183.944642 264.240169 
L 184.228035 264.159192 
L 184.511427 264.321147 
L 184.79482 264.968971 
L 185.078212 267.803199 
L 185.92839 266.021684 
L 186.211783 263.106478 
L 186.495175 258.247802 
L 186.778568 262.782567 
L 187.06196 264.078214 
L 187.345353 266.669508 
L 187.628746 267.884177 
L 187.912138 267.236353 
L 188.195531 268.451022 
L 188.478923 270.232537 
L 188.762316 269.422757 
L 189.045708 269.098846 
L 189.329101 270.070581 
L 189.612494 269.908625 
L 189.895886 269.422757 
L 190.179279 269.503735 
L 190.462671 268.855912 
L 190.746064 263.511368 
L 191.312849 226.58543 
L 192.163027 186.420374 
L 192.44642 178.646493 
L 192.729812 176.37911 
L 193.013205 178.241603 
L 193.296597 182.452456 
L 194.430168 211.928424 
L 195.280345 233.468554 
L 196.413916 246.991869 
L 196.980701 250.311965 
L 197.547486 250.392943 
L 197.830879 249.502185 
L 198.397664 250.87881 
L 198.681056 252.174457 
L 198.964449 252.498369 
L 199.247842 251.040766 
L 199.531234 248.93534 
L 199.814627 242.538083 
L 200.098019 230.715305 
L 200.381412 212.576247 
L 200.664804 186.98722 
L 201.23159 121.799982 
L 201.514982 109.653292 
L 201.798375 112.973388 
L 202.081767 107.061998 
L 202.36516 103.903859 
L 202.648553 111.920674 
L 203.782123 155.000936 
L 204.348908 170.386743 
L 205.199086 183.100279 
L 205.482478 185.529617 
L 205.765871 188.93069 
L 206.049264 190.469271 
L 206.332656 193.222521 
L 206.616049 194.84208 
L 208.883189 212.819181 
L 209.166582 214.114828 
L 209.449975 216.220254 
L 209.733367 216.868078 
L 210.866938 221.645776 
L 211.15033 220.593063 
L 211.433723 221.402842 
L 211.717115 222.860445 
L 212.000508 223.022401 
L 212.2839 224.318048 
L 212.850686 225.694673 
L 213.134078 226.99032 
L 213.417471 226.99032 
L 213.700863 227.314231 
L 213.984256 227.881077 
L 214.267649 227.800099 
L 215.117826 235.169091 
L 215.684611 233.549532 
L 216.251397 234.44029 
L 216.534789 233.954422 
L 216.818182 234.926157 
L 217.101574 235.331047 
L 217.384967 235.250069 
L 217.66836 235.897892 
L 217.951752 237.598429 
L 218.235145 234.845179 
L 218.518537 234.845179 
L 218.80193 235.007135 
L 219.085322 235.654959 
L 219.368715 235.331047 
L 219.652108 236.221804 
L 220.218893 236.221804 
L 220.502285 237.436473 
L 221.069071 238.003319 
L 221.352463 238.32723 
L 221.919248 241.728304 
L 222.202641 242.214171 
L 222.486034 242.295149 
L 222.769426 244.157642 
L 223.336211 238.894076 
L 223.619604 230.148459 
L 223.902996 217.030034 
L 224.186389 189.902426 
L 224.469782 177.350846 
L 224.753174 175.569331 
L 225.319959 182.452456 
L 226.45353 199.700756 
L 227.303707 205.612145 
L 227.870493 208.203439 
L 228.153885 208.365395 
L 228.437278 211.199622 
L 228.72067 212.009402 
L 229.004063 209.580064 
L 229.287456 208.851262 
L 229.570848 211.847446 
L 229.854241 213.224071 
L 231.271204 224.803915 
L 231.554596 225.127827 
L 231.837989 227.152275 
L 232.121381 227.638143 
L 232.404774 230.391393 
L 232.688167 231.120194 
L 232.971559 232.739753 
L 233.254952 232.901709 
L 233.538344 232.577797 
L 233.821737 234.197356 
L 234.10513 233.468554 
L 234.388522 233.792466 
L 234.671915 231.68704 
L 234.955307 238.813098 
L 235.522092 241.89026 
L 235.805485 241.566348 
L 236.088878 243.023951 
L 236.37227 243.266884 
L 236.655663 245.129377 
L 237.222448 241.566348 
L 237.505841 243.83373 
L 237.789233 244.643509 
L 238.072626 244.643509 
L 238.639411 244.23862 
L 238.922803 243.752752 
L 239.206196 244.481553 
L 239.489589 244.481553 
L 239.772981 244.886443 
L 240.056374 243.023951 
L 240.339766 243.995686 
L 240.623159 243.185906 
L 240.906552 243.671774 
L 241.189944 243.104929 
L 241.473337 244.400575 
L 242.040122 249.097296 
L 242.323514 250.311965 
L 242.606907 252.498369 
L 242.8903 251.68859 
L 243.173692 252.255435 
L 243.457085 249.907075 
L 243.740477 254.441839 
L 244.02387 254.765751 
L 244.307263 253.065214 
L 244.590655 254.198906 
L 244.874048 254.03695 
L 245.440833 248.53045 
L 245.724225 248.449472 
L 246.007618 248.53045 
L 246.291011 248.854362 
L 246.574403 246.667958 
L 246.857796 246.425024 
L 247.141188 244.886443 
L 247.424581 244.076664 
L 247.991366 238.651142 
L 248.274759 240.027767 
L 248.558151 240.432657 
L 248.841544 241.728304 
L 249.124937 242.133193 
L 249.408329 240.756568 
L 249.691722 241.89026 
L 249.975114 242.376127 
L 250.258507 241.161458 
L 250.541899 242.619061 
L 251.108685 243.104929 
L 251.392077 242.700039 
L 251.67547 241.89026 
L 252.242255 241.566348 
L 253.375825 245.453289 
L 253.659218 244.076664 
L 253.94261 244.157642 
L 254.226003 243.590796 
L 254.509396 244.481553 
L 254.792788 240.675591 
L 255.642966 249.745119 
L 256.493144 250.87881 
L 257.343321 255.818464 
L 257.626714 254.522817 
L 257.910107 254.522817 
L 258.193499 255.656508 
L 258.476892 252.660325 
L 258.760284 252.498369 
L 259.043677 252.903259 
L 259.32707 253.794016 
L 259.610462 253.470104 
L 259.893855 253.551082 
L 260.177247 253.389126 
L 260.46064 252.174457 
L 260.744033 252.741303 
L 261.027425 252.012501 
L 261.310818 252.498369 
L 261.59421 251.445656 
L 261.877603 252.822281 
L 262.444388 257.761935 
L 262.727781 259.219538 
L 263.011173 258.32878 
L 263.294566 259.867361 
L 263.577958 259.786383 
L 263.861351 261.891809 
L 264.144744 261.405942 
L 264.428136 261.243986 
L 264.711529 259.13856 
L 264.994921 260.758118 
L 265.278314 257.599979 
L 265.845099 256.871177 
L 266.128492 257.357045 
L 266.411884 259.381493 
L 266.695277 256.871177 
L 266.978669 256.304332 
L 267.262062 256.223354 
L 267.545455 254.684773 
L 268.11224 255.57553 
L 268.395632 255.251619 
L 268.679025 256.38531 
L 268.962417 258.166824 
L 269.24581 258.652692 
L 269.529203 259.624427 
L 269.812595 259.705405 
L 270.095988 260.67714 
L 270.37938 260.839096 
L 270.662773 261.972787 
L 270.946166 262.539633 
L 271.229558 261.972787 
L 271.512951 262.377677 
L 272.646521 258.73367 
L 272.929914 259.13856 
L 273.213306 259.057582 
L 273.496699 259.381493 
L 273.780091 260.515184 
L 274.063484 259.705405 
L 274.346877 259.624427 
L 274.630269 259.786383 
L 274.913662 259.300515 
L 275.197054 260.353229 
L 275.480447 259.624427 
L 275.76384 260.191273 
L 276.330625 263.997236 
L 276.614017 262.701589 
L 276.89741 265.373861 
L 277.180802 264.726037 
L 277.747588 266.426574 
L 278.03098 264.564081 
L 278.314373 268.208088 
L 278.597765 265.697772 
L 278.881158 261.163008 
L 279.164551 261.001052 
L 279.447943 261.48692 
L 279.731336 261.163008 
L 280.014728 261.08203 
L 280.298121 261.324964 
L 280.581513 260.758118 
L 281.148299 260.353229 
L 281.431691 260.434207 
L 281.715084 260.272251 
L 281.998476 259.786383 
L 282.281869 259.705405 
L 282.565262 260.029317 
L 282.848654 262.944523 
L 283.132047 264.564081 
L 283.415439 264.564081 
L 283.698832 264.726037 
L 283.982224 264.240169 
L 284.265617 264.564081 
L 284.54901 266.021684 
L 284.832402 266.426574 
L 285.115795 268.855912 
L 285.399187 268.370044 
L 285.68258 266.18364 
L 286.249365 263.997236 
L 286.532758 264.968971 
L 287.099543 263.0255 
L 287.382936 261.648876 
L 287.666328 261.324964 
L 287.949721 259.219538 
L 288.233113 259.624427 
L 288.799898 256.142376 
L 289.083291 253.794016 
L 289.366684 256.547266 
L 289.650076 262.620611 
L 289.933469 260.596162 
L 290.216861 260.434207 
L 290.500254 260.110295 
L 290.783647 261.243986 
L 291.067039 263.83528 
L 291.350432 264.887993 
L 291.633824 265.130927 
L 291.917217 267.641243 
L 292.200609 263.754302 
L 292.484002 263.0255 
L 292.767395 261.810831 
L 293.050787 262.134743 
L 293.617572 260.839096 
L 293.900965 261.001052 
L 294.184358 262.134743 
L 294.46775 261.891809 
L 294.751143 260.920074 
L 295.034535 261.163008 
L 295.317928 261.001052 
L 295.60132 260.029317 
L 295.884713 260.272251 
L 296.168106 262.053765 
L 296.451498 264.887993 
L 296.734891 264.726037 
L 297.018283 263.673324 
L 297.868461 264.887993 
L 298.151854 265.77875 
L 298.435246 264.240169 
L 298.718639 264.078214 
L 299.002031 264.402125 
L 299.285424 264.078214 
L 299.852209 263.187456 
L 300.135602 262.944523 
L 300.702387 263.997236 
L 300.98578 263.268434 
L 301.269172 263.754302 
L 301.552565 204.964321 
L 301.835957 258.085846 
L 302.969528 225.046849 
L 303.25292 222.293599 
L 303.536313 226.18054 
L 303.819705 231.848996 
L 304.386491 235.816914 
L 304.669883 228.204989 
L 304.953276 224.480004 
L 305.236668 226.261518 
L 306.086846 233.954422 
L 306.653631 237.679407 
L 307.220416 239.541899 
L 307.503809 239.298966 
L 307.787202 239.541899 
L 308.070594 238.408208 
L 308.353987 238.246252 
L 308.920772 233.468554 
L 309.487557 231.68704 
L 309.77095 231.444106 
L 310.337735 226.909342 
L 310.621127 226.342496 
L 310.90452 225.451739 
L 311.187913 225.775651 
L 311.471305 227.233253 
L 311.754698 226.747386 
L 312.321483 228.93379 
L 312.604876 229.014768 
L 313.171661 229.986503 
L 314.305231 233.063665 
L 314.588624 234.845179 
L 315.155409 235.088113 
L 315.438801 236.950606 
L 315.722194 236.545716 
L 316.288979 237.841363 
L 316.572372 241.809282 
L 317.139157 246.58698 
L 317.42255 246.263068 
L 317.705942 248.53045 
L 317.989335 248.773384 
L 318.272727 251.364678 
L 318.55612 251.607612 
L 318.839512 248.692406 
L 319.122905 248.773384 
L 319.406298 250.311965 
L 319.68969 249.421207 
L 319.973083 249.097296 
L 320.256475 249.745119 
L 320.539868 249.583163 
L 320.823261 249.907075 
L 321.106653 249.178274 
L 321.390046 249.826097 
L 321.673438 249.34023 
L 322.240223 252.903259 
L 322.807009 250.959788 
L 323.090401 249.097296 
L 323.657186 259.786383 
L 323.940579 262.863545 
L 324.507364 259.867361 
L 324.790757 260.596162 
L 325.074149 260.67714 
L 325.357542 259.786383 
L 325.640934 257.357045 
L 325.924327 260.353229 
L 326.491112 257.114111 
L 326.774505 257.276067 
L 327.057897 255.899442 
L 327.34129 256.061398 
L 327.624683 256.790199 
L 327.908075 255.737486 
L 328.191468 255.251619 
L 328.47486 256.061398 
L 328.758253 256.466288 
L 329.325038 255.332597 
L 329.608431 255.170641 
L 329.891823 255.737486 
L 330.742001 250.635876 
L 331.875571 244.076664 
L 332.158964 241.242436 
L 332.725749 238.408208 
L 333.292534 232.010951 
L 333.575927 231.039216 
L 333.859319 230.87726 
L 334.426105 231.525084 
L 334.709497 232.253885 
L 334.99289 233.954422 
L 335.276282 233.954422 
L 335.843068 234.521267 
L 336.12646 235.088113 
L 336.409853 234.764201 
L 336.693245 233.792466 
L 336.976638 234.0354 
L 337.26003 233.387576 
L 337.826816 230.715305 
L 339.243779 215.896343 
L 339.527171 213.871894 
L 339.810564 213.143093 
L 343.494667 226.504452 
L 343.77806 228.204989 
L 344.344845 230.148459 
L 344.628238 232.496819 
L 345.195023 234.44029 
L 345.478415 234.44029 
L 345.761808 235.250069 
L 346.045201 236.464738 
L 346.328593 235.654959 
L 346.611986 236.707672 
L 347.462164 237.760385 
L 347.745556 238.003319 
L 348.028949 238.489186 
L 348.312341 237.841363 
L 348.595734 237.598429 
L 348.879126 237.841363 
L 349.162519 236.38376 
L 349.445912 236.221804 
L 350.012697 233.549532 
L 350.296089 231.444106 
L 350.579482 227.071297 
L 351.146267 221.240886 
L 351.42966 215.491453 
L 351.713052 212.09038 
L 351.996445 206.98877 
L 352.56323 202.939873 
L 352.846623 201.968138 
L 353.413408 204.073564 
L 353.6968 203.911608 
L 354.546978 210.794733 
L 354.830371 213.790916 
L 355.113763 214.762651 
L 355.397156 216.868078 
L 356.530726 220.593063 
L 356.814119 221.07893 
L 357.097511 222.455555 
L 357.380904 226.18054 
L 357.664297 232.415841 
L 357.947689 234.0354 
L 358.231082 232.658775 
L 358.514474 232.496819 
L 359.08126 235.897892 
L 359.364652 235.169091 
L 359.648045 235.97887 
L 359.931437 239.703855 
L 360.21483 236.464738 
L 360.498222 235.088113 
L 360.781615 235.169091 
L 361.065008 237.112561 
L 361.915185 239.703855 
L 362.198578 239.622877 
L 362.481971 240.594613 
L 362.765363 240.513635 
L 363.048756 240.675591 
L 363.615541 241.728304 
L 364.182326 243.914708 
L 364.465719 246.748936 
L 364.749111 246.667958 
L 365.032504 247.234803 
L 365.315896 249.259252 
L 365.599289 249.421207 
L 366.166074 243.671774 
L 366.449467 244.967421 
L 366.732859 245.534267 
L 367.016252 246.58698 
L 367.299644 244.319598 
L 367.583037 243.752752 
L 367.86643 242.700039 
L 368.149822 243.023951 
L 368.433215 242.457105 
L 368.716607 242.700039 
L 369 242.700039 
L 369.283393 243.509818 
L 369.566785 245.534267 
L 369.850178 245.615245 
L 370.416963 244.562531 
L 370.700356 243.671774 
L 370.983748 245.534267 
L 371.267141 250.635876 
L 371.550533 252.012501 
L 371.833926 251.850545 
L 372.117318 253.146192 
L 372.400711 250.87881 
L 372.684104 251.526634 
L 372.967496 250.392943 
L 373.250889 249.988053 
L 373.534281 250.473921 
L 373.817674 252.012501 
L 374.101067 252.174457 
L 374.384459 251.445656 
L 374.667852 252.579347 
L 374.951244 251.850545 
L 375.234637 249.988053 
L 375.518029 252.822281 
L 375.801422 253.065214 
L 376.084815 251.445656 
L 376.368207 250.797832 
L 376.6516 250.959788 
L 377.218385 248.692406 
L 377.501778 250.230987 
L 377.78517 252.579347 
L 378.068563 252.78989 
L 378.351955 253.874994 
L 378.635348 253.794016 
L 378.91874 256.061398 
L 379.485526 255.494553 
L 380.052311 254.279884 
L 380.335703 254.279884 
L 380.619096 253.22717 
L 380.902489 252.741303 
L 381.185881 252.984237 
L 381.469274 253.470104 
L 381.752666 253.146192 
L 382.319451 255.57553 
L 382.602844 254.441839 
L 382.886237 254.198906 
L 383.169629 253.470104 
L 383.453022 254.441839 
L 383.736414 254.198906 
L 384.019807 253.63206 
L 384.3032 254.279884 
L 384.586592 255.413575 
L 384.869985 260.596162 
L 385.153377 262.053765 
L 385.43677 260.758118 
L 385.720163 260.758118 
L 386.286948 262.944523 
L 386.853733 257.680957 
L 387.137125 259.705405 
L 387.703911 257.438023 
L 387.987303 257.761935 
L 388.270696 256.061398 
L 388.554088 256.709222 
L 388.837481 258.73367 
L 389.120874 257.357045 
L 389.404266 258.004869 
L 389.687659 256.871177 
L 389.971051 257.842913 
L 390.254444 256.952155 
L 390.537836 259.057582 
L 391.104622 254.927707 
L 391.388014 255.008685 
L 391.671407 260.515184 
L 391.954799 261.08203 
L 392.238192 262.053765 
L 392.804977 261.001052 
L 393.08837 260.515184 
L 393.655155 260.272251 
L 394.22194 263.511368 
L 394.505333 261.729854 
L 394.788725 260.758118 
L 395.072118 258.814648 
L 395.35551 255.170641 
L 395.922296 258.32878 
L 396.205688 257.438023 
L 396.489081 258.409758 
L 396.772473 258.166824 
L 397.339259 260.596162 
L 397.906044 258.409758 
L 398.189436 259.948339 
L 398.472829 260.839096 
L 398.756221 260.353229 
L 399.039614 260.839096 
L 399.323007 260.67714 
L 399.889792 264.483103 
L 400.173184 263.592346 
L 400.73997 266.345596 
L 401.023362 264.321147 
L 401.590147 262.782567 
L 402.156932 259.13856 
L 402.723718 261.48692 
L 403.00711 261.972787 
L 403.290503 261.48692 
L 403.573895 259.624427 
L 403.857288 259.462471 
L 404.140681 261.438333 
L 404.424073 258.571714 
L 404.707466 257.276067 
L 404.990858 260.191273 
L 405.274251 265.373861 
L 405.557643 266.831463 
L 406.124429 265.940706 
L 406.407821 266.345596 
L 406.691214 267.155375 
L 406.974606 267.236353 
L 407.257999 268.208088 
L 407.541392 267.641243 
L 408.108177 262.296699 
L 408.674962 261.08203 
L 408.958354 262.539633 
L 409.241747 262.944523 
L 409.52514 261.48692 
L 409.808532 261.891809 
L 410.091925 262.053765 
L 410.375317 260.515184 
L 410.65871 261.405942 
L 410.942103 260.029317 
L 411.225495 259.300515 
L 411.508888 259.13856 
L 411.79228 260.369424 
L 412.359066 266.58853 
L 412.642458 266.102662 
L 412.925851 266.264618 
L 413.209243 266.912441 
L 413.492636 267.884177 
L 413.776028 267.803199 
L 414.059421 267.479287 
L 414.342814 268.451022 
L 414.626206 265.616794 
L 414.909599 264.321147 
L 415.192991 264.807015 
L 415.476384 263.997236 
L 415.759777 264.321147 
L 416.043169 263.511368 
L 416.326562 260.920074 
L 416.609954 260.272251 
L 417.460132 261.163008 
L 417.743525 261.324964 
L 418.31031 258.73367 
L 418.593702 259.705405 
L 418.877095 262.296699 
L 419.160488 261.08203 
L 419.44388 262.377677 
L 419.727273 265.535816 
L 420.294058 264.240169 
L 420.57745 263.754302 
L 420.860843 266.264618 
L 421.144236 266.345596 
L 421.711021 263.997236 
L 421.994413 261.08203 
L 422.844591 261.648876 
L 423.127984 261.972787 
L 423.411376 263.673324 
L 423.694769 263.187456 
L 423.978162 263.187456 
L 425.111732 259.948339 
L 425.395124 261.729854 
L 425.678517 266.345596 
L 426.528695 267.884177 
L 426.812087 268.289066 
L 427.09548 271.123294 
L 427.378873 270.47547 
L 427.662265 269.503735 
L 427.945658 269.746669 
L 428.512443 265.454838 
L 428.795835 266.264618 
L 429.079228 260.191273 
L 429.646013 263.916258 
L 429.929406 270.070581 
L 430.496191 265.77875 
L 431.062976 263.754302 
L 431.346369 265.130927 
L 431.629761 263.997236 
L 431.913154 262.296699 
L 432.196546 262.863545 
L 432.479939 267.268744 
L 432.763332 268.046132 
L 433.046724 267.803199 
L 433.330117 266.669508 
L 433.613509 267.722221 
L 433.896902 269.908625 
L 434.180295 269.827647 
L 434.463687 269.341779 
L 434.74708 270.232537 
L 435.030472 269.017868 
L 435.313865 266.669508 
L 435.597257 266.18364 
L 435.88065 265.211905 
L 436.164043 264.645059 
L 436.447435 265.616794 
L 436.730828 265.77875 
L 437.01422 266.264618 
L 437.581006 266.18364 
L 438.147791 265.616794 
L 438.431183 264.321147 
L 438.714576 262.134743 
L 438.997969 262.458655 
L 439.281361 269.503735 
L 439.564754 269.260801 
L 440.131539 267.236353 
L 440.414931 266.831463 
L 440.698324 266.18364 
L 440.981717 266.507552 
L 441.265109 265.454838 
L 441.548502 266.264618 
L 441.831894 264.483103 
L 442.115287 264.240169 
L 442.39868 265.859728 
L 442.682072 264.887993 
L 442.965465 264.483103 
L 443.248857 264.807015 
L 443.815642 263.997236 
L 444.099035 264.726037 
L 444.382428 264.887993 
L 444.66582 265.211905 
L 445.232605 264.483103 
L 445.515998 259.13856 
L 445.799391 261.48692 
L 446.082783 265.616794 
L 446.932961 266.264618 
L 447.216353 268.370044 
L 447.499746 269.017868 
L 447.783139 268.532 
L 448.066531 266.426574 
L 448.349924 269.017868 
L 448.633316 267.479287 
L 449.200102 262.377677 
L 449.483494 263.106478 
L 449.766887 265.049949 
L 450.050279 264.887993 
L 450.617064 263.43039 
L 450.900457 264.887993 
L 451.467242 262.458655 
L 451.750635 262.053765 
L 452.034027 261.891809 
L 452.31742 261.243986 
L 452.600813 263.268434 
L 452.884205 268.774934 
L 453.167598 271.609162 
L 453.45099 268.12711 
L 453.734383 266.507552 
L 454.017776 265.77875 
L 454.301168 266.993419 
L 454.584561 265.940706 
L 455.151346 269.341779 
L 455.434738 267.641243 
L 455.718131 266.669508 
L 456.001524 266.831463 
L 456.284916 265.373861 
L 456.568309 264.564081 
L 456.851701 264.968971 
L 457.135094 263.916258 
L 457.418487 263.349412 
L 457.701879 263.349412 
L 458.268664 260.920074 
L 458.552057 261.163008 
L 458.835449 262.458655 
L 459.118842 261.891809 
L 459.402235 261.810831 
L 459.685627 265.859728 
L 459.96902 266.831463 
L 460.252412 266.297009 
L 460.819198 269.260801 
L 461.385983 266.021684 
L 461.669375 266.264618 
L 461.952768 264.887993 
L 462.23616 264.726037 
L 462.802946 263.916258 
L 463.086338 263.268434 
L 463.369731 263.106478 
L 463.653123 263.268434 
L 463.936516 262.863545 
L 464.219909 261.891809 
L 464.503301 261.648876 
L 464.786694 261.810831 
L 465.070086 261.810831 
L 465.353479 261.567898 
L 465.636872 261.729854 
L 465.920264 261.405942 
L 466.203657 262.296699 
L 466.770442 260.920074 
L 467.337227 262.701589 
L 467.62062 262.620611 
L 467.904012 262.701589 
L 468.470797 260.596162 
L 468.75419 259.624427 
L 469.037583 254.846729 
L 469.604368 243.266884 
L 469.88776 242.538083 
L 470.171153 243.42884 
L 470.454545 241.971237 
L 470.737938 244.319598 
L 471.588116 242.781017 
L 471.871508 242.700039 
L 472.154901 243.266884 
L 472.438294 242.861995 
L 472.721686 243.185906 
L 473.005079 245.534267 
L 473.571864 247.396759 
L 473.855256 245.453289 
L 474.422042 250.392943 
L 474.705434 251.526634 
L 475.272219 238.894076 
L 475.555612 239.541899 
L 475.839005 240.756568 
L 476.40579 240.351679 
L 476.972575 242.700039 
L 477.255967 243.995686 
L 477.53936 245.939156 
L 477.822753 246.18209 
L 478.106145 246.101112 
L 478.389538 247.558715 
L 478.67293 245.858178 
L 479.239716 248.12556 
L 479.523108 248.044583 
L 479.806501 249.583163 
L 480.089893 255.413575 
L 480.373286 254.765751 
L 480.656679 256.061398 
L 480.940071 255.737486 
L 481.223464 256.871177 
L 481.506856 255.818464 
L 481.790249 255.57553 
L 482.073641 258.166824 
L 482.357034 258.32878 
L 482.640427 256.790199 
L 482.923819 253.955972 
L 483.207212 254.603795 
L 483.490604 254.279884 
L 483.773997 254.684773 
L 484.05739 255.818464 
L 484.340782 255.818464 
L 484.624175 253.308148 
L 484.907567 254.522817 
L 485.19096 255.008685 
L 485.474352 255.818464 
L 485.757745 255.332597 
L 486.041138 255.57553 
L 486.32453 254.846729 
L 486.607923 256.142376 
L 486.891315 260.839096 
L 487.174708 261.810831 
L 487.458101 260.758118 
L 487.741493 263.43039 
L 488.024886 262.863545 
L 488.308278 261.729854 
L 488.591671 262.377677 
L 488.875063 262.377677 
L 489.158456 260.839096 
L 489.441849 260.839096 
L 490.292026 259.300515 
L 490.575419 260.029317 
L 491.142204 258.004869 
L 491.425597 258.085846 
L 491.992382 251.607612 
L 492.275775 255.413575 
L 492.559167 257.195089 
L 493.409345 259.624427 
L 493.692737 262.458655 
L 493.97613 262.053765 
L 494.259523 262.377677 
L 494.542915 263.754302 
L 495.1097 263.916258 
L 495.393093 263.268434 
L 495.676486 263.997236 
L 495.959878 263.592346 
L 496.243271 267.155375 
L 496.810056 259.786383 
L 497.093448 259.300515 
L 497.376841 256.952155 
L 497.660234 256.38531 
L 497.943626 256.871177 
L 498.510411 255.98042 
L 498.793804 256.304332 
L 499.077197 256.061398 
L 499.360589 255.332597 
L 499.643982 255.737486 
L 499.927374 254.603795 
L 500.210767 252.660325 
L 500.494159 258.085846 
L 500.777552 257.842913 
L 501.344337 258.814648 
L 501.911122 263.187456 
L 502.194515 256.790199 
L 502.477908 255.413575 
L 502.7613 254.603795 
L 503.044693 252.579347 
L 503.328085 252.498369 
L 503.611478 251.526634 
L 503.89487 251.364678 
L 504.178263 249.259252 
L 504.745048 247.720671 
L 505.028441 246.020134 
L 505.311833 247.396759 
L 505.595226 246.58698 
L 505.878619 247.153825 
L 506.162011 247.315781 
L 506.445404 247.315781 
L 506.728796 246.58698 
L 507.012189 246.991869 
L 507.295582 250.392943 
L 508.145759 252.579347 
L 508.429152 253.955972 
L 508.712544 251.121744 
L 508.995937 252.741303 
L 509.27933 253.389126 
L 509.846115 252.336413 
L 510.129507 252.336413 
L 510.4129 252.741303 
L 510.979685 250.311965 
L 511.263078 250.069031 
L 511.54647 248.773384 
L 511.829863 246.020134 
L 512.680041 233.306598 
L 513.246826 218.325681 
L 513.530218 215.734387 
L 513.813611 215.329497 
L 514.097004 213.709938 
L 514.380396 215.572431 
L 514.663789 215.572431 
L 514.947181 215.734387 
L 515.230574 215.491453 
L 515.513966 217.839813 
L 515.797359 219.054482 
L 516.080752 219.216438 
L 516.364144 220.593063 
L 524.865922 243.752752 
L 525.432707 243.671774 
L 525.7161 244.481553 
L 525.999492 244.724487 
L 526.282885 245.939156 
L 526.566277 246.425024 
L 526.84967 247.234803 
L 527.133062 247.315781 
L 527.416455 247.639693 
L 527.699848 247.153825 
L 527.98324 247.801649 
L 528.266633 247.315781 
L 528.550025 248.611428 
L 528.833418 248.611428 
L 529.116811 249.097296 
L 529.400203 248.93534 
L 529.966988 248.12556 
L 530.250381 249.097296 
L 530.533773 247.801649 
L 530.817166 247.639693 
L 531.383951 246.506002 
L 531.667344 246.425024 
L 532.234129 246.58698 
L 532.517522 245.858178 
L 532.800914 245.858178 
L 533.084307 246.344046 
L 533.367699 245.858178 
L 533.651092 244.562531 
L 534.217877 243.509818 
L 534.50127 244.23862 
L 534.784662 246.101112 
L 535.068055 244.967421 
L 535.351447 246.344046 
L 535.63484 245.534267 
L 536.201625 245.372311 
L 536.485018 245.048399 
L 536.76841 244.481553 
L 537.051803 244.481553 
L 537.335196 243.83373 
L 537.618588 244.562531 
L 537.901981 244.562531 
L 538.185373 244.805465 
L 538.468766 244.643509 
L 538.752158 244.23862 
L 539.035551 244.481553 
L 539.885729 246.344046 
L 540.452514 246.263068 
L 540.735907 246.18209 
L 541.019299 246.667958 
L 541.302692 247.801649 
L 541.586084 247.477737 
L 542.152869 250.635876 
L 542.436262 250.959788 
L 543.28644 249.34023 
L 543.569832 250.716854 
L 543.853225 249.826097 
L 544.136618 249.421207 
L 544.42001 250.069031 
L 544.703403 248.611428 
L 544.986795 249.502185 
L 545.55358 247.882627 
L 545.836973 248.287516 
L 546.120366 249.259252 
L 546.403758 247.963605 
L 546.687151 249.178274 
L 546.970543 248.53045 
L 547.253936 249.259252 
L 547.537329 248.854362 
L 547.820721 249.988053 
L 548.104114 250.150009 
L 548.387506 251.2837 
L 549.237684 256.223354 
L 549.521077 253.794016 
L 549.804469 252.984237 
L 550.087862 253.146192 
L 550.371254 255.008685 
L 550.654647 253.389126 
L 550.93804 253.874994 
L 551.221432 253.146192 
L 551.504825 253.713038 
L 551.788217 253.22717 
L 552.07161 253.146192 
L 552.355003 252.579347 
L 552.638395 253.874994 
L 552.921788 252.822281 
L 553.20518 254.03695 
L 553.771965 253.794016 
L 554.622143 252.660325 
L 554.905536 255.494553 
L 555.188928 256.304332 
L 555.472321 255.98042 
L 555.755714 257.599979 
L 556.039106 257.195089 
L 557.456069 253.955972 
L 557.739462 254.03695 
L 558.022854 256.790199 
L 558.306247 254.765751 
L 558.589639 253.955972 
L 558.873032 252.579347 
L 559.156425 252.660325 
L 559.439817 254.603795 
L 559.72321 252.579347 
L 560.006602 252.822281 
L 560.289995 254.03695 
L 560.573388 253.551082 
L 560.85678 253.955972 
L 561.140173 253.874994 
L 561.423565 255.332597 
L 561.706958 256.142376 
L 561.99035 256.38531 
L 562.273743 256.223354 
L 562.557136 256.223354 
L 562.840528 256.952155 
L 563.123921 256.061398 
L 563.407313 254.360861 
L 563.690706 254.117928 
L 563.974099 252.741303 
L 564.257491 251.931523 
L 564.540884 252.174457 
L 564.824276 251.364678 
L 565.107669 250.959788 
L 565.391061 251.202722 
L 565.674454 251.2837 
L 566.241239 251.68859 
L 566.524632 251.202722 
L 566.808024 250.959788 
L 567.091417 251.121744 
L 567.37481 251.445656 
L 567.658202 250.150009 
L 567.941595 250.311965 
L 568.224987 250.635876 
L 568.791772 250.87881 
L 569.075165 251.121744 
L 569.358558 252.660325 
L 569.64195 253.146192 
L 569.925343 252.579347 
L 570.208735 253.63206 
L 570.492128 252.498369 
L 570.775521 252.417391 
L 571.058913 251.202722 
L 571.342306 251.607612 
L 571.625698 252.255435 
L 571.909091 251.931523 
L 572.192483 252.174457 
L 572.475876 252.093479 
L 572.759269 252.822281 
L 573.042661 252.336413 
L 573.326054 252.498369 
L 573.609446 252.255435 
L 573.892839 252.984237 
L 574.459624 253.22717 
L 574.743017 252.417391 
L 575.026409 252.174457 
L 575.309802 253.22717 
L 575.876587 254.198906 
L 576.15998 254.927707 
L 576.443372 256.223354 
L 576.726765 255.413575 
L 577.010157 255.413575 
L 577.576943 253.308148 
L 577.860335 254.03695 
L 578.143728 253.308148 
L 578.710513 253.713038 
L 578.993906 253.470104 
L 579.277298 253.470104 
L 579.560691 253.874994 
L 579.844083 253.389126 
L 580.410868 253.63206 
L 580.694261 253.551082 
L 580.977654 253.955972 
L 581.261046 254.117928 
L 581.544439 255.170641 
L 581.827831 254.360861 
L 582.111224 254.360861 
L 582.678009 257.114111 
L 582.961402 257.114111 
L 583.244794 256.790199 
L 583.528187 256.952155 
L 583.811579 256.709222 
L 584.094972 256.790199 
L 584.378365 259.13856 
L 585.228542 254.603795 
L 585.511935 255.170641 
L 586.362113 251.445656 
L 586.645505 253.146192 
L 587.212291 254.117928 
L 587.495683 254.360861 
L 587.779076 253.389126 
L 588.062468 253.874994 
L 588.345861 253.308148 
L 588.629253 254.279884 
L 589.196039 256.952155 
L 589.479431 256.952155 
L 589.762824 256.709222 
L 590.046216 257.438023 
L 590.329609 257.195089 
L 590.613002 256.304332 
L 590.896394 256.061398 
L 591.463179 255.089663 
L 591.746572 255.170641 
L 592.029964 254.684773 
L 592.313357 255.494553 
L 592.59675 254.441839 
L 593.163535 253.874994 
L 593.446927 254.441839 
L 594.013713 253.470104 
L 594.86389 252.660325 
L 595.430675 251.445656 
L 595.997461 251.850545 
L 596.280853 252.417391 
L 596.564246 252.417391 
L 596.847638 253.470104 
L 597.414424 251.121744 
L 597.697816 247.801649 
L 597.981209 246.829914 
L 598.831386 240.108745 
L 599.114779 236.464738 
L 599.681564 233.792466 
L 600.815135 222.698489 
L 601.098527 219.216438 
L 601.38192 217.596879 
L 601.665312 214.681673 
L 602.51549 210.308865 
L 602.798883 209.499086 
L 603.082275 209.903975 
L 603.365668 211.766468 
L 603.64906 214.600696 
L 603.932453 214.762651 
L 604.499238 215.896343 
L 605.066023 218.082747 
L 605.349416 218.811548 
L 605.632809 220.350129 
L 605.916201 220.916974 
L 606.199594 222.536533 
L 606.482986 223.508268 
L 606.766379 225.613695 
L 607.049771 226.018584 
L 607.333164 226.99032 
L 607.616557 228.366944 
L 607.899949 229.095746 
L 608.466734 230.796282 
L 608.750127 229.743569 
L 609.316912 233.792466 
L 609.600305 234.926157 
L 609.883697 236.545716 
L 610.16709 235.97887 
L 610.733875 237.598429 
L 611.017268 237.760385 
L 611.30066 237.760385 
L 611.867445 236.78865 
L 612.150838 238.084297 
L 612.434231 238.246252 
L 612.717623 239.056032 
L 613.001016 239.379944 
L 613.284408 240.351679 
L 613.567801 240.108745 
L 613.851193 241.242436 
L 614.134586 241.404392 
L 614.417979 242.052215 
L 614.701371 241.809282 
L 615.268156 242.781017 
L 615.551549 242.861995 
L 615.834942 243.83373 
L 616.401727 247.072847 
L 616.685119 250.554899 
L 617.251905 254.279884 
L 617.81869 248.368494 
L 618.102082 249.097296 
L 618.385475 249.016318 
L 619.235653 247.315781 
L 619.519045 246.101112 
L 619.802438 247.720671 
L 620.08583 246.101112 
L 620.369223 245.453289 
L 620.936008 246.748936 
L 621.219401 246.425024 
L 621.502793 247.558715 
L 621.786186 246.910891 
L 622.069578 246.58698 
L 622.636364 245.534267 
L 622.636364 245.534267 
" clip-path="url(#pdfb804b513)" style="fill: none; stroke: #1f77b4; stroke-width: 1.5; stroke-linecap: square"/>
   </g>
   <g id="line2d_12">
    <path d="M 115.363636 265.815993 
L 115.930422 264.079015 
L 116.213814 269.503735 
L 118.197562 269.27715 
L 121.314881 269.733181 
L 122.731844 269.944239 
L 123.015236 271.771117 
L 126.132555 272.089686 
L 126.69934 272.075712 
L 126.982732 271.828902 
L 127.83291 269.748048 
L 128.116303 268.352784 
L 128.683088 263.913946 
L 129.249873 261.701392 
L 129.533266 261.118606 
L 129.816658 252.255435 
L 130.100051 251.516484 
L 130.666836 248.900128 
L 130.950229 247.719196 
L 131.233621 247.636005 
L 131.517014 246.700728 
L 132.083799 242.099634 
L 132.367191 240.823396 
L 132.933977 239.545161 
L 134.067547 238.484092 
L 134.35094 238.501349 
L 134.634332 238.090786 
L 135.201117 236.31453 
L 135.48451 235.868586 
L 135.767902 235.711069 
L 136.334688 235.796168 
L 136.61808 256.790199 
L 143.13611 258.603377 
L 143.419502 265.697772 
L 147.670391 266.454715 
L 148.803961 266.207487 
L 149.370747 265.731277 
L 149.937532 265.645618 
L 150.220924 268.693956 
L 155.038598 269.422769 
L 156.738954 269.675949 
L 157.022346 271.852095 
L 163.540376 272.633283 
L 163.823768 268.370044 
L 164.107161 268.525443 
L 164.390554 268.165149 
L 164.673946 266.755186 
L 165.524124 258.577467 
L 166.657694 225.539098 
L 166.941087 223.466427 
L 167.224479 222.616315 
L 167.507872 222.3494 
L 167.791265 222.317214 
L 168.35805 222.558912 
L 169.208228 222.902898 
L 169.775013 222.964681 
L 170.058405 223.182577 
L 170.341798 223.170642 
L 170.62519 248.93534 
L 171.475368 249.137844 
L 177.14322 251.170815 
L 177.426612 265.454838 
L 183.944642 266.672893 
L 184.228035 264.240169 
L 194.430168 266.237328 
L 197.547486 266.803043 
L 197.830879 250.392943 
L 198.964449 250.776394 
L 199.531234 250.339036 
L 199.814627 250.517077 
L 200.098019 248.819422 
L 200.381412 246.004515 
L 200.664804 244.850748 
L 200.948197 242.164872 
L 201.798375 225.730097 
L 202.081767 223.57086 
L 202.36516 222.616733 
L 202.648553 222.281693 
L 202.931945 222.239657 
L 203.49873 222.475654 
L 204.348908 223.008515 
L 204.632301 170.386743 
L 204.915693 170.776584 
L 205.199086 170.910846 
L 205.482478 171.376932 
L 205.765871 166.080583 
L 206.049264 158.153783 
L 206.332656 156.709857 
L 206.616049 146.832727 
L 207.466227 71.7285 
L 207.749619 61.449426 
L 208.033012 56.627773 
L 208.316404 54.765829 
L 208.599797 54.327273 
L 208.883189 54.539809 
L 209.449975 55.654577 
L 214.834434 68.229788 
L 215.401219 68.854254 
L 215.968004 69.52117 
L 216.818182 71.26014 
L 223.619604 86.404349 
L 228.437278 96.4866 
L 233.254952 106.052288 
L 238.072626 115.127878 
L 238.356018 115.647017 
L 238.639411 244.400575 
L 244.590655 246.680841 
L 244.874048 246.610009 
L 245.15744 246.393549 
L 245.440833 251.526634 
L 246.007618 251.285542 
L 246.574403 250.105069 
L 246.857796 248.835107 
L 247.707974 241.526019 
L 248.274759 236.22981 
L 249.124937 231.752212 
L 249.691722 228.585362 
L 249.975114 227.784303 
L 250.258507 227.558876 
L 250.825292 227.765042 
L 251.958862 228.404772 
L 252.242255 241.728304 
L 258.760284 244.374049 
L 259.043677 252.498369 
L 267.262062 255.132002 
L 275.76384 257.618867 
L 284.54901 259.957291 
L 287.382936 260.665023 
L 287.666328 261.648876 
L 292.767395 262.815611 
L 293.050787 261.810831 
L 298.151854 262.927058 
L 299.285424 262.880644 
L 299.852209 262.766814 
L 300.418994 262.855758 
L 300.702387 262.626673 
L 300.98578 261.996222 
L 301.269172 261.670667 
L 301.552565 261.080598 
L 302.11935 256.571558 
L 302.686135 252.444264 
L 302.969528 251.410217 
L 303.25292 250.910759 
L 304.103098 250.456002 
L 304.669883 250.370782 
L 304.953276 249.911028 
L 305.520061 248.615628 
L 305.803454 248.243516 
L 306.653631 247.888722 
L 307.220416 247.500716 
L 307.787202 247.523178 
L 309.204165 248.019557 
L 317.139157 250.93729 
L 325.074149 253.613524 
L 333.292534 256.151463 
L 339.810564 258.008511 
L 343.494667 221.645776 
L 344.91163 222.483717 
L 345.478415 222.680033 
L 346.328593 222.67612 
L 347.178771 223.107807 
L 350.579482 225.285289 
L 350.862875 232.577797 
L 356.247334 235.467056 
L 356.530726 218.325681 
L 362.481971 222.40582 
L 363.048756 222.780757 
L 363.332148 240.513635 
L 366.449467 241.8789 
L 367.299644 242.094819 
L 367.86643 241.838371 
L 368.433215 241.898704 
L 369.850178 242.480078 
L 370.13357 245.574756 
L 376.6516 248.270685 
L 376.934992 251.405167 
L 383.453022 253.671388 
L 383.736414 253.470104 
L 385.720163 254.005931 
L 386.57034 253.665447 
L 387.420518 253.755901 
L 390.254444 254.586171 
L 390.537836 257.940086 
L 397.055866 259.83554 
L 397.339259 258.134433 
L 403.857288 260.014913 
L 404.140681 259.397689 
L 408.674962 260.609733 
L 409.241747 258.77305 
L 409.52514 258.895999 
L 409.808532 256.633938 
L 410.375317 248.925126 
L 410.65871 246.860065 
L 410.942103 245.755923 
L 411.225495 245.231035 
L 411.508888 245.025078 
L 412.075673 245.034608 
L 412.359066 259.13856 
L 417.743525 260.638375 
L 418.026917 259.786383 
L 426.245302 261.97429 
L 431.062976 263.157706 
L 431.346369 266.102662 
L 437.864398 267.36921 
L 438.147791 266.102662 
L 446.082783 267.631364 
L 446.366176 260.029317 
L 447.783139 260.365249 
L 448.066531 268.532 
L 451.467242 269.023591 
L 451.750635 263.673324 
L 460.819198 265.664913 
L 465.070086 266.524693 
L 465.353479 261.729854 
L 471.871508 263.335992 
L 472.154901 242.457105 
L 472.438294 238.149347 
L 472.721686 235.701712 
L 473.005079 234.371095 
L 473.288471 233.725533 
L 473.571864 233.472984 
L 474.138649 233.494918 
L 475.272219 234.080295 
L 478.67293 236.060794 
L 478.956323 247.801649 
L 481.506856 255.277642 
L 483.773997 261.320755 
L 485.474352 265.465086 
L 485.757745 254.927707 
L 488.308278 262.982062 
L 490.575419 269.44436 
L 492.559167 274.57459 
L 492.84256 250.554899 
L 494.826308 254.835731 
L 495.676486 256.211221 
L 495.959878 256.920026 
L 496.526663 255.722184 
L 497.943626 258.19588 
L 499.360589 260.443639 
L 499.643982 256.38531 
L 501.62773 259.15375 
L 502.194515 258.781225 
L 502.477908 258.846825 
L 502.7613 257.489532 
L 503.044693 256.71868 
L 503.328085 257.225625 
L 505.878619 259.87717 
L 506.162011 246.344046 
L 507.862367 247.765774 
L 508.145759 246.355414 
L 508.429152 243.557244 
L 508.712544 242.478404 
L 508.995937 242.540568 
L 509.846115 241.357287 
L 510.129507 240.999886 
L 510.696293 240.05038 
L 511.263078 239.882582 
L 511.54647 239.816724 
L 511.829863 239.893923 
L 512.680041 240.491782 
L 512.963433 238.894076 
L 513.530218 237.644734 
L 514.380396 235.191607 
L 515.797359 231.924847 
L 516.364144 231.216469 
L 529.966988 237.837286 
L 533.084307 239.328661 
L 533.367699 245.210355 
L 539.885729 247.744451 
L 540.169121 245.858178 
L 546.970543 248.450663 
L 547.253936 248.12556 
L 548.387506 248.503199 
L 548.954292 248.542755 
L 549.237684 248.434034 
L 549.804469 247.825385 
L 550.371254 247.356246 
L 550.93804 247.347858 
L 552.07161 247.748965 
L 553.488573 248.345074 
L 553.771965 253.146192 
L 555.188928 253.696007 
L 558.022854 254.741328 
L 560.573388 255.453907 
L 560.85678 253.308148 
L 561.423565 251.545607 
L 562.273743 248.033736 
L 562.840528 246.380388 
L 563.690706 242.929809 
L 564.257491 242.305779 
L 565.391061 241.924977 
L 566.524632 242.088469 
L 567.091417 242.2739 
L 567.37481 250.87881 
L 569.358558 251.560512 
L 571.625698 252.022324 
L 574.176232 252.958789 
L 574.459624 252.336413 
L 580.977654 254.663589 
L 581.261046 253.63206 
L 587.495683 255.766263 
L 587.779076 253.470104 
L 592.880142 255.193012 
L 593.446927 255.182025 
L 593.73032 255.19544 
L 594.580498 254.152204 
L 594.86389 253.308148 
L 595.997461 253.293939 
L 596.280853 253.306948 
L 596.564246 253.18843 
L 598.264601 251.085889 
L 599.398172 250.599656 
L 599.964957 250.657003 
L 601.098527 251.04141 
L 601.38192 223.184357 
L 607.333164 227.372803 
L 607.899949 227.756097 
L 608.183342 228.204989 
L 609.600305 229.006913 
L 610.16709 229.079412 
L 610.733875 229.065797 
L 611.584053 229.369543 
L 614.417979 230.965122 
L 614.984764 231.285034 
L 615.268156 242.781017 
L 621.786186 245.487151 
L 622.069578 246.506002 
L 622.636364 246.661681 
L 622.636364 246.661681 
" clip-path="url(#pdfb804b513)" style="fill: none; stroke: #ff7f0e; stroke-width: 1.5; stroke-linecap: square"/>
   </g>
   <g id="patch_3">
    <path d="M 90 288 
L 90 43.2 
" style="fill: none; stroke: #000000; stroke-width: 0.8; stroke-linejoin: miter; stroke-linecap: square"/>
   </g>
   <g id="patch_4">
    <path d="M 648 288 
L 648 43.2 
" style="fill: none; stroke: #000000; stroke-width: 0.8; stroke-linejoin: miter; stroke-linecap: square"/>
   </g>
   <g id="patch_5">
    <path d="M 90 288 
L 648 288 
" style="fill: none; stroke: #000000; stroke-width: 0.8; stroke-linejoin: miter; stroke-linecap: square"/>
   </g>
   <g id="patch_6">
    <path d="M 90 43.2 
L 648 43.2 
" style="fill: none; stroke: #000000; stroke-width: 0.8; stroke-linejoin: miter; stroke-linecap: square"/>
   </g>
   <g id="text_12">
    <!-- MDOT6513 -->
    <g transform="translate(335.545313 37.2) scale(0.12 -0.12)">
     <defs>
      <path id="DejaVuSans-44" d="M 1259 4147 
L 1259 519 
L 2022 519 
Q 2988 519 3436 956 
Q 3884 1394 3884 2338 
Q 3884 3275 3436 3711 
Q 2988 4147 2022 4147 
L 1259 4147 
z
M 628 4666 
L 1925 4666 
Q 3281 4666 3915 4102 
Q 4550 3538 4550 2338 
Q 4550 1131 3912 565 
Q 3275 0 1925 0 
L 628 0 
L 628 4666 
z
" transform="scale(0.015625)"/>
      <path id="DejaVuSans-4f" d="M 2522 4238 
Q 1834 4238 1429 3725 
Q 1025 3213 1025 2328 
Q 1025 1447 1429 934 
Q 1834 422 2522 422 
Q 3209 422 3611 934 
Q 4013 1447 4013 2328 
Q 4013 3213 3611 3725 
Q 3209 4238 2522 4238 
z
M 2522 4750 
Q 3503 4750 4090 4092 
Q 4678 3434 4678 2328 
Q 4678 1225 4090 567 
Q 3503 -91 2522 -91 
Q 1538 -91 948 565 
Q 359 1222 359 2328 
Q 359 3434 948 4092 
Q 1538 4750 2522 4750 
z
" transform="scale(0.015625)"/>
      <path id="DejaVuSans-54" d="M -19 4666 
L 3928 4666 
L 3928 4134 
L 2272 4134 
L 2272 0 
L 1638 0 
L 1638 4134 
L -19 4134 
L -19 4666 
z
" transform="scale(0.015625)"/>
     </defs>
     <use xlink:href="#DejaVuSans-4d"/>
     <use xlink:href="#DejaVuSans-44" x="86.279297"/>
     <use xlink:href="#DejaVuSans-4f" x="163.28125"/>
     <use xlink:href="#DejaVuSans-54" x="241.992188"/>
     <use xlink:href="#DejaVuSans-36" x="303.076172"/>
     <use xlink:href="#DejaVuSans-35" x="366.699219"/>
     <use xlink:href="#DejaVuSans-31" x="430.322266"/>
     <use xlink:href="#DejaVuSans-33" x="493.945312"/>
    </g>
   </g>
   <g id="legend_1">
    <g id="patch_7">
     <path d="M 559.04375 80.55625 
L 641 80.55625 
Q 643 80.55625 643 78.55625 
L 643 50.2 
Q 643 48.2 641 48.2 
L 559.04375 48.2 
Q 557.04375 48.2 557.04375 50.2 
L 557.04375 78.55625 
Q 557.04375 80.55625 559.04375 80.55625 
z
" style="fill: #ffffff; opacity: 0.8; stroke: #cccccc; stroke-linejoin: miter"/>
    </g>
    <g id="line2d_13">
     <path d="M 561.04375 56.298437 
L 571.04375 56.298437 
L 581.04375 56.298437 
" style="fill: none; stroke: #1f77b4; stroke-width: 1.5; stroke-linecap: square"/>
    </g>
    <g id="text_13">
     <!-- measured -->
     <g transform="translate(589.04375 59.798437) scale(0.1 -0.1)">
      <defs>
       <path id="DejaVuSans-6d" d="M 3328 2828 
Q 3544 3216 3844 3400 
Q 4144 3584 4550 3584 
Q 5097 3584 5394 3201 
Q 5691 2819 5691 2113 
L 5691 0 
L 5113 0 
L 5113 2094 
Q 5113 2597 4934 2840 
Q 4756 3084 4391 3084 
Q 3944 3084 3684 2787 
Q 3425 2491 3425 1978 
L 3425 0 
L 2847 0 
L 2847 2094 
Q 2847 2600 2669 2842 
Q 2491 3084 2119 3084 
Q 1678 3084 1418 2786 
Q 1159 2488 1159 1978 
L 1159 0 
L 581 0 
L 581 3500 
L 1159 3500 
L 1159 2956 
Q 1356 3278 1631 3431 
Q 1906 3584 2284 3584 
Q 2666 3584 2933 3390 
Q 3200 3197 3328 2828 
z
" transform="scale(0.015625)"/>
       <path id="DejaVuSans-61" d="M 2194 1759 
Q 1497 1759 1228 1600 
Q 959 1441 959 1056 
Q 959 750 1161 570 
Q 1363 391 1709 391 
Q 2188 391 2477 730 
Q 2766 1069 2766 1631 
L 2766 1759 
L 2194 1759 
z
M 3341 1997 
L 3341 0 
L 2766 0 
L 2766 531 
Q 2569 213 2275 61 
Q 1981 -91 1556 -91 
Q 1019 -91 701 211 
Q 384 513 384 1019 
Q 384 1609 779 1909 
Q 1175 2209 1959 2209 
L 2766 2209 
L 2766 2266 
Q 2766 2663 2505 2880 
Q 2244 3097 1772 3097 
Q 1472 3097 1187 3025 
Q 903 2953 641 2809 
L 641 3341 
Q 956 3463 1253 3523 
Q 1550 3584 1831 3584 
Q 2591 3584 2966 3190 
Q 3341 2797 3341 1997 
z
" transform="scale(0.015625)"/>
       <path id="DejaVuSans-75" d="M 544 1381 
L 544 3500 
L 1119 3500 
L 1119 1403 
Q 1119 906 1312 657 
Q 1506 409 1894 409 
Q 2359 409 2629 706 
Q 2900 1003 2900 1516 
L 2900 3500 
L 3475 3500 
L 3475 0 
L 2900 0 
L 2900 538 
Q 2691 219 2414 64 
Q 2138 -91 1772 -91 
Q 1169 -91 856 284 
Q 544 659 544 1381 
z
M 1991 3584 
L 1991 3584 
z
" transform="scale(0.015625)"/>
       <path id="DejaVuSans-64" d="M 2906 2969 
L 2906 4863 
L 3481 4863 
L 3481 0 
L 2906 0 
L 2906 525 
Q 2725 213 2448 61 
Q 2172 -91 1784 -91 
Q 1150 -91 751 415 
Q 353 922 353 1747 
Q 353 2572 751 3078 
Q 1150 3584 1784 3584 
Q 2172 3584 2448 3432 
Q 2725 3281 2906 2969 
z
M 947 1747 
Q 947 1113 1208 752 
Q 1469 391 1925 391 
Q 2381 391 2643 752 
Q 2906 1113 2906 1747 
Q 2906 2381 2643 2742 
Q 2381 3103 1925 3103 
Q 1469 3103 1208 2742 
Q 947 2381 947 1747 
z
" transform="scale(0.015625)"/>
      </defs>
      <use xlink:href="#DejaVuSans-6d"/>
      <use xlink:href="#DejaVuSans-65" x="97.412109"/>
      <use xlink:href="#DejaVuSans-61" x="158.935547"/>
      <use xlink:href="#DejaVuSans-73" x="220.214844"/>
      <use xlink:href="#DejaVuSans-75" x="272.314453"/>
      <use xlink:href="#DejaVuSans-72" x="335.693359"/>
      <use xlink:href="#DejaVuSans-65" x="374.556641"/>
      <use xlink:href="#DejaVuSans-64" x="436.080078"/>
     </g>
    </g>
    <g id="line2d_14">
     <path d="M 561.04375 70.976562 
L 571.04375 70.976562 
L 581.04375 70.976562 
" style="fill: none; stroke: #ff7f0e; stroke-width: 1.5; stroke-linecap: square"/>
    </g>
    <g id="text_14">
     <!-- predicted -->
     <g transform="translate(589.04375 74.476562) scale(0.1 -0.1)">
      <defs>
       <path id="DejaVuSans-70" d="M 1159 525 
L 1159 -1331 
L 581 -1331 
L 581 3500 
L 1159 3500 
L 1159 2969 
Q 1341 3281 1617 3432 
Q 1894 3584 2278 3584 
Q 2916 3584 3314 3078 
Q 3713 2572 3713 1747 
Q 3713 922 3314 415 
Q 2916 -91 2278 -91 
Q 1894 -91 1617 61 
Q 1341 213 1159 525 
z
M 3116 1747 
Q 3116 2381 2855 2742 
Q 2594 3103 2138 3103 
Q 1681 3103 1420 2742 
Q 1159 2381 1159 1747 
Q 1159 1113 1420 752 
Q 1681 391 2138 391 
Q 2594 391 2855 752 
Q 3116 1113 3116 1747 
z
" transform="scale(0.015625)"/>
       <path id="DejaVuSans-69" d="M 603 3500 
L 1178 3500 
L 1178 0 
L 603 0 
L 603 3500 
z
M 603 4863 
L 1178 4863 
L 1178 4134 
L 603 4134 
L 603 4863 
z
" transform="scale(0.015625)"/>
       <path id="DejaVuSans-63" d="M 3122 3366 
L 3122 2828 
Q 2878 2963 2633 3030 
Q 2388 3097 2138 3097 
Q 1578 3097 1268 2742 
Q 959 2388 959 1747 
Q 959 1106 1268 751 
Q 1578 397 2138 397 
Q 2388 397 2633 464 
Q 2878 531 3122 666 
L 3122 134 
Q 2881 22 2623 -34 
Q 2366 -91 2075 -91 
Q 1284 -91 818 406 
Q 353 903 353 1747 
Q 353 2603 823 3093 
Q 1294 3584 2113 3584 
Q 2378 3584 2631 3529 
Q 2884 3475 3122 3366 
z
" transform="scale(0.015625)"/>
      </defs>
      <use xlink:href="#DejaVuSans-70"/>
      <use xlink:href="#DejaVuSans-72" x="63.476562"/>
      <use xlink:href="#DejaVuSans-65" x="102.339844"/>
      <use xlink:href="#DejaVuSans-64" x="163.863281"/>
      <use xlink:href="#DejaVuSans-69" x="227.339844"/>
      <use xlink:href="#DejaVuSans-63" x="255.123047"/>
      <use xlink:href="#DejaVuSans-74" x="310.103516"/>
      <use xlink:href="#DejaVuSans-65" x="349.3125"/>
      <use xlink:href="#DejaVuSans-64" x="410.835938"/>
     </g>
    </g>
   </g>
  </g>
 </g>
 <defs>
  <clipPath id="pdfb804b513">
   <rect x="90" y="43.2" width="558" height="244.8"/>
  </clipPath>
 </defs>
</svg>
