<?xml version="1.0" encoding="utf-8" standalone="no"?>
<!DOCTYPE svg PUBLIC "-//W3C//DTD SVG 1.1//EN"
  "http://www.w3.org/Graphics/SVG/1.1/DTD/svg11.dtd">
<svg xmlns:xlink="http://www.w3.org/1999/xlink" width="720pt" height="360pt" viewBox="0 0 720 360" xmlns="http://www.w3.org/2000/svg" version="1.1">
 <metadata>
  <rdf:RDF xmlns:dc="http://purl.org/dc/elements/1.1/" xmlns:cc="http://creativecommons.org/ns#" xmlns:rdf="http://www.w3.org/1999/02/22-rdf-syntax-ns#">
   <cc:Work>
    <dc:type rdf:resource="http://purl.org/dc/dcmitype/StillImage"/>
    <dc:date>2023-10-23T10:53:32.574146</dc:date>
    <dc:format>image/svg+xml</dc:format>
    <dc:creator>
     <cc:Agent>
      <dc:title>Matplotlib v3.7.1, https://matplotlib.org/</dc:title>
     </cc:Agent>
    </dc:creator>
   </cc:Work>
  </rdf:RDF>
 </metadata>
 <defs>
  <style type="text/css">*{stroke-linejoin: round; stroke-linecap: butt}</style>
 </defs>
 <g id="figure_1">
  <g id="patch_1">
   <path d="M 0 360 
L 720 360 
L 720 0 
L 0 0 
z
" style="fill: #ffffff"/>
  </g>
  <g id="axes_1">
   <g id="patch_2">
    <path d="M 90 288 
L 648 288 
L 648 43.2 
L 90 43.2 
z
" style="fill: #ffffff"/>
   </g>
   <g id="matplotlib.axis_1">
    <g id="xtick_1">
     <g id="line2d_1">
      <defs>
       <path id="m68ac7a459c" d="M 0 0 
L 0 3.5 
" style="stroke: #000000; stroke-width: 0.8"/>
      </defs>
      <g>
       <use xlink:href="#m68ac7a459c" x="149.370747" y="288" style="stroke: #000000; stroke-width: 0.8"/>
      </g>
     </g>
     <g id="text_1">
      <!-- 2023-08-15 -->
      <g transform="translate(87.727405 337.765903) rotate(-30) scale(0.12 -0.12)">
       <defs>
        <path id="DejaVuSans-32" d="M 1228 531 
L 3431 531 
L 3431 0 
L 469 0 
L 469 531 
Q 828 903 1448 1529 
Q 2069 2156 2228 2338 
Q 2531 2678 2651 2914 
Q 2772 3150 2772 3378 
Q 2772 3750 2511 3984 
Q 2250 4219 1831 4219 
Q 1534 4219 1204 4116 
Q 875 4013 500 3803 
L 500 4441 
Q 881 4594 1212 4672 
Q 1544 4750 1819 4750 
Q 2544 4750 2975 4387 
Q 3406 4025 3406 3419 
Q 3406 3131 3298 2873 
Q 3191 2616 2906 2266 
Q 2828 2175 2409 1742 
Q 1991 1309 1228 531 
z
" transform="scale(0.015625)"/>
        <path id="DejaVuSans-30" d="M 2034 4250 
Q 1547 4250 1301 3770 
Q 1056 3291 1056 2328 
Q 1056 1369 1301 889 
Q 1547 409 2034 409 
Q 2525 409 2770 889 
Q 3016 1369 3016 2328 
Q 3016 3291 2770 3770 
Q 2525 4250 2034 4250 
z
M 2034 4750 
Q 2819 4750 3233 4129 
Q 3647 3509 3647 2328 
Q 3647 1150 3233 529 
Q 2819 -91 2034 -91 
Q 1250 -91 836 529 
Q 422 1150 422 2328 
Q 422 3509 836 4129 
Q 1250 4750 2034 4750 
z
" transform="scale(0.015625)"/>
        <path id="DejaVuSans-33" d="M 2597 2516 
Q 3050 2419 3304 2112 
Q 3559 1806 3559 1356 
Q 3559 666 3084 287 
Q 2609 -91 1734 -91 
Q 1441 -91 1130 -33 
Q 819 25 488 141 
L 488 750 
Q 750 597 1062 519 
Q 1375 441 1716 441 
Q 2309 441 2620 675 
Q 2931 909 2931 1356 
Q 2931 1769 2642 2001 
Q 2353 2234 1838 2234 
L 1294 2234 
L 1294 2753 
L 1863 2753 
Q 2328 2753 2575 2939 
Q 2822 3125 2822 3475 
Q 2822 3834 2567 4026 
Q 2313 4219 1838 4219 
Q 1578 4219 1281 4162 
Q 984 4106 628 3988 
L 628 4550 
Q 988 4650 1302 4700 
Q 1616 4750 1894 4750 
Q 2613 4750 3031 4423 
Q 3450 4097 3450 3541 
Q 3450 3153 3228 2886 
Q 3006 2619 2597 2516 
z
" transform="scale(0.015625)"/>
        <path id="DejaVuSans-2d" d="M 313 2009 
L 1997 2009 
L 1997 1497 
L 313 1497 
L 313 2009 
z
" transform="scale(0.015625)"/>
        <path id="DejaVuSans-38" d="M 2034 2216 
Q 1584 2216 1326 1975 
Q 1069 1734 1069 1313 
Q 1069 891 1326 650 
Q 1584 409 2034 409 
Q 2484 409 2743 651 
Q 3003 894 3003 1313 
Q 3003 1734 2745 1975 
Q 2488 2216 2034 2216 
z
M 1403 2484 
Q 997 2584 770 2862 
Q 544 3141 544 3541 
Q 544 4100 942 4425 
Q 1341 4750 2034 4750 
Q 2731 4750 3128 4425 
Q 3525 4100 3525 3541 
Q 3525 3141 3298 2862 
Q 3072 2584 2669 2484 
Q 3125 2378 3379 2068 
Q 3634 1759 3634 1313 
Q 3634 634 3220 271 
Q 2806 -91 2034 -91 
Q 1263 -91 848 271 
Q 434 634 434 1313 
Q 434 1759 690 2068 
Q 947 2378 1403 2484 
z
M 1172 3481 
Q 1172 3119 1398 2916 
Q 1625 2713 2034 2713 
Q 2441 2713 2670 2916 
Q 2900 3119 2900 3481 
Q 2900 3844 2670 4047 
Q 2441 4250 2034 4250 
Q 1625 4250 1398 4047 
Q 1172 3844 1172 3481 
z
" transform="scale(0.015625)"/>
        <path id="DejaVuSans-31" d="M 794 531 
L 1825 531 
L 1825 4091 
L 703 3866 
L 703 4441 
L 1819 4666 
L 2450 4666 
L 2450 531 
L 3481 531 
L 3481 0 
L 794 0 
L 794 531 
z
" transform="scale(0.015625)"/>
        <path id="DejaVuSans-35" d="M 691 4666 
L 3169 4666 
L 3169 4134 
L 1269 4134 
L 1269 2991 
Q 1406 3038 1543 3061 
Q 1681 3084 1819 3084 
Q 2600 3084 3056 2656 
Q 3513 2228 3513 1497 
Q 3513 744 3044 326 
Q 2575 -91 1722 -91 
Q 1428 -91 1123 -41 
Q 819 9 494 109 
L 494 744 
Q 775 591 1075 516 
Q 1375 441 1709 441 
Q 2250 441 2565 725 
Q 2881 1009 2881 1497 
Q 2881 1984 2565 2268 
Q 2250 2553 1709 2553 
Q 1456 2553 1204 2497 
Q 953 2441 691 2322 
L 691 4666 
z
" transform="scale(0.015625)"/>
       </defs>
       <use xlink:href="#DejaVuSans-32"/>
       <use xlink:href="#DejaVuSans-30" x="63.623047"/>
       <use xlink:href="#DejaVuSans-32" x="127.246094"/>
       <use xlink:href="#DejaVuSans-33" x="190.869141"/>
       <use xlink:href="#DejaVuSans-2d" x="254.492188"/>
       <use xlink:href="#DejaVuSans-30" x="290.576172"/>
       <use xlink:href="#DejaVuSans-38" x="354.199219"/>
       <use xlink:href="#DejaVuSans-2d" x="417.822266"/>
       <use xlink:href="#DejaVuSans-31" x="453.90625"/>
       <use xlink:href="#DejaVuSans-35" x="517.529297"/>
      </g>
     </g>
    </g>
    <g id="xtick_2">
     <g id="line2d_2">
      <g>
       <use xlink:href="#m68ac7a459c" x="264.994921" y="288" style="stroke: #000000; stroke-width: 0.8"/>
      </g>
     </g>
     <g id="text_2">
      <!-- 2023-09-01 -->
      <g transform="translate(203.35158 337.765903) rotate(-30) scale(0.12 -0.12)">
       <defs>
        <path id="DejaVuSans-39" d="M 703 97 
L 703 672 
Q 941 559 1184 500 
Q 1428 441 1663 441 
Q 2288 441 2617 861 
Q 2947 1281 2994 2138 
Q 2813 1869 2534 1725 
Q 2256 1581 1919 1581 
Q 1219 1581 811 2004 
Q 403 2428 403 3163 
Q 403 3881 828 4315 
Q 1253 4750 1959 4750 
Q 2769 4750 3195 4129 
Q 3622 3509 3622 2328 
Q 3622 1225 3098 567 
Q 2575 -91 1691 -91 
Q 1453 -91 1209 -44 
Q 966 3 703 97 
z
M 1959 2075 
Q 2384 2075 2632 2365 
Q 2881 2656 2881 3163 
Q 2881 3666 2632 3958 
Q 2384 4250 1959 4250 
Q 1534 4250 1286 3958 
Q 1038 3666 1038 3163 
Q 1038 2656 1286 2365 
Q 1534 2075 1959 2075 
z
" transform="scale(0.015625)"/>
       </defs>
       <use xlink:href="#DejaVuSans-32"/>
       <use xlink:href="#DejaVuSans-30" x="63.623047"/>
       <use xlink:href="#DejaVuSans-32" x="127.246094"/>
       <use xlink:href="#DejaVuSans-33" x="190.869141"/>
       <use xlink:href="#DejaVuSans-2d" x="254.492188"/>
       <use xlink:href="#DejaVuSans-30" x="290.576172"/>
       <use xlink:href="#DejaVuSans-39" x="354.199219"/>
       <use xlink:href="#DejaVuSans-2d" x="417.822266"/>
       <use xlink:href="#DejaVuSans-30" x="453.90625"/>
       <use xlink:href="#DejaVuSans-31" x="517.529297"/>
      </g>
     </g>
    </g>
    <g id="xtick_3">
     <g id="line2d_3">
      <g>
       <use xlink:href="#m68ac7a459c" x="360.21483" y="288" style="stroke: #000000; stroke-width: 0.8"/>
      </g>
     </g>
     <g id="text_3">
      <!-- 2023-09-15 -->
      <g transform="translate(298.571488 337.765903) rotate(-30) scale(0.12 -0.12)">
       <use xlink:href="#DejaVuSans-32"/>
       <use xlink:href="#DejaVuSans-30" x="63.623047"/>
       <use xlink:href="#DejaVuSans-32" x="127.246094"/>
       <use xlink:href="#DejaVuSans-33" x="190.869141"/>
       <use xlink:href="#DejaVuSans-2d" x="254.492188"/>
       <use xlink:href="#DejaVuSans-30" x="290.576172"/>
       <use xlink:href="#DejaVuSans-39" x="354.199219"/>
       <use xlink:href="#DejaVuSans-2d" x="417.822266"/>
       <use xlink:href="#DejaVuSans-31" x="453.90625"/>
       <use xlink:href="#DejaVuSans-35" x="517.529297"/>
      </g>
     </g>
    </g>
    <g id="xtick_4">
     <g id="line2d_4">
      <g>
       <use xlink:href="#m68ac7a459c" x="469.037583" y="288" style="stroke: #000000; stroke-width: 0.8"/>
      </g>
     </g>
     <g id="text_4">
      <!-- 2023-10-01 -->
      <g transform="translate(407.394241 337.765903) rotate(-30) scale(0.12 -0.12)">
       <use xlink:href="#DejaVuSans-32"/>
       <use xlink:href="#DejaVuSans-30" x="63.623047"/>
       <use xlink:href="#DejaVuSans-32" x="127.246094"/>
       <use xlink:href="#DejaVuSans-33" x="190.869141"/>
       <use xlink:href="#DejaVuSans-2d" x="254.492188"/>
       <use xlink:href="#DejaVuSans-31" x="290.576172"/>
       <use xlink:href="#DejaVuSans-30" x="354.199219"/>
       <use xlink:href="#DejaVuSans-2d" x="417.822266"/>
       <use xlink:href="#DejaVuSans-30" x="453.90625"/>
       <use xlink:href="#DejaVuSans-31" x="517.529297"/>
      </g>
     </g>
    </g>
    <g id="xtick_5">
     <g id="line2d_5">
      <g>
       <use xlink:href="#m68ac7a459c" x="564.257491" y="288" style="stroke: #000000; stroke-width: 0.8"/>
      </g>
     </g>
     <g id="text_5">
      <!-- 2023-10-15 -->
      <g transform="translate(502.614149 337.765903) rotate(-30) scale(0.12 -0.12)">
       <use xlink:href="#DejaVuSans-32"/>
       <use xlink:href="#DejaVuSans-30" x="63.623047"/>
       <use xlink:href="#DejaVuSans-32" x="127.246094"/>
       <use xlink:href="#DejaVuSans-33" x="190.869141"/>
       <use xlink:href="#DejaVuSans-2d" x="254.492188"/>
       <use xlink:href="#DejaVuSans-31" x="290.576172"/>
       <use xlink:href="#DejaVuSans-30" x="354.199219"/>
       <use xlink:href="#DejaVuSans-2d" x="417.822266"/>
       <use xlink:href="#DejaVuSans-31" x="453.90625"/>
       <use xlink:href="#DejaVuSans-35" x="517.529297"/>
      </g>
     </g>
    </g>
   </g>
   <g id="matplotlib.axis_2">
    <g id="ytick_1">
     <g id="line2d_6">
      <defs>
       <path id="mfeba1646fc" d="M 0 0 
L -3.5 0 
" style="stroke: #000000; stroke-width: 0.8"/>
      </defs>
      <g>
       <use xlink:href="#mfeba1646fc" x="90" y="268.139104" style="stroke: #000000; stroke-width: 0.8"/>
      </g>
     </g>
     <g id="text_6">
      <!-- 0.25 -->
      <g transform="translate(56.28125 272.698166) scale(0.12 -0.12)">
       <defs>
        <path id="DejaVuSans-2e" d="M 684 794 
L 1344 794 
L 1344 0 
L 684 0 
L 684 794 
z
" transform="scale(0.015625)"/>
       </defs>
       <use xlink:href="#DejaVuSans-30"/>
       <use xlink:href="#DejaVuSans-2e" x="63.623047"/>
       <use xlink:href="#DejaVuSans-32" x="95.410156"/>
       <use xlink:href="#DejaVuSans-35" x="159.033203"/>
      </g>
     </g>
    </g>
    <g id="ytick_2">
     <g id="line2d_7">
      <g>
       <use xlink:href="#mfeba1646fc" x="90" y="234.828683" style="stroke: #000000; stroke-width: 0.8"/>
      </g>
     </g>
     <g id="text_7">
      <!-- 0.50 -->
      <g transform="translate(56.28125 239.387745) scale(0.12 -0.12)">
       <use xlink:href="#DejaVuSans-30"/>
       <use xlink:href="#DejaVuSans-2e" x="63.623047"/>
       <use xlink:href="#DejaVuSans-35" x="95.410156"/>
       <use xlink:href="#DejaVuSans-30" x="159.033203"/>
      </g>
     </g>
    </g>
    <g id="ytick_3">
     <g id="line2d_8">
      <g>
       <use xlink:href="#mfeba1646fc" x="90" y="201.518261" style="stroke: #000000; stroke-width: 0.8"/>
      </g>
     </g>
     <g id="text_8">
      <!-- 0.75 -->
      <g transform="translate(56.28125 206.077324) scale(0.12 -0.12)">
       <defs>
        <path id="DejaVuSans-37" d="M 525 4666 
L 3525 4666 
L 3525 4397 
L 1831 0 
L 1172 0 
L 2766 4134 
L 525 4134 
L 525 4666 
z
" transform="scale(0.015625)"/>
       </defs>
       <use xlink:href="#DejaVuSans-30"/>
       <use xlink:href="#DejaVuSans-2e" x="63.623047"/>
       <use xlink:href="#DejaVuSans-37" x="95.410156"/>
       <use xlink:href="#DejaVuSans-35" x="159.033203"/>
      </g>
     </g>
    </g>
    <g id="ytick_4">
     <g id="line2d_9">
      <g>
       <use xlink:href="#mfeba1646fc" x="90" y="168.20784" style="stroke: #000000; stroke-width: 0.8"/>
      </g>
     </g>
     <g id="text_9">
      <!-- 1.00 -->
      <g transform="translate(56.28125 172.766903) scale(0.12 -0.12)">
       <use xlink:href="#DejaVuSans-31"/>
       <use xlink:href="#DejaVuSans-2e" x="63.623047"/>
       <use xlink:href="#DejaVuSans-30" x="95.410156"/>
       <use xlink:href="#DejaVuSans-30" x="159.033203"/>
      </g>
     </g>
    </g>
    <g id="ytick_5">
     <g id="line2d_10">
      <g>
       <use xlink:href="#mfeba1646fc" x="90" y="134.897419" style="stroke: #000000; stroke-width: 0.8"/>
      </g>
     </g>
     <g id="text_10">
      <!-- 1.25 -->
      <g transform="translate(56.28125 139.456482) scale(0.12 -0.12)">
       <use xlink:href="#DejaVuSans-31"/>
       <use xlink:href="#DejaVuSans-2e" x="63.623047"/>
       <use xlink:href="#DejaVuSans-32" x="95.410156"/>
       <use xlink:href="#DejaVuSans-35" x="159.033203"/>
      </g>
     </g>
    </g>
    <g id="ytick_6">
     <g id="line2d_11">
      <g>
       <use xlink:href="#mfeba1646fc" x="90" y="101.586998" style="stroke: #000000; stroke-width: 0.8"/>
      </g>
     </g>
     <g id="text_11">
      <!-- 1.50 -->
      <g transform="translate(56.28125 106.146061) scale(0.12 -0.12)">
       <use xlink:href="#DejaVuSans-31"/>
       <use xlink:href="#DejaVuSans-2e" x="63.623047"/>
       <use xlink:href="#DejaVuSans-35" x="95.410156"/>
       <use xlink:href="#DejaVuSans-30" x="159.033203"/>
      </g>
     </g>
    </g>
    <g id="ytick_7">
     <g id="line2d_12">
      <g>
       <use xlink:href="#mfeba1646fc" x="90" y="68.276577" style="stroke: #000000; stroke-width: 0.8"/>
      </g>
     </g>
     <g id="text_12">
      <!-- 1.75 -->
      <g transform="translate(56.28125 72.83564) scale(0.12 -0.12)">
       <use xlink:href="#DejaVuSans-31"/>
       <use xlink:href="#DejaVuSans-2e" x="63.623047"/>
       <use xlink:href="#DejaVuSans-37" x="95.410156"/>
       <use xlink:href="#DejaVuSans-35" x="159.033203"/>
      </g>
     </g>
    </g>
    <g id="text_13">
     <!-- Meters -->
     <g transform="translate(50.201562 182.6875) rotate(-90) scale(0.1 -0.1)">
      <defs>
       <path id="DejaVuSans-4d" d="M 628 4666 
L 1569 4666 
L 2759 1491 
L 3956 4666 
L 4897 4666 
L 4897 0 
L 4281 0 
L 4281 4097 
L 3078 897 
L 2444 897 
L 1241 4097 
L 1241 0 
L 628 0 
L 628 4666 
z
" transform="scale(0.015625)"/>
       <path id="DejaVuSans-65" d="M 3597 1894 
L 3597 1613 
L 953 1613 
Q 991 1019 1311 708 
Q 1631 397 2203 397 
Q 2534 397 2845 478 
Q 3156 559 3463 722 
L 3463 178 
Q 3153 47 2828 -22 
Q 2503 -91 2169 -91 
Q 1331 -91 842 396 
Q 353 884 353 1716 
Q 353 2575 817 3079 
Q 1281 3584 2069 3584 
Q 2775 3584 3186 3129 
Q 3597 2675 3597 1894 
z
M 3022 2063 
Q 3016 2534 2758 2815 
Q 2500 3097 2075 3097 
Q 1594 3097 1305 2825 
Q 1016 2553 972 2059 
L 3022 2063 
z
" transform="scale(0.015625)"/>
       <path id="DejaVuSans-74" d="M 1172 4494 
L 1172 3500 
L 2356 3500 
L 2356 3053 
L 1172 3053 
L 1172 1153 
Q 1172 725 1289 603 
Q 1406 481 1766 481 
L 2356 481 
L 2356 0 
L 1766 0 
Q 1100 0 847 248 
Q 594 497 594 1153 
L 594 3053 
L 172 3053 
L 172 3500 
L 594 3500 
L 594 4494 
L 1172 4494 
z
" transform="scale(0.015625)"/>
       <path id="DejaVuSans-72" d="M 2631 2963 
Q 2534 3019 2420 3045 
Q 2306 3072 2169 3072 
Q 1681 3072 1420 2755 
Q 1159 2438 1159 1844 
L 1159 0 
L 581 0 
L 581 3500 
L 1159 3500 
L 1159 2956 
Q 1341 3275 1631 3429 
Q 1922 3584 2338 3584 
Q 2397 3584 2469 3576 
Q 2541 3569 2628 3553 
L 2631 2963 
z
" transform="scale(0.015625)"/>
       <path id="DejaVuSans-73" d="M 2834 3397 
L 2834 2853 
Q 2591 2978 2328 3040 
Q 2066 3103 1784 3103 
Q 1356 3103 1142 2972 
Q 928 2841 928 2578 
Q 928 2378 1081 2264 
Q 1234 2150 1697 2047 
L 1894 2003 
Q 2506 1872 2764 1633 
Q 3022 1394 3022 966 
Q 3022 478 2636 193 
Q 2250 -91 1575 -91 
Q 1294 -91 989 -36 
Q 684 19 347 128 
L 347 722 
Q 666 556 975 473 
Q 1284 391 1588 391 
Q 1994 391 2212 530 
Q 2431 669 2431 922 
Q 2431 1156 2273 1281 
Q 2116 1406 1581 1522 
L 1381 1569 
Q 847 1681 609 1914 
Q 372 2147 372 2553 
Q 372 3047 722 3315 
Q 1072 3584 1716 3584 
Q 2034 3584 2315 3537 
Q 2597 3491 2834 3397 
z
" transform="scale(0.015625)"/>
      </defs>
      <use xlink:href="#DejaVuSans-4d"/>
      <use xlink:href="#DejaVuSans-65" x="86.279297"/>
      <use xlink:href="#DejaVuSans-74" x="147.802734"/>
      <use xlink:href="#DejaVuSans-65" x="187.011719"/>
      <use xlink:href="#DejaVuSans-72" x="248.535156"/>
      <use xlink:href="#DejaVuSans-73" x="289.648438"/>
     </g>
    </g>
   </g>
   <g id="line2d_13">
    <path d="M 115.363636 271.033795 
L 115.647029 270.700776 
L 115.930422 269.679518 
L 116.213814 269.901531 
L 116.497207 269.546311 
L 117.347384 269.435304 
L 117.630777 268.946877 
L 117.91417 269.302097 
L 118.480955 270.41216 
L 119.04774 273.609142 
L 119.331133 274.053167 
L 119.614525 272.632286 
L 119.897918 272.476877 
L 120.18131 272.587884 
L 120.464703 273.542538 
L 120.748095 269.857128 
L 121.031488 269.968135 
L 121.314881 271.433418 
L 121.881666 271.588827 
L 122.165058 270.878386 
L 122.448451 270.789581 
L 122.731844 252.451339 
L 123.015236 270.545367 
L 123.298629 270.478764 
L 123.582021 270.123543 
L 123.865414 270.545367 
L 124.148807 270.611971 
L 124.432199 270.323355 
L 124.998984 270.789581 
L 125.282377 271.677632 
L 125.849162 275.895872 
L 126.132555 276.872727 
L 126.415947 276.806123 
L 126.69934 275.585054 
L 127.266125 274.785809 
L 127.549518 273.431532 
L 127.83291 273.431532 
L 128.116303 270.878386 
L 128.399695 271.366814 
L 128.683088 271.455619 
L 129.249873 270.41216 
L 129.533266 267.548197 
L 129.816658 258.445679 
L 130.100051 257.646434 
L 130.383443 257.690837 
L 130.666836 256.358761 
L 130.950229 256.247754 
L 131.233621 255.381905 
L 131.517014 254.893477 
L 131.800406 254.76027 
L 132.083799 254.982283 
L 132.367191 255.914736 
L 132.650584 257.357818 
L 133.217369 257.668635 
L 133.500762 256.403163 
L 134.067547 251.962911 
L 134.35094 251.874106 
L 134.634332 252.073917 
L 134.917725 251.962911 
L 135.201117 252.340332 
L 135.48451 251.541087 
L 136.051295 249.032344 
L 136.334688 239.99643 
L 136.61808 248.166495 
L 136.901473 247.589262 
L 137.468258 247.078633 
L 137.751651 248.144294 
L 138.035043 246.656809 
L 138.318436 246.723413 
L 138.601828 246.923224 
L 138.885221 247.700268 
L 139.452006 250.342219 
L 140.018791 249.875992 
L 140.585576 250.342219 
L 140.868969 249.920395 
L 141.152362 248.61052 
L 141.435754 249.387564 
L 141.719147 249.098948 
L 142.002539 248.122092 
L 142.285932 247.655866 
L 142.569325 246.901023 
L 142.852717 246.790017 
L 143.13611 246.434796 
L 143.419502 246.923224 
L 143.702895 246.279388 
L 144.553073 246.479199 
L 144.836465 246.834419 
L 145.119858 246.568004 
L 145.40325 246.878822 
L 145.686643 246.923224 
L 145.970036 247.855677 
L 146.253428 248.122092 
L 146.536821 248.699325 
L 146.820213 249.587376 
L 147.103606 249.431967 
L 147.386998 250.120206 
L 147.670391 249.676181 
L 147.953784 249.787187 
L 148.237176 249.320961 
L 148.803961 250.342219 
L 149.087354 248.899137 
L 149.370747 248.477313 
L 149.654139 239.4636 
L 149.937532 247.766872 
L 150.220924 247.966684 
L 150.504317 247.36725 
L 150.787709 247.234042 
L 151.071102 247.322847 
L 151.354495 245.147123 
L 151.92128 242.371965 
L 152.204672 239.530204 
L 152.488065 239.952028 
L 152.771458 238.819763 
L 153.05485 238.730958 
L 153.338243 233.358253 
L 153.905028 228.451774 
L 154.188421 227.918944 
L 154.471813 227.053094 
L 154.755206 227.696931 
L 155.038598 227.941145 
L 155.321991 227.608126 
L 155.605383 226.808881 
L 155.888776 226.675673 
L 156.172169 225.121585 
L 156.455561 225.232591 
L 156.738954 225.876427 
L 157.022346 225.476805 
L 157.305739 225.343597 
L 157.589132 224.122528 
L 157.872524 224.988377 
L 158.439309 224.255735 
L 158.722702 224.544352 
L 159.006094 223.589697 
L 159.289487 223.722905 
L 159.856272 228.185359 
L 160.139665 228.496176 
L 160.423057 229.894856 
L 160.70645 228.496176 
L 161.273235 214.30957 
L 161.556628 212.533469 
L 161.84002 212.644475 
L 162.123413 212.55567 
L 162.406805 212.333657 
L 162.690198 211.068185 
L 162.973591 211.15699 
L 163.256983 210.26894 
L 163.540376 210.180135 
L 163.823768 209.958122 
L 164.107161 209.980324 
L 164.390554 209.5585 
L 164.673946 210.712965 
L 164.957339 211.045984 
L 165.240731 210.80177 
L 165.524124 211.068185 
L 165.807517 211.534412 
L 166.090909 211.623217 
L 166.657694 215.55284 
L 166.941087 216.551897 
L 167.224479 213.95435 
L 167.507872 207.871204 
L 167.791265 205.628876 
L 168.074657 202.320888 
L 168.35805 202.032272 
L 168.641442 202.498498 
L 168.924835 202.498498 
L 169.208228 203.23114 
L 169.49162 202.476297 
L 169.775013 203.830574 
L 170.058405 202.898121 
L 170.341798 203.430951 
L 170.62519 204.474411 
L 170.908583 204.163593 
L 171.191976 204.11919 
L 171.475368 204.452209 
L 171.758761 204.585417 
L 172.042153 203.830574 
L 172.608939 205.673279 
L 172.892331 204.718624 
L 173.459116 208.781455 
L 173.742509 210.180135 
L 174.025901 209.602902 
L 174.309294 210.113531 
L 174.592687 209.358688 
L 174.876079 209.802713 
L 175.442864 209.070072 
L 175.726257 210.113531 
L 176.00965 210.62416 
L 176.293042 209.980324 
L 176.576435 210.180135 
L 176.859827 138.51446 
L 177.14322 209.602902 
L 177.426612 209.469695 
L 177.710005 209.158877 
L 177.993398 209.491896 
L 178.27679 210.202336 
L 178.560183 210.335544 
L 178.843575 210.62416 
L 179.126968 211.734223 
L 179.410361 211.001582 
L 179.977146 212.577871 
L 180.827324 218.128187 
L 181.110716 218.572212 
L 181.394109 217.217935 
L 181.960894 216.440891 
L 182.244286 217.12913 
L 182.527679 216.796111 
L 182.811072 216.796111 
L 183.094464 216.063469 
L 183.377857 216.440891 
L 183.661249 216.063469 
L 183.944642 216.130073 
L 184.228035 215.131016 
L 184.511427 214.909004 
L 185.078212 215.686048 
L 185.361605 215.797054 
L 185.644997 216.5963 
L 186.211783 216.574099 
L 186.495175 216.973721 
L 186.778568 217.950577 
L 187.345353 222.723848 
L 187.628746 222.701647 
L 187.912138 221.924603 
L 188.195531 221.680389 
L 188.478923 221.591584 
L 188.762316 221.746993 
L 189.329101 221.746993 
L 189.895886 221.769194 
L 190.179279 221.391772 
L 190.462671 220.592527 
L 190.746064 220.237307 
L 191.029457 220.215106 
L 191.312849 219.571269 
L 191.596242 219.682275 
L 192.163027 221.635986 
L 192.44642 222.168817 
L 193.013205 221.769194 
L 193.296597 222.990263 
L 193.57999 223.367685 
L 194.146775 225.010578 
L 194.430168 225.321396 
L 194.71356 225.21039 
L 195.280345 225.587811 
L 195.563738 225.854226 
L 195.847131 225.432402 
L 196.130523 226.054038 
L 196.413916 226.187245 
L 196.980701 225.787622 
L 197.264093 226.054038 
L 197.547486 226.520264 
L 197.830879 226.63127 
L 198.114271 226.45366 
L 198.397664 226.786679 
L 198.681056 227.874541 
L 198.964449 226.764478 
L 199.531234 227.474918 
L 199.814627 227.075296 
L 200.098019 227.31951 
L 200.664804 228.851397 
L 200.948197 228.784793 
L 201.23159 233.935486 
L 201.514982 244.21467 
L 201.798375 247.611463 
L 202.36516 249.542973 
L 202.648553 249.964797 
L 202.931945 250.053602 
L 203.782123 249.920395 
L 204.065515 247.500457 
L 204.348908 247.655866 
L 204.632301 247.522658 
L 204.915693 247.256243 
L 205.199086 246.67901 
L 205.482478 246.434796 
L 206.049264 246.656809 
L 206.332656 246.390394 
L 206.616049 246.834419 
L 207.182834 245.724356 
L 207.466227 246.079576 
L 207.749619 245.480142 
L 208.033012 245.857564 
L 208.316404 245.502343 
L 208.599797 245.346935 
L 208.883189 245.96857 
L 209.166582 245.524545 
L 209.449975 245.546746 
L 209.733367 245.79096 
L 210.01676 245.568947 
L 210.583545 243.881651 
L 210.866938 243.792846 
L 211.433723 242.682783 
L 211.717115 242.749387 
L 212.000508 241.03989 
L 212.2839 233.424857 
L 212.567293 221.769194 
L 212.850686 217.950577 
L 213.134078 216.618501 
L 213.417471 215.908061 
L 214.267649 211.023783 
L 214.834434 209.869317 
L 215.117826 209.802713 
L 215.684611 208.248625 
L 215.968004 207.382776 
L 216.251397 207.205166 
L 216.818182 204.008184 
L 217.101574 204.319002 
L 217.66836 201.610448 
L 218.235145 191.420068 
L 218.518537 190.243401 
L 218.80193 189.621766 
L 219.085322 188.045476 
L 219.368715 187.446042 
L 220.218893 184.426671 
L 220.502285 183.89384 
L 221.069071 173.548052 
L 221.352463 173.481448 
L 221.635856 172.016165 
L 221.919248 171.705347 
L 222.202641 172.304781 
L 222.486034 171.483335 
L 222.769426 171.105913 
L 223.052819 171.194718 
L 223.336211 170.972706 
L 223.619604 170.950504 
L 223.902996 169.041196 
L 224.186389 169.64063 
L 224.469782 169.218806 
L 224.753174 168.175346 
L 225.036567 167.88673 
L 225.319959 167.975535 
L 225.886745 167.775724 
L 226.45353 166.932076 
L 226.736922 166.909874 
L 227.020315 167.043082 
L 227.303707 166.31044 
L 227.5871 164.956163 
L 227.870493 160.205093 
L 228.153885 160.116288 
L 228.437278 160.715722 
L 228.72067 160.693521 
L 229.004063 160.804527 
L 229.287456 161.315156 
L 230.137633 161.670377 
L 230.421026 162.025597 
L 230.704418 161.581572 
L 230.987811 161.781383 
L 231.271204 161.270754 
L 231.554596 161.181949 
L 231.837989 162.536226 
L 232.121381 161.73698 
L 232.404774 161.692578 
L 232.688167 162.247609 
L 232.971559 162.247609 
L 233.254952 162.713836 
L 233.538344 162.847043 
L 234.10513 163.557484 
L 234.388522 163.424276 
L 234.955307 164.334528 
L 235.2387 165.444591 
L 235.522092 165.266981 
L 235.805485 164.378931 
L 236.088878 165.000566 
L 236.655663 164.71195 
L 236.939055 165.355786 
L 237.222448 165.444591 
L 237.505841 164.645346 
L 237.789233 164.71195 
L 238.072626 165.178176 
L 238.356018 164.512138 
L 238.639411 164.179119 
L 239.206196 165.799811 
L 239.489589 165.644403 
L 239.772981 165.844214 
L 240.056374 166.599057 
L 240.623159 166.177233 
L 240.906552 166.066227 
L 241.189944 166.199434 
L 241.473337 168.730378 
L 241.756729 169.99585 
L 242.040122 169.796039 
L 242.323514 168.930189 
L 242.606907 168.619372 
L 242.8903 168.796982 
L 243.173692 169.196605 
L 243.457085 169.352013 
L 243.740477 169.773837 
L 244.02387 170.839498 
L 244.307263 169.796039 
L 245.15744 168.352957 
L 245.440833 168.863586 
L 246.007618 169.041196 
L 246.291011 169.773837 
L 246.574403 169.81824 
L 246.857796 169.063397 
L 247.141188 170.129058 
L 247.424581 169.418617 
L 247.707974 169.574026 
L 247.991366 169.418617 
L 248.274759 170.817297 
L 248.558151 173.081825 
L 248.841544 173.703461 
L 249.124937 173.68126 
L 249.408329 173.192832 
L 249.691722 173.015222 
L 249.975114 173.192832 
L 250.541899 172.660001 
L 250.825292 171.92736 
L 251.108685 171.882957 
L 251.392077 171.993964 
L 251.67547 170.240064 
L 251.958862 169.99585 
L 252.242255 170.106856 
L 252.525648 169.951447 
L 253.092433 170.573083 
L 253.375825 170.861699 
L 253.659218 170.795095 
L 253.94261 170.972706 
L 254.226003 171.838555 
L 254.792788 171.860756 
L 255.076181 172.571196 
L 255.359573 172.704404 
L 255.926359 174.080882 
L 256.493144 174.147486 
L 256.776536 174.502706 
L 257.059929 174.325096 
L 257.626714 175.501763 
L 257.910107 174.991134 
L 258.193499 174.92453 
L 258.476892 175.213147 
L 259.043677 175.168744 
L 259.32707 175.812581 
L 259.610462 175.10214 
L 260.177247 175.657172 
L 260.744033 176.811638 
L 261.027425 176.967046 
L 261.310818 176.412015 
L 261.59421 177.499877 
L 261.877603 179.031764 
L 262.160995 179.32038 
L 262.444388 180.741261 
L 262.727781 180.341638 
L 263.011173 179.453588 
L 263.294566 179.720003 
L 263.577958 180.230632 
L 263.861351 179.919814 
L 264.428136 180.985475 
L 264.711529 180.741261 
L 264.994921 180.652456 
L 265.278314 180.852267 
L 265.845099 180.830066 
L 266.128492 180.497047 
L 266.411884 180.941072 
L 266.695277 181.851324 
L 266.978669 181.496104 
L 267.262062 182.273148 
L 267.545455 181.584909 
L 267.828847 182.184343 
L 268.395632 181.562708 
L 268.962417 185.536734 
L 269.24581 186.047363 
L 269.812595 185.314721 
L 270.37938 186.646797 
L 270.662773 186.713401 
L 270.946166 187.468243 
L 271.512951 187.446042 
L 272.363128 185.891954 
L 272.646521 186.335979 
L 272.929914 186.557992 
L 273.213306 187.090822 
L 273.496699 186.957614 
L 273.780091 187.268432 
L 274.063484 187.113023 
L 274.346877 188.045476 
L 274.630269 185.936356 
L 274.913662 188.667112 
L 275.197054 188.578307 
L 275.480447 191.686483 
L 275.76384 192.108307 
L 276.047232 193.085163 
L 276.330625 192.241515 
L 276.614017 193.418182 
L 276.89741 193.129565 
L 277.180802 193.284974 
L 277.464195 193.129565 
L 277.747588 193.262773 
L 278.314373 192.929754 
L 278.881158 193.706798 
L 279.164551 193.307176 
L 279.731336 193.595792 
L 280.014728 193.329377 
L 280.581513 193.617993 
L 280.864906 194.284031 
L 281.148299 194.572647 
L 281.431691 194.639251 
L 281.715084 194.395037 
L 281.998476 195.216484 
L 282.848654 200.011957 
L 283.132047 199.54573 
L 283.415439 185.314721 
L 283.698832 199.0129 
L 283.982224 199.701139 
L 284.265617 199.345919 
L 284.54901 200.478183 
L 284.832402 199.257114 
L 285.115795 200.056359 
L 285.399187 199.456925 
L 285.68258 163.180062 
L 285.965973 198.457868 
L 286.249365 198.901894 
L 286.81615 199.36812 
L 287.382936 200.145164 
L 287.666328 199.90095 
L 288.233113 200.633592 
L 288.516506 200.7668 
L 288.799898 201.033215 
L 289.366684 205.628876 
L 289.650076 205.806486 
L 289.933469 202.720511 
L 290.216861 210.80177 
L 290.500254 210.868374 
L 290.783647 212.02284 
L 291.067039 212.289255 
L 291.350432 211.978437 
L 291.633824 212.355859 
L 291.917217 212.222651 
L 292.200609 211.623217 
L 292.484002 208.936864 
L 292.767395 210.202336 
L 293.050787 209.580701 
L 293.33418 209.758311 
L 293.617572 209.691707 
L 294.184358 210.135732 
L 294.46775 176.67843 
L 294.751143 210.313343 
L 295.034535 211.134789 
L 295.317928 210.690764 
L 295.60132 210.601959 
L 296.168106 215.908061 
L 296.734891 215.108815 
L 297.018283 214.864601 
L 297.301676 214.398375 
L 297.585069 214.753595 
L 297.868461 214.331771 
L 298.151854 214.709192 
L 298.435246 214.797998 
L 298.718639 214.331771 
L 299.002031 214.731394 
L 299.285424 212.045041 
L 299.568817 183.472016 
L 299.852209 211.956236 
L 300.135602 211.756425 
L 300.418994 211.356802 
L 300.702387 211.601016 
L 300.98578 212.178249 
L 301.269172 212.111645 
L 301.552565 211.84523 
L 301.835957 212.600073 
L 302.11935 212.156047 
L 302.402743 212.311456 
L 302.686135 213.377117 
L 303.536313 214.398375 
L 303.819705 213.199507 
L 304.103098 213.909947 
L 304.386491 213.865545 
L 304.669883 214.442777 
L 304.953276 214.509381 
L 305.236668 214.731394 
L 305.520061 214.464979 
L 305.803454 213.909947 
L 306.086846 213.621331 
L 306.653631 214.353972 
L 306.937024 214.13196 
L 307.220416 213.243909 
L 307.503809 213.110702 
L 307.787202 213.821142 
L 308.070594 213.443721 
L 308.353987 213.576928 
L 308.637379 121.996721 
L 308.920772 213.288312 
L 309.487557 214.8424 
L 309.77095 214.864601 
L 310.054342 214.553784 
L 310.337735 215.663847 
L 310.90452 216.396488 
L 311.471305 215.996866 
L 311.754698 215.419633 
L 312.321483 215.708249 
L 312.604876 215.264224 
L 312.888268 215.974664 
L 313.171661 215.974664 
L 313.455053 216.440891 
L 313.738446 216.352086 
L 314.021838 216.707306 
L 314.305231 217.284539 
L 314.588624 217.217935 
L 315.155409 217.462149 
L 315.438801 217.12913 
L 316.005587 218.372401 
L 316.288979 217.906174 
L 316.572372 219.371458 
L 316.855764 222.510716 
L 317.139157 223.145672 
L 318.272727 224.300138 
L 318.839512 223.98932 
L 319.122905 224.211333 
L 319.406298 224.189132 
L 319.68969 223.27888 
L 319.973083 224.100326 
L 320.539868 223.567496 
L 321.390046 224.033723 
L 321.673438 223.45649 
L 321.956831 224.477748 
L 322.523616 224.122528 
L 322.807009 224.499949 
L 323.373794 227.386113 
L 323.657186 226.764478 
L 323.940579 227.119698 
L 324.223972 226.542465 
L 324.507364 227.030893 
L 324.790757 226.831082 
L 325.074149 226.165044 
L 325.357542 226.009635 
L 325.924327 226.031836 
L 326.20772 225.365798 
L 326.491112 142.799303 
L 326.774505 225.432402 
L 327.057897 225.610012 
L 327.34129 225.632214 
L 327.624683 225.876427 
L 327.908075 226.498063 
L 328.191468 226.320453 
L 329.041646 226.387057 
L 329.325038 225.92083 
L 329.891823 227.141899 
L 330.458608 230.072466 
L 331.025394 229.628441 
L 331.308786 232.803221 
L 331.592179 233.025234 
L 331.875571 233.558064 
L 332.442357 233.447058 
L 332.725749 233.757876 
L 333.009142 233.114039 
L 333.292534 231.981775 
L 333.575927 232.048378 
L 333.859319 231.781963 
L 334.426105 232.492404 
L 334.709497 232.581209 
L 334.99289 231.582152 
L 335.276282 232.181586 
L 335.559675 193.817805 
L 335.843068 231.559951 
L 336.693245 232.736618 
L 337.26003 234.734731 
L 337.543423 234.135297 
L 337.826816 234.978945 
L 338.110208 234.53492 
L 338.676993 233.269448 
L 338.960386 233.824479 
L 339.527171 232.4258 
L 339.810564 232.359196 
L 343.211275 224.966176 
L 343.494667 224.633157 
L 343.77806 224.477748 
L 344.061453 223.389886 
L 344.344845 221.302967 
L 344.628238 220.81454 
L 344.91163 220.947747 
L 345.195023 220.703533 
L 345.478415 221.080955 
L 345.761808 220.99215 
L 346.045201 219.549068 
L 346.328593 219.149445 
L 346.611986 54.327273 
L 346.895378 216.685105 
L 347.178771 201.521643 
L 347.462164 217.972778 
L 347.745556 217.795168 
L 348.312341 218.772024 
L 348.595734 218.261394 
L 348.879126 218.949634 
L 349.162519 218.394602 
L 349.445912 218.505608 
L 350.012697 217.66196 
L 350.579482 221.214162 
L 350.862875 219.904288 
L 351.146267 220.192904 
L 351.42966 220.659131 
L 351.713052 220.037495 
L 351.996445 220.326112 
L 352.279837 220.259508 
L 352.56323 219.793282 
L 352.846623 220.237307 
L 353.130015 219.926489 
L 353.413408 210.957179 
L 353.6968 176.167801 
L 353.980193 209.247682 
L 354.263586 218.905231 
L 354.546978 219.038439 
L 354.830371 217.750765 
L 355.113763 218.949634 
L 355.680549 219.682275 
L 355.963941 219.23825 
L 356.530726 219.41586 
L 356.814119 218.772024 
L 357.380904 224.855169 
L 358.514474 222.413031 
L 358.797867 223.323282 
L 359.08126 222.901458 
L 359.364652 223.944918 
L 359.931437 223.700704 
L 360.21483 120.842255 
L 360.498222 221.280766 
L 360.781615 222.413031 
L 361.065008 222.23542 
L 361.3484 222.857056 
L 361.631793 222.368628 
L 361.915185 223.767308 
L 362.198578 222.812653 
L 362.481971 223.967119 
L 362.765363 223.567496 
L 363.332148 224.16693 
L 363.615541 223.656301 
L 364.182326 230.13907 
L 364.749111 237.465486 
L 365.032504 238.819763 
L 365.315896 238.775361 
L 365.599289 238.420141 
L 365.882682 238.375738 
L 366.166074 238.109323 
L 366.449467 238.042719 
L 366.732859 237.35448 
L 367.016252 225.010578 
L 367.299644 236.000203 
L 367.583037 235.467373 
L 367.86643 235.178756 
L 368.149822 235.578379 
L 368.433215 235.489574 
L 368.716607 235.112153 
L 369 235.578379 
L 369.283393 234.690329 
L 369.566785 235.334165 
L 370.13357 235.533977 
L 370.416963 235.023348 
L 370.700356 236.599637 
L 370.983748 239.330393 
L 371.267141 239.041776 
L 371.550533 238.286933 
L 371.833926 239.041776 
L 372.400711 238.397939 
L 372.684104 238.531147 
L 372.967496 237.643097 
L 373.250889 237.554292 
L 373.534281 236.99926 
L 373.817674 200.455982 
L 374.101067 235.445172 
L 374.384459 235.06775 
L 374.667852 234.912341 
L 374.951244 235.311964 
L 375.234637 188.11208 
L 375.518029 235.400769 
L 375.801422 235.556178 
L 376.084815 235.578379 
L 376.368207 232.670014 
L 376.6516 165.866415 
L 376.934992 236.133411 
L 377.218385 235.511775 
L 377.501778 235.667184 
L 378.068563 237.976116 
L 378.351955 237.820707 
L 378.635348 237.310078 
L 378.91874 237.842908 
L 379.202133 237.110266 
L 379.485526 237.643097 
L 379.768918 237.154669 
L 380.052311 236.200015 
L 380.335703 236.555235 
L 380.619096 236.621838 
L 380.902489 235.533977 
L 381.185881 150.591947 
L 381.469274 235.844794 
L 381.752666 235.045549 
L 382.319451 235.533977 
L 382.602844 235.556178 
L 382.886237 235.911398 
L 383.169629 236.066807 
L 383.453022 235.955801 
L 383.736414 236.910455 
L 384.019807 237.265675 
L 384.3032 236.866052 
L 384.586592 238.042719 
L 384.869985 238.508946 
L 385.43677 237.776304 
L 386.003555 239.352594 
L 386.286948 238.642153 
L 386.57034 238.93077 
L 386.853733 239.530204 
L 387.137125 238.353537 
L 387.420518 208.87026 
L 387.703911 230.982718 
L 387.987303 236.977059 
L 388.270696 236.888254 
L 388.554088 236.444228 
L 388.837481 237.376681 
L 389.120874 236.866052 
L 389.687659 237.554292 
L 389.971051 237.154669 
L 390.254444 238.286933 
L 390.821229 237.620895 
L 391.388014 242.349764 
L 391.671407 242.194355 
L 391.954799 241.150896 
L 392.238192 241.417311 
L 392.521585 240.773475 
L 392.804977 241.328506 
L 393.08837 241.506116 
L 393.655155 239.974229 
L 393.938547 239.907625 
L 394.22194 180.630255 
L 394.505333 238.797562 
L 394.788725 238.420141 
L 395.072118 238.553348 
L 395.35551 238.420141 
L 395.638903 238.508946 
L 396.489081 238.420141 
L 397.055866 239.10838 
L 397.339259 239.019575 
L 397.622651 238.57555 
L 397.906044 239.308191 
L 398.472829 242.327563 
L 399.039614 242.083349 
L 399.323007 242.127752 
L 399.606399 242.860393 
L 399.889792 241.905739 
L 400.456577 242.349764 
L 400.73997 242.10555 
L 401.023362 215.131016 
L 401.306755 240.817877 
L 401.590147 239.81882 
L 401.87354 240.418254 
L 402.440325 239.552405 
L 403.00711 240.329449 
L 403.290503 240.129638 
L 403.573895 240.240644 
L 403.857288 240.085235 
L 404.140681 234.135297 
L 404.424073 240.751273 
L 404.990858 244.03706 
L 405.274251 244.014859 
L 405.557643 243.85945 
L 405.841036 245.036117 
L 406.124429 245.546746 
L 406.407821 245.546746 
L 406.691214 244.814104 
L 407.257999 245.013916 
L 407.824784 242.260959 
L 408.108177 241.905739 
L 408.391569 241.239701 
L 408.674962 241.550519 
L 409.241747 241.106494 
L 409.52514 241.772531 
L 410.091925 241.617123 
L 410.65871 241.816934 
L 410.942103 242.460771 
L 411.225495 242.149953 
L 411.508888 242.149953 
L 412.075673 246.012973 
L 412.359066 244.902909 
L 412.642458 245.124922 
L 412.925851 245.502343 
L 413.209243 244.325677 
L 413.492636 244.014859 
L 414.059421 244.436683 
L 414.342814 244.059261 
L 414.626206 187.090822 
L 414.909599 243.393224 
L 415.192991 243.68184 
L 415.476384 243.171211 
L 415.759777 243.570834 
L 416.043169 243.060205 
L 416.326562 243.815048 
L 416.893347 243.903853 
L 417.176739 243.237815 
L 418.026917 244.125865 
L 418.31031 245.235928 
L 418.593702 246.967627 
L 419.160488 245.79096 
L 419.44388 246.767815 
L 419.727273 246.745614 
L 420.010665 246.057375 
L 420.294058 245.990771 
L 420.57745 246.057375 
L 421.144236 247.456055 
L 421.711021 244.281274 
L 421.994413 245.346935 
L 422.277806 244.791903 
L 422.844591 245.924167 
L 423.127984 245.879765 
L 423.411376 245.657752 
L 424.261554 245.835362 
L 424.544947 246.301589 
L 424.828339 245.990771 
L 425.111732 248.055489 
L 425.395124 248.410709 
L 425.678517 248.2553 
L 425.96191 247.589262 
L 426.245302 248.07769 
L 427.09548 247.411652 
L 427.378873 247.988885 
L 428.22905 247.078633 
L 428.512443 246.945426 
L 428.795835 246.590205 
L 429.079228 247.145237 
L 429.362621 246.967627 
L 429.646013 247.300646 
L 429.929406 246.834419 
L 430.496191 247.655866 
L 430.779584 247.633665 
L 431.062976 247.766872 
L 431.346369 247.078633 
L 431.629761 247.167438 
L 431.913154 246.945426 
L 432.196546 247.411652 
L 432.479939 248.2553 
L 433.046724 247.678067 
L 433.330117 247.678067 
L 433.613509 248.344105 
L 433.896902 248.344105 
L 434.180295 248.588319 
L 434.74708 247.611463 
L 435.030472 236.022404 
L 435.313865 247.700268 
L 435.597257 247.700268 
L 436.447435 248.499514 
L 436.730828 248.122092 
L 437.01422 248.188696 
L 437.297613 248.455111 
L 437.581006 248.543916 
L 437.864398 248.188696 
L 438.431183 247.966684 
L 438.714576 248.166495 
L 438.997969 248.033287 
L 439.281361 248.07769 
L 440.414931 249.209954 
L 440.698324 249.720583 
L 440.981717 249.676181 
L 441.265109 249.986998 
L 441.548502 248.921338 
L 441.831894 248.632721 
L 442.39868 248.96574 
L 442.682072 248.876935 
L 442.965465 248.921338 
L 443.53225 249.565174 
L 443.815642 249.232156 
L 444.099035 249.65398 
L 444.382428 249.209954 
L 444.949213 250.120206 
L 445.232605 250.408822 
L 445.515998 249.431967 
L 445.799391 249.898193 
L 446.082783 249.720583 
L 446.366176 249.875992 
L 446.932961 250.741841 
L 447.216353 249.83159 
L 447.499746 250.54203 
L 447.783139 249.83159 
L 448.066531 249.920395 
L 449.200102 247.678067 
L 449.483494 247.278444 
L 449.766887 245.280331 
L 450.050279 245.102721 
L 450.333672 244.525488 
L 450.617064 243.260016 
L 450.900457 242.949198 
L 451.18385 242.860393 
L 451.467242 242.371965 
L 451.750635 242.616179 
L 452.31742 242.371965 
L 452.600813 242.505173 
L 452.884205 242.394167 
L 453.167598 242.10555 
L 453.45099 242.438569 
L 453.734383 242.28316 
L 454.301168 241.57272 
L 454.584561 241.683726 
L 455.151346 241.150896 
L 455.434738 241.728129 
L 456.001524 241.306305 
L 456.568309 240.773475 
L 456.851701 240.662468 
L 457.135094 240.751273 
L 457.418487 241.017688 
L 457.701879 241.594921 
L 457.985272 241.350707 
L 458.268664 241.350707 
L 458.552057 242.194355 
L 458.835449 241.639324 
L 459.118842 241.75033 
L 459.685627 243.215613 
L 459.96902 243.038003 
L 460.252412 243.237815 
L 460.819198 243.770645 
L 461.10259 244.059261 
L 461.385983 243.082406 
L 461.669375 243.50423 
L 461.952768 242.482972 
L 462.23616 243.082406 
L 462.519553 242.593978 
L 462.802946 243.14901 
L 463.653123 242.593978 
L 463.936516 243.126808 
L 464.219909 243.038003 
L 464.503301 243.482029 
L 464.786694 243.304418 
L 465.070086 243.659639 
L 465.353479 243.637437 
L 465.636872 244.458884 
L 465.920264 246.745614 
L 466.203657 247.611463 
L 466.487049 246.901023 
L 466.770442 245.768759 
L 467.053834 246.434796 
L 467.337227 247.411652 
L 467.62062 247.145237 
L 467.904012 247.922281 
L 468.470797 247.456055 
L 468.75419 246.168381 
L 469.320975 245.43574 
L 469.604368 244.902909 
L 469.88776 244.658695 
L 470.171153 245.169325 
L 470.454545 245.280331 
L 471.021331 244.925111 
L 471.304723 245.61335 
L 471.588116 245.102721 
L 471.871508 245.946369 
L 472.154901 246.101778 
L 472.438294 246.479199 
L 472.721686 247.522658 
L 473.005079 249.054545 
L 473.288471 249.143351 
L 473.571864 248.854734 
L 474.138649 249.853791 
L 474.422042 248.854734 
L 474.705434 249.698382 
L 474.988827 250.142407 
L 475.272219 249.787187 
L 475.839005 247.500457 
L 476.40579 246.812218 
L 476.689182 246.5014 
L 477.255967 247.300646 
L 477.53936 247.322847 
L 477.822753 247.078633 
L 478.106145 247.256243 
L 478.389538 246.967627 
L 478.956323 248.410709 
L 479.239716 247.611463 
L 479.806501 252.251527 
L 480.089893 252.251527 
L 480.373286 251.052659 
L 480.656679 251.141464 
L 480.940071 252.961968 
L 481.223464 252.362534 
L 481.790249 252.429137 
L 482.073641 251.785301 
L 482.640427 248.899137 
L 482.923819 248.188696 
L 483.207212 248.61052 
L 483.490604 248.099891 
L 483.773997 248.299703 
L 484.340782 248.166495 
L 484.624175 248.921338 
L 484.907567 248.654923 
L 485.19096 248.810332 
L 485.474352 248.588319 
L 486.041138 249.165552 
L 486.32453 250.986055 
L 486.607923 253.561402 
L 487.174708 250.408822 
L 487.741493 252.961968 
L 488.308278 252.540144 
L 488.591671 252.207125 
L 488.875063 253.18398 
L 489.158456 251.141464 
L 489.441849 250.608634 
L 489.725241 250.36442 
L 490.292026 248.721527 
L 490.575419 248.743728 
L 490.858812 249.054545 
L 491.142204 249.65398 
L 491.425597 249.498571 
L 491.992382 249.83159 
L 492.275775 249.165552 
L 492.559167 249.343162 
L 492.84256 249.098948 
L 493.409345 253.250584 
L 493.97613 251.94071 
L 494.259523 252.096118 
L 495.1097 251.585489 
L 495.393093 251.341275 
L 495.676486 252.140521 
L 496.243271 251.008257 
L 496.526663 250.275615 
L 497.376841 249.387564 
L 497.660234 249.387564 
L 498.227019 249.853791 
L 498.510411 249.609577 
L 498.793804 249.676181 
L 499.077197 249.498571 
L 499.643982 249.676181 
L 499.927374 250.18681 
L 500.494159 250.209011 
L 500.777552 249.454168 
L 501.060945 249.631778 
L 501.62773 248.654923 
L 502.477908 244.170268 
L 502.7613 243.038003 
L 503.89487 241.2175 
L 504.178263 241.173097 
L 504.461656 240.86228 
L 504.745048 241.03989 
L 505.028441 240.218443 
L 505.311833 239.885424 
L 505.595226 240.373852 
L 505.878619 240.107437 
L 506.162011 239.574606 
L 506.445404 239.308191 
L 507.012189 242.260959 
L 507.295582 242.172154 
L 507.578974 241.195299 
L 507.862367 242.593978 
L 508.145759 242.038947 
L 508.429152 241.772531 
L 508.712544 241.972343 
L 509.27933 239.663411 
L 509.562722 239.530204 
L 509.846115 237.509889 
L 510.129507 237.287876 
L 510.4129 236.177813 
L 511.263078 236.688442 
L 511.54647 236.000203 
L 511.829863 236.022404 
L 512.113255 235.223159 
L 512.396648 235.711587 
L 512.680041 235.644983 
L 512.963433 236.089008 
L 513.246826 236.133411 
L 513.530218 237.265675 
L 513.813611 236.910455 
L 514.380396 237.043662 
L 514.663789 237.731902 
L 515.230574 236.533033 
L 515.513966 236.533033 
L 516.080752 235.578379 
L 516.364144 234.978945 
L 524.865922 236.710644 
L 525.432707 235.578379 
L 526.282885 235.933599 
L 526.566277 235.689385 
L 526.84967 235.866996 
L 527.133062 238.57555 
L 527.416455 238.797562 
L 527.699848 238.819763 
L 527.98324 238.375738 
L 528.266633 239.152782 
L 528.550025 238.864166 
L 528.833418 239.952028 
L 529.116811 239.197185 
L 529.400203 239.197185 
L 529.683596 238.708757 
L 529.966988 238.686556 
L 530.250381 238.198128 
L 530.817166 238.442342 
L 531.100559 238.109323 
L 531.383951 237.976116 
L 531.667344 238.064921 
L 531.950736 238.75316 
L 532.234129 238.642153 
L 532.517522 238.286933 
L 533.084307 238.087122 
L 533.651092 238.841965 
L 534.784662 241.306305 
L 535.351447 231.249133 
L 535.918233 229.006805 
L 536.201625 228.851397 
L 536.485018 228.540579 
L 536.76841 228.918 
L 537.335196 229.029007 
L 537.618588 229.339824 
L 537.901981 229.273221 
L 538.185373 229.739447 
L 538.468766 229.828252 
L 538.752158 230.227875 
L 539.035551 230.116869 
L 539.318944 230.84951 
L 539.602336 230.560894 
L 539.885729 231.160328 
L 540.169121 231.004919 
L 540.452514 231.20473 
L 540.735907 231.959573 
L 541.019299 232.07058 
L 541.869477 234.1797 
L 542.152869 234.423914 
L 542.436262 234.068693 
L 542.719655 234.601524 
L 543.003047 234.046492 
L 543.28644 234.290706 
L 543.569832 234.312907 
L 544.136618 234.645926 
L 544.42001 235.267561 
L 544.703403 234.823536 
L 544.986795 235.511775 
L 545.270188 234.934543 
L 545.55358 234.645926 
L 546.120366 235.866996 
L 546.403758 235.844794 
L 546.687151 235.223159 
L 546.970543 234.934543 
L 547.253936 235.467373 
L 547.537329 235.689385 
L 547.820721 236.311021 
L 548.104114 236.444228 
L 548.954292 239.974229 
L 549.237684 239.152782 
L 549.521077 238.797562 
L 549.804469 237.998317 
L 550.087862 238.064921 
L 550.654647 237.88731 
L 550.93804 237.554292 
L 551.221432 237.398883 
L 551.504825 237.465486 
L 551.788217 237.998317 
L 552.07161 237.687499 
L 552.355003 237.798505 
L 552.638395 238.286933 
L 552.921788 237.576493 
L 553.20518 238.131524 
L 553.488573 238.087122 
L 553.771965 237.909512 
L 554.055358 238.664355 
L 554.338751 238.708757 
L 554.622143 238.57555 
L 554.905536 238.242531 
L 555.188928 238.841965 
L 555.472321 238.730958 
L 555.755714 238.819763 
L 556.039106 239.530204 
L 556.322499 239.330393 
L 556.605891 238.664355 
L 556.889284 238.997374 
L 557.172676 238.775361 
L 557.456069 238.93077 
L 557.739462 238.864166 
L 558.022854 238.597751 
L 558.306247 237.998317 
L 558.873032 238.642153 
L 559.439817 238.109323 
L 559.72321 237.842908 
L 560.006602 238.131524 
L 560.289995 238.064921 
L 560.573388 238.242531 
L 560.85678 238.242531 
L 561.140173 237.332279 
L 561.423565 237.088065 
L 561.99035 235.178756 
L 562.557136 233.669071 
L 562.840528 233.025234 
L 563.123921 233.225045 
L 563.407313 232.692215 
L 563.690706 233.047435 
L 564.257491 232.381397 
L 565.107669 232.78102 
L 565.391061 231.89297 
L 565.674454 232.137183 
L 565.957847 231.759762 
L 566.524632 231.515548 
L 566.808024 231.004919 
L 567.091417 231.471146 
L 567.658202 231.71536 
L 567.941595 231.648756 
L 568.224987 233.003033 
L 568.50838 232.692215 
L 568.791772 231.915171 
L 569.075165 232.581209 
L 569.358558 231.959573 
L 569.64195 232.314794 
L 569.925343 232.181586 
L 570.208735 232.4258 
L 570.492128 232.159385 
L 570.775521 231.537749 
L 571.342306 230.893913 
L 571.625698 230.938315 
L 571.909091 230.605296 
L 572.192483 231.315737 
L 572.475876 230.84951 
L 573.042661 230.605296 
L 573.326054 230.716303 
L 573.609446 230.272277 
L 573.892839 230.805108 
L 574.459624 231.049322 
L 574.743017 232.225989 
L 575.026409 232.448001 
L 575.309802 232.470202 
L 575.593195 232.692215 
L 575.876587 232.514605 
L 576.15998 231.959573 
L 576.726765 232.492404 
L 577.010157 232.381397 
L 577.29355 232.114982 
L 577.860335 231.915171 
L 578.143728 231.737561 
L 578.42712 232.137183 
L 578.710513 231.737561 
L 578.993906 232.24819 
L 579.277298 231.226932 
L 579.844083 232.492404 
L 580.127476 231.648756 
L 580.410868 232.359196 
L 580.694261 231.89297 
L 580.977654 232.492404 
L 581.261046 232.026177 
L 581.827831 232.492404 
L 582.111224 233.069637 
L 582.394617 230.227875 
L 582.678009 228.940202 
L 582.961402 228.340768 
L 583.244794 228.251963 
L 583.528187 229.073409 
L 583.811579 229.362026 
L 584.094972 228.407371 
L 584.378365 228.274164 
L 584.94515 228.318566 
L 585.228542 227.763535 
L 585.511935 229.006805 
L 586.07872 228.185359 
L 586.362113 228.540579 
L 586.645505 228.318566 
L 586.928898 227.807937 
L 587.212291 227.807937 
L 587.495683 228.873598 
L 588.062468 229.006805 
L 588.345861 230.094667 
L 588.629253 231.937372 
L 588.912646 230.84951 
L 589.196039 230.227875 
L 589.479431 231.937372 
L 589.762824 232.114982 
L 590.329609 231.160328 
L 590.613002 230.738504 
L 591.179787 230.649699 
L 591.463179 229.983661 
L 591.746572 230.383284 
L 592.029964 229.695045 
L 592.59675 230.294479 
L 592.880142 230.094667 
L 593.163535 229.584038 
L 593.446927 230.116869 
L 593.73032 230.005862 
L 594.013713 229.450831 
L 594.297105 229.872655 
L 594.86389 230.116869 
L 595.714068 231.115925 
L 596.280853 230.605296 
L 596.564246 230.605296 
L 596.847638 230.161271 
L 597.131031 230.272277 
L 597.697816 229.561837 
L 597.981209 229.273221 
L 598.264601 229.228818 
L 598.547994 228.629384 
L 599.398172 228.962403 
L 599.964957 227.696931 
L 600.248349 228.074352 
L 600.531742 228.074352 
L 600.815135 228.407371 
L 601.098527 227.608126 
L 601.665312 228.052151 
L 601.948705 227.896742 
L 602.232098 228.340768 
L 603.082275 228.496176 
L 603.932453 228.296365 
L 604.215846 228.274164 
L 604.499238 227.763535 
L 604.782631 226.919887 
L 605.066023 228.007749 
L 605.349416 227.585925 
L 605.632809 227.719132 
L 606.199594 227.474918 
L 606.482986 228.096554 
L 606.766379 227.741334 
L 607.049771 228.185359 
L 607.333164 228.38517 
L 607.616557 227.941145 
L 607.899949 228.296365 
L 608.183342 228.38517 
L 608.750127 228.851397 
L 609.03352 229.495233 
L 609.600305 229.473032 
L 609.883697 230.938315 
L 610.16709 230.782906 
L 610.450482 229.96146 
L 610.733875 230.072466 
L 611.017268 229.78385 
L 611.30066 229.051208 
L 611.584053 229.561837 
L 611.867445 228.629384 
L 612.150838 229.60624 
L 612.434231 228.784793 
L 612.717623 229.228818 
L 613.001016 229.228818 
L 613.567801 229.650642 
L 614.417979 229.339824 
L 614.701371 229.273221 
L 614.984764 229.717246 
L 615.268156 229.140013 
L 615.551549 231.404542 
L 616.118334 230.6719 
L 616.401727 231.426743 
L 616.685119 233.358253 
L 616.968512 233.291649 
L 617.251905 233.469259 
L 617.81869 231.759762 
L 618.102082 231.848567 
L 618.385475 231.448944 
L 618.668867 230.782906 
L 618.95226 230.871712 
L 619.235653 230.405485 
L 619.519045 230.84951 
L 619.802438 230.405485 
L 620.369223 231.02712 
L 620.652616 230.782906 
L 620.936008 231.293536 
L 621.219401 230.6719 
L 621.502793 230.6719 
L 621.786186 231.226932 
L 622.069578 230.13907 
L 622.352971 232.492404 
L 622.636364 233.646869 
L 622.636364 233.646869 
" clip-path="url(#p9ed373ced5)" style="fill: none; stroke: #1f77b4; stroke-width: 1.5; stroke-linecap: square"/>
   </g>
   <g id="line2d_14">
    <path d="M 115.363636 268.342486 
L 115.930422 268.381275 
L 116.213814 269.679518 
L 121.314881 270.307232 
L 122.448451 270.361787 
L 122.731844 270.394103 
L 123.015236 252.451339 
L 128.399695 253.761804 
L 128.683088 253.60899 
L 129.249873 253.067824 
L 129.533266 252.263116 
L 129.816658 267.548197 
L 135.48451 268.440511 
L 136.334688 268.554744 
L 136.61808 239.99643 
L 143.13611 241.122445 
L 143.419502 246.434796 
L 149.654139 247.31965 
L 149.937532 247.266157 
L 150.220924 247.766872 
L 150.787709 247.645661 
L 151.071102 247.186925 
L 151.637887 245.565493 
L 152.204672 244.903176 
L 153.621635 244.252047 
L 154.471813 244.240835 
L 155.038598 244.227884 
L 155.605383 244.005538 
L 156.455561 244.039575 
L 156.738954 244.076542 
L 157.022346 225.876427 
L 160.989843 226.713234 
L 163.540376 227.256505 
L 163.823768 210.180135 
L 168.074657 211.273149 
L 168.641442 210.572643 
L 169.208228 210.009695 
L 169.775013 209.762434 
L 170.341798 209.80243 
L 170.62519 203.430951 
L 171.758761 203.363976 
L 173.175724 203.515209 
L 174.876079 203.927119 
L 177.14322 204.695259 
L 177.426612 209.602902 
L 183.944642 212.06283 
L 184.228035 216.130073 
L 189.895886 218.003298 
L 190.746064 218.2642 
L 191.029457 220.237307 
L 197.547486 222.059122 
L 197.830879 226.520264 
L 204.348908 228.091511 
L 204.632301 247.655866 
L 204.915693 247.512364 
L 214.267649 249.375576 
L 215.968004 249.676696 
L 216.534789 249.387376 
L 217.66836 249.699713 
L 218.518537 249.861572 
L 219.085322 249.873912 
L 223.336211 250.876865 
L 229.004063 252.00857 
L 236.37227 253.233561 
L 238.356018 253.533184 
L 238.639411 164.512138 
L 244.590655 167.096584 
L 245.15744 167.332111 
L 245.440833 168.352957 
L 250.258507 170.249955 
L 250.825292 170.254239 
L 251.392077 169.376663 
L 251.958862 169.582808 
L 252.242255 169.99585 
L 254.226003 170.664831 
L 257.059929 171.902703 
L 258.760284 172.705796 
L 259.043677 175.235348 
L 266.128492 178.460487 
L 272.079736 180.897111 
L 279.447943 183.658816 
L 287.382936 186.455734 
L 287.666328 200.145164 
L 292.767395 201.710671 
L 293.050787 210.202336 
L 299.002031 211.802665 
L 299.568817 211.881572 
L 304.103098 213.24392 
L 304.669883 212.874174 
L 305.236668 212.651115 
L 306.086846 213.007271 
L 312.604876 215.310812 
L 318.55612 217.151097 
L 326.20772 219.269085 
L 337.26003 222.075217 
L 339.810564 222.697828 
L 343.211275 225.321396 
L 344.628238 225.227555 
L 346.328593 225.341355 
L 348.312341 225.808174 
L 350.579482 226.501289 
L 350.862875 217.66196 
L 356.247334 219.04264 
L 356.530726 219.682275 
L 363.048756 221.301077 
L 363.332148 223.967119 
L 369.850178 225.408898 
L 370.13357 234.690329 
L 376.6516 235.88534 
L 376.934992 235.578379 
L 379.768918 236.045607 
L 380.619096 235.92604 
L 382.319451 236.190142 
L 383.453022 236.393419 
L 383.736414 235.911398 
L 390.254444 237.07827 
L 390.537836 237.554292 
L 397.055866 238.740066 
L 397.339259 238.420141 
L 408.958354 241.089399 
L 411.79228 241.627495 
L 412.075673 242.149953 
L 417.743525 243.174035 
L 418.026917 243.637437 
L 431.062976 245.841663 
L 431.346369 246.967627 
L 434.463687 247.407583 
L 435.313865 247.357663 
L 437.864398 247.864689 
L 438.147791 248.566118 
L 438.714576 248.639441 
L 439.564754 248.657809 
L 444.382428 249.493082 
L 444.949213 249.520008 
L 445.515998 249.518019 
L 446.082783 249.635309 
L 446.366176 249.232156 
L 447.499746 249.421308 
L 447.783139 250.431024 
L 451.467242 251.184127 
L 451.750635 242.704984 
L 457.418487 243.990792 
L 464.786694 245.419303 
L 465.070086 245.470574 
L 465.353479 243.237815 
L 471.871508 244.285951 
L 472.154901 245.635551 
L 478.67293 246.578685 
L 478.956323 247.36725 
L 485.474352 248.270533 
L 485.757745 249.631778 
L 492.275775 250.482949 
L 492.559167 249.631778 
L 499.077197 250.482974 
L 499.360589 249.498571 
L 500.210767 249.517906 
L 501.060945 249.098106 
L 502.194515 248.073877 
L 503.044693 246.974628 
L 503.89487 246.486882 
L 504.461656 246.419034 
L 505.878619 246.596257 
L 506.162011 239.774418 
L 507.578974 239.641221 
L 509.27933 239.768311 
L 510.4129 239.918222 
L 510.979685 239.84874 
L 511.263078 239.942208 
L 511.54647 239.800768 
L 511.829863 239.43628 
L 512.113255 239.269566 
L 512.680041 239.335723 
L 512.963433 236.044606 
L 516.364144 236.791901 
L 527.98324 240.030511 
L 533.084307 241.181758 
L 533.367699 237.776304 
L 537.051803 238.310805 
L 538.185373 238.391022 
L 539.885729 238.675342 
L 540.169121 231.115925 
L 546.687151 232.392688 
L 546.970543 235.511775 
L 553.488573 236.613326 
L 553.771965 237.909512 
L 557.172676 238.408474 
L 558.022854 237.885018 
L 558.589639 237.651919 
L 558.873032 237.136807 
L 559.439817 235.389419 
L 559.72321 235.04291 
L 560.289995 234.856056 
L 560.573388 238.175927 
L 561.423565 237.482704 
L 561.99035 236.910818 
L 562.557136 235.834923 
L 563.407313 234.24572 
L 563.690706 233.970939 
L 564.257491 233.827499 
L 565.391061 233.970216 
L 567.091417 234.285144 
L 567.37481 231.515548 
L 573.892839 232.783615 
L 574.176232 230.583095 
L 580.694261 231.872621 
L 580.977654 232.181586 
L 587.495683 233.434329 
L 587.779076 228.052151 
L 594.297105 229.399187 
L 594.580498 230.982718 
L 595.147283 230.967145 
L 595.714068 230.720518 
L 596.564246 230.132138 
L 597.131031 230.001937 
L 597.697816 229.96112 
L 597.981209 229.817233 
L 598.831386 228.244569 
L 599.398172 228.011035 
L 600.248349 228.095517 
L 601.098527 228.263127 
L 601.38192 228.718189 
L 603.64906 229.062238 
L 604.499238 228.913763 
L 605.632809 228.598665 
L 606.482986 228.646056 
L 607.899949 228.923315 
L 608.183342 227.785736 
L 614.701371 229.139451 
L 614.984764 230.183472 
L 621.502793 231.482106 
L 621.786186 230.31668 
L 622.636364 230.487395 
L 622.636364 230.487395 
" clip-path="url(#p9ed373ced5)" style="fill: none; stroke: #ff7f0e; stroke-width: 1.5; stroke-linecap: square"/>
   </g>
   <g id="patch_3">
    <path d="M 90 288 
L 90 43.2 
" style="fill: none; stroke: #000000; stroke-width: 0.8; stroke-linejoin: miter; stroke-linecap: square"/>
   </g>
   <g id="patch_4">
    <path d="M 648 288 
L 648 43.2 
" style="fill: none; stroke: #000000; stroke-width: 0.8; stroke-linejoin: miter; stroke-linecap: square"/>
   </g>
   <g id="patch_5">
    <path d="M 90 288 
L 648 288 
" style="fill: none; stroke: #000000; stroke-width: 0.8; stroke-linejoin: miter; stroke-linecap: square"/>
   </g>
   <g id="patch_6">
    <path d="M 90 43.2 
L 648 43.2 
" style="fill: none; stroke: #000000; stroke-width: 0.8; stroke-linejoin: miter; stroke-linecap: square"/>
   </g>
   <g id="text_14">
    <!-- ARB026 -->
    <g transform="translate(345.1575 37.2) scale(0.12 -0.12)">
     <defs>
      <path id="DejaVuSans-41" d="M 2188 4044 
L 1331 1722 
L 3047 1722 
L 2188 4044 
z
M 1831 4666 
L 2547 4666 
L 4325 0 
L 3669 0 
L 3244 1197 
L 1141 1197 
L 716 0 
L 50 0 
L 1831 4666 
z
" transform="scale(0.015625)"/>
      <path id="DejaVuSans-52" d="M 2841 2188 
Q 3044 2119 3236 1894 
Q 3428 1669 3622 1275 
L 4263 0 
L 3584 0 
L 2988 1197 
Q 2756 1666 2539 1819 
Q 2322 1972 1947 1972 
L 1259 1972 
L 1259 0 
L 628 0 
L 628 4666 
L 2053 4666 
Q 2853 4666 3247 4331 
Q 3641 3997 3641 3322 
Q 3641 2881 3436 2590 
Q 3231 2300 2841 2188 
z
M 1259 4147 
L 1259 2491 
L 2053 2491 
Q 2509 2491 2742 2702 
Q 2975 2913 2975 3322 
Q 2975 3731 2742 3939 
Q 2509 4147 2053 4147 
L 1259 4147 
z
" transform="scale(0.015625)"/>
      <path id="DejaVuSans-42" d="M 1259 2228 
L 1259 519 
L 2272 519 
Q 2781 519 3026 730 
Q 3272 941 3272 1375 
Q 3272 1813 3026 2020 
Q 2781 2228 2272 2228 
L 1259 2228 
z
M 1259 4147 
L 1259 2741 
L 2194 2741 
Q 2656 2741 2882 2914 
Q 3109 3088 3109 3444 
Q 3109 3797 2882 3972 
Q 2656 4147 2194 4147 
L 1259 4147 
z
M 628 4666 
L 2241 4666 
Q 2963 4666 3353 4366 
Q 3744 4066 3744 3513 
Q 3744 3084 3544 2831 
Q 3344 2578 2956 2516 
Q 3422 2416 3680 2098 
Q 3938 1781 3938 1306 
Q 3938 681 3513 340 
Q 3088 0 2303 0 
L 628 0 
L 628 4666 
z
" transform="scale(0.015625)"/>
      <path id="DejaVuSans-36" d="M 2113 2584 
Q 1688 2584 1439 2293 
Q 1191 2003 1191 1497 
Q 1191 994 1439 701 
Q 1688 409 2113 409 
Q 2538 409 2786 701 
Q 3034 994 3034 1497 
Q 3034 2003 2786 2293 
Q 2538 2584 2113 2584 
z
M 3366 4563 
L 3366 3988 
Q 3128 4100 2886 4159 
Q 2644 4219 2406 4219 
Q 1781 4219 1451 3797 
Q 1122 3375 1075 2522 
Q 1259 2794 1537 2939 
Q 1816 3084 2150 3084 
Q 2853 3084 3261 2657 
Q 3669 2231 3669 1497 
Q 3669 778 3244 343 
Q 2819 -91 2113 -91 
Q 1303 -91 875 529 
Q 447 1150 447 2328 
Q 447 3434 972 4092 
Q 1497 4750 2381 4750 
Q 2619 4750 2861 4703 
Q 3103 4656 3366 4563 
z
" transform="scale(0.015625)"/>
     </defs>
     <use xlink:href="#DejaVuSans-41"/>
     <use xlink:href="#DejaVuSans-52" x="68.408203"/>
     <use xlink:href="#DejaVuSans-42" x="137.890625"/>
     <use xlink:href="#DejaVuSans-30" x="206.494141"/>
     <use xlink:href="#DejaVuSans-32" x="270.117188"/>
     <use xlink:href="#DejaVuSans-36" x="333.740234"/>
    </g>
   </g>
   <g id="legend_1">
    <g id="patch_7">
     <path d="M 559.04375 80.55625 
L 641 80.55625 
Q 643 80.55625 643 78.55625 
L 643 50.2 
Q 643 48.2 641 48.2 
L 559.04375 48.2 
Q 557.04375 48.2 557.04375 50.2 
L 557.04375 78.55625 
Q 557.04375 80.55625 559.04375 80.55625 
z
" style="fill: #ffffff; opacity: 0.8; stroke: #cccccc; stroke-linejoin: miter"/>
    </g>
    <g id="line2d_15">
     <path d="M 561.04375 56.298437 
L 571.04375 56.298437 
L 581.04375 56.298437 
" style="fill: none; stroke: #1f77b4; stroke-width: 1.5; stroke-linecap: square"/>
    </g>
    <g id="text_15">
     <!-- measured -->
     <g transform="translate(589.04375 59.798437) scale(0.1 -0.1)">
      <defs>
       <path id="DejaVuSans-6d" d="M 3328 2828 
Q 3544 3216 3844 3400 
Q 4144 3584 4550 3584 
Q 5097 3584 5394 3201 
Q 5691 2819 5691 2113 
L 5691 0 
L 5113 0 
L 5113 2094 
Q 5113 2597 4934 2840 
Q 4756 3084 4391 3084 
Q 3944 3084 3684 2787 
Q 3425 2491 3425 1978 
L 3425 0 
L 2847 0 
L 2847 2094 
Q 2847 2600 2669 2842 
Q 2491 3084 2119 3084 
Q 1678 3084 1418 2786 
Q 1159 2488 1159 1978 
L 1159 0 
L 581 0 
L 581 3500 
L 1159 3500 
L 1159 2956 
Q 1356 3278 1631 3431 
Q 1906 3584 2284 3584 
Q 2666 3584 2933 3390 
Q 3200 3197 3328 2828 
z
" transform="scale(0.015625)"/>
       <path id="DejaVuSans-61" d="M 2194 1759 
Q 1497 1759 1228 1600 
Q 959 1441 959 1056 
Q 959 750 1161 570 
Q 1363 391 1709 391 
Q 2188 391 2477 730 
Q 2766 1069 2766 1631 
L 2766 1759 
L 2194 1759 
z
M 3341 1997 
L 3341 0 
L 2766 0 
L 2766 531 
Q 2569 213 2275 61 
Q 1981 -91 1556 -91 
Q 1019 -91 701 211 
Q 384 513 384 1019 
Q 384 1609 779 1909 
Q 1175 2209 1959 2209 
L 2766 2209 
L 2766 2266 
Q 2766 2663 2505 2880 
Q 2244 3097 1772 3097 
Q 1472 3097 1187 3025 
Q 903 2953 641 2809 
L 641 3341 
Q 956 3463 1253 3523 
Q 1550 3584 1831 3584 
Q 2591 3584 2966 3190 
Q 3341 2797 3341 1997 
z
" transform="scale(0.015625)"/>
       <path id="DejaVuSans-75" d="M 544 1381 
L 544 3500 
L 1119 3500 
L 1119 1403 
Q 1119 906 1312 657 
Q 1506 409 1894 409 
Q 2359 409 2629 706 
Q 2900 1003 2900 1516 
L 2900 3500 
L 3475 3500 
L 3475 0 
L 2900 0 
L 2900 538 
Q 2691 219 2414 64 
Q 2138 -91 1772 -91 
Q 1169 -91 856 284 
Q 544 659 544 1381 
z
M 1991 3584 
L 1991 3584 
z
" transform="scale(0.015625)"/>
       <path id="DejaVuSans-64" d="M 2906 2969 
L 2906 4863 
L 3481 4863 
L 3481 0 
L 2906 0 
L 2906 525 
Q 2725 213 2448 61 
Q 2172 -91 1784 -91 
Q 1150 -91 751 415 
Q 353 922 353 1747 
Q 353 2572 751 3078 
Q 1150 3584 1784 3584 
Q 2172 3584 2448 3432 
Q 2725 3281 2906 2969 
z
M 947 1747 
Q 947 1113 1208 752 
Q 1469 391 1925 391 
Q 2381 391 2643 752 
Q 2906 1113 2906 1747 
Q 2906 2381 2643 2742 
Q 2381 3103 1925 3103 
Q 1469 3103 1208 2742 
Q 947 2381 947 1747 
z
" transform="scale(0.015625)"/>
      </defs>
      <use xlink:href="#DejaVuSans-6d"/>
      <use xlink:href="#DejaVuSans-65" x="97.412109"/>
      <use xlink:href="#DejaVuSans-61" x="158.935547"/>
      <use xlink:href="#DejaVuSans-73" x="220.214844"/>
      <use xlink:href="#DejaVuSans-75" x="272.314453"/>
      <use xlink:href="#DejaVuSans-72" x="335.693359"/>
      <use xlink:href="#DejaVuSans-65" x="374.556641"/>
      <use xlink:href="#DejaVuSans-64" x="436.080078"/>
     </g>
    </g>
    <g id="line2d_16">
     <path d="M 561.04375 70.976562 
L 571.04375 70.976562 
L 581.04375 70.976562 
" style="fill: none; stroke: #ff7f0e; stroke-width: 1.5; stroke-linecap: square"/>
    </g>
    <g id="text_16">
     <!-- predicted -->
     <g transform="translate(589.04375 74.476562) scale(0.1 -0.1)">
      <defs>
       <path id="DejaVuSans-70" d="M 1159 525 
L 1159 -1331 
L 581 -1331 
L 581 3500 
L 1159 3500 
L 1159 2969 
Q 1341 3281 1617 3432 
Q 1894 3584 2278 3584 
Q 2916 3584 3314 3078 
Q 3713 2572 3713 1747 
Q 3713 922 3314 415 
Q 2916 -91 2278 -91 
Q 1894 -91 1617 61 
Q 1341 213 1159 525 
z
M 3116 1747 
Q 3116 2381 2855 2742 
Q 2594 3103 2138 3103 
Q 1681 3103 1420 2742 
Q 1159 2381 1159 1747 
Q 1159 1113 1420 752 
Q 1681 391 2138 391 
Q 2594 391 2855 752 
Q 3116 1113 3116 1747 
z
" transform="scale(0.015625)"/>
       <path id="DejaVuSans-69" d="M 603 3500 
L 1178 3500 
L 1178 0 
L 603 0 
L 603 3500 
z
M 603 4863 
L 1178 4863 
L 1178 4134 
L 603 4134 
L 603 4863 
z
" transform="scale(0.015625)"/>
       <path id="DejaVuSans-63" d="M 3122 3366 
L 3122 2828 
Q 2878 2963 2633 3030 
Q 2388 3097 2138 3097 
Q 1578 3097 1268 2742 
Q 959 2388 959 1747 
Q 959 1106 1268 751 
Q 1578 397 2138 397 
Q 2388 397 2633 464 
Q 2878 531 3122 666 
L 3122 134 
Q 2881 22 2623 -34 
Q 2366 -91 2075 -91 
Q 1284 -91 818 406 
Q 353 903 353 1747 
Q 353 2603 823 3093 
Q 1294 3584 2113 3584 
Q 2378 3584 2631 3529 
Q 2884 3475 3122 3366 
z
" transform="scale(0.015625)"/>
      </defs>
      <use xlink:href="#DejaVuSans-70"/>
      <use xlink:href="#DejaVuSans-72" x="63.476562"/>
      <use xlink:href="#DejaVuSans-65" x="102.339844"/>
      <use xlink:href="#DejaVuSans-64" x="163.863281"/>
      <use xlink:href="#DejaVuSans-69" x="227.339844"/>
      <use xlink:href="#DejaVuSans-63" x="255.123047"/>
      <use xlink:href="#DejaVuSans-74" x="310.103516"/>
      <use xlink:href="#DejaVuSans-65" x="349.3125"/>
      <use xlink:href="#DejaVuSans-64" x="410.835938"/>
     </g>
    </g>
   </g>
  </g>
 </g>
 <defs>
  <clipPath id="p9ed373ced5">
   <rect x="90" y="43.2" width="558" height="244.8"/>
  </clipPath>
 </defs>
</svg>
