<?xml version="1.0" encoding="utf-8" standalone="no"?>
<!DOCTYPE svg PUBLIC "-//W3C//DTD SVG 1.1//EN"
  "http://www.w3.org/Graphics/SVG/1.1/DTD/svg11.dtd">
<svg xmlns:xlink="http://www.w3.org/1999/xlink" width="713.066284pt" height="351.43625pt" viewBox="0 0 713.066284 351.43625" xmlns="http://www.w3.org/2000/svg" version="1.1">
 <metadata>
  <rdf:RDF xmlns:dc="http://purl.org/dc/elements/1.1/" xmlns:cc="http://creativecommons.org/ns#" xmlns:rdf="http://www.w3.org/1999/02/22-rdf-syntax-ns#">
   <cc:Work>
    <dc:type rdf:resource="http://purl.org/dc/dcmitype/StillImage"/>
    <dc:date>2024-05-10T20:16:44.139081</dc:date>
    <dc:format>image/svg+xml</dc:format>
    <dc:creator>
     <cc:Agent>
      <dc:title>Matplotlib v3.8.4, https://matplotlib.org/</dc:title>
     </cc:Agent>
    </dc:creator>
   </cc:Work>
  </rdf:RDF>
 </metadata>
 <defs>
  <style type="text/css">*{stroke-linejoin: round; stroke-linecap: butt}</style>
 </defs>
 <g id="figure_1">
  <g id="patch_1">
   <path d="M 0 351.43625 
L 713.066284 351.43625 
L 713.066284 0 
L 0 0 
z
" style="fill: #ffffff"/>
  </g>
  <g id="axes_1">
   <g id="patch_2">
    <path d="M 46.0125 327.558125 
L 693.727635 327.558125 
L 693.727635 22.318125 
L 46.0125 22.318125 
z
" style="fill: #ffffff"/>
   </g>
   <g id="matplotlib.axis_1">
    <g id="xtick_1">
     <g id="line2d_1">
      <defs>
       <path id="mfb2bf2a000" d="M 0 0 
L 0 3.5 
" style="stroke: #000000; stroke-width: 0.8"/>
      </defs>
      <g>
       <use xlink:href="#mfb2bf2a000" x="51.148679" y="327.558125" style="stroke: #000000; stroke-width: 0.8"/>
      </g>
     </g>
     <g id="text_1">
      <!-- 2012 -->
      <g transform="translate(38.423679 342.156563) scale(0.1 -0.1)">
       <defs>
        <path id="DejaVuSans-32" d="M 1228 531 
L 3431 531 
L 3431 0 
L 469 0 
L 469 531 
Q 828 903 1448 1529 
Q 2069 2156 2228 2338 
Q 2531 2678 2651 2914 
Q 2772 3150 2772 3378 
Q 2772 3750 2511 3984 
Q 2250 4219 1831 4219 
Q 1534 4219 1204 4116 
Q 875 4013 500 3803 
L 500 4441 
Q 881 4594 1212 4672 
Q 1544 4750 1819 4750 
Q 2544 4750 2975 4387 
Q 3406 4025 3406 3419 
Q 3406 3131 3298 2873 
Q 3191 2616 2906 2266 
Q 2828 2175 2409 1742 
Q 1991 1309 1228 531 
z
" transform="scale(0.015625)"/>
        <path id="DejaVuSans-30" d="M 2034 4250 
Q 1547 4250 1301 3770 
Q 1056 3291 1056 2328 
Q 1056 1369 1301 889 
Q 1547 409 2034 409 
Q 2525 409 2770 889 
Q 3016 1369 3016 2328 
Q 3016 3291 2770 3770 
Q 2525 4250 2034 4250 
z
M 2034 4750 
Q 2819 4750 3233 4129 
Q 3647 3509 3647 2328 
Q 3647 1150 3233 529 
Q 2819 -91 2034 -91 
Q 1250 -91 836 529 
Q 422 1150 422 2328 
Q 422 3509 836 4129 
Q 1250 4750 2034 4750 
z
" transform="scale(0.015625)"/>
        <path id="DejaVuSans-31" d="M 794 531 
L 1825 531 
L 1825 4091 
L 703 3866 
L 703 4441 
L 1819 4666 
L 2450 4666 
L 2450 531 
L 3481 531 
L 3481 0 
L 794 0 
L 794 531 
z
" transform="scale(0.015625)"/>
       </defs>
       <use xlink:href="#DejaVuSans-32"/>
       <use xlink:href="#DejaVuSans-30" x="63.623047"/>
       <use xlink:href="#DejaVuSans-31" x="127.246094"/>
       <use xlink:href="#DejaVuSans-32" x="190.869141"/>
      </g>
     </g>
    </g>
    <g id="xtick_2">
     <g id="line2d_2">
      <g>
       <use xlink:href="#mfb2bf2a000" x="131.562537" y="327.558125" style="stroke: #000000; stroke-width: 0.8"/>
      </g>
     </g>
     <g id="text_2">
      <!-- 2013 -->
      <g transform="translate(118.837537 342.156563) scale(0.1 -0.1)">
       <defs>
        <path id="DejaVuSans-33" d="M 2597 2516 
Q 3050 2419 3304 2112 
Q 3559 1806 3559 1356 
Q 3559 666 3084 287 
Q 2609 -91 1734 -91 
Q 1441 -91 1130 -33 
Q 819 25 488 141 
L 488 750 
Q 750 597 1062 519 
Q 1375 441 1716 441 
Q 2309 441 2620 675 
Q 2931 909 2931 1356 
Q 2931 1769 2642 2001 
Q 2353 2234 1838 2234 
L 1294 2234 
L 1294 2753 
L 1863 2753 
Q 2328 2753 2575 2939 
Q 2822 3125 2822 3475 
Q 2822 3834 2567 4026 
Q 2313 4219 1838 4219 
Q 1578 4219 1281 4162 
Q 984 4106 628 3988 
L 628 4550 
Q 988 4650 1302 4700 
Q 1616 4750 1894 4750 
Q 2613 4750 3031 4423 
Q 3450 4097 3450 3541 
Q 3450 3153 3228 2886 
Q 3006 2619 2597 2516 
z
" transform="scale(0.015625)"/>
       </defs>
       <use xlink:href="#DejaVuSans-32"/>
       <use xlink:href="#DejaVuSans-30" x="63.623047"/>
       <use xlink:href="#DejaVuSans-31" x="127.246094"/>
       <use xlink:href="#DejaVuSans-33" x="190.869141"/>
      </g>
     </g>
    </g>
    <g id="xtick_3">
     <g id="line2d_3">
      <g>
       <use xlink:href="#mfb2bf2a000" x="211.756685" y="327.558125" style="stroke: #000000; stroke-width: 0.8"/>
      </g>
     </g>
     <g id="text_3">
      <!-- 2014 -->
      <g transform="translate(199.031685 342.156563) scale(0.1 -0.1)">
       <defs>
        <path id="DejaVuSans-34" d="M 2419 4116 
L 825 1625 
L 2419 1625 
L 2419 4116 
z
M 2253 4666 
L 3047 4666 
L 3047 1625 
L 3713 1625 
L 3713 1100 
L 3047 1100 
L 3047 0 
L 2419 0 
L 2419 1100 
L 313 1100 
L 313 1709 
L 2253 4666 
z
" transform="scale(0.015625)"/>
       </defs>
       <use xlink:href="#DejaVuSans-32"/>
       <use xlink:href="#DejaVuSans-30" x="63.623047"/>
       <use xlink:href="#DejaVuSans-31" x="127.246094"/>
       <use xlink:href="#DejaVuSans-34" x="190.869141"/>
      </g>
     </g>
    </g>
    <g id="xtick_4">
     <g id="line2d_4">
      <g>
       <use xlink:href="#mfb2bf2a000" x="291.950833" y="327.558125" style="stroke: #000000; stroke-width: 0.8"/>
      </g>
     </g>
     <g id="text_4">
      <!-- 2015 -->
      <g transform="translate(279.225833 342.156563) scale(0.1 -0.1)">
       <defs>
        <path id="DejaVuSans-35" d="M 691 4666 
L 3169 4666 
L 3169 4134 
L 1269 4134 
L 1269 2991 
Q 1406 3038 1543 3061 
Q 1681 3084 1819 3084 
Q 2600 3084 3056 2656 
Q 3513 2228 3513 1497 
Q 3513 744 3044 326 
Q 2575 -91 1722 -91 
Q 1428 -91 1123 -41 
Q 819 9 494 109 
L 494 744 
Q 775 591 1075 516 
Q 1375 441 1709 441 
Q 2250 441 2565 725 
Q 2881 1009 2881 1497 
Q 2881 1984 2565 2268 
Q 2250 2553 1709 2553 
Q 1456 2553 1204 2497 
Q 953 2441 691 2322 
L 691 4666 
z
" transform="scale(0.015625)"/>
       </defs>
       <use xlink:href="#DejaVuSans-32"/>
       <use xlink:href="#DejaVuSans-30" x="63.623047"/>
       <use xlink:href="#DejaVuSans-31" x="127.246094"/>
       <use xlink:href="#DejaVuSans-35" x="190.869141"/>
      </g>
     </g>
    </g>
    <g id="xtick_5">
     <g id="line2d_5">
      <g>
       <use xlink:href="#mfb2bf2a000" x="372.144982" y="327.558125" style="stroke: #000000; stroke-width: 0.8"/>
      </g>
     </g>
     <g id="text_5">
      <!-- 2016 -->
      <g transform="translate(359.419982 342.156563) scale(0.1 -0.1)">
       <defs>
        <path id="DejaVuSans-36" d="M 2113 2584 
Q 1688 2584 1439 2293 
Q 1191 2003 1191 1497 
Q 1191 994 1439 701 
Q 1688 409 2113 409 
Q 2538 409 2786 701 
Q 3034 994 3034 1497 
Q 3034 2003 2786 2293 
Q 2538 2584 2113 2584 
z
M 3366 4563 
L 3366 3988 
Q 3128 4100 2886 4159 
Q 2644 4219 2406 4219 
Q 1781 4219 1451 3797 
Q 1122 3375 1075 2522 
Q 1259 2794 1537 2939 
Q 1816 3084 2150 3084 
Q 2853 3084 3261 2657 
Q 3669 2231 3669 1497 
Q 3669 778 3244 343 
Q 2819 -91 2113 -91 
Q 1303 -91 875 529 
Q 447 1150 447 2328 
Q 447 3434 972 4092 
Q 1497 4750 2381 4750 
Q 2619 4750 2861 4703 
Q 3103 4656 3366 4563 
z
" transform="scale(0.015625)"/>
       </defs>
       <use xlink:href="#DejaVuSans-32"/>
       <use xlink:href="#DejaVuSans-30" x="63.623047"/>
       <use xlink:href="#DejaVuSans-31" x="127.246094"/>
       <use xlink:href="#DejaVuSans-36" x="190.869141"/>
      </g>
     </g>
    </g>
    <g id="xtick_6">
     <g id="line2d_6">
      <g>
       <use xlink:href="#mfb2bf2a000" x="452.55884" y="327.558125" style="stroke: #000000; stroke-width: 0.8"/>
      </g>
     </g>
     <g id="text_6">
      <!-- 2017 -->
      <g transform="translate(439.83384 342.156563) scale(0.1 -0.1)">
       <defs>
        <path id="DejaVuSans-37" d="M 525 4666 
L 3525 4666 
L 3525 4397 
L 1831 0 
L 1172 0 
L 2766 4134 
L 525 4134 
L 525 4666 
z
" transform="scale(0.015625)"/>
       </defs>
       <use xlink:href="#DejaVuSans-32"/>
       <use xlink:href="#DejaVuSans-30" x="63.623047"/>
       <use xlink:href="#DejaVuSans-31" x="127.246094"/>
       <use xlink:href="#DejaVuSans-37" x="190.869141"/>
      </g>
     </g>
    </g>
    <g id="xtick_7">
     <g id="line2d_7">
      <g>
       <use xlink:href="#mfb2bf2a000" x="532.752988" y="327.558125" style="stroke: #000000; stroke-width: 0.8"/>
      </g>
     </g>
     <g id="text_7">
      <!-- 2018 -->
      <g transform="translate(520.027988 342.156563) scale(0.1 -0.1)">
       <defs>
        <path id="DejaVuSans-38" d="M 2034 2216 
Q 1584 2216 1326 1975 
Q 1069 1734 1069 1313 
Q 1069 891 1326 650 
Q 1584 409 2034 409 
Q 2484 409 2743 651 
Q 3003 894 3003 1313 
Q 3003 1734 2745 1975 
Q 2488 2216 2034 2216 
z
M 1403 2484 
Q 997 2584 770 2862 
Q 544 3141 544 3541 
Q 544 4100 942 4425 
Q 1341 4750 2034 4750 
Q 2731 4750 3128 4425 
Q 3525 4100 3525 3541 
Q 3525 3141 3298 2862 
Q 3072 2584 2669 2484 
Q 3125 2378 3379 2068 
Q 3634 1759 3634 1313 
Q 3634 634 3220 271 
Q 2806 -91 2034 -91 
Q 1263 -91 848 271 
Q 434 634 434 1313 
Q 434 1759 690 2068 
Q 947 2378 1403 2484 
z
M 1172 3481 
Q 1172 3119 1398 2916 
Q 1625 2713 2034 2713 
Q 2441 2713 2670 2916 
Q 2900 3119 2900 3481 
Q 2900 3844 2670 4047 
Q 2441 4250 2034 4250 
Q 1625 4250 1398 4047 
Q 1172 3844 1172 3481 
z
" transform="scale(0.015625)"/>
       </defs>
       <use xlink:href="#DejaVuSans-32"/>
       <use xlink:href="#DejaVuSans-30" x="63.623047"/>
       <use xlink:href="#DejaVuSans-31" x="127.246094"/>
       <use xlink:href="#DejaVuSans-38" x="190.869141"/>
      </g>
     </g>
    </g>
    <g id="xtick_8">
     <g id="line2d_8">
      <g>
       <use xlink:href="#mfb2bf2a000" x="612.947136" y="327.558125" style="stroke: #000000; stroke-width: 0.8"/>
      </g>
     </g>
     <g id="text_8">
      <!-- 2019 -->
      <g transform="translate(600.222136 342.156563) scale(0.1 -0.1)">
       <defs>
        <path id="DejaVuSans-39" d="M 703 97 
L 703 672 
Q 941 559 1184 500 
Q 1428 441 1663 441 
Q 2288 441 2617 861 
Q 2947 1281 2994 2138 
Q 2813 1869 2534 1725 
Q 2256 1581 1919 1581 
Q 1219 1581 811 2004 
Q 403 2428 403 3163 
Q 403 3881 828 4315 
Q 1253 4750 1959 4750 
Q 2769 4750 3195 4129 
Q 3622 3509 3622 2328 
Q 3622 1225 3098 567 
Q 2575 -91 1691 -91 
Q 1453 -91 1209 -44 
Q 966 3 703 97 
z
M 1959 2075 
Q 2384 2075 2632 2365 
Q 2881 2656 2881 3163 
Q 2881 3666 2632 3958 
Q 2384 4250 1959 4250 
Q 1534 4250 1286 3958 
Q 1038 3666 1038 3163 
Q 1038 2656 1286 2365 
Q 1534 2075 1959 2075 
z
" transform="scale(0.015625)"/>
       </defs>
       <use xlink:href="#DejaVuSans-32"/>
       <use xlink:href="#DejaVuSans-30" x="63.623047"/>
       <use xlink:href="#DejaVuSans-31" x="127.246094"/>
       <use xlink:href="#DejaVuSans-39" x="190.869141"/>
      </g>
     </g>
    </g>
    <g id="xtick_9">
     <g id="line2d_9">
      <g>
       <use xlink:href="#mfb2bf2a000" x="693.141284" y="327.558125" style="stroke: #000000; stroke-width: 0.8"/>
      </g>
     </g>
     <g id="text_9">
      <!-- 2020 -->
      <g transform="translate(680.416284 342.156563) scale(0.1 -0.1)">
       <use xlink:href="#DejaVuSans-32"/>
       <use xlink:href="#DejaVuSans-30" x="63.623047"/>
       <use xlink:href="#DejaVuSans-32" x="127.246094"/>
       <use xlink:href="#DejaVuSans-30" x="190.869141"/>
      </g>
     </g>
    </g>
   </g>
   <g id="matplotlib.axis_2">
    <g id="ytick_1">
     <g id="line2d_10">
      <defs>
       <path id="m5372954b53" d="M 0 0 
L -3.5 0 
" style="stroke: #000000; stroke-width: 0.8"/>
      </defs>
      <g>
       <use xlink:href="#m5372954b53" x="46.0125" y="313.68358" style="stroke: #000000; stroke-width: 0.8"/>
      </g>
     </g>
     <g id="text_10">
      <!-- 0 -->
      <g transform="translate(32.65 317.482798) scale(0.1 -0.1)">
       <use xlink:href="#DejaVuSans-30"/>
      </g>
     </g>
    </g>
    <g id="ytick_2">
     <g id="line2d_11">
      <g>
       <use xlink:href="#m5372954b53" x="46.0125" y="275.98101" style="stroke: #000000; stroke-width: 0.8"/>
      </g>
     </g>
     <g id="text_11">
      <!-- 2500 -->
      <g transform="translate(13.5625 279.780229) scale(0.1 -0.1)">
       <use xlink:href="#DejaVuSans-32"/>
       <use xlink:href="#DejaVuSans-35" x="63.623047"/>
       <use xlink:href="#DejaVuSans-30" x="127.246094"/>
       <use xlink:href="#DejaVuSans-30" x="190.869141"/>
      </g>
     </g>
    </g>
    <g id="ytick_3">
     <g id="line2d_12">
      <g>
       <use xlink:href="#m5372954b53" x="46.0125" y="238.278441" style="stroke: #000000; stroke-width: 0.8"/>
      </g>
     </g>
     <g id="text_12">
      <!-- 5000 -->
      <g transform="translate(13.5625 242.07766) scale(0.1 -0.1)">
       <use xlink:href="#DejaVuSans-35"/>
       <use xlink:href="#DejaVuSans-30" x="63.623047"/>
       <use xlink:href="#DejaVuSans-30" x="127.246094"/>
       <use xlink:href="#DejaVuSans-30" x="190.869141"/>
      </g>
     </g>
    </g>
    <g id="ytick_4">
     <g id="line2d_13">
      <g>
       <use xlink:href="#m5372954b53" x="46.0125" y="200.575872" style="stroke: #000000; stroke-width: 0.8"/>
      </g>
     </g>
     <g id="text_13">
      <!-- 7500 -->
      <g transform="translate(13.5625 204.375091) scale(0.1 -0.1)">
       <use xlink:href="#DejaVuSans-37"/>
       <use xlink:href="#DejaVuSans-35" x="63.623047"/>
       <use xlink:href="#DejaVuSans-30" x="127.246094"/>
       <use xlink:href="#DejaVuSans-30" x="190.869141"/>
      </g>
     </g>
    </g>
    <g id="ytick_5">
     <g id="line2d_14">
      <g>
       <use xlink:href="#m5372954b53" x="46.0125" y="162.873303" style="stroke: #000000; stroke-width: 0.8"/>
      </g>
     </g>
     <g id="text_14">
      <!-- 10000 -->
      <g transform="translate(7.2 166.672522) scale(0.1 -0.1)">
       <use xlink:href="#DejaVuSans-31"/>
       <use xlink:href="#DejaVuSans-30" x="63.623047"/>
       <use xlink:href="#DejaVuSans-30" x="127.246094"/>
       <use xlink:href="#DejaVuSans-30" x="190.869141"/>
       <use xlink:href="#DejaVuSans-30" x="254.492188"/>
      </g>
     </g>
    </g>
    <g id="ytick_6">
     <g id="line2d_15">
      <g>
       <use xlink:href="#m5372954b53" x="46.0125" y="125.170734" style="stroke: #000000; stroke-width: 0.8"/>
      </g>
     </g>
     <g id="text_15">
      <!-- 12500 -->
      <g transform="translate(7.2 128.969952) scale(0.1 -0.1)">
       <use xlink:href="#DejaVuSans-31"/>
       <use xlink:href="#DejaVuSans-32" x="63.623047"/>
       <use xlink:href="#DejaVuSans-35" x="127.246094"/>
       <use xlink:href="#DejaVuSans-30" x="190.869141"/>
       <use xlink:href="#DejaVuSans-30" x="254.492188"/>
      </g>
     </g>
    </g>
    <g id="ytick_7">
     <g id="line2d_16">
      <g>
       <use xlink:href="#m5372954b53" x="46.0125" y="87.468165" style="stroke: #000000; stroke-width: 0.8"/>
      </g>
     </g>
     <g id="text_16">
      <!-- 15000 -->
      <g transform="translate(7.2 91.267383) scale(0.1 -0.1)">
       <use xlink:href="#DejaVuSans-31"/>
       <use xlink:href="#DejaVuSans-35" x="63.623047"/>
       <use xlink:href="#DejaVuSans-30" x="127.246094"/>
       <use xlink:href="#DejaVuSans-30" x="190.869141"/>
       <use xlink:href="#DejaVuSans-30" x="254.492188"/>
      </g>
     </g>
    </g>
    <g id="ytick_8">
     <g id="line2d_17">
      <g>
       <use xlink:href="#m5372954b53" x="46.0125" y="49.765595" style="stroke: #000000; stroke-width: 0.8"/>
      </g>
     </g>
     <g id="text_17">
      <!-- 17500 -->
      <g transform="translate(7.2 53.564814) scale(0.1 -0.1)">
       <use xlink:href="#DejaVuSans-31"/>
       <use xlink:href="#DejaVuSans-37" x="63.623047"/>
       <use xlink:href="#DejaVuSans-35" x="127.246094"/>
       <use xlink:href="#DejaVuSans-30" x="190.869141"/>
       <use xlink:href="#DejaVuSans-30" x="254.492188"/>
      </g>
     </g>
    </g>
   </g>
   <g id="line2d_18">
    <path d="M 75.454097 313.571226 
L 76.2597 313.59626 
L 80.269408 313.52915 
L 80.296872 313.292604 
L 80.379263 313.522213 
L 80.562354 313.609984 
L 84.736844 313.655076 
L 85.359356 313.663069 
L 85.862858 313.636489 
L 85.899476 312.961952 
L 85.92694 312.183017 
L 86.000177 313.352174 
L 86.110032 313.557427 
L 86.14665 313.548152 
L 88.371214 313.49205 
L 88.407832 313.332946 
L 88.481069 313.504492 
L 88.655006 313.617789 
L 90.156358 313.673023 
L 90.32114 313.594903 
L 90.458459 313.17271 
L 90.568314 313.136892 
L 90.76056 312.203377 
L 90.797178 312.219212 
L 90.852106 312.222982 
L 90.815488 312.199983 
L 90.897879 312.198475 
L 91.026043 311.953032 
L 91.154207 311.63633 
L 91.172516 311.647641 
L 91.6394 311.568465 
L 91.785873 311.172588 
L 91.831646 311.183899 
L 91.85911 311.142426 
L 91.95981 311.176359 
L 92.454158 311.270615 
L 92.582322 311.327169 
L 92.783723 311.274385 
L 92.893578 311.327169 
L 92.902733 311.312088 
L 93.030897 311.304547 
L 93.149906 311.33848 
L 93.159061 311.327169 
L 93.662563 311.432736 
L 93.71749 311.010467 
L 93.854809 310.663604 
L 94.019592 310.705077 
L 94.248456 310.716387 
L 94.413239 310.75409 
L 94.578021 310.75786 
L 94.605485 310.810644 
L 94.623794 310.708847 
L 94.651258 310.377064 
L 94.724495 310.791792 
L 94.81604 310.689996 
L 94.843504 310.46001 
L 94.898432 310.731468 
L 94.916741 310.731468 
L 95.063214 310.788022 
L 95.081523 310.75409 
L 95.099832 310.663604 
L 95.163915 310.765401 
L 95.191378 310.75032 
L 95.319542 310.788022 
L 95.328697 310.75409 
L 95.365315 310.237565 
L 95.466016 308.891583 
L 95.530098 308.902894 
L 95.69488 308.906664 
L 95.795581 308.910434 
L 95.81389 308.925515 
L 96.051909 308.98961 
L 96.170919 308.985839 
L 96.244155 309.016001 
L 96.280774 308.985839 
L 96.555411 308.978299 
L 96.683575 309.034853 
L 96.866667 309.057474 
L 96.958213 309.076326 
L 96.967367 309.031083 
L 97.01314 309.023542 
L 97.049759 309.098947 
L 97.058913 309.087636 
L 97.205387 309.121569 
L 97.223696 309.027312 
L 97.306087 309.174352 
L 97.397633 309.151731 
L 97.425097 309.189433 
L 97.480024 309.257298 
L 97.489179 309.125339 
L 97.507488 309.125339 
L 97.525797 309.102717 
L 97.57157 309.249757 
L 97.727198 309.381716 
L 97.745507 309.340244 
L 97.827898 308.220477 
L 97.946908 307.9641 
L 97.956062 307.982951 
L 97.992681 307.9641 
L 98.01099 308.028194 
L 98.056763 308.024424 
L 98.129999 308.031964 
L 98.157463 308.077208 
L 98.285627 308.092289 
L 98.422946 308.005573 
L 98.514492 308.133761 
L 98.541956 308.099829 
L 98.615192 308.160153 
L 98.642656 308.084748 
L 98.798284 307.176116 
L 98.88983 307.23644 
L 98.935603 307.243981 
L 98.944757 307.191197 
L 98.999685 307.213819 
L 99.063767 307.006455 
L 99.191931 307.172346 
L 99.219395 307.191197 
L 99.338404 306.437146 
L 99.439105 305.781121 
L 99.494032 305.818824 
L 99.539805 305.776094 
L 99.677124 306.124214 
L 99.759515 306.011107 
L 99.732052 306.165687 
L 99.76867 306.112904 
L 99.832752 306.057607 
L 99.887679 306.228525 
L 99.905989 306.188309 
L 99.924298 306.259944 
L 99.98838 306.263714 
L 100.08908 306.324038 
L 100.263017 306.399443 
L 100.290481 306.313984 
L 100.354563 306.440916 
L 100.501037 306.489929 
L 100.583428 306.388132 
L 100.665819 306.067661 
L 100.702437 306.097823 
L 100.711592 305.958323 
L 100.766519 306.275025 
L 100.812292 306.097823 
L 100.821447 306.192079 
L 100.839756 306.022417 
L 100.912993 306.124214 
L 100.940456 306.011107 
L 101.004539 306.267484 
L 101.013693 306.146836 
L 101.022848 306.180768 
L 101.050311 305.890458 
L 101.105239 304.457761 
L 101.205939 300.47637 
L 101.242558 301.467947 
L 101.489731 310.637212 
L 101.508041 310.595739 
L 101.52635 310.788022 
L 101.562968 310.622131 
L 101.617896 310.950143 
L 101.691132 310.889819 
L 101.700287 310.837036 
L 101.791833 310.931292 
L 101.883379 310.803103 
L 102.084779 294.040541 
L 102.130552 296.604316 
L 102.432654 312.597369 
L 102.661518 313.122942 
L 102.670673 313.085617 
L 102.698136 313.056209 
L 102.734755 313.143302 
L 102.835455 313.304292 
L 102.872074 313.293735 
L 102.991083 313.370648 
L 103.247411 313.563761 
L 104.04386 313.620692 
L 104.217797 312.303666 
L 104.400889 312.349663 
L 104.574826 312.356449 
L 104.611444 312.043518 
L 104.748763 311.534533 
L 104.757918 311.545844 
L 105.151565 310.980305 
L 105.307193 311.002927 
L 105.407893 311.029319 
L 105.417048 311.040629 
L 105.462821 311.014238 
L 105.471975 310.961454 
L 105.838158 308.537179 
L 105.883931 308.363747 
L 106.112796 306.263714 
L 106.222651 306.256173 
L 106.35997 306.237322 
L 107.028254 306.21093 
L 107.183882 304.43891 
L 107.266273 304.469072 
L 107.394438 304.574639 
L 107.431056 304.778233 
L 107.623302 306.64451 
L 107.659921 306.587956 
L 107.824703 306.621888 
L 107.888785 306.742537 
L 107.962022 306.693523 
L 108.035258 306.697293 
L 108.071877 306.731226 
L 109.088035 307.036617 
L 109.19789 306.995144 
L 109.2162 307.006455 
L 109.380982 307.09317 
L 109.664774 307.183657 
L 110.113349 307.443804 
L 110.323904 308.307193 
L 110.333059 308.299653 
L 110.497841 308.40899 
L 110.928107 308.522098 
L 110.95557 308.382598 
L 111.047116 308.41276 
L 111.102044 308.337355 
L 111.211899 308.10737 
L 111.221053 308.201626 
L 111.4133 311.270615 
L 111.486536 311.255534 
L 111.559773 311.398804 
L 111.697092 311.413885 
L 111.742865 311.413885 
L 111.779483 311.474209 
L 111.825256 311.496831 
L 111.889338 311.466668 
L 114.242066 311.387493 
L 114.37023 310.705077 
L 114.388539 310.788022 
L 114.544167 311.379953 
L 114.571631 311.376182 
L 114.946969 311.413885 
L 115.203297 311.398804 
L 115.340616 311.477979 
L 115.459625 311.440277 
L 115.606099 311.455358 
L 115.761727 311.444047 
L 115.899045 311.406344 
L 116.036364 311.444047 
L 116.155374 311.413885 
L 116.173683 311.425196 
L 116.503248 311.451587 
L 116.594794 311.436506 
L 116.631412 311.48552 
L 116.777885 311.436506 
L 116.814504 311.432736 
L 116.869431 311.48175 
L 116.979286 311.48929 
L 116.997595 311.474209 
L 117.125759 311.496831 
L 117.253924 311.496831 
L 117.913054 311.602398 
L 118.041218 311.613708 
L 118.215155 311.613708 
L 118.627111 311.557155 
L 118.901749 311.568465 
L 119.020758 311.572236 
L 119.231314 311.545844 
L 119.30455 311.591087 
L 119.359478 311.534533 
L 119.478487 311.500601 
L 119.606651 311.48552 
L 119.771434 311.832383 
L 119.981989 313.572206 
L 120.357327 313.646216 
L 120.696047 313.665332 
L 133.475845 313.575072 
L 133.631473 313.243214 
L 133.668091 313.231149 
L 133.695555 313.309193 
L 133.878647 313.545965 
L 134.153284 313.620692 
L 146.521126 313.54129 
L 146.658445 311.500601 
L 146.667599 311.515682 
L 146.896464 312.107612 
L 147.171101 312.103842 
L 150.951944 312.135512 
L 151.080108 311.029319 
L 151.116727 311.225372 
L 151.354746 312.175477 
L 151.785011 312.271995 
L 151.849093 312.124201 
L 151.949794 310.882279 
L 151.977257 310.294119 
L 152.04134 311.161278 
L 152.306822 313.375173 
L 152.508223 313.53669 
L 152.965952 313.59626 
L 155.346144 313.495067 
L 155.391917 313.383844 
L 155.455999 313.489788 
L 155.703173 313.600936 
L 156.261602 313.631098 
L 158.29392 313.632945 
L 158.458702 311.915329 
L 158.888968 311.832383 
L 158.998823 311.855005 
L 159.007977 311.843694 
L 159.17276 311.836154 
L 159.282615 311.843694 
L 159.291769 311.832383 
L 159.465706 311.866316 
L 159.603025 311.945491 
L 159.667107 311.919099 
L 159.621334 311.975653 
L 159.71288 311.937951 
L 159.859354 311.998275 
L 159.978363 311.949261 
L 159.987518 311.953032 
L 160.170609 311.994504 
L 160.985367 311.892708 
L 161.003676 311.907789 
L 161.122686 311.885167 
L 161.205077 311.877626 
L 161.186768 311.847464 
L 161.232541 311.858775 
L 161.342396 310.067903 
L 161.452251 308.85388 
L 161.488869 309.242217 
L 161.763507 311.666492 
L 161.772661 311.658952 
L 161.818434 311.741897 
L 161.827589 311.741897 
L 161.946598 311.881397 
L 161.974062 311.862545 
L 162.120536 311.949261 
L 162.239545 311.937951 
L 162.2487 311.953032 
L 162.404328 311.975653 
L 162.514183 311.855005 
L 162.532492 311.885167 
L 162.614883 311.873856 
L 162.642347 311.851235 
L 162.68812 311.821073 
L 162.715583 311.881397 
L 162.733893 311.885167 
L 162.862057 311.956802 
L 162.953603 311.945491 
L 162.971912 311.964342 
L 163.942298 312.06991 
L 163.960607 312.054829 
L 164.079616 312.092531 
L 164.253553 312.013356 
L 164.262708 312.024667 
L 164.271863 312.054829 
L 164.299326 311.7796 
L 164.32679 311.855005 
L 164.335945 311.877626 
L 164.390872 311.719276 
L 164.42749 311.274385 
L 164.491573 311.772059 
L 164.656355 312.013356 
L 164.674664 311.998275 
L 164.802828 312.103842 
L 164.848601 312.07368 
L 165.30633 312.149085 
L 165.42534 312.141544 
L 165.773214 312.176985 
L 165.937997 312.039748 
L 165.956306 312.07745 
L 165.992924 312.137774 
L 166.038697 312.017126 
L 166.176016 311.142426 
L 166.221789 311.327169 
L 166.414035 311.915329 
L 166.578818 312.126463 
L 166.697827 310.429848 
L 166.752755 310.927522 
L 166.935846 312.115153 
L 166.990774 312.195082 
L 167.045701 312.122693 
L 167.201329 312.165674 
L 167.393575 312.240325 
L 167.512585 312.230146 
L 167.62244 312.254275 
L 167.631595 312.244095 
L 167.768913 312.285191 
L 168.052705 312.299895 
L 168.071015 312.302534 
L 168.098478 312.258045 
L 168.16256 312.051058 
L 168.208333 312.213179 
L 168.354807 312.333074 
L 168.391425 312.028437 
L 168.473816 312.172461 
L 168.519589 311.93041 
L 168.574517 311.153737 
L 168.702681 309.14042 
L 168.72099 309.423189 
L 168.986473 313.489788 
L 169.078019 313.556899 
L 169.096328 313.50864 
L 169.123792 313.388745 
L 169.206183 313.522967 
L 169.48082 313.610663 
L 170.927245 313.674531 
L 174.763015 313.539631 
L 174.900334 313.561649 
L 174.936952 313.560858 
L 174.964416 313.251131 
L 175.046807 313.516934 
L 175.074271 313.523721 
L 175.09258 313.417022 
L 175.110889 313.321635 
L 175.184126 313.499968 
L 175.358063 313.608476 
L 175.760864 313.658394 
L 186.508345 313.68358 
L 197.338217 313.608966 
L 197.38399 312.155494 
L 197.448072 311.308318 
L 197.493845 311.956802 
L 197.667782 313.283555 
L 197.933265 313.542421 
L 198.418458 313.601237 
L 198.647322 313.627629 
L 200.002201 313.537331 
L 200.102901 313.429087 
L 200.139519 313.443791 
L 200.514857 313.545664 
L 200.871886 313.554938 
L 201.915508 313.664577 
L 202.574638 313.671402 
L 203.526715 313.662164 
L 205.321013 313.573677 
L 205.742124 313.602444 
L 206.254781 313.58133 
L 206.675892 313.550414 
L 206.776592 313.565344 
L 206.785747 313.57198 
L 207.133621 313.58412 
L 207.536422 313.573677 
L 208.021615 313.618882 
L 209.440576 313.563798 
L 209.495503 310.844576 
L 209.559585 307.168576 
L 209.614513 308.129991 
L 209.989851 313.326536 
L 210.520817 313.624009 
L 211.170792 313.672872 
L 213.62422 313.672872 
L 215.986103 313.655491 
L 216.343131 313.652739 
L 216.388904 313.626309 
L 216.452986 313.662994 
L 217.734628 313.658093 
L 218.01842 313.661637 
L 218.128275 313.665482 
L 219.181052 313.57198 
L 219.290907 313.479986 
L 219.327525 313.499968 
L 219.501463 313.601124 
L 219.647936 313.617864 
L 219.831028 313.607119 
L 220.233829 313.623859 
L 220.490158 313.607119 
L 227.996916 313.594564 
L 228.12508 310.493942 
L 228.207471 311.670262 
L 228.399717 313.320127 
L 228.619427 313.635245 
L 228.793364 313.666236 
L 229.269403 313.670911 
L 236.043794 313.591849 
L 236.126186 312.862795 
L 236.153649 312.646759 
L 236.226886 312.994754 
L 236.464905 313.603612 
L 236.748697 313.670911 
L 237.297972 313.676039 
L 244.273765 313.613038 
L 244.301228 313.268097 
L 244.38362 313.523721 
L 244.58502 313.672872 
L 247.010985 313.562026 
L 247.184922 313.628609 
L 247.358859 313.673287 
L 249.876369 313.681506 
L 249.912988 312.345892 
L 250.004534 312.718771 
L 250.050306 312.381333 
L 250.07777 312.222228 
L 250.132698 312.721787 
L 250.334099 313.537444 
L 250.471417 313.59249 
L 250.480572 313.579822 
L 250.51719 313.427579 
L 250.553809 312.999278 
L 250.6362 313.138777 
L 251.029847 313.672872 
L 252.366416 313.68275 
L 255.25011 313.670082 
L 255.405738 290.911228 
L 255.506438 290.006366 
L 255.543056 290.157176 
L 255.588829 292.080007 
L 255.890931 311.723046 
L 256.138104 312.680691 
L 256.604988 313.397794 
L 256.98948 313.60595 
L 257.163418 313.665482 
L 260.449913 313.663861 
L 260.477377 313.1384 
L 260.559768 313.404581 
L 260.816096 313.632116 
L 261.530154 313.68358 
L 262.647013 313.630457 
L 262.692786 313.427202 
L 262.766022 313.495821 
L 262.967423 313.633209 
L 264.770876 313.553506 
L 264.816649 313.400056 
L 264.889886 313.451332 
L 265.210296 313.626422 
L 265.475779 313.669705 
L 266.427856 313.68358 
L 269.100994 313.575185 
L 269.183385 313.584196 
L 269.210849 313.611643 
L 269.421404 313.640108 
L 270.922756 313.683278 
L 274.511353 313.560368 
L 274.703599 313.196085 
L 274.740217 312.914447 
L 274.813454 313.125582 
L 274.987391 313.420416 
L 275.243719 313.58133 
L 277.715457 313.482248 
L 277.843621 313.476969 
L 278.145722 313.523721 
L 278.466132 313.516557 
L 278.64007 313.523721 
L 278.795697 313.60595 
L 279.042871 313.597618 
L 279.363282 313.497706 
L 279.61961 312.957805 
L 279.628765 312.97364 
L 279.72031 313.173464 
L 279.967484 313.522213 
L 280.297049 313.614584 
L 280.489295 313.618882 
L 280.947025 313.634227 
L 281.194198 313.640108 
L 281.734319 313.625216 
L 283.592699 313.528509 
L 283.665936 313.204003 
L 283.730018 313.299767 
L 283.949728 313.548906 
L 292.326171 313.455102 
L 292.481799 313.35519 
L 292.490954 313.360846 
L 292.564191 313.368009 
L 292.5825 313.297505 
L 292.664891 312.978542 
L 292.710664 313.100698 
L 292.930374 313.464528 
L 293.24163 313.58133 
L 294.193706 313.618882 
L 296.784453 313.523344 
L 296.912617 313.032079 
L 296.949236 313.125582 
L 297.205564 313.445676 
L 297.800612 313.575298 
L 298.130177 313.575298 
L 299.009017 313.473576 
L 299.146336 313.366501 
L 299.1738 313.386483 
L 299.430128 313.48451 
L 303.677854 313.388368 
L 303.714473 313.059225 
L 303.796864 313.19043 
L 303.897564 313.295997 
L 304.10812 313.404581 
L 304.446839 313.217576 
L 304.840486 313.451332 
L 305.362298 313.343502 
L 305.545389 313.360846 
L 307.705871 313.468298 
L 307.861499 313.473953 
L 309.26215 313.364616 
L 309.335387 313.190807 
L 309.48186 310.814414 
L 309.500169 310.840806 
L 309.92128 312.491424 
L 310.690265 313.378189 
L 310.91913 313.443791 
L 311.276158 313.473953 
L 311.660651 313.506377 
L 311.834588 313.516557 
L 312.283163 313.520327 
L 312.402172 313.523721 
L 312.841592 313.363485 
L 312.869056 313.173087 
L 312.951447 313.324651 
L 313.53734 313.427202 
L 313.683814 313.471691 
L 314.132388 313.522213 
L 314.544345 313.435497 
L 314.571808 313.02567 
L 314.608427 312.42356 
L 314.681663 312.930282 
L 314.883064 313.347273 
L 315.157702 313.486772 
L 315.349948 313.514672 
L 315.51473 313.419285 
L 315.615431 312.849599 
L 315.670358 313.018506 
L 315.679513 313.04716 
L 315.743595 312.957805 
L 315.771059 312.992114 
L 315.816832 312.06991 
L 315.908377 312.702559 
L 316.082315 313.276769 
L 316.247097 313.381959 
L 316.778063 313.404581 
L 316.887918 312.421675 
L 316.970309 299.266117 
L 317.0527 300.661112 
L 317.116782 302.380349 
L 317.482966 311.330939 
L 317.51043 311.523222 
L 317.547048 311.029319 
L 317.601975 310.407226 
L 317.647748 310.950143 
L 317.693521 311.49306 
L 317.739294 310.686225 
L 317.757603 310.46755 
L 317.812531 311.074562 
L 318.004777 312.494818 
L 318.105477 312.756096 
L 318.435042 313.1663 
L 318.846999 313.341617 
L 319.1491 313.391008 
L 319.332192 313.415891 
L 319.771612 313.411367 
L 319.854003 312.004684 
L 320.055404 293.173382 
L 320.146949 290.835823 
L 320.211032 282.013421 
L 320.412432 234.432779 
L 320.458205 230.398604 
L 320.494824 156.463866 
L 320.595524 202.838026 
L 320.632142 201.028303 
L 320.668761 203.893698 
L 321.099026 255.847838 
L 321.135644 254.565951 
L 321.181417 252.416905 
L 321.245499 254.226628 
L 321.410282 264.293214 
L 321.721538 281.221667 
L 322.069412 288.799884 
L 322.133494 287.706509 
L 322.252504 285.06733 
L 322.66446 264.066999 
L 322.783469 236.694933 
L 322.820088 209.096653 
L 322.920788 210.265432 
L 323.021489 202.951134 
L 323.067261 207.211524 
L 323.671464 273.19102 
L 323.753855 275.754795 
L 323.772164 273.794261 
L 323.946101 263.011327 
L 323.98272 262.483491 
L 324.028493 263.614568 
L 324.358058 274.020477 
L 324.376367 273.605749 
L 324.477067 270.137112 
L 324.715086 250.267858 
L 324.779169 245.856658 
L 325.008033 162.8356 
L 325.127043 139.874736 
L 325.145352 142.13689 
L 325.731245 181.724587 
L 325.749554 181.724587 
L 325.886873 184.439172 
L 325.896028 184.288362 
L 325.932646 185.344034 
L 326.069965 189.566722 
L 326.079119 188.66186 
L 326.289675 199.21858 
L 326.903032 266.216045 
L 326.994578 274.284395 
L 327.305833 295.963372 
L 327.553007 301.671541 
L 327.964963 304.431369 
L 327.992427 304.363504 
L 328.0382 303.255049 
L 328.230446 299.590359 
L 328.303683 299.30382 
L 328.514238 296.868234 
L 328.651557 287.781915 
L 328.798031 274.774528 
L 328.834649 215.845413 
L 328.962813 143.644993 
L 329.127596 36.19267 
L 329.173368 56.175032 
L 329.429697 185.796465 
L 329.649407 211.886643 
L 329.814189 218.823916 
L 329.823344 218.673105 
L 329.859962 218.937023 
L 329.924044 218.371485 
L 329.933199 218.974726 
L 330.01559 217.768244 
L 330.107136 216.863382 
L 330.125445 217.768244 
L 330.2353 224.554706 
L 330.99513 288.724479 
L 331.663415 301.562204 
L 332.057062 307.511669 
L 332.606337 309.317622 
L 332.826047 309.754972 
L 333.082375 310.098065 
L 333.155612 310.120687 
L 333.173921 310.1697 
L 333.201385 310.218713 
L 333.238003 310.128227 
L 333.439404 308.537179 
L 333.768969 280.203698 
L 333.86967 282.692068 
L 334.537954 298.806146 
L 334.84921 301.083381 
L 335.114693 309.954795 
L 335.544958 310.870968 
L 335.819596 311.100954 
L 336.213243 311.285696 
L 336.460417 311.391263 
L 336.817445 311.542074 
L 337.201938 311.647641 
L 337.357566 311.692884 
L 337.36672 311.6401 
L 337.522348 311.692884 
L 337.80614 311.798451 
L 338.016696 311.885167 
L 338.868072 312.126463 
L 339.087782 312.084991 
L 339.948313 312.195082 
L 340.534206 312.317238 
L 341.065172 312.342122 
L 341.284882 309.415649 
L 341.44051 309.370406 
L 342.767924 309.457122 
L 342.813697 309.641864 
L 342.877779 309.483513 
L 343.015098 309.347784 
L 343.033407 309.355325 
L 343.582682 309.464662 
L 343.811547 309.521216 
L 343.967175 309.536297 
L 344.260121 309.540067 
L 345.752318 309.649405 
L 345.917101 309.641864 
L 347.262825 309.551378 
L 347.326907 309.310082 
L 347.400143 309.445811 
L 347.59239 309.672026 
L 348.004346 309.72481 
L 349.002195 309.830377 
L 349.139514 309.830377 
L 349.395843 309.837917 
L 349.560625 309.834147 
L 349.697944 309.837917 
L 349.871881 309.841688 
L 351.464778 309.943485 
L 351.602097 309.951025 
L 351.830962 309.973647 
L 354.018907 310.082984 
L 354.348472 310.335591 
L 354.357627 310.328051 
L 354.62311 310.335591 
L 356.728664 310.230024 
L 356.838519 308.951907 
L 356.893446 307.643628 
L 356.948374 308.684219 
L 357.122311 311.108494 
L 357.168084 311.014238 
L 357.296248 311.470439 
L 357.515958 312.145315 
L 357.753977 312.330811 
L 357.964532 312.360973 
L 358.12016 312.4032 
L 358.413107 312.374169 
L 358.513807 310.350672 
L 358.815909 278.62019 
L 358.843372 278.393975 
L 358.889145 279.487349 
L 358.980691 287.027863 
L 359.237019 308.371288 
L 359.447575 310.414767 
L 359.767985 311.19521 
L 359.832067 311.278156 
L 359.859531 311.146197 
L 359.914459 308.657827 
L 359.99685 303.281441 
L 360.051777 305.260826 
L 360.253178 310.358213 
L 360.509506 311.34225 
L 360.87569 311.62879 
L 361.113709 311.734357 
L 361.305955 311.798451 
L 361.992549 311.964342 
L 362.377041 311.858775 
L 362.550979 311.406344 
L 362.578442 311.459128 
L 362.898853 311.873856 
L 363.118563 311.979423 
L 363.384046 312.054829 
L 364.455132 312.07368 
L 364.482596 311.112264 
L 364.638223 240.46519 
L 364.720615 201.782354 
L 364.766388 208.568817 
L 364.784697 208.154088 
L 364.812161 211.094889 
L 365.004407 231.454276 
L 365.105107 229.154419 
L 365.114262 229.154419 
L 365.132571 229.267527 
L 365.15088 228.701989 
L 365.233271 223.197414 
L 365.306508 224.705516 
L 365.70931 244.235447 
L 365.718464 244.122339 
L 365.736773 244.989499 
L 365.745928 244.989499 
L 366.121266 252.64312 
L 366.414213 257.582157 
L 366.578995 268.892927 
L 366.80786 279.449647 
L 367.091652 282.315042 
L 367.100806 282.315042 
L 367.22897 285.105032 
L 367.503608 292.080007 
L 367.558535 292.758654 
L 367.66839 295.322428 
L 367.943028 304.216464 
L 368.034574 305.294758 
L 368.098656 305.064772 
L 368.144429 304.702828 
L 368.22682 304.284329 
L 368.281748 304.393667 
L 368.54723 305.487041 
L 368.968341 307.010225 
L 369.20636 307.809519 
L 369.416916 309.178123 
L 369.911263 309.698418 
L 370.094355 310.46378 
L 370.195055 310.516564 
L 370.332374 310.591969 
L 370.405611 310.591969 
L 370.433075 310.61459 
L 370.854185 310.818184 
L 371.046432 310.863427 
L 371.055586 310.818184 
L 371.092205 310.1697 
L 371.440079 278.771 
L 371.559088 271.494405 
L 371.604861 272.625482 
L 371.797107 281.711801 
L 371.879499 279.110324 
L 372.135827 273.718856 
L 372.144982 273.869667 
L 372.199909 273.605749 
L 372.245682 273.869667 
L 372.364692 274.058179 
L 372.410465 274.095882 
L 372.584402 274.699123 
L 372.593556 274.66142 
L 372.630175 274.925338 
L 372.648484 274.812231 
L 372.785802 275.076149 
L 372.804112 275.076149 
L 372.987203 278.544785 
L 373.509015 307.311845 
L 373.673797 308.058356 
L 373.765343 308.420301 
L 374.3787 310.079214 
L 374.461091 310.184781 
L 374.808965 310.546726 
L 375.376549 310.878508 
L 375.47725 310.935062 
L 376.822974 311.379953 
L 376.877901 311.315858 
L 376.941983 311.368642 
L 377.308167 311.526993 
L 377.738432 311.63256 
L 378.022224 311.730586 
L 378.223625 311.760749 
L 378.406716 311.768289 
L 379.111619 311.873856 
L 379.322175 311.907789 
L 379.395411 311.919099 
L 379.422875 311.953032 
L 379.944686 312.520455 
L 380.210169 312.780226 
L 381.821376 313.197216 
L 382.407269 313.1663 
L 383.524128 313.228887 
L 383.881157 313.204003 
L 383.954394 312.963083 
L 384.000167 311.760749 
L 384.192413 303.994019 
L 384.274804 304.30318 
L 384.338886 304.936583 
L 384.503669 307.647398 
L 384.549442 306.64451 
L 384.80577 300.566856 
L 384.970553 299.869358 
L 384.979707 299.89952 
L 385.02548 300.514072 
L 385.355045 306.440916 
L 385.409973 307.345778 
L 385.620528 311.319628 
L 385.895165 311.711735 
L 386.032484 311.817302 
L 386.233885 311.896478 
L 386.34374 312.028437 
L 386.490213 312.501227 
L 386.545141 312.484638 
L 386.865551 312.504243 
L 386.874706 312.483884 
L 386.893015 309.506135 
L 387.030334 165.738698 
L 387.076107 191.791173 
L 387.22258 214.714335 
L 387.286662 216.109331 
L 387.359899 215.6569 
L 387.423981 213.847176 
L 387.469754 215.355279 
L 387.588763 228.061045 
L 387.927483 261.352414 
L 388.10142 264.557132 
L 388.559149 280.95775 
L 388.961951 302.674429 
L 389.227434 304.913962 
L 389.621081 308.160153 
L 389.822482 310.403456 
L 390.152047 311.232913 
L 390.19782 311.172588 
L 390.307675 311.134886 
L 390.316829 311.146197 
L 390.390066 311.255534 
L 390.426684 311.138656 
L 390.472457 311.078332 
L 390.51823 311.217832 
L 391.067505 311.92287 
L 391.17736 311.990734 
L 391.589316 312.190935 
L 391.9555 312.088761 
L 392.028736 310.01512 
L 392.120282 311.225372 
L 392.303374 312.111382 
L 392.697021 312.430346 
L 392.971658 312.534028 
L 393.246296 312.84696 
L 394.088517 312.980804 
L 394.280764 312.963083 
L 394.628638 312.950642 
L 395.177913 312.792291 
L 395.379314 312.836026 
L 395.736342 312.955543 
L 395.772961 312.655808 
L 395.827888 302.527389 
L 396.084217 255.093787 
L 396.258154 243.707611 
L 396.303927 221.802418 
L 396.514482 144.77607 
L 396.926438 169.659765 
L 397.457404 183.534311 
L 397.466559 183.3835 
L 397.530641 183.986742 
L 397.539795 183.835931 
L 397.722887 189.265101 
L 397.732041 189.114291 
L 397.759505 189.868342 
L 398.20808 228.928204 
L 398.336244 257.280536 
L 398.519336 269.043738 
L 398.684118 274.548313 
L 398.995374 286.990161 
L 399.270011 290.081771 
L 399.343248 293.625813 
L 399.608731 305.830134 
L 399.810132 308.793556 
L 400.267861 310.640982 
L 400.487571 311.070792 
L 400.496726 311.025548 
L 400.551653 309.106488 
L 400.798827 294.229054 
L 401.046001 272.210753 
L 401.247401 266.29145 
L 401.256556 266.404558 
L 401.531193 272.587779 
L 401.961459 303.281441 
L 402.26356 309.532527 
L 402.428343 310.565577 
L 402.455806 310.478861 
L 402.712135 309.257298 
L 402.739598 309.310082 
L 402.785371 309.487284 
L 402.840299 309.336473 
L 403.069163 308.310963 
L 403.1424 308.375058 
L 403.48112 309.641864 
L 403.545202 309.475973 
L 403.636748 309.072555 
L 403.865612 304.197613 
L 404.323341 276.131821 
L 404.378269 277.639923 
L 404.524742 285.708273 
L 404.56136 282.767473 
L 404.689525 279.449647 
L 404.707834 279.525052 
L 404.90008 280.95775 
L 404.927544 281.033155 
L 405.064863 286.009894 
L 405.174718 289.855556 
L 405.211336 287.932725 
L 405.67822 259.467285 
L 405.687374 259.39188 
L 405.723993 259.919716 
L 405.733147 259.919716 
L 405.824693 260.296742 
L 405.843002 259.919716 
L 405.861311 260.070526 
L 405.89793 259.768906 
L 405.943703 259.919716 
L 406.062712 246.195981 
L 406.209185 235.111425 
L 406.227495 234.998318 
L 406.254958 235.563856 
L 406.33735 238.655467 
L 406.364813 236.958851 
L 406.575369 189.265101 
L 406.666915 191.225635 
L 406.795079 195.146702 
L 406.969016 199.5202 
L 407.023943 201.631544 
L 407.21619 212.263668 
L 408.149957 283.446119 
L 408.168266 283.257606 
L 408.19573 284.011658 
L 408.278121 287.291781 
L 408.333049 285.51976 
L 408.625995 276.99898 
L 408.717541 276.056416 
L 408.75416 276.471144 
L 408.845705 283.672334 
L 409.156961 300.261465 
L 409.468217 305.17411 
L 409.770318 307.0894 
L 410.008337 308.367517 
L 410.035801 307.866073 
L 410.109038 305.867837 
L 410.163965 306.701064 
L 410.17312 306.836793 
L 410.218893 305.965864 
L 410.255511 305.456879 
L 410.310439 306.3542 
L 410.520994 310.064133 
L 410.850559 310.863427 
L 411.683626 311.723046 
L 413.001886 312.149085 
L 413.084277 311.790911 
L 413.212442 308.480625 
L 413.313142 309.570229 
L 413.56947 311.368642 
L 413.807489 311.843694 
L 414.164518 311.994504 
L 414.191982 311.862545 
L 414.265219 307.643628 
L 414.34761 309.404338 
L 414.411692 310.395916 
L 414.484929 310.143308 
L 414.56732 310.686225 
L 414.759566 311.315858 
L 414.796184 311.33848 
L 414.814494 311.285696 
L 414.860267 308.574881 
L 414.933503 306.93482 
L 414.979276 307.353318 
L 415.263068 311.187669 
L 415.290532 311.293237 
L 415.308841 310.957684 
L 415.391232 304.985597 
L 415.473624 306.158147 
L 415.574324 308.371288 
L 415.620097 307.23267 
L 415.748261 304.340883 
L 415.794034 304.420058 
L 415.913044 305.724567 
L 416.279227 308.491936 
L 416.627101 309.966106 
L 417.139758 310.946373 
L 417.634105 311.391263 
L 417.798888 311.500601 
L 417.972825 311.587317 
L 418.155916 311.530763 
L 418.229153 310.878508 
L 418.30239 311.142426 
L 418.558718 311.738127 
L 418.998138 311.956802 
L 419.977678 312.241833 
L 420.398789 312.349663 
L 420.984683 312.471065 
L 421.341711 312.487654 
L 421.533958 311.270615 
L 421.744513 311.183899 
L 421.872677 310.569347 
L 421.945914 310.772941 
L 422.129006 311.119805 
L 422.13816 311.116035 
L 422.568426 311.180129 
L 422.815599 311.19521 
L 423.026155 311.165048 
L 423.081082 311.070792 
L 423.108546 310.237565 
L 423.401493 261.729439 
L 423.465575 257.959182 
L 423.520502 259.995121 
L 423.804294 277.790734 
L 423.822603 277.828436 
L 423.859222 278.092354 
L 423.914149 277.753031 
L 424.316951 271.56981 
L 424.33526 271.494405 
L 424.362724 271.343594 
L 424.445115 271.456702 
L 424.463424 271.456702 
L 424.536661 271.155082 
L 424.564125 271.343594 
L 424.646516 274.3598 
L 425.021854 302.308714 
L 425.223255 309.702188 
L 425.516201 311.440277 
L 425.699293 311.843694 
L 425.900694 311.919099 
L 426.074631 311.817302 
L 426.120404 311.753208 
L 426.19364 311.802221 
L 426.541515 311.760749 
L 426.779534 311.998275 
L 426.990089 312.084991 
L 427.521055 312.186788 
L 427.676683 312.195082 
L 427.859775 312.160396 
L 427.896393 311.971883 
L 428.006248 310.282808 
L 428.088639 311.134886 
L 428.280885 311.956802 
L 428.482286 312.115153 
L 428.500595 312.051058 
L 428.784387 309.178123 
L 429.141416 309.268609 
L 429.48929 312.178493 
L 429.745619 312.268225 
L 430.963178 312.37794 
L 431.100497 312.374546 
L 431.256125 312.294617 
L 431.549072 311.293237 
L 431.58569 311.300777 
L 431.613154 311.368642 
L 432.02511 312.100072 
L 432.235665 312.210163 
L 432.665931 312.287076 
L 433.737017 312.338352 
L 433.929263 305.815053 
L 434.057427 307.289224 
L 434.094046 307.183657 
L 434.130664 307.372169 
L 434.304601 309.58154 
L 434.405301 308.865191 
L 434.469384 308.767165 
L 434.524311 308.812408 
L 434.606702 308.917975 
L 434.625011 308.85011 
L 434.679939 306.674672 
L 434.817258 303.232427 
L 434.844721 303.503886 
L 434.890494 303.941236 
L 434.936267 303.451102 
L 435.302451 299.416927 
L 435.467233 298.753362 
L 435.503851 299.054983 
L 435.577088 302.749834 
L 435.778489 310.305429 
L 435.97989 311.097183 
L 436.126363 311.361101 
L 436.172136 311.598627 
L 436.410155 312.804356 
L 436.648174 312.952904 
L 436.657329 312.943478 
L 436.904503 312.869204 
L 437.060131 312.852238 
L 437.115058 312.823961 
L 437.17914 312.863172 
L 437.453778 312.98759 
L 437.765033 313.023031 
L 438.213608 312.917086 
L 438.27769 312.07368 
L 438.350927 312.520832 
L 438.469936 312.919725 
L 438.506555 312.815289 
L 438.570637 312.683707 
L 438.634719 312.744032 
L 438.900202 312.976279 
L 439.284694 313.04716 
L 439.458631 313.061864 
L 439.669187 312.98759 
L 439.852278 311.813532 
L 439.925515 312.149085 
L 440.108607 312.587189 
L 440.218462 312.686724 
L 440.447326 312.869204 
L 440.575491 312.860532 
L 440.758582 310.388375 
L 440.932519 304.382356 
L 440.996601 303.462413 
L 441.051529 304.00156 
L 441.600804 312.41338 
L 441.866287 312.612827 
L 442.150079 312.718394 
L 442.433871 312.792291 
L 442.699354 312.820945 
L 443.349329 312.925004 
L 443.523266 312.946117 
L 444.035923 312.963083 
L 444.182396 312.983066 
L 444.383797 313.002294 
L 444.585198 312.985328 
L 445.390801 312.877122 
L 445.436574 312.296125 
L 445.555584 308.047045 
L 445.62882 309.28369 
L 445.839376 311.858775 
L 446.168941 312.471065 
L 446.809762 312.360973 
L 446.937926 312.420166 
L 447.368191 312.602647 
L 447.752684 312.712361 
L 448.237877 312.759113 
L 448.558287 312.762129 
L 448.851234 312.826977 
L 450.782851 312.934052 
L 450.947633 312.939331 
L 451.158189 312.939331 
L 451.286353 312.928774 
L 451.734927 312.951396 
L 451.918019 312.951019 
L 452.540531 313.021899 
L 452.751086 312.992868 
L 452.952487 312.970624 
L 453.282052 312.900874 
L 453.639081 312.98005 
L 454.41722 313.063749 
L 454.664394 313.027932 
L 455.85449 312.929528 
L 455.891108 312.48313 
L 456.0742 303.390778 
L 456.092509 303.488805 
L 456.367146 307.884924 
L 456.568547 309.739891 
L 456.650938 310.1697 
L 456.705866 309.939714 
L 456.760793 309.72481 
L 456.824876 309.87562 
L 456.934731 310.32051 
L 456.971349 310.128227 
L 457.236832 308.028194 
L 457.255141 308.039505 
L 457.941735 308.473084 
L 458.033281 308.533409 
L 458.097363 308.676678 
L 458.372 310.007579 
L 458.536783 310.109376 
L 458.738183 310.184781 
L 459.095212 310.294119 
L 459.140985 310.524104 
L 459.360695 311.523222 
L 459.36985 311.519452 
L 459.525478 311.576006 
L 459.69026 311.625019 
L 460.303617 311.730586 
L 460.486709 311.745667 
L 460.651491 311.738127 
L 460.770501 311.738127 
L 461.420476 311.843694 
L 461.54864 311.881397 
L 461.557795 311.873856 
L 461.704268 311.866316 
L 461.823278 311.873856 
L 462.363398 311.772059 
L 462.573954 311.089643 
L 462.610572 311.104724 
L 462.702118 310.999157 
L 462.747891 310.987846 
L 462.793664 311.059481 
L 463.049992 311.459128 
L 463.08661 311.312088 
L 463.269702 310.561807 
L 463.297166 310.576888 
L 463.498567 310.60705 
L 463.635885 310.392145 
L 463.782359 309.626783 
L 463.818977 309.524986 
L 463.883059 309.656945 
L 463.919677 309.524986 
L 464.047842 306.663361 
L 464.652044 283.069093 
L 464.661199 283.069093 
L 464.716126 282.616663 
L 464.752745 283.031391 
L 464.890063 289.101504 
L 465.118928 294.229054 
L 465.421029 297.433772 
L 465.823831 310.991616 
L 466.080159 311.398804 
L 466.60197 311.496831 
L 466.785062 311.48929 
L 467.004772 311.530763 
L 467.123782 311.587317 
L 467.316028 311.655181 
L 467.563202 311.658952 
L 467.682211 311.63256 
L 467.691366 311.643871 
L 468.112477 311.700424 
L 468.313877 311.730586 
L 468.451196 311.745667 
L 468.460351 311.738127 
L 468.927234 311.813532 
L 470.410277 311.919099 
L 470.593369 311.941721 
L 470.629987 311.971883 
L 470.748997 311.92287 
L 470.950397 311.945491 
L 471.087716 311.949261 
L 471.316581 311.93041 
L 471.408126 311.828613 
L 471.453899 311.843694 
L 471.783464 311.900248 
L 471.792619 311.877626 
L 471.984865 311.315858 
L 472.076411 311.466668 
L 472.222884 311.542074 
L 472.341894 311.704195 
L 472.598222 311.847464 
L 472.744696 311.572236 
L 472.891169 309.442041 
L 473.010179 309.886931 
L 473.293971 311.100954 
L 473.339744 310.739009 
L 473.513681 309.596621 
L 473.742545 309.702188 
L 473.953101 309.984958 
L 474.209429 311.297007 
L 474.822786 311.436506 
L 474.932641 311.319628 
L 474.978414 311.444047 
L 475.097423 311.738127 
L 475.134042 311.651411 
L 475.198124 311.572236 
L 475.243897 311.658952 
L 475.463607 311.817302 
L 476.012882 311.911559 
L 476.022036 311.93041 
L 476.067809 311.798451 
L 476.104428 310.105606 
L 476.287519 299.729859 
L 476.305828 299.658224 
L 476.342447 300.03902 
L 476.498075 307.123333 
L 476.571311 309.091407 
L 476.60793 307.485277 
L 476.791021 301.716784 
L 476.946649 301.173867 
L 476.964958 301.21911 
L 477.010731 302.195607 
L 477.294523 311.247994 
L 477.395224 311.391263 
L 477.614934 311.700424 
L 477.880417 311.870086 
L 477.962808 311.877626 
L 477.981117 311.900248 
L 478.1459 311.937951 
L 478.292373 311.986964 
L 478.548701 312.054829 
L 478.878266 312.145315 
L 479.00643 312.18905 
L 480.773265 312.475589 
L 480.78242 312.398676 
L 480.846502 310.147079 
L 480.910584 311.297007 
L 480.956357 311.836154 
L 480.974666 311.270615 
L 481.020439 308.838799 
L 481.10283 309.709729 
L 481.194376 311.549614 
L 481.22184 310.275267 
L 481.267613 307.492818 
L 481.331695 309.513675 
L 481.368313 310.829495 
L 481.395777 308.54849 
L 481.450704 305.954553 
L 481.505632 308.292112 
L 481.670414 312.330811 
L 481.871815 312.627531 
L 482.210535 312.775702 
L 482.704882 312.805864 
L 483.940751 312.9103 
L 484.068915 312.884285 
L 484.792127 312.994377 
L 485.167465 313.038112 
L 485.323093 312.992114 
L 485.59773 313.082978 
L 485.954759 313.108992 
L 486.119542 313.15235 
L 486.128696 313.087125 
L 486.266015 311.447817 
L 486.357561 310.033971 
L 486.403334 310.482631 
L 486.687126 312.783242 
L 486.723744 312.523849 
L 486.760362 312.340614 
L 486.842754 312.442034 
L 487.1357 312.831501 
L 487.337101 313.029063 
L 487.593429 313.107107 
L 487.767367 309.800215 
L 487.803985 310.279038 
L 488.01454 312.631301 
L 488.215941 312.994377 
L 488.691979 313.264327 
L 489.415191 313.374796 
L 489.55251 313.392516 
L 489.735602 313.418908 
L 489.946157 313.412121 
L 490.138404 313.371402 
L 490.889079 313.391385 
L 490.953161 310.829495 
L 491.117944 300.246384 
L 491.136253 300.18606 
L 491.172871 300.529153 
L 491.282726 304.627422 
L 491.520746 311.270615 
L 491.813692 312.013356 
L 492.179876 312.527242 
L 492.930551 312.636579 
L 493.095334 312.60604 
L 493.269271 312.330811 
L 493.28758 312.342122 
L 493.607991 312.660332 
L 493.635454 312.523849 
L 493.699536 312.249374 
L 493.763618 312.374546 
L 494.074874 312.731967 
L 494.495985 312.756096 
L 496.033955 312.866188 
L 496.308593 312.914447 
L 496.683931 312.917086 
L 496.92195 312.917086 
L 497.114196 311.655181 
L 497.297288 311.395034 
L 497.46207 311.372412 
L 497.498688 310.769171 
L 497.626853 301.746946 
L 497.690935 302.764916 
L 498.047963 310.716387 
L 498.276828 311.19521 
L 498.56062 311.157507 
L 498.789485 310.094295 
L 499.238059 310.16216 
L 499.466924 311.255534 
L 499.521851 311.19521 
L 499.650015 311.104724 
L 499.677479 311.131116 
L 499.915498 311.255534 
L 500.135208 311.180129 
L 500.391537 310.1697 
L 500.483083 310.124457 
L 500.501392 309.615472 
L 500.666174 303.11932 
L 500.684483 303.149482 
L 500.75772 305.351312 
L 500.986585 311.700424 
L 501.270377 312.485769 
L 501.563323 312.72141 
L 501.85627 312.614335 
L 501.883734 312.250128 
L 501.966125 309.969876 
L 502.021052 310.297889 
L 502.240762 311.511912 
L 502.323154 311.621249 
L 502.561173 312.22449 
L 502.808347 312.563059 
L 503.028057 312.718394 
L 503.165375 312.722918 
L 503.17453 312.652037 
L 503.238612 311.063251 
L 503.311849 311.572236 
L 503.586486 312.525357 
L 504.263925 312.664102 
L 504.355471 312.575124 
L 504.666727 306.814171 
L 504.721654 307.707722 
L 504.968828 311.798451 
L 505.243466 312.400184 
L 505.47233 312.609056 
L 505.728659 312.731967 
L 506.927909 312.838288 
L 507.156774 312.842058 
L 507.522957 312.78475 
L 507.724358 311.919099 
L 508.511652 311.821073 
L 508.777135 311.112264 
L 508.795444 311.119805 
L 509.115854 311.104724 
L 510.031313 311.025548 
L 510.269332 310.490172 
L 510.580588 310.501483 
L 511.660828 310.399686 
L 511.880538 309.566459 
L 511.944621 309.754972 
L 512.109403 309.909552 
L 512.338268 310.181011 
L 512.384041 310.033971 
L 512.466432 309.811526 
L 512.521359 309.920863 
L 512.585441 309.958566 
L 512.62206 309.883161 
L 512.768533 309.491054 
L 512.84177 309.615472 
L 512.988243 309.822836 
L 513.043171 309.713499 
L 513.226262 309.321392 
L 513.235417 309.325163 
L 513.473436 309.340244 
L 513.94032 309.415649 
L 514.26073 309.521216 
L 514.462131 309.551378 
L 514.608604 309.607932 
L 514.718459 309.540067 
L 514.800851 309.506135 
L 514.837469 309.532527 
L 515.698 309.777593 
L 515.789545 309.73235 
L 515.826164 309.747431 
L 516.759931 309.856769 
L 517.11696 309.886931 
L 517.592998 309.800215 
L 517.87679 309.894471 
L 520.614011 309.807755 
L 520.687247 309.762512 
L 520.73302 309.777593 
L 521.126667 309.672026 
L 521.209059 309.408108 
L 521.236522 309.351554 
L 521.300605 309.475973 
L 521.520315 309.766283 
L 521.529469 309.762512 
L 523.140676 309.849228 
L 523.204758 310.414767 
L 523.397004 312.009585 
L 523.58925 312.211671 
L 523.863888 312.217327 
L 527.177847 312.319501 
L 527.388402 312.409233 
L 530.134777 312.304797 
L 530.226323 312.058599 
L 530.336178 311.704195 
L 530.381951 311.813532 
L 530.638279 312.092531 
L 530.867144 312.141544 
L 531.114318 312.243341 
L 531.2791 312.30442 
L 531.645283 312.335336 
L 531.810066 312.341368 
L 532.038931 312.444673 
L 532.249486 312.733475 
L 534.766996 312.838665 
L 535.050788 313.137646 
L 535.380353 313.201741 
L 535.563445 313.201741 
L 540.900567 313.151973 
L 541.074504 312.39189 
L 541.248441 312.353433 
L 543.884961 312.284437 
L 544.095517 309.822836 
L 544.177908 302.116431 
L 544.306072 298.074716 
L 544.434236 292.230818 
L 544.507473 293.399597 
L 544.690564 299.688386 
L 544.763801 299.416927 
L 544.882811 297.735393 
L 545.111675 288.30975 
L 545.194066 290.609607 
L 545.587714 307.108251 
L 545.734187 308.243099 
L 545.752496 307.922627 
L 546.017979 301.675311 
L 546.155298 299.575278 
L 546.201071 299.967385 
L 546.786964 309.419419 
L 547.281311 311.157507 
L 547.793968 311.794681 
L 550.082614 312.617351 
L 551.611429 312.643366 
L 551.721284 311.074562 
L 551.849448 311.523222 
L 552.105777 312.130234 
L 552.774061 312.540815 
L 553.01208 312.57814 
L 553.771911 312.680691 
L 553.936693 312.701805 
L 554.778915 312.736868 
L 554.852152 310.181011 
L 554.925388 311.6401 
L 554.98947 312.331188 
L 555.016934 311.308318 
L 555.062707 309.540067 
L 555.126789 310.942603 
L 555.300726 312.705575 
L 555.483818 312.82283 
L 555.685219 312.870712 
L 555.914083 312.877499 
L 556.170412 312.849976 
L 556.463358 312.902005 
L 559.832245 312.810388 
L 559.997027 311.968113 
L 560.216737 310.124457 
L 560.225892 310.131998 
L 560.299129 310.708847 
L 560.527993 312.032207 
L 560.885022 312.406971 
L 561.168814 312.492932 
L 561.525843 312.574747 
L 561.727244 312.600008 
L 561.882872 312.611318 
L 562.377219 312.679183 
L 562.844103 312.682199 
L 562.926494 312.557027 
L 563.100431 312.563059 
L 563.155359 312.556273 
L 563.164513 312.4869 
L 563.246904 310.953914 
L 563.320141 311.466668 
L 563.494078 311.998275 
L 563.512387 312.005815 
L 563.539851 311.911559 
L 563.585624 311.805992 
L 563.640551 311.919099 
L 563.668015 311.964342 
L 563.713788 311.817302 
L 563.759561 311.704195 
L 563.814489 311.802221 
L 564.043353 312.278782 
L 564.372918 312.494818 
L 565.901734 312.915955 
L 566.075671 312.969116 
L 567.018593 313.050176 
L 567.421394 312.885039 
L 567.567868 311.436506 
L 567.677723 310.878508 
L 567.860814 310.591969 
L 568.043906 310.539185 
L 568.254461 310.505253 
L 568.382626 310.622131 
L 568.721345 312.807372 
L 568.931901 312.899743 
L 569.124147 312.921988 
L 569.133301 312.855254 
L 569.288929 310.656063 
L 569.536103 310.516564 
L 569.755813 310.501483 
L 569.883977 310.486402 
L 569.893132 310.497712 
L 569.92975 310.61459 
L 570.067069 311.858775 
L 570.131151 311.474209 
L 570.286779 311.255534 
L 570.295933 311.263075 
L 570.442407 311.251764 
L 570.570571 311.255534 
L 570.817745 311.240453 
L 572.868371 311.134886 
L 572.996535 311.119805 
L 573.399337 311.315858 
L 573.710593 311.074562 
L 573.911994 310.214943 
L 574.085931 310.1697 
L 575.20279 310.064133 
L 575.495737 309.453351 
L 575.605592 309.558918 
L 575.788683 309.57777 
L 575.935157 309.551378 
L 575.944311 309.558918 
L 576.154867 309.528756 
L 576.530205 309.423189 
L 576.658369 309.068785 
L 576.713296 309.095177 
L 577.802692 308.985839 
L 578.022402 308.948137 
L 578.297039 308.85388 
L 578.608295 308.450463 
L 579.03856 308.344896 
L 579.194188 308.25441 
L 581.318052 308.269491 
L 581.336361 307.877384 
L 581.427907 308.020654 
L 581.693389 308.175234 
L 581.849017 308.160153 
L 582.050418 308.235558 
L 582.059573 308.186545 
L 582.279283 305.257055 
L 582.315901 305.585068 
L 582.361674 306.463538 
L 582.389138 305.234434 
L 582.434911 304.137289 
L 582.489838 305.076083 
L 582.718703 308.687989 
L 582.883485 309.193204 
L 583.075731 309.261068 
L 583.982035 309.366635 
L 584.384837 310.199862 
L 587.122057 310.090525 
L 587.16783 310.007579 
L 587.213603 310.143308 
L 587.323458 310.350672 
L 587.350922 310.305429 
L 587.424158 309.702188 
L 587.488241 309.992498 
L 587.561477 310.1697 
L 587.598096 310.049052 
L 587.634714 309.988728 
L 587.698796 310.101835 
L 587.872733 310.335591 
L 587.94597 309.796445 
L 588.037516 310.007579 
L 588.495245 310.712617 
L 588.751573 312.169444 
L 588.92551 312.334582 
L 589.154375 312.443919 
L 589.731113 312.540438 
L 590.747272 312.513292 
L 590.774736 312.191312 
L 590.976137 296.07648 
L 590.985291 295.887967 
L 591.040219 296.755126 
L 591.168383 304.404977 
L 591.369784 310.746549 
L 591.66273 311.726816 
L 591.809204 311.994504 
L 591.818358 311.975653 
L 591.90075 310.772941 
L 591.973986 310.968995 
L 592.019759 311.082102 
L 592.34017 312.202623 
L 592.752126 312.4032 
L 593.365483 312.510276 
L 593.521111 312.491424 
L 593.685893 312.388119 
L 593.804903 312.39189 
L 593.814057 312.4032 
L 594.372487 312.355318 
L 594.427415 311.557155 
L 594.500651 311.606168 
L 594.573888 311.591087 
L 594.610506 311.647641 
L 594.720361 311.873856 
L 594.75698 311.760749 
L 594.885144 310.840806 
L 594.994999 311.172588 
L 595.242172 311.851235 
L 595.452728 312.160396 
L 595.471037 312.130234 
L 595.489346 312.145315 
L 595.498501 312.103842 
L 595.525965 310.595739 
L 595.663283 297.094449 
L 595.83722 291.514469 
L 595.928766 293.173382 
L 595.95623 292.570141 
L 596.011157 293.324192 
L 596.194249 296.792829 
L 596.505505 308.691759 
L 596.71606 309.521216 
L 596.844224 310.011349 
L 596.880843 309.826607 
L 596.963234 304.616112 
L 597.036471 301.852513 
L 597.091398 302.508538 
L 597.485045 309.664486 
L 597.81461 310.478861 
L 597.961084 310.60328 
L 597.988547 310.437388 
L 598.006857 309.332703 
L 598.162484 296.3781 
L 598.290649 291.665279 
L 598.345576 292.570141 
L 598.858233 309.336473 
L 599.087097 310.16216 
L 599.361735 310.633442 
L 599.480744 310.75409 
L 599.526517 310.599509 
L 599.563136 309.215825 
L 599.6913 306.082742 
L 599.718764 306.195849 
L 600.020865 308.280801 
L 600.048329 307.711493 
L 600.249729 303.058996 
L 600.35043 302.934577 
L 600.387048 302.968509 
L 600.771541 303.4134 
L 600.780695 303.402089 
L 600.844777 303.488805 
L 601.265888 303.835668 
L 601.32997 303.941236 
L 601.641226 306.286335 
L 601.824318 307.96787 
L 602.053182 308.209167 
L 602.163037 308.25441 
L 602.217965 308.420301 
L 602.584148 311.48175 
L 602.813013 311.647641 
L 603.243278 311.756978 
L 603.444679 311.851235 
L 603.453834 311.843694 
L 603.701007 311.904018 
L 604.1862 312.009585 
L 604.369292 312.066139 
L 604.808712 312.130234 
L 605.330523 312.238817 
L 605.678397 312.275766 
L 607.838879 312.34363 
L 608.067743 311.919099 
L 608.177598 312.039748 
L 608.378999 312.115153 
L 608.488854 312.222228 
L 608.726873 312.374546 
L 609.166293 312.298387 
L 609.276148 312.084991 
L 609.34023 312.122693 
L 609.834578 312.38925 
L 610.539481 312.53252 
L 610.713418 312.554388 
L 611.290157 312.480868 
L 611.500712 312.511784 
L 611.903514 312.360596 
L 612.013369 311.387493 
L 612.086605 311.511912 
L 612.123224 311.361101 
L 612.187306 310.414767 
L 612.297161 308.868961 
L 612.342934 308.944367 
L 612.617571 309.479743 
L 612.864745 309.472203 
L 613.011218 309.279919 
L 613.066146 309.328933 
L 613.139382 309.332703 
L 613.176001 309.295 
L 613.359092 309.200744 
L 613.496411 309.215825 
L 613.505566 309.200744 
L 613.624575 308.341125 
L 613.73443 308.062126 
L 613.761894 308.103599 
L 614.41187 308.970758 
L 614.521725 309.072555 
L 614.540034 308.985839 
L 614.604116 306.222241 
L 614.778053 302.595254 
L 615.107618 299.537576 
L 615.162545 299.371684 
L 615.190009 299.537576 
L 615.254091 302.127742 
L 615.455492 308.326044 
L 615.592811 308.740773 
L 615.620274 308.6993 
L 615.702666 308.235558 
L 615.757593 308.589962 
L 615.968149 309.758742 
L 616.132931 309.973647 
L 616.142086 309.966106 
L 616.398414 309.042393 
L 616.48996 309.091407 
L 616.819525 309.468432 
L 617.066699 310.573118 
L 617.075853 310.569347 
L 617.258945 310.667374 
L 617.277254 310.652293 
L 617.551892 310.75786 
L 617.725829 310.972765 
L 617.982157 312.347023 
L 618.174403 312.397168 
L 618.384959 312.49067 
L 618.842688 312.596237 
L 619.062398 312.628662 
L 619.208871 312.656939 
L 619.465199 312.718394 
L 621.10387 312.614335 
L 621.158797 312.579648 
L 621.213725 312.634694 
L 621.286961 312.610941 
L 621.305271 312.579648 
L 621.42428 312.591713 
L 621.589063 312.614335 
L 621.708072 312.634694 
L 622.055946 312.756096 
L 623.657998 312.866188 
L 623.996718 312.836026 
L 624.28051 312.780226 
L 624.527684 312.815289 
L 625.168505 312.895973 
L 625.360751 312.917086 
L 628.619783 312.854877 
L 628.729638 310.399686 
L 628.876111 305.189191 
L 628.921884 305.660473 
L 629.095821 310.60705 
L 629.21483 309.332703 
L 629.297222 309.385487 
L 629.306376 309.408108 
L 629.782415 309.822836 
L 629.87396 309.781364 
L 629.956352 307.609696 
L 630.176062 303.168333 
L 630.31338 302.874253 
L 630.33169 302.900645 
L 630.386617 303.066536 
L 630.450699 305.4795 
L 630.633791 309.532527 
L 630.835192 309.902012 
L 631.027438 310.01889 
L 631.357003 310.116917 
L 631.521785 310.512793 
L 631.75065 312.550994 
L 631.97036 312.655053 
L 632.135142 312.68974 
L 632.318234 312.692756 
L 632.867509 312.780226 
L 634.881517 312.888809 
L 635.064609 312.933047 
L 635.302628 312.958182 
L 635.513184 312.923873 
L 635.595575 312.198475 
L 635.732894 309.087636 
L 635.851903 309.898242 
L 635.970913 311.119805 
L 636.02584 310.76163 
L 636.089922 310.580658 
L 636.14485 310.682455 
L 636.46526 311.089643 
L 636.511033 310.980305 
L 636.529342 310.882279 
L 636.565961 309.170582 
L 636.730743 296.943639 
L 636.877217 288.875289 
L 636.950453 290.157176 
L 637.106081 295.586346 
L 637.389873 300.646031 
L 637.453955 303.805506 
L 637.646201 311.7796 
L 637.78352 312.118923 
L 637.792675 312.084991 
L 637.838448 308.593733 
L 637.939148 300.442437 
L 638.021539 300.755369 
L 638.067312 300.834544 
L 638.131394 303.081617 
L 638.369414 311.244223 
L 638.607433 312.115153 
L 639.019389 312.454476 
L 639.577819 312.373415 
L 639.605282 310.723928 
L 639.934847 247.666381 
L 640.154557 200.613575 
L 640.191176 202.875729 
L 640.310185 212.904612 
L 640.676369 241.407754 
L 640.685523 241.407754 
L 640.868615 244.763283 
L 640.914388 244.499365 
L 640.923542 244.461663 
L 641.097479 239.673436 
L 641.189025 238.316144 
L 641.216489 239.183303 
L 641.308035 240.616 
L 641.747455 259.618095 
L 641.811537 259.39188 
L 641.848155 259.6935 
L 641.939701 263.011327 
L 642.305884 275.67939 
L 642.562213 287.781915 
L 642.846005 302.433133 
L 643.111488 307.847222 
L 643.184724 308.133761 
L 643.193879 307.779357 
L 643.221343 296.208439 
L 643.239652 289.855556 
L 643.340352 290.307987 
L 643.697381 252.605417 
L 643.71569 252.79393 
L 643.798081 251.926771 
L 643.862163 250.117048 
L 643.907936 251.210422 
L 644.283274 262.935921 
L 644.530448 281.221667 
L 644.786776 286.123001 
L 645.107187 291.325956 
L 645.436752 306.855644 
L 645.610689 308.028194 
L 645.619843 307.986721 
L 645.647307 299.658224 
L 645.775471 284.124765 
L 645.921945 266.479963 
L 645.986027 270.514138 
L 646.343055 286.763945 
L 646.516993 288.762181 
L 646.590229 287.254079 
L 646.947258 272.550077 
L 646.983876 273.04021 
L 647.002185 273.002507 
L 647.020495 273.19102 
L 647.066268 273.153318 
L 647.093731 273.19102 
L 647.35006 268.666712 
L 647.404987 269.646979 
L 647.441605 270.061707 
L 647.487378 269.420763 
L 647.496533 269.496168 
L 647.725398 261.126198 
L 648.00919 253.736495 
L 648.027499 253.887305 
L 648.054963 253.397171 
L 648.091581 253.736495 
L 648.238054 252.228392 
L 648.247209 252.228392 
L 648.466919 256.224864 
L 648.631701 267.422527 
L 649.126049 306.882036 
L 649.336604 309.717269 
L 649.483077 310.233794 
L 649.501387 309.920863 
L 649.666169 302.900645 
L 649.794333 304.642503 
L 649.922497 308.231788 
L 649.959116 306.825482 
L 650.014043 305.053461 
L 650.068971 306.704834 
L 650.114744 308.096059 
L 650.178826 306.897117 
L 650.18798 306.915968 
L 650.20629 306.731226 
L 650.279526 304.634963 
L 650.334454 305.988485 
L 650.343608 306.045039 
L 650.352763 305.837675 
L 650.444309 302.885564 
L 650.490082 304.084505 
L 650.535855 306.467308 
L 650.590782 303.699939 
L 650.664019 301.837432 
L 650.718946 302.176755 
L 650.801337 305.882918 
L 650.993584 310.938833 
L 651.18583 311.308318 
L 651.194985 311.221602 
L 651.378076 310.697536 
L 651.414695 310.780482 
L 651.799187 311.459128 
L 651.899887 311.496831 
L 651.909042 311.508141 
L 653.236457 311.937951 
L 653.392084 311.983194 
L 653.538558 311.994504 
L 653.968823 312.103842 
L 654.014596 312.145315 
L 654.087833 312.08122 
L 654.124451 312.051058 
L 654.133606 311.998275 
L 654.206842 311.149967 
L 654.280079 311.410115 
L 654.490634 311.960572 
L 654.746963 312.028437 
L 654.893436 312.084991 
L 655.067373 312.084991 
L 655.918749 312.317238 
L 656.623652 312.42356 
L 656.77928 312.437133 
L 656.925754 312.460885 
L 657.667275 312.358711 
L 657.822903 310.840806 
L 658.024304 310.75786 
L 658.353869 310.863427 
L 658.390487 310.863427 
L 658.43626 310.799333 
L 658.619351 310.727698 
L 658.628506 310.735239 
L 658.784134 310.720158 
L 659.104544 310.739009 
L 659.406646 310.622131 
L 659.626356 310.727698 
L 661.915001 310.837036 
L 662.198793 310.844576 
L 662.336112 310.837036 
L 662.601595 310.829495 
L 662.766378 310.772941 
L 662.775532 310.780482 
L 663.022706 310.844576 
L 663.81 310.742779 
L 663.993092 310.497712 
L 664.267729 310.501483 
L 664.276884 310.490172 
L 664.286038 310.497712 
" clip-path="url(#p9f23afcced)" style="fill: none; stroke: #1f77b4; stroke-width: 1.5; stroke-linecap: square"/>
   </g>
   <g id="line2d_19">
    <path d="M 75.454097 313.570736 
L 83.903777 313.62165 
L 84.041096 312.604042 
L 84.370661 312.506821 
L 84.50798 312.483283 
L 85.505829 312.530718 
L 85.60653 310.999282 
L 85.661457 311.001644 
L 86.018486 310.923263 
L 86.155805 310.693575 
L 86.988872 310.779194 
L 87.071263 309.270408 
L 87.126191 309.274107 
L 87.281818 309.240019 
L 87.355055 308.951998 
L 87.409983 308.956159 
L 87.702929 308.888758 
L 87.767011 308.691131 
L 87.821939 308.695497 
L 99.658815 309.559395 
L 101.883379 309.715631 
L 101.901688 308.01891 
L 101.974924 305.822163 
L 102.020697 305.827429 
L 102.414344 305.795513 
L 102.588281 304.57858 
L 102.698136 304.595076 
L 107.531756 305.291959 
L 107.623302 303.199383 
L 107.760621 303.222079 
L 110.882334 303.726017 
L 111.266826 301.383163 
L 111.504845 301.3844 
L 114.232911 301.980232 
L 114.296993 300.558718 
L 114.37023 300.572432 
L 116.118755 300.951525 
L 116.12791 300.901252 
L 116.173683 300.806935 
L 116.246919 300.821888 
L 124.35788 302.430849 
L 133.14628 303.951002 
L 142.59381 305.356925 
L 152.810324 306.649649 
L 163.191622 307.761599 
L 163.338095 307.638725 
L 163.383868 307.549324 
L 163.438796 307.342359 
L 163.502878 307.348588 
L 168.354807 307.850334 
L 168.437198 307.08551 
L 168.510435 307.09321 
L 168.574517 307.000137 
L 168.711835 306.989003 
L 170.927245 307.232511 
L 174.680624 307.15962 
L 174.781324 306.574986 
L 174.836251 306.581039 
L 175.760864 306.688664 
L 178.717795 306.800904 
L 181.546561 307.091581 
L 181.619798 306.801841 
L 181.68388 306.808963 
L 192.77008 307.955602 
L 202.959131 308.848411 
L 203.123913 308.391425 
L 203.151377 308.300387 
L 203.233768 308.157678 
L 203.270387 308.161003 
L 203.673188 308.164372 
L 203.75558 307.661758 
L 203.801353 307.666061 
L 206.062535 307.820591 
L 206.209008 306.608561 
L 206.227317 306.610281 
L 218.338831 307.858291 
L 218.915569 307.828021 
L 218.997961 307.281851 
L 219.062043 307.288321 
L 219.33668 307.210442 
L 219.501463 307.213708 
L 231.118629 308.343131 
L 232.748144 308.407659 
L 232.775608 307.981479 
L 232.867154 307.170523 
L 232.894618 307.172644 
L 235.897321 307.434753 
L 235.933939 306.049739 
L 236.007176 304.235429 
L 236.062103 304.242975 
L 239.778864 304.781035 
L 239.842946 303.919807 
L 239.907028 303.928916 
L 241.023888 304.010336 
L 241.078815 303.918404 
L 241.142897 303.928506 
L 246.571565 304.777698 
L 246.653956 302.660129 
L 246.727193 302.672291 
L 246.772966 302.70246 
L 246.855357 301.466567 
L 246.937748 301.481896 
L 249.665814 302.025275 
L 249.674969 301.97523 
L 249.720741 301.880643 
L 249.793978 301.894297 
L 249.85806 301.942194 
L 249.931297 300.636946 
L 250.004534 300.651324 
L 258.060567 302.271274 
L 266.794039 303.804027 
L 273.952923 304.930074 
L 274.02616 303.716692 
L 274.108551 303.72915 
L 274.419807 303.813545 
L 274.502198 301.876637 
L 274.584589 301.890467 
L 279.326663 302.783886 
L 279.354127 301.364757 
L 279.491446 297.431298 
L 279.51891 297.437401 
L 283.226516 298.405103 
L 283.23567 298.361547 
L 283.391298 296.626677 
L 283.437071 296.364551 
L 283.510308 296.383453 
L 290.660037 298.310116 
L 296.253488 299.615608 
L 296.573898 299.662188 
L 296.665444 297.854373 
L 296.720371 297.48008 
L 296.784453 297.495799 
L 298.73438 297.983962 
L 298.844235 296.692299 
L 298.917471 296.711654 
L 302.057493 297.538298 
L 302.194812 296.196059 
L 302.359594 296.242182 
L 303.513072 296.494511 
L 303.540536 295.502145 
L 303.595463 294.470286 
L 303.659545 294.486582 
L 303.714473 294.484583 
L 303.723627 294.399231 
L 303.7694 294.197865 
L 303.842637 294.219028 
L 304.089811 294.291814 
L 304.098965 294.235327 
L 304.135584 294.157335 
L 304.217975 294.182328 
L 305.664399 294.627375 
L 305.847491 291.920496 
L 305.856645 291.921596 
L 306.799567 292.083371 
L 306.955195 291.330981 
L 307.028432 291.356425 
L 308.749493 291.959434 
L 308.758648 291.898302 
L 308.841039 290.392238 
L 308.978358 290.443056 
L 309.097368 290.518048 
L 309.271305 288.222595 
L 309.289614 288.227051 
L 309.518478 288.310047 
L 309.527633 288.264104 
L 309.628333 287.366484 
L 309.710725 287.397633 
L 311.816279 288.301408 
L 311.825433 288.25694 
L 311.852897 288.177953 
L 311.935288 288.208742 
L 312.67681 288.522611 
L 312.695119 288.431033 
L 312.750046 287.498463 
L 312.823283 287.52658 
L 316.61328 289.101062 
L 316.659053 288.707736 
L 316.741445 288.737014 
L 316.860454 288.793164 
L 316.869609 288.734282 
L 316.924536 287.592542 
L 316.979464 286.357006 
L 317.043546 286.383035 
L 319.854003 287.622192 
L 319.863157 287.568171 
L 319.918085 286.18363 
L 319.991322 286.211714 
L 320.073713 286.271273 
L 320.24765 280.565051 
L 320.339196 280.610072 
L 320.394123 280.627125 
L 320.439896 279.968057 
L 320.522287 280.006576 
L 321.108181 280.297183 
L 321.117335 280.277794 
L 321.172263 279.322378 
L 321.254654 279.363359 
L 321.858857 279.721367 
L 321.904629 279.293665 
L 321.987021 279.335268 
L 322.490523 279.632795 
L 322.499677 279.522321 
L 322.627842 279.12617 
L 322.76516 279.2116 
L 322.774315 279.097078 
L 322.820088 278.462072 
L 322.902479 278.502225 
L 323.451754 278.72178 
L 323.524991 277.819969 
L 323.561609 277.617178 
L 323.644 277.662331 
L 323.753855 277.79418 
L 323.808783 276.06595 
L 323.891174 276.11017 
L 324.358058 276.409734 
L 324.367212 276.318528 
L 324.541149 272.366653 
L 324.596077 271.657148 
L 324.669314 271.703306 
L 324.770014 271.777763 
L 324.870714 265.468034 
L 324.907333 265.488515 
L 327.836799 267.786879 
L 327.891727 266.982613 
L 327.974118 267.041228 
L 328.605784 267.491818 
L 328.624093 267.418308 
L 328.798031 263.179347 
L 328.880422 255.476604 
L 328.953658 255.536501 
L 333.183076 259.478506 
L 333.43025 254.163071 
L 333.576723 254.301047 
L 338.016696 258.499297 
L 342.53906 262.470465 
L 345.303744 264.663146 
L 347.15297 266.146744 
L 347.162124 266.05698 
L 347.217052 265.225628 
L 347.290288 265.27947 
L 349.67048 267.071998 
L 349.707098 266.969361 
L 349.78949 266.99326 
L 357.634967 272.666632 
L 359.804604 274.12841 
L 359.859531 273.36519 
L 359.932768 273.410769 
L 362.020013 274.776486 
L 362.029167 274.756886 
L 362.111559 273.93002 
L 362.175641 273.93814 
L 362.331269 274.071271 
L 362.395351 272.637896 
L 362.477742 272.686507 
L 364.381895 273.939067 
L 364.400204 273.908507 
L 364.436823 271.450472 
L 364.592451 266.292382 
L 364.619914 266.240178 
L 364.665687 264.527591 
L 364.812161 261.100778 
L 364.821315 261.104186 
L 364.967788 261.213661 
L 364.976943 261.138653 
L 365.077643 260.002261 
L 365.178344 260.083254 
L 368.025419 262.556354 
L 368.034574 262.465792 
L 368.098656 261.968679 
L 368.171893 262.02336 
L 372.794957 265.820588 
L 376.6765 268.792324 
L 376.713119 268.486798 
L 376.804664 268.54568 
L 381.610821 271.98975 
L 386.435286 275.176856 
L 386.847242 275.428329 
L 386.90217 274.583414 
L 386.975406 274.618301 
L 386.984561 274.667062 
L 386.993715 274.356786 
L 387.039488 273.279866 
L 387.112725 273.319241 
L 387.12188 273.328053 
L 387.140189 273.241809 
L 387.268353 272.580939 
L 387.369053 272.645276 
L 387.698618 272.870972 
L 387.716928 272.779679 
L 387.744391 272.687537 
L 387.826783 272.736109 
L 388.174657 272.918437 
L 393.15475 276.136865 
L 397.851051 278.947815 
L 397.915133 277.576847 
L 398.061606 277.659585 
L 400.478416 279.034406 
L 400.496726 278.384068 
L 400.62489 274.504579 
L 400.753054 274.574711 
L 402.309333 275.450721 
L 402.318488 275.444694 
L 402.327642 275.494538 
L 402.400879 273.630339 
L 402.48327 273.684469 
L 402.519888 273.616771 
L 402.60228 273.668583 
L 404.02124 274.473014 
L 404.524742 274.725009 
L 404.57967 273.738811 
L 404.652906 273.783116 
L 404.927544 273.966829 
L 404.955008 273.913733 
L 405.009935 273.44864 
L 405.110635 273.509945 
L 405.147254 273.527404 
L 405.211336 271.912396 
L 405.348655 271.998217 
L 405.467664 272.084773 
L 405.504283 271.978953 
L 405.568365 271.760106 
L 405.696529 271.846478 
L 405.833848 271.930314 
L 405.888775 270.990794 
L 405.962012 271.0416 
L 406.007785 270.944486 
L 406.09933 268.711717 
L 406.172567 268.737485 
L 406.492978 268.968566 
L 408.140802 270.198752 
L 408.19573 268.841565 
L 408.287276 268.899269 
L 413.111741 272.328866 
L 418.036907 275.564033 
L 418.073525 275.466797 
L 418.155916 275.515389 
L 422.586735 278.192206 
L 422.614198 278.173254 
L 422.687435 278.214636 
L 422.861372 278.28941 
L 422.934609 277.476835 
L 423.017 277.532907 
L 423.053618 276.162474 
L 423.264174 263.967017 
L 423.374029 263.662644 
L 423.410647 263.685829 
L 431.118806 269.560357 
L 431.127961 269.528415 
L 431.173734 269.295424 
L 431.265279 269.357002 
L 433.727862 271.256107 
L 433.819408 263.309285 
L 433.892645 263.360978 
L 438.552328 267.088071 
L 439.632568 268.016698 
L 439.779042 263.857534 
L 439.879742 263.909766 
L 440.410708 264.336508 
L 440.419863 264.274523 
L 440.548027 263.962355 
L 440.602954 263.290761 
L 440.612109 263.339672 
L 440.667036 261.778364 
L 440.740273 261.834797 
L 445.171091 265.508624 
L 445.235173 264.241683 
L 445.345028 264.327449 
L 446.214714 265.034478 
L 446.260487 264.963296 
L 446.324569 264.287384 
L 446.379496 263.762443 
L 446.471042 263.830246 
L 447.075245 264.289415 
L 451.753237 267.961575 
L 455.799562 270.877826 
L 455.836181 270.89993 
L 455.845335 270.79184 
L 455.936881 268.257911 
L 456.037581 268.329217 
L 456.29391 268.473515 
L 456.39461 267.444998 
L 456.495311 267.512646 
L 461.264848 271.00974 
L 463.590112 272.618646 
L 463.599267 272.604128 
L 463.663349 271.965953 
L 463.754895 272.024923 
L 468.69837 275.290685 
L 471.728537 277.18343 
L 471.801774 275.312826 
L 471.920783 275.384959 
L 472.598222 275.842898 
L 472.744696 272.914002 
L 472.799623 272.946035 
L 476.012882 275.216947 
L 476.076964 270.057014 
L 476.150201 270.100277 
L 481.029593 273.474387 
L 486.027996 276.660118 
L 486.092078 276.709462 
L 486.101232 276.622605 
L 486.284324 272.965336 
L 486.385024 273.027517 
L 487.565966 273.785433 
L 487.57512 273.701783 
L 487.630048 272.582961 
L 487.721594 272.636794 
L 492.390431 275.680523 
L 492.399586 275.669574 
L 492.481977 273.910745 
L 492.546059 273.944982 
L 493.040406 274.257158 
L 493.086179 273.564492 
L 493.168571 273.611503 
L 498.176128 276.791949 
L 499.375378 277.500825 
L 499.384533 277.417784 
L 499.521851 276.093915 
L 499.613397 276.146105 
L 500.43731 276.74239 
L 500.519701 273.845326 
L 500.574628 273.873527 
L 505.728659 277.121703 
L 510.900998 280.115023 
L 511.459428 280.405071 
L 511.468582 280.378105 
L 511.569283 279.700935 
L 511.62421 279.724047 
L 511.669983 279.725352 
L 511.871384 277.614802 
L 511.898848 277.462258 
L 512.036166 276.116324 
L 512.173485 276.198001 
L 512.18264 276.204076 
L 512.191794 276.189403 
L 512.237567 275.715991 
L 512.319958 275.762332 
L 516.668385 278.354336 
L 521.703406 281.163269 
L 527.113765 283.942837 
L 529.457338 285.074695 
L 529.475647 284.996309 
L 529.503111 284.957804 
L 529.585502 284.994337 
L 530.015768 285.242917 
L 530.18055 282.105121 
L 530.198859 282.111075 
L 542.346991 287.849617 
L 543.170904 288.207327 
L 543.180058 288.125014 
L 543.225831 287.700333 
L 543.299068 287.727792 
L 543.884961 287.949057 
L 543.894116 287.87901 
L 544.187062 282.190819 
L 544.251144 282.221177 
L 544.516627 282.31947 
L 544.525782 282.299863 
L 544.626482 281.212266 
L 544.708874 281.253113 
L 544.736337 281.249813 
L 544.800419 280.143336 
L 544.910274 280.200867 
L 545.752496 280.598902 
L 545.807424 279.698814 
L 545.88066 279.736379 
L 551.208628 282.595635 
L 551.510729 282.768571 
L 551.693821 280.412861 
L 551.757903 280.442685 
L 557.040097 283.224092 
L 557.104179 282.280503 
L 557.268962 282.36263 
L 557.955555 282.702857 
L 557.96471 282.603974 
L 558.019637 282.00065 
L 558.102029 282.039837 
L 559.575917 282.822674 
L 559.749854 279.708996 
L 559.832245 279.751904 
L 559.878018 279.760248 
L 559.887172 279.677724 
L 559.9421 279.083829 
L 560.024491 279.12535 
L 562.889876 280.724026 
L 562.89903 280.685445 
L 562.953958 279.822463 
L 563.027194 279.86013 
L 563.402532 280.086036 
L 563.448305 279.670879 
L 563.530696 279.712166 
L 566.698182 281.450261 
L 566.707337 281.395254 
L 566.734801 281.295511 
L 566.817192 281.334528 
L 567.51294 281.663047 
L 567.567868 281.014392 
L 567.641104 281.051222 
L 572.950763 283.786177 
L 578.553367 286.428228 
L 578.992787 286.644325 
L 579.066024 285.72459 
L 579.148415 285.757782 
L 581.107496 286.664806 
L 581.153269 286.213033 
L 581.23566 286.245025 
L 581.620153 286.400626 
L 581.665926 286.056557 
L 581.748317 286.090357 
L 586.737565 288.29908 
L 586.792492 287.623885 
L 586.865729 287.652635 
L 587.451622 287.915984 
L 587.50655 286.62657 
L 587.588941 286.658181 
L 587.634714 286.686123 
L 587.643868 286.624603 
L 587.854424 285.714473 
L 587.982588 285.735966 
L 589.630413 286.414295 
L 589.639568 286.391989 
L 589.667031 286.353482 
L 589.749423 286.388391 
L 590.518408 286.748353 
L 590.56418 286.360484 
L 590.646572 286.392985 
L 590.692345 286.412763 
L 590.701499 286.385057 
L 590.875436 278.757509 
L 590.976137 278.819525 
L 591.02191 278.561815 
L 591.104301 278.606335 
L 591.772585 278.981113 
L 591.818358 278.38929 
L 591.90075 278.430234 
L 594.070386 279.684233 
L 594.152777 278.069589 
L 594.29925 278.151893 
L 594.583042 278.262296 
L 594.619661 277.078229 
L 594.692897 275.88575 
L 594.75698 275.917982 
L 595.461882 276.279102 
L 595.471037 276.236031 
L 595.507655 275.527443 
L 595.571737 273.772399 
L 595.63582 273.810748 
L 595.873839 273.923202 
L 595.882993 273.848408 
L 595.95623 272.732759 
L 596.047776 272.791384 
L 596.139322 272.839099 
L 596.157631 272.749642 
L 596.267486 272.52227 
L 596.322413 272.555135 
L 596.423114 272.627279 
L 596.432268 272.590133 
L 596.523814 271.436056 
L 596.606205 271.488463 
L 596.706906 271.569405 
L 596.71606 271.473827 
L 596.926616 269.176787 
L 597.384345 269.507803 
L 597.924465 269.911841 
L 597.93362 269.808563 
L 598.061784 266.404672 
L 598.180794 266.492341 
L 599.47159 267.496282 
L 599.480744 267.401896 
L 599.563136 265.088777 
L 599.645527 265.144881 
L 602.044028 267.019352 
L 602.053182 266.990956 
L 602.089801 266.852949 
L 602.172192 266.912822 
L 606.932575 270.448812 
L 609.001511 271.887 
L 609.010665 271.815113 
L 609.147984 270.961735 
L 609.166293 270.971693 
L 611.802813 272.794922 
L 611.830277 272.65892 
L 611.903514 271.606529 
L 611.985905 271.655967 
L 612.782354 272.158639 
L 612.791508 272.083107 
L 612.837281 271.51802 
L 612.919672 271.566409 
L 613.459793 271.944424 
L 613.478102 271.835744 
L 613.542184 271.541642 
L 613.624575 271.595293 
L 615.254091 272.715471 
L 615.29071 272.618922 
L 615.400564 271.928089 
L 615.464647 271.967236 
L 620.426431 275.249139 
L 620.966551 275.592976 
L 620.98486 275.488504 
L 621.012324 275.407333 
L 621.094715 275.45475 
L 621.149643 275.516234 
L 621.195416 274.842497 
L 621.277807 274.887346 
L 621.98271 275.326526 
L 622.010174 275.228556 
L 622.174956 274.967563 
L 622.312275 275.043032 
L 626.614929 277.656954 
L 627.750097 278.329134 
L 627.759252 278.297242 
L 627.805025 277.993209 
L 627.878261 278.033148 
L 628.619783 278.43463 
L 628.693019 276.31222 
L 628.821183 276.384273 
L 633.856204 279.355031 
L 633.938595 279.404072 
L 634.002677 278.147855 
L 634.085069 278.193071 
L 635.467411 278.941311 
L 635.476565 278.912123 
L 635.504029 278.708968 
L 635.650502 274.980958 
L 635.668812 274.988912 
L 636.446951 275.505123 
L 636.492724 274.9418 
L 636.575115 274.987809 
L 637.792675 275.764455 
L 637.801829 275.709896 
L 637.994076 274.571731 
L 638.12224 274.638681 
L 639.5412 275.549207 
L 639.559509 274.236493 
L 639.687674 271.055749 
L 639.989775 271.23007 
L 640.923542 271.856081 
L 641.024243 269.687105 
L 641.189025 269.802664 
L 641.536899 270.057959 
L 641.564363 269.950502 
L 641.674218 268.721179 
L 641.839001 268.838566 
L 643.17557 269.840005 
L 643.248806 265.936321 
L 643.39528 266.046816 
L 643.788927 266.356701 
L 643.798081 266.319845 
L 643.853009 265.00131 
L 643.9354 265.059972 
L 645.601534 266.380415 
L 645.610689 266.35787 
L 645.683925 264.005433 
L 645.784626 264.083817 
L 646.01349 264.272789 
L 646.0318 264.14502 
L 646.059263 264.015122 
L 646.141655 264.075606 
L 646.361365 264.2466 
L 646.370519 264.154234 
L 646.480374 263.433025 
L 646.526147 263.46231 
L 646.91064 263.789367 
L 646.919794 263.715493 
L 646.947258 263.584642 
L 647.029649 263.646117 
L 647.267668 263.786096 
L 647.295132 263.723384 
L 647.505688 263.889037 
L 648.640856 264.816313 
L 648.659165 264.696859 
L 648.686629 264.594448 
L 648.76902 264.655368 
L 649.592932 265.332726 
L 649.602087 265.200779 
L 649.638705 264.72736 
L 649.721097 264.782829 
L 651.176675 265.951904 
L 651.18583 265.824508 
L 651.240757 263.821751 
L 651.313994 263.874714 
L 654.005442 266.088712 
L 654.060369 264.824347 
L 654.14276 264.884789 
L 658.839061 268.52634 
L 663.645218 271.971886 
L 664.286038 272.410975 
L 664.286038 272.410975 
" clip-path="url(#p9f23afcced)" style="fill: none; stroke: #ff7f0e; stroke-width: 1.5; stroke-linecap: square"/>
   </g>
   <g id="patch_3">
    <path d="M 46.0125 327.558125 
L 46.0125 22.318125 
" style="fill: none; stroke: #000000; stroke-width: 0.8; stroke-linejoin: miter; stroke-linecap: square"/>
   </g>
   <g id="patch_4">
    <path d="M 693.727635 327.558125 
L 693.727635 22.318125 
" style="fill: none; stroke: #000000; stroke-width: 0.8; stroke-linejoin: miter; stroke-linecap: square"/>
   </g>
   <g id="patch_5">
    <path d="M 46.0125 327.558125 
L 693.727635 327.558125 
" style="fill: none; stroke: #000000; stroke-width: 0.8; stroke-linejoin: miter; stroke-linecap: square"/>
   </g>
   <g id="patch_6">
    <path d="M 46.0125 22.318125 
L 693.727635 22.318125 
" style="fill: none; stroke: #000000; stroke-width: 0.8; stroke-linejoin: miter; stroke-linecap: square"/>
   </g>
   <g id="text_18">
    <!-- training -->
    <g transform="translate(346.62663 16.318125) scale(0.12 -0.12)">
     <defs>
      <path id="DejaVuSans-74" d="M 1172 4494 
L 1172 3500 
L 2356 3500 
L 2356 3053 
L 1172 3053 
L 1172 1153 
Q 1172 725 1289 603 
Q 1406 481 1766 481 
L 2356 481 
L 2356 0 
L 1766 0 
Q 1100 0 847 248 
Q 594 497 594 1153 
L 594 3053 
L 172 3053 
L 172 3500 
L 594 3500 
L 594 4494 
L 1172 4494 
z
" transform="scale(0.015625)"/>
      <path id="DejaVuSans-72" d="M 2631 2963 
Q 2534 3019 2420 3045 
Q 2306 3072 2169 3072 
Q 1681 3072 1420 2755 
Q 1159 2438 1159 1844 
L 1159 0 
L 581 0 
L 581 3500 
L 1159 3500 
L 1159 2956 
Q 1341 3275 1631 3429 
Q 1922 3584 2338 3584 
Q 2397 3584 2469 3576 
Q 2541 3569 2628 3553 
L 2631 2963 
z
" transform="scale(0.015625)"/>
      <path id="DejaVuSans-61" d="M 2194 1759 
Q 1497 1759 1228 1600 
Q 959 1441 959 1056 
Q 959 750 1161 570 
Q 1363 391 1709 391 
Q 2188 391 2477 730 
Q 2766 1069 2766 1631 
L 2766 1759 
L 2194 1759 
z
M 3341 1997 
L 3341 0 
L 2766 0 
L 2766 531 
Q 2569 213 2275 61 
Q 1981 -91 1556 -91 
Q 1019 -91 701 211 
Q 384 513 384 1019 
Q 384 1609 779 1909 
Q 1175 2209 1959 2209 
L 2766 2209 
L 2766 2266 
Q 2766 2663 2505 2880 
Q 2244 3097 1772 3097 
Q 1472 3097 1187 3025 
Q 903 2953 641 2809 
L 641 3341 
Q 956 3463 1253 3523 
Q 1550 3584 1831 3584 
Q 2591 3584 2966 3190 
Q 3341 2797 3341 1997 
z
" transform="scale(0.015625)"/>
      <path id="DejaVuSans-69" d="M 603 3500 
L 1178 3500 
L 1178 0 
L 603 0 
L 603 3500 
z
M 603 4863 
L 1178 4863 
L 1178 4134 
L 603 4134 
L 603 4863 
z
" transform="scale(0.015625)"/>
      <path id="DejaVuSans-6e" d="M 3513 2113 
L 3513 0 
L 2938 0 
L 2938 2094 
Q 2938 2591 2744 2837 
Q 2550 3084 2163 3084 
Q 1697 3084 1428 2787 
Q 1159 2491 1159 1978 
L 1159 0 
L 581 0 
L 581 3500 
L 1159 3500 
L 1159 2956 
Q 1366 3272 1645 3428 
Q 1925 3584 2291 3584 
Q 2894 3584 3203 3211 
Q 3513 2838 3513 2113 
z
" transform="scale(0.015625)"/>
      <path id="DejaVuSans-67" d="M 2906 1791 
Q 2906 2416 2648 2759 
Q 2391 3103 1925 3103 
Q 1463 3103 1205 2759 
Q 947 2416 947 1791 
Q 947 1169 1205 825 
Q 1463 481 1925 481 
Q 2391 481 2648 825 
Q 2906 1169 2906 1791 
z
M 3481 434 
Q 3481 -459 3084 -895 
Q 2688 -1331 1869 -1331 
Q 1566 -1331 1297 -1286 
Q 1028 -1241 775 -1147 
L 775 -588 
Q 1028 -725 1275 -790 
Q 1522 -856 1778 -856 
Q 2344 -856 2625 -561 
Q 2906 -266 2906 331 
L 2906 616 
Q 2728 306 2450 153 
Q 2172 0 1784 0 
Q 1141 0 747 490 
Q 353 981 353 1791 
Q 353 2603 747 3093 
Q 1141 3584 1784 3584 
Q 2172 3584 2450 3431 
Q 2728 3278 2906 2969 
L 2906 3500 
L 3481 3500 
L 3481 434 
z
" transform="scale(0.015625)"/>
     </defs>
     <use xlink:href="#DejaVuSans-74"/>
     <use xlink:href="#DejaVuSans-72" x="39.208984"/>
     <use xlink:href="#DejaVuSans-61" x="80.322266"/>
     <use xlink:href="#DejaVuSans-69" x="141.601562"/>
     <use xlink:href="#DejaVuSans-6e" x="169.384766"/>
     <use xlink:href="#DejaVuSans-69" x="232.763672"/>
     <use xlink:href="#DejaVuSans-6e" x="260.546875"/>
     <use xlink:href="#DejaVuSans-67" x="323.925781"/>
    </g>
   </g>
   <g id="legend_1">
    <g id="patch_7">
     <path d="M 605.333885 59.674375 
L 686.727635 59.674375 
Q 688.727635 59.674375 688.727635 57.674375 
L 688.727635 29.318125 
Q 688.727635 27.318125 686.727635 27.318125 
L 605.333885 27.318125 
Q 603.333885 27.318125 603.333885 29.318125 
L 603.333885 57.674375 
Q 603.333885 59.674375 605.333885 59.674375 
z
" style="fill: #ffffff; opacity: 0.8; stroke: #cccccc; stroke-linejoin: miter"/>
    </g>
    <g id="line2d_20">
     <path d="M 607.333885 35.416562 
L 617.333885 35.416562 
L 627.333885 35.416562 
" style="fill: none; stroke: #1f77b4; stroke-width: 1.5; stroke-linecap: square"/>
    </g>
    <g id="text_19">
     <!-- observed -->
     <g transform="translate(635.333885 38.916562) scale(0.1 -0.1)">
      <defs>
       <path id="DejaVuSans-6f" d="M 1959 3097 
Q 1497 3097 1228 2736 
Q 959 2375 959 1747 
Q 959 1119 1226 758 
Q 1494 397 1959 397 
Q 2419 397 2687 759 
Q 2956 1122 2956 1747 
Q 2956 2369 2687 2733 
Q 2419 3097 1959 3097 
z
M 1959 3584 
Q 2709 3584 3137 3096 
Q 3566 2609 3566 1747 
Q 3566 888 3137 398 
Q 2709 -91 1959 -91 
Q 1206 -91 779 398 
Q 353 888 353 1747 
Q 353 2609 779 3096 
Q 1206 3584 1959 3584 
z
" transform="scale(0.015625)"/>
       <path id="DejaVuSans-62" d="M 3116 1747 
Q 3116 2381 2855 2742 
Q 2594 3103 2138 3103 
Q 1681 3103 1420 2742 
Q 1159 2381 1159 1747 
Q 1159 1113 1420 752 
Q 1681 391 2138 391 
Q 2594 391 2855 752 
Q 3116 1113 3116 1747 
z
M 1159 2969 
Q 1341 3281 1617 3432 
Q 1894 3584 2278 3584 
Q 2916 3584 3314 3078 
Q 3713 2572 3713 1747 
Q 3713 922 3314 415 
Q 2916 -91 2278 -91 
Q 1894 -91 1617 61 
Q 1341 213 1159 525 
L 1159 0 
L 581 0 
L 581 4863 
L 1159 4863 
L 1159 2969 
z
" transform="scale(0.015625)"/>
       <path id="DejaVuSans-73" d="M 2834 3397 
L 2834 2853 
Q 2591 2978 2328 3040 
Q 2066 3103 1784 3103 
Q 1356 3103 1142 2972 
Q 928 2841 928 2578 
Q 928 2378 1081 2264 
Q 1234 2150 1697 2047 
L 1894 2003 
Q 2506 1872 2764 1633 
Q 3022 1394 3022 966 
Q 3022 478 2636 193 
Q 2250 -91 1575 -91 
Q 1294 -91 989 -36 
Q 684 19 347 128 
L 347 722 
Q 666 556 975 473 
Q 1284 391 1588 391 
Q 1994 391 2212 530 
Q 2431 669 2431 922 
Q 2431 1156 2273 1281 
Q 2116 1406 1581 1522 
L 1381 1569 
Q 847 1681 609 1914 
Q 372 2147 372 2553 
Q 372 3047 722 3315 
Q 1072 3584 1716 3584 
Q 2034 3584 2315 3537 
Q 2597 3491 2834 3397 
z
" transform="scale(0.015625)"/>
       <path id="DejaVuSans-65" d="M 3597 1894 
L 3597 1613 
L 953 1613 
Q 991 1019 1311 708 
Q 1631 397 2203 397 
Q 2534 397 2845 478 
Q 3156 559 3463 722 
L 3463 178 
Q 3153 47 2828 -22 
Q 2503 -91 2169 -91 
Q 1331 -91 842 396 
Q 353 884 353 1716 
Q 353 2575 817 3079 
Q 1281 3584 2069 3584 
Q 2775 3584 3186 3129 
Q 3597 2675 3597 1894 
z
M 3022 2063 
Q 3016 2534 2758 2815 
Q 2500 3097 2075 3097 
Q 1594 3097 1305 2825 
Q 1016 2553 972 2059 
L 3022 2063 
z
" transform="scale(0.015625)"/>
       <path id="DejaVuSans-76" d="M 191 3500 
L 800 3500 
L 1894 563 
L 2988 3500 
L 3597 3500 
L 2284 0 
L 1503 0 
L 191 3500 
z
" transform="scale(0.015625)"/>
       <path id="DejaVuSans-64" d="M 2906 2969 
L 2906 4863 
L 3481 4863 
L 3481 0 
L 2906 0 
L 2906 525 
Q 2725 213 2448 61 
Q 2172 -91 1784 -91 
Q 1150 -91 751 415 
Q 353 922 353 1747 
Q 353 2572 751 3078 
Q 1150 3584 1784 3584 
Q 2172 3584 2448 3432 
Q 2725 3281 2906 2969 
z
M 947 1747 
Q 947 1113 1208 752 
Q 1469 391 1925 391 
Q 2381 391 2643 752 
Q 2906 1113 2906 1747 
Q 2906 2381 2643 2742 
Q 2381 3103 1925 3103 
Q 1469 3103 1208 2742 
Q 947 2381 947 1747 
z
" transform="scale(0.015625)"/>
      </defs>
      <use xlink:href="#DejaVuSans-6f"/>
      <use xlink:href="#DejaVuSans-62" x="61.181641"/>
      <use xlink:href="#DejaVuSans-73" x="124.658203"/>
      <use xlink:href="#DejaVuSans-65" x="176.757812"/>
      <use xlink:href="#DejaVuSans-72" x="238.28125"/>
      <use xlink:href="#DejaVuSans-76" x="279.394531"/>
      <use xlink:href="#DejaVuSans-65" x="338.574219"/>
      <use xlink:href="#DejaVuSans-64" x="400.097656"/>
     </g>
    </g>
    <g id="line2d_21">
     <path d="M 607.333885 50.094688 
L 617.333885 50.094688 
L 627.333885 50.094688 
" style="fill: none; stroke: #ff7f0e; stroke-width: 1.5; stroke-linecap: square"/>
    </g>
    <g id="text_20">
     <!-- simulated -->
     <g transform="translate(635.333885 53.594688) scale(0.1 -0.1)">
      <defs>
       <path id="DejaVuSans-6d" d="M 3328 2828 
Q 3544 3216 3844 3400 
Q 4144 3584 4550 3584 
Q 5097 3584 5394 3201 
Q 5691 2819 5691 2113 
L 5691 0 
L 5113 0 
L 5113 2094 
Q 5113 2597 4934 2840 
Q 4756 3084 4391 3084 
Q 3944 3084 3684 2787 
Q 3425 2491 3425 1978 
L 3425 0 
L 2847 0 
L 2847 2094 
Q 2847 2600 2669 2842 
Q 2491 3084 2119 3084 
Q 1678 3084 1418 2786 
Q 1159 2488 1159 1978 
L 1159 0 
L 581 0 
L 581 3500 
L 1159 3500 
L 1159 2956 
Q 1356 3278 1631 3431 
Q 1906 3584 2284 3584 
Q 2666 3584 2933 3390 
Q 3200 3197 3328 2828 
z
" transform="scale(0.015625)"/>
       <path id="DejaVuSans-75" d="M 544 1381 
L 544 3500 
L 1119 3500 
L 1119 1403 
Q 1119 906 1312 657 
Q 1506 409 1894 409 
Q 2359 409 2629 706 
Q 2900 1003 2900 1516 
L 2900 3500 
L 3475 3500 
L 3475 0 
L 2900 0 
L 2900 538 
Q 2691 219 2414 64 
Q 2138 -91 1772 -91 
Q 1169 -91 856 284 
Q 544 659 544 1381 
z
M 1991 3584 
L 1991 3584 
z
" transform="scale(0.015625)"/>
       <path id="DejaVuSans-6c" d="M 603 4863 
L 1178 4863 
L 1178 0 
L 603 0 
L 603 4863 
z
" transform="scale(0.015625)"/>
      </defs>
      <use xlink:href="#DejaVuSans-73"/>
      <use xlink:href="#DejaVuSans-69" x="52.099609"/>
      <use xlink:href="#DejaVuSans-6d" x="79.882812"/>
      <use xlink:href="#DejaVuSans-75" x="177.294922"/>
      <use xlink:href="#DejaVuSans-6c" x="240.673828"/>
      <use xlink:href="#DejaVuSans-61" x="268.457031"/>
      <use xlink:href="#DejaVuSans-74" x="329.736328"/>
      <use xlink:href="#DejaVuSans-65" x="368.945312"/>
      <use xlink:href="#DejaVuSans-64" x="430.46875"/>
     </g>
    </g>
   </g>
  </g>
 </g>
 <defs>
  <clipPath id="p9f23afcced">
   <rect x="46.0125" y="22.318125" width="647.715135" height="305.24"/>
  </clipPath>
 </defs>
</svg>
