<?xml version="1.0" encoding="utf-8" standalone="no"?>
<!DOCTYPE svg PUBLIC "-//W3C//DTD SVG 1.1//EN"
  "http://www.w3.org/Graphics/SVG/1.1/DTD/svg11.dtd">
<svg xmlns:xlink="http://www.w3.org/1999/xlink" width="720pt" height="360pt" viewBox="0 0 720 360" xmlns="http://www.w3.org/2000/svg" version="1.1">
 <metadata>
  <rdf:RDF xmlns:dc="http://purl.org/dc/elements/1.1/" xmlns:cc="http://creativecommons.org/ns#" xmlns:rdf="http://www.w3.org/1999/02/22-rdf-syntax-ns#">
   <cc:Work>
    <dc:type rdf:resource="http://purl.org/dc/dcmitype/StillImage"/>
    <dc:date>2023-10-23T10:52:42.774590</dc:date>
    <dc:format>image/svg+xml</dc:format>
    <dc:creator>
     <cc:Agent>
      <dc:title>Matplotlib v3.7.1, https://matplotlib.org/</dc:title>
     </cc:Agent>
    </dc:creator>
   </cc:Work>
  </rdf:RDF>
 </metadata>
 <defs>
  <style type="text/css">*{stroke-linejoin: round; stroke-linecap: butt}</style>
 </defs>
 <g id="figure_1">
  <g id="patch_1">
   <path d="M 0 360 
L 720 360 
L 720 0 
L 0 0 
z
" style="fill: #ffffff"/>
  </g>
  <g id="axes_1">
   <g id="patch_2">
    <path d="M 90 288 
L 648 288 
L 648 43.2 
L 90 43.2 
z
" style="fill: #ffffff"/>
   </g>
   <g id="matplotlib.axis_1">
    <g id="xtick_1">
     <g id="line2d_1">
      <defs>
       <path id="m07beaedb23" d="M 0 0 
L 0 3.5 
" style="stroke: #000000; stroke-width: 0.8"/>
      </defs>
      <g>
       <use xlink:href="#m07beaedb23" x="149.370747" y="288" style="stroke: #000000; stroke-width: 0.8"/>
      </g>
     </g>
     <g id="text_1">
      <!-- 2023-08-15 -->
      <g transform="translate(87.727405 337.765903) rotate(-30) scale(0.12 -0.12)">
       <defs>
        <path id="DejaVuSans-32" d="M 1228 531 
L 3431 531 
L 3431 0 
L 469 0 
L 469 531 
Q 828 903 1448 1529 
Q 2069 2156 2228 2338 
Q 2531 2678 2651 2914 
Q 2772 3150 2772 3378 
Q 2772 3750 2511 3984 
Q 2250 4219 1831 4219 
Q 1534 4219 1204 4116 
Q 875 4013 500 3803 
L 500 4441 
Q 881 4594 1212 4672 
Q 1544 4750 1819 4750 
Q 2544 4750 2975 4387 
Q 3406 4025 3406 3419 
Q 3406 3131 3298 2873 
Q 3191 2616 2906 2266 
Q 2828 2175 2409 1742 
Q 1991 1309 1228 531 
z
" transform="scale(0.015625)"/>
        <path id="DejaVuSans-30" d="M 2034 4250 
Q 1547 4250 1301 3770 
Q 1056 3291 1056 2328 
Q 1056 1369 1301 889 
Q 1547 409 2034 409 
Q 2525 409 2770 889 
Q 3016 1369 3016 2328 
Q 3016 3291 2770 3770 
Q 2525 4250 2034 4250 
z
M 2034 4750 
Q 2819 4750 3233 4129 
Q 3647 3509 3647 2328 
Q 3647 1150 3233 529 
Q 2819 -91 2034 -91 
Q 1250 -91 836 529 
Q 422 1150 422 2328 
Q 422 3509 836 4129 
Q 1250 4750 2034 4750 
z
" transform="scale(0.015625)"/>
        <path id="DejaVuSans-33" d="M 2597 2516 
Q 3050 2419 3304 2112 
Q 3559 1806 3559 1356 
Q 3559 666 3084 287 
Q 2609 -91 1734 -91 
Q 1441 -91 1130 -33 
Q 819 25 488 141 
L 488 750 
Q 750 597 1062 519 
Q 1375 441 1716 441 
Q 2309 441 2620 675 
Q 2931 909 2931 1356 
Q 2931 1769 2642 2001 
Q 2353 2234 1838 2234 
L 1294 2234 
L 1294 2753 
L 1863 2753 
Q 2328 2753 2575 2939 
Q 2822 3125 2822 3475 
Q 2822 3834 2567 4026 
Q 2313 4219 1838 4219 
Q 1578 4219 1281 4162 
Q 984 4106 628 3988 
L 628 4550 
Q 988 4650 1302 4700 
Q 1616 4750 1894 4750 
Q 2613 4750 3031 4423 
Q 3450 4097 3450 3541 
Q 3450 3153 3228 2886 
Q 3006 2619 2597 2516 
z
" transform="scale(0.015625)"/>
        <path id="DejaVuSans-2d" d="M 313 2009 
L 1997 2009 
L 1997 1497 
L 313 1497 
L 313 2009 
z
" transform="scale(0.015625)"/>
        <path id="DejaVuSans-38" d="M 2034 2216 
Q 1584 2216 1326 1975 
Q 1069 1734 1069 1313 
Q 1069 891 1326 650 
Q 1584 409 2034 409 
Q 2484 409 2743 651 
Q 3003 894 3003 1313 
Q 3003 1734 2745 1975 
Q 2488 2216 2034 2216 
z
M 1403 2484 
Q 997 2584 770 2862 
Q 544 3141 544 3541 
Q 544 4100 942 4425 
Q 1341 4750 2034 4750 
Q 2731 4750 3128 4425 
Q 3525 4100 3525 3541 
Q 3525 3141 3298 2862 
Q 3072 2584 2669 2484 
Q 3125 2378 3379 2068 
Q 3634 1759 3634 1313 
Q 3634 634 3220 271 
Q 2806 -91 2034 -91 
Q 1263 -91 848 271 
Q 434 634 434 1313 
Q 434 1759 690 2068 
Q 947 2378 1403 2484 
z
M 1172 3481 
Q 1172 3119 1398 2916 
Q 1625 2713 2034 2713 
Q 2441 2713 2670 2916 
Q 2900 3119 2900 3481 
Q 2900 3844 2670 4047 
Q 2441 4250 2034 4250 
Q 1625 4250 1398 4047 
Q 1172 3844 1172 3481 
z
" transform="scale(0.015625)"/>
        <path id="DejaVuSans-31" d="M 794 531 
L 1825 531 
L 1825 4091 
L 703 3866 
L 703 4441 
L 1819 4666 
L 2450 4666 
L 2450 531 
L 3481 531 
L 3481 0 
L 794 0 
L 794 531 
z
" transform="scale(0.015625)"/>
        <path id="DejaVuSans-35" d="M 691 4666 
L 3169 4666 
L 3169 4134 
L 1269 4134 
L 1269 2991 
Q 1406 3038 1543 3061 
Q 1681 3084 1819 3084 
Q 2600 3084 3056 2656 
Q 3513 2228 3513 1497 
Q 3513 744 3044 326 
Q 2575 -91 1722 -91 
Q 1428 -91 1123 -41 
Q 819 9 494 109 
L 494 744 
Q 775 591 1075 516 
Q 1375 441 1709 441 
Q 2250 441 2565 725 
Q 2881 1009 2881 1497 
Q 2881 1984 2565 2268 
Q 2250 2553 1709 2553 
Q 1456 2553 1204 2497 
Q 953 2441 691 2322 
L 691 4666 
z
" transform="scale(0.015625)"/>
       </defs>
       <use xlink:href="#DejaVuSans-32"/>
       <use xlink:href="#DejaVuSans-30" x="63.623047"/>
       <use xlink:href="#DejaVuSans-32" x="127.246094"/>
       <use xlink:href="#DejaVuSans-33" x="190.869141"/>
       <use xlink:href="#DejaVuSans-2d" x="254.492188"/>
       <use xlink:href="#DejaVuSans-30" x="290.576172"/>
       <use xlink:href="#DejaVuSans-38" x="354.199219"/>
       <use xlink:href="#DejaVuSans-2d" x="417.822266"/>
       <use xlink:href="#DejaVuSans-31" x="453.90625"/>
       <use xlink:href="#DejaVuSans-35" x="517.529297"/>
      </g>
     </g>
    </g>
    <g id="xtick_2">
     <g id="line2d_2">
      <g>
       <use xlink:href="#m07beaedb23" x="264.994921" y="288" style="stroke: #000000; stroke-width: 0.8"/>
      </g>
     </g>
     <g id="text_2">
      <!-- 2023-09-01 -->
      <g transform="translate(203.35158 337.765903) rotate(-30) scale(0.12 -0.12)">
       <defs>
        <path id="DejaVuSans-39" d="M 703 97 
L 703 672 
Q 941 559 1184 500 
Q 1428 441 1663 441 
Q 2288 441 2617 861 
Q 2947 1281 2994 2138 
Q 2813 1869 2534 1725 
Q 2256 1581 1919 1581 
Q 1219 1581 811 2004 
Q 403 2428 403 3163 
Q 403 3881 828 4315 
Q 1253 4750 1959 4750 
Q 2769 4750 3195 4129 
Q 3622 3509 3622 2328 
Q 3622 1225 3098 567 
Q 2575 -91 1691 -91 
Q 1453 -91 1209 -44 
Q 966 3 703 97 
z
M 1959 2075 
Q 2384 2075 2632 2365 
Q 2881 2656 2881 3163 
Q 2881 3666 2632 3958 
Q 2384 4250 1959 4250 
Q 1534 4250 1286 3958 
Q 1038 3666 1038 3163 
Q 1038 2656 1286 2365 
Q 1534 2075 1959 2075 
z
" transform="scale(0.015625)"/>
       </defs>
       <use xlink:href="#DejaVuSans-32"/>
       <use xlink:href="#DejaVuSans-30" x="63.623047"/>
       <use xlink:href="#DejaVuSans-32" x="127.246094"/>
       <use xlink:href="#DejaVuSans-33" x="190.869141"/>
       <use xlink:href="#DejaVuSans-2d" x="254.492188"/>
       <use xlink:href="#DejaVuSans-30" x="290.576172"/>
       <use xlink:href="#DejaVuSans-39" x="354.199219"/>
       <use xlink:href="#DejaVuSans-2d" x="417.822266"/>
       <use xlink:href="#DejaVuSans-30" x="453.90625"/>
       <use xlink:href="#DejaVuSans-31" x="517.529297"/>
      </g>
     </g>
    </g>
    <g id="xtick_3">
     <g id="line2d_3">
      <g>
       <use xlink:href="#m07beaedb23" x="360.21483" y="288" style="stroke: #000000; stroke-width: 0.8"/>
      </g>
     </g>
     <g id="text_3">
      <!-- 2023-09-15 -->
      <g transform="translate(298.571488 337.765903) rotate(-30) scale(0.12 -0.12)">
       <use xlink:href="#DejaVuSans-32"/>
       <use xlink:href="#DejaVuSans-30" x="63.623047"/>
       <use xlink:href="#DejaVuSans-32" x="127.246094"/>
       <use xlink:href="#DejaVuSans-33" x="190.869141"/>
       <use xlink:href="#DejaVuSans-2d" x="254.492188"/>
       <use xlink:href="#DejaVuSans-30" x="290.576172"/>
       <use xlink:href="#DejaVuSans-39" x="354.199219"/>
       <use xlink:href="#DejaVuSans-2d" x="417.822266"/>
       <use xlink:href="#DejaVuSans-31" x="453.90625"/>
       <use xlink:href="#DejaVuSans-35" x="517.529297"/>
      </g>
     </g>
    </g>
    <g id="xtick_4">
     <g id="line2d_4">
      <g>
       <use xlink:href="#m07beaedb23" x="469.037583" y="288" style="stroke: #000000; stroke-width: 0.8"/>
      </g>
     </g>
     <g id="text_4">
      <!-- 2023-10-01 -->
      <g transform="translate(407.394241 337.765903) rotate(-30) scale(0.12 -0.12)">
       <use xlink:href="#DejaVuSans-32"/>
       <use xlink:href="#DejaVuSans-30" x="63.623047"/>
       <use xlink:href="#DejaVuSans-32" x="127.246094"/>
       <use xlink:href="#DejaVuSans-33" x="190.869141"/>
       <use xlink:href="#DejaVuSans-2d" x="254.492188"/>
       <use xlink:href="#DejaVuSans-31" x="290.576172"/>
       <use xlink:href="#DejaVuSans-30" x="354.199219"/>
       <use xlink:href="#DejaVuSans-2d" x="417.822266"/>
       <use xlink:href="#DejaVuSans-30" x="453.90625"/>
       <use xlink:href="#DejaVuSans-31" x="517.529297"/>
      </g>
     </g>
    </g>
    <g id="xtick_5">
     <g id="line2d_5">
      <g>
       <use xlink:href="#m07beaedb23" x="564.257491" y="288" style="stroke: #000000; stroke-width: 0.8"/>
      </g>
     </g>
     <g id="text_5">
      <!-- 2023-10-15 -->
      <g transform="translate(502.614149 337.765903) rotate(-30) scale(0.12 -0.12)">
       <use xlink:href="#DejaVuSans-32"/>
       <use xlink:href="#DejaVuSans-30" x="63.623047"/>
       <use xlink:href="#DejaVuSans-32" x="127.246094"/>
       <use xlink:href="#DejaVuSans-33" x="190.869141"/>
       <use xlink:href="#DejaVuSans-2d" x="254.492188"/>
       <use xlink:href="#DejaVuSans-31" x="290.576172"/>
       <use xlink:href="#DejaVuSans-30" x="354.199219"/>
       <use xlink:href="#DejaVuSans-2d" x="417.822266"/>
       <use xlink:href="#DejaVuSans-31" x="453.90625"/>
       <use xlink:href="#DejaVuSans-35" x="517.529297"/>
      </g>
     </g>
    </g>
   </g>
   <g id="matplotlib.axis_2">
    <g id="ytick_1">
     <g id="line2d_6">
      <defs>
       <path id="mb504f38197" d="M 0 0 
L -3.5 0 
" style="stroke: #000000; stroke-width: 0.8"/>
      </defs>
      <g>
       <use xlink:href="#mb504f38197" x="90" y="275.193138" style="stroke: #000000; stroke-width: 0.8"/>
      </g>
     </g>
     <g id="text_6">
      <!-- 0.0 -->
      <g transform="translate(63.91625 279.752201) scale(0.12 -0.12)">
       <defs>
        <path id="DejaVuSans-2e" d="M 684 794 
L 1344 794 
L 1344 0 
L 684 0 
L 684 794 
z
" transform="scale(0.015625)"/>
       </defs>
       <use xlink:href="#DejaVuSans-30"/>
       <use xlink:href="#DejaVuSans-2e" x="63.623047"/>
       <use xlink:href="#DejaVuSans-30" x="95.410156"/>
      </g>
     </g>
    </g>
    <g id="ytick_2">
     <g id="line2d_7">
      <g>
       <use xlink:href="#mb504f38197" x="90" y="246.827566" style="stroke: #000000; stroke-width: 0.8"/>
      </g>
     </g>
     <g id="text_7">
      <!-- 0.5 -->
      <g transform="translate(63.91625 251.386628) scale(0.12 -0.12)">
       <use xlink:href="#DejaVuSans-30"/>
       <use xlink:href="#DejaVuSans-2e" x="63.623047"/>
       <use xlink:href="#DejaVuSans-35" x="95.410156"/>
      </g>
     </g>
    </g>
    <g id="ytick_3">
     <g id="line2d_8">
      <g>
       <use xlink:href="#mb504f38197" x="90" y="218.461994" style="stroke: #000000; stroke-width: 0.8"/>
      </g>
     </g>
     <g id="text_8">
      <!-- 1.0 -->
      <g transform="translate(63.91625 223.021056) scale(0.12 -0.12)">
       <use xlink:href="#DejaVuSans-31"/>
       <use xlink:href="#DejaVuSans-2e" x="63.623047"/>
       <use xlink:href="#DejaVuSans-30" x="95.410156"/>
      </g>
     </g>
    </g>
    <g id="ytick_4">
     <g id="line2d_9">
      <g>
       <use xlink:href="#mb504f38197" x="90" y="190.096422" style="stroke: #000000; stroke-width: 0.8"/>
      </g>
     </g>
     <g id="text_9">
      <!-- 1.5 -->
      <g transform="translate(63.91625 194.655484) scale(0.12 -0.12)">
       <use xlink:href="#DejaVuSans-31"/>
       <use xlink:href="#DejaVuSans-2e" x="63.623047"/>
       <use xlink:href="#DejaVuSans-35" x="95.410156"/>
      </g>
     </g>
    </g>
    <g id="ytick_5">
     <g id="line2d_10">
      <g>
       <use xlink:href="#mb504f38197" x="90" y="161.73085" style="stroke: #000000; stroke-width: 0.8"/>
      </g>
     </g>
     <g id="text_10">
      <!-- 2.0 -->
      <g transform="translate(63.91625 166.289912) scale(0.12 -0.12)">
       <use xlink:href="#DejaVuSans-32"/>
       <use xlink:href="#DejaVuSans-2e" x="63.623047"/>
       <use xlink:href="#DejaVuSans-30" x="95.410156"/>
      </g>
     </g>
    </g>
    <g id="ytick_6">
     <g id="line2d_11">
      <g>
       <use xlink:href="#mb504f38197" x="90" y="133.365278" style="stroke: #000000; stroke-width: 0.8"/>
      </g>
     </g>
     <g id="text_11">
      <!-- 2.5 -->
      <g transform="translate(63.91625 137.92434) scale(0.12 -0.12)">
       <use xlink:href="#DejaVuSans-32"/>
       <use xlink:href="#DejaVuSans-2e" x="63.623047"/>
       <use xlink:href="#DejaVuSans-35" x="95.410156"/>
      </g>
     </g>
    </g>
    <g id="ytick_7">
     <g id="line2d_12">
      <g>
       <use xlink:href="#mb504f38197" x="90" y="104.999706" style="stroke: #000000; stroke-width: 0.8"/>
      </g>
     </g>
     <g id="text_12">
      <!-- 3.0 -->
      <g transform="translate(63.91625 109.558768) scale(0.12 -0.12)">
       <use xlink:href="#DejaVuSans-33"/>
       <use xlink:href="#DejaVuSans-2e" x="63.623047"/>
       <use xlink:href="#DejaVuSans-30" x="95.410156"/>
      </g>
     </g>
    </g>
    <g id="ytick_8">
     <g id="line2d_13">
      <g>
       <use xlink:href="#mb504f38197" x="90" y="76.634134" style="stroke: #000000; stroke-width: 0.8"/>
      </g>
     </g>
     <g id="text_13">
      <!-- 3.5 -->
      <g transform="translate(63.91625 81.193196) scale(0.12 -0.12)">
       <use xlink:href="#DejaVuSans-33"/>
       <use xlink:href="#DejaVuSans-2e" x="63.623047"/>
       <use xlink:href="#DejaVuSans-35" x="95.410156"/>
      </g>
     </g>
    </g>
    <g id="ytick_9">
     <g id="line2d_14">
      <g>
       <use xlink:href="#mb504f38197" x="90" y="48.268562" style="stroke: #000000; stroke-width: 0.8"/>
      </g>
     </g>
     <g id="text_14">
      <!-- 4.0 -->
      <g transform="translate(63.91625 52.827624) scale(0.12 -0.12)">
       <defs>
        <path id="DejaVuSans-34" d="M 2419 4116 
L 825 1625 
L 2419 1625 
L 2419 4116 
z
M 2253 4666 
L 3047 4666 
L 3047 1625 
L 3713 1625 
L 3713 1100 
L 3047 1100 
L 3047 0 
L 2419 0 
L 2419 1100 
L 313 1100 
L 313 1709 
L 2253 4666 
z
" transform="scale(0.015625)"/>
       </defs>
       <use xlink:href="#DejaVuSans-34"/>
       <use xlink:href="#DejaVuSans-2e" x="63.623047"/>
       <use xlink:href="#DejaVuSans-30" x="95.410156"/>
      </g>
     </g>
    </g>
    <g id="text_15">
     <!-- Meters -->
     <g transform="translate(57.836562 182.6875) rotate(-90) scale(0.1 -0.1)">
      <defs>
       <path id="DejaVuSans-4d" d="M 628 4666 
L 1569 4666 
L 2759 1491 
L 3956 4666 
L 4897 4666 
L 4897 0 
L 4281 0 
L 4281 4097 
L 3078 897 
L 2444 897 
L 1241 4097 
L 1241 0 
L 628 0 
L 628 4666 
z
" transform="scale(0.015625)"/>
       <path id="DejaVuSans-65" d="M 3597 1894 
L 3597 1613 
L 953 1613 
Q 991 1019 1311 708 
Q 1631 397 2203 397 
Q 2534 397 2845 478 
Q 3156 559 3463 722 
L 3463 178 
Q 3153 47 2828 -22 
Q 2503 -91 2169 -91 
Q 1331 -91 842 396 
Q 353 884 353 1716 
Q 353 2575 817 3079 
Q 1281 3584 2069 3584 
Q 2775 3584 3186 3129 
Q 3597 2675 3597 1894 
z
M 3022 2063 
Q 3016 2534 2758 2815 
Q 2500 3097 2075 3097 
Q 1594 3097 1305 2825 
Q 1016 2553 972 2059 
L 3022 2063 
z
" transform="scale(0.015625)"/>
       <path id="DejaVuSans-74" d="M 1172 4494 
L 1172 3500 
L 2356 3500 
L 2356 3053 
L 1172 3053 
L 1172 1153 
Q 1172 725 1289 603 
Q 1406 481 1766 481 
L 2356 481 
L 2356 0 
L 1766 0 
Q 1100 0 847 248 
Q 594 497 594 1153 
L 594 3053 
L 172 3053 
L 172 3500 
L 594 3500 
L 594 4494 
L 1172 4494 
z
" transform="scale(0.015625)"/>
       <path id="DejaVuSans-72" d="M 2631 2963 
Q 2534 3019 2420 3045 
Q 2306 3072 2169 3072 
Q 1681 3072 1420 2755 
Q 1159 2438 1159 1844 
L 1159 0 
L 581 0 
L 581 3500 
L 1159 3500 
L 1159 2956 
Q 1341 3275 1631 3429 
Q 1922 3584 2338 3584 
Q 2397 3584 2469 3576 
Q 2541 3569 2628 3553 
L 2631 2963 
z
" transform="scale(0.015625)"/>
       <path id="DejaVuSans-73" d="M 2834 3397 
L 2834 2853 
Q 2591 2978 2328 3040 
Q 2066 3103 1784 3103 
Q 1356 3103 1142 2972 
Q 928 2841 928 2578 
Q 928 2378 1081 2264 
Q 1234 2150 1697 2047 
L 1894 2003 
Q 2506 1872 2764 1633 
Q 3022 1394 3022 966 
Q 3022 478 2636 193 
Q 2250 -91 1575 -91 
Q 1294 -91 989 -36 
Q 684 19 347 128 
L 347 722 
Q 666 556 975 473 
Q 1284 391 1588 391 
Q 1994 391 2212 530 
Q 2431 669 2431 922 
Q 2431 1156 2273 1281 
Q 2116 1406 1581 1522 
L 1381 1569 
Q 847 1681 609 1914 
Q 372 2147 372 2553 
Q 372 3047 722 3315 
Q 1072 3584 1716 3584 
Q 2034 3584 2315 3537 
Q 2597 3491 2834 3397 
z
" transform="scale(0.015625)"/>
      </defs>
      <use xlink:href="#DejaVuSans-4d"/>
      <use xlink:href="#DejaVuSans-65" x="86.279297"/>
      <use xlink:href="#DejaVuSans-74" x="147.802734"/>
      <use xlink:href="#DejaVuSans-65" x="187.011719"/>
      <use xlink:href="#DejaVuSans-72" x="248.535156"/>
      <use xlink:href="#DejaVuSans-73" x="289.648438"/>
     </g>
    </g>
   </g>
   <g id="line2d_15">
    <path d="M 115.363636 267.184751 
L 115.647029 267.005149 
L 117.347384 266.87281 
L 118.197562 266.920074 
L 119.04774 266.995696 
L 119.614525 267.194204 
L 119.897918 267.515598 
L 120.748095 267.449429 
L 121.031488 266.475793 
L 121.314881 266.787735 
L 121.881666 266.768829 
L 122.448451 267.411618 
L 123.015236 267.335995 
L 124.715592 267.59122 
L 125.565769 267.288732 
L 125.849162 267.335995 
L 126.132555 267.496693 
L 126.415947 267.950426 
L 126.69934 267.884256 
L 127.266125 268.158386 
L 127.83291 267.836992 
L 128.116303 267.846445 
L 128.96648 265.246933 
L 129.249873 265.313103 
L 129.533266 266.097683 
L 129.816658 227.246797 
L 130.100051 168.545095 
L 130.383443 159.11123 
L 130.666836 157.43809 
L 130.950229 166.068469 
L 131.800406 208.379068 
L 132.650584 234.818466 
L 133.217369 247.239406 
L 133.784154 255.245902 
L 134.35094 260.010099 
L 134.634332 262.619063 
L 134.917725 263.970809 
L 135.201117 264.226034 
L 135.767902 265.114595 
L 137.751651 266.078777 
L 138.318436 266.154399 
L 138.885221 266.097683 
L 139.452006 266.42853 
L 140.585576 266.87281 
L 140.868969 266.551416 
L 141.435754 266.948432 
L 141.719147 267.118582 
L 142.002539 266.910621 
L 142.569325 266.957885 
L 142.852717 267.04296 
L 143.419502 266.825546 
L 144.553073 266.731018 
L 144.836465 266.70266 
L 145.119858 266.834999 
L 145.970036 266.731018 
L 146.820213 267.118582 
L 147.670391 267.288732 
L 147.953784 267.439976 
L 148.520569 267.194204 
L 148.803961 266.995696 
L 149.087354 267.024054 
L 149.370747 266.844451 
L 149.654139 252.88271 
L 149.937532 227.823416 
L 150.220924 214.759688 
L 150.504317 217.226861 
L 151.354495 245.263777 
L 151.637887 250.944892 
L 151.92128 254.310078 
L 152.204672 255.472769 
L 152.488065 255.926502 
L 152.771458 256.134463 
L 153.05485 255.727994 
L 153.338243 256.096652 
L 153.905028 258.696164 
L 154.471813 261.796672 
L 154.755206 263.034985 
L 155.321991 264.197676 
L 157.022346 265.4738 
L 157.589132 265.625044 
L 158.155917 265.880269 
L 158.722702 265.984249 
L 159.57288 266.08823 
L 159.856272 266.02206 
L 160.423057 266.589227 
L 160.70645 266.53251 
L 160.989843 266.598679 
L 161.556628 267.31709 
L 161.84002 267.704654 
L 162.406805 266.938979 
L 162.973591 266.995696 
L 163.823768 266.560868 
L 164.673946 266.627038 
L 166.941087 266.901168 
L 167.507872 267.071318 
L 167.791265 267.137487 
L 168.074657 264.566334 
L 168.924835 214.504463 
L 169.208228 208.984045 
L 169.775013 227.369683 
L 170.341798 245.197608 
L 170.908583 256.02103 
L 171.191976 258.696164 
L 171.758761 261.683239 
L 172.325546 263.214588 
L 172.892331 264.103148 
L 173.175724 264.273298 
L 174.025901 265.218575 
L 174.876079 265.662855 
L 175.442864 266.25838 
L 176.293042 266.19221 
L 176.576435 266.352907 
L 177.993398 266.315096 
L 178.27679 266.248927 
L 178.560183 266.475793 
L 178.843575 266.523057 
L 179.126968 266.712113 
L 179.410361 266.664849 
L 179.693753 266.466341 
L 179.977146 266.627038 
L 180.260538 266.419077 
L 181.110716 266.957885 
L 181.960894 267.241468 
L 182.244286 267.468334 
L 182.527679 267.48724 
L 182.811072 267.184751 
L 183.377857 266.929526 
L 183.661249 266.787735 
L 183.944642 266.986243 
L 184.511427 266.995696 
L 184.79482 266.80664 
L 185.078212 266.778282 
L 185.361605 266.948432 
L 185.644997 266.929526 
L 185.92839 266.740471 
L 187.345353 266.995696 
L 187.628746 267.241468 
L 187.912138 267.052412 
L 188.478923 267.31709 
L 188.762316 267.402165 
L 189.045708 267.76137 
L 189.329101 267.846445 
L 189.612494 267.789728 
L 190.462671 267.279279 
L 190.746064 267.307637 
L 191.029457 267.04296 
L 191.312849 267.194204 
L 191.596242 266.343455 
L 191.879634 267.024054 
L 192.163027 267.165846 
L 192.729812 267.109129 
L 193.863382 266.986243 
L 194.146775 267.080771 
L 194.430168 266.967337 
L 194.71356 267.118582 
L 194.996953 267.090223 
L 195.847131 267.666842 
L 196.130523 267.345448 
L 196.413916 267.279279 
L 196.697308 267.335995 
L 196.980701 267.600673 
L 197.547486 267.695201 
L 197.830879 267.534504 
L 199.814627 267.31709 
L 200.098019 267.156393 
L 200.381412 267.260373 
L 200.664804 267.222562 
L 201.514982 267.572315 
L 202.081767 267.884256 
L 202.36516 267.836992 
L 202.648553 268.073312 
L 202.931945 268.063859 
L 203.215338 267.723559 
L 203.782123 267.714106 
L 204.065515 267.676295 
L 204.348908 267.392712 
L 205.765871 267.534504 
L 206.899441 267.288732 
L 207.466227 267.260373 
L 207.749619 266.80664 
L 208.316404 133.465864 
L 208.599797 105.825965 
L 208.883189 112.9439 
L 210.300152 200.996455 
L 210.866938 217.52935 
L 211.433723 228.012472 
L 212.000508 234.931899 
L 212.567293 162.86398 
L 212.850686 168.469472 
L 213.700863 204.437263 
L 213.984256 207.896977 
L 214.267649 199.918839 
L 214.551041 203.236761 
L 215.401219 227.889586 
L 215.968004 237.4936 
L 216.818182 246.870748 
L 217.66836 255.17028 
L 218.518537 54.327273 
L 219.085322 54.327273 
L 219.368715 54.535234 
L 219.652108 68.657672 
L 220.502285 127.434997 
L 221.069071 151.530108 
L 221.635856 167.250065 
L 222.486034 184.435201 
L 223.052819 193.377522 
L 223.619604 199.569086 
L 223.902996 201.18551 
L 224.186389 201.478546 
L 224.469782 200.968096 
L 225.036567 199.200428 
L 225.319959 198.850676 
L 225.603352 199.34222 
L 225.886745 200.315855 
L 226.45353 203.577061 
L 227.870493 215.194515 
L 230.421026 237.531411 
L 231.554596 246.67224 
L 233.538344 261.078262 
L 233.821737 262.571799 
L 234.10513 263.280757 
L 234.388522 263.602151 
L 234.671915 263.706132 
L 235.522092 264.405637 
L 235.805485 264.358373 
L 236.37227 264.641956 
L 236.655663 264.991708 
L 237.222448 264.698673 
L 238.072626 264.840464 
L 238.356018 264.604145 
L 239.489589 264.613598 
L 240.056374 264.481259 
L 240.339766 264.755389 
L 241.189944 264.878275 
L 241.473337 264.708125 
L 241.756729 264.906634 
L 242.040122 265.246933 
L 242.323514 265.180764 
L 242.606907 264.991708 
L 243.457085 265.606139 
L 243.740477 265.388725 
L 244.307263 265.454894 
L 244.590655 265.502158 
L 245.440833 265.256386 
L 246.007618 265.265839 
L 246.857796 265.076783 
L 247.141188 265.209122 
L 247.707974 265.142953 
L 247.991366 265.275292 
L 248.274759 265.246933 
L 249.124937 265.681761 
L 250.541899 265.927533 
L 250.825292 265.719572 
L 251.392077 265.596686 
L 251.67547 263.56434 
L 252.242255 253.194651 
L 252.525648 253.705101 
L 252.80904 249.990162 
L 253.092433 250.094143 
L 254.226003 260.700151 
L 254.792788 262.84593 
L 255.076181 263.658868 
L 256.209751 265.1335 
L 256.493144 265.180764 
L 257.059929 265.596686 
L 257.343321 265.691213 
L 257.910107 265.492705 
L 258.193499 265.899174 
L 258.760284 265.785741 
L 259.32707 265.851911 
L 259.610462 265.965344 
L 259.893855 265.927533 
L 260.177247 266.248927 
L 260.46064 265.861363 
L 261.310818 265.814099 
L 261.59421 265.710119 
L 261.877603 265.946438 
L 262.160995 265.899174 
L 262.444388 266.494699 
L 263.294566 266.390718 
L 263.577958 266.513604 
L 263.861351 266.778282 
L 264.144744 266.579774 
L 264.428136 266.541963 
L 264.994921 266.816093 
L 265.561706 266.381266 
L 266.411884 266.19221 
L 267.828847 266.097683 
L 268.11224 265.965344 
L 268.679025 265.502158 
L 269.24581 266.664849 
L 269.812595 266.381266 
L 270.095988 266.712113 
L 270.37938 266.740471 
L 270.662773 267.005149 
L 271.229558 266.712113 
L 271.512951 266.816093 
L 273.213306 266.475793 
L 273.496699 266.485246 
L 274.063484 266.305644 
L 274.346877 266.220569 
L 274.913662 266.352907 
L 275.197054 266.163852 
L 275.480447 266.239474 
L 275.76384 266.513604 
L 276.047232 266.419077 
L 276.614017 266.929526 
L 276.89741 266.787735 
L 277.180802 267.156393 
L 277.464195 266.683754 
L 277.747588 266.797188 
L 278.03098 266.721565 
L 279.164551 266.863357 
L 279.731336 266.475793 
L 280.014728 266.570321 
L 281.431691 266.296191 
L 281.715084 266.116588 
L 282.565262 266.693207 
L 282.848654 266.523057 
L 283.698832 267.061865 
L 283.982224 266.664849 
L 284.265617 266.948432 
L 284.832402 266.825546 
L 285.399187 267.090223 
L 285.965973 266.693207 
L 286.249365 266.87281 
L 286.81615 266.901168 
L 287.099543 266.712113 
L 287.382936 266.664849 
L 287.949721 266.749924 
L 288.233113 266.437982 
L 288.799898 266.513604 
L 289.083291 266.589227 
L 289.366684 266.816093 
L 289.933469 266.853904 
L 290.216861 266.986243 
L 290.500254 266.910621 
L 290.783647 267.194204 
L 291.633824 267.128035 
L 292.767395 267.099676 
L 293.33418 267.061865 
L 293.617572 266.80664 
L 293.900965 267.033507 
L 294.184358 266.70266 
L 294.751143 266.797188 
L 295.317928 266.645943 
L 296.168106 266.749924 
L 296.451498 267.090223 
L 296.734891 266.986243 
L 297.018283 267.052412 
L 297.585069 266.995696 
L 297.868461 266.995696 
L 298.151854 266.693207 
L 298.435246 266.683754 
L 298.718639 266.891715 
L 299.285424 266.891715 
L 299.568817 267.052412 
L 300.135602 266.778282 
L 300.418994 266.920074 
L 300.702387 266.674302 
L 301.552565 266.778282 
L 301.835957 266.504152 
L 302.11935 266.683754 
L 302.402743 266.560868 
L 302.686135 266.63649 
L 302.969528 266.834999 
L 303.25292 266.220569 
L 303.536313 263.970809 
L 303.819705 241.340878 
L 304.103098 231.406016 
L 304.386491 232.710498 
L 305.520061 254.499134 
L 306.086846 260.04791 
L 306.653631 262.203141 
L 307.220416 263.195682 
L 307.787202 263.687226 
L 308.920772 264.018073 
L 309.487557 264.330015 
L 309.77095 264.85937 
L 310.337735 265.199669 
L 310.90452 265.74793 
L 311.187913 265.738477 
L 311.471305 265.908627 
L 311.754698 265.804647 
L 312.321483 266.267832 
L 312.604876 266.182758 
L 312.888268 266.390718 
L 316.005587 266.957885 
L 316.288979 267.099676 
L 316.572372 266.97679 
L 317.42255 267.025945 
L 317.989335 267.014601 
L 318.272727 267.194204 
L 319.406298 267.005149 
L 319.68969 267.109129 
L 320.256475 266.995696 
L 321.106653 267.080771 
L 321.390046 266.579774 
L 321.673438 267.052412 
L 321.956831 267.156393 
L 322.240223 267.071318 
L 322.523616 267.128035 
L 323.090401 267.005149 
L 323.373794 267.335995 
L 323.657186 267.260373 
L 324.223972 267.42107 
L 326.491112 267.203657 
L 326.774505 267.080771 
L 327.057897 267.175298 
L 327.908075 267.099676 
L 328.191468 267.269826 
L 328.47486 267.213109 
L 328.758253 267.373807 
L 329.041646 267.128035 
L 330.458608 267.354901 
L 330.742001 267.733012 
L 331.025394 267.695201 
L 331.308786 267.884256 
L 331.592179 267.619579 
L 331.875571 267.647937 
L 332.442357 267.298184 
L 333.009142 267.449429 
L 333.575927 267.260373 
L 334.426105 267.090223 
L 334.99289 267.175298 
L 335.559675 267.071318 
L 336.409853 266.995696 
L 336.693245 267.005149 
L 337.26003 267.572315 
L 337.543423 267.458881 
L 337.826816 267.874803 
L 338.110208 267.82754 
L 338.393601 267.940973 
L 338.676993 267.534504 
L 339.243779 267.354901 
L 339.810564 267.194204 
L 342.077704 241.681177 
L 342.361097 232.228407 
L 342.64449 229.383123 
L 342.927882 231.62343 
L 343.494667 240.442864 
L 344.344845 254.28172 
L 344.91163 259.972288 
L 345.478415 262.741949 
L 346.611986 264.585239 
L 348.312341 266.154399 
L 348.595734 266.334002 
L 349.445912 266.390718 
L 349.729304 266.560868 
L 350.296089 266.135494 
L 350.579482 266.53251 
L 351.713052 267.061865 
L 351.996445 266.957885 
L 352.56323 266.995696 
L 352.846623 266.825546 
L 353.6968 266.853904 
L 356.247334 266.920074 
L 356.530726 267.061865 
L 356.814119 266.655396 
L 357.097511 266.721565 
L 357.664297 267.203657 
L 357.947689 267.42107 
L 359.08126 267.638484 
L 359.364652 267.430523 
L 359.648045 267.515598 
L 360.781615 267.137487 
L 361.065008 267.354901 
L 362.198578 267.052412 
L 362.481971 267.194204 
L 363.048756 267.052412 
L 363.332148 267.061865 
L 363.615541 266.910621 
L 364.182326 266.995696 
L 364.465719 267.48724 
L 364.749111 267.629031 
L 365.032504 267.572315 
L 365.315896 267.808634 
L 365.599289 267.65739 
L 365.882682 267.742465 
L 366.166074 267.515598 
L 366.449467 267.695201 
L 367.016252 267.59122 
L 367.299644 267.326543 
L 368.149822 267.392712 
L 369.283393 267.222562 
L 369.566785 267.335995 
L 369.850178 267.213109 
L 370.13357 267.250921 
L 370.416963 266.995696 
L 370.983748 267.279279 
L 371.550533 267.818087 
L 372.117318 267.988237 
L 372.400711 267.903162 
L 372.684104 268.290725 
L 372.967496 268.158386 
L 373.250889 267.846445 
L 373.534281 268.016595 
L 373.817674 267.714106 
L 374.384459 267.506145 
L 374.667852 267.307637 
L 374.951244 267.383259 
L 375.801422 267.213109 
L 376.934992 267.269826 
L 377.218385 267.128035 
L 377.501778 267.165846 
L 378.91874 268.130028 
L 379.202133 267.884256 
L 380.052311 267.742465 
L 381.185881 267.402165 
L 381.469274 267.402165 
L 382.036059 267.572315 
L 382.886237 267.600673 
L 383.453022 267.723559 
L 383.736414 267.543956 
L 384.019807 267.59122 
L 384.586592 267.430523 
L 384.869985 267.770823 
L 385.153377 267.865351 
L 385.720163 267.685748 
L 386.57034 267.865351 
L 387.137125 267.638484 
L 387.420518 267.666842 
L 387.703911 267.846445 
L 387.987303 267.666842 
L 388.270696 267.742465 
L 389.120874 267.373807 
L 389.404266 267.572315 
L 389.687659 267.553409 
L 389.971051 267.676295 
L 390.821229 267.326543 
L 391.388014 267.458881 
L 391.671407 267.619579 
L 391.954799 267.93152 
L 392.521585 267.874803 
L 392.804977 268.044953 
L 395.072118 267.572315 
L 395.35551 267.581768 
L 395.922296 267.439976 
L 396.205688 267.335995 
L 396.772473 267.402165 
L 397.339259 267.411618 
L 397.622651 267.241468 
L 398.472829 267.619579 
L 399.039614 268.167839 
L 399.606399 267.997689 
L 399.889792 268.27182 
L 400.456577 267.846445 
L 401.306755 268.016595 
L 402.440325 267.48724 
L 403.290503 267.468334 
L 403.573895 267.402165 
L 403.857288 267.48724 
L 404.140681 267.439976 
L 404.707466 267.082661 
L 405.557643 267.978784 
L 405.841036 267.572315 
L 406.124429 267.449429 
L 406.691214 268.243461 
L 406.974606 268.177292 
L 407.257999 267.940973 
L 407.541392 268.20565 
L 408.108177 268.063859 
L 408.674962 267.629031 
L 408.958354 267.672514 
L 409.52514 267.534504 
L 409.808532 267.534504 
L 410.375317 267.392712 
L 410.942103 267.392712 
L 411.508888 267.128035 
L 412.075673 267.581768 
L 412.642458 267.479678 
L 412.925851 267.723559 
L 413.209243 267.780276 
L 413.492636 267.950426 
L 414.059421 267.723559 
L 414.342814 267.846445 
L 414.626206 267.818087 
L 414.909599 267.59122 
L 415.759777 267.770823 
L 416.893347 267.562862 
L 417.176739 267.42107 
L 417.460132 267.714106 
L 417.743525 267.581768 
L 418.31031 267.033507 
L 418.877095 267.733012 
L 419.44388 267.685748 
L 419.727273 267.874803 
L 420.010665 267.65739 
L 420.294058 267.799181 
L 420.860843 267.373807 
L 421.144236 267.855898 
L 421.427628 267.950426 
L 421.711021 267.619579 
L 421.994413 267.506145 
L 422.561199 267.865351 
L 423.127984 267.751917 
L 423.411376 267.733012 
L 423.694769 267.988237 
L 423.978162 267.940973 
L 424.828339 267.383259 
L 426.245302 267.430523 
L 426.528695 267.468334 
L 427.09548 267.808634 
L 427.662265 267.685748 
L 427.945658 267.723559 
L 428.512443 267.600673 
L 429.362621 267.525051 
L 429.646013 267.402165 
L 429.929406 267.477787 
L 430.212798 267.704654 
L 430.496191 267.666842 
L 430.779584 267.458881 
L 431.913154 267.335995 
L 432.196546 267.345448 
L 432.763332 267.572315 
L 433.046724 267.506145 
L 433.613509 267.515598 
L 434.180295 267.572315 
L 434.463687 267.307637 
L 434.74708 267.411618 
L 435.597257 267.052412 
L 435.88065 267.354901 
L 436.164043 267.137487 
L 436.730828 266.25838 
L 437.581006 265.766836 
L 437.864398 262.16533 
L 438.147791 262.099161 
L 438.431183 264.036979 
L 438.714576 264.585239 
L 438.997969 263.73449 
L 439.281361 261.815578 
L 439.564754 258.932483 
L 439.848146 257.996659 
L 440.414931 260.454379 
L 440.981717 262.84593 
L 441.548502 264.24494 
L 442.115287 265.180764 
L 443.53225 266.296191 
L 444.949213 267.014601 
L 446.366176 267.373807 
L 446.649568 267.525051 
L 448.066531 267.600673 
L 448.349924 267.742465 
L 448.633316 266.116588 
L 448.916709 261.72105 
L 449.200102 251.701114 
L 449.483494 224.042308 
L 449.766887 213.228339 
L 450.050279 211.923857 
L 450.333672 215.922379 
L 451.467242 242.323966 
L 451.750635 242.323966 
L 452.034027 231.850296 
L 452.31742 232.010993 
L 453.45099 255.425505 
L 454.017776 260.756867 
L 454.584561 262.987721 
L 455.151346 264.046431 
L 455.718131 264.736484 
L 456.568309 265.275292 
L 456.851701 265.313103 
L 457.701879 265.833005 
L 458.552057 266.097683 
L 459.685627 266.334002 
L 460.535805 266.891715 
L 461.385983 267.109129 
L 461.669375 267.232015 
L 461.952768 267.090223 
L 462.519553 267.071318 
L 462.802946 266.910621 
L 464.219909 266.759377 
L 464.786694 267.165846 
L 465.070086 266.995696 
L 465.636872 266.882263 
L 466.203657 266.759377 
L 466.487049 267.014601 
L 466.770442 267.496693 
L 467.053834 267.458881 
L 467.337227 267.780276 
L 467.62062 267.808634 
L 467.904012 268.044953 
L 468.187405 267.695201 
L 468.470797 267.610126 
L 468.75419 268.0355 
L 469.037583 267.610126 
L 469.320975 267.496693 
L 469.604368 267.553409 
L 470.171153 267.31709 
L 470.737938 267.326543 
L 471.021331 267.411618 
L 471.304723 267.345448 
L 471.871508 267.430523 
L 472.154901 267.335995 
L 472.438294 267.118582 
L 473.288471 267.742465 
L 473.571864 267.751917 
L 473.855256 267.619579 
L 474.422042 267.903162 
L 474.705434 267.865351 
L 475.555612 268.347442 
L 476.122397 267.714106 
L 479.523108 267.250921 
L 479.806501 267.354901 
L 480.089893 267.733012 
L 480.656679 268.111123 
L 480.940071 267.950426 
L 481.223464 268.262367 
L 481.506856 268.801175 
L 481.790249 268.281273 
L 482.073641 268.517592 
L 482.357034 268.300178 
L 482.640427 268.224556 
L 483.207212 267.770823 
L 484.05739 267.496693 
L 485.757745 267.553409 
L 486.32453 267.04296 
L 486.607923 267.307637 
L 486.891315 267.855898 
L 487.741493 268.016595 
L 488.308278 268.215103 
L 488.591671 268.130028 
L 489.158456 268.385253 
L 489.725241 267.912614 
L 490.292026 267.553409 
L 490.575419 267.638484 
L 491.992382 267.279279 
L 492.559167 267.203657 
L 492.84256 266.901168 
L 493.125952 266.778282 
L 493.692737 267.525051 
L 494.259523 267.780276 
L 494.826308 267.751917 
L 495.959878 267.874803 
L 496.810056 267.326543 
L 497.660234 267.468334 
L 498.510411 267.194204 
L 501.344337 267.496693 
L 501.62773 266.863357 
L 501.911122 265.492705 
L 502.194515 259.471291 
L 502.7613 217.63333 
L 503.044693 208.511407 
L 503.328085 211.829329 
L 504.461656 242.824962 
L 505.028441 251.937433 
L 505.595226 257.212079 
L 506.162011 260.49219 
L 507.012189 262.940457 
L 508.429152 265.662855 
L 509.562722 265.946438 
L 509.846115 266.352907 
L 510.129507 266.53251 
L 510.979685 266.523057 
L 511.263078 266.920074 
L 511.54647 266.627038 
L 511.829863 267.061865 
L 512.113255 266.778282 
L 512.396648 266.834999 
L 513.246826 266.740471 
L 513.813611 266.655396 
L 514.097004 266.882263 
L 514.663789 266.920074 
L 514.947181 267.090223 
L 515.230574 267.033507 
L 515.797359 267.099676 
L 516.080752 266.882263 
L 516.364144 266.915347 
L 524.865922 267.562862 
L 525.149314 267.458881 
L 525.432707 267.496693 
L 525.7161 267.799181 
L 525.999492 267.525051 
L 526.282885 267.638484 
L 526.566277 267.553409 
L 526.84967 267.723559 
L 527.133062 267.48724 
L 527.416455 267.449429 
L 527.699848 267.600673 
L 528.833418 267.629031 
L 529.116811 267.884256 
L 529.400203 267.65739 
L 531.100559 267.534504 
L 532.800914 267.751917 
L 534.217877 267.562862 
L 534.50127 267.742465 
L 534.784662 267.543956 
L 535.351447 267.676295 
L 535.918233 267.610126 
L 536.201625 267.751917 
L 536.485018 267.496693 
L 536.76841 267.468334 
L 537.051803 267.061865 
L 537.335196 267.071318 
L 537.901981 267.402165 
L 538.752158 267.600673 
L 539.035551 267.515598 
L 539.318944 267.666842 
L 539.602336 267.534504 
L 539.885729 267.780276 
L 540.452514 267.638484 
L 541.302692 267.685748 
L 541.869477 267.610126 
L 543.28644 267.600673 
L 544.136618 267.525051 
L 544.42001 267.676295 
L 544.703403 267.392712 
L 545.270188 267.402165 
L 545.55358 267.354901 
L 545.836973 267.439976 
L 546.120366 267.326543 
L 546.687151 267.411618 
L 546.970543 267.335995 
L 547.253936 267.515598 
L 547.820721 267.364354 
L 548.104114 267.562862 
L 548.670899 267.714106 
L 548.954292 267.959878 
L 549.237684 267.988237 
L 549.804469 267.799181 
L 550.654647 267.836992 
L 551.221432 267.704654 
L 552.07161 267.695201 
L 552.355003 267.534504 
L 552.638395 267.780276 
L 552.921788 267.82754 
L 553.20518 267.65739 
L 553.488573 267.638484 
L 553.771965 267.818087 
L 554.338751 267.676295 
L 555.472321 267.846445 
L 556.039106 267.865351 
L 556.322499 267.978784 
L 556.605891 267.855898 
L 557.739462 267.836992 
L 558.022854 267.553409 
L 558.306247 267.610126 
L 558.873032 267.307637 
L 559.156425 267.137487 
L 559.439817 266.683754 
L 560.006602 265.001161 
L 560.573388 261.815578 
L 560.85678 262.77976 
L 561.140173 260.132985 
L 561.99035 211.281068 
L 562.273743 202.083523 
L 562.557136 199.020826 
L 562.840528 202.489992 
L 563.407313 217.236314 
L 564.257491 239.214004 
L 564.824276 250.755837 
L 565.391061 257.467303 
L 565.957847 260.76632 
L 566.524632 262.212594 
L 567.658202 263.687226 
L 569.075165 265.1335 
L 571.625698 266.19221 
L 572.475876 266.334002 
L 573.042661 266.485246 
L 573.892839 266.419077 
L 575.309802 266.721565 
L 576.15998 267.033507 
L 576.443372 266.938979 
L 576.726765 267.052412 
L 578.42712 266.901168 
L 578.710513 266.834999 
L 578.993906 266.967337 
L 579.560691 266.967337 
L 579.844083 267.080771 
L 580.694261 267.052412 
L 581.261046 267.165846 
L 581.544439 267.128035 
L 582.678009 267.383259 
L 584.94515 267.090223 
L 585.228542 266.97679 
L 585.795328 267.335995 
L 586.07872 267.260373 
L 586.362113 267.014601 
L 586.645505 267.005149 
L 587.495683 266.740471 
L 588.062468 267.071318 
L 589.196039 267.279279 
L 589.762824 267.76137 
L 591.179787 267.250921 
L 591.463179 267.298184 
L 591.746572 267.156393 
L 592.029964 267.241468 
L 592.59675 267.184751 
L 593.446927 267.260373 
L 594.013713 267.184751 
L 594.580498 267.118582 
L 594.86389 267.024054 
L 595.147283 267.137487 
L 595.430675 267.128035 
L 595.997461 267.402165 
L 596.280853 267.411618 
L 596.564246 267.232015 
L 596.847638 266.551416 
L 597.414424 263.167324 
L 597.697816 262.751402 
L 597.981209 259.348405 
L 598.547994 240.688636 
L 598.831386 238.221463 
L 599.114779 239.497587 
L 599.681564 248.317022 
L 600.248349 257.004118 
L 600.815135 261.881747 
L 601.38192 263.762848 
L 601.665312 264.386731 
L 601.948705 264.708125 
L 602.232098 264.509617 
L 603.082275 265.539969 
L 603.365668 265.568327 
L 604.215846 266.031513 
L 604.499238 265.558875 
L 605.066023 263.507624 
L 605.349416 263.214588 
L 605.916201 264.093695 
L 607.049771 265.700666 
L 607.616557 266.069324 
L 608.466734 266.551416 
L 608.750127 266.513604 
L 609.03352 266.825546 
L 610.16709 267.222562 
L 610.450482 267.128035 
L 611.017268 267.31709 
L 611.30066 267.109129 
L 611.584053 267.411618 
L 612.434231 267.326543 
L 613.567801 267.411618 
L 613.851193 267.714106 
L 614.134586 267.260373 
L 614.417979 267.383259 
L 614.701371 267.751917 
L 615.268156 267.704654 
L 615.551549 267.48724 
L 615.834942 267.449429 
L 616.118334 267.647937 
L 616.685119 267.562862 
L 616.968512 267.780276 
L 617.251905 267.600673 
L 617.535297 267.600673 
L 617.81869 267.373807 
L 618.668867 267.449429 
L 618.95226 267.203657 
L 619.519045 267.099676 
L 619.802438 267.250921 
L 620.08583 267.194204 
L 620.369223 267.373807 
L 620.936008 267.184751 
L 621.502793 266.967337 
L 621.786186 267.099676 
L 622.069578 266.957885 
L 622.352971 267.232015 
L 622.636364 267.113855 
L 622.636364 267.113855 
" clip-path="url(#p0e880a4b32)" style="fill: none; stroke: #1f77b4; stroke-width: 1.5; stroke-linecap: square"/>
   </g>
   <g id="line2d_16">
    <path d="M 115.363636 270.076988 
L 115.930422 270.077037 
L 116.213814 266.97679 
L 119.614525 266.871397 
L 120.18131 266.299753 
L 120.464703 265.925711 
L 120.748095 265.847383 
L 121.314881 266.054479 
L 123.298629 267.483586 
L 124.148807 267.730963 
L 125.565769 267.80506 
L 128.116303 267.763666 
L 128.399695 267.983204 
L 128.683088 266.422794 
L 128.96648 263.905764 
L 129.249873 263.066315 
L 129.533266 262.645256 
L 129.816658 266.097683 
L 130.666836 255.743125 
L 130.950229 256.970194 
L 131.233621 258.88656 
L 132.650584 273.41879 
L 133.217369 275.37552 
L 133.500762 275.896933 
L 133.784154 275.985293 
L 134.067547 276.872727 
L 134.634332 267.548897 
L 134.917725 267.645714 
L 135.201117 266.724582 
L 135.48451 267.51016 
L 136.051295 271.496929 
L 136.334688 273.582377 
L 136.61808 265.369819 
L 137.184865 269.1715 
L 137.751651 270.793404 
L 138.318436 271.396107 
L 138.885221 271.60242 
L 140.018791 271.690158 
L 143.13611 271.699094 
L 143.419502 266.891715 
L 147.103606 266.917242 
L 149.370747 266.992085 
L 149.654139 266.229113 
L 149.937532 263.938599 
L 150.220924 227.823416 
L 150.504317 229.180684 
L 151.354495 210.257774 
L 151.637887 198.574518 
L 152.204672 182.907446 
L 152.771458 159.558102 
L 153.05485 161.579545 
L 153.338243 168.862336 
L 153.905028 192.686094 
L 154.755206 230.202612 
L 155.321991 243.875491 
L 155.888776 250.496046 
L 156.455561 253.302198 
L 156.738954 253.9631 
L 157.022346 265.360367 
L 157.589132 265.998699 
L 158.155917 266.23608 
L 159.289487 266.344089 
L 163.540376 266.355961 
L 163.823768 266.570321 
L 168.074657 266.663093 
L 168.35805 265.579002 
L 169.208228 252.089486 
L 169.49162 251.116701 
L 169.775013 250.887853 
L 170.058405 252.676941 
L 170.341798 255.966449 
L 170.62519 245.197608 
L 171.191976 253.873098 
L 171.758761 259.311632 
L 172.325546 261.83752 
L 172.892331 262.889362 
L 173.459116 263.217434 
L 174.025901 263.191322 
L 174.876079 262.847963 
L 176.293042 261.948515 
L 177.14322 261.309157 
L 177.426612 266.390718 
L 183.944642 266.39075 
L 184.228035 266.986243 
L 190.746064 266.986259 
L 191.029457 267.307637 
L 197.547486 267.307651 
L 197.830879 267.695201 
L 204.348908 267.695212 
L 204.632301 267.392712 
L 210.866938 267.493341 
L 211.15033 267.017222 
L 211.433723 268.226209 
L 212.000508 233.414105 
L 212.2839 235.664055 
L 212.567293 234.945058 
L 212.850686 237.777255 
L 213.984256 264.828165 
L 214.551041 270.725726 
L 215.117826 273.075343 
L 215.684611 273.914658 
L 216.251397 274.194675 
L 217.384967 274.311255 
L 223.902996 274.32284 
L 238.356018 274.322768 
L 238.639411 264.604145 
L 245.15744 264.604176 
L 245.440833 265.341461 
L 251.108685 265.367827 
L 251.392077 265.129591 
L 251.67547 264.742935 
L 251.958862 264.653683 
L 252.242255 257.145909 
L 252.80904 257.292703 
L 253.94261 257.824008 
L 255.076181 257.957973 
L 258.760284 257.97729 
L 259.043677 265.785741 
L 287.382936 265.785855 
L 287.666328 266.664849 
L 292.767395 266.664863 
L 293.050787 267.099676 
L 297.585069 267.19094 
L 298.151854 265.644688 
L 298.435246 265.763774 
L 298.718639 265.720378 
L 299.002031 265.829321 
L 300.418994 267.13725 
L 301.269172 267.338738 
L 303.25292 267.391601 
L 339.810564 267.392596 
L 342.077704 249.158318 
L 342.361097 248.954726 
L 342.64449 249.871514 
L 342.927882 251.853543 
L 343.211275 229.411482 
L 344.061453 238.66666 
L 344.628238 241.490283 
L 344.91163 242.13786 
L 345.478415 242.432204 
L 346.895378 244.201192 
L 347.462164 244.61905 
L 348.312341 244.845621 
L 350.012697 244.904966 
L 350.579482 244.906341 
L 350.862875 266.107135 
L 356.247334 266.107522 
L 356.530726 267.128035 
L 376.6516 267.128049 
L 376.934992 267.298184 
L 379.485526 267.382171 
L 380.052311 265.959869 
L 380.335703 266.068157 
L 380.902489 266.101884 
L 382.319451 267.275221 
L 383.169629 267.505024 
L 384.869985 267.781017 
L 385.153377 267.584085 
L 385.43677 267.176808 
L 385.720163 267.100744 
L 386.57034 267.409072 
L 387.987303 267.675125 
L 390.254444 267.832821 
L 390.821229 267.772852 
L 394.22194 267.875968 
L 397.055866 267.890126 
L 397.339259 267.411618 
L 398.756221 267.676416 
L 401.023362 267.833181 
L 403.857288 267.881481 
L 404.140681 267.298184 
L 405.557643 267.625093 
L 407.541392 267.805878 
L 411.508888 267.88435 
L 411.79228 267.885733 
L 412.075673 267.222562 
L 413.209243 267.538502 
L 414.909599 267.757352 
L 417.743525 267.866143 
L 418.026917 267.411618 
L 419.44388 267.676416 
L 421.711021 267.833181 
L 424.828339 267.883289 
L 425.111732 267.70938 
L 427.662265 267.849963 
L 431.062976 267.887292 
L 431.346369 267.70938 
L 434.463687 267.704082 
L 435.88065 266.026394 
L 436.164043 265.908435 
L 437.864398 266.222283 
L 438.147791 265.880269 
L 438.431183 256.874147 
L 438.714576 251.997962 
L 438.997969 250.913129 
L 439.281361 250.746314 
L 439.848146 251.543717 
L 441.548502 254.192775 
L 443.248857 256.413014 
L 444.949213 258.273462 
L 445.799391 259.087374 
L 446.082783 267.057139 
L 446.366176 265.626655 
L 446.649568 265.786804 
L 446.932961 265.603937 
L 447.216353 265.755697 
L 447.499746 266.078111 
L 447.783139 267.624305 
L 448.916709 267.796591 
L 449.200102 267.385435 
L 449.483494 266.548829 
L 449.766887 266.390502 
L 450.333672 266.795313 
L 450.617064 264.620345 
L 451.467242 241.770695 
L 451.750635 228.901032 
L 452.034027 226.980568 
L 452.31742 227.608784 
L 452.884205 231.721673 
L 454.867953 251.085005 
L 455.718131 256.689286 
L 456.568309 260.607359 
L 457.418487 263.236809 
L 458.268664 264.951867 
L 459.118842 266.04939 
L 459.96902 266.743077 
L 460.819198 267.178062 
L 461.952768 267.514858 
L 463.653123 267.748251 
L 465.070086 267.828288 
L 465.353479 266.915347 
L 466.487049 267.37503 
L 467.904012 267.65987 
L 470.171153 267.828563 
L 471.871508 267.868753 
L 472.154901 267.326543 
L 473.571864 267.637931 
L 475.555612 267.810084 
L 478.67293 267.87931 
L 478.956323 267.595947 
L 480.940071 267.796325 
L 484.624175 267.88153 
L 485.474352 267.886172 
L 485.757745 267.468334 
L 487.458101 267.730333 
L 490.292026 267.860673 
L 492.275775 267.882927 
L 492.559167 267.340722 
L 493.97613 267.644348 
L 495.959878 267.812186 
L 499.077197 267.879672 
L 499.360589 267.213109 
L 500.494159 267.542394 
L 500.777552 267.443258 
L 501.060945 266.450521 
L 501.344337 263.454224 
L 501.911122 252.608729 
L 502.477908 241.062459 
L 503.89487 221.660628 
L 504.178263 214.734652 
L 504.461656 210.830736 
L 504.745048 211.5288 
L 505.311833 218.741131 
L 505.878619 226.528067 
L 506.162011 254.466049 
L 507.862367 256.642003 
L 509.562722 258.46532 
L 510.979685 259.774511 
L 511.263078 259.771382 
L 511.829863 257.653154 
L 512.113255 257.405083 
L 512.680041 257.976739 
L 512.963433 266.787735 
L 514.097004 267.307783 
L 514.663789 267.34011 
L 514.947181 267.209162 
L 515.230574 266.950999 
L 515.513966 266.943128 
L 516.364144 267.309366 
L 526.282885 267.891532 
L 533.084307 267.893662 
L 533.367699 267.595947 
L 535.351447 267.796343 
L 537.051803 267.903695 
L 537.335196 267.476197 
L 537.618588 266.62871 
L 537.901981 266.449741 
L 538.468766 266.855971 
L 539.318944 267.250118 
L 539.885729 267.425372 
L 540.169121 267.723559 
L 542.719655 267.853333 
L 546.687151 267.921654 
L 546.970543 267.397438 
L 548.670899 267.676892 
L 550.654647 267.819037 
L 557.456069 267.85169 
L 557.739462 268.031068 
L 558.022854 266.853026 
L 558.306247 264.416063 
L 558.589639 263.955961 
L 558.873032 262.389477 
L 559.156425 257.688908 
L 559.439817 254.885222 
L 559.72321 255.647718 
L 560.289995 258.668093 
L 560.573388 266.092956 
L 561.140173 263.321968 
L 561.99035 261.074493 
L 562.273743 260.54486 
L 562.840528 259.977686 
L 563.123921 259.389198 
L 563.974099 256.671685 
L 564.257491 256.450477 
L 564.540884 256.574095 
L 567.091417 259.16571 
L 567.37481 262.179509 
L 569.64195 263.379523 
L 571.909091 264.327527 
L 573.892839 264.992196 
L 574.176232 266.419077 
L 578.143728 266.922559 
L 580.694261 267.151247 
L 580.977654 267.02878 
L 586.362113 267.403029 
L 587.495683 267.458227 
L 587.779076 266.858631 
L 592.59675 267.270399 
L 594.297105 267.376244 
L 594.580498 267.184751 
L 594.86389 266.557336 
L 595.430675 263.990105 
L 595.714068 263.203914 
L 596.280853 259.828781 
L 596.847638 255.721886 
L 597.131031 254.814813 
L 597.414424 254.939461 
L 597.981209 255.580405 
L 598.264601 255.337094 
L 598.547994 253.248473 
L 599.114779 246.466507 
L 599.398172 246.564986 
L 601.098527 250.054632 
L 601.38192 259.542186 
L 603.365668 261.098753 
L 605.349416 262.365204 
L 607.616557 263.526221 
L 607.899949 263.653037 
L 608.183342 265.951165 
L 609.03352 266.681268 
L 609.883697 267.139412 
L 611.017268 267.494312 
L 612.717623 267.740339 
L 614.701371 267.843606 
L 614.984764 267.19893 
L 616.118334 267.525947 
L 617.81869 267.75252 
L 620.652616 267.865165 
L 621.502793 267.876044 
L 621.786186 267.213109 
L 622.636364 267.508034 
L 622.636364 267.508034 
" clip-path="url(#p0e880a4b32)" style="fill: none; stroke: #ff7f0e; stroke-width: 1.5; stroke-linecap: square"/>
   </g>
   <g id="patch_3">
    <path d="M 90 288 
L 90 43.2 
" style="fill: none; stroke: #000000; stroke-width: 0.8; stroke-linejoin: miter; stroke-linecap: square"/>
   </g>
   <g id="patch_4">
    <path d="M 648 288 
L 648 43.2 
" style="fill: none; stroke: #000000; stroke-width: 0.8; stroke-linejoin: miter; stroke-linecap: square"/>
   </g>
   <g id="patch_5">
    <path d="M 90 288 
L 648 288 
" style="fill: none; stroke: #000000; stroke-width: 0.8; stroke-linejoin: miter; stroke-linecap: square"/>
   </g>
   <g id="patch_6">
    <path d="M 90 43.2 
L 648 43.2 
" style="fill: none; stroke: #000000; stroke-width: 0.8; stroke-linejoin: miter; stroke-linecap: square"/>
   </g>
   <g id="text_16">
    <!-- DET038 -->
    <g transform="translate(345.471563 37.2) scale(0.12 -0.12)">
     <defs>
      <path id="DejaVuSans-44" d="M 1259 4147 
L 1259 519 
L 2022 519 
Q 2988 519 3436 956 
Q 3884 1394 3884 2338 
Q 3884 3275 3436 3711 
Q 2988 4147 2022 4147 
L 1259 4147 
z
M 628 4666 
L 1925 4666 
Q 3281 4666 3915 4102 
Q 4550 3538 4550 2338 
Q 4550 1131 3912 565 
Q 3275 0 1925 0 
L 628 0 
L 628 4666 
z
" transform="scale(0.015625)"/>
      <path id="DejaVuSans-45" d="M 628 4666 
L 3578 4666 
L 3578 4134 
L 1259 4134 
L 1259 2753 
L 3481 2753 
L 3481 2222 
L 1259 2222 
L 1259 531 
L 3634 531 
L 3634 0 
L 628 0 
L 628 4666 
z
" transform="scale(0.015625)"/>
      <path id="DejaVuSans-54" d="M -19 4666 
L 3928 4666 
L 3928 4134 
L 2272 4134 
L 2272 0 
L 1638 0 
L 1638 4134 
L -19 4134 
L -19 4666 
z
" transform="scale(0.015625)"/>
     </defs>
     <use xlink:href="#DejaVuSans-44"/>
     <use xlink:href="#DejaVuSans-45" x="77.001953"/>
     <use xlink:href="#DejaVuSans-54" x="140.185547"/>
     <use xlink:href="#DejaVuSans-30" x="201.269531"/>
     <use xlink:href="#DejaVuSans-33" x="264.892578"/>
     <use xlink:href="#DejaVuSans-38" x="328.515625"/>
    </g>
   </g>
   <g id="legend_1">
    <g id="patch_7">
     <path d="M 559.04375 80.55625 
L 641 80.55625 
Q 643 80.55625 643 78.55625 
L 643 50.2 
Q 643 48.2 641 48.2 
L 559.04375 48.2 
Q 557.04375 48.2 557.04375 50.2 
L 557.04375 78.55625 
Q 557.04375 80.55625 559.04375 80.55625 
z
" style="fill: #ffffff; opacity: 0.8; stroke: #cccccc; stroke-linejoin: miter"/>
    </g>
    <g id="line2d_17">
     <path d="M 561.04375 56.298437 
L 571.04375 56.298437 
L 581.04375 56.298437 
" style="fill: none; stroke: #1f77b4; stroke-width: 1.5; stroke-linecap: square"/>
    </g>
    <g id="text_17">
     <!-- measured -->
     <g transform="translate(589.04375 59.798437) scale(0.1 -0.1)">
      <defs>
       <path id="DejaVuSans-6d" d="M 3328 2828 
Q 3544 3216 3844 3400 
Q 4144 3584 4550 3584 
Q 5097 3584 5394 3201 
Q 5691 2819 5691 2113 
L 5691 0 
L 5113 0 
L 5113 2094 
Q 5113 2597 4934 2840 
Q 4756 3084 4391 3084 
Q 3944 3084 3684 2787 
Q 3425 2491 3425 1978 
L 3425 0 
L 2847 0 
L 2847 2094 
Q 2847 2600 2669 2842 
Q 2491 3084 2119 3084 
Q 1678 3084 1418 2786 
Q 1159 2488 1159 1978 
L 1159 0 
L 581 0 
L 581 3500 
L 1159 3500 
L 1159 2956 
Q 1356 3278 1631 3431 
Q 1906 3584 2284 3584 
Q 2666 3584 2933 3390 
Q 3200 3197 3328 2828 
z
" transform="scale(0.015625)"/>
       <path id="DejaVuSans-61" d="M 2194 1759 
Q 1497 1759 1228 1600 
Q 959 1441 959 1056 
Q 959 750 1161 570 
Q 1363 391 1709 391 
Q 2188 391 2477 730 
Q 2766 1069 2766 1631 
L 2766 1759 
L 2194 1759 
z
M 3341 1997 
L 3341 0 
L 2766 0 
L 2766 531 
Q 2569 213 2275 61 
Q 1981 -91 1556 -91 
Q 1019 -91 701 211 
Q 384 513 384 1019 
Q 384 1609 779 1909 
Q 1175 2209 1959 2209 
L 2766 2209 
L 2766 2266 
Q 2766 2663 2505 2880 
Q 2244 3097 1772 3097 
Q 1472 3097 1187 3025 
Q 903 2953 641 2809 
L 641 3341 
Q 956 3463 1253 3523 
Q 1550 3584 1831 3584 
Q 2591 3584 2966 3190 
Q 3341 2797 3341 1997 
z
" transform="scale(0.015625)"/>
       <path id="DejaVuSans-75" d="M 544 1381 
L 544 3500 
L 1119 3500 
L 1119 1403 
Q 1119 906 1312 657 
Q 1506 409 1894 409 
Q 2359 409 2629 706 
Q 2900 1003 2900 1516 
L 2900 3500 
L 3475 3500 
L 3475 0 
L 2900 0 
L 2900 538 
Q 2691 219 2414 64 
Q 2138 -91 1772 -91 
Q 1169 -91 856 284 
Q 544 659 544 1381 
z
M 1991 3584 
L 1991 3584 
z
" transform="scale(0.015625)"/>
       <path id="DejaVuSans-64" d="M 2906 2969 
L 2906 4863 
L 3481 4863 
L 3481 0 
L 2906 0 
L 2906 525 
Q 2725 213 2448 61 
Q 2172 -91 1784 -91 
Q 1150 -91 751 415 
Q 353 922 353 1747 
Q 353 2572 751 3078 
Q 1150 3584 1784 3584 
Q 2172 3584 2448 3432 
Q 2725 3281 2906 2969 
z
M 947 1747 
Q 947 1113 1208 752 
Q 1469 391 1925 391 
Q 2381 391 2643 752 
Q 2906 1113 2906 1747 
Q 2906 2381 2643 2742 
Q 2381 3103 1925 3103 
Q 1469 3103 1208 2742 
Q 947 2381 947 1747 
z
" transform="scale(0.015625)"/>
      </defs>
      <use xlink:href="#DejaVuSans-6d"/>
      <use xlink:href="#DejaVuSans-65" x="97.412109"/>
      <use xlink:href="#DejaVuSans-61" x="158.935547"/>
      <use xlink:href="#DejaVuSans-73" x="220.214844"/>
      <use xlink:href="#DejaVuSans-75" x="272.314453"/>
      <use xlink:href="#DejaVuSans-72" x="335.693359"/>
      <use xlink:href="#DejaVuSans-65" x="374.556641"/>
      <use xlink:href="#DejaVuSans-64" x="436.080078"/>
     </g>
    </g>
    <g id="line2d_18">
     <path d="M 561.04375 70.976562 
L 571.04375 70.976562 
L 581.04375 70.976562 
" style="fill: none; stroke: #ff7f0e; stroke-width: 1.5; stroke-linecap: square"/>
    </g>
    <g id="text_18">
     <!-- predicted -->
     <g transform="translate(589.04375 74.476562) scale(0.1 -0.1)">
      <defs>
       <path id="DejaVuSans-70" d="M 1159 525 
L 1159 -1331 
L 581 -1331 
L 581 3500 
L 1159 3500 
L 1159 2969 
Q 1341 3281 1617 3432 
Q 1894 3584 2278 3584 
Q 2916 3584 3314 3078 
Q 3713 2572 3713 1747 
Q 3713 922 3314 415 
Q 2916 -91 2278 -91 
Q 1894 -91 1617 61 
Q 1341 213 1159 525 
z
M 3116 1747 
Q 3116 2381 2855 2742 
Q 2594 3103 2138 3103 
Q 1681 3103 1420 2742 
Q 1159 2381 1159 1747 
Q 1159 1113 1420 752 
Q 1681 391 2138 391 
Q 2594 391 2855 752 
Q 3116 1113 3116 1747 
z
" transform="scale(0.015625)"/>
       <path id="DejaVuSans-69" d="M 603 3500 
L 1178 3500 
L 1178 0 
L 603 0 
L 603 3500 
z
M 603 4863 
L 1178 4863 
L 1178 4134 
L 603 4134 
L 603 4863 
z
" transform="scale(0.015625)"/>
       <path id="DejaVuSans-63" d="M 3122 3366 
L 3122 2828 
Q 2878 2963 2633 3030 
Q 2388 3097 2138 3097 
Q 1578 3097 1268 2742 
Q 959 2388 959 1747 
Q 959 1106 1268 751 
Q 1578 397 2138 397 
Q 2388 397 2633 464 
Q 2878 531 3122 666 
L 3122 134 
Q 2881 22 2623 -34 
Q 2366 -91 2075 -91 
Q 1284 -91 818 406 
Q 353 903 353 1747 
Q 353 2603 823 3093 
Q 1294 3584 2113 3584 
Q 2378 3584 2631 3529 
Q 2884 3475 3122 3366 
z
" transform="scale(0.015625)"/>
      </defs>
      <use xlink:href="#DejaVuSans-70"/>
      <use xlink:href="#DejaVuSans-72" x="63.476562"/>
      <use xlink:href="#DejaVuSans-65" x="102.339844"/>
      <use xlink:href="#DejaVuSans-64" x="163.863281"/>
      <use xlink:href="#DejaVuSans-69" x="227.339844"/>
      <use xlink:href="#DejaVuSans-63" x="255.123047"/>
      <use xlink:href="#DejaVuSans-74" x="310.103516"/>
      <use xlink:href="#DejaVuSans-65" x="349.3125"/>
      <use xlink:href="#DejaVuSans-64" x="410.835938"/>
     </g>
    </g>
   </g>
  </g>
 </g>
 <defs>
  <clipPath id="p0e880a4b32">
   <rect x="90" y="43.2" width="558" height="244.8"/>
  </clipPath>
 </defs>
</svg>
