<?xml version="1.0" encoding="utf-8" standalone="no"?>
<!DOCTYPE svg PUBLIC "-//W3C//DTD SVG 1.1//EN"
  "http://www.w3.org/Graphics/SVG/1.1/DTD/svg11.dtd">
<svg xmlns:xlink="http://www.w3.org/1999/xlink" width="713.0225pt" height="351.43625pt" viewBox="0 0 713.0225 351.43625" xmlns="http://www.w3.org/2000/svg" version="1.1">
 <metadata>
  <rdf:RDF xmlns:dc="http://purl.org/dc/elements/1.1/" xmlns:cc="http://creativecommons.org/ns#" xmlns:rdf="http://www.w3.org/1999/02/22-rdf-syntax-ns#">
   <cc:Work>
    <dc:type rdf:resource="http://purl.org/dc/dcmitype/StillImage"/>
    <dc:date>2023-08-05T18:42:45.495404</dc:date>
    <dc:format>image/svg+xml</dc:format>
    <dc:creator>
     <cc:Agent>
      <dc:title>Matplotlib v3.7.1, https://matplotlib.org/</dc:title>
     </cc:Agent>
    </dc:creator>
   </cc:Work>
  </rdf:RDF>
 </metadata>
 <defs>
  <style type="text/css">*{stroke-linejoin: round; stroke-linecap: butt}</style>
 </defs>
 <g id="figure_1">
  <g id="patch_1">
   <path d="M 0 351.43625 
L 713.0225 351.43625 
L 713.0225 0 
L 0 0 
z
" style="fill: #ffffff"/>
  </g>
  <g id="axes_1">
   <g id="patch_2">
    <path d="M 46.0125 327.558125 
L 705.8225 327.558125 
L 705.8225 22.318125 
L 46.0125 22.318125 
z
" style="fill: #ffffff"/>
   </g>
   <g id="matplotlib.axis_1">
    <g id="xtick_1">
     <g id="line2d_1">
      <defs>
       <path id="mb0337a2828" d="M 0 0 
L 0 3.5 
" style="stroke: #000000; stroke-width: 0.8"/>
      </defs>
      <g>
       <use xlink:href="#mb0337a2828" x="140.855511" y="327.558125" style="stroke: #000000; stroke-width: 0.8"/>
      </g>
     </g>
     <g id="text_1">
      <!-- 2010 -->
      <g transform="translate(128.130511 342.156563) scale(0.1 -0.1)">
       <defs>
        <path id="DejaVuSans-32" d="M 1228 531 
L 3431 531 
L 3431 0 
L 469 0 
L 469 531 
Q 828 903 1448 1529 
Q 2069 2156 2228 2338 
Q 2531 2678 2651 2914 
Q 2772 3150 2772 3378 
Q 2772 3750 2511 3984 
Q 2250 4219 1831 4219 
Q 1534 4219 1204 4116 
Q 875 4013 500 3803 
L 500 4441 
Q 881 4594 1212 4672 
Q 1544 4750 1819 4750 
Q 2544 4750 2975 4387 
Q 3406 4025 3406 3419 
Q 3406 3131 3298 2873 
Q 3191 2616 2906 2266 
Q 2828 2175 2409 1742 
Q 1991 1309 1228 531 
z
" transform="scale(0.015625)"/>
        <path id="DejaVuSans-30" d="M 2034 4250 
Q 1547 4250 1301 3770 
Q 1056 3291 1056 2328 
Q 1056 1369 1301 889 
Q 1547 409 2034 409 
Q 2525 409 2770 889 
Q 3016 1369 3016 2328 
Q 3016 3291 2770 3770 
Q 2525 4250 2034 4250 
z
M 2034 4750 
Q 2819 4750 3233 4129 
Q 3647 3509 3647 2328 
Q 3647 1150 3233 529 
Q 2819 -91 2034 -91 
Q 1250 -91 836 529 
Q 422 1150 422 2328 
Q 422 3509 836 4129 
Q 1250 4750 2034 4750 
z
" transform="scale(0.015625)"/>
        <path id="DejaVuSans-31" d="M 794 531 
L 1825 531 
L 1825 4091 
L 703 3866 
L 703 4441 
L 1819 4666 
L 2450 4666 
L 2450 531 
L 3481 531 
L 3481 0 
L 794 0 
L 794 531 
z
" transform="scale(0.015625)"/>
       </defs>
       <use xlink:href="#DejaVuSans-32"/>
       <use xlink:href="#DejaVuSans-30" x="63.623047"/>
       <use xlink:href="#DejaVuSans-31" x="127.246094"/>
       <use xlink:href="#DejaVuSans-30" x="190.869141"/>
      </g>
     </g>
    </g>
    <g id="xtick_2">
     <g id="line2d_2">
      <g>
       <use xlink:href="#mb0337a2828" x="258.743129" y="327.558125" style="stroke: #000000; stroke-width: 0.8"/>
      </g>
     </g>
     <g id="text_2">
      <!-- 2011 -->
      <g transform="translate(246.018129 342.156563) scale(0.1 -0.1)">
       <use xlink:href="#DejaVuSans-32"/>
       <use xlink:href="#DejaVuSans-30" x="63.623047"/>
       <use xlink:href="#DejaVuSans-31" x="127.246094"/>
       <use xlink:href="#DejaVuSans-31" x="190.869141"/>
      </g>
     </g>
    </g>
    <g id="xtick_3">
     <g id="line2d_3">
      <g>
       <use xlink:href="#mb0337a2828" x="376.630747" y="327.558125" style="stroke: #000000; stroke-width: 0.8"/>
      </g>
     </g>
     <g id="text_3">
      <!-- 2012 -->
      <g transform="translate(363.905747 342.156563) scale(0.1 -0.1)">
       <use xlink:href="#DejaVuSans-32"/>
       <use xlink:href="#DejaVuSans-30" x="63.623047"/>
       <use xlink:href="#DejaVuSans-31" x="127.246094"/>
       <use xlink:href="#DejaVuSans-32" x="190.869141"/>
      </g>
     </g>
    </g>
    <g id="xtick_4">
     <g id="line2d_4">
      <g>
       <use xlink:href="#mb0337a2828" x="494.841345" y="327.558125" style="stroke: #000000; stroke-width: 0.8"/>
      </g>
     </g>
     <g id="text_4">
      <!-- 2013 -->
      <g transform="translate(482.116345 342.156563) scale(0.1 -0.1)">
       <defs>
        <path id="DejaVuSans-33" d="M 2597 2516 
Q 3050 2419 3304 2112 
Q 3559 1806 3559 1356 
Q 3559 666 3084 287 
Q 2609 -91 1734 -91 
Q 1441 -91 1130 -33 
Q 819 25 488 141 
L 488 750 
Q 750 597 1062 519 
Q 1375 441 1716 441 
Q 2309 441 2620 675 
Q 2931 909 2931 1356 
Q 2931 1769 2642 2001 
Q 2353 2234 1838 2234 
L 1294 2234 
L 1294 2753 
L 1863 2753 
Q 2328 2753 2575 2939 
Q 2822 3125 2822 3475 
Q 2822 3834 2567 4026 
Q 2313 4219 1838 4219 
Q 1578 4219 1281 4162 
Q 984 4106 628 3988 
L 628 4550 
Q 988 4650 1302 4700 
Q 1616 4750 1894 4750 
Q 2613 4750 3031 4423 
Q 3450 4097 3450 3541 
Q 3450 3153 3228 2886 
Q 3006 2619 2597 2516 
z
" transform="scale(0.015625)"/>
       </defs>
       <use xlink:href="#DejaVuSans-32"/>
       <use xlink:href="#DejaVuSans-30" x="63.623047"/>
       <use xlink:href="#DejaVuSans-31" x="127.246094"/>
       <use xlink:href="#DejaVuSans-33" x="190.869141"/>
      </g>
     </g>
    </g>
    <g id="xtick_5">
     <g id="line2d_5">
      <g>
       <use xlink:href="#mb0337a2828" x="612.728963" y="327.558125" style="stroke: #000000; stroke-width: 0.8"/>
      </g>
     </g>
     <g id="text_5">
      <!-- 2014 -->
      <g transform="translate(600.003963 342.156563) scale(0.1 -0.1)">
       <defs>
        <path id="DejaVuSans-34" d="M 2419 4116 
L 825 1625 
L 2419 1625 
L 2419 4116 
z
M 2253 4666 
L 3047 4666 
L 3047 1625 
L 3713 1625 
L 3713 1100 
L 3047 1100 
L 3047 0 
L 2419 0 
L 2419 1100 
L 313 1100 
L 313 1709 
L 2253 4666 
z
" transform="scale(0.015625)"/>
       </defs>
       <use xlink:href="#DejaVuSans-32"/>
       <use xlink:href="#DejaVuSans-30" x="63.623047"/>
       <use xlink:href="#DejaVuSans-31" x="127.246094"/>
       <use xlink:href="#DejaVuSans-34" x="190.869141"/>
      </g>
     </g>
    </g>
   </g>
   <g id="matplotlib.axis_2">
    <g id="ytick_1">
     <g id="line2d_6">
      <defs>
       <path id="ma2bd36392b" d="M 0 0 
L -3.5 0 
" style="stroke: #000000; stroke-width: 0.8"/>
      </defs>
      <g>
       <use xlink:href="#ma2bd36392b" x="46.0125" y="313.636288" style="stroke: #000000; stroke-width: 0.8"/>
      </g>
     </g>
     <g id="text_6">
      <!-- 0 -->
      <g transform="translate(32.65 317.435507) scale(0.1 -0.1)">
       <use xlink:href="#DejaVuSans-30"/>
      </g>
     </g>
    </g>
    <g id="ytick_2">
     <g id="line2d_7">
      <g>
       <use xlink:href="#ma2bd36392b" x="46.0125" y="274.390579" style="stroke: #000000; stroke-width: 0.8"/>
      </g>
     </g>
     <g id="text_7">
      <!-- 2000 -->
      <g transform="translate(13.5625 278.189798) scale(0.1 -0.1)">
       <use xlink:href="#DejaVuSans-32"/>
       <use xlink:href="#DejaVuSans-30" x="63.623047"/>
       <use xlink:href="#DejaVuSans-30" x="127.246094"/>
       <use xlink:href="#DejaVuSans-30" x="190.869141"/>
      </g>
     </g>
    </g>
    <g id="ytick_3">
     <g id="line2d_8">
      <g>
       <use xlink:href="#ma2bd36392b" x="46.0125" y="235.14487" style="stroke: #000000; stroke-width: 0.8"/>
      </g>
     </g>
     <g id="text_8">
      <!-- 4000 -->
      <g transform="translate(13.5625 238.944088) scale(0.1 -0.1)">
       <use xlink:href="#DejaVuSans-34"/>
       <use xlink:href="#DejaVuSans-30" x="63.623047"/>
       <use xlink:href="#DejaVuSans-30" x="127.246094"/>
       <use xlink:href="#DejaVuSans-30" x="190.869141"/>
      </g>
     </g>
    </g>
    <g id="ytick_4">
     <g id="line2d_9">
      <g>
       <use xlink:href="#ma2bd36392b" x="46.0125" y="195.89916" style="stroke: #000000; stroke-width: 0.8"/>
      </g>
     </g>
     <g id="text_9">
      <!-- 6000 -->
      <g transform="translate(13.5625 199.698379) scale(0.1 -0.1)">
       <defs>
        <path id="DejaVuSans-36" d="M 2113 2584 
Q 1688 2584 1439 2293 
Q 1191 2003 1191 1497 
Q 1191 994 1439 701 
Q 1688 409 2113 409 
Q 2538 409 2786 701 
Q 3034 994 3034 1497 
Q 3034 2003 2786 2293 
Q 2538 2584 2113 2584 
z
M 3366 4563 
L 3366 3988 
Q 3128 4100 2886 4159 
Q 2644 4219 2406 4219 
Q 1781 4219 1451 3797 
Q 1122 3375 1075 2522 
Q 1259 2794 1537 2939 
Q 1816 3084 2150 3084 
Q 2853 3084 3261 2657 
Q 3669 2231 3669 1497 
Q 3669 778 3244 343 
Q 2819 -91 2113 -91 
Q 1303 -91 875 529 
Q 447 1150 447 2328 
Q 447 3434 972 4092 
Q 1497 4750 2381 4750 
Q 2619 4750 2861 4703 
Q 3103 4656 3366 4563 
z
" transform="scale(0.015625)"/>
       </defs>
       <use xlink:href="#DejaVuSans-36"/>
       <use xlink:href="#DejaVuSans-30" x="63.623047"/>
       <use xlink:href="#DejaVuSans-30" x="127.246094"/>
       <use xlink:href="#DejaVuSans-30" x="190.869141"/>
      </g>
     </g>
    </g>
    <g id="ytick_5">
     <g id="line2d_10">
      <g>
       <use xlink:href="#ma2bd36392b" x="46.0125" y="156.653451" style="stroke: #000000; stroke-width: 0.8"/>
      </g>
     </g>
     <g id="text_10">
      <!-- 8000 -->
      <g transform="translate(13.5625 160.45267) scale(0.1 -0.1)">
       <defs>
        <path id="DejaVuSans-38" d="M 2034 2216 
Q 1584 2216 1326 1975 
Q 1069 1734 1069 1313 
Q 1069 891 1326 650 
Q 1584 409 2034 409 
Q 2484 409 2743 651 
Q 3003 894 3003 1313 
Q 3003 1734 2745 1975 
Q 2488 2216 2034 2216 
z
M 1403 2484 
Q 997 2584 770 2862 
Q 544 3141 544 3541 
Q 544 4100 942 4425 
Q 1341 4750 2034 4750 
Q 2731 4750 3128 4425 
Q 3525 4100 3525 3541 
Q 3525 3141 3298 2862 
Q 3072 2584 2669 2484 
Q 3125 2378 3379 2068 
Q 3634 1759 3634 1313 
Q 3634 634 3220 271 
Q 2806 -91 2034 -91 
Q 1263 -91 848 271 
Q 434 634 434 1313 
Q 434 1759 690 2068 
Q 947 2378 1403 2484 
z
M 1172 3481 
Q 1172 3119 1398 2916 
Q 1625 2713 2034 2713 
Q 2441 2713 2670 2916 
Q 2900 3119 2900 3481 
Q 2900 3844 2670 4047 
Q 2441 4250 2034 4250 
Q 1625 4250 1398 4047 
Q 1172 3844 1172 3481 
z
" transform="scale(0.015625)"/>
       </defs>
       <use xlink:href="#DejaVuSans-38"/>
       <use xlink:href="#DejaVuSans-30" x="63.623047"/>
       <use xlink:href="#DejaVuSans-30" x="127.246094"/>
       <use xlink:href="#DejaVuSans-30" x="190.869141"/>
      </g>
     </g>
    </g>
    <g id="ytick_6">
     <g id="line2d_11">
      <g>
       <use xlink:href="#ma2bd36392b" x="46.0125" y="117.407741" style="stroke: #000000; stroke-width: 0.8"/>
      </g>
     </g>
     <g id="text_11">
      <!-- 10000 -->
      <g transform="translate(7.2 121.20696) scale(0.1 -0.1)">
       <use xlink:href="#DejaVuSans-31"/>
       <use xlink:href="#DejaVuSans-30" x="63.623047"/>
       <use xlink:href="#DejaVuSans-30" x="127.246094"/>
       <use xlink:href="#DejaVuSans-30" x="190.869141"/>
       <use xlink:href="#DejaVuSans-30" x="254.492188"/>
      </g>
     </g>
    </g>
    <g id="ytick_7">
     <g id="line2d_12">
      <g>
       <use xlink:href="#ma2bd36392b" x="46.0125" y="78.162032" style="stroke: #000000; stroke-width: 0.8"/>
      </g>
     </g>
     <g id="text_12">
      <!-- 12000 -->
      <g transform="translate(7.2 81.961251) scale(0.1 -0.1)">
       <use xlink:href="#DejaVuSans-31"/>
       <use xlink:href="#DejaVuSans-32" x="63.623047"/>
       <use xlink:href="#DejaVuSans-30" x="127.246094"/>
       <use xlink:href="#DejaVuSans-30" x="190.869141"/>
       <use xlink:href="#DejaVuSans-30" x="254.492188"/>
      </g>
     </g>
    </g>
    <g id="ytick_8">
     <g id="line2d_13">
      <g>
       <use xlink:href="#ma2bd36392b" x="46.0125" y="38.916323" style="stroke: #000000; stroke-width: 0.8"/>
      </g>
     </g>
     <g id="text_13">
      <!-- 14000 -->
      <g transform="translate(7.2 42.715541) scale(0.1 -0.1)">
       <use xlink:href="#DejaVuSans-31"/>
       <use xlink:href="#DejaVuSans-34" x="63.623047"/>
       <use xlink:href="#DejaVuSans-30" x="127.246094"/>
       <use xlink:href="#DejaVuSans-30" x="190.869141"/>
       <use xlink:href="#DejaVuSans-30" x="254.492188"/>
      </g>
     </g>
    </g>
   </g>
   <g id="line2d_14">
    <path d="M 76.003864 311.236413 
L 76.582536 312.062045 
L 76.622908 312.042913 
L 76.824771 311.305093 
L 76.865143 311.236413 
L 77.053548 310.279799 
L 77.120835 304.231054 
L 77.188123 302.082352 
L 77.25541 302.661226 
L 77.699507 308.631479 
L 77.753337 308.950351 
L 77.780252 308.690348 
L 77.807167 308.150719 
L 77.887912 308.616762 
L 77.914827 308.557894 
L 77.9552 308.705065 
L 78.399297 310.412253 
L 78.937597 311.815288 
L 79.570099 312.541333 
L 80.606325 313.022093 
L 81.023508 313.124132 
L 81.198455 313.186925 
L 82.665322 313.286021 
L 82.799896 313.310549 
L 82.867184 313.203114 
L 82.921014 312.657108 
L 83.042131 306.409191 
L 83.095961 302.430657 
L 83.163249 304.711814 
L 83.418941 309.666585 
L 83.674633 311.300188 
L 84.011071 312.227858 
L 85.41065 313.065263 
L 85.558682 313.082924 
L 85.827832 313.186925 
L 85.962407 313.251681 
L 86.917889 313.141793 
L 87.039006 313.147679 
L 87.052463 313.16534 
L 87.550391 313.276209 
L 87.725338 313.310549 
L 87.846455 313.276209 
L 88.263638 313.310549 
L 88.653905 313.250699 
L 88.775022 312.998546 
L 89.017257 313.094698 
L 89.272949 313.251681 
L 89.542099 313.175642 
L 89.649759 313.022093 
L 89.690132 313.047603 
L 89.838164 312.947036 
L 90.174601 312.307821 
L 90.201516 312.324501 
L 90.672528 312.740505 
L 90.982051 312.696354 
L 91.802958 312.797411 
L 91.883703 312.839601 
L 91.937533 312.790053 
L 92.045192 312.696354 
L 92.072107 312.725788 
L 92.125937 312.65024 
L 92.260512 312.062045 
L 92.354715 312.182235 
L 92.570035 312.468238 
L 93.014132 312.812129 
L 93.148707 312.40986 
L 93.242909 312.434879 
L 93.283282 312.237179 
L 93.350569 312.358841 
L 93.673549 312.747864 
L 94.696318 313.186925 
L 94.911638 313.219303 
L 94.992383 312.740015 
L 95.032755 312.953904 
L 95.16733 312.998546 
L 95.423023 312.812129 
L 96.365047 313.186925 
L 96.526537 313.16534 
L 97.037922 313.094698 
L 97.091751 312.894545 
L 97.145581 313.010319 
L 97.414731 313.203114 
L 97.670424 313.022093 
L 97.683881 313.041225 
L 98.154893 313.192321 
L 98.276011 313.047603 
L 98.477873 312.953904 
L 98.59899 312.953904 
L 98.908513 313.047603 
L 99.096918 313.118245 
L 99.769792 313.224699 
L 100.375379 313.349795 
L 101.411606 313.455758 
L 101.586553 313.471456 
L 103.080335 313.580363 
L 103.632092 313.589194 
L 106.727315 313.518061 
L 106.75423 313.409154 
L 106.834975 313.504815 
L 107.036837 313.561722 
L 107.480934 313.57742 
L 109.351525 313.488626 
L 109.391898 313.349795 
L 109.472643 313.455758 
L 109.620675 313.44006 
L 109.75525 313.300738 
L 109.80908 312.893073 
L 109.849453 310.745842 
L 109.930198 297.240412 
L 109.984027 299.173263 
L 110.212805 308.611857 
L 110.45504 310.966599 
L 110.778019 312.155254 
L 111.168287 312.696354 
L 111.558554 312.966659 
L 112.271801 313.186925 
L 112.742813 313.290926 
L 112.985048 313.330172 
L 115.986068 313.219303 
L 116.255218 313.141793 
L 116.470538 313.16534 
L 117.304902 313.276209 
L 117.64134 313.281115 
L 118.758311 313.181529 
L 118.973631 312.127291 
L 119.081291 312.237179 
L 119.108206 312.2725 
L 119.148579 312.127291 
L 119.323526 312.376501 
L 119.538846 312.635523 
L 119.821453 312.790053 
L 119.848368 312.711071 
L 119.915656 311.875628 
L 120.090603 302.057823 
L 120.184805 304.039731 
L 120.48087 308.925822 
L 120.763477 310.579048 
L 120.951882 311.138299 
L 121.167202 311.56019 
L 121.194117 311.466982 
L 121.315235 310.019796 
L 121.490182 301.650649 
L 121.584384 303.352931 
L 121.934279 308.224305 
L 122.338004 310.397536 
L 123.131996 311.895741 
L 123.226198 311.993856 
L 123.522263 312.237179 
L 123.69721 312.34118 
L 124.356627 312.65024 
L 124.518117 312.324501 
L 124.598862 311.280565 
L 124.71998 295.704924 
L 124.787267 284.029325 
L 124.921842 209.903992 
L 124.975672 231.587246 
L 125.164077 287.119925 
L 125.392854 298.893638 
L 125.729292 305.182763 
L 126.065729 307.817131 
L 126.361794 309.126956 
L 126.429081 309.332996 
L 126.711688 310.098288 
L 127.034668 310.618293 
L 127.048126 310.574142 
L 127.128871 310.520179 
L 127.169243 310.588859 
L 127.478765 311.010751 
L 127.586425 311.108865 
L 128.003607 311.403208 
L 128.20547 311.501322 
L 128.353502 311.599436 
L 128.555365 311.123582 
L 128.811057 310.461311 
L 128.999462 310.127722 
L 129.174409 309.853002 
L 129.430101 309.956022 
L 130.82968 311.363962 
L 130.896968 311.275659 
L 130.950798 311.295282 
L 131.36798 311.599436 
L 131.408353 311.501322 
L 131.462183 311.162828 
L 131.502555 310.103193 
L 131.623672 284.961411 
L 131.704417 290.504867 
L 131.96011 301.160077 
L 132.269632 305.545785 
L 133.063624 309.048465 
L 133.117454 309.126956 
L 133.292401 309.362431 
L 133.400061 309.259411 
L 133.426976 308.763934 
L 133.507721 298.334386 
L 133.548094 270.24427 
L 133.601924 210.983249 
L 133.669211 227.515504 
L 133.871073 273.972612 
L 134.099851 294.792461 
L 134.436288 303.348026 
L 134.69198 306.065791 
L 134.893843 306.94882 
L 134.9073 306.929197 
L 135.028418 305.354463 
L 135.216822 303.200854 
L 135.324482 303.024249 
L 135.351397 303.048777 
L 136.441454 308.430345 
L 136.602944 308.778651 
L 136.629859 308.626574 
L 136.804806 308.126191 
L 136.818264 308.140908 
L 137.585341 310.304328 
L 137.706458 310.402442 
L 138.002523 310.574142 
L 138.12364 310.574142 
L 138.137098 310.618293 
L 138.2313 310.559425 
L 138.312045 310.476028 
L 138.648483 309.499791 
L 138.863802 307.60128 
L 138.93109 288.836925 
L 138.998377 272.353727 
L 139.065665 277.504726 
L 139.186782 285.795382 
L 139.227155 283.882154 
L 139.25407 283.489697 
L 139.294442 284.47084 
L 139.792369 300.159312 
L 140.424871 306.6741 
L 140.626734 307.321654 
L 140.640191 307.282408 
L 140.667106 307.243162 
L 140.720936 307.341277 
L 141.043916 308.263551 
L 141.111203 308.361665 
L 141.339981 308.832614 
L 141.71679 309.779416 
L 141.77062 309.676396 
L 141.784078 309.646962 
L 141.837908 309.779416 
L 141.93211 309.867719 
L 141.959025 309.970739 
L 142.012855 309.838285 
L 142.03977 309.646962 
L 142.120515 309.823568 
L 142.25509 310.029608 
L 142.604985 310.417159 
L 142.860677 310.721313 
L 142.887592 310.677162 
L 143.183657 310.951882 
L 143.224029 310.893013 
L 143.291317 310.966599 
L 143.547009 311.447359 
L 143.654669 311.643588 
L 143.668127 311.471888 
L 143.681584 310.647728 
L 143.775786 311.202073 
L 143.816159 311.481699 
L 144.933131 312.146914 
L 144.946588 311.994837 
L 144.973503 311.69755 
L 145.054248 312.00612 
L 145.229195 312.349029 
L 145.269568 312.245519 
L 145.296483 311.599436 
L 145.377228 312.078234 
L 145.552175 312.197933 
L 145.592548 312.197933 
L 145.619463 312.127291 
L 145.700208 312.167027 
L 145.713665 312.187631 
L 146.130847 312.078234 
L 146.211592 311.417925 
L 146.238507 310.000173 
L 146.373082 289.474667 
L 146.426912 290.259582 
L 146.615317 293.840753 
L 146.642232 293.350181 
L 146.696062 292.761496 
L 146.749892 293.006781 
L 147.086329 298.040044 
L 147.261277 298.805335 
L 147.288192 298.658163 
L 147.422766 297.569095 
L 147.463139 297.716266 
L 148.014896 301.631026 
L 148.068726 301.734046 
L 148.284046 302.901606 
L 148.566653 304.16728 
L 148.580111 304.191808 
L 148.607026 304.034826 
L 148.647398 302.469903 
L 148.674313 293.384521 
L 148.808888 144.118371 
L 148.862718 181.696138 
L 149.037665 277.210383 
L 149.266443 293.595467 
L 149.522135 300.08082 
L 149.737455 303.024249 
L 150.275754 306.615231 
L 150.356499 306.752591 
L 150.369957 306.6741 
L 150.383414 306.575985 
L 150.437244 306.791837 
L 150.464159 306.693722 
L 150.517989 306.889951 
L 150.746767 308.361665 
L 150.773682 308.086945 
L 150.840969 308.400911 
L 150.854427 308.400911 
L 150.894799 308.459779 
L 151.204321 309.362431 
L 151.311981 309.440922 
L 151.392726 309.617528 
L 151.446556 309.529225 
L 151.513844 309.215259 
L 151.621504 309.362431 
L 151.769536 309.676396 
L 152.119431 310.245459 
L 152.132888 310.186591 
L 152.213633 310.245459 
L 152.254006 310.314139 
L 152.321293 310.230742 
L 152.644273 309.735265 
L 152.65773 309.749982 
L 152.738475 309.853002 
L 152.792305 309.823568 
L 153.007625 310.201308 
L 153.169115 310.461311 
L 153.209487 310.539802 
L 153.330605 311.108865 
L 153.370977 310.804711 
L 153.545925 310.314139 
L 153.559382 310.343573 
L 153.693957 310.520179 
L 154.286087 310.603576 
L 154.434119 310.677162 
L 154.582151 310.780182 
L 154.770556 310.824333 
L 154.918589 310.794899 
L 155.645293 310.691879 
L 155.806783 310.618293 
L 155.833698 310.647728 
L 156.03556 310.794899 
L 156.062475 310.736031 
L 156.345083 310.834145 
L 156.546945 310.893013 
L 156.694978 310.996033 
L 156.937212 311.138299 
L 156.95067 311.123582 
L 157.340937 310.618293 
L 157.542799 309.391865 
L 157.569714 309.440922 
L 157.610087 309.229976 
L 157.650459 306.683911 
L 157.771577 302.700472 
L 157.798492 302.803492 
L 157.986897 304.191808 
L 158.040727 303.544254 
L 158.390621 295.047558 
L 158.484824 296.342667 
L 159.023123 304.147657 
L 159.359561 306.144283 
L 159.776743 307.925057 
L 159.857488 308.253739 
L 159.992063 308.778651 
L 160.11318 309.068088 
L 160.27467 309.303562 
L 160.395787 309.406582 
L 160.557277 309.421299 
L 160.786055 309.499791 
L 160.893715 309.573376 
L 160.907172 309.558659 
L 161.001375 309.617528 
L 161.149407 309.794134 
L 161.499302 309.897154 
L 161.553132 309.911871 
L 161.593504 309.838285 
L 161.754994 309.676396 
L 161.889569 309.573376 
L 162.535528 307.135237 
L 162.697018 304.33898 
L 162.764306 304.71672 
L 162.791221 304.790306 
L 162.818136 304.584266 
L 163.262233 291.780353 
L 163.32952 293.20301 
L 163.464095 296.587952 
L 163.517925 295.807944 
L 163.59867 294.85133 
L 163.6525 295.474355 
L 163.840905 298.393255 
L 163.881278 297.892872 
L 163.92165 293.595467 
L 164.02931 190.035851 
L 164.110055 235.364646 
L 164.29846 282.851954 
L 164.56761 296.475121 
L 164.863674 302.317826 
L 165.186654 305.43786 
L 165.307772 306.105037 
L 165.550006 307.066557 
L 166.532403 309.617528 
L 166.599691 309.691114 
L 166.720808 309.882436 
L 166.761181 309.853002 
L 166.81501 309.416394 
L 166.841925 304.932571 
L 166.92267 277.700955 
L 166.9765 283.342525 
L 167.205278 296.12191 
L 167.5148 302.754434 
L 167.851237 305.653711 
L 168.080015 306.39938 
L 168.093472 306.39938 
L 168.268419 305.57522 
L 168.281877 305.634088 
L 168.725974 307.12052 
L 168.874007 307.243162 
L 168.887464 307.149954 
L 168.941294 304.908043 
L 169.048954 302.023483 
L 169.075869 302.121597 
L 169.210444 302.41594 
L 169.223901 302.366883 
L 169.371934 302.293297 
L 170.488905 307.802414 
L 171.578962 309.970739 
L 171.780825 308.989596 
L 171.834654 309.141674 
L 171.901942 309.229976 
L 171.955772 309.185825 
L 172.090347 309.274128 
L 172.359497 309.617528 
L 172.507529 309.332996 
L 172.655561 308.793368 
L 172.695934 308.871859 
L 172.924711 309.259411 
L 173.005456 309.259411 
L 173.032371 309.303562 
L 173.113116 309.391865 
L 173.328436 309.617528 
L 173.449553 309.705831 
L 173.637958 309.853002 
L 173.732161 309.956022 
L 174.929877 311.108865 
L 175.091367 311.206979 
L 175.225942 311.236413 
L 175.2394 311.221696 
L 175.34706 311.221696 
L 175.360517 311.25113 
L 175.643124 311.403208 
L 175.764242 311.501322 
L 176.154509 311.776042 
L 176.881213 311.883477 
L 177.096533 311.995818 
L 177.419513 312.097857 
L 177.581003 312.137102 
L 177.769408 311.69755 
L 177.97127 310.794899 
L 178.038558 310.893013 
L 178.24042 310.951882 
L 178.388452 310.893013 
L 178.536485 310.996033 
L 179.357392 311.736796 
L 179.639999 311.844722 
L 179.788031 311.91144 
L 180.501278 311.942346 
L 180.514736 311.785853 
L 180.582023 311.952648 
L 180.608938 311.932044 
L 181.281813 312.311746 
L 181.550963 312.421634 
L 181.739368 312.492276 
L 182.15655 312.596277 
L 182.277667 312.629636 
L 182.762137 312.733637 
L 183.004372 312.786619 
L 183.192777 312.560956 
L 183.421554 312.501106 
L 183.744534 311.383585 
L 183.811821 311.363962 
L 183.852194 311.417925 
L 184.107886 311.91144 
L 184.296291 312.016422 
L 184.646186 312.349029 
L 184.861505 312.274462 
L 184.982623 311.609248 
L 185.224858 308.871859 
L 185.31906 309.141674 
L 185.413263 309.421299 
L 185.453635 309.259411 
L 185.520922 308.430345 
L 185.64204 307.537505 
L 185.668955 307.615997 
L 185.69587 307.674865 
L 186.247627 310.260176 
L 186.610979 311.108865 
L 186.691724 311.010751 
L 186.732097 311.030373 
L 186.947416 311.31981 
L 186.960874 311.270753 
L 187.055076 310.996033 
L 187.095449 311.049996 
L 187.283854 311.010751 
L 187.297311 311.030373 
L 188.024016 311.91144 
L 188.172048 312.00612 
L 188.333538 312.11748 
L 188.5354 312.225896 
L 188.69689 312.302425 
L 188.723805 305.859751 
L 188.831465 309.558659 
L 189.0737 311.221696 
L 189.329392 311.91144 
L 189.854234 312.421634 
L 189.867692 312.273481 
L 189.881149 312.177329 
L 189.921522 312.311746 
L 189.961894 312.311746 
L 190.190672 312.448125 
L 190.702056 312.725788 
L 190.715514 312.70175 
L 190.755886 312.509937 
L 190.823174 312.645334 
L 191.132696 312.84745 
L 191.630623 312.947526 
L 191.832486 312.995602 
L 192.316955 313.137377 
L 192.464988 313.143755 
L 193.124405 313.247756 
L 193.326267 313.281115 
L 193.501214 313.219303 
L 193.649247 313.035339 
L 193.716534 312.869035 
L 193.756907 312.146914 
L 193.837652 312.339708 
L 193.999142 312.569786 
L 194.295206 312.926922 
L 194.362494 312.876884 
L 194.402866 312.947526 
L 194.645101 313.048584 
L 195.008453 313.149642 
L 195.210316 313.235982 
L 196.36766 313.343908 
L 196.58298 313.363531 
L 197.053992 313.420437 
L 199.920437 313.530325 
L 200.1223 313.522476 
L 203.082948 313.433192 
L 203.12332 313.231077 
L 203.204065 313.353719 
L 203.379013 312.876884 
L 203.432842 312.96813 
L 203.486672 312.93379 
L 203.634705 313.19085 
L 203.796195 313.291907 
L 204.051887 313.363531 
L 205.088114 313.473419 
L 205.222689 313.473419 
L 205.707158 313.377757 
L 205.855191 313.214397 
L 206.097426 313.397871 
L 206.474235 313.420437 
L 207.36243 313.5264 
L 207.591207 313.538174 
L 209.354138 313.484702 
L 209.367596 313.382663 
L 209.461798 313.477834 
L 209.636746 313.491079 
L 211.561167 313.600477 
L 211.816859 313.607345 
L 214.17192 313.549948 
L 214.212292 313.442513 
L 214.293037 313.498928 
L 214.521815 313.600477 
L 215.436924 313.473419 
L 215.625329 313.506778 
L 215.948309 313.569571 
L 217.17294 313.494513 
L 217.307515 313.420437 
L 217.724698 313.530325 
L 218.007305 313.569571 
L 220.591143 313.677987 
L 221.08907 313.6695 
L 221.600455 313.672395 
L 227.804358 313.569571 
L 228.22154 313.112849 
L 228.302285 313.281115 
L 228.450318 313.383154 
L 228.665637 313.455758 
L 228.827127 313.402286 
L 228.961702 312.876884 
L 229.096277 312.961262 
L 229.284682 313.069188 
L 230.051759 313.312511 
L 230.172876 313.322323 
L 230.670804 313.402776 
L 231.087986 313.433682 
L 231.249476 313.451343 
L 231.70703 313.486664 
L 232.03001 313.495004 
L 233.335387 313.392965 
L 233.483419 313.411607 
L 233.658366 313.429267 
L 234.035176 313.438098 
L 237.466836 313.410626 
L 237.561039 313.184963 
L 237.601411 313.19085 
L 239.59312 313.297304 
L 239.943015 313.322323 
L 240.077589 313.22568 
L 240.319824 312.016422 
L 240.414027 312.047328 
L 240.481314 311.776042 
L 240.548602 311.859439 
L 240.858124 312.474615 
L 241.167646 312.84745 
L 241.530998 313.08832 
L 242.203873 313.286511 
L 242.890205 313.383154 
L 243.038237 313.407192 
L 244.276327 313.297304 
L 244.760796 313.041716 
L 245.016489 313.143755 
L 245.460586 313.253643 
L 245.891225 313.322323 
L 247.169687 313.429267 
L 247.358092 313.420437 
L 248.569266 313.343417 
L 248.703841 313.281115 
L 248.784586 313.179076 
L 248.811501 312.222462 
L 248.919161 275.689612 
L 248.999906 291.289782 
L 249.201768 305.329934 
L 249.45746 309.573376 
L 249.820813 311.501322 
L 250.036133 311.985025 
L 250.237995 312.283783 
L 250.64172 312.661033 
L 250.870497 312.764543 
L 251.085817 312.906318 
L 251.731776 313.016206 
L 251.906724 313.118245 
L 252.270076 313.173189 
L 252.593056 313.149642 
L 252.862206 313.155529 
L 252.983323 313.173189 
L 253.979177 313.167302 
L 254.154125 313.149642 
L 254.571307 313.22519 
L 254.705882 313.25953 
L 254.948117 313.368436 
L 255.042319 313.438098 
L 255.055777 313.433682 
L 255.217266 313.112358 
L 255.284554 313.388059 
L 255.298011 313.424852 
L 255.351841 313.307606 
L 255.365299 313.3027 
L 255.472959 313.231077 
L 255.607534 313.286511 
L 255.917056 313.291907 
L 257.249348 313.368436 
L 257.330092 313.460173 
L 257.357007 313.347342 
L 257.383922 313.219793 
L 257.464667 313.286511 
L 257.50504 313.373342 
L 258.231744 313.373342 
L 258.258659 313.420437 
L 258.339404 313.358625 
L 258.433607 313.275719 
L 258.500894 313.338512 
L 258.837331 313.353719 
L 259.200684 313.247756 
L 259.227599 313.121189 
L 259.389089 310.323951 
L 259.469834 310.417159 
L 259.765898 311.31981 
L 260.048506 311.952648 
L 260.465688 312.412803 
L 261.178935 312.749335 
L 261.353882 312.84745 
L 261.380797 312.905828 
L 262.080587 312.954394 
L 262.268992 313.041716 
L 262.672716 313.149642 
L 265.337299 313.219793 
L 265.539162 313.241869 
L 265.579534 313.25953 
L 266.602304 313.149642 
L 266.750336 313.253643 
L 266.763793 313.235982 
L 267.544328 313.041716 
L 268.49981 312.93379 
L 268.795875 312.77926 
L 269.078482 312.686052 
L 269.172684 312.330387 
L 269.239972 311.157922 
L 269.414919 309.529225 
L 269.455292 309.406582 
L 269.522579 309.509602 
L 270.141624 311.349245 
L 270.531891 311.859439 
L 270.545348 311.844722 
L 270.572263 311.933025 
L 270.585721 311.913402 
L 270.774126 312.187631 
L 271.541203 312.717939 
L 271.55466 312.661033 
L 271.568118 312.645334 
L 271.621948 312.733637 
L 271.810352 312.794468 
L 271.9853 312.818015 
L 272.402482 312.891601 
L 272.469769 313.25953 
L 272.523599 313.008357 
L 272.563972 312.578617 
L 272.631259 312.862167 
L 272.833122 313.042207 
L 272.873494 312.810166 
L 272.954239 312.981866 
L 273.250304 313.016206 
L 273.479081 313.022584 
L 273.855891 313.08832 
L 274.057753 313.112358 
L 274.407648 313.155529 
L 274.569138 313.155529 
L 274.757543 313.173189 
L 275.080523 313.20851 
L 275.242013 313.20851 
L 275.538077 313.219793 
L 275.928345 313.173189 
L 276.103292 313.184963 
L 276.507017 313.100585 
L 276.803081 311.943817 
L 277.018401 310.662445 
L 277.166434 310.549613 
L 277.274094 310.647728 
L 277.516328 311.059808 
L 277.677818 311.334528 
L 277.691276 311.28547 
L 277.731648 311.197168 
L 277.798936 309.921682 
L 277.946968 298.746466 
L 277.987341 299.604966 
L 278.404523 307.243162 
L 278.727503 309.460545 
L 279.050482 310.559425 
L 279.427292 311.187356 
L 279.44075 311.153016 
L 279.508037 311.099053 
L 279.60224 310.078665 
L 279.629154 305.202386 
L 279.750272 219.224848 
L 279.817559 253.221443 
L 279.992507 291.14261 
L 280.234742 301.238569 
L 280.517349 305.653711 
L 280.584636 306.085414 
L 280.665381 305.9873 
L 280.732669 305.246537 
L 280.853786 295.616621 
L 281.042191 270.489556 
L 281.109478 259.598871 
L 281.163308 265.976299 
L 281.419001 293.88981 
L 281.701608 302.170654 
L 282.159163 307.282408 
L 282.44177 308.538271 
L 282.509057 308.763934 
L 282.684005 309.185825 
L 282.737835 309.259411 
L 283.020442 309.823568 
L 283.208847 310.171873 
L 283.383794 310.387725 
L 283.397252 310.358291 
L 283.477997 310.417159 
L 283.639487 310.539802 
L 283.666402 310.476028 
L 283.706774 310.417159 
L 283.787519 310.461311 
L 283.922094 310.559425 
L 284.110499 310.834145 
L 284.164329 310.922448 
L 284.298904 311.108865 
L 284.339276 311.059808 
L 284.635341 310.966599 
L 284.756458 310.878296 
L 284.783373 310.907731 
L 284.931406 311.010751 
L 285.146726 311.177545 
L 285.214013 311.187356 
L 285.348588 309.691114 
L 285.536993 304.334074 
L 285.563908 304.422377 
L 285.631195 304.9571 
L 285.886888 306.94882 
L 286.223325 308.597139 
L 286.384815 308.916011 
L 286.640507 309.705831 
L 287.003859 310.520179 
L 287.071147 310.618293 
L 287.461414 310.893013 
L 288.322693 310.824333 
L 288.457268 310.117911 
L 288.672588 308.342042 
L 288.820621 308.322419 
L 289.009025 308.170342 
L 289.022483 308.243928 
L 289.157058 308.400911 
L 289.170515 308.258645 
L 289.224345 304.873703 
L 289.372378 286.825582 
L 289.385835 287.119925 
L 290.045252 305.207291 
L 290.341317 307.3609 
L 290.368232 307.493354 
L 290.408604 307.282408 
L 290.462434 305.943148 
L 290.529722 304.829551 
L 290.583552 305.118988 
L 290.623924 305.295594 
L 290.677754 305.594843 
L 290.691212 305.354463 
L 290.731584 301.684989 
L 290.839244 280.448154 
L 290.906532 284.765182 
L 291.202596 298.304952 
L 291.471746 302.926134 
L 291.485204 302.901606 
L 291.539034 301.444609 
L 291.592864 289.965239 
L 291.713981 264.946099 
L 291.781269 272.451841 
L 292.050418 294.934727 
L 292.359941 302.268769 
L 292.763665 306.29636 
L 292.777123 306.247303 
L 292.830953 305.795977 
L 292.871325 304.280111 
L 292.992443 227.221161 
L 293.073188 265.927242 
L 293.261592 290.701096 
L 293.503827 299.183075 
L 293.786435 303.568783 
L 294.149787 306.831082 
L 294.459309 308.582422 
L 294.822661 309.808851 
L 294.889949 309.838285 
L 294.849576 309.853002 
L 294.903406 309.853002 
L 295.347504 310.559425 
L 296.101123 311.265848 
L 296.128038 311.020562 
L 296.208783 311.197168 
L 296.370273 311.349245 
L 296.558678 311.447359 
L 296.572135 311.49151 
L 296.59905 311.334528 
L 296.625965 308.562799 
L 296.733625 265.731013 
L 296.76054 269.508413 
L 297.02969 296.205307 
L 297.339212 303.784634 
L 297.689107 307.439391 
L 297.823682 308.140908 
L 298.065917 309.185825 
L 298.510014 310.304328 
L 298.590759 310.068853 
L 298.658046 309.853002 
L 298.725334 309.897154 
L 298.819536 310.142439 
L 299.007941 310.574142 
L 299.236718 310.834145 
L 299.519326 310.922448 
L 299.748103 311.167733 
L 299.97688 311.197168 
L 300.097998 311.236413 
L 300.394063 311.638682 
L 300.488265 311.746608 
L 300.636297 311.830005 
L 301.322629 311.776042 
L 301.336087 311.69755 
L 301.403374 311.815288 
L 301.416832 311.815288 
L 301.430289 311.844722 
L 301.511034 311.805476 
L 301.618694 311.776042 
L 301.632152 311.805476 
L 301.860929 311.717173 
L 302.116621 310.736031 
L 302.183909 310.794899 
L 302.224281 310.750748 
L 302.493431 310.662445 
L 302.628006 310.618293 
L 302.654921 310.662445 
L 302.735666 310.618293 
L 302.856783 310.127722 
L 302.910613 308.126191 
L 303.072103 282.361383 
L 303.179763 285.108582 
L 303.691148 301.160077 
L 304.027585 305.594843 
L 304.660087 309.455639 
L 304.673545 309.421299 
L 304.713917 309.588094 
L 304.727375 309.588094 
L 304.996524 310.402442 
L 305.171472 310.814522 
L 305.373334 311.167733 
L 305.454079 311.265848 
L 305.763601 311.69755 
L 305.871261 311.795665 
L 305.911634 311.830005 
L 305.925091 311.795665 
L 306.140411 308.552988 
L 306.234613 309.332996 
L 306.597966 310.736031 
L 307.122808 311.619059 
L 307.70148 312.274462 
L 307.836055 312.35835 
L 307.997545 312.456955 
L 308.13212 312.560956 
L 308.670419 312.786619 
L 309.222176 312.884243 
L 309.410581 312.93379 
L 310.056541 313.041716 
L 310.258403 313.094698 
L 310.729415 313.19085 
L 310.86399 313.214397 
L 312.263569 313.322323 
L 312.465432 313.343908 
L 314.282193 313.343908 
L 314.322565 312.569786 
L 314.40331 312.920054 
L 314.45714 313.016206 
L 314.537885 312.988734 
L 314.83395 313.143755 
L 315.170387 313.253643 
L 315.695229 313.363531 
L 317.511991 313.473419 
L 317.72731 313.482249 
L 318.198323 313.522476 
L 318.400185 313.445456 
L 318.454015 313.015716 
L 318.521302 313.219793 
L 318.655877 313.363531 
L 318.69625 313.338512 
L 318.85774 313.343908 
L 319.449869 313.451343 
L 319.772849 313.446928 
L 319.907424 313.420437 
L 322.006793 313.522476 
L 322.154825 313.538174 
L 325.18276 313.542099 
L 325.196218 313.377267 
L 325.29042 313.522476 
L 332.019166 313.630402 
L 332.274858 313.624515 
L 337.846259 313.610288 
L 337.859716 313.413569 
L 337.953919 313.597043 
L 338.801741 313.491079 
L 339.124721 312.618843 
L 339.192008 311.874156 
L 339.245838 312.167518 
L 339.4477 312.717939 
L 339.743765 313.143755 
L 340.160947 313.363531 
L 340.753077 313.473419 
L 340.981854 313.495004 
L 341.277919 313.522476 
L 350.738535 313.420437 
L 350.87311 313.402776 
L 351.007685 313.407192 
L 351.640187 313.3027 
L 351.801677 313.343908 
L 352.286146 313.416022 
L 352.434179 313.420437 
L 358.678454 313.5264 
L 358.907232 313.538174 
L 362.446552 313.429267 
L 362.877192 313.402776 
L 364.209483 313.291907 
L 364.478633 313.069188 
L 364.693953 312.93379 
L 364.8689 313.041716 
L 365.070763 313.161415 
L 365.810925 313.373342 
L 365.958957 313.402776 
L 366.039702 313.323304 
L 366.093532 312.765034 
L 366.120447 307.444297 
L 366.160819 291.289782 
L 366.241564 293.914338 
L 366.497257 307.939774 
L 366.766406 310.937165 
L 367.075929 312.167027 
L 367.425823 312.694391 
L 367.694973 312.961262 
L 367.910293 313.069188 
L 368.08524 313.143755 
L 368.529338 313.035339 
L 368.636998 312.725788 
L 368.690828 311.941364 
L 368.771572 298.206838 
L 368.865775 222.855076 
L 368.89269 201.515221 
L 368.959977 233.941989 
L 369.134925 293.816224 
L 369.37716 304.535208 
L 369.619394 308.224305 
L 370.009662 310.721313 
L 370.413386 311.668116 
L 370.682536 311.995818 
L 370.817111 312.097857 
L 371.113176 312.349029 
L 371.382326 312.456955 
L 371.570731 312.527597 
L 372.176318 312.629636 
L 372.32435 312.694391 
L 372.876107 312.802317 
L 373.118342 312.818015 
L 373.522067 312.71009 
L 373.737387 312.456955 
L 373.791216 311.241319 
L 373.939249 294.85133 
L 373.966164 295.670584 
L 374.316059 306.208057 
L 374.625581 309.126956 
L 375.163881 311.030373 
L 375.527233 310.633011 
L 375.54069 310.677162 
L 375.607978 310.677162 
L 375.634893 310.736031 
L 375.742553 310.834145 
L 376.496172 311.501322 
L 376.603832 311.599436 
L 376.805694 311.776042 
L 377.061387 311.952648 
L 377.693889 312.349029 
L 377.989954 312.456955 
L 378.259103 312.501106 
L 378.393678 312.535937 
L 378.582083 312.596277 
L 379.160755 312.702241 
L 379.376075 312.786619 
L 380.304642 312.686052 
L 380.560334 312.005629 
L 380.681452 308.528459 
L 380.789112 305.275971 
L 380.829484 305.482011 
L 381.260124 309.141674 
L 381.583104 310.549613 
L 381.879168 311.07943 
L 382.081031 311.265848 
L 382.309808 310.510368 
L 382.45784 309.970739 
L 382.61933 310.068853 
L 383.04997 310.677162 
L 383.198002 310.878296 
L 383.251832 310.294516 
L 383.278747 307.547317 
L 383.399865 294.900387 
L 383.440237 295.50379 
L 383.897792 305.634088 
L 384.180399 307.478637 
L 384.261144 307.910339 
L 385.082051 310.245459 
L 385.149339 310.216025 
L 385.243541 309.970739 
L 385.270456 309.995268 
L 385.351201 309.970739 
L 385.418488 310.127722 
L 385.754926 310.618293 
L 385.849128 310.721313 
L 386.522003 311.305093 
L 386.64312 311.403208 
L 387.006472 311.653399 
L 387.167962 311.56019 
L 387.921582 311.985025 
L 388.406051 311.403208 
L 389.280788 311.501322 
L 389.671055 311.776042 
L 389.886375 311.883477 
L 390.034408 311.91144 
L 390.2901 312.016422 
L 390.599622 312.177329 
L 390.61308 312.156725 
L 390.626537 312.127291 
L 390.693825 312.225896 
L 390.88223 312.311746 
L 391.582019 312.421634 
L 391.662764 312.430464 
L 391.676222 312.403973 
L 392.120319 311.030373 
L 392.389469 310.804711 
L 392.402926 310.814522 
L 392.766278 310.736031 
L 392.806651 310.618293 
L 392.887396 310.691879 
L 393.075801 311.010751 
L 393.089258 310.981316 
L 393.156546 310.588859 
L 393.331493 310.245459 
L 393.39878 310.157156 
L 393.45261 309.705831 
L 393.66793 308.307702 
L 393.72176 308.086945 
L 394.031282 304.790306 
L 394.04474 304.809928 
L 394.09857 304.868797 
L 394.219687 305.359368 
L 394.273517 305.275971 
L 394.381177 304.633323 
L 394.515752 303.298969 
L 394.58304 303.568783 
L 394.757987 305.118988 
L 395.080967 307.635619 
L 395.740384 310.068853 
L 395.794214 310.157156 
L 395.834586 310.230742 
L 395.874959 310.068853 
L 395.996076 309.166202 
L 396.022991 299.030998 
L 396.144108 238.160902 
L 396.171023 247.727044 
L 396.345971 288.689753 
L 396.574748 298.864203 
L 396.615121 296.720407 
L 396.816983 275.100926 
L 396.857355 276.327355 
L 397.287995 298.599295 
L 397.597517 303.568783 
L 398.06853 306.94882 
L 398.12236 307.046934 
L 398.445339 307.655242 
L 398.526084 307.753357 
L 398.633744 307.831848 
L 398.674117 307.772979 
L 398.835607 307.831848 
L 399.212416 308.989596 
L 399.225874 308.974879 
L 399.266246 309.048465 
L 399.279704 309.048465 
L 400.63891 310.834145 
L 400.786943 310.922448 
L 400.96189 311.049996 
L 401.056093 311.123582 
L 401.204125 311.28547 
L 401.217582 311.275659 
L 401.39253 311.403208 
L 401.71551 311.599436 
L 401.984659 311.579813 
L 402.051947 310.417159 
L 402.186522 309.019031 
L 402.253809 308.989596 
L 402.280724 309.068088 
L 402.428757 309.499791 
L 402.509502 309.421299 
L 402.576789 309.391865 
L 402.657534 307.817131 
L 402.724821 308.008454 
L 403.411153 309.676396 
L 403.545728 309.588094 
L 403.653388 306.924291 
L 403.841793 293.88981 
L 403.882166 292.51621 
L 403.949453 293.399238 
L 404.164773 296.931352 
L 404.98568 306.340511 
L 405.860417 309.676396 
L 405.914247 309.735265 
L 406.129566 310.186591 
L 406.358344 310.559425 
L 406.385259 310.520179 
L 406.479461 310.402442 
L 406.519834 310.490745 
L 406.963931 311.206979 
L 407.138878 311.305093 
L 407.327283 311.462076 
L 407.488773 311.393396 
L 407.636805 311.167733 
L 407.852125 311.275659 
L 408.673032 311.736796 
L 409.170959 311.839326 
L 409.345907 311.91144 
L 409.615057 312.016422 
L 409.803461 312.11748 
L 409.978409 312.216575 
L 410.153356 312.274462 
L 410.476336 312.367671 
L 410.651283 312.421634 
L 411.122296 312.527597 
L 411.431818 312.596277 
L 411.674053 312.501106 
L 411.95666 311.462076 
L 412.104692 311.265848 
L 413.127462 311.177545 
L 413.450441 310.794899 
L 413.571559 310.750748 
L 413.719591 310.721313 
L 413.733049 310.736031 
L 413.907996 310.780182 
L 413.921454 310.750748 
L 413.934911 310.794899 
L 414.002199 310.804711 
L 414.150231 310.893013 
L 414.204061 310.564331 
L 414.230976 302.435563 
L 414.379008 233.843874 
L 414.432838 236.738245 
L 414.728903 293.644524 
L 414.971138 300.846112 
L 415.28066 304.697097 
L 415.617097 307.341277 
L 415.805502 308.209588 
L 415.832417 308.106568 
L 416.14194 306.556362 
L 416.168854 306.458248 
L 416.330344 307.380522 
L 416.586037 308.626574 
L 417.124336 310.216025 
L 417.137794 310.201308 
L 417.191624 310.274893 
L 417.285826 310.333762 
L 417.299284 310.260176 
L 417.339656 310.142439 
L 417.420401 310.216025 
L 417.608806 310.647728 
L 417.622263 310.623199 
L 417.649178 310.157156 
L 417.743381 310.373008 
L 417.958701 310.736031 
L 418.039446 310.834145 
L 418.227851 311.108865 
L 418.241308 311.094148 
L 418.322053 309.902059 
L 418.375883 307.537505 
L 418.44317 307.753357 
L 418.470085 307.655242 
L 418.523915 307.807319 
L 418.739235 308.656008 
L 418.833438 308.974879 
L 419.075672 309.926588 
L 419.910037 311.49151 
L 420.044612 311.501322 
L 420.273389 309.318279 
L 420.461794 304.652946 
L 420.542539 305.320123 
L 420.650199 306.271831 
L 420.986636 308.812991 
L 421.175041 309.735265 
L 421.201956 309.558659 
L 421.269243 307.007688 
L 421.363446 308.292985 
L 421.619138 310.029608 
L 422.453503 311.726985 
L 422.46696 311.69755 
L 422.547705 310.554519 
L 422.614993 307.939774 
L 422.68228 308.307702 
L 422.763025 309.087711 
L 422.776482 308.189965 
L 422.803397 295.753981 
L 422.8976 298.452123 
L 423.126377 305.8156 
L 423.287867 307.046934 
L 423.960742 310.736031 
L 424.324094 311.56019 
L 424.929681 312.254839 
L 425.050798 312.339708 
L 425.077713 312.264651 
L 425.185373 312.187631 
L 425.198831 312.197933 
L 425.333406 312.274462 
L 425.494896 312.439294 
L 425.589098 312.501106 
L 425.831333 312.645334 
L 426.181228 312.725788 
L 426.638782 312.818015 
L 426.800272 312.876884 
L 427.136709 312.96813 
L 427.298199 313.022584 
L 427.513519 312.961262 
L 427.661552 312.961262 
L 428.294054 313.069188 
L 428.765066 313.19085 
L 428.899641 313.196737 
L 429.047673 313.214397 
L 429.289908 313.213907 
L 429.451398 313.08832 
L 429.464855 313.094698 
L 429.666718 312.961262 
L 429.680175 312.974998 
L 429.86858 313.069188 
L 430.164645 313.179076 
L 430.622199 313.264926 
L 430.850977 313.281115 
L 431.012467 313.307606 
L 431.335446 313.213907 
L 431.456564 313.20851 
L 431.591139 313.235982 
L 432.438961 313.343908 
L 432.681196 313.322323 
L 432.775398 313.167302 
L 432.856143 313.25953 
L 432.936888 313.270322 
L 432.963803 313.230586 
L 433.017633 313.167302 
L 433.08492 313.219793 
L 433.340613 313.322323 
L 433.542475 313.343908 
L 434.538329 313.451343 
L 434.901681 313.460173 
L 435.130459 313.482249 
L 435.251576 313.473419 
L 437.458605 313.410626 
L 437.512435 313.035829 
L 437.606637 313.22519 
L 437.808499 313.402776 
L 438.938929 313.510702 
L 439.167706 313.522476 
L 440.136645 313.420437 
L 440.230848 313.230586 
L 440.284678 313.343908 
L 440.32505 313.286511 
L 440.351965 313.155529 
L 440.43271 313.3027 
L 440.48654 313.25953 
L 440.54037 313.317417 
L 441.145957 313.498438 
L 441.159415 313.438098 
L 441.334362 313.455758 
L 441.643884 313.373342 
L 441.657342 313.343908 
L 441.724629 313.438098 
L 442.720484 313.546023 
L 442.949261 313.553872 
L 443.070378 313.488626 
L 443.097293 313.411607 
L 443.178038 313.460173 
L 443.366443 313.491079 
L 444.40267 313.407192 
L 444.469957 313.327719 
L 444.523787 313.373342 
L 444.914055 313.522476 
L 447.067253 313.429267 
L 447.121083 313.353719 
L 447.18837 313.424852 
L 448.063107 313.53425 
L 448.520662 313.553872 
L 448.695609 313.451343 
L 448.830184 313.473419 
L 449.476144 313.569571 
L 451.400565 313.5264 
L 451.53514 313.322323 
L 451.69663 313.388059 
L 451.925407 313.402776 
L 452.127269 313.491079 
L 452.853974 313.600477 
L 453.392274 313.624515 
L 457.066169 313.538174 
L 457.241116 313.118245 
L 457.321861 313.179076 
L 457.348776 313.179076 
L 457.402606 313.253643 
L 457.617926 313.455758 
L 458.169683 313.522476 
L 460.255594 313.627458 
L 460.470914 313.636288 
L 460.995756 313.530325 
L 461.211076 312.404464 
L 461.345651 309.823568 
L 461.359108 309.705831 
L 461.412938 310.142439 
L 461.695545 312.544277 
L 461.99161 313.131 
L 462.395335 313.363531 
L 463.175869 313.530325 
L 463.619966 313.549948 
L 463.942946 313.569571 
L 465.625133 313.473419 
L 465.759708 313.455758 
L 465.948112 313.348814 
L 466.203805 313.368436 
L 466.809392 313.473419 
L 486.726478 313.583307 
L 486.968713 313.583307 
L 490.84447 313.473419 
L 490.992502 313.455758 
L 491.194365 313.455758 
L 491.665377 313.184963 
L 491.947984 312.988734 
L 492.392081 313.094698 
L 492.472826 313.069188 
L 492.486284 313.048584 
L 493.387936 310.736031 
L 493.535968 311.000939 
L 493.764746 311.844722 
L 494.020438 312.274462 
L 494.16847 312.367671 
L 494.2223 312.386313 
L 494.262673 312.339708 
L 494.424163 312.235217 
L 494.531822 312.339708 
L 495.446932 312.84745 
L 496.079434 312.954394 
L 496.536989 313.069188 
L 497.317523 313.179076 
L 497.519385 313.214397 
L 498.044228 313.118245 
L 498.232632 312.578617 
L 498.609442 311.197168 
L 498.717102 310.951882 
L 498.797847 311.049996 
L 498.878592 311.153016 
L 498.999709 311.447359 
L 499.255402 311.91144 
L 499.322689 312.00612 
L 499.349604 312.037026 
L 499.403434 311.952648 
L 499.538009 311.393396 
L 499.618754 309.337902 
L 499.686041 303.701237 
L 499.847531 270.685784 
L 499.955191 279.417954 
L 500.251256 299.801195 
L 500.547321 304.829551 
L 500.856843 307.478637 
L 501.152908 308.597139 
L 501.206738 308.656008 
L 501.448973 309.362431 
L 501.502803 309.460545 
L 502.32371 311.815288 
L 502.37754 311.69755 
L 502.417912 311.785853 
L 502.713977 312.339708 
L 502.727434 312.293104 
L 502.781264 312.107668 
L 502.808179 312.483446 
L 502.821637 312.403483 
L 502.862009 312.35835 
L 502.888924 312.456955 
L 502.915839 312.456955 
L 503.292649 312.560956 
L 503.736746 312.725788 
L 504.167386 312.653183 
L 504.476908 311.73189 
L 504.503823 310.137533 
L 504.665313 168.597883 
L 504.7326 224.719247 
L 504.907548 287.168982 
L 505.136325 300.051386 
L 505.405475 305.457483 
L 505.728455 307.655242 
L 506.239839 309.853002 
L 506.468617 310.260176 
L 506.643564 310.461311 
L 507.329896 311.049996 
L 507.504843 311.049996 
L 507.625961 311.206979 
L 507.720163 311.305093 
L 508.21809 311.69755 
L 508.716018 311.795665 
L 508.890965 311.874156 
L 509.012082 311.815288 
L 509.415807 311.921742 
L 509.56384 312.026724 
L 509.577297 312.016422 
L 509.765702 312.11748 
L 510.129054 312.207254 
L 510.277087 312.264651 
L 510.492406 312.527107 
L 510.532779 312.686052 
L 510.559694 312.595787 
L 510.586609 312.254839 
L 510.667354 312.527597 
L 510.788471 312.421634 
L 510.869216 312.274462 
L 510.923046 312.386313 
L 511.057621 312.448125 
L 511.165281 312.456955 
L 511.420973 312.629636 
L 511.528633 312.604617 
L 511.542091 312.621296 
L 511.757411 312.741486 
L 511.784325 312.677712 
L 511.824698 312.596277 
L 511.891985 312.661033 
L 512.524487 312.764543 
L 512.659062 312.786619 
L 513.062787 312.876884 
L 513.116617 312.906318 
L 513.170447 312.876884 
L 513.870237 311.599436 
L 514.529654 311.69755 
L 514.677686 311.756419 
L 515.269816 312.156725 
L 515.283273 312.11748 
L 515.323646 312.037026 
L 515.377475 312.11748 
L 515.498593 312.197933 
L 515.767743 311.726985 
L 515.83503 311.638682 
L 515.929233 311.462076 
L 515.983063 311.501322 
L 516.225297 311.69755 
L 516.252212 311.638682 
L 516.42716 311.619059 
L 516.440617 311.638682 
L 516.507905 311.540568 
L 516.803969 310.343573 
L 516.817427 310.387725 
L 516.871257 310.274893 
L 517.126949 309.421299 
L 517.194237 309.332996 
L 517.597961 308.258645 
L 517.705621 305.820505 
L 517.853654 303.200854 
L 517.880569 303.348026 
L 517.988229 304.147657 
L 518.566901 308.243928 
L 518.916796 309.126956 
L 518.984083 309.229976 
L 519.32052 309.735265 
L 519.37435 309.853002 
L 519.42818 309.735265 
L 519.522383 309.318279 
L 519.683872 307.542411 
L 519.96648 304.142751 
L 520.006852 304.265394 
L 520.208715 304.790306 
L 520.222172 304.765777 
L 520.249087 304.942383 
L 520.948877 308.597139 
L 521.527549 310.127722 
L 521.581379 310.039419 
L 521.689039 309.911871 
L 521.715954 309.926588 
L 521.729411 309.911871 
L 521.769784 309.985456 
L 521.958188 310.245459 
L 522.065848 310.343573 
L 522.348456 310.736031 
L 522.496488 310.559425 
L 522.69835 310.736031 
L 523.048245 310.677162 
L 523.250108 310.274893 
L 523.438512 309.646962 
L 523.600002 309.068088 
L 524.138302 308.292985 
L 524.192132 308.400911 
L 524.259419 308.459779 
L 524.447824 308.930728 
L 524.488197 309.004314 
L 524.851549 309.853002 
L 524.918836 309.926588 
L 525.120699 310.245459 
L 525.201444 310.142439 
L 525.484051 308.631479 
L 525.712828 303.691426 
L 526.34533 307.537505 
L 526.385703 307.694488 
L 526.574108 308.538271 
L 526.66831 308.798274 
L 526.843258 309.362431 
L 527.166237 310.068853 
L 527.220067 310.127722 
L 527.381557 310.343573 
L 527.516132 310.529991 
L 527.52959 310.476028 
L 527.569962 309.848096 
L 527.677622 296.372101 
L 527.731452 293.301124 
L 527.798739 294.98869 
L 528.175549 303.691426 
L 528.525444 306.791837 
L 528.565816 306.53674 
L 528.834966 305.222008 
L 529.036828 305.908808 
L 529.682788 308.263551 
L 529.965395 308.871859 
L 529.978853 308.832614 
L 530.180715 307.321654 
L 530.20763 307.400145 
L 530.463322 308.047699 
L 530.517152 308.126191 
L 530.719015 308.538271 
L 531.243857 309.440922 
L 531.257314 309.440922 
L 531.405347 309.794134 
L 531.459177 309.897154 
L 531.943646 310.559425 
L 532.158966 311.010751 
L 532.212796 311.049996 
L 532.360829 311.363962 
L 532.455031 311.462076 
L 532.643436 311.609248 
L 532.764553 311.69755 
L 532.791468 311.638682 
L 533.074076 311.403208 
L 533.302853 311.638682 
L 533.558545 311.736796 
L 533.720035 311.874156 
L 533.921898 311.974233 
L 534.083387 312.037026 
L 534.325622 312.11748 
L 534.44674 312.156725 
L 534.850464 312.254839 
L 534.998497 312.274462 
L 535.213817 312.376992 
L 535.388764 312.386313 
L 535.496424 312.057139 
L 535.536796 309.799039 
L 535.644456 206.371878 
L 535.711744 250.376129 
L 535.725201 253.859186 
L 535.738659 244.391159 
L 535.846319 36.19267 
L 535.886691 79.362951 
L 536.075096 264.455528 
L 536.102011 266.172528 
L 536.142384 261.610214 
L 536.182756 258.961128 
L 536.223128 263.130985 
L 536.438448 286.089725 
L 536.761428 298.510992 
L 537.003663 302.07254 
L 537.353558 305.118988 
L 537.434303 305.692957 
L 537.66308 306.94882 
L 537.972602 308.185059 
L 538.268667 308.989596 
L 538.322497 309.048465 
L 538.578189 309.676396 
L 538.753137 310.029608 
L 538.833882 309.970739 
L 538.928084 310.068853 
L 540.260376 311.363962 
L 540.341121 311.363962 
L 540.368036 311.403208 
L 540.421866 311.462076 
L 540.758303 292.761496 
L 540.798675 295.896247 
L 541.108198 306.477871 
L 541.377347 308.832614 
L 541.673412 310.029608 
L 541.956019 310.633011 
L 542.211712 311.108865 
L 543.490173 312.349029 
L 543.678578 312.456955 
L 544.001558 312.544277 
L 544.122675 312.596277 
L 544.566773 312.702241 
L 544.755178 312.757185 
L 545.11853 312.862167 
L 545.306935 312.906318 
L 545.374222 312.840091 
L 545.697202 311.417925 
L 545.751032 311.501322 
L 545.804862 311.56019 
L 545.831777 311.45717 
L 546.033639 310.186591 
L 546.087469 310.304328 
L 546.518109 311.736796 
L 546.531566 311.702456 
L 546.652684 308.773745 
L 546.787259 279.908526 
L 546.827631 251.062929 
L 546.894919 262.738528 
L 546.975664 275.787726 
L 547.029493 270.489556 
L 547.069866 262.198899 
L 547.123696 273.383927 
L 547.325558 295.670584 
L 547.648538 304.809928 
L 547.729283 305.614465 
L 547.783113 305.09446 
L 547.90423 302.926134 
L 547.95806 303.348026 
L 548.402158 308.204682 
L 548.792425 310.039419 
L 549.155777 310.893013 
L 549.169234 310.814522 
L 549.209607 310.893013 
L 549.344182 306.821271 
L 549.465299 285.451982 
L 549.532587 290.063353 
L 549.815194 302.219712 
L 550.124716 307.027311 
L 550.501526 309.480168 
L 550.636101 309.867719 
L 550.932166 310.691879 
L 551.026368 310.951882 
L 551.33589 311.49151 
L 551.349348 311.417925 
L 551.38972 310.765465 
L 551.564668 310.951882 
L 551.60504 311.049996 
L 551.833818 311.579813 
L 552.183712 311.91144 
L 552.331745 312.016422 
L 552.52015 312.11748 
L 552.62781 312.225896 
L 553.394887 312.629636 
L 553.408344 312.596277 
L 553.489089 312.653183 
L 553.825526 312.733637 
L 554.161964 312.661033 
L 554.242708 312.587447 
L 554.309996 312.005139 
L 554.363826 310.706596 
L 554.471486 304.868797 
L 554.552231 306.085414 
L 554.821381 309.377148 
L 555.14436 310.691879 
L 555.480798 311.56019 
L 555.494255 311.496416 
L 555.588458 311.49151 
L 555.534628 311.56019 
L 555.601915 311.501322 
L 556.436279 312.421634 
L 556.449737 312.330387 
L 556.530482 311.270753 
L 556.557397 310.951882 
L 556.651599 311.108865 
L 556.678514 311.167733 
L 556.718887 311.049996 
L 556.745802 311.049996 
L 556.786174 311.123582 
L 557.041866 311.69755 
L 557.257186 311.995818 
L 557.378304 312.097857 
L 557.566709 312.235217 
L 557.580166 312.225896 
L 557.660911 312.156725 
L 557.701284 312.235217 
L 557.862773 312.321067 
L 558.024263 312.421634 
L 558.131923 312.527597 
L 558.656765 312.725788 
L 558.804798 312.661033 
L 558.95283 312.749335 
L 559.477672 312.93379 
L 559.773737 312.932809 
L 559.827567 312.421634 
L 559.894855 312.757185 
L 559.948684 312.686052 
L 560.015972 312.349029 
L 560.083259 312.421634 
L 560.231292 312.527597 
L 560.419697 312.570277 
L 560.581187 311.049996 
L 560.675389 311.363962 
L 561.052199 312.235217 
L 561.536668 312.757185 
L 561.671243 312.84745 
L 561.819276 312.93379 
L 561.859648 312.824883 
L 561.873106 312.77926 
L 561.967308 312.84745 
L 562.451778 312.93379 
L 562.613268 313.016206 
L 562.936247 313.118245 
L 563.13811 313.167302 
L 563.339972 313.069188 
L 563.595664 312.961262 
L 563.864814 312.93379 
L 564.080134 313.081943 
L 564.201252 313.106471 
L 564.430029 313.167302 
L 564.914499 313.25953 
L 565.049073 313.281115 
L 565.81615 313.201642 
L 565.86998 312.702241 
L 565.97764 312.940658 
L 566.152588 313.048584 
L 566.314078 313.094698 
L 566.825462 313.042207 
L 567.040782 312.560956 
L 567.431049 312.906318 
L 567.700199 313.016206 
L 568.507649 313.281115 
L 571.010742 313.383154 
L 571.239519 313.420437 
L 573.877187 313.317417 
L 573.91756 313.25953 
L 573.984847 313.338512 
L 574.523147 313.438098 
L 576.555228 313.538174 
L 576.70326 313.553872 
L 579.919601 313.455758 
L 580.175293 313.19085 
L 580.215665 313.235982 
L 580.377155 313.235982 
L 580.700135 313.343908 
L 580.982742 313.420437 
L 582.691844 313.530325 
L 582.907164 313.530325 
L 583.109026 313.538174 
L 585.141107 313.429267 
L 585.504459 313.424852 
L 586.002386 313.473419 
L 601.330468 313.383154 
L 601.411213 312.919073 
L 601.451586 310.583953 
L 601.559246 300.463466 
L 601.599618 302.317826 
L 601.85531 309.362431 
L 602.191748 311.599436 
L 602.366695 312.11748 
L 602.756962 312.725788 
L 602.918452 312.818015 
L 603.133772 312.961262 
L 603.550954 313.069188 
L 603.698987 313.118245 
L 604.237286 313.219793 
L 604.385319 313.235982 
L 604.654468 313.143755 
L 604.829416 312.595296 
L 605.004363 312.078234 
L 605.219683 311.995818 
L 605.39463 311.246225 
L 605.704153 296.558518 
L 605.77144 298.246084 
L 605.919472 299.374398 
L 606.107877 303.921994 
L 606.350112 307.655242 
L 606.686549 309.941305 
L 607.157562 311.197168 
L 607.171019 311.187356 
L 607.184477 311.167733 
L 607.251764 311.236413 
L 607.440169 311.403208 
L 607.695861 311.501322 
L 607.884266 311.756419 
L 608.153416 311.952648 
L 608.341821 311.874156 
L 608.624428 311.305093 
L 608.853205 311.403208 
L 609.055068 311.579813 
L 609.270388 311.69755 
L 609.36459 311.589625 
L 609.754857 310.564331 
L 609.835602 308.356759 
L 609.95672 296.725312 
L 610.06438 272.30467 
L 610.11821 277.848126 
L 610.360444 298.452123 
L 610.656509 305.43786 
L 610.979489 308.278268 
L 611.342841 309.853002 
L 611.638906 310.662445 
L 611.827311 310.966599 
L 611.854226 310.907731 
L 611.908056 310.171873 
L 611.934971 304.078977 
L 612.056088 262.444185 
L 612.096461 270.048041 
L 612.338696 296.367195 
L 612.63476 303.872937 
L 612.930825 307.08618 
L 613.44221 308.989596 
L 613.886307 310.824333 
L 614.020882 310.951882 
L 614.088169 310.893013 
L 614.141999 310.834145 
L 614.182372 310.951882 
L 614.397692 311.167733 
L 614.680299 311.236413 
L 614.895619 311.985025 
L 614.909076 311.876609 
L 614.922534 311.69755 
L 614.962906 312.107668 
L 615.003279 312.037026 
L 615.110939 312.274462 
L 615.151311 312.137102 
L 615.232056 311.452265 
L 615.312801 311.177545 
L 615.272428 311.614153 
L 615.339716 311.383585 
L 615.528121 312.225896 
L 615.649238 312.107668 
L 615.756898 312.235217 
L 615.783813 312.187631 
L 615.945303 312.078234 
L 616.052963 311.974233 
L 616.28174 311.408113 
L 616.362485 310.103193 
L 616.55089 308.278268 
L 616.564348 308.292985 
L 617.116105 309.244694 
L 617.425627 309.347714 
L 619.363506 311.363962 
L 619.498081 311.265848 
L 619.888348 311.974233 
L 619.955635 312.177329 
L 620.009465 312.037026 
L 620.09021 311.673022 
L 620.157498 311.922723 
L 620.224785 312.302425 
L 620.278615 312.097857 
L 620.372817 311.677928 
L 620.399732 312.348539 
L 620.480477 311.9031 
L 620.493935 311.9031 
L 620.641967 312.786619 
L 620.668882 312.620315 
L 620.830372 311.417925 
L 620.870745 311.76623 
L 620.991862 312.274462 
L 621.00532 312.245519 
L 621.099522 311.776042 
L 621.126437 311.815288 
L 621.314842 312.274462 
L 621.328299 312.225896 
L 621.382129 312.037026 
L 621.435959 312.167027 
L 621.543619 312.612466 
L 621.597449 312.412803 
L 621.664737 311.344339 
L 621.732024 312.097366 
L 621.893514 312.560956 
L 621.960801 312.661523 
L 622.014631 312.717939 
L 621.987716 312.578126 
L 622.028089 312.610994 
L 622.041546 312.448125 
L 622.068461 312.686052 
L 622.135749 312.629636 
L 622.216494 312.961262 
L 622.283781 312.733637 
L 622.364526 312.273972 
L 622.337611 312.862167 
L 622.391441 312.628164 
L 622.404899 312.661033 
L 622.418356 312.560956 
L 622.485643 311.952648 
L 622.539473 312.412803 
L 622.647133 312.661033 
L 622.674048 312.560956 
L 622.687506 312.595296 
L 622.727878 312.527597 
L 622.768251 312.527597 
L 622.808623 312.637485 
L 622.943198 312.786619 
L 622.956656 312.771902 
L 623.104688 312.694391 
L 623.118146 312.717939 
L 623.30655 312.725788 
L 623.481498 312.330387 
L 623.508413 311.831476 
L 623.535328 302.160843 
L 623.656445 224.67019 
L 623.696818 239.289217 
L 623.89868 289.033153 
L 624.127457 298.658163 
L 624.38315 302.170654 
L 625.042567 307.164671 
L 625.634696 309.259411 
L 626.590178 311.206979 
L 626.617093 311.167733 
L 626.670923 311.138299 
L 626.684381 311.030373 
L 626.738211 311.417925 
L 626.805498 311.985025 
L 626.84587 311.589625 
L 627.209223 310.269988 
L 627.22268 310.417159 
L 627.316883 310.878296 
L 627.81481 311.31981 
L 627.935927 311.417925 
L 627.949385 311.403208 
L 628.070502 311.501322 
L 628.218534 311.69755 
L 628.460769 311.736796 
L 628.528057 311.668116 
L 628.568429 310.785088 
L 628.729919 308.597139 
L 628.810664 308.641291 
L 628.824122 308.479402 
L 628.945239 287.757668 
L 629.052899 293.963395 
L 629.214389 298.864203 
L 629.254761 298.717032 
L 629.362421 296.637009 
L 629.402794 282.116097 
L 629.496996 248.708187 
L 629.550826 260.727185 
L 629.739231 289.376553 
L 630.008381 299.462701 
L 630.264073 303.470669 
L 630.613968 306.615231 
L 631.367587 309.421299 
L 631.40796 309.480168 
L 631.56945 309.897154 
L 631.811684 310.520179 
L 631.838599 310.431876 
L 631.865514 310.358291 
L 631.919344 310.574142 
L 632.148122 310.951882 
L 632.296154 311.049996 
L 632.349984 311.108865 
L 632.363442 311.040185 
L 632.672964 308.763934 
L 632.874826 306.870328 
L 632.901741 306.94882 
L 633.036316 307.400145 
L 633.117061 307.149954 
L 633.157434 307.243162 
L 633.211264 307.321654 
L 633.359296 307.537505 
L 633.372753 307.508071 
L 633.413126 307.15486 
L 633.561158 305.810694 
L 633.574616 305.835223 
L 633.830308 306.634854 
L 634.435895 308.126191 
L 634.583928 307.969208 
L 634.691587 308.047699 
L 634.826162 308.185059 
L 634.933822 308.263551 
L 635.1626 308.656008 
L 636.010422 310.083571 
L 636.266114 310.559425 
L 636.360316 310.662445 
L 636.710211 310.893013 
L 636.790956 310.981316 
L 636.898616 311.049996 
L 636.925531 311.010751 
L 637.006276 310.780182 
L 637.127393 310.677162 
L 637.315798 311.010751 
L 637.584948 311.25113 
L 637.827183 310.794899 
L 637.881013 310.721313 
L 638.042503 309.853002 
L 638.257823 308.322419 
L 638.37894 308.425439 
L 639.092187 309.956022 
L 639.428624 310.476028 
L 639.617029 310.736031 
L 640.020754 310.834145 
L 640.693628 311.462076 
L 640.814746 311.403208 
L 641.151183 311.305093 
L 641.231928 310.691879 
L 641.353045 306.693722 
L 641.501078 305.045403 
L 641.676025 305.118988 
L 641.891345 306.163905 
L 642.173952 307.537505 
L 642.227782 307.802414 
L 642.779539 309.421299 
L 642.833369 309.332996 
L 642.994859 309.244694 
L 643.048689 309.318279 
L 643.264009 309.676396 
L 643.331296 309.779416 
L 643.829224 310.333762 
L 643.883054 310.230742 
L 643.963799 309.646962 
L 644.273321 305.398614 
L 644.340608 305.501634 
L 645.067313 308.871859 
L 645.323005 309.499791 
L 645.847847 310.402442 
L 645.928592 310.505462 
L 646.386147 310.893013 
L 646.399604 310.863579 
L 646.614924 310.402442 
L 646.736042 310.490745 
L 647.032106 310.893013 
L 647.126309 310.981316 
L 647.301256 311.108865 
L 647.947216 311.206979 
L 648.364398 311.501322 
L 648.56626 311.599436 
L 648.687378 311.638682 
L 649.15839 311.736796 
L 649.440997 311.952648 
L 649.763977 312.11748 
L 650.073499 311.206979 
L 650.154244 311.295282 
L 650.732916 311.599436 
L 650.813661 310.706596 
L 650.961694 309.087711 
L 651.042439 306.625042 
L 651.163556 289.523725 
L 651.203928 290.504867 
L 651.540366 301.444609 
L 651.836431 305.16314 
L 652.307443 308.086945 
L 652.886115 309.956022 
L 653.370584 310.618293 
L 653.545532 310.893013 
L 654.581759 311.874156 
L 654.608674 311.780948 
L 654.729791 311.462076 
L 654.850908 311.501322 
L 654.945111 311.609248 
L 655.241176 311.995818 
L 655.429581 312.078234 
L 655.456496 312.11748 
L 655.510325 312.00612 
L 655.658358 312.11748 
L 655.685273 312.037026 
L 655.80639 311.49151 
L 655.900593 311.638682 
L 656.07554 311.91144 
L 656.196658 311.965402 
L 656.331232 306.683911 
L 656.371605 275.885841 
L 656.45235 252.976158 
L 656.492722 261.070585 
L 656.7215 293.006781 
L 656.990649 302.41594 
L 657.246342 305.859751 
L 657.596237 308.518648 
L 657.919216 309.794134 
L 658.026876 310.059042 
L 658.296026 310.633011 
L 658.309484 310.579048 
L 658.322941 310.461311 
L 658.403686 310.574142 
L 658.740123 311.305093 
L 658.820868 311.403208 
L 659.978212 312.518767 
L 660.47614 312.629636 
L 660.543427 312.694391 
L 660.583799 312.621296 
L 660.637629 312.661033 
L 660.718374 312.578617 
L 660.799119 312.596277 
L 660.812577 312.543786 
L 660.839492 309.764699 
L 660.920237 311.383585 
L 661.000982 311.985025 
L 661.027897 310.113005 
L 661.122099 310.981316 
L 661.364334 311.995818 
L 661.714229 312.527597 
L 661.835346 312.629636 
L 661.996836 312.725788 
L 662.225613 312.825374 
L 662.387103 312.876884 
L 662.790828 312.771902 
L 662.8312 312.156725 
L 662.858115 309.190731 
L 662.898488 284.716125 
L 662.979233 297.564189 
L 663.194553 307.581657 
L 663.436787 310.216025 
L 663.80014 311.589625 
L 663.96163 311.844722 
L 664.002002 311.91144 
L 664.01546 311.902119 
L 664.230779 309.126956 
L 664.284609 309.303562 
L 665.011314 312.016422 
L 665.092059 312.078234 
L 665.118974 311.995818 
L 665.320836 311.91144 
L 665.361209 310.373008 
L 665.468869 310.794899 
L 665.630358 310.878296 
L 665.845678 311.501322 
L 665.859136 311.49151 
L 665.886051 310.966599 
L 665.966796 311.25113 
L 666.182116 311.91144 
L 666.249403 311.995818 
L 666.451265 312.274462 
L 666.572383 312.367671 
L 666.868448 312.596277 
L 667.083767 312.694391 
L 667.258715 312.786619 
L 668.254569 312.884243 
L 668.416059 312.961262 
L 668.712124 312.93379 
L 669.196593 313.041716 
L 669.344626 313.094698 
L 670.246278 313.202623 
L 670.421225 313.214397 
L 672.103411 313.193793 
L 672.143784 312.974998 
L 672.224529 313.075565 
L 672.412934 313.235982 
L 672.560966 313.25953 
L 673.50299 313.368436 
L 673.651023 313.368436 
L 675.831136 313.438098 
L 675.831136 313.438098 
" clip-path="url(#p914b715f6d)" style="fill: none; stroke: #1f77b4; stroke-width: 1.5; stroke-linecap: square"/>
   </g>
   <g id="line2d_15">
    <path d="M 76.003864 311.192262 
L 675.831136 311.192262 
L 675.831136 311.192262 
" clip-path="url(#p914b715f6d)" style="fill: none; stroke: #ff7f0e; stroke-width: 1.5; stroke-linecap: square"/>
   </g>
   <g id="patch_3">
    <path d="M 46.0125 327.558125 
L 46.0125 22.318125 
" style="fill: none; stroke: #000000; stroke-width: 0.8; stroke-linejoin: miter; stroke-linecap: square"/>
   </g>
   <g id="patch_4">
    <path d="M 705.8225 327.558125 
L 705.8225 22.318125 
" style="fill: none; stroke: #000000; stroke-width: 0.8; stroke-linejoin: miter; stroke-linecap: square"/>
   </g>
   <g id="patch_5">
    <path d="M 46.0125 327.558125 
L 705.8225 327.558125 
" style="fill: none; stroke: #000000; stroke-width: 0.8; stroke-linejoin: miter; stroke-linecap: square"/>
   </g>
   <g id="patch_6">
    <path d="M 46.0125 22.318125 
L 705.8225 22.318125 
" style="fill: none; stroke: #000000; stroke-width: 0.8; stroke-linejoin: miter; stroke-linecap: square"/>
   </g>
   <g id="text_14">
    <!-- training -->
    <g transform="translate(352.674062 16.318125) scale(0.12 -0.12)">
     <defs>
      <path id="DejaVuSans-74" d="M 1172 4494 
L 1172 3500 
L 2356 3500 
L 2356 3053 
L 1172 3053 
L 1172 1153 
Q 1172 725 1289 603 
Q 1406 481 1766 481 
L 2356 481 
L 2356 0 
L 1766 0 
Q 1100 0 847 248 
Q 594 497 594 1153 
L 594 3053 
L 172 3053 
L 172 3500 
L 594 3500 
L 594 4494 
L 1172 4494 
z
" transform="scale(0.015625)"/>
      <path id="DejaVuSans-72" d="M 2631 2963 
Q 2534 3019 2420 3045 
Q 2306 3072 2169 3072 
Q 1681 3072 1420 2755 
Q 1159 2438 1159 1844 
L 1159 0 
L 581 0 
L 581 3500 
L 1159 3500 
L 1159 2956 
Q 1341 3275 1631 3429 
Q 1922 3584 2338 3584 
Q 2397 3584 2469 3576 
Q 2541 3569 2628 3553 
L 2631 2963 
z
" transform="scale(0.015625)"/>
      <path id="DejaVuSans-61" d="M 2194 1759 
Q 1497 1759 1228 1600 
Q 959 1441 959 1056 
Q 959 750 1161 570 
Q 1363 391 1709 391 
Q 2188 391 2477 730 
Q 2766 1069 2766 1631 
L 2766 1759 
L 2194 1759 
z
M 3341 1997 
L 3341 0 
L 2766 0 
L 2766 531 
Q 2569 213 2275 61 
Q 1981 -91 1556 -91 
Q 1019 -91 701 211 
Q 384 513 384 1019 
Q 384 1609 779 1909 
Q 1175 2209 1959 2209 
L 2766 2209 
L 2766 2266 
Q 2766 2663 2505 2880 
Q 2244 3097 1772 3097 
Q 1472 3097 1187 3025 
Q 903 2953 641 2809 
L 641 3341 
Q 956 3463 1253 3523 
Q 1550 3584 1831 3584 
Q 2591 3584 2966 3190 
Q 3341 2797 3341 1997 
z
" transform="scale(0.015625)"/>
      <path id="DejaVuSans-69" d="M 603 3500 
L 1178 3500 
L 1178 0 
L 603 0 
L 603 3500 
z
M 603 4863 
L 1178 4863 
L 1178 4134 
L 603 4134 
L 603 4863 
z
" transform="scale(0.015625)"/>
      <path id="DejaVuSans-6e" d="M 3513 2113 
L 3513 0 
L 2938 0 
L 2938 2094 
Q 2938 2591 2744 2837 
Q 2550 3084 2163 3084 
Q 1697 3084 1428 2787 
Q 1159 2491 1159 1978 
L 1159 0 
L 581 0 
L 581 3500 
L 1159 3500 
L 1159 2956 
Q 1366 3272 1645 3428 
Q 1925 3584 2291 3584 
Q 2894 3584 3203 3211 
Q 3513 2838 3513 2113 
z
" transform="scale(0.015625)"/>
      <path id="DejaVuSans-67" d="M 2906 1791 
Q 2906 2416 2648 2759 
Q 2391 3103 1925 3103 
Q 1463 3103 1205 2759 
Q 947 2416 947 1791 
Q 947 1169 1205 825 
Q 1463 481 1925 481 
Q 2391 481 2648 825 
Q 2906 1169 2906 1791 
z
M 3481 434 
Q 3481 -459 3084 -895 
Q 2688 -1331 1869 -1331 
Q 1566 -1331 1297 -1286 
Q 1028 -1241 775 -1147 
L 775 -588 
Q 1028 -725 1275 -790 
Q 1522 -856 1778 -856 
Q 2344 -856 2625 -561 
Q 2906 -266 2906 331 
L 2906 616 
Q 2728 306 2450 153 
Q 2172 0 1784 0 
Q 1141 0 747 490 
Q 353 981 353 1791 
Q 353 2603 747 3093 
Q 1141 3584 1784 3584 
Q 2172 3584 2450 3431 
Q 2728 3278 2906 2969 
L 2906 3500 
L 3481 3500 
L 3481 434 
z
" transform="scale(0.015625)"/>
     </defs>
     <use xlink:href="#DejaVuSans-74"/>
     <use xlink:href="#DejaVuSans-72" x="39.208984"/>
     <use xlink:href="#DejaVuSans-61" x="80.322266"/>
     <use xlink:href="#DejaVuSans-69" x="141.601562"/>
     <use xlink:href="#DejaVuSans-6e" x="169.384766"/>
     <use xlink:href="#DejaVuSans-69" x="232.763672"/>
     <use xlink:href="#DejaVuSans-6e" x="260.546875"/>
     <use xlink:href="#DejaVuSans-67" x="323.925781"/>
    </g>
   </g>
   <g id="legend_1">
    <g id="patch_7">
     <path d="M 617.42875 59.674375 
L 698.8225 59.674375 
Q 700.8225 59.674375 700.8225 57.674375 
L 700.8225 29.318125 
Q 700.8225 27.318125 698.8225 27.318125 
L 617.42875 27.318125 
Q 615.42875 27.318125 615.42875 29.318125 
L 615.42875 57.674375 
Q 615.42875 59.674375 617.42875 59.674375 
z
" style="fill: #ffffff; opacity: 0.8; stroke: #cccccc; stroke-linejoin: miter"/>
    </g>
    <g id="line2d_16">
     <path d="M 619.42875 35.416562 
L 629.42875 35.416562 
L 639.42875 35.416562 
" style="fill: none; stroke: #1f77b4; stroke-width: 1.5; stroke-linecap: square"/>
    </g>
    <g id="text_15">
     <!-- observed -->
     <g transform="translate(647.42875 38.916562) scale(0.1 -0.1)">
      <defs>
       <path id="DejaVuSans-6f" d="M 1959 3097 
Q 1497 3097 1228 2736 
Q 959 2375 959 1747 
Q 959 1119 1226 758 
Q 1494 397 1959 397 
Q 2419 397 2687 759 
Q 2956 1122 2956 1747 
Q 2956 2369 2687 2733 
Q 2419 3097 1959 3097 
z
M 1959 3584 
Q 2709 3584 3137 3096 
Q 3566 2609 3566 1747 
Q 3566 888 3137 398 
Q 2709 -91 1959 -91 
Q 1206 -91 779 398 
Q 353 888 353 1747 
Q 353 2609 779 3096 
Q 1206 3584 1959 3584 
z
" transform="scale(0.015625)"/>
       <path id="DejaVuSans-62" d="M 3116 1747 
Q 3116 2381 2855 2742 
Q 2594 3103 2138 3103 
Q 1681 3103 1420 2742 
Q 1159 2381 1159 1747 
Q 1159 1113 1420 752 
Q 1681 391 2138 391 
Q 2594 391 2855 752 
Q 3116 1113 3116 1747 
z
M 1159 2969 
Q 1341 3281 1617 3432 
Q 1894 3584 2278 3584 
Q 2916 3584 3314 3078 
Q 3713 2572 3713 1747 
Q 3713 922 3314 415 
Q 2916 -91 2278 -91 
Q 1894 -91 1617 61 
Q 1341 213 1159 525 
L 1159 0 
L 581 0 
L 581 4863 
L 1159 4863 
L 1159 2969 
z
" transform="scale(0.015625)"/>
       <path id="DejaVuSans-73" d="M 2834 3397 
L 2834 2853 
Q 2591 2978 2328 3040 
Q 2066 3103 1784 3103 
Q 1356 3103 1142 2972 
Q 928 2841 928 2578 
Q 928 2378 1081 2264 
Q 1234 2150 1697 2047 
L 1894 2003 
Q 2506 1872 2764 1633 
Q 3022 1394 3022 966 
Q 3022 478 2636 193 
Q 2250 -91 1575 -91 
Q 1294 -91 989 -36 
Q 684 19 347 128 
L 347 722 
Q 666 556 975 473 
Q 1284 391 1588 391 
Q 1994 391 2212 530 
Q 2431 669 2431 922 
Q 2431 1156 2273 1281 
Q 2116 1406 1581 1522 
L 1381 1569 
Q 847 1681 609 1914 
Q 372 2147 372 2553 
Q 372 3047 722 3315 
Q 1072 3584 1716 3584 
Q 2034 3584 2315 3537 
Q 2597 3491 2834 3397 
z
" transform="scale(0.015625)"/>
       <path id="DejaVuSans-65" d="M 3597 1894 
L 3597 1613 
L 953 1613 
Q 991 1019 1311 708 
Q 1631 397 2203 397 
Q 2534 397 2845 478 
Q 3156 559 3463 722 
L 3463 178 
Q 3153 47 2828 -22 
Q 2503 -91 2169 -91 
Q 1331 -91 842 396 
Q 353 884 353 1716 
Q 353 2575 817 3079 
Q 1281 3584 2069 3584 
Q 2775 3584 3186 3129 
Q 3597 2675 3597 1894 
z
M 3022 2063 
Q 3016 2534 2758 2815 
Q 2500 3097 2075 3097 
Q 1594 3097 1305 2825 
Q 1016 2553 972 2059 
L 3022 2063 
z
" transform="scale(0.015625)"/>
       <path id="DejaVuSans-76" d="M 191 3500 
L 800 3500 
L 1894 563 
L 2988 3500 
L 3597 3500 
L 2284 0 
L 1503 0 
L 191 3500 
z
" transform="scale(0.015625)"/>
       <path id="DejaVuSans-64" d="M 2906 2969 
L 2906 4863 
L 3481 4863 
L 3481 0 
L 2906 0 
L 2906 525 
Q 2725 213 2448 61 
Q 2172 -91 1784 -91 
Q 1150 -91 751 415 
Q 353 922 353 1747 
Q 353 2572 751 3078 
Q 1150 3584 1784 3584 
Q 2172 3584 2448 3432 
Q 2725 3281 2906 2969 
z
M 947 1747 
Q 947 1113 1208 752 
Q 1469 391 1925 391 
Q 2381 391 2643 752 
Q 2906 1113 2906 1747 
Q 2906 2381 2643 2742 
Q 2381 3103 1925 3103 
Q 1469 3103 1208 2742 
Q 947 2381 947 1747 
z
" transform="scale(0.015625)"/>
      </defs>
      <use xlink:href="#DejaVuSans-6f"/>
      <use xlink:href="#DejaVuSans-62" x="61.181641"/>
      <use xlink:href="#DejaVuSans-73" x="124.658203"/>
      <use xlink:href="#DejaVuSans-65" x="176.757812"/>
      <use xlink:href="#DejaVuSans-72" x="238.28125"/>
      <use xlink:href="#DejaVuSans-76" x="279.394531"/>
      <use xlink:href="#DejaVuSans-65" x="338.574219"/>
      <use xlink:href="#DejaVuSans-64" x="400.097656"/>
     </g>
    </g>
    <g id="line2d_17">
     <path d="M 619.42875 50.094688 
L 629.42875 50.094688 
L 639.42875 50.094688 
" style="fill: none; stroke: #ff7f0e; stroke-width: 1.5; stroke-linecap: square"/>
    </g>
    <g id="text_16">
     <!-- simulated -->
     <g transform="translate(647.42875 53.594688) scale(0.1 -0.1)">
      <defs>
       <path id="DejaVuSans-6d" d="M 3328 2828 
Q 3544 3216 3844 3400 
Q 4144 3584 4550 3584 
Q 5097 3584 5394 3201 
Q 5691 2819 5691 2113 
L 5691 0 
L 5113 0 
L 5113 2094 
Q 5113 2597 4934 2840 
Q 4756 3084 4391 3084 
Q 3944 3084 3684 2787 
Q 3425 2491 3425 1978 
L 3425 0 
L 2847 0 
L 2847 2094 
Q 2847 2600 2669 2842 
Q 2491 3084 2119 3084 
Q 1678 3084 1418 2786 
Q 1159 2488 1159 1978 
L 1159 0 
L 581 0 
L 581 3500 
L 1159 3500 
L 1159 2956 
Q 1356 3278 1631 3431 
Q 1906 3584 2284 3584 
Q 2666 3584 2933 3390 
Q 3200 3197 3328 2828 
z
" transform="scale(0.015625)"/>
       <path id="DejaVuSans-75" d="M 544 1381 
L 544 3500 
L 1119 3500 
L 1119 1403 
Q 1119 906 1312 657 
Q 1506 409 1894 409 
Q 2359 409 2629 706 
Q 2900 1003 2900 1516 
L 2900 3500 
L 3475 3500 
L 3475 0 
L 2900 0 
L 2900 538 
Q 2691 219 2414 64 
Q 2138 -91 1772 -91 
Q 1169 -91 856 284 
Q 544 659 544 1381 
z
M 1991 3584 
L 1991 3584 
z
" transform="scale(0.015625)"/>
       <path id="DejaVuSans-6c" d="M 603 4863 
L 1178 4863 
L 1178 0 
L 603 0 
L 603 4863 
z
" transform="scale(0.015625)"/>
      </defs>
      <use xlink:href="#DejaVuSans-73"/>
      <use xlink:href="#DejaVuSans-69" x="52.099609"/>
      <use xlink:href="#DejaVuSans-6d" x="79.882812"/>
      <use xlink:href="#DejaVuSans-75" x="177.294922"/>
      <use xlink:href="#DejaVuSans-6c" x="240.673828"/>
      <use xlink:href="#DejaVuSans-61" x="268.457031"/>
      <use xlink:href="#DejaVuSans-74" x="329.736328"/>
      <use xlink:href="#DejaVuSans-65" x="368.945312"/>
      <use xlink:href="#DejaVuSans-64" x="430.46875"/>
     </g>
    </g>
   </g>
  </g>
 </g>
 <defs>
  <clipPath id="p914b715f6d">
   <rect x="46.0125" y="22.318125" width="659.81" height="305.24"/>
  </clipPath>
 </defs>
</svg>
