<?xml version="1.0" encoding="utf-8" standalone="no"?>
<!DOCTYPE svg PUBLIC "-//W3C//DTD SVG 1.1//EN"
  "http://www.w3.org/Graphics/SVG/1.1/DTD/svg11.dtd">
<svg xmlns:xlink="http://www.w3.org/1999/xlink" width="720pt" height="360pt" viewBox="0 0 720 360" xmlns="http://www.w3.org/2000/svg" version="1.1">
 <metadata>
  <rdf:RDF xmlns:dc="http://purl.org/dc/elements/1.1/" xmlns:cc="http://creativecommons.org/ns#" xmlns:rdf="http://www.w3.org/1999/02/22-rdf-syntax-ns#">
   <cc:Work>
    <dc:type rdf:resource="http://purl.org/dc/dcmitype/StillImage"/>
    <dc:date>2023-10-23T10:55:16.097595</dc:date>
    <dc:format>image/svg+xml</dc:format>
    <dc:creator>
     <cc:Agent>
      <dc:title>Matplotlib v3.7.1, https://matplotlib.org/</dc:title>
     </cc:Agent>
    </dc:creator>
   </cc:Work>
  </rdf:RDF>
 </metadata>
 <defs>
  <style type="text/css">*{stroke-linejoin: round; stroke-linecap: butt}</style>
 </defs>
 <g id="figure_1">
  <g id="patch_1">
   <path d="M 0 360 
L 720 360 
L 720 0 
L 0 0 
z
" style="fill: #ffffff"/>
  </g>
  <g id="axes_1">
   <g id="patch_2">
    <path d="M 90 288 
L 648 288 
L 648 43.2 
L 90 43.2 
z
" style="fill: #ffffff"/>
   </g>
   <g id="matplotlib.axis_1">
    <g id="xtick_1">
     <g id="line2d_1">
      <defs>
       <path id="m5efe8a2545" d="M 0 0 
L 0 3.5 
" style="stroke: #000000; stroke-width: 0.8"/>
      </defs>
      <g>
       <use xlink:href="#m5efe8a2545" x="108.334453" y="288" style="stroke: #000000; stroke-width: 0.8"/>
      </g>
     </g>
     <g id="text_1">
      <!-- 2023-09-17 -->
      <g transform="translate(46.691111 337.765903) rotate(-30) scale(0.12 -0.12)">
       <defs>
        <path id="DejaVuSans-32" d="M 1228 531 
L 3431 531 
L 3431 0 
L 469 0 
L 469 531 
Q 828 903 1448 1529 
Q 2069 2156 2228 2338 
Q 2531 2678 2651 2914 
Q 2772 3150 2772 3378 
Q 2772 3750 2511 3984 
Q 2250 4219 1831 4219 
Q 1534 4219 1204 4116 
Q 875 4013 500 3803 
L 500 4441 
Q 881 4594 1212 4672 
Q 1544 4750 1819 4750 
Q 2544 4750 2975 4387 
Q 3406 4025 3406 3419 
Q 3406 3131 3298 2873 
Q 3191 2616 2906 2266 
Q 2828 2175 2409 1742 
Q 1991 1309 1228 531 
z
" transform="scale(0.015625)"/>
        <path id="DejaVuSans-30" d="M 2034 4250 
Q 1547 4250 1301 3770 
Q 1056 3291 1056 2328 
Q 1056 1369 1301 889 
Q 1547 409 2034 409 
Q 2525 409 2770 889 
Q 3016 1369 3016 2328 
Q 3016 3291 2770 3770 
Q 2525 4250 2034 4250 
z
M 2034 4750 
Q 2819 4750 3233 4129 
Q 3647 3509 3647 2328 
Q 3647 1150 3233 529 
Q 2819 -91 2034 -91 
Q 1250 -91 836 529 
Q 422 1150 422 2328 
Q 422 3509 836 4129 
Q 1250 4750 2034 4750 
z
" transform="scale(0.015625)"/>
        <path id="DejaVuSans-33" d="M 2597 2516 
Q 3050 2419 3304 2112 
Q 3559 1806 3559 1356 
Q 3559 666 3084 287 
Q 2609 -91 1734 -91 
Q 1441 -91 1130 -33 
Q 819 25 488 141 
L 488 750 
Q 750 597 1062 519 
Q 1375 441 1716 441 
Q 2309 441 2620 675 
Q 2931 909 2931 1356 
Q 2931 1769 2642 2001 
Q 2353 2234 1838 2234 
L 1294 2234 
L 1294 2753 
L 1863 2753 
Q 2328 2753 2575 2939 
Q 2822 3125 2822 3475 
Q 2822 3834 2567 4026 
Q 2313 4219 1838 4219 
Q 1578 4219 1281 4162 
Q 984 4106 628 3988 
L 628 4550 
Q 988 4650 1302 4700 
Q 1616 4750 1894 4750 
Q 2613 4750 3031 4423 
Q 3450 4097 3450 3541 
Q 3450 3153 3228 2886 
Q 3006 2619 2597 2516 
z
" transform="scale(0.015625)"/>
        <path id="DejaVuSans-2d" d="M 313 2009 
L 1997 2009 
L 1997 1497 
L 313 1497 
L 313 2009 
z
" transform="scale(0.015625)"/>
        <path id="DejaVuSans-39" d="M 703 97 
L 703 672 
Q 941 559 1184 500 
Q 1428 441 1663 441 
Q 2288 441 2617 861 
Q 2947 1281 2994 2138 
Q 2813 1869 2534 1725 
Q 2256 1581 1919 1581 
Q 1219 1581 811 2004 
Q 403 2428 403 3163 
Q 403 3881 828 4315 
Q 1253 4750 1959 4750 
Q 2769 4750 3195 4129 
Q 3622 3509 3622 2328 
Q 3622 1225 3098 567 
Q 2575 -91 1691 -91 
Q 1453 -91 1209 -44 
Q 966 3 703 97 
z
M 1959 2075 
Q 2384 2075 2632 2365 
Q 2881 2656 2881 3163 
Q 2881 3666 2632 3958 
Q 2384 4250 1959 4250 
Q 1534 4250 1286 3958 
Q 1038 3666 1038 3163 
Q 1038 2656 1286 2365 
Q 1534 2075 1959 2075 
z
" transform="scale(0.015625)"/>
        <path id="DejaVuSans-31" d="M 794 531 
L 1825 531 
L 1825 4091 
L 703 3866 
L 703 4441 
L 1819 4666 
L 2450 4666 
L 2450 531 
L 3481 531 
L 3481 0 
L 794 0 
L 794 531 
z
" transform="scale(0.015625)"/>
        <path id="DejaVuSans-37" d="M 525 4666 
L 3525 4666 
L 3525 4397 
L 1831 0 
L 1172 0 
L 2766 4134 
L 525 4134 
L 525 4666 
z
" transform="scale(0.015625)"/>
       </defs>
       <use xlink:href="#DejaVuSans-32"/>
       <use xlink:href="#DejaVuSans-30" x="63.623047"/>
       <use xlink:href="#DejaVuSans-32" x="127.246094"/>
       <use xlink:href="#DejaVuSans-33" x="190.869141"/>
       <use xlink:href="#DejaVuSans-2d" x="254.492188"/>
       <use xlink:href="#DejaVuSans-30" x="290.576172"/>
       <use xlink:href="#DejaVuSans-39" x="354.199219"/>
       <use xlink:href="#DejaVuSans-2d" x="417.822266"/>
       <use xlink:href="#DejaVuSans-31" x="453.90625"/>
       <use xlink:href="#DejaVuSans-37" x="517.529297"/>
      </g>
     </g>
    </g>
    <g id="xtick_2">
     <g id="line2d_2">
      <g>
       <use xlink:href="#m5efe8a2545" x="164.567919" y="288" style="stroke: #000000; stroke-width: 0.8"/>
      </g>
     </g>
     <g id="text_2">
      <!-- 2023-09-21 -->
      <g transform="translate(102.924578 337.765903) rotate(-30) scale(0.12 -0.12)">
       <use xlink:href="#DejaVuSans-32"/>
       <use xlink:href="#DejaVuSans-30" x="63.623047"/>
       <use xlink:href="#DejaVuSans-32" x="127.246094"/>
       <use xlink:href="#DejaVuSans-33" x="190.869141"/>
       <use xlink:href="#DejaVuSans-2d" x="254.492188"/>
       <use xlink:href="#DejaVuSans-30" x="290.576172"/>
       <use xlink:href="#DejaVuSans-39" x="354.199219"/>
       <use xlink:href="#DejaVuSans-2d" x="417.822266"/>
       <use xlink:href="#DejaVuSans-32" x="453.90625"/>
       <use xlink:href="#DejaVuSans-31" x="517.529297"/>
      </g>
     </g>
    </g>
    <g id="xtick_3">
     <g id="line2d_3">
      <g>
       <use xlink:href="#m5efe8a2545" x="220.801386" y="288" style="stroke: #000000; stroke-width: 0.8"/>
      </g>
     </g>
     <g id="text_3">
      <!-- 2023-09-25 -->
      <g transform="translate(159.158044 337.765903) rotate(-30) scale(0.12 -0.12)">
       <defs>
        <path id="DejaVuSans-35" d="M 691 4666 
L 3169 4666 
L 3169 4134 
L 1269 4134 
L 1269 2991 
Q 1406 3038 1543 3061 
Q 1681 3084 1819 3084 
Q 2600 3084 3056 2656 
Q 3513 2228 3513 1497 
Q 3513 744 3044 326 
Q 2575 -91 1722 -91 
Q 1428 -91 1123 -41 
Q 819 9 494 109 
L 494 744 
Q 775 591 1075 516 
Q 1375 441 1709 441 
Q 2250 441 2565 725 
Q 2881 1009 2881 1497 
Q 2881 1984 2565 2268 
Q 2250 2553 1709 2553 
Q 1456 2553 1204 2497 
Q 953 2441 691 2322 
L 691 4666 
z
" transform="scale(0.015625)"/>
       </defs>
       <use xlink:href="#DejaVuSans-32"/>
       <use xlink:href="#DejaVuSans-30" x="63.623047"/>
       <use xlink:href="#DejaVuSans-32" x="127.246094"/>
       <use xlink:href="#DejaVuSans-33" x="190.869141"/>
       <use xlink:href="#DejaVuSans-2d" x="254.492188"/>
       <use xlink:href="#DejaVuSans-30" x="290.576172"/>
       <use xlink:href="#DejaVuSans-39" x="354.199219"/>
       <use xlink:href="#DejaVuSans-2d" x="417.822266"/>
       <use xlink:href="#DejaVuSans-32" x="453.90625"/>
       <use xlink:href="#DejaVuSans-35" x="517.529297"/>
      </g>
     </g>
    </g>
    <g id="xtick_4">
     <g id="line2d_4">
      <g>
       <use xlink:href="#m5efe8a2545" x="277.034852" y="288" style="stroke: #000000; stroke-width: 0.8"/>
      </g>
     </g>
     <g id="text_4">
      <!-- 2023-09-29 -->
      <g transform="translate(215.39151 337.765903) rotate(-30) scale(0.12 -0.12)">
       <use xlink:href="#DejaVuSans-32"/>
       <use xlink:href="#DejaVuSans-30" x="63.623047"/>
       <use xlink:href="#DejaVuSans-32" x="127.246094"/>
       <use xlink:href="#DejaVuSans-33" x="190.869141"/>
       <use xlink:href="#DejaVuSans-2d" x="254.492188"/>
       <use xlink:href="#DejaVuSans-30" x="290.576172"/>
       <use xlink:href="#DejaVuSans-39" x="354.199219"/>
       <use xlink:href="#DejaVuSans-2d" x="417.822266"/>
       <use xlink:href="#DejaVuSans-32" x="453.90625"/>
       <use xlink:href="#DejaVuSans-39" x="517.529297"/>
      </g>
     </g>
    </g>
    <g id="xtick_5">
     <g id="line2d_5">
      <g>
       <use xlink:href="#m5efe8a2545" x="305.151585" y="288" style="stroke: #000000; stroke-width: 0.8"/>
      </g>
     </g>
     <g id="text_5">
      <!-- 2023-10-01 -->
      <g transform="translate(243.508244 337.765903) rotate(-30) scale(0.12 -0.12)">
       <use xlink:href="#DejaVuSans-32"/>
       <use xlink:href="#DejaVuSans-30" x="63.623047"/>
       <use xlink:href="#DejaVuSans-32" x="127.246094"/>
       <use xlink:href="#DejaVuSans-33" x="190.869141"/>
       <use xlink:href="#DejaVuSans-2d" x="254.492188"/>
       <use xlink:href="#DejaVuSans-31" x="290.576172"/>
       <use xlink:href="#DejaVuSans-30" x="354.199219"/>
       <use xlink:href="#DejaVuSans-2d" x="417.822266"/>
       <use xlink:href="#DejaVuSans-30" x="453.90625"/>
       <use xlink:href="#DejaVuSans-31" x="517.529297"/>
      </g>
     </g>
    </g>
    <g id="xtick_6">
     <g id="line2d_6">
      <g>
       <use xlink:href="#m5efe8a2545" x="361.385051" y="288" style="stroke: #000000; stroke-width: 0.8"/>
      </g>
     </g>
     <g id="text_6">
      <!-- 2023-10-05 -->
      <g transform="translate(299.74171 337.765903) rotate(-30) scale(0.12 -0.12)">
       <use xlink:href="#DejaVuSans-32"/>
       <use xlink:href="#DejaVuSans-30" x="63.623047"/>
       <use xlink:href="#DejaVuSans-32" x="127.246094"/>
       <use xlink:href="#DejaVuSans-33" x="190.869141"/>
       <use xlink:href="#DejaVuSans-2d" x="254.492188"/>
       <use xlink:href="#DejaVuSans-31" x="290.576172"/>
       <use xlink:href="#DejaVuSans-30" x="354.199219"/>
       <use xlink:href="#DejaVuSans-2d" x="417.822266"/>
       <use xlink:href="#DejaVuSans-30" x="453.90625"/>
       <use xlink:href="#DejaVuSans-35" x="517.529297"/>
      </g>
     </g>
    </g>
    <g id="xtick_7">
     <g id="line2d_7">
      <g>
       <use xlink:href="#m5efe8a2545" x="417.618518" y="288" style="stroke: #000000; stroke-width: 0.8"/>
      </g>
     </g>
     <g id="text_7">
      <!-- 2023-10-09 -->
      <g transform="translate(355.975176 337.765903) rotate(-30) scale(0.12 -0.12)">
       <use xlink:href="#DejaVuSans-32"/>
       <use xlink:href="#DejaVuSans-30" x="63.623047"/>
       <use xlink:href="#DejaVuSans-32" x="127.246094"/>
       <use xlink:href="#DejaVuSans-33" x="190.869141"/>
       <use xlink:href="#DejaVuSans-2d" x="254.492188"/>
       <use xlink:href="#DejaVuSans-31" x="290.576172"/>
       <use xlink:href="#DejaVuSans-30" x="354.199219"/>
       <use xlink:href="#DejaVuSans-2d" x="417.822266"/>
       <use xlink:href="#DejaVuSans-30" x="453.90625"/>
       <use xlink:href="#DejaVuSans-39" x="517.529297"/>
      </g>
     </g>
    </g>
    <g id="xtick_8">
     <g id="line2d_8">
      <g>
       <use xlink:href="#m5efe8a2545" x="473.851984" y="288" style="stroke: #000000; stroke-width: 0.8"/>
      </g>
     </g>
     <g id="text_8">
      <!-- 2023-10-13 -->
      <g transform="translate(412.208642 337.765903) rotate(-30) scale(0.12 -0.12)">
       <use xlink:href="#DejaVuSans-32"/>
       <use xlink:href="#DejaVuSans-30" x="63.623047"/>
       <use xlink:href="#DejaVuSans-32" x="127.246094"/>
       <use xlink:href="#DejaVuSans-33" x="190.869141"/>
       <use xlink:href="#DejaVuSans-2d" x="254.492188"/>
       <use xlink:href="#DejaVuSans-31" x="290.576172"/>
       <use xlink:href="#DejaVuSans-30" x="354.199219"/>
       <use xlink:href="#DejaVuSans-2d" x="417.822266"/>
       <use xlink:href="#DejaVuSans-31" x="453.90625"/>
       <use xlink:href="#DejaVuSans-33" x="517.529297"/>
      </g>
     </g>
    </g>
    <g id="xtick_9">
     <g id="line2d_9">
      <g>
       <use xlink:href="#m5efe8a2545" x="530.08545" y="288" style="stroke: #000000; stroke-width: 0.8"/>
      </g>
     </g>
     <g id="text_9">
      <!-- 2023-10-17 -->
      <g transform="translate(468.442109 337.765903) rotate(-30) scale(0.12 -0.12)">
       <use xlink:href="#DejaVuSans-32"/>
       <use xlink:href="#DejaVuSans-30" x="63.623047"/>
       <use xlink:href="#DejaVuSans-32" x="127.246094"/>
       <use xlink:href="#DejaVuSans-33" x="190.869141"/>
       <use xlink:href="#DejaVuSans-2d" x="254.492188"/>
       <use xlink:href="#DejaVuSans-31" x="290.576172"/>
       <use xlink:href="#DejaVuSans-30" x="354.199219"/>
       <use xlink:href="#DejaVuSans-2d" x="417.822266"/>
       <use xlink:href="#DejaVuSans-31" x="453.90625"/>
       <use xlink:href="#DejaVuSans-37" x="517.529297"/>
      </g>
     </g>
    </g>
    <g id="xtick_10">
     <g id="line2d_10">
      <g>
       <use xlink:href="#m5efe8a2545" x="586.318917" y="288" style="stroke: #000000; stroke-width: 0.8"/>
      </g>
     </g>
     <g id="text_10">
      <!-- 2023-10-21 -->
      <g transform="translate(524.675575 337.765903) rotate(-30) scale(0.12 -0.12)">
       <use xlink:href="#DejaVuSans-32"/>
       <use xlink:href="#DejaVuSans-30" x="63.623047"/>
       <use xlink:href="#DejaVuSans-32" x="127.246094"/>
       <use xlink:href="#DejaVuSans-33" x="190.869141"/>
       <use xlink:href="#DejaVuSans-2d" x="254.492188"/>
       <use xlink:href="#DejaVuSans-31" x="290.576172"/>
       <use xlink:href="#DejaVuSans-30" x="354.199219"/>
       <use xlink:href="#DejaVuSans-2d" x="417.822266"/>
       <use xlink:href="#DejaVuSans-32" x="453.90625"/>
       <use xlink:href="#DejaVuSans-31" x="517.529297"/>
      </g>
     </g>
    </g>
    <g id="xtick_11">
     <g id="line2d_11">
      <g>
       <use xlink:href="#m5efe8a2545" x="642.552383" y="288" style="stroke: #000000; stroke-width: 0.8"/>
      </g>
     </g>
     <g id="text_11">
      <!-- 2023-10-25 -->
      <g transform="translate(580.909041 337.765903) rotate(-30) scale(0.12 -0.12)">
       <use xlink:href="#DejaVuSans-32"/>
       <use xlink:href="#DejaVuSans-30" x="63.623047"/>
       <use xlink:href="#DejaVuSans-32" x="127.246094"/>
       <use xlink:href="#DejaVuSans-33" x="190.869141"/>
       <use xlink:href="#DejaVuSans-2d" x="254.492188"/>
       <use xlink:href="#DejaVuSans-31" x="290.576172"/>
       <use xlink:href="#DejaVuSans-30" x="354.199219"/>
       <use xlink:href="#DejaVuSans-2d" x="417.822266"/>
       <use xlink:href="#DejaVuSans-32" x="453.90625"/>
       <use xlink:href="#DejaVuSans-35" x="517.529297"/>
      </g>
     </g>
    </g>
   </g>
   <g id="matplotlib.axis_2">
    <g id="ytick_1">
     <g id="line2d_12">
      <defs>
       <path id="m178a39322d" d="M 0 0 
L -3.5 0 
" style="stroke: #000000; stroke-width: 0.8"/>
      </defs>
      <g>
       <use xlink:href="#m178a39322d" x="90" y="249.817038" style="stroke: #000000; stroke-width: 0.8"/>
      </g>
     </g>
     <g id="text_12">
      <!-- 1.1 -->
      <g transform="translate(63.91625 254.3761) scale(0.12 -0.12)">
       <defs>
        <path id="DejaVuSans-2e" d="M 684 794 
L 1344 794 
L 1344 0 
L 684 0 
L 684 794 
z
" transform="scale(0.015625)"/>
       </defs>
       <use xlink:href="#DejaVuSans-31"/>
       <use xlink:href="#DejaVuSans-2e" x="63.623047"/>
       <use xlink:href="#DejaVuSans-31" x="95.410156"/>
      </g>
     </g>
    </g>
    <g id="ytick_2">
     <g id="line2d_13">
      <g>
       <use xlink:href="#m178a39322d" x="90" y="205.966086" style="stroke: #000000; stroke-width: 0.8"/>
      </g>
     </g>
     <g id="text_13">
      <!-- 1.2 -->
      <g transform="translate(63.91625 210.525148) scale(0.12 -0.12)">
       <use xlink:href="#DejaVuSans-31"/>
       <use xlink:href="#DejaVuSans-2e" x="63.623047"/>
       <use xlink:href="#DejaVuSans-32" x="95.410156"/>
      </g>
     </g>
    </g>
    <g id="ytick_3">
     <g id="line2d_14">
      <g>
       <use xlink:href="#m178a39322d" x="90" y="162.115134" style="stroke: #000000; stroke-width: 0.8"/>
      </g>
     </g>
     <g id="text_14">
      <!-- 1.3 -->
      <g transform="translate(63.91625 166.674196) scale(0.12 -0.12)">
       <use xlink:href="#DejaVuSans-31"/>
       <use xlink:href="#DejaVuSans-2e" x="63.623047"/>
       <use xlink:href="#DejaVuSans-33" x="95.410156"/>
      </g>
     </g>
    </g>
    <g id="ytick_4">
     <g id="line2d_15">
      <g>
       <use xlink:href="#m178a39322d" x="90" y="118.264182" style="stroke: #000000; stroke-width: 0.8"/>
      </g>
     </g>
     <g id="text_15">
      <!-- 1.4 -->
      <g transform="translate(63.91625 122.823244) scale(0.12 -0.12)">
       <defs>
        <path id="DejaVuSans-34" d="M 2419 4116 
L 825 1625 
L 2419 1625 
L 2419 4116 
z
M 2253 4666 
L 3047 4666 
L 3047 1625 
L 3713 1625 
L 3713 1100 
L 3047 1100 
L 3047 0 
L 2419 0 
L 2419 1100 
L 313 1100 
L 313 1709 
L 2253 4666 
z
" transform="scale(0.015625)"/>
       </defs>
       <use xlink:href="#DejaVuSans-31"/>
       <use xlink:href="#DejaVuSans-2e" x="63.623047"/>
       <use xlink:href="#DejaVuSans-34" x="95.410156"/>
      </g>
     </g>
    </g>
    <g id="ytick_5">
     <g id="line2d_16">
      <g>
       <use xlink:href="#m178a39322d" x="90" y="74.41323" style="stroke: #000000; stroke-width: 0.8"/>
      </g>
     </g>
     <g id="text_16">
      <!-- 1.5 -->
      <g transform="translate(63.91625 78.972292) scale(0.12 -0.12)">
       <use xlink:href="#DejaVuSans-31"/>
       <use xlink:href="#DejaVuSans-2e" x="63.623047"/>
       <use xlink:href="#DejaVuSans-35" x="95.410156"/>
      </g>
     </g>
    </g>
    <g id="text_17">
     <!-- Meters -->
     <g transform="translate(57.836562 182.6875) rotate(-90) scale(0.1 -0.1)">
      <defs>
       <path id="DejaVuSans-4d" d="M 628 4666 
L 1569 4666 
L 2759 1491 
L 3956 4666 
L 4897 4666 
L 4897 0 
L 4281 0 
L 4281 4097 
L 3078 897 
L 2444 897 
L 1241 4097 
L 1241 0 
L 628 0 
L 628 4666 
z
" transform="scale(0.015625)"/>
       <path id="DejaVuSans-65" d="M 3597 1894 
L 3597 1613 
L 953 1613 
Q 991 1019 1311 708 
Q 1631 397 2203 397 
Q 2534 397 2845 478 
Q 3156 559 3463 722 
L 3463 178 
Q 3153 47 2828 -22 
Q 2503 -91 2169 -91 
Q 1331 -91 842 396 
Q 353 884 353 1716 
Q 353 2575 817 3079 
Q 1281 3584 2069 3584 
Q 2775 3584 3186 3129 
Q 3597 2675 3597 1894 
z
M 3022 2063 
Q 3016 2534 2758 2815 
Q 2500 3097 2075 3097 
Q 1594 3097 1305 2825 
Q 1016 2553 972 2059 
L 3022 2063 
z
" transform="scale(0.015625)"/>
       <path id="DejaVuSans-74" d="M 1172 4494 
L 1172 3500 
L 2356 3500 
L 2356 3053 
L 1172 3053 
L 1172 1153 
Q 1172 725 1289 603 
Q 1406 481 1766 481 
L 2356 481 
L 2356 0 
L 1766 0 
Q 1100 0 847 248 
Q 594 497 594 1153 
L 594 3053 
L 172 3053 
L 172 3500 
L 594 3500 
L 594 4494 
L 1172 4494 
z
" transform="scale(0.015625)"/>
       <path id="DejaVuSans-72" d="M 2631 2963 
Q 2534 3019 2420 3045 
Q 2306 3072 2169 3072 
Q 1681 3072 1420 2755 
Q 1159 2438 1159 1844 
L 1159 0 
L 581 0 
L 581 3500 
L 1159 3500 
L 1159 2956 
Q 1341 3275 1631 3429 
Q 1922 3584 2338 3584 
Q 2397 3584 2469 3576 
Q 2541 3569 2628 3553 
L 2631 2963 
z
" transform="scale(0.015625)"/>
       <path id="DejaVuSans-73" d="M 2834 3397 
L 2834 2853 
Q 2591 2978 2328 3040 
Q 2066 3103 1784 3103 
Q 1356 3103 1142 2972 
Q 928 2841 928 2578 
Q 928 2378 1081 2264 
Q 1234 2150 1697 2047 
L 1894 2003 
Q 2506 1872 2764 1633 
Q 3022 1394 3022 966 
Q 3022 478 2636 193 
Q 2250 -91 1575 -91 
Q 1294 -91 989 -36 
Q 684 19 347 128 
L 347 722 
Q 666 556 975 473 
Q 1284 391 1588 391 
Q 1994 391 2212 530 
Q 2431 669 2431 922 
Q 2431 1156 2273 1281 
Q 2116 1406 1581 1522 
L 1381 1569 
Q 847 1681 609 1914 
Q 372 2147 372 2553 
Q 372 3047 722 3315 
Q 1072 3584 1716 3584 
Q 2034 3584 2315 3537 
Q 2597 3491 2834 3397 
z
" transform="scale(0.015625)"/>
      </defs>
      <use xlink:href="#DejaVuSans-4d"/>
      <use xlink:href="#DejaVuSans-65" x="86.279297"/>
      <use xlink:href="#DejaVuSans-74" x="147.802734"/>
      <use xlink:href="#DejaVuSans-65" x="187.011719"/>
      <use xlink:href="#DejaVuSans-72" x="248.535156"/>
      <use xlink:href="#DejaVuSans-73" x="289.648438"/>
     </g>
    </g>
   </g>
   <g id="line2d_17">
    <path d="M 115.363636 236.247914 
L 115.949402 235.151921 
L 116.535167 236.394047 
L 117.120932 248.888369 
L 117.706697 245.673455 
L 118.292463 244.212131 
L 118.878228 243.554535 
L 119.463993 244.650529 
L 120.049759 248.376905 
L 120.635524 246.404118 
L 121.221289 247.938508 
L 121.807054 244.358264 
L 122.39282 244.869727 
L 122.978585 242.604675 
L 123.56435 239.755092 
L 124.150115 238.878298 
L 124.735881 243.116138 
L 125.321646 242.823873 
L 125.907411 244.650529 
L 126.493177 242.239344 
L 127.078942 243.919866 
L 127.664707 243.627602 
L 128.250472 245.088926 
L 128.836238 243.919866 
L 129.422003 239.389761 
L 130.007768 237.782305 
L 130.593533 247.061713 
L 131.179299 253.564606 
L 131.765064 252.90701 
L 132.350829 250.568892 
L 132.936595 252.687812 
L 133.52236 257.042558 
L 134.108125 253.272341 
L 134.69389 252.103282 
L 135.279656 253.053143 
L 135.865421 254.222202 
L 136.451186 251.518752 
L 137.036952 250.495825 
L 137.622717 248.888369 
L 138.208482 248.303839 
L 138.794247 248.888369 
L 139.380013 248.66917 
L 140.551543 249.180634 
L 141.137308 249.911296 
L 141.723074 248.742236 
L 142.308839 248.157707 
L 142.894604 249.911296 
L 143.48037 245.600389 
L 144.066135 251.37262 
L 144.6519 259.8483 
L 145.237665 263.501611 
L 145.823431 268.250914 
L 146.409196 268.397047 
L 146.994961 267.739451 
L 147.580726 263.866942 
L 148.166492 262.55175 
L 148.752257 265.474398 
L 149.338022 257.217917 
L 149.923788 258.021645 
L 150.509553 252.395547 
L 151.095318 250.934223 
L 151.681083 250.495825 
L 152.266849 247.646243 
L 153.438379 245.600389 
L 154.024144 245.161992 
L 154.60991 246.988647 
L 155.195675 247.719309 
L 155.78144 247.427045 
L 156.367206 247.427045 
L 156.952971 249.399832 
L 157.538736 246.404118 
L 158.124501 246.404118 
L 158.710267 249.107567 
L 159.296032 256.414188 
L 159.881797 257.510182 
L 160.467562 260.505896 
L 161.053328 259.263771 
L 161.639093 259.702168 
L 162.224858 263.940008 
L 162.810624 262.040287 
L 163.396389 258.971506 
L 163.982154 259.921366 
L 164.567919 256.633387 
L 165.153685 252.468613 
L 166.325215 249.399832 
L 166.91098 250.057428 
L 167.496746 249.838229 
L 168.082511 249.838229 
L 168.668276 250.78809 
L 169.254042 249.326766 
L 169.839807 250.130494 
L 171.011337 252.541679 
L 171.597103 251.431073 
L 172.182868 253.49154 
L 172.768633 260.652029 
L 173.940164 265.182134 
L 174.525929 266.78959 
L 175.111694 269.127709 
L 175.69746 270.223702 
L 176.283225 272.561821 
L 176.86899 265.036001 
L 177.454755 264.889869 
L 178.040521 261.601889 
L 178.626286 256.706453 
L 179.212051 253.886098 
L 179.797817 252.030216 
L 180.383582 251.95715 
L 180.969347 252.030216 
L 181.555112 251.445686 
L 182.140878 252.760878 
L 182.726643 251.153421 
L 183.312408 251.37262 
L 183.898173 254.368335 
L 184.483939 253.564606 
L 185.069704 254.368335 
L 185.655469 252.249414 
L 186.241235 251.518752 
L 186.827 260.067499 
L 187.412765 266.935723 
L 187.99853 267.227988 
L 188.584296 265.036001 
L 189.170061 268.250914 
L 189.755826 272.707953 
L 190.341591 270.808232 
L 190.927357 271.685026 
L 191.513122 261.601889 
L 192.684653 257.583248 
L 193.270418 255.829659 
L 193.856183 254.879798 
L 194.441948 253.49154 
L 195.613479 253.710739 
L 196.199244 251.884083 
L 196.785009 254.295268 
L 197.370775 252.90701 
L 197.95654 255.464328 
L 198.542305 253.929937 
L 199.128071 254.806732 
L 199.713836 254.07607 
L 200.299601 256.048857 
L 200.885366 267.812517 
L 201.471132 270.150636 
L 202.056897 270.07757 
L 203.228427 268.470113 
L 203.814193 268.470113 
L 204.399958 273.365549 
L 205.571489 263.063214 
L 207.328784 256.414188 
L 207.91455 254.368335 
L 208.500315 253.856871 
L 209.08608 257.656314 
L 209.671845 256.414188 
L 210.257611 253.126209 
L 210.843376 253.418474 
L 212.014907 259.409903 
L 212.600672 258.971506 
L 213.186437 258.021645 
L 213.772202 253.710739 
L 214.357968 256.779519 
L 214.943733 261.748022 
L 215.529498 269.346908 
L 216.115263 269.419974 
L 216.701029 270.004504 
L 217.286794 271.173563 
L 217.872559 272.634887 
L 218.458325 276.872727 
L 220.21562 261.821088 
L 220.801386 258.240844 
L 221.387151 255.683526 
L 221.972916 257.071784 
L 222.558682 257.290983 
L 223.144447 257.14485 
L 223.730212 259.117638 
L 224.315977 254.441401 
L 224.901743 253.637672 
L 225.487508 256.633387 
L 226.073273 257.217917 
L 226.659038 257.583248 
L 227.244804 259.775234 
L 227.830569 257.875513 
L 228.416334 254.879798 
L 229.0021 258.606175 
L 229.587865 270.589033 
L 230.17363 273.292483 
L 230.759395 265.620531 
L 231.345161 268.981577 
L 231.930926 266.643458 
L 232.516691 266.058928 
L 233.102456 265.985862 
L 233.688222 264.013074 
L 234.273987 259.702168 
L 234.859752 257.656314 
L 235.445518 256.048857 
L 236.031283 255.02593 
L 237.788579 254.368335 
L 238.374344 255.537394 
L 238.960109 255.245129 
L 239.545874 255.975791 
L 240.13164 255.098997 
L 240.717405 254.952864 
L 241.30317 256.268056 
L 241.888936 256.121924 
L 242.474701 257.437115 
L 243.060466 258.094711 
L 243.646231 258.386976 
L 244.817762 256.341122 
L 245.403527 257.071784 
L 245.989292 257.437115 
L 246.575058 255.464328 
L 247.160823 256.268056 
L 247.746588 253.49154 
L 248.918119 249.545965 
L 249.503884 249.472898 
L 250.089649 248.815303 
L 251.26118 250.130494 
L 251.846945 250.641958 
L 252.43271 249.911296 
L 253.018476 251.664885 
L 253.604241 252.468613 
L 254.190006 252.468613 
L 254.775772 252.760878 
L 255.361537 253.345408 
L 255.947302 251.811017 
L 256.533067 252.322481 
L 257.118833 252.030216 
L 257.704598 254.514467 
L 258.290363 253.418474 
L 258.876128 251.664885 
L 259.461894 248.66917 
L 260.047659 250.861156 
L 260.633424 251.884083 
L 261.21919 248.376905 
L 261.804955 247.353978 
L 262.39072 248.230773 
L 262.976485 247.427045 
L 263.562251 246.257985 
L 264.148016 246.915581 
L 265.319547 246.257985 
L 265.905312 244.869727 
L 266.491077 248.08464 
L 267.076842 247.646243 
L 267.662608 245.892654 
L 268.248373 245.600389 
L 268.834138 247.353978 
L 269.419903 243.919866 
L 270.005669 244.796661 
L 270.591434 245.161992 
L 271.177199 246.477184 
L 271.762965 249.765163 
L 272.34873 254.368335 
L 272.934495 253.053143 
L 274.106026 259.994433 
L 274.691791 262.624816 
L 275.277556 255.318195 
L 275.863321 251.591819 
L 276.449087 248.888369 
L 277.034852 247.500111 
L 277.620617 244.796661 
L 278.206383 244.504396 
L 278.792148 244.358264 
L 279.377913 242.677741 
L 279.963678 243.554535 
L 280.549444 244.139065 
L 281.135209 243.700668 
L 281.720974 243.992933 
L 282.892505 242.750807 
L 283.47827 242.458542 
L 284.064035 243.8468 
L 284.649801 243.773734 
L 285.235566 244.796661 
L 285.821331 246.915581 
L 286.407096 247.938508 
L 286.992862 248.376905 
L 287.578627 249.2537 
L 288.164392 246.257985 
L 288.750157 245.381191 
L 289.335923 246.257985 
L 289.921688 245.892654 
L 290.507453 244.212131 
L 291.093219 243.919866 
L 291.678984 244.869727 
L 292.264749 242.823873 
L 292.850514 243.919866 
L 293.43628 246.331051 
L 294.022045 245.161992 
L 294.60781 245.527323 
L 295.193575 245.673455 
L 295.779341 246.404118 
L 296.365106 247.646243 
L 296.950871 247.353978 
L 298.708167 245.381191 
L 299.293932 245.308124 
L 299.879698 246.915581 
L 300.465463 253.929937 
L 301.051228 256.121924 
L 302.222759 262.332551 
L 302.808524 265.2552 
L 303.394289 262.040287 
L 303.980055 256.487255 
L 304.56582 255.245129 
L 305.151585 250.641958 
L 305.73735 247.865442 
L 306.323116 248.961435 
L 306.908881 245.01586 
L 308.080412 246.257985 
L 308.666177 247.792376 
L 309.251942 248.157707 
L 309.837707 248.815303 
L 310.423473 248.815303 
L 311.009238 249.619031 
L 311.595003 249.692097 
L 312.180768 249.399832 
L 312.766534 247.353978 
L 313.938064 264.743736 
L 315.109595 261.090426 
L 315.69536 264.08614 
L 316.281125 262.624816 
L 316.866891 265.985862 
L 317.452656 267.593319 
L 318.038421 262.624816 
L 318.624186 260.652029 
L 319.209952 255.02593 
L 319.795717 251.591819 
L 320.967248 250.422759 
L 321.553013 250.203561 
L 322.138778 250.934223 
L 322.724543 249.838229 
L 323.310309 249.692097 
L 323.896074 251.226487 
L 324.481839 250.495825 
L 325.067604 251.226487 
L 325.65337 252.541679 
L 326.239135 250.203561 
L 326.8249 250.78809 
L 327.410666 261.01736 
L 327.996431 267.447186 
L 328.582196 267.301054 
L 329.167961 268.177848 
L 329.753727 267.91481 
L 330.339492 268.616246 
L 330.925257 268.966963 
L 331.511022 271.246629 
L 332.096788 265.693597 
L 332.682553 261.382691 
L 333.854084 253.856871 
L 335.025614 251.37262 
L 335.611379 252.687812 
L 336.197145 252.176348 
L 336.78291 252.176348 
L 337.95444 253.272341 
L 338.540206 253.345408 
L 339.125971 254.222202 
L 339.711736 256.341122 
L 340.883267 252.468613 
L 341.469032 262.259485 
L 342.054797 265.474398 
L 342.640563 269.566106 
L 343.226328 270.260235 
L 343.812093 265.766663 
L 344.397858 268.725845 
L 344.983624 267.739451 
L 345.569389 268.287448 
L 346.74092 267.812517 
L 347.91245 255.391261 
L 348.498215 254.660599 
L 349.083981 252.833944 
L 349.669746 253.126209 
L 350.255511 252.760878 
L 350.841277 251.591819 
L 351.427042 252.395547 
L 352.012807 252.833944 
L 352.598572 253.49154 
L 353.184338 251.007289 
L 353.770103 251.445686 
L 354.355868 251.153421 
L 354.941633 252.249414 
L 355.527399 258.021645 
L 356.113164 255.829659 
L 356.698929 252.103282 
L 357.284695 257.290983 
L 357.87046 257.583248 
L 358.456225 256.852586 
L 359.04199 257.305596 
L 359.627756 258.460042 
L 360.213521 257.364049 
L 360.799286 261.163492 
L 361.385051 259.702168 
L 361.970817 253.418474 
L 362.556582 251.226487 
L 363.142347 251.811017 
L 363.728113 256.19499 
L 364.313878 256.19499 
L 364.899643 250.78809 
L 365.485408 249.692097 
L 366.071174 251.007289 
L 366.656939 257.217917 
L 367.828469 242.166277 
L 368.414235 239.682026 
L 369 242.458542 
L 369.585765 245.819588 
L 370.757296 228.649028 
L 371.343061 225.653314 
L 371.928826 229.452757 
L 373.100357 238.07457 
L 373.686122 237.709239 
L 374.271887 238.001503 
L 374.857653 236.613245 
L 375.443418 232.302339 
L 376.029183 230.914081 
L 376.614949 230.621816 
L 377.200714 231.279412 
L 378.372244 234.055928 
L 378.95801 241.289483 
L 379.543775 239.535894 
L 380.12954 239.755092 
L 380.715305 237.563106 
L 381.886836 240.266556 
L 382.472601 238.439901 
L 383.058367 239.243629 
L 383.644132 254.149136 
L 384.229897 258.825373 
L 384.815662 248.523038 
L 385.401428 251.080355 
L 385.987193 257.875513 
L 386.572958 250.495825 
L 387.158723 249.911296 
L 387.744489 247.719309 
L 388.330254 251.226487 
L 388.916019 247.427045 
L 389.501785 240.266556 
L 390.08755 235.663385 
L 390.673315 234.20206 
L 391.25908 237.416974 
L 391.844846 235.005789 
L 392.430611 235.078855 
L 393.016376 236.686312 
L 393.602142 240.047357 
L 394.187907 237.343908 
L 394.773672 236.174848 
L 395.359437 236.978576 
L 395.945203 238.366834 
L 396.530968 237.416974 
L 397.116733 241.508681 
L 397.702498 247.500111 
L 398.288264 248.011574 
L 398.874029 252.322481 
L 399.459794 252.541679 
L 400.04556 251.811017 
L 400.631325 250.861156 
L 401.21709 254.441401 
L 401.802855 254.222202 
L 402.388621 248.62533 
L 420.547344 240.909539 
L 421.133109 240.412688 
L 421.718875 241.070284 
L 422.30464 242.239344 
L 422.890405 241.14335 
L 423.47617 241.800946 
L 424.061936 240.047357 
L 424.647701 240.631887 
L 425.819232 247.427045 
L 426.990762 259.336837 
L 427.576527 257.656314 
L 428.748058 264.159207 
L 429.333823 257.071784 
L 429.919588 252.90701 
L 431.091119 247.061713 
L 431.676884 247.061713 
L 432.26265 248.815303 
L 432.848415 244.577462 
L 433.43418 242.677741 
L 434.019945 243.335337 
L 434.605711 243.043072 
L 435.191476 243.189204 
L 435.777241 243.8468 
L 436.363007 245.381191 
L 436.948772 244.43133 
L 437.534537 243.919866 
L 438.120302 244.577462 
L 438.706068 243.481469 
L 439.877598 248.66917 
L 441.049129 254.149136 
L 441.634894 252.687812 
L 442.220659 252.249414 
L 442.806425 250.641958 
L 443.39219 249.692097 
L 443.977955 246.477184 
L 444.56372 244.139065 
L 445.735251 242.166277 
L 446.321016 242.750807 
L 446.906781 242.458542 
L 447.492547 245.088926 
L 448.078312 242.531608 
L 448.664077 240.924152 
L 449.249843 242.750807 
L 449.835608 242.677741 
L 450.421373 244.065999 
L 451.007138 243.919866 
L 451.592904 244.723595 
L 452.178669 243.919866 
L 452.764434 245.161992 
L 453.350199 244.504396 
L 454.52173 267.227988 
L 455.693261 255.098997 
L 456.279026 252.030216 
L 456.864791 250.934223 
L 457.450556 248.230773 
L 458.036322 247.207846 
L 458.622087 244.285197 
L 459.207852 245.088926 
L 459.793617 244.942793 
L 460.379383 240.997218 
L 460.965148 243.773734 
L 461.550913 247.573177 
L 462.136679 245.161992 
L 462.722444 247.353978 
L 463.308209 247.13478 
L 463.893974 247.500111 
L 464.47974 246.477184 
L 465.065505 247.061713 
L 465.65127 243.773734 
L 466.237035 246.404118 
L 466.822801 245.96572 
L 467.408566 243.043072 
L 468.580097 255.464328 
L 469.165862 255.464328 
L 469.751627 254.003003 
L 470.337392 256.560321 
L 470.923158 255.537394 
L 471.508923 261.163492 
L 472.680453 252.541679 
L 473.266219 246.331051 
L 473.851984 244.869727 
L 474.437749 244.285197 
L 475.023515 244.650529 
L 475.60928 246.257985 
L 476.195045 245.088926 
L 476.78081 245.308124 
L 477.366576 245.892654 
L 477.952341 244.358264 
L 478.538106 245.96572 
L 479.123872 246.404118 
L 479.709637 246.477184 
L 480.295402 246.257985 
L 480.881167 246.404118 
L 481.466933 245.673455 
L 482.052698 244.650529 
L 482.638463 244.869727 
L 483.224228 245.527323 
L 483.809994 247.207846 
L 484.395759 245.454257 
L 484.981524 244.43133 
L 486.153055 238.366834 
L 486.73882 237.855371 
L 487.324585 240.924152 
L 487.910351 232.66767 
L 488.496116 209.944079 
L 489.081881 193.650314 
L 489.667646 188.097282 
L 490.253412 189.777805 
L 490.839177 195.476969 
L 491.424942 202.272127 
L 492.010708 205.194775 
L 492.596473 204.829444 
L 493.182238 206.583033 
L 494.353769 201.979862 
L 494.939534 200.591604 
L 496.111064 196.353764 
L 496.69683 197.522823 
L 497.282595 197.595889 
L 498.454126 193.211917 
L 499.039891 194.819373 
L 499.625656 197.37669 
L 500.797187 198.838015 
L 501.382952 197.157492 
L 501.968717 198.764948 
L 502.554482 198.618816 
L 503.140248 196.42683 
L 503.726013 193.211917 
L 504.311778 186.19756 
L 504.897544 169.173133 
L 506.654839 103.632743 
L 507.82637 86.169918 
L 508.412135 84.124065 
L 508.9979 84.270197 
L 509.583666 83.101138 
L 510.169431 87.850441 
L 510.755196 88.288839 
L 511.926727 101.586889 
L 512.512492 106.116994 
L 513.098257 103.998074 
L 513.684023 105.313266 
L 514.269788 104.65567 
L 514.855553 107.066855 
L 515.441318 105.970861 
L 516.027084 106.409259 
L 516.612849 107.870583 
L 517.198614 109.989503 
L 517.78438 113.350549 
L 518.370145 114.446542 
L 518.95591 117.515323 
L 520.127441 118.611316 
L 521.298971 122.045428 
L 521.884737 122.703024 
L 523.056267 126.4294 
L 524.227798 128.109923 
L 524.813563 132.786161 
L 525.399328 131.470969 
L 525.985093 133.662955 
L 526.570859 135.416544 
L 527.156624 136.731736 
L 528.328155 140.165848 
L 528.91392 135.635743 
L 529.499685 136.220272 
L 530.08545 137.389332 
L 530.671216 136.220272 
L 531.256981 138.704524 
L 532.428511 135.928008 
L 533.014277 136.439471 
L 533.600042 137.60853 
L 534.771573 135.051213 
L 535.357338 132.932293 
L 535.943103 134.905081 
L 536.528868 134.612816 
L 537.114634 135.343478 
L 537.700399 135.781875 
L 538.286164 139.946649 
L 539.457695 143.819158 
L 540.04346 146.961005 
L 540.629225 148.42233 
L 541.214991 146.011145 
L 541.800756 142.065569 
L 542.386521 140.531179 
L 542.972286 139.727451 
L 543.558052 141.334907 
L 544.143817 138.19306 
L 544.729582 140.31198 
L 545.315347 141.407973 
L 545.901113 139.36212 
L 546.486878 140.823444 
L 547.072643 141.042642 
L 547.658409 141.554106 
L 548.244174 141.554106 
L 548.829939 143.088496 
L 549.415704 143.59996 
L 550.587235 143.746092 
L 551.173 139.946649 
L 551.758765 139.800517 
L 552.344531 151.125779 
L 552.930296 154.559891 
L 554.101827 149.152992 
L 554.687592 149.737521 
L 555.273357 143.526894 
L 555.859122 149.591389 
L 556.444888 150.614316 
L 557.030653 147.764734 
L 557.616418 150.54125 
L 558.202183 144.330622 
L 558.787949 142.503967 
L 559.373714 139.36212 
L 559.959479 141.261841 
L 562.30254 143.088496 
L 562.888306 144.622887 
L 563.474071 144.184489 
L 564.059836 143.088496 
L 564.645602 143.892225 
L 565.231367 142.284768 
L 565.817132 144.476754 
L 566.402897 145.13435 
L 567.574428 148.130065 
L 568.160193 148.495396 
L 568.745958 147.25327 
L 569.331724 150.175919 
L 569.917489 143.088496 
L 570.503254 141.115709 
L 571.08902 141.48104 
L 571.674785 139.289053 
L 572.26055 126.356334 
L 572.846315 116.857727 
L 573.432081 114.519608 
L 574.017846 116.857727 
L 575.775142 126.064069 
L 576.360907 127.817658 
L 576.946672 129.205916 
L 577.532438 129.13285 
L 578.118203 129.863512 
L 578.703968 130.374976 
L 579.289733 132.640028 
L 579.875499 131.25177 
L 580.461264 131.690167 
L 581.047029 131.690167 
L 581.632794 134.978147 
L 582.21856 135.635743 
L 582.804325 135.051213 
L 583.39009 138.046928 
L 583.975856 136.585604 
L 584.561621 140.604245 
L 585.147386 138.412259 
L 585.733151 138.412259 
L 586.904682 138.19306 
L 587.490447 140.458113 
L 588.076212 138.704524 
L 588.661978 138.558391 
L 589.833508 139.142921 
L 590.419274 139.946649 
L 591.005039 144.988218 
L 592.176569 138.19306 
L 592.762335 140.092782 
L 593.3481 143.526894 
L 593.933865 144.330622 
L 594.51963 144.038357 
L 595.105396 153.536964 
L 595.691161 158.651599 
L 596.276926 159.089996 
L 596.862692 162.670241 
L 597.448457 161.574247 
L 598.034222 155.802017 
L 598.619987 148.276197 
L 599.205753 147.034072 
L 599.791518 147.8378 
L 600.963048 140.604245 
L 601.548814 144.038357 
L 602.134579 142.284768 
L 602.720344 142.211702 
L 603.30611 143.453827 
L 603.891875 143.453827 
L 604.47764 143.161562 
L 605.063405 144.038357 
L 605.649171 143.673026 
L 606.234936 143.59996 
L 606.820701 144.476754 
L 607.406467 143.965291 
L 607.992232 145.499681 
L 608.577997 148.714594 
L 609.163762 150.395117 
L 609.749528 154.267626 
L 610.335293 161.501181 
L 610.921058 161.647314 
L 611.506823 166.54275 
L 612.092589 167.784875 
L 612.678354 168.588604 
L 613.264119 162.158777 
L 613.849885 160.551321 
L 614.43565 154.340693 
L 615.021415 152.002574 
L 615.60718 152.66017 
L 616.192946 151.418044 
L 616.778711 151.564177 
L 617.364476 151.49111 
L 617.950241 152.002574 
L 618.536007 150.760448 
L 619.121772 152.879368 
L 619.707537 152.07564 
L 620.293303 152.148706 
L 620.879068 151.418044 
L 621.464833 151.564177 
L 622.050598 149.079925 
L 622.636364 154.983675 
L 622.636364 154.983675 
" clip-path="url(#p2ff3c065d7)" style="fill: none; stroke: #1f77b4; stroke-width: 1.5; stroke-linecap: square"/>
   </g>
   <g id="line2d_18">
    <path d="M 115.363636 237.49004 
L 115.949402 237.067452 
L 117.120932 237.023465 
L 120.049759 237.229655 
L 121.221289 236.60447 
L 127.078942 237.142208 
L 128.836238 237.301117 
L 129.422003 243.8468 
L 142.894604 244.839557 
L 143.48037 249.765163 
L 152.852614 252.216113 
L 156.952971 253.217764 
L 157.538736 248.449971 
L 158.124501 249.588637 
L 158.710267 251.20162 
L 159.296032 248.753036 
L 159.881797 245.640947 
L 160.467562 244.628113 
L 161.639093 243.711223 
L 162.224858 243.89969 
L 162.810624 243.633223 
L 163.396389 245.766652 
L 163.982154 245.304529 
L 164.567919 242.26907 
L 165.73945 241.734221 
L 166.91098 241.998018 
L 171.011337 243.397017 
L 171.597103 248.888369 
L 187.412765 249.866668 
L 187.99853 250.532358 
L 188.584296 250.566982 
L 189.170061 267.82713 
L 199.713836 268.019886 
L 200.299601 254.149136 
L 227.244804 255.471613 
L 227.830569 257.656314 
L 232.516691 257.754764 
L 233.102456 258.248892 
L 233.688222 255.283813 
L 234.273987 253.983436 
L 234.859752 258.275127 
L 235.445518 259.530473 
L 236.031283 258.744837 
L 237.202813 258.103666 
L 239.545874 258.129009 
L 241.30317 258.204091 
L 241.888936 255.201289 
L 244.231997 255.340589 
L 245.989292 254.5734 
L 246.575058 254.809785 
L 247.160823 251.128319 
L 248.332354 258.199934 
L 248.918119 255.438762 
L 249.503884 255.819172 
L 250.089649 255.236648 
L 253.018476 255.369638 
L 253.604241 253.023244 
L 254.190006 252.739742 
L 254.775772 255.44876 
L 255.361537 255.963784 
L 255.947302 256.243475 
L 256.533067 256.039993 
L 257.118833 255.593772 
L 257.704598 255.570238 
L 258.290363 251.694111 
L 258.876128 251.435851 
L 259.461894 250.916099 
L 260.047659 250.77106 
L 261.21919 250.905569 
L 263.562251 250.996567 
L 269.419903 251.334086 
L 270.005669 244.942793 
L 297.536637 246.869842 
L 298.122402 247.748536 
L 325.65337 249.469174 
L 326.239135 249.940522 
L 339.711736 250.74338 
L 340.297502 253.272341 
L 354.941633 254.109032 
L 359.627756 255.226956 
L 360.213521 255.054358 
L 360.799286 256.365382 
L 361.385051 251.753172 
L 361.970817 251.82011 
L 362.556582 255.985855 
L 363.142347 247.204347 
L 363.728113 245.628367 
L 364.313878 246.032891 
L 364.899643 242.644197 
L 365.485408 234.157163 
L 366.071174 229.403807 
L 366.656939 221.481882 
L 367.828469 215.429711 
L 368.414235 258.007032 
L 369 254.070453 
L 369.585765 251.312379 
L 370.171531 247.992324 
L 370.757296 246.639918 
L 371.343061 245.893632 
L 371.928826 242.99712 
L 372.514592 233.464615 
L 373.100357 231.906186 
L 373.686122 235.080351 
L 374.271887 230.809563 
L 374.857653 227.554829 
L 375.443418 225.323786 
L 376.029183 225.008627 
L 376.614949 225.013675 
L 377.200714 225.418754 
L 377.786479 224.740562 
L 378.372244 225.012396 
L 378.95801 225.777809 
L 379.543775 225.152095 
L 380.12954 225.074818 
L 380.715305 225.205327 
L 381.886836 225.745681 
L 382.472601 237.577719 
L 387.158723 238.039389 
L 388.330254 237.31678 
L 391.844846 237.640077 
L 394.187907 237.772743 
L 394.773672 237.694424 
L 395.359437 237.835758 
L 395.945203 238.683321 
L 396.530968 236.262528 
L 398.288264 236.457974 
L 398.874029 236.234343 
L 400.631325 236.280301 
L 401.802855 236.083685 
L 402.388621 235.368284 
L 423.47617 236.661455 
L 438.120302 237.982118 
L 438.706068 244.416717 
L 439.291833 244.619929 
L 439.877598 244.34576 
L 440.463363 244.275064 
L 441.049129 244.618841 
L 442.806425 244.437269 
L 443.39219 244.493692 
L 443.977955 244.319786 
L 444.56372 243.587377 
L 445.149486 242.49841 
L 445.735251 242.991846 
L 446.321016 243.850289 
L 448.664077 242.863257 
L 449.249843 242.778008 
L 452.178669 242.998228 
L 452.764434 244.153678 
L 466.237035 245.136872 
L 466.822801 247.573177 
L 477.366576 248.294396 
L 478.538106 247.745879 
L 479.123872 247.8206 
L 479.709637 247.75752 
L 480.295402 248.038634 
L 480.881167 246.345665 
L 481.466933 246.562336 
L 482.052698 247.006069 
L 482.638463 246.540446 
L 483.224228 244.036203 
L 483.809994 243.077335 
L 484.395759 243.374263 
L 485.56729 241.527026 
L 486.153055 240.344085 
L 489.667646 240.542614 
L 494.353769 240.927638 
L 494.939534 203.996489 
L 495.525299 204.503096 
L 496.111064 203.623702 
L 496.69683 203.071768 
L 497.86836 203.17286 
L 498.454126 203.684686 
L 499.039891 203.684508 
L 499.625656 203.566899 
L 503.140248 204.118081 
L 508.412135 204.99941 
L 508.9979 96.150763 
L 513.684023 98.065349 
L 514.269788 98.554697 
L 514.855553 97.321687 
L 515.441318 97.577427 
L 516.027084 98.766767 
L 516.612849 98.978568 
L 517.198614 100.268704 
L 517.78438 100.314261 
L 518.370145 100.135626 
L 520.713206 101.016933 
L 522.470502 101.736271 
L 523.056267 121.840842 
L 536.528868 126.635677 
L 537.114634 132.274697 
L 550.587235 136.744381 
L 551.173 143.497667 
L 559.373714 147.524197 
L 561.716775 147.843469 
L 562.30254 146.295019 
L 562.888306 143.127588 
L 563.474071 141.396822 
L 564.059836 140.835117 
L 564.645602 138.938787 
L 565.231367 144.199103 
L 566.402897 142.418996 
L 567.574428 141.891967 
L 568.160193 137.217186 
L 568.745958 130.157798 
L 569.917489 124.554982 
L 570.503254 121.53827 
L 571.08902 120.310341 
L 571.674785 117.062529 
L 572.26055 105.595582 
L 572.846315 91.742146 
L 574.017846 72.82207 
L 574.603611 64.780666 
L 575.189376 59.454971 
L 575.775142 59.00162 
L 576.360907 59.642428 
L 576.946672 58.020594 
L 577.532438 55.219127 
L 578.118203 54.327273 
L 578.703968 54.537811 
L 579.289733 129.030557 
L 580.461264 122.953047 
L 581.047029 122.112353 
L 582.804325 122.676291 
L 588.661978 125.979164 
L 592.762335 128.261758 
L 593.3481 142.182475 
L 597.448457 144.179152 
L 598.034222 144.652277 
L 598.619987 143.646724 
L 599.791518 139.023154 
L 600.377283 137.86684 
L 600.963048 137.460215 
L 601.548814 136.804707 
L 602.134579 137.190335 
L 603.30611 137.68071 
L 606.820701 139.478199 
L 607.406467 143.585346 
L 620.879068 147.178513 
L 621.464833 151.739536 
L 622.636364 152.036353 
L 622.636364 152.036353 
" clip-path="url(#p2ff3c065d7)" style="fill: none; stroke: #ff7f0e; stroke-width: 1.5; stroke-linecap: square"/>
   </g>
   <g id="patch_3">
    <path d="M 90 288 
L 90 43.2 
" style="fill: none; stroke: #000000; stroke-width: 0.8; stroke-linejoin: miter; stroke-linecap: square"/>
   </g>
   <g id="patch_4">
    <path d="M 648 288 
L 648 43.2 
" style="fill: none; stroke: #000000; stroke-width: 0.8; stroke-linejoin: miter; stroke-linecap: square"/>
   </g>
   <g id="patch_5">
    <path d="M 90 288 
L 648 288 
" style="fill: none; stroke: #000000; stroke-width: 0.8; stroke-linejoin: miter; stroke-linecap: square"/>
   </g>
   <g id="patch_6">
    <path d="M 90 43.2 
L 648 43.2 
" style="fill: none; stroke: #000000; stroke-width: 0.8; stroke-linejoin: miter; stroke-linecap: square"/>
   </g>
   <g id="text_18">
    <!-- MDOT4240 -->
    <g transform="translate(335.545313 37.2) scale(0.12 -0.12)">
     <defs>
      <path id="DejaVuSans-44" d="M 1259 4147 
L 1259 519 
L 2022 519 
Q 2988 519 3436 956 
Q 3884 1394 3884 2338 
Q 3884 3275 3436 3711 
Q 2988 4147 2022 4147 
L 1259 4147 
z
M 628 4666 
L 1925 4666 
Q 3281 4666 3915 4102 
Q 4550 3538 4550 2338 
Q 4550 1131 3912 565 
Q 3275 0 1925 0 
L 628 0 
L 628 4666 
z
" transform="scale(0.015625)"/>
      <path id="DejaVuSans-4f" d="M 2522 4238 
Q 1834 4238 1429 3725 
Q 1025 3213 1025 2328 
Q 1025 1447 1429 934 
Q 1834 422 2522 422 
Q 3209 422 3611 934 
Q 4013 1447 4013 2328 
Q 4013 3213 3611 3725 
Q 3209 4238 2522 4238 
z
M 2522 4750 
Q 3503 4750 4090 4092 
Q 4678 3434 4678 2328 
Q 4678 1225 4090 567 
Q 3503 -91 2522 -91 
Q 1538 -91 948 565 
Q 359 1222 359 2328 
Q 359 3434 948 4092 
Q 1538 4750 2522 4750 
z
" transform="scale(0.015625)"/>
      <path id="DejaVuSans-54" d="M -19 4666 
L 3928 4666 
L 3928 4134 
L 2272 4134 
L 2272 0 
L 1638 0 
L 1638 4134 
L -19 4134 
L -19 4666 
z
" transform="scale(0.015625)"/>
     </defs>
     <use xlink:href="#DejaVuSans-4d"/>
     <use xlink:href="#DejaVuSans-44" x="86.279297"/>
     <use xlink:href="#DejaVuSans-4f" x="163.28125"/>
     <use xlink:href="#DejaVuSans-54" x="241.992188"/>
     <use xlink:href="#DejaVuSans-34" x="303.076172"/>
     <use xlink:href="#DejaVuSans-32" x="366.699219"/>
     <use xlink:href="#DejaVuSans-34" x="430.322266"/>
     <use xlink:href="#DejaVuSans-30" x="493.945312"/>
    </g>
   </g>
   <g id="legend_1">
    <g id="patch_7">
     <path d="M 97 80.55625 
L 178.95625 80.55625 
Q 180.95625 80.55625 180.95625 78.55625 
L 180.95625 50.2 
Q 180.95625 48.2 178.95625 48.2 
L 97 48.2 
Q 95 48.2 95 50.2 
L 95 78.55625 
Q 95 80.55625 97 80.55625 
z
" style="fill: #ffffff; opacity: 0.8; stroke: #cccccc; stroke-linejoin: miter"/>
    </g>
    <g id="line2d_19">
     <path d="M 99 56.298437 
L 109 56.298437 
L 119 56.298437 
" style="fill: none; stroke: #1f77b4; stroke-width: 1.5; stroke-linecap: square"/>
    </g>
    <g id="text_19">
     <!-- measured -->
     <g transform="translate(127 59.798437) scale(0.1 -0.1)">
      <defs>
       <path id="DejaVuSans-6d" d="M 3328 2828 
Q 3544 3216 3844 3400 
Q 4144 3584 4550 3584 
Q 5097 3584 5394 3201 
Q 5691 2819 5691 2113 
L 5691 0 
L 5113 0 
L 5113 2094 
Q 5113 2597 4934 2840 
Q 4756 3084 4391 3084 
Q 3944 3084 3684 2787 
Q 3425 2491 3425 1978 
L 3425 0 
L 2847 0 
L 2847 2094 
Q 2847 2600 2669 2842 
Q 2491 3084 2119 3084 
Q 1678 3084 1418 2786 
Q 1159 2488 1159 1978 
L 1159 0 
L 581 0 
L 581 3500 
L 1159 3500 
L 1159 2956 
Q 1356 3278 1631 3431 
Q 1906 3584 2284 3584 
Q 2666 3584 2933 3390 
Q 3200 3197 3328 2828 
z
" transform="scale(0.015625)"/>
       <path id="DejaVuSans-61" d="M 2194 1759 
Q 1497 1759 1228 1600 
Q 959 1441 959 1056 
Q 959 750 1161 570 
Q 1363 391 1709 391 
Q 2188 391 2477 730 
Q 2766 1069 2766 1631 
L 2766 1759 
L 2194 1759 
z
M 3341 1997 
L 3341 0 
L 2766 0 
L 2766 531 
Q 2569 213 2275 61 
Q 1981 -91 1556 -91 
Q 1019 -91 701 211 
Q 384 513 384 1019 
Q 384 1609 779 1909 
Q 1175 2209 1959 2209 
L 2766 2209 
L 2766 2266 
Q 2766 2663 2505 2880 
Q 2244 3097 1772 3097 
Q 1472 3097 1187 3025 
Q 903 2953 641 2809 
L 641 3341 
Q 956 3463 1253 3523 
Q 1550 3584 1831 3584 
Q 2591 3584 2966 3190 
Q 3341 2797 3341 1997 
z
" transform="scale(0.015625)"/>
       <path id="DejaVuSans-75" d="M 544 1381 
L 544 3500 
L 1119 3500 
L 1119 1403 
Q 1119 906 1312 657 
Q 1506 409 1894 409 
Q 2359 409 2629 706 
Q 2900 1003 2900 1516 
L 2900 3500 
L 3475 3500 
L 3475 0 
L 2900 0 
L 2900 538 
Q 2691 219 2414 64 
Q 2138 -91 1772 -91 
Q 1169 -91 856 284 
Q 544 659 544 1381 
z
M 1991 3584 
L 1991 3584 
z
" transform="scale(0.015625)"/>
       <path id="DejaVuSans-64" d="M 2906 2969 
L 2906 4863 
L 3481 4863 
L 3481 0 
L 2906 0 
L 2906 525 
Q 2725 213 2448 61 
Q 2172 -91 1784 -91 
Q 1150 -91 751 415 
Q 353 922 353 1747 
Q 353 2572 751 3078 
Q 1150 3584 1784 3584 
Q 2172 3584 2448 3432 
Q 2725 3281 2906 2969 
z
M 947 1747 
Q 947 1113 1208 752 
Q 1469 391 1925 391 
Q 2381 391 2643 752 
Q 2906 1113 2906 1747 
Q 2906 2381 2643 2742 
Q 2381 3103 1925 3103 
Q 1469 3103 1208 2742 
Q 947 2381 947 1747 
z
" transform="scale(0.015625)"/>
      </defs>
      <use xlink:href="#DejaVuSans-6d"/>
      <use xlink:href="#DejaVuSans-65" x="97.412109"/>
      <use xlink:href="#DejaVuSans-61" x="158.935547"/>
      <use xlink:href="#DejaVuSans-73" x="220.214844"/>
      <use xlink:href="#DejaVuSans-75" x="272.314453"/>
      <use xlink:href="#DejaVuSans-72" x="335.693359"/>
      <use xlink:href="#DejaVuSans-65" x="374.556641"/>
      <use xlink:href="#DejaVuSans-64" x="436.080078"/>
     </g>
    </g>
    <g id="line2d_20">
     <path d="M 99 70.976562 
L 109 70.976562 
L 119 70.976562 
" style="fill: none; stroke: #ff7f0e; stroke-width: 1.5; stroke-linecap: square"/>
    </g>
    <g id="text_20">
     <!-- predicted -->
     <g transform="translate(127 74.476562) scale(0.1 -0.1)">
      <defs>
       <path id="DejaVuSans-70" d="M 1159 525 
L 1159 -1331 
L 581 -1331 
L 581 3500 
L 1159 3500 
L 1159 2969 
Q 1341 3281 1617 3432 
Q 1894 3584 2278 3584 
Q 2916 3584 3314 3078 
Q 3713 2572 3713 1747 
Q 3713 922 3314 415 
Q 2916 -91 2278 -91 
Q 1894 -91 1617 61 
Q 1341 213 1159 525 
z
M 3116 1747 
Q 3116 2381 2855 2742 
Q 2594 3103 2138 3103 
Q 1681 3103 1420 2742 
Q 1159 2381 1159 1747 
Q 1159 1113 1420 752 
Q 1681 391 2138 391 
Q 2594 391 2855 752 
Q 3116 1113 3116 1747 
z
" transform="scale(0.015625)"/>
       <path id="DejaVuSans-69" d="M 603 3500 
L 1178 3500 
L 1178 0 
L 603 0 
L 603 3500 
z
M 603 4863 
L 1178 4863 
L 1178 4134 
L 603 4134 
L 603 4863 
z
" transform="scale(0.015625)"/>
       <path id="DejaVuSans-63" d="M 3122 3366 
L 3122 2828 
Q 2878 2963 2633 3030 
Q 2388 3097 2138 3097 
Q 1578 3097 1268 2742 
Q 959 2388 959 1747 
Q 959 1106 1268 751 
Q 1578 397 2138 397 
Q 2388 397 2633 464 
Q 2878 531 3122 666 
L 3122 134 
Q 2881 22 2623 -34 
Q 2366 -91 2075 -91 
Q 1284 -91 818 406 
Q 353 903 353 1747 
Q 353 2603 823 3093 
Q 1294 3584 2113 3584 
Q 2378 3584 2631 3529 
Q 2884 3475 3122 3366 
z
" transform="scale(0.015625)"/>
      </defs>
      <use xlink:href="#DejaVuSans-70"/>
      <use xlink:href="#DejaVuSans-72" x="63.476562"/>
      <use xlink:href="#DejaVuSans-65" x="102.339844"/>
      <use xlink:href="#DejaVuSans-64" x="163.863281"/>
      <use xlink:href="#DejaVuSans-69" x="227.339844"/>
      <use xlink:href="#DejaVuSans-63" x="255.123047"/>
      <use xlink:href="#DejaVuSans-74" x="310.103516"/>
      <use xlink:href="#DejaVuSans-65" x="349.3125"/>
      <use xlink:href="#DejaVuSans-64" x="410.835938"/>
     </g>
    </g>
   </g>
  </g>
 </g>
 <defs>
  <clipPath id="p2ff3c065d7">
   <rect x="90" y="43.2" width="558" height="244.8"/>
  </clipPath>
 </defs>
</svg>
