<?xml version="1.0" encoding="utf-8" standalone="no"?>
<!DOCTYPE svg PUBLIC "-//W3C//DTD SVG 1.1//EN"
  "http://www.w3.org/Graphics/SVG/1.1/DTD/svg11.dtd">
<svg xmlns:xlink="http://www.w3.org/1999/xlink" width="720pt" height="360pt" viewBox="0 0 720 360" xmlns="http://www.w3.org/2000/svg" version="1.1">
 <metadata>
  <rdf:RDF xmlns:dc="http://purl.org/dc/elements/1.1/" xmlns:cc="http://creativecommons.org/ns#" xmlns:rdf="http://www.w3.org/1999/02/22-rdf-syntax-ns#">
   <cc:Work>
    <dc:type rdf:resource="http://purl.org/dc/dcmitype/StillImage"/>
    <dc:date>2023-10-23T10:55:10.472578</dc:date>
    <dc:format>image/svg+xml</dc:format>
    <dc:creator>
     <cc:Agent>
      <dc:title>Matplotlib v3.7.1, https://matplotlib.org/</dc:title>
     </cc:Agent>
    </dc:creator>
   </cc:Work>
  </rdf:RDF>
 </metadata>
 <defs>
  <style type="text/css">*{stroke-linejoin: round; stroke-linecap: butt}</style>
 </defs>
 <g id="figure_1">
  <g id="patch_1">
   <path d="M 0 360 
L 720 360 
L 720 0 
L 0 0 
z
" style="fill: #ffffff"/>
  </g>
  <g id="axes_1">
   <g id="patch_2">
    <path d="M 90 288 
L 648 288 
L 648 43.2 
L 90 43.2 
z
" style="fill: #ffffff"/>
   </g>
   <g id="matplotlib.axis_1">
    <g id="xtick_1">
     <g id="line2d_1">
      <defs>
       <path id="mca81d56863" d="M 0 0 
L 0 3.5 
" style="stroke: #000000; stroke-width: 0.8"/>
      </defs>
      <g>
       <use xlink:href="#mca81d56863" x="108.334453" y="288" style="stroke: #000000; stroke-width: 0.8"/>
      </g>
     </g>
     <g id="text_1">
      <!-- 2023-09-17 -->
      <g transform="translate(46.691111 337.765903) rotate(-30) scale(0.12 -0.12)">
       <defs>
        <path id="DejaVuSans-32" d="M 1228 531 
L 3431 531 
L 3431 0 
L 469 0 
L 469 531 
Q 828 903 1448 1529 
Q 2069 2156 2228 2338 
Q 2531 2678 2651 2914 
Q 2772 3150 2772 3378 
Q 2772 3750 2511 3984 
Q 2250 4219 1831 4219 
Q 1534 4219 1204 4116 
Q 875 4013 500 3803 
L 500 4441 
Q 881 4594 1212 4672 
Q 1544 4750 1819 4750 
Q 2544 4750 2975 4387 
Q 3406 4025 3406 3419 
Q 3406 3131 3298 2873 
Q 3191 2616 2906 2266 
Q 2828 2175 2409 1742 
Q 1991 1309 1228 531 
z
" transform="scale(0.015625)"/>
        <path id="DejaVuSans-30" d="M 2034 4250 
Q 1547 4250 1301 3770 
Q 1056 3291 1056 2328 
Q 1056 1369 1301 889 
Q 1547 409 2034 409 
Q 2525 409 2770 889 
Q 3016 1369 3016 2328 
Q 3016 3291 2770 3770 
Q 2525 4250 2034 4250 
z
M 2034 4750 
Q 2819 4750 3233 4129 
Q 3647 3509 3647 2328 
Q 3647 1150 3233 529 
Q 2819 -91 2034 -91 
Q 1250 -91 836 529 
Q 422 1150 422 2328 
Q 422 3509 836 4129 
Q 1250 4750 2034 4750 
z
" transform="scale(0.015625)"/>
        <path id="DejaVuSans-33" d="M 2597 2516 
Q 3050 2419 3304 2112 
Q 3559 1806 3559 1356 
Q 3559 666 3084 287 
Q 2609 -91 1734 -91 
Q 1441 -91 1130 -33 
Q 819 25 488 141 
L 488 750 
Q 750 597 1062 519 
Q 1375 441 1716 441 
Q 2309 441 2620 675 
Q 2931 909 2931 1356 
Q 2931 1769 2642 2001 
Q 2353 2234 1838 2234 
L 1294 2234 
L 1294 2753 
L 1863 2753 
Q 2328 2753 2575 2939 
Q 2822 3125 2822 3475 
Q 2822 3834 2567 4026 
Q 2313 4219 1838 4219 
Q 1578 4219 1281 4162 
Q 984 4106 628 3988 
L 628 4550 
Q 988 4650 1302 4700 
Q 1616 4750 1894 4750 
Q 2613 4750 3031 4423 
Q 3450 4097 3450 3541 
Q 3450 3153 3228 2886 
Q 3006 2619 2597 2516 
z
" transform="scale(0.015625)"/>
        <path id="DejaVuSans-2d" d="M 313 2009 
L 1997 2009 
L 1997 1497 
L 313 1497 
L 313 2009 
z
" transform="scale(0.015625)"/>
        <path id="DejaVuSans-39" d="M 703 97 
L 703 672 
Q 941 559 1184 500 
Q 1428 441 1663 441 
Q 2288 441 2617 861 
Q 2947 1281 2994 2138 
Q 2813 1869 2534 1725 
Q 2256 1581 1919 1581 
Q 1219 1581 811 2004 
Q 403 2428 403 3163 
Q 403 3881 828 4315 
Q 1253 4750 1959 4750 
Q 2769 4750 3195 4129 
Q 3622 3509 3622 2328 
Q 3622 1225 3098 567 
Q 2575 -91 1691 -91 
Q 1453 -91 1209 -44 
Q 966 3 703 97 
z
M 1959 2075 
Q 2384 2075 2632 2365 
Q 2881 2656 2881 3163 
Q 2881 3666 2632 3958 
Q 2384 4250 1959 4250 
Q 1534 4250 1286 3958 
Q 1038 3666 1038 3163 
Q 1038 2656 1286 2365 
Q 1534 2075 1959 2075 
z
" transform="scale(0.015625)"/>
        <path id="DejaVuSans-31" d="M 794 531 
L 1825 531 
L 1825 4091 
L 703 3866 
L 703 4441 
L 1819 4666 
L 2450 4666 
L 2450 531 
L 3481 531 
L 3481 0 
L 794 0 
L 794 531 
z
" transform="scale(0.015625)"/>
        <path id="DejaVuSans-37" d="M 525 4666 
L 3525 4666 
L 3525 4397 
L 1831 0 
L 1172 0 
L 2766 4134 
L 525 4134 
L 525 4666 
z
" transform="scale(0.015625)"/>
       </defs>
       <use xlink:href="#DejaVuSans-32"/>
       <use xlink:href="#DejaVuSans-30" x="63.623047"/>
       <use xlink:href="#DejaVuSans-32" x="127.246094"/>
       <use xlink:href="#DejaVuSans-33" x="190.869141"/>
       <use xlink:href="#DejaVuSans-2d" x="254.492188"/>
       <use xlink:href="#DejaVuSans-30" x="290.576172"/>
       <use xlink:href="#DejaVuSans-39" x="354.199219"/>
       <use xlink:href="#DejaVuSans-2d" x="417.822266"/>
       <use xlink:href="#DejaVuSans-31" x="453.90625"/>
       <use xlink:href="#DejaVuSans-37" x="517.529297"/>
      </g>
     </g>
    </g>
    <g id="xtick_2">
     <g id="line2d_2">
      <g>
       <use xlink:href="#mca81d56863" x="164.567919" y="288" style="stroke: #000000; stroke-width: 0.8"/>
      </g>
     </g>
     <g id="text_2">
      <!-- 2023-09-21 -->
      <g transform="translate(102.924578 337.765903) rotate(-30) scale(0.12 -0.12)">
       <use xlink:href="#DejaVuSans-32"/>
       <use xlink:href="#DejaVuSans-30" x="63.623047"/>
       <use xlink:href="#DejaVuSans-32" x="127.246094"/>
       <use xlink:href="#DejaVuSans-33" x="190.869141"/>
       <use xlink:href="#DejaVuSans-2d" x="254.492188"/>
       <use xlink:href="#DejaVuSans-30" x="290.576172"/>
       <use xlink:href="#DejaVuSans-39" x="354.199219"/>
       <use xlink:href="#DejaVuSans-2d" x="417.822266"/>
       <use xlink:href="#DejaVuSans-32" x="453.90625"/>
       <use xlink:href="#DejaVuSans-31" x="517.529297"/>
      </g>
     </g>
    </g>
    <g id="xtick_3">
     <g id="line2d_3">
      <g>
       <use xlink:href="#mca81d56863" x="220.801386" y="288" style="stroke: #000000; stroke-width: 0.8"/>
      </g>
     </g>
     <g id="text_3">
      <!-- 2023-09-25 -->
      <g transform="translate(159.158044 337.765903) rotate(-30) scale(0.12 -0.12)">
       <defs>
        <path id="DejaVuSans-35" d="M 691 4666 
L 3169 4666 
L 3169 4134 
L 1269 4134 
L 1269 2991 
Q 1406 3038 1543 3061 
Q 1681 3084 1819 3084 
Q 2600 3084 3056 2656 
Q 3513 2228 3513 1497 
Q 3513 744 3044 326 
Q 2575 -91 1722 -91 
Q 1428 -91 1123 -41 
Q 819 9 494 109 
L 494 744 
Q 775 591 1075 516 
Q 1375 441 1709 441 
Q 2250 441 2565 725 
Q 2881 1009 2881 1497 
Q 2881 1984 2565 2268 
Q 2250 2553 1709 2553 
Q 1456 2553 1204 2497 
Q 953 2441 691 2322 
L 691 4666 
z
" transform="scale(0.015625)"/>
       </defs>
       <use xlink:href="#DejaVuSans-32"/>
       <use xlink:href="#DejaVuSans-30" x="63.623047"/>
       <use xlink:href="#DejaVuSans-32" x="127.246094"/>
       <use xlink:href="#DejaVuSans-33" x="190.869141"/>
       <use xlink:href="#DejaVuSans-2d" x="254.492188"/>
       <use xlink:href="#DejaVuSans-30" x="290.576172"/>
       <use xlink:href="#DejaVuSans-39" x="354.199219"/>
       <use xlink:href="#DejaVuSans-2d" x="417.822266"/>
       <use xlink:href="#DejaVuSans-32" x="453.90625"/>
       <use xlink:href="#DejaVuSans-35" x="517.529297"/>
      </g>
     </g>
    </g>
    <g id="xtick_4">
     <g id="line2d_4">
      <g>
       <use xlink:href="#mca81d56863" x="277.034852" y="288" style="stroke: #000000; stroke-width: 0.8"/>
      </g>
     </g>
     <g id="text_4">
      <!-- 2023-09-29 -->
      <g transform="translate(215.39151 337.765903) rotate(-30) scale(0.12 -0.12)">
       <use xlink:href="#DejaVuSans-32"/>
       <use xlink:href="#DejaVuSans-30" x="63.623047"/>
       <use xlink:href="#DejaVuSans-32" x="127.246094"/>
       <use xlink:href="#DejaVuSans-33" x="190.869141"/>
       <use xlink:href="#DejaVuSans-2d" x="254.492188"/>
       <use xlink:href="#DejaVuSans-30" x="290.576172"/>
       <use xlink:href="#DejaVuSans-39" x="354.199219"/>
       <use xlink:href="#DejaVuSans-2d" x="417.822266"/>
       <use xlink:href="#DejaVuSans-32" x="453.90625"/>
       <use xlink:href="#DejaVuSans-39" x="517.529297"/>
      </g>
     </g>
    </g>
    <g id="xtick_5">
     <g id="line2d_5">
      <g>
       <use xlink:href="#mca81d56863" x="305.151585" y="288" style="stroke: #000000; stroke-width: 0.8"/>
      </g>
     </g>
     <g id="text_5">
      <!-- 2023-10-01 -->
      <g transform="translate(243.508244 337.765903) rotate(-30) scale(0.12 -0.12)">
       <use xlink:href="#DejaVuSans-32"/>
       <use xlink:href="#DejaVuSans-30" x="63.623047"/>
       <use xlink:href="#DejaVuSans-32" x="127.246094"/>
       <use xlink:href="#DejaVuSans-33" x="190.869141"/>
       <use xlink:href="#DejaVuSans-2d" x="254.492188"/>
       <use xlink:href="#DejaVuSans-31" x="290.576172"/>
       <use xlink:href="#DejaVuSans-30" x="354.199219"/>
       <use xlink:href="#DejaVuSans-2d" x="417.822266"/>
       <use xlink:href="#DejaVuSans-30" x="453.90625"/>
       <use xlink:href="#DejaVuSans-31" x="517.529297"/>
      </g>
     </g>
    </g>
    <g id="xtick_6">
     <g id="line2d_6">
      <g>
       <use xlink:href="#mca81d56863" x="361.385051" y="288" style="stroke: #000000; stroke-width: 0.8"/>
      </g>
     </g>
     <g id="text_6">
      <!-- 2023-10-05 -->
      <g transform="translate(299.74171 337.765903) rotate(-30) scale(0.12 -0.12)">
       <use xlink:href="#DejaVuSans-32"/>
       <use xlink:href="#DejaVuSans-30" x="63.623047"/>
       <use xlink:href="#DejaVuSans-32" x="127.246094"/>
       <use xlink:href="#DejaVuSans-33" x="190.869141"/>
       <use xlink:href="#DejaVuSans-2d" x="254.492188"/>
       <use xlink:href="#DejaVuSans-31" x="290.576172"/>
       <use xlink:href="#DejaVuSans-30" x="354.199219"/>
       <use xlink:href="#DejaVuSans-2d" x="417.822266"/>
       <use xlink:href="#DejaVuSans-30" x="453.90625"/>
       <use xlink:href="#DejaVuSans-35" x="517.529297"/>
      </g>
     </g>
    </g>
    <g id="xtick_7">
     <g id="line2d_7">
      <g>
       <use xlink:href="#mca81d56863" x="417.618518" y="288" style="stroke: #000000; stroke-width: 0.8"/>
      </g>
     </g>
     <g id="text_7">
      <!-- 2023-10-09 -->
      <g transform="translate(355.975176 337.765903) rotate(-30) scale(0.12 -0.12)">
       <use xlink:href="#DejaVuSans-32"/>
       <use xlink:href="#DejaVuSans-30" x="63.623047"/>
       <use xlink:href="#DejaVuSans-32" x="127.246094"/>
       <use xlink:href="#DejaVuSans-33" x="190.869141"/>
       <use xlink:href="#DejaVuSans-2d" x="254.492188"/>
       <use xlink:href="#DejaVuSans-31" x="290.576172"/>
       <use xlink:href="#DejaVuSans-30" x="354.199219"/>
       <use xlink:href="#DejaVuSans-2d" x="417.822266"/>
       <use xlink:href="#DejaVuSans-30" x="453.90625"/>
       <use xlink:href="#DejaVuSans-39" x="517.529297"/>
      </g>
     </g>
    </g>
    <g id="xtick_8">
     <g id="line2d_8">
      <g>
       <use xlink:href="#mca81d56863" x="473.851984" y="288" style="stroke: #000000; stroke-width: 0.8"/>
      </g>
     </g>
     <g id="text_8">
      <!-- 2023-10-13 -->
      <g transform="translate(412.208642 337.765903) rotate(-30) scale(0.12 -0.12)">
       <use xlink:href="#DejaVuSans-32"/>
       <use xlink:href="#DejaVuSans-30" x="63.623047"/>
       <use xlink:href="#DejaVuSans-32" x="127.246094"/>
       <use xlink:href="#DejaVuSans-33" x="190.869141"/>
       <use xlink:href="#DejaVuSans-2d" x="254.492188"/>
       <use xlink:href="#DejaVuSans-31" x="290.576172"/>
       <use xlink:href="#DejaVuSans-30" x="354.199219"/>
       <use xlink:href="#DejaVuSans-2d" x="417.822266"/>
       <use xlink:href="#DejaVuSans-31" x="453.90625"/>
       <use xlink:href="#DejaVuSans-33" x="517.529297"/>
      </g>
     </g>
    </g>
    <g id="xtick_9">
     <g id="line2d_9">
      <g>
       <use xlink:href="#mca81d56863" x="530.08545" y="288" style="stroke: #000000; stroke-width: 0.8"/>
      </g>
     </g>
     <g id="text_9">
      <!-- 2023-10-17 -->
      <g transform="translate(468.442109 337.765903) rotate(-30) scale(0.12 -0.12)">
       <use xlink:href="#DejaVuSans-32"/>
       <use xlink:href="#DejaVuSans-30" x="63.623047"/>
       <use xlink:href="#DejaVuSans-32" x="127.246094"/>
       <use xlink:href="#DejaVuSans-33" x="190.869141"/>
       <use xlink:href="#DejaVuSans-2d" x="254.492188"/>
       <use xlink:href="#DejaVuSans-31" x="290.576172"/>
       <use xlink:href="#DejaVuSans-30" x="354.199219"/>
       <use xlink:href="#DejaVuSans-2d" x="417.822266"/>
       <use xlink:href="#DejaVuSans-31" x="453.90625"/>
       <use xlink:href="#DejaVuSans-37" x="517.529297"/>
      </g>
     </g>
    </g>
    <g id="xtick_10">
     <g id="line2d_10">
      <g>
       <use xlink:href="#mca81d56863" x="586.318917" y="288" style="stroke: #000000; stroke-width: 0.8"/>
      </g>
     </g>
     <g id="text_10">
      <!-- 2023-10-21 -->
      <g transform="translate(524.675575 337.765903) rotate(-30) scale(0.12 -0.12)">
       <use xlink:href="#DejaVuSans-32"/>
       <use xlink:href="#DejaVuSans-30" x="63.623047"/>
       <use xlink:href="#DejaVuSans-32" x="127.246094"/>
       <use xlink:href="#DejaVuSans-33" x="190.869141"/>
       <use xlink:href="#DejaVuSans-2d" x="254.492188"/>
       <use xlink:href="#DejaVuSans-31" x="290.576172"/>
       <use xlink:href="#DejaVuSans-30" x="354.199219"/>
       <use xlink:href="#DejaVuSans-2d" x="417.822266"/>
       <use xlink:href="#DejaVuSans-32" x="453.90625"/>
       <use xlink:href="#DejaVuSans-31" x="517.529297"/>
      </g>
     </g>
    </g>
    <g id="xtick_11">
     <g id="line2d_11">
      <g>
       <use xlink:href="#mca81d56863" x="642.552383" y="288" style="stroke: #000000; stroke-width: 0.8"/>
      </g>
     </g>
     <g id="text_11">
      <!-- 2023-10-25 -->
      <g transform="translate(580.909041 337.765903) rotate(-30) scale(0.12 -0.12)">
       <use xlink:href="#DejaVuSans-32"/>
       <use xlink:href="#DejaVuSans-30" x="63.623047"/>
       <use xlink:href="#DejaVuSans-32" x="127.246094"/>
       <use xlink:href="#DejaVuSans-33" x="190.869141"/>
       <use xlink:href="#DejaVuSans-2d" x="254.492188"/>
       <use xlink:href="#DejaVuSans-31" x="290.576172"/>
       <use xlink:href="#DejaVuSans-30" x="354.199219"/>
       <use xlink:href="#DejaVuSans-2d" x="417.822266"/>
       <use xlink:href="#DejaVuSans-32" x="453.90625"/>
       <use xlink:href="#DejaVuSans-35" x="517.529297"/>
      </g>
     </g>
    </g>
   </g>
   <g id="matplotlib.axis_2">
    <g id="ytick_1">
     <g id="line2d_12">
      <defs>
       <path id="mfc0aeb0447" d="M 0 0 
L -3.5 0 
" style="stroke: #000000; stroke-width: 0.8"/>
      </defs>
      <g>
       <use xlink:href="#mfc0aeb0447" x="90" y="259.351" style="stroke: #000000; stroke-width: 0.8"/>
      </g>
     </g>
     <g id="text_12">
      <!-- 5.5 -->
      <g transform="translate(63.91625 263.910063) scale(0.12 -0.12)">
       <defs>
        <path id="DejaVuSans-2e" d="M 684 794 
L 1344 794 
L 1344 0 
L 684 0 
L 684 794 
z
" transform="scale(0.015625)"/>
       </defs>
       <use xlink:href="#DejaVuSans-35"/>
       <use xlink:href="#DejaVuSans-2e" x="63.623047"/>
       <use xlink:href="#DejaVuSans-35" x="95.410156"/>
      </g>
     </g>
    </g>
    <g id="ytick_2">
     <g id="line2d_13">
      <g>
       <use xlink:href="#mfc0aeb0447" x="90" y="229.511531" style="stroke: #000000; stroke-width: 0.8"/>
      </g>
     </g>
     <g id="text_13">
      <!-- 6.0 -->
      <g transform="translate(63.91625 234.070593) scale(0.12 -0.12)">
       <defs>
        <path id="DejaVuSans-36" d="M 2113 2584 
Q 1688 2584 1439 2293 
Q 1191 2003 1191 1497 
Q 1191 994 1439 701 
Q 1688 409 2113 409 
Q 2538 409 2786 701 
Q 3034 994 3034 1497 
Q 3034 2003 2786 2293 
Q 2538 2584 2113 2584 
z
M 3366 4563 
L 3366 3988 
Q 3128 4100 2886 4159 
Q 2644 4219 2406 4219 
Q 1781 4219 1451 3797 
Q 1122 3375 1075 2522 
Q 1259 2794 1537 2939 
Q 1816 3084 2150 3084 
Q 2853 3084 3261 2657 
Q 3669 2231 3669 1497 
Q 3669 778 3244 343 
Q 2819 -91 2113 -91 
Q 1303 -91 875 529 
Q 447 1150 447 2328 
Q 447 3434 972 4092 
Q 1497 4750 2381 4750 
Q 2619 4750 2861 4703 
Q 3103 4656 3366 4563 
z
" transform="scale(0.015625)"/>
       </defs>
       <use xlink:href="#DejaVuSans-36"/>
       <use xlink:href="#DejaVuSans-2e" x="63.623047"/>
       <use xlink:href="#DejaVuSans-30" x="95.410156"/>
      </g>
     </g>
    </g>
    <g id="ytick_3">
     <g id="line2d_14">
      <g>
       <use xlink:href="#mfc0aeb0447" x="90" y="199.672062" style="stroke: #000000; stroke-width: 0.8"/>
      </g>
     </g>
     <g id="text_14">
      <!-- 6.5 -->
      <g transform="translate(63.91625 204.231124) scale(0.12 -0.12)">
       <use xlink:href="#DejaVuSans-36"/>
       <use xlink:href="#DejaVuSans-2e" x="63.623047"/>
       <use xlink:href="#DejaVuSans-35" x="95.410156"/>
      </g>
     </g>
    </g>
    <g id="ytick_4">
     <g id="line2d_15">
      <g>
       <use xlink:href="#mfc0aeb0447" x="90" y="169.832592" style="stroke: #000000; stroke-width: 0.8"/>
      </g>
     </g>
     <g id="text_15">
      <!-- 7.0 -->
      <g transform="translate(63.91625 174.391655) scale(0.12 -0.12)">
       <use xlink:href="#DejaVuSans-37"/>
       <use xlink:href="#DejaVuSans-2e" x="63.623047"/>
       <use xlink:href="#DejaVuSans-30" x="95.410156"/>
      </g>
     </g>
    </g>
    <g id="ytick_5">
     <g id="line2d_16">
      <g>
       <use xlink:href="#mfc0aeb0447" x="90" y="139.993123" style="stroke: #000000; stroke-width: 0.8"/>
      </g>
     </g>
     <g id="text_16">
      <!-- 7.5 -->
      <g transform="translate(63.91625 144.552185) scale(0.12 -0.12)">
       <use xlink:href="#DejaVuSans-37"/>
       <use xlink:href="#DejaVuSans-2e" x="63.623047"/>
       <use xlink:href="#DejaVuSans-35" x="95.410156"/>
      </g>
     </g>
    </g>
    <g id="ytick_6">
     <g id="line2d_17">
      <g>
       <use xlink:href="#mfc0aeb0447" x="90" y="110.153654" style="stroke: #000000; stroke-width: 0.8"/>
      </g>
     </g>
     <g id="text_17">
      <!-- 8.0 -->
      <g transform="translate(63.91625 114.712716) scale(0.12 -0.12)">
       <defs>
        <path id="DejaVuSans-38" d="M 2034 2216 
Q 1584 2216 1326 1975 
Q 1069 1734 1069 1313 
Q 1069 891 1326 650 
Q 1584 409 2034 409 
Q 2484 409 2743 651 
Q 3003 894 3003 1313 
Q 3003 1734 2745 1975 
Q 2488 2216 2034 2216 
z
M 1403 2484 
Q 997 2584 770 2862 
Q 544 3141 544 3541 
Q 544 4100 942 4425 
Q 1341 4750 2034 4750 
Q 2731 4750 3128 4425 
Q 3525 4100 3525 3541 
Q 3525 3141 3298 2862 
Q 3072 2584 2669 2484 
Q 3125 2378 3379 2068 
Q 3634 1759 3634 1313 
Q 3634 634 3220 271 
Q 2806 -91 2034 -91 
Q 1263 -91 848 271 
Q 434 634 434 1313 
Q 434 1759 690 2068 
Q 947 2378 1403 2484 
z
M 1172 3481 
Q 1172 3119 1398 2916 
Q 1625 2713 2034 2713 
Q 2441 2713 2670 2916 
Q 2900 3119 2900 3481 
Q 2900 3844 2670 4047 
Q 2441 4250 2034 4250 
Q 1625 4250 1398 4047 
Q 1172 3844 1172 3481 
z
" transform="scale(0.015625)"/>
       </defs>
       <use xlink:href="#DejaVuSans-38"/>
       <use xlink:href="#DejaVuSans-2e" x="63.623047"/>
       <use xlink:href="#DejaVuSans-30" x="95.410156"/>
      </g>
     </g>
    </g>
    <g id="ytick_7">
     <g id="line2d_18">
      <g>
       <use xlink:href="#mfc0aeb0447" x="90" y="80.314184" style="stroke: #000000; stroke-width: 0.8"/>
      </g>
     </g>
     <g id="text_18">
      <!-- 8.5 -->
      <g transform="translate(63.91625 84.873247) scale(0.12 -0.12)">
       <use xlink:href="#DejaVuSans-38"/>
       <use xlink:href="#DejaVuSans-2e" x="63.623047"/>
       <use xlink:href="#DejaVuSans-35" x="95.410156"/>
      </g>
     </g>
    </g>
    <g id="ytick_8">
     <g id="line2d_19">
      <g>
       <use xlink:href="#mfc0aeb0447" x="90" y="50.474715" style="stroke: #000000; stroke-width: 0.8"/>
      </g>
     </g>
     <g id="text_19">
      <!-- 9.0 -->
      <g transform="translate(63.91625 55.033778) scale(0.12 -0.12)">
       <use xlink:href="#DejaVuSans-39"/>
       <use xlink:href="#DejaVuSans-2e" x="63.623047"/>
       <use xlink:href="#DejaVuSans-30" x="95.410156"/>
      </g>
     </g>
    </g>
    <g id="text_20">
     <!-- Meters -->
     <g transform="translate(57.836562 182.6875) rotate(-90) scale(0.1 -0.1)">
      <defs>
       <path id="DejaVuSans-4d" d="M 628 4666 
L 1569 4666 
L 2759 1491 
L 3956 4666 
L 4897 4666 
L 4897 0 
L 4281 0 
L 4281 4097 
L 3078 897 
L 2444 897 
L 1241 4097 
L 1241 0 
L 628 0 
L 628 4666 
z
" transform="scale(0.015625)"/>
       <path id="DejaVuSans-65" d="M 3597 1894 
L 3597 1613 
L 953 1613 
Q 991 1019 1311 708 
Q 1631 397 2203 397 
Q 2534 397 2845 478 
Q 3156 559 3463 722 
L 3463 178 
Q 3153 47 2828 -22 
Q 2503 -91 2169 -91 
Q 1331 -91 842 396 
Q 353 884 353 1716 
Q 353 2575 817 3079 
Q 1281 3584 2069 3584 
Q 2775 3584 3186 3129 
Q 3597 2675 3597 1894 
z
M 3022 2063 
Q 3016 2534 2758 2815 
Q 2500 3097 2075 3097 
Q 1594 3097 1305 2825 
Q 1016 2553 972 2059 
L 3022 2063 
z
" transform="scale(0.015625)"/>
       <path id="DejaVuSans-74" d="M 1172 4494 
L 1172 3500 
L 2356 3500 
L 2356 3053 
L 1172 3053 
L 1172 1153 
Q 1172 725 1289 603 
Q 1406 481 1766 481 
L 2356 481 
L 2356 0 
L 1766 0 
Q 1100 0 847 248 
Q 594 497 594 1153 
L 594 3053 
L 172 3053 
L 172 3500 
L 594 3500 
L 594 4494 
L 1172 4494 
z
" transform="scale(0.015625)"/>
       <path id="DejaVuSans-72" d="M 2631 2963 
Q 2534 3019 2420 3045 
Q 2306 3072 2169 3072 
Q 1681 3072 1420 2755 
Q 1159 2438 1159 1844 
L 1159 0 
L 581 0 
L 581 3500 
L 1159 3500 
L 1159 2956 
Q 1341 3275 1631 3429 
Q 1922 3584 2338 3584 
Q 2397 3584 2469 3576 
Q 2541 3569 2628 3553 
L 2631 2963 
z
" transform="scale(0.015625)"/>
       <path id="DejaVuSans-73" d="M 2834 3397 
L 2834 2853 
Q 2591 2978 2328 3040 
Q 2066 3103 1784 3103 
Q 1356 3103 1142 2972 
Q 928 2841 928 2578 
Q 928 2378 1081 2264 
Q 1234 2150 1697 2047 
L 1894 2003 
Q 2506 1872 2764 1633 
Q 3022 1394 3022 966 
Q 3022 478 2636 193 
Q 2250 -91 1575 -91 
Q 1294 -91 989 -36 
Q 684 19 347 128 
L 347 722 
Q 666 556 975 473 
Q 1284 391 1588 391 
Q 1994 391 2212 530 
Q 2431 669 2431 922 
Q 2431 1156 2273 1281 
Q 2116 1406 1581 1522 
L 1381 1569 
Q 847 1681 609 1914 
Q 372 2147 372 2553 
Q 372 3047 722 3315 
Q 1072 3584 1716 3584 
Q 2034 3584 2315 3537 
Q 2597 3491 2834 3397 
z
" transform="scale(0.015625)"/>
      </defs>
      <use xlink:href="#DejaVuSans-4d"/>
      <use xlink:href="#DejaVuSans-65" x="86.279297"/>
      <use xlink:href="#DejaVuSans-74" x="147.802734"/>
      <use xlink:href="#DejaVuSans-65" x="187.011719"/>
      <use xlink:href="#DejaVuSans-72" x="248.535156"/>
      <use xlink:href="#DejaVuSans-73" x="289.648438"/>
     </g>
    </g>
   </g>
   <g id="line2d_20">
    <path d="M 115.363636 267.406093 
L 115.949402 267.137607 
L 116.535167 267.177382 
L 117.120932 267.455813 
L 117.706697 267.585084 
L 119.463993 268.519815 
L 120.635524 268.519815 
L 121.221289 268.639142 
L 121.807054 268.639142 
L 122.39282 268.450207 
L 123.56435 268.619254 
L 125.321646 268.847965 
L 125.907411 268.301048 
L 127.078942 268.867853 
L 127.664707 268.688862 
L 128.250472 268.947404 
L 129.422003 269.056788 
L 131.179299 268.927516 
L 132.936595 269.762808 
L 133.52236 270.737314 
L 134.108125 270.866585 
L 134.69389 271.453278 
L 135.279656 270.637875 
L 135.865421 270.548379 
L 136.451186 270.100902 
L 137.036952 270.379332 
L 137.622717 270.329612 
L 138.208482 270.438996 
L 138.794247 270.3495 
L 142.308839 270.737314 
L 142.894604 270.289837 
L 143.48037 270.230173 
L 144.6519 269.404826 
L 145.237665 269.544041 
L 146.409196 270.796978 
L 146.994961 271.522886 
L 147.580726 271.86098 
L 148.166492 272.547112 
L 148.752257 272.706215 
L 149.338022 272.169242 
L 149.923788 271.801316 
L 150.509553 271.244455 
L 152.266849 271.095296 
L 153.438379 271.025689 
L 155.195675 270.558323 
L 155.78144 270.667707 
L 156.367206 270.528491 
L 156.952971 270.637875 
L 157.538736 270.438996 
L 158.124501 270.110846 
L 158.710267 270.438996 
L 159.296032 270.458884 
L 160.467562 270.170509 
L 161.639093 272.248794 
L 162.224858 272.228906 
L 162.810624 272.427785 
L 163.396389 271.721765 
L 165.153685 271.453278 
L 166.91098 271.274287 
L 168.082511 271.423446 
L 169.254042 271.38367 
L 169.839807 271.672045 
L 170.425572 271.711821 
L 171.011337 271.8928 
L 171.597103 271.502998 
L 172.182868 270.707482 
L 172.768633 270.468828 
L 173.354398 270.876529 
L 173.940164 271.135072 
L 174.525929 271.86098 
L 175.111694 272.915038 
L 175.69746 273.352571 
L 176.283225 274.148087 
L 176.86899 274.615452 
L 177.454755 273.50173 
L 178.040521 272.676383 
L 178.626286 272.358177 
L 180.383582 272.000195 
L 180.969347 272.209018 
L 183.898173 272.397953 
L 185.069704 272.348233 
L 185.655469 272.119522 
L 186.827 271.115184 
L 187.99853 271.711821 
L 188.584296 272.527224 
L 189.170061 272.885206 
L 190.927357 273.412235 
L 191.513122 272.775823 
L 192.098887 272.557056 
L 192.684653 272.726103 
L 193.270418 272.646551 
L 194.441948 272.636607 
L 195.027714 272.984645 
L 195.613479 272.984645 
L 196.785009 273.203412 
L 198.542305 273.17358 
L 199.128071 273.342627 
L 199.713836 273.133805 
L 200.885366 272.348233 
L 202.056897 272.378065 
L 202.642662 272.994589 
L 203.814193 274.804387 
L 204.399958 275.430855 
L 204.985723 275.281696 
L 205.571489 274.446405 
L 206.157254 274.038703 
L 206.743019 274.068535 
L 207.328784 273.939264 
L 208.500315 274.058591 
L 209.08608 274.118255 
L 209.671845 273.92932 
L 210.257611 274.277358 
L 210.843376 274.456349 
L 212.014907 274.466293 
L 212.600672 274.068535 
L 213.186437 274.575676 
L 213.772202 274.675116 
L 214.357968 273.740385 
L 215.529498 273.233244 
L 216.115263 273.302852 
L 218.458325 276.574409 
L 219.04409 276.872727 
L 219.629855 275.888277 
L 221.387151 274.327078 
L 222.558682 274.744723 
L 224.315977 274.943602 
L 225.487508 275.202145 
L 226.073273 275.172313 
L 226.659038 274.764611 
L 227.244804 274.516013 
L 227.830569 274.615452 
L 229.0021 274.63534 
L 229.587865 274.804387 
L 230.17363 275.222033 
L 230.759395 275.202145 
L 231.345161 275.420912 
L 233.688222 275.082817 
L 234.273987 275.361248 
L 236.031283 275.639678 
L 236.617048 275.749062 
L 237.202813 275.639678 
L 237.788579 275.410968 
L 238.374344 275.510407 
L 238.960109 275.430855 
L 239.545874 275.112649 
L 240.13164 274.943602 
L 241.30317 274.943602 
L 241.888936 275.102705 
L 243.060466 275.01321 
L 243.646231 274.844163 
L 244.231997 274.535901 
L 245.403527 274.575676 
L 250.675415 275.560127 
L 251.26118 275.460687 
L 251.846945 275.629734 
L 252.43271 275.679454 
L 253.018476 275.401024 
L 254.775772 275.609846 
L 255.947302 276.077212 
L 257.704598 276.067268 
L 258.876128 275.928053 
L 259.461894 275.928053 
L 260.047659 275.759006 
L 261.804955 275.500463 
L 262.976485 275.460687 
L 263.562251 275.490519 
L 264.148016 238.986303 
L 264.733781 275.928053 
L 265.319547 275.520351 
L 266.491077 54.327273 
L 267.076842 201.328589 
L 267.662608 274.794443 
L 268.834138 274.58562 
L 269.419903 274.973434 
L 270.591434 275.271752 
L 272.34873 275.052986 
L 272.934495 275.112649 
L 274.106026 274.873995 
L 274.691791 274.933658 
L 275.277556 274.784499 
L 275.863321 274.217694 
L 276.449087 273.939264 
L 277.620617 274.227638 
L 279.377913 273.829881 
L 279.963678 273.959152 
L 281.135209 273.889544 
L 284.064035 274.217694 
L 285.235566 273.869656 
L 286.407096 273.899488 
L 286.992862 273.800049 
L 287.578627 274.028759 
L 288.750157 273.770217 
L 289.335923 273.839825 
L 291.093219 273.640946 
L 291.678984 273.760273 
L 292.264749 273.998928 
L 293.43628 274.088423 
L 294.022045 273.899488 
L 294.60781 237.206337 
L 295.193575 90.950816 
L 295.779341 200.602681 
L 296.365106 273.670777 
L 296.950871 273.521618 
L 298.122402 273.452011 
L 299.293932 272.407897 
L 299.879698 272.457616 
L 300.465463 272.79571 
L 302.808524 275.788837 
L 303.394289 276.087156 
L 303.980055 275.639678 
L 304.56582 274.118255 
L 305.151585 273.591226 
L 306.908881 273.263076 
L 308.666177 273.332683 
L 309.251942 273.103973 
L 311.009238 272.915038 
L 311.595003 273.163636 
L 312.180768 273.243188 
L 313.352299 272.248794 
L 313.938064 272.596832 
L 314.52383 272.716159 
L 315.109595 273.163636 
L 315.69536 273.97904 
L 316.281125 274.416573 
L 316.866891 275.023154 
L 317.452656 275.99766 
L 318.038421 275.381136 
L 318.624186 273.959152 
L 319.209952 273.412235 
L 319.795717 273.2233 
L 322.724543 273.094029 
L 323.310309 273.153692 
L 323.896074 273.094029 
L 324.481839 273.302852 
L 326.239135 273.143748 
L 326.8249 272.51728 
L 327.410666 271.612381 
L 327.996431 271.771484 
L 328.582196 272.23885 
L 329.753727 274.108311 
L 330.925257 275.301584 
L 331.511022 276.305922 
L 332.096788 275.759006 
L 332.682553 274.376797 
L 333.268318 273.770217 
L 333.854084 273.491786 
L 334.439849 273.372459 
L 336.197145 273.521618 
L 337.368675 273.55145 
L 339.711736 273.829881 
L 340.297502 273.720497 
L 340.883267 273.034365 
L 341.469032 272.08969 
L 342.054797 271.86098 
L 342.640563 272.059859 
L 343.812093 274.20775 
L 344.983624 275.202145 
L 345.569389 276.007604 
L 346.155154 276.266147 
L 346.74092 274.824275 
L 347.326685 274.148087 
L 347.91245 273.780161 
L 353.184338 273.949208 
L 354.355868 273.939264 
L 354.941633 272.855374 
L 355.527399 273.183524 
L 356.113164 273.103973 
L 357.87046 274.227638 
L 359.627756 274.565732 
L 360.213521 275.01321 
L 360.799286 274.923714 
L 361.385051 274.406629 
L 361.970817 274.118255 
L 363.142347 273.959152 
L 364.313878 274.346966 
L 365.485408 274.565732 
L 366.656939 274.535901 
L 367.828469 274.217694 
L 368.414235 274.695004 
L 370.171531 274.565732 
L 370.757296 274.187863 
L 371.343061 274.088423 
L 373.100357 273.402291 
L 373.686122 272.716159 
L 374.271887 271.602437 
L 374.857653 270.956081 
L 375.443418 270.568267 
L 376.614949 270.77709 
L 378.95801 271.771484 
L 379.543775 271.542774 
L 380.12954 271.652157 
L 380.715305 271.940531 
L 382.472601 272.129466 
L 383.058367 271.701877 
L 383.644132 271.582549 
L 385.401428 272.606776 
L 385.987193 273.233244 
L 387.158723 273.243188 
L 387.744489 272.646551 
L 388.330254 272.407897 
L 388.916019 272.338289 
L 389.501785 271.86098 
L 390.08755 271.900756 
L 390.673315 271.622325 
L 391.25908 271.184792 
L 391.844846 270.936193 
L 392.430611 270.856641 
L 393.016376 270.896417 
L 393.602142 270.697538 
L 394.187907 270.67765 
L 394.773672 270.77709 
L 395.359437 270.667707 
L 395.945203 270.846698 
L 397.702498 270.538435 
L 398.288264 270.578211 
L 398.874029 270.757202 
L 399.459794 270.737314 
L 400.04556 270.856641 
L 400.631325 270.647819 
L 401.21709 270.757202 
L 401.802855 270.49866 
L 402.388621 270.429052 
L 421.718875 269.146283 
L 422.30464 269.355106 
L 422.890405 269.076676 
L 424.061936 269.255667 
L 424.647701 269.026956 
L 425.233466 268.460151 
L 425.819232 268.828077 
L 426.404997 269.583817 
L 426.990762 269.981574 
L 427.576527 270.031294 
L 428.162293 270.787034 
L 429.333823 271.652157 
L 429.919588 271.81126 
L 430.505354 270.578211 
L 431.091119 270.051182 
L 431.676884 269.6932 
L 433.43418 269.205947 
L 435.191476 269.245723 
L 435.777241 269.0369 
L 436.363007 269.176115 
L 437.534537 268.917573 
L 438.120302 269.026956 
L 439.291833 268.927516 
L 439.877598 268.718694 
L 441.049129 268.957348 
L 441.634894 269.017012 
L 442.220659 268.927516 
L 442.806425 268.98718 
L 443.39219 269.434658 
L 444.56372 268.847965 
L 445.149486 268.549647 
L 447.492547 268.420375 
L 448.664077 268.678918 
L 449.249843 268.440263 
L 451.007138 268.430319 
L 451.592904 268.251328 
L 452.178669 268.470095 
L 453.935965 268.450207 
L 455.107495 268.927516 
L 455.693261 269.026956 
L 456.864791 269.007068 
L 459.207852 268.917573 
L 460.379383 268.818133 
L 460.965148 268.778357 
L 462.136679 269.017012 
L 462.722444 269.464489 
L 463.308209 269.534097 
L 465.065505 269.285498 
L 466.822801 269.524153 
L 467.408566 268.778357 
L 467.994331 268.271216 
L 469.165862 268.698806 
L 469.751627 269.106507 
L 470.337392 270.160565 
L 471.508923 271.15496 
L 472.680453 269.64348 
L 473.851984 269.126395 
L 475.60928 269.921911 
L 476.195045 270.02135 
L 476.78081 269.464489 
L 478.538106 269.872191 
L 479.123872 269.732976 
L 479.709637 270.02135 
L 480.881167 270.220229 
L 481.466933 270.299781 
L 482.052698 270.180453 
L 482.638463 270.309725 
L 483.224228 270.130734 
L 483.809994 270.190397 
L 484.981524 269.613649 
L 486.153055 269.355106 
L 487.324585 269.583817 
L 487.910351 269.653424 
L 488.496116 269.225835 
L 489.667646 268.897685 
L 490.253412 268.132001 
L 490.839177 267.644748 
L 492.010708 267.833683 
L 492.596473 267.764075 
L 493.768003 268.132001 
L 494.353769 268.529759 
L 494.939534 268.748525 
L 496.69683 267.95301 
L 497.282595 267.943066 
L 497.86836 267.724299 
L 498.454126 267.754131 
L 499.039891 267.972898 
L 500.211421 268.151889 
L 501.382952 268.450207 
L 503.140248 269.136339 
L 503.726013 269.295442 
L 504.311778 269.126395 
L 505.483309 269.553985 
L 506.069074 269.374994 
L 507.240605 269.325274 
L 507.82637 268.997124 
L 508.412135 268.3806 
L 508.9979 268.141945 
L 509.583666 267.634804 
L 510.169431 267.644748 
L 510.755196 267.95301 
L 513.098257 267.515476 
L 513.684023 267.485645 
L 515.441318 266.719961 
L 517.198614 266.779625 
L 518.95591 266.192932 
L 522.470502 265.755398 
L 527.742389 265.844894 
L 528.328155 265.55652 
L 529.499685 265.685791 
L 530.08545 265.745455 
L 530.671216 266.023885 
L 531.256981 265.765342 
L 531.842746 265.357641 
L 533.600042 265.198538 
L 534.771573 265.437192 
L 537.114634 265.258201 
L 537.700399 265.07921 
L 538.286164 265.039435 
L 539.457695 265.118986 
L 540.04346 265.158762 
L 541.214991 264.900219 
L 541.800756 264.920107 
L 542.386521 264.810724 
L 542.972286 265.357641 
L 543.558052 265.347697 
L 544.143817 264.631733 
L 544.729582 264.14448 
L 545.315347 263.965489 
L 545.901113 264.184255 
L 546.486878 264.542237 
L 547.658409 264.233975 
L 548.829939 263.71689 
L 550.587235 263.985377 
L 551.173 263.875993 
L 551.758765 263.040702 
L 552.344531 262.831879 
L 553.516061 263.368852 
L 554.101827 263.975433 
L 554.687592 264.353302 
L 556.444888 263.955545 
L 557.030653 264.04504 
L 557.616418 264.253863 
L 558.202183 263.518011 
L 558.787949 263.160029 
L 559.373714 263.508067 
L 560.545245 263.557787 
L 561.13101 263.358908 
L 561.716775 263.508067 
L 562.30254 262.652888 
L 562.888306 262.811991 
L 563.474071 263.179917 
L 564.059836 262.971094 
L 565.231367 262.990982 
L 566.402897 263.160029 
L 568.160193 263.269413 
L 568.745958 263.289301 
L 569.917489 262.642944 
L 572.26055 262.086083 
L 572.846315 261.92698 
L 573.432081 261.907092 
L 574.017846 261.59883 
L 574.603611 261.022081 
L 575.189376 260.783427 
L 576.360907 260.823203 
L 578.118203 261.071801 
L 578.703968 261.051913 
L 579.289733 261.240848 
L 579.875499 261.250792 
L 580.461264 261.141409 
L 582.21856 261.27068 
L 584.561621 260.61438 
L 585.147386 260.335949 
L 586.318917 260.18679 
L 587.490447 259.898416 
L 588.076212 259.699537 
L 589.247743 259.629929 
L 589.833508 259.440994 
L 590.419274 259.520546 
L 591.005039 259.281891 
L 591.590804 259.182452 
L 592.762335 259.252059 
L 593.3481 259.013405 
L 596.276926 258.87419 
L 596.862692 258.854302 
L 597.448457 259.252059 
L 598.034222 259.401219 
L 598.619987 259.301779 
L 599.205753 258.834414 
L 599.791518 258.188058 
L 600.963048 257.601365 
L 602.134579 257.352766 
L 602.720344 257.293103 
L 603.891875 257.561589 
L 605.063405 257.949403 
L 606.234936 257.879795 
L 606.820701 257.641141 
L 607.406467 257.223495 
L 607.992232 257.104168 
L 608.577997 257.273215 
L 609.163762 258.028954 
L 609.749528 257.780356 
L 610.335293 257.800244 
L 611.506823 258.804582 
L 612.678354 259.20234 
L 613.849885 258.128394 
L 614.43565 257.352766 
L 615.021415 256.766074 
L 615.60718 256.845625 
L 616.192946 256.557251 
L 618.536007 256.288764 
L 619.121772 255.930782 
L 619.707537 256.169437 
L 620.293303 255.980502 
L 620.879068 255.980502 
L 621.464833 255.781623 
L 622.050598 255.373922 
L 622.636364 254.727565 
L 622.636364 254.727565 
" clip-path="url(#p74df72f0c3)" style="fill: none; stroke: #1f77b4; stroke-width: 1.5; stroke-linecap: square"/>
   </g>
   <g id="line2d_21">
    <path d="M 115.363636 267.390183 
L 117.120932 267.781178 
L 120.635524 268.968116 
L 121.807054 269.236897 
L 128.836238 271.429335 
L 129.422003 268.623232 
L 134.69389 268.741641 
L 142.894604 268.864414 
L 143.48037 270.671684 
L 156.952971 271.148033 
L 157.538736 270.651796 
L 171.011337 271.485042 
L 171.597103 271.188769 
L 187.412765 272.30376 
L 187.99853 271.021711 
L 199.713836 271.937963 
L 200.299601 273.078118 
L 220.801386 274.43899 
L 227.244804 274.82072 
L 227.830569 275.076851 
L 234.273987 275.359739 
L 236.031283 275.420484 
L 241.30317 275.683796 
L 241.888936 274.84814 
L 244.231997 274.197186 
L 256.533067 274.303139 
L 257.704598 274.162886 
L 258.290363 275.941974 
L 261.21919 276.143215 
L 261.804955 275.663544 
L 269.419903 275.780088 
L 270.005669 274.559766 
L 296.950871 275.013945 
L 297.536637 273.670777 
L 311.595003 273.926457 
L 312.180768 272.974701 
L 339.711736 273.554481 
L 340.883267 273.641782 
L 354.941633 273.955723 
L 366.071174 275.391944 
L 367.828469 275.150886 
L 368.414235 274.535901 
L 370.757296 274.461373 
L 371.928826 274.0819 
L 373.100357 273.950818 
L 374.271887 273.950397 
L 376.029183 273.640979 
L 376.614949 273.575182 
L 377.786479 273.1787 
L 380.715305 273.06122 
L 381.886836 272.90553 
L 382.472601 271.940531 
L 385.401428 272.621817 
L 387.158723 272.828434 
L 388.916019 272.805816 
L 390.673315 272.57442 
L 393.016376 272.049248 
L 395.945203 271.201675 
L 396.530968 270.77709 
L 400.04556 270.800888 
L 438.120302 271.557861 
L 438.706068 269.056788 
L 446.906781 269.168047 
L 451.592904 269.096483 
L 452.178669 268.430319 
L 466.237035 268.749724 
L 466.822801 269.285498 
L 480.295402 269.600569 
L 480.881167 269.732976 
L 483.809994 269.469104 
L 487.910351 269.594649 
L 489.081881 269.678871 
L 490.839177 269.30691 
L 493.182238 268.416548 
L 496.69683 267.788934 
L 499.039891 267.223391 
L 500.797187 267.144087 
L 506.069074 267.313312 
L 507.82637 267.480333 
L 508.412135 267.49336 
L 508.9979 269.325274 
L 516.612849 268.03127 
L 522.470502 267.294206 
L 523.056267 265.854838 
L 536.528868 266.22668 
L 537.114634 265.397417 
L 543.558052 265.198009 
L 550.587235 265.209378 
L 551.173 263.836217 
L 558.787949 264.102328 
L 564.645602 264.419585 
L 565.231367 263.179917 
L 568.160193 263.122964 
L 569.917489 262.986864 
L 572.26055 262.937392 
L 573.432081 262.747076 
L 578.703968 262.661473 
L 579.289733 261.012137 
L 583.975856 260.743274 
L 591.590804 260.34767 
L 592.762335 260.308105 
L 593.3481 259.182452 
L 598.034222 258.693053 
L 599.205753 258.477107 
L 601.548814 257.710826 
L 602.134579 257.445694 
L 605.649171 256.872335 
L 606.820701 256.693659 
L 607.406467 257.949403 
L 614.43565 257.202171 
L 620.293303 256.803046 
L 620.879068 256.775491 
L 621.464833 256.169437 
L 622.636364 256.12571 
L 622.636364 256.12571 
" clip-path="url(#p74df72f0c3)" style="fill: none; stroke: #ff7f0e; stroke-width: 1.5; stroke-linecap: square"/>
   </g>
   <g id="patch_3">
    <path d="M 90 288 
L 90 43.2 
" style="fill: none; stroke: #000000; stroke-width: 0.8; stroke-linejoin: miter; stroke-linecap: square"/>
   </g>
   <g id="patch_4">
    <path d="M 648 288 
L 648 43.2 
" style="fill: none; stroke: #000000; stroke-width: 0.8; stroke-linejoin: miter; stroke-linecap: square"/>
   </g>
   <g id="patch_5">
    <path d="M 90 288 
L 648 288 
" style="fill: none; stroke: #000000; stroke-width: 0.8; stroke-linejoin: miter; stroke-linecap: square"/>
   </g>
   <g id="patch_6">
    <path d="M 90 43.2 
L 648 43.2 
" style="fill: none; stroke: #000000; stroke-width: 0.8; stroke-linejoin: miter; stroke-linecap: square"/>
   </g>
   <g id="text_21">
    <!-- MDOT2613 -->
    <g transform="translate(335.545313 37.2) scale(0.12 -0.12)">
     <defs>
      <path id="DejaVuSans-44" d="M 1259 4147 
L 1259 519 
L 2022 519 
Q 2988 519 3436 956 
Q 3884 1394 3884 2338 
Q 3884 3275 3436 3711 
Q 2988 4147 2022 4147 
L 1259 4147 
z
M 628 4666 
L 1925 4666 
Q 3281 4666 3915 4102 
Q 4550 3538 4550 2338 
Q 4550 1131 3912 565 
Q 3275 0 1925 0 
L 628 0 
L 628 4666 
z
" transform="scale(0.015625)"/>
      <path id="DejaVuSans-4f" d="M 2522 4238 
Q 1834 4238 1429 3725 
Q 1025 3213 1025 2328 
Q 1025 1447 1429 934 
Q 1834 422 2522 422 
Q 3209 422 3611 934 
Q 4013 1447 4013 2328 
Q 4013 3213 3611 3725 
Q 3209 4238 2522 4238 
z
M 2522 4750 
Q 3503 4750 4090 4092 
Q 4678 3434 4678 2328 
Q 4678 1225 4090 567 
Q 3503 -91 2522 -91 
Q 1538 -91 948 565 
Q 359 1222 359 2328 
Q 359 3434 948 4092 
Q 1538 4750 2522 4750 
z
" transform="scale(0.015625)"/>
      <path id="DejaVuSans-54" d="M -19 4666 
L 3928 4666 
L 3928 4134 
L 2272 4134 
L 2272 0 
L 1638 0 
L 1638 4134 
L -19 4134 
L -19 4666 
z
" transform="scale(0.015625)"/>
     </defs>
     <use xlink:href="#DejaVuSans-4d"/>
     <use xlink:href="#DejaVuSans-44" x="86.279297"/>
     <use xlink:href="#DejaVuSans-4f" x="163.28125"/>
     <use xlink:href="#DejaVuSans-54" x="241.992188"/>
     <use xlink:href="#DejaVuSans-32" x="303.076172"/>
     <use xlink:href="#DejaVuSans-36" x="366.699219"/>
     <use xlink:href="#DejaVuSans-31" x="430.322266"/>
     <use xlink:href="#DejaVuSans-33" x="493.945312"/>
    </g>
   </g>
   <g id="legend_1">
    <g id="patch_7">
     <path d="M 559.04375 80.55625 
L 641 80.55625 
Q 643 80.55625 643 78.55625 
L 643 50.2 
Q 643 48.2 641 48.2 
L 559.04375 48.2 
Q 557.04375 48.2 557.04375 50.2 
L 557.04375 78.55625 
Q 557.04375 80.55625 559.04375 80.55625 
z
" style="fill: #ffffff; opacity: 0.8; stroke: #cccccc; stroke-linejoin: miter"/>
    </g>
    <g id="line2d_22">
     <path d="M 561.04375 56.298437 
L 571.04375 56.298437 
L 581.04375 56.298437 
" style="fill: none; stroke: #1f77b4; stroke-width: 1.5; stroke-linecap: square"/>
    </g>
    <g id="text_22">
     <!-- measured -->
     <g transform="translate(589.04375 59.798437) scale(0.1 -0.1)">
      <defs>
       <path id="DejaVuSans-6d" d="M 3328 2828 
Q 3544 3216 3844 3400 
Q 4144 3584 4550 3584 
Q 5097 3584 5394 3201 
Q 5691 2819 5691 2113 
L 5691 0 
L 5113 0 
L 5113 2094 
Q 5113 2597 4934 2840 
Q 4756 3084 4391 3084 
Q 3944 3084 3684 2787 
Q 3425 2491 3425 1978 
L 3425 0 
L 2847 0 
L 2847 2094 
Q 2847 2600 2669 2842 
Q 2491 3084 2119 3084 
Q 1678 3084 1418 2786 
Q 1159 2488 1159 1978 
L 1159 0 
L 581 0 
L 581 3500 
L 1159 3500 
L 1159 2956 
Q 1356 3278 1631 3431 
Q 1906 3584 2284 3584 
Q 2666 3584 2933 3390 
Q 3200 3197 3328 2828 
z
" transform="scale(0.015625)"/>
       <path id="DejaVuSans-61" d="M 2194 1759 
Q 1497 1759 1228 1600 
Q 959 1441 959 1056 
Q 959 750 1161 570 
Q 1363 391 1709 391 
Q 2188 391 2477 730 
Q 2766 1069 2766 1631 
L 2766 1759 
L 2194 1759 
z
M 3341 1997 
L 3341 0 
L 2766 0 
L 2766 531 
Q 2569 213 2275 61 
Q 1981 -91 1556 -91 
Q 1019 -91 701 211 
Q 384 513 384 1019 
Q 384 1609 779 1909 
Q 1175 2209 1959 2209 
L 2766 2209 
L 2766 2266 
Q 2766 2663 2505 2880 
Q 2244 3097 1772 3097 
Q 1472 3097 1187 3025 
Q 903 2953 641 2809 
L 641 3341 
Q 956 3463 1253 3523 
Q 1550 3584 1831 3584 
Q 2591 3584 2966 3190 
Q 3341 2797 3341 1997 
z
" transform="scale(0.015625)"/>
       <path id="DejaVuSans-75" d="M 544 1381 
L 544 3500 
L 1119 3500 
L 1119 1403 
Q 1119 906 1312 657 
Q 1506 409 1894 409 
Q 2359 409 2629 706 
Q 2900 1003 2900 1516 
L 2900 3500 
L 3475 3500 
L 3475 0 
L 2900 0 
L 2900 538 
Q 2691 219 2414 64 
Q 2138 -91 1772 -91 
Q 1169 -91 856 284 
Q 544 659 544 1381 
z
M 1991 3584 
L 1991 3584 
z
" transform="scale(0.015625)"/>
       <path id="DejaVuSans-64" d="M 2906 2969 
L 2906 4863 
L 3481 4863 
L 3481 0 
L 2906 0 
L 2906 525 
Q 2725 213 2448 61 
Q 2172 -91 1784 -91 
Q 1150 -91 751 415 
Q 353 922 353 1747 
Q 353 2572 751 3078 
Q 1150 3584 1784 3584 
Q 2172 3584 2448 3432 
Q 2725 3281 2906 2969 
z
M 947 1747 
Q 947 1113 1208 752 
Q 1469 391 1925 391 
Q 2381 391 2643 752 
Q 2906 1113 2906 1747 
Q 2906 2381 2643 2742 
Q 2381 3103 1925 3103 
Q 1469 3103 1208 2742 
Q 947 2381 947 1747 
z
" transform="scale(0.015625)"/>
      </defs>
      <use xlink:href="#DejaVuSans-6d"/>
      <use xlink:href="#DejaVuSans-65" x="97.412109"/>
      <use xlink:href="#DejaVuSans-61" x="158.935547"/>
      <use xlink:href="#DejaVuSans-73" x="220.214844"/>
      <use xlink:href="#DejaVuSans-75" x="272.314453"/>
      <use xlink:href="#DejaVuSans-72" x="335.693359"/>
      <use xlink:href="#DejaVuSans-65" x="374.556641"/>
      <use xlink:href="#DejaVuSans-64" x="436.080078"/>
     </g>
    </g>
    <g id="line2d_23">
     <path d="M 561.04375 70.976562 
L 571.04375 70.976562 
L 581.04375 70.976562 
" style="fill: none; stroke: #ff7f0e; stroke-width: 1.5; stroke-linecap: square"/>
    </g>
    <g id="text_23">
     <!-- predicted -->
     <g transform="translate(589.04375 74.476562) scale(0.1 -0.1)">
      <defs>
       <path id="DejaVuSans-70" d="M 1159 525 
L 1159 -1331 
L 581 -1331 
L 581 3500 
L 1159 3500 
L 1159 2969 
Q 1341 3281 1617 3432 
Q 1894 3584 2278 3584 
Q 2916 3584 3314 3078 
Q 3713 2572 3713 1747 
Q 3713 922 3314 415 
Q 2916 -91 2278 -91 
Q 1894 -91 1617 61 
Q 1341 213 1159 525 
z
M 3116 1747 
Q 3116 2381 2855 2742 
Q 2594 3103 2138 3103 
Q 1681 3103 1420 2742 
Q 1159 2381 1159 1747 
Q 1159 1113 1420 752 
Q 1681 391 2138 391 
Q 2594 391 2855 752 
Q 3116 1113 3116 1747 
z
" transform="scale(0.015625)"/>
       <path id="DejaVuSans-69" d="M 603 3500 
L 1178 3500 
L 1178 0 
L 603 0 
L 603 3500 
z
M 603 4863 
L 1178 4863 
L 1178 4134 
L 603 4134 
L 603 4863 
z
" transform="scale(0.015625)"/>
       <path id="DejaVuSans-63" d="M 3122 3366 
L 3122 2828 
Q 2878 2963 2633 3030 
Q 2388 3097 2138 3097 
Q 1578 3097 1268 2742 
Q 959 2388 959 1747 
Q 959 1106 1268 751 
Q 1578 397 2138 397 
Q 2388 397 2633 464 
Q 2878 531 3122 666 
L 3122 134 
Q 2881 22 2623 -34 
Q 2366 -91 2075 -91 
Q 1284 -91 818 406 
Q 353 903 353 1747 
Q 353 2603 823 3093 
Q 1294 3584 2113 3584 
Q 2378 3584 2631 3529 
Q 2884 3475 3122 3366 
z
" transform="scale(0.015625)"/>
      </defs>
      <use xlink:href="#DejaVuSans-70"/>
      <use xlink:href="#DejaVuSans-72" x="63.476562"/>
      <use xlink:href="#DejaVuSans-65" x="102.339844"/>
      <use xlink:href="#DejaVuSans-64" x="163.863281"/>
      <use xlink:href="#DejaVuSans-69" x="227.339844"/>
      <use xlink:href="#DejaVuSans-63" x="255.123047"/>
      <use xlink:href="#DejaVuSans-74" x="310.103516"/>
      <use xlink:href="#DejaVuSans-65" x="349.3125"/>
      <use xlink:href="#DejaVuSans-64" x="410.835938"/>
     </g>
    </g>
   </g>
  </g>
 </g>
 <defs>
  <clipPath id="p74df72f0c3">
   <rect x="90" y="43.2" width="558" height="244.8"/>
  </clipPath>
 </defs>
</svg>
