<?xml version="1.0" encoding="utf-8" standalone="no"?>
<!DOCTYPE svg PUBLIC "-//W3C//DTD SVG 1.1//EN"
  "http://www.w3.org/Graphics/SVG/1.1/DTD/svg11.dtd">
<svg xmlns:xlink="http://www.w3.org/1999/xlink" width="720pt" height="360pt" viewBox="0 0 720 360" xmlns="http://www.w3.org/2000/svg" version="1.1">
 <metadata>
  <rdf:RDF xmlns:dc="http://purl.org/dc/elements/1.1/" xmlns:cc="http://creativecommons.org/ns#" xmlns:rdf="http://www.w3.org/1999/02/22-rdf-syntax-ns#">
   <cc:Work>
    <dc:type rdf:resource="http://purl.org/dc/dcmitype/StillImage"/>
    <dc:date>2023-10-23T10:55:33.353371</dc:date>
    <dc:format>image/svg+xml</dc:format>
    <dc:creator>
     <cc:Agent>
      <dc:title>Matplotlib v3.7.1, https://matplotlib.org/</dc:title>
     </cc:Agent>
    </dc:creator>
   </cc:Work>
  </rdf:RDF>
 </metadata>
 <defs>
  <style type="text/css">*{stroke-linejoin: round; stroke-linecap: butt}</style>
 </defs>
 <g id="figure_1">
  <g id="patch_1">
   <path d="M 0 360 
L 720 360 
L 720 0 
L 0 0 
z
" style="fill: #ffffff"/>
  </g>
  <g id="axes_1">
   <g id="patch_2">
    <path d="M 90 288 
L 648 288 
L 648 43.2 
L 90 43.2 
z
" style="fill: #ffffff"/>
   </g>
   <g id="matplotlib.axis_1">
    <g id="xtick_1">
     <g id="line2d_1">
      <defs>
       <path id="m5368a06b23" d="M 0 0 
L 0 3.5 
" style="stroke: #000000; stroke-width: 0.8"/>
      </defs>
      <g>
       <use xlink:href="#m5368a06b23" x="93.675016" y="288" style="stroke: #000000; stroke-width: 0.8"/>
      </g>
     </g>
     <g id="text_1">
      <!-- 2023-09-17 -->
      <g transform="translate(32.031675 337.765903) rotate(-30) scale(0.12 -0.12)">
       <defs>
        <path id="DejaVuSans-32" d="M 1228 531 
L 3431 531 
L 3431 0 
L 469 0 
L 469 531 
Q 828 903 1448 1529 
Q 2069 2156 2228 2338 
Q 2531 2678 2651 2914 
Q 2772 3150 2772 3378 
Q 2772 3750 2511 3984 
Q 2250 4219 1831 4219 
Q 1534 4219 1204 4116 
Q 875 4013 500 3803 
L 500 4441 
Q 881 4594 1212 4672 
Q 1544 4750 1819 4750 
Q 2544 4750 2975 4387 
Q 3406 4025 3406 3419 
Q 3406 3131 3298 2873 
Q 3191 2616 2906 2266 
Q 2828 2175 2409 1742 
Q 1991 1309 1228 531 
z
" transform="scale(0.015625)"/>
        <path id="DejaVuSans-30" d="M 2034 4250 
Q 1547 4250 1301 3770 
Q 1056 3291 1056 2328 
Q 1056 1369 1301 889 
Q 1547 409 2034 409 
Q 2525 409 2770 889 
Q 3016 1369 3016 2328 
Q 3016 3291 2770 3770 
Q 2525 4250 2034 4250 
z
M 2034 4750 
Q 2819 4750 3233 4129 
Q 3647 3509 3647 2328 
Q 3647 1150 3233 529 
Q 2819 -91 2034 -91 
Q 1250 -91 836 529 
Q 422 1150 422 2328 
Q 422 3509 836 4129 
Q 1250 4750 2034 4750 
z
" transform="scale(0.015625)"/>
        <path id="DejaVuSans-33" d="M 2597 2516 
Q 3050 2419 3304 2112 
Q 3559 1806 3559 1356 
Q 3559 666 3084 287 
Q 2609 -91 1734 -91 
Q 1441 -91 1130 -33 
Q 819 25 488 141 
L 488 750 
Q 750 597 1062 519 
Q 1375 441 1716 441 
Q 2309 441 2620 675 
Q 2931 909 2931 1356 
Q 2931 1769 2642 2001 
Q 2353 2234 1838 2234 
L 1294 2234 
L 1294 2753 
L 1863 2753 
Q 2328 2753 2575 2939 
Q 2822 3125 2822 3475 
Q 2822 3834 2567 4026 
Q 2313 4219 1838 4219 
Q 1578 4219 1281 4162 
Q 984 4106 628 3988 
L 628 4550 
Q 988 4650 1302 4700 
Q 1616 4750 1894 4750 
Q 2613 4750 3031 4423 
Q 3450 4097 3450 3541 
Q 3450 3153 3228 2886 
Q 3006 2619 2597 2516 
z
" transform="scale(0.015625)"/>
        <path id="DejaVuSans-2d" d="M 313 2009 
L 1997 2009 
L 1997 1497 
L 313 1497 
L 313 2009 
z
" transform="scale(0.015625)"/>
        <path id="DejaVuSans-39" d="M 703 97 
L 703 672 
Q 941 559 1184 500 
Q 1428 441 1663 441 
Q 2288 441 2617 861 
Q 2947 1281 2994 2138 
Q 2813 1869 2534 1725 
Q 2256 1581 1919 1581 
Q 1219 1581 811 2004 
Q 403 2428 403 3163 
Q 403 3881 828 4315 
Q 1253 4750 1959 4750 
Q 2769 4750 3195 4129 
Q 3622 3509 3622 2328 
Q 3622 1225 3098 567 
Q 2575 -91 1691 -91 
Q 1453 -91 1209 -44 
Q 966 3 703 97 
z
M 1959 2075 
Q 2384 2075 2632 2365 
Q 2881 2656 2881 3163 
Q 2881 3666 2632 3958 
Q 2384 4250 1959 4250 
Q 1534 4250 1286 3958 
Q 1038 3666 1038 3163 
Q 1038 2656 1286 2365 
Q 1534 2075 1959 2075 
z
" transform="scale(0.015625)"/>
        <path id="DejaVuSans-31" d="M 794 531 
L 1825 531 
L 1825 4091 
L 703 3866 
L 703 4441 
L 1819 4666 
L 2450 4666 
L 2450 531 
L 3481 531 
L 3481 0 
L 794 0 
L 794 531 
z
" transform="scale(0.015625)"/>
        <path id="DejaVuSans-37" d="M 525 4666 
L 3525 4666 
L 3525 4397 
L 1831 0 
L 1172 0 
L 2766 4134 
L 525 4134 
L 525 4666 
z
" transform="scale(0.015625)"/>
       </defs>
       <use xlink:href="#DejaVuSans-32"/>
       <use xlink:href="#DejaVuSans-30" x="63.623047"/>
       <use xlink:href="#DejaVuSans-32" x="127.246094"/>
       <use xlink:href="#DejaVuSans-33" x="190.869141"/>
       <use xlink:href="#DejaVuSans-2d" x="254.492188"/>
       <use xlink:href="#DejaVuSans-30" x="290.576172"/>
       <use xlink:href="#DejaVuSans-39" x="354.199219"/>
       <use xlink:href="#DejaVuSans-2d" x="417.822266"/>
       <use xlink:href="#DejaVuSans-31" x="453.90625"/>
       <use xlink:href="#DejaVuSans-37" x="517.529297"/>
      </g>
     </g>
    </g>
    <g id="xtick_2">
     <g id="line2d_2">
      <g>
       <use xlink:href="#m5368a06b23" x="151.511337" y="288" style="stroke: #000000; stroke-width: 0.8"/>
      </g>
     </g>
     <g id="text_2">
      <!-- 2023-09-21 -->
      <g transform="translate(89.867995 337.765903) rotate(-30) scale(0.12 -0.12)">
       <use xlink:href="#DejaVuSans-32"/>
       <use xlink:href="#DejaVuSans-30" x="63.623047"/>
       <use xlink:href="#DejaVuSans-32" x="127.246094"/>
       <use xlink:href="#DejaVuSans-33" x="190.869141"/>
       <use xlink:href="#DejaVuSans-2d" x="254.492188"/>
       <use xlink:href="#DejaVuSans-30" x="290.576172"/>
       <use xlink:href="#DejaVuSans-39" x="354.199219"/>
       <use xlink:href="#DejaVuSans-2d" x="417.822266"/>
       <use xlink:href="#DejaVuSans-32" x="453.90625"/>
       <use xlink:href="#DejaVuSans-31" x="517.529297"/>
      </g>
     </g>
    </g>
    <g id="xtick_3">
     <g id="line2d_3">
      <g>
       <use xlink:href="#m5368a06b23" x="209.347657" y="288" style="stroke: #000000; stroke-width: 0.8"/>
      </g>
     </g>
     <g id="text_3">
      <!-- 2023-09-25 -->
      <g transform="translate(147.704315 337.765903) rotate(-30) scale(0.12 -0.12)">
       <defs>
        <path id="DejaVuSans-35" d="M 691 4666 
L 3169 4666 
L 3169 4134 
L 1269 4134 
L 1269 2991 
Q 1406 3038 1543 3061 
Q 1681 3084 1819 3084 
Q 2600 3084 3056 2656 
Q 3513 2228 3513 1497 
Q 3513 744 3044 326 
Q 2575 -91 1722 -91 
Q 1428 -91 1123 -41 
Q 819 9 494 109 
L 494 744 
Q 775 591 1075 516 
Q 1375 441 1709 441 
Q 2250 441 2565 725 
Q 2881 1009 2881 1497 
Q 2881 1984 2565 2268 
Q 2250 2553 1709 2553 
Q 1456 2553 1204 2497 
Q 953 2441 691 2322 
L 691 4666 
z
" transform="scale(0.015625)"/>
       </defs>
       <use xlink:href="#DejaVuSans-32"/>
       <use xlink:href="#DejaVuSans-30" x="63.623047"/>
       <use xlink:href="#DejaVuSans-32" x="127.246094"/>
       <use xlink:href="#DejaVuSans-33" x="190.869141"/>
       <use xlink:href="#DejaVuSans-2d" x="254.492188"/>
       <use xlink:href="#DejaVuSans-30" x="290.576172"/>
       <use xlink:href="#DejaVuSans-39" x="354.199219"/>
       <use xlink:href="#DejaVuSans-2d" x="417.822266"/>
       <use xlink:href="#DejaVuSans-32" x="453.90625"/>
       <use xlink:href="#DejaVuSans-35" x="517.529297"/>
      </g>
     </g>
    </g>
    <g id="xtick_4">
     <g id="line2d_4">
      <g>
       <use xlink:href="#m5368a06b23" x="267.183978" y="288" style="stroke: #000000; stroke-width: 0.8"/>
      </g>
     </g>
     <g id="text_4">
      <!-- 2023-09-29 -->
      <g transform="translate(205.540636 337.765903) rotate(-30) scale(0.12 -0.12)">
       <use xlink:href="#DejaVuSans-32"/>
       <use xlink:href="#DejaVuSans-30" x="63.623047"/>
       <use xlink:href="#DejaVuSans-32" x="127.246094"/>
       <use xlink:href="#DejaVuSans-33" x="190.869141"/>
       <use xlink:href="#DejaVuSans-2d" x="254.492188"/>
       <use xlink:href="#DejaVuSans-30" x="290.576172"/>
       <use xlink:href="#DejaVuSans-39" x="354.199219"/>
       <use xlink:href="#DejaVuSans-2d" x="417.822266"/>
       <use xlink:href="#DejaVuSans-32" x="453.90625"/>
       <use xlink:href="#DejaVuSans-39" x="517.529297"/>
      </g>
     </g>
    </g>
    <g id="xtick_5">
     <g id="line2d_5">
      <g>
       <use xlink:href="#m5368a06b23" x="296.102138" y="288" style="stroke: #000000; stroke-width: 0.8"/>
      </g>
     </g>
     <g id="text_5">
      <!-- 2023-10-01 -->
      <g transform="translate(234.458796 337.765903) rotate(-30) scale(0.12 -0.12)">
       <use xlink:href="#DejaVuSans-32"/>
       <use xlink:href="#DejaVuSans-30" x="63.623047"/>
       <use xlink:href="#DejaVuSans-32" x="127.246094"/>
       <use xlink:href="#DejaVuSans-33" x="190.869141"/>
       <use xlink:href="#DejaVuSans-2d" x="254.492188"/>
       <use xlink:href="#DejaVuSans-31" x="290.576172"/>
       <use xlink:href="#DejaVuSans-30" x="354.199219"/>
       <use xlink:href="#DejaVuSans-2d" x="417.822266"/>
       <use xlink:href="#DejaVuSans-30" x="453.90625"/>
       <use xlink:href="#DejaVuSans-31" x="517.529297"/>
      </g>
     </g>
    </g>
    <g id="xtick_6">
     <g id="line2d_6">
      <g>
       <use xlink:href="#m5368a06b23" x="353.938458" y="288" style="stroke: #000000; stroke-width: 0.8"/>
      </g>
     </g>
     <g id="text_6">
      <!-- 2023-10-05 -->
      <g transform="translate(292.295117 337.765903) rotate(-30) scale(0.12 -0.12)">
       <use xlink:href="#DejaVuSans-32"/>
       <use xlink:href="#DejaVuSans-30" x="63.623047"/>
       <use xlink:href="#DejaVuSans-32" x="127.246094"/>
       <use xlink:href="#DejaVuSans-33" x="190.869141"/>
       <use xlink:href="#DejaVuSans-2d" x="254.492188"/>
       <use xlink:href="#DejaVuSans-31" x="290.576172"/>
       <use xlink:href="#DejaVuSans-30" x="354.199219"/>
       <use xlink:href="#DejaVuSans-2d" x="417.822266"/>
       <use xlink:href="#DejaVuSans-30" x="453.90625"/>
       <use xlink:href="#DejaVuSans-35" x="517.529297"/>
      </g>
     </g>
    </g>
    <g id="xtick_7">
     <g id="line2d_7">
      <g>
       <use xlink:href="#m5368a06b23" x="411.774779" y="288" style="stroke: #000000; stroke-width: 0.8"/>
      </g>
     </g>
     <g id="text_7">
      <!-- 2023-10-09 -->
      <g transform="translate(350.131437 337.765903) rotate(-30) scale(0.12 -0.12)">
       <use xlink:href="#DejaVuSans-32"/>
       <use xlink:href="#DejaVuSans-30" x="63.623047"/>
       <use xlink:href="#DejaVuSans-32" x="127.246094"/>
       <use xlink:href="#DejaVuSans-33" x="190.869141"/>
       <use xlink:href="#DejaVuSans-2d" x="254.492188"/>
       <use xlink:href="#DejaVuSans-31" x="290.576172"/>
       <use xlink:href="#DejaVuSans-30" x="354.199219"/>
       <use xlink:href="#DejaVuSans-2d" x="417.822266"/>
       <use xlink:href="#DejaVuSans-30" x="453.90625"/>
       <use xlink:href="#DejaVuSans-39" x="517.529297"/>
      </g>
     </g>
    </g>
    <g id="xtick_8">
     <g id="line2d_8">
      <g>
       <use xlink:href="#m5368a06b23" x="469.611099" y="288" style="stroke: #000000; stroke-width: 0.8"/>
      </g>
     </g>
     <g id="text_8">
      <!-- 2023-10-13 -->
      <g transform="translate(407.967757 337.765903) rotate(-30) scale(0.12 -0.12)">
       <use xlink:href="#DejaVuSans-32"/>
       <use xlink:href="#DejaVuSans-30" x="63.623047"/>
       <use xlink:href="#DejaVuSans-32" x="127.246094"/>
       <use xlink:href="#DejaVuSans-33" x="190.869141"/>
       <use xlink:href="#DejaVuSans-2d" x="254.492188"/>
       <use xlink:href="#DejaVuSans-31" x="290.576172"/>
       <use xlink:href="#DejaVuSans-30" x="354.199219"/>
       <use xlink:href="#DejaVuSans-2d" x="417.822266"/>
       <use xlink:href="#DejaVuSans-31" x="453.90625"/>
       <use xlink:href="#DejaVuSans-33" x="517.529297"/>
      </g>
     </g>
    </g>
    <g id="xtick_9">
     <g id="line2d_9">
      <g>
       <use xlink:href="#m5368a06b23" x="527.44742" y="288" style="stroke: #000000; stroke-width: 0.8"/>
      </g>
     </g>
     <g id="text_9">
      <!-- 2023-10-17 -->
      <g transform="translate(465.804078 337.765903) rotate(-30) scale(0.12 -0.12)">
       <use xlink:href="#DejaVuSans-32"/>
       <use xlink:href="#DejaVuSans-30" x="63.623047"/>
       <use xlink:href="#DejaVuSans-32" x="127.246094"/>
       <use xlink:href="#DejaVuSans-33" x="190.869141"/>
       <use xlink:href="#DejaVuSans-2d" x="254.492188"/>
       <use xlink:href="#DejaVuSans-31" x="290.576172"/>
       <use xlink:href="#DejaVuSans-30" x="354.199219"/>
       <use xlink:href="#DejaVuSans-2d" x="417.822266"/>
       <use xlink:href="#DejaVuSans-31" x="453.90625"/>
       <use xlink:href="#DejaVuSans-37" x="517.529297"/>
      </g>
     </g>
    </g>
    <g id="xtick_10">
     <g id="line2d_10">
      <g>
       <use xlink:href="#m5368a06b23" x="585.28374" y="288" style="stroke: #000000; stroke-width: 0.8"/>
      </g>
     </g>
     <g id="text_10">
      <!-- 2023-10-21 -->
      <g transform="translate(523.640398 337.765903) rotate(-30) scale(0.12 -0.12)">
       <use xlink:href="#DejaVuSans-32"/>
       <use xlink:href="#DejaVuSans-30" x="63.623047"/>
       <use xlink:href="#DejaVuSans-32" x="127.246094"/>
       <use xlink:href="#DejaVuSans-33" x="190.869141"/>
       <use xlink:href="#DejaVuSans-2d" x="254.492188"/>
       <use xlink:href="#DejaVuSans-31" x="290.576172"/>
       <use xlink:href="#DejaVuSans-30" x="354.199219"/>
       <use xlink:href="#DejaVuSans-2d" x="417.822266"/>
       <use xlink:href="#DejaVuSans-32" x="453.90625"/>
       <use xlink:href="#DejaVuSans-31" x="517.529297"/>
      </g>
     </g>
    </g>
    <g id="xtick_11">
     <g id="line2d_11">
      <g>
       <use xlink:href="#m5368a06b23" x="643.12006" y="288" style="stroke: #000000; stroke-width: 0.8"/>
      </g>
     </g>
     <g id="text_11">
      <!-- 2023-10-25 -->
      <g transform="translate(581.476719 337.765903) rotate(-30) scale(0.12 -0.12)">
       <use xlink:href="#DejaVuSans-32"/>
       <use xlink:href="#DejaVuSans-30" x="63.623047"/>
       <use xlink:href="#DejaVuSans-32" x="127.246094"/>
       <use xlink:href="#DejaVuSans-33" x="190.869141"/>
       <use xlink:href="#DejaVuSans-2d" x="254.492188"/>
       <use xlink:href="#DejaVuSans-31" x="290.576172"/>
       <use xlink:href="#DejaVuSans-30" x="354.199219"/>
       <use xlink:href="#DejaVuSans-2d" x="417.822266"/>
       <use xlink:href="#DejaVuSans-32" x="453.90625"/>
       <use xlink:href="#DejaVuSans-35" x="517.529297"/>
      </g>
     </g>
    </g>
   </g>
   <g id="matplotlib.axis_2">
    <g id="ytick_1">
     <g id="line2d_12">
      <defs>
       <path id="m86241be532" d="M 0 0 
L -3.5 0 
" style="stroke: #000000; stroke-width: 0.8"/>
      </defs>
      <g>
       <use xlink:href="#m86241be532" x="90" y="266.915841" style="stroke: #000000; stroke-width: 0.8"/>
      </g>
     </g>
     <g id="text_12">
      <!-- −0.2 -->
      <g transform="translate(53.860625 271.474904) scale(0.12 -0.12)">
       <defs>
        <path id="DejaVuSans-2212" d="M 678 2272 
L 4684 2272 
L 4684 1741 
L 678 1741 
L 678 2272 
z
" transform="scale(0.015625)"/>
        <path id="DejaVuSans-2e" d="M 684 794 
L 1344 794 
L 1344 0 
L 684 0 
L 684 794 
z
" transform="scale(0.015625)"/>
       </defs>
       <use xlink:href="#DejaVuSans-2212"/>
       <use xlink:href="#DejaVuSans-30" x="83.789062"/>
       <use xlink:href="#DejaVuSans-2e" x="147.412109"/>
       <use xlink:href="#DejaVuSans-32" x="179.199219"/>
      </g>
     </g>
    </g>
    <g id="ytick_2">
     <g id="line2d_13">
      <g>
       <use xlink:href="#m86241be532" x="90" y="228.461522" style="stroke: #000000; stroke-width: 0.8"/>
      </g>
     </g>
     <g id="text_13">
      <!-- 0.0 -->
      <g transform="translate(63.91625 233.020585) scale(0.12 -0.12)">
       <use xlink:href="#DejaVuSans-30"/>
       <use xlink:href="#DejaVuSans-2e" x="63.623047"/>
       <use xlink:href="#DejaVuSans-30" x="95.410156"/>
      </g>
     </g>
    </g>
    <g id="ytick_3">
     <g id="line2d_14">
      <g>
       <use xlink:href="#m86241be532" x="90" y="190.007203" style="stroke: #000000; stroke-width: 0.8"/>
      </g>
     </g>
     <g id="text_14">
      <!-- 0.2 -->
      <g transform="translate(63.91625 194.566265) scale(0.12 -0.12)">
       <use xlink:href="#DejaVuSans-30"/>
       <use xlink:href="#DejaVuSans-2e" x="63.623047"/>
       <use xlink:href="#DejaVuSans-32" x="95.410156"/>
      </g>
     </g>
    </g>
    <g id="ytick_4">
     <g id="line2d_15">
      <g>
       <use xlink:href="#m86241be532" x="90" y="151.552884" style="stroke: #000000; stroke-width: 0.8"/>
      </g>
     </g>
     <g id="text_15">
      <!-- 0.4 -->
      <g transform="translate(63.91625 156.111946) scale(0.12 -0.12)">
       <defs>
        <path id="DejaVuSans-34" d="M 2419 4116 
L 825 1625 
L 2419 1625 
L 2419 4116 
z
M 2253 4666 
L 3047 4666 
L 3047 1625 
L 3713 1625 
L 3713 1100 
L 3047 1100 
L 3047 0 
L 2419 0 
L 2419 1100 
L 313 1100 
L 313 1709 
L 2253 4666 
z
" transform="scale(0.015625)"/>
       </defs>
       <use xlink:href="#DejaVuSans-30"/>
       <use xlink:href="#DejaVuSans-2e" x="63.623047"/>
       <use xlink:href="#DejaVuSans-34" x="95.410156"/>
      </g>
     </g>
    </g>
    <g id="ytick_5">
     <g id="line2d_16">
      <g>
       <use xlink:href="#m86241be532" x="90" y="113.098564" style="stroke: #000000; stroke-width: 0.8"/>
      </g>
     </g>
     <g id="text_16">
      <!-- 0.6 -->
      <g transform="translate(63.91625 117.657627) scale(0.12 -0.12)">
       <defs>
        <path id="DejaVuSans-36" d="M 2113 2584 
Q 1688 2584 1439 2293 
Q 1191 2003 1191 1497 
Q 1191 994 1439 701 
Q 1688 409 2113 409 
Q 2538 409 2786 701 
Q 3034 994 3034 1497 
Q 3034 2003 2786 2293 
Q 2538 2584 2113 2584 
z
M 3366 4563 
L 3366 3988 
Q 3128 4100 2886 4159 
Q 2644 4219 2406 4219 
Q 1781 4219 1451 3797 
Q 1122 3375 1075 2522 
Q 1259 2794 1537 2939 
Q 1816 3084 2150 3084 
Q 2853 3084 3261 2657 
Q 3669 2231 3669 1497 
Q 3669 778 3244 343 
Q 2819 -91 2113 -91 
Q 1303 -91 875 529 
Q 447 1150 447 2328 
Q 447 3434 972 4092 
Q 1497 4750 2381 4750 
Q 2619 4750 2861 4703 
Q 3103 4656 3366 4563 
z
" transform="scale(0.015625)"/>
       </defs>
       <use xlink:href="#DejaVuSans-30"/>
       <use xlink:href="#DejaVuSans-2e" x="63.623047"/>
       <use xlink:href="#DejaVuSans-36" x="95.410156"/>
      </g>
     </g>
    </g>
    <g id="ytick_6">
     <g id="line2d_17">
      <g>
       <use xlink:href="#m86241be532" x="90" y="74.644245" style="stroke: #000000; stroke-width: 0.8"/>
      </g>
     </g>
     <g id="text_17">
      <!-- 0.8 -->
      <g transform="translate(63.91625 79.203308) scale(0.12 -0.12)">
       <defs>
        <path id="DejaVuSans-38" d="M 2034 2216 
Q 1584 2216 1326 1975 
Q 1069 1734 1069 1313 
Q 1069 891 1326 650 
Q 1584 409 2034 409 
Q 2484 409 2743 651 
Q 3003 894 3003 1313 
Q 3003 1734 2745 1975 
Q 2488 2216 2034 2216 
z
M 1403 2484 
Q 997 2584 770 2862 
Q 544 3141 544 3541 
Q 544 4100 942 4425 
Q 1341 4750 2034 4750 
Q 2731 4750 3128 4425 
Q 3525 4100 3525 3541 
Q 3525 3141 3298 2862 
Q 3072 2584 2669 2484 
Q 3125 2378 3379 2068 
Q 3634 1759 3634 1313 
Q 3634 634 3220 271 
Q 2806 -91 2034 -91 
Q 1263 -91 848 271 
Q 434 634 434 1313 
Q 434 1759 690 2068 
Q 947 2378 1403 2484 
z
M 1172 3481 
Q 1172 3119 1398 2916 
Q 1625 2713 2034 2713 
Q 2441 2713 2670 2916 
Q 2900 3119 2900 3481 
Q 2900 3844 2670 4047 
Q 2441 4250 2034 4250 
Q 1625 4250 1398 4047 
Q 1172 3844 1172 3481 
z
" transform="scale(0.015625)"/>
       </defs>
       <use xlink:href="#DejaVuSans-30"/>
       <use xlink:href="#DejaVuSans-2e" x="63.623047"/>
       <use xlink:href="#DejaVuSans-38" x="95.410156"/>
      </g>
     </g>
    </g>
    <g id="text_18">
     <!-- Meters -->
     <g transform="translate(47.780937 182.6875) rotate(-90) scale(0.1 -0.1)">
      <defs>
       <path id="DejaVuSans-4d" d="M 628 4666 
L 1569 4666 
L 2759 1491 
L 3956 4666 
L 4897 4666 
L 4897 0 
L 4281 0 
L 4281 4097 
L 3078 897 
L 2444 897 
L 1241 4097 
L 1241 0 
L 628 0 
L 628 4666 
z
" transform="scale(0.015625)"/>
       <path id="DejaVuSans-65" d="M 3597 1894 
L 3597 1613 
L 953 1613 
Q 991 1019 1311 708 
Q 1631 397 2203 397 
Q 2534 397 2845 478 
Q 3156 559 3463 722 
L 3463 178 
Q 3153 47 2828 -22 
Q 2503 -91 2169 -91 
Q 1331 -91 842 396 
Q 353 884 353 1716 
Q 353 2575 817 3079 
Q 1281 3584 2069 3584 
Q 2775 3584 3186 3129 
Q 3597 2675 3597 1894 
z
M 3022 2063 
Q 3016 2534 2758 2815 
Q 2500 3097 2075 3097 
Q 1594 3097 1305 2825 
Q 1016 2553 972 2059 
L 3022 2063 
z
" transform="scale(0.015625)"/>
       <path id="DejaVuSans-74" d="M 1172 4494 
L 1172 3500 
L 2356 3500 
L 2356 3053 
L 1172 3053 
L 1172 1153 
Q 1172 725 1289 603 
Q 1406 481 1766 481 
L 2356 481 
L 2356 0 
L 1766 0 
Q 1100 0 847 248 
Q 594 497 594 1153 
L 594 3053 
L 172 3053 
L 172 3500 
L 594 3500 
L 594 4494 
L 1172 4494 
z
" transform="scale(0.015625)"/>
       <path id="DejaVuSans-72" d="M 2631 2963 
Q 2534 3019 2420 3045 
Q 2306 3072 2169 3072 
Q 1681 3072 1420 2755 
Q 1159 2438 1159 1844 
L 1159 0 
L 581 0 
L 581 3500 
L 1159 3500 
L 1159 2956 
Q 1341 3275 1631 3429 
Q 1922 3584 2338 3584 
Q 2397 3584 2469 3576 
Q 2541 3569 2628 3553 
L 2631 2963 
z
" transform="scale(0.015625)"/>
       <path id="DejaVuSans-73" d="M 2834 3397 
L 2834 2853 
Q 2591 2978 2328 3040 
Q 2066 3103 1784 3103 
Q 1356 3103 1142 2972 
Q 928 2841 928 2578 
Q 928 2378 1081 2264 
Q 1234 2150 1697 2047 
L 1894 2003 
Q 2506 1872 2764 1633 
Q 3022 1394 3022 966 
Q 3022 478 2636 193 
Q 2250 -91 1575 -91 
Q 1294 -91 989 -36 
Q 684 19 347 128 
L 347 722 
Q 666 556 975 473 
Q 1284 391 1588 391 
Q 1994 391 2212 530 
Q 2431 669 2431 922 
Q 2431 1156 2273 1281 
Q 2116 1406 1581 1522 
L 1381 1569 
Q 847 1681 609 1914 
Q 372 2147 372 2553 
Q 372 3047 722 3315 
Q 1072 3584 1716 3584 
Q 2034 3584 2315 3537 
Q 2597 3491 2834 3397 
z
" transform="scale(0.015625)"/>
      </defs>
      <use xlink:href="#DejaVuSans-4d"/>
      <use xlink:href="#DejaVuSans-65" x="86.279297"/>
      <use xlink:href="#DejaVuSans-74" x="147.802734"/>
      <use xlink:href="#DejaVuSans-65" x="187.011719"/>
      <use xlink:href="#DejaVuSans-72" x="248.535156"/>
      <use xlink:href="#DejaVuSans-73" x="289.648438"/>
     </g>
    </g>
   </g>
   <g id="line2d_18">
    <path d="M 115.363636 140.827341 
L 115.966098 140.699193 
L 116.56856 140.346785 
L 117.171021 140.442897 
L 117.773483 146.305679 
L 118.375945 146.40179 
L 118.978406 153.610129 
L 119.580868 156.076983 
L 120.18333 155.01976 
L 120.785791 156.954799 
L 121.388253 158.159392 
L 121.990715 153.706241 
L 122.593176 147.71531 
L 123.195638 144.191233 
L 125.003023 126.698997 
L 125.605485 123.271031 
L 126.207946 126.250478 
L 126.810408 126.026219 
L 128.015331 139.065303 
L 128.617793 142.012713 
L 129.220255 148.836607 
L 129.822716 151.239387 
L 130.425178 153.033462 
L 131.02764 156.65365 
L 131.630101 153.994574 
L 132.232563 148.836607 
L 132.835025 141.596231 
L 133.437487 141.147712 
L 134.039948 137.143079 
L 134.64241 134.580114 
L 135.244872 136.982894 
L 135.847333 137.399376 
L 136.449795 140.635119 
L 137.052257 145.985308 
L 137.654718 149.189015 
L 138.25718 149.381237 
L 138.859642 148.003643 
L 139.462103 145.152345 
L 140.064565 141.211786 
L 141.269488 130.959926 
L 141.87195 127.692146 
L 142.474412 125.35344 
L 143.076873 124.680662 
L 143.679335 125.417514 
L 144.281797 126.506775 
L 145.48672 134.484003 
L 146.089182 137.335302 
L 146.691643 141.000342 
L 147.294105 142.813639 
L 148.499028 148.420125 
L 149.10149 145.376604 
L 149.703952 139.155007 
L 150.908875 123.431217 
L 151.511337 116.671396 
L 152.71626 112.730838 
L 153.318722 114.621024 
L 153.921183 119.266398 
L 154.523645 125.641774 
L 155.126107 135.028633 
L 156.33103 145.761049 
L 156.933492 147.651236 
L 157.535953 147.362902 
L 158.138415 149.317163 
L 158.740877 144.831974 
L 159.343338 141.564194 
L 159.9458 135.349004 
L 161.150723 126.346589 
L 161.753185 124.232143 
L 162.355647 126.282515 
L 162.958108 129.646407 
L 163.56057 129.678444 
L 164.163032 133.907336 
L 164.765493 140.314748 
L 165.367955 142.172898 
L 165.970417 139.674007 
L 167.17534 128.813443 
L 167.777802 121.701215 
L 168.380263 116.318989 
L 168.982725 115.838433 
L 169.585187 118.369361 
L 170.187648 122.566216 
L 170.79011 125.001033 
L 172.597495 140.442897 
L 173.802418 146.113457 
L 174.40488 144.928085 
L 175.007342 142.845676 
L 175.609803 137.559561 
L 176.212265 128.493072 
L 176.814727 121.284733 
L 177.417189 196.937053 
L 178.01965 112.314356 
L 178.622112 111.385281 
L 179.224574 106.48361 
L 179.827035 105.746758 
L 180.429497 112.794912 
L 181.031959 110.808614 
L 181.63442 100.877125 
L 182.236882 102.286755 
L 182.839344 104.30509 
L 183.441805 176.708851 
L 184.044267 113.884172 
L 184.646729 123.142883 
L 185.851652 147.042532 
L 186.454114 150.598645 
L 187.056575 138.168265 
L 187.659037 128.396961 
L 188.261499 124.26418 
L 188.86396 118.125879 
L 189.466422 114.23658 
L 190.068884 111.974763 
L 190.671345 105.285424 
L 191.273807 100.172309 
L 191.876269 91.778599 
L 192.47873 78.028292 
L 193.081192 77.028735 
L 193.683654 80.950072 
L 194.286115 73.068954 
L 194.888577 77.201735 
L 195.491039 86.011928 
L 196.0935 97.192862 
L 196.695962 111.929911 
L 197.298424 122.245845 
L 197.900885 121.925475 
L 198.503347 114.877321 
L 199.105809 116.030655 
L 200.310732 107.765093 
L 200.913194 104.273053 
L 201.515655 96.071565 
L 202.118117 98.410271 
L 202.720579 113.051208 
L 203.32304 123.078809 
L 203.925502 126.923256 
L 204.527964 124.840847 
L 205.130425 121.412882 
L 205.732887 114.973432 
L 206.335349 112.506578 
L 206.93781 108.630094 
L 208.142734 112.512986 
L 208.745195 111.865837 
L 209.347657 110.52028 
L 210.55258 122.181771 
L 211.155042 117.312138 
L 211.757504 108.88639 
L 212.359965 113.563801 
L 212.962427 124.648625 
L 213.564889 129.518258 
L 214.16735 126.410663 
L 214.769812 136.438264 
L 215.372274 142.204935 
L 215.974735 138.776969 
L 217.179659 128.525109 
L 217.78212 126.314552 
L 218.384582 117.632508 
L 218.987044 115.710284 
L 219.589506 119.843066 
L 220.191967 121.028437 
L 220.794429 114.813247 
L 221.396891 107.130759 
L 221.999352 101.229532 
L 222.601814 105.39435 
L 223.204276 106.932129 
L 223.806737 106.868055 
L 224.409199 116.511211 
L 225.011661 130.159 
L 225.614122 135.957708 
L 226.216584 135.381041 
L 226.819046 134.227707 
L 228.023969 125.417514 
L 228.626431 119.298435 
L 229.228892 121.829363 
L 229.831354 125.609737 
L 230.433816 127.275664 
L 231.036277 124.392328 
L 231.638739 120.195473 
L 232.241201 118.978065 
L 232.843662 125.930107 
L 233.446124 126.346589 
L 234.048586 125.622552 
L 234.651047 123.463254 
L 235.253509 123.367142 
L 235.855971 118.753805 
L 236.458432 108.918427 
L 237.060894 101.133421 
L 237.663356 95.046379 
L 238.265817 85.787668 
L 238.868279 82.327665 
L 239.470741 84.057667 
L 240.073202 92.483414 
L 240.675664 105.708314 
L 241.278126 110.552317 
L 243.085511 116.126766 
L 243.687972 120.323621 
L 244.290434 121.086104 
L 244.892896 123.975847 
L 246.097819 118.849917 
L 246.700281 119.202324 
L 247.302742 118.145101 
L 247.905204 112.826949 
L 248.507666 114.396765 
L 249.110127 113.896987 
L 250.315051 118.279657 
L 250.917512 116.895656 
L 251.519974 112.666764 
L 252.122436 110.584354 
L 252.724897 104.080831 
L 253.327359 92.034895 
L 253.929821 88.38267 
L 254.532282 103.376015 
L 255.134744 112.698801 
L 255.737206 118.561583 
L 256.339667 121.444919 
L 256.942129 121.060474 
L 257.544591 124.328254 
L 258.147052 130.062888 
L 258.749514 127.435849 
L 259.351976 122.886586 
L 259.954437 276.872727 
L 260.556899 117.151952 
L 261.761823 124.904921 
L 262.364284 128.268813 
L 262.966746 128.84548 
L 263.569208 129.678444 
L 264.171669 132.369557 
L 265.376593 135.669374 
L 266.581516 123.879735 
L 267.183978 122.117697 
L 267.786439 121.8614 
L 268.388901 124.648625 
L 268.991363 128.685295 
L 269.593824 134.836411 
L 270.196286 139.609933 
L 270.798748 142.172898 
L 271.401209 141.628268 
L 272.003671 141.756416 
L 272.606133 143.486418 
L 273.208594 139.001229 
L 273.811056 136.310116 
L 274.413518 135.701411 
L 275.015979 138.296413 
L 275.618441 136.470301 
L 276.220903 134.227707 
L 277.425826 136.662523 
L 278.028288 139.64197 
L 278.630749 140.795304 
L 279.233211 142.781602 
L 279.835673 142.461232 
L 281.040596 134.099558 
L 282.245519 129.06974 
L 282.847981 129.454184 
L 283.450443 131.056037 
L 284.655366 146.914383 
L 285.860289 154.154759 
L 287.065213 141.596231 
L 287.667674 141.692342 
L 288.270136 139.129377 
L 288.872598 135.989745 
L 289.475059 136.021782 
L 290.077521 136.630486 
L 290.679983 135.893634 
L 291.282444 208.13721 
L 291.884906 140.394841 
L 292.487368 144.191233 
L 293.089829 143.537677 
L 293.692291 144.671789 
L 294.294753 146.273642 
L 294.897214 146.658087 
L 295.499676 149.124941 
L 296.704599 137.944006 
L 297.307061 136.181967 
L 297.909523 136.726597 
L 298.511984 139.033266 
L 299.114446 142.301046 
L 299.716908 147.939569 
L 300.319369 150.246238 
L 300.921831 150.470497 
L 301.524293 148.131792 
L 302.126754 147.747347 
L 302.729216 141.596231 
L 303.331678 138.616784 
L 304.536601 130.062888 
L 305.741525 141.532157 
L 306.343986 144.735863 
L 306.946448 150.246238 
L 307.54891 152.520869 
L 308.151371 152.873277 
L 308.753833 150.630683 
L 309.356295 150.566608 
L 309.958756 151.816054 
L 310.561218 144.479567 
L 311.16368 143.422343 
L 311.766141 138.937155 
L 312.368603 135.477152 
L 312.971065 138.616784 
L 314.175988 143.614566 
L 314.77845 147.71531 
L 315.380911 152.649017 
L 315.983373 151.75198 
L 316.585835 156.173094 
L 317.188296 157.102169 
L 317.790758 151.495683 
L 318.39322 142.941788 
L 319.598143 135.573263 
L 320.200605 132.946224 
L 320.803066 139.738081 
L 321.405528 142.525306 
L 322.00799 144.543641 
L 322.610451 150.214201 
L 323.212913 149.842571 
L 324.417836 153.642166 
L 325.020298 147.010494 
L 325.62276 142.461232 
L 326.225221 142.429195 
L 327.430145 138.55271 
L 328.032606 140.95549 
L 328.635068 140.571045 
L 329.23753 143.005862 
L 329.839991 144.960122 
L 330.442453 149.221052 
L 331.044915 151.303461 
L 331.647376 152.328647 
L 332.249838 150.278275 
L 332.8523 147.202717 
L 333.454761 145.53679 
L 334.057223 144.479567 
L 334.659685 142.621417 
L 335.262146 138.55271 
L 335.864608 137.271227 
L 336.46707 140.193008 
L 337.069531 141.179749 
L 337.671993 141.615453 
L 338.274455 142.807232 
L 338.876916 144.7679 
L 339.479378 141.339934 
L 340.08184 136.438264 
L 340.684301 132.786039 
L 341.286763 132.850113 
L 341.889225 134.387892 
L 342.491686 135.316967 
L 343.094148 136.91882 
L 344.299071 147.202717 
L 345.503995 149.445311 
L 346.708918 147.555125 
L 347.31138 147.49105 
L 347.913842 144.703826 
L 348.516303 144.095122 
L 349.118765 142.333083 
L 349.721227 142.204935 
L 350.323688 140.442897 
L 350.92615 135.445115 
L 351.528612 134.676225 
L 352.131073 134.163632 
L 352.733535 132.305483 
L 353.938458 139.033266 
L 354.54092 141.083638 
L 355.143382 141.404009 
L 355.745843 141.884564 
L 356.348305 146.818272 
L 356.950767 146.722161 
L 357.553228 148.067718 
L 358.15569 148.900681 
L 358.758152 153.129573 
L 359.360613 155.24402 
L 359.963075 155.980872 
L 360.565537 159.088467 
L 361.167998 157.96717 
L 362.975383 150.11809 
L 363.577845 148.708459 
L 364.180307 145.280493 
L 364.782768 142.973825 
L 365.38523 143.582529 
L 365.987692 147.106606 
L 366.590153 152.584943 
L 367.192615 150.822905 
L 368.397538 176.132184 
L 369 184.013302 
L 369.602462 185.262747 
L 370.204923 185.198673 
L 370.807385 185.006451 
L 371.409847 184.68608 
L 372.61477 181.514411 
L 373.217232 187.377193 
L 373.819693 178.086445 
L 374.422155 154.218834 
L 375.024617 143.646603 
L 375.627078 145.85716 
L 376.22954 164.054212 
L 376.832002 185.871451 
L 377.434463 199.262943 
L 378.036925 209.194433 
L 378.639387 212.366102 
L 379.241848 197.590609 
L 379.84431 176.004036 
L 380.446772 163.894026 
L 381.049233 155.660501 
L 381.651695 149.317163 
L 382.254157 148.291977 
L 382.856618 171.063921 
L 383.45908 200.928871 
L 384.061542 219.125922 
L 384.664003 217.84444 
L 385.266465 225.405186 
L 385.868927 238.924827 
L 386.471388 229.634079 
L 387.07385 227.359447 
L 387.676312 234.08723 
L 388.278773 230.402968 
L 388.881235 218.645366 
L 389.483697 210.539989 
L 390.086158 214.544622 
L 390.68862 225.020742 
L 391.291082 209.258507 
L 391.893544 183.276449 
L 392.496005 163.541619 
L 393.098467 167.033659 
L 393.700929 176.324407 
L 394.30339 183.148301 
L 394.905852 180.405928 
L 396.110775 215.082845 
L 414.184625 211.276842 
L 414.787087 215.089252 
L 415.389549 213.295177 
L 415.99201 210.764249 
L 416.594472 209.354618 
L 417.196934 207.624617 
L 417.799395 209.578878 
L 419.004319 199.038684 
L 419.60678 196.860164 
L 420.209242 200.192018 
L 420.811704 196.283497 
L 421.414165 198.397943 
L 422.016627 204.581096 
L 422.619089 207.208135 
L 423.22155 204.241503 
L 423.824012 207.04795 
L 424.426474 212.942769 
L 425.028935 217.556106 
L 425.631397 216.75518 
L 426.233859 209.098322 
L 426.83632 211.821472 
L 428.041244 224.05963 
L 428.643705 223.162592 
L 429.246167 218.004625 
L 429.848629 203.33165 
L 431.053552 183.500709 
L 431.656014 178.695149 
L 432.258475 177.766074 
L 432.860937 185.487007 
L 433.463399 185.9996 
L 434.065861 183.468672 
L 434.668322 185.070525 
L 435.270784 184.333672 
L 435.873246 184.397746 
L 436.475707 183.116264 
L 437.680631 192.53516 
L 438.283092 192.246827 
L 438.885554 189.715899 
L 439.488016 188.690713 
L 440.090477 180.072743 
L 440.692939 180.457188 
L 441.295401 180.457188 
L 441.897862 184.237561 
L 442.500324 184.173487 
L 443.102786 193.143864 
L 443.705247 192.887568 
L 444.307709 188.146083 
L 444.910171 184.718117 
L 445.512632 174.626442 
L 446.115094 171.518847 
L 446.717556 175.939962 
L 447.320017 174.402183 
L 448.524941 154.635315 
L 449.127402 148.772533 
L 449.729864 147.17068 
L 450.332326 149.3492 
L 450.934787 156.493465 
L 452.139711 180.072743 
L 452.742172 185.839414 
L 453.344634 188.082009 
L 453.947096 182.251263 
L 454.549557 175.106998 
L 455.754481 144.351418 
L 456.356942 136.854746 
L 456.959404 134.657003 
L 459.369251 152.84124 
L 459.971712 155.340131 
L 460.574174 155.756613 
L 461.176636 160.401987 
L 461.779097 160.882543 
L 462.381559 160.626246 
L 462.984021 158.095318 
L 463.586482 154.955686 
L 464.188944 153.802352 
L 466.598791 135.477152 
L 467.201252 133.811225 
L 467.803714 208.906099 
L 468.406176 140.193008 
L 469.008637 150.246238 
L 469.611099 156.589576 
L 470.213561 161.266987 
L 470.816022 163.189211 
L 471.418484 161.363098 
L 472.020946 154.731427 
L 473.225869 137.687709 
L 474.430792 120.131399 
L 475.033254 109.270835 
L 475.635716 105.266202 
L 476.238177 111.513429 
L 478.045563 148.548273 
L 478.648024 159.440875 
L 479.250486 163.477545 
L 479.852948 164.855138 
L 481.057871 148.612348 
L 483.467718 79.828774 
L 484.070179 70.025433 
L 484.672641 68.167284 
L 485.275103 73.299621 
L 485.877564 92.515451 
L 486.480026 107.572871 
L 487.082488 116.991767 
L 487.684949 117.344175 
L 488.287411 122.373993 
L 488.889873 117.952879 
L 489.492334 104.112868 
L 490.094796 83.384888 
L 490.697258 67.174135 
L 491.299719 56.633941 
L 491.902181 54.327273 
L 492.504643 69.128396 
L 493.709566 88.735078 
L 494.312028 99.083049 
L 494.914489 106.323425 
L 495.516951 139.321599 
L 496.119413 93.957119 
L 496.721874 99.211197 
L 497.324336 89.920449 
L 497.926798 82.840258 
L 498.529259 90.176746 
L 499.131721 86.172113 
L 499.734183 91.490265 
L 500.939106 151.271424 
L 502.144029 198.622202 
L 502.746491 214.993141 
L 503.348953 220.375368 
L 503.951414 217.107587 
L 504.553876 199.487203 
L 506.361261 135.316967 
L 506.963723 126.282515 
L 507.566184 133.651039 
L 509.373569 191.477937 
L 509.976031 209.066285 
L 510.578493 218.004625 
L 511.180954 218.517218 
L 511.783416 211.340916 
L 512.988339 185.711266 
L 513.590801 176.420518 
L 514.193263 171.550884 
L 514.795724 164.662916 
L 515.398186 151.976239 
L 516.000648 151.239387 
L 516.603109 146.017346 
L 517.205571 142.749565 
L 519.615418 180.681447 
L 520.21788 185.519044 
L 520.820341 186.896637 
L 521.422803 183.116264 
L 522.025265 175.459406 
L 522.627726 161.811617 
L 523.230188 155.276057 
L 523.83265 150.758831 
L 524.435111 157.96717 
L 525.037573 163.061063 
L 525.640035 171.582921 
L 526.242496 175.459406 
L 527.44742 177.15737 
L 528.049881 174.690516 
L 528.652343 176.420518 
L 529.254805 172.095514 
L 529.857266 171.230514 
L 530.459728 170.878106 
L 531.06219 175.651628 
L 531.664651 173.376997 
L 532.267113 171.775144 
L 532.869575 160.305875 
L 533.472036 153.9305 
L 534.074498 150.98309 
L 534.67696 153.866426 
L 535.279421 162.228099 
L 535.881883 168.891808 
L 536.484345 173.857553 
L 537.689268 178.631075 
L 538.29173 181.033855 
L 538.894191 181.354225 
L 540.099115 170.94218 
L 540.701576 164.823101 
L 541.304038 164.150323 
L 541.9065 161.491247 
L 542.508961 161.202913 
L 543.111423 161.971803 
L 544.316346 159.761245 
L 544.918808 165.463842 
L 546.123731 173.505145 
L 546.726193 176.324407 
L 547.328655 176.06811 
L 547.931116 174.690516 
L 548.533578 171.71107 
L 549.738501 167.45014 
L 551.545886 167.161807 
L 552.148348 168.347178 
L 552.75081 173.857553 
L 553.353271 175.491443 
L 553.955733 175.459406 
L 554.558195 171.230514 
L 555.160656 165.367731 
L 555.763118 158.127355 
L 556.968041 146.613235 
L 557.570503 143.166047 
L 558.172965 144.735863 
L 558.775426 151.047164 
L 559.377888 161.491247 
L 560.582811 175.254369 
L 561.185273 179.816446 
L 561.787735 176.837 
L 562.390197 172.960515 
L 562.992658 171.775144 
L 563.59512 169.084031 
L 564.800043 152.905314 
L 565.402505 151.816054 
L 566.004967 151.399572 
L 566.607428 153.16161 
L 567.812352 162.292173 
L 568.414813 165.49588 
L 569.017275 171.807181 
L 569.619737 171.102365 
L 570.222198 172.832367 
L 572.029583 176.772926 
L 572.632045 173.34496 
L 573.234507 173.505145 
L 573.836968 177.221444 
L 574.43943 183.084227 
L 575.041892 179.175705 
L 575.644353 179.720335 
L 576.246815 182.924042 
L 576.849277 183.276449 
L 577.451738 187.985897 
L 578.0542 195.290348 
L 578.656662 191.862382 
L 579.259123 182.763856 
L 579.861585 181.450337 
L 580.464047 174.523924 
L 581.066508 174.209961 
L 581.66897 179.624224 
L 582.271432 182.667745 
L 582.873893 182.123115 
L 583.476355 185.422932 
L 584.681278 203.235539 
L 585.28374 202.146279 
L 585.886202 202.722946 
L 586.488663 205.157763 
L 587.091125 203.33165 
L 587.693587 196.475719 
L 588.296048 201.204389 
L 588.89851 206.887764 
L 589.500972 197.917387 
L 590.103433 194.361273 
L 590.705895 192.919605 
L 591.308357 192.471086 
L 591.910818 192.53516 
L 592.51328 202.530724 
L 593.115742 202.979243 
L 593.718203 197.276646 
L 594.320665 193.560346 
L 594.923127 191.926456 
L 595.525588 192.086641 
L 596.12805 189.171269 
L 596.730512 189.395528 
L 597.332973 191.349789 
L 597.935435 193.816643 
L 598.537897 195.546644 
L 599.140358 187.889786 
L 599.74282 185.262747 
L 600.345282 181.642559 
L 601.550205 163.990138 
L 602.755128 157.903096 
L 603.35759 159.729208 
L 603.960052 166.200695 
L 604.562513 177.093296 
L 605.164975 184.173487 
L 605.767437 187.249045 
L 606.369899 194.265162 
L 606.97236 198.42998 
L 607.574822 199.327018 
L 608.177284 198.910536 
L 608.779745 200.448315 
L 609.382207 194.265162 
L 609.984669 193.207939 
L 610.58713 186.287933 
L 611.189592 180.937744 
L 611.792054 182.667745 
L 612.394515 180.713484 
L 612.996977 177.285519 
L 613.599439 179.944595 
L 614.2019 179.496076 
L 614.804362 181.514411 
L 615.406824 181.994967 
L 616.009285 181.610522 
L 616.611747 182.988116 
L 617.81667 167.386066 
L 618.419132 162.292173 
L 619.021594 154.314945 
L 619.624055 149.605497 
L 620.226517 151.719943 
L 620.828979 160.14569 
L 622.033902 180.457188 
L 622.636364 187.671934 
L 622.636364 187.671934 
" clip-path="url(#p729dfa9ebe)" style="fill: none; stroke: #1f77b4; stroke-width: 1.5; stroke-linecap: square"/>
   </g>
   <g id="line2d_19">
    <path d="M 115.363636 138.386117 
L 118.375945 138.455265 
L 129.220255 138.460166 
L 140.667027 135.478126 
L 143.679335 134.611062 
L 144.281797 125.045884 
L 158.138415 125.161496 
L 158.740877 147.228347 
L 175.007342 147.228439 
L 175.609803 144.844789 
L 176.212265 144.844791 
L 176.814727 137.80945 
L 187.659037 136.986826 
L 188.261499 151.149683 
L 215.974735 151.149774 
L 216.577197 135.464337 
L 219.589506 134.545425 
L 220.794429 133.962086 
L 221.396891 133.598268 
L 221.999352 133.485527 
L 223.204276 133.736281 
L 223.806737 134.025163 
L 224.409199 134.798581 
L 225.011661 135.765187 
L 225.614122 136.256773 
L 226.216584 136.315238 
L 227.421507 136.116613 
L 228.626431 135.797754 
L 230.433816 135.139902 
L 231.036277 121.278326 
L 234.651047 120.018637 
L 235.855971 120.144135 
L 236.458432 120.395831 
L 237.060894 120.788723 
L 237.663356 120.977686 
L 238.868279 120.80386 
L 243.687972 119.489544 
L 247.302742 118.480974 
L 249.110127 118.283415 
L 250.917512 117.805594 
L 251.519974 115.665433 
L 253.327359 115.170901 
L 255.134744 113.933289 
L 255.737206 113.401576 
L 256.339667 113.040237 
L 256.942129 112.491905 
L 257.544591 112.816615 
L 259.954437 118.456479 
L 261.159361 121.934918 
L 261.761823 122.786157 
L 262.364284 123.174714 
L 262.966746 123.275654 
L 263.569208 123.159338 
L 264.171669 123.308277 
L 264.774131 123.609949 
L 265.979054 123.683928 
L 267.786439 123.26135 
L 278.630749 120.24087 
L 281.643058 119.364014 
L 283.450443 119.182374 
L 287.065213 118.203659 
L 288.270136 117.86657 
L 288.872598 142.153676 
L 302.729216 138.596028 
L 303.331678 148.074125 
L 317.188296 148.074172 
L 317.790758 151.457239 
L 331.647376 150.970994 
L 332.249838 148.996792 
L 346.106456 148.996839 
L 346.708918 149.650348 
L 360.565537 149.650395 
L 361.167998 155.724575 
L 365.987692 155.70175 
L 366.590153 155.480388 
L 367.192615 154.976412 
L 368.397538 153.396017 
L 370.204923 151.817525 
L 370.807385 152.088942 
L 371.409847 152.978554 
L 372.012308 155.094679 
L 374.422155 166.916254 
L 375.024617 169.001554 
L 375.627078 179.944595 
L 376.22954 180.496134 
L 376.832002 180.825602 
L 378.036925 181.13559 
L 379.84431 181.265101 
L 384.061542 181.249531 
L 385.266465 181.074564 
L 386.471388 181.014462 
L 387.676312 180.942365 
L 388.278773 181.030844 
L 389.483697 181.618086 
L 390.086158 231.806191 
L 392.496005 231.909396 
L 396.110775 231.922674 
L 432.860937 231.923224 
L 433.463399 178.79126 
L 447.320017 178.791294 
L 447.922479 171.179254 
L 459.971712 171.194252 
L 461.779097 171.193276 
L 462.381559 155.41702 
L 464.791406 155.348263 
L 467.201252 155.395471 
L 469.008637 155.574735 
L 473.828331 155.62298 
L 476.238177 155.623575 
L 476.840639 110.321651 
L 486.480026 110.304812 
L 487.082488 110.154112 
L 488.889873 108.538207 
L 489.492334 107.796418 
L 490.697258 104.863927 
L 491.299719 85.102075 
L 491.902181 86.188291 
L 493.107104 90.140101 
L 493.709566 90.89426 
L 494.312028 91.37782 
L 495.516951 93.148769 
L 496.119413 93.62987 
L 497.926798 94.401263 
L 499.131721 94.363972 
L 499.734183 94.50265 
L 500.336644 95.400921 
L 501.541568 98.405206 
L 502.144029 99.178855 
L 502.746491 99.318608 
L 503.951414 99.139129 
L 505.156338 98.810154 
L 505.758799 218.619737 
L 519.615418 218.627964 
L 520.21788 161.875691 
L 534.074498 158.709114 
L 534.67696 160.799246 
L 548.533578 157.60871 
L 549.13604 176.061703 
L 562.992658 173.239377 
L 563.59512 177.138148 
L 564.800043 176.864362 
L 567.812352 175.248488 
L 568.414813 175.247849 
L 569.017275 176.009506 
L 570.222198 178.421467 
L 570.82466 179.251255 
L 571.427122 179.561314 
L 573.234507 179.401312 
L 573.836968 179.968216 
L 574.43943 181.581406 
L 575.644353 186.686191 
L 576.246815 188.024705 
L 576.849277 188.426432 
L 577.451738 188.520662 
L 578.0542 182.943264 
L 578.656662 183.270203 
L 579.861585 183.576608 
L 581.066508 183.671449 
L 582.873893 183.489687 
L 584.078817 183.079256 
L 585.886202 182.866147 
L 587.091125 183.478899 
L 588.296048 184.865649 
L 590.103433 186.948143 
L 590.705895 187.307075 
L 591.910818 187.65354 
L 592.51328 193.207939 
L 594.923127 193.285776 
L 599.74282 192.848812 
L 601.550205 193.262779 
L 602.755128 193.682867 
L 603.35759 193.988846 
L 604.562513 195.054285 
L 605.767437 195.558245 
L 606.369899 195.672847 
L 606.97236 184.28882 
L 609.984669 183.780563 
L 620.828979 181.742029 
L 621.43144 149.688793 
L 622.636364 149.482439 
L 622.636364 149.482439 
" clip-path="url(#p729dfa9ebe)" style="fill: none; stroke: #ff7f0e; stroke-width: 1.5; stroke-linecap: square"/>
   </g>
   <g id="patch_3">
    <path d="M 90 288 
L 90 43.2 
" style="fill: none; stroke: #000000; stroke-width: 0.8; stroke-linejoin: miter; stroke-linecap: square"/>
   </g>
   <g id="patch_4">
    <path d="M 648 288 
L 648 43.2 
" style="fill: none; stroke: #000000; stroke-width: 0.8; stroke-linejoin: miter; stroke-linecap: square"/>
   </g>
   <g id="patch_5">
    <path d="M 90 288 
L 648 288 
" style="fill: none; stroke: #000000; stroke-width: 0.8; stroke-linejoin: miter; stroke-linecap: square"/>
   </g>
   <g id="patch_6">
    <path d="M 90 43.2 
L 648 43.2 
" style="fill: none; stroke: #000000; stroke-width: 0.8; stroke-linejoin: miter; stroke-linecap: square"/>
   </g>
   <g id="text_19">
    <!-- MDOT7166 -->
    <g transform="translate(335.545313 37.2) scale(0.12 -0.12)">
     <defs>
      <path id="DejaVuSans-44" d="M 1259 4147 
L 1259 519 
L 2022 519 
Q 2988 519 3436 956 
Q 3884 1394 3884 2338 
Q 3884 3275 3436 3711 
Q 2988 4147 2022 4147 
L 1259 4147 
z
M 628 4666 
L 1925 4666 
Q 3281 4666 3915 4102 
Q 4550 3538 4550 2338 
Q 4550 1131 3912 565 
Q 3275 0 1925 0 
L 628 0 
L 628 4666 
z
" transform="scale(0.015625)"/>
      <path id="DejaVuSans-4f" d="M 2522 4238 
Q 1834 4238 1429 3725 
Q 1025 3213 1025 2328 
Q 1025 1447 1429 934 
Q 1834 422 2522 422 
Q 3209 422 3611 934 
Q 4013 1447 4013 2328 
Q 4013 3213 3611 3725 
Q 3209 4238 2522 4238 
z
M 2522 4750 
Q 3503 4750 4090 4092 
Q 4678 3434 4678 2328 
Q 4678 1225 4090 567 
Q 3503 -91 2522 -91 
Q 1538 -91 948 565 
Q 359 1222 359 2328 
Q 359 3434 948 4092 
Q 1538 4750 2522 4750 
z
" transform="scale(0.015625)"/>
      <path id="DejaVuSans-54" d="M -19 4666 
L 3928 4666 
L 3928 4134 
L 2272 4134 
L 2272 0 
L 1638 0 
L 1638 4134 
L -19 4134 
L -19 4666 
z
" transform="scale(0.015625)"/>
     </defs>
     <use xlink:href="#DejaVuSans-4d"/>
     <use xlink:href="#DejaVuSans-44" x="86.279297"/>
     <use xlink:href="#DejaVuSans-4f" x="163.28125"/>
     <use xlink:href="#DejaVuSans-54" x="241.992188"/>
     <use xlink:href="#DejaVuSans-37" x="303.076172"/>
     <use xlink:href="#DejaVuSans-31" x="366.699219"/>
     <use xlink:href="#DejaVuSans-36" x="430.322266"/>
     <use xlink:href="#DejaVuSans-36" x="493.945312"/>
    </g>
   </g>
   <g id="legend_1">
    <g id="patch_7">
     <path d="M 559.04375 80.55625 
L 641 80.55625 
Q 643 80.55625 643 78.55625 
L 643 50.2 
Q 643 48.2 641 48.2 
L 559.04375 48.2 
Q 557.04375 48.2 557.04375 50.2 
L 557.04375 78.55625 
Q 557.04375 80.55625 559.04375 80.55625 
z
" style="fill: #ffffff; opacity: 0.8; stroke: #cccccc; stroke-linejoin: miter"/>
    </g>
    <g id="line2d_20">
     <path d="M 561.04375 56.298437 
L 571.04375 56.298437 
L 581.04375 56.298437 
" style="fill: none; stroke: #1f77b4; stroke-width: 1.5; stroke-linecap: square"/>
    </g>
    <g id="text_20">
     <!-- measured -->
     <g transform="translate(589.04375 59.798437) scale(0.1 -0.1)">
      <defs>
       <path id="DejaVuSans-6d" d="M 3328 2828 
Q 3544 3216 3844 3400 
Q 4144 3584 4550 3584 
Q 5097 3584 5394 3201 
Q 5691 2819 5691 2113 
L 5691 0 
L 5113 0 
L 5113 2094 
Q 5113 2597 4934 2840 
Q 4756 3084 4391 3084 
Q 3944 3084 3684 2787 
Q 3425 2491 3425 1978 
L 3425 0 
L 2847 0 
L 2847 2094 
Q 2847 2600 2669 2842 
Q 2491 3084 2119 3084 
Q 1678 3084 1418 2786 
Q 1159 2488 1159 1978 
L 1159 0 
L 581 0 
L 581 3500 
L 1159 3500 
L 1159 2956 
Q 1356 3278 1631 3431 
Q 1906 3584 2284 3584 
Q 2666 3584 2933 3390 
Q 3200 3197 3328 2828 
z
" transform="scale(0.015625)"/>
       <path id="DejaVuSans-61" d="M 2194 1759 
Q 1497 1759 1228 1600 
Q 959 1441 959 1056 
Q 959 750 1161 570 
Q 1363 391 1709 391 
Q 2188 391 2477 730 
Q 2766 1069 2766 1631 
L 2766 1759 
L 2194 1759 
z
M 3341 1997 
L 3341 0 
L 2766 0 
L 2766 531 
Q 2569 213 2275 61 
Q 1981 -91 1556 -91 
Q 1019 -91 701 211 
Q 384 513 384 1019 
Q 384 1609 779 1909 
Q 1175 2209 1959 2209 
L 2766 2209 
L 2766 2266 
Q 2766 2663 2505 2880 
Q 2244 3097 1772 3097 
Q 1472 3097 1187 3025 
Q 903 2953 641 2809 
L 641 3341 
Q 956 3463 1253 3523 
Q 1550 3584 1831 3584 
Q 2591 3584 2966 3190 
Q 3341 2797 3341 1997 
z
" transform="scale(0.015625)"/>
       <path id="DejaVuSans-75" d="M 544 1381 
L 544 3500 
L 1119 3500 
L 1119 1403 
Q 1119 906 1312 657 
Q 1506 409 1894 409 
Q 2359 409 2629 706 
Q 2900 1003 2900 1516 
L 2900 3500 
L 3475 3500 
L 3475 0 
L 2900 0 
L 2900 538 
Q 2691 219 2414 64 
Q 2138 -91 1772 -91 
Q 1169 -91 856 284 
Q 544 659 544 1381 
z
M 1991 3584 
L 1991 3584 
z
" transform="scale(0.015625)"/>
       <path id="DejaVuSans-64" d="M 2906 2969 
L 2906 4863 
L 3481 4863 
L 3481 0 
L 2906 0 
L 2906 525 
Q 2725 213 2448 61 
Q 2172 -91 1784 -91 
Q 1150 -91 751 415 
Q 353 922 353 1747 
Q 353 2572 751 3078 
Q 1150 3584 1784 3584 
Q 2172 3584 2448 3432 
Q 2725 3281 2906 2969 
z
M 947 1747 
Q 947 1113 1208 752 
Q 1469 391 1925 391 
Q 2381 391 2643 752 
Q 2906 1113 2906 1747 
Q 2906 2381 2643 2742 
Q 2381 3103 1925 3103 
Q 1469 3103 1208 2742 
Q 947 2381 947 1747 
z
" transform="scale(0.015625)"/>
      </defs>
      <use xlink:href="#DejaVuSans-6d"/>
      <use xlink:href="#DejaVuSans-65" x="97.412109"/>
      <use xlink:href="#DejaVuSans-61" x="158.935547"/>
      <use xlink:href="#DejaVuSans-73" x="220.214844"/>
      <use xlink:href="#DejaVuSans-75" x="272.314453"/>
      <use xlink:href="#DejaVuSans-72" x="335.693359"/>
      <use xlink:href="#DejaVuSans-65" x="374.556641"/>
      <use xlink:href="#DejaVuSans-64" x="436.080078"/>
     </g>
    </g>
    <g id="line2d_21">
     <path d="M 561.04375 70.976562 
L 571.04375 70.976562 
L 581.04375 70.976562 
" style="fill: none; stroke: #ff7f0e; stroke-width: 1.5; stroke-linecap: square"/>
    </g>
    <g id="text_21">
     <!-- predicted -->
     <g transform="translate(589.04375 74.476562) scale(0.1 -0.1)">
      <defs>
       <path id="DejaVuSans-70" d="M 1159 525 
L 1159 -1331 
L 581 -1331 
L 581 3500 
L 1159 3500 
L 1159 2969 
Q 1341 3281 1617 3432 
Q 1894 3584 2278 3584 
Q 2916 3584 3314 3078 
Q 3713 2572 3713 1747 
Q 3713 922 3314 415 
Q 2916 -91 2278 -91 
Q 1894 -91 1617 61 
Q 1341 213 1159 525 
z
M 3116 1747 
Q 3116 2381 2855 2742 
Q 2594 3103 2138 3103 
Q 1681 3103 1420 2742 
Q 1159 2381 1159 1747 
Q 1159 1113 1420 752 
Q 1681 391 2138 391 
Q 2594 391 2855 752 
Q 3116 1113 3116 1747 
z
" transform="scale(0.015625)"/>
       <path id="DejaVuSans-69" d="M 603 3500 
L 1178 3500 
L 1178 0 
L 603 0 
L 603 3500 
z
M 603 4863 
L 1178 4863 
L 1178 4134 
L 603 4134 
L 603 4863 
z
" transform="scale(0.015625)"/>
       <path id="DejaVuSans-63" d="M 3122 3366 
L 3122 2828 
Q 2878 2963 2633 3030 
Q 2388 3097 2138 3097 
Q 1578 3097 1268 2742 
Q 959 2388 959 1747 
Q 959 1106 1268 751 
Q 1578 397 2138 397 
Q 2388 397 2633 464 
Q 2878 531 3122 666 
L 3122 134 
Q 2881 22 2623 -34 
Q 2366 -91 2075 -91 
Q 1284 -91 818 406 
Q 353 903 353 1747 
Q 353 2603 823 3093 
Q 1294 3584 2113 3584 
Q 2378 3584 2631 3529 
Q 2884 3475 3122 3366 
z
" transform="scale(0.015625)"/>
      </defs>
      <use xlink:href="#DejaVuSans-70"/>
      <use xlink:href="#DejaVuSans-72" x="63.476562"/>
      <use xlink:href="#DejaVuSans-65" x="102.339844"/>
      <use xlink:href="#DejaVuSans-64" x="163.863281"/>
      <use xlink:href="#DejaVuSans-69" x="227.339844"/>
      <use xlink:href="#DejaVuSans-63" x="255.123047"/>
      <use xlink:href="#DejaVuSans-74" x="310.103516"/>
      <use xlink:href="#DejaVuSans-65" x="349.3125"/>
      <use xlink:href="#DejaVuSans-64" x="410.835938"/>
     </g>
    </g>
   </g>
  </g>
 </g>
 <defs>
  <clipPath id="p729dfa9ebe">
   <rect x="90" y="43.2" width="558" height="244.8"/>
  </clipPath>
 </defs>
</svg>
