<?xml version="1.0" encoding="utf-8" standalone="no"?>
<!DOCTYPE svg PUBLIC "-//W3C//DTD SVG 1.1//EN"
  "http://www.w3.org/Graphics/SVG/1.1/DTD/svg11.dtd">
<svg xmlns:xlink="http://www.w3.org/1999/xlink" width="460.8pt" height="345.6pt" viewBox="0 0 460.8 345.6" xmlns="http://www.w3.org/2000/svg" version="1.1">
 <metadata>
  <rdf:RDF xmlns:dc="http://purl.org/dc/elements/1.1/" xmlns:cc="http://creativecommons.org/ns#" xmlns:rdf="http://www.w3.org/1999/02/22-rdf-syntax-ns#">
   <cc:Work>
    <dc:type rdf:resource="http://purl.org/dc/dcmitype/StillImage"/>
    <dc:date>2024-05-23T16:12:46.360199</dc:date>
    <dc:format>image/svg+xml</dc:format>
    <dc:creator>
     <cc:Agent>
      <dc:title>Matplotlib v3.9.0, https://matplotlib.org/</dc:title>
     </cc:Agent>
    </dc:creator>
   </cc:Work>
  </rdf:RDF>
 </metadata>
 <defs>
  <style type="text/css">*{stroke-linejoin: round; stroke-linecap: butt}</style>
 </defs>
 <g id="figure_1">
  <g id="patch_1">
   <path d="M 0 345.6 
L 460.8 345.6 
L 460.8 0 
L 0 0 
z
" style="fill: #ffffff"/>
  </g>
  <g id="axes_1">
   <g id="patch_2">
    <path d="M 57.6 307.584 
L 414.72 307.584 
L 414.72 41.472 
L 57.6 41.472 
z
" style="fill: #ffffff"/>
   </g>
   <g id="matplotlib.axis_1">
    <g id="xtick_1">
     <g id="line2d_1">
      <defs>
       <path id="mfbe5d8455c" d="M 0 0 
L 0 3.5 
" style="stroke: #000000; stroke-width: 0.8"/>
      </defs>
      <g>
       <use xlink:href="#mfbe5d8455c" x="72.402925" y="307.584" style="stroke: #000000; stroke-width: 0.8"/>
      </g>
     </g>
     <g id="text_1">
      <!-- 4 -->
      <g transform="translate(69.221675 322.182437) scale(0.1 -0.1)">
       <defs>
        <path id="DejaVuSans-34" d="M 2419 4116 
L 825 1625 
L 2419 1625 
L 2419 4116 
z
M 2253 4666 
L 3047 4666 
L 3047 1625 
L 3713 1625 
L 3713 1100 
L 3047 1100 
L 3047 0 
L 2419 0 
L 2419 1100 
L 313 1100 
L 313 1709 
L 2253 4666 
z
" transform="scale(0.015625)"/>
       </defs>
       <use xlink:href="#DejaVuSans-34"/>
      </g>
     </g>
    </g>
    <g id="xtick_2">
     <g id="line2d_2">
      <g>
       <use xlink:href="#mfbe5d8455c" x="137.682348" y="307.584" style="stroke: #000000; stroke-width: 0.8"/>
      </g>
     </g>
     <g id="text_2">
      <!-- 6 -->
      <g transform="translate(134.501098 322.182437) scale(0.1 -0.1)">
       <defs>
        <path id="DejaVuSans-36" d="M 2113 2584 
Q 1688 2584 1439 2293 
Q 1191 2003 1191 1497 
Q 1191 994 1439 701 
Q 1688 409 2113 409 
Q 2538 409 2786 701 
Q 3034 994 3034 1497 
Q 3034 2003 2786 2293 
Q 2538 2584 2113 2584 
z
M 3366 4563 
L 3366 3988 
Q 3128 4100 2886 4159 
Q 2644 4219 2406 4219 
Q 1781 4219 1451 3797 
Q 1122 3375 1075 2522 
Q 1259 2794 1537 2939 
Q 1816 3084 2150 3084 
Q 2853 3084 3261 2657 
Q 3669 2231 3669 1497 
Q 3669 778 3244 343 
Q 2819 -91 2113 -91 
Q 1303 -91 875 529 
Q 447 1150 447 2328 
Q 447 3434 972 4092 
Q 1497 4750 2381 4750 
Q 2619 4750 2861 4703 
Q 3103 4656 3366 4563 
z
" transform="scale(0.015625)"/>
       </defs>
       <use xlink:href="#DejaVuSans-36"/>
      </g>
     </g>
    </g>
    <g id="xtick_3">
     <g id="line2d_3">
      <g>
       <use xlink:href="#mfbe5d8455c" x="202.961772" y="307.584" style="stroke: #000000; stroke-width: 0.8"/>
      </g>
     </g>
     <g id="text_3">
      <!-- 8 -->
      <g transform="translate(199.780522 322.182437) scale(0.1 -0.1)">
       <defs>
        <path id="DejaVuSans-38" d="M 2034 2216 
Q 1584 2216 1326 1975 
Q 1069 1734 1069 1313 
Q 1069 891 1326 650 
Q 1584 409 2034 409 
Q 2484 409 2743 651 
Q 3003 894 3003 1313 
Q 3003 1734 2745 1975 
Q 2488 2216 2034 2216 
z
M 1403 2484 
Q 997 2584 770 2862 
Q 544 3141 544 3541 
Q 544 4100 942 4425 
Q 1341 4750 2034 4750 
Q 2731 4750 3128 4425 
Q 3525 4100 3525 3541 
Q 3525 3141 3298 2862 
Q 3072 2584 2669 2484 
Q 3125 2378 3379 2068 
Q 3634 1759 3634 1313 
Q 3634 634 3220 271 
Q 2806 -91 2034 -91 
Q 1263 -91 848 271 
Q 434 634 434 1313 
Q 434 1759 690 2068 
Q 947 2378 1403 2484 
z
M 1172 3481 
Q 1172 3119 1398 2916 
Q 1625 2713 2034 2713 
Q 2441 2713 2670 2916 
Q 2900 3119 2900 3481 
Q 2900 3844 2670 4047 
Q 2441 4250 2034 4250 
Q 1625 4250 1398 4047 
Q 1172 3844 1172 3481 
z
" transform="scale(0.015625)"/>
       </defs>
       <use xlink:href="#DejaVuSans-38"/>
      </g>
     </g>
    </g>
    <g id="xtick_4">
     <g id="line2d_4">
      <g>
       <use xlink:href="#mfbe5d8455c" x="268.241195" y="307.584" style="stroke: #000000; stroke-width: 0.8"/>
      </g>
     </g>
     <g id="text_4">
      <!-- 10 -->
      <g transform="translate(261.878695 322.182437) scale(0.1 -0.1)">
       <defs>
        <path id="DejaVuSans-31" d="M 794 531 
L 1825 531 
L 1825 4091 
L 703 3866 
L 703 4441 
L 1819 4666 
L 2450 4666 
L 2450 531 
L 3481 531 
L 3481 0 
L 794 0 
L 794 531 
z
" transform="scale(0.015625)"/>
        <path id="DejaVuSans-30" d="M 2034 4250 
Q 1547 4250 1301 3770 
Q 1056 3291 1056 2328 
Q 1056 1369 1301 889 
Q 1547 409 2034 409 
Q 2525 409 2770 889 
Q 3016 1369 3016 2328 
Q 3016 3291 2770 3770 
Q 2525 4250 2034 4250 
z
M 2034 4750 
Q 2819 4750 3233 4129 
Q 3647 3509 3647 2328 
Q 3647 1150 3233 529 
Q 2819 -91 2034 -91 
Q 1250 -91 836 529 
Q 422 1150 422 2328 
Q 422 3509 836 4129 
Q 1250 4750 2034 4750 
z
" transform="scale(0.015625)"/>
       </defs>
       <use xlink:href="#DejaVuSans-31"/>
       <use xlink:href="#DejaVuSans-30" x="63.623047"/>
      </g>
     </g>
    </g>
    <g id="xtick_5">
     <g id="line2d_5">
      <g>
       <use xlink:href="#mfbe5d8455c" x="333.520619" y="307.584" style="stroke: #000000; stroke-width: 0.8"/>
      </g>
     </g>
     <g id="text_5">
      <!-- 12 -->
      <g transform="translate(327.158119 322.182437) scale(0.1 -0.1)">
       <defs>
        <path id="DejaVuSans-32" d="M 1228 531 
L 3431 531 
L 3431 0 
L 469 0 
L 469 531 
Q 828 903 1448 1529 
Q 2069 2156 2228 2338 
Q 2531 2678 2651 2914 
Q 2772 3150 2772 3378 
Q 2772 3750 2511 3984 
Q 2250 4219 1831 4219 
Q 1534 4219 1204 4116 
Q 875 4013 500 3803 
L 500 4441 
Q 881 4594 1212 4672 
Q 1544 4750 1819 4750 
Q 2544 4750 2975 4387 
Q 3406 4025 3406 3419 
Q 3406 3131 3298 2873 
Q 3191 2616 2906 2266 
Q 2828 2175 2409 1742 
Q 1991 1309 1228 531 
z
" transform="scale(0.015625)"/>
       </defs>
       <use xlink:href="#DejaVuSans-31"/>
       <use xlink:href="#DejaVuSans-32" x="63.623047"/>
      </g>
     </g>
    </g>
    <g id="xtick_6">
     <g id="line2d_6">
      <g>
       <use xlink:href="#mfbe5d8455c" x="398.800042" y="307.584" style="stroke: #000000; stroke-width: 0.8"/>
      </g>
     </g>
     <g id="text_6">
      <!-- 14 -->
      <g transform="translate(392.437542 322.182437) scale(0.1 -0.1)">
       <use xlink:href="#DejaVuSans-31"/>
       <use xlink:href="#DejaVuSans-34" x="63.623047"/>
      </g>
     </g>
    </g>
    <g id="text_7">
     <!-- Training Period Length (years) -->
     <g transform="translate(161.170156 335.860562) scale(0.1 -0.1)">
      <defs>
       <path id="DejaVuSans-54" d="M -19 4666 
L 3928 4666 
L 3928 4134 
L 2272 4134 
L 2272 0 
L 1638 0 
L 1638 4134 
L -19 4134 
L -19 4666 
z
" transform="scale(0.015625)"/>
       <path id="DejaVuSans-72" d="M 2631 2963 
Q 2534 3019 2420 3045 
Q 2306 3072 2169 3072 
Q 1681 3072 1420 2755 
Q 1159 2438 1159 1844 
L 1159 0 
L 581 0 
L 581 3500 
L 1159 3500 
L 1159 2956 
Q 1341 3275 1631 3429 
Q 1922 3584 2338 3584 
Q 2397 3584 2469 3576 
Q 2541 3569 2628 3553 
L 2631 2963 
z
" transform="scale(0.015625)"/>
       <path id="DejaVuSans-61" d="M 2194 1759 
Q 1497 1759 1228 1600 
Q 959 1441 959 1056 
Q 959 750 1161 570 
Q 1363 391 1709 391 
Q 2188 391 2477 730 
Q 2766 1069 2766 1631 
L 2766 1759 
L 2194 1759 
z
M 3341 1997 
L 3341 0 
L 2766 0 
L 2766 531 
Q 2569 213 2275 61 
Q 1981 -91 1556 -91 
Q 1019 -91 701 211 
Q 384 513 384 1019 
Q 384 1609 779 1909 
Q 1175 2209 1959 2209 
L 2766 2209 
L 2766 2266 
Q 2766 2663 2505 2880 
Q 2244 3097 1772 3097 
Q 1472 3097 1187 3025 
Q 903 2953 641 2809 
L 641 3341 
Q 956 3463 1253 3523 
Q 1550 3584 1831 3584 
Q 2591 3584 2966 3190 
Q 3341 2797 3341 1997 
z
" transform="scale(0.015625)"/>
       <path id="DejaVuSans-69" d="M 603 3500 
L 1178 3500 
L 1178 0 
L 603 0 
L 603 3500 
z
M 603 4863 
L 1178 4863 
L 1178 4134 
L 603 4134 
L 603 4863 
z
" transform="scale(0.015625)"/>
       <path id="DejaVuSans-6e" d="M 3513 2113 
L 3513 0 
L 2938 0 
L 2938 2094 
Q 2938 2591 2744 2837 
Q 2550 3084 2163 3084 
Q 1697 3084 1428 2787 
Q 1159 2491 1159 1978 
L 1159 0 
L 581 0 
L 581 3500 
L 1159 3500 
L 1159 2956 
Q 1366 3272 1645 3428 
Q 1925 3584 2291 3584 
Q 2894 3584 3203 3211 
Q 3513 2838 3513 2113 
z
" transform="scale(0.015625)"/>
       <path id="DejaVuSans-67" d="M 2906 1791 
Q 2906 2416 2648 2759 
Q 2391 3103 1925 3103 
Q 1463 3103 1205 2759 
Q 947 2416 947 1791 
Q 947 1169 1205 825 
Q 1463 481 1925 481 
Q 2391 481 2648 825 
Q 2906 1169 2906 1791 
z
M 3481 434 
Q 3481 -459 3084 -895 
Q 2688 -1331 1869 -1331 
Q 1566 -1331 1297 -1286 
Q 1028 -1241 775 -1147 
L 775 -588 
Q 1028 -725 1275 -790 
Q 1522 -856 1778 -856 
Q 2344 -856 2625 -561 
Q 2906 -266 2906 331 
L 2906 616 
Q 2728 306 2450 153 
Q 2172 0 1784 0 
Q 1141 0 747 490 
Q 353 981 353 1791 
Q 353 2603 747 3093 
Q 1141 3584 1784 3584 
Q 2172 3584 2450 3431 
Q 2728 3278 2906 2969 
L 2906 3500 
L 3481 3500 
L 3481 434 
z
" transform="scale(0.015625)"/>
       <path id="DejaVuSans-20" transform="scale(0.015625)"/>
       <path id="DejaVuSans-50" d="M 1259 4147 
L 1259 2394 
L 2053 2394 
Q 2494 2394 2734 2622 
Q 2975 2850 2975 3272 
Q 2975 3691 2734 3919 
Q 2494 4147 2053 4147 
L 1259 4147 
z
M 628 4666 
L 2053 4666 
Q 2838 4666 3239 4311 
Q 3641 3956 3641 3272 
Q 3641 2581 3239 2228 
Q 2838 1875 2053 1875 
L 1259 1875 
L 1259 0 
L 628 0 
L 628 4666 
z
" transform="scale(0.015625)"/>
       <path id="DejaVuSans-65" d="M 3597 1894 
L 3597 1613 
L 953 1613 
Q 991 1019 1311 708 
Q 1631 397 2203 397 
Q 2534 397 2845 478 
Q 3156 559 3463 722 
L 3463 178 
Q 3153 47 2828 -22 
Q 2503 -91 2169 -91 
Q 1331 -91 842 396 
Q 353 884 353 1716 
Q 353 2575 817 3079 
Q 1281 3584 2069 3584 
Q 2775 3584 3186 3129 
Q 3597 2675 3597 1894 
z
M 3022 2063 
Q 3016 2534 2758 2815 
Q 2500 3097 2075 3097 
Q 1594 3097 1305 2825 
Q 1016 2553 972 2059 
L 3022 2063 
z
" transform="scale(0.015625)"/>
       <path id="DejaVuSans-6f" d="M 1959 3097 
Q 1497 3097 1228 2736 
Q 959 2375 959 1747 
Q 959 1119 1226 758 
Q 1494 397 1959 397 
Q 2419 397 2687 759 
Q 2956 1122 2956 1747 
Q 2956 2369 2687 2733 
Q 2419 3097 1959 3097 
z
M 1959 3584 
Q 2709 3584 3137 3096 
Q 3566 2609 3566 1747 
Q 3566 888 3137 398 
Q 2709 -91 1959 -91 
Q 1206 -91 779 398 
Q 353 888 353 1747 
Q 353 2609 779 3096 
Q 1206 3584 1959 3584 
z
" transform="scale(0.015625)"/>
       <path id="DejaVuSans-64" d="M 2906 2969 
L 2906 4863 
L 3481 4863 
L 3481 0 
L 2906 0 
L 2906 525 
Q 2725 213 2448 61 
Q 2172 -91 1784 -91 
Q 1150 -91 751 415 
Q 353 922 353 1747 
Q 353 2572 751 3078 
Q 1150 3584 1784 3584 
Q 2172 3584 2448 3432 
Q 2725 3281 2906 2969 
z
M 947 1747 
Q 947 1113 1208 752 
Q 1469 391 1925 391 
Q 2381 391 2643 752 
Q 2906 1113 2906 1747 
Q 2906 2381 2643 2742 
Q 2381 3103 1925 3103 
Q 1469 3103 1208 2742 
Q 947 2381 947 1747 
z
" transform="scale(0.015625)"/>
       <path id="DejaVuSans-4c" d="M 628 4666 
L 1259 4666 
L 1259 531 
L 3531 531 
L 3531 0 
L 628 0 
L 628 4666 
z
" transform="scale(0.015625)"/>
       <path id="DejaVuSans-74" d="M 1172 4494 
L 1172 3500 
L 2356 3500 
L 2356 3053 
L 1172 3053 
L 1172 1153 
Q 1172 725 1289 603 
Q 1406 481 1766 481 
L 2356 481 
L 2356 0 
L 1766 0 
Q 1100 0 847 248 
Q 594 497 594 1153 
L 594 3053 
L 172 3053 
L 172 3500 
L 594 3500 
L 594 4494 
L 1172 4494 
z
" transform="scale(0.015625)"/>
       <path id="DejaVuSans-68" d="M 3513 2113 
L 3513 0 
L 2938 0 
L 2938 2094 
Q 2938 2591 2744 2837 
Q 2550 3084 2163 3084 
Q 1697 3084 1428 2787 
Q 1159 2491 1159 1978 
L 1159 0 
L 581 0 
L 581 4863 
L 1159 4863 
L 1159 2956 
Q 1366 3272 1645 3428 
Q 1925 3584 2291 3584 
Q 2894 3584 3203 3211 
Q 3513 2838 3513 2113 
z
" transform="scale(0.015625)"/>
       <path id="DejaVuSans-28" d="M 1984 4856 
Q 1566 4138 1362 3434 
Q 1159 2731 1159 2009 
Q 1159 1288 1364 580 
Q 1569 -128 1984 -844 
L 1484 -844 
Q 1016 -109 783 600 
Q 550 1309 550 2009 
Q 550 2706 781 3412 
Q 1013 4119 1484 4856 
L 1984 4856 
z
" transform="scale(0.015625)"/>
       <path id="DejaVuSans-79" d="M 2059 -325 
Q 1816 -950 1584 -1140 
Q 1353 -1331 966 -1331 
L 506 -1331 
L 506 -850 
L 844 -850 
Q 1081 -850 1212 -737 
Q 1344 -625 1503 -206 
L 1606 56 
L 191 3500 
L 800 3500 
L 1894 763 
L 2988 3500 
L 3597 3500 
L 2059 -325 
z
" transform="scale(0.015625)"/>
       <path id="DejaVuSans-73" d="M 2834 3397 
L 2834 2853 
Q 2591 2978 2328 3040 
Q 2066 3103 1784 3103 
Q 1356 3103 1142 2972 
Q 928 2841 928 2578 
Q 928 2378 1081 2264 
Q 1234 2150 1697 2047 
L 1894 2003 
Q 2506 1872 2764 1633 
Q 3022 1394 3022 966 
Q 3022 478 2636 193 
Q 2250 -91 1575 -91 
Q 1294 -91 989 -36 
Q 684 19 347 128 
L 347 722 
Q 666 556 975 473 
Q 1284 391 1588 391 
Q 1994 391 2212 530 
Q 2431 669 2431 922 
Q 2431 1156 2273 1281 
Q 2116 1406 1581 1522 
L 1381 1569 
Q 847 1681 609 1914 
Q 372 2147 372 2553 
Q 372 3047 722 3315 
Q 1072 3584 1716 3584 
Q 2034 3584 2315 3537 
Q 2597 3491 2834 3397 
z
" transform="scale(0.015625)"/>
       <path id="DejaVuSans-29" d="M 513 4856 
L 1013 4856 
Q 1481 4119 1714 3412 
Q 1947 2706 1947 2009 
Q 1947 1309 1714 600 
Q 1481 -109 1013 -844 
L 513 -844 
Q 928 -128 1133 580 
Q 1338 1288 1338 2009 
Q 1338 2731 1133 3434 
Q 928 4138 513 4856 
z
" transform="scale(0.015625)"/>
      </defs>
      <use xlink:href="#DejaVuSans-54"/>
      <use xlink:href="#DejaVuSans-72" x="46.333984"/>
      <use xlink:href="#DejaVuSans-61" x="87.447266"/>
      <use xlink:href="#DejaVuSans-69" x="148.726562"/>
      <use xlink:href="#DejaVuSans-6e" x="176.509766"/>
      <use xlink:href="#DejaVuSans-69" x="239.888672"/>
      <use xlink:href="#DejaVuSans-6e" x="267.671875"/>
      <use xlink:href="#DejaVuSans-67" x="331.050781"/>
      <use xlink:href="#DejaVuSans-20" x="394.527344"/>
      <use xlink:href="#DejaVuSans-50" x="426.314453"/>
      <use xlink:href="#DejaVuSans-65" x="482.992188"/>
      <use xlink:href="#DejaVuSans-72" x="544.515625"/>
      <use xlink:href="#DejaVuSans-69" x="585.628906"/>
      <use xlink:href="#DejaVuSans-6f" x="613.412109"/>
      <use xlink:href="#DejaVuSans-64" x="674.59375"/>
      <use xlink:href="#DejaVuSans-20" x="738.070312"/>
      <use xlink:href="#DejaVuSans-4c" x="769.857422"/>
      <use xlink:href="#DejaVuSans-65" x="823.820312"/>
      <use xlink:href="#DejaVuSans-6e" x="885.34375"/>
      <use xlink:href="#DejaVuSans-67" x="948.722656"/>
      <use xlink:href="#DejaVuSans-74" x="1012.199219"/>
      <use xlink:href="#DejaVuSans-68" x="1051.408203"/>
      <use xlink:href="#DejaVuSans-20" x="1114.787109"/>
      <use xlink:href="#DejaVuSans-28" x="1146.574219"/>
      <use xlink:href="#DejaVuSans-79" x="1185.587891"/>
      <use xlink:href="#DejaVuSans-65" x="1244.767578"/>
      <use xlink:href="#DejaVuSans-61" x="1306.291016"/>
      <use xlink:href="#DejaVuSans-72" x="1367.570312"/>
      <use xlink:href="#DejaVuSans-73" x="1408.683594"/>
      <use xlink:href="#DejaVuSans-29" x="1460.783203"/>
     </g>
    </g>
   </g>
   <g id="matplotlib.axis_2">
    <g id="ytick_1">
     <g id="line2d_7">
      <defs>
       <path id="m958d2e2b9d" d="M 0 0 
L -3.5 0 
" style="stroke: #000000; stroke-width: 0.8"/>
      </defs>
      <g>
       <use xlink:href="#m958d2e2b9d" x="57.6" y="286.226229" style="stroke: #000000; stroke-width: 0.8"/>
      </g>
     </g>
     <g id="text_8">
      <!-- −40 -->
      <g transform="translate(29.495313 290.025447) scale(0.1 -0.1)">
       <defs>
        <path id="DejaVuSans-2212" d="M 678 2272 
L 4684 2272 
L 4684 1741 
L 678 1741 
L 678 2272 
z
" transform="scale(0.015625)"/>
       </defs>
       <use xlink:href="#DejaVuSans-2212"/>
       <use xlink:href="#DejaVuSans-34" x="83.789062"/>
       <use xlink:href="#DejaVuSans-30" x="147.412109"/>
      </g>
     </g>
    </g>
    <g id="ytick_2">
     <g id="line2d_8">
      <g>
       <use xlink:href="#m958d2e2b9d" x="57.6" y="229.137618" style="stroke: #000000; stroke-width: 0.8"/>
      </g>
     </g>
     <g id="text_9">
      <!-- −30 -->
      <g transform="translate(29.495313 232.936836) scale(0.1 -0.1)">
       <defs>
        <path id="DejaVuSans-33" d="M 2597 2516 
Q 3050 2419 3304 2112 
Q 3559 1806 3559 1356 
Q 3559 666 3084 287 
Q 2609 -91 1734 -91 
Q 1441 -91 1130 -33 
Q 819 25 488 141 
L 488 750 
Q 750 597 1062 519 
Q 1375 441 1716 441 
Q 2309 441 2620 675 
Q 2931 909 2931 1356 
Q 2931 1769 2642 2001 
Q 2353 2234 1838 2234 
L 1294 2234 
L 1294 2753 
L 1863 2753 
Q 2328 2753 2575 2939 
Q 2822 3125 2822 3475 
Q 2822 3834 2567 4026 
Q 2313 4219 1838 4219 
Q 1578 4219 1281 4162 
Q 984 4106 628 3988 
L 628 4550 
Q 988 4650 1302 4700 
Q 1616 4750 1894 4750 
Q 2613 4750 3031 4423 
Q 3450 4097 3450 3541 
Q 3450 3153 3228 2886 
Q 3006 2619 2597 2516 
z
" transform="scale(0.015625)"/>
       </defs>
       <use xlink:href="#DejaVuSans-2212"/>
       <use xlink:href="#DejaVuSans-33" x="83.789062"/>
       <use xlink:href="#DejaVuSans-30" x="147.412109"/>
      </g>
     </g>
    </g>
    <g id="ytick_3">
     <g id="line2d_9">
      <g>
       <use xlink:href="#m958d2e2b9d" x="57.6" y="172.049007" style="stroke: #000000; stroke-width: 0.8"/>
      </g>
     </g>
     <g id="text_10">
      <!-- −20 -->
      <g transform="translate(29.495313 175.848225) scale(0.1 -0.1)">
       <use xlink:href="#DejaVuSans-2212"/>
       <use xlink:href="#DejaVuSans-32" x="83.789062"/>
       <use xlink:href="#DejaVuSans-30" x="147.412109"/>
      </g>
     </g>
    </g>
    <g id="ytick_4">
     <g id="line2d_10">
      <g>
       <use xlink:href="#m958d2e2b9d" x="57.6" y="114.960395" style="stroke: #000000; stroke-width: 0.8"/>
      </g>
     </g>
     <g id="text_11">
      <!-- −10 -->
      <g transform="translate(29.495313 118.759614) scale(0.1 -0.1)">
       <use xlink:href="#DejaVuSans-2212"/>
       <use xlink:href="#DejaVuSans-31" x="83.789062"/>
       <use xlink:href="#DejaVuSans-30" x="147.412109"/>
      </g>
     </g>
    </g>
    <g id="ytick_5">
     <g id="line2d_11">
      <g>
       <use xlink:href="#m958d2e2b9d" x="57.6" y="57.871784" style="stroke: #000000; stroke-width: 0.8"/>
      </g>
     </g>
     <g id="text_12">
      <!-- 0 -->
      <g transform="translate(44.2375 61.671003) scale(0.1 -0.1)">
       <use xlink:href="#DejaVuSans-30"/>
      </g>
     </g>
    </g>
    <g id="text_13">
     <!-- Final Evaluation NSE -->
     <g transform="translate(23.415625 225.686594) rotate(-90) scale(0.1 -0.1)">
      <defs>
       <path id="DejaVuSans-46" d="M 628 4666 
L 3309 4666 
L 3309 4134 
L 1259 4134 
L 1259 2759 
L 3109 2759 
L 3109 2228 
L 1259 2228 
L 1259 0 
L 628 0 
L 628 4666 
z
" transform="scale(0.015625)"/>
       <path id="DejaVuSans-6c" d="M 603 4863 
L 1178 4863 
L 1178 0 
L 603 0 
L 603 4863 
z
" transform="scale(0.015625)"/>
       <path id="DejaVuSans-45" d="M 628 4666 
L 3578 4666 
L 3578 4134 
L 1259 4134 
L 1259 2753 
L 3481 2753 
L 3481 2222 
L 1259 2222 
L 1259 531 
L 3634 531 
L 3634 0 
L 628 0 
L 628 4666 
z
" transform="scale(0.015625)"/>
       <path id="DejaVuSans-76" d="M 191 3500 
L 800 3500 
L 1894 563 
L 2988 3500 
L 3597 3500 
L 2284 0 
L 1503 0 
L 191 3500 
z
" transform="scale(0.015625)"/>
       <path id="DejaVuSans-75" d="M 544 1381 
L 544 3500 
L 1119 3500 
L 1119 1403 
Q 1119 906 1312 657 
Q 1506 409 1894 409 
Q 2359 409 2629 706 
Q 2900 1003 2900 1516 
L 2900 3500 
L 3475 3500 
L 3475 0 
L 2900 0 
L 2900 538 
Q 2691 219 2414 64 
Q 2138 -91 1772 -91 
Q 1169 -91 856 284 
Q 544 659 544 1381 
z
M 1991 3584 
L 1991 3584 
z
" transform="scale(0.015625)"/>
       <path id="DejaVuSans-4e" d="M 628 4666 
L 1478 4666 
L 3547 763 
L 3547 4666 
L 4159 4666 
L 4159 0 
L 3309 0 
L 1241 3903 
L 1241 0 
L 628 0 
L 628 4666 
z
" transform="scale(0.015625)"/>
       <path id="DejaVuSans-53" d="M 3425 4513 
L 3425 3897 
Q 3066 4069 2747 4153 
Q 2428 4238 2131 4238 
Q 1616 4238 1336 4038 
Q 1056 3838 1056 3469 
Q 1056 3159 1242 3001 
Q 1428 2844 1947 2747 
L 2328 2669 
Q 3034 2534 3370 2195 
Q 3706 1856 3706 1288 
Q 3706 609 3251 259 
Q 2797 -91 1919 -91 
Q 1588 -91 1214 -16 
Q 841 59 441 206 
L 441 856 
Q 825 641 1194 531 
Q 1563 422 1919 422 
Q 2459 422 2753 634 
Q 3047 847 3047 1241 
Q 3047 1584 2836 1778 
Q 2625 1972 2144 2069 
L 1759 2144 
Q 1053 2284 737 2584 
Q 422 2884 422 3419 
Q 422 4038 858 4394 
Q 1294 4750 2059 4750 
Q 2388 4750 2728 4690 
Q 3069 4631 3425 4513 
z
" transform="scale(0.015625)"/>
      </defs>
      <use xlink:href="#DejaVuSans-46"/>
      <use xlink:href="#DejaVuSans-69" x="50.269531"/>
      <use xlink:href="#DejaVuSans-6e" x="78.052734"/>
      <use xlink:href="#DejaVuSans-61" x="141.431641"/>
      <use xlink:href="#DejaVuSans-6c" x="202.710938"/>
      <use xlink:href="#DejaVuSans-20" x="230.494141"/>
      <use xlink:href="#DejaVuSans-45" x="262.28125"/>
      <use xlink:href="#DejaVuSans-76" x="325.464844"/>
      <use xlink:href="#DejaVuSans-61" x="384.644531"/>
      <use xlink:href="#DejaVuSans-6c" x="445.923828"/>
      <use xlink:href="#DejaVuSans-75" x="473.707031"/>
      <use xlink:href="#DejaVuSans-61" x="537.085938"/>
      <use xlink:href="#DejaVuSans-74" x="598.365234"/>
      <use xlink:href="#DejaVuSans-69" x="637.574219"/>
      <use xlink:href="#DejaVuSans-6f" x="665.357422"/>
      <use xlink:href="#DejaVuSans-6e" x="726.539062"/>
      <use xlink:href="#DejaVuSans-20" x="789.917969"/>
      <use xlink:href="#DejaVuSans-4e" x="821.705078"/>
      <use xlink:href="#DejaVuSans-53" x="896.509766"/>
      <use xlink:href="#DejaVuSans-45" x="959.986328"/>
     </g>
    </g>
   </g>
   <g id="line2d_12">
    <defs>
     <path id="m86d8951151" d="M 0 3 
C 0.795609 3 1.55874 2.683901 2.12132 2.12132 
C 2.683901 1.55874 3 0.795609 3 0 
C 3 -0.795609 2.683901 -1.55874 2.12132 -2.12132 
C 1.55874 -2.683901 0.795609 -3 0 -3 
C -0.795609 -3 -1.55874 -2.683901 -2.12132 -2.12132 
C -2.683901 -1.55874 -3 -0.795609 -3 0 
C -3 0.795609 -2.683901 1.55874 -2.12132 2.12132 
C -1.55874 2.683901 -0.795609 3 0 3 
z
" style="stroke: #1f77b4"/>
    </defs>
    <g clip-path="url(#pd5f81518d7)">
     <use xlink:href="#m86d8951151" x="184.463701" y="56.372077" style="fill: #1f77b4; stroke: #1f77b4"/>
     <use xlink:href="#m86d8951151" x="140.318547" y="219.831669" style="fill: #1f77b4; stroke: #1f77b4"/>
     <use xlink:href="#m86d8951151" x="138.710019" y="54.4411" style="fill: #1f77b4; stroke: #1f77b4"/>
     <use xlink:href="#m86d8951151" x="139.335557" y="55.12403" style="fill: #1f77b4; stroke: #1f77b4"/>
     <use xlink:href="#m86d8951151" x="145.948394" y="63.938264" style="fill: #1f77b4; stroke: #1f77b4"/>
     <use xlink:href="#m86d8951151" x="141.301536" y="70.065844" style="fill: #1f77b4; stroke: #1f77b4"/>
     <use xlink:href="#m86d8951151" x="142.195163" y="54.164871" style="fill: #1f77b4; stroke: #1f77b4"/>
     <use xlink:href="#m86d8951151" x="288.035024" y="56.603072" style="fill: #1f77b4; stroke: #1f77b4"/>
     <use xlink:href="#m86d8951151" x="138.352568" y="59.988841" style="fill: #1f77b4; stroke: #1f77b4"/>
     <use xlink:href="#m86d8951151" x="214.936368" y="61.747932" style="fill: #1f77b4; stroke: #1f77b4"/>
     <use xlink:href="#m86d8951151" x="307.962898" y="59.558464" style="fill: #1f77b4; stroke: #1f77b4"/>
     <use xlink:href="#m86d8951151" x="216.544896" y="65.565615" style="fill: #1f77b4; stroke: #1f77b4"/>
     <use xlink:href="#m86d8951151" x="197.153199" y="114.594721" style="fill: #1f77b4; stroke: #1f77b4"/>
     <use xlink:href="#m86d8951151" x="360.329417" y="57.706262" style="fill: #1f77b4; stroke: #1f77b4"/>
     <use xlink:href="#m86d8951151" x="178.476403" y="58.829729" style="fill: #1f77b4; stroke: #1f77b4"/>
     <use xlink:href="#m86d8951151" x="139.335557" y="55.628171" style="fill: #1f77b4; stroke: #1f77b4"/>
     <use xlink:href="#m86d8951151" x="168.825235" y="59.939347" style="fill: #1f77b4; stroke: #1f77b4"/>
     <use xlink:href="#m86d8951151" x="182.944536" y="64.69119" style="fill: #1f77b4; stroke: #1f77b4"/>
     <use xlink:href="#m86d8951151" x="311.001228" y="61.059473" style="fill: #1f77b4; stroke: #1f77b4"/>
     <use xlink:href="#m86d8951151" x="321.277934" y="53.568" style="fill: #1f77b4; stroke: #1f77b4"/>
     <use xlink:href="#m86d8951151" x="144.250504" y="56.79951" style="fill: #1f77b4; stroke: #1f77b4"/>
     <use xlink:href="#m86d8951151" x="156.850639" y="60.868375" style="fill: #1f77b4; stroke: #1f77b4"/>
     <use xlink:href="#m86d8951151" x="73.832727" y="55.921002" style="fill: #1f77b4; stroke: #1f77b4"/>
     <use xlink:href="#m86d8951151" x="214.578917" y="57.4698" style="fill: #1f77b4; stroke: #1f77b4"/>
     <use xlink:href="#m86d8951151" x="338.971741" y="82.032519" style="fill: #1f77b4; stroke: #1f77b4"/>
     <use xlink:href="#m86d8951151" x="139.961096" y="60.861073" style="fill: #1f77b4; stroke: #1f77b4"/>
     <use xlink:href="#m86d8951151" x="213.595928" y="61.149877" style="fill: #1f77b4; stroke: #1f77b4"/>
     <use xlink:href="#m86d8951151" x="394.37659" y="58.570409" style="fill: #1f77b4; stroke: #1f77b4"/>
     <use xlink:href="#m86d8951151" x="143.088789" y="162.095387" style="fill: #1f77b4; stroke: #1f77b4"/>
     <use xlink:href="#m86d8951151" x="142.016437" y="56.557074" style="fill: #1f77b4; stroke: #1f77b4"/>
     <use xlink:href="#m86d8951151" x="156.761276" y="54.859665" style="fill: #1f77b4; stroke: #1f77b4"/>
     <use xlink:href="#m86d8951151" x="333.699344" y="63.702854" style="fill: #1f77b4; stroke: #1f77b4"/>
     <use xlink:href="#m86d8951151" x="301.171335" y="57.761291" style="fill: #1f77b4; stroke: #1f77b4"/>
     <use xlink:href="#m86d8951151" x="329.499299" y="76.241499" style="fill: #1f77b4; stroke: #1f77b4"/>
     <use xlink:href="#m86d8951151" x="168.467785" y="57.897175" style="fill: #1f77b4; stroke: #1f77b4"/>
     <use xlink:href="#m86d8951151" x="200.995793" y="57.27812" style="fill: #1f77b4; stroke: #1f77b4"/>
     <use xlink:href="#m86d8951151" x="329.856749" y="58.17086" style="fill: #1f77b4; stroke: #1f77b4"/>
     <use xlink:href="#m86d8951151" x="327.53332" y="56.931413" style="fill: #1f77b4; stroke: #1f77b4"/>
     <use xlink:href="#m86d8951151" x="189.199922" y="59.434319" style="fill: #1f77b4; stroke: #1f77b4"/>
     <use xlink:href="#m86d8951151" x="279.992385" y="61.07589" style="fill: #1f77b4; stroke: #1f77b4"/>
     <use xlink:href="#m86d8951151" x="142.373888" y="55.677347" style="fill: #1f77b4; stroke: #1f77b4"/>
     <use xlink:href="#m86d8951151" x="397.861734" y="57.709379" style="fill: #1f77b4; stroke: #1f77b4"/>
     <use xlink:href="#m86d8951151" x="180.889195" y="57.092364" style="fill: #1f77b4; stroke: #1f77b4"/>
     <use xlink:href="#m86d8951151" x="181.604096" y="58.216949" style="fill: #1f77b4; stroke: #1f77b4"/>
     <use xlink:href="#m86d8951151" x="161.94431" y="56.158133" style="fill: #1f77b4; stroke: #1f77b4"/>
     <use xlink:href="#m86d8951151" x="157.476177" y="55.386574" style="fill: #1f77b4; stroke: #1f77b4"/>
     <use xlink:href="#m86d8951151" x="328.069496" y="59.36769" style="fill: #1f77b4; stroke: #1f77b4"/>
     <use xlink:href="#m86d8951151" x="169.718862" y="56.39825" style="fill: #1f77b4; stroke: #1f77b4"/>
     <use xlink:href="#m86d8951151" x="354.431481" y="69.327076" style="fill: #1f77b4; stroke: #1f77b4"/>
     <use xlink:href="#m86d8951151" x="257.294269" y="56.073834" style="fill: #1f77b4; stroke: #1f77b4"/>
     <use xlink:href="#m86d8951151" x="149.433538" y="59.07489" style="fill: #1f77b4; stroke: #1f77b4"/>
     <use xlink:href="#m86d8951151" x="144.339866" y="57.602375" style="fill: #1f77b4; stroke: #1f77b4"/>
     <use xlink:href="#m86d8951151" x="147.467559" y="55.465315" style="fill: #1f77b4; stroke: #1f77b4"/>
     <use xlink:href="#m86d8951151" x="172.935918" y="56.320811" style="fill: #1f77b4; stroke: #1f77b4"/>
     <use xlink:href="#m86d8951151" x="161.854948" y="60.777474" style="fill: #1f77b4; stroke: #1f77b4"/>
     <use xlink:href="#m86d8951151" x="370.427397" y="64.085462" style="fill: #1f77b4; stroke: #1f77b4"/>
     <use xlink:href="#m86d8951151" x="295.541488" y="123.376434" style="fill: #1f77b4; stroke: #1f77b4"/>
     <use xlink:href="#m86d8951151" x="237.545121" y="56.877635" style="fill: #1f77b4; stroke: #1f77b4"/>
     <use xlink:href="#m86d8951151" x="354.252756" y="75.747743" style="fill: #1f77b4; stroke: #1f77b4"/>
     <use xlink:href="#m86d8951151" x="94.118051" y="60.721281" style="fill: #1f77b4; stroke: #1f77b4"/>
     <use xlink:href="#m86d8951151" x="94.118051" y="59.126218" style="fill: #1f77b4; stroke: #1f77b4"/>
     <use xlink:href="#m86d8951151" x="94.118051" y="58.785194" style="fill: #1f77b4; stroke: #1f77b4"/>
     <use xlink:href="#m86d8951151" x="168.557147" y="58.904013" style="fill: #1f77b4; stroke: #1f77b4"/>
     <use xlink:href="#m86d8951151" x="398.487273" y="57.788328" style="fill: #1f77b4; stroke: #1f77b4"/>
     <use xlink:href="#m86d8951151" x="184.10625" y="67.261124" style="fill: #1f77b4; stroke: #1f77b4"/>
     <use xlink:href="#m86d8951151" x="170.255038" y="59.057574" style="fill: #1f77b4; stroke: #1f77b4"/>
     <use xlink:href="#m86d8951151" x="398.487273" y="61.537607" style="fill: #1f77b4; stroke: #1f77b4"/>
     <use xlink:href="#m86d8951151" x="369.17632" y="71.767529" style="fill: #1f77b4; stroke: #1f77b4"/>
     <use xlink:href="#m86d8951151" x="270.966756" y="58.119726" style="fill: #1f77b4; stroke: #1f77b4"/>
     <use xlink:href="#m86d8951151" x="202.514958" y="78.215229" style="fill: #1f77b4; stroke: #1f77b4"/>
     <use xlink:href="#m86d8951151" x="305.728831" y="55.434432" style="fill: #1f77b4; stroke: #1f77b4"/>
     <use xlink:href="#m86d8951151" x="336.380224" y="56.107273" style="fill: #1f77b4; stroke: #1f77b4"/>
     <use xlink:href="#m86d8951151" x="327.622683" y="62.787463" style="fill: #1f77b4; stroke: #1f77b4"/>
     <use xlink:href="#m86d8951151" x="394.108502" y="69.39868" style="fill: #1f77b4; stroke: #1f77b4"/>
     <use xlink:href="#m86d8951151" x="309.928876" y="56.149813" style="fill: #1f77b4; stroke: #1f77b4"/>
     <use xlink:href="#m86d8951151" x="131.203555" y="87.703209" style="fill: #1f77b4; stroke: #1f77b4"/>
     <use xlink:href="#m86d8951151" x="303.852215" y="58.107593" style="fill: #1f77b4; stroke: #1f77b4"/>
     <use xlink:href="#m86d8951151" x="304.120303" y="56.070281" style="fill: #1f77b4; stroke: #1f77b4"/>
     <use xlink:href="#m86d8951151" x="308.320348" y="57.181302" style="fill: #1f77b4; stroke: #1f77b4"/>
     <use xlink:href="#m86d8951151" x="244.962222" y="56.25485" style="fill: #1f77b4; stroke: #1f77b4"/>
     <use xlink:href="#m86d8951151" x="304.030941" y="59.159032" style="fill: #1f77b4; stroke: #1f77b4"/>
     <use xlink:href="#m86d8951151" x="308.141623" y="57.274053" style="fill: #1f77b4; stroke: #1f77b4"/>
     <use xlink:href="#m86d8951151" x="305.460743" y="69.325668" style="fill: #1f77b4; stroke: #1f77b4"/>
     <use xlink:href="#m86d8951151" x="321.992835" y="78.092853" style="fill: #1f77b4; stroke: #1f77b4"/>
     <use xlink:href="#m86d8951151" x="126.377972" y="63.31645" style="fill: #1f77b4; stroke: #1f77b4"/>
     <use xlink:href="#m86d8951151" x="314.75446" y="55.803589" style="fill: #1f77b4; stroke: #1f77b4"/>
     <use xlink:href="#m86d8951151" x="324.49499" y="54.750773" style="fill: #1f77b4; stroke: #1f77b4"/>
     <use xlink:href="#m86d8951151" x="334.146157" y="55.741844" style="fill: #1f77b4; stroke: #1f77b4"/>
     <use xlink:href="#m86d8951151" x="367.210342" y="58.464689" style="fill: #1f77b4; stroke: #1f77b4"/>
     <use xlink:href="#m86d8951151" x="324.852441" y="123.718016" style="fill: #1f77b4; stroke: #1f77b4"/>
     <use xlink:href="#m86d8951151" x="310.73314" y="54.555022" style="fill: #1f77b4; stroke: #1f77b4"/>
     <use xlink:href="#m86d8951151" x="306.175644" y="62.51446" style="fill: #1f77b4; stroke: #1f77b4"/>
     <use xlink:href="#m86d8951151" x="129.863115" y="62.512583" style="fill: #1f77b4; stroke: #1f77b4"/>
     <use xlink:href="#m86d8951151" x="325.567342" y="58.068079" style="fill: #1f77b4; stroke: #1f77b4"/>
     <use xlink:href="#m86d8951151" x="281.1541" y="58.411368" style="fill: #1f77b4; stroke: #1f77b4"/>
     <use xlink:href="#m86d8951151" x="308.677799" y="55.518738" style="fill: #1f77b4; stroke: #1f77b4"/>
     <use xlink:href="#m86d8951151" x="398.308547" y="154.991502" style="fill: #1f77b4; stroke: #1f77b4"/>
     <use xlink:href="#m86d8951151" x="147.288834" y="54.523189" style="fill: #1f77b4; stroke: #1f77b4"/>
     <use xlink:href="#m86d8951151" x="307.247996" y="58.715703" style="fill: #1f77b4; stroke: #1f77b4"/>
     <use xlink:href="#m86d8951151" x="300.724522" y="55.858647" style="fill: #1f77b4; stroke: #1f77b4"/>
     <use xlink:href="#m86d8951151" x="288.124387" y="53.704546" style="fill: #1f77b4; stroke: #1f77b4"/>
     <use xlink:href="#m86d8951151" x="259.528336" y="54.026921" style="fill: #1f77b4; stroke: #1f77b4"/>
     <use xlink:href="#m86d8951151" x="214.847005" y="56.294412" style="fill: #1f77b4; stroke: #1f77b4"/>
     <use xlink:href="#m86d8951151" x="300.813885" y="58.433777" style="fill: #1f77b4; stroke: #1f77b4"/>
     <use xlink:href="#m86d8951151" x="188.842471" y="56.616217" style="fill: #1f77b4; stroke: #1f77b4"/>
     <use xlink:href="#m86d8951151" x="135.4036" y="59.817565" style="fill: #1f77b4; stroke: #1f77b4"/>
     <use xlink:href="#m86d8951151" x="273.468911" y="65.877492" style="fill: #1f77b4; stroke: #1f77b4"/>
     <use xlink:href="#m86d8951151" x="211.272499" y="136.61656" style="fill: #1f77b4; stroke: #1f77b4"/>
     <use xlink:href="#m86d8951151" x="241.834529" y="61.974134" style="fill: #1f77b4; stroke: #1f77b4"/>
     <use xlink:href="#m86d8951151" x="101.088339" y="178.743713" style="fill: #1f77b4; stroke: #1f77b4"/>
     <use xlink:href="#m86d8951151" x="297.864917" y="63.184228" style="fill: #1f77b4; stroke: #1f77b4"/>
     <use xlink:href="#m86d8951151" x="155.420836" y="61.663872" style="fill: #1f77b4; stroke: #1f77b4"/>
     <use xlink:href="#m86d8951151" x="354.699569" y="295.488" style="fill: #1f77b4; stroke: #1f77b4"/>
     <use xlink:href="#m86d8951151" x="269.09014" y="60.197279" style="fill: #1f77b4; stroke: #1f77b4"/>
     <use xlink:href="#m86d8951151" x="269.983767" y="67.740585" style="fill: #1f77b4; stroke: #1f77b4"/>
     <use xlink:href="#m86d8951151" x="355.861284" y="279.356696" style="fill: #1f77b4; stroke: #1f77b4"/>
     <use xlink:href="#m86d8951151" x="304.477754" y="60.871934" style="fill: #1f77b4; stroke: #1f77b4"/>
     <use xlink:href="#m86d8951151" x="301.260698" y="54.974506" style="fill: #1f77b4; stroke: #1f77b4"/>
    </g>
   </g>
   <g id="line2d_13">
    <path d="M 184.463701 68.175878 
L 140.318547 66.612822 
L 138.710019 66.555868 
L 139.335557 66.578017 
L 145.948394 66.812159 
L 141.301536 66.647627 
L 142.195163 66.679268 
L 288.035024 71.843048 
L 138.352568 66.543212 
L 214.936368 69.25483 
L 307.962898 72.548638 
L 216.544896 69.311783 
L 197.153199 68.625178 
L 360.329417 74.40279 
L 178.476403 67.963885 
L 139.335557 66.578017 
L 168.825235 67.622164 
L 182.944536 68.122089 
L 311.001228 72.656217 
L 321.277934 73.020087 
L 144.250504 66.752042 
L 156.850639 67.198177 
L 73.832727 64.258745 
L 214.578917 69.242173 
L 338.971741 73.646575 
L 139.961096 66.600166 
L 213.595928 69.207369 
L 394.37659 75.608305 
L 143.088789 66.710908 
L 142.016437 66.67294 
L 156.761276 67.195013 
L 333.699344 73.459894 
L 301.171335 72.308168 
L 329.499299 73.311182 
L 168.467785 67.609508 
L 200.995793 68.761233 
L 329.856749 73.323838 
L 327.53332 73.241572 
L 189.199922 68.343574 
L 279.992385 71.558281 
L 142.373888 66.685596 
L 397.861734 75.731704 
L 180.889195 68.049315 
L 181.604096 68.074628 
L 161.94431 67.37853 
L 157.476177 67.220326 
L 328.069496 73.260557 
L 169.718862 67.653805 
L 354.431481 74.193961 
L 257.294269 70.754604 
L 149.433538 66.935558 
L 144.339866 66.755206 
L 147.467559 66.865948 
L 172.935918 67.767712 
L 161.854948 67.375366 
L 370.427397 74.760331 
L 295.541488 72.108831 
L 237.545121 70.055342 
L 354.252756 74.187633 
L 94.118051 64.976992 
L 94.118051 64.976992 
L 94.118051 64.976992 
L 168.557147 67.612672 
L 398.487273 75.753853 
L 184.10625 68.163222 
L 170.255038 67.672789 
L 398.487273 75.753853 
L 369.17632 74.716034 
L 270.966756 71.238709 
L 202.514958 68.815023 
L 305.728831 72.469536 
L 336.380224 73.554816 
L 327.622683 73.244736 
L 394.108502 75.598813 
L 309.928876 72.618248 
L 131.203555 66.290086 
L 303.852215 72.403091 
L 304.120303 72.412583 
L 308.320348 72.561295 
L 244.962222 70.317961 
L 304.030941 72.409419 
L 308.141623 72.554967 
L 305.460743 72.460044 
L 321.992835 73.045399 
L 126.377972 66.119225 
L 314.75446 72.789109 
L 324.49499 73.133993 
L 334.146157 73.475714 
L 367.210342 74.646424 
L 324.852441 73.14665 
L 310.73314 72.646725 
L 306.175644 72.485357 
L 129.863115 66.242624 
L 325.567342 73.171962 
L 281.1541 71.599414 
L 308.677799 72.573951 
L 398.308547 75.747525 
L 147.288834 66.85962 
L 307.247996 72.523326 
L 300.724522 72.292348 
L 288.124387 71.846212 
L 259.528336 70.833706 
L 214.847005 69.251666 
L 300.813885 72.295512 
L 188.842471 68.330918 
L 135.4036 66.438797 
L 273.468911 71.327303 
L 211.272499 69.125102 
L 241.834529 70.207218 
L 101.088339 65.22379 
L 297.864917 72.191097 
L 155.420836 67.147552 
L 354.699569 74.203453 
L 269.09014 71.172263 
L 269.983767 71.203904 
L 355.861284 74.244586 
L 304.477754 72.425239 
L 301.260698 72.311332 
" clip-path="url(#pd5f81518d7)" style="fill: none; stroke: #ff0000; stroke-width: 1.5; stroke-linecap: square"/>
   </g>
   <g id="patch_3">
    <path d="M 57.6 307.584 
L 57.6 41.472 
" style="fill: none; stroke: #000000; stroke-width: 0.8; stroke-linejoin: miter; stroke-linecap: square"/>
   </g>
   <g id="patch_4">
    <path d="M 414.72 307.584 
L 414.72 41.472 
" style="fill: none; stroke: #000000; stroke-width: 0.8; stroke-linejoin: miter; stroke-linecap: square"/>
   </g>
   <g id="patch_5">
    <path d="M 57.6 307.584 
L 414.72 307.584 
" style="fill: none; stroke: #000000; stroke-width: 0.8; stroke-linejoin: miter; stroke-linecap: square"/>
   </g>
   <g id="patch_6">
    <path d="M 57.6 41.472 
L 414.72 41.472 
" style="fill: none; stroke: #000000; stroke-width: 0.8; stroke-linejoin: miter; stroke-linecap: square"/>
   </g>
   <g id="text_14">
    <!-- Returns from Training Period Length | stage -->
    <g transform="translate(105.974063 35.472) scale(0.12 -0.12)">
     <defs>
      <path id="DejaVuSans-52" d="M 2841 2188 
Q 3044 2119 3236 1894 
Q 3428 1669 3622 1275 
L 4263 0 
L 3584 0 
L 2988 1197 
Q 2756 1666 2539 1819 
Q 2322 1972 1947 1972 
L 1259 1972 
L 1259 0 
L 628 0 
L 628 4666 
L 2053 4666 
Q 2853 4666 3247 4331 
Q 3641 3997 3641 3322 
Q 3641 2881 3436 2590 
Q 3231 2300 2841 2188 
z
M 1259 4147 
L 1259 2491 
L 2053 2491 
Q 2509 2491 2742 2702 
Q 2975 2913 2975 3322 
Q 2975 3731 2742 3939 
Q 2509 4147 2053 4147 
L 1259 4147 
z
" transform="scale(0.015625)"/>
      <path id="DejaVuSans-66" d="M 2375 4863 
L 2375 4384 
L 1825 4384 
Q 1516 4384 1395 4259 
Q 1275 4134 1275 3809 
L 1275 3500 
L 2222 3500 
L 2222 3053 
L 1275 3053 
L 1275 0 
L 697 0 
L 697 3053 
L 147 3053 
L 147 3500 
L 697 3500 
L 697 3744 
Q 697 4328 969 4595 
Q 1241 4863 1831 4863 
L 2375 4863 
z
" transform="scale(0.015625)"/>
      <path id="DejaVuSans-6d" d="M 3328 2828 
Q 3544 3216 3844 3400 
Q 4144 3584 4550 3584 
Q 5097 3584 5394 3201 
Q 5691 2819 5691 2113 
L 5691 0 
L 5113 0 
L 5113 2094 
Q 5113 2597 4934 2840 
Q 4756 3084 4391 3084 
Q 3944 3084 3684 2787 
Q 3425 2491 3425 1978 
L 3425 0 
L 2847 0 
L 2847 2094 
Q 2847 2600 2669 2842 
Q 2491 3084 2119 3084 
Q 1678 3084 1418 2786 
Q 1159 2488 1159 1978 
L 1159 0 
L 581 0 
L 581 3500 
L 1159 3500 
L 1159 2956 
Q 1356 3278 1631 3431 
Q 1906 3584 2284 3584 
Q 2666 3584 2933 3390 
Q 3200 3197 3328 2828 
z
" transform="scale(0.015625)"/>
      <path id="DejaVuSans-7c" d="M 1344 4891 
L 1344 -1509 
L 813 -1509 
L 813 4891 
L 1344 4891 
z
" transform="scale(0.015625)"/>
     </defs>
     <use xlink:href="#DejaVuSans-52"/>
     <use xlink:href="#DejaVuSans-65" x="64.982422"/>
     <use xlink:href="#DejaVuSans-74" x="126.505859"/>
     <use xlink:href="#DejaVuSans-75" x="165.714844"/>
     <use xlink:href="#DejaVuSans-72" x="229.09375"/>
     <use xlink:href="#DejaVuSans-6e" x="268.457031"/>
     <use xlink:href="#DejaVuSans-73" x="331.835938"/>
     <use xlink:href="#DejaVuSans-20" x="383.935547"/>
     <use xlink:href="#DejaVuSans-66" x="415.722656"/>
     <use xlink:href="#DejaVuSans-72" x="450.927734"/>
     <use xlink:href="#DejaVuSans-6f" x="489.791016"/>
     <use xlink:href="#DejaVuSans-6d" x="550.972656"/>
     <use xlink:href="#DejaVuSans-20" x="648.384766"/>
     <use xlink:href="#DejaVuSans-54" x="680.171875"/>
     <use xlink:href="#DejaVuSans-72" x="726.505859"/>
     <use xlink:href="#DejaVuSans-61" x="767.619141"/>
     <use xlink:href="#DejaVuSans-69" x="828.898438"/>
     <use xlink:href="#DejaVuSans-6e" x="856.681641"/>
     <use xlink:href="#DejaVuSans-69" x="920.060547"/>
     <use xlink:href="#DejaVuSans-6e" x="947.84375"/>
     <use xlink:href="#DejaVuSans-67" x="1011.222656"/>
     <use xlink:href="#DejaVuSans-20" x="1074.699219"/>
     <use xlink:href="#DejaVuSans-50" x="1106.486328"/>
     <use xlink:href="#DejaVuSans-65" x="1163.164062"/>
     <use xlink:href="#DejaVuSans-72" x="1224.6875"/>
     <use xlink:href="#DejaVuSans-69" x="1265.800781"/>
     <use xlink:href="#DejaVuSans-6f" x="1293.583984"/>
     <use xlink:href="#DejaVuSans-64" x="1354.765625"/>
     <use xlink:href="#DejaVuSans-20" x="1418.242188"/>
     <use xlink:href="#DejaVuSans-4c" x="1450.029297"/>
     <use xlink:href="#DejaVuSans-65" x="1503.992188"/>
     <use xlink:href="#DejaVuSans-6e" x="1565.515625"/>
     <use xlink:href="#DejaVuSans-67" x="1628.894531"/>
     <use xlink:href="#DejaVuSans-74" x="1692.371094"/>
     <use xlink:href="#DejaVuSans-68" x="1731.580078"/>
     <use xlink:href="#DejaVuSans-20" x="1794.958984"/>
     <use xlink:href="#DejaVuSans-7c" x="1826.746094"/>
     <use xlink:href="#DejaVuSans-20" x="1860.4375"/>
     <use xlink:href="#DejaVuSans-73" x="1892.224609"/>
     <use xlink:href="#DejaVuSans-74" x="1944.324219"/>
     <use xlink:href="#DejaVuSans-61" x="1983.533203"/>
     <use xlink:href="#DejaVuSans-67" x="2044.8125"/>
     <use xlink:href="#DejaVuSans-65" x="2108.289062"/>
    </g>
   </g>
   <g id="legend_1">
    <g id="patch_7">
     <path d="M 66 301.584 
L 265.824375 301.584 
Q 268.224375 301.584 268.224375 299.184 
L 268.224375 264.77025 
Q 268.224375 262.37025 265.824375 262.37025 
L 66 262.37025 
Q 63.6 262.37025 63.6 264.77025 
L 63.6 299.184 
Q 63.6 301.584 66 301.584 
z
" style="fill: #ffffff; opacity: 0.8; stroke: #cccccc; stroke-linejoin: miter"/>
    </g>
    <g id="line2d_14">
     <g>
      <use xlink:href="#m86d8951151" x="80.4" y="272.088375" style="fill: #1f77b4; stroke: #1f77b4"/>
     </g>
    </g>
    <g id="text_15">
     <!-- final -->
     <g transform="translate(102 276.288375) scale(0.12 -0.12)">
      <use xlink:href="#DejaVuSans-66"/>
      <use xlink:href="#DejaVuSans-69" x="35.205078"/>
      <use xlink:href="#DejaVuSans-6e" x="62.988281"/>
      <use xlink:href="#DejaVuSans-61" x="126.367188"/>
      <use xlink:href="#DejaVuSans-6c" x="187.646484"/>
     </g>
    </g>
    <g id="line2d_15">
     <path d="M 68.4 289.754625 
L 80.4 289.754625 
L 92.4 289.754625 
" style="fill: none; stroke: #ff0000; stroke-width: 1.5; stroke-linecap: square"/>
    </g>
    <g id="text_16">
     <!-- r = -0.08 | NSE/year = -0.2 -->
     <g transform="translate(102 293.954625) scale(0.12 -0.12)">
      <defs>
       <path id="DejaVuSans-3d" d="M 678 2906 
L 4684 2906 
L 4684 2381 
L 678 2381 
L 678 2906 
z
M 678 1631 
L 4684 1631 
L 4684 1100 
L 678 1100 
L 678 1631 
z
" transform="scale(0.015625)"/>
       <path id="DejaVuSans-2d" d="M 313 2009 
L 1997 2009 
L 1997 1497 
L 313 1497 
L 313 2009 
z
" transform="scale(0.015625)"/>
       <path id="DejaVuSans-2e" d="M 684 794 
L 1344 794 
L 1344 0 
L 684 0 
L 684 794 
z
" transform="scale(0.015625)"/>
       <path id="DejaVuSans-2f" d="M 1625 4666 
L 2156 4666 
L 531 -594 
L 0 -594 
L 1625 4666 
z
" transform="scale(0.015625)"/>
      </defs>
      <use xlink:href="#DejaVuSans-72"/>
      <use xlink:href="#DejaVuSans-20" x="41.113281"/>
      <use xlink:href="#DejaVuSans-3d" x="72.900391"/>
      <use xlink:href="#DejaVuSans-20" x="156.689453"/>
      <use xlink:href="#DejaVuSans-2d" x="188.476562"/>
      <use xlink:href="#DejaVuSans-30" x="224.560547"/>
      <use xlink:href="#DejaVuSans-2e" x="288.183594"/>
      <use xlink:href="#DejaVuSans-30" x="319.970703"/>
      <use xlink:href="#DejaVuSans-38" x="383.59375"/>
      <use xlink:href="#DejaVuSans-20" x="447.216797"/>
      <use xlink:href="#DejaVuSans-7c" x="479.003906"/>
      <use xlink:href="#DejaVuSans-20" x="512.695312"/>
      <use xlink:href="#DejaVuSans-4e" x="544.482422"/>
      <use xlink:href="#DejaVuSans-53" x="619.287109"/>
      <use xlink:href="#DejaVuSans-45" x="682.763672"/>
      <use xlink:href="#DejaVuSans-2f" x="745.947266"/>
      <use xlink:href="#DejaVuSans-79" x="779.638672"/>
      <use xlink:href="#DejaVuSans-65" x="838.818359"/>
      <use xlink:href="#DejaVuSans-61" x="900.341797"/>
      <use xlink:href="#DejaVuSans-72" x="961.621094"/>
      <use xlink:href="#DejaVuSans-20" x="1002.734375"/>
      <use xlink:href="#DejaVuSans-3d" x="1034.521484"/>
      <use xlink:href="#DejaVuSans-20" x="1118.310547"/>
      <use xlink:href="#DejaVuSans-2d" x="1150.097656"/>
      <use xlink:href="#DejaVuSans-30" x="1186.181641"/>
      <use xlink:href="#DejaVuSans-2e" x="1249.804688"/>
      <use xlink:href="#DejaVuSans-32" x="1281.591797"/>
     </g>
    </g>
   </g>
  </g>
 </g>
 <defs>
  <clipPath id="pd5f81518d7">
   <rect x="57.6" y="41.472" width="357.12" height="266.112"/>
  </clipPath>
 </defs>
</svg>
