<?xml version="1.0" encoding="utf-8" standalone="no"?>
<!DOCTYPE svg PUBLIC "-//W3C//DTD SVG 1.1//EN"
  "http://www.w3.org/Graphics/SVG/1.1/DTD/svg11.dtd">
<svg xmlns:xlink="http://www.w3.org/1999/xlink" width="720pt" height="360pt" viewBox="0 0 720 360" xmlns="http://www.w3.org/2000/svg" version="1.1">
 <metadata>
  <rdf:RDF xmlns:dc="http://purl.org/dc/elements/1.1/" xmlns:cc="http://creativecommons.org/ns#" xmlns:rdf="http://www.w3.org/1999/02/22-rdf-syntax-ns#">
   <cc:Work>
    <dc:type rdf:resource="http://purl.org/dc/dcmitype/StillImage"/>
    <dc:date>2023-10-23T10:52:51.553499</dc:date>
    <dc:format>image/svg+xml</dc:format>
    <dc:creator>
     <cc:Agent>
      <dc:title>Matplotlib v3.7.1, https://matplotlib.org/</dc:title>
     </cc:Agent>
    </dc:creator>
   </cc:Work>
  </rdf:RDF>
 </metadata>
 <defs>
  <style type="text/css">*{stroke-linejoin: round; stroke-linecap: butt}</style>
 </defs>
 <g id="figure_1">
  <g id="patch_1">
   <path d="M 0 360 
L 720 360 
L 720 0 
L 0 0 
z
" style="fill: #ffffff"/>
  </g>
  <g id="axes_1">
   <g id="patch_2">
    <path d="M 90 288 
L 648 288 
L 648 43.2 
L 90 43.2 
z
" style="fill: #ffffff"/>
   </g>
   <g id="matplotlib.axis_1">
    <g id="xtick_1">
     <g id="line2d_1">
      <defs>
       <path id="m3cef55118b" d="M 0 0 
L 0 3.5 
" style="stroke: #000000; stroke-width: 0.8"/>
      </defs>
      <g>
       <use xlink:href="#m3cef55118b" x="149.389756" y="288" style="stroke: #000000; stroke-width: 0.8"/>
      </g>
     </g>
     <g id="text_1">
      <!-- 2023-08-15 -->
      <g transform="translate(87.746414 337.765903) rotate(-30) scale(0.12 -0.12)">
       <defs>
        <path id="DejaVuSans-32" d="M 1228 531 
L 3431 531 
L 3431 0 
L 469 0 
L 469 531 
Q 828 903 1448 1529 
Q 2069 2156 2228 2338 
Q 2531 2678 2651 2914 
Q 2772 3150 2772 3378 
Q 2772 3750 2511 3984 
Q 2250 4219 1831 4219 
Q 1534 4219 1204 4116 
Q 875 4013 500 3803 
L 500 4441 
Q 881 4594 1212 4672 
Q 1544 4750 1819 4750 
Q 2544 4750 2975 4387 
Q 3406 4025 3406 3419 
Q 3406 3131 3298 2873 
Q 3191 2616 2906 2266 
Q 2828 2175 2409 1742 
Q 1991 1309 1228 531 
z
" transform="scale(0.015625)"/>
        <path id="DejaVuSans-30" d="M 2034 4250 
Q 1547 4250 1301 3770 
Q 1056 3291 1056 2328 
Q 1056 1369 1301 889 
Q 1547 409 2034 409 
Q 2525 409 2770 889 
Q 3016 1369 3016 2328 
Q 3016 3291 2770 3770 
Q 2525 4250 2034 4250 
z
M 2034 4750 
Q 2819 4750 3233 4129 
Q 3647 3509 3647 2328 
Q 3647 1150 3233 529 
Q 2819 -91 2034 -91 
Q 1250 -91 836 529 
Q 422 1150 422 2328 
Q 422 3509 836 4129 
Q 1250 4750 2034 4750 
z
" transform="scale(0.015625)"/>
        <path id="DejaVuSans-33" d="M 2597 2516 
Q 3050 2419 3304 2112 
Q 3559 1806 3559 1356 
Q 3559 666 3084 287 
Q 2609 -91 1734 -91 
Q 1441 -91 1130 -33 
Q 819 25 488 141 
L 488 750 
Q 750 597 1062 519 
Q 1375 441 1716 441 
Q 2309 441 2620 675 
Q 2931 909 2931 1356 
Q 2931 1769 2642 2001 
Q 2353 2234 1838 2234 
L 1294 2234 
L 1294 2753 
L 1863 2753 
Q 2328 2753 2575 2939 
Q 2822 3125 2822 3475 
Q 2822 3834 2567 4026 
Q 2313 4219 1838 4219 
Q 1578 4219 1281 4162 
Q 984 4106 628 3988 
L 628 4550 
Q 988 4650 1302 4700 
Q 1616 4750 1894 4750 
Q 2613 4750 3031 4423 
Q 3450 4097 3450 3541 
Q 3450 3153 3228 2886 
Q 3006 2619 2597 2516 
z
" transform="scale(0.015625)"/>
        <path id="DejaVuSans-2d" d="M 313 2009 
L 1997 2009 
L 1997 1497 
L 313 1497 
L 313 2009 
z
" transform="scale(0.015625)"/>
        <path id="DejaVuSans-38" d="M 2034 2216 
Q 1584 2216 1326 1975 
Q 1069 1734 1069 1313 
Q 1069 891 1326 650 
Q 1584 409 2034 409 
Q 2484 409 2743 651 
Q 3003 894 3003 1313 
Q 3003 1734 2745 1975 
Q 2488 2216 2034 2216 
z
M 1403 2484 
Q 997 2584 770 2862 
Q 544 3141 544 3541 
Q 544 4100 942 4425 
Q 1341 4750 2034 4750 
Q 2731 4750 3128 4425 
Q 3525 4100 3525 3541 
Q 3525 3141 3298 2862 
Q 3072 2584 2669 2484 
Q 3125 2378 3379 2068 
Q 3634 1759 3634 1313 
Q 3634 634 3220 271 
Q 2806 -91 2034 -91 
Q 1263 -91 848 271 
Q 434 634 434 1313 
Q 434 1759 690 2068 
Q 947 2378 1403 2484 
z
M 1172 3481 
Q 1172 3119 1398 2916 
Q 1625 2713 2034 2713 
Q 2441 2713 2670 2916 
Q 2900 3119 2900 3481 
Q 2900 3844 2670 4047 
Q 2441 4250 2034 4250 
Q 1625 4250 1398 4047 
Q 1172 3844 1172 3481 
z
" transform="scale(0.015625)"/>
        <path id="DejaVuSans-31" d="M 794 531 
L 1825 531 
L 1825 4091 
L 703 3866 
L 703 4441 
L 1819 4666 
L 2450 4666 
L 2450 531 
L 3481 531 
L 3481 0 
L 794 0 
L 794 531 
z
" transform="scale(0.015625)"/>
        <path id="DejaVuSans-35" d="M 691 4666 
L 3169 4666 
L 3169 4134 
L 1269 4134 
L 1269 2991 
Q 1406 3038 1543 3061 
Q 1681 3084 1819 3084 
Q 2600 3084 3056 2656 
Q 3513 2228 3513 1497 
Q 3513 744 3044 326 
Q 2575 -91 1722 -91 
Q 1428 -91 1123 -41 
Q 819 9 494 109 
L 494 744 
Q 775 591 1075 516 
Q 1375 441 1709 441 
Q 2250 441 2565 725 
Q 2881 1009 2881 1497 
Q 2881 1984 2565 2268 
Q 2250 2553 1709 2553 
Q 1456 2553 1204 2497 
Q 953 2441 691 2322 
L 691 4666 
z
" transform="scale(0.015625)"/>
       </defs>
       <use xlink:href="#DejaVuSans-32"/>
       <use xlink:href="#DejaVuSans-30" x="63.623047"/>
       <use xlink:href="#DejaVuSans-32" x="127.246094"/>
       <use xlink:href="#DejaVuSans-33" x="190.869141"/>
       <use xlink:href="#DejaVuSans-2d" x="254.492188"/>
       <use xlink:href="#DejaVuSans-30" x="290.576172"/>
       <use xlink:href="#DejaVuSans-38" x="354.199219"/>
       <use xlink:href="#DejaVuSans-2d" x="417.822266"/>
       <use xlink:href="#DejaVuSans-31" x="453.90625"/>
       <use xlink:href="#DejaVuSans-35" x="517.529297"/>
      </g>
     </g>
    </g>
    <g id="xtick_2">
     <g id="line2d_2">
      <g>
       <use xlink:href="#m3cef55118b" x="265.078561" y="288" style="stroke: #000000; stroke-width: 0.8"/>
      </g>
     </g>
     <g id="text_2">
      <!-- 2023-09-01 -->
      <g transform="translate(203.435219 337.765903) rotate(-30) scale(0.12 -0.12)">
       <defs>
        <path id="DejaVuSans-39" d="M 703 97 
L 703 672 
Q 941 559 1184 500 
Q 1428 441 1663 441 
Q 2288 441 2617 861 
Q 2947 1281 2994 2138 
Q 2813 1869 2534 1725 
Q 2256 1581 1919 1581 
Q 1219 1581 811 2004 
Q 403 2428 403 3163 
Q 403 3881 828 4315 
Q 1253 4750 1959 4750 
Q 2769 4750 3195 4129 
Q 3622 3509 3622 2328 
Q 3622 1225 3098 567 
Q 2575 -91 1691 -91 
Q 1453 -91 1209 -44 
Q 966 3 703 97 
z
M 1959 2075 
Q 2384 2075 2632 2365 
Q 2881 2656 2881 3163 
Q 2881 3666 2632 3958 
Q 2384 4250 1959 4250 
Q 1534 4250 1286 3958 
Q 1038 3666 1038 3163 
Q 1038 2656 1286 2365 
Q 1534 2075 1959 2075 
z
" transform="scale(0.015625)"/>
       </defs>
       <use xlink:href="#DejaVuSans-32"/>
       <use xlink:href="#DejaVuSans-30" x="63.623047"/>
       <use xlink:href="#DejaVuSans-32" x="127.246094"/>
       <use xlink:href="#DejaVuSans-33" x="190.869141"/>
       <use xlink:href="#DejaVuSans-2d" x="254.492188"/>
       <use xlink:href="#DejaVuSans-30" x="290.576172"/>
       <use xlink:href="#DejaVuSans-39" x="354.199219"/>
       <use xlink:href="#DejaVuSans-2d" x="417.822266"/>
       <use xlink:href="#DejaVuSans-30" x="453.90625"/>
       <use xlink:href="#DejaVuSans-31" x="517.529297"/>
      </g>
     </g>
    </g>
    <g id="xtick_3">
     <g id="line2d_3">
      <g>
       <use xlink:href="#m3cef55118b" x="360.351695" y="288" style="stroke: #000000; stroke-width: 0.8"/>
      </g>
     </g>
     <g id="text_3">
      <!-- 2023-09-15 -->
      <g transform="translate(298.708353 337.765903) rotate(-30) scale(0.12 -0.12)">
       <use xlink:href="#DejaVuSans-32"/>
       <use xlink:href="#DejaVuSans-30" x="63.623047"/>
       <use xlink:href="#DejaVuSans-32" x="127.246094"/>
       <use xlink:href="#DejaVuSans-33" x="190.869141"/>
       <use xlink:href="#DejaVuSans-2d" x="254.492188"/>
       <use xlink:href="#DejaVuSans-30" x="290.576172"/>
       <use xlink:href="#DejaVuSans-39" x="354.199219"/>
       <use xlink:href="#DejaVuSans-2d" x="417.822266"/>
       <use xlink:href="#DejaVuSans-31" x="453.90625"/>
       <use xlink:href="#DejaVuSans-35" x="517.529297"/>
      </g>
     </g>
    </g>
    <g id="xtick_4">
     <g id="line2d_4">
      <g>
       <use xlink:href="#m3cef55118b" x="469.235276" y="288" style="stroke: #000000; stroke-width: 0.8"/>
      </g>
     </g>
     <g id="text_4">
      <!-- 2023-10-01 -->
      <g transform="translate(407.591935 337.765903) rotate(-30) scale(0.12 -0.12)">
       <use xlink:href="#DejaVuSans-32"/>
       <use xlink:href="#DejaVuSans-30" x="63.623047"/>
       <use xlink:href="#DejaVuSans-32" x="127.246094"/>
       <use xlink:href="#DejaVuSans-33" x="190.869141"/>
       <use xlink:href="#DejaVuSans-2d" x="254.492188"/>
       <use xlink:href="#DejaVuSans-31" x="290.576172"/>
       <use xlink:href="#DejaVuSans-30" x="354.199219"/>
       <use xlink:href="#DejaVuSans-2d" x="417.822266"/>
       <use xlink:href="#DejaVuSans-30" x="453.90625"/>
       <use xlink:href="#DejaVuSans-31" x="517.529297"/>
      </g>
     </g>
    </g>
    <g id="xtick_5">
     <g id="line2d_5">
      <g>
       <use xlink:href="#m3cef55118b" x="564.50841" y="288" style="stroke: #000000; stroke-width: 0.8"/>
      </g>
     </g>
     <g id="text_5">
      <!-- 2023-10-15 -->
      <g transform="translate(502.865068 337.765903) rotate(-30) scale(0.12 -0.12)">
       <use xlink:href="#DejaVuSans-32"/>
       <use xlink:href="#DejaVuSans-30" x="63.623047"/>
       <use xlink:href="#DejaVuSans-32" x="127.246094"/>
       <use xlink:href="#DejaVuSans-33" x="190.869141"/>
       <use xlink:href="#DejaVuSans-2d" x="254.492188"/>
       <use xlink:href="#DejaVuSans-31" x="290.576172"/>
       <use xlink:href="#DejaVuSans-30" x="354.199219"/>
       <use xlink:href="#DejaVuSans-2d" x="417.822266"/>
       <use xlink:href="#DejaVuSans-31" x="453.90625"/>
       <use xlink:href="#DejaVuSans-35" x="517.529297"/>
      </g>
     </g>
    </g>
   </g>
   <g id="matplotlib.axis_2">
    <g id="ytick_1">
     <g id="line2d_6">
      <defs>
       <path id="m6651fd5fb4" d="M 0 0 
L -3.5 0 
" style="stroke: #000000; stroke-width: 0.8"/>
      </defs>
      <g>
       <use xlink:href="#m6651fd5fb4" x="90" y="274.463351" style="stroke: #000000; stroke-width: 0.8"/>
      </g>
     </g>
     <g id="text_6">
      <!-- 0.0 -->
      <g transform="translate(63.91625 279.022413) scale(0.12 -0.12)">
       <defs>
        <path id="DejaVuSans-2e" d="M 684 794 
L 1344 794 
L 1344 0 
L 684 0 
L 684 794 
z
" transform="scale(0.015625)"/>
       </defs>
       <use xlink:href="#DejaVuSans-30"/>
       <use xlink:href="#DejaVuSans-2e" x="63.623047"/>
       <use xlink:href="#DejaVuSans-30" x="95.410156"/>
      </g>
     </g>
    </g>
    <g id="ytick_2">
     <g id="line2d_7">
      <g>
       <use xlink:href="#m6651fd5fb4" x="90" y="246.868007" style="stroke: #000000; stroke-width: 0.8"/>
      </g>
     </g>
     <g id="text_7">
      <!-- 0.2 -->
      <g transform="translate(63.91625 251.427069) scale(0.12 -0.12)">
       <use xlink:href="#DejaVuSans-30"/>
       <use xlink:href="#DejaVuSans-2e" x="63.623047"/>
       <use xlink:href="#DejaVuSans-32" x="95.410156"/>
      </g>
     </g>
    </g>
    <g id="ytick_3">
     <g id="line2d_8">
      <g>
       <use xlink:href="#m6651fd5fb4" x="90" y="219.272663" style="stroke: #000000; stroke-width: 0.8"/>
      </g>
     </g>
     <g id="text_8">
      <!-- 0.4 -->
      <g transform="translate(63.91625 223.831726) scale(0.12 -0.12)">
       <defs>
        <path id="DejaVuSans-34" d="M 2419 4116 
L 825 1625 
L 2419 1625 
L 2419 4116 
z
M 2253 4666 
L 3047 4666 
L 3047 1625 
L 3713 1625 
L 3713 1100 
L 3047 1100 
L 3047 0 
L 2419 0 
L 2419 1100 
L 313 1100 
L 313 1709 
L 2253 4666 
z
" transform="scale(0.015625)"/>
       </defs>
       <use xlink:href="#DejaVuSans-30"/>
       <use xlink:href="#DejaVuSans-2e" x="63.623047"/>
       <use xlink:href="#DejaVuSans-34" x="95.410156"/>
      </g>
     </g>
    </g>
    <g id="ytick_4">
     <g id="line2d_9">
      <g>
       <use xlink:href="#m6651fd5fb4" x="90" y="191.677319" style="stroke: #000000; stroke-width: 0.8"/>
      </g>
     </g>
     <g id="text_9">
      <!-- 0.6 -->
      <g transform="translate(63.91625 196.236382) scale(0.12 -0.12)">
       <defs>
        <path id="DejaVuSans-36" d="M 2113 2584 
Q 1688 2584 1439 2293 
Q 1191 2003 1191 1497 
Q 1191 994 1439 701 
Q 1688 409 2113 409 
Q 2538 409 2786 701 
Q 3034 994 3034 1497 
Q 3034 2003 2786 2293 
Q 2538 2584 2113 2584 
z
M 3366 4563 
L 3366 3988 
Q 3128 4100 2886 4159 
Q 2644 4219 2406 4219 
Q 1781 4219 1451 3797 
Q 1122 3375 1075 2522 
Q 1259 2794 1537 2939 
Q 1816 3084 2150 3084 
Q 2853 3084 3261 2657 
Q 3669 2231 3669 1497 
Q 3669 778 3244 343 
Q 2819 -91 2113 -91 
Q 1303 -91 875 529 
Q 447 1150 447 2328 
Q 447 3434 972 4092 
Q 1497 4750 2381 4750 
Q 2619 4750 2861 4703 
Q 3103 4656 3366 4563 
z
" transform="scale(0.015625)"/>
       </defs>
       <use xlink:href="#DejaVuSans-30"/>
       <use xlink:href="#DejaVuSans-2e" x="63.623047"/>
       <use xlink:href="#DejaVuSans-36" x="95.410156"/>
      </g>
     </g>
    </g>
    <g id="ytick_5">
     <g id="line2d_10">
      <g>
       <use xlink:href="#m6651fd5fb4" x="90" y="164.081975" style="stroke: #000000; stroke-width: 0.8"/>
      </g>
     </g>
     <g id="text_10">
      <!-- 0.8 -->
      <g transform="translate(63.91625 168.641038) scale(0.12 -0.12)">
       <use xlink:href="#DejaVuSans-30"/>
       <use xlink:href="#DejaVuSans-2e" x="63.623047"/>
       <use xlink:href="#DejaVuSans-38" x="95.410156"/>
      </g>
     </g>
    </g>
    <g id="ytick_6">
     <g id="line2d_11">
      <g>
       <use xlink:href="#m6651fd5fb4" x="90" y="136.486631" style="stroke: #000000; stroke-width: 0.8"/>
      </g>
     </g>
     <g id="text_11">
      <!-- 1.0 -->
      <g transform="translate(63.91625 141.045694) scale(0.12 -0.12)">
       <use xlink:href="#DejaVuSans-31"/>
       <use xlink:href="#DejaVuSans-2e" x="63.623047"/>
       <use xlink:href="#DejaVuSans-30" x="95.410156"/>
      </g>
     </g>
    </g>
    <g id="ytick_7">
     <g id="line2d_12">
      <g>
       <use xlink:href="#m6651fd5fb4" x="90" y="108.891287" style="stroke: #000000; stroke-width: 0.8"/>
      </g>
     </g>
     <g id="text_12">
      <!-- 1.2 -->
      <g transform="translate(63.91625 113.45035) scale(0.12 -0.12)">
       <use xlink:href="#DejaVuSans-31"/>
       <use xlink:href="#DejaVuSans-2e" x="63.623047"/>
       <use xlink:href="#DejaVuSans-32" x="95.410156"/>
      </g>
     </g>
    </g>
    <g id="ytick_8">
     <g id="line2d_13">
      <g>
       <use xlink:href="#m6651fd5fb4" x="90" y="81.295944" style="stroke: #000000; stroke-width: 0.8"/>
      </g>
     </g>
     <g id="text_13">
      <!-- 1.4 -->
      <g transform="translate(63.91625 85.855006) scale(0.12 -0.12)">
       <use xlink:href="#DejaVuSans-31"/>
       <use xlink:href="#DejaVuSans-2e" x="63.623047"/>
       <use xlink:href="#DejaVuSans-34" x="95.410156"/>
      </g>
     </g>
    </g>
    <g id="ytick_9">
     <g id="line2d_14">
      <g>
       <use xlink:href="#m6651fd5fb4" x="90" y="53.7006" style="stroke: #000000; stroke-width: 0.8"/>
      </g>
     </g>
     <g id="text_14">
      <!-- 1.6 -->
      <g transform="translate(63.91625 58.259662) scale(0.12 -0.12)">
       <use xlink:href="#DejaVuSans-31"/>
       <use xlink:href="#DejaVuSans-2e" x="63.623047"/>
       <use xlink:href="#DejaVuSans-36" x="95.410156"/>
      </g>
     </g>
    </g>
    <g id="text_15">
     <!-- Meters -->
     <g transform="translate(57.836562 182.6875) rotate(-90) scale(0.1 -0.1)">
      <defs>
       <path id="DejaVuSans-4d" d="M 628 4666 
L 1569 4666 
L 2759 1491 
L 3956 4666 
L 4897 4666 
L 4897 0 
L 4281 0 
L 4281 4097 
L 3078 897 
L 2444 897 
L 1241 4097 
L 1241 0 
L 628 0 
L 628 4666 
z
" transform="scale(0.015625)"/>
       <path id="DejaVuSans-65" d="M 3597 1894 
L 3597 1613 
L 953 1613 
Q 991 1019 1311 708 
Q 1631 397 2203 397 
Q 2534 397 2845 478 
Q 3156 559 3463 722 
L 3463 178 
Q 3153 47 2828 -22 
Q 2503 -91 2169 -91 
Q 1331 -91 842 396 
Q 353 884 353 1716 
Q 353 2575 817 3079 
Q 1281 3584 2069 3584 
Q 2775 3584 3186 3129 
Q 3597 2675 3597 1894 
z
M 3022 2063 
Q 3016 2534 2758 2815 
Q 2500 3097 2075 3097 
Q 1594 3097 1305 2825 
Q 1016 2553 972 2059 
L 3022 2063 
z
" transform="scale(0.015625)"/>
       <path id="DejaVuSans-74" d="M 1172 4494 
L 1172 3500 
L 2356 3500 
L 2356 3053 
L 1172 3053 
L 1172 1153 
Q 1172 725 1289 603 
Q 1406 481 1766 481 
L 2356 481 
L 2356 0 
L 1766 0 
Q 1100 0 847 248 
Q 594 497 594 1153 
L 594 3053 
L 172 3053 
L 172 3500 
L 594 3500 
L 594 4494 
L 1172 4494 
z
" transform="scale(0.015625)"/>
       <path id="DejaVuSans-72" d="M 2631 2963 
Q 2534 3019 2420 3045 
Q 2306 3072 2169 3072 
Q 1681 3072 1420 2755 
Q 1159 2438 1159 1844 
L 1159 0 
L 581 0 
L 581 3500 
L 1159 3500 
L 1159 2956 
Q 1341 3275 1631 3429 
Q 1922 3584 2338 3584 
Q 2397 3584 2469 3576 
Q 2541 3569 2628 3553 
L 2631 2963 
z
" transform="scale(0.015625)"/>
       <path id="DejaVuSans-73" d="M 2834 3397 
L 2834 2853 
Q 2591 2978 2328 3040 
Q 2066 3103 1784 3103 
Q 1356 3103 1142 2972 
Q 928 2841 928 2578 
Q 928 2378 1081 2264 
Q 1234 2150 1697 2047 
L 1894 2003 
Q 2506 1872 2764 1633 
Q 3022 1394 3022 966 
Q 3022 478 2636 193 
Q 2250 -91 1575 -91 
Q 1294 -91 989 -36 
Q 684 19 347 128 
L 347 722 
Q 666 556 975 473 
Q 1284 391 1588 391 
Q 1994 391 2212 530 
Q 2431 669 2431 922 
Q 2431 1156 2273 1281 
Q 2116 1406 1581 1522 
L 1381 1569 
Q 847 1681 609 1914 
Q 372 2147 372 2553 
Q 372 3047 722 3315 
Q 1072 3584 1716 3584 
Q 2034 3584 2315 3537 
Q 2597 3491 2834 3397 
z
" transform="scale(0.015625)"/>
      </defs>
      <use xlink:href="#DejaVuSans-4d"/>
      <use xlink:href="#DejaVuSans-65" x="86.279297"/>
      <use xlink:href="#DejaVuSans-74" x="147.802734"/>
      <use xlink:href="#DejaVuSans-65" x="187.011719"/>
      <use xlink:href="#DejaVuSans-72" x="248.535156"/>
      <use xlink:href="#DejaVuSans-73" x="289.648438"/>
     </g>
    </g>
   </g>
   <g id="line2d_15">
    <path d="M 115.363636 273.442585 
L 115.647187 273.010368 
L 115.930738 272.826446 
L 116.214289 272.964388 
L 116.49784 272.849437 
L 116.781391 272.872427 
L 117.632044 272.481593 
L 117.915595 272.389632 
L 118.199146 272.090759 
L 118.482697 272.2287 
L 118.766248 271.722915 
L 119.049799 271.883847 
L 119.33335 272.20571 
L 119.616901 273.14831 
L 119.900452 273.493163 
L 120.184003 273.24027 
L 120.467554 273.677085 
L 120.751105 273.447183 
L 121.034656 273.792036 
L 121.318207 273.470173 
L 121.601758 273.838017 
L 121.885309 273.585124 
L 122.16886 273.539144 
L 122.452411 273.654095 
L 122.735962 273.493163 
L 123.586615 274.067919 
L 123.870166 274.343802 
L 124.153717 274.297821 
L 124.720819 273.929977 
L 125.00437 274.067919 
L 125.287921 273.861007 
L 125.571472 273.1713 
L 125.855023 272.918407 
L 126.138574 273.355222 
L 126.705676 276.872727 
L 126.989227 276.297971 
L 127.272778 276.16003 
L 127.556329 275.723216 
L 127.83988 274.941548 
L 128.123431 274.803606 
L 128.690533 272.343651 
L 128.974084 272.274681 
L 129.257635 272.665515 
L 129.541186 272.481593 
L 130.108288 262.31991 
L 130.391839 263.952216 
L 130.67539 266.848986 
L 130.958941 268.550263 
L 131.809594 270.27453 
L 132.093145 270.458452 
L 132.376696 270.136589 
L 132.660247 270.021638 
L 133.5109 272.15973 
L 133.794451 269.538843 
L 134.078002 263.216529 
L 134.361553 259.446131 
L 134.645104 264.067168 
L 134.928655 266.734035 
L 135.495757 269.21698 
L 135.779308 270.22855 
L 136.062859 270.458452 
L 136.34641 270.182569 
L 136.629961 270.159579 
L 136.913512 270.573403 
L 137.480614 270.849286 
L 137.764165 270.642374 
L 138.331267 271.17115 
L 138.614818 270.895267 
L 138.898369 270.941247 
L 139.465471 270.573403 
L 139.749022 270.987228 
L 140.032573 272.527573 
L 140.316124 273.125319 
L 140.599675 272.918407 
L 140.883226 272.25169 
L 141.166777 272.757476 
L 141.450328 272.550563 
L 141.733879 272.895417 
L 142.01743 272.872427 
L 142.300981 272.619534 
L 142.584532 273.056349 
L 142.868083 272.826446 
L 143.151634 272.343651 
L 143.718736 272.895417 
L 144.285838 272.550563 
L 144.569389 272.366642 
L 145.136491 272.573554 
L 145.703593 272.757476 
L 145.987144 272.573554 
L 146.554246 273.125319 
L 146.837797 274.113899 
L 147.404899 274.734636 
L 147.68845 275.033509 
L 148.255552 274.527724 
L 148.539103 273.975958 
L 149.106205 273.769046 
L 149.389756 273.424192 
L 149.673307 268.757175 
L 149.956858 256.549361 
L 150.240409 255.583772 
L 150.52396 261.929076 
L 150.807511 265.676484 
L 151.374613 268.573253 
L 151.658164 268.642224 
L 151.941715 267.975507 
L 152.225266 264.756875 
L 152.792367 235.168445 
L 153.359469 255.583772 
L 153.64302 260.273779 
L 154.210122 262.756724 
L 154.493673 263.515402 
L 154.777224 263.791285 
L 155.060775 263.906236 
L 156.47853 265.28565 
L 157.045632 265.952367 
L 157.612734 266.067318 
L 157.896285 266.665064 
L 158.746938 267.561683 
L 159.31404 267.860556 
L 159.881142 266.894966 
L 160.164693 267.193839 
L 160.448244 269.584823 
L 161.015346 270.665364 
L 161.298897 270.642374 
L 161.582448 270.780316 
L 161.865999 271.745905 
L 162.433101 271.010218 
L 162.716652 271.26311 
L 163.000203 271.102179 
L 163.567305 270.412472 
L 163.850856 270.481443 
L 164.134407 270.665364 
L 164.701509 269.929677 
L 165.268611 270.458452 
L 165.835713 270.665364 
L 166.119264 270.550413 
L 166.402815 270.182569 
L 166.686366 270.366491 
L 166.969917 270.803306 
L 167.253468 271.860856 
L 167.537019 272.15973 
L 167.82057 271.860856 
L 168.104121 263.837265 
L 168.387672 232.478588 
L 168.671223 225.76544 
L 168.954774 231.099174 
L 169.521876 250.387979 
L 169.805427 254.641172 
L 170.088978 256.733283 
L 170.939631 259.859955 
L 171.790284 261.400301 
L 172.640937 262.250939 
L 173.49159 263.35447 
L 174.342243 264.871826 
L 174.625794 263.676334 
L 174.909345 263.35447 
L 175.192896 264.435011 
L 176.3271 266.412171 
L 176.610651 266.825995 
L 176.894202 266.688054 
L 177.177753 267.2858 
L 177.461304 267.331781 
L 177.744855 267.676634 
L 178.595508 267.791585 
L 178.879059 268.090458 
L 179.16261 268.159429 
L 179.446161 267.929527 
L 179.729712 268.205409 
L 180.013263 267.998497 
L 180.296814 267.147859 
L 180.580365 267.699624 
L 180.863916 270.320511 
L 181.147467 271.033208 
L 181.714569 271.148159 
L 181.99812 270.987228 
L 182.281671 271.26311 
L 182.848773 269.883696 
L 183.415875 269.699775 
L 183.699426 269.400902 
L 183.982977 269.308941 
L 184.266528 269.653794 
L 184.83363 269.814726 
L 185.684283 269.860706 
L 185.967834 269.998648 
L 186.251385 269.975657 
L 186.534936 269.745755 
L 186.818487 269.079038 
L 187.102038 269.056048 
L 187.385589 269.354921 
L 187.66914 271.17115 
L 187.952691 272.067769 
L 188.236242 272.15973 
L 188.803344 271.447032 
L 189.086895 271.424042 
L 189.653997 270.550413 
L 189.937548 271.309091 
L 190.221099 271.309091 
L 190.788201 270.435462 
L 191.071752 270.366491 
L 191.355303 269.906687 
L 191.638854 270.113599 
L 191.922405 270.550413 
L 192.205956 270.757325 
L 192.489507 270.826296 
L 192.773058 270.389482 
L 193.056609 270.619384 
L 193.907262 270.642374 
L 194.190813 270.803306 
L 195.041466 272.389632 
L 195.325017 272.504583 
L 195.608568 272.918407 
L 196.175669 272.113749 
L 196.45922 272.20571 
L 197.026322 271.584974 
L 197.593424 271.883847 
L 199.011179 271.493013 
L 199.29473 271.355071 
L 199.578281 271.676935 
L 199.861832 271.17115 
L 200.145383 271.424042 
L 200.712485 271.493013 
L 200.996036 271.883847 
L 201.563138 273.539144 
L 202.13024 273.585124 
L 202.697342 274.596694 
L 203.547995 273.332231 
L 203.831546 273.056349 
L 204.398648 272.113749 
L 204.96575 272.067769 
L 205.249301 271.906837 
L 205.532852 272.021788 
L 205.816403 271.929827 
L 206.099954 272.090759 
L 206.950607 271.722915 
L 207.234158 271.493013 
L 207.517709 271.791886 
L 207.80126 256.158527 
L 208.084811 172.244177 
L 208.368362 123.481893 
L 208.935464 162.956123 
L 209.502566 198.590984 
L 210.069668 212.890909 
L 210.920321 226.639068 
L 211.203872 229.305935 
L 211.487423 224.432006 
L 211.770974 222.960631 
L 212.054525 220.155823 
L 212.338076 224.937791 
L 212.621627 214.362284 
L 212.905178 216.477385 
L 213.188729 223.719309 
L 213.755831 231.191134 
L 214.039382 232.363636 
L 214.322933 232.294666 
L 214.606484 234.133884 
L 215.173586 238.869872 
L 216.591341 247.468219 
L 216.874892 247.996995 
L 217.725545 251.836364 
L 218.292647 54.327273 
L 219.710402 177.554921 
L 220.277504 195.303381 
L 220.844606 204.591435 
L 221.411708 210.98272 
L 223.396565 229.145004 
L 224.247218 234.363787 
L 225.097871 240.59414 
L 225.664973 242.709241 
L 225.948524 243.146056 
L 226.799177 245.904884 
L 228.216932 248.916604 
L 229.634687 252.618032 
L 230.48534 255.284899 
L 230.768891 255.353869 
L 231.052442 255.675733 
L 231.335993 256.204508 
L 231.619544 257.37701 
L 231.903095 257.331029 
L 232.470197 258.273629 
L 232.753748 258.549512 
L 233.037299 259.308189 
L 233.604401 259.492111 
L 233.887952 259.974906 
L 234.171503 260.135838 
L 234.455054 259.745004 
L 234.738605 259.813974 
L 235.022156 260.572652 
L 235.305707 262.756724 
L 235.589258 262.848685 
L 236.15636 263.906236 
L 236.439911 264.182119 
L 236.723462 264.986777 
L 237.007013 264.458002 
L 237.290564 264.549962 
L 237.574115 264.435011 
L 237.857666 264.894816 
L 238.424768 264.480992 
L 238.708319 264.710894 
L 238.99187 264.618933 
L 239.558971 265.009767 
L 240.409624 265.193689 
L 240.693175 265.239669 
L 240.976726 265.009767 
L 241.260277 264.090158 
L 241.543828 264.044177 
L 241.827379 264.503982 
L 242.11093 266.711044 
L 242.394481 267.538693 
L 242.678032 267.515702 
L 242.961583 267.354771 
L 243.528685 268.29737 
L 243.812236 267.837566 
L 244.379338 267.630654 
L 244.662889 267.032908 
L 244.94644 267.009917 
L 245.229991 266.665064 
L 245.513542 266.573103 
L 245.797093 266.825995 
L 246.647746 266.940947 
L 247.214848 266.963937 
L 247.498399 266.734035 
L 247.78195 266.963937 
L 248.349052 265.653494 
L 248.632603 266.27423 
L 248.916154 267.699624 
L 249.199705 268.159429 
L 249.483256 268.044478 
L 249.766807 268.481292 
L 250.050358 267.860556 
L 250.61746 267.745605 
L 250.901011 267.30879 
L 251.468113 266.917956 
L 251.751664 262.940646 
L 252.035215 261.239369 
L 252.318766 263.814275 
L 252.602317 265.193689 
L 252.885868 265.791435 
L 253.169419 265.791435 
L 253.45297 266.044328 
L 253.736521 266.113298 
L 254.020072 266.412171 
L 254.303623 266.481142 
L 254.587174 266.665064 
L 254.870725 266.642074 
L 255.437827 267.170849 
L 255.721378 267.101878 
L 256.28848 267.23982 
L 256.572031 267.492712 
L 257.139133 267.538693 
L 257.422684 267.906536 
L 257.706235 267.768595 
L 257.989786 268.090458 
L 258.556888 268.27438 
L 259.12399 268.021488 
L 259.691092 267.952517 
L 259.974643 268.067468 
L 260.258194 268.343351 
L 260.825296 268.25139 
L 261.108847 268.29737 
L 261.392398 268.481292 
L 261.9595 266.848986 
L 262.243051 267.607663 
L 262.526602 269.791736 
L 262.810153 270.550413 
L 263.093704 270.596394 
L 263.377255 270.297521 
L 263.944357 270.918257 
L 265.362112 269.354921 
L 265.645663 269.331931 
L 265.929214 269.125019 
L 266.212765 269.446882 
L 266.496316 269.538843 
L 266.779867 269.354921 
L 267.063418 269.423892 
L 267.346969 269.148009 
L 267.914071 269.377911 
L 268.197622 269.23997 
L 268.481173 268.458302 
L 268.764724 268.113449 
L 269.048275 268.550263 
L 269.331826 270.596394 
L 269.615377 271.079189 
L 269.898928 270.826296 
L 270.182479 270.826296 
L 270.46603 271.516003 
L 270.749581 271.309091 
L 271.033132 270.803306 
L 272.167336 269.745755 
L 272.450887 269.975657 
L 272.734438 269.906687 
L 273.017989 269.653794 
L 273.30154 269.791736 
L 273.868642 269.515853 
L 274.152193 269.837716 
L 274.435744 269.768745 
L 274.719295 269.883696 
L 275.002846 269.791736 
L 275.286397 269.23997 
L 275.569948 268.113449 
L 275.853499 268.481292 
L 276.13705 269.860706 
L 276.420601 270.182569 
L 276.704152 270.113599 
L 277.271254 270.596394 
L 277.554805 270.481443 
L 278.121907 269.722765 
L 278.405458 270.458452 
L 278.689009 270.27453 
L 278.97256 270.22855 
L 279.539662 269.722765 
L 279.823213 270.044628 
L 280.106764 269.814726 
L 280.390315 269.975657 
L 280.673866 269.515853 
L 280.957417 269.308941 
L 281.524519 269.607814 
L 281.80807 268.941097 
L 282.091621 268.688204 
L 282.375172 268.895116 
L 282.658722 269.377911 
L 283.225824 270.987228 
L 283.509375 271.17115 
L 283.792926 270.412472 
L 284.076477 270.918257 
L 284.360028 270.941247 
L 284.92713 270.573403 
L 285.210681 271.378062 
L 285.494232 271.355071 
L 285.777783 270.573403 
L 286.344885 270.25154 
L 286.628436 270.412472 
L 287.195538 270.021638 
L 287.479089 270.044628 
L 287.76264 270.20556 
L 288.329742 270.297521 
L 288.613293 270.665364 
L 288.896844 269.883696 
L 289.180395 269.469872 
L 289.463946 270.27453 
L 289.747497 271.906837 
L 290.314599 271.929827 
L 290.881701 271.791886 
L 291.165252 272.044778 
L 291.448803 271.332081 
L 291.732354 271.056198 
L 292.015905 271.630954 
L 292.299456 271.699925 
L 292.583007 271.125169 
L 292.866558 271.056198 
L 293.43366 270.711345 
L 293.717211 270.780316 
L 294.000762 270.619384 
L 294.567864 270.688355 
L 294.851415 270.573403 
L 295.134966 270.320511 
L 295.418517 270.481443 
L 295.985619 269.28595 
L 296.26917 270.182569 
L 296.552721 271.699925 
L 296.836272 272.343651 
L 297.119823 272.389632 
L 297.686925 271.699925 
L 297.970476 272.021788 
L 298.254027 272.113749 
L 298.537578 271.653944 
L 298.821129 271.424042 
L 299.10468 271.516003 
L 299.388231 270.849286 
L 299.671782 271.079189 
L 299.955333 270.711345 
L 300.238884 271.102179 
L 302.223741 270.550413 
L 302.507292 270.021638 
L 302.790843 270.021638 
L 303.357945 271.056198 
L 303.641496 268.665214 
L 303.925047 227.78858 
L 304.208598 225.489557 
L 304.492149 243.973704 
L 304.7757 253.353719 
L 305.342802 260.227799 
L 305.626353 261.653193 
L 305.909904 262.480841 
L 306.193455 262.618783 
L 306.760557 260.986476 
L 307.044108 261.33133 
L 307.327659 262.894666 
L 307.894761 264.044177 
L 308.461863 264.825845 
L 308.745414 264.756875 
L 309.312516 265.124718 
L 309.596067 265.078738 
L 310.163169 265.860406 
L 310.44672 265.929376 
L 310.730271 266.917956 
L 311.297373 263.837265 
L 311.580924 260.36574 
L 311.864475 259.262209 
L 312.148026 262.204959 
L 312.431577 263.745304 
L 312.715128 264.228099 
L 312.998679 264.480992 
L 313.849332 265.768445 
L 314.132883 266.044328 
L 314.416434 265.929376 
L 314.983536 266.205259 
L 315.550638 266.25124 
L 315.834189 266.504132 
L 316.11774 266.573103 
L 317.251944 267.423742 
L 317.535495 267.377761 
L 317.819046 267.998497 
L 318.102597 268.25139 
L 318.669699 268.182419 
L 318.95325 267.722615 
L 319.236801 267.699624 
L 319.520352 267.791585 
L 319.803903 267.630654 
L 320.087454 267.722615 
L 320.371005 268.205409 
L 320.654556 267.975507 
L 320.938107 267.952517 
L 321.221658 268.366341 
L 321.505209 268.412322 
L 321.78876 268.159429 
L 322.639413 268.412322 
L 323.206515 267.630654 
L 323.490066 268.136439 
L 323.773617 268.895116 
L 324.057168 268.895116 
L 324.62427 269.102029 
L 325.191372 269.148009 
L 325.474923 269.423892 
L 325.758473 269.125019 
L 326.042024 269.308941 
L 326.325575 269.102029 
L 326.892677 269.23997 
L 327.176228 269.607814 
L 327.74333 269.492863 
L 328.310432 268.734185 
L 328.593983 268.550263 
L 328.877534 268.941097 
L 329.444636 269.170999 
L 330.011738 269.056048 
L 330.295289 269.492863 
L 330.57884 270.25154 
L 330.862391 270.067618 
L 331.145942 270.159579 
L 331.429493 270.527423 
L 331.996595 270.366491 
L 332.280146 270.136589 
L 332.563697 270.090609 
L 332.847248 270.458452 
L 333.41435 270.27453 
L 333.981452 269.998648 
L 334.265003 270.159579 
L 334.548554 270.090609 
L 335.115656 270.343501 
L 335.399207 270.27453 
L 335.966309 270.550413 
L 336.24986 270.389482 
L 336.533411 270.044628 
L 336.816962 269.056048 
L 337.100513 269.883696 
L 337.384064 271.538993 
L 337.667615 272.458603 
L 337.951166 272.688505 
L 338.234717 272.412622 
L 338.518268 271.837866 
L 339.652472 270.504433 
L 339.936023 270.412472 
L 343.338635 243.077085 
L 343.905737 249.928174 
L 344.75639 255.629752 
L 345.323492 258.3426 
L 345.607043 258.526521 
L 346.174145 259.446131 
L 347.308349 260.802554 
L 347.875451 261.400301 
L 349.009655 262.687754 
L 349.576757 262.963636 
L 349.860308 263.35447 
L 350.143859 263.193539 
L 350.42741 263.170548 
L 350.710961 263.699324 
L 350.994512 264.480992 
L 351.561614 264.848835 
L 351.845165 265.239669 
L 352.695818 265.492562 
L 353.546471 266.136289 
L 353.830022 266.113298 
L 354.397124 266.458152 
L 354.680675 266.435162 
L 355.247777 266.159279 
L 356.381981 266.917956 
L 356.665532 266.894966 
L 356.949083 266.619083 
L 357.232634 265.400601 
L 357.516185 266.848986 
L 357.799736 269.170999 
L 358.083287 269.148009 
L 358.366838 269.400902 
L 358.650389 269.193989 
L 358.93394 269.28595 
L 359.217491 269.148009 
L 359.501042 269.23997 
L 360.068144 268.412322 
L 360.351695 267.837566 
L 360.635246 268.136439 
L 361.202348 267.860556 
L 361.485899 268.067468 
L 361.76945 267.883546 
L 362.053001 268.067468 
L 362.336552 268.113449 
L 362.620103 268.29737 
L 363.187205 268.343351 
L 363.470756 268.504282 
L 364.037858 267.216829 
L 364.321409 267.492712 
L 364.60496 269.998648 
L 364.888511 269.998648 
L 365.172062 269.308941 
L 365.455613 269.837716 
L 365.739164 269.768745 
L 366.022715 269.515853 
L 366.306266 269.561833 
L 366.873368 269.21698 
L 367.44047 268.573253 
L 367.724021 268.895116 
L 368.007572 269.033058 
L 368.858225 268.734185 
L 369.425326 269.079038 
L 369.992428 269.056048 
L 370.275979 269.26296 
L 370.843081 267.906536 
L 371.126632 268.389331 
L 371.410183 270.136589 
L 371.977285 270.826296 
L 372.544387 271.102179 
L 372.827938 270.642374 
L 373.111489 270.573403 
L 373.962142 269.791736 
L 374.245693 269.354921 
L 374.529244 269.538843 
L 374.812795 269.446882 
L 375.379897 269.033058 
L 375.663448 269.079038 
L 375.946999 269.308941 
L 376.514101 269.354921 
L 376.797652 269.148009 
L 377.081203 269.23997 
L 377.648305 268.872126 
L 378.215407 270.25154 
L 378.498958 270.044628 
L 379.06606 270.504433 
L 379.349611 270.527423 
L 379.916713 269.929677 
L 380.200264 269.676784 
L 380.483815 269.23997 
L 381.334468 268.895116 
L 381.618019 269.193989 
L 381.90157 269.125019 
L 382.185121 269.377911 
L 382.468672 268.872126 
L 382.752223 269.125019 
L 383.035774 269.056048 
L 383.319325 268.872126 
L 383.602876 269.170999 
L 383.886427 268.803156 
L 384.169978 268.711195 
L 384.453529 268.757175 
L 385.020631 269.768745 
L 385.304182 269.722765 
L 385.587733 270.136589 
L 385.871284 270.136589 
L 386.154835 270.711345 
L 386.438386 270.20556 
L 387.005488 270.159579 
L 387.289039 270.389482 
L 387.57259 270.20556 
L 387.856141 270.481443 
L 388.139692 270.182569 
L 388.706794 270.573403 
L 389.273896 270.527423 
L 389.840998 270.481443 
L 390.691651 270.665364 
L 390.975202 270.481443 
L 391.258753 269.584823 
L 391.542304 269.745755 
L 391.825855 271.470023 
L 392.392957 271.837866 
L 392.960059 271.21713 
L 393.24361 271.447032 
L 393.810712 271.24012 
L 394.094263 270.826296 
L 394.377814 270.688355 
L 394.944916 270.941247 
L 395.228467 270.757325 
L 395.512018 270.780316 
L 396.362671 270.366491 
L 396.929773 270.573403 
L 397.213324 270.596394 
L 397.780426 270.343501 
L 398.063977 270.320511 
L 398.347528 270.044628 
L 398.631079 270.849286 
L 398.91463 271.24012 
L 399.198181 271.860856 
L 399.481732 271.470023 
L 399.765283 272.550563 
L 400.048834 272.918407 
L 400.332385 272.504583 
L 400.615936 271.26311 
L 400.899487 271.470023 
L 401.183038 271.033208 
L 401.466589 271.148159 
L 402.033691 271.056198 
L 402.317242 270.826296 
L 403.167895 271.010218 
L 403.451446 271.010218 
L 403.734997 271.19414 
L 404.302099 270.987228 
L 404.58565 270.849286 
L 404.869201 270.021638 
L 405.152752 270.389482 
L 405.436303 272.067769 
L 406.003405 273.401202 
L 406.286956 273.079339 
L 406.570507 273.906987 
L 406.854058 274.15988 
L 407.42116 272.25169 
L 407.704711 272.067769 
L 407.988262 271.516003 
L 408.271813 271.309091 
L 409.122466 271.125169 
L 410.25667 271.378062 
L 410.540221 270.941247 
L 410.823772 271.079189 
L 411.107323 271.079189 
L 411.674425 270.25154 
L 411.957976 271.19414 
L 412.241527 272.803456 
L 412.525077 273.516153 
L 412.808628 273.631104 
L 413.092179 273.447183 
L 413.37573 274.044929 
L 413.659281 272.918407 
L 413.942832 272.895417 
L 414.226383 272.283877 
L 414.509934 272.274681 
L 415.644138 271.722915 
L 415.927689 271.607964 
L 416.21124 271.722915 
L 416.778342 271.607964 
L 417.628995 271.493013 
L 417.912546 271.722915 
L 418.196097 271.309091 
L 418.479648 270.435462 
L 418.763199 270.642374 
L 419.04675 272.366642 
L 419.330301 273.286251 
L 419.613852 272.964388 
L 419.897403 273.1713 
L 420.180954 273.906987 
L 420.464505 273.309241 
L 420.748056 273.056349 
L 421.315158 271.906837 
L 421.88226 272.044778 
L 422.165811 272.18272 
L 422.449362 272.504583 
L 422.732913 272.619534 
L 423.300015 272.113749 
L 423.583566 272.274681 
L 423.867117 271.929827 
L 424.150668 272.15973 
L 424.434219 271.538993 
L 424.71777 271.814876 
L 425.284872 270.688355 
L 425.568423 271.424042 
L 425.851974 273.263261 
L 426.135525 273.998948 
L 426.702627 273.608114 
L 426.986178 274.297821 
L 427.55328 273.378212 
L 428.120382 272.021788 
L 428.403933 271.814876 
L 428.687484 272.067769 
L 428.971035 271.676935 
L 429.538137 271.584974 
L 430.105239 271.538993 
L 430.672341 271.699925 
L 430.955892 271.355071 
L 431.522994 264.687904 
L 431.806545 263.998197 
L 432.373647 267.814576 
L 432.940749 269.561833 
L 433.2243 270.136589 
L 433.791402 270.642374 
L 434.074953 270.596394 
L 434.358504 270.849286 
L 434.925606 270.803306 
L 435.492708 270.320511 
L 435.776259 270.22855 
L 436.05981 270.366491 
L 436.343361 270.343501 
L 436.626912 270.619384 
L 436.910463 270.136589 
L 437.194014 270.22855 
L 437.477565 270.021638 
L 437.761116 269.998648 
L 438.044667 269.860706 
L 438.328218 267.492712 
L 438.611769 259.308189 
L 438.89532 260.296769 
L 439.178871 263.768295 
L 439.462422 265.30864 
L 439.745973 266.090308 
L 440.029524 266.527122 
L 440.313075 267.23982 
L 440.880177 267.078888 
L 441.163728 266.894966 
L 441.447279 267.009917 
L 441.73083 266.803005 
L 442.581483 266.825995 
L 442.865034 267.216829 
L 443.148585 266.986927 
L 443.432136 266.963937 
L 443.715687 266.825995 
L 443.999238 267.055898 
L 444.282789 267.055898 
L 444.56634 267.23982 
L 445.133442 267.331781 
L 445.416993 267.538693 
L 445.700544 267.538693 
L 446.551197 268.550263 
L 446.834748 268.458302 
L 447.118299 268.734185 
L 447.685401 268.504282 
L 448.536054 268.734185 
L 448.819605 267.791585 
L 449.103156 263.607363 
L 449.386707 253.46867 
L 449.670258 252.411119 
L 450.23736 242.61728 
L 450.520911 235.996093 
L 450.804462 234.110894 
L 451.088013 244.709391 
L 451.371564 250.870774 
L 451.655115 253.836514 
L 452.222217 256.480391 
L 453.07287 258.848385 
L 453.356421 259.607062 
L 453.639972 259.997896 
L 453.923523 260.158828 
L 454.490625 261.216379 
L 455.057727 262.112998 
L 455.341278 262.158978 
L 456.759032 263.469421 
L 457.042583 264.021187 
L 457.326134 264.182119 
L 457.609685 264.549962 
L 458.176787 264.825845 
L 458.743889 265.26266 
L 459.02744 265.423591 
L 459.310991 265.446582 
L 459.594542 265.722464 
L 459.878093 266.343201 
L 460.161644 266.573103 
L 460.445195 267.101878 
L 460.728746 267.354771 
L 461.012297 268.2284 
L 461.579399 267.147859 
L 461.86295 267.147859 
L 462.146501 266.963937 
L 462.713603 267.009917 
L 462.997154 267.561683 
L 463.280705 267.492712 
L 463.564256 267.745605 
L 463.847807 267.699624 
L 464.414909 268.136439 
L 464.69846 268.182419 
L 465.549113 268.550263 
L 465.832664 268.435312 
L 466.116215 267.561683 
L 466.399766 267.630654 
L 466.683317 269.745755 
L 466.966868 270.757325 
L 467.250419 271.056198 
L 467.53397 270.918257 
L 468.101072 271.24012 
L 468.384623 271.125169 
L 469.235276 268.872126 
L 469.518827 268.665214 
L 469.802378 268.780165 
L 470.36948 268.435312 
L 470.653031 268.642224 
L 471.787235 268.320361 
L 472.070786 268.504282 
L 472.354337 268.504282 
L 472.637888 268.090458 
L 472.921439 268.067468 
L 473.20499 268.182419 
L 474.055643 270.849286 
L 474.339194 270.941247 
L 474.622745 271.538993 
L 474.906296 271.26311 
L 475.189847 270.458452 
L 475.473398 270.044628 
L 475.756949 269.28595 
L 476.0405 269.170999 
L 476.324051 268.849136 
L 476.607602 268.918107 
L 476.891153 268.849136 
L 477.174704 269.056048 
L 477.741806 269.102029 
L 478.025357 269.102029 
L 478.592459 269.331931 
L 479.159561 269.28595 
L 479.726663 268.642224 
L 480.010214 268.642224 
L 480.577316 271.860856 
L 480.860867 271.998798 
L 481.144418 271.791886 
L 481.427969 272.2287 
L 481.71152 272.389632 
L 481.995071 272.136739 
L 482.278622 271.102179 
L 482.845724 270.550413 
L 483.412826 270.412472 
L 483.696377 270.366491 
L 483.979928 270.527423 
L 485.114132 270.458452 
L 485.681234 270.665364 
L 485.964785 270.366491 
L 486.248336 270.366491 
L 486.531887 269.676784 
L 486.815438 269.722765 
L 487.38254 273.493163 
L 487.666091 272.964388 
L 488.233193 272.803456 
L 488.800295 272.320661 
L 489.083846 271.814876 
L 489.367397 271.010218 
L 489.934499 270.642374 
L 490.21805 270.619384 
L 490.501601 270.734335 
L 490.785152 270.642374 
L 491.068703 270.757325 
L 491.352254 270.665364 
L 491.635805 270.780316 
L 491.919356 270.596394 
L 492.202907 270.688355 
L 492.486458 270.527423 
L 492.770009 270.757325 
L 493.05356 270.573403 
L 493.337111 269.952667 
L 493.620662 269.975657 
L 493.904213 271.607964 
L 494.187764 272.481593 
L 494.754866 271.538993 
L 495.038417 272.136739 
L 495.605519 271.493013 
L 495.88907 271.722915 
L 496.739723 271.125169 
L 497.023274 270.849286 
L 497.590376 271.079189 
L 497.873927 270.964237 
L 498.157478 271.010218 
L 499.291681 270.711345 
L 499.575232 270.872276 
L 500.142334 270.688355 
L 500.425885 271.056198 
L 500.992987 271.378062 
L 501.276538 271.102179 
L 501.560089 271.26311 
L 501.84364 271.19414 
L 502.127191 270.021638 
L 502.410742 265.837415 
L 502.977844 226.225244 
L 503.261395 225.167693 
L 503.828497 243.789782 
L 504.112048 247.859053 
L 504.67915 251.721412 
L 505.246252 254.43426 
L 506.096905 257.193088 
L 506.664007 258.687453 
L 506.947558 258.756424 
L 507.231109 259.928926 
L 507.51466 261.791134 
L 508.081762 263.515402 
L 508.365313 263.33148 
L 508.648864 264.159128 
L 508.932415 264.159128 
L 509.215966 264.503982 
L 509.783068 264.779865 
L 510.066619 264.618933 
L 510.35017 263.584373 
L 510.633721 263.078588 
L 511.767925 265.515552 
L 512.051476 265.745455 
L 512.618578 265.814425 
L 513.752782 266.711044 
L 514.319884 267.814576 
L 515.170537 268.2284 
L 515.454088 268.090458 
L 515.737639 268.550263 
L 516.02119 266.228249 
L 516.304741 265.414395 
L 524.811271 270.527423 
L 525.094822 270.504433 
L 525.378373 270.711345 
L 526.229026 270.504433 
L 526.512577 270.527423 
L 527.36323 270.343501 
L 527.646781 270.826296 
L 527.930332 271.561983 
L 528.213883 271.19414 
L 528.497434 271.860856 
L 528.780985 271.883847 
L 529.064536 272.320661 
L 529.348087 271.653944 
L 529.631638 271.447032 
L 529.915189 271.447032 
L 530.482291 271.17115 
L 531.616495 271.630954 
L 531.900046 271.699925 
L 532.183597 271.516003 
L 532.467148 271.607964 
L 532.750699 271.470023 
L 534.168454 271.630954 
L 534.735556 272.20571 
L 535.019107 271.998798 
L 535.302658 272.15973 
L 535.586209 271.998798 
L 536.153311 272.090759 
L 536.436862 272.021788 
L 537.287515 270.803306 
L 537.571066 271.102179 
L 538.138168 271.26311 
L 538.421719 271.21713 
L 539.272372 271.401052 
L 540.123025 271.286101 
L 540.690127 271.355071 
L 542.674983 272.20571 
L 543.525636 271.952817 
L 543.809187 271.561983 
L 544.092738 271.745905 
L 544.376289 271.676935 
L 544.943391 272.412622 
L 545.226942 272.20571 
L 545.510493 272.274681 
L 545.794044 271.975808 
L 546.077595 272.297671 
L 546.644697 272.458603 
L 546.928248 272.320661 
L 547.211799 272.366642 
L 547.49535 272.20571 
L 547.778901 270.826296 
L 548.629554 273.562134 
L 548.913105 273.815026 
L 549.196656 273.883997 
L 549.480207 273.14831 
L 549.763758 273.263261 
L 550.047309 272.619534 
L 550.33086 272.504583 
L 550.897962 271.952817 
L 551.181513 271.929827 
L 551.465064 272.067769 
L 552.032166 272.067769 
L 552.315717 272.044778 
L 552.599268 272.366642 
L 553.16637 271.768896 
L 553.733472 272.596544 
L 554.017023 272.320661 
L 554.300574 272.366642 
L 554.584125 272.573554 
L 554.867676 272.113749 
L 556.00188 272.136739 
L 556.285431 272.044778 
L 556.568982 272.343651 
L 556.852533 272.320661 
L 557.136084 271.975808 
L 557.419635 271.975808 
L 557.703186 271.791886 
L 558.270288 271.699925 
L 559.120941 269.26296 
L 559.688043 270.067618 
L 559.971594 270.20556 
L 560.255145 270.044628 
L 560.538696 269.538843 
L 561.105798 265.446582 
L 561.389349 265.998347 
L 561.6729 263.538392 
L 562.240002 241.444778 
L 562.523553 240.387228 
L 563.090655 252.342149 
L 563.374206 256.089557 
L 563.657757 258.158678 
L 564.224859 260.112847 
L 565.075512 261.975056 
L 565.642614 261.262359 
L 565.926165 261.791134 
L 566.493267 263.170548 
L 567.060369 264.067168 
L 567.627471 264.480992 
L 568.478124 265.860406 
L 568.761675 266.825995 
L 569.045226 266.803005 
L 569.328777 266.940947 
L 569.895879 266.917956 
L 570.17943 267.377761 
L 570.462981 267.607663 
L 570.746532 267.630654 
L 571.030083 267.791585 
L 571.597185 267.768595 
L 571.880736 267.906536 
L 572.164287 267.837566 
L 573.01494 268.205409 
L 573.298491 268.366341 
L 573.865593 268.29737 
L 574.432695 268.527273 
L 575.283348 268.803156 
L 575.566899 269.125019 
L 575.85045 268.872126 
L 576.134001 269.630804 
L 576.417552 269.561833 
L 577.268205 269.791736 
L 577.551756 269.699775 
L 577.835307 269.929677 
L 578.118858 269.745755 
L 578.402409 269.791736 
L 578.969511 270.435462 
L 579.253062 270.067618 
L 580.103715 269.975657 
L 580.670817 270.067618 
L 581.237919 270.297521 
L 581.805021 270.389482 
L 582.088572 270.711345 
L 583.506327 271.17115 
L 583.789878 271.21713 
L 584.35698 270.872276 
L 584.640531 271.26311 
L 584.924082 271.378062 
L 585.491183 270.504433 
L 585.774734 270.550413 
L 586.341836 271.19414 
L 586.908938 270.849286 
L 587.192489 270.964237 
L 587.47604 270.803306 
L 587.759591 270.458452 
L 588.043142 270.849286 
L 588.326693 270.550413 
L 588.610244 270.044628 
L 588.893795 270.573403 
L 589.177346 271.470023 
L 589.460897 271.470023 
L 589.744448 271.584974 
L 590.027999 271.837866 
L 590.31155 271.102179 
L 590.595101 270.688355 
L 590.878652 270.550413 
L 591.445754 270.941247 
L 591.729305 271.056198 
L 592.012856 270.366491 
L 592.296407 270.527423 
L 592.579958 270.964237 
L 593.430611 271.561983 
L 593.714162 271.355071 
L 594.281264 271.470023 
L 594.848366 271.17115 
L 595.699019 270.366491 
L 595.98257 271.102179 
L 596.266121 271.309091 
L 596.549672 271.19414 
L 597.116774 269.768745 
L 597.400325 267.561683 
L 597.683876 266.504132 
L 597.967427 267.101878 
L 598.250978 264.710894 
L 598.534529 260.135838 
L 598.81808 259.699023 
L 599.385182 264.021187 
L 599.668733 265.30864 
L 599.952284 266.021337 
L 600.235835 266.228249 
L 600.519386 266.573103 
L 600.802937 266.665064 
L 601.370039 267.124869 
L 601.937141 267.147859 
L 602.504243 265.492562 
L 603.071345 266.159279 
L 603.354896 266.25124 
L 603.638447 265.860406 
L 603.921998 257.652893 
L 604.205549 255.46882 
L 604.4891 259.078287 
L 604.772651 257.997746 
L 605.339753 249.445379 
L 605.906855 256.894215 
L 606.473957 259.790984 
L 607.041059 261.35432 
L 608.175263 263.239519 
L 608.742365 263.722314 
L 610.16012 265.722464 
L 610.443671 266.25124 
L 610.727222 266.205259 
L 611.010773 265.975357 
L 611.294324 266.29722 
L 611.577875 266.871976 
L 612.144977 266.665064 
L 613.562732 267.30879 
L 613.846283 267.584673 
L 614.129834 267.446732 
L 614.413385 267.584673 
L 614.696936 267.998497 
L 615.547589 268.205409 
L 615.83114 268.021488 
L 616.114691 268.412322 
L 616.398242 268.596243 
L 617.248895 270.504433 
L 617.532446 270.573403 
L 617.815997 269.860706 
L 618.099548 269.607814 
L 618.383099 269.745755 
L 618.66665 270.25154 
L 618.950201 270.435462 
L 619.517303 269.952667 
L 619.800854 270.27453 
L 620.367956 270.182569 
L 620.935058 270.711345 
L 621.218609 270.27453 
L 621.785711 270.711345 
L 622.069262 270.596394 
L 622.352813 271.102179 
L 622.636364 269.745755 
L 622.636364 269.745755 
" clip-path="url(#p6929c86918)" style="fill: none; stroke: #1f77b4; stroke-width: 1.5; stroke-linecap: square"/>
   </g>
   <g id="line2d_16">
    <path d="M 115.363636 272.700215 
L 120.184003 273.165038 
L 120.467554 273.699509 
L 121.034656 268.698809 
L 121.318207 269.252624 
L 121.601758 269.162177 
L 121.885309 269.30888 
L 122.452411 270.011767 
L 122.735962 270.430277 
L 123.019513 273.493163 
L 127.83988 274.697873 
L 128.406982 274.770988 
L 128.690533 274.005926 
L 128.974084 272.685981 
L 129.257635 272.314019 
L 129.541186 271.66487 
L 129.824737 272.481593 
L 130.67539 272.700054 
L 132.376696 273.139788 
L 132.660247 273.489471 
L 132.943798 271.500389 
L 133.227349 266.932217 
L 133.5109 264.963931 
L 134.078002 264.879914 
L 134.928655 265.400518 
L 136.34641 266.181122 
L 136.629961 270.182569 
L 140.883226 271.72821 
L 143.151634 272.460225 
L 143.435185 272.343651 
L 148.255552 273.522117 
L 148.539103 273.544072 
L 148.822654 273.763605 
L 149.106205 272.923231 
L 149.389756 272.443552 
L 149.673307 271.217772 
L 149.956858 270.487377 
L 150.240409 256.549361 
L 150.52396 256.333544 
L 150.807511 255.632365 
L 151.091062 253.979049 
L 151.658164 247.378022 
L 151.941715 245.968284 
L 152.225266 245.765325 
L 152.508817 245.406313 
L 152.792367 242.946625 
L 153.359469 227.856517 
L 153.64302 224.846465 
L 153.926571 224.049852 
L 154.493673 221.338256 
L 155.344326 211.128596 
L 155.627877 210.687738 
L 156.194979 211.281037 
L 156.762081 212.638323 
L 157.045632 265.653494 
L 157.612734 269.253226 
L 158.179836 271.665944 
L 158.746938 273.137099 
L 159.31404 273.986586 
L 159.881142 274.466343 
L 160.731795 274.831028 
L 162.14955 275.08376 
L 163.567305 275.222396 
L 163.850856 270.412472 
L 167.82057 270.946329 
L 168.104121 271.168112 
L 168.387672 269.7499 
L 168.954774 262.454589 
L 169.521876 260.636499 
L 169.805427 260.549676 
L 170.088978 260.929373 
L 170.372529 261.818702 
L 170.65608 257.905785 
L 171.223182 260.449905 
L 171.790284 262.237253 
L 172.357386 263.380643 
L 172.924488 264.087265 
L 173.775141 264.68944 
L 174.909345 265.121567 
L 177.177753 265.671145 
L 177.461304 267.2858 
L 183.982977 268.480577 
L 184.266528 269.308941 
L 197.026322 271.277746 
L 197.593424 271.354377 
L 197.876975 271.883847 
L 204.398648 272.676906 
L 204.682199 272.113749 
L 210.069668 273.445877 
L 211.203872 273.718385 
L 211.487423 273.389857 
L 212.054525 268.891186 
L 212.621627 258.938982 
L 212.905178 258.032673 
L 213.47228 260.401829 
L 214.039382 262.311863 
L 214.606484 263.264158 
L 215.173586 263.799389 
L 215.740688 264.226153 
L 216.024239 264.078796 
L 216.30779 264.392021 
L 216.591341 261.337064 
L 216.874892 262.000629 
L 217.158443 261.588468 
L 217.441994 258.589657 
L 217.725545 258.605473 
L 218.009096 257.886672 
L 218.859749 261.562409 
L 219.426851 262.817629 
L 219.993953 263.470809 
L 220.844606 264.072003 
L 223.113014 265.27683 
L 227.082728 267.121757 
L 231.335993 268.840467 
L 235.872809 270.42424 
L 238.424768 271.216899 
L 238.708319 264.480992 
L 242.11093 266.397191 
L 245.229991 267.957922 
L 245.513542 266.665064 
L 249.199705 268.457668 
L 250.901011 269.296026 
L 251.184562 268.55501 
L 251.468113 266.722548 
L 251.751664 266.062911 
L 252.035215 266.318712 
L 252.318766 261.239369 
L 255.721378 263.531346 
L 258.840439 265.398145 
L 259.12399 268.090458 
L 263.093704 269.820414 
L 267.346969 271.417748 
L 271.883785 272.871087 
L 276.704152 274.174802 
L 281.80807 275.328357 
L 287.479089 276.38327 
L 287.76264 270.044628 
L 292.866558 270.797662 
L 293.150109 271.056198 
L 297.970476 271.736848 
L 298.537578 271.257302 
L 299.10468 271.393924 
L 299.388231 271.292984 
L 299.671782 271.928548 
L 300.238884 265.727418 
L 300.522435 265.305721 
L 300.805986 265.234595 
L 301.089537 265.418326 
L 301.373088 265.810958 
L 302.790843 268.606466 
L 303.357945 269.251198 
L 303.641496 269.510162 
L 303.925047 269.593631 
L 304.208598 270.132334 
L 304.7757 266.499133 
L 305.342802 263.69581 
L 305.626353 264.141606 
L 305.909904 264.324407 
L 306.760557 265.739458 
L 307.61121 267.01182 
L 308.461863 267.742659 
L 309.312516 268.142043 
L 310.730271 268.515462 
L 314.699985 269.214221 
L 324.907821 270.778866 
L 335.682758 272.205719 
L 339.936023 272.712541 
L 343.338635 225.052742 
L 344.472839 230.523338 
L 345.039941 232.472893 
L 345.607043 233.821949 
L 346.174145 234.750938 
L 347.024798 235.694971 
L 348.159002 236.581593 
L 350.710961 238.19052 
L 350.994512 263.055597 
L 356.381981 264.356376 
L 356.665532 266.262735 
L 363.187205 267.544245 
L 363.470756 268.055973 
L 369.992428 269.181655 
L 370.275979 268.883621 
L 376.797652 269.937383 
L 377.081203 269.366416 
L 379.633162 269.798064 
L 379.916713 269.604816 
L 380.200264 269.101917 
L 380.483815 268.903763 
L 380.767366 269.015684 
L 381.050917 268.814975 
L 381.90157 267.603059 
L 382.185121 267.480296 
L 383.602876 268.376994 
L 383.886427 269.193989 
L 385.020631 269.905679 
L 386.438386 270.513423 
L 388.423243 271.110781 
L 390.4081 271.575127 
L 390.691651 270.504433 
L 393.810712 272.082457 
L 397.213324 273.531941 
L 397.496875 270.332006 
L 404.018548 271.622814 
L 404.302099 271.021713 
L 411.957976 272.435046 
L 412.241527 270.263035 
L 417.912546 271.396275 
L 418.196097 271.621758 
L 431.239443 272.290711 
L 431.522994 271.59417 
L 435.492708 271.750737 
L 435.776259 271.514388 
L 436.05981 270.924051 
L 436.343361 270.592243 
L 437.477565 270.886545 
L 437.761116 270.86973 
L 438.044667 271.053341 
L 438.328218 270.214756 
L 438.89532 269.938313 
L 439.745973 270.075166 
L 440.880177 269.87143 
L 443.148585 270.495077 
L 444.56634 270.678201 
L 445.416993 270.601173 
L 446.267646 270.682247 
L 446.551197 267.538693 
L 447.685401 267.809782 
L 447.968952 268.614636 
L 450.23736 268.851448 
L 451.088013 268.981924 
L 451.655115 267.600667 
L 451.938666 233.191285 
L 452.505768 232.757661 
L 452.789319 232.85824 
L 454.774176 234.790049 
L 455.624828 235.281674 
L 457.042583 235.800101 
L 460.728746 236.777198 
L 465.265562 237.911437 
L 465.549113 268.118047 
L 472.070786 269.633042 
L 472.354337 268.338753 
L 475.189847 270.084979 
L 478.308908 271.726699 
L 478.87601 271.997216 
L 479.159561 269.138813 
L 481.995071 270.773781 
L 485.114132 272.310903 
L 485.681234 272.564184 
L 485.964785 270.46305 
L 492.486458 271.736622 
L 492.770009 270.79411 
L 499.291681 272.025597 
L 499.575232 270.904463 
L 501.84364 272.000325 
L 502.127191 271.657168 
L 502.410742 269.964961 
L 503.544946 257.543043 
L 503.828497 255.854987 
L 504.395599 247.284699 
L 504.67915 246.340413 
L 505.813354 248.375154 
L 506.096905 248.859189 
L 506.380456 254.379083 
L 507.231109 257.908228 
L 508.081762 260.266694 
L 508.932415 261.844315 
L 509.783068 262.92544 
L 510.917272 263.907638 
L 512.335027 264.736867 
L 512.902129 264.998904 
L 513.18568 265.717866 
L 514.319884 265.992266 
L 515.454088 266.07511 
L 516.02119 266.067938 
L 528.213883 267.18666 
L 533.317801 267.582443 
L 533.601352 271.59417 
L 536.153311 271.670109 
L 536.720413 271.476969 
L 537.003964 271.526418 
L 537.854617 271.209564 
L 540.123025 271.740182 
L 540.406576 271.42864 
L 542.674983 271.629038 
L 546.928248 271.875952 
L 547.211799 272.2287 
L 547.49535 272.146935 
L 548.062452 271.655695 
L 550.897962 272.29246 
L 551.181513 272.10162 
L 551.748615 272.129006 
L 553.16637 272.442446 
L 553.449921 271.52601 
L 553.733472 269.775501 
L 554.017023 272.090759 
L 554.300574 271.271551 
L 554.584125 271.246309 
L 556.285431 272.086088 
L 557.136084 272.519959 
L 557.419635 272.150606 
L 557.986737 269.209514 
L 558.270288 268.639945 
L 558.553839 268.426538 
L 558.83739 267.531668 
L 559.120941 264.530868 
L 559.688043 255.92141 
L 559.971594 255.297273 
L 560.538696 256.179365 
L 560.822247 270.076814 
L 561.105798 268.763663 
L 561.389349 268.009593 
L 561.956451 264.864498 
L 562.240002 265.003836 
L 562.523553 265.282455 
L 562.807104 264.983165 
L 563.374206 263.748998 
L 563.657757 263.863274 
L 564.224859 265.821314 
L 565.075512 268.616048 
L 565.926165 270.503122 
L 566.776818 271.748567 
L 567.34392 272.338897 
L 567.627471 263.124568 
L 570.746532 263.506247 
L 571.030083 263.397271 
L 571.597185 262.884707 
L 571.880736 262.787699 
L 573.298491 263.277505 
L 574.149144 263.559541 
L 574.432695 268.338753 
L 580.670817 269.787552 
L 587.759591 271.299091 
L 588.043142 270.821698 
L 594.564815 272.050201 
L 594.848366 271.318287 
L 595.415468 270.536378 
L 595.699019 269.736625 
L 596.833223 263.803401 
L 597.116774 263.289897 
L 597.400325 263.230562 
L 597.683876 263.307608 
L 597.967427 263.524978 
L 598.250978 262.855552 
L 599.101631 258.029238 
L 599.385182 258.205682 
L 600.802937 261.094389 
L 601.370039 261.916644 
L 601.65359 266.545515 
L 602.504243 267.342792 
L 603.638447 268.089288 
L 605.056202 268.737424 
L 607.041059 269.389983 
L 608.175263 269.69679 
L 608.458814 261.800331 
L 611.010773 264.207782 
L 613.562732 266.311718 
L 614.980487 267.363713 
L 615.547589 267.655669 
L 618.383099 269.496885 
L 621.218609 271.08206 
L 621.785711 271.371595 
L 622.069262 270.683757 
L 622.636364 270.716731 
L 622.636364 270.716731 
" clip-path="url(#p6929c86918)" style="fill: none; stroke: #ff7f0e; stroke-width: 1.5; stroke-linecap: square"/>
   </g>
   <g id="patch_3">
    <path d="M 90 288 
L 90 43.2 
" style="fill: none; stroke: #000000; stroke-width: 0.8; stroke-linejoin: miter; stroke-linecap: square"/>
   </g>
   <g id="patch_4">
    <path d="M 648 288 
L 648 43.2 
" style="fill: none; stroke: #000000; stroke-width: 0.8; stroke-linejoin: miter; stroke-linecap: square"/>
   </g>
   <g id="patch_5">
    <path d="M 90 288 
L 648 288 
" style="fill: none; stroke: #000000; stroke-width: 0.8; stroke-linejoin: miter; stroke-linecap: square"/>
   </g>
   <g id="patch_6">
    <path d="M 90 43.2 
L 648 43.2 
" style="fill: none; stroke: #000000; stroke-width: 0.8; stroke-linejoin: miter; stroke-linecap: square"/>
   </g>
   <g id="text_16">
    <!-- DET016 -->
    <g transform="translate(345.471563 37.2) scale(0.12 -0.12)">
     <defs>
      <path id="DejaVuSans-44" d="M 1259 4147 
L 1259 519 
L 2022 519 
Q 2988 519 3436 956 
Q 3884 1394 3884 2338 
Q 3884 3275 3436 3711 
Q 2988 4147 2022 4147 
L 1259 4147 
z
M 628 4666 
L 1925 4666 
Q 3281 4666 3915 4102 
Q 4550 3538 4550 2338 
Q 4550 1131 3912 565 
Q 3275 0 1925 0 
L 628 0 
L 628 4666 
z
" transform="scale(0.015625)"/>
      <path id="DejaVuSans-45" d="M 628 4666 
L 3578 4666 
L 3578 4134 
L 1259 4134 
L 1259 2753 
L 3481 2753 
L 3481 2222 
L 1259 2222 
L 1259 531 
L 3634 531 
L 3634 0 
L 628 0 
L 628 4666 
z
" transform="scale(0.015625)"/>
      <path id="DejaVuSans-54" d="M -19 4666 
L 3928 4666 
L 3928 4134 
L 2272 4134 
L 2272 0 
L 1638 0 
L 1638 4134 
L -19 4134 
L -19 4666 
z
" transform="scale(0.015625)"/>
     </defs>
     <use xlink:href="#DejaVuSans-44"/>
     <use xlink:href="#DejaVuSans-45" x="77.001953"/>
     <use xlink:href="#DejaVuSans-54" x="140.185547"/>
     <use xlink:href="#DejaVuSans-30" x="201.269531"/>
     <use xlink:href="#DejaVuSans-31" x="264.892578"/>
     <use xlink:href="#DejaVuSans-36" x="328.515625"/>
    </g>
   </g>
   <g id="legend_1">
    <g id="patch_7">
     <path d="M 559.04375 80.55625 
L 641 80.55625 
Q 643 80.55625 643 78.55625 
L 643 50.2 
Q 643 48.2 641 48.2 
L 559.04375 48.2 
Q 557.04375 48.2 557.04375 50.2 
L 557.04375 78.55625 
Q 557.04375 80.55625 559.04375 80.55625 
z
" style="fill: #ffffff; opacity: 0.8; stroke: #cccccc; stroke-linejoin: miter"/>
    </g>
    <g id="line2d_17">
     <path d="M 561.04375 56.298437 
L 571.04375 56.298437 
L 581.04375 56.298437 
" style="fill: none; stroke: #1f77b4; stroke-width: 1.5; stroke-linecap: square"/>
    </g>
    <g id="text_17">
     <!-- measured -->
     <g transform="translate(589.04375 59.798437) scale(0.1 -0.1)">
      <defs>
       <path id="DejaVuSans-6d" d="M 3328 2828 
Q 3544 3216 3844 3400 
Q 4144 3584 4550 3584 
Q 5097 3584 5394 3201 
Q 5691 2819 5691 2113 
L 5691 0 
L 5113 0 
L 5113 2094 
Q 5113 2597 4934 2840 
Q 4756 3084 4391 3084 
Q 3944 3084 3684 2787 
Q 3425 2491 3425 1978 
L 3425 0 
L 2847 0 
L 2847 2094 
Q 2847 2600 2669 2842 
Q 2491 3084 2119 3084 
Q 1678 3084 1418 2786 
Q 1159 2488 1159 1978 
L 1159 0 
L 581 0 
L 581 3500 
L 1159 3500 
L 1159 2956 
Q 1356 3278 1631 3431 
Q 1906 3584 2284 3584 
Q 2666 3584 2933 3390 
Q 3200 3197 3328 2828 
z
" transform="scale(0.015625)"/>
       <path id="DejaVuSans-61" d="M 2194 1759 
Q 1497 1759 1228 1600 
Q 959 1441 959 1056 
Q 959 750 1161 570 
Q 1363 391 1709 391 
Q 2188 391 2477 730 
Q 2766 1069 2766 1631 
L 2766 1759 
L 2194 1759 
z
M 3341 1997 
L 3341 0 
L 2766 0 
L 2766 531 
Q 2569 213 2275 61 
Q 1981 -91 1556 -91 
Q 1019 -91 701 211 
Q 384 513 384 1019 
Q 384 1609 779 1909 
Q 1175 2209 1959 2209 
L 2766 2209 
L 2766 2266 
Q 2766 2663 2505 2880 
Q 2244 3097 1772 3097 
Q 1472 3097 1187 3025 
Q 903 2953 641 2809 
L 641 3341 
Q 956 3463 1253 3523 
Q 1550 3584 1831 3584 
Q 2591 3584 2966 3190 
Q 3341 2797 3341 1997 
z
" transform="scale(0.015625)"/>
       <path id="DejaVuSans-75" d="M 544 1381 
L 544 3500 
L 1119 3500 
L 1119 1403 
Q 1119 906 1312 657 
Q 1506 409 1894 409 
Q 2359 409 2629 706 
Q 2900 1003 2900 1516 
L 2900 3500 
L 3475 3500 
L 3475 0 
L 2900 0 
L 2900 538 
Q 2691 219 2414 64 
Q 2138 -91 1772 -91 
Q 1169 -91 856 284 
Q 544 659 544 1381 
z
M 1991 3584 
L 1991 3584 
z
" transform="scale(0.015625)"/>
       <path id="DejaVuSans-64" d="M 2906 2969 
L 2906 4863 
L 3481 4863 
L 3481 0 
L 2906 0 
L 2906 525 
Q 2725 213 2448 61 
Q 2172 -91 1784 -91 
Q 1150 -91 751 415 
Q 353 922 353 1747 
Q 353 2572 751 3078 
Q 1150 3584 1784 3584 
Q 2172 3584 2448 3432 
Q 2725 3281 2906 2969 
z
M 947 1747 
Q 947 1113 1208 752 
Q 1469 391 1925 391 
Q 2381 391 2643 752 
Q 2906 1113 2906 1747 
Q 2906 2381 2643 2742 
Q 2381 3103 1925 3103 
Q 1469 3103 1208 2742 
Q 947 2381 947 1747 
z
" transform="scale(0.015625)"/>
      </defs>
      <use xlink:href="#DejaVuSans-6d"/>
      <use xlink:href="#DejaVuSans-65" x="97.412109"/>
      <use xlink:href="#DejaVuSans-61" x="158.935547"/>
      <use xlink:href="#DejaVuSans-73" x="220.214844"/>
      <use xlink:href="#DejaVuSans-75" x="272.314453"/>
      <use xlink:href="#DejaVuSans-72" x="335.693359"/>
      <use xlink:href="#DejaVuSans-65" x="374.556641"/>
      <use xlink:href="#DejaVuSans-64" x="436.080078"/>
     </g>
    </g>
    <g id="line2d_18">
     <path d="M 561.04375 70.976562 
L 571.04375 70.976562 
L 581.04375 70.976562 
" style="fill: none; stroke: #ff7f0e; stroke-width: 1.5; stroke-linecap: square"/>
    </g>
    <g id="text_18">
     <!-- predicted -->
     <g transform="translate(589.04375 74.476562) scale(0.1 -0.1)">
      <defs>
       <path id="DejaVuSans-70" d="M 1159 525 
L 1159 -1331 
L 581 -1331 
L 581 3500 
L 1159 3500 
L 1159 2969 
Q 1341 3281 1617 3432 
Q 1894 3584 2278 3584 
Q 2916 3584 3314 3078 
Q 3713 2572 3713 1747 
Q 3713 922 3314 415 
Q 2916 -91 2278 -91 
Q 1894 -91 1617 61 
Q 1341 213 1159 525 
z
M 3116 1747 
Q 3116 2381 2855 2742 
Q 2594 3103 2138 3103 
Q 1681 3103 1420 2742 
Q 1159 2381 1159 1747 
Q 1159 1113 1420 752 
Q 1681 391 2138 391 
Q 2594 391 2855 752 
Q 3116 1113 3116 1747 
z
" transform="scale(0.015625)"/>
       <path id="DejaVuSans-69" d="M 603 3500 
L 1178 3500 
L 1178 0 
L 603 0 
L 603 3500 
z
M 603 4863 
L 1178 4863 
L 1178 4134 
L 603 4134 
L 603 4863 
z
" transform="scale(0.015625)"/>
       <path id="DejaVuSans-63" d="M 3122 3366 
L 3122 2828 
Q 2878 2963 2633 3030 
Q 2388 3097 2138 3097 
Q 1578 3097 1268 2742 
Q 959 2388 959 1747 
Q 959 1106 1268 751 
Q 1578 397 2138 397 
Q 2388 397 2633 464 
Q 2878 531 3122 666 
L 3122 134 
Q 2881 22 2623 -34 
Q 2366 -91 2075 -91 
Q 1284 -91 818 406 
Q 353 903 353 1747 
Q 353 2603 823 3093 
Q 1294 3584 2113 3584 
Q 2378 3584 2631 3529 
Q 2884 3475 3122 3366 
z
" transform="scale(0.015625)"/>
      </defs>
      <use xlink:href="#DejaVuSans-70"/>
      <use xlink:href="#DejaVuSans-72" x="63.476562"/>
      <use xlink:href="#DejaVuSans-65" x="102.339844"/>
      <use xlink:href="#DejaVuSans-64" x="163.863281"/>
      <use xlink:href="#DejaVuSans-69" x="227.339844"/>
      <use xlink:href="#DejaVuSans-63" x="255.123047"/>
      <use xlink:href="#DejaVuSans-74" x="310.103516"/>
      <use xlink:href="#DejaVuSans-65" x="349.3125"/>
      <use xlink:href="#DejaVuSans-64" x="410.835938"/>
     </g>
    </g>
   </g>
  </g>
 </g>
 <defs>
  <clipPath id="p6929c86918">
   <rect x="90" y="43.2" width="558" height="244.8"/>
  </clipPath>
 </defs>
</svg>
