<?xml version="1.0" encoding="utf-8" standalone="no"?>
<!DOCTYPE svg PUBLIC "-//W3C//DTD SVG 1.1//EN"
  "http://www.w3.org/Graphics/SVG/1.1/DTD/svg11.dtd">
<svg xmlns:xlink="http://www.w3.org/1999/xlink" width="720pt" height="360pt" viewBox="0 0 720 360" xmlns="http://www.w3.org/2000/svg" version="1.1">
 <metadata>
  <rdf:RDF xmlns:dc="http://purl.org/dc/elements/1.1/" xmlns:cc="http://creativecommons.org/ns#" xmlns:rdf="http://www.w3.org/1999/02/22-rdf-syntax-ns#">
   <cc:Work>
    <dc:type rdf:resource="http://purl.org/dc/dcmitype/StillImage"/>
    <dc:date>2023-10-23T10:53:41.541391</dc:date>
    <dc:format>image/svg+xml</dc:format>
    <dc:creator>
     <cc:Agent>
      <dc:title>Matplotlib v3.7.1, https://matplotlib.org/</dc:title>
     </cc:Agent>
    </dc:creator>
   </cc:Work>
  </rdf:RDF>
 </metadata>
 <defs>
  <style type="text/css">*{stroke-linejoin: round; stroke-linecap: butt}</style>
 </defs>
 <g id="figure_1">
  <g id="patch_1">
   <path d="M 0 360 
L 720 360 
L 720 0 
L 0 0 
z
" style="fill: #ffffff"/>
  </g>
  <g id="axes_1">
   <g id="patch_2">
    <path d="M 90 288 
L 648 288 
L 648 43.2 
L 90 43.2 
z
" style="fill: #ffffff"/>
   </g>
   <g id="matplotlib.axis_1">
    <g id="xtick_1">
     <g id="line2d_1">
      <defs>
       <path id="m9f563df794" d="M 0 0 
L 0 3.5 
" style="stroke: #000000; stroke-width: 0.8"/>
      </defs>
      <g>
       <use xlink:href="#m9f563df794" x="149.370747" y="288" style="stroke: #000000; stroke-width: 0.8"/>
      </g>
     </g>
     <g id="text_1">
      <!-- 2023-08-15 -->
      <g transform="translate(87.727405 337.765903) rotate(-30) scale(0.12 -0.12)">
       <defs>
        <path id="DejaVuSans-32" d="M 1228 531 
L 3431 531 
L 3431 0 
L 469 0 
L 469 531 
Q 828 903 1448 1529 
Q 2069 2156 2228 2338 
Q 2531 2678 2651 2914 
Q 2772 3150 2772 3378 
Q 2772 3750 2511 3984 
Q 2250 4219 1831 4219 
Q 1534 4219 1204 4116 
Q 875 4013 500 3803 
L 500 4441 
Q 881 4594 1212 4672 
Q 1544 4750 1819 4750 
Q 2544 4750 2975 4387 
Q 3406 4025 3406 3419 
Q 3406 3131 3298 2873 
Q 3191 2616 2906 2266 
Q 2828 2175 2409 1742 
Q 1991 1309 1228 531 
z
" transform="scale(0.015625)"/>
        <path id="DejaVuSans-30" d="M 2034 4250 
Q 1547 4250 1301 3770 
Q 1056 3291 1056 2328 
Q 1056 1369 1301 889 
Q 1547 409 2034 409 
Q 2525 409 2770 889 
Q 3016 1369 3016 2328 
Q 3016 3291 2770 3770 
Q 2525 4250 2034 4250 
z
M 2034 4750 
Q 2819 4750 3233 4129 
Q 3647 3509 3647 2328 
Q 3647 1150 3233 529 
Q 2819 -91 2034 -91 
Q 1250 -91 836 529 
Q 422 1150 422 2328 
Q 422 3509 836 4129 
Q 1250 4750 2034 4750 
z
" transform="scale(0.015625)"/>
        <path id="DejaVuSans-33" d="M 2597 2516 
Q 3050 2419 3304 2112 
Q 3559 1806 3559 1356 
Q 3559 666 3084 287 
Q 2609 -91 1734 -91 
Q 1441 -91 1130 -33 
Q 819 25 488 141 
L 488 750 
Q 750 597 1062 519 
Q 1375 441 1716 441 
Q 2309 441 2620 675 
Q 2931 909 2931 1356 
Q 2931 1769 2642 2001 
Q 2353 2234 1838 2234 
L 1294 2234 
L 1294 2753 
L 1863 2753 
Q 2328 2753 2575 2939 
Q 2822 3125 2822 3475 
Q 2822 3834 2567 4026 
Q 2313 4219 1838 4219 
Q 1578 4219 1281 4162 
Q 984 4106 628 3988 
L 628 4550 
Q 988 4650 1302 4700 
Q 1616 4750 1894 4750 
Q 2613 4750 3031 4423 
Q 3450 4097 3450 3541 
Q 3450 3153 3228 2886 
Q 3006 2619 2597 2516 
z
" transform="scale(0.015625)"/>
        <path id="DejaVuSans-2d" d="M 313 2009 
L 1997 2009 
L 1997 1497 
L 313 1497 
L 313 2009 
z
" transform="scale(0.015625)"/>
        <path id="DejaVuSans-38" d="M 2034 2216 
Q 1584 2216 1326 1975 
Q 1069 1734 1069 1313 
Q 1069 891 1326 650 
Q 1584 409 2034 409 
Q 2484 409 2743 651 
Q 3003 894 3003 1313 
Q 3003 1734 2745 1975 
Q 2488 2216 2034 2216 
z
M 1403 2484 
Q 997 2584 770 2862 
Q 544 3141 544 3541 
Q 544 4100 942 4425 
Q 1341 4750 2034 4750 
Q 2731 4750 3128 4425 
Q 3525 4100 3525 3541 
Q 3525 3141 3298 2862 
Q 3072 2584 2669 2484 
Q 3125 2378 3379 2068 
Q 3634 1759 3634 1313 
Q 3634 634 3220 271 
Q 2806 -91 2034 -91 
Q 1263 -91 848 271 
Q 434 634 434 1313 
Q 434 1759 690 2068 
Q 947 2378 1403 2484 
z
M 1172 3481 
Q 1172 3119 1398 2916 
Q 1625 2713 2034 2713 
Q 2441 2713 2670 2916 
Q 2900 3119 2900 3481 
Q 2900 3844 2670 4047 
Q 2441 4250 2034 4250 
Q 1625 4250 1398 4047 
Q 1172 3844 1172 3481 
z
" transform="scale(0.015625)"/>
        <path id="DejaVuSans-31" d="M 794 531 
L 1825 531 
L 1825 4091 
L 703 3866 
L 703 4441 
L 1819 4666 
L 2450 4666 
L 2450 531 
L 3481 531 
L 3481 0 
L 794 0 
L 794 531 
z
" transform="scale(0.015625)"/>
        <path id="DejaVuSans-35" d="M 691 4666 
L 3169 4666 
L 3169 4134 
L 1269 4134 
L 1269 2991 
Q 1406 3038 1543 3061 
Q 1681 3084 1819 3084 
Q 2600 3084 3056 2656 
Q 3513 2228 3513 1497 
Q 3513 744 3044 326 
Q 2575 -91 1722 -91 
Q 1428 -91 1123 -41 
Q 819 9 494 109 
L 494 744 
Q 775 591 1075 516 
Q 1375 441 1709 441 
Q 2250 441 2565 725 
Q 2881 1009 2881 1497 
Q 2881 1984 2565 2268 
Q 2250 2553 1709 2553 
Q 1456 2553 1204 2497 
Q 953 2441 691 2322 
L 691 4666 
z
" transform="scale(0.015625)"/>
       </defs>
       <use xlink:href="#DejaVuSans-32"/>
       <use xlink:href="#DejaVuSans-30" x="63.623047"/>
       <use xlink:href="#DejaVuSans-32" x="127.246094"/>
       <use xlink:href="#DejaVuSans-33" x="190.869141"/>
       <use xlink:href="#DejaVuSans-2d" x="254.492188"/>
       <use xlink:href="#DejaVuSans-30" x="290.576172"/>
       <use xlink:href="#DejaVuSans-38" x="354.199219"/>
       <use xlink:href="#DejaVuSans-2d" x="417.822266"/>
       <use xlink:href="#DejaVuSans-31" x="453.90625"/>
       <use xlink:href="#DejaVuSans-35" x="517.529297"/>
      </g>
     </g>
    </g>
    <g id="xtick_2">
     <g id="line2d_2">
      <g>
       <use xlink:href="#m9f563df794" x="264.994921" y="288" style="stroke: #000000; stroke-width: 0.8"/>
      </g>
     </g>
     <g id="text_2">
      <!-- 2023-09-01 -->
      <g transform="translate(203.35158 337.765903) rotate(-30) scale(0.12 -0.12)">
       <defs>
        <path id="DejaVuSans-39" d="M 703 97 
L 703 672 
Q 941 559 1184 500 
Q 1428 441 1663 441 
Q 2288 441 2617 861 
Q 2947 1281 2994 2138 
Q 2813 1869 2534 1725 
Q 2256 1581 1919 1581 
Q 1219 1581 811 2004 
Q 403 2428 403 3163 
Q 403 3881 828 4315 
Q 1253 4750 1959 4750 
Q 2769 4750 3195 4129 
Q 3622 3509 3622 2328 
Q 3622 1225 3098 567 
Q 2575 -91 1691 -91 
Q 1453 -91 1209 -44 
Q 966 3 703 97 
z
M 1959 2075 
Q 2384 2075 2632 2365 
Q 2881 2656 2881 3163 
Q 2881 3666 2632 3958 
Q 2384 4250 1959 4250 
Q 1534 4250 1286 3958 
Q 1038 3666 1038 3163 
Q 1038 2656 1286 2365 
Q 1534 2075 1959 2075 
z
" transform="scale(0.015625)"/>
       </defs>
       <use xlink:href="#DejaVuSans-32"/>
       <use xlink:href="#DejaVuSans-30" x="63.623047"/>
       <use xlink:href="#DejaVuSans-32" x="127.246094"/>
       <use xlink:href="#DejaVuSans-33" x="190.869141"/>
       <use xlink:href="#DejaVuSans-2d" x="254.492188"/>
       <use xlink:href="#DejaVuSans-30" x="290.576172"/>
       <use xlink:href="#DejaVuSans-39" x="354.199219"/>
       <use xlink:href="#DejaVuSans-2d" x="417.822266"/>
       <use xlink:href="#DejaVuSans-30" x="453.90625"/>
       <use xlink:href="#DejaVuSans-31" x="517.529297"/>
      </g>
     </g>
    </g>
    <g id="xtick_3">
     <g id="line2d_3">
      <g>
       <use xlink:href="#m9f563df794" x="360.21483" y="288" style="stroke: #000000; stroke-width: 0.8"/>
      </g>
     </g>
     <g id="text_3">
      <!-- 2023-09-15 -->
      <g transform="translate(298.571488 337.765903) rotate(-30) scale(0.12 -0.12)">
       <use xlink:href="#DejaVuSans-32"/>
       <use xlink:href="#DejaVuSans-30" x="63.623047"/>
       <use xlink:href="#DejaVuSans-32" x="127.246094"/>
       <use xlink:href="#DejaVuSans-33" x="190.869141"/>
       <use xlink:href="#DejaVuSans-2d" x="254.492188"/>
       <use xlink:href="#DejaVuSans-30" x="290.576172"/>
       <use xlink:href="#DejaVuSans-39" x="354.199219"/>
       <use xlink:href="#DejaVuSans-2d" x="417.822266"/>
       <use xlink:href="#DejaVuSans-31" x="453.90625"/>
       <use xlink:href="#DejaVuSans-35" x="517.529297"/>
      </g>
     </g>
    </g>
    <g id="xtick_4">
     <g id="line2d_4">
      <g>
       <use xlink:href="#m9f563df794" x="469.037583" y="288" style="stroke: #000000; stroke-width: 0.8"/>
      </g>
     </g>
     <g id="text_4">
      <!-- 2023-10-01 -->
      <g transform="translate(407.394241 337.765903) rotate(-30) scale(0.12 -0.12)">
       <use xlink:href="#DejaVuSans-32"/>
       <use xlink:href="#DejaVuSans-30" x="63.623047"/>
       <use xlink:href="#DejaVuSans-32" x="127.246094"/>
       <use xlink:href="#DejaVuSans-33" x="190.869141"/>
       <use xlink:href="#DejaVuSans-2d" x="254.492188"/>
       <use xlink:href="#DejaVuSans-31" x="290.576172"/>
       <use xlink:href="#DejaVuSans-30" x="354.199219"/>
       <use xlink:href="#DejaVuSans-2d" x="417.822266"/>
       <use xlink:href="#DejaVuSans-30" x="453.90625"/>
       <use xlink:href="#DejaVuSans-31" x="517.529297"/>
      </g>
     </g>
    </g>
    <g id="xtick_5">
     <g id="line2d_5">
      <g>
       <use xlink:href="#m9f563df794" x="564.257491" y="288" style="stroke: #000000; stroke-width: 0.8"/>
      </g>
     </g>
     <g id="text_5">
      <!-- 2023-10-15 -->
      <g transform="translate(502.614149 337.765903) rotate(-30) scale(0.12 -0.12)">
       <use xlink:href="#DejaVuSans-32"/>
       <use xlink:href="#DejaVuSans-30" x="63.623047"/>
       <use xlink:href="#DejaVuSans-32" x="127.246094"/>
       <use xlink:href="#DejaVuSans-33" x="190.869141"/>
       <use xlink:href="#DejaVuSans-2d" x="254.492188"/>
       <use xlink:href="#DejaVuSans-31" x="290.576172"/>
       <use xlink:href="#DejaVuSans-30" x="354.199219"/>
       <use xlink:href="#DejaVuSans-2d" x="417.822266"/>
       <use xlink:href="#DejaVuSans-31" x="453.90625"/>
       <use xlink:href="#DejaVuSans-35" x="517.529297"/>
      </g>
     </g>
    </g>
   </g>
   <g id="matplotlib.axis_2">
    <g id="ytick_1">
     <g id="line2d_6">
      <defs>
       <path id="m260de65a83" d="M 0 0 
L -3.5 0 
" style="stroke: #000000; stroke-width: 0.8"/>
      </defs>
      <g>
       <use xlink:href="#m260de65a83" x="90" y="261.73856" style="stroke: #000000; stroke-width: 0.8"/>
      </g>
     </g>
     <g id="text_6">
      <!-- 0.0 -->
      <g transform="translate(63.91625 266.297622) scale(0.12 -0.12)">
       <defs>
        <path id="DejaVuSans-2e" d="M 684 794 
L 1344 794 
L 1344 0 
L 684 0 
L 684 794 
z
" transform="scale(0.015625)"/>
       </defs>
       <use xlink:href="#DejaVuSans-30"/>
       <use xlink:href="#DejaVuSans-2e" x="63.623047"/>
       <use xlink:href="#DejaVuSans-30" x="95.410156"/>
      </g>
     </g>
    </g>
    <g id="ytick_2">
     <g id="line2d_7">
      <g>
       <use xlink:href="#m260de65a83" x="90" y="229.438327" style="stroke: #000000; stroke-width: 0.8"/>
      </g>
     </g>
     <g id="text_7">
      <!-- 0.1 -->
      <g transform="translate(63.91625 233.997389) scale(0.12 -0.12)">
       <use xlink:href="#DejaVuSans-30"/>
       <use xlink:href="#DejaVuSans-2e" x="63.623047"/>
       <use xlink:href="#DejaVuSans-31" x="95.410156"/>
      </g>
     </g>
    </g>
    <g id="ytick_3">
     <g id="line2d_8">
      <g>
       <use xlink:href="#m260de65a83" x="90" y="197.138093" style="stroke: #000000; stroke-width: 0.8"/>
      </g>
     </g>
     <g id="text_8">
      <!-- 0.2 -->
      <g transform="translate(63.91625 201.697156) scale(0.12 -0.12)">
       <use xlink:href="#DejaVuSans-30"/>
       <use xlink:href="#DejaVuSans-2e" x="63.623047"/>
       <use xlink:href="#DejaVuSans-32" x="95.410156"/>
      </g>
     </g>
    </g>
    <g id="ytick_4">
     <g id="line2d_9">
      <g>
       <use xlink:href="#m260de65a83" x="90" y="164.83786" style="stroke: #000000; stroke-width: 0.8"/>
      </g>
     </g>
     <g id="text_9">
      <!-- 0.3 -->
      <g transform="translate(63.91625 169.396923) scale(0.12 -0.12)">
       <use xlink:href="#DejaVuSans-30"/>
       <use xlink:href="#DejaVuSans-2e" x="63.623047"/>
       <use xlink:href="#DejaVuSans-33" x="95.410156"/>
      </g>
     </g>
    </g>
    <g id="ytick_5">
     <g id="line2d_10">
      <g>
       <use xlink:href="#m260de65a83" x="90" y="132.537627" style="stroke: #000000; stroke-width: 0.8"/>
      </g>
     </g>
     <g id="text_10">
      <!-- 0.4 -->
      <g transform="translate(63.91625 137.096689) scale(0.12 -0.12)">
       <defs>
        <path id="DejaVuSans-34" d="M 2419 4116 
L 825 1625 
L 2419 1625 
L 2419 4116 
z
M 2253 4666 
L 3047 4666 
L 3047 1625 
L 3713 1625 
L 3713 1100 
L 3047 1100 
L 3047 0 
L 2419 0 
L 2419 1100 
L 313 1100 
L 313 1709 
L 2253 4666 
z
" transform="scale(0.015625)"/>
       </defs>
       <use xlink:href="#DejaVuSans-30"/>
       <use xlink:href="#DejaVuSans-2e" x="63.623047"/>
       <use xlink:href="#DejaVuSans-34" x="95.410156"/>
      </g>
     </g>
    </g>
    <g id="ytick_6">
     <g id="line2d_11">
      <g>
       <use xlink:href="#m260de65a83" x="90" y="100.237394" style="stroke: #000000; stroke-width: 0.8"/>
      </g>
     </g>
     <g id="text_11">
      <!-- 0.5 -->
      <g transform="translate(63.91625 104.796456) scale(0.12 -0.12)">
       <use xlink:href="#DejaVuSans-30"/>
       <use xlink:href="#DejaVuSans-2e" x="63.623047"/>
       <use xlink:href="#DejaVuSans-35" x="95.410156"/>
      </g>
     </g>
    </g>
    <g id="ytick_7">
     <g id="line2d_12">
      <g>
       <use xlink:href="#m260de65a83" x="90" y="67.937161" style="stroke: #000000; stroke-width: 0.8"/>
      </g>
     </g>
     <g id="text_12">
      <!-- 0.6 -->
      <g transform="translate(63.91625 72.496223) scale(0.12 -0.12)">
       <defs>
        <path id="DejaVuSans-36" d="M 2113 2584 
Q 1688 2584 1439 2293 
Q 1191 2003 1191 1497 
Q 1191 994 1439 701 
Q 1688 409 2113 409 
Q 2538 409 2786 701 
Q 3034 994 3034 1497 
Q 3034 2003 2786 2293 
Q 2538 2584 2113 2584 
z
M 3366 4563 
L 3366 3988 
Q 3128 4100 2886 4159 
Q 2644 4219 2406 4219 
Q 1781 4219 1451 3797 
Q 1122 3375 1075 2522 
Q 1259 2794 1537 2939 
Q 1816 3084 2150 3084 
Q 2853 3084 3261 2657 
Q 3669 2231 3669 1497 
Q 3669 778 3244 343 
Q 2819 -91 2113 -91 
Q 1303 -91 875 529 
Q 447 1150 447 2328 
Q 447 3434 972 4092 
Q 1497 4750 2381 4750 
Q 2619 4750 2861 4703 
Q 3103 4656 3366 4563 
z
" transform="scale(0.015625)"/>
       </defs>
       <use xlink:href="#DejaVuSans-30"/>
       <use xlink:href="#DejaVuSans-2e" x="63.623047"/>
       <use xlink:href="#DejaVuSans-36" x="95.410156"/>
      </g>
     </g>
    </g>
    <g id="text_13">
     <!-- Meters -->
     <g transform="translate(57.836562 182.6875) rotate(-90) scale(0.1 -0.1)">
      <defs>
       <path id="DejaVuSans-4d" d="M 628 4666 
L 1569 4666 
L 2759 1491 
L 3956 4666 
L 4897 4666 
L 4897 0 
L 4281 0 
L 4281 4097 
L 3078 897 
L 2444 897 
L 1241 4097 
L 1241 0 
L 628 0 
L 628 4666 
z
" transform="scale(0.015625)"/>
       <path id="DejaVuSans-65" d="M 3597 1894 
L 3597 1613 
L 953 1613 
Q 991 1019 1311 708 
Q 1631 397 2203 397 
Q 2534 397 2845 478 
Q 3156 559 3463 722 
L 3463 178 
Q 3153 47 2828 -22 
Q 2503 -91 2169 -91 
Q 1331 -91 842 396 
Q 353 884 353 1716 
Q 353 2575 817 3079 
Q 1281 3584 2069 3584 
Q 2775 3584 3186 3129 
Q 3597 2675 3597 1894 
z
M 3022 2063 
Q 3016 2534 2758 2815 
Q 2500 3097 2075 3097 
Q 1594 3097 1305 2825 
Q 1016 2553 972 2059 
L 3022 2063 
z
" transform="scale(0.015625)"/>
       <path id="DejaVuSans-74" d="M 1172 4494 
L 1172 3500 
L 2356 3500 
L 2356 3053 
L 1172 3053 
L 1172 1153 
Q 1172 725 1289 603 
Q 1406 481 1766 481 
L 2356 481 
L 2356 0 
L 1766 0 
Q 1100 0 847 248 
Q 594 497 594 1153 
L 594 3053 
L 172 3053 
L 172 3500 
L 594 3500 
L 594 4494 
L 1172 4494 
z
" transform="scale(0.015625)"/>
       <path id="DejaVuSans-72" d="M 2631 2963 
Q 2534 3019 2420 3045 
Q 2306 3072 2169 3072 
Q 1681 3072 1420 2755 
Q 1159 2438 1159 1844 
L 1159 0 
L 581 0 
L 581 3500 
L 1159 3500 
L 1159 2956 
Q 1341 3275 1631 3429 
Q 1922 3584 2338 3584 
Q 2397 3584 2469 3576 
Q 2541 3569 2628 3553 
L 2631 2963 
z
" transform="scale(0.015625)"/>
       <path id="DejaVuSans-73" d="M 2834 3397 
L 2834 2853 
Q 2591 2978 2328 3040 
Q 2066 3103 1784 3103 
Q 1356 3103 1142 2972 
Q 928 2841 928 2578 
Q 928 2378 1081 2264 
Q 1234 2150 1697 2047 
L 1894 2003 
Q 2506 1872 2764 1633 
Q 3022 1394 3022 966 
Q 3022 478 2636 193 
Q 2250 -91 1575 -91 
Q 1294 -91 989 -36 
Q 684 19 347 128 
L 347 722 
Q 666 556 975 473 
Q 1284 391 1588 391 
Q 1994 391 2212 530 
Q 2431 669 2431 922 
Q 2431 1156 2273 1281 
Q 2116 1406 1581 1522 
L 1381 1569 
Q 847 1681 609 1914 
Q 372 2147 372 2553 
Q 372 3047 722 3315 
Q 1072 3584 1716 3584 
Q 2034 3584 2315 3537 
Q 2597 3491 2834 3397 
z
" transform="scale(0.015625)"/>
      </defs>
      <use xlink:href="#DejaVuSans-4d"/>
      <use xlink:href="#DejaVuSans-65" x="86.279297"/>
      <use xlink:href="#DejaVuSans-74" x="147.802734"/>
      <use xlink:href="#DejaVuSans-65" x="187.011719"/>
      <use xlink:href="#DejaVuSans-72" x="248.535156"/>
      <use xlink:href="#DejaVuSans-73" x="289.648438"/>
     </g>
    </g>
   </g>
   <g id="line2d_13">
    <path d="M 115.363636 269.284116 
L 115.930422 268.745916 
L 116.213814 268.530636 
L 116.497207 268.584456 
L 117.347384 269.122656 
L 117.91417 269.015016 
L 118.480955 267.777157 
L 118.764347 268.153897 
L 119.331133 271.275453 
L 119.614525 272.351852 
L 119.897918 273.912631 
L 120.18131 274.28937 
L 121.314881 271.113994 
L 121.598273 271.329273 
L 121.881666 271.060174 
L 122.165058 271.652193 
L 122.448451 271.275453 
L 122.731844 270.252875 
L 123.015236 268.369177 
L 123.298629 268.745916 
L 123.582021 269.391756 
L 124.148807 270.952534 
L 124.432199 270.683434 
L 124.998984 271.544553 
L 125.282377 271.275453 
L 125.565769 270.414334 
L 125.849162 270.037595 
L 126.982732 276.872727 
L 127.266125 276.872727 
L 127.549518 276.442168 
L 127.83291 275.742509 
L 128.399695 270.199055 
L 128.683088 270.683434 
L 129.249873 270.414334 
L 129.816658 266.324019 
L 130.383443 265.947279 
L 131.517014 264.547961 
L 131.800406 264.117401 
L 132.083799 264.117401 
L 132.650584 263.202462 
L 132.933977 263.740662 
L 133.217369 263.902122 
L 133.500762 264.870881 
L 133.784154 260.565285 
L 134.067547 259.488886 
L 134.917725 260.457645 
L 135.201117 261.372584 
L 135.767902 262.072244 
L 136.334688 261.641684 
L 136.901473 261.641684 
L 137.184865 262.126064 
L 137.751651 262.072244 
L 138.035043 261.695504 
L 138.318436 261.587864 
L 139.168614 260.780565 
L 139.735399 261.803144 
L 140.018791 262.987183 
L 140.302184 262.879543 
L 140.585576 263.148642 
L 140.868969 262.771903 
L 141.152362 262.825723 
L 141.719147 263.363922 
L 142.569325 263.417742 
L 142.852717 263.202462 
L 143.13611 262.610443 
L 143.419502 262.987183 
L 143.986287 263.256282 
L 144.26968 263.633022 
L 145.119858 263.740662 
L 145.970036 264.225041 
L 146.536821 265.35526 
L 147.103606 267.884797 
L 147.386998 268.153897 
L 147.670391 267.561878 
L 147.953784 267.508058 
L 148.237176 267.830977 
L 148.520569 267.454238 
L 148.803961 267.508058 
L 149.370747 267.992437 
L 149.654139 266.108739 
L 149.937532 262.825723 
L 150.220924 261.695504 
L 150.504317 261.426404 
L 150.787709 262.502803 
L 151.071102 261.587864 
L 151.354495 261.480224 
L 151.637887 261.964604 
L 151.92128 257.551369 
L 152.204672 254.968011 
L 152.488065 250.178037 
L 153.05485 222.245488 
L 153.621635 196.788656 
L 153.905028 193.774739 
L 154.188421 193.936199 
L 154.471813 196.519556 
L 154.755206 201.201891 
L 155.038598 203.785248 
L 155.321991 203.731428 
L 155.605383 202.870309 
L 155.888776 202.924129 
L 156.172169 202.332109 
L 156.455561 201.309531 
L 156.738954 200.878971 
L 157.305739 199.318193 
L 157.589132 198.941453 
L 158.155917 199.694932 
L 158.722702 200.609871 
L 159.006094 201.41717 
L 159.289487 201.79391 
L 159.57288 201.84773 
L 159.856272 201.74009 
L 160.423057 203.946708 
L 160.989843 205.346026 
L 161.556628 206.745345 
L 162.123413 210.082181 
L 162.406805 210.6742 
L 162.690198 211.804419 
L 164.957339 216.110014 
L 165.240731 216.917313 
L 165.524124 217.186413 
L 165.807517 217.616973 
L 166.090909 218.370452 
L 166.374302 218.801011 
L 166.941087 220.523249 
L 167.507872 222.460767 
L 167.791265 223.644806 
L 168.074657 218.531912 
L 168.35805 210.78184 
L 168.641442 196.358096 
L 168.924835 188.016005 
L 169.208228 184.517709 
L 169.775013 190.707002 
L 170.058405 192.5907 
L 170.341798 193.559459 
L 171.191976 198.457074 
L 171.758761 201.094251 
L 172.325546 202.655029 
L 176.859827 216.648214 
L 177.14322 216.917313 
L 178.27679 219.500671 
L 178.560183 219.82359 
L 179.410361 221.868748 
L 179.977146 222.030208 
L 180.260538 222.030208 
L 180.827324 224.129185 
L 181.110716 224.505925 
L 181.677501 226.766363 
L 181.960894 226.927822 
L 182.527679 227.842761 
L 183.377857 230.964318 
L 183.661249 231.071958 
L 183.944642 231.341057 
L 184.511427 232.363636 
L 184.79482 233.170935 
L 185.078212 233.440035 
L 185.361605 234.085874 
L 185.644997 234.354974 
L 186.495175 235.646653 
L 187.06196 235.000813 
L 187.628746 236.184852 
L 187.912138 236.938331 
L 188.195531 237.261251 
L 188.478923 237.207431 
L 188.762316 238.12237 
L 189.045708 238.44529 
L 189.895886 240.221348 
L 190.179279 240.651907 
L 191.029457 240.974827 
L 191.312849 240.759547 
L 191.596242 242.750885 
L 191.879634 243.558184 
L 192.163027 243.612004 
L 192.729812 245.011322 
L 193.013205 244.957502 
L 194.146775 246.303001 
L 194.71356 248.186699 
L 194.996953 248.455799 
L 195.280345 248.348159 
L 195.563738 248.509619 
L 196.130523 248.509619 
L 196.413916 248.724898 
L 197.264093 249.962757 
L 197.547486 249.855117 
L 198.964449 251.523535 
L 199.247842 251.523535 
L 199.531234 251.684995 
L 199.814627 251.684995 
L 200.098019 251.954095 
L 200.664804 252.007915 
L 200.948197 252.653754 
L 201.23159 252.707574 
L 201.514982 253.622513 
L 201.798375 254.106892 
L 202.081767 253.783973 
L 202.648553 253.837793 
L 202.931945 253.730153 
L 203.215338 254.483632 
L 203.49873 254.806552 
L 203.782123 254.914191 
L 204.065515 254.860372 
L 204.348908 254.375992 
L 204.915693 254.375992 
L 205.199086 255.021831 
L 206.332656 256.15205 
L 206.616049 255.93677 
L 207.182834 256.36733 
L 207.466227 256.69025 
L 207.749619 249.209278 
L 208.033012 230.749038 
L 208.316404 202.22447 
L 208.883189 181.988172 
L 209.166582 183.71041 
L 209.449975 193.936199 
L 210.01676 201.95537 
L 210.300152 202.27829 
L 211.15033 200.179312 
L 211.433723 199.156733 
L 212.000508 198.457074 
L 212.2839 195.981356 
L 213.134078 184.625349 
L 213.417471 183.71041 
L 213.700863 186.562867 
L 213.984256 187.639266 
L 214.267649 186.078487 
L 214.551041 185.217368 
L 215.401219 186.347587 
L 216.251397 188.877124 
L 216.534789 189.092404 
L 216.818182 189.953523 
L 217.101574 191.191382 
L 217.384967 191.621941 
L 217.66836 177.252017 
L 217.951752 72.087853 
L 218.235145 55.941871 
L 218.518537 55.995691 
L 218.80193 54.327273 
L 219.085322 57.771749 
L 219.9355 95.499527 
L 220.218893 99.697483 
L 220.502285 101.85028 
L 220.785678 103.088139 
L 221.069071 103.733978 
L 221.352463 104.864197 
L 221.635856 104.541277 
L 221.919248 104.756557 
L 222.202641 105.348576 
L 223.052819 103.787798 
L 226.45353 89.794614 
L 226.736922 89.310234 
L 227.5871 86.027218 
L 227.870493 86.027218 
L 228.437278 85.273739 
L 229.287456 86.081038 
L 229.570848 86.511597 
L 229.854241 87.157437 
L 230.137633 88.180015 
L 230.421026 88.718215 
L 231.837989 94.100209 
L 232.404774 96.898846 
L 234.671915 108.308673 
L 236.655663 122.678597 
L 236.939055 124.077916 
L 237.789233 130.643949 
L 238.356018 134.411344 
L 239.206196 139.954798 
L 240.339766 146.520831 
L 241.473337 150.987886 
L 243.457085 162.989733 
L 246.007618 174.66866 
L 247.424581 179.835374 
L 247.707974 181.019413 
L 247.991366 180.427394 
L 248.274759 180.750313 
L 249.691722 186.831967 
L 249.975114 187.316346 
L 250.258507 188.823304 
L 250.541899 189.307684 
L 250.825292 190.114983 
L 251.392077 192.37542 
L 251.67547 192.321601 
L 252.525648 194.689678 
L 252.80904 195.550797 
L 253.092433 195.766077 
L 253.375825 196.681016 
L 253.94261 197.649775 
L 254.226003 198.403254 
L 254.509396 198.779993 
L 255.076181 200.340772 
L 255.359573 200.663691 
L 255.642966 201.201891 
L 255.926359 201.255711 
L 257.059929 203.408508 
L 257.343321 203.408508 
L 257.626714 204.000528 
L 257.910107 204.215807 
L 258.193499 204.969287 
L 258.476892 204.700187 
L 258.760284 204.915467 
L 259.043677 205.292206 
L 259.32707 205.292206 
L 259.610462 205.076926 
L 260.177247 205.130746 
L 260.46064 205.399846 
L 260.744033 205.399846 
L 261.027425 205.776586 
L 261.310818 205.722766 
L 261.59421 205.238386 
L 261.877603 204.377267 
L 262.160995 205.292206 
L 262.444388 205.453666 
L 262.727781 205.399846 
L 263.294566 206.583885 
L 263.577958 206.476245 
L 264.144744 207.391184 
L 264.428136 207.821743 
L 264.994921 208.898142 
L 265.278314 209.059602 
L 265.845099 210.351281 
L 266.128492 210.56656 
L 266.695277 211.858239 
L 266.978669 212.019699 
L 267.262062 212.019699 
L 267.545455 212.288799 
L 267.828847 213.096098 
L 268.11224 213.257557 
L 268.679025 211.535319 
L 268.962417 211.642959 
L 269.24581 212.557898 
L 269.529203 212.826998 
L 270.095988 214.333956 
L 270.37938 214.333956 
L 270.662773 214.710696 
L 270.946166 215.356535 
L 271.796343 217.993712 
L 272.079736 217.670793 
L 272.646521 218.531912 
L 273.496699 220.41561 
L 273.780091 220.30797 
L 274.063484 220.523249 
L 274.913662 222.191668 
L 275.197054 221.761108 
L 275.480447 220.469429 
L 275.76384 221.276729 
L 276.047232 221.545828 
L 276.330625 222.676047 
L 276.89741 222.622227 
L 277.464195 222.945147 
L 277.747588 223.698626 
L 278.03098 223.644806 
L 278.597765 225.097944 
L 279.164551 224.936485 
L 280.014728 226.604903 
L 280.298121 226.766363 
L 280.581513 226.712543 
L 280.864906 226.066703 
L 281.148299 226.658723 
L 281.431691 226.820182 
L 281.715084 227.250742 
L 281.998476 226.497263 
L 282.281869 227.196922 
L 282.565262 227.573662 
L 282.848654 227.573662 
L 283.132047 227.788941 
L 283.415439 229.2959 
L 283.698832 228.65006 
L 283.982224 229.40354 
L 284.265617 229.24208 
L 284.54901 229.564999 
L 284.832402 231.018138 
L 285.115795 231.287238 
L 285.399187 230.802858 
L 285.68258 231.556337 
L 285.965973 230.964318 
L 286.249365 231.879257 
L 286.81615 231.663977 
L 287.099543 232.525096 
L 287.382936 232.686556 
L 287.666328 232.309816 
L 288.233113 233.655315 
L 288.516506 233.816775 
L 288.799898 232.794196 
L 289.083291 232.794196 
L 289.650076 239.467869 
L 289.933469 237.530351 
L 290.216861 237.099791 
L 290.500254 236.238672 
L 290.783647 237.422711 
L 291.067039 237.261251 
L 291.350432 238.33765 
L 291.633824 237.79945 
L 291.917217 238.33765 
L 292.200609 237.85327 
L 292.484002 237.637991 
L 292.767395 237.584171 
L 293.050787 237.85327 
L 293.617572 238.875849 
L 293.900965 238.714389 
L 294.184358 238.983489 
L 294.751143 239.306409 
L 295.034535 239.467869 
L 295.317928 239.467869 
L 295.60132 238.875849 
L 295.884713 237.69181 
L 296.168106 237.90709 
L 297.018283 239.360229 
L 297.301676 239.252589 
L 298.435246 240.867187 
L 298.718639 242.589425 
L 299.002031 242.374145 
L 299.285424 241.889766 
L 299.568817 242.804705 
L 299.852209 243.181444 
L 300.702387 245.818622 
L 301.552565 247.809959 
L 301.835957 248.186699 
L 302.11935 248.348159 
L 302.402743 247.6485 
L 302.686135 247.702319 
L 302.969528 249.532197 
L 303.25292 252.277014 
L 303.536313 253.353413 
L 303.819705 252.438474 
L 304.103098 250.285677 
L 304.669883 249.693657 
L 304.953276 250.662416 
L 305.236668 250.877696 
L 305.520061 251.469715 
L 305.803454 251.684995 
L 306.086846 251.523535 
L 306.370239 250.285677 
L 306.653631 245.710982 
L 306.937024 245.172782 
L 307.220416 245.011322 
L 307.503809 243.881104 
L 307.787202 243.773464 
L 308.353987 245.764802 
L 308.637379 245.872441 
L 308.920772 245.657162 
L 310.621127 241.566846 
L 310.90452 235.323733 
L 311.187913 233.547675 
L 311.471305 228.97298 
L 311.754698 222.568407 
L 312.321483 227.788941 
L 312.888268 228.596241 
L 313.171661 228.434781 
L 313.738446 228.97298 
L 314.021838 228.70388 
L 314.305231 228.91916 
L 314.588624 228.86534 
L 315.155409 229.18826 
L 315.438801 229.0268 
L 315.722194 229.08062 
L 316.005587 228.97298 
L 317.139157 230.587578 
L 317.42255 230.641398 
L 317.705942 230.910498 
L 317.989335 230.964318 
L 320.539868 236.561592 
L 321.106653 239.037309 
L 321.673438 240.328988 
L 322.523616 242.481785 
L 322.807009 242.481785 
L 323.090401 243.019985 
L 323.373794 244.096383 
L 324.223972 245.280422 
L 324.507364 245.334242 
L 325.074149 246.195361 
L 325.357542 247.16412 
L 325.640934 247.21794 
L 325.924327 247.756139 
L 326.774505 248.294339 
L 327.34129 250.124217 
L 327.624683 250.716236 
L 327.908075 250.823876 
L 328.191468 250.393316 
L 328.758253 250.931516 
L 329.041646 251.200616 
L 329.891823 251.577355 
L 330.175216 251.954095 
L 330.742001 255.775311 
L 331.592179 254.860372 
L 331.875571 254.698912 
L 332.442357 254.806552 
L 333.009142 255.129471 
L 333.292534 254.968011 
L 334.142712 255.452391 
L 334.709497 256.20587 
L 335.276282 256.36733 
L 336.12646 257.389909 
L 336.693245 255.99059 
L 336.976638 257.336089 
L 337.26003 257.497549 
L 337.543423 258.304848 
L 337.826816 258.251028 
L 338.110208 258.735407 
L 338.393601 258.681587 
L 338.676993 258.197208 
L 338.960386 257.981928 
L 339.243779 258.251028 
L 339.527171 257.336089 
L 339.810564 256.959349 
L 343.211275 189.200044 
L 343.494667 189.253864 
L 343.77806 189.792063 
L 344.061453 189.146224 
L 344.628238 186.616687 
L 345.761808 181.934352 
L 346.045201 181.503792 
L 346.328593 180.857953 
L 346.611986 181.127053 
L 346.895378 181.180873 
L 347.178771 181.503792 
L 347.462164 181.073233 
L 348.028949 182.203452 
L 348.312341 182.364912 
L 349.729304 185.055909 
L 350.012697 185.163548 
L 352.56323 192.160141 
L 352.846623 193.02126 
L 353.413408 195.335517 
L 353.6968 195.819897 
L 355.680549 202.385929 
L 356.247334 204.054348 
L 356.530726 204.969287 
L 357.097511 205.238386 
L 357.947689 207.929383 
L 358.231082 208.844322 
L 358.514474 209.274882 
L 358.797867 210.458921 
L 359.364652 211.642959 
L 359.648045 213.203737 
L 360.21483 214.118676 
L 360.498222 214.387776 
L 361.065008 216.432934 
L 361.915185 219.123931 
L 362.481971 220.25415 
L 362.765363 221.330549 
L 363.048756 221.707288 
L 363.332148 222.514587 
L 363.615541 222.460767 
L 363.898933 222.837507 
L 364.182326 224.559745 
L 364.465719 224.882665 
L 364.749111 226.174343 
L 365.032504 226.120523 
L 365.315896 226.551083 
L 365.599289 226.604903 
L 366.166074 227.627482 
L 366.449467 227.573662 
L 367.016252 228.97298 
L 367.299644 228.219501 
L 367.583037 228.70388 
L 368.149822 230.372299 
L 369 232.794196 
L 369.283393 233.601495 
L 369.566785 234.032055 
L 369.850178 236.023392 
L 370.13357 239.091129 
L 370.416963 240.006068 
L 370.700356 238.822029 
L 371.267141 240.921007 
L 371.550533 241.997406 
L 372.117318 239.790788 
L 372.684104 239.360229 
L 372.967496 239.198769 
L 373.250889 239.306409 
L 373.534281 239.586272 
L 373.817674 239.360229 
L 374.101067 238.768209 
L 374.384459 238.983489 
L 374.667852 238.875849 
L 374.951244 239.629328 
L 375.801422 240.759547 
L 376.6516 243.342904 
L 377.218385 242.105046 
L 377.501778 241.943586 
L 378.068563 247.21794 
L 378.635348 246.087721 
L 378.91874 244.742223 
L 379.202133 244.311663 
L 379.485526 244.204023 
L 380.335703 243.181444 
L 380.619096 243.289084 
L 380.902489 243.181444 
L 381.469274 243.450544 
L 381.752666 243.934924 
L 382.036059 243.934924 
L 382.319451 243.719644 
L 382.602844 244.473123 
L 382.886237 244.742223 
L 383.169629 246.141541 
L 383.453022 246.625921 
L 383.736414 246.410641 
L 384.019807 247.16412 
L 384.586592 247.756139 
L 384.869985 248.509619 
L 385.153377 248.079059 
L 385.720163 246.78738 
L 386.003555 247.00266 
L 386.286948 246.8412 
L 386.853733 247.1103 
L 387.420518 247.971419 
L 387.703911 247.809959 
L 388.270696 248.025239 
L 388.837481 249.316918 
L 389.120874 249.478377 
L 389.404266 248.886358 
L 389.971051 249.855117 
L 390.254444 249.962757 
L 390.821229 251.362075 
L 391.104622 251.039156 
L 391.388014 250.393316 
L 391.671407 251.684995 
L 391.954799 252.007915 
L 392.804977 251.039156 
L 393.08837 250.985336 
L 393.655155 251.415895 
L 393.938547 251.577355 
L 394.22194 251.577355 
L 394.505333 251.415895 
L 395.072118 251.469715 
L 395.35551 251.684995 
L 395.638903 251.577355 
L 395.922296 251.792635 
L 396.489081 251.792635 
L 396.772473 251.792635 
L 397.055866 252.061735 
L 397.339259 252.061735 
L 398.189436 251.362075 
L 398.472829 252.277014 
L 398.756221 252.492294 
L 399.039614 252.976674 
L 399.323007 252.169375 
L 399.606399 252.707574 
L 399.889792 252.707574 
L 400.173184 254.160712 
L 400.456577 253.622513 
L 401.023362 253.945433 
L 401.306755 253.461053 
L 401.590147 253.514873 
L 401.87354 253.891613 
L 402.156932 253.945433 
L 402.723718 254.752732 
L 403.00711 254.752732 
L 403.290503 254.591272 
L 403.573895 254.591272 
L 403.857288 254.268352 
L 404.140681 254.214532 
L 404.424073 253.676333 
L 404.707466 252.815214 
L 404.990858 252.815214 
L 405.274251 253.999253 
L 405.841036 254.537452 
L 406.124429 254.375992 
L 406.407821 254.429812 
L 406.691214 254.322172 
L 406.974606 254.569744 
L 407.257999 255.667671 
L 407.541392 255.88295 
L 408.108177 255.452391 
L 408.391569 251.146796 
L 408.674962 239.467869 
L 408.958354 239.360229 
L 410.091925 246.518281 
L 410.65871 248.993998 
L 410.942103 250.436372 
L 411.225495 250.931516 
L 411.508888 249.962757 
L 412.359066 257.389909 
L 412.925851 257.228449 
L 413.209243 256.905529 
L 413.776028 257.336089 
L 414.342814 258.573947 
L 415.192991 258.197208 
L 415.476384 258.412488 
L 416.043169 259.327427 
L 416.326562 259.273607 
L 417.176739 261.803144 
L 417.460132 261.695504 
L 418.31031 260.565285 
L 419.160488 265.24762 
L 419.727273 262.556623 
L 420.010665 262.395163 
L 420.294058 261.695504 
L 420.57745 261.803144 
L 420.860843 262.179883 
L 421.144236 262.018424 
L 421.427628 261.426404 
L 421.711021 261.103485 
L 421.994413 260.995845 
L 422.277806 261.534044 
L 422.561199 261.534044 
L 422.844591 262.072244 
L 423.127984 262.233703 
L 423.411376 261.856964 
L 423.694769 262.341343 
L 423.978162 263.955942 
L 424.261554 263.417742 
L 424.544947 261.372584 
L 424.828339 260.565285 
L 425.111732 260.942025 
L 425.678517 263.417742 
L 425.96191 264.117401 
L 426.245302 263.633022 
L 426.528695 262.664263 
L 427.09548 262.018424 
L 427.378873 262.126064 
L 427.662265 262.072244 
L 427.945658 262.233703 
L 428.22905 261.480224 
L 428.512443 261.803144 
L 428.795835 261.318764 
L 429.079228 261.211125 
L 429.646013 261.641684 
L 429.929406 261.856964 
L 430.212798 262.556623 
L 430.496191 262.664263 
L 430.779584 264.494141 
L 431.062976 264.709421 
L 431.629761 263.686842 
L 431.913154 263.471562 
L 432.196546 263.794482 
L 432.763332 265.4629 
L 433.330117 264.97852 
L 433.613509 264.97852 
L 433.896902 264.655601 
L 434.180295 264.763241 
L 434.463687 265.08616 
L 435.030472 264.870881 
L 435.313865 264.870881 
L 435.597257 265.30144 
L 435.88065 264.97852 
L 436.730828 264.655601 
L 437.01422 265.03234 
L 437.297613 265.893459 
L 437.864398 265.78582 
L 438.147791 265.13998 
L 438.714576 257.228449 
L 439.281361 252.707574 
L 439.564754 247.6485 
L 440.131539 249.047818 
L 440.414931 248.671078 
L 442.39868 238.714389 
L 442.965465 237.96091 
L 443.815642 237.90709 
L 444.099035 238.17619 
L 444.382428 238.660569 
L 444.66582 238.55293 
L 444.949213 239.037309 
L 445.232605 239.252589 
L 446.082783 241.136287 
L 446.366176 241.405386 
L 446.649568 242.427965 
L 446.932961 242.589425 
L 448.349924 244.849863 
L 448.633316 244.903683 
L 448.916709 245.710982 
L 449.483494 243.719644 
L 449.766887 241.028647 
L 450.900457 223.483346 
L 451.18385 223.106607 
L 451.467242 224.452105 
L 451.750635 226.604903 
L 452.034027 227.412202 
L 452.31742 227.304562 
L 452.600813 226.228163 
L 452.884205 224.290645 
L 453.734383 221.545828 
L 454.017776 220.846169 
L 454.301168 220.899989 
L 454.584561 220.738529 
L 455.151346 220.792349 
L 455.434738 221.222909 
L 456.001524 221.653468 
L 456.568309 223.321886 
L 457.135094 224.129185 
L 457.418487 225.097944 
L 457.701879 225.151764 
L 457.985272 226.066703 
L 458.268664 226.443443 
L 459.685627 229.618819 
L 459.96902 229.726459 
L 460.535805 230.802858 
L 462.23616 232.901836 
L 463.653123 236.184852 
L 463.936516 236.507772 
L 464.786694 238.12237 
L 465.070086 238.23001 
L 465.353479 238.660569 
L 465.920264 238.875849 
L 466.203657 239.952248 
L 466.487049 242.858525 
L 466.770442 244.365483 
L 467.053834 244.042563 
L 467.337227 243.289084 
L 467.62062 241.943586 
L 467.904012 242.643245 
L 468.187405 242.158866 
L 468.470797 243.019985 
L 468.75419 242.481785 
L 469.037583 242.427965 
L 469.320975 242.212686 
L 469.604368 242.212686 
L 469.88776 242.481785 
L 470.171153 243.558184 
L 470.454545 243.827284 
L 470.737938 243.665824 
L 471.021331 243.235264 
L 471.588116 244.257843 
L 471.871508 244.903683 
L 472.154901 245.172782 
L 472.438294 245.710982 
L 473.288471 249.209278 
L 473.571864 251.792635 
L 473.855256 251.577355 
L 474.705434 248.563438 
L 474.988827 249.209278 
L 475.272219 249.101638 
L 476.122397 248.186699 
L 476.40579 248.132879 
L 476.689182 248.240519 
L 476.972575 248.509619 
L 477.255967 248.401979 
L 477.53936 248.724898 
L 477.822753 248.724898 
L 478.106145 249.155458 
L 478.389538 249.908937 
L 478.956323 250.447136 
L 479.239716 251.146796 
L 479.806501 250.016577 
L 480.089893 252.384654 
L 480.373286 256.36733 
L 480.656679 255.88295 
L 480.940071 254.537452 
L 481.223464 254.860372 
L 481.506856 254.483632 
L 482.073641 254.160712 
L 482.357034 253.514873 
L 482.640427 253.353413 
L 483.207212 248.294339 
L 483.490604 248.671078 
L 483.773997 249.478377 
L 484.624175 250.823876 
L 484.907567 252.061735 
L 485.19096 253.999253 
L 485.474352 254.214532 
L 485.757745 255.506211 
L 486.041138 256.15205 
L 486.32453 255.82913 
L 486.607923 254.483632 
L 487.174708 255.667671 
L 487.458101 255.506211 
L 487.741493 254.860372 
L 488.024886 253.891613 
L 488.308278 254.160712 
L 488.591671 254.752732 
L 488.875063 255.613851 
L 489.441849 253.999253 
L 490.292026 253.837793 
L 490.858812 254.806552 
L 491.142204 254.429812 
L 491.425597 254.537452 
L 491.708989 254.860372 
L 492.559167 255.290931 
L 492.84256 254.645092 
L 493.125952 253.299593 
L 493.409345 253.030494 
L 493.97613 256.52879 
L 494.259523 256.797889 
L 494.542915 256.31351 
L 494.826308 256.20587 
L 495.1097 255.667671 
L 495.393093 253.999253 
L 495.676486 253.407233 
L 495.959878 251.631175 
L 496.243271 247.59468 
L 497.093448 241.297747 
L 497.376841 240.328988 
L 498.510411 232.632736 
L 499.077197 229.995559 
L 499.360589 230.103199 
L 499.643982 229.13444 
L 500.210767 228.542421 
L 500.494159 228.380961 
L 500.777552 227.358382 
L 501.060945 226.820182 
L 501.62773 226.604903 
L 501.911122 225.851424 
L 502.194515 221.599648 
L 502.7613 200.986611 
L 503.044693 196.788656 
L 503.328085 195.335517 
L 504.178263 201.57863 
L 504.745048 200.771331 
L 505.028441 199.102913 
L 505.878619 196.896295 
L 506.445404 196.088996 
L 506.728796 194.904958 
L 507.012189 195.281697 
L 507.295582 195.066418 
L 507.578974 195.658437 
L 507.862367 195.981356 
L 508.145759 196.734836 
L 508.429152 197.003935 
L 509.27933 199.425833 
L 509.562722 199.910212 
L 510.129507 200.448412 
L 510.696293 201.309531 
L 510.979685 201.63245 
L 511.263078 202.17065 
L 511.54647 202.27829 
L 511.829863 203.085589 
L 512.113255 203.462328 
L 513.246826 205.615126 
L 513.530218 205.507486 
L 514.097004 206.799165 
L 514.663789 207.875563 
L 514.947181 208.629043 
L 515.513966 209.167242 
L 516.080752 210.56656 
L 525.432707 224.667385 
L 525.999492 225.205584 
L 526.566277 226.066703 
L 526.84967 226.012883 
L 527.133062 225.797604 
L 527.416455 226.389623 
L 527.699848 227.788941 
L 528.550025 229.726459 
L 529.116811 229.834099 
L 529.400203 230.533758 
L 529.683596 230.856678 
L 529.966988 230.426119 
L 530.533773 231.071958 
L 531.667344 233.332395 
L 532.234129 233.978235 
L 532.517522 233.924415 
L 532.800914 234.085874 
L 533.084307 233.924415 
L 533.367699 234.301154 
L 533.651092 235.054633 
L 533.934485 236.453952 
L 534.217877 239.844608 
L 534.50127 240.221348 
L 534.784662 238.44529 
L 535.351447 236.992151 
L 535.63484 236.938331 
L 535.918233 236.507772 
L 536.201625 236.669232 
L 536.76841 236.023392 
L 537.051803 236.077212 
L 537.335196 235.808113 
L 537.618588 235.700473 
L 537.901981 235.861933 
L 538.185373 235.754293 
L 538.752158 236.615412 
L 539.602336 237.045971 
L 539.885729 237.207431 
L 540.169121 237.153611 
L 540.452514 236.938331 
L 540.735907 236.938331 
L 541.586084 237.74563 
L 541.869477 237.422711 
L 543.569832 238.12237 
L 544.42001 237.74563 
L 545.270188 239.952248 
L 545.836973 239.844608 
L 546.120366 240.006068 
L 546.403758 239.952248 
L 546.970543 240.490447 
L 547.253936 240.275168 
L 547.537329 238.768209 
L 547.820721 239.252589 
L 548.387506 240.867187 
L 548.670899 241.082467 
L 548.954292 240.759547 
L 549.521077 240.651907 
L 549.804469 240.705727 
L 550.087862 240.598087 
L 550.371254 240.705727 
L 551.221432 240.328988 
L 552.07161 241.297747 
L 552.638395 242.535605 
L 553.20518 244.150203 
L 553.771965 246.303001 
L 554.055358 247.00266 
L 554.622143 251.577355 
L 554.905536 252.492294 
L 555.188928 254.053072 
L 555.472321 253.299593 
L 556.039106 251.308255 
L 556.322499 250.716236 
L 556.605891 250.447136 
L 557.172676 248.832538 
L 557.456069 248.940178 
L 557.739462 248.563438 
L 558.306247 247.3794 
L 559.156425 245.495702 
L 559.439817 245.334242 
L 559.72321 244.849863 
L 560.006602 245.495702 
L 560.573388 245.603342 
L 560.85678 246.410641 
L 561.140173 248.401979 
L 561.423565 248.563438 
L 561.706958 244.580763 
L 562.273743 234.785534 
L 562.557136 232.794196 
L 562.840528 232.417456 
L 563.690706 232.525096 
L 563.974099 232.255996 
L 564.257491 231.556337 
L 564.540884 231.502517 
L 564.824276 230.964318 
L 565.391061 230.964318 
L 565.674454 230.426119 
L 566.241239 230.641398 
L 566.524632 230.587578 
L 566.808024 230.103199 
L 567.091417 230.264659 
L 567.37481 230.802858 
L 567.658202 231.933077 
L 567.941595 231.986897 
L 568.224987 232.309816 
L 568.50838 233.224755 
L 569.075165 233.655315 
L 569.358558 233.493855 
L 569.925343 233.816775 
L 570.208735 234.085874 
L 570.492128 233.816775 
L 570.775521 234.408794 
L 571.342306 234.301154 
L 571.625698 234.247334 
L 572.192483 235.216093 
L 572.759269 236.184852 
L 573.042661 235.861933 
L 573.326054 236.131032 
L 573.892839 237.315071 
L 574.176232 237.207431 
L 575.026409 238.55293 
L 575.593195 241.835946 
L 576.15998 240.221348 
L 576.443372 239.683148 
L 576.726765 239.683148 
L 577.010157 239.144949 
L 577.576943 237.476531 
L 578.143728 235.216093 
L 578.42712 235.054633 
L 578.710513 234.624074 
L 578.993906 233.224755 
L 579.844083 231.125778 
L 580.410868 230.479938 
L 581.261046 230.210839 
L 581.544439 229.726459 
L 581.827831 229.618819 
L 582.111224 229.34972 
L 582.394617 229.672639 
L 583.244794 229.24208 
L 583.528187 228.97298 
L 583.811579 229.18826 
L 584.094972 229.13444 
L 584.661757 230.479938 
L 584.94515 229.51118 
L 585.228542 229.18826 
L 585.511935 229.780279 
L 585.795328 230.910498 
L 586.07872 231.018138 
L 586.362113 230.964318 
L 586.645505 230.426119 
L 586.928898 231.179598 
L 587.212291 231.448697 
L 587.495683 231.502517 
L 587.779076 233.278575 
L 588.062468 232.955656 
L 588.345861 231.233418 
L 588.629253 231.717797 
L 588.912646 233.224755 
L 589.196039 233.224755 
L 589.479431 232.255996 
L 589.762824 232.040717 
L 590.329609 231.825437 
L 591.179787 229.834099 
L 591.463179 227.842761 
L 591.746572 224.721205 
L 592.313357 223.590986 
L 592.59675 222.084028 
L 593.163535 220.20033 
L 593.446927 218.747191 
L 593.73032 217.939892 
L 594.013713 217.939892 
L 594.297105 217.294053 
L 595.147283 214.764516 
L 595.430675 214.710696 
L 595.714068 214.226316 
L 595.997461 214.387776 
L 596.280853 214.172496 
L 597.131031 211.804419 
L 597.414424 211.750599 
L 597.697816 210.9433 
L 597.981209 210.62038 
L 598.831386 208.359943 
L 599.114779 208.252303 
L 599.398172 207.983203 
L 599.681564 207.983203 
L 599.964957 208.144663 
L 600.531742 206.745345 
L 601.665312 206.045685 
L 601.948705 205.561306 
L 603.082275 204.700187 
L 603.64906 203.677608 
L 603.932453 203.623788 
L 604.215846 203.946708 
L 604.499238 203.354688 
L 604.782631 199.694932 
L 605.066023 198.080334 
L 605.349416 198.187974 
L 605.632809 198.618534 
L 605.916201 199.748752 
L 606.199594 200.017852 
L 606.766379 200.286952 
L 607.049771 200.556051 
L 608.466734 200.394592 
L 608.750127 200.556051 
L 609.316912 201.148071 
L 609.600305 201.040431 
L 610.16709 201.63245 
L 610.450482 202.06301 
L 610.733875 201.95537 
L 611.30066 203.408508 
L 611.584053 203.516148 
L 611.867445 203.462328 
L 612.434231 204.000528 
L 612.717623 204.269627 
L 613.001016 204.861647 
L 613.284408 205.130746 
L 613.567801 205.615126 
L 614.134586 205.507486 
L 614.417979 206.368605 
L 615.268156 207.283544 
L 615.551549 208.037023 
L 615.834942 210.6742 
L 616.118334 210.458921 
L 616.401727 209.113422 
L 616.685119 209.328702 
L 616.968512 209.920721 
L 617.251905 209.920721 
L 617.535297 210.83566 
L 617.81869 210.78184 
L 618.102082 211.642959 
L 618.385475 211.804419 
L 618.668867 211.750599 
L 618.95226 212.019699 
L 619.235653 212.880818 
L 619.802438 213.419017 
L 620.369223 214.441596 
L 620.936008 214.872156 
L 621.219401 215.679455 
L 621.502793 216.002374 
L 621.786186 216.540574 
L 622.352971 216.163834 
L 622.636364 215.894735 
L 622.636364 215.894735 
" clip-path="url(#p397672e1a0)" style="fill: none; stroke: #1f77b4; stroke-width: 1.5; stroke-linecap: square"/>
   </g>
   <g id="line2d_14">
    <path d="M 115.363636 262.96071 
L 115.930422 263.096471 
L 116.213814 268.745916 
L 119.614525 269.439845 
L 121.031488 268.372721 
L 122.448451 268.513713 
L 122.731844 268.550526 
L 123.015236 270.252875 
L 128.399695 271.246287 
L 128.683088 270.871225 
L 129.249873 269.875168 
L 129.533266 268.058893 
L 129.816658 267.992437 
L 130.950229 261.405325 
L 131.233621 260.990381 
L 132.083799 261.157616 
L 136.334688 262.218464 
L 136.61808 261.641684 
L 143.13611 263.231658 
L 143.419502 262.610443 
L 148.803961 263.946039 
L 149.087354 263.87385 
L 149.654139 262.961468 
L 150.220924 262.825723 
L 150.504317 261.506064 
L 150.787709 258.085874 
L 151.354495 249.325983 
L 151.637887 246.018013 
L 152.771458 226.605714 
L 153.338243 222.592839 
L 153.621635 221.018729 
L 153.905028 220.188355 
L 154.188421 219.871743 
L 154.471813 219.751422 
L 154.755206 219.787225 
L 155.605383 220.379725 
L 156.738954 221.285943 
L 157.022346 200.878971 
L 163.540376 204.903277 
L 163.823768 213.580477 
L 167.791265 215.72993 
L 168.074657 215.343038 
L 169.49162 207.624472 
L 169.775013 207.231205 
L 170.058405 207.152098 
L 170.341798 207.201585 
L 170.62519 193.559459 
L 172.892331 195.156679 
L 177.14322 198.00939 
L 177.426612 216.917313 
L 183.944642 220.206494 
L 184.228035 231.341057 
L 190.179279 235.314522 
L 190.746064 235.679688 
L 191.029457 240.867187 
L 197.547486 244.553304 
L 197.830879 249.855117 
L 204.348908 252.926142 
L 204.632301 254.375992 
L 206.899441 255.280289 
L 207.182834 254.896921 
L 207.466227 253.155149 
L 208.033012 248.344488 
L 208.316404 247.708312 
L 208.599797 247.753562 
L 208.883189 246.630408 
L 209.166582 243.231086 
L 209.733367 230.328204 
L 210.01676 227.829708 
L 210.300152 226.874714 
L 210.583545 226.66828 
L 211.15033 226.867441 
L 213.417471 228.487051 
L 216.251397 230.581086 
L 216.534789 230.107513 
L 217.101574 227.009367 
L 217.384967 226.533688 
L 217.66836 226.318909 
L 218.235145 226.373643 
L 218.518537 225.966067 
L 219.085322 224.825313 
L 219.368715 224.71041 
L 219.652108 224.750812 
L 220.502285 224.601795 
L 221.352463 225.157018 
L 228.72067 230.511638 
L 234.671915 234.537162 
L 238.356018 236.901517 
L 238.639411 134.411344 
L 242.040122 139.790062 
L 245.15744 144.367979 
L 245.440833 171.224184 
L 250.258507 175.769982 
L 250.825292 174.142956 
L 251.392077 167.232775 
L 251.958862 161.064992 
L 252.242255 193.02126 
L 258.476892 197.325529 
L 258.760284 197.51361 
L 259.043677 204.915467 
L 266.695277 209.384984 
L 274.630269 213.763383 
L 283.132047 218.197278 
L 287.382936 220.323416 
L 287.666328 232.686556 
L 292.767395 236.035316 
L 293.050787 237.584171 
L 297.585069 240.33866 
L 297.868461 240.431309 
L 298.151854 240.137348 
L 298.435246 239.57693 
L 298.718639 239.301509 
L 299.285424 239.437986 
L 301.552565 240.75268 
L 308.070594 244.446627 
L 314.588624 247.887719 
L 321.390046 251.227625 
L 328.47486 254.453822 
L 335.843068 257.555709 
L 339.810564 259.125909 
L 343.211275 183.76423 
L 343.494667 182.480019 
L 343.77806 182.158681 
L 344.061453 182.258961 
L 345.478415 183.479561 
L 345.761808 183.624352 
L 346.328593 184.164545 
L 346.895378 184.521765 
L 348.312341 186.143221 
L 350.579482 188.791969 
L 350.862875 185.809388 
L 355.963941 191.697171 
L 356.247334 192.014735 
L 356.530726 202.924129 
L 361.915185 208.151063 
L 363.048756 209.212845 
L 363.332148 221.115269 
L 369 225.517786 
L 369.850178 226.155013 
L 370.13357 233.709135 
L 375.234637 237.009272 
L 375.801422 237.116136 
L 376.368207 237.299813 
L 376.6516 237.459593 
L 376.934992 242.670155 
L 377.218385 242.172715 
L 377.501778 242.035978 
L 378.068563 242.213782 
L 378.91874 242.563872 
L 379.485526 242.523011 
L 379.768918 241.694319 
L 380.335703 238.023398 
L 380.619096 237.176115 
L 380.902489 236.876648 
L 381.469274 237.002909 
L 383.453022 238.199296 
L 383.736414 245.899351 
L 385.153377 246.617778 
L 385.43677 246.601194 
L 386.286948 246.162486 
L 387.137125 246.506782 
L 390.254444 248.103135 
L 390.537836 249.774387 
L 396.772473 252.631348 
L 397.055866 252.755345 
L 397.339259 251.873365 
L 403.573895 254.553887 
L 410.091925 257.109704 
L 411.79228 257.740346 
L 412.075673 249.962757 
L 412.359066 249.962757 
L 417.743525 252.430989 
L 418.026917 261.803144 
L 425.96191 264.133153 
L 431.062976 265.512364 
L 431.346369 262.664263 
L 433.896902 263.430199 
L 434.463687 263.303022 
L 435.313865 262.7343 
L 436.164043 262.826381 
L 437.864398 263.31265 
L 438.147791 265.893459 
L 438.431183 263.394356 
L 439.281361 251.990635 
L 439.564754 250.467648 
L 439.848146 249.699446 
L 440.131539 249.319301 
L 440.698324 249.118107 
L 441.548502 249.318826 
L 444.099035 250.414968 
L 446.082783 251.280153 
L 446.366176 239.952248 
L 447.499746 240.11921 
L 447.783139 243.073805 
L 451.467242 243.703006 
L 451.750635 223.483346 
L 460.252412 226.292594 
L 465.070086 227.786794 
L 465.353479 237.637991 
L 471.871508 239.029609 
L 472.154901 243.665824 
L 477.822753 246.741947 
L 478.67293 247.182551 
L 478.956323 249.155458 
L 485.19096 252.064446 
L 485.474352 252.190701 
L 485.757745 252.061735 
L 491.992382 254.726422 
L 498.793804 257.388394 
L 499.077197 257.493463 
L 499.360589 231.018138 
L 500.494159 231.827904 
L 500.777552 231.751589 
L 501.060945 230.502609 
L 501.911122 224.303462 
L 503.611478 214.131371 
L 503.89487 210.653228 
L 504.461656 199.820974 
L 504.745048 197.805559 
L 505.028441 197.291793 
L 505.311833 197.342552 
L 505.878619 197.901713 
L 507.012189 199.308259 
L 511.54647 204.532524 
L 512.680041 205.787326 
L 512.963433 203.462328 
L 514.663789 205.29001 
L 515.230574 205.586862 
L 516.080752 206.444232 
L 526.84967 217.321905 
L 531.667344 221.680226 
L 533.084307 222.906811 
L 533.367699 233.924415 
L 536.201625 235.810045 
L 536.485018 235.738072 
L 537.335196 235.010175 
L 538.185373 233.835725 
L 538.468766 233.773293 
L 539.035551 234.043568 
L 539.885729 234.619985 
L 540.169121 236.938331 
L 545.55358 240.357542 
L 546.687151 241.044978 
L 546.970543 240.006068 
L 553.488573 241.282234 
L 553.771965 243.235264 
L 554.055358 242.81261 
L 554.622143 241.452589 
L 554.905536 241.285868 
L 555.472321 241.4601 
L 557.739462 242.756098 
L 558.022854 242.130188 
L 558.589639 238.278327 
L 558.873032 235.962123 
L 559.72321 226.575935 
L 560.006602 225.97941 
L 560.289995 225.914556 
L 560.573388 245.495702 
L 561.140173 243.539561 
L 563.123921 234.977956 
L 563.407313 234.713957 
L 563.974099 234.883205 
L 566.808024 236.769033 
L 567.091417 236.956211 
L 567.37481 230.587578 
L 572.475876 234.273603 
L 573.892839 235.251553 
L 574.176232 236.131032 
L 579.560691 239.609224 
L 580.694261 240.308494 
L 580.977654 230.802858 
L 586.07872 234.47396 
L 587.495683 235.447771 
L 587.779076 231.179598 
L 594.297105 235.212912 
L 594.580498 217.939892 
L 595.430675 218.19476 
L 595.997461 217.87035 
L 596.280853 217.529 
L 596.564246 216.896245 
L 597.131031 214.904035 
L 597.414424 214.434172 
L 598.264601 213.943264 
L 598.547994 213.194783 
L 599.114779 211.245001 
L 599.398172 210.865929 
L 599.681564 210.735422 
L 600.248349 210.792489 
L 601.098527 211.126216 
L 601.38192 206.745345 
L 607.899949 210.046405 
L 608.183342 200.502232 
L 611.30066 202.347034 
L 611.584053 202.370985 
L 612.150838 202.085341 
L 612.434231 201.180346 
L 613.001016 196.088064 
L 613.284408 195.017483 
L 613.567801 194.57704 
L 613.851193 194.445362 
L 614.417979 194.572002 
L 614.701371 194.717355 
L 614.984764 205.507486 
L 621.219401 208.765412 
L 621.502793 208.90781 
L 621.786186 214.872156 
L 622.636364 215.220282 
L 622.636364 215.220282 
" clip-path="url(#p397672e1a0)" style="fill: none; stroke: #ff7f0e; stroke-width: 1.5; stroke-linecap: square"/>
   </g>
   <g id="patch_3">
    <path d="M 90 288 
L 90 43.2 
" style="fill: none; stroke: #000000; stroke-width: 0.8; stroke-linejoin: miter; stroke-linecap: square"/>
   </g>
   <g id="patch_4">
    <path d="M 648 288 
L 648 43.2 
" style="fill: none; stroke: #000000; stroke-width: 0.8; stroke-linejoin: miter; stroke-linecap: square"/>
   </g>
   <g id="patch_5">
    <path d="M 90 288 
L 648 288 
" style="fill: none; stroke: #000000; stroke-width: 0.8; stroke-linejoin: miter; stroke-linecap: square"/>
   </g>
   <g id="patch_6">
    <path d="M 90 43.2 
L 648 43.2 
" style="fill: none; stroke: #000000; stroke-width: 0.8; stroke-linejoin: miter; stroke-linecap: square"/>
   </g>
   <g id="text_14">
    <!-- DET021 -->
    <g transform="translate(345.471563 37.2) scale(0.12 -0.12)">
     <defs>
      <path id="DejaVuSans-44" d="M 1259 4147 
L 1259 519 
L 2022 519 
Q 2988 519 3436 956 
Q 3884 1394 3884 2338 
Q 3884 3275 3436 3711 
Q 2988 4147 2022 4147 
L 1259 4147 
z
M 628 4666 
L 1925 4666 
Q 3281 4666 3915 4102 
Q 4550 3538 4550 2338 
Q 4550 1131 3912 565 
Q 3275 0 1925 0 
L 628 0 
L 628 4666 
z
" transform="scale(0.015625)"/>
      <path id="DejaVuSans-45" d="M 628 4666 
L 3578 4666 
L 3578 4134 
L 1259 4134 
L 1259 2753 
L 3481 2753 
L 3481 2222 
L 1259 2222 
L 1259 531 
L 3634 531 
L 3634 0 
L 628 0 
L 628 4666 
z
" transform="scale(0.015625)"/>
      <path id="DejaVuSans-54" d="M -19 4666 
L 3928 4666 
L 3928 4134 
L 2272 4134 
L 2272 0 
L 1638 0 
L 1638 4134 
L -19 4134 
L -19 4666 
z
" transform="scale(0.015625)"/>
     </defs>
     <use xlink:href="#DejaVuSans-44"/>
     <use xlink:href="#DejaVuSans-45" x="77.001953"/>
     <use xlink:href="#DejaVuSans-54" x="140.185547"/>
     <use xlink:href="#DejaVuSans-30" x="201.269531"/>
     <use xlink:href="#DejaVuSans-32" x="264.892578"/>
     <use xlink:href="#DejaVuSans-31" x="328.515625"/>
    </g>
   </g>
   <g id="legend_1">
    <g id="patch_7">
     <path d="M 559.04375 80.55625 
L 641 80.55625 
Q 643 80.55625 643 78.55625 
L 643 50.2 
Q 643 48.2 641 48.2 
L 559.04375 48.2 
Q 557.04375 48.2 557.04375 50.2 
L 557.04375 78.55625 
Q 557.04375 80.55625 559.04375 80.55625 
z
" style="fill: #ffffff; opacity: 0.8; stroke: #cccccc; stroke-linejoin: miter"/>
    </g>
    <g id="line2d_15">
     <path d="M 561.04375 56.298437 
L 571.04375 56.298437 
L 581.04375 56.298437 
" style="fill: none; stroke: #1f77b4; stroke-width: 1.5; stroke-linecap: square"/>
    </g>
    <g id="text_15">
     <!-- measured -->
     <g transform="translate(589.04375 59.798437) scale(0.1 -0.1)">
      <defs>
       <path id="DejaVuSans-6d" d="M 3328 2828 
Q 3544 3216 3844 3400 
Q 4144 3584 4550 3584 
Q 5097 3584 5394 3201 
Q 5691 2819 5691 2113 
L 5691 0 
L 5113 0 
L 5113 2094 
Q 5113 2597 4934 2840 
Q 4756 3084 4391 3084 
Q 3944 3084 3684 2787 
Q 3425 2491 3425 1978 
L 3425 0 
L 2847 0 
L 2847 2094 
Q 2847 2600 2669 2842 
Q 2491 3084 2119 3084 
Q 1678 3084 1418 2786 
Q 1159 2488 1159 1978 
L 1159 0 
L 581 0 
L 581 3500 
L 1159 3500 
L 1159 2956 
Q 1356 3278 1631 3431 
Q 1906 3584 2284 3584 
Q 2666 3584 2933 3390 
Q 3200 3197 3328 2828 
z
" transform="scale(0.015625)"/>
       <path id="DejaVuSans-61" d="M 2194 1759 
Q 1497 1759 1228 1600 
Q 959 1441 959 1056 
Q 959 750 1161 570 
Q 1363 391 1709 391 
Q 2188 391 2477 730 
Q 2766 1069 2766 1631 
L 2766 1759 
L 2194 1759 
z
M 3341 1997 
L 3341 0 
L 2766 0 
L 2766 531 
Q 2569 213 2275 61 
Q 1981 -91 1556 -91 
Q 1019 -91 701 211 
Q 384 513 384 1019 
Q 384 1609 779 1909 
Q 1175 2209 1959 2209 
L 2766 2209 
L 2766 2266 
Q 2766 2663 2505 2880 
Q 2244 3097 1772 3097 
Q 1472 3097 1187 3025 
Q 903 2953 641 2809 
L 641 3341 
Q 956 3463 1253 3523 
Q 1550 3584 1831 3584 
Q 2591 3584 2966 3190 
Q 3341 2797 3341 1997 
z
" transform="scale(0.015625)"/>
       <path id="DejaVuSans-75" d="M 544 1381 
L 544 3500 
L 1119 3500 
L 1119 1403 
Q 1119 906 1312 657 
Q 1506 409 1894 409 
Q 2359 409 2629 706 
Q 2900 1003 2900 1516 
L 2900 3500 
L 3475 3500 
L 3475 0 
L 2900 0 
L 2900 538 
Q 2691 219 2414 64 
Q 2138 -91 1772 -91 
Q 1169 -91 856 284 
Q 544 659 544 1381 
z
M 1991 3584 
L 1991 3584 
z
" transform="scale(0.015625)"/>
       <path id="DejaVuSans-64" d="M 2906 2969 
L 2906 4863 
L 3481 4863 
L 3481 0 
L 2906 0 
L 2906 525 
Q 2725 213 2448 61 
Q 2172 -91 1784 -91 
Q 1150 -91 751 415 
Q 353 922 353 1747 
Q 353 2572 751 3078 
Q 1150 3584 1784 3584 
Q 2172 3584 2448 3432 
Q 2725 3281 2906 2969 
z
M 947 1747 
Q 947 1113 1208 752 
Q 1469 391 1925 391 
Q 2381 391 2643 752 
Q 2906 1113 2906 1747 
Q 2906 2381 2643 2742 
Q 2381 3103 1925 3103 
Q 1469 3103 1208 2742 
Q 947 2381 947 1747 
z
" transform="scale(0.015625)"/>
      </defs>
      <use xlink:href="#DejaVuSans-6d"/>
      <use xlink:href="#DejaVuSans-65" x="97.412109"/>
      <use xlink:href="#DejaVuSans-61" x="158.935547"/>
      <use xlink:href="#DejaVuSans-73" x="220.214844"/>
      <use xlink:href="#DejaVuSans-75" x="272.314453"/>
      <use xlink:href="#DejaVuSans-72" x="335.693359"/>
      <use xlink:href="#DejaVuSans-65" x="374.556641"/>
      <use xlink:href="#DejaVuSans-64" x="436.080078"/>
     </g>
    </g>
    <g id="line2d_16">
     <path d="M 561.04375 70.976562 
L 571.04375 70.976562 
L 581.04375 70.976562 
" style="fill: none; stroke: #ff7f0e; stroke-width: 1.5; stroke-linecap: square"/>
    </g>
    <g id="text_16">
     <!-- predicted -->
     <g transform="translate(589.04375 74.476562) scale(0.1 -0.1)">
      <defs>
       <path id="DejaVuSans-70" d="M 1159 525 
L 1159 -1331 
L 581 -1331 
L 581 3500 
L 1159 3500 
L 1159 2969 
Q 1341 3281 1617 3432 
Q 1894 3584 2278 3584 
Q 2916 3584 3314 3078 
Q 3713 2572 3713 1747 
Q 3713 922 3314 415 
Q 2916 -91 2278 -91 
Q 1894 -91 1617 61 
Q 1341 213 1159 525 
z
M 3116 1747 
Q 3116 2381 2855 2742 
Q 2594 3103 2138 3103 
Q 1681 3103 1420 2742 
Q 1159 2381 1159 1747 
Q 1159 1113 1420 752 
Q 1681 391 2138 391 
Q 2594 391 2855 752 
Q 3116 1113 3116 1747 
z
" transform="scale(0.015625)"/>
       <path id="DejaVuSans-69" d="M 603 3500 
L 1178 3500 
L 1178 0 
L 603 0 
L 603 3500 
z
M 603 4863 
L 1178 4863 
L 1178 4134 
L 603 4134 
L 603 4863 
z
" transform="scale(0.015625)"/>
       <path id="DejaVuSans-63" d="M 3122 3366 
L 3122 2828 
Q 2878 2963 2633 3030 
Q 2388 3097 2138 3097 
Q 1578 3097 1268 2742 
Q 959 2388 959 1747 
Q 959 1106 1268 751 
Q 1578 397 2138 397 
Q 2388 397 2633 464 
Q 2878 531 3122 666 
L 3122 134 
Q 2881 22 2623 -34 
Q 2366 -91 2075 -91 
Q 1284 -91 818 406 
Q 353 903 353 1747 
Q 353 2603 823 3093 
Q 1294 3584 2113 3584 
Q 2378 3584 2631 3529 
Q 2884 3475 3122 3366 
z
" transform="scale(0.015625)"/>
      </defs>
      <use xlink:href="#DejaVuSans-70"/>
      <use xlink:href="#DejaVuSans-72" x="63.476562"/>
      <use xlink:href="#DejaVuSans-65" x="102.339844"/>
      <use xlink:href="#DejaVuSans-64" x="163.863281"/>
      <use xlink:href="#DejaVuSans-69" x="227.339844"/>
      <use xlink:href="#DejaVuSans-63" x="255.123047"/>
      <use xlink:href="#DejaVuSans-74" x="310.103516"/>
      <use xlink:href="#DejaVuSans-65" x="349.3125"/>
      <use xlink:href="#DejaVuSans-64" x="410.835938"/>
     </g>
    </g>
   </g>
  </g>
 </g>
 <defs>
  <clipPath id="p397672e1a0">
   <rect x="90" y="43.2" width="558" height="244.8"/>
  </clipPath>
 </defs>
</svg>
