<?xml version="1.0" encoding="utf-8" standalone="no"?>
<!DOCTYPE svg PUBLIC "-//W3C//DTD SVG 1.1//EN"
  "http://www.w3.org/Graphics/SVG/1.1/DTD/svg11.dtd">
<svg xmlns:xlink="http://www.w3.org/1999/xlink" width="720pt" height="360pt" viewBox="0 0 720 360" xmlns="http://www.w3.org/2000/svg" version="1.1">
 <metadata>
  <rdf:RDF xmlns:dc="http://purl.org/dc/elements/1.1/" xmlns:cc="http://creativecommons.org/ns#" xmlns:rdf="http://www.w3.org/1999/02/22-rdf-syntax-ns#">
   <cc:Work>
    <dc:type rdf:resource="http://purl.org/dc/dcmitype/StillImage"/>
    <dc:date>2023-10-23T10:55:04.789036</dc:date>
    <dc:format>image/svg+xml</dc:format>
    <dc:creator>
     <cc:Agent>
      <dc:title>Matplotlib v3.7.1, https://matplotlib.org/</dc:title>
     </cc:Agent>
    </dc:creator>
   </cc:Work>
  </rdf:RDF>
 </metadata>
 <defs>
  <style type="text/css">*{stroke-linejoin: round; stroke-linecap: butt}</style>
 </defs>
 <g id="figure_1">
  <g id="patch_1">
   <path d="M 0 360 
L 720 360 
L 720 0 
L 0 0 
z
" style="fill: #ffffff"/>
  </g>
  <g id="axes_1">
   <g id="patch_2">
    <path d="M 90 288 
L 648 288 
L 648 43.2 
L 90 43.2 
z
" style="fill: #ffffff"/>
   </g>
   <g id="matplotlib.axis_1">
    <g id="xtick_1">
     <g id="line2d_1">
      <defs>
       <path id="m671d6e109d" d="M 0 0 
L 0 3.5 
" style="stroke: #000000; stroke-width: 0.8"/>
      </defs>
      <g>
       <use xlink:href="#m671d6e109d" x="122.764922" y="288" style="stroke: #000000; stroke-width: 0.8"/>
      </g>
     </g>
     <g id="text_1">
      <!-- 2023-09-17 -->
      <g transform="translate(61.12158 337.765903) rotate(-30) scale(0.12 -0.12)">
       <defs>
        <path id="DejaVuSans-32" d="M 1228 531 
L 3431 531 
L 3431 0 
L 469 0 
L 469 531 
Q 828 903 1448 1529 
Q 2069 2156 2228 2338 
Q 2531 2678 2651 2914 
Q 2772 3150 2772 3378 
Q 2772 3750 2511 3984 
Q 2250 4219 1831 4219 
Q 1534 4219 1204 4116 
Q 875 4013 500 3803 
L 500 4441 
Q 881 4594 1212 4672 
Q 1544 4750 1819 4750 
Q 2544 4750 2975 4387 
Q 3406 4025 3406 3419 
Q 3406 3131 3298 2873 
Q 3191 2616 2906 2266 
Q 2828 2175 2409 1742 
Q 1991 1309 1228 531 
z
" transform="scale(0.015625)"/>
        <path id="DejaVuSans-30" d="M 2034 4250 
Q 1547 4250 1301 3770 
Q 1056 3291 1056 2328 
Q 1056 1369 1301 889 
Q 1547 409 2034 409 
Q 2525 409 2770 889 
Q 3016 1369 3016 2328 
Q 3016 3291 2770 3770 
Q 2525 4250 2034 4250 
z
M 2034 4750 
Q 2819 4750 3233 4129 
Q 3647 3509 3647 2328 
Q 3647 1150 3233 529 
Q 2819 -91 2034 -91 
Q 1250 -91 836 529 
Q 422 1150 422 2328 
Q 422 3509 836 4129 
Q 1250 4750 2034 4750 
z
" transform="scale(0.015625)"/>
        <path id="DejaVuSans-33" d="M 2597 2516 
Q 3050 2419 3304 2112 
Q 3559 1806 3559 1356 
Q 3559 666 3084 287 
Q 2609 -91 1734 -91 
Q 1441 -91 1130 -33 
Q 819 25 488 141 
L 488 750 
Q 750 597 1062 519 
Q 1375 441 1716 441 
Q 2309 441 2620 675 
Q 2931 909 2931 1356 
Q 2931 1769 2642 2001 
Q 2353 2234 1838 2234 
L 1294 2234 
L 1294 2753 
L 1863 2753 
Q 2328 2753 2575 2939 
Q 2822 3125 2822 3475 
Q 2822 3834 2567 4026 
Q 2313 4219 1838 4219 
Q 1578 4219 1281 4162 
Q 984 4106 628 3988 
L 628 4550 
Q 988 4650 1302 4700 
Q 1616 4750 1894 4750 
Q 2613 4750 3031 4423 
Q 3450 4097 3450 3541 
Q 3450 3153 3228 2886 
Q 3006 2619 2597 2516 
z
" transform="scale(0.015625)"/>
        <path id="DejaVuSans-2d" d="M 313 2009 
L 1997 2009 
L 1997 1497 
L 313 1497 
L 313 2009 
z
" transform="scale(0.015625)"/>
        <path id="DejaVuSans-39" d="M 703 97 
L 703 672 
Q 941 559 1184 500 
Q 1428 441 1663 441 
Q 2288 441 2617 861 
Q 2947 1281 2994 2138 
Q 2813 1869 2534 1725 
Q 2256 1581 1919 1581 
Q 1219 1581 811 2004 
Q 403 2428 403 3163 
Q 403 3881 828 4315 
Q 1253 4750 1959 4750 
Q 2769 4750 3195 4129 
Q 3622 3509 3622 2328 
Q 3622 1225 3098 567 
Q 2575 -91 1691 -91 
Q 1453 -91 1209 -44 
Q 966 3 703 97 
z
M 1959 2075 
Q 2384 2075 2632 2365 
Q 2881 2656 2881 3163 
Q 2881 3666 2632 3958 
Q 2384 4250 1959 4250 
Q 1534 4250 1286 3958 
Q 1038 3666 1038 3163 
Q 1038 2656 1286 2365 
Q 1534 2075 1959 2075 
z
" transform="scale(0.015625)"/>
        <path id="DejaVuSans-31" d="M 794 531 
L 1825 531 
L 1825 4091 
L 703 3866 
L 703 4441 
L 1819 4666 
L 2450 4666 
L 2450 531 
L 3481 531 
L 3481 0 
L 794 0 
L 794 531 
z
" transform="scale(0.015625)"/>
        <path id="DejaVuSans-37" d="M 525 4666 
L 3525 4666 
L 3525 4397 
L 1831 0 
L 1172 0 
L 2766 4134 
L 525 4134 
L 525 4666 
z
" transform="scale(0.015625)"/>
       </defs>
       <use xlink:href="#DejaVuSans-32"/>
       <use xlink:href="#DejaVuSans-30" x="63.623047"/>
       <use xlink:href="#DejaVuSans-32" x="127.246094"/>
       <use xlink:href="#DejaVuSans-33" x="190.869141"/>
       <use xlink:href="#DejaVuSans-2d" x="254.492188"/>
       <use xlink:href="#DejaVuSans-30" x="290.576172"/>
       <use xlink:href="#DejaVuSans-39" x="354.199219"/>
       <use xlink:href="#DejaVuSans-2d" x="417.822266"/>
       <use xlink:href="#DejaVuSans-31" x="453.90625"/>
       <use xlink:href="#DejaVuSans-37" x="517.529297"/>
      </g>
     </g>
    </g>
    <g id="xtick_2">
     <g id="line2d_2">
      <g>
       <use xlink:href="#m671d6e109d" x="177.420569" y="288" style="stroke: #000000; stroke-width: 0.8"/>
      </g>
     </g>
     <g id="text_2">
      <!-- 2023-09-21 -->
      <g transform="translate(115.777228 337.765903) rotate(-30) scale(0.12 -0.12)">
       <use xlink:href="#DejaVuSans-32"/>
       <use xlink:href="#DejaVuSans-30" x="63.623047"/>
       <use xlink:href="#DejaVuSans-32" x="127.246094"/>
       <use xlink:href="#DejaVuSans-33" x="190.869141"/>
       <use xlink:href="#DejaVuSans-2d" x="254.492188"/>
       <use xlink:href="#DejaVuSans-30" x="290.576172"/>
       <use xlink:href="#DejaVuSans-39" x="354.199219"/>
       <use xlink:href="#DejaVuSans-2d" x="417.822266"/>
       <use xlink:href="#DejaVuSans-32" x="453.90625"/>
       <use xlink:href="#DejaVuSans-31" x="517.529297"/>
      </g>
     </g>
    </g>
    <g id="xtick_3">
     <g id="line2d_3">
      <g>
       <use xlink:href="#m671d6e109d" x="232.076217" y="288" style="stroke: #000000; stroke-width: 0.8"/>
      </g>
     </g>
     <g id="text_3">
      <!-- 2023-09-25 -->
      <g transform="translate(170.432875 337.765903) rotate(-30) scale(0.12 -0.12)">
       <defs>
        <path id="DejaVuSans-35" d="M 691 4666 
L 3169 4666 
L 3169 4134 
L 1269 4134 
L 1269 2991 
Q 1406 3038 1543 3061 
Q 1681 3084 1819 3084 
Q 2600 3084 3056 2656 
Q 3513 2228 3513 1497 
Q 3513 744 3044 326 
Q 2575 -91 1722 -91 
Q 1428 -91 1123 -41 
Q 819 9 494 109 
L 494 744 
Q 775 591 1075 516 
Q 1375 441 1709 441 
Q 2250 441 2565 725 
Q 2881 1009 2881 1497 
Q 2881 1984 2565 2268 
Q 2250 2553 1709 2553 
Q 1456 2553 1204 2497 
Q 953 2441 691 2322 
L 691 4666 
z
" transform="scale(0.015625)"/>
       </defs>
       <use xlink:href="#DejaVuSans-32"/>
       <use xlink:href="#DejaVuSans-30" x="63.623047"/>
       <use xlink:href="#DejaVuSans-32" x="127.246094"/>
       <use xlink:href="#DejaVuSans-33" x="190.869141"/>
       <use xlink:href="#DejaVuSans-2d" x="254.492188"/>
       <use xlink:href="#DejaVuSans-30" x="290.576172"/>
       <use xlink:href="#DejaVuSans-39" x="354.199219"/>
       <use xlink:href="#DejaVuSans-2d" x="417.822266"/>
       <use xlink:href="#DejaVuSans-32" x="453.90625"/>
       <use xlink:href="#DejaVuSans-35" x="517.529297"/>
      </g>
     </g>
    </g>
    <g id="xtick_4">
     <g id="line2d_4">
      <g>
       <use xlink:href="#m671d6e109d" x="286.731864" y="288" style="stroke: #000000; stroke-width: 0.8"/>
      </g>
     </g>
     <g id="text_4">
      <!-- 2023-09-29 -->
      <g transform="translate(225.088522 337.765903) rotate(-30) scale(0.12 -0.12)">
       <use xlink:href="#DejaVuSans-32"/>
       <use xlink:href="#DejaVuSans-30" x="63.623047"/>
       <use xlink:href="#DejaVuSans-32" x="127.246094"/>
       <use xlink:href="#DejaVuSans-33" x="190.869141"/>
       <use xlink:href="#DejaVuSans-2d" x="254.492188"/>
       <use xlink:href="#DejaVuSans-30" x="290.576172"/>
       <use xlink:href="#DejaVuSans-39" x="354.199219"/>
       <use xlink:href="#DejaVuSans-2d" x="417.822266"/>
       <use xlink:href="#DejaVuSans-32" x="453.90625"/>
       <use xlink:href="#DejaVuSans-39" x="517.529297"/>
      </g>
     </g>
    </g>
    <g id="xtick_5">
     <g id="line2d_5">
      <g>
       <use xlink:href="#m671d6e109d" x="314.059688" y="288" style="stroke: #000000; stroke-width: 0.8"/>
      </g>
     </g>
     <g id="text_5">
      <!-- 2023-10-01 -->
      <g transform="translate(252.416346 337.765903) rotate(-30) scale(0.12 -0.12)">
       <use xlink:href="#DejaVuSans-32"/>
       <use xlink:href="#DejaVuSans-30" x="63.623047"/>
       <use xlink:href="#DejaVuSans-32" x="127.246094"/>
       <use xlink:href="#DejaVuSans-33" x="190.869141"/>
       <use xlink:href="#DejaVuSans-2d" x="254.492188"/>
       <use xlink:href="#DejaVuSans-31" x="290.576172"/>
       <use xlink:href="#DejaVuSans-30" x="354.199219"/>
       <use xlink:href="#DejaVuSans-2d" x="417.822266"/>
       <use xlink:href="#DejaVuSans-30" x="453.90625"/>
       <use xlink:href="#DejaVuSans-31" x="517.529297"/>
      </g>
     </g>
    </g>
    <g id="xtick_6">
     <g id="line2d_6">
      <g>
       <use xlink:href="#m671d6e109d" x="368.715335" y="288" style="stroke: #000000; stroke-width: 0.8"/>
      </g>
     </g>
     <g id="text_6">
      <!-- 2023-10-05 -->
      <g transform="translate(307.071994 337.765903) rotate(-30) scale(0.12 -0.12)">
       <use xlink:href="#DejaVuSans-32"/>
       <use xlink:href="#DejaVuSans-30" x="63.623047"/>
       <use xlink:href="#DejaVuSans-32" x="127.246094"/>
       <use xlink:href="#DejaVuSans-33" x="190.869141"/>
       <use xlink:href="#DejaVuSans-2d" x="254.492188"/>
       <use xlink:href="#DejaVuSans-31" x="290.576172"/>
       <use xlink:href="#DejaVuSans-30" x="354.199219"/>
       <use xlink:href="#DejaVuSans-2d" x="417.822266"/>
       <use xlink:href="#DejaVuSans-30" x="453.90625"/>
       <use xlink:href="#DejaVuSans-35" x="517.529297"/>
      </g>
     </g>
    </g>
    <g id="xtick_7">
     <g id="line2d_7">
      <g>
       <use xlink:href="#m671d6e109d" x="423.370983" y="288" style="stroke: #000000; stroke-width: 0.8"/>
      </g>
     </g>
     <g id="text_7">
      <!-- 2023-10-09 -->
      <g transform="translate(361.727641 337.765903) rotate(-30) scale(0.12 -0.12)">
       <use xlink:href="#DejaVuSans-32"/>
       <use xlink:href="#DejaVuSans-30" x="63.623047"/>
       <use xlink:href="#DejaVuSans-32" x="127.246094"/>
       <use xlink:href="#DejaVuSans-33" x="190.869141"/>
       <use xlink:href="#DejaVuSans-2d" x="254.492188"/>
       <use xlink:href="#DejaVuSans-31" x="290.576172"/>
       <use xlink:href="#DejaVuSans-30" x="354.199219"/>
       <use xlink:href="#DejaVuSans-2d" x="417.822266"/>
       <use xlink:href="#DejaVuSans-30" x="453.90625"/>
       <use xlink:href="#DejaVuSans-39" x="517.529297"/>
      </g>
     </g>
    </g>
    <g id="xtick_8">
     <g id="line2d_8">
      <g>
       <use xlink:href="#m671d6e109d" x="478.02663" y="288" style="stroke: #000000; stroke-width: 0.8"/>
      </g>
     </g>
     <g id="text_8">
      <!-- 2023-10-13 -->
      <g transform="translate(416.383288 337.765903) rotate(-30) scale(0.12 -0.12)">
       <use xlink:href="#DejaVuSans-32"/>
       <use xlink:href="#DejaVuSans-30" x="63.623047"/>
       <use xlink:href="#DejaVuSans-32" x="127.246094"/>
       <use xlink:href="#DejaVuSans-33" x="190.869141"/>
       <use xlink:href="#DejaVuSans-2d" x="254.492188"/>
       <use xlink:href="#DejaVuSans-31" x="290.576172"/>
       <use xlink:href="#DejaVuSans-30" x="354.199219"/>
       <use xlink:href="#DejaVuSans-2d" x="417.822266"/>
       <use xlink:href="#DejaVuSans-31" x="453.90625"/>
       <use xlink:href="#DejaVuSans-33" x="517.529297"/>
      </g>
     </g>
    </g>
    <g id="xtick_9">
     <g id="line2d_9">
      <g>
       <use xlink:href="#m671d6e109d" x="532.682277" y="288" style="stroke: #000000; stroke-width: 0.8"/>
      </g>
     </g>
     <g id="text_9">
      <!-- 2023-10-17 -->
      <g transform="translate(471.038936 337.765903) rotate(-30) scale(0.12 -0.12)">
       <use xlink:href="#DejaVuSans-32"/>
       <use xlink:href="#DejaVuSans-30" x="63.623047"/>
       <use xlink:href="#DejaVuSans-32" x="127.246094"/>
       <use xlink:href="#DejaVuSans-33" x="190.869141"/>
       <use xlink:href="#DejaVuSans-2d" x="254.492188"/>
       <use xlink:href="#DejaVuSans-31" x="290.576172"/>
       <use xlink:href="#DejaVuSans-30" x="354.199219"/>
       <use xlink:href="#DejaVuSans-2d" x="417.822266"/>
       <use xlink:href="#DejaVuSans-31" x="453.90625"/>
       <use xlink:href="#DejaVuSans-37" x="517.529297"/>
      </g>
     </g>
    </g>
    <g id="xtick_10">
     <g id="line2d_10">
      <g>
       <use xlink:href="#m671d6e109d" x="587.337925" y="288" style="stroke: #000000; stroke-width: 0.8"/>
      </g>
     </g>
     <g id="text_10">
      <!-- 2023-10-21 -->
      <g transform="translate(525.694583 337.765903) rotate(-30) scale(0.12 -0.12)">
       <use xlink:href="#DejaVuSans-32"/>
       <use xlink:href="#DejaVuSans-30" x="63.623047"/>
       <use xlink:href="#DejaVuSans-32" x="127.246094"/>
       <use xlink:href="#DejaVuSans-33" x="190.869141"/>
       <use xlink:href="#DejaVuSans-2d" x="254.492188"/>
       <use xlink:href="#DejaVuSans-31" x="290.576172"/>
       <use xlink:href="#DejaVuSans-30" x="354.199219"/>
       <use xlink:href="#DejaVuSans-2d" x="417.822266"/>
       <use xlink:href="#DejaVuSans-32" x="453.90625"/>
       <use xlink:href="#DejaVuSans-31" x="517.529297"/>
      </g>
     </g>
    </g>
    <g id="xtick_11">
     <g id="line2d_11">
      <g>
       <use xlink:href="#m671d6e109d" x="641.993572" y="288" style="stroke: #000000; stroke-width: 0.8"/>
      </g>
     </g>
     <g id="text_11">
      <!-- 2023-10-25 -->
      <g transform="translate(580.35023 337.765903) rotate(-30) scale(0.12 -0.12)">
       <use xlink:href="#DejaVuSans-32"/>
       <use xlink:href="#DejaVuSans-30" x="63.623047"/>
       <use xlink:href="#DejaVuSans-32" x="127.246094"/>
       <use xlink:href="#DejaVuSans-33" x="190.869141"/>
       <use xlink:href="#DejaVuSans-2d" x="254.492188"/>
       <use xlink:href="#DejaVuSans-31" x="290.576172"/>
       <use xlink:href="#DejaVuSans-30" x="354.199219"/>
       <use xlink:href="#DejaVuSans-2d" x="417.822266"/>
       <use xlink:href="#DejaVuSans-32" x="453.90625"/>
       <use xlink:href="#DejaVuSans-35" x="517.529297"/>
      </g>
     </g>
    </g>
   </g>
   <g id="matplotlib.axis_2">
    <g id="ytick_1">
     <g id="line2d_12">
      <defs>
       <path id="m3a585c4a89" d="M 0 0 
L -3.5 0 
" style="stroke: #000000; stroke-width: 0.8"/>
      </defs>
      <g>
       <use xlink:href="#m3a585c4a89" x="90" y="266.607557" style="stroke: #000000; stroke-width: 0.8"/>
      </g>
     </g>
     <g id="text_12">
      <!-- −0.2 -->
      <g transform="translate(53.860625 271.166619) scale(0.12 -0.12)">
       <defs>
        <path id="DejaVuSans-2212" d="M 678 2272 
L 4684 2272 
L 4684 1741 
L 678 1741 
L 678 2272 
z
" transform="scale(0.015625)"/>
        <path id="DejaVuSans-2e" d="M 684 794 
L 1344 794 
L 1344 0 
L 684 0 
L 684 794 
z
" transform="scale(0.015625)"/>
       </defs>
       <use xlink:href="#DejaVuSans-2212"/>
       <use xlink:href="#DejaVuSans-30" x="83.789062"/>
       <use xlink:href="#DejaVuSans-2e" x="147.412109"/>
       <use xlink:href="#DejaVuSans-32" x="179.199219"/>
      </g>
     </g>
    </g>
    <g id="ytick_2">
     <g id="line2d_13">
      <g>
       <use xlink:href="#m3a585c4a89" x="90" y="226.565914" style="stroke: #000000; stroke-width: 0.8"/>
      </g>
     </g>
     <g id="text_13">
      <!-- −0.1 -->
      <g transform="translate(53.860625 231.124977) scale(0.12 -0.12)">
       <use xlink:href="#DejaVuSans-2212"/>
       <use xlink:href="#DejaVuSans-30" x="83.789062"/>
       <use xlink:href="#DejaVuSans-2e" x="147.412109"/>
       <use xlink:href="#DejaVuSans-31" x="179.199219"/>
      </g>
     </g>
    </g>
    <g id="ytick_3">
     <g id="line2d_14">
      <g>
       <use xlink:href="#m3a585c4a89" x="90" y="186.524272" style="stroke: #000000; stroke-width: 0.8"/>
      </g>
     </g>
     <g id="text_14">
      <!-- 0.0 -->
      <g transform="translate(63.91625 191.083334) scale(0.12 -0.12)">
       <use xlink:href="#DejaVuSans-30"/>
       <use xlink:href="#DejaVuSans-2e" x="63.623047"/>
       <use xlink:href="#DejaVuSans-30" x="95.410156"/>
      </g>
     </g>
    </g>
    <g id="ytick_4">
     <g id="line2d_15">
      <g>
       <use xlink:href="#m3a585c4a89" x="90" y="146.48263" style="stroke: #000000; stroke-width: 0.8"/>
      </g>
     </g>
     <g id="text_15">
      <!-- 0.1 -->
      <g transform="translate(63.91625 151.041692) scale(0.12 -0.12)">
       <use xlink:href="#DejaVuSans-30"/>
       <use xlink:href="#DejaVuSans-2e" x="63.623047"/>
       <use xlink:href="#DejaVuSans-31" x="95.410156"/>
      </g>
     </g>
    </g>
    <g id="ytick_5">
     <g id="line2d_16">
      <g>
       <use xlink:href="#m3a585c4a89" x="90" y="106.440987" style="stroke: #000000; stroke-width: 0.8"/>
      </g>
     </g>
     <g id="text_16">
      <!-- 0.2 -->
      <g transform="translate(63.91625 111.00005) scale(0.12 -0.12)">
       <use xlink:href="#DejaVuSans-30"/>
       <use xlink:href="#DejaVuSans-2e" x="63.623047"/>
       <use xlink:href="#DejaVuSans-32" x="95.410156"/>
      </g>
     </g>
    </g>
    <g id="ytick_6">
     <g id="line2d_17">
      <g>
       <use xlink:href="#m3a585c4a89" x="90" y="66.399345" style="stroke: #000000; stroke-width: 0.8"/>
      </g>
     </g>
     <g id="text_17">
      <!-- 0.3 -->
      <g transform="translate(63.91625 70.958407) scale(0.12 -0.12)">
       <use xlink:href="#DejaVuSans-30"/>
       <use xlink:href="#DejaVuSans-2e" x="63.623047"/>
       <use xlink:href="#DejaVuSans-33" x="95.410156"/>
      </g>
     </g>
    </g>
    <g id="text_18">
     <!-- Meters -->
     <g transform="translate(47.780937 182.6875) rotate(-90) scale(0.1 -0.1)">
      <defs>
       <path id="DejaVuSans-4d" d="M 628 4666 
L 1569 4666 
L 2759 1491 
L 3956 4666 
L 4897 4666 
L 4897 0 
L 4281 0 
L 4281 4097 
L 3078 897 
L 2444 897 
L 1241 4097 
L 1241 0 
L 628 0 
L 628 4666 
z
" transform="scale(0.015625)"/>
       <path id="DejaVuSans-65" d="M 3597 1894 
L 3597 1613 
L 953 1613 
Q 991 1019 1311 708 
Q 1631 397 2203 397 
Q 2534 397 2845 478 
Q 3156 559 3463 722 
L 3463 178 
Q 3153 47 2828 -22 
Q 2503 -91 2169 -91 
Q 1331 -91 842 396 
Q 353 884 353 1716 
Q 353 2575 817 3079 
Q 1281 3584 2069 3584 
Q 2775 3584 3186 3129 
Q 3597 2675 3597 1894 
z
M 3022 2063 
Q 3016 2534 2758 2815 
Q 2500 3097 2075 3097 
Q 1594 3097 1305 2825 
Q 1016 2553 972 2059 
L 3022 2063 
z
" transform="scale(0.015625)"/>
       <path id="DejaVuSans-74" d="M 1172 4494 
L 1172 3500 
L 2356 3500 
L 2356 3053 
L 1172 3053 
L 1172 1153 
Q 1172 725 1289 603 
Q 1406 481 1766 481 
L 2356 481 
L 2356 0 
L 1766 0 
Q 1100 0 847 248 
Q 594 497 594 1153 
L 594 3053 
L 172 3053 
L 172 3500 
L 594 3500 
L 594 4494 
L 1172 4494 
z
" transform="scale(0.015625)"/>
       <path id="DejaVuSans-72" d="M 2631 2963 
Q 2534 3019 2420 3045 
Q 2306 3072 2169 3072 
Q 1681 3072 1420 2755 
Q 1159 2438 1159 1844 
L 1159 0 
L 581 0 
L 581 3500 
L 1159 3500 
L 1159 2956 
Q 1341 3275 1631 3429 
Q 1922 3584 2338 3584 
Q 2397 3584 2469 3576 
Q 2541 3569 2628 3553 
L 2631 2963 
z
" transform="scale(0.015625)"/>
       <path id="DejaVuSans-73" d="M 2834 3397 
L 2834 2853 
Q 2591 2978 2328 3040 
Q 2066 3103 1784 3103 
Q 1356 3103 1142 2972 
Q 928 2841 928 2578 
Q 928 2378 1081 2264 
Q 1234 2150 1697 2047 
L 1894 2003 
Q 2506 1872 2764 1633 
Q 3022 1394 3022 966 
Q 3022 478 2636 193 
Q 2250 -91 1575 -91 
Q 1294 -91 989 -36 
Q 684 19 347 128 
L 347 722 
Q 666 556 975 473 
Q 1284 391 1588 391 
Q 1994 391 2212 530 
Q 2431 669 2431 922 
Q 2431 1156 2273 1281 
Q 2116 1406 1581 1522 
L 1381 1569 
Q 847 1681 609 1914 
Q 372 2147 372 2553 
Q 372 3047 722 3315 
Q 1072 3584 1716 3584 
Q 2034 3584 2315 3537 
Q 2597 3491 2834 3397 
z
" transform="scale(0.015625)"/>
      </defs>
      <use xlink:href="#DejaVuSans-4d"/>
      <use xlink:href="#DejaVuSans-65" x="86.279297"/>
      <use xlink:href="#DejaVuSans-74" x="147.802734"/>
      <use xlink:href="#DejaVuSans-65" x="187.011719"/>
      <use xlink:href="#DejaVuSans-72" x="248.535156"/>
      <use xlink:href="#DejaVuSans-73" x="289.648438"/>
     </g>
    </g>
   </g>
   <g id="line2d_18">
    <path d="M 115.363636 258.420651 
L 115.932966 257.620024 
L 116.502296 258.180463 
L 117.071625 259.15456 
L 117.640955 263.624732 
L 118.210285 264.185172 
L 119.348944 264.025046 
L 119.918274 264.358641 
L 120.487603 265.159269 
L 121.056933 264.42536 
L 122.195592 263.958327 
L 122.764922 263.491294 
L 123.334252 261.489725 
L 123.903581 261.222849 
L 125.042241 260.155345 
L 125.61157 260.288783 
L 126.75023 259.888469 
L 127.319559 260.422221 
L 127.888889 261.489725 
L 128.458219 261.289568 
L 129.027548 261.689882 
L 129.596878 261.689882 
L 130.166208 262.290353 
L 130.735537 263.958327 
L 131.304867 267.427715 
L 131.874197 267.160839 
L 133.012856 267.961466 
L 133.582185 267.961466 
L 134.151515 268.495218 
L 135.859504 266.693806 
L 136.428834 149.93558 
L 136.998163 266.226773 
L 137.567493 266.960682 
L 138.136823 266.693806 
L 138.706152 265.893178 
L 139.275482 266.293492 
L 139.844812 267.027401 
L 140.414141 266.42693 
L 140.983471 267.627871 
L 141.552801 266.827244 
L 142.12213 268.628656 
L 142.69146 268.495218 
L 143.26079 267.761309 
L 143.830119 269.429284 
L 144.399449 270.229912 
L 144.968779 269.762879 
L 146.107438 272.231482 
L 146.676768 272.431638 
L 147.246097 272.498357 
L 147.815427 271.230697 
L 148.384757 270.590194 
L 148.954086 271.764449 
L 149.523416 271.964606 
L 150.662075 269.829598 
L 151.231405 269.629441 
L 151.800735 269.162408 
L 152.370064 268.094904 
L 152.939394 269.762879 
L 153.508724 269.629441 
L 154.078053 269.896317 
L 154.647383 270.029755 
L 155.216713 269.629441 
L 155.786042 268.495218 
L 156.355372 267.961466 
L 156.924702 267.894747 
L 157.494031 266.827244 
L 158.063361 268.36178 
L 158.632691 273.165547 
L 159.20202 275.033679 
L 159.77135 274.900241 
L 160.34068 273.63258 
L 160.910009 272.898671 
L 161.479339 273.232266 
L 162.048669 273.032109 
L 162.617998 272.96539 
L 163.187328 272.031325 
L 164.325987 268.495218 
L 164.895317 268.428499 
L 166.033976 267.027401 
L 167.172635 266.827244 
L 167.741965 266.560368 
L 168.311295 267.360996 
L 168.880624 266.693806 
L 169.449954 266.627087 
L 170.019284 267.961466 
L 171.157943 267.894747 
L 171.727273 269.762879 
L 172.296602 270.36335 
L 173.435262 268.895532 
L 174.004591 270.496788 
L 174.573921 271.564292 
L 175.143251 272.231482 
L 175.71258 273.298985 
L 176.28191 271.364135 
L 176.85124 271.03054 
L 177.420569 268.495218 
L 177.989899 267.427715 
L 178.559229 267.027401 
L 179.128558 267.027401 
L 179.697888 266.293492 
L 180.267218 266.572498 
L 180.836547 266.488516 
L 181.405877 267.113182 
L 183.113866 266.126694 
L 183.683196 266.893963 
L 184.252525 266.493649 
L 184.821855 266.42693 
L 185.391185 267.627871 
L 185.960514 270.38559 
L 186.529844 271.097259 
L 187.099174 271.31076 
L 187.668503 271.831168 
L 188.237833 271.497573 
L 188.807163 272.898671 
L 189.376492 273.63258 
L 189.945822 271.364135 
L 190.515152 271.230697 
L 191.653811 266.770056 
L 192.22314 266.560368 
L 192.79247 265.969428 
L 193.3618 265.546239 
L 194.500459 266.42693 
L 195.639118 265.359426 
L 196.777778 265.626302 
L 197.347107 265.959897 
L 197.916437 265.426145 
L 198.485767 264.42536 
L 199.055096 264.558798 
L 199.624426 267.928107 
L 200.763085 270.430069 
L 201.332415 270.32999 
L 201.901745 270.630226 
L 202.471074 271.516635 
L 203.040404 270.630226 
L 203.609734 268.36178 
L 204.179063 268.561937 
L 204.748393 265.159269 
L 205.317723 266.827244 
L 205.887052 266.693806 
L 206.456382 265.75974 
L 207.025712 267.627871 
L 207.595041 266.026616 
L 208.164371 267.027401 
L 208.733701 265.959897 
L 209.30303 266.693806 
L 209.87236 266.026616 
L 210.44169 266.360211 
L 211.011019 267.027401 
L 211.580349 266.493649 
L 212.149679 265.559583 
L 212.719008 265.826459 
L 213.288338 271.230697 
L 213.857668 273.499142 
L 214.426997 274.099613 
L 214.996327 273.699299 
L 215.565657 272.831952 
L 216.134986 274.29977 
L 216.704316 273.899456 
L 217.273646 272.231482 
L 217.842975 271.430854 
L 218.412305 271.459448 
L 218.981635 268.628656 
L 219.550964 269.069002 
L 220.120294 268.094904 
L 220.689624 268.228342 
L 221.258953 268.495218 
L 221.828283 269.69616 
L 222.397612 268.295061 
L 222.966942 268.36178 
L 223.536272 268.295061 
L 224.105601 268.495218 
L 224.674931 269.229127 
L 225.244261 267.427715 
L 225.81359 266.827244 
L 226.38292 268.495218 
L 226.95225 273.952831 
L 227.521579 275.901026 
L 228.090909 274.833522 
L 229.229568 274.233051 
L 229.798898 274.900241 
L 230.368228 273.712643 
L 230.937557 273.165547 
L 232.076217 272.431638 
L 232.645546 268.256936 
L 233.784206 267.685059 
L 234.353535 268.228342 
L 234.922865 267.527793 
L 235.492195 267.227558 
L 236.061524 267.494434 
L 236.630854 266.560368 
L 237.200184 266.093335 
L 237.769513 266.386898 
L 238.338843 265.893178 
L 238.908173 266.026616 
L 239.477502 266.527008 
L 240.616162 268.295061 
L 241.185491 269.779559 
L 241.754821 270.430069 
L 242.324151 269.72952 
L 242.89348 269.709504 
L 243.46281 270.269943 
L 244.03214 269.963036 
L 244.601469 269.095689 
L 245.170799 269.67948 
L 245.740129 250.254247 
L 246.309458 223.459903 
L 247.448118 233.000718 
L 248.017447 236.503464 
L 249.156107 249.713824 
L 249.725436 252.415943 
L 251.433425 256.018768 
L 252.002755 256.719317 
L 253.141414 258.954403 
L 253.710744 260.155345 
L 254.280073 262.156915 
L 254.849403 262.623948 
L 255.418733 261.689882 
L 255.988062 262.223634 
L 256.557392 262.223634 
L 257.126722 262.557229 
L 257.696051 263.157699 
L 258.265381 263.424575 
L 258.834711 263.224418 
L 259.40404 263.558013 
L 259.97337 263.024261 
L 260.5427 262.757386 
L 261.112029 262.890823 
L 261.681359 262.690667 
L 262.820018 262.090196 
L 263.389348 262.557229 
L 263.958678 262.423791 
L 264.528007 262.557229 
L 265.097337 262.423791 
L 266.235996 263.624732 
L 266.805326 264.692236 
L 267.374656 266.026616 
L 267.943985 266.760525 
L 268.513315 266.960682 
L 269.082645 267.69459 
L 269.651974 267.160839 
L 270.221304 267.360996 
L 270.790634 267.294277 
L 271.359963 267.494434 
L 272.498623 266.493649 
L 273.067952 266.226773 
L 273.637282 265.626302 
L 274.206612 264.505423 
L 274.775941 262.023477 
L 275.914601 221.124738 
L 276.48393 211.517204 
L 277.05326 206.846875 
L 277.62259 206.246404 
L 278.191919 204.912024 
L 278.761249 199.374349 
L 279.330579 195.104334 
L 280.469238 214.386121 
L 281.038567 220.924581 
L 281.607897 225.928505 
L 282.746556 233.467751 
L 283.315886 236.13651 
L 284.454545 238.538394 
L 285.593205 239.205583 
L 286.162534 239.272302 
L 286.731864 239.472459 
L 287.301194 239.806054 
L 287.870523 239.739335 
L 288.439853 240.539963 
L 289.578512 241.340591 
L 290.147842 241.740905 
L 290.717172 242.541533 
L 291.286501 243.609036 
L 291.855831 243.875912 
L 292.425161 244.67654 
L 292.99449 245.877482 
L 293.56382 246.411234 
L 295.271809 248.679679 
L 295.841139 250.214216 
L 296.410468 251.215001 
L 296.979798 251.615315 
L 297.549128 251.148282 
L 298.118457 251.348439 
L 298.687787 250.881406 
L 299.257117 251.215001 
L 299.826446 251.215001 
L 300.395776 251.014844 
L 300.965106 251.014844 
L 302.103765 252.215786 
L 302.673095 252.187192 
L 303.811754 252.749538 
L 304.381084 252.482662 
L 306.089073 253.483446 
L 307.227732 254.150636 
L 307.797062 253.950479 
L 308.366391 253.88376 
L 308.935721 258.340589 
L 309.505051 260.288783 
L 310.07438 261.222849 
L 310.64371 260.155345 
L 311.213039 259.955188 
L 311.782369 263.558013 
L 312.351699 263.357856 
L 312.921028 261.489725 
L 314.059688 259.354717 
L 314.629017 258.220494 
L 315.767677 257.620024 
L 316.337006 257.953618 
L 316.906336 257.686743 
L 317.475666 257.820181 
L 318.044995 257.286429 
L 318.614325 257.686743 
L 319.752984 258.820965 
L 320.322314 259.688312 
L 320.891644 259.287998 
L 321.460973 258.48737 
L 322.030303 260.288783 
L 323.168962 263.157699 
L 323.738292 264.959112 
L 324.307622 264.825674 
L 325.446281 266.760525 
L 326.015611 266.493649 
L 326.58494 264.892393 
L 327.15427 264.158484 
L 328.292929 261.890039 
L 329.431589 261.022692 
L 330.000918 260.955973 
L 330.570248 260.555659 
L 331.139578 261.289568 
L 332.278237 261.356287 
L 332.847567 261.756601 
L 333.416896 260.955973 
L 333.986226 261.289568 
L 334.555556 260.955973 
L 335.124885 261.222849 
L 335.694215 261.289568 
L 336.263545 264.959112 
L 336.832874 267.09412 
L 337.402204 267.360996 
L 337.971534 266.093335 
L 338.540863 267.227558 
L 339.110193 270.496788 
L 339.679522 267.69459 
L 340.818182 265.75974 
L 341.387511 264.42536 
L 341.956841 263.491294 
L 343.0955 263.09098 
L 343.66483 262.757386 
L 344.23416 262.890823 
L 345.372819 263.691451 
L 345.942149 263.691451 
L 346.511478 263.891608 
L 347.080808 262.957542 
L 347.650138 263.491294 
L 348.219467 263.09098 
L 348.788797 261.756601 
L 349.358127 260.889254 
L 349.927456 266.293492 
L 350.496786 270.163193 
L 351.066116 272.231482 
L 351.635445 268.962251 
L 352.204775 270.496788 
L 352.774105 270.963821 
L 353.912764 269.362565 
L 354.482094 269.229127 
L 355.051423 267.828028 
L 355.620753 267.555087 
L 356.190083 267.983706 
L 356.759412 267.30762 
L 357.328742 266.42693 
L 357.898072 266.827244 
L 358.467401 265.826459 
L 359.036731 266.493649 
L 359.606061 266.727165 
L 360.17539 267.294277 
L 361.31405 266.960682 
L 361.883379 265.09255 
L 362.452709 264.625517 
L 363.022039 266.026616 
L 363.591368 270.830383 
L 364.160698 271.631011 
L 364.730028 268.428499 
L 365.299357 270.430069 
L 365.868687 271.297416 
L 366.438017 271.631011 
L 367.007346 270.830383 
L 367.576676 273.132188 
L 368.146006 272.164763 
L 368.715335 269.295846 
L 369.284665 270.763664 
L 369.853994 269.829598 
L 370.423324 270.496788 
L 370.992654 270.830383 
L 371.561983 270.163193 
L 372.131313 269.69616 
L 372.700643 270.096474 
L 373.839302 268.428499 
L 374.408632 267.761309 
L 374.977961 268.094904 
L 375.547291 267.828028 
L 376.68595 261.222849 
L 377.25528 235.069006 
L 378.393939 134.163212 
L 378.963269 140.528203 
L 379.532599 139.127104 
L 380.101928 130.253479 
L 381.240588 86.419105 
L 381.809917 93.491318 
L 383.517906 141.462269 
L 384.087236 154.739347 
L 385.225895 169.951276 
L 385.795225 173.754258 
L 388.641873 182.494445 
L 389.780533 184.762891 
L 390.349862 187.698526 
L 391.488522 197.706374 
L 392.057851 199.707944 
L 392.627181 203.711083 
L 393.196511 206.313123 
L 393.76584 210.783295 
L 394.33517 212.651427 
L 395.473829 217.922227 
L 396.043159 218.189103 
L 396.612489 216.120814 
L 397.181818 211.11689 
L 397.751148 203.977959 
L 398.889807 212.251113 
L 399.459137 215.05331 
L 400.028466 215.787219 
L 400.597796 217.521913 
L 401.167126 218.722855 
L 401.736455 221.324895 
L 402.305785 222.392399 
L 404.013774 226.195381 
L 404.583104 226.795852 
L 405.152433 228.397108 
L 405.721763 228.663984 
L 406.291093 229.397892 
L 406.860422 230.532115 
L 407.429752 229.864925 
L 407.999082 230.598834 
L 409.137741 230.798991 
L 430.202938 242.141219 
L 430.772268 242.808409 
L 431.341598 244.00935 
L 431.910927 245.660645 
L 432.480257 246.731485 
L 433.049587 247.31194 
L 433.618916 247.211862 
L 434.188246 248.546241 
L 434.757576 250.347654 
L 435.326905 248.546241 
L 436.465565 247.879052 
L 437.034894 246.611391 
L 437.604224 247.078424 
L 438.173554 247.278581 
L 438.742883 247.278581 
L 439.312213 246.611391 
L 439.881543 247.678895 
L 440.450872 247.478738 
L 441.589532 247.745614 
L 442.158861 247.011705 
L 442.728191 246.477953 
L 443.297521 246.944986 
L 443.86685 247.745614 
L 444.43618 248.346084 
L 445.574839 250.481092 
L 446.144169 250.814687 
L 446.713499 250.547811 
L 447.282828 250.414373 
L 447.852158 250.547811 
L 448.421488 249.680464 
L 448.990817 248.01249 
L 449.560147 247.745614 
L 450.698806 245.610606 
L 451.268136 245.277011 
L 451.837466 244.476383 
L 452.406795 243.475599 
L 452.976125 244.276226 
L 453.545455 243.942631 
L 454.114784 244.876697 
L 454.684114 244.67654 
L 455.253444 244.67654 
L 455.822773 245.543887 
L 456.392103 245.744044 
L 456.961433 246.344515 
L 457.530762 246.67811 
L 458.100092 246.477953 
L 458.669421 247.745614 
L 459.238751 248.212647 
L 459.808081 248.01249 
L 460.37741 248.412803 
L 462.085399 247.879052 
L 462.654729 247.745614 
L 463.224059 247.412019 
L 465.501377 246.67811 
L 466.070707 247.291925 
L 466.640037 248.813117 
L 467.209366 248.733055 
L 467.778696 248.412803 
L 468.348026 248.61296 
L 468.917355 248.61296 
L 469.486685 248.279366 
L 470.056015 247.812333 
L 470.625344 248.546241 
L 471.194674 248.746398 
L 471.764004 247.879052 
L 472.333333 247.678895 
L 472.902663 251.215001 
L 473.471993 253.550165 
L 474.041322 254.150636 
L 474.610652 252.549381 
L 475.179982 253.616884 
L 475.749311 253.616884 
L 476.318641 251.548596 
L 476.887971 251.348439 
L 477.4573 250.948125 
L 478.02663 250.881406 
L 478.59596 250.414373 
L 479.165289 250.481092 
L 479.734619 250.747968 
L 480.303949 250.747968 
L 480.873278 250.481092 
L 481.442608 250.481092 
L 482.011938 251.215001 
L 482.581267 251.28172 
L 483.150597 250.747968 
L 483.719927 251.348439 
L 484.858586 251.348439 
L 485.427916 251.215001 
L 487.135904 252.215786 
L 487.705234 252.349224 
L 488.274564 251.348439 
L 488.843893 250.681249 
L 489.413223 250.681249 
L 489.982553 250.414373 
L 490.551882 250.347654 
L 491.121212 250.481092 
L 491.690542 249.813902 
L 492.259871 248.746398 
L 492.829201 242.541533 
L 493.398531 224.92772 
L 493.96786 194.637301 
L 494.53719 180.025843 
L 495.10652 184.095701 
L 495.675849 186.364146 
L 496.245179 168.35002 
L 496.814509 140.995236 
L 497.383838 125.382993 
L 497.953168 101.364158 
L 498.522498 87.953642 
L 499.091827 98.962274 
L 499.661157 98.695399 
L 500.230487 82.082371 
L 500.799816 74.609845 
L 501.369146 81.548619 
L 503.646465 134.390056 
L 504.215794 143.597276 
L 504.785124 148.934795 
L 505.354454 151.603555 
L 505.923783 152.737777 
L 506.493113 153.271529 
L 507.062443 154.138876 
L 507.631772 155.406537 
L 508.770432 160.143585 
L 509.339761 161.344527 
L 509.909091 164.880633 
L 511.04775 170.284871 
L 511.61708 173.687539 
L 512.755739 178.22443 
L 513.325069 180.82647 
L 513.894399 184.562734 
L 515.602388 191.634946 
L 516.171717 194.437144 
L 516.741047 196.572151 
L 517.310376 197.039184 
L 517.879706 198.173407 
L 518.449036 199.707944 
L 519.587695 201.576075 
L 520.157025 201.90967 
L 520.726354 201.109042 
L 521.295684 198.507002 
L 522.434343 188.632592 
L 523.003673 187.498369 
L 523.573003 191.101194 
L 524.142332 193.436359 
L 524.711662 193.970111 
L 525.280992 195.437928 
L 526.419651 199.441068 
L 528.12764 203.377488 
L 528.69697 203.91124 
L 529.835629 206.846875 
L 530.404959 207.914379 
L 530.974288 208.51485 
L 531.543618 208.781726 
L 532.682277 210.783295 
L 533.251607 211.11689 
L 533.820937 210.916733 
L 534.390266 210.983452 
L 534.959596 212.317832 
L 536.098255 213.051741 
L 536.667585 213.78565 
L 537.236915 213.985807 
L 537.806244 213.78565 
L 538.375574 215.05331 
L 538.944904 215.186748 
L 539.514233 215.05331 
L 540.083563 215.987376 
L 540.652893 216.587847 
L 541.222222 217.72207 
L 541.791552 217.988946 
L 542.360882 218.522698 
L 542.930211 218.589417 
L 543.499541 219.256607 
L 544.068871 219.523482 
L 544.6382 220.123953 
L 545.20753 222.258961 
L 545.77686 220.123953 
L 546.346189 219.123169 
L 546.915519 219.790358 
L 547.484848 220.924581 
L 548.054178 222.792713 
L 549.192837 222.725994 
L 549.762167 222.258961 
L 550.331497 221.458333 
L 550.900826 222.258961 
L 551.470156 223.726779 
L 552.039486 223.860217 
L 552.608815 224.527406 
L 553.178145 223.793498 
L 553.747475 223.459903 
L 554.316804 223.593341 
L 554.886134 224.994439 
L 555.455464 227.663199 
L 556.024793 228.196951 
L 556.594123 228.463827 
L 557.163453 227.796637 
L 557.732782 227.729918 
L 558.302112 227.463042 
L 558.871442 229.464611 
L 559.440771 228.730703 
L 560.010101 227.062728 
L 560.579431 227.796637 
L 561.14876 228.196951 
L 561.71809 227.930075 
L 562.28742 226.996009 
L 562.856749 227.663199 
L 563.426079 228.663984 
L 563.995409 228.864141 
L 565.134068 230.331958 
L 565.703398 228.397108 
L 566.272727 228.730703 
L 566.842057 230.598834 
L 567.411387 230.465396 
L 568.550046 230.665553 
L 569.119376 231.5329 
L 569.688705 231.933214 
L 570.258035 231.332743 
L 570.827365 229.798206 
L 571.396694 228.797422 
L 571.966024 226.662414 
L 573.104683 217.521913 
L 573.674013 210.716576 
L 574.243343 198.306845 
L 574.812672 165.147509 
L 575.951331 54.327273 
L 576.520661 55.995247 
L 578.22865 119.311565 
L 578.79798 134.857089 
L 579.367309 143.797433 
L 579.936639 148.667919 
L 580.505969 151.670274 
L 581.075298 153.004653 
L 581.644628 154.005438 
L 582.213958 154.405752 
L 582.783287 154.272314 
L 583.352617 151.136522 
L 584.491276 136.191469 
L 585.060606 106.50152 
L 585.629936 97.828052 
L 586.768595 119.244846 
L 587.337925 126.650654 
L 587.907254 132.321768 
L 588.476584 134.79037 
L 589.045914 134.79037 
L 589.615243 134.12318 
L 590.184573 133.656147 
L 590.753903 133.722866 
L 591.323232 135.123965 
L 591.892562 136.858659 
L 592.461892 137.859443 
L 593.031221 140.328046 
L 593.600551 142.129459 
L 594.169881 144.998375 
L 594.73921 146.733069 
L 596.447199 153.738562 
L 597.016529 157.14123 
L 597.585859 159.009362 
L 598.155188 162.278592 
L 598.724518 163.74641 
L 599.293848 164.547038 
L 600.432507 167.215797 
L 601.571166 169.350805 
L 602.140496 171.485812 
L 602.709826 172.086283 
L 604.417815 177.757397 
L 606.695133 182.16085 
L 607.264463 183.561949 
L 607.833792 183.028197 
L 608.972452 186.163989 
L 610.111111 190.834318 
L 611.24977 192.902607 
L 612.38843 197.773093 
L 612.957759 195.30449 
L 613.527089 195.704804 
L 614.096419 197.172622 
L 614.665748 196.572151 
L 615.235078 197.506217 
L 615.804408 198.173407 
L 616.373737 198.106688 
L 616.943067 199.240911 
L 617.512397 200.108257 
L 618.651056 201.175761 
L 619.789715 201.90967 
L 620.359045 201.776232 
L 620.928375 202.57686 
L 621.497704 202.176546 
L 622.067034 202.443422 
L 622.636364 201.576075 
L 622.636364 201.576075 
" clip-path="url(#p2d75c9bbdd)" style="fill: none; stroke: #1f77b4; stroke-width: 1.5; stroke-linecap: square"/>
   </g>
   <g id="line2d_19">
    <path d="M 115.363636 256.579207 
L 122.195592 257.559016 
L 126.75023 258.133769 
L 127.319559 257.983266 
L 127.888889 257.687181 
L 128.458219 257.698363 
L 129.027548 257.553795 
L 129.596878 260.849222 
L 130.166208 260.856971 
L 130.735537 261.128533 
L 131.874197 261.914005 
L 133.582185 262.633413 
L 134.151515 263.307199 
L 134.720845 261.055118 
L 135.290174 257.742125 
L 135.859504 257.259113 
L 136.428834 257.419447 
L 136.998163 257.034022 
L 137.567493 256.869226 
L 138.136823 257.109659 
L 139.275482 258.118663 
L 140.414141 258.917206 
L 141.552801 259.974011 
L 142.69146 260.564358 
L 143.26079 265.786427 
L 144.968779 266.345998 
L 149.523416 267.40134 
L 159.20202 269.436886 
L 170.019284 270.777171 
L 170.588613 266.453617 
L 171.727273 266.756921 
L 172.865932 266.572231 
L 174.573921 267.001498 
L 183.683196 268.94443 
L 184.252525 265.706365 
L 199.624426 267.887001 
L 200.763085 263.576168 
L 211.580349 265.25961 
L 212.149679 264.9858 
L 228.090909 267.306896 
L 238.338843 268.69019 
L 238.908173 266.186741 
L 241.754821 266.807913 
L 242.324151 266.852926 
L 242.89348 267.085448 
L 243.46281 267.513355 
L 244.03214 267.650585 
L 244.601469 266.969851 
L 245.740129 264.482541 
L 246.309458 264.071281 
L 248.017447 264.370878 
L 250.294766 265.24 
L 251.433425 266.859682 
L 252.002755 267.039735 
L 252.572084 254.177324 
L 253.141414 253.83253 
L 253.710744 253.192414 
L 254.280073 252.980114 
L 254.849403 253.21537 
L 255.988062 252.568387 
L 258.265381 253.537561 
L 259.40404 254.063418 
L 261.681359 255.022499 
L 264.528007 256.02387 
L 265.097337 256.677065 
L 265.666667 255.407897 
L 266.235996 253.624226 
L 266.805326 253.815644 
L 267.943985 254.543221 
L 268.513315 265.386114 
L 269.082645 265.356829 
L 269.651974 265.582284 
L 270.790634 264.429104 
L 271.359963 264.633755 
L 271.929293 266.587055 
L 277.62259 267.720992 
L 278.191919 267.567291 
L 278.761249 265.429327 
L 279.330579 205.205588 
L 279.899908 204.462174 
L 280.469238 204.470967 
L 281.038567 204.800996 
L 282.177227 205.847387 
L 286.162534 208.17914 
L 289.578512 210.03597 
L 290.717172 211.795435 
L 300.965106 216.41401 
L 306.089073 218.599986 
L 306.658402 253.21657 
L 319.752984 255.996134 
L 320.322314 256.112235 
L 320.891644 258.220494 
L 333.416896 260.533579 
L 333.986226 262.023477 
L 347.650138 264.250426 
L 348.219467 264.225203 
L 358.467401 266.645058 
L 363.022039 267.556337 
L 372.131313 269.594015 
L 372.700643 269.130432 
L 373.839302 259.245668 
L 374.408632 259.044221 
L 374.977961 257.636087 
L 375.547291 268.428499 
L 376.116621 265.512479 
L 376.68595 257.818465 
L 377.25528 245.089322 
L 377.82461 227.398799 
L 378.963269 180.266039 
L 379.532599 165.639351 
L 381.240588 132.623669 
L 382.379247 121.100901 
L 383.517906 119.540491 
L 384.087236 119.479282 
L 385.225895 124.567675 
L 386.933884 131.096402 
L 388.641873 137.2299 
L 389.211203 178.157711 
L 390.349862 185.436229 
L 391.488522 191.466329 
L 393.196511 198.920393 
L 395.473829 207.658453 
L 396.612489 211.640275 
L 397.181818 212.955029 
L 397.751148 213.270519 
L 398.320478 213.828947 
L 398.889807 215.434118 
L 399.459137 214.730145 
L 400.028466 210.524397 
L 400.597796 207.698966 
L 401.167126 207.558722 
L 401.736455 208.544597 
L 402.305785 209.921703 
L 402.875115 218.889652 
L 404.013774 223.431359 
L 405.152433 227.732416 
L 406.291093 230.581075 
L 406.860422 231.533219 
L 407.429752 231.954641 
L 407.999082 232.885798 
L 408.568411 234.059459 
L 409.137741 235.572143 
L 430.202938 269.849145 
L 432.480257 271.497747 
L 435.326905 273.264143 
L 438.173554 274.753078 
L 441.020202 276.009493 
L 443.297521 276.872727 
L 443.86685 247.131799 
L 446.713499 248.272108 
L 447.282828 247.82087 
L 447.852158 246.818656 
L 448.421488 246.487617 
L 448.990817 246.517654 
L 449.560147 246.702797 
L 450.698806 246.28447 
L 452.406795 246.798066 
L 452.976125 247.089202 
L 454.114784 247.845072 
L 456.392103 248.791057 
L 456.961433 245.530543 
L 458.100092 246.889866 
L 459.808081 248.042012 
L 463.224059 249.914106 
L 466.640037 251.503405 
L 470.056015 252.835524 
L 470.625344 253.036118 
L 471.194674 248.312725 
L 474.610652 249.608966 
L 478.59596 250.875393 
L 482.011938 251.840962 
L 482.581267 251.55346 
L 483.150597 251.120014 
L 483.719927 250.942284 
L 484.289256 249.939325 
L 484.858586 250.714609 
L 489.413223 252.034864 
L 489.982553 252.073956 
L 490.551882 252.656282 
L 491.121212 249.684551 
L 491.690542 243.265037 
L 492.259871 240.039615 
L 493.398531 236.685307 
L 493.96786 231.455137 
L 494.53719 217.164062 
L 495.10652 193.825944 
L 495.675849 178.635713 
L 496.245179 179.319726 
L 496.814509 179.690361 
L 497.383838 182.029501 
L 497.953168 185.010236 
L 498.522498 126.317059 
L 500.230487 115.617438 
L 500.799816 110.934968 
L 502.507805 89.63848 
L 503.077135 84.51096 
L 503.646465 82.218255 
L 504.215794 84.530385 
L 507.631772 114.672318 
L 508.770432 120.772372 
L 509.909091 125.964502 
L 511.61708 132.60284 
L 512.18641 166.948921 
L 514.463728 172.085153 
L 516.741047 176.596283 
L 519.018365 180.559632 
L 521.295684 184.055292 
L 523.573003 187.154595 
L 525.280992 189.26453 
L 525.850321 192.969326 
L 527.55831 195.049785 
L 529.835629 197.464127 
L 532.112948 199.610354 
L 534.959596 201.969468 
L 537.806244 204.023102 
L 538.944904 204.770294 
L 539.514233 213.685571 
L 548.623508 217.671505 
L 552.608815 219.347568 
L 553.178145 223.493262 
L 563.426079 227.391144 
L 565.134068 228.03964 
L 565.703398 227.982622 
L 566.272727 226.873137 
L 566.842057 230.498756 
L 567.980716 224.421483 
L 569.688705 212.367922 
L 570.258035 210.089729 
L 570.827365 209.426372 
L 571.396694 209.780561 
L 571.966024 208.80326 
L 572.535354 205.637777 
L 573.104683 200.262431 
L 574.243343 179.604096 
L 574.812672 178.142504 
L 575.382002 179.007346 
L 575.951331 180.581647 
L 577.089991 185.049144 
L 579.936639 197.053103 
L 580.505969 132.922238 
L 582.213958 140.126567 
L 583.352617 146.130363 
L 583.921947 147.681024 
L 584.491276 147.545131 
L 585.060606 148.518119 
L 585.629936 147.608243 
L 586.768595 142.824768 
L 587.337925 141.061015 
L 587.907254 141.226917 
L 588.476584 140.771992 
L 589.045914 141.324994 
L 590.753903 144.487392 
L 592.461892 147.370884 
L 593.600551 148.964887 
L 594.169881 137.525848 
L 595.87787 141.802587 
L 597.585859 145.219806 
L 598.155188 146.25632 
L 598.724518 146.676211 
L 599.293848 144.973068 
L 600.432507 138.957849 
L 601.571166 132.681333 
L 602.709826 118.98945 
L 603.279155 116.883266 
L 603.848485 117.894544 
L 606.125803 125.537769 
L 607.264463 128.61844 
L 607.833792 181.160065 
L 610.111111 184.462112 
L 612.38843 187.381882 
L 614.665748 189.950373 
L 616.943067 192.194459 
L 619.220386 194.142147 
L 620.928375 195.42629 
L 621.497704 202.176546 
L 622.636364 203.019898 
L 622.636364 203.019898 
" clip-path="url(#p2d75c9bbdd)" style="fill: none; stroke: #ff7f0e; stroke-width: 1.5; stroke-linecap: square"/>
   </g>
   <g id="patch_3">
    <path d="M 90 288 
L 90 43.2 
" style="fill: none; stroke: #000000; stroke-width: 0.8; stroke-linejoin: miter; stroke-linecap: square"/>
   </g>
   <g id="patch_4">
    <path d="M 648 288 
L 648 43.2 
" style="fill: none; stroke: #000000; stroke-width: 0.8; stroke-linejoin: miter; stroke-linecap: square"/>
   </g>
   <g id="patch_5">
    <path d="M 90 288 
L 648 288 
" style="fill: none; stroke: #000000; stroke-width: 0.8; stroke-linejoin: miter; stroke-linecap: square"/>
   </g>
   <g id="patch_6">
    <path d="M 90 43.2 
L 648 43.2 
" style="fill: none; stroke: #000000; stroke-width: 0.8; stroke-linejoin: miter; stroke-linecap: square"/>
   </g>
   <g id="text_19">
    <!-- MDOT2471 -->
    <g transform="translate(335.545313 37.2) scale(0.12 -0.12)">
     <defs>
      <path id="DejaVuSans-44" d="M 1259 4147 
L 1259 519 
L 2022 519 
Q 2988 519 3436 956 
Q 3884 1394 3884 2338 
Q 3884 3275 3436 3711 
Q 2988 4147 2022 4147 
L 1259 4147 
z
M 628 4666 
L 1925 4666 
Q 3281 4666 3915 4102 
Q 4550 3538 4550 2338 
Q 4550 1131 3912 565 
Q 3275 0 1925 0 
L 628 0 
L 628 4666 
z
" transform="scale(0.015625)"/>
      <path id="DejaVuSans-4f" d="M 2522 4238 
Q 1834 4238 1429 3725 
Q 1025 3213 1025 2328 
Q 1025 1447 1429 934 
Q 1834 422 2522 422 
Q 3209 422 3611 934 
Q 4013 1447 4013 2328 
Q 4013 3213 3611 3725 
Q 3209 4238 2522 4238 
z
M 2522 4750 
Q 3503 4750 4090 4092 
Q 4678 3434 4678 2328 
Q 4678 1225 4090 567 
Q 3503 -91 2522 -91 
Q 1538 -91 948 565 
Q 359 1222 359 2328 
Q 359 3434 948 4092 
Q 1538 4750 2522 4750 
z
" transform="scale(0.015625)"/>
      <path id="DejaVuSans-54" d="M -19 4666 
L 3928 4666 
L 3928 4134 
L 2272 4134 
L 2272 0 
L 1638 0 
L 1638 4134 
L -19 4134 
L -19 4666 
z
" transform="scale(0.015625)"/>
      <path id="DejaVuSans-34" d="M 2419 4116 
L 825 1625 
L 2419 1625 
L 2419 4116 
z
M 2253 4666 
L 3047 4666 
L 3047 1625 
L 3713 1625 
L 3713 1100 
L 3047 1100 
L 3047 0 
L 2419 0 
L 2419 1100 
L 313 1100 
L 313 1709 
L 2253 4666 
z
" transform="scale(0.015625)"/>
     </defs>
     <use xlink:href="#DejaVuSans-4d"/>
     <use xlink:href="#DejaVuSans-44" x="86.279297"/>
     <use xlink:href="#DejaVuSans-4f" x="163.28125"/>
     <use xlink:href="#DejaVuSans-54" x="241.992188"/>
     <use xlink:href="#DejaVuSans-32" x="303.076172"/>
     <use xlink:href="#DejaVuSans-34" x="366.699219"/>
     <use xlink:href="#DejaVuSans-37" x="430.322266"/>
     <use xlink:href="#DejaVuSans-31" x="493.945312"/>
    </g>
   </g>
   <g id="legend_1">
    <g id="patch_7">
     <path d="M 97 80.55625 
L 178.95625 80.55625 
Q 180.95625 80.55625 180.95625 78.55625 
L 180.95625 50.2 
Q 180.95625 48.2 178.95625 48.2 
L 97 48.2 
Q 95 48.2 95 50.2 
L 95 78.55625 
Q 95 80.55625 97 80.55625 
z
" style="fill: #ffffff; opacity: 0.8; stroke: #cccccc; stroke-linejoin: miter"/>
    </g>
    <g id="line2d_20">
     <path d="M 99 56.298437 
L 109 56.298437 
L 119 56.298437 
" style="fill: none; stroke: #1f77b4; stroke-width: 1.5; stroke-linecap: square"/>
    </g>
    <g id="text_20">
     <!-- measured -->
     <g transform="translate(127 59.798437) scale(0.1 -0.1)">
      <defs>
       <path id="DejaVuSans-6d" d="M 3328 2828 
Q 3544 3216 3844 3400 
Q 4144 3584 4550 3584 
Q 5097 3584 5394 3201 
Q 5691 2819 5691 2113 
L 5691 0 
L 5113 0 
L 5113 2094 
Q 5113 2597 4934 2840 
Q 4756 3084 4391 3084 
Q 3944 3084 3684 2787 
Q 3425 2491 3425 1978 
L 3425 0 
L 2847 0 
L 2847 2094 
Q 2847 2600 2669 2842 
Q 2491 3084 2119 3084 
Q 1678 3084 1418 2786 
Q 1159 2488 1159 1978 
L 1159 0 
L 581 0 
L 581 3500 
L 1159 3500 
L 1159 2956 
Q 1356 3278 1631 3431 
Q 1906 3584 2284 3584 
Q 2666 3584 2933 3390 
Q 3200 3197 3328 2828 
z
" transform="scale(0.015625)"/>
       <path id="DejaVuSans-61" d="M 2194 1759 
Q 1497 1759 1228 1600 
Q 959 1441 959 1056 
Q 959 750 1161 570 
Q 1363 391 1709 391 
Q 2188 391 2477 730 
Q 2766 1069 2766 1631 
L 2766 1759 
L 2194 1759 
z
M 3341 1997 
L 3341 0 
L 2766 0 
L 2766 531 
Q 2569 213 2275 61 
Q 1981 -91 1556 -91 
Q 1019 -91 701 211 
Q 384 513 384 1019 
Q 384 1609 779 1909 
Q 1175 2209 1959 2209 
L 2766 2209 
L 2766 2266 
Q 2766 2663 2505 2880 
Q 2244 3097 1772 3097 
Q 1472 3097 1187 3025 
Q 903 2953 641 2809 
L 641 3341 
Q 956 3463 1253 3523 
Q 1550 3584 1831 3584 
Q 2591 3584 2966 3190 
Q 3341 2797 3341 1997 
z
" transform="scale(0.015625)"/>
       <path id="DejaVuSans-75" d="M 544 1381 
L 544 3500 
L 1119 3500 
L 1119 1403 
Q 1119 906 1312 657 
Q 1506 409 1894 409 
Q 2359 409 2629 706 
Q 2900 1003 2900 1516 
L 2900 3500 
L 3475 3500 
L 3475 0 
L 2900 0 
L 2900 538 
Q 2691 219 2414 64 
Q 2138 -91 1772 -91 
Q 1169 -91 856 284 
Q 544 659 544 1381 
z
M 1991 3584 
L 1991 3584 
z
" transform="scale(0.015625)"/>
       <path id="DejaVuSans-64" d="M 2906 2969 
L 2906 4863 
L 3481 4863 
L 3481 0 
L 2906 0 
L 2906 525 
Q 2725 213 2448 61 
Q 2172 -91 1784 -91 
Q 1150 -91 751 415 
Q 353 922 353 1747 
Q 353 2572 751 3078 
Q 1150 3584 1784 3584 
Q 2172 3584 2448 3432 
Q 2725 3281 2906 2969 
z
M 947 1747 
Q 947 1113 1208 752 
Q 1469 391 1925 391 
Q 2381 391 2643 752 
Q 2906 1113 2906 1747 
Q 2906 2381 2643 2742 
Q 2381 3103 1925 3103 
Q 1469 3103 1208 2742 
Q 947 2381 947 1747 
z
" transform="scale(0.015625)"/>
      </defs>
      <use xlink:href="#DejaVuSans-6d"/>
      <use xlink:href="#DejaVuSans-65" x="97.412109"/>
      <use xlink:href="#DejaVuSans-61" x="158.935547"/>
      <use xlink:href="#DejaVuSans-73" x="220.214844"/>
      <use xlink:href="#DejaVuSans-75" x="272.314453"/>
      <use xlink:href="#DejaVuSans-72" x="335.693359"/>
      <use xlink:href="#DejaVuSans-65" x="374.556641"/>
      <use xlink:href="#DejaVuSans-64" x="436.080078"/>
     </g>
    </g>
    <g id="line2d_21">
     <path d="M 99 70.976562 
L 109 70.976562 
L 119 70.976562 
" style="fill: none; stroke: #ff7f0e; stroke-width: 1.5; stroke-linecap: square"/>
    </g>
    <g id="text_21">
     <!-- predicted -->
     <g transform="translate(127 74.476562) scale(0.1 -0.1)">
      <defs>
       <path id="DejaVuSans-70" d="M 1159 525 
L 1159 -1331 
L 581 -1331 
L 581 3500 
L 1159 3500 
L 1159 2969 
Q 1341 3281 1617 3432 
Q 1894 3584 2278 3584 
Q 2916 3584 3314 3078 
Q 3713 2572 3713 1747 
Q 3713 922 3314 415 
Q 2916 -91 2278 -91 
Q 1894 -91 1617 61 
Q 1341 213 1159 525 
z
M 3116 1747 
Q 3116 2381 2855 2742 
Q 2594 3103 2138 3103 
Q 1681 3103 1420 2742 
Q 1159 2381 1159 1747 
Q 1159 1113 1420 752 
Q 1681 391 2138 391 
Q 2594 391 2855 752 
Q 3116 1113 3116 1747 
z
" transform="scale(0.015625)"/>
       <path id="DejaVuSans-69" d="M 603 3500 
L 1178 3500 
L 1178 0 
L 603 0 
L 603 3500 
z
M 603 4863 
L 1178 4863 
L 1178 4134 
L 603 4134 
L 603 4863 
z
" transform="scale(0.015625)"/>
       <path id="DejaVuSans-63" d="M 3122 3366 
L 3122 2828 
Q 2878 2963 2633 3030 
Q 2388 3097 2138 3097 
Q 1578 3097 1268 2742 
Q 959 2388 959 1747 
Q 959 1106 1268 751 
Q 1578 397 2138 397 
Q 2388 397 2633 464 
Q 2878 531 3122 666 
L 3122 134 
Q 2881 22 2623 -34 
Q 2366 -91 2075 -91 
Q 1284 -91 818 406 
Q 353 903 353 1747 
Q 353 2603 823 3093 
Q 1294 3584 2113 3584 
Q 2378 3584 2631 3529 
Q 2884 3475 3122 3366 
z
" transform="scale(0.015625)"/>
      </defs>
      <use xlink:href="#DejaVuSans-70"/>
      <use xlink:href="#DejaVuSans-72" x="63.476562"/>
      <use xlink:href="#DejaVuSans-65" x="102.339844"/>
      <use xlink:href="#DejaVuSans-64" x="163.863281"/>
      <use xlink:href="#DejaVuSans-69" x="227.339844"/>
      <use xlink:href="#DejaVuSans-63" x="255.123047"/>
      <use xlink:href="#DejaVuSans-74" x="310.103516"/>
      <use xlink:href="#DejaVuSans-65" x="349.3125"/>
      <use xlink:href="#DejaVuSans-64" x="410.835938"/>
     </g>
    </g>
   </g>
  </g>
 </g>
 <defs>
  <clipPath id="p2d75c9bbdd">
   <rect x="90" y="43.2" width="558" height="244.8"/>
  </clipPath>
 </defs>
</svg>
