<?xml version="1.0" encoding="utf-8" standalone="no"?>
<!DOCTYPE svg PUBLIC "-//W3C//DTD SVG 1.1//EN"
  "http://www.w3.org/Graphics/SVG/1.1/DTD/svg11.dtd">
<svg xmlns:xlink="http://www.w3.org/1999/xlink" width="720pt" height="360pt" viewBox="0 0 720 360" xmlns="http://www.w3.org/2000/svg" version="1.1">
 <metadata>
  <rdf:RDF xmlns:dc="http://purl.org/dc/elements/1.1/" xmlns:cc="http://creativecommons.org/ns#" xmlns:rdf="http://www.w3.org/1999/02/22-rdf-syntax-ns#">
   <cc:Work>
    <dc:type rdf:resource="http://purl.org/dc/dcmitype/StillImage"/>
    <dc:date>2023-10-23T10:53:26.799856</dc:date>
    <dc:format>image/svg+xml</dc:format>
    <dc:creator>
     <cc:Agent>
      <dc:title>Matplotlib v3.7.1, https://matplotlib.org/</dc:title>
     </cc:Agent>
    </dc:creator>
   </cc:Work>
  </rdf:RDF>
 </metadata>
 <defs>
  <style type="text/css">*{stroke-linejoin: round; stroke-linecap: butt}</style>
 </defs>
 <g id="figure_1">
  <g id="patch_1">
   <path d="M 0 360 
L 720 360 
L 720 0 
L 0 0 
z
" style="fill: #ffffff"/>
  </g>
  <g id="axes_1">
   <g id="patch_2">
    <path d="M 90 288 
L 648 288 
L 648 43.2 
L 90 43.2 
z
" style="fill: #ffffff"/>
   </g>
   <g id="matplotlib.axis_1">
    <g id="xtick_1">
     <g id="line2d_1">
      <defs>
       <path id="mad88970bb3" d="M 0 0 
L 0 3.5 
" style="stroke: #000000; stroke-width: 0.8"/>
      </defs>
      <g>
       <use xlink:href="#mad88970bb3" x="149.370747" y="288" style="stroke: #000000; stroke-width: 0.8"/>
      </g>
     </g>
     <g id="text_1">
      <!-- 2023-08-15 -->
      <g transform="translate(87.727405 337.765903) rotate(-30) scale(0.12 -0.12)">
       <defs>
        <path id="DejaVuSans-32" d="M 1228 531 
L 3431 531 
L 3431 0 
L 469 0 
L 469 531 
Q 828 903 1448 1529 
Q 2069 2156 2228 2338 
Q 2531 2678 2651 2914 
Q 2772 3150 2772 3378 
Q 2772 3750 2511 3984 
Q 2250 4219 1831 4219 
Q 1534 4219 1204 4116 
Q 875 4013 500 3803 
L 500 4441 
Q 881 4594 1212 4672 
Q 1544 4750 1819 4750 
Q 2544 4750 2975 4387 
Q 3406 4025 3406 3419 
Q 3406 3131 3298 2873 
Q 3191 2616 2906 2266 
Q 2828 2175 2409 1742 
Q 1991 1309 1228 531 
z
" transform="scale(0.015625)"/>
        <path id="DejaVuSans-30" d="M 2034 4250 
Q 1547 4250 1301 3770 
Q 1056 3291 1056 2328 
Q 1056 1369 1301 889 
Q 1547 409 2034 409 
Q 2525 409 2770 889 
Q 3016 1369 3016 2328 
Q 3016 3291 2770 3770 
Q 2525 4250 2034 4250 
z
M 2034 4750 
Q 2819 4750 3233 4129 
Q 3647 3509 3647 2328 
Q 3647 1150 3233 529 
Q 2819 -91 2034 -91 
Q 1250 -91 836 529 
Q 422 1150 422 2328 
Q 422 3509 836 4129 
Q 1250 4750 2034 4750 
z
" transform="scale(0.015625)"/>
        <path id="DejaVuSans-33" d="M 2597 2516 
Q 3050 2419 3304 2112 
Q 3559 1806 3559 1356 
Q 3559 666 3084 287 
Q 2609 -91 1734 -91 
Q 1441 -91 1130 -33 
Q 819 25 488 141 
L 488 750 
Q 750 597 1062 519 
Q 1375 441 1716 441 
Q 2309 441 2620 675 
Q 2931 909 2931 1356 
Q 2931 1769 2642 2001 
Q 2353 2234 1838 2234 
L 1294 2234 
L 1294 2753 
L 1863 2753 
Q 2328 2753 2575 2939 
Q 2822 3125 2822 3475 
Q 2822 3834 2567 4026 
Q 2313 4219 1838 4219 
Q 1578 4219 1281 4162 
Q 984 4106 628 3988 
L 628 4550 
Q 988 4650 1302 4700 
Q 1616 4750 1894 4750 
Q 2613 4750 3031 4423 
Q 3450 4097 3450 3541 
Q 3450 3153 3228 2886 
Q 3006 2619 2597 2516 
z
" transform="scale(0.015625)"/>
        <path id="DejaVuSans-2d" d="M 313 2009 
L 1997 2009 
L 1997 1497 
L 313 1497 
L 313 2009 
z
" transform="scale(0.015625)"/>
        <path id="DejaVuSans-38" d="M 2034 2216 
Q 1584 2216 1326 1975 
Q 1069 1734 1069 1313 
Q 1069 891 1326 650 
Q 1584 409 2034 409 
Q 2484 409 2743 651 
Q 3003 894 3003 1313 
Q 3003 1734 2745 1975 
Q 2488 2216 2034 2216 
z
M 1403 2484 
Q 997 2584 770 2862 
Q 544 3141 544 3541 
Q 544 4100 942 4425 
Q 1341 4750 2034 4750 
Q 2731 4750 3128 4425 
Q 3525 4100 3525 3541 
Q 3525 3141 3298 2862 
Q 3072 2584 2669 2484 
Q 3125 2378 3379 2068 
Q 3634 1759 3634 1313 
Q 3634 634 3220 271 
Q 2806 -91 2034 -91 
Q 1263 -91 848 271 
Q 434 634 434 1313 
Q 434 1759 690 2068 
Q 947 2378 1403 2484 
z
M 1172 3481 
Q 1172 3119 1398 2916 
Q 1625 2713 2034 2713 
Q 2441 2713 2670 2916 
Q 2900 3119 2900 3481 
Q 2900 3844 2670 4047 
Q 2441 4250 2034 4250 
Q 1625 4250 1398 4047 
Q 1172 3844 1172 3481 
z
" transform="scale(0.015625)"/>
        <path id="DejaVuSans-31" d="M 794 531 
L 1825 531 
L 1825 4091 
L 703 3866 
L 703 4441 
L 1819 4666 
L 2450 4666 
L 2450 531 
L 3481 531 
L 3481 0 
L 794 0 
L 794 531 
z
" transform="scale(0.015625)"/>
        <path id="DejaVuSans-35" d="M 691 4666 
L 3169 4666 
L 3169 4134 
L 1269 4134 
L 1269 2991 
Q 1406 3038 1543 3061 
Q 1681 3084 1819 3084 
Q 2600 3084 3056 2656 
Q 3513 2228 3513 1497 
Q 3513 744 3044 326 
Q 2575 -91 1722 -91 
Q 1428 -91 1123 -41 
Q 819 9 494 109 
L 494 744 
Q 775 591 1075 516 
Q 1375 441 1709 441 
Q 2250 441 2565 725 
Q 2881 1009 2881 1497 
Q 2881 1984 2565 2268 
Q 2250 2553 1709 2553 
Q 1456 2553 1204 2497 
Q 953 2441 691 2322 
L 691 4666 
z
" transform="scale(0.015625)"/>
       </defs>
       <use xlink:href="#DejaVuSans-32"/>
       <use xlink:href="#DejaVuSans-30" x="63.623047"/>
       <use xlink:href="#DejaVuSans-32" x="127.246094"/>
       <use xlink:href="#DejaVuSans-33" x="190.869141"/>
       <use xlink:href="#DejaVuSans-2d" x="254.492188"/>
       <use xlink:href="#DejaVuSans-30" x="290.576172"/>
       <use xlink:href="#DejaVuSans-38" x="354.199219"/>
       <use xlink:href="#DejaVuSans-2d" x="417.822266"/>
       <use xlink:href="#DejaVuSans-31" x="453.90625"/>
       <use xlink:href="#DejaVuSans-35" x="517.529297"/>
      </g>
     </g>
    </g>
    <g id="xtick_2">
     <g id="line2d_2">
      <g>
       <use xlink:href="#mad88970bb3" x="264.994921" y="288" style="stroke: #000000; stroke-width: 0.8"/>
      </g>
     </g>
     <g id="text_2">
      <!-- 2023-09-01 -->
      <g transform="translate(203.35158 337.765903) rotate(-30) scale(0.12 -0.12)">
       <defs>
        <path id="DejaVuSans-39" d="M 703 97 
L 703 672 
Q 941 559 1184 500 
Q 1428 441 1663 441 
Q 2288 441 2617 861 
Q 2947 1281 2994 2138 
Q 2813 1869 2534 1725 
Q 2256 1581 1919 1581 
Q 1219 1581 811 2004 
Q 403 2428 403 3163 
Q 403 3881 828 4315 
Q 1253 4750 1959 4750 
Q 2769 4750 3195 4129 
Q 3622 3509 3622 2328 
Q 3622 1225 3098 567 
Q 2575 -91 1691 -91 
Q 1453 -91 1209 -44 
Q 966 3 703 97 
z
M 1959 2075 
Q 2384 2075 2632 2365 
Q 2881 2656 2881 3163 
Q 2881 3666 2632 3958 
Q 2384 4250 1959 4250 
Q 1534 4250 1286 3958 
Q 1038 3666 1038 3163 
Q 1038 2656 1286 2365 
Q 1534 2075 1959 2075 
z
" transform="scale(0.015625)"/>
       </defs>
       <use xlink:href="#DejaVuSans-32"/>
       <use xlink:href="#DejaVuSans-30" x="63.623047"/>
       <use xlink:href="#DejaVuSans-32" x="127.246094"/>
       <use xlink:href="#DejaVuSans-33" x="190.869141"/>
       <use xlink:href="#DejaVuSans-2d" x="254.492188"/>
       <use xlink:href="#DejaVuSans-30" x="290.576172"/>
       <use xlink:href="#DejaVuSans-39" x="354.199219"/>
       <use xlink:href="#DejaVuSans-2d" x="417.822266"/>
       <use xlink:href="#DejaVuSans-30" x="453.90625"/>
       <use xlink:href="#DejaVuSans-31" x="517.529297"/>
      </g>
     </g>
    </g>
    <g id="xtick_3">
     <g id="line2d_3">
      <g>
       <use xlink:href="#mad88970bb3" x="360.21483" y="288" style="stroke: #000000; stroke-width: 0.8"/>
      </g>
     </g>
     <g id="text_3">
      <!-- 2023-09-15 -->
      <g transform="translate(298.571488 337.765903) rotate(-30) scale(0.12 -0.12)">
       <use xlink:href="#DejaVuSans-32"/>
       <use xlink:href="#DejaVuSans-30" x="63.623047"/>
       <use xlink:href="#DejaVuSans-32" x="127.246094"/>
       <use xlink:href="#DejaVuSans-33" x="190.869141"/>
       <use xlink:href="#DejaVuSans-2d" x="254.492188"/>
       <use xlink:href="#DejaVuSans-30" x="290.576172"/>
       <use xlink:href="#DejaVuSans-39" x="354.199219"/>
       <use xlink:href="#DejaVuSans-2d" x="417.822266"/>
       <use xlink:href="#DejaVuSans-31" x="453.90625"/>
       <use xlink:href="#DejaVuSans-35" x="517.529297"/>
      </g>
     </g>
    </g>
    <g id="xtick_4">
     <g id="line2d_4">
      <g>
       <use xlink:href="#mad88970bb3" x="469.037583" y="288" style="stroke: #000000; stroke-width: 0.8"/>
      </g>
     </g>
     <g id="text_4">
      <!-- 2023-10-01 -->
      <g transform="translate(407.394241 337.765903) rotate(-30) scale(0.12 -0.12)">
       <use xlink:href="#DejaVuSans-32"/>
       <use xlink:href="#DejaVuSans-30" x="63.623047"/>
       <use xlink:href="#DejaVuSans-32" x="127.246094"/>
       <use xlink:href="#DejaVuSans-33" x="190.869141"/>
       <use xlink:href="#DejaVuSans-2d" x="254.492188"/>
       <use xlink:href="#DejaVuSans-31" x="290.576172"/>
       <use xlink:href="#DejaVuSans-30" x="354.199219"/>
       <use xlink:href="#DejaVuSans-2d" x="417.822266"/>
       <use xlink:href="#DejaVuSans-30" x="453.90625"/>
       <use xlink:href="#DejaVuSans-31" x="517.529297"/>
      </g>
     </g>
    </g>
    <g id="xtick_5">
     <g id="line2d_5">
      <g>
       <use xlink:href="#mad88970bb3" x="564.257491" y="288" style="stroke: #000000; stroke-width: 0.8"/>
      </g>
     </g>
     <g id="text_5">
      <!-- 2023-10-15 -->
      <g transform="translate(502.614149 337.765903) rotate(-30) scale(0.12 -0.12)">
       <use xlink:href="#DejaVuSans-32"/>
       <use xlink:href="#DejaVuSans-30" x="63.623047"/>
       <use xlink:href="#DejaVuSans-32" x="127.246094"/>
       <use xlink:href="#DejaVuSans-33" x="190.869141"/>
       <use xlink:href="#DejaVuSans-2d" x="254.492188"/>
       <use xlink:href="#DejaVuSans-31" x="290.576172"/>
       <use xlink:href="#DejaVuSans-30" x="354.199219"/>
       <use xlink:href="#DejaVuSans-2d" x="417.822266"/>
       <use xlink:href="#DejaVuSans-31" x="453.90625"/>
       <use xlink:href="#DejaVuSans-35" x="517.529297"/>
      </g>
     </g>
    </g>
   </g>
   <g id="matplotlib.axis_2">
    <g id="ytick_1">
     <g id="line2d_6">
      <defs>
       <path id="m2ea328056b" d="M 0 0 
L -3.5 0 
" style="stroke: #000000; stroke-width: 0.8"/>
      </defs>
      <g>
       <use xlink:href="#m2ea328056b" x="90" y="282.185863" style="stroke: #000000; stroke-width: 0.8"/>
      </g>
     </g>
     <g id="text_6">
      <!-- −0.6 -->
      <g transform="translate(53.860625 286.744926) scale(0.12 -0.12)">
       <defs>
        <path id="DejaVuSans-2212" d="M 678 2272 
L 4684 2272 
L 4684 1741 
L 678 1741 
L 678 2272 
z
" transform="scale(0.015625)"/>
        <path id="DejaVuSans-2e" d="M 684 794 
L 1344 794 
L 1344 0 
L 684 0 
L 684 794 
z
" transform="scale(0.015625)"/>
        <path id="DejaVuSans-36" d="M 2113 2584 
Q 1688 2584 1439 2293 
Q 1191 2003 1191 1497 
Q 1191 994 1439 701 
Q 1688 409 2113 409 
Q 2538 409 2786 701 
Q 3034 994 3034 1497 
Q 3034 2003 2786 2293 
Q 2538 2584 2113 2584 
z
M 3366 4563 
L 3366 3988 
Q 3128 4100 2886 4159 
Q 2644 4219 2406 4219 
Q 1781 4219 1451 3797 
Q 1122 3375 1075 2522 
Q 1259 2794 1537 2939 
Q 1816 3084 2150 3084 
Q 2853 3084 3261 2657 
Q 3669 2231 3669 1497 
Q 3669 778 3244 343 
Q 2819 -91 2113 -91 
Q 1303 -91 875 529 
Q 447 1150 447 2328 
Q 447 3434 972 4092 
Q 1497 4750 2381 4750 
Q 2619 4750 2861 4703 
Q 3103 4656 3366 4563 
z
" transform="scale(0.015625)"/>
       </defs>
       <use xlink:href="#DejaVuSans-2212"/>
       <use xlink:href="#DejaVuSans-30" x="83.789062"/>
       <use xlink:href="#DejaVuSans-2e" x="147.412109"/>
       <use xlink:href="#DejaVuSans-36" x="179.199219"/>
      </g>
     </g>
    </g>
    <g id="ytick_2">
     <g id="line2d_7">
      <g>
       <use xlink:href="#m2ea328056b" x="90" y="253.213745" style="stroke: #000000; stroke-width: 0.8"/>
      </g>
     </g>
     <g id="text_7">
      <!-- −0.4 -->
      <g transform="translate(53.860625 257.772808) scale(0.12 -0.12)">
       <defs>
        <path id="DejaVuSans-34" d="M 2419 4116 
L 825 1625 
L 2419 1625 
L 2419 4116 
z
M 2253 4666 
L 3047 4666 
L 3047 1625 
L 3713 1625 
L 3713 1100 
L 3047 1100 
L 3047 0 
L 2419 0 
L 2419 1100 
L 313 1100 
L 313 1709 
L 2253 4666 
z
" transform="scale(0.015625)"/>
       </defs>
       <use xlink:href="#DejaVuSans-2212"/>
       <use xlink:href="#DejaVuSans-30" x="83.789062"/>
       <use xlink:href="#DejaVuSans-2e" x="147.412109"/>
       <use xlink:href="#DejaVuSans-34" x="179.199219"/>
      </g>
     </g>
    </g>
    <g id="ytick_3">
     <g id="line2d_8">
      <g>
       <use xlink:href="#m2ea328056b" x="90" y="224.241627" style="stroke: #000000; stroke-width: 0.8"/>
      </g>
     </g>
     <g id="text_8">
      <!-- −0.2 -->
      <g transform="translate(53.860625 228.80069) scale(0.12 -0.12)">
       <use xlink:href="#DejaVuSans-2212"/>
       <use xlink:href="#DejaVuSans-30" x="83.789062"/>
       <use xlink:href="#DejaVuSans-2e" x="147.412109"/>
       <use xlink:href="#DejaVuSans-32" x="179.199219"/>
      </g>
     </g>
    </g>
    <g id="ytick_4">
     <g id="line2d_9">
      <g>
       <use xlink:href="#m2ea328056b" x="90" y="195.269509" style="stroke: #000000; stroke-width: 0.8"/>
      </g>
     </g>
     <g id="text_9">
      <!-- 0.0 -->
      <g transform="translate(63.91625 199.828571) scale(0.12 -0.12)">
       <use xlink:href="#DejaVuSans-30"/>
       <use xlink:href="#DejaVuSans-2e" x="63.623047"/>
       <use xlink:href="#DejaVuSans-30" x="95.410156"/>
      </g>
     </g>
    </g>
    <g id="ytick_5">
     <g id="line2d_10">
      <g>
       <use xlink:href="#m2ea328056b" x="90" y="166.297391" style="stroke: #000000; stroke-width: 0.8"/>
      </g>
     </g>
     <g id="text_10">
      <!-- 0.2 -->
      <g transform="translate(63.91625 170.856453) scale(0.12 -0.12)">
       <use xlink:href="#DejaVuSans-30"/>
       <use xlink:href="#DejaVuSans-2e" x="63.623047"/>
       <use xlink:href="#DejaVuSans-32" x="95.410156"/>
      </g>
     </g>
    </g>
    <g id="ytick_6">
     <g id="line2d_11">
      <g>
       <use xlink:href="#m2ea328056b" x="90" y="137.325273" style="stroke: #000000; stroke-width: 0.8"/>
      </g>
     </g>
     <g id="text_11">
      <!-- 0.4 -->
      <g transform="translate(63.91625 141.884335) scale(0.12 -0.12)">
       <use xlink:href="#DejaVuSans-30"/>
       <use xlink:href="#DejaVuSans-2e" x="63.623047"/>
       <use xlink:href="#DejaVuSans-34" x="95.410156"/>
      </g>
     </g>
    </g>
    <g id="ytick_7">
     <g id="line2d_12">
      <g>
       <use xlink:href="#m2ea328056b" x="90" y="108.353155" style="stroke: #000000; stroke-width: 0.8"/>
      </g>
     </g>
     <g id="text_12">
      <!-- 0.6 -->
      <g transform="translate(63.91625 112.912217) scale(0.12 -0.12)">
       <use xlink:href="#DejaVuSans-30"/>
       <use xlink:href="#DejaVuSans-2e" x="63.623047"/>
       <use xlink:href="#DejaVuSans-36" x="95.410156"/>
      </g>
     </g>
    </g>
    <g id="ytick_8">
     <g id="line2d_13">
      <g>
       <use xlink:href="#m2ea328056b" x="90" y="79.381037" style="stroke: #000000; stroke-width: 0.8"/>
      </g>
     </g>
     <g id="text_13">
      <!-- 0.8 -->
      <g transform="translate(63.91625 83.940099) scale(0.12 -0.12)">
       <use xlink:href="#DejaVuSans-30"/>
       <use xlink:href="#DejaVuSans-2e" x="63.623047"/>
       <use xlink:href="#DejaVuSans-38" x="95.410156"/>
      </g>
     </g>
    </g>
    <g id="ytick_9">
     <g id="line2d_14">
      <g>
       <use xlink:href="#m2ea328056b" x="90" y="50.408918" style="stroke: #000000; stroke-width: 0.8"/>
      </g>
     </g>
     <g id="text_14">
      <!-- 1.0 -->
      <g transform="translate(63.91625 54.967981) scale(0.12 -0.12)">
       <use xlink:href="#DejaVuSans-31"/>
       <use xlink:href="#DejaVuSans-2e" x="63.623047"/>
       <use xlink:href="#DejaVuSans-30" x="95.410156"/>
      </g>
     </g>
    </g>
    <g id="text_15">
     <!-- Meters -->
     <g transform="translate(47.780937 182.6875) rotate(-90) scale(0.1 -0.1)">
      <defs>
       <path id="DejaVuSans-4d" d="M 628 4666 
L 1569 4666 
L 2759 1491 
L 3956 4666 
L 4897 4666 
L 4897 0 
L 4281 0 
L 4281 4097 
L 3078 897 
L 2444 897 
L 1241 4097 
L 1241 0 
L 628 0 
L 628 4666 
z
" transform="scale(0.015625)"/>
       <path id="DejaVuSans-65" d="M 3597 1894 
L 3597 1613 
L 953 1613 
Q 991 1019 1311 708 
Q 1631 397 2203 397 
Q 2534 397 2845 478 
Q 3156 559 3463 722 
L 3463 178 
Q 3153 47 2828 -22 
Q 2503 -91 2169 -91 
Q 1331 -91 842 396 
Q 353 884 353 1716 
Q 353 2575 817 3079 
Q 1281 3584 2069 3584 
Q 2775 3584 3186 3129 
Q 3597 2675 3597 1894 
z
M 3022 2063 
Q 3016 2534 2758 2815 
Q 2500 3097 2075 3097 
Q 1594 3097 1305 2825 
Q 1016 2553 972 2059 
L 3022 2063 
z
" transform="scale(0.015625)"/>
       <path id="DejaVuSans-74" d="M 1172 4494 
L 1172 3500 
L 2356 3500 
L 2356 3053 
L 1172 3053 
L 1172 1153 
Q 1172 725 1289 603 
Q 1406 481 1766 481 
L 2356 481 
L 2356 0 
L 1766 0 
Q 1100 0 847 248 
Q 594 497 594 1153 
L 594 3053 
L 172 3053 
L 172 3500 
L 594 3500 
L 594 4494 
L 1172 4494 
z
" transform="scale(0.015625)"/>
       <path id="DejaVuSans-72" d="M 2631 2963 
Q 2534 3019 2420 3045 
Q 2306 3072 2169 3072 
Q 1681 3072 1420 2755 
Q 1159 2438 1159 1844 
L 1159 0 
L 581 0 
L 581 3500 
L 1159 3500 
L 1159 2956 
Q 1341 3275 1631 3429 
Q 1922 3584 2338 3584 
Q 2397 3584 2469 3576 
Q 2541 3569 2628 3553 
L 2631 2963 
z
" transform="scale(0.015625)"/>
       <path id="DejaVuSans-73" d="M 2834 3397 
L 2834 2853 
Q 2591 2978 2328 3040 
Q 2066 3103 1784 3103 
Q 1356 3103 1142 2972 
Q 928 2841 928 2578 
Q 928 2378 1081 2264 
Q 1234 2150 1697 2047 
L 1894 2003 
Q 2506 1872 2764 1633 
Q 3022 1394 3022 966 
Q 3022 478 2636 193 
Q 2250 -91 1575 -91 
Q 1294 -91 989 -36 
Q 684 19 347 128 
L 347 722 
Q 666 556 975 473 
Q 1284 391 1588 391 
Q 1994 391 2212 530 
Q 2431 669 2431 922 
Q 2431 1156 2273 1281 
Q 2116 1406 1581 1522 
L 1381 1569 
Q 847 1681 609 1914 
Q 372 2147 372 2553 
Q 372 3047 722 3315 
Q 1072 3584 1716 3584 
Q 2034 3584 2315 3537 
Q 2597 3491 2834 3397 
z
" transform="scale(0.015625)"/>
      </defs>
      <use xlink:href="#DejaVuSans-4d"/>
      <use xlink:href="#DejaVuSans-65" x="86.279297"/>
      <use xlink:href="#DejaVuSans-74" x="147.802734"/>
      <use xlink:href="#DejaVuSans-65" x="187.011719"/>
      <use xlink:href="#DejaVuSans-72" x="248.535156"/>
      <use xlink:href="#DejaVuSans-73" x="289.648438"/>
     </g>
    </g>
   </g>
   <g id="line2d_15">
    <path d="M 115.363636 186.174593 
L 116.213814 190.219996 
L 117.063992 194.540564 
L 118.197562 199.850759 
L 118.764347 201.805877 
L 120.18131 205.860935 
L 120.464703 205.933346 
L 120.748095 205.740248 
L 121.031488 206.005758 
L 121.314881 205.981621 
L 121.598273 205.305778 
L 122.165058 206.126444 
L 122.448451 206.681601 
L 122.731844 208.129836 
L 123.298629 206.971248 
L 123.582021 207.140209 
L 124.148807 208.516032 
L 124.715592 206.464366 
L 124.998984 206.464366 
L 125.565769 205.643699 
L 125.849162 205.474739 
L 126.132555 205.81266 
L 126.415947 206.391954 
L 126.69934 206.367817 
L 126.982732 206.657464 
L 127.266125 206.536778 
L 127.549518 206.126444 
L 127.83291 206.464366 
L 128.116303 187.90282 
L 128.399695 189.206232 
L 129.533266 157.393335 
L 130.100051 145.131611 
L 130.666836 136.924946 
L 131.233621 131.759574 
L 131.800406 128.621731 
L 132.367191 127.004536 
L 132.650584 126.739026 
L 132.933977 126.811438 
L 134.067547 129.225163 
L 134.634332 131.300966 
L 135.48451 134.245711 
L 139.452006 153.000355 
L 139.735399 154.207218 
L 140.585576 159.420864 
L 141.435754 163.862118 
L 142.569325 169.220588 
L 144.26968 177.668626 
L 147.670391 193.188878 
L 148.237176 195.023309 
L 148.803961 197.002564 
L 149.087354 198.35425 
L 149.370747 191.354447 
L 149.937532 186.623546 
L 150.220924 183.871899 
L 150.504317 179.744429 
L 150.787709 173.468744 
L 151.071102 159.903609 
L 151.92128 109.094695 
L 152.488065 93.960639 
L 152.771458 89.278012 
L 153.05485 90.122816 
L 153.621635 93.646855 
L 154.471813 99.560481 
L 155.605383 105.932715 
L 158.439309 118.870282 
L 159.57288 121.621929 
L 160.139665 122.804654 
L 160.989843 126.497653 
L 161.84002 129.297574 
L 163.540376 135.911181 
L 164.957339 141.945494 
L 166.090909 146.917768 
L 166.941087 150.490081 
L 167.791265 154.255492 
L 170.058405 107.356813 
L 170.341798 105.305147 
L 170.62519 104.460343 
L 170.908583 104.556892 
L 171.475368 106.222362 
L 172.892331 111.798067 
L 173.459116 113.632499 
L 174.309294 116.963439 
L 175.159472 120.535752 
L 175.726257 121.863301 
L 176.00965 122.539144 
L 178.27679 131.518202 
L 179.410361 136.418063 
L 180.827324 142.259278 
L 181.960894 148.39014 
L 182.527679 150.683179 
L 185.644997 164.827608 
L 186.495175 168.689568 
L 187.345353 171.92396 
L 189.329101 181.337488 
L 189.612494 182.182291 
L 190.462671 186.575271 
L 191.029457 188.699349 
L 191.312849 190.147584 
L 191.596242 190.895839 
L 192.163027 193.599211 
L 192.729812 196.326721 
L 194.71356 203.278249 
L 195.563738 203.592033 
L 196.130523 203.254112 
L 197.264093 203.326523 
L 197.547486 203.205837 
L 198.114271 203.543759 
L 198.681056 203.736857 
L 198.964449 203.44721 
L 199.247842 203.543759 
L 199.814627 203.374798 
L 200.098019 203.44721 
L 200.381412 203.109288 
L 200.664804 203.061014 
L 201.23159 203.471347 
L 201.514982 203.736857 
L 202.36516 203.809268 
L 202.648553 204.002366 
L 202.931945 203.712719 
L 203.49873 203.664445 
L 203.782123 203.857543 
L 204.065515 203.398935 
L 204.632301 203.471347 
L 204.915693 203.350661 
L 205.199086 203.374798 
L 205.482478 203.61617 
L 206.049264 203.157563 
L 206.616049 203.350661 
L 206.899441 203.229974 
L 207.749619 203.278249 
L 208.033012 202.771367 
L 208.599797 203.302386 
L 208.883189 203.157563 
L 209.166582 203.423072 
L 209.449975 203.519621 
L 209.733367 202.940327 
L 210.01676 202.65068 
L 210.300152 202.529994 
L 210.583545 203.254112 
L 210.866938 203.254112 
L 211.15033 203.567896 
L 211.717115 202.91619 
L 212.000508 202.771367 
L 212.2839 203.229974 
L 212.567293 187.830408 
L 213.134078 102.987971 
L 213.417471 56.258253 
L 213.700863 54.327273 
L 215.117826 54.327273 
L 215.401219 56.716861 
L 215.968004 68.833761 
L 216.534789 75.809426 
L 217.101574 80.709288 
L 217.66836 83.895405 
L 217.951752 82.205798 
L 218.235145 66.564859 
L 218.518537 64.320095 
L 218.80193 68.085506 
L 219.652108 74.747387 
L 220.218893 80.7817 
L 221.635856 92.512404 
L 222.202641 96.519188 
L 222.769426 100.405285 
L 223.619604 105.087912 
L 224.469782 108.732637 
L 225.603352 112.425636 
L 227.303707 116.335871 
L 227.5871 116.528969 
L 230.137633 121.549517 
L 230.704418 122.297772 
L 230.987811 123.070164 
L 231.271204 123.504634 
L 234.955307 135.30775 
L 235.805485 139.652455 
L 236.655663 143.683376 
L 237.222448 145.686768 
L 241.189944 163.886255 
L 241.756729 166.56549 
L 242.323514 169.630921 
L 243.173692 174.530783 
L 244.874048 181.047841 
L 246.007618 186.020114 
L 247.991366 193.623348 
L 248.274759 194.250917 
L 249.691722 199.102504 
L 250.825292 201.443818 
L 251.392077 202.119661 
L 251.67547 201.805877 
L 251.958862 200.188681 
L 252.242255 201.636916 
L 252.525648 202.21621 
L 252.80904 203.1817 
L 253.092433 276.872727 
L 253.375825 202.095524 
L 253.659218 202.385171 
L 253.94261 202.240347 
L 254.792788 202.385171 
L 255.359573 202.361033 
L 255.926359 202.529994 
L 256.209751 203.1817 
L 256.493144 203.350661 
L 256.776536 203.712719 
L 257.059929 203.326523 
L 257.343321 202.626543 
L 257.626714 202.554131 
L 258.193499 203.374798 
L 258.760284 203.061014 
L 259.043677 203.157563 
L 259.32707 203.061014 
L 259.610462 203.229974 
L 260.177247 203.085151 
L 260.46064 203.133425 
L 260.744033 202.867916 
L 261.027425 203.061014 
L 261.59421 202.674818 
L 261.877603 202.361033 
L 262.160995 202.361033 
L 262.727781 203.229974 
L 263.577958 204.629935 
L 264.144744 203.736857 
L 264.428136 203.495484 
L 264.994921 203.809268 
L 265.278314 203.760994 
L 266.411884 202.964465 
L 266.695277 203.61617 
L 266.978669 203.398935 
L 267.262062 203.350661 
L 267.545455 203.109288 
L 267.828847 203.157563 
L 268.11224 203.012739 
L 268.679025 202.143798 
L 268.962417 202.264484 
L 269.529203 203.109288 
L 270.37938 204.364425 
L 270.946166 203.519621 
L 271.229558 203.278249 
L 271.512951 203.302386 
L 271.796343 203.519621 
L 272.363128 203.495484 
L 272.646521 203.326523 
L 272.929914 203.592033 
L 273.213306 203.640308 
L 273.496699 203.302386 
L 273.780091 203.471347 
L 274.063484 203.495484 
L 274.346877 203.157563 
L 274.913662 203.254112 
L 275.197054 202.674818 
L 275.76384 202.240347 
L 276.047232 202.336896 
L 276.330625 202.578269 
L 276.89741 203.495484 
L 277.180802 203.374798 
L 277.747588 202.723092 
L 278.03098 202.771367 
L 278.881158 203.157563 
L 279.164551 203.036876 
L 279.447943 203.254112 
L 279.731336 203.1817 
L 280.298121 202.747229 
L 280.581513 203.036876 
L 280.864906 203.036876 
L 281.431691 202.674818 
L 281.715084 202.771367 
L 282.281869 202.385171 
L 282.565262 202.047249 
L 282.848654 202.071386 
L 283.698832 203.205837 
L 283.982224 203.278249 
L 284.265617 203.109288 
L 284.54901 202.698955 
L 284.832402 202.626543 
L 285.68258 203.061014 
L 286.532758 202.819641 
L 286.81615 202.795504 
L 287.099543 202.892053 
L 287.382936 202.747229 
L 288.799898 202.674818 
L 289.083291 202.457582 
L 289.366684 202.095524 
L 289.650076 201.974837 
L 290.216861 202.867916 
L 290.500254 202.795504 
L 290.783647 203.109288 
L 291.067039 202.723092 
L 291.350432 202.578269 
L 291.633824 202.747229 
L 291.917217 202.771367 
L 292.200609 203.133425 
L 292.484002 203.1817 
L 293.33418 202.940327 
L 293.617572 202.723092 
L 295.034535 202.505857 
L 296.451498 201.51623 
L 296.734891 201.733465 
L 297.018283 202.119661 
L 297.585069 202.48172 
L 297.868461 202.240347 
L 298.151854 202.771367 
L 298.435246 202.143798 
L 298.718639 202.529994 
L 299.002031 202.433445 
L 299.285424 202.119661 
L 299.568817 202.433445 
L 299.852209 202.554131 
L 300.418994 202.288622 
L 301.552565 202.288622 
L 301.835957 202.119661 
L 302.11935 202.192073 
L 302.402743 201.854151 
L 302.969528 202.071386 
L 303.25292 202.071386 
L 303.536313 200.309367 
L 303.819705 200.309367 
L 304.103098 202.095524 
L 304.386491 201.902426 
L 304.669883 202.240347 
L 304.953276 202.167935 
L 305.236668 202.795504 
L 305.803454 202.21621 
L 306.086846 202.626543 
L 306.653631 202.674818 
L 306.937024 202.65068 
L 307.220416 202.505857 
L 307.787202 202.843778 
L 308.070594 202.698955 
L 308.637379 202.795504 
L 309.204165 202.65068 
L 309.487557 202.698955 
L 309.77095 202.48172 
L 310.621127 202.771367 
L 310.90452 203.254112 
L 311.187913 203.012739 
L 311.471305 203.254112 
L 312.321483 203.036876 
L 312.604876 202.988602 
L 312.888268 203.061014 
L 313.171661 203.278249 
L 313.455053 203.278249 
L 313.738446 203.398935 
L 314.305231 203.374798 
L 314.588624 203.374798 
L 314.872016 203.229974 
L 316.572372 203.267904 
L 316.855764 203.592033 
L 317.139157 203.44721 
L 318.839512 203.495484 
L 319.406298 203.350661 
L 320.256475 203.471347 
L 320.823261 203.302386 
L 321.106653 203.44721 
L 321.390046 203.44721 
L 321.673438 203.109288 
L 323.090401 203.205837 
L 323.657186 203.519621 
L 323.940579 203.471347 
L 324.507364 203.88168 
L 325.074149 203.857543 
L 325.640934 203.44721 
L 325.924327 203.398935 
L 326.20772 203.471347 
L 326.774505 203.1817 
L 327.057897 203.592033 
L 327.624683 203.495484 
L 328.191468 203.1817 
L 328.47486 203.592033 
L 329.325038 203.44721 
L 329.891823 202.674818 
L 330.742001 203.664445 
L 331.308786 204.436837 
L 331.592179 204.605798 
L 332.158964 203.712719 
L 333.292534 203.519621 
L 333.575927 203.350661 
L 333.859319 203.326523 
L 334.142712 203.640308 
L 334.709497 203.664445 
L 334.99289 203.760994 
L 336.12646 203.471347 
L 336.693245 202.698955 
L 336.976638 202.988602 
L 337.26003 203.036876 
L 337.826816 203.688582 
L 338.110208 203.929955 
L 338.393601 203.640308 
L 339.243779 203.44721 
L 339.527171 203.61617 
L 339.810564 203.254112 
L 343.211275 195.409505 
L 343.77806 182.423664 
L 344.344845 173.685979 
L 344.91163 168.23096 
L 345.478415 164.706922 
L 346.045201 162.631118 
L 346.611986 161.496667 
L 347.462164 160.917373 
L 347.745556 160.796687 
L 349.162519 161.689765 
L 349.729304 162.341471 
L 350.012697 162.17251 
L 350.296089 162.341471 
L 350.862875 163.282824 
L 351.42966 164.851745 
L 351.713052 164.996569 
L 352.56323 166.493078 
L 352.846623 166.951686 
L 354.546978 170.886058 
L 356.530726 175.496273 
L 357.097511 175.954881 
L 357.664297 177.741037 
L 358.514474 181.096115 
L 358.797867 181.216801 
L 359.364652 182.302978 
L 360.21483 184.451193 
L 361.631793 187.63731 
L 362.481971 189.447604 
L 363.332148 191.113074 
L 363.615541 191.185486 
L 363.898933 191.378584 
L 364.465719 193.068192 
L 365.315896 195.699152 
L 365.599289 196.254309 
L 365.882682 196.519819 
L 366.449467 197.943916 
L 369 202.505857 
L 369.283393 202.964465 
L 369.850178 204.098915 
L 370.13357 204.002366 
L 370.416963 205.160954 
L 370.700356 203.785131 
L 370.983748 203.374798 
L 371.833926 204.654072 
L 372.117318 204.58166 
L 372.400711 204.774758 
L 372.684104 204.316151 
L 373.250889 204.460974 
L 373.817674 204.509249 
L 374.384459 204.026504 
L 374.667852 203.954092 
L 374.951244 204.098915 
L 375.801422 204.074778 
L 376.084815 204.243739 
L 376.934992 204.243739 
L 377.501778 203.785131 
L 378.068563 203.88168 
L 378.351955 204.460974 
L 378.91874 204.871307 
L 380.052311 204.388562 
L 380.335703 204.316151 
L 380.902489 204.364425 
L 381.185881 204.14719 
L 381.752666 204.485111 
L 382.036059 204.629935 
L 382.319451 204.195464 
L 382.886237 204.292013 
L 383.453022 204.14719 
L 384.586592 203.929955 
L 384.869985 203.374798 
L 385.153377 204.267876 
L 385.43677 206.198856 
L 386.003555 204.678209 
L 386.286948 205.81266 
L 386.57034 206.029895 
L 386.853733 206.560915 
L 387.137125 206.802288 
L 387.420518 208.805679 
L 387.703911 205.957484 
L 387.987303 205.957484 
L 388.554088 206.633327 
L 389.120874 205.691974 
L 389.687659 206.464366 
L 389.971051 206.440229 
L 390.254444 206.222993 
L 390.537836 206.271268 
L 391.104622 205.450601 
L 391.388014 205.450601 
L 391.671407 205.667837 
L 392.238192 206.585052 
L 392.804977 206.464366 
L 393.08837 206.271268 
L 393.938547 206.198856 
L 394.788725 206.150582 
L 395.35551 206.029895 
L 396.205688 206.029895 
L 397.055866 205.402327 
L 397.339259 205.281641 
L 397.622651 204.871307 
L 397.906044 205.474739 
L 398.189436 205.474739 
L 398.756221 205.885072 
L 399.039614 205.595425 
L 399.606399 206.729876 
L 400.173184 206.198856 
L 400.73997 206.102307 
L 401.306755 205.860935 
L 401.590147 206.174719 
L 401.87354 206.174719 
L 402.440325 206.029895 
L 403.00711 205.981621 
L 404.140681 205.885072 
L 404.707466 205.185092 
L 405.274251 205.11268 
L 405.557643 205.571288 
L 405.841036 206.247131 
L 406.407821 206.874699 
L 406.974606 206.198856 
L 407.257999 206.029895 
L 407.541392 206.34368 
L 407.824784 206.391954 
L 408.391569 205.81266 
L 409.52514 205.716111 
L 410.65871 205.619562 
L 410.942103 205.619562 
L 411.508888 204.967856 
L 412.359066 205.716111 
L 412.925851 206.60919 
L 413.209243 206.560915 
L 414.059421 205.81266 
L 414.626206 206.029895 
L 415.476384 205.957484 
L 416.893347 205.788523 
L 417.176739 205.860935 
L 417.743525 205.740248 
L 418.026917 205.498876 
L 418.31031 205.040268 
L 418.593702 204.919582 
L 419.44388 206.440229 
L 419.727273 206.826425 
L 420.010665 206.922974 
L 420.294058 206.367817 
L 420.860843 206.222993 
L 421.144236 206.391954 
L 421.427628 206.705739 
L 421.994413 205.836797 
L 422.277806 205.716111 
L 422.561199 205.740248 
L 422.844591 205.474739 
L 423.127984 205.81266 
L 423.694769 205.595425 
L 424.261554 206.005758 
L 425.111732 205.185092 
L 425.395124 205.160954 
L 425.678517 205.257503 
L 425.96191 205.909209 
L 426.245302 206.174719 
L 426.812087 207.067797 
L 427.378873 205.909209 
L 427.945658 205.885072 
L 428.22905 205.571288 
L 428.512443 205.716111 
L 429.079228 205.691974 
L 429.929406 205.450601 
L 433.613509 205.764386 
L 433.896902 205.619562 
L 434.180295 205.764386 
L 435.030472 205.474739 
L 435.313865 205.354052 
L 435.88065 205.595425 
L 436.164043 205.354052 
L 436.447435 205.281641 
L 436.730828 205.329915 
L 437.01422 205.498876 
L 437.864398 205.498876 
L 438.714576 205.185092 
L 438.997969 205.233366 
L 439.564754 205.595425 
L 439.848146 204.823033 
L 440.981717 205.933346 
L 441.265109 205.619562 
L 441.548502 205.474739 
L 442.682072 205.474739 
L 443.248857 205.305778 
L 444.099035 205.402327 
L 444.382428 205.667837 
L 444.66582 206.102307 
L 444.949213 205.571288 
L 445.232605 205.402327 
L 445.799391 205.450601 
L 446.366176 205.619562 
L 447.216353 205.981621 
L 447.499746 205.981621 
L 447.783139 206.391954 
L 448.066531 205.740248 
L 448.349924 205.426464 
L 448.633316 204.605798 
L 448.916709 202.988602 
L 449.200102 195.578466 
L 449.483494 193.309564 
L 449.766887 188.506251 
L 450.050279 189.157957 
L 450.333672 179.189272 
L 450.900457 139.604181 
L 451.467242 99.801854 
L 451.750635 90.943483 
L 452.034027 87.371169 
L 452.31742 86.960836 
L 452.600813 87.902189 
L 454.301168 104.894814 
L 455.151346 110.011911 
L 456.001524 113.584224 
L 457.135094 116.891027 
L 457.985272 118.725458 
L 459.118842 120.535752 
L 460.535805 122.92534 
L 461.385983 125.097693 
L 462.23616 127.970026 
L 464.786694 138.928338 
L 465.353479 141.390337 
L 466.770442 147.666022 
L 467.337227 150.900414 
L 467.62062 152.614159 
L 468.470797 155.848551 
L 469.604368 160.796687 
L 472.438294 172.768764 
L 472.721686 173.396332 
L 473.571864 177.330704 
L 474.422042 181.989193 
L 474.988827 183.533978 
L 478.106145 195.071584 
L 478.67293 196.978426 
L 479.239716 198.305975 
L 479.523108 198.692171 
L 480.089893 200.309367 
L 481.223464 205.305778 
L 481.506856 205.233366 
L 482.073641 206.681601 
L 482.357034 206.07817 
L 483.207212 206.005758 
L 483.490604 205.836797 
L 484.05739 206.174719 
L 484.907567 206.198856 
L 485.19096 206.054033 
L 485.474352 206.102307 
L 485.757745 206.029895 
L 486.041138 205.81266 
L 486.32453 205.11268 
L 486.607923 205.064405 
L 486.891315 205.233366 
L 487.174708 205.764386 
L 488.024886 207.912601 
L 488.591671 207.260895 
L 488.875063 208.371209 
L 489.441849 207.622954 
L 489.725241 207.57468 
L 490.008634 207.04366 
L 490.292026 206.874699 
L 490.575419 207.333307 
L 490.858812 207.260895 
L 491.425597 207.333307 
L 491.708989 207.260895 
L 492.275775 207.598817 
L 492.84256 207.30917 
L 493.125952 207.091935 
L 493.97613 207.719503 
L 494.259523 208.178111 
L 494.542915 208.998777 
L 495.1097 208.467758 
L 495.393093 208.660856 
L 495.676486 209.095326 
L 495.959878 209.216013 
L 496.526663 208.00915 
L 496.810056 208.733268 
L 497.376841 208.516032 
L 497.660234 208.805679 
L 497.943626 208.926366 
L 498.227019 208.636719 
L 498.510411 208.733268 
L 498.793804 208.54017 
L 499.077197 207.936738 
L 499.360589 207.840189 
L 499.643982 207.285033 
L 499.927374 206.995386 
L 500.210767 206.874699 
L 500.494159 206.585052 
L 501.060945 206.440229 
L 501.344337 202.771367 
L 501.911122 185.175311 
L 502.194515 184.644291 
L 502.7613 146.435023 
L 503.328085 105.44997 
L 503.611478 94.274423 
L 503.89487 88.360797 
L 504.178263 86.84015 
L 504.461656 87.27462 
L 504.745048 88.457346 
L 505.595226 95.384737 
L 506.445404 101.539736 
L 507.295582 105.932715 
L 508.145759 109.191244 
L 508.712544 111.098087 
L 509.27933 112.087714 
L 509.562722 112.835969 
L 509.846115 113.029067 
L 510.129507 112.908381 
L 510.4129 113.149754 
L 510.696293 113.608361 
L 510.979685 113.825597 
L 511.263078 114.380753 
L 512.963433 116.16691 
L 513.530218 116.408282 
L 513.813611 116.60138 
L 514.097004 117.084125 
L 514.380396 117.228949 
L 514.663789 117.735831 
L 514.947181 117.759968 
L 515.513966 118.339262 
L 515.797359 118.266851 
L 516.080752 118.3634 
L 524.582529 124.566673 
L 525.149314 125.290791 
L 525.999492 126.111457 
L 526.566277 126.521791 
L 527.133062 127.173496 
L 527.416455 127.125222 
L 528.266633 128.670006 
L 528.833418 129.080339 
L 529.116811 129.418261 
L 529.400203 129.369986 
L 529.683596 129.442398 
L 529.966988 129.707908 
L 530.250381 130.335476 
L 531.383951 131.107868 
L 531.667344 131.156143 
L 531.950736 131.349241 
L 532.234129 131.928535 
L 532.800914 132.483692 
L 533.084307 132.387143 
L 533.367699 132.700927 
L 533.651092 132.604378 
L 533.934485 132.773339 
L 534.217877 133.207809 
L 534.50127 133.352633 
L 535.918233 134.752593 
L 536.201625 134.77673 
L 536.76841 135.30775 
L 537.051803 135.404299 
L 537.618588 135.790495 
L 537.901981 135.911181 
L 538.185373 136.200828 
L 539.602336 136.900809 
L 540.169121 137.23873 
L 540.452514 137.407691 
L 540.735907 137.383554 
L 541.586084 138.107671 
L 541.869477 138.73524 
L 542.436262 139.073161 
L 542.719655 139.049024 
L 543.28644 139.797279 
L 544.986795 140.569671 
L 545.55358 140.738631 
L 545.836973 140.907592 
L 546.120366 141.221376 
L 546.403758 141.3662 
L 546.687151 141.317925 
L 546.970543 141.583435 
L 547.820721 141.945494 
L 550.371254 144.093709 
L 550.654647 143.99716 
L 550.93804 144.045435 
L 551.788217 144.938513 
L 552.355003 145.131611 
L 552.638395 145.204023 
L 552.921788 145.421258 
L 553.20518 145.49367 
L 553.488573 145.75918 
L 553.771965 145.75918 
L 554.338751 146.19365 
L 554.905536 146.217787 
L 555.188928 146.555709 
L 555.755714 146.652258 
L 556.039106 147.15914 
L 556.322499 147.110866 
L 557.172676 147.69016 
L 557.456069 147.617748 
L 558.022854 147.907395 
L 559.439817 146.89363 
L 559.72321 145.783317 
L 561.706958 134.028476 
L 562.557136 130.118241 
L 563.407313 117.325498 
L 563.690706 115.297969 
L 564.257491 113.00493 
L 564.824276 111.387734 
L 565.391061 110.784303 
L 565.957847 110.856715 
L 566.524632 111.677381 
L 567.091417 112.642871 
L 567.658202 113.632499 
L 567.941595 113.898008 
L 569.358558 116.335871 
L 569.64195 116.480694 
L 570.208735 117.228949 
L 571.058913 118.122027 
L 573.042661 119.232341 
L 573.326054 119.304753 
L 573.609446 119.546125 
L 574.176232 119.690949 
L 575.309802 120.221968 
L 575.593195 120.535752 
L 575.876587 120.632301 
L 576.15998 121.066772 
L 576.726765 121.211595 
L 577.010157 121.235733 
L 579.277298 122.466732 
L 580.127476 122.804654 
L 580.694261 123.118438 
L 580.977654 123.142575 
L 581.261046 123.432222 
L 581.827831 123.721869 
L 582.678009 124.252889 
L 583.244794 124.566673 
L 583.811579 125.145967 
L 584.094972 125.483889 
L 584.378365 125.314928 
L 584.661757 125.339065 
L 585.795328 126.35283 
L 586.07872 126.376967 
L 586.362113 126.521791 
L 586.928898 126.473516 
L 588.062468 127.414869 
L 588.912646 127.656241 
L 589.479431 128.621731 
L 589.762824 128.814829 
L 590.046216 128.766555 
L 591.179787 129.611359 
L 591.746572 129.587221 
L 592.029964 129.804457 
L 592.59675 130.4803 
L 592.880142 130.74581 
L 593.163535 130.625123 
L 593.73032 131.059594 
L 594.013713 131.083731 
L 594.297105 131.300966 
L 594.580498 131.204417 
L 594.86389 131.276829 
L 595.147283 131.663025 
L 595.430675 131.735437 
L 595.714068 132.025084 
L 595.997461 131.928535 
L 596.280853 132.169907 
L 597.131031 130.311339 
L 597.414424 128.0183 
L 597.981209 119.5944 
L 598.264601 116.939302 
L 599.964957 108.684362 
L 600.248349 107.863696 
L 600.815135 107.308539 
L 601.098527 107.332676 
L 601.38192 107.598186 
L 603.64906 112.860106 
L 603.932453 112.401499 
L 604.215846 111.122224 
L 604.499238 111.001538 
L 605.066023 111.677381 
L 605.632809 112.522185 
L 605.916201 112.667008 
L 606.199594 112.449773 
L 606.482986 112.594597 
L 607.049771 112.691146 
L 607.616557 113.125616 
L 608.183342 113.946283 
L 608.466734 114.042832 
L 609.03352 114.718675 
L 609.883697 116.022086 
L 610.450482 116.528969 
L 610.733875 116.697929 
L 611.017268 116.528969 
L 611.30066 116.16691 
L 611.867445 115.997949 
L 612.434231 116.287596 
L 613.001016 116.673792 
L 614.417979 117.156537 
L 614.701371 117.108263 
L 615.268156 117.156537 
L 615.551549 117.204812 
L 616.118334 117.83238 
L 616.685119 118.146164 
L 617.535297 119.425439 
L 617.81869 119.32889 
L 618.102082 119.377164 
L 618.385475 119.76336 
L 619.235653 119.739223 
L 619.802438 119.956458 
L 620.652616 120.149556 
L 620.936008 120.149556 
L 621.219401 120.270243 
L 622.069578 120.246105 
L 622.352971 119.859909 
L 622.636364 119.76336 
L 622.636364 119.76336 
" clip-path="url(#p18f9b36183)" style="fill: none; stroke: #1f77b4; stroke-width: 1.5; stroke-linecap: square"/>
   </g>
   <g id="line2d_16">
    <path d="M 115.363636 162.895848 
L 115.930422 163.602677 
L 116.213814 188.747624 
L 119.614525 190.572596 
L 120.18131 189.824103 
L 120.748095 190.167221 
L 121.031488 190.336975 
L 121.314881 190.306401 
L 121.881666 189.706619 
L 122.448451 189.57941 
L 122.731844 189.645482 
L 123.015236 208.129836 
L 123.865414 208.062961 
L 127.266125 208.341017 
L 128.399695 208.521554 
L 128.96648 205.273837 
L 129.249873 205.281517 
L 129.533266 204.284349 
L 129.816658 157.393335 
L 130.383443 153.959308 
L 130.666836 153.013918 
L 130.950229 152.50682 
L 131.233621 152.381155 
L 131.517014 152.51577 
L 132.083799 153.159961 
L 132.933977 154.466508 
L 133.500762 154.287681 
L 134.067547 155.14142 
L 134.634332 155.623879 
L 135.201117 155.584702 
L 136.051295 156.100583 
L 136.334688 156.374124 
L 136.61808 138.107671 
L 136.901473 138.1367 
L 137.468258 138.833443 
L 138.885221 141.511096 
L 141.719147 146.779504 
L 143.13611 149.232655 
L 143.419502 171.851548 
L 146.820213 175.074723 
L 148.520569 176.647072 
L 148.803961 176.215569 
L 149.087354 174.912003 
L 149.370747 174.326323 
L 149.937532 169.783524 
L 150.220924 186.623546 
L 150.504317 187.487813 
L 151.071102 177.897706 
L 151.92128 173.17204 
L 152.204672 169.509492 
L 153.05485 152.483965 
L 153.338243 149.800591 
L 153.621635 148.432989 
L 154.188421 146.985402 
L 154.471813 146.933637 
L 154.755206 146.71815 
L 155.038598 146.151561 
L 155.321991 146.083992 
L 155.888776 144.750761 
L 156.172169 144.575309 
L 156.738954 143.595763 
L 157.022346 111.50842 
L 157.305739 110.840922 
L 157.589132 110.807123 
L 157.872524 111.189984 
L 158.439309 112.541727 
L 163.256983 125.767783 
L 163.540376 126.478517 
L 163.823768 135.911181 
L 166.374302 141.152076 
L 167.791265 143.896924 
L 168.074657 143.882765 
L 168.641442 138.905313 
L 168.924835 138.866092 
L 169.49162 139.496134 
L 169.775013 138.276707 
L 170.341798 132.560149 
L 170.62519 105.305147 
L 170.908583 104.684896 
L 171.191976 104.72554 
L 171.475368 105.186244 
L 172.325546 107.547908 
L 175.726257 117.794759 
L 177.14322 121.6938 
L 177.426612 127.125222 
L 179.977146 133.137293 
L 182.527679 138.617993 
L 183.944642 141.456031 
L 184.228035 157.224374 
L 187.345353 161.481444 
L 190.462671 165.350881 
L 190.746064 165.684991 
L 191.029457 187.613173 
L 195.280345 189.906635 
L 197.547486 191.033655 
L 197.830879 203.205837 
L 204.348908 204.401905 
L 204.632301 203.423072 
L 212.000508 204.757849 
L 212.567293 204.478968 
L 213.134078 197.495916 
L 213.417471 198.95201 
L 213.700863 198.654509 
L 213.984256 198.668806 
L 214.267649 194.622994 
L 214.834434 179.826543 
L 215.117826 175.147529 
L 215.401219 172.463121 
L 215.684611 171.133635 
L 215.968004 170.584877 
L 216.251397 170.457418 
L 216.534789 170.54273 
L 216.818182 170.446672 
L 217.384967 166.240401 
L 217.66836 166.925817 
L 218.235145 167.372985 
L 218.518537 166.307011 
L 219.085322 162.037092 
L 219.368715 160.947618 
L 219.652108 160.489255 
L 219.9355 160.424344 
L 220.502285 160.837668 
L 221.919248 162.569524 
L 225.036567 166.339248 
L 228.153885 169.778299 
L 231.554596 173.192425 
L 234.955307 176.293402 
L 238.356018 179.11589 
L 238.639411 151.238336 
L 241.473337 155.638503 
L 244.307263 159.65958 
L 245.15744 160.79827 
L 245.440833 182.375389 
L 249.408329 185.031076 
L 250.541899 185.77942 
L 250.825292 185.674391 
L 251.108685 185.692702 
L 251.67547 181.065702 
L 251.958862 181.075248 
L 252.242255 200.188681 
L 252.525648 200.3454 
L 252.80904 199.881514 
L 253.375825 197.856522 
L 253.659218 197.298211 
L 253.94261 197.022365 
L 254.509396 196.91878 
L 255.642966 197.210628 
L 258.760284 198.211177 
L 259.043677 203.061014 
L 266.411884 204.422584 
L 274.346877 205.661417 
L 283.132047 206.804736 
L 287.382936 207.28469 
L 287.666328 202.747229 
L 291.350432 204.339685 
L 292.767395 204.888986 
L 293.050787 203.109288 
L 297.018283 204.772168 
L 297.301676 204.816388 
L 297.585069 205.163475 
L 297.868461 203.789426 
L 298.151854 201.598283 
L 298.435246 200.796468 
L 298.718639 200.705008 
L 299.285424 200.983632 
L 299.568817 200.756301 
L 300.135602 199.964007 
L 300.418994 199.932193 
L 301.269172 200.319557 
L 305.236668 202.377632 
L 308.920772 204.022382 
L 312.604876 205.429758 
L 316.572372 206.708173 
L 320.823261 207.839602 
L 325.357542 208.815536 
L 330.458608 209.678696 
L 336.12646 210.405966 
L 339.810564 210.774814 
L 343.211275 199.4887 
L 344.061453 191.645279 
L 344.628238 188.264735 
L 345.195023 186.742941 
L 345.478415 186.446813 
L 345.761808 186.337146 
L 346.328593 186.431146 
L 347.462164 187.049896 
L 350.579482 188.965573 
L 350.862875 162.051824 
L 353.980193 165.870066 
L 356.247334 168.432358 
L 356.530726 172.237744 
L 359.931437 175.425596 
L 363.048756 178.094003 
L 363.332148 188.16833 
L 367.583037 190.405568 
L 369.850178 191.505324 
L 370.13357 202.095524 
L 376.6516 203.441655 
L 376.934992 204.123053 
L 378.351955 204.253377 
L 378.635348 203.935114 
L 379.202133 202.467993 
L 379.485526 202.285726 
L 379.768918 202.338544 
L 380.052311 201.534232 
L 380.619096 198.615077 
L 381.185881 196.854208 
L 381.469274 196.34219 
L 382.602844 192.930361 
L 382.886237 192.59743 
L 383.453022 192.461043 
L 383.736414 204.195464 
L 385.153377 204.377233 
L 390.254444 205.201554 
L 390.537836 205.691974 
L 395.35551 206.365008 
L 395.922296 205.939769 
L 397.055866 206.134243 
L 397.339259 205.981621 
L 403.290503 207.139285 
L 403.857288 207.238054 
L 404.140681 206.054033 
L 410.091925 207.198739 
L 411.79228 207.486196 
L 412.075673 205.619562 
L 417.743525 206.788864 
L 418.026917 205.716111 
L 423.694769 206.868988 
L 429.929406 207.909486 
L 431.062976 208.07621 
L 431.346369 205.450601 
L 434.463687 205.761201 
L 435.597257 205.538071 
L 437.297613 205.017924 
L 437.864398 204.992231 
L 438.147791 205.329915 
L 439.564754 205.486012 
L 441.265109 204.938939 
L 442.39868 204.308848 
L 443.248857 204.117272 
L 444.382428 204.014073 
L 445.515998 203.393689 
L 446.082783 202.783147 
L 446.366176 206.102307 
L 447.216353 205.651837 
L 447.499746 205.56735 
L 447.783139 205.81266 
L 448.916709 205.719864 
L 449.483494 205.24319 
L 449.766887 205.152836 
L 450.050279 204.888353 
L 450.333672 204.459533 
L 450.900457 202.905747 
L 451.467242 201.142298 
L 451.750635 179.189272 
L 453.45099 172.624607 
L 454.017776 171.486419 
L 454.584561 171.019533 
L 455.151346 170.936106 
L 455.718131 171.093039 
L 456.568309 171.574529 
L 458.835449 173.247682 
L 463.369731 176.530137 
L 465.070086 177.688992 
L 465.353479 135.524985 
L 468.75419 141.008 
L 471.871508 145.688301 
L 472.154901 165.913784 
L 476.122397 169.748001 
L 478.67293 172.043087 
L 478.956323 193.044054 
L 484.340782 195.160142 
L 485.474352 195.574823 
L 485.757745 206.174719 
L 492.275775 206.964838 
L 492.559167 207.30917 
L 499.077197 207.94913 
L 499.360589 208.926366 
L 500.494159 208.964841 
L 501.060945 208.70012 
L 501.62773 208.693972 
L 501.911122 208.097311 
L 502.7613 204.694886 
L 503.044693 204.38939 
L 503.328085 203.848255 
L 505.028441 194.038089 
L 505.878619 189.252512 
L 506.162011 88.457346 
L 506.445404 88.540391 
L 507.012189 89.382299 
L 507.862367 91.33625 
L 512.680041 103.330652 
L 512.963433 114.6704 
L 516.080752 119.665859 
L 526.84967 136.448147 
L 531.667344 143.367689 
L 533.084307 145.328815 
L 533.367699 131.349241 
L 536.485018 136.077412 
L 537.335196 136.864303 
L 538.468766 138.438646 
L 539.885729 140.204482 
L 540.169121 136.442201 
L 545.270188 143.753887 
L 546.403758 145.181637 
L 546.687151 145.317787 
L 546.970543 140.738631 
L 550.93804 146.199329 
L 551.504825 146.601299 
L 551.788217 146.664537 
L 552.355003 146.944936 
L 552.921788 146.589725 
L 553.488573 146.938202 
L 553.771965 145.131611 
L 554.905536 145.548142 
L 555.472321 145.580663 
L 555.755714 145.055943 
L 556.039106 144.796332 
L 556.605891 145.59266 
L 557.172676 146.038219 
L 557.456069 146.000548 
L 557.739462 146.121205 
L 558.022854 145.691104 
L 558.306247 145.675428 
L 558.589639 144.470839 
L 558.873032 142.454022 
L 559.156425 141.933993 
L 559.439817 142.053352 
L 559.72321 142.307626 
L 560.006602 142.230319 
L 560.289995 141.489965 
L 560.573388 147.062591 
L 561.706958 137.159337 
L 563.123921 123.973066 
L 564.257491 111.910435 
L 565.107669 104.724924 
L 565.674454 101.773791 
L 565.957847 100.957556 
L 566.241239 100.512173 
L 566.524632 100.365322 
L 566.808024 100.44668 
L 567.091417 100.695361 
L 567.37481 110.856715 
L 568.224987 112.184669 
L 572.192483 119.120164 
L 573.042661 120.037659 
L 573.892839 120.743396 
L 574.176232 119.039243 
L 577.576943 125.703784 
L 580.694261 131.392432 
L 580.977654 122.563281 
L 584.378365 128.975206 
L 587.495683 134.448271 
L 587.779076 126.521791 
L 591.179787 132.649988 
L 594.297105 137.868852 
L 594.580498 130.625123 
L 594.86389 130.959851 
L 595.147283 130.904782 
L 595.997461 130.086332 
L 596.564246 130.158029 
L 596.847638 130.132378 
L 597.131031 129.695878 
L 597.414424 128.906018 
L 598.547994 121.044112 
L 598.831386 120.8002 
L 599.114779 120.986176 
L 599.398172 120.439856 
L 600.531742 113.55956 
L 600.815135 112.917625 
L 601.098527 112.73785 
L 601.38192 108.684362 
L 601.665312 109.147939 
L 602.232098 109.33599 
L 602.798883 110.05111 
L 603.082275 110.168699 
L 603.64906 109.303243 
L 604.215846 109.696373 
L 604.499238 109.834393 
L 604.782631 109.811498 
L 605.066023 109.261063 
L 605.349416 108.439419 
L 605.632809 108.003118 
L 605.916201 107.932318 
L 606.199594 108.125472 
L 606.766379 108.958625 
L 607.899949 111.261595 
L 608.183342 112.594597 
L 610.733875 117.469086 
L 611.017268 117.31962 
L 611.30066 116.319528 
L 611.584053 115.739274 
L 612.434231 116.890049 
L 612.717623 116.826151 
L 613.001016 115.89622 
L 613.567801 113.507498 
L 613.851193 112.927999 
L 614.134586 112.767178 
L 614.417979 112.894089 
L 614.701371 113.207183 
L 614.984764 116.915165 
L 615.268156 116.594016 
L 615.551549 116.595551 
L 616.118334 117.121578 
L 617.251905 118.871205 
L 621.502793 125.898026 
L 621.786186 120.053007 
L 622.636364 121.482186 
L 622.636364 121.482186 
" clip-path="url(#p18f9b36183)" style="fill: none; stroke: #ff7f0e; stroke-width: 1.5; stroke-linecap: square"/>
   </g>
   <g id="patch_3">
    <path d="M 90 288 
L 90 43.2 
" style="fill: none; stroke: #000000; stroke-width: 0.8; stroke-linejoin: miter; stroke-linecap: square"/>
   </g>
   <g id="patch_4">
    <path d="M 648 288 
L 648 43.2 
" style="fill: none; stroke: #000000; stroke-width: 0.8; stroke-linejoin: miter; stroke-linecap: square"/>
   </g>
   <g id="patch_5">
    <path d="M 90 288 
L 648 288 
" style="fill: none; stroke: #000000; stroke-width: 0.8; stroke-linejoin: miter; stroke-linecap: square"/>
   </g>
   <g id="patch_6">
    <path d="M 90 43.2 
L 648 43.2 
" style="fill: none; stroke: #000000; stroke-width: 0.8; stroke-linejoin: miter; stroke-linecap: square"/>
   </g>
   <g id="text_16">
    <!-- ARB002 -->
    <g transform="translate(345.1575 37.2) scale(0.12 -0.12)">
     <defs>
      <path id="DejaVuSans-41" d="M 2188 4044 
L 1331 1722 
L 3047 1722 
L 2188 4044 
z
M 1831 4666 
L 2547 4666 
L 4325 0 
L 3669 0 
L 3244 1197 
L 1141 1197 
L 716 0 
L 50 0 
L 1831 4666 
z
" transform="scale(0.015625)"/>
      <path id="DejaVuSans-52" d="M 2841 2188 
Q 3044 2119 3236 1894 
Q 3428 1669 3622 1275 
L 4263 0 
L 3584 0 
L 2988 1197 
Q 2756 1666 2539 1819 
Q 2322 1972 1947 1972 
L 1259 1972 
L 1259 0 
L 628 0 
L 628 4666 
L 2053 4666 
Q 2853 4666 3247 4331 
Q 3641 3997 3641 3322 
Q 3641 2881 3436 2590 
Q 3231 2300 2841 2188 
z
M 1259 4147 
L 1259 2491 
L 2053 2491 
Q 2509 2491 2742 2702 
Q 2975 2913 2975 3322 
Q 2975 3731 2742 3939 
Q 2509 4147 2053 4147 
L 1259 4147 
z
" transform="scale(0.015625)"/>
      <path id="DejaVuSans-42" d="M 1259 2228 
L 1259 519 
L 2272 519 
Q 2781 519 3026 730 
Q 3272 941 3272 1375 
Q 3272 1813 3026 2020 
Q 2781 2228 2272 2228 
L 1259 2228 
z
M 1259 4147 
L 1259 2741 
L 2194 2741 
Q 2656 2741 2882 2914 
Q 3109 3088 3109 3444 
Q 3109 3797 2882 3972 
Q 2656 4147 2194 4147 
L 1259 4147 
z
M 628 4666 
L 2241 4666 
Q 2963 4666 3353 4366 
Q 3744 4066 3744 3513 
Q 3744 3084 3544 2831 
Q 3344 2578 2956 2516 
Q 3422 2416 3680 2098 
Q 3938 1781 3938 1306 
Q 3938 681 3513 340 
Q 3088 0 2303 0 
L 628 0 
L 628 4666 
z
" transform="scale(0.015625)"/>
     </defs>
     <use xlink:href="#DejaVuSans-41"/>
     <use xlink:href="#DejaVuSans-52" x="68.408203"/>
     <use xlink:href="#DejaVuSans-42" x="137.890625"/>
     <use xlink:href="#DejaVuSans-30" x="206.494141"/>
     <use xlink:href="#DejaVuSans-30" x="270.117188"/>
     <use xlink:href="#DejaVuSans-32" x="333.740234"/>
    </g>
   </g>
   <g id="legend_1">
    <g id="patch_7">
     <path d="M 559.04375 80.55625 
L 641 80.55625 
Q 643 80.55625 643 78.55625 
L 643 50.2 
Q 643 48.2 641 48.2 
L 559.04375 48.2 
Q 557.04375 48.2 557.04375 50.2 
L 557.04375 78.55625 
Q 557.04375 80.55625 559.04375 80.55625 
z
" style="fill: #ffffff; opacity: 0.8; stroke: #cccccc; stroke-linejoin: miter"/>
    </g>
    <g id="line2d_17">
     <path d="M 561.04375 56.298437 
L 571.04375 56.298437 
L 581.04375 56.298437 
" style="fill: none; stroke: #1f77b4; stroke-width: 1.5; stroke-linecap: square"/>
    </g>
    <g id="text_17">
     <!-- measured -->
     <g transform="translate(589.04375 59.798437) scale(0.1 -0.1)">
      <defs>
       <path id="DejaVuSans-6d" d="M 3328 2828 
Q 3544 3216 3844 3400 
Q 4144 3584 4550 3584 
Q 5097 3584 5394 3201 
Q 5691 2819 5691 2113 
L 5691 0 
L 5113 0 
L 5113 2094 
Q 5113 2597 4934 2840 
Q 4756 3084 4391 3084 
Q 3944 3084 3684 2787 
Q 3425 2491 3425 1978 
L 3425 0 
L 2847 0 
L 2847 2094 
Q 2847 2600 2669 2842 
Q 2491 3084 2119 3084 
Q 1678 3084 1418 2786 
Q 1159 2488 1159 1978 
L 1159 0 
L 581 0 
L 581 3500 
L 1159 3500 
L 1159 2956 
Q 1356 3278 1631 3431 
Q 1906 3584 2284 3584 
Q 2666 3584 2933 3390 
Q 3200 3197 3328 2828 
z
" transform="scale(0.015625)"/>
       <path id="DejaVuSans-61" d="M 2194 1759 
Q 1497 1759 1228 1600 
Q 959 1441 959 1056 
Q 959 750 1161 570 
Q 1363 391 1709 391 
Q 2188 391 2477 730 
Q 2766 1069 2766 1631 
L 2766 1759 
L 2194 1759 
z
M 3341 1997 
L 3341 0 
L 2766 0 
L 2766 531 
Q 2569 213 2275 61 
Q 1981 -91 1556 -91 
Q 1019 -91 701 211 
Q 384 513 384 1019 
Q 384 1609 779 1909 
Q 1175 2209 1959 2209 
L 2766 2209 
L 2766 2266 
Q 2766 2663 2505 2880 
Q 2244 3097 1772 3097 
Q 1472 3097 1187 3025 
Q 903 2953 641 2809 
L 641 3341 
Q 956 3463 1253 3523 
Q 1550 3584 1831 3584 
Q 2591 3584 2966 3190 
Q 3341 2797 3341 1997 
z
" transform="scale(0.015625)"/>
       <path id="DejaVuSans-75" d="M 544 1381 
L 544 3500 
L 1119 3500 
L 1119 1403 
Q 1119 906 1312 657 
Q 1506 409 1894 409 
Q 2359 409 2629 706 
Q 2900 1003 2900 1516 
L 2900 3500 
L 3475 3500 
L 3475 0 
L 2900 0 
L 2900 538 
Q 2691 219 2414 64 
Q 2138 -91 1772 -91 
Q 1169 -91 856 284 
Q 544 659 544 1381 
z
M 1991 3584 
L 1991 3584 
z
" transform="scale(0.015625)"/>
       <path id="DejaVuSans-64" d="M 2906 2969 
L 2906 4863 
L 3481 4863 
L 3481 0 
L 2906 0 
L 2906 525 
Q 2725 213 2448 61 
Q 2172 -91 1784 -91 
Q 1150 -91 751 415 
Q 353 922 353 1747 
Q 353 2572 751 3078 
Q 1150 3584 1784 3584 
Q 2172 3584 2448 3432 
Q 2725 3281 2906 2969 
z
M 947 1747 
Q 947 1113 1208 752 
Q 1469 391 1925 391 
Q 2381 391 2643 752 
Q 2906 1113 2906 1747 
Q 2906 2381 2643 2742 
Q 2381 3103 1925 3103 
Q 1469 3103 1208 2742 
Q 947 2381 947 1747 
z
" transform="scale(0.015625)"/>
      </defs>
      <use xlink:href="#DejaVuSans-6d"/>
      <use xlink:href="#DejaVuSans-65" x="97.412109"/>
      <use xlink:href="#DejaVuSans-61" x="158.935547"/>
      <use xlink:href="#DejaVuSans-73" x="220.214844"/>
      <use xlink:href="#DejaVuSans-75" x="272.314453"/>
      <use xlink:href="#DejaVuSans-72" x="335.693359"/>
      <use xlink:href="#DejaVuSans-65" x="374.556641"/>
      <use xlink:href="#DejaVuSans-64" x="436.080078"/>
     </g>
    </g>
    <g id="line2d_18">
     <path d="M 561.04375 70.976562 
L 571.04375 70.976562 
L 581.04375 70.976562 
" style="fill: none; stroke: #ff7f0e; stroke-width: 1.5; stroke-linecap: square"/>
    </g>
    <g id="text_18">
     <!-- predicted -->
     <g transform="translate(589.04375 74.476562) scale(0.1 -0.1)">
      <defs>
       <path id="DejaVuSans-70" d="M 1159 525 
L 1159 -1331 
L 581 -1331 
L 581 3500 
L 1159 3500 
L 1159 2969 
Q 1341 3281 1617 3432 
Q 1894 3584 2278 3584 
Q 2916 3584 3314 3078 
Q 3713 2572 3713 1747 
Q 3713 922 3314 415 
Q 2916 -91 2278 -91 
Q 1894 -91 1617 61 
Q 1341 213 1159 525 
z
M 3116 1747 
Q 3116 2381 2855 2742 
Q 2594 3103 2138 3103 
Q 1681 3103 1420 2742 
Q 1159 2381 1159 1747 
Q 1159 1113 1420 752 
Q 1681 391 2138 391 
Q 2594 391 2855 752 
Q 3116 1113 3116 1747 
z
" transform="scale(0.015625)"/>
       <path id="DejaVuSans-69" d="M 603 3500 
L 1178 3500 
L 1178 0 
L 603 0 
L 603 3500 
z
M 603 4863 
L 1178 4863 
L 1178 4134 
L 603 4134 
L 603 4863 
z
" transform="scale(0.015625)"/>
       <path id="DejaVuSans-63" d="M 3122 3366 
L 3122 2828 
Q 2878 2963 2633 3030 
Q 2388 3097 2138 3097 
Q 1578 3097 1268 2742 
Q 959 2388 959 1747 
Q 959 1106 1268 751 
Q 1578 397 2138 397 
Q 2388 397 2633 464 
Q 2878 531 3122 666 
L 3122 134 
Q 2881 22 2623 -34 
Q 2366 -91 2075 -91 
Q 1284 -91 818 406 
Q 353 903 353 1747 
Q 353 2603 823 3093 
Q 1294 3584 2113 3584 
Q 2378 3584 2631 3529 
Q 2884 3475 3122 3366 
z
" transform="scale(0.015625)"/>
      </defs>
      <use xlink:href="#DejaVuSans-70"/>
      <use xlink:href="#DejaVuSans-72" x="63.476562"/>
      <use xlink:href="#DejaVuSans-65" x="102.339844"/>
      <use xlink:href="#DejaVuSans-64" x="163.863281"/>
      <use xlink:href="#DejaVuSans-69" x="227.339844"/>
      <use xlink:href="#DejaVuSans-63" x="255.123047"/>
      <use xlink:href="#DejaVuSans-74" x="310.103516"/>
      <use xlink:href="#DejaVuSans-65" x="349.3125"/>
      <use xlink:href="#DejaVuSans-64" x="410.835938"/>
     </g>
    </g>
   </g>
  </g>
 </g>
 <defs>
  <clipPath id="p18f9b36183">
   <rect x="90" y="43.2" width="558" height="244.8"/>
  </clipPath>
 </defs>
</svg>
