<?xml version="1.0" encoding="utf-8" standalone="no"?>
<!DOCTYPE svg PUBLIC "-//W3C//DTD SVG 1.1//EN"
  "http://www.w3.org/Graphics/SVG/1.1/DTD/svg11.dtd">
<svg xmlns:xlink="http://www.w3.org/1999/xlink" width="713.0225pt" height="351.43625pt" viewBox="0 0 713.0225 351.43625" xmlns="http://www.w3.org/2000/svg" version="1.1">
 <metadata>
  <rdf:RDF xmlns:dc="http://purl.org/dc/elements/1.1/" xmlns:cc="http://creativecommons.org/ns#" xmlns:rdf="http://www.w3.org/1999/02/22-rdf-syntax-ns#">
   <cc:Work>
    <dc:type rdf:resource="http://purl.org/dc/dcmitype/StillImage"/>
    <dc:date>2024-05-10T06:00:15.039322</dc:date>
    <dc:format>image/svg+xml</dc:format>
    <dc:creator>
     <cc:Agent>
      <dc:title>Matplotlib v3.8.4, https://matplotlib.org/</dc:title>
     </cc:Agent>
    </dc:creator>
   </cc:Work>
  </rdf:RDF>
 </metadata>
 <defs>
  <style type="text/css">*{stroke-linejoin: round; stroke-linecap: butt}</style>
 </defs>
 <g id="figure_1">
  <g id="patch_1">
   <path d="M 0 351.43625 
L 713.0225 351.43625 
L 713.0225 0 
L 0 0 
z
" style="fill: #ffffff"/>
  </g>
  <g id="axes_1">
   <g id="patch_2">
    <path d="M 46.0125 327.558125 
L 705.8225 327.558125 
L 705.8225 22.318125 
L 46.0125 22.318125 
z
" style="fill: #ffffff"/>
   </g>
   <g id="matplotlib.axis_1">
    <g id="xtick_1">
     <g id="line2d_1">
      <defs>
       <path id="mb29bca830e" d="M 0 0 
L 0 3.5 
" style="stroke: #000000; stroke-width: 0.8"/>
      </defs>
      <g>
       <use xlink:href="#mb29bca830e" x="105.497679" y="327.558125" style="stroke: #000000; stroke-width: 0.8"/>
      </g>
     </g>
     <g id="text_1">
      <!-- 2010 -->
      <g transform="translate(92.772679 342.156563) scale(0.1 -0.1)">
       <defs>
        <path id="DejaVuSans-32" d="M 1228 531 
L 3431 531 
L 3431 0 
L 469 0 
L 469 531 
Q 828 903 1448 1529 
Q 2069 2156 2228 2338 
Q 2531 2678 2651 2914 
Q 2772 3150 2772 3378 
Q 2772 3750 2511 3984 
Q 2250 4219 1831 4219 
Q 1534 4219 1204 4116 
Q 875 4013 500 3803 
L 500 4441 
Q 881 4594 1212 4672 
Q 1544 4750 1819 4750 
Q 2544 4750 2975 4387 
Q 3406 4025 3406 3419 
Q 3406 3131 3298 2873 
Q 3191 2616 2906 2266 
Q 2828 2175 2409 1742 
Q 1991 1309 1228 531 
z
" transform="scale(0.015625)"/>
        <path id="DejaVuSans-30" d="M 2034 4250 
Q 1547 4250 1301 3770 
Q 1056 3291 1056 2328 
Q 1056 1369 1301 889 
Q 1547 409 2034 409 
Q 2525 409 2770 889 
Q 3016 1369 3016 2328 
Q 3016 3291 2770 3770 
Q 2525 4250 2034 4250 
z
M 2034 4750 
Q 2819 4750 3233 4129 
Q 3647 3509 3647 2328 
Q 3647 1150 3233 529 
Q 2819 -91 2034 -91 
Q 1250 -91 836 529 
Q 422 1150 422 2328 
Q 422 3509 836 4129 
Q 1250 4750 2034 4750 
z
" transform="scale(0.015625)"/>
        <path id="DejaVuSans-31" d="M 794 531 
L 1825 531 
L 1825 4091 
L 703 3866 
L 703 4441 
L 1819 4666 
L 2450 4666 
L 2450 531 
L 3481 531 
L 3481 0 
L 794 0 
L 794 531 
z
" transform="scale(0.015625)"/>
       </defs>
       <use xlink:href="#DejaVuSans-32"/>
       <use xlink:href="#DejaVuSans-30" x="63.623047"/>
       <use xlink:href="#DejaVuSans-31" x="127.246094"/>
       <use xlink:href="#DejaVuSans-30" x="190.869141"/>
      </g>
     </g>
    </g>
    <g id="xtick_2">
     <g id="line2d_2">
      <g>
       <use xlink:href="#mb29bca830e" x="217.830647" y="327.558125" style="stroke: #000000; stroke-width: 0.8"/>
      </g>
     </g>
     <g id="text_2">
      <!-- 2012 -->
      <g transform="translate(205.105647 342.156563) scale(0.1 -0.1)">
       <use xlink:href="#DejaVuSans-32"/>
       <use xlink:href="#DejaVuSans-30" x="63.623047"/>
       <use xlink:href="#DejaVuSans-31" x="127.246094"/>
       <use xlink:href="#DejaVuSans-32" x="190.869141"/>
      </g>
     </g>
    </g>
    <g id="xtick_3">
     <g id="line2d_3">
      <g>
       <use xlink:href="#mb29bca830e" x="330.317496" y="327.558125" style="stroke: #000000; stroke-width: 0.8"/>
      </g>
     </g>
     <g id="text_3">
      <!-- 2014 -->
      <g transform="translate(317.592496 342.156563) scale(0.1 -0.1)">
       <defs>
        <path id="DejaVuSans-34" d="M 2419 4116 
L 825 1625 
L 2419 1625 
L 2419 4116 
z
M 2253 4666 
L 3047 4666 
L 3047 1625 
L 3713 1625 
L 3713 1100 
L 3047 1100 
L 3047 0 
L 2419 0 
L 2419 1100 
L 313 1100 
L 313 1709 
L 2253 4666 
z
" transform="scale(0.015625)"/>
       </defs>
       <use xlink:href="#DejaVuSans-32"/>
       <use xlink:href="#DejaVuSans-30" x="63.623047"/>
       <use xlink:href="#DejaVuSans-31" x="127.246094"/>
       <use xlink:href="#DejaVuSans-34" x="190.869141"/>
      </g>
     </g>
    </g>
    <g id="xtick_4">
     <g id="line2d_4">
      <g>
       <use xlink:href="#mb29bca830e" x="442.650464" y="327.558125" style="stroke: #000000; stroke-width: 0.8"/>
      </g>
     </g>
     <g id="text_4">
      <!-- 2016 -->
      <g transform="translate(429.925464 342.156563) scale(0.1 -0.1)">
       <defs>
        <path id="DejaVuSans-36" d="M 2113 2584 
Q 1688 2584 1439 2293 
Q 1191 2003 1191 1497 
Q 1191 994 1439 701 
Q 1688 409 2113 409 
Q 2538 409 2786 701 
Q 3034 994 3034 1497 
Q 3034 2003 2786 2293 
Q 2538 2584 2113 2584 
z
M 3366 4563 
L 3366 3988 
Q 3128 4100 2886 4159 
Q 2644 4219 2406 4219 
Q 1781 4219 1451 3797 
Q 1122 3375 1075 2522 
Q 1259 2794 1537 2939 
Q 1816 3084 2150 3084 
Q 2853 3084 3261 2657 
Q 3669 2231 3669 1497 
Q 3669 778 3244 343 
Q 2819 -91 2113 -91 
Q 1303 -91 875 529 
Q 447 1150 447 2328 
Q 447 3434 972 4092 
Q 1497 4750 2381 4750 
Q 2619 4750 2861 4703 
Q 3103 4656 3366 4563 
z
" transform="scale(0.015625)"/>
       </defs>
       <use xlink:href="#DejaVuSans-32"/>
       <use xlink:href="#DejaVuSans-30" x="63.623047"/>
       <use xlink:href="#DejaVuSans-31" x="127.246094"/>
       <use xlink:href="#DejaVuSans-36" x="190.869141"/>
      </g>
     </g>
    </g>
    <g id="xtick_5">
     <g id="line2d_5">
      <g>
       <use xlink:href="#mb29bca830e" x="555.137313" y="327.558125" style="stroke: #000000; stroke-width: 0.8"/>
      </g>
     </g>
     <g id="text_5">
      <!-- 2018 -->
      <g transform="translate(542.412313 342.156563) scale(0.1 -0.1)">
       <defs>
        <path id="DejaVuSans-38" d="M 2034 2216 
Q 1584 2216 1326 1975 
Q 1069 1734 1069 1313 
Q 1069 891 1326 650 
Q 1584 409 2034 409 
Q 2484 409 2743 651 
Q 3003 894 3003 1313 
Q 3003 1734 2745 1975 
Q 2488 2216 2034 2216 
z
M 1403 2484 
Q 997 2584 770 2862 
Q 544 3141 544 3541 
Q 544 4100 942 4425 
Q 1341 4750 2034 4750 
Q 2731 4750 3128 4425 
Q 3525 4100 3525 3541 
Q 3525 3141 3298 2862 
Q 3072 2584 2669 2484 
Q 3125 2378 3379 2068 
Q 3634 1759 3634 1313 
Q 3634 634 3220 271 
Q 2806 -91 2034 -91 
Q 1263 -91 848 271 
Q 434 634 434 1313 
Q 434 1759 690 2068 
Q 947 2378 1403 2484 
z
M 1172 3481 
Q 1172 3119 1398 2916 
Q 1625 2713 2034 2713 
Q 2441 2713 2670 2916 
Q 2900 3119 2900 3481 
Q 2900 3844 2670 4047 
Q 2441 4250 2034 4250 
Q 1625 4250 1398 4047 
Q 1172 3844 1172 3481 
z
" transform="scale(0.015625)"/>
       </defs>
       <use xlink:href="#DejaVuSans-32"/>
       <use xlink:href="#DejaVuSans-30" x="63.623047"/>
       <use xlink:href="#DejaVuSans-31" x="127.246094"/>
       <use xlink:href="#DejaVuSans-38" x="190.869141"/>
      </g>
     </g>
    </g>
    <g id="xtick_6">
     <g id="line2d_6">
      <g>
       <use xlink:href="#mb29bca830e" x="667.470281" y="327.558125" style="stroke: #000000; stroke-width: 0.8"/>
      </g>
     </g>
     <g id="text_6">
      <!-- 2020 -->
      <g transform="translate(654.745281 342.156563) scale(0.1 -0.1)">
       <use xlink:href="#DejaVuSans-32"/>
       <use xlink:href="#DejaVuSans-30" x="63.623047"/>
       <use xlink:href="#DejaVuSans-32" x="127.246094"/>
       <use xlink:href="#DejaVuSans-30" x="190.869141"/>
      </g>
     </g>
    </g>
   </g>
   <g id="matplotlib.axis_2">
    <g id="ytick_1">
     <g id="line2d_7">
      <defs>
       <path id="m390cba648a" d="M 0 0 
L -3.5 0 
" style="stroke: #000000; stroke-width: 0.8"/>
      </defs>
      <g>
       <use xlink:href="#m390cba648a" x="46.0125" y="313.591895" style="stroke: #000000; stroke-width: 0.8"/>
      </g>
     </g>
     <g id="text_7">
      <!-- 0 -->
      <g transform="translate(32.65 317.391114) scale(0.1 -0.1)">
       <use xlink:href="#DejaVuSans-30"/>
      </g>
     </g>
    </g>
    <g id="ytick_2">
     <g id="line2d_8">
      <g>
       <use xlink:href="#m390cba648a" x="46.0125" y="256.18163" style="stroke: #000000; stroke-width: 0.8"/>
      </g>
     </g>
     <g id="text_8">
      <!-- 5000 -->
      <g transform="translate(13.5625 259.980849) scale(0.1 -0.1)">
       <defs>
        <path id="DejaVuSans-35" d="M 691 4666 
L 3169 4666 
L 3169 4134 
L 1269 4134 
L 1269 2991 
Q 1406 3038 1543 3061 
Q 1681 3084 1819 3084 
Q 2600 3084 3056 2656 
Q 3513 2228 3513 1497 
Q 3513 744 3044 326 
Q 2575 -91 1722 -91 
Q 1428 -91 1123 -41 
Q 819 9 494 109 
L 494 744 
Q 775 591 1075 516 
Q 1375 441 1709 441 
Q 2250 441 2565 725 
Q 2881 1009 2881 1497 
Q 2881 1984 2565 2268 
Q 2250 2553 1709 2553 
Q 1456 2553 1204 2497 
Q 953 2441 691 2322 
L 691 4666 
z
" transform="scale(0.015625)"/>
       </defs>
       <use xlink:href="#DejaVuSans-35"/>
       <use xlink:href="#DejaVuSans-30" x="63.623047"/>
       <use xlink:href="#DejaVuSans-30" x="127.246094"/>
       <use xlink:href="#DejaVuSans-30" x="190.869141"/>
      </g>
     </g>
    </g>
    <g id="ytick_3">
     <g id="line2d_9">
      <g>
       <use xlink:href="#m390cba648a" x="46.0125" y="198.771365" style="stroke: #000000; stroke-width: 0.8"/>
      </g>
     </g>
     <g id="text_9">
      <!-- 10000 -->
      <g transform="translate(7.2 202.570584) scale(0.1 -0.1)">
       <use xlink:href="#DejaVuSans-31"/>
       <use xlink:href="#DejaVuSans-30" x="63.623047"/>
       <use xlink:href="#DejaVuSans-30" x="127.246094"/>
       <use xlink:href="#DejaVuSans-30" x="190.869141"/>
       <use xlink:href="#DejaVuSans-30" x="254.492188"/>
      </g>
     </g>
    </g>
    <g id="ytick_4">
     <g id="line2d_10">
      <g>
       <use xlink:href="#m390cba648a" x="46.0125" y="141.3611" style="stroke: #000000; stroke-width: 0.8"/>
      </g>
     </g>
     <g id="text_10">
      <!-- 15000 -->
      <g transform="translate(7.2 145.160319) scale(0.1 -0.1)">
       <use xlink:href="#DejaVuSans-31"/>
       <use xlink:href="#DejaVuSans-35" x="63.623047"/>
       <use xlink:href="#DejaVuSans-30" x="127.246094"/>
       <use xlink:href="#DejaVuSans-30" x="190.869141"/>
       <use xlink:href="#DejaVuSans-30" x="254.492188"/>
      </g>
     </g>
    </g>
    <g id="ytick_5">
     <g id="line2d_11">
      <g>
       <use xlink:href="#m390cba648a" x="46.0125" y="83.950835" style="stroke: #000000; stroke-width: 0.8"/>
      </g>
     </g>
     <g id="text_11">
      <!-- 20000 -->
      <g transform="translate(7.2 87.750054) scale(0.1 -0.1)">
       <use xlink:href="#DejaVuSans-32"/>
       <use xlink:href="#DejaVuSans-30" x="63.623047"/>
       <use xlink:href="#DejaVuSans-30" x="127.246094"/>
       <use xlink:href="#DejaVuSans-30" x="190.869141"/>
       <use xlink:href="#DejaVuSans-30" x="254.492188"/>
      </g>
     </g>
    </g>
    <g id="ytick_6">
     <g id="line2d_12">
      <g>
       <use xlink:href="#m390cba648a" x="46.0125" y="26.54057" style="stroke: #000000; stroke-width: 0.8"/>
      </g>
     </g>
     <g id="text_12">
      <!-- 25000 -->
      <g transform="translate(7.2 30.339788) scale(0.1 -0.1)">
       <use xlink:href="#DejaVuSans-32"/>
       <use xlink:href="#DejaVuSans-35" x="63.623047"/>
       <use xlink:href="#DejaVuSans-30" x="127.246094"/>
       <use xlink:href="#DejaVuSans-30" x="190.869141"/>
       <use xlink:href="#DejaVuSans-30" x="254.492188"/>
      </g>
     </g>
    </g>
   </g>
   <g id="line2d_13">
    <path d="M 76.003864 312.920769 
L 76.388566 313.031858 
L 76.978442 313.174523 
L 78.85707 313.281019 
L 79.030186 313.306279 
L 82.59509 313.37632 
L 83.473493 313.383209 
L 83.678667 312.805088 
L 83.736373 312.846423 
L 84.127486 313.24198 
L 85.281592 313.351633 
L 85.666294 313.40847 
L 85.672706 313.400719 
L 88.109152 313.330392 
L 88.147622 312.836663 
L 88.275856 313.021524 
L 88.429736 313.007746 
L 88.583617 313.108788 
L 88.769557 313.228201 
L 89.026024 313.124863 
L 89.147847 313.092713 
L 89.154258 313.096732 
L 89.301728 313.140938 
L 89.744135 313.248869 
L 89.936486 313.294797 
L 89.949309 313.059128 
L 89.974956 312.611615 
L 89.981368 312.655247 
L 90.295541 312.3016 
L 90.346834 312.404938 
L 90.596891 312.773512 
L 90.737948 312.88173 
L 90.911064 313.026117 
L 91.366295 313.200644 
L 92.571694 313.103334 
L 92.610164 310.102786 
L 92.66787 269.823744 
L 92.731987 292.156338 
L 92.892279 306.658171 
L 93.091042 309.324877 
L 93.155159 309.718138 
L 93.456509 311.084502 
L 93.488567 311.190711 
L 93.655271 311.589712 
L 93.809152 311.957138 
L 94.411852 312.588651 
L 94.687555 312.519759 
L 94.815789 312.399197 
L 95.303078 312.292988 
L 95.469782 310.929494 
L 95.585193 310.23483 
L 95.630075 310.418543 
L 95.777544 310.877825 
L 95.822426 310.705594 
L 95.918601 309.807124 
L 95.963483 309.867404 
L 96.046835 310.016671 
L 96.470007 311.698792 
L 96.752122 312.152333 
L 96.829062 312.261412 
L 97.329175 312.565687 
L 97.547173 312.67247 
L 97.701053 312.728732 
L 98.483281 312.631422 
L 98.534574 312.462348 
L 98.605103 312.519759 
L 98.874394 312.600994 
L 98.989805 312.666729 
L 98.996217 312.660988 
L 99.303978 312.762604 
L 99.438624 312.773512 
L 100.073382 312.87685 
L 100.240086 312.944595 
L 100.36832 312.95378 
L 101.586543 313.060563 
L 101.753247 313.092713 
L 102.003303 313.064582 
L 102.227713 313.076638 
L 108.716352 312.971003 
L 108.93435 312.745381 
L 108.97282 312.732177 
L 108.998467 312.672757 
L 109.145936 312.565687 
L 109.27417 312.565687 
L 109.594755 312.619078 
L 109.812753 312.679359 
L 110.351336 312.789874 
L 110.505216 312.789874 
L 110.723214 312.732177 
L 110.832213 312.625394 
L 110.979682 311.848059 
L 111.223327 310.56781 
L 112.262022 312.204002 
L 112.338962 312.221225 
L 112.364609 312.255671 
L 112.524902 312.35901 
L 112.755723 312.485312 
L 113.089131 312.591521 
L 113.101955 312.574298 
L 113.249424 312.625394 
L 113.377658 312.65295 
L 113.595655 312.542723 
L 113.730301 312.450866 
L 114.339412 312.554205 
L 114.499705 312.619078 
L 114.621527 312.65295 
L 114.768996 312.705768 
L 115.551224 312.814273 
L 115.673046 312.851303 
L 115.679458 312.845275 
L 115.814103 312.820588 
L 117.154148 312.926223 
L 117.340088 312.960095 
L 117.455498 312.954641 
L 117.46191 312.965549 
L 117.583732 312.949187 
L 117.853024 312.666155 
L 117.974846 310.751522 
L 118.058198 307.898232 
L 118.160785 308.346032 
L 118.340313 309.439698 
L 118.365959 309.126812 
L 118.378783 306.999762 
L 118.417253 292.787851 
L 118.494193 299.562262 
L 118.660898 306.451494 
L 118.955836 309.654986 
L 119.205892 310.593644 
L 119.603417 311.46341 
L 119.641888 311.337107 
L 119.680358 311.222287 
L 119.750886 311.348589 
L 119.859885 311.454798 
L 120.411291 312.014548 
L 120.513879 312.094923 
L 120.642113 312.198261 
L 121.08452 312.450866 
L 121.437163 312.559946 
L 121.661573 312.619078 
L 121.898806 312.625394 
L 122.546387 312.732177 
L 122.725915 312.758585 
L 124.636601 312.863072 
L 124.78407 312.903259 
L 126.117704 312.795902 
L 126.14335 312.732177 
L 126.277996 311.589712 
L 126.29082 311.555266 
L 126.297231 311.57823 
L 126.611405 309.84157 
L 126.662698 310.17742 
L 126.855049 310.912271 
L 126.912754 310.808933 
L 126.951225 310.154456 
L 126.989695 297.897364 
L 127.098694 305.751088 
L 127.303868 309.468403 
L 127.682158 311.276826 
L 127.996332 310.059729 
L 128.034802 310.338169 
L 128.688795 312.290118 
L 128.791382 312.393456 
L 128.996557 312.542723 
L 129.150437 312.433643 
L 129.253025 312.290118 
L 129.605668 312.65295 
L 130.035252 312.758585 
L 130.105781 312.777531 
L 130.112192 312.73189 
L 130.118604 312.666155 
L 130.176309 312.783846 
L 130.214779 312.783846 
L 130.753362 312.891777 
L 130.804656 312.820588 
L 130.900831 312.880295 
L 130.939301 312.850442 
L 131.061124 312.632283 
L 131.189358 312.625394 
L 131.195769 312.639172 
L 131.375297 312.771216 
L 131.734352 312.880295 
L 131.997232 312.971003 
L 132.580696 313.08037 
L 132.779459 313.09501 
L 134.190033 313.201793 
L 134.388795 313.214997 
L 134.626028 313.183708 
L 134.754262 313.166198 
L 134.760674 313.147827 
L 134.792733 313.170791 
L 134.876085 313.157013 
L 135.01073 313.188014 
L 136.8573 313.291927 
L 137.004769 313.303983 
L 139.466861 313.407034 
L 139.607919 313.419665 
L 139.857975 313.422822 
L 140.069561 313.441768 
L 144.282047 313.333836 
L 144.301282 313.303983 
L 144.666749 313.348763 
L 144.852688 313.403877 
L 144.987334 313.239683 
L 145.000157 313.277957 
L 145.032216 313.298625 
L 145.051451 313.1972 
L 145.070686 313.143234 
L 146.167087 313.403877 
L 156.015457 313.295945 
L 156.169337 313.09501 
L 156.32963 313.041809 
L 156.502746 313.15242 
L 156.605333 313.210691 
L 156.810507 313.303983 
L 157.644028 313.413349 
L 157.958201 313.45325 
L 158.086435 313.441768 
L 168.543917 313.3413 
L 168.723444 313.170791 
L 169.069676 312.679359 
L 169.191498 312.783846 
L 169.390261 312.926223 
L 169.807021 313.15242 
L 170.114783 313.045063 
L 170.428956 312.625394 
L 170.473838 312.679359 
L 170.672601 312.839247 
L 170.685424 312.839247 
L 170.711071 312.897518 
L 170.749541 312.909 
L 170.941892 313.035303 
L 171.281712 313.143234 
L 171.531768 313.188014 
L 172.352466 313.287908 
L 172.4807 313.303983 
L 172.891048 313.1972 
L 173.166752 312.992819 
L 173.602747 313.099889 
L 173.775863 313.161605 
L 173.936155 313.206385 
L 174.51962 313.287908 
L 174.647854 313.295945 
L 174.660677 313.256619 
L 174.82097 313.07549 
L 175.045379 313.035303 
L 175.410846 313.134048 
L 175.532669 313.15242 
L 175.53908 313.147827 
L 175.718608 313.15242 
L 176.731656 313.256906 
L 176.885537 313.272981 
L 178.732106 313.17481 
L 178.809047 311.012739 
L 178.937281 309.264597 
L 178.962928 309.198575 
L 178.988574 307.393022 
L 179.039868 295.715774 
L 179.129632 301.456801 
L 179.168102 302.587783 
L 179.193749 300.423416 
L 179.245042 269.077411 
L 179.360453 202.280568 
L 179.366865 208.308645 
L 179.527157 298.815928 
L 179.53998 298.385351 
L 180.309384 309.385158 
L 180.36709 309.695174 
L 180.578676 310.430025 
L 180.623558 310.519011 
L 180.873614 311.121819 
L 180.880026 311.113207 
L 180.963378 311.207934 
L 181.136494 311.509338 
L 181.200611 311.618417 
L 181.418608 311.888246 
L 181.514784 311.991584 
L 181.771252 312.232707 
L 182.046955 312.341787 
L 182.393187 312.519759 
L 182.399598 312.491054 
L 182.502185 312.531241 
L 182.636831 312.588651 
L 183.207472 312.514018 
L 183.284413 311.716015 
L 183.419058 311.865282 
L 183.521646 311.985843 
L 183.560116 311.888246 
L 183.592174 309.009121 
L 183.675526 275.019373 
L 183.707585 236.324855 
L 183.771702 287.219055 
L 183.861466 300.452121 
L 183.887112 291.237773 
L 183.899936 288.223734 
L 183.970465 298.500172 
L 184.169227 305.917578 
L 184.393637 308.475205 
L 184.521871 309.39664 
L 184.701398 310.384097 
L 184.97069 311.299791 
L 185.182276 311.767684 
L 185.438744 312.089182 
L 185.445155 312.071959 
L 185.515684 312.181038 
L 185.797799 312.462348 
L 185.823446 312.468089 
L 185.849092 312.5255 
L 186.650555 312.768919 
L 186.663378 312.686248 
L 186.66979 312.66271 
L 186.689025 312.759734 
L 186.759554 312.74251 
L 186.887788 312.809106 
L 187.804661 312.913593 
L 187.95213 312.961818 
L 188.663828 313.066304 
L 188.798474 313.10764 
L 188.920296 313.131752 
L 189.228058 313.174236 
L 190.702749 313.285037 
L 191.08745 313.337281 
L 193.299487 313.445786 
L 193.53672 313.465019 
L 193.703424 313.458991 
L 195.889813 313.354504 
L 196.062929 313.212126 
L 196.069341 313.215284 
L 196.114223 313.224757 
L 196.133458 313.121418 
L 196.159104 313.190023 
L 196.184751 313.044488 
L 196.274515 313.135197 
L 196.486101 313.236239 
L 196.659217 313.325799 
L 197.063154 313.386654 
L 204.55843 313.497168 
L 204.930309 313.499178 
L 205.853593 313.38895 
L 206.129297 313.406173 
L 209.469792 313.302261 
L 209.617261 312.937705 
L 209.771142 311.667216 
L 209.796788 311.727497 
L 210.200725 312.633718 
L 210.598251 313.041044 
L 210.809837 313.051378 
L 211.233009 313.161605 
L 211.630534 313.236239 
L 211.694651 313.151846 
L 211.899826 311.819353 
L 211.944708 311.919821 
L 212.201176 312.445125 
L 212.265293 312.554205 
L 212.791052 312.881443 
L 213.041108 312.984782 
L 213.239871 313.058841 
L 213.521986 313.100751 
L 213.656631 313.10764 
L 213.8041 313.10764 
L 214.695327 313.215284 
L 214.894089 313.260351 
L 215.317261 313.158448 
L 215.580141 312.965549 
L 215.843021 312.992819 
L 216.163606 312.889481 
L 216.355957 312.759734 
L 216.586778 312.737918 
L 216.811187 312.846997 
L 217.34977 313.076638 
L 217.920411 313.186866 
L 218.125586 313.236239 
L 218.478229 313.274417 
L 218.760344 313.279584 
L 221.72896 313.174236 
L 221.95337 313.037599 
L 222.318837 313.138641 
L 222.479129 313.193181 
L 222.812538 313.236239 
L 223.069006 313.134623 
L 223.216475 312.786716 
L 223.357532 312.686248 
L 223.363944 312.695434 
L 223.498589 312.724139 
L 223.671705 312.778105 
L 223.851233 312.881443 
L 224.011525 312.957799 
L 224.312875 313.066304 
L 224.742459 313.174236 
L 226.512088 313.282167 
L 226.67238 313.315465 
L 230.006464 313.233368 
L 230.070581 311.859541 
L 230.121875 307.197827 
L 230.224462 305.119575 
L 230.243697 305.176986 
L 230.29499 303.896737 
L 230.339872 302.174429 
L 230.397578 303.957018 
L 230.583517 307.226532 
L 231.045159 310.834767 
L 231.731211 312.393456 
L 231.737623 312.387715 
L 232.25697 312.70462 
L 232.750671 312.813699 
L 233.071256 312.897518 
L 233.641897 313.007746 
L 233.80219 313.026404 
L 234.719063 313.131752 
L 234.885767 313.148975 
L 236.084755 313.257194 
L 236.360458 313.279584 
L 236.48228 313.236239 
L 236.700278 313.124863 
L 236.995216 313.227627 
L 237.168332 313.282167 
L 238.40579 313.391246 
L 238.617376 313.406173 
L 241.598816 313.328956 
L 241.656521 313.337281 
L 241.733462 313.093861 
L 241.784755 313.199496 
L 241.98993 313.247721 
L 242.092517 313.271833 
L 242.098928 313.279584 
L 242.599041 313.38895 
L 242.765745 313.406173 
L 244.3302 313.512095 
L 244.496904 313.512095 
L 248.119514 313.623184 
L 248.869683 313.645 
L 254.608153 313.55544 
L 254.620977 313.481094 
L 254.710741 313.610554 
L 257.487006 313.506354 
L 257.608828 313.497168 
L 257.730651 313.508076 
L 258.051236 313.499178 
L 258.205117 313.499178 
L 258.51929 313.54281 
L 262.013666 313.447509 
L 262.045724 313.279871 
L 262.129076 313.364551 
L 262.276545 313.227627 
L 262.52019 313.336994 
L 262.712541 313.401006 
L 263.430651 313.510086 
L 263.661472 313.526735 
L 264.039763 313.53592 
L 264.302642 313.551134 
L 269.932114 313.450379 
L 269.951349 313.42885 
L 269.996231 313.489131 
L 270.034701 313.487122 
L 270.573284 313.426554 
L 270.765635 313.461 
L 271.259336 313.500613 
L 278.600731 313.40847 
L 278.684083 313.236239 
L 278.754612 313.257194 
L 278.799494 313.114529 
L 278.940551 312.905556 
L 278.966198 312.917612 
L 279.145726 313.018941 
L 279.376547 313.193181 
L 279.870248 313.315465 
L 282.101519 313.260064 
L 282.242576 312.945743 
L 282.409281 312.851303 
L 282.415692 312.855609 
L 282.59522 312.913593 
L 282.915805 312.984782 
L 283.762149 313.093861 
L 283.99297 313.180551 
L 284.172498 313.215284 
L 284.300732 313.266092 
L 284.326379 313.247721 
L 284.679022 313.15529 
L 284.800844 312.238448 
L 284.845726 310.68263 
L 284.922667 310.940976 
L 285.249663 312.117887 
L 285.35225 312.353269 
L 285.544601 312.633718 
L 285.743364 312.817718 
L 286.243477 313.076638 
L 286.249888 313.051665 
L 286.281947 313.086972 
L 286.358887 313.086972 
L 286.480709 313.161605 
L 286.51918 313.135197 
L 286.846176 313.186866 
L 287.480935 313.29652 
L 287.602757 313.29939 
L 287.61558 313.268963 
L 287.872048 313.158448 
L 288.070811 312.945743 
L 288.282397 312.834941 
L 288.500395 312.813699 
L 288.615805 312.830922 
L 288.628629 312.822311 
L 288.814568 312.830922 
L 289.045389 312.945743 
L 289.295445 313.055109 
L 289.474973 313.080083 
L 289.519855 311.782037 
L 289.545502 306.864848 
L 289.558325 303.147533 
L 289.648089 307.792023 
L 289.87891 311.044315 
L 290.084084 311.937044 
L 290.648314 312.834654 
L 290.661137 312.745094 
L 290.673961 309.870275 
L 290.725254 232.995059 
L 290.789371 295.486133 
L 290.949664 306.882071 
L 291.154838 309.652116 
L 291.507482 311.291179 
L 291.545952 311.394517 
L 292.033241 312.094923 
L 292.046064 312.066218 
L 292.14224 312.014548 
L 292.283297 311.945656 
L 292.296121 311.962879 
L 292.507707 312.071959 
L 292.962937 312.353269 
L 293.046289 312.336046 
L 293.078348 312.35901 
L 293.212994 312.336046 
L 293.770811 312.439384 
L 293.911869 312.485312 
L 294.001632 312.103534 
L 294.020868 301.663478 
L 294.084985 245.194741 
L 294.14269 291.697055 
L 294.309394 305.848686 
L 294.610744 310.019542 
L 294.636391 310.12001 
L 294.841565 311.173488 
L 294.847977 311.13043 
L 294.89927 311.342848 
L 294.924917 311.339978 
L 295.091621 311.670087 
L 294.950564 311.273956 
L 295.098033 311.638511 
L 295.117268 311.589712 
L 295.187797 311.695921 
L 295.20062 311.681569 
L 295.527617 312.267153 
L 295.534029 312.238448 
L 295.617381 312.35901 
L 295.925142 312.290118 
L 296.027729 312.020289 
L 296.059788 312.051865 
L 296.085435 312.037512 
L 296.213669 312.255671 
L 296.22008 312.221225 
L 296.297021 312.35901 
L 296.303432 312.35901 
L 296.476548 312.531241 
L 296.48296 312.5255 
L 296.995896 312.83896 
L 297.104895 312.86422 
L 297.156188 312.868526 
L 297.136953 312.800208 
L 297.207482 312.826329 
L 297.245952 312.786716 
L 297.258776 311.916951 
L 297.367775 312.106405 
L 298.124355 312.658117 
L 298.130767 312.648358 
L 298.265412 312.67247 
L 298.425705 312.724139 
L 298.432117 312.719259 
L 298.650114 312.813699 
L 298.797583 312.893499 
L 298.919406 312.913593 
L 299.34899 313.018941 
L 299.483635 313.058841 
L 299.490047 313.055109 
L 299.650339 313.086972 
L 299.708045 313.015209 
L 299.784985 313.080083 
L 299.938866 313.066304 
L 299.996571 313.090417 
L 300.054276 313.066304 
L 300.759563 313.177393 
L 301.131442 313.24485 
L 301.285323 313.250878 
L 302.74719 313.361967 
L 302.939541 313.377468 
L 305.568338 313.367421 
L 305.587573 313.208969 
L 305.677337 313.323215 
L 305.837629 313.33441 
L 306.02998 313.29939 
L 306.196684 313.290779 
L 306.510857 313.369718 
L 306.639091 313.177393 
L 306.876324 313.090417 
L 307.075087 313.205811 
L 307.235379 313.202654 
L 307.248203 313.171078 
L 307.414907 313.051378 
L 307.902196 313.085824 
L 307.934255 311.497856 
L 307.959901 266.350423 
L 308.043253 303.448937 
L 308.235604 309.032085 
L 308.524131 311.199323 
L 308.690835 311.716015 
L 308.71007 311.652864 
L 308.825481 310.028153 
L 308.889598 310.384097 
L 309.165301 311.569619 
L 309.761589 312.633718 
L 309.864176 312.690841 
L 310.101409 312.799921 
L 310.242466 312.842978 
L 310.665638 312.980763 
L 311.159339 313.083527 
L 311.306808 313.111084 
L 311.479924 313.138641 
L 311.774862 313.174236 
L 312.768676 313.282167 
L 312.954615 313.307715 
L 313.172613 313.337281 
L 319.827956 313.445786 
L 320.039542 313.449805 
L 320.744829 313.339577 
L 320.879475 313.018941 
L 320.975651 312.913593 
L 321.110296 312.885462 
L 321.392411 313.066304 
L 321.661702 313.174236 
L 321.738643 313.171078 
L 321.751466 313.131752 
L 321.886112 313.055109 
L 322.206697 312.996551 
L 322.44393 313.10764 
L 322.790161 313.215284 
L 322.944042 313.24485 
L 323.155628 313.271833 
L 325.816483 313.382061 
L 326.008834 313.386654 
L 326.175539 313.367134 
L 327.618171 313.268963 
L 327.919521 312.846997 
L 328.342693 312.957799 
L 328.656866 313.037599 
L 328.868452 312.175297 
L 328.964628 311.658605 
L 328.996686 311.716015 
L 329.060803 311.825094 
L 329.522445 312.594392 
L 330.022558 312.897518 
L 330.266203 313.000283 
L 330.413672 313.037599 
L 330.894549 313.145531 
L 331.195899 313.186866 
L 331.394662 313.212126 
L 331.862716 313.104195 
L 331.978126 312.929668 
L 332.151242 312.422161 
L 332.241006 312.468089 
L 332.471827 312.67247 
L 332.478239 312.667877 
L 333.016821 312.925649 
L 333.12582 312.961818 
L 333.337406 313.037599 
L 333.516934 313.069749 
L 333.895224 313.148975 
L 335.286563 313.250878 
L 335.434032 313.271833 
L 338.736057 313.377468 
L 338.870703 313.379764 
L 339.204111 313.377468 
L 339.35158 313.377468 
L 341.73032 313.276713 
L 341.788026 312.364751 
L 341.832908 310.223348 
L 341.87779 306.333803 
L 341.95473 307.43608 
L 342.191963 309.924815 
L 342.538195 311.635641 
L 343.294775 312.773512 
L 343.397362 312.795328 
L 343.53842 312.842978 
L 343.794888 312.881443 
L 344.173178 313.018941 
L 344.17959 313.000283 
L 344.288588 313.022673 
L 344.295 313.030136 
L 345.711986 313.128307 
L 345.833808 313.148975 
L 345.84022 313.145531 
L 345.962042 313.148975 
L 345.974865 313.124863 
L 346.006924 313.142086 
L 346.077452 313.135197 
L 346.205686 313.164763 
L 346.378802 313.180551 
L 346.513448 313.196339 
L 346.82121 313.224757 
L 349.033246 313.33441 
L 349.31536 313.339864 
L 350.642582 313.233368 
L 350.982402 312.945743 
L 351.360693 313.062573 
L 351.456868 313.100751 
L 351.61716 313.186866 
L 351.956981 313.293649 
L 352.18139 313.347615 
L 355.079478 313.247721 
L 355.271829 313.148975 
L 355.528297 313.247721 
L 355.682178 313.315465 
L 355.887352 313.205811 
L 356.054056 313.186866 
L 356.342583 313.288195 
L 356.48364 313.3568 
L 356.631109 313.351633 
L 356.74652 313.392777 
L 356.86193 313.386654 
L 356.759343 313.402729 
L 356.874754 313.403303 
L 356.893989 313.394117 
L 356.990164 313.414498 
L 357.285102 313.221599 
L 357.355631 313.066304 
L 357.381278 313.121418 
L 357.38769 312.995403 
L 357.490277 312.014548 
L 357.522335 312.064304 
L 357.740333 312.477658 
L 357.900626 312.7095 
L 358.176329 312.929668 
L 358.291739 313.037599 
L 359.227847 313.417655 
L 361.407825 313.525012 
L 361.606588 313.520994 
L 363.927623 313.425406 
L 363.946858 313.369718 
L 364.017386 313.499178 
L 364.286678 313.414211 
L 364.299501 313.274417 
L 364.395677 313.439471 
L 364.844496 313.483103 
L 366.659007 313.593331 
L 368.210638 313.519271 
L 368.364518 313.487122 
L 372.012775 313.597636 
L 372.512888 313.599072 
L 372.97453 313.514104 
L 373.775993 313.445786 
L 373.827286 312.417568 
L 373.846521 307.15764 
L 373.942697 310.12288 
L 373.99399 310.527622 
L 374.058107 310.23483 
L 374.109401 310.441507 
L 374.231223 311.164876 
L 374.263282 310.883566 
L 374.29534 305.886003 
L 374.314575 302.303602 
L 374.397927 306.537609 
L 374.724924 310.748652 
L 375.135273 312.35901 
L 375.340447 312.594392 
L 375.35327 312.58578 
L 375.596915 312.826617 
L 375.744384 312.737344 
L 375.757208 312.695434 
L 375.821325 312.877138 
L 375.834148 312.86422 
L 375.981617 312.949762 
L 376.462494 313.121418 
L 377.206252 313.230498 
L 377.411426 313.268963 
L 378.065419 313.093861 
L 378.578355 313.203706 
L 378.725824 313.221599 
L 378.943822 313.236239 
L 381.777793 313.342448 
L 381.957321 313.349911 
L 382.290729 313.345031 
L 382.534373 313.325799 
L 382.842135 313.320632 
L 384.053946 313.212126 
L 384.522 312.905556 
L 384.752821 312.889481 
L 385.291404 312.992819 
L 385.977456 313.148975 
L 386.047985 313.121418 
L 386.092866 313.161605 
L 386.36857 313.174236 
L 387.12515 313.066304 
L 387.535499 312.945743 
L 387.682968 313.007746 
L 387.68938 313.004014 
L 388.035611 313.080083 
L 388.676781 313.190023 
L 388.997366 313.224757 
L 390.260471 313.33154 
L 390.44641 313.349911 
L 390.632349 313.347615 
L 394.556309 313.247721 
L 394.812777 313.007746 
L 395.415477 313.111084 
L 395.569358 313.161605 
L 395.742474 313.199496 
L 395.922001 313.221599 
L 396.075882 313.218442 
L 396.210528 313.199496 
L 396.646523 313.090417 
L 396.858109 313.022673 
L 397.371045 312.917612 
L 397.492867 312.909574 
L 397.556984 312.86422 
L 397.569808 312.830635 
L 397.608278 312.353269 
L 397.723689 307.378669 
L 397.845511 308.879948 
L 398.134037 311.001257 
L 398.249448 311.460539 
L 398.300742 311.216546 
L 398.40974 311.13043 
L 398.428975 311.139042 
L 398.627738 311.368683 
L 398.71109 311.46628 
L 398.986793 311.893987 
L 399.345848 312.313082 
L 399.384319 312.353269 
L 399.409965 312.24993 
L 399.442024 311.345719 
L 399.474082 304.628718 
L 399.602316 307.292554 
L 399.794667 309.683692 
L 400.051135 311.182099 
L 400.326838 311.928433 
L 400.403779 312.02316 
L 400.551248 312.221225 
L 400.564071 312.215484 
L 401.27577 312.70462 
L 401.718177 312.813699 
L 401.865646 312.868526 
L 402.025939 312.893499 
L 402.269583 312.917612 
L 404.782969 313.026404 
L 404.949673 313.051378 
L 405.552373 313.161605 
L 405.731901 313.186866 
L 406.026839 313.044488 
L 406.206366 313.051378 
L 406.341012 312.905556 
L 406.430776 312.881443 
L 406.437188 312.851303 
L 406.55901 312.244189 
L 406.700067 311.51795 
L 406.744949 311.589712 
L 407.071946 312.24993 
L 407.31559 312.588651 
L 407.437413 312.690841 
L 407.443824 312.700027 
L 407.456648 312.615921 
L 407.50153 312.594392 
L 407.687469 312.370492 
L 407.770821 309.313395 
L 407.899055 310.722817 
L 408.110641 311.535173 
L 408.155523 311.641382 
L 408.501755 312.261412 
L 408.540225 312.017419 
L 408.578695 308.55845 
L 408.610754 279.210323 
L 408.706929 297.725133 
L 408.796693 303.583851 
L 408.82234 298.270531 
L 408.835163 295.112966 
L 408.918515 302.897798 
L 409.130101 308.16232 
L 409.2391 309.132553 
L 409.27757 308.762257 
L 409.303217 308.047499 
L 409.392981 308.521134 
L 409.476333 303.268094 
L 409.566097 305.277454 
L 409.886682 309.431086 
L 410.213678 310.975423 
L 410.688144 311.945656 
L 410.790731 312.054736 
L 410.983082 312.261412 
L 411.508842 312.588651 
L 411.855073 312.690841 
L 411.861485 312.700027 
L 411.906367 312.594392 
L 412.002542 311.919821 
L 411.951249 312.628838 
L 412.092306 312.24993 
L 412.150012 312.290118 
L 412.175658 312.318823 
L 412.18207 312.336046 
L 412.246187 312.267153 
L 412.278246 312.290118 
L 412.470596 312.267153 
L 412.502655 309.135424 
L 412.534713 294.481453 
L 412.624477 303.988593 
L 412.82324 309.419604 
L 413.054061 310.992646 
L 413.387469 311.980102 
L 413.624702 312.313082 
L 413.784995 312.404938 
L 413.938876 312.548464 
L 414.297931 312.728732 
L 414.419753 312.768919 
L 414.586457 312.818005 
L 414.676221 312.804514 
L 414.695456 312.768919 
L 414.82369 312.759734 
L 414.830102 312.764326 
L 415.08657 312.813699 
L 415.105805 312.762891 
L 415.112217 312.619365 
L 415.208392 312.809106 
L 415.323803 312.846997 
L 415.330214 312.834654 
L 415.343038 312.226966 
L 415.375096 281.678964 
L 415.471272 304.427782 
L 415.50333 303.024101 
L 415.580271 304.370372 
L 415.689269 306.698358 
L 415.708505 306.451494 
L 415.791857 298.04089 
L 415.84315 301.944788 
L 416.029089 308.282881 
L 416.304793 310.587903 
L 416.535614 311.451928 
L 416.881845 312.071959 
L 416.965198 312.175297 
L 417.196019 312.381974 
L 417.20243 312.376233 
L 417.574309 312.565687 
L 417.619191 312.496795 
L 417.632014 312.419291 
L 417.721778 312.5255 
L 417.734601 312.531241 
L 417.747425 312.307341 
L 417.850012 312.422161 
L 417.971834 312.456607 
L 418.459123 312.746816 
L 418.574534 312.778105 
L 418.82459 312.852738 
L 419.811992 312.992819 
L 419.831227 312.893499 
L 419.920991 312.976744 
L 420.48522 313.086972 
L 420.754512 313.10764 
L 421.523916 313.212126 
L 421.664973 313.224757 
L 421.934264 313.193181 
L 421.953499 313.069749 
L 422.049675 313.111084 
L 422.235614 313.135197 
L 422.556199 313.117974 
L 422.575434 312.804514 
L 422.67161 312.945743 
L 423.158899 313.055109 
L 423.357662 313.117974 
L 423.864186 313.227627 
L 424.255299 313.282167 
L 427.557324 313.38895 
L 427.73044 313.377468 
L 435.783534 313.285037 
L 435.822005 312.90125 
L 435.943827 311.406 
L 436.007944 311.618417 
L 436.123354 311.951397 
L 436.591408 312.893499 
L 437.245402 313.174236 
L 437.335166 313.090417 
L 437.392871 312.18965 
L 437.431341 310.303722 
L 437.495458 308.11065 
L 437.565987 308.432148 
L 437.84169 310.163067 
L 438.130216 311.526561 
L 438.412331 312.209743 
L 438.732916 312.557075 
L 439.733141 312.889481 
L 439.816493 310.40132 
L 439.91908 299.964134 
L 440.015256 304.1924 
L 440.233254 308.937358 
L 440.630779 311.397388 
L 440.771836 311.767684 
L 441.105245 312.244189 
L 441.720768 312.648358 
L 441.855413 312.562816 
L 441.88106 312.066218 
L 441.900295 285.12358 
L 441.938765 140.392302 
L 442.041353 155.318971 
L 442.047764 154.936236 
L 442.054176 161.059997 
L 442.272174 296.404697 
L 442.509407 305.753959 
L 442.829992 309.258856 
L 443.253164 310.940976 
L 443.298046 311.044315 
L 443.599396 311.543784 
L 443.721218 311.509338 
L 443.734041 311.535173 
L 443.945627 311.684439 
L 443.958451 311.667216 
L 444.06745 311.704533 
L 444.240565 311.79926 
L 444.304682 311.79926 
L 444.343153 311.825094 
L 444.580385 311.928433 
L 444.721443 311.997325 
L 444.82403 312.040383 
L 444.958676 312.083441 
L 445.138203 312.19252 
L 445.478023 312.353269 
L 445.997371 312.462348 
L 446.22178 312.519759 
L 446.888597 312.628838 
L 447.042478 312.667877 
L 448.017056 312.778105 
L 448.170937 312.799921 
L 449.414807 312.905556 
L 449.562276 312.917612 
L 449.748215 312.929668 
L 452.14619 313.037599 
L 452.293659 313.041044 
L 452.479599 313.066304 
L 453.159239 312.961818 
L 453.325943 312.881443 
L 453.454177 312.868526 
L 454.723693 312.976744 
L 455.025043 313.041044 
L 455.217394 313.062573 
L 455.42898 313.066304 
L 455.531568 313.033868 
L 455.544391 313.037599 
L 457.660252 313.142086 
L 457.814132 313.148975 
L 461.109746 313.066017 
L 461.225156 311.325625 
L 461.35339 311.845188 
L 461.53933 312.35901 
L 461.750916 312.686248 
L 461.904796 312.846997 
L 462.392086 313.041044 
L 462.545966 313.083527 
L 463.379487 313.186866 
L 463.514133 313.212126 
L 465.040117 313.141799 
L 465.072176 312.565687 
L 465.174763 312.830922 
L 465.553053 312.929668 
L 465.700522 313.007746 
L 465.989049 313.111084 
L 466.14293 313.148975 
L 467.739443 313.257194 
L 467.938205 313.236239 
L 468.124145 313.212126 
L 468.265202 313.199496 
L 469.695011 313.305131 
L 469.84248 313.315465 
L 471.041468 313.223896 
L 471.118408 311.905469 
L 471.195348 312.353269 
L 471.490287 312.830922 
L 471.689049 312.941724 
L 471.907047 313.066304 
L 471.913459 313.051665 
L 472.073751 309.212927 
L 472.131456 310.323816 
L 472.40716 312.112146 
L 472.86239 312.799921 
L 472.875214 312.759447 
L 472.90086 312.502536 
L 472.990624 312.667877 
L 473.176563 312.813699 
L 473.394561 312.921631 
L 473.894674 313.104195 
L 474.266552 313.186866 
L 474.394786 313.208969 
L 474.542255 313.171078 
L 474.728195 313.044488 
L 474.875664 313.047933 
L 474.882075 313.030136 
L 475.029544 312.893499 
L 475.433481 313.00057 
L 475.638656 313.070897 
L 476.036181 313.179977 
L 476.228532 313.224183 
L 479.613909 313.417655 
L 479.876789 313.432582 
L 480.005023 313.426554 
L 480.223021 313.432582 
L 482.851817 313.323215 
L 483.018522 313.236239 
L 483.621221 313.386654 
L 483.787925 313.40359 
L 493.50165 313.511234 
L 493.719647 313.517549 
L 494.117173 313.507789 
L 501.253394 313.407321 
L 501.631684 312.893212 
L 501.638096 312.900676 
L 502.272854 313.118261 
L 502.279266 313.07262 
L 502.336971 313.009468 
L 502.401088 313.037312 
L 502.587027 312.904982 
L 502.728084 312.897518 
L 503.292314 313.121418 
L 503.824485 313.230498 
L 504.189952 313.274417 
L 508.626848 313.383209 
L 508.819199 313.387802 
L 509.723248 313.279296 
L 510.268243 313.157013 
L 510.864531 313.263796 
L 511.076117 313.30915 
L 511.287703 313.329817 
L 511.460819 313.347615 
L 512.364868 313.282167 
L 512.557219 313.215284 
L 512.807275 313.215284 
L 514.93596 313.323215 
L 515.134722 313.347615 
L 515.320661 313.257194 
L 515.513012 312.3016 
L 515.557894 312.370492 
L 515.95542 312.872832 
L 515.961831 312.868526 
L 516.03236 311.371553 
L 516.077242 299.849313 
L 516.1093 290.089568 
L 516.179829 300.911403 
L 516.37218 309.471274 
L 516.461944 310.504658 
L 516.782529 311.80213 
L 516.827411 311.555266 
L 516.904351 311.167747 
L 516.968468 311.339978 
L 517.154407 311.793519 
L 517.167231 311.365812 
L 517.186466 267.125462 
L 517.263406 166.513972 
L 517.301877 241.147317 
L 517.436522 295.371312 
L 517.635285 304.186659 
L 518.039222 308.116391 
L 518.276455 309.109589 
L 518.29569 309.189963 
L 518.507276 309.930556 
L 518.513688 309.916203 
L 518.564981 310.048247 
L 518.789391 310.56781 
L 518.853508 310.659666 
L 519.000977 310.854861 
L 519.065094 310.659666 
L 519.109976 310.831897 
L 519.129211 310.889307 
L 519.161269 310.613738 
L 519.199739 310.590774 
L 519.308738 309.916203 
L 519.347209 310.005189 
L 519.366444 310.062599 
L 519.513913 310.407061 
L 519.763969 310.995516 
L 519.770381 310.958199 
L 519.853733 311.121819 
L 520.039672 311.348589 
L 520.046084 311.337107 
L 520.148671 311.417482 
L 520.206376 311.57823 
L 520.270493 311.490201 
L 520.37308 311.147653 
L 520.405139 305.231525 
L 520.462844 274.789732 
L 520.520549 296.318582 
L 520.693665 306.566314 
L 520.956545 309.439698 
L 520.962957 309.425345 
L 521.398952 311.46341 
L 521.591303 311.951397 
L 521.610538 311.825094 
L 521.668244 311.638511 
L 521.629773 311.845188 
L 521.725949 311.796389 
L 522.238885 312.491054 
L 522.283767 312.430773 
L 522.341472 312.519759 
L 522.540235 312.611615 
L 522.649234 312.606448 
L 522.662057 312.643478 
L 522.771056 312.702323 
L 522.777468 312.689119 
L 522.790291 312.258542 
L 522.803114 300.480826 
L 522.905702 307.797764 
L 523.110876 310.935235 
L 523.328874 311.888246 
L 523.386579 311.994455 
L 523.553283 312.373362 
L 523.989279 312.777531 
L 524.188041 312.882592 
L 524.322687 312.926223 
L 524.553508 312.989088 
L 524.566332 312.931677 
L 524.656095 313.008894 
L 524.662507 313.004014 
L 524.842035 312.999134 
L 524.983092 313.024395 
L 525.085679 313.008894 
L 525.104914 313.029562 
L 525.335735 313.067453 
L 525.874318 313.16993 
L 526.008964 313.191459 
L 526.25902 313.223609 
L 526.438548 313.238535 
L 528.015826 313.13979 
L 528.14406 313.067453 
L 528.150471 313.081231 
L 528.342822 313.182847 
L 528.477468 313.203515 
L 528.765994 313.257194 
L 529.862395 313.367995 
L 530.125275 313.377468 
L 530.324037 313.40158 
L 534.350584 313.343309 
L 534.369819 313.220738 
L 534.465995 313.27413 
L 535.100753 313.380913 
L 535.273869 313.416507 
L 537.864195 313.524821 
L 538.018076 313.52329 
L 538.607953 313.517549 
L 538.781068 313.524725 
L 538.928538 313.531902 
L 538.934949 313.509512 
L 539.550472 313.472769 
L 539.704353 313.485686 
L 539.903116 313.504919 
L 540.095467 313.503771 
L 544.256659 313.398997 
L 544.282306 313.320058 
L 544.365658 313.405025 
L 544.743949 313.3568 
L 544.961946 313.426267 
L 545.103004 313.445786 
L 545.282531 313.450953 
L 550.142599 313.407895 
L 550.168246 312.758872 
L 550.25801 313.122566 
L 550.386244 313.085824 
L 550.405479 313.099602 
L 550.89918 313.322354 
L 551.174883 313.29939 
L 551.456998 313.328095 
L 553.303567 313.434878 
L 553.438213 313.413062 
L 554.111441 313.109936 
L 555.246312 313.407608 
L 558.413691 313.301974 
L 558.631689 313.217867 
L 558.638101 313.2371 
L 558.670159 313.193755 
L 558.734276 313.181986 
L 559.022802 313.243128 
L 562.44665 313.448944 
L 562.56206 313.44636 
L 562.792882 313.427415 
L 562.978821 313.186005 
L 563.010879 310.573551 
L 563.062173 299.189095 
L 563.16476 305.642009 
L 563.350699 308.968934 
L 563.434051 309.672209 
L 563.459698 309.192834 
L 563.498168 297.696428 
L 563.587932 263.508615 
L 563.626402 279.066797 
L 563.761048 304.30435 
L 563.959811 308.271399 
L 564.286807 310.200384 
L 564.870272 311.888246 
L 565.325503 312.522629 
L 565.331914 312.493924 
L 565.5435 312.600133 
L 565.793557 312.689693 
L 565.819203 312.676489 
L 565.864085 312.765188 
L 565.88332 312.752844 
L 566.024378 312.789587 
L 566.627078 312.87685 
L 566.723253 312.898953 
L 566.736076 312.888046 
L 567.39007 312.973874 
L 567.409305 313.024108 
L 567.50548 312.989375 
L 567.742713 313.053674 
L 567.749125 313.044201 
L 567.883771 313.073576 
L 567.999181 313.067453 
L 568.204356 313.09501 
L 568.294119 312.796763 
L 568.319766 292.041517 
L 568.358236 256.418448 
L 568.422353 295.658364 
L 568.595469 305.756829 
L 568.608293 305.610433 
L 568.665998 303.598203 
L 568.730115 305.297547 
L 568.999406 308.719199 
L 569.268698 310.140103 
L 569.287933 310.223348 
L 569.582871 311.383035 
L 569.602106 311.371553 
L 570.275334 312.404938 
L 570.288158 312.399197 
L 570.320216 312.476701 
L 570.326628 312.47096 
L 570.442039 312.580039 
L 570.44845 312.571428 
L 570.454862 312.562816 
L 570.499744 312.65008 
L 570.531802 312.636876 
L 570.801094 312.752844 
L 570.916504 312.777531 
L 571.544851 312.87685 
L 571.673085 312.931677 
L 571.679496 312.909861 
L 571.743613 312.999134 
L 571.775672 312.948039 
L 571.916729 313.014061 
L 571.929553 312.999134 
L 572.03214 313.034442 
L 572.14755 313.043914 
L 572.262961 313.04822 
L 572.269373 313.014061 
L 572.429665 312.548464 
L 572.564311 312.439384 
L 572.596369 312.47383 
L 572.666898 312.531241 
L 572.769485 312.637163 
L 572.795132 312.611615 
L 573.01313 312.505406 
L 573.064423 312.47383 
L 573.109305 312.52837 
L 573.154187 312.514018 
L 573.231128 312.557075 
L 573.76971 312.898953 
L 573.878709 312.926223 
L 573.885121 312.942585 
L 573.987708 312.842404 
L 574.013355 312.505119 
L 574.064648 283.860554 
L 574.148001 302.846129 
L 574.346763 307.869527 
L 574.571173 309.623411 
L 574.577584 309.611929 
L 575.01358 311.497856 
L 575.019992 311.486374 
L 575.058462 311.609806 
L 575.071285 311.612676 
L 575.295695 312.071959 
L 575.302106 312.037512 
L 575.359812 312.152333 
L 575.39187 312.152333 
L 575.603456 312.430773 
L 575.609868 312.422161 
L 575.840689 312.580039 
L 575.872748 312.554205 
L 575.911218 312.663284 
L 575.943276 312.624245 
L 576.33439 312.727584 
L 576.462624 312.759159 
L 576.469036 312.740214 
L 576.507506 312.795615 
L 576.558799 312.807671 
L 576.994795 312.758011 
L 577.001207 312.669886 
L 577.09097 312.876276 
L 577.097382 312.853312 
L 577.219204 312.789587 
L 577.27691 312.745955 
L 577.308968 309.3421 
L 577.321792 306.945222 
L 577.417967 309.965002 
L 577.610318 311.543784 
L 577.629553 311.621288 
L 577.815492 312.195391 
L 578.027079 312.600133 
L 578.232253 312.765475 
L 578.302782 312.752844 
L 578.29637 312.789587 
L 578.33484 312.795615 
L 578.456662 312.836663 
L 578.463074 312.81944 
L 578.501544 312.882592 
L 578.552838 312.882592 
L 578.879835 313.024395 
L 579.01448 313.058267 
L 579.181184 313.074342 
L 579.867236 313.183421 
L 580.001882 313.213275 
L 580.008294 313.209543 
L 580.142939 313.209543 
L 580.251938 313.142373 
L 580.25835 313.149836 
L 580.316055 313.146105 
L 580.367349 313.175958 
L 580.617405 313.194616 
L 581.970273 313.295945 
L 582.085684 313.295945 
L 582.188271 313.31202 
L 582.201095 313.322354 
L 585.131241 313.433156 
L 585.137653 313.438323 
L 585.573648 313.395552 
L 585.586472 313.337855 
L 585.689059 313.359097 
L 588.52303 313.469324 
L 588.702558 313.479658 
L 588.869262 313.448657 
L 589.92078 313.340725 
L 590.132366 313.286473 
L 590.279835 313.308576 
L 590.305482 313.216145 
L 590.337541 312.89149 
L 590.433716 313.073768 
L 590.773536 313.174523 
L 590.972299 313.304557 
L 594.274324 313.488844 
L 602.75059 313.378616 
L 602.994235 313.378616 
L 603.31482 313.407321 
L 603.462289 313.418803 
L 603.827756 313.461861 
L 604.007283 313.456694 
L 606.725844 313.346466 
L 606.905371 313.248869 
L 607.245191 313.31202 
L 607.418307 313.334984 
L 607.559365 313.361967 
L 610.495923 313.469324 
L 610.553628 313.471908 
L 610.566451 313.44837 
L 610.778037 311.991584 
L 610.842154 312.031771 
L 611.169151 312.594392 
L 611.207621 312.584824 
L 611.393561 310.808933 
L 611.476913 311.07302 
L 611.797498 312.175297 
L 611.810321 312.169556 
L 611.868026 310.094175 
L 611.925732 307.757577 
L 611.989849 308.592897 
L 612.22067 310.771616 
L 612.797723 312.433643 
L 612.804134 312.422161 
L 612.874663 312.500622 
L 613.009309 312.43173 
L 613.054191 311.896857 
L 613.156778 308.041758 
L 613.259365 308.914394 
L 613.624832 311.199323 
L 613.727419 311.52082 
L 613.95824 311.991584 
L 614.099298 312.144678 
L 614.272413 310.097045 
L 614.355766 310.326687 
L 614.400647 310.498917 
L 614.644292 311.340935 
L 614.971289 311.922692 
L 616.016396 312.677924 
L 616.131806 312.714954 
L 616.375451 312.778105 
L 617.189737 312.673331 
L 617.330794 312.387715 
L 617.471851 312.399197 
L 617.715496 312.519759 
L 617.721908 312.508277 
L 618.029669 311.027092 
L 618.087374 311.118948 
L 618.151491 311.225157 
L 618.29896 311.586842 
L 618.452841 311.882505 
L 618.696486 312.244189 
L 618.959365 312.523586 
L 618.972189 312.514018 
L 619.331244 312.624245 
L 619.46589 312.673331 
L 620.491762 312.773512 
L 620.613584 312.79418 
L 620.921345 312.899049 
L 621.055991 312.920482 
L 621.16499 312.911297 
L 621.184225 312.929668 
L 621.338106 312.938854 
L 621.344518 312.948039 
L 621.671514 312.957225 
L 621.838218 312.711509 
L 621.870277 312.450866 
L 621.992099 312.238448 
L 622.011334 312.24993 
L 622.274214 312.341787 
L 622.620446 312.117887 
L 622.626857 312.152333 
L 623.627082 312.684239 
L 623.704023 312.700601 
L 623.72967 312.718398 
L 623.877139 312.747677 
L 624.402898 312.462348 
L 624.665778 312.571428 
L 624.794012 312.624245 
L 624.935069 312.41642 
L 625.185125 311.773425 
L 625.191537 311.779166 
L 625.794237 312.201132 
L 625.84553 312.169556 
L 625.890412 312.232707 
L 625.896824 312.232707 
L 626.198174 312.341787 
L 626.576464 312.542723 
L 626.627758 312.531241 
L 626.679051 312.571428 
L 626.922696 312.646061 
L 627.191987 312.56186 
L 627.339456 308.868466 
L 627.461278 309.853052 
L 628.10886 312.020289 
L 628.115272 312.014548 
L 628.140919 312.071959 
L 628.172977 312.106405 
L 628.878264 312.594392 
L 629.102673 312.5255 
L 629.237319 312.559946 
L 629.250143 312.542723 
L 629.295024 312.594392 
L 629.339906 312.600133 
L 629.647668 312.737344 
L 629.775902 312.739066 
L 629.788725 311.652864 
L 629.833607 270.053386 
L 629.923371 298.241826 
L 630.102898 307.459044 
L 630.199074 308.945013 
L 630.224721 308.337421 
L 630.276014 304.734927 
L 630.352955 306.517515 
L 630.590188 309.910462 
L 630.596599 309.836786 
L 630.615834 305.48126 
L 630.660716 279.870541 
L 630.724833 300.050249 
L 630.904361 307.665721 
L 630.955654 308.079075 
L 630.968478 307.628404 
L 630.987713 306.440012 
L 631.071065 308.426407 
L 631.269828 310.005189 
L 631.372415 310.34391 
L 631.410885 310.17742 
L 631.423709 310.154456 
L 631.46859 310.283629 
L 631.693 310.751522 
L 631.891763 311.216546 
L 632.128995 311.586842 
L 632.141819 311.57823 
L 632.193112 311.672957 
L 632.385463 311.882505 
L 632.391875 311.865282 
L 632.398287 311.891116 
L 632.488051 311.922692 
L 632.686813 312.031771 
L 632.706048 312.014548 
L 632.834282 312.123628 
L 632.872752 312.129369 
L 632.891988 309.597576 
L 632.97534 284.06149 
L 633.01381 293.247133 
L 633.186926 306.606501 
L 633.398512 309.33923 
L 633.661391 310.659666 
L 633.719097 310.74004 
L 633.924271 311.383035 
L 634.001212 311.486374 
L 634.206386 311.731324 
L 634.341032 311.041444 
L 634.385913 311.095984 
L 634.97579 311.980102 
L 634.982201 311.773425 
L 635.007848 310.854861 
L 635.097612 311.314143 
L 635.270728 311.747591 
L 635.450256 312.008807 
L 635.482314 310.869214 
L 635.565666 306.457235 
L 635.61696 307.154769 
L 635.623371 307.140417 
L 635.636195 306.523256 
L 635.719547 308.007312 
L 636.008073 310.427154 
L 636.014485 310.418543 
L 636.03372 310.533363 
L 636.226071 311.199323 
L 636.232483 311.182099 
L 636.533833 311.681569 
L 636.655655 311.782037 
L 636.745419 311.905469 
L 636.777477 311.882505 
L 636.8993 311.991584 
L 636.963417 311.807871 
L 637.046769 311.859541 
L 637.066004 311.899728 
L 637.085239 311.767684 
L 637.149356 309.416734 
L 637.226296 310.998387 
L 637.341707 311.477762 
L 637.367354 311.451928 
L 637.393 310.461601 
L 637.405824 304.36176 
L 637.501999 308.661789 
L 637.707174 310.355392 
L 637.95723 311.288308 
L 637.989288 311.147653 
L 638.027759 310.530493 
L 638.085464 304.910028 
L 638.181639 307.352835 
L 638.399637 309.672209 
L 638.694575 310.909401 
L 638.93822 311.443316 
L 639.521684 312.048994 
L 639.707624 312.152333 
L 639.938445 312.290118 
L 640.041032 312.290118 
L 640.066679 312.318823 
L 640.316735 312.41642 
L 640.412911 312.381974 
L 640.361617 312.439384 
L 640.438557 312.393456 
L 640.656555 312.450866 
L 640.707849 311.213675 
L 640.771966 311.971491 
L 640.945082 312.284377 
L 641.515723 312.650654 
L 641.573428 312.650654 
L 641.61831 312.694286 
L 641.752956 312.714954 
L 641.95813 312.757437 
L 642.028659 312.757437 
L 642.060717 312.788439 
L 642.18254 312.778105 
L 642.406949 312.837812 
L 642.413361 312.828052 
L 643.528996 312.929381 
L 643.58029 312.934261 
L 643.586702 312.915124 
L 643.605937 312.117887 
L 643.702112 312.736769 
L 643.971404 312.837812 
L 644.093226 312.862211 
L 644.253518 312.818292 
L 644.33687 312.798773 
L 644.400987 311.050056 
L 644.503575 311.905469 
L 644.913923 312.694286 
L 645.074216 312.720408 
L 645.176803 309.11533 
L 645.183215 309.261726 
L 645.196038 306.279263 
L 645.292214 309.568871 
L 645.478153 311.245251 
L 645.753856 312.152333 
L 645.811561 312.24993 
L 646.023147 312.502536 
L 646.388614 312.683378 
L 646.459143 312.67247 
L 646.504025 312.699453 
L 646.645082 312.75227 
L 646.90155 312.818292 
L 647.337546 312.778105 
L 647.510662 311.733238 
L 647.549132 311.721756 
L 647.561955 311.638511 
L 647.58119 311.371553 
L 647.606837 310.094175 
L 647.696601 310.671148 
L 647.946657 311.569619 
L 647.991539 306.221853 
L 648.094126 309.419604 
L 648.357006 311.095984 
L 648.889177 312.209743 
L 649.485465 312.600133 
L 649.761168 312.70462 
L 649.92146 312.757437 
L 650.960156 312.862211 
L 651.094801 312.89637 
L 652.319436 312.828052 
L 652.345083 312.419291 
L 652.364318 308.997639 
L 652.454082 311.460539 
L 652.575904 312.031771 
L 652.582315 311.796389 
L 652.607962 309.250244 
L 652.620786 301.456801 
L 652.716961 309.155517 
L 652.922136 311.061538 
L 653.217074 312.097793 
L 653.223485 312.089182 
L 653.479953 312.468089 
L 653.595364 312.577169 
L 653.890302 312.699453 
L 654.031359 312.720408 
L 654.101888 312.747103 
L 654.133947 312.722226 
L 654.14677 311.678698 
L 654.159593 279.69831 
L 654.198064 36.19267 
L 654.268592 241.204727 
L 654.40965 296.548223 
L 654.608412 304.740668 
L 654.813587 307.180604 
L 654.839234 306.328062 
L 654.871292 299.677082 
L 654.922586 208.107709 
L 654.986703 287.333875 
L 655.159819 302.645193 
L 655.46758 307.114582 
L 655.679166 308.236953 
L 655.916399 309.373676 
L 655.922811 309.362194 
L 655.967693 309.477015 
L 656.275454 310.188902 
L 656.333159 310.280758 
L 656.416512 310.464471 
L 656.474217 307.387281 
L 656.570392 308.16232 
L 656.890977 309.543036 
L 656.910212 309.438741 
L 657.019211 304.901416 
L 657.076917 302.002198 
L 657.147445 303.24226 
L 657.46803 306.752898 
L 657.750145 308.351773 
L 657.788615 308.225471 
L 657.878379 307.172949 
L 657.936084 306.164442 
L 658.025848 306.508904 
L 658.18614 307.398763 
L 658.340021 308.171888 
L 658.705488 309.362194 
L 658.756782 309.45405 
L 658.910662 309.832958 
L 658.929898 309.78703 
L 659.000426 309.878886 
L 659.006838 309.901851 
L 659.026073 309.706656 
L 659.05172 306.029528 
L 659.096602 274.473976 
L 659.109425 275.478656 
L 659.404363 306.76725 
L 659.757007 309.528684 
L 660.058357 310.533363 
L 660.077592 310.498917 
L 660.33406 311.01561 
L 660.398177 311.095984 
L 660.545646 311.288308 
L 660.558469 311.279697 
L 660.571293 311.314143 
L 660.63541 311.348589 
L 660.71235 311.443316 
L 660.814937 311.57823 
L 660.853407 311.561007 
L 661.302226 311.842318 
L 661.449695 311.566748 
L 661.462519 311.572489 
L 661.635635 311.443316 
L 661.642046 311.460539 
L 661.847221 311.555266 
L 661.924161 311.57823 
L 661.904926 311.604065 
L 661.936984 311.604065 
L 661.95622 311.57823 
L 662.084454 311.698792 
L 662.347333 311.848059 
L 662.379392 311.727497 
L 662.507626 311.681569 
L 662.514037 311.698792 
L 662.552508 311.538043 
L 662.642271 310.306593 
L 662.744859 308.845502 
L 662.808976 309.189963 
L 663.007738 310.051117 
L 663.437322 311.190711 
L 663.661732 311.529432 
L 663.809201 311.681569 
L 664.014375 311.790648 
L 664.315725 312.014548 
L 664.437547 312.048994 
L 664.694015 312.13511 
L 664.790191 312.13511 
L 664.944071 312.209743 
L 665.059482 312.244189 
L 665.117187 312.194434 
L 665.187716 312.278636 
L 665.777592 312.378147 
L 665.912238 312.41642 
L 666.797052 312.5255 
L 666.963757 312.577169 
L 666.982992 312.548464 
L 667.002227 312.565687 
L 667.034285 310.593644 
L 667.05352 305.567376 
L 667.149696 307.797764 
L 667.418987 310.410888 
L 667.470281 310.642443 
L 668.028099 311.865282 
L 668.611563 312.3016 
L 668.726974 312.318823 
L 668.842384 312.336046 
L 668.848796 312.353269 
L 668.970618 312.35901 
L 668.97703 312.353269 
L 668.996265 311.509338 
L 669.047559 280.128887 
L 669.066794 271.833104 
L 669.130911 295.486133 
L 669.310438 306.853365 
L 669.528436 309.121071 
L 669.938785 310.74004 
L 670.009314 310.892178 
L 670.047784 310.731429 
L 670.124724 309.304784 
L 670.195253 305.286065 
L 670.25937 306.557703 
L 670.451721 308.879948 
L 670.753071 310.246312 
L 671.092891 310.981164 
L 671.298065 311.222287 
L 671.426299 311.365812 
L 671.759707 311.6299 
L 671.875118 311.57823 
L 671.772531 311.638511 
L 671.88153 311.595453 
L 671.907177 311.664346 
L 671.99694 311.612676 
L 672.18288 311.681569 
L 672.490641 311.790648 
L 672.631699 311.8538 
L 672.759933 311.876764 
L 672.766344 311.882505 
L 672.811226 311.790648 
L 672.856108 311.773425 
L 672.843285 311.865282 
L 672.913813 311.807871 
L 672.965107 311.807871 
L 673.003577 311.754288 
L 673.221575 311.29692 
L 673.593453 311.612676 
L 673.676805 311.512208 
L 673.811451 311.426093 
L 673.978155 311.374424 
L 674.003802 311.391647 
L 674.029449 311.256733 
L 674.093566 309.996577 
L 674.18333 308.971804 
L 674.234623 309.098107 
L 674.465444 309.970743 
L 674.850146 310.958199 
L 674.907852 311.061538 
L 675.068144 311.365812 
L 675.080968 311.357201 
L 675.254083 311.604065 
L 675.54261 311.825094 
L 675.549022 311.816483 
L 675.593903 311.8538 
L 675.65802 311.842318 
L 675.792666 311.922692 
L 675.799078 311.916951 
L 675.811901 311.934174 
L 675.831136 311.882505 
" clip-path="url(#p8dcc6a753f)" style="fill: none; stroke: #1f77b4; stroke-width: 1.5; stroke-linecap: square"/>
   </g>
   <g id="patch_3">
    <path d="M 46.0125 327.558125 
L 46.0125 22.318125 
" style="fill: none; stroke: #000000; stroke-width: 0.8; stroke-linejoin: miter; stroke-linecap: square"/>
   </g>
   <g id="patch_4">
    <path d="M 705.8225 327.558125 
L 705.8225 22.318125 
" style="fill: none; stroke: #000000; stroke-width: 0.8; stroke-linejoin: miter; stroke-linecap: square"/>
   </g>
   <g id="patch_5">
    <path d="M 46.0125 327.558125 
L 705.8225 327.558125 
" style="fill: none; stroke: #000000; stroke-width: 0.8; stroke-linejoin: miter; stroke-linecap: square"/>
   </g>
   <g id="patch_6">
    <path d="M 46.0125 22.318125 
L 705.8225 22.318125 
" style="fill: none; stroke: #000000; stroke-width: 0.8; stroke-linejoin: miter; stroke-linecap: square"/>
   </g>
   <g id="text_13">
    <!-- training -->
    <g transform="translate(352.674062 16.318125) scale(0.12 -0.12)">
     <defs>
      <path id="DejaVuSans-74" d="M 1172 4494 
L 1172 3500 
L 2356 3500 
L 2356 3053 
L 1172 3053 
L 1172 1153 
Q 1172 725 1289 603 
Q 1406 481 1766 481 
L 2356 481 
L 2356 0 
L 1766 0 
Q 1100 0 847 248 
Q 594 497 594 1153 
L 594 3053 
L 172 3053 
L 172 3500 
L 594 3500 
L 594 4494 
L 1172 4494 
z
" transform="scale(0.015625)"/>
      <path id="DejaVuSans-72" d="M 2631 2963 
Q 2534 3019 2420 3045 
Q 2306 3072 2169 3072 
Q 1681 3072 1420 2755 
Q 1159 2438 1159 1844 
L 1159 0 
L 581 0 
L 581 3500 
L 1159 3500 
L 1159 2956 
Q 1341 3275 1631 3429 
Q 1922 3584 2338 3584 
Q 2397 3584 2469 3576 
Q 2541 3569 2628 3553 
L 2631 2963 
z
" transform="scale(0.015625)"/>
      <path id="DejaVuSans-61" d="M 2194 1759 
Q 1497 1759 1228 1600 
Q 959 1441 959 1056 
Q 959 750 1161 570 
Q 1363 391 1709 391 
Q 2188 391 2477 730 
Q 2766 1069 2766 1631 
L 2766 1759 
L 2194 1759 
z
M 3341 1997 
L 3341 0 
L 2766 0 
L 2766 531 
Q 2569 213 2275 61 
Q 1981 -91 1556 -91 
Q 1019 -91 701 211 
Q 384 513 384 1019 
Q 384 1609 779 1909 
Q 1175 2209 1959 2209 
L 2766 2209 
L 2766 2266 
Q 2766 2663 2505 2880 
Q 2244 3097 1772 3097 
Q 1472 3097 1187 3025 
Q 903 2953 641 2809 
L 641 3341 
Q 956 3463 1253 3523 
Q 1550 3584 1831 3584 
Q 2591 3584 2966 3190 
Q 3341 2797 3341 1997 
z
" transform="scale(0.015625)"/>
      <path id="DejaVuSans-69" d="M 603 3500 
L 1178 3500 
L 1178 0 
L 603 0 
L 603 3500 
z
M 603 4863 
L 1178 4863 
L 1178 4134 
L 603 4134 
L 603 4863 
z
" transform="scale(0.015625)"/>
      <path id="DejaVuSans-6e" d="M 3513 2113 
L 3513 0 
L 2938 0 
L 2938 2094 
Q 2938 2591 2744 2837 
Q 2550 3084 2163 3084 
Q 1697 3084 1428 2787 
Q 1159 2491 1159 1978 
L 1159 0 
L 581 0 
L 581 3500 
L 1159 3500 
L 1159 2956 
Q 1366 3272 1645 3428 
Q 1925 3584 2291 3584 
Q 2894 3584 3203 3211 
Q 3513 2838 3513 2113 
z
" transform="scale(0.015625)"/>
      <path id="DejaVuSans-67" d="M 2906 1791 
Q 2906 2416 2648 2759 
Q 2391 3103 1925 3103 
Q 1463 3103 1205 2759 
Q 947 2416 947 1791 
Q 947 1169 1205 825 
Q 1463 481 1925 481 
Q 2391 481 2648 825 
Q 2906 1169 2906 1791 
z
M 3481 434 
Q 3481 -459 3084 -895 
Q 2688 -1331 1869 -1331 
Q 1566 -1331 1297 -1286 
Q 1028 -1241 775 -1147 
L 775 -588 
Q 1028 -725 1275 -790 
Q 1522 -856 1778 -856 
Q 2344 -856 2625 -561 
Q 2906 -266 2906 331 
L 2906 616 
Q 2728 306 2450 153 
Q 2172 0 1784 0 
Q 1141 0 747 490 
Q 353 981 353 1791 
Q 353 2603 747 3093 
Q 1141 3584 1784 3584 
Q 2172 3584 2450 3431 
Q 2728 3278 2906 2969 
L 2906 3500 
L 3481 3500 
L 3481 434 
z
" transform="scale(0.015625)"/>
     </defs>
     <use xlink:href="#DejaVuSans-74"/>
     <use xlink:href="#DejaVuSans-72" x="39.208984"/>
     <use xlink:href="#DejaVuSans-61" x="80.322266"/>
     <use xlink:href="#DejaVuSans-69" x="141.601562"/>
     <use xlink:href="#DejaVuSans-6e" x="169.384766"/>
     <use xlink:href="#DejaVuSans-69" x="232.763672"/>
     <use xlink:href="#DejaVuSans-6e" x="260.546875"/>
     <use xlink:href="#DejaVuSans-67" x="323.925781"/>
    </g>
   </g>
   <g id="legend_1">
    <g id="patch_7">
     <path d="M 53.0125 44.99625 
L 131.373438 44.99625 
Q 133.373438 44.99625 133.373438 42.99625 
L 133.373438 29.318125 
Q 133.373438 27.318125 131.373438 27.318125 
L 53.0125 27.318125 
Q 51.0125 27.318125 51.0125 29.318125 
L 51.0125 42.99625 
Q 51.0125 44.99625 53.0125 44.99625 
z
" style="fill: #ffffff; opacity: 0.8; stroke: #cccccc; stroke-linejoin: miter"/>
    </g>
    <g id="line2d_14">
     <path d="M 55.0125 35.416563 
L 65.0125 35.416563 
L 75.0125 35.416563 
" style="fill: none; stroke: #1f77b4; stroke-width: 1.5; stroke-linecap: square"/>
    </g>
    <g id="text_14">
     <!-- observed -->
     <g transform="translate(83.0125 38.916563) scale(0.1 -0.1)">
      <defs>
       <path id="DejaVuSans-6f" d="M 1959 3097 
Q 1497 3097 1228 2736 
Q 959 2375 959 1747 
Q 959 1119 1226 758 
Q 1494 397 1959 397 
Q 2419 397 2687 759 
Q 2956 1122 2956 1747 
Q 2956 2369 2687 2733 
Q 2419 3097 1959 3097 
z
M 1959 3584 
Q 2709 3584 3137 3096 
Q 3566 2609 3566 1747 
Q 3566 888 3137 398 
Q 2709 -91 1959 -91 
Q 1206 -91 779 398 
Q 353 888 353 1747 
Q 353 2609 779 3096 
Q 1206 3584 1959 3584 
z
" transform="scale(0.015625)"/>
       <path id="DejaVuSans-62" d="M 3116 1747 
Q 3116 2381 2855 2742 
Q 2594 3103 2138 3103 
Q 1681 3103 1420 2742 
Q 1159 2381 1159 1747 
Q 1159 1113 1420 752 
Q 1681 391 2138 391 
Q 2594 391 2855 752 
Q 3116 1113 3116 1747 
z
M 1159 2969 
Q 1341 3281 1617 3432 
Q 1894 3584 2278 3584 
Q 2916 3584 3314 3078 
Q 3713 2572 3713 1747 
Q 3713 922 3314 415 
Q 2916 -91 2278 -91 
Q 1894 -91 1617 61 
Q 1341 213 1159 525 
L 1159 0 
L 581 0 
L 581 4863 
L 1159 4863 
L 1159 2969 
z
" transform="scale(0.015625)"/>
       <path id="DejaVuSans-73" d="M 2834 3397 
L 2834 2853 
Q 2591 2978 2328 3040 
Q 2066 3103 1784 3103 
Q 1356 3103 1142 2972 
Q 928 2841 928 2578 
Q 928 2378 1081 2264 
Q 1234 2150 1697 2047 
L 1894 2003 
Q 2506 1872 2764 1633 
Q 3022 1394 3022 966 
Q 3022 478 2636 193 
Q 2250 -91 1575 -91 
Q 1294 -91 989 -36 
Q 684 19 347 128 
L 347 722 
Q 666 556 975 473 
Q 1284 391 1588 391 
Q 1994 391 2212 530 
Q 2431 669 2431 922 
Q 2431 1156 2273 1281 
Q 2116 1406 1581 1522 
L 1381 1569 
Q 847 1681 609 1914 
Q 372 2147 372 2553 
Q 372 3047 722 3315 
Q 1072 3584 1716 3584 
Q 2034 3584 2315 3537 
Q 2597 3491 2834 3397 
z
" transform="scale(0.015625)"/>
       <path id="DejaVuSans-65" d="M 3597 1894 
L 3597 1613 
L 953 1613 
Q 991 1019 1311 708 
Q 1631 397 2203 397 
Q 2534 397 2845 478 
Q 3156 559 3463 722 
L 3463 178 
Q 3153 47 2828 -22 
Q 2503 -91 2169 -91 
Q 1331 -91 842 396 
Q 353 884 353 1716 
Q 353 2575 817 3079 
Q 1281 3584 2069 3584 
Q 2775 3584 3186 3129 
Q 3597 2675 3597 1894 
z
M 3022 2063 
Q 3016 2534 2758 2815 
Q 2500 3097 2075 3097 
Q 1594 3097 1305 2825 
Q 1016 2553 972 2059 
L 3022 2063 
z
" transform="scale(0.015625)"/>
       <path id="DejaVuSans-76" d="M 191 3500 
L 800 3500 
L 1894 563 
L 2988 3500 
L 3597 3500 
L 2284 0 
L 1503 0 
L 191 3500 
z
" transform="scale(0.015625)"/>
       <path id="DejaVuSans-64" d="M 2906 2969 
L 2906 4863 
L 3481 4863 
L 3481 0 
L 2906 0 
L 2906 525 
Q 2725 213 2448 61 
Q 2172 -91 1784 -91 
Q 1150 -91 751 415 
Q 353 922 353 1747 
Q 353 2572 751 3078 
Q 1150 3584 1784 3584 
Q 2172 3584 2448 3432 
Q 2725 3281 2906 2969 
z
M 947 1747 
Q 947 1113 1208 752 
Q 1469 391 1925 391 
Q 2381 391 2643 752 
Q 2906 1113 2906 1747 
Q 2906 2381 2643 2742 
Q 2381 3103 1925 3103 
Q 1469 3103 1208 2742 
Q 947 2381 947 1747 
z
" transform="scale(0.015625)"/>
      </defs>
      <use xlink:href="#DejaVuSans-6f"/>
      <use xlink:href="#DejaVuSans-62" x="61.181641"/>
      <use xlink:href="#DejaVuSans-73" x="124.658203"/>
      <use xlink:href="#DejaVuSans-65" x="176.757812"/>
      <use xlink:href="#DejaVuSans-72" x="238.28125"/>
      <use xlink:href="#DejaVuSans-76" x="279.394531"/>
      <use xlink:href="#DejaVuSans-65" x="338.574219"/>
      <use xlink:href="#DejaVuSans-64" x="400.097656"/>
     </g>
    </g>
   </g>
  </g>
 </g>
 <defs>
  <clipPath id="p8dcc6a753f">
   <rect x="46.0125" y="22.318125" width="659.81" height="305.24"/>
  </clipPath>
 </defs>
</svg>
