<?xml version="1.0" encoding="utf-8" standalone="no"?>
<!DOCTYPE svg PUBLIC "-//W3C//DTD SVG 1.1//EN"
  "http://www.w3.org/Graphics/SVG/1.1/DTD/svg11.dtd">
<svg xmlns:xlink="http://www.w3.org/1999/xlink" width="710.278552pt" height="351.43625pt" viewBox="0 0 710.278552 351.43625" xmlns="http://www.w3.org/2000/svg" version="1.1">
 <metadata>
  <rdf:RDF xmlns:dc="http://purl.org/dc/elements/1.1/" xmlns:cc="http://creativecommons.org/ns#" xmlns:rdf="http://www.w3.org/1999/02/22-rdf-syntax-ns#">
   <cc:Work>
    <dc:type rdf:resource="http://purl.org/dc/dcmitype/StillImage"/>
    <dc:date>2024-05-03T12:35:13.116508</dc:date>
    <dc:format>image/svg+xml</dc:format>
    <dc:creator>
     <cc:Agent>
      <dc:title>Matplotlib v3.7.1, https://matplotlib.org/</dc:title>
     </cc:Agent>
    </dc:creator>
   </cc:Work>
  </rdf:RDF>
 </metadata>
 <defs>
  <style type="text/css">*{stroke-linejoin: round; stroke-linecap: butt}</style>
 </defs>
 <g id="figure_1">
  <g id="patch_1">
   <path d="M 0 351.43625 
L 710.278552 351.43625 
L 710.278552 0 
L 0 0 
z
" style="fill: #ffffff"/>
  </g>
  <g id="axes_1">
   <g id="patch_2">
    <path d="M 20.5625 327.558125 
L 697.705023 327.558125 
L 697.705023 22.318125 
L 20.5625 22.318125 
z
" style="fill: #ffffff"/>
   </g>
   <g id="matplotlib.axis_1">
    <g id="xtick_1">
     <g id="line2d_1">
      <defs>
       <path id="m43dccb0a41" d="M 0 0 
L 0 3.5 
" style="stroke: #000000; stroke-width: 0.8"/>
      </defs>
      <g>
       <use xlink:href="#m43dccb0a41" x="110.676699" y="327.558125" style="stroke: #000000; stroke-width: 0.8"/>
      </g>
     </g>
     <g id="text_1">
      <!-- 2021-09 -->
      <g transform="translate(89.785293 342.156563) scale(0.1 -0.1)">
       <defs>
        <path id="DejaVuSans-32" d="M 1228 531 
L 3431 531 
L 3431 0 
L 469 0 
L 469 531 
Q 828 903 1448 1529 
Q 2069 2156 2228 2338 
Q 2531 2678 2651 2914 
Q 2772 3150 2772 3378 
Q 2772 3750 2511 3984 
Q 2250 4219 1831 4219 
Q 1534 4219 1204 4116 
Q 875 4013 500 3803 
L 500 4441 
Q 881 4594 1212 4672 
Q 1544 4750 1819 4750 
Q 2544 4750 2975 4387 
Q 3406 4025 3406 3419 
Q 3406 3131 3298 2873 
Q 3191 2616 2906 2266 
Q 2828 2175 2409 1742 
Q 1991 1309 1228 531 
z
" transform="scale(0.015625)"/>
        <path id="DejaVuSans-30" d="M 2034 4250 
Q 1547 4250 1301 3770 
Q 1056 3291 1056 2328 
Q 1056 1369 1301 889 
Q 1547 409 2034 409 
Q 2525 409 2770 889 
Q 3016 1369 3016 2328 
Q 3016 3291 2770 3770 
Q 2525 4250 2034 4250 
z
M 2034 4750 
Q 2819 4750 3233 4129 
Q 3647 3509 3647 2328 
Q 3647 1150 3233 529 
Q 2819 -91 2034 -91 
Q 1250 -91 836 529 
Q 422 1150 422 2328 
Q 422 3509 836 4129 
Q 1250 4750 2034 4750 
z
" transform="scale(0.015625)"/>
        <path id="DejaVuSans-31" d="M 794 531 
L 1825 531 
L 1825 4091 
L 703 3866 
L 703 4441 
L 1819 4666 
L 2450 4666 
L 2450 531 
L 3481 531 
L 3481 0 
L 794 0 
L 794 531 
z
" transform="scale(0.015625)"/>
        <path id="DejaVuSans-2d" d="M 313 2009 
L 1997 2009 
L 1997 1497 
L 313 1497 
L 313 2009 
z
" transform="scale(0.015625)"/>
        <path id="DejaVuSans-39" d="M 703 97 
L 703 672 
Q 941 559 1184 500 
Q 1428 441 1663 441 
Q 2288 441 2617 861 
Q 2947 1281 2994 2138 
Q 2813 1869 2534 1725 
Q 2256 1581 1919 1581 
Q 1219 1581 811 2004 
Q 403 2428 403 3163 
Q 403 3881 828 4315 
Q 1253 4750 1959 4750 
Q 2769 4750 3195 4129 
Q 3622 3509 3622 2328 
Q 3622 1225 3098 567 
Q 2575 -91 1691 -91 
Q 1453 -91 1209 -44 
Q 966 3 703 97 
z
M 1959 2075 
Q 2384 2075 2632 2365 
Q 2881 2656 2881 3163 
Q 2881 3666 2632 3958 
Q 2384 4250 1959 4250 
Q 1534 4250 1286 3958 
Q 1038 3666 1038 3163 
Q 1038 2656 1286 2365 
Q 1534 2075 1959 2075 
z
" transform="scale(0.015625)"/>
       </defs>
       <use xlink:href="#DejaVuSans-32"/>
       <use xlink:href="#DejaVuSans-30" x="63.623047"/>
       <use xlink:href="#DejaVuSans-32" x="127.246094"/>
       <use xlink:href="#DejaVuSans-31" x="190.869141"/>
       <use xlink:href="#DejaVuSans-2d" x="254.492188"/>
       <use xlink:href="#DejaVuSans-30" x="290.576172"/>
       <use xlink:href="#DejaVuSans-39" x="354.199219"/>
      </g>
     </g>
    </g>
    <g id="xtick_2">
     <g id="line2d_2">
      <g>
       <use xlink:href="#m43dccb0a41" x="205.402187" y="327.558125" style="stroke: #000000; stroke-width: 0.8"/>
      </g>
     </g>
     <g id="text_2">
      <!-- 2021-10 -->
      <g transform="translate(184.510781 342.156563) scale(0.1 -0.1)">
       <use xlink:href="#DejaVuSans-32"/>
       <use xlink:href="#DejaVuSans-30" x="63.623047"/>
       <use xlink:href="#DejaVuSans-32" x="127.246094"/>
       <use xlink:href="#DejaVuSans-31" x="190.869141"/>
       <use xlink:href="#DejaVuSans-2d" x="254.492188"/>
       <use xlink:href="#DejaVuSans-31" x="290.576172"/>
       <use xlink:href="#DejaVuSans-30" x="354.199219"/>
      </g>
     </g>
    </g>
    <g id="xtick_3">
     <g id="line2d_3">
      <g>
       <use xlink:href="#m43dccb0a41" x="303.285192" y="327.558125" style="stroke: #000000; stroke-width: 0.8"/>
      </g>
     </g>
     <g id="text_3">
      <!-- 2021-11 -->
      <g transform="translate(282.393786 342.156563) scale(0.1 -0.1)">
       <use xlink:href="#DejaVuSans-32"/>
       <use xlink:href="#DejaVuSans-30" x="63.623047"/>
       <use xlink:href="#DejaVuSans-32" x="127.246094"/>
       <use xlink:href="#DejaVuSans-31" x="190.869141"/>
       <use xlink:href="#DejaVuSans-2d" x="254.492188"/>
       <use xlink:href="#DejaVuSans-31" x="290.576172"/>
       <use xlink:href="#DejaVuSans-31" x="354.199219"/>
      </g>
     </g>
    </g>
    <g id="xtick_4">
     <g id="line2d_4">
      <g>
       <use xlink:href="#m43dccb0a41" x="398.01068" y="327.558125" style="stroke: #000000; stroke-width: 0.8"/>
      </g>
     </g>
     <g id="text_4">
      <!-- 2021-12 -->
      <g transform="translate(377.119274 342.156563) scale(0.1 -0.1)">
       <use xlink:href="#DejaVuSans-32"/>
       <use xlink:href="#DejaVuSans-30" x="63.623047"/>
       <use xlink:href="#DejaVuSans-32" x="127.246094"/>
       <use xlink:href="#DejaVuSans-31" x="190.869141"/>
       <use xlink:href="#DejaVuSans-2d" x="254.492188"/>
       <use xlink:href="#DejaVuSans-31" x="290.576172"/>
       <use xlink:href="#DejaVuSans-32" x="354.199219"/>
      </g>
     </g>
    </g>
    <g id="xtick_5">
     <g id="line2d_5">
      <g>
       <use xlink:href="#m43dccb0a41" x="495.893685" y="327.558125" style="stroke: #000000; stroke-width: 0.8"/>
      </g>
     </g>
     <g id="text_5">
      <!-- 2022-01 -->
      <g transform="translate(475.002279 342.156563) scale(0.1 -0.1)">
       <use xlink:href="#DejaVuSans-32"/>
       <use xlink:href="#DejaVuSans-30" x="63.623047"/>
       <use xlink:href="#DejaVuSans-32" x="127.246094"/>
       <use xlink:href="#DejaVuSans-32" x="190.869141"/>
       <use xlink:href="#DejaVuSans-2d" x="254.492188"/>
       <use xlink:href="#DejaVuSans-30" x="290.576172"/>
       <use xlink:href="#DejaVuSans-31" x="354.199219"/>
      </g>
     </g>
    </g>
    <g id="xtick_6">
     <g id="line2d_6">
      <g>
       <use xlink:href="#m43dccb0a41" x="593.77669" y="327.558125" style="stroke: #000000; stroke-width: 0.8"/>
      </g>
     </g>
     <g id="text_6">
      <!-- 2022-02 -->
      <g transform="translate(572.885284 342.156563) scale(0.1 -0.1)">
       <use xlink:href="#DejaVuSans-32"/>
       <use xlink:href="#DejaVuSans-30" x="63.623047"/>
       <use xlink:href="#DejaVuSans-32" x="127.246094"/>
       <use xlink:href="#DejaVuSans-32" x="190.869141"/>
       <use xlink:href="#DejaVuSans-2d" x="254.492188"/>
       <use xlink:href="#DejaVuSans-30" x="290.576172"/>
       <use xlink:href="#DejaVuSans-32" x="354.199219"/>
      </g>
     </g>
    </g>
    <g id="xtick_7">
     <g id="line2d_7">
      <g>
       <use xlink:href="#m43dccb0a41" x="682.187146" y="327.558125" style="stroke: #000000; stroke-width: 0.8"/>
      </g>
     </g>
     <g id="text_7">
      <!-- 2022-03 -->
      <g transform="translate(661.295739 342.156563) scale(0.1 -0.1)">
       <defs>
        <path id="DejaVuSans-33" d="M 2597 2516 
Q 3050 2419 3304 2112 
Q 3559 1806 3559 1356 
Q 3559 666 3084 287 
Q 2609 -91 1734 -91 
Q 1441 -91 1130 -33 
Q 819 25 488 141 
L 488 750 
Q 750 597 1062 519 
Q 1375 441 1716 441 
Q 2309 441 2620 675 
Q 2931 909 2931 1356 
Q 2931 1769 2642 2001 
Q 2353 2234 1838 2234 
L 1294 2234 
L 1294 2753 
L 1863 2753 
Q 2328 2753 2575 2939 
Q 2822 3125 2822 3475 
Q 2822 3834 2567 4026 
Q 2313 4219 1838 4219 
Q 1578 4219 1281 4162 
Q 984 4106 628 3988 
L 628 4550 
Q 988 4650 1302 4700 
Q 1616 4750 1894 4750 
Q 2613 4750 3031 4423 
Q 3450 4097 3450 3541 
Q 3450 3153 3228 2886 
Q 3006 2619 2597 2516 
z
" transform="scale(0.015625)"/>
       </defs>
       <use xlink:href="#DejaVuSans-32"/>
       <use xlink:href="#DejaVuSans-30" x="63.623047"/>
       <use xlink:href="#DejaVuSans-32" x="127.246094"/>
       <use xlink:href="#DejaVuSans-32" x="190.869141"/>
       <use xlink:href="#DejaVuSans-2d" x="254.492188"/>
       <use xlink:href="#DejaVuSans-30" x="290.576172"/>
       <use xlink:href="#DejaVuSans-33" x="354.199219"/>
      </g>
     </g>
    </g>
   </g>
   <g id="matplotlib.axis_2">
    <g id="ytick_1">
     <g id="line2d_8">
      <defs>
       <path id="mfe64782482" d="M 0 0 
L -3.5 0 
" style="stroke: #000000; stroke-width: 0.8"/>
      </defs>
      <g>
       <use xlink:href="#mfe64782482" x="20.5625" y="321.770806" style="stroke: #000000; stroke-width: 0.8"/>
      </g>
     </g>
     <g id="text_8">
      <!-- 0 -->
      <g transform="translate(7.2 325.570025) scale(0.1 -0.1)">
       <use xlink:href="#DejaVuSans-30"/>
      </g>
     </g>
    </g>
    <g id="ytick_2">
     <g id="line2d_9">
      <g>
       <use xlink:href="#mfe64782482" x="20.5625" y="258.920047" style="stroke: #000000; stroke-width: 0.8"/>
      </g>
     </g>
     <g id="text_9">
      <!-- 2 -->
      <g transform="translate(7.2 262.719266) scale(0.1 -0.1)">
       <use xlink:href="#DejaVuSans-32"/>
      </g>
     </g>
    </g>
    <g id="ytick_3">
     <g id="line2d_10">
      <g>
       <use xlink:href="#mfe64782482" x="20.5625" y="196.069288" style="stroke: #000000; stroke-width: 0.8"/>
      </g>
     </g>
     <g id="text_10">
      <!-- 4 -->
      <g transform="translate(7.2 199.868507) scale(0.1 -0.1)">
       <defs>
        <path id="DejaVuSans-34" d="M 2419 4116 
L 825 1625 
L 2419 1625 
L 2419 4116 
z
M 2253 4666 
L 3047 4666 
L 3047 1625 
L 3713 1625 
L 3713 1100 
L 3047 1100 
L 3047 0 
L 2419 0 
L 2419 1100 
L 313 1100 
L 313 1709 
L 2253 4666 
z
" transform="scale(0.015625)"/>
       </defs>
       <use xlink:href="#DejaVuSans-34"/>
      </g>
     </g>
    </g>
    <g id="ytick_4">
     <g id="line2d_11">
      <g>
       <use xlink:href="#mfe64782482" x="20.5625" y="133.21853" style="stroke: #000000; stroke-width: 0.8"/>
      </g>
     </g>
     <g id="text_11">
      <!-- 6 -->
      <g transform="translate(7.2 137.017748) scale(0.1 -0.1)">
       <defs>
        <path id="DejaVuSans-36" d="M 2113 2584 
Q 1688 2584 1439 2293 
Q 1191 2003 1191 1497 
Q 1191 994 1439 701 
Q 1688 409 2113 409 
Q 2538 409 2786 701 
Q 3034 994 3034 1497 
Q 3034 2003 2786 2293 
Q 2538 2584 2113 2584 
z
M 3366 4563 
L 3366 3988 
Q 3128 4100 2886 4159 
Q 2644 4219 2406 4219 
Q 1781 4219 1451 3797 
Q 1122 3375 1075 2522 
Q 1259 2794 1537 2939 
Q 1816 3084 2150 3084 
Q 2853 3084 3261 2657 
Q 3669 2231 3669 1497 
Q 3669 778 3244 343 
Q 2819 -91 2113 -91 
Q 1303 -91 875 529 
Q 447 1150 447 2328 
Q 447 3434 972 4092 
Q 1497 4750 2381 4750 
Q 2619 4750 2861 4703 
Q 3103 4656 3366 4563 
z
" transform="scale(0.015625)"/>
       </defs>
       <use xlink:href="#DejaVuSans-36"/>
      </g>
     </g>
    </g>
    <g id="ytick_5">
     <g id="line2d_12">
      <g>
       <use xlink:href="#mfe64782482" x="20.5625" y="70.367771" style="stroke: #000000; stroke-width: 0.8"/>
      </g>
     </g>
     <g id="text_12">
      <!-- 8 -->
      <g transform="translate(7.2 74.166989) scale(0.1 -0.1)">
       <defs>
        <path id="DejaVuSans-38" d="M 2034 2216 
Q 1584 2216 1326 1975 
Q 1069 1734 1069 1313 
Q 1069 891 1326 650 
Q 1584 409 2034 409 
Q 2484 409 2743 651 
Q 3003 894 3003 1313 
Q 3003 1734 2745 1975 
Q 2488 2216 2034 2216 
z
M 1403 2484 
Q 997 2584 770 2862 
Q 544 3141 544 3541 
Q 544 4100 942 4425 
Q 1341 4750 2034 4750 
Q 2731 4750 3128 4425 
Q 3525 4100 3525 3541 
Q 3525 3141 3298 2862 
Q 3072 2584 2669 2484 
Q 3125 2378 3379 2068 
Q 3634 1759 3634 1313 
Q 3634 634 3220 271 
Q 2806 -91 2034 -91 
Q 1263 -91 848 271 
Q 434 634 434 1313 
Q 434 1759 690 2068 
Q 947 2378 1403 2484 
z
M 1172 3481 
Q 1172 3119 1398 2916 
Q 1625 2713 2034 2713 
Q 2441 2713 2670 2916 
Q 2900 3119 2900 3481 
Q 2900 3844 2670 4047 
Q 2441 4250 2034 4250 
Q 1625 4250 1398 4047 
Q 1172 3844 1172 3481 
z
" transform="scale(0.015625)"/>
       </defs>
       <use xlink:href="#DejaVuSans-38"/>
      </g>
     </g>
    </g>
   </g>
   <g id="line2d_13">
    <path d="M 51.341706 219.952577 
L 52.525774 214.138882 
L 52.788901 213.667501 
L 53.052027 213.353247 
L 53.18359 213.353247 
L 53.315153 212.881866 
L 53.57828 211.781978 
L 53.841406 211.546288 
L 53.972969 211.781978 
L 54.104532 211.781978 
L 55.157038 213.588938 
L 55.420164 213.824628 
L 57.525175 216.417222 
L 57.656738 216.260095 
L 57.788301 215.867278 
L 58.182991 215.867278 
L 58.446117 216.181531 
L 58.57768 216.181531 
L 59.235496 216.810039 
L 59.498623 216.888602 
L 59.630186 217.124293 
L 59.893312 217.202856 
L 60.024875 217.438547 
L 60.419565 217.438547 
L 60.551128 217.202856 
L 61.47207 217.202856 
L 61.603633 217.438547 
L 61.998323 217.438547 
L 62.393013 217.7528 
L 62.524576 217.7528 
L 62.787702 218.224181 
L 63.840208 219.638323 
L 65.418966 222.623734 
L 65.813655 223.487932 
L 66.471471 224.509257 
L 67.523977 225.609145 
L 67.787103 225.530582 
L 67.918666 225.294891 
L 68.181792 225.294891 
L 68.576482 224.744947 
L 68.839608 224.666384 
L 69.102735 224.666384 
L 69.365861 224.35213 
L 69.628987 224.666384 
L 69.892114 224.744947 
L 70.418366 225.530582 
L 70.54993 225.609145 
L 70.944619 226.316216 
L 71.997125 228.358866 
L 72.786504 230.008698 
L 73.839009 231.972785 
L 74.365262 233.2298 
L 75.023078 234.565378 
L 75.680894 235.97952 
L 75.812457 235.50814 
L 76.338709 236.215211 
L 76.733399 236.922282 
L 76.996525 237.236536 
L 77.259652 237.236536 
L 78.575283 235.036759 
L 79.627789 233.936871 
L 79.890915 233.70118 
L 80.285605 233.151236 
L 80.417168 233.151236 
L 80.548731 232.836982 
L 80.680294 232.836982 
L 81.074984 232.522729 
L 82.127489 232.601292 
L 82.653742 232.836982 
L 82.785305 232.836982 
L 83.574684 233.622617 
L 83.837811 233.70118 
L 84.62719 234.251125 
L 84.890316 234.408251 
L 85.285006 234.486815 
L 85.416569 234.722505 
L 85.548132 234.722505 
L 85.942821 235.351013 
L 86.074385 235.351013 
L 86.469074 235.97952 
L 86.995327 236.293774 
L 87.258453 236.608028 
L 89.495027 239.436312 
L 89.889717 240.06482 
L 90.02128 240.06482 
L 90.942222 241.557525 
L 91.336912 241.950342 
L 91.600038 241.950342 
L 92.52098 242.893104 
L 92.784107 242.971667 
L 92.91567 243.207358 
L 93.047233 243.207358 
L 93.178796 243.521611 
L 93.310359 243.521611 
L 93.441923 243.835865 
L 93.573486 243.835865 
L 93.968175 244.385809 
L 94.757554 245.407134 
L 94.889118 245.721388 
L 95.020681 245.721388 
L 95.152244 246.035642 
L 95.283807 246.035642 
L 95.41537 246.349896 
L 95.678497 246.428459 
L 95.81006 246.664149 
L 96.994128 246.664149 
L 97.257255 246.978403 
L 97.388818 246.89984 
L 97.651944 243.835865 
L 97.915071 243.443048 
L 98.178197 243.678738 
L 98.70445 244.464373 
L 99.099139 244.778627 
L 99.756955 244.778627 
L 100.414771 243.835865 
L 100.809461 239.907693 
L 101.072587 239.122058 
L 101.335713 239.200622 
L 102.519782 241.243271 
L 102.651345 241.321835 
L 102.914471 241.636089 
L 104.230103 243.050231 
L 104.361666 240.379074 
L 104.887919 220.345394 
L 105.151046 222.30948 
L 105.677298 226.316216 
L 105.940425 227.494668 
L 106.335114 228.280302 
L 106.861367 228.751683 
L 106.99293 228.751683 
L 107.124493 228.515993 
L 107.256056 228.515993 
L 107.519183 228.201739 
L 107.782309 228.123176 
L 107.913872 228.123176 
L 108.308562 228.437429 
L 108.703251 228.437429 
L 109.097941 228.751683 
L 109.361067 228.751683 
L 109.49263 229.065937 
L 109.624194 229.065937 
L 109.88732 229.458754 
L 110.018883 229.694444 
L 110.282009 229.773008 
L 110.808262 230.637206 
L 110.939825 230.637206 
L 111.202952 230.95146 
L 111.334515 231.030023 
L 111.466078 231.265713 
L 111.597641 231.265713 
L 111.729204 231.579967 
L 111.860768 231.579967 
L 112.123894 231.972785 
L 113.176399 234.015434 
L 113.307963 233.779744 
L 113.571089 229.694444 
L 113.834215 228.751683 
L 114.097342 229.1445 
L 115.544537 233.151236 
L 115.6761 233.2298 
L 115.807663 232.601292 
L 116.070789 227.573231 
L 116.333916 225.844836 
L 116.728605 224.980638 
L 117.123295 222.623734 
L 118.1758 213.353247 
L 119.228306 207.932369 
L 119.754558 202.118674 
L 120.017685 201.725857 
L 120.280811 201.411603 
L 120.543937 201.725857 
L 120.807064 201.490166 
L 120.938627 201.33304 
L 121.333316 199.840334 
L 121.728006 197.640557 
L 122.648948 192.298243 
L 123.175201 189.705649 
L 124.096143 185.227533 
L 124.622396 183.734827 
L 125.543338 182.242122 
L 127.122096 182.242122 
L 127.385223 182.556375 
L 127.648349 182.634939 
L 128.043039 183.184883 
L 128.174602 183.263446 
L 128.437728 183.5777 
L 128.569291 183.184883 
L 129.095544 183.891954 
L 129.490234 184.677588 
L 129.621797 184.756152 
L 129.884923 185.148969 
L 130.279613 185.698913 
L 130.411176 185.698913 
L 130.805865 186.248857 
L 130.937428 186.327421 
L 131.068992 186.641675 
L 131.200555 186.641675 
L 132.121497 188.605761 
L 132.384623 188.212944 
L 132.779313 188.762888 
L 133.042439 188.841451 
L 133.174002 188.841451 
L 133.568692 188.055817 
L 135.279013 182.163558 
L 135.936829 181.142233 
L 136.726208 180.356599 
L 137.120898 180.042345 
L 137.384024 180.356599 
L 137.647151 180.356599 
L 138.699656 182.320685 
L 140.278414 187.348746 
L 141.33092 191.512608 
L 141.988735 194.262329 
L 143.567494 200.311715 
L 145.146252 206.518227 
L 145.277815 206.911044 
L 145.409378 206.832481 
L 145.672504 206.12541 
L 146.33032 202.511491 
L 147.119699 200.468842 
L 147.251263 200.154588 
L 148.040642 200.154588 
L 148.303768 200.468842 
L 148.961584 201.411603 
L 149.6194 203.139999 
L 150.277216 205.418339 
L 151.066595 208.482313 
L 151.198158 206.203973 
L 151.461284 198.740446 
L 151.592847 198.269065 
L 151.855974 199.211826 
L 152.776916 203.218562 
L 153.171606 203.925633 
L 153.303169 203.925633 
L 153.434732 204.239887 
L 154.487237 204.239887 
L 154.750364 203.84707 
L 155.276616 199.133263 
L 155.671306 197.404867 
L 156.329122 196.069288 
L 157.51319 194.105202 
L 157.90788 185.541786 
L 158.171006 184.520462 
L 158.434133 184.363335 
L 158.697259 184.441898 
L 158.828822 184.756152 
L 158.960385 184.756152 
L 159.355075 185.384659 
L 159.486638 185.384659 
L 159.618201 185.698913 
L 159.881328 185.777477 
L 160.012891 186.013167 
L 160.40758 186.09173 
L 160.539144 186.327421 
L 161.460086 186.405984 
L 161.723212 186.563111 
L 162.249465 186.327421 
L 162.381028 186.327421 
L 162.644154 186.641675 
L 163.433534 186.641675 
L 163.828223 184.991842 
L 164.354476 182.084995 
L 164.749165 180.513726 
L 164.880728 179.02102 
L 165.406981 165.665234 
L 165.670108 164.015401 
L 165.801671 164.093965 
L 166.064797 165.11529 
L 167.117303 170.771858 
L 167.775118 173.521579 
L 168.564497 176.114173 
L 168.827624 176.50699 
L 169.48544 178.235386 
L 169.880129 179.728091 
L 170.011692 179.806655 
L 170.143256 180.042345 
L 170.406382 175.799919 
L 170.669508 174.70003 
L 170.932635 175.564228 
L 171.327324 177.999695 
L 171.98514 182.634939 
L 172.906082 187.977253 
L 173.300772 189.548522 
L 173.432335 189.155705 
L 173.563898 187.820126 
L 173.827025 183.184883 
L 174.353277 178.471076 
L 174.747967 176.899807 
L 175.011093 176.585553 
L 175.537346 176.664117 
L 175.800472 176.97837 
L 176.063599 177.449751 
L 176.326725 177.999695 
L 176.458288 177.921132 
L 177.510794 154.744914 
L 177.77392 152.859392 
L 178.168609 151.838067 
L 178.826425 150.895305 
L 179.615804 148.774092 
L 180.27362 145.160174 
L 180.66831 141.232001 
L 180.931436 137.932336 
L 181.457689 127.483398 
L 181.983942 111.220764 
L 183.299573 62.904243 
L 183.957389 49.155639 
L 184.483642 43.184817 
L 184.878332 40.356533 
L 185.667711 37.371122 
L 186.193963 36.585488 
L 186.720216 36.19267 
L 186.983342 36.349797 
L 187.509595 36.742615 
L 188.562101 38.785264 
L 189.483043 41.849239 
L 190.272422 45.148904 
L 190.798675 47.741497 
L 191.85118 53.94801 
L 192.772122 59.997395 
L 193.035249 53.869446 
L 193.298375 52.062487 
L 193.693065 50.884035 
L 193.956191 50.884035 
L 194.74557 52.926685 
L 195.403386 57.011984 
L 195.929639 61.411537 
L 197.113707 73.667435 
L 198.560902 94.093932 
L 200.797476 126.069256 
L 202.113108 140.603494 
L 202.639361 145.160174 
L 206.060003 174.542904 
L 208.428141 196.147852 
L 209.21752 201.490166 
L 210.006899 206.046846 
L 210.927841 210.524963 
L 212.506599 216.652912 
L 214.874736 223.409369 
L 216.716621 227.730358 
L 216.848184 227.808922 
L 217.11131 227.494668 
L 217.637563 227.808922 
L 217.900689 228.201739 
L 218.426942 229.065937 
L 218.558505 229.1445 
L 218.953195 229.930135 
L 220.0057 231.265713 
L 220.40039 232.051348 
L 220.926642 232.836982 
L 221.189769 233.151236 
L 221.321332 233.2298 
L 221.452895 233.46549 
L 221.716022 233.46549 
L 222.110711 234.015434 
L 224.610411 236.922282 
L 224.873538 236.922282 
L 225.005101 237.236536 
L 225.399791 237.236536 
L 225.531354 237.550789 
L 225.662917 237.550789 
L 225.79448 237.865043 
L 226.057606 237.943607 
L 226.715422 238.964931 
L 227.241675 239.436312 
L 227.504801 239.514876 
L 227.636365 239.750566 
L 228.031054 239.750566 
L 228.29418 240.06482 
L 228.557307 240.06482 
L 228.820433 239.593439 
L 229.609812 238.807805 
L 229.872939 238.807805 
L 230.530754 239.593439 
L 230.662318 239.514876 
L 230.793881 239.750566 
L 231.057007 239.829129 
L 231.451697 240.379074 
L 231.714823 240.457637 
L 231.846386 240.693327 
L 232.372639 240.771891 
L 232.635765 241.007581 
L 232.898892 240.06482 
L 233.162018 240.457637 
L 233.293581 240.693327 
L 233.425144 240.693327 
L 233.688271 241.086145 
L 233.819834 241.321835 
L 233.951397 241.321835 
L 234.214523 241.636089 
L 234.47765 241.636089 
L 234.609213 241.950342 
L 234.872339 241.950342 
L 236.056408 243.207358 
L 236.187971 243.285921 
L 236.582661 243.835865 
L 236.714224 243.914429 
L 236.845787 244.150119 
L 236.97735 244.150119 
L 237.108913 244.464373 
L 238.161419 244.464373 
L 238.292982 244.778627 
L 238.556108 244.778627 
L 238.819235 245.09288 
L 238.950798 245.09288 
L 239.082361 245.407134 
L 239.213924 245.407134 
L 239.477051 245.721388 
L 239.608614 245.799951 
L 239.740177 246.035642 
L 240.003303 246.114205 
L 240.134866 246.349896 
L 240.397993 246.349896 
L 240.792682 246.664149 
L 240.924246 246.664149 
L 241.055809 246.978403 
L 241.450498 246.978403 
L 241.713625 247.292657 
L 242.108314 247.292657 
L 242.76613 247.921165 
L 243.029256 247.921165 
L 243.292383 248.235418 
L 243.555509 248.235418 
L 243.687072 248.392545 
L 243.950199 248.235418 
L 244.476451 248.235418 
L 244.608015 248.549672 
L 244.871141 248.549672 
L 245.002704 248.863926 
L 245.134267 248.863926 
L 245.528957 249.17818 
L 245.66052 249.17818 
L 246.186773 249.728124 
L 246.449899 248.706799 
L 246.713025 248.863926 
L 246.844589 248.863926 
L 250.923047 253.891987 
L 251.317737 254.520494 
L 251.4493 254.599058 
L 251.843989 255.149002 
L 251.975553 255.227565 
L 252.370242 255.777509 
L 252.501805 255.856073 
L 253.685874 257.820159 
L 256.185574 260.962697 
L 257.23808 262.691093 
L 257.632769 263.005347 
L 257.764332 263.005347 
L 258.027459 263.319601 
L 258.290585 263.319601 
L 258.685275 263.633854 
L 258.816838 263.633854 
L 259.079964 263.948108 
L 259.211527 264.026672 
L 259.606217 264.576616 
L 265.000307 270.861692 
L 265.13187 270.861692 
L 265.52656 271.175945 
L 265.658123 271.175945 
L 265.921249 271.568763 
L 266.052813 271.804453 
L 266.315939 271.883016 
L 266.447502 272.118707 
L 266.579065 272.118707 
L 266.842192 272.432961 
L 266.973755 272.432961 
L 267.236881 272.747214 
L 267.500008 272.825778 
L 267.894697 273.375722 
L 268.157823 273.454285 
L 268.289387 273.689976 
L 268.552513 273.689976 
L 268.684076 274.00423 
L 268.815639 274.00423 
L 269.078766 274.318483 
L 269.210329 274.397047 
L 269.341892 274.632737 
L 269.473455 274.632737 
L 269.868145 274.946991 
L 269.999708 275.025554 
L 270.131271 275.261245 
L 270.394398 275.261245 
L 271.052213 275.889752 
L 271.183777 275.889752 
L 271.578466 276.204006 
L 271.710029 276.28257 
L 271.841592 276.51826 
L 272.104719 276.596823 
L 272.236282 276.832514 
L 272.499408 276.911077 
L 272.630972 277.146767 
L 272.762535 277.146767 
L 273.157224 277.461021 
L 273.420351 277.539585 
L 273.551914 277.775275 
L 274.078166 277.775275 
L 274.472856 278.089529 
L 274.735982 278.168092 
L 274.867546 278.403783 
L 275.130672 278.403783 
L 275.393798 278.718036 
L 275.656925 278.718036 
L 275.788488 279.03229 
L 276.051614 279.03229 
L 276.446304 279.346544 
L 276.70943 279.346544 
L 276.972556 279.660798 
L 277.630372 279.660798 
L 277.893499 279.975052 
L 278.551315 279.975052 
L 278.814441 280.289305 
L 279.077567 280.289305 
L 279.340694 280.603559 
L 280.130073 280.682123 
L 280.261636 280.917813 
L 282.761336 280.917813 
L 282.892899 281.153503 
L 283.156026 280.917813 
L 283.287589 281.232067 
L 283.419152 280.367869 
L 283.550715 280.603559 
L 283.813842 280.682123 
L 283.945405 280.917813 
L 284.076968 280.917813 
L 284.340094 281.232067 
L 284.603221 281.232067 
L 284.99791 281.546321 
L 285.918853 281.546321 
L 286.050416 281.860574 
L 286.313542 281.703447 
L 286.445105 281.782011 
L 286.576668 281.546321 
L 286.971358 281.546321 
L 287.102921 281.860574 
L 287.366048 281.860574 
L 287.497611 282.174828 
L 287.760737 282.174828 
L 288.023863 282.489082 
L 288.418553 282.489082 
L 288.550116 282.803336 
L 289.076369 282.803336 
L 289.471058 283.11759 
L 289.997311 283.11759 
L 290.392001 283.431843 
L 290.523564 283.510407 
L 290.655127 283.746097 
L 290.918253 283.746097 
L 291.312943 284.060351 
L 291.970759 284.138914 
L 292.102322 284.374605 
L 292.233885 284.374605 
L 292.497011 283.510407 
L 292.628575 283.746097 
L 293.023264 283.746097 
L 293.154827 282.724772 
L 293.417954 278.953727 
L 293.549517 277.303894 
L 293.68108 277.539585 
L 294.602022 277.461021 
L 294.733585 277.225331 
L 295.391401 275.182681 
L 295.786091 274.632737 
L 296.838596 274.632737 
L 297.233286 274.946991 
L 297.364849 274.868427 
L 297.496412 274.632737 
L 297.627975 274.632737 
L 297.891102 274.23992 
L 298.022665 274.161356 
L 298.417354 271.018818 
L 299.206734 271.804453 
L 299.338297 271.883016 
L 299.732986 272.432961 
L 299.996113 272.432961 
L 300.653929 273.061468 
L 300.917055 273.061468 
L 301.180181 273.375722 
L 301.443308 273.454285 
L 301.574871 273.689976 
L 301.96956 273.768539 
L 302.101123 274.00423 
L 302.36425 274.00423 
L 302.627376 274.318483 
L 302.758939 274.318483 
L 303.022066 274.632737 
L 303.153629 274.632737 
L 303.285192 274.946991 
L 303.548318 275.025554 
L 303.679882 275.261245 
L 303.943008 275.339808 
L 304.074571 275.575499 
L 304.206134 275.575499 
L 304.86395 276.204006 
L 304.995513 276.204006 
L 305.127077 276.51826 
L 305.390203 276.51826 
L 305.653329 276.832514 
L 305.784892 276.832514 
L 306.048019 277.146767 
L 306.179582 277.225331 
L 306.574272 277.775275 
L 306.837398 277.853839 
L 306.968961 278.089529 
L 307.100524 278.089529 
L 307.75834 278.718036 
L 307.889903 278.7966 
L 308.021467 279.03229 
L 308.547719 279.03229 
L 308.679282 279.346544 
L 309.073972 279.346544 
L 309.205535 279.660798 
L 309.600225 279.660798 
L 309.863351 279.975052 
L 310.258041 279.975052 
L 310.65273 280.289305 
L 310.784293 280.289305 
L 311.178983 280.603559 
L 311.705236 280.603559 
L 311.968362 280.917813 
L 312.231488 280.917813 
L 312.363051 281.232067 
L 312.757741 281.31063 
L 312.889304 281.546321 
L 313.15243 281.546321 
L 313.283994 281.860574 
L 313.54712 281.939138 
L 313.678683 282.174828 
L 313.94181 282.253392 
L 314.073373 282.489082 
L 314.336499 282.489082 
L 314.731189 282.803336 
L 315.389004 282.803336 
L 315.652131 283.11759 
L 316.178384 283.11759 
L 316.309947 283.35328 
L 316.44151 283.274716 
L 316.573073 283.431843 
L 316.704636 283.11759 
L 317.099326 279.739361 
L 317.362452 279.267981 
L 317.757142 271.804453 
L 318.414958 265.755067 
L 318.678084 264.655179 
L 318.94121 264.105235 
L 319.072773 263.712418 
L 319.204337 262.84822 
L 319.862153 234.879632 
L 320.914658 225.844836 
L 321.309348 223.880749 
L 321.572474 223.173678 
L 321.8356 223.095115 
L 322.23029 223.095115 
L 323.940611 224.980638 
L 324.203737 224.980638 
L 324.335301 225.294891 
L 324.466864 225.294891 
L 324.598427 225.609145 
L 324.72999 225.609145 
L 325.256243 226.39478 
L 325.782496 227.180414 
L 327.755943 230.558642 
L 329.466265 232.444165 
L 329.597828 232.522729 
L 329.860954 232.836982 
L 331.308149 234.722505 
L 331.702839 235.272449 
L 331.965965 235.351013 
L 332.097528 235.665267 
L 332.229091 235.665267 
L 333.939413 237.865043 
L 334.334102 238.493551 
L 334.465665 238.572114 
L 334.597229 238.807805 
L 334.728792 238.807805 
L 334.860355 239.122058 
L 335.123481 239.122058 
L 335.255044 239.436312 
L 335.518171 239.514876 
L 335.649734 239.750566 
L 335.781297 239.750566 
L 335.91286 240.06482 
L 336.044423 240.06482 
L 336.439113 240.614764 
L 336.702239 240.771891 
L 337.228492 241.557525 
L 337.886308 241.950342 
L 338.017871 242.264596 
L 338.412561 242.34316 
L 338.544124 242.57885 
L 338.80725 242.57885 
L 339.20194 242.893104 
L 339.333503 242.893104 
L 339.465066 243.128794 
L 339.728192 242.893104 
L 340.122882 242.893104 
L 340.517572 243.207358 
L 340.780698 243.207358 
L 340.912261 243.521611 
L 341.438514 243.521611 
L 341.570077 243.835865 
L 341.964767 243.914429 
L 342.09633 244.150119 
L 342.885709 244.228682 
L 343.017272 244.464373 
L 343.280398 244.464373 
L 343.411961 244.6215 
L 343.675088 244.464373 
L 344.069777 244.464373 
L 344.201341 244.778627 
L 344.859156 244.778627 
L 345.122283 245.09288 
L 345.780099 245.09288 
L 346.043225 245.407134 
L 346.306351 245.407134 
L 346.437915 245.721388 
L 346.832604 245.721388 
L 347.227294 246.035642 
L 347.49042 246.114205 
L 347.621983 246.349896 
L 347.88511 246.428459 
L 348.016673 246.664149 
L 348.279799 246.664149 
L 348.542925 246.978403 
L 348.674489 246.978403 
L 349.069178 247.292657 
L 349.200741 247.292657 
L 349.595431 247.606911 
L 349.726994 247.606911 
L 349.858557 247.921165 
L 350.253247 247.921165 
L 350.38481 248.235418 
L 350.779499 248.313982 
L 350.911063 248.549672 
L 351.174189 248.549672 
L 351.305752 248.863926 
L 351.437315 248.863926 
L 351.568879 249.17818 
L 351.700442 249.17818 
L 352.358258 249.806687 
L 352.489821 249.885251 
L 352.621384 250.120941 
L 352.752947 250.120941 
L 353.147637 250.749449 
L 353.2792 250.828012 
L 353.410763 251.063703 
L 353.673889 251.063703 
L 353.805453 251.377956 
L 354.068579 251.377956 
L 356.042027 253.891987 
L 356.436716 254.520494 
L 356.568279 254.520494 
L 356.962969 254.834748 
L 357.226095 254.913312 
L 357.357658 255.149002 
L 357.489222 255.149002 
L 357.752348 255.541819 
L 357.883911 255.777509 
L 358.015474 255.777509 
L 358.147037 256.091763 
L 358.278601 256.091763 
L 358.67329 256.641707 
L 358.936417 256.877398 
L 359.462669 257.348778 
L 359.594232 257.348778 
L 359.857359 257.663032 
L 360.383611 257.663032 
L 361.041427 258.29154 
L 361.304554 258.29154 
L 361.56768 258.605794 
L 362.093933 258.605794 
L 362.357059 258.920047 
L 362.751749 258.998611 
L 362.883312 259.234301 
L 363.014875 259.234301 
L 363.278001 259.548555 
L 363.409565 259.548555 
L 363.541128 259.862809 
L 363.672691 259.862809 
L 364.593633 260.80557 
L 364.725196 260.884134 
L 364.85676 261.119824 
L 364.988323 261.119824 
L 365.119886 261.434078 
L 365.383012 261.434078 
L 365.646139 261.748332 
L 365.777702 261.748332 
L 366.172391 262.062585 
L 366.96177 262.062585 
L 367.093334 262.376839 
L 367.224897 262.376839 
L 368.145839 263.319601 
L 368.277402 263.319601 
L 368.408965 263.633854 
L 368.672092 263.633854 
L 368.803655 263.948108 
L 369.461471 263.948108 
L 369.724597 264.262362 
L 370.119287 264.262362 
L 370.25085 264.576616 
L 370.382413 264.576616 
L 371.303355 265.519377 
L 371.698045 265.519377 
L 371.829608 265.833631 
L 372.355861 265.833631 
L 373.276803 266.776392 
L 373.408366 266.776392 
L 373.803056 267.090646 
L 373.934619 267.090646 
L 374.066182 267.4049 
L 374.197745 267.4049 
L 374.460872 267.719154 
L 374.592435 267.719154 
L 374.723998 268.033407 
L 374.987124 268.111971 
L 375.118687 268.347661 
L 375.250251 268.347661 
L 376.697446 269.91893 
L 376.829009 269.91893 
L 376.960572 270.233184 
L 377.092135 270.233184 
L 377.749951 270.861692 
L 378.013077 270.861692 
L 378.144641 271.175945 
L 378.276204 271.175945 
L 378.93402 271.804453 
L 379.197146 271.804453 
L 379.460272 272.118707 
L 379.591836 272.118707 
L 380.249651 272.747214 
L 380.381215 272.747214 
L 380.644341 273.061468 
L 380.775904 273.061468 
L 381.03903 273.375722 
L 381.302157 273.375722 
L 381.565283 273.689976 
L 381.82841 273.768539 
L 381.959973 274.00423 
L 382.223099 274.082793 
L 382.354662 274.318483 
L 382.617789 274.318483 
L 382.880915 274.632737 
L 383.012478 274.711301 
L 383.144041 274.946991 
L 383.538731 274.946991 
L 383.801857 275.261245 
L 384.064984 275.261245 
L 384.459673 275.575499 
L 384.854363 275.654062 
L 384.985926 275.889752 
L 385.249052 275.889752 
L 385.906868 276.51826 
L 386.038431 276.51826 
L 386.301558 276.832514 
L 386.564684 276.832514 
L 386.82781 277.146767 
L 387.354063 277.225331 
L 387.485626 277.461021 
L 387.748753 277.461021 
L 387.880316 277.303894 
L 388.932821 278.403783 
L 389.064384 278.403783 
L 389.327511 278.718036 
L 389.590637 278.7966 
L 389.7222 279.03229 
L 390.248453 279.03229 
L 390.380016 279.346544 
L 391.169395 279.346544 
L 391.300958 279.660798 
L 391.564085 279.660798 
L 391.827211 279.975052 
L 391.958774 279.975052 
L 392.221901 280.289305 
L 392.485027 280.289305 
L 392.61659 280.603559 
L 393.01128 280.289305 
L 393.274406 280.603559 
L 393.800659 280.603559 
L 394.063785 280.917813 
L 394.853164 280.996376 
L 394.984727 281.232067 
L 395.116291 281.232067 
L 395.379417 281.546321 
L 395.642543 281.546321 
L 395.90567 281.860574 
L 396.168796 281.939138 
L 396.300359 282.174828 
L 396.563486 282.174828 
L 396.695049 282.489082 
L 397.484428 282.489082 
L 397.879117 282.803336 
L 398.142244 282.803336 
L 398.273807 283.11759 
L 398.668496 283.11759 
L 398.80006 283.431843 
L 399.326312 283.431843 
L 399.457875 283.746097 
L 400.378818 283.746097 
L 400.773507 284.060351 
L 401.694449 284.060351 
L 402.089139 284.374605 
L 402.615392 284.453168 
L 402.746955 284.688859 
L 403.931024 284.767422 
L 404.062587 285.003112 
L 404.457276 285.003112 
L 404.588839 285.317366 
L 405.246655 285.39593 
L 405.378218 285.63162 
L 406.167598 285.710183 
L 406.299161 285.945874 
L 407.220103 285.945874 
L 407.614793 286.260128 
L 407.877919 286.260128 
L 408.141045 286.574381 
L 408.930424 286.574381 
L 409.325114 286.888635 
L 410.114493 286.967199 
L 410.246056 287.202889 
L 411.298562 287.202889 
L 411.430125 287.517143 
L 413.140446 287.595706 
L 413.272009 287.831396 
L 415.245457 287.831396 
L 415.508583 288.14565 
L 417.087341 288.14565 
L 417.350468 288.459904 
L 419.455479 288.538468 
L 419.587042 288.774158 
L 420.376421 288.774158 
L 420.507984 289.088412 
L 421.692053 289.088412 
L 422.086742 289.402665 
L 423.139248 289.402665 
L 423.270811 289.716919 
L 424.718006 289.716919 
L 424.981132 290.031173 
L 425.375822 289.716919 
L 425.507385 289.716919 
L 425.902074 290.031173 
L 426.033637 289.795483 
L 426.296764 290.031173 
L 426.95458 289.95261 
L 427.480832 289.088412 
L 427.612396 289.088412 
L 427.875522 289.402665 
L 428.270212 289.402665 
L 428.533338 289.716919 
L 428.664901 289.481229 
L 428.796464 289.716919 
L 429.980533 289.716919 
L 430.112096 290.031173 
L 432.480233 290.109737 
L 432.611796 290.345427 
L 433.269612 290.345427 
L 433.401175 290.659681 
L 434.058991 290.659681 
L 434.453681 290.973934 
L 436.032439 290.973934 
L 436.164002 291.288188 
L 438.532139 291.288188 
L 438.795266 291.602442 
L 439.189955 291.681005 
L 439.321518 291.916696 
L 439.979334 291.916696 
L 440.242461 292.23095 
L 441.689656 292.23095 
L 441.821219 292.545203 
L 442.610598 292.545203 
L 442.873724 292.859457 
L 444.715609 292.859457 
L 444.847172 293.173711 
L 445.373425 293.173711 
L 445.504988 293.487965 
L 447.609999 293.566528 
L 447.741562 293.802219 
L 449.583446 293.802219 
L 449.71501 293.566528 
L 450.241262 293.802219 
L 450.899078 293.802219 
L 451.293768 294.116472 
L 451.556894 294.116472 
L 451.82002 294.430726 
L 452.740963 294.430726 
L 452.872526 294.116472 
L 454.056594 294.116472 
L 454.451284 294.430726 
L 457.740363 294.50929 
L 457.871927 294.74498 
L 458.529743 294.74498 
L 458.792869 295.059234 
L 462.476638 294.98067 
L 462.739764 291.523879 
L 463.002891 292.545203 
L 463.266017 292.23095 
L 463.39758 292.440452 
L 463.923833 293.487965 
L 464.055396 293.409401 
L 464.186959 293.173711 
L 465.897281 293.095148 
L 466.028844 292.859457 
L 466.29197 292.859457 
L 466.555096 292.545203 
L 468.133855 292.545203 
L 468.265418 292.859457 
L 469.975739 292.859457 
L 470.370429 292.545203 
L 470.633555 292.623767 
L 470.765118 292.859457 
L 472.607003 292.780894 
L 472.738566 292.545203 
L 473.133255 292.859457 
L 474.317324 292.859457 
L 474.58045 293.173711 
L 476.422335 293.173711 
L 476.553898 293.487965 
L 476.685461 293.487965 
L 476.817024 293.330838 
L 477.080151 293.487965 
L 477.737967 293.487965 
L 477.86953 293.802219 
L 479.185162 293.802219 
L 479.579851 294.116472 
L 480.237667 294.116472 
L 480.500793 294.430726 
L 481.290172 294.50929 
L 481.421736 294.74498 
L 482.342678 294.74498 
L 482.605804 295.059234 
L 483.395183 295.059234 
L 483.789873 295.373488 
L 484.447689 295.373488 
L 484.842378 295.687741 
L 485.631757 295.687741 
L 486.026447 296.001995 
L 486.5527 296.080559 
L 486.684263 296.316249 
L 488.131458 296.394812 
L 488.263021 296.630503 
L 488.394584 296.551939 
L 488.526147 296.630503 
L 488.65771 296.473376 
L 488.789274 296.630503 
L 488.920837 296.551939 
L 489.0524 296.630503 
L 489.183963 296.473376 
L 489.447089 296.630503 
L 489.841779 296.630503 
L 490.104905 296.944757 
L 492.999295 297.02332 
L 493.130858 297.25901 
L 494.972743 297.25901 
L 495.104306 297.101883 
L 495.367432 297.25901 
L 496.025248 297.337574 
L 496.156812 297.573264 
L 499.051201 297.573264 
L 499.445891 297.887518 
L 499.577454 297.808954 
L 499.709017 297.573264 
L 500.498396 297.651828 
L 500.62996 297.887518 
L 501.024649 297.808954 
L 501.287775 297.730391 
L 501.419339 297.730391 
L 501.550902 297.573264 
L 501.682465 297.651828 
L 501.945591 297.573264 
L 502.340281 297.887518 
L 503.52435 297.887518 
L 503.655913 297.573264 
L 504.313729 297.573264 
L 504.445292 297.730391 
L 504.708418 297.494701 
L 504.971544 297.573264 
L 505.103108 297.573264 
L 505.497797 297.887518 
L 505.892487 297.887518 
L 506.287176 298.201772 
L 506.944992 298.201772 
L 507.339682 297.887518 
L 508.392187 297.887518 
L 508.786877 298.201772 
L 511.81283 298.201772 
L 512.075956 298.516026 
L 513.523151 298.516026 
L 513.654714 298.751716 
L 514.838783 298.830279 
L 515.233472 299.144533 
L 517.864736 299.144533 
L 517.996299 299.458787 
L 518.785678 299.458787 
L 519.180368 299.773041 
L 519.969747 299.773041 
L 520.10131 299.615914 
L 520.496 299.773041 
L 521.285379 299.773041 
L 521.416942 300.087294 
L 523.521953 300.087294 
L 523.653516 300.322985 
L 523.785079 300.244421 
L 524.048205 300.401548 
L 524.574458 300.480112 
L 524.706021 300.715802 
L 529.836985 300.637239 
L 530.100112 300.401548 
L 531.28418 300.401548 
L 531.415743 300.087294 
L 532.205122 300.087294 
L 532.468249 299.773041 
L 533.783881 299.851604 
L 533.915444 300.087294 
L 535.494202 300.087294 
L 535.888891 300.401548 
L 537.07296 300.401548 
L 537.336086 300.715802 
L 538.388592 300.715802 
L 538.520155 301.030056 
L 540.362039 301.030056 
L 540.493603 301.34431 
L 541.546108 301.34431 
L 541.940798 301.658563 
L 543.256429 301.737127 
L 543.387993 301.972817 
L 544.703624 301.972817 
L 544.835188 301.658563 
L 544.966751 300.951492 
L 545.229877 297.101883 
L 545.493003 294.98067 
L 545.75613 294.50929 
L 545.887693 294.50929 
L 546.150819 294.666417 
L 546.282382 294.430726 
L 546.677072 294.352163 
L 547.203325 294.116472 
L 547.598014 294.195036 
L 547.861141 293.330838 
L 548.387393 291.052498 
L 548.518957 290.973934 
L 548.913646 291.288188 
L 549.176772 291.838132 
L 549.571462 292.938021 
L 550.097715 294.037909 
L 550.492404 294.430726 
L 550.755531 294.50929 
L 550.887094 294.74498 
L 551.15022 294.74498 
L 551.54491 294.430726 
L 552.597415 294.430726 
L 552.728978 294.74498 
L 553.255231 294.74498 
L 553.64992 295.059234 
L 555.623368 295.059234 
L 555.754931 295.373488 
L 559.4387 295.373488 
L 559.701827 295.687741 
L 561.938401 295.687741 
L 562.201527 296.001995 
L 563.911848 296.080559 
L 564.043412 296.316249 
L 565.490607 296.316249 
L 565.885296 296.630503 
L 566.806238 296.630503 
L 567.069365 296.944757 
L 567.595617 297.02332 
L 567.727181 297.25901 
L 569.174376 297.337574 
L 569.305939 297.573264 
L 570.226881 297.573264 
L 570.490007 297.887518 
L 570.753134 297.808954 
L 572.068765 297.887518 
L 572.463455 298.201772 
L 574.042213 298.201772 
L 574.305339 298.516026 
L 574.436903 298.437462 
L 574.568466 298.201772 
L 578.383798 298.201772 
L 578.515361 297.887518 
L 579.567867 297.887518 
L 579.962556 297.573264 
L 581.936004 297.573264 
L 582.19913 297.887518 
L 584.698831 297.887518 
L 584.961957 298.201772 
L 585.09352 298.123208 
L 585.356646 298.201772 
L 586.409152 298.201772 
L 586.672278 298.358899 
L 586.803841 298.437462 
L 586.935405 298.201772 
L 587.198531 298.280335 
L 587.461657 298.437462 
L 587.59322 298.516026 
L 587.724784 298.830279 
L 587.856347 298.830279 
L 588.119473 299.144533 
L 588.645726 299.223097 
L 588.777289 299.458787 
L 589.566668 299.458787 
L 589.698231 299.773041 
L 589.961358 299.615914 
L 590.224484 299.773041 
L 590.48761 299.53735 
L 590.619174 299.773041 
L 591.540116 299.851604 
L 591.671679 300.087294 
L 594.829195 300.087294 
L 594.960758 300.401548 
L 595.881701 300.401548 
L 596.144827 300.087294 
L 596.27639 300.401548 
L 596.407953 300.165858 
L 596.934206 300.401548 
L 598.907654 300.480112 
L 599.433907 300.715802 
L 600.223286 300.715802 
L 600.617975 301.030056 
L 600.749538 300.715802 
L 602.45986 300.715802 
L 602.591423 300.951492 
L 602.722986 300.715802 
L 603.380802 301.030056 
L 603.643928 300.951492 
L 603.775491 300.715802 
L 604.301744 300.715802 
L 604.56487 300.401548 
L 605.091123 300.401548 
L 605.617376 299.851604 
L 607.722387 299.773041 
L 607.985513 300.087294 
L 610.35365 300.087294 
L 610.485214 299.773041 
L 611.800845 299.773041 
L 612.195535 299.458787 
L 612.458661 299.380223 
L 612.590224 299.144533 
L 614.037419 299.144533 
L 614.168983 298.830279 
L 615.089925 298.830279 
L 615.221488 298.516026 
L 615.353051 298.516026 
L 615.879304 297.887518 
L 616.273993 298.201772 
L 617.326499 298.201772 
L 617.458062 297.887518 
L 618.379004 297.808954 
L 619.299946 295.294924 
L 619.957762 294.273599 
L 621.010268 293.173711 
L 621.141831 293.095148 
L 621.93121 291.838132 
L 622.194336 291.916696 
L 623.246842 291.916696 
L 623.641531 292.23095 
L 625.220289 292.23095 
L 625.351853 292.545203 
L 626.667484 292.623767 
L 626.799048 292.859457 
L 627.851553 292.938021 
L 627.983116 293.173711 
L 628.246243 293.252274 
L 628.377806 293.487965 
L 628.772495 293.487965 
L 628.904058 293.802219 
L 629.298748 293.880782 
L 629.430311 294.116472 
L 630.877506 294.116472 
L 631.009069 294.430726 
L 631.272196 294.430726 
L 631.666885 294.74498 
L 631.798448 294.823543 
L 631.930012 295.059234 
L 633.11408 295.059234 
L 633.771896 294.430726 
L 634.429712 294.352163 
L 634.824401 294.195036 
L 634.955965 294.430726 
L 635.219091 294.430726 
L 635.350654 294.74498 
L 635.745344 294.74498 
L 636.00847 295.059234 
L 637.060976 295.137797 
L 637.587228 295.373488 
L 638.113481 295.373488 
L 638.245044 295.687741 
L 638.771297 295.687741 
L 638.90286 296.001995 
L 639.429113 296.001995 
L 639.692239 296.316249 
L 639.955365 296.316249 
L 640.218492 296.630503 
L 640.350055 296.551939 
L 640.481618 296.630503 
L 640.613181 296.551939 
L 641.007871 296.944757 
L 642.060376 296.944757 
L 642.191939 296.630503 
L 643.244445 296.630503 
L 643.639134 296.944757 
L 643.902261 296.944757 
L 644.29695 297.25901 
L 644.823203 297.25901 
L 644.954766 297.494701 
L 646.007272 297.573264 
L 646.138835 297.651828 
L 646.270398 297.573264 
L 646.928214 297.887518 
L 647.717593 297.887518 
L 647.980719 298.201772 
L 648.506972 298.201772 
L 648.901662 298.516026 
L 650.611983 298.516026 
L 650.875109 298.830279 
L 652.98012 298.908843 
L 653.111683 299.144533 
L 653.901062 299.144533 
L 654.295752 300.087294 
L 654.427315 300.087294 
L 654.822005 300.401548 
L 656.137636 300.401548 
L 656.2692 300.715802 
L 656.663889 300.794366 
L 656.795452 301.030056 
L 657.979521 301.030056 
L 658.242647 301.34431 
L 659.426716 301.34431 
L 659.689842 301.658563 
L 662.057979 301.658563 
L 662.321106 301.972817 
L 663.505174 301.972817 
L 663.636738 302.287071 
L 664.294553 302.208508 
L 664.426117 301.972817 
L 665.347059 301.972817 
L 665.741748 302.287071 
L 666.925817 302.287071 
L 666.925817 302.287071 
" clip-path="url(#p420f7f0023)" style="fill: none; stroke: #1f77b4; stroke-width: 1.5; stroke-linecap: square"/>
   </g>
   <g id="line2d_14">
    <path d="M 51.341706 220.502521 
L 52.131085 220.037078 
L 53.18359 219.541792 
L 53.972969 217.466864 
L 54.630785 216.857944 
L 55.420164 216.389629 
L 56.341106 215.992879 
L 56.604233 215.29425 
L 56.867359 214.560121 
L 57.262049 214.273583 
L 57.393612 214.227195 
L 57.525175 214.038078 
L 57.788301 212.831046 
L 58.051428 211.701876 
L 58.446117 211.355622 
L 59.498623 210.668629 
L 60.288002 209.150783 
L 61.47207 208.356097 
L 63.050828 207.995939 
L 63.708644 208.067485 
L 64.892713 208.517316 
L 66.866161 209.660758 
L 68.181792 210.707358 
L 69.365861 211.664603 
L 70.681493 212.463575 
L 73.44432 215.519117 
L 75.812457 218.421598 
L 76.338709 218.433437 
L 77.654341 219.708565 
L 78.575283 220.586658 
L 78.83841 220.744346 
L 80.154042 222.264915 
L 82.127489 224.617731 
L 82.390616 224.790888 
L 83.048432 225.628502 
L 84.2325 227.278415 
L 84.62719 227.465387 
L 85.153442 228.178222 
L 85.416569 227.999995 
L 85.811258 228.431908 
L 88.837211 232.448068 
L 89.100338 232.580112 
L 89.62659 233.245581 
L 91.336912 235.603463 
L 91.600038 234.947395 
L 91.731601 235.017548 
L 92.389417 235.812675 
L 94.494428 238.450149 
L 94.757554 238.615215 
L 96.336313 240.640706 
L 97.257255 241.809113 
L 97.388818 241.549249 
L 97.783508 238.902575 
L 98.046634 238.629166 
L 98.441323 238.769021 
L 99.756955 239.616668 
L 100.414771 240.05655 
L 100.546334 239.580564 
L 100.941024 234.820781 
L 101.20415 234.125098 
L 101.59884 233.735297 
L 102.256656 233.439735 
L 103.177598 233.337894 
L 104.09854 233.329655 
L 104.230103 233.14376 
L 104.887919 230.607265 
L 105.677298 228.600776 
L 106.59824 226.82591 
L 107.782309 225.104859 
L 108.571688 224.387155 
L 109.49263 223.853587 
L 110.282009 223.632205 
L 111.202952 223.649503 
L 112.123894 223.900321 
L 113.176399 224.317769 
L 113.702652 223.333767 
L 114.360468 222.157627 
L 115.544537 220.44885 
L 115.807663 219.561763 
L 116.202352 217.641174 
L 116.728605 215.059875 
L 117.649547 211.557957 
L 119.096742 206.583316 
L 119.491432 204.39067 
L 120.280811 199.694755 
L 121.201753 195.945741 
L 122.122696 193.023763 
L 123.306764 190.116734 
L 123.96458 189.031606 
L 124.753959 188.162662 
L 125.543338 187.618762 
L 126.201154 187.411221 
L 126.85897 187.420112 
L 127.648349 187.672618 
L 128.700854 188.083102 
L 129.35867 188.288696 
L 130.016486 188.674564 
L 130.937428 189.475891 
L 134.094945 192.535855 
L 134.752761 193.283175 
L 137.120898 196.423196 
L 140.278414 201.73652 
L 143.43593 207.921152 
L 145.146252 211.31541 
L 145.540941 210.362484 
L 145.672504 210.423309 
L 146.33032 211.464226 
L 148.172205 214.590419 
L 148.303768 213.991099 
L 148.566894 212.225368 
L 148.698458 212.193999 
L 149.093147 212.684647 
L 151.066595 215.698907 
L 151.198158 215.412432 
L 151.329721 214.113124 
L 151.724411 208.078004 
L 151.987537 207.270492 
L 152.645353 206.30806 
L 153.434732 205.513354 
L 154.355674 204.846426 
L 154.487237 204.369307 
L 154.881927 202.202359 
L 155.671306 200.045828 
L 156.460685 198.912346 
L 157.250064 198.140552 
L 157.381627 198.049489 
L 157.51319 197.773828 
L 158.171006 195.394325 
L 159.091949 193.042954 
L 160.144454 191.0972 
L 160.539144 190.216817 
L 160.933833 189.023487 
L 161.328523 188.386746 
L 162.117902 187.671502 
L 162.907281 187.213188 
L 163.433534 186.923997 
L 164.222913 184.920566 
L 164.749165 184.1787 
L 166.19636 177.465794 
L 167.775118 172.353386 
L 169.222313 169.474217 
L 170.143256 167.672041 
L 171.327324 161.385687 
L 172.116703 158.865746 
L 172.906082 156.993379 
L 173.300772 156.071845 
L 174.090151 154.129054 
L 174.87953 152.812678 
L 175.537346 152.069666 
L 176.063599 151.652853 
L 176.458288 150.27214 
L 176.721415 147.354767 
L 177.247667 140.221898 
L 177.905483 136.694515 
L 178.826425 132.935206 
L 179.747368 130.118882 
L 180.142057 128.86669 
L 180.405184 127.926249 
L 180.931436 126.986917 
L 181.589252 126.212031 
L 182.247068 125.783979 
L 183.16801 125.523468 
L 183.694263 125.682702 
L 184.352079 126.08033 
L 185.141458 126.869598 
L 186.325527 128.448126 
L 187.641158 130.69211 
L 189.219916 134.158952 
L 190.272422 136.689177 
L 192.640559 142.921751 
L 192.903685 141.859995 
L 193.824628 137.559605 
L 194.614007 134.782536 
L 195.403386 132.737694 
L 196.192765 131.336376 
L 196.850581 130.603131 
L 197.508397 130.221159 
L 198.034649 130.143564 
L 198.692465 130.303201 
L 199.350281 130.71934 
L 200.13966 131.518186 
L 201.060603 132.809016 
L 202.113108 134.684404 
L 203.42874 137.51718 
L 205.139061 141.811219 
L 207.244072 147.775281 
L 212.375036 163.343815 
L 219.874137 186.735664 
L 221.584458 191.669871 
L 221.847585 191.79835 
L 222.505401 193.546675 
L 225.79448 202.480335 
L 226.978549 205.409656 
L 227.110112 205.098784 
L 227.373238 202.323346 
L 227.504801 202.214334 
L 227.636365 202.261157 
L 228.031054 203.02001 
L 229.741375 206.823704 
L 230.004502 206.357996 
L 230.925444 207.88145 
L 232.372639 210.779514 
L 232.767328 211.493333 
L 232.898892 211.597783 
L 233.293581 211.311649 
L 233.688271 211.843318 
L 236.187971 216.165059 
L 242.76613 227.678203 
L 246.581462 233.749656 
L 247.370841 234.729847 
L 250.923047 239.611232 
L 266.052813 261.343664 
L 270.131271 266.624262 
L 274.078166 271.378958 
L 277.630372 275.342249 
L 281.051015 278.8569 
L 281.445704 279.197923 
L 281.840394 279.077376 
L 282.49821 279.432044 
L 283.156026 279.249726 
L 283.550715 279.215223 
L 283.813842 279.145525 
L 284.734784 279.680762 
L 290.128874 283.333901 
L 291.970759 284.472845 
L 292.233885 284.428741 
L 292.365448 284.465592 
L 292.760138 284.177934 
L 293.154827 284.242327 
L 293.286391 284.192473 
L 293.549517 283.652263 
L 293.944206 282.872202 
L 294.338896 282.548928 
L 295.391401 282.277856 
L 296.838596 282.15384 
L 298.022665 282.064857 
L 299.732986 280.463285 
L 301.443308 279.699231 
L 302.36425 279.433863 
L 303.548318 279.369812 
L 304.995513 279.521221 
L 306.574272 279.913246 
L 308.416156 280.600613 
L 311.705236 282.139453 
L 314.862752 283.996579 
L 315.915257 284.582309 
L 316.04682 284.463198 
L 316.309947 283.939455 
L 316.704636 283.83783 
L 316.836199 283.527762 
L 316.967763 282.873671 
L 318.151831 271.691117 
L 318.809647 269.486441 
L 319.072773 268.703477 
L 319.204337 267.493294 
L 319.467463 259.188785 
L 319.730589 248.355682 
L 320.125279 243.842209 
L 321.177784 236.072016 
L 322.23029 229.757029 
L 322.756542 227.103548 
L 323.151232 226.483004 
L 324.335301 221.657067 
L 325.387806 218.230242 
L 326.308748 215.990134 
L 327.229691 214.300325 
L 328.150633 213.087697 
L 328.940012 212.38086 
L 329.729391 211.944365 
L 330.51877 211.747363 
L 331.308149 211.762293 
L 332.229091 212.01487 
L 333.281597 212.571606 
L 334.465665 213.486483 
L 335.781297 214.79782 
L 339.859756 219.292735 
L 339.991319 219.245018 
L 340.254445 218.469796 
L 340.517572 218.589498 
L 341.570077 219.865131 
L 345.516972 225.150142 
L 348.674489 230.017051 
L 355.252648 240.702563 
L 358.936417 246.480329 
L 359.06798 246.491843 
L 359.988922 243.913659 
L 360.252048 242.578651 
L 360.515175 242.615087 
L 361.699243 243.693107 
L 364.593633 246.791906 
L 369.461471 252.158402 
L 369.85616 252.459937 
L 373.671492 256.67886 
L 385.117489 269.6242 
L 389.985327 274.737161 
L 393.01128 277.680965 
L 393.669096 278.227364 
L 398.536933 282.610269 
L 402.746955 286.107605 
L 407.483229 289.729777 
L 411.956377 292.858638 
L 416.429525 295.713102 
L 420.902674 298.307776 
L 425.507385 300.725388 
L 430.243659 302.963745 
L 435.111497 305.022714 
L 441.952782 307.431872 
L 442.742161 307.616973 
L 448.136251 309.193447 
L 454.582847 310.783548 
L 456.030042 310.956618 
L 457.082548 311.083696 
L 458.661306 311.304706 
L 462.213512 311.854254 
L 462.476638 311.685011 
L 462.608201 311.317281 
L 463.002891 308.059885 
L 463.266017 307.587312 
L 463.39758 307.504842 
L 464.450086 307.253629 
L 466.818223 306.636409 
L 469.054797 306.3825 
L 471.554497 306.335488 
L 474.448887 306.512041 
L 478.001093 306.964103 
L 482.605804 307.789204 
L 489.973342 309.366292 
L 503.392786 312.247852 
L 503.787476 312.182897 
L 504.050602 312.107785 
L 505.62936 312.313948 
L 515.233472 313.629581 
L 515.496599 313.143846 
L 516.022851 311.765802 
L 516.417541 311.622269 
L 518.522552 311.488775 
L 521.811631 311.481782 
L 526.811032 311.643528 
L 526.942595 311.274035 
L 527.337285 308.199138 
L 527.600411 307.995307 
L 528.521353 307.915078 
L 531.415743 307.896329 
L 535.099512 308.033815 
L 535.625765 307.263905 
L 536.546707 307.244984 
L 539.704224 307.416218 
L 543.519556 307.854975 
L 544.572061 307.912599 
L 544.966751 307.342091 
L 545.75613 303.989951 
L 546.413946 302.917582 
L 547.598014 301.382378 
L 548.782083 300.186871 
L 550.097715 299.182938 
L 551.413346 298.462981 
L 552.860541 297.940095 
L 554.4393 297.629755 
L 556.149621 297.536012 
L 558.123069 297.668653 
L 559.307137 297.725529 
L 559.83339 297.762819 
L 562.33309 298.312804 
L 563.911848 298.718762 
L 564.438101 298.757251 
L 564.832791 298.79251 
L 567.727181 299.640201 
L 572.726581 301.344448 
L 574.436903 301.842421 
L 574.700029 301.380317 
L 575.094719 300.736644 
L 575.489408 300.465662 
L 576.015661 299.813696 
L 576.673477 299.595448 
L 576.936603 299.406866 
L 577.857545 299.39174 
L 581.804441 299.63509 
L 584.961957 300.205132 
L 588.645726 301.106685 
L 593.77669 302.608069 
L 613.511167 308.601251 
L 618.247441 309.841393 
L 618.510567 309.68919 
L 618.642131 309.51274 
L 619.43151 306.707862 
L 620.484015 305.175964 
L 621.010268 304.824369 
L 622.589026 304.165905 
L 624.299347 303.697995 
L 626.141232 303.42212 
L 628.246243 303.334082 
L 630.745943 303.467793 
L 632.982517 303.604798 
L 633.377207 303.178297 
L 633.771896 302.778707 
L 634.824401 302.462655 
L 636.140033 302.39127 
L 638.50817 302.490254 
L 641.270997 302.831959 
L 644.69164 303.486931 
L 649.296351 304.611745 
L 666.925817 309.343253 
L 666.925817 309.343253 
" clip-path="url(#p420f7f0023)" style="fill: none; stroke: #ff7f0e; stroke-width: 1.5; stroke-linecap: square"/>
   </g>
   <g id="patch_3">
    <path d="M 20.5625 327.558125 
L 20.5625 22.318125 
" style="fill: none; stroke: #000000; stroke-width: 0.8; stroke-linejoin: miter; stroke-linecap: square"/>
   </g>
   <g id="patch_4">
    <path d="M 697.705023 327.558125 
L 697.705023 22.318125 
" style="fill: none; stroke: #000000; stroke-width: 0.8; stroke-linejoin: miter; stroke-linecap: square"/>
   </g>
   <g id="patch_5">
    <path d="M 20.5625 327.558125 
L 697.705023 327.558125 
" style="fill: none; stroke: #000000; stroke-width: 0.8; stroke-linejoin: miter; stroke-linecap: square"/>
   </g>
   <g id="patch_6">
    <path d="M 20.5625 22.318125 
L 697.705023 22.318125 
" style="fill: none; stroke: #000000; stroke-width: 0.8; stroke-linejoin: miter; stroke-linecap: square"/>
   </g>
   <g id="text_13">
    <!-- training -->
    <g transform="translate(335.890324 16.318125) scale(0.12 -0.12)">
     <defs>
      <path id="DejaVuSans-74" d="M 1172 4494 
L 1172 3500 
L 2356 3500 
L 2356 3053 
L 1172 3053 
L 1172 1153 
Q 1172 725 1289 603 
Q 1406 481 1766 481 
L 2356 481 
L 2356 0 
L 1766 0 
Q 1100 0 847 248 
Q 594 497 594 1153 
L 594 3053 
L 172 3053 
L 172 3500 
L 594 3500 
L 594 4494 
L 1172 4494 
z
" transform="scale(0.015625)"/>
      <path id="DejaVuSans-72" d="M 2631 2963 
Q 2534 3019 2420 3045 
Q 2306 3072 2169 3072 
Q 1681 3072 1420 2755 
Q 1159 2438 1159 1844 
L 1159 0 
L 581 0 
L 581 3500 
L 1159 3500 
L 1159 2956 
Q 1341 3275 1631 3429 
Q 1922 3584 2338 3584 
Q 2397 3584 2469 3576 
Q 2541 3569 2628 3553 
L 2631 2963 
z
" transform="scale(0.015625)"/>
      <path id="DejaVuSans-61" d="M 2194 1759 
Q 1497 1759 1228 1600 
Q 959 1441 959 1056 
Q 959 750 1161 570 
Q 1363 391 1709 391 
Q 2188 391 2477 730 
Q 2766 1069 2766 1631 
L 2766 1759 
L 2194 1759 
z
M 3341 1997 
L 3341 0 
L 2766 0 
L 2766 531 
Q 2569 213 2275 61 
Q 1981 -91 1556 -91 
Q 1019 -91 701 211 
Q 384 513 384 1019 
Q 384 1609 779 1909 
Q 1175 2209 1959 2209 
L 2766 2209 
L 2766 2266 
Q 2766 2663 2505 2880 
Q 2244 3097 1772 3097 
Q 1472 3097 1187 3025 
Q 903 2953 641 2809 
L 641 3341 
Q 956 3463 1253 3523 
Q 1550 3584 1831 3584 
Q 2591 3584 2966 3190 
Q 3341 2797 3341 1997 
z
" transform="scale(0.015625)"/>
      <path id="DejaVuSans-69" d="M 603 3500 
L 1178 3500 
L 1178 0 
L 603 0 
L 603 3500 
z
M 603 4863 
L 1178 4863 
L 1178 4134 
L 603 4134 
L 603 4863 
z
" transform="scale(0.015625)"/>
      <path id="DejaVuSans-6e" d="M 3513 2113 
L 3513 0 
L 2938 0 
L 2938 2094 
Q 2938 2591 2744 2837 
Q 2550 3084 2163 3084 
Q 1697 3084 1428 2787 
Q 1159 2491 1159 1978 
L 1159 0 
L 581 0 
L 581 3500 
L 1159 3500 
L 1159 2956 
Q 1366 3272 1645 3428 
Q 1925 3584 2291 3584 
Q 2894 3584 3203 3211 
Q 3513 2838 3513 2113 
z
" transform="scale(0.015625)"/>
      <path id="DejaVuSans-67" d="M 2906 1791 
Q 2906 2416 2648 2759 
Q 2391 3103 1925 3103 
Q 1463 3103 1205 2759 
Q 947 2416 947 1791 
Q 947 1169 1205 825 
Q 1463 481 1925 481 
Q 2391 481 2648 825 
Q 2906 1169 2906 1791 
z
M 3481 434 
Q 3481 -459 3084 -895 
Q 2688 -1331 1869 -1331 
Q 1566 -1331 1297 -1286 
Q 1028 -1241 775 -1147 
L 775 -588 
Q 1028 -725 1275 -790 
Q 1522 -856 1778 -856 
Q 2344 -856 2625 -561 
Q 2906 -266 2906 331 
L 2906 616 
Q 2728 306 2450 153 
Q 2172 0 1784 0 
Q 1141 0 747 490 
Q 353 981 353 1791 
Q 353 2603 747 3093 
Q 1141 3584 1784 3584 
Q 2172 3584 2450 3431 
Q 2728 3278 2906 2969 
L 2906 3500 
L 3481 3500 
L 3481 434 
z
" transform="scale(0.015625)"/>
     </defs>
     <use xlink:href="#DejaVuSans-74"/>
     <use xlink:href="#DejaVuSans-72" x="39.208984"/>
     <use xlink:href="#DejaVuSans-61" x="80.322266"/>
     <use xlink:href="#DejaVuSans-69" x="141.601562"/>
     <use xlink:href="#DejaVuSans-6e" x="169.384766"/>
     <use xlink:href="#DejaVuSans-69" x="232.763672"/>
     <use xlink:href="#DejaVuSans-6e" x="260.546875"/>
     <use xlink:href="#DejaVuSans-67" x="323.925781"/>
    </g>
   </g>
   <g id="legend_1">
    <g id="patch_7">
     <path d="M 609.311273 59.674375 
L 690.705023 59.674375 
Q 692.705023 59.674375 692.705023 57.674375 
L 692.705023 29.318125 
Q 692.705023 27.318125 690.705023 27.318125 
L 609.311273 27.318125 
Q 607.311273 27.318125 607.311273 29.318125 
L 607.311273 57.674375 
Q 607.311273 59.674375 609.311273 59.674375 
z
" style="fill: #ffffff; opacity: 0.8; stroke: #cccccc; stroke-linejoin: miter"/>
    </g>
    <g id="line2d_15">
     <path d="M 611.311273 35.416562 
L 621.311273 35.416562 
L 631.311273 35.416562 
" style="fill: none; stroke: #1f77b4; stroke-width: 1.5; stroke-linecap: square"/>
    </g>
    <g id="text_14">
     <!-- observed -->
     <g transform="translate(639.311273 38.916562) scale(0.1 -0.1)">
      <defs>
       <path id="DejaVuSans-6f" d="M 1959 3097 
Q 1497 3097 1228 2736 
Q 959 2375 959 1747 
Q 959 1119 1226 758 
Q 1494 397 1959 397 
Q 2419 397 2687 759 
Q 2956 1122 2956 1747 
Q 2956 2369 2687 2733 
Q 2419 3097 1959 3097 
z
M 1959 3584 
Q 2709 3584 3137 3096 
Q 3566 2609 3566 1747 
Q 3566 888 3137 398 
Q 2709 -91 1959 -91 
Q 1206 -91 779 398 
Q 353 888 353 1747 
Q 353 2609 779 3096 
Q 1206 3584 1959 3584 
z
" transform="scale(0.015625)"/>
       <path id="DejaVuSans-62" d="M 3116 1747 
Q 3116 2381 2855 2742 
Q 2594 3103 2138 3103 
Q 1681 3103 1420 2742 
Q 1159 2381 1159 1747 
Q 1159 1113 1420 752 
Q 1681 391 2138 391 
Q 2594 391 2855 752 
Q 3116 1113 3116 1747 
z
M 1159 2969 
Q 1341 3281 1617 3432 
Q 1894 3584 2278 3584 
Q 2916 3584 3314 3078 
Q 3713 2572 3713 1747 
Q 3713 922 3314 415 
Q 2916 -91 2278 -91 
Q 1894 -91 1617 61 
Q 1341 213 1159 525 
L 1159 0 
L 581 0 
L 581 4863 
L 1159 4863 
L 1159 2969 
z
" transform="scale(0.015625)"/>
       <path id="DejaVuSans-73" d="M 2834 3397 
L 2834 2853 
Q 2591 2978 2328 3040 
Q 2066 3103 1784 3103 
Q 1356 3103 1142 2972 
Q 928 2841 928 2578 
Q 928 2378 1081 2264 
Q 1234 2150 1697 2047 
L 1894 2003 
Q 2506 1872 2764 1633 
Q 3022 1394 3022 966 
Q 3022 478 2636 193 
Q 2250 -91 1575 -91 
Q 1294 -91 989 -36 
Q 684 19 347 128 
L 347 722 
Q 666 556 975 473 
Q 1284 391 1588 391 
Q 1994 391 2212 530 
Q 2431 669 2431 922 
Q 2431 1156 2273 1281 
Q 2116 1406 1581 1522 
L 1381 1569 
Q 847 1681 609 1914 
Q 372 2147 372 2553 
Q 372 3047 722 3315 
Q 1072 3584 1716 3584 
Q 2034 3584 2315 3537 
Q 2597 3491 2834 3397 
z
" transform="scale(0.015625)"/>
       <path id="DejaVuSans-65" d="M 3597 1894 
L 3597 1613 
L 953 1613 
Q 991 1019 1311 708 
Q 1631 397 2203 397 
Q 2534 397 2845 478 
Q 3156 559 3463 722 
L 3463 178 
Q 3153 47 2828 -22 
Q 2503 -91 2169 -91 
Q 1331 -91 842 396 
Q 353 884 353 1716 
Q 353 2575 817 3079 
Q 1281 3584 2069 3584 
Q 2775 3584 3186 3129 
Q 3597 2675 3597 1894 
z
M 3022 2063 
Q 3016 2534 2758 2815 
Q 2500 3097 2075 3097 
Q 1594 3097 1305 2825 
Q 1016 2553 972 2059 
L 3022 2063 
z
" transform="scale(0.015625)"/>
       <path id="DejaVuSans-76" d="M 191 3500 
L 800 3500 
L 1894 563 
L 2988 3500 
L 3597 3500 
L 2284 0 
L 1503 0 
L 191 3500 
z
" transform="scale(0.015625)"/>
       <path id="DejaVuSans-64" d="M 2906 2969 
L 2906 4863 
L 3481 4863 
L 3481 0 
L 2906 0 
L 2906 525 
Q 2725 213 2448 61 
Q 2172 -91 1784 -91 
Q 1150 -91 751 415 
Q 353 922 353 1747 
Q 353 2572 751 3078 
Q 1150 3584 1784 3584 
Q 2172 3584 2448 3432 
Q 2725 3281 2906 2969 
z
M 947 1747 
Q 947 1113 1208 752 
Q 1469 391 1925 391 
Q 2381 391 2643 752 
Q 2906 1113 2906 1747 
Q 2906 2381 2643 2742 
Q 2381 3103 1925 3103 
Q 1469 3103 1208 2742 
Q 947 2381 947 1747 
z
" transform="scale(0.015625)"/>
      </defs>
      <use xlink:href="#DejaVuSans-6f"/>
      <use xlink:href="#DejaVuSans-62" x="61.181641"/>
      <use xlink:href="#DejaVuSans-73" x="124.658203"/>
      <use xlink:href="#DejaVuSans-65" x="176.757812"/>
      <use xlink:href="#DejaVuSans-72" x="238.28125"/>
      <use xlink:href="#DejaVuSans-76" x="279.394531"/>
      <use xlink:href="#DejaVuSans-65" x="338.574219"/>
      <use xlink:href="#DejaVuSans-64" x="400.097656"/>
     </g>
    </g>
    <g id="line2d_16">
     <path d="M 611.311273 50.094688 
L 621.311273 50.094688 
L 631.311273 50.094688 
" style="fill: none; stroke: #ff7f0e; stroke-width: 1.5; stroke-linecap: square"/>
    </g>
    <g id="text_15">
     <!-- simulated -->
     <g transform="translate(639.311273 53.594688) scale(0.1 -0.1)">
      <defs>
       <path id="DejaVuSans-6d" d="M 3328 2828 
Q 3544 3216 3844 3400 
Q 4144 3584 4550 3584 
Q 5097 3584 5394 3201 
Q 5691 2819 5691 2113 
L 5691 0 
L 5113 0 
L 5113 2094 
Q 5113 2597 4934 2840 
Q 4756 3084 4391 3084 
Q 3944 3084 3684 2787 
Q 3425 2491 3425 1978 
L 3425 0 
L 2847 0 
L 2847 2094 
Q 2847 2600 2669 2842 
Q 2491 3084 2119 3084 
Q 1678 3084 1418 2786 
Q 1159 2488 1159 1978 
L 1159 0 
L 581 0 
L 581 3500 
L 1159 3500 
L 1159 2956 
Q 1356 3278 1631 3431 
Q 1906 3584 2284 3584 
Q 2666 3584 2933 3390 
Q 3200 3197 3328 2828 
z
" transform="scale(0.015625)"/>
       <path id="DejaVuSans-75" d="M 544 1381 
L 544 3500 
L 1119 3500 
L 1119 1403 
Q 1119 906 1312 657 
Q 1506 409 1894 409 
Q 2359 409 2629 706 
Q 2900 1003 2900 1516 
L 2900 3500 
L 3475 3500 
L 3475 0 
L 2900 0 
L 2900 538 
Q 2691 219 2414 64 
Q 2138 -91 1772 -91 
Q 1169 -91 856 284 
Q 544 659 544 1381 
z
M 1991 3584 
L 1991 3584 
z
" transform="scale(0.015625)"/>
       <path id="DejaVuSans-6c" d="M 603 4863 
L 1178 4863 
L 1178 0 
L 603 0 
L 603 4863 
z
" transform="scale(0.015625)"/>
      </defs>
      <use xlink:href="#DejaVuSans-73"/>
      <use xlink:href="#DejaVuSans-69" x="52.099609"/>
      <use xlink:href="#DejaVuSans-6d" x="79.882812"/>
      <use xlink:href="#DejaVuSans-75" x="177.294922"/>
      <use xlink:href="#DejaVuSans-6c" x="240.673828"/>
      <use xlink:href="#DejaVuSans-61" x="268.457031"/>
      <use xlink:href="#DejaVuSans-74" x="329.736328"/>
      <use xlink:href="#DejaVuSans-65" x="368.945312"/>
      <use xlink:href="#DejaVuSans-64" x="430.46875"/>
     </g>
    </g>
   </g>
  </g>
 </g>
 <defs>
  <clipPath id="p420f7f0023">
   <rect x="20.5625" y="22.318125" width="677.142523" height="305.24"/>
  </clipPath>
 </defs>
</svg>
