<?xml version="1.0" encoding="utf-8" standalone="no"?>
<!DOCTYPE svg PUBLIC "-//W3C//DTD SVG 1.1//EN"
  "http://www.w3.org/Graphics/SVG/1.1/DTD/svg11.dtd">
<svg xmlns:xlink="http://www.w3.org/1999/xlink" width="711.966516pt" height="351.43625pt" viewBox="0 0 711.966516 351.43625" xmlns="http://www.w3.org/2000/svg" version="1.1">
 <metadata>
  <rdf:RDF xmlns:dc="http://purl.org/dc/elements/1.1/" xmlns:cc="http://creativecommons.org/ns#" xmlns:rdf="http://www.w3.org/1999/02/22-rdf-syntax-ns#">
   <cc:Work>
    <dc:type rdf:resource="http://purl.org/dc/dcmitype/StillImage"/>
    <dc:date>2023-12-07T09:13:51.322567</dc:date>
    <dc:format>image/svg+xml</dc:format>
    <dc:creator>
     <cc:Agent>
      <dc:title>Matplotlib v3.7.1, https://matplotlib.org/</dc:title>
     </cc:Agent>
    </dc:creator>
   </cc:Work>
  </rdf:RDF>
 </metadata>
 <defs>
  <style type="text/css">*{stroke-linejoin: round; stroke-linecap: butt}</style>
 </defs>
 <g id="figure_1">
  <g id="patch_1">
   <path d="M 0 351.43625 
L 711.966516 351.43625 
L 711.966516 0 
L 0 0 
z
" style="fill: #ffffff"/>
  </g>
  <g id="axes_1">
   <g id="patch_2">
    <path d="M 48.029688 327.558125 
L 700.168561 327.558125 
L 700.168561 22.318125 
L 48.029688 22.318125 
z
" style="fill: #ffffff"/>
   </g>
   <g id="matplotlib.axis_1">
    <g id="xtick_1">
     <g id="line2d_1">
      <defs>
       <path id="m65813e2614" d="M 0 0 
L 0 3.5 
" style="stroke: #000000; stroke-width: 0.8"/>
      </defs>
      <g>
       <use xlink:href="#m65813e2614" x="122.964443" y="327.558125" style="stroke: #000000; stroke-width: 0.8"/>
      </g>
     </g>
     <g id="text_1">
      <!-- 2011 -->
      <g transform="translate(110.239443 342.156563) scale(0.1 -0.1)">
       <defs>
        <path id="DejaVuSans-32" d="M 1228 531 
L 3431 531 
L 3431 0 
L 469 0 
L 469 531 
Q 828 903 1448 1529 
Q 2069 2156 2228 2338 
Q 2531 2678 2651 2914 
Q 2772 3150 2772 3378 
Q 2772 3750 2511 3984 
Q 2250 4219 1831 4219 
Q 1534 4219 1204 4116 
Q 875 4013 500 3803 
L 500 4441 
Q 881 4594 1212 4672 
Q 1544 4750 1819 4750 
Q 2544 4750 2975 4387 
Q 3406 4025 3406 3419 
Q 3406 3131 3298 2873 
Q 3191 2616 2906 2266 
Q 2828 2175 2409 1742 
Q 1991 1309 1228 531 
z
" transform="scale(0.015625)"/>
        <path id="DejaVuSans-30" d="M 2034 4250 
Q 1547 4250 1301 3770 
Q 1056 3291 1056 2328 
Q 1056 1369 1301 889 
Q 1547 409 2034 409 
Q 2525 409 2770 889 
Q 3016 1369 3016 2328 
Q 3016 3291 2770 3770 
Q 2525 4250 2034 4250 
z
M 2034 4750 
Q 2819 4750 3233 4129 
Q 3647 3509 3647 2328 
Q 3647 1150 3233 529 
Q 2819 -91 2034 -91 
Q 1250 -91 836 529 
Q 422 1150 422 2328 
Q 422 3509 836 4129 
Q 1250 4750 2034 4750 
z
" transform="scale(0.015625)"/>
        <path id="DejaVuSans-31" d="M 794 531 
L 1825 531 
L 1825 4091 
L 703 3866 
L 703 4441 
L 1819 4666 
L 2450 4666 
L 2450 531 
L 3481 531 
L 3481 0 
L 794 0 
L 794 531 
z
" transform="scale(0.015625)"/>
       </defs>
       <use xlink:href="#DejaVuSans-32"/>
       <use xlink:href="#DejaVuSans-30" x="63.623047"/>
       <use xlink:href="#DejaVuSans-31" x="127.246094"/>
       <use xlink:href="#DejaVuSans-31" x="190.869141"/>
      </g>
     </g>
    </g>
    <g id="xtick_2">
     <g id="line2d_2">
      <g>
       <use xlink:href="#m65813e2614" x="217.724083" y="327.558125" style="stroke: #000000; stroke-width: 0.8"/>
      </g>
     </g>
     <g id="text_2">
      <!-- 2012 -->
      <g transform="translate(204.999083 342.156563) scale(0.1 -0.1)">
       <use xlink:href="#DejaVuSans-32"/>
       <use xlink:href="#DejaVuSans-30" x="63.623047"/>
       <use xlink:href="#DejaVuSans-31" x="127.246094"/>
       <use xlink:href="#DejaVuSans-32" x="190.869141"/>
      </g>
     </g>
    </g>
    <g id="xtick_3">
     <g id="line2d_3">
      <g>
       <use xlink:href="#m65813e2614" x="312.743339" y="327.558125" style="stroke: #000000; stroke-width: 0.8"/>
      </g>
     </g>
     <g id="text_3">
      <!-- 2013 -->
      <g transform="translate(300.018339 342.156563) scale(0.1 -0.1)">
       <defs>
        <path id="DejaVuSans-33" d="M 2597 2516 
Q 3050 2419 3304 2112 
Q 3559 1806 3559 1356 
Q 3559 666 3084 287 
Q 2609 -91 1734 -91 
Q 1441 -91 1130 -33 
Q 819 25 488 141 
L 488 750 
Q 750 597 1062 519 
Q 1375 441 1716 441 
Q 2309 441 2620 675 
Q 2931 909 2931 1356 
Q 2931 1769 2642 2001 
Q 2353 2234 1838 2234 
L 1294 2234 
L 1294 2753 
L 1863 2753 
Q 2328 2753 2575 2939 
Q 2822 3125 2822 3475 
Q 2822 3834 2567 4026 
Q 2313 4219 1838 4219 
Q 1578 4219 1281 4162 
Q 984 4106 628 3988 
L 628 4550 
Q 988 4650 1302 4700 
Q 1616 4750 1894 4750 
Q 2613 4750 3031 4423 
Q 3450 4097 3450 3541 
Q 3450 3153 3228 2886 
Q 3006 2619 2597 2516 
z
" transform="scale(0.015625)"/>
       </defs>
       <use xlink:href="#DejaVuSans-32"/>
       <use xlink:href="#DejaVuSans-30" x="63.623047"/>
       <use xlink:href="#DejaVuSans-31" x="127.246094"/>
       <use xlink:href="#DejaVuSans-33" x="190.869141"/>
      </g>
     </g>
    </g>
    <g id="xtick_4">
     <g id="line2d_4">
      <g>
       <use xlink:href="#m65813e2614" x="407.502979" y="327.558125" style="stroke: #000000; stroke-width: 0.8"/>
      </g>
     </g>
     <g id="text_4">
      <!-- 2014 -->
      <g transform="translate(394.777979 342.156563) scale(0.1 -0.1)">
       <defs>
        <path id="DejaVuSans-34" d="M 2419 4116 
L 825 1625 
L 2419 1625 
L 2419 4116 
z
M 2253 4666 
L 3047 4666 
L 3047 1625 
L 3713 1625 
L 3713 1100 
L 3047 1100 
L 3047 0 
L 2419 0 
L 2419 1100 
L 313 1100 
L 313 1709 
L 2253 4666 
z
" transform="scale(0.015625)"/>
       </defs>
       <use xlink:href="#DejaVuSans-32"/>
       <use xlink:href="#DejaVuSans-30" x="63.623047"/>
       <use xlink:href="#DejaVuSans-31" x="127.246094"/>
       <use xlink:href="#DejaVuSans-34" x="190.869141"/>
      </g>
     </g>
    </g>
    <g id="xtick_5">
     <g id="line2d_5">
      <g>
       <use xlink:href="#m65813e2614" x="502.26262" y="327.558125" style="stroke: #000000; stroke-width: 0.8"/>
      </g>
     </g>
     <g id="text_5">
      <!-- 2015 -->
      <g transform="translate(489.53762 342.156563) scale(0.1 -0.1)">
       <defs>
        <path id="DejaVuSans-35" d="M 691 4666 
L 3169 4666 
L 3169 4134 
L 1269 4134 
L 1269 2991 
Q 1406 3038 1543 3061 
Q 1681 3084 1819 3084 
Q 2600 3084 3056 2656 
Q 3513 2228 3513 1497 
Q 3513 744 3044 326 
Q 2575 -91 1722 -91 
Q 1428 -91 1123 -41 
Q 819 9 494 109 
L 494 744 
Q 775 591 1075 516 
Q 1375 441 1709 441 
Q 2250 441 2565 725 
Q 2881 1009 2881 1497 
Q 2881 1984 2565 2268 
Q 2250 2553 1709 2553 
Q 1456 2553 1204 2497 
Q 953 2441 691 2322 
L 691 4666 
z
" transform="scale(0.015625)"/>
       </defs>
       <use xlink:href="#DejaVuSans-32"/>
       <use xlink:href="#DejaVuSans-30" x="63.623047"/>
       <use xlink:href="#DejaVuSans-31" x="127.246094"/>
       <use xlink:href="#DejaVuSans-35" x="190.869141"/>
      </g>
     </g>
    </g>
    <g id="xtick_6">
     <g id="line2d_6">
      <g>
       <use xlink:href="#m65813e2614" x="597.02226" y="327.558125" style="stroke: #000000; stroke-width: 0.8"/>
      </g>
     </g>
     <g id="text_6">
      <!-- 2016 -->
      <g transform="translate(584.29726 342.156563) scale(0.1 -0.1)">
       <defs>
        <path id="DejaVuSans-36" d="M 2113 2584 
Q 1688 2584 1439 2293 
Q 1191 2003 1191 1497 
Q 1191 994 1439 701 
Q 1688 409 2113 409 
Q 2538 409 2786 701 
Q 3034 994 3034 1497 
Q 3034 2003 2786 2293 
Q 2538 2584 2113 2584 
z
M 3366 4563 
L 3366 3988 
Q 3128 4100 2886 4159 
Q 2644 4219 2406 4219 
Q 1781 4219 1451 3797 
Q 1122 3375 1075 2522 
Q 1259 2794 1537 2939 
Q 1816 3084 2150 3084 
Q 2853 3084 3261 2657 
Q 3669 2231 3669 1497 
Q 3669 778 3244 343 
Q 2819 -91 2113 -91 
Q 1303 -91 875 529 
Q 447 1150 447 2328 
Q 447 3434 972 4092 
Q 1497 4750 2381 4750 
Q 2619 4750 2861 4703 
Q 3103 4656 3366 4563 
z
" transform="scale(0.015625)"/>
       </defs>
       <use xlink:href="#DejaVuSans-32"/>
       <use xlink:href="#DejaVuSans-30" x="63.623047"/>
       <use xlink:href="#DejaVuSans-31" x="127.246094"/>
       <use xlink:href="#DejaVuSans-36" x="190.869141"/>
      </g>
     </g>
    </g>
    <g id="xtick_7">
     <g id="line2d_7">
      <g>
       <use xlink:href="#m65813e2614" x="692.041516" y="327.558125" style="stroke: #000000; stroke-width: 0.8"/>
      </g>
     </g>
     <g id="text_7">
      <!-- 2017 -->
      <g transform="translate(679.316516 342.156563) scale(0.1 -0.1)">
       <defs>
        <path id="DejaVuSans-37" d="M 525 4666 
L 3525 4666 
L 3525 4397 
L 1831 0 
L 1172 0 
L 2766 4134 
L 525 4134 
L 525 4666 
z
" transform="scale(0.015625)"/>
       </defs>
       <use xlink:href="#DejaVuSans-32"/>
       <use xlink:href="#DejaVuSans-30" x="63.623047"/>
       <use xlink:href="#DejaVuSans-31" x="127.246094"/>
       <use xlink:href="#DejaVuSans-37" x="190.869141"/>
      </g>
     </g>
    </g>
   </g>
   <g id="matplotlib.axis_2">
    <g id="ytick_1">
     <g id="line2d_8">
      <defs>
       <path id="m66b7511a4d" d="M 0 0 
L -3.5 0 
" style="stroke: #000000; stroke-width: 0.8"/>
      </defs>
      <g>
       <use xlink:href="#m66b7511a4d" x="48.029688" y="325.915756" style="stroke: #000000; stroke-width: 0.8"/>
      </g>
     </g>
     <g id="text_8">
      <!-- −2500 -->
      <g transform="translate(7.2 329.714975) scale(0.1 -0.1)">
       <defs>
        <path id="DejaVuSans-2212" d="M 678 2272 
L 4684 2272 
L 4684 1741 
L 678 1741 
L 678 2272 
z
" transform="scale(0.015625)"/>
       </defs>
       <use xlink:href="#DejaVuSans-2212"/>
       <use xlink:href="#DejaVuSans-32" x="83.789062"/>
       <use xlink:href="#DejaVuSans-35" x="147.412109"/>
       <use xlink:href="#DejaVuSans-30" x="211.035156"/>
       <use xlink:href="#DejaVuSans-30" x="274.658203"/>
      </g>
     </g>
    </g>
    <g id="ytick_2">
     <g id="line2d_9">
      <g>
       <use xlink:href="#m66b7511a4d" x="48.029688" y="288.137838" style="stroke: #000000; stroke-width: 0.8"/>
      </g>
     </g>
     <g id="text_9">
      <!-- 0 -->
      <g transform="translate(34.667187 291.937057) scale(0.1 -0.1)">
       <use xlink:href="#DejaVuSans-30"/>
      </g>
     </g>
    </g>
    <g id="ytick_3">
     <g id="line2d_10">
      <g>
       <use xlink:href="#m66b7511a4d" x="48.029688" y="250.35992" style="stroke: #000000; stroke-width: 0.8"/>
      </g>
     </g>
     <g id="text_10">
      <!-- 2500 -->
      <g transform="translate(15.579687 254.159139) scale(0.1 -0.1)">
       <use xlink:href="#DejaVuSans-32"/>
       <use xlink:href="#DejaVuSans-35" x="63.623047"/>
       <use xlink:href="#DejaVuSans-30" x="127.246094"/>
       <use xlink:href="#DejaVuSans-30" x="190.869141"/>
      </g>
     </g>
    </g>
    <g id="ytick_4">
     <g id="line2d_11">
      <g>
       <use xlink:href="#m66b7511a4d" x="48.029688" y="212.582002" style="stroke: #000000; stroke-width: 0.8"/>
      </g>
     </g>
     <g id="text_11">
      <!-- 5000 -->
      <g transform="translate(15.579687 216.38122) scale(0.1 -0.1)">
       <use xlink:href="#DejaVuSans-35"/>
       <use xlink:href="#DejaVuSans-30" x="63.623047"/>
       <use xlink:href="#DejaVuSans-30" x="127.246094"/>
       <use xlink:href="#DejaVuSans-30" x="190.869141"/>
      </g>
     </g>
    </g>
    <g id="ytick_5">
     <g id="line2d_12">
      <g>
       <use xlink:href="#m66b7511a4d" x="48.029688" y="174.804083" style="stroke: #000000; stroke-width: 0.8"/>
      </g>
     </g>
     <g id="text_12">
      <!-- 7500 -->
      <g transform="translate(15.579687 178.603302) scale(0.1 -0.1)">
       <use xlink:href="#DejaVuSans-37"/>
       <use xlink:href="#DejaVuSans-35" x="63.623047"/>
       <use xlink:href="#DejaVuSans-30" x="127.246094"/>
       <use xlink:href="#DejaVuSans-30" x="190.869141"/>
      </g>
     </g>
    </g>
    <g id="ytick_6">
     <g id="line2d_13">
      <g>
       <use xlink:href="#m66b7511a4d" x="48.029688" y="137.026165" style="stroke: #000000; stroke-width: 0.8"/>
      </g>
     </g>
     <g id="text_13">
      <!-- 10000 -->
      <g transform="translate(9.217188 140.825384) scale(0.1 -0.1)">
       <use xlink:href="#DejaVuSans-31"/>
       <use xlink:href="#DejaVuSans-30" x="63.623047"/>
       <use xlink:href="#DejaVuSans-30" x="127.246094"/>
       <use xlink:href="#DejaVuSans-30" x="190.869141"/>
       <use xlink:href="#DejaVuSans-30" x="254.492188"/>
      </g>
     </g>
    </g>
    <g id="ytick_7">
     <g id="line2d_14">
      <g>
       <use xlink:href="#m66b7511a4d" x="48.029688" y="99.248247" style="stroke: #000000; stroke-width: 0.8"/>
      </g>
     </g>
     <g id="text_14">
      <!-- 12500 -->
      <g transform="translate(9.217188 103.047466) scale(0.1 -0.1)">
       <use xlink:href="#DejaVuSans-31"/>
       <use xlink:href="#DejaVuSans-32" x="63.623047"/>
       <use xlink:href="#DejaVuSans-35" x="127.246094"/>
       <use xlink:href="#DejaVuSans-30" x="190.869141"/>
       <use xlink:href="#DejaVuSans-30" x="254.492188"/>
      </g>
     </g>
    </g>
    <g id="ytick_8">
     <g id="line2d_15">
      <g>
       <use xlink:href="#m66b7511a4d" x="48.029688" y="61.470329" style="stroke: #000000; stroke-width: 0.8"/>
      </g>
     </g>
     <g id="text_15">
      <!-- 15000 -->
      <g transform="translate(9.217188 65.269548) scale(0.1 -0.1)">
       <use xlink:href="#DejaVuSans-31"/>
       <use xlink:href="#DejaVuSans-35" x="63.623047"/>
       <use xlink:href="#DejaVuSans-30" x="127.246094"/>
       <use xlink:href="#DejaVuSans-30" x="190.869141"/>
       <use xlink:href="#DejaVuSans-30" x="254.492188"/>
      </g>
     </g>
    </g>
    <g id="ytick_9">
     <g id="line2d_16">
      <g>
       <use xlink:href="#m66b7511a4d" x="48.029688" y="23.692411" style="stroke: #000000; stroke-width: 0.8"/>
      </g>
     </g>
     <g id="text_16">
      <!-- 17500 -->
      <g transform="translate(9.217188 27.491629) scale(0.1 -0.1)">
       <use xlink:href="#DejaVuSans-31"/>
       <use xlink:href="#DejaVuSans-37" x="63.623047"/>
       <use xlink:href="#DejaVuSans-35" x="127.246094"/>
       <use xlink:href="#DejaVuSans-30" x="190.869141"/>
       <use xlink:href="#DejaVuSans-30" x="254.492188"/>
      </g>
     </g>
    </g>
   </g>
   <g id="line2d_17">
    <path d="M 77.672364 287.016514 
L 78.018518 287.445671 
L 78.029335 287.308915 
L 78.105056 286.558268 
L 78.180777 286.599823 
L 78.624287 284.106481 
L 79.219239 279.157574 
L 79.316595 279.354019 
L 79.435585 279.346463 
L 79.554576 279.667575 
L 79.749287 281.269359 
L 80.322605 285.315374 
L 80.614672 286.516712 
L 80.960826 287.154403 
L 81.317797 287.47476 
L 81.98847 287.727872 
L 82.832221 287.905428 
L 83.481259 287.889562 
L 83.611067 287.138159 
L 83.816596 284.948928 
L 83.838231 284.952706 
L 83.946404 285.436264 
L 84.335827 287.009714 
L 84.530538 287.225426 
L 85.244481 287.703316 
L 85.298568 287.435849 
L 85.385106 285.470264 
L 85.601452 281.83225 
L 85.655539 281.741583 
L 85.709625 281.836028 
L 85.785346 282.15714 
L 86.055779 284.250037 
L 86.347847 286.267378 
L 86.683183 287.205781 
L 86.910347 287.322137 
L 87.083424 287.228448 
L 87.213231 287.049003 
L 87.786549 286.77058 
L 87.86227 286.471379 
L 88.013712 285.141596 
L 88.100251 285.043373 
L 88.14352 285.088707 
L 88.814193 286.645157 
L 88.954818 286.751691 
L 89.474049 287.276804 
L 89.668761 285.885821 
L 89.906742 285.179374 
L 89.982463 285.406041 
L 90.177175 285.78382 
L 90.198809 285.712042 
L 90.263713 284.537149 
L 90.59905 277.495345 
L 91.107463 275.364671 
L 91.194002 275.455338 
L 91.367079 276.165562 
L 91.962031 280.85758 
L 92.383906 283.687146 
L 93.151935 286.662913 
L 93.562993 287.296826 
L 94.57982 287.680272 
L 94.850253 287.626627 
L 95.30458 287.834406 
L 95.672368 287.916006 
L 96.570205 287.991562 
L 98.917561 287.887295 
L 99.16636 287.528405 
L 99.425975 285.039595 
L 99.674773 283.842035 
L 99.782946 283.789146 
L 99.815398 283.857147 
L 100.73487 286.962114 
L 101.005302 287.187648 
L 102.508909 287.903162 
L 104.953621 288.048078 
L 120.368288 287.940184 
L 120.768529 287.802672 
L 121.1255 287.863117 
L 121.417567 287.875206 
L 121.56901 287.878228 
L 122.737279 287.93074 
L 124.673578 287.622849 
L 125.376703 287.214092 
L 125.787761 287.390893 
L 126.371896 287.42376 
L 126.67478 287.463049 
L 127.183194 287.572227 
L 127.68079 287.563538 
L 128.113483 287.455116 
L 128.632714 287.353871 
L 128.838242 287.367093 
L 129.563002 287.277182 
L 129.844252 286.327822 
L 130.125502 285.084929 
L 130.53656 283.849591 
L 130.558195 283.857147 
L 131.412762 285.934932 
L 131.672378 285.987821 
L 131.845455 285.893376 
L 132.083436 285.171818 
L 132.26733 283.332034 
L 132.797378 277.253567 
L 133.121897 276.006895 
L 133.186801 276.082451 
L 133.230071 276.173118 
L 133.597859 277.782457 
L 133.933196 279.059351 
L 133.987282 279.225574 
L 134.409157 280.547801 
L 134.787763 281.854917 
L 135.555792 284.148037 
L 136.064206 284.812928 
L 136.194014 284.967817 
L 136.561802 285.304041 
L 137.102668 285.409819 
L 137.232475 285.696931 
L 137.502908 286.010488 
L 137.686802 286.00671 
L 137.794976 285.912265 
L 138.065408 285.602486 
L 138.833437 284.937595 
L 139.082236 284.522038 
L 139.363486 284.454038 
L 139.54738 284.635372 
L 139.752909 284.896039 
L 139.958438 285.020706 
L 139.980072 284.986706 
L 140.261322 284.99804 
L 140.531755 285.496708 
L 140.585842 285.534486 
L 140.596659 285.432486 
L 140.737284 284.994262 
L 141.375505 280.034021 
L 141.67839 278.054458 
L 141.743294 278.160237 
L 141.786563 278.383126 
L 141.927188 279.50513 
L 142.316611 281.956917 
L 143.506516 285.345597 
L 143.647141 285.564709 
L 143.885121 285.90471 
L 144.65315 286.789469 
L 145.475266 287.228448 
L 145.65916 287.187648 
L 145.788968 286.702202 
L 146.091853 285.228485 
L 146.708439 274.669557 
L 146.784161 274.503334 
L 146.849064 274.552445 
L 146.935603 274.782891 
L 147.216853 277.117566 
L 147.627911 280.151133 
L 147.703632 280.045355 
L 148.136324 277.805124 
L 148.244498 277.903347 
L 148.417575 278.326459 
L 148.806998 280.770691 
L 149.1207 282.183585 
L 149.445219 283.706035 
L 149.726469 284.778928 
L 150.732479 286.951914 
L 151.662768 287.680272 
L 152.063008 287.788317 
L 152.463249 287.909962 
L 153.328633 288.03682 
L 154.399547 287.92734 
L 154.853874 287.857073 
L 155.448826 287.987029 
L 156.011327 288.048078 
L 175.78537 287.938673 
L 175.861091 287.751294 
L 176.109889 286.652713 
L 176.120707 286.665557 
L 176.185611 286.815913 
L 176.434409 287.367093 
L 176.639938 287.687828 
L 176.661572 287.603961 
L 176.845467 287.039558 
L 177.061813 286.512934 
L 177.148351 286.422267 
L 177.191621 286.48649 
L 177.548592 287.332715 
L 177.786573 287.595649 
L 178.2409 287.956806 
L 178.760131 288.056464 
L 179.885131 288.12522 
L 181.150756 288.071613 
L 181.258929 287.863117 
L 181.49691 287.066003 
L 181.540179 287.095092 
L 182.05941 287.644761 
L 182.448833 287.962473 
L 182.881526 288.065153 
L 184.882728 288.100665 
L 185.445228 288.107238 
L 186.537777 288.12522 
L 187.857489 288.134211 
L 191.459653 288.058164 
L 191.481288 287.998362 
L 191.567826 288.038407 
L 191.946432 287.936406 
L 192.184413 286.240933 
L 192.260134 286.505379 
L 192.573836 287.44076 
L 192.909173 287.764894 
L 195.472875 288.100665 
L 196.706049 288.031229 
L 196.770953 286.324045 
L 197.019751 280.185133 
L 197.106289 279.739354 
L 197.160376 279.867798 
L 197.409174 281.854917 
L 197.755328 284.242481 
L 198.371915 286.710135 
L 198.555809 286.958714 
L 198.674799 286.878625 
L 199.107492 286.120044 
L 199.35629 286.535601 
L 199.702444 287.098492 
L 200.308213 287.610005 
L 200.827444 287.807206 
L 201.692829 287.93414 
L 203.044993 288.011206 
L 205.284176 288.056464 
L 205.944032 288.061678 
L 206.733696 287.951517 
L 207.069032 287.96134 
L 209.697639 287.852161 
L 209.859898 287.843473 
L 211.374322 287.943584 
L 211.90437 287.942451 
L 212.174803 287.959073 
L 212.715668 287.959073 
L 213.31062 287.911473 
L 214.3599 287.911473 
L 215.517352 287.96474 
L 215.798602 287.967006 
L 216.415189 287.982873 
L 224.008941 287.873695 
L 224.441633 287.810228 
L 225.73971 287.920539 
L 226.475287 287.96134 
L 230.639952 287.858961 
L 230.737308 287.279448 
L 231.061827 284.29537 
L 231.159183 284.136703 
L 231.191635 284.189592 
L 231.278173 284.469149 
L 231.786587 286.410934 
L 232.45726 287.160448 
L 232.651972 287.154403 
L 232.889953 286.248489 
L 233.236106 284.55226 
L 233.322645 284.635372 
L 233.917597 285.984043 
L 233.993318 286.120044 
L 234.014953 285.961377 
L 234.133943 281.212692 
L 234.685626 244.802335 
L 234.707261 244.462334 
L 234.772165 245.293448 
L 234.847886 247.144566 
L 235.421203 263.842406 
L 235.853896 276.226007 
L 236.31904 280.442023 
L 236.838271 282.731365 
L 237.270963 283.743813 
L 237.48731 284.027147 
L 237.844281 284.786483 
L 238.060627 285.171818 
L 239.001733 286.2976 
L 239.499329 286.191822 
L 239.661589 285.791376 
L 240.061829 283.777813 
L 240.202454 283.709813 
L 240.321445 283.860924 
L 240.483705 284.340704 
L 240.851493 285.689376 
L 241.230099 286.3316 
L 242.117118 286.878625 
L 242.160388 286.778135 
L 242.236109 286.808358 
L 243.469282 287.539738 
L 243.88034 287.648538 
L 244.72409 287.828361 
L 246.584668 287.937162 
L 246.746927 287.942073 
L 246.757745 287.875206 
L 247.168802 287.364449 
L 247.731303 287.46796 
L 247.969283 287.628894 
L 248.877938 287.89145 
L 249.894765 287.991562 
L 251.398371 287.882006 
L 251.647169 287.801161 
L 251.809429 287.73165 
L 252.036592 287.766783 
L 252.555823 287.916006 
L 253.540198 287.907695 
L 253.691641 287.940184 
L 254.200054 287.831384 
L 254.502939 287.823828 
L 255.638757 288.028433 
L 257.813036 287.920539 
L 258.007748 287.84045 
L 258.386353 287.950384 
L 258.775777 287.982873 
L 259.28419 287.929606 
L 259.7277 287.860095 
L 260.019767 287.831384 
L 260.246931 287.57676 
L 260.355104 286.580935 
L 260.603902 284.537149 
L 260.971691 282.534919 
L 261.252941 282.640698 
L 261.4152 283.233811 
L 261.685633 284.84315 
L 262.031787 286.509156 
L 262.367124 287.294182 
L 262.691643 287.650427 
L 263.492124 287.846117 
L 263.740922 286.640624 
L 264.130345 282.183585 
L 264.238518 281.907806 
L 264.27097 281.930473 
L 264.454865 282.561364 
L 265.450057 287.208426 
L 265.796211 287.624361 
L 265.990923 287.724094 
L 266.012557 287.689716 
L 266.261356 287.332715 
L 266.337077 287.141559 
L 266.748135 284.733594 
L 266.84549 284.287815 
L 266.88876 284.355815 
L 267.061837 285.35693 
L 267.375539 286.702202 
L 267.786596 287.327426 
L 268.067846 287.452849 
L 268.121933 287.302115 
L 268.219289 286.951914 
L 268.284193 287.030114 
L 268.57626 287.319115 
L 268.85751 287.508005 
L 269.322654 287.753183 
L 269.668808 287.819295 
L 269.766164 287.277182 
L 269.874337 286.645157 
L 269.950058 286.823469 
L 270.090683 287.059203 
L 270.123135 287.009714 
L 270.480107 285.965154 
L 270.555828 286.070933 
L 271.59429 287.672716 
L 272.340684 287.940184 
L 272.492126 287.872939 
L 272.697655 287.796628 
L 272.978905 287.760361 
L 273.11953 287.776983 
L 273.325059 287.743361 
L 273.584675 287.764894 
L 273.963281 287.896362 
L 274.320252 287.928473 
L 274.926021 287.893717 
L 275.326262 287.084892 
L 276.007752 282.202474 
L 276.126743 282.674698 
L 276.743329 285.500486 
L 277.002945 286.120044 
L 277.58708 286.917158 
L 277.770974 286.871069 
L 278.127945 286.388267 
L 278.755349 286.259822 
L 278.950061 286.505379 
L 279.047417 285.757376 
L 279.220494 282.701142 
L 279.252946 282.712476 
L 279.415205 282.474475 
L 280.020975 280.268244 
L 280.248138 278.968684 
L 280.421215 279.588242 
L 280.670013 280.351356 
L 280.767369 280.53269 
L 280.778186 280.562912 
L 280.832273 280.449578 
L 280.940446 279.225574 
L 281.102706 274.446667 
L 281.44886 263.57796 
L 281.502946 263.540182 
L 281.524581 263.691294 
L 281.654388 265.353522 
L 282.303427 278.549349 
L 282.530591 279.973577 
L 282.671216 280.46469 
L 282.703668 280.3778 
L 282.768571 280.026466 
L 283.039004 278.379348 
L 283.093091 278.409571 
L 283.114725 278.439793 
L 283.125543 278.322682 
L 283.147177 278.213126 
L 283.222898 278.364237 
L 283.785399 280.445801 
L 283.850302 280.53269 
L 284.30463 282.716253 
L 285.040207 285.341819 
L 285.494534 286.044488 
L 285.743332 286.146488 
L 285.970495 285.874487 
L 286.305832 284.465371 
L 286.846698 282.534919 
L 286.976505 282.633142 
L 287.311842 283.743813 
L 287.917611 285.817821 
L 288.934438 287.056181 
L 289.139967 287.015381 
L 289.29141 286.614935 
L 289.615929 285.953821 
L 289.875544 285.97271 
L 290.41641 286.222044 
L 290.611122 286.327822 
L 292.395978 287.440004 
L 292.698863 287.539738 
L 293.27218 287.66365 
L 294.537805 287.77245 
L 294.981315 287.838939 
L 296.041411 287.950006 
L 298.064249 288.0528 
L 298.432037 288.055218 
L 299.286605 288.070631 
L 299.578672 288.069913 
L 300.325066 288.075731 
L 301.893576 288.06912 
L 302.445259 288.069913 
L 303.267375 288.069838 
L 308.102713 287.977206 
L 309.389973 287.557871 
L 310.103915 287.449071 
L 310.493338 287.329693 
L 310.731319 287.219759 
L 311.066656 287.107559 
L 311.358723 287.006314 
L 311.780598 286.199378 
L 312.170021 285.421152 
L 312.440454 285.530708 
L 312.732522 285.678042 
L 312.938051 285.576042 
L 313.208483 285.451375 
L 313.359926 285.549597 
L 313.565455 285.723376 
L 313.781801 285.829154 
L 314.203676 285.995377 
L 314.571464 286.101155 
L 314.744541 286.267378 
L 315.469301 286.645157 
L 315.847907 286.745646 
L 316.085888 286.836691 
L 317.448869 287.154403 
L 317.784206 287.086403 
L 318.216898 287.308537 
L 318.584687 287.418093 
L 320.283004 287.661761 
L 321.234928 287.553338 
L 321.721707 287.370493 
L 322.770986 287.518582 
L 323.041419 287.077336 
L 323.192861 286.546934 
L 323.647188 284.971595 
L 323.96089 284.491816 
L 324.058246 283.898702 
L 324.36113 280.283356 
L 324.501756 275.685783 
L 325.269785 245.180114 
L 325.41041 246.086784 
L 325.713294 250.393467 
L 326.210891 265.240189 
L 326.589496 274.798002 
L 326.69767 274.624223 
L 326.751756 274.151999 
L 327.119545 261.802398 
L 327.281804 244.877891 
L 327.476516 195.199928 
L 327.94166 43.370475 
L 328.049833 36.19267 
L 328.082285 37.326008 
L 328.158006 43.748254 
L 328.417622 106.837377 
L 328.709689 182.922105 
L 329.045026 229.237832 
L 329.369545 248.391237 
L 330.494546 273.27933 
L 330.862334 276.641564 
L 331.186853 278.130014 
L 331.457286 278.681572 
L 331.651998 278.832683 
L 331.814257 279.006462 
L 332.041421 279.512686 
L 332.766181 280.785802 
L 332.895988 280.717802 
L 332.97171 280.661135 
L 333.188056 280.449578 
L 333.328681 280.347578 
L 333.631566 279.595797 
L 333.891181 278.560682 
L 334.042623 277.246011 
L 334.139979 272.999773 
L 334.745749 244.273444 
L 334.82147 243.971221 
L 334.875556 244.16011 
L 335.210893 248.69346 
L 335.805845 260.555727 
L 336.930845 278.281126 
L 337.093105 278.613572 
L 337.103922 278.606016 
L 337.374355 278.515349 
L 337.774596 276.875787 
L 337.839499 277.004232 
L 337.947673 277.601123 
L 338.369548 279.565575 
L 338.845509 280.578023 
L 339.343106 281.43936 
L 339.721711 282.621809 
L 339.786615 281.979584 
L 340.327481 273.082884 
L 340.543827 271.700213 
L 340.695269 271.549101 
L 340.706087 271.549101 
L 340.857529 272.002436 
L 340.954885 271.92688 
L 341.106327 271.057988 
L 341.37676 269.282426 
L 341.528202 269.357982 
L 341.93926 271.171322 
L 342.10152 273.026217 
L 342.50176 276.838009 
L 343.204885 280.804691 
L 343.540222 282.640698 
L 343.756568 282.958032 
L 343.864741 283.056255 
L 344.340703 284.000703 
L 344.39479 283.940258 
L 344.448876 283.762702 
L 344.989742 280.351356 
L 345.736136 249.713464 
L 345.833492 250.317911 
L 345.844309 250.317911 
L 346.049838 252.660142 
L 346.36354 258.515719 
L 347.391185 280.92558 
L 347.758973 283.471812 
L 348.148396 285.028262 
L 348.527002 285.855598 
L 348.808252 286.225822 
L 348.81907 286.097377 
L 348.862339 285.934932 
L 348.927243 286.033155 
L 349.132772 286.316489 
L 349.673637 286.764535 
L 349.684454 286.748668 
L 349.835897 286.710135 
L 350.246955 286.599823 
L 350.852724 285.39093 
L 350.917628 285.451375 
L 351.404407 286.320267 
L 351.804647 286.802313 
L 352.010176 286.970047 
L 352.583494 287.361426 
L 352.767388 287.469849 
L 352.972917 287.536716 
L 352.994551 287.449071 
L 353.08109 287.521605 
L 353.189263 287.467582 
L 353.502965 286.463823 
L 353.589504 284.597594 
L 354.065465 268.262422 
L 354.249359 267.469086 
L 354.379167 267.317974 
L 354.400802 267.355752 
L 354.627965 268.224644 
L 354.703687 268.149088 
L 354.779408 267.015751 
L 355.04984 261.273507 
L 355.060658 261.311285 
L 355.255369 264.48463 
L 355.980129 281.786917 
L 356.38037 284.820484 
L 356.867149 286.388267 
L 357.50537 287.093959 
L 357.581091 287.124181 
L 357.613543 287.02747 
L 357.819072 286.653846 
L 357.94888 286.070933 
L 357.981332 286.108711 
L 358.273399 286.403378 
L 358.34912 286.380712 
L 358.468111 284.952706 
L 359.138784 276.233563 
L 359.895996 259.76239 
L 359.91763 259.649057 
L 359.982534 259.913502 
L 360.328688 263.237959 
L 360.415226 263.162403 
L 360.48013 262.180177 
L 360.588303 255.757931 
L 361.118352 213.144439 
L 361.150804 213.371107 
L 361.258977 209.631093 
L 361.507775 194.104369 
L 361.572679 194.557704 
L 361.821477 204.60663 
L 362.459698 236.075636 
L 362.513785 238.077865 
L 362.676044 240.684542 
L 362.859939 238.568978 
L 362.93566 237.926754 
L 363.011381 237.662308 
L 363.043833 237.700086 
L 363.519795 244.197888 
L 363.563064 244.689001 
L 363.790227 246.086784 
L 363.801045 246.049006 
L 363.822679 246.237896 
L 363.876766 246.011228 
L 363.8984 246.011228 
L 363.94167 246.011228 
L 363.984939 245.746783 
L 364.028208 246.049006 
L 364.331093 250.317911 
L 365.607536 274.805557 
L 365.683257 275.043558 
L 365.715709 274.782891 
L 365.845516 274.269111 
L 365.91042 274.420223 
L 366.094315 274.964225 
L 366.126766 274.941558 
L 366.224122 274.741335 
L 366.375565 274.458001 
L 366.418834 274.61289 
L 366.548642 275.508227 
L 366.959699 279.875354 
L 367.240949 282.051362 
L 367.35994 282.451808 
L 367.381574 282.349808 
L 367.587103 280.748024 
L 367.630373 280.812246 
L 367.933257 281.280693 
L 368.127969 280.08691 
L 368.355132 278.198014 
L 368.603931 275.712227 
L 368.787825 274.707335 
L 368.831094 274.798002 
L 368.917633 275.187114 
L 369.263787 278.519127 
L 369.65321 281.76425 
L 370.096719 283.668257 
L 370.172441 283.774035 
L 370.3347 284.370926 
L 370.572681 284.99804 
L 370.77821 285.103818 
L 371.22172 285.900932 
L 371.632778 286.935291 
L 371.892393 287.078847 
L 372.011383 286.078488 
L 372.18446 281.004914 
L 372.357537 267.015751 
L 372.703691 246.653453 
L 372.757778 244.122332 
L 373.093114 226.291155 
L 373.341913 223.306699 
L 373.35273 223.495589 
L 373.428451 223.155588 
L 373.439268 223.268921 
L 373.63398 220.284466 
L 373.644797 219.982243 
L 373.720518 220.964468 
L 373.936865 226.5556 
L 374.218115 234.073406 
L 374.228932 234.073406 
L 374.445278 238.568978 
L 374.596721 243.064551 
L 375.873163 275.738672 
L 376.143596 278.292459 
L 376.965712 281.888917 
L 377.376769 283.471812 
L 378.469318 285.859376 
L 378.923645 286.308933 
L 379.291433 286.55449 
L 379.680857 286.908091 
L 380.254174 287.24507 
L 380.611145 287.162337 
L 381.498165 287.502716 
L 381.855136 287.249981 
L 381.963309 286.938314 
L 382.028213 286.989692 
L 382.32028 287.210315 
L 383.077492 287.319115 
L 383.391194 287.477782 
L 385.381579 287.783406 
L 385.565474 287.645894 
L 385.695281 287.649672 
L 385.987349 287.739205 
L 386.474128 287.605849 
L 389.232542 287.97494 
L 392.131581 287.874828 
L 392.358745 287.581672 
L 394.251774 287.805695 
L 394.46812 287.724094 
L 394.738553 287.783406 
L 395.127976 287.521605 
L 395.539034 287.467204 
L 396.350332 287.361426 
L 396.577496 287.329693 
L 397.810669 287.424893 
L 398.146006 287.808717 
L 398.319083 287.849517 
L 398.340717 287.804184 
L 398.49216 287.439249 
L 398.805862 283.048699 
L 399.087112 280.66869 
L 399.152016 280.615801 
L 399.195285 280.676246 
L 399.33591 281.227803 
L 400.0174 285.050929 
L 400.450093 285.228485 
L 400.633987 285.277596 
L 401.293843 286.2976 
L 401.315478 286.252267 
L 401.737353 286.146488 
L 401.91043 286.123822 
L 402.007786 286.055821 
L 402.234949 284.899817 
L 402.646007 282.489586 
L 402.851536 283.169588 
L 403.057065 284.178259 
L 403.143603 283.944036 
L 403.359949 281.322248 
L 403.587113 279.814909 
L 403.673651 279.754465 
L 403.706103 279.784687 
L 403.792642 279.890465 
L 404.052257 281.197581 
L 404.430863 283.199811 
L 404.701296 284.023369 
L 405.036632 284.635372 
L 405.44769 284.801595 
L 405.923652 284.246259 
L 405.945287 284.272704 
L 406.540239 284.914928 
L 406.810671 285.009373 
L 406.886393 284.48426 
L 407.567883 276.044673 
L 407.643604 276.120229 
L 407.859951 276.777565 
L 407.935672 276.550897 
L 408.141201 274.344667 
L 408.671249 268.980202 
L 408.801057 269.01798 
L 409.049855 270.491319 
L 409.060672 270.491319 
L 409.547451 275.765117 
L 409.936874 278.583349 
L 410.304663 279.648687 
L 410.326297 279.588242 
L 410.47774 279.029129 
L 410.704903 278.303793 
L 410.813076 277.994014 
L 411.743365 273.709998 
L 411.786634 273.751553 
L 412.00298 274.439112 
L 413.17125 281.477138 
L 413.831106 283.1847 
L 414.555866 284.457816 
L 414.880385 284.582483 
L 415.096731 283.653146 
L 415.356347 282.912699 
L 415.594328 282.761587 
L 415.756587 282.655809 
L 416.459712 281.847361 
L 416.805866 281.990917 
L 416.816684 281.968251 
L 417.487357 281.628249 
L 417.671251 281.870028 
L 417.963319 282.368697 
L 418.515001 282.954254 
L 418.644809 282.916476 
L 418.796251 282.074029 
L 420.083511 271.397989 
L 420.245771 271.397989 
L 420.4513 272.757994 
L 420.548656 273.468219 
L 421.100339 277.200677 
L 421.17606 277.144011 
L 421.381589 276.777565 
L 421.944089 276.868232 
L 422.171252 277.087344 
L 422.322695 276.868232 
L 422.668849 276.014451 
L 422.722935 276.059784 
L 423.112358 277.121344 
L 424.140003 281.288248 
L 424.258993 281.571583 
L 424.302263 281.431804 
L 424.388801 280.729135 
L 425.221734 272.304659 
L 425.286638 272.229103 
L 425.405628 272.153548 
L 425.557071 272.606883 
L 426.249378 274.631779 
L 426.346734 274.828224 
L 426.56308 275.636672 
L 426.963321 277.827791 
L 427.017407 277.525568 
L 427.114763 274.117999 
L 427.623177 245.444559 
L 427.871975 233.620071 
L 427.980148 232.562289 
L 428.001783 232.600067 
L 428.023417 232.826735 
L 428.055869 232.3734 
L 428.099139 232.524511 
L 428.164042 233.09118 
L 428.553466 243.480108 
L 429.051062 255.720153 
L 430.197697 277.427345 
L 430.381591 277.865569 
L 430.58712 277.88068 
L 430.662841 277.774902 
L 431.052264 276.883343 
L 431.160437 276.966454 
L 431.268611 276.958899 
L 431.279428 276.943788 
L 431.398418 276.838009 
L 431.528226 276.78512 
L 431.539043 276.807787 
L 431.668851 277.178011 
L 431.87438 278.284904 
L 432.501784 281.734028 
L 432.631592 281.911584 
L 432.642409 281.836028 
L 432.696496 280.442023 
L 432.88039 266.373526 
L 433.518611 214.353333 
L 433.648419 212.653326 
L 433.680871 213.031106 
L 434.059477 229.955613 
L 434.502986 251.149025 
L 434.795054 257.04238 
L 434.914044 257.646827 
L 434.946496 257.495715 
L 435.519814 250.469022 
L 435.627987 244.235666 
L 435.865968 207.175528 
L 436.1364 169.926501 
L 436.396016 154.475332 
L 436.428468 154.702 
L 436.677266 175.819856 
L 437.434478 246.577897 
L 438.483757 272.795772 
L 438.840728 275.523338 
L 439.111161 274.216222 
L 439.219334 274.371111 
L 439.457315 274.616668 
L 439.500584 274.518445 
L 439.792651 273.92911 
L 439.857555 274.027332 
L 439.99818 274.556223 
L 440.474142 277.62379 
L 441.220536 282.942921 
L 441.534238 284.09137 
L 441.56669 283.944036 
L 441.664046 283.396256 
L 441.707315 283.57759 
L 442.031835 284.786483 
L 442.313085 285.220929 
L 442.334719 285.183152 
L 442.45371 283.747591 
L 442.875585 273.411552 
L 443.210921 269.433537 
L 443.232556 269.357982 
L 443.308277 269.282426 
L 443.319094 269.357982 
L 443.589527 272.002436 
L 443.924864 275.22867 
L 444.162845 276.898454 
L 445.082316 284.854484 
L 445.14722 285.058484 
L 445.158037 284.846928 
L 445.179672 284.646705 
L 445.26621 284.824261 
L 445.623182 285.621375 
L 445.633999 285.617598 
L 445.720537 285.481597 
L 445.893614 284.922484 
L 445.958518 285.047151 
L 446.347941 285.806487 
L 446.55347 285.980266 
L 446.726547 286.086044 
L 446.99698 286.339156 
L 447.202509 286.516712 
L 447.537846 286.885425 
L 447.992173 287.227692 
L 448.197702 287.290026 
L 448.219336 287.233359 
L 448.468134 286.932269 
L 448.922461 286.823469 
L 449.084721 286.777002 
L 449.095538 286.787202 
L 449.539048 286.897513 
L 450.317894 287.400715 
L 450.73977 287.576005 
L 451.150827 287.477405 
L 451.280635 287.475138 
L 451.745779 287.739205 
L 452.373183 287.632672 
L 452.524626 287.607738 
L 452.740972 287.500449 
L 453.130395 287.042581 
L 453.357559 286.478934 
L 453.43328 286.516712 
L 453.444097 286.535601 
L 453.99578 287.442271 
L 454.525828 287.746761 
L 455.023424 287.852539 
L 455.304675 287.887295 
L 457.738569 287.949251 
L 458.495781 287.823828 
L 458.906839 287.926584 
L 459.415253 287.970406 
L 463.309484 287.899762 
L 463.428475 287.837428 
L 463.807081 287.841961 
L 464.434485 287.987029 
L 465.126793 287.890695 
L 465.2566 287.634561 
L 465.353956 287.720317 
L 465.613572 287.869162 
L 465.754197 287.828361 
L 466.42487 287.937917 
L 467.322707 288.014229 
L 472.731362 287.904673 
L 472.904439 287.75885 
L 472.958525 287.808717 
L 473.293862 287.967384 
L 478.042661 287.884273 
L 478.172469 287.168003 
L 478.648431 282.67092 
L 478.659248 282.686031 
L 478.745787 282.973143 
L 479.027037 284.760039 
L 479.167662 285.111373 
L 479.189296 285.073596 
L 479.297469 284.922484 
L 479.351556 285.050929 
L 479.53545 285.591153 
L 480.400835 287.42036 
L 480.995787 287.775095 
L 482.196509 287.996851 
L 483.27824 288.032211 
L 490.039059 287.923184 
L 490.428482 287.746761 
L 491.68329 287.855561 
L 492.105165 287.858584 
L 492.267425 287.753939 
L 492.386415 287.559005 
L 492.635213 286.063377 
L 492.840742 281.582916 
L 493.208531 273.332219 
L 493.37079 272.757994 
L 493.435694 272.795772 
L 494.420069 281.98714 
L 494.679685 282.769143 
L 495.058291 283.819369 
L 495.609974 285.68182 
L 495.82632 285.795154 
L 496.22656 286.04071 
L 496.464541 286.2976 
L 496.594349 286.403378 
L 497.719349 287.057692 
L 498.011417 287.164981 
L 498.216945 287.232981 
L 498.671273 287.361426 
L 499.709734 287.258293 
L 499.958532 286.505379 
L 500.164061 285.474042 
L 500.261417 280.204022 
L 500.640023 240.646764 
L 500.986177 188.488051 
L 501.180889 180.353206 
L 501.429687 192.517696 
L 502.186898 246.766787 
L 502.911658 259.649057 
L 503.344351 263.464626 
L 503.376803 263.426848 
L 503.38762 263.464626 
L 503.398437 263.389071 
L 503.430889 263.389071 
L 503.690505 261.273507 
L 503.712139 261.273507 
L 503.928485 260.064614 
L 503.939303 260.064614 
L 504.11238 259.309055 
L 504.134014 259.271277 
L 504.274639 258.85572 
L 504.339543 258.817942 
L 504.469351 258.553497 
L 504.523438 258.629053 
L 504.934495 262.255733 
L 505.248197 267.015751 
L 505.334736 266.373526 
L 505.507813 264.446852 
L 505.561899 264.749076 
L 505.994592 267.015751 
L 506.091948 267.015751 
L 506.102765 267.129084 
L 506.200121 267.015751 
L 506.265025 266.977973 
L 506.297476 266.864639 
L 506.373198 266.977973 
L 506.438101 267.015751 
L 506.632813 267.922421 
L 506.665265 267.960199 
L 506.881611 269.093536 
L 507.097957 270.226874 
L 507.325121 271.549101 
L 507.335938 271.549101 
L 507.53065 272.757994 
L 507.541467 272.757994 
L 507.736179 273.974443 
L 508.103967 275.598894 
L 508.168871 275.153114 
L 508.298679 269.20687 
L 508.569112 260.026836 
L 509.412862 242.573438 
L 509.488583 242.988995 
L 509.888824 250.129021 
L 510.137622 255.115706 
L 510.959737 270.037984 
L 511.154449 271.246878 
L 511.186901 271.322433 
L 511.424882 272.304659 
L 511.533055 271.549101 
L 511.771036 269.735761 
L 511.781853 269.735761 
L 512.009016 268.11131 
L 512.387622 265.277966 
L 512.474161 264.597964 
L 512.777045 262.557956 
L 512.896036 262.4824 
L 512.939305 262.520178 
L 513.155651 263.275737 
L 513.166469 263.275737 
L 513.350363 264.106851 
L 513.588344 265.240189 
L 514.096757 270.793542 
L 514.507815 273.944221 
L 514.626806 274.299333 
L 514.659258 274.246444 
L 514.724161 274.102888 
L 515.232575 272.153548 
L 515.265027 272.11577 
L 515.384017 271.964658 
L 515.503008 272.002436 
L 515.578729 272.077992 
L 515.881614 272.757994 
L 515.892431 272.757994 
L 516.043873 273.343552 
L 516.346758 274.798002 
L 516.595556 275.591338 
L 516.746998 275.666894 
L 516.757816 275.644227 
L 516.82272 275.353337 
L 516.920075 271.322433 
L 517.277047 257.420159 
L 517.590749 245.822339 
L 517.926085 230.597838 
L 517.980172 229.880057 
L 518.045076 230.408948 
L 518.218153 234.337851 
L 518.521037 243.820109 
L 518.802287 249.260129 
L 520.057095 265.240189 
L 520.695317 270.793542 
L 520.857576 271.73799 
L 521.128009 272.909106 
L 521.160461 272.984662 
L 521.344355 273.562664 
L 521.885221 274.711113 
L 522.339548 276.792676 
L 522.382817 276.913565 
L 522.631615 277.684235 
L 522.912865 278.27357 
L 522.999404 278.379348 
L 523.302289 278.870461 
L 523.388827 278.749572 
L 523.82152 276.838009 
L 524.232577 273.921554 
L 524.448924 271.813546 
L 524.686904 269.962428 
L 524.708539 269.92465 
L 524.762626 270.075762 
L 524.903251 270.906876 
L 525.638828 277.457567 
L 525.995799 279.724242 
L 526.763828 282.942921 
L 526.904453 283.328256 
L 527.207338 284.219815 
L 527.748203 285.406041 
L 527.975367 285.798932 
L 528.299886 286.305156 
L 528.700127 286.752068 
L 528.721761 286.710135 
L 528.786665 286.562046 
L 528.884021 285.047151 
L 529.067915 279.286019 
L 529.295079 274.571334 
L 529.522242 270.037984 
L 529.944117 261.311285 
L 530.063108 260.555727 
L 530.301089 259.157944 
L 530.344358 259.2335 
L 530.484983 259.649057 
L 530.647242 258.85572 
L 530.65806 258.85572 
L 530.722964 258.666831 
L 530.77705 258.704609 
L 530.971762 259.76239 
L 531.123204 261.57573 
L 531.555897 265.051299 
L 531.588348 265.089077 
L 531.880416 267.884643 
L 532.67008 277.427345 
L 532.810705 277.850458 
L 532.853974 277.790013 
L 532.983782 277.283789 
L 533.210945 276.713342 
L 533.405657 275.636672 
L 533.773445 273.823332 
L 533.989791 273.453108 
L 534.011426 273.475775 
L 534.379215 273.543775 
L 534.811907 276.188229 
L 535.190513 280.630912 
L 535.48258 283.290478 
L 536.034263 285.776265 
L 536.986186 287.216359 
L 538.370802 287.864628 
L 539.084745 287.97494 
L 539.593158 288.021633 
L 540.393639 287.914495 
L 540.664072 287.678005 
L 540.858784 286.033155 
L 540.91287 286.176711 
L 541.107582 287.199737 
L 541.172486 287.148359 
L 541.421284 287.193692 
L 542.189313 287.84045 
L 542.221765 287.815139 
L 542.232582 287.758094 
L 542.373207 286.274933 
L 542.524649 285.670487 
L 542.64364 284.828039 
L 543.000611 279.346463 
L 543.097967 279.512686 
L 543.173688 279.799798 
L 544.04989 285.594931 
L 544.082342 285.06604 
L 544.21215 282.67092 
L 544.277054 283.033588 
L 544.688112 285.481597 
L 544.828737 285.496708 
L 544.93691 285.398486 
L 545.0559 285.149151 
L 545.109987 285.228485 
L 545.293881 285.957599 
L 545.596766 286.829513 
L 546.094362 287.617561 
L 546.494602 287.822317 
L 547.51143 287.996095 
L 547.587151 287.857073 
L 547.760228 287.708983 
L 547.835949 287.670072 
L 547.846766 287.632672 
L 548.019843 287.210315 
L 548.052295 287.236004 
L 548.149651 287.321759 
L 548.182103 287.233359 
L 548.257824 286.857847 
L 548.571526 285.300263 
L 548.647247 285.406041 
L 548.831142 285.632709 
L 548.668882 285.387152 
L 548.863593 285.61382 
L 549.004218 285.311596 
L 549.242199 284.302926 
L 549.31792 284.465371 
L 550.064315 286.45249 
L 550.3672 286.849158 
L 550.48619 286.780024 
L 550.626815 286.543157 
L 550.734988 285.999155 
L 551.059507 283.811813 
L 551.113594 283.860924 
L 552.563114 287.112092 
L 552.89845 287.531049 
L 553.547489 287.872184 
L 554.034268 287.958317 
L 554.239797 287.852539 
L 554.412874 287.87785 
L 554.867201 287.910339 
L 555.180903 287.695761 
L 555.429701 287.014625 
L 555.613595 286.433601 
L 555.667682 286.531823 
L 556.03547 287.332337 
L 556.230182 287.444538 
L 556.240999 287.434715 
L 556.381624 287.072803 
L 556.608788 286.752446 
L 556.900855 286.222044 
L 557.063115 284.790261 
L 557.32273 280.404245 
L 557.366 280.510023 
L 557.917682 283.309367 
L 558.036673 283.532257 
L 558.079942 283.449145 
L 558.220567 283.09781 
L 558.274654 283.131811 
L 558.469365 283.396256 
L 558.491 283.381145 
L 558.739798 282.731365 
L 558.793885 282.485808 
L 558.89124 281.156025 
L 558.923692 281.265581 
L 559.648452 284.703372 
L 559.929702 285.674264 
L 560.351577 286.864269 
L 560.773452 287.449071 
L 561.692924 287.897873 
L 562.039078 287.805317 
L 562.201337 287.10907 
L 562.417684 286.645157 
L 562.612395 286.826491 
L 563.575136 287.775472 
L 564.916482 288.035687 
L 565.186915 287.949251 
L 565.4898 287.963984 
L 565.630425 287.906184 
L 565.868406 287.060714 
L 566.063117 285.844265 
L 566.236194 283.894925 
L 566.279463 284.019592 
L 566.366002 284.597594 
L 566.420088 284.212259 
L 566.539079 284.132925 
L 566.603983 284.023369 
L 566.647252 284.129148 
L 567.1773 286.014266 
L 567.242204 285.980266 
L 567.609993 286.218266 
L 568.042685 286.885425 
L 568.259031 286.835558 
L 568.583551 286.618712 
L 568.983791 286.885425 
L 569.221772 286.995736 
L 569.459753 287.142314 
L 569.47057 287.121159 
L 569.859993 286.086044 
L 569.881628 286.101155 
L 570.249416 286.225822 
L 570.509032 286.252267 
L 571.060715 287.151381 
L 571.493407 287.517071 
L 571.947734 287.727872 
L 572.585955 287.852539 
L 572.715763 287.814761 
L 573.072734 287.705205 
L 573.375619 287.487227 
L 573.429706 284.412482 
L 573.656869 269.584649 
L 573.754225 268.829091 
L 573.786677 269.055758 
L 574.01384 273.675998 
L 574.435716 281.756694 
L 574.781869 284.064925 
L 575.106389 285.481597 
L 575.701341 286.65649 
L 576.047495 286.885425 
L 576.209754 286.864269 
L 576.783072 287.311182 
L 577.226582 287.510649 
L 577.410476 287.536716 
L 578.005428 287.780006 
L 578.805909 287.917517 
L 582.310718 287.807206 
L 582.451343 287.319115 
L 582.570333 284.892262 
L 582.775862 283.06381 
L 582.851583 283.165811 
L 582.970574 283.706035 
L 583.241006 285.198263 
L 583.262641 285.149151 
L 583.349179 284.393593 
L 583.74942 274.764002 
L 584.019853 271.397989 
L 584.084757 271.397989 
L 584.322737 273.181107 
L 584.809516 277.261122 
L 585.772257 283.226255 
L 586.204949 284.590038 
L 586.60519 284.763817 
L 586.76745 284.680705 
L 587.362402 284.574927 
L 587.6112 284.333148 
L 587.622017 284.340704 
L 587.881633 284.650483 
L 588.346777 285.375819 
L 589.244614 286.252267 
L 589.266248 286.210711 
L 589.309518 286.116266 
L 589.374421 286.233378 
L 589.590768 286.403378 
L 589.936922 286.293822 
L 590.14245 285.610042 
L 590.391249 283.981814 
L 590.91048 280.691357 
L 591.040287 280.510023 
L 591.061922 280.517579 
L 591.267451 281.205137 
L 591.732595 283.188477 
L 592.370816 285.209596 
L 592.662884 285.542042 
L 592.835961 285.602486 
L 593.301105 285.844265 
L 593.32274 285.730931 
L 593.582355 283.143144 
L 594.090769 277.986458 
L 594.317932 277.55579 
L 594.436923 277.744679 
L 595.269856 281.288248 
L 595.918894 281.624472 
L 596.146058 281.537582 
L 596.535481 281.431804 
L 596.784279 280.426912 
L 597.18452 276.42623 
L 597.855193 265.202411 
L 598.006635 264.446852 
L 598.02827 264.48463 
L 598.14726 264.409074 
L 598.352789 265.466856 
L 599.185722 275.55356 
L 599.337164 275.719783 
L 599.380434 275.644227 
L 599.553511 275.032225 
L 599.823943 274.488223 
L 600.04029 274.737557 
L 600.786684 278.583349 
L 600.873223 278.341571 
L 601.078751 276.418675 
L 601.316732 271.02021 
L 601.781877 258.591275 
L 602.247021 254.775705 
L 602.539088 257.533493 
L 602.820338 260.593505 
L 602.982598 261.122395 
L 602.993415 261.04684 
L 603.069137 260.971284 
L 603.404473 260.064614 
L 603.426108 260.102392 
L 603.45856 260.14017 
L 603.599185 260.366837 
L 603.804714 261.424619 
L 604.670099 272.002436 
L 604.680916 272.002436 
L 604.810724 272.531327 
L 604.832358 272.455771 
L 604.875627 272.380215 
L 605.210964 270.793542 
L 605.221781 270.793542 
L 605.503031 272.606883 
L 605.903272 275.145559 
L 605.935724 274.941558 
L 605.968176 274.431556 
L 606.065532 268.375756 
L 606.27106 240.911209 
L 606.692936 88.200271 
L 606.779474 93.992885 
L 607.72058 239.022313 
L 607.969378 249.449019 
L 608.510244 260.064614 
L 609.029475 267.922421 
L 609.159282 267.620197 
L 609.1701 267.620197 
L 610.2951 253.4157 
L 610.435725 254.209036 
L 611.257841 269.131314 
L 611.485004 270.491319 
L 611.614812 270.340207 
L 611.777072 270.415763 
L 611.917697 270.642431 
L 611.960966 270.717987 
L 611.971783 270.793542 
L 612.02587 270.566875 
L 612.155677 267.20464 
L 612.469379 259.800168 
L 612.555918 259.76239 
L 612.566735 259.800168 
L 612.956158 264.975743 
L 613.497024 273.993332 
L 613.756639 274.949113 
L 613.843178 275.020892 
L 613.886447 274.97178 
L 614.232601 273.993332 
L 614.459765 273.060218 
L 614.654476 272.455771 
L 614.676111 272.417993 
L 614.795101 272.304659 
L 614.849188 272.304659 
L 615.108803 273.857332 
L 615.28188 275.156892 
L 615.909284 279.308685 
L 615.952553 279.30113 
L 615.963371 279.255796 
L 616.1689 278.78735 
L 616.266255 278.817572 
L 616.277073 278.840239 
L 616.40688 279.051795 
L 617.045102 280.895358 
L 617.153275 280.872691 
L 617.596785 279.308685 
L 617.823948 278.122459 
L 618.159285 276.853121 
L 618.58116 275.976673 
L 618.70015 275.870895 
L 618.894862 275.750005 
L 618.927314 275.833117 
L 619.122025 277.200677 
L 619.338372 278.167792 
L 619.478997 277.956236 
L 619.576352 277.147788 
L 619.814333 270.566875 
L 620.333564 250.809024 
L 620.560728 244.915669 
L 620.571545 244.953446 
L 620.614814 244.915669 
L 620.939334 248.920128 
L 620.960968 248.240125 
L 621.069141 244.877891 
L 621.242218 225.195595 
L 621.664093 167.433158 
L 621.783084 162.14425 
L 621.826353 163.428699 
L 622.107603 193.386588 
L 622.691738 246.729009 
L 622.853998 251.451248 
L 623.935729 275.266448 
L 624.184527 276.770009 
L 624.195344 276.800231 
L 624.216979 276.720898 
L 624.57395 270.377985 
L 625.039094 262.331289 
L 625.233806 255.002373 
L 625.471787 248.277903 
L 625.504239 248.542349 
L 625.731402 253.189033 
L 626.283085 270.11354 
L 626.575152 275.243781 
L 626.856402 277.238455 
L 627.051114 278.092236 
L 628.035489 282.988254 
L 628.381643 283.97048 
L 628.576355 284.333148 
L 628.587172 284.302926 
L 628.641259 284.185814 
L 629.019865 283.06381 
L 629.11722 283.071366 
L 629.128038 283.090255 
L 629.247028 283.260255 
L 629.27948 283.2187 
L 629.485009 283.105366 
L 629.593182 283.056255 
L 630.015057 282.006029 
L 630.058326 282.066473 
L 630.144865 282.194918 
L 630.523471 283.743813 
L 630.739817 284.219815 
L 630.977798 284.182037 
L 631.259048 285.016929 
L 631.735009 286.278711 
L 632.059529 286.704091 
L 632.427317 287.063736 
L 633.033087 287.284737 
L 633.271068 286.923202 
L 633.335971 286.2976 
L 633.736212 283.562479 
L 633.790298 283.502034 
L 633.833568 283.57759 
L 633.952558 284.140481 
L 634.244626 285.364486 
L 634.417703 285.39093 
L 634.482606 285.477819 
L 635.164097 286.855202 
L 635.737414 287.329693 
L 636.299915 287.607738 
L 637.40328 287.802672 
L 637.998232 287.710872 
L 638.117223 287.146848 
L 638.582367 279.225574 
L 638.820348 278.182903 
L 638.896069 278.281126 
L 639.025877 279.62602 
L 639.361213 282.837143 
L 640.031887 286.384489 
L 640.464579 287.039558 
L 640.832368 287.287382 
L 641.091983 287.182359 
L 641.795108 287.58356 
L 641.903281 287.472493 
L 642.39006 286.735824 
L 642.444147 286.817424 
L 642.692945 287.260937 
L 643.060734 287.605849 
L 643.244628 287.587338 
L 643.95857 287.800783 
L 643.969388 287.723717 
L 644.164099 286.684446 
L 644.218186 286.596046 
L 644.358811 286.222044 
L 644.423715 286.342934 
L 644.813138 287.106048 
L 644.888859 287.045603 
L 645.159292 286.584712 
L 645.343186 286.691246 
L 645.700157 287.287382 
L 646.100398 287.678761 
L 646.53309 287.848006 
L 646.987417 287.920917 
L 647.485014 287.979473 
L 652.049919 288.089973 
L 652.644871 288.08612 
L 653.272275 288.08612 
L 655.284295 288.094469 
L 657.134055 287.983629 
L 657.426122 287.88125 
L 657.653286 287.866139 
L 657.826363 287.54956 
L 658.11843 286.861247 
L 658.23742 286.992714 
L 658.529488 287.50876 
L 658.778286 287.672716 
L 658.854007 287.559005 
L 659.037901 287.130225 
L 659.091988 287.164981 
L 659.438142 287.391649 
L 659.751844 287.56656 
L 660.141267 287.81665 
L 660.53069 287.897873 
L 660.682132 287.805317 
L 660.866027 286.713157 
L 661.147277 279.939576 
L 661.525883 265.542412 
L 661.731412 263.842406 
L 661.785498 263.880183 
L 661.893671 265.277966 
L 662.207373 275.614005 
L 662.531893 282.130696 
L 662.98622 284.782706 
L 664.197758 287.072803 
L 664.619634 287.381071 
L 665.311941 287.486849 
L 665.571557 287.564671 
L 666.134057 287.644005 
L 667.021076 287.754317 
L 667.497038 287.834406 
L 668.41651 287.944717 
L 668.881654 287.97494 
L 669.563144 287.870673 
L 669.747039 287.775472 
L 669.98502 287.769806 
L 670.471799 287.154403 
L 670.525885 287.121159 
L 670.525885 287.121159 
" clip-path="url(#p7df41e0e47)" style="fill: none; stroke: #1f77b4; stroke-width: 1.5; stroke-linecap: square"/>
   </g>
   <g id="line2d_18">
    <path d="M 77.672364 286.999514 
L 78.072604 288.10856 
L 78.083421 288.01814 
L 78.721643 266.797292 
L 79.446403 253.535827 
L 79.673566 252.665859 
L 79.781739 252.728491 
L 79.954816 253.2385 
L 80.311787 255.167996 
L 81.804576 263.850001 
L 82.572605 266.775126 
L 83.210827 268.631694 
L 83.221644 268.550774 
L 83.232461 268.466701 
L 83.308182 268.743309 
L 83.697606 270.025345 
L 84.011308 271.27087 
L 85.147125 276.128807 
L 85.385106 276.825586 
L 86.120683 279.995287 
L 86.910347 282.824016 
L 87.13751 283.291241 
L 87.169962 283.189666 
L 87.948809 279.869347 
L 88.251693 274.600048 
L 88.597847 272.28235 
L 88.803376 271.796774 
L 88.922367 271.889826 
L 89.127895 272.446781 
L 89.528136 274.086792 
L 89.549771 273.728968 
L 89.852655 269.310629 
L 90.090636 268.34885 
L 90.209626 268.302238 
L 90.231261 268.320889 
L 90.393521 268.662625 
L 90.588232 268.923983 
L 90.728857 269.128117 
L 90.966838 269.932855 
L 91.691598 273.489692 
L 92.459627 276.675746 
L 93.1303 278.565687 
L 93.833426 279.902635 
L 94.720445 281.078638 
L 95.661551 281.933311 
L 96.916359 282.758313 
L 98.171167 283.464513 
L 98.181984 283.445541 
L 98.203619 283.26277 
L 98.290157 283.410306 
L 98.484869 283.771043 
L 98.776936 284.397359 
L 98.820206 284.374373 
L 98.960831 284.457125 
L 99.177177 284.940603 
L 99.739677 286.940876 
L 100.486072 289.248634 
L 101.059389 290.349543 
L 101.611072 290.96315 
L 102.195207 291.289787 
L 102.887514 291.414324 
L 103.850255 291.343093 
L 105.754102 290.930053 
L 106.305785 290.711604 
L 106.349054 290.614664 
L 106.40314 290.782148 
L 107.160352 292.910839 
L 107.712035 293.835631 
L 108.29617 294.378554 
L 108.804583 294.616283 
L 109.399535 294.659876 
L 110.189199 294.475488 
L 111.195209 294.022966 
L 111.238478 293.899776 
L 111.303382 294.049953 
L 111.898334 295.334605 
L 112.406748 295.95295 
L 112.904344 296.226236 
L 113.44521 296.267294 
L 113.867085 296.12817 
L 113.888719 296.012698 
L 113.96444 296.15509 
L 114.581027 297.467551 
L 114.981268 297.943411 
L 114.992085 297.930081 
L 115.01372 297.859899 
L 115.078623 297.991338 
L 115.727662 299.356312 
L 116.214441 299.907808 
L 116.668768 300.108333 
L 117.155547 300.077208 
L 117.782951 299.793206 
L 118.075018 299.732123 
L 118.529345 299.995186 
L 119.005307 300.014366 
L 119.329826 299.85993 
L 119.362278 299.837506 
L 119.438 299.89079 
L 119.470452 299.899276 
L 119.502903 299.974627 
L 120.346654 301.746583 
L 120.833433 302.287278 
L 121.266125 302.459174 
L 121.417567 302.420609 
L 121.460837 302.258056 
L 121.525741 302.373457 
L 122.445212 304.073702 
L 122.899539 304.438695 
L 123.245693 304.46912 
L 123.288962 304.433839 
L 123.343049 304.493994 
L 123.86228 304.96781 
L 124.197616 305.049512 
L 124.240885 304.97762 
L 124.305789 305.059162 
L 124.781751 305.57221 
L 125.192809 305.717456 
L 125.441607 305.632581 
L 125.484876 305.586714 
L 125.538963 305.654687 
L 126.014924 306.16831 
L 126.425982 306.312099 
L 126.847857 306.222717 
L 127.28055 305.921503 
L 127.421175 305.861323 
L 128.838242 306.857619 
L 129.270935 306.71435 
L 129.389925 306.523956 
L 129.433195 306.352366 
L 129.508916 306.420544 
L 129.757714 306.718658 
L 130.828628 308.218727 
L 131.639926 308.550792 
L 131.802186 308.682393 
L 131.82382 308.608839 
L 131.856272 308.590679 
L 131.910359 308.65793 
L 132.159157 308.943891 
L 132.169974 308.909783 
L 132.299782 308.8414 
L 132.54858 308.858394 
L 132.894734 308.996944 
L 133.100263 309.07027 
L 134.073821 310.111921 
L 134.67959 310.814535 
L 135.079831 310.964887 
L 135.469254 310.874231 
L 135.945215 310.51317 
L 136.615889 309.693452 
L 137.41637 308.384259 
L 137.459639 308.318855 
L 137.53536 308.360274 
L 137.935601 308.481237 
L 138.325024 308.385883 
L 138.37911 308.269461 
L 138.444014 308.329404 
L 138.876707 308.606264 
L 139.201226 308.587795 
L 139.331034 308.615226 
L 139.720457 308.71107 
L 140.293774 308.612965 
L 140.585842 308.396453 
L 140.650746 308.104091 
L 140.715649 308.136107 
L 140.942813 308.306099 
L 141.526948 309.190784 
L 142.035361 309.722962 
L 142.435602 309.842807 
L 142.835842 309.726992 
L 143.344256 309.322314 
L 144.079833 308.415295 
L 145.637526 306.415216 
L 145.962045 306.477378 
L 146.405555 303.190785 
L 146.643536 302.6796 
L 146.805795 302.714584 
L 147.054593 303.072592 
L 147.595459 303.855435 
L 147.800988 304.072359 
L 148.374305 305.156684 
L 148.936805 305.957165 
L 149.337046 306.18658 
L 149.899546 306.310205 
L 150.353873 306.125324 
L 150.537767 306.0736 
L 150.948825 306.131169 
L 151.403152 305.956806 
L 152.073825 305.420994 
L 152.993297 304.386116 
L 153.54498 303.565705 
L 153.588249 303.431585 
L 153.653153 303.554577 
L 154.475268 305.018969 
L 154.929595 305.386479 
L 155.340653 305.446047 
L 155.989692 305.251651 
L 156.552192 304.865678 
L 157.40676 303.973832 
L 157.698827 303.479206 
L 157.807 303.665659 
L 158.326231 304.366841 
L 158.758923 304.606988 
L 159.180799 304.591953 
L 159.689212 304.336178 
L 160.413972 303.693408 
L 163.23729 300.921161 
L 163.669982 300.990834 
L 163.864694 301.066866 
L 164.36229 301.62956 
L 164.8058 301.812285 
L 165.270944 301.760437 
L 165.865896 301.451026 
L 166.395945 301.006489 
L 166.471666 301.156956 
L 167.466858 303.044993 
L 168.040176 303.918999 
L 168.10508 303.996376 
L 168.115897 303.930665 
L 168.137532 303.83576 
L 168.22407 303.953986 
L 168.710849 304.855047 
L 169.381522 305.950791 
L 169.478878 306.054784 
L 170.030561 306.571811 
L 170.441619 306.727068 
L 170.863494 306.643684 
L 171.198831 306.412489 
L 171.252917 306.336261 
L 171.317821 306.384111 
L 171.480081 306.520579 
L 171.490898 306.453616 
L 171.512533 306.365649 
L 171.599071 306.478927 
L 172.194023 307.366926 
L 172.20484 307.347522 
L 172.377917 306.655467 
L 172.9296 304.977232 
L 173.102677 305.06533 
L 173.697629 305.857368 
L 174.032966 306.287956 
L 174.043783 306.273727 
L 174.108687 305.878823 
L 174.811812 260.745916 
L 175.093062 256.995513 
L 175.309409 256.292099 
L 175.417582 256.370119 
L 175.601476 256.921967 
L 175.655562 257.140581 
L 175.720466 256.951796 
L 176.250515 233.567798 
L 176.51013 230.819464 
L 176.726476 229.58112 
L 177.018544 223.981421 
L 177.245707 222.800739 
L 177.321428 222.811663 
L 177.343063 222.843629 
L 177.494505 223.358625 
L 177.79739 225.402917 
L 180.133929 243.604667 
L 181.020948 249.190075 
L 182.081045 256.020336 
L 182.881526 259.866939 
L 183.736093 262.909762 
L 184.731286 265.639583 
L 184.936815 266.285859 
L 185.694027 268.93979 
L 186.710854 271.604678 
L 187.478883 273.547792 
L 188.182008 276.13486 
L 188.874316 277.872247 
L 189.62071 279.154961 
L 190.486095 280.198926 
L 191.135134 280.809591 
L 191.145951 280.753583 
L 191.18922 280.520174 
L 191.264942 280.703939 
L 191.438019 281.120417 
L 191.47047 280.922213 
L 191.51374 280.576673 
L 192.032971 247.804834 
L 192.335855 240.732579 
L 192.63874 238.278147 
L 192.844269 237.69296 
L 192.941625 237.824074 
L 193.136336 238.598361 
L 193.547394 241.406498 
L 194.921193 251.196585 
L 195.77576 255.462913 
L 196.630328 258.822875 
L 196.90076 258.015644 
L 197.008933 257.948598 
L 197.041385 257.975696 
L 197.192828 258.323967 
L 197.798597 260.760451 
L 198.696434 265.343728 
L 198.91278 266.032712 
L 199.421194 268.616893 
L 200.3623 273.130074 
L 201.065425 275.422884 
L 202.157973 278.038679 
L 204.007733 281.232111 
L 204.819032 282.097156 
L 205.846676 282.85771 
L 206.041388 282.982825 
L 206.052205 282.938511 
L 206.095474 282.77215 
L 206.149561 282.963768 
L 207.188023 286.647278 
L 207.663984 287.706119 
L 207.674802 287.678487 
L 207.696436 287.651973 
L 207.739706 287.769878 
L 208.464465 289.961159 
L 209.037783 291.03489 
L 209.32985 291.634825 
L 210.011341 293.420086 
L 210.552206 294.257852 
L 211.06062 294.665124 
L 211.796197 294.915487 
L 212.380332 294.950367 
L 212.639947 294.822012 
L 212.683216 294.734551 
L 212.737303 294.863213 
L 213.407976 296.449658 
L 213.927207 297.148298 
L 214.413986 297.447984 
L 214.9224 297.499713 
L 215.831054 297.299059 
L 216.415189 297.177253 
L 216.750525 297.324487 
L 217.237304 297.801383 
L 217.713266 297.972959 
L 218.254131 297.924274 
L 218.978891 297.614389 
L 220.222882 296.799521 
L 220.655574 296.618002 
L 221.153171 296.782184 
L 221.726488 296.729676 
L 222.526969 296.634927 
L 223.024565 296.794197 
L 223.20846 296.720865 
L 223.240912 296.655393 
L 223.305815 296.784827 
L 224.095479 298.450946 
L 224.538989 298.940743 
L 224.657979 299.082872 
L 225.198845 299.935632 
L 225.663989 300.283747 
L 226.118316 300.356501 
L 226.659182 300.203988 
L 227.405576 299.738655 
L 229.222884 298.238132 
L 229.947644 297.764853 
L 230.423606 297.96716 
L 230.477692 297.988298 
L 230.48851 297.894137 
L 230.953654 294.318378 
L 231.159183 293.998473 
L 231.310625 294.103311 
L 231.581058 294.668093 
L 232.651972 297.314591 
L 232.673606 297.237815 
L 232.695241 297.223817 
L 232.749327 297.311323 
L 232.933222 297.514406 
L 233.30101 298.343532 
L 233.993318 299.967528 
L 234.004136 299.880002 
L 234.101491 297.949085 
L 234.198847 286.982915 
L 234.653174 233.390113 
L 234.977693 219.586588 
L 235.248126 215.565438 
L 235.432021 214.991036 
L 235.442838 214.994521 
L 235.540194 215.172101 
L 235.75654 216.200847 
L 236.135146 219.272094 
L 238.179617 237.500927 
L 239.120723 243.458385 
L 239.996926 249.001163 
L 240.851493 254.251391 
L 242.117118 260.306539 
L 242.138753 260.182504 
L 242.19284 260.444295 
L 244.258946 270.707192 
L 245.00534 272.774924 
L 245.849091 274.466598 
L 246.195244 275.262214 
L 246.746927 277.734685 
L 246.779379 277.510171 
L 246.822649 277.443146 
L 247.244524 272.577494 
L 247.439235 272.247569 
L 247.569043 272.401642 
L 247.807024 273.142379 
L 248.488514 276.299951 
L 249.256543 279.312702 
L 249.916399 281.036869 
L 250.587073 282.189009 
L 251.019765 282.956675 
L 252.501737 287.949268 
L 253.940439 291.124137 
L 254.708468 293.267049 
L 255.725295 295.165936 
L 256.179622 295.567915 
L 256.266161 295.659169 
L 256.460872 296.035517 
L 256.504141 295.927151 
L 256.677218 293.931066 
L 256.969286 290.586377 
L 257.207267 289.79179 
L 257.380344 289.784594 
L 257.834671 290.39126 
L 258.472892 292.371745 
L 258.710873 292.861558 
L 258.732507 292.839231 
L 258.88395 292.873999 
L 259.121931 293.30158 
L 259.511354 294.396205 
L 259.630344 294.275638 
L 260.117123 293.380406 
L 260.355104 291.545793 
L 260.787796 284.834934 
L 261.025777 284.055352 
L 261.166402 284.081163 
L 261.361114 284.464392 
L 261.804624 285.99059 
L 262.670008 288.828608 
L 263.254143 290.010856 
L 263.383951 290.094376 
L 263.405586 290.050488 
L 263.481307 290.148272 
L 263.546211 290.024663 
L 263.795009 287.418793 
L 264.357509 280.596886 
L 264.55222 280.331834 
L 264.692846 280.498979 
L 264.963278 281.289024 
L 266.704865 287.219685 
L 267.299817 288.354475 
L 267.559433 288.708248 
L 267.57025 288.6295 
L 267.581067 288.550843 
L 267.656789 288.74224 
L 268.835875 292.467059 
L 269.484914 294.027593 
L 269.906789 295.046531 
L 269.917607 295.003294 
L 270.177222 291.622696 
L 270.458472 290.174578 
L 270.631549 290.069954 
L 270.793809 290.28009 
L 271.172415 291.264208 
L 272.232511 294.233163 
L 272.243328 294.213101 
L 272.254146 294.192906 
L 272.308232 294.31697 
L 272.470492 294.778286 
L 272.535396 294.652976 
L 272.83828 293.491082 
L 273.022175 293.468735 
L 273.238521 293.682438 
L 273.552223 294.425783 
L 274.352704 296.351883 
L 274.601502 296.464648 
L 274.612319 296.403642 
L 274.861117 295.736114 
L 275.023377 295.363587 
L 275.261358 294.663762 
L 275.315444 294.56121 
L 275.813041 290.033095 
L 276.061839 289.417462 
L 276.202464 289.43697 
L 276.397176 289.776933 
L 276.894772 291.267092 
L 277.857512 294.032127 
L 277.911599 294.123123 
L 278.950061 296.661976 
L 278.971695 296.599625 
L 279.036599 296.75334 
L 279.934436 298.918052 
L 279.945253 298.842301 
L 279.956071 298.76553 
L 280.053426 298.863287 
L 280.28059 299.191525 
L 280.583475 299.816803 
L 281.697658 302.185321 
L 282.043812 302.72597 
L 282.054629 302.658981 
L 282.249341 302.166443 
L 282.465687 301.906281 
L 282.638764 302.024469 
L 282.963283 302.609683 
L 283.114725 302.910292 
L 283.125543 302.81349 
L 283.385158 301.414542 
L 283.612322 300.935564 
L 283.774581 300.977289 
L 284.023379 301.3605 
L 285.635159 304.380217 
L 285.656793 304.347536 
L 285.71088 304.446822 
L 286.305832 305.508655 
L 286.630351 305.633026 
L 287.27939 306.633269 
L 287.712082 306.924369 
L 288.231313 306.972229 
L 288.609919 306.877602 
L 288.739727 306.857254 
L 289.226506 306.882563 
L 289.269775 306.843059 
L 289.334679 306.897709 
L 289.637564 307.073781 
L 289.648381 307.056086 
L 289.713285 307.026023 
L 289.745737 307.067192 
L 290.373141 307.871582 
L 290.784199 308.053653 
L 291.195256 307.991934 
L 291.682035 307.675793 
L 292.374343 306.93265 
L 292.590689 306.816872 
L 293.120738 306.931424 
L 293.542613 306.830716 
L 293.596699 306.737537 
L 293.639969 306.587785 
L 293.704872 306.689714 
L 294.602709 308.010461 
L 295.024584 308.219048 
L 295.424825 308.170238 
L 295.900786 307.872714 
L 296.57146 307.164267 
L 297.912806 305.339911 
L 298.356316 304.607324 
L 298.464489 304.708547 
L 298.972903 305.004894 
L 299.38396 305.082803 
L 299.838287 304.935222 
L 300.444057 304.479916 
L 301.071461 304.045912 
L 301.763769 303.587262 
L 302.68324 302.67148 
L 304.208481 301.14759 
L 304.738529 300.98089 
L 305.474106 300.490971 
L 307.26978 298.916904 
L 307.821463 298.479866 
L 307.843097 298.52207 
L 308.502953 299.743108 
L 308.95728 300.158084 
L 309.206078 300.353446 
L 309.790213 301.370269 
L 310.276992 302.148443 
L 310.785406 302.829189 
L 311.618339 303.711279 
L 313.121945 306.200432 
L 313.489733 306.375647 
L 313.54382 306.374823 
L 313.587089 306.417683 
L 314.019782 306.682421 
L 314.701272 306.744637 
L 315.155599 306.551266 
L 315.847907 305.970856 
L 316.810648 304.826294 
L 317.708484 303.840441 
L 319.103918 302.215526 
L 320.607524 300.342982 
L 320.683245 300.457595 
L 321.159207 300.956319 
L 321.602716 301.120585 
L 322.089495 301.055468 
L 322.565457 300.780515 
L 322.619543 300.629953 
L 322.684447 300.743202 
L 323.311851 301.914534 
L 323.690457 302.261429 
L 323.701275 302.250611 
L 323.79863 302.263317 
L 323.809448 302.288958 
L 323.993342 302.648638 
L 324.047428 302.554181 
L 324.07988 302.467025 
L 324.328679 301.951332 
L 324.490938 301.959288 
L 324.728919 302.277324 
L 326.448871 305.177963 
L 326.557045 305.062874 
L 326.81666 303.684497 
L 327.346708 288.159796 
L 328.006564 243.858167 
L 328.54743 238.162422 
L 328.644785 238.25198 
L 328.817862 238.860157 
L 329.174834 241.142542 
L 330.905603 253.234504 
L 331.976517 258.441413 
L 332.755363 261.282999 
L 332.776998 261.244351 
L 332.885171 261.711276 
L 333.804643 266.619338 
L 334.064258 267.331753 
L 334.139979 266.710355 
L 334.248152 262.960662 
L 334.572672 250.338943 
L 334.853922 246.334718 
L 335.070268 245.621525 
L 335.167624 245.711719 
L 335.340701 246.284301 
L 335.708489 248.473532 
L 337.482528 259.955123 
L 338.380365 264.884252 
L 339.537817 269.649499 
L 339.80825 270.27594 
L 339.938058 270.322738 
L 340.121952 270.770693 
L 340.511375 272.462549 
L 341.268587 275.645084 
L 341.733731 277.600703 
L 342.653203 281.289595 
L 343.291424 282.958277 
L 344.730126 285.70777 
L 344.978924 286.138922 
L 345.000559 285.936872 
L 345.033011 285.954124 
L 345.07628 285.164506 
L 345.379165 280.381029 
L 345.627963 279.181634 
L 345.768588 279.115738 
L 345.779405 279.12335 
L 345.941665 279.399203 
L 346.266184 280.505688 
L 347.510175 285.057571 
L 348.115944 286.345851 
L 348.721714 287.139774 
L 348.808252 287.214775 
L 348.81907 287.093948 
L 348.829887 286.989505 
L 348.93806 287.01743 
L 349.078685 287.103589 
L 349.305849 287.606137 
L 349.38157 287.833084 
L 349.846714 288.004125 
L 350.030608 288.303505 
L 350.430849 289.519875 
L 351.328686 292.191438 
L 351.891186 293.174737 
L 352.421234 293.67447 
L 352.9621 294.094526 
L 352.972917 293.997971 
L 353.113542 293.590379 
L 353.308253 293.400756 
L 353.383975 293.439122 
L 353.394792 293.381839 
L 353.513782 292.151068 
L 354.108734 278.391291 
L 354.422436 276.814286 
L 354.573879 276.033109 
L 354.876764 272.101182 
L 355.103927 271.360081 
L 355.222917 271.408491 
L 355.406812 271.847518 
L 355.796235 273.508318 
L 356.888783 278.246938 
L 358.251764 282.818377 
L 358.533014 283.293943 
L 358.879168 284.398201 
L 359.950082 287.978867 
L 360.718111 290.219971 
L 360.793832 290.132035 
L 360.999361 289.088432 
L 361.48614 286.574912 
L 361.637583 286.537134 
L 361.832294 286.835623 
L 362.275804 287.983576 
L 362.394794 287.896945 
L 362.546237 288.03875 
L 362.557054 288.085222 
L 362.578689 287.904147 
L 362.621958 287.960372 
L 362.870756 286.18602 
L 363.108737 285.714005 
L 363.444073 285.568167 
L 363.66042 285.955962 
L 364.093112 287.373464 
L 364.94768 290.05631 
L 365.758978 292.28279 
L 366.126766 293.242631 
L 367.013786 295.624163 
L 367.024603 295.620085 
L 367.07869 295.705367 
L 367.727728 297.043893 
L 367.749363 296.937486 
L 367.825084 297.084564 
L 367.933257 297.394799 
L 367.998161 297.295371 
L 368.290229 296.382381 
L 368.441671 296.400544 
L 368.658017 296.739502 
L 369.350325 298.476166 
L 369.956094 299.657896 
L 370.432056 300.145436 
L 370.886383 300.309564 
L 371.383979 300.24539 
L 371.62196 300.11036 
L 371.665229 300.027806 
L 371.719316 300.150507 
L 371.892393 300.589278 
L 371.914028 300.385709 
L 372.000566 299.47452 
L 372.422441 287.653441 
L 372.563066 278.92552 
L 373.482538 214.857209 
L 373.763788 210.267634 
L 373.958499 209.622312 
L 374.055855 209.782801 
L 374.239749 210.671928 
L 374.607538 213.804889 
L 376.435663 230.764793 
L 377.409221 237.147853 
L 378.490952 242.830803 
L 379.994559 249.427481 
L 381.833501 257.374902 
L 382.6448 262.193954 
L 383.575088 267.16127 
L 384.310665 269.909769 
L 385.089512 271.987034 
L 385.706099 273.652128 
L 386.420041 275.565736 
L 387.198887 277.029375 
L 388.118359 278.280114 
L 388.659224 279.066015 
L 389.275811 281.073569 
L 389.297446 281.051891 
L 389.340715 281.174361 
L 390.292638 284.56958 
L 390.909225 285.919507 
L 391.514994 286.741972 
L 391.915235 287.11006 
L 391.926052 287.027485 
L 391.969321 286.767021 
L 392.05586 286.831155 
L 392.196485 286.898963 
L 392.4561 287.417253 
L 393.170043 289.819122 
L 393.819081 291.537406 
L 394.370764 292.417426 
L 394.900813 292.873 
L 395.47413 293.075222 
L 396.177255 293.07376 
L 398.308265 292.726118 
L 399.065477 286.409008 
L 399.206102 286.452997 
L 399.411631 286.863376 
L 399.909227 288.522966 
L 400.688074 290.871805 
L 401.239756 291.879442 
L 401.412833 292.092214 
L 402.905622 296.137539 
L 403.046247 296.379393 
L 403.078699 296.275248 
L 403.089517 296.233976 
L 403.143603 296.341817 
L 403.176055 296.3389 
L 404.928459 299.844121 
L 405.339517 300.149202 
L 405.415238 300.067507 
L 405.458508 300.126394 
L 406.583508 301.999372 
L 406.799854 302.133852 
L 406.821489 302.06764 
L 406.853941 301.8858 
L 406.940479 302.000714 
L 407.243364 302.527955 
L 407.838316 303.638891 
L 407.870768 303.589689 
L 408.281826 303.483652 
L 408.563076 303.916607 
L 409.731345 305.931188 
L 410.218124 306.285938 
L 410.304663 306.287592 
L 410.31548 306.22615 
L 410.337115 306.165301 
L 410.412836 306.256839 
L 411.029423 307.199317 
L 411.051057 307.17831 
L 411.105144 307.267486 
L 412.403221 308.881005 
L 412.792644 308.899153 
L 413.236154 308.680997 
L 413.831106 308.108942 
L 414.750577 306.878255 
L 414.90202 306.650156 
L 414.956106 306.708009 
L 415.540241 307.495115 
L 417.15202 308.768386 
L 417.249376 308.852469 
L 417.746972 309.248424 
L 418.147213 309.362586 
L 418.536636 309.239992 
L 418.60154 309.119833 
L 418.655626 309.056518 
L 418.709713 309.136344 
L 420.072694 310.534171 
L 420.462117 310.49351 
L 420.89481 310.224788 
L 420.948896 309.964298 
L 421.024617 310.054079 
L 423.155628 312.320609 
L 423.545051 312.390281 
L 424.03183 312.204086 
L 424.280628 311.979698 
L 424.323897 311.868378 
L 424.399618 311.898559 
L 424.670051 312.071465 
L 425.730148 313.070859 
L 425.740965 313.060134 
L 425.773417 312.943672 
L 425.859955 313.026875 
L 426.476542 313.605545 
L 426.865965 313.67839 
L 426.930869 313.578311 
L 427.114763 312.556369 
L 427.839523 303.269475 
L 428.066687 302.812106 
L 428.228946 302.850229 
L 428.477744 303.20902 
L 429.74337 305.346992 
L 430.100341 305.52809 
L 430.208514 305.609136 
L 430.954909 306.402021 
L 431.365966 306.497597 
L 431.798659 306.363034 
L 432.307072 305.968509 
L 432.512601 305.868279 
L 432.631592 305.797596 
L 432.804669 303.117615 
L 433.421255 288.543138 
L 433.670053 287.427134 
L 433.832313 287.357331 
L 434.016207 287.615414 
L 434.373179 288.67254 
L 434.611159 289.500302 
L 434.686881 289.355738 
L 434.740967 289.112443 
L 435.065487 287.494676 
L 435.216929 287.453965 
L 435.227746 287.462374 
L 435.444092 287.754053 
L 435.476544 287.553101 
L 435.563083 285.917011 
L 436.168852 268.145747 
L 436.428468 266.220456 
L 436.57991 266.020882 
L 436.601545 266.030419 
L 436.74217 266.267413 
L 437.034237 267.345196 
L 438.808276 275.305622 
L 438.819093 275.289675 
L 438.851545 275.289006 
L 438.87318 275.366577 
L 439.933276 279.731758 
L 440.582315 281.418512 
L 441.242171 282.545788 
L 441.685681 283.337103 
L 442.226546 284.987808 
L 442.258998 284.96569 
L 442.432075 285.183782 
L 442.442892 285.118592 
L 442.767412 283.337138 
L 442.929671 283.209073 
L 442.940489 283.214731 
L 443.102748 283.454284 
L 443.427268 284.461302 
L 444.617172 288.427389 
L 445.201307 289.551656 
L 445.222941 289.287487 
L 445.525826 286.039363 
L 445.752989 285.407282 
L 445.893614 285.448525 
L 446.099143 285.863994 
L 446.196499 285.965498 
L 446.218134 285.908096 
L 446.391211 285.745341 
L 446.402028 285.749966 
L 446.55347 285.947085 
L 447.353951 287.820487 
L 448.273423 290.732906 
L 448.28424 290.729691 
L 448.327509 290.694653 
L 448.359961 290.792074 
L 449.311885 293.616782 
L 449.333519 293.481733 
L 449.40924 293.658601 
L 449.841933 294.801938 
L 450.642414 296.809733 
L 451.161645 297.541299 
L 451.637606 297.856214 
L 452.124385 297.923342 
L 452.156837 297.790963 
L 452.275828 297.627502 
L 452.600347 297.520491 
L 452.805876 297.815634 
L 453.011405 297.982984 
L 453.173664 298.060571 
L 453.43328 298.528357 
L 454.655636 301.043809 
L 455.12078 301.409669 
L 455.618377 301.743729 
L 456.061886 301.973087 
L 456.516213 301.957621 
L 457.067896 301.70065 
L 457.57631 301.27773 
L 457.619579 301.154712 
L 457.684483 301.276941 
L 459.58833 304.636872 
L 460.085926 304.941056 
L 460.172464 304.989605 
L 460.183282 304.890705 
L 460.194099 304.791883 
L 460.291455 304.901179 
L 460.897224 306.000962 
L 461.427272 306.698452 
L 461.849147 306.918604 
L 462.260205 306.882647 
L 462.746984 306.599701 
L 463.071504 306.258564 
L 463.179677 304.851177 
L 463.439292 296.997414 
L 463.774629 285.302936 
L 464.077513 281.364932 
L 464.315494 280.518204 
L 464.456119 280.538752 
L 464.683283 280.971151 
L 464.813091 281.342933 
L 464.877994 281.226209 
L 465.202514 276.599157 
L 465.527033 267.441818 
L 466.046264 260.886135 
L 466.230158 260.542717 
L 466.240976 260.546387 
L 466.359966 260.719619 
L 466.597947 261.591137 
L 467.192899 264.916994 
L 468.11237 269.599751 
L 468.858765 272.272095 
L 469.572707 274.340757 
L 470.351554 275.933007 
L 471.1304 277.482646 
L 472.244583 281.49735 
L 472.374391 281.12071 
L 472.515016 279.644081 
L 472.8179 274.952875 
L 473.09915 272.267019 
L 473.304679 271.865185 
L 473.42367 271.989265 
L 473.650833 272.660422 
L 474.040256 274.116197 
L 474.061891 273.929765 
L 474.310689 272.651598 
L 474.635209 271.918779 
L 474.916459 271.277412 
L 475.035449 271.316006 
L 475.208526 271.711125 
L 475.684488 273.600697 
L 477.198911 279.840163 
L 477.84795 281.39166 
L 477.977757 281.60515 
L 477.988575 281.502324 
L 478.183286 278.803978 
L 478.486171 274.572815 
L 478.724152 273.670119 
L 478.85396 273.692792 
L 479.027037 274.068483 
L 479.09194 274.300981 
L 479.167662 274.143169 
L 479.427277 272.624035 
L 479.567902 272.520723 
L 479.589537 272.535595 
L 479.740979 272.811773 
L 480.054681 273.983773 
L 481.493383 279.924438 
L 483.51622 285.489267 
L 484.132807 286.311098 
L 484.814298 286.852475 
L 485.636413 287.214255 
L 486.783048 287.459454 
L 488.82752 287.647122 
L 490.753001 287.704432 
L 490.79627 287.432875 
L 490.871992 287.586514 
L 491.174876 288.411572 
L 492.202521 291.513075 
L 492.213338 291.486004 
L 492.36478 290.754598 
L 492.494588 288.576476 
L 492.797473 279.08933 
L 493.13281 256.754679 
L 493.457329 243.572431 
L 493.738579 239.436422 
L 493.944108 238.731556 
L 494.041464 238.821029 
L 494.214541 239.426336 
L 494.571512 241.695826 
L 496.194108 252.917636 
L 497.070311 257.001028 
L 497.989782 260.317308 
L 499.08233 263.429792 
L 499.698917 265.315525 
L 500.120792 267.49935 
L 500.174879 267.357585 
L 500.196513 267.400026 
L 500.218148 267.231482 
L 500.434494 259.967872 
L 500.780648 238.931464 
L 501.072715 232.195434 
L 501.321514 230.342664 
L 501.418869 230.25745 
L 501.451321 230.287213 
L 501.602764 230.683759 
L 502.013821 232.897747 
L 502.749399 238.942211 
L 503.971755 248.175308 
L 504.826322 253.509338 
L 505.323919 255.663462 
L 505.334736 255.616385 
L 505.561899 255.388386 
L 505.378005 255.659869 
L 505.583534 255.404972 
L 505.734976 255.730602 
L 506.027044 257.049828 
L 508.082333 267.910979 
L 508.222958 267.960428 
L 508.363583 267.427558 
L 508.579929 266.881016 
L 508.698919 266.990072 
L 508.904448 267.599049 
L 509.38041 269.916685 
L 510.353968 274.487071 
L 513.490988 285.924552 
L 514.096757 287.136427 
L 514.561902 287.734845 
L 514.572719 287.695626 
L 514.615988 287.589367 
L 514.670075 287.757548 
L 515.600364 290.696593 
L 516.173681 291.803916 
L 516.811902 292.835861 
L 516.887623 292.70989 
L 517.201325 291.681623 
L 517.341951 291.728435 
L 517.569114 291.884099 
L 517.590749 291.841528 
L 517.828729 291.556147 
L 517.990989 291.736292 
L 518.304691 292.520328 
L 519.700124 296.328154 
L 520.230172 297.174431 
L 520.857576 297.721288 
L 521.36599 297.949132 
L 521.885221 297.949807 
L 522.923683 297.860629 
L 523.302289 297.814769 
L 523.345558 297.721671 
L 523.410462 297.805822 
L 524.265029 299.363384 
L 525.335943 300.422281 
L 525.801087 300.46068 
L 526.363588 300.26558 
L 527.791472 299.398799 
L 528.700127 298.610025 
L 528.743396 298.450373 
L 528.8083 298.584045 
L 528.970559 298.975779 
L 529.035463 298.879224 
L 529.251809 298.440357 
L 529.414069 298.455803 
L 529.641233 298.802344 
L 530.484983 300.654045 
L 530.560704 300.466819 
L 530.971762 299.236804 
L 531.134021 299.355768 
L 531.436906 299.93884 
L 532.713349 302.623006 
L 533.762628 304.278366 
L 534.206138 304.613263 
L 534.628013 304.661256 
L 535.103974 304.477626 
L 535.753013 303.961816 
L 536.845561 302.760592 
L 539.809505 299.416497 
L 540.198928 298.993904 
L 540.263832 299.138572 
L 541.259024 301.233366 
L 541.670082 301.65773 
L 541.680899 301.625218 
L 541.691717 301.593297 
L 541.767438 301.684481 
L 542.20013 302.37103 
L 542.210947 302.3157 
L 542.340755 300.864696 
L 542.64364 296.973949 
L 542.773448 295.211578 
L 543.076332 291.0158 
L 543.32513 289.943285 
L 543.48739 289.873745 
L 543.660467 290.116314 
L 544.017438 291.110802 
L 544.04989 291.206367 
L 544.082342 290.967191 
L 544.125611 290.674043 
L 544.601573 268.525077 
L 544.915275 263.735146 
L 545.142439 262.801056 
L 545.250612 262.807643 
L 545.261429 262.820049 
L 545.423689 263.204783 
L 545.759025 264.730445 
L 547.316718 272.481496 
L 548.647247 277.743694 
L 548.679699 277.732683 
L 548.787872 277.662273 
L 548.950132 277.538646 
L 548.960949 277.54532 
L 549.112392 277.788835 
L 549.490997 278.999191 
L 549.977776 280.498423 
L 550.388834 282.013248 
L 550.475373 282.32785 
L 550.551094 282.256064 
L 550.778257 281.679131 
L 550.908065 281.751396 
L 551.113594 282.218376 
L 551.719363 284.401229 
L 552.757825 287.93905 
L 553.406864 289.299164 
L 553.969364 290.015719 
L 554.174893 290.210013 
L 554.18571 290.112318 
L 554.196528 290.009221 
L 554.283066 290.186212 
L 554.921287 292.200278 
L 556.013836 295.144297 
L 556.608788 296.378031 
L 556.792682 296.621907 
L 556.814317 296.510711 
L 556.825134 296.488306 
L 556.879221 296.598848 
L 557.279461 297.658561 
L 557.366 297.600385 
L 557.517442 297.63232 
L 557.744605 297.994049 
L 558.77225 300.306076 
L 558.847971 300.115126 
L 559.561914 283.348065 
L 559.789077 282.728595 
L 559.918885 282.782606 
L 560.124414 283.224306 
L 560.611193 284.985196 
L 561.433308 287.732565 
L 562.406866 290.617515 
L 563.304703 293.023573 
L 563.87802 294.11627 
L 564.397251 294.655988 
L 564.494607 294.732445 
L 564.505424 294.65506 
L 564.527059 294.533773 
L 564.60278 294.680817 
L 564.797492 295.170879 
L 564.873213 295.091739 
L 565.089559 294.781337 
L 565.241002 294.891124 
L 565.511434 295.450383 
L 565.814319 296.124608 
L 565.825136 296.014776 
L 565.911675 294.073466 
L 566.257829 279.084084 
L 566.484992 270.797279 
L 566.820329 256.183462 
L 567.112396 251.438521 
L 567.696531 247.046205 
L 567.750618 247.080384 
L 567.891243 247.426976 
L 568.172493 248.849287 
L 570.747013 264.08404 
L 571.525859 267.732491 
L 572.272253 270.207657 
L 572.899657 272.282813 
L 573.418888 274.593197 
L 573.429706 274.466278 
L 573.721773 272.563444 
L 573.862398 272.440782 
L 573.884033 272.453302 
L 574.035475 272.716761 
L 574.435716 274.081154 
L 576.491005 281.900988 
L 577.140043 283.124374 
L 577.832351 283.962234 
L 578.632832 284.580826 
L 579.682111 285.098566 
L 580.244611 285.426921 
L 581.045092 287.292141 
L 581.596775 288.153243 
L 583.057112 290.055573 
L 583.089564 289.911762 
L 583.100381 289.866829 
L 583.165285 290.031202 
L 583.230189 290.089658 
L 583.284276 290.026747 
L 583.327545 289.934351 
L 583.576343 289.22663 
L 583.716968 289.255819 
L 583.922497 289.631698 
L 584.420093 291.175147 
L 585.166488 293.252783 
L 585.71817 294.168358 
L 586.107594 294.809067 
L 586.72418 296.181888 
L 587.427306 297.137088 
L 587.903267 297.411596 
L 588.855191 297.407027 
L 589.450143 297.116925 
L 589.493412 297.073758 
L 589.558316 297.142885 
L 590.02346 297.514296 
L 590.510239 297.65241 
L 591.072739 297.573155 
L 591.851586 297.218454 
L 592.738605 296.833352 
L 593.257836 297.224964 
L 593.301105 297.236428 
L 593.311922 297.177271 
L 593.463365 296.628853 
L 593.60399 294.264243 
L 593.896057 291.57468 
L 594.123221 291.053962 
L 594.263846 291.115109 
L 594.491009 291.558232 
L 596.373221 296.126646 
L 596.503029 296.277958 
L 597.054712 297.250391 
L 597.076347 297.274758 
L 597.108798 297.187805 
L 597.130433 297.105903 
L 597.206154 297.232758 
L 597.703751 298.399799 
L 598.42851 299.972569 
L 598.904472 300.528179 
L 598.947741 300.292062 
L 599.088366 300.44554 
L 599.402068 301.025104 
L 600.386444 302.942296 
L 600.765049 303.28462 
L 600.775867 303.268394 
L 600.808319 303.096394 
L 600.819136 303.066728 
L 600.894857 303.159265 
L 601.186925 303.631324 
L 601.251828 303.757114 
L 601.28428 303.588758 
L 601.316732 303.613577 
L 601.349184 303.505696 
L 601.662886 302.743544 
L 601.825146 302.804762 
L 602.095579 303.22287 
L 602.7338 304.232725 
L 602.993415 304.589267 
L 604.085964 306.317017 
L 604.86481 306.801155 
L 605.275868 306.782128 
L 605.762647 306.514738 
L 605.914089 306.265238 
L 606.141253 302.914601 
L 606.454955 298.245153 
L 606.747022 296.741458 
L 606.985003 296.324172 
L 607.15808 296.414213 
L 607.634042 297.330458 
L 608.575148 299.477438 
L 609.00784 299.996096 
L 609.018657 299.985298 
L 609.040292 299.796979 
L 609.137648 299.915951 
L 609.494619 300.645461 
L 610.316735 302.301888 
L 610.792696 302.772847 
L 611.149668 302.898632 
L 611.171302 302.813451 
L 611.257841 302.907733 
L 611.755437 303.518268 
L 612.188129 303.721376 
L 612.631639 303.679175 
L 613.172505 303.386835 
L 613.421303 303.105224 
L 613.464572 303.004202 
L 613.529476 303.12293 
L 614.081159 303.967099 
L 614.524668 304.273591 
L 614.946544 304.302702 
L 615.509044 304.084931 
L 615.909284 303.736154 
L 615.952553 303.683535 
L 616.017457 303.748684 
L 616.460967 304.046025 
L 616.882842 304.070051 
L 617.2939 304.094991 
L 617.823948 304.404419 
L 618.245823 304.39318 
L 618.754237 304.143134 
L 619.003035 304.087535 
L 619.533083 304.803916 
L 619.597987 304.60633 
L 619.98741 303.848726 
L 620.171305 303.981026 
L 620.539093 304.625468 
L 620.863612 305.255969 
L 620.928516 305.170959 
L 620.99342 304.689755 
L 621.069141 301.938074 
L 621.415295 289.002364 
L 621.71818 284.720331 
L 621.966978 283.68271 
L 622.107603 283.647549 
L 622.11842 283.65618 
L 622.323949 283.99684 
L 622.735007 285.214322 
L 623.892459 289.050137 
L 624.195344 289.85152 
L 624.216979 289.767145 
L 624.714575 285.729631 
L 624.920104 285.399101 
L 625.060729 285.529044 
L 625.320344 286.187346 
L 627.007845 291.217506 
L 627.559528 292.00379 
L 628.100393 292.408967 
L 628.911691 292.68435 
L 629.355201 292.795098 
L 629.885249 293.330704 
L 630.426115 293.572897 
L 631.064336 293.608732 
L 631.951356 293.416452 
L 632.827558 293.06161 
L 632.870827 292.956356 
L 632.935731 293.087724 
L 633.281885 293.938829 
L 633.30352 293.816061 
L 633.400875 292.349971 
L 633.725395 283.262287 
L 634.017462 280.214365 
L 634.233808 279.666535 
L 634.363616 279.739903 
L 634.569145 280.222886 
L 635.055924 282.108533 
L 635.899674 285.149895 
L 636.516261 286.571011 
L 637.143665 287.469909 
L 637.706165 288.051157 
L 637.7278 287.967675 
L 637.803521 288.108553 
L 637.933328 288.476918 
L 637.987415 288.299937 
L 638.019867 288.127177 
L 638.117223 286.692289 
L 638.420107 282.139111 
L 638.668906 281.01172 
L 638.809531 280.960511 
L 638.820348 280.968676 
L 638.982608 281.244976 
L 639.317944 282.363642 
L 640.085973 285.311663 
L 640.129242 285.127807 
L 640.150877 285.155601 
L 640.215781 284.784738 
L 640.497031 283.506918 
L 640.659291 283.383351 
L 640.670108 283.389003 
L 640.832368 283.627915 
L 640.972993 283.788708 
L 640.994627 283.730602 
L 641.210974 283.341736 
L 641.351599 283.474948 
L 641.600397 284.123619 
L 643.125637 289.000942 
L 643.136455 288.925884 
L 643.27708 288.643497 
L 643.482609 288.365398 
L 643.634051 288.520408 
L 643.915301 289.233109 
L 643.95857 289.40015 
L 644.012657 289.340641 
L 644.077561 287.032083 
L 644.412897 276.022426 
L 644.759051 271.443735 
L 644.986215 270.703705 
L 645.105205 270.755155 
L 645.2891 271.201127 
L 645.678523 272.881902 
L 646.792706 277.79177 
L 647.366023 279.468718 
L 647.376841 279.447241 
L 647.387658 279.41162 
L 647.441744 279.562238 
L 648.14487 282.043021 
L 648.858812 283.795187 
L 651.141265 288.020909 
L 651.757851 288.536348 
L 652.320351 288.80015 
L 652.331169 288.754147 
L 652.374438 288.549421 
L 652.439342 288.741268 
L 653.81314 292.713765 
L 654.884054 294.513204 
L 654.916506 294.390527 
L 654.98141 294.53231 
L 655.749439 296.466988 
L 656.701362 298.070389 
L 657.339584 298.534088 
L 657.804728 298.735782 
L 658.204968 298.744349 
L 658.259055 298.546206 
L 658.323959 298.685723 
L 659.113622 300.403073 
L 659.589584 300.940709 
L 660.022277 301.148982 
L 660.076363 301.082782 
L 660.13045 301.160155 
L 660.606411 301.942295 
L 660.660498 301.814887 
L 660.747036 300.81603 
L 660.887661 291.160898 
L 661.222998 272.51187 
L 661.5367 265.546677 
L 661.796315 263.70698 
L 661.936941 263.546863 
L 661.958575 263.558303 
L 662.0992 263.811578 
L 662.369633 264.883663 
L 665.149682 277.937607 
L 665.809538 279.621822 
L 665.885259 279.752093 
L 666.545115 281.269844 
L 667.399682 282.619475 
L 668.146077 283.401459 
L 668.903289 283.967779 
L 668.924923 283.75392 
L 668.968192 283.820281 
L 669.271077 283.945343 
L 669.898481 286.179412 
L 669.995837 285.904195 
L 670.093193 283.39883 
L 670.428529 273.288637 
L 670.525885 271.857643 
L 670.525885 271.857643 
" clip-path="url(#p7df41e0e47)" style="fill: none; stroke: #ff7f0e; stroke-width: 1.5; stroke-linecap: square"/>
   </g>
   <g id="patch_3">
    <path d="M 48.029688 327.558125 
L 48.029688 22.318125 
" style="fill: none; stroke: #000000; stroke-width: 0.8; stroke-linejoin: miter; stroke-linecap: square"/>
   </g>
   <g id="patch_4">
    <path d="M 700.168561 327.558125 
L 700.168561 22.318125 
" style="fill: none; stroke: #000000; stroke-width: 0.8; stroke-linejoin: miter; stroke-linecap: square"/>
   </g>
   <g id="patch_5">
    <path d="M 48.029687 327.558125 
L 700.168561 327.558125 
" style="fill: none; stroke: #000000; stroke-width: 0.8; stroke-linejoin: miter; stroke-linecap: square"/>
   </g>
   <g id="patch_6">
    <path d="M 48.029687 22.318125 
L 700.168561 22.318125 
" style="fill: none; stroke: #000000; stroke-width: 0.8; stroke-linejoin: miter; stroke-linecap: square"/>
   </g>
   <g id="text_17">
    <!-- training -->
    <g transform="translate(350.855687 16.318125) scale(0.12 -0.12)">
     <defs>
      <path id="DejaVuSans-74" d="M 1172 4494 
L 1172 3500 
L 2356 3500 
L 2356 3053 
L 1172 3053 
L 1172 1153 
Q 1172 725 1289 603 
Q 1406 481 1766 481 
L 2356 481 
L 2356 0 
L 1766 0 
Q 1100 0 847 248 
Q 594 497 594 1153 
L 594 3053 
L 172 3053 
L 172 3500 
L 594 3500 
L 594 4494 
L 1172 4494 
z
" transform="scale(0.015625)"/>
      <path id="DejaVuSans-72" d="M 2631 2963 
Q 2534 3019 2420 3045 
Q 2306 3072 2169 3072 
Q 1681 3072 1420 2755 
Q 1159 2438 1159 1844 
L 1159 0 
L 581 0 
L 581 3500 
L 1159 3500 
L 1159 2956 
Q 1341 3275 1631 3429 
Q 1922 3584 2338 3584 
Q 2397 3584 2469 3576 
Q 2541 3569 2628 3553 
L 2631 2963 
z
" transform="scale(0.015625)"/>
      <path id="DejaVuSans-61" d="M 2194 1759 
Q 1497 1759 1228 1600 
Q 959 1441 959 1056 
Q 959 750 1161 570 
Q 1363 391 1709 391 
Q 2188 391 2477 730 
Q 2766 1069 2766 1631 
L 2766 1759 
L 2194 1759 
z
M 3341 1997 
L 3341 0 
L 2766 0 
L 2766 531 
Q 2569 213 2275 61 
Q 1981 -91 1556 -91 
Q 1019 -91 701 211 
Q 384 513 384 1019 
Q 384 1609 779 1909 
Q 1175 2209 1959 2209 
L 2766 2209 
L 2766 2266 
Q 2766 2663 2505 2880 
Q 2244 3097 1772 3097 
Q 1472 3097 1187 3025 
Q 903 2953 641 2809 
L 641 3341 
Q 956 3463 1253 3523 
Q 1550 3584 1831 3584 
Q 2591 3584 2966 3190 
Q 3341 2797 3341 1997 
z
" transform="scale(0.015625)"/>
      <path id="DejaVuSans-69" d="M 603 3500 
L 1178 3500 
L 1178 0 
L 603 0 
L 603 3500 
z
M 603 4863 
L 1178 4863 
L 1178 4134 
L 603 4134 
L 603 4863 
z
" transform="scale(0.015625)"/>
      <path id="DejaVuSans-6e" d="M 3513 2113 
L 3513 0 
L 2938 0 
L 2938 2094 
Q 2938 2591 2744 2837 
Q 2550 3084 2163 3084 
Q 1697 3084 1428 2787 
Q 1159 2491 1159 1978 
L 1159 0 
L 581 0 
L 581 3500 
L 1159 3500 
L 1159 2956 
Q 1366 3272 1645 3428 
Q 1925 3584 2291 3584 
Q 2894 3584 3203 3211 
Q 3513 2838 3513 2113 
z
" transform="scale(0.015625)"/>
      <path id="DejaVuSans-67" d="M 2906 1791 
Q 2906 2416 2648 2759 
Q 2391 3103 1925 3103 
Q 1463 3103 1205 2759 
Q 947 2416 947 1791 
Q 947 1169 1205 825 
Q 1463 481 1925 481 
Q 2391 481 2648 825 
Q 2906 1169 2906 1791 
z
M 3481 434 
Q 3481 -459 3084 -895 
Q 2688 -1331 1869 -1331 
Q 1566 -1331 1297 -1286 
Q 1028 -1241 775 -1147 
L 775 -588 
Q 1028 -725 1275 -790 
Q 1522 -856 1778 -856 
Q 2344 -856 2625 -561 
Q 2906 -266 2906 331 
L 2906 616 
Q 2728 306 2450 153 
Q 2172 0 1784 0 
Q 1141 0 747 490 
Q 353 981 353 1791 
Q 353 2603 747 3093 
Q 1141 3584 1784 3584 
Q 2172 3584 2450 3431 
Q 2728 3278 2906 2969 
L 2906 3500 
L 3481 3500 
L 3481 434 
z
" transform="scale(0.015625)"/>
     </defs>
     <use xlink:href="#DejaVuSans-74"/>
     <use xlink:href="#DejaVuSans-72" x="39.208984"/>
     <use xlink:href="#DejaVuSans-61" x="80.322266"/>
     <use xlink:href="#DejaVuSans-69" x="141.601562"/>
     <use xlink:href="#DejaVuSans-6e" x="169.384766"/>
     <use xlink:href="#DejaVuSans-69" x="232.763672"/>
     <use xlink:href="#DejaVuSans-6e" x="260.546875"/>
     <use xlink:href="#DejaVuSans-67" x="323.925781"/>
    </g>
   </g>
   <g id="legend_1">
    <g id="patch_7">
     <path d="M 611.774811 59.674375 
L 693.168561 59.674375 
Q 695.168561 59.674375 695.168561 57.674375 
L 695.168561 29.318125 
Q 695.168561 27.318125 693.168561 27.318125 
L 611.774811 27.318125 
Q 609.774811 27.318125 609.774811 29.318125 
L 609.774811 57.674375 
Q 609.774811 59.674375 611.774811 59.674375 
z
" style="fill: #ffffff; opacity: 0.8; stroke: #cccccc; stroke-linejoin: miter"/>
    </g>
    <g id="line2d_19">
     <path d="M 613.774811 35.416562 
L 623.774811 35.416562 
L 633.774811 35.416562 
" style="fill: none; stroke: #1f77b4; stroke-width: 1.5; stroke-linecap: square"/>
    </g>
    <g id="text_18">
     <!-- observed -->
     <g transform="translate(641.774811 38.916562) scale(0.1 -0.1)">
      <defs>
       <path id="DejaVuSans-6f" d="M 1959 3097 
Q 1497 3097 1228 2736 
Q 959 2375 959 1747 
Q 959 1119 1226 758 
Q 1494 397 1959 397 
Q 2419 397 2687 759 
Q 2956 1122 2956 1747 
Q 2956 2369 2687 2733 
Q 2419 3097 1959 3097 
z
M 1959 3584 
Q 2709 3584 3137 3096 
Q 3566 2609 3566 1747 
Q 3566 888 3137 398 
Q 2709 -91 1959 -91 
Q 1206 -91 779 398 
Q 353 888 353 1747 
Q 353 2609 779 3096 
Q 1206 3584 1959 3584 
z
" transform="scale(0.015625)"/>
       <path id="DejaVuSans-62" d="M 3116 1747 
Q 3116 2381 2855 2742 
Q 2594 3103 2138 3103 
Q 1681 3103 1420 2742 
Q 1159 2381 1159 1747 
Q 1159 1113 1420 752 
Q 1681 391 2138 391 
Q 2594 391 2855 752 
Q 3116 1113 3116 1747 
z
M 1159 2969 
Q 1341 3281 1617 3432 
Q 1894 3584 2278 3584 
Q 2916 3584 3314 3078 
Q 3713 2572 3713 1747 
Q 3713 922 3314 415 
Q 2916 -91 2278 -91 
Q 1894 -91 1617 61 
Q 1341 213 1159 525 
L 1159 0 
L 581 0 
L 581 4863 
L 1159 4863 
L 1159 2969 
z
" transform="scale(0.015625)"/>
       <path id="DejaVuSans-73" d="M 2834 3397 
L 2834 2853 
Q 2591 2978 2328 3040 
Q 2066 3103 1784 3103 
Q 1356 3103 1142 2972 
Q 928 2841 928 2578 
Q 928 2378 1081 2264 
Q 1234 2150 1697 2047 
L 1894 2003 
Q 2506 1872 2764 1633 
Q 3022 1394 3022 966 
Q 3022 478 2636 193 
Q 2250 -91 1575 -91 
Q 1294 -91 989 -36 
Q 684 19 347 128 
L 347 722 
Q 666 556 975 473 
Q 1284 391 1588 391 
Q 1994 391 2212 530 
Q 2431 669 2431 922 
Q 2431 1156 2273 1281 
Q 2116 1406 1581 1522 
L 1381 1569 
Q 847 1681 609 1914 
Q 372 2147 372 2553 
Q 372 3047 722 3315 
Q 1072 3584 1716 3584 
Q 2034 3584 2315 3537 
Q 2597 3491 2834 3397 
z
" transform="scale(0.015625)"/>
       <path id="DejaVuSans-65" d="M 3597 1894 
L 3597 1613 
L 953 1613 
Q 991 1019 1311 708 
Q 1631 397 2203 397 
Q 2534 397 2845 478 
Q 3156 559 3463 722 
L 3463 178 
Q 3153 47 2828 -22 
Q 2503 -91 2169 -91 
Q 1331 -91 842 396 
Q 353 884 353 1716 
Q 353 2575 817 3079 
Q 1281 3584 2069 3584 
Q 2775 3584 3186 3129 
Q 3597 2675 3597 1894 
z
M 3022 2063 
Q 3016 2534 2758 2815 
Q 2500 3097 2075 3097 
Q 1594 3097 1305 2825 
Q 1016 2553 972 2059 
L 3022 2063 
z
" transform="scale(0.015625)"/>
       <path id="DejaVuSans-76" d="M 191 3500 
L 800 3500 
L 1894 563 
L 2988 3500 
L 3597 3500 
L 2284 0 
L 1503 0 
L 191 3500 
z
" transform="scale(0.015625)"/>
       <path id="DejaVuSans-64" d="M 2906 2969 
L 2906 4863 
L 3481 4863 
L 3481 0 
L 2906 0 
L 2906 525 
Q 2725 213 2448 61 
Q 2172 -91 1784 -91 
Q 1150 -91 751 415 
Q 353 922 353 1747 
Q 353 2572 751 3078 
Q 1150 3584 1784 3584 
Q 2172 3584 2448 3432 
Q 2725 3281 2906 2969 
z
M 947 1747 
Q 947 1113 1208 752 
Q 1469 391 1925 391 
Q 2381 391 2643 752 
Q 2906 1113 2906 1747 
Q 2906 2381 2643 2742 
Q 2381 3103 1925 3103 
Q 1469 3103 1208 2742 
Q 947 2381 947 1747 
z
" transform="scale(0.015625)"/>
      </defs>
      <use xlink:href="#DejaVuSans-6f"/>
      <use xlink:href="#DejaVuSans-62" x="61.181641"/>
      <use xlink:href="#DejaVuSans-73" x="124.658203"/>
      <use xlink:href="#DejaVuSans-65" x="176.757812"/>
      <use xlink:href="#DejaVuSans-72" x="238.28125"/>
      <use xlink:href="#DejaVuSans-76" x="279.394531"/>
      <use xlink:href="#DejaVuSans-65" x="338.574219"/>
      <use xlink:href="#DejaVuSans-64" x="400.097656"/>
     </g>
    </g>
    <g id="line2d_20">
     <path d="M 613.774811 50.094688 
L 623.774811 50.094688 
L 633.774811 50.094688 
" style="fill: none; stroke: #ff7f0e; stroke-width: 1.5; stroke-linecap: square"/>
    </g>
    <g id="text_19">
     <!-- simulated -->
     <g transform="translate(641.774811 53.594688) scale(0.1 -0.1)">
      <defs>
       <path id="DejaVuSans-6d" d="M 3328 2828 
Q 3544 3216 3844 3400 
Q 4144 3584 4550 3584 
Q 5097 3584 5394 3201 
Q 5691 2819 5691 2113 
L 5691 0 
L 5113 0 
L 5113 2094 
Q 5113 2597 4934 2840 
Q 4756 3084 4391 3084 
Q 3944 3084 3684 2787 
Q 3425 2491 3425 1978 
L 3425 0 
L 2847 0 
L 2847 2094 
Q 2847 2600 2669 2842 
Q 2491 3084 2119 3084 
Q 1678 3084 1418 2786 
Q 1159 2488 1159 1978 
L 1159 0 
L 581 0 
L 581 3500 
L 1159 3500 
L 1159 2956 
Q 1356 3278 1631 3431 
Q 1906 3584 2284 3584 
Q 2666 3584 2933 3390 
Q 3200 3197 3328 2828 
z
" transform="scale(0.015625)"/>
       <path id="DejaVuSans-75" d="M 544 1381 
L 544 3500 
L 1119 3500 
L 1119 1403 
Q 1119 906 1312 657 
Q 1506 409 1894 409 
Q 2359 409 2629 706 
Q 2900 1003 2900 1516 
L 2900 3500 
L 3475 3500 
L 3475 0 
L 2900 0 
L 2900 538 
Q 2691 219 2414 64 
Q 2138 -91 1772 -91 
Q 1169 -91 856 284 
Q 544 659 544 1381 
z
M 1991 3584 
L 1991 3584 
z
" transform="scale(0.015625)"/>
       <path id="DejaVuSans-6c" d="M 603 4863 
L 1178 4863 
L 1178 0 
L 603 0 
L 603 4863 
z
" transform="scale(0.015625)"/>
      </defs>
      <use xlink:href="#DejaVuSans-73"/>
      <use xlink:href="#DejaVuSans-69" x="52.099609"/>
      <use xlink:href="#DejaVuSans-6d" x="79.882812"/>
      <use xlink:href="#DejaVuSans-75" x="177.294922"/>
      <use xlink:href="#DejaVuSans-6c" x="240.673828"/>
      <use xlink:href="#DejaVuSans-61" x="268.457031"/>
      <use xlink:href="#DejaVuSans-74" x="329.736328"/>
      <use xlink:href="#DejaVuSans-65" x="368.945312"/>
      <use xlink:href="#DejaVuSans-64" x="430.46875"/>
     </g>
    </g>
   </g>
  </g>
 </g>
 <defs>
  <clipPath id="p7df41e0e47">
   <rect x="48.029688" y="22.318125" width="652.138874" height="305.24"/>
  </clipPath>
 </defs>
</svg>
