<?xml version="1.0" encoding="utf-8" standalone="no"?>
<!DOCTYPE svg PUBLIC "-//W3C//DTD SVG 1.1//EN"
  "http://www.w3.org/Graphics/SVG/1.1/DTD/svg11.dtd">
<svg xmlns:xlink="http://www.w3.org/1999/xlink" width="710.437011pt" height="351.43625pt" viewBox="0 0 710.437011 351.43625" xmlns="http://www.w3.org/2000/svg" version="1.1">
 <metadata>
  <rdf:RDF xmlns:dc="http://purl.org/dc/elements/1.1/" xmlns:cc="http://creativecommons.org/ns#" xmlns:rdf="http://www.w3.org/1999/02/22-rdf-syntax-ns#">
   <cc:Work>
    <dc:type rdf:resource="http://purl.org/dc/dcmitype/StillImage"/>
    <dc:date>2024-05-10T00:35:18.263174</dc:date>
    <dc:format>image/svg+xml</dc:format>
    <dc:creator>
     <cc:Agent>
      <dc:title>Matplotlib v3.8.4, https://matplotlib.org/</dc:title>
     </cc:Agent>
    </dc:creator>
   </cc:Work>
  </rdf:RDF>
 </metadata>
 <defs>
  <style type="text/css">*{stroke-linejoin: round; stroke-linecap: butt}</style>
 </defs>
 <g id="figure_1">
  <g id="patch_1">
   <path d="M 0 351.43625 
L 710.437011 351.43625 
L 710.437011 0 
L 0 0 
z
" style="fill: #ffffff"/>
  </g>
  <g id="axes_1">
   <g id="patch_2">
    <path d="M 39.65 327.558125 
L 700.129833 327.558125 
L 700.129833 22.318125 
L 39.65 22.318125 
z
" style="fill: #ffffff"/>
   </g>
   <g id="matplotlib.axis_1">
    <g id="xtick_1">
     <g id="line2d_1">
      <defs>
       <path id="m3eaf9479f4" d="M 0 0 
L 0 3.5 
" style="stroke: #000000; stroke-width: 0.8"/>
      </defs>
      <g>
       <use xlink:href="#m3eaf9479f4" x="63.155695" y="327.558125" style="stroke: #000000; stroke-width: 0.8"/>
      </g>
     </g>
     <g id="text_1">
      <!-- 2018-07 -->
      <g transform="translate(42.264289 342.156563) scale(0.1 -0.1)">
       <defs>
        <path id="DejaVuSans-32" d="M 1228 531 
L 3431 531 
L 3431 0 
L 469 0 
L 469 531 
Q 828 903 1448 1529 
Q 2069 2156 2228 2338 
Q 2531 2678 2651 2914 
Q 2772 3150 2772 3378 
Q 2772 3750 2511 3984 
Q 2250 4219 1831 4219 
Q 1534 4219 1204 4116 
Q 875 4013 500 3803 
L 500 4441 
Q 881 4594 1212 4672 
Q 1544 4750 1819 4750 
Q 2544 4750 2975 4387 
Q 3406 4025 3406 3419 
Q 3406 3131 3298 2873 
Q 3191 2616 2906 2266 
Q 2828 2175 2409 1742 
Q 1991 1309 1228 531 
z
" transform="scale(0.015625)"/>
        <path id="DejaVuSans-30" d="M 2034 4250 
Q 1547 4250 1301 3770 
Q 1056 3291 1056 2328 
Q 1056 1369 1301 889 
Q 1547 409 2034 409 
Q 2525 409 2770 889 
Q 3016 1369 3016 2328 
Q 3016 3291 2770 3770 
Q 2525 4250 2034 4250 
z
M 2034 4750 
Q 2819 4750 3233 4129 
Q 3647 3509 3647 2328 
Q 3647 1150 3233 529 
Q 2819 -91 2034 -91 
Q 1250 -91 836 529 
Q 422 1150 422 2328 
Q 422 3509 836 4129 
Q 1250 4750 2034 4750 
z
" transform="scale(0.015625)"/>
        <path id="DejaVuSans-31" d="M 794 531 
L 1825 531 
L 1825 4091 
L 703 3866 
L 703 4441 
L 1819 4666 
L 2450 4666 
L 2450 531 
L 3481 531 
L 3481 0 
L 794 0 
L 794 531 
z
" transform="scale(0.015625)"/>
        <path id="DejaVuSans-38" d="M 2034 2216 
Q 1584 2216 1326 1975 
Q 1069 1734 1069 1313 
Q 1069 891 1326 650 
Q 1584 409 2034 409 
Q 2484 409 2743 651 
Q 3003 894 3003 1313 
Q 3003 1734 2745 1975 
Q 2488 2216 2034 2216 
z
M 1403 2484 
Q 997 2584 770 2862 
Q 544 3141 544 3541 
Q 544 4100 942 4425 
Q 1341 4750 2034 4750 
Q 2731 4750 3128 4425 
Q 3525 4100 3525 3541 
Q 3525 3141 3298 2862 
Q 3072 2584 2669 2484 
Q 3125 2378 3379 2068 
Q 3634 1759 3634 1313 
Q 3634 634 3220 271 
Q 2806 -91 2034 -91 
Q 1263 -91 848 271 
Q 434 634 434 1313 
Q 434 1759 690 2068 
Q 947 2378 1403 2484 
z
M 1172 3481 
Q 1172 3119 1398 2916 
Q 1625 2713 2034 2713 
Q 2441 2713 2670 2916 
Q 2900 3119 2900 3481 
Q 2900 3844 2670 4047 
Q 2441 4250 2034 4250 
Q 1625 4250 1398 4047 
Q 1172 3844 1172 3481 
z
" transform="scale(0.015625)"/>
        <path id="DejaVuSans-2d" d="M 313 2009 
L 1997 2009 
L 1997 1497 
L 313 1497 
L 313 2009 
z
" transform="scale(0.015625)"/>
        <path id="DejaVuSans-37" d="M 525 4666 
L 3525 4666 
L 3525 4397 
L 1831 0 
L 1172 0 
L 2766 4134 
L 525 4134 
L 525 4666 
z
" transform="scale(0.015625)"/>
       </defs>
       <use xlink:href="#DejaVuSans-32"/>
       <use xlink:href="#DejaVuSans-30" x="63.623047"/>
       <use xlink:href="#DejaVuSans-31" x="127.246094"/>
       <use xlink:href="#DejaVuSans-38" x="190.869141"/>
       <use xlink:href="#DejaVuSans-2d" x="254.492188"/>
       <use xlink:href="#DejaVuSans-30" x="290.576172"/>
       <use xlink:href="#DejaVuSans-37" x="354.199219"/>
      </g>
     </g>
    </g>
    <g id="xtick_2">
     <g id="line2d_2">
      <g>
       <use xlink:href="#m3eaf9479f4" x="141.137176" y="327.558125" style="stroke: #000000; stroke-width: 0.8"/>
      </g>
     </g>
     <g id="text_2">
      <!-- 2019-01 -->
      <g transform="translate(120.24577 342.156563) scale(0.1 -0.1)">
       <defs>
        <path id="DejaVuSans-39" d="M 703 97 
L 703 672 
Q 941 559 1184 500 
Q 1428 441 1663 441 
Q 2288 441 2617 861 
Q 2947 1281 2994 2138 
Q 2813 1869 2534 1725 
Q 2256 1581 1919 1581 
Q 1219 1581 811 2004 
Q 403 2428 403 3163 
Q 403 3881 828 4315 
Q 1253 4750 1959 4750 
Q 2769 4750 3195 4129 
Q 3622 3509 3622 2328 
Q 3622 1225 3098 567 
Q 2575 -91 1691 -91 
Q 1453 -91 1209 -44 
Q 966 3 703 97 
z
M 1959 2075 
Q 2384 2075 2632 2365 
Q 2881 2656 2881 3163 
Q 2881 3666 2632 3958 
Q 2384 4250 1959 4250 
Q 1534 4250 1286 3958 
Q 1038 3666 1038 3163 
Q 1038 2656 1286 2365 
Q 1534 2075 1959 2075 
z
" transform="scale(0.015625)"/>
       </defs>
       <use xlink:href="#DejaVuSans-32"/>
       <use xlink:href="#DejaVuSans-30" x="63.623047"/>
       <use xlink:href="#DejaVuSans-31" x="127.246094"/>
       <use xlink:href="#DejaVuSans-39" x="190.869141"/>
       <use xlink:href="#DejaVuSans-2d" x="254.492188"/>
       <use xlink:href="#DejaVuSans-30" x="290.576172"/>
       <use xlink:href="#DejaVuSans-31" x="354.199219"/>
      </g>
     </g>
    </g>
    <g id="xtick_3">
     <g id="line2d_3">
      <g>
       <use xlink:href="#m3eaf9479f4" x="217.847219" y="327.558125" style="stroke: #000000; stroke-width: 0.8"/>
      </g>
     </g>
     <g id="text_3">
      <!-- 2019-07 -->
      <g transform="translate(196.955813 342.156563) scale(0.1 -0.1)">
       <use xlink:href="#DejaVuSans-32"/>
       <use xlink:href="#DejaVuSans-30" x="63.623047"/>
       <use xlink:href="#DejaVuSans-31" x="127.246094"/>
       <use xlink:href="#DejaVuSans-39" x="190.869141"/>
       <use xlink:href="#DejaVuSans-2d" x="254.492188"/>
       <use xlink:href="#DejaVuSans-30" x="290.576172"/>
       <use xlink:href="#DejaVuSans-37" x="354.199219"/>
      </g>
     </g>
    </g>
    <g id="xtick_4">
     <g id="line2d_4">
      <g>
       <use xlink:href="#m3eaf9479f4" x="295.8287" y="327.558125" style="stroke: #000000; stroke-width: 0.8"/>
      </g>
     </g>
     <g id="text_4">
      <!-- 2020-01 -->
      <g transform="translate(274.937294 342.156563) scale(0.1 -0.1)">
       <use xlink:href="#DejaVuSans-32"/>
       <use xlink:href="#DejaVuSans-30" x="63.623047"/>
       <use xlink:href="#DejaVuSans-32" x="127.246094"/>
       <use xlink:href="#DejaVuSans-30" x="190.869141"/>
       <use xlink:href="#DejaVuSans-2d" x="254.492188"/>
       <use xlink:href="#DejaVuSans-30" x="290.576172"/>
       <use xlink:href="#DejaVuSans-31" x="354.199219"/>
      </g>
     </g>
    </g>
    <g id="xtick_5">
     <g id="line2d_5">
      <g>
       <use xlink:href="#m3eaf9479f4" x="372.962556" y="327.558125" style="stroke: #000000; stroke-width: 0.8"/>
      </g>
     </g>
     <g id="text_5">
      <!-- 2020-07 -->
      <g transform="translate(352.07115 342.156563) scale(0.1 -0.1)">
       <use xlink:href="#DejaVuSans-32"/>
       <use xlink:href="#DejaVuSans-30" x="63.623047"/>
       <use xlink:href="#DejaVuSans-32" x="127.246094"/>
       <use xlink:href="#DejaVuSans-30" x="190.869141"/>
       <use xlink:href="#DejaVuSans-2d" x="254.492188"/>
       <use xlink:href="#DejaVuSans-30" x="290.576172"/>
       <use xlink:href="#DejaVuSans-37" x="354.199219"/>
      </g>
     </g>
    </g>
    <g id="xtick_6">
     <g id="line2d_6">
      <g>
       <use xlink:href="#m3eaf9479f4" x="450.944037" y="327.558125" style="stroke: #000000; stroke-width: 0.8"/>
      </g>
     </g>
     <g id="text_6">
      <!-- 2021-01 -->
      <g transform="translate(430.052631 342.156563) scale(0.1 -0.1)">
       <use xlink:href="#DejaVuSans-32"/>
       <use xlink:href="#DejaVuSans-30" x="63.623047"/>
       <use xlink:href="#DejaVuSans-32" x="127.246094"/>
       <use xlink:href="#DejaVuSans-31" x="190.869141"/>
       <use xlink:href="#DejaVuSans-2d" x="254.492188"/>
       <use xlink:href="#DejaVuSans-30" x="290.576172"/>
       <use xlink:href="#DejaVuSans-31" x="354.199219"/>
      </g>
     </g>
    </g>
    <g id="xtick_7">
     <g id="line2d_7">
      <g>
       <use xlink:href="#m3eaf9479f4" x="527.654081" y="327.558125" style="stroke: #000000; stroke-width: 0.8"/>
      </g>
     </g>
     <g id="text_7">
      <!-- 2021-07 -->
      <g transform="translate(506.762674 342.156563) scale(0.1 -0.1)">
       <use xlink:href="#DejaVuSans-32"/>
       <use xlink:href="#DejaVuSans-30" x="63.623047"/>
       <use xlink:href="#DejaVuSans-32" x="127.246094"/>
       <use xlink:href="#DejaVuSans-31" x="190.869141"/>
       <use xlink:href="#DejaVuSans-2d" x="254.492188"/>
       <use xlink:href="#DejaVuSans-30" x="290.576172"/>
       <use xlink:href="#DejaVuSans-37" x="354.199219"/>
      </g>
     </g>
    </g>
    <g id="xtick_8">
     <g id="line2d_8">
      <g>
       <use xlink:href="#m3eaf9479f4" x="605.635561" y="327.558125" style="stroke: #000000; stroke-width: 0.8"/>
      </g>
     </g>
     <g id="text_8">
      <!-- 2022-01 -->
      <g transform="translate(584.744155 342.156563) scale(0.1 -0.1)">
       <use xlink:href="#DejaVuSans-32"/>
       <use xlink:href="#DejaVuSans-30" x="63.623047"/>
       <use xlink:href="#DejaVuSans-32" x="127.246094"/>
       <use xlink:href="#DejaVuSans-32" x="190.869141"/>
       <use xlink:href="#DejaVuSans-2d" x="254.492188"/>
       <use xlink:href="#DejaVuSans-30" x="290.576172"/>
       <use xlink:href="#DejaVuSans-31" x="354.199219"/>
      </g>
     </g>
    </g>
    <g id="xtick_9">
     <g id="line2d_9">
      <g>
       <use xlink:href="#m3eaf9479f4" x="682.345605" y="327.558125" style="stroke: #000000; stroke-width: 0.8"/>
      </g>
     </g>
     <g id="text_9">
      <!-- 2022-07 -->
      <g transform="translate(661.454199 342.156563) scale(0.1 -0.1)">
       <use xlink:href="#DejaVuSans-32"/>
       <use xlink:href="#DejaVuSans-30" x="63.623047"/>
       <use xlink:href="#DejaVuSans-32" x="127.246094"/>
       <use xlink:href="#DejaVuSans-32" x="190.869141"/>
       <use xlink:href="#DejaVuSans-2d" x="254.492188"/>
       <use xlink:href="#DejaVuSans-30" x="290.576172"/>
       <use xlink:href="#DejaVuSans-37" x="354.199219"/>
      </g>
     </g>
    </g>
   </g>
   <g id="matplotlib.axis_2">
    <g id="ytick_1">
     <g id="line2d_10">
      <defs>
       <path id="m4da508110e" d="M 0 0 
L -3.5 0 
" style="stroke: #000000; stroke-width: 0.8"/>
      </defs>
      <g>
       <use xlink:href="#m4da508110e" x="39.65" y="313.715838" style="stroke: #000000; stroke-width: 0.8"/>
      </g>
     </g>
     <g id="text_10">
      <!-- 0 -->
      <g transform="translate(26.2875 317.515057) scale(0.1 -0.1)">
       <use xlink:href="#DejaVuSans-30"/>
      </g>
     </g>
    </g>
    <g id="ytick_2">
     <g id="line2d_11">
      <g>
       <use xlink:href="#m4da508110e" x="39.65" y="258.096964" style="stroke: #000000; stroke-width: 0.8"/>
      </g>
     </g>
     <g id="text_11">
      <!-- 1000 -->
      <g transform="translate(7.2 261.896182) scale(0.1 -0.1)">
       <use xlink:href="#DejaVuSans-31"/>
       <use xlink:href="#DejaVuSans-30" x="63.623047"/>
       <use xlink:href="#DejaVuSans-30" x="127.246094"/>
       <use xlink:href="#DejaVuSans-30" x="190.869141"/>
      </g>
     </g>
    </g>
    <g id="ytick_3">
     <g id="line2d_12">
      <g>
       <use xlink:href="#m4da508110e" x="39.65" y="202.478089" style="stroke: #000000; stroke-width: 0.8"/>
      </g>
     </g>
     <g id="text_12">
      <!-- 2000 -->
      <g transform="translate(7.2 206.277308) scale(0.1 -0.1)">
       <use xlink:href="#DejaVuSans-32"/>
       <use xlink:href="#DejaVuSans-30" x="63.623047"/>
       <use xlink:href="#DejaVuSans-30" x="127.246094"/>
       <use xlink:href="#DejaVuSans-30" x="190.869141"/>
      </g>
     </g>
    </g>
    <g id="ytick_4">
     <g id="line2d_13">
      <g>
       <use xlink:href="#m4da508110e" x="39.65" y="146.859214" style="stroke: #000000; stroke-width: 0.8"/>
      </g>
     </g>
     <g id="text_13">
      <!-- 3000 -->
      <g transform="translate(7.2 150.658433) scale(0.1 -0.1)">
       <defs>
        <path id="DejaVuSans-33" d="M 2597 2516 
Q 3050 2419 3304 2112 
Q 3559 1806 3559 1356 
Q 3559 666 3084 287 
Q 2609 -91 1734 -91 
Q 1441 -91 1130 -33 
Q 819 25 488 141 
L 488 750 
Q 750 597 1062 519 
Q 1375 441 1716 441 
Q 2309 441 2620 675 
Q 2931 909 2931 1356 
Q 2931 1769 2642 2001 
Q 2353 2234 1838 2234 
L 1294 2234 
L 1294 2753 
L 1863 2753 
Q 2328 2753 2575 2939 
Q 2822 3125 2822 3475 
Q 2822 3834 2567 4026 
Q 2313 4219 1838 4219 
Q 1578 4219 1281 4162 
Q 984 4106 628 3988 
L 628 4550 
Q 988 4650 1302 4700 
Q 1616 4750 1894 4750 
Q 2613 4750 3031 4423 
Q 3450 4097 3450 3541 
Q 3450 3153 3228 2886 
Q 3006 2619 2597 2516 
z
" transform="scale(0.015625)"/>
       </defs>
       <use xlink:href="#DejaVuSans-33"/>
       <use xlink:href="#DejaVuSans-30" x="63.623047"/>
       <use xlink:href="#DejaVuSans-30" x="127.246094"/>
       <use xlink:href="#DejaVuSans-30" x="190.869141"/>
      </g>
     </g>
    </g>
    <g id="ytick_5">
     <g id="line2d_14">
      <g>
       <use xlink:href="#m4da508110e" x="39.65" y="91.240339" style="stroke: #000000; stroke-width: 0.8"/>
      </g>
     </g>
     <g id="text_14">
      <!-- 4000 -->
      <g transform="translate(7.2 95.039558) scale(0.1 -0.1)">
       <defs>
        <path id="DejaVuSans-34" d="M 2419 4116 
L 825 1625 
L 2419 1625 
L 2419 4116 
z
M 2253 4666 
L 3047 4666 
L 3047 1625 
L 3713 1625 
L 3713 1100 
L 3047 1100 
L 3047 0 
L 2419 0 
L 2419 1100 
L 313 1100 
L 313 1709 
L 2253 4666 
z
" transform="scale(0.015625)"/>
       </defs>
       <use xlink:href="#DejaVuSans-34"/>
       <use xlink:href="#DejaVuSans-30" x="63.623047"/>
       <use xlink:href="#DejaVuSans-30" x="127.246094"/>
       <use xlink:href="#DejaVuSans-30" x="190.869141"/>
      </g>
     </g>
    </g>
    <g id="ytick_6">
     <g id="line2d_15">
      <g>
       <use xlink:href="#m4da508110e" x="39.65" y="35.621465" style="stroke: #000000; stroke-width: 0.8"/>
      </g>
     </g>
     <g id="text_15">
      <!-- 5000 -->
      <g transform="translate(7.2 39.420683) scale(0.1 -0.1)">
       <defs>
        <path id="DejaVuSans-35" d="M 691 4666 
L 3169 4666 
L 3169 4134 
L 1269 4134 
L 1269 2991 
Q 1406 3038 1543 3061 
Q 1681 3084 1819 3084 
Q 2600 3084 3056 2656 
Q 3513 2228 3513 1497 
Q 3513 744 3044 326 
Q 2575 -91 1722 -91 
Q 1428 -91 1123 -41 
Q 819 9 494 109 
L 494 744 
Q 775 591 1075 516 
Q 1375 441 1709 441 
Q 2250 441 2565 725 
Q 2881 1009 2881 1497 
Q 2881 1984 2565 2268 
Q 2250 2553 1709 2553 
Q 1456 2553 1204 2497 
Q 953 2441 691 2322 
L 691 4666 
z
" transform="scale(0.015625)"/>
       </defs>
       <use xlink:href="#DejaVuSans-35"/>
       <use xlink:href="#DejaVuSans-30" x="63.623047"/>
       <use xlink:href="#DejaVuSans-30" x="127.246094"/>
       <use xlink:href="#DejaVuSans-30" x="190.869141"/>
      </g>
     </g>
    </g>
   </g>
   <g id="line2d_16">
    <path d="M 69.671811 312.546174 
L 69.98967 312.643507 
L 70.130941 312.662973 
L 70.236894 312.62404 
L 70.254553 312.65324 
L 70.643047 312.74084 
L 71.349401 312.952191 
L 71.631943 313.059258 
L 71.790873 313.052305 
L 71.932143 313.018934 
L 72.44425 313.120438 
L 72.585521 313.157981 
L 72.60318 313.141296 
L 73.539099 313.2428 
L 73.856958 313.3596 
L 74.1395 313.366552 
L 74.333747 313.380457 
L 74.59863 313.472228 
L 74.757559 313.529237 
L 74.987124 313.590974 
L 75.022442 313.68358 
L 75.093077 313.604045 
L 75.287325 313.558437 
L 75.499231 313.604045 
L 76.13495 313.509771 
L 76.27622 313.486133 
L 76.311538 313.419668 
L 76.329197 313.308152 
L 76.382174 313.441637 
L 76.417491 313.436076 
L 77.406387 313.352647 
L 77.477022 313.352647 
L 77.51234 313.380457 
L 77.883176 313.408266 
L 80.514344 313.515332 
L 80.637956 313.522285 
L 80.832204 313.436076 
L 81.220698 313.3304 
L 81.397287 311.602043 
L 81.80344 300.980229 
L 81.856417 301.744988 
L 81.997688 304.956978 
L 82.033005 303.733363 
L 82.085982 301.870131 
L 82.156617 302.982508 
L 82.439159 308.002111 
L 82.827654 310.628713 
L 83.216148 311.411549 
L 83.49869 311.728576 
L 83.622302 311.817566 
L 83.816549 311.951052 
L 83.922502 312.045604 
L 83.993138 312.117908 
L 84.063773 312.078975 
L 84.310997 312.156841 
L 84.469927 312.24027 
L 84.823104 312.347336 
L 85.282234 312.47804 
L 85.49414 312.468307 
L 85.741364 312.585107 
L 86.023906 312.692173 
L 86.271129 312.701906 
L 86.377083 312.508631 
L 86.430059 311.951052 
L 86.500694 312.147108 
L 86.694942 312.434936 
L 87.171731 312.74084 
L 87.542567 312.846515 
L 87.807449 312.985563 
L 88.213603 313.080115 
L 88.337215 313.080115 
L 88.443168 313.149638 
L 88.602098 313.380457 
L 88.72571 313.380457 
L 88.831663 313.352647 
L 88.919957 313.073162 
L 88.955275 313.080115 
L 89.061228 313.113486 
L 89.078887 313.0968 
L 89.255475 313.080115 
L 89.467381 313.174667 
L 89.555675 313.202476 
L 89.590993 313.174667 
L 89.838217 313.227505 
L 89.855876 313.292857 
L 89.94417 313.208038 
L 90.738818 313.269219 
L 90.756477 313.334571 
L 90.809454 313.315105 
L 90.950725 311.140406 
L 91.144972 295.446151 
L 91.18029 297.086907 
L 91.392196 304.178314 
L 91.692396 310.168467 
L 91.974938 311.494977 
L 92.133868 311.838423 
L 92.169185 310.516085 
L 92.239821 311.557548 
L 92.25748 311.661833 
L 92.292797 311.414329 
L 92.363433 307.459827 
L 92.540021 301.341751 
L 92.575339 302.120415 
L 92.85788 307.098305 
L 92.981492 308.377539 
L 92.999151 307.612779 
L 93.034469 287.840269 
L 93.193399 139.50473 
L 93.211057 150.211364 
L 93.422964 264.661103 
L 93.511258 276.021258 
L 93.564234 270.153467 
L 93.723164 241.426318 
L 93.776141 248.100583 
L 93.970388 269.986611 
L 94.076341 273.852122 
L 94.55313 295.626912 
L 94.923966 301.550322 
L 94.959284 301.758893 
L 94.994601 301.564227 
L 95.029919 300.688229 
L 95.082895 301.536417 
L 95.259484 302.982508 
L 95.400755 303.580411 
L 95.418414 303.552602 
L 95.542026 303.427459 
L 95.559684 303.455268 
L 95.753932 294.792629 
L 96.054132 254.913896 
L 96.071791 255.470084 
L 96.283697 266.135003 
L 96.371992 268.957661 
L 96.70751 287.562175 
L 96.813463 287.534366 
L 96.972392 290.440452 
L 97.272593 294.597963 
L 97.714064 298.046333 
L 97.784699 298.338332 
L 98.491053 302.009178 
L 98.632324 297.823857 
L 98.667642 296.781004 
L 98.720619 274.408311 
L 98.826572 237.950139 
L 98.861889 240.174894 
L 98.879548 241.565366 
L 98.914866 239.618705 
L 98.985501 204.578814 
L 99.091454 36.19267 
L 99.16209 88.474413 
L 99.426973 248.934866 
L 99.656538 268.429282 
L 99.992056 278.551917 
L 100.309915 284.238947 
L 101.122222 291.872638 
L 101.139881 291.844828 
L 101.175199 291.469401 
L 101.228175 292.23416 
L 101.493058 294.292059 
L 101.722623 295.042914 
L 101.740282 294.917771 
L 101.793258 295.265389 
L 101.899212 295.348817 
L 101.934529 295.293199 
L 102.111118 294.764819 
L 102.146435 294.806533 
L 102.181753 294.73701 
L 102.287706 294.681391 
L 102.852789 297.281573 
L 102.941084 297.239859 
L 102.976401 297.295478 
L 103.329578 298.240999 
L 103.541485 298.574712 
L 103.61212 298.630331 
L 103.788708 299.075282 
L 104.088909 299.673185 
L 104.247839 299.937375 
L 104.389109 300.132041 
L 104.459745 300.215469 
L 104.918875 300.743848 
L 105.007169 300.743848 
L 105.024828 300.910705 
L 105.130781 300.882896 
L 105.413323 301.13318 
L 105.519276 301.13318 
L 105.536935 301.286132 
L 105.589911 300.813372 
L 105.625229 300.799467 
L 105.7665 300.521373 
L 105.837135 300.507468 
L 105.854794 300.910705 
L 105.890112 299.534138 
L 105.996065 274.088503 
L 106.119677 249.073914 
L 106.172653 253.245329 
L 106.472854 284.642184 
L 106.737736 293.73587 
L 107.020278 296.97567 
L 107.338137 298.463474 
L 108.115127 299.881756 
L 108.238739 300.104231 
L 108.256397 299.951279 
L 108.309374 293.916631 
L 108.380009 296.44729 
L 108.733186 289.175122 
L 108.803822 290.2875 
L 109.068705 294.333773 
L 109.527835 297.92119 
L 109.669105 298.713759 
L 109.722082 298.560807 
L 109.89867 297.68481 
L 110.004624 296.197005 
L 110.163553 284.530946 
L 110.21653 282.347905 
L 110.269506 283.488092 
L 110.640342 294.055679 
L 110.905225 296.294338 
L 111.064155 296.68367 
L 111.540944 297.698715 
L 111.558602 297.670905 
L 111.59392 297.420621 
L 111.682214 297.44843 
L 111.717532 297.615287 
L 111.735191 297.462335 
L 111.876462 297.073003 
L 112.070709 297.059098 
L 112.159003 296.794908 
L 112.21198 296.808813 
L 112.229639 296.850527 
L 112.282615 296.697575 
L 112.441545 293.124062 
L 112.618133 288.104459 
L 112.777063 289.939882 
L 113.147899 293.874917 
L 113.465758 295.668626 
L 113.765959 296.71148 
L 114.154453 297.490144 
L 114.278065 297.657001 
L 114.295724 297.629191 
L 114.525289 298.129761 
L 114.595925 298.21319 
L 115.12569 298.852807 
L 115.231643 298.852807 
L 115.461208 299.269948 
L 115.620138 298.977949 
L 115.690773 299.103092 
L 115.920338 299.269948 
L 116.008633 299.242139 
L 115.955656 299.325567 
L 116.026291 299.269948 
L 116.273515 299.68709 
L 116.36181 299.756613 
L 116.556057 299.965184 
L 116.609033 300.048612 
L 116.785622 300.132041 
L 116.891575 300.18766 
L 117.015187 300.271088 
L 117.156458 300.298897 
L 117.597929 300.39623 
L 117.880471 300.521373 
L 117.898129 300.493563 
L 118.127694 300.42404 
L 118.180671 300.298897 
L 118.251306 300.354516 
L 118.427895 300.42404 
L 118.569166 300.688229 
L 118.728095 300.729944 
L 118.745754 300.8968 
L 118.781072 292.345398 
L 118.851707 271.043369 
L 118.904684 282.973618 
L 118.940002 286.964272 
L 118.975319 282.000288 
L 119.151908 223.489231 
L 119.222543 231.136827 
L 119.57572 287.742936 
L 119.822944 294.292059 
L 120.140803 296.794908 
L 120.317392 297.378906 
L 120.370368 297.559668 
L 121.518194 300.020803 
L 121.57117 300.076422 
L 121.7301 300.298897 
L 121.853712 300.298897 
L 121.994983 300.354516 
L 122.613042 300.702134 
L 122.736654 300.743848 
L 122.877925 300.827277 
L 123.001537 300.92461 
L 123.125149 300.952419 
L 123.319396 300.980229 
L 123.513644 300.966324 
L 123.619597 301.021943 
L 123.760868 301.188799 
L 123.990433 301.272228 
L 124.114045 301.355656 
L 124.520198 301.42518 
L 124.64381 301.466894 
L 124.926352 301.550322 
L 124.961669 301.522513 
L 125.067622 301.578131 
L 125.844612 301.675464 
L 126.409695 301.995273 
L 126.586284 301.911845 
L 126.674578 301.939654 
L 126.815849 302.078701 
L 128.493439 302.13432 
L 128.63471 302.245558 
L 128.705346 302.217749 
L 128.828957 302.13432 
L 128.899593 302.13432 
L 129.023205 302.245558 
L 129.482335 302.301177 
L 129.605947 302.342891 
L 129.800194 302.356796 
L 130.312301 302.412415 
L 130.435913 302.495843 
L 130.612501 302.412415 
L 130.78909 302.3707 
L 131.018655 300.8968 
L 131.195243 287.131129 
L 131.283538 278.357251 
L 131.336514 280.290007 
L 131.725009 293.874917 
L 131.989892 298.046333 
L 132.360727 300.145945 
L 132.819858 300.952419 
L 133.897047 301.856226 
L 133.950024 301.772798 
L 133.967683 301.689369 
L 134.003 301.800607 
L 134.038318 301.800607 
L 134.16193 301.856226 
L 134.250224 301.939654 
L 134.303201 302.092606 
L 134.373836 302.078701 
L 134.497448 302.078701 
L 134.815308 302.13432 
L 134.93892 302.217749 
L 135.009555 302.13432 
L 135.027214 302.189939 
L 135.062531 302.287272 
L 135.150826 302.245558 
L 135.203802 302.217749 
L 135.327414 302.13432 
L 135.504003 302.245558 
L 135.521662 302.171399 
L 135.609956 302.245558 
L 136.369286 302.315082 
L 136.404604 302.3707 
L 136.475239 302.301177 
L 136.545875 302.245558 
L 136.581193 302.301177 
L 137.269888 302.384605 
L 137.428817 302.468033 
L 137.499453 302.523652 
L 137.552429 302.412415 
L 137.640724 302.454129 
L 137.676041 302.440224 
L 138.806208 302.384605 
L 139.124067 301.466894 
L 139.141726 301.550322 
L 139.159385 301.216609 
L 139.282997 300.243278 
L 139.371291 292.845968 
L 139.441926 294.542344 
L 139.777444 299.909565 
L 140.007009 301.244418 
L 140.201257 301.856226 
L 140.324869 302.078701 
L 140.501457 302.287272 
L 140.660387 302.315082 
L 140.76634 302.287272 
L 140.872293 302.301177 
L 140.889952 302.259463 
L 141.137176 302.13432 
L 141.154835 302.16213 
L 141.331423 302.245558 
L 141.455035 302.13432 
L 141.508012 302.189939 
L 141.666941 302.356796 
L 141.737577 302.3707 
L 141.825871 302.551462 
L 141.84353 302.342891 
L 141.878847 302.454129 
L 141.931824 302.342891 
L 141.949483 302.412415 
L 142.002459 302.189939 
L 142.267342 300.354516 
L 142.426272 300.465754 
L 142.479248 300.368421 
L 142.549884 300.410135 
L 142.60286 300.410135 
L 142.620519 300.465754 
L 143.097308 301.63375 
L 143.185602 301.689369 
L 143.344532 301.939654 
L 143.697709 302.036987 
L 143.786003 302.078701 
L 143.821321 302.050892 
L 144.015568 301.870131 
L 144.033227 301.89794 
L 144.068545 301.911845 
L 144.192157 302.092606 
L 144.439381 302.189939 
L 144.527675 302.287272 
L 144.545334 302.259463 
L 144.651287 302.13432 
L 144.668946 302.16213 
L 144.827875 302.301177 
L 145.05744 302.356796 
L 145.21637 302.523652 
L 145.339982 302.412415 
L 145.622524 302.509748 
L 145.710818 302.579271 
L 145.728477 302.537557 
L 145.852089 301.355656 
L 145.869748 301.383465 
L 146.328878 301.911845 
L 146.505466 301.967464 
L 146.540784 301.939654 
L 146.664396 302.106511 
L 146.876302 302.13432 
L 146.893961 302.13432 
L 146.964596 302.356796 
L 147.017573 302.245558 
L 147.194161 302.342891 
L 148.094763 302.245558 
L 148.218375 302.078701 
L 148.341987 302.023082 
L 148.500916 301.800607 
L 148.536234 301.744988 
L 148.730481 301.466894 
L 148.871752 301.383465 
L 148.90707 301.035847 
L 149.013023 301.244418 
L 149.030682 301.272228 
L 149.048341 301.216609 
L 149.101317 301.202704 
L 149.118976 301.077562 
L 149.20727 301.188799 
L 149.330882 301.105371 
L 149.913624 298.463474 
L 149.966601 298.505189 
L 150.072554 298.574712 
L 150.090213 298.546903 
L 150.107872 298.574712 
L 150.160848 298.463474 
L 150.708272 298.519093 
L 150.725931 298.574712 
L 150.761249 298.463474 
L 150.814226 298.491284 
L 150.955496 298.44957 
L 151.026132 298.407856 
L 151.043791 298.380046 
L 151.308673 297.629191 
L 151.573556 298.129761 
L 151.608874 298.21319 
L 151.856098 298.407856 
L 152.103322 298.491284 
L 152.27991 298.574712 
L 152.332887 298.658141 
L 152.456499 297.962905 
L 152.474157 297.990714 
L 152.650746 298.296618 
L 152.89797 298.240999 
L 153.003923 298.129761 
L 153.039241 298.157571 
L 153.092217 298.088047 
L 153.180511 298.157571 
L 153.321782 298.088047 
L 153.339441 298.111222 
L 153.621983 298.240999 
L 153.639641 298.157571 
L 153.81623 297.962905 
L 153.851548 297.990714 
L 154.063454 298.463474 
L 154.293019 298.824997 
L 154.540243 299.019663 
L 154.593219 299.019663 
L 154.716831 299.144806 
L 154.911079 299.103092 
L 155.052349 299.130901 
L 155.688068 299.047473 
L 155.829339 299.019663 
L 156.376763 299.103092 
L 156.465057 299.130901 
L 156.412081 299.075282 
L 156.482716 299.075282 
L 157.153753 299.144806 
L 157.348 299.353376 
L 157.577565 299.436805 
L 157.683518 299.520233 
L 157.701177 299.492424 
L 157.860107 299.242139 
L 157.948401 299.325567 
L 158.283919 299.68709 
L 158.301578 299.603661 
L 158.389872 299.714899 
L 158.513484 299.798327 
L 158.584119 299.881756 
L 158.619437 299.798327 
L 158.690073 299.728804 
L 158.88432 299.520233 
L 159.113885 299.68709 
L 159.290473 299.784423 
L 159.678968 300.18766 
L 159.731945 299.756613 
L 159.784921 300.006898 
L 160.773817 300.66042 
L 160.809135 300.632611 
L 160.844452 300.743848 
L 161.074017 300.827277 
L 161.215288 300.855086 
L 161.391877 300.855086 
L 161.444853 300.882896 
L 161.586124 301.021943 
L 161.833348 301.105371 
L 161.95696 301.230513 
L 162.115889 301.216609 
L 162.292478 301.300037 
L 162.380772 301.355656 
L 162.522043 301.466894 
L 163.616892 302.189939 
L 163.970069 302.273367 
L 164.111339 302.426319 
L 164.482175 302.579271 
L 164.552811 302.579271 
L 164.676423 302.468033 
L 164.835352 302.523652 
L 164.958964 302.676604 
L 165.17087 302.746128 
L 165.3298 302.885175 
L 165.435753 302.885175 
L 165.78893 303.246698 
L 166.124448 303.149365 
L 166.24806 303.163269 
L 166.389331 303.191079 
L 167.113344 303.288412 
L 167.307591 303.39965 
L 167.32525 303.330126 
L 167.342909 303.316221 
L 167.466521 303.469173 
L 168.278828 303.552602 
L 168.437758 303.63603 
L 168.543711 303.63603 
L 168.720299 303.858505 
L 169.93876 303.955838 
L 170.133007 303.969743 
L 170.168325 304.025362 
L 170.256619 304.080981 
L 170.221301 303.969743 
L 170.274278 304.025362 
L 171.086585 304.025362 
L 171.15722 304.1366 
L 171.192538 304.011457 
L 171.333809 303.969743 
L 171.898892 304.053171 
L 172.057822 304.192219 
L 172.410999 304.275647 
L 172.587587 304.359075 
L 172.728858 304.414694 
L 172.870129 304.539837 
L 174.777285 304.63717 
L 174.900897 304.859645 
L 175.183438 305.84688 
L 175.607251 306.58383 
L 175.695545 306.639449 
L 175.872133 306.861925 
L 176.08404 306.917543 
L 176.22531 307.028781 
L 176.525511 307.098305 
L 176.631464 307.140019 
L 176.649123 307.126114 
L 176.790394 307.140019 
L 177.019959 307.251257 
L 177.090594 306.180593 
L 177.196547 306.542116 
L 177.479089 307.070495 
L 178.397349 307.668398 
L 178.53862 307.696208 
L 178.785844 307.779636 
L 178.891797 307.932588 
L 178.909456 307.82135 
L 178.944773 307.974302 
L 178.99775 307.876969 
L 179.191997 307.974302 
L 179.227315 308.05773 
L 179.29795 307.974302 
L 179.474539 307.974302 
L 181.346377 307.876969 
L 181.434671 307.918683 
L 181.540624 307.960397 
L 181.558283 307.932588 
L 181.734872 307.918683 
L 181.929119 307.974302 
L 181.946778 307.946493 
L 181.999754 307.918683 
L 182.017413 308.071635 
L 182.07039 307.696208 
L 182.176343 305.777356 
L 182.246978 305.985927 
L 182.299955 305.596595 
L 182.441226 304.859645 
L 182.52952 304.915264 
L 182.688449 306.180593 
L 182.865038 306.778496 
L 183.271191 307.473732 
L 184.36604 308.196778 
L 185.054735 308.099445 
L 185.231324 308.099445 
L 185.354936 308.141159 
L 185.531524 308.029921 
L 185.690454 308.141159 
L 185.937678 308.210682 
L 186.06129 308.252396 
L 186.573396 308.308015 
L 186.873597 305.860785 
L 186.908915 305.944213 
L 187.156138 306.806306 
L 187.27975 307.167828 
L 187.368045 307.362494 
L 187.403362 307.306876 
L 187.685904 306.472592 
L 187.756539 306.528211 
L 187.844834 306.430878 
L 188.145034 306.250117 
L 188.180352 306.305736 
L 188.286305 306.208403 
L 188.51587 306.08326 
L 188.551188 306.138879 
L 188.851388 306.055451 
L 189.063294 305.916404 
L 189.292859 305.958118 
L 189.43413 305.540976 
L 189.769648 305.137739 
L 189.963896 304.706693 
L 190.193461 304.595455 
L 190.211119 304.63717 
L 190.493661 305.193358 
L 190.67025 305.290691 
L 191.217674 305.58269 
L 191.606169 305.666119 
L 191.641486 305.749547 
L 191.712122 305.638309 
L 192.312523 305.693928 
L 192.542088 306.055451 
L 192.789312 306.250117 
L 192.912923 306.305736 
L 193.018877 306.58383 
L 193.142489 305.888594 
L 193.2661 304.442504 
L 193.407371 297.949 
L 193.566301 284.850755 
L 193.619277 288.410363 
L 193.813525 299.548043 
L 194.078408 301.870131 
L 194.307973 303.246698 
L 194.325631 303.218888 
L 194.378608 303.246698 
L 194.413926 303.483078 
L 194.50222 303.469173 
L 194.731785 303.87241 
L 194.837738 303.914124 
L 194.979009 304.164409 
L 195.173256 304.317361 
L 195.190915 304.303456 
L 195.561751 304.247837 
L 195.632386 304.192219 
L 195.650045 304.247837 
L 195.791316 304.359075 
L 195.87961 304.289552 
L 196.003222 304.247837 
L 196.462352 304.901359 
L 196.515329 304.859645 
L 196.585964 304.748407 
L 196.621282 304.859645 
L 196.868506 304.943073 
L 197.151047 305.193358 
L 197.486566 305.262882 
L 197.610178 305.304596 
L 197.87506 305.388024 
L 198.03399 305.457548 
L 198.104625 305.415834 
L 198.139943 305.471453 
L 198.581414 305.415834 
L 198.722685 305.137739 
L 198.846297 305.054311 
L 199.058203 304.915264 
L 199.552651 304.831836 
L 199.693922 304.692788 
L 200.18837 304.595455 
L 200.32964 304.623265 
L 201.018336 305.026502 
L 201.300877 305.082121 
L 201.353854 305.137739 
L 201.389171 305.026502 
L 201.495124 304.943073 
L 201.601078 304.970883 
L 201.901278 305.248977 
L 201.954255 305.304596 
L 202.166161 306.305736 
L 202.360408 307.014876 
L 202.695926 307.737922 
L 202.801879 307.751827 
L 202.94315 307.974302 
L 203.119739 308.141159 
L 203.172715 308.08554 
L 203.225692 308.141159 
L 203.349304 308.196778 
L 203.508233 308.363634 
L 203.790775 308.419253 
L 203.932046 308.530491 
L 204.232246 308.602795 
L 204.373517 308.725157 
L 204.391176 308.709862 
L 204.497129 308.663976 
L 204.726694 308.755747 
L 204.797329 308.930947 
L 204.832647 308.740452 
L 204.956259 308.530491 
L 204.973918 308.548567 
L 205.132848 308.679271 
L 205.238801 308.725157 
L 205.521342 308.828052 
L 205.71559 308.841956 
L 205.909837 308.949023 
L 206.086425 309.081118 
L 206.121743 308.992127 
L 206.157061 308.964318 
L 206.227696 309.019937 
L 206.333649 309.081118 
L 206.457261 309.136737 
L 206.757462 309.222946 
L 206.916391 291.803114 
L 207.004686 261.755017 
L 207.075321 276.591352 
L 207.269568 299.992994 
L 207.534451 304.525932 
L 207.781675 306.194498 
L 207.834652 306.055451 
L 208.028899 305.290691 
L 208.081875 305.388024 
L 208.258464 305.527072 
L 208.435052 305.6105 
L 208.682276 305.805166 
L 208.858865 305.888594 
L 209.212042 306.250117 
L 209.370972 306.08326 
L 209.406289 306.138879 
L 209.565219 306.055451 
L 209.883078 305.527072 
L 209.953714 305.58269 
L 210.077326 305.805166 
L 210.094984 305.791261 
L 210.147961 304.317361 
L 210.218596 304.84574 
L 210.483479 306.124974 
L 210.818997 306.639449 
L 210.942609 306.722877 
L 211.260468 307.028781 
L 211.366422 307.112209 
L 211.684281 307.751827 
L 211.719599 307.835255 
L 212.019799 308.252396 
L 212.284682 304.998692 
L 212.355317 302.3707 
L 212.408294 303.232793 
L 212.637859 305.749547 
L 212.77913 305.860785 
L 212.849765 305.944213 
L 212.991036 306.180593 
L 213.008695 306.166689 
L 213.07933 306.291831 
L 213.37953 307.362494 
L 213.520801 307.612779 
L 214.032908 308.224587 
L 214.138861 308.224587 
L 214.15652 308.308015 
L 214.209496 308.141159 
L 214.227155 308.141159 
L 214.509697 308.071635 
L 214.668626 307.974302 
L 214.77458 308.043826 
L 215.021803 308.363634 
L 215.216051 308.419253 
L 215.23371 308.531881 
L 215.251369 308.029921 
L 215.269027 308.05773 
L 215.322004 307.960397 
L 215.37498 304.678884 
L 215.498592 270.375943 
L 215.569228 284.739517 
L 215.763475 302.078701 
L 216.010699 305.540976 
L 216.081334 305.888594 
L 216.275582 306.861925 
L 216.328558 306.834115 
L 216.45217 304.470313 
L 216.628759 294.194726 
L 216.664076 294.848248 
L 216.875983 299.700994 
L 217.176183 304.150504 
L 217.52936 305.916404 
L 217.582337 305.999832 
L 217.670631 301.66156 
L 217.900196 278.718774 
L 217.970831 285.698943 
L 218.059126 290.343119 
L 218.094443 289.328074 
L 218.200396 285.281801 
L 218.253373 286.477607 
L 218.659527 298.699855 
L 218.853774 299.700994 
L 218.90675 299.631471 
L 219.048021 299.408995 
L 219.06568 299.436805 
L 219.206951 299.575852 
L 219.807352 300.354516 
L 219.825011 300.326707 
L 219.877987 300.410135 
L 219.895646 300.410135 
L 220.054576 300.799467 
L 220.107552 300.827277 
L 220.248823 301.021943 
L 220.284141 301.049752 
L 220.478388 301.578131 
L 220.725612 301.884035 
L 220.972836 302.315082 
L 221.714508 303.441364 
L 221.732166 303.344031 
L 221.749825 303.302317 
L 221.802802 303.413554 
L 221.97939 304.067076 
L 222.226614 305.137739 
L 222.544473 305.805166 
L 222.650427 305.888594 
L 222.809356 306.305736 
L 223.021262 307.000972 
L 223.586346 307.696208 
L 223.745275 307.946493 
L 223.780593 308.05773 
L 223.83357 307.890874 
L 223.851228 307.779636 
L 223.904205 307.974302 
L 223.921864 307.974302 
L 223.939523 308.05773 
L 223.957181 307.682303 
L 223.992499 307.334685 
L 224.045476 307.724017 
L 224.063135 307.724017 
L 224.222064 308.099445 
L 224.363335 308.141159 
L 224.539924 308.196778 
L 224.716512 308.419253 
L 224.857783 308.419253 
L 224.999054 308.530491 
L 225.087348 308.633386 
L 225.281595 308.663976 
L 225.422866 308.755747 
L 225.581796 308.903137 
L 225.687749 308.887842 
L 225.705408 308.903137 
L 225.82902 308.978223 
L 225.987949 309.081118 
L 226.270491 309.178451 
L 226.464738 309.192355 
L 226.676644 309.253536 
L 226.74728 309.420393 
L 226.817915 309.364774 
L 227.524269 309.434298 
L 227.683199 309.573345 
L 227.789152 309.545535 
L 227.806811 309.573345 
L 228.177647 309.726297 
L 228.301259 309.712392 
L 228.42487 309.809725 
L 228.5838 309.865344 
L 228.866342 309.920963 
L 228.972295 309.976582 
L 229.113566 309.920963 
L 229.272495 309.976582 
L 229.36079 310.0322 
L 229.378448 309.976582 
L 229.713967 310.0322 
L 229.81992 310.073915 
L 229.943532 309.976582 
L 230.084802 310.199057 
L 230.190755 310.249114 
L 230.332026 310.0322 
L 230.614568 310.129533 
L 230.73818 310.087819 
L 230.967745 310.185152 
L 231.161992 310.199057 
L 231.320922 310.143438 
L 231.479851 310.304733 
L 233.49296 310.410409 
L 233.65189 310.460466 
L 233.987408 310.566142 
L 234.11102 310.566142 
L 234.764398 310.666256 
L 234.870351 310.76637 
L 234.88801 310.753855 
L 235.046939 310.716313 
L 235.612022 310.816427 
L 235.717975 310.866484 
L 235.735634 310.816427 
L 235.929882 310.716313 
L 236.018176 310.716313 
L 236.035835 310.741341 
L 236.159447 310.841455 
L 236.212423 310.803912 
L 236.371353 310.76637 
L 236.477306 310.841455 
L 236.5656 310.916541 
L 236.600918 310.866484 
L 236.971754 310.961036 
L 237.113025 311.011093 
L 237.854696 311.118159 
L 238.013626 311.105645 
L 238.172556 311.200197 
L 238.243191 311.250254 
L 238.296168 311.200197 
L 239.426334 311.300311 
L 239.620581 311.350368 
L 239.761852 311.300311 
L 240.079711 311.400425 
L 240.733089 311.494977 
L 240.768406 311.53252 
L 240.839042 311.494977 
L 241.421784 311.400425 
L 241.510078 311.375396 
L 241.527737 311.38791 
L 241.721984 311.400425 
L 241.845596 311.300311 
L 241.933891 311.250254 
L 241.969208 311.312825 
L 242.057503 311.350368 
L 242.075161 311.325339 
L 242.287068 311.300311 
L 242.816833 311.362882 
L 242.940445 311.400425 
L 246.048403 311.494977 
L 246.154356 311.684081 
L 246.172015 311.671567 
L 246.631145 311.44492 
L 246.790074 311.494977 
L 247.884923 311.458825 
L 247.920241 311.350368 
L 247.990876 311.44492 
L 248.132147 311.545034 
L 248.926795 311.482463 
L 249.050407 311.011093 
L 249.103384 311.118159 
L 249.297631 311.337854 
L 249.456561 311.300311 
L 250.039303 311.400425 
L 250.23355 311.400425 
L 251.098834 311.494977 
L 251.257763 311.53252 
L 251.487328 311.578405 
L 251.681576 311.567281 
L 251.805188 311.634024 
L 251.840505 311.589529 
L 252.493883 311.684081 
L 252.652812 311.795319 
L 252.758766 311.795319 
L 252.776424 311.817566 
L 253.694685 311.728576 
L 253.818297 311.634024 
L 253.835955 311.659053 
L 254.012544 311.728576 
L 254.524651 311.817566 
L 254.648262 311.817566 
L 255.089734 311.906556 
L 255.266322 311.951052 
L 256.696689 311.850938 
L 256.873278 311.862061 
L 258.550868 311.784195 
L 258.586186 311.482463 
L 258.639163 311.862061 
L 258.656821 311.862061 
L 261.340967 311.960785 
L 261.358625 312.021966 
L 261.393943 311.938537 
L 261.44692 311.949661 
L 261.58819 311.951052 
L 262.188591 311.862061 
L 262.329862 311.817566 
L 262.577086 311.717452 
L 262.736016 311.695205 
L 262.894945 311.728576 
L 263.318758 311.761947 
L 263.565982 308.600014 
L 263.671935 309.406488 
L 263.989794 310.06001 
L 264.219359 310.76637 
L 264.837419 311.325339 
L 265.014007 311.44492 
L 265.490796 311.337854 
L 265.720361 311.300311 
L 265.879291 311.400425 
L 267.027116 311.457434 
L 267.044775 311.578405 
L 267.080093 311.191854 
L 267.239022 307.779636 
L 267.309658 305.37412 
L 267.380293 306.389164 
L 267.609858 308.872547 
L 268.051329 310.329761 
L 268.528118 310.841455 
L 268.598754 310.816427 
L 268.65173 310.853969 
L 268.863637 310.904026 
L 268.881295 310.998578 
L 268.916613 310.866484 
L 268.951931 310.962426 
L 269.075543 310.866484 
L 269.199155 310.866484 
L 270.241027 310.961036 
L 270.382298 311.155702 
L 270.452933 311.189073 
L 270.470592 311.083397 
L 270.594204 310.961036 
L 271.512464 310.866484 
L 271.636076 310.803912 
L 271.653735 310.828941 
L 271.777347 310.866484 
L 272.713266 310.76637 
L 272.819219 310.703798 
L 272.748584 310.791398 
L 272.836878 310.728827 
L 272.854537 310.816427 
L 272.925172 310.641227 
L 273.066443 310.691284 
L 273.154737 310.76637 
L 273.172396 310.716313 
L 273.490255 310.616199 
L 274.443833 310.516085 
L 274.549786 310.410409 
L 274.602763 310.460466 
L 274.814669 310.616199 
L 275.026575 310.566142 
L 275.185505 310.616199 
L 275.71527 310.516085 
L 275.909518 310.410409 
L 276.156742 310.460466 
L 278.593663 310.35479 
L 278.999816 310.199057 
L 279.300017 310.143438 
L 279.317676 310.087819 
L 279.40597 310.171248 
L 279.441288 310.199057 
L 279.511923 310.143438 
L 280.430183 310.046105 
L 280.553795 310.087819 
L 282.01948 310.0322 
L 282.231386 309.698487 
L 282.77881 309.79582 
L 282.955399 309.809725 
L 283.043693 309.740201 
L 283.079011 309.754106 
L 284.421083 309.82363 
L 284.544695 309.865344 
L 285.127437 309.79582 
L 285.251049 309.642868 
L 285.286367 309.698487 
L 285.357002 309.79582 
L 285.657203 309.893153 
L 285.975062 309.809725 
L 286.151651 309.698487 
L 286.328239 309.809725 
L 286.451851 309.656773 
L 286.487169 309.698487 
L 286.716734 309.726297 
L 286.734393 309.846804 
L 286.805028 309.642868 
L 286.910981 309.587249 
L 287.069911 309.684582 
L 287.281817 309.712392 
L 287.970512 309.642868 
L 288.129442 309.476012 
L 288.235395 309.392583 
L 288.411983 309.309155 
L 288.853455 309.207651 
L 289.100678 309.136737 
L 289.241949 309.136737 
L 289.436197 308.709862 
L 289.471514 308.725157 
L 289.595126 308.841956 
L 290.089574 309.136737 
L 290.266163 308.964318 
L 290.30148 309.006032 
L 290.707634 309.253536 
L 290.725293 309.207651 
L 290.954858 309.309155 
L 290.972517 309.364774 
L 291.043152 309.253536 
L 291.237399 309.207651 
L 291.396329 309.019937 
L 291.855459 308.918432 
L 292.049706 308.887842 
L 292.226295 308.903137 
L 292.314589 308.992127 
L 292.45586 309.081118 
L 292.526495 309.079727 
L 292.561813 308.918432 
L 292.650107 308.949023 
L 292.826696 308.964318 
L 294.468969 308.872547 
L 294.521945 308.857252 
L 294.574922 308.903137 
L 295.846359 308.992127 
L 296.058265 309.136737 
L 296.252513 309.035232 
L 296.429101 309.019937 
L 296.641007 308.918432 
L 296.729302 308.903137 
L 296.74696 308.949023 
L 296.923549 308.964318 
L 297.082479 308.841956 
L 297.206091 308.903137 
L 297.329702 308.964318 
L 298.265622 308.887842 
L 298.300939 308.224587 
L 298.336257 307.543256 
L 298.406892 307.918683 
L 298.636457 308.474872 
L 298.74241 308.566643 
L 298.971976 308.786338 
L 299.183882 308.841956 
L 299.325152 308.964318 
L 300.084483 308.923531 
L 300.367025 307.960397 
L 300.420001 307.863064 
L 300.490637 307.918683 
L 300.631907 307.974302 
L 301.126355 308.071635 
L 301.868027 308.566643 
L 301.885686 308.530491 
L 302.574381 308.460967 
L 302.803946 307.640589 
L 302.856922 307.58497 
L 302.909899 307.640589 
L 303.139464 307.918683 
L 303.404347 307.32078 
L 303.457323 307.418113 
L 303.757524 307.863064 
L 303.845818 307.918683 
L 304.004748 308.08554 
L 304.304948 308.168968 
L 304.499195 308.294111 
L 304.658125 308.308015 
L 304.764078 308.377539 
L 304.905349 308.552738 
L 305.064279 308.182873 
L 305.382138 307.863064 
L 305.399797 307.863064 
L 305.50575 307.696208 
L 305.523409 307.724017 
L 305.841268 308.029921 
L 306.053174 308.127254 
L 306.459328 308.308015 
L 306.865481 308.377539 
L 306.989093 308.419253 
L 307.253976 308.391444 
L 307.324611 306.152784 
L 307.430565 307.028781 
L 307.571835 307.501542 
L 308.136919 308.08554 
L 308.331166 308.266301 
L 308.41946 308.308015 
L 308.437119 308.280206 
L 308.472437 308.252396 
L 308.543072 308.308015 
L 308.807955 308.530491 
L 309.002202 308.602795 
L 309.161132 308.725157 
L 310.097051 308.663976 
L 310.203004 308.602795 
L 310.220663 308.618091 
L 310.255981 308.663976 
L 310.308957 308.663976 
L 310.467887 308.663976 
L 310.785746 308.755747 
L 310.909358 308.800242 
L 310.927017 308.786338 
L 312.004207 308.857252 
L 312.180795 309.019937 
L 312.586949 308.933728 
L 312.763537 308.814147 
L 312.904808 308.841956 
L 312.975443 308.786338 
L 313.116714 308.548567 
L 313.152032 308.566643 
L 313.240326 308.530491 
L 313.275644 308.566643 
L 313.469891 308.618091 
L 313.717115 308.725157 
L 313.787751 308.828052 
L 313.770092 308.709862 
L 313.805409 308.783557 
L 314.034974 307.501542 
L 314.123269 307.251257 
L 314.176245 307.306876 
L 314.229222 307.362494 
L 314.56474 308.08554 
L 314.86494 308.182873 
L 315.571294 308.663976 
L 315.606612 308.584719 
L 315.677247 308.663976 
L 315.836177 308.725157 
L 315.871495 308.786338 
L 315.94213 308.725157 
L 316.030424 308.618091 
L 316.189354 308.602795 
L 316.40126 308.663976 
L 316.542531 308.530491 
L 316.895708 308.784947 
L 317.01932 308.679271 
L 317.036979 308.725157 
L 317.531427 308.786338 
L 317.708015 309.019937 
L 318.184804 308.918432 
L 318.25544 308.918432 
L 318.290757 308.964318 
L 318.979452 308.872547 
L 319.138382 308.814147 
L 319.350288 308.964318 
L 319.721124 309.050527 
L 319.844736 309.136737 
L 319.915371 309.095022 
L 319.968348 309.164546 
L 320.144936 309.253536 
L 320.586408 309.150641 
L 320.727678 309.136737 
L 320.745337 309.164546 
L 321.063197 309.476012 
L 321.416374 309.378679 
L 321.734233 309.253536 
L 321.875504 309.238241 
L 322.052092 309.081118 
L 322.458246 309.050527 
L 322.511222 307.737922 
L 322.581858 308.113349 
L 322.740787 308.643583 
L 322.776105 308.530491 
L 322.882058 308.419253 
L 322.899717 308.447062 
L 322.970352 308.663976 
L 323.040988 308.602795 
L 323.146941 308.694566 
L 323.712024 309.476012 
L 323.817977 309.531631 
L 323.976907 309.698487 
L 324.100519 309.79582 
L 324.506672 309.976582 
L 324.70092 310.073915 
L 324.877508 310.087819 
L 325.071756 309.976582 
L 325.230685 310.087819 
L 325.954698 310.157343 
L 326.07831 310.199057 
L 327.473359 310.115629 
L 327.596971 310.101724 
L 327.77356 310.199057 
L 327.861854 310.087819 
L 327.879513 310.210181 
L 328.038442 310.304733 
L 328.091419 310.35479 
L 328.109078 310.303342 
L 328.126737 310.199057 
L 328.215031 310.249114 
L 328.568208 310.35479 
L 328.69182 310.35479 
L 328.833091 310.249114 
L 329.009679 310.461856 
L 329.062656 310.410409 
L 329.415833 310.315857 
L 329.645398 310.046105 
L 329.680715 310.087819 
L 329.945598 310.304733 
L 330.104528 310.250504 
L 330.245799 309.920963 
L 330.457705 309.309155 
L 330.52834 309.406488 
L 330.722587 309.698487 
L 330.98747 309.79582 
L 331.164059 310.046105 
L 331.270012 310.157343 
L 331.287671 310.143438 
L 331.428941 310.249114 
L 331.587871 310.35479 
L 331.923389 310.460466 
L 332.099978 310.460466 
L 332.68272 310.566142 
L 332.841649 310.666256 
L 333.212485 310.76637 
L 333.283121 310.816427 
L 333.336097 310.753855 
L 333.459709 310.716313 
L 333.75991 310.816427 
L 333.918839 310.716313 
L 334.113087 310.816427 
L 334.183722 310.853969 
L 334.236699 310.816427 
L 334.501581 310.916541 
L 334.695829 310.916541 
L 335.649407 310.91376 
L 335.684724 310.616199 
L 335.773019 310.67877 
L 335.89663 310.566142 
L 335.914289 310.603684 
L 335.931948 310.753855 
L 335.967266 310.210181 
L 336.267466 301.605941 
L 336.302784 300.827277 
L 336.355761 301.758893 
L 336.550008 304.1366 
L 336.867867 307.807445 
L 337.115091 309.095022 
L 337.521245 310.0322 
L 337.856763 310.35479 
L 338.121646 310.460466 
L 338.421846 310.578656 
L 338.457164 310.566142 
L 338.598434 310.753855 
L 338.651411 310.76637 
L 338.792682 310.541113 
L 338.951611 310.460466 
L 338.96927 310.47437 
L 339.092882 310.516085 
L 339.446059 310.616199 
L 339.622648 310.791398 
L 339.640307 310.778884 
L 339.922848 310.866484 
L 340.04646 310.961036 
L 340.064119 310.938788 
L 342.854217 311.036121 
L 343.030806 311.094521 
L 343.225053 311.06115 
L 343.383983 311.155702 
L 344.549467 311.250254 
L 344.708397 311.350368 
L 344.832008 311.300311 
L 345.202844 311.400425 
L 345.520704 311.482463 
L 345.679633 311.44492 
L 347.26893 311.545034 
L 347.781036 311.7397 
L 347.922307 311.773071 
L 348.045919 311.817566 
L 348.416755 311.91768 
L 348.522708 311.906556 
L 349.229062 312.001109 
L 349.387992 312.078975 
L 352.107455 311.970518 
L 352.566585 311.839814 
L 352.79615 311.862061 
L 352.955079 311.44492 
L 353.202303 310.916541 
L 353.219962 310.927664 
L 353.308256 311.011093 
L 353.325915 310.962426 
L 353.414209 310.653741 
L 353.467186 310.76637 
L 353.537821 310.972159 
L 353.55548 310.2366 
L 353.643775 310.578656 
L 353.679092 310.67877 
L 353.732069 310.461856 
L 353.87334 308.530491 
L 353.996952 309.108927 
L 354.01461 309.122832 
L 354.102905 308.08554 
L 354.17354 308.520757 
L 354.491399 310.460466 
L 354.597352 310.666256 
L 355.038824 311.350368 
L 355.339024 311.589529 
L 355.568589 311.695205 
L 355.656883 311.806443 
L 355.70986 311.728576 
L 355.904107 311.728576 
L 356.451532 311.817566 
L 356.575144 311.862061 
L 356.857685 311.970518 
L 357.08725 311.970518 
L 357.193203 311.939928 
L 357.210862 311.960785 
L 357.316815 312.09288 
L 357.475745 305.235072 
L 357.581698 251.159621 
L 357.669992 278.343347 
L 357.86424 298.157571 
L 357.881899 298.129761 
L 357.952534 294.987295 
L 358.023169 293.986155 
L 358.058487 294.458915 
L 358.588252 307.32078 
L 358.605911 306.569925 
L 358.7825 283.279522 
L 358.853135 260.920734 
L 358.906112 271.01556 
L 359.135677 303.455268 
L 359.347583 307.543256 
L 359.647783 309.192355 
L 360.071596 310.263019 
L 360.389455 310.566142 
L 360.636679 310.666256 
L 360.707314 310.753855 
L 360.77795 310.716313 
L 360.93688 310.566142 
L 361.254739 310.460466 
L 361.448986 310.304733 
L 361.519622 310.410409 
L 361.678551 310.566142 
L 361.908116 310.666256 
L 362.15534 310.853969 
L 362.243634 310.866484 
L 362.261293 310.904026 
L 362.861694 311.212711 
L 363.091259 311.105645 
L 363.126577 311.155702 
L 363.23253 311.300311 
L 363.267848 311.250254 
L 363.426777 311.200197 
L 363.621025 311.300311 
L 363.762295 311.350368 
L 364.044837 311.44492 
L 364.203767 311.494977 
L 364.415673 311.589529 
L 364.556944 311.684081 
L 364.874803 311.773071 
L 364.998415 311.817566 
L 365.104368 311.784195 
L 365.122027 311.806443 
L 365.475204 311.906556 
L 366.623029 312.001109 
L 366.7643 312.03448 
L 366.887912 312.001109 
L 366.92323 311.873185 
L 366.993865 311.989985 
L 368.318279 312.088708 
L 368.441891 312.078975 
L 369.430786 311.970518 
L 369.536739 311.989985 
L 369.730987 311.989985 
L 369.819281 312.06507 
L 369.907575 311.362882 
L 369.942893 311.531129 
L 370.066505 311.895433 
L 370.084164 311.862061 
L 370.154799 311.773071 
L 370.29607 311.717452 
L 370.702223 311.862061 
L 370.790518 311.862061 
L 370.808177 311.873185 
L 370.967106 311.951052 
L 371.179012 311.895433 
L 371.249648 311.761947 
L 371.320283 311.795319 
L 371.37326 311.817566 
L 371.408577 311.773071 
L 371.585166 311.671567 
L 371.850049 311.850938 
L 372.874262 311.960785 
L 373.227439 312.03448 
L 373.739546 312.137375 
L 373.933793 312.201337 
L 374.304629 312.308403 
L 374.498876 312.29867 
L 374.640147 312.327869 
L 374.781418 312.376536 
L 375.046301 312.357069 
L 375.328842 312.386269 
L 376.353055 312.468307 
L 376.494326 312.487774 
L 376.653256 312.468307 
L 377.218339 312.575373 
L 377.394928 312.546174 
L 377.465563 312.643507 
L 377.606834 312.765868 
L 377.854058 312.765868 
L 377.907034 312.585107 
L 377.97767 312.614307 
L 378.224893 312.62404 
L 378.878271 312.701906 
L 379.001883 312.731106 
L 379.160813 312.701906 
L 379.461013 312.74084 
L 383.699137 312.803411 
L 383.734455 312.896572 
L 383.769772 312.487774 
L 383.858067 312.50724 
L 383.946361 312.603183 
L 383.96402 312.461355 
L 384.034655 312.53644 
L 384.052314 311.989985 
L 384.122949 310.938788 
L 384.158267 311.749433 
L 384.281879 311.989985 
L 384.458467 312.24027 
L 385.076527 312.347336 
L 385.323751 312.357069 
L 385.835858 312.459964 
L 386.189035 312.50724 
L 387.354519 312.555907 
L 387.372178 312.62404 
L 387.389837 312.376536 
L 387.425154 312.405736 
L 387.654719 311.155702 
L 387.778331 311.250254 
L 388.678933 312.357069 
L 388.996792 312.451621 
L 389.208698 312.50724 
L 389.49124 312.604573 
L 389.614852 312.585107 
L 390.303547 312.692173 
L 390.550771 312.701906 
L 391.16883 312.774211 
L 391.257125 312.813144 
L 391.274784 312.774211 
L 392.087091 312.875715 
L 392.281338 312.865982 
L 392.40495 312.885449 
L 392.652174 312.885449 
L 393.552775 312.952191 
L 393.711705 313.113486 
L 393.799999 312.993905 
L 393.835317 312.893792 
L 393.923611 312.91882 
L 394.24147 312.813144 
L 394.382741 312.813144 
L 395.265684 312.885449 
L 395.283342 312.984172 
L 395.353978 312.813144 
L 395.689496 312.71164 
L 395.848426 312.604573 
L 395.919061 312.692173 
L 395.972038 312.662973 
L 397.102204 312.765868 
L 397.31411 312.749182 
L 398.250029 312.856249 
L 398.426618 312.952191 
L 399.874643 312.846515 
L 400.015914 312.774211 
L 400.121867 312.813144 
L 400.139526 312.783944 
L 400.439727 312.74084 
L 400.916516 312.643507 
L 401.181398 312.295889 
L 401.322669 310.087819 
L 401.375646 310.276923 
L 401.62287 311.300311 
L 401.92307 311.862061 
L 402.187953 311.970518 
L 402.3822 312.03448 
L 402.753036 312.137375 
L 402.788354 311.540862 
L 402.858989 311.862061 
L 402.929624 311.980252 
L 402.947283 311.806443 
L 403.088554 311.634024 
L 403.123872 311.716062 
L 403.159189 311.494977 
L 403.512366 309.019937 
L 403.547684 309.164546 
L 404.024473 311.06115 
L 404.165744 311.155702 
L 404.465944 311.545034 
L 404.730827 311.745262 
L 404.854439 311.745262 
L 404.872098 311.778633 
L 405.172298 311.878747 
L 405.331228 311.912118 
L 405.490158 311.873185 
L 406.196512 312.158232 
L 406.337782 312.129032 
L 406.408418 312.29867 
L 406.443736 312.099832 
L 406.479053 312.026137 
L 406.53203 312.129032 
L 406.620324 312.173527 
L 406.655642 312.129032 
L 407.220725 312.231927 
L 407.326678 312.284765 
L 407.45029 312.173527 
L 407.90942 312.256955 
L 407.927079 312.315355 
L 407.997714 312.237489 
L 408.06835 312.218022 
L 408.086009 312.313965 
L 408.156644 312.105394 
L 408.333232 312.134594 
L 409.816576 312.243051 
L 409.957847 312.262517 
L 410.187412 312.262517 
L 411.229284 312.365412 
L 411.388213 312.384879 
L 411.494167 312.394612 
L 411.653096 312.462745 
L 412.35945 312.569812 
L 412.606674 312.579545 
L 413.931088 312.47804 
L 414.142994 312.47804 
L 414.301924 312.50724 
L 414.443194 312.490555 
L 417.197975 312.596231 
L 417.498175 312.640726 
L 419.334696 312.548955 
L 419.564261 312.451621 
L 419.864461 312.369584 
L 420.005732 312.340384 
L 422.424995 312.251394 
L 422.548607 312.190213 
L 422.566265 312.219413 
L 422.707536 312.190213 
L 422.813489 312.101223 
L 422.901784 311.984423 
L 422.972419 312.028918 
L 423.219643 312.051166 
L 423.449208 311.999718 
L 423.537502 312.070632 
L 423.57282 311.999718 
L 423.978973 311.900995 
L 424.49108 311.951052 
L 424.544057 312.108175 
L 424.632351 312.078975 
L 424.738304 312.046994 
L 424.861916 311.951052 
L 426.380577 312.040042 
L 426.521848 312.09427 
L 428.817498 311.996937 
L 428.94111 311.989985 
L 429.064722 311.978861 
L 431.289737 311.889871 
L 431.466326 311.845376 
L 433.143916 311.767509 
L 433.285187 311.721624 
L 433.426458 311.745262 
L 433.726658 311.678519 
L 433.85027 311.745262 
L 433.867929 311.899604 
L 433.920906 311.583967 
L 433.938565 311.617338 
L 434.150471 311.678519 
L 434.821507 311.589529 
L 434.92746 311.589529 
L 436.658028 311.634024 
L 436.675686 311.746652 
L 436.711004 311.458825 
L 436.746322 311.589529 
L 436.763981 311.588138 
L 436.958228 309.82363 
L 436.975887 309.934867 
L 437.011205 310.0322 
L 437.028863 309.851439 
L 437.152475 304.303456 
L 437.24077 306.222307 
L 437.470335 309.164546 
L 437.735217 310.210181 
L 438.088394 310.961036 
L 438.176689 311.023607 
L 438.45923 311.400425 
L 438.635819 311.507491 
L 438.77709 311.634024 
L 439.094949 311.728576 
L 439.271537 311.773071 
L 442.944578 311.873185 
L 443.121167 311.862061 
L 443.262437 311.817566 
L 443.474344 311.906556 
L 447.659491 311.981642 
L 447.694809 311.960785 
L 447.765444 311.989985 
L 448.118621 311.906556 
L 448.259892 311.906556 
L 448.418822 311.773071 
L 449.107517 311.862061 
L 449.125176 311.894042 
L 449.142834 311.817566 
L 449.195811 311.817566 
L 449.548988 311.717452 
L 449.707918 311.634024 
L 449.849188 311.728576 
L 450.13173 311.928804 
L 450.308318 311.773071 
L 450.696813 311.784195 
L 450.767449 311.91768 
L 450.785107 311.727186 
L 450.802766 311.838423 
L 450.926378 311.634024 
L 451.367849 311.545034 
L 451.562097 311.44492 
L 451.721026 311.482463 
L 451.774003 311.44492 
L 451.844638 311.494977 
L 452.233133 311.589529 
L 452.392063 311.706329 
L 453.433935 311.600653 
L 453.645841 311.589529 
L 453.769453 311.684081 
L 453.893065 311.611776 
L 454.28156 311.728576 
L 455.058549 311.647929 
L 455.35875 309.192355 
L 455.447044 309.587249 
L 455.782562 310.866484 
L 456.171057 311.262768 
L 456.294669 311.325339 
L 456.435939 311.300311 
L 456.559551 311.400425 
L 456.718481 311.494977 
L 457.477811 311.589529 
L 457.583765 311.634024 
L 457.601423 311.589529 
L 461.451053 311.494977 
L 461.574665 311.44492 
L 461.592324 311.469948 
L 461.80423 311.589529 
L 462.033795 311.684081 
L 462.086771 311.728576 
L 462.139748 311.684081 
L 462.316336 311.613167 
L 462.404631 310.816427 
L 462.457607 310.938788 
L 462.687172 311.38652 
L 462.775466 311.44492 
L 462.969714 311.634024 
L 463.375867 311.7397 
L 463.48182 311.773071 
L 463.499479 311.761947 
L 463.693727 311.7397 
L 463.852656 311.817566 
L 465.706836 311.91768 
L 465.830447 312.078975 
L 465.865765 312.067851 
L 465.901083 311.906556 
L 465.989377 311.951052 
L 467.33145 311.850938 
L 467.47272 311.817566 
L 468.54991 311.884309 
L 468.585228 311.991375 
L 468.620546 311.82869 
L 468.903087 310.224086 
L 468.938405 310.249114 
L 469.185629 310.566142 
L 469.574124 310.97355 
L 469.803689 311.300311 
L 470.015595 311.399034 
L 470.08623 311.457434 
L 470.121548 311.400425 
L 470.262819 311.350368 
L 470.563019 311.457434 
L 470.668972 311.494977 
L 470.686631 311.469948 
L 470.86322 311.400425 
L 471.110444 311.44492 
L 471.16342 311.44492 
L 471.198738 311.507491 
L 471.375326 311.53252 
L 471.62255 311.350368 
L 471.869774 311.400425 
L 471.975727 311.262768 
L 472.011045 311.287797 
L 472.046363 311.422672 
L 472.116998 311.262768 
L 472.222951 311.262768 
L 472.24061 311.287797 
L 472.434857 311.300311 
L 473.723953 311.400425 
L 474.07713 311.494977 
L 474.748167 311.589529 
L 474.924755 311.634024 
L 476.461075 311.7397 
L 476.620005 311.773071 
L 478.138666 311.873185 
L 478.262278 311.906556 
L 481.529165 312.012232 
L 481.652777 312.117908 
L 481.688095 312.044213 
L 481.811707 311.989985 
L 481.829365 312.001109 
L 482.129566 312.078975 
L 482.323813 312.078975 
L 483.065485 312.179089 
L 483.277391 312.288936 
L 483.45398 312.279203 
L 483.577592 312.318136 
L 485.5907 312.230536 
L 485.731971 312.001109 
L 485.802607 312.078975 
L 485.979195 312.117908 
L 487.197656 312.220803 
L 487.232973 313.1844 
L 487.28595 312.156841 
L 487.303609 312.179089 
L 487.462538 312.201337 
L 487.550833 312.21107 
L 487.568492 312.327869 
L 487.603809 312.201337 
L 487.639127 312.198556 
L 487.727421 312.001109 
L 487.762739 312.03448 
L 487.921669 312.127642 
L 488.239528 312.078975 
L 491.471097 312.097051 
L 491.524074 312.259736 
L 491.594709 312.24027 
L 491.665345 312.148499 
L 491.806616 311.989985 
L 492.19511 312.078975 
L 492.336381 312.117908 
L 492.919123 312.21107 
L 493.095712 312.308403 
L 493.11337 312.24027 
L 493.201665 312.29867 
L 493.766748 312.396003 
L 493.908019 312.434936 
L 495.72688 312.337603 
L 495.903469 312.250003 
L 495.921128 312.279203 
L 497.528083 312.376536 
L 497.72233 312.434936 
L 498.728885 312.337603 
L 499.135038 312.03448 
L 499.346944 312.201337 
L 501.077512 312.254174 
L 501.112829 311.141797 
L 501.130488 311.264158 
L 501.307077 178.57699 
L 501.377712 205.830239 
L 501.607277 289.717406 
L 501.819183 301.411275 
L 501.907478 296.572433 
L 501.978113 261.421304 
L 502.048748 224.462562 
L 502.101725 239.340611 
L 502.17236 247.2663 
L 502.207678 241.565366 
L 502.278313 190.256954 
L 502.366608 97.929621 
L 502.419584 112.390529 
L 502.755102 271.196321 
L 502.94935 294.73701 
L 503.196574 301.494703 
L 503.302527 289.133408 
L 503.355503 282.431334 
L 503.426139 286.755701 
L 503.673363 301.578131 
L 503.955904 305.221168 
L 504.397375 307.306876 
L 504.909482 308.252396 
L 505.139047 308.530491 
L 505.297977 308.725157 
L 506.110284 309.434298 
L 506.127943 309.309155 
L 506.180919 309.238241 
L 506.216237 309.392583 
L 506.357508 309.531631 
L 506.428143 309.615059 
L 506.48112 309.092241 
L 506.587073 307.070495 
L 506.728344 298.852807 
L 506.78132 300.243278 
L 506.993226 305.012597 
L 507.311086 307.807445 
L 507.522992 308.618091 
L 507.929145 309.364774 
L 507.999781 309.420393 
L 508.070416 309.517726 
L 508.035099 309.392583 
L 508.088075 309.406488 
L 508.211687 309.150641 
L 508.247005 309.207651 
L 508.299981 309.309155 
L 508.335299 309.238241 
L 508.388276 308.739062 
L 508.47657 307.654494 
L 508.529546 307.807445 
L 508.547205 307.890874 
L 508.564864 307.807445 
L 508.653158 291.385973 
L 508.723794 297.017384 
L 508.918041 305.193358 
L 509.147606 307.682303 
L 509.165265 307.598875 
L 509.69503 309.267441 
L 510.913491 310.087819 
L 511.001785 310.157343 
L 511.072421 310.47298 
L 511.125397 310.35479 
L 511.266668 309.990486 
L 511.354962 305.179454 
L 511.460915 306.61164 
L 511.531551 307.515446 
L 511.584527 307.126114 
L 511.602186 307.098305 
L 511.637504 307.195638 
L 511.990681 309.164546 
L 512.202587 309.531631 
L 512.30854 309.587249 
L 512.538105 310.06001 
L 512.679376 310.046105 
L 512.732353 310.0322 
L 512.750011 310.087819 
L 512.944259 310.342276 
L 513.08553 310.342276 
L 513.173824 310.304733 
L 513.191483 310.35479 
L 513.827201 310.716313 
L 513.84486 310.716313 
L 513.862519 310.888731 
L 513.915496 310.435437 
L 513.986131 309.462107 
L 514.109743 301.021943 
L 514.198037 303.858505 
L 514.427602 307.598875 
L 514.62185 308.800242 
L 514.904391 309.712392 
L 515.063321 310.303342 
L 515.186933 303.260602 
L 515.363521 294.931676 
L 515.38118 295.321008 
L 515.769675 307.807445 
L 515.963922 309.019937 
L 516.069875 309.192355 
L 516.105193 305.34631 
L 516.211146 272.878792 
L 516.29944 278.857821 
L 516.370076 265.870814 
L 516.440711 273.96336 
L 516.687935 299.269948 
L 516.988135 305.554881 
L 517.235359 307.487637 
L 517.429607 308.224587 
L 517.606195 308.841956 
L 517.659172 308.786338 
L 517.871078 309.035232 
L 518.047666 309.420393 
L 518.188937 309.336964 
L 518.206596 309.309155 
L 518.259573 309.378679 
L 518.489138 309.754106 
L 518.771679 309.851439 
L 518.965927 309.976582 
L 519.001244 309.920963 
L 519.089539 309.865344 
L 519.124856 309.920963 
L 519.142515 309.976582 
L 519.177833 309.837534 
L 519.21315 309.684582 
L 519.283786 309.879249 
L 519.460374 310.0322 
L 519.53101 310.101724 
L 519.778234 310.410409 
L 519.937163 310.410409 
L 520.14907 310.616199 
L 520.166728 310.603684 
L 520.360976 310.410409 
L 520.590541 310.728827 
L 520.6082 310.716313 
L 520.767129 310.516085 
L 520.837765 310.666256 
L 521.049671 310.866484 
L 521.173283 310.816427 
L 521.2086 307.594703 
L 521.226259 305.972023 
L 521.314554 307.876969 
L 521.597095 310.046105 
L 521.879637 310.753855 
L 522.762579 311.250254 
L 522.939168 311.350368 
L 523.115756 311.350368 
L 524.016358 311.371225 
L 524.13997 310.961036 
L 524.157628 310.986064 
L 524.334217 310.778884 
L 524.369535 310.841455 
L 524.528464 311.048635 
L 524.546123 311.011093 
L 524.846324 311.143187 
L 524.863982 311.118159 
L 525.022912 311.105645 
L 525.252477 311.250254 
L 525.482042 311.350368 
L 525.67629 311.44492 
L 525.852878 311.44492 
L 526.082443 311.589529 
L 527.018362 311.542253 
L 527.141974 311.400425 
L 527.194951 311.496367 
L 527.247927 311.400425 
L 527.901305 311.072273 
L 528.024917 311.105645 
L 528.183846 311.250254 
L 528.642976 311.44492 
L 528.801906 311.400425 
L 529.084448 311.589529 
L 529.225718 311.520005 
L 529.278695 311.422672 
L 529.331671 311.53252 
L 529.384648 311.520005 
L 529.419966 311.469948 
L 529.455283 311.44492 
L 529.525919 311.494977 
L 529.773143 311.545034 
L 529.790802 311.657662 
L 529.843778 311.337854 
L 529.949731 311.168216 
L 529.985049 306.528211 
L 530.196955 121.567643 
L 530.26759 178.57699 
L 530.479497 292.331494 
L 530.691403 302.565366 
L 530.973944 306.375259 
L 531.274145 308.554129 
L 531.291804 308.474872 
L 531.397757 307.626684 
L 531.50371 264.369104 
L 531.66264 211.809268 
L 531.715616 221.125429 
L 531.96284 282.806761 
L 532.192405 297.462335 
L 532.527923 304.762312 
L 532.845783 307.223447 
L 533.251936 308.419253 
L 533.446183 308.08554 
L 533.516819 308.182873 
L 533.622772 308.308015 
L 533.640431 308.266301 
L 533.675748 308.029921 
L 533.711066 307.529351 
L 533.764043 308.113349 
L 533.922972 308.530491 
L 534.187855 309.019937 
L 535.123774 309.740201 
L 535.159092 309.698487 
L 535.212068 309.79582 
L 535.529928 309.920963 
L 535.618222 309.920963 
L 535.635881 309.948772 
L 535.883105 310.143438 
L 536.077352 310.2366 
L 536.218623 310.488275 
L 536.253941 310.460466 
L 536.41287 310.304733 
L 536.483506 310.410409 
L 536.607118 310.50218 
L 536.624776 310.460466 
L 536.960295 310.435437 
L 537.119224 307.223447 
L 537.207518 308.127254 
L 537.878555 309.920963 
L 538.10812 310.004391 
L 538.425979 310.304733 
L 538.637885 310.410409 
L 538.796815 310.553627 
L 538.938086 310.566142 
L 538.955745 310.541113 
L 539.02638 310.578656 
L 539.044039 310.603684 
L 539.308922 310.666256 
L 539.503169 310.76637 
L 539.662099 310.803912 
L 539.768052 310.866484 
L 539.926981 311.011093 
L 539.997617 311.048635 
L 540.015276 310.962426 
L 540.138888 310.904026 
L 540.509723 311.06115 
L 540.633335 311.06115 
L 540.880559 311.200197 
L 541.145442 311.287797 
L 541.357348 311.400425 
L 541.427984 311.360101 
L 541.551595 309.726297 
L 541.604572 306.931448 
L 541.675207 308.506853 
L 541.798819 308.663976 
L 542.240291 309.642868 
L 542.628785 310.304733 
L 542.699421 310.269971 
L 542.752397 305.972023 
L 542.823033 306.500402 
L 542.964303 301.411275 
L 542.999621 301.856226 
L 543.052598 303.038127 
L 543.087915 302.120415 
L 543.17621 299.408995 
L 543.211527 300.132041 
L 543.688316 308.391444 
L 543.988517 309.615059 
L 544.412329 310.342276 
L 545.330589 310.866484 
L 545.613131 310.97355 
L 545.736743 311.011093 
L 545.93099 311.118159 
L 546.125238 311.155702 
L 546.178214 311.118159 
L 546.231191 311.155702 
L 546.443097 311.250254 
L 546.778615 311.350368 
L 546.884568 311.400425 
L 546.902227 311.38791 
L 547.273063 311.494977 
L 547.396675 311.494977 
L 547.414334 311.469948 
L 547.484969 311.44492 
L 547.520287 311.494977 
L 547.767511 311.545034 
L 548.809383 311.634024 
L 548.915336 311.684081 
L 548.950654 311.659053 
L 549.16256 311.634024 
L 549.46276 311.717452 
L 549.604031 311.717452 
L 549.798278 311.717452 
L 550.963762 311.817566 
L 551.15801 311.817566 
L 551.758411 311.906556 
L 551.934999 311.951052 
L 552.146905 311.928804 
L 552.358812 311.951052 
L 552.500082 311.817566 
L 552.641353 311.939928 
L 552.976871 311.684081 
L 553.736202 311.784195 
L 553.930449 311.862061 
L 555.166569 311.970518 
L 555.360816 311.951052 
L 556.438006 312.056727 
L 556.5263 312.078975 
L 556.543959 312.045604 
L 556.702889 311.773071 
L 556.791183 310.004391 
L 556.879477 310.541113 
L 557.109042 311.250254 
L 557.162019 311.350368 
L 557.320948 311.706329 
L 557.338607 311.682691 
L 557.373925 311.634024 
L 557.44456 311.684081 
L 557.674125 311.773071 
L 557.956667 311.951052 
L 558.486432 312.03448 
L 558.663021 312.156841 
L 558.786633 312.117908 
L 560.234659 312.169356 
L 560.287635 312.279203 
L 560.340612 312.167965 
L 561.011648 312.259736 
L 561.205895 312.318136 
L 562.035861 312.425203 
L 562.159473 312.366803 
L 562.406697 312.347336 
L 562.653921 312.357069 
L 562.918804 312.453012 
L 563.007098 312.497507 
L 563.042416 312.468307 
L 563.413252 312.546174 
L 563.819405 312.468307 
L 563.960676 312.357069 
L 563.978335 312.386269 
L 564.119606 312.415469 
L 564.313853 312.47804 
L 564.490441 312.50724 
L 565.232113 312.434936 
L 565.355725 312.396003 
L 565.991444 312.404345 
L 566.115056 310.828941 
L 566.150373 310.250504 
L 566.20335 310.753855 
L 566.379938 311.817566 
L 566.485891 311.850938 
L 566.521209 311.960785 
L 566.591845 311.817566 
L 566.697798 311.350368 
L 566.750774 311.457434 
L 566.786092 311.545034 
L 566.803751 311.404596 
L 566.892045 299.242139 
L 566.980339 304.359075 
L 567.156928 309.615059 
L 567.439469 311.130673 
L 567.704352 311.634024 
L 567.863282 311.728576 
L 568.057529 311.862061 
L 568.375388 311.951052 
L 568.551977 312.03448 
L 569.099401 312.137375 
L 569.27599 312.167965 
L 569.523214 312.201337 
L 570.406156 312.29867 
L 570.547427 312.29867 
L 570.741674 312.279203 
L 572.225018 312.208289 
L 572.295653 311.704938 
L 572.330971 303.816791 
L 572.436924 206.386427 
L 572.4899 167.731309 
L 572.542877 192.620756 
L 572.772442 296.725385 
L 573.002007 305.429739 
L 573.072642 306.180593 
L 573.10796 305.930308 
L 573.178596 299.617566 
L 573.249231 302.940794 
L 573.461137 308.002111 
L 573.973244 309.920963 
L 574.061538 309.990486 
L 574.34408 310.396504 
L 575.032775 310.810865 
L 575.315316 310.917931 
L 575.438928 310.942959 
L 575.827423 311.094521 
L 575.933376 311.139016 
L 576.092306 311.183511 
L 576.410165 311.283625 
L 576.551436 311.315606 
L 576.710365 311.32812 
L 577.25779 311.422672 
L 577.416719 311.454653 
L 577.593308 311.41711 
L 577.734579 311.511662 
L 577.840532 311.526494 
L 577.946485 311.241911 
L 577.964144 311.304482 
L 577.981803 311.291968 
L 578.158391 310.160124 
L 578.317321 310.421533 
L 578.47625 310.865093 
L 578.63518 310.984674 
L 579.041334 311.595091 
L 579.306216 311.684081 
L 579.465146 311.773071 
L 580.930831 311.849547 
L 580.948489 311.94688 
L 580.966148 311.800881 
L 581.107419 306.08326 
L 581.178054 308.434548 
L 581.24869 309.165936 
L 581.301666 308.665367 
L 581.319325 308.591672 
L 581.372302 308.815538 
L 581.849091 310.606465 
L 582.078656 311.03334 
L 582.537786 311.259987 
L 582.643739 311.216882 
L 582.661398 311.254425 
L 582.679057 311.229397 
L 582.749692 311.291968 
L 582.873304 311.367053 
L 582.890963 311.329511 
L 583.208822 311.236349 
L 583.491364 311.311435 
L 584.391965 311.412939 
L 584.550895 311.494977 
L 585.99892 311.396253 
L 586.175509 311.333682 
L 586.193168 311.358711 
L 586.334439 311.378177 
L 586.864204 311.447701 
L 586.952498 311.529739 
L 586.970157 311.506101 
L 587.111428 311.422672 
L 587.23504 311.479682 
L 587.252699 311.467167 
L 587.270358 311.526958 
L 587.376311 311.656272 
L 587.39397 311.631243 
L 587.411628 311.656272 
L 587.446946 311.536691 
L 587.517582 311.511662 
L 587.552899 311.561719 
L 588.559454 311.456044 
L 588.683066 311.405987 
L 588.700725 311.431015 
L 588.877313 311.500539 
L 589.442396 311.400425 
L 589.636644 311.394863 
L 590.272362 311.294749 
L 590.342998 311.00414 
L 590.484268 310.379818 
L 590.537245 310.299171 
L 590.572563 310.377037 
L 590.996375 311.431015 
L 591.137646 311.011093 
L 591.367211 310.499399 
L 591.473164 310.549456 
L 591.808682 311.038902 
L 591.932294 310.955474 
L 592.055906 310.894293 
L 592.30313 311.127892 
L 592.956507 311.216882 
L 593.097778 311.261378 
L 594.104333 311.155702 
L 594.245603 311.155702 
L 594.351556 311.189073 
L 594.386874 311.155702 
L 594.651757 311.011093 
L 594.669416 311.06115 
L 594.810687 311.09313 
L 594.987275 310.961036 
L 595.252158 311.244692 
L 595.464064 311.133454 
L 595.8349 311.23913 
L 595.958512 311.296139 
L 596.082124 311.333682 
L 596.664866 311.228006 
L 596.788478 311.228006 
L 596.91209 311.273892 
L 597.000384 311.360101 
L 597.141655 311.467167 
L 597.424196 311.367053 
L 597.530149 311.266939 
L 597.565467 311.304482 
L 597.795032 311.400425 
L 597.812691 311.367053 
L 598.024597 311.228006 
L 598.218845 311.361492 
L 598.360115 311.456044 
L 598.466068 311.506101 
L 598.607339 311.372615 
L 598.836904 311.336463 
L 598.995834 311.383739 
L 599.119446 311.405987 
L 599.349011 311.372615 
L 599.507941 311.405987 
L 599.949412 311.443529 
L 599.967071 311.571453 
L 600.002388 311.141797 
L 600.020047 311.23913 
L 600.249612 309.299422 
L 600.267271 309.256317 
L 600.28493 309.356431 
L 600.532154 310.858141 
L 600.691084 311.261378 
L 600.708742 311.248863 
L 600.814695 311.189073 
L 600.832354 311.211321 
L 600.991284 311.311435 
L 601.167872 311.456044 
L 602.086133 311.506101 
L 602.156768 311.645148 
L 602.209745 311.607605 
L 602.562922 311.481072 
L 602.933757 311.372615 
L 603.075028 311.383739 
L 603.286934 311.506101 
L 603.534158 311.456044 
L 603.675429 311.561719 
L 603.693088 311.583967 
L 603.763723 311.506101 
L 603.940312 311.405987 
L 604.099242 311.550596 
L 604.134559 311.506101 
L 604.258171 311.405987 
L 604.399442 311.405987 
L 604.57603 311.528348 
L 604.752619 311.418501 
L 604.770278 311.456044 
L 605.317702 311.550596 
L 605.370679 311.595091 
L 605.441314 311.550596 
L 605.882785 311.468558 
L 606.041715 311.361492 
L 606.306598 311.632634 
L 606.677434 311.778633 
L 606.88934 311.506101 
L 606.906999 311.539472 
L 607.277835 311.645148 
L 607.330811 311.595091 
L 607.383788 311.645148 
L 607.595694 311.734138 
L 608.372683 311.823128 
L 608.496295 311.823128 
L 608.690543 311.800881 
L 608.814154 311.812004 
L 609.026061 311.723014 
L 609.237967 311.745262 
L 609.485191 311.645148 
L 609.50285 311.689643 
L 609.626462 311.812004 
L 609.679438 311.734138 
L 609.838368 311.506101 
L 609.856027 311.528348 
L 610.156227 311.734138 
L 610.544722 311.834252 
L 610.756628 311.942709 
L 610.791946 311.867623 
L 611.869135 311.951052 
L 611.922112 312.040042 
L 611.939771 312.00667 
L 611.992747 310.482713 
L 612.081042 310.940179 
L 612.328266 311.506101 
L 613.052278 311.867623 
L 613.158232 311.823128 
L 613.17589 311.845376 
L 613.281843 311.823128 
L 613.299502 311.845376 
L 613.49375 311.912118 
L 613.882244 312.00667 
L 614.005856 312.078975 
L 614.111809 312.00667 
L 614.129468 312.017794 
L 614.288398 312.040042 
L 615.17134 311.951052 
L 615.347929 311.834252 
L 615.524517 311.912118 
L 615.7894 311.689643 
L 615.807059 311.71189 
L 616.036624 311.823128 
L 616.389801 311.931585 
L 616.513413 311.951052 
L 616.531072 311.931585 
L 618.614816 311.823128 
L 618.86204 311.778633 
L 619.02097 311.867623 
L 619.692006 311.951052 
L 619.727324 312.015013 
L 619.762641 311.855109 
L 619.7803 311.899604 
L 619.868594 310.744122 
L 620.027524 296.753194 
L 620.062842 298.324427 
L 620.23943 304.498122 
L 620.574948 309.731858 
L 620.928125 310.845626 
L 621.087055 311.027778 
L 621.263644 311.12233 
L 621.47555 311.411549 
L 621.669797 311.261378 
L 621.722774 311.348977 
L 622.022974 311.600653 
L 622.181904 311.600653 
L 622.340833 311.689643 
L 623.047187 311.778633 
L 623.206117 311.812004 
L 623.365047 311.823128 
L 623.753541 312.00528 
L 623.7712 311.963566 
L 623.824177 311.912118 
L 623.841836 311.994156 
L 623.877153 311.941318 
L 624.124377 311.951052 
L 624.565848 311.8565 
L 624.707119 311.789757 
L 624.883708 311.912118 
L 626.119827 311.995547 
L 626.243439 312.040042 
L 626.261098 312.028918 
L 626.473004 312.049775 
L 626.649593 312.069242 
L 626.896817 312.078975 
L 627.514876 311.973299 
L 627.673806 311.951052 
L 628.274207 312.040042 
L 628.362501 312.129032 
L 628.415478 312.098442 
L 630.093068 312.129032 
L 630.234339 312.117908 
L 630.357951 312.162403 
L 630.53454 312.059508 
L 630.675811 312.049775 
L 630.817081 312.078975 
L 632.176813 312.172137 
L 632.300425 312.191603 
L 632.318084 312.172137 
L 632.512331 312.18187 
L 632.635943 312.162403 
L 634.119286 312.259736 
L 634.295875 312.29867 
L 634.401828 312.279203 
L 634.419487 312.318136 
L 636.909385 312.220803 
L 637.103632 312.162403 
L 637.28022 312.078975 
L 637.43915 311.995547 
L 638.569316 311.900995 
L 638.692928 311.889871 
L 638.922493 311.912118 
L 639.328647 311.889871 
L 639.487577 311.588138 
L 639.522894 311.550596 
L 639.59353 311.600653 
L 641.959816 311.493586 
L 642.04811 311.456044 
L 642.065769 311.493586 
L 642.277675 311.550596 
L 642.418946 311.072273 
L 642.50724 311.211321 
L 642.80744 311.456044 
L 643.372524 311.56311 
L 643.549112 311.689643 
L 644.34376 311.778633 
L 644.485031 311.778633 
L 645.26202 311.689643 
L 645.509244 311.456044 
L 645.544562 311.506101 
L 646.180281 311.599262 
L 646.19794 311.632634 
L 646.215598 311.56311 
L 646.286234 311.56311 
L 646.604093 311.656272 
L 646.780682 311.667395 
L 646.974929 311.734138 
L 647.928507 311.645148 
L 648.069778 311.645148 
L 648.211048 311.645148 
L 648.369978 311.411549 
L 648.422955 311.456044 
L 648.970379 311.550596 
L 649.093991 311.550596 
L 649.623756 311.656272 
L 649.853321 311.778633 
L 650.912852 311.678519 
L 651.036464 311.689643 
L 651.778136 311.778633 
L 651.831113 311.845376 
L 651.884089 311.734138 
L 652.219607 311.834252 
L 652.237266 311.867623 
L 652.290243 311.734138 
L 653.208503 311.834252 
L 653.40275 311.912118 
L 654.003151 312.00667 
L 654.038469 312.129032 
L 654.109104 311.995547 
L 654.32101 311.912118 
L 654.462281 311.700767 
L 654.497599 311.767509 
L 654.63887 311.899604 
L 654.674187 311.867623 
L 655.645424 311.962175 
L 655.804354 311.995547 
L 658.241275 312.099832 
L 658.258934 312.117908 
L 658.276593 311.980715 
L 658.417864 310.835893 
L 658.506158 305.248977 
L 658.559134 306.917543 
L 658.753382 310.018296 
L 658.824017 310.193495 
L 658.859335 310.100334 
L 658.894653 310.0322 
L 658.92997 310.112848 
L 659.283147 311.283625 
L 659.3891 311.346196 
L 659.618665 311.661833 
L 659.84823 311.750824 
L 660.042478 311.967737 
L 660.236725 311.91768 
L 660.554584 312.012232 
L 660.642879 311.967737 
L 660.695855 312.012232 
L 660.890103 312.124861 
L 661.08435 312.144327 
L 661.737727 312.382098 
L 661.931975 312.407126 
L 662.391105 312.494726 
L 662.514717 312.562859 
L 662.532376 312.533659 
L 662.761941 312.533659 
L 663.609565 312.640726 
L 663.786154 312.688002 
L 663.980401 312.71303 
L 664.510167 312.815925 
L 664.828026 312.849296 
L 664.969297 312.867373 
L 665.198862 312.857639 
L 665.357792 312.929944 
L 665.940534 312.824268 
L 666.15244 312.596231 
L 666.276052 312.596231 
L 666.823476 312.529488 
L 666.964747 312.290327 
L 667.035382 311.889871 
L 667.123677 310.933226 
L 667.194312 311.133454 
L 667.494512 311.923242 
L 667.759395 312.170746 
L 667.935984 312.319527 
L 668.924879 312.746402 
L 669.242739 312.838173 
L 669.36635 312.818706 
L 669.966751 312.924382 
L 670.055046 312.957753 
L 670.072704 312.907696 
L 670.108022 312.729716 
L 670.108022 312.729716 
" clip-path="url(#p89bfeed6de)" style="fill: none; stroke: #1f77b4; stroke-width: 1.5; stroke-linecap: square"/>
   </g>
   <g id="patch_3">
    <path d="M 39.65 327.558125 
L 39.65 22.318125 
" style="fill: none; stroke: #000000; stroke-width: 0.8; stroke-linejoin: miter; stroke-linecap: square"/>
   </g>
   <g id="patch_4">
    <path d="M 700.129833 327.558125 
L 700.129833 22.318125 
" style="fill: none; stroke: #000000; stroke-width: 0.8; stroke-linejoin: miter; stroke-linecap: square"/>
   </g>
   <g id="patch_5">
    <path d="M 39.65 327.558125 
L 700.129833 327.558125 
" style="fill: none; stroke: #000000; stroke-width: 0.8; stroke-linejoin: miter; stroke-linecap: square"/>
   </g>
   <g id="patch_6">
    <path d="M 39.65 22.318125 
L 700.129833 22.318125 
" style="fill: none; stroke: #000000; stroke-width: 0.8; stroke-linejoin: miter; stroke-linecap: square"/>
   </g>
   <g id="text_16">
    <!-- training -->
    <g transform="translate(346.646479 16.318125) scale(0.12 -0.12)">
     <defs>
      <path id="DejaVuSans-74" d="M 1172 4494 
L 1172 3500 
L 2356 3500 
L 2356 3053 
L 1172 3053 
L 1172 1153 
Q 1172 725 1289 603 
Q 1406 481 1766 481 
L 2356 481 
L 2356 0 
L 1766 0 
Q 1100 0 847 248 
Q 594 497 594 1153 
L 594 3053 
L 172 3053 
L 172 3500 
L 594 3500 
L 594 4494 
L 1172 4494 
z
" transform="scale(0.015625)"/>
      <path id="DejaVuSans-72" d="M 2631 2963 
Q 2534 3019 2420 3045 
Q 2306 3072 2169 3072 
Q 1681 3072 1420 2755 
Q 1159 2438 1159 1844 
L 1159 0 
L 581 0 
L 581 3500 
L 1159 3500 
L 1159 2956 
Q 1341 3275 1631 3429 
Q 1922 3584 2338 3584 
Q 2397 3584 2469 3576 
Q 2541 3569 2628 3553 
L 2631 2963 
z
" transform="scale(0.015625)"/>
      <path id="DejaVuSans-61" d="M 2194 1759 
Q 1497 1759 1228 1600 
Q 959 1441 959 1056 
Q 959 750 1161 570 
Q 1363 391 1709 391 
Q 2188 391 2477 730 
Q 2766 1069 2766 1631 
L 2766 1759 
L 2194 1759 
z
M 3341 1997 
L 3341 0 
L 2766 0 
L 2766 531 
Q 2569 213 2275 61 
Q 1981 -91 1556 -91 
Q 1019 -91 701 211 
Q 384 513 384 1019 
Q 384 1609 779 1909 
Q 1175 2209 1959 2209 
L 2766 2209 
L 2766 2266 
Q 2766 2663 2505 2880 
Q 2244 3097 1772 3097 
Q 1472 3097 1187 3025 
Q 903 2953 641 2809 
L 641 3341 
Q 956 3463 1253 3523 
Q 1550 3584 1831 3584 
Q 2591 3584 2966 3190 
Q 3341 2797 3341 1997 
z
" transform="scale(0.015625)"/>
      <path id="DejaVuSans-69" d="M 603 3500 
L 1178 3500 
L 1178 0 
L 603 0 
L 603 3500 
z
M 603 4863 
L 1178 4863 
L 1178 4134 
L 603 4134 
L 603 4863 
z
" transform="scale(0.015625)"/>
      <path id="DejaVuSans-6e" d="M 3513 2113 
L 3513 0 
L 2938 0 
L 2938 2094 
Q 2938 2591 2744 2837 
Q 2550 3084 2163 3084 
Q 1697 3084 1428 2787 
Q 1159 2491 1159 1978 
L 1159 0 
L 581 0 
L 581 3500 
L 1159 3500 
L 1159 2956 
Q 1366 3272 1645 3428 
Q 1925 3584 2291 3584 
Q 2894 3584 3203 3211 
Q 3513 2838 3513 2113 
z
" transform="scale(0.015625)"/>
      <path id="DejaVuSans-67" d="M 2906 1791 
Q 2906 2416 2648 2759 
Q 2391 3103 1925 3103 
Q 1463 3103 1205 2759 
Q 947 2416 947 1791 
Q 947 1169 1205 825 
Q 1463 481 1925 481 
Q 2391 481 2648 825 
Q 2906 1169 2906 1791 
z
M 3481 434 
Q 3481 -459 3084 -895 
Q 2688 -1331 1869 -1331 
Q 1566 -1331 1297 -1286 
Q 1028 -1241 775 -1147 
L 775 -588 
Q 1028 -725 1275 -790 
Q 1522 -856 1778 -856 
Q 2344 -856 2625 -561 
Q 2906 -266 2906 331 
L 2906 616 
Q 2728 306 2450 153 
Q 2172 0 1784 0 
Q 1141 0 747 490 
Q 353 981 353 1791 
Q 353 2603 747 3093 
Q 1141 3584 1784 3584 
Q 2172 3584 2450 3431 
Q 2728 3278 2906 2969 
L 2906 3500 
L 3481 3500 
L 3481 434 
z
" transform="scale(0.015625)"/>
     </defs>
     <use xlink:href="#DejaVuSans-74"/>
     <use xlink:href="#DejaVuSans-72" x="39.208984"/>
     <use xlink:href="#DejaVuSans-61" x="80.322266"/>
     <use xlink:href="#DejaVuSans-69" x="141.601562"/>
     <use xlink:href="#DejaVuSans-6e" x="169.384766"/>
     <use xlink:href="#DejaVuSans-69" x="232.763672"/>
     <use xlink:href="#DejaVuSans-6e" x="260.546875"/>
     <use xlink:href="#DejaVuSans-67" x="323.925781"/>
    </g>
   </g>
   <g id="legend_1">
    <g id="patch_7">
     <path d="M 614.768895 44.99625 
L 693.129833 44.99625 
Q 695.129833 44.99625 695.129833 42.99625 
L 695.129833 29.318125 
Q 695.129833 27.318125 693.129833 27.318125 
L 614.768895 27.318125 
Q 612.768895 27.318125 612.768895 29.318125 
L 612.768895 42.99625 
Q 612.768895 44.99625 614.768895 44.99625 
z
" style="fill: #ffffff; opacity: 0.8; stroke: #cccccc; stroke-linejoin: miter"/>
    </g>
    <g id="line2d_17">
     <path d="M 616.768895 35.416563 
L 626.768895 35.416563 
L 636.768895 35.416563 
" style="fill: none; stroke: #1f77b4; stroke-width: 1.5; stroke-linecap: square"/>
    </g>
    <g id="text_17">
     <!-- observed -->
     <g transform="translate(644.768895 38.916563) scale(0.1 -0.1)">
      <defs>
       <path id="DejaVuSans-6f" d="M 1959 3097 
Q 1497 3097 1228 2736 
Q 959 2375 959 1747 
Q 959 1119 1226 758 
Q 1494 397 1959 397 
Q 2419 397 2687 759 
Q 2956 1122 2956 1747 
Q 2956 2369 2687 2733 
Q 2419 3097 1959 3097 
z
M 1959 3584 
Q 2709 3584 3137 3096 
Q 3566 2609 3566 1747 
Q 3566 888 3137 398 
Q 2709 -91 1959 -91 
Q 1206 -91 779 398 
Q 353 888 353 1747 
Q 353 2609 779 3096 
Q 1206 3584 1959 3584 
z
" transform="scale(0.015625)"/>
       <path id="DejaVuSans-62" d="M 3116 1747 
Q 3116 2381 2855 2742 
Q 2594 3103 2138 3103 
Q 1681 3103 1420 2742 
Q 1159 2381 1159 1747 
Q 1159 1113 1420 752 
Q 1681 391 2138 391 
Q 2594 391 2855 752 
Q 3116 1113 3116 1747 
z
M 1159 2969 
Q 1341 3281 1617 3432 
Q 1894 3584 2278 3584 
Q 2916 3584 3314 3078 
Q 3713 2572 3713 1747 
Q 3713 922 3314 415 
Q 2916 -91 2278 -91 
Q 1894 -91 1617 61 
Q 1341 213 1159 525 
L 1159 0 
L 581 0 
L 581 4863 
L 1159 4863 
L 1159 2969 
z
" transform="scale(0.015625)"/>
       <path id="DejaVuSans-73" d="M 2834 3397 
L 2834 2853 
Q 2591 2978 2328 3040 
Q 2066 3103 1784 3103 
Q 1356 3103 1142 2972 
Q 928 2841 928 2578 
Q 928 2378 1081 2264 
Q 1234 2150 1697 2047 
L 1894 2003 
Q 2506 1872 2764 1633 
Q 3022 1394 3022 966 
Q 3022 478 2636 193 
Q 2250 -91 1575 -91 
Q 1294 -91 989 -36 
Q 684 19 347 128 
L 347 722 
Q 666 556 975 473 
Q 1284 391 1588 391 
Q 1994 391 2212 530 
Q 2431 669 2431 922 
Q 2431 1156 2273 1281 
Q 2116 1406 1581 1522 
L 1381 1569 
Q 847 1681 609 1914 
Q 372 2147 372 2553 
Q 372 3047 722 3315 
Q 1072 3584 1716 3584 
Q 2034 3584 2315 3537 
Q 2597 3491 2834 3397 
z
" transform="scale(0.015625)"/>
       <path id="DejaVuSans-65" d="M 3597 1894 
L 3597 1613 
L 953 1613 
Q 991 1019 1311 708 
Q 1631 397 2203 397 
Q 2534 397 2845 478 
Q 3156 559 3463 722 
L 3463 178 
Q 3153 47 2828 -22 
Q 2503 -91 2169 -91 
Q 1331 -91 842 396 
Q 353 884 353 1716 
Q 353 2575 817 3079 
Q 1281 3584 2069 3584 
Q 2775 3584 3186 3129 
Q 3597 2675 3597 1894 
z
M 3022 2063 
Q 3016 2534 2758 2815 
Q 2500 3097 2075 3097 
Q 1594 3097 1305 2825 
Q 1016 2553 972 2059 
L 3022 2063 
z
" transform="scale(0.015625)"/>
       <path id="DejaVuSans-76" d="M 191 3500 
L 800 3500 
L 1894 563 
L 2988 3500 
L 3597 3500 
L 2284 0 
L 1503 0 
L 191 3500 
z
" transform="scale(0.015625)"/>
       <path id="DejaVuSans-64" d="M 2906 2969 
L 2906 4863 
L 3481 4863 
L 3481 0 
L 2906 0 
L 2906 525 
Q 2725 213 2448 61 
Q 2172 -91 1784 -91 
Q 1150 -91 751 415 
Q 353 922 353 1747 
Q 353 2572 751 3078 
Q 1150 3584 1784 3584 
Q 2172 3584 2448 3432 
Q 2725 3281 2906 2969 
z
M 947 1747 
Q 947 1113 1208 752 
Q 1469 391 1925 391 
Q 2381 391 2643 752 
Q 2906 1113 2906 1747 
Q 2906 2381 2643 2742 
Q 2381 3103 1925 3103 
Q 1469 3103 1208 2742 
Q 947 2381 947 1747 
z
" transform="scale(0.015625)"/>
      </defs>
      <use xlink:href="#DejaVuSans-6f"/>
      <use xlink:href="#DejaVuSans-62" x="61.181641"/>
      <use xlink:href="#DejaVuSans-73" x="124.658203"/>
      <use xlink:href="#DejaVuSans-65" x="176.757812"/>
      <use xlink:href="#DejaVuSans-72" x="238.28125"/>
      <use xlink:href="#DejaVuSans-76" x="279.394531"/>
      <use xlink:href="#DejaVuSans-65" x="338.574219"/>
      <use xlink:href="#DejaVuSans-64" x="400.097656"/>
     </g>
    </g>
   </g>
  </g>
 </g>
 <defs>
  <clipPath id="p89bfeed6de">
   <rect x="39.65" y="22.318125" width="660.479833" height="305.24"/>
  </clipPath>
 </defs>
</svg>
