<?xml version="1.0" encoding="utf-8" standalone="no"?>
<!DOCTYPE svg PUBLIC "-//W3C//DTD SVG 1.1//EN"
  "http://www.w3.org/Graphics/SVG/1.1/DTD/svg11.dtd">
<svg xmlns:xlink="http://www.w3.org/1999/xlink" width="720pt" height="360pt" viewBox="0 0 720 360" xmlns="http://www.w3.org/2000/svg" version="1.1">
 <metadata>
  <rdf:RDF xmlns:dc="http://purl.org/dc/elements/1.1/" xmlns:cc="http://creativecommons.org/ns#" xmlns:rdf="http://www.w3.org/1999/02/22-rdf-syntax-ns#">
   <cc:Work>
    <dc:type rdf:resource="http://purl.org/dc/dcmitype/StillImage"/>
    <dc:date>2023-10-23T10:55:22.152860</dc:date>
    <dc:format>image/svg+xml</dc:format>
    <dc:creator>
     <cc:Agent>
      <dc:title>Matplotlib v3.7.1, https://matplotlib.org/</dc:title>
     </cc:Agent>
    </dc:creator>
   </cc:Work>
  </rdf:RDF>
 </metadata>
 <defs>
  <style type="text/css">*{stroke-linejoin: round; stroke-linecap: butt}</style>
 </defs>
 <g id="figure_1">
  <g id="patch_1">
   <path d="M 0 360 
L 720 360 
L 720 0 
L 0 0 
z
" style="fill: #ffffff"/>
  </g>
  <g id="axes_1">
   <g id="patch_2">
    <path d="M 90 288 
L 648 288 
L 648 43.2 
L 90 43.2 
z
" style="fill: #ffffff"/>
   </g>
   <g id="matplotlib.axis_1">
    <g id="xtick_1">
     <g id="line2d_1">
      <defs>
       <path id="m2f5f569df1" d="M 0 0 
L 0 3.5 
" style="stroke: #000000; stroke-width: 0.8"/>
      </defs>
      <g>
       <use xlink:href="#m2f5f569df1" x="93.675016" y="288" style="stroke: #000000; stroke-width: 0.8"/>
      </g>
     </g>
     <g id="text_1">
      <!-- 2023-09-17 -->
      <g transform="translate(32.031675 337.765903) rotate(-30) scale(0.12 -0.12)">
       <defs>
        <path id="DejaVuSans-32" d="M 1228 531 
L 3431 531 
L 3431 0 
L 469 0 
L 469 531 
Q 828 903 1448 1529 
Q 2069 2156 2228 2338 
Q 2531 2678 2651 2914 
Q 2772 3150 2772 3378 
Q 2772 3750 2511 3984 
Q 2250 4219 1831 4219 
Q 1534 4219 1204 4116 
Q 875 4013 500 3803 
L 500 4441 
Q 881 4594 1212 4672 
Q 1544 4750 1819 4750 
Q 2544 4750 2975 4387 
Q 3406 4025 3406 3419 
Q 3406 3131 3298 2873 
Q 3191 2616 2906 2266 
Q 2828 2175 2409 1742 
Q 1991 1309 1228 531 
z
" transform="scale(0.015625)"/>
        <path id="DejaVuSans-30" d="M 2034 4250 
Q 1547 4250 1301 3770 
Q 1056 3291 1056 2328 
Q 1056 1369 1301 889 
Q 1547 409 2034 409 
Q 2525 409 2770 889 
Q 3016 1369 3016 2328 
Q 3016 3291 2770 3770 
Q 2525 4250 2034 4250 
z
M 2034 4750 
Q 2819 4750 3233 4129 
Q 3647 3509 3647 2328 
Q 3647 1150 3233 529 
Q 2819 -91 2034 -91 
Q 1250 -91 836 529 
Q 422 1150 422 2328 
Q 422 3509 836 4129 
Q 1250 4750 2034 4750 
z
" transform="scale(0.015625)"/>
        <path id="DejaVuSans-33" d="M 2597 2516 
Q 3050 2419 3304 2112 
Q 3559 1806 3559 1356 
Q 3559 666 3084 287 
Q 2609 -91 1734 -91 
Q 1441 -91 1130 -33 
Q 819 25 488 141 
L 488 750 
Q 750 597 1062 519 
Q 1375 441 1716 441 
Q 2309 441 2620 675 
Q 2931 909 2931 1356 
Q 2931 1769 2642 2001 
Q 2353 2234 1838 2234 
L 1294 2234 
L 1294 2753 
L 1863 2753 
Q 2328 2753 2575 2939 
Q 2822 3125 2822 3475 
Q 2822 3834 2567 4026 
Q 2313 4219 1838 4219 
Q 1578 4219 1281 4162 
Q 984 4106 628 3988 
L 628 4550 
Q 988 4650 1302 4700 
Q 1616 4750 1894 4750 
Q 2613 4750 3031 4423 
Q 3450 4097 3450 3541 
Q 3450 3153 3228 2886 
Q 3006 2619 2597 2516 
z
" transform="scale(0.015625)"/>
        <path id="DejaVuSans-2d" d="M 313 2009 
L 1997 2009 
L 1997 1497 
L 313 1497 
L 313 2009 
z
" transform="scale(0.015625)"/>
        <path id="DejaVuSans-39" d="M 703 97 
L 703 672 
Q 941 559 1184 500 
Q 1428 441 1663 441 
Q 2288 441 2617 861 
Q 2947 1281 2994 2138 
Q 2813 1869 2534 1725 
Q 2256 1581 1919 1581 
Q 1219 1581 811 2004 
Q 403 2428 403 3163 
Q 403 3881 828 4315 
Q 1253 4750 1959 4750 
Q 2769 4750 3195 4129 
Q 3622 3509 3622 2328 
Q 3622 1225 3098 567 
Q 2575 -91 1691 -91 
Q 1453 -91 1209 -44 
Q 966 3 703 97 
z
M 1959 2075 
Q 2384 2075 2632 2365 
Q 2881 2656 2881 3163 
Q 2881 3666 2632 3958 
Q 2384 4250 1959 4250 
Q 1534 4250 1286 3958 
Q 1038 3666 1038 3163 
Q 1038 2656 1286 2365 
Q 1534 2075 1959 2075 
z
" transform="scale(0.015625)"/>
        <path id="DejaVuSans-31" d="M 794 531 
L 1825 531 
L 1825 4091 
L 703 3866 
L 703 4441 
L 1819 4666 
L 2450 4666 
L 2450 531 
L 3481 531 
L 3481 0 
L 794 0 
L 794 531 
z
" transform="scale(0.015625)"/>
        <path id="DejaVuSans-37" d="M 525 4666 
L 3525 4666 
L 3525 4397 
L 1831 0 
L 1172 0 
L 2766 4134 
L 525 4134 
L 525 4666 
z
" transform="scale(0.015625)"/>
       </defs>
       <use xlink:href="#DejaVuSans-32"/>
       <use xlink:href="#DejaVuSans-30" x="63.623047"/>
       <use xlink:href="#DejaVuSans-32" x="127.246094"/>
       <use xlink:href="#DejaVuSans-33" x="190.869141"/>
       <use xlink:href="#DejaVuSans-2d" x="254.492188"/>
       <use xlink:href="#DejaVuSans-30" x="290.576172"/>
       <use xlink:href="#DejaVuSans-39" x="354.199219"/>
       <use xlink:href="#DejaVuSans-2d" x="417.822266"/>
       <use xlink:href="#DejaVuSans-31" x="453.90625"/>
       <use xlink:href="#DejaVuSans-37" x="517.529297"/>
      </g>
     </g>
    </g>
    <g id="xtick_2">
     <g id="line2d_2">
      <g>
       <use xlink:href="#m2f5f569df1" x="151.511337" y="288" style="stroke: #000000; stroke-width: 0.8"/>
      </g>
     </g>
     <g id="text_2">
      <!-- 2023-09-21 -->
      <g transform="translate(89.867995 337.765903) rotate(-30) scale(0.12 -0.12)">
       <use xlink:href="#DejaVuSans-32"/>
       <use xlink:href="#DejaVuSans-30" x="63.623047"/>
       <use xlink:href="#DejaVuSans-32" x="127.246094"/>
       <use xlink:href="#DejaVuSans-33" x="190.869141"/>
       <use xlink:href="#DejaVuSans-2d" x="254.492188"/>
       <use xlink:href="#DejaVuSans-30" x="290.576172"/>
       <use xlink:href="#DejaVuSans-39" x="354.199219"/>
       <use xlink:href="#DejaVuSans-2d" x="417.822266"/>
       <use xlink:href="#DejaVuSans-32" x="453.90625"/>
       <use xlink:href="#DejaVuSans-31" x="517.529297"/>
      </g>
     </g>
    </g>
    <g id="xtick_3">
     <g id="line2d_3">
      <g>
       <use xlink:href="#m2f5f569df1" x="209.347657" y="288" style="stroke: #000000; stroke-width: 0.8"/>
      </g>
     </g>
     <g id="text_3">
      <!-- 2023-09-25 -->
      <g transform="translate(147.704315 337.765903) rotate(-30) scale(0.12 -0.12)">
       <defs>
        <path id="DejaVuSans-35" d="M 691 4666 
L 3169 4666 
L 3169 4134 
L 1269 4134 
L 1269 2991 
Q 1406 3038 1543 3061 
Q 1681 3084 1819 3084 
Q 2600 3084 3056 2656 
Q 3513 2228 3513 1497 
Q 3513 744 3044 326 
Q 2575 -91 1722 -91 
Q 1428 -91 1123 -41 
Q 819 9 494 109 
L 494 744 
Q 775 591 1075 516 
Q 1375 441 1709 441 
Q 2250 441 2565 725 
Q 2881 1009 2881 1497 
Q 2881 1984 2565 2268 
Q 2250 2553 1709 2553 
Q 1456 2553 1204 2497 
Q 953 2441 691 2322 
L 691 4666 
z
" transform="scale(0.015625)"/>
       </defs>
       <use xlink:href="#DejaVuSans-32"/>
       <use xlink:href="#DejaVuSans-30" x="63.623047"/>
       <use xlink:href="#DejaVuSans-32" x="127.246094"/>
       <use xlink:href="#DejaVuSans-33" x="190.869141"/>
       <use xlink:href="#DejaVuSans-2d" x="254.492188"/>
       <use xlink:href="#DejaVuSans-30" x="290.576172"/>
       <use xlink:href="#DejaVuSans-39" x="354.199219"/>
       <use xlink:href="#DejaVuSans-2d" x="417.822266"/>
       <use xlink:href="#DejaVuSans-32" x="453.90625"/>
       <use xlink:href="#DejaVuSans-35" x="517.529297"/>
      </g>
     </g>
    </g>
    <g id="xtick_4">
     <g id="line2d_4">
      <g>
       <use xlink:href="#m2f5f569df1" x="267.183978" y="288" style="stroke: #000000; stroke-width: 0.8"/>
      </g>
     </g>
     <g id="text_4">
      <!-- 2023-09-29 -->
      <g transform="translate(205.540636 337.765903) rotate(-30) scale(0.12 -0.12)">
       <use xlink:href="#DejaVuSans-32"/>
       <use xlink:href="#DejaVuSans-30" x="63.623047"/>
       <use xlink:href="#DejaVuSans-32" x="127.246094"/>
       <use xlink:href="#DejaVuSans-33" x="190.869141"/>
       <use xlink:href="#DejaVuSans-2d" x="254.492188"/>
       <use xlink:href="#DejaVuSans-30" x="290.576172"/>
       <use xlink:href="#DejaVuSans-39" x="354.199219"/>
       <use xlink:href="#DejaVuSans-2d" x="417.822266"/>
       <use xlink:href="#DejaVuSans-32" x="453.90625"/>
       <use xlink:href="#DejaVuSans-39" x="517.529297"/>
      </g>
     </g>
    </g>
    <g id="xtick_5">
     <g id="line2d_5">
      <g>
       <use xlink:href="#m2f5f569df1" x="296.102138" y="288" style="stroke: #000000; stroke-width: 0.8"/>
      </g>
     </g>
     <g id="text_5">
      <!-- 2023-10-01 -->
      <g transform="translate(234.458796 337.765903) rotate(-30) scale(0.12 -0.12)">
       <use xlink:href="#DejaVuSans-32"/>
       <use xlink:href="#DejaVuSans-30" x="63.623047"/>
       <use xlink:href="#DejaVuSans-32" x="127.246094"/>
       <use xlink:href="#DejaVuSans-33" x="190.869141"/>
       <use xlink:href="#DejaVuSans-2d" x="254.492188"/>
       <use xlink:href="#DejaVuSans-31" x="290.576172"/>
       <use xlink:href="#DejaVuSans-30" x="354.199219"/>
       <use xlink:href="#DejaVuSans-2d" x="417.822266"/>
       <use xlink:href="#DejaVuSans-30" x="453.90625"/>
       <use xlink:href="#DejaVuSans-31" x="517.529297"/>
      </g>
     </g>
    </g>
    <g id="xtick_6">
     <g id="line2d_6">
      <g>
       <use xlink:href="#m2f5f569df1" x="353.938458" y="288" style="stroke: #000000; stroke-width: 0.8"/>
      </g>
     </g>
     <g id="text_6">
      <!-- 2023-10-05 -->
      <g transform="translate(292.295117 337.765903) rotate(-30) scale(0.12 -0.12)">
       <use xlink:href="#DejaVuSans-32"/>
       <use xlink:href="#DejaVuSans-30" x="63.623047"/>
       <use xlink:href="#DejaVuSans-32" x="127.246094"/>
       <use xlink:href="#DejaVuSans-33" x="190.869141"/>
       <use xlink:href="#DejaVuSans-2d" x="254.492188"/>
       <use xlink:href="#DejaVuSans-31" x="290.576172"/>
       <use xlink:href="#DejaVuSans-30" x="354.199219"/>
       <use xlink:href="#DejaVuSans-2d" x="417.822266"/>
       <use xlink:href="#DejaVuSans-30" x="453.90625"/>
       <use xlink:href="#DejaVuSans-35" x="517.529297"/>
      </g>
     </g>
    </g>
    <g id="xtick_7">
     <g id="line2d_7">
      <g>
       <use xlink:href="#m2f5f569df1" x="411.774779" y="288" style="stroke: #000000; stroke-width: 0.8"/>
      </g>
     </g>
     <g id="text_7">
      <!-- 2023-10-09 -->
      <g transform="translate(350.131437 337.765903) rotate(-30) scale(0.12 -0.12)">
       <use xlink:href="#DejaVuSans-32"/>
       <use xlink:href="#DejaVuSans-30" x="63.623047"/>
       <use xlink:href="#DejaVuSans-32" x="127.246094"/>
       <use xlink:href="#DejaVuSans-33" x="190.869141"/>
       <use xlink:href="#DejaVuSans-2d" x="254.492188"/>
       <use xlink:href="#DejaVuSans-31" x="290.576172"/>
       <use xlink:href="#DejaVuSans-30" x="354.199219"/>
       <use xlink:href="#DejaVuSans-2d" x="417.822266"/>
       <use xlink:href="#DejaVuSans-30" x="453.90625"/>
       <use xlink:href="#DejaVuSans-39" x="517.529297"/>
      </g>
     </g>
    </g>
    <g id="xtick_8">
     <g id="line2d_8">
      <g>
       <use xlink:href="#m2f5f569df1" x="469.611099" y="288" style="stroke: #000000; stroke-width: 0.8"/>
      </g>
     </g>
     <g id="text_8">
      <!-- 2023-10-13 -->
      <g transform="translate(407.967757 337.765903) rotate(-30) scale(0.12 -0.12)">
       <use xlink:href="#DejaVuSans-32"/>
       <use xlink:href="#DejaVuSans-30" x="63.623047"/>
       <use xlink:href="#DejaVuSans-32" x="127.246094"/>
       <use xlink:href="#DejaVuSans-33" x="190.869141"/>
       <use xlink:href="#DejaVuSans-2d" x="254.492188"/>
       <use xlink:href="#DejaVuSans-31" x="290.576172"/>
       <use xlink:href="#DejaVuSans-30" x="354.199219"/>
       <use xlink:href="#DejaVuSans-2d" x="417.822266"/>
       <use xlink:href="#DejaVuSans-31" x="453.90625"/>
       <use xlink:href="#DejaVuSans-33" x="517.529297"/>
      </g>
     </g>
    </g>
    <g id="xtick_9">
     <g id="line2d_9">
      <g>
       <use xlink:href="#m2f5f569df1" x="527.44742" y="288" style="stroke: #000000; stroke-width: 0.8"/>
      </g>
     </g>
     <g id="text_9">
      <!-- 2023-10-17 -->
      <g transform="translate(465.804078 337.765903) rotate(-30) scale(0.12 -0.12)">
       <use xlink:href="#DejaVuSans-32"/>
       <use xlink:href="#DejaVuSans-30" x="63.623047"/>
       <use xlink:href="#DejaVuSans-32" x="127.246094"/>
       <use xlink:href="#DejaVuSans-33" x="190.869141"/>
       <use xlink:href="#DejaVuSans-2d" x="254.492188"/>
       <use xlink:href="#DejaVuSans-31" x="290.576172"/>
       <use xlink:href="#DejaVuSans-30" x="354.199219"/>
       <use xlink:href="#DejaVuSans-2d" x="417.822266"/>
       <use xlink:href="#DejaVuSans-31" x="453.90625"/>
       <use xlink:href="#DejaVuSans-37" x="517.529297"/>
      </g>
     </g>
    </g>
    <g id="xtick_10">
     <g id="line2d_10">
      <g>
       <use xlink:href="#m2f5f569df1" x="585.28374" y="288" style="stroke: #000000; stroke-width: 0.8"/>
      </g>
     </g>
     <g id="text_10">
      <!-- 2023-10-21 -->
      <g transform="translate(523.640398 337.765903) rotate(-30) scale(0.12 -0.12)">
       <use xlink:href="#DejaVuSans-32"/>
       <use xlink:href="#DejaVuSans-30" x="63.623047"/>
       <use xlink:href="#DejaVuSans-32" x="127.246094"/>
       <use xlink:href="#DejaVuSans-33" x="190.869141"/>
       <use xlink:href="#DejaVuSans-2d" x="254.492188"/>
       <use xlink:href="#DejaVuSans-31" x="290.576172"/>
       <use xlink:href="#DejaVuSans-30" x="354.199219"/>
       <use xlink:href="#DejaVuSans-2d" x="417.822266"/>
       <use xlink:href="#DejaVuSans-32" x="453.90625"/>
       <use xlink:href="#DejaVuSans-31" x="517.529297"/>
      </g>
     </g>
    </g>
    <g id="xtick_11">
     <g id="line2d_11">
      <g>
       <use xlink:href="#m2f5f569df1" x="643.12006" y="288" style="stroke: #000000; stroke-width: 0.8"/>
      </g>
     </g>
     <g id="text_11">
      <!-- 2023-10-25 -->
      <g transform="translate(581.476719 337.765903) rotate(-30) scale(0.12 -0.12)">
       <use xlink:href="#DejaVuSans-32"/>
       <use xlink:href="#DejaVuSans-30" x="63.623047"/>
       <use xlink:href="#DejaVuSans-32" x="127.246094"/>
       <use xlink:href="#DejaVuSans-33" x="190.869141"/>
       <use xlink:href="#DejaVuSans-2d" x="254.492188"/>
       <use xlink:href="#DejaVuSans-31" x="290.576172"/>
       <use xlink:href="#DejaVuSans-30" x="354.199219"/>
       <use xlink:href="#DejaVuSans-2d" x="417.822266"/>
       <use xlink:href="#DejaVuSans-32" x="453.90625"/>
       <use xlink:href="#DejaVuSans-35" x="517.529297"/>
      </g>
     </g>
    </g>
   </g>
   <g id="matplotlib.axis_2">
    <g id="ytick_1">
     <g id="line2d_12">
      <defs>
       <path id="m5b6b65323d" d="M 0 0 
L -3.5 0 
" style="stroke: #000000; stroke-width: 0.8"/>
      </defs>
      <g>
       <use xlink:href="#m5b6b65323d" x="90" y="266.171377" style="stroke: #000000; stroke-width: 0.8"/>
      </g>
     </g>
     <g id="text_12">
      <!-- 3.0 -->
      <g transform="translate(63.91625 270.730439) scale(0.12 -0.12)">
       <defs>
        <path id="DejaVuSans-2e" d="M 684 794 
L 1344 794 
L 1344 0 
L 684 0 
L 684 794 
z
" transform="scale(0.015625)"/>
       </defs>
       <use xlink:href="#DejaVuSans-33"/>
       <use xlink:href="#DejaVuSans-2e" x="63.623047"/>
       <use xlink:href="#DejaVuSans-30" x="95.410156"/>
      </g>
     </g>
    </g>
    <g id="ytick_2">
     <g id="line2d_13">
      <g>
       <use xlink:href="#m5b6b65323d" x="90" y="236.258395" style="stroke: #000000; stroke-width: 0.8"/>
      </g>
     </g>
     <g id="text_13">
      <!-- 3.2 -->
      <g transform="translate(63.91625 240.817457) scale(0.12 -0.12)">
       <use xlink:href="#DejaVuSans-33"/>
       <use xlink:href="#DejaVuSans-2e" x="63.623047"/>
       <use xlink:href="#DejaVuSans-32" x="95.410156"/>
      </g>
     </g>
    </g>
    <g id="ytick_3">
     <g id="line2d_14">
      <g>
       <use xlink:href="#m5b6b65323d" x="90" y="206.345413" style="stroke: #000000; stroke-width: 0.8"/>
      </g>
     </g>
     <g id="text_14">
      <!-- 3.4 -->
      <g transform="translate(63.91625 210.904475) scale(0.12 -0.12)">
       <defs>
        <path id="DejaVuSans-34" d="M 2419 4116 
L 825 1625 
L 2419 1625 
L 2419 4116 
z
M 2253 4666 
L 3047 4666 
L 3047 1625 
L 3713 1625 
L 3713 1100 
L 3047 1100 
L 3047 0 
L 2419 0 
L 2419 1100 
L 313 1100 
L 313 1709 
L 2253 4666 
z
" transform="scale(0.015625)"/>
       </defs>
       <use xlink:href="#DejaVuSans-33"/>
       <use xlink:href="#DejaVuSans-2e" x="63.623047"/>
       <use xlink:href="#DejaVuSans-34" x="95.410156"/>
      </g>
     </g>
    </g>
    <g id="ytick_4">
     <g id="line2d_15">
      <g>
       <use xlink:href="#m5b6b65323d" x="90" y="176.432431" style="stroke: #000000; stroke-width: 0.8"/>
      </g>
     </g>
     <g id="text_15">
      <!-- 3.6 -->
      <g transform="translate(63.91625 180.991493) scale(0.12 -0.12)">
       <defs>
        <path id="DejaVuSans-36" d="M 2113 2584 
Q 1688 2584 1439 2293 
Q 1191 2003 1191 1497 
Q 1191 994 1439 701 
Q 1688 409 2113 409 
Q 2538 409 2786 701 
Q 3034 994 3034 1497 
Q 3034 2003 2786 2293 
Q 2538 2584 2113 2584 
z
M 3366 4563 
L 3366 3988 
Q 3128 4100 2886 4159 
Q 2644 4219 2406 4219 
Q 1781 4219 1451 3797 
Q 1122 3375 1075 2522 
Q 1259 2794 1537 2939 
Q 1816 3084 2150 3084 
Q 2853 3084 3261 2657 
Q 3669 2231 3669 1497 
Q 3669 778 3244 343 
Q 2819 -91 2113 -91 
Q 1303 -91 875 529 
Q 447 1150 447 2328 
Q 447 3434 972 4092 
Q 1497 4750 2381 4750 
Q 2619 4750 2861 4703 
Q 3103 4656 3366 4563 
z
" transform="scale(0.015625)"/>
       </defs>
       <use xlink:href="#DejaVuSans-33"/>
       <use xlink:href="#DejaVuSans-2e" x="63.623047"/>
       <use xlink:href="#DejaVuSans-36" x="95.410156"/>
      </g>
     </g>
    </g>
    <g id="ytick_5">
     <g id="line2d_16">
      <g>
       <use xlink:href="#m5b6b65323d" x="90" y="146.519449" style="stroke: #000000; stroke-width: 0.8"/>
      </g>
     </g>
     <g id="text_16">
      <!-- 3.8 -->
      <g transform="translate(63.91625 151.078511) scale(0.12 -0.12)">
       <defs>
        <path id="DejaVuSans-38" d="M 2034 2216 
Q 1584 2216 1326 1975 
Q 1069 1734 1069 1313 
Q 1069 891 1326 650 
Q 1584 409 2034 409 
Q 2484 409 2743 651 
Q 3003 894 3003 1313 
Q 3003 1734 2745 1975 
Q 2488 2216 2034 2216 
z
M 1403 2484 
Q 997 2584 770 2862 
Q 544 3141 544 3541 
Q 544 4100 942 4425 
Q 1341 4750 2034 4750 
Q 2731 4750 3128 4425 
Q 3525 4100 3525 3541 
Q 3525 3141 3298 2862 
Q 3072 2584 2669 2484 
Q 3125 2378 3379 2068 
Q 3634 1759 3634 1313 
Q 3634 634 3220 271 
Q 2806 -91 2034 -91 
Q 1263 -91 848 271 
Q 434 634 434 1313 
Q 434 1759 690 2068 
Q 947 2378 1403 2484 
z
M 1172 3481 
Q 1172 3119 1398 2916 
Q 1625 2713 2034 2713 
Q 2441 2713 2670 2916 
Q 2900 3119 2900 3481 
Q 2900 3844 2670 4047 
Q 2441 4250 2034 4250 
Q 1625 4250 1398 4047 
Q 1172 3844 1172 3481 
z
" transform="scale(0.015625)"/>
       </defs>
       <use xlink:href="#DejaVuSans-33"/>
       <use xlink:href="#DejaVuSans-2e" x="63.623047"/>
       <use xlink:href="#DejaVuSans-38" x="95.410156"/>
      </g>
     </g>
    </g>
    <g id="ytick_6">
     <g id="line2d_17">
      <g>
       <use xlink:href="#m5b6b65323d" x="90" y="116.606467" style="stroke: #000000; stroke-width: 0.8"/>
      </g>
     </g>
     <g id="text_17">
      <!-- 4.0 -->
      <g transform="translate(63.91625 121.165529) scale(0.12 -0.12)">
       <use xlink:href="#DejaVuSans-34"/>
       <use xlink:href="#DejaVuSans-2e" x="63.623047"/>
       <use xlink:href="#DejaVuSans-30" x="95.410156"/>
      </g>
     </g>
    </g>
    <g id="ytick_7">
     <g id="line2d_18">
      <g>
       <use xlink:href="#m5b6b65323d" x="90" y="86.693485" style="stroke: #000000; stroke-width: 0.8"/>
      </g>
     </g>
     <g id="text_18">
      <!-- 4.2 -->
      <g transform="translate(63.91625 91.252547) scale(0.12 -0.12)">
       <use xlink:href="#DejaVuSans-34"/>
       <use xlink:href="#DejaVuSans-2e" x="63.623047"/>
       <use xlink:href="#DejaVuSans-32" x="95.410156"/>
      </g>
     </g>
    </g>
    <g id="ytick_8">
     <g id="line2d_19">
      <g>
       <use xlink:href="#m5b6b65323d" x="90" y="56.780503" style="stroke: #000000; stroke-width: 0.8"/>
      </g>
     </g>
     <g id="text_19">
      <!-- 4.4 -->
      <g transform="translate(63.91625 61.339565) scale(0.12 -0.12)">
       <use xlink:href="#DejaVuSans-34"/>
       <use xlink:href="#DejaVuSans-2e" x="63.623047"/>
       <use xlink:href="#DejaVuSans-34" x="95.410156"/>
      </g>
     </g>
    </g>
    <g id="text_20">
     <!-- Meters -->
     <g transform="translate(57.836562 182.6875) rotate(-90) scale(0.1 -0.1)">
      <defs>
       <path id="DejaVuSans-4d" d="M 628 4666 
L 1569 4666 
L 2759 1491 
L 3956 4666 
L 4897 4666 
L 4897 0 
L 4281 0 
L 4281 4097 
L 3078 897 
L 2444 897 
L 1241 4097 
L 1241 0 
L 628 0 
L 628 4666 
z
" transform="scale(0.015625)"/>
       <path id="DejaVuSans-65" d="M 3597 1894 
L 3597 1613 
L 953 1613 
Q 991 1019 1311 708 
Q 1631 397 2203 397 
Q 2534 397 2845 478 
Q 3156 559 3463 722 
L 3463 178 
Q 3153 47 2828 -22 
Q 2503 -91 2169 -91 
Q 1331 -91 842 396 
Q 353 884 353 1716 
Q 353 2575 817 3079 
Q 1281 3584 2069 3584 
Q 2775 3584 3186 3129 
Q 3597 2675 3597 1894 
z
M 3022 2063 
Q 3016 2534 2758 2815 
Q 2500 3097 2075 3097 
Q 1594 3097 1305 2825 
Q 1016 2553 972 2059 
L 3022 2063 
z
" transform="scale(0.015625)"/>
       <path id="DejaVuSans-74" d="M 1172 4494 
L 1172 3500 
L 2356 3500 
L 2356 3053 
L 1172 3053 
L 1172 1153 
Q 1172 725 1289 603 
Q 1406 481 1766 481 
L 2356 481 
L 2356 0 
L 1766 0 
Q 1100 0 847 248 
Q 594 497 594 1153 
L 594 3053 
L 172 3053 
L 172 3500 
L 594 3500 
L 594 4494 
L 1172 4494 
z
" transform="scale(0.015625)"/>
       <path id="DejaVuSans-72" d="M 2631 2963 
Q 2534 3019 2420 3045 
Q 2306 3072 2169 3072 
Q 1681 3072 1420 2755 
Q 1159 2438 1159 1844 
L 1159 0 
L 581 0 
L 581 3500 
L 1159 3500 
L 1159 2956 
Q 1341 3275 1631 3429 
Q 1922 3584 2338 3584 
Q 2397 3584 2469 3576 
Q 2541 3569 2628 3553 
L 2631 2963 
z
" transform="scale(0.015625)"/>
       <path id="DejaVuSans-73" d="M 2834 3397 
L 2834 2853 
Q 2591 2978 2328 3040 
Q 2066 3103 1784 3103 
Q 1356 3103 1142 2972 
Q 928 2841 928 2578 
Q 928 2378 1081 2264 
Q 1234 2150 1697 2047 
L 1894 2003 
Q 2506 1872 2764 1633 
Q 3022 1394 3022 966 
Q 3022 478 2636 193 
Q 2250 -91 1575 -91 
Q 1294 -91 989 -36 
Q 684 19 347 128 
L 347 722 
Q 666 556 975 473 
Q 1284 391 1588 391 
Q 1994 391 2212 530 
Q 2431 669 2431 922 
Q 2431 1156 2273 1281 
Q 2116 1406 1581 1522 
L 1381 1569 
Q 847 1681 609 1914 
Q 372 2147 372 2553 
Q 372 3047 722 3315 
Q 1072 3584 1716 3584 
Q 2034 3584 2315 3537 
Q 2597 3491 2834 3397 
z
" transform="scale(0.015625)"/>
      </defs>
      <use xlink:href="#DejaVuSans-4d"/>
      <use xlink:href="#DejaVuSans-65" x="86.279297"/>
      <use xlink:href="#DejaVuSans-74" x="147.802734"/>
      <use xlink:href="#DejaVuSans-65" x="187.011719"/>
      <use xlink:href="#DejaVuSans-72" x="248.535156"/>
      <use xlink:href="#DejaVuSans-73" x="289.648438"/>
     </g>
    </g>
   </g>
   <g id="line2d_20">
    <path d="M 115.363636 136.367546 
L 115.966098 137.613601 
L 116.56856 135.495307 
L 117.171021 135.246096 
L 117.773483 135.594991 
L 118.375945 136.517072 
L 118.978406 135.669755 
L 119.580868 135.34578 
L 120.18333 135.819281 
L 120.785791 136.716441 
L 121.388253 134.772595 
L 121.990715 91.384954 
L 122.593176 131.757141 
L 123.195638 132.62938 
L 124.400561 132.778907 
L 125.003023 133.252408 
L 125.605485 133.352092 
L 126.207946 132.604459 
L 126.810408 132.430011 
L 127.41287 132.106037 
L 128.617793 132.205721 
L 129.220255 132.579538 
L 130.425178 131.607615 
L 131.02764 123.259045 
L 131.630101 131.084272 
L 132.232563 131.981431 
L 132.835025 132.40509 
L 133.437487 133.277329 
L 134.039948 134.971964 
L 134.64241 135.271017 
L 135.244872 134.324015 
L 135.847333 133.725909 
L 136.449795 133.30225 
L 137.052257 132.479853 
L 137.654718 132.579538 
L 138.25718 132.479853 
L 138.859642 132.878591 
L 140.064565 133.028118 
L 140.667027 131.856826 
L 141.269488 131.233798 
L 141.87195 130.436323 
L 142.474412 130.087427 
L 143.076873 129.962822 
L 143.679335 130.411402 
L 144.281797 92.356877 
L 144.884258 130.062506 
L 145.48672 131.383325 
L 146.089182 131.73222 
L 146.691643 133.476698 
L 147.294105 133.800672 
L 147.896567 131.682378 
L 148.499028 276.872727 
L 149.10149 133.700987 
L 149.703952 133.327171 
L 150.306413 132.679222 
L 150.908875 133.377013 
L 151.511337 133.426855 
L 152.113798 131.95651 
L 153.318722 131.831905 
L 153.921183 131.333483 
L 155.126107 133.053039 
L 155.728568 132.803828 
L 156.33103 133.227487 
L 156.933492 133.377013 
L 157.535953 134.099725 
L 158.138415 133.900356 
L 158.740877 132.85367 
L 159.343338 132.130958 
L 159.9458 133.028118 
L 160.548262 133.576382 
L 161.150723 134.697832 
L 161.753185 134.623068 
L 162.355647 135.520228 
L 162.958108 134.498463 
L 163.56057 135.395623 
L 164.163032 136.043571 
L 164.765493 134.274173 
L 165.367955 133.800672 
L 165.970417 134.672911 
L 166.572878 134.996885 
L 167.777802 134.343952 
L 168.380263 134.971964 
L 169.585187 134.299094 
L 170.187648 134.299094 
L 170.79011 133.676066 
L 172.597495 133.700987 
L 173.199957 133.377013 
L 173.802418 133.501619 
L 174.40488 93.129431 
L 175.007342 133.451776 
L 175.609803 135.046727 
L 176.212265 136.093413 
L 176.814727 130.461244 
L 177.417189 136.367546 
L 178.01965 136.990573 
L 178.622112 54.327273 
L 179.224574 136.143256 
L 179.827035 131.831905 
L 180.429497 131.059351 
L 181.031959 131.806984 
L 181.63442 130.934745 
L 182.236882 131.50793 
L 182.839344 135.295938 
L 183.441805 132.155879 
L 184.044267 131.981431 
L 184.646729 133.377013 
L 185.24919 133.501619 
L 185.851652 134.548305 
L 186.454114 135.320859 
L 187.056575 134.996885 
L 187.659037 132.056195 
L 188.261499 132.430011 
L 188.86396 133.551461 
L 189.466422 133.451776 
L 190.671345 136.118335 
L 191.273807 135.869123 
L 191.876269 133.651145 
L 192.47873 134.747674 
L 193.081192 134.797516 
L 194.286115 134.174488 
L 194.888577 133.576382 
L 195.491039 133.551461 
L 196.695962 130.311717 
L 197.298424 132.255563 
L 197.900885 132.753986 
L 199.70827 134.772595 
L 200.310732 133.97512 
L 200.913194 135.869123 
L 201.515655 136.24294 
L 202.118117 135.146411 
L 203.32304 134.074804 
L 203.925502 134.573226 
L 204.527964 135.246096 
L 205.130425 136.841047 
L 205.732887 137.688364 
L 206.335349 136.940731 
L 206.93781 94.574855 
L 207.540272 136.01865 
L 208.142734 134.348936 
L 209.347657 133.476698 
L 209.950119 134.947043 
L 210.55258 134.19941 
L 211.757504 133.127802 
L 212.359965 132.978275 
L 212.962427 131.782063 
L 213.564889 136.267861 
L 214.16735 133.875435 
L 214.769812 134.473542 
L 215.372274 136.093413 
L 215.974735 136.566914 
L 216.577197 156.902535 
L 217.179659 134.947043 
L 217.78212 134.722753 
L 218.384582 134.772595 
L 218.987044 133.875435 
L 219.589506 136.068492 
L 220.191967 135.844202 
L 221.396891 135.943887 
L 221.999352 136.841047 
L 222.601814 135.520228 
L 223.204276 135.744518 
L 223.806737 135.520228 
L 224.409199 133.127802 
L 225.011661 133.003197 
L 225.614122 132.355248 
L 226.216584 133.800672 
L 226.819046 134.672911 
L 227.421507 134.747674 
L 228.023969 135.196254 
L 228.626431 134.224331 
L 229.228892 133.476698 
L 229.831354 127.321185 
L 230.433816 125.227812 
L 231.638739 125.526866 
L 232.241201 126.872605 
L 232.843662 126.723078 
L 233.446124 128.367871 
L 234.048586 128.841372 
L 234.651047 132.85367 
L 235.253509 131.28364 
L 235.855971 130.760297 
L 236.458432 130.436323 
L 237.060894 131.28364 
L 237.663356 131.134114 
L 238.265817 129.339794 
L 238.868279 130.859982 
L 239.470741 130.560928 
L 240.073202 128.965978 
L 240.675664 130.610771 
L 241.278126 131.557773 
L 241.880587 129.589005 
L 242.483049 133.003197 
L 243.085511 133.07796 
L 243.687972 133.900356 
L 244.290434 136.068492 
L 244.892896 136.46723 
L 245.495357 136.417388 
L 246.097819 134.398778 
L 246.700281 133.277329 
L 247.302742 130.859982 
L 247.905204 131.233798 
L 248.507666 132.479853 
L 249.110127 134.174488 
L 249.712589 134.8972 
L 250.315051 134.423699 
L 250.917512 132.579538 
L 251.519974 132.62938 
L 252.122436 134.224331 
L 252.724897 132.479853 
L 253.327359 136.641678 
L 253.929821 134.249252 
L 254.532282 135.520228 
L 255.134744 134.049883 
L 255.737206 137.439153 
L 256.339667 131.009508 
L 256.942129 132.230642 
L 257.544591 134.049883 
L 258.147052 134.049883 
L 258.749514 132.554617 
L 259.351976 132.654301 
L 259.954437 134.398778 
L 260.556899 135.271017 
L 261.159361 135.395623 
L 261.761823 136.541993 
L 262.364284 136.342624 
L 262.966746 110.05086 
L 263.569208 136.517072 
L 264.171669 136.666599 
L 264.774131 136.118335 
L 265.376593 135.370701 
L 265.979054 136.541993 
L 266.581516 136.093413 
L 267.183978 136.990573 
L 267.786439 137.563759 
L 268.388901 136.940731 
L 268.991363 136.01865 
L 269.593824 136.193098 
L 270.196286 135.594991 
L 270.798748 137.1401 
L 271.401209 138.012338 
L 272.003671 137.738206 
L 272.606133 96.344253 
L 273.208594 140.006027 
L 273.811056 139.731895 
L 274.413518 139.083946 
L 275.015979 139.682052 
L 275.618441 140.653975 
L 276.220903 139.657131 
L 276.823364 140.454607 
L 277.425826 140.404764 
L 278.028288 141.301924 
L 278.630749 141.999715 
L 279.233211 141.625898 
L 279.835673 140.454607 
L 280.438134 139.706973 
L 281.040596 140.379843 
L 282.245519 140.280159 
L 282.847981 140.205396 
L 283.450443 139.208551 
L 284.052904 139.731895 
L 284.655366 139.881421 
L 285.257828 140.330001 
L 285.860289 139.881421 
L 286.462751 140.055869 
L 287.065213 140.479528 
L 287.667674 140.155553 
L 288.270136 140.728739 
L 288.872598 139.682052 
L 289.475059 139.532526 
L 290.077521 138.710129 
L 290.679983 138.95934 
L 291.282444 139.906342 
L 291.884906 141.900031 
L 292.487368 143.420218 
L 293.089829 142.647664 
L 293.692291 142.5729 
L 294.294753 142.747348 
L 294.897214 142.248926 
L 295.499676 142.099399 
L 296.102138 140.878265 
L 296.704599 140.479528 
L 298.511984 141.600977 
L 299.114446 141.152397 
L 299.716908 140.97795 
L 300.319369 141.451451 
L 300.921831 141.252082 
L 301.524293 141.177319 
L 302.126754 140.903186 
L 302.729216 141.42653 
L 303.934139 139.258394 
L 304.536601 139.981106 
L 305.139063 140.97795 
L 306.343986 142.398453 
L 306.946448 142.34861 
L 307.54891 205.772819 
L 308.151371 142.772269 
L 308.753833 143.619587 
L 309.356295 144.267535 
L 310.561218 142.597821 
L 311.16368 142.224005 
L 312.368603 142.323689 
L 312.971065 142.597821 
L 313.573526 142.622743 
L 314.175988 142.398453 
L 314.77845 142.498137 
L 315.380911 142.174163 
L 316.585835 142.174163 
L 317.188296 100.10734 
L 317.790758 141.900031 
L 318.39322 140.604133 
L 318.995681 141.102555 
L 319.598143 141.277003 
L 320.200605 141.750504 
L 320.803066 142.79719 
L 321.405528 143.171007 
L 322.00799 143.843877 
L 322.610451 143.096244 
L 323.212913 143.843877 
L 323.815375 142.423374 
L 324.417836 143.345455 
L 325.020298 142.772269 
L 326.827683 143.420218 
L 328.032606 143.843877 
L 328.635068 144.267535 
L 329.23753 143.818956 
L 329.839991 143.096244 
L 331.044915 142.622743 
L 331.647376 142.822111 
L 332.249838 142.273847 
L 332.8523 140.653975 
L 333.454761 140.903186 
L 334.057223 141.924952 
L 334.659685 142.323689 
L 335.262146 143.420218 
L 335.864608 102.300397 
L 336.46707 144.616431 
L 337.069531 144.317378 
L 337.671993 144.865642 
L 338.274455 143.519902 
L 338.876916 143.171007 
L 339.479378 142.049557 
L 340.684301 141.526214 
L 341.286763 141.152397 
L 341.889225 141.42653 
L 342.491686 141.451451 
L 343.094148 142.722427 
L 343.69661 143.02148 
L 344.299071 142.921796 
L 345.503995 141.775425 
L 346.106456 142.074478 
L 346.708918 141.526214 
L 347.31138 140.130632 
L 347.913842 141.974794 
L 348.516303 141.775425 
L 349.118765 142.323689 
L 349.721227 142.373532 
L 350.323688 142.722427 
L 351.528612 144.018324 
L 352.131073 143.519902 
L 352.733535 142.34861 
L 353.335997 142.847032 
L 353.938458 142.224005 
L 354.54092 140.454607 
L 355.143382 141.875109 
L 355.745843 142.024636 
L 356.348305 143.071322 
L 356.950767 142.248926 
L 357.553228 143.420218 
L 358.15569 142.747348 
L 358.758152 100.879894 
L 359.360613 141.999715 
L 359.963075 119.022457 
L 360.565537 143.519902 
L 361.167998 143.146086 
L 361.77046 143.843877 
L 362.372922 144.192772 
L 362.975383 145.015168 
L 363.577845 147.357752 
L 364.180307 148.479202 
L 365.987692 143.968482 
L 366.590153 140.52937 
L 367.192615 141.077634 
L 367.795077 144.691194 
L 368.397538 141.177319 
L 369 144.36722 
L 369.602462 146.63504 
L 370.204923 146.012013 
L 370.807385 142.498137 
L 371.409847 146.360908 
L 372.012308 146.809488 
L 372.61477 146.335987 
L 373.819693 147.731569 
L 374.422155 145.638196 
L 375.627078 148.479202 
L 376.22954 146.335987 
L 376.832002 145.463748 
L 377.434463 85.852469 
L 378.036925 149.201914 
L 378.639387 149.57573 
L 379.241848 150.298442 
L 379.84431 152.416736 
L 380.446772 150.373206 
L 381.049233 149.426204 
L 381.651695 148.753334 
L 382.254157 149.326519 
L 382.856618 152.341973 
L 383.45908 161.886756 
L 384.061542 161.687387 
L 384.664003 147.258068 
L 385.266465 144.965326 
L 385.868927 157.724931 
L 386.471388 157.799695 
L 387.07385 149.999389 
L 387.676312 156.329349 
L 388.278773 156.877614 
L 388.881235 154.211056 
L 389.483697 154.435346 
L 390.086158 154.809162 
L 390.68862 157.70001 
L 391.291082 157.425878 
L 391.893544 158.896223 
L 392.496005 159.27004 
L 393.098467 159.04575 
L 393.700929 159.095592 
L 394.30339 160.715464 
L 394.905852 163.033126 
L 395.508314 164.005049 
L 396.110775 161.737229 
L 396.713237 160.765306 
L 414.787087 157.02714 
L 415.389549 157.525562 
L 415.99201 157.550484 
L 416.594472 159.49433 
L 417.196934 158.572249 
L 417.799395 158.721775 
L 418.401857 157.849537 
L 419.004319 159.27004 
L 420.209242 157.949221 
L 421.414165 127.420869 
L 422.016627 161.014517 
L 422.619089 160.142278 
L 423.22155 159.768462 
L 423.824012 159.245119 
L 424.426474 160.366568 
L 425.028935 159.668777 
L 425.631397 159.220197 
L 426.233859 160.117357 
L 426.83632 158.647012 
L 427.438782 157.575405 
L 428.041244 155.457111 
L 429.246167 154.634714 
L 429.848629 155.756164 
L 430.45109 157.749852 
L 431.053552 156.927456 
L 431.656014 155.407269 
L 432.258475 154.75932 
L 432.860937 155.407269 
L 433.463399 155.382348 
L 434.065861 154.883925 
L 434.668322 156.204744 
L 435.270784 156.254586 
L 435.873246 154.75932 
L 436.475707 155.182979 
L 437.078169 156.977298 
L 437.680631 155.905691 
L 438.283092 155.581716 
L 438.885554 155.033452 
L 439.488016 156.055217 
L 440.090477 156.453955 
L 440.692939 153.662791 
L 441.295401 153.887081 
L 441.897862 156.678245 
L 442.500324 119.52088 
L 443.102786 155.382348 
L 443.705247 154.634714 
L 444.307709 154.260898 
L 444.910171 154.235977 
L 445.512632 153.837239 
L 446.115094 153.837239 
L 446.717556 153.662791 
L 447.320017 153.912002 
L 447.922479 153.737555 
L 448.524941 110.648967 
L 449.127402 153.762476 
L 449.729864 152.915158 
L 450.332326 153.089606 
L 450.934787 152.790553 
L 451.537249 152.865316 
L 452.139711 152.017999 
L 453.344634 151.868472 
L 453.947096 152.217367 
L 455.152019 152.217367 
L 455.754481 151.968156 
L 456.356942 152.840395 
L 456.959404 152.441657 
L 457.561866 151.544498 
L 458.164327 152.092762 
L 458.766789 152.067841 
L 459.369251 152.242289 
L 459.971712 151.918314 
L 461.176636 152.067841 
L 461.779097 152.665947 
L 462.381559 151.694024 
L 462.984021 151.59434 
L 463.586482 151.694024 
L 464.188944 151.619261 
L 464.791406 151.893393 
L 465.393867 152.890237 
L 465.996329 154.385503 
L 466.598791 152.441657 
L 467.201252 151.81863 
L 467.803714 152.516421 
L 468.406176 152.192446 
L 469.008637 152.441657 
L 469.611099 152.067841 
L 470.213561 152.416736 
L 470.816022 152.989922 
L 471.418484 152.142604 
L 472.020946 150.173837 
L 472.623407 149.500967 
L 473.225869 149.750178 
L 473.828331 151.021154 
L 474.430792 149.251756 
L 475.033254 149.949547 
L 475.635716 149.675415 
L 476.238177 150.074152 
L 477.443101 148.254912 
L 478.648024 147.08362 
L 479.250486 149.226835 
L 479.852948 149.176993 
L 480.455409 149.725257 
L 481.057871 149.57573 
L 481.660333 150.2486 
L 482.262794 148.603807 
L 482.865256 149.974468 
L 483.467718 149.276677 
L 484.070179 149.201914 
L 484.672641 149.002545 
L 485.275103 148.553965 
L 485.877564 148.553965 
L 486.480026 149.949547 
L 487.082488 144.317378 
L 487.684949 143.046401 
L 488.287411 142.722427 
L 489.492334 147.407594 
L 490.094796 147.5322 
L 490.697258 149.874784 
L 491.299719 148.20507 
L 492.504643 151.868472 
L 493.107104 151.718945 
L 493.709566 148.778255 
L 494.312028 149.077308 
L 494.914489 147.881095 
L 495.516951 150.148916 
L 496.119413 145.663117 
L 496.721874 147.75649 
L 497.324336 147.930938 
L 497.926798 149.002545 
L 498.529259 149.326519 
L 499.131721 151.943235 
L 499.734183 148.254912 
L 500.336644 149.35144 
L 500.939106 147.158383 
L 501.541568 148.927782 
L 502.144029 149.426204 
L 502.746491 147.930938 
L 503.348953 148.180149 
L 503.951414 148.927782 
L 504.553876 147.382673 
L 505.758799 154.211056 
L 506.361261 153.812318 
L 507.566184 154.933768 
L 508.168646 153.164369 
L 508.771108 154.75932 
L 509.373569 155.88077 
L 509.976031 152.865316 
L 510.578493 151.345129 
L 511.180954 152.641026 
L 511.783416 154.360582 
L 512.385878 152.765632 
L 512.988339 153.089606 
L 513.590801 154.98361 
L 514.193263 155.781085 
L 514.795724 154.061529 
L 515.398186 151.669103 
L 516.000648 150.099074 
L 517.205571 152.366894 
L 517.808033 150.47289 
L 519.012956 148.977624 
L 519.615418 149.027466 
L 520.21788 150.173837 
L 520.820341 214.3706 
L 521.422803 150.722101 
L 522.025265 150.298442 
L 523.83265 154.186135 
L 524.435111 153.313896 
L 525.037573 154.634714 
L 525.640035 154.53503 
L 526.242496 153.164369 
L 526.844958 150.348285 
L 527.44742 151.843551 
L 528.049881 150.423048 
L 528.652343 150.423048 
L 529.254805 147.282989 
L 529.857266 149.600652 
L 530.459728 149.052387 
L 531.06219 149.775099 
L 531.664651 149.152072 
L 532.267113 148.080464 
L 532.869575 147.30791 
L 533.472036 147.382673 
L 534.074498 104.942034 
L 534.67696 146.809488 
L 535.279421 148.155228 
L 535.881883 149.176993 
L 536.484345 149.500967 
L 537.086806 150.348285 
L 537.689268 148.728413 
L 538.29173 148.578886 
L 538.894191 148.87794 
L 539.496653 149.899705 
L 540.099115 149.775099 
L 540.701576 148.529044 
L 541.304038 149.326519 
L 541.9065 149.052387 
L 542.508961 147.98078 
L 543.111423 147.208226 
L 543.713885 147.432516 
L 544.316346 146.734725 
L 544.918808 147.158383 
L 545.52127 147.008857 
L 546.123731 147.881095 
L 546.726193 148.504123 
L 547.328655 147.656805 
L 547.931116 146.286145 
L 548.533578 146.610119 
L 549.13604 148.42936 
L 549.738501 149.326519 
L 550.340963 149.376362 
L 550.943425 148.952703 
L 551.545886 149.276677 
L 552.148348 149.301598 
L 552.75081 149.027466 
L 553.353271 149.80002 
L 553.955733 149.824941 
L 554.558195 150.173837 
L 555.160656 148.952703 
L 556.36558 149.775099 
L 556.968041 148.927782 
L 557.570503 148.354596 
L 558.172965 149.052387 
L 558.775426 150.47289 
L 559.377888 150.323364 
L 559.98035 149.251756 
L 560.582811 149.326519 
L 561.185273 148.504123 
L 561.787735 148.404439 
L 562.390197 147.357752 
L 562.992658 146.983936 
L 563.59512 150.47289 
L 564.197582 151.444813 
L 564.800043 150.971312 
L 565.402505 152.292131 
L 566.004967 152.26721 
L 566.607428 153.41358 
L 567.20989 153.089606 
L 567.812352 151.943235 
L 568.414813 151.195602 
L 569.017275 149.451125 
L 569.619737 152.017999 
L 570.222198 149.650494 
L 570.82466 148.977624 
L 571.427122 110.923099 
L 572.029583 150.572575 
L 572.632045 153.912002 
L 573.234507 153.41358 
L 573.836968 153.513265 
L 574.43943 152.092762 
L 575.041892 154.011687 
L 575.644353 154.161213 
L 576.246815 155.382348 
L 576.849277 155.457111 
L 577.451738 155.083294 
L 578.0542 155.581716 
L 578.656662 156.229665 
L 579.259123 155.980454 
L 579.861585 156.179823 
L 580.464047 156.578561 
L 581.066508 156.329349 
L 582.271432 158.14859 
L 582.873893 159.394645 
L 583.476355 115.159686 
L 584.078817 159.220197 
L 584.681278 159.27004 
L 585.28374 161.238807 
L 585.886202 160.41641 
L 586.488663 165.226183 
L 587.091125 167.568767 
L 587.693587 165.350789 
L 588.296048 164.877288 
L 588.89851 155.058373 
L 589.500972 163.755838 
L 590.103433 163.980128 
L 590.705895 164.827446 
L 591.910818 162.584546 
L 592.51328 160.964675 
L 593.115742 160.366568 
L 593.718203 159.04575 
L 594.320665 160.017673 
L 594.923127 159.569093 
L 595.525588 159.992752 
L 596.12805 159.49433 
L 596.730512 157.749852 
L 597.332973 157.326194 
L 597.935435 158.14859 
L 598.537897 157.874458 
L 599.140358 158.323038 
L 599.74282 159.220197 
L 600.345282 159.095592 
L 600.947743 159.569093 
L 601.550205 161.188965 
L 602.152667 162.484862 
L 602.755128 165.15142 
L 603.35759 162.584546 
L 603.960052 165.325868 
L 604.562513 164.578235 
L 605.164975 162.933442 
L 605.767437 163.33218 
L 606.369899 164.02997 
L 606.97236 162.958363 
L 607.574822 162.534704 
L 608.177284 163.855523 
L 608.779745 163.257416 
L 609.382207 161.936598 
L 609.984669 158.871302 
L 610.58713 161.363412 
L 611.189592 160.117357 
L 612.394515 160.541016 
L 612.996977 159.544172 
L 613.599439 159.668777 
L 614.2019 158.896223 
L 614.804362 158.846381 
L 615.406824 158.522407 
L 616.009285 158.796539 
L 616.611747 160.067515 
L 617.214209 158.572249 
L 617.81667 158.123669 
L 618.419132 158.796539 
L 619.021594 157.376036 
L 619.624055 157.774773 
L 620.226517 157.052061 
L 620.828979 156.777929 
L 621.43144 156.653324 
L 622.033902 154.809162 
L 622.636364 154.335661 
L 622.636364 154.335661 
" clip-path="url(#p033536248b)" style="fill: none; stroke: #1f77b4; stroke-width: 1.5; stroke-linecap: square"/>
   </g>
   <g id="line2d_21">
    <path d="M 115.363636 132.504775 
L 117.773483 132.587295 
L 121.990715 132.53574 
L 129.220255 132.601726 
L 129.822716 132.205721 
L 143.679335 132.348809 
L 144.281797 130.087427 
L 158.138415 130.264061 
L 158.740877 133.377013 
L 175.007342 133.521532 
L 175.609803 134.523384 
L 176.212265 134.529016 
L 176.814727 134.373857 
L 187.659037 134.455456 
L 188.261499 135.196254 
L 215.974735 135.38228 
L 216.577197 135.869123 
L 219.589506 135.858843 
L 222.601814 136.029317 
L 225.011661 136.582106 
L 226.819046 136.581154 
L 230.433816 136.470317 
L 231.036277 133.626224 
L 231.638739 133.650255 
L 232.241201 134.639772 
L 232.843662 135.869053 
L 234.048586 137.611359 
L 234.651047 137.997928 
L 235.253509 137.77628 
L 236.458432 137.000849 
L 237.060894 136.89102 
L 240.073202 136.982252 
L 244.892896 137.072998 
L 245.495357 137.231222 
L 247.302742 137.303176 
L 247.905204 133.626224 
L 250.917512 133.928915 
L 251.519974 135.12149 
L 256.339667 135.11236 
L 256.942129 135.038643 
L 257.544591 134.836674 
L 259.351976 133.552555 
L 259.954437 133.476698 
L 261.159361 132.666578 
L 262.966746 132.597435 
L 265.979054 132.571697 
L 288.270136 132.663045 
L 288.872598 140.429685 
L 302.729216 140.438592 
L 303.331678 140.130632 
L 317.188296 140.144375 
L 317.790758 142.149242 
L 331.647376 142.130244 
L 332.249838 142.896875 
L 346.106456 142.865752 
L 346.708918 141.177319 
L 360.565537 141.180824 
L 361.167998 142.597821 
L 362.975383 142.549433 
L 363.577845 142.616131 
L 364.180307 142.521675 
L 364.782768 142.560902 
L 365.38523 142.718807 
L 365.987692 142.474223 
L 366.590153 141.807394 
L 368.397538 138.677668 
L 369 138.02918 
L 369.602462 137.094264 
L 370.204923 133.549551 
L 370.807385 132.494435 
L 371.409847 134.174615 
L 372.012308 134.462355 
L 373.217232 134.58651 
L 375.024617 134.597543 
L 375.627078 145.289301 
L 376.832002 145.952506 
L 378.036925 146.277253 
L 379.84431 146.437303 
L 385.868927 146.518415 
L 386.471388 146.48772 
L 387.07385 146.7171 
L 387.676312 146.600014 
L 388.278773 146.249102 
L 388.881235 146.182544 
L 389.483697 146.276926 
L 390.086158 156.204744 
L 393.098467 156.101129 
L 394.905852 156.024534 
L 396.110775 156.018257 
L 396.713237 155.931316 
L 432.860937 155.599656 
L 433.463399 154.634714 
L 440.090477 154.515218 
L 444.307709 154.71015 
L 447.320017 154.631992 
L 447.922479 153.812318 
L 461.779097 153.476611 
L 462.381559 151.793709 
L 467.201252 151.430318 
L 468.406176 150.964384 
L 471.418484 150.49667 
L 475.033254 150.366267 
L 476.238177 149.581813 
L 476.840639 149.027466 
L 478.045563 149.263546 
L 480.455409 149.262703 
L 483.467718 149.224826 
L 484.672641 149.521597 
L 485.877564 149.261387 
L 486.480026 149.383621 
L 487.684949 150.299401 
L 488.287411 150.733139 
L 488.889873 151.396449 
L 489.492334 151.541925 
L 490.697258 151.32917 
L 491.299719 147.158383 
L 491.902181 146.716289 
L 493.709566 144.826325 
L 496.119413 143.929912 
L 496.721874 143.867397 
L 498.529259 144.202281 
L 505.156338 144.205234 
L 505.758799 148.504123 
L 512.385878 148.340407 
L 514.193263 147.920014 
L 519.615418 147.680958 
L 520.21788 148.952703 
L 522.025265 147.460488 
L 523.230188 147.139875 
L 523.83265 147.035942 
L 525.640035 146.393058 
L 534.074498 146.133174 
L 534.67696 147.30791 
L 548.533578 147.205258 
L 549.13604 147.382673 
L 564.800043 147.183028 
L 566.607428 146.48144 
L 567.812352 145.833217 
L 569.017275 145.980998 
L 570.82466 146.403318 
L 571.427122 146.117853 
L 572.029583 145.638415 
L 573.234507 146.103544 
L 575.041892 146.57322 
L 576.246815 146.078262 
L 577.451738 146.160708 
L 578.0542 155.083294 
L 580.464047 155.160246 
L 589.500972 155.032799 
L 591.910818 154.992907 
L 592.51328 163.905365 
L 597.332973 163.840585 
L 600.345282 164.609066 
L 601.550205 164.484634 
L 602.755128 165.153113 
L 604.562513 164.959501 
L 605.767437 163.856253 
L 606.369899 163.662645 
L 606.97236 163.905365 
L 620.828979 163.546652 
L 621.43144 157.176667 
L 622.636364 157.178263 
L 622.636364 157.178263 
" clip-path="url(#p033536248b)" style="fill: none; stroke: #ff7f0e; stroke-width: 1.5; stroke-linecap: square"/>
   </g>
   <g id="patch_3">
    <path d="M 90 288 
L 90 43.2 
" style="fill: none; stroke: #000000; stroke-width: 0.8; stroke-linejoin: miter; stroke-linecap: square"/>
   </g>
   <g id="patch_4">
    <path d="M 648 288 
L 648 43.2 
" style="fill: none; stroke: #000000; stroke-width: 0.8; stroke-linejoin: miter; stroke-linecap: square"/>
   </g>
   <g id="patch_5">
    <path d="M 90 288 
L 648 288 
" style="fill: none; stroke: #000000; stroke-width: 0.8; stroke-linejoin: miter; stroke-linecap: square"/>
   </g>
   <g id="patch_6">
    <path d="M 90 43.2 
L 648 43.2 
" style="fill: none; stroke: #000000; stroke-width: 0.8; stroke-linejoin: miter; stroke-linecap: square"/>
   </g>
   <g id="text_21">
    <!-- MDOT6140 -->
    <g transform="translate(335.545313 37.2) scale(0.12 -0.12)">
     <defs>
      <path id="DejaVuSans-44" d="M 1259 4147 
L 1259 519 
L 2022 519 
Q 2988 519 3436 956 
Q 3884 1394 3884 2338 
Q 3884 3275 3436 3711 
Q 2988 4147 2022 4147 
L 1259 4147 
z
M 628 4666 
L 1925 4666 
Q 3281 4666 3915 4102 
Q 4550 3538 4550 2338 
Q 4550 1131 3912 565 
Q 3275 0 1925 0 
L 628 0 
L 628 4666 
z
" transform="scale(0.015625)"/>
      <path id="DejaVuSans-4f" d="M 2522 4238 
Q 1834 4238 1429 3725 
Q 1025 3213 1025 2328 
Q 1025 1447 1429 934 
Q 1834 422 2522 422 
Q 3209 422 3611 934 
Q 4013 1447 4013 2328 
Q 4013 3213 3611 3725 
Q 3209 4238 2522 4238 
z
M 2522 4750 
Q 3503 4750 4090 4092 
Q 4678 3434 4678 2328 
Q 4678 1225 4090 567 
Q 3503 -91 2522 -91 
Q 1538 -91 948 565 
Q 359 1222 359 2328 
Q 359 3434 948 4092 
Q 1538 4750 2522 4750 
z
" transform="scale(0.015625)"/>
      <path id="DejaVuSans-54" d="M -19 4666 
L 3928 4666 
L 3928 4134 
L 2272 4134 
L 2272 0 
L 1638 0 
L 1638 4134 
L -19 4134 
L -19 4666 
z
" transform="scale(0.015625)"/>
     </defs>
     <use xlink:href="#DejaVuSans-4d"/>
     <use xlink:href="#DejaVuSans-44" x="86.279297"/>
     <use xlink:href="#DejaVuSans-4f" x="163.28125"/>
     <use xlink:href="#DejaVuSans-54" x="241.992188"/>
     <use xlink:href="#DejaVuSans-36" x="303.076172"/>
     <use xlink:href="#DejaVuSans-31" x="366.699219"/>
     <use xlink:href="#DejaVuSans-34" x="430.322266"/>
     <use xlink:href="#DejaVuSans-30" x="493.945312"/>
    </g>
   </g>
   <g id="legend_1">
    <g id="patch_7">
     <path d="M 559.04375 80.55625 
L 641 80.55625 
Q 643 80.55625 643 78.55625 
L 643 50.2 
Q 643 48.2 641 48.2 
L 559.04375 48.2 
Q 557.04375 48.2 557.04375 50.2 
L 557.04375 78.55625 
Q 557.04375 80.55625 559.04375 80.55625 
z
" style="fill: #ffffff; opacity: 0.8; stroke: #cccccc; stroke-linejoin: miter"/>
    </g>
    <g id="line2d_22">
     <path d="M 561.04375 56.298437 
L 571.04375 56.298437 
L 581.04375 56.298437 
" style="fill: none; stroke: #1f77b4; stroke-width: 1.5; stroke-linecap: square"/>
    </g>
    <g id="text_22">
     <!-- measured -->
     <g transform="translate(589.04375 59.798437) scale(0.1 -0.1)">
      <defs>
       <path id="DejaVuSans-6d" d="M 3328 2828 
Q 3544 3216 3844 3400 
Q 4144 3584 4550 3584 
Q 5097 3584 5394 3201 
Q 5691 2819 5691 2113 
L 5691 0 
L 5113 0 
L 5113 2094 
Q 5113 2597 4934 2840 
Q 4756 3084 4391 3084 
Q 3944 3084 3684 2787 
Q 3425 2491 3425 1978 
L 3425 0 
L 2847 0 
L 2847 2094 
Q 2847 2600 2669 2842 
Q 2491 3084 2119 3084 
Q 1678 3084 1418 2786 
Q 1159 2488 1159 1978 
L 1159 0 
L 581 0 
L 581 3500 
L 1159 3500 
L 1159 2956 
Q 1356 3278 1631 3431 
Q 1906 3584 2284 3584 
Q 2666 3584 2933 3390 
Q 3200 3197 3328 2828 
z
" transform="scale(0.015625)"/>
       <path id="DejaVuSans-61" d="M 2194 1759 
Q 1497 1759 1228 1600 
Q 959 1441 959 1056 
Q 959 750 1161 570 
Q 1363 391 1709 391 
Q 2188 391 2477 730 
Q 2766 1069 2766 1631 
L 2766 1759 
L 2194 1759 
z
M 3341 1997 
L 3341 0 
L 2766 0 
L 2766 531 
Q 2569 213 2275 61 
Q 1981 -91 1556 -91 
Q 1019 -91 701 211 
Q 384 513 384 1019 
Q 384 1609 779 1909 
Q 1175 2209 1959 2209 
L 2766 2209 
L 2766 2266 
Q 2766 2663 2505 2880 
Q 2244 3097 1772 3097 
Q 1472 3097 1187 3025 
Q 903 2953 641 2809 
L 641 3341 
Q 956 3463 1253 3523 
Q 1550 3584 1831 3584 
Q 2591 3584 2966 3190 
Q 3341 2797 3341 1997 
z
" transform="scale(0.015625)"/>
       <path id="DejaVuSans-75" d="M 544 1381 
L 544 3500 
L 1119 3500 
L 1119 1403 
Q 1119 906 1312 657 
Q 1506 409 1894 409 
Q 2359 409 2629 706 
Q 2900 1003 2900 1516 
L 2900 3500 
L 3475 3500 
L 3475 0 
L 2900 0 
L 2900 538 
Q 2691 219 2414 64 
Q 2138 -91 1772 -91 
Q 1169 -91 856 284 
Q 544 659 544 1381 
z
M 1991 3584 
L 1991 3584 
z
" transform="scale(0.015625)"/>
       <path id="DejaVuSans-64" d="M 2906 2969 
L 2906 4863 
L 3481 4863 
L 3481 0 
L 2906 0 
L 2906 525 
Q 2725 213 2448 61 
Q 2172 -91 1784 -91 
Q 1150 -91 751 415 
Q 353 922 353 1747 
Q 353 2572 751 3078 
Q 1150 3584 1784 3584 
Q 2172 3584 2448 3432 
Q 2725 3281 2906 2969 
z
M 947 1747 
Q 947 1113 1208 752 
Q 1469 391 1925 391 
Q 2381 391 2643 752 
Q 2906 1113 2906 1747 
Q 2906 2381 2643 2742 
Q 2381 3103 1925 3103 
Q 1469 3103 1208 2742 
Q 947 2381 947 1747 
z
" transform="scale(0.015625)"/>
      </defs>
      <use xlink:href="#DejaVuSans-6d"/>
      <use xlink:href="#DejaVuSans-65" x="97.412109"/>
      <use xlink:href="#DejaVuSans-61" x="158.935547"/>
      <use xlink:href="#DejaVuSans-73" x="220.214844"/>
      <use xlink:href="#DejaVuSans-75" x="272.314453"/>
      <use xlink:href="#DejaVuSans-72" x="335.693359"/>
      <use xlink:href="#DejaVuSans-65" x="374.556641"/>
      <use xlink:href="#DejaVuSans-64" x="436.080078"/>
     </g>
    </g>
    <g id="line2d_23">
     <path d="M 561.04375 70.976562 
L 571.04375 70.976562 
L 581.04375 70.976562 
" style="fill: none; stroke: #ff7f0e; stroke-width: 1.5; stroke-linecap: square"/>
    </g>
    <g id="text_23">
     <!-- predicted -->
     <g transform="translate(589.04375 74.476562) scale(0.1 -0.1)">
      <defs>
       <path id="DejaVuSans-70" d="M 1159 525 
L 1159 -1331 
L 581 -1331 
L 581 3500 
L 1159 3500 
L 1159 2969 
Q 1341 3281 1617 3432 
Q 1894 3584 2278 3584 
Q 2916 3584 3314 3078 
Q 3713 2572 3713 1747 
Q 3713 922 3314 415 
Q 2916 -91 2278 -91 
Q 1894 -91 1617 61 
Q 1341 213 1159 525 
z
M 3116 1747 
Q 3116 2381 2855 2742 
Q 2594 3103 2138 3103 
Q 1681 3103 1420 2742 
Q 1159 2381 1159 1747 
Q 1159 1113 1420 752 
Q 1681 391 2138 391 
Q 2594 391 2855 752 
Q 3116 1113 3116 1747 
z
" transform="scale(0.015625)"/>
       <path id="DejaVuSans-69" d="M 603 3500 
L 1178 3500 
L 1178 0 
L 603 0 
L 603 3500 
z
M 603 4863 
L 1178 4863 
L 1178 4134 
L 603 4134 
L 603 4863 
z
" transform="scale(0.015625)"/>
       <path id="DejaVuSans-63" d="M 3122 3366 
L 3122 2828 
Q 2878 2963 2633 3030 
Q 2388 3097 2138 3097 
Q 1578 3097 1268 2742 
Q 959 2388 959 1747 
Q 959 1106 1268 751 
Q 1578 397 2138 397 
Q 2388 397 2633 464 
Q 2878 531 3122 666 
L 3122 134 
Q 2881 22 2623 -34 
Q 2366 -91 2075 -91 
Q 1284 -91 818 406 
Q 353 903 353 1747 
Q 353 2603 823 3093 
Q 1294 3584 2113 3584 
Q 2378 3584 2631 3529 
Q 2884 3475 3122 3366 
z
" transform="scale(0.015625)"/>
      </defs>
      <use xlink:href="#DejaVuSans-70"/>
      <use xlink:href="#DejaVuSans-72" x="63.476562"/>
      <use xlink:href="#DejaVuSans-65" x="102.339844"/>
      <use xlink:href="#DejaVuSans-64" x="163.863281"/>
      <use xlink:href="#DejaVuSans-69" x="227.339844"/>
      <use xlink:href="#DejaVuSans-63" x="255.123047"/>
      <use xlink:href="#DejaVuSans-74" x="310.103516"/>
      <use xlink:href="#DejaVuSans-65" x="349.3125"/>
      <use xlink:href="#DejaVuSans-64" x="410.835938"/>
     </g>
    </g>
   </g>
  </g>
 </g>
 <defs>
  <clipPath id="p033536248b">
   <rect x="90" y="43.2" width="558" height="244.8"/>
  </clipPath>
 </defs>
</svg>
