<?xml version="1.0" encoding="utf-8" standalone="no"?>
<!DOCTYPE svg PUBLIC "-//W3C//DTD SVG 1.1//EN"
  "http://www.w3.org/Graphics/SVG/1.1/DTD/svg11.dtd">
<svg xmlns:xlink="http://www.w3.org/1999/xlink" width="712.96pt" height="351.43625pt" viewBox="0 0 712.96 351.43625" xmlns="http://www.w3.org/2000/svg" version="1.1">
 <metadata>
  <rdf:RDF xmlns:dc="http://purl.org/dc/elements/1.1/" xmlns:cc="http://creativecommons.org/ns#" xmlns:rdf="http://www.w3.org/1999/02/22-rdf-syntax-ns#">
   <cc:Work>
    <dc:type rdf:resource="http://purl.org/dc/dcmitype/StillImage"/>
    <dc:date>2023-10-05T22:03:42.492927</dc:date>
    <dc:format>image/svg+xml</dc:format>
    <dc:creator>
     <cc:Agent>
      <dc:title>Matplotlib v3.7.1, https://matplotlib.org/</dc:title>
     </cc:Agent>
    </dc:creator>
   </cc:Work>
  </rdf:RDF>
 </metadata>
 <defs>
  <style type="text/css">*{stroke-linejoin: round; stroke-linecap: butt}</style>
 </defs>
 <g id="figure_1">
  <g id="patch_1">
   <path d="M 0 351.43625 
L 712.96 351.43625 
L 712.96 0 
L 0 0 
z
" style="fill: #ffffff"/>
  </g>
  <g id="axes_1">
   <g id="patch_2">
    <path d="M 39.65 327.558125 
L 705.76 327.558125 
L 705.76 22.318125 
L 39.65 22.318125 
z
" style="fill: #ffffff"/>
   </g>
   <g id="matplotlib.axis_1">
    <g id="xtick_1">
     <g id="line2d_1">
      <defs>
       <path id="m87e75f93c8" d="M 0 0 
L 0 3.5 
" style="stroke: #000000; stroke-width: 0.8"/>
      </defs>
      <g>
       <use xlink:href="#m87e75f93c8" x="161.912581" y="327.558125" style="stroke: #000000; stroke-width: 0.8"/>
      </g>
     </g>
     <g id="text_1">
      <!-- 2013 -->
      <g transform="translate(149.187581 342.156563) scale(0.1 -0.1)">
       <defs>
        <path id="DejaVuSans-32" d="M 1228 531 
L 3431 531 
L 3431 0 
L 469 0 
L 469 531 
Q 828 903 1448 1529 
Q 2069 2156 2228 2338 
Q 2531 2678 2651 2914 
Q 2772 3150 2772 3378 
Q 2772 3750 2511 3984 
Q 2250 4219 1831 4219 
Q 1534 4219 1204 4116 
Q 875 4013 500 3803 
L 500 4441 
Q 881 4594 1212 4672 
Q 1544 4750 1819 4750 
Q 2544 4750 2975 4387 
Q 3406 4025 3406 3419 
Q 3406 3131 3298 2873 
Q 3191 2616 2906 2266 
Q 2828 2175 2409 1742 
Q 1991 1309 1228 531 
z
" transform="scale(0.015625)"/>
        <path id="DejaVuSans-30" d="M 2034 4250 
Q 1547 4250 1301 3770 
Q 1056 3291 1056 2328 
Q 1056 1369 1301 889 
Q 1547 409 2034 409 
Q 2525 409 2770 889 
Q 3016 1369 3016 2328 
Q 3016 3291 2770 3770 
Q 2525 4250 2034 4250 
z
M 2034 4750 
Q 2819 4750 3233 4129 
Q 3647 3509 3647 2328 
Q 3647 1150 3233 529 
Q 2819 -91 2034 -91 
Q 1250 -91 836 529 
Q 422 1150 422 2328 
Q 422 3509 836 4129 
Q 1250 4750 2034 4750 
z
" transform="scale(0.015625)"/>
        <path id="DejaVuSans-31" d="M 794 531 
L 1825 531 
L 1825 4091 
L 703 3866 
L 703 4441 
L 1819 4666 
L 2450 4666 
L 2450 531 
L 3481 531 
L 3481 0 
L 794 0 
L 794 531 
z
" transform="scale(0.015625)"/>
        <path id="DejaVuSans-33" d="M 2597 2516 
Q 3050 2419 3304 2112 
Q 3559 1806 3559 1356 
Q 3559 666 3084 287 
Q 2609 -91 1734 -91 
Q 1441 -91 1130 -33 
Q 819 25 488 141 
L 488 750 
Q 750 597 1062 519 
Q 1375 441 1716 441 
Q 2309 441 2620 675 
Q 2931 909 2931 1356 
Q 2931 1769 2642 2001 
Q 2353 2234 1838 2234 
L 1294 2234 
L 1294 2753 
L 1863 2753 
Q 2328 2753 2575 2939 
Q 2822 3125 2822 3475 
Q 2822 3834 2567 4026 
Q 2313 4219 1838 4219 
Q 1578 4219 1281 4162 
Q 984 4106 628 3988 
L 628 4550 
Q 988 4650 1302 4700 
Q 1616 4750 1894 4750 
Q 2613 4750 3031 4423 
Q 3450 4097 3450 3541 
Q 3450 3153 3228 2886 
Q 3006 2619 2597 2516 
z
" transform="scale(0.015625)"/>
       </defs>
       <use xlink:href="#DejaVuSans-32"/>
       <use xlink:href="#DejaVuSans-30" x="63.623047"/>
       <use xlink:href="#DejaVuSans-31" x="127.246094"/>
       <use xlink:href="#DejaVuSans-33" x="190.869141"/>
      </g>
     </g>
    </g>
    <g id="xtick_2">
     <g id="line2d_2">
      <g>
       <use xlink:href="#m87e75f93c8" x="292.341088" y="327.558125" style="stroke: #000000; stroke-width: 0.8"/>
      </g>
     </g>
     <g id="text_2">
      <!-- 2014 -->
      <g transform="translate(279.616088 342.156563) scale(0.1 -0.1)">
       <defs>
        <path id="DejaVuSans-34" d="M 2419 4116 
L 825 1625 
L 2419 1625 
L 2419 4116 
z
M 2253 4666 
L 3047 4666 
L 3047 1625 
L 3713 1625 
L 3713 1100 
L 3047 1100 
L 3047 0 
L 2419 0 
L 2419 1100 
L 313 1100 
L 313 1709 
L 2253 4666 
z
" transform="scale(0.015625)"/>
       </defs>
       <use xlink:href="#DejaVuSans-32"/>
       <use xlink:href="#DejaVuSans-30" x="63.623047"/>
       <use xlink:href="#DejaVuSans-31" x="127.246094"/>
       <use xlink:href="#DejaVuSans-34" x="190.869141"/>
      </g>
     </g>
    </g>
    <g id="xtick_3">
     <g id="line2d_3">
      <g>
       <use xlink:href="#m87e75f93c8" x="422.769595" y="327.558125" style="stroke: #000000; stroke-width: 0.8"/>
      </g>
     </g>
     <g id="text_3">
      <!-- 2015 -->
      <g transform="translate(410.044595 342.156563) scale(0.1 -0.1)">
       <defs>
        <path id="DejaVuSans-35" d="M 691 4666 
L 3169 4666 
L 3169 4134 
L 1269 4134 
L 1269 2991 
Q 1406 3038 1543 3061 
Q 1681 3084 1819 3084 
Q 2600 3084 3056 2656 
Q 3513 2228 3513 1497 
Q 3513 744 3044 326 
Q 2575 -91 1722 -91 
Q 1428 -91 1123 -41 
Q 819 9 494 109 
L 494 744 
Q 775 591 1075 516 
Q 1375 441 1709 441 
Q 2250 441 2565 725 
Q 2881 1009 2881 1497 
Q 2881 1984 2565 2268 
Q 2250 2553 1709 2553 
Q 1456 2553 1204 2497 
Q 953 2441 691 2322 
L 691 4666 
z
" transform="scale(0.015625)"/>
       </defs>
       <use xlink:href="#DejaVuSans-32"/>
       <use xlink:href="#DejaVuSans-30" x="63.623047"/>
       <use xlink:href="#DejaVuSans-31" x="127.246094"/>
       <use xlink:href="#DejaVuSans-35" x="190.869141"/>
      </g>
     </g>
    </g>
    <g id="xtick_4">
     <g id="line2d_4">
      <g>
       <use xlink:href="#m87e75f93c8" x="553.198103" y="327.558125" style="stroke: #000000; stroke-width: 0.8"/>
      </g>
     </g>
     <g id="text_4">
      <!-- 2016 -->
      <g transform="translate(540.473103 342.156563) scale(0.1 -0.1)">
       <defs>
        <path id="DejaVuSans-36" d="M 2113 2584 
Q 1688 2584 1439 2293 
Q 1191 2003 1191 1497 
Q 1191 994 1439 701 
Q 1688 409 2113 409 
Q 2538 409 2786 701 
Q 3034 994 3034 1497 
Q 3034 2003 2786 2293 
Q 2538 2584 2113 2584 
z
M 3366 4563 
L 3366 3988 
Q 3128 4100 2886 4159 
Q 2644 4219 2406 4219 
Q 1781 4219 1451 3797 
Q 1122 3375 1075 2522 
Q 1259 2794 1537 2939 
Q 1816 3084 2150 3084 
Q 2853 3084 3261 2657 
Q 3669 2231 3669 1497 
Q 3669 778 3244 343 
Q 2819 -91 2113 -91 
Q 1303 -91 875 529 
Q 447 1150 447 2328 
Q 447 3434 972 4092 
Q 1497 4750 2381 4750 
Q 2619 4750 2861 4703 
Q 3103 4656 3366 4563 
z
" transform="scale(0.015625)"/>
       </defs>
       <use xlink:href="#DejaVuSans-32"/>
       <use xlink:href="#DejaVuSans-30" x="63.623047"/>
       <use xlink:href="#DejaVuSans-31" x="127.246094"/>
       <use xlink:href="#DejaVuSans-36" x="190.869141"/>
      </g>
     </g>
    </g>
    <g id="xtick_5">
     <g id="line2d_5">
      <g>
       <use xlink:href="#m87e75f93c8" x="683.983948" y="327.558125" style="stroke: #000000; stroke-width: 0.8"/>
      </g>
     </g>
     <g id="text_5">
      <!-- 2017 -->
      <g transform="translate(671.258948 342.156563) scale(0.1 -0.1)">
       <defs>
        <path id="DejaVuSans-37" d="M 525 4666 
L 3525 4666 
L 3525 4397 
L 1831 0 
L 1172 0 
L 2766 4134 
L 525 4134 
L 525 4666 
z
" transform="scale(0.015625)"/>
       </defs>
       <use xlink:href="#DejaVuSans-32"/>
       <use xlink:href="#DejaVuSans-30" x="63.623047"/>
       <use xlink:href="#DejaVuSans-31" x="127.246094"/>
       <use xlink:href="#DejaVuSans-37" x="190.869141"/>
      </g>
     </g>
    </g>
   </g>
   <g id="matplotlib.axis_2">
    <g id="ytick_1">
     <g id="line2d_6">
      <defs>
       <path id="m2c26cf1872" d="M 0 0 
L -3.5 0 
" style="stroke: #000000; stroke-width: 0.8"/>
      </defs>
      <g>
       <use xlink:href="#m2c26cf1872" x="39.65" y="313.455687" style="stroke: #000000; stroke-width: 0.8"/>
      </g>
     </g>
     <g id="text_6">
      <!-- 0 -->
      <g transform="translate(26.2875 317.254906) scale(0.1 -0.1)">
       <use xlink:href="#DejaVuSans-30"/>
      </g>
     </g>
    </g>
    <g id="ytick_2">
     <g id="line2d_7">
      <g>
       <use xlink:href="#m2c26cf1872" x="39.65" y="250.152183" style="stroke: #000000; stroke-width: 0.8"/>
      </g>
     </g>
     <g id="text_7">
      <!-- 1000 -->
      <g transform="translate(7.2 253.951402) scale(0.1 -0.1)">
       <use xlink:href="#DejaVuSans-31"/>
       <use xlink:href="#DejaVuSans-30" x="63.623047"/>
       <use xlink:href="#DejaVuSans-30" x="127.246094"/>
       <use xlink:href="#DejaVuSans-30" x="190.869141"/>
      </g>
     </g>
    </g>
    <g id="ytick_3">
     <g id="line2d_8">
      <g>
       <use xlink:href="#m2c26cf1872" x="39.65" y="186.848679" style="stroke: #000000; stroke-width: 0.8"/>
      </g>
     </g>
     <g id="text_8">
      <!-- 2000 -->
      <g transform="translate(7.2 190.647898) scale(0.1 -0.1)">
       <use xlink:href="#DejaVuSans-32"/>
       <use xlink:href="#DejaVuSans-30" x="63.623047"/>
       <use xlink:href="#DejaVuSans-30" x="127.246094"/>
       <use xlink:href="#DejaVuSans-30" x="190.869141"/>
      </g>
     </g>
    </g>
    <g id="ytick_4">
     <g id="line2d_9">
      <g>
       <use xlink:href="#m2c26cf1872" x="39.65" y="123.545175" style="stroke: #000000; stroke-width: 0.8"/>
      </g>
     </g>
     <g id="text_9">
      <!-- 3000 -->
      <g transform="translate(7.2 127.344394) scale(0.1 -0.1)">
       <use xlink:href="#DejaVuSans-33"/>
       <use xlink:href="#DejaVuSans-30" x="63.623047"/>
       <use xlink:href="#DejaVuSans-30" x="127.246094"/>
       <use xlink:href="#DejaVuSans-30" x="190.869141"/>
      </g>
     </g>
    </g>
    <g id="ytick_5">
     <g id="line2d_10">
      <g>
       <use xlink:href="#m2c26cf1872" x="39.65" y="60.241672" style="stroke: #000000; stroke-width: 0.8"/>
      </g>
     </g>
     <g id="text_10">
      <!-- 4000 -->
      <g transform="translate(7.2 64.04089) scale(0.1 -0.1)">
       <use xlink:href="#DejaVuSans-34"/>
       <use xlink:href="#DejaVuSans-30" x="63.623047"/>
       <use xlink:href="#DejaVuSans-30" x="127.246094"/>
       <use xlink:href="#DejaVuSans-30" x="190.869141"/>
      </g>
     </g>
    </g>
   </g>
   <g id="line2d_11">
    <path d="M 69.927727 311.966472 
L 70.106396 311.176761 
L 70.165953 311.243229 
L 70.508402 312.123148 
L 70.597737 312.294068 
L 70.806184 312.518795 
L 70.984853 312.408014 
L 71.193301 311.911081 
L 71.282635 312.075671 
L 71.565528 312.61375 
L 71.625085 312.700793 
L 71.848421 313.012562 
L 71.967534 313.10277 
L 72.101536 313.170821 
L 72.116425 313.15183 
L 72.6971 313.044214 
L 72.875769 312.955589 
L 73.307553 312.851138 
L 73.545778 312.97458 
L 73.769115 312.708706 
L 73.888228 312.605837 
L 74.037119 312.480813 
L 74.066897 312.518795 
L 74.290233 312.408014 
L 74.468902 312.278242 
L 74.662461 312.379527 
L 74.811352 312.464987 
L 74.975132 312.480813 
L 75.079356 312.490308 
L 75.287803 312.677054 
L 75.392027 312.590012 
L 75.585585 312.085166 
L 75.8387 311.638876 
L 76.017369 311.790805 
L 76.121592 311.833535 
L 76.33004 312.347876 
L 76.389596 312.390605 
L 76.404485 312.257668 
L 76.49382 311.403071 
L 76.523598 303.824059 
L 76.627822 306.023856 
L 76.806491 308.901 
L 77.104273 310.106932 
L 77.416944 310.910886 
L 77.49139 310.841252 
L 77.625391 310.815931 
L 78.280512 311.949064 
L 78.325179 311.790805 
L 78.354957 311.752823 
L 78.399625 311.844613 
L 78.727185 312.417509 
L 78.816519 312.021863 
L 79.054745 309.790414 
L 79.069634 309.815735 
L 79.263192 310.341155 
L 79.665198 311.537591 
L 80.037425 312.186452 
L 80.647879 312.677054 
L 80.945661 312.787835 
L 81.139219 312.835313 
L 81.630559 312.923937 
L 81.77945 312.97458 
L 81.928341 312.955589 
L 82.717463 313.044214 
L 82.851465 313.069536 
L 83.342805 313.067953 
L 83.372584 312.684967 
L 83.447029 312.988824 
L 83.640587 313.094857 
L 83.968148 313.185064 
L 84.10215 313.208803 
L 86.767298 313.126509 
L 86.960857 312.96825 
L 87.22886 312.866964 
L 87.377751 312.923937 
L 87.630866 313.044214 
L 88.047761 313.15183 
L 88.494434 313.234125 
L 88.583768 313.208803 
L 88.613547 313.246785 
L 88.71777 313.259446 
L 88.762438 312.866964 
L 88.866661 312.980911 
L 89.730229 313.069536 
L 89.819564 313.126509 
L 89.834453 313.10277 
L 89.953565 312.980911 
L 89.968455 312.988824 
L 90.20668 313.177152 
L 90.787355 313.284767 
L 91.010691 313.33541 
L 91.129804 313.33541 
L 91.308473 313.386053 
L 92.901607 313.48085 
L 93.065387 313.497467 
L 93.378058 313.447932 
L 93.422725 313.291098 
L 93.482282 313.395549 
L 93.67584 313.395549 
L 94.048068 313.284767 
L 95.134972 313.390801 
L 95.283863 313.449357 
L 95.298752 313.430366 
L 97.353448 313.32908 
L 97.413004 313.177152 
L 97.47256 313.208803 
L 97.532117 312.909694 
L 97.561895 307.380133 
L 97.591673 298.52239 
L 97.666119 307.353229 
L 97.859677 311.29862 
L 98.008568 311.733832 
L 98.30635 312.61375 
L 98.574354 312.835313 
L 98.619021 312.866964 
L 98.693467 311.021667 
L 98.782801 311.607225 
L 99.065694 312.621663 
L 99.437921 313.044214 
L 99.482589 313.012562 
L 99.557034 309.037102 
L 99.646369 310.219295 
L 99.735703 311.154605 
L 99.750593 311.021667 
L 99.79526 285.481869 
L 99.869705 303.301805 
L 100.033485 308.701594 
L 100.301489 310.499413 
L 100.435491 311.032745 
L 100.495048 310.866574 
L 100.554604 310.864991 
L 100.658828 310.195556 
L 100.718384 310.366476 
L 101.075722 311.547086 
L 101.165057 311.822457 
L 101.179946 311.762318 
L 101.28417 310.391797 
L 101.343726 310.57063 
L 101.462839 311.393575 
L 101.492617 311.053319 
L 101.537284 303.824059 
L 101.552174 301.513481 
L 101.626619 305.644035 
L 101.820177 308.73008 
L 102.132848 310.292094 
L 102.296629 311.032745 
L 102.311518 310.872904 
L 102.356185 307.511488 
L 102.445519 308.516431 
L 103.10064 311.638876 
L 103.681315 312.202278 
L 103.934429 312.309894 
L 104.098209 312.480813 
L 104.113099 312.4729 
L 104.157766 312.347876 
L 104.232211 312.449161 
L 104.440659 312.645402 
L 104.768219 312.542534 
L 104.783108 312.5093 
L 104.842664 312.645402 
L 105.021334 312.772009 
L 105.229781 312.898616 
L 105.73601 312.824234 
L 105.810456 309.158962 
L 105.89979 310.293677 
L 106.138016 312.151635 
L 106.197572 312.294068 
L 106.227351 312.188034 
L 106.40602 311.762318 
L 106.435798 311.714841 
L 106.480465 311.833535 
L 106.748469 312.449161 
L 107.016473 312.708706 
L 107.150475 312.740357 
L 107.775817 312.851138 
L 107.969375 312.898616 
L 108.118266 312.996737 
L 108.22249 312.980911 
L 108.237379 312.96192 
L 108.460715 312.980911 
L 108.594717 313.012562 
L 108.624496 312.893868 
L 108.654274 312.333632 
L 108.698941 303.111894 
L 108.788276 308.059063 
L 109.011612 310.955199 
L 109.234949 312.056679 
L 109.592287 312.677054 
L 110.068738 312.779922 
L 110.321853 313.069536 
L 110.351631 313.044214 
L 110.470744 312.787835 
L 110.649413 312.550447 
L 110.783415 312.661228 
L 110.813193 312.708706 
L 110.85786 312.61375 
L 110.917417 311.773396 
L 111.051419 311.043823 
L 111.081197 311.12137 
L 111.780985 312.898616 
L 111.989432 312.859051 
L 112.212768 309.790414 
L 112.316992 310.315833 
L 112.599885 311.752823 
L 113.001891 312.480813 
L 113.433675 312.859051 
L 113.716567 312.898616 
L 114.029239 312.170626 
L 114.073906 312.24026 
L 114.371688 312.574186 
L 114.877917 312.96192 
L 115.056586 313.012562 
L 115.592594 313.094857 
L 115.726596 313.1455 
L 115.830819 313.069536 
L 115.875487 313.10277 
L 115.964821 313.20089 
L 115.9946 313.10277 
L 116.128601 313.132839 
L 116.366827 313.259446 
L 117.170838 313.186647 
L 117.319729 312.379527 
L 117.349508 312.417509 
L 117.587733 312.803661 
L 117.781291 313.094857 
L 117.915293 313.185064 
L 118.108852 313.310089 
L 118.272632 313.240455 
L 118.287521 313.259446 
L 118.659748 313.360732 
L 118.704416 313.405044 
L 118.778861 313.360732 
L 118.912863 313.310089 
L 118.927752 313.32275 
L 119.240423 313.475311 
L 119.255312 313.455687 
L 119.433981 313.386053 
L 119.448871 313.221464 
L 119.523316 293.711324 
L 119.612651 307.525731 
L 119.776431 310.736801 
L 119.999767 311.61672 
L 120.11888 311.968055 
L 120.357106 312.417509 
L 120.520886 312.449161 
L 120.669777 312.417509 
L 121.027115 312.645402 
L 121.28023 312.740357 
L 121.429121 312.803661 
L 121.578012 312.898616 
L 121.801348 313.012562 
L 122.009796 313.10277 
L 122.143797 313.126509 
L 122.545803 313.234125 
L 122.739361 313.310089 
L 123.141367 313.360732 
L 123.647596 313.465499 
L 124.019824 313.582927 
L 124.392051 313.475311 
L 124.600499 313.034719 
L 124.779168 312.645402 
L 125.255619 313.208803 
L 125.508734 313.316419 
L 125.523623 313.33541 
L 126.684973 313.51899 
L 128.695001 313.424035 
L 128.858781 313.386053 
L 128.992783 313.297428 
L 129.067229 312.582099 
L 129.335232 308.872513 
L 129.3799 309.592591 
L 129.573458 311.528095 
L 129.841462 312.491891 
L 130.049909 312.772009 
L 130.36258 312.88279 
L 130.779475 313.177152 
L 131.494152 313.284767 
L 131.717488 313.259446 
L 132.17905 313.360732 
L 132.313052 313.405044 
L 132.327941 313.386053 
L 132.68528 313.48085 
L 132.878838 313.541147 
L 133.3404 313.459169 
L 133.444624 313.310089 
L 133.474402 313.33541 
L 134.144411 313.567259 
L 134.1593 313.524529 
L 134.352859 313.386053 
L 135.275983 313.284767 
L 135.409985 313.259446 
L 137.598682 313.360732 
L 137.822019 313.405044 
L 137.926242 313.51361 
L 138.164468 313.486389 
L 138.417583 313.430366 
L 138.745143 313.33541 
L 138.923812 313.265776 
L 139.132259 313.360732 
L 140.889173 313.460593 
L 141.082731 313.497467 
L 141.231622 313.400296 
L 141.306068 313.360732 
L 141.350735 313.424035 
L 141.484737 313.48085 
L 141.514515 313.38447 
L 141.588961 313.33541 
L 141.633628 313.386053 
L 141.856965 313.497467 
L 142.288748 313.044214 
L 142.348305 313.110683 
L 142.660976 313.284767 
L 144.015884 313.373392 
L 144.134997 313.475311 
L 144.164775 313.449357 
L 144.537002 313.15183 
L 144.685893 313.164491 
L 145.132566 313.234125 
L 145.534572 313.132839 
L 145.683463 313.094857 
L 148.125275 313.177152 
L 148.259277 313.227794 
L 148.363501 312.980911 
L 148.423057 313.050545 
L 148.691061 313.284767 
L 148.720839 313.259446 
L 149.003732 313.348071 
L 149.182401 313.475311 
L 149.599296 313.386053 
L 149.748187 313.33541 
L 151.817772 313.227794 
L 151.966663 313.208803 
L 153.946913 313.10277 
L 153.976691 313.094857 
L 154.006469 313.185064 
L 154.170249 313.33541 
L 154.289362 313.098022 
L 154.423364 312.355789 
L 154.453142 312.441248 
L 154.765813 313.094857 
L 154.944483 313.192977 
L 154.974261 313.15816 
L 155.15293 313.253116 
L 156.433392 313.170821 
L 156.64184 311.909499 
L 156.686507 311.790805 
L 156.731174 311.930072 
L 156.9694 312.582099 
L 157.088513 312.677054 
L 157.267182 312.803661 
L 157.505408 312.898616 
L 157.892524 312.787835 
L 158.026526 312.278242 
L 158.100972 312.464987 
L 158.562534 312.803661 
L 159.78344 312.732444 
L 159.813218 312.352623 
L 159.842996 309.421671 
L 159.902553 277.157458 
L 159.962109 294.565921 
L 160.140778 307.131667 
L 160.364115 309.538783 
L 160.781009 310.676663 
L 160.855455 310.727306 
L 160.870344 310.676663 
L 160.974568 310.106932 
L 161.034124 309.378941 
L 161.10857 309.619495 
L 161.43613 310.559552 
L 161.853025 310.999511 
L 162.076361 311.088136 
L 162.09125 311.12137 
L 162.135917 310.966277 
L 162.210363 309.733441 
L 162.389032 300.59558 
L 162.433699 301.434352 
L 162.671925 307.147493 
L 162.954818 309.051346 
L 163.356824 310.144914 
L 163.431269 310.208217 
L 163.639716 310.537395 
L 163.877942 310.632351 
L 164.220391 310.955199 
L 164.503284 311.043823 
L 164.681953 311.176761 
L 165.277517 311.287542 
L 165.426408 311.320776 
L 165.634856 311.276464 
L 165.768858 311.309698 
L 166.06664 311.221073 
L 166.275087 311.309698 
L 166.438867 311.436305 
L 166.602647 311.423644 
L 166.677093 308.355007 
L 166.840873 287.950705 
L 166.900429 291.606483 
L 167.093987 301.32357 
L 167.138655 297.319624 
L 167.302435 261.584796 
L 167.347102 270.352331 
L 167.406658 278.471006 
L 167.436437 270.874585 
L 167.466215 264.575886 
L 167.525771 277.410672 
L 167.70444 290.166328 
L 167.927777 292.318647 
L 167.942666 292.19204 
L 167.987333 289.042691 
L 168.04689 280.829061 
L 168.106446 285.624301 
L 168.329783 297.208843 
L 168.627565 302.652944 
L 168.821123 304.267183 
L 169.014681 305.422472 
L 169.297574 306.720194 
L 169.922916 308.353425 
L 171.069377 309.416923 
L 171.233157 309.524539 
L 171.456493 309.733441 
L 171.724497 309.841057 
L 171.873388 309.8917 
L 172.111614 309.992985 
L 172.141392 310.043628 
L 172.215837 309.992985 
L 172.290283 309.980325 
L 172.320061 309.790414 
L 172.394507 310.018307 
L 172.424285 310.043628 
L 172.454063 309.917021 
L 172.528508 307.28676 
L 172.647621 177.676002 
L 172.722067 238.289106 
L 172.900736 288.789477 
L 173.153851 299.408639 
L 173.436744 303.285979 
L 173.689858 304.757786 
L 173.764304 304.488746 
L 173.794082 304.409616 
L 173.838749 304.631178 
L 174.181198 306.356199 
L 174.49387 306.989234 
L 174.866097 307.511488 
L 175.044766 307.821675 
L 175.14899 307.9103 
L 175.327659 308.182505 
L 175.357437 308.119202 
L 175.416994 308.062228 
L 175.550996 307.638095 
L 175.595663 307.701398 
L 175.684997 307.764702 
L 175.699887 307.511488 
L 175.789221 307.717224 
L 175.833888 307.653921 
L 175.893445 307.717224 
L 176.14656 308.182505 
L 176.265672 308.267965 
L 176.489009 308.473701 
L 176.518787 308.443632 
L 176.563454 305.46995 
L 176.6379 273.153511 
L 176.727234 284.896311 
L 176.891014 293.679672 
L 176.935682 293.046637 
L 176.950571 292.99916 
L 177.248353 300.0575 
L 177.29302 299.456117 
L 177.382355 292.65099 
L 177.486578 295.942773 
L 177.843917 302.051561 
L 178.186366 304.583701 
L 178.737263 306.482806 
L 178.841486 306.751846 
L 179.020156 307.036712 
L 179.347716 307.479836 
L 179.422161 307.574791 
L 179.541274 307.653921 
L 179.690165 306.656891 
L 179.7795 306.973408 
L 180.062393 307.701398 
L 180.27084 307.998925 
L 180.449509 308.119202 
L 180.538844 308.135027 
L 180.583511 306.957582 
L 180.628178 294.201926 
L 180.672846 268.263316 
L 180.747291 281.398793 
L 180.940849 295.642081 
L 180.970628 293.410632 
L 181.045073 266.332559 
L 181.134408 277.299891 
L 181.387522 294.787484 
L 181.670415 300.817142 
L 181.938419 303.032765 
L 181.997975 303.317631 
L 182.012865 303.191024 
L 182.042643 302.067387 
L 182.08731 282.205912 
L 182.117088 270.51059 
L 182.191534 283.013032 
L 182.474427 298.205873 
L 182.772209 302.273123 
L 183.114658 304.488746 
L 183.74 306.118811 
L 184.335564 307.131667 
L 184.529122 307.242448 
L 184.633346 307.448184 
L 184.678013 307.432359 
L 184.722681 307.432359 
L 184.841793 306.435328 
L 184.856682 306.46698 
L 185.139575 307.384881 
L 185.333134 307.764702 
L 185.482025 307.821675 
L 185.645805 308.062228 
L 185.854252 308.166679 
L 186.122256 308.296451 
L 186.330703 308.353425 
L 186.420038 308.473701 
L 186.449816 308.416728 
L 186.643374 308.502188 
L 186.807154 308.587647 
L 186.836933 308.502188 
L 186.896489 307.147493 
L 186.970935 295.151479 
L 187.090047 301.434352 
L 187.328273 304.900218 
L 187.581388 306.27707 
L 187.730279 306.846801 
L 187.953615 307.2741 
L 187.968504 307.258274 
L 188.013171 307.321577 
L 188.191841 307.638095 
L 188.385399 307.701398 
L 188.549179 307.941952 
L 188.69807 307.998925 
L 188.86185 308.239478 
L 189.129854 308.310695 
L 189.293634 308.473701 
L 189.382969 308.386659 
L 189.53186 308.062228 
L 189.606305 308.150853 
L 189.814752 308.445215 
L 190.038089 308.644621 
L 190.201869 308.715837 
L 190.320982 308.81554 
L 190.335871 308.801297 
L 190.469873 308.81554 
L 190.797433 308.980129 
L 191.00588 308.929486 
L 191.065437 308.106541 
L 191.110104 305.264214 
L 191.139882 302.985287 
L 191.214328 304.93187 
L 191.273884 305.770642 
L 191.303662 304.773611 
L 191.34833 277.758841 
L 191.392997 258.751964 
L 191.452553 272.203959 
L 191.646112 294.138623 
L 191.943894 302.447208 
L 192.16723 304.47292 
L 192.375677 305.454124 
L 192.554347 306.023856 
L 193.343469 307.448184 
L 193.432803 307.527314 
L 193.596584 307.701398 
L 193.745475 307.606443 
L 194.043257 306.561935 
L 194.192148 307.115841 
L 194.341039 307.384881 
L 194.355928 307.353229 
L 194.370817 307.258274 
L 194.415484 307.558966 
L 194.623931 307.998925 
L 195.100383 308.353425 
L 195.174828 308.267965 
L 195.249274 307.924543 
L 195.338608 305.374995 
L 195.442832 301.307745 
L 195.517277 302.557989 
L 195.889505 305.675686 
L 196.231954 306.910105 
L 196.782851 307.821675 
L 196.901964 307.878648 
L 197.065744 308.119202 
L 197.184856 308.182505 
L 197.199746 308.150853 
L 197.214635 308.062228 
L 197.274191 308.239478 
L 197.28908 308.239478 
L 197.869755 308.644621 
L 198.018646 308.163514 
L 198.063313 304.852741 
L 198.12287 287.032804 
L 198.212204 293.18907 
L 198.539764 303.39676 
L 198.94177 306.213766 
L 199.060883 306.372025 
L 199.120439 306.134637 
L 200.654016 308.630377 
L 200.773129 306.482806 
L 200.832686 305.232562 
L 200.892242 305.944726 
L 201.130468 307.432359 
L 201.487806 308.239478 
L 201.562252 308.339181 
L 202.500265 309.094076 
L 202.991605 309.201691 
L 203.170274 309.416923 
L 203.765838 309.323551 
L 204.018953 306.00803 
L 204.06362 293.711324 
L 204.123177 233.541344 
L 204.182733 261.331582 
L 204.361402 293.426458 
L 204.644295 302.146516 
L 205.001633 305.644035 
L 205.71631 307.574791 
L 205.820534 307.669747 
L 205.954536 307.9103 
L 205.999203 307.864405 
L 206.073649 307.084189 
L 206.103427 304.74196 
L 206.162983 257.042769 
L 206.20765 237.339554 
L 206.282096 246.835079 
L 206.624545 289.596596 
L 206.654323 289.818159 
L 206.669212 289.612422 
L 206.728769 287.507581 
L 206.773436 288.741999 
L 206.907438 292.698468 
L 206.937216 292.017955 
L 207.011662 283.646067 
L 207.086107 287.270193 
L 207.428557 299.376988 
L 207.905008 303.649974 
L 208.053899 304.74196 
L 208.247457 305.359169 
L 209.617254 308.119202 
L 209.632143 308.090715 
L 209.721478 308.062228 
L 209.736367 308.076472 
L 209.944814 308.353425 
L 210.123483 308.430971 
L 210.302153 308.644621 
L 210.495711 308.701594 
L 210.644602 308.872513 
L 210.897717 308.801297 
L 211.135942 306.372025 
L 211.210388 307.020886 
L 211.418835 307.956195 
L 211.433724 307.998925 
L 211.448613 307.865988 
L 211.567726 305.264214 
L 211.642172 305.691512 
L 211.910175 307.527314 
L 212.178179 308.239478 
L 212.237736 308.296451 
L 212.341959 308.601891 
L 215.736674 310.413954 
L 215.811119 310.391797 
L 215.840897 310.43611 
L 216.034456 310.632351 
L 216.049345 310.581708 
L 216.168458 310.537395 
L 216.183347 310.57063 
L 216.213125 310.581708 
L 216.228014 310.499413 
L 216.30246 310.144914 
L 216.362016 310.208217 
L 216.436461 310.043628 
L 216.496018 310.144914 
L 216.600242 310.246199 
L 216.823578 310.486753 
L 216.883134 310.57063 
L 217.076693 310.853913 
L 217.166027 310.866574 
L 217.195805 310.815931 
L 217.314918 310.910886 
L 217.493587 311.043823 
L 217.6127 310.94412 
L 217.672257 310.391797 
L 217.746702 310.486753 
L 217.970039 310.58329 
L 218.163597 310.955199 
L 218.297599 310.988433 
L 218.357155 310.043628 
L 218.461379 310.402875 
L 218.878274 311.088136 
L 218.967608 311.143526 
L 219.086721 307.778945 
L 219.176056 309.07825 
L 219.280279 309.606834 
L 219.310058 309.378941 
L 219.354725 309.215935 
L 219.414281 308.929486 
L 219.458949 309.257082 
L 219.652507 309.942342 
L 219.726952 310.043628 
L 220.024734 310.676663 
L 220.09918 310.749462 
L 220.337405 311.221073 
L 220.382073 309.404263 
L 220.456518 310.607029 
L 220.501185 310.999511 
L 220.575631 310.727306 
L 221.498755 312.094662 
L 221.513644 312.021863 
L 221.677424 310.689324 
L 221.722092 307.100015 
L 221.796537 308.77281 
L 221.885872 309.352037 
L 221.900761 309.147883 
L 221.975206 305.454124 
L 222.049652 307.821675 
L 222.109208 308.644621 
L 222.183654 308.326521 
L 222.272988 303.159372 
L 222.302766 300.247411 
L 222.362323 304.314661 
L 222.540992 307.73305 
L 222.853663 309.378941 
L 223.508783 310.771618 
L 223.657674 310.866574 
L 224.312795 311.743327 
L 224.327684 311.69585 
L 224.38724 309.733441 
L 224.491464 310.413954 
L 224.759468 311.309698 
L 224.833913 311.391993 
L 224.997693 311.556582 
L 225.131695 311.648372 
L 225.38481 312.018697 
L 225.414588 311.987046 
L 225.489034 311.771814 
L 225.563479 311.930072 
L 225.786816 312.132644 
L 225.861261 312.202278 
L 226.054819 312.480813 
L 226.337712 312.590012 
L 226.501492 312.645402 
L 226.635494 312.740357 
L 226.858831 312.898616 
L 227.007722 312.903364 
L 227.186391 312.132644 
L 227.290615 312.24026 
L 227.499062 312.480813 
L 227.513951 312.457074 
L 227.558618 312.102575 
L 227.618175 310.66875 
L 227.662842 308.310695 
L 227.737288 309.173205 
L 227.930846 309.790414 
L 227.990402 309.8917 
L 228.005291 309.815735 
L 228.094626 308.81554 
L 228.169071 309.146301 
L 228.303073 309.473897 
L 228.317962 309.418506 
L 228.392408 309.215935 
L 228.422186 309.391602 
L 228.600855 309.917021 
L 228.615744 309.90436 
L 228.675301 309.323551 
L 228.705079 305.343343 
L 228.779525 217.715468 
L 228.85397 268.548181 
L 229.032639 296.148509 
L 229.270865 303.349283 
L 229.702649 307.131667 
L 229.791983 307.558966 
L 230.000431 308.239478 
L 230.074876 308.296451 
L 230.119543 307.00506 
L 230.1791 287.31767 
L 230.253545 300.342366 
L 230.432214 305.359169 
L 230.640662 307.432359 
L 230.67044 306.878453 
L 230.700218 304.694482 
L 230.774664 306.403677 
L 231.027778 308.296451 
L 231.251115 308.744324 
L 231.414895 309.037102 
L 231.578675 309.258665 
L 231.593564 309.244421 
L 231.623342 308.995955 
L 231.66801 305.264214 
L 231.757344 307.321577 
L 232.040237 308.967469 
L 232.263574 309.296647 
L 232.472021 309.790414 
L 232.620912 309.866378 
L 232.680468 309.967664 
L 232.710247 303.016939 
L 232.799581 307.984682 
L 232.97825 309.079832 
L 233.216476 309.8917 
L 233.350478 309.992985 
L 233.558925 310.341155 
L 233.722705 310.246199 
L 233.782262 309.432749 
L 233.826929 309.094076 
L 233.886485 309.283986 
L 234.30338 310.374916 
L 234.541606 310.632351 
L 234.675608 310.815931 
L 234.690497 310.793775 
L 234.839388 310.499413 
L 234.928722 310.537395 
L 235.018057 310.632351 
L 235.032946 310.595951 
L 235.047835 310.537395 
L 235.107392 310.676663 
L 235.732734 311.556582 
L 235.747623 311.547086 
L 235.851847 311.594564 
L 236.104961 311.911081 
L 236.372965 312.010784 
L 236.521856 312.056679 
L 236.581412 312.151635 
L 236.864305 312.347876 
L 237.013196 312.449161 
L 237.221644 312.518795 
L 237.400313 312.61375 
L 237.534315 309.010198 
L 237.653428 309.632155 
L 237.683206 309.681216 
L 237.727873 307.397542 
L 237.77254 303.792407 
L 237.832097 306.372025 
L 238.010766 309.337794 
L 238.189435 310.094271 
L 238.204324 310.08161 
L 238.219213 309.684381 
L 238.308548 310.257277 
L 238.919001 311.354011 
L 239.082781 311.464792 
L 239.440119 311.801883 
L 239.633678 312.018697 
L 239.648567 312.002872 
L 239.797458 311.994959 
L 239.93146 312.018697 
L 240.154796 311.949064 
L 240.229242 311.646789 
L 240.288798 308.062228 
L 240.378133 308.981712 
L 240.467467 309.418506 
L 240.497245 305.944726 
L 240.527024 299.78846 
L 240.601469 305.264214 
L 240.780138 308.415145 
L 241.122588 310.043628 
L 241.197033 310.220878 
L 241.435259 310.727306 
L 241.539482 310.727306 
L 241.554371 310.749462 
L 241.852153 311.221073 
L 241.867043 311.176761 
L 241.926599 311.287542 
L 242.105268 311.638876 
L 242.23927 311.676858 
L 242.283937 311.638876 
L 242.328605 311.714841 
L 242.522163 311.835117 
L 242.537052 311.801883 
L 242.611497 311.637294 
L 242.626387 311.594564 
L 242.671054 311.676858 
L 242.700832 311.676858 
L 242.775278 311.781309 
L 242.953947 312.094662 
L 243.028392 312.132644 
L 243.05817 312.094662 
L 243.117727 312.018697 
L 243.192172 312.056679 
L 243.817515 311.949064 
L 243.862182 311.844613 
L 244.040851 311.474287 
L 244.115296 311.393575 
L 244.3833 310.727306 
L 244.398189 310.738384 
L 244.502413 310.999511 
L 244.517302 310.977355 
L 244.54708 309.962916 
L 244.621526 306.815149 
L 244.681082 307.699816 
L 244.904419 309.803075 
L 245.05331 310.341155 
L 245.068199 310.193974 
L 245.112866 306.387851 
L 245.246868 287.839924 
L 245.440426 303.776581 
L 245.663763 307.384881 
L 245.693541 307.432359 
L 245.946656 308.829783 
L 245.991323 308.927904 
L 246.050879 304.757786 
L 246.125325 307.669747 
L 246.36355 309.404263 
L 246.780445 310.246199 
L 247.018671 310.341155 
L 247.19734 310.581708 
L 247.286675 310.689324 
L 247.495122 311.043823 
L 247.5249 310.999511 
L 247.703569 311.110292 
L 247.941795 311.309698 
L 247.956684 311.29862 
L 248.596915 311.705345 
L 248.611804 311.667363 
L 248.68625 311.474287 
L 248.745806 311.556582 
L 248.998921 311.627798 
L 249.103145 307.68399 
L 249.192479 309.967664 
L 249.237147 310.208217 
L 249.266925 309.747684 
L 249.371148 299.661853 
L 249.460483 305.105955 
L 249.594485 307.495662 
L 249.639152 301.086182 
L 249.713598 304.884393 
L 249.922045 308.400902 
L 250.204938 309.594173 
L 250.577165 310.246199 
L 250.636722 310.341155 
L 250.785613 310.425032 
L 250.919615 310.643429 
L 251.098284 310.771618 
L 251.217397 310.866574 
L 251.410955 311.132448 
L 251.634291 311.221073 
L 251.783182 311.354011 
L 251.976741 311.455296 
L 252.185188 311.556582 
L 252.31919 311.648372 
L 252.527637 311.835117 
L 252.81053 311.920577 
L 252.959421 311.987046 
L 253.540096 312.094662 
L 253.733654 312.170626 
L 254.061215 312.278242 
L 254.269662 312.347876 
L 254.746113 312.449161 
L 254.880115 312.4729 
L 254.999228 312.480813 
L 255.520346 312.408014 
L 255.579903 312.194365 
L 255.639459 312.33838 
L 255.833017 312.518795 
L 256.101021 312.574186 
L 256.130799 312.346293 
L 256.294579 310.771618 
L 257.024145 312.132644 
L 257.27726 312.170626 
L 257.470818 312.028193 
L 257.7686 311.920577 
L 257.783489 311.949064 
L 258.43861 312.24026 
L 258.706614 312.347876 
L 258.870394 312.417509 
L 259.897741 312.518795 
L 260.106189 312.582099 
L 260.701753 312.677054 
L 260.820866 312.677054 
L 261.222871 312.574186 
L 261.341984 312.582099 
L 261.654655 312.4729 
L 261.684433 312.390605 
L 261.877992 310.632351 
L 261.892881 310.643429 
L 262.175774 311.743327 
L 262.786227 312.347876 
L 263.411569 312.267164 
L 263.441347 312.202278 
L 263.500903 312.309894 
L 263.590238 312.398518 
L 263.634905 312.363701 
L 263.709351 312.355789 
L 263.72424 312.379527 
L 263.858242 312.417509 
L 264.8707 312.309894 
L 264.974924 312.24026 
L 265.004702 312.278242 
L 265.37693 312.194365 
L 265.600266 311.676858 
L 265.764046 311.752823 
L 265.838492 311.844613 
L 266.061828 312.056679 
L 266.761616 312.132644 
L 266.86584 312.170626 
L 266.880729 312.142139 
L 267.089176 312.132644 
L 267.550738 312.24026 
L 267.744297 312.417509 
L 267.788964 312.379527 
L 268.235637 312.249755 
L 268.369639 312.278242 
L 268.607864 312.379527 
L 268.756755 312.490308 
L 268.84609 312.499804 
L 268.875868 312.480813 
L 269.322541 312.379527 
L 269.441654 312.347876 
L 269.605434 312.417509 
L 269.947883 312.518795 
L 270.186109 312.708706 
L 270.349889 312.811574 
L 270.439224 312.890703 
L 270.469002 312.835313 
L 270.603004 312.803661 
L 270.692338 312.898616 
L 270.737005 312.835313 
L 271.034787 312.677054 
L 271.1539 312.716619 
L 271.49635 312.923937 
L 271.645241 312.980911 
L 271.957912 313.069536 
L 271.98769 313.10277 
L 272.062135 313.063205 
L 272.568365 312.955589 
L 272.687477 312.980911 
L 272.702367 312.955589 
L 272.97037 312.851138 
L 273.119261 312.811574 
L 273.13415 312.835313 
L 273.297931 312.803661 
L 274.087053 312.904946 
L 274.221055 312.980911 
L 275.78441 312.88279 
L 276.007747 312.803661 
L 279.566241 312.716619 
L 279.759799 311.132448 
L 279.819356 308.135027 
L 279.893801 310.266773 
L 280.057581 311.844613 
L 280.340474 312.518795 
L 280.697813 312.740357 
L 281.3976 312.835313 
L 281.501824 312.859051 
L 281.516713 312.835313 
L 282.037832 312.740357 
L 282.246279 312.61375 
L 282.499394 312.708706 
L 282.648285 312.740357 
L 283.258738 312.629576 
L 283.318294 312.449161 
L 283.482074 310.569047 
L 283.526742 309.942342 
L 283.586298 310.474092 
L 283.750078 310.94412 
L 283.913858 310.933042 
L 283.973415 310.841252 
L 284.062749 310.474092 
L 284.122305 309.735023 
L 284.166973 303.254327 
L 284.360531 196.192276 
L 284.405198 224.204077 
L 284.568978 290.736059 
L 284.643424 294.945742 
L 284.70298 292.99916 
L 284.956095 302.637118 
L 285.358101 306.73602 
L 285.640994 307.850162 
L 285.923886 308.353425 
L 285.983443 308.459458 
L 286.102556 308.587647 
L 286.117445 308.487944 
L 286.177001 305.786467 
L 286.221668 299.946719 
L 286.296114 302.415556 
L 286.51945 305.818119 
L 286.802343 307.46401 
L 287.085236 308.182505 
L 287.338351 308.587647 
L 287.487242 308.872513 
L 287.665911 309.132058 
L 288.425255 309.632155 
L 288.529479 309.733441 
L 288.648592 309.776171 
L 288.67837 309.733441 
L 288.901706 309.682798 
L 288.931484 309.269743 
L 288.976152 301.893302 
L 289.184599 171.978686 
L 289.199488 174.510826 
L 289.646161 290.308761 
L 289.899276 299.756809 
L 290.182169 303.001113 
L 290.777733 306.102985 
L 290.881956 306.561935 
L 291.14996 307.448184 
L 291.209517 307.369055 
L 291.298851 305.960552 
L 291.328629 298.965515 
L 291.388186 260.461159 
L 291.462631 276.492771 
L 291.700857 296.670763 
L 291.939082 301.845824 
L 292.266643 304.884393 
L 292.653759 306.372025 
L 292.787761 306.656891 
L 292.877096 306.751846 
L 292.891985 306.720194 
L 293.040876 306.166288 
L 293.085543 306.308721 
L 293.413103 307.701398 
L 293.47266 307.807432 
L 294.172447 308.339181 
L 294.380895 308.253722 
L 294.61912 308.872513 
L 294.7829 309.037102 
L 295.021126 309.144718 
L 295.28913 309.258665 
L 295.661357 309.173205 
L 295.884694 308.81554 
L 295.899583 308.829783 
L 295.974028 308.901 
L 295.988917 308.872513 
L 296.063363 307.881813 
L 296.093141 305.264214 
L 296.182476 220.722384 
L 296.27181 257.343461 
L 296.510036 295.436345 
L 296.852485 302.716248 
L 296.956709 303.333457 
L 297.001376 303.032765 
L 297.135378 301.624262 
L 297.180045 301.766695 
L 297.254491 302.478859 
L 297.567162 305.105955 
L 298.311617 307.131667 
L 298.371173 307.19497 
L 298.609399 307.764702 
L 298.713623 307.821675 
L 298.847624 307.941952 
L 298.907181 308.014751 
L 299.056072 308.119202 
L 299.100739 308.196748 
L 299.309186 308.473701 
L 299.487856 308.544918 
L 299.636747 308.644621 
L 299.785638 308.73008 
L 300.068531 309.037102 
L 300.396091 309.201691 
L 300.649205 309.309307 
L 300.798096 309.473897 
L 301.691442 309.524539 
L 305.279715 305.090129 
L 305.294604 305.232562 
L 305.592386 307.036712 
L 305.875279 307.764702 
L 306.336841 308.459458 
L 308.853099 304.821089 
L 308.867988 304.947696 
L 309.091325 305.786467 
L 309.389106 306.815149 
L 309.433774 306.878453 
L 309.597554 307.100015 
L 310.059116 307.821675 
L 310.16334 307.878648 
L 310.32712 308.119202 
L 310.65468 308.353425 
L 310.669569 308.339181 
L 310.699347 307.587452 
L 310.758904 299.456117 
L 310.788682 297.034758 
L 310.848238 300.421495 
L 311.086464 305.20091 
L 311.369357 306.672716 
L 311.786251 307.638095 
L 312.188257 308.239478 
L 312.322259 308.150853 
L 312.337148 308.119202 
L 312.381815 308.267965 
L 312.545595 308.473701 
L 312.575374 308.445215 
L 312.649819 308.416728 
L 312.679597 308.473701 
L 312.783821 308.530674 
L 312.947601 308.758567 
L 313.453831 309.094076 
L 313.736723 309.201691 
L 313.885614 309.309307 
L 314.257842 309.416923 
L 314.272731 309.459653 
L 314.332287 309.296647 
L 314.496067 308.980129 
L 314.525846 309.094076 
L 314.749182 309.391602 
L 314.823628 309.431167 
L 314.972519 309.524539 
L 315.255412 309.632155 
L 315.389413 309.733441 
L 315.493637 309.682798 
L 315.568083 307.570044 
L 315.642528 301.070356 
L 315.702084 302.288949 
L 315.94031 305.517428 
L 316.327427 307.574791 
L 316.714543 308.473701 
L 316.788989 308.573404 
L 316.893212 308.644621 
L 316.908101 308.601891 
L 316.93788 308.516431 
L 316.997436 308.701594 
L 317.235662 308.929486 
L 317.548333 308.844027 
L 317.607889 308.530674 
L 317.622778 308.355007 
L 317.682335 308.844027 
L 317.905671 309.309307 
L 318.024784 309.416923 
L 318.24812 309.632155 
L 318.605459 309.733441 
L 318.813906 309.790414 
L 318.91813 309.70812 
L 318.962797 308.926321 
L 318.992575 306.403677 
L 319.052132 280.069419 
L 319.141466 292.318647 
L 319.305246 299.756809 
L 319.335025 299.725157 
L 319.677474 304.963522 
L 320.019923 306.720194 
L 320.436818 307.701398 
L 320.526153 307.807432 
L 320.868602 308.296451 
L 320.883491 308.282208 
L 320.89838 308.210992 
L 320.957936 308.416728 
L 321.196162 308.701594 
L 321.211051 308.687351 
L 321.285497 308.758567 
L 321.449277 308.954808 
L 321.627946 308.758567 
L 321.642835 308.81554 
L 321.836393 309.201691 
L 321.851282 309.187448 
L 321.925728 309.144718 
L 321.955506 309.187448 
L 322.565959 309.670137 
L 322.580848 309.632155 
L 322.804185 309.733441 
L 322.938187 309.790414 
L 323.176412 309.761927 
L 323.250858 307.86124 
L 323.310414 303.238501 
L 323.36997 305.011 
L 323.593307 307.084189 
L 323.667752 306.957582 
L 324.248427 308.81554 
L 324.427096 308.929486 
L 325.469333 309.682798 
L 325.558668 309.682798 
L 325.573557 309.733441 
L 326.050008 309.841057 
L 326.51157 310.094271 
L 326.67535 309.992985 
L 326.720018 309.592591 
L 326.749796 308.215739 
L 326.779574 296.085205 
L 326.913576 144.283403 
L 326.958243 178.150778 
L 327.18158 283.424505 
L 327.464473 298.269176 
L 327.732476 302.66877 
L 328.16426 305.454124 
L 329.012939 307.793189 
L 329.087384 307.821675 
L 329.102274 307.850162 
L 329.370277 308.182505 
L 329.474501 307.353229 
L 329.623392 305.311691 
L 329.668059 302.383904 
L 329.742505 303.111894 
L 330.099843 306.783498 
L 330.65074 308.182505 
L 330.710296 308.253722 
L 330.859187 308.353425 
L 330.918744 308.296451 
L 331.082524 307.210796 
L 331.171858 307.384881 
L 331.454751 308.339181 
L 332.228984 309.037102 
L 332.243873 308.994372 
L 332.377875 308.530674 
L 332.452321 308.644621 
L 332.645879 308.872513 
L 332.690546 308.967469 
L 332.869216 309.258665 
L 333.092552 309.366281 
L 333.241443 309.581512 
L 333.271221 309.524539 
L 333.479669 309.632155 
L 333.62856 309.790414 
L 333.732783 309.682798 
L 333.747672 309.72078 
L 333.971009 309.942342 
L 334.268791 309.337794 
L 334.28368 309.391602 
L 334.432571 309.581512 
L 334.581462 309.733441 
L 334.596351 309.695459 
L 334.760131 308.801297 
L 334.789909 308.658864 
L 334.834577 308.967469 
L 334.968579 309.201691 
L 334.983468 309.173205 
L 335.072802 308.980129 
L 335.162137 309.037102 
L 335.325917 309.187448 
L 335.579032 309.581512 
L 335.757701 309.841057 
L 335.77259 309.828396 
L 335.876814 309.790414 
L 335.891703 309.803075 
L 336.115039 310.094271 
L 336.353265 310.195556 
L 336.502156 310.290512 
L 336.531934 310.268356 
L 336.576601 309.828396 
L 336.636158 310.279434 
L 336.919051 310.379137 
L 336.93394 310.341155 
L 336.978607 310.486753 
L 337.008385 310.43611 
L 337.201943 310.581708 
L 337.306167 310.486753 
L 337.335945 310.537395 
L 337.499725 310.676663 
L 337.812396 310.771618 
L 337.901731 310.866574 
L 337.931509 310.815931 
L 338.348404 310.736801 
L 338.393071 310.486753 
L 338.467517 310.581708 
L 338.527073 310.499413 
L 338.556851 310.43611 
L 338.616408 310.537395 
L 338.631297 310.537395 
L 338.690853 310.426614 
L 338.839744 310.08161 
L 338.899301 309.992985 
L 338.943968 310.106932 
L 339.152415 310.43611 
L 339.822425 310.866574 
L 339.941538 310.910886 
L 340.06065 310.999511 
L 340.209541 310.74788 
L 340.343543 304.520397 
L 340.417989 306.688542 
L 340.641325 308.150853 
L 340.819994 308.530674 
L 340.834884 308.487944 
L 340.864662 308.416728 
L 340.909329 308.587647 
L 341.028442 308.744324 
L 341.05822 308.701594 
L 341.192222 308.616134 
L 341.475115 308.030577 
L 341.54956 305.137607 
L 341.638895 295.610429 
L 341.683562 297.430405 
L 341.89201 302.811203 
L 342.189792 305.707338 
L 342.606686 307.00506 
L 342.71091 307.258274 
L 342.934247 307.638095 
L 343.083138 307.748876 
L 343.306474 307.998925 
L 343.38092 307.956195 
L 343.410698 308.014751 
L 343.589367 308.473701 
L 343.693591 308.416728 
L 343.70848 308.353425 
L 343.768036 308.473701 
L 343.782925 308.473701 
L 343.857371 308.573404 
L 344.021151 308.587647 
L 344.140264 308.687351 
L 344.452935 308.872513 
L 344.482713 308.758567 
L 344.497602 308.484779 
L 344.52738 304.583701 
L 344.616715 306.577761 
L 344.810273 307.850162 
L 345.078277 308.473701 
L 345.19739 308.530674 
L 345.376059 308.81554 
L 345.52495 308.787054 
L 345.569617 308.573404 
L 345.614284 308.829783 
L 345.792954 309.094076 
L 345.867399 308.630377 
L 345.912066 298.617346 
L 345.941845 296.765718 
L 345.986512 300.579754 
L 346.150292 306.245418 
L 346.254516 307.036712 
L 346.269405 306.878453 
L 346.403407 299.725157 
L 346.433185 300.801317 
L 346.641632 305.675686 
L 346.879858 306.815149 
L 347.266974 307.701398 
L 347.296753 307.701398 
L 347.326531 307.353229 
L 347.386087 307.894474 
L 347.549867 308.119202 
L 347.609424 307.998925 
L 347.654091 308.090715 
L 347.951873 308.473701 
L 348.070986 308.193583 
L 348.190098 306.561935 
L 348.204988 306.625239 
L 348.413435 307.764702 
L 348.517659 307.878648 
L 348.532548 307.835918 
L 348.577215 307.821675 
L 348.621882 307.894474 
L 348.860108 308.324938 
L 348.874997 308.324938 
L 349.038777 306.767672 
L 349.083444 306.989234 
L 349.366337 308.119202 
L 349.470561 308.210992 
L 349.589674 308.445215 
L 349.619452 308.267965 
L 349.723676 307.880231 
L 349.768343 307.764702 
L 349.81301 307.9103 
L 349.842788 307.821675 
L 349.872567 307.527314 
L 349.932123 306.561935 
L 349.991679 306.941756 
L 350.200127 307.638095 
L 350.408574 306.783498 
L 350.423463 306.751846 
L 350.453242 306.894279 
L 350.631911 307.622269 
L 351.450811 308.487944 
L 351.569924 308.530674 
L 351.62948 308.630377 
L 351.852817 309.094076 
L 352.016597 309.173205 
L 352.195266 309.567269 
L 352.210155 309.524539 
L 352.403714 309.632155 
L 352.567494 309.790414 
L 352.656828 309.473897 
L 352.746163 309.606834 
L 352.775941 309.657477 
L 352.820608 309.499218 
L 352.865276 309.473897 
L 352.909943 309.538783 
L 353.252392 310.195556 
L 353.401283 310.094271 
L 353.535285 309.8917 
L 353.550174 309.942342 
L 353.713954 309.866378 
L 353.847956 308.701594 
L 353.892623 308.758567 
L 353.95218 308.85827 
L 354.101071 309.144718 
L 354.339296 309.8917 
L 354.741302 309.790414 
L 354.756191 309.733441 
L 354.830637 309.866378 
L 355.068862 310.290512 
L 355.09864 310.246199 
L 355.187975 310.233539 
L 355.27731 309.733441 
L 355.336866 309.90436 
L 355.366644 309.992985 
L 355.381533 309.8917 
L 355.649537 305.311691 
L 355.694204 306.435328 
L 355.872874 308.296451 
L 356.230212 309.258665 
L 356.274879 309.366281 
L 356.483327 309.733441 
L 356.572661 309.682798 
L 356.602439 309.747684 
L 356.647107 309.790414 
L 356.691774 309.682798 
L 356.810887 309.473897 
L 356.885332 309.527705 
L 356.959778 304.789437 
L 357.078891 306.973408 
L 357.272449 308.062228 
L 357.525564 308.758567 
L 357.659565 308.872513 
L 357.704233 308.980129 
L 357.942458 309.473897 
L 358.046682 309.567269 
L 358.374242 310.132253 
L 358.478466 310.366476 
L 358.627357 310.581708 
L 358.701802 310.537395 
L 358.806026 310.632351 
L 358.999584 310.866574 
L 359.014473 310.853913 
L 359.208032 310.955199 
L 359.356923 311.043823 
L 359.595148 311.132448 
L 359.744039 311.221073 
L 359.803596 311.132448 
L 359.863152 311.221073 
L 360.05671 311.474287 
L 360.250269 311.585068 
L 360.473605 311.676858 
L 360.488494 311.607225 
L 360.533162 311.474287 
L 360.592718 311.61672 
L 360.830944 311.790805 
L 360.994724 311.69585 
L 361.232949 311.556582 
L 361.337173 311.657867 
L 361.649844 311.882595 
L 361.664733 311.89209 
L 361.679622 311.822457 
L 361.739179 311.676858 
L 361.798735 311.762318 
L 361.813624 311.790805 
L 361.87318 311.714841 
L 361.88807 311.714841 
L 361.992293 311.714841 
L 362.007182 311.743327 
L 362.200741 311.987046 
L 362.230519 311.949064 
L 362.617635 311.844613 
L 362.677192 311.835117 
L 362.70697 311.89209 
L 363.138754 312.278242 
L 363.302534 312.389023 
L 363.436536 312.417509 
L 363.778985 312.311476 
L 363.957654 312.056679 
L 364.210769 312.094662 
L 364.329882 312.002872 
L 364.553218 311.29862 
L 364.597886 311.309698 
L 364.851 311.714841 
L 364.880778 311.676858 
L 365.208339 311.56766 
L 365.253006 311.243229 
L 365.282784 311.29862 
L 366.727027 312.582099 
L 367.143922 312.677054 
L 367.203478 312.708706 
L 367.248145 312.677054 
L 367.397036 312.645402 
L 367.575705 312.637489 
L 367.679929 312.582099 
L 367.709707 312.61375 
L 367.873487 312.677054 
L 368.201048 312.582099 
L 368.394606 312.417509 
L 368.930613 312.518795 
L 369.034837 312.550447 
L 369.049726 312.518795 
L 370.091963 312.417509 
L 370.225965 312.347876 
L 370.240854 312.371614 
L 370.464191 312.371614 
L 370.64286 312.294068 
L 370.895974 311.993376 
L 370.955531 310.375971 
L 371.000198 308.954808 
L 371.62554 310.353815 
L 371.744653 310.654507 
L 371.759542 310.572212 
L 371.80421 310.315833 
L 371.833988 301.798347 
L 371.923322 307.479836 
L 372.101991 310.292094 
L 372.384884 311.043823 
L 372.489108 311.143526 
L 372.95067 311.911081 
L 373.099561 312.018697 
L 373.308009 312.202278 
L 373.382454 312.178539 
L 373.412232 312.202278 
L 373.561123 312.379527 
L 373.78446 312.480813 
L 374.022685 312.772009 
L 374.290689 312.866964 
L 374.424691 312.898616 
L 374.618249 312.811574 
L 374.841586 312.582099 
L 375.332926 312.491891 
L 375.481817 310.581708 
L 375.571152 310.782696 
L 375.60093 310.701985 
L 375.660486 310.853913 
L 376.151826 312.355789 
L 376.330496 312.355789 
L 376.494276 312.4729 
L 376.509165 312.449161 
L 376.732501 312.449161 
L 377.372733 312.55836 
L 377.551402 312.645402 
L 377.968296 312.542534 
L 378.042742 312.480813 
L 378.087409 312.534621 
L 378.310746 312.708706 
L 378.340524 312.677054 
L 378.489415 312.61375 
L 378.697862 312.518795 
L 378.891421 312.379527 
L 379.055201 312.170626 
L 379.084979 312.142139 
L 379.099868 312.257668 
L 379.278537 312.803661 
L 379.457206 312.93185 
L 379.799656 313.012562 
L 379.814545 312.988824 
L 379.903879 313.050545 
L 380.037881 313.094857 
L 380.171883 313.012562 
L 380.365441 312.582099 
L 380.469665 312.645402 
L 380.693002 312.874877 
L 380.752558 312.890703 
L 380.782336 312.835313 
L 380.871671 312.708706 
L 380.975894 311.391993 
L 381.020562 311.626216 
L 381.258787 312.408014 
L 381.482124 312.645402 
L 381.675682 312.740357 
L 381.88413 312.923937 
L 382.137244 313.012562 
L 382.286135 313.069536 
L 382.583917 313.177152 
L 382.747697 313.20089 
L 382.86681 313.208803 
L 383.283705 313.118596 
L 383.462374 312.732444 
L 383.52193 306.340373 
L 383.611265 310.293677 
L 383.789934 311.61672 
L 384.102605 312.417509 
L 384.340831 312.756183 
L 384.474833 312.708706 
L 384.579056 312.764096 
L 385.17462 312.955589 
L 385.338401 313.063205 
L 385.51707 313.044214 
L 385.636182 313.012562 
L 385.651072 313.028388 
L 385.904186 313.004649 
L 386.216857 313.056875 
L 386.410416 313.020475 
L 386.514639 313.044214 
L 386.529528 313.012562 
L 387.720656 313.118596 
L 387.973771 313.253116 
L 387.98866 313.227794 
L 388.137551 313.208803 
L 388.673559 313.126509 
L 388.867117 312.96825 
L 389.075564 312.923937 
L 389.224455 312.923937 
L 389.373346 312.866964 
L 390.772922 312.764096 
L 390.906924 312.379527 
L 391.011147 312.480813 
L 391.174927 312.69288 
L 391.219595 312.669141 
L 391.29404 312.677054 
L 391.323818 312.708706 
L 391.770491 312.803661 
L 391.889604 312.866964 
L 391.904493 312.851138 
L 392.008717 312.740357 
L 392.038495 312.772009 
L 392.470279 312.661228 
L 392.634059 312.645402 
L 394.644087 312.669141 
L 394.778089 310.921964 
L 394.807867 311.243229 
L 394.956758 311.605642 
L 395.239651 312.33838 
L 395.820326 312.582099 
L 395.92455 312.69288 
L 396.08833 312.708706 
L 396.475447 312.803661 
L 396.594559 312.835313 
L 396.609448 312.811574 
L 396.803007 312.811574 
L 396.951898 312.866964 
L 396.966787 312.835313 
L 397.056121 312.898616 
L 398.783257 312.980911 
L 398.842813 313.012562 
L 398.90237 312.980911 
L 399.06615 312.980911 
L 399.438377 312.904946 
L 399.468155 312.866964 
L 399.527712 312.923937 
L 399.706381 313.012562 
L 400.108387 312.911277 
L 400.406169 312.803661 
L 400.540171 312.835313 
L 401.746188 312.93185 
L 401.880189 312.923937 
L 402.788425 312.8274 
L 402.922426 312.819487 
L 403.056428 312.653315 
L 403.101096 312.772009 
L 403.35421 312.980911 
L 403.69666 312.955589 
L 405.230237 312.897034 
L 405.274904 312.795748 
L 405.33446 312.898616 
L 405.498241 312.898616 
L 406.361808 312.803661 
L 406.510699 312.740357 
L 406.689368 312.645402 
L 406.748925 312.398518 
L 406.853149 310.266773 
L 406.942483 307.479836 
L 406.98715 308.225235 
L 407.180709 311.254308 
L 407.404045 311.958559 
L 407.642271 312.202278 
L 407.865607 312.309894 
L 408.178278 312.379527 
L 408.565395 312.480813 
L 408.669619 312.55836 
L 408.699397 312.526708 
L 408.878066 312.550447 
L 408.892955 312.550447 
L 410.605202 312.363701 
L 410.828538 312.449161 
L 411.826108 312.55836 
L 411.94522 312.518795 
L 411.989888 312.379527 
L 412.049444 312.534621 
L 412.28767 312.708706 
L 413.300128 312.811574 
L 413.43413 312.835313 
L 413.642578 312.764096 
L 413.806358 311.627798 
L 413.865914 311.714841 
L 413.925471 311.724336 
L 413.94036 311.762318 
L 414.223253 312.202278 
L 414.401922 312.309894 
L 414.625258 312.417509 
L 414.714593 312.347876 
L 414.75926 312.379527 
L 415.057042 312.490308 
L 415.220822 312.582099 
L 416.069501 312.684967 
L 416.203503 312.708706 
L 419.910888 312.597924 
L 419.940667 312.290902 
L 420.000223 305.564905 
L 420.030001 303.20685 
L 420.104447 305.359169 
L 420.134225 305.011 
L 420.178892 305.580731 
L 420.521341 310.030967 
L 420.744678 310.57063 
L 420.759567 310.559552 
L 421.087127 310.910886 
L 421.102016 310.866574 
L 421.146684 310.955199 
L 421.176462 310.933042 
L 421.310464 310.94412 
L 421.399798 310.94412 
L 421.429576 310.899808 
L 421.504022 309.345707 
L 421.593357 285.197003 
L 421.682691 297.113887 
L 421.831582 303.618322 
L 421.86136 303.349283 
L 421.891139 303.064417 
L 421.935806 303.523367 
L 422.174031 306.530284 
L 422.456924 307.835918 
L 422.724928 308.445215 
L 422.948265 308.658864 
L 423.052488 308.701594 
L 423.320492 308.601891 
L 423.365159 308.516431 
L 423.543829 306.498632 
L 423.945834 246.835079 
L 424.094725 36.19267 
L 424.154282 99.021398 
L 424.362729 278.898304 
L 424.600955 294.645051 
L 424.883847 300.722187 
L 425.270964 303.697452 
L 425.315631 303.998143 
L 425.553857 305.090129 
L 425.702748 305.374995 
L 425.896306 306.118811 
L 426.551427 307.258274 
L 427.117212 307.321577 
L 427.280992 307.574791 
L 427.400105 307.685573 
L 427.668109 307.821675 
L 427.772333 307.878648 
L 427.936113 308.104958 
L 428.174338 308.182505 
L 428.30834 308.253722 
L 428.412564 308.296451 
L 428.427453 308.282208 
L 428.784791 308.473701 
L 428.97835 308.530674 
L 429.097462 308.587647 
L 429.276132 308.687351 
L 429.484579 308.758567 
L 429.573914 308.701594 
L 429.588803 308.744324 
L 429.812139 308.81554 
L 430.020587 308.886757 
L 430.109921 308.980129 
L 430.139699 308.929486 
L 430.422592 309.037102 
L 430.497038 309.094076 
L 430.526816 309.037102 
L 430.735263 308.954808 
L 430.824598 308.310695 
L 430.884154 305.406646 
L 430.9586 301.703391 
L 431.018156 302.684596 
L 431.658387 306.641065 
L 431.717944 306.799324 
L 431.7775 306.688542 
L 431.866835 306.435328 
L 431.911502 306.577761 
L 432.179506 307.258274 
L 432.536844 307.764702 
L 433.340856 308.400902 
L 433.445079 308.416728 
L 433.579081 308.530674 
L 433.93642 308.587647 
L 434.040643 308.701594 
L 434.055532 308.673107 
L 434.293758 308.060646 
L 434.412871 306.118811 
L 434.487316 306.846801 
L 434.740431 307.764702 
L 435.038213 308.119202 
L 435.127548 308.196748 
L 435.157326 308.182505 
L 435.24666 308.239478 
L 435.395551 308.310695 
L 435.514664 308.353425 
L 435.648666 308.459458 
L 435.991115 308.658864 
L 436.095339 308.701594 
L 436.437788 308.801297 
L 436.601568 308.81554 
L 436.973796 308.73008 
L 437.092909 308.701594 
L 437.360912 308.81554 
L 437.40558 308.901 
L 437.628916 309.094076 
L 437.718251 308.994372 
L 437.748029 309.037102 
L 437.882031 309.144718 
L 438.135146 309.215935 
L 438.284037 309.309307 
L 439.326273 309.416923 
L 439.400719 309.459653 
L 439.445386 309.391602 
L 439.534721 309.105154 
L 439.609166 307.541557 
L 439.683612 302.368078 
L 439.758057 304.12475 
L 439.936727 305.833945 
L 440.517401 307.864405 
L 441.246967 308.416728 
L 441.380969 308.324938 
L 441.425636 308.030577 
L 441.500082 305.802293 
L 441.559638 304.140576 
L 441.634084 304.615353 
L 441.842531 305.596557 
L 441.872309 305.295865 
L 441.961644 302.257297 
L 442.080757 303.39676 
L 442.393428 304.726134 
L 442.452984 304.93187 
L 442.706099 305.849771 
L 442.750766 305.73899 
L 442.840101 305.169258 
L 443.569667 304.615353 
L 443.599445 304.726134 
L 443.659001 304.93187 
L 444.01634 305.707338 
L 444.269454 305.992204 
L 444.329011 306.055507 
L 444.50768 306.356199 
L 444.83524 306.688542 
L 444.894797 306.625239 
L 445.028798 306.435328 
L 445.207468 306.751846 
L 445.222357 306.720194 
L 445.267024 306.815149 
L 445.296802 306.815149 
L 445.371248 306.73602 
L 445.683919 305.865597 
L 445.713697 305.944726 
L 446.056146 306.941756 
L 446.115703 307.020886 
L 446.264594 307.131667 
L 446.353928 307.19497 
L 446.502819 307.384881 
L 446.755934 307.46401 
L 446.919714 307.638095 
L 447.038827 307.701398 
L 447.15794 307.764702 
L 447.545056 307.850162 
L 447.634391 307.941952 
L 447.664169 307.878648 
L 447.857727 307.638095 
L 447.872616 307.685573 
L 448.3044 308.119202 
L 448.319289 308.090715 
L 448.512848 307.258274 
L 448.527737 307.305752 
L 448.602182 307.384881 
L 448.63196 307.289926 
L 448.79574 307.131667 
L 448.81063 307.163319 
L 449.123301 307.574791 
L 449.182857 307.669747 
L 449.421083 307.998925 
L 449.435972 307.956195 
L 449.510417 307.941952 
L 449.540195 307.998925 
L 449.614641 308.090715 
L 449.778421 308.182505 
L 449.971979 308.239478 
L 450.12087 308.416728 
L 450.359096 308.473701 
L 450.373985 308.530674 
L 450.46332 308.473701 
L 450.522876 308.385076 
L 450.716434 307.821675 
L 450.746212 307.894474 
L 450.969549 308.239478 
L 451.177996 308.296451 
L 451.326887 308.430971 
L 451.475778 308.530674 
L 451.580002 308.430971 
L 451.684226 307.835918 
L 451.758671 304.536223 
L 451.818228 301.86165 
L 451.892673 302.39973 
L 452.384013 306.118811 
L 452.905132 307.432359 
L 453.158246 307.685573 
L 453.188025 307.638095 
L 453.26247 306.577761 
L 453.336916 304.093099 
L 453.396472 304.979348 
L 453.649587 306.846801 
L 453.858034 307.258274 
L 453.887812 307.19497 
L 453.93248 307.321577 
L 454.185594 307.764702 
L 454.274929 307.835918 
L 454.349374 307.926126 
L 454.364263 307.835918 
L 454.438709 306.387851 
L 454.498265 304.093099 
L 454.557822 304.868567 
L 454.736491 306.27707 
L 454.959827 306.751846 
L 454.974717 306.720194 
L 457.133636 303.618322 
L 457.163414 302.763725 
L 457.23786 303.760755 
L 457.476085 305.422472 
L 457.669643 305.992204 
L 458.324764 307.321577 
L 458.339653 307.163319 
L 458.399209 304.172228 
L 458.533211 294.170274 
L 458.5481 294.376011 
L 458.786326 301.703391 
L 459.069219 304.631178 
L 459.411668 305.9289 
L 459.515892 305.849771 
L 459.620115 304.39379 
L 459.813674 301.054531 
L 459.828563 301.13366 
L 460.230568 304.647004 
L 460.349681 305.343343 
L 460.513461 305.802293 
L 460.573018 305.913074 
L 460.587907 305.9289 
L 460.602796 305.913074 
L 460.662352 304.599527 
L 460.721909 299.804286 
L 460.796354 301.32357 
L 460.900578 302.478859 
L 460.930356 302.193994 
L 461.049469 279.278125 
L 461.138804 286.827068 
L 461.36214 295.45217 
L 461.406807 294.597573 
L 461.451475 295.610429 
L 461.496142 296.306768 
L 461.52592 295.689559 
L 461.659922 265.477961 
L 461.749257 281.113927 
L 461.942815 292.92003 
L 462.19593 299.1396 
L 462.463933 301.719217 
L 462.880828 304.029795 
L 463.372168 305.232562 
L 463.461503 305.169258 
L 463.476392 305.232562 
L 463.595505 305.675686 
L 463.640172 305.596557 
L 463.699729 304.441268 
L 463.744396 292.92003 
L 463.83373 298.585694 
L 464.027289 302.985287 
L 464.473962 305.501602 
L 464.801522 306.182114 
L 464.861078 306.213766 
L 465.009969 306.482806 
L 465.099304 306.498632 
L 465.114193 306.46698 
L 465.15886 306.182114 
L 465.248195 306.308721 
L 465.32264 306.372025 
L 465.48642 306.625239 
L 465.590644 306.688542 
L 465.813981 307.19497 
L 466.007539 307.2741 
L 466.15643 307.384881 
L 466.349988 307.495662 
L 466.513768 307.764702 
L 466.722216 307.821675 
L 466.871107 307.998925 
L 467.064665 308.104958 
L 467.258223 308.296451 
L 467.273112 308.282208 
L 467.347558 308.239478 
L 467.377336 308.282208 
L 467.556005 308.353425 
L 467.64534 308.416728 
L 467.660229 308.36925 
L 467.734674 308.353425 
L 467.764453 308.416728 
L 467.853787 308.502188 
L 467.987789 308.587647 
L 468.077124 308.473701 
L 468.106902 308.530674 
L 468.270682 308.701594 
L 468.538686 308.758567 
L 468.672688 308.872513 
L 468.747133 308.801297 
L 468.821579 308.644621 
L 468.866246 308.758567 
L 469.030026 308.929486 
L 469.283141 309.037102 
L 469.372475 309.094076 
L 469.387364 309.037102 
L 469.610701 309.144718 
L 469.700035 309.230178 
L 469.729814 308.758567 
L 469.819148 308.980129 
L 469.997817 309.037102 
L 470.146708 309.201691 
L 470.340267 309.309307 
L 470.489158 309.473897 
L 470.831607 309.581512 
L 470.906052 309.632155 
L 470.95072 309.581512 
L 471.590951 309.473897 
L 471.665397 309.416923 
L 471.695175 309.473897 
L 472.022735 309.581512 
L 472.975637 310.246199 
L 473.169196 310.341155 
L 473.318086 310.486753 
L 473.839205 310.581708 
L 474.077431 310.771618 
L 474.553882 310.665585 
L 474.58366 310.632351 
L 474.658105 310.676663 
L 474.792107 310.581708 
L 474.985666 310.391797 
L 475.283448 310.486753 
L 475.313226 310.537395 
L 475.357893 308.616134 
L 475.432339 306.340373 
L 475.491895 307.400707 
L 475.655675 308.355007 
L 475.893901 309.187448 
L 475.998124 309.416923 
L 476.221461 309.733441 
L 476.340574 309.841057 
L 476.534132 310.144914 
L 476.623466 310.106932 
L 476.787247 309.524539 
L 476.802136 309.538783 
L 477.010583 309.815735 
L 477.263698 310.043628 
L 477.427478 310.144914 
L 477.755038 310.486753 
L 477.948596 310.594369 
L 478.082598 310.632351 
L 478.171933 310.727306 
L 478.350602 310.815931 
L 478.484604 310.910886 
L 478.693051 311.221073 
L 478.841942 311.309698 
L 478.975944 311.5186 
L 478.990833 311.474287 
L 479.065279 311.403071 
L 479.124835 311.436305 
L 479.243948 311.354011 
L 479.258837 311.382497 
L 479.497063 311.638876 
L 479.690621 311.743327 
L 479.809734 311.69585 
L 479.973514 311.422062 
L 480.122405 309.051346 
L 480.152183 309.119397 
L 480.271296 309.486557 
L 480.52441 310.391797 
L 481.3582 311.594564 
L 481.387978 311.507522 
L 481.447535 311.436305 
L 481.492202 311.485365 
L 481.760206 311.812961 
L 481.998431 311.987046 
L 482.117544 312.075671 
L 482.251546 312.170626 
L 482.266435 312.142139 
L 482.415326 312.132644 
L 482.430215 312.16113 
L 482.638662 312.309894 
L 482.891777 312.417509 
L 482.981112 312.449161 
L 483.01089 312.417509 
L 483.115114 312.371614 
L 483.249116 308.630377 
L 483.308672 309.44541 
L 483.561787 311.06598 
L 483.844679 311.575573 
L 484.440243 312.170626 
L 484.574245 312.278242 
L 485.140031 312.732444 
L 485.274033 312.708706 
L 485.348478 312.61375 
L 485.512259 312.347876 
L 485.735595 312.24026 
L 485.765373 312.202278 
L 485.839819 312.278242 
L 485.973821 312.379527 
L 486.31627 312.645402 
L 486.733165 312.740357 
L 486.956501 312.955589 
L 487.150059 313.056875 
L 487.403174 313.126509 
L 487.745623 313.041049 
L 487.820069 311.944316 
L 487.909404 310.094271 
L 487.954071 310.377554 
L 488.222075 311.968055 
L 488.475189 312.278242 
L 488.62408 312.379527 
L 488.653858 312.311476 
L 488.743193 311.556582 
L 488.877195 310.44877 
L 488.921862 310.537395 
L 489.040975 311.06598 
L 489.651428 312.542534 
L 489.830097 312.677054 
L 489.94921 312.779922 
L 490.232103 313.044214 
L 490.44055 313.15183 
L 490.574552 313.170821 
L 491.304118 313.360732 
L 491.527455 313.470405 
L 492.018795 313.51899 
L 492.465468 313.497467 
L 492.614359 313.234125 
L 492.92703 313.310089 
L 493.016364 313.360732 
L 493.046143 313.33541 
L 493.269479 313.430366 
L 493.41837 313.455687 
L 493.894821 313.365479 
L 493.969267 313.310089 
L 494.013934 313.33541 
L 494.207492 313.33541 
L 494.237271 313.126509 
L 494.326605 313.227794 
L 494.490385 313.259446 
L 494.654165 313.360732 
L 494.832835 313.386053 
L 495.175284 312.898616 
L 495.547511 313.094857 
L 495.711291 313.044214 
L 495.830404 313.208803 
L 496.157964 313.470405 
L 496.336634 313.430366 
L 496.574859 313.51899 
L 496.693972 313.497467 
L 496.708861 313.508229 
L 496.872641 313.497467 
L 498.21266 313.603817 
L 498.37644 313.61901 
L 498.510442 313.603817 
L 498.525331 313.61901 
L 498.942226 313.644331 
L 500.401358 313.541147 
L 500.728918 313.048962 
L 500.892698 312.779922 
L 500.996922 312.843226 
L 501.220258 313.044214 
L 501.235147 313.028388 
L 501.443595 312.955589 
L 501.756266 312.851138 
L 501.800933 312.835313 
L 501.8456 312.88279 
L 501.920046 312.980911 
L 501.964713 312.947676 
L 502.098715 312.923937 
L 502.217828 312.819487 
L 502.426275 312.740357 
L 502.604944 312.866964 
L 502.902726 312.96825 
L 503.036728 313.044214 
L 503.111174 312.908112 
L 503.155841 312.417509 
L 503.230286 312.645402 
L 503.423845 312.923937 
L 503.66207 313.012562 
L 503.810961 313.069536 
L 503.930074 313.170821 
L 504.138521 313.234125 
L 504.257634 313.234125 
L 504.480971 313.126509 
L 504.600083 312.661228 
L 504.763864 312.132644 
L 505.136091 312.61375 
L 506.059215 312.716619 
L 506.222995 312.866964 
L 506.252773 312.835313 
L 506.446332 312.93185 
L 506.535666 312.996737 
L 506.550555 312.939763 
L 506.63989 312.474483 
L 506.729225 311.436305 
L 506.773892 311.575573 
L 507.086563 312.398518 
L 507.726794 313.044214 
L 508.173467 313.15183 
L 508.337247 313.284767 
L 508.352136 313.272107 
L 508.590362 313.208803 
L 509.037035 313.126509 
L 509.319928 312.772009 
L 509.960159 312.866964 
L 510.153717 312.980911 
L 510.466389 313.075866 
L 510.585501 313.094857 
L 510.615279 312.803661 
L 510.749281 311.556582 
L 510.76417 311.585068 
L 510.913061 311.686354 
L 511.449069 312.480813 
L 511.821297 312.590012 
L 511.985077 312.645402 
L 512.238191 312.740357 
L 512.357304 312.740357 
L 512.625308 312.645402 
L 512.833755 312.176956 
L 512.967757 311.835117 
L 512.982646 311.873099 
L 513.161315 311.97755 
L 514.054661 312.417509 
L 514.322665 312.518795 
L 514.501334 312.605837 
L 514.90334 312.708706 
L 515.082009 312.835313 
L 515.662684 312.93185 
L 515.841353 313.012562 
L 516.06469 312.917607 
L 516.243359 312.803661 
L 516.690032 312.904946 
L 516.749588 312.923937 
L 516.794256 312.874877 
L 516.868701 312.917607 
L 516.88359 312.947676 
L 517.196261 312.988824 
L 517.360041 312.779922 
L 517.568489 312.645402 
L 517.732269 312.677054 
L 518.134274 312.772009 
L 518.238498 312.803661 
L 518.253387 312.772009 
L 518.312944 312.645402 
L 518.566058 310.341155 
L 518.610726 310.735219 
L 518.923397 313.284767 
L 519.876299 313.208803 
L 520.040079 312.309894 
L 520.144303 312.480813 
L 520.561198 313.044214 
L 521.02276 312.955589 
L 521.35032 312.518795 
L 521.752326 312.417509 
L 521.811882 312.379527 
L 521.871438 312.417509 
L 523.583685 313.208803 
L 523.836799 312.480813 
L 523.926134 312.590012 
L 524.16436 312.772009 
L 524.298361 312.772009 
L 524.477031 312.898616 
L 524.789702 312.96403 
L 524.98326 313.069536 
L 525.80216 312.96825 
L 526.323279 312.669141 
L 526.606172 312.708706 
L 526.784841 312.582099 
L 527.678187 312.480813 
L 527.693076 312.464987 
L 527.707965 312.533038 
L 527.871745 313.069536 
L 528.020636 313.126509 
L 528.184416 313.069536 
L 529.062873 313.177152 
L 529.137319 313.208803 
L 529.152208 313.192977 
L 529.226653 312.772009 
L 529.330877 312.898616 
L 529.360655 312.923937 
L 529.390433 312.843226 
L 529.554213 312.104157 
L 529.732883 312.170626 
L 529.956219 312.056679 
L 530.328447 312.132644 
L 530.462448 312.202278 
L 530.790009 312.309894 
L 530.953789 312.408014 
L 531.058012 312.449161 
L 531.445129 312.398518 
L 531.460018 312.294068 
L 531.579131 307.115841 
L 531.653576 309.432749 
L 531.847135 310.771618 
L 531.862024 310.749462 
L 531.92158 307.710894 
L 531.951358 304.710308 
L 532.025804 306.182114 
L 532.278919 309.803075 
L 532.621368 310.988433 
L 532.904261 311.354011 
L 533.008484 311.436305 
L 533.157375 311.5186 
L 533.648716 311.423644 
L 533.678494 309.790414 
L 533.73805 279.167344 
L 533.842274 297.810226 
L 534.169834 308.060646 
L 534.288947 308.644621 
L 534.318725 308.429389 
L 534.363392 306.530284 
L 534.437838 291.179184 
L 534.512283 298.031788 
L 534.705842 302.747899 
L 534.973845 307.131667 
L 535.256738 308.929486 
L 535.271627 308.899417 
L 535.286517 308.283791 
L 535.360962 309.187448 
L 535.867191 310.328494 
L 537.132765 311.265386 
L 537.504992 311.363506 
L 537.638994 311.382497 
L 537.743218 311.382497 
L 537.787885 310.018307 
L 537.817663 295.610429 
L 537.847442 283.70937 
L 537.921887 293.2682 
L 538.219669 306.134637 
L 538.457895 308.573404 
L 538.785455 309.682798 
L 538.815233 309.619495 
L 538.8599 309.747684 
L 539.18746 310.353815 
L 539.440575 310.701985 
L 539.663912 310.866574 
L 539.783024 310.955199 
L 539.917026 311.032745 
L 540.34881 311.221073 
L 540.661481 311.331854 
L 540.825261 311.391993 
L 541.376158 311.496443 
L 541.629273 311.556582 
L 542.32906 311.638876 
L 542.418395 311.676858 
L 542.463062 311.032745 
L 542.522619 306.19794 
L 542.701288 271.365187 
L 542.745955 276.461119 
L 542.969292 298.902211 
L 543.222406 305.042651 
L 543.564856 307.835918 
L 543.862638 308.758567 
L 544.115752 309.309307 
L 544.294421 309.416923 
L 544.577314 309.761927 
L 544.607093 309.70812 
L 544.666649 309.803075 
L 544.875096 310.043628 
L 544.994209 310.144914 
L 545.574884 310.499413 
L 545.827999 310.581708 
L 545.962001 310.676663 
L 546.185337 310.771618 
L 546.378895 310.866574 
L 546.914903 310.977355 
L 546.944681 310.988433 
L 546.974459 310.899808 
L 547.168018 310.581708 
L 547.197796 310.654507 
L 547.525356 310.955199 
L 547.79336 311.043823 
L 547.897583 311.088136 
L 547.912472 311.077058 
L 548.076253 310.738384 
L 548.299589 310.676663 
L 548.508036 310.910886 
L 548.686706 310.999511 
L 548.820708 311.043823 
L 549.178046 311.176761 
L 549.833166 311.088136 
L 549.952279 311.043823 
L 550.309617 310.933042 
L 550.384063 309.902778 
L 550.488287 296.512504 
L 550.607399 172.453462 
L 550.696734 239.871694 
L 550.860514 284.421535 
L 551.024294 288.85278 
L 551.039183 288.536263 
L 551.083851 272.979427 
L 551.217852 158.210174 
L 551.277409 181.632471 
L 551.59008 286.85872 
L 551.902751 298.364132 
L 552.066531 300.532277 
L 552.08142 300.32654 
L 552.111198 292.413602 
L 552.185644 214.075516 
L 552.2452 239.0804 
L 552.453648 288.425482 
L 552.632317 296.496678 
L 552.662095 296.180161 
L 552.691873 288.203919 
L 552.75143 257.042769 
L 552.825875 262.043746 
L 553.049212 290.277109 
L 553.287437 297.905181 
L 553.808556 303.6658 
L 554.478565 306.641065 
L 554.940127 307.764702 
L 556.190812 308.81554 
L 556.324813 308.901 
L 556.399259 308.954808 
L 556.443926 308.901 
L 556.622595 308.104958 
L 556.667263 308.400902 
L 556.950156 309.094076 
L 557.233048 309.366281 
L 557.54572 309.473897 
L 557.694611 309.682798 
L 557.754167 309.632155 
L 557.783945 309.473897 
L 557.858391 309.670137 
L 558.081727 309.790414 
L 558.096616 309.747684 
L 558.215729 309.682798 
L 558.245507 309.733441 
L 558.36462 309.790414 
L 558.424176 308.628795 
L 558.498622 298.79143 
L 558.587956 302.573815 
L 558.811293 306.118811 
L 559.109075 307.73305 
L 559.942864 309.258665 
L 560.404427 309.173205 
L 561.491331 301.845824 
L 561.521109 302.304775 
L 561.774224 304.377964 
L 562.295342 306.577761 
L 562.429344 306.878453 
L 562.459122 306.73602 
L 562.50379 306.324547 
L 562.608013 300.738013 
L 562.66757 299.187077 
L 562.727126 300.32654 
L 562.99513 303.998143 
L 563.337579 305.73899 
L 563.799141 307.242448 
L 563.992699 307.606443 
L 564.260703 307.926126 
L 564.97538 308.616134 
L 565.020047 308.573404 
L 565.094493 308.074889 
L 565.124271 307.699816 
L 565.168938 298.490739 
L 565.228495 262.138702 
L 565.288051 276.476945 
L 565.496498 297.746922 
L 565.704946 302.257297 
L 565.943171 304.963522 
L 566.211175 306.308721 
L 567.000297 307.764702 
L 567.015187 307.73305 
L 567.089632 307.821675 
L 567.149188 307.9103 
L 567.44697 308.296451 
L 568.429651 309.094076 
L 568.697655 309.201691 
L 568.831657 309.323551 
L 568.876324 309.323551 
L 568.920991 309.391602 
L 569.084771 309.473897 
L 569.620779 309.418506 
L 569.665446 308.294869 
L 569.695224 296.79737 
L 569.725003 271.191103 
L 569.799448 291.875522 
L 569.993006 302.336426 
L 570.26101 305.73899 
L 570.573681 307.2741 
L 570.93102 308.062228 
L 570.945909 308.046403 
L 570.990576 308.119202 
L 571.005465 308.119202 
L 571.184134 308.353425 
L 571.347914 308.430971 
L 571.511694 308.587647 
L 571.9137 308.687351 
L 571.988146 308.787054 
L 572.003035 308.687351 
L 572.047702 306.102985 
L 572.151926 306.546109 
L 572.375262 302.383904 
L 572.419929 302.700422 
L 572.449708 302.114864 
L 572.509264 293.45811 
L 572.598599 229.584875 
L 572.658155 189.228891 
L 572.732601 190.336702 
L 572.777268 204.579991 
L 572.970826 281.5254 
L 573.209052 295.768688 
L 573.477055 300.611406 
L 573.849283 303.6658 
L 573.864172 303.618322 
L 573.879061 303.713278 
L 574.102398 305.343343 
L 574.206621 305.612383 
L 574.474625 306.498632 
L 574.534182 306.561935 
L 574.787296 307.19497 
L 574.89152 307.305752 
L 574.980854 307.416533 
L 575.025522 305.786467 
L 575.085078 298.60152 
L 575.159524 301.909128 
L 575.38286 305.564905 
L 575.591308 306.514458 
L 575.606197 306.451154 
L 575.650864 303.887362 
L 575.740199 290.609452 
L 575.799755 294.45514 
L 576.037981 301.513481 
L 576.320873 304.441268 
L 576.797325 306.403677 
L 577.288665 307.638095 
L 577.452445 307.701398 
L 577.646003 308.062228 
L 577.809783 308.150853 
L 578.03312 308.445215 
L 578.062898 308.430971 
L 578.137343 308.416728 
L 578.167122 308.473701 
L 578.241567 308.544918 
L 578.286234 308.445215 
L 578.375569 307.778945 
L 578.464904 308.119202 
L 578.68824 308.587647 
L 578.837131 308.673107 
L 579.000911 308.81554 
L 579.0158 308.801297 
L 579.134913 307.986264 
L 579.164691 307.764702 
L 579.239137 308.014751 
L 579.581586 308.758567 
L 579.656032 308.81554 
L 579.819812 309.037102 
L 579.968703 309.144718 
L 580.638712 309.632155 
L 580.787603 309.733441 
L 580.921605 309.790414 
L 581.442723 309.8917 
L 581.844729 310.094271 
L 582.112733 310.195556 
L 582.261624 310.290512 
L 583.244304 310.182896 
L 583.348528 309.942342 
L 583.408085 309.992985 
L 583.542086 310.094271 
L 584.063205 310.391797 
L 584.182318 310.328494 
L 584.226985 308.068559 
L 584.286541 296.971455 
L 584.360987 303.222676 
L 584.584323 307.068363 
L 584.882105 308.85827 
L 585.507447 309.841057 
L 585.730784 309.735023 
L 585.894564 308.787054 
L 585.95412 307.384881 
L 586.013677 307.880231 
L 586.251902 308.901 
L 586.966579 310.056289 
L 587.070803 309.992985 
L 587.11547 310.056289 
L 587.323918 310.290512 
L 587.577032 310.391797 
L 587.725923 310.461431 
L 587.874814 310.306338 
L 588.038594 308.980129 
L 588.098151 309.271325 
L 588.500156 309.992985 
L 588.753271 310.341155 
L 588.797938 310.303172 
L 588.917051 310.341155 
L 589.021275 310.44877 
L 589.185055 310.581708 
L 589.348835 310.581708 
L 589.572171 310.632351 
L 589.631728 310.548474 
L 589.691284 310.144914 
L 589.810397 308.787054 
L 589.914621 309.309307 
L 590.167735 309.8917 
L 590.286848 309.992985 
L 590.480407 310.144914 
L 590.495296 310.132253 
L 590.644187 310.043628 
L 590.971747 310.391797 
L 591.09086 310.499413 
L 591.25464 310.632351 
L 591.463087 310.738384 
L 591.477976 310.771618 
L 675.482273 313.061623 
L 675.482273 313.061623 
" clip-path="url(#p1bb90041ed)" style="fill: none; stroke: #1f77b4; stroke-width: 1.5; stroke-linecap: square"/>
   </g>
   <g id="line2d_12">
    <path d="M 69.927727 312.131061 
L 675.482273 312.131061 
L 675.482273 312.131061 
" clip-path="url(#p1bb90041ed)" style="fill: none; stroke: #ff7f0e; stroke-width: 1.5; stroke-linecap: square"/>
   </g>
   <g id="patch_3">
    <path d="M 39.65 327.558125 
L 39.65 22.318125 
" style="fill: none; stroke: #000000; stroke-width: 0.8; stroke-linejoin: miter; stroke-linecap: square"/>
   </g>
   <g id="patch_4">
    <path d="M 705.76 327.558125 
L 705.76 22.318125 
" style="fill: none; stroke: #000000; stroke-width: 0.8; stroke-linejoin: miter; stroke-linecap: square"/>
   </g>
   <g id="patch_5">
    <path d="M 39.65 327.558125 
L 705.76 327.558125 
" style="fill: none; stroke: #000000; stroke-width: 0.8; stroke-linejoin: miter; stroke-linecap: square"/>
   </g>
   <g id="patch_6">
    <path d="M 39.65 22.318125 
L 705.76 22.318125 
" style="fill: none; stroke: #000000; stroke-width: 0.8; stroke-linejoin: miter; stroke-linecap: square"/>
   </g>
   <g id="text_11">
    <!-- training -->
    <g transform="translate(349.461563 16.318125) scale(0.12 -0.12)">
     <defs>
      <path id="DejaVuSans-74" d="M 1172 4494 
L 1172 3500 
L 2356 3500 
L 2356 3053 
L 1172 3053 
L 1172 1153 
Q 1172 725 1289 603 
Q 1406 481 1766 481 
L 2356 481 
L 2356 0 
L 1766 0 
Q 1100 0 847 248 
Q 594 497 594 1153 
L 594 3053 
L 172 3053 
L 172 3500 
L 594 3500 
L 594 4494 
L 1172 4494 
z
" transform="scale(0.015625)"/>
      <path id="DejaVuSans-72" d="M 2631 2963 
Q 2534 3019 2420 3045 
Q 2306 3072 2169 3072 
Q 1681 3072 1420 2755 
Q 1159 2438 1159 1844 
L 1159 0 
L 581 0 
L 581 3500 
L 1159 3500 
L 1159 2956 
Q 1341 3275 1631 3429 
Q 1922 3584 2338 3584 
Q 2397 3584 2469 3576 
Q 2541 3569 2628 3553 
L 2631 2963 
z
" transform="scale(0.015625)"/>
      <path id="DejaVuSans-61" d="M 2194 1759 
Q 1497 1759 1228 1600 
Q 959 1441 959 1056 
Q 959 750 1161 570 
Q 1363 391 1709 391 
Q 2188 391 2477 730 
Q 2766 1069 2766 1631 
L 2766 1759 
L 2194 1759 
z
M 3341 1997 
L 3341 0 
L 2766 0 
L 2766 531 
Q 2569 213 2275 61 
Q 1981 -91 1556 -91 
Q 1019 -91 701 211 
Q 384 513 384 1019 
Q 384 1609 779 1909 
Q 1175 2209 1959 2209 
L 2766 2209 
L 2766 2266 
Q 2766 2663 2505 2880 
Q 2244 3097 1772 3097 
Q 1472 3097 1187 3025 
Q 903 2953 641 2809 
L 641 3341 
Q 956 3463 1253 3523 
Q 1550 3584 1831 3584 
Q 2591 3584 2966 3190 
Q 3341 2797 3341 1997 
z
" transform="scale(0.015625)"/>
      <path id="DejaVuSans-69" d="M 603 3500 
L 1178 3500 
L 1178 0 
L 603 0 
L 603 3500 
z
M 603 4863 
L 1178 4863 
L 1178 4134 
L 603 4134 
L 603 4863 
z
" transform="scale(0.015625)"/>
      <path id="DejaVuSans-6e" d="M 3513 2113 
L 3513 0 
L 2938 0 
L 2938 2094 
Q 2938 2591 2744 2837 
Q 2550 3084 2163 3084 
Q 1697 3084 1428 2787 
Q 1159 2491 1159 1978 
L 1159 0 
L 581 0 
L 581 3500 
L 1159 3500 
L 1159 2956 
Q 1366 3272 1645 3428 
Q 1925 3584 2291 3584 
Q 2894 3584 3203 3211 
Q 3513 2838 3513 2113 
z
" transform="scale(0.015625)"/>
      <path id="DejaVuSans-67" d="M 2906 1791 
Q 2906 2416 2648 2759 
Q 2391 3103 1925 3103 
Q 1463 3103 1205 2759 
Q 947 2416 947 1791 
Q 947 1169 1205 825 
Q 1463 481 1925 481 
Q 2391 481 2648 825 
Q 2906 1169 2906 1791 
z
M 3481 434 
Q 3481 -459 3084 -895 
Q 2688 -1331 1869 -1331 
Q 1566 -1331 1297 -1286 
Q 1028 -1241 775 -1147 
L 775 -588 
Q 1028 -725 1275 -790 
Q 1522 -856 1778 -856 
Q 2344 -856 2625 -561 
Q 2906 -266 2906 331 
L 2906 616 
Q 2728 306 2450 153 
Q 2172 0 1784 0 
Q 1141 0 747 490 
Q 353 981 353 1791 
Q 353 2603 747 3093 
Q 1141 3584 1784 3584 
Q 2172 3584 2450 3431 
Q 2728 3278 2906 2969 
L 2906 3500 
L 3481 3500 
L 3481 434 
z
" transform="scale(0.015625)"/>
     </defs>
     <use xlink:href="#DejaVuSans-74"/>
     <use xlink:href="#DejaVuSans-72" x="39.208984"/>
     <use xlink:href="#DejaVuSans-61" x="80.322266"/>
     <use xlink:href="#DejaVuSans-69" x="141.601562"/>
     <use xlink:href="#DejaVuSans-6e" x="169.384766"/>
     <use xlink:href="#DejaVuSans-69" x="232.763672"/>
     <use xlink:href="#DejaVuSans-6e" x="260.546875"/>
     <use xlink:href="#DejaVuSans-67" x="323.925781"/>
    </g>
   </g>
   <g id="legend_1">
    <g id="patch_7">
     <path d="M 617.36625 59.674375 
L 698.76 59.674375 
Q 700.76 59.674375 700.76 57.674375 
L 700.76 29.318125 
Q 700.76 27.318125 698.76 27.318125 
L 617.36625 27.318125 
Q 615.36625 27.318125 615.36625 29.318125 
L 615.36625 57.674375 
Q 615.36625 59.674375 617.36625 59.674375 
z
" style="fill: #ffffff; opacity: 0.8; stroke: #cccccc; stroke-linejoin: miter"/>
    </g>
    <g id="line2d_13">
     <path d="M 619.36625 35.416562 
L 629.36625 35.416562 
L 639.36625 35.416562 
" style="fill: none; stroke: #1f77b4; stroke-width: 1.5; stroke-linecap: square"/>
    </g>
    <g id="text_12">
     <!-- observed -->
     <g transform="translate(647.36625 38.916562) scale(0.1 -0.1)">
      <defs>
       <path id="DejaVuSans-6f" d="M 1959 3097 
Q 1497 3097 1228 2736 
Q 959 2375 959 1747 
Q 959 1119 1226 758 
Q 1494 397 1959 397 
Q 2419 397 2687 759 
Q 2956 1122 2956 1747 
Q 2956 2369 2687 2733 
Q 2419 3097 1959 3097 
z
M 1959 3584 
Q 2709 3584 3137 3096 
Q 3566 2609 3566 1747 
Q 3566 888 3137 398 
Q 2709 -91 1959 -91 
Q 1206 -91 779 398 
Q 353 888 353 1747 
Q 353 2609 779 3096 
Q 1206 3584 1959 3584 
z
" transform="scale(0.015625)"/>
       <path id="DejaVuSans-62" d="M 3116 1747 
Q 3116 2381 2855 2742 
Q 2594 3103 2138 3103 
Q 1681 3103 1420 2742 
Q 1159 2381 1159 1747 
Q 1159 1113 1420 752 
Q 1681 391 2138 391 
Q 2594 391 2855 752 
Q 3116 1113 3116 1747 
z
M 1159 2969 
Q 1341 3281 1617 3432 
Q 1894 3584 2278 3584 
Q 2916 3584 3314 3078 
Q 3713 2572 3713 1747 
Q 3713 922 3314 415 
Q 2916 -91 2278 -91 
Q 1894 -91 1617 61 
Q 1341 213 1159 525 
L 1159 0 
L 581 0 
L 581 4863 
L 1159 4863 
L 1159 2969 
z
" transform="scale(0.015625)"/>
       <path id="DejaVuSans-73" d="M 2834 3397 
L 2834 2853 
Q 2591 2978 2328 3040 
Q 2066 3103 1784 3103 
Q 1356 3103 1142 2972 
Q 928 2841 928 2578 
Q 928 2378 1081 2264 
Q 1234 2150 1697 2047 
L 1894 2003 
Q 2506 1872 2764 1633 
Q 3022 1394 3022 966 
Q 3022 478 2636 193 
Q 2250 -91 1575 -91 
Q 1294 -91 989 -36 
Q 684 19 347 128 
L 347 722 
Q 666 556 975 473 
Q 1284 391 1588 391 
Q 1994 391 2212 530 
Q 2431 669 2431 922 
Q 2431 1156 2273 1281 
Q 2116 1406 1581 1522 
L 1381 1569 
Q 847 1681 609 1914 
Q 372 2147 372 2553 
Q 372 3047 722 3315 
Q 1072 3584 1716 3584 
Q 2034 3584 2315 3537 
Q 2597 3491 2834 3397 
z
" transform="scale(0.015625)"/>
       <path id="DejaVuSans-65" d="M 3597 1894 
L 3597 1613 
L 953 1613 
Q 991 1019 1311 708 
Q 1631 397 2203 397 
Q 2534 397 2845 478 
Q 3156 559 3463 722 
L 3463 178 
Q 3153 47 2828 -22 
Q 2503 -91 2169 -91 
Q 1331 -91 842 396 
Q 353 884 353 1716 
Q 353 2575 817 3079 
Q 1281 3584 2069 3584 
Q 2775 3584 3186 3129 
Q 3597 2675 3597 1894 
z
M 3022 2063 
Q 3016 2534 2758 2815 
Q 2500 3097 2075 3097 
Q 1594 3097 1305 2825 
Q 1016 2553 972 2059 
L 3022 2063 
z
" transform="scale(0.015625)"/>
       <path id="DejaVuSans-76" d="M 191 3500 
L 800 3500 
L 1894 563 
L 2988 3500 
L 3597 3500 
L 2284 0 
L 1503 0 
L 191 3500 
z
" transform="scale(0.015625)"/>
       <path id="DejaVuSans-64" d="M 2906 2969 
L 2906 4863 
L 3481 4863 
L 3481 0 
L 2906 0 
L 2906 525 
Q 2725 213 2448 61 
Q 2172 -91 1784 -91 
Q 1150 -91 751 415 
Q 353 922 353 1747 
Q 353 2572 751 3078 
Q 1150 3584 1784 3584 
Q 2172 3584 2448 3432 
Q 2725 3281 2906 2969 
z
M 947 1747 
Q 947 1113 1208 752 
Q 1469 391 1925 391 
Q 2381 391 2643 752 
Q 2906 1113 2906 1747 
Q 2906 2381 2643 2742 
Q 2381 3103 1925 3103 
Q 1469 3103 1208 2742 
Q 947 2381 947 1747 
z
" transform="scale(0.015625)"/>
      </defs>
      <use xlink:href="#DejaVuSans-6f"/>
      <use xlink:href="#DejaVuSans-62" x="61.181641"/>
      <use xlink:href="#DejaVuSans-73" x="124.658203"/>
      <use xlink:href="#DejaVuSans-65" x="176.757812"/>
      <use xlink:href="#DejaVuSans-72" x="238.28125"/>
      <use xlink:href="#DejaVuSans-76" x="279.394531"/>
      <use xlink:href="#DejaVuSans-65" x="338.574219"/>
      <use xlink:href="#DejaVuSans-64" x="400.097656"/>
     </g>
    </g>
    <g id="line2d_14">
     <path d="M 619.36625 50.094688 
L 629.36625 50.094688 
L 639.36625 50.094688 
" style="fill: none; stroke: #ff7f0e; stroke-width: 1.5; stroke-linecap: square"/>
    </g>
    <g id="text_13">
     <!-- simulated -->
     <g transform="translate(647.36625 53.594688) scale(0.1 -0.1)">
      <defs>
       <path id="DejaVuSans-6d" d="M 3328 2828 
Q 3544 3216 3844 3400 
Q 4144 3584 4550 3584 
Q 5097 3584 5394 3201 
Q 5691 2819 5691 2113 
L 5691 0 
L 5113 0 
L 5113 2094 
Q 5113 2597 4934 2840 
Q 4756 3084 4391 3084 
Q 3944 3084 3684 2787 
Q 3425 2491 3425 1978 
L 3425 0 
L 2847 0 
L 2847 2094 
Q 2847 2600 2669 2842 
Q 2491 3084 2119 3084 
Q 1678 3084 1418 2786 
Q 1159 2488 1159 1978 
L 1159 0 
L 581 0 
L 581 3500 
L 1159 3500 
L 1159 2956 
Q 1356 3278 1631 3431 
Q 1906 3584 2284 3584 
Q 2666 3584 2933 3390 
Q 3200 3197 3328 2828 
z
" transform="scale(0.015625)"/>
       <path id="DejaVuSans-75" d="M 544 1381 
L 544 3500 
L 1119 3500 
L 1119 1403 
Q 1119 906 1312 657 
Q 1506 409 1894 409 
Q 2359 409 2629 706 
Q 2900 1003 2900 1516 
L 2900 3500 
L 3475 3500 
L 3475 0 
L 2900 0 
L 2900 538 
Q 2691 219 2414 64 
Q 2138 -91 1772 -91 
Q 1169 -91 856 284 
Q 544 659 544 1381 
z
M 1991 3584 
L 1991 3584 
z
" transform="scale(0.015625)"/>
       <path id="DejaVuSans-6c" d="M 603 4863 
L 1178 4863 
L 1178 0 
L 603 0 
L 603 4863 
z
" transform="scale(0.015625)"/>
      </defs>
      <use xlink:href="#DejaVuSans-73"/>
      <use xlink:href="#DejaVuSans-69" x="52.099609"/>
      <use xlink:href="#DejaVuSans-6d" x="79.882812"/>
      <use xlink:href="#DejaVuSans-75" x="177.294922"/>
      <use xlink:href="#DejaVuSans-6c" x="240.673828"/>
      <use xlink:href="#DejaVuSans-61" x="268.457031"/>
      <use xlink:href="#DejaVuSans-74" x="329.736328"/>
      <use xlink:href="#DejaVuSans-65" x="368.945312"/>
      <use xlink:href="#DejaVuSans-64" x="430.46875"/>
     </g>
    </g>
   </g>
  </g>
 </g>
 <defs>
  <clipPath id="p1bb90041ed">
   <rect x="39.65" y="22.318125" width="666.11" height="305.24"/>
  </clipPath>
 </defs>
</svg>
