<?xml version="1.0" encoding="utf-8" standalone="no"?>
<!DOCTYPE svg PUBLIC "-//W3C//DTD SVG 1.1//EN"
  "http://www.w3.org/Graphics/SVG/1.1/DTD/svg11.dtd">
<svg xmlns:xlink="http://www.w3.org/1999/xlink" width="460.8pt" height="345.6pt" viewBox="0 0 460.8 345.6" xmlns="http://www.w3.org/2000/svg" version="1.1">
 <metadata>
  <rdf:RDF xmlns:dc="http://purl.org/dc/elements/1.1/" xmlns:cc="http://creativecommons.org/ns#" xmlns:rdf="http://www.w3.org/1999/02/22-rdf-syntax-ns#">
   <cc:Work>
    <dc:type rdf:resource="http://purl.org/dc/dcmitype/StillImage"/>
    <dc:date>2023-12-01T09:55:47.278446</dc:date>
    <dc:format>image/svg+xml</dc:format>
    <dc:creator>
     <cc:Agent>
      <dc:title>Matplotlib v3.7.1, https://matplotlib.org/</dc:title>
     </cc:Agent>
    </dc:creator>
   </cc:Work>
  </rdf:RDF>
 </metadata>
 <defs>
  <style type="text/css">*{stroke-linejoin: round; stroke-linecap: butt}</style>
 </defs>
 <g id="figure_1">
  <g id="patch_1">
   <path d="M 0 345.6 
L 460.8 345.6 
L 460.8 0 
L 0 0 
z
" style="fill: #ffffff"/>
  </g>
  <g id="axes_1">
   <g id="patch_2">
    <path d="M 57.6 307.584 
L 414.72 307.584 
L 414.72 41.472 
L 57.6 41.472 
z
" style="fill: #ffffff"/>
   </g>
   <g id="matplotlib.axis_1">
    <g id="xtick_1">
     <g id="line2d_1">
      <defs>
       <path id="md6c1fc1501" d="M 0 0 
L 0 3.5 
" style="stroke: #000000; stroke-width: 0.8"/>
      </defs>
      <g>
       <use xlink:href="#md6c1fc1501" x="72.402925" y="307.584" style="stroke: #000000; stroke-width: 0.8"/>
      </g>
     </g>
     <g id="text_1">
      <!-- 4 -->
      <g transform="translate(69.221675 322.182437) scale(0.1 -0.1)">
       <defs>
        <path id="DejaVuSans-34" d="M 2419 4116 
L 825 1625 
L 2419 1625 
L 2419 4116 
z
M 2253 4666 
L 3047 4666 
L 3047 1625 
L 3713 1625 
L 3713 1100 
L 3047 1100 
L 3047 0 
L 2419 0 
L 2419 1100 
L 313 1100 
L 313 1709 
L 2253 4666 
z
" transform="scale(0.015625)"/>
       </defs>
       <use xlink:href="#DejaVuSans-34"/>
      </g>
     </g>
    </g>
    <g id="xtick_2">
     <g id="line2d_2">
      <g>
       <use xlink:href="#md6c1fc1501" x="137.682348" y="307.584" style="stroke: #000000; stroke-width: 0.8"/>
      </g>
     </g>
     <g id="text_2">
      <!-- 6 -->
      <g transform="translate(134.501098 322.182437) scale(0.1 -0.1)">
       <defs>
        <path id="DejaVuSans-36" d="M 2113 2584 
Q 1688 2584 1439 2293 
Q 1191 2003 1191 1497 
Q 1191 994 1439 701 
Q 1688 409 2113 409 
Q 2538 409 2786 701 
Q 3034 994 3034 1497 
Q 3034 2003 2786 2293 
Q 2538 2584 2113 2584 
z
M 3366 4563 
L 3366 3988 
Q 3128 4100 2886 4159 
Q 2644 4219 2406 4219 
Q 1781 4219 1451 3797 
Q 1122 3375 1075 2522 
Q 1259 2794 1537 2939 
Q 1816 3084 2150 3084 
Q 2853 3084 3261 2657 
Q 3669 2231 3669 1497 
Q 3669 778 3244 343 
Q 2819 -91 2113 -91 
Q 1303 -91 875 529 
Q 447 1150 447 2328 
Q 447 3434 972 4092 
Q 1497 4750 2381 4750 
Q 2619 4750 2861 4703 
Q 3103 4656 3366 4563 
z
" transform="scale(0.015625)"/>
       </defs>
       <use xlink:href="#DejaVuSans-36"/>
      </g>
     </g>
    </g>
    <g id="xtick_3">
     <g id="line2d_3">
      <g>
       <use xlink:href="#md6c1fc1501" x="202.961772" y="307.584" style="stroke: #000000; stroke-width: 0.8"/>
      </g>
     </g>
     <g id="text_3">
      <!-- 8 -->
      <g transform="translate(199.780522 322.182437) scale(0.1 -0.1)">
       <defs>
        <path id="DejaVuSans-38" d="M 2034 2216 
Q 1584 2216 1326 1975 
Q 1069 1734 1069 1313 
Q 1069 891 1326 650 
Q 1584 409 2034 409 
Q 2484 409 2743 651 
Q 3003 894 3003 1313 
Q 3003 1734 2745 1975 
Q 2488 2216 2034 2216 
z
M 1403 2484 
Q 997 2584 770 2862 
Q 544 3141 544 3541 
Q 544 4100 942 4425 
Q 1341 4750 2034 4750 
Q 2731 4750 3128 4425 
Q 3525 4100 3525 3541 
Q 3525 3141 3298 2862 
Q 3072 2584 2669 2484 
Q 3125 2378 3379 2068 
Q 3634 1759 3634 1313 
Q 3634 634 3220 271 
Q 2806 -91 2034 -91 
Q 1263 -91 848 271 
Q 434 634 434 1313 
Q 434 1759 690 2068 
Q 947 2378 1403 2484 
z
M 1172 3481 
Q 1172 3119 1398 2916 
Q 1625 2713 2034 2713 
Q 2441 2713 2670 2916 
Q 2900 3119 2900 3481 
Q 2900 3844 2670 4047 
Q 2441 4250 2034 4250 
Q 1625 4250 1398 4047 
Q 1172 3844 1172 3481 
z
" transform="scale(0.015625)"/>
       </defs>
       <use xlink:href="#DejaVuSans-38"/>
      </g>
     </g>
    </g>
    <g id="xtick_4">
     <g id="line2d_4">
      <g>
       <use xlink:href="#md6c1fc1501" x="268.241195" y="307.584" style="stroke: #000000; stroke-width: 0.8"/>
      </g>
     </g>
     <g id="text_4">
      <!-- 10 -->
      <g transform="translate(261.878695 322.182437) scale(0.1 -0.1)">
       <defs>
        <path id="DejaVuSans-31" d="M 794 531 
L 1825 531 
L 1825 4091 
L 703 3866 
L 703 4441 
L 1819 4666 
L 2450 4666 
L 2450 531 
L 3481 531 
L 3481 0 
L 794 0 
L 794 531 
z
" transform="scale(0.015625)"/>
        <path id="DejaVuSans-30" d="M 2034 4250 
Q 1547 4250 1301 3770 
Q 1056 3291 1056 2328 
Q 1056 1369 1301 889 
Q 1547 409 2034 409 
Q 2525 409 2770 889 
Q 3016 1369 3016 2328 
Q 3016 3291 2770 3770 
Q 2525 4250 2034 4250 
z
M 2034 4750 
Q 2819 4750 3233 4129 
Q 3647 3509 3647 2328 
Q 3647 1150 3233 529 
Q 2819 -91 2034 -91 
Q 1250 -91 836 529 
Q 422 1150 422 2328 
Q 422 3509 836 4129 
Q 1250 4750 2034 4750 
z
" transform="scale(0.015625)"/>
       </defs>
       <use xlink:href="#DejaVuSans-31"/>
       <use xlink:href="#DejaVuSans-30" x="63.623047"/>
      </g>
     </g>
    </g>
    <g id="xtick_5">
     <g id="line2d_5">
      <g>
       <use xlink:href="#md6c1fc1501" x="333.520619" y="307.584" style="stroke: #000000; stroke-width: 0.8"/>
      </g>
     </g>
     <g id="text_5">
      <!-- 12 -->
      <g transform="translate(327.158119 322.182437) scale(0.1 -0.1)">
       <defs>
        <path id="DejaVuSans-32" d="M 1228 531 
L 3431 531 
L 3431 0 
L 469 0 
L 469 531 
Q 828 903 1448 1529 
Q 2069 2156 2228 2338 
Q 2531 2678 2651 2914 
Q 2772 3150 2772 3378 
Q 2772 3750 2511 3984 
Q 2250 4219 1831 4219 
Q 1534 4219 1204 4116 
Q 875 4013 500 3803 
L 500 4441 
Q 881 4594 1212 4672 
Q 1544 4750 1819 4750 
Q 2544 4750 2975 4387 
Q 3406 4025 3406 3419 
Q 3406 3131 3298 2873 
Q 3191 2616 2906 2266 
Q 2828 2175 2409 1742 
Q 1991 1309 1228 531 
z
" transform="scale(0.015625)"/>
       </defs>
       <use xlink:href="#DejaVuSans-31"/>
       <use xlink:href="#DejaVuSans-32" x="63.623047"/>
      </g>
     </g>
    </g>
    <g id="xtick_6">
     <g id="line2d_6">
      <g>
       <use xlink:href="#md6c1fc1501" x="398.800042" y="307.584" style="stroke: #000000; stroke-width: 0.8"/>
      </g>
     </g>
     <g id="text_6">
      <!-- 14 -->
      <g transform="translate(392.437542 322.182437) scale(0.1 -0.1)">
       <use xlink:href="#DejaVuSans-31"/>
       <use xlink:href="#DejaVuSans-34" x="63.623047"/>
      </g>
     </g>
    </g>
    <g id="text_7">
     <!-- Training Period Length (years) -->
     <g transform="translate(161.170156 335.860562) scale(0.1 -0.1)">
      <defs>
       <path id="DejaVuSans-54" d="M -19 4666 
L 3928 4666 
L 3928 4134 
L 2272 4134 
L 2272 0 
L 1638 0 
L 1638 4134 
L -19 4134 
L -19 4666 
z
" transform="scale(0.015625)"/>
       <path id="DejaVuSans-72" d="M 2631 2963 
Q 2534 3019 2420 3045 
Q 2306 3072 2169 3072 
Q 1681 3072 1420 2755 
Q 1159 2438 1159 1844 
L 1159 0 
L 581 0 
L 581 3500 
L 1159 3500 
L 1159 2956 
Q 1341 3275 1631 3429 
Q 1922 3584 2338 3584 
Q 2397 3584 2469 3576 
Q 2541 3569 2628 3553 
L 2631 2963 
z
" transform="scale(0.015625)"/>
       <path id="DejaVuSans-61" d="M 2194 1759 
Q 1497 1759 1228 1600 
Q 959 1441 959 1056 
Q 959 750 1161 570 
Q 1363 391 1709 391 
Q 2188 391 2477 730 
Q 2766 1069 2766 1631 
L 2766 1759 
L 2194 1759 
z
M 3341 1997 
L 3341 0 
L 2766 0 
L 2766 531 
Q 2569 213 2275 61 
Q 1981 -91 1556 -91 
Q 1019 -91 701 211 
Q 384 513 384 1019 
Q 384 1609 779 1909 
Q 1175 2209 1959 2209 
L 2766 2209 
L 2766 2266 
Q 2766 2663 2505 2880 
Q 2244 3097 1772 3097 
Q 1472 3097 1187 3025 
Q 903 2953 641 2809 
L 641 3341 
Q 956 3463 1253 3523 
Q 1550 3584 1831 3584 
Q 2591 3584 2966 3190 
Q 3341 2797 3341 1997 
z
" transform="scale(0.015625)"/>
       <path id="DejaVuSans-69" d="M 603 3500 
L 1178 3500 
L 1178 0 
L 603 0 
L 603 3500 
z
M 603 4863 
L 1178 4863 
L 1178 4134 
L 603 4134 
L 603 4863 
z
" transform="scale(0.015625)"/>
       <path id="DejaVuSans-6e" d="M 3513 2113 
L 3513 0 
L 2938 0 
L 2938 2094 
Q 2938 2591 2744 2837 
Q 2550 3084 2163 3084 
Q 1697 3084 1428 2787 
Q 1159 2491 1159 1978 
L 1159 0 
L 581 0 
L 581 3500 
L 1159 3500 
L 1159 2956 
Q 1366 3272 1645 3428 
Q 1925 3584 2291 3584 
Q 2894 3584 3203 3211 
Q 3513 2838 3513 2113 
z
" transform="scale(0.015625)"/>
       <path id="DejaVuSans-67" d="M 2906 1791 
Q 2906 2416 2648 2759 
Q 2391 3103 1925 3103 
Q 1463 3103 1205 2759 
Q 947 2416 947 1791 
Q 947 1169 1205 825 
Q 1463 481 1925 481 
Q 2391 481 2648 825 
Q 2906 1169 2906 1791 
z
M 3481 434 
Q 3481 -459 3084 -895 
Q 2688 -1331 1869 -1331 
Q 1566 -1331 1297 -1286 
Q 1028 -1241 775 -1147 
L 775 -588 
Q 1028 -725 1275 -790 
Q 1522 -856 1778 -856 
Q 2344 -856 2625 -561 
Q 2906 -266 2906 331 
L 2906 616 
Q 2728 306 2450 153 
Q 2172 0 1784 0 
Q 1141 0 747 490 
Q 353 981 353 1791 
Q 353 2603 747 3093 
Q 1141 3584 1784 3584 
Q 2172 3584 2450 3431 
Q 2728 3278 2906 2969 
L 2906 3500 
L 3481 3500 
L 3481 434 
z
" transform="scale(0.015625)"/>
       <path id="DejaVuSans-20" transform="scale(0.015625)"/>
       <path id="DejaVuSans-50" d="M 1259 4147 
L 1259 2394 
L 2053 2394 
Q 2494 2394 2734 2622 
Q 2975 2850 2975 3272 
Q 2975 3691 2734 3919 
Q 2494 4147 2053 4147 
L 1259 4147 
z
M 628 4666 
L 2053 4666 
Q 2838 4666 3239 4311 
Q 3641 3956 3641 3272 
Q 3641 2581 3239 2228 
Q 2838 1875 2053 1875 
L 1259 1875 
L 1259 0 
L 628 0 
L 628 4666 
z
" transform="scale(0.015625)"/>
       <path id="DejaVuSans-65" d="M 3597 1894 
L 3597 1613 
L 953 1613 
Q 991 1019 1311 708 
Q 1631 397 2203 397 
Q 2534 397 2845 478 
Q 3156 559 3463 722 
L 3463 178 
Q 3153 47 2828 -22 
Q 2503 -91 2169 -91 
Q 1331 -91 842 396 
Q 353 884 353 1716 
Q 353 2575 817 3079 
Q 1281 3584 2069 3584 
Q 2775 3584 3186 3129 
Q 3597 2675 3597 1894 
z
M 3022 2063 
Q 3016 2534 2758 2815 
Q 2500 3097 2075 3097 
Q 1594 3097 1305 2825 
Q 1016 2553 972 2059 
L 3022 2063 
z
" transform="scale(0.015625)"/>
       <path id="DejaVuSans-6f" d="M 1959 3097 
Q 1497 3097 1228 2736 
Q 959 2375 959 1747 
Q 959 1119 1226 758 
Q 1494 397 1959 397 
Q 2419 397 2687 759 
Q 2956 1122 2956 1747 
Q 2956 2369 2687 2733 
Q 2419 3097 1959 3097 
z
M 1959 3584 
Q 2709 3584 3137 3096 
Q 3566 2609 3566 1747 
Q 3566 888 3137 398 
Q 2709 -91 1959 -91 
Q 1206 -91 779 398 
Q 353 888 353 1747 
Q 353 2609 779 3096 
Q 1206 3584 1959 3584 
z
" transform="scale(0.015625)"/>
       <path id="DejaVuSans-64" d="M 2906 2969 
L 2906 4863 
L 3481 4863 
L 3481 0 
L 2906 0 
L 2906 525 
Q 2725 213 2448 61 
Q 2172 -91 1784 -91 
Q 1150 -91 751 415 
Q 353 922 353 1747 
Q 353 2572 751 3078 
Q 1150 3584 1784 3584 
Q 2172 3584 2448 3432 
Q 2725 3281 2906 2969 
z
M 947 1747 
Q 947 1113 1208 752 
Q 1469 391 1925 391 
Q 2381 391 2643 752 
Q 2906 1113 2906 1747 
Q 2906 2381 2643 2742 
Q 2381 3103 1925 3103 
Q 1469 3103 1208 2742 
Q 947 2381 947 1747 
z
" transform="scale(0.015625)"/>
       <path id="DejaVuSans-4c" d="M 628 4666 
L 1259 4666 
L 1259 531 
L 3531 531 
L 3531 0 
L 628 0 
L 628 4666 
z
" transform="scale(0.015625)"/>
       <path id="DejaVuSans-74" d="M 1172 4494 
L 1172 3500 
L 2356 3500 
L 2356 3053 
L 1172 3053 
L 1172 1153 
Q 1172 725 1289 603 
Q 1406 481 1766 481 
L 2356 481 
L 2356 0 
L 1766 0 
Q 1100 0 847 248 
Q 594 497 594 1153 
L 594 3053 
L 172 3053 
L 172 3500 
L 594 3500 
L 594 4494 
L 1172 4494 
z
" transform="scale(0.015625)"/>
       <path id="DejaVuSans-68" d="M 3513 2113 
L 3513 0 
L 2938 0 
L 2938 2094 
Q 2938 2591 2744 2837 
Q 2550 3084 2163 3084 
Q 1697 3084 1428 2787 
Q 1159 2491 1159 1978 
L 1159 0 
L 581 0 
L 581 4863 
L 1159 4863 
L 1159 2956 
Q 1366 3272 1645 3428 
Q 1925 3584 2291 3584 
Q 2894 3584 3203 3211 
Q 3513 2838 3513 2113 
z
" transform="scale(0.015625)"/>
       <path id="DejaVuSans-28" d="M 1984 4856 
Q 1566 4138 1362 3434 
Q 1159 2731 1159 2009 
Q 1159 1288 1364 580 
Q 1569 -128 1984 -844 
L 1484 -844 
Q 1016 -109 783 600 
Q 550 1309 550 2009 
Q 550 2706 781 3412 
Q 1013 4119 1484 4856 
L 1984 4856 
z
" transform="scale(0.015625)"/>
       <path id="DejaVuSans-79" d="M 2059 -325 
Q 1816 -950 1584 -1140 
Q 1353 -1331 966 -1331 
L 506 -1331 
L 506 -850 
L 844 -850 
Q 1081 -850 1212 -737 
Q 1344 -625 1503 -206 
L 1606 56 
L 191 3500 
L 800 3500 
L 1894 763 
L 2988 3500 
L 3597 3500 
L 2059 -325 
z
" transform="scale(0.015625)"/>
       <path id="DejaVuSans-73" d="M 2834 3397 
L 2834 2853 
Q 2591 2978 2328 3040 
Q 2066 3103 1784 3103 
Q 1356 3103 1142 2972 
Q 928 2841 928 2578 
Q 928 2378 1081 2264 
Q 1234 2150 1697 2047 
L 1894 2003 
Q 2506 1872 2764 1633 
Q 3022 1394 3022 966 
Q 3022 478 2636 193 
Q 2250 -91 1575 -91 
Q 1294 -91 989 -36 
Q 684 19 347 128 
L 347 722 
Q 666 556 975 473 
Q 1284 391 1588 391 
Q 1994 391 2212 530 
Q 2431 669 2431 922 
Q 2431 1156 2273 1281 
Q 2116 1406 1581 1522 
L 1381 1569 
Q 847 1681 609 1914 
Q 372 2147 372 2553 
Q 372 3047 722 3315 
Q 1072 3584 1716 3584 
Q 2034 3584 2315 3537 
Q 2597 3491 2834 3397 
z
" transform="scale(0.015625)"/>
       <path id="DejaVuSans-29" d="M 513 4856 
L 1013 4856 
Q 1481 4119 1714 3412 
Q 1947 2706 1947 2009 
Q 1947 1309 1714 600 
Q 1481 -109 1013 -844 
L 513 -844 
Q 928 -128 1133 580 
Q 1338 1288 1338 2009 
Q 1338 2731 1133 3434 
Q 928 4138 513 4856 
z
" transform="scale(0.015625)"/>
      </defs>
      <use xlink:href="#DejaVuSans-54"/>
      <use xlink:href="#DejaVuSans-72" x="46.333984"/>
      <use xlink:href="#DejaVuSans-61" x="87.447266"/>
      <use xlink:href="#DejaVuSans-69" x="148.726562"/>
      <use xlink:href="#DejaVuSans-6e" x="176.509766"/>
      <use xlink:href="#DejaVuSans-69" x="239.888672"/>
      <use xlink:href="#DejaVuSans-6e" x="267.671875"/>
      <use xlink:href="#DejaVuSans-67" x="331.050781"/>
      <use xlink:href="#DejaVuSans-20" x="394.527344"/>
      <use xlink:href="#DejaVuSans-50" x="426.314453"/>
      <use xlink:href="#DejaVuSans-65" x="482.992188"/>
      <use xlink:href="#DejaVuSans-72" x="544.515625"/>
      <use xlink:href="#DejaVuSans-69" x="585.628906"/>
      <use xlink:href="#DejaVuSans-6f" x="613.412109"/>
      <use xlink:href="#DejaVuSans-64" x="674.59375"/>
      <use xlink:href="#DejaVuSans-20" x="738.070312"/>
      <use xlink:href="#DejaVuSans-4c" x="769.857422"/>
      <use xlink:href="#DejaVuSans-65" x="823.820312"/>
      <use xlink:href="#DejaVuSans-6e" x="885.34375"/>
      <use xlink:href="#DejaVuSans-67" x="948.722656"/>
      <use xlink:href="#DejaVuSans-74" x="1012.199219"/>
      <use xlink:href="#DejaVuSans-68" x="1051.408203"/>
      <use xlink:href="#DejaVuSans-20" x="1114.787109"/>
      <use xlink:href="#DejaVuSans-28" x="1146.574219"/>
      <use xlink:href="#DejaVuSans-79" x="1185.587891"/>
      <use xlink:href="#DejaVuSans-65" x="1244.767578"/>
      <use xlink:href="#DejaVuSans-61" x="1306.291016"/>
      <use xlink:href="#DejaVuSans-72" x="1367.570312"/>
      <use xlink:href="#DejaVuSans-73" x="1408.683594"/>
      <use xlink:href="#DejaVuSans-29" x="1460.783203"/>
     </g>
    </g>
   </g>
   <g id="matplotlib.axis_2">
    <g id="ytick_1">
     <g id="line2d_7">
      <defs>
       <path id="m3f32e783ee" d="M 0 0 
L -3.5 0 
" style="stroke: #000000; stroke-width: 0.8"/>
      </defs>
      <g>
       <use xlink:href="#m3f32e783ee" x="57.6" y="267.495454" style="stroke: #000000; stroke-width: 0.8"/>
      </g>
     </g>
     <g id="text_8">
      <!-- −25 -->
      <g transform="translate(29.495313 271.294673) scale(0.1 -0.1)">
       <defs>
        <path id="DejaVuSans-2212" d="M 678 2272 
L 4684 2272 
L 4684 1741 
L 678 1741 
L 678 2272 
z
" transform="scale(0.015625)"/>
        <path id="DejaVuSans-35" d="M 691 4666 
L 3169 4666 
L 3169 4134 
L 1269 4134 
L 1269 2991 
Q 1406 3038 1543 3061 
Q 1681 3084 1819 3084 
Q 2600 3084 3056 2656 
Q 3513 2228 3513 1497 
Q 3513 744 3044 326 
Q 2575 -91 1722 -91 
Q 1428 -91 1123 -41 
Q 819 9 494 109 
L 494 744 
Q 775 591 1075 516 
Q 1375 441 1709 441 
Q 2250 441 2565 725 
Q 2881 1009 2881 1497 
Q 2881 1984 2565 2268 
Q 2250 2553 1709 2553 
Q 1456 2553 1204 2497 
Q 953 2441 691 2322 
L 691 4666 
z
" transform="scale(0.015625)"/>
       </defs>
       <use xlink:href="#DejaVuSans-2212"/>
       <use xlink:href="#DejaVuSans-32" x="83.789062"/>
       <use xlink:href="#DejaVuSans-35" x="147.412109"/>
      </g>
     </g>
    </g>
    <g id="ytick_2">
     <g id="line2d_8">
      <g>
       <use xlink:href="#m3f32e783ee" x="57.6" y="225.962398" style="stroke: #000000; stroke-width: 0.8"/>
      </g>
     </g>
     <g id="text_9">
      <!-- −20 -->
      <g transform="translate(29.495313 229.761616) scale(0.1 -0.1)">
       <use xlink:href="#DejaVuSans-2212"/>
       <use xlink:href="#DejaVuSans-32" x="83.789062"/>
       <use xlink:href="#DejaVuSans-30" x="147.412109"/>
      </g>
     </g>
    </g>
    <g id="ytick_3">
     <g id="line2d_9">
      <g>
       <use xlink:href="#m3f32e783ee" x="57.6" y="184.429341" style="stroke: #000000; stroke-width: 0.8"/>
      </g>
     </g>
     <g id="text_10">
      <!-- −15 -->
      <g transform="translate(29.495313 188.22856) scale(0.1 -0.1)">
       <use xlink:href="#DejaVuSans-2212"/>
       <use xlink:href="#DejaVuSans-31" x="83.789062"/>
       <use xlink:href="#DejaVuSans-35" x="147.412109"/>
      </g>
     </g>
    </g>
    <g id="ytick_4">
     <g id="line2d_10">
      <g>
       <use xlink:href="#m3f32e783ee" x="57.6" y="142.896284" style="stroke: #000000; stroke-width: 0.8"/>
      </g>
     </g>
     <g id="text_11">
      <!-- −10 -->
      <g transform="translate(29.495313 146.695503) scale(0.1 -0.1)">
       <use xlink:href="#DejaVuSans-2212"/>
       <use xlink:href="#DejaVuSans-31" x="83.789062"/>
       <use xlink:href="#DejaVuSans-30" x="147.412109"/>
      </g>
     </g>
    </g>
    <g id="ytick_5">
     <g id="line2d_11">
      <g>
       <use xlink:href="#m3f32e783ee" x="57.6" y="101.363228" style="stroke: #000000; stroke-width: 0.8"/>
      </g>
     </g>
     <g id="text_12">
      <!-- −5 -->
      <g transform="translate(35.857813 105.162446) scale(0.1 -0.1)">
       <use xlink:href="#DejaVuSans-2212"/>
       <use xlink:href="#DejaVuSans-35" x="83.789062"/>
      </g>
     </g>
    </g>
    <g id="ytick_6">
     <g id="line2d_12">
      <g>
       <use xlink:href="#m3f32e783ee" x="57.6" y="59.830171" style="stroke: #000000; stroke-width: 0.8"/>
      </g>
     </g>
     <g id="text_13">
      <!-- 0 -->
      <g transform="translate(44.2375 63.62939) scale(0.1 -0.1)">
       <use xlink:href="#DejaVuSans-30"/>
      </g>
     </g>
    </g>
    <g id="text_14">
     <!-- Final Evaluation NSE -->
     <g transform="translate(23.415625 225.686594) rotate(-90) scale(0.1 -0.1)">
      <defs>
       <path id="DejaVuSans-46" d="M 628 4666 
L 3309 4666 
L 3309 4134 
L 1259 4134 
L 1259 2759 
L 3109 2759 
L 3109 2228 
L 1259 2228 
L 1259 0 
L 628 0 
L 628 4666 
z
" transform="scale(0.015625)"/>
       <path id="DejaVuSans-6c" d="M 603 4863 
L 1178 4863 
L 1178 0 
L 603 0 
L 603 4863 
z
" transform="scale(0.015625)"/>
       <path id="DejaVuSans-45" d="M 628 4666 
L 3578 4666 
L 3578 4134 
L 1259 4134 
L 1259 2753 
L 3481 2753 
L 3481 2222 
L 1259 2222 
L 1259 531 
L 3634 531 
L 3634 0 
L 628 0 
L 628 4666 
z
" transform="scale(0.015625)"/>
       <path id="DejaVuSans-76" d="M 191 3500 
L 800 3500 
L 1894 563 
L 2988 3500 
L 3597 3500 
L 2284 0 
L 1503 0 
L 191 3500 
z
" transform="scale(0.015625)"/>
       <path id="DejaVuSans-75" d="M 544 1381 
L 544 3500 
L 1119 3500 
L 1119 1403 
Q 1119 906 1312 657 
Q 1506 409 1894 409 
Q 2359 409 2629 706 
Q 2900 1003 2900 1516 
L 2900 3500 
L 3475 3500 
L 3475 0 
L 2900 0 
L 2900 538 
Q 2691 219 2414 64 
Q 2138 -91 1772 -91 
Q 1169 -91 856 284 
Q 544 659 544 1381 
z
M 1991 3584 
L 1991 3584 
z
" transform="scale(0.015625)"/>
       <path id="DejaVuSans-4e" d="M 628 4666 
L 1478 4666 
L 3547 763 
L 3547 4666 
L 4159 4666 
L 4159 0 
L 3309 0 
L 1241 3903 
L 1241 0 
L 628 0 
L 628 4666 
z
" transform="scale(0.015625)"/>
       <path id="DejaVuSans-53" d="M 3425 4513 
L 3425 3897 
Q 3066 4069 2747 4153 
Q 2428 4238 2131 4238 
Q 1616 4238 1336 4038 
Q 1056 3838 1056 3469 
Q 1056 3159 1242 3001 
Q 1428 2844 1947 2747 
L 2328 2669 
Q 3034 2534 3370 2195 
Q 3706 1856 3706 1288 
Q 3706 609 3251 259 
Q 2797 -91 1919 -91 
Q 1588 -91 1214 -16 
Q 841 59 441 206 
L 441 856 
Q 825 641 1194 531 
Q 1563 422 1919 422 
Q 2459 422 2753 634 
Q 3047 847 3047 1241 
Q 3047 1584 2836 1778 
Q 2625 1972 2144 2069 
L 1759 2144 
Q 1053 2284 737 2584 
Q 422 2884 422 3419 
Q 422 4038 858 4394 
Q 1294 4750 2059 4750 
Q 2388 4750 2728 4690 
Q 3069 4631 3425 4513 
z
" transform="scale(0.015625)"/>
      </defs>
      <use xlink:href="#DejaVuSans-46"/>
      <use xlink:href="#DejaVuSans-69" x="50.269531"/>
      <use xlink:href="#DejaVuSans-6e" x="78.052734"/>
      <use xlink:href="#DejaVuSans-61" x="141.431641"/>
      <use xlink:href="#DejaVuSans-6c" x="202.710938"/>
      <use xlink:href="#DejaVuSans-20" x="230.494141"/>
      <use xlink:href="#DejaVuSans-45" x="262.28125"/>
      <use xlink:href="#DejaVuSans-76" x="325.464844"/>
      <use xlink:href="#DejaVuSans-61" x="384.644531"/>
      <use xlink:href="#DejaVuSans-6c" x="445.923828"/>
      <use xlink:href="#DejaVuSans-75" x="473.707031"/>
      <use xlink:href="#DejaVuSans-61" x="537.085938"/>
      <use xlink:href="#DejaVuSans-74" x="598.365234"/>
      <use xlink:href="#DejaVuSans-69" x="637.574219"/>
      <use xlink:href="#DejaVuSans-6f" x="665.357422"/>
      <use xlink:href="#DejaVuSans-6e" x="726.539062"/>
      <use xlink:href="#DejaVuSans-20" x="789.917969"/>
      <use xlink:href="#DejaVuSans-4e" x="821.705078"/>
      <use xlink:href="#DejaVuSans-53" x="896.509766"/>
      <use xlink:href="#DejaVuSans-45" x="959.986328"/>
     </g>
    </g>
   </g>
   <g id="line2d_13">
    <defs>
     <path id="mbc663ba757" d="M 0 3 
C 0.795609 3 1.55874 2.683901 2.12132 2.12132 
C 2.683901 1.55874 3 0.795609 3 0 
C 3 -0.795609 2.683901 -1.55874 2.12132 -2.12132 
C 1.55874 -2.683901 0.795609 -3 0 -3 
C -0.795609 -3 -1.55874 -2.683901 -2.12132 -2.12132 
C -2.683901 -1.55874 -3 -0.795609 -3 0 
C -3 0.795609 -2.683901 1.55874 -2.12132 2.12132 
C -1.55874 2.683901 -0.795609 3 0 3 
z
" style="stroke: #1f77b4"/>
    </defs>
    <g clip-path="url(#pfbc0eecc6e)">
     <use xlink:href="#mbc663ba757" x="184.463701" y="57.64804" style="fill: #1f77b4; stroke: #1f77b4"/>
     <use xlink:href="#mbc663ba757" x="257.294269" y="59.742712" style="fill: #1f77b4; stroke: #1f77b4"/>
     <use xlink:href="#mbc663ba757" x="140.318547" y="295.488" style="fill: #1f77b4; stroke: #1f77b4"/>
     <use xlink:href="#mbc663ba757" x="138.710019" y="54.838395" style="fill: #1f77b4; stroke: #1f77b4"/>
     <use xlink:href="#mbc663ba757" x="139.335557" y="55.832084" style="fill: #1f77b4; stroke: #1f77b4"/>
     <use xlink:href="#mbc663ba757" x="145.948394" y="68.65713" style="fill: #1f77b4; stroke: #1f77b4"/>
     <use xlink:href="#mbc663ba757" x="141.301536" y="77.572995" style="fill: #1f77b4; stroke: #1f77b4"/>
     <use xlink:href="#mbc663ba757" x="142.195163" y="54.43647" style="fill: #1f77b4; stroke: #1f77b4"/>
     <use xlink:href="#mbc663ba757" x="288.035024" y="57.984147" style="fill: #1f77b4; stroke: #1f77b4"/>
     <use xlink:href="#mbc663ba757" x="138.352568" y="62.91057" style="fill: #1f77b4; stroke: #1f77b4"/>
     <use xlink:href="#mbc663ba757" x="307.962898" y="62.284354" style="fill: #1f77b4; stroke: #1f77b4"/>
     <use xlink:href="#mbc663ba757" x="360.329417" y="58.11744" style="fill: #1f77b4; stroke: #1f77b4"/>
     <use xlink:href="#mbc663ba757" x="139.335557" y="56.565628" style="fill: #1f77b4; stroke: #1f77b4"/>
     <use xlink:href="#mbc663ba757" x="168.825235" y="62.838554" style="fill: #1f77b4; stroke: #1f77b4"/>
     <use xlink:href="#mbc663ba757" x="182.944536" y="69.752667" style="fill: #1f77b4; stroke: #1f77b4"/>
     <use xlink:href="#mbc663ba757" x="311.001228" y="64.46838" style="fill: #1f77b4; stroke: #1f77b4"/>
     <use xlink:href="#mbc663ba757" x="321.277934" y="53.568" style="fill: #1f77b4; stroke: #1f77b4"/>
     <use xlink:href="#mbc663ba757" x="144.250504" y="58.269971" style="fill: #1f77b4; stroke: #1f77b4"/>
     <use xlink:href="#mbc663ba757" x="156.850639" y="64.190324" style="fill: #1f77b4; stroke: #1f77b4"/>
     <use xlink:href="#mbc663ba757" x="73.832727" y="56.991709" style="fill: #1f77b4; stroke: #1f77b4"/>
     <use xlink:href="#mbc663ba757" x="214.578917" y="58.958131" style="fill: #1f77b4; stroke: #1f77b4"/>
     <use xlink:href="#mbc663ba757" x="139.961096" y="64.1797" style="fill: #1f77b4; stroke: #1f77b4"/>
     <use xlink:href="#mbc663ba757" x="213.595928" y="66.295726" style="fill: #1f77b4; stroke: #1f77b4"/>
     <use xlink:href="#mbc663ba757" x="394.37659" y="60.846696" style="fill: #1f77b4; stroke: #1f77b4"/>
     <use xlink:href="#mbc663ba757" x="143.088789" y="211.4795" style="fill: #1f77b4; stroke: #1f77b4"/>
     <use xlink:href="#mbc663ba757" x="142.016437" y="57.917217" style="fill: #1f77b4; stroke: #1f77b4"/>
     <use xlink:href="#mbc663ba757" x="156.761276" y="55.447422" style="fill: #1f77b4; stroke: #1f77b4"/>
     <use xlink:href="#mbc663ba757" x="168.467785" y="59.867115" style="fill: #1f77b4; stroke: #1f77b4"/>
     <use xlink:href="#mbc663ba757" x="200.995793" y="58.966367" style="fill: #1f77b4; stroke: #1f77b4"/>
     <use xlink:href="#mbc663ba757" x="189.199922" y="62.103719" style="fill: #1f77b4; stroke: #1f77b4"/>
     <use xlink:href="#mbc663ba757" x="142.373888" y="56.63718" style="fill: #1f77b4; stroke: #1f77b4"/>
     <use xlink:href="#mbc663ba757" x="181.604096" y="60.332399" style="fill: #1f77b4; stroke: #1f77b4"/>
     <use xlink:href="#mbc663ba757" x="161.94431" y="57.336742" style="fill: #1f77b4; stroke: #1f77b4"/>
     <use xlink:href="#mbc663ba757" x="257.294269" y="57.214084" style="fill: #1f77b4; stroke: #1f77b4"/>
     <use xlink:href="#mbc663ba757" x="149.433538" y="60.795044" style="fill: #1f77b4; stroke: #1f77b4"/>
     <use xlink:href="#mbc663ba757" x="144.339866" y="59.43817" style="fill: #1f77b4; stroke: #1f77b4"/>
     <use xlink:href="#mbc663ba757" x="147.467559" y="56.328665" style="fill: #1f77b4; stroke: #1f77b4"/>
     <use xlink:href="#mbc663ba757" x="172.935918" y="57.573446" style="fill: #1f77b4; stroke: #1f77b4"/>
     <use xlink:href="#mbc663ba757" x="161.854948" y="64.058061" style="fill: #1f77b4; stroke: #1f77b4"/>
     <use xlink:href="#mbc663ba757" x="295.541488" y="155.141943" style="fill: #1f77b4; stroke: #1f77b4"/>
     <use xlink:href="#mbc663ba757" x="237.545121" y="58.383645" style="fill: #1f77b4; stroke: #1f77b4"/>
     <use xlink:href="#mbc663ba757" x="94.118051" y="63.976297" style="fill: #1f77b4; stroke: #1f77b4"/>
     <use xlink:href="#mbc663ba757" x="168.557147" y="61.332103" style="fill: #1f77b4; stroke: #1f77b4"/>
     <use xlink:href="#mbc663ba757" x="398.487273" y="65.623858" style="fill: #1f77b4; stroke: #1f77b4"/>
     <use xlink:href="#mbc663ba757" x="184.10625" y="73.492019" style="fill: #1f77b4; stroke: #1f77b4"/>
     <use xlink:href="#mbc663ba757" x="170.255038" y="61.55554" style="fill: #1f77b4; stroke: #1f77b4"/>
     <use xlink:href="#mbc663ba757" x="398.487273" y="65.164083" style="fill: #1f77b4; stroke: #1f77b4"/>
     <use xlink:href="#mbc663ba757" x="369.17632" y="80.049011" style="fill: #1f77b4; stroke: #1f77b4"/>
     <use xlink:href="#mbc663ba757" x="202.514958" y="89.430661" style="fill: #1f77b4; stroke: #1f77b4"/>
     <use xlink:href="#mbc663ba757" x="305.728831" y="56.28373" style="fill: #1f77b4; stroke: #1f77b4"/>
     <use xlink:href="#mbc663ba757" x="303.852215" y="60.173282" style="fill: #1f77b4; stroke: #1f77b4"/>
     <use xlink:href="#mbc663ba757" x="244.962222" y="55.915296" style="fill: #1f77b4; stroke: #1f77b4"/>
     <use xlink:href="#mbc663ba757" x="126.377972" y="67.752367" style="fill: #1f77b4; stroke: #1f77b4"/>
     <use xlink:href="#mbc663ba757" x="147.288834" y="54.957836" style="fill: #1f77b4; stroke: #1f77b4"/>
     <use xlink:href="#mbc663ba757" x="241.834529" y="122.995123" style="fill: #1f77b4; stroke: #1f77b4"/>
    </g>
   </g>
   <g id="line2d_14">
    <path d="M 184.463701 72.04025 
L 257.294269 69.933645 
L 140.318547 73.317137 
L 138.710019 73.363663 
L 139.335557 73.34557 
L 145.948394 73.154295 
L 141.301536 73.288704 
L 142.195163 73.262856 
L 288.035024 69.044476 
L 138.352568 73.374002 
L 307.962898 68.468068 
L 360.329417 66.95338 
L 139.335557 73.34557 
L 168.825235 72.492589 
L 182.944536 72.084191 
L 311.001228 68.380185 
L 321.277934 68.082934 
L 144.250504 73.203406 
L 156.850639 72.838951 
L 73.832727 75.240222 
L 214.578917 71.169175 
L 139.961096 73.327476 
L 213.595928 71.197608 
L 394.37659 65.968574 
L 143.088789 73.237009 
L 142.016437 73.268026 
L 156.761276 72.841535 
L 168.467785 72.502928 
L 200.995793 71.562064 
L 189.199922 71.903256 
L 142.373888 73.257687 
L 181.604096 72.122963 
L 161.94431 72.691617 
L 257.294269 69.933645 
L 149.433538 73.053488 
L 144.339866 73.200821 
L 147.467559 73.110354 
L 172.935918 72.373688 
L 161.854948 72.694202 
L 295.541488 68.827354 
L 237.545121 70.504884 
L 94.118051 74.653474 
L 168.557147 72.500343 
L 398.487273 65.849674 
L 184.10625 72.050589 
L 170.255038 72.451232 
L 398.487273 65.849674 
L 369.17632 66.697486 
L 202.514958 71.518122 
L 305.728831 68.532688 
L 303.852215 68.586968 
L 244.962222 70.290346 
L 126.377972 73.720365 
L 147.288834 73.115523 
L 241.834529 70.380814 
" clip-path="url(#pfbc0eecc6e)" style="fill: none; stroke: #ff0000; stroke-width: 1.5; stroke-linecap: square"/>
   </g>
   <g id="patch_3">
    <path d="M 57.6 307.584 
L 57.6 41.472 
" style="fill: none; stroke: #000000; stroke-width: 0.8; stroke-linejoin: miter; stroke-linecap: square"/>
   </g>
   <g id="patch_4">
    <path d="M 414.72 307.584 
L 414.72 41.472 
" style="fill: none; stroke: #000000; stroke-width: 0.8; stroke-linejoin: miter; stroke-linecap: square"/>
   </g>
   <g id="patch_5">
    <path d="M 57.6 307.584 
L 414.72 307.584 
" style="fill: none; stroke: #000000; stroke-width: 0.8; stroke-linejoin: miter; stroke-linecap: square"/>
   </g>
   <g id="patch_6">
    <path d="M 57.6 41.472 
L 414.72 41.472 
" style="fill: none; stroke: #000000; stroke-width: 0.8; stroke-linejoin: miter; stroke-linecap: square"/>
   </g>
   <g id="text_15">
    <!-- Returns from Training Period Length | stage -->
    <g transform="translate(105.974063 35.472) scale(0.12 -0.12)">
     <defs>
      <path id="DejaVuSans-52" d="M 2841 2188 
Q 3044 2119 3236 1894 
Q 3428 1669 3622 1275 
L 4263 0 
L 3584 0 
L 2988 1197 
Q 2756 1666 2539 1819 
Q 2322 1972 1947 1972 
L 1259 1972 
L 1259 0 
L 628 0 
L 628 4666 
L 2053 4666 
Q 2853 4666 3247 4331 
Q 3641 3997 3641 3322 
Q 3641 2881 3436 2590 
Q 3231 2300 2841 2188 
z
M 1259 4147 
L 1259 2491 
L 2053 2491 
Q 2509 2491 2742 2702 
Q 2975 2913 2975 3322 
Q 2975 3731 2742 3939 
Q 2509 4147 2053 4147 
L 1259 4147 
z
" transform="scale(0.015625)"/>
      <path id="DejaVuSans-66" d="M 2375 4863 
L 2375 4384 
L 1825 4384 
Q 1516 4384 1395 4259 
Q 1275 4134 1275 3809 
L 1275 3500 
L 2222 3500 
L 2222 3053 
L 1275 3053 
L 1275 0 
L 697 0 
L 697 3053 
L 147 3053 
L 147 3500 
L 697 3500 
L 697 3744 
Q 697 4328 969 4595 
Q 1241 4863 1831 4863 
L 2375 4863 
z
" transform="scale(0.015625)"/>
      <path id="DejaVuSans-6d" d="M 3328 2828 
Q 3544 3216 3844 3400 
Q 4144 3584 4550 3584 
Q 5097 3584 5394 3201 
Q 5691 2819 5691 2113 
L 5691 0 
L 5113 0 
L 5113 2094 
Q 5113 2597 4934 2840 
Q 4756 3084 4391 3084 
Q 3944 3084 3684 2787 
Q 3425 2491 3425 1978 
L 3425 0 
L 2847 0 
L 2847 2094 
Q 2847 2600 2669 2842 
Q 2491 3084 2119 3084 
Q 1678 3084 1418 2786 
Q 1159 2488 1159 1978 
L 1159 0 
L 581 0 
L 581 3500 
L 1159 3500 
L 1159 2956 
Q 1356 3278 1631 3431 
Q 1906 3584 2284 3584 
Q 2666 3584 2933 3390 
Q 3200 3197 3328 2828 
z
" transform="scale(0.015625)"/>
      <path id="DejaVuSans-7c" d="M 1344 4891 
L 1344 -1509 
L 813 -1509 
L 813 4891 
L 1344 4891 
z
" transform="scale(0.015625)"/>
     </defs>
     <use xlink:href="#DejaVuSans-52"/>
     <use xlink:href="#DejaVuSans-65" x="64.982422"/>
     <use xlink:href="#DejaVuSans-74" x="126.505859"/>
     <use xlink:href="#DejaVuSans-75" x="165.714844"/>
     <use xlink:href="#DejaVuSans-72" x="229.09375"/>
     <use xlink:href="#DejaVuSans-6e" x="268.457031"/>
     <use xlink:href="#DejaVuSans-73" x="331.835938"/>
     <use xlink:href="#DejaVuSans-20" x="383.935547"/>
     <use xlink:href="#DejaVuSans-66" x="415.722656"/>
     <use xlink:href="#DejaVuSans-72" x="450.927734"/>
     <use xlink:href="#DejaVuSans-6f" x="489.791016"/>
     <use xlink:href="#DejaVuSans-6d" x="550.972656"/>
     <use xlink:href="#DejaVuSans-20" x="648.384766"/>
     <use xlink:href="#DejaVuSans-54" x="680.171875"/>
     <use xlink:href="#DejaVuSans-72" x="726.505859"/>
     <use xlink:href="#DejaVuSans-61" x="767.619141"/>
     <use xlink:href="#DejaVuSans-69" x="828.898438"/>
     <use xlink:href="#DejaVuSans-6e" x="856.681641"/>
     <use xlink:href="#DejaVuSans-69" x="920.060547"/>
     <use xlink:href="#DejaVuSans-6e" x="947.84375"/>
     <use xlink:href="#DejaVuSans-67" x="1011.222656"/>
     <use xlink:href="#DejaVuSans-20" x="1074.699219"/>
     <use xlink:href="#DejaVuSans-50" x="1106.486328"/>
     <use xlink:href="#DejaVuSans-65" x="1163.164062"/>
     <use xlink:href="#DejaVuSans-72" x="1224.6875"/>
     <use xlink:href="#DejaVuSans-69" x="1265.800781"/>
     <use xlink:href="#DejaVuSans-6f" x="1293.583984"/>
     <use xlink:href="#DejaVuSans-64" x="1354.765625"/>
     <use xlink:href="#DejaVuSans-20" x="1418.242188"/>
     <use xlink:href="#DejaVuSans-4c" x="1450.029297"/>
     <use xlink:href="#DejaVuSans-65" x="1503.992188"/>
     <use xlink:href="#DejaVuSans-6e" x="1565.515625"/>
     <use xlink:href="#DejaVuSans-67" x="1628.894531"/>
     <use xlink:href="#DejaVuSans-74" x="1692.371094"/>
     <use xlink:href="#DejaVuSans-68" x="1731.580078"/>
     <use xlink:href="#DejaVuSans-20" x="1794.958984"/>
     <use xlink:href="#DejaVuSans-7c" x="1826.746094"/>
     <use xlink:href="#DejaVuSans-20" x="1860.4375"/>
     <use xlink:href="#DejaVuSans-73" x="1892.224609"/>
     <use xlink:href="#DejaVuSans-74" x="1944.324219"/>
     <use xlink:href="#DejaVuSans-61" x="1983.533203"/>
     <use xlink:href="#DejaVuSans-67" x="2044.8125"/>
     <use xlink:href="#DejaVuSans-65" x="2108.289062"/>
    </g>
   </g>
   <g id="legend_1">
    <g id="patch_7">
     <path d="M 207.519375 301.584 
L 406.32 301.584 
Q 408.72 301.584 408.72 299.184 
L 408.72 264.77025 
Q 408.72 262.37025 406.32 262.37025 
L 207.519375 262.37025 
Q 205.119375 262.37025 205.119375 264.77025 
L 205.119375 299.184 
Q 205.119375 301.584 207.519375 301.584 
z
" style="fill: #ffffff; opacity: 0.8; stroke: #cccccc; stroke-linejoin: miter"/>
    </g>
    <g id="line2d_15">
     <g>
      <use xlink:href="#mbc663ba757" x="221.919375" y="272.088375" style="fill: #1f77b4; stroke: #1f77b4"/>
     </g>
    </g>
    <g id="text_16">
     <!-- final -->
     <g transform="translate(243.519375 276.288375) scale(0.12 -0.12)">
      <use xlink:href="#DejaVuSans-66"/>
      <use xlink:href="#DejaVuSans-69" x="35.205078"/>
      <use xlink:href="#DejaVuSans-6e" x="62.988281"/>
      <use xlink:href="#DejaVuSans-61" x="126.367188"/>
      <use xlink:href="#DejaVuSans-6c" x="187.646484"/>
     </g>
    </g>
    <g id="line2d_16">
     <path d="M 209.919375 289.754625 
L 221.919375 289.754625 
L 233.919375 289.754625 
" style="fill: none; stroke: #ff0000; stroke-width: 1.5; stroke-linecap: square"/>
    </g>
    <g id="text_17">
     <!-- r = 0.06 | NSE/year = 0.11 -->
     <g transform="translate(243.519375 293.954625) scale(0.12 -0.12)">
      <defs>
       <path id="DejaVuSans-3d" d="M 678 2906 
L 4684 2906 
L 4684 2381 
L 678 2381 
L 678 2906 
z
M 678 1631 
L 4684 1631 
L 4684 1100 
L 678 1100 
L 678 1631 
z
" transform="scale(0.015625)"/>
       <path id="DejaVuSans-2e" d="M 684 794 
L 1344 794 
L 1344 0 
L 684 0 
L 684 794 
z
" transform="scale(0.015625)"/>
       <path id="DejaVuSans-2f" d="M 1625 4666 
L 2156 4666 
L 531 -594 
L 0 -594 
L 1625 4666 
z
" transform="scale(0.015625)"/>
      </defs>
      <use xlink:href="#DejaVuSans-72"/>
      <use xlink:href="#DejaVuSans-20" x="41.113281"/>
      <use xlink:href="#DejaVuSans-3d" x="72.900391"/>
      <use xlink:href="#DejaVuSans-20" x="156.689453"/>
      <use xlink:href="#DejaVuSans-30" x="188.476562"/>
      <use xlink:href="#DejaVuSans-2e" x="252.099609"/>
      <use xlink:href="#DejaVuSans-30" x="283.886719"/>
      <use xlink:href="#DejaVuSans-36" x="347.509766"/>
      <use xlink:href="#DejaVuSans-20" x="411.132812"/>
      <use xlink:href="#DejaVuSans-7c" x="442.919922"/>
      <use xlink:href="#DejaVuSans-20" x="476.611328"/>
      <use xlink:href="#DejaVuSans-4e" x="508.398438"/>
      <use xlink:href="#DejaVuSans-53" x="583.203125"/>
      <use xlink:href="#DejaVuSans-45" x="646.679688"/>
      <use xlink:href="#DejaVuSans-2f" x="709.863281"/>
      <use xlink:href="#DejaVuSans-79" x="743.554688"/>
      <use xlink:href="#DejaVuSans-65" x="802.734375"/>
      <use xlink:href="#DejaVuSans-61" x="864.257812"/>
      <use xlink:href="#DejaVuSans-72" x="925.537109"/>
      <use xlink:href="#DejaVuSans-20" x="966.650391"/>
      <use xlink:href="#DejaVuSans-3d" x="998.4375"/>
      <use xlink:href="#DejaVuSans-20" x="1082.226562"/>
      <use xlink:href="#DejaVuSans-30" x="1114.013672"/>
      <use xlink:href="#DejaVuSans-2e" x="1177.636719"/>
      <use xlink:href="#DejaVuSans-31" x="1209.423828"/>
      <use xlink:href="#DejaVuSans-31" x="1273.046875"/>
     </g>
    </g>
   </g>
  </g>
 </g>
 <defs>
  <clipPath id="pfbc0eecc6e">
   <rect x="57.6" y="41.472" width="357.12" height="266.112"/>
  </clipPath>
 </defs>
</svg>
