<?xml version="1.0" encoding="utf-8" standalone="no"?>
<!DOCTYPE svg PUBLIC "-//W3C//DTD SVG 1.1//EN"
  "http://www.w3.org/Graphics/SVG/1.1/DTD/svg11.dtd">
<svg xmlns:xlink="http://www.w3.org/1999/xlink" width="713.0225pt" height="351.43625pt" viewBox="0 0 713.0225 351.43625" xmlns="http://www.w3.org/2000/svg" version="1.1">
 <metadata>
  <rdf:RDF xmlns:dc="http://purl.org/dc/elements/1.1/" xmlns:cc="http://creativecommons.org/ns#" xmlns:rdf="http://www.w3.org/1999/02/22-rdf-syntax-ns#">
   <cc:Work>
    <dc:type rdf:resource="http://purl.org/dc/dcmitype/StillImage"/>
    <dc:date>2024-05-08T15:50:24.441958</dc:date>
    <dc:format>image/svg+xml</dc:format>
    <dc:creator>
     <cc:Agent>
      <dc:title>Matplotlib v3.8.4, https://matplotlib.org/</dc:title>
     </cc:Agent>
    </dc:creator>
   </cc:Work>
  </rdf:RDF>
 </metadata>
 <defs>
  <style type="text/css">*{stroke-linejoin: round; stroke-linecap: butt}</style>
 </defs>
 <g id="figure_1">
  <g id="patch_1">
   <path d="M 0 351.43625 
L 713.0225 351.43625 
L 713.0225 0 
L 0 0 
z
" style="fill: #ffffff"/>
  </g>
  <g id="axes_1">
   <g id="patch_2">
    <path d="M 46.0125 327.558125 
L 705.8225 327.558125 
L 705.8225 22.318125 
L 46.0125 22.318125 
z
" style="fill: #ffffff"/>
   </g>
   <g id="matplotlib.axis_1">
    <g id="xtick_1">
     <g id="line2d_1">
      <defs>
       <path id="m398ced2658" d="M 0 0 
L 0 3.5 
" style="stroke: #000000; stroke-width: 0.8"/>
      </defs>
      <g>
       <use xlink:href="#m398ced2658" x="104.935754" y="327.558125" style="stroke: #000000; stroke-width: 0.8"/>
      </g>
     </g>
     <g id="text_1">
      <!-- 2010 -->
      <g transform="translate(92.210754 342.156563) scale(0.1 -0.1)">
       <defs>
        <path id="DejaVuSans-32" d="M 1228 531 
L 3431 531 
L 3431 0 
L 469 0 
L 469 531 
Q 828 903 1448 1529 
Q 2069 2156 2228 2338 
Q 2531 2678 2651 2914 
Q 2772 3150 2772 3378 
Q 2772 3750 2511 3984 
Q 2250 4219 1831 4219 
Q 1534 4219 1204 4116 
Q 875 4013 500 3803 
L 500 4441 
Q 881 4594 1212 4672 
Q 1544 4750 1819 4750 
Q 2544 4750 2975 4387 
Q 3406 4025 3406 3419 
Q 3406 3131 3298 2873 
Q 3191 2616 2906 2266 
Q 2828 2175 2409 1742 
Q 1991 1309 1228 531 
z
" transform="scale(0.015625)"/>
        <path id="DejaVuSans-30" d="M 2034 4250 
Q 1547 4250 1301 3770 
Q 1056 3291 1056 2328 
Q 1056 1369 1301 889 
Q 1547 409 2034 409 
Q 2525 409 2770 889 
Q 3016 1369 3016 2328 
Q 3016 3291 2770 3770 
Q 2525 4250 2034 4250 
z
M 2034 4750 
Q 2819 4750 3233 4129 
Q 3647 3509 3647 2328 
Q 3647 1150 3233 529 
Q 2819 -91 2034 -91 
Q 1250 -91 836 529 
Q 422 1150 422 2328 
Q 422 3509 836 4129 
Q 1250 4750 2034 4750 
z
" transform="scale(0.015625)"/>
        <path id="DejaVuSans-31" d="M 794 531 
L 1825 531 
L 1825 4091 
L 703 3866 
L 703 4441 
L 1819 4666 
L 2450 4666 
L 2450 531 
L 3481 531 
L 3481 0 
L 794 0 
L 794 531 
z
" transform="scale(0.015625)"/>
       </defs>
       <use xlink:href="#DejaVuSans-32"/>
       <use xlink:href="#DejaVuSans-30" x="63.623047"/>
       <use xlink:href="#DejaVuSans-31" x="127.246094"/>
       <use xlink:href="#DejaVuSans-30" x="190.869141"/>
      </g>
     </g>
    </g>
    <g id="xtick_2">
     <g id="line2d_2">
      <g>
       <use xlink:href="#m398ced2658" x="220.478659" y="327.558125" style="stroke: #000000; stroke-width: 0.8"/>
      </g>
     </g>
     <g id="text_2">
      <!-- 2012 -->
      <g transform="translate(207.753659 342.156563) scale(0.1 -0.1)">
       <use xlink:href="#DejaVuSans-32"/>
       <use xlink:href="#DejaVuSans-30" x="63.623047"/>
       <use xlink:href="#DejaVuSans-31" x="127.246094"/>
       <use xlink:href="#DejaVuSans-32" x="190.869141"/>
      </g>
     </g>
    </g>
    <g id="xtick_3">
     <g id="line2d_3">
      <g>
       <use xlink:href="#m398ced2658" x="336.179842" y="327.558125" style="stroke: #000000; stroke-width: 0.8"/>
      </g>
     </g>
     <g id="text_3">
      <!-- 2014 -->
      <g transform="translate(323.454842 342.156563) scale(0.1 -0.1)">
       <defs>
        <path id="DejaVuSans-34" d="M 2419 4116 
L 825 1625 
L 2419 1625 
L 2419 4116 
z
M 2253 4666 
L 3047 4666 
L 3047 1625 
L 3713 1625 
L 3713 1100 
L 3047 1100 
L 3047 0 
L 2419 0 
L 2419 1100 
L 313 1100 
L 313 1709 
L 2253 4666 
z
" transform="scale(0.015625)"/>
       </defs>
       <use xlink:href="#DejaVuSans-32"/>
       <use xlink:href="#DejaVuSans-30" x="63.623047"/>
       <use xlink:href="#DejaVuSans-31" x="127.246094"/>
       <use xlink:href="#DejaVuSans-34" x="190.869141"/>
      </g>
     </g>
    </g>
    <g id="xtick_4">
     <g id="line2d_4">
      <g>
       <use xlink:href="#m398ced2658" x="451.722747" y="327.558125" style="stroke: #000000; stroke-width: 0.8"/>
      </g>
     </g>
     <g id="text_4">
      <!-- 2016 -->
      <g transform="translate(438.997747 342.156563) scale(0.1 -0.1)">
       <defs>
        <path id="DejaVuSans-36" d="M 2113 2584 
Q 1688 2584 1439 2293 
Q 1191 2003 1191 1497 
Q 1191 994 1439 701 
Q 1688 409 2113 409 
Q 2538 409 2786 701 
Q 3034 994 3034 1497 
Q 3034 2003 2786 2293 
Q 2538 2584 2113 2584 
z
M 3366 4563 
L 3366 3988 
Q 3128 4100 2886 4159 
Q 2644 4219 2406 4219 
Q 1781 4219 1451 3797 
Q 1122 3375 1075 2522 
Q 1259 2794 1537 2939 
Q 1816 3084 2150 3084 
Q 2853 3084 3261 2657 
Q 3669 2231 3669 1497 
Q 3669 778 3244 343 
Q 2819 -91 2113 -91 
Q 1303 -91 875 529 
Q 447 1150 447 2328 
Q 447 3434 972 4092 
Q 1497 4750 2381 4750 
Q 2619 4750 2861 4703 
Q 3103 4656 3366 4563 
z
" transform="scale(0.015625)"/>
       </defs>
       <use xlink:href="#DejaVuSans-32"/>
       <use xlink:href="#DejaVuSans-30" x="63.623047"/>
       <use xlink:href="#DejaVuSans-31" x="127.246094"/>
       <use xlink:href="#DejaVuSans-36" x="190.869141"/>
      </g>
     </g>
    </g>
    <g id="xtick_5">
     <g id="line2d_5">
      <g>
       <use xlink:href="#m398ced2658" x="567.423929" y="327.558125" style="stroke: #000000; stroke-width: 0.8"/>
      </g>
     </g>
     <g id="text_5">
      <!-- 2018 -->
      <g transform="translate(554.698929 342.156563) scale(0.1 -0.1)">
       <defs>
        <path id="DejaVuSans-38" d="M 2034 2216 
Q 1584 2216 1326 1975 
Q 1069 1734 1069 1313 
Q 1069 891 1326 650 
Q 1584 409 2034 409 
Q 2484 409 2743 651 
Q 3003 894 3003 1313 
Q 3003 1734 2745 1975 
Q 2488 2216 2034 2216 
z
M 1403 2484 
Q 997 2584 770 2862 
Q 544 3141 544 3541 
Q 544 4100 942 4425 
Q 1341 4750 2034 4750 
Q 2731 4750 3128 4425 
Q 3525 4100 3525 3541 
Q 3525 3141 3298 2862 
Q 3072 2584 2669 2484 
Q 3125 2378 3379 2068 
Q 3634 1759 3634 1313 
Q 3634 634 3220 271 
Q 2806 -91 2034 -91 
Q 1263 -91 848 271 
Q 434 634 434 1313 
Q 434 1759 690 2068 
Q 947 2378 1403 2484 
z
M 1172 3481 
Q 1172 3119 1398 2916 
Q 1625 2713 2034 2713 
Q 2441 2713 2670 2916 
Q 2900 3119 2900 3481 
Q 2900 3844 2670 4047 
Q 2441 4250 2034 4250 
Q 1625 4250 1398 4047 
Q 1172 3844 1172 3481 
z
" transform="scale(0.015625)"/>
       </defs>
       <use xlink:href="#DejaVuSans-32"/>
       <use xlink:href="#DejaVuSans-30" x="63.623047"/>
       <use xlink:href="#DejaVuSans-31" x="127.246094"/>
       <use xlink:href="#DejaVuSans-38" x="190.869141"/>
      </g>
     </g>
    </g>
    <g id="xtick_6">
     <g id="line2d_6">
      <g>
       <use xlink:href="#m398ced2658" x="682.966834" y="327.558125" style="stroke: #000000; stroke-width: 0.8"/>
      </g>
     </g>
     <g id="text_6">
      <!-- 2020 -->
      <g transform="translate(670.241834 342.156563) scale(0.1 -0.1)">
       <use xlink:href="#DejaVuSans-32"/>
       <use xlink:href="#DejaVuSans-30" x="63.623047"/>
       <use xlink:href="#DejaVuSans-32" x="127.246094"/>
       <use xlink:href="#DejaVuSans-30" x="190.869141"/>
      </g>
     </g>
    </g>
   </g>
   <g id="matplotlib.axis_2">
    <g id="ytick_1">
     <g id="line2d_7">
      <defs>
       <path id="me99eecd775" d="M 0 0 
L -3.5 0 
" style="stroke: #000000; stroke-width: 0.8"/>
      </defs>
      <g>
       <use xlink:href="#me99eecd775" x="46.0125" y="313.53859" style="stroke: #000000; stroke-width: 0.8"/>
      </g>
     </g>
     <g id="text_7">
      <!-- 0 -->
      <g transform="translate(32.65 317.337809) scale(0.1 -0.1)">
       <use xlink:href="#DejaVuSans-30"/>
      </g>
     </g>
    </g>
    <g id="ytick_2">
     <g id="line2d_8">
      <g>
       <use xlink:href="#me99eecd775" x="46.0125" y="259.865283" style="stroke: #000000; stroke-width: 0.8"/>
      </g>
     </g>
     <g id="text_8">
      <!-- 10000 -->
      <g transform="translate(7.2 263.664502) scale(0.1 -0.1)">
       <use xlink:href="#DejaVuSans-31"/>
       <use xlink:href="#DejaVuSans-30" x="63.623047"/>
       <use xlink:href="#DejaVuSans-30" x="127.246094"/>
       <use xlink:href="#DejaVuSans-30" x="190.869141"/>
       <use xlink:href="#DejaVuSans-30" x="254.492188"/>
      </g>
     </g>
    </g>
    <g id="ytick_3">
     <g id="line2d_9">
      <g>
       <use xlink:href="#me99eecd775" x="46.0125" y="206.191976" style="stroke: #000000; stroke-width: 0.8"/>
      </g>
     </g>
     <g id="text_9">
      <!-- 20000 -->
      <g transform="translate(7.2 209.991194) scale(0.1 -0.1)">
       <use xlink:href="#DejaVuSans-32"/>
       <use xlink:href="#DejaVuSans-30" x="63.623047"/>
       <use xlink:href="#DejaVuSans-30" x="127.246094"/>
       <use xlink:href="#DejaVuSans-30" x="190.869141"/>
       <use xlink:href="#DejaVuSans-30" x="254.492188"/>
      </g>
     </g>
    </g>
    <g id="ytick_4">
     <g id="line2d_10">
      <g>
       <use xlink:href="#me99eecd775" x="46.0125" y="152.518668" style="stroke: #000000; stroke-width: 0.8"/>
      </g>
     </g>
     <g id="text_10">
      <!-- 30000 -->
      <g transform="translate(7.2 156.317887) scale(0.1 -0.1)">
       <defs>
        <path id="DejaVuSans-33" d="M 2597 2516 
Q 3050 2419 3304 2112 
Q 3559 1806 3559 1356 
Q 3559 666 3084 287 
Q 2609 -91 1734 -91 
Q 1441 -91 1130 -33 
Q 819 25 488 141 
L 488 750 
Q 750 597 1062 519 
Q 1375 441 1716 441 
Q 2309 441 2620 675 
Q 2931 909 2931 1356 
Q 2931 1769 2642 2001 
Q 2353 2234 1838 2234 
L 1294 2234 
L 1294 2753 
L 1863 2753 
Q 2328 2753 2575 2939 
Q 2822 3125 2822 3475 
Q 2822 3834 2567 4026 
Q 2313 4219 1838 4219 
Q 1578 4219 1281 4162 
Q 984 4106 628 3988 
L 628 4550 
Q 988 4650 1302 4700 
Q 1616 4750 1894 4750 
Q 2613 4750 3031 4423 
Q 3450 4097 3450 3541 
Q 3450 3153 3228 2886 
Q 3006 2619 2597 2516 
z
" transform="scale(0.015625)"/>
       </defs>
       <use xlink:href="#DejaVuSans-33"/>
       <use xlink:href="#DejaVuSans-30" x="63.623047"/>
       <use xlink:href="#DejaVuSans-30" x="127.246094"/>
       <use xlink:href="#DejaVuSans-30" x="190.869141"/>
       <use xlink:href="#DejaVuSans-30" x="254.492188"/>
      </g>
     </g>
    </g>
    <g id="ytick_5">
     <g id="line2d_11">
      <g>
       <use xlink:href="#me99eecd775" x="46.0125" y="98.845361" style="stroke: #000000; stroke-width: 0.8"/>
      </g>
     </g>
     <g id="text_11">
      <!-- 40000 -->
      <g transform="translate(7.2 102.64458) scale(0.1 -0.1)">
       <use xlink:href="#DejaVuSans-34"/>
       <use xlink:href="#DejaVuSans-30" x="63.623047"/>
       <use xlink:href="#DejaVuSans-30" x="127.246094"/>
       <use xlink:href="#DejaVuSans-30" x="190.869141"/>
       <use xlink:href="#DejaVuSans-30" x="254.492188"/>
      </g>
     </g>
    </g>
    <g id="ytick_6">
     <g id="line2d_12">
      <g>
       <use xlink:href="#me99eecd775" x="46.0125" y="45.172054" style="stroke: #000000; stroke-width: 0.8"/>
      </g>
     </g>
     <g id="text_12">
      <!-- 50000 -->
      <g transform="translate(7.2 48.971273) scale(0.1 -0.1)">
       <defs>
        <path id="DejaVuSans-35" d="M 691 4666 
L 3169 4666 
L 3169 4134 
L 1269 4134 
L 1269 2991 
Q 1406 3038 1543 3061 
Q 1681 3084 1819 3084 
Q 2600 3084 3056 2656 
Q 3513 2228 3513 1497 
Q 3513 744 3044 326 
Q 2575 -91 1722 -91 
Q 1428 -91 1123 -41 
Q 819 9 494 109 
L 494 744 
Q 775 591 1075 516 
Q 1375 441 1709 441 
Q 2250 441 2565 725 
Q 2881 1009 2881 1497 
Q 2881 1984 2565 2268 
Q 2250 2553 1709 2553 
Q 1456 2553 1204 2497 
Q 953 2441 691 2322 
L 691 4666 
z
" transform="scale(0.015625)"/>
       </defs>
       <use xlink:href="#DejaVuSans-35"/>
       <use xlink:href="#DejaVuSans-30" x="63.623047"/>
       <use xlink:href="#DejaVuSans-30" x="127.246094"/>
       <use xlink:href="#DejaVuSans-30" x="190.869141"/>
       <use xlink:href="#DejaVuSans-30" x="254.492188"/>
      </g>
     </g>
    </g>
   </g>
   <g id="line2d_13">
    <path d="M 76.003864 313.460925 
L 83.865002 313.440127 
L 83.891382 313.148949 
L 83.977115 313.290244 
L 84.273887 313.429795 
L 85.639034 313.512774 
L 86.990991 313.423756 
L 87.037156 312.929828 
L 87.056941 309.470315 
L 87.149269 312.111041 
L 87.340522 313.029123 
L 87.597724 313.271458 
L 87.782381 313.16693 
L 87.841735 313.148949 
L 87.894495 313.186655 
L 88.26381 313.358409 
L 89.00244 313.277765 
L 89.01563 312.720233 
L 89.04201 311.080514 
L 89.127744 312.112383 
L 89.371756 312.972498 
L 89.747666 313.25804 
L 90.98751 313.447507 
L 91.620622 313.360288 
L 91.633811 312.756597 
L 91.693166 259.097916 
L 91.772305 295.07245 
L 91.937177 309.028852 
L 92.121835 311.320702 
L 92.372442 312.202286 
L 92.379037 312.182159 
L 92.444986 312.317684 
L 92.787921 312.564581 
L 93.038528 312.781958 
L 93.328704 312.969814 
L 93.486982 313.050324 
L 93.942032 312.942978 
L 94.159664 312.851733 
L 94.443245 312.942978 
L 94.951053 312.832947 
L 95.076357 312.143245 
L 95.18847 312.298898 
L 95.247825 312.406245 
L 95.551191 312.859784 
L 97.041641 313.347674 
L 102.897926 313.457705 
L 103.155127 313.460925 
L 104.052036 313.3517 
L 104.289453 313.295075 
L 104.810451 313.308493 
L 108.32554 313.199804 
L 108.529983 312.811478 
L 108.694856 312.832947 
L 108.932273 312.887963 
L 109.050981 312.945661 
L 109.360942 313.055155 
L 110.079788 313.201683 
L 110.541432 313.091653 
L 110.877772 312.739019 
L 111.134974 312.807453 
L 111.365796 312.913457 
L 111.649377 313.002018 
L 112.130806 313.113122 
L 112.427577 313.178604 
L 112.697969 313.216175 
L 113.265131 313.117416 
L 113.502548 312.851733 
L 113.819104 312.961763 
L 114.623684 313.171089 
L 115.764604 313.280851 
L 115.916287 313.227178 
L 116.364741 313.113122 
L 117.59799 313.004702 
L 117.736484 312.196919 
L 117.828812 310.859112 
L 117.954116 311.320702 
L 118.125584 311.783634 
L 118.132178 311.75143 
L 118.158558 310.98256 
L 118.191533 305.33747 
L 118.217912 291.892307 
L 118.297051 306.075478 
L 118.481709 310.766525 
L 118.824644 312.174108 
L 118.831239 312.170082 
L 119.15439 312.548479 
L 119.160985 312.544453 
L 119.56987 312.663877 
L 119.879831 312.773907 
L 121.09989 313.152975 
L 122.056153 313.26126 
L 122.352924 313.285413 
L 122.748619 313.301113 
L 123.203668 313.290244 
L 126.032886 313.212284 
L 126.112025 312.049317 
L 126.138405 308.516272 
L 126.224139 311.079172 
L 126.263708 311.456227 
L 126.316468 310.891316 
L 126.408796 306.893996 
L 126.435176 299.916466 
L 126.52091 305.686347 
L 126.764922 310.892657 
L 126.877035 311.477696 
L 126.929795 311.171759 
L 126.956174 311.205304 
L 126.962769 311.130162 
L 127.002339 307.65079 
L 127.022123 302.318347 
L 127.107857 308.394165 
L 127.305705 311.016106 
L 127.490362 311.81718 
L 127.773944 312.481387 
L 128.169639 312.849049 
L 128.354296 312.967131 
L 128.400461 312.956396 
L 128.46641 312.980549 
L 129.429267 313.253209 
L 130.187682 313.324327 
L 133.742341 313.43543 
L 134.111657 313.425501 
L 135.503184 313.379208 
L 135.516373 311.020131 
L 135.615297 313.06911 
L 135.80655 313.335598 
L 136.18246 313.428721 
L 136.20884 313.253209 
L 136.294573 313.391016 
L 136.525395 313.445092 
L 137.165102 313.478637 
L 143.562169 313.437309 
L 143.575359 305.592418 
L 143.674283 312.170082 
L 143.852346 312.90809 
L 144.195281 313.354384 
L 144.525027 313.425501 
L 144.802013 313.33278 
L 144.828393 312.989673 
L 144.867962 312.71755 
L 144.947101 312.838315 
L 145.191113 313.029123 
L 145.619783 313.100241 
L 145.626378 313.080516 
L 145.679137 313.002018 
L 145.745086 313.0412 
L 145.982503 313.130298 
L 146.153971 313.241133 
L 146.688159 313.399738 
L 147.301486 313.3886 
L 147.809294 313.408325 
L 156.923466 313.333317 
L 156.936656 309.354917 
L 157.03558 312.156664 
L 157.213643 312.811478 
L 157.431275 313.100241 
L 157.985248 313.331572 
L 160.128595 313.440529 
L 160.425366 313.447507 
L 169.987992 313.361764 
L 170.027562 312.737677 
L 170.053942 311.93392 
L 170.14627 312.04395 
L 170.21222 311.350222 
L 170.284764 311.703124 
L 170.58813 312.803427 
L 170.799167 313.031539 
L 171.049774 313.201683 
L 171.359735 313.301113 
L 171.36633 313.262871 
L 171.419089 312.924192 
L 171.445469 310.461929 
L 171.537797 311.606512 
L 171.788404 312.645091 
L 172.368757 313.178604 
L 173.034843 313.271458 
L 173.186526 313.271458 
L 173.397563 313.21443 
L 173.628385 313.171089 
L 174.215333 313.228922 
L 174.624217 313.031539 
L 174.80228 313.104534 
L 175.085861 313.21443 
L 176.061909 313.358409 
L 179.280227 313.25643 
L 179.478075 312.700106 
L 179.48467 312.701448 
L 179.695707 312.851733 
L 179.933124 313.031539 
L 180.24968 313.194169 
L 180.256275 313.093666 
L 180.342008 311.292524 
L 180.473907 306.571956 
L 180.493691 307.886952 
L 180.645374 310.202955 
L 180.731108 309.223418 
L 180.764083 298.816163 
L 180.895981 281.788306 
L 180.902576 280.95637 
L 180.928956 288.886601 
L 181.080639 307.162363 
L 181.291676 310.337139 
L 181.575257 311.838649 
L 181.865434 312.370015 
L 183.30972 313.12171 
L 183.599896 313.087493 
L 183.613086 312.465285 
L 183.71201 312.752437 
L 183.956022 313.026708 
L 184.338527 313.171089 
L 184.86612 313.080516 
L 184.971639 312.128485 
L 185.037588 312.767198 
L 185.176081 312.965789 
L 185.182676 312.887963 
L 185.209055 303.405231 
L 185.584966 307.350219 
L 185.802598 310.414965 
L 185.99385 311.53137 
L 186.514849 312.653142 
L 186.950113 312.964447 
L 188.460348 313.283803 
L 189.291308 313.372901 
L 191.988628 313.484005 
L 192.549195 313.486017 
L 193.030624 313.500804 
L 211.977814 313.393028 
L 212.043763 312.257301 
L 212.096522 308.812817 
L 212.155877 310.904734 
L 212.333939 312.635698 
L 212.729634 313.134591 
L 213.151709 313.277899 
L 218.750791 313.199402 
L 218.82993 313.016913 
L 218.876095 313.031539 
L 219.100322 313.165051 
L 219.390498 313.281835 
L 220.148913 313.392223 
L 232.989212 313.375316 
L 233.002402 309.989604 
L 233.048566 292.174091 
L 233.127705 302.61355 
L 233.272793 308.257298 
L 233.285983 307.927207 
L 233.332148 304.988594 
L 233.398097 307.725932 
L 233.57616 310.723586 
L 233.919095 312.178133 
L 234.182892 312.606178 
L 234.6907 312.964447 
L 234.980876 313.071391 
L 235.304027 313.161026 
L 235.943734 313.272934 
L 235.950329 313.242877 
L 236.062442 313.264481 
L 237.084654 313.154987 
L 237.295691 312.174108 
L 237.869449 312.999335 
L 239.043344 313.358409 
L 244.022504 313.469379 
L 244.147808 313.379878 
L 244.167592 313.320301 
L 244.259921 313.378939 
L 244.464364 313.366863 
L 244.800704 313.413693 
L 245.024931 313.428721 
L 245.968004 313.47005 
L 261.162688 313.408473 
L 261.169282 313.186386 
L 261.248421 313.502012 
L 261.268206 313.489909 
L 261.439674 313.300174 
L 261.492433 313.238181 
L 261.551787 313.293599 
L 261.987052 313.366728 
L 263.009264 313.477564 
L 264.512904 313.519214 
L 265.680204 313.496282 
L 265.693394 313.040395 
L 265.805507 313.075819 
L 265.904431 313.206514 
L 265.911026 313.179811 
L 265.950596 310.08219 
L 265.963785 305.109359 
L 266.056114 311.170417 
L 266.234177 312.620938 
L 266.563923 313.180214 
L 267.16406 313.395444 
L 283.031425 313.287695 
L 283.084184 312.860723 
L 283.117158 311.917818 
L 283.202892 312.293531 
L 283.868979 313.166661 
L 284.12618 313.26126 
L 286.196984 313.408728 
L 286.88945 313.323521 
L 287.786358 313.071257 
L 287.944636 313.106681 
L 288.195243 313.176457 
L 289.191075 313.348211 
L 289.375732 313.1044 
L 289.481251 312.739019 
L 289.520821 312.757805 
L 289.685693 312.862468 
L 290.444109 313.148546 
L 291.242093 313.277362 
L 292.712759 313.180214 
L 292.877632 313.073538 
L 293.03591 313.052471 
L 293.240352 312.942978 
L 293.477769 312.964447 
L 293.649237 313.033686 
L 294.077907 313.144521 
L 294.183425 313.0938 
L 294.209805 312.882595 
L 294.282349 310.000339 
L 294.381273 311.000004 
L 294.631879 312.202286 
L 294.96822 312.734994 
L 295.37051 313.002018 
L 295.3837 312.961763 
L 295.456244 304.143239 
L 295.469434 303.391813 
L 295.528788 307.658841 
L 295.713445 310.955724 
L 295.964052 312.239857 
L 296.260823 312.673269 
L 296.491645 312.873202 
L 297.586401 312.983233 
L 297.863388 313.066695 
L 298.061235 313.018925 
L 298.338221 312.93761 
L 298.595423 313.00497 
L 298.83284 312.991284 
L 298.898789 312.642407 
L 298.944954 311.67092 
L 299.017498 312.00772 
L 299.254915 312.536402 
L 299.749533 312.910774 
L 299.769318 312.867835 
L 299.855052 312.934927 
L 300.085874 313.043347 
L 300.224367 313.102387 
L 300.38924 313.164648 
L 301.259769 313.274142 
L 301.549945 313.296551 
L 301.93245 313.323521 
L 302.143487 313.24744 
L 302.202841 307.283127 
L 302.29517 310.414965 
L 302.466638 311.483064 
L 303.014016 312.779274 
L 303.020611 312.704131 
L 303.126129 311.554181 
L 303.152509 311.650793 
L 303.429496 312.57129 
L 303.673507 312.87857 
L 304.247265 313.202757 
L 304.919946 313.280314 
L 306.364233 313.390613 
L 307.287521 313.430331 
L 307.498558 313.437309 
L 308.679048 313.47005 
L 311.138951 313.378134 
L 311.158736 312.802085 
L 311.277444 313.123857 
L 311.508266 313.231203 
L 311.679734 313.280314 
L 311.686329 313.272532 
L 311.844607 312.887963 
L 311.930341 312.991284 
L 312.200732 313.187728 
L 312.405174 313.13647 
L 312.411769 313.12171 
L 312.438149 311.864144 
L 312.530478 312.447841 
L 312.556857 312.455892 
L 312.563452 312.297556 
L 312.576642 304.988594 
L 312.675566 310.53573 
L 312.880008 312.443816 
L 313.11083 312.87857 
L 313.117425 312.823555 
L 313.13721 310.566592 
L 313.189969 299.983558 
L 313.249323 306.625629 
L 313.427386 310.940963 
L 313.697778 312.551163 
L 313.922005 312.881253 
L 313.987954 312.916141 
L 314.001144 312.795376 
L 314.040713 312.121776 
L 314.146232 312.492122 
L 314.363864 312.918825 
L 314.858483 313.180214 
L 315.412455 313.289171 
L 315.649872 313.316812 
L 316.553376 313.387393 
L 317.503043 313.430331 
L 327.487744 313.320838 
L 327.857059 313.284743 
L 328.120856 313.330231 
L 328.463792 313.369144 
L 328.727588 313.388466 
L 329.248586 313.412619 
L 329.532168 313.430331 
L 334.557493 313.319496 
L 334.682796 313.162502 
L 334.748745 312.883937 
L 334.788315 312.90809 
L 335.263149 313.224226 
L 335.421427 313.238181 
L 337.729647 313.38377 
L 337.960469 313.231203 
L 338.158316 313.212015 
L 338.468277 313.25804 
L 339.694931 313.365521 
L 342.194404 313.447775 
L 348.050688 313.338282 
L 348.129827 313.144521 
L 348.26832 313.002018 
L 348.499142 313.110975 
L 348.914622 313.251599 
L 349.903859 313.36069 
L 350.161061 313.378268 
L 356.083294 313.488299 
L 356.393255 313.504213 
L 356.525153 313.489372 
L 360.831633 313.379342 
L 360.871202 313.338147 
L 360.923962 308.073467 
L 360.943746 295.421327 
L 361.02948 308.795373 
L 361.227328 312.231806 
L 361.352631 312.714866 
L 361.372416 312.564581 
L 361.398795 311.493798 
L 361.491124 312.151296 
L 361.504314 312.255959 
L 361.524099 311.619931 
L 361.590048 309.413958 
L 361.642807 310.290175 
L 361.880224 312.443816 
L 362.097856 312.95908 
L 362.579285 313.208392 
L 363.608092 313.387393 
L 366.556019 313.498174 
L 366.931929 313.467366 
L 367.21551 313.496282 
L 368.151988 313.517819 
L 370.750384 313.423085 
L 370.763574 313.25804 
L 370.862498 313.33694 
L 371.416471 313.44375 
L 380.860389 313.515699 
L 380.886768 309.035561 
L 380.913148 292.992609 
L 380.998882 307.860116 
L 381.190134 311.371692 
L 381.341817 312.207653 
L 381.407766 312.07347 
L 381.50669 310.924861 
L 381.592424 311.364982 
L 381.974929 312.696081 
L 382.331055 313.123857 
L 383.42581 313.364313 
L 384.382073 313.426574 
L 394.966911 313.31547 
L 395.428555 313.334256 
L 397.677421 313.44536 
L 398.17204 313.453679 
L 399.068948 313.456095 
L 400.163704 313.456095 
L 402.465329 313.346198 
L 402.715936 313.251599 
L 403.586464 313.349821 
L 405.373686 313.243012 
L 405.433041 312.493464 
L 405.466015 310.368001 
L 405.551749 310.79202 
L 405.907874 312.304265 
L 405.987013 312.480045 
L 406.554176 313.002018 
L 406.817973 313.113122 
L 407.253237 313.176457 
L 407.259832 313.152572 
L 407.338971 312.403561 
L 407.371945 311.248243 
L 407.457679 311.594436 
L 407.708286 312.298898 
L 408.202905 312.891988 
L 408.308423 312.961763 
L 408.315018 312.850391 
L 408.440322 312.313658 
L 408.53265 312.30024 
L 408.552435 306.893996 
L 408.657954 310.095609 
L 408.868991 311.681655 
L 409.126193 312.363306 
L 409.403179 312.749754 
L 409.614216 312.910774 
L 409.825254 313.016376 
L 410.036291 313.098094 
L 410.821086 313.133921 
L 410.840871 310.635026 
L 410.946389 311.729961 
L 410.966174 311.819864 
L 411.005743 311.601145 
L 411.018933 311.138213 
L 411.038718 307.095271 
L 411.131047 309.607182 
L 411.335489 311.122111 
L 411.592691 312.011746 
L 411.836703 312.488096 
L 412.093904 312.734994 
L 412.990813 313.152572 
L 413.663494 313.25804 
L 413.801987 313.275752 
L 413.815177 313.251465 
L 413.947075 313.270922 
L 414.237252 313.266091 
L 414.250441 312.445292 
L 414.36915 310.461929 
L 414.38234 310.176119 
L 414.468074 310.785311 
L 414.527428 310.993295 
L 414.923123 312.255959 
L 415.219894 312.68803 
L 415.312223 312.768539 
L 415.51007 312.929559 
L 415.529855 312.862468 
L 415.562829 312.784641 
L 415.655158 312.824896 
L 415.998094 312.799402 
L 416.565256 313.021475 
L 416.631206 312.952639 
L 416.70375 294.951685 
L 416.809268 305.09594 
L 416.908192 308.253272 
L 416.974141 308.021135 
L 416.993926 308.251931 
L 417.323672 311.437441 
L 417.330267 311.424023 
L 417.336861 311.383768 
L 417.402811 311.662869 
L 417.44238 311.756798 
L 417.462165 311.598461 
L 417.528114 304.290841 
L 417.567684 292.120418 
L 417.633633 304.264004 
L 417.824885 309.59108 
L 418.055707 311.377059 
L 418.576705 312.620938 
L 418.886666 312.862468 
L 419.143868 313.002018 
L 419.572538 313.110975 
L 419.869309 313.185849 
L 420.001207 313.180214 
L 420.086941 313.156597 
L 420.093536 313.128016 
L 420.119915 313.071257 
L 420.212244 313.108828 
L 420.700268 313.011948 
L 420.799192 311.547472 
L 420.832166 311.814496 
L 421.076178 312.712182 
L 421.326785 313.018925 
L 421.366354 312.975182 
L 422.599603 313.359483 
L 423.061247 313.313994 
L 423.067842 313.101582 
L 423.166766 313.379342 
L 423.529486 313.433552 
L 423.635005 313.352103 
L 423.65479 313.210137 
L 423.753713 313.253075 
L 423.806473 312.203628 
L 423.859232 307.108689 
L 423.931776 309.502519 
L 423.951561 309.786987 
L 423.977941 308.333782 
L 424.037295 256.789964 
L 424.096649 297.581677 
L 424.254927 308.606174 
L 424.485749 311.342171 
L 424.736356 312.218388 
L 425.17162 312.787325 
L 425.310113 312.896014 
L 425.844301 313.108828 
L 425.850896 313.095947 
L 425.96301 313.038516 
L 425.98939 312.551163 
L 426.081718 312.846366 
L 426.371895 313.115269 
L 426.668666 313.22597 
L 427.057766 313.306883 
L 427.275398 313.327547 
L 428.159116 313.394504 
L 428.792228 313.41584 
L 430.421172 313.322985 
L 430.447552 312.418321 
L 430.460742 308.245221 
L 430.55307 312.151296 
L 430.737728 312.985916 
L 431.014714 313.22597 
L 431.047689 313.244622 
L 431.060879 313.160489 
L 431.205967 312.840998 
L 431.680801 313.249855 
L 432.795341 313.430331 
L 433.903287 313.323521 
L 434.074755 313.300979 
L 434.688082 313.411546 
L 435.149726 313.44697 
L 444.685973 313.390613 
L 444.738732 310.810806 
L 444.758517 307.994299 
L 444.844251 310.911443 
L 445.042098 312.484071 
L 445.279515 312.948345 
L 445.873057 313.289171 
L 446.262157 313.20061 
L 446.301727 311.911108 
L 446.341296 302.922171 
L 446.420435 307.578331 
L 446.591903 310.609531 
L 446.954623 312.137878 
L 447.284369 312.700106 
L 447.600925 313.05019 
L 448.715465 313.318154 
L 448.755035 313.222347 
L 448.801199 311.534053 
L 448.873743 303.083191 
L 448.959477 305.619255 
L 449.064996 308.930898 
L 449.427716 312.003695 
L 450.113587 313.033686 
L 450.403764 313.140495 
L 450.647775 313.217248 
L 450.904977 313.154585 
L 450.918167 312.855624 
L 450.937952 301.08386 
L 450.970926 250.214983 
L 451.05666 286.954362 
L 451.089635 271.831908 
L 451.162179 286.082171 
L 451.307267 305.431398 
L 451.544684 309.969476 
L 451.986543 311.923185 
L 452.474567 312.508224 
L 452.632845 312.615571 
L 452.817502 312.669244 
L 453.054919 312.77659 
L 453.483589 312.985916 
L 454.096916 313.095947 
L 454.848736 313.224226 
L 456.906349 313.334256 
L 457.249285 313.354652 
L 463.151734 313.399738 
L 463.732086 313.036101 
L 463.989288 313.156597 
L 464.97193 313.343649 
L 465.367625 313.375048 
L 466.330482 313.419597 
L 467.926452 313.312787 
L 468.289172 313.202757 
L 469.113536 313.323521 
L 469.23884 313.28179 
L 469.542206 313.210271 
L 470.228077 313.319496 
L 470.320406 313.238181 
L 470.472089 313.128151 
L 470.630367 313.080381 
L 470.735885 312.917483 
L 470.762265 310.719561 
L 470.78205 301.204625 
L 470.874379 308.44918 
L 471.078821 311.108692 
L 471.678958 313.104534 
L 472.833068 313.364313 
L 473.525534 313.26126 
L 473.545319 312.753913 
L 473.571699 311.874879 
L 473.657433 312.488096 
L 473.934419 313.089506 
L 474.310329 313.305407 
L 475.180858 313.387393 
L 475.932678 313.282461 
L 475.985438 312.230465 
L 476.064577 312.76183 
L 476.301993 313.274008 
L 476.486651 313.347406 
L 476.935105 313.395444 
L 477.647356 313.422415 
L 477.660546 311.994302 
L 477.75947 313.168674 
L 477.924342 313.340965 
L 478.240898 313.406849 
L 478.557454 313.430331 
L 480.911839 313.403897 
L 480.925029 311.797053 
L 480.938218 309.962767 
L 481.037142 310.826908 
L 481.2218 312.427714 
L 481.399862 312.851733 
L 481.413052 312.771223 
L 481.446027 312.779274 
L 481.479001 312.8571 
L 481.742798 313.148546 
L 481.841722 313.079845 
L 481.854912 312.906748 
L 481.94724 313.174578 
L 482.151683 313.28179 
L 482.395695 313.338282 
L 483.437691 313.437309 
L 484.624776 313.458107 
L 484.637966 310.779943 
L 484.736889 313.379342 
L 485.112799 313.440529 
L 491.602195 313.435162 
L 491.63517 310.276756 
L 491.714309 313.166661 
L 491.800043 313.283132 
L 491.833017 313.148546 
L 492.419965 313.378268 
L 494.906248 313.489372 
L 496.086737 313.478906 
L 496.284585 313.456095 
L 497.023215 313.353176 
L 497.049595 312.180817 
L 497.135329 312.850391 
L 497.339771 313.25965 
L 497.682707 313.373974 
L 498.177325 313.331975 
L 498.22349 313.033686 
L 498.296034 313.142508 
L 498.619185 313.369144 
L 498.770868 313.391687 
L 505.708718 313.502468 
L 506.533082 313.505152 
L 512.039836 313.400811 
L 512.092595 313.068037 
L 512.204709 312.336469 
L 512.270658 312.577999 
L 512.48829 313.060522 
L 512.712517 313.219932 
L 513.780893 313.326742 
L 514.0315 313.36163 
L 518.410524 313.472599 
L 519.597608 313.481858 
L 523.205026 313.374779 
L 523.31714 313.149217 
L 523.409469 312.964447 
L 523.455633 312.991284 
L 523.699645 313.114732 
L 524.049176 313.221274 
L 524.253618 313.249989 
L 526.462914 313.215504 
L 526.495889 311.513523 
L 526.509079 307.403892 
L 526.601408 311.245559 
L 526.80585 312.722917 
L 527.010292 312.996651 
L 527.135596 312.920167 
L 527.16857 311.242876 
L 527.22133 290.389454 
L 527.293874 300.480036 
L 527.485126 309.872865 
L 527.702758 311.778267 
L 527.880821 312.218388 
L 527.926985 312.062735 
L 528.052289 310.707484 
L 528.138023 311.28984 
L 528.210567 311.652135 
L 528.250136 311.375717 
L 528.388629 308.920163 
L 528.434794 262.738755 
L 528.447984 78.4604 
L 528.863463 309.819191 
L 529.034931 310.940963 
L 529.081095 310.898025 
L 529.120665 310.794704 
L 529.608689 311.896348 
L 530.017573 312.223755 
L 530.182446 312.331102 
L 530.25499 312.372699 
L 530.26818 312.280112 
L 530.393483 311.026841 
L 530.426458 306.987924 
L 530.512192 309.038245 
L 530.749609 310.761158 
L 531.05957 311.660186 
L 531.521214 312.090914 
L 531.527809 312.077496 
L 531.659707 311.38511 
L 531.705871 301.365645 
L 531.738846 288.215685 
L 531.81139 304.465279 
L 531.976263 309.833951 
L 532.207085 311.252269 
L 532.497261 311.833282 
L 532.668729 312.061394 
L 532.919336 312.535061 
L 532.925931 312.453209 
L 533.018259 311.67092 
L 533.051234 311.728619 
L 533.572232 312.724259 
L 533.697536 312.77659 
L 534.442761 312.964447 
L 534.601039 313.01651 
L 534.917595 313.110975 
L 535.583681 313.220335 
L 535.794719 313.246634 
L 536.098085 313.267701 
L 536.368476 313.25482 
L 537.100512 313.319228 
L 538.630532 313.308359 
L 538.643722 313.001884 
L 538.742645 313.282193 
L 538.960278 313.256967 
L 538.973467 312.830264 
L 539.072391 313.199536 
L 539.494466 313.095276 
L 539.55382 312.925534 
L 539.619769 313.014229 
L 539.870376 313.227849 
L 540.569437 313.42067 
L 544.908891 313.461999 
L 544.92208 309.937273 
L 545.021004 312.4465 
L 545.265016 313.25965 
L 545.548597 313.382562 
L 545.75304 313.419597 
L 545.759635 313.4043 
L 545.805799 313.152706 
L 545.825584 310.492791 
L 545.917913 312.066761 
L 546.168519 313.126004 
L 546.379557 313.289171 
L 546.663138 313.359483 
L 546.682923 309.466021 
L 546.788441 312.128485 
L 547.052238 313.150559 
L 547.335819 313.323521 
L 547.896387 313.433552 
L 575.324637 313.323253 
L 575.364206 313.231203 
L 575.509295 307.759478 
L 575.542269 302.076817 
L 575.614813 308.12714 
L 575.799471 311.323386 
L 575.951154 312.072128 
L 575.977534 311.915134 
L 576.003913 308.611542 
L 576.043483 284.48539 
L 576.135812 296.025151 
L 576.300684 309.161693 
L 576.498532 311.237508 
L 576.782113 312.078837 
L 577.217378 312.599469 
L 577.223972 312.583367 
L 577.289922 312.653142 
L 578.015362 312.948345 
L 578.918865 313.101672 
L 580.600569 313.215638 
L 580.930314 313.112451 
L 580.950099 312.840998 
L 581.009453 302.720896 
L 581.114972 308.327073 
L 581.253465 310.797387 
L 581.28644 311.068437 
L 581.477692 312.064077 
L 581.668945 312.39551 
L 581.939336 312.659851 
L 582.130589 312.765856 
L 582.341626 312.897355 
L 582.612018 313.007386 
L 583.410002 313.203159 
L 583.535306 313.225299 
L 583.686989 313.229325 
L 584.240962 313.284206 
L 584.458594 313.303797 
L 584.959807 313.34177 
L 585.276363 313.34016 
L 585.408262 313.331572 
L 586.839358 313.33694 
L 587.017421 313.320301 
L 589.503704 313.348748 
L 589.516893 313.253478 
L 589.609222 313.353042 
L 591.765759 313.463609 
L 592.003176 313.467903 
L 607.151695 313.371693 
L 607.290188 313.296551 
L 607.296783 313.300979 
L 607.9233 313.408862 
L 608.167312 313.435162 
L 611.596668 313.462267 
L 611.609857 311.54613 
L 611.715376 312.671928 
L 611.741756 312.749754 
L 611.933008 313.188667 
L 613.054144 313.417047 
L 613.403674 313.432478 
L 624.680978 313.341099 
L 624.799687 313.224226 
L 624.812877 313.227715 
L 625.109648 313.271458 
L 625.188787 313.065084 
L 625.215166 311.848042 
L 625.307495 312.486755 
L 625.518532 312.964447 
L 625.71638 313.108292 
L 625.722975 313.101717 
L 625.808709 312.792692 
L 625.848278 312.119092 
L 625.934012 312.438449 
L 626.145049 312.855759 
L 626.929844 313.220469 
L 626.989198 312.850391 
L 627.035363 309.898359 
L 627.074932 307.873534 
L 627.140881 310.031201 
L 627.66188 312.624963 
L 628.06417 312.948345 
L 628.519219 312.875886 
L 628.684091 312.940294 
L 628.82918 313.000677 
L 629.000647 313.066426 
L 629.9701 313.267299 
L 630.682351 313.356799 
L 630.801059 313.357872 
L 631.11102 313.26059 
L 631.203349 311.046968 
L 631.256108 311.503191 
L 631.282488 311.687022 
L 631.48693 312.451867 
L 631.658398 312.685346 
L 631.823271 312.784641 
L 634.817362 313.281522 
L 635.173488 313.315202 
L 635.542803 313.341099 
L 635.885738 313.190143 
L 635.991257 312.206312 
L 636.057206 312.328418 
L 636.426521 312.77659 
L 636.472686 312.768539 
L 636.51885 312.710841 
L 636.769457 312.645091 
L 637.086013 312.905406 
L 637.211316 312.969814 
L 637.415758 313.04603 
L 637.752099 313.135933 
L 638.457755 313.244622 
L 638.84026 313.296685 
L 639.341474 313.188533 
L 639.572296 313.102387 
L 639.987775 313.116477 
L 640.271357 313.145326 
L 640.891279 313.209197 
L 641.095721 313.23174 
L 641.530985 313.23335 
L 641.629909 312.828922 
L 641.709048 312.38075 
L 641.755212 312.466627 
L 641.821161 312.55653 
L 642.6785 313.114464 
L 643.061005 313.223689 
L 643.423726 313.280046 
L 644.201926 313.169077 
L 644.24809 309.450187 
L 644.27447 302.29151 
L 644.353609 309.310637 
L 644.360204 309.094602 
L 644.419558 310.555857 
L 644.426153 310.435092 
L 644.432748 310.421674 
L 644.439343 310.597454 
L 644.630595 312.038582 
L 644.63719 312.026506 
L 644.716329 310.504868 
L 644.821848 311.374375 
L 644.986721 312.07347 
L 645.171378 312.156664 
L 645.204353 312.026506 
L 645.250517 309.882257 
L 645.323061 311.09259 
L 645.356036 311.31936 
L 645.408795 310.782627 
L 645.461554 309.882257 
L 645.534098 310.429725 
L 645.698971 311.578334 
L 645.81768 311.99296 
L 645.850654 311.950022 
L 646.411222 312.54177 
L 646.5695 312.677295 
L 646.998169 312.889304 
L 647.017954 312.751096 
L 647.024549 312.722917 
L 647.103688 312.824896 
L 647.110283 312.824896 
L 647.33451 312.929559 
L 647.367485 312.924192 
L 647.380675 311.190544 
L 647.426839 281.734633 
L 647.519168 293.542761 
L 647.651066 309.034219 
L 647.657661 308.979204 
L 647.677446 309.580345 
L 647.684041 309.697084 
L 647.703825 309.279774 
L 647.717015 309.302586 
L 647.76318 280.781932 
L 647.829129 306.370681 
L 647.967622 309.911778 
L 647.974217 309.871523 
L 648.132495 310.720903 
L 648.165469 310.977193 
L 648.211634 310.965116 
L 648.310558 311.363641 
L 648.343532 311.216039 
L 648.409481 311.424023 
L 648.416076 311.418656 
L 648.435861 311.515268 
L 648.594139 311.896348 
L 648.739227 312.123118 
L 648.759012 312.074812 
L 648.772202 312.069445 
L 648.824961 312.163373 
L 648.897505 312.27072 
L 649.068973 312.478704 
L 649.273415 312.614229 
L 649.319579 312.602152 
L 649.372339 312.662535 
L 649.543807 312.736335 
L 649.576781 311.057703 
L 649.603161 308.740358 
L 649.6823 311.203963 
L 649.880147 312.163373 
L 649.886742 312.147271 
L 649.965881 312.235832 
L 650.038425 312.337811 
L 650.051615 312.26401 
L 650.097779 309.583029 
L 650.242867 310.208323 
L 650.256057 310.135864 
L 650.282437 310.346531 
L 650.552828 311.622614 
L 650.757271 312.003695 
L 651.522281 312.543112 
L 651.57504 312.379408 
L 651.6278 312.041266 
L 651.647584 312.066761 
L 651.700344 310.99732 
L 651.746508 295.23347 
L 651.812457 307.216036 
L 651.96414 310.468638 
L 651.970735 310.256629 
L 652.00371 307.913789 
L 652.036684 290.469964 
L 652.115823 306.706139 
L 652.129013 306.893996 
L 652.287291 310.433751 
L 652.326861 310.710168 
L 652.564277 311.856093 
L 652.623632 311.955389 
L 652.650011 311.886955 
L 652.656606 311.693731 
L 652.676391 251.932529 
L 652.689581 36.19267 
L 652.78191 303.047409 
L 652.795099 302.264673 
L 652.801694 303.083191 
L 652.920403 309.529355 
L 652.933593 309.321371 
L 652.946783 309.446162 
L 653.164415 311.363641 
L 653.619464 312.474678 
L 653.903045 312.725601 
L 654.628486 313.010069 
L 654.64827 312.918825 
L 654.747194 312.947003 
L 654.753789 312.956396 
L 657.048819 313.312653 
L 657.338996 313.306883 
L 657.556628 313.319496 
L 658.328233 313.366728 
L 658.638194 313.369144 
L 659.040484 313.330231 
L 659.172382 313.335598 
L 659.422989 313.320838 
L 659.831873 313.350626 
L 659.950582 313.316141 
L 659.957177 313.296953 
L 659.976962 312.977865 
L 660.102265 313.033417 
L 660.227568 313.057302 
L 660.544124 313.195779 
L 660.926629 313.281925 
L 661.177236 313.316544 
L 661.605905 313.342575 
L 662.239017 313.351968 
L 662.271992 313.156597 
L 662.291777 312.942978 
L 662.384105 313.090848 
L 662.542383 313.124796 
L 662.878724 313.210808 
L 662.885319 313.192559 
L 663.004027 312.509566 
L 663.037002 312.552504 
L 663.333773 312.955054 
L 664.296631 313.260187 
L 666.829078 313.397591 
L 667.633657 313.31547 
L 667.646847 312.500173 
L 667.693012 308.726939 
L 667.758961 311.437441 
L 667.937024 312.815504 
L 668.20082 313.171626 
L 668.860312 313.321106 
L 669.269196 313.303797 
L 669.308766 313.20061 
L 669.361525 311.854751 
L 669.374715 310.452536 
L 669.467044 311.936603 
L 669.658296 312.559214 
L 669.882523 312.867835 
L 669.968257 312.889304 
L 669.974852 312.879912 
L 670.047396 310.298225 
L 670.080371 305.82053 
L 670.15951 309.558876 
L 670.377142 311.848042 
L 670.634344 312.470653 
L 670.832191 312.66656 
L 671.135557 312.865151 
L 671.597201 313.040126 
L 671.610391 312.95908 
L 671.70272 312.376724 
L 671.828023 312.610203 
L 671.940137 312.712182 
L 672.137984 312.830264 
L 672.381996 312.720233 
L 672.593033 312.583367 
L 672.757906 312.690713 
L 672.968943 312.806111 
L 672.975538 312.784641 
L 673.021703 312.454551 
L 673.061272 311.276422 
L 673.127221 309.498493 
L 673.179981 310.064747 
L 673.417398 311.756798 
L 673.740548 312.438449 
L 674.017535 312.663877 
L 674.221977 312.787325 
L 674.248357 312.803427 
L 674.261547 312.728284 
L 674.327496 308.807449 
L 674.353875 304.129821 
L 674.433014 308.623618 
L 674.630862 311.189202 
L 674.874874 312.151296 
L 675.132075 312.592759 
L 675.560745 312.873202 
L 675.831136 312.969814 
L 675.831136 312.969814 
" clip-path="url(#p2b97d2e32d)" style="fill: none; stroke: #1f77b4; stroke-width: 1.5; stroke-linecap: square"/>
   </g>
   <g id="line2d_14">
    <path d="M 76.003864 313.460925 
L 76.188521 313.49545 
L 76.195116 313.410526 
L 76.228091 312.537019 
L 76.32042 312.81419 
L 76.379774 312.951195 
L 76.392964 312.706606 
L 76.419343 311.525998 
L 76.511672 312.082068 
L 76.808443 313.029422 
L 77.124999 313.372641 
L 77.566858 313.503068 
L 77.791086 313.498605 
L 77.817465 313.282327 
L 77.909794 313.35324 
L 78.331869 313.497017 
L 78.997955 313.613017 
L 79.070499 308.51117 
L 79.143043 309.638434 
L 79.439814 312.175182 
L 79.736585 313.061973 
L 80.059736 313.386837 
L 80.488406 313.495691 
L 80.613709 313.483498 
L 80.798367 313.487022 
L 80.804962 313.425734 
L 80.818151 313.380664 
L 80.917075 313.426589 
L 81.464453 313.522472 
L 83.403358 313.541121 
L 83.489092 313.384631 
L 83.548446 313.413421 
L 84.062849 313.518346 
L 85.863261 313.541859 
L 85.889641 313.364004 
L 85.995159 313.417458 
L 86.516158 313.519451 
L 86.911852 313.487971 
L 87.017371 311.783315 
L 87.08332 312.138812 
L 87.380091 313.0295 
L 87.696647 313.372667 
L 87.742812 313.385565 
L 87.756002 313.293688 
L 87.802166 312.868559 
L 87.8879 313.032817 
L 88.178076 313.324627 
L 88.580366 313.487116 
L 88.936491 313.499625 
L 88.943086 313.461614 
L 88.976061 312.675208 
L 89.081579 312.93519 
L 89.39154 313.337282 
L 89.800425 313.491279 
L 90.750093 313.536914 
L 91.581052 313.5567 
L 91.693166 308.681191 
L 91.811874 310.157086 
L 92.108645 312.356492 
L 92.385632 313.036905 
L 92.464771 313.168156 
L 92.471366 313.094616 
L 92.49115 312.784251 
L 92.583479 312.992313 
L 92.900035 313.360547 
L 93.328704 313.499578 
L 93.750779 313.489195 
L 93.790348 312.452496 
L 93.889272 312.766209 
L 94.192638 313.274816 
L 94.383891 313.305895 
L 94.581738 313.148534 
L 94.621308 313.199182 
L 94.964243 313.437837 
L 95.544596 313.525072 
L 97.615399 313.542212 
L 97.674753 312.930425 
L 97.793462 313.130575 
L 98.123207 313.411678 
L 98.631016 313.517579 
L 100.424833 313.538554 
L 101.236007 313.505934 
L 101.275577 311.282552 
L 101.381095 311.969507 
L 101.486614 312.458772 
L 101.684461 312.599971 
L 101.987827 313.218045 
L 102.337358 313.445633 
L 102.937495 313.525823 
L 103.577202 313.445406 
L 103.603581 313.233652 
L 103.623366 312.944158 
L 103.715695 313.108296 
L 103.781644 313.159127 
L 103.788239 313.092781 
L 103.834403 312.124319 
L 103.920137 312.485035 
L 104.203719 313.112925 
L 104.414756 313.338015 
L 104.434541 313.280886 
L 104.454325 313.22012 
L 104.540059 313.303111 
L 104.698337 313.434239 
L 104.718122 312.208025 
L 104.823641 312.58491 
L 105.028083 313.04628 
L 105.054463 312.969397 
L 105.179766 311.833422 
L 105.272095 312.197749 
L 105.575461 313.08034 
L 105.872232 313.355373 
L 105.898612 313.204865 
L 105.918397 313.226777 
L 106.683407 313.343119 
L 107.032937 313.448035 
L 107.382468 313.484224 
L 107.422037 312.824693 
L 107.54734 313.079384 
L 107.817732 313.362342 
L 108.140883 313.366154 
L 108.213427 311.181955 
L 108.299161 311.745737 
L 108.529983 312.734328 
L 108.543173 312.60438 
L 108.562957 312.422144 
L 108.648691 312.659979 
L 109.341157 313.458208 
L 109.644523 313.495679 
L 109.651118 313.462634 
L 109.670903 313.384845 
L 109.769827 313.429744 
L 109.954484 313.52941 
L 110.007244 305.098758 
L 110.139142 308.23872 
L 110.28423 310.221708 
L 110.317205 309.666289 
L 110.455698 300.280345 
L 110.561216 303.03126 
L 110.844798 309.519043 
L 111.042645 311.357117 
L 111.06243 311.196599 
L 111.095405 310.74491 
L 111.161354 311.27342 
L 111.392176 312.423799 
L 111.41196 312.40522 
L 111.497694 312.229354 
L 111.550454 312.347215 
L 111.906579 313.195917 
L 112.249515 313.436867 
L 112.823272 313.524289 
L 113.054094 313.457589 
L 113.146423 311.070017 
L 113.218967 311.424703 
L 113.515738 312.799624 
L 113.819104 313.286228 
L 114.195014 313.471933 
L 114.946835 313.53394 
L 115.533782 313.471518 
L 115.579946 311.649617 
L 115.69206 312.251664 
L 115.850338 312.854781 
L 115.876718 310.003302 
L 115.982236 311.059175 
L 116.252628 312.46057 
L 116.549399 313.161738 
L 116.88574 313.424078 
L 117.327599 313.632618 
L 117.393548 284.808653 
L 117.433118 276.38491 
L 117.499067 284.39264 
L 117.545231 289.063521 
L 117.558421 282.118284 
L 117.584801 266.973485 
L 117.670534 278.726223 
L 117.703509 280.344491 
L 117.743078 276.919901 
L 117.828812 264.842641 
L 117.901356 268.184832 
L 117.934331 265.037885 
L 118.006875 254.316302 
L 118.066229 260.646002 
L 118.349811 289.136778 
L 118.639987 304.537782 
L 118.936758 310.392108 
L 119.233529 312.43865 
L 119.437972 313.009258 
L 119.451161 312.92136 
L 119.484136 310.845428 
L 119.58306 311.595957 
L 119.879831 312.859489 
L 120.170007 313.304401 
L 120.202982 312.317184 
L 120.315095 312.715162 
L 120.618461 313.257383 
L 120.981182 313.460763 
L 121.607698 313.516905 
L 121.83852 313.448678 
L 121.858305 313.389121 
L 121.957229 313.432874 
L 122.524392 313.524406 
L 122.906897 313.455525 
L 123.00582 310.062921 
L 123.065175 310.658941 
L 123.361946 312.531929 
L 123.665312 313.194808 
L 123.882944 313.38572 
L 123.889539 313.320542 
L 123.922514 312.405197 
L 124.014842 312.703457 
L 124.028032 312.727785 
L 124.054412 312.527308 
L 124.087386 312.646409 
L 124.140146 311.574201 
L 124.245664 312.169396 
L 124.542436 313.059951 
L 124.865586 313.386193 
L 125.32723 313.508878 
L 125.393179 313.456787 
L 125.439344 309.555337 
L 125.544863 310.781008 
L 125.841634 312.574601 
L 125.900988 312.778606 
L 125.907583 312.561132 
L 126.052671 307.882173 
L 126.059266 307.917993 
L 126.072456 307.386589 
L 126.112025 304.068451 
L 126.191164 306.044619 
L 126.375822 308.33679 
L 126.382417 308.173275 
L 126.428581 306.640161 
L 126.49453 308.059489 
L 126.791301 311.623218 
L 126.877035 312.136679 
L 126.88363 311.867343 
L 126.989149 305.927586 
L 127.028718 306.847598 
L 127.325489 311.19957 
L 127.622261 312.720921 
L 127.925627 313.25935 
L 128.288347 313.461307 
L 128.974218 313.53178 
L 129.185255 313.436153 
L 129.24461 308.88754 
L 129.323749 309.993165 
L 129.62052 312.299189 
L 129.864532 313.028794 
L 129.871127 312.931201 
L 129.904101 312.143453 
L 129.99643 312.530271 
L 130.181088 313.021076 
L 130.187682 312.962961 
L 130.214062 312.496157 
L 130.299796 312.767473 
L 130.603162 313.275248 
L 130.952693 313.474117 
L 131.13735 310.372239 
L 131.203299 310.955055 
L 131.335198 311.934459 
L 131.348387 311.573147 
L 131.368172 310.946239 
L 131.453906 311.599261 
L 131.750677 312.860644 
L 132.060638 313.312411 
L 132.449738 313.481576 
L 133.10923 313.503663 
L 133.155394 312.95016 
L 133.234533 313.083488 
L 133.557684 313.393687 
L 134.012733 313.51199 
L 134.058897 312.852791 
L 134.078682 312.721441 
L 134.157821 312.912717 
L 134.467782 313.329784 
L 134.698604 313.409778 
L 134.705199 313.383147 
L 134.764553 312.338944 
L 134.870072 309.060811 
L 134.922831 309.734892 
L 135.219602 312.20892 
L 135.489994 312.940717 
L 135.496589 312.950777 
L 135.503184 312.874609 
L 135.542753 303.869778 
L 135.641677 306.670533 
L 135.938448 311.13767 
L 136.235219 312.699282 
L 136.538585 313.25196 
L 136.901306 313.459262 
L 137.422304 313.5337 
L 137.448683 313.201137 
L 137.554202 313.304669 
L 137.844378 313.456996 
L 137.857568 313.419847 
L 137.870758 313.381176 
L 137.969682 313.427292 
L 138.51706 313.522573 
L 139.222716 313.493582 
L 139.2425 313.303474 
L 139.341424 313.371708 
L 139.743714 313.500555 
L 139.750309 313.483291 
L 139.770093 313.420849 
L 139.869017 313.455239 
L 140.521914 313.530336 
L 140.78571 313.458714 
L 140.805495 313.25424 
L 140.904419 313.336976 
L 141.135241 313.457015 
L 141.141836 313.380532 
L 141.168215 312.539666 
L 141.267139 312.830975 
L 141.5771 313.302513 
L 141.920036 313.443593 
L 142.520173 313.527249 
L 143.529195 313.518584 
L 143.562169 310.806101 
L 143.661093 311.554979 
L 143.713852 311.918975 
L 143.727042 311.405036 
L 143.760017 309.829828 
L 143.845751 310.794588 
L 144.142522 312.579348 
L 144.445888 313.210997 
L 144.492052 313.265208 
L 144.518432 309.478341 
L 144.617356 310.604364 
L 144.63714 310.804901 
L 144.656925 310.079224 
L 144.749254 302.669166 
L 144.762444 302.277284 
L 144.821798 304.241938 
L 145.02624 309.045217 
L 145.072405 308.860052 
L 145.369176 311.903472 
L 145.527454 312.270635 
L 145.408745 311.653367 
L 145.534049 312.26566 
L 145.567023 310.268914 
L 145.659352 311.145166 
L 145.797845 312.111838 
L 145.80444 311.794862 
L 145.824225 310.528501 
L 145.916554 311.338806 
L 146.213325 312.769594 
L 146.516691 313.275972 
L 146.886006 313.467585 
L 147.070664 313.50606 
L 147.077259 313.425997 
L 147.110233 310.937657 
L 147.209157 311.678338 
L 147.505928 312.888287 
L 147.815889 313.321634 
L 148.211584 313.485163 
L 149.068923 313.54025 
L 149.095303 313.373905 
L 149.200821 313.424458 
L 149.741604 313.521777 
L 149.880098 313.470412 
L 149.899882 313.236763 
L 149.998806 313.324498 
L 150.394501 313.485868 
L 151.021018 313.538111 
L 151.067182 312.846081 
L 151.192486 313.048749 
L 151.509042 313.360518 
L 151.746458 313.45425 
L 151.805813 312.340091 
L 151.904736 312.683767 
L 152.128964 313.158849 
L 152.135558 313.107357 
L 152.155343 312.844849 
L 152.247672 313.027473 
L 152.564228 313.372006 
L 153.006087 313.503755 
L 154.199767 313.538058 
L 154.931802 313.475626 
L 154.964777 312.424022 
L 154.991156 310.521015 
L 155.083485 311.355753 
L 155.380256 312.775519 
L 155.446206 312.925414 
L 155.46599 312.717948 
L 155.485775 312.522921 
L 155.571509 312.722519 
L 155.742977 313.09605 
L 155.756167 312.991683 
L 155.775951 312.738188 
L 155.86828 312.959511 
L 156.178241 313.345396 
L 156.481607 313.479673 
L 156.514582 313.105703 
L 156.613505 313.232526 
L 156.877302 313.492466 
L 156.910277 308.276345 
L 157.015795 309.782312 
L 157.312566 312.225479 
L 157.609338 313.079556 
L 157.932488 313.392435 
L 158.407322 313.511396 
L 159.858203 313.538431 
L 161.513527 313.443587 
L 161.526717 313.364703 
L 161.625641 313.415173 
L 162.140044 313.518629 
L 162.628068 313.579062 
L 162.654447 311.361534 
L 162.759966 312.028372 
L 163.056737 313.010652 
L 163.373293 313.366524 
L 163.808557 313.501758 
L 164.956073 313.537958 
L 165.793627 313.440418 
L 165.806817 313.398382 
L 165.90574 313.439257 
L 166.492688 313.526164 
L 167.666582 313.506395 
L 167.699557 312.509637 
L 167.798481 312.802633 
L 168.055682 313.243028 
L 168.062277 313.239705 
L 168.088657 312.952266 
L 168.180986 313.114237 
L 168.21396 313.154849 
L 168.220555 313.084912 
L 168.24034 312.804709 
L 168.332669 312.967025 
L 168.339264 313.129731 
L 168.352454 311.090632 
L 168.359048 311.470268 
L 168.372238 309.062291 
L 168.471162 310.433293 
L 168.662415 311.887639 
L 168.688794 311.717545 
L 168.774528 308.318115 
L 168.814098 307.63325 
L 168.880047 308.410356 
L 169.157033 311.231014 
L 169.737386 313.223311 
L 170.086916 313.44716 
L 170.693648 313.527927 
L 171.333355 313.550085 
L 171.386114 308.785314 
L 171.399304 308.172912 
L 171.485038 309.506991 
L 171.781809 312.129233 
L 171.966467 312.808035 
L 171.986252 312.620972 
L 171.999441 312.525758 
L 172.07858 312.771601 
L 172.381946 313.276658 
L 172.665528 313.449687 
L 172.698502 312.487736 
L 172.830401 312.873502 
L 173.140362 313.316701 
L 173.226095 313.382075 
L 173.344804 311.693526 
L 173.377779 311.880869 
L 173.67455 312.959086 
L 173.984511 313.345254 
L 174.129599 313.441133 
L 174.175763 310.364285 
L 174.314256 311.588893 
L 174.611028 312.857019 
L 174.920989 313.311202 
L 175.310089 313.481271 
L 176.068504 313.549349 
L 176.121263 311.892116 
L 176.233377 312.42954 
L 176.530148 313.150891 
L 176.866488 313.420783 
L 176.892868 313.423411 
L 176.899463 313.320324 
L 176.939032 312.234922 
L 177.024766 312.575993 
L 177.466626 313.288531 
L 177.057741 312.454286 
L 177.473221 313.213773 
L 177.4996 312.771339 
L 177.585334 312.971097 
L 177.90189 313.353632 
L 178.271205 313.520488 
L 178.297585 312.090798 
L 178.403104 312.525951 
L 178.541597 312.930526 
L 178.548192 312.745107 
L 178.567976 312.062549 
L 178.6669 312.471055 
L 178.963671 313.165404 
L 179.194493 313.384507 
L 179.220873 312.807136 
L 179.326392 313.031904 
L 179.642947 313.37345 
L 180.091402 313.504854 
L 180.256275 313.504077 
L 180.262869 313.415326 
L 180.276059 313.14 
L 180.374983 313.252268 
L 180.506881 313.361523 
L 180.546451 313.26693 
L 180.770678 313.419041 
L 180.777273 313.38038 
L 180.869602 312.858489 
L 180.902576 312.922979 
L 181.179563 313.309296 
L 181.186157 313.300793 
L 181.205942 313.263147 
L 181.291676 313.334914 
L 181.700561 313.490722 
L 181.79289 313.509565 
L 181.799485 313.458384 
L 181.872029 311.203683 
L 181.997332 311.987908 
L 182.294103 312.996418 
L 182.465571 313.248548 
L 182.478761 313.12558 
L 182.524925 313.02432 
L 182.584279 313.121416 
L 182.914025 313.408829 
L 183.415239 313.516725 
L 183.441618 313.542833 
L 183.474593 311.420291 
L 183.586706 312.109829 
L 183.599896 312.208393 
L 183.606491 311.930646 
L 183.626276 310.909581 
L 183.718605 311.635669 
L 184.015376 312.873371 
L 184.325337 313.316658 
L 184.49021 313.427085 
L 184.523184 312.306707 
L 184.635298 312.677702 
L 184.786981 313.051397 
L 184.793576 312.816313 
L 184.8925 307.258796 
L 184.965044 308.629139 
L 185.176081 311.245946 
L 185.189271 310.627393 
L 185.202461 310.091219 
L 185.209055 310.168455 
L 185.545396 310.335746 
L 185.822382 311.9051 
L 185.914711 312.304364 
L 185.99385 312.606038 
L 186.376355 312.727979 
L 186.633557 313.126823 
L 187.800857 313.303514 
L 188.183362 313.477933 
L 188.407589 313.534831 
L 188.433969 312.604463 
L 188.539487 312.891268 
L 188.849448 313.324157 
L 188.875828 313.276683 
L 188.968157 313.349377 
L 189.11984 313.45244 
L 189.146219 312.442959 
L 189.251738 312.770629 
L 189.555104 313.276326 
L 189.805711 313.447633 
L 189.838686 312.543389 
L 189.937609 312.828094 
L 190.24757 313.301551 
L 190.293735 313.342069 
L 190.30033 313.284788 
L 190.326709 312.128458 
L 190.425633 312.519722 
L 190.728999 313.190639 
L 191.071935 313.435301 
L 191.645692 313.525052 
L 191.869919 313.556633 
L 191.896299 312.5546 
L 192.001818 312.847557 
L 192.311779 313.308045 
L 192.700878 313.480475 
L 193.3208 313.570475 
L 193.37356 310.301265 
L 193.472483 311.158387 
L 193.769255 312.706524 
L 194.072621 313.254433 
L 194.435341 313.459946 
L 195.108022 313.531329 
L 195.213541 313.430644 
L 195.239921 313.097652 
L 195.332249 313.219662 
L 195.68178 313.446102 
L 196.295107 313.528053 
L 197.25137 313.50818 
L 197.277749 313.29819 
L 197.376673 313.36824 
L 197.541546 313.449946 
L 197.548141 313.395122 
L 197.567925 313.186001 
L 197.666849 313.247152 
L 197.745988 313.323478 
L 197.759178 313.209628 
L 197.917456 311.405465 
L 197.937241 309.487284 
L 198.02957 310.563552 
L 198.141683 311.519536 
L 198.154873 310.898277 
L 198.220822 306.525598 
L 198.306556 308.223184 
L 198.596732 311.591584 
L 198.893503 312.85796 
L 199.203464 313.311516 
L 199.592564 313.48135 
L 200.364169 313.523152 
L 200.766459 313.448351 
L 200.779649 313.408152 
L 200.878573 313.446285 
L 201.4919 313.528074 
L 203.338476 313.502949 
L 203.457184 313.493367 
L 203.674816 313.491862 
L 203.984777 304.964981 
L 204.030942 306.142701 
L 204.327713 310.953174 
L 204.53875 312.308621 
L 204.545345 312.172858 
L 204.611294 308.0066 
L 204.703623 309.520584 
L 205.000394 312.133985 
L 205.297165 313.047571 
L 205.620316 313.382251 
L 206.075365 313.507389 
L 207.381159 313.538415 
L 207.400943 313.515147 
L 207.440513 311.636748 
L 207.572411 312.320644 
L 207.717499 312.815695 
L 207.737284 312.657631 
L 207.770258 311.806522 
L 207.855992 312.256454 
L 208.152764 313.090384 
L 208.475914 313.39251 
L 208.627597 313.464787 
L 208.634192 313.353438 
L 208.667167 312.088477 
L 208.759496 312.465084 
L 209.056267 313.163316 
L 209.392607 313.421768 
L 209.412392 313.434687 
L 209.425582 313.317619 
L 209.445367 313.15402 
L 209.537696 313.260073 
L 209.900416 313.461507 
L 210.540123 313.519063 
L 211.14026 313.489957 
L 211.173234 311.920715 
L 211.305133 312.461242 
L 211.601904 313.153073 
L 211.766777 313.322449 
L 211.773372 313.246653 
L 211.826131 311.230845 
L 211.8657 305.935967 
L 211.951434 307.529632 
L 211.977814 308.105858 
L 211.991004 306.633583 
L 212.056953 299.885498 
L 212.122902 302.373491 
L 212.419673 309.635348 
L 212.716444 312.174103 
L 213.013216 313.050326 
L 213.04619 313.097614 
L 213.065975 312.95433 
L 213.09895 312.538517 
L 213.191278 312.799789 
L 213.488049 313.267971 
L 213.85077 313.461923 
L 214.147541 313.515974 
L 214.160731 313.448944 
L 214.206895 309.347977 
L 214.325604 310.781224 
L 214.622375 312.574676 
L 214.853197 313.118481 
L 214.859792 313.077467 
L 214.919146 310.736062 
L 215.051044 311.757855 
L 215.334626 312.838973 
L 215.637992 313.28824 
L 215.763295 313.370227 
L 216.013902 313.304939 
L 216.073256 310.55938 
L 216.191964 311.539137 
L 216.396407 312.569278 
L 216.594254 312.696027 
L 216.877836 313.191733 
L 217.029519 313.316042 
L 217.431808 313.438002 
L 217.504353 313.441773 
L 217.510947 313.3831 
L 217.557112 312.324432 
L 217.649441 312.649345 
L 217.72858 312.809666 
L 217.774744 312.75882 
L 217.801124 311.99672 
L 217.900047 312.433819 
L 218.196819 313.14326 
L 218.513374 313.397212 
L 218.533159 313.397331 
L 218.539754 313.360437 
L 218.625488 309.228688 
L 218.717817 310.219657 
L 219.060752 312.43287 
L 219.337739 313.072643 
L 219.63451 313.346774 
L 220.518228 313.527745 
L 223.729952 313.53859 
L 224.336684 313.478007 
L 224.376254 310.76623 
L 224.481772 311.625665 
L 224.771948 312.821337 
L 224.785138 312.854072 
L 225.01596 312.983844 
L 225.101694 313.129114 
L 225.358896 313.250136 
L 225.536959 313.384051 
L 225.543553 313.333193 
L 225.563338 313.14854 
L 225.662262 313.256073 
L 225.84692 313.398635 
L 225.853514 313.300719 
L 225.893084 311.530155 
L 225.992008 312.063969 
L 226.255804 312.856337 
L 226.816372 313.354097 
L 226.842752 313.358277 
L 227.218662 313.422979 
L 227.686901 313.493167 
L 227.77923 313.473624 
L 227.805609 313.008123 
L 227.911128 313.153638 
L 227.950697 313.203974 
L 228.254063 313.328852 
L 228.425531 313.410161 
L 229.843438 313.527108 
L 229.850033 313.555607 
L 229.856628 313.284906 
L 229.883007 310.61835 
L 229.975336 311.425713 
L 230.265512 312.746366 
L 230.324867 312.896558 
L 230.549094 313.018276 
L 230.86565 313.369009 
L 231.149231 313.478611 
L 231.155826 313.458935 
L 231.24156 312.833429 
L 231.274534 312.89565 
L 231.64385 312.838362 
L 231.709799 310.610497 
L 231.795533 311.371544 
L 232.092304 312.781039 
L 232.39567 313.279881 
L 232.764985 313.468642 
L 232.936453 313.513352 
L 232.943048 313.399227 
L 232.976022 309.394659 
L 233.022187 296.101426 
L 233.127705 297.651969 
L 233.140895 297.815542 
L 233.404692 305.477748 
L 233.668488 309.57555 
L 233.708058 310.15922 
L 233.721248 309.046368 
L 233.734437 307.884585 
L 233.826766 309.448558 
L 234.123537 312.108806 
L 234.420309 313.03877 
L 234.736864 313.375688 
L 235.185319 313.505311 
L 235.943734 313.538993 
L 236.003088 309.966817 
L 236.121797 311.148351 
L 236.418568 312.703016 
L 236.721934 313.253235 
L 236.992325 313.370774 
L 237.005515 313.378783 
L 237.031895 311.035152 
L 237.058274 305.244433 
L 237.150603 307.535114 
L 237.183578 308.208144 
L 237.203363 306.999717 
L 237.216552 306.070645 
L 237.302286 307.98227 
L 237.599057 311.596224 
L 237.895829 312.859604 
L 237.922208 312.924444 
L 237.935398 312.810513 
L 237.961778 310.562367 
L 238.060701 311.415478 
L 238.073891 311.512373 
L 238.251954 311.649487 
L 238.548725 312.878202 
L 238.858686 313.318269 
L 239.181837 313.428687 
L 239.537962 313.510464 
L 239.544557 313.480827 
L 239.564342 313.351509 
L 239.656671 313.403838 
L 239.663266 313.401808 
L 239.669861 313.424152 
L 239.689645 312.446774 
L 239.801759 312.812605 
L 240.105125 313.290661 
L 240.481035 313.473104 
L 240.626123 313.502862 
L 240.632718 313.46855 
L 240.652503 313.316683 
L 240.744832 313.377462 
L 241.193286 313.505674 
L 242.439725 313.538192 
L 243.086026 313.44851 
L 243.105811 313.083975 
L 243.204735 313.21605 
L 243.554265 313.445054 
L 244.095048 313.551632 
L 244.273111 305.920965 
L 244.345655 307.539362 
L 244.424794 309.15651 
L 244.431389 307.897465 
L 244.457769 302.036678 
L 244.550098 305.219133 
L 244.833679 310.340592 
L 244.919413 311.190574 
L 244.932603 310.618778 
L 244.952387 309.193299 
L 245.044716 310.396401 
L 245.051311 310.434644 
L 245.071096 309.970395 
L 245.077691 309.845094 
L 245.150235 310.490901 
L 245.447006 312.473186 
L 245.743777 313.157347 
L 246.080118 313.422743 
L 246.225206 313.486611 
L 246.251585 312.80984 
L 246.350509 313.021874 
L 246.667065 313.370181 
L 246.818748 313.449829 
L 246.825343 313.367036 
L 246.858318 312.86855 
L 246.950646 313.054725 
L 247.273797 313.384529 
L 247.735441 313.508578 
L 247.775011 313.579178 
L 247.81458 307.745765 
L 247.926694 309.606346 
L 248.223465 312.163965 
L 248.520236 313.058052 
L 248.843387 313.385588 
L 249.305031 313.50876 
L 250.307458 313.560103 
L 250.333838 312.67734 
L 250.439356 312.941661 
L 250.55147 313.293376 
L 250.57785 306.104055 
L 250.683368 308.30467 
L 250.980139 311.708928 
L 251.270316 312.868395 
L 251.580277 313.314997 
L 251.633036 313.361214 
L 251.639631 313.294339 
L 251.66601 313.007057 
L 251.758339 313.153841 
L 252.09468 313.421678 
L 252.318907 313.485748 
L 254.838164 313.569758 
L 254.890924 309.185705 
L 254.976658 310.261776 
L 255.273429 312.393089 
L 255.392137 312.788285 
L 255.398732 312.746858 
L 255.510846 310.013009 
L 255.537225 310.316802 
L 255.833996 312.412349 
L 256.130768 313.144882 
L 256.460513 313.416128 
L 256.69793 313.481146 
L 256.71112 311.685049 
L 256.730905 305.989482 
L 256.829829 308.10738 
L 257.1266 311.63996 
L 257.423371 312.874871 
L 257.733332 313.317158 
L 258.082862 313.476923 
L 258.089457 313.455354 
L 258.181786 312.475089 
L 258.340064 301.354326 
L 258.399418 303.608409 
L 258.696189 310.06722 
L 258.986366 312.26479 
L 258.992961 312.304816 
L 259.00615 311.973291 
L 259.197403 306.77719 
L 259.283137 308.466789 
L 259.579908 311.765601 
L 259.876679 312.918793 
L 260.17345 313.32607 
L 260.180045 313.311448 
L 260.18664 313.389571 
L 260.219615 310.618126 
L 260.318538 311.422924 
L 260.608715 312.74532 
L 260.912081 313.267682 
L 261.149498 313.411493 
L 261.248421 309.288183 
L 261.301181 298.744601 
L 261.386915 300.58604 
L 261.39351 300.644101 
L 261.413294 299.899636 
L 261.446269 296.719454 
L 261.518813 300.244713 
L 261.815584 308.891111 
L 262.099165 311.754835 
L 262.395937 312.915029 
L 262.705898 313.32564 
L 263.101592 313.48491 
L 263.160947 313.507173 
L 263.167542 313.391734 
L 263.240086 311.775441 
L 263.31263 311.878818 
L 263.615996 312.971133 
L 263.932552 313.353644 
L 264.354626 313.497108 
L 265.390028 313.535182 
L 265.673609 313.52217 
L 265.719774 297.327529 
L 265.812102 301.756794 
L 265.904431 305.056466 
L 265.917621 302.937279 
L 265.944001 295.262907 
L 266.029735 299.887888 
L 266.326506 308.766608 
L 266.497973 310.95798 
L 266.511163 310.20587 
L 266.517758 309.897225 
L 266.603492 310.857448 
L 266.893668 312.533294 
L 267.19044 313.178856 
L 267.348717 313.362775 
L 267.375097 312.090859 
L 267.480616 312.535746 
L 267.757602 313.164128 
L 267.764197 313.156055 
L 267.790577 313.047675 
L 267.863121 313.158405 
L 268.509422 313.455286 
L 269.129344 313.521572 
L 270.428543 313.584243 
L 270.487897 305.302351 
L 270.619795 308.048579 
L 270.844022 310.814201 
L 271.022085 310.998561 
L 271.312261 312.608191 
L 271.602437 313.181493 
L 271.655197 313.243128 
L 271.661792 313.225431 
L 271.694766 312.242867 
L 271.787095 312.592553 
L 272.077271 313.175491 
L 272.413612 313.425649 
L 272.888446 313.498176 
L 274.009581 313.68358 
L 274.035961 307.382091 
L 274.14148 309.181623 
L 274.326137 311.051217 
L 274.5042 311.219538 
L 274.800971 312.727901 
L 274.959249 313.006798 
L 275.361539 313.127286 
L 275.434083 313.224324 
L 275.763829 313.126232 
L 275.783613 312.982666 
L 275.869347 313.127117 
L 276.166118 313.37311 
L 277.016862 313.503986 
L 277.649974 313.533838 
L 295.443054 313.430559 
L 295.548573 313.449724 
L 296.175089 313.528928 
L 299.742938 313.53859 
L 302.064348 313.460318 
L 302.169867 312.75381 
L 302.196247 312.819737 
L 302.499613 313.293096 
L 302.875523 313.473747 
L 303.020611 313.519646 
L 303.053585 311.094577 
L 303.172294 311.919732 
L 303.469065 312.972673 
L 303.785621 313.354146 
L 304.207695 313.497221 
L 305.256287 313.537508 
L 306.245524 313.55461 
L 306.271904 312.921633 
L 306.377422 313.110976 
L 306.707168 313.405582 
L 307.201787 313.515517 
L 308.863705 313.538526 
L 675.831136 313.53859 
L 675.831136 313.53859 
" clip-path="url(#p2b97d2e32d)" style="fill: none; stroke: #ff7f0e; stroke-width: 1.5; stroke-linecap: square"/>
   </g>
   <g id="patch_3">
    <path d="M 46.0125 327.558125 
L 46.0125 22.318125 
" style="fill: none; stroke: #000000; stroke-width: 0.8; stroke-linejoin: miter; stroke-linecap: square"/>
   </g>
   <g id="patch_4">
    <path d="M 705.8225 327.558125 
L 705.8225 22.318125 
" style="fill: none; stroke: #000000; stroke-width: 0.8; stroke-linejoin: miter; stroke-linecap: square"/>
   </g>
   <g id="patch_5">
    <path d="M 46.0125 327.558125 
L 705.8225 327.558125 
" style="fill: none; stroke: #000000; stroke-width: 0.8; stroke-linejoin: miter; stroke-linecap: square"/>
   </g>
   <g id="patch_6">
    <path d="M 46.0125 22.318125 
L 705.8225 22.318125 
" style="fill: none; stroke: #000000; stroke-width: 0.8; stroke-linejoin: miter; stroke-linecap: square"/>
   </g>
   <g id="text_13">
    <!-- training -->
    <g transform="translate(352.674062 16.318125) scale(0.12 -0.12)">
     <defs>
      <path id="DejaVuSans-74" d="M 1172 4494 
L 1172 3500 
L 2356 3500 
L 2356 3053 
L 1172 3053 
L 1172 1153 
Q 1172 725 1289 603 
Q 1406 481 1766 481 
L 2356 481 
L 2356 0 
L 1766 0 
Q 1100 0 847 248 
Q 594 497 594 1153 
L 594 3053 
L 172 3053 
L 172 3500 
L 594 3500 
L 594 4494 
L 1172 4494 
z
" transform="scale(0.015625)"/>
      <path id="DejaVuSans-72" d="M 2631 2963 
Q 2534 3019 2420 3045 
Q 2306 3072 2169 3072 
Q 1681 3072 1420 2755 
Q 1159 2438 1159 1844 
L 1159 0 
L 581 0 
L 581 3500 
L 1159 3500 
L 1159 2956 
Q 1341 3275 1631 3429 
Q 1922 3584 2338 3584 
Q 2397 3584 2469 3576 
Q 2541 3569 2628 3553 
L 2631 2963 
z
" transform="scale(0.015625)"/>
      <path id="DejaVuSans-61" d="M 2194 1759 
Q 1497 1759 1228 1600 
Q 959 1441 959 1056 
Q 959 750 1161 570 
Q 1363 391 1709 391 
Q 2188 391 2477 730 
Q 2766 1069 2766 1631 
L 2766 1759 
L 2194 1759 
z
M 3341 1997 
L 3341 0 
L 2766 0 
L 2766 531 
Q 2569 213 2275 61 
Q 1981 -91 1556 -91 
Q 1019 -91 701 211 
Q 384 513 384 1019 
Q 384 1609 779 1909 
Q 1175 2209 1959 2209 
L 2766 2209 
L 2766 2266 
Q 2766 2663 2505 2880 
Q 2244 3097 1772 3097 
Q 1472 3097 1187 3025 
Q 903 2953 641 2809 
L 641 3341 
Q 956 3463 1253 3523 
Q 1550 3584 1831 3584 
Q 2591 3584 2966 3190 
Q 3341 2797 3341 1997 
z
" transform="scale(0.015625)"/>
      <path id="DejaVuSans-69" d="M 603 3500 
L 1178 3500 
L 1178 0 
L 603 0 
L 603 3500 
z
M 603 4863 
L 1178 4863 
L 1178 4134 
L 603 4134 
L 603 4863 
z
" transform="scale(0.015625)"/>
      <path id="DejaVuSans-6e" d="M 3513 2113 
L 3513 0 
L 2938 0 
L 2938 2094 
Q 2938 2591 2744 2837 
Q 2550 3084 2163 3084 
Q 1697 3084 1428 2787 
Q 1159 2491 1159 1978 
L 1159 0 
L 581 0 
L 581 3500 
L 1159 3500 
L 1159 2956 
Q 1366 3272 1645 3428 
Q 1925 3584 2291 3584 
Q 2894 3584 3203 3211 
Q 3513 2838 3513 2113 
z
" transform="scale(0.015625)"/>
      <path id="DejaVuSans-67" d="M 2906 1791 
Q 2906 2416 2648 2759 
Q 2391 3103 1925 3103 
Q 1463 3103 1205 2759 
Q 947 2416 947 1791 
Q 947 1169 1205 825 
Q 1463 481 1925 481 
Q 2391 481 2648 825 
Q 2906 1169 2906 1791 
z
M 3481 434 
Q 3481 -459 3084 -895 
Q 2688 -1331 1869 -1331 
Q 1566 -1331 1297 -1286 
Q 1028 -1241 775 -1147 
L 775 -588 
Q 1028 -725 1275 -790 
Q 1522 -856 1778 -856 
Q 2344 -856 2625 -561 
Q 2906 -266 2906 331 
L 2906 616 
Q 2728 306 2450 153 
Q 2172 0 1784 0 
Q 1141 0 747 490 
Q 353 981 353 1791 
Q 353 2603 747 3093 
Q 1141 3584 1784 3584 
Q 2172 3584 2450 3431 
Q 2728 3278 2906 2969 
L 2906 3500 
L 3481 3500 
L 3481 434 
z
" transform="scale(0.015625)"/>
     </defs>
     <use xlink:href="#DejaVuSans-74"/>
     <use xlink:href="#DejaVuSans-72" x="39.208984"/>
     <use xlink:href="#DejaVuSans-61" x="80.322266"/>
     <use xlink:href="#DejaVuSans-69" x="141.601562"/>
     <use xlink:href="#DejaVuSans-6e" x="169.384766"/>
     <use xlink:href="#DejaVuSans-69" x="232.763672"/>
     <use xlink:href="#DejaVuSans-6e" x="260.546875"/>
     <use xlink:href="#DejaVuSans-67" x="323.925781"/>
    </g>
   </g>
   <g id="legend_1">
    <g id="patch_7">
     <path d="M 53.0125 59.674375 
L 134.40625 59.674375 
Q 136.40625 59.674375 136.40625 57.674375 
L 136.40625 29.318125 
Q 136.40625 27.318125 134.40625 27.318125 
L 53.0125 27.318125 
Q 51.0125 27.318125 51.0125 29.318125 
L 51.0125 57.674375 
Q 51.0125 59.674375 53.0125 59.674375 
z
" style="fill: #ffffff; opacity: 0.8; stroke: #cccccc; stroke-linejoin: miter"/>
    </g>
    <g id="line2d_15">
     <path d="M 55.0125 35.416562 
L 65.0125 35.416562 
L 75.0125 35.416562 
" style="fill: none; stroke: #1f77b4; stroke-width: 1.5; stroke-linecap: square"/>
    </g>
    <g id="text_14">
     <!-- observed -->
     <g transform="translate(83.0125 38.916562) scale(0.1 -0.1)">
      <defs>
       <path id="DejaVuSans-6f" d="M 1959 3097 
Q 1497 3097 1228 2736 
Q 959 2375 959 1747 
Q 959 1119 1226 758 
Q 1494 397 1959 397 
Q 2419 397 2687 759 
Q 2956 1122 2956 1747 
Q 2956 2369 2687 2733 
Q 2419 3097 1959 3097 
z
M 1959 3584 
Q 2709 3584 3137 3096 
Q 3566 2609 3566 1747 
Q 3566 888 3137 398 
Q 2709 -91 1959 -91 
Q 1206 -91 779 398 
Q 353 888 353 1747 
Q 353 2609 779 3096 
Q 1206 3584 1959 3584 
z
" transform="scale(0.015625)"/>
       <path id="DejaVuSans-62" d="M 3116 1747 
Q 3116 2381 2855 2742 
Q 2594 3103 2138 3103 
Q 1681 3103 1420 2742 
Q 1159 2381 1159 1747 
Q 1159 1113 1420 752 
Q 1681 391 2138 391 
Q 2594 391 2855 752 
Q 3116 1113 3116 1747 
z
M 1159 2969 
Q 1341 3281 1617 3432 
Q 1894 3584 2278 3584 
Q 2916 3584 3314 3078 
Q 3713 2572 3713 1747 
Q 3713 922 3314 415 
Q 2916 -91 2278 -91 
Q 1894 -91 1617 61 
Q 1341 213 1159 525 
L 1159 0 
L 581 0 
L 581 4863 
L 1159 4863 
L 1159 2969 
z
" transform="scale(0.015625)"/>
       <path id="DejaVuSans-73" d="M 2834 3397 
L 2834 2853 
Q 2591 2978 2328 3040 
Q 2066 3103 1784 3103 
Q 1356 3103 1142 2972 
Q 928 2841 928 2578 
Q 928 2378 1081 2264 
Q 1234 2150 1697 2047 
L 1894 2003 
Q 2506 1872 2764 1633 
Q 3022 1394 3022 966 
Q 3022 478 2636 193 
Q 2250 -91 1575 -91 
Q 1294 -91 989 -36 
Q 684 19 347 128 
L 347 722 
Q 666 556 975 473 
Q 1284 391 1588 391 
Q 1994 391 2212 530 
Q 2431 669 2431 922 
Q 2431 1156 2273 1281 
Q 2116 1406 1581 1522 
L 1381 1569 
Q 847 1681 609 1914 
Q 372 2147 372 2553 
Q 372 3047 722 3315 
Q 1072 3584 1716 3584 
Q 2034 3584 2315 3537 
Q 2597 3491 2834 3397 
z
" transform="scale(0.015625)"/>
       <path id="DejaVuSans-65" d="M 3597 1894 
L 3597 1613 
L 953 1613 
Q 991 1019 1311 708 
Q 1631 397 2203 397 
Q 2534 397 2845 478 
Q 3156 559 3463 722 
L 3463 178 
Q 3153 47 2828 -22 
Q 2503 -91 2169 -91 
Q 1331 -91 842 396 
Q 353 884 353 1716 
Q 353 2575 817 3079 
Q 1281 3584 2069 3584 
Q 2775 3584 3186 3129 
Q 3597 2675 3597 1894 
z
M 3022 2063 
Q 3016 2534 2758 2815 
Q 2500 3097 2075 3097 
Q 1594 3097 1305 2825 
Q 1016 2553 972 2059 
L 3022 2063 
z
" transform="scale(0.015625)"/>
       <path id="DejaVuSans-76" d="M 191 3500 
L 800 3500 
L 1894 563 
L 2988 3500 
L 3597 3500 
L 2284 0 
L 1503 0 
L 191 3500 
z
" transform="scale(0.015625)"/>
       <path id="DejaVuSans-64" d="M 2906 2969 
L 2906 4863 
L 3481 4863 
L 3481 0 
L 2906 0 
L 2906 525 
Q 2725 213 2448 61 
Q 2172 -91 1784 -91 
Q 1150 -91 751 415 
Q 353 922 353 1747 
Q 353 2572 751 3078 
Q 1150 3584 1784 3584 
Q 2172 3584 2448 3432 
Q 2725 3281 2906 2969 
z
M 947 1747 
Q 947 1113 1208 752 
Q 1469 391 1925 391 
Q 2381 391 2643 752 
Q 2906 1113 2906 1747 
Q 2906 2381 2643 2742 
Q 2381 3103 1925 3103 
Q 1469 3103 1208 2742 
Q 947 2381 947 1747 
z
" transform="scale(0.015625)"/>
      </defs>
      <use xlink:href="#DejaVuSans-6f"/>
      <use xlink:href="#DejaVuSans-62" x="61.181641"/>
      <use xlink:href="#DejaVuSans-73" x="124.658203"/>
      <use xlink:href="#DejaVuSans-65" x="176.757812"/>
      <use xlink:href="#DejaVuSans-72" x="238.28125"/>
      <use xlink:href="#DejaVuSans-76" x="279.394531"/>
      <use xlink:href="#DejaVuSans-65" x="338.574219"/>
      <use xlink:href="#DejaVuSans-64" x="400.097656"/>
     </g>
    </g>
    <g id="line2d_16">
     <path d="M 55.0125 50.094688 
L 65.0125 50.094688 
L 75.0125 50.094688 
" style="fill: none; stroke: #ff7f0e; stroke-width: 1.5; stroke-linecap: square"/>
    </g>
    <g id="text_15">
     <!-- simulated -->
     <g transform="translate(83.0125 53.594688) scale(0.1 -0.1)">
      <defs>
       <path id="DejaVuSans-6d" d="M 3328 2828 
Q 3544 3216 3844 3400 
Q 4144 3584 4550 3584 
Q 5097 3584 5394 3201 
Q 5691 2819 5691 2113 
L 5691 0 
L 5113 0 
L 5113 2094 
Q 5113 2597 4934 2840 
Q 4756 3084 4391 3084 
Q 3944 3084 3684 2787 
Q 3425 2491 3425 1978 
L 3425 0 
L 2847 0 
L 2847 2094 
Q 2847 2600 2669 2842 
Q 2491 3084 2119 3084 
Q 1678 3084 1418 2786 
Q 1159 2488 1159 1978 
L 1159 0 
L 581 0 
L 581 3500 
L 1159 3500 
L 1159 2956 
Q 1356 3278 1631 3431 
Q 1906 3584 2284 3584 
Q 2666 3584 2933 3390 
Q 3200 3197 3328 2828 
z
" transform="scale(0.015625)"/>
       <path id="DejaVuSans-75" d="M 544 1381 
L 544 3500 
L 1119 3500 
L 1119 1403 
Q 1119 906 1312 657 
Q 1506 409 1894 409 
Q 2359 409 2629 706 
Q 2900 1003 2900 1516 
L 2900 3500 
L 3475 3500 
L 3475 0 
L 2900 0 
L 2900 538 
Q 2691 219 2414 64 
Q 2138 -91 1772 -91 
Q 1169 -91 856 284 
Q 544 659 544 1381 
z
M 1991 3584 
L 1991 3584 
z
" transform="scale(0.015625)"/>
       <path id="DejaVuSans-6c" d="M 603 4863 
L 1178 4863 
L 1178 0 
L 603 0 
L 603 4863 
z
" transform="scale(0.015625)"/>
      </defs>
      <use xlink:href="#DejaVuSans-73"/>
      <use xlink:href="#DejaVuSans-69" x="52.099609"/>
      <use xlink:href="#DejaVuSans-6d" x="79.882812"/>
      <use xlink:href="#DejaVuSans-75" x="177.294922"/>
      <use xlink:href="#DejaVuSans-6c" x="240.673828"/>
      <use xlink:href="#DejaVuSans-61" x="268.457031"/>
      <use xlink:href="#DejaVuSans-74" x="329.736328"/>
      <use xlink:href="#DejaVuSans-65" x="368.945312"/>
      <use xlink:href="#DejaVuSans-64" x="430.46875"/>
     </g>
    </g>
   </g>
  </g>
 </g>
 <defs>
  <clipPath id="p2b97d2e32d">
   <rect x="46.0125" y="22.318125" width="659.81" height="305.24"/>
  </clipPath>
 </defs>
</svg>
