<?xml version="1.0" encoding="utf-8" standalone="no"?>
<!DOCTYPE svg PUBLIC "-//W3C//DTD SVG 1.1//EN"
  "http://www.w3.org/Graphics/SVG/1.1/DTD/svg11.dtd">
<svg xmlns:xlink="http://www.w3.org/1999/xlink" width="712.96pt" height="351.43625pt" viewBox="0 0 712.96 351.43625" xmlns="http://www.w3.org/2000/svg" version="1.1">
 <metadata>
  <rdf:RDF xmlns:dc="http://purl.org/dc/elements/1.1/" xmlns:cc="http://creativecommons.org/ns#" xmlns:rdf="http://www.w3.org/1999/02/22-rdf-syntax-ns#">
   <cc:Work>
    <dc:type rdf:resource="http://purl.org/dc/dcmitype/StillImage"/>
    <dc:date>2024-05-11T05:17:07.598311</dc:date>
    <dc:format>image/svg+xml</dc:format>
    <dc:creator>
     <cc:Agent>
      <dc:title>Matplotlib v3.8.4, https://matplotlib.org/</dc:title>
     </cc:Agent>
    </dc:creator>
   </cc:Work>
  </rdf:RDF>
 </metadata>
 <defs>
  <style type="text/css">*{stroke-linejoin: round; stroke-linecap: butt}</style>
 </defs>
 <g id="figure_1">
  <g id="patch_1">
   <path d="M 0 351.43625 
L 712.96 351.43625 
L 712.96 0 
L 0 0 
z
" style="fill: #ffffff"/>
  </g>
  <g id="axes_1">
   <g id="patch_2">
    <path d="M 39.65 327.558125 
L 705.76 327.558125 
L 705.76 22.318125 
L 39.65 22.318125 
z
" style="fill: #ffffff"/>
   </g>
   <g id="matplotlib.axis_1">
    <g id="xtick_1">
     <g id="line2d_1">
      <defs>
       <path id="m2401909216" d="M 0 0 
L 0 3.5 
" style="stroke: #000000; stroke-width: 0.8"/>
      </defs>
      <g>
       <use xlink:href="#m2401909216" x="44.214012" y="327.558125" style="stroke: #000000; stroke-width: 0.8"/>
      </g>
     </g>
     <g id="text_1">
      <!-- 2010 -->
      <g transform="translate(31.489012 342.156563) scale(0.1 -0.1)">
       <defs>
        <path id="DejaVuSans-32" d="M 1228 531 
L 3431 531 
L 3431 0 
L 469 0 
L 469 531 
Q 828 903 1448 1529 
Q 2069 2156 2228 2338 
Q 2531 2678 2651 2914 
Q 2772 3150 2772 3378 
Q 2772 3750 2511 3984 
Q 2250 4219 1831 4219 
Q 1534 4219 1204 4116 
Q 875 4013 500 3803 
L 500 4441 
Q 881 4594 1212 4672 
Q 1544 4750 1819 4750 
Q 2544 4750 2975 4387 
Q 3406 4025 3406 3419 
Q 3406 3131 3298 2873 
Q 3191 2616 2906 2266 
Q 2828 2175 2409 1742 
Q 1991 1309 1228 531 
z
" transform="scale(0.015625)"/>
        <path id="DejaVuSans-30" d="M 2034 4250 
Q 1547 4250 1301 3770 
Q 1056 3291 1056 2328 
Q 1056 1369 1301 889 
Q 1547 409 2034 409 
Q 2525 409 2770 889 
Q 3016 1369 3016 2328 
Q 3016 3291 2770 3770 
Q 2525 4250 2034 4250 
z
M 2034 4750 
Q 2819 4750 3233 4129 
Q 3647 3509 3647 2328 
Q 3647 1150 3233 529 
Q 2819 -91 2034 -91 
Q 1250 -91 836 529 
Q 422 1150 422 2328 
Q 422 3509 836 4129 
Q 1250 4750 2034 4750 
z
" transform="scale(0.015625)"/>
        <path id="DejaVuSans-31" d="M 794 531 
L 1825 531 
L 1825 4091 
L 703 3866 
L 703 4441 
L 1819 4666 
L 2450 4666 
L 2450 531 
L 3481 531 
L 3481 0 
L 794 0 
L 794 531 
z
" transform="scale(0.015625)"/>
       </defs>
       <use xlink:href="#DejaVuSans-32"/>
       <use xlink:href="#DejaVuSans-30" x="63.623047"/>
       <use xlink:href="#DejaVuSans-31" x="127.246094"/>
       <use xlink:href="#DejaVuSans-30" x="190.869141"/>
      </g>
     </g>
    </g>
    <g id="xtick_2">
     <g id="line2d_2">
      <g>
       <use xlink:href="#m2401909216" x="111.273299" y="327.558125" style="stroke: #000000; stroke-width: 0.8"/>
      </g>
     </g>
     <g id="text_2">
      <!-- 2011 -->
      <g transform="translate(98.548299 342.156563) scale(0.1 -0.1)">
       <use xlink:href="#DejaVuSans-32"/>
       <use xlink:href="#DejaVuSans-30" x="63.623047"/>
       <use xlink:href="#DejaVuSans-31" x="127.246094"/>
       <use xlink:href="#DejaVuSans-31" x="190.869141"/>
      </g>
     </g>
    </g>
    <g id="xtick_3">
     <g id="line2d_3">
      <g>
       <use xlink:href="#m2401909216" x="178.332586" y="327.558125" style="stroke: #000000; stroke-width: 0.8"/>
      </g>
     </g>
     <g id="text_3">
      <!-- 2012 -->
      <g transform="translate(165.607586 342.156563) scale(0.1 -0.1)">
       <use xlink:href="#DejaVuSans-32"/>
       <use xlink:href="#DejaVuSans-30" x="63.623047"/>
       <use xlink:href="#DejaVuSans-31" x="127.246094"/>
       <use xlink:href="#DejaVuSans-32" x="190.869141"/>
      </g>
     </g>
    </g>
    <g id="xtick_4">
     <g id="line2d_4">
      <g>
       <use xlink:href="#m2401909216" x="245.575596" y="327.558125" style="stroke: #000000; stroke-width: 0.8"/>
      </g>
     </g>
     <g id="text_4">
      <!-- 2013 -->
      <g transform="translate(232.850596 342.156563) scale(0.1 -0.1)">
       <defs>
        <path id="DejaVuSans-33" d="M 2597 2516 
Q 3050 2419 3304 2112 
Q 3559 1806 3559 1356 
Q 3559 666 3084 287 
Q 2609 -91 1734 -91 
Q 1441 -91 1130 -33 
Q 819 25 488 141 
L 488 750 
Q 750 597 1062 519 
Q 1375 441 1716 441 
Q 2309 441 2620 675 
Q 2931 909 2931 1356 
Q 2931 1769 2642 2001 
Q 2353 2234 1838 2234 
L 1294 2234 
L 1294 2753 
L 1863 2753 
Q 2328 2753 2575 2939 
Q 2822 3125 2822 3475 
Q 2822 3834 2567 4026 
Q 2313 4219 1838 4219 
Q 1578 4219 1281 4162 
Q 984 4106 628 3988 
L 628 4550 
Q 988 4650 1302 4700 
Q 1616 4750 1894 4750 
Q 2613 4750 3031 4423 
Q 3450 4097 3450 3541 
Q 3450 3153 3228 2886 
Q 3006 2619 2597 2516 
z
" transform="scale(0.015625)"/>
       </defs>
       <use xlink:href="#DejaVuSans-32"/>
       <use xlink:href="#DejaVuSans-30" x="63.623047"/>
       <use xlink:href="#DejaVuSans-31" x="127.246094"/>
       <use xlink:href="#DejaVuSans-33" x="190.869141"/>
      </g>
     </g>
    </g>
    <g id="xtick_5">
     <g id="line2d_5">
      <g>
       <use xlink:href="#m2401909216" x="312.634883" y="327.558125" style="stroke: #000000; stroke-width: 0.8"/>
      </g>
     </g>
     <g id="text_5">
      <!-- 2014 -->
      <g transform="translate(299.909883 342.156563) scale(0.1 -0.1)">
       <defs>
        <path id="DejaVuSans-34" d="M 2419 4116 
L 825 1625 
L 2419 1625 
L 2419 4116 
z
M 2253 4666 
L 3047 4666 
L 3047 1625 
L 3713 1625 
L 3713 1100 
L 3047 1100 
L 3047 0 
L 2419 0 
L 2419 1100 
L 313 1100 
L 313 1709 
L 2253 4666 
z
" transform="scale(0.015625)"/>
       </defs>
       <use xlink:href="#DejaVuSans-32"/>
       <use xlink:href="#DejaVuSans-30" x="63.623047"/>
       <use xlink:href="#DejaVuSans-31" x="127.246094"/>
       <use xlink:href="#DejaVuSans-34" x="190.869141"/>
      </g>
     </g>
    </g>
    <g id="xtick_6">
     <g id="line2d_6">
      <g>
       <use xlink:href="#m2401909216" x="379.69417" y="327.558125" style="stroke: #000000; stroke-width: 0.8"/>
      </g>
     </g>
     <g id="text_6">
      <!-- 2015 -->
      <g transform="translate(366.96917 342.156563) scale(0.1 -0.1)">
       <defs>
        <path id="DejaVuSans-35" d="M 691 4666 
L 3169 4666 
L 3169 4134 
L 1269 4134 
L 1269 2991 
Q 1406 3038 1543 3061 
Q 1681 3084 1819 3084 
Q 2600 3084 3056 2656 
Q 3513 2228 3513 1497 
Q 3513 744 3044 326 
Q 2575 -91 1722 -91 
Q 1428 -91 1123 -41 
Q 819 9 494 109 
L 494 744 
Q 775 591 1075 516 
Q 1375 441 1709 441 
Q 2250 441 2565 725 
Q 2881 1009 2881 1497 
Q 2881 1984 2565 2268 
Q 2250 2553 1709 2553 
Q 1456 2553 1204 2497 
Q 953 2441 691 2322 
L 691 4666 
z
" transform="scale(0.015625)"/>
       </defs>
       <use xlink:href="#DejaVuSans-32"/>
       <use xlink:href="#DejaVuSans-30" x="63.623047"/>
       <use xlink:href="#DejaVuSans-31" x="127.246094"/>
       <use xlink:href="#DejaVuSans-35" x="190.869141"/>
      </g>
     </g>
    </g>
    <g id="xtick_7">
     <g id="line2d_7">
      <g>
       <use xlink:href="#m2401909216" x="446.753457" y="327.558125" style="stroke: #000000; stroke-width: 0.8"/>
      </g>
     </g>
     <g id="text_7">
      <!-- 2016 -->
      <g transform="translate(434.028457 342.156563) scale(0.1 -0.1)">
       <defs>
        <path id="DejaVuSans-36" d="M 2113 2584 
Q 1688 2584 1439 2293 
Q 1191 2003 1191 1497 
Q 1191 994 1439 701 
Q 1688 409 2113 409 
Q 2538 409 2786 701 
Q 3034 994 3034 1497 
Q 3034 2003 2786 2293 
Q 2538 2584 2113 2584 
z
M 3366 4563 
L 3366 3988 
Q 3128 4100 2886 4159 
Q 2644 4219 2406 4219 
Q 1781 4219 1451 3797 
Q 1122 3375 1075 2522 
Q 1259 2794 1537 2939 
Q 1816 3084 2150 3084 
Q 2853 3084 3261 2657 
Q 3669 2231 3669 1497 
Q 3669 778 3244 343 
Q 2819 -91 2113 -91 
Q 1303 -91 875 529 
Q 447 1150 447 2328 
Q 447 3434 972 4092 
Q 1497 4750 2381 4750 
Q 2619 4750 2861 4703 
Q 3103 4656 3366 4563 
z
" transform="scale(0.015625)"/>
       </defs>
       <use xlink:href="#DejaVuSans-32"/>
       <use xlink:href="#DejaVuSans-30" x="63.623047"/>
       <use xlink:href="#DejaVuSans-31" x="127.246094"/>
       <use xlink:href="#DejaVuSans-36" x="190.869141"/>
      </g>
     </g>
    </g>
    <g id="xtick_8">
     <g id="line2d_8">
      <g>
       <use xlink:href="#m2401909216" x="513.996468" y="327.558125" style="stroke: #000000; stroke-width: 0.8"/>
      </g>
     </g>
     <g id="text_8">
      <!-- 2017 -->
      <g transform="translate(501.271468 342.156563) scale(0.1 -0.1)">
       <defs>
        <path id="DejaVuSans-37" d="M 525 4666 
L 3525 4666 
L 3525 4397 
L 1831 0 
L 1172 0 
L 2766 4134 
L 525 4134 
L 525 4666 
z
" transform="scale(0.015625)"/>
       </defs>
       <use xlink:href="#DejaVuSans-32"/>
       <use xlink:href="#DejaVuSans-30" x="63.623047"/>
       <use xlink:href="#DejaVuSans-31" x="127.246094"/>
       <use xlink:href="#DejaVuSans-37" x="190.869141"/>
      </g>
     </g>
    </g>
    <g id="xtick_9">
     <g id="line2d_9">
      <g>
       <use xlink:href="#m2401909216" x="581.055754" y="327.558125" style="stroke: #000000; stroke-width: 0.8"/>
      </g>
     </g>
     <g id="text_9">
      <!-- 2018 -->
      <g transform="translate(568.330754 342.156563) scale(0.1 -0.1)">
       <defs>
        <path id="DejaVuSans-38" d="M 2034 2216 
Q 1584 2216 1326 1975 
Q 1069 1734 1069 1313 
Q 1069 891 1326 650 
Q 1584 409 2034 409 
Q 2484 409 2743 651 
Q 3003 894 3003 1313 
Q 3003 1734 2745 1975 
Q 2488 2216 2034 2216 
z
M 1403 2484 
Q 997 2584 770 2862 
Q 544 3141 544 3541 
Q 544 4100 942 4425 
Q 1341 4750 2034 4750 
Q 2731 4750 3128 4425 
Q 3525 4100 3525 3541 
Q 3525 3141 3298 2862 
Q 3072 2584 2669 2484 
Q 3125 2378 3379 2068 
Q 3634 1759 3634 1313 
Q 3634 634 3220 271 
Q 2806 -91 2034 -91 
Q 1263 -91 848 271 
Q 434 634 434 1313 
Q 434 1759 690 2068 
Q 947 2378 1403 2484 
z
M 1172 3481 
Q 1172 3119 1398 2916 
Q 1625 2713 2034 2713 
Q 2441 2713 2670 2916 
Q 2900 3119 2900 3481 
Q 2900 3844 2670 4047 
Q 2441 4250 2034 4250 
Q 1625 4250 1398 4047 
Q 1172 3844 1172 3481 
z
" transform="scale(0.015625)"/>
       </defs>
       <use xlink:href="#DejaVuSans-32"/>
       <use xlink:href="#DejaVuSans-30" x="63.623047"/>
       <use xlink:href="#DejaVuSans-31" x="127.246094"/>
       <use xlink:href="#DejaVuSans-38" x="190.869141"/>
      </g>
     </g>
    </g>
    <g id="xtick_10">
     <g id="line2d_10">
      <g>
       <use xlink:href="#m2401909216" x="648.115041" y="327.558125" style="stroke: #000000; stroke-width: 0.8"/>
      </g>
     </g>
     <g id="text_10">
      <!-- 2019 -->
      <g transform="translate(635.390041 342.156563) scale(0.1 -0.1)">
       <defs>
        <path id="DejaVuSans-39" d="M 703 97 
L 703 672 
Q 941 559 1184 500 
Q 1428 441 1663 441 
Q 2288 441 2617 861 
Q 2947 1281 2994 2138 
Q 2813 1869 2534 1725 
Q 2256 1581 1919 1581 
Q 1219 1581 811 2004 
Q 403 2428 403 3163 
Q 403 3881 828 4315 
Q 1253 4750 1959 4750 
Q 2769 4750 3195 4129 
Q 3622 3509 3622 2328 
Q 3622 1225 3098 567 
Q 2575 -91 1691 -91 
Q 1453 -91 1209 -44 
Q 966 3 703 97 
z
M 1959 2075 
Q 2384 2075 2632 2365 
Q 2881 2656 2881 3163 
Q 2881 3666 2632 3958 
Q 2384 4250 1959 4250 
Q 1534 4250 1286 3958 
Q 1038 3666 1038 3163 
Q 1038 2656 1286 2365 
Q 1534 2075 1959 2075 
z
" transform="scale(0.015625)"/>
       </defs>
       <use xlink:href="#DejaVuSans-32"/>
       <use xlink:href="#DejaVuSans-30" x="63.623047"/>
       <use xlink:href="#DejaVuSans-31" x="127.246094"/>
       <use xlink:href="#DejaVuSans-39" x="190.869141"/>
      </g>
     </g>
    </g>
   </g>
   <g id="matplotlib.axis_2">
    <g id="ytick_1">
     <g id="line2d_11">
      <defs>
       <path id="m172dbe5041" d="M 0 0 
L -3.5 0 
" style="stroke: #000000; stroke-width: 0.8"/>
      </defs>
      <g>
       <use xlink:href="#m172dbe5041" x="39.65" y="313.565282" style="stroke: #000000; stroke-width: 0.8"/>
      </g>
     </g>
     <g id="text_11">
      <!-- 0 -->
      <g transform="translate(26.2875 317.3645) scale(0.1 -0.1)">
       <use xlink:href="#DejaVuSans-30"/>
      </g>
     </g>
    </g>
    <g id="ytick_2">
     <g id="line2d_12">
      <g>
       <use xlink:href="#m172dbe5041" x="39.65" y="277.717448" style="stroke: #000000; stroke-width: 0.8"/>
      </g>
     </g>
     <g id="text_12">
      <!-- 500 -->
      <g transform="translate(13.5625 281.516667) scale(0.1 -0.1)">
       <use xlink:href="#DejaVuSans-35"/>
       <use xlink:href="#DejaVuSans-30" x="63.623047"/>
       <use xlink:href="#DejaVuSans-30" x="127.246094"/>
      </g>
     </g>
    </g>
    <g id="ytick_3">
     <g id="line2d_13">
      <g>
       <use xlink:href="#m172dbe5041" x="39.65" y="241.869615" style="stroke: #000000; stroke-width: 0.8"/>
      </g>
     </g>
     <g id="text_13">
      <!-- 1000 -->
      <g transform="translate(7.2 245.668834) scale(0.1 -0.1)">
       <use xlink:href="#DejaVuSans-31"/>
       <use xlink:href="#DejaVuSans-30" x="63.623047"/>
       <use xlink:href="#DejaVuSans-30" x="127.246094"/>
       <use xlink:href="#DejaVuSans-30" x="190.869141"/>
      </g>
     </g>
    </g>
    <g id="ytick_4">
     <g id="line2d_14">
      <g>
       <use xlink:href="#m172dbe5041" x="39.65" y="206.021781" style="stroke: #000000; stroke-width: 0.8"/>
      </g>
     </g>
     <g id="text_14">
      <!-- 1500 -->
      <g transform="translate(7.2 209.821) scale(0.1 -0.1)">
       <use xlink:href="#DejaVuSans-31"/>
       <use xlink:href="#DejaVuSans-35" x="63.623047"/>
       <use xlink:href="#DejaVuSans-30" x="127.246094"/>
       <use xlink:href="#DejaVuSans-30" x="190.869141"/>
      </g>
     </g>
    </g>
    <g id="ytick_5">
     <g id="line2d_15">
      <g>
       <use xlink:href="#m172dbe5041" x="39.65" y="170.173948" style="stroke: #000000; stroke-width: 0.8"/>
      </g>
     </g>
     <g id="text_15">
      <!-- 2000 -->
      <g transform="translate(7.2 173.973167) scale(0.1 -0.1)">
       <use xlink:href="#DejaVuSans-32"/>
       <use xlink:href="#DejaVuSans-30" x="63.623047"/>
       <use xlink:href="#DejaVuSans-30" x="127.246094"/>
       <use xlink:href="#DejaVuSans-30" x="190.869141"/>
      </g>
     </g>
    </g>
    <g id="ytick_6">
     <g id="line2d_16">
      <g>
       <use xlink:href="#m172dbe5041" x="39.65" y="134.326114" style="stroke: #000000; stroke-width: 0.8"/>
      </g>
     </g>
     <g id="text_16">
      <!-- 2500 -->
      <g transform="translate(7.2 138.125333) scale(0.1 -0.1)">
       <use xlink:href="#DejaVuSans-32"/>
       <use xlink:href="#DejaVuSans-35" x="63.623047"/>
       <use xlink:href="#DejaVuSans-30" x="127.246094"/>
       <use xlink:href="#DejaVuSans-30" x="190.869141"/>
      </g>
     </g>
    </g>
    <g id="ytick_7">
     <g id="line2d_17">
      <g>
       <use xlink:href="#m172dbe5041" x="39.65" y="98.478281" style="stroke: #000000; stroke-width: 0.8"/>
      </g>
     </g>
     <g id="text_17">
      <!-- 3000 -->
      <g transform="translate(7.2 102.2775) scale(0.1 -0.1)">
       <use xlink:href="#DejaVuSans-33"/>
       <use xlink:href="#DejaVuSans-30" x="63.623047"/>
       <use xlink:href="#DejaVuSans-30" x="127.246094"/>
       <use xlink:href="#DejaVuSans-30" x="190.869141"/>
      </g>
     </g>
    </g>
    <g id="ytick_8">
     <g id="line2d_18">
      <g>
       <use xlink:href="#m172dbe5041" x="39.65" y="62.630448" style="stroke: #000000; stroke-width: 0.8"/>
      </g>
     </g>
     <g id="text_18">
      <!-- 3500 -->
      <g transform="translate(7.2 66.429666) scale(0.1 -0.1)">
       <use xlink:href="#DejaVuSans-33"/>
       <use xlink:href="#DejaVuSans-35" x="63.623047"/>
       <use xlink:href="#DejaVuSans-30" x="127.246094"/>
       <use xlink:href="#DejaVuSans-30" x="190.869141"/>
      </g>
     </g>
    </g>
    <g id="ytick_9">
     <g id="line2d_19">
      <g>
       <use xlink:href="#m172dbe5041" x="39.65" y="26.782614" style="stroke: #000000; stroke-width: 0.8"/>
      </g>
     </g>
     <g id="text_19">
      <!-- 4000 -->
      <g transform="translate(7.2 30.581833) scale(0.1 -0.1)">
       <use xlink:href="#DejaVuSans-34"/>
       <use xlink:href="#DejaVuSans-30" x="63.623047"/>
       <use xlink:href="#DejaVuSans-30" x="127.246094"/>
       <use xlink:href="#DejaVuSans-30" x="190.869141"/>
      </g>
     </g>
    </g>
   </g>
   <g id="line2d_20">
    <path d="M 69.927727 313.203219 
L 69.950693 313.224727 
L 70.019589 313.145862 
L 70.080831 313.167371 
L 70.103796 313.210388 
L 70.142072 313.253406 
L 70.195658 313.167371 
L 70.203313 313.167371 
L 70.302831 313.274914 
L 70.318141 313.282084 
L 70.371727 313.196049 
L 70.379382 313.196049 
L 70.455934 313.224727 
L 70.478899 313.253406 
L 70.74683 313.145862 
L 70.846348 313.167371 
L 70.854003 313.196049 
L 72.323795 313.296423 
L 72.385037 313.303593 
L 72.423313 313.253406 
L 72.767795 313.196049 
L 72.790761 313.081336 
L 72.859657 313.253406 
L 72.867312 313.253406 
L 72.874968 313.282084 
L 72.913243 313.224727 
L 72.98214 313.253406 
L 73.732347 313.332271 
L 73.793588 313.38425 
L 73.847174 313.33944 
L 73.88545 313.296423 
L 73.954347 313.353779 
L 73.977312 313.368119 
L 74.015588 313.310762 
L 74.046209 313.303593 
L 74.176346 313.267745 
L 74.306484 313.253406 
L 74.872967 313.353779 
L 74.911243 313.368119 
L 74.972484 313.310762 
L 80.017241 313.373496 
L 80.047862 313.502548 
L 80.132069 313.439814 
L 80.139724 313.418306 
L 80.216275 313.507925 
L 80.292827 313.446984 
L 80.300482 313.432645 
L 80.346413 313.418306 
L 80.392344 313.490001 
L 80.461241 313.446984 
L 80.476551 313.418306 
L 81.57124 313.310762 
L 81.76262 313.282084 
L 83.086964 313.196049 
L 83.094619 313.167371 
L 83.178826 313.224727 
L 83.201792 313.196049 
L 83.224757 313.032941 
L 83.240067 312.864457 
L 83.324274 313.138692 
L 83.530964 313.160201 
L 83.546274 305.659042 
L 83.58455 273.146849 
L 83.661102 293.400875 
L 83.860136 309.432026 
L 84.082136 312.371549 
L 84.288826 313.00964 
L 84.342412 312.988132 
L 84.395998 312.937945 
L 84.426619 312.81427 
L 84.495515 312.995301 
L 84.671584 313.167371 
L 84.977791 313.274914 
L 85.069653 313.253406 
L 85.084963 313.224727 
L 85.176825 313.317932 
L 85.184481 313.33944 
L 85.253377 313.253406 
L 85.261032 313.253406 
L 85.283998 313.196049 
L 85.337584 313.310762 
L 85.345239 313.310762 
L 85.398825 313.33944 
L 85.452411 313.282084 
L 87.741307 313.389627 
L 87.794893 313.389627 
L 87.833169 313.325101 
L 87.86379 313.282084 
L 87.909721 313.389627 
L 87.917376 313.389627 
L 88.169997 313.282084 
L 88.192962 313.047281 
L 88.200617 312.952284 
L 88.284824 313.210388 
L 88.376686 313.282084 
L 88.399652 313.246236 
L 88.552755 313.332271 
L 88.598686 313.282084 
L 94.776408 313.17454 
L 94.845305 313.138692 
L 94.891236 313.167371 
L 94.975443 313.196049 
L 95.006063 313.167371 
L 95.113236 313.063412 
L 95.205098 313.031149 
L 95.228063 312.231742 
L 95.31227 313.045488 
L 95.51896 313.253406 
L 95.564891 313.217558 
L 95.618477 306.790041 
L 95.717994 309.091472 
L 95.878753 311.647423 
L 95.924684 311.597236 
L 96.460546 312.988132 
L 96.682545 313.045488 
L 103.878405 313.01681 
L 103.939646 312.923605 
L 103.993233 312.937945 
L 104.115715 312.923605 
L 104.230543 312.923605 
L 106.060128 313.023979 
L 106.098404 313.045488 
L 106.174956 313.01681 
L 108.479162 312.937945 
L 108.532748 312.859079 
L 108.586334 312.952284 
L 109.642748 312.859079 
L 109.711644 312.651162 
L 109.76523 312.758705 
L 109.941299 312.923605 
L 111.212058 313.00964 
L 111.219713 313.038319 
L 111.250333 312.988132 
L 111.31923 312.988132 
L 117.098883 313.095675 
L 117.137159 313.045488 
L 117.244331 313.081336 
L 119.112193 313.18171 
L 119.119848 313.196049 
L 119.158124 313.138692 
L 119.21171 313.138692 
L 120.382951 313.045488 
L 120.482468 312.773045 
L 120.536054 312.887758 
L 120.712123 313.032941 
L 120.834606 312.952284 
L 120.849916 312.988132 
L 121.041295 313.01681 
L 121.270951 312.937945 
L 121.332192 312.952284 
L 121.293916 312.923605 
L 121.362813 312.887758 
L 122.090054 312.789176 
L 122.113019 312.758705 
L 122.189571 312.841155 
L 122.289088 312.758705 
L 122.312054 312.796346 
L 122.434536 312.859079 
L 122.442192 312.850117 
L 122.472812 312.823232 
L 122.511088 312.923605 
L 122.534054 312.914644 
L 122.740743 312.988132 
L 124.486122 312.914644 
L 124.493777 312.866249 
L 124.524398 312.923605 
L 124.593294 312.923605 
L 124.63157 312.988132 
L 124.669846 312.859079 
L 124.677501 312.859079 
L 124.945432 312.961246 
L 124.999018 313.01681 
L 125.029639 312.914644 
L 125.037294 312.89672 
L 125.09088 312.988132 
L 125.129156 312.952284 
L 125.328191 313.031149 
L 125.404742 312.952284 
L 125.443018 313.038319 
L 125.557846 313.045488 
L 125.565501 313.002471 
L 125.680328 312.952284 
L 125.687984 312.984547 
L 125.818121 313.081336 
L 129.109844 313.188879 
L 129.232327 313.160201 
L 129.377775 313.081336 
L 130.135637 313.18171 
L 130.227499 313.196049 
L 130.166258 313.138692 
L 130.242809 313.167371 
L 130.365292 313.145862 
L 130.418878 313.196049 
L 130.48012 313.138692 
L 131.505912 313.224727 
L 131.559499 313.253406 
L 131.62074 313.224727 
L 131.888671 313.325101 
L 131.980533 313.310762 
L 131.934602 313.289253 
L 131.988188 313.282084 
L 133.006326 313.188879 
L 133.113498 313.110014 
L 133.136464 313.138692 
L 134.361291 313.239066 
L 134.399567 313.196049 
L 134.468463 313.224727 
L 134.606256 313.167371 
L 134.629222 313.224727 
L 135.149773 313.117184 
L 135.272256 313.110014 
L 135.287566 313.138692 
L 136.481773 313.045488 
L 136.611911 312.988132 
L 138.058738 313.022187 
L 138.16591 313.167371 
L 138.173565 313.138692 
L 138.785979 313.045488 
L 138.908462 313.00964 
L 139.076875 313.01681 
L 139.184048 313.045488 
L 139.30653 313.110014 
L 139.398392 313.210388 
L 139.421358 313.224727 
L 139.459634 313.17454 
L 139.49791 313.167371 
L 141.955219 313.267745 
L 141.993495 313.282084 
L 142.024116 313.224727 
L 142.047081 313.224727 
L 142.246116 313.17454 
L 142.330322 313.253406 
L 142.376253 313.224727 
L 142.452805 313.196049 
L 142.483426 313.253406 
L 142.529357 313.282084 
L 142.582943 313.224727 
L 142.713081 313.253406 
L 143.58577 313.353779 
L 143.647012 313.368119 
L 143.685288 313.310762 
L 143.715908 313.282084 
L 143.77715 313.38425 
L 143.823081 313.368119 
L 143.838391 313.325101 
L 143.914943 313.260575 
L 143.945563 313.325101 
L 143.983839 313.368119 
L 144.04508 313.282084 
L 145.300528 313.274914 
L 145.331149 312.482677 
L 145.415356 313.196049 
L 145.461287 313.253406 
L 145.530183 313.231897 
L 145.660321 313.33944 
L 145.675632 313.310762 
L 145.744528 313.253406 
L 145.80577 313.33944 
L 145.844045 313.33944 
L 145.882321 313.267745 
L 145.997149 313.282084 
L 146.441149 313.188879 
L 146.471769 313.110014 
L 146.540666 313.239066 
L 146.670804 313.253406 
L 146.885148 313.34661 
L 146.931079 313.368119 
L 146.97701 313.274914 
L 147.030597 313.196049 
L 147.068873 313.317932 
L 147.076528 313.33944 
L 147.153079 313.253406 
L 147.160735 313.253406 
L 147.635355 313.33944 
L 147.658321 313.368119 
L 147.727217 313.282084 
L 147.750183 313.253406 
L 147.803769 313.368119 
L 150.483078 313.274914 
L 150.513699 313.253406 
L 150.567285 313.33944 
L 150.620871 313.368119 
L 150.666802 313.303593 
L 150.735699 313.38425 
L 150.812251 313.497171 
L 150.850526 313.432645 
L 150.973009 313.468493 
L 151.03425 313.368119 
L 151.057216 313.310762 
L 151.126112 313.446984 
L 151.93756 313.33944 
L 151.983491 313.310762 
L 152.029423 313.378873 
L 152.052388 313.411136 
L 152.12894 313.325101 
L 152.15956 313.282084 
L 152.228457 313.368119 
L 152.305009 313.274914 
L 152.335629 313.203219 
L 152.396871 313.310762 
L 152.404526 313.310762 
L 152.488733 313.210388 
L 152.534664 313.153032 
L 152.595905 313.217558 
L 152.60356 313.239066 
L 152.680112 313.124353 
L 152.703077 313.110014 
L 152.749008 313.196049 
L 152.802595 313.33944 
L 152.856181 313.196049 
L 152.909767 313.167371 
L 152.940388 313.274914 
L 152.948043 313.253406 
L 152.986319 313.282084 
L 153.03225 313.196049 
L 153.039905 313.17454 
L 153.055215 313.231897 
L 153.116457 313.253406 
L 153.223629 313.468493 
L 153.26956 313.360949 
L 153.346112 313.373496 
L 153.369077 313.418306 
L 153.767146 313.310762 
L 153.805422 313.260575 
L 153.866663 313.368119 
L 153.958525 313.38425 
L 153.989146 313.332271 
L 154.004456 313.317932 
L 154.050387 313.389627 
L 154.058042 313.389627 
L 154.088663 313.452361 
L 154.15756 313.360949 
L 154.195836 313.33944 
L 154.241767 313.418306 
L 154.249422 313.418306 
L 154.448456 313.502548 
L 154.471422 313.475662 
L 154.517353 313.378873 
L 154.540318 313.33944 
L 154.60156 313.475662 
L 154.639835 313.502548 
L 154.685766 313.411136 
L 154.731697 313.373496 
L 154.777628 313.457738 
L 154.808249 313.468493 
L 154.86949 313.418306 
L 154.915421 313.368119 
L 154.969008 313.463115 
L 155.099146 313.396797 
L 155.137421 313.468493 
L 155.183352 313.51868 
L 155.244594 313.463115 
L 155.31349 313.418306 
L 155.344111 313.502548 
L 155.627352 313.403966 
L 155.673283 313.389627 
L 155.703904 313.482832 
L 155.726869 313.51868 
L 155.788111 313.446984 
L 155.795766 313.446984 
L 155.826387 313.389627 
L 155.887628 313.497171 
L 155.97949 313.475662 
L 155.9948 313.463115 
L 156.040731 313.396797 
L 156.079007 313.490001 
L 156.101973 313.468493 
L 156.2168 313.33944 
L 156.247421 313.411136 
L 156.278042 313.490001 
L 156.354593 313.418306 
L 156.377559 313.360949 
L 156.4388 313.502548 
L 156.477076 313.525849 
L 156.538317 313.463115 
L 156.591904 313.389627 
L 156.668455 313.463115 
L 156.691421 313.500756 
L 157.127766 313.303593 
L 157.150731 313.360949 
L 157.196662 313.475662 
L 157.273214 313.378873 
L 157.303834 313.34661 
L 157.349765 313.468493 
L 157.372731 313.507925 
L 157.433972 313.389627 
L 157.502869 313.310762 
L 157.541145 313.425475 
L 157.5488 313.439814 
L 157.617696 313.34661 
L 157.671283 313.282084 
L 157.709558 313.38425 
L 157.732524 313.418306 
L 157.80142 313.332271 
L 157.885627 313.353779 
L 157.893283 313.389627 
L 157.923903 313.482832 
L 157.977489 313.33944 
L 157.9928 313.33944 
L 159.500868 313.239066 
L 159.523834 313.224727 
L 159.569765 313.310762 
L 159.585075 313.310762 
L 160.947695 313.203219 
L 161.008937 313.17454 
L 161.062523 313.246236 
L 164.270039 313.138692 
L 164.323625 313.153032 
L 164.361901 313.196049 
L 164.461418 313.138692 
L 165.448935 313.231897 
L 165.533142 313.253406 
L 165.479556 313.224727 
L 165.556107 313.231897 
L 165.67859 313.224727 
L 165.6939 313.253406 
L 165.716866 313.210388 
L 165.9159 313.310762 
L 165.969487 313.289253 
L 166.000107 313.34661 
L 166.023073 313.33944 
L 167.110107 313.303593 
L 167.125417 313.196049 
L 167.224934 313.253406 
L 167.332107 313.196049 
L 167.355072 313.217558 
L 167.393348 313.231897 
L 167.401003 313.282084 
L 167.416314 313.33944 
L 167.454589 313.246236 
L 167.508176 313.260575 
L 167.538796 313.274914 
L 167.546452 313.246236 
L 167.561762 313.145862 
L 167.661279 313.18171 
L 167.676589 313.167371 
L 167.714865 313.217558 
L 167.760796 313.224727 
L 167.967486 313.124353 
L 167.982796 312.977377 
L 168.067003 313.260575 
L 168.258382 313.310762 
L 168.411486 313.153032 
L 168.426796 313.167371 
L 171.136726 313.088506 
L 171.220933 313.01681 
L 171.259209 313.045488 
L 172.177829 313.145862 
L 172.19314 313.167371 
L 172.277346 313.110014 
L 173.150036 313.00964 
L 173.188312 312.988132 
L 173.249553 313.045488 
L 174.053346 313.138692 
L 174.091622 313.167371 
L 174.168173 313.138692 
L 180.192792 313.045488 
L 180.261688 313.00964 
L 180.307619 313.045488 
L 181.662584 312.952284 
L 181.716171 312.905682 
L 181.754447 313.002471 
L 181.762102 313.01681 
L 181.785067 312.930775 
L 181.830998 312.937945 
L 181.90755 312.923605 
L 181.938171 312.952284 
L 182.160171 313.045488 
L 182.856791 313.153032 
L 182.879756 313.167371 
L 182.925687 313.110014 
L 182.940998 313.110014 
L 182.994584 313.081336 
L 183.040515 313.138692 
L 183.04817 313.124353 
L 184.877756 313.231897 
L 184.916032 313.253406 
L 184.954307 313.196049 
L 184.977273 313.196049 
L 185.5361 313.088506 
L 185.704514 313.045488 
L 185.712169 313.063412 
L 185.819342 313.110014 
L 185.834652 313.081336 
L 188.123548 312.988132 
L 188.146513 312.923605 
L 188.23072 312.988132 
L 188.781892 312.880588 
L 188.88141 312.832194 
L 188.904375 312.859079 
L 189.807685 312.952284 
L 189.876582 312.988132 
L 189.922513 312.952284 
L 191.170305 312.859079 
L 191.193271 312.823232 
L 191.262167 312.887758 
L 191.277478 312.887758 
L 191.897546 312.787384 
L 191.935822 312.765875 
L 191.989408 312.850117 
L 192.142512 312.859079 
L 192.532925 312.780214 
L 192.594167 312.371549 
L 192.655408 312.581259 
L 192.808512 312.787384 
L 193.681201 312.887758 
L 193.711822 312.923605 
L 193.750097 312.823232 
L 193.788373 312.859079 
L 194.944304 312.961246 
L 194.951959 312.988132 
L 195.020856 312.848325 
L 195.043821 312.823232 
L 195.059132 312.887758 
L 195.120373 312.887758 
L 195.173959 312.937945 
L 195.2352 312.887758 
L 195.495476 312.995301 
L 195.633269 312.97917 
L 195.794028 312.952284 
L 195.939476 312.988132 
L 195.947131 312.961246 
L 195.977752 312.988132 
L 196.069614 312.988132 
L 196.230372 312.995301 
L 196.414097 312.952284 
L 196.421752 312.961246 
L 196.460028 313.01681 
L 196.513614 312.930775 
L 196.528924 312.952284 
L 197.0112 313.045488 
L 197.02651 313.063412 
L 197.049476 312.986339 
L 197.110717 313.00964 
L 199.629268 312.916436 
L 199.713475 312.887758 
L 199.73644 312.945114 
L 200.088578 313.052658 
L 200.142164 313.131523 
L 200.211061 313.052658 
L 200.394785 313.093883 
L 200.517268 313.059827 
L 201.420578 313.167371 
L 201.550715 313.138692 
L 203.043474 313.031149 
L 203.11237 313.031149 
L 203.135336 313.088506 
L 203.357335 313.117184 
L 203.55637 313.059827 
L 203.564025 313.074166 
L 203.655887 313.088506 
L 203.678853 313.059827 
L 203.79368 313.045488 
L 203.717128 313.088506 
L 203.801335 313.052658 
L 203.946784 313.059827 
L 204.061611 313.038319 
L 204.23768 313.059827 
L 204.352508 313.002471 
L 204.360163 313.023979 
L 204.429059 313.059827 
L 204.467335 313.00964 
L 204.520921 313.117184 
L 204.559197 313.167371 
L 204.566852 313.059827 
L 204.612783 313.059827 
L 204.628094 313.038319 
L 204.674025 313.138692 
L 204.689335 313.138692 
L 204.788852 313.217558 
L 204.796507 313.201426 
L 204.880714 313.038319 
L 204.91899 313.045488 
L 205.049128 313.031149 
L 205.102714 313.002471 
L 205.1563 313.059827 
L 205.753404 312.973792 
L 205.776369 312.902097 
L 205.83761 313.01681 
L 205.845266 313.01681 
L 205.960093 313.059827 
L 205.967748 313.052658 
L 206.013679 313.09926 
L 206.090231 313.052658 
L 206.182093 313.066997 
L 206.113197 313.088506 
L 206.205059 313.093883 
L 206.4883 313.312554 
L 206.580162 313.167371 
L 206.649058 313.217558 
L 207.682506 313.325101 
L 207.804989 313.418306 
L 207.812644 313.382458 
L 207.85092 313.389627 
L 207.881541 313.468493 
L 208.203058 313.382458 
L 208.248989 313.317932 
L 208.31023 313.382458 
L 208.440368 313.396797 
L 208.731265 313.296423 
L 208.777196 313.246236 
L 208.838437 313.296423 
L 208.846092 313.312554 
L 208.861403 313.217558 
L 208.922644 313.217558 
L 209.068092 313.224727 
L 209.190575 313.296423 
L 209.19823 313.282084 
L 209.297747 313.25699 
L 209.313058 313.267745 
L 209.381954 313.325101 
L 209.427885 313.296423 
L 209.489126 313.167371 
L 209.542713 313.289253 
L 209.626919 313.246236 
L 209.634575 313.231897 
L 209.67285 313.167371 
L 209.741747 313.246236 
L 209.871885 313.196049 
L 209.902506 313.246236 
L 211.00485 313.34661 
L 211.127333 313.34661 
L 211.647884 313.454153 
L 211.68616 313.418306 
L 211.793333 313.500756 
L 212.084229 313.418306 
L 212.229677 313.434437 
L 212.306229 313.446984 
L 212.267953 313.468493 
L 212.329194 313.468493 
L 212.543539 313.368119 
L 212.650712 313.34661 
L 212.673677 313.368119 
L 214.020987 313.274914 
L 214.112849 313.231897 
L 214.14347 313.246236 
L 214.265952 313.212181 
L 214.36547 313.059827 
L 214.411401 313.145862 
L 214.579814 313.289253 
L 214.8554 313.396797 
L 215.085055 313.423683 
L 215.253469 313.439814 
L 215.582642 313.377081 
L 215.689814 313.138692 
L 215.720435 313.167371 
L 215.796986 313.246236 
L 215.819952 313.131523 
L 215.835262 313.160201 
L 216.218021 313.267745 
L 216.363469 313.34661 
L 217.0754 313.269537 
L 217.167262 313.124353 
L 217.197882 313.167371 
L 217.31271 313.21935 
L 217.320365 313.196049 
L 219.417882 313.296423 
L 219.570985 313.325101 
L 219.762364 313.296423 
L 220.02264 313.396797 
L 220.129812 313.368119 
L 220.298226 313.389627 
L 220.344157 313.407551 
L 220.443674 313.296423 
L 220.573812 313.34661 
L 220.834088 313.296423 
L 220.864709 311.181401 
L 220.964226 312.945114 
L 221.124984 313.196049 
L 221.186226 312.816062 
L 221.247467 313.117184 
L 221.301053 313.212181 
L 221.36995 313.153032 
L 221.546019 313.196049 
L 221.553674 313.17454 
L 221.614915 313.088506 
L 221.668501 313.138692 
L 221.775674 313.246236 
L 221.81395 313.267745 
L 221.859881 313.246236 
L 221.974708 309.116566 
L 221.990019 309.837107 
L 222.143122 312.756913 
L 222.411053 313.066997 
L 222.548846 313.088506 
L 223.528708 313.031149 
L 223.544018 312.747951 
L 223.628225 313.081336 
L 223.63588 313.066997 
L 223.674156 312.860872 
L 223.750708 313.01681 
L 223.796639 313.088506 
L 223.85788 313.066997 
L 223.880845 313.088506 
L 223.911466 313.002471 
L 223.942087 312.995301 
L 223.949742 312.973792 
L 224.033949 313.059827 
L 224.156432 312.959453 
L 224.225328 312.85191 
L 224.278914 312.923605 
L 224.355466 313.023979 
L 224.409052 312.973792 
L 224.432018 312.914644 
L 224.447328 312.224573 
L 224.53919 312.916436 
L 224.699949 313.01681 
L 224.707604 313.002471 
L 225.18988 312.902097 
L 225.312362 312.85191 
L 225.327673 312.860872 
L 225.480776 313.002471 
L 225.603259 313.002471 
L 225.764017 313.002471 
L 226.544845 313.110014 
L 226.705603 313.110014 
L 227.532361 313.217558 
L 227.654844 313.246236 
L 230.188705 313.138692 
L 230.364774 313.117184 
L 230.510222 313.196049 
L 230.686291 313.088506 
L 233.679463 312.988132 
L 233.79429 313.002471 
L 238.708909 313.110014 
L 238.930909 313.167371 
L 239.045737 313.145862 
L 239.068702 313.18171 
L 239.091668 313.196049 
L 239.168219 313.138692 
L 242.314494 313.038319 
L 242.36808 312.860872 
L 242.444632 312.980962 
L 242.57477 313.031149 
L 242.658977 312.945114 
L 242.697253 312.980962 
L 242.804425 313.031149 
L 242.827391 313.002471 
L 250.199319 312.937945 
L 250.337112 312.436075 
L 250.352422 312.471923 
L 250.390698 312.572297 
L 250.589733 312.837571 
L 250.612698 312.823232 
L 250.804077 312.930775 
L 250.949526 312.973792 
L 253.536973 313.066997 
L 253.628835 313.138692 
L 253.667111 313.110014 
L 254.06518 313.00964 
L 254.126421 312.973792 
L 254.172352 313.031149 
L 254.815386 312.923605 
L 254.991455 312.909266 
L 255.098628 312.966623 
L 255.129248 312.887758 
L 255.634489 312.995301 
L 255.726352 313.002471 
L 255.741662 312.966623 
L 255.894765 312.85191 
L 257.517661 312.952284 
L 257.670765 313.088506 
L 257.67842 313.074166 
L 257.686075 313.059827 
L 257.716696 313.110014 
L 257.777937 313.110014 
L 257.862144 313.138692 
L 257.885109 313.088506 
L 258.260213 313.196049 
L 258.329109 313.196049 
L 258.34442 313.160201 
L 258.352075 313.167371 
L 258.413316 313.110014 
L 258.466902 313.167371 
L 259.913729 313.267745 
L 260.036212 313.34661 
L 261.705039 313.239066 
L 261.819867 313.246236 
L 261.934694 313.246236 
L 261.942349 313.231897 
L 262.087798 313.167371 
L 262.095453 313.17454 
L 262.409315 313.325101 
L 262.455246 313.292838 
L 262.524142 313.368119 
L 266.849313 313.267745 
L 266.895244 313.217558 
L 266.956486 313.296423 
L 267.017727 313.317932 
L 267.056003 313.251613 
L 267.147865 313.282084 
L 267.201451 313.34661 
L 267.262692 313.3018 
L 268.525795 313.196049 
L 268.648278 313.167371 
L 268.655933 313.18171 
L 268.72483 313.212181 
L 268.770761 313.167371 
L 269.498002 313.274914 
L 269.697036 313.418306 
L 271.151519 313.350195 
L 271.274001 313.231897 
L 271.358208 313.138692 
L 271.404139 313.217558 
L 271.610829 313.317932 
L 271.748622 313.34661 
L 272.299794 313.439814 
L 272.406966 313.434437 
L 272.498828 313.418306 
L 272.514139 313.454153 
L 272.529449 313.484624 
L 272.606001 313.396797 
L 273.945655 313.294631 
L 273.953311 313.138692 
L 274.022207 313.396797 
L 274.052828 313.375288 
L 274.091104 313.317932 
L 274.198276 313.423683 
L 276.64793 313.355572 
L 276.693861 313.239066 
L 276.762758 313.274914 
L 276.823999 313.317932 
L 276.86993 313.262368 
L 277.199103 313.42906 
L 277.214413 313.382458 
L 277.252689 313.34661 
L 277.283309 313.439814 
L 277.306275 313.439814 
L 279.434412 313.34661 
L 279.449722 313.317932 
L 279.533929 313.389627 
L 279.556895 313.407551 
L 279.618136 313.317932 
L 280.02386 313.217558 
L 280.031515 313.196049 
L 280.115722 313.267745 
L 280.123377 313.267745 
L 280.26117 313.377678 
L 280.291791 313.407551 
L 280.368343 313.34661 
L 280.827653 313.251613 
L 280.934825 313.217558 
L 280.942481 313.231897 
L 280.980756 313.282084 
L 281.003722 313.160201 
L 281.034343 312.887758 
L 281.110894 313.160201 
L 281.401791 313.296423 
L 281.463032 313.167371 
L 281.516618 313.274914 
L 281.547239 313.34661 
L 281.623791 313.246236 
L 281.761584 313.217558 
L 281.769239 312.937945 
L 281.784549 297.881855 
L 281.876411 312.708518 
L 282.044825 313.196049 
L 282.27448 313.296423 
L 282.404618 313.33944 
L 282.465859 313.368119 
L 282.534756 313.296423 
L 282.687859 313.300008 
L 282.70317 312.832194 
L 282.795032 313.332271 
L 282.848618 313.418306 
L 282.871583 313.300008 
L 282.917514 311.763928 
L 283.001721 312.794553 
L 283.16248 313.307177 
L 283.392135 313.448776 
L 283.4151 312.803515 
L 283.468687 311.633083 
L 283.522273 312.862664 
L 283.545238 313.059827 
L 283.552893 312.97917 
L 283.575859 307.745386 
L 283.667721 311.991562 
L 283.851445 313.002471 
L 283.958617 313.267745 
L 283.996893 313.217558 
L 284.019859 144.273888 
L 284.119376 282.849663 
L 284.172962 286.016222 
L 284.448548 310.018139 
L 284.670548 312.330324 
L 284.907858 312.84474 
L 284.923169 312.837571 
L 285.214065 312.945114 
L 285.298272 312.966623 
L 285.328893 312.945114 
L 285.436065 313.045488 
L 285.459031 313.059827 
L 285.512617 312.973792 
L 285.520272 312.973792 
L 285.795858 313.081336 
L 285.834134 313.088506 
L 285.88772 313.023979 
L 285.925996 313.031149 
L 285.971927 313.088506 
L 286.010203 313.110014 
L 286.071444 313.059827 
L 286.09441 313.002471 
L 286.163306 313.117184 
L 286.209237 313.131523 
L 286.270479 313.088506 
L 286.745099 313.196049 
L 286.951789 313.212181 
L 287.005375 313.110014 
L 287.074272 313.196049 
L 287.104892 313.217558 
L 287.158478 313.138692 
L 287.166134 313.138692 
L 287.985237 313.154824 
L 288.000547 311.516578 
L 288.092409 313.052658 
L 288.222547 313.167371 
L 288.291444 313.088506 
L 289.370822 312.995301 
L 289.401443 312.68701 
L 289.493305 312.945114 
L 289.562202 313.088506 
L 289.585167 312.907474 
L 289.623443 312.629653 
L 289.699995 312.823232 
L 289.814822 313.031149 
L 289.822477 313.002471 
L 289.899029 312.000524 
L 289.914339 298.276181 
L 290.021512 303.760899 
L 290.090408 309.887294 
L 290.18227 309.871162 
L 290.343029 312.154669 
L 290.40427 312.367964 
L 290.411926 312.409189 
L 290.419581 312.35004 
L 290.457857 301.10816 
L 290.549719 305.141041 
L 290.59565 304.316541 
L 291.024339 312.887758 
L 291.27696 313.138692 
L 291.491304 313.081336 
L 291.629098 313.124353 
L 291.636753 313.104637 
L 291.652063 313.031149 
L 291.743925 313.110014 
L 292.226201 313.110014 
L 292.333373 309.662887 
L 292.371649 311.027255 
L 292.532408 312.830401 
L 292.739097 313.088506 
L 293.328545 313.196049 
L 293.550545 313.217558 
L 298.72544 313.110014 
L 298.733095 313.09926 
L 298.786681 313.188879 
L 298.832612 313.282084 
L 298.916819 313.224727 
L 299.062267 313.217558 
L 299.177095 313.267745 
L 299.192405 313.25699 
L 299.322543 313.239066 
L 299.445026 313.267745 
L 303.280266 313.160201 
L 303.402749 313.196049 
L 305.431369 313.088506 
L 305.599782 313.038319 
L 305.615093 313.059827 
L 305.752886 313.167371 
L 306.349989 313.267745 
L 306.457161 313.267745 
L 306.464816 313.25699 
L 306.587299 313.224727 
L 306.602609 313.246236 
L 314.686469 313.145862 
L 314.740055 313.138692 
L 314.778331 313.188879 
L 314.877848 313.131523 
L 315.046262 313.110014 
L 315.161089 313.167371 
L 315.184055 313.138692 
L 319.593432 313.031149 
L 319.69295 312.973792 
L 319.731226 313.045488 
L 319.823088 313.088506 
L 319.846053 313.052658 
L 319.907294 313.002471 
L 319.953225 313.081336 
L 320.083363 313.088506 
L 320.091019 313.059827 
L 322.127294 313.167371 
L 322.142604 313.196049 
L 322.19619 313.138692 
L 322.242121 313.167371 
L 323.956879 313.267745 
L 323.97219 313.289253 
L 324.025776 313.217558 
L 324.056396 313.217558 
L 335.569772 313.325101 
L 335.585082 313.34661 
L 335.661634 313.274914 
L 335.669289 313.296423 
L 335.707565 313.267745 
L 335.768806 313.34661 
L 340.890115 313.439814 
L 340.92839 313.479247 
L 340.989632 313.412928 
L 341.050873 313.368119 
L 341.096804 313.439814 
L 341.11977 313.468493 
L 341.188666 313.396797 
L 341.242252 313.368119 
L 341.280528 313.439814 
L 341.288183 313.439814 
L 343.156045 313.382458 
L 343.17901 313.296423 
L 343.255562 313.395004 
L 343.339769 313.51151 
L 343.378045 313.439814 
L 343.477562 313.538396 
L 343.500528 313.554527 
L 343.561769 313.468493 
L 343.62301 313.418306 
L 343.668941 313.495378 
L 343.691907 313.51151 
L 343.753148 313.42906 
L 343.822045 313.423683 
L 343.84501 313.468493 
L 343.890941 313.490001 
L 343.936872 313.42906 
L 343.982803 313.396797 
L 344.028734 313.490001 
L 344.06701 313.51151 
L 344.112941 313.439814 
L 344.158872 313.396797 
L 344.212458 313.479247 
L 344.258389 313.51151 
L 344.311976 313.42906 
L 344.342596 313.396797 
L 344.388527 313.500756 
L 344.426803 313.533019 
L 344.480389 313.439814 
L 344.52632 313.396797 
L 344.579906 313.490001 
L 344.618182 313.51151 
L 344.671768 313.439814 
L 344.73301 313.418306 
L 344.771286 313.500756 
L 344.809562 313.51151 
L 344.863148 313.439814 
L 344.886113 313.402174 
L 344.95501 313.51151 
L 345.062182 313.418306 
L 345.077492 313.396797 
L 345.138734 313.490001 
L 345.154044 313.490001 
L 347.060181 313.389627 
L 347.113768 313.368119 
L 347.152043 313.439814 
L 347.159699 313.439814 
L 348.438112 313.418306 
L 348.55294 312.074012 
L 348.591215 312.694179 
L 348.774939 313.217558 
L 348.882112 313.317932 
L 348.920388 313.296423 
L 348.996939 313.396797 
L 349.04287 313.412928 
L 349.088801 313.34661 
L 349.127077 313.317932 
L 349.173008 313.418306 
L 349.45625 313.317932 
L 349.494525 313.296423 
L 349.532801 313.368119 
L 349.586387 313.418306 
L 349.639974 313.34661 
L 349.670594 313.317932 
L 349.724181 313.402174 
L 349.762456 313.439814 
L 349.816043 313.357364 
L 349.854318 313.317932 
L 349.907905 313.407551 
L 349.938525 313.439814 
L 349.999767 313.357364 
L 350.038042 313.317932 
L 350.091629 313.418306 
L 350.887766 313.439814 
L 350.903077 311.02367 
L 350.994939 313.325101 
L 351.010249 313.351987 
L 351.017904 313.312554 
L 351.033215 305.427824 
L 351.125077 313.196049 
L 351.255214 313.418306 
L 351.301145 313.368119 
L 351.393008 313.47387 
L 351.438939 313.468493 
L 351.469559 313.396797 
L 351.576732 313.294631 
L 351.592042 311.260266 
L 351.599697 304.90803 
L 351.699214 312.966623 
L 351.821697 313.296423 
L 351.844663 313.246236 
L 352.081973 313.188879 
L 352.120249 312.923605 
L 352.189145 313.217558 
L 352.219766 313.126146 
L 352.242731 312.837571 
L 352.326938 313.081336 
L 352.510662 313.34661 
L 353.214938 313.446984 
L 353.237903 313.484624 
L 353.3068 313.396797 
L 353.352731 313.368119 
L 353.391007 313.461323 
L 353.436938 313.461323 
L 353.482869 313.396797 
L 353.521145 313.351987 
L 353.582386 313.423683 
L 353.597696 313.439814 
L 353.658938 313.34661 
L 353.666593 313.34661 
L 353.812041 313.289253 
L 353.827351 312.665501 
L 353.842662 311.211871 
L 353.934524 312.041749 
L 354.095282 312.973792 
L 354.585213 313.296423 
L 354.615834 313.267745 
L 354.66942 313.368119 
L 354.723006 313.396797 
L 354.761282 313.317932 
L 354.768937 313.317932 
L 354.822524 313.296423 
L 354.853144 313.389627 
L 354.883765 313.396797 
L 354.899075 313.312554 
L 354.937351 313.317932 
L 355.021558 313.167371 
L 355.044523 302.542073 
L 355.052179 265.941435 
L 355.151696 308.928364 
L 355.304799 312.615314 
L 355.603351 313.138692 
L 356.139213 313.246236 
L 356.146868 313.262368 
L 356.200454 313.196049 
L 356.231075 313.196049 
L 356.330592 313.197841 
L 356.453075 311.174231 
L 356.47604 312.480885 
L 356.506661 312.816062 
L 356.560247 312.139733 
L 356.567902 312.215611 
L 356.759281 313.088506 
L 357.042523 313.196049 
L 357.096109 313.246236 
L 357.165005 313.196049 
L 357.180316 313.167371 
L 357.249212 313.246236 
L 357.256868 313.246236 
L 357.295143 313.267745 
L 357.341074 313.196049 
L 357.356385 313.196049 
L 358.818522 313.088506 
L 358.841488 313.059827 
L 358.887419 313.17454 
L 358.956315 313.267745 
L 359.009901 313.246236 
L 359.071143 313.217558 
L 359.117074 313.267745 
L 360.234729 313.191269 
L 360.265349 311.808738 
L 360.349556 313.074166 
L 360.540935 313.267745 
L 361.696866 313.368119 
L 361.712176 313.396797 
L 361.804038 313.34661 
L 362.209762 313.33944 
L 362.248038 312.074012 
L 362.316935 313.267745 
L 362.937003 313.368119 
L 363.0059 313.396797 
L 363.059486 313.368119 
L 364.483348 313.326894 
L 364.506313 311.676101 
L 364.60583 312.773045 
L 364.79721 313.246236 
L 365.088106 313.34661 
L 365.233554 313.368119 
L 368.509967 313.267745 
L 368.640105 313.267745 
L 370.890725 313.167371 
L 370.91369 313.138692 
L 370.997897 313.17454 
L 371.151001 313.167371 
L 374.480999 313.059827 
L 374.710654 312.823232 
L 374.756585 312.945114 
L 375.070447 313.088506 
L 382.013686 313.002471 
L 382.090238 312.945114 
L 382.128514 313.002471 
L 385.205892 312.916436 
L 385.267134 312.887758 
L 385.313065 312.945114 
L 390.610442 312.853702 
L 390.717614 312.599183 
L 390.75589 312.645785 
L 390.824787 312.765875 
L 390.855407 312.636823 
L 390.916649 312.536449 
L 390.970235 312.636823 
L 391.000856 312.672671 
L 391.008511 312.430698 
L 391.039131 275.594744 
L 391.123338 294.266345 
L 391.291752 309.838899 
L 391.62858 312.823232 
L 391.705131 312.923605 
L 391.888855 313.038319 
L 392.409407 313.145862 
L 392.570165 313.145862 
L 394.598785 313.246236 
L 394.713613 313.246236 
L 402.292231 313.34661 
L 402.315196 313.368119 
L 402.391748 313.3018 
L 403.731403 313.396797 
L 403.784989 313.439814 
L 403.838575 313.368119 
L 406.471954 313.446984 
L 406.548505 313.51151 
L 406.586781 313.468493 
L 410.552159 313.576036 
L 410.58278 313.565282 
L 410.621056 313.495378 
L 410.666987 313.439814 
L 410.720573 313.54915 
L 410.758849 313.597545 
L 410.812435 313.500756 
L 410.873676 313.47387 
L 410.904297 313.533019 
L 410.934918 313.597545 
L 411.003814 313.490001 
L 413.882158 313.396797 
L 413.95871 313.34661 
L 413.996985 313.389627 
L 414.088848 313.468493 
L 414.127123 313.412928 
L 414.18071 313.396797 
L 414.218985 313.468493 
L 415.887812 313.576036 
L 415.910778 313.576036 
L 415.956709 313.495378 
L 416.010295 313.468493 
L 416.048571 313.54915 
L 416.094502 313.576036 
L 416.140433 313.490001 
L 416.247605 313.205011 
L 416.255261 313.110014 
L 416.347123 313.282084 
L 416.47726 313.439814 
L 416.515536 313.418306 
L 416.798778 313.516887 
L 416.829398 313.554527 
L 416.882984 313.461323 
L 416.936571 313.439814 
L 416.974846 313.527641 
L 417.066709 313.468493 
L 417.089674 313.439814 
L 417.150915 313.543773 
L 417.196846 313.570659 
L 417.242777 313.490001 
L 417.281053 313.439814 
L 417.342295 313.533019 
L 417.372915 313.576036 
L 417.434157 313.468493 
L 417.533674 313.576036 
L 417.556639 313.597545 
L 417.60257 313.51151 
L 417.656157 313.468493 
L 417.702088 313.559905 
L 417.748019 313.597545 
L 417.79395 313.500756 
L 417.839881 313.468493 
L 417.878157 313.543773 
L 417.931743 313.597545 
L 417.977674 313.51151 
L 418.008294 313.468493 
L 418.069536 313.554527 
L 418.115467 313.597545 
L 418.169053 313.506133 
L 418.214984 313.490001 
L 418.25326 313.554527 
L 418.299191 313.576036 
L 418.337467 313.51151 
L 418.345122 313.51151 
L 418.398708 313.468493 
L 418.452294 313.533019 
L 418.590087 313.479247 
L 418.620708 313.533019 
L 418.674294 313.554527 
L 418.71257 313.490001 
L 418.773811 313.439814 
L 418.812087 313.516887 
L 418.842708 313.554527 
L 418.911604 313.468493 
L 419.194846 313.576036 
L 419.210156 313.597545 
L 419.271397 313.490001 
L 419.279053 313.490001 
L 419.309673 313.468493 
L 419.355604 313.559905 
L 419.401535 313.597545 
L 419.447466 313.51151 
L 419.501052 313.47387 
L 419.539328 313.570659 
L 419.585259 313.597545 
L 419.623535 313.51151 
L 419.63119 313.51151 
L 419.661811 313.468493 
L 419.723052 313.554527 
L 419.730708 313.554527 
L 419.814914 313.479247 
L 419.860845 313.439814 
L 419.899121 313.522264 
L 419.952708 313.576036 
L 419.998639 313.495378 
L 420.067535 313.494303 
L 420.098156 313.559905 
L 420.128776 313.597545 
L 420.182363 313.506133 
L 420.266569 313.446984 
L 420.3125 313.490001 
L 420.603397 313.430852 
L 420.611052 312.891342 
L 420.710569 313.418306 
L 420.779466 313.34661 
L 420.787121 313.3018 
L 420.871328 313.461323 
L 421.062707 313.527641 
L 421.070362 313.500756 
L 421.169879 313.423683 
L 421.2005 313.490001 
L 421.231121 313.51151 
L 421.284707 313.439814 
L 421.292362 313.439814 
L 421.338293 313.418306 
L 421.368914 313.500756 
L 421.414845 313.554527 
L 421.468431 313.468493 
L 421.506707 313.418306 
L 421.560293 313.51151 
L 421.590914 313.554527 
L 421.652155 313.468493 
L 421.705741 313.439814 
L 421.744017 313.527641 
L 421.782293 313.576036 
L 421.835879 313.484624 
L 421.88181 313.439814 
L 421.927741 313.533019 
L 421.973672 313.576036 
L 422.027258 313.490001 
L 422.065534 313.468493 
L 422.111465 313.554527 
L 422.157396 313.597545 
L 422.203327 313.506133 
L 422.256914 313.468493 
L 422.295189 313.554527 
L 422.333465 313.597545 
L 422.387051 313.506133 
L 422.448293 313.468493 
L 422.478914 313.543773 
L 422.509534 313.592168 
L 422.570776 313.490001 
L 422.616707 313.439814 
L 422.662638 313.54915 
L 422.693258 313.597545 
L 422.7545 313.495378 
L 422.869327 313.423683 
L 422.907603 313.468493 
L 423.428155 313.418306 
L 423.443465 313.3018 
L 423.535327 313.407551 
L 423.627189 313.490001 
L 423.67312 313.418306 
L 423.780292 313.527641 
L 423.826223 313.51151 
L 423.856844 313.461323 
L 423.887465 313.418306 
L 423.956361 313.51151 
L 425.265395 313.412928 
L 425.380223 313.418306 
L 425.395533 313.434437 
L 425.441464 312.505978 
L 425.510361 313.212181 
L 425.648154 313.439814 
L 425.663464 313.418306 
L 426.865326 313.400382 
L 426.903602 312.262213 
L 426.972498 313.357364 
L 427.133257 313.468493 
L 427.163877 313.439814 
L 427.217464 313.418306 
L 427.255739 313.479247 
L 427.332291 313.468493 
L 427.355257 313.434437 
L 427.401188 313.418306 
L 427.447119 313.490001 
L 427.477739 313.51151 
L 427.531326 313.439814 
L 427.546636 313.439814 
L 427.577257 313.418306 
L 427.630843 313.495378 
L 427.646153 313.51151 
L 427.722705 313.439814 
L 432.775117 313.377081 
L 432.828703 313.246236 
L 432.889944 313.317932 
L 447.756284 313.217558 
L 447.848146 313.217558 
L 447.871111 313.246236 
L 448.054836 313.246236 
L 448.192629 313.267745 
L 449.945662 313.206803 
L 449.960973 313.117184 
L 450.022214 313.296423 
L 450.04518 313.274914 
L 450.152352 313.3018 
L 450.160007 313.317932 
L 455.212419 313.212181 
L 455.365523 313.217558 
L 455.488005 313.246236 
L 471.341862 313.34661 
L 471.403103 313.368119 
L 471.449034 313.332271 
L 471.563862 313.34661 
L 476.149308 313.446984 
L 476.156964 313.468493 
L 476.233515 313.362741 
L 476.264136 313.34661 
L 476.317722 313.439814 
L 476.355998 313.468493 
L 476.401929 313.396797 
L 476.455515 313.34661 
L 476.501446 313.434437 
L 476.524412 313.468493 
L 476.577998 313.368119 
L 476.65455 313.317932 
L 476.692825 313.368119 
L 476.723446 313.396797 
L 476.784688 313.317932 
L 476.792343 313.317932 
L 476.807653 313.296423 
L 476.861239 313.407551 
L 476.914825 313.439814 
L 476.960756 313.362741 
L 477.006687 313.34661 
L 477.044963 313.42906 
L 477.090894 313.468493 
L 477.136825 313.396797 
L 477.182756 313.34661 
L 477.236343 313.439814 
L 480.114686 313.33944 
L 480.152962 313.317932 
L 480.206548 313.389627 
L 480.275445 313.368119 
L 480.290755 313.317932 
L 480.734755 313.423683 
L 480.773031 313.439814 
L 480.811307 313.368119 
L 480.818962 313.368119 
L 480.864893 313.34661 
L 480.903169 313.423683 
L 480.933789 313.490001 
L 480.995031 313.382458 
L 481.048617 313.34661 
L 481.086893 313.434437 
L 481.117514 313.490001 
L 481.178755 313.396797 
L 481.209376 313.351987 
L 481.270617 313.439814 
L 481.308893 313.490001 
L 481.370134 313.396797 
L 481.416065 313.368119 
L 481.461996 313.468493 
L 481.484962 313.500756 
L 481.553858 313.396797 
L 481.599789 313.368119 
L 481.638065 313.454153 
L 481.683996 313.51151 
L 481.729927 313.412928 
L 481.783513 313.368119 
L 481.821789 313.468493 
L 481.86772 313.51151 
L 481.913651 313.418306 
L 481.959582 313.368119 
L 482.005513 313.479247 
L 482.059099 313.51151 
L 482.097375 313.418306 
L 482.150961 313.368119 
L 482.189237 313.468493 
L 482.242824 313.51151 
L 482.281099 313.418306 
L 482.32703 313.368119 
L 482.372961 313.461323 
L 482.426548 313.51151 
L 482.464823 313.418306 
L 482.510754 313.368119 
L 482.556685 313.468493 
L 482.610272 313.51151 
L 482.648548 313.418306 
L 482.656203 313.418306 
L 482.694479 313.368119 
L 482.74041 313.47387 
L 482.793996 313.51151 
L 482.832272 313.418306 
L 482.878203 313.368119 
L 482.924134 313.468493 
L 482.97772 313.51151 
L 483.023651 313.418306 
L 483.061927 313.389627 
L 483.107858 313.47387 
L 483.161444 313.51151 
L 483.19972 313.418306 
L 483.260961 313.396797 
L 483.291582 313.47387 
L 483.329858 313.533019 
L 483.383444 313.423683 
L 483.429375 313.368119 
L 483.505927 313.439814 
L 483.796823 313.351987 
L 483.888685 313.418306 
L 483.926961 313.368119 
L 484.409237 313.468493 
L 484.439857 313.490001 
L 484.493443 313.396797 
L 484.539374 313.368119 
L 484.57765 313.461323 
L 484.623581 313.51151 
L 484.661857 313.418306 
L 484.669512 313.418306 
L 484.830271 313.196049 
L 484.868547 313.231897 
L 485.00634 313.396797 
L 485.044616 313.34661 
L 485.090547 313.317932 
L 485.136478 313.418306 
L 485.917305 313.326894 
L 485.94027 312.51494 
L 486.024477 313.274914 
L 486.101029 313.396797 
L 486.14696 313.325101 
L 486.315374 313.317932 
L 486.659856 313.289253 
L 486.682822 313.002471 
L 486.767029 313.267745 
L 486.81296 313.34661 
L 486.889512 313.296423 
L 487.188063 313.196049 
L 487.218684 312.894927 
L 487.28758 313.217558 
L 487.387098 313.368119 
L 487.448339 313.296423 
L 487.71627 313.396797 
L 487.723925 313.418306 
L 487.808132 313.325101 
L 487.846408 313.317932 
L 487.884684 313.402174 
L 487.930615 313.418306 
L 487.976546 313.357364 
L 488.014821 313.317932 
L 488.068408 313.418306 
L 489.5382 313.382458 
L 489.545855 313.161994 
L 489.553511 288.045209 
L 489.653028 313.00964 
L 489.783166 313.296423 
L 489.813786 313.282084 
L 490.012821 313.317932 
L 490.763027 313.212181 
L 490.801303 312.923605 
L 490.877855 313.212181 
L 491.268269 313.368119 
L 491.32951 313.317932 
L 491.375441 313.368119 
L 491.429027 313.396797 
L 491.482613 313.34661 
L 491.513234 313.317932 
L 491.56682 313.396797 
L 491.582131 313.396797 
L 491.80413 313.307177 
L 491.827096 313.145862 
L 491.911303 313.267745 
L 491.972544 313.317932 
L 492.02613 313.274914 
L 492.087372 313.289253 
L 492.110337 313.332271 
L 492.156268 313.368119 
L 492.21751 313.3018 
L 492.278751 313.317932 
L 492.309372 313.368119 
L 495.195371 313.267745 
L 495.271922 312.823232 
L 495.333164 313.153032 
L 495.532198 313.296423 
L 495.593439 313.104637 
L 495.60875 312.396642 
L 495.685302 313.267745 
L 495.700612 313.267745 
L 506.586263 313.160201 
L 506.624539 313.110014 
L 506.678125 313.196049 
L 506.68578 313.196049 
L 512.220468 313.110014 
L 512.304675 312.923605 
L 512.358261 313.002471 
L 512.503709 313.138692 
L 517.71688 313.052658 
L 517.778121 312.995301 
L 517.824052 313.038319 
L 517.969501 313.138692 
L 518.015432 312.973792 
L 518.107294 309.224109 
L 518.17619 310.641891 
L 518.359914 312.547203 
L 518.39819 287.670343 
L 518.513018 303.25903 
L 518.704397 309.937481 
L 518.895776 312.242497 
L 519.04888 312.636823 
L 519.240259 312.909266 
L 519.500535 313.002471 
L 521.291844 313.110014 
L 521.452603 313.110014 
L 524.736671 313.002471 
L 524.805567 312.973792 
L 524.836188 313.002471 
L 524.859153 153.534579 
L 524.966326 224.701063 
L 525.18067 299.043324 
L 525.425636 307.112672 
L 525.685912 310.627552 
L 525.854325 311.539879 
L 525.900256 311.676101 
L 525.946187 311.505824 
L 525.961498 311.51837 
L 526.038049 311.812323 
L 526.382532 312.787384 
L 526.864808 313.088506 
L 527.699221 313.196049 
L 527.837014 313.201426 
L 528.020738 313.196049 
L 528.150876 313.217558 
L 538.232735 313.317932 
L 538.271011 313.33944 
L 538.339907 313.296423 
L 545.765422 313.389627 
L 545.803698 313.448776 
L 545.857284 313.33944 
L 545.91087 313.310762 
L 545.949146 313.396797 
L 545.987422 313.432645 
L 546.033353 313.360949 
L 546.086939 313.310762 
L 546.125215 313.411136 
L 546.171146 313.454153 
L 546.224732 313.360949 
L 546.507973 313.454153 
L 546.546249 313.482832 
L 546.599835 313.371703 
L 546.645766 313.360949 
L 546.676387 313.454153 
L 546.737628 313.482832 
L 546.775904 313.411136 
L 546.821835 313.360949 
L 546.867766 313.461323 
L 546.906042 313.50434 
L 546.959628 313.411136 
L 547.005559 313.360949 
L 547.05149 313.461323 
L 547.089766 313.498963 
L 547.143352 313.411136 
L 547.181628 313.360949 
L 547.227559 313.461323 
L 547.27349 313.50434 
L 547.319421 313.427268 
L 547.380663 313.389627 
L 547.418938 313.472077 
L 547.472525 313.50434 
L 547.510801 313.42189 
L 547.549076 313.389627 
L 547.602663 313.482832 
L 547.633283 313.525849 
L 547.694525 313.427268 
L 547.7328 313.389627 
L 547.786387 313.482832 
L 547.839973 313.50434 
L 547.878249 313.427268 
L 547.92418 313.389627 
L 547.970111 313.482832 
L 548.016042 313.525849 
L 548.061973 313.439814 
L 548.115559 313.411136 
L 548.153835 313.50434 
L 548.192111 313.525849 
L 548.238042 313.445191 
L 548.291628 313.389627 
L 548.337559 313.482832 
L 548.36818 313.525849 
L 548.429421 313.432645 
L 548.460042 313.389627 
L 548.521283 313.482832 
L 548.536593 313.461323 
L 548.995903 313.368119 
L 549.026524 313.33944 
L 549.08011 313.455946 
L 549.126041 313.461323 
L 549.164317 313.389627 
L 549.233214 313.368119 
L 549.279145 313.418306 
L 550.496317 313.317932 
L 550.549903 312.471923 
L 550.64942 312.988132 
L 550.833144 313.251613 
L 551.154661 313.34661 
L 551.560385 313.25699 
L 551.583351 313.217558 
L 551.644592 313.34661 
L 551.75942 313.296423 
L 551.797696 313.194257 
L 551.805351 313.153032 
L 551.858937 313.267745 
L 551.889558 313.267745 
L 552.01204 313.368119 
L 552.065627 313.396797 
L 552.119213 313.34661 
L 552.20342 313.418306 
L 552.279971 313.267745 
L 552.371833 313.368119 
L 552.394799 313.262368 
L 552.44073 313.104637 
L 552.509626 313.217558 
L 552.632109 313.138692 
L 552.655075 313.031149 
L 552.731626 313.224727 
L 552.869419 313.296423 
L 553.229212 313.262368 
L 553.267488 311.971845 
L 553.34404 313.023979 
L 553.512454 313.296423 
L 554.209074 313.396797 
L 554.270315 313.418306 
L 554.316246 313.368119 
L 554.346867 313.34661 
L 554.400453 313.42906 
L 554.46935 313.418306 
L 554.492315 313.375288 
L 554.553557 313.368119 
L 554.584177 313.439814 
L 555.13535 313.371703 
L 555.181281 309.238448 
L 555.242522 312.846533 
L 555.403281 313.110014 
L 555.479832 313.217558 
L 555.579349 313.296423 
L 555.602315 313.267745 
L 556.05397 313.368119 
L 556.099901 313.396797 
L 556.153487 313.34661 
L 556.191763 313.317932 
L 556.237694 313.396797 
L 556.253004 313.396797 
L 556.298935 313.396797 
L 556.352522 313.34661 
L 557.699831 313.439814 
L 557.761073 313.468493 
L 557.807004 313.418306 
L 557.86059 313.396797 
L 557.906521 313.468493 
L 565.714794 313.369911 
L 565.829622 313.375288 
L 582.732236 313.291046 
L 582.778167 313.167371 
L 582.847064 313.246236 
L 583.092029 313.325101 
L 583.367615 313.332271 
L 597.537335 313.438022 
L 597.667473 313.432645 
L 608.60671 313.538396 
L 608.683262 313.533019 
L 608.706227 313.50434 
L 611.163537 313.611884 
L 611.255399 313.606507 
L 611.270709 313.590375 
L 611.31664 313.568866 
L 611.370226 313.628015 
L 611.477399 313.568866 
L 611.691743 313.497171 
L 611.791261 313.360949 
L 611.814226 313.382458 
L 611.883123 313.475662 
L 611.974985 313.540188 
L 612.013261 313.51868 
L 612.832364 313.626223 
L 612.931881 313.577828 
L 612.954846 313.561697 
L 613.016088 313.642355 
L 613.12326 313.583206 
L 616.330776 313.502548 
L 616.353742 313.418306 
L 616.399673 313.533019 
L 616.437949 313.533019 
L 617.058017 313.448776 
L 617.073328 312.923605 
L 617.088638 310.729718 
L 617.1805 312.801723 
L 617.333604 313.425475 
L 617.494362 313.50434 
L 618.175672 313.486416 
L 618.244569 311.496862 
L 618.328776 312.219196 
L 618.5125 313.18171 
L 618.696224 313.454153 
L 618.719189 313.432645 
L 619.010086 313.50434 
L 619.438775 313.590375 
L 619.44643 310.571988 
L 619.545948 312.952284 
L 619.691396 313.260575 
L 619.706706 313.217558 
L 619.790913 312.068635 
L 619.836844 310.385579 
L 619.913396 311.251304 
L 620.135396 312.808892 
L 620.34974 313.124353 
L 620.365051 313.066997 
L 620.410982 311.294321 
L 620.441602 310.380202 
L 620.510499 311.355263 
L 620.701878 312.873419 
L 620.939188 313.224727 
L 621.452085 313.325101 
L 621.490361 313.353779 
L 621.559257 313.303593 
L 621.643464 313.353779 
L 621.651119 313.201426 
L 621.658774 310.86594 
L 621.758292 313.052658 
L 621.91905 313.269537 
L 621.964981 313.196049 
L 622.033878 313.274914 
L 623.457739 313.253406 
L 623.511326 310.643683 
L 623.603188 312.3124 
L 623.756291 312.85191 
L 623.817532 312.959453 
L 624.016567 313.196049 
L 624.269187 313.246236 
L 624.353394 313.01681 
L 624.414636 311.998731 
L 624.483532 312.480885 
L 624.560084 312.837571 
L 624.567739 312.830401 
L 624.575394 292.899006 
L 624.674911 312.988132 
L 624.942842 313.267745 
L 625.876773 313.375288 
L 625.953325 313.368119 
L 625.97629 313.34661 
L 626.006911 313.317932 
L 626.083463 313.368119 
L 626.259531 313.294631 
L 626.282497 311.638461 
L 626.366704 313.086713 
L 626.397324 313.296423 
L 626.412635 302.642447 
L 626.504497 313.110014 
L 626.711186 313.267745 
L 631.556909 313.217558 
L 631.572219 313.066997 
L 631.641116 313.246236 
L 631.664081 313.246236 
L 631.732978 313.267745 
L 631.740633 312.423528 
L 631.82484 313.317932 
L 631.84015 313.317932 
L 632.353047 313.213973 
L 632.414288 310.523593 
L 632.49084 312.547203 
L 632.697529 313.296423 
L 633.899391 313.396797 
L 634.029529 313.418306 
L 642.266491 313.326894 
L 642.381319 313.310762 
L 650.771385 313.267745 
L 650.886212 312.916436 
L 650.916833 312.959453 
L 651.01635 313.01681 
L 651.069936 313.084921 
L 651.100557 313.052658 
L 651.115868 311.127629 
L 651.146488 296.499152 
L 651.230695 307.345683 
L 651.422074 312.238912 
L 651.659385 313.00964 
L 651.835453 313.17454 
L 652.616281 313.282084 
L 652.784695 313.289253 
L 654.974073 313.26416 
L 655.020004 305.284432 
L 655.111866 309.258165 
L 655.29559 312.3124 
L 655.486969 313.00964 
L 655.670693 313.196049 
L 656.390279 313.088506 
L 656.40559 313.059827 
L 656.474486 313.138692 
L 656.482141 313.138692 
L 656.489797 313.153032 
L 656.497452 300.199059 
L 656.512762 36.19267 
L 656.604624 234.789668 
L 656.780693 303.474117 
L 656.979728 309.654283 
L 657.217038 312.163631 
L 657.408417 312.816062 
L 657.645727 313.031149 
L 657.867727 313.138692 
L 658.013175 313.217558 
L 658.794003 313.187087 
L 658.924141 272.624495 
L 658.977727 286.721229 
L 659.054279 299.172377 
L 659.069589 290.258215 
L 659.092554 263.498661 
L 659.176761 288.940381 
L 659.253313 301.645877 
L 659.276278 290.443429 
L 659.291589 286.769026 
L 659.35283 298.222409 
L 659.36814 298.114865 
L 659.421727 300.642138 
L 659.437037 299.674246 
L 659.482968 286.410548 
L 659.551865 296.232854 
L 659.704968 303.760899 
L 660.026485 311.299699 
L 660.233175 312.615314 
L 660.524071 313.110014 
L 660.769037 313.217558 
L 660.891519 313.246236 
L 661.39676 313.267745 
L 661.435036 288.728708 
L 661.526898 303.99391 
L 661.680002 309.639944 
L 661.702967 309.206185 
L 661.764209 309.295805 
L 662.04745 311.561388 
L 662.361312 312.909266 
L 662.851243 313.217558 
L 665.798483 313.325101 
L 665.88269 313.317932 
L 665.905655 313.284952 
L 665.936276 313.267745 
L 665.989862 313.33944 
L 666.012828 313.310762 
L 667.941931 313.203219 
L 668.049103 313.253406 
L 671.593447 313.160201 
L 671.631722 313.138692 
L 671.692964 313.196049 
L 674.931101 313.289253 
L 675.015307 313.310762 
L 675.038273 313.260575 
L 675.482273 313.33944 
L 675.482273 313.33944 
" clip-path="url(#pf59dfa3e38)" style="fill: none; stroke: #1f77b4; stroke-width: 1.5; stroke-linecap: square"/>
   </g>
   <g id="line2d_21">
    <path d="M 69.927727 313.196049 
L 675.482273 313.196049 
L 675.482273 313.196049 
" clip-path="url(#pf59dfa3e38)" style="fill: none; stroke: #ff7f0e; stroke-width: 1.5; stroke-linecap: square"/>
   </g>
   <g id="patch_3">
    <path d="M 39.65 327.558125 
L 39.65 22.318125 
" style="fill: none; stroke: #000000; stroke-width: 0.8; stroke-linejoin: miter; stroke-linecap: square"/>
   </g>
   <g id="patch_4">
    <path d="M 705.76 327.558125 
L 705.76 22.318125 
" style="fill: none; stroke: #000000; stroke-width: 0.8; stroke-linejoin: miter; stroke-linecap: square"/>
   </g>
   <g id="patch_5">
    <path d="M 39.65 327.558125 
L 705.76 327.558125 
" style="fill: none; stroke: #000000; stroke-width: 0.8; stroke-linejoin: miter; stroke-linecap: square"/>
   </g>
   <g id="patch_6">
    <path d="M 39.65 22.318125 
L 705.76 22.318125 
" style="fill: none; stroke: #000000; stroke-width: 0.8; stroke-linejoin: miter; stroke-linecap: square"/>
   </g>
   <g id="text_20">
    <!-- training -->
    <g transform="translate(349.461563 16.318125) scale(0.12 -0.12)">
     <defs>
      <path id="DejaVuSans-74" d="M 1172 4494 
L 1172 3500 
L 2356 3500 
L 2356 3053 
L 1172 3053 
L 1172 1153 
Q 1172 725 1289 603 
Q 1406 481 1766 481 
L 2356 481 
L 2356 0 
L 1766 0 
Q 1100 0 847 248 
Q 594 497 594 1153 
L 594 3053 
L 172 3053 
L 172 3500 
L 594 3500 
L 594 4494 
L 1172 4494 
z
" transform="scale(0.015625)"/>
      <path id="DejaVuSans-72" d="M 2631 2963 
Q 2534 3019 2420 3045 
Q 2306 3072 2169 3072 
Q 1681 3072 1420 2755 
Q 1159 2438 1159 1844 
L 1159 0 
L 581 0 
L 581 3500 
L 1159 3500 
L 1159 2956 
Q 1341 3275 1631 3429 
Q 1922 3584 2338 3584 
Q 2397 3584 2469 3576 
Q 2541 3569 2628 3553 
L 2631 2963 
z
" transform="scale(0.015625)"/>
      <path id="DejaVuSans-61" d="M 2194 1759 
Q 1497 1759 1228 1600 
Q 959 1441 959 1056 
Q 959 750 1161 570 
Q 1363 391 1709 391 
Q 2188 391 2477 730 
Q 2766 1069 2766 1631 
L 2766 1759 
L 2194 1759 
z
M 3341 1997 
L 3341 0 
L 2766 0 
L 2766 531 
Q 2569 213 2275 61 
Q 1981 -91 1556 -91 
Q 1019 -91 701 211 
Q 384 513 384 1019 
Q 384 1609 779 1909 
Q 1175 2209 1959 2209 
L 2766 2209 
L 2766 2266 
Q 2766 2663 2505 2880 
Q 2244 3097 1772 3097 
Q 1472 3097 1187 3025 
Q 903 2953 641 2809 
L 641 3341 
Q 956 3463 1253 3523 
Q 1550 3584 1831 3584 
Q 2591 3584 2966 3190 
Q 3341 2797 3341 1997 
z
" transform="scale(0.015625)"/>
      <path id="DejaVuSans-69" d="M 603 3500 
L 1178 3500 
L 1178 0 
L 603 0 
L 603 3500 
z
M 603 4863 
L 1178 4863 
L 1178 4134 
L 603 4134 
L 603 4863 
z
" transform="scale(0.015625)"/>
      <path id="DejaVuSans-6e" d="M 3513 2113 
L 3513 0 
L 2938 0 
L 2938 2094 
Q 2938 2591 2744 2837 
Q 2550 3084 2163 3084 
Q 1697 3084 1428 2787 
Q 1159 2491 1159 1978 
L 1159 0 
L 581 0 
L 581 3500 
L 1159 3500 
L 1159 2956 
Q 1366 3272 1645 3428 
Q 1925 3584 2291 3584 
Q 2894 3584 3203 3211 
Q 3513 2838 3513 2113 
z
" transform="scale(0.015625)"/>
      <path id="DejaVuSans-67" d="M 2906 1791 
Q 2906 2416 2648 2759 
Q 2391 3103 1925 3103 
Q 1463 3103 1205 2759 
Q 947 2416 947 1791 
Q 947 1169 1205 825 
Q 1463 481 1925 481 
Q 2391 481 2648 825 
Q 2906 1169 2906 1791 
z
M 3481 434 
Q 3481 -459 3084 -895 
Q 2688 -1331 1869 -1331 
Q 1566 -1331 1297 -1286 
Q 1028 -1241 775 -1147 
L 775 -588 
Q 1028 -725 1275 -790 
Q 1522 -856 1778 -856 
Q 2344 -856 2625 -561 
Q 2906 -266 2906 331 
L 2906 616 
Q 2728 306 2450 153 
Q 2172 0 1784 0 
Q 1141 0 747 490 
Q 353 981 353 1791 
Q 353 2603 747 3093 
Q 1141 3584 1784 3584 
Q 2172 3584 2450 3431 
Q 2728 3278 2906 2969 
L 2906 3500 
L 3481 3500 
L 3481 434 
z
" transform="scale(0.015625)"/>
     </defs>
     <use xlink:href="#DejaVuSans-74"/>
     <use xlink:href="#DejaVuSans-72" x="39.208984"/>
     <use xlink:href="#DejaVuSans-61" x="80.322266"/>
     <use xlink:href="#DejaVuSans-69" x="141.601562"/>
     <use xlink:href="#DejaVuSans-6e" x="169.384766"/>
     <use xlink:href="#DejaVuSans-69" x="232.763672"/>
     <use xlink:href="#DejaVuSans-6e" x="260.546875"/>
     <use xlink:href="#DejaVuSans-67" x="323.925781"/>
    </g>
   </g>
   <g id="legend_1">
    <g id="patch_7">
     <path d="M 46.65 59.674375 
L 128.04375 59.674375 
Q 130.04375 59.674375 130.04375 57.674375 
L 130.04375 29.318125 
Q 130.04375 27.318125 128.04375 27.318125 
L 46.65 27.318125 
Q 44.65 27.318125 44.65 29.318125 
L 44.65 57.674375 
Q 44.65 59.674375 46.65 59.674375 
z
" style="fill: #ffffff; opacity: 0.8; stroke: #cccccc; stroke-linejoin: miter"/>
    </g>
    <g id="line2d_22">
     <path d="M 48.65 35.416562 
L 58.65 35.416562 
L 68.65 35.416562 
" style="fill: none; stroke: #1f77b4; stroke-width: 1.5; stroke-linecap: square"/>
    </g>
    <g id="text_21">
     <!-- observed -->
     <g transform="translate(76.65 38.916562) scale(0.1 -0.1)">
      <defs>
       <path id="DejaVuSans-6f" d="M 1959 3097 
Q 1497 3097 1228 2736 
Q 959 2375 959 1747 
Q 959 1119 1226 758 
Q 1494 397 1959 397 
Q 2419 397 2687 759 
Q 2956 1122 2956 1747 
Q 2956 2369 2687 2733 
Q 2419 3097 1959 3097 
z
M 1959 3584 
Q 2709 3584 3137 3096 
Q 3566 2609 3566 1747 
Q 3566 888 3137 398 
Q 2709 -91 1959 -91 
Q 1206 -91 779 398 
Q 353 888 353 1747 
Q 353 2609 779 3096 
Q 1206 3584 1959 3584 
z
" transform="scale(0.015625)"/>
       <path id="DejaVuSans-62" d="M 3116 1747 
Q 3116 2381 2855 2742 
Q 2594 3103 2138 3103 
Q 1681 3103 1420 2742 
Q 1159 2381 1159 1747 
Q 1159 1113 1420 752 
Q 1681 391 2138 391 
Q 2594 391 2855 752 
Q 3116 1113 3116 1747 
z
M 1159 2969 
Q 1341 3281 1617 3432 
Q 1894 3584 2278 3584 
Q 2916 3584 3314 3078 
Q 3713 2572 3713 1747 
Q 3713 922 3314 415 
Q 2916 -91 2278 -91 
Q 1894 -91 1617 61 
Q 1341 213 1159 525 
L 1159 0 
L 581 0 
L 581 4863 
L 1159 4863 
L 1159 2969 
z
" transform="scale(0.015625)"/>
       <path id="DejaVuSans-73" d="M 2834 3397 
L 2834 2853 
Q 2591 2978 2328 3040 
Q 2066 3103 1784 3103 
Q 1356 3103 1142 2972 
Q 928 2841 928 2578 
Q 928 2378 1081 2264 
Q 1234 2150 1697 2047 
L 1894 2003 
Q 2506 1872 2764 1633 
Q 3022 1394 3022 966 
Q 3022 478 2636 193 
Q 2250 -91 1575 -91 
Q 1294 -91 989 -36 
Q 684 19 347 128 
L 347 722 
Q 666 556 975 473 
Q 1284 391 1588 391 
Q 1994 391 2212 530 
Q 2431 669 2431 922 
Q 2431 1156 2273 1281 
Q 2116 1406 1581 1522 
L 1381 1569 
Q 847 1681 609 1914 
Q 372 2147 372 2553 
Q 372 3047 722 3315 
Q 1072 3584 1716 3584 
Q 2034 3584 2315 3537 
Q 2597 3491 2834 3397 
z
" transform="scale(0.015625)"/>
       <path id="DejaVuSans-65" d="M 3597 1894 
L 3597 1613 
L 953 1613 
Q 991 1019 1311 708 
Q 1631 397 2203 397 
Q 2534 397 2845 478 
Q 3156 559 3463 722 
L 3463 178 
Q 3153 47 2828 -22 
Q 2503 -91 2169 -91 
Q 1331 -91 842 396 
Q 353 884 353 1716 
Q 353 2575 817 3079 
Q 1281 3584 2069 3584 
Q 2775 3584 3186 3129 
Q 3597 2675 3597 1894 
z
M 3022 2063 
Q 3016 2534 2758 2815 
Q 2500 3097 2075 3097 
Q 1594 3097 1305 2825 
Q 1016 2553 972 2059 
L 3022 2063 
z
" transform="scale(0.015625)"/>
       <path id="DejaVuSans-76" d="M 191 3500 
L 800 3500 
L 1894 563 
L 2988 3500 
L 3597 3500 
L 2284 0 
L 1503 0 
L 191 3500 
z
" transform="scale(0.015625)"/>
       <path id="DejaVuSans-64" d="M 2906 2969 
L 2906 4863 
L 3481 4863 
L 3481 0 
L 2906 0 
L 2906 525 
Q 2725 213 2448 61 
Q 2172 -91 1784 -91 
Q 1150 -91 751 415 
Q 353 922 353 1747 
Q 353 2572 751 3078 
Q 1150 3584 1784 3584 
Q 2172 3584 2448 3432 
Q 2725 3281 2906 2969 
z
M 947 1747 
Q 947 1113 1208 752 
Q 1469 391 1925 391 
Q 2381 391 2643 752 
Q 2906 1113 2906 1747 
Q 2906 2381 2643 2742 
Q 2381 3103 1925 3103 
Q 1469 3103 1208 2742 
Q 947 2381 947 1747 
z
" transform="scale(0.015625)"/>
      </defs>
      <use xlink:href="#DejaVuSans-6f"/>
      <use xlink:href="#DejaVuSans-62" x="61.181641"/>
      <use xlink:href="#DejaVuSans-73" x="124.658203"/>
      <use xlink:href="#DejaVuSans-65" x="176.757812"/>
      <use xlink:href="#DejaVuSans-72" x="238.28125"/>
      <use xlink:href="#DejaVuSans-76" x="279.394531"/>
      <use xlink:href="#DejaVuSans-65" x="338.574219"/>
      <use xlink:href="#DejaVuSans-64" x="400.097656"/>
     </g>
    </g>
    <g id="line2d_23">
     <path d="M 48.65 50.094688 
L 58.65 50.094688 
L 68.65 50.094688 
" style="fill: none; stroke: #ff7f0e; stroke-width: 1.5; stroke-linecap: square"/>
    </g>
    <g id="text_22">
     <!-- simulated -->
     <g transform="translate(76.65 53.594688) scale(0.1 -0.1)">
      <defs>
       <path id="DejaVuSans-6d" d="M 3328 2828 
Q 3544 3216 3844 3400 
Q 4144 3584 4550 3584 
Q 5097 3584 5394 3201 
Q 5691 2819 5691 2113 
L 5691 0 
L 5113 0 
L 5113 2094 
Q 5113 2597 4934 2840 
Q 4756 3084 4391 3084 
Q 3944 3084 3684 2787 
Q 3425 2491 3425 1978 
L 3425 0 
L 2847 0 
L 2847 2094 
Q 2847 2600 2669 2842 
Q 2491 3084 2119 3084 
Q 1678 3084 1418 2786 
Q 1159 2488 1159 1978 
L 1159 0 
L 581 0 
L 581 3500 
L 1159 3500 
L 1159 2956 
Q 1356 3278 1631 3431 
Q 1906 3584 2284 3584 
Q 2666 3584 2933 3390 
Q 3200 3197 3328 2828 
z
" transform="scale(0.015625)"/>
       <path id="DejaVuSans-75" d="M 544 1381 
L 544 3500 
L 1119 3500 
L 1119 1403 
Q 1119 906 1312 657 
Q 1506 409 1894 409 
Q 2359 409 2629 706 
Q 2900 1003 2900 1516 
L 2900 3500 
L 3475 3500 
L 3475 0 
L 2900 0 
L 2900 538 
Q 2691 219 2414 64 
Q 2138 -91 1772 -91 
Q 1169 -91 856 284 
Q 544 659 544 1381 
z
M 1991 3584 
L 1991 3584 
z
" transform="scale(0.015625)"/>
       <path id="DejaVuSans-6c" d="M 603 4863 
L 1178 4863 
L 1178 0 
L 603 0 
L 603 4863 
z
" transform="scale(0.015625)"/>
      </defs>
      <use xlink:href="#DejaVuSans-73"/>
      <use xlink:href="#DejaVuSans-69" x="52.099609"/>
      <use xlink:href="#DejaVuSans-6d" x="79.882812"/>
      <use xlink:href="#DejaVuSans-75" x="177.294922"/>
      <use xlink:href="#DejaVuSans-6c" x="240.673828"/>
      <use xlink:href="#DejaVuSans-61" x="268.457031"/>
      <use xlink:href="#DejaVuSans-74" x="329.736328"/>
      <use xlink:href="#DejaVuSans-65" x="368.945312"/>
      <use xlink:href="#DejaVuSans-64" x="430.46875"/>
     </g>
    </g>
   </g>
  </g>
 </g>
 <defs>
  <clipPath id="pf59dfa3e38">
   <rect x="39.65" y="22.318125" width="666.11" height="305.24"/>
  </clipPath>
 </defs>
</svg>
