<?xml version="1.0" encoding="utf-8" standalone="no"?>
<!DOCTYPE svg PUBLIC "-//W3C//DTD SVG 1.1//EN"
  "http://www.w3.org/Graphics/SVG/1.1/DTD/svg11.dtd">
<svg xmlns:xlink="http://www.w3.org/1999/xlink" width="720pt" height="360pt" viewBox="0 0 720 360" xmlns="http://www.w3.org/2000/svg" version="1.1">
 <metadata>
  <rdf:RDF xmlns:dc="http://purl.org/dc/elements/1.1/" xmlns:cc="http://creativecommons.org/ns#" xmlns:rdf="http://www.w3.org/1999/02/22-rdf-syntax-ns#">
   <cc:Work>
    <dc:type rdf:resource="http://purl.org/dc/dcmitype/StillImage"/>
    <dc:date>2023-10-23T10:53:03.318759</dc:date>
    <dc:format>image/svg+xml</dc:format>
    <dc:creator>
     <cc:Agent>
      <dc:title>Matplotlib v3.7.1, https://matplotlib.org/</dc:title>
     </cc:Agent>
    </dc:creator>
   </cc:Work>
  </rdf:RDF>
 </metadata>
 <defs>
  <style type="text/css">*{stroke-linejoin: round; stroke-linecap: butt}</style>
 </defs>
 <g id="figure_1">
  <g id="patch_1">
   <path d="M 0 360 
L 720 360 
L 720 0 
L 0 0 
z
" style="fill: #ffffff"/>
  </g>
  <g id="axes_1">
   <g id="patch_2">
    <path d="M 90 288 
L 648 288 
L 648 43.2 
L 90 43.2 
z
" style="fill: #ffffff"/>
   </g>
   <g id="matplotlib.axis_1">
    <g id="xtick_1">
     <g id="line2d_1">
      <defs>
       <path id="m07dda6654b" d="M 0 0 
L 0 3.5 
" style="stroke: #000000; stroke-width: 0.8"/>
      </defs>
      <g>
       <use xlink:href="#m07dda6654b" x="149.389756" y="288" style="stroke: #000000; stroke-width: 0.8"/>
      </g>
     </g>
     <g id="text_1">
      <!-- 2023-08-15 -->
      <g transform="translate(87.746414 337.765903) rotate(-30) scale(0.12 -0.12)">
       <defs>
        <path id="DejaVuSans-32" d="M 1228 531 
L 3431 531 
L 3431 0 
L 469 0 
L 469 531 
Q 828 903 1448 1529 
Q 2069 2156 2228 2338 
Q 2531 2678 2651 2914 
Q 2772 3150 2772 3378 
Q 2772 3750 2511 3984 
Q 2250 4219 1831 4219 
Q 1534 4219 1204 4116 
Q 875 4013 500 3803 
L 500 4441 
Q 881 4594 1212 4672 
Q 1544 4750 1819 4750 
Q 2544 4750 2975 4387 
Q 3406 4025 3406 3419 
Q 3406 3131 3298 2873 
Q 3191 2616 2906 2266 
Q 2828 2175 2409 1742 
Q 1991 1309 1228 531 
z
" transform="scale(0.015625)"/>
        <path id="DejaVuSans-30" d="M 2034 4250 
Q 1547 4250 1301 3770 
Q 1056 3291 1056 2328 
Q 1056 1369 1301 889 
Q 1547 409 2034 409 
Q 2525 409 2770 889 
Q 3016 1369 3016 2328 
Q 3016 3291 2770 3770 
Q 2525 4250 2034 4250 
z
M 2034 4750 
Q 2819 4750 3233 4129 
Q 3647 3509 3647 2328 
Q 3647 1150 3233 529 
Q 2819 -91 2034 -91 
Q 1250 -91 836 529 
Q 422 1150 422 2328 
Q 422 3509 836 4129 
Q 1250 4750 2034 4750 
z
" transform="scale(0.015625)"/>
        <path id="DejaVuSans-33" d="M 2597 2516 
Q 3050 2419 3304 2112 
Q 3559 1806 3559 1356 
Q 3559 666 3084 287 
Q 2609 -91 1734 -91 
Q 1441 -91 1130 -33 
Q 819 25 488 141 
L 488 750 
Q 750 597 1062 519 
Q 1375 441 1716 441 
Q 2309 441 2620 675 
Q 2931 909 2931 1356 
Q 2931 1769 2642 2001 
Q 2353 2234 1838 2234 
L 1294 2234 
L 1294 2753 
L 1863 2753 
Q 2328 2753 2575 2939 
Q 2822 3125 2822 3475 
Q 2822 3834 2567 4026 
Q 2313 4219 1838 4219 
Q 1578 4219 1281 4162 
Q 984 4106 628 3988 
L 628 4550 
Q 988 4650 1302 4700 
Q 1616 4750 1894 4750 
Q 2613 4750 3031 4423 
Q 3450 4097 3450 3541 
Q 3450 3153 3228 2886 
Q 3006 2619 2597 2516 
z
" transform="scale(0.015625)"/>
        <path id="DejaVuSans-2d" d="M 313 2009 
L 1997 2009 
L 1997 1497 
L 313 1497 
L 313 2009 
z
" transform="scale(0.015625)"/>
        <path id="DejaVuSans-38" d="M 2034 2216 
Q 1584 2216 1326 1975 
Q 1069 1734 1069 1313 
Q 1069 891 1326 650 
Q 1584 409 2034 409 
Q 2484 409 2743 651 
Q 3003 894 3003 1313 
Q 3003 1734 2745 1975 
Q 2488 2216 2034 2216 
z
M 1403 2484 
Q 997 2584 770 2862 
Q 544 3141 544 3541 
Q 544 4100 942 4425 
Q 1341 4750 2034 4750 
Q 2731 4750 3128 4425 
Q 3525 4100 3525 3541 
Q 3525 3141 3298 2862 
Q 3072 2584 2669 2484 
Q 3125 2378 3379 2068 
Q 3634 1759 3634 1313 
Q 3634 634 3220 271 
Q 2806 -91 2034 -91 
Q 1263 -91 848 271 
Q 434 634 434 1313 
Q 434 1759 690 2068 
Q 947 2378 1403 2484 
z
M 1172 3481 
Q 1172 3119 1398 2916 
Q 1625 2713 2034 2713 
Q 2441 2713 2670 2916 
Q 2900 3119 2900 3481 
Q 2900 3844 2670 4047 
Q 2441 4250 2034 4250 
Q 1625 4250 1398 4047 
Q 1172 3844 1172 3481 
z
" transform="scale(0.015625)"/>
        <path id="DejaVuSans-31" d="M 794 531 
L 1825 531 
L 1825 4091 
L 703 3866 
L 703 4441 
L 1819 4666 
L 2450 4666 
L 2450 531 
L 3481 531 
L 3481 0 
L 794 0 
L 794 531 
z
" transform="scale(0.015625)"/>
        <path id="DejaVuSans-35" d="M 691 4666 
L 3169 4666 
L 3169 4134 
L 1269 4134 
L 1269 2991 
Q 1406 3038 1543 3061 
Q 1681 3084 1819 3084 
Q 2600 3084 3056 2656 
Q 3513 2228 3513 1497 
Q 3513 744 3044 326 
Q 2575 -91 1722 -91 
Q 1428 -91 1123 -41 
Q 819 9 494 109 
L 494 744 
Q 775 591 1075 516 
Q 1375 441 1709 441 
Q 2250 441 2565 725 
Q 2881 1009 2881 1497 
Q 2881 1984 2565 2268 
Q 2250 2553 1709 2553 
Q 1456 2553 1204 2497 
Q 953 2441 691 2322 
L 691 4666 
z
" transform="scale(0.015625)"/>
       </defs>
       <use xlink:href="#DejaVuSans-32"/>
       <use xlink:href="#DejaVuSans-30" x="63.623047"/>
       <use xlink:href="#DejaVuSans-32" x="127.246094"/>
       <use xlink:href="#DejaVuSans-33" x="190.869141"/>
       <use xlink:href="#DejaVuSans-2d" x="254.492188"/>
       <use xlink:href="#DejaVuSans-30" x="290.576172"/>
       <use xlink:href="#DejaVuSans-38" x="354.199219"/>
       <use xlink:href="#DejaVuSans-2d" x="417.822266"/>
       <use xlink:href="#DejaVuSans-31" x="453.90625"/>
       <use xlink:href="#DejaVuSans-35" x="517.529297"/>
      </g>
     </g>
    </g>
    <g id="xtick_2">
     <g id="line2d_2">
      <g>
       <use xlink:href="#m07dda6654b" x="265.078561" y="288" style="stroke: #000000; stroke-width: 0.8"/>
      </g>
     </g>
     <g id="text_2">
      <!-- 2023-09-01 -->
      <g transform="translate(203.435219 337.765903) rotate(-30) scale(0.12 -0.12)">
       <defs>
        <path id="DejaVuSans-39" d="M 703 97 
L 703 672 
Q 941 559 1184 500 
Q 1428 441 1663 441 
Q 2288 441 2617 861 
Q 2947 1281 2994 2138 
Q 2813 1869 2534 1725 
Q 2256 1581 1919 1581 
Q 1219 1581 811 2004 
Q 403 2428 403 3163 
Q 403 3881 828 4315 
Q 1253 4750 1959 4750 
Q 2769 4750 3195 4129 
Q 3622 3509 3622 2328 
Q 3622 1225 3098 567 
Q 2575 -91 1691 -91 
Q 1453 -91 1209 -44 
Q 966 3 703 97 
z
M 1959 2075 
Q 2384 2075 2632 2365 
Q 2881 2656 2881 3163 
Q 2881 3666 2632 3958 
Q 2384 4250 1959 4250 
Q 1534 4250 1286 3958 
Q 1038 3666 1038 3163 
Q 1038 2656 1286 2365 
Q 1534 2075 1959 2075 
z
" transform="scale(0.015625)"/>
       </defs>
       <use xlink:href="#DejaVuSans-32"/>
       <use xlink:href="#DejaVuSans-30" x="63.623047"/>
       <use xlink:href="#DejaVuSans-32" x="127.246094"/>
       <use xlink:href="#DejaVuSans-33" x="190.869141"/>
       <use xlink:href="#DejaVuSans-2d" x="254.492188"/>
       <use xlink:href="#DejaVuSans-30" x="290.576172"/>
       <use xlink:href="#DejaVuSans-39" x="354.199219"/>
       <use xlink:href="#DejaVuSans-2d" x="417.822266"/>
       <use xlink:href="#DejaVuSans-30" x="453.90625"/>
       <use xlink:href="#DejaVuSans-31" x="517.529297"/>
      </g>
     </g>
    </g>
    <g id="xtick_3">
     <g id="line2d_3">
      <g>
       <use xlink:href="#m07dda6654b" x="360.351695" y="288" style="stroke: #000000; stroke-width: 0.8"/>
      </g>
     </g>
     <g id="text_3">
      <!-- 2023-09-15 -->
      <g transform="translate(298.708353 337.765903) rotate(-30) scale(0.12 -0.12)">
       <use xlink:href="#DejaVuSans-32"/>
       <use xlink:href="#DejaVuSans-30" x="63.623047"/>
       <use xlink:href="#DejaVuSans-32" x="127.246094"/>
       <use xlink:href="#DejaVuSans-33" x="190.869141"/>
       <use xlink:href="#DejaVuSans-2d" x="254.492188"/>
       <use xlink:href="#DejaVuSans-30" x="290.576172"/>
       <use xlink:href="#DejaVuSans-39" x="354.199219"/>
       <use xlink:href="#DejaVuSans-2d" x="417.822266"/>
       <use xlink:href="#DejaVuSans-31" x="453.90625"/>
       <use xlink:href="#DejaVuSans-35" x="517.529297"/>
      </g>
     </g>
    </g>
    <g id="xtick_4">
     <g id="line2d_4">
      <g>
       <use xlink:href="#m07dda6654b" x="469.235276" y="288" style="stroke: #000000; stroke-width: 0.8"/>
      </g>
     </g>
     <g id="text_4">
      <!-- 2023-10-01 -->
      <g transform="translate(407.591935 337.765903) rotate(-30) scale(0.12 -0.12)">
       <use xlink:href="#DejaVuSans-32"/>
       <use xlink:href="#DejaVuSans-30" x="63.623047"/>
       <use xlink:href="#DejaVuSans-32" x="127.246094"/>
       <use xlink:href="#DejaVuSans-33" x="190.869141"/>
       <use xlink:href="#DejaVuSans-2d" x="254.492188"/>
       <use xlink:href="#DejaVuSans-31" x="290.576172"/>
       <use xlink:href="#DejaVuSans-30" x="354.199219"/>
       <use xlink:href="#DejaVuSans-2d" x="417.822266"/>
       <use xlink:href="#DejaVuSans-30" x="453.90625"/>
       <use xlink:href="#DejaVuSans-31" x="517.529297"/>
      </g>
     </g>
    </g>
    <g id="xtick_5">
     <g id="line2d_5">
      <g>
       <use xlink:href="#m07dda6654b" x="564.50841" y="288" style="stroke: #000000; stroke-width: 0.8"/>
      </g>
     </g>
     <g id="text_5">
      <!-- 2023-10-15 -->
      <g transform="translate(502.865068 337.765903) rotate(-30) scale(0.12 -0.12)">
       <use xlink:href="#DejaVuSans-32"/>
       <use xlink:href="#DejaVuSans-30" x="63.623047"/>
       <use xlink:href="#DejaVuSans-32" x="127.246094"/>
       <use xlink:href="#DejaVuSans-33" x="190.869141"/>
       <use xlink:href="#DejaVuSans-2d" x="254.492188"/>
       <use xlink:href="#DejaVuSans-31" x="290.576172"/>
       <use xlink:href="#DejaVuSans-30" x="354.199219"/>
       <use xlink:href="#DejaVuSans-2d" x="417.822266"/>
       <use xlink:href="#DejaVuSans-31" x="453.90625"/>
       <use xlink:href="#DejaVuSans-35" x="517.529297"/>
      </g>
     </g>
    </g>
   </g>
   <g id="matplotlib.axis_2">
    <g id="ytick_1">
     <g id="line2d_6">
      <defs>
       <path id="mb9186af916" d="M 0 0 
L -3.5 0 
" style="stroke: #000000; stroke-width: 0.8"/>
      </defs>
      <g>
       <use xlink:href="#mb9186af916" x="90" y="256.028777" style="stroke: #000000; stroke-width: 0.8"/>
      </g>
     </g>
     <g id="text_6">
      <!-- 0.5 -->
      <g transform="translate(63.91625 260.587839) scale(0.12 -0.12)">
       <defs>
        <path id="DejaVuSans-2e" d="M 684 794 
L 1344 794 
L 1344 0 
L 684 0 
L 684 794 
z
" transform="scale(0.015625)"/>
       </defs>
       <use xlink:href="#DejaVuSans-30"/>
       <use xlink:href="#DejaVuSans-2e" x="63.623047"/>
       <use xlink:href="#DejaVuSans-35" x="95.410156"/>
      </g>
     </g>
    </g>
    <g id="ytick_2">
     <g id="line2d_7">
      <g>
       <use xlink:href="#mb9186af916" x="90" y="217.914758" style="stroke: #000000; stroke-width: 0.8"/>
      </g>
     </g>
     <g id="text_7">
      <!-- 1.0 -->
      <g transform="translate(63.91625 222.47382) scale(0.12 -0.12)">
       <use xlink:href="#DejaVuSans-31"/>
       <use xlink:href="#DejaVuSans-2e" x="63.623047"/>
       <use xlink:href="#DejaVuSans-30" x="95.410156"/>
      </g>
     </g>
    </g>
    <g id="ytick_3">
     <g id="line2d_8">
      <g>
       <use xlink:href="#mb9186af916" x="90" y="179.800739" style="stroke: #000000; stroke-width: 0.8"/>
      </g>
     </g>
     <g id="text_8">
      <!-- 1.5 -->
      <g transform="translate(63.91625 184.359801) scale(0.12 -0.12)">
       <use xlink:href="#DejaVuSans-31"/>
       <use xlink:href="#DejaVuSans-2e" x="63.623047"/>
       <use xlink:href="#DejaVuSans-35" x="95.410156"/>
      </g>
     </g>
    </g>
    <g id="ytick_4">
     <g id="line2d_9">
      <g>
       <use xlink:href="#mb9186af916" x="90" y="141.686719" style="stroke: #000000; stroke-width: 0.8"/>
      </g>
     </g>
     <g id="text_9">
      <!-- 2.0 -->
      <g transform="translate(63.91625 146.245782) scale(0.12 -0.12)">
       <use xlink:href="#DejaVuSans-32"/>
       <use xlink:href="#DejaVuSans-2e" x="63.623047"/>
       <use xlink:href="#DejaVuSans-30" x="95.410156"/>
      </g>
     </g>
    </g>
    <g id="ytick_5">
     <g id="line2d_10">
      <g>
       <use xlink:href="#mb9186af916" x="90" y="103.5727" style="stroke: #000000; stroke-width: 0.8"/>
      </g>
     </g>
     <g id="text_10">
      <!-- 2.5 -->
      <g transform="translate(63.91625 108.131763) scale(0.12 -0.12)">
       <use xlink:href="#DejaVuSans-32"/>
       <use xlink:href="#DejaVuSans-2e" x="63.623047"/>
       <use xlink:href="#DejaVuSans-35" x="95.410156"/>
      </g>
     </g>
    </g>
    <g id="ytick_6">
     <g id="line2d_11">
      <g>
       <use xlink:href="#mb9186af916" x="90" y="65.458681" style="stroke: #000000; stroke-width: 0.8"/>
      </g>
     </g>
     <g id="text_11">
      <!-- 3.0 -->
      <g transform="translate(63.91625 70.017744) scale(0.12 -0.12)">
       <use xlink:href="#DejaVuSans-33"/>
       <use xlink:href="#DejaVuSans-2e" x="63.623047"/>
       <use xlink:href="#DejaVuSans-30" x="95.410156"/>
      </g>
     </g>
    </g>
    <g id="text_12">
     <!-- Meters -->
     <g transform="translate(57.836562 182.6875) rotate(-90) scale(0.1 -0.1)">
      <defs>
       <path id="DejaVuSans-4d" d="M 628 4666 
L 1569 4666 
L 2759 1491 
L 3956 4666 
L 4897 4666 
L 4897 0 
L 4281 0 
L 4281 4097 
L 3078 897 
L 2444 897 
L 1241 4097 
L 1241 0 
L 628 0 
L 628 4666 
z
" transform="scale(0.015625)"/>
       <path id="DejaVuSans-65" d="M 3597 1894 
L 3597 1613 
L 953 1613 
Q 991 1019 1311 708 
Q 1631 397 2203 397 
Q 2534 397 2845 478 
Q 3156 559 3463 722 
L 3463 178 
Q 3153 47 2828 -22 
Q 2503 -91 2169 -91 
Q 1331 -91 842 396 
Q 353 884 353 1716 
Q 353 2575 817 3079 
Q 1281 3584 2069 3584 
Q 2775 3584 3186 3129 
Q 3597 2675 3597 1894 
z
M 3022 2063 
Q 3016 2534 2758 2815 
Q 2500 3097 2075 3097 
Q 1594 3097 1305 2825 
Q 1016 2553 972 2059 
L 3022 2063 
z
" transform="scale(0.015625)"/>
       <path id="DejaVuSans-74" d="M 1172 4494 
L 1172 3500 
L 2356 3500 
L 2356 3053 
L 1172 3053 
L 1172 1153 
Q 1172 725 1289 603 
Q 1406 481 1766 481 
L 2356 481 
L 2356 0 
L 1766 0 
Q 1100 0 847 248 
Q 594 497 594 1153 
L 594 3053 
L 172 3053 
L 172 3500 
L 594 3500 
L 594 4494 
L 1172 4494 
z
" transform="scale(0.015625)"/>
       <path id="DejaVuSans-72" d="M 2631 2963 
Q 2534 3019 2420 3045 
Q 2306 3072 2169 3072 
Q 1681 3072 1420 2755 
Q 1159 2438 1159 1844 
L 1159 0 
L 581 0 
L 581 3500 
L 1159 3500 
L 1159 2956 
Q 1341 3275 1631 3429 
Q 1922 3584 2338 3584 
Q 2397 3584 2469 3576 
Q 2541 3569 2628 3553 
L 2631 2963 
z
" transform="scale(0.015625)"/>
       <path id="DejaVuSans-73" d="M 2834 3397 
L 2834 2853 
Q 2591 2978 2328 3040 
Q 2066 3103 1784 3103 
Q 1356 3103 1142 2972 
Q 928 2841 928 2578 
Q 928 2378 1081 2264 
Q 1234 2150 1697 2047 
L 1894 2003 
Q 2506 1872 2764 1633 
Q 3022 1394 3022 966 
Q 3022 478 2636 193 
Q 2250 -91 1575 -91 
Q 1294 -91 989 -36 
Q 684 19 347 128 
L 347 722 
Q 666 556 975 473 
Q 1284 391 1588 391 
Q 1994 391 2212 530 
Q 2431 669 2431 922 
Q 2431 1156 2273 1281 
Q 2116 1406 1581 1522 
L 1381 1569 
Q 847 1681 609 1914 
Q 372 2147 372 2553 
Q 372 3047 722 3315 
Q 1072 3584 1716 3584 
Q 2034 3584 2315 3537 
Q 2597 3491 2834 3397 
z
" transform="scale(0.015625)"/>
      </defs>
      <use xlink:href="#DejaVuSans-4d"/>
      <use xlink:href="#DejaVuSans-65" x="86.279297"/>
      <use xlink:href="#DejaVuSans-74" x="147.802734"/>
      <use xlink:href="#DejaVuSans-65" x="187.011719"/>
      <use xlink:href="#DejaVuSans-72" x="248.535156"/>
      <use xlink:href="#DejaVuSans-73" x="289.648438"/>
     </g>
    </g>
   </g>
   <g id="line2d_12">
    <path d="M 115.363636 264.218249 
L 115.647187 264.484979 
L 115.930738 264.548486 
L 116.214289 264.967633 
L 116.49784 264.866021 
L 116.781391 265.259765 
L 117.064942 265.272467 
L 117.348493 264.980334 
L 118.482697 265.412183 
L 119.049799 265.310571 
L 119.33335 265.462988 
L 119.616901 265.856732 
L 119.900452 266.021851 
L 120.467554 266.606116 
L 120.751105 266.631519 
L 121.601758 267.520618 
L 121.885309 267.62223 
L 122.16886 267.17768 
L 123.019513 267.215784 
L 123.303064 267.558723 
L 123.586615 268.346211 
L 123.870166 268.460523 
L 124.153717 268.320808 
L 125.00437 268.435121 
L 125.855023 267.507917 
L 126.422125 268.003272 
L 126.705676 268.346211 
L 127.272778 269.895784 
L 127.556329 269.933888 
L 127.83988 269.375026 
L 128.123431 269.1464 
L 128.406982 266.212372 
L 128.690533 266.55531 
L 128.974084 266.491803 
L 129.541186 264.357965 
L 129.824737 262.694079 
L 130.958941 231.118347 
L 131.242492 227.244413 
L 131.526043 226.075883 
L 131.809594 226.863371 
L 132.376696 231.677209 
L 133.5109 243.235502 
L 133.794451 245.509056 
L 134.078002 245.191521 
L 134.361553 245.483654 
L 134.928655 246.271142 
L 135.212206 246.550573 
L 135.495757 247.655596 
L 136.062859 248.125549 
L 136.34641 248.620904 
L 136.913512 250.284791 
L 137.197063 251.491425 
L 139.18192 255.975027 
L 139.749022 256.902231 
L 140.032573 257.194363 
L 140.883226 259.213889 
L 141.166777 260.217301 
L 141.733879 260.966685 
L 142.01743 261.042894 
L 142.584532 261.525548 
L 142.868083 261.601756 
L 143.435185 262.122515 
L 145.136491 263.392657 
L 145.703593 263.710192 
L 145.987144 263.862609 
L 146.554246 264.332562 
L 146.837797 264.523083 
L 147.404899 265.38678 
L 147.68845 265.869434 
L 148.255552 265.958344 
L 148.822654 265.462988 
L 149.106205 265.577301 
L 149.389756 265.551898 
L 149.673307 257.372183 
L 150.240409 235.487635 
L 150.52396 227.346025 
L 150.807511 222.92593 
L 151.091062 221.287447 
L 151.374613 221.211239 
L 151.658164 221.922518 
L 151.941715 221.909817 
L 153.075918 205.84252 
L 153.64302 200.266596 
L 154.210122 196.81181 
L 154.493673 195.770293 
L 154.777224 195.274938 
L 155.060775 195.592473 
L 155.627877 197.446881 
L 156.47853 203.403847 
L 157.896285 215.089154 
L 159.31404 224.589817 
L 160.164693 229.543371 
L 162.14955 242.359104 
L 162.716652 244.797777 
L 163.000203 245.077208 
L 163.283754 246.144127 
L 164.134407 247.680999 
L 165.552162 251.313606 
L 165.835713 251.478724 
L 167.253468 254.158724 
L 167.82057 255.251046 
L 168.104121 253.650667 
L 168.387672 244.264317 
L 169.238325 208.3447 
L 169.805427 194.690672 
L 170.088978 190.359488 
L 170.372529 187.857308 
L 170.65608 186.968209 
L 170.939631 187.019014 
L 171.506733 188.695602 
L 172.073835 191.489914 
L 173.208039 199.110767 
L 174.058692 206.896738 
L 175.476447 220.068111 
L 176.3271 226.952281 
L 178.028406 236.529152 
L 179.729712 242.778251 
L 180.580365 244.46754 
L 181.99812 249.598914 
L 182.848773 251.072279 
L 183.132324 251.402516 
L 183.415875 252.190004 
L 183.982977 252.317018 
L 184.550079 253.066402 
L 184.83363 253.269624 
L 185.117181 254.057112 
L 185.400732 254.171425 
L 186.251385 255.02242 
L 186.818487 254.997018 
L 187.66914 255.708297 
L 187.952691 256.063937 
L 188.519793 257.537302 
L 188.803344 237.240432 
L 189.086895 230.318157 
L 189.370446 237.418251 
L 189.653997 257.918344 
L 190.221099 258.248581 
L 190.788201 258.832847 
L 191.071752 258.807444 
L 191.355303 258.528013 
L 191.638854 258.820145 
L 191.922405 259.417112 
L 192.205956 259.747349 
L 193.907262 260.699955 
L 194.190813 260.91588 
L 194.474364 260.801567 
L 194.757915 261.030192 
L 195.608568 262.70678 
L 195.892119 262.846496 
L 196.175669 262.643273 
L 196.45922 263.06242 
L 197.026322 262.846496 
L 198.444077 263.532372 
L 198.727628 263.735595 
L 200.145383 264.14204 
L 200.712485 264.383367 
L 200.996036 264.789813 
L 201.279587 264.815216 
L 201.563138 265.170856 
L 201.846689 265.971045 
L 203.264444 267.952467 
L 203.547995 268.003272 
L 204.682199 265.983746 
L 205.249301 265.894837 
L 205.816403 266.428296 
L 206.383505 266.402893 
L 206.667056 266.250476 
L 207.234158 266.250476 
L 207.517709 266.479102 
L 207.80126 263.15133 
L 208.935464 138.677407 
L 209.219015 126.699968 
L 209.502566 119.637978 
L 209.786117 115.45921 
L 210.353219 111.064519 
L 210.920321 108.803666 
L 211.203872 107.838358 
L 211.770974 102.376747 
L 212.338076 97.461297 
L 212.905178 92.710966 
L 213.188729 91.390018 
L 213.47228 90.666037 
L 213.755831 90.526322 
L 214.039382 90.539023 
L 214.322933 90.843857 
L 214.606484 91.631345 
L 215.173586 94.311345 
L 215.740688 98.3758 
L 216.30779 103.557979 
L 216.591341 103.557979 
L 216.874892 108.829069 
L 217.725545 117.123096 
L 218.009096 110.734282 
L 218.292647 92.74907 
L 218.859749 77.45656 
L 219.426851 69.708693 
L 219.993953 65.682343 
L 221.128157 60.258836 
L 221.695259 58.836277 
L 222.545912 57.096182 
L 223.113014 55.292581 
L 223.396565 54.632107 
L 223.680116 54.327273 
L 223.963667 54.492391 
L 224.247218 55.140164 
L 224.81432 57.807462 
L 225.381422 62.125945 
L 226.232075 70.775612 
L 227.64983 89.383194 
L 229.634687 115.63703 
L 230.768891 127.728783 
L 231.903095 138.143948 
L 232.753748 146.946032 
L 233.887952 161.070012 
L 235.305707 178.890105 
L 237.290564 199.834748 
L 237.857666 203.670577 
L 238.99187 208.713041 
L 240.126073 213.476073 
L 240.976726 216.283087 
L 241.543828 217.362708 
L 242.394481 220.017305 
L 243.812236 225.008963 
L 244.662889 226.977684 
L 244.94644 227.015788 
L 245.797093 228.209721 
L 246.931297 230.826214 
L 247.498399 231.842328 
L 247.78195 232.375787 
L 248.065501 232.350385 
L 248.349052 232.553607 
L 249.199705 234.052375 
L 250.050358 236.071901 
L 250.333909 236.529152 
L 250.61746 236.719673 
L 250.901011 236.770479 
L 251.184562 237.062612 
L 251.751664 238.307351 
L 252.035215 237.837398 
L 252.318766 238.167635 
L 252.885868 239.19645 
L 253.736521 240.060147 
L 254.303623 240.326877 
L 255.154276 240.237967 
L 255.437827 240.542801 
L 256.004929 240.682517 
L 256.28848 241.114365 
L 256.572031 241.292185 
L 258.273337 244.1119 
L 258.556888 244.099199 
L 258.840439 244.28972 
L 259.12399 244.683464 
L 259.407541 244.658061 
L 259.691092 245.191521 
L 259.974643 245.445549 
L 260.258194 245.851995 
L 260.825296 246.055217 
L 261.108847 246.626781 
L 261.392398 246.499767 
L 261.675949 246.029815 
L 261.9595 245.864696 
L 262.243051 245.877398 
L 262.810153 246.741094 
L 263.660806 248.93844 
L 264.79501 250.99607 
L 265.078561 250.703937 
L 265.362112 250.056165 
L 265.645663 249.954554 
L 265.929214 249.992658 
L 267.63052 251.161189 
L 268.197622 251.135786 
L 268.481173 250.767445 
L 268.764724 250.132373 
L 269.048275 249.979956 
L 270.749581 254.057112 
L 271.600234 254.844601 
L 272.167336 253.891994 
L 272.450887 254.095217 
L 272.734438 253.891994 
L 273.30154 254.222231 
L 273.868642 254.400051 
L 274.435744 254.984316 
L 274.719295 254.908108 
L 275.002846 255.162136 
L 275.569948 254.171425 
L 275.853499 254.603274 
L 276.13705 254.311141 
L 277.554805 255.835311 
L 277.838356 255.581283 
L 278.121907 255.568582 
L 278.405458 255.784506 
L 278.689009 255.682894 
L 279.256111 256.521188 
L 279.539662 256.330667 
L 280.106764 256.521188 
L 280.390315 256.317965 
L 280.673866 255.91152 
L 282.375172 256.305264 
L 283.225824 256.381472 
L 283.792926 257.207065 
L 284.076477 257.283273 
L 284.360028 243.743559 
L 284.643579 244.175407 
L 285.210681 257.626212 
L 285.494232 250.602326 
L 285.777783 257.448392 
L 286.344885 257.61351 
L 286.911987 258.045359 
L 287.195538 257.677017 
L 287.479089 258.045359 
L 288.046191 258.286686 
L 288.329742 258.337491 
L 288.613293 258.76934 
L 288.896844 258.121567 
L 289.180395 257.905643 
L 289.747497 257.943747 
L 290.031048 258.096164 
L 290.314599 258.68043 
L 290.59815 224.539011 
L 290.881701 231.499389 
L 291.165252 245.674175 
L 291.448803 252.96479 
L 291.732354 253.117207 
L 292.015905 253.104506 
L 292.299456 260.712657 
L 292.866558 260.141093 
L 293.150109 260.128392 
L 293.43366 260.230003 
L 293.717211 260.077586 
L 294.000762 260.052183 
L 294.284313 260.179197 
L 294.567864 260.166496 
L 295.134966 260.56024 
L 295.418517 260.611046 
L 295.702068 259.988676 
L 296.26917 259.658439 
L 296.552721 260.001377 
L 296.836272 260.153794 
L 297.119823 260.966685 
L 297.403374 247.452374 
L 297.686925 247.401568 
L 297.970476 254.793795 
L 298.254027 233.391901 
L 298.537578 226.749058 
L 298.821129 261.957396 
L 299.671782 260.839671 
L 299.955333 261.322325 
L 300.238884 261.296922 
L 300.522435 261.423936 
L 301.089537 261.246117 
L 301.373088 260.979387 
L 301.656639 261.512846 
L 302.223741 261.614458 
L 302.507292 261.322325 
L 302.790843 261.322325 
L 303.357945 262.097112 
L 303.641496 262.109813 
L 305.059251 225.847257 
L 305.626353 217.718348 
L 306.193455 214.009533 
L 306.477006 213.526879 
L 306.760557 214.365173 
L 307.327659 217.985078 
L 307.894761 222.506784 
L 309.028965 232.807636 
L 309.879618 238.421664 
L 311.013822 243.616545 
L 311.864475 245.470952 
L 312.148026 246.43626 
L 312.431577 246.830004 
L 312.715128 247.007824 
L 312.998679 246.982421 
L 313.28223 246.588677 
L 314.132883 244.340526 
L 315.267087 240.860336 
L 315.550638 240.746024 
L 315.834189 240.834934 
L 316.11774 241.16517 
L 316.684842 242.397208 
L 318.95325 248.557397 
L 320.371005 251.2628 
L 320.938107 252.215406 
L 321.221658 252.761568 
L 322.639413 254.311141 
L 322.922964 254.260335 
L 323.206515 254.069814 
L 323.773617 255.085928 
L 324.057168 255.238345 
L 324.340719 255.632089 
L 324.62427 255.543179 
L 324.907821 255.924221 
L 325.191372 256.013131 
L 325.758473 256.521188 
L 326.042024 256.546591 
L 326.325575 256.775216 
L 326.609126 256.762515 
L 327.176228 257.245169 
L 327.459779 257.956449 
L 327.74333 257.550003 
L 328.026881 257.486496 
L 328.310432 257.689719 
L 328.593983 257.740524 
L 329.161085 258.172373 
L 329.728187 258.286686 
L 330.011738 258.134268 
L 330.295289 258.134268 
L 330.57884 258.337491 
L 330.862391 258.743937 
L 331.713044 259.264695 
L 331.996595 258.832847 
L 332.280146 258.655027 
L 332.563697 258.921757 
L 332.847248 259.67114 
L 333.130799 259.798155 
L 333.41435 259.76005 
L 333.697901 260.052183 
L 333.981452 259.975974 
L 334.265003 260.191899 
L 334.548554 259.912467 
L 335.399207 260.788865 
L 335.966309 260.699955 
L 336.24986 260.865074 
L 336.533411 260.369719 
L 336.816962 260.128392 
L 337.667615 260.712657 
L 338.234717 262.097112 
L 338.518268 262.109813 
L 339.08537 261.258818 
L 339.368921 261.360429 
L 339.936023 261.157207 
L 343.338635 211.39304 
L 344.189288 195.186028 
L 344.75639 188.339962 
L 345.323492 185.317024 
L 345.607043 185.19001 
L 345.890594 185.27892 
L 346.174145 185.672664 
L 346.741247 187.920815 
L 347.308349 191.528019 
L 348.159002 198.793231 
L 350.994512 227.028489 
L 351.845165 232.22337 
L 352.979369 237.621474 
L 353.546471 239.259957 
L 354.113573 240.631711 
L 354.680675 242.079673 
L 355.531328 243.984886 
L 356.665532 245.940905 
L 356.949083 245.940905 
L 357.232634 245.737682 
L 358.083287 247.134838 
L 358.650389 249.154364 
L 359.217491 250.094269 
L 359.501042 250.742042 
L 359.784593 250.945264 
L 360.068144 251.389814 
L 360.351695 250.881757 
L 360.918797 250.691236 
L 361.76945 252.215406 
L 362.620103 253.015596 
L 363.187205 253.688771 
L 363.754307 253.485549 
L 364.321409 252.87588 
L 365.172062 255.047823 
L 365.455613 256.076638 
L 366.022715 257.003842 
L 366.306266 257.016543 
L 366.589817 256.660904 
L 366.873368 256.610098 
L 367.44047 256.102041 
L 367.724021 256.17825 
L 368.007572 256.521188 
L 368.291123 256.546591 
L 368.858225 257.130856 
L 369.141775 257.25787 
L 369.425326 257.143558 
L 370.275979 257.854837 
L 370.843081 256.927634 
L 371.126632 256.940335 
L 371.410183 257.321378 
L 371.693734 257.981851 
L 371.977285 258.299387 
L 372.544387 259.290098 
L 373.111489 259.175785 
L 373.39504 259.086875 
L 373.678591 259.201188 
L 374.245693 258.642325 
L 375.379897 258.743937 
L 375.663448 258.782041 
L 376.23055 259.302799 
L 376.514101 259.506022 
L 377.081203 259.58223 
L 377.648305 259.455216 
L 378.215407 259.988676 
L 379.633162 260.953984 
L 379.916713 261.144505 
L 380.767366 260.331614 
L 381.050917 260.420524 
L 381.334468 260.64915 
L 381.618019 260.306211 
L 382.185121 260.979387 
L 382.752223 260.128392 
L 383.035774 260.73806 
L 383.319325 260.750761 
L 383.886427 260.458628 
L 384.169978 260.611046 
L 384.73708 260.496733 
L 385.020631 260.839671 
L 385.304182 260.941282 
L 385.871284 261.81768 
L 386.154835 261.538249 
L 386.721937 261.716069 
L 387.005488 261.665263 
L 387.289039 261.741472 
L 387.856141 261.398534 
L 388.139692 261.652562 
L 388.423243 262.186022 
L 388.990345 262.389244 
L 389.273896 262.071709 
L 389.840998 262.554363 
L 390.124549 263.392657 
L 390.4081 263.075121 
L 390.691651 263.303747 
L 390.975202 262.541661 
L 391.542304 261.919292 
L 391.825855 262.274932 
L 392.676508 263.722894 
L 392.960059 263.659386 
L 393.24361 263.913415 
L 393.527161 263.621282 
L 393.810712 263.646685 
L 394.094263 263.913415 
L 394.377814 263.773699 
L 395.512018 264.053131 
L 396.07912 263.926116 
L 396.362671 264.154742 
L 396.646222 264.091235 
L 397.213324 264.31986 
L 397.496875 264.345263 
L 397.780426 264.027728 
L 398.063977 263.926116 
L 398.347528 263.595879 
L 398.91463 264.307159 
L 399.198181 264.866021 
L 399.481732 264.815216 
L 400.048834 265.717017 
L 400.332385 265.996448 
L 400.615936 265.602704 
L 401.183038 265.29787 
L 401.75014 265.043841 
L 402.033691 265.056543 
L 402.600793 265.259765 
L 402.884344 265.056543 
L 403.734997 265.424884 
L 404.018548 265.473149 
L 404.58565 265.158154 
L 404.869201 264.58659 
L 405.152752 264.383367 
L 405.719854 264.967633 
L 406.003405 265.513794 
L 406.570507 267.190381 
L 406.854058 267.330097 
L 407.137609 267.190381 
L 407.42116 266.890628 
L 407.704711 266.809339 
L 407.988262 266.313983 
L 408.555364 266.123462 
L 409.406017 266.250476 
L 409.973119 266.402893 
L 410.540221 266.326685 
L 411.390874 265.932941 
L 411.674425 265.5646 
L 412.241527 266.199671 
L 412.525077 266.212372 
L 413.092179 267.761945 
L 413.37573 268.041377 
L 413.659281 268.041377 
L 413.942832 268.257301 
L 414.226383 268.257301 
L 414.509934 268.041377 
L 414.793485 267.317396 
L 415.077036 266.987159 
L 415.360587 267.101471 
L 415.644138 267.482514 
L 415.927689 267.584125 
L 416.21124 266.618817 
L 416.494791 266.872846 
L 416.778342 267.62223 
L 417.061893 267.596827 
L 417.345444 267.368201 
L 417.628995 267.380903 
L 417.912546 267.685737 
L 418.479648 266.275879 
L 418.763199 266.479102 
L 419.897403 268.473225 
L 421.315158 269.05749 
L 421.598709 268.435121 
L 421.88226 268.384315 
L 422.165811 268.003272 
L 422.449362 267.368201 
L 423.016464 268.295405 
L 423.583566 268.587538 
L 423.867117 268.282704 
L 424.150668 268.460523 
L 424.71777 268.320808 
L 425.284872 267.228486 
L 425.568423 267.291993 
L 425.851974 267.164979 
L 426.135525 267.482514 
L 426.702627 269.222609 
L 426.986178 269.400429 
L 427.55328 269.197206 
L 428.120382 268.485926 
L 428.403933 268.460523 
L 428.687484 268.600239 
L 429.254586 268.244599 
L 429.538137 268.282704 
L 429.821688 268.142988 
L 430.105239 268.244599 
L 430.38879 268.714552 
L 431.239443 267.914362 
L 431.522994 267.80005 
L 431.806545 267.558723 
L 432.373647 267.584125 
L 432.657198 267.380903 
L 433.507851 267.546021 
L 434.358504 267.076069 
L 434.925606 264.777111 
L 435.492708 263.748296 
L 436.05981 263.748296 
L 436.343361 263.633984 
L 436.910463 263.202135 
L 437.761116 263.291045 
L 438.044667 261.296922 
L 438.328218 260.56024 
L 438.611769 260.953984 
L 438.89532 260.420524 
L 439.745973 258.134268 
L 440.029524 258.134268 
L 440.313075 257.626212 
L 440.880177 257.25787 
L 442.297932 259.163084 
L 442.581483 259.315501 
L 443.148585 259.353605 
L 443.999238 259.569529 
L 444.56634 259.887065 
L 444.849891 260.268107 
L 445.700544 260.788865 
L 446.834748 262.236827 
L 448.252503 262.8846 
L 448.536054 262.935405 
L 448.819605 263.24024 
L 449.103156 262.52896 
L 449.386707 259.023368 
L 449.670258 253.32043 
L 450.23736 234.852564 
L 450.804462 214.200054 
L 451.371564 203.51816 
L 451.938666 196.735601 
L 452.222217 194.360435 
L 452.505768 193.052189 
L 452.789319 192.645744 
L 453.07287 192.963279 
L 453.356421 194.017497 
L 453.923523 197.929535 
L 458.176787 232.13446 
L 459.310991 237.519863 
L 460.445195 241.87645 
L 460.728746 242.651237 
L 461.295848 244.55645 
L 464.414909 250.475312 
L 464.69846 250.678535 
L 464.982011 251.250098 
L 465.265562 251.491425 
L 465.549113 252.101094 
L 466.399766 251.872468 
L 466.683317 252.304316 
L 466.966868 253.0537 
L 467.53397 255.403463 
L 468.101072 255.670193 
L 468.668174 256.686307 
L 468.951725 256.648202 
L 469.235276 256.216354 
L 469.518827 256.203653 
L 470.085929 256.800619 
L 470.936582 257.600809 
L 471.503684 257.816733 
L 471.787235 257.804032 
L 472.354337 258.553415 
L 472.921439 258.019956 
L 473.488541 258.553415 
L 473.772092 258.909055 
L 474.055643 259.544126 
L 474.339194 260.636448 
L 474.622745 260.814268 
L 474.906296 260.73806 
L 475.189847 261.411235 
L 475.473398 261.703368 
L 476.324051 260.268107 
L 476.891153 260.750761 
L 477.174704 260.522136 
L 477.741806 260.699955 
L 478.025357 261.246117 
L 478.308908 261.055595 
L 478.592459 261.360429 
L 479.159561 261.436638 
L 479.443112 261.233415 
L 480.010214 260.38242 
L 480.577316 260.941282 
L 481.144418 262.897301 
L 481.427969 262.732183 
L 481.995071 263.532372 
L 482.278622 264.129339 
L 482.845724 262.744884 
L 483.129275 262.630571 
L 483.412826 262.655974 
L 484.263479 263.202135 
L 484.54703 263.646685 
L 485.114132 263.443462 
L 485.681234 263.443462 
L 485.964785 263.481567 
L 486.248336 262.986211 
L 486.531887 262.135216 
L 486.815438 261.919292 
L 487.38254 262.389244 
L 487.949642 264.700903 
L 488.233193 264.31986 
L 488.516744 264.357965 
L 489.083846 264.967633 
L 489.367397 264.611993 
L 489.650948 263.913415 
L 490.21805 263.392657 
L 490.785152 263.583178 
L 491.068703 264.129339 
L 492.770009 264.218249 
L 493.620662 263.252941 
L 494.754866 264.840619 
L 495.321968 265.310571 
L 495.605519 265.221661 
L 496.172621 265.640808 
L 496.739723 264.650097 
L 497.023274 264.827917 
L 497.306825 264.751709 
L 497.590376 265.183557 
L 497.873927 265.29787 
L 498.441029 265.158154 
L 499.00813 265.20896 
L 499.575232 265.196258 
L 499.858783 265.20896 
L 500.142334 265.348675 
L 500.425885 265.335974 
L 500.709436 265.462988 
L 500.992987 265.717017 
L 501.276538 265.310571 
L 501.560089 265.247064 
L 501.84364 264.58659 
L 502.127191 263.379955 
L 502.410742 259.874363 
L 504.112048 221.84631 
L 504.67915 217.540528 
L 505.246252 216.13067 
L 505.813354 214.949438 
L 506.380456 213.742803 
L 506.947558 213.095031 
L 507.231109 213.222045 
L 507.51466 214.022235 
L 507.798211 215.22887 
L 509.499517 225.453513 
L 511.484374 235.982991 
L 512.618578 240.187161 
L 513.469231 242.702042 
L 514.319884 244.91209 
L 514.603435 245.445549 
L 514.886986 246.271142 
L 515.170537 246.753796 
L 515.737639 247.998535 
L 516.02119 248.392279 
L 516.304741 249.014648 
L 525.378373 258.223178 
L 526.229026 258.731235 
L 526.512577 258.845548 
L 526.796128 259.099576 
L 527.646781 259.315501 
L 527.930332 259.861662 
L 528.213883 260.141093 
L 528.780985 261.068297 
L 529.064536 261.042894 
L 529.631638 261.779576 
L 529.915189 261.81768 
L 530.482291 261.474742 
L 531.049393 261.487444 
L 531.616495 261.779576 
L 532.183597 261.957396 
L 532.750699 262.274932 
L 533.601352 262.401946 
L 534.168454 262.376543 
L 535.586209 263.189434 
L 536.153311 263.227538 
L 536.436862 263.087823 
L 536.720413 263.100524 
L 537.003964 262.897301 
L 537.571066 262.97351 
L 538.988821 263.113225 
L 539.555923 262.986211 
L 540.690127 263.214837 
L 540.973678 263.202135 
L 541.54078 263.595879 
L 542.107881 263.519671 
L 542.674983 263.697491 
L 543.242085 263.252941 
L 544.376289 262.960808 
L 544.943391 264.091235 
L 545.226942 264.091235 
L 545.510493 263.938818 
L 545.794044 263.989623 
L 546.077595 263.900713 
L 546.644697 264.332562 
L 547.211799 264.523083 
L 547.778901 263.633984 
L 548.346003 263.900713 
L 548.629554 264.256353 
L 548.913105 264.980334 
L 549.196656 265.272467 
L 549.480207 264.713604 
L 549.763758 264.726306 
L 550.047309 264.967633 
L 550.33086 264.6755 
L 550.614411 264.726306 
L 550.897962 264.40877 
L 553.16637 265.361377 
L 554.300574 265.38678 
L 554.867676 265.437585 
L 555.151227 265.678912 
L 556.00188 265.882135 
L 556.285431 265.780524 
L 556.568982 265.844031 
L 557.419635 265.501092 
L 558.553839 265.5646 
L 559.688043 265.170856 
L 559.971594 264.739007 
L 560.255145 264.053131 
L 560.822247 260.636448 
L 561.389349 256.190951 
L 561.6729 251.326307 
L 562.807104 225.3392 
L 563.374206 215.965552 
L 563.657757 213.323656 
L 564.224859 210.732567 
L 564.50841 210.529344 
L 565.075512 212.663183 
L 565.926165 216.537116 
L 567.34392 223.091049 
L 567.911022 225.174082 
L 568.478124 227.714366 
L 569.328777 232.286877 
L 570.746532 237.93901 
L 572.164287 241.952659 
L 573.01494 244.010289 
L 574.432695 246.372753 
L 574.716246 246.715691 
L 575.85045 248.786023 
L 576.134001 249.662421 
L 576.417552 249.802137 
L 576.984654 250.615027 
L 577.268205 250.894459 
L 577.835307 251.148487 
L 578.68596 251.999482 
L 578.969511 252.355122 
L 579.253062 252.507539 
L 580.103715 253.447444 
L 581.237919 254.438155 
L 583.222776 256.394174 
L 583.789878 256.622799 
L 584.35698 256.521188 
L 584.640531 256.749814 
L 584.924082 257.34678 
L 585.491183 257.194363 
L 585.774734 257.359482 
L 586.625387 258.718534 
L 586.908938 258.756638 
L 587.192489 258.388297 
L 587.47604 258.464505 
L 587.759591 258.108866 
L 588.326693 258.76934 
L 588.610244 258.629624 
L 588.893795 258.68043 
L 589.177346 258.845548 
L 589.460897 258.794742 
L 590.027999 259.988676 
L 590.595101 259.467918 
L 591.445754 259.455216 
L 591.729305 259.620335 
L 592.012856 259.391709 
L 592.579958 259.658439 
L 592.863509 260.11569 
L 593.14706 260.255406 
L 593.430611 260.128392 
L 595.415468 260.38242 
L 596.549672 261.106401 
L 596.833223 260.966685 
L 597.400325 260.02678 
L 597.967427 258.934458 
L 598.250978 257.448392 
L 599.668733 245.178819 
L 599.952284 243.921379 
L 600.235835 243.375218 
L 600.519386 243.349815 
L 600.802937 243.641948 
L 602.220692 246.588677 
L 603.354896 246.931615 
L 604.4891 239.437777 
L 605.056202 237.608773 
L 606.473957 226.990385 
L 606.757508 226.698252 
L 607.041059 226.710954 
L 607.608161 227.447636 
L 607.891712 227.48574 
L 608.742365 228.070006 
L 609.025916 228.158916 
L 609.309467 228.527257 
L 609.876569 229.771996 
L 610.16012 230.686498 
L 610.443671 232.007446 
L 611.010773 233.150574 
L 611.294324 234.433418 
L 612.428528 237.291237 
L 612.712079 238.11683 
L 612.99563 238.586782 
L 613.846283 240.809531 
L 614.413385 241.901853 
L 615.264038 243.93408 
L 616.114691 245.318535 
L 616.681793 246.690288 
L 617.248895 248.430383 
L 617.532446 248.354175 
L 617.815997 248.925739 
L 618.099548 249.751331 
L 618.66665 250.81825 
L 618.950201 250.767445 
L 619.517303 251.631141 
L 619.800854 251.681947 
L 620.651507 252.901283 
L 620.935058 253.079103 
L 621.218609 253.536354 
L 621.50216 253.714174 
L 621.785711 254.03171 
L 622.352813 254.133321 
L 622.636364 253.663368 
L 622.636364 253.663368 
" clip-path="url(#p0f09853874)" style="fill: none; stroke: #1f77b4; stroke-width: 1.5; stroke-linecap: square"/>
   </g>
   <g id="line2d_13">
    <path d="M 115.363636 262.317523 
L 115.930738 262.479065 
L 116.214289 264.548486 
L 120.184003 265.53171 
L 120.467554 265.238031 
L 121.034656 264.403418 
L 121.601758 260.213367 
L 122.16886 259.190673 
L 122.735962 254.800705 
L 123.019513 267.164979 
L 124.153717 267.309282 
L 128.406982 268.13871 
L 128.974084 266.633824 
L 129.541186 266.885668 
L 130.108288 261.954702 
L 130.391839 260.545858 
L 130.67539 260.438232 
L 130.958941 260.153114 
L 131.809594 257.131086 
L 132.093145 256.863433 
L 132.660247 256.813061 
L 133.794451 257.169905 
L 136.34641 258.113879 
L 136.629961 248.620904 
L 138.331267 249.467841 
L 143.151634 251.871075 
L 143.435185 261.944695 
L 149.106205 263.907688 
L 149.389756 263.981836 
L 149.956858 263.928223 
L 150.240409 245.636071 
L 151.941715 234.522003 
L 152.508817 227.916502 
L 152.792367 226.383307 
L 153.926571 217.350504 
L 154.493673 215.066577 
L 154.777224 214.501229 
L 155.060775 214.205976 
L 155.344326 214.29435 
L 155.911428 214.623901 
L 156.47853 214.716138 
L 156.762081 214.965801 
L 157.045632 205.880624 
L 157.329183 205.672026 
L 157.896285 205.640817 
L 158.463387 205.932339 
L 159.31404 206.67853 
L 161.015346 208.563863 
L 163.567305 211.517545 
L 163.850856 246.626781 
L 168.387672 249.101994 
L 168.671223 249.039767 
L 169.238325 245.167655 
L 169.805427 244.029578 
L 170.372529 239.699037 
L 170.65608 187.857308 
L 170.939631 186.755026 
L 171.223182 186.38426 
L 171.506733 186.429274 
L 172.073835 187.059742 
L 173.775141 189.747987 
L 177.177753 195.062897 
L 177.461304 232.40119 
L 181.99812 236.026216 
L 183.982977 237.520148 
L 184.266528 252.317018 
L 189.653997 254.723093 
L 190.788201 255.200172 
L 191.071752 258.832847 
L 197.309873 260.896197 
L 197.593424 260.984517 
L 197.876975 263.113225 
L 204.398648 264.78437 
L 204.682199 266.288581 
L 205.816403 266.533843 
L 206.383505 266.622149 
L 206.667056 266.71215 
L 207.80126 266.605712 
L 210.920321 267.337644 
L 211.203872 267.554759 
L 211.487423 265.666948 
L 211.770974 262.665586 
L 212.054525 261.917818 
L 212.338076 262.426444 
L 212.621627 260.84944 
L 213.188729 256.184102 
L 213.47228 255.083686 
L 213.755831 254.593404 
L 214.039382 254.45355 
L 214.606484 254.5604 
L 216.024239 255.241421 
L 216.30779 255.423021 
L 216.874892 255.117447 
L 217.441994 276.872727 
L 217.725545 276.6728 
L 218.009096 275.901301 
L 218.576198 273.683682 
L 219.1433 269.537306 
L 219.710402 268.304282 
L 219.993953 268.006862 
L 220.561055 267.921446 
L 221.97881 268.196014 
L 229.067585 269.691697 
L 236.439911 271.010939 
L 238.424768 271.329505 
L 238.708319 206.007638 
L 242.961583 211.093024 
L 245.229991 213.65669 
L 245.513542 227.384129 
L 250.050358 231.188447 
L 251.184562 231.986987 
L 251.468113 231.463414 
L 252.035215 228.170542 
L 252.318766 237.837398 
L 252.885868 234.586416 
L 253.45297 232.79287 
L 254.020072 231.932999 
L 254.587174 231.633653 
L 255.154276 231.659978 
L 256.004929 232.019342 
L 257.422684 232.957084 
L 258.840439 234.0045 
L 259.12399 244.28972 
L 263.944357 247.129848 
L 269.048275 249.876666 
L 274.435744 252.511368 
L 279.823213 254.899235 
L 285.494232 257.171504 
L 289.180395 258.67732 
L 292.866558 260.232869 
L 293.150109 260.141093 
L 297.686925 261.923011 
L 298.254027 261.679844 
L 298.821129 261.950232 
L 299.10468 261.700267 
L 299.388231 261.274462 
L 299.955333 261.202851 
L 301.089537 261.562329 
L 307.327659 263.754178 
L 312.998679 265.502933 
L 319.236801 267.186946 
L 325.758473 268.711487 
L 332.847248 270.130987 
L 339.936023 271.337433 
L 343.338635 227.860432 
L 343.905737 224.849717 
L 344.189288 223.97053 
L 344.472839 223.551911 
L 344.75639 223.495482 
L 345.323492 223.807135 
L 347.024798 225.390624 
L 350.710961 228.814043 
L 350.994512 221.611333 
L 355.247777 225.823956 
L 356.381981 226.893366 
L 356.665532 244.969246 
L 361.202348 248.100996 
L 363.187205 249.383861 
L 363.470756 253.295027 
L 369.141775 255.725096 
L 369.992428 256.068387 
L 370.275979 257.276923 
L 376.23055 259.41179 
L 376.797652 259.603265 
L 377.081203 259.506022 
L 379.633162 260.374388 
L 380.483815 260.063889 
L 380.767366 260.19713 
L 381.050917 260.013137 
L 382.185121 258.395898 
L 383.602876 257.096559 
L 383.886427 260.858723 
L 386.154835 261.754866 
L 386.438386 261.719957 
L 386.721937 261.807152 
L 387.57259 261.582698 
L 388.423243 261.829531 
L 390.4081 262.714576 
L 390.691651 263.3355 
L 395.228467 265.158334 
L 397.213324 265.884347 
L 397.496875 264.211898 
L 402.033691 265.928108 
L 404.018548 266.611279 
L 404.302099 265.374078 
L 409.122466 267.039631 
L 411.957976 267.915821 
L 412.241527 265.932941 
L 417.061893 267.525643 
L 417.912546 267.78424 
L 418.196097 267.368201 
L 423.300015 268.849218 
L 428.971035 270.25348 
L 431.239443 270.7522 
L 431.522994 268.422419 
L 434.074953 268.725163 
L 435.492708 268.445705 
L 435.776259 268.31032 
L 436.910463 267.310361 
L 437.761116 266.852958 
L 438.044667 266.797716 
L 439.178871 254.01166 
L 439.745973 250.450011 
L 440.313075 248.800313 
L 440.880177 248.150031 
L 441.447279 247.989126 
L 442.297932 248.143464 
L 443.999238 248.858494 
L 446.267646 249.914457 
L 446.551197 260.788865 
L 447.685401 261.104573 
L 447.968952 262.376543 
L 451.655115 263.295888 
L 451.938666 208.357401 
L 452.222217 208.160048 
L 452.789319 206.738357 
L 453.356421 204.653018 
L 453.923523 202.841831 
L 454.207074 202.511598 
L 454.490625 202.473593 
L 455.057727 202.899203 
L 456.19193 204.404206 
L 460.728746 210.701735 
L 464.414909 215.426828 
L 465.265562 216.469023 
L 465.549113 250.678535 
L 470.36948 253.142812 
L 472.070786 253.957793 
L 472.354337 257.816733 
L 478.025357 259.932247 
L 478.87601 260.229539 
L 479.159561 261.055595 
L 485.397683 262.992776 
L 485.681234 263.07526 
L 485.964785 263.443462 
L 490.501601 265.253194 
L 492.486458 265.97394 
L 492.770009 264.116638 
L 497.306825 265.844466 
L 499.291681 266.532284 
L 499.575232 265.234363 
L 502.127191 266.116065 
L 502.410742 265.983292 
L 502.694293 265.392415 
L 503.261395 262.373156 
L 504.112048 254.665133 
L 504.962701 245.35298 
L 506.096905 235.522936 
L 506.380456 215.635315 
L 506.664007 215.213729 
L 506.947558 215.19079 
L 507.51466 215.70686 
L 508.932415 217.750192 
L 511.200823 221.102944 
L 511.484374 221.314075 
L 512.051476 221.169403 
L 512.335027 220.333396 
L 512.902129 217.955397 
L 513.18568 239.310763 
L 514.036333 239.760487 
L 516.02119 240.985388 
L 516.304741 241.065949 
L 533.317801 250.862704 
L 533.601352 262.274932 
L 536.153311 263.414852 
L 536.436862 263.42825 
L 537.003964 263.205397 
L 537.571066 262.355671 
L 538.70527 260.80269 
L 539.272372 260.718162 
L 540.123025 261.01805 
L 540.406576 262.986211 
L 545.510493 265.064744 
L 546.928248 265.605929 
L 547.211799 264.154742 
L 547.49535 264.208676 
L 548.346003 263.641559 
L 548.913105 263.132189 
L 549.480207 263.055595 
L 550.33086 263.30841 
L 550.614411 263.437714 
L 551.748615 263.358097 
L 552.315717 263.182831 
L 552.882819 263.248629 
L 553.16637 263.374421 
L 553.449921 262.824063 
L 553.733472 261.843339 
L 554.017023 265.361377 
L 555.151227 260.156284 
L 555.434778 259.628365 
L 555.718329 259.399175 
L 556.285431 259.395874 
L 557.419635 259.902405 
L 557.986737 260.234246 
L 558.553839 259.847749 
L 558.83739 259.941005 
L 559.404492 257.920425 
L 559.688043 256.588368 
L 560.538696 250.110824 
L 560.822247 264.739007 
L 561.389349 261.474672 
L 562.523553 252.580799 
L 563.657757 242.806447 
L 564.224859 239.612723 
L 564.50841 238.549971 
L 564.791961 237.962945 
L 565.075512 237.751197 
L 565.359063 237.77511 
L 565.926165 238.162641 
L 567.34392 239.590028 
L 567.627471 220.588869 
L 571.030083 223.628436 
L 574.149144 225.415705 
L 574.432695 245.026402 
L 575.566899 245.926424 
L 580.103715 249.734076 
L 580.954368 250.402166 
L 581.237919 253.663368 
L 585.207633 256.272063 
L 587.759591 257.808521 
L 588.043142 258.388297 
L 592.296407 260.659524 
L 594.564815 261.765849 
L 594.848366 260.102989 
L 595.415468 260.359535 
L 595.98257 260.460858 
L 596.549672 259.369629 
L 597.116774 256.669641 
L 597.683876 253.399535 
L 598.250978 250.648249 
L 598.81808 248.174725 
L 599.952284 242.7912 
L 600.235835 241.577606 
L 600.519386 240.901388 
L 600.802937 240.626226 
L 601.086488 240.60762 
L 601.370039 240.734264 
L 601.65359 243.641948 
L 603.071345 244.881513 
L 607.041059 248.339554 
L 608.175263 249.266752 
L 608.458814 227.447636 
L 613.279181 233.434382 
L 614.980487 235.406721 
L 615.264038 241.901853 
L 619.517303 245.884075 
L 621.785711 247.848158 
L 622.069262 253.536354 
L 622.636364 253.927913 
L 622.636364 253.927913 
" clip-path="url(#p0f09853874)" style="fill: none; stroke: #ff7f0e; stroke-width: 1.5; stroke-linecap: square"/>
   </g>
   <g id="patch_3">
    <path d="M 90 288 
L 90 43.2 
" style="fill: none; stroke: #000000; stroke-width: 0.8; stroke-linejoin: miter; stroke-linecap: square"/>
   </g>
   <g id="patch_4">
    <path d="M 648 288 
L 648 43.2 
" style="fill: none; stroke: #000000; stroke-width: 0.8; stroke-linejoin: miter; stroke-linecap: square"/>
   </g>
   <g id="patch_5">
    <path d="M 90 288 
L 648 288 
" style="fill: none; stroke: #000000; stroke-width: 0.8; stroke-linejoin: miter; stroke-linecap: square"/>
   </g>
   <g id="patch_6">
    <path d="M 90 43.2 
L 648 43.2 
" style="fill: none; stroke: #000000; stroke-width: 0.8; stroke-linejoin: miter; stroke-linecap: square"/>
   </g>
   <g id="text_13">
    <!-- DET004 -->
    <g transform="translate(345.471563 37.2) scale(0.12 -0.12)">
     <defs>
      <path id="DejaVuSans-44" d="M 1259 4147 
L 1259 519 
L 2022 519 
Q 2988 519 3436 956 
Q 3884 1394 3884 2338 
Q 3884 3275 3436 3711 
Q 2988 4147 2022 4147 
L 1259 4147 
z
M 628 4666 
L 1925 4666 
Q 3281 4666 3915 4102 
Q 4550 3538 4550 2338 
Q 4550 1131 3912 565 
Q 3275 0 1925 0 
L 628 0 
L 628 4666 
z
" transform="scale(0.015625)"/>
      <path id="DejaVuSans-45" d="M 628 4666 
L 3578 4666 
L 3578 4134 
L 1259 4134 
L 1259 2753 
L 3481 2753 
L 3481 2222 
L 1259 2222 
L 1259 531 
L 3634 531 
L 3634 0 
L 628 0 
L 628 4666 
z
" transform="scale(0.015625)"/>
      <path id="DejaVuSans-54" d="M -19 4666 
L 3928 4666 
L 3928 4134 
L 2272 4134 
L 2272 0 
L 1638 0 
L 1638 4134 
L -19 4134 
L -19 4666 
z
" transform="scale(0.015625)"/>
      <path id="DejaVuSans-34" d="M 2419 4116 
L 825 1625 
L 2419 1625 
L 2419 4116 
z
M 2253 4666 
L 3047 4666 
L 3047 1625 
L 3713 1625 
L 3713 1100 
L 3047 1100 
L 3047 0 
L 2419 0 
L 2419 1100 
L 313 1100 
L 313 1709 
L 2253 4666 
z
" transform="scale(0.015625)"/>
     </defs>
     <use xlink:href="#DejaVuSans-44"/>
     <use xlink:href="#DejaVuSans-45" x="77.001953"/>
     <use xlink:href="#DejaVuSans-54" x="140.185547"/>
     <use xlink:href="#DejaVuSans-30" x="201.269531"/>
     <use xlink:href="#DejaVuSans-30" x="264.892578"/>
     <use xlink:href="#DejaVuSans-34" x="328.515625"/>
    </g>
   </g>
   <g id="legend_1">
    <g id="patch_7">
     <path d="M 559.04375 80.55625 
L 641 80.55625 
Q 643 80.55625 643 78.55625 
L 643 50.2 
Q 643 48.2 641 48.2 
L 559.04375 48.2 
Q 557.04375 48.2 557.04375 50.2 
L 557.04375 78.55625 
Q 557.04375 80.55625 559.04375 80.55625 
z
" style="fill: #ffffff; opacity: 0.8; stroke: #cccccc; stroke-linejoin: miter"/>
    </g>
    <g id="line2d_14">
     <path d="M 561.04375 56.298437 
L 571.04375 56.298437 
L 581.04375 56.298437 
" style="fill: none; stroke: #1f77b4; stroke-width: 1.5; stroke-linecap: square"/>
    </g>
    <g id="text_14">
     <!-- measured -->
     <g transform="translate(589.04375 59.798437) scale(0.1 -0.1)">
      <defs>
       <path id="DejaVuSans-6d" d="M 3328 2828 
Q 3544 3216 3844 3400 
Q 4144 3584 4550 3584 
Q 5097 3584 5394 3201 
Q 5691 2819 5691 2113 
L 5691 0 
L 5113 0 
L 5113 2094 
Q 5113 2597 4934 2840 
Q 4756 3084 4391 3084 
Q 3944 3084 3684 2787 
Q 3425 2491 3425 1978 
L 3425 0 
L 2847 0 
L 2847 2094 
Q 2847 2600 2669 2842 
Q 2491 3084 2119 3084 
Q 1678 3084 1418 2786 
Q 1159 2488 1159 1978 
L 1159 0 
L 581 0 
L 581 3500 
L 1159 3500 
L 1159 2956 
Q 1356 3278 1631 3431 
Q 1906 3584 2284 3584 
Q 2666 3584 2933 3390 
Q 3200 3197 3328 2828 
z
" transform="scale(0.015625)"/>
       <path id="DejaVuSans-61" d="M 2194 1759 
Q 1497 1759 1228 1600 
Q 959 1441 959 1056 
Q 959 750 1161 570 
Q 1363 391 1709 391 
Q 2188 391 2477 730 
Q 2766 1069 2766 1631 
L 2766 1759 
L 2194 1759 
z
M 3341 1997 
L 3341 0 
L 2766 0 
L 2766 531 
Q 2569 213 2275 61 
Q 1981 -91 1556 -91 
Q 1019 -91 701 211 
Q 384 513 384 1019 
Q 384 1609 779 1909 
Q 1175 2209 1959 2209 
L 2766 2209 
L 2766 2266 
Q 2766 2663 2505 2880 
Q 2244 3097 1772 3097 
Q 1472 3097 1187 3025 
Q 903 2953 641 2809 
L 641 3341 
Q 956 3463 1253 3523 
Q 1550 3584 1831 3584 
Q 2591 3584 2966 3190 
Q 3341 2797 3341 1997 
z
" transform="scale(0.015625)"/>
       <path id="DejaVuSans-75" d="M 544 1381 
L 544 3500 
L 1119 3500 
L 1119 1403 
Q 1119 906 1312 657 
Q 1506 409 1894 409 
Q 2359 409 2629 706 
Q 2900 1003 2900 1516 
L 2900 3500 
L 3475 3500 
L 3475 0 
L 2900 0 
L 2900 538 
Q 2691 219 2414 64 
Q 2138 -91 1772 -91 
Q 1169 -91 856 284 
Q 544 659 544 1381 
z
M 1991 3584 
L 1991 3584 
z
" transform="scale(0.015625)"/>
       <path id="DejaVuSans-64" d="M 2906 2969 
L 2906 4863 
L 3481 4863 
L 3481 0 
L 2906 0 
L 2906 525 
Q 2725 213 2448 61 
Q 2172 -91 1784 -91 
Q 1150 -91 751 415 
Q 353 922 353 1747 
Q 353 2572 751 3078 
Q 1150 3584 1784 3584 
Q 2172 3584 2448 3432 
Q 2725 3281 2906 2969 
z
M 947 1747 
Q 947 1113 1208 752 
Q 1469 391 1925 391 
Q 2381 391 2643 752 
Q 2906 1113 2906 1747 
Q 2906 2381 2643 2742 
Q 2381 3103 1925 3103 
Q 1469 3103 1208 2742 
Q 947 2381 947 1747 
z
" transform="scale(0.015625)"/>
      </defs>
      <use xlink:href="#DejaVuSans-6d"/>
      <use xlink:href="#DejaVuSans-65" x="97.412109"/>
      <use xlink:href="#DejaVuSans-61" x="158.935547"/>
      <use xlink:href="#DejaVuSans-73" x="220.214844"/>
      <use xlink:href="#DejaVuSans-75" x="272.314453"/>
      <use xlink:href="#DejaVuSans-72" x="335.693359"/>
      <use xlink:href="#DejaVuSans-65" x="374.556641"/>
      <use xlink:href="#DejaVuSans-64" x="436.080078"/>
     </g>
    </g>
    <g id="line2d_15">
     <path d="M 561.04375 70.976562 
L 571.04375 70.976562 
L 581.04375 70.976562 
" style="fill: none; stroke: #ff7f0e; stroke-width: 1.5; stroke-linecap: square"/>
    </g>
    <g id="text_15">
     <!-- predicted -->
     <g transform="translate(589.04375 74.476562) scale(0.1 -0.1)">
      <defs>
       <path id="DejaVuSans-70" d="M 1159 525 
L 1159 -1331 
L 581 -1331 
L 581 3500 
L 1159 3500 
L 1159 2969 
Q 1341 3281 1617 3432 
Q 1894 3584 2278 3584 
Q 2916 3584 3314 3078 
Q 3713 2572 3713 1747 
Q 3713 922 3314 415 
Q 2916 -91 2278 -91 
Q 1894 -91 1617 61 
Q 1341 213 1159 525 
z
M 3116 1747 
Q 3116 2381 2855 2742 
Q 2594 3103 2138 3103 
Q 1681 3103 1420 2742 
Q 1159 2381 1159 1747 
Q 1159 1113 1420 752 
Q 1681 391 2138 391 
Q 2594 391 2855 752 
Q 3116 1113 3116 1747 
z
" transform="scale(0.015625)"/>
       <path id="DejaVuSans-69" d="M 603 3500 
L 1178 3500 
L 1178 0 
L 603 0 
L 603 3500 
z
M 603 4863 
L 1178 4863 
L 1178 4134 
L 603 4134 
L 603 4863 
z
" transform="scale(0.015625)"/>
       <path id="DejaVuSans-63" d="M 3122 3366 
L 3122 2828 
Q 2878 2963 2633 3030 
Q 2388 3097 2138 3097 
Q 1578 3097 1268 2742 
Q 959 2388 959 1747 
Q 959 1106 1268 751 
Q 1578 397 2138 397 
Q 2388 397 2633 464 
Q 2878 531 3122 666 
L 3122 134 
Q 2881 22 2623 -34 
Q 2366 -91 2075 -91 
Q 1284 -91 818 406 
Q 353 903 353 1747 
Q 353 2603 823 3093 
Q 1294 3584 2113 3584 
Q 2378 3584 2631 3529 
Q 2884 3475 3122 3366 
z
" transform="scale(0.015625)"/>
      </defs>
      <use xlink:href="#DejaVuSans-70"/>
      <use xlink:href="#DejaVuSans-72" x="63.476562"/>
      <use xlink:href="#DejaVuSans-65" x="102.339844"/>
      <use xlink:href="#DejaVuSans-64" x="163.863281"/>
      <use xlink:href="#DejaVuSans-69" x="227.339844"/>
      <use xlink:href="#DejaVuSans-63" x="255.123047"/>
      <use xlink:href="#DejaVuSans-74" x="310.103516"/>
      <use xlink:href="#DejaVuSans-65" x="349.3125"/>
      <use xlink:href="#DejaVuSans-64" x="410.835938"/>
     </g>
    </g>
   </g>
  </g>
 </g>
 <defs>
  <clipPath id="p0f09853874">
   <rect x="90" y="43.2" width="558" height="244.8"/>
  </clipPath>
 </defs>
</svg>
