<?xml version="1.0" encoding="utf-8" standalone="no"?>
<!DOCTYPE svg PUBLIC "-//W3C//DTD SVG 1.1//EN"
  "http://www.w3.org/Graphics/SVG/1.1/DTD/svg11.dtd">
<svg xmlns:xlink="http://www.w3.org/1999/xlink" width="713.085pt" height="351.43625pt" viewBox="0 0 713.085 351.43625" xmlns="http://www.w3.org/2000/svg" version="1.1">
 <metadata>
  <rdf:RDF xmlns:dc="http://purl.org/dc/elements/1.1/" xmlns:cc="http://creativecommons.org/ns#" xmlns:rdf="http://www.w3.org/1999/02/22-rdf-syntax-ns#">
   <cc:Work>
    <dc:type rdf:resource="http://purl.org/dc/dcmitype/StillImage"/>
    <dc:date>2024-05-10T19:36:23.784762</dc:date>
    <dc:format>image/svg+xml</dc:format>
    <dc:creator>
     <cc:Agent>
      <dc:title>Matplotlib v3.8.4, https://matplotlib.org/</dc:title>
     </cc:Agent>
    </dc:creator>
   </cc:Work>
  </rdf:RDF>
 </metadata>
 <defs>
  <style type="text/css">*{stroke-linejoin: round; stroke-linecap: butt}</style>
 </defs>
 <g id="figure_1">
  <g id="patch_1">
   <path d="M -0 351.43625 
L 713.085 351.43625 
L 713.085 0 
L -0 0 
z
" style="fill: #ffffff"/>
  </g>
  <g id="axes_1">
   <g id="patch_2">
    <path d="M 52.375 327.558125 
L 705.885 327.558125 
L 705.885 22.318125 
L 52.375 22.318125 
z
" style="fill: #ffffff"/>
   </g>
   <g id="matplotlib.axis_1">
    <g id="xtick_1">
     <g id="line2d_1">
      <defs>
       <path id="m88d819d94e" d="M 0 0 
L 0 3.5 
" style="stroke: #000000; stroke-width: 0.8"/>
      </defs>
      <g>
       <use xlink:href="#m88d819d94e" x="112.795516" y="327.558125" style="stroke: #000000; stroke-width: 0.8"/>
      </g>
     </g>
     <g id="text_1">
      <!-- 2010 -->
      <g transform="translate(100.070516 342.156563) scale(0.1 -0.1)">
       <defs>
        <path id="DejaVuSans-32" d="M 1228 531 
L 3431 531 
L 3431 0 
L 469 0 
L 469 531 
Q 828 903 1448 1529 
Q 2069 2156 2228 2338 
Q 2531 2678 2651 2914 
Q 2772 3150 2772 3378 
Q 2772 3750 2511 3984 
Q 2250 4219 1831 4219 
Q 1534 4219 1204 4116 
Q 875 4013 500 3803 
L 500 4441 
Q 881 4594 1212 4672 
Q 1544 4750 1819 4750 
Q 2544 4750 2975 4387 
Q 3406 4025 3406 3419 
Q 3406 3131 3298 2873 
Q 3191 2616 2906 2266 
Q 2828 2175 2409 1742 
Q 1991 1309 1228 531 
z
" transform="scale(0.015625)"/>
        <path id="DejaVuSans-30" d="M 2034 4250 
Q 1547 4250 1301 3770 
Q 1056 3291 1056 2328 
Q 1056 1369 1301 889 
Q 1547 409 2034 409 
Q 2525 409 2770 889 
Q 3016 1369 3016 2328 
Q 3016 3291 2770 3770 
Q 2525 4250 2034 4250 
z
M 2034 4750 
Q 2819 4750 3233 4129 
Q 3647 3509 3647 2328 
Q 3647 1150 3233 529 
Q 2819 -91 2034 -91 
Q 1250 -91 836 529 
Q 422 1150 422 2328 
Q 422 3509 836 4129 
Q 1250 4750 2034 4750 
z
" transform="scale(0.015625)"/>
        <path id="DejaVuSans-31" d="M 794 531 
L 1825 531 
L 1825 4091 
L 703 3866 
L 703 4441 
L 1819 4666 
L 2450 4666 
L 2450 531 
L 3481 531 
L 3481 0 
L 794 0 
L 794 531 
z
" transform="scale(0.015625)"/>
       </defs>
       <use xlink:href="#DejaVuSans-32"/>
       <use xlink:href="#DejaVuSans-30" x="63.623047"/>
       <use xlink:href="#DejaVuSans-31" x="127.246094"/>
       <use xlink:href="#DejaVuSans-30" x="190.869141"/>
      </g>
     </g>
    </g>
    <g id="xtick_2">
     <g id="line2d_2">
      <g>
       <use xlink:href="#m88d819d94e" x="220.616765" y="327.558125" style="stroke: #000000; stroke-width: 0.8"/>
      </g>
     </g>
     <g id="text_2">
      <!-- 2012 -->
      <g transform="translate(207.891765 342.156563) scale(0.1 -0.1)">
       <use xlink:href="#DejaVuSans-32"/>
       <use xlink:href="#DejaVuSans-30" x="63.623047"/>
       <use xlink:href="#DejaVuSans-31" x="127.246094"/>
       <use xlink:href="#DejaVuSans-32" x="190.869141"/>
      </g>
     </g>
    </g>
    <g id="xtick_3">
     <g id="line2d_3">
      <g>
       <use xlink:href="#m88d819d94e" x="328.585713" y="327.558125" style="stroke: #000000; stroke-width: 0.8"/>
      </g>
     </g>
     <g id="text_3">
      <!-- 2014 -->
      <g transform="translate(315.860713 342.156563) scale(0.1 -0.1)">
       <defs>
        <path id="DejaVuSans-34" d="M 2419 4116 
L 825 1625 
L 2419 1625 
L 2419 4116 
z
M 2253 4666 
L 3047 4666 
L 3047 1625 
L 3713 1625 
L 3713 1100 
L 3047 1100 
L 3047 0 
L 2419 0 
L 2419 1100 
L 313 1100 
L 313 1709 
L 2253 4666 
z
" transform="scale(0.015625)"/>
       </defs>
       <use xlink:href="#DejaVuSans-32"/>
       <use xlink:href="#DejaVuSans-30" x="63.623047"/>
       <use xlink:href="#DejaVuSans-31" x="127.246094"/>
       <use xlink:href="#DejaVuSans-34" x="190.869141"/>
      </g>
     </g>
    </g>
    <g id="xtick_4">
     <g id="line2d_4">
      <g>
       <use xlink:href="#m88d819d94e" x="436.406961" y="327.558125" style="stroke: #000000; stroke-width: 0.8"/>
      </g>
     </g>
     <g id="text_4">
      <!-- 2016 -->
      <g transform="translate(423.681961 342.156563) scale(0.1 -0.1)">
       <defs>
        <path id="DejaVuSans-36" d="M 2113 2584 
Q 1688 2584 1439 2293 
Q 1191 2003 1191 1497 
Q 1191 994 1439 701 
Q 1688 409 2113 409 
Q 2538 409 2786 701 
Q 3034 994 3034 1497 
Q 3034 2003 2786 2293 
Q 2538 2584 2113 2584 
z
M 3366 4563 
L 3366 3988 
Q 3128 4100 2886 4159 
Q 2644 4219 2406 4219 
Q 1781 4219 1451 3797 
Q 1122 3375 1075 2522 
Q 1259 2794 1537 2939 
Q 1816 3084 2150 3084 
Q 2853 3084 3261 2657 
Q 3669 2231 3669 1497 
Q 3669 778 3244 343 
Q 2819 -91 2113 -91 
Q 1303 -91 875 529 
Q 447 1150 447 2328 
Q 447 3434 972 4092 
Q 1497 4750 2381 4750 
Q 2619 4750 2861 4703 
Q 3103 4656 3366 4563 
z
" transform="scale(0.015625)"/>
       </defs>
       <use xlink:href="#DejaVuSans-32"/>
       <use xlink:href="#DejaVuSans-30" x="63.623047"/>
       <use xlink:href="#DejaVuSans-31" x="127.246094"/>
       <use xlink:href="#DejaVuSans-36" x="190.869141"/>
      </g>
     </g>
    </g>
    <g id="xtick_5">
     <g id="line2d_5">
      <g>
       <use xlink:href="#m88d819d94e" x="544.375909" y="327.558125" style="stroke: #000000; stroke-width: 0.8"/>
      </g>
     </g>
     <g id="text_5">
      <!-- 2018 -->
      <g transform="translate(531.650909 342.156563) scale(0.1 -0.1)">
       <defs>
        <path id="DejaVuSans-38" d="M 2034 2216 
Q 1584 2216 1326 1975 
Q 1069 1734 1069 1313 
Q 1069 891 1326 650 
Q 1584 409 2034 409 
Q 2484 409 2743 651 
Q 3003 894 3003 1313 
Q 3003 1734 2745 1975 
Q 2488 2216 2034 2216 
z
M 1403 2484 
Q 997 2584 770 2862 
Q 544 3141 544 3541 
Q 544 4100 942 4425 
Q 1341 4750 2034 4750 
Q 2731 4750 3128 4425 
Q 3525 4100 3525 3541 
Q 3525 3141 3298 2862 
Q 3072 2584 2669 2484 
Q 3125 2378 3379 2068 
Q 3634 1759 3634 1313 
Q 3634 634 3220 271 
Q 2806 -91 2034 -91 
Q 1263 -91 848 271 
Q 434 634 434 1313 
Q 434 1759 690 2068 
Q 947 2378 1403 2484 
z
M 1172 3481 
Q 1172 3119 1398 2916 
Q 1625 2713 2034 2713 
Q 2441 2713 2670 2916 
Q 2900 3119 2900 3481 
Q 2900 3844 2670 4047 
Q 2441 4250 2034 4250 
Q 1625 4250 1398 4047 
Q 1172 3844 1172 3481 
z
" transform="scale(0.015625)"/>
       </defs>
       <use xlink:href="#DejaVuSans-32"/>
       <use xlink:href="#DejaVuSans-30" x="63.623047"/>
       <use xlink:href="#DejaVuSans-31" x="127.246094"/>
       <use xlink:href="#DejaVuSans-38" x="190.869141"/>
      </g>
     </g>
    </g>
    <g id="xtick_6">
     <g id="line2d_6">
      <g>
       <use xlink:href="#m88d819d94e" x="652.197157" y="327.558125" style="stroke: #000000; stroke-width: 0.8"/>
      </g>
     </g>
     <g id="text_6">
      <!-- 2020 -->
      <g transform="translate(639.472157 342.156563) scale(0.1 -0.1)">
       <use xlink:href="#DejaVuSans-32"/>
       <use xlink:href="#DejaVuSans-30" x="63.623047"/>
       <use xlink:href="#DejaVuSans-32" x="127.246094"/>
       <use xlink:href="#DejaVuSans-30" x="190.869141"/>
      </g>
     </g>
    </g>
   </g>
   <g id="matplotlib.axis_2">
    <g id="ytick_1">
     <g id="line2d_7">
      <defs>
       <path id="m912c409eb7" d="M 0 0 
L -3.5 0 
" style="stroke: #000000; stroke-width: 0.8"/>
      </defs>
      <g>
       <use xlink:href="#m912c409eb7" x="52.375" y="313.552353" style="stroke: #000000; stroke-width: 0.8"/>
      </g>
     </g>
     <g id="text_7">
      <!-- 0 -->
      <g transform="translate(39.0125 317.351571) scale(0.1 -0.1)">
       <use xlink:href="#DejaVuSans-30"/>
      </g>
     </g>
    </g>
    <g id="ytick_2">
     <g id="line2d_8">
      <g>
       <use xlink:href="#m912c409eb7" x="52.375" y="270.171521" style="stroke: #000000; stroke-width: 0.8"/>
      </g>
     </g>
     <g id="text_8">
      <!-- 20000 -->
      <g transform="translate(13.5625 273.97074) scale(0.1 -0.1)">
       <use xlink:href="#DejaVuSans-32"/>
       <use xlink:href="#DejaVuSans-30" x="63.623047"/>
       <use xlink:href="#DejaVuSans-30" x="127.246094"/>
       <use xlink:href="#DejaVuSans-30" x="190.869141"/>
       <use xlink:href="#DejaVuSans-30" x="254.492188"/>
      </g>
     </g>
    </g>
    <g id="ytick_3">
     <g id="line2d_9">
      <g>
       <use xlink:href="#m912c409eb7" x="52.375" y="226.79069" style="stroke: #000000; stroke-width: 0.8"/>
      </g>
     </g>
     <g id="text_9">
      <!-- 40000 -->
      <g transform="translate(13.5625 230.589909) scale(0.1 -0.1)">
       <use xlink:href="#DejaVuSans-34"/>
       <use xlink:href="#DejaVuSans-30" x="63.623047"/>
       <use xlink:href="#DejaVuSans-30" x="127.246094"/>
       <use xlink:href="#DejaVuSans-30" x="190.869141"/>
       <use xlink:href="#DejaVuSans-30" x="254.492188"/>
      </g>
     </g>
    </g>
    <g id="ytick_4">
     <g id="line2d_10">
      <g>
       <use xlink:href="#m912c409eb7" x="52.375" y="183.409859" style="stroke: #000000; stroke-width: 0.8"/>
      </g>
     </g>
     <g id="text_10">
      <!-- 60000 -->
      <g transform="translate(13.5625 187.209078) scale(0.1 -0.1)">
       <use xlink:href="#DejaVuSans-36"/>
       <use xlink:href="#DejaVuSans-30" x="63.623047"/>
       <use xlink:href="#DejaVuSans-30" x="127.246094"/>
       <use xlink:href="#DejaVuSans-30" x="190.869141"/>
       <use xlink:href="#DejaVuSans-30" x="254.492188"/>
      </g>
     </g>
    </g>
    <g id="ytick_5">
     <g id="line2d_11">
      <g>
       <use xlink:href="#m912c409eb7" x="52.375" y="140.029028" style="stroke: #000000; stroke-width: 0.8"/>
      </g>
     </g>
     <g id="text_11">
      <!-- 80000 -->
      <g transform="translate(13.5625 143.828247) scale(0.1 -0.1)">
       <use xlink:href="#DejaVuSans-38"/>
       <use xlink:href="#DejaVuSans-30" x="63.623047"/>
       <use xlink:href="#DejaVuSans-30" x="127.246094"/>
       <use xlink:href="#DejaVuSans-30" x="190.869141"/>
       <use xlink:href="#DejaVuSans-30" x="254.492188"/>
      </g>
     </g>
    </g>
    <g id="ytick_6">
     <g id="line2d_12">
      <g>
       <use xlink:href="#m912c409eb7" x="52.375" y="96.648197" style="stroke: #000000; stroke-width: 0.8"/>
      </g>
     </g>
     <g id="text_12">
      <!-- 100000 -->
      <g transform="translate(7.2 100.447416) scale(0.1 -0.1)">
       <use xlink:href="#DejaVuSans-31"/>
       <use xlink:href="#DejaVuSans-30" x="63.623047"/>
       <use xlink:href="#DejaVuSans-30" x="127.246094"/>
       <use xlink:href="#DejaVuSans-30" x="190.869141"/>
       <use xlink:href="#DejaVuSans-30" x="254.492188"/>
       <use xlink:href="#DejaVuSans-30" x="318.115234"/>
      </g>
     </g>
    </g>
    <g id="ytick_7">
     <g id="line2d_13">
      <g>
       <use xlink:href="#m912c409eb7" x="52.375" y="53.267366" style="stroke: #000000; stroke-width: 0.8"/>
      </g>
     </g>
     <g id="text_13">
      <!-- 120000 -->
      <g transform="translate(7.2 57.066584) scale(0.1 -0.1)">
       <use xlink:href="#DejaVuSans-31"/>
       <use xlink:href="#DejaVuSans-32" x="63.623047"/>
       <use xlink:href="#DejaVuSans-30" x="127.246094"/>
       <use xlink:href="#DejaVuSans-30" x="190.869141"/>
       <use xlink:href="#DejaVuSans-30" x="254.492188"/>
       <use xlink:href="#DejaVuSans-30" x="318.115234"/>
      </g>
     </g>
    </g>
   </g>
   <g id="line2d_14">
    <path d="M 82.08 312.754145 
L 82.209238 312.806202 
L 82.215392 312.799695 
L 82.326167 312.812709 
L 82.332321 312.821386 
L 82.633876 312.812709 
L 82.664647 310.858403 
L 82.763114 312.235744 
L 82.90466 312.650031 
L 82.941585 312.587129 
L 82.990819 312.478677 
L 83.009281 311.925571 
L 83.033898 310.294452 
L 83.120057 311.864838 
L 83.224678 312.38107 
L 83.236986 312.26828 
L 83.273911 310.381214 
L 83.36007 311.357282 
L 83.532387 312.337689 
L 83.538541 312.31383 
L 83.569312 312.370225 
L 83.58162 312.068728 
L 83.612391 310.489666 
L 83.692395 311.864838 
L 83.870867 312.561101 
L 84.043184 312.762821 
L 84.080109 312.754145 
L 84.141651 312.806202 
L 84.418589 312.940683 
L 84.904769 313.040459 
L 85.021698 313.05998 
L 85.150936 313.08384 
L 85.292482 313.129389 
L 85.434029 313.140235 
L 86.17253 313.033952 
L 86.338693 312.877781 
L 86.21561 313.079501 
L 86.387927 312.966711 
L 86.474085 313.066487 
L 86.621785 313.129389 
L 87.231049 313.231334 
L 87.366441 313.259532 
L 87.532604 313.276884 
L 88.714207 313.177108 
L 88.812674 312.680398 
L 88.892678 312.988402 
L 89.317317 313.281222 
L 89.471171 313.298575 
L 89.606563 313.318096 
L 89.612717 313.307251 
L 89.711184 313.203137 
L 89.797343 313.177108 
L 89.821959 313.213982 
L 90.006585 313.255194 
L 90.178902 312.966711 
L 90.221981 313.072994 
L 90.388144 313.224827 
L 90.905095 313.333279 
L 90.935866 313.333279 
L 90.94202 313.276884 
L 90.972791 313.292068 
L 91.071258 312.257435 
L 91.120492 312.784512 
L 91.305117 313.231334 
L 91.311271 313.220489 
L 91.372813 313.281222 
L 91.39743 313.287729 
L 91.723601 313.190123 
L 91.834377 312.695581 
L 91.889764 312.862597 
L 92.154394 313.231334 
L 92.517491 313.339786 
L 92.720579 313.350632 
L 93.089829 313.292068 
L 93.23753 312.610988 
L 93.262147 312.738962 
L 93.428309 313.159756 
L 93.606781 313.287729 
L 95.169943 313.190123 
L 95.200714 313.072994 
L 95.280718 313.183615 
L 95.286872 313.17277 
L 95.329951 313.224827 
L 95.373031 313.244349 
L 95.514577 313.266039 
L 95.520731 313.213982 
L 95.582273 312.519889 
L 95.649969 312.918992 
L 95.797669 313.177108 
L 95.963832 313.287729 
L 96.105378 313.259532 
L 96.216153 313.046966 
L 96.228462 312.988402 
L 96.308466 311.853993 
L 96.363854 312.22273 
L 96.548479 312.940683 
L 96.757721 313.135897 
L 96.825417 312.918992 
L 96.84388 312.862597 
L 96.91773 313.066487 
L 97.077739 313.129389 
L 97.090047 313.090347 
L 97.33006 312.843076 
L 97.10851 313.129389 
L 97.391602 312.927669 
L 97.52084 313.01443 
L 97.526994 312.981895 
L 97.613152 313.08384 
L 97.619307 313.08384 
L 97.840857 313.166263 
L 97.871628 313.207475 
L 97.896245 313.046966 
L 97.920861 312.686905 
L 98.019328 302.37745 
L 98.050099 306.108202 
L 98.191645 311.20545 
L 98.413196 312.402761 
L 98.41935 312.402761 
L 98.640901 312.843076 
L 98.647055 312.821386 
L 98.696288 312.905978 
L 98.733213 312.912485 
L 98.745522 312.905978 
L 98.75783 312.960204 
L 98.813218 312.981895 
L 99.108618 313.135897 
L 99.477869 313.244349 
L 99.674803 313.270377 
L 99.69942 313.248687 
L 99.736345 313.292068 
L 99.779424 313.287729 
L 99.988666 313.307251 
L 100.154829 313.255194 
L 100.160983 313.259532 
L 100.179446 313.183615 
L 100.204063 313.096854 
L 100.290221 313.166263 
L 100.327146 313.19663 
L 100.388688 313.129389 
L 100.419459 311.717343 
L 100.511772 270.01535 
L 100.542542 243.769948 
L 100.610238 277.606996 
L 100.764093 306.607081 
L 100.979489 308.927956 
L 100.985643 308.906266 
L 101.022569 309.101479 
L 101.077956 309.361764 
L 101.121035 308.971337 
L 101.188731 306.650462 
L 101.262582 308.494148 
L 101.459515 310.316143 
L 102.031854 311.936417 
L 102.093396 312.007995 
L 102.21648 312.164166 
L 102.36418 312.348534 
L 102.388797 312.302985 
L 102.585731 311.660948 
L 102.604193 311.717343 
L 102.831898 312.22273 
L 103.078065 312.140306 
L 103.201149 310.836713 
L 103.268845 309.708811 
L 103.342695 310.229381 
L 103.484241 311.010236 
L 103.502703 310.533047 
L 103.625787 288.452204 
L 103.650404 293.245785 
L 103.79195 307.691602 
L 104.05658 310.424595 
L 104.561223 311.804105 
L 104.819698 312.116447 
L 104.825852 312.092588 
L 104.912011 312.20104 
L 105.022786 312.302985 
L 105.195103 312.402761 
L 105.201257 312.391915 
L 105.238182 312.435296 
L 105.287416 312.446141 
L 105.478195 312.561101 
L 105.582817 312.587129 
L 105.588971 312.595805 
L 105.939759 312.702088 
L 106.068997 312.686905 
L 106.130539 312.580622 
L 106.210543 312.153321 
L 106.265931 312.257435 
L 106.604411 312.634848 
L 107.096745 312.738962 
L 107.244445 312.762821 
L 107.742934 312.862597 
L 107.847555 312.890795 
L 107.866018 312.877781 
L 108.050643 312.918992 
L 108.204498 312.912485 
L 108.936845 313.020937 
L 109.207629 313.046966 
L 109.3861 313.007923 
L 109.478413 313.007923 
L 109.490721 312.988402 
L 109.681501 312.988402 
L 109.866126 313.027444 
L 111.127733 313.135897 
L 111.263125 313.153249 
L 111.878544 313.072994 
L 111.927777 312.424451 
L 112.050861 312.725948 
L 112.420111 312.960204 
L 113.657102 313.066487 
L 113.774031 313.079501 
L 113.940194 313.116375 
L 114.00789 313.159756 
L 115.841836 313.05998 
L 115.891069 312.561101 
L 115.927995 309.969096 
L 116.014153 311.292211 
L 116.204933 312.20104 
L 116.371096 310.966855 
L 116.248012 312.211885 
L 116.432637 311.422354 
L 116.592646 312.007995 
L 116.795734 312.38107 
L 116.986514 312.587129 
L 117.004976 312.541579 
L 117.115751 311.574187 
L 117.171139 311.754217 
L 117.386535 312.188025 
L 117.638857 312.116447 
L 117.798866 311.053617 
L 117.854253 311.24883 
L 117.87887 311.313902 
L 117.915795 311.118688 
L 118.069649 308.515838 
L 118.186579 308.819504 
L 118.580446 310.966855 
L 118.592755 310.945165 
L 118.641988 310.793332 
L 118.70353 310.901784 
L 118.906618 311.552496 
L 119.029702 311.660948 
L 119.251252 311.791091 
L 119.294331 311.741203 
L 119.349719 311.81495 
L 120.106683 312.459156 
L 120.475934 312.357211 
L 120.537476 311.765062 
L 120.580555 310.901784 
L 120.654405 311.422354 
L 120.839031 311.947262 
L 120.900573 312.051376 
L 121.152894 312.272618 
L 121.325211 312.376732 
L 121.712925 312.576284 
L 121.805237 312.58496 
L 121.8237 312.595805 
L 122.008325 312.669553 
L 122.328343 312.775836 
L 122.488351 312.836569 
L 122.83914 312.732455 
L 122.888373 312.650031 
L 122.931452 312.678229 
L 123.20839 312.819216 
L 123.319166 312.853921 
L 123.485329 312.903809 
L 124.00228 313.010092 
L 124.180751 313.040459 
L 124.279218 313.055642 
L 124.291526 313.070825 
L 124.469998 312.96888 
L 124.537694 312.33552 
L 124.716165 310.793332 
L 124.820786 308.233863 
L 124.857711 305.782846 
L 124.937715 307.409627 
L 124.986949 306.52032 
L 125.122341 308.993027 
L 125.134649 309.058098 
L 125.263887 299.297411 
L 125.306966 303.353519 
L 125.473129 308.62429 
L 125.540825 309.231622 
L 125.713142 310.316143 
L 126.217785 311.693484 
L 126.347023 311.886529 
L 126.359331 311.801936 
L 126.482415 309.383455 
L 126.568573 310.186 
L 126.790124 311.357282 
L 127.00552 311.717343 
L 127.405542 312.261773 
L 127.571705 312.368056 
L 127.811718 312.51772 
L 128.119427 312.621834 
L 128.24251 312.686905 
L 128.408673 312.749807 
L 128.864083 312.853921 
L 129.024091 312.888626 
L 129.202563 312.921161 
L 129.325646 312.929838 
L 129.467192 312.953697 
L 129.479501 312.936345 
L 129.657972 312.695581 
L 129.707205 311.183759 
L 129.793364 312.040531 
L 130.014914 312.686905 
L 130.482632 312.953697 
L 130.501095 312.845245 
L 130.593407 312.929838 
L 130.938042 313.040459 
L 131.09805 313.077332 
L 131.104204 313.070825 
L 131.190363 313.070825 
L 131.208826 313.092516 
L 131.221134 313.070825 
L 131.36268 313.142404 
L 131.639618 313.170601 
L 131.842706 313.224827 
L 131.935019 313.177108 
L 131.89194 313.250856 
L 131.96579 313.192292 
L 132.008869 313.086009 
L 132.045794 312.250928 
L 132.131953 312.715102 
L 132.476587 313.010092 
L 132.501203 312.921161 
L 132.519666 312.695581 
L 132.64275 302.594355 
L 132.710446 307.192723 
L 132.735062 307.56146 
L 132.759679 308.08203 
L 132.784296 306.173273 
L 132.79045 305.912988 
L 132.839683 308.385696 
L 132.888917 308.927956 
L 132.913534 308.233863 
L 132.925842 307.930197 
L 132.98123 309.036408 
L 133.165855 311.183759 
L 133.344326 311.754217 
L 133.362789 311.574187 
L 133.485872 302.160546 
L 133.559723 307.713293 
L 133.744348 310.663189 
L 134.008978 311.765062 
L 134.212066 312.164166 
L 134.248991 312.027516 
L 134.279762 309.079789 
L 134.316687 302.919711 
L 134.384383 309.969096 
L 134.538237 311.595877 
L 134.858255 312.368056 
L 135.535215 312.784512 
L 135.584448 312.428789 
L 135.670607 312.732455 
L 135.756765 312.836569 
L 136.002932 312.99274 
L 136.175249 312.945021 
L 136.212175 312.498198 
L 136.292179 312.801864 
L 136.47065 312.986233 
L 136.772205 313.092516 
L 136.981447 313.170601 
L 136.80913 313.055642 
L 136.987601 313.164094 
L 137.190689 313.055642 
L 137.33839 313.025275 
L 137.529169 313.070825 
L 137.646099 313.077332 
L 137.652253 313.086009 
L 137.861495 313.185785 
L 138.107662 313.231334 
L 138.243054 313.237842 
L 138.366138 313.26387 
L 138.476913 313.257363 
L 138.483067 313.283391 
L 140.723189 313.21832 
L 140.741652 312.895133 
L 140.840119 312.945021 
L 140.938585 312.871273 
L 140.963202 311.552496 
L 141.055515 312.556762 
L 141.233986 313.107699 
L 141.344761 313.031783 
L 141.393995 306.476939 
L 141.467845 284.114121 
L 141.510924 304.372969 
L 141.640162 310.749951 
L 141.781708 311.765062 
L 141.800171 311.444044 
L 141.855558 299.817981 
L 141.892483 291.92267 
L 141.935563 305.739465 
L 141.972488 302.702807 
L 142.003259 306.194964 
L 142.157113 310.72826 
L 142.378664 311.923402 
L 142.637139 312.489522 
L 143.061778 312.903809 
L 143.092549 312.871273 
L 143.166399 312.936345 
L 143.375641 313.040459 
L 143.455645 312.945021 
L 143.486416 310.836713 
L 143.578729 312.459156 
L 143.800279 313.010092 
L 143.806434 312.977557 
L 143.904901 313.040459 
L 144.157222 313.15108 
L 144.181839 313.142404 
L 144.243381 313.198799 
L 144.255689 313.185785 
L 144.766486 313.289899 
L 144.877261 313.302913 
L 144.883415 313.296406 
L 144.895724 313.302913 
L 145.000345 313.283391 
L 145.123428 313.326772 
L 145.228049 313.350632 
L 145.5973 313.363646 
L 145.71423 313.396182 
L 145.880393 313.413534 
L 147.905118 313.519817 
L 148.095898 313.524155 
L 148.30514 313.511141 
L 148.52669 313.537169 
L 148.926712 313.302913 
L 148.957483 311.778077 
L 149.05595 312.827893 
L 149.086721 312.903809 
L 149.105183 312.678229 
L 149.1298 312.118616 
L 149.209804 312.775836 
L 149.406738 313.276884 
L 149.505205 313.315927 
L 149.511359 313.346294 
L 149.634443 313.363646 
L 149.929844 313.289899 
L 150.016002 311.910388 
L 150.052927 306.758914 
L 150.126777 310.598118 
L 150.311403 312.51772 
L 150.588341 313.040459 
L 150.70527 312.96888 
L 150.8222 311.444044 
L 150.902204 312.13163 
L 151.111446 312.836569 
L 151.296072 313.040459 
L 151.449926 313.15108 
L 151.683785 313.237842 
L 152.120732 313.339786 
L 152.126886 313.357139 
L 152.151503 313.237842 
L 152.194582 313.257363 
L 152.256124 312.741131 
L 152.274586 312.261773 
L 152.360745 312.862597 
L 152.508445 313.120713 
L 152.5146 313.107699 
L 152.791538 313.302913 
L 152.803846 313.26387 
L 152.902313 313.26387 
L 152.914621 313.276884 
L 153.517731 313.385336 
L 153.696202 313.413534 
L 156.662517 313.333279 
L 156.699442 313.205306 
L 156.767138 313.333279 
L 156.840989 313.385336 
L 156.877914 313.346294 
L 157.659495 313.456915 
L 157.96105 313.446069 
L 161.278153 313.428717 
L 161.475087 311.574187 
L 161.493549 311.778077 
L 161.696637 312.895133 
L 161.770487 313.001416 
L 162.041271 313.192292 
L 162.644381 313.302913 
L 162.829007 313.339786 
L 162.970553 313.346294 
L 163.315187 313.350632 
L 166.74922 313.244349 
L 166.773836 313.031783 
L 166.810762 312.715102 
L 166.884612 312.921161 
L 167.253863 313.250856 
L 167.973902 313.357139 
L 168.152373 313.385336 
L 172.331062 313.283391 
L 172.521841 313.129389 
L 173.235726 313.031783 
L 173.309577 312.604481 
L 173.352656 311.947262 
L 173.43266 312.13163 
L 173.50651 311.947262 
L 173.592669 312.051376 
L 173.62344 311.992812 
L 173.678827 312.096926 
L 173.931149 312.58496 
L 174.023462 312.695581 
L 174.269629 312.912485 
L 174.52195 313.016599 
L 174.706576 313.092516 
L 174.915818 312.723779 
L 174.946589 311.827964 
L 175.032747 312.357211 
L 175.285069 312.801864 
L 175.334302 312.819216 
L 175.408152 306.216654 
L 175.482002 310.316143 
L 175.672782 312.08608 
L 175.925103 312.58496 
L 176.09742 312.489522 
L 176.128191 312.005826 
L 176.152808 311.487425 
L 176.238967 312.005826 
L 176.417438 312.528565 
L 176.442055 312.51772 
L 176.528213 312.621834 
L 176.669759 312.715102 
L 176.762072 312.749807 
L 176.768226 312.758483 
L 176.989777 312.912485 
L 177.371336 313.070825 
L 177.475957 312.613158 
L 177.531345 311.010236 
L 177.605195 311.730358 
L 177.777512 312.368056 
L 177.968291 312.613158 
L 178.251384 312.827893 
L 178.436009 312.936345 
L 178.602172 313.001416 
L 179.617612 313.224827 
L 180.319188 313.092516 
L 180.903836 313.244349 
L 181.291549 313.346294 
L 181.310012 313.302913 
L 181.39617 313.333279 
L 181.494637 313.326772 
L 181.420787 313.385336 
L 181.500791 313.333279 
L 181.506945 313.374491 
L 181.599258 313.257363 
L 181.605412 313.26387 
L 181.617721 313.129389 
L 181.666954 311.183759 
L 181.765421 312.261773 
L 182.066976 313.031783 
L 182.079284 312.977557 
L 182.202368 312.936345 
L 182.233139 311.827964 
L 182.331606 312.428789 
L 182.497769 312.936345 
L 182.516231 312.888626 
L 182.879328 313.114206 
L 183.039336 313.185785 
L 183.045491 313.244349 
L 183.125495 312.986233 
L 183.143957 312.44831 
L 183.211653 306.346796 
L 183.273195 309.318383 
L 183.322429 310.20769 
L 183.365508 308.993027 
L 183.537825 250.710881 
L 183.734759 130.979787 
L 183.740913 102.565342 
L 183.814763 257.651814 
L 183.956309 298.863603 
L 183.968618 298.559937 
L 184.06093 293.636213 
L 184.085547 296.542729 
L 184.25171 305.218895 
L 184.485569 307.821745 
L 184.565573 308.320624 
L 184.59019 307.908506 
L 184.645578 304.589873 
L 184.700965 294.872567 
L 184.768661 302.182237 
L 184.793278 301.531524 
L 184.836357 303.700566 
L 185.008674 307.713293 
L 185.297921 309.66543 
L 185.310229 309.64374 
L 185.341 309.860644 
L 185.624092 311.096997 
L 185.691788 311.20545 
L 185.821026 311.422354 
L 185.87026 311.487425 
L 185.999497 311.68047 
L 186.005652 311.667455 
L 186.061039 311.752048 
L 186.097964 311.728189 
L 186.16566 311.810612 
L 186.20874 311.901712 
L 186.245665 311.762893 
L 186.313361 310.142619 
L 186.387211 311.20545 
L 186.596453 311.890867 
L 186.756462 312.057883 
L 186.904162 312.164166 
L 187.101096 312.255266 
L 187.378034 312.266111 
L 187.44573 306.368487 
L 187.501118 299.601077 
L 187.550351 306.064821 
L 187.71036 310.316143 
L 187.759593 310.598118 
L 187.771901 310.381214 
L 187.827289 297.410345 
L 187.888831 211.234324 
L 187.901139 190.845334 
L 187.974989 266.544884 
L 188.091919 292.399859 
L 188.12269 291.055053 
L 188.153461 295.04609 
L 188.307315 305.587632 
L 188.565791 308.732742 
L 189.033509 311.270521 
L 189.113513 311.357282 
L 189.261213 311.667455 
L 189.279676 311.639258 
L 189.35968 311.728189 
L 189.421222 311.834472 
L 189.673543 312.057883 
L 189.81509 312.164166 
L 190.048948 312.315999 
L 190.055103 312.285632 
L 190.085873 312.346365 
L 190.135107 312.355042 
L 190.405891 312.498198 
L 190.412045 312.487353 
L 190.504358 312.506875 
L 190.52282 312.543748 
L 191.058234 312.647862 
L 191.107467 312.665215 
L 191.144393 312.578453 
L 191.162855 312.621834 
L 191.175163 312.587129 
L 191.205934 312.665215 
L 191.261322 312.673891 
L 191.378251 312.656538 
L 191.39056 312.682567 
L 191.525952 312.732455 
L 191.87674 312.836569 
L 192.018286 312.875612 
L 192.02444 312.869104 
L 192.030595 312.836569 
L 192.092136 312.899471 
L 192.129061 312.884288 
L 192.787559 312.994909 
L 193.199889 313.023106 
L 193.809153 313.129389 
L 193.83377 313.135897 
L 193.858386 313.023106 
L 193.876849 312.951528 
L 193.938391 313.057811 
L 193.969162 313.042628 
L 194.098399 313.070825 
L 194.110708 313.036121 
L 194.147633 312.979726 
L 194.215329 313.057811 
L 194.701509 313.161925 
L 194.836901 313.192292 
L 196.473913 313.298575 
L 196.603151 313.30942 
L 198.283242 313.417872 
L 198.480176 313.42221 
L 198.670956 313.42221 
L 199.347916 313.346294 
L 199.421766 313.001416 
L 199.489462 313.122882 
L 199.538695 312.986233 
L 199.587929 312.732455 
L 199.661779 312.869104 
L 199.69255 312.515551 
L 199.711012 312.450479 
L 199.760246 312.732455 
L 199.926409 312.921161 
L 199.938717 312.869104 
L 199.975642 312.374563 
L 200.055646 312.791019 
L 200.227963 313.122882 
L 200.234118 313.116375 
L 200.480285 313.216151 
L 200.609523 313.235672 
L 200.917232 313.320265 
L 201.391104 313.320265 
L 201.624963 313.352801 
L 201.883438 313.402689 
L 203.2989 313.511141 
L 203.495833 313.515479 
L 203.698921 313.506803 
L 205.231312 313.402689 
L 205.280546 312.450479 
L 205.292854 310.749951 
L 205.391321 311.901712 
L 205.582101 313.070825 
L 205.760572 313.26387 
L 205.779035 313.229165 
L 205.865193 312.365887 
L 205.895964 311.22714 
L 205.975968 312.194533 
L 206.160594 312.958035 
L 206.468303 313.205306 
L 206.769858 313.313758 
L 206.972946 313.372322 
L 207.859148 313.476436 
L 208.40687 313.519817 
L 208.782275 313.324603 
L 208.886896 312.791019 
L 208.985363 313.116375 
L 209.219222 313.352801 
L 209.391539 313.411365 
L 211.133172 313.313758 
L 211.170097 313.26387 
L 211.250101 313.320265 
L 211.563965 313.42221 
L 212.037836 313.42221 
L 212.142458 313.302913 
L 212.191691 313.335448 
L 212.394779 313.391843 
L 212.714796 313.30942 
L 212.745567 311.728189 
L 212.868651 289.753629 
L 212.905576 303.613804 
L 213.053276 310.229381 
L 213.237902 311.552496 
L 213.607153 312.487353 
L 213.613307 312.478677 
L 213.619461 312.450479 
L 213.711774 312.532903 
L 213.890245 312.63051 
L 214.093333 312.741131 
L 214.3395 312.921161 
L 214.727213 312.973218 
L 214.733368 312.929838 
L 214.813372 311.096997 
L 214.850297 305.696084 
L 214.930301 309.64374 
L 215.127235 311.530806 
L 215.318015 312.090419 
L 215.508794 312.305154 
L 215.54572 312.235744 
L 215.601107 312.164166 
L 215.650341 312.24659 
L 216.099596 312.691243 
L 216.302684 312.797526 
L 216.475001 312.884288 
L 216.481155 312.875612 
L 216.610393 312.346365 
L 216.70886 311.270521 
L 216.745785 311.552496 
L 216.764247 311.639258 
L 217.028877 312.33552 
L 217.207348 312.543748 
L 217.379665 312.647862 
L 217.619678 312.797526 
L 217.884308 312.869104 
L 217.890462 312.853921 
L 218.025854 312.665215 
L 218.148938 311.821457 
L 218.216634 304.112684 
L 218.272022 308.125411 
L 218.450493 311.053617 
L 218.678198 311.890867 
L 218.727431 311.990643 
L 218.881286 312.153321 
L 218.88744 312.099095 
L 218.967444 311.031926 
L 219.004369 310.012477 
L 219.078219 310.836713 
L 219.324387 311.810612 
L 219.779796 312.394084 
L 219.93365 312.498198 
L 220.112122 312.561101 
L 220.27213 312.665215 
L 220.46291 312.749807 
L 220.641381 312.836569 
L 220.758311 312.860428 
L 221.010632 312.966711 
L 222.186081 313.036121 
L 222.309164 312.665215 
L 222.37686 312.76499 
L 222.395323 312.758483 
L 222.518406 312.890795 
L 222.733803 313.007923 
L 222.893811 313.103361 
L 223.004587 313.129389 
L 223.010741 313.122882 
L 224.247731 313.023106 
L 224.266194 312.830062 
L 224.340044 305.761155 
L 224.401586 307.626531 
L 224.592365 310.880093 
L 225.121625 312.355042 
L 225.250863 312.459156 
L 225.466259 312.621834 
L 225.650884 312.682567 
L 225.657039 312.639186 
L 225.693964 312.099095 
L 225.767814 306.954128 
L 225.817047 309.275003 
L 225.995519 311.422354 
L 226.315536 312.164166 
L 226.39554 312.266111 
L 226.635553 312.470001 
L 226.838641 312.578453 
L 227.0725 312.723779 
L 227.238663 312.732455 
L 227.89716 312.836569 
L 228.075632 312.899471 
L 228.844904 312.994909 
L 228.967988 313.029614 
L 229.448014 313.049135 
L 229.66341 312.986233 
L 229.669565 312.994909 
L 229.804956 313.042628 
L 230.155745 313.148911 
L 230.377295 313.222658 
L 230.992713 313.122882 
L 231.072718 313.155418 
L 231.097334 313.08384 
L 231.177339 313.023106 
L 231.263497 312.413606 
L 231.318885 312.532903 
L 231.626594 312.853921 
L 231.897378 312.979726 
L 232.217395 313.090347 
L 232.334325 312.994909 
L 232.377404 312.33552 
L 232.4451 300.967573 
L 232.457408 298.559937 
L 233.054364 309.535288 
L 233.38669 311.096997 
L 233.417461 311.162069 
L 233.565161 311.552496 
L 233.620549 311.660948 
L 234.611372 312.552424 
L 234.839076 312.656538 
L 235.029856 312.758483 
L 235.03601 312.749807 
L 235.10986 312.749807 
L 235.140631 312.773667 
L 235.269869 312.821386 
L 235.897596 312.929838 
L 236.069913 312.979726 
L 236.266846 312.973218 
L 236.365313 311.574187 
L 236.402238 311.958107 
L 236.58071 312.699919 
L 236.888419 312.942852 
L 237.245361 313.049135 
L 237.368445 313.096854 
L 237.990017 313.198799 
L 238.42081 313.257363 
L 238.426964 313.229165 
L 238.586973 312.806202 
L 238.617743 312.845245 
L 238.648514 312.884288 
L 238.685439 312.691243 
L 238.697748 312.639186 
L 238.740827 312.845245 
L 238.746981 312.845245 
L 238.98084 313.116375 
L 238.986994 313.090347 
L 239.023919 313.142404 
L 239.085461 313.148911 
L 239.423941 313.257363 
L 239.553179 313.274715 
L 240.488614 313.383167 
L 240.691702 313.391843 
L 242.556419 313.502465 
L 242.741045 313.498126 
L 242.796432 313.407027 
L 242.839511 313.181446 
L 242.907207 313.335448 
L 243.067216 313.417872 
L 243.07337 313.411365 
L 243.541088 313.367984 
L 243.584167 312.758483 
L 243.664172 313.103361 
L 243.707251 313.174939 
L 243.731868 313.016599 
L 243.756484 312.905978 
L 243.830335 313.116375 
L 244.058039 313.346294 
L 244.254973 313.417872 
L 244.334977 313.42221 
L 244.827312 313.480774 
L 245.018091 313.480774 
L 247.442839 313.584888 
L 247.572077 313.578381 
L 254.618614 313.485112 
L 254.649384 313.372322 
L 254.729389 313.472098 
L 254.926323 313.55886 
L 256.034075 313.476436 
L 256.077154 312.13163 
L 256.089463 311.958107 
L 256.157159 312.741131 
L 256.311013 313.324603 
L 256.606414 313.506803 
L 256.612568 313.498126 
L 257.018744 313.46776 
L 257.314145 313.548014 
L 257.492616 313.556691 
L 257.818788 313.480774 
L 257.868021 312.914654 
L 257.95418 313.240011 
L 258.17573 313.459084 
L 258.877307 313.357139 
L 259.031161 313.090347 
L 259.098857 313.185785 
L 259.461954 313.411365 
L 260.114297 313.519817 
L 260.28046 313.539338 
L 261.979014 313.537169 
L 262.169793 313.537169 
L 262.926758 313.430886 
L 262.969837 312.13163 
L 263.06215 312.814878 
L 263.129846 313.023106 
L 263.148308 312.691243 
L 263.172925 311.901712 
L 263.259083 312.647862 
L 263.462171 313.181446 
L 263.991431 313.42221 
L 264.477611 313.480774 
L 264.656082 313.48945 
L 264.853016 313.493788 
L 270.724105 313.383167 
L 270.76103 312.578453 
L 270.853343 313.08384 
L 271.031814 313.372322 
L 271.39491 313.493788 
L 274.798172 313.398351 
L 274.841252 313.246518 
L 274.915102 313.335448 
L 275.179732 313.454746 
L 277.746025 313.563198 
L 277.930651 313.563198 
L 278.12143 313.563198 
L 278.976861 313.46776 
L 279.032249 312.884288 
L 279.069174 307.344556 
L 279.149178 310.663189 
L 279.321495 312.441803 
L 279.653821 313.049135 
L 279.88768 313.192292 
L 280.275393 313.302913 
L 280.441556 313.324603 
L 280.620028 313.33111 
L 280.792345 313.222658 
L 280.847732 312.958035 
L 280.921582 313.023106 
L 281.020049 313.116375 
L 281.198521 313.155418 
L 281.364683 313.135897 
L 281.610851 313.235672 
L 282.423203 313.155418 
L 282.484744 312.595805 
L 282.564749 312.782343 
L 282.921691 313.116375 
L 283.0817 313.016599 
L 283.174013 312.673891 
L 283.266325 312.76499 
L 283.598651 313.042628 
L 283.881743 313.181446 
L 284.380232 313.287729 
L 284.73102 313.335448 
L 284.798716 312.305154 
L 284.903337 303.3969 
L 284.952571 307.04089 
L 285.131042 310.68488 
L 285.432597 312.036192 
L 285.487985 312.13163 
L 285.684918 312.422282 
L 286.041861 312.741131 
L 286.134174 312.773667 
L 286.140328 312.782343 
L 286.448037 313.001416 
L 286.644971 312.853921 
L 286.718821 312.315999 
L 286.817288 312.506875 
L 287.617331 313.023106 
L 287.635794 312.986233 
L 287.697336 312.014502 
L 287.728106 310.815022 
L 287.808111 311.728189 
L 287.832727 311.786753 
L 287.857344 311.595877 
L 287.949657 310.294452 
L 287.992736 310.749951 
L 288.275828 311.990643 
L 288.33737 311.400663 
L 288.386604 310.316143 
L 288.4543 310.945165 
L 288.682004 311.762893 
L 288.922017 312.255266 
L 289.180493 312.524227 
L 289.186647 312.515551 
L 289.223572 312.459156 
L 289.260497 312.578453 
L 289.285114 312.552424 
L 289.402044 312.673891 
L 289.438969 312.587129 
L 289.475894 312.394084 
L 289.537436 308.732742 
L 289.648211 310.901784 
L 289.832836 312.025347 
L 289.857453 311.979797 
L 290.343633 312.613158 
L 290.522104 312.732455 
L 290.565184 310.836713 
L 290.669805 278.908421 
L 290.725192 303.006472 
L 290.879047 309.209931 
L 291.112906 310.945165 
L 291.322148 311.667455 
L 291.377536 311.775907 
L 291.568315 312.090419 
L 291.623703 312.194533 
L 291.802174 312.365887 
L 291.826791 312.33552 
L 291.863716 312.10994 
L 291.925258 308.971337 
L 291.962183 305.544251 
L 292.036033 308.537528 
L 292.220658 310.771641 
L 292.226813 310.771641 
L 292.35605 311.335592 
L 292.706839 312.205378 
L 292.940698 311.728189 
L 292.946852 311.739034 
L 293.020702 311.880021 
L 293.051473 311.717343 
L 293.069935 311.639258 
L 293.131477 311.856162 
L 293.353028 312.276956 
L 293.439186 312.383239 
L 293.63612 312.578453 
L 293.642274 312.552424 
L 293.753049 312.413606 
L 293.789975 307.626531 
L 293.876133 268.497021 
L 293.925366 291.488862 
L 294.060758 307.474698 
L 294.282309 310.229381 
L 294.288463 310.20769 
L 294.325388 310.467975 
L 294.682331 311.422354 
L 294.688485 311.378973 
L 294.731564 310.749951 
L 294.79926 311.270521 
L 295.125432 312.025347 
L 295.180819 312.120785 
L 295.353136 312.296477 
L 295.40237 312.24659 
L 295.445449 312.014502 
L 295.519299 306.238344 
L 295.599304 296.239063 
L 295.636229 303.37521 
L 295.790083 309.058098 
L 295.999325 310.793332 
L 296.460889 312.014502 
L 296.737827 312.346365 
L 296.928607 309.470216 
L 296.953223 306.823986 
L 297.033228 310.337833 
L 297.131695 311.096997 
L 297.180928 310.598118 
L 297.291703 311.378973 
L 297.476329 311.901712 
L 297.537871 312.003657 
L 297.685571 312.142476 
L 297.740959 312.183687 
L 297.765575 312.068728 
L 297.796346 311.739034 
L 297.876351 312.057883 
L 298.091747 312.413606 
L 298.276372 312.604481 
L 298.510231 312.758483 
L 298.584081 312.814878 
L 298.614852 312.797526 
L 299.057953 312.979726 
L 299.168729 313.023106 
L 299.279504 313.016599 
L 300.011851 313.103361 
L 300.128781 313.142404 
L 300.251864 313.168432 
L 300.941133 313.274715 
L 301.1873 313.281222 
L 302.368903 313.391843 
L 302.547374 313.42221 
L 304.947504 313.313758 
L 304.990584 312.76499 
L 305.009046 312.665215 
L 305.076742 312.994909 
L 305.310601 313.235672 
L 305.365989 313.142404 
L 305.415222 313.036121 
L 305.476764 313.155418 
L 305.722931 313.352801 
L 305.753702 313.302913 
L 305.864477 313.181446 
L 305.987561 309.448526 
L 306.012178 310.467975 
L 306.172186 312.758483 
L 306.375274 313.109868 
L 306.44297 312.905978 
L 306.479895 306.151583 
L 306.5599 311.118688 
L 306.726063 312.515551 
L 306.929151 312.929838 
L 307.04608 313.036121 
L 307.070697 313.064318 
L 307.089159 313.042628 
L 307.150701 308.884575 
L 307.212243 290.838149 
L 307.261476 306.563701 
L 307.409177 310.72826 
L 307.661498 312.235744 
L 307.772273 312.413606 
L 307.815353 312.315999 
L 307.963053 309.383455 
L 307.993824 309.969096 
L 308.203066 312.057883 
L 308.467696 312.587129 
L 308.652321 312.791019 
L 308.787713 312.899471 
L 309.046189 313.016599 
L 309.600065 313.185785 
L 310.147787 313.281222 
L 312.381755 313.446069 
L 312.510993 313.441731 
L 313.464891 313.346294 
L 313.50797 312.717272 
L 313.532587 310.598118 
L 313.618745 312.276956 
L 313.797216 313.161925 
L 313.803371 313.155418 
L 314.129542 313.341956 
L 314.788039 313.253025 
L 314.837273 312.639186 
L 314.911123 313.001416 
L 315.144982 313.292068 
L 315.526541 313.387505 
L 315.649625 313.402689 
L 315.661933 313.357139 
L 315.735783 312.921161 
L 315.748092 311.530806 
L 315.766554 307.279484 
L 315.858867 310.836713 
L 316.037338 312.561101 
L 316.240426 312.951528 
L 316.603523 313.174939 
L 318.419006 313.281222 
L 318.603632 313.320265 
L 319.465217 313.211813 
L 319.520605 312.814878 
L 319.55753 311.509115 
L 319.637534 312.194533 
L 319.686767 312.285632 
L 319.92678 312.921161 
L 320.197564 313.116375 
L 320.388344 313.007923 
L 320.462194 312.782343 
L 320.548353 312.422282 
L 320.622203 312.604481 
L 321.028379 312.986233 
L 321.120692 313.036121 
L 321.126846 313.042628 
L 321.409938 313.148911 
L 321.600718 313.192292 
L 321.729955 313.216151 
L 322.70847 313.235672 
L 322.763858 312.003657 
L 322.850016 312.515551 
L 323.059259 312.973218 
L 323.373122 313.148911 
L 323.865456 313.257363 
L 324.025465 313.274715 
L 324.173165 313.302913 
L 324.333174 313.313758 
L 325.957878 313.216151 
L 326.019419 312.860428 
L 326.099424 309.882334 
L 326.173274 310.836713 
L 326.38867 311.936417 
L 326.813309 312.470001 
L 326.967163 312.569777 
L 327.004088 312.613158 
L 327.041014 312.422282 
L 327.133326 301.85688 
L 327.194868 304.503111 
L 327.410264 310.120929 
L 327.625661 311.270521 
L 327.656432 311.357282 
L 327.834903 311.845317 
L 328.265695 312.383239 
L 328.394933 312.487353 
L 328.61033 312.647862 
L 328.838034 312.758483 
L 329.108818 312.890795 
L 329.231902 312.914654 
L 329.496532 312.853921 
L 329.502686 312.869104 
L 330.019637 312.76499 
L 330.075025 311.936417 
L 330.167337 307.58315 
L 330.253496 309.795573 
L 330.444276 311.24883 
L 330.807372 312.13163 
L 331.115081 312.450479 
L 331.367403 312.621834 
L 331.588953 312.732455 
L 331.785887 312.821386 
L 332.062825 312.929838 
L 332.253605 312.973218 
L 332.905948 313.08384 
L 333.078265 313.116375 
L 333.238274 313.103361 
L 336.327672 313.211813 
L 336.555377 313.240011 
L 338.198543 313.129389 
L 338.309319 312.708595 
L 338.450865 312.266111 
L 338.481636 312.224899 
L 338.537023 312.33552 
L 338.721649 312.569777 
L 338.82627 312.673891 
L 339.072437 312.830062 
L 339.367838 312.986233 
L 339.589388 312.884288 
L 339.614005 312.665215 
L 339.718626 294.655662 
L 339.79863 305.782846 
L 340.001718 309.730501 
L 340.007873 309.708811 
L 340.032489 309.904025 
L 340.198652 310.923474 
L 340.598674 311.947262 
L 340.684832 312.057883 
L 341.029467 312.441803 
L 341.34333 312.552424 
L 341.404872 312.552424 
L 341.429488 312.506875 
L 341.509493 311.968952 
L 341.540264 310.012477 
L 341.626422 311.270521 
L 341.860281 312.142476 
L 342.014135 312.285632 
L 342.143373 312.394084 
L 342.309536 312.487353 
L 342.31569 312.459156 
L 342.401849 311.728189 
L 342.43262 309.817263 
L 342.518778 311.031926 
L 342.715712 311.936417 
L 342.808025 312.090419 
L 342.857258 312.057883 
L 342.906492 311.821457 
L 342.943417 309.860644 
L 343.029575 310.988545 
L 343.47883 312.172842 
L 343.558835 312.276956 
L 343.835773 312.478677 
L 343.928086 312.374563 
L 343.965011 312.255266 
L 344.038861 312.355042 
L 344.340416 312.665215 
L 344.561966 312.773667 
L 344.765054 312.869104 
L 345.460477 312.979726 
L 345.632794 313.001416 
L 346.365141 313.109868 
L 346.4513 313.211813 
L 346.463608 313.090347 
L 346.469762 313.057811 
L 346.531304 313.155418 
L 346.562075 313.142404 
L 347.54059 313.057811 
L 347.552898 312.515551 
L 347.577515 310.533047 
L 347.663673 312.047038 
L 347.842145 312.758483 
L 348.063695 313.029614 
L 348.149854 312.806202 
L 348.192933 309.405145 
L 348.2914 311.22714 
L 348.396021 311.856162 
L 348.432946 311.595877 
L 348.494488 311.465735 
L 348.531413 311.639258 
L 348.820659 312.450479 
L 349.26376 312.884288 
L 349.60224 313.08384 
L 350.679222 313.192292 
L 350.857693 313.222658 
L 350.986931 313.246518 
L 351.214636 313.135897 
L 351.251561 312.682567 
L 351.282332 312.506875 
L 351.350028 312.791019 
L 351.596195 313.103361 
L 351.756204 313.135897 
L 351.762358 313.122882 
L 351.89775 312.830062 
L 351.934675 312.921161 
L 352.137763 313.129389 
L 352.260847 313.023106 
L 352.291617 312.741131 
L 352.328543 311.958107 
L 352.414701 312.33552 
L 352.463934 312.224899 
L 352.513168 312.383239 
L 353.036273 313.142404 
L 353.042427 313.109868 
L 353.159357 313.08384 
L 353.190128 312.914654 
L 353.220899 312.699919 
L 353.294749 312.936345 
L 353.497837 313.148911 
L 353.719387 313.222658 
L 354.273264 313.129389 
L 354.371731 312.079573 
L 354.402501 311.639258 
L 354.476352 312.205378 
L 354.624052 312.723779 
L 354.642515 312.656538 
L 354.691748 311.799767 
L 354.765598 312.346365 
L 354.999457 312.905978 
L 355.128695 313.007923 
L 355.153312 312.951528 
L 355.190237 312.884288 
L 355.251778 312.986233 
L 355.528717 313.185785 
L 355.836426 313.292068 
L 356.039514 313.346294 
L 357.442667 313.454746 
L 357.651909 313.46776 
L 357.867305 313.450408 
L 359.86126 313.352801 
L 359.922802 313.155418 
L 360.002806 313.281222 
L 360.292052 313.435224 
L 360.433599 313.46776 
L 360.932087 313.372322 
L 361.079788 312.33552 
L 361.141329 312.921161 
L 361.282876 313.122882 
L 361.313647 313.161925 
L 361.344417 313.049135 
L 361.356726 313.023106 
L 361.430576 313.142404 
L 361.633664 313.320265 
L 362.021377 313.430886 
L 362.26139 313.46776 
L 362.587562 313.372322 
L 362.606024 313.33111 
L 362.667566 313.402689 
L 362.692183 313.402689 
L 363.215288 313.511141 
L 363.442993 313.537169 
L 364.7046 313.430886 
L 364.864609 312.025347 
L 364.926151 312.647862 
L 365.110776 313.26387 
L 365.301556 313.37666 
L 365.424639 313.417872 
L 365.436948 313.387505 
L 365.492335 313.185785 
L 365.560031 313.292068 
L 365.744657 313.417872 
L 365.750811 313.411365 
L 367.104731 313.372322 
L 367.153964 312.656538 
L 367.246277 312.773667 
L 367.455519 313.30942 
L 367.787845 313.411365 
L 368.692509 313.519817 
L 368.883289 313.519817 
L 369.067914 313.524155 
L 369.363315 313.417872 
L 369.40024 313.391843 
L 369.47409 313.426548 
L 370.317213 313.320265 
L 370.384909 312.324675 
L 370.427988 303.353519 
L 370.507993 309.904025 
L 370.68031 312.079573 
L 370.729543 312.315999 
L 370.75416 312.10994 
L 370.82801 304.936919 
L 370.864935 299.102198 
L 370.926477 306.802295 
L 371.111102 311.096997 
L 371.400349 312.365887 
L 371.935763 312.929838 
L 372.101925 313.036121 
L 372.366555 313.155418 
L 372.748114 313.26387 
L 372.938894 313.30942 
L 373.074286 313.292068 
L 373.252757 313.324603 
L 374.120497 313.235672 
L 374.194347 312.515551 
L 374.280506 312.76499 
L 374.514364 313.096854 
L 374.797457 313.235672 
L 375.105166 313.320265 
L 376.059064 313.430886 
L 376.249843 313.430886 
L 376.834491 313.320265 
L 376.87757 313.116375 
L 376.926803 313.007923 
L 376.994499 313.064318 
L 377.02527 312.973218 
L 377.049887 312.853921 
L 377.129891 313.016599 
L 377.492988 313.240011 
L 378.003785 313.346294 
L 378.157639 313.357139 
L 378.329956 313.367984 
L 378.705362 313.270377 
L 378.803828 312.595805 
L 378.908449 312.806202 
L 379.111537 313.023106 
L 379.39463 313.129389 
L 379.579255 313.168432 
L 380.077744 313.103361 
L 380.182365 311.465735 
L 380.243907 311.947262 
L 380.391607 312.450479 
L 380.422378 312.506875 
L 380.490074 312.413606 
L 380.551616 311.292211 
L 380.588541 310.294452 
L 380.662391 311.118688 
L 380.847016 311.925571 
L 381.302426 312.532903 
L 381.30858 312.515551 
L 381.443972 312.621834 
L 381.708602 312.821386 
L 382.434795 312.929838 
L 382.637883 312.994909 
L 382.760967 313.007923 
L 382.865588 312.951528 
L 382.92713 312.673891 
L 383.013288 311.053617 
L 383.111755 311.775907 
L 383.320997 312.33552 
L 383.659477 312.708595 
L 383.862565 312.830062 
L 384.250278 312.951528 
L 384.742613 313.057811 
L 384.921084 313.090347 
L 385.807286 313.198799 
L 385.973449 313.216151 
L 387.302752 313.109868 
L 387.345831 313.057811 
L 387.413527 313.116375 
L 387.875091 313.222658 
L 388.047408 313.246518 
L 390.195217 313.135897 
L 390.225988 312.682567 
L 390.269067 312.383239 
L 390.342917 312.552424 
L 390.706014 312.890795 
L 390.712168 312.884288 
L 391.044494 312.994909 
L 391.241428 313.042628 
L 391.666066 312.936345 
L 391.832229 312.613158 
L 391.912234 311.639258 
L 392.0107 312.014502 
L 392.05378 311.936417 
L 392.090705 311.834472 
L 392.152247 311.990643 
L 392.367643 312.194533 
L 392.496881 312.305154 
L 392.558423 312.394084 
L 392.607656 312.296477 
L 392.644581 312.025347 
L 392.718431 310.554737 
L 392.829207 311.357282 
L 393.019986 311.912557 
L 393.112299 312.014502 
L 393.136916 311.979797 
L 393.179995 310.446285 
L 393.247691 302.746187 
L 393.346158 305.652703 
L 393.641558 310.229381 
L 393.875417 311.118688 
L 393.906188 310.858403 
L 393.949267 310.20769 
L 394.016963 310.72826 
L 394.183126 311.118688 
L 394.23236 311.22714 
L 394.503144 311.784584 
L 394.810853 312.107771 
L 394.952399 312.023178 
L 395.001632 310.316143 
L 395.038557 305.175514 
L 395.118562 308.927956 
L 395.32165 310.945165 
L 395.346266 311.053617 
L 395.709363 311.945093 
L 395.783213 312.055714 
L 395.980147 312.274787 
L 396.109385 312.383239 
L 396.263239 312.51772 
L 396.386323 312.626172 
L 396.577103 312.704257 
L 396.694032 312.686905 
L 397.709472 312.973218 
L 397.72178 312.912485 
L 397.783322 312.804033 
L 397.875635 312.422282 
L 397.992564 312.535072 
L 398.035643 312.433127 
L 398.091031 312.224899 
L 398.152573 312.383239 
L 398.337198 312.678229 
L 398.367969 312.56327 
L 398.392586 312.355042 
L 398.423357 311.270521 
L 398.509515 312.034023 
L 398.700295 312.315999 
L 398.835687 312.422282 
L 399.032621 312.695581 
L 399.192629 312.804033 
L 399.364947 312.827893 
L 399.395717 312.615327 
L 399.41418 312.571946 
L 399.481876 312.754145 
L 399.574189 312.858259 
L 399.789585 313.023106 
L 399.795739 313.016599 
L 399.875744 312.979726 
L 399.918823 313.010092 
L 400.140373 313.086009 
L 400.540395 313.192292 
L 400.743483 313.253025 
L 400.891183 313.253025 
L 400.983496 313.270377 
L 401.32813 312.951528 
L 401.408135 306.628772 
L 401.451214 309.12317 
L 401.512756 310.316143 
L 401.543527 308.776123 
L 401.549681 308.776123 
L 401.561989 308.689361 
L 401.59276 309.578668 
L 401.598914 309.578668 
L 401.629685 309.904025 
L 401.654302 308.776123 
L 401.845081 296.998227 
L 401.869698 300.880812 
L 402.017398 309.101479 
L 402.245103 310.880093 
L 402.251257 310.858403 
L 402.472808 311.660948 
L 402.528195 311.760724 
L 402.6082 312.012333 
L 402.651279 311.819288 
L 402.663587 311.749879 
L 402.737438 303.765637 
L 402.798979 308.797813 
L 402.934371 310.988545 
L 402.952834 310.381214 
L 402.971297 309.730501 
L 403.051301 311.096997 
L 403.131305 311.292211 
L 403.149768 311.140378 
L 403.192847 309.296693 
L 403.279006 310.533047 
L 403.599023 311.999319 
L 403.666719 312.055714 
L 403.691336 309.275003 
L 403.740569 282.378887 
L 403.832882 289.536724 
L 403.882115 284.764833 
L 403.906732 290.621245 
L 404.03597 301.83519 
L 404.245212 308.125411 
L 404.319062 309.12317 
L 404.343679 308.862885 
L 404.362141 305.088752 
L 404.454454 307.908506 
L 404.485225 308.515838 
L 404.515996 306.975819 
L 404.608309 299.23234 
L 404.63908 301.900261 
L 404.811397 308.342315 
L 405.12526 310.511356 
L 405.162185 310.619808 
L 405.586823 311.713005 
L 405.654519 311.819288 
L 405.777603 311.988474 
L 405.789911 311.888698 
L 405.814528 311.574187 
L 405.894532 311.999319 
L 406.177625 312.363718 
L 406.183779 312.355042 
L 406.306863 312.450479 
L 406.454563 312.554593 
L 406.694576 312.710764 
L 406.873047 312.51772 
L 406.885356 312.535072 
L 406.89151 312.526396 
L 406.934589 312.634848 
L 406.940743 312.634848 
L 406.977668 312.669553 
L 406.989977 312.60665 
L 407.119214 310.294452 
L 407.199219 311.444044 
L 407.22999 311.574187 
L 407.242298 311.313902 
L 407.273069 308.906266 
L 407.359227 310.446285 
L 407.420769 311.162069 
L 407.457694 310.641499 
L 407.519236 294.482139 
L 407.605395 262.640609 
L 407.654628 287.150779 
L 407.79002 306.281725 
L 408.042342 309.795573 
L 408.239275 311.031926 
L 408.608526 311.934248 
L 408.633143 311.877852 
L 408.670068 311.966783 
L 408.750072 299.254031 
L 408.799306 308.407386 
L 408.959314 310.68488 
L 409.14394 311.72602 
L 409.402415 312.344196 
L 409.63012 310.077548 
L 409.667045 310.966855 
L 409.759358 311.665286 
L 409.808591 311.639258 
L 410.103992 312.478677 
L 410.1163 312.470001 
L 410.196305 312.51772 
L 410.214767 312.478677 
L 410.257847 310.272762 
L 410.368622 290.621245 
L 410.393239 301.31462 
L 410.436318 306.54201 
L 410.504014 301.596595 
L 410.682485 288.886012 
L 410.700948 291.705766 
L 410.848648 307.387936 
L 411.107124 310.034167 
L 411.420987 311.465735 
L 411.661 311.945093 
L 411.667154 311.934248 
L 412.061022 312.413606 
L 412.393347 312.33552 
L 412.424118 310.641499 
L 412.479506 301.965333 
L 412.547202 309.101479 
L 412.707211 311.053617 
L 412.97184 312.129461 
L 413.328783 312.535072 
L 413.5011 312.643524 
L 413.6488 312.728117 
L 413.938047 312.8344 
L 414.134981 312.921161 
L 414.615007 312.843076 
L 414.658086 312.51772 
L 414.73809 312.719441 
L 414.935024 312.951528 
L 414.941178 312.936345 
L 414.984257 312.994909 
L 415.033491 313.001416 
L 415.187345 313.066487 
L 416.565882 313.140235 
L 416.602807 312.936345 
L 416.633578 308.10372 
L 416.732045 311.639258 
L 416.91667 312.686905 
L 417.125912 312.927669 
L 417.138221 312.81054 
L 417.156683 312.728117 
L 417.230533 312.203209 
L 417.25515 310.749951 
L 417.341309 311.955938 
L 417.532088 312.686905 
L 417.85826 312.958035 
L 418.147506 313.066487 
L 418.369057 313.153249 
L 418.473678 313.140235 
L 418.485986 313.146742 
L 418.602916 313.17277 
L 418.725999 313.198799 
L 419.501426 313.305082 
L 419.581431 313.315927 
L 419.599893 313.287729 
L 419.735285 311.934248 
L 419.784519 312.374563 
L 419.969144 313.001416 
L 419.981452 312.912485 
L 420.049148 312.762821 
L 420.079919 312.441803 
L 420.153769 312.819216 
L 420.399937 313.159756 
L 420.953813 313.270377 
L 421.119976 313.287729 
L 423.341635 313.398351 
L 423.550877 313.413534 
L 423.723194 313.391843 
L 426.227946 313.294237 
L 426.289488 313.066487 
L 426.369492 313.209644 
L 426.671047 313.372322 
L 426.843364 313.350632 
L 427.046452 313.24218 
L 427.157227 313.270377 
L 427.163381 313.276884 
L 427.311082 313.276884 
L 427.428011 313.17277 
L 427.477245 313.051304 
L 427.544941 313.133728 
L 427.680333 313.24218 
L 427.975733 313.315927 
L 428.092663 313.322434 
L 428.2219 313.216151 
L 428.240363 312.875612 
L 428.26498 312.088249 
L 428.351138 312.769329 
L 428.621922 313.209644 
L 428.831164 313.276884 
L 429.194261 313.315927 
L 429.797371 313.216151 
L 429.889683 311.574187 
L 429.975842 295.219613 
L 430.03123 306.932438 
L 430.197392 310.923474 
L 430.480485 312.203209 
L 430.486639 312.172842 
L 430.898969 312.695581 
L 431.200524 312.875612 
L 431.305145 312.897302 
L 431.317453 312.795357 
L 431.348224 312.315999 
L 431.471308 289.102916 
L 431.53285 300.728979 
L 432.006722 309.708811 
L 432.314431 311.096997 
L 432.634448 311.819288 
L 432.665219 311.853993 
L 432.788303 312.012333 
L 432.880615 312.118616 
L 433.071395 312.233575 
L 433.077549 312.224899 
L 433.102166 312.355042 
L 433.10832 312.355042 
L 433.249866 312.470001 
L 433.526804 312.60665 
L 433.631425 312.498198 
L 433.662196 311.183759 
L 433.834513 288.235299 
L 433.883747 297.67063 
L 434.037601 307.149342 
L 434.320694 310.229381 
L 434.566861 311.183759 
L 434.831491 311.713005 
L 434.929958 311.819288 
L 435.151508 312.034023 
L 435.163816 312.023178 
L 435.274592 311.678301 
L 435.354596 311.910388 
L 435.557684 312.255266 
L 435.62538 312.285632 
L 435.649997 312.203209 
L 435.656151 312.172842 
L 435.730001 264.809651 
L 435.779234 212.101941 
L 435.865393 75.235418 
L 435.902318 165.684451 
L 436.074635 291.705766 
L 436.246952 302.637735 
L 436.517736 306.628772 
L 436.806983 308.537528 
L 437.046996 309.773882 
L 437.330088 311.010236 
L 437.588564 311.118688 
L 437.637797 311.20545 
L 437.680876 311.031926 
L 437.773189 310.229381 
L 437.834731 310.576428 
L 438.007048 311.22714 
L 438.093206 311.335592 
L 438.259369 311.530806 
L 438.357836 311.639258 
L 438.499382 311.749879 
L 438.671699 311.853993 
L 438.89325 312.023178 
L 439.047104 312.129461 
L 439.207113 312.192363 
L 439.656368 312.294308 
L 439.828685 312.374563 
L 440.253324 312.478677 
L 440.407178 312.526396 
L 441.010288 312.634848 
L 441.164143 312.678229 
L 441.170297 312.669553 
L 441.97034 312.778005 
L 442.050345 312.786681 
L 445.35514 312.951528 
L 445.484378 312.441803 
L 445.527457 312.478677 
L 445.804395 312.745469 
L 446.038254 312.843076 
L 446.413659 312.866935 
L 446.499817 311.031926 
L 446.524434 305.847917 
L 446.542897 304.177755 
L 446.610593 309.166551 
L 446.776756 310.880093 
L 446.825989 310.467975 
L 446.875223 310.901784 
L 447.090619 311.639258 
L 447.146006 311.736865 
L 447.496795 312.263942 
L 447.527566 312.24442 
L 447.60757 312.344196 
L 447.75527 312.489522 
L 447.761425 312.470001 
L 447.958358 312.56327 
L 448.186063 312.669553 
L 448.247605 312.695581 
L 448.795327 312.827893 
L 448.807635 312.704257 
L 448.84456 312.383239 
L 448.924565 312.597974 
L 449.090728 312.754145 
L 449.429208 312.866935 
L 451.5524 312.966711 
L 451.663175 313.001416 
L 451.823184 313.03829 
L 453.823293 312.942852 
L 453.890989 312.543748 
L 453.964839 312.778005 
L 454.007918 312.851752 
L 454.174081 312.626172 
L 454.235623 310.945165 
L 454.266394 307.344556 
L 454.346398 310.533047 
L 454.531023 312.172842 
L 454.567949 312.255266 
L 454.74642 312.589298 
L 455.060283 312.843076 
L 455.269525 312.951528 
L 455.484921 313.023106 
L 456.038798 312.912485 
L 456.063414 312.795357 
L 456.106494 311.934248 
L 456.180344 312.470001 
L 456.358815 312.875612 
L 456.518824 313.010092 
L 457.866589 313.153249 
L 457.921977 312.745469 
L 458.01429 303.765637 
L 458.075832 309.470216 
L 458.112757 310.272762 
L 458.149682 307.995268 
L 458.180453 309.578668 
L 458.211224 304.286207 
L 458.285074 309.947405 
L 458.494316 312.088249 
L 458.746637 312.597974 
L 458.758946 312.56327 
L 458.968188 312.669553 
L 459.10358 312.786681 
L 459.134351 312.728117 
L 459.17743 312.704257 
L 459.245126 312.762821 
L 459.435906 312.6522 
L 459.491293 312.710764 
L 459.509756 312.470001 
L 459.528218 312.233575 
L 459.608223 312.597974 
L 459.842082 312.927669 
L 460.014399 313.031783 
L 460.143636 313.101192 
L 460.155945 313.086009 
L 460.432883 313.17277 
L 460.691358 313.101192 
L 460.722129 311.955938 
L 460.808288 312.660876 
L 460.986759 313.031783 
L 461.189847 313.140235 
L 461.312931 313.17277 
L 461.983736 313.276884 
L 462.876093 313.270377 
L 463.060718 313.133728 
L 463.066872 313.153249 
L 463.19611 313.259532 
L 463.349965 313.311589 
L 463.46074 313.216151 
L 463.528436 312.728117 
L 463.540744 312.660876 
L 463.60844 312.994909 
L 463.657674 313.107699 
L 463.737678 313.023106 
L 463.749986 313.010092 
L 463.756141 313.023106 
L 463.786911 310.467975 
L 463.885378 312.413606 
L 464.106929 312.912485 
L 464.377713 313.107699 
L 464.543876 313.023106 
L 464.580801 311.934248 
L 464.617726 307.257794 
L 464.691576 311.010236 
L 464.857739 312.506875 
L 464.900818 312.60665 
L 465.097752 312.866935 
L 465.22699 312.973218 
L 465.417769 313.016599 
L 465.510082 312.875612 
L 465.553161 311.22714 
L 465.63932 312.344196 
L 465.86087 312.890795 
L 466.002417 313.001416 
L 466.205504 313.101192 
L 466.648605 313.209644 
L 466.790152 313.259532 
L 467.011702 313.270377 
L 467.042473 311.877852 
L 467.128632 312.908147 
L 467.220944 313.064318 
L 467.233253 312.934176 
L 467.257869 312.231406 
L 467.344028 312.819216 
L 467.368645 312.890795 
L 467.387107 312.582791 
L 467.411724 312.175011 
L 467.485574 312.773667 
L 467.664045 313.12722 
L 467.713279 313.135897 
L 467.719433 313.129389 
L 467.830208 312.370225 
L 467.854825 312.550255 
L 468.051759 313.081671 
L 468.217922 313.190123 
L 468.464089 313.292068 
L 469.953401 313.402689 
L 470.138026 313.398351 
L 471.793501 313.328941 
L 471.824272 312.988402 
L 471.91043 313.229165 
L 472.187368 313.372322 
L 472.310452 313.398351 
L 473.732068 313.426548 
L 473.756684 312.151152 
L 473.842843 313.079501 
L 474.045931 313.287729 
L 474.181323 313.391843 
L 474.322869 313.42221 
L 474.612115 313.315927 
L 474.649041 312.912485 
L 474.729045 313.17277 
L 474.91367 313.107699 
L 474.944441 312.6522 
L 475.024446 313.072994 
L 475.264459 313.328941 
L 475.812181 313.437393 
L 476.224511 313.480774 
L 477.252259 313.524155 
L 477.701514 313.426548 
L 477.738439 313.333279 
L 477.824598 313.374491 
L 478.29847 313.485112 
L 478.495404 313.48945 
L 478.618487 313.461253 
L 478.760033 313.198799 
L 478.796958 312.762821 
L 478.876963 313.072994 
L 479.110822 313.328941 
L 479.116976 313.322434 
L 479.31391 313.407027 
L 479.713931 313.37666 
L 479.824707 312.704257 
L 479.849323 312.151152 
L 479.929328 312.843076 
L 480.113953 313.229165 
L 480.390891 313.361477 
L 481.867895 313.472098 
L 482.058674 313.472098 
L 489.763709 313.372322 
L 489.800634 313.235672 
L 489.874484 313.333279 
L 490.120651 313.433055 
L 492.563861 313.350632 
L 492.619249 312.795357 
L 492.717715 313.044797 
L 492.803874 313.079501 
L 492.810028 313.03829 
L 492.883878 312.678229 
L 492.933112 312.827893 
L 493.166971 313.179277 
L 493.185433 313.159756 
L 493.517759 313.270377 
L 493.640843 313.315927 
L 493.646997 313.266039 
L 493.794697 312.233575 
L 493.862393 312.626172 
L 494.016248 313.023106 
L 494.040864 313.001416 
L 494.305494 313.185785 
L 494.650128 313.294237 
L 494.85937 313.361477 
L 495.247084 313.387505 
L 495.480943 313.417872 
L 495.659414 313.42221 
L 495.880964 313.452577 
L 497.210267 313.283391 
L 497.284118 313.051304 
L 497.37643 313.179277 
L 498.102624 313.365815 
L 498.385716 313.391843 
L 500.207354 313.441731 
L 500.238124 313.246518 
L 500.262741 313.072994 
L 500.330437 313.224827 
L 500.625838 313.344125 
L 500.631992 313.311589 
L 500.662763 312.728117 
L 500.748921 313.044797 
L 500.853543 313.101192 
L 500.865851 313.086009 
L 500.902776 312.897302 
L 500.945855 312.710764 
L 501.019705 312.8344 
L 501.358185 313.120713 
L 501.598198 313.216151 
L 502.059762 313.322434 
L 502.238233 313.350632 
L 502.650563 313.380998 
L 502.779801 313.300744 
L 502.804418 309.361764 
L 502.829035 303.700566 
L 502.909039 310.120929 
L 503.075202 312.151152 
L 503.118281 311.994981 
L 503.185977 306.932438 
L 503.253673 309.708811 
L 503.456761 312.090419 
L 503.469069 312.0427 
L 503.54292 312.207547 
L 503.789087 312.719441 
L 504.10295 312.999247 
L 504.109104 312.99274 
L 504.244496 312.882119 
L 504.287575 312.558931 
L 504.36758 312.76499 
L 504.429122 312.823555 
L 504.453738 312.702088 
L 504.502972 312.363718 
L 504.576822 312.500367 
L 504.829143 312.938514 
L 505.013769 313.051304 
L 506.072288 313.307251 
L 506.213834 313.213982 
L 506.263067 312.519889 
L 506.287684 312.01884 
L 506.367689 312.645693 
L 506.509235 312.986233 
L 506.773864 313.161925 
L 506.786173 313.114206 
L 506.835406 311.932078 
L 506.970798 261.12228 
L 507.026186 288.018395 
L 507.167732 306.628772 
L 507.456979 311.031926 
L 507.487749 311.270521 
L 507.530829 310.858403 
L 507.567754 302.225618 
L 507.641604 260.254663 
L 507.703146 292.898739 
L 507.838538 306.693843 
L 507.924696 308.385696 
L 507.943159 306.932438 
L 508.060088 225.766903 
L 508.115476 36.19267 
L 508.170864 218.609065 
L 508.324718 299.080507 
L 508.570885 305.826227 
L 508.823207 307.843435 
L 509.013986 308.906266 
L 509.241691 310.576428 
L 509.610942 311.509115 
L 509.62325 311.487425 
L 509.654021 311.595877 
L 509.703255 311.552496 
L 509.783259 311.552496 
L 509.746334 311.509115 
L 509.801721 311.530806 
L 509.930959 310.749951 
L 509.992501 304.004232 
L 510.07866 308.906266 
L 510.263285 311.010236 
L 510.454065 311.574187 
L 510.626382 311.817119 
L 510.872549 312.103433 
L 510.90332 312.01884 
L 510.915628 312.0427 
L 510.995633 311.639258 
L 511.05102 307.843435 
L 511.161795 272.184392 
L 511.19872 286.933875 
L 511.340267 306.303416 
L 511.586434 309.730501 
L 511.881835 311.053617 
L 511.943376 311.162069 
L 512.14031 311.552496 
L 512.232623 311.400663 
L 512.281856 310.424595 
L 512.306473 308.862885 
L 512.386477 310.815022 
L 512.589565 311.788922 
L 512.848041 312.090419 
L 512.878812 311.736865 
L 512.989587 311.90605 
L 513.063437 311.994981 
L 513.186521 312.185856 
L 513.204983 312.138137 
L 513.223446 311.465735 
L 513.321913 311.749879 
L 513.328067 311.788922 
L 513.34653 311.357282 
L 513.426534 303.245067 
L 513.500384 307.474698 
L 513.672701 310.446285 
L 513.968102 311.762893 
L 514.029644 311.856162 
L 514.189652 312.081742 
L 514.58352 312.433127 
L 514.589674 312.422282 
L 514.768145 312.515551 
L 515.088163 312.643524 
L 515.438951 312.550255 
L 515.457414 310.945165 
L 515.469722 310.186 
L 515.555881 311.984135 
L 515.734352 312.561101 
L 515.992827 312.767159 
L 516.220532 312.821386 
L 516.448237 312.921161 
L 516.602091 313.01443 
L 516.706712 313.007923 
L 516.712866 313.01443 
L 516.811333 313.044797 
L 516.829796 313.029614 
L 517.168276 312.934176 
L 517.291359 312.346365 
L 517.303668 312.422282 
L 517.463677 312.760652 
L 517.592914 312.734624 
L 517.617531 310.251071 
L 517.70369 312.170673 
L 517.783694 312.556762 
L 517.814465 312.183687 
L 517.882161 311.678301 
L 517.943703 312.090419 
L 518.060632 312.587129 
L 518.091403 312.374563 
L 518.103711 312.352873 
L 518.146791 312.489522 
L 518.356033 312.8344 
L 518.368341 312.825724 
L 518.399112 312.409268 
L 518.417575 312.26828 
L 518.491425 312.693412 
L 518.497579 312.667384 
L 518.571429 312.827893 
L 518.94068 313.062149 
L 519.488402 313.168432 
L 520.109974 313.274715 
L 520.263829 313.298575 
L 520.423838 313.322434 
L 520.626925 313.333279 
L 520.786934 313.346294 
L 521.334656 313.255194 
L 521.359273 312.500367 
L 521.451586 313.029614 
L 521.636211 313.28556 
L 522.270092 313.200968 
L 522.35625 312.899471 
L 522.405484 313.066487 
L 522.565492 313.248687 
L 522.596263 313.224827 
L 522.725501 312.090419 
L 522.793197 312.608819 
L 522.977823 313.051304 
L 523.22399 313.207475 
L 523.451694 313.135897 
L 523.482465 312.858259 
L 523.568624 313.044797 
L 523.630166 313.168432 
L 523.642474 313.112037 
L 523.722478 311.20545 
L 523.740941 310.467975 
L 523.820945 311.893036 
L 523.907104 312.331182 
L 523.937875 311.955938 
L 523.950183 311.880021 
L 524.005571 312.220561 
L 524.110192 312.374563 
L 524.054804 312.090419 
L 524.116346 312.331182 
L 524.140963 312.374563 
L 524.184042 312.276956 
L 524.208659 311.617567 
L 524.288663 303.331829 
L 524.337897 307.431317 
L 524.497905 310.749951 
L 524.504059 310.72826 
L 524.540985 308.841194 
L 524.614835 310.70657 
L 524.793306 311.955938 
L 525.230253 312.665215 
L 525.242561 312.654369 
L 525.347182 312.76499 
L 525.593349 312.92333 
L 525.882596 313.029614 
L 526.042605 313.066487 
L 526.454935 313.174939 
L 526.63956 313.21832 
L 527.556533 313.326772 
L 527.747313 313.350632 
L 528.904299 313.282307 
L 528.990457 312.849583 
L 529.045845 313.02636 
L 529.236624 313.255194 
L 529.679725 313.36473 
L 529.975126 313.398351 
L 531.415204 313.293152 
L 531.569059 313.1847 
L 531.605984 313.216151 
L 531.975235 313.395097 
L 532.172169 313.413534 
L 533.070679 313.261701 
L 533.10145 313.142404 
L 533.181454 313.258447 
L 533.396851 313.367984 
L 533.950727 313.359308 
L 534.036886 312.76499 
L 534.067656 310.619808 
L 534.147661 312.230322 
L 534.295361 312.973218 
L 534.535374 313.181446 
L 534.849237 313.289899 
L 535.230797 313.367984 
L 539.698732 313.276884 
L 539.729503 312.428789 
L 539.815661 312.924415 
L 539.994133 313.234588 
L 540.258762 313.352801 
L 540.701863 313.391843 
L 542.83121 313.282307 
L 542.898906 313.246518 
L 542.941985 313.279053 
L 543.138919 313.261701 
L 543.188152 313.00467 
L 543.218923 312.385408 
L 543.305082 312.807287 
L 543.545095 313.135897 
L 544.105125 313.307251 
L 544.726698 313.417872 
L 545.071332 313.42221 
L 545.600591 313.32135 
L 545.649825 313.255194 
L 545.723675 313.296406 
L 546.123697 313.383167 
L 547.625317 313.29749 
L 547.699167 312.669553 
L 547.760709 312.882119 
L 547.86533 313.033952 
L 548.12996 313.194461 
L 548.979237 313.315927 
L 549.225404 313.346294 
L 549.693122 313.398351 
L 549.92698 313.398351 
L 551.533222 313.294237 
L 551.563993 313.092516 
L 551.656305 313.194461 
L 551.890164 313.115291 
L 551.939398 312.171758 
L 552.03171 293.397618 
L 552.10556 305.652703 
L 552.277877 309.296693 
L 552.284032 309.307538 
L 552.29634 309.12317 
L 552.394807 302.865485 
L 552.499428 237.696631 
L 552.56097 264.375842 
L 552.567124 264.158938 
L 552.579432 266.544884 
L 552.770212 305.132133 
L 552.936375 307.58315 
L 552.960992 307.387936 
L 553.034842 302.35576 
L 553.102538 305.652703 
L 553.379476 309.296693 
L 553.754881 310.923474 
L 554.493383 312.005826 
L 554.610312 312.114278 
L 554.807246 312.276956 
L 555.010334 312.385408 
L 555.145726 312.459156 
L 555.478052 312.569777 
L 555.662677 312.654369 
L 555.779606 312.673891 
L 556.136549 312.773667 
L 556.271941 312.823555 
L 556.419641 312.866935 
L 556.973517 312.888626 
L 557.028905 311.292211 
L 557.133526 266.761788 
L 557.201222 292.551692 
L 557.299689 303.678875 
L 557.33046 300.577146 
L 557.40431 289.31982 
L 557.441235 298.71177 
L 557.601244 306.758914 
L 557.804332 309.12317 
L 558.075116 310.424595 
L 558.222816 310.945165 
L 558.401287 311.422354 
L 558.573604 311.708667 
L 558.592067 311.695653 
L 559.367494 312.440719 
L 559.675203 312.236829 
L 559.705974 311.930994 
L 559.779824 312.276956 
L 559.785978 312.265026 
L 559.792132 312.314914 
L 559.804441 312.28997 
L 560.11215 312.568692 
L 560.813726 312.791019 
L 560.81988 312.769329 
L 560.973735 311.834472 
L 561.022968 311.955938 
L 561.152206 312.253097 
L 561.312215 312.53941 
L 561.34914 312.499283 
L 561.515303 312.231406 
L 561.53992 312.259604 
L 562.179954 312.778005 
L 562.43843 312.819216 
L 562.444584 312.763906 
L 562.481509 312.49386 
L 562.499972 310.717415 
L 562.592285 283.57186 
L 562.641518 288.886012 
L 562.77691 306.390177 
L 563.029231 310.196845 
L 563.663112 312.154405 
L 564.044671 312.544833 
L 564.327764 312.654369 
L 564.457001 312.617496 
L 564.500081 312.452648 
L 564.586239 311.031926 
L 564.653935 311.873514 
L 564.850869 312.432043 
L 565.170886 312.682567 
L 565.201657 312.597974 
L 565.306278 312.702088 
L 565.447824 312.815963 
L 565.466287 312.745469 
L 565.577062 311.162069 
L 565.626296 311.762893 
L 565.675529 311.938586 
L 565.681683 311.564426 
L 565.687837 310.945165 
L 565.786304 312.084996 
L 565.878617 312.259604 
L 565.829384 311.90605 
L 565.903234 312.150067 
L 565.915542 312.138137 
L 565.952467 312.271533 
L 566.210943 312.778005 
L 566.629427 312.945021 
L 567.010986 313.051304 
L 567.195612 313.120713 
L 567.891034 313.231334 
L 568.235668 313.289899 
L 568.537223 313.191207 
L 568.574148 313.155418 
L 568.647998 313.210728 
L 569.054174 313.302913 
L 572.088186 313.279053 
L 572.112802 313.03829 
L 572.198961 313.273631 
L 572.38974 313.391843 
L 573.472876 313.298575 
L 573.534418 313.350632 
L 573.589806 312.616411 
L 573.59596 312.276956 
L 573.688273 312.961289 
L 573.786739 313.08384 
L 573.799048 312.965627 
L 573.823665 312.682567 
L 573.903669 313.04805 
L 574.100603 313.287729 
L 574.235995 313.261701 
L 574.242149 313.243264 
L 574.279074 313.107699 
L 574.352924 313.234588 
L 574.623708 313.359308 
L 575.479139 313.255194 
L 575.62684 311.934248 
L 575.645302 311.237985 
L 575.725306 312.583875 
L 575.903778 313.132643 
L 576.223795 313.313758 
L 577.756186 313.219405 
L 577.786957 313.043712 
L 577.823882 310.554737 
L 577.910041 312.248759 
L 577.946966 312.161997 
L 578.131591 312.885372 
L 578.21775 310.034167 
L 578.242366 306.097357 
L 578.322371 310.608963 
L 578.494688 312.38107 
L 578.593155 312.605566 
L 578.599309 312.516635 
L 578.63008 311.617567 
L 578.710084 312.304069 
L 578.950097 312.897302 
L 579.411661 313.224827 
L 579.922458 313.370153 
L 582.316434 313.478605 
L 582.513368 313.482943 
L 583.491883 313.375576 
L 583.516499 313.320265 
L 583.553424 312.001488 
L 583.639583 312.874527 
L 583.818054 313.276884 
L 584.199613 313.416787 
L 584.402701 313.433055 
L 587.60903 313.337617 
L 587.664417 313.088178 
L 587.750576 313.197714 
L 588.064439 313.372322 
L 589.418359 313.282307 
L 589.547597 312.877781 
L 589.578367 312.926584 
L 589.781455 313.155418 
L 589.836843 313.129389 
L 589.849151 313.087093 
L 589.892231 311.368128 
L 589.996852 312.36914 
L 590.163015 312.811625 
L 590.569191 313.13915 
L 591.018446 313.253025 
L 591.498472 313.279053 
L 591.658481 313.289899 
L 593.76321 313.240011 
L 593.824752 310.988545 
L 593.849369 306.498629 
L 593.935527 310.771641 
L 594.120153 312.390831 
L 594.354012 312.823555 
L 594.495558 312.934176 
L 595.000201 313.155418 
L 595.757165 313.044797 
L 595.94179 312.836569 
L 596.021795 312.814878 
L 596.05872 312.849583 
L 596.317195 313.029614 
L 596.717217 313.13915 
L 597.080314 313.207475 
L 597.603419 313.121798 
L 597.621882 312.818132 
L 597.701886 298.494866 
L 597.763428 306.498629 
L 597.929591 310.511356 
L 598.157296 311.7694 
L 598.200375 311.853993 
L 598.2373 311.642511 
L 598.261917 311.053617 
L 598.323458 305.967214 
L 598.397309 308.852039 
L 598.588088 311.042771 
L 598.735789 311.422354 
L 598.754251 311.346437 
L 598.778868 310.923474 
L 598.889643 292.877048 
L 598.938876 302.117165 
L 599.098885 308.288089 
L 599.351207 310.543892 
L 599.437365 310.912629 
L 599.837387 311.919064 
L 599.948162 311.530806 
L 600.015858 307.442162 
L 600.065092 302.973937 
L 600.138942 306.726379 
L 600.348184 309.838953 
L 600.63743 311.107843 
L 600.809747 311.422354 
L 600.82821 311.378973 
L 600.883598 311.357282 
L 600.914369 311.454889 
L 600.97591 311.617567 
L 601.006681 311.411509 
L 601.031298 310.131774 
L 601.09284 303.689721 
L 601.160536 307.463853 
L 601.339007 309.882334 
L 601.57902 310.771641 
L 601.609791 310.739106 
L 601.702104 310.424595 
L 601.757491 310.695725 
L 602.028275 311.541651 
L 602.379064 311.945093 
L 602.508301 312.0427 
L 602.612922 312.161997 
L 602.625231 312.152236 
L 603.043715 312.390831 
L 603.142182 312.44831 
L 603.462199 312.558931 
L 603.696058 312.626172 
L 603.837604 312.416859 
L 603.862221 311.724935 
L 603.923763 306.303416 
L 603.997613 309.556978 
L 604.176084 311.313902 
L 604.385327 311.827964 
L 604.422252 311.840979 
L 604.459177 311.743372 
L 604.496102 311.183759 
L 604.637648 306.823986 
L 604.69919 308.472457 
L 604.914586 310.543892 
L 605.351533 311.682639 
L 605.702321 312.127292 
L 605.763863 311.981966 
L 605.843867 311.20545 
L 605.930026 311.606722 
L 606.163885 312.031854 
L 606.342356 311.925571 
L 606.34851 311.919064 
L 606.391589 312.01884 
L 606.656219 312.320337 
L 606.846999 312.42662 
L 607.130091 312.528565 
L 607.443954 312.637017 
L 607.579346 312.692328 
L 608.274769 312.723779 
L 608.299386 312.488438 
L 608.360927 303.049853 
L 608.428623 308.667671 
L 608.607095 311.064462 
L 608.742487 311.411509 
L 608.748641 311.389818 
L 608.822491 307.756673 
L 608.871724 309.036408 
L 608.920958 309.752192 
L 608.9825 309.177396 
L 608.994808 309.036408 
L 609.044041 309.719656 
L 609.290209 311.411509 
L 609.88101 312.242251 
L 609.936398 312.266111 
L 609.967169 312.309492 
L 610.151794 312.417944 
L 610.422578 312.500367 
L 610.428732 312.478677 
L 610.514891 311.748794 
L 610.55797 310.72826 
L 610.637974 311.368128 
L 610.662591 311.259676 
L 610.668745 311.24883 
L 610.693362 311.368128 
L 610.853371 311.90605 
L 611.154925 312.287801 
L 611.327242 312.34745 
L 611.345705 312.309492 
L 611.419555 311.444044 
L 611.450326 305.565942 
L 611.542639 310.001632 
L 611.733418 311.552496 
L 612.047282 312.114278 
L 612.139594 312.055714 
L 612.182674 311.808443 
L 612.213445 311.368128 
L 612.293449 311.664202 
L 612.521154 312.127292 
L 613.265809 312.637017 
L 613.530439 312.549171 
L 613.567364 311.637089 
L 613.641214 306.596236 
L 613.715065 308.819504 
L 613.905844 310.95601 
L 614.207399 311.749879 
L 614.225862 311.708667 
L 614.268941 311.378973 
L 614.348945 311.617567 
L 614.570496 312.202124 
L 614.748967 312.390831 
L 615.161297 312.621834 
L 615.167451 312.613158 
L 615.315152 311.800851 
L 615.345923 311.118688 
L 615.419773 311.867007 
L 615.598244 312.453733 
L 615.850565 312.645693 
L 615.985957 312.715102 
L 616.053653 311.140378 
L 616.164429 275.654858 
L 616.207508 292.69268 
L 616.3429 305.923833 
L 616.435213 308.027804 
L 616.484446 307.225258 
L 616.545988 303.93916 
L 616.601375 306.704688 
L 616.804463 309.426835 
L 616.810618 309.405145 
L 616.847543 308.754433 
L 616.927547 300.327706 
L 616.982935 306.780605 
L 617.136789 309.155705 
L 617.149098 309.068944 
L 617.235256 306.108202 
L 617.296798 307.604841 
L 617.536811 309.91487 
L 617.592199 309.969096 
L 617.610661 309.893179 
L 617.659895 307.691602 
L 617.672203 307.431317 
L 617.727591 308.645981 
L 617.942987 310.489666 
L 618.072225 310.934319 
L 618.299929 311.552496 
L 618.361471 311.660948 
L 618.632255 312.031854 
L 618.755339 310.825867 
L 618.773801 310.608963 
L 618.841497 311.368128 
L 618.995352 311.994981 
L 619.013814 311.919064 
L 619.056894 311.73578 
L 619.173823 307.800054 
L 619.241519 309.524442 
L 619.432299 311.259676 
L 619.721545 311.893036 
L 619.826166 311.994981 
L 620.133875 312.320337 
L 620.250805 312.271533 
L 620.28773 311.378973 
L 620.367734 299.449244 
L 620.423122 303.212531 
L 620.595439 309.340074 
L 620.884685 311.237985 
L 620.970844 311.465735 
L 621.007769 311.292211 
L 621.013923 311.24883 
L 621.087773 311.49827 
L 621.106236 311.519961 
L 621.118544 311.444044 
L 621.149315 311.096997 
L 621.223165 311.563341 
L 621.420099 312.01884 
L 621.444716 312.055714 
L 621.469332 312.00691 
L 621.493949 310.261916 
L 621.59857 272.943556 
L 621.653958 298.028522 
L 621.801658 307.181877 
L 622.047825 310.088393 
L 622.318609 311.216295 
L 622.577085 311.729273 
L 622.854023 312.025347 
L 622.890948 311.944008 
L 623.007878 311.454889 
L 622.940182 311.968952 
L 623.106345 311.628413 
L 623.303278 312.000403 
L 623.149424 311.509115 
L 623.309433 311.980882 
L 623.395591 310.674034 
L 623.420208 308.179637 
L 623.500212 310.945165 
L 623.690992 311.962445 
L 623.881771 312.253097 
L 623.887926 312.224899 
L 623.906388 311.91798 
L 623.924851 309.470216 
L 624.04178 260.688472 
L 624.078705 274.028077 
L 624.23256 305.945524 
L 624.583348 310.175155 
L 624.835669 311.20545 
L 624.878749 311.313902 
L 625.069528 311.745541 
L 625.254154 311.932078 
L 625.284925 311.840979 
L 625.303387 308.298934 
L 625.3957 311.552496 
L 625.611096 312.108855 
L 625.838801 312.282379 
L 625.851109 312.197786 
L 625.968039 310.945165 
L 625.986501 307.06258 
L 626.078814 311.010236 
L 626.22036 311.541651 
L 626.509607 312.202124 
L 626.515761 312.180434 
L 626.534223 312.127292 
L 626.620382 312.214054 
L 626.835778 312.489522 
L 627.241954 312.702088 
L 627.629667 312.811625 
L 628.146619 312.962373 
L 628.288165 312.853921 
L 628.343552 312.728117 
L 628.411248 312.814878 
L 628.657416 312.977557 
L 629.303605 312.922246 
L 629.328221 312.778005 
L 629.408226 312.94719 
L 629.82671 313.044797 
L 629.968256 312.934176 
L 630.048261 312.407099 
L 630.09134 312.678229 
L 630.146727 312.569777 
L 630.220578 312.732455 
L 630.423666 312.984064 
L 630.552903 313.03829 
L 630.866767 312.961289 
L 630.885229 310.348678 
L 630.903692 308.656826 
L 630.983696 311.631666 
L 631.162167 312.686905 
L 631.340639 312.899471 
L 631.956057 313.101192 
L 632.87303 313.094685 
L 633.033038 310.500511 
L 633.039192 310.565582 
L 633.205355 312.437465 
L 633.24228 312.401676 
L 633.254589 312.379986 
L 633.297668 312.514466 
L 633.371518 312.654369 
L 633.426906 312.558931 
L 633.457677 312.641355 
L 633.476139 312.401676 
L 633.543835 312.459156 
L 633.568452 311.924487 
L 633.599223 311.324747 
L 633.673073 312.115362 
L 633.857698 312.696666 
L 633.937703 312.791019 
L 634.011553 312.732455 
L 634.060786 312.736793 
L 634.073095 312.682567 
L 634.11002 312.509044 
L 634.18387 312.686905 
L 634.226949 312.791019 
L 634.25772 312.715102 
L 634.276183 312.01884 
L 634.368495 312.706426 
L 634.583892 312.914654 
L 634.848522 313.023106 
L 635.297777 313.135897 
L 635.470094 313.168432 
L 636.21475 313.072994 
L 636.245521 312.99274 
L 636.313217 313.094685 
L 636.805551 313.231334 
L 637.654828 313.125051 
L 637.673291 311.629497 
L 637.753295 302.193082 
L 637.802528 307.387936 
L 637.907149 310.663189 
L 637.944075 309.947405 
L 638.011771 300.978419 
L 638.085621 307.539769 
L 638.270246 310.847558 
L 638.516413 312.037277 
L 638.959514 312.665215 
L 639.094906 312.775836 
L 639.421078 312.873443 
L 639.43954 312.61858 
L 639.476466 292.17211 
L 639.507236 205.486364 
L 639.593395 276.630927 
L 639.753404 306.856521 
L 639.944183 309.589514 
L 640.067267 310.294452 
L 640.079575 310.012477 
L 640.1165 306.574546 
L 640.23343 276.414023 
L 640.270355 292.258872 
L 640.405747 306.661308 
L 640.633452 309.600359 
L 640.873465 310.739106 
L 641.101169 311.346437 
L 641.310411 311.686977 
L 641.58735 312.001488 
L 641.599658 311.845317 
L 641.630429 311.552496 
L 641.691971 309.773882 
L 641.710433 309.101479 
L 641.790438 310.641499 
L 641.968909 311.595877 
L 642.042759 311.745541 
L 642.07353 311.617567 
L 642.104301 310.630654 
L 642.215076 286.17471 
L 642.258155 292.71437 
L 642.405856 304.448885 
L 642.479706 301.85688 
L 642.492014 301.076025 
L 642.553556 304.70917 
L 642.744336 308.570064 
L 642.885882 309.491907 
L 642.910498 309.264157 
L 643.058199 299.666148 
L 643.101278 302.62689 
L 643.285903 307.951887 
L 643.532071 309.893179 
L 643.827471 310.869248 
L 643.876705 310.9777 
L 644.079793 311.270521 
L 644.098255 311.162069 
L 644.129026 310.348678 
L 644.202876 290.187437 
L 644.239802 274.67879 
L 644.289035 294.460449 
L 644.424427 305.576787 
L 644.689057 309.188241 
L 644.824449 309.708811 
L 644.85522 309.513597 
L 644.892145 309.058098 
L 644.947532 309.66543 
L 645.107541 310.392059 
L 645.298321 310.804177 
L 645.833734 311.530806 
L 645.987589 311.639258 
L 646.135289 311.782415 
L 646.307606 311.81495 
L 646.375302 311.49827 
L 646.43069 308.982182 
L 646.541465 310.16431 
L 646.806095 311.24883 
L 647.119958 311.595877 
L 647.163037 311.357282 
L 647.230733 311.595877 
L 647.286121 311.639258 
L 647.335354 311.574187 
L 647.550751 307.301175 
L 647.655372 287.909943 
L 647.698451 301.195323 
L 647.852306 307.604841 
L 648.104627 309.860644 
L 648.129244 309.958251 
L 648.41849 310.901784 
L 648.996983 311.697822 
L 649.101604 311.804105 
L 649.304692 311.979797 
L 649.520089 312.090419 
L 649.877031 312.261773 
L 649.981652 312.17718 
L 650.061657 311.465735 
L 650.135507 311.773738 
L 650.307824 312.0427 
L 650.467833 312.148983 
L 650.67092 312.285632 
L 650.960167 312.394084 
L 651.335572 312.502536 
L 651.563277 312.528565 
L 651.766365 312.419028 
L 651.80329 312.257435 
L 651.87714 308.87373 
L 651.95099 310.68488 
L 652.135616 311.754217 
L 652.911042 312.413606 
L 652.991047 312.476508 
L 652.997201 312.487353 
L 653.551077 312.597974 
L 653.64339 312.548086 
L 653.649544 312.538326 
L 653.668007 312.126208 
L 653.711086 300.501229 
L 653.809553 270.991419 
L 653.852632 289.862081 
L 653.988024 305.674394 
L 654.252654 309.209931 
L 654.492667 310.370369 
L 654.646521 310.815022 
L 654.671138 310.68488 
L 654.751142 308.635135 
L 654.855763 304.004232 
L 654.892689 305.555096 
L 655.077314 308.949646 
L 655.360406 310.424595 
L 655.48349 310.663189 
L 655.563494 310.565582 
L 655.581957 310.554737 
L 655.625036 310.619808 
L 655.649653 310.619808 
L 656.240454 311.444044 
L 656.375846 311.389818 
L 656.462005 310.175155 
L 656.554317 310.45713 
L 656.812793 311.24883 
L 656.898951 311.346437 
L 657.083577 311.595877 
L 657.262048 311.741203 
L 657.274357 311.708667 
L 657.305127 310.326988 
L 657.378978 297.92007 
L 657.428211 305.414109 
L 657.508215 307.659067 
L 657.551295 306.878212 
L 657.575911 306.010595 
L 657.643607 307.659067 
L 657.822079 309.589514 
L 658.099017 310.760796 
L 658.166713 310.815022 
L 658.197484 310.760796 
L 658.26518 309.622049 
L 658.382109 310.20769 
L 658.492884 310.554737 
L 658.523655 310.446285 
L 658.597505 304.806777 
L 658.702126 307.734983 
L 658.911369 309.882334 
L 659.028298 310.305297 
L 659.336007 310.988545 
L 659.932963 311.819288 
L 660.086817 311.926656 
L 660.216055 311.945093 
L 660.240672 311.914726 
L 660.394526 311.728189 
L 660.468376 311.825795 
L 660.683773 312.049207 
L 660.689927 312.0427 
L 662.456177 312.548086 
L 662.536181 312.51772 
L 662.57926 312.542664 
L 662.671573 312.476508 
L 662.714652 312.329013 
L 662.757732 312.183687 
L 662.825428 312.28021 
L 663.028516 312.456987 
L 663.040824 312.435296 
L 663.071595 311.703245 
L 663.176216 285.63245 
L 663.243912 304.090993 
L 663.410075 308.439922 
L 663.416229 308.385696 
L 663.440846 307.58315 
L 663.508542 308.862885 
L 663.607009 309.752192 
L 663.643934 309.242467 
L 663.717784 299.123888 
L 663.773171 305.641858 
L 663.791634 306.281725 
L 663.810097 304.470576 
L 663.908563 238.998056 
L 663.976259 278.908421 
L 664.12396 304.210291 
L 664.302431 306.54201 
L 664.314739 306.433558 
L 664.339356 306.173273 
L 664.38859 306.954128 
L 664.554752 308.35316 
L 664.585523 308.08203 
L 664.628603 305.598477 
L 664.702453 307.789209 
L 664.960928 309.632894 
L 665.114783 310.16431 
L 665.182479 310.012477 
L 665.207096 309.979941 
L 665.237866 309.003872 
L 665.311717 310.066703 
L 665.496342 310.749951 
L 665.502496 310.760796 
L 665.55173 310.652344 
L 665.588655 310.251071 
L 665.656351 308.136256 
L 665.724047 309.285848 
L 665.914826 310.467975 
L 666.074835 310.739106 
L 666.087143 310.695725 
L 666.179456 309.231622 
L 666.271769 310.012477 
L 666.542553 310.901784 
L 666.548707 310.890939 
L 666.561015 310.880093 
L 666.610249 310.999391 
L 666.831799 311.378973 
L 666.924112 311.487425 
L 667.114892 311.758555 
L 667.262592 311.869176 
L 667.293363 311.888698 
L 667.330288 311.786753 
L 667.397984 311.411509 
L 667.477988 304.741706 
L 667.502605 301.997868 
L 667.570301 307.528924 
L 667.80416 310.359523 
L 668.087252 311.259676 
L 668.48112 311.771569 
L 668.493428 311.758555 
L 668.671899 311.862669 
L 668.831908 311.975459 
L 668.721133 311.823626 
L 668.838062 311.968952 
L 669.010379 310.489666 
L 669.071921 310.945165 
L 669.182696 311.530806 
L 669.219621 311.292211 
L 669.30578 309.372609 
L 669.385784 310.511356 
L 669.607335 311.487425 
L 669.761189 311.585032 
L 669.773498 311.628413 
L 669.828885 311.487425 
L 669.884273 307.713293 
L 669.970432 310.294452 
L 670.155057 311.357282 
L 670.647391 312.001488 
L 670.672008 311.910388 
L 670.690471 311.659864 
L 670.721242 309.763037 
L 670.8074 310.815022 
L 670.985871 311.817119 
L 671.139726 312.01884 
L 671.152034 311.96353 
L 671.232039 310.283607 
L 671.256655 307.941042 
L 671.342814 310.283607 
L 671.545902 311.585032 
L 671.724373 311.930994 
L 671.792069 311.925571 
L 671.810532 311.869176 
L 671.884382 311.660948 
L 671.945924 310.966855 
L 672.025928 311.22714 
L 672.198245 311.756386 
L 672.241324 311.617567 
L 672.278249 309.611204 
L 672.358254 292.866203 
L 672.407487 303.266757 
L 672.549033 307.442162 
L 672.561342 307.04089 
L 672.585958 305.772 
L 672.653654 307.941042 
L 672.832126 309.990786 
L 673.207531 311.378973 
L 673.232147 311.303056 
L 673.330614 309.893179 
L 673.367539 305.631013 
L 673.44139 309.264157 
L 673.607552 310.934319 
L 673.669094 311.140378 
L 673.699865 310.901784 
L 673.761407 311.021081 
L 673.798332 309.101479 
L 673.896799 289.536724 
L 673.952187 301.227858 
L 674.032191 305.978059 
L 674.07527 303.570423 
L 674.106041 300.653062 
L 674.167583 304.893539 
L 674.376825 308.830349 
L 674.641455 310.467975 
L 675.004551 311.357282 
L 675.09071 311.465735 
L 675.16456 311.552496 
L 675.183023 311.422354 
L 675.226102 311.172914 
L 675.263027 306.52032 
L 675.35534 310.066703 
L 675.546119 311.346437 
L 675.730745 311.741203 
L 676.18 312.101264 
L 676.18 312.101264 
" clip-path="url(#p6ee498a6a6)" style="fill: none; stroke: #1f77b4; stroke-width: 1.5; stroke-linecap: square"/>
   </g>
   <g id="patch_3">
    <path d="M 52.375 327.558125 
L 52.375 22.318125 
" style="fill: none; stroke: #000000; stroke-width: 0.8; stroke-linejoin: miter; stroke-linecap: square"/>
   </g>
   <g id="patch_4">
    <path d="M 705.885 327.558125 
L 705.885 22.318125 
" style="fill: none; stroke: #000000; stroke-width: 0.8; stroke-linejoin: miter; stroke-linecap: square"/>
   </g>
   <g id="patch_5">
    <path d="M 52.375 327.558125 
L 705.885 327.558125 
" style="fill: none; stroke: #000000; stroke-width: 0.8; stroke-linejoin: miter; stroke-linecap: square"/>
   </g>
   <g id="patch_6">
    <path d="M 52.375 22.318125 
L 705.885 22.318125 
" style="fill: none; stroke: #000000; stroke-width: 0.8; stroke-linejoin: miter; stroke-linecap: square"/>
   </g>
   <g id="text_14">
    <!-- training -->
    <g transform="translate(355.886563 16.318125) scale(0.12 -0.12)">
     <defs>
      <path id="DejaVuSans-74" d="M 1172 4494 
L 1172 3500 
L 2356 3500 
L 2356 3053 
L 1172 3053 
L 1172 1153 
Q 1172 725 1289 603 
Q 1406 481 1766 481 
L 2356 481 
L 2356 0 
L 1766 0 
Q 1100 0 847 248 
Q 594 497 594 1153 
L 594 3053 
L 172 3053 
L 172 3500 
L 594 3500 
L 594 4494 
L 1172 4494 
z
" transform="scale(0.015625)"/>
      <path id="DejaVuSans-72" d="M 2631 2963 
Q 2534 3019 2420 3045 
Q 2306 3072 2169 3072 
Q 1681 3072 1420 2755 
Q 1159 2438 1159 1844 
L 1159 0 
L 581 0 
L 581 3500 
L 1159 3500 
L 1159 2956 
Q 1341 3275 1631 3429 
Q 1922 3584 2338 3584 
Q 2397 3584 2469 3576 
Q 2541 3569 2628 3553 
L 2631 2963 
z
" transform="scale(0.015625)"/>
      <path id="DejaVuSans-61" d="M 2194 1759 
Q 1497 1759 1228 1600 
Q 959 1441 959 1056 
Q 959 750 1161 570 
Q 1363 391 1709 391 
Q 2188 391 2477 730 
Q 2766 1069 2766 1631 
L 2766 1759 
L 2194 1759 
z
M 3341 1997 
L 3341 0 
L 2766 0 
L 2766 531 
Q 2569 213 2275 61 
Q 1981 -91 1556 -91 
Q 1019 -91 701 211 
Q 384 513 384 1019 
Q 384 1609 779 1909 
Q 1175 2209 1959 2209 
L 2766 2209 
L 2766 2266 
Q 2766 2663 2505 2880 
Q 2244 3097 1772 3097 
Q 1472 3097 1187 3025 
Q 903 2953 641 2809 
L 641 3341 
Q 956 3463 1253 3523 
Q 1550 3584 1831 3584 
Q 2591 3584 2966 3190 
Q 3341 2797 3341 1997 
z
" transform="scale(0.015625)"/>
      <path id="DejaVuSans-69" d="M 603 3500 
L 1178 3500 
L 1178 0 
L 603 0 
L 603 3500 
z
M 603 4863 
L 1178 4863 
L 1178 4134 
L 603 4134 
L 603 4863 
z
" transform="scale(0.015625)"/>
      <path id="DejaVuSans-6e" d="M 3513 2113 
L 3513 0 
L 2938 0 
L 2938 2094 
Q 2938 2591 2744 2837 
Q 2550 3084 2163 3084 
Q 1697 3084 1428 2787 
Q 1159 2491 1159 1978 
L 1159 0 
L 581 0 
L 581 3500 
L 1159 3500 
L 1159 2956 
Q 1366 3272 1645 3428 
Q 1925 3584 2291 3584 
Q 2894 3584 3203 3211 
Q 3513 2838 3513 2113 
z
" transform="scale(0.015625)"/>
      <path id="DejaVuSans-67" d="M 2906 1791 
Q 2906 2416 2648 2759 
Q 2391 3103 1925 3103 
Q 1463 3103 1205 2759 
Q 947 2416 947 1791 
Q 947 1169 1205 825 
Q 1463 481 1925 481 
Q 2391 481 2648 825 
Q 2906 1169 2906 1791 
z
M 3481 434 
Q 3481 -459 3084 -895 
Q 2688 -1331 1869 -1331 
Q 1566 -1331 1297 -1286 
Q 1028 -1241 775 -1147 
L 775 -588 
Q 1028 -725 1275 -790 
Q 1522 -856 1778 -856 
Q 2344 -856 2625 -561 
Q 2906 -266 2906 331 
L 2906 616 
Q 2728 306 2450 153 
Q 2172 0 1784 0 
Q 1141 0 747 490 
Q 353 981 353 1791 
Q 353 2603 747 3093 
Q 1141 3584 1784 3584 
Q 2172 3584 2450 3431 
Q 2728 3278 2906 2969 
L 2906 3500 
L 3481 3500 
L 3481 434 
z
" transform="scale(0.015625)"/>
     </defs>
     <use xlink:href="#DejaVuSans-74"/>
     <use xlink:href="#DejaVuSans-72" x="39.208984"/>
     <use xlink:href="#DejaVuSans-61" x="80.322266"/>
     <use xlink:href="#DejaVuSans-69" x="141.601562"/>
     <use xlink:href="#DejaVuSans-6e" x="169.384766"/>
     <use xlink:href="#DejaVuSans-69" x="232.763672"/>
     <use xlink:href="#DejaVuSans-6e" x="260.546875"/>
     <use xlink:href="#DejaVuSans-67" x="323.925781"/>
    </g>
   </g>
   <g id="legend_1">
    <g id="patch_7">
     <path d="M 620.524063 44.99625 
L 698.885 44.99625 
Q 700.885 44.99625 700.885 42.99625 
L 700.885 29.318125 
Q 700.885 27.318125 698.885 27.318125 
L 620.524063 27.318125 
Q 618.524063 27.318125 618.524063 29.318125 
L 618.524063 42.99625 
Q 618.524063 44.99625 620.524063 44.99625 
z
" style="fill: #ffffff; opacity: 0.8; stroke: #cccccc; stroke-linejoin: miter"/>
    </g>
    <g id="line2d_15">
     <path d="M 622.524063 35.416563 
L 632.524063 35.416563 
L 642.524063 35.416563 
" style="fill: none; stroke: #1f77b4; stroke-width: 1.5; stroke-linecap: square"/>
    </g>
    <g id="text_15">
     <!-- observed -->
     <g transform="translate(650.524063 38.916563) scale(0.1 -0.1)">
      <defs>
       <path id="DejaVuSans-6f" d="M 1959 3097 
Q 1497 3097 1228 2736 
Q 959 2375 959 1747 
Q 959 1119 1226 758 
Q 1494 397 1959 397 
Q 2419 397 2687 759 
Q 2956 1122 2956 1747 
Q 2956 2369 2687 2733 
Q 2419 3097 1959 3097 
z
M 1959 3584 
Q 2709 3584 3137 3096 
Q 3566 2609 3566 1747 
Q 3566 888 3137 398 
Q 2709 -91 1959 -91 
Q 1206 -91 779 398 
Q 353 888 353 1747 
Q 353 2609 779 3096 
Q 1206 3584 1959 3584 
z
" transform="scale(0.015625)"/>
       <path id="DejaVuSans-62" d="M 3116 1747 
Q 3116 2381 2855 2742 
Q 2594 3103 2138 3103 
Q 1681 3103 1420 2742 
Q 1159 2381 1159 1747 
Q 1159 1113 1420 752 
Q 1681 391 2138 391 
Q 2594 391 2855 752 
Q 3116 1113 3116 1747 
z
M 1159 2969 
Q 1341 3281 1617 3432 
Q 1894 3584 2278 3584 
Q 2916 3584 3314 3078 
Q 3713 2572 3713 1747 
Q 3713 922 3314 415 
Q 2916 -91 2278 -91 
Q 1894 -91 1617 61 
Q 1341 213 1159 525 
L 1159 0 
L 581 0 
L 581 4863 
L 1159 4863 
L 1159 2969 
z
" transform="scale(0.015625)"/>
       <path id="DejaVuSans-73" d="M 2834 3397 
L 2834 2853 
Q 2591 2978 2328 3040 
Q 2066 3103 1784 3103 
Q 1356 3103 1142 2972 
Q 928 2841 928 2578 
Q 928 2378 1081 2264 
Q 1234 2150 1697 2047 
L 1894 2003 
Q 2506 1872 2764 1633 
Q 3022 1394 3022 966 
Q 3022 478 2636 193 
Q 2250 -91 1575 -91 
Q 1294 -91 989 -36 
Q 684 19 347 128 
L 347 722 
Q 666 556 975 473 
Q 1284 391 1588 391 
Q 1994 391 2212 530 
Q 2431 669 2431 922 
Q 2431 1156 2273 1281 
Q 2116 1406 1581 1522 
L 1381 1569 
Q 847 1681 609 1914 
Q 372 2147 372 2553 
Q 372 3047 722 3315 
Q 1072 3584 1716 3584 
Q 2034 3584 2315 3537 
Q 2597 3491 2834 3397 
z
" transform="scale(0.015625)"/>
       <path id="DejaVuSans-65" d="M 3597 1894 
L 3597 1613 
L 953 1613 
Q 991 1019 1311 708 
Q 1631 397 2203 397 
Q 2534 397 2845 478 
Q 3156 559 3463 722 
L 3463 178 
Q 3153 47 2828 -22 
Q 2503 -91 2169 -91 
Q 1331 -91 842 396 
Q 353 884 353 1716 
Q 353 2575 817 3079 
Q 1281 3584 2069 3584 
Q 2775 3584 3186 3129 
Q 3597 2675 3597 1894 
z
M 3022 2063 
Q 3016 2534 2758 2815 
Q 2500 3097 2075 3097 
Q 1594 3097 1305 2825 
Q 1016 2553 972 2059 
L 3022 2063 
z
" transform="scale(0.015625)"/>
       <path id="DejaVuSans-76" d="M 191 3500 
L 800 3500 
L 1894 563 
L 2988 3500 
L 3597 3500 
L 2284 0 
L 1503 0 
L 191 3500 
z
" transform="scale(0.015625)"/>
       <path id="DejaVuSans-64" d="M 2906 2969 
L 2906 4863 
L 3481 4863 
L 3481 0 
L 2906 0 
L 2906 525 
Q 2725 213 2448 61 
Q 2172 -91 1784 -91 
Q 1150 -91 751 415 
Q 353 922 353 1747 
Q 353 2572 751 3078 
Q 1150 3584 1784 3584 
Q 2172 3584 2448 3432 
Q 2725 3281 2906 2969 
z
M 947 1747 
Q 947 1113 1208 752 
Q 1469 391 1925 391 
Q 2381 391 2643 752 
Q 2906 1113 2906 1747 
Q 2906 2381 2643 2742 
Q 2381 3103 1925 3103 
Q 1469 3103 1208 2742 
Q 947 2381 947 1747 
z
" transform="scale(0.015625)"/>
      </defs>
      <use xlink:href="#DejaVuSans-6f"/>
      <use xlink:href="#DejaVuSans-62" x="61.181641"/>
      <use xlink:href="#DejaVuSans-73" x="124.658203"/>
      <use xlink:href="#DejaVuSans-65" x="176.757812"/>
      <use xlink:href="#DejaVuSans-72" x="238.28125"/>
      <use xlink:href="#DejaVuSans-76" x="279.394531"/>
      <use xlink:href="#DejaVuSans-65" x="338.574219"/>
      <use xlink:href="#DejaVuSans-64" x="400.097656"/>
     </g>
    </g>
   </g>
  </g>
 </g>
 <defs>
  <clipPath id="p6ee498a6a6">
   <rect x="52.375" y="22.318125" width="653.51" height="305.24"/>
  </clipPath>
 </defs>
</svg>
