<?xml version="1.0" encoding="utf-8" standalone="no"?>
<!DOCTYPE svg PUBLIC "-//W3C//DTD SVG 1.1//EN"
  "http://www.w3.org/Graphics/SVG/1.1/DTD/svg11.dtd">
<svg xmlns:xlink="http://www.w3.org/1999/xlink" width="720pt" height="360pt" viewBox="0 0 720 360" xmlns="http://www.w3.org/2000/svg" version="1.1">
 <metadata>
  <rdf:RDF xmlns:dc="http://purl.org/dc/elements/1.1/" xmlns:cc="http://creativecommons.org/ns#" xmlns:rdf="http://www.w3.org/1999/02/22-rdf-syntax-ns#">
   <cc:Work>
    <dc:type rdf:resource="http://purl.org/dc/dcmitype/StillImage"/>
    <dc:date>2023-10-23T10:54:31.076372</dc:date>
    <dc:format>image/svg+xml</dc:format>
    <dc:creator>
     <cc:Agent>
      <dc:title>Matplotlib v3.7.1, https://matplotlib.org/</dc:title>
     </cc:Agent>
    </dc:creator>
   </cc:Work>
  </rdf:RDF>
 </metadata>
 <defs>
  <style type="text/css">*{stroke-linejoin: round; stroke-linecap: butt}</style>
 </defs>
 <g id="figure_1">
  <g id="patch_1">
   <path d="M 0 360 
L 720 360 
L 720 0 
L 0 0 
z
" style="fill: #ffffff"/>
  </g>
  <g id="axes_1">
   <g id="patch_2">
    <path d="M 90 288 
L 648 288 
L 648 43.2 
L 90 43.2 
z
" style="fill: #ffffff"/>
   </g>
   <g id="matplotlib.axis_1">
    <g id="xtick_1">
     <g id="line2d_1">
      <defs>
       <path id="ma2e3efc922" d="M 0 0 
L 0 3.5 
" style="stroke: #000000; stroke-width: 0.8"/>
      </defs>
      <g>
       <use xlink:href="#ma2e3efc922" x="149.370747" y="288" style="stroke: #000000; stroke-width: 0.8"/>
      </g>
     </g>
     <g id="text_1">
      <!-- 2023-08-15 -->
      <g transform="translate(87.727405 337.765903) rotate(-30) scale(0.12 -0.12)">
       <defs>
        <path id="DejaVuSans-32" d="M 1228 531 
L 3431 531 
L 3431 0 
L 469 0 
L 469 531 
Q 828 903 1448 1529 
Q 2069 2156 2228 2338 
Q 2531 2678 2651 2914 
Q 2772 3150 2772 3378 
Q 2772 3750 2511 3984 
Q 2250 4219 1831 4219 
Q 1534 4219 1204 4116 
Q 875 4013 500 3803 
L 500 4441 
Q 881 4594 1212 4672 
Q 1544 4750 1819 4750 
Q 2544 4750 2975 4387 
Q 3406 4025 3406 3419 
Q 3406 3131 3298 2873 
Q 3191 2616 2906 2266 
Q 2828 2175 2409 1742 
Q 1991 1309 1228 531 
z
" transform="scale(0.015625)"/>
        <path id="DejaVuSans-30" d="M 2034 4250 
Q 1547 4250 1301 3770 
Q 1056 3291 1056 2328 
Q 1056 1369 1301 889 
Q 1547 409 2034 409 
Q 2525 409 2770 889 
Q 3016 1369 3016 2328 
Q 3016 3291 2770 3770 
Q 2525 4250 2034 4250 
z
M 2034 4750 
Q 2819 4750 3233 4129 
Q 3647 3509 3647 2328 
Q 3647 1150 3233 529 
Q 2819 -91 2034 -91 
Q 1250 -91 836 529 
Q 422 1150 422 2328 
Q 422 3509 836 4129 
Q 1250 4750 2034 4750 
z
" transform="scale(0.015625)"/>
        <path id="DejaVuSans-33" d="M 2597 2516 
Q 3050 2419 3304 2112 
Q 3559 1806 3559 1356 
Q 3559 666 3084 287 
Q 2609 -91 1734 -91 
Q 1441 -91 1130 -33 
Q 819 25 488 141 
L 488 750 
Q 750 597 1062 519 
Q 1375 441 1716 441 
Q 2309 441 2620 675 
Q 2931 909 2931 1356 
Q 2931 1769 2642 2001 
Q 2353 2234 1838 2234 
L 1294 2234 
L 1294 2753 
L 1863 2753 
Q 2328 2753 2575 2939 
Q 2822 3125 2822 3475 
Q 2822 3834 2567 4026 
Q 2313 4219 1838 4219 
Q 1578 4219 1281 4162 
Q 984 4106 628 3988 
L 628 4550 
Q 988 4650 1302 4700 
Q 1616 4750 1894 4750 
Q 2613 4750 3031 4423 
Q 3450 4097 3450 3541 
Q 3450 3153 3228 2886 
Q 3006 2619 2597 2516 
z
" transform="scale(0.015625)"/>
        <path id="DejaVuSans-2d" d="M 313 2009 
L 1997 2009 
L 1997 1497 
L 313 1497 
L 313 2009 
z
" transform="scale(0.015625)"/>
        <path id="DejaVuSans-38" d="M 2034 2216 
Q 1584 2216 1326 1975 
Q 1069 1734 1069 1313 
Q 1069 891 1326 650 
Q 1584 409 2034 409 
Q 2484 409 2743 651 
Q 3003 894 3003 1313 
Q 3003 1734 2745 1975 
Q 2488 2216 2034 2216 
z
M 1403 2484 
Q 997 2584 770 2862 
Q 544 3141 544 3541 
Q 544 4100 942 4425 
Q 1341 4750 2034 4750 
Q 2731 4750 3128 4425 
Q 3525 4100 3525 3541 
Q 3525 3141 3298 2862 
Q 3072 2584 2669 2484 
Q 3125 2378 3379 2068 
Q 3634 1759 3634 1313 
Q 3634 634 3220 271 
Q 2806 -91 2034 -91 
Q 1263 -91 848 271 
Q 434 634 434 1313 
Q 434 1759 690 2068 
Q 947 2378 1403 2484 
z
M 1172 3481 
Q 1172 3119 1398 2916 
Q 1625 2713 2034 2713 
Q 2441 2713 2670 2916 
Q 2900 3119 2900 3481 
Q 2900 3844 2670 4047 
Q 2441 4250 2034 4250 
Q 1625 4250 1398 4047 
Q 1172 3844 1172 3481 
z
" transform="scale(0.015625)"/>
        <path id="DejaVuSans-31" d="M 794 531 
L 1825 531 
L 1825 4091 
L 703 3866 
L 703 4441 
L 1819 4666 
L 2450 4666 
L 2450 531 
L 3481 531 
L 3481 0 
L 794 0 
L 794 531 
z
" transform="scale(0.015625)"/>
        <path id="DejaVuSans-35" d="M 691 4666 
L 3169 4666 
L 3169 4134 
L 1269 4134 
L 1269 2991 
Q 1406 3038 1543 3061 
Q 1681 3084 1819 3084 
Q 2600 3084 3056 2656 
Q 3513 2228 3513 1497 
Q 3513 744 3044 326 
Q 2575 -91 1722 -91 
Q 1428 -91 1123 -41 
Q 819 9 494 109 
L 494 744 
Q 775 591 1075 516 
Q 1375 441 1709 441 
Q 2250 441 2565 725 
Q 2881 1009 2881 1497 
Q 2881 1984 2565 2268 
Q 2250 2553 1709 2553 
Q 1456 2553 1204 2497 
Q 953 2441 691 2322 
L 691 4666 
z
" transform="scale(0.015625)"/>
       </defs>
       <use xlink:href="#DejaVuSans-32"/>
       <use xlink:href="#DejaVuSans-30" x="63.623047"/>
       <use xlink:href="#DejaVuSans-32" x="127.246094"/>
       <use xlink:href="#DejaVuSans-33" x="190.869141"/>
       <use xlink:href="#DejaVuSans-2d" x="254.492188"/>
       <use xlink:href="#DejaVuSans-30" x="290.576172"/>
       <use xlink:href="#DejaVuSans-38" x="354.199219"/>
       <use xlink:href="#DejaVuSans-2d" x="417.822266"/>
       <use xlink:href="#DejaVuSans-31" x="453.90625"/>
       <use xlink:href="#DejaVuSans-35" x="517.529297"/>
      </g>
     </g>
    </g>
    <g id="xtick_2">
     <g id="line2d_2">
      <g>
       <use xlink:href="#ma2e3efc922" x="264.994921" y="288" style="stroke: #000000; stroke-width: 0.8"/>
      </g>
     </g>
     <g id="text_2">
      <!-- 2023-09-01 -->
      <g transform="translate(203.35158 337.765903) rotate(-30) scale(0.12 -0.12)">
       <defs>
        <path id="DejaVuSans-39" d="M 703 97 
L 703 672 
Q 941 559 1184 500 
Q 1428 441 1663 441 
Q 2288 441 2617 861 
Q 2947 1281 2994 2138 
Q 2813 1869 2534 1725 
Q 2256 1581 1919 1581 
Q 1219 1581 811 2004 
Q 403 2428 403 3163 
Q 403 3881 828 4315 
Q 1253 4750 1959 4750 
Q 2769 4750 3195 4129 
Q 3622 3509 3622 2328 
Q 3622 1225 3098 567 
Q 2575 -91 1691 -91 
Q 1453 -91 1209 -44 
Q 966 3 703 97 
z
M 1959 2075 
Q 2384 2075 2632 2365 
Q 2881 2656 2881 3163 
Q 2881 3666 2632 3958 
Q 2384 4250 1959 4250 
Q 1534 4250 1286 3958 
Q 1038 3666 1038 3163 
Q 1038 2656 1286 2365 
Q 1534 2075 1959 2075 
z
" transform="scale(0.015625)"/>
       </defs>
       <use xlink:href="#DejaVuSans-32"/>
       <use xlink:href="#DejaVuSans-30" x="63.623047"/>
       <use xlink:href="#DejaVuSans-32" x="127.246094"/>
       <use xlink:href="#DejaVuSans-33" x="190.869141"/>
       <use xlink:href="#DejaVuSans-2d" x="254.492188"/>
       <use xlink:href="#DejaVuSans-30" x="290.576172"/>
       <use xlink:href="#DejaVuSans-39" x="354.199219"/>
       <use xlink:href="#DejaVuSans-2d" x="417.822266"/>
       <use xlink:href="#DejaVuSans-30" x="453.90625"/>
       <use xlink:href="#DejaVuSans-31" x="517.529297"/>
      </g>
     </g>
    </g>
    <g id="xtick_3">
     <g id="line2d_3">
      <g>
       <use xlink:href="#ma2e3efc922" x="360.21483" y="288" style="stroke: #000000; stroke-width: 0.8"/>
      </g>
     </g>
     <g id="text_3">
      <!-- 2023-09-15 -->
      <g transform="translate(298.571488 337.765903) rotate(-30) scale(0.12 -0.12)">
       <use xlink:href="#DejaVuSans-32"/>
       <use xlink:href="#DejaVuSans-30" x="63.623047"/>
       <use xlink:href="#DejaVuSans-32" x="127.246094"/>
       <use xlink:href="#DejaVuSans-33" x="190.869141"/>
       <use xlink:href="#DejaVuSans-2d" x="254.492188"/>
       <use xlink:href="#DejaVuSans-30" x="290.576172"/>
       <use xlink:href="#DejaVuSans-39" x="354.199219"/>
       <use xlink:href="#DejaVuSans-2d" x="417.822266"/>
       <use xlink:href="#DejaVuSans-31" x="453.90625"/>
       <use xlink:href="#DejaVuSans-35" x="517.529297"/>
      </g>
     </g>
    </g>
    <g id="xtick_4">
     <g id="line2d_4">
      <g>
       <use xlink:href="#ma2e3efc922" x="469.037583" y="288" style="stroke: #000000; stroke-width: 0.8"/>
      </g>
     </g>
     <g id="text_4">
      <!-- 2023-10-01 -->
      <g transform="translate(407.394241 337.765903) rotate(-30) scale(0.12 -0.12)">
       <use xlink:href="#DejaVuSans-32"/>
       <use xlink:href="#DejaVuSans-30" x="63.623047"/>
       <use xlink:href="#DejaVuSans-32" x="127.246094"/>
       <use xlink:href="#DejaVuSans-33" x="190.869141"/>
       <use xlink:href="#DejaVuSans-2d" x="254.492188"/>
       <use xlink:href="#DejaVuSans-31" x="290.576172"/>
       <use xlink:href="#DejaVuSans-30" x="354.199219"/>
       <use xlink:href="#DejaVuSans-2d" x="417.822266"/>
       <use xlink:href="#DejaVuSans-30" x="453.90625"/>
       <use xlink:href="#DejaVuSans-31" x="517.529297"/>
      </g>
     </g>
    </g>
    <g id="xtick_5">
     <g id="line2d_5">
      <g>
       <use xlink:href="#ma2e3efc922" x="564.257491" y="288" style="stroke: #000000; stroke-width: 0.8"/>
      </g>
     </g>
     <g id="text_5">
      <!-- 2023-10-15 -->
      <g transform="translate(502.614149 337.765903) rotate(-30) scale(0.12 -0.12)">
       <use xlink:href="#DejaVuSans-32"/>
       <use xlink:href="#DejaVuSans-30" x="63.623047"/>
       <use xlink:href="#DejaVuSans-32" x="127.246094"/>
       <use xlink:href="#DejaVuSans-33" x="190.869141"/>
       <use xlink:href="#DejaVuSans-2d" x="254.492188"/>
       <use xlink:href="#DejaVuSans-31" x="290.576172"/>
       <use xlink:href="#DejaVuSans-30" x="354.199219"/>
       <use xlink:href="#DejaVuSans-2d" x="417.822266"/>
       <use xlink:href="#DejaVuSans-31" x="453.90625"/>
       <use xlink:href="#DejaVuSans-35" x="517.529297"/>
      </g>
     </g>
    </g>
   </g>
   <g id="matplotlib.axis_2">
    <g id="ytick_1">
     <g id="line2d_6">
      <defs>
       <path id="m4a5cd8e03d" d="M 0 0 
L -3.5 0 
" style="stroke: #000000; stroke-width: 0.8"/>
      </defs>
      <g>
       <use xlink:href="#m4a5cd8e03d" x="90" y="283.578359" style="stroke: #000000; stroke-width: 0.8"/>
      </g>
     </g>
     <g id="text_6">
      <!-- 0.0 -->
      <g transform="translate(63.91625 288.137422) scale(0.12 -0.12)">
       <defs>
        <path id="DejaVuSans-2e" d="M 684 794 
L 1344 794 
L 1344 0 
L 684 0 
L 684 794 
z
" transform="scale(0.015625)"/>
       </defs>
       <use xlink:href="#DejaVuSans-30"/>
       <use xlink:href="#DejaVuSans-2e" x="63.623047"/>
       <use xlink:href="#DejaVuSans-30" x="95.410156"/>
      </g>
     </g>
    </g>
    <g id="ytick_2">
     <g id="line2d_7">
      <g>
       <use xlink:href="#m4a5cd8e03d" x="90" y="243.874241" style="stroke: #000000; stroke-width: 0.8"/>
      </g>
     </g>
     <g id="text_7">
      <!-- 0.5 -->
      <g transform="translate(63.91625 248.433304) scale(0.12 -0.12)">
       <use xlink:href="#DejaVuSans-30"/>
       <use xlink:href="#DejaVuSans-2e" x="63.623047"/>
       <use xlink:href="#DejaVuSans-35" x="95.410156"/>
      </g>
     </g>
    </g>
    <g id="ytick_3">
     <g id="line2d_8">
      <g>
       <use xlink:href="#m4a5cd8e03d" x="90" y="204.170124" style="stroke: #000000; stroke-width: 0.8"/>
      </g>
     </g>
     <g id="text_8">
      <!-- 1.0 -->
      <g transform="translate(63.91625 208.729186) scale(0.12 -0.12)">
       <use xlink:href="#DejaVuSans-31"/>
       <use xlink:href="#DejaVuSans-2e" x="63.623047"/>
       <use xlink:href="#DejaVuSans-30" x="95.410156"/>
      </g>
     </g>
    </g>
    <g id="ytick_4">
     <g id="line2d_9">
      <g>
       <use xlink:href="#m4a5cd8e03d" x="90" y="164.466006" style="stroke: #000000; stroke-width: 0.8"/>
      </g>
     </g>
     <g id="text_9">
      <!-- 1.5 -->
      <g transform="translate(63.91625 169.025068) scale(0.12 -0.12)">
       <use xlink:href="#DejaVuSans-31"/>
       <use xlink:href="#DejaVuSans-2e" x="63.623047"/>
       <use xlink:href="#DejaVuSans-35" x="95.410156"/>
      </g>
     </g>
    </g>
    <g id="ytick_5">
     <g id="line2d_10">
      <g>
       <use xlink:href="#m4a5cd8e03d" x="90" y="124.761888" style="stroke: #000000; stroke-width: 0.8"/>
      </g>
     </g>
     <g id="text_10">
      <!-- 2.0 -->
      <g transform="translate(63.91625 129.320951) scale(0.12 -0.12)">
       <use xlink:href="#DejaVuSans-32"/>
       <use xlink:href="#DejaVuSans-2e" x="63.623047"/>
       <use xlink:href="#DejaVuSans-30" x="95.410156"/>
      </g>
     </g>
    </g>
    <g id="ytick_6">
     <g id="line2d_11">
      <g>
       <use xlink:href="#m4a5cd8e03d" x="90" y="85.05777" style="stroke: #000000; stroke-width: 0.8"/>
      </g>
     </g>
     <g id="text_11">
      <!-- 2.5 -->
      <g transform="translate(63.91625 89.616833) scale(0.12 -0.12)">
       <use xlink:href="#DejaVuSans-32"/>
       <use xlink:href="#DejaVuSans-2e" x="63.623047"/>
       <use xlink:href="#DejaVuSans-35" x="95.410156"/>
      </g>
     </g>
    </g>
    <g id="ytick_7">
     <g id="line2d_12">
      <g>
       <use xlink:href="#m4a5cd8e03d" x="90" y="45.353652" style="stroke: #000000; stroke-width: 0.8"/>
      </g>
     </g>
     <g id="text_12">
      <!-- 3.0 -->
      <g transform="translate(63.91625 49.912715) scale(0.12 -0.12)">
       <use xlink:href="#DejaVuSans-33"/>
       <use xlink:href="#DejaVuSans-2e" x="63.623047"/>
       <use xlink:href="#DejaVuSans-30" x="95.410156"/>
      </g>
     </g>
    </g>
    <g id="text_13">
     <!-- Meters -->
     <g transform="translate(57.836562 182.6875) rotate(-90) scale(0.1 -0.1)">
      <defs>
       <path id="DejaVuSans-4d" d="M 628 4666 
L 1569 4666 
L 2759 1491 
L 3956 4666 
L 4897 4666 
L 4897 0 
L 4281 0 
L 4281 4097 
L 3078 897 
L 2444 897 
L 1241 4097 
L 1241 0 
L 628 0 
L 628 4666 
z
" transform="scale(0.015625)"/>
       <path id="DejaVuSans-65" d="M 3597 1894 
L 3597 1613 
L 953 1613 
Q 991 1019 1311 708 
Q 1631 397 2203 397 
Q 2534 397 2845 478 
Q 3156 559 3463 722 
L 3463 178 
Q 3153 47 2828 -22 
Q 2503 -91 2169 -91 
Q 1331 -91 842 396 
Q 353 884 353 1716 
Q 353 2575 817 3079 
Q 1281 3584 2069 3584 
Q 2775 3584 3186 3129 
Q 3597 2675 3597 1894 
z
M 3022 2063 
Q 3016 2534 2758 2815 
Q 2500 3097 2075 3097 
Q 1594 3097 1305 2825 
Q 1016 2553 972 2059 
L 3022 2063 
z
" transform="scale(0.015625)"/>
       <path id="DejaVuSans-74" d="M 1172 4494 
L 1172 3500 
L 2356 3500 
L 2356 3053 
L 1172 3053 
L 1172 1153 
Q 1172 725 1289 603 
Q 1406 481 1766 481 
L 2356 481 
L 2356 0 
L 1766 0 
Q 1100 0 847 248 
Q 594 497 594 1153 
L 594 3053 
L 172 3053 
L 172 3500 
L 594 3500 
L 594 4494 
L 1172 4494 
z
" transform="scale(0.015625)"/>
       <path id="DejaVuSans-72" d="M 2631 2963 
Q 2534 3019 2420 3045 
Q 2306 3072 2169 3072 
Q 1681 3072 1420 2755 
Q 1159 2438 1159 1844 
L 1159 0 
L 581 0 
L 581 3500 
L 1159 3500 
L 1159 2956 
Q 1341 3275 1631 3429 
Q 1922 3584 2338 3584 
Q 2397 3584 2469 3576 
Q 2541 3569 2628 3553 
L 2631 2963 
z
" transform="scale(0.015625)"/>
       <path id="DejaVuSans-73" d="M 2834 3397 
L 2834 2853 
Q 2591 2978 2328 3040 
Q 2066 3103 1784 3103 
Q 1356 3103 1142 2972 
Q 928 2841 928 2578 
Q 928 2378 1081 2264 
Q 1234 2150 1697 2047 
L 1894 2003 
Q 2506 1872 2764 1633 
Q 3022 1394 3022 966 
Q 3022 478 2636 193 
Q 2250 -91 1575 -91 
Q 1294 -91 989 -36 
Q 684 19 347 128 
L 347 722 
Q 666 556 975 473 
Q 1284 391 1588 391 
Q 1994 391 2212 530 
Q 2431 669 2431 922 
Q 2431 1156 2273 1281 
Q 2116 1406 1581 1522 
L 1381 1569 
Q 847 1681 609 1914 
Q 372 2147 372 2553 
Q 372 3047 722 3315 
Q 1072 3584 1716 3584 
Q 2034 3584 2315 3537 
Q 2597 3491 2834 3397 
z
" transform="scale(0.015625)"/>
      </defs>
      <use xlink:href="#DejaVuSans-4d"/>
      <use xlink:href="#DejaVuSans-65" x="86.279297"/>
      <use xlink:href="#DejaVuSans-74" x="147.802734"/>
      <use xlink:href="#DejaVuSans-65" x="187.011719"/>
      <use xlink:href="#DejaVuSans-72" x="248.535156"/>
      <use xlink:href="#DejaVuSans-73" x="289.648438"/>
     </g>
    </g>
   </g>
   <g id="line2d_13">
    <path d="M 115.363636 213.005156 
L 115.647029 212.925768 
L 115.930422 213.402096 
L 116.213814 211.999576 
L 116.497207 214.169512 
L 116.780599 210.054572 
L 117.063992 214.315057 
L 117.347384 209.379775 
L 117.630777 212.886074 
L 117.91417 212.859612 
L 118.197562 212.158352 
L 118.480955 210.041341 
L 118.764347 209.93549 
L 119.04774 211.245391 
L 119.331133 209.194537 
L 119.614525 212.872843 
L 119.897918 207.342152 
L 120.18131 212.436209 
L 120.464703 210.716138 
L 120.748095 214.116587 
L 121.031488 211.113078 
L 121.314881 215.730808 
L 121.598273 213.269782 
L 121.881666 214.05043 
L 122.165058 215.267711 
L 122.448451 212.621448 
L 122.731844 214.592914 
L 123.015236 210.716138 
L 123.298629 216.45853 
L 123.582021 212.290665 
L 123.865414 215.744039 
L 124.148807 213.269782 
L 124.432199 215.5588 
L 124.715592 214.195975 
L 124.998984 214.870772 
L 125.282377 216.895163 
L 125.565769 214.090124 
L 125.849162 216.643768 
L 126.132555 161.786725 
L 126.415947 216.432067 
L 126.69934 213.666722 
L 126.982732 213.957811 
L 127.266125 212.621448 
L 127.549518 209.856102 
L 127.83291 213.865192 
L 128.116303 209.869334 
L 128.399695 212.198046 
L 128.683088 209.961953 
L 128.96648 214.235669 
L 129.249873 209.009298 
L 129.533266 211.986345 
L 130.100051 207.712629 
L 130.666836 205.767625 
L 130.950229 206.177796 
L 131.517014 208.969604 
L 131.800406 214.182743 
L 132.083799 205.291298 
L 132.367191 208.32127 
L 132.650584 207.990487 
L 132.933977 207.897867 
L 133.500762 205.066365 
L 133.784154 209.948722 
L 134.067547 209.961953 
L 134.35094 210.954302 
L 134.634332 160.794376 
L 134.917725 211.430629 
L 135.201117 216.246829 
L 135.48451 214.328288 
L 135.767902 214.831078 
L 136.051295 213.719647 
L 136.334688 211.073384 
L 136.61808 213.812266 
L 136.901473 212.819918 
L 137.184865 212.422978 
L 137.468258 214.010736 
L 137.751651 210.795526 
L 138.035043 214.381213 
L 138.318436 212.727298 
L 138.601828 213.891654 
L 138.885221 216.577612 
L 139.168614 215.016316 
L 139.452006 216.934857 
L 140.018791 211.020458 
L 140.302184 212.661142 
L 140.585576 210.319199 
L 140.868969 209.684095 
L 141.152362 213.283014 
L 141.435754 212.661142 
L 141.719147 214.738459 
L 142.002539 213.521177 
L 142.285932 213.799035 
L 142.569325 212.912537 
L 142.852717 212.489135 
L 143.13611 213.124238 
L 143.419502 212.03927 
L 143.702895 209.909028 
L 143.986287 213.574103 
L 144.26968 210.557362 
L 144.553073 210.411818 
L 144.836465 213.666722 
L 145.119858 208.718209 
L 145.40325 211.721718 
L 145.686643 212.03927 
L 145.970036 214.195975 
L 146.253428 211.8408 
L 146.536821 213.203626 
L 147.103606 208.281576 
L 147.386998 209.763483 
L 147.670391 207.328921 
L 147.953784 180.045943 
L 148.237176 209.273924 
L 148.520569 202.975817 
L 148.803961 203.50507 
L 149.087354 204.629732 
L 149.370747 203.00228 
L 149.654139 199.350436 
L 150.220924 189.969432 
L 150.504317 186.780684 
L 150.787709 170.294462 
L 151.071102 161.416248 
L 151.637887 154.641813 
L 152.488065 147.099962 
L 152.771458 146.451627 
L 153.05485 146.411933 
L 153.905028 149.428674 
L 154.188421 107.657403 
L 154.471813 150.857656 
L 155.038598 151.955856 
L 155.321991 153.199599 
L 155.888776 158.320119 
L 158.439309 186.449901 
L 159.006094 190.85593 
L 159.289487 191.940898 
L 159.57288 193.793283 
L 159.856272 192.986172 
L 160.139665 194.838557 
L 160.423057 195.486891 
L 160.70645 197.193731 
L 160.989843 197.127575 
L 161.273235 199.059347 
L 161.556628 199.429824 
L 161.84002 200.39571 
L 162.406805 203.624152 
L 162.690198 205.476536 
L 162.973591 205.661775 
L 163.256983 207.103988 
L 163.540376 206.005789 
L 163.823768 207.103988 
L 164.107161 207.183376 
L 164.390554 207.72586 
L 164.673946 205.727931 
L 164.957339 208.016949 
L 165.240731 205.979326 
L 165.524124 208.440351 
L 165.807517 208.757903 
L 166.090909 198.715333 
L 166.374302 209.776714 
L 166.657694 276.872727 
L 167.224479 151.492759 
L 167.507872 151.955856 
L 167.791265 200.316322 
L 168.074657 202.221632 
L 168.35805 199.959077 
L 168.641442 201.851155 
L 168.924835 199.654756 
L 169.208228 200.144315 
L 169.49162 199.866457 
L 169.775013 198.821183 
L 170.058405 201.40129 
L 170.341798 201.09697 
L 170.62519 204.828202 
L 170.908583 203.544764 
L 171.191976 204.828202 
L 171.475368 204.140173 
L 171.758761 205.106059 
L 172.042153 200.8985 
L 172.325546 203.875547 
L 172.608939 202.724422 
L 172.892331 203.293369 
L 173.742509 208.387426 
L 174.025901 207.540622 
L 174.309294 210.226579 
L 174.592687 207.275995 
L 174.876079 210.160423 
L 175.159472 208.691746 
L 175.442864 209.961953 
L 176.293042 215.572032 
L 176.576435 214.44737 
L 176.859827 214.725227 
L 177.14322 212.171583 
L 177.426612 214.698765 
L 177.710005 212.317128 
L 177.993398 214.910466 
L 178.27679 212.422978 
L 178.560183 215.347099 
L 178.843575 211.430629 
L 179.126968 213.74611 
L 179.410361 211.814337 
L 179.693753 212.158352 
L 179.977146 212.700836 
L 180.260538 212.370053 
L 180.543931 213.94458 
L 180.827324 212.250971 
L 181.110716 215.175092 
L 181.394109 210.702907 
L 181.677501 213.005156 
L 181.960894 212.171583 
L 182.244286 212.555291 
L 182.527679 210.861683 
L 182.811072 214.698765 
L 183.661249 215.968971 
L 183.944642 213.335939 
L 184.228035 212.952231 
L 184.511427 211.13954 
L 184.79482 212.475903 
L 185.078212 208.876985 
L 185.361605 211.801106 
L 185.644997 209.909028 
L 185.92839 211.893725 
L 186.211783 211.179234 
L 186.495175 210.147191 
L 186.778568 210.001647 
L 187.06196 207.884636 
L 187.345353 210.253042 
L 187.628746 206.799668 
L 187.912138 210.848451 
L 188.195531 206.177796 
L 188.478923 209.181305 
L 188.762316 207.950793 
L 189.045708 208.175725 
L 189.329101 206.958444 
L 189.612494 208.559433 
L 189.895886 207.262764 
L 190.179279 208.294807 
L 190.462671 210.041341 
L 190.746064 205.41038 
L 191.029457 211.721718 
L 191.312849 207.633241 
L 191.596242 209.684095 
L 191.879634 209.948722 
L 192.163027 210.597056 
L 192.44642 209.353312 
L 192.729812 209.882565 
L 193.013205 209.247462 
L 193.296597 209.181305 
L 193.57999 210.504437 
L 193.863382 211.020458 
L 194.146775 212.502366 
L 194.430168 209.287156 
L 194.71356 212.528829 
L 194.996953 206.905519 
L 195.280345 212.330359 
L 195.563738 207.170145 
L 195.847131 209.445932 
L 196.413916 207.52739 
L 196.697308 210.200117 
L 196.980701 208.850522 
L 197.264093 212.026039 
L 197.547486 209.604707 
L 197.830879 213.362402 
L 198.114271 209.565013 
L 198.397664 213.335939 
L 198.681056 210.676444 
L 198.964449 213.653491 
L 199.247842 209.393006 
L 199.531234 214.539989 
L 199.814627 210.676444 
L 200.098019 213.415327 
L 200.381412 107.472165 
L 200.664804 213.600565 
L 200.948197 213.084544 
L 201.23159 211.510017 
L 201.514982 213.560871 
L 201.798375 211.364473 
L 202.081767 213.732879 
L 202.36516 213.679953 
L 202.648553 212.012807 
L 202.931945 212.84638 
L 203.215338 215.519106 
L 203.49873 211.562942 
L 203.782123 213.957811 
L 204.065515 209.895796 
L 204.348908 213.54764 
L 204.632301 214.817847 
L 204.915693 211.13954 
L 205.199086 216.524687 
L 205.482478 213.309476 
L 205.765871 213.785804 
L 206.049264 210.729369 
L 206.332656 213.018387 
L 206.616049 209.12838 
L 206.899441 212.026039 
L 207.466227 210.782295 
L 207.749619 209.485625 
L 208.033012 211.933419 
L 208.316404 207.765554 
L 208.599797 207.672935 
L 209.166582 203.782928 
L 209.449975 204.391568 
L 209.733367 203.677077 
L 210.01676 206.21749 
L 210.300152 204.047554 
L 210.583545 205.542693 
L 210.866938 201.242514 
L 211.15033 202.525952 
L 211.433723 201.546835 
L 211.717115 199.151966 
L 212.000508 201.560066 
L 212.2839 201.414522 
L 212.567293 203.954935 
L 212.850686 201.784999 
L 213.134078 203.266906 
L 213.417471 201.824692 
L 213.700863 203.690308 
L 213.984256 199.125504 
L 214.267649 205.476536 
L 214.551041 202.049625 
L 214.834434 205.794088 
L 215.117826 205.807319 
L 215.401219 204.259255 
L 215.684611 206.363034 
L 215.968004 204.590038 
L 216.534789 202.883198 
L 217.101574 205.383917 
L 217.384967 203.015511 
L 217.66836 203.041974 
L 217.951752 204.934052 
L 218.235145 203.359525 
L 218.518537 208.532971 
L 218.80193 202.909661 
L 219.085322 207.090757 
L 219.368715 208.241882 
L 219.652108 205.119291 
L 219.9355 210.517668 
L 220.218893 207.328921 
L 220.502285 211.562942 
L 220.785678 206.310109 
L 221.069071 210.848451 
L 221.352463 206.91875 
L 221.635856 208.056643 
L 221.919248 211.854031 
L 222.202641 178.736043 
L 222.486034 212.03927 
L 222.769426 213.904886 
L 223.052819 211.470323 
L 223.336211 210.544131 
L 223.619604 215.400025 
L 223.902996 209.4327 
L 224.186389 213.04485 
L 224.469782 208.784366 
L 224.753174 214.963391 
L 225.036567 208.718209 
L 225.319959 213.190394 
L 225.603352 211.470323 
L 225.886745 211.814337 
L 226.170137 210.782295 
L 226.45353 210.226579 
L 226.736922 210.491206 
L 227.020315 208.440351 
L 227.303707 212.131889 
L 227.5871 205.397148 
L 227.870493 211.390935 
L 228.153885 207.103988 
L 228.437278 211.218928 
L 228.72067 205.542693 
L 229.004063 210.358892 
L 229.287456 206.508579 
L 229.570848 207.22307 
L 229.854241 208.82406 
L 230.137633 206.879056 
L 230.421026 209.32685 
L 230.704418 207.289227 
L 230.987811 210.63675 
L 231.271204 203.3066 
L 231.554596 207.461234 
L 231.837989 204.735582 
L 232.121381 210.358892 
L 232.404774 207.262764 
L 232.688167 211.510017 
L 232.971559 211.166003 
L 233.254952 212.978693 
L 233.538344 213.574103 
L 233.821737 210.5309 
L 234.10513 211.655562 
L 234.388522 206.931981 
L 234.671915 210.848451 
L 234.955307 205.635312 
L 235.2387 210.993996 
L 235.522092 208.030181 
L 235.805485 211.152772 
L 236.088878 209.789946 
L 236.37227 212.026039 
L 236.655663 210.967533 
L 236.939055 210.544131 
L 237.222448 213.177163 
L 237.505841 211.562942 
L 237.789233 214.698765 
L 238.072626 210.993996 
L 238.356018 213.971042 
L 238.639411 211.232159 
L 238.922803 213.85196 
L 239.206196 210.570594 
L 239.489589 213.772572 
L 239.772981 212.54206 
L 240.056374 213.428558 
L 240.339766 213.177163 
L 240.623159 214.791384 
L 240.906552 215.320637 
L 241.189944 212.198046 
L 241.473337 213.918117 
L 241.756729 210.517668 
L 242.040122 212.436209 
L 242.323514 210.266273 
L 242.606907 213.34917 
L 242.8903 211.761412 
L 243.173692 214.698765 
L 243.457085 214.55322 
L 243.740477 215.863121 
L 244.02387 218.218295 
L 244.307263 215.598494 
L 244.590655 218.350608 
L 244.874048 215.122167 
L 245.15744 216.392373 
L 245.440833 214.844309 
L 245.724225 215.360331 
L 246.007618 214.341519 
L 246.291011 214.870772 
L 246.574403 214.95016 
L 246.857796 215.214786 
L 247.141188 214.420907 
L 247.424581 214.711996 
L 247.707974 216.233598 
L 247.991366 214.023968 
L 248.274759 215.333868 
L 248.558151 212.065732 
L 248.841544 214.685533 
L 249.124937 208.638821 
L 249.408329 209.498857 
L 249.691722 206.799668 
L 249.975114 208.757903 
L 250.258507 206.058714 
L 250.541899 209.723789 
L 250.825292 209.869334 
L 251.108685 212.171583 
L 251.392077 210.319199 
L 251.67547 210.83522 
L 251.958862 211.589405 
L 252.242255 207.712629 
L 252.525648 208.678515 
L 252.80904 206.111639 
L 253.092433 209.207768 
L 253.375825 206.852593 
L 253.659218 212.356821 
L 253.94261 211.906957 
L 254.509396 213.283014 
L 254.792788 160.172504 
L 255.076181 212.661142 
L 255.359573 209.115149 
L 255.642966 159.299237 
L 255.926359 209.723789 
L 256.209751 210.305967 
L 256.493144 211.430629 
L 256.776536 211.205697 
L 257.059929 210.729369 
L 257.343321 213.600565 
L 257.626714 213.322708 
L 257.910107 215.836658 
L 258.193499 215.386793 
L 258.476892 214.156281 
L 258.760284 216.299754 
L 259.043677 214.711996 
L 259.32707 217.689043 
L 259.610462 212.727298 
L 259.893855 216.45853 
L 260.177247 214.315057 
L 260.744033 215.360331 
L 261.027425 217.728737 
L 261.310818 215.545569 
L 261.59421 163.943429 
L 261.877603 216.842238 
L 262.160995 215.016316 
L 263.011173 213.309476 
L 263.294566 211.152772 
L 263.577958 215.280943 
L 263.861351 159.788796 
L 264.144744 215.902815 
L 264.428136 216.842238 
L 264.711529 219.647278 
L 264.994921 217.450879 
L 265.278314 217.186252 
L 265.561706 216.511455 
L 265.845099 215.519106 
L 266.128492 215.280943 
L 266.411884 214.513526 
L 266.695277 215.783733 
L 266.978669 212.819918 
L 267.262062 214.566452 
L 267.545455 213.997505 
L 268.11224 215.929277 
L 268.395632 217.252409 
L 268.679025 216.312986 
L 268.962417 217.305334 
L 269.529203 214.090124 
L 269.812595 160.913458 
L 270.095988 211.33801 
L 270.37938 213.799035 
L 270.662773 211.880494 
L 270.946166 216.193904 
L 271.229558 216.670231 
L 271.512951 219.276801 
L 271.796343 218.734317 
L 272.079736 220.560239 
L 272.363128 216.405605 
L 272.646521 218.390302 
L 273.213306 214.2489 
L 273.780091 216.035128 
L 274.063484 214.685533 
L 274.346877 215.810195 
L 274.630269 216.405605 
L 274.913662 215.611726 
L 275.197054 217.649349 
L 275.480447 214.315057 
L 276.047232 218.906324 
L 276.330625 215.108936 
L 276.614017 218.906324 
L 276.89741 217.040708 
L 277.180802 218.046288 
L 277.464195 213.997505 
L 278.03098 218.932786 
L 278.314373 216.432067 
L 278.597765 221.605513 
L 278.881158 219.051868 
L 279.164551 215.386793 
L 279.447943 219.263569 
L 279.731336 215.532338 
L 280.014728 215.611726 
L 280.298121 220.17653 
L 280.581513 214.778153 
L 281.148299 218.284452 
L 281.715084 216.140978 
L 281.998476 216.445299 
L 282.281869 217.239178 
L 282.565262 216.895163 
L 282.848654 217.067171 
L 283.132047 219.898673 
L 283.415439 214.685533 
L 283.698832 217.530267 
L 283.982224 216.352679 
L 284.265617 214.698765 
L 284.54901 215.75727 
L 284.832402 215.25448 
L 285.115795 215.519106 
L 285.399187 213.640259 
L 285.68258 215.968971 
L 285.965973 214.420907 
L 286.249365 213.679953 
L 286.532758 216.643768 
L 287.099543 214.659071 
L 287.382936 216.670231 
L 287.666328 213.640259 
L 287.949721 213.071313 
L 288.233113 214.420907 
L 288.516506 213.190394 
L 288.799898 215.135398 
L 289.083291 213.693185 
L 289.366684 216.021897 
L 289.650076 213.971042 
L 289.933469 214.738459 
L 290.216861 214.936928 
L 290.500254 212.872843 
L 290.783647 213.679953 
L 291.067039 213.878423 
L 291.350432 213.283014 
L 291.917217 215.5588 
L 292.200609 215.373562 
L 292.484002 215.347099 
L 293.050787 215.611726 
L 293.33418 214.288594 
L 293.617572 215.029548 
L 293.900965 215.05601 
L 294.184358 213.534409 
L 294.46775 213.613797 
L 295.034535 213.34917 
L 295.317928 213.203626 
L 295.60132 214.010736 
L 295.884713 214.367982 
L 296.168106 212.859612 
L 296.451498 215.916046 
L 296.734891 213.507946 
L 297.301676 215.65142 
L 297.585069 214.103355 
L 297.868461 213.296245 
L 298.151854 215.942509 
L 298.435246 212.872843 
L 298.718639 215.783733 
L 299.285424 212.978693 
L 299.568817 214.711996 
L 299.852209 213.256551 
L 300.135602 214.222437 
L 300.418994 213.904886 
L 300.702387 212.555291 
L 300.98578 216.167441 
L 301.269172 211.549711 
L 301.552565 213.54764 
L 301.835957 214.632608 
L 302.11935 211.933419 
L 302.402743 211.946651 
L 302.686135 206.429191 
L 302.969528 214.44737 
L 303.25292 209.591476 
L 303.536313 213.005156 
L 303.819705 212.515597 
L 304.103098 211.245391 
L 304.386491 213.04485 
L 304.669883 209.141611 
L 304.953276 208.493277 
L 305.236668 208.334501 
L 305.520061 209.393006 
L 305.803454 207.911099 
L 306.086846 208.347732 
L 306.370239 208.268344 
L 306.653631 208.347732 
L 307.220416 204.841433 
L 307.503809 203.888778 
L 307.787202 203.968166 
L 308.070594 203.491839 
L 308.353987 205.039903 
L 308.637379 209.63117 
L 308.920772 207.567084 
L 309.204165 210.676444 
L 309.487557 210.054572 
L 309.77095 157.592397 
L 310.054342 210.014878 
L 310.337735 208.162494 
L 310.621127 210.305967 
L 310.90452 208.757903 
L 311.471305 211.827569 
L 311.754698 210.13396 
L 312.03809 211.562942 
L 312.321483 210.649981 
L 312.604876 210.491206 
L 312.888268 212.449441 
L 313.171661 211.232159 
L 313.455053 212.277434 
L 313.738446 214.063661 
L 314.021838 212.277434 
L 314.305231 215.095704 
L 314.588624 213.04485 
L 314.872016 213.587334 
L 315.438801 212.158352 
L 315.722194 214.725227 
L 316.005587 213.190394 
L 316.288979 215.095704 
L 316.572372 213.335939 
L 316.855764 160.767913 
L 317.139157 214.05043 
L 317.42255 212.475903 
L 317.705942 161.575024 
L 317.989335 213.666722 
L 318.272727 215.439719 
L 318.55612 214.500295 
L 318.839512 215.942509 
L 319.122905 216.590843 
L 319.406298 213.918117 
L 319.68969 214.341519 
L 319.973083 215.386793 
L 320.256475 213.309476 
L 320.539868 215.572032 
L 320.823261 214.711996 
L 321.106653 216.273292 
L 321.390046 215.320637 
L 321.673438 215.968971 
L 321.956831 215.823427 
L 322.240223 216.06159 
L 322.523616 215.413256 
L 322.807009 216.021897 
L 323.090401 214.725227 
L 323.373794 214.645839 
L 323.657186 214.090124 
L 323.940579 213.256551 
L 324.223972 214.75169 
L 324.507364 212.330359 
L 324.790757 216.048359 
L 325.074149 213.54764 
L 325.357542 216.299754 
L 325.640934 216.035128 
L 325.924327 217.067171 
L 326.20772 216.524687 
L 326.491112 213.481483 
L 326.774505 216.815776 
L 327.057897 213.190394 
L 327.34129 216.868701 
L 327.624683 212.449441 
L 327.908075 216.511455 
L 328.191468 213.534409 
L 328.47486 217.596423 
L 328.758253 213.931348 
L 329.041646 216.312986 
L 329.608431 214.804615 
L 329.891823 215.532338 
L 330.175216 159.061073 
L 330.458608 214.367982 
L 330.742001 211.218928 
L 331.025394 214.606146 
L 331.308786 211.682024 
L 331.592179 214.711996 
L 331.875571 212.872843 
L 332.442357 215.982203 
L 332.725749 213.812266 
L 333.009142 216.908395 
L 333.292534 211.748181 
L 333.575927 213.494715 
L 333.859319 211.867263 
L 334.142712 214.434138 
L 334.426105 210.43828 
L 334.709497 215.929277 
L 334.99289 210.649981 
L 335.276282 215.333868 
L 335.559675 212.383284 
L 335.843068 213.693185 
L 336.12646 213.428558 
L 336.409853 212.264202 
L 336.693245 213.85196 
L 337.26003 210.83522 
L 337.543423 207.606778 
L 337.826816 209.168074 
L 338.110208 205.767625 
L 338.393601 206.733511 
L 338.676993 205.198679 
L 338.960386 206.693817 
L 339.243779 204.854664 
L 339.810564 206.852593 
L 343.494667 207.540622 
L 343.77806 205.7147 
L 344.061453 208.599127 
L 344.344845 207.500928 
L 344.628238 209.922259 
L 344.91163 206.746743 
L 345.195023 210.874914 
L 345.478415 208.850522 
L 345.761808 211.999576 
L 346.045201 212.489135 
L 346.328593 214.434138 
L 346.611986 212.912537 
L 346.895378 214.539989 
L 347.178771 215.386793 
L 347.462164 213.904886 
L 347.745556 216.802544 
L 348.028949 212.714067 
L 348.312341 216.749619 
L 348.595734 211.523248 
L 348.879126 215.042779 
L 349.162519 214.513526 
L 349.729304 215.691114 
L 350.296089 216.273292 
L 350.579482 212.886074 
L 350.862875 216.630537 
L 351.146267 211.774643 
L 351.42966 214.95016 
L 351.713052 210.848451 
L 351.996445 214.804615 
L 352.279837 212.03927 
L 352.56323 215.863121 
L 352.846623 217.120096 
L 353.130015 215.638188 
L 353.413408 217.530267 
L 353.6968 214.55322 
L 353.980193 216.85547 
L 354.263586 212.489135 
L 354.546978 217.212715 
L 354.830371 211.364473 
L 355.113763 216.418836 
L 355.397156 212.766992 
L 355.680549 215.267711 
L 355.963941 213.904886 
L 356.247334 216.207135 
L 356.530726 215.505875 
L 356.814119 215.214786 
L 357.097511 216.392373 
L 357.380904 212.608217 
L 357.664297 215.333868 
L 357.947689 210.716138 
L 358.231082 213.534409 
L 358.514474 209.538551 
L 358.797867 160.503287 
L 359.08126 211.245391 
L 359.648045 215.505875 
L 359.931437 215.25448 
L 360.21483 217.424416 
L 360.498222 215.307405 
L 360.781615 217.530267 
L 361.065008 212.912537 
L 361.3484 217.305334 
L 361.631793 212.317128 
L 361.915185 215.876352 
L 362.198578 212.462672 
L 362.481971 215.823427 
L 362.765363 213.481483 
L 363.048756 216.326217 
L 363.332148 216.379142 
L 363.615541 215.598494 
L 363.898933 216.617306 
L 364.182326 212.396515 
L 364.465719 216.630537 
L 364.749111 212.211277 
L 365.032504 215.241249 
L 365.315896 210.94107 
L 365.599289 215.717576 
L 365.882682 186.198506 
L 366.166074 216.934857 
L 366.449467 216.392373 
L 366.732859 219.779591 
L 367.016252 219.47527 
L 367.299644 217.808124 
L 367.583037 221.724595 
L 367.86643 215.45295 
L 368.149822 219.250338 
L 368.433215 214.606146 
L 368.716607 215.995434 
L 369 213.997505 
L 369.283393 214.897234 
L 369.566785 215.267711 
L 369.850178 216.339448 
L 370.13357 219.488502 
L 370.416963 217.067171 
L 370.700356 218.906324 
L 370.983748 214.989854 
L 371.267141 216.577612 
L 371.550533 210.94107 
L 371.833926 214.870772 
L 372.117318 211.920188 
L 372.684104 214.513526 
L 372.967496 214.05043 
L 373.250889 216.564381 
L 373.534281 214.500295 
L 373.817674 218.085982 
L 374.101067 212.581754 
L 374.384459 217.014245 
L 374.667852 211.404167 
L 374.951244 214.526758 
L 375.234637 210.041341 
L 375.518029 213.388864 
L 375.801422 209.472394 
L 376.084815 212.965462 
L 376.368207 212.118658 
L 376.6516 210.742601 
L 376.934992 214.884003 
L 377.218385 211.64233 
L 377.501778 213.084544 
L 377.78517 212.925768 
L 378.068563 214.394444 
L 378.351955 210.755832 
L 378.635348 214.367982 
L 378.91874 210.583825 
L 379.202133 212.886074 
L 379.485526 211.205697 
L 379.768918 210.623519 
L 380.052311 212.991925 
L 380.335703 213.931348 
L 380.619096 216.193904 
L 380.902489 213.587334 
L 381.185881 217.278872 
L 381.469274 214.341519 
L 381.752666 217.847818 
L 382.036059 214.698765 
L 382.319451 217.305334 
L 382.602844 214.407676 
L 382.886237 217.014245 
L 383.169629 216.590843 
L 383.453022 216.670231 
L 383.736414 217.9669 
L 384.019807 216.590843 
L 384.3032 217.186252 
L 384.586592 216.405605 
L 384.869985 217.675811 
L 385.153377 214.063661 
L 385.43677 215.095704 
L 386.003555 216.021897 
L 386.286948 215.069242 
L 386.57034 217.371491 
L 386.853733 217.133327 
L 387.137125 216.511455 
L 387.420518 218.932786 
L 387.703911 216.749619 
L 387.987303 220.202993 
L 388.270696 216.551149 
L 388.554088 220.335306 
L 388.837481 217.001014 
L 389.120874 218.350608 
L 389.404266 216.736388 
L 389.687659 216.630537 
L 389.971051 217.583192 
L 390.254444 216.286523 
L 390.537836 219.700203 
L 390.821229 189.837118 
L 391.104622 218.747548 
L 391.388014 218.998943 
L 391.671407 216.776082 
L 391.954799 218.443228 
L 392.238192 216.326217 
L 392.521585 216.06159 
L 392.804977 162.818767 
L 393.08837 215.492644 
L 393.371762 217.014245 
L 393.655155 217.517035 
L 393.938547 215.161861 
L 394.22194 219.726666 
L 394.505333 215.003085 
L 394.788725 218.072751 
L 395.35551 216.140978 
L 395.638903 217.887512 
L 395.922296 216.233598 
L 396.205688 215.65142 
L 396.489081 215.691114 
L 396.772473 214.963391 
L 397.055866 214.778153 
L 397.622651 215.585263 
L 397.906044 214.182743 
L 398.189436 215.75727 
L 398.472829 214.804615 
L 398.756221 214.592914 
L 399.039614 212.317128 
L 399.323007 214.2489 
L 399.606399 209.82964 
L 399.889792 213.256551 
L 400.173184 210.808757 
L 400.456577 214.632608 
L 400.73997 212.727298 
L 401.023362 216.140978 
L 401.306755 214.659071 
L 401.590147 214.804615 
L 401.87354 214.738459 
L 402.156932 212.54206 
L 402.440325 214.566452 
L 402.723718 211.933419 
L 403.00711 214.738459 
L 403.290503 212.065732 
L 403.573895 215.175092 
L 403.857288 212.687604 
L 404.140681 215.386793 
L 404.424073 213.759341 
L 404.707466 215.122167 
L 404.990858 213.613797 
L 405.274251 215.863121 
L 405.557643 216.400312 
L 405.841036 214.275363 
L 406.124429 215.783733 
L 406.407821 214.367982 
L 406.691214 215.294174 
L 406.974606 213.137469 
L 407.257999 217.173021 
L 407.541392 214.063661 
L 407.824784 217.225946 
L 408.108177 215.691114 
L 408.391569 217.305334 
L 408.674962 216.140978 
L 408.958354 216.868701 
L 409.241747 216.696694 
L 409.52514 214.487064 
L 409.808532 217.26564 
L 410.091925 216.379142 
L 410.375317 217.622886 
L 410.65871 217.575253 
L 410.942103 219.607584 
L 411.225495 215.029548 
L 411.508888 219.038637 
L 411.79228 214.606146 
L 412.075673 215.280943 
L 412.359066 216.511455 
L 412.642458 214.328288 
L 412.925851 216.987783 
L 413.209243 214.129818 
L 413.776028 217.252409 
L 414.059421 214.831078 
L 414.342814 217.083048 
L 414.626206 214.275363 
L 414.909599 214.711996 
L 415.192991 214.275363 
L 415.476384 214.817847 
L 415.759777 214.804615 
L 416.043169 216.524687 
L 416.326562 214.844309 
L 416.609954 216.365911 
L 416.893347 216.048359 
L 417.176739 214.976622 
L 417.460132 216.736388 
L 417.743525 213.627028 
L 418.026917 216.577612 
L 418.593702 214.05043 
L 418.877095 216.101284 
L 419.160488 214.500295 
L 419.44388 215.241249 
L 419.727273 214.579683 
L 420.010665 217.040708 
L 420.294058 214.129818 
L 420.57745 218.509384 
L 420.860843 214.156281 
L 421.144236 217.808124 
L 421.427628 214.579683 
L 421.711021 216.749619 
L 421.994413 214.129818 
L 422.277806 215.849889 
L 422.561199 214.394444 
L 422.844591 214.235669 
L 423.127984 217.35826 
L 423.411376 214.989854 
L 423.694769 219.435577 
L 423.978162 215.320637 
L 424.261554 218.429996 
L 424.544947 215.122167 
L 424.828339 217.278872 
L 425.111732 214.804615 
L 425.678517 216.26006 
L 425.96191 215.598494 
L 426.245302 217.15979 
L 426.528695 215.029548 
L 426.812087 219.197413 
L 427.09548 215.095704 
L 427.378873 219.832516 
L 427.662265 215.320637 
L 427.945658 218.46969 
L 428.22905 213.058081 
L 428.512443 216.802544 
L 428.795835 214.235669 
L 429.362621 216.815776 
L 429.646013 215.505875 
L 429.929406 219.620815 
L 430.212798 215.65142 
L 430.496191 220.798402 
L 430.779584 215.598494 
L 431.062976 221.354118 
L 431.346369 216.842238 
L 431.629761 220.626395 
L 431.913154 214.725227 
L 432.196546 216.776082 
L 432.479939 215.214786 
L 433.046724 217.675811 
L 433.330117 216.008665 
L 433.613509 220.705783 
L 433.896902 216.670231 
L 434.180295 220.26915 
L 434.463687 214.685533 
L 434.74708 220.388231 
L 435.030472 214.592914 
L 435.313865 218.946018 
L 435.597257 217.305334 
L 436.164043 217.225946 
L 436.447435 217.067171 
L 436.730828 217.186252 
L 437.01422 214.936928 
L 437.297613 219.118025 
L 437.581006 214.063661 
L 437.864398 218.443228 
L 438.147791 213.693185 
L 438.431183 220.136836 
L 438.714576 213.878423 
L 438.997969 217.596423 
L 439.281361 213.507946 
L 439.564754 215.479412 
L 439.848146 213.177163 
L 440.414931 214.738459 
L 440.698324 211.946651 
L 440.981717 216.987783 
L 441.265109 211.999576 
L 441.548502 216.96132 
L 441.831894 210.795526 
L 442.115287 215.889583 
L 442.39868 209.922259 
L 442.682072 213.799035 
L 442.965465 211.060152 
L 443.248857 213.719647 
L 443.53225 212.899305 
L 443.815642 213.428558 
L 444.099035 213.269782 
L 444.382428 211.324779 
L 444.66582 215.598494 
L 444.949213 212.224508 
L 445.232605 215.333868 
L 445.515998 212.14512 
L 445.799391 216.312986 
L 446.082783 211.920188 
L 446.366176 214.076893 
L 446.649568 215.135398 
L 446.932961 213.203626 
L 447.216353 214.2489 
L 447.499746 212.753761 
L 447.783139 215.545569 
L 448.066531 211.668793 
L 448.349924 216.617306 
L 448.633316 212.515597 
L 448.916709 162.73938 
L 449.200102 213.018387 
L 449.483494 214.923697 
L 449.766887 210.491206 
L 450.050279 213.706416 
L 450.333672 211.443861 
L 450.617064 211.8408 
L 450.900457 214.315057 
L 451.18385 212.991925 
L 451.467242 217.014245 
L 451.750635 213.44179 
L 452.034027 217.437648 
L 452.31742 215.519106 
L 452.600813 216.432067 
L 452.884205 216.815776 
L 453.167598 215.638188 
L 453.45099 215.413256 
L 453.734383 214.698765 
L 454.017776 215.677882 
L 454.301168 213.653491 
L 454.584561 217.450879 
L 454.867953 214.367982 
L 455.151346 219.753128 
L 455.434738 215.519106 
L 455.718131 220.216224 
L 456.001524 215.744039 
L 456.284916 218.36384 
L 456.568309 215.532338 
L 457.418487 214.460601 
L 457.701879 216.604074 
L 457.985272 216.696694 
L 458.268664 219.051868 
L 458.552057 217.794893 
L 458.835449 221.658438 
L 459.118842 217.450879 
L 459.402235 220.666089 
L 459.685627 218.496153 
L 459.96902 219.316495 
L 460.252412 217.913975 
L 460.535805 217.636117 
L 460.819198 218.085982 
L 461.10259 217.093633 
L 461.385983 220.520545 
L 461.669375 218.707854 
L 461.952768 221.301192 
L 462.23616 218.932786 
L 462.519553 224.145926 
L 462.802946 221.010103 
L 463.086338 222.730175 
L 463.369731 222.333235 
L 463.653123 221.036566 
L 463.936516 221.393812 
L 464.219909 216.630537 
L 464.503301 220.494082 
L 464.786694 216.15421 
L 465.070086 221.27473 
L 465.353479 220.17653 
L 465.636872 222.88895 
L 465.920264 222.664018 
L 466.203657 225.733684 
L 466.487049 218.297683 
L 466.770442 219.104794 
L 467.053834 220.666089 
L 467.337227 213.375633 
L 467.62062 215.95574 
L 467.904012 222.518474 
L 468.187405 217.741968 
L 468.470797 220.467619 
L 468.75419 228.088858 
L 469.037583 220.547007 
L 469.320975 219.462039 
L 469.604368 222.650787 
L 469.88776 217.173021 
L 470.171153 219.858979 
L 470.454545 216.776082 
L 470.737938 221.539356 
L 471.021331 215.320637 
L 471.304723 220.533776 
L 471.588116 219.528196 
L 471.871508 217.86105 
L 472.154901 219.541427 
L 472.438294 222.465548 
L 472.721686 217.278872 
L 473.005079 222.677249 
L 473.571864 217.411185 
L 473.855256 219.36942 
L 474.138649 216.286523 
L 474.422042 214.936928 
L 474.705434 215.214786 
L 474.988827 220.560239 
L 475.272219 218.337377 
L 475.555612 221.512893 
L 475.839005 222.994801 
L 476.40579 220.083911 
L 476.689182 220.785171 
L 477.53936 217.702274 
L 478.106145 219.87221 
L 478.389538 219.157719 
L 478.67293 223.378509 
L 478.956323 218.86663 
L 479.239716 223.815143 
L 479.523108 219.607584 
L 479.806501 219.078331 
L 480.089893 219.091562 
L 480.373286 216.643768 
L 480.940071 220.057448 
L 481.223464 217.781662 
L 481.506856 221.248267 
L 481.790249 220.388231 
L 482.073641 220.150068 
L 482.357034 224.317933 
L 482.640427 218.879861 
L 482.923819 223.920993 
L 483.207212 221.459968 
L 483.490604 222.994801 
L 483.773997 221.909833 
L 484.05739 221.711363 
L 484.340782 221.856908 
L 484.624175 218.628466 
L 484.907567 222.452317 
L 485.19096 219.303263 
L 485.474352 222.002452 
L 485.757745 221.698132 
L 486.041138 225.230894 
L 486.32453 220.441157 
L 486.607923 224.053306 
L 486.891315 221.129185 
L 487.174708 220.361769 
L 487.458101 220.26915 
L 487.741493 219.753128 
L 488.024886 220.441157 
L 488.308278 219.911904 
L 488.591671 223.563748 
L 488.875063 220.441157 
L 489.158456 225.125043 
L 489.441849 221.036566 
L 489.725241 222.849257 
L 490.008634 220.441157 
L 490.292026 222.994801 
L 490.575419 219.938367 
L 490.858812 222.134765 
L 491.142204 221.936296 
L 491.425597 219.422345 
L 491.708989 222.47878 
L 491.992382 220.758708 
L 492.275775 221.909833 
L 492.559167 220.507313 
L 492.84256 222.955107 
L 493.125952 221.526125 
L 493.409345 221.711363 
L 493.692737 223.457897 
L 493.97613 222.58463 
L 494.259523 222.372929 
L 494.542915 220.454388 
L 494.826308 221.803982 
L 495.1097 218.350608 
L 495.393093 221.354118 
L 495.676486 220.851328 
L 495.959878 221.115954 
L 496.243271 220.308843 
L 496.526663 222.306772 
L 496.810056 221.923064 
L 497.093448 219.316495 
L 497.376841 221.459968 
L 497.660234 219.329726 
L 497.943626 220.494082 
L 498.227019 216.048359 
L 498.510411 215.016316 
L 498.793804 218.840167 
L 499.077197 217.794893 
L 499.643982 217.001014 
L 499.927374 217.874281 
L 500.210767 215.108936 
L 500.494159 217.35826 
L 500.777552 216.802544 
L 501.060945 217.477341 
L 501.62773 215.677882 
L 501.911122 215.730808 
L 502.194515 215.188323 
L 502.477908 217.027477 
L 502.7613 215.095704 
L 503.044693 217.86105 
L 503.328085 217.437648 
L 503.611478 217.583192 
L 503.89487 216.617306 
L 504.178263 213.190394 
L 504.461656 214.910466 
L 504.745048 213.984274 
L 505.028441 215.796964 
L 505.311833 215.386793 
L 505.595226 217.26564 
L 505.878619 216.76285 
L 506.162011 220.520545 
L 506.445404 217.503804 
L 507.012189 219.67374 
L 507.578974 219.104794 
L 507.862367 218.615235 
L 508.145759 222.161228 
L 508.429152 220.441157 
L 508.712544 222.505242 
L 508.995937 218.509384 
L 509.27933 221.195342 
L 509.562722 214.884003 
L 509.846115 220.930715 
L 510.129507 213.904886 
L 510.4129 214.103355 
L 510.696293 207.143682 
L 510.979685 206.323341 
L 511.829863 195.619204 
L 512.113255 192.748008 
L 512.396648 191.0544 
L 513.246826 180.866285 
L 513.813611 176.658726 
L 514.097004 175.944235 
L 514.663789 175.084199 
L 515.230574 176.433794 
L 516.364144 182.268805 
L 524.865922 215.082473 
L 525.149314 214.831078 
L 525.432707 217.239178 
L 525.7161 217.35826 
L 525.999492 218.615235 
L 526.282885 218.191833 
L 526.566277 219.329726 
L 526.84967 218.66816 
L 527.133062 218.56231 
L 527.416455 218.628466 
L 527.699848 218.297683 
L 527.98324 219.210644 
L 528.266633 218.853399 
L 528.550025 221.301192 
L 528.833418 220.917484 
L 529.116811 223.629904 
L 529.400203 223.616673 
L 529.683596 224.344395 
L 530.533773 220.322075 
L 530.817166 220.467619 
L 531.100559 220.758708 
L 531.383951 221.764288 
L 531.667344 223.881299 
L 531.950736 221.605513 
L 532.234129 224.331164 
L 532.517522 168.958099 
L 532.800914 224.675178 
L 533.084307 223.643136 
L 533.367699 224.026844 
L 533.651092 222.7831 
L 534.217877 222.015683 
L 535.068055 219.316495 
L 535.351447 221.420274 
L 535.63484 218.482922 
L 535.918233 221.803982 
L 536.201625 222.015683 
L 536.485018 223.960687 
L 536.76841 222.88895 
L 537.051803 223.365278 
L 537.335196 223.431435 
L 537.618588 220.917484 
L 537.901981 221.327655 
L 538.185373 218.443228 
L 538.468766 221.446737 
L 538.752158 219.832516 
L 539.035551 222.346466 
L 539.318944 221.512893 
L 539.602336 223.709292 
L 539.885729 221.923064 
L 540.169121 222.227385 
L 540.452514 220.67932 
L 540.735907 219.858979 
L 541.019299 220.864559 
L 541.302692 219.422345 
L 541.586084 221.684901 
L 541.869477 219.766359 
L 542.152869 221.751057 
L 542.436262 221.235036 
L 542.719655 221.936296 
L 543.003047 220.017754 
L 543.28644 223.854837 
L 543.569832 220.77194 
L 543.853225 222.968338 
L 544.136618 222.664018 
L 544.42001 219.686972 
L 544.703403 222.505242 
L 544.986795 218.377071 
L 545.270188 220.57347 
L 545.55358 217.887512 
L 546.120366 220.414694 
L 546.687151 222.941876 
L 547.253936 222.174459 
L 547.537329 220.097142 
L 547.820721 221.07626 
L 548.387506 218.998943 
L 548.670899 216.617306 
L 548.954292 220.308843 
L 549.237684 219.0651 
L 549.521077 220.705783 
L 549.804469 216.934857 
L 550.087862 220.652858 
L 550.654647 218.641697 
L 550.93804 218.813705 
L 551.221432 221.552587 
L 551.504825 219.501733 
L 551.788217 220.904253 
L 552.07161 223.947456 
L 552.355003 219.87221 
L 552.638395 223.140346 
L 552.921788 221.420274 
L 553.20518 225.177968 
L 553.488573 224.397321 
L 553.771965 224.357627 
L 554.055358 274.821873 
L 554.338751 223.008032 
L 554.622143 223.960687 
L 554.905536 222.544936 
L 555.188928 225.508751 
L 555.472321 221.354118 
L 555.755714 223.100652 
L 556.039106 222.174459 
L 556.322499 223.881299 
L 556.605891 224.529634 
L 556.889284 220.388231 
L 557.172676 223.775449 
L 557.456069 223.68283 
L 557.739462 223.100652 
L 558.022854 220.851328 
L 558.306247 223.59021 
L 558.873032 220.044217 
L 559.156425 220.745477 
L 559.439817 218.125676 
L 559.72321 220.388231 
L 560.006602 215.439719 
L 560.289995 220.229456 
L 560.573388 218.244758 
L 560.85678 217.26564 
L 561.140173 213.24332 
L 561.706958 209.287156 
L 562.557136 199.562137 
L 562.840528 198.477169 
L 563.123921 195.844137 
L 563.690706 188.34198 
L 564.257491 183.367004 
L 564.540884 183.12884 
L 565.107669 183.155303 
L 565.391061 183.777175 
L 566.808024 191.213176 
L 568.50838 203.187518 
L 568.791772 204.259255 
L 569.075165 204.418031 
L 569.358558 205.185447 
L 569.925343 205.595618 
L 570.208735 207.911099 
L 570.492128 208.810828 
L 570.775521 210.398586 
L 571.058913 211.086615 
L 571.342306 212.171583 
L 571.625698 211.364473 
L 571.909091 211.973113 
L 572.192483 210.663213 
L 572.475876 210.266273 
L 573.326054 212.912537 
L 573.609446 213.031619 
L 573.892839 215.333868 
L 574.176232 214.288594 
L 574.459624 215.836658 
L 574.743017 214.645839 
L 575.026409 216.101284 
L 575.309802 213.971042 
L 575.593195 215.717576 
L 575.876587 214.55322 
L 576.15998 214.685533 
L 576.726765 215.386793 
L 577.010157 214.460601 
L 577.576943 216.286523 
L 577.860335 215.624957 
L 578.143728 218.310914 
L 578.42712 218.205064 
L 578.710513 219.686972 
L 578.993906 219.118025 
L 579.277298 219.025406 
L 579.560691 218.602003 
L 579.844083 217.014245 
L 580.127476 219.157719 
L 580.410868 217.993363 
L 580.977654 221.049797 
L 581.261046 221.605513 
L 581.544439 221.340886 
L 581.827831 222.664018 
L 582.111224 220.838096 
L 582.394617 221.843676 
L 582.961402 219.290032 
L 583.244794 219.290032 
L 583.528187 221.049797 
L 583.811579 221.102723 
L 584.378365 223.947456 
L 584.661757 221.102723 
L 584.94515 223.669598 
L 585.228542 221.645207 
L 585.511935 222.941876 
L 585.795328 222.359698 
L 586.07872 222.412623 
L 586.362113 222.849257 
L 586.645505 221.923064 
L 587.212291 222.452317 
L 587.495683 222.28031 
L 588.062468 224.450246 
L 588.345861 223.259427 
L 588.629253 225.945385 
L 588.912646 224.132694 
L 589.196039 225.323513 
L 589.479431 223.312353 
L 589.762824 223.153577 
L 590.046216 221.27473 
L 590.329609 222.47878 
L 590.613002 225.667527 
L 590.896394 222.836025 
L 591.179787 226.39525 
L 591.463179 223.299121 
L 591.746572 224.900111 
L 592.029964 223.59021 
L 592.313357 223.021264 
L 592.59675 224.013612 
L 592.880142 222.028915 
L 593.163535 222.637555 
L 593.446927 221.102723 
L 593.73032 224.886879 
L 594.013713 222.836025 
L 594.297105 224.093 
L 594.580498 222.306772 
L 594.86389 223.193271 
L 595.147283 221.38058 
L 595.430675 223.140346 
L 595.714068 220.547007 
L 595.997461 222.161228 
L 596.280853 222.7831 
L 596.564246 218.919555 
L 596.847638 222.902182 
L 597.131031 219.686972 
L 597.414424 221.856908 
L 597.697816 218.205064 
L 597.981209 221.049797 
L 598.264601 218.747548 
L 598.547994 219.713434 
L 598.831386 220.07068 
L 599.114779 217.993363 
L 599.398172 219.991292 
L 599.681564 218.602003 
L 599.964957 218.734317 
L 600.248349 216.934857 
L 600.531742 218.390302 
L 600.815135 216.326217 
L 601.098527 218.694623 
L 601.38192 216.193904 
L 601.665312 217.675811 
L 601.948705 216.987783 
L 602.232098 217.847818 
L 602.51549 217.927206 
L 602.798883 217.636117 
L 603.082275 218.86663 
L 603.365668 216.709925 
L 603.64906 219.462039 
L 603.932453 218.879861 
L 604.215846 220.348537 
L 604.499238 219.686972 
L 604.782631 221.684901 
L 605.066023 220.335306 
L 605.349416 222.253847 
L 605.632809 222.187691 
L 605.916201 220.136836 
L 606.199594 222.293541 
L 606.482986 221.77752 
L 606.766379 222.928644 
L 607.049771 222.187691 
L 607.333164 222.968338 
L 607.616557 222.611093 
L 607.899949 223.841605 
L 608.183342 222.849257 
L 608.466734 223.934225 
L 608.750127 221.314424 
L 609.03352 224.556097 
L 609.316912 222.055377 
L 609.600305 224.714872 
L 610.450482 222.002452 
L 610.733875 222.346466 
L 611.017268 219.56789 
L 611.30066 219.17095 
L 611.584053 217.675811 
L 611.867445 218.602003 
L 612.150838 217.821356 
L 612.434231 219.806053 
L 613.001016 218.985712 
L 613.284408 218.575541 
L 613.567801 221.221804 
L 613.851193 216.312986 
L 614.134586 220.891021 
L 614.417979 218.033057 
L 614.701371 221.287961 
L 614.984764 219.766359 
L 615.268156 221.552587 
L 615.551549 220.520545 
L 615.834942 217.980132 
L 616.118334 220.242687 
L 616.401727 219.607584 
L 616.685119 220.970409 
L 616.968512 220.692552 
L 617.251905 222.068609 
L 617.535297 221.565819 
L 617.81869 223.815143 
L 618.102082 222.756637 
L 618.668867 223.643136 
L 618.95226 221.909833 
L 619.235653 222.968338 
L 619.519045 223.060958 
L 619.802438 223.934225 
L 620.08583 224.000381 
L 620.369223 225.164737 
L 620.652616 224.529634 
L 620.936008 224.529634 
L 621.219401 224.18562 
L 621.502793 225.1912 
L 621.786186 224.714872 
L 622.069578 222.7831 
L 622.352971 225.111812 
L 622.636364 220.533776 
L 622.636364 220.533776 
" clip-path="url(#p1ba57e7d8b)" style="fill: none; stroke: #1f77b4; stroke-width: 1.5; stroke-linecap: square"/>
   </g>
   <g id="line2d_14">
    <path d="M 115.363636 218.879934 
L 115.930422 219.288633 
L 116.213814 213.402096 
L 119.04774 215.714179 
L 121.598273 217.526253 
L 122.731844 218.200719 
L 123.015236 214.592914 
L 124.148807 215.244006 
L 126.69934 217.024759 
L 127.266125 216.837656 
L 127.549518 217.061082 
L 127.83291 217.086347 
L 128.116303 217.459899 
L 128.683088 213.23019 
L 128.96648 213.259399 
L 129.533266 212.822154 
L 129.816658 211.986345 
L 130.100051 210.717861 
L 130.950229 205.399028 
L 131.517014 203.440514 
L 131.800406 202.935545 
L 132.083799 202.65838 
L 132.367191 202.553596 
L 132.933977 202.694018 
L 133.784154 203.379903 
L 135.48451 205.273637 
L 136.334688 206.253508 
L 136.61808 211.073384 
L 140.018791 214.092943 
L 143.13611 216.538575 
L 143.419502 213.124238 
L 146.253428 215.466526 
L 147.670391 216.494049 
L 147.953784 216.584145 
L 148.520569 215.080783 
L 149.087354 210.355876 
L 149.370747 208.919656 
L 149.654139 206.839595 
L 149.937532 205.822923 
L 150.787709 173.341005 
L 152.204672 117.218462 
L 153.05485 80.875775 
L 153.621635 67.66604 
L 154.188421 60.369659 
L 154.755206 55.861171 
L 155.038598 54.737296 
L 155.321991 54.327273 
L 155.605383 54.476169 
L 155.888776 55.045314 
L 156.455561 57.097762 
L 156.738954 58.475595 
L 157.022346 167.529117 
L 157.305739 167.81759 
L 157.872524 168.856928 
L 158.722702 171.088391 
L 161.556628 179.80676 
L 163.540376 185.504461 
L 163.823768 206.005789 
L 166.090909 209.405753 
L 166.374302 209.728866 
L 166.657694 210.293366 
L 167.224479 205.846745 
L 167.507872 206.171993 
L 167.791265 204.167584 
L 168.924835 189.336851 
L 169.49162 184.326365 
L 170.058405 181.369199 
L 170.341798 180.535032 
L 170.62519 201.09697 
L 170.908583 200.706119 
L 171.191976 200.514436 
L 171.475368 200.481591 
L 172.042153 200.76282 
L 173.175724 201.857781 
L 173.742509 202.524642 
L 174.592687 203.167439 
L 175.442864 204.115024 
L 177.14322 206.499244 
L 177.426612 212.171583 
L 179.693753 214.822567 
L 181.960894 217.163675 
L 183.944642 218.983415 
L 184.228035 213.335939 
L 186.495175 215.854117 
L 189.045708 218.331519 
L 191.596242 220.480564 
L 194.146775 222.344774 
L 196.980701 224.127795 
L 197.547486 224.451825 
L 197.830879 209.604707 
L 200.098019 212.565891 
L 202.36516 215.175501 
L 204.348908 217.203448 
L 204.632301 213.54764 
L 206.899441 216.313391 
L 209.166582 218.722475 
L 211.433723 220.818999 
L 213.984256 222.852513 
L 216.534789 224.588706 
L 219.085322 226.069966 
L 221.919248 227.461211 
L 225.036567 228.731304 
L 228.437278 229.860215 
L 232.121381 230.838437 
L 236.088878 231.665643 
L 238.356018 232.052861 
L 238.639411 213.971042 
L 241.473337 216.220712 
L 244.590655 218.412302 
L 245.15744 218.78164 
L 245.440833 216.392373 
L 248.558151 218.571544 
L 248.841544 218.66404 
L 249.124937 218.534293 
L 250.258507 218.646083 
L 250.541899 218.738938 
L 250.825292 218.670862 
L 251.392077 218.233848 
L 251.958862 217.601064 
L 252.242255 211.589405 
L 252.80904 211.469834 
L 253.375825 211.629788 
L 254.226003 212.152335 
L 256.493144 213.993683 
L 258.760284 215.802559 
L 259.043677 216.299754 
L 262.160995 218.481312 
L 265.278314 220.402532 
L 268.679025 222.237347 
L 272.363128 223.957449 
L 276.047232 225.437166 
L 280.014728 226.800301 
L 284.265617 228.035263 
L 287.382936 228.813886 
L 287.666328 216.670231 
L 290.783647 218.80806 
L 292.767395 220.033364 
L 293.050787 215.466181 
L 296.168106 217.748034 
L 297.868461 218.943747 
L 298.435246 218.155179 
L 299.002031 218.59474 
L 299.568817 218.994663 
L 299.852209 218.860218 
L 300.418994 217.852689 
L 300.98578 217.269515 
L 301.552565 217.099452 
L 302.11935 217.187401 
L 303.819705 217.849056 
L 304.953276 218.484603 
L 305.520061 218.625594 
L 306.086846 218.238379 
L 306.370239 218.733104 
L 306.937024 213.823492 
L 307.220416 214.203459 
L 307.503809 214.230302 
L 307.787202 214.12188 
L 308.070594 214.229384 
L 308.353987 212.854318 
L 309.204165 204.260907 
L 309.77095 201.200045 
L 310.337735 199.838215 
L 310.621127 199.567778 
L 310.90452 199.480916 
L 311.471305 199.674235 
L 312.321483 200.454988 
L 314.021838 202.542673 
L 317.139157 206.342502 
L 319.973083 209.425683 
L 322.807009 212.172331 
L 325.640934 214.618675 
L 328.758253 217.00186 
L 331.875571 219.100028 
L 335.276282 221.103819 
L 338.676993 222.847655 
L 339.810564 223.377127 
L 343.77806 207.825761 
L 344.344845 206.770382 
L 344.628238 206.554464 
L 345.195023 206.517176 
L 345.761808 206.799798 
L 346.895378 207.776378 
L 349.445912 210.158762 
L 350.579482 211.230018 
L 350.862875 216.273292 
L 352.56323 217.417404 
L 353.980193 218.296094 
L 355.680549 219.195811 
L 356.247334 219.528159 
L 356.530726 215.267711 
L 359.931437 217.755257 
L 363.048756 219.763093 
L 363.332148 213.481483 
L 366.166074 215.784683 
L 369.283393 218.028419 
L 369.850178 218.406546 
L 370.13357 214.897234 
L 373.250889 217.247106 
L 376.368207 219.313451 
L 376.6516 219.479331 
L 376.934992 212.118658 
L 377.78517 210.08586 
L 378.351955 209.749541 
L 378.635348 209.347817 
L 379.202133 207.865134 
L 379.768918 206.281359 
L 380.052311 205.775309 
L 380.619096 205.399091 
L 381.185881 205.451327 
L 382.036059 205.840332 
L 382.886237 206.533064 
L 383.453022 207.086852 
L 383.736414 216.590843 
L 388.554088 219.759248 
L 390.254444 220.751576 
L 390.537836 217.583192 
L 393.938547 219.775682 
L 394.505333 220.011435 
L 394.788725 219.568232 
L 395.072118 218.660773 
L 395.35551 218.342403 
L 395.922296 218.777864 
L 396.205688 218.781434 
L 396.489081 218.365949 
L 397.339259 214.963391 
L 397.906044 215.232016 
L 398.189436 215.252035 
L 399.889792 214.670227 
L 400.456577 214.812046 
L 401.306755 215.260979 
L 403.573895 216.844581 
L 403.857288 217.045623 
L 404.140681 215.175092 
L 407.257999 217.487466 
L 410.375317 219.527463 
L 412.075673 220.535458 
L 412.359066 217.424416 
L 415.476384 219.472048 
L 417.743525 220.805682 
L 418.026917 216.749619 
L 421.144236 218.877954 
L 424.261554 220.751749 
L 427.662265 222.54126 
L 431.062976 224.098616 
L 431.346369 216.114516 
L 434.463687 218.318806 
L 437.581006 220.259473 
L 437.864398 220.423946 
L 438.147791 213.124238 
L 439.564754 214.293402 
L 440.414931 214.729349 
L 440.981717 214.990444 
L 441.548502 213.541352 
L 441.831894 213.561278 
L 442.39868 213.46249 
L 442.682072 213.461941 
L 442.965465 212.869113 
L 444.66582 205.974195 
L 445.799391 205.526504 
L 446.082783 204.63173 
L 446.366176 215.505875 
L 446.649568 215.529106 
L 447.499746 215.235423 
L 447.783139 215.236264 
L 448.066531 216.008665 
L 448.916709 216.355653 
L 450.617064 217.426099 
L 451.467242 217.99508 
L 451.750635 211.906957 
L 454.867953 214.60882 
L 457.985272 216.993059 
L 461.10259 219.092277 
L 464.503301 221.097073 
L 465.070086 221.40495 
L 465.353479 215.638188 
L 468.470797 217.899445 
L 471.588116 219.890265 
L 471.871508 220.058989 
L 472.154901 220.957178 
L 475.555612 222.720039 
L 478.67293 224.134338 
L 478.956323 217.940438 
L 481.506856 220.141317 
L 484.05739 222.050491 
L 485.474352 222.999546 
L 485.757745 218.998943 
L 489.158456 221.015848 
L 492.559167 222.771097 
L 492.84256 221.909833 
L 496.243271 223.549078 
L 497.660234 224.18685 
L 497.943626 224.098838 
L 499.360589 221.185669 
L 499.927374 219.507064 
L 501.62773 210.17474 
L 502.477908 207.841319 
L 503.89487 201.591769 
L 504.461656 200.558604 
L 504.745048 200.370133 
L 505.028441 200.335329 
L 505.595226 200.579591 
L 505.878619 200.804799 
L 506.162011 216.829007 
L 507.295582 217.410616 
L 508.429152 218.001283 
L 509.27933 218.50649 
L 509.562722 218.716846 
L 509.846115 218.561316 
L 510.129507 218.047592 
L 510.4129 217.816925 
L 510.979685 217.985032 
L 511.263078 218.116046 
L 511.54647 217.841626 
L 512.680041 215.054336 
L 512.963433 191.768891 
L 513.530218 189.878324 
L 514.380396 187.952938 
L 515.230574 186.593329 
L 515.797359 185.686663 
L 516.364144 185.186533 
L 530.817166 205.1168 
L 533.367699 208.029333 
L 533.651092 224.503171 
L 537.618588 226.005621 
L 539.885729 226.722155 
L 540.169121 223.365278 
L 543.28644 224.571007 
L 546.970543 225.960194 
L 547.253936 221.327655 
L 550.654647 223.042444 
L 553.488573 224.300245 
L 554.055358 224.436773 
L 555.188928 224.929372 
L 555.755714 224.486952 
L 556.039106 224.595356 
L 556.605891 224.55908 
L 556.889284 224.697797 
L 557.172676 224.69343 
L 557.456069 223.92746 
L 558.022854 220.375347 
L 558.306247 219.656571 
L 558.589639 219.265575 
L 558.873032 219.096566 
L 559.156425 218.756207 
L 559.439817 217.440493 
L 560.573388 209.543883 
L 560.85678 219.898673 
L 562.273743 209.210002 
L 562.840528 206.049409 
L 563.407313 203.929936 
L 563.974099 202.792204 
L 564.257491 202.522389 
L 564.540884 202.409998 
L 565.107669 202.54715 
L 565.674454 203.020049 
L 566.524632 204.090293 
L 567.091417 204.931159 
L 567.37481 190.736848 
L 570.775521 196.362365 
L 572.475876 198.740955 
L 573.042661 199.136573 
L 573.609446 199.810214 
L 574.176232 200.372563 
L 574.459624 211.959882 
L 576.726765 213.819467 
L 579.844083 216.287985 
L 580.977654 217.114156 
L 581.261046 217.675811 
L 584.378365 219.693377 
L 588.062468 221.803982 
L 589.196039 222.069007 
L 590.046216 222.450267 
L 591.746572 222.431184 
L 593.446927 223.01874 
L 594.580498 223.505054 
L 594.86389 224.000381 
L 595.997461 219.944991 
L 596.564246 218.468646 
L 596.847638 217.724915 
L 597.131031 217.424874 
L 597.697816 216.466087 
L 597.981209 216.367887 
L 598.264601 215.996729 
L 598.831386 214.418738 
L 599.681564 211.607632 
L 600.248349 210.623265 
L 601.098527 209.538413 
L 601.38192 217.252409 
L 601.665312 217.107972 
L 603.082275 215.839272 
L 603.64906 215.651226 
L 605.916201 215.229107 
L 606.766379 215.569308 
L 607.333164 215.942973 
L 607.899949 215.557905 
L 608.183342 222.915413 
L 609.03352 223.08533 
L 609.316912 222.983092 
L 610.450482 221.126995 
L 611.017268 220.114312 
L 611.867445 219.646395 
L 612.150838 219.334178 
L 613.284408 217.395682 
L 613.851193 217.076757 
L 614.417979 217.082411 
L 614.984764 217.271017 
L 615.268156 218.152139 
L 617.251905 219.821238 
L 620.369223 222.385761 
L 621.786186 223.420265 
L 622.069578 225.932154 
L 622.636364 226.129319 
L 622.636364 226.129319 
" clip-path="url(#p1ba57e7d8b)" style="fill: none; stroke: #ff7f0e; stroke-width: 1.5; stroke-linecap: square"/>
   </g>
   <g id="patch_3">
    <path d="M 90 288 
L 90 43.2 
" style="fill: none; stroke: #000000; stroke-width: 0.8; stroke-linejoin: miter; stroke-linecap: square"/>
   </g>
   <g id="patch_4">
    <path d="M 648 288 
L 648 43.2 
" style="fill: none; stroke: #000000; stroke-width: 0.8; stroke-linejoin: miter; stroke-linecap: square"/>
   </g>
   <g id="patch_5">
    <path d="M 90 288 
L 648 288 
" style="fill: none; stroke: #000000; stroke-width: 0.8; stroke-linejoin: miter; stroke-linecap: square"/>
   </g>
   <g id="patch_6">
    <path d="M 90 43.2 
L 648 43.2 
" style="fill: none; stroke: #000000; stroke-width: 0.8; stroke-linejoin: miter; stroke-linecap: square"/>
   </g>
   <g id="text_14">
    <!-- MDOT8706 -->
    <g transform="translate(335.545313 37.2) scale(0.12 -0.12)">
     <defs>
      <path id="DejaVuSans-44" d="M 1259 4147 
L 1259 519 
L 2022 519 
Q 2988 519 3436 956 
Q 3884 1394 3884 2338 
Q 3884 3275 3436 3711 
Q 2988 4147 2022 4147 
L 1259 4147 
z
M 628 4666 
L 1925 4666 
Q 3281 4666 3915 4102 
Q 4550 3538 4550 2338 
Q 4550 1131 3912 565 
Q 3275 0 1925 0 
L 628 0 
L 628 4666 
z
" transform="scale(0.015625)"/>
      <path id="DejaVuSans-4f" d="M 2522 4238 
Q 1834 4238 1429 3725 
Q 1025 3213 1025 2328 
Q 1025 1447 1429 934 
Q 1834 422 2522 422 
Q 3209 422 3611 934 
Q 4013 1447 4013 2328 
Q 4013 3213 3611 3725 
Q 3209 4238 2522 4238 
z
M 2522 4750 
Q 3503 4750 4090 4092 
Q 4678 3434 4678 2328 
Q 4678 1225 4090 567 
Q 3503 -91 2522 -91 
Q 1538 -91 948 565 
Q 359 1222 359 2328 
Q 359 3434 948 4092 
Q 1538 4750 2522 4750 
z
" transform="scale(0.015625)"/>
      <path id="DejaVuSans-54" d="M -19 4666 
L 3928 4666 
L 3928 4134 
L 2272 4134 
L 2272 0 
L 1638 0 
L 1638 4134 
L -19 4134 
L -19 4666 
z
" transform="scale(0.015625)"/>
      <path id="DejaVuSans-37" d="M 525 4666 
L 3525 4666 
L 3525 4397 
L 1831 0 
L 1172 0 
L 2766 4134 
L 525 4134 
L 525 4666 
z
" transform="scale(0.015625)"/>
      <path id="DejaVuSans-36" d="M 2113 2584 
Q 1688 2584 1439 2293 
Q 1191 2003 1191 1497 
Q 1191 994 1439 701 
Q 1688 409 2113 409 
Q 2538 409 2786 701 
Q 3034 994 3034 1497 
Q 3034 2003 2786 2293 
Q 2538 2584 2113 2584 
z
M 3366 4563 
L 3366 3988 
Q 3128 4100 2886 4159 
Q 2644 4219 2406 4219 
Q 1781 4219 1451 3797 
Q 1122 3375 1075 2522 
Q 1259 2794 1537 2939 
Q 1816 3084 2150 3084 
Q 2853 3084 3261 2657 
Q 3669 2231 3669 1497 
Q 3669 778 3244 343 
Q 2819 -91 2113 -91 
Q 1303 -91 875 529 
Q 447 1150 447 2328 
Q 447 3434 972 4092 
Q 1497 4750 2381 4750 
Q 2619 4750 2861 4703 
Q 3103 4656 3366 4563 
z
" transform="scale(0.015625)"/>
     </defs>
     <use xlink:href="#DejaVuSans-4d"/>
     <use xlink:href="#DejaVuSans-44" x="86.279297"/>
     <use xlink:href="#DejaVuSans-4f" x="163.28125"/>
     <use xlink:href="#DejaVuSans-54" x="241.992188"/>
     <use xlink:href="#DejaVuSans-38" x="303.076172"/>
     <use xlink:href="#DejaVuSans-37" x="366.699219"/>
     <use xlink:href="#DejaVuSans-30" x="430.322266"/>
     <use xlink:href="#DejaVuSans-36" x="493.945312"/>
    </g>
   </g>
   <g id="legend_1">
    <g id="patch_7">
     <path d="M 559.04375 80.55625 
L 641 80.55625 
Q 643 80.55625 643 78.55625 
L 643 50.2 
Q 643 48.2 641 48.2 
L 559.04375 48.2 
Q 557.04375 48.2 557.04375 50.2 
L 557.04375 78.55625 
Q 557.04375 80.55625 559.04375 80.55625 
z
" style="fill: #ffffff; opacity: 0.8; stroke: #cccccc; stroke-linejoin: miter"/>
    </g>
    <g id="line2d_15">
     <path d="M 561.04375 56.298437 
L 571.04375 56.298437 
L 581.04375 56.298437 
" style="fill: none; stroke: #1f77b4; stroke-width: 1.5; stroke-linecap: square"/>
    </g>
    <g id="text_15">
     <!-- measured -->
     <g transform="translate(589.04375 59.798437) scale(0.1 -0.1)">
      <defs>
       <path id="DejaVuSans-6d" d="M 3328 2828 
Q 3544 3216 3844 3400 
Q 4144 3584 4550 3584 
Q 5097 3584 5394 3201 
Q 5691 2819 5691 2113 
L 5691 0 
L 5113 0 
L 5113 2094 
Q 5113 2597 4934 2840 
Q 4756 3084 4391 3084 
Q 3944 3084 3684 2787 
Q 3425 2491 3425 1978 
L 3425 0 
L 2847 0 
L 2847 2094 
Q 2847 2600 2669 2842 
Q 2491 3084 2119 3084 
Q 1678 3084 1418 2786 
Q 1159 2488 1159 1978 
L 1159 0 
L 581 0 
L 581 3500 
L 1159 3500 
L 1159 2956 
Q 1356 3278 1631 3431 
Q 1906 3584 2284 3584 
Q 2666 3584 2933 3390 
Q 3200 3197 3328 2828 
z
" transform="scale(0.015625)"/>
       <path id="DejaVuSans-61" d="M 2194 1759 
Q 1497 1759 1228 1600 
Q 959 1441 959 1056 
Q 959 750 1161 570 
Q 1363 391 1709 391 
Q 2188 391 2477 730 
Q 2766 1069 2766 1631 
L 2766 1759 
L 2194 1759 
z
M 3341 1997 
L 3341 0 
L 2766 0 
L 2766 531 
Q 2569 213 2275 61 
Q 1981 -91 1556 -91 
Q 1019 -91 701 211 
Q 384 513 384 1019 
Q 384 1609 779 1909 
Q 1175 2209 1959 2209 
L 2766 2209 
L 2766 2266 
Q 2766 2663 2505 2880 
Q 2244 3097 1772 3097 
Q 1472 3097 1187 3025 
Q 903 2953 641 2809 
L 641 3341 
Q 956 3463 1253 3523 
Q 1550 3584 1831 3584 
Q 2591 3584 2966 3190 
Q 3341 2797 3341 1997 
z
" transform="scale(0.015625)"/>
       <path id="DejaVuSans-75" d="M 544 1381 
L 544 3500 
L 1119 3500 
L 1119 1403 
Q 1119 906 1312 657 
Q 1506 409 1894 409 
Q 2359 409 2629 706 
Q 2900 1003 2900 1516 
L 2900 3500 
L 3475 3500 
L 3475 0 
L 2900 0 
L 2900 538 
Q 2691 219 2414 64 
Q 2138 -91 1772 -91 
Q 1169 -91 856 284 
Q 544 659 544 1381 
z
M 1991 3584 
L 1991 3584 
z
" transform="scale(0.015625)"/>
       <path id="DejaVuSans-64" d="M 2906 2969 
L 2906 4863 
L 3481 4863 
L 3481 0 
L 2906 0 
L 2906 525 
Q 2725 213 2448 61 
Q 2172 -91 1784 -91 
Q 1150 -91 751 415 
Q 353 922 353 1747 
Q 353 2572 751 3078 
Q 1150 3584 1784 3584 
Q 2172 3584 2448 3432 
Q 2725 3281 2906 2969 
z
M 947 1747 
Q 947 1113 1208 752 
Q 1469 391 1925 391 
Q 2381 391 2643 752 
Q 2906 1113 2906 1747 
Q 2906 2381 2643 2742 
Q 2381 3103 1925 3103 
Q 1469 3103 1208 2742 
Q 947 2381 947 1747 
z
" transform="scale(0.015625)"/>
      </defs>
      <use xlink:href="#DejaVuSans-6d"/>
      <use xlink:href="#DejaVuSans-65" x="97.412109"/>
      <use xlink:href="#DejaVuSans-61" x="158.935547"/>
      <use xlink:href="#DejaVuSans-73" x="220.214844"/>
      <use xlink:href="#DejaVuSans-75" x="272.314453"/>
      <use xlink:href="#DejaVuSans-72" x="335.693359"/>
      <use xlink:href="#DejaVuSans-65" x="374.556641"/>
      <use xlink:href="#DejaVuSans-64" x="436.080078"/>
     </g>
    </g>
    <g id="line2d_16">
     <path d="M 561.04375 70.976562 
L 571.04375 70.976562 
L 581.04375 70.976562 
" style="fill: none; stroke: #ff7f0e; stroke-width: 1.5; stroke-linecap: square"/>
    </g>
    <g id="text_16">
     <!-- predicted -->
     <g transform="translate(589.04375 74.476562) scale(0.1 -0.1)">
      <defs>
       <path id="DejaVuSans-70" d="M 1159 525 
L 1159 -1331 
L 581 -1331 
L 581 3500 
L 1159 3500 
L 1159 2969 
Q 1341 3281 1617 3432 
Q 1894 3584 2278 3584 
Q 2916 3584 3314 3078 
Q 3713 2572 3713 1747 
Q 3713 922 3314 415 
Q 2916 -91 2278 -91 
Q 1894 -91 1617 61 
Q 1341 213 1159 525 
z
M 3116 1747 
Q 3116 2381 2855 2742 
Q 2594 3103 2138 3103 
Q 1681 3103 1420 2742 
Q 1159 2381 1159 1747 
Q 1159 1113 1420 752 
Q 1681 391 2138 391 
Q 2594 391 2855 752 
Q 3116 1113 3116 1747 
z
" transform="scale(0.015625)"/>
       <path id="DejaVuSans-69" d="M 603 3500 
L 1178 3500 
L 1178 0 
L 603 0 
L 603 3500 
z
M 603 4863 
L 1178 4863 
L 1178 4134 
L 603 4134 
L 603 4863 
z
" transform="scale(0.015625)"/>
       <path id="DejaVuSans-63" d="M 3122 3366 
L 3122 2828 
Q 2878 2963 2633 3030 
Q 2388 3097 2138 3097 
Q 1578 3097 1268 2742 
Q 959 2388 959 1747 
Q 959 1106 1268 751 
Q 1578 397 2138 397 
Q 2388 397 2633 464 
Q 2878 531 3122 666 
L 3122 134 
Q 2881 22 2623 -34 
Q 2366 -91 2075 -91 
Q 1284 -91 818 406 
Q 353 903 353 1747 
Q 353 2603 823 3093 
Q 1294 3584 2113 3584 
Q 2378 3584 2631 3529 
Q 2884 3475 3122 3366 
z
" transform="scale(0.015625)"/>
      </defs>
      <use xlink:href="#DejaVuSans-70"/>
      <use xlink:href="#DejaVuSans-72" x="63.476562"/>
      <use xlink:href="#DejaVuSans-65" x="102.339844"/>
      <use xlink:href="#DejaVuSans-64" x="163.863281"/>
      <use xlink:href="#DejaVuSans-69" x="227.339844"/>
      <use xlink:href="#DejaVuSans-63" x="255.123047"/>
      <use xlink:href="#DejaVuSans-74" x="310.103516"/>
      <use xlink:href="#DejaVuSans-65" x="349.3125"/>
      <use xlink:href="#DejaVuSans-64" x="410.835938"/>
     </g>
    </g>
   </g>
  </g>
 </g>
 <defs>
  <clipPath id="p1ba57e7d8b">
   <rect x="90" y="43.2" width="558" height="244.8"/>
  </clipPath>
 </defs>
</svg>
