<?xml version="1.0" encoding="utf-8" standalone="no"?>
<!DOCTYPE svg PUBLIC "-//W3C//DTD SVG 1.1//EN"
  "http://www.w3.org/Graphics/SVG/1.1/DTD/svg11.dtd">
<svg xmlns:xlink="http://www.w3.org/1999/xlink" width="720pt" height="360pt" viewBox="0 0 720 360" xmlns="http://www.w3.org/2000/svg" version="1.1">
 <metadata>
  <rdf:RDF xmlns:dc="http://purl.org/dc/elements/1.1/" xmlns:cc="http://creativecommons.org/ns#" xmlns:rdf="http://www.w3.org/1999/02/22-rdf-syntax-ns#">
   <cc:Work>
    <dc:type rdf:resource="http://purl.org/dc/dcmitype/StillImage"/>
    <dc:date>2023-10-23T10:52:57.011696</dc:date>
    <dc:format>image/svg+xml</dc:format>
    <dc:creator>
     <cc:Agent>
      <dc:title>Matplotlib v3.7.1, https://matplotlib.org/</dc:title>
     </cc:Agent>
    </dc:creator>
   </cc:Work>
  </rdf:RDF>
 </metadata>
 <defs>
  <style type="text/css">*{stroke-linejoin: round; stroke-linecap: butt}</style>
 </defs>
 <g id="figure_1">
  <g id="patch_1">
   <path d="M 0 360 
L 720 360 
L 720 0 
L 0 0 
z
" style="fill: #ffffff"/>
  </g>
  <g id="axes_1">
   <g id="patch_2">
    <path d="M 90 288 
L 648 288 
L 648 43.2 
L 90 43.2 
z
" style="fill: #ffffff"/>
   </g>
   <g id="matplotlib.axis_1">
    <g id="xtick_1">
     <g id="line2d_1">
      <defs>
       <path id="mb306ce4a81" d="M 0 0 
L 0 3.5 
" style="stroke: #000000; stroke-width: 0.8"/>
      </defs>
      <g>
       <use xlink:href="#mb306ce4a81" x="149.370747" y="288" style="stroke: #000000; stroke-width: 0.8"/>
      </g>
     </g>
     <g id="text_1">
      <!-- 2023-08-15 -->
      <g transform="translate(87.727405 337.765903) rotate(-30) scale(0.12 -0.12)">
       <defs>
        <path id="DejaVuSans-32" d="M 1228 531 
L 3431 531 
L 3431 0 
L 469 0 
L 469 531 
Q 828 903 1448 1529 
Q 2069 2156 2228 2338 
Q 2531 2678 2651 2914 
Q 2772 3150 2772 3378 
Q 2772 3750 2511 3984 
Q 2250 4219 1831 4219 
Q 1534 4219 1204 4116 
Q 875 4013 500 3803 
L 500 4441 
Q 881 4594 1212 4672 
Q 1544 4750 1819 4750 
Q 2544 4750 2975 4387 
Q 3406 4025 3406 3419 
Q 3406 3131 3298 2873 
Q 3191 2616 2906 2266 
Q 2828 2175 2409 1742 
Q 1991 1309 1228 531 
z
" transform="scale(0.015625)"/>
        <path id="DejaVuSans-30" d="M 2034 4250 
Q 1547 4250 1301 3770 
Q 1056 3291 1056 2328 
Q 1056 1369 1301 889 
Q 1547 409 2034 409 
Q 2525 409 2770 889 
Q 3016 1369 3016 2328 
Q 3016 3291 2770 3770 
Q 2525 4250 2034 4250 
z
M 2034 4750 
Q 2819 4750 3233 4129 
Q 3647 3509 3647 2328 
Q 3647 1150 3233 529 
Q 2819 -91 2034 -91 
Q 1250 -91 836 529 
Q 422 1150 422 2328 
Q 422 3509 836 4129 
Q 1250 4750 2034 4750 
z
" transform="scale(0.015625)"/>
        <path id="DejaVuSans-33" d="M 2597 2516 
Q 3050 2419 3304 2112 
Q 3559 1806 3559 1356 
Q 3559 666 3084 287 
Q 2609 -91 1734 -91 
Q 1441 -91 1130 -33 
Q 819 25 488 141 
L 488 750 
Q 750 597 1062 519 
Q 1375 441 1716 441 
Q 2309 441 2620 675 
Q 2931 909 2931 1356 
Q 2931 1769 2642 2001 
Q 2353 2234 1838 2234 
L 1294 2234 
L 1294 2753 
L 1863 2753 
Q 2328 2753 2575 2939 
Q 2822 3125 2822 3475 
Q 2822 3834 2567 4026 
Q 2313 4219 1838 4219 
Q 1578 4219 1281 4162 
Q 984 4106 628 3988 
L 628 4550 
Q 988 4650 1302 4700 
Q 1616 4750 1894 4750 
Q 2613 4750 3031 4423 
Q 3450 4097 3450 3541 
Q 3450 3153 3228 2886 
Q 3006 2619 2597 2516 
z
" transform="scale(0.015625)"/>
        <path id="DejaVuSans-2d" d="M 313 2009 
L 1997 2009 
L 1997 1497 
L 313 1497 
L 313 2009 
z
" transform="scale(0.015625)"/>
        <path id="DejaVuSans-38" d="M 2034 2216 
Q 1584 2216 1326 1975 
Q 1069 1734 1069 1313 
Q 1069 891 1326 650 
Q 1584 409 2034 409 
Q 2484 409 2743 651 
Q 3003 894 3003 1313 
Q 3003 1734 2745 1975 
Q 2488 2216 2034 2216 
z
M 1403 2484 
Q 997 2584 770 2862 
Q 544 3141 544 3541 
Q 544 4100 942 4425 
Q 1341 4750 2034 4750 
Q 2731 4750 3128 4425 
Q 3525 4100 3525 3541 
Q 3525 3141 3298 2862 
Q 3072 2584 2669 2484 
Q 3125 2378 3379 2068 
Q 3634 1759 3634 1313 
Q 3634 634 3220 271 
Q 2806 -91 2034 -91 
Q 1263 -91 848 271 
Q 434 634 434 1313 
Q 434 1759 690 2068 
Q 947 2378 1403 2484 
z
M 1172 3481 
Q 1172 3119 1398 2916 
Q 1625 2713 2034 2713 
Q 2441 2713 2670 2916 
Q 2900 3119 2900 3481 
Q 2900 3844 2670 4047 
Q 2441 4250 2034 4250 
Q 1625 4250 1398 4047 
Q 1172 3844 1172 3481 
z
" transform="scale(0.015625)"/>
        <path id="DejaVuSans-31" d="M 794 531 
L 1825 531 
L 1825 4091 
L 703 3866 
L 703 4441 
L 1819 4666 
L 2450 4666 
L 2450 531 
L 3481 531 
L 3481 0 
L 794 0 
L 794 531 
z
" transform="scale(0.015625)"/>
        <path id="DejaVuSans-35" d="M 691 4666 
L 3169 4666 
L 3169 4134 
L 1269 4134 
L 1269 2991 
Q 1406 3038 1543 3061 
Q 1681 3084 1819 3084 
Q 2600 3084 3056 2656 
Q 3513 2228 3513 1497 
Q 3513 744 3044 326 
Q 2575 -91 1722 -91 
Q 1428 -91 1123 -41 
Q 819 9 494 109 
L 494 744 
Q 775 591 1075 516 
Q 1375 441 1709 441 
Q 2250 441 2565 725 
Q 2881 1009 2881 1497 
Q 2881 1984 2565 2268 
Q 2250 2553 1709 2553 
Q 1456 2553 1204 2497 
Q 953 2441 691 2322 
L 691 4666 
z
" transform="scale(0.015625)"/>
       </defs>
       <use xlink:href="#DejaVuSans-32"/>
       <use xlink:href="#DejaVuSans-30" x="63.623047"/>
       <use xlink:href="#DejaVuSans-32" x="127.246094"/>
       <use xlink:href="#DejaVuSans-33" x="190.869141"/>
       <use xlink:href="#DejaVuSans-2d" x="254.492188"/>
       <use xlink:href="#DejaVuSans-30" x="290.576172"/>
       <use xlink:href="#DejaVuSans-38" x="354.199219"/>
       <use xlink:href="#DejaVuSans-2d" x="417.822266"/>
       <use xlink:href="#DejaVuSans-31" x="453.90625"/>
       <use xlink:href="#DejaVuSans-35" x="517.529297"/>
      </g>
     </g>
    </g>
    <g id="xtick_2">
     <g id="line2d_2">
      <g>
       <use xlink:href="#mb306ce4a81" x="264.994921" y="288" style="stroke: #000000; stroke-width: 0.8"/>
      </g>
     </g>
     <g id="text_2">
      <!-- 2023-09-01 -->
      <g transform="translate(203.35158 337.765903) rotate(-30) scale(0.12 -0.12)">
       <defs>
        <path id="DejaVuSans-39" d="M 703 97 
L 703 672 
Q 941 559 1184 500 
Q 1428 441 1663 441 
Q 2288 441 2617 861 
Q 2947 1281 2994 2138 
Q 2813 1869 2534 1725 
Q 2256 1581 1919 1581 
Q 1219 1581 811 2004 
Q 403 2428 403 3163 
Q 403 3881 828 4315 
Q 1253 4750 1959 4750 
Q 2769 4750 3195 4129 
Q 3622 3509 3622 2328 
Q 3622 1225 3098 567 
Q 2575 -91 1691 -91 
Q 1453 -91 1209 -44 
Q 966 3 703 97 
z
M 1959 2075 
Q 2384 2075 2632 2365 
Q 2881 2656 2881 3163 
Q 2881 3666 2632 3958 
Q 2384 4250 1959 4250 
Q 1534 4250 1286 3958 
Q 1038 3666 1038 3163 
Q 1038 2656 1286 2365 
Q 1534 2075 1959 2075 
z
" transform="scale(0.015625)"/>
       </defs>
       <use xlink:href="#DejaVuSans-32"/>
       <use xlink:href="#DejaVuSans-30" x="63.623047"/>
       <use xlink:href="#DejaVuSans-32" x="127.246094"/>
       <use xlink:href="#DejaVuSans-33" x="190.869141"/>
       <use xlink:href="#DejaVuSans-2d" x="254.492188"/>
       <use xlink:href="#DejaVuSans-30" x="290.576172"/>
       <use xlink:href="#DejaVuSans-39" x="354.199219"/>
       <use xlink:href="#DejaVuSans-2d" x="417.822266"/>
       <use xlink:href="#DejaVuSans-30" x="453.90625"/>
       <use xlink:href="#DejaVuSans-31" x="517.529297"/>
      </g>
     </g>
    </g>
    <g id="xtick_3">
     <g id="line2d_3">
      <g>
       <use xlink:href="#mb306ce4a81" x="360.21483" y="288" style="stroke: #000000; stroke-width: 0.8"/>
      </g>
     </g>
     <g id="text_3">
      <!-- 2023-09-15 -->
      <g transform="translate(298.571488 337.765903) rotate(-30) scale(0.12 -0.12)">
       <use xlink:href="#DejaVuSans-32"/>
       <use xlink:href="#DejaVuSans-30" x="63.623047"/>
       <use xlink:href="#DejaVuSans-32" x="127.246094"/>
       <use xlink:href="#DejaVuSans-33" x="190.869141"/>
       <use xlink:href="#DejaVuSans-2d" x="254.492188"/>
       <use xlink:href="#DejaVuSans-30" x="290.576172"/>
       <use xlink:href="#DejaVuSans-39" x="354.199219"/>
       <use xlink:href="#DejaVuSans-2d" x="417.822266"/>
       <use xlink:href="#DejaVuSans-31" x="453.90625"/>
       <use xlink:href="#DejaVuSans-35" x="517.529297"/>
      </g>
     </g>
    </g>
    <g id="xtick_4">
     <g id="line2d_4">
      <g>
       <use xlink:href="#mb306ce4a81" x="469.037583" y="288" style="stroke: #000000; stroke-width: 0.8"/>
      </g>
     </g>
     <g id="text_4">
      <!-- 2023-10-01 -->
      <g transform="translate(407.394241 337.765903) rotate(-30) scale(0.12 -0.12)">
       <use xlink:href="#DejaVuSans-32"/>
       <use xlink:href="#DejaVuSans-30" x="63.623047"/>
       <use xlink:href="#DejaVuSans-32" x="127.246094"/>
       <use xlink:href="#DejaVuSans-33" x="190.869141"/>
       <use xlink:href="#DejaVuSans-2d" x="254.492188"/>
       <use xlink:href="#DejaVuSans-31" x="290.576172"/>
       <use xlink:href="#DejaVuSans-30" x="354.199219"/>
       <use xlink:href="#DejaVuSans-2d" x="417.822266"/>
       <use xlink:href="#DejaVuSans-30" x="453.90625"/>
       <use xlink:href="#DejaVuSans-31" x="517.529297"/>
      </g>
     </g>
    </g>
    <g id="xtick_5">
     <g id="line2d_5">
      <g>
       <use xlink:href="#mb306ce4a81" x="564.257491" y="288" style="stroke: #000000; stroke-width: 0.8"/>
      </g>
     </g>
     <g id="text_5">
      <!-- 2023-10-15 -->
      <g transform="translate(502.614149 337.765903) rotate(-30) scale(0.12 -0.12)">
       <use xlink:href="#DejaVuSans-32"/>
       <use xlink:href="#DejaVuSans-30" x="63.623047"/>
       <use xlink:href="#DejaVuSans-32" x="127.246094"/>
       <use xlink:href="#DejaVuSans-33" x="190.869141"/>
       <use xlink:href="#DejaVuSans-2d" x="254.492188"/>
       <use xlink:href="#DejaVuSans-31" x="290.576172"/>
       <use xlink:href="#DejaVuSans-30" x="354.199219"/>
       <use xlink:href="#DejaVuSans-2d" x="417.822266"/>
       <use xlink:href="#DejaVuSans-31" x="453.90625"/>
       <use xlink:href="#DejaVuSans-35" x="517.529297"/>
      </g>
     </g>
    </g>
   </g>
   <g id="matplotlib.axis_2">
    <g id="ytick_1">
     <g id="line2d_6">
      <defs>
       <path id="m1b2ce9619e" d="M 0 0 
L -3.5 0 
" style="stroke: #000000; stroke-width: 0.8"/>
      </defs>
      <g>
       <use xlink:href="#m1b2ce9619e" x="90" y="287.403059" style="stroke: #000000; stroke-width: 0.8"/>
      </g>
     </g>
     <g id="text_6">
      <!-- 0.0 -->
      <g transform="translate(63.91625 291.962121) scale(0.12 -0.12)">
       <defs>
        <path id="DejaVuSans-2e" d="M 684 794 
L 1344 794 
L 1344 0 
L 684 0 
L 684 794 
z
" transform="scale(0.015625)"/>
       </defs>
       <use xlink:href="#DejaVuSans-30"/>
       <use xlink:href="#DejaVuSans-2e" x="63.623047"/>
       <use xlink:href="#DejaVuSans-30" x="95.410156"/>
      </g>
     </g>
    </g>
    <g id="ytick_2">
     <g id="line2d_7">
      <g>
       <use xlink:href="#m1b2ce9619e" x="90" y="254.420903" style="stroke: #000000; stroke-width: 0.8"/>
      </g>
     </g>
     <g id="text_7">
      <!-- 0.5 -->
      <g transform="translate(63.91625 258.979965) scale(0.12 -0.12)">
       <use xlink:href="#DejaVuSans-30"/>
       <use xlink:href="#DejaVuSans-2e" x="63.623047"/>
       <use xlink:href="#DejaVuSans-35" x="95.410156"/>
      </g>
     </g>
    </g>
    <g id="ytick_3">
     <g id="line2d_8">
      <g>
       <use xlink:href="#m1b2ce9619e" x="90" y="221.438747" style="stroke: #000000; stroke-width: 0.8"/>
      </g>
     </g>
     <g id="text_8">
      <!-- 1.0 -->
      <g transform="translate(63.91625 225.997809) scale(0.12 -0.12)">
       <use xlink:href="#DejaVuSans-31"/>
       <use xlink:href="#DejaVuSans-2e" x="63.623047"/>
       <use xlink:href="#DejaVuSans-30" x="95.410156"/>
      </g>
     </g>
    </g>
    <g id="ytick_4">
     <g id="line2d_9">
      <g>
       <use xlink:href="#m1b2ce9619e" x="90" y="188.456591" style="stroke: #000000; stroke-width: 0.8"/>
      </g>
     </g>
     <g id="text_9">
      <!-- 1.5 -->
      <g transform="translate(63.91625 193.015653) scale(0.12 -0.12)">
       <use xlink:href="#DejaVuSans-31"/>
       <use xlink:href="#DejaVuSans-2e" x="63.623047"/>
       <use xlink:href="#DejaVuSans-35" x="95.410156"/>
      </g>
     </g>
    </g>
    <g id="ytick_5">
     <g id="line2d_10">
      <g>
       <use xlink:href="#m1b2ce9619e" x="90" y="155.474435" style="stroke: #000000; stroke-width: 0.8"/>
      </g>
     </g>
     <g id="text_10">
      <!-- 2.0 -->
      <g transform="translate(63.91625 160.033498) scale(0.12 -0.12)">
       <use xlink:href="#DejaVuSans-32"/>
       <use xlink:href="#DejaVuSans-2e" x="63.623047"/>
       <use xlink:href="#DejaVuSans-30" x="95.410156"/>
      </g>
     </g>
    </g>
    <g id="ytick_6">
     <g id="line2d_11">
      <g>
       <use xlink:href="#m1b2ce9619e" x="90" y="122.492279" style="stroke: #000000; stroke-width: 0.8"/>
      </g>
     </g>
     <g id="text_11">
      <!-- 2.5 -->
      <g transform="translate(63.91625 127.051342) scale(0.12 -0.12)">
       <use xlink:href="#DejaVuSans-32"/>
       <use xlink:href="#DejaVuSans-2e" x="63.623047"/>
       <use xlink:href="#DejaVuSans-35" x="95.410156"/>
      </g>
     </g>
    </g>
    <g id="ytick_7">
     <g id="line2d_12">
      <g>
       <use xlink:href="#m1b2ce9619e" x="90" y="89.510123" style="stroke: #000000; stroke-width: 0.8"/>
      </g>
     </g>
     <g id="text_12">
      <!-- 3.0 -->
      <g transform="translate(63.91625 94.069186) scale(0.12 -0.12)">
       <use xlink:href="#DejaVuSans-33"/>
       <use xlink:href="#DejaVuSans-2e" x="63.623047"/>
       <use xlink:href="#DejaVuSans-30" x="95.410156"/>
      </g>
     </g>
    </g>
    <g id="ytick_8">
     <g id="line2d_13">
      <g>
       <use xlink:href="#m1b2ce9619e" x="90" y="56.527967" style="stroke: #000000; stroke-width: 0.8"/>
      </g>
     </g>
     <g id="text_13">
      <!-- 3.5 -->
      <g transform="translate(63.91625 61.08703) scale(0.12 -0.12)">
       <use xlink:href="#DejaVuSans-33"/>
       <use xlink:href="#DejaVuSans-2e" x="63.623047"/>
       <use xlink:href="#DejaVuSans-35" x="95.410156"/>
      </g>
     </g>
    </g>
    <g id="text_14">
     <!-- Meters -->
     <g transform="translate(57.836562 182.6875) rotate(-90) scale(0.1 -0.1)">
      <defs>
       <path id="DejaVuSans-4d" d="M 628 4666 
L 1569 4666 
L 2759 1491 
L 3956 4666 
L 4897 4666 
L 4897 0 
L 4281 0 
L 4281 4097 
L 3078 897 
L 2444 897 
L 1241 4097 
L 1241 0 
L 628 0 
L 628 4666 
z
" transform="scale(0.015625)"/>
       <path id="DejaVuSans-65" d="M 3597 1894 
L 3597 1613 
L 953 1613 
Q 991 1019 1311 708 
Q 1631 397 2203 397 
Q 2534 397 2845 478 
Q 3156 559 3463 722 
L 3463 178 
Q 3153 47 2828 -22 
Q 2503 -91 2169 -91 
Q 1331 -91 842 396 
Q 353 884 353 1716 
Q 353 2575 817 3079 
Q 1281 3584 2069 3584 
Q 2775 3584 3186 3129 
Q 3597 2675 3597 1894 
z
M 3022 2063 
Q 3016 2534 2758 2815 
Q 2500 3097 2075 3097 
Q 1594 3097 1305 2825 
Q 1016 2553 972 2059 
L 3022 2063 
z
" transform="scale(0.015625)"/>
       <path id="DejaVuSans-74" d="M 1172 4494 
L 1172 3500 
L 2356 3500 
L 2356 3053 
L 1172 3053 
L 1172 1153 
Q 1172 725 1289 603 
Q 1406 481 1766 481 
L 2356 481 
L 2356 0 
L 1766 0 
Q 1100 0 847 248 
Q 594 497 594 1153 
L 594 3053 
L 172 3053 
L 172 3500 
L 594 3500 
L 594 4494 
L 1172 4494 
z
" transform="scale(0.015625)"/>
       <path id="DejaVuSans-72" d="M 2631 2963 
Q 2534 3019 2420 3045 
Q 2306 3072 2169 3072 
Q 1681 3072 1420 2755 
Q 1159 2438 1159 1844 
L 1159 0 
L 581 0 
L 581 3500 
L 1159 3500 
L 1159 2956 
Q 1341 3275 1631 3429 
Q 1922 3584 2338 3584 
Q 2397 3584 2469 3576 
Q 2541 3569 2628 3553 
L 2631 2963 
z
" transform="scale(0.015625)"/>
       <path id="DejaVuSans-73" d="M 2834 3397 
L 2834 2853 
Q 2591 2978 2328 3040 
Q 2066 3103 1784 3103 
Q 1356 3103 1142 2972 
Q 928 2841 928 2578 
Q 928 2378 1081 2264 
Q 1234 2150 1697 2047 
L 1894 2003 
Q 2506 1872 2764 1633 
Q 3022 1394 3022 966 
Q 3022 478 2636 193 
Q 2250 -91 1575 -91 
Q 1294 -91 989 -36 
Q 684 19 347 128 
L 347 722 
Q 666 556 975 473 
Q 1284 391 1588 391 
Q 1994 391 2212 530 
Q 2431 669 2431 922 
Q 2431 1156 2273 1281 
Q 2116 1406 1581 1522 
L 1381 1569 
Q 847 1681 609 1914 
Q 372 2147 372 2553 
Q 372 3047 722 3315 
Q 1072 3584 1716 3584 
Q 2034 3584 2315 3537 
Q 2597 3491 2834 3397 
z
" transform="scale(0.015625)"/>
      </defs>
      <use xlink:href="#DejaVuSans-4d"/>
      <use xlink:href="#DejaVuSans-65" x="86.279297"/>
      <use xlink:href="#DejaVuSans-74" x="147.802734"/>
      <use xlink:href="#DejaVuSans-65" x="187.011719"/>
      <use xlink:href="#DejaVuSans-72" x="248.535156"/>
      <use xlink:href="#DejaVuSans-73" x="289.648438"/>
     </g>
    </g>
   </g>
   <g id="line2d_14">
    <path d="M 115.363636 217.076725 
L 115.647029 217.008579 
L 116.213814 217.338316 
L 117.630777 218.690238 
L 118.764347 219.448634 
L 119.331133 221.317144 
L 119.614525 221.361109 
L 120.18131 221.075337 
L 121.031488 221.3721 
L 121.314881 221.427057 
L 121.598273 221.657873 
L 121.881666 221.471022 
L 122.165058 221.042363 
L 122.448451 221.064346 
L 122.731844 220.877495 
L 123.582021 221.855715 
L 123.865414 221.89968 
L 124.432199 222.350321 
L 124.715592 222.581136 
L 124.998984 181.869593 
L 125.282377 222.559154 
L 125.565769 222.471224 
L 125.849162 222.976821 
L 126.132555 224.460638 
L 126.415947 224.65848 
L 127.549518 224.757402 
L 127.83291 224.504603 
L 128.116303 224.405682 
L 128.399695 223.724225 
L 128.683088 223.999006 
L 128.96648 223.746208 
L 129.533266 223.658278 
L 129.816658 223.515392 
L 131.800406 223.625304 
L 132.083799 223.746208 
L 132.367191 223.735216 
L 132.650584 224.284778 
L 132.933977 225.208042 
L 133.217369 225.438858 
L 133.500762 225.856525 
L 133.784154 225.537779 
L 134.067547 224.812358 
L 134.35094 224.812358 
L 134.634332 225.175069 
L 134.917725 225.219034 
L 135.201117 225.427867 
L 135.48451 224.966235 
L 135.767902 224.790375 
L 136.051295 224.163875 
L 136.334688 224.174866 
L 136.901473 224.625507 
L 137.751651 224.702445 
L 138.601828 225.021191 
L 138.885221 224.867314 
L 139.168614 225.219034 
L 139.735399 226.647894 
L 140.018791 226.274192 
L 140.585576 226.592938 
L 140.868969 226.417078 
L 141.152362 226.691859 
L 141.719147 226.526991 
L 142.002539 225.856525 
L 143.13611 224.493612 
L 143.419502 224.383699 
L 143.702895 224.394691 
L 143.986287 224.57055 
L 144.553073 225.109121 
L 145.119858 225.18606 
L 145.970036 225.680665 
L 146.253428 225.955446 
L 146.536821 226.537982 
L 147.103606 226.944658 
L 147.386998 226.834745 
L 148.237176 226.977632 
L 148.520569 185.04606 
L 148.803961 226.120315 
L 149.370747 225.746613 
L 149.654139 225.328946 
L 150.220924 223.801164 
L 150.504317 223.724225 
L 151.071102 224.20784 
L 151.354495 224.449647 
L 151.92128 224.240813 
L 152.204672 223.570348 
L 152.488065 221.361109 
L 153.621635 217.239395 
L 153.905028 214.777358 
L 154.755206 202.599067 
L 155.605383 184.2437 
L 156.172169 171.856575 
L 157.022346 150.126899 
L 157.589132 140.817321 
L 158.155917 135.398641 
L 158.722702 131.518734 
L 159.289487 128.221362 
L 159.57288 114.2515 
L 159.856272 125.583465 
L 160.139665 124.616237 
L 160.70645 121.582655 
L 161.273235 120.087847 
L 161.556628 97.742661 
L 161.84002 119.472337 
L 162.123413 119.131609 
L 162.690198 120.549479 
L 162.973591 120.241724 
L 163.540376 121.835454 
L 164.107161 124.682184 
L 164.673946 129.584276 
L 167.224479 156.556773 
L 167.791265 160.832364 
L 168.35805 163.72306 
L 168.924835 165.789412 
L 169.49162 167.086378 
L 169.775013 167.152326 
L 170.058405 166.514834 
L 170.62519 163.920902 
L 171.191976 160.051986 
L 172.042153 151.094128 
L 172.892331 141.542742 
L 173.459116 137.904643 
L 174.309294 133.563104 
L 174.592687 132.595875 
L 175.159472 131.66162 
L 175.726257 131.331883 
L 176.576435 132.101269 
L 176.859827 132.661822 
L 177.426612 134.904035 
L 178.843575 142.949621 
L 179.977146 150.984215 
L 180.543931 155.952255 
L 183.094464 172.329199 
L 183.377857 172.889752 
L 183.661249 173.758059 
L 185.078212 179.89117 
L 186.211783 184.056849 
L 186.495175 184.969122 
L 186.778568 185.474719 
L 187.06196 187.398185 
L 187.628746 189.068853 
L 187.912138 154.688262 
L 188.195531 191.234127 
L 188.478923 191.70675 
L 189.329101 194.19077 
L 189.612494 194.344647 
L 189.895886 195.026104 
L 190.462671 195.52071 
L 191.029457 196.389018 
L 191.312849 196.542895 
L 191.596242 197.224352 
L 191.879634 198.213563 
L 192.729812 199.43359 
L 193.296597 200.235951 
L 194.996953 203.489357 
L 195.280345 203.983963 
L 195.563738 204.786323 
L 196.130523 205.456788 
L 196.413916 205.973377 
L 196.980701 206.35807 
L 197.830879 207.0725 
L 198.964449 208.523344 
L 200.381412 209.941213 
L 200.948197 211.084302 
L 201.23159 211.304127 
L 201.798375 212.49118 
L 202.081767 212.798935 
L 202.648553 213.865085 
L 202.931945 214.128875 
L 203.215338 214.656454 
L 203.49873 214.612489 
L 203.782123 213.810129 
L 204.065515 213.513366 
L 204.632301 213.656252 
L 205.199086 214.128875 
L 205.765871 214.623481 
L 206.049264 214.667445 
L 207.182834 215.480797 
L 207.466227 215.579718 
L 207.749619 215.942429 
L 208.033012 209.897248 
L 208.599797 179.319626 
L 209.166582 132.573893 
L 209.449975 125.594457 
L 210.01676 116.988318 
L 211.433723 89.894917 
L 212.850686 74.485202 
L 213.417471 69.473198 
L 213.700863 68.330109 
L 213.984256 68.209206 
L 214.267649 68.86868 
L 214.551041 70.308532 
L 215.684611 79.717031 
L 216.818182 89.65311 
L 217.384967 93.346166 
L 217.66836 94.818992 
L 217.951752 54.327273 
L 218.235145 89.070574 
L 219.652108 79.508198 
L 220.218893 76.342721 
L 220.502285 75.70523 
L 220.785678 75.573335 
L 221.352463 76.133888 
L 221.919248 76.364704 
L 222.202641 76.199835 
L 222.486034 75.507387 
L 223.052819 73.583921 
L 223.336211 70.033751 
L 223.619604 73.342114 
L 223.902996 74.067535 
L 224.469782 77.057152 
L 227.303707 95.753247 
L 229.854241 107.480897 
L 231.271204 114.416368 
L 232.121381 120.29668 
L 234.671915 141.751576 
L 235.522092 146.323931 
L 237.505841 155.952255 
L 237.789233 156.468843 
L 238.639411 159.359538 
L 239.206196 161.689681 
L 239.489589 162.56898 
L 240.056374 164.78921 
L 241.189944 168.515239 
L 241.473337 169.9441 
L 242.040122 171.18611 
L 242.323514 139.817118 
L 242.606907 172.889752 
L 243.173692 174.56042 
L 244.02387 177.550036 
L 244.307263 178.011668 
L 244.590655 177.506071 
L 245.15744 178.330414 
L 247.707974 183.804051 
L 247.991366 150.148881 
L 248.274759 185.57364 
L 248.841544 186.496904 
L 249.408329 187.837835 
L 249.691722 188.629204 
L 250.258507 189.365617 
L 250.541899 189.970135 
L 250.825292 190.091038 
L 251.108685 190.420776 
L 251.392077 191.377013 
L 251.67547 191.16818 
L 251.958862 191.267101 
L 252.525648 191.937566 
L 253.375825 192.94876 
L 253.659218 193.30048 
L 253.94261 186.222123 
L 254.226003 193.904998 
L 254.792788 194.9052 
L 255.076181 195.157999 
L 255.642966 196.202166 
L 255.926359 196.356044 
L 256.209751 196.839658 
L 256.776536 197.367238 
L 257.343321 197.971756 
L 257.626714 199.169801 
L 257.910107 199.235748 
L 258.193499 198.851055 
L 258.476892 199.092862 
L 258.760284 199.026915 
L 259.043677 199.488546 
L 259.32707 199.60945 
L 260.177247 200.521723 
L 261.310818 201.412013 
L 261.877603 203.115655 
L 262.160995 203.302506 
L 262.444388 203.115655 
L 263.577958 204.621454 
L 263.861351 205.006148 
L 264.144744 205.709587 
L 264.428136 206.786728 
L 264.711529 206.544921 
L 264.994921 205.11606 
L 265.278314 205.050113 
L 265.561706 205.160025 
L 266.978669 206.380052 
L 267.262062 206.511947 
L 267.828847 207.138448 
L 268.11224 207.33629 
L 268.679025 209.061914 
L 269.24581 208.457396 
L 269.529203 208.66623 
L 270.37938 209.765354 
L 270.662773 171.559812 
L 270.946166 210.523749 
L 271.229558 210.952407 
L 271.512951 210.776547 
L 271.796343 210.161038 
L 272.079736 210.007161 
L 272.646521 210.27095 
L 272.929914 210.644653 
L 273.213306 210.666635 
L 274.063484 211.633864 
L 274.346877 211.820715 
L 274.913662 211.930627 
L 275.197054 212.282347 
L 276.047232 212.601093 
L 276.330625 213.128672 
L 276.89741 213.557331 
L 277.180802 213.469401 
L 277.464195 213.799138 
L 277.747588 213.392462 
L 278.03098 213.348497 
L 278.314373 214.040945 
L 278.597765 213.667243 
L 279.164551 213.700217 
L 279.447943 213.755173 
L 279.731336 214.062927 
L 280.298121 214.282752 
L 281.148299 214.535551 
L 281.998476 215.260972 
L 282.281869 215.799543 
L 282.565262 215.700622 
L 282.848654 215.381876 
L 283.415439 216.074324 
L 284.265617 216.008376 
L 284.54901 216.700824 
L 285.115795 216.448026 
L 285.399187 216.008376 
L 285.68258 216.338114 
L 285.965973 216.074324 
L 286.249365 216.030359 
L 287.666328 216.634877 
L 287.949721 216.865693 
L 288.233113 216.898667 
L 288.516506 217.096509 
L 289.083291 218.481405 
L 289.650076 218.096712 
L 289.933469 218.019773 
L 290.500254 218.52537 
L 291.633824 219.162862 
L 291.917217 219.59152 
L 292.200609 218.668256 
L 292.484002 218.195633 
L 292.767395 218.118694 
L 293.617572 218.547352 
L 294.751143 219.646476 
L 295.034535 219.67945 
L 295.317928 219.899275 
L 295.60132 220.943442 
L 295.884713 221.130293 
L 296.451498 220.635687 
L 296.734891 220.48181 
L 297.018283 220.602714 
L 297.301676 220.031169 
L 297.868461 219.756388 
L 298.151854 220.283968 
L 298.435246 221.119302 
L 298.718639 221.163267 
L 299.002031 220.371898 
L 299.568817 219.998196 
L 300.135602 220.229012 
L 300.418994 220.382889 
L 300.98578 220.503793 
L 301.269172 220.613705 
L 301.835957 220.525775 
L 302.11935 220.668661 
L 302.402743 221.690846 
L 302.686135 221.954636 
L 302.969528 221.031372 
L 303.25292 180.440732 
L 303.536313 220.855512 
L 303.819705 220.503793 
L 304.386491 219.250792 
L 304.669883 179.407556 
L 304.953276 219.41566 
L 305.236668 219.195835 
L 305.520061 218.514379 
L 306.086846 215.700622 
L 306.370239 215.06313 
L 306.653631 214.744384 
L 306.937024 214.810332 
L 307.220416 214.667445 
L 308.637379 212.809926 
L 308.920772 212.139461 
L 309.204165 212.139461 
L 309.487557 212.809926 
L 309.77095 212.623075 
L 310.337735 212.886865 
L 310.621127 213.788146 
L 310.90452 214.17284 
L 311.187913 213.964006 
L 311.754698 214.623481 
L 312.03809 215.195025 
L 312.321483 214.293743 
L 312.604876 215.085113 
L 312.888268 215.041148 
L 313.171661 214.843305 
L 314.305231 212.8429 
L 314.872016 212.370277 
L 315.155409 212.084505 
L 315.722194 210.7106 
L 316.572372 208.567309 
L 316.855764 208.248563 
L 317.139157 208.105677 
L 317.705942 208.182615 
L 318.272727 208.468388 
L 318.55612 208.116668 
L 319.406298 207.962791 
L 320.539868 208.303519 
L 320.823261 208.655239 
L 321.106653 208.809116 
L 321.673438 209.248765 
L 321.956831 209.435616 
L 322.240223 209.435616 
L 322.523616 209.743371 
L 322.807009 210.369872 
L 323.090401 210.523749 
L 323.373794 210.128064 
L 323.940579 209.743371 
L 324.223972 209.776345 
L 324.790757 210.413837 
L 325.074149 210.556723 
L 325.357542 172.032435 
L 325.640934 210.963398 
L 325.924327 210.97439 
L 326.20772 210.831504 
L 326.491112 210.864477 
L 326.774505 211.029346 
L 327.34129 211.677829 
L 327.624683 211.556925 
L 327.908075 211.666838 
L 328.47486 212.271356 
L 329.325038 212.886865 
L 330.458608 214.43663 
L 331.308786 214.942226 
L 331.592179 214.612489 
L 331.875571 214.733393 
L 332.158964 214.997183 
L 332.442357 215.887473 
L 332.725749 216.118289 
L 333.009142 215.282955 
L 333.292534 215.052139 
L 334.709497 215.590709 
L 335.559675 216.195228 
L 335.843068 216.162254 
L 336.12646 216.491991 
L 336.693245 217.931843 
L 337.26003 217.580123 
L 337.543423 217.799948 
L 337.826816 218.580326 
L 338.110208 218.745195 
L 338.393601 218.34951 
L 339.243779 218.08572 
L 339.810564 217.72301 
L 343.211275 168.636143 
L 343.494667 197.059483 
L 344.344845 174.373569 
L 344.91163 163.580174 
L 345.478415 156.303974 
L 345.761808 138.838898 
L 346.045201 150.808356 
L 346.611986 146.466817 
L 347.178771 144.763175 
L 347.462164 143.993788 
L 348.028949 143.30134 
L 348.312341 143.191428 
L 348.879126 143.411253 
L 349.445912 144.180639 
L 349.729304 144.884079 
L 350.296089 147.082326 
L 350.579482 147.401072 
L 351.146267 148.829933 
L 351.42966 121.088049 
L 351.713052 150.566548 
L 352.279837 152.18226 
L 352.56323 153.24841 
L 353.130015 156.194062 
L 353.413408 156.644703 
L 353.6968 157.765809 
L 355.680549 168.647134 
L 356.530726 172.856778 
L 357.097511 176.879571 
L 358.231082 180.385776 
L 359.648045 185.518684 
L 359.931437 150.984215 
L 360.21483 185.540666 
L 363.332148 192.992725 
L 363.898933 196.037298 
L 364.182326 195.630622 
L 364.465719 195.817473 
L 365.032504 197.169395 
L 366.166074 200.005135 
L 366.449467 200.082073 
L 366.732859 199.851257 
L 367.016252 199.411608 
L 367.86643 200.466767 
L 368.716607 201.686794 
L 369.283393 202.302303 
L 369.850178 203.115655 
L 370.13357 203.434401 
L 370.416963 204.874253 
L 370.700356 205.643639 
L 371.267141 205.423815 
L 371.833926 206.27014 
L 372.400711 206.973579 
L 372.967496 206.841684 
L 373.250889 207.105474 
L 373.534281 207.083492 
L 373.817674 206.940606 
L 374.384459 207.314308 
L 374.951244 207.918826 
L 375.801422 209.017949 
L 376.368207 209.501564 
L 376.934992 209.776345 
L 378.068563 209.699406 
L 378.351955 209.38066 
L 378.635348 209.391651 
L 379.202133 210.259959 
L 379.485526 210.490775 
L 379.768918 210.27095 
L 380.619096 210.567714 
L 381.752666 211.216197 
L 382.036059 211.468995 
L 382.319451 211.392057 
L 382.886237 211.699811 
L 383.169629 211.644855 
L 383.453022 211.77675 
L 383.736414 211.622873 
L 384.019807 212.106487 
L 384.3032 213.051734 
L 384.586592 212.897856 
L 385.43677 210.754565 
L 385.720163 210.523749 
L 386.003555 209.919231 
L 386.286948 209.039932 
L 386.57034 232.64911 
L 386.853733 209.072906 
L 387.137125 209.688415 
L 387.420518 208.721186 
L 387.703911 208.5783 
L 387.987303 208.84209 
L 389.120874 209.237774 
L 389.404266 209.138853 
L 389.687659 208.732177 
L 389.971051 208.831098 
L 390.537836 208.545326 
L 391.104622 209.545529 
L 391.388014 209.710397 
L 391.671407 209.303722 
L 392.238192 209.798327 
L 392.521585 210.040135 
L 392.804977 209.688415 
L 393.08837 210.128064 
L 393.655155 209.787336 
L 394.22194 209.281739 
L 394.505333 209.391651 
L 394.788725 209.38066 
L 395.072118 209.754362 
L 395.922296 210.161038 
L 396.489081 210.611679 
L 396.772473 210.743574 
L 397.055866 211.150249 
L 397.339259 204.445595 
L 397.622651 211.51296 
L 398.189436 211.765759 
L 398.756221 212.996777 
L 399.039614 213.28255 
L 399.323007 213.10669 
L 399.889792 214.293743 
L 400.173184 214.370682 
L 400.73997 214.249778 
L 401.023362 213.766164 
L 401.306755 213.799138 
L 401.590147 213.678234 
L 401.87354 213.744182 
L 402.156932 213.942024 
L 402.440325 213.942024 
L 403.857288 214.656454 
L 404.140681 194.487533 
L 404.424073 215.23899 
L 404.707466 215.766569 
L 405.557643 216.327122 
L 406.124429 217.327325 
L 406.974606 217.931843 
L 407.257999 218.008782 
L 407.824784 217.008579 
L 408.108177 216.843711 
L 410.375317 217.701027 
L 410.942103 217.777966 
L 411.225495 217.931843 
L 411.508888 218.448431 
L 411.79228 218.360501 
L 412.075673 218.672652 
L 412.642458 219.580529 
L 413.492636 220.327933 
L 414.059421 221.218223 
L 414.626206 219.32773 
L 414.909599 219.217818 
L 415.476384 219.404669 
L 415.759777 219.41566 
L 416.326562 219.745397 
L 416.609954 220.020178 
L 417.176739 219.778371 
L 417.460132 219.910266 
L 417.743525 220.261985 
L 418.31031 221.822741 
L 418.593702 221.00939 
L 418.877095 220.800556 
L 419.160488 221.141284 
L 419.44388 221.295162 
L 419.727273 221.932653 
L 420.860843 223.240611 
L 421.144236 222.70204 
L 421.427628 221.558951 
L 421.994413 221.229214 
L 422.277806 221.383092 
L 422.844591 221.976618 
L 423.127984 221.888689 
L 423.411376 222.251399 
L 424.261554 221.89968 
L 424.544947 221.877697 
L 424.828339 222.163469 
L 425.111732 222.954839 
L 425.678517 222.372303 
L 425.96191 222.504198 
L 427.09548 223.823146 
L 427.378873 223.548365 
L 427.945658 222.647084 
L 429.079228 222.361312 
L 430.496191 222.746005 
L 430.779584 222.70204 
L 431.062976 222.218426 
L 431.629761 221.855715 
L 431.913154 181.440935 
L 432.196546 222.042566 
L 432.763332 222.185452 
L 433.046724 222.350321 
L 433.896902 222.251399 
L 434.180295 222.482215 
L 434.463687 222.108513 
L 435.030472 221.690846 
L 435.597257 221.932653 
L 436.164043 221.756794 
L 437.01422 221.833732 
L 437.581006 222.053557 
L 437.864398 221.679855 
L 438.147791 220.943442 
L 438.431183 220.525775 
L 438.714576 220.448836 
L 439.281361 219.932248 
L 439.564754 220.031169 
L 439.848146 219.932248 
L 440.131539 219.701432 
L 440.414931 219.756388 
L 440.698324 179.550442 
L 440.981717 219.580529 
L 442.39868 219.206827 
L 443.248857 218.635282 
L 443.53225 218.668256 
L 444.099035 218.382484 
L 444.66582 217.492194 
L 445.515998 215.601701 
L 445.799391 215.425841 
L 446.649568 215.491788 
L 447.499746 215.634674 
L 447.783139 215.535753 
L 448.916709 214.733393 
L 449.200102 214.667445 
L 449.483494 214.271761 
L 450.050279 213.117681 
L 450.617064 210.205003 
L 452.034027 200.576679 
L 452.31742 197.268317 
L 453.167598 181.100206 
L 454.017776 166.646729 
L 454.584561 160.161899 
L 455.151346 155.655491 
L 455.434738 153.973832 
L 455.718131 152.984621 
L 456.001524 152.402085 
L 456.284916 152.149287 
L 456.568309 152.138295 
L 457.418487 152.896691 
L 457.985272 153.841937 
L 458.552057 155.369719 
L 459.118842 157.381116 
L 461.10259 166.108158 
L 462.519553 171.043224 
L 464.219909 176.60479 
L 465.636872 180.748487 
L 465.920264 182.122391 
L 467.053834 184.727315 
L 467.337227 151.094128 
L 467.62062 186.947544 
L 467.904012 187.475124 
L 468.187405 188.816055 
L 468.470797 189.563459 
L 468.75419 188.892994 
L 469.037583 188.706142 
L 469.604368 189.640398 
L 470.454545 191.223136 
L 471.021331 192.124417 
L 472.154901 193.981937 
L 472.438294 194.498525 
L 472.721686 195.388815 
L 473.005079 195.663596 
L 474.138649 198.070677 
L 474.422042 198.763125 
L 474.705434 162.459067 
L 474.988827 199.774319 
L 475.272219 200.49974 
L 475.555612 199.741345 
L 475.839005 199.334669 
L 476.122397 199.499538 
L 477.53936 201.335074 
L 477.822753 201.433996 
L 478.956323 202.445189 
L 479.523108 204.203787 
L 480.089893 204.038919 
L 480.373286 166.701685 
L 480.656679 204.709384 
L 480.940071 204.984165 
L 482.073641 207.039527 
L 482.357034 206.138245 
L 482.640427 205.610666 
L 482.923819 205.632648 
L 483.490604 206.204193 
L 484.05739 207.083492 
L 484.624175 207.303316 
L 485.19096 207.24836 
L 485.757745 207.314308 
L 486.041138 207.852878 
L 486.32453 208.995967 
L 486.607923 208.270545 
L 486.891315 208.281537 
L 487.458101 208.787133 
L 488.308278 210.007161 
L 488.591671 210.699609 
L 488.875063 172.25226 
L 489.158456 210.139056 
L 489.441849 209.336695 
L 489.725241 209.369669 
L 490.292026 209.82031 
L 491.142204 210.215994 
L 491.708989 210.205003 
L 492.559167 210.743574 
L 492.84256 211.216197 
L 493.125952 172.790831 
L 493.409345 211.326109 
L 493.97613 211.589899 
L 494.259523 211.985584 
L 494.542915 212.062522 
L 494.826308 212.502172 
L 495.676486 213.040742 
L 495.959878 212.480189 
L 496.243271 212.238382 
L 496.810056 212.304329 
L 497.093448 212.480189 
L 497.660234 212.601093 
L 497.943626 212.689023 
L 498.227019 212.93083 
L 498.793804 213.128672 
L 499.360589 213.414444 
L 499.927374 213.634269 
L 500.210767 214.051936 
L 500.777552 214.326717 
L 501.060945 214.051936 
L 501.344337 214.17284 
L 501.62773 214.095901 
L 502.194515 213.612287 
L 503.044693 211.996575 
L 503.611478 211.556925 
L 503.89487 211.370074 
L 504.178263 210.985381 
L 504.745048 209.578503 
L 505.028441 208.347484 
L 505.595226 205.072095 
L 506.162011 203.599269 
L 506.728796 202.588075 
L 507.862367 194.707358 
L 508.712544 189.354626 
L 508.995937 188.057659 
L 509.27933 186.178158 
L 509.562722 150.434653 
L 509.846115 184.287665 
L 510.129507 183.540261 
L 510.4129 148.862907 
L 510.696293 182.166356 
L 511.263078 181.012276 
L 511.54647 180.770469 
L 511.829863 180.78146 
L 512.396648 181.22111 
L 512.680041 181.342013 
L 512.963433 181.737698 
L 513.530218 183.00169 
L 515.230574 186.167167 
L 515.513966 187.310255 
L 515.797359 187.44215 
L 516.080752 187.749905 
L 516.364144 187.848826 
L 526.566277 198.433388 
L 527.699848 200.433793 
L 528.266633 200.873442 
L 528.550025 201.521925 
L 529.116811 202.1814 
L 529.400203 202.676005 
L 529.683596 202.71997 
L 529.966988 202.016531 
L 530.250381 202.027522 
L 531.100559 202.829883 
L 532.517522 203.939998 
L 533.084307 204.269735 
L 533.651092 204.797314 
L 534.784662 206.116263 
L 535.351447 206.237166 
L 535.63484 206.303114 
L 535.918233 206.555912 
L 537.335196 206.775737 
L 539.602336 207.951799 
L 540.169121 208.40244 
L 540.452514 208.479379 
L 541.869477 209.743371 
L 542.152869 209.677424 
L 542.436262 209.765354 
L 543.853225 209.545529 
L 544.42001 209.699406 
L 544.703403 210.018152 
L 545.836973 210.314915 
L 546.120366 210.468793 
L 546.687151 210.512758 
L 547.253936 210.765556 
L 547.537329 208.028738 
L 547.820721 211.468995 
L 548.387506 211.589899 
L 548.670899 212.062522 
L 548.954292 212.183426 
L 549.237684 209.710397 
L 549.521077 212.743979 
L 549.804469 212.546137 
L 550.087862 212.062522 
L 550.654647 211.754768 
L 551.788217 212.106487 
L 552.355003 212.502172 
L 552.638395 212.831909 
L 553.488573 213.150655 
L 555.188928 213.590304 
L 556.039106 213.623278 
L 556.322499 213.722199 
L 556.605891 213.700217 
L 557.172676 213.425436 
L 557.456069 213.568322 
L 557.739462 213.425436 
L 558.022854 213.557331 
L 558.873032 213.557331 
L 560.289995 214.249778 
L 560.85678 214.227796 
L 561.423565 214.425638 
L 561.706958 174.780245 
L 561.99035 213.172637 
L 562.557136 211.875671 
L 562.840528 211.490978 
L 563.974099 211.578908 
L 564.257491 211.589899 
L 564.540884 211.732785 
L 565.391061 211.523952 
L 566.808024 209.941213 
L 567.091417 209.270748 
L 567.37481 208.237572 
L 567.658202 207.819905 
L 567.941595 207.984773 
L 568.50838 206.391044 
L 569.075165 205.819499 
L 569.64195 204.863262 
L 571.058913 203.401427 
L 571.342306 203.24755 
L 571.625698 203.313497 
L 571.909091 203.15962 
L 572.192483 203.258541 
L 572.475876 203.016734 
L 573.609446 203.07169 
L 574.176232 203.302506 
L 574.743017 203.643234 
L 575.309802 204.500551 
L 576.15998 204.588481 
L 576.443372 204.973174 
L 576.726765 204.9402 
L 577.010157 205.072095 
L 577.576943 204.720376 
L 578.143728 204.885244 
L 579.277298 205.20399 
L 580.127476 205.522736 
L 580.694261 205.643639 
L 581.544439 206.204193 
L 582.394617 206.874658 
L 582.678009 206.698798 
L 583.811579 206.555912 
L 584.378365 206.237166 
L 584.661757 206.489965 
L 585.511935 206.083289 
L 585.795328 206.116263 
L 586.07872 206.500956 
L 587.212291 206.698798 
L 587.779076 206.369061 
L 588.062468 206.885649 
L 588.345861 207.77594 
L 588.629253 207.622062 
L 588.912646 207.666027 
L 589.762824 208.325501 
L 590.046216 207.995764 
L 590.329609 208.127659 
L 590.896394 207.962791 
L 591.463179 208.149642 
L 591.746572 207.951799 
L 592.313357 208.083694 
L 592.59675 208.567309 
L 592.880142 208.435414 
L 593.163535 208.501361 
L 593.446927 208.446405 
L 593.73032 208.743168 
L 594.013713 208.84209 
L 594.297105 208.765151 
L 594.580498 209.061914 
L 594.86389 209.083897 
L 595.147283 209.281739 
L 595.997461 210.347889 
L 596.280853 210.051126 
L 596.564246 209.952205 
L 597.131031 209.600485 
L 599.114779 208.523344 
L 600.248349 208.710195 
L 600.815135 208.864072 
L 601.948705 208.973984 
L 602.798883 208.479379 
L 603.64906 207.24836 
L 604.499238 205.346876 
L 605.349416 201.785715 
L 606.199594 196.180184 
L 607.049771 189.684363 
L 608.183342 181.572829 
L 608.750127 177.978695 
L 610.450482 169.977074 
L 610.733875 169.416521 
L 611.584053 166.613755 
L 611.867445 166.174106 
L 612.717623 165.866351 
L 613.567801 166.822589 
L 614.134586 167.910721 
L 614.984764 169.878153 
L 615.268156 170.592583 
L 615.551549 172.197304 
L 616.401727 174.329604 
L 617.535297 178.495283 
L 617.81869 179.044845 
L 618.385475 179.451521 
L 621.502793 185.628596 
L 621.786186 182.144374 
L 622.069578 186.661772 
L 622.352971 187.8818 
L 622.636364 188.376405 
L 622.636364 188.376405 
" clip-path="url(#pec97552759)" style="fill: none; stroke: #1f77b4; stroke-width: 1.5; stroke-linecap: square"/>
   </g>
   <g id="line2d_15">
    <path d="M 115.363636 173.988568 
L 115.930422 174.16548 
L 116.213814 217.118491 
L 119.614525 217.308454 
L 120.18131 218.151393 
L 120.748095 219.359839 
L 121.314881 219.071228 
L 122.165058 217.277681 
L 122.731844 217.412221 
L 123.015236 220.877495 
L 124.715592 221.706218 
L 126.69934 222.686042 
L 128.683088 223.578583 
L 129.249873 224.215566 
L 129.533266 224.938993 
L 129.816658 223.658278 
L 134.067547 227.33877 
L 135.201117 228.140765 
L 136.334688 228.778823 
L 136.61808 224.174866 
L 138.885221 225.581586 
L 141.435754 226.909474 
L 143.13611 227.670439 
L 143.419502 224.493612 
L 146.536821 225.606492 
L 149.087354 226.493553 
L 149.654139 227.265125 
L 149.937532 227.439584 
L 150.220924 224.471629 
L 150.504317 225.10127 
L 150.787709 225.202721 
L 151.637887 225.736897 
L 151.92128 224.561207 
L 152.204672 224.100195 
L 152.488065 223.121998 
L 153.05485 219.767288 
L 153.905028 212.694953 
L 155.321991 200.408237 
L 156.455561 192.558495 
L 156.738954 190.890853 
L 157.022346 156.292983 
L 158.155917 152.417836 
L 159.856272 147.50964 
L 161.84002 142.390656 
L 163.256983 139.265537 
L 163.540376 138.715363 
L 163.823768 121.835454 
L 164.957339 120.153148 
L 165.807517 119.246931 
L 166.657694 118.647283 
L 167.507872 118.338676 
L 167.791265 118.325694 
L 168.074657 118.070343 
L 168.641442 116.028156 
L 169.49162 119.69628 
L 169.775013 119.613691 
L 170.058405 119.260415 
L 170.341798 118.677995 
L 170.62519 165.32778 
L 171.758761 160.711373 
L 172.608939 158.504835 
L 173.175724 157.564708 
L 173.742509 156.970996 
L 174.309294 156.657716 
L 174.876079 156.567373 
L 175.442864 156.652787 
L 176.293042 157.031356 
L 177.14322 157.6326 
L 177.426612 133.607069 
L 178.843575 135.120864 
L 180.543931 137.305209 
L 182.811072 140.647269 
L 183.944642 142.443899 
L 184.228035 175.087999 
L 190.746064 185.470303 
L 191.029457 195.938377 
L 194.430168 200.696296 
L 196.980701 203.898706 
L 197.547486 204.561771 
L 197.830879 206.819702 
L 200.381412 209.544865 
L 202.931945 211.924087 
L 204.348908 213.106336 
L 204.632301 213.612287 
L 205.765871 214.598614 
L 207.182834 216.395511 
L 207.749619 218.272112 
L 208.033012 218.569963 
L 208.316404 219.125263 
L 208.599797 219.33111 
L 208.883189 219.839882 
L 209.166582 211.748115 
L 209.449975 209.640753 
L 210.866938 204.848138 
L 211.433723 203.934008 
L 211.717115 204.440917 
L 212.000508 203.743656 
L 213.134078 198.922937 
L 214.267649 193.603308 
L 215.117826 190.742741 
L 215.684611 189.461549 
L 216.251397 188.605531 
L 216.534789 188.667202 
L 216.818182 188.861503 
L 217.384967 209.166594 
L 217.66836 209.334769 
L 217.951752 208.279853 
L 218.80193 207.349535 
L 220.218893 204.117408 
L 220.785678 203.198753 
L 221.352463 202.682973 
L 221.919248 202.565992 
L 222.486034 202.776038 
L 223.052819 203.270001 
L 223.902996 204.499 
L 224.753174 206.172119 
L 226.170137 209.597846 
L 232.688167 226.381059 
L 234.671915 230.55107 
L 236.655663 234.21688 
L 238.356018 237.02514 
L 238.639411 158.436274 
L 245.15744 160.555903 
L 245.440833 178.330414 
L 250.258507 180.091704 
L 250.825292 181.515069 
L 251.108685 180.920332 
L 251.392077 179.781437 
L 251.67547 179.192818 
L 251.958862 179.079801 
L 252.242255 191.267101 
L 256.776536 194.579751 
L 258.760284 195.742827 
L 259.043677 199.026915 
L 261.877603 202.749785 
L 265.278314 206.839702 
L 270.095988 212.241144 
L 279.731336 222.975357 
L 285.399187 229.679347 
L 287.382936 232.107786 
L 287.666328 216.39307 
L 292.767395 222.373887 
L 293.050787 218.118694 
L 298.151854 224.180776 
L 298.718639 225.11346 
L 302.11935 230.147834 
L 304.386491 233.254162 
L 307.787202 237.487454 
L 315.155409 246.190813 
L 323.940579 256.703503 
L 331.308786 265.872828 
L 338.960386 275.75276 
L 339.810564 276.872727 
L 343.211275 211.629467 
L 343.77806 209.411507 
L 346.328593 195.414118 
L 347.178771 192.578964 
L 348.028949 190.607211 
L 348.879126 189.204661 
L 349.729304 188.262714 
L 350.579482 187.673468 
L 350.862875 146.064537 
L 351.713052 145.712486 
L 352.846623 145.445576 
L 354.263586 145.366905 
L 355.680549 145.553416 
L 356.247334 145.697695 
L 356.530726 168.552609 
L 357.947689 169.072003 
L 359.648045 169.943401 
L 361.631793 171.211866 
L 363.048756 172.225019 
L 363.332148 190.908786 
L 369.850178 195.65455 
L 370.13357 202.251744 
L 373.534281 204.402515 
L 375.518029 205.481197 
L 376.368207 205.891082 
L 376.6516 206.033605 
L 376.934992 209.281739 
L 377.501778 208.890723 
L 378.351955 207.784012 
L 379.485526 206.245652 
L 380.052311 204.813689 
L 380.619096 204.110169 
L 381.185881 203.743014 
L 383.169629 201.906004 
L 383.453022 201.720181 
L 383.736414 211.669036 
L 385.153377 211.024018 
L 385.720163 210.907236 
L 386.286948 210.4761 
L 386.853733 210.054511 
L 387.703911 209.744527 
L 389.120874 209.547031 
L 390.254444 209.541884 
L 390.537836 208.780539 
L 391.954799 208.216349 
L 393.371762 207.894231 
L 394.788725 207.799105 
L 396.489081 207.943947 
L 397.055866 208.045429 
L 397.339259 210.574309 
L 401.87354 212.57769 
L 403.857288 213.488048 
L 404.140681 214.333312 
L 408.958354 216.33652 
L 411.225495 217.04097 
L 411.79228 217.167613 
L 412.075673 217.931843 
L 413.492636 218.07389 
L 415.476384 218.017758 
L 417.743525 217.784341 
L 418.026917 219.76738 
L 423.978162 218.894573 
L 426.528695 218.66964 
L 428.22905 218.728163 
L 430.212798 219.045548 
L 431.062976 219.247986 
L 431.346369 222.735014 
L 432.196546 222.761532 
L 433.046724 222.753174 
L 434.463687 223.092325 
L 435.030472 223.270232 
L 435.597257 223.089083 
L 437.01422 223.177824 
L 437.581006 222.989551 
L 437.864398 222.846913 
L 438.147791 222.009592 
L 438.431183 222.5505 
L 438.714576 222.564338 
L 438.997969 222.131069 
L 440.131539 217.019591 
L 440.981717 215.155092 
L 441.831894 214.067111 
L 442.965465 213.061161 
L 444.382428 212.105479 
L 445.799391 211.399868 
L 446.082783 211.28422 
L 446.366176 215.41485 
L 447.499746 215.419143 
L 447.783139 215.876482 
L 451.467242 215.573679 
L 451.750635 206.973579 
L 452.034027 207.163307 
L 452.31742 207.519309 
L 452.600813 207.615756 
L 453.167598 207.451549 
L 453.45099 207.464919 
L 454.867953 206.471942 
L 456.284916 206.084794 
L 458.552057 205.714712 
L 460.535805 205.583218 
L 462.23616 205.683095 
L 463.936516 206.027754 
L 465.070086 206.391387 
L 465.353479 177.824817 
L 467.337227 179.18941 
L 470.171153 181.437385 
L 471.871508 182.865151 
L 472.154901 192.926778 
L 478.67293 197.960958 
L 478.956323 201.82968 
L 483.773997 203.350962 
L 485.474352 203.823938 
L 485.757745 207.369264 
L 490.292026 208.445854 
L 492.275775 208.843301 
L 492.559167 210.27095 
L 497.376841 211.057908 
L 499.077197 211.28647 
L 499.360589 213.172637 
L 500.777552 213.257325 
L 501.344337 212.616203 
L 501.911122 212.339251 
L 502.477908 212.143257 
L 503.044693 212.502339 
L 503.328085 212.373309 
L 503.611478 211.905438 
L 503.89487 210.580405 
L 504.178263 211.686262 
L 504.461656 213.724771 
L 504.745048 213.438282 
L 505.311833 212.100058 
L 505.878619 210.48135 
L 506.162011 205.390841 
L 508.145759 203.44133 
L 509.846115 202.063465 
L 510.979685 201.376697 
L 512.680041 200.713454 
L 512.963433 181.056241 
L 513.813611 180.551899 
L 514.663789 180.311287 
L 515.230574 180.103508 
L 516.080752 179.923576 
L 516.364144 179.91986 
L 525.149314 183.181007 
L 527.98324 185.152776 
L 531.950736 188.221037 
L 533.084307 189.129955 
L 533.367699 204.071893 
L 536.201625 204.80883 
L 536.76841 205.106883 
L 537.335196 205.209318 
L 537.901981 204.78073 
L 538.468766 204.287749 
L 539.035551 204.075892 
L 539.885729 204.080556 
L 540.169121 207.896843 
L 543.28644 208.463865 
L 546.687151 209.06679 
L 546.970543 210.336898 
L 547.253936 210.396733 
L 547.537329 210.609462 
L 547.820721 210.6717 
L 548.387506 210.430377 
L 549.237684 210.384199 
L 550.371254 210.501765 
L 550.93804 210.801182 
L 552.355003 210.608866 
L 552.921788 210.635874 
L 553.488573 211.746791 
L 553.771965 213.172637 
L 554.338751 212.31031 
L 554.905536 211.999375 
L 555.755714 211.974295 
L 557.739462 212.149046 
L 558.022854 212.725516 
L 558.306247 212.869483 
L 558.873032 211.430434 
L 559.156425 211.729215 
L 559.439817 211.709918 
L 559.72321 210.674582 
L 560.289995 209.77635 
L 560.573388 213.898059 
L 561.140173 213.448149 
L 561.423565 213.128031 
L 561.99035 213.027965 
L 562.557136 212.52925 
L 562.840528 212.012233 
L 563.974099 209.241216 
L 564.540884 208.549236 
L 565.957847 207.362519 
L 567.091417 206.551881 
L 567.37481 210.205003 
L 568.50838 209.60421 
L 570.492128 208.7765 
L 571.058913 208.742129 
L 571.342306 208.614454 
L 571.909091 208.024015 
L 572.475876 207.407144 
L 573.042661 207.308724 
L 573.609446 207.337417 
L 573.892839 207.34448 
L 574.176232 203.148629 
L 575.026409 203.141433 
L 576.15998 203.483276 
L 578.143728 204.358205 
L 580.694261 205.667723 
L 580.977654 205.522736 
L 587.495683 209.1666 
L 587.779076 206.70979 
L 594.297105 210.546122 
L 594.580498 208.820107 
L 594.86389 208.944 
L 596.847638 210.718931 
L 597.414424 209.12931 
L 597.697816 208.621773 
L 597.981209 208.432772 
L 598.264601 208.683587 
L 598.547994 209.109095 
L 598.831386 209.146323 
L 599.681564 206.977517 
L 600.248349 206.454287 
L 600.815135 206.318268 
L 601.098527 206.297973 
L 601.38192 208.820107 
L 602.51549 208.068455 
L 603.932453 207.424262 
L 605.916201 206.806905 
L 607.899949 206.444337 
L 608.183342 186.134193 
L 613.001016 187.766619 
L 614.701371 188.331888 
L 614.984764 168.262441 
L 621.502793 171.302156 
L 621.786186 185.144982 
L 622.636364 185.435245 
L 622.636364 185.435245 
" clip-path="url(#pec97552759)" style="fill: none; stroke: #ff7f0e; stroke-width: 1.5; stroke-linecap: square"/>
   </g>
   <g id="patch_3">
    <path d="M 90 288 
L 90 43.2 
" style="fill: none; stroke: #000000; stroke-width: 0.8; stroke-linejoin: miter; stroke-linecap: square"/>
   </g>
   <g id="patch_4">
    <path d="M 648 288 
L 648 43.2 
" style="fill: none; stroke: #000000; stroke-width: 0.8; stroke-linejoin: miter; stroke-linecap: square"/>
   </g>
   <g id="patch_5">
    <path d="M 90 288 
L 648 288 
" style="fill: none; stroke: #000000; stroke-width: 0.8; stroke-linejoin: miter; stroke-linecap: square"/>
   </g>
   <g id="patch_6">
    <path d="M 90 43.2 
L 648 43.2 
" style="fill: none; stroke: #000000; stroke-width: 0.8; stroke-linejoin: miter; stroke-linecap: square"/>
   </g>
   <g id="text_15">
    <!-- DET009 -->
    <g transform="translate(345.471563 37.2) scale(0.12 -0.12)">
     <defs>
      <path id="DejaVuSans-44" d="M 1259 4147 
L 1259 519 
L 2022 519 
Q 2988 519 3436 956 
Q 3884 1394 3884 2338 
Q 3884 3275 3436 3711 
Q 2988 4147 2022 4147 
L 1259 4147 
z
M 628 4666 
L 1925 4666 
Q 3281 4666 3915 4102 
Q 4550 3538 4550 2338 
Q 4550 1131 3912 565 
Q 3275 0 1925 0 
L 628 0 
L 628 4666 
z
" transform="scale(0.015625)"/>
      <path id="DejaVuSans-45" d="M 628 4666 
L 3578 4666 
L 3578 4134 
L 1259 4134 
L 1259 2753 
L 3481 2753 
L 3481 2222 
L 1259 2222 
L 1259 531 
L 3634 531 
L 3634 0 
L 628 0 
L 628 4666 
z
" transform="scale(0.015625)"/>
      <path id="DejaVuSans-54" d="M -19 4666 
L 3928 4666 
L 3928 4134 
L 2272 4134 
L 2272 0 
L 1638 0 
L 1638 4134 
L -19 4134 
L -19 4666 
z
" transform="scale(0.015625)"/>
     </defs>
     <use xlink:href="#DejaVuSans-44"/>
     <use xlink:href="#DejaVuSans-45" x="77.001953"/>
     <use xlink:href="#DejaVuSans-54" x="140.185547"/>
     <use xlink:href="#DejaVuSans-30" x="201.269531"/>
     <use xlink:href="#DejaVuSans-30" x="264.892578"/>
     <use xlink:href="#DejaVuSans-39" x="328.515625"/>
    </g>
   </g>
   <g id="legend_1">
    <g id="patch_7">
     <path d="M 559.04375 80.55625 
L 641 80.55625 
Q 643 80.55625 643 78.55625 
L 643 50.2 
Q 643 48.2 641 48.2 
L 559.04375 48.2 
Q 557.04375 48.2 557.04375 50.2 
L 557.04375 78.55625 
Q 557.04375 80.55625 559.04375 80.55625 
z
" style="fill: #ffffff; opacity: 0.8; stroke: #cccccc; stroke-linejoin: miter"/>
    </g>
    <g id="line2d_16">
     <path d="M 561.04375 56.298437 
L 571.04375 56.298437 
L 581.04375 56.298437 
" style="fill: none; stroke: #1f77b4; stroke-width: 1.5; stroke-linecap: square"/>
    </g>
    <g id="text_16">
     <!-- measured -->
     <g transform="translate(589.04375 59.798437) scale(0.1 -0.1)">
      <defs>
       <path id="DejaVuSans-6d" d="M 3328 2828 
Q 3544 3216 3844 3400 
Q 4144 3584 4550 3584 
Q 5097 3584 5394 3201 
Q 5691 2819 5691 2113 
L 5691 0 
L 5113 0 
L 5113 2094 
Q 5113 2597 4934 2840 
Q 4756 3084 4391 3084 
Q 3944 3084 3684 2787 
Q 3425 2491 3425 1978 
L 3425 0 
L 2847 0 
L 2847 2094 
Q 2847 2600 2669 2842 
Q 2491 3084 2119 3084 
Q 1678 3084 1418 2786 
Q 1159 2488 1159 1978 
L 1159 0 
L 581 0 
L 581 3500 
L 1159 3500 
L 1159 2956 
Q 1356 3278 1631 3431 
Q 1906 3584 2284 3584 
Q 2666 3584 2933 3390 
Q 3200 3197 3328 2828 
z
" transform="scale(0.015625)"/>
       <path id="DejaVuSans-61" d="M 2194 1759 
Q 1497 1759 1228 1600 
Q 959 1441 959 1056 
Q 959 750 1161 570 
Q 1363 391 1709 391 
Q 2188 391 2477 730 
Q 2766 1069 2766 1631 
L 2766 1759 
L 2194 1759 
z
M 3341 1997 
L 3341 0 
L 2766 0 
L 2766 531 
Q 2569 213 2275 61 
Q 1981 -91 1556 -91 
Q 1019 -91 701 211 
Q 384 513 384 1019 
Q 384 1609 779 1909 
Q 1175 2209 1959 2209 
L 2766 2209 
L 2766 2266 
Q 2766 2663 2505 2880 
Q 2244 3097 1772 3097 
Q 1472 3097 1187 3025 
Q 903 2953 641 2809 
L 641 3341 
Q 956 3463 1253 3523 
Q 1550 3584 1831 3584 
Q 2591 3584 2966 3190 
Q 3341 2797 3341 1997 
z
" transform="scale(0.015625)"/>
       <path id="DejaVuSans-75" d="M 544 1381 
L 544 3500 
L 1119 3500 
L 1119 1403 
Q 1119 906 1312 657 
Q 1506 409 1894 409 
Q 2359 409 2629 706 
Q 2900 1003 2900 1516 
L 2900 3500 
L 3475 3500 
L 3475 0 
L 2900 0 
L 2900 538 
Q 2691 219 2414 64 
Q 2138 -91 1772 -91 
Q 1169 -91 856 284 
Q 544 659 544 1381 
z
M 1991 3584 
L 1991 3584 
z
" transform="scale(0.015625)"/>
       <path id="DejaVuSans-64" d="M 2906 2969 
L 2906 4863 
L 3481 4863 
L 3481 0 
L 2906 0 
L 2906 525 
Q 2725 213 2448 61 
Q 2172 -91 1784 -91 
Q 1150 -91 751 415 
Q 353 922 353 1747 
Q 353 2572 751 3078 
Q 1150 3584 1784 3584 
Q 2172 3584 2448 3432 
Q 2725 3281 2906 2969 
z
M 947 1747 
Q 947 1113 1208 752 
Q 1469 391 1925 391 
Q 2381 391 2643 752 
Q 2906 1113 2906 1747 
Q 2906 2381 2643 2742 
Q 2381 3103 1925 3103 
Q 1469 3103 1208 2742 
Q 947 2381 947 1747 
z
" transform="scale(0.015625)"/>
      </defs>
      <use xlink:href="#DejaVuSans-6d"/>
      <use xlink:href="#DejaVuSans-65" x="97.412109"/>
      <use xlink:href="#DejaVuSans-61" x="158.935547"/>
      <use xlink:href="#DejaVuSans-73" x="220.214844"/>
      <use xlink:href="#DejaVuSans-75" x="272.314453"/>
      <use xlink:href="#DejaVuSans-72" x="335.693359"/>
      <use xlink:href="#DejaVuSans-65" x="374.556641"/>
      <use xlink:href="#DejaVuSans-64" x="436.080078"/>
     </g>
    </g>
    <g id="line2d_17">
     <path d="M 561.04375 70.976562 
L 571.04375 70.976562 
L 581.04375 70.976562 
" style="fill: none; stroke: #ff7f0e; stroke-width: 1.5; stroke-linecap: square"/>
    </g>
    <g id="text_17">
     <!-- predicted -->
     <g transform="translate(589.04375 74.476562) scale(0.1 -0.1)">
      <defs>
       <path id="DejaVuSans-70" d="M 1159 525 
L 1159 -1331 
L 581 -1331 
L 581 3500 
L 1159 3500 
L 1159 2969 
Q 1341 3281 1617 3432 
Q 1894 3584 2278 3584 
Q 2916 3584 3314 3078 
Q 3713 2572 3713 1747 
Q 3713 922 3314 415 
Q 2916 -91 2278 -91 
Q 1894 -91 1617 61 
Q 1341 213 1159 525 
z
M 3116 1747 
Q 3116 2381 2855 2742 
Q 2594 3103 2138 3103 
Q 1681 3103 1420 2742 
Q 1159 2381 1159 1747 
Q 1159 1113 1420 752 
Q 1681 391 2138 391 
Q 2594 391 2855 752 
Q 3116 1113 3116 1747 
z
" transform="scale(0.015625)"/>
       <path id="DejaVuSans-69" d="M 603 3500 
L 1178 3500 
L 1178 0 
L 603 0 
L 603 3500 
z
M 603 4863 
L 1178 4863 
L 1178 4134 
L 603 4134 
L 603 4863 
z
" transform="scale(0.015625)"/>
       <path id="DejaVuSans-63" d="M 3122 3366 
L 3122 2828 
Q 2878 2963 2633 3030 
Q 2388 3097 2138 3097 
Q 1578 3097 1268 2742 
Q 959 2388 959 1747 
Q 959 1106 1268 751 
Q 1578 397 2138 397 
Q 2388 397 2633 464 
Q 2878 531 3122 666 
L 3122 134 
Q 2881 22 2623 -34 
Q 2366 -91 2075 -91 
Q 1284 -91 818 406 
Q 353 903 353 1747 
Q 353 2603 823 3093 
Q 1294 3584 2113 3584 
Q 2378 3584 2631 3529 
Q 2884 3475 3122 3366 
z
" transform="scale(0.015625)"/>
      </defs>
      <use xlink:href="#DejaVuSans-70"/>
      <use xlink:href="#DejaVuSans-72" x="63.476562"/>
      <use xlink:href="#DejaVuSans-65" x="102.339844"/>
      <use xlink:href="#DejaVuSans-64" x="163.863281"/>
      <use xlink:href="#DejaVuSans-69" x="227.339844"/>
      <use xlink:href="#DejaVuSans-63" x="255.123047"/>
      <use xlink:href="#DejaVuSans-74" x="310.103516"/>
      <use xlink:href="#DejaVuSans-65" x="349.3125"/>
      <use xlink:href="#DejaVuSans-64" x="410.835938"/>
     </g>
    </g>
   </g>
  </g>
 </g>
 <defs>
  <clipPath id="pec97552759">
   <rect x="90" y="43.2" width="558" height="244.8"/>
  </clipPath>
 </defs>
</svg>
