<?xml version="1.0" encoding="utf-8" standalone="no"?>
<!DOCTYPE svg PUBLIC "-//W3C//DTD SVG 1.1//EN"
  "http://www.w3.org/Graphics/SVG/1.1/DTD/svg11.dtd">
<svg xmlns:xlink="http://www.w3.org/1999/xlink" width="720pt" height="360pt" viewBox="0 0 720 360" xmlns="http://www.w3.org/2000/svg" version="1.1">
 <metadata>
  <rdf:RDF xmlns:dc="http://purl.org/dc/elements/1.1/" xmlns:cc="http://creativecommons.org/ns#" xmlns:rdf="http://www.w3.org/1999/02/22-rdf-syntax-ns#">
   <cc:Work>
    <dc:type rdf:resource="http://purl.org/dc/dcmitype/StillImage"/>
    <dc:date>2023-10-23T10:54:47.422512</dc:date>
    <dc:format>image/svg+xml</dc:format>
    <dc:creator>
     <cc:Agent>
      <dc:title>Matplotlib v3.7.1, https://matplotlib.org/</dc:title>
     </cc:Agent>
    </dc:creator>
   </cc:Work>
  </rdf:RDF>
 </metadata>
 <defs>
  <style type="text/css">*{stroke-linejoin: round; stroke-linecap: butt}</style>
 </defs>
 <g id="figure_1">
  <g id="patch_1">
   <path d="M 0 360 
L 720 360 
L 720 0 
L 0 0 
z
" style="fill: #ffffff"/>
  </g>
  <g id="axes_1">
   <g id="patch_2">
    <path d="M 90 288 
L 648 288 
L 648 43.2 
L 90 43.2 
z
" style="fill: #ffffff"/>
   </g>
   <g id="matplotlib.axis_1">
    <g id="xtick_1">
     <g id="line2d_1">
      <defs>
       <path id="m2fcf38aee6" d="M 0 0 
L 0 3.5 
" style="stroke: #000000; stroke-width: 0.8"/>
      </defs>
      <g>
       <use xlink:href="#m2fcf38aee6" x="149.408786" y="288" style="stroke: #000000; stroke-width: 0.8"/>
      </g>
     </g>
     <g id="text_1">
      <!-- 2023-08-15 -->
      <g transform="translate(87.765444 337.765903) rotate(-30) scale(0.12 -0.12)">
       <defs>
        <path id="DejaVuSans-32" d="M 1228 531 
L 3431 531 
L 3431 0 
L 469 0 
L 469 531 
Q 828 903 1448 1529 
Q 2069 2156 2228 2338 
Q 2531 2678 2651 2914 
Q 2772 3150 2772 3378 
Q 2772 3750 2511 3984 
Q 2250 4219 1831 4219 
Q 1534 4219 1204 4116 
Q 875 4013 500 3803 
L 500 4441 
Q 881 4594 1212 4672 
Q 1544 4750 1819 4750 
Q 2544 4750 2975 4387 
Q 3406 4025 3406 3419 
Q 3406 3131 3298 2873 
Q 3191 2616 2906 2266 
Q 2828 2175 2409 1742 
Q 1991 1309 1228 531 
z
" transform="scale(0.015625)"/>
        <path id="DejaVuSans-30" d="M 2034 4250 
Q 1547 4250 1301 3770 
Q 1056 3291 1056 2328 
Q 1056 1369 1301 889 
Q 1547 409 2034 409 
Q 2525 409 2770 889 
Q 3016 1369 3016 2328 
Q 3016 3291 2770 3770 
Q 2525 4250 2034 4250 
z
M 2034 4750 
Q 2819 4750 3233 4129 
Q 3647 3509 3647 2328 
Q 3647 1150 3233 529 
Q 2819 -91 2034 -91 
Q 1250 -91 836 529 
Q 422 1150 422 2328 
Q 422 3509 836 4129 
Q 1250 4750 2034 4750 
z
" transform="scale(0.015625)"/>
        <path id="DejaVuSans-33" d="M 2597 2516 
Q 3050 2419 3304 2112 
Q 3559 1806 3559 1356 
Q 3559 666 3084 287 
Q 2609 -91 1734 -91 
Q 1441 -91 1130 -33 
Q 819 25 488 141 
L 488 750 
Q 750 597 1062 519 
Q 1375 441 1716 441 
Q 2309 441 2620 675 
Q 2931 909 2931 1356 
Q 2931 1769 2642 2001 
Q 2353 2234 1838 2234 
L 1294 2234 
L 1294 2753 
L 1863 2753 
Q 2328 2753 2575 2939 
Q 2822 3125 2822 3475 
Q 2822 3834 2567 4026 
Q 2313 4219 1838 4219 
Q 1578 4219 1281 4162 
Q 984 4106 628 3988 
L 628 4550 
Q 988 4650 1302 4700 
Q 1616 4750 1894 4750 
Q 2613 4750 3031 4423 
Q 3450 4097 3450 3541 
Q 3450 3153 3228 2886 
Q 3006 2619 2597 2516 
z
" transform="scale(0.015625)"/>
        <path id="DejaVuSans-2d" d="M 313 2009 
L 1997 2009 
L 1997 1497 
L 313 1497 
L 313 2009 
z
" transform="scale(0.015625)"/>
        <path id="DejaVuSans-38" d="M 2034 2216 
Q 1584 2216 1326 1975 
Q 1069 1734 1069 1313 
Q 1069 891 1326 650 
Q 1584 409 2034 409 
Q 2484 409 2743 651 
Q 3003 894 3003 1313 
Q 3003 1734 2745 1975 
Q 2488 2216 2034 2216 
z
M 1403 2484 
Q 997 2584 770 2862 
Q 544 3141 544 3541 
Q 544 4100 942 4425 
Q 1341 4750 2034 4750 
Q 2731 4750 3128 4425 
Q 3525 4100 3525 3541 
Q 3525 3141 3298 2862 
Q 3072 2584 2669 2484 
Q 3125 2378 3379 2068 
Q 3634 1759 3634 1313 
Q 3634 634 3220 271 
Q 2806 -91 2034 -91 
Q 1263 -91 848 271 
Q 434 634 434 1313 
Q 434 1759 690 2068 
Q 947 2378 1403 2484 
z
M 1172 3481 
Q 1172 3119 1398 2916 
Q 1625 2713 2034 2713 
Q 2441 2713 2670 2916 
Q 2900 3119 2900 3481 
Q 2900 3844 2670 4047 
Q 2441 4250 2034 4250 
Q 1625 4250 1398 4047 
Q 1172 3844 1172 3481 
z
" transform="scale(0.015625)"/>
        <path id="DejaVuSans-31" d="M 794 531 
L 1825 531 
L 1825 4091 
L 703 3866 
L 703 4441 
L 1819 4666 
L 2450 4666 
L 2450 531 
L 3481 531 
L 3481 0 
L 794 0 
L 794 531 
z
" transform="scale(0.015625)"/>
        <path id="DejaVuSans-35" d="M 691 4666 
L 3169 4666 
L 3169 4134 
L 1269 4134 
L 1269 2991 
Q 1406 3038 1543 3061 
Q 1681 3084 1819 3084 
Q 2600 3084 3056 2656 
Q 3513 2228 3513 1497 
Q 3513 744 3044 326 
Q 2575 -91 1722 -91 
Q 1428 -91 1123 -41 
Q 819 9 494 109 
L 494 744 
Q 775 591 1075 516 
Q 1375 441 1709 441 
Q 2250 441 2565 725 
Q 2881 1009 2881 1497 
Q 2881 1984 2565 2268 
Q 2250 2553 1709 2553 
Q 1456 2553 1204 2497 
Q 953 2441 691 2322 
L 691 4666 
z
" transform="scale(0.015625)"/>
       </defs>
       <use xlink:href="#DejaVuSans-32"/>
       <use xlink:href="#DejaVuSans-30" x="63.623047"/>
       <use xlink:href="#DejaVuSans-32" x="127.246094"/>
       <use xlink:href="#DejaVuSans-33" x="190.869141"/>
       <use xlink:href="#DejaVuSans-2d" x="254.492188"/>
       <use xlink:href="#DejaVuSans-30" x="290.576172"/>
       <use xlink:href="#DejaVuSans-38" x="354.199219"/>
       <use xlink:href="#DejaVuSans-2d" x="417.822266"/>
       <use xlink:href="#DejaVuSans-31" x="453.90625"/>
       <use xlink:href="#DejaVuSans-35" x="517.529297"/>
      </g>
     </g>
    </g>
    <g id="xtick_2">
     <g id="line2d_2">
      <g>
       <use xlink:href="#m2fcf38aee6" x="265.162294" y="288" style="stroke: #000000; stroke-width: 0.8"/>
      </g>
     </g>
     <g id="text_2">
      <!-- 2023-09-01 -->
      <g transform="translate(203.518952 337.765903) rotate(-30) scale(0.12 -0.12)">
       <defs>
        <path id="DejaVuSans-39" d="M 703 97 
L 703 672 
Q 941 559 1184 500 
Q 1428 441 1663 441 
Q 2288 441 2617 861 
Q 2947 1281 2994 2138 
Q 2813 1869 2534 1725 
Q 2256 1581 1919 1581 
Q 1219 1581 811 2004 
Q 403 2428 403 3163 
Q 403 3881 828 4315 
Q 1253 4750 1959 4750 
Q 2769 4750 3195 4129 
Q 3622 3509 3622 2328 
Q 3622 1225 3098 567 
Q 2575 -91 1691 -91 
Q 1453 -91 1209 -44 
Q 966 3 703 97 
z
M 1959 2075 
Q 2384 2075 2632 2365 
Q 2881 2656 2881 3163 
Q 2881 3666 2632 3958 
Q 2384 4250 1959 4250 
Q 1534 4250 1286 3958 
Q 1038 3666 1038 3163 
Q 1038 2656 1286 2365 
Q 1534 2075 1959 2075 
z
" transform="scale(0.015625)"/>
       </defs>
       <use xlink:href="#DejaVuSans-32"/>
       <use xlink:href="#DejaVuSans-30" x="63.623047"/>
       <use xlink:href="#DejaVuSans-32" x="127.246094"/>
       <use xlink:href="#DejaVuSans-33" x="190.869141"/>
       <use xlink:href="#DejaVuSans-2d" x="254.492188"/>
       <use xlink:href="#DejaVuSans-30" x="290.576172"/>
       <use xlink:href="#DejaVuSans-39" x="354.199219"/>
       <use xlink:href="#DejaVuSans-2d" x="417.822266"/>
       <use xlink:href="#DejaVuSans-30" x="453.90625"/>
       <use xlink:href="#DejaVuSans-31" x="517.529297"/>
      </g>
     </g>
    </g>
    <g id="xtick_3">
     <g id="line2d_3">
      <g>
       <use xlink:href="#m2fcf38aee6" x="360.488713" y="288" style="stroke: #000000; stroke-width: 0.8"/>
      </g>
     </g>
     <g id="text_3">
      <!-- 2023-09-15 -->
      <g transform="translate(298.845371 337.765903) rotate(-30) scale(0.12 -0.12)">
       <use xlink:href="#DejaVuSans-32"/>
       <use xlink:href="#DejaVuSans-30" x="63.623047"/>
       <use xlink:href="#DejaVuSans-32" x="127.246094"/>
       <use xlink:href="#DejaVuSans-33" x="190.869141"/>
       <use xlink:href="#DejaVuSans-2d" x="254.492188"/>
       <use xlink:href="#DejaVuSans-30" x="290.576172"/>
       <use xlink:href="#DejaVuSans-39" x="354.199219"/>
       <use xlink:href="#DejaVuSans-2d" x="417.822266"/>
       <use xlink:href="#DejaVuSans-31" x="453.90625"/>
       <use xlink:href="#DejaVuSans-35" x="517.529297"/>
      </g>
     </g>
    </g>
    <g id="xtick_4">
     <g id="line2d_4">
      <g>
       <use xlink:href="#m2fcf38aee6" x="469.433191" y="288" style="stroke: #000000; stroke-width: 0.8"/>
      </g>
     </g>
     <g id="text_4">
      <!-- 2023-10-01 -->
      <g transform="translate(407.789849 337.765903) rotate(-30) scale(0.12 -0.12)">
       <use xlink:href="#DejaVuSans-32"/>
       <use xlink:href="#DejaVuSans-30" x="63.623047"/>
       <use xlink:href="#DejaVuSans-32" x="127.246094"/>
       <use xlink:href="#DejaVuSans-33" x="190.869141"/>
       <use xlink:href="#DejaVuSans-2d" x="254.492188"/>
       <use xlink:href="#DejaVuSans-31" x="290.576172"/>
       <use xlink:href="#DejaVuSans-30" x="354.199219"/>
       <use xlink:href="#DejaVuSans-2d" x="417.822266"/>
       <use xlink:href="#DejaVuSans-30" x="453.90625"/>
       <use xlink:href="#DejaVuSans-31" x="517.529297"/>
      </g>
     </g>
    </g>
    <g id="xtick_5">
     <g id="line2d_5">
      <g>
       <use xlink:href="#m2fcf38aee6" x="564.75961" y="288" style="stroke: #000000; stroke-width: 0.8"/>
      </g>
     </g>
     <g id="text_5">
      <!-- 2023-10-15 -->
      <g transform="translate(503.116268 337.765903) rotate(-30) scale(0.12 -0.12)">
       <use xlink:href="#DejaVuSans-32"/>
       <use xlink:href="#DejaVuSans-30" x="63.623047"/>
       <use xlink:href="#DejaVuSans-32" x="127.246094"/>
       <use xlink:href="#DejaVuSans-33" x="190.869141"/>
       <use xlink:href="#DejaVuSans-2d" x="254.492188"/>
       <use xlink:href="#DejaVuSans-31" x="290.576172"/>
       <use xlink:href="#DejaVuSans-30" x="354.199219"/>
       <use xlink:href="#DejaVuSans-2d" x="417.822266"/>
       <use xlink:href="#DejaVuSans-31" x="453.90625"/>
       <use xlink:href="#DejaVuSans-35" x="517.529297"/>
      </g>
     </g>
    </g>
   </g>
   <g id="matplotlib.axis_2">
    <g id="ytick_1">
     <g id="line2d_6">
      <defs>
       <path id="md202e82231" d="M 0 0 
L -3.5 0 
" style="stroke: #000000; stroke-width: 0.8"/>
      </defs>
      <g>
       <use xlink:href="#md202e82231" x="90" y="259.941206" style="stroke: #000000; stroke-width: 0.8"/>
      </g>
     </g>
     <g id="text_6">
      <!-- 0.0 -->
      <g transform="translate(63.91625 264.500269) scale(0.12 -0.12)">
       <defs>
        <path id="DejaVuSans-2e" d="M 684 794 
L 1344 794 
L 1344 0 
L 684 0 
L 684 794 
z
" transform="scale(0.015625)"/>
       </defs>
       <use xlink:href="#DejaVuSans-30"/>
       <use xlink:href="#DejaVuSans-2e" x="63.623047"/>
       <use xlink:href="#DejaVuSans-30" x="95.410156"/>
      </g>
     </g>
    </g>
    <g id="ytick_2">
     <g id="line2d_7">
      <g>
       <use xlink:href="#md202e82231" x="90" y="210.656533" style="stroke: #000000; stroke-width: 0.8"/>
      </g>
     </g>
     <g id="text_7">
      <!-- 0.5 -->
      <g transform="translate(63.91625 215.215596) scale(0.12 -0.12)">
       <use xlink:href="#DejaVuSans-30"/>
       <use xlink:href="#DejaVuSans-2e" x="63.623047"/>
       <use xlink:href="#DejaVuSans-35" x="95.410156"/>
      </g>
     </g>
    </g>
    <g id="ytick_3">
     <g id="line2d_8">
      <g>
       <use xlink:href="#md202e82231" x="90" y="161.37186" style="stroke: #000000; stroke-width: 0.8"/>
      </g>
     </g>
     <g id="text_8">
      <!-- 1.0 -->
      <g transform="translate(63.91625 165.930922) scale(0.12 -0.12)">
       <use xlink:href="#DejaVuSans-31"/>
       <use xlink:href="#DejaVuSans-2e" x="63.623047"/>
       <use xlink:href="#DejaVuSans-30" x="95.410156"/>
      </g>
     </g>
    </g>
    <g id="ytick_4">
     <g id="line2d_9">
      <g>
       <use xlink:href="#md202e82231" x="90" y="112.087187" style="stroke: #000000; stroke-width: 0.8"/>
      </g>
     </g>
     <g id="text_9">
      <!-- 1.5 -->
      <g transform="translate(63.91625 116.646249) scale(0.12 -0.12)">
       <use xlink:href="#DejaVuSans-31"/>
       <use xlink:href="#DejaVuSans-2e" x="63.623047"/>
       <use xlink:href="#DejaVuSans-35" x="95.410156"/>
      </g>
     </g>
    </g>
    <g id="ytick_5">
     <g id="line2d_10">
      <g>
       <use xlink:href="#md202e82231" x="90" y="62.802513" style="stroke: #000000; stroke-width: 0.8"/>
      </g>
     </g>
     <g id="text_10">
      <!-- 2.0 -->
      <g transform="translate(63.91625 67.361576) scale(0.12 -0.12)">
       <use xlink:href="#DejaVuSans-32"/>
       <use xlink:href="#DejaVuSans-2e" x="63.623047"/>
       <use xlink:href="#DejaVuSans-30" x="95.410156"/>
      </g>
     </g>
    </g>
    <g id="text_11">
     <!-- Meters -->
     <g transform="translate(57.836562 182.6875) rotate(-90) scale(0.1 -0.1)">
      <defs>
       <path id="DejaVuSans-4d" d="M 628 4666 
L 1569 4666 
L 2759 1491 
L 3956 4666 
L 4897 4666 
L 4897 0 
L 4281 0 
L 4281 4097 
L 3078 897 
L 2444 897 
L 1241 4097 
L 1241 0 
L 628 0 
L 628 4666 
z
" transform="scale(0.015625)"/>
       <path id="DejaVuSans-65" d="M 3597 1894 
L 3597 1613 
L 953 1613 
Q 991 1019 1311 708 
Q 1631 397 2203 397 
Q 2534 397 2845 478 
Q 3156 559 3463 722 
L 3463 178 
Q 3153 47 2828 -22 
Q 2503 -91 2169 -91 
Q 1331 -91 842 396 
Q 353 884 353 1716 
Q 353 2575 817 3079 
Q 1281 3584 2069 3584 
Q 2775 3584 3186 3129 
Q 3597 2675 3597 1894 
z
M 3022 2063 
Q 3016 2534 2758 2815 
Q 2500 3097 2075 3097 
Q 1594 3097 1305 2825 
Q 1016 2553 972 2059 
L 3022 2063 
z
" transform="scale(0.015625)"/>
       <path id="DejaVuSans-74" d="M 1172 4494 
L 1172 3500 
L 2356 3500 
L 2356 3053 
L 1172 3053 
L 1172 1153 
Q 1172 725 1289 603 
Q 1406 481 1766 481 
L 2356 481 
L 2356 0 
L 1766 0 
Q 1100 0 847 248 
Q 594 497 594 1153 
L 594 3053 
L 172 3053 
L 172 3500 
L 594 3500 
L 594 4494 
L 1172 4494 
z
" transform="scale(0.015625)"/>
       <path id="DejaVuSans-72" d="M 2631 2963 
Q 2534 3019 2420 3045 
Q 2306 3072 2169 3072 
Q 1681 3072 1420 2755 
Q 1159 2438 1159 1844 
L 1159 0 
L 581 0 
L 581 3500 
L 1159 3500 
L 1159 2956 
Q 1341 3275 1631 3429 
Q 1922 3584 2338 3584 
Q 2397 3584 2469 3576 
Q 2541 3569 2628 3553 
L 2631 2963 
z
" transform="scale(0.015625)"/>
       <path id="DejaVuSans-73" d="M 2834 3397 
L 2834 2853 
Q 2591 2978 2328 3040 
Q 2066 3103 1784 3103 
Q 1356 3103 1142 2972 
Q 928 2841 928 2578 
Q 928 2378 1081 2264 
Q 1234 2150 1697 2047 
L 1894 2003 
Q 2506 1872 2764 1633 
Q 3022 1394 3022 966 
Q 3022 478 2636 193 
Q 2250 -91 1575 -91 
Q 1294 -91 989 -36 
Q 684 19 347 128 
L 347 722 
Q 666 556 975 473 
Q 1284 391 1588 391 
Q 1994 391 2212 530 
Q 2431 669 2431 922 
Q 2431 1156 2273 1281 
Q 2116 1406 1581 1522 
L 1381 1569 
Q 847 1681 609 1914 
Q 372 2147 372 2553 
Q 372 3047 722 3315 
Q 1072 3584 1716 3584 
Q 2034 3584 2315 3537 
Q 2597 3491 2834 3397 
z
" transform="scale(0.015625)"/>
      </defs>
      <use xlink:href="#DejaVuSans-4d"/>
      <use xlink:href="#DejaVuSans-65" x="86.279297"/>
      <use xlink:href="#DejaVuSans-74" x="147.802734"/>
      <use xlink:href="#DejaVuSans-65" x="187.011719"/>
      <use xlink:href="#DejaVuSans-72" x="248.535156"/>
      <use xlink:href="#DejaVuSans-73" x="289.648438"/>
     </g>
    </g>
   </g>
   <g id="line2d_11">
    <path d="M 115.363636 262.09111 
L 115.647346 223.790299 
L 115.931056 165.879208 
L 116.214765 186.27784 
L 116.498475 186.162872 
L 116.782184 168.983348 
L 117.065894 169.377524 
L 117.349603 186.622744 
L 117.633313 222.886978 
L 117.917023 171.404248 
L 118.200732 205.789574 
L 118.484442 186.376384 
L 118.768151 242.546528 
L 119.051861 207.136344 
L 119.33557 242.086655 
L 119.61928 221.688024 
L 119.90299 274.376276 
L 120.186699 240.690614 
L 120.470409 258.773459 
L 120.754118 224.841436 
L 121.037828 223.741027 
L 121.321538 206.315143 
L 121.605247 222.147897 
L 121.888957 220.16059 
L 122.172666 244.418866 
L 122.456376 238.933244 
L 122.740085 220.374103 
L 123.023795 188.11733 
L 123.307505 204.607045 
L 123.591214 185.275975 
L 123.874924 208.69334 
L 124.158633 220.538343 
L 124.442343 200.845944 
L 124.726052 199.022878 
L 125.009762 202.636162 
L 125.577181 162.610829 
L 125.860891 188.133754 
L 126.1446 240.312861 
L 126.42831 255.817135 
L 126.71202 242.234472 
L 126.995729 241.577511 
L 127.279439 258.428554 
L 127.563148 224.562227 
L 127.846858 237.898531 
L 128.130567 200.681704 
L 128.414277 190.022516 
L 128.697987 206.413687 
L 128.981696 212.408454 
L 129.265406 207.809728 
L 129.549115 198.81922 
L 129.832825 205.378973 
L 130.116534 195.935163 
L 130.400244 222.624193 
L 130.683954 228.94744 
L 130.967663 203.950084 
L 131.251373 269.580463 
L 131.535082 171.824703 
L 131.818792 217.154995 
L 132.102502 179.642536 
L 132.386211 205.789574 
L 132.669921 217.926924 
L 132.95363 207.152768 
L 133.23734 223.67533 
L 133.521049 223.626058 
L 133.804759 239.212452 
L 134.088469 208.729473 
L 134.372178 257.853714 
L 134.655888 218.206132 
L 134.939597 238.506219 
L 135.223307 214.586278 
L 135.507016 242.020959 
L 135.790726 245.650668 
L 136.074436 238.818276 
L 136.358145 203.408091 
L 136.641855 253.534197 
L 136.925564 273.045931 
L 137.209274 273.357987 
L 137.492984 273.095203 
L 137.776693 273.226595 
L 138.060403 225.235612 
L 138.344112 272.980235 
L 138.627822 203.588755 
L 138.911531 168.638443 
L 139.195241 245.437155 
L 139.478951 243.334881 
L 139.76266 229.834337 
L 140.04637 274.113492 
L 140.330079 258.067226 
L 140.613789 226.812318 
L 140.897498 214.330064 
L 141.181208 275.952982 
L 141.464918 259.643932 
L 141.748627 256.309856 
L 142.032337 275.378142 
L 142.316046 248.179966 
L 142.599756 274.441972 
L 142.883466 273.752164 
L 143.167175 176.965421 
L 143.450885 162.035988 
L 143.734594 167.406642 
L 144.018304 240.263589 
L 144.302013 223.823147 
L 144.585723 219.930654 
L 144.869433 273.522227 
L 145.153142 257.755169 
L 145.436852 273.522227 
L 146.004271 244.862315 
L 146.28798 239.508085 
L 146.57169 252.860812 
L 146.8554 257.163905 
L 147.139109 244.172506 
L 147.422819 262.567407 
L 147.706528 226.138933 
L 147.990238 244.041114 
L 148.273948 241.905991 
L 148.557657 220.177014 
L 148.841367 238.933244 
L 149.125076 221.408816 
L 149.692495 229.456585 
L 149.976205 195.655954 
L 150.543624 231.148259 
L 150.827334 189.71046 
L 151.111043 224.003811 
L 151.394753 220.686159 
L 151.678462 243.712633 
L 151.962172 212.408454 
L 152.245882 264.370764 
L 152.813301 206.955679 
L 153.09701 198.940758 
L 153.38072 216.547306 
L 153.66443 195.902315 
L 153.948139 218.633157 
L 154.231849 210.815324 
L 154.515558 218.551037 
L 154.799268 221.605904 
L 155.082977 204.705589 
L 155.366687 237.553626 
L 155.650397 211.702221 
L 155.934106 199.679839 
L 156.217816 192.781751 
L 156.501525 202.439074 
L 156.785235 172.87584 
L 157.068944 228.569688 
L 157.352654 200.303952 
L 157.636364 245.584971 
L 157.920073 207.382704 
L 158.203783 215.216961 
L 158.487492 203.293123 
L 158.771202 231.88734 
L 159.054912 233.513318 
L 159.338621 191.254317 
L 159.622331 181.104274 
L 159.90604 178.06583 
L 160.18975 230.113546 
L 160.473459 208.795169 
L 160.757169 197.298356 
L 161.040879 253.501349 
L 161.324588 242.546528 
L 161.608298 259.430419 
L 161.892007 223.658906 
L 162.175717 221.031063 
L 162.459426 230.310634 
L 162.743136 251.776827 
L 163.310555 158.98112 
L 163.877974 203.096035 
L 164.161684 196.197947 
L 164.445394 159.621657 
L 164.729103 250.774961 
L 165.012813 251.760403 
L 165.296522 236.157585 
L 165.580232 183.50218 
L 165.863941 217.9105 
L 166.147651 218.797397 
L 166.431361 268.233693 
L 166.71507 252.877236 
L 166.99878 251.021322 
L 167.282489 252.614452 
L 167.566199 253.271412 
L 167.849908 254.749574 
L 168.133618 242.661496 
L 168.417328 239.738021 
L 168.701037 220.324831 
L 169.268456 198.464462 
L 169.552166 213.364331 
L 169.835876 206.347991 
L 170.119585 209.238618 
L 170.403295 195.72165 
L 170.687004 194.522697 
L 170.970714 234.104582 
L 171.254423 196.969876 
L 171.821843 218.206132 
L 172.105552 240.214317 
L 172.389262 213.147534 
L 172.672971 242.382288 
L 172.956681 245.338611 
L 173.24039 235.369232 
L 173.5241 200.008319 
L 173.80781 259.069091 
L 174.091519 232.002308 
L 174.658938 262.436015 
L 174.942648 251.908219 
L 175.226358 263.976588 
L 175.510067 265.293794 
L 175.793777 254.207581 
L 176.077486 267.051164 
L 176.361196 252.253123 
L 176.644905 267.428916 
L 176.928615 225.26846 
L 177.212325 221.983656 
L 177.496034 238.424099 
L 177.779744 164.696679 
L 178.063453 165.304368 
L 178.347163 162.052412 
L 178.630872 165.92848 
L 178.914582 192.321879 
L 179.198292 199.630567 
L 179.482001 166.027024 
L 179.765711 183.206548 
L 180.04942 168.211419 
L 180.33313 249.54316 
L 180.61684 213.870191 
L 180.900549 228.540125 
L 181.467968 271.025777 
L 181.751678 254.618182 
L 182.035387 254.010493 
L 182.319097 238.374827 
L 182.602807 241.265455 
L 182.886516 224.627924 
L 183.170226 272.076914 
L 183.453935 254.946662 
L 183.737645 187.558913 
L 184.305064 254.240429 
L 184.588774 237.849259 
L 184.872483 166.371929 
L 185.156193 177.458142 
L 185.439902 170.165877 
L 186.007322 208.105361 
L 186.291031 187.526065 
L 186.574741 196.848338 
L 186.85845 240.033653 
L 187.14216 204.557773 
L 187.425869 269.761127 
L 187.709579 238.489795 
L 187.993289 272.191882 
L 188.276998 272.356122 
L 188.560708 258.872003 
L 188.844417 257.83729 
L 189.128127 272.602482 
L 189.411836 257.426689 
L 189.695546 188.19945 
L 189.979256 163.941174 
L 190.262965 193.38944 
L 190.546675 198.82579 
L 191.114094 270.87796 
L 191.397804 246.225508 
L 191.681513 184.996766 
L 191.965223 271.682737 
L 192.248932 198.710822 
L 192.532642 252.72285 
L 192.816351 255.751439 
L 193.383771 226.467414 
L 193.66748 238.210587 
L 193.95119 238.900396 
L 194.234899 254.700302 
L 194.518609 254.158309 
L 194.802318 255.849983 
L 195.086028 240.969822 
L 195.369738 245.059403 
L 195.653447 244.205354 
L 195.937157 221.737296 
L 196.220866 236.141161 
L 196.504576 257.410265 
L 196.788286 197.462596 
L 197.355705 228.175512 
L 197.639414 221.901536 
L 197.923124 256.49052 
L 198.206833 194.325609 
L 198.490543 223.10049 
L 198.774253 205.904542 
L 199.057962 174.321154 
L 199.341672 172.399544 
L 199.625381 172.301 
L 199.909091 171.266286 
L 200.1928 220.604039 
L 200.47651 188.018786 
L 200.76022 173.877705 
L 201.043929 256.49052 
L 201.327639 240.247165 
L 201.611348 208.811593 
L 201.895058 241.150486 
L 202.178768 257.755169 
L 202.462477 259.430419 
L 202.746187 276.412855 
L 203.029896 225.810453 
L 203.313606 226.385294 
L 203.597315 258.707762 
L 203.881025 274.717896 
L 204.164735 225.498397 
L 205.015863 272.996659 
L 205.583282 272.881691 
L 205.866992 235.549896 
L 206.434411 272.930963 
L 206.718121 272.717451 
L 207.28554 235.632016 
L 207.56925 256.342704 
L 207.852959 254.963086 
L 208.136669 240.214317 
L 208.420378 171.693311 
L 208.704088 151.606736 
L 208.987797 141.670205 
L 209.271507 141.949413 
L 209.555217 153.607181 
L 210.122636 193.80004 
L 210.406345 205.740302 
L 210.690055 201.864233 
L 210.973764 207.399128 
L 211.257474 205.93739 
L 211.541184 203.293123 
L 211.824893 202.521194 
L 212.108603 195.409594 
L 212.392312 226.401718 
L 212.676022 218.780973 
L 212.959732 227.452855 
L 213.243441 218.48534 
L 213.527151 226.056813 
L 213.81086 227.518551 
L 214.09457 221.34312 
L 214.378279 219.125877 
L 214.661989 199.909775 
L 214.945699 219.83211 
L 215.229408 206.939255 
L 215.513118 212.096397 
L 215.796827 220.390527 
L 216.080537 247.391614 
L 216.647956 232.314364 
L 216.931666 234.662999 
L 217.215375 240.181469 
L 217.499085 216.957907 
L 218.066504 199.729111 
L 218.350214 84.793828 
L 218.633923 62.604978 
L 218.917633 54.327273 
L 219.201342 55.13205 
L 219.485052 61.553841 
L 219.768761 74.331728 
L 220.9036 170.931236 
L 221.471019 187.969514 
L 221.754728 189.776156 
L 222.322148 203.408091 
L 222.889567 214.018007 
L 223.173276 185.25955 
L 223.456986 205.116189 
L 223.740696 171.217014 
L 224.024405 217.631292 
L 224.308115 177.73735 
L 224.591824 222.969098 
L 224.875534 222.886978 
L 225.159243 223.790299 
L 225.442953 213.673103 
L 225.726663 226.94371 
L 226.010372 216.875787 
L 226.294082 212.014277 
L 226.577791 195.015418 
L 226.861501 169.689581 
L 227.14521 168.86838 
L 227.42892 194.98257 
L 227.71263 232.232244 
L 227.996339 234.186702 
L 228.280049 210.371875 
L 228.563758 247.818638 
L 228.847468 214.47788 
L 229.131178 249.658128 
L 229.414887 250.857082 
L 229.698597 228.323328 
L 230.266016 253.107172 
L 230.833435 227.978423 
L 231.400854 254.421094 
L 231.684564 255.028782 
L 231.968273 240.83843 
L 232.251983 241.692479 
L 232.535692 239.202598 
L 232.819402 241.791023 
L 233.103112 256.391976 
L 233.386821 255.981375 
L 233.95424 228.586112 
L 234.23795 256.769728 
L 234.805369 227.19007 
L 235.089079 244.02469 
L 235.372788 214.23152 
L 235.656498 215.693257 
L 235.940207 260.941429 
L 236.223917 246.800349 
L 236.507627 247.030285 
L 236.791336 263.060127 
L 237.075046 217.647716 
L 237.358755 250.052305 
L 237.642465 233.184837 
L 237.926174 167.833667 
L 238.209884 244.366309 
L 238.493594 247.78579 
L 238.777303 232.166548 
L 239.344722 170.133029 
L 239.628432 167.997907 
L 239.912142 183.075156 
L 240.195851 183.33794 
L 240.479561 201.913506 
L 240.76327 186.097175 
L 241.04698 202.849675 
L 241.330689 263.536424 
L 241.614399 216.268098 
L 241.898109 199.367783 
L 242.181818 248.590567 
L 242.465528 266.328507 
L 242.749237 267.740973 
L 243.032947 238.227011 
L 243.316656 268.46363 
L 243.600366 253.090748 
L 243.884076 229.840907 
L 244.167785 238.407675 
L 244.451495 269.416223 
L 244.735204 268.775686 
L 245.018914 251.21841 
L 245.302624 250.561449 
L 245.586333 267.412492 
L 245.870043 218.928789 
L 246.153752 218.649581 
L 246.437462 186.557048 
L 246.721171 186.310688 
L 247.004881 201.043033 
L 247.288591 203.408091 
L 247.5723 216.678698 
L 247.85601 209.682066 
L 248.139719 166.881073 
L 248.423429 200.386072 
L 248.707138 266.312083 
L 248.990848 219.454358 
L 249.274558 253.041476 
L 249.558267 250.436627 
L 249.841977 253.501349 
L 250.125686 254.831694 
L 250.693106 223.281154 
L 250.976815 221.17888 
L 251.260525 255.225871 
L 251.544234 243.039249 
L 251.827944 267.724549 
L 252.111653 249.740248 
L 252.395363 264.127689 
L 252.679073 249.493888 
L 252.962782 245.223643 
L 253.246492 213.771647 
L 253.530201 211.965005 
L 253.813911 227.222918 
L 254.097621 194.489849 
L 254.38133 252.499483 
L 254.66504 251.514042 
L 254.948749 225.514821 
L 255.232459 234.728695 
L 255.516168 221.408816 
L 255.799878 267.642429 
L 256.083588 222.903402 
L 256.367297 237.602898 
L 256.651007 219.881382 
L 256.934716 268.742838 
L 257.218426 237.32369 
L 257.502135 254.765998 
L 257.785845 224.890708 
L 258.069555 210.240483 
L 258.353264 223.790299 
L 258.636974 189.907548 
L 258.920683 174.189762 
L 259.204393 188.69217 
L 259.488103 254.963086 
L 259.771812 176.4727 
L 260.055522 208.729473 
L 260.339231 206.775015 
L 260.622941 206.791439 
L 261.19036 173.355422 
L 261.47407 175.89786 
L 261.757779 174.863147 
L 262.041489 206.167326 
L 262.325198 204.541349 
L 262.608908 225.449124 
L 262.892617 271.732009 
L 263.176327 238.571915 
L 263.460037 257.295297 
L 263.743746 241.659631 
L 264.027456 258.067226 
L 264.311165 206.906407 
L 264.594875 275.476686 
L 264.878585 175.700772 
L 265.162294 239.935109 
L 265.446004 241.068366 
L 265.729713 225.202764 
L 266.013423 240.165045 
L 266.297132 212.145669 
L 266.580842 255.127326 
L 267.148261 207.497672 
L 267.431971 219.848534 
L 267.71568 200.91164 
L 267.99939 169.476068 
L 268.283099 190.482388 
L 268.566809 270.730144 
L 268.850519 236.091889 
L 269.134228 254.880966 
L 269.417938 238.719732 
L 269.701647 239.540933 
L 270.269067 273.932828 
L 270.552776 257.705897 
L 270.836486 257.048937 
L 271.120195 244.43529 
L 271.403905 203.654452 
L 271.687614 224.956404 
L 272.255034 182.730252 
L 272.538743 203.746426 
L 272.822453 200.156136 
L 273.389872 169.574613 
L 273.673581 168.78626 
L 273.957291 221.474512 
L 274.241001 186.507776 
L 274.52471 203.621603 
L 274.80842 168.047179 
L 275.092129 204.656317 
L 275.375839 186.836256 
L 275.943258 271.403529 
L 276.226968 271.469225 
L 276.794387 241.08479 
L 277.078096 257.246025 
L 277.929225 208.302449 
L 278.212935 218.330955 
L 278.496644 221.195304 
L 278.780354 227.403583 
L 279.064063 229.555129 
L 279.347773 238.801852 
L 279.915192 272.602482 
L 280.198902 239.475236 
L 280.482611 173.286441 
L 281.050031 205.904542 
L 281.33374 272.438242 
L 281.61745 180.775793 
L 281.901159 181.843355 
L 282.184869 219.963502 
L 282.468578 207.070647 
L 283.319707 257.278873 
L 283.603417 242.1852 
L 283.887126 254.811985 
L 284.170836 258.49425 
L 284.454545 256.605488 
L 284.738255 227.206494 
L 285.021965 226.336021 
L 285.305674 223.01837 
L 285.589384 169.935941 
L 285.873093 190.646629 
L 286.156803 175.043811 
L 286.440513 221.211728 
L 286.724222 190.20318 
L 287.007932 194.867601 
L 287.291641 212.917598 
L 287.575351 182.483891 
L 287.85906 242.743616 
L 288.42648 165.583576 
L 288.710189 272.30685 
L 288.993899 259.331875 
L 289.277608 168.901228 
L 289.561318 217.463767 
L 290.128737 272.815995 
L 290.412447 273.604348 
L 290.696156 224.644348 
L 290.979866 258.280738 
L 291.263575 258.872003 
L 291.547285 225.416276 
L 291.830995 213.722375 
L 292.398414 273.867132 
L 292.682123 242.26732 
L 292.965833 196.969876 
L 293.249542 181.367058 
L 293.533252 181.74481 
L 293.816962 242.776464 
L 294.100671 200.271104 
L 294.384381 198.333069 
L 294.66809 193.865736 
L 294.9518 244.090386 
L 295.235509 273.259443 
L 295.519219 211.275196 
L 295.802929 223.626058 
L 296.086638 254.601758 
L 296.370348 187.920242 
L 296.654057 203.654452 
L 296.937767 258.00153 
L 297.221477 220.587615 
L 297.505186 246.751077 
L 297.788896 241.462543 
L 298.072605 225.564093 
L 298.356315 182.664556 
L 298.640024 260.662221 
L 298.923734 193.422288 
L 299.207444 167.143858 
L 299.491153 163.300637 
L 299.774863 163.284213 
L 300.058572 163.448454 
L 300.342282 161.543267 
L 300.625991 161.592539 
L 300.909701 165.51788 
L 301.193411 163.83606 
L 301.47712 164.516015 
L 302.044539 172.530936 
L 302.328249 168.474203 
L 302.611959 168.70414 
L 302.895668 223.59321 
L 303.463087 212.589118 
L 303.746797 189.809004 
L 304.030506 236.99521 
L 304.314216 227.485703 
L 304.597926 222.607769 
L 304.881635 219.815686 
L 305.165345 214.904904 
L 305.449054 193.028111 
L 305.732764 207.28416 
L 306.016473 189.743308 
L 306.300183 205.77315 
L 306.583893 240.887702 
L 306.867602 216.596578 
L 307.151312 177.49099 
L 307.435021 186.68844 
L 308.002441 269.810399 
L 308.28615 270.368816 
L 308.56986 197.626837 
L 308.853569 208.860865 
L 309.137279 209.747762 
L 309.420988 225.974693 
L 309.704698 221.852264 
L 309.988408 182.040443 
L 310.272117 195.968011 
L 310.555827 237.619322 
L 310.839536 241.758175 
L 311.123246 197.659685 
L 311.406955 222.098625 
L 311.690665 229.785065 
L 311.974375 205.888118 
L 312.258084 205.85527 
L 312.541794 232.008878 
L 312.825503 241.725327 
L 313.109213 228.733928 
L 313.392923 203.473787 
L 313.676632 213.459591 
L 313.960342 248.787655 
L 314.244051 223.757451 
L 314.527761 179.98744 
L 314.81147 233.80895 
L 315.37889 199.712687 
L 315.662599 203.654452 
L 315.946309 172.695176 
L 316.513728 207.119919 
L 316.797437 235.911224 
L 317.081147 225.137068 
L 317.364857 177.720926 
L 317.648566 240.772734 
L 317.932276 239.113908 
L 318.499695 188.790715 
L 318.783405 188.166602 
L 319.067114 220.981791 
L 319.350824 204.294988 
L 319.634533 235.960496 
L 319.918243 192.798175 
L 320.201952 223.823147 
L 320.485662 228.438296 
L 320.769372 238.588339 
L 321.053081 270.598752 
L 321.336791 227.124374 
L 321.6205 270.54948 
L 321.90421 240.559222 
L 322.187919 236.174009 
L 322.471629 262.698799 
L 322.755339 205.362549 
L 323.039048 211.028836 
L 323.322758 242.168776 
L 323.606467 228.306904 
L 323.890177 271.387105 
L 324.173887 226.828742 
L 324.457596 221.490936 
L 324.741306 218.633157 
L 325.025015 238.604764 
L 325.308725 241.413271 
L 325.592434 240.082925 
L 325.876144 167.570882 
L 326.159854 171.331983 
L 326.443563 178.952727 
L 326.727273 199.548447 
L 327.010982 202.58689 
L 327.294692 256.802576 
L 327.578401 231.739524 
L 327.862111 258.724187 
L 328.145821 241.281879 
L 328.42953 190.925837 
L 329.280659 271.551345 
L 329.564369 255.488655 
L 329.848078 271.682737 
L 330.415497 239.705173 
L 330.699207 201.092305 
L 330.982916 239.294572 
L 331.266626 244.336746 
L 331.550336 204.459228 
L 332.117755 170.231573 
L 332.685174 226.960134 
L 332.968883 172.695176 
L 333.252593 184.093445 
L 333.536303 237.192298 
L 333.820012 255.324415 
L 334.103722 242.579376 
L 334.387431 237.865683 
L 334.671141 237.619322 
L 334.954851 222.082201 
L 335.23856 231.411043 
L 335.52227 224.164766 
L 335.805979 207.169192 
L 336.373398 238.966092 
L 336.657108 271.929098 
L 336.940818 237.060906 
L 337.224527 238.456947 
L 337.508237 228.61896 
L 337.791946 241.905991 
L 338.075656 223.231882 
L 338.359365 243.679785 
L 338.643075 247.309493 
L 339.210494 204.442804 
L 339.494204 236.650305 
L 339.777913 245.289339 
L 340.061623 198.99003 
L 343.749847 204.311412 
L 344.033557 227.10795 
L 344.317267 229.998578 
L 344.600976 219.536478 
L 344.884686 204.327836 
L 345.168395 214.247944 
L 345.452105 253.369956 
L 345.735815 243.236337 
L 346.303234 189.95682 
L 346.586943 231.066139 
L 346.870653 207.786735 
L 347.154362 171.742583 
L 348.005491 222.788433 
L 348.289201 233.184837 
L 348.57291 218.48534 
L 348.85662 234.991479 
L 349.140329 232.922053 
L 349.424039 195.294626 
L 349.707749 235.090023 
L 349.991458 203.572331 
L 350.275168 234.794391 
L 350.842587 203.211003 
L 351.126297 218.501765 
L 351.410006 224.792164 
L 351.693716 223.314002 
L 351.977425 252.515907 
L 352.261135 254.076189 
L 352.544844 211.905879 
L 353.112264 252.72942 
L 353.395973 238.489795 
L 353.679683 187.673881 
L 353.963392 186.327112 
L 354.247102 220.817551 
L 354.530811 205.740302 
L 354.814521 181.284938 
L 355.098231 254.010493 
L 355.38194 236.091889 
L 355.66565 206.939255 
L 355.949359 209.895579 
L 356.233069 255.094478 
L 356.800488 200.369648 
L 357.084198 247.637974 
L 357.367907 177.129661 
L 357.651617 194.686937 
L 357.935326 237.767139 
L 358.219036 191.605791 
L 358.502746 221.162456 
L 359.070165 228.799624 
L 359.353874 209.255042 
L 359.637584 243.022825 
L 359.921293 206.462959 
L 360.205003 224.989252 
L 360.488713 176.538397 
L 360.772422 177.57311 
L 361.056132 177.310325 
L 361.339841 209.468554 
L 361.623551 209.912003 
L 361.907261 240.42783 
L 362.19097 189.858276 
L 362.47468 190.597357 
L 362.758389 238.933244 
L 363.042099 194.227065 
L 363.325808 222.082201 
L 363.609518 270.762992 
L 364.176937 251.540321 
L 364.460647 190.712325 
L 364.744356 255.390111 
L 365.028066 240.493526 
L 365.311775 258.215042 
L 365.595485 225.958269 
L 365.879195 273.292291 
L 366.446614 194.686937 
L 366.730323 180.825065 
L 367.014033 183.649997 
L 367.297743 189.825428 
L 367.581452 206.725743 
L 367.865162 207.645488 
L 368.148871 220.127742 
L 368.432581 257.722321 
L 368.71629 244.073962 
L 369 224.792164 
L 369.28371 257.590929 
L 369.851129 251.993624 
L 370.134838 176.751909 
L 370.418548 220.374103 
L 370.702257 153.594042 
L 371.269677 224.085931 
L 371.553386 205.362549 
L 371.837096 256.589064 
L 372.120805 241.446119 
L 372.404515 240.345709 
L 372.971934 273.9821 
L 373.255644 257.196753 
L 373.539353 207.859 
L 373.823063 273.325139 
L 374.106772 243.663361 
L 374.390482 259.857444 
L 374.674192 214.215096 
L 375.241611 272.339698 
L 375.52532 255.225871 
L 375.80903 258.00153 
L 376.092739 258.461402 
L 376.376449 272.22473 
L 376.660159 235.878376 
L 376.943868 236.141161 
L 377.227578 217.99262 
L 377.511287 271.534921 
L 377.794997 231.838068 
L 378.078707 256.309856 
L 378.646126 194.933298 
L 378.929835 194.719785 
L 379.213545 259.069091 
L 379.497254 211.225924 
L 380.064674 241.643207 
L 380.348383 218.058316 
L 380.632093 225.941845 
L 380.915802 257.196753 
L 381.199512 272.431673 
L 381.483221 257.360993 
L 381.766931 272.618906 
L 382.050641 272.750299 
L 382.33435 258.691338 
L 382.61806 217.007179 
L 382.901769 201.650721 
L 383.185479 245.78206 
L 383.469189 193.422288 
L 383.752898 255.620047 
L 384.036608 258.280738 
L 384.320317 255.636471 
L 384.604027 206.577927 
L 385.171446 189.365555 
L 385.738865 255.406535 
L 386.022575 257.262449 
L 386.306284 221.573056 
L 386.589994 274.31058 
L 386.873703 239.774154 
L 387.441123 207.087071 
L 387.724832 238.456947 
L 388.008542 255.948527 
L 388.292251 255.964951 
L 388.575961 273.357987 
L 388.859671 273.522227 
L 389.14338 273.292291 
L 389.710799 203.802268 
L 389.994509 256.704032 
L 390.278218 205.85527 
L 390.845638 188.150178 
L 391.129347 259.84102 
L 391.413057 211.866461 
L 391.696766 223.543938 
L 392.264185 228.70108 
L 392.831605 275.246749 
L 393.115314 242.661496 
L 393.399024 238.719732 
L 393.682733 226.61523 
L 393.966443 190.942261 
L 394.250153 274.031372 
L 394.533862 257.246025 
L 394.817572 255.620047 
L 395.384991 220.291983 
L 395.6687 256.112768 
L 395.95241 272.668178 
L 396.23612 255.160174 
L 396.519829 272.750299 
L 396.803539 162.216652 
L 397.087248 160.459282 
L 397.370958 176.981845 
L 397.654667 157.782167 
L 397.938377 216.087434 
L 398.505796 191.251033 
L 398.789506 273.210171 
L 399.073215 225.761181 
L 399.356925 223.379698 
L 399.640635 240.394982 
L 399.924344 243.893298 
L 400.208054 259.348299 
L 400.491763 244.008266 
L 401.059182 164.269654 
L 401.342892 163.776934 
L 401.626602 164.433895 
L 401.910311 162.873613 
L 402.194021 169.492492 
L 402.47773 241.659631 
L 402.76144 242.234472 
L 403.328859 273.341563 
L 403.612569 273.374411 
L 403.896278 199.975471 
L 404.179988 166.910637 
L 404.463697 168.638443 
L 404.747407 168.70414 
L 405.031117 169.804549 
L 405.314826 240.542798 
L 405.598536 239.2453 
L 405.882245 224.315867 
L 406.165955 259.693204 
L 406.449664 224.825012 
L 406.733374 245.108675 
L 407.017084 241.495391 
L 407.584503 168.671292 
L 407.868212 164.138262 
L 408.151922 162.972157 
L 408.719341 200.25468 
L 409.003051 164.565287 
L 409.57047 164.630983 
L 409.854179 165.333931 
L 410.421599 202.767555 
L 410.705308 185.801543 
L 410.989018 201.240121 
L 411.272727 201.026609 
L 411.840146 165.074431 
L 412.123856 183.157276 
L 412.407566 183.042308 
L 412.691275 239.918685 
L 412.974985 223.888843 
L 413.258694 275.624502 
L 413.542404 276.084374 
L 413.826113 192.896719 
L 414.109823 226.894438 
L 414.393533 184.816102 
L 414.677242 223.954539 
L 414.960952 182.401771 
L 415.244661 199.07215 
L 415.528371 175.740189 
L 415.812081 256.112768 
L 416.3795 223.10049 
L 416.663209 258.017954 
L 416.946919 238.571915 
L 417.230628 238.654036 
L 417.514338 211.45586 
L 417.798048 196.73994 
L 418.081757 194.588393 
L 418.649176 222.049353 
L 418.932886 256.194888 
L 419.216595 273.65362 
L 419.500305 254.700302 
L 419.784015 244.451714 
L 420.351434 276.872727 
L 420.635143 243.926146 
L 421.202563 231.792081 
L 421.486272 218.731701 
L 421.769982 219.224421 
L 422.053691 204.229292 
L 422.337401 230.786931 
L 422.62111 240.887702 
L 422.90482 163.087125 
L 423.18853 199.548447 
L 423.472239 255.718591 
L 423.755949 247.687246 
L 424.039658 274.212036 
L 424.323368 262.041838 
L 424.607077 243.252761 
L 424.890787 196.510003 
L 425.174497 206.413687 
L 425.458206 206.972103 
L 425.741916 240.739886 
L 426.025625 238.029923 
L 426.309335 203.654452 
L 426.593045 258.00153 
L 426.876754 236.285692 
L 427.160464 243.844025 
L 427.444173 229.604401 
L 427.727883 258.346434 
L 428.011592 240.608494 
L 428.295302 204.984797 
L 428.579012 206.528655 
L 428.862721 187.263281 
L 429.146431 185.768695 
L 429.43014 185.604455 
L 429.71385 185.686575 
L 429.997559 183.912781 
L 430.281269 201.699993 
L 430.564979 205.461094 
L 430.848688 242.135928 
L 431.132398 195.442442 
L 431.416107 224.365139 
L 431.699817 205.181885 
L 431.983527 252.712996 
L 432.267236 271.518497 
L 432.550946 258.970547 
L 432.834655 234.354227 
L 433.118365 243.072097 
L 433.402074 196.937028 
L 433.685784 256.523368 
L 433.969494 224.118779 
L 434.253203 210.289755 
L 434.536913 221.901536 
L 435.104332 258.297162 
L 435.388041 254.618182 
L 435.671751 254.010493 
L 435.955461 240.723462 
L 436.23917 237.356538 
L 436.52288 272.717451 
L 436.806589 210.503267 
L 437.090299 188.905683 
L 437.374009 189.841852 
L 437.657718 175.109507 
L 438.225137 240.59207 
L 438.508847 250.653424 
L 438.792556 217.253539 
L 439.076266 271.699161 
L 439.359976 259.545387 
L 439.643685 214.47788 
L 439.927395 208.088937 
L 440.211104 192.863871 
L 440.494814 241.758175 
L 440.778523 205.970238 
L 441.062233 185.292399 
L 441.345943 238.637612 
L 441.629652 238.621188 
L 442.197071 208.663777 
L 442.480781 253.649165 
L 442.764491 257.295297 
L 443.0482 255.751439 
L 443.33191 224.102355 
L 443.615619 242.776464 
L 443.899329 211.225924 
L 444.183038 210.013832 
L 444.466748 190.071788 
L 444.750458 235.829104 
L 445.034167 225.252036 
L 445.317877 205.313277 
L 445.601586 204.048628 
L 445.885296 223.461818 
L 446.169005 209.846307 
L 446.452715 255.176598 
L 446.736425 257.311721 
L 447.020134 240.904126 
L 447.303844 257.853714 
L 447.587553 256.605488 
L 447.871263 272.766723 
L 448.154973 255.488655 
L 448.438682 202.307682 
L 448.722392 248.541295 
L 449.006101 272.47109 
L 449.289811 245.880604 
L 449.57352 238.194163 
L 449.85723 245.785345 
L 450.14094 237.290842 
L 450.424649 240.280013 
L 450.708359 203.145307 
L 450.992068 211.061684 
L 451.275778 235.714136 
L 451.559487 214.789936 
L 451.843197 215.118417 
L 452.126907 207.037799 
L 452.410616 248.672687 
L 452.694326 252.187427 
L 452.978035 221.129608 
L 453.261745 218.813821 
L 453.545455 220.489071 
L 453.829164 226.894438 
L 454.112874 202.488346 
L 454.396583 244.911587 
L 454.680293 216.56373 
L 454.964002 215.578289 
L 455.247712 168.014331 
L 455.531422 180.943318 
L 455.815131 232.544301 
L 456.098841 218.534613 
L 456.38255 218.222556 
L 456.66626 234.712271 
L 456.949969 218.616733 
L 457.233679 218.288252 
L 457.517389 220.981791 
L 457.801098 190.400268 
L 458.084808 237.553626 
L 458.368517 238.719732 
L 458.652227 236.124737 
L 458.935937 250.183697 
L 459.219646 234.170278 
L 459.503356 183.452908 
L 459.787065 253.682013 
L 460.070775 268.003757 
L 460.638194 269.268407 
L 460.921904 269.251983 
L 461.489323 145.661241 
L 461.773032 141.210332 
L 462.056742 182.84522 
L 462.340451 194.473425 
L 462.624161 175.750044 
L 462.907871 174.009098 
L 463.47529 239.688749 
L 463.758999 187.214009 
L 464.042709 185.538759 
L 464.326419 180.660825 
L 464.610128 255.357263 
L 464.893838 270.007487 
L 465.177547 225.547669 
L 465.461257 225.744757 
L 465.744966 196.066555 
L 466.028676 180.841489 
L 466.312386 210.240483 
L 466.596095 194.309185 
L 466.879805 226.467414 
L 467.163514 234.235975 
L 467.447224 238.161315 
L 467.730933 255.045206 
L 468.014643 240.148621 
L 468.298353 259.167635 
L 468.865772 178.624247 
L 469.149481 184.980342 
L 469.433191 176.538397 
L 469.716901 180.808641 
L 470.00061 196.887756 
L 470.28432 256.720456 
L 470.568029 219.240845 
L 470.851739 257.196753 
L 471.135448 271.304985 
L 471.419158 193.126655 
L 471.702868 196.641396 
L 471.986577 193.685072 
L 472.270287 176.324884 
L 472.553996 173.992674 
L 472.837706 188.275 
L 473.121415 182.582435 
L 473.405125 220.554767 
L 473.972544 254.536062 
L 474.256254 210.092667 
L 474.539963 189.743308 
L 474.823673 260.25162 
L 475.107383 225.810453 
L 475.391092 226.500262 
L 475.958511 177.704502 
L 476.242221 209.271466 
L 476.52593 271.912674 
L 476.80964 271.945522 
L 477.09335 187.936666 
L 477.377059 182.878068 
L 477.660769 196.526427 
L 477.944478 162.08526 
L 478.228188 235.81268 
L 478.511897 229.742363 
L 478.795607 221.063911 
L 479.079317 255.718591 
L 479.363026 239.787293 
L 479.646736 271.304985 
L 479.930445 270.894384 
L 480.214155 253.632741 
L 480.497865 206.627199 
L 481.065284 240.542798 
L 481.348993 238.095619 
L 481.632703 257.065361 
L 481.916412 257.755169 
L 482.200122 202.159866 
L 482.483832 222.969098 
L 482.767541 169.213284 
L 483.051251 195.426018 
L 483.33496 174.583938 
L 483.61867 210.88102 
L 483.902379 192.436847 
L 484.186089 186.560333 
L 484.469799 165.090855 
L 484.753508 184.274109 
L 485.037218 185.620879 
L 485.320927 238.818276 
L 485.604637 223.396122 
L 485.888347 190.679477 
L 486.172056 209.501402 
L 486.455766 207.234888 
L 486.739475 210.256907 
L 487.023185 221.441664 
L 487.590604 254.782422 
L 487.874314 258.559946 
L 488.158023 243.203489 
L 488.441733 192.913143 
L 488.725442 243.499121 
L 489.009152 231.7231 
L 489.292862 225.794029 
L 489.576571 262.863039 
L 489.860281 234.13743 
L 490.14399 223.01837 
L 490.4277 256.145616 
L 490.995119 170.067333 
L 491.278829 171.709735 
L 491.562538 186.162872 
L 491.846248 223.297578 
L 492.129957 169.27898 
L 492.413667 220.094894 
L 492.697376 237.882107 
L 492.981086 217.795532 
L 493.264796 255.964951 
L 493.548505 255.357263 
L 493.832215 235.040751 
L 494.115924 253.30426 
L 494.683344 206.627199 
L 494.967053 225.317732 
L 495.250763 274.277732 
L 495.534472 228.658378 
L 495.818182 237.701442 
L 496.101891 238.571915 
L 496.385601 189.513371 
L 496.669311 199.121422 
L 496.95302 196.362187 
L 497.23673 198.021013 
L 497.520439 161.806052 
L 497.804149 161.428299 
L 498.087858 161.871748 
L 498.371568 158.176344 
L 498.655278 176.127796 
L 499.222697 254.355398 
L 499.506406 216.925059 
L 499.790116 216.72797 
L 500.073826 207.596216 
L 500.357535 216.629426 
L 500.641245 206.955679 
L 500.924954 255.209446 
L 501.492373 187.545774 
L 502.059793 255.537927 
L 502.343502 241.413271 
L 502.627212 240.165045 
L 502.910921 240.50995 
L 503.194631 250.495753 
L 503.76205 200.796672 
L 504.04576 222.673465 
L 504.613179 204.01578 
L 504.896888 227.584247 
L 505.180598 235.533472 
L 505.464308 249.46104 
L 505.748017 214.050855 
L 506.031727 229.670097 
L 506.315436 202.17629 
L 506.599146 228.94744 
L 507.166565 258.734041 
L 507.450275 232.544301 
L 507.733984 226.073237 
L 508.017694 232.790661 
L 508.301403 235.500624 
L 508.585113 234.088158 
L 508.868822 265.52373 
L 509.436242 236.666729 
L 509.719951 249.937336 
L 510.003661 237.57005 
L 510.28737 235.254264 
L 510.57108 251.826099 
L 510.85479 208.056089 
L 511.138499 235.090023 
L 511.422209 221.031063 
L 511.705918 219.290117 
L 511.989628 266.065723 
L 512.273337 200.287528 
L 512.557047 197.31478 
L 512.840757 244.760486 
L 513.124466 237.126602 
L 513.408176 217.269963 
L 513.691885 231.7231 
L 513.975595 232.46218 
L 514.259304 236.371097 
L 514.543014 196.937028 
L 514.826724 189.332707 
L 515.394143 269.268407 
L 515.677852 254.141885 
L 515.961562 215.019873 
L 516.245272 201.158001 
L 525.607688 198.49731 
L 525.891397 166.289809 
L 526.175107 185.900087 
L 526.458816 179.954592 
L 526.742526 198.776518 
L 527.026236 159.408145 
L 527.309945 199.663415 
L 527.593655 180.430889 
L 527.877364 236.026193 
L 528.161074 216.202402 
L 528.444783 241.938839 
L 528.728493 240.099349 
L 529.012203 256.671184 
L 529.295912 225.120644 
L 529.579622 238.210587 
L 529.863331 231.673828 
L 530.43075 241.00267 
L 530.99817 166.059873 
L 531.281879 207.218464 
L 531.565589 198.316645 
L 531.849298 201.979202 
L 532.133008 187.181161 
L 532.416718 235.681288 
L 532.700427 200.435344 
L 532.984137 186.179296 
L 533.267846 185.965783 
L 533.551556 199.302087 
L 533.835265 199.532023 
L 534.118975 201.470057 
L 534.402685 237.126602 
L 534.686394 235.15572 
L 534.970104 216.48161 
L 535.253813 253.813405 
L 535.537523 229.663528 
L 535.821232 234.761543 
L 536.104942 217.74626 
L 536.388652 255.537927 
L 536.672361 254.782422 
L 536.956071 254.536062 
L 537.23978 271.633465 
L 537.52349 203.211003 
L 538.090909 235.270688 
L 538.658328 184.274109 
L 538.942038 271.879826 
L 539.225747 207.77688 
L 539.509457 256.063495 
L 539.793167 174.797451 
L 540.076876 199.482751 
L 540.360586 235.23784 
L 540.644295 221.967232 
L 540.928005 192.880295 
L 541.211714 250.771677 
L 541.495424 255.258719 
L 541.779134 220.505495 
L 542.062843 257.492385 
L 542.346553 220.604039 
L 542.630262 254.322549 
L 542.913972 254.995934 
L 543.197682 272.38897 
L 543.481391 253.599893 
L 543.765101 198.710822 
L 544.04881 217.729836 
L 544.33252 272.109762 
L 544.616229 271.89625 
L 544.899939 240.92055 
L 545.467358 228.093391 
L 545.751068 259.890292 
L 546.034777 253.534197 
L 546.318487 272.208306 
L 546.602196 272.38897 
L 546.885906 253.961221 
L 547.169616 249.786235 
L 547.453325 272.22473 
L 547.737035 271.97837 
L 548.020744 270.960081 
L 548.588164 272.323274 
L 549.155583 273.998524 
L 549.439292 274.458397 
L 549.723002 274.179188 
L 550.006711 254.634606 
L 550.290421 273.752164 
L 550.574131 273.045931 
L 550.85784 236.748849 
L 551.14155 236.781697 
L 551.425259 223.691754 
L 551.708969 185.965783 
L 551.992678 222.574921 
L 552.276388 219.74999 
L 552.560098 220.16059 
L 552.843807 207.431976 
L 553.127517 216.777243 
L 553.411226 217.401355 
L 553.978646 183.682845 
L 554.262355 272.421818 
L 554.829774 204.0979 
L 555.113484 236.042617 
L 555.397193 219.487206 
L 555.964613 258.116498 
L 556.248322 181.202818 
L 556.532032 239.097484 
L 556.815741 218.501765 
L 557.099451 240.624918 
L 557.66687 199.646991 
L 557.95058 197.971741 
L 558.234289 236.617457 
L 558.517999 253.471785 
L 558.801708 259.59466 
L 559.085418 255.537927 
L 559.369128 256.457672 
L 559.652837 206.430111 
L 559.936547 254.89739 
L 560.220256 253.402804 
L 560.503966 256.211312 
L 560.787675 271.846978 
L 561.071385 258.609218 
L 561.355095 271.009353 
L 561.638804 207.760456 
L 561.922514 270.38524 
L 562.206223 267.872365 
L 562.773642 249.674552 
L 563.057352 214.47788 
L 563.341062 234.416639 
L 563.624771 209.12365 
L 563.908481 237.208722 
L 564.19219 235.674719 
L 564.4759 242.497256 
L 564.75961 257.673049 
L 565.327029 230.934747 
L 565.610738 247.095981 
L 565.894448 249.165408 
L 566.178157 248.278511 
L 566.461867 250.019457 
L 566.745577 264.341201 
L 567.312996 240.67419 
L 567.596705 233.693982 
L 567.880415 252.712996 
L 568.447834 218.304676 
L 568.731544 239.688749 
L 569.015253 232.445756 
L 569.298963 233.64471 
L 569.582672 237.882107 
L 569.866382 246.179521 
L 570.150092 218.07474 
L 570.433801 253.895525 
L 570.717511 250.758537 
L 571.00122 251.284106 
L 571.28493 268.480054 
L 571.568639 197.544717 
L 571.852349 219.010909 
L 572.136059 214.116551 
L 572.419768 180.627977 
L 572.987187 249.937336 
L 573.270897 247.588702 
L 573.554606 210.71678 
L 573.838316 198.99003 
L 574.122026 199.269239 
L 574.405735 251.678282 
L 574.689445 269.186286 
L 574.973154 251.284106 
L 575.256864 269.317679 
L 575.540574 250.3775 
L 575.824283 250.446481 
L 576.107993 251.13629 
L 576.391702 232.724965 
L 576.675412 270.615176 
L 576.959121 213.755223 
L 577.242831 233.759678 
L 577.526541 215.085569 
L 577.81025 215.512593 
L 578.09396 215.134841 
L 578.377669 240.148621 
L 578.661379 238.062771 
L 579.228798 270.565904 
L 579.796217 239.902261 
L 580.363636 270.253848 
L 580.647346 270.450936 
L 580.931056 270.46736 
L 581.214765 235.057175 
L 581.498475 270.263702 
L 581.782184 216.202402 
L 582.065894 270.598752 
L 582.633313 236.124737 
L 582.917023 238.99894 
L 583.200732 271.403529 
L 583.484442 223.970963 
L 584.051861 256.309856 
L 584.33557 233.431198 
L 584.61928 239.228876 
L 584.90299 223.757451 
L 585.186699 271.961946 
L 585.754118 233.48047 
L 586.037828 270.779416 
L 586.321538 253.123596 
L 586.605247 252.745844 
L 586.888957 213.705951 
L 587.172666 156.228455 
L 587.456376 232.527877 
L 587.740085 252.614452 
L 588.023795 251.46477 
L 588.307505 213.623831 
L 588.591214 236.371097 
L 588.874924 197.840349 
L 589.158633 253.698437 
L 589.442343 270.762992 
L 589.726052 255.718591 
L 590.009762 272.701027 
L 590.293472 272.733875 
L 590.577181 272.191882 
L 590.860891 271.961946 
L 591.1446 254.683878 
L 591.42831 272.257578 
L 591.71202 254.634606 
L 591.995729 202.75113 
L 592.279439 254.667454 
L 592.563148 235.97692 
L 592.846858 232.166548 
L 593.130567 236.190433 
L 593.414277 237.011634 
L 593.697987 255.488655 
L 593.981696 255.833559 
L 594.265406 255.964951 
L 594.549115 271.715585 
L 595.116534 234.810815 
L 595.683954 270.582328 
L 595.967663 270.746568 
L 596.251373 256.260584 
L 596.535082 272.027642 
L 596.818792 272.011218 
L 597.102502 239.738021 
L 597.386211 255.849983 
L 597.669921 235.369232 
L 597.95363 270.286696 
L 598.23734 255.669319 
L 598.521049 269.317679 
L 598.804759 267.511037 
L 599.088469 248.853351 
L 599.372178 264.357625 
L 599.655888 248.919047 
L 599.939597 264.702529 
L 600.223307 231.953036 
L 600.507016 263.947024 
L 600.790726 247.440886 
L 601.074436 265.35949 
L 601.358145 265.983603 
L 601.641855 252.269547 
L 601.925564 254.503214 
L 602.209274 234.531607 
L 602.492984 250.906354 
L 602.776693 251.349802 
L 603.060403 254.322549 
L 603.344112 266.886924 
L 603.627822 254.716726 
L 603.911531 267.412492 
L 604.195241 250.949056 
L 604.478951 263.43788 
L 604.76266 261.51627 
L 605.04637 261.943294 
L 605.330079 259.364723 
L 605.613789 238.227011 
L 605.897498 249.559584 
L 606.181208 250.298665 
L 606.464918 247.588702 
L 606.748627 220.144166 
L 607.032337 236.91309 
L 607.316046 229.916458 
L 607.599756 228.520416 
L 607.883466 257.607353 
L 608.167175 225.613365 
L 608.450885 227.715639 
L 609.018304 260.974277 
L 609.302013 262.058262 
L 609.869433 191.645209 
L 610.436852 265.047434 
L 610.720561 266.131419 
L 611.004271 266.492747 
L 611.28798 251.481194 
L 611.57169 249.034015 
L 611.8554 267.100436 
L 612.139109 266.509171 
L 612.422819 267.03474 
L 612.706528 266.919772 
L 612.990238 267.100436 
L 613.273948 249.904488 
L 613.557657 213.755223 
L 613.841367 213.328199 
L 614.125076 197.298356 
L 614.408786 267.461765 
L 614.692495 195.524562 
L 614.976205 232.839933 
L 615.259915 177.507414 
L 615.543624 214.050855 
L 615.827334 202.642732 
L 616.394753 234.465911 
L 616.678462 250.97205 
L 616.962172 253.862677 
L 617.245882 255.340839 
L 617.529591 270.79584 
L 617.813301 230.786931 
L 618.38072 251.087018 
L 618.66443 215.611137 
L 618.948139 250.282241 
L 619.231849 182.697404 
L 619.515558 183.764965 
L 619.799268 160.919155 
L 620.082977 219.175149 
L 620.366687 197.183388 
L 620.650397 238.407675 
L 620.934106 187.673881 
L 621.501525 214.093558 
L 621.785235 238.637612 
L 622.068944 188.511506 
L 622.352654 185.817967 
L 622.636364 223.642482 
L 622.636364 223.642482 
" clip-path="url(#p31d771c3a7)" style="fill: none; stroke: #1f77b4; stroke-width: 1.5; stroke-linecap: square"/>
   </g>
   <g id="line2d_12">
    <path d="M 115.363636 236.740555 
L 115.931056 237.243767 
L 116.214765 165.879208 
L 119.61928 167.878256 
L 120.470409 167.763398 
L 121.037828 164.979075 
L 122.172666 166.002275 
L 122.740085 166.372395 
L 123.023795 220.374103 
L 123.874924 224.077342 
L 124.726052 226.902143 
L 125.577181 229.044215 
L 126.71202 231.196441 
L 127.846858 232.8439 
L 128.414277 233.5634 
L 128.697987 233.653629 
L 128.981696 233.254827 
L 129.549115 230.825376 
L 129.832825 198.81922 
L 130.116534 197.382037 
L 130.967663 189.940109 
L 131.251373 189.877434 
L 131.535082 190.734556 
L 132.669921 195.762007 
L 133.23734 194.373021 
L 133.521049 195.054913 
L 133.804759 195.087353 
L 134.372178 195.745397 
L 135.223307 196.654656 
L 136.358145 199.318142 
L 136.641855 203.408091 
L 138.060403 206.436838 
L 139.76266 209.580074 
L 142.032337 213.271955 
L 143.167175 214.966485 
L 143.450885 176.965421 
L 145.720561 178.485462 
L 148.841367 180.285853 
L 149.125076 180.183225 
L 149.408786 179.826509 
L 149.976205 177.081815 
L 150.259915 195.655954 
L 150.543624 194.089 
L 150.827334 191.521463 
L 151.394753 179.989387 
L 152.813301 153.852609 
L 153.09701 151.133573 
L 153.38072 149.5238 
L 153.948139 150.445666 
L 154.515558 152.585214 
L 154.799268 153.069541 
L 155.082977 153.821097 
L 155.366687 156.324733 
L 156.501525 169.890171 
L 156.785235 173.125305 
L 157.068944 172.87584 
L 157.920073 178.201267 
L 159.054912 183.643665 
L 160.18975 187.9491 
L 161.608298 192.365801 
L 163.310555 196.801475 
L 163.594265 197.476408 
L 163.877974 179.708232 
L 165.580232 185.246326 
L 167.282489 190.093142 
L 168.133618 192.220481 
L 168.417328 192.247206 
L 168.701037 190.314015 
L 169.268456 183.748816 
L 169.552166 182.453727 
L 169.835876 182.576481 
L 170.403295 184.700885 
L 170.687004 195.72165 
L 171.821843 203.195527 
L 172.672971 207.397545 
L 173.5241 210.670007 
L 174.658938 214.062224 
L 175.793777 216.749324 
L 177.212325 219.524306 
L 177.496034 221.983656 
L 179.482001 225.10256 
L 182.035387 228.634243 
L 184.021354 231.157656 
L 184.305064 217.647716 
L 187.425869 222.376787 
L 190.546675 226.728128 
L 193.95119 231.087245 
L 197.355705 235.076832 
L 197.639414 235.393632 
L 197.923124 221.901536 
L 201.043929 226.289094 
L 204.448444 230.685219 
L 204.732154 240.641342 
L 207.00183 242.16806 
L 207.28554 242.209733 
L 207.56925 241.694451 
L 207.852959 240.141431 
L 208.420378 236.20128 
L 208.704088 235.523416 
L 208.987797 235.412663 
L 209.271507 233.379138 
L 210.122636 214.25724 
L 210.406345 211.722481 
L 210.690055 213.512419 
L 211.824893 228.012894 
L 212.108603 229.679215 
L 212.676022 225.29975 
L 212.959732 225.046133 
L 214.945699 234.130869 
L 215.796827 236.346367 
L 216.364246 237.542052 
L 216.647956 237.582046 
L 216.931666 236.895917 
L 217.215375 237.608045 
L 217.499085 235.725373 
L 217.782794 230.556143 
L 218.066504 229.212649 
L 218.350214 229.390628 
L 218.917633 230.250043 
L 219.485052 230.395341 
L 219.768761 230.668999 
L 221.471019 233.520891 
L 222.605857 235.531274 
L 223.740696 237.07603 
L 225.159243 238.597285 
L 226.861501 240.087683 
L 229.414887 241.985859 
L 232.819402 244.22054 
L 237.075046 246.751654 
L 239.061013 247.836088 
L 245.302624 248.81863 
L 245.586333 250.561449 
L 250.409396 251.222311 
L 250.693106 251.047736 
L 250.976815 250.385923 
L 251.260525 246.928432 
L 252.111653 232.827549 
L 252.395363 249.740248 
L 252.679073 249.960703 
L 254.38133 254.080564 
L 255.232459 255.535074 
L 256.367297 256.970363 
L 257.502135 258.037183 
L 258.920683 259.06919 
L 259.204393 174.189762 
L 260.622941 179.697512 
L 262.325198 185.407527 
L 264.027456 190.379484 
L 266.013423 195.468894 
L 267.99939 199.958875 
L 270.269067 204.50983 
L 272.538743 208.562223 
L 275.092129 212.63849 
L 277.645516 216.295565 
L 280.482611 219.954184 
L 283.319707 223.258363 
L 286.440513 226.55123 
L 287.575351 227.671229 
L 287.85906 182.483891 
L 289.561318 187.741542 
L 291.547285 193.124826 
L 292.965833 196.567574 
L 293.249542 196.969876 
L 298.072605 198.770246 
L 298.356315 198.619489 
L 299.207444 197.136585 
L 299.491153 197.002616 
L 299.774863 197.295294 
L 300.342282 195.635843 
L 300.909701 195.900491 
L 301.76083 196.445133 
L 302.328249 196.790595 
L 303.746797 198.310178 
L 304.030506 198.536207 
L 304.314216 198.922914 
L 304.597926 198.357536 
L 304.881635 197.35139 
L 305.732764 192.423578 
L 306.016473 191.596595 
L 306.300183 191.589668 
L 306.583893 191.982036 
L 308.28615 195.680699 
L 309.137279 196.755614 
L 310.272117 197.793729 
L 311.974375 199.011935 
L 314.244051 200.318035 
L 317.081147 201.664164 
L 321.053081 203.275664 
L 327.294692 205.530736 
L 336.940818 208.759055 
L 340.061623 209.765242 
L 343.749847 215.545441 
L 344.033557 215.159419 
L 344.317267 216.515438 
L 345.735815 226.900273 
L 346.303234 228.710077 
L 346.870653 229.996771 
L 348.57291 232.419484 
L 349.707749 233.636671 
L 350.842587 234.523444 
L 351.126297 244.016478 
L 352.828554 244.92847 
L 354.814521 245.70826 
L 356.516779 246.224528 
L 356.800488 215.118417 
L 360.205003 216.382123 
L 363.609518 217.478581 
L 363.893228 238.933244 
L 368.148871 241.669137 
L 370.134838 242.859927 
L 370.418548 271.97837 
L 376.092739 272.061259 
L 376.943868 271.709415 
L 377.227578 271.710097 
L 377.511287 235.64844 
L 377.794997 235.383609 
L 378.078707 235.628255 
L 379.213545 237.730746 
L 379.780964 238.118226 
L 380.064674 237.779457 
L 380.348383 236.522237 
L 380.915802 232.498322 
L 381.199512 231.315729 
L 381.483221 230.854217 
L 381.766931 230.968313 
L 382.33435 231.790983 
L 382.901769 232.759885 
L 383.469189 233.380642 
L 383.752898 233.603479 
L 384.036608 203.982932 
L 385.171446 207.236461 
L 386.022575 209.070213 
L 387.157413 210.722357 
L 389.42709 214.995441 
L 390.561928 216.787454 
L 390.845638 192.315309 
L 392.831605 197.151443 
L 395.101281 202.072011 
L 397.370958 206.479848 
L 397.654667 206.999787 
L 397.938377 160.459282 
L 399.640635 168.347153 
L 401.342892 175.135257 
L 403.045149 181.073026 
L 404.463697 185.499996 
L 404.747407 273.259443 
L 412.407566 273.97186 
L 412.691275 165.123703 
L 418.081757 166.860255 
L 418.365467 205.633546 
L 431.699817 208.351706 
L 431.983527 201.699993 
L 434.820622 202.254106 
L 435.388041 201.950258 
L 435.671751 201.723157 
L 436.23917 200.78064 
L 436.52288 200.642269 
L 437.374009 201.12295 
L 438.225137 201.31651 
L 438.508847 172.744448 
L 438.792556 172.974532 
L 439.076266 171.593382 
L 439.927395 163.910475 
L 440.211104 163.707641 
L 440.494814 165.140733 
L 442.480781 181.572319 
L 443.33191 186.19359 
L 444.183038 189.806045 
L 445.317877 193.69182 
L 446.452715 196.904578 
L 446.736425 207.300584 
L 447.871263 207.615901 
L 448.154973 207.62155 
L 448.438682 273.193747 
L 451.275778 273.626671 
L 451.843197 272.795932 
L 452.126907 210.215847 
L 453.261745 212.610439 
L 454.680293 214.924343 
L 457.233679 218.601154 
L 460.070775 222.317803 
L 463.19158 226.035273 
L 465.461257 228.529073 
L 465.744966 255.357263 
L 470.28432 257.311901 
L 472.270287 258.107094 
L 472.553996 271.387105 
L 479.079317 271.548075 
L 479.363026 218.173284 
L 485.888347 219.291215 
L 486.172056 247.194525 
L 492.981086 247.79449 
L 493.264796 168.763266 
L 499.790116 170.797826 
L 500.073826 223.281154 
L 500.924954 223.399154 
L 501.208664 223.322901 
L 501.492373 222.7857 
L 501.776083 221.996531 
L 502.059793 220.390823 
L 503.76205 204.890251 
L 504.04576 203.025124 
L 504.613179 196.685029 
L 504.896888 194.373256 
L 505.180598 190.636366 
L 505.464308 188.646706 
L 505.748017 189.167218 
L 506.315436 192.95986 
L 506.599146 180.332345 
L 507.166565 184.33946 
L 507.733984 187.169093 
L 508.301403 189.171252 
L 509.152532 191.272181 
L 510.003661 192.785836 
L 511.138499 194.309706 
L 512.273337 195.479976 
L 513.408176 196.409962 
L 513.691885 213.344623 
L 514.826724 216.005325 
L 515.677852 217.605867 
L 516.245272 218.512063 
L 526.175107 232.715468 
L 529.579622 236.571806 
L 532.984137 240.097615 
L 533.835265 240.931239 
L 534.118975 195.55741 
L 536.672361 200.803903 
L 537.52349 201.964577 
L 538.942038 203.429188 
L 539.509457 204.587998 
L 540.360586 206.694259 
L 540.644295 206.367699 
L 541.495424 206.844752 
L 542.913972 207.309757 
L 546.602196 208.171101 
L 547.453325 208.264809 
L 547.737035 253.961221 
L 548.304454 253.908983 
L 548.871873 253.850153 
L 549.439292 254.123843 
L 551.14155 255.341493 
L 551.708969 255.398294 
L 552.276388 255.498015 
L 553.127517 256.056585 
L 553.411226 256.26826 
L 553.694936 256.233619 
L 553.978646 255.480121 
L 554.262355 164.17111 
L 554.829774 160.946022 
L 555.113484 160.219716 
L 555.397193 160.320252 
L 555.964613 161.382893 
L 556.815741 163.157898 
L 557.38316 164.044104 
L 557.66687 163.807081 
L 558.517999 161.174439 
L 559.085418 158.707549 
L 559.369128 156.459319 
L 560.503966 143.716479 
L 560.787675 143.111821 
L 561.071385 144.052213 
L 561.355095 271.846978 
L 561.638804 270.991531 
L 562.489933 266.671785 
L 563.624771 262.461465 
L 563.908481 262.018519 
L 564.19219 262.310365 
L 566.461867 269.022406 
L 567.312996 270.418152 
L 567.596705 270.785502 
L 567.880415 243.203489 
L 569.015253 244.718467 
L 570.433801 246.263947 
L 571.568639 247.23894 
L 572.703478 247.648627 
L 574.689445 249.209528 
L 574.973154 269.002337 
L 576.391702 269.531556 
L 578.377669 270.021811 
L 581.498475 270.574731 
L 581.782184 254.97951 
L 585.754118 256.749778 
L 588.307505 257.79559 
L 588.591214 156.681758 
L 590.009762 163.826328 
L 591.71202 171.229646 
L 593.414277 177.646063 
L 595.116534 183.288128 
L 595.400244 239.885837 
L 595.683954 239.688838 
L 595.967663 239.298884 
L 596.251373 238.50175 
L 596.818792 235.91187 
L 597.95363 229.071518 
L 598.23734 228.171988 
L 598.804759 227.47356 
L 599.372178 225.466081 
L 599.939597 222.706755 
L 600.223307 222.35477 
L 600.507016 222.848633 
L 601.925564 226.887819 
L 602.209274 238.645824 
L 603.060403 239.795535 
L 603.627822 240.334293 
L 603.911531 240.368005 
L 604.195241 240.12987 
L 604.478951 240.078514 
L 605.330079 237.957091 
L 605.897498 236.442723 
L 606.181208 235.704161 
L 606.464918 235.451019 
L 607.032337 235.612822 
L 607.599756 236.384011 
L 608.450885 237.576226 
L 608.734594 222.92311 
L 609.585723 223.70981 
L 610.720561 224.42366 
L 611.57169 224.84417 
L 611.8554 224.863614 
L 612.422819 224.605656 
L 612.706528 223.893031 
L 613.273948 220.745898 
L 613.557657 218.156823 
L 613.841367 214.316165 
L 614.125076 212.143857 
L 614.408786 212.068499 
L 614.976205 214.091456 
L 615.543624 216.085266 
L 615.827334 267.461765 
L 618.09701 267.942098 
L 620.934106 268.304859 
L 622.352654 268.428565 
L 622.636364 268.824958 
L 622.636364 268.824958 
" clip-path="url(#p31d771c3a7)" style="fill: none; stroke: #ff7f0e; stroke-width: 1.5; stroke-linecap: square"/>
   </g>
   <g id="patch_3">
    <path d="M 90 288 
L 90 43.2 
" style="fill: none; stroke: #000000; stroke-width: 0.8; stroke-linejoin: miter; stroke-linecap: square"/>
   </g>
   <g id="patch_4">
    <path d="M 648 288 
L 648 43.2 
" style="fill: none; stroke: #000000; stroke-width: 0.8; stroke-linejoin: miter; stroke-linecap: square"/>
   </g>
   <g id="patch_5">
    <path d="M 90 288 
L 648 288 
" style="fill: none; stroke: #000000; stroke-width: 0.8; stroke-linejoin: miter; stroke-linecap: square"/>
   </g>
   <g id="patch_6">
    <path d="M 90 43.2 
L 648 43.2 
" style="fill: none; stroke: #000000; stroke-width: 0.8; stroke-linejoin: miter; stroke-linecap: square"/>
   </g>
   <g id="text_12">
    <!-- DET012 -->
    <g transform="translate(345.471563 37.2) scale(0.12 -0.12)">
     <defs>
      <path id="DejaVuSans-44" d="M 1259 4147 
L 1259 519 
L 2022 519 
Q 2988 519 3436 956 
Q 3884 1394 3884 2338 
Q 3884 3275 3436 3711 
Q 2988 4147 2022 4147 
L 1259 4147 
z
M 628 4666 
L 1925 4666 
Q 3281 4666 3915 4102 
Q 4550 3538 4550 2338 
Q 4550 1131 3912 565 
Q 3275 0 1925 0 
L 628 0 
L 628 4666 
z
" transform="scale(0.015625)"/>
      <path id="DejaVuSans-45" d="M 628 4666 
L 3578 4666 
L 3578 4134 
L 1259 4134 
L 1259 2753 
L 3481 2753 
L 3481 2222 
L 1259 2222 
L 1259 531 
L 3634 531 
L 3634 0 
L 628 0 
L 628 4666 
z
" transform="scale(0.015625)"/>
      <path id="DejaVuSans-54" d="M -19 4666 
L 3928 4666 
L 3928 4134 
L 2272 4134 
L 2272 0 
L 1638 0 
L 1638 4134 
L -19 4134 
L -19 4666 
z
" transform="scale(0.015625)"/>
     </defs>
     <use xlink:href="#DejaVuSans-44"/>
     <use xlink:href="#DejaVuSans-45" x="77.001953"/>
     <use xlink:href="#DejaVuSans-54" x="140.185547"/>
     <use xlink:href="#DejaVuSans-30" x="201.269531"/>
     <use xlink:href="#DejaVuSans-31" x="264.892578"/>
     <use xlink:href="#DejaVuSans-32" x="328.515625"/>
    </g>
   </g>
   <g id="legend_1">
    <g id="patch_7">
     <path d="M 559.04375 80.55625 
L 641 80.55625 
Q 643 80.55625 643 78.55625 
L 643 50.2 
Q 643 48.2 641 48.2 
L 559.04375 48.2 
Q 557.04375 48.2 557.04375 50.2 
L 557.04375 78.55625 
Q 557.04375 80.55625 559.04375 80.55625 
z
" style="fill: #ffffff; opacity: 0.8; stroke: #cccccc; stroke-linejoin: miter"/>
    </g>
    <g id="line2d_13">
     <path d="M 561.04375 56.298437 
L 571.04375 56.298437 
L 581.04375 56.298437 
" style="fill: none; stroke: #1f77b4; stroke-width: 1.5; stroke-linecap: square"/>
    </g>
    <g id="text_13">
     <!-- measured -->
     <g transform="translate(589.04375 59.798437) scale(0.1 -0.1)">
      <defs>
       <path id="DejaVuSans-6d" d="M 3328 2828 
Q 3544 3216 3844 3400 
Q 4144 3584 4550 3584 
Q 5097 3584 5394 3201 
Q 5691 2819 5691 2113 
L 5691 0 
L 5113 0 
L 5113 2094 
Q 5113 2597 4934 2840 
Q 4756 3084 4391 3084 
Q 3944 3084 3684 2787 
Q 3425 2491 3425 1978 
L 3425 0 
L 2847 0 
L 2847 2094 
Q 2847 2600 2669 2842 
Q 2491 3084 2119 3084 
Q 1678 3084 1418 2786 
Q 1159 2488 1159 1978 
L 1159 0 
L 581 0 
L 581 3500 
L 1159 3500 
L 1159 2956 
Q 1356 3278 1631 3431 
Q 1906 3584 2284 3584 
Q 2666 3584 2933 3390 
Q 3200 3197 3328 2828 
z
" transform="scale(0.015625)"/>
       <path id="DejaVuSans-61" d="M 2194 1759 
Q 1497 1759 1228 1600 
Q 959 1441 959 1056 
Q 959 750 1161 570 
Q 1363 391 1709 391 
Q 2188 391 2477 730 
Q 2766 1069 2766 1631 
L 2766 1759 
L 2194 1759 
z
M 3341 1997 
L 3341 0 
L 2766 0 
L 2766 531 
Q 2569 213 2275 61 
Q 1981 -91 1556 -91 
Q 1019 -91 701 211 
Q 384 513 384 1019 
Q 384 1609 779 1909 
Q 1175 2209 1959 2209 
L 2766 2209 
L 2766 2266 
Q 2766 2663 2505 2880 
Q 2244 3097 1772 3097 
Q 1472 3097 1187 3025 
Q 903 2953 641 2809 
L 641 3341 
Q 956 3463 1253 3523 
Q 1550 3584 1831 3584 
Q 2591 3584 2966 3190 
Q 3341 2797 3341 1997 
z
" transform="scale(0.015625)"/>
       <path id="DejaVuSans-75" d="M 544 1381 
L 544 3500 
L 1119 3500 
L 1119 1403 
Q 1119 906 1312 657 
Q 1506 409 1894 409 
Q 2359 409 2629 706 
Q 2900 1003 2900 1516 
L 2900 3500 
L 3475 3500 
L 3475 0 
L 2900 0 
L 2900 538 
Q 2691 219 2414 64 
Q 2138 -91 1772 -91 
Q 1169 -91 856 284 
Q 544 659 544 1381 
z
M 1991 3584 
L 1991 3584 
z
" transform="scale(0.015625)"/>
       <path id="DejaVuSans-64" d="M 2906 2969 
L 2906 4863 
L 3481 4863 
L 3481 0 
L 2906 0 
L 2906 525 
Q 2725 213 2448 61 
Q 2172 -91 1784 -91 
Q 1150 -91 751 415 
Q 353 922 353 1747 
Q 353 2572 751 3078 
Q 1150 3584 1784 3584 
Q 2172 3584 2448 3432 
Q 2725 3281 2906 2969 
z
M 947 1747 
Q 947 1113 1208 752 
Q 1469 391 1925 391 
Q 2381 391 2643 752 
Q 2906 1113 2906 1747 
Q 2906 2381 2643 2742 
Q 2381 3103 1925 3103 
Q 1469 3103 1208 2742 
Q 947 2381 947 1747 
z
" transform="scale(0.015625)"/>
      </defs>
      <use xlink:href="#DejaVuSans-6d"/>
      <use xlink:href="#DejaVuSans-65" x="97.412109"/>
      <use xlink:href="#DejaVuSans-61" x="158.935547"/>
      <use xlink:href="#DejaVuSans-73" x="220.214844"/>
      <use xlink:href="#DejaVuSans-75" x="272.314453"/>
      <use xlink:href="#DejaVuSans-72" x="335.693359"/>
      <use xlink:href="#DejaVuSans-65" x="374.556641"/>
      <use xlink:href="#DejaVuSans-64" x="436.080078"/>
     </g>
    </g>
    <g id="line2d_14">
     <path d="M 561.04375 70.976562 
L 571.04375 70.976562 
L 581.04375 70.976562 
" style="fill: none; stroke: #ff7f0e; stroke-width: 1.5; stroke-linecap: square"/>
    </g>
    <g id="text_14">
     <!-- predicted -->
     <g transform="translate(589.04375 74.476562) scale(0.1 -0.1)">
      <defs>
       <path id="DejaVuSans-70" d="M 1159 525 
L 1159 -1331 
L 581 -1331 
L 581 3500 
L 1159 3500 
L 1159 2969 
Q 1341 3281 1617 3432 
Q 1894 3584 2278 3584 
Q 2916 3584 3314 3078 
Q 3713 2572 3713 1747 
Q 3713 922 3314 415 
Q 2916 -91 2278 -91 
Q 1894 -91 1617 61 
Q 1341 213 1159 525 
z
M 3116 1747 
Q 3116 2381 2855 2742 
Q 2594 3103 2138 3103 
Q 1681 3103 1420 2742 
Q 1159 2381 1159 1747 
Q 1159 1113 1420 752 
Q 1681 391 2138 391 
Q 2594 391 2855 752 
Q 3116 1113 3116 1747 
z
" transform="scale(0.015625)"/>
       <path id="DejaVuSans-69" d="M 603 3500 
L 1178 3500 
L 1178 0 
L 603 0 
L 603 3500 
z
M 603 4863 
L 1178 4863 
L 1178 4134 
L 603 4134 
L 603 4863 
z
" transform="scale(0.015625)"/>
       <path id="DejaVuSans-63" d="M 3122 3366 
L 3122 2828 
Q 2878 2963 2633 3030 
Q 2388 3097 2138 3097 
Q 1578 3097 1268 2742 
Q 959 2388 959 1747 
Q 959 1106 1268 751 
Q 1578 397 2138 397 
Q 2388 397 2633 464 
Q 2878 531 3122 666 
L 3122 134 
Q 2881 22 2623 -34 
Q 2366 -91 2075 -91 
Q 1284 -91 818 406 
Q 353 903 353 1747 
Q 353 2603 823 3093 
Q 1294 3584 2113 3584 
Q 2378 3584 2631 3529 
Q 2884 3475 3122 3366 
z
" transform="scale(0.015625)"/>
      </defs>
      <use xlink:href="#DejaVuSans-70"/>
      <use xlink:href="#DejaVuSans-72" x="63.476562"/>
      <use xlink:href="#DejaVuSans-65" x="102.339844"/>
      <use xlink:href="#DejaVuSans-64" x="163.863281"/>
      <use xlink:href="#DejaVuSans-69" x="227.339844"/>
      <use xlink:href="#DejaVuSans-63" x="255.123047"/>
      <use xlink:href="#DejaVuSans-74" x="310.103516"/>
      <use xlink:href="#DejaVuSans-65" x="349.3125"/>
      <use xlink:href="#DejaVuSans-64" x="410.835938"/>
     </g>
    </g>
   </g>
  </g>
 </g>
 <defs>
  <clipPath id="p31d771c3a7">
   <rect x="90" y="43.2" width="558" height="244.8"/>
  </clipPath>
 </defs>
</svg>
