<?xml version="1.0" encoding="utf-8" standalone="no"?>
<!DOCTYPE svg PUBLIC "-//W3C//DTD SVG 1.1//EN"
  "http://www.w3.org/Graphics/SVG/1.1/DTD/svg11.dtd">
<svg xmlns:xlink="http://www.w3.org/1999/xlink" width="720pt" height="360pt" viewBox="0 0 720 360" xmlns="http://www.w3.org/2000/svg" version="1.1">
 <metadata>
  <rdf:RDF xmlns:dc="http://purl.org/dc/elements/1.1/" xmlns:cc="http://creativecommons.org/ns#" xmlns:rdf="http://www.w3.org/1999/02/22-rdf-syntax-ns#">
   <cc:Work>
    <dc:type rdf:resource="http://purl.org/dc/dcmitype/StillImage"/>
    <dc:date>2023-10-23T10:55:27.681843</dc:date>
    <dc:format>image/svg+xml</dc:format>
    <dc:creator>
     <cc:Agent>
      <dc:title>Matplotlib v3.7.1, https://matplotlib.org/</dc:title>
     </cc:Agent>
    </dc:creator>
   </cc:Work>
  </rdf:RDF>
 </metadata>
 <defs>
  <style type="text/css">*{stroke-linejoin: round; stroke-linecap: butt}</style>
 </defs>
 <g id="figure_1">
  <g id="patch_1">
   <path d="M 0 360 
L 720 360 
L 720 0 
L 0 0 
z
" style="fill: #ffffff"/>
  </g>
  <g id="axes_1">
   <g id="patch_2">
    <path d="M 90 288 
L 648 288 
L 648 43.2 
L 90 43.2 
z
" style="fill: #ffffff"/>
   </g>
   <g id="matplotlib.axis_1">
    <g id="xtick_1">
     <g id="line2d_1">
      <defs>
       <path id="md2eb43b42c" d="M 0 0 
L 0 3.5 
" style="stroke: #000000; stroke-width: 0.8"/>
      </defs>
      <g>
       <use xlink:href="#md2eb43b42c" x="93.675016" y="288" style="stroke: #000000; stroke-width: 0.8"/>
      </g>
     </g>
     <g id="text_1">
      <!-- 2023-09-17 -->
      <g transform="translate(32.031675 337.765903) rotate(-30) scale(0.12 -0.12)">
       <defs>
        <path id="DejaVuSans-32" d="M 1228 531 
L 3431 531 
L 3431 0 
L 469 0 
L 469 531 
Q 828 903 1448 1529 
Q 2069 2156 2228 2338 
Q 2531 2678 2651 2914 
Q 2772 3150 2772 3378 
Q 2772 3750 2511 3984 
Q 2250 4219 1831 4219 
Q 1534 4219 1204 4116 
Q 875 4013 500 3803 
L 500 4441 
Q 881 4594 1212 4672 
Q 1544 4750 1819 4750 
Q 2544 4750 2975 4387 
Q 3406 4025 3406 3419 
Q 3406 3131 3298 2873 
Q 3191 2616 2906 2266 
Q 2828 2175 2409 1742 
Q 1991 1309 1228 531 
z
" transform="scale(0.015625)"/>
        <path id="DejaVuSans-30" d="M 2034 4250 
Q 1547 4250 1301 3770 
Q 1056 3291 1056 2328 
Q 1056 1369 1301 889 
Q 1547 409 2034 409 
Q 2525 409 2770 889 
Q 3016 1369 3016 2328 
Q 3016 3291 2770 3770 
Q 2525 4250 2034 4250 
z
M 2034 4750 
Q 2819 4750 3233 4129 
Q 3647 3509 3647 2328 
Q 3647 1150 3233 529 
Q 2819 -91 2034 -91 
Q 1250 -91 836 529 
Q 422 1150 422 2328 
Q 422 3509 836 4129 
Q 1250 4750 2034 4750 
z
" transform="scale(0.015625)"/>
        <path id="DejaVuSans-33" d="M 2597 2516 
Q 3050 2419 3304 2112 
Q 3559 1806 3559 1356 
Q 3559 666 3084 287 
Q 2609 -91 1734 -91 
Q 1441 -91 1130 -33 
Q 819 25 488 141 
L 488 750 
Q 750 597 1062 519 
Q 1375 441 1716 441 
Q 2309 441 2620 675 
Q 2931 909 2931 1356 
Q 2931 1769 2642 2001 
Q 2353 2234 1838 2234 
L 1294 2234 
L 1294 2753 
L 1863 2753 
Q 2328 2753 2575 2939 
Q 2822 3125 2822 3475 
Q 2822 3834 2567 4026 
Q 2313 4219 1838 4219 
Q 1578 4219 1281 4162 
Q 984 4106 628 3988 
L 628 4550 
Q 988 4650 1302 4700 
Q 1616 4750 1894 4750 
Q 2613 4750 3031 4423 
Q 3450 4097 3450 3541 
Q 3450 3153 3228 2886 
Q 3006 2619 2597 2516 
z
" transform="scale(0.015625)"/>
        <path id="DejaVuSans-2d" d="M 313 2009 
L 1997 2009 
L 1997 1497 
L 313 1497 
L 313 2009 
z
" transform="scale(0.015625)"/>
        <path id="DejaVuSans-39" d="M 703 97 
L 703 672 
Q 941 559 1184 500 
Q 1428 441 1663 441 
Q 2288 441 2617 861 
Q 2947 1281 2994 2138 
Q 2813 1869 2534 1725 
Q 2256 1581 1919 1581 
Q 1219 1581 811 2004 
Q 403 2428 403 3163 
Q 403 3881 828 4315 
Q 1253 4750 1959 4750 
Q 2769 4750 3195 4129 
Q 3622 3509 3622 2328 
Q 3622 1225 3098 567 
Q 2575 -91 1691 -91 
Q 1453 -91 1209 -44 
Q 966 3 703 97 
z
M 1959 2075 
Q 2384 2075 2632 2365 
Q 2881 2656 2881 3163 
Q 2881 3666 2632 3958 
Q 2384 4250 1959 4250 
Q 1534 4250 1286 3958 
Q 1038 3666 1038 3163 
Q 1038 2656 1286 2365 
Q 1534 2075 1959 2075 
z
" transform="scale(0.015625)"/>
        <path id="DejaVuSans-31" d="M 794 531 
L 1825 531 
L 1825 4091 
L 703 3866 
L 703 4441 
L 1819 4666 
L 2450 4666 
L 2450 531 
L 3481 531 
L 3481 0 
L 794 0 
L 794 531 
z
" transform="scale(0.015625)"/>
        <path id="DejaVuSans-37" d="M 525 4666 
L 3525 4666 
L 3525 4397 
L 1831 0 
L 1172 0 
L 2766 4134 
L 525 4134 
L 525 4666 
z
" transform="scale(0.015625)"/>
       </defs>
       <use xlink:href="#DejaVuSans-32"/>
       <use xlink:href="#DejaVuSans-30" x="63.623047"/>
       <use xlink:href="#DejaVuSans-32" x="127.246094"/>
       <use xlink:href="#DejaVuSans-33" x="190.869141"/>
       <use xlink:href="#DejaVuSans-2d" x="254.492188"/>
       <use xlink:href="#DejaVuSans-30" x="290.576172"/>
       <use xlink:href="#DejaVuSans-39" x="354.199219"/>
       <use xlink:href="#DejaVuSans-2d" x="417.822266"/>
       <use xlink:href="#DejaVuSans-31" x="453.90625"/>
       <use xlink:href="#DejaVuSans-37" x="517.529297"/>
      </g>
     </g>
    </g>
    <g id="xtick_2">
     <g id="line2d_2">
      <g>
       <use xlink:href="#md2eb43b42c" x="151.511337" y="288" style="stroke: #000000; stroke-width: 0.8"/>
      </g>
     </g>
     <g id="text_2">
      <!-- 2023-09-21 -->
      <g transform="translate(89.867995 337.765903) rotate(-30) scale(0.12 -0.12)">
       <use xlink:href="#DejaVuSans-32"/>
       <use xlink:href="#DejaVuSans-30" x="63.623047"/>
       <use xlink:href="#DejaVuSans-32" x="127.246094"/>
       <use xlink:href="#DejaVuSans-33" x="190.869141"/>
       <use xlink:href="#DejaVuSans-2d" x="254.492188"/>
       <use xlink:href="#DejaVuSans-30" x="290.576172"/>
       <use xlink:href="#DejaVuSans-39" x="354.199219"/>
       <use xlink:href="#DejaVuSans-2d" x="417.822266"/>
       <use xlink:href="#DejaVuSans-32" x="453.90625"/>
       <use xlink:href="#DejaVuSans-31" x="517.529297"/>
      </g>
     </g>
    </g>
    <g id="xtick_3">
     <g id="line2d_3">
      <g>
       <use xlink:href="#md2eb43b42c" x="209.347657" y="288" style="stroke: #000000; stroke-width: 0.8"/>
      </g>
     </g>
     <g id="text_3">
      <!-- 2023-09-25 -->
      <g transform="translate(147.704315 337.765903) rotate(-30) scale(0.12 -0.12)">
       <defs>
        <path id="DejaVuSans-35" d="M 691 4666 
L 3169 4666 
L 3169 4134 
L 1269 4134 
L 1269 2991 
Q 1406 3038 1543 3061 
Q 1681 3084 1819 3084 
Q 2600 3084 3056 2656 
Q 3513 2228 3513 1497 
Q 3513 744 3044 326 
Q 2575 -91 1722 -91 
Q 1428 -91 1123 -41 
Q 819 9 494 109 
L 494 744 
Q 775 591 1075 516 
Q 1375 441 1709 441 
Q 2250 441 2565 725 
Q 2881 1009 2881 1497 
Q 2881 1984 2565 2268 
Q 2250 2553 1709 2553 
Q 1456 2553 1204 2497 
Q 953 2441 691 2322 
L 691 4666 
z
" transform="scale(0.015625)"/>
       </defs>
       <use xlink:href="#DejaVuSans-32"/>
       <use xlink:href="#DejaVuSans-30" x="63.623047"/>
       <use xlink:href="#DejaVuSans-32" x="127.246094"/>
       <use xlink:href="#DejaVuSans-33" x="190.869141"/>
       <use xlink:href="#DejaVuSans-2d" x="254.492188"/>
       <use xlink:href="#DejaVuSans-30" x="290.576172"/>
       <use xlink:href="#DejaVuSans-39" x="354.199219"/>
       <use xlink:href="#DejaVuSans-2d" x="417.822266"/>
       <use xlink:href="#DejaVuSans-32" x="453.90625"/>
       <use xlink:href="#DejaVuSans-35" x="517.529297"/>
      </g>
     </g>
    </g>
    <g id="xtick_4">
     <g id="line2d_4">
      <g>
       <use xlink:href="#md2eb43b42c" x="267.183978" y="288" style="stroke: #000000; stroke-width: 0.8"/>
      </g>
     </g>
     <g id="text_4">
      <!-- 2023-09-29 -->
      <g transform="translate(205.540636 337.765903) rotate(-30) scale(0.12 -0.12)">
       <use xlink:href="#DejaVuSans-32"/>
       <use xlink:href="#DejaVuSans-30" x="63.623047"/>
       <use xlink:href="#DejaVuSans-32" x="127.246094"/>
       <use xlink:href="#DejaVuSans-33" x="190.869141"/>
       <use xlink:href="#DejaVuSans-2d" x="254.492188"/>
       <use xlink:href="#DejaVuSans-30" x="290.576172"/>
       <use xlink:href="#DejaVuSans-39" x="354.199219"/>
       <use xlink:href="#DejaVuSans-2d" x="417.822266"/>
       <use xlink:href="#DejaVuSans-32" x="453.90625"/>
       <use xlink:href="#DejaVuSans-39" x="517.529297"/>
      </g>
     </g>
    </g>
    <g id="xtick_5">
     <g id="line2d_5">
      <g>
       <use xlink:href="#md2eb43b42c" x="296.102138" y="288" style="stroke: #000000; stroke-width: 0.8"/>
      </g>
     </g>
     <g id="text_5">
      <!-- 2023-10-01 -->
      <g transform="translate(234.458796 337.765903) rotate(-30) scale(0.12 -0.12)">
       <use xlink:href="#DejaVuSans-32"/>
       <use xlink:href="#DejaVuSans-30" x="63.623047"/>
       <use xlink:href="#DejaVuSans-32" x="127.246094"/>
       <use xlink:href="#DejaVuSans-33" x="190.869141"/>
       <use xlink:href="#DejaVuSans-2d" x="254.492188"/>
       <use xlink:href="#DejaVuSans-31" x="290.576172"/>
       <use xlink:href="#DejaVuSans-30" x="354.199219"/>
       <use xlink:href="#DejaVuSans-2d" x="417.822266"/>
       <use xlink:href="#DejaVuSans-30" x="453.90625"/>
       <use xlink:href="#DejaVuSans-31" x="517.529297"/>
      </g>
     </g>
    </g>
    <g id="xtick_6">
     <g id="line2d_6">
      <g>
       <use xlink:href="#md2eb43b42c" x="353.938458" y="288" style="stroke: #000000; stroke-width: 0.8"/>
      </g>
     </g>
     <g id="text_6">
      <!-- 2023-10-05 -->
      <g transform="translate(292.295117 337.765903) rotate(-30) scale(0.12 -0.12)">
       <use xlink:href="#DejaVuSans-32"/>
       <use xlink:href="#DejaVuSans-30" x="63.623047"/>
       <use xlink:href="#DejaVuSans-32" x="127.246094"/>
       <use xlink:href="#DejaVuSans-33" x="190.869141"/>
       <use xlink:href="#DejaVuSans-2d" x="254.492188"/>
       <use xlink:href="#DejaVuSans-31" x="290.576172"/>
       <use xlink:href="#DejaVuSans-30" x="354.199219"/>
       <use xlink:href="#DejaVuSans-2d" x="417.822266"/>
       <use xlink:href="#DejaVuSans-30" x="453.90625"/>
       <use xlink:href="#DejaVuSans-35" x="517.529297"/>
      </g>
     </g>
    </g>
    <g id="xtick_7">
     <g id="line2d_7">
      <g>
       <use xlink:href="#md2eb43b42c" x="411.774779" y="288" style="stroke: #000000; stroke-width: 0.8"/>
      </g>
     </g>
     <g id="text_7">
      <!-- 2023-10-09 -->
      <g transform="translate(350.131437 337.765903) rotate(-30) scale(0.12 -0.12)">
       <use xlink:href="#DejaVuSans-32"/>
       <use xlink:href="#DejaVuSans-30" x="63.623047"/>
       <use xlink:href="#DejaVuSans-32" x="127.246094"/>
       <use xlink:href="#DejaVuSans-33" x="190.869141"/>
       <use xlink:href="#DejaVuSans-2d" x="254.492188"/>
       <use xlink:href="#DejaVuSans-31" x="290.576172"/>
       <use xlink:href="#DejaVuSans-30" x="354.199219"/>
       <use xlink:href="#DejaVuSans-2d" x="417.822266"/>
       <use xlink:href="#DejaVuSans-30" x="453.90625"/>
       <use xlink:href="#DejaVuSans-39" x="517.529297"/>
      </g>
     </g>
    </g>
    <g id="xtick_8">
     <g id="line2d_8">
      <g>
       <use xlink:href="#md2eb43b42c" x="469.611099" y="288" style="stroke: #000000; stroke-width: 0.8"/>
      </g>
     </g>
     <g id="text_8">
      <!-- 2023-10-13 -->
      <g transform="translate(407.967757 337.765903) rotate(-30) scale(0.12 -0.12)">
       <use xlink:href="#DejaVuSans-32"/>
       <use xlink:href="#DejaVuSans-30" x="63.623047"/>
       <use xlink:href="#DejaVuSans-32" x="127.246094"/>
       <use xlink:href="#DejaVuSans-33" x="190.869141"/>
       <use xlink:href="#DejaVuSans-2d" x="254.492188"/>
       <use xlink:href="#DejaVuSans-31" x="290.576172"/>
       <use xlink:href="#DejaVuSans-30" x="354.199219"/>
       <use xlink:href="#DejaVuSans-2d" x="417.822266"/>
       <use xlink:href="#DejaVuSans-31" x="453.90625"/>
       <use xlink:href="#DejaVuSans-33" x="517.529297"/>
      </g>
     </g>
    </g>
    <g id="xtick_9">
     <g id="line2d_9">
      <g>
       <use xlink:href="#md2eb43b42c" x="527.44742" y="288" style="stroke: #000000; stroke-width: 0.8"/>
      </g>
     </g>
     <g id="text_9">
      <!-- 2023-10-17 -->
      <g transform="translate(465.804078 337.765903) rotate(-30) scale(0.12 -0.12)">
       <use xlink:href="#DejaVuSans-32"/>
       <use xlink:href="#DejaVuSans-30" x="63.623047"/>
       <use xlink:href="#DejaVuSans-32" x="127.246094"/>
       <use xlink:href="#DejaVuSans-33" x="190.869141"/>
       <use xlink:href="#DejaVuSans-2d" x="254.492188"/>
       <use xlink:href="#DejaVuSans-31" x="290.576172"/>
       <use xlink:href="#DejaVuSans-30" x="354.199219"/>
       <use xlink:href="#DejaVuSans-2d" x="417.822266"/>
       <use xlink:href="#DejaVuSans-31" x="453.90625"/>
       <use xlink:href="#DejaVuSans-37" x="517.529297"/>
      </g>
     </g>
    </g>
    <g id="xtick_10">
     <g id="line2d_10">
      <g>
       <use xlink:href="#md2eb43b42c" x="585.28374" y="288" style="stroke: #000000; stroke-width: 0.8"/>
      </g>
     </g>
     <g id="text_10">
      <!-- 2023-10-21 -->
      <g transform="translate(523.640398 337.765903) rotate(-30) scale(0.12 -0.12)">
       <use xlink:href="#DejaVuSans-32"/>
       <use xlink:href="#DejaVuSans-30" x="63.623047"/>
       <use xlink:href="#DejaVuSans-32" x="127.246094"/>
       <use xlink:href="#DejaVuSans-33" x="190.869141"/>
       <use xlink:href="#DejaVuSans-2d" x="254.492188"/>
       <use xlink:href="#DejaVuSans-31" x="290.576172"/>
       <use xlink:href="#DejaVuSans-30" x="354.199219"/>
       <use xlink:href="#DejaVuSans-2d" x="417.822266"/>
       <use xlink:href="#DejaVuSans-32" x="453.90625"/>
       <use xlink:href="#DejaVuSans-31" x="517.529297"/>
      </g>
     </g>
    </g>
    <g id="xtick_11">
     <g id="line2d_11">
      <g>
       <use xlink:href="#md2eb43b42c" x="643.12006" y="288" style="stroke: #000000; stroke-width: 0.8"/>
      </g>
     </g>
     <g id="text_11">
      <!-- 2023-10-25 -->
      <g transform="translate(581.476719 337.765903) rotate(-30) scale(0.12 -0.12)">
       <use xlink:href="#DejaVuSans-32"/>
       <use xlink:href="#DejaVuSans-30" x="63.623047"/>
       <use xlink:href="#DejaVuSans-32" x="127.246094"/>
       <use xlink:href="#DejaVuSans-33" x="190.869141"/>
       <use xlink:href="#DejaVuSans-2d" x="254.492188"/>
       <use xlink:href="#DejaVuSans-31" x="290.576172"/>
       <use xlink:href="#DejaVuSans-30" x="354.199219"/>
       <use xlink:href="#DejaVuSans-2d" x="417.822266"/>
       <use xlink:href="#DejaVuSans-32" x="453.90625"/>
       <use xlink:href="#DejaVuSans-35" x="517.529297"/>
      </g>
     </g>
    </g>
   </g>
   <g id="matplotlib.axis_2">
    <g id="ytick_1">
     <g id="line2d_12">
      <defs>
       <path id="m0f9410f3de" d="M 0 0 
L -3.5 0 
" style="stroke: #000000; stroke-width: 0.8"/>
      </defs>
      <g>
       <use xlink:href="#m0f9410f3de" x="90" y="261.222856" style="stroke: #000000; stroke-width: 0.8"/>
      </g>
     </g>
     <g id="text_12">
      <!-- 0.2 -->
      <g transform="translate(63.91625 265.781919) scale(0.12 -0.12)">
       <defs>
        <path id="DejaVuSans-2e" d="M 684 794 
L 1344 794 
L 1344 0 
L 684 0 
L 684 794 
z
" transform="scale(0.015625)"/>
       </defs>
       <use xlink:href="#DejaVuSans-30"/>
       <use xlink:href="#DejaVuSans-2e" x="63.623047"/>
       <use xlink:href="#DejaVuSans-32" x="95.410156"/>
      </g>
     </g>
    </g>
    <g id="ytick_2">
     <g id="line2d_13">
      <g>
       <use xlink:href="#m0f9410f3de" x="90" y="228.718241" style="stroke: #000000; stroke-width: 0.8"/>
      </g>
     </g>
     <g id="text_13">
      <!-- 0.4 -->
      <g transform="translate(63.91625 233.277304) scale(0.12 -0.12)">
       <defs>
        <path id="DejaVuSans-34" d="M 2419 4116 
L 825 1625 
L 2419 1625 
L 2419 4116 
z
M 2253 4666 
L 3047 4666 
L 3047 1625 
L 3713 1625 
L 3713 1100 
L 3047 1100 
L 3047 0 
L 2419 0 
L 2419 1100 
L 313 1100 
L 313 1709 
L 2253 4666 
z
" transform="scale(0.015625)"/>
       </defs>
       <use xlink:href="#DejaVuSans-30"/>
       <use xlink:href="#DejaVuSans-2e" x="63.623047"/>
       <use xlink:href="#DejaVuSans-34" x="95.410156"/>
      </g>
     </g>
    </g>
    <g id="ytick_3">
     <g id="line2d_14">
      <g>
       <use xlink:href="#m0f9410f3de" x="90" y="196.213626" style="stroke: #000000; stroke-width: 0.8"/>
      </g>
     </g>
     <g id="text_14">
      <!-- 0.6 -->
      <g transform="translate(63.91625 200.772688) scale(0.12 -0.12)">
       <defs>
        <path id="DejaVuSans-36" d="M 2113 2584 
Q 1688 2584 1439 2293 
Q 1191 2003 1191 1497 
Q 1191 994 1439 701 
Q 1688 409 2113 409 
Q 2538 409 2786 701 
Q 3034 994 3034 1497 
Q 3034 2003 2786 2293 
Q 2538 2584 2113 2584 
z
M 3366 4563 
L 3366 3988 
Q 3128 4100 2886 4159 
Q 2644 4219 2406 4219 
Q 1781 4219 1451 3797 
Q 1122 3375 1075 2522 
Q 1259 2794 1537 2939 
Q 1816 3084 2150 3084 
Q 2853 3084 3261 2657 
Q 3669 2231 3669 1497 
Q 3669 778 3244 343 
Q 2819 -91 2113 -91 
Q 1303 -91 875 529 
Q 447 1150 447 2328 
Q 447 3434 972 4092 
Q 1497 4750 2381 4750 
Q 2619 4750 2861 4703 
Q 3103 4656 3366 4563 
z
" transform="scale(0.015625)"/>
       </defs>
       <use xlink:href="#DejaVuSans-30"/>
       <use xlink:href="#DejaVuSans-2e" x="63.623047"/>
       <use xlink:href="#DejaVuSans-36" x="95.410156"/>
      </g>
     </g>
    </g>
    <g id="ytick_4">
     <g id="line2d_15">
      <g>
       <use xlink:href="#m0f9410f3de" x="90" y="163.70901" style="stroke: #000000; stroke-width: 0.8"/>
      </g>
     </g>
     <g id="text_15">
      <!-- 0.8 -->
      <g transform="translate(63.91625 168.268073) scale(0.12 -0.12)">
       <defs>
        <path id="DejaVuSans-38" d="M 2034 2216 
Q 1584 2216 1326 1975 
Q 1069 1734 1069 1313 
Q 1069 891 1326 650 
Q 1584 409 2034 409 
Q 2484 409 2743 651 
Q 3003 894 3003 1313 
Q 3003 1734 2745 1975 
Q 2488 2216 2034 2216 
z
M 1403 2484 
Q 997 2584 770 2862 
Q 544 3141 544 3541 
Q 544 4100 942 4425 
Q 1341 4750 2034 4750 
Q 2731 4750 3128 4425 
Q 3525 4100 3525 3541 
Q 3525 3141 3298 2862 
Q 3072 2584 2669 2484 
Q 3125 2378 3379 2068 
Q 3634 1759 3634 1313 
Q 3634 634 3220 271 
Q 2806 -91 2034 -91 
Q 1263 -91 848 271 
Q 434 634 434 1313 
Q 434 1759 690 2068 
Q 947 2378 1403 2484 
z
M 1172 3481 
Q 1172 3119 1398 2916 
Q 1625 2713 2034 2713 
Q 2441 2713 2670 2916 
Q 2900 3119 2900 3481 
Q 2900 3844 2670 4047 
Q 2441 4250 2034 4250 
Q 1625 4250 1398 4047 
Q 1172 3844 1172 3481 
z
" transform="scale(0.015625)"/>
       </defs>
       <use xlink:href="#DejaVuSans-30"/>
       <use xlink:href="#DejaVuSans-2e" x="63.623047"/>
       <use xlink:href="#DejaVuSans-38" x="95.410156"/>
      </g>
     </g>
    </g>
    <g id="ytick_5">
     <g id="line2d_16">
      <g>
       <use xlink:href="#m0f9410f3de" x="90" y="131.204395" style="stroke: #000000; stroke-width: 0.8"/>
      </g>
     </g>
     <g id="text_16">
      <!-- 1.0 -->
      <g transform="translate(63.91625 135.763458) scale(0.12 -0.12)">
       <use xlink:href="#DejaVuSans-31"/>
       <use xlink:href="#DejaVuSans-2e" x="63.623047"/>
       <use xlink:href="#DejaVuSans-30" x="95.410156"/>
      </g>
     </g>
    </g>
    <g id="ytick_6">
     <g id="line2d_17">
      <g>
       <use xlink:href="#m0f9410f3de" x="90" y="98.69978" style="stroke: #000000; stroke-width: 0.8"/>
      </g>
     </g>
     <g id="text_17">
      <!-- 1.2 -->
      <g transform="translate(63.91625 103.258842) scale(0.12 -0.12)">
       <use xlink:href="#DejaVuSans-31"/>
       <use xlink:href="#DejaVuSans-2e" x="63.623047"/>
       <use xlink:href="#DejaVuSans-32" x="95.410156"/>
      </g>
     </g>
    </g>
    <g id="ytick_7">
     <g id="line2d_18">
      <g>
       <use xlink:href="#m0f9410f3de" x="90" y="66.195164" style="stroke: #000000; stroke-width: 0.8"/>
      </g>
     </g>
     <g id="text_18">
      <!-- 1.4 -->
      <g transform="translate(63.91625 70.754227) scale(0.12 -0.12)">
       <use xlink:href="#DejaVuSans-31"/>
       <use xlink:href="#DejaVuSans-2e" x="63.623047"/>
       <use xlink:href="#DejaVuSans-34" x="95.410156"/>
      </g>
     </g>
    </g>
    <g id="text_19">
     <!-- Meters -->
     <g transform="translate(57.836562 182.6875) rotate(-90) scale(0.1 -0.1)">
      <defs>
       <path id="DejaVuSans-4d" d="M 628 4666 
L 1569 4666 
L 2759 1491 
L 3956 4666 
L 4897 4666 
L 4897 0 
L 4281 0 
L 4281 4097 
L 3078 897 
L 2444 897 
L 1241 4097 
L 1241 0 
L 628 0 
L 628 4666 
z
" transform="scale(0.015625)"/>
       <path id="DejaVuSans-65" d="M 3597 1894 
L 3597 1613 
L 953 1613 
Q 991 1019 1311 708 
Q 1631 397 2203 397 
Q 2534 397 2845 478 
Q 3156 559 3463 722 
L 3463 178 
Q 3153 47 2828 -22 
Q 2503 -91 2169 -91 
Q 1331 -91 842 396 
Q 353 884 353 1716 
Q 353 2575 817 3079 
Q 1281 3584 2069 3584 
Q 2775 3584 3186 3129 
Q 3597 2675 3597 1894 
z
M 3022 2063 
Q 3016 2534 2758 2815 
Q 2500 3097 2075 3097 
Q 1594 3097 1305 2825 
Q 1016 2553 972 2059 
L 3022 2063 
z
" transform="scale(0.015625)"/>
       <path id="DejaVuSans-74" d="M 1172 4494 
L 1172 3500 
L 2356 3500 
L 2356 3053 
L 1172 3053 
L 1172 1153 
Q 1172 725 1289 603 
Q 1406 481 1766 481 
L 2356 481 
L 2356 0 
L 1766 0 
Q 1100 0 847 248 
Q 594 497 594 1153 
L 594 3053 
L 172 3053 
L 172 3500 
L 594 3500 
L 594 4494 
L 1172 4494 
z
" transform="scale(0.015625)"/>
       <path id="DejaVuSans-72" d="M 2631 2963 
Q 2534 3019 2420 3045 
Q 2306 3072 2169 3072 
Q 1681 3072 1420 2755 
Q 1159 2438 1159 1844 
L 1159 0 
L 581 0 
L 581 3500 
L 1159 3500 
L 1159 2956 
Q 1341 3275 1631 3429 
Q 1922 3584 2338 3584 
Q 2397 3584 2469 3576 
Q 2541 3569 2628 3553 
L 2631 2963 
z
" transform="scale(0.015625)"/>
       <path id="DejaVuSans-73" d="M 2834 3397 
L 2834 2853 
Q 2591 2978 2328 3040 
Q 2066 3103 1784 3103 
Q 1356 3103 1142 2972 
Q 928 2841 928 2578 
Q 928 2378 1081 2264 
Q 1234 2150 1697 2047 
L 1894 2003 
Q 2506 1872 2764 1633 
Q 3022 1394 3022 966 
Q 3022 478 2636 193 
Q 2250 -91 1575 -91 
Q 1294 -91 989 -36 
Q 684 19 347 128 
L 347 722 
Q 666 556 975 473 
Q 1284 391 1588 391 
Q 1994 391 2212 530 
Q 2431 669 2431 922 
Q 2431 1156 2273 1281 
Q 2116 1406 1581 1522 
L 1381 1569 
Q 847 1681 609 1914 
Q 372 2147 372 2553 
Q 372 3047 722 3315 
Q 1072 3584 1716 3584 
Q 2034 3584 2315 3537 
Q 2597 3491 2834 3397 
z
" transform="scale(0.015625)"/>
      </defs>
      <use xlink:href="#DejaVuSans-4d"/>
      <use xlink:href="#DejaVuSans-65" x="86.279297"/>
      <use xlink:href="#DejaVuSans-74" x="147.802734"/>
      <use xlink:href="#DejaVuSans-65" x="187.011719"/>
      <use xlink:href="#DejaVuSans-72" x="248.535156"/>
      <use xlink:href="#DejaVuSans-73" x="289.648438"/>
     </g>
    </g>
   </g>
   <g id="line2d_19">
    <path d="M 115.363636 268.829894 
L 115.966098 268.938215 
L 116.56856 272.377407 
L 117.171021 271.402518 
L 117.773483 271.212956 
L 118.978406 271.212956 
L 119.580868 271.050475 
L 120.18333 270.481789 
L 120.785791 271.294197 
L 121.388253 270.210987 
L 121.990715 270.346388 
L 123.195638 269.669382 
L 123.7981 269.533981 
L 124.400561 269.263178 
L 125.003023 269.669382 
L 125.605485 269.669382 
L 126.207946 270.048505 
L 127.41287 270.183907 
L 128.015331 269.777703 
L 129.220255 269.506901 
L 129.822716 268.721573 
L 130.425178 268.34245 
L 131.630101 271.781641 
L 132.232563 271.889962 
L 132.835025 271.375438 
L 133.437487 271.158796 
L 134.039948 271.212956 
L 135.244872 270.400549 
L 135.847333 270.319308 
L 136.449795 268.992376 
L 137.052257 269.615222 
L 137.654718 269.019456 
L 138.25718 268.992376 
L 138.859642 267.990407 
L 139.462103 268.640333 
L 140.064565 268.532012 
L 141.269488 268.884055 
L 141.87195 269.236098 
L 143.076873 270.292228 
L 143.679335 269.913104 
L 144.281797 269.209018 
L 144.884258 269.561061 
L 145.48672 270.996314 
L 146.089182 271.592079 
L 146.691643 271.348357 
L 147.294105 270.969234 
L 147.896567 270.969234 
L 148.499028 270.346388 
L 149.10149 271.077555 
L 149.703952 272.621129 
L 150.306413 271.104635 
L 150.908875 270.265147 
L 151.511337 270.048505 
L 152.113798 269.317339 
L 153.318722 268.829894 
L 153.921183 268.884055 
L 154.523645 269.073617 
L 155.126107 269.073617 
L 155.728568 269.371499 
L 156.933492 270.183907 
L 157.535953 270.460125 
L 158.138415 270.942154 
L 158.740877 270.752592 
L 159.343338 270.779672 
L 159.9458 273.325215 
L 160.548262 274.218863 
L 161.150723 273.650178 
L 161.753185 272.594049 
L 162.355647 272.72945 
L 163.56057 271.592079 
L 164.163032 271.917042 
L 164.765493 271.944123 
L 165.367955 270.996314 
L 165.970417 270.50887 
L 166.572878 269.777703 
L 167.17534 269.588141 
L 167.777802 269.858944 
L 168.380263 269.777703 
L 170.187648 270.183907 
L 171.392572 270.021425 
L 172.597495 269.967265 
L 173.199957 269.47982 
L 173.802418 269.777703 
L 174.40488 272.052444 
L 175.007342 273.000252 
L 175.609803 272.648209 
L 176.212265 271.64624 
L 176.814727 273.243974 
L 177.417189 272.323246 
L 178.01965 270.806752 
L 178.622112 272.458647 
L 179.224574 272.539888 
L 179.827035 270.969234 
L 181.031959 269.344419 
L 181.63442 269.45274 
L 182.236882 269.317339 
L 182.839344 269.317339 
L 183.441805 269.181938 
L 184.646729 270.075586 
L 185.24919 270.265147 
L 185.851652 270.265147 
L 186.454114 271.023394 
L 187.056575 270.779672 
L 187.659037 270.156826 
L 188.261499 270.210987 
L 188.86396 272.72945 
L 189.466422 271.944123 
L 190.068884 271.67332 
L 190.671345 272.025363 
L 191.273807 271.917042 
L 191.876269 271.267117 
L 192.47873 271.889962 
L 193.081192 272.079524 
L 193.683654 270.860913 
L 194.286115 271.267117 
L 194.888577 271.402518 
L 196.0935 269.723543 
L 196.695962 269.236098 
L 197.298424 270.59011 
L 197.900885 270.860913 
L 198.503347 270.806752 
L 199.105809 271.131715 
L 199.70827 271.050475 
L 200.913194 271.321277 
L 202.118117 271.050475 
L 202.720579 270.644271 
L 203.32304 272.648209 
L 203.925502 273.271055 
L 204.527964 273.325215 
L 205.732887 271.592079 
L 206.335349 271.510839 
L 207.540272 270.969234 
L 208.745195 271.267117 
L 209.347657 269.994345 
L 209.950119 269.39858 
L 210.55258 269.046536 
L 211.155042 269.263178 
L 211.757504 269.290259 
L 212.359965 269.45274 
L 214.16735 270.996314 
L 214.769812 271.348357 
L 215.372274 235.737835 
L 215.974735 272.404487 
L 216.577197 272.269086 
L 217.179659 271.61916 
L 217.78212 273.352295 
L 218.384582 272.323246 
L 219.589506 272.404487 
L 220.191967 271.483758 
L 220.794429 271.158796 
L 221.396891 270.996314 
L 221.999352 270.698431 
L 222.601814 269.723543 
L 223.806737 270.617191 
L 224.409199 269.42566 
L 225.011661 269.777703 
L 225.614122 269.236098 
L 226.216584 269.39858 
L 226.819046 269.994345 
L 227.421507 269.886024 
L 228.626431 271.077555 
L 229.228892 270.806752 
L 229.831354 271.050475 
L 230.433816 272.079524 
L 231.036277 271.104635 
L 231.638739 270.698431 
L 232.241201 271.240036 
L 234.048586 272.160765 
L 234.651047 271.131715 
L 235.253509 270.644271 
L 235.855971 269.696462 
L 236.458432 269.344419 
L 237.060894 268.748654 
L 237.663356 268.856975 
L 238.265817 268.31537 
L 238.868279 268.640333 
L 239.470741 268.613253 
L 240.073202 268.721573 
L 241.278126 269.344419 
L 241.880587 269.344419 
L 243.085511 269.615222 
L 243.687972 270.102666 
L 244.290434 270.752592 
L 244.892896 270.860913 
L 245.495357 271.348357 
L 246.097819 270.969234 
L 246.700281 271.050475 
L 247.302742 270.969234 
L 247.905204 271.429598 
L 249.110127 269.669382 
L 249.712589 269.39858 
L 250.315051 268.396611 
L 250.917512 268.044567 
L 251.519974 267.448802 
L 252.122436 267.584203 
L 252.724897 267.28632 
L 253.327359 267.475882 
L 253.929821 268.207049 
L 254.532282 268.667413 
L 255.737206 270.373468 
L 256.339667 270.617191 
L 256.942129 270.238067 
L 257.544591 270.481789 
L 258.749514 271.348357 
L 259.351976 271.321277 
L 259.954437 272.052444 
L 260.556899 272.079524 
L 261.159361 273.108573 
L 261.761823 274.95003 
L 262.364284 273.81266 
L 262.966746 273.596018 
L 263.569208 273.8939 
L 264.171669 272.75653 
L 264.774131 272.431567 
L 265.376593 272.431567 
L 265.979054 271.077555 
L 266.581516 270.833833 
L 267.183978 270.156826 
L 267.786439 269.994345 
L 268.388901 270.265147 
L 268.991363 270.183907 
L 270.196286 270.942154 
L 270.798748 271.564999 
L 271.401209 271.483758 
L 272.003671 271.998283 
L 272.606133 272.079524 
L 273.208594 272.323246 
L 273.811056 272.75653 
L 274.413518 272.323246 
L 275.015979 272.72945 
L 275.618441 275.410394 
L 276.220903 274.083462 
L 276.823364 273.704339 
L 277.425826 272.377407 
L 278.028288 271.889962 
L 278.630749 271.67332 
L 279.835673 270.860913 
L 281.040596 271.104635 
L 281.643058 270.806752 
L 282.847981 269.154857 
L 283.450443 267.20508 
L 284.052904 266.419753 
L 284.655366 266.717635 
L 285.257828 266.771796 
L 285.860289 267.340481 
L 286.462751 267.367561 
L 287.065213 268.207049 
L 288.270136 271.321277 
L 288.872598 271.835802 
L 289.475059 273.027332 
L 290.077521 275.654116 
L 290.679983 275.708277 
L 291.282444 275.356234 
L 291.884906 275.220832 
L 292.487368 274.029302 
L 293.089829 273.298135 
L 293.692291 271.7004 
L 294.294753 272.160765 
L 294.897214 270.183907 
L 296.102138 267.800845 
L 296.704599 268.044567 
L 297.307061 268.504932 
L 297.909523 268.31537 
L 298.511984 268.613253 
L 299.114446 268.450771 
L 299.716908 269.046536 
L 300.319369 271.050475 
L 300.921831 271.429598 
L 301.524293 272.431567 
L 302.126754 272.485728 
L 302.729216 272.323246 
L 303.934139 270.915073 
L 304.536601 273.243974 
L 305.139063 274.191783 
L 305.741525 274.029302 
L 306.343986 273.650178 
L 306.946448 273.081493 
L 307.54891 274.327184 
L 308.151371 274.002221 
L 308.753833 273.81266 
L 310.561218 270.102666 
L 311.766141 270.238067 
L 312.368603 270.942154 
L 312.971065 270.833833 
L 313.573526 271.158796 
L 314.175988 271.321277 
L 314.77845 271.754561 
L 315.380911 272.025363 
L 315.983373 273.027332 
L 317.188296 273.189814 
L 317.790758 273.189814 
L 318.39322 273.758499 
L 318.995681 276.872727 
L 321.405528 274.300104 
L 322.00799 274.083462 
L 322.610451 274.435505 
L 323.212913 274.164703 
L 323.815375 273.108573 
L 324.417836 273.379376 
L 325.62276 271.61916 
L 326.827683 271.050475 
L 327.430145 271.212956 
L 328.032606 271.64624 
L 329.23753 271.971203 
L 329.839991 272.269086 
L 330.442453 272.350326 
L 331.647376 272.025363 
L 332.249838 271.429598 
L 332.8523 272.458647 
L 333.454761 274.841709 
L 334.659685 274.408425 
L 335.262146 273.108573 
L 335.864608 273.81266 
L 336.46707 272.891931 
L 337.069531 273.596018 
L 337.671993 273.596018 
L 338.274455 271.998283 
L 338.876916 273.298135 
L 339.479378 272.214925 
L 340.08184 271.592079 
L 341.286763 270.996314 
L 341.889225 271.456678 
L 342.491686 271.7004 
L 343.094148 271.7004 
L 343.69661 271.537919 
L 344.299071 271.077555 
L 344.901533 271.212956 
L 346.106456 271.023394 
L 346.708918 269.777703 
L 348.516303 271.294197 
L 349.118765 272.133684 
L 349.721227 272.675289 
L 350.323688 272.106604 
L 350.92615 272.187845 
L 352.131073 271.971203 
L 352.733535 272.458647 
L 353.938458 270.915073 
L 355.143382 270.210987 
L 355.745843 269.263178 
L 356.348305 269.723543 
L 356.950767 270.400549 
L 357.553228 269.831864 
L 358.758152 269.45274 
L 359.360613 269.750623 
L 359.963075 270.53595 
L 360.565537 270.887993 
L 361.167998 271.61916 
L 361.77046 271.456678 
L 362.372922 271.64624 
L 363.577845 273.298135 
L 364.180307 273.704339 
L 365.38523 273.704339 
L 365.987692 273.758499 
L 366.590153 273.135653 
L 367.192615 273.216894 
L 368.397538 271.510839 
L 369 270.942154 
L 369.602462 269.696462 
L 370.204923 269.344419 
L 370.807385 269.858944 
L 371.409847 269.615222 
L 372.012308 270.50887 
L 372.61477 270.644271 
L 373.217232 270.617191 
L 373.819693 269.967265 
L 374.422155 270.56303 
L 375.024617 271.456678 
L 375.627078 271.483758 
L 376.22954 270.779672 
L 376.832002 272.404487 
L 377.434463 273.162734 
L 378.036925 273.379376 
L 379.241848 272.891931 
L 380.446772 272.052444 
L 381.651695 272.052444 
L 382.254157 271.294197 
L 382.856618 270.265147 
L 383.45908 270.075586 
L 384.061542 269.181938 
L 384.664003 268.721573 
L 385.266465 268.450771 
L 386.471388 268.721573 
L 387.07385 267.827925 
L 387.676312 268.28829 
L 388.278773 267.665444 
L 388.881235 267.800845 
L 389.483697 267.611283 
L 391.893544 267.719604 
L 393.098467 268.721573 
L 393.700929 268.748654 
L 394.905852 266.853037 
L 395.508314 266.555154 
L 396.110775 266.582234 
L 396.713237 266.365592 
L 415.389549 269.669382 
L 415.99201 269.696462 
L 417.196934 268.802814 
L 417.799395 267.096759 
L 418.401857 267.367561 
L 419.004319 268.017487 
L 420.209242 271.104635 
L 420.811704 271.104635 
L 421.414165 271.727481 
L 422.016627 271.889962 
L 423.22155 271.131715 
L 423.824012 271.050475 
L 424.426474 270.265147 
L 425.028935 270.56303 
L 425.631397 269.669382 
L 426.83632 269.615222 
L 427.438782 269.45274 
L 428.041244 270.156826 
L 428.643705 270.454709 
L 429.246167 270.156826 
L 429.848629 270.238067 
L 430.45109 270.129746 
L 431.053552 269.588141 
L 431.656014 269.669382 
L 432.258475 269.940185 
L 432.860937 270.021425 
L 434.065861 270.53595 
L 434.668322 271.050475 
L 435.270784 270.644271 
L 437.078169 271.483758 
L 437.680631 271.510839 
L 438.283092 271.131715 
L 438.885554 270.996314 
L 440.692939 269.42566 
L 441.295401 269.588141 
L 442.500324 269.669382 
L 443.102786 269.858944 
L 443.705247 270.887993 
L 444.910171 270.996314 
L 445.512632 270.56303 
L 447.320017 271.077555 
L 447.922479 270.806752 
L 448.524941 270.752592 
L 449.127402 270.427629 
L 449.729864 273.189814 
L 450.332326 272.404487 
L 450.934787 272.214925 
L 451.537249 272.458647 
L 452.139711 272.539888 
L 452.742172 273.541857 
L 453.947096 273.83974 
L 454.549557 273.785579 
L 455.152019 273.243974 
L 455.754481 273.135653 
L 456.356942 273.325215 
L 456.959404 273.135653 
L 457.561866 273.135653 
L 458.164327 273.325215 
L 459.369251 272.052444 
L 459.971712 272.242005 
L 460.574174 271.402518 
L 461.176636 271.483758 
L 461.779097 270.915073 
L 462.984021 271.131715 
L 463.586482 272.648209 
L 464.188944 272.214925 
L 464.791406 272.431567 
L 465.393867 273.568937 
L 465.996329 273.650178 
L 466.598791 272.458647 
L 467.803714 272.296166 
L 468.406176 272.323246 
L 469.008637 271.592079 
L 469.611099 271.294197 
L 470.213561 271.592079 
L 470.816022 271.483758 
L 471.418484 271.808721 
L 472.020946 271.402518 
L 473.225869 271.7004 
L 475.635716 271.158796 
L 476.238177 270.833833 
L 476.840639 271.131715 
L 478.045563 272.512808 
L 478.648024 272.72945 
L 479.250486 272.675289 
L 479.852948 272.78361 
L 480.455409 272.404487 
L 481.057871 271.754561 
L 481.660333 271.294197 
L 482.262794 270.56303 
L 483.467718 270.617191 
L 484.070179 270.265147 
L 484.672641 270.806752 
L 485.275103 270.806752 
L 485.877564 271.104635 
L 486.480026 270.021425 
L 487.684949 268.396611 
L 490.094796 267.475882 
L 490.697258 266.907197 
L 491.299719 267.123839 
L 492.504643 267.069679 
L 493.107104 268.017487 
L 493.709566 268.667413 
L 494.312028 268.504932 
L 494.914489 268.694493 
L 495.516951 268.640333 
L 496.119413 267.665444 
L 496.721874 268.640333 
L 497.324336 268.856975 
L 499.131721 269.940185 
L 499.734183 269.100697 
L 500.336644 268.504932 
L 501.541568 268.152888 
L 502.144029 267.882086 
L 502.746491 267.909166 
L 503.348953 268.152888 
L 503.951414 268.071648 
L 505.156338 268.667413 
L 506.963723 268.694493 
L 507.566184 270.183907 
L 508.771108 270.454709 
L 509.373569 271.050475 
L 510.578493 270.806752 
L 511.180954 270.454709 
L 511.783416 270.373468 
L 512.385878 270.698431 
L 512.988339 270.238067 
L 513.590801 270.725512 
L 514.193263 270.671351 
L 515.398186 270.752592 
L 516.603109 270.887993 
L 517.808033 269.39858 
L 518.410494 269.669382 
L 519.615418 269.940185 
L 520.21788 270.265147 
L 520.820341 270.400549 
L 522.627726 271.7004 
L 523.230188 273.054413 
L 523.83265 273.704339 
L 524.435111 273.785579 
L 525.037573 273.731419 
L 525.640035 272.70237 
L 526.242496 272.431567 
L 526.844958 271.61916 
L 527.44742 272.75653 
L 528.049881 272.70237 
L 528.652343 274.408425 
L 529.254805 275.627036 
L 529.857266 275.166672 
L 530.459728 274.191783 
L 531.06219 272.891931 
L 531.664651 272.864851 
L 532.267113 272.242005 
L 532.869575 271.862882 
L 533.472036 270.860913 
L 534.074498 270.833833 
L 534.67696 271.212956 
L 535.279421 271.023394 
L 536.484345 272.106604 
L 537.086806 273.081493 
L 537.689268 273.704339 
L 538.29173 273.596018 
L 538.894191 273.189814 
L 539.496653 273.650178 
L 540.701576 273.487697 
L 541.304038 273.86682 
L 541.9065 273.433536 
L 542.508961 273.948061 
L 543.111423 274.002221 
L 543.713885 274.516746 
L 544.316346 274.408425 
L 544.918808 274.137623 
L 545.52127 273.704339 
L 546.123731 272.891931 
L 548.533578 273.271055 
L 549.738501 272.72945 
L 550.340963 270.942154 
L 550.943425 271.456678 
L 551.545886 273.568937 
L 552.75081 274.300104 
L 553.353271 273.460616 
L 553.955733 273.189814 
L 554.558195 273.271055 
L 555.160656 274.97711 
L 555.763118 275.058351 
L 556.36558 274.462585 
L 556.968041 274.597987 
L 557.570503 273.596018 
L 558.172965 274.895869 
L 558.775426 275.762437 
L 559.377888 275.843678 
L 559.98035 275.085431 
L 561.185273 274.273024 
L 561.787735 273.189814 
L 562.390197 273.406456 
L 562.992658 273.027332 
L 563.59512 273.081493 
L 564.800043 272.594049 
L 565.402505 271.131715 
L 566.004967 272.566968 
L 566.607428 272.891931 
L 567.812352 272.891931 
L 569.017275 272.864851 
L 569.619737 273.243974 
L 570.82466 273.271055 
L 571.427122 273.081493 
L 572.029583 273.406456 
L 572.632045 273.514777 
L 573.234507 273.352295 
L 573.836968 273.352295 
L 574.43943 272.810691 
L 575.644353 271.971203 
L 578.656662 271.64624 
L 579.861585 272.242005 
L 580.464047 272.864851 
L 581.66897 273.352295 
L 582.271432 273.568937 
L 582.873893 273.298135 
L 583.476355 272.675289 
L 584.078817 272.594049 
L 584.681278 272.187845 
L 585.886202 272.269086 
L 586.488663 273.162734 
L 587.091125 273.596018 
L 587.693587 273.460616 
L 588.296048 273.8939 
L 589.500972 273.514777 
L 590.705895 272.160765 
L 593.115742 272.214925 
L 593.718203 271.808721 
L 594.320665 272.946092 
L 594.923127 274.435505 
L 595.525588 274.462585 
L 596.12805 274.679227 
L 596.730512 275.058351 
L 597.332973 274.218863 
L 598.537897 273.298135 
L 599.140358 272.566968 
L 600.345282 272.485728 
L 600.947743 272.837771 
L 601.550205 272.594049 
L 602.152667 272.539888 
L 602.755128 273.948061 
L 603.35759 273.271055 
L 603.960052 272.133684 
L 605.164975 271.7004 
L 605.767437 271.104635 
L 606.369899 271.429598 
L 606.97236 271.050475 
L 607.574822 271.023394 
L 609.382207 273.379376 
L 610.58713 274.516746 
L 611.189592 273.975141 
L 612.394515 273.83974 
L 613.599439 274.543826 
L 614.804362 273.325215 
L 615.406824 273.216894 
L 616.009285 272.864851 
L 617.81667 272.512808 
L 619.021594 273.86682 
L 619.624055 273.948061 
L 620.226517 273.623098 
L 620.828979 273.86682 
L 621.43144 273.135653 
L 622.033902 272.594049 
L 622.636364 273.027332 
L 622.636364 273.027332 
" clip-path="url(#peb794aa764)" style="fill: none; stroke: #1f77b4; stroke-width: 1.5; stroke-linecap: square"/>
   </g>
   <g id="line2d_20">
    <path d="M 115.363636 269.127777 
L 127.41287 269.221411 
L 129.220255 269.391475 
L 129.822716 269.777703 
L 132.835025 270.323358 
L 143.679335 272.727131 
L 144.281797 269.777703 
L 147.294105 270.124098 
L 150.908875 270.32471 
L 157.535953 270.413272 
L 158.138415 270.414871 
L 158.740877 270.135162 
L 175.007342 270.14977 
L 175.609803 271.240036 
L 176.212265 271.240023 
L 176.814727 272.052444 
L 187.659037 272.044841 
L 188.261499 270.915073 
L 215.974735 270.910076 
L 216.577197 54.327273 
L 228.023969 56.305587 
L 230.433816 56.671466 
L 231.036277 271.077555 
L 232.241201 270.915957 
L 234.048586 270.397626 
L 235.855971 270.184793 
L 241.278126 270.169367 
L 247.302742 270.174628 
L 247.905204 271.564999 
L 250.917512 271.564111 
L 251.519974 269.290259 
L 259.351976 269.293671 
L 259.954437 271.240036 
L 261.761823 271.119114 
L 264.171669 271.032245 
L 265.979054 270.910728 
L 277.425826 270.905005 
L 288.270136 270.907794 
L 288.872598 269.127777 
L 302.729216 269.151875 
L 303.331678 272.377407 
L 317.188296 272.363949 
L 317.790758 273.027332 
L 331.647376 273.006364 
L 332.249838 272.214925 
L 346.106456 272.203346 
L 346.708918 271.564999 
L 360.565537 271.560934 
L 361.167998 270.102666 
L 367.192615 270.061852 
L 370.807385 269.531339 
L 371.409847 269.244892 
L 375.024617 268.552134 
L 375.627078 270.102666 
L 376.832002 270.004773 
L 389.483697 269.836391 
L 390.086158 267.827925 
L 392.496005 268.286713 
L 396.713237 269.153204 
L 415.99201 272.165502 
L 422.016627 272.473336 
L 431.053552 272.67351 
L 432.860937 272.691289 
L 433.463399 269.940185 
L 444.910171 269.851715 
L 447.320017 269.834701 
L 447.922479 270.265147 
L 461.779097 270.271375 
L 462.381559 272.052444 
L 470.213561 271.977323 
L 475.635716 271.858304 
L 482.262794 271.544251 
L 487.684949 271.442485 
L 490.697258 271.153199 
L 491.299719 267.502962 
L 493.107104 267.256997 
L 495.516951 266.80514 
L 497.324336 266.651175 
L 505.156338 266.666289 
L 505.758799 268.965296 
L 519.615418 268.91433 
L 520.21788 269.615222 
L 528.049881 270.979065 
L 532.267113 271.430289 
L 534.074498 271.552161 
L 534.67696 271.402518 
L 545.52127 271.847912 
L 548.533578 271.962048 
L 549.13604 273.189814 
L 558.775426 273.324739 
L 562.992658 273.339223 
L 563.59512 273.514777 
L 566.004967 273.409139 
L 569.619737 272.960544 
L 570.82466 272.939586 
L 572.632045 272.578869 
L 577.451738 272.591726 
L 578.0542 271.727481 
L 589.500972 271.836146 
L 596.12805 272.264224 
L 601.550205 273.101907 
L 606.369899 273.805599 
L 606.97236 271.564999 
L 617.214209 272.979659 
L 620.828979 273.289168 
L 621.43144 273.83974 
L 622.636364 273.868271 
L 622.636364 273.868271 
" clip-path="url(#peb794aa764)" style="fill: none; stroke: #ff7f0e; stroke-width: 1.5; stroke-linecap: square"/>
   </g>
   <g id="patch_3">
    <path d="M 90 288 
L 90 43.2 
" style="fill: none; stroke: #000000; stroke-width: 0.8; stroke-linejoin: miter; stroke-linecap: square"/>
   </g>
   <g id="patch_4">
    <path d="M 648 288 
L 648 43.2 
" style="fill: none; stroke: #000000; stroke-width: 0.8; stroke-linejoin: miter; stroke-linecap: square"/>
   </g>
   <g id="patch_5">
    <path d="M 90 288 
L 648 288 
" style="fill: none; stroke: #000000; stroke-width: 0.8; stroke-linejoin: miter; stroke-linecap: square"/>
   </g>
   <g id="patch_6">
    <path d="M 90 43.2 
L 648 43.2 
" style="fill: none; stroke: #000000; stroke-width: 0.8; stroke-linejoin: miter; stroke-linecap: square"/>
   </g>
   <g id="text_20">
    <!-- MDOT6440 -->
    <g transform="translate(335.545313 37.2) scale(0.12 -0.12)">
     <defs>
      <path id="DejaVuSans-44" d="M 1259 4147 
L 1259 519 
L 2022 519 
Q 2988 519 3436 956 
Q 3884 1394 3884 2338 
Q 3884 3275 3436 3711 
Q 2988 4147 2022 4147 
L 1259 4147 
z
M 628 4666 
L 1925 4666 
Q 3281 4666 3915 4102 
Q 4550 3538 4550 2338 
Q 4550 1131 3912 565 
Q 3275 0 1925 0 
L 628 0 
L 628 4666 
z
" transform="scale(0.015625)"/>
      <path id="DejaVuSans-4f" d="M 2522 4238 
Q 1834 4238 1429 3725 
Q 1025 3213 1025 2328 
Q 1025 1447 1429 934 
Q 1834 422 2522 422 
Q 3209 422 3611 934 
Q 4013 1447 4013 2328 
Q 4013 3213 3611 3725 
Q 3209 4238 2522 4238 
z
M 2522 4750 
Q 3503 4750 4090 4092 
Q 4678 3434 4678 2328 
Q 4678 1225 4090 567 
Q 3503 -91 2522 -91 
Q 1538 -91 948 565 
Q 359 1222 359 2328 
Q 359 3434 948 4092 
Q 1538 4750 2522 4750 
z
" transform="scale(0.015625)"/>
      <path id="DejaVuSans-54" d="M -19 4666 
L 3928 4666 
L 3928 4134 
L 2272 4134 
L 2272 0 
L 1638 0 
L 1638 4134 
L -19 4134 
L -19 4666 
z
" transform="scale(0.015625)"/>
     </defs>
     <use xlink:href="#DejaVuSans-4d"/>
     <use xlink:href="#DejaVuSans-44" x="86.279297"/>
     <use xlink:href="#DejaVuSans-4f" x="163.28125"/>
     <use xlink:href="#DejaVuSans-54" x="241.992188"/>
     <use xlink:href="#DejaVuSans-36" x="303.076172"/>
     <use xlink:href="#DejaVuSans-34" x="366.699219"/>
     <use xlink:href="#DejaVuSans-34" x="430.322266"/>
     <use xlink:href="#DejaVuSans-30" x="493.945312"/>
    </g>
   </g>
   <g id="legend_1">
    <g id="patch_7">
     <path d="M 559.04375 80.55625 
L 641 80.55625 
Q 643 80.55625 643 78.55625 
L 643 50.2 
Q 643 48.2 641 48.2 
L 559.04375 48.2 
Q 557.04375 48.2 557.04375 50.2 
L 557.04375 78.55625 
Q 557.04375 80.55625 559.04375 80.55625 
z
" style="fill: #ffffff; opacity: 0.8; stroke: #cccccc; stroke-linejoin: miter"/>
    </g>
    <g id="line2d_21">
     <path d="M 561.04375 56.298437 
L 571.04375 56.298437 
L 581.04375 56.298437 
" style="fill: none; stroke: #1f77b4; stroke-width: 1.5; stroke-linecap: square"/>
    </g>
    <g id="text_21">
     <!-- measured -->
     <g transform="translate(589.04375 59.798437) scale(0.1 -0.1)">
      <defs>
       <path id="DejaVuSans-6d" d="M 3328 2828 
Q 3544 3216 3844 3400 
Q 4144 3584 4550 3584 
Q 5097 3584 5394 3201 
Q 5691 2819 5691 2113 
L 5691 0 
L 5113 0 
L 5113 2094 
Q 5113 2597 4934 2840 
Q 4756 3084 4391 3084 
Q 3944 3084 3684 2787 
Q 3425 2491 3425 1978 
L 3425 0 
L 2847 0 
L 2847 2094 
Q 2847 2600 2669 2842 
Q 2491 3084 2119 3084 
Q 1678 3084 1418 2786 
Q 1159 2488 1159 1978 
L 1159 0 
L 581 0 
L 581 3500 
L 1159 3500 
L 1159 2956 
Q 1356 3278 1631 3431 
Q 1906 3584 2284 3584 
Q 2666 3584 2933 3390 
Q 3200 3197 3328 2828 
z
" transform="scale(0.015625)"/>
       <path id="DejaVuSans-61" d="M 2194 1759 
Q 1497 1759 1228 1600 
Q 959 1441 959 1056 
Q 959 750 1161 570 
Q 1363 391 1709 391 
Q 2188 391 2477 730 
Q 2766 1069 2766 1631 
L 2766 1759 
L 2194 1759 
z
M 3341 1997 
L 3341 0 
L 2766 0 
L 2766 531 
Q 2569 213 2275 61 
Q 1981 -91 1556 -91 
Q 1019 -91 701 211 
Q 384 513 384 1019 
Q 384 1609 779 1909 
Q 1175 2209 1959 2209 
L 2766 2209 
L 2766 2266 
Q 2766 2663 2505 2880 
Q 2244 3097 1772 3097 
Q 1472 3097 1187 3025 
Q 903 2953 641 2809 
L 641 3341 
Q 956 3463 1253 3523 
Q 1550 3584 1831 3584 
Q 2591 3584 2966 3190 
Q 3341 2797 3341 1997 
z
" transform="scale(0.015625)"/>
       <path id="DejaVuSans-75" d="M 544 1381 
L 544 3500 
L 1119 3500 
L 1119 1403 
Q 1119 906 1312 657 
Q 1506 409 1894 409 
Q 2359 409 2629 706 
Q 2900 1003 2900 1516 
L 2900 3500 
L 3475 3500 
L 3475 0 
L 2900 0 
L 2900 538 
Q 2691 219 2414 64 
Q 2138 -91 1772 -91 
Q 1169 -91 856 284 
Q 544 659 544 1381 
z
M 1991 3584 
L 1991 3584 
z
" transform="scale(0.015625)"/>
       <path id="DejaVuSans-64" d="M 2906 2969 
L 2906 4863 
L 3481 4863 
L 3481 0 
L 2906 0 
L 2906 525 
Q 2725 213 2448 61 
Q 2172 -91 1784 -91 
Q 1150 -91 751 415 
Q 353 922 353 1747 
Q 353 2572 751 3078 
Q 1150 3584 1784 3584 
Q 2172 3584 2448 3432 
Q 2725 3281 2906 2969 
z
M 947 1747 
Q 947 1113 1208 752 
Q 1469 391 1925 391 
Q 2381 391 2643 752 
Q 2906 1113 2906 1747 
Q 2906 2381 2643 2742 
Q 2381 3103 1925 3103 
Q 1469 3103 1208 2742 
Q 947 2381 947 1747 
z
" transform="scale(0.015625)"/>
      </defs>
      <use xlink:href="#DejaVuSans-6d"/>
      <use xlink:href="#DejaVuSans-65" x="97.412109"/>
      <use xlink:href="#DejaVuSans-61" x="158.935547"/>
      <use xlink:href="#DejaVuSans-73" x="220.214844"/>
      <use xlink:href="#DejaVuSans-75" x="272.314453"/>
      <use xlink:href="#DejaVuSans-72" x="335.693359"/>
      <use xlink:href="#DejaVuSans-65" x="374.556641"/>
      <use xlink:href="#DejaVuSans-64" x="436.080078"/>
     </g>
    </g>
    <g id="line2d_22">
     <path d="M 561.04375 70.976562 
L 571.04375 70.976562 
L 581.04375 70.976562 
" style="fill: none; stroke: #ff7f0e; stroke-width: 1.5; stroke-linecap: square"/>
    </g>
    <g id="text_22">
     <!-- predicted -->
     <g transform="translate(589.04375 74.476562) scale(0.1 -0.1)">
      <defs>
       <path id="DejaVuSans-70" d="M 1159 525 
L 1159 -1331 
L 581 -1331 
L 581 3500 
L 1159 3500 
L 1159 2969 
Q 1341 3281 1617 3432 
Q 1894 3584 2278 3584 
Q 2916 3584 3314 3078 
Q 3713 2572 3713 1747 
Q 3713 922 3314 415 
Q 2916 -91 2278 -91 
Q 1894 -91 1617 61 
Q 1341 213 1159 525 
z
M 3116 1747 
Q 3116 2381 2855 2742 
Q 2594 3103 2138 3103 
Q 1681 3103 1420 2742 
Q 1159 2381 1159 1747 
Q 1159 1113 1420 752 
Q 1681 391 2138 391 
Q 2594 391 2855 752 
Q 3116 1113 3116 1747 
z
" transform="scale(0.015625)"/>
       <path id="DejaVuSans-69" d="M 603 3500 
L 1178 3500 
L 1178 0 
L 603 0 
L 603 3500 
z
M 603 4863 
L 1178 4863 
L 1178 4134 
L 603 4134 
L 603 4863 
z
" transform="scale(0.015625)"/>
       <path id="DejaVuSans-63" d="M 3122 3366 
L 3122 2828 
Q 2878 2963 2633 3030 
Q 2388 3097 2138 3097 
Q 1578 3097 1268 2742 
Q 959 2388 959 1747 
Q 959 1106 1268 751 
Q 1578 397 2138 397 
Q 2388 397 2633 464 
Q 2878 531 3122 666 
L 3122 134 
Q 2881 22 2623 -34 
Q 2366 -91 2075 -91 
Q 1284 -91 818 406 
Q 353 903 353 1747 
Q 353 2603 823 3093 
Q 1294 3584 2113 3584 
Q 2378 3584 2631 3529 
Q 2884 3475 3122 3366 
z
" transform="scale(0.015625)"/>
      </defs>
      <use xlink:href="#DejaVuSans-70"/>
      <use xlink:href="#DejaVuSans-72" x="63.476562"/>
      <use xlink:href="#DejaVuSans-65" x="102.339844"/>
      <use xlink:href="#DejaVuSans-64" x="163.863281"/>
      <use xlink:href="#DejaVuSans-69" x="227.339844"/>
      <use xlink:href="#DejaVuSans-63" x="255.123047"/>
      <use xlink:href="#DejaVuSans-74" x="310.103516"/>
      <use xlink:href="#DejaVuSans-65" x="349.3125"/>
      <use xlink:href="#DejaVuSans-64" x="410.835938"/>
     </g>
    </g>
   </g>
  </g>
 </g>
 <defs>
  <clipPath id="peb794aa764">
   <rect x="90" y="43.2" width="558" height="244.8"/>
  </clipPath>
 </defs>
</svg>
