<?xml version="1.0" encoding="utf-8" standalone="no"?>
<!DOCTYPE svg PUBLIC "-//W3C//DTD SVG 1.1//EN"
  "http://www.w3.org/Graphics/SVG/1.1/DTD/svg11.dtd">
<svg xmlns:xlink="http://www.w3.org/1999/xlink" width="712.8975pt" height="351.43625pt" viewBox="0 0 712.8975 351.43625" xmlns="http://www.w3.org/2000/svg" version="1.1">
 <metadata>
  <rdf:RDF xmlns:dc="http://purl.org/dc/elements/1.1/" xmlns:cc="http://creativecommons.org/ns#" xmlns:rdf="http://www.w3.org/1999/02/22-rdf-syntax-ns#">
   <cc:Work>
    <dc:type rdf:resource="http://purl.org/dc/dcmitype/StillImage"/>
    <dc:date>2023-08-04T20:47:20.089204</dc:date>
    <dc:format>image/svg+xml</dc:format>
    <dc:creator>
     <cc:Agent>
      <dc:title>Matplotlib v3.7.1, https://matplotlib.org/</dc:title>
     </cc:Agent>
    </dc:creator>
   </cc:Work>
  </rdf:RDF>
 </metadata>
 <defs>
  <style type="text/css">*{stroke-linejoin: round; stroke-linecap: butt}</style>
 </defs>
 <g id="figure_1">
  <g id="patch_1">
   <path d="M 0 351.43625 
L 712.8975 351.43625 
L 712.8975 0 
L 0 0 
z
" style="fill: #ffffff"/>
  </g>
  <g id="axes_1">
   <g id="patch_2">
    <path d="M 33.2875 327.558125 
L 705.6975 327.558125 
L 705.6975 22.318125 
L 33.2875 22.318125 
z
" style="fill: #ffffff"/>
   </g>
   <g id="matplotlib.axis_1">
    <g id="xtick_1">
     <g id="line2d_1">
      <defs>
       <path id="m5350859a1b" d="M 0 0 
L 0 3.5 
" style="stroke: #000000; stroke-width: 0.8"/>
      </defs>
      <g>
       <use xlink:href="#m5350859a1b" x="133.861977" y="327.558125" style="stroke: #000000; stroke-width: 0.8"/>
      </g>
     </g>
     <g id="text_1">
      <!-- 2010 -->
      <g transform="translate(121.136977 342.156563) scale(0.1 -0.1)">
       <defs>
        <path id="DejaVuSans-32" d="M 1228 531 
L 3431 531 
L 3431 0 
L 469 0 
L 469 531 
Q 828 903 1448 1529 
Q 2069 2156 2228 2338 
Q 2531 2678 2651 2914 
Q 2772 3150 2772 3378 
Q 2772 3750 2511 3984 
Q 2250 4219 1831 4219 
Q 1534 4219 1204 4116 
Q 875 4013 500 3803 
L 500 4441 
Q 881 4594 1212 4672 
Q 1544 4750 1819 4750 
Q 2544 4750 2975 4387 
Q 3406 4025 3406 3419 
Q 3406 3131 3298 2873 
Q 3191 2616 2906 2266 
Q 2828 2175 2409 1742 
Q 1991 1309 1228 531 
z
" transform="scale(0.015625)"/>
        <path id="DejaVuSans-30" d="M 2034 4250 
Q 1547 4250 1301 3770 
Q 1056 3291 1056 2328 
Q 1056 1369 1301 889 
Q 1547 409 2034 409 
Q 2525 409 2770 889 
Q 3016 1369 3016 2328 
Q 3016 3291 2770 3770 
Q 2525 4250 2034 4250 
z
M 2034 4750 
Q 2819 4750 3233 4129 
Q 3647 3509 3647 2328 
Q 3647 1150 3233 529 
Q 2819 -91 2034 -91 
Q 1250 -91 836 529 
Q 422 1150 422 2328 
Q 422 3509 836 4129 
Q 1250 4750 2034 4750 
z
" transform="scale(0.015625)"/>
        <path id="DejaVuSans-31" d="M 794 531 
L 1825 531 
L 1825 4091 
L 703 3866 
L 703 4441 
L 1819 4666 
L 2450 4666 
L 2450 531 
L 3481 531 
L 3481 0 
L 794 0 
L 794 531 
z
" transform="scale(0.015625)"/>
       </defs>
       <use xlink:href="#DejaVuSans-32"/>
       <use xlink:href="#DejaVuSans-30" x="63.623047"/>
       <use xlink:href="#DejaVuSans-31" x="127.246094"/>
       <use xlink:href="#DejaVuSans-30" x="190.869141"/>
      </g>
     </g>
    </g>
    <g id="xtick_2">
     <g id="line2d_2">
      <g>
       <use xlink:href="#m5350859a1b" x="255.209618" y="327.558125" style="stroke: #000000; stroke-width: 0.8"/>
      </g>
     </g>
     <g id="text_2">
      <!-- 2011 -->
      <g transform="translate(242.484618 342.156563) scale(0.1 -0.1)">
       <use xlink:href="#DejaVuSans-32"/>
       <use xlink:href="#DejaVuSans-30" x="63.623047"/>
       <use xlink:href="#DejaVuSans-31" x="127.246094"/>
       <use xlink:href="#DejaVuSans-31" x="190.869141"/>
      </g>
     </g>
    </g>
    <g id="xtick_3">
     <g id="line2d_3">
      <g>
       <use xlink:href="#m5350859a1b" x="376.55726" y="327.558125" style="stroke: #000000; stroke-width: 0.8"/>
      </g>
     </g>
     <g id="text_3">
      <!-- 2012 -->
      <g transform="translate(363.83226 342.156563) scale(0.1 -0.1)">
       <use xlink:href="#DejaVuSans-32"/>
       <use xlink:href="#DejaVuSans-30" x="63.623047"/>
       <use xlink:href="#DejaVuSans-31" x="127.246094"/>
       <use xlink:href="#DejaVuSans-32" x="190.869141"/>
      </g>
     </g>
    </g>
    <g id="xtick_4">
     <g id="line2d_4">
      <g>
       <use xlink:href="#m5350859a1b" x="498.237361" y="327.558125" style="stroke: #000000; stroke-width: 0.8"/>
      </g>
     </g>
     <g id="text_4">
      <!-- 2013 -->
      <g transform="translate(485.512361 342.156563) scale(0.1 -0.1)">
       <defs>
        <path id="DejaVuSans-33" d="M 2597 2516 
Q 3050 2419 3304 2112 
Q 3559 1806 3559 1356 
Q 3559 666 3084 287 
Q 2609 -91 1734 -91 
Q 1441 -91 1130 -33 
Q 819 25 488 141 
L 488 750 
Q 750 597 1062 519 
Q 1375 441 1716 441 
Q 2309 441 2620 675 
Q 2931 909 2931 1356 
Q 2931 1769 2642 2001 
Q 2353 2234 1838 2234 
L 1294 2234 
L 1294 2753 
L 1863 2753 
Q 2328 2753 2575 2939 
Q 2822 3125 2822 3475 
Q 2822 3834 2567 4026 
Q 2313 4219 1838 4219 
Q 1578 4219 1281 4162 
Q 984 4106 628 3988 
L 628 4550 
Q 988 4650 1302 4700 
Q 1616 4750 1894 4750 
Q 2613 4750 3031 4423 
Q 3450 4097 3450 3541 
Q 3450 3153 3228 2886 
Q 3006 2619 2597 2516 
z
" transform="scale(0.015625)"/>
       </defs>
       <use xlink:href="#DejaVuSans-32"/>
       <use xlink:href="#DejaVuSans-30" x="63.623047"/>
       <use xlink:href="#DejaVuSans-31" x="127.246094"/>
       <use xlink:href="#DejaVuSans-33" x="190.869141"/>
      </g>
     </g>
    </g>
    <g id="xtick_5">
     <g id="line2d_5">
      <g>
       <use xlink:href="#m5350859a1b" x="619.585002" y="327.558125" style="stroke: #000000; stroke-width: 0.8"/>
      </g>
     </g>
     <g id="text_5">
      <!-- 2014 -->
      <g transform="translate(606.860002 342.156563) scale(0.1 -0.1)">
       <defs>
        <path id="DejaVuSans-34" d="M 2419 4116 
L 825 1625 
L 2419 1625 
L 2419 4116 
z
M 2253 4666 
L 3047 4666 
L 3047 1625 
L 3713 1625 
L 3713 1100 
L 3047 1100 
L 3047 0 
L 2419 0 
L 2419 1100 
L 313 1100 
L 313 1709 
L 2253 4666 
z
" transform="scale(0.015625)"/>
       </defs>
       <use xlink:href="#DejaVuSans-32"/>
       <use xlink:href="#DejaVuSans-30" x="63.623047"/>
       <use xlink:href="#DejaVuSans-31" x="127.246094"/>
       <use xlink:href="#DejaVuSans-34" x="190.869141"/>
      </g>
     </g>
    </g>
   </g>
   <g id="matplotlib.axis_2">
    <g id="ytick_1">
     <g id="line2d_6">
      <defs>
       <path id="m139b355139" d="M 0 0 
L -3.5 0 
" style="stroke: #000000; stroke-width: 0.8"/>
      </defs>
      <g>
       <use xlink:href="#m139b355139" x="33.2875" y="312.492442" style="stroke: #000000; stroke-width: 0.8"/>
      </g>
     </g>
     <g id="text_6">
      <!-- 0 -->
      <g transform="translate(19.925 316.291661) scale(0.1 -0.1)">
       <use xlink:href="#DejaVuSans-30"/>
      </g>
     </g>
    </g>
    <g id="ytick_2">
     <g id="line2d_7">
      <g>
       <use xlink:href="#m139b355139" x="33.2875" y="258.085128" style="stroke: #000000; stroke-width: 0.8"/>
      </g>
     </g>
     <g id="text_7">
      <!-- 50 -->
      <g transform="translate(13.5625 261.884347) scale(0.1 -0.1)">
       <defs>
        <path id="DejaVuSans-35" d="M 691 4666 
L 3169 4666 
L 3169 4134 
L 1269 4134 
L 1269 2991 
Q 1406 3038 1543 3061 
Q 1681 3084 1819 3084 
Q 2600 3084 3056 2656 
Q 3513 2228 3513 1497 
Q 3513 744 3044 326 
Q 2575 -91 1722 -91 
Q 1428 -91 1123 -41 
Q 819 9 494 109 
L 494 744 
Q 775 591 1075 516 
Q 1375 441 1709 441 
Q 2250 441 2565 725 
Q 2881 1009 2881 1497 
Q 2881 1984 2565 2268 
Q 2250 2553 1709 2553 
Q 1456 2553 1204 2497 
Q 953 2441 691 2322 
L 691 4666 
z
" transform="scale(0.015625)"/>
       </defs>
       <use xlink:href="#DejaVuSans-35"/>
       <use xlink:href="#DejaVuSans-30" x="63.623047"/>
      </g>
     </g>
    </g>
    <g id="ytick_3">
     <g id="line2d_8">
      <g>
       <use xlink:href="#m139b355139" x="33.2875" y="203.677814" style="stroke: #000000; stroke-width: 0.8"/>
      </g>
     </g>
     <g id="text_8">
      <!-- 100 -->
      <g transform="translate(7.2 207.477033) scale(0.1 -0.1)">
       <use xlink:href="#DejaVuSans-31"/>
       <use xlink:href="#DejaVuSans-30" x="63.623047"/>
       <use xlink:href="#DejaVuSans-30" x="127.246094"/>
      </g>
     </g>
    </g>
    <g id="ytick_4">
     <g id="line2d_9">
      <g>
       <use xlink:href="#m139b355139" x="33.2875" y="149.2705" style="stroke: #000000; stroke-width: 0.8"/>
      </g>
     </g>
     <g id="text_9">
      <!-- 150 -->
      <g transform="translate(7.2 153.069718) scale(0.1 -0.1)">
       <use xlink:href="#DejaVuSans-31"/>
       <use xlink:href="#DejaVuSans-35" x="63.623047"/>
       <use xlink:href="#DejaVuSans-30" x="127.246094"/>
      </g>
     </g>
    </g>
    <g id="ytick_5">
     <g id="line2d_10">
      <g>
       <use xlink:href="#m139b355139" x="33.2875" y="94.863185" style="stroke: #000000; stroke-width: 0.8"/>
      </g>
     </g>
     <g id="text_10">
      <!-- 200 -->
      <g transform="translate(7.2 98.662404) scale(0.1 -0.1)">
       <use xlink:href="#DejaVuSans-32"/>
       <use xlink:href="#DejaVuSans-30" x="63.623047"/>
       <use xlink:href="#DejaVuSans-30" x="127.246094"/>
      </g>
     </g>
    </g>
    <g id="ytick_6">
     <g id="line2d_11">
      <g>
       <use xlink:href="#m139b355139" x="33.2875" y="40.455871" style="stroke: #000000; stroke-width: 0.8"/>
      </g>
     </g>
     <g id="text_11">
      <!-- 250 -->
      <g transform="translate(7.2 44.25509) scale(0.1 -0.1)">
       <use xlink:href="#DejaVuSans-32"/>
       <use xlink:href="#DejaVuSans-35" x="63.623047"/>
       <use xlink:href="#DejaVuSans-30" x="127.246094"/>
      </g>
     </g>
    </g>
   </g>
   <g id="line2d_12">
    <path d="M 63.851591 311.749782 
L 63.879296 311.719858 
L 63.934706 311.817791 
L 64.142493 312.220406 
L 64.253313 312.212245 
L 64.267165 312.165998 
L 64.40569 311.442381 
L 64.474952 311.719858 
L 64.668887 312.149676 
L 65.278395 312.274813 
L 65.458477 312.244889 
L 65.569297 310.852062 
L 65.63856 311.164904 
L 65.846347 312.043582 
L 66.109544 312.187761 
L 66.248068 312.108871 
L 66.289626 312.059904 
L 66.358888 312.119752 
L 66.42815 312.149676 
L 66.442003 312.092548 
L 66.552823 311.613764 
L 66.580528 311.687214 
L 66.635937 311.643688 
L 66.788315 312.084387 
L 67.051512 312.198643 
L 67.494791 312.209524 
L 67.522496 311.717138 
L 67.60561 311.95925 
L 67.633315 311.991895 
L 67.674873 310.91735 
L 67.744135 311.893962 
L 67.93807 312.133354 
L 68.478316 312.035421 
L 68.533726 311.861317 
L 68.672251 309.676864 
L 68.727661 310.128444 
L 68.9493 311.553916 
L 69.240202 311.896682 
L 69.364874 311.853156 
L 69.544956 311.341727 
L 69.586514 311.455983 
L 69.628071 311.58384 
L 69.683481 311.491348 
L 69.711186 311.379813 
L 69.780448 311.480466 
L 70.002088 311.864038 
L 70.445367 312.016378 
L 70.639301 311.638247 
L 70.653154 311.423338 
L 70.708564 311.728019 
L 70.736269 311.708977 
L 71.24881 312.068065 
L 71.331925 312.035421 
L 71.401187 311.469585 
L 71.456597 311.796029 
L 71.567417 312.008217 
L 71.581269 311.932047 
L 71.595122 311.869478 
L 71.664384 312.046302 
L 72.634057 311.997336 
L 72.675615 311.162183 
L 72.786434 311.665451 
L 72.952664 311.945649 
L 73.243566 312.021819 
L 73.257418 311.904843 
L 73.271271 311.605603 
L 73.354386 312.0327 
L 73.49291 312.078947 
L 73.506763 312.046302 
L 73.631435 312.070785 
L 73.950042 312.130634 
L 74.531846 312.242169 
L 75.030535 312.160558 
L 75.05824 311.926606 
L 75.085944 310.520177 
L 75.169059 311.382533 
L 75.349141 312.02998 
L 75.584633 312.119752 
L 75.723158 312.10071 
L 76.01406 312.10071 
L 76.401929 312.076226 
L 76.429634 311.790588 
L 76.526601 311.929326 
L 76.831356 312.119752 
L 77.523979 312.144235 
L 78.36898 312.125193 
L 78.396685 311.907564 
L 78.4798 312.065345 
L 78.715292 312.141515 
L 79.477178 312.198643 
L 79.504883 312.073506 
L 79.54644 311.06153 
L 79.643407 311.458703 
L 79.837342 312.008217 
L 80.211359 312.165998 
L 80.308326 312.111591 
L 80.349883 311.961971 
L 80.432998 311.983734 
L 80.460703 311.975573 
L 80.50226 312.051743 
L 80.710048 312.17688 
L 80.7239 312.130634 
L 80.751605 311.518551 
L 80.83472 311.738901 
L 81.014802 312.078947 
L 81.291851 312.163278 
L 81.374966 312.005497 
L 81.402671 311.937488 
L 81.458081 312.078947 
L 81.693573 312.165998 
L 82.261524 312.10343 
L 82.386196 311.504949 
L 82.400049 311.526712 
L 82.718656 312.119752 
L 82.829475 312.054463 
L 82.981853 311.246515 
L 82.91259 312.070785 
L 83.02341 311.472305 
L 83.383574 312.089828 
L 83.549804 312.005497 
L 83.591361 310.327031 
L 83.688329 311.200268 
L 83.868411 311.932047 
L 84.20087 312.122472 
L 84.339395 312.117032 
L 84.574887 312.174159 
L 84.616444 311.488627 
L 84.699559 312.019099 
L 84.865789 312.160558 
L 85.253658 312.198643 
L 86.057101 312.204083 
L 86.098659 311.834114 
L 86.167921 312.078947 
L 86.334151 312.247609 
L 86.348003 312.236728 
L 86.431118 311.793308 
L 86.50038 311.964691 
L 86.735872 312.165998 
L 86.929807 312.130634 
L 86.999069 312.024539 
L 87.054479 312.078947 
L 87.206856 312.152396 
L 87.234561 312.117032 
L 87.456201 312.133354 
L 87.705545 312.198643 
L 89.92194 312.171439 
L 90.115875 311.001682 
L 90.14358 310.936393 
L 90.171285 311.080572 
L 90.19899 311.314524 
L 90.212842 311.164904 
L 90.268252 309.918976 
L 90.323662 310.215496 
L 90.503744 311.649129 
L 90.600711 311.913004 
L 90.628416 310.609949 
L 90.711531 311.825953 
L 90.863908 312.02998 
L 91.418007 312.130634 
L 92.235303 312.195922 
L 92.263008 311.978293 
L 92.318418 311.991895 
L 92.429238 311.148582 
L 92.512352 311.43422 
L 92.692434 311.910284 
L 92.872517 312.016378 
L 93.343501 312.165998 
L 94.7426 312.32922 
L 95.158174 312.220406 
L 95.532191 312.25305 
L 95.712273 312.263931 
L 95.92006 312.263931 
L 96.875881 312.165998 
L 96.958995 311.918445 
L 97.000553 311.706256 
L 97.055963 311.87764 
L 97.09752 311.991895 
L 97.139078 311.817791 
L 97.15293 311.798749 
L 97.180635 311.907564 
L 97.360717 312.201363 
L 97.623914 312.272093 
L 98.261128 312.285694 
L 101.253261 312.291135 
L 101.267114 312.02998 
L 101.336376 312.394509 
L 101.350229 312.394509 
L 102.029 312.32378 
L 102.167524 311.589281 
L 102.236787 311.847716 
L 102.444574 312.263931 
L 102.583098 312.296576 
L 102.596951 312.277533 
L 102.638508 312.198643 
L 102.707771 312.266652 
L 103.067935 312.350983 
L 104.189985 312.321059 
L 104.231542 311.888521 
L 104.32851 312.057184 
L 104.536297 312.318339 
L 104.993428 312.383628 
L 105.353593 312.394509 
L 105.409002 312.038141 
L 105.50597 312.111591 
L 105.796872 312.372746 
L 108.068677 312.32922 
L 108.096382 312.223126 
L 108.165644 312.361865 
L 108.221054 312.242169 
L 108.276464 312.002776 
L 108.359579 312.035421 
L 109.052202 312.3265 
L 109.246137 311.961971 
L 109.343104 312.127913 
L 109.578596 312.274813 
L 111.019253 312.204083 
L 111.06081 311.834114 
L 111.143925 311.975573 
L 111.22704 311.874919 
L 111.28245 310.677958 
L 111.365565 311.105056 
L 111.545647 311.940208 
L 111.781139 312.187761 
L 112.099746 312.25577 
L 112.155156 312.068065 
L 112.265975 312.138795 
L 112.29368 312.155117 
L 112.321385 312.049023 
L 112.529172 310.827578 
L 112.556877 310.966317 
L 112.847779 312.008217 
L 113.124828 312.165998 
L 113.595812 312.190482 
L 113.720485 312.119752 
L 113.817452 312.17688 
L 114.080649 312.25033 
L 114.994912 312.318339 
L 118.084013 312.217685 
L 118.23639 311.812351 
L 118.305652 311.95381 
L 118.541144 312.144235 
L 118.707374 312.171439 
L 119.690899 312.25305 
L 124.28992 312.214965 
L 124.386887 310.849341 
L 124.442297 311.173065 
L 124.636231 311.997336 
L 124.871723 312.17688 
L 125.176478 312.089828 
L 125.287298 311.839554 
L 125.315003 311.855877 
L 125.605904 312.155117 
L 126.326233 312.185041 
L 126.381643 311.646408 
L 126.47861 310.264463 
L 126.520167 310.612669 
L 126.714102 311.719858 
L 126.963447 311.997336 
L 127.268201 312.10071 
L 127.808447 312.095269 
L 127.919267 310.735086 
L 128.002382 311.352609 
L 128.196316 311.874919 
L 128.528776 312.046302 
L 130.385007 312.155117 
L 131.18845 312.201363 
L 131.548614 312.242169 
L 131.867221 312.25305 
L 131.936483 312.114311 
L 131.964188 311.88036 
L 132.061156 311.948369 
L 132.102713 312.000056 
L 132.130418 311.945649 
L 132.241238 310.479372 
L 132.352058 309.65238 
L 132.393615 309.856408 
L 132.629107 311.382533 
L 132.850746 311.687214 
L 133.529518 311.95925 
L 134.582305 312.065345 
L 134.997879 312.111591 
L 137.588291 312.220406 
L 138.267062 312.242169 
L 139.48608 312.133354 
L 139.638457 311.891241 
L 139.680014 311.95925 
L 139.970916 312.17688 
L 142.034934 312.122472 
L 142.145754 310.084919 
L 142.228869 310.903749 
L 142.450509 311.815071 
L 142.686001 311.991895 
L 144.14051 312.168719 
L 144.389854 312.18232 
L 144.722314 312.198643 
L 151.690106 312.130634 
L 151.953303 310.128444 
L 152.036418 310.68884 
L 152.27191 311.570238 
L 152.299615 311.597442 
L 152.32732 311.477746 
L 152.49355 310.971758 
L 152.507402 310.982639 
L 152.770599 311.475025 
L 152.881419 311.537594 
L 153.089206 311.692655 
L 153.255436 311.73346 
L 153.629452 311.828673 
L 153.754124 311.744342 
L 153.864944 311.624646 
L 153.892649 311.649129 
L 154.100436 311.73074 
L 156.663143 311.839554 
L 157.411177 311.893962 
L 157.480439 311.559357 
L 157.591259 311.611044 
L 157.618964 311.483186 
L 157.909866 309.480997 
L 157.965275 309.663262 
L 158.21462 310.906469 
L 158.242325 310.871104 
L 158.256177 310.849341 
L 158.311587 310.969037 
L 158.547079 311.249235 
L 158.976506 311.58384 
L 159.696834 311.752503 
L 160.375605 311.861317 
L 160.62495 311.893962 
L 160.791179 311.635527 
L 160.901999 309.717669 
L 160.943557 309.932578 
L 161.151344 311.279159 
L 161.359131 311.58112 
L 161.85782 311.749782 
L 162.010197 311.719858 
L 162.301099 311.817791 
L 162.827493 311.831393 
L 162.938312 309.87545 
L 163.03528 310.39232 
L 163.229214 310.98808 
L 163.243067 310.854782 
L 163.395444 309.13007 
L 163.423149 309.168155 
L 163.520116 310.144767 
L 163.727903 311.053369 
L 164.032658 311.377092 
L 164.489789 311.605603 
L 164.891511 311.708977 
L 165.22397 311.782427 
L 166.29061 311.88308 
L 166.484545 311.904843 
L 166.56766 311.847716 
L 166.609217 311.717138 
L 166.692332 311.771545 
L 166.969381 311.937488 
L 168.507006 312.046302 
L 169.116514 312.054463 
L 169.171924 311.929326 
L 169.255039 311.967412 
L 169.365859 312.021819 
L 169.836843 312.089828 
L 171.887008 312.046302 
L 171.942418 311.156743 
L 172.025533 311.477746 
L 172.136353 311.87764 
L 172.150205 311.757943 
L 172.17791 311.548475 
L 172.261025 311.676332 
L 172.316435 311.80419 
L 172.371845 311.708977 
L 172.427255 311.339007 
L 172.496517 311.235633 
L 172.524222 311.309083 
L 172.759714 311.934767 
L 173.258403 312.10071 
L 174.214223 312.17688 
L 174.491273 312.168719 
L 174.58824 310.449448 
L 174.685207 311.249235 
L 175.003814 312.021819 
L 175.65488 312.163278 
L 176.153569 312.17688 
L 176.278241 312.141515 
L 176.305946 311.899402 
L 176.375209 312.168719 
L 176.610701 312.187761 
L 176.860045 312.198643 
L 177.05398 312.212245 
L 177.497259 312.174159 
L 177.538816 311.790588 
L 177.635784 311.861317 
L 177.843571 312.133354 
L 178.328407 312.209524 
L 179.658244 312.144235 
L 179.699802 311.404296 
L 179.727507 311.075132 
L 179.810621 311.404296 
L 180.004556 312.070785 
L 180.281605 312.193202 
L 180.724885 312.25305 
L 184.368084 312.198643 
L 184.395789 312.051743 
L 184.478904 312.062624 
L 184.839068 312.318339 
L 185.033003 312.340102 
L 186.085791 312.307457 
L 186.127348 312.114311 
L 186.19661 312.269372 
L 186.41825 312.361865 
L 187.027759 312.310178 
L 187.097021 311.627366 
L 187.166283 311.855877 
L 187.387923 312.266652 
L 187.748087 312.350983 
L 189.438088 312.288415 
L 189.479646 311.861317 
L 189.576613 311.95925 
L 189.770548 312.318339 
L 191.432844 312.304737 
L 191.502107 311.684494 
L 191.571369 312.084387 
L 191.751451 312.318339 
L 191.973091 312.334661 
L 192.000795 312.285694 
L 192.070058 312.370026 
L 192.776534 312.39995 
L 193.081288 312.394509 
L 193.344485 312.345542 
L 193.4276 312.035421 
L 193.469157 312.119752 
L 193.663092 312.361865 
L 193.884731 312.40539 
L 198.262112 312.394509 
L 198.359079 311.14042 
L 198.400637 311.567518 
L 198.483752 312.051743 
L 198.511457 311.801469 
L 198.594571 311.545755 
L 198.553014 311.839554 
L 198.622276 311.673612 
L 198.719244 312.024539 
L 198.746949 311.820512 
L 198.774654 311.942928 
L 198.927031 312.277533 
L 199.3149 312.383628 
L 200.215311 312.39995 
L 200.409245 311.080572 
L 200.423098 311.202989 
L 200.60318 312.193202 
L 200.894082 312.32922 
L 201.088016 312.361865 
L 201.101869 312.310178 
L 201.129574 311.896682 
L 201.212688 312.078947 
L 201.61441 312.370026 
L 201.628262 312.345542 
L 201.863754 312.367305 
L 202.265476 312.353704 
L 202.307034 311.21387 
L 202.390148 311.714418 
L 202.584083 312.277533 
L 202.874985 312.372746 
L 209.344089 312.367305 
L 209.454908 312.119752 
L 209.468761 312.141515 
L 209.6904 312.383628 
L 211.560484 312.334661 
L 211.588189 311.940208 
L 211.685156 310.751408 
L 211.726713 310.849341 
L 212.10073 312.157837 
L 212.363927 312.296576 
L 212.419337 312.282974 
L 212.433189 312.234007 
L 212.544009 312.274813 
L 212.724091 312.318339 
L 213.846141 312.427153 
L 219.927376 312.413552 
L 220.010491 310.724204 
L 220.052048 311.202989 
L 220.218278 312.087108 
L 220.426065 312.302017 
L 220.924754 312.383628 
L 221.963689 312.432594 
L 221.991394 311.921165 
L 222.088361 312.008217 
L 222.268444 312.389068 
L 222.711723 312.457077 
L 222.933362 312.454357 
L 223.210412 312.459798 
L 223.487461 312.353704 
L 223.639838 311.521272 
L 223.653691 311.526712 
L 223.695248 311.567518 
L 223.833773 312.136074 
L 223.889183 312.040861 
L 224.083117 312.288415 
L 224.401724 312.350983 
L 224.429429 312.02726 
L 224.512544 310.824858 
L 224.540249 311.099615 
L 224.720331 312.068065 
L 224.734183 312.038141 
L 224.845003 309.883611 
L 224.88656 310.204615 
L 225.094348 311.725299 
L 225.371397 312.10615 
L 225.814676 312.239448 
L 225.911643 312.089828 
L 225.939348 312.000056 
L 226.008611 312.138795 
L 226.216398 312.263931 
L 227.421563 312.372746 
L 227.601645 312.383628 
L 228.280416 312.378187 
L 228.321973 311.997336 
L 228.405088 312.193202 
L 228.682137 312.359144 
L 229.250089 312.361865 
L 229.360908 310.857502 
L 229.416318 311.330846 
L 229.5964 312.024539 
L 229.81804 312.217685 
L 230.205909 312.318339 
L 236.093209 312.280254 
L 236.190176 311.398855 
L 236.287144 311.687214 
L 236.467226 312.127913 
L 236.71657 312.285694 
L 240.30436 312.3265 
L 240.429032 311.708977 
L 240.456737 311.790588 
L 240.650672 312.157837 
L 240.969279 312.318339 
L 241.232476 312.350983 
L 245.06961 312.304737 
L 245.18043 311.096895 
L 245.208135 310.61811 
L 245.29125 311.042487 
L 245.485184 311.934767 
L 245.748381 312.1796 
L 246.108545 312.263931 
L 248.726662 312.174159 
L 248.851334 310.936393 
L 248.906744 311.254676 
L 249.086826 311.708977 
L 249.142236 311.801469 
L 249.350023 312.089828 
L 249.807155 312.231287 
L 252.411419 312.340102 
L 252.979371 312.340102 
L 255.763717 312.236728 
L 256.026914 312.204083 
L 256.373226 312.285694 
L 259.19913 312.187761 
L 259.30995 312.220406 
L 259.739376 312.302017 
L 259.780934 312.242169 
L 259.864048 312.274813 
L 260.016426 312.3265 
L 260.48741 312.307457 
L 261.096918 312.206804 
L 261.207738 311.270998 
L 261.277 311.605603 
L 261.44323 311.961971 
L 261.457083 311.942928 
L 261.60946 311.940208 
L 261.928067 312.144235 
L 262.703805 312.242169 
L 262.828477 312.236728 
L 262.953149 312.293855 
L 263.050117 312.350983 
L 263.077822 312.291135 
L 263.133232 312.165998 
L 263.202494 312.217685 
L 263.368724 312.242169 
L 263.922822 312.293855 
L 263.936675 312.416272 
L 264.01979 312.288415 
L 264.130609 312.051743 
L 264.186019 312.10615 
L 264.629298 312.242169 
L 266.056103 312.174159 
L 266.180775 311.861317 
L 266.222332 311.902123 
L 266.457824 312.146956 
L 266.707169 312.209524 
L 267.122743 312.117032 
L 267.27512 311.945649 
L 267.288973 311.951089 
L 267.44135 312.040861 
L 267.469055 312.005497 
L 267.607579 312.0327 
L 267.829219 312.068065 
L 267.926186 311.975573 
L 268.133973 311.80963 
L 268.50799 312.084387 
L 269.546925 312.17688 
L 270.128729 312.068065 
L 270.281106 311.964691 
L 270.294959 311.972852 
L 270.97373 312.122472 
L 271.430861 312.013658 
L 271.569386 311.80691 
L 271.652501 311.763384 
L 271.694058 311.796029 
L 272.220452 311.981013 
L 273.633404 311.896682 
L 273.771929 310.405922 
L 273.841191 310.707882 
L 274.062831 311.668171 
L 274.28447 311.839554 
L 274.644634 311.87764 
L 274.797012 311.330846 
L 274.824717 311.417898 
L 275.046356 311.771545 
L 275.281848 311.88308 
L 275.642012 311.970132 
L 276.736358 311.864038 
L 276.80562 311.129539 
L 276.957997 309.149113 
L 276.985702 309.214401 
L 277.096522 310.24542 
L 277.304309 311.21115 
L 277.525948 311.483186 
L 278.0939 311.684494 
L 278.107752 311.643688 
L 278.190867 310.46849 
L 278.370949 308.362927 
L 278.398654 308.349325 
L 278.412506 308.420055 
L 278.731113 310.963597 
L 279.022015 311.336287 
L 279.797754 311.668171 
L 279.963983 311.545755 
L 280.047098 311.279159 
L 280.088655 311.347168 
L 280.296442 311.676332 
L 281.640132 311.902123 
L 281.750952 311.575679 
L 281.778657 311.597442 
L 282.138821 311.913004 
L 282.388166 311.855877 
L 282.512838 311.752503 
L 282.540543 311.771545 
L 282.817592 311.87764 
L 283.205461 311.981013 
L 284.687676 312.089828 
L 285.200217 312.081667 
L 285.352594 312.005497 
L 285.671201 312.068065 
L 286.571612 312.133354 
L 286.668579 312.114311 
L 286.710136 311.844995 
L 286.793251 311.88036 
L 287.139563 312.095269 
L 287.153415 312.078947 
L 287.40276 312.019099 
L 287.776777 312.117032 
L 287.998416 312.133354 
L 288.178498 312.144235 
L 289.009646 312.111591 
L 289.245138 310.751408 
L 289.272843 310.843901 
L 289.508335 311.763384 
L 289.799237 311.948369 
L 290.408746 311.932047 
L 290.574976 308.634964 
L 290.65809 309.361301 
L 290.865877 310.969037 
L 291.142927 311.4315 
L 291.516944 311.589281 
L 291.904813 311.698095 
L 292.569731 311.752503 
L 292.638994 311.145861 
L 292.694404 310.582745 
L 292.749813 310.903749 
L 292.943748 311.613764 
L 293.082273 311.703536 
L 293.096125 311.66001 
L 293.137683 311.056089 
L 293.206945 311.447822 
L 293.373175 311.676332 
L 293.899568 311.785147 
L 294.162765 311.817791 
L 294.342848 311.725299 
L 294.425962 310.9908 
L 294.46752 311.205709 
L 294.647602 311.679053 
L 294.966209 311.847716 
L 295.201701 311.872199 
L 296.268341 312.02726 
L 296.393013 311.643688 
L 296.434571 311.741621 
L 296.76703 312.024539 
L 297.792113 312.133354 
L 298.637113 312.187761 
L 299.869983 312.165998 
L 299.953098 311.129539 
L 300.02236 311.475025 
L 300.18859 312.049023 
L 300.534902 312.155117 
L 300.562607 311.798749 
L 300.673427 310.052274 
L 300.714984 310.416803 
L 300.881214 311.611044 
L 300.978181 311.4315 
L 301.005886 311.494068 
L 301.019738 311.504949 
L 301.130558 310.161089 
L 301.172115 310.403201 
L 301.36605 311.423338 
L 301.615395 311.73074 
L 301.975559 311.874919 
L 302.044821 311.874919 
L 302.058674 311.825953 
L 302.127936 311.485907 
L 302.183346 311.66001 
L 302.363428 311.88036 
L 302.65433 311.929326 
L 302.806707 311.706256 
L 303.125314 311.95925 
L 304.081134 312.068065 
L 304.510561 312.122472 
L 304.89843 312.019099 
L 304.926135 311.834114 
L 305.00925 311.918445 
L 305.286299 312.146956 
L 305.618759 312.190482 
L 306.505317 312.25305 
L 308.3754 312.266652 
L 308.403105 310.960876 
L 308.48622 311.553916 
L 308.666302 312.157837 
L 308.804827 312.206804 
L 308.818679 312.144235 
L 308.874089 311.254676 
L 308.943351 311.559357 
L 309.151139 312.108871 
L 309.469745 312.220406 
L 310.827287 312.266652 
L 310.924255 310.773171 
L 310.965812 311.21115 
L 311.132042 312.019099 
L 311.312124 312.185041 
L 312.600404 312.32922 
L 312.794338 312.187761 
L 312.932863 312.157837 
L 312.946715 312.049023 
L 313.02983 310.46849 
L 313.071388 310.726925 
L 313.265322 311.798749 
L 313.473109 312.10071 
L 313.764011 312.195922 
L 314.789094 312.291135 
L 314.830651 311.981013 
L 314.899914 312.190482 
L 315.066143 312.307457 
L 316.215898 312.318339 
L 316.257456 311.823232 
L 316.326718 312.231287 
L 316.492948 312.318339 
L 316.89467 312.361865 
L 317.157866 312.372746 
L 318.030572 312.285694 
L 318.182949 312.089828 
L 318.723196 312.383628 
L 321.479837 312.291135 
L 321.535247 312.1796 
L 321.604509 312.269372 
L 321.923116 312.427153 
L 323.68238 312.32378 
L 323.723937 312.302017 
L 323.779347 312.361865 
L 324.014839 312.408111 
L 324.042544 312.361865 
L 324.070249 311.902123 
L 324.153364 312.258491 
L 324.361151 312.459798 
L 324.818283 312.424433 
L 324.845988 312.010937 
L 324.929102 312.261211 
L 324.998365 312.342822 
L 325.012217 312.318339 
L 325.039922 311.836834 
L 325.123037 312.296576 
L 325.164594 312.272093 
L 325.220004 312.3265 
L 325.912628 312.481561 
L 325.968038 312.481561 
L 326.078857 311.488627 
L 326.106562 311.649129 
L 326.286645 312.25033 
L 326.494432 312.40267 
L 326.674514 312.397229 
L 326.743776 312.010937 
L 326.813038 312.220406 
L 327.284022 312.451637 
L 327.630334 312.470679 
L 327.755006 312.39995 
L 327.879679 311.589281 
L 327.935089 311.779706 
L 328.032056 312.133354 
L 328.045908 312.010937 
L 328.087466 311.711697 
L 328.156728 312.016378 
L 328.33681 312.32922 
L 328.39222 312.350983 
L 328.406072 312.307457 
L 328.44763 312.138795 
L 328.516892 312.236728 
L 328.600007 312.312898 
L 328.61386 312.266652 
L 328.655417 310.580025 
L 328.738532 311.330846 
L 328.890909 312.10071 
L 329.126401 312.302017 
L 329.597385 312.372746 
L 330.082221 312.356424 
L 330.248451 309.916256 
L 330.331566 310.569144 
L 330.359271 310.770451 
L 330.386976 310.182852 
L 330.400828 310.079478 
L 330.442386 310.501134 
L 330.63632 311.700816 
L 330.774845 311.913004 
L 330.816402 311.872199 
L 331.051894 312.078947 
L 331.356649 312.187761 
L 331.536731 312.117032 
L 331.550583 312.016378 
L 331.647551 312.111591 
L 331.98001 312.25305 
L 332.03542 310.498414 
L 332.132387 311.605603 
L 332.298617 312.078947 
L 332.547961 312.171439 
L 332.589519 311.551196 
L 332.700338 311.760664 
L 332.963535 312.146956 
L 333.240585 312.231287 
L 333.905503 312.130634 
L 333.933208 312.02726 
L 334.002471 312.171439 
L 334.044028 312.146956 
L 334.071733 311.662731 
L 334.140995 312.152396 
L 334.293372 312.231287 
L 334.639684 312.185041 
L 334.722799 310.280785 
L 334.916734 307.677395 
L 334.985996 307.443443 
L 335.013701 307.658352 
L 335.110668 309.682304 
L 335.276898 311.124098 
L 335.526242 311.553916 
L 336.135751 311.893962 
L 336.842227 312.057184 
L 337.770343 311.975573 
L 337.950425 310.498414 
L 338.075097 309.320496 
L 338.116654 309.568049 
L 338.352146 311.113217 
L 338.365999 311.110496 
L 338.546081 309.013094 
L 338.615343 309.331377 
L 338.836983 311.056089 
L 339.114032 311.442381 
L 339.640426 311.717138 
L 339.972885 311.812351 
L 339.986738 311.771545 
L 340.00059 311.711697 
L 340.083705 311.766105 
L 340.263787 311.866758 
L 340.817886 311.970132 
L 341.884526 312.078947 
L 342.563297 312.10071 
L 343.53297 312.013658 
L 343.58838 310.177411 
L 343.657643 310.686119 
L 343.837725 311.747062 
L 344.045512 311.95653 
L 345.181414 312.168719 
L 345.195267 312.076226 
L 345.306087 311.899402 
L 345.361496 312.043582 
L 345.430759 311.95653 
L 345.527726 312.046302 
L 345.624693 310.743247 
L 345.666251 310.947274 
L 345.860185 311.763384 
L 345.971005 311.918445 
L 345.99871 311.858597 
L 346.10953 311.347168 
L 346.151087 311.43422 
L 346.358874 311.872199 
L 346.525104 311.711697 
L 346.552809 311.771545 
L 346.746743 311.961971 
L 346.982235 311.997336 
L 347.079203 311.627366 
L 347.106908 311.708977 
L 347.28699 311.967412 
L 347.577892 312.057184 
L 348.713794 312.165998 
L 349.503385 312.209524 
L 350.015926 312.187761 
L 350.043631 311.640968 
L 350.126746 311.934767 
L 350.154451 311.934767 
L 350.182156 312.008217 
L 350.334533 312.155117 
L 350.348386 312.144235 
L 350.459206 311.205709 
L 350.514615 311.559357 
L 350.694698 311.932047 
L 351.027157 312.155117 
L 352.121502 312.084387 
L 352.246174 311.665451 
L 352.273879 311.717138 
L 352.287732 311.736181 
L 352.315437 311.65457 
L 352.356994 311.643688 
L 352.467814 311.790588 
L 352.703306 312.10071 
L 353.049618 312.17688 
L 354.836586 312.073506 
L 354.961258 311.621925 
L 355.058226 311.844995 
L 355.266013 312.144235 
L 355.4738 312.18232 
L 355.556915 312.062624 
L 355.736997 311.387974 
L 355.806259 311.496788 
L 355.847817 311.523992 
L 355.917079 311.464144 
L 356.083309 311.681773 
L 356.180276 311.782427 
L 356.235686 311.73074 
L 356.388063 311.749782 
L 357.108391 311.915725 
L 358.133474 312.024539 
L 358.812245 312.046302 
L 361.541182 311.989175 
L 361.665854 311.031606 
L 361.748969 311.43694 
L 361.956756 311.915725 
L 362.247658 312.046302 
L 362.64938 312.089828 
L 363.591348 312.040861 
L 363.66061 311.096895 
L 363.757577 310.620831 
L 363.799135 310.699721 
L 363.937659 311.295481 
L 364.187004 311.80419 
L 364.644135 311.948369 
L 365.90471 311.88036 
L 366.01553 311.523992 
L 366.043235 311.556636 
L 366.292579 311.929326 
L 366.652744 312.013658 
L 368.20422 311.940208 
L 368.342745 311.665451 
L 368.467417 311.815071 
L 368.508975 311.717138 
L 368.578237 311.385253 
L 368.716762 309.630617 
L 368.786024 310.31615 
L 368.979959 311.453262 
L 369.229303 311.73346 
L 369.617172 311.839554 
L 370.212828 311.948369 
L 371.473403 312.084387 
L 371.639633 312.089828 
L 372.595453 312.165998 
L 373.288077 312.089828 
L 373.343487 311.918445 
L 373.440454 312.000056 
L 373.634389 312.133354 
L 373.662094 312.046302 
L 373.717504 311.224752 
L 373.800618 311.43422 
L 373.994553 311.983734 
L 374.437832 312.122472 
L 375.199718 312.125193 
L 375.310538 310.39232 
L 375.407505 311.21387 
L 375.629144 311.842275 
L 375.947751 312.002776 
L 377.374556 312.111591 
L 378.164147 312.155117 
L 380.311279 312.073506 
L 380.449804 310.876545 
L 380.491362 311.026165 
L 380.754559 311.88308 
L 381.087018 311.95653 
L 381.225543 311.970132 
L 382.749314 312.078947 
L 383.081774 312.092548 
L 383.580462 312.078947 
L 384.176119 311.986454 
L 384.314643 311.398855 
L 384.370053 311.532153 
L 384.605545 311.904843 
L 384.96571 312.013658 
L 385.173497 312.054463 
L 385.408989 311.815071 
L 385.450546 311.469585 
L 385.533661 311.594721 
L 385.7553 311.972852 
L 386.101612 312.051743 
L 386.489481 312.084387 
L 386.821941 312.10071 
L 389.066041 312.206804 
L 389.273828 312.263931 
L 394.662439 312.261211 
L 394.703996 311.972852 
L 394.787111 312.078947 
L 394.842521 312.078947 
L 394.953341 311.619205 
L 394.981046 311.73346 
L 395.17498 312.174159 
L 395.479735 312.274813 
L 396.46326 312.195922 
L 396.601785 312.035421 
L 396.754162 312.087108 
L 397.252851 312.206804 
L 397.266703 312.111591 
L 397.391376 312.043582 
L 397.47449 312.108871 
L 397.709982 312.220406 
L 398.000884 312.263931 
L 405.010234 312.370026 
L 405.314989 312.378187 
L 406.229252 312.307457 
L 406.464744 312.318339 
L 406.589416 312.209524 
L 406.908023 312.25305 
L 407.11581 312.25305 
L 407.240482 311.88036 
L 407.268187 311.981013 
L 407.448269 312.239448 
L 407.683761 312.285694 
L 408.861221 312.394509 
L 409.484582 312.40539 
L 413.861963 312.307457 
L 413.889668 312.198643 
L 413.95893 312.359144 
L 414.01434 312.356424 
L 414.028193 312.3265 
L 414.111307 311.676332 
L 414.222127 310.280785 
L 414.263685 310.54194 
L 414.457619 311.888521 
L 414.665406 312.136074 
L 415.08098 312.25305 
L 416.036801 312.331941 
L 416.452375 312.361865 
L 416.909507 312.350983 
L 416.951064 311.502229 
L 417.048031 311.932047 
L 417.269671 312.307457 
L 417.532868 312.282974 
L 417.560573 311.774266 
L 417.643687 311.986454 
L 417.893032 312.285694 
L 417.906884 312.261211 
L 417.934589 312.157837 
L 417.989999 312.185041 
L 418.045409 312.097989 
L 418.211639 312.242169 
L 418.488688 312.3265 
L 419.209017 312.361865 
L 419.776968 312.25577 
L 419.79082 312.266652 
L 419.804673 312.236728 
L 419.915493 311.455983 
L 419.984755 311.695375 
L 420.220247 312.209524 
L 420.608116 312.315618 
L 421.660904 312.272093 
L 421.716314 311.662731 
L 421.827134 311.929326 
L 422.007216 312.206804 
L 423.475578 312.383628 
L 423.60025 312.342822 
L 423.724922 310.520177 
L 423.821889 311.227472 
L 424.015824 311.853156 
L 424.223611 312.008217 
L 424.237463 311.95381 
L 424.251316 311.825953 
L 424.334431 312.02998 
L 424.542218 312.155117 
L 424.639185 312.144235 
L 424.680742 310.969037 
L 424.791562 311.602883 
L 424.971644 312.051743 
L 425.276399 312.155117 
L 425.414923 312.068065 
L 425.442628 311.523992 
L 425.470333 311.06153 
L 425.539596 311.624646 
L 425.747383 312.051743 
L 425.78894 312.051743 
L 425.802793 311.869478 
L 425.858202 312.059904 
L 425.89976 311.978293 
L 426.093694 312.155117 
L 426.453859 312.089828 
L 426.564678 311.970132 
L 426.578531 311.972852 
L 426.814023 312.187761 
L 427.478942 312.198643 
L 427.575909 310.887426 
L 427.631319 311.35805 
L 427.811401 311.986454 
L 428.03304 312.141515 
L 428.074598 311.382533 
L 428.157713 312.038141 
L 428.282385 312.130634 
L 428.296237 312.087108 
L 428.323942 311.87764 
L 428.407057 312.016378 
L 428.808779 312.198643 
L 429.182795 312.1796 
L 429.2105 311.978293 
L 429.293615 312.17688 
L 429.473697 312.187761 
L 431.039026 312.078947 
L 431.191404 311.545755 
L 431.232961 311.611044 
L 431.343781 311.932047 
L 431.523863 312.155117 
L 431.78706 312.231287 
L 434.08657 312.340102 
L 434.308209 312.342822 
L 434.446734 311.439661 
L 434.460587 311.377092 
L 434.502144 311.687214 
L 434.696079 312.204083 
L 435.000833 312.307457 
L 435.20862 312.285694 
L 435.250177 310.835739 
L 435.31944 311.88036 
L 435.333292 311.893962 
L 435.388702 310.54466 
L 435.457965 311.687214 
L 435.610342 312.174159 
L 436.012063 312.282974 
L 436.524605 312.299296 
L 436.55231 311.918445 
L 436.649277 312.016378 
L 436.898621 312.307457 
L 438.990344 312.416272 
L 439.669116 312.438035 
L 442.037888 312.462518 
L 442.093298 312.117032 
L 442.148708 312.274813 
L 442.32879 312.432594 
L 442.744364 312.481561 
L 443.173791 312.391789 
L 443.28461 312.408111 
L 443.50625 312.459798 
L 443.520102 312.429874 
L 443.658627 311.681773 
L 443.67248 311.684494 
L 443.727889 311.790588 
L 443.935676 312.340102 
L 444.503628 312.448916 
L 444.545185 312.448916 
L 444.57289 311.853156 
L 444.656005 312.239448 
L 444.946907 312.413552 
L 445.58412 312.462518 
L 445.75035 312.17688 
L 445.764203 312.18232 
L 446.276744 312.448916 
L 446.304449 312.432594 
L 446.346006 311.075132 
L 446.456826 311.839554 
L 446.623056 312.296576 
L 446.678466 312.32922 
L 446.706171 312.266652 
L 446.76158 311.991895 
L 446.830843 312.152396 
L 447.024777 312.350983 
L 448.700926 312.459798 
L 449.019533 312.467959 
L 449.047238 312.25033 
L 449.061091 312.155117 
L 449.130353 312.361865 
L 449.144205 312.337381 
L 449.241173 312.242169 
L 449.268878 312.274813 
L 449.462812 312.427153 
L 450.62642 312.353704 
L 450.751092 312.18232 
L 450.778797 312.234007 
L 450.972731 312.416272 
L 451.014289 312.356424 
L 451.055846 312.144235 
L 451.125109 312.25033 
L 451.346748 312.424433 
L 452.205601 312.481561 
L 452.344126 312.467959 
L 452.371831 311.836834 
L 452.454946 312.234007 
L 452.676585 312.427153 
L 453.119864 312.337381 
L 453.258389 312.081667 
L 453.286094 312.125193 
L 453.535439 312.413552 
L 454.505111 312.492442 
L 454.643636 312.397229 
L 454.657489 312.364585 
L 454.712899 312.47884 
L 454.726751 312.481561 
L 454.962243 312.492442 
L 455.253145 312.492442 
L 456.23667 312.451637 
L 456.264375 311.749782 
L 456.34749 312.280254 
L 456.472162 312.427153 
L 456.486015 312.413552 
L 456.527572 312.136074 
L 456.610687 312.378187 
L 456.901589 312.470679 
L 459.228804 312.367305 
L 459.353476 312.263931 
L 459.311919 312.416272 
L 459.367329 312.274813 
L 459.616673 312.467959 
L 460.004542 312.514205 
L 460.0461 311.885801 
L 460.129214 312.214965 
L 460.170772 312.331941 
L 460.184624 312.288415 
L 460.226182 310.751408 
L 460.309297 311.121378 
L 460.323149 311.156743 
L 460.350854 311.012563 
L 460.378559 310.76501 
L 460.420116 311.235633 
L 460.600198 312.201363 
L 460.821838 312.375466 
L 461.029625 312.378187 
L 461.320527 312.372746 
L 461.625281 312.427153 
L 462.34561 312.457077 
L 462.678069 312.383628 
L 463.46766 312.440755 
L 463.57848 311.725299 
L 463.606185 311.839554 
L 463.63389 311.937488 
L 463.647742 311.73346 
L 463.675447 310.612669 
L 463.758562 311.227472 
L 463.966349 312.198643 
L 464.229546 312.342822 
L 464.5343 312.394509 
L 465.046842 312.307457 
L 465.185366 312.25033 
L 465.462416 312.416272 
L 466.764548 312.424433 
L 466.861515 310.626271 
L 466.94463 311.453262 
L 467.124712 312.280254 
L 467.429466 312.383628 
L 468.191352 312.421713 
L 468.246762 312.269372 
L 468.371434 312.035421 
L 468.385287 312.046302 
L 468.537664 312.280254 
L 468.593074 311.325405 
L 468.662336 311.869478 
L 468.828566 312.25033 
L 469.008648 312.285694 
L 469.050205 311.551196 
L 469.13332 311.874919 
L 469.590452 312.32922 
L 472.637995 312.32378 
L 472.6657 312.021819 
L 472.748815 312.25577 
L 472.77652 312.225846 
L 472.83193 312.302017 
L 473.067422 312.413552 
L 473.718488 312.438035 
L 473.815455 312.258491 
L 473.89857 311.344448 
L 473.981685 311.551196 
L 474.17562 312.171439 
L 474.438817 312.318339 
L 477.223163 312.261211 
L 477.37554 311.831393 
L 477.403245 311.87764 
L 477.624885 312.187761 
L 477.985049 312.274813 
L 480.423084 312.171439 
L 480.589313 312.040861 
L 480.603166 312.057184 
L 480.769396 312.160558 
L 481.01874 312.217685 
L 481.877593 312.3265 
L 482.237757 312.285694 
L 486.878335 312.247609 
L 487.01686 312.02998 
L 487.196942 312.217685 
L 487.764893 312.427153 
L 490.369158 312.334661 
L 490.424567 312.10343 
L 490.49383 312.236728 
L 490.992519 312.321059 
L 491.047929 312.021819 
L 491.144896 312.046302 
L 491.546618 312.350983 
L 492.502438 312.427153 
L 493.319734 312.318339 
L 493.388996 311.997336 
L 493.513668 312.108871 
L 493.652193 312.277533 
L 493.666046 312.247609 
L 493.790718 311.325405 
L 493.85998 311.662731 
L 494.053915 312.127913 
L 494.261702 312.242169 
L 494.718833 312.17688 
L 494.843506 310.498414 
L 494.87121 310.656195 
L 495.078998 311.801469 
L 495.342194 312.10615 
L 495.979408 312.242169 
L 496.616622 312.149676 
L 496.727442 311.132259 
L 496.768999 311.246515 
L 497.046048 311.951089 
L 497.309245 312.125193 
L 497.530885 312.146956 
L 497.697114 312.122472 
L 497.974164 312.212245 
L 498.334328 312.25305 
L 501.340314 312.361865 
L 501.880561 312.361865 
L 501.908266 312.315618 
L 501.949823 311.896682 
L 502.04679 311.937488 
L 502.296135 312.263931 
L 502.974906 312.307457 
L 503.058021 312.187761 
L 503.127283 312.231287 
L 503.362775 312.122472 
L 503.39048 311.975573 
L 503.487447 311.989175 
L 503.999989 312.25305 
L 505.648433 312.356424 
L 505.7454 312.440755 
L 505.786957 312.315618 
L 505.897777 312.345542 
L 506.424171 312.350983 
L 506.562696 312.350983 
L 507.532369 312.242169 
L 507.560073 312.157837 
L 507.657041 312.187761 
L 507.906385 312.247609 
L 507.920238 312.160558 
L 507.947943 312.108871 
L 508.003353 312.201363 
L 508.017205 312.201363 
L 508.183435 312.274813 
L 508.280402 312.220406 
L 508.321959 312.165998 
L 508.418927 310.852062 
L 508.502041 311.475025 
L 508.695976 312.013658 
L 508.945321 312.17688 
L 510.275158 312.285694 
L 510.56606 312.285694 
L 512.075979 312.214965 
L 512.214504 311.872199 
L 512.228356 311.885801 
L 512.519258 312.057184 
L 513.558193 312.152396 
L 514.04303 312.165998 
L 514.804916 312.223126 
L 514.971145 311.926606 
L 515.040408 312.010937 
L 515.331309 312.18232 
L 515.719179 312.220406 
L 516.273277 312.117032 
L 516.425655 312.133354 
L 516.619589 312.133354 
L 516.771966 312.163278 
L 517.256803 312.155117 
L 517.40918 310.936393 
L 517.492295 311.194828 
L 517.741639 311.855877 
L 518.060246 312.013658 
L 518.932952 312.122472 
L 519.736395 312.168719 
L 520.401314 312.065345 
L 520.609101 312.019099 
L 520.747625 312.10615 
L 520.77533 312.073506 
L 520.927707 312.024539 
L 521.232462 312.133354 
L 521.689593 312.054463 
L 521.745003 311.725299 
L 521.855823 310.843901 
L 521.89738 311.126819 
L 522.091315 311.798749 
L 522.299102 311.991895 
L 522.548447 312.049023 
L 522.783939 312.081667 
L 522.908611 312.068065 
L 523.947546 312.002776 
L 524.099923 311.630086 
L 524.127628 311.651849 
L 524.293858 311.921165 
L 524.487792 312.035421 
L 525.48517 312.144235 
L 525.734515 312.163278 
L 526.163941 312.136074 
L 526.468696 312.187761 
L 527.050499 312.190482 
L 527.521483 312.209524 
L 528.186402 312.155117 
L 528.297222 312.043582 
L 528.311074 312.057184 
L 528.532714 312.206804 
L 529.391567 312.263931 
L 529.917961 312.266652 
L 530.167305 312.285694 
L 531.469438 312.288415 
L 531.580257 311.679053 
L 531.621815 311.823232 
L 531.829602 312.225846 
L 531.995831 312.223126 
L 532.051241 311.768825 
L 532.148209 311.921165 
L 532.342143 312.17688 
L 532.77157 312.285694 
L 533.450341 312.307457 
L 539.586985 312.416272 
L 540.210346 312.427153 
L 540.584363 312.353704 
L 540.625921 311.706256 
L 540.73674 311.009843 
L 540.764445 311.200268 
L 540.95838 312.18232 
L 540.972232 312.1796 
L 541.01379 311.961971 
L 541.055347 311.254676 
L 541.138462 311.597442 
L 541.318544 312.149676 
L 541.526331 312.263931 
L 541.540184 312.244889 
L 541.581741 312.081667 
L 541.664856 312.122472 
L 541.734118 312.043582 
L 541.844938 311.708977 
L 541.85879 311.736181 
L 542.052725 312.163278 
L 542.24666 312.266652 
L 542.565266 312.3265 
L 543.25789 312.350983 
L 544.338383 312.269372 
L 544.421497 312.02998 
L 544.49076 312.10615 
L 545.155678 312.372746 
L 545.709777 312.274813 
L 545.848302 310.634432 
L 545.862154 310.656195 
L 546.263876 311.926606 
L 546.305433 311.649129 
L 546.402401 311.787867 
L 546.62404 312.076226 
L 547.067319 312.209524 
L 547.372074 312.171439 
L 547.413631 311.703536 
L 547.496746 311.823232 
L 547.732238 312.165998 
L 549.020518 312.307457 
L 549.131337 312.239448 
L 549.31142 311.262837 
L 549.380682 311.676332 
L 549.394534 311.65729 
L 549.422239 311.774266 
L 549.588469 312.160558 
L 550.0456 312.307457 
L 550.544289 312.198643 
L 550.890601 309.342259 
L 550.959864 309.995146 
L 551.153798 311.464144 
L 551.38929 311.793308 
L 551.638635 311.902123 
L 551.652487 311.864038 
L 551.846422 310.857502 
L 551.874127 310.936393 
L 551.971094 311.317244 
L 552.192733 311.708977 
L 552.442078 311.834114 
L 552.608308 311.937488 
L 552.62216 311.896682 
L 552.78839 310.879265 
L 552.802242 311.034326 
L 552.926914 311.279159 
L 553.328636 311.891241 
L 554.048964 312.057184 
L 554.381424 311.964691 
L 554.519948 311.847716 
L 554.783145 312.057184 
L 555.129457 312.133354 
L 557.428967 312.149676 
L 557.525935 311.453262 
L 557.553639 311.58112 
L 557.733722 312.114311 
L 558.052328 312.231287 
L 558.592575 312.236728 
L 558.703395 310.705162 
L 558.800362 311.298202 
L 559.022001 312.02998 
L 559.285198 312.17688 
L 560.282576 312.285694 
L 560.91979 312.310178 
L 561.072167 312.32378 
L 561.390774 312.350983 
L 561.446184 312.117032 
L 561.529299 312.340102 
L 561.750938 312.236728 
L 561.806348 312.193202 
L 561.861758 312.242169 
L 561.87561 312.242169 
L 561.958725 311.564797 
L 562.000283 311.858597 
L 562.15266 312.214965 
L 562.402004 312.285694 
L 562.540529 312.013658 
L 562.609791 312.17688 
L 562.803726 312.307457 
L 564.34135 312.416272 
L 564.659957 312.427153 
L 565.657335 312.408111 
L 565.68504 312.25577 
L 565.782007 312.299296 
L 565.823564 312.206804 
L 565.934384 311.66001 
L 565.975942 311.861317 
L 566.045204 312.130634 
L 566.072909 311.796029 
L 566.336106 312.353704 
L 566.627008 312.397229 
L 567.001024 312.427153 
L 567.749058 312.3265 
L 567.887582 312.302017 
L 568.607911 312.470679 
L 568.981928 312.367305 
L 569.1066 312.10343 
L 569.16201 312.209524 
L 569.203567 312.198643 
L 569.245125 312.258491 
L 569.522174 312.427153 
L 571.62775 312.356424 
L 571.641602 312.152396 
L 571.697012 312.391789 
L 571.738569 312.206804 
L 571.821684 312.160558 
L 571.849389 312.223126 
L 572.043324 312.432594 
L 572.458898 312.481561 
L 572.569718 312.448916 
L 572.597422 312.157837 
L 572.680537 312.32922 
L 572.874472 312.446196 
L 572.888324 312.429874 
L 573.096111 311.844995 
L 573.123816 311.926606 
L 573.290046 312.228567 
L 573.553243 312.416272 
L 578.138411 312.315618 
L 578.179968 312.310178 
L 578.235378 312.370026 
L 578.457017 312.459798 
L 578.831034 312.492442 
L 579.232756 312.497883 
L 579.260461 311.562077 
L 579.343576 312.130634 
L 579.53751 312.416272 
L 579.966937 312.470679 
L 583.000628 312.40539 
L 583.083743 310.626271 
L 583.139153 311.205709 
L 583.34694 312.146956 
L 583.540874 312.340102 
L 584.24735 312.448916 
L 584.482842 312.459798 
L 584.801449 312.470679 
L 586.048171 312.410831 
L 586.145139 311.273718 
L 586.228253 311.834114 
L 586.408336 312.312898 
L 586.837762 312.438035 
L 591.284405 312.410831 
L 591.395225 312.10071 
L 591.409077 312.108871 
L 591.616864 312.394509 
L 592.849734 312.503324 
L 593.362276 312.492442 
L 595.357031 312.391789 
L 595.495556 312.391789 
L 595.96654 312.372746 
L 596.229737 312.340102 
L 599.471215 312.408111 
L 599.49892 312.500603 
L 599.540478 312.312898 
L 599.568183 312.334661 
L 599.66515 312.443476 
L 599.706707 312.340102 
L 599.845232 312.448916 
L 600.163839 312.514205 
L 601.590643 312.424433 
L 601.673758 312.318339 
L 601.729168 312.361865 
L 602.352529 312.492442 
L 604.998351 312.383628 
L 605.109171 312.258491 
L 605.136876 312.117032 
L 605.206138 312.304737 
L 605.233843 312.334661 
L 605.2754 312.231287 
L 605.289253 312.234007 
L 605.60786 312.438035 
L 605.815647 312.462518 
L 606.134254 312.47612 
L 607.034664 312.40539 
L 607.242451 312.40539 
L 607.450238 312.40539 
L 608.004337 312.304737 
L 608.059747 310.949995 
L 608.156714 309.834645 
L 608.184419 309.967943 
L 608.447616 311.929326 
L 608.696961 312.217685 
L 609.417289 312.383628 
L 611.287373 312.315618 
L 611.38434 311.466864 
L 611.453602 311.703536 
L 611.661389 312.258491 
L 611.979996 312.372746 
L 612.132373 312.280254 
L 612.215488 312.269372 
L 612.243193 312.291135 
L 612.547947 312.302017 
L 612.686472 312.32922 
L 613.46221 312.438035 
L 613.780817 312.448916 
L 614.030162 312.350983 
L 614.057867 312.087108 
L 614.085572 311.757943 
L 614.168686 311.88308 
L 614.224096 311.945649 
L 614.445736 312.280254 
L 614.833605 312.383628 
L 615.332294 312.394509 
L 615.526229 312.416272 
L 615.706311 312.40539 
L 616.786803 312.302017 
L 616.939181 311.768825 
L 616.99459 311.921165 
L 617.243935 312.261211 
L 617.798034 312.361865 
L 618.850821 312.350983 
L 618.906231 311.050648 
L 619.017051 311.523992 
L 619.210986 312.119752 
L 619.474183 312.263931 
L 620.346888 312.364585 
L 620.443856 312.446196 
L 620.471561 312.40267 
L 620.540823 312.280254 
L 620.596233 312.342822 
L 620.790167 312.340102 
L 620.984102 312.350983 
L 621.358119 312.25305 
L 621.482791 311.347168 
L 621.552053 311.387974 
L 621.801398 312.133354 
L 623.006563 312.269372 
L 623.26976 311.51039 
L 623.380579 311.768825 
L 623.574514 312.117032 
L 623.893121 312.231287 
L 624.184023 312.141515 
L 624.294842 311.861317 
L 624.322547 311.888521 
L 624.599597 312.187761 
L 626.719025 312.285694 
L 626.732877 312.315618 
L 626.80214 312.225846 
L 626.815992 312.204083 
L 626.899107 312.280254 
L 627.134599 312.25577 
L 627.231566 312.302017 
L 627.771812 312.302017 
L 627.9796 312.331941 
L 628.644518 312.350983 
L 631.45657 312.266652 
L 631.595094 312.209524 
L 632.066078 312.318339 
L 632.855669 312.361865 
L 633.063456 312.361865 
L 634.227064 312.266652 
L 634.296326 311.695375 
L 634.407146 311.942928 
L 634.448703 311.983734 
L 634.504113 311.913004 
L 634.587228 311.95381 
L 634.60108 311.981013 
L 634.82272 312.187761 
L 636.734361 312.084387 
L 636.859033 311.896682 
L 636.956 311.828673 
L 636.983705 311.861317 
L 637.12223 312.000056 
L 637.163787 311.910284 
L 637.28846 311.861317 
L 637.454689 311.981013 
L 637.482394 311.945649 
L 637.662476 311.885801 
L 638.13346 312.035421 
L 638.632149 312.122472 
L 638.867641 312.144235 
L 639.768052 312.209524 
L 642.857153 312.10615 
L 643.051087 312.035421 
L 643.161907 312.054463 
L 643.17576 312.02726 
L 643.328137 311.831393 
L 643.341989 311.850436 
L 643.702154 312.111591 
L 645.516827 312.122472 
L 645.58609 311.034326 
L 645.683057 311.469585 
L 645.876991 311.972852 
L 646.181746 312.076226 
L 647.262238 312.17688 
L 648.758305 312.157837 
L 648.938387 309.87001 
L 649.021502 310.490253 
L 649.146174 311.36077 
L 649.173879 311.300922 
L 649.492486 311.73074 
L 649.838798 311.915725 
L 650.476012 312.024539 
L 650.822323 312.043582 
L 650.919291 311.766105 
L 650.974701 311.885801 
L 651.279455 312.078947 
L 651.833554 311.983734 
L 651.985931 311.428779 
L 651.999783 311.447822 
L 652.20757 311.948369 
L 652.498472 312.078947 
L 654.465523 311.972852 
L 654.493228 311.921165 
L 654.604048 311.385253 
L 654.631753 311.483186 
L 654.83954 311.937488 
L 655.075032 312.078947 
L 655.379786 312.133354 
L 657.914788 312.095269 
L 657.956346 311.562077 
L 658.03946 311.676332 
L 658.136428 311.964691 
L 658.177985 311.80963 
L 658.191838 311.782427 
L 658.233395 311.942928 
L 658.468887 312.108871 
L 659.203068 312.144235 
L 659.230773 312.111591 
L 659.577085 309.021256 
L 659.618642 309.138231 
L 660.020364 311.502229 
L 660.297413 311.706256 
L 661.918152 312.02998 
L 661.932005 311.915725 
L 661.95971 311.651849 
L 662.042824 311.757943 
L 662.292169 312.021819 
L 662.763153 312.000056 
L 662.80471 311.640968 
L 662.887825 311.760664 
L 663.109465 312.02726 
L 663.441924 312.10071 
L 664.300777 312.054463 
L 664.328482 311.850436 
L 664.411597 312.024539 
L 664.522417 312.089828 
L 664.577827 312.092548 
L 664.591679 312.051743 
L 664.702499 311.989175 
L 664.716351 312.002776 
L 664.799466 311.989175 
L 664.827171 311.148582 
L 664.854876 310.332472 
L 664.937991 310.773171 
L 665.118073 311.752503 
L 665.367417 311.981013 
L 665.963074 312.10071 
L 666.572582 312.119752 
L 666.600287 311.87764 
L 666.683402 311.991895 
L 667.126681 312.144235 
L 667.279058 311.964691 
L 667.320616 312.010937 
L 667.542255 312.141515 
L 668.553486 312.228567 
L 669.052175 312.242169 
L 670.756028 312.236728 
L 670.797586 311.885801 
L 670.880701 312.095269 
L 670.949963 312.18232 
L 671.171603 312.274813 
L 671.254717 312.174159 
L 671.310127 311.515831 
L 671.37939 311.559357 
L 671.697996 312.220406 
L 672.55685 312.277533 
L 672.584555 312.10343 
L 672.667669 311.028885 
L 672.723079 311.379813 
L 672.958571 312.144235 
L 673.235621 312.231287 
L 673.955949 312.122472 
L 673.997507 311.015284 
L 674.080621 311.270998 
L 674.149884 310.892867 
L 674.191441 311.21387 
L 674.357671 311.893962 
L 674.57931 312.097989 
L 675.133409 312.204083 
L 675.133409 312.204083 
" clip-path="url(#p2922a3a13c)" style="fill: none; stroke: #1f77b4; stroke-width: 1.5; stroke-linecap: square"/>
   </g>
   <g id="line2d_13">
    <path d="M 63.851591 311.763384 
L 63.879296 311.764497 
L 63.920853 311.835753 
L 64.253313 312.261283 
L 64.308722 312.14309 
L 64.391837 311.795119 
L 64.4611 311.892099 
L 64.793559 312.265449 
L 65.25069 312.347328 
L 65.458477 312.372083 
L 65.597002 311.169817 
L 65.666265 311.463233 
L 65.971019 312.478832 
L 66.137249 312.610707 
L 66.178806 312.57352 
L 66.317331 312.606394 
L 66.442003 312.599715 
L 66.455855 312.545411 
L 66.511265 312.123648 
L 66.59438 312.221258 
L 66.885282 312.527515 
L 67.203889 312.615587 
L 67.494791 312.63488 
L 67.550201 312.260988 
L 67.619463 312.308635 
L 67.979627 312.510648 
L 68.478316 312.556479 
L 68.561431 312.172759 
L 68.686103 310.556915 
L 68.741513 310.820639 
L 69.087825 312.501394 
L 69.337169 312.709263 
L 69.503399 312.178222 
L 69.586514 312.26984 
L 69.641924 312.333175 
L 69.697333 312.248541 
L 69.725038 312.188212 
L 69.794301 312.270869 
L 70.12676 312.495448 
L 70.625449 312.536221 
L 70.805531 312.482373 
L 71.276515 312.534961 
L 71.331925 312.478755 
L 71.387335 311.958047 
L 71.456597 312.060091 
L 71.802909 312.495102 
L 72.204631 312.577267 
L 72.661762 312.538966 
L 72.731024 312.085391 
L 72.800287 312.17188 
L 73.146599 312.506013 
L 73.409796 312.49167 
L 73.589878 312.522337 
L 74.227091 312.552301 
L 74.933567 312.464815 
L 75.05824 312.397517 
L 75.252174 312.318793 
L 75.640043 312.45238 
L 76.415782 312.439225 
L 76.485044 312.35984 
L 76.540454 312.377633 
L 77.30234 312.479172 
L 79.49103 312.418203 
L 79.60185 311.905747 
L 79.671112 311.954997 
L 80.294473 312.483379 
L 80.432998 312.364161 
L 80.460703 312.376586 
L 80.7239 312.44773 
L 80.737752 312.40449 
L 80.862425 312.382336 
L 81.458081 312.421069 
L 81.638163 312.343486 
L 81.652016 312.282383 
L 81.748983 312.346635 
L 82.164557 312.529364 
L 82.275377 312.456478 
L 82.358491 312.245707 
L 82.400049 312.275411 
L 82.815623 312.641639 
L 82.968 312.354137 
L 83.02341 312.10772 
L 83.092672 312.208099 
L 83.411279 312.549692 
L 83.563656 312.545393 
L 83.632919 311.993507 
L 83.716034 312.150986 
L 84.03464 312.613058 
L 84.408657 312.69035 
L 85.960134 312.658814 
L 86.057101 312.393496 
L 86.140216 312.431651 
L 86.597347 312.524368 
L 88.190382 312.530387 
L 89.02153 312.457887 
L 89.035382 312.380551 
L 89.13235 312.42941 
L 89.603334 312.586506 
L 90.060465 312.575854 
L 90.295957 311.048524 
L 90.351367 311.342455 
L 90.614564 312.651475 
L 90.628416 312.589509 
L 90.669974 312.273683 
L 90.739236 312.407998 
L 91.030138 312.815235 
L 91.390302 312.905821 
L 92.179893 312.836253 
L 92.359975 312.706851 
L 92.415385 312.527281 
L 92.484647 312.543243 
L 92.955631 312.743125 
L 93.911452 312.728491 
L 96.834323 312.531131 
L 96.958995 312.266945 
L 96.972848 312.273269 
L 97.443832 312.483662 
L 98.33039 312.516481 
L 102.029 312.41099 
L 102.167524 312.23812 
L 102.209082 312.268453 
L 102.583098 312.48161 
L 102.763181 312.430745 
L 103.317279 312.50483 
L 104.189985 312.451065 
L 104.2731 312.112367 
L 104.370067 312.197149 
L 104.730231 312.38406 
L 105.436707 312.407888 
L 105.575232 312.296093 
L 106.267856 312.364347 
L 108.151792 312.387427 
L 108.401136 312.282079 
L 108.844415 312.396353 
L 110.866876 312.428023 
L 111.0054 312.377734 
L 111.102368 312.071201 
L 111.17163 312.12372 
L 111.199335 312.125284 
L 111.22704 312.056389 
L 111.268597 311.572497 
L 111.310155 311.246713 
L 111.379417 311.479998 
L 111.684172 312.481053 
L 111.947368 312.651959 
L 112.335238 312.629601 
L 112.51532 312.157081 
L 112.543025 312.038862 
L 112.612287 312.172849 
L 112.917041 312.642335 
L 113.263353 312.72523 
L 113.609665 312.635499 
L 113.789747 312.649379 
L 114.482371 312.682518 
L 118.097865 312.522679 
L 118.250243 312.384028 
L 119.954096 312.460952 
L 124.28992 312.406578 
L 124.386887 311.451175 
L 124.442297 311.591324 
L 124.774756 312.337682 
L 125.093363 312.468534 
L 125.952216 312.492251 
L 126.36779 312.469553 
L 126.464758 311.090716 
L 126.575577 311.555285 
L 126.852627 312.378886 
L 127.129676 312.555703 
L 127.76689 312.601472 
L 127.850005 312.35285 
L 127.905414 311.861741 
L 127.974677 311.983542 
L 128.307136 312.507034 
L 128.6673 312.597248 
L 130.260334 312.588782 
L 131.908778 312.454808 
L 132.075008 312.249727 
L 132.171975 312.176258 
L 132.227385 311.873626 
L 132.324353 310.883083 
L 132.393615 311.176388 
L 132.698369 312.24347 
L 132.975419 312.439006 
L 133.59878 312.496897 
L 136.438536 312.505761 
L 136.646323 312.490298 
L 139.444522 312.467341 
L 139.5969 312.414009 
L 140.123293 312.501732 
L 142.007229 312.476973 
L 142.048787 312.340748 
L 142.131902 311.321185 
L 142.215017 311.602441 
L 142.519771 312.459485 
L 142.79682 312.611665 
L 143.503296 312.640089 
L 150.055515 312.661404 
L 150.360269 312.70936 
L 150.665024 312.490144 
L 151.011335 312.353981 
L 151.828631 312.311222 
L 151.925598 311.892882 
L 151.994861 311.978709 
L 152.202648 312.113992 
L 152.341172 312.207738 
L 152.368877 312.145721 
L 152.54896 311.927499 
L 152.562812 311.941036 
L 152.978386 312.397358 
L 153.546337 312.608136 
L 153.740272 312.462148 
L 154.003469 312.329032 
L 157.632816 312.307567 
L 157.882161 311.488883 
L 157.923718 311.612512 
L 158.27003 312.773777 
L 158.491669 312.869564 
L 158.976506 312.899053 
L 160.805032 312.740017 
L 160.888147 311.630572 
L 160.985114 311.929839 
L 161.276016 312.700109 
L 161.553065 312.841463 
L 162.217984 312.832907 
L 162.855198 312.742599 
L 162.966017 311.79243 
L 163.062985 312.096624 
L 163.243067 312.59268 
L 163.270772 312.540505 
L 163.326182 312.108087 
L 163.353887 311.938064 
L 163.423149 312.223263 
L 163.727903 313.194153 
L 163.977248 313.314424 
L 164.586756 313.244901 
L 166.581512 312.814532 
L 166.636922 312.599658 
L 166.706184 312.6462 
L 167.080201 312.838617 
L 167.828234 312.825482 
L 169.130367 312.68032 
L 169.213482 312.431992 
L 169.282744 312.481716 
L 169.781433 312.667417 
L 171.235942 312.645285 
L 171.873156 312.581328 
L 171.983976 311.646668 
L 172.094795 311.962557 
L 172.136353 312.040446 
L 172.17791 311.902633 
L 172.205615 311.875535 
L 172.261025 311.980026 
L 172.330287 312.147257 
L 172.39955 312.067777 
L 172.482665 311.575026 
L 172.551927 311.788687 
L 172.842829 312.418662 
L 173.133731 312.581526 
L 173.840207 312.618496 
L 174.518978 312.511791 
L 174.629797 311.398138 
L 174.726765 311.669355 
L 175.059224 312.506705 
L 175.363978 312.633723 
L 176.264389 312.647416 
L 176.679963 312.605007 
L 177.497259 312.589231 
L 177.663489 312.093694 
L 177.691193 312.11446 
L 178.217587 312.462088 
L 179.173408 312.490712 
L 179.616687 312.391504 
L 179.699802 312.021519 
L 179.769064 311.397125 
L 179.824474 311.515692 
L 180.156933 312.320603 
L 180.461688 312.458698 
L 181.348246 312.497488 
L 184.368084 312.463455 
L 184.437347 312.198329 
L 184.506609 312.230849 
L 184.949888 312.370574 
L 186.016528 312.397602 
L 186.155053 312.308744 
L 186.972349 312.378317 
L 187.041611 312.229509 
L 187.166283 311.94465 
L 187.207841 311.961371 
L 188.080546 312.368573 
L 189.341121 312.429264 
L 189.465793 312.35349 
L 189.590466 312.088371 
L 189.604318 312.092224 
L 190.615548 312.384992 
L 190.670958 312.283458 
L 190.809483 312.03518 
L 190.85104 312.065589 
L 191.23891 312.238773 
L 191.391287 312.207611 
L 191.460549 311.680252 
L 191.529811 311.748045 
L 191.889976 312.080059 
L 192.444075 312.169932 
L 193.31678 312.154029 
L 193.399895 311.958358 
L 193.455305 311.983373 
L 193.981699 312.127616 
L 196.170389 312.223482 
L 198.262112 312.272885 
L 198.400637 311.044332 
L 198.497604 311.366079 
L 198.525309 311.445156 
L 198.566867 311.300839 
L 198.649981 311.07276 
L 198.691539 311.187423 
L 198.996293 311.932547 
L 199.301047 312.10615 
L 200.076786 312.185537 
L 200.215311 312.119514 
L 200.38154 311.736133 
L 200.506212 311.620325 
L 200.533917 311.652038 
L 200.880229 311.917858 
L 201.074164 311.891204 
L 201.184983 311.476092 
L 201.254246 311.211289 
L 201.323508 311.293562 
L 201.642115 311.546015 
L 202.113099 311.642202 
L 203.595313 311.730115 
L 203.816953 311.74414 
L 206.629004 311.899625 
L 209.357941 311.93792 
L 209.413351 311.839946 
L 209.510318 311.570739 
L 209.565728 311.634711 
L 209.773515 311.728782 
L 210.202942 311.926575 
L 211.394254 312.013204 
L 211.491221 311.915314 
L 211.712861 310.457961 
L 211.782123 309.945205 
L 211.851386 310.036637 
L 212.363927 311.967884 
L 212.37778 311.962802 
L 212.516304 311.940269 
L 213.430567 312.156602 
L 216.75516 312.277908 
L 218.957703 312.284863 
L 219.026965 312.218386 
L 219.082375 312.239048 
L 219.594917 312.349821 
L 219.927376 312.37696 
L 220.038196 311.151103 
L 220.121311 311.444661 
L 220.426065 312.308109 
L 220.716967 312.479404 
L 221.40959 312.53395 
L 221.977542 312.466555 
L 222.032952 312.144232 
L 222.102214 312.191062 
L 222.503936 312.408517 
L 223.335084 312.452079 
L 223.487461 312.399585 
L 223.625986 311.858495 
L 223.667543 311.913815 
L 223.958445 312.198799 
L 224.318609 312.335205 
L 224.429429 312.368657 
L 224.498691 311.093301 
L 224.581806 311.511764 
L 224.748036 312.443437 
L 224.761888 312.280755 
L 224.845003 311.151483 
L 224.900413 311.384666 
L 225.260577 313.492257 
L 225.482217 313.67485 
L 225.773119 313.621069 
L 226.28566 313.405039 
L 226.839759 313.319407 
L 228.294268 313.030445 
L 228.363531 312.769805 
L 228.41894 312.799913 
L 228.834515 312.948144 
L 229.250089 312.894533 
L 229.319351 311.842099 
L 229.374761 311.437911 
L 229.430171 311.630287 
L 229.721073 312.463838 
L 229.998122 312.687166 
L 230.510663 312.739323 
L 233.045666 312.633523 
L 233.225748 312.62371 
L 233.40583 312.557557 
L 233.544355 312.476651 
L 233.779847 312.424391 
L 234.209273 312.519561 
L 236.051652 312.519183 
L 236.093209 312.3201 
L 236.217881 311.393895 
L 236.273291 311.468066 
L 236.868947 312.282446 
L 237.436899 312.355644 
L 238.032555 312.323089 
L 240.041163 312.370575 
L 240.24895 312.299507 
L 240.290508 312.234885 
L 240.401327 311.428439 
L 240.456737 311.503186 
L 240.803049 312.09706 
L 241.149361 312.199273 
L 242.229854 312.263286 
L 243.351904 312.228181 
L 243.462723 312.095159 
L 243.504281 312.113197 
L 244.016822 312.247534 
L 244.861823 312.205043 
L 244.931085 312.126919 
L 244.986495 312.146076 
L 245.028053 312.117773 
L 245.041905 312.080845 
L 245.18043 311.238427 
L 245.23584 310.680044 
L 245.29125 310.92196 
L 245.609856 312.054223 
L 245.886906 312.256151 
L 246.496414 312.330921 
L 248.685105 312.341917 
L 248.76822 311.70754 
L 248.837482 311.08501 
L 248.906744 311.223339 
L 248.989859 311.300243 
L 249.377728 312.088766 
L 249.696335 312.246769 
L 250.569041 312.313345 
L 253.533469 312.308558 
L 253.671994 311.950925 
L 253.782814 312.059589 
L 254.115273 312.237109 
L 254.891012 312.412172 
L 255.223471 312.382955 
L 255.417405 312.341885 
L 255.819127 312.201498 
L 256.082324 312.15296 
L 257.412161 312.184683 
L 257.536833 312.009903 
L 257.578391 312.028694 
L 258.063227 312.174366 
L 258.935933 312.162482 
L 259.074458 311.990041 
L 259.102163 312.006177 
L 259.559294 312.170917 
L 260.972246 312.236607 
L 261.069213 311.877006 
L 261.180033 311.433529 
L 261.249296 311.532182 
L 261.49864 311.806319 
L 261.831099 312.022037 
L 261.983476 311.993547 
L 262.066591 311.691191 
L 262.135854 311.749908 
L 262.50987 311.989783 
L 263.257904 312.066924 
L 263.74274 311.99813 
L 263.881265 311.879939 
L 263.992085 311.474225 
L 264.061347 311.57759 
L 264.379954 311.946388 
L 264.823233 312.04256 
L 265.723643 311.988781 
L 265.889873 311.921462 
L 265.945283 311.924986 
L 265.959135 311.887902 
L 266.083808 311.259397 
L 266.15307 311.391579 
L 266.457824 311.831319 
L 266.845694 311.947646 
L 267.150448 311.914257 
L 267.302825 311.68924 
L 267.33053 311.728397 
L 267.510612 311.843903 
L 267.829219 311.827737 
L 267.940039 311.708341 
L 268.189383 311.67607 
L 268.67422 311.791264 
L 269.976352 311.810138 
L 270.378074 311.654488 
L 272.303567 311.666193 
L 272.386682 311.361462 
L 272.442092 311.405455 
L 272.843813 311.65295 
L 273.564142 311.714051 
L 273.647257 311.465436 
L 273.785781 310.300135 
L 273.841191 310.461342 
L 274.159798 311.324096 
L 274.4507 311.480071 
L 274.644634 311.490612 
L 274.755454 310.835882 
L 274.838569 310.958231 
L 275.171028 311.315938 
L 275.642012 311.407889 
L 276.6948 311.432537 
L 276.819472 310.493246 
L 276.944145 308.755229 
L 276.999554 309.087992 
L 277.345866 311.090715 
L 277.595211 311.368247 
L 278.024637 311.470762 
L 278.107752 311.365491 
L 278.204719 310.188788 
L 278.315539 308.768177 
L 278.357097 309.04683 
L 278.703408 311.178455 
L 278.952753 311.478851 
L 279.396032 311.600151 
L 279.963983 311.563642 
L 280.047098 311.111243 
L 280.11636 311.184201 
L 280.476525 311.520802 
L 281.030623 311.606995 
L 281.653985 311.580332 
L 281.737099 311.189927 
L 281.806362 311.235529 
L 282.194231 311.526302 
L 282.305051 311.46879 
L 282.498985 311.276455 
L 282.720625 311.332693 
L 283.080789 311.473031 
L 284.258249 311.552471 
L 285.214069 311.52225 
L 285.352594 311.474196 
L 286.696284 311.484039 
L 286.765546 311.341716 
L 286.820956 311.370282 
L 287.12571 311.476477 
L 287.139563 311.446363 
L 287.333497 311.238844 
L 288.012269 311.453361 
L 289.009646 311.472039 
L 289.272843 310.072589 
L 289.328253 310.286018 
L 289.619155 311.183117 
L 289.910057 311.389889 
L 290.394893 311.430564 
L 290.464156 310.482065 
L 290.561123 308.81604 
L 290.616533 309.150731 
L 290.948992 311.159874 
L 291.198337 311.526455 
L 291.489239 311.592414 
L 292.431207 311.721339 
L 292.569731 311.676077 
L 292.722108 310.686598 
L 292.846781 310.96467 
L 293.06842 311.289064 
L 293.082273 311.237182 
L 293.137683 311.100792 
L 293.206945 311.154996 
L 293.567109 311.355483 
L 294.259733 311.426728 
L 294.342848 311.431371 
L 294.41211 310.845017 
L 294.495225 310.957665 
L 294.827684 311.353493 
L 295.270963 311.447015 
L 296.282193 311.467285 
L 296.406866 310.981062 
L 296.448423 311.01733 
L 296.836292 311.322696 
L 297.487358 311.395574 
L 299.897688 311.41006 
L 299.994656 310.940864 
L 300.050065 310.974983 
L 300.437935 311.229154 
L 300.562607 311.178248 
L 300.673427 309.94652 
L 300.728836 310.048955 
L 300.825804 310.332737 
L 300.853509 310.202509 
L 300.936624 309.917141 
L 300.978181 310.02033 
L 301.061296 310.167574 
L 301.089001 310.079417 
L 301.172115 309.686261 
L 301.227525 309.867693 
L 301.58769 310.897822 
L 301.878591 311.037082 
L 302.058674 311.028 
L 302.127936 310.870651 
L 302.197198 310.896455 
L 302.626625 310.965793 
L 302.903674 310.790831 
L 304.912283 310.727229 
L 304.967692 310.528164 
L 305.036955 310.557503 
L 305.480234 310.681832 
L 306.643841 310.594725 
L 308.3754 310.365941 
L 308.458515 309.654726 
L 308.54163 309.755932 
L 308.790974 310.021903 
L 308.804827 309.974362 
L 308.901794 308.760901 
L 308.984909 308.975046 
L 309.289663 309.5897 
L 309.511303 309.610163 
L 309.691385 309.547177 
L 310.037697 309.362555 
L 310.190074 309.215114 
L 310.661058 308.940288 
L 310.84114 308.755041 
L 310.938107 307.410609 
L 311.035074 307.523886 
L 311.048927 307.51549 
L 311.090484 307.603716 
L 311.312124 307.827161 
L 311.492206 307.684762 
L 311.824665 307.074765 
L 312.240239 305.824062 
L 312.586551 304.10153 
L 312.97442 298.939172 
L 313.376142 282.419909 
L 313.528519 260.224297 
L 313.653191 202.749921 
L 313.944093 37.345497 
L 314.082618 37.113028 
L 315.370898 37.108737 
L 318.030572 37.028158 
L 318.058277 36.962359 
L 318.127539 37.028594 
L 318.293769 37.135776 
L 321.32746 37.110826 
L 321.369017 36.877047 
L 321.43828 37.012285 
L 321.590657 37.14128 
L 324.375004 37.11005 
L 325.012217 37.087346 
L 325.067627 36.819478 
L 325.123037 36.986397 
L 325.289267 37.165246 
L 326.0373 37.031708 
L 326.078857 36.978848 
L 326.14812 37.050624 
L 326.383612 37.12796 
L 327.741154 37.031372 
L 327.851974 36.889866 
L 327.865826 36.918489 
L 328.032056 37.187786 
L 328.059761 36.998082 
L 328.142876 37.174499 
L 328.295253 37.173204 
L 328.33681 36.839226 
L 328.406072 37.116621 
L 328.55845 37.167589 
L 328.627712 37.048145 
L 328.669269 36.66342 
L 328.724679 37.071966 
L 328.863204 37.247264 
L 329.73591 37.10962 
L 330.096074 37.059935 
L 330.234599 36.56771 
L 330.262304 36.666201 
L 330.442386 37.309907 
L 330.497796 37.337012 
L 330.553205 37.289571 
L 330.650173 37.181286 
L 330.677878 37.125359 
L 330.760992 37.186545 
L 332.03542 37.00435 
L 332.049272 36.958851 
L 332.118535 37.087757 
L 332.354027 37.1221 
L 332.686486 37.018713 
L 332.700338 36.958369 
L 332.769601 37.084249 
L 332.949683 37.133305 
L 334.556569 37.108291 
L 334.667389 37.050862 
L 334.750504 36.457849 
L 334.805914 36.19267 
L 334.847471 36.467728 
L 335.069111 37.368095 
L 335.166078 37.471728 
L 335.207636 37.4337 
L 335.581652 37.139482 
L 336.398948 37.109135 
L 337.742638 37.063464 
L 337.798047 36.823084 
L 337.881162 36.914064 
L 338.005835 36.464232 
L 338.033539 36.717482 
L 338.199769 37.391037 
L 338.310589 37.378953 
L 338.365999 37.304313 
L 338.379851 37.328576 
L 338.407556 36.748946 
L 338.504523 37.009639 
L 338.629196 37.460543 
L 338.656901 37.452804 
L 339.446491 37.11378 
L 343.560675 36.960035 
L 343.58838 36.496721 
L 343.657643 36.958715 
L 343.823872 37.251351 
L 345.126004 36.938445 
L 345.153709 36.807568 
L 345.209119 37.039628 
L 345.278382 37.137832 
L 345.319939 37.023904 
L 345.347644 37.026134 
L 345.375349 37.093314 
L 345.527726 37.143287 
L 345.624693 36.919862 
L 345.680103 37.111997 
L 345.83248 37.163152 
L 346.026415 37.069567 
L 346.067972 36.936657 
L 346.137235 37.079929 
L 346.289612 37.147838 
L 346.455842 37.014916 
L 346.497399 37.103329 
L 346.663629 37.132985 
L 346.982235 36.960023 
L 347.00994 36.824637 
L 347.06535 37.042808 
L 347.217727 37.155913 
L 348.672237 37.107668 
L 350.043631 36.998443 
L 350.071336 36.844438 
L 350.140599 37.086535 
L 350.292976 37.140131 
L 350.376091 37.090988 
L 350.417648 36.834222 
L 350.473058 37.075344 
L 350.556173 37.154408 
L 350.59773 37.091899 
L 350.888632 37.143347 
L 351.747485 37.108179 
L 352.135354 37.000098 
L 352.190764 36.900995 
L 352.232322 37.007951 
L 352.301584 37.12013 
L 352.356994 37.03484 
L 352.412404 37.035056 
L 352.440109 37.099298 
L 352.592486 37.160913 
L 353.437487 37.108511 
L 354.864291 37.007254 
L 354.947406 36.97044 
L 354.975111 37.029718 
L 355.127488 37.165891 
L 355.515357 37.025576 
L 355.570767 36.773488 
L 355.626177 36.899426 
L 355.806259 37.218099 
L 355.820112 37.213745 
L 356.291096 37.117002 
L 358.756835 37.107507 
L 361.527329 37.071904 
L 361.596592 36.76966 
L 361.652002 36.968247 
L 361.818231 37.202039 
L 362.843314 37.108348 
L 363.6052 36.995817 
L 363.674462 36.758179 
L 363.729872 36.90871 
L 363.799135 37.120014 
L 363.937659 37.268949 
L 365.184382 37.108061 
L 368.20422 37.039832 
L 368.231925 36.970999 
L 368.301188 37.05462 
L 368.439712 37.128609 
L 368.453565 37.111658 
L 368.647499 36.674161 
L 368.689057 36.829633 
L 368.827581 37.320527 
L 368.855286 37.313682 
L 369.534057 37.112873 
L 373.662094 36.994777 
L 373.703651 36.807768 
L 373.759061 37.061499 
L 373.911438 37.175419 
L 374.894963 37.108127 
L 375.199718 37.015996 
L 375.255128 36.554575 
L 375.310538 36.970665 
L 375.449062 37.260016 
L 375.462915 37.256876 
L 376.266358 37.109844 
L 380.311279 36.981331 
L 380.435952 36.867022 
L 380.477509 37.015194 
L 380.629886 37.208663 
L 380.809968 37.155203 
L 384.217676 36.939595 
L 384.245381 36.937968 
L 384.273086 37.010053 
L 384.439316 37.14625 
L 385.422841 36.972051 
L 385.436694 36.950735 
L 385.478251 37.061763 
L 385.630628 37.147426 
L 387.182105 37.110879 
L 390.312763 37.107948 
L 390.68678 37.10988 
L 394.842521 37.007723 
L 394.870226 36.884326 
L 394.925636 37.085984 
L 395.078013 37.16444 
L 396.047686 37.108078 
L 396.449408 37.010162 
L 396.477113 36.980458 
L 396.532522 37.067234 
L 396.698752 37.109712 
L 396.906539 37.127646 
L 398.554983 37.107749 
L 407.129662 37.043515 
L 407.157367 36.981391 
L 407.240482 37.025032 
L 407.406712 37.145025 
L 409.221385 37.107653 
L 414.055898 37.009188 
L 414.194422 36.58383 
L 414.222127 36.735598 
L 414.388357 37.361148 
L 414.402209 37.358844 
L 415.35803 37.109675 
L 416.937211 36.995881 
L 416.964916 36.904369 
L 417.020326 37.040967 
L 417.172703 37.142842 
L 417.54672 37.021558 
L 417.560573 36.884469 
L 417.643687 37.105943 
L 417.809917 37.141506 
L 417.920737 37.079527 
L 417.948442 36.916022 
L 418.017704 37.102562 
L 418.197786 37.136878 
L 419.666148 37.080416 
L 419.804673 37.129708 
L 419.818525 37.099197 
L 419.90164 36.938259 
L 419.943198 37.015197 
L 420.095575 37.154089 
L 421.799429 37.089555 
L 421.840986 37.056814 
L 421.965658 37.149259 
L 422.228855 37.12964 
L 423.364758 37.107636 
L 423.641807 37.057698 
L 423.683365 36.701684 
L 423.752627 37.024652 
L 423.905004 37.145925 
L 424.902382 37.113908 
L 425.276399 37.113213 
L 427.492794 37.080464 
L 427.534351 36.528246 
L 427.603614 37.025098 
L 427.742138 37.277007 
L 427.755991 37.273491 
L 428.434762 37.139654 
L 429.071976 37.112455 
L 429.2105 37.092639 
L 429.958534 37.10854 
L 431.025174 37.018531 
L 431.163699 36.920079 
L 431.205256 36.916377 
L 431.232961 37.006542 
L 431.385338 37.179076 
L 432.133372 37.10977 
L 434.377472 37.068843 
L 434.405177 36.802095 
L 434.474439 37.07357 
L 434.626816 37.153674 
L 435.998211 37.112615 
L 436.538457 37.054861 
L 436.566162 36.939425 
L 436.635425 37.092994 
L 436.829359 37.12513 
L 438.893377 37.108127 
L 443.007561 37.012772 
L 443.035266 36.924452 
L 443.104528 37.080171 
L 443.270758 37.132096 
L 445.501006 37.107643 
L 449.033386 37.054557 
L 449.061091 36.862271 
L 449.144205 37.02215 
L 449.296583 37.14935 
L 450.598715 37.063152 
L 450.62642 36.792902 
L 450.695682 37.058979 
L 450.848059 37.162474 
L 452.080929 37.107793 
L 452.288716 37.051008 
L 452.302569 36.967659 
L 452.385683 37.067845 
L 452.551913 37.131216 
L 453.03675 37.0643 
L 453.147569 36.934422 
L 453.161422 36.942523 
L 453.369209 37.162731 
L 454.865276 37.108676 
L 456.51372 36.997127 
L 456.56913 37.078805 
L 456.749212 37.129201 
L 458.854787 37.10781 
L 459.117984 37.075521 
L 459.270361 37.034206 
L 459.561263 37.1235 
L 459.99069 36.990235 
L 460.018395 36.904019 
L 460.073805 37.067189 
L 460.212329 37.134964 
L 460.267739 36.718096 
L 460.392411 36.928458 
L 460.558641 37.241283 
L 460.780281 37.164069 
L 461.320527 37.11132 
L 463.495365 36.969458 
L 463.509217 36.932409 
L 463.57848 37.048573 
L 463.647742 37.134617 
L 463.661594 37.096622 
L 463.703152 36.692858 
L 463.772414 37.09651 
L 463.910939 37.222048 
L 464.631267 37.110681 
L 466.764548 37.056566 
L 466.792253 36.923418 
L 466.875368 36.959416 
L 467.041597 37.151491 
L 468.246762 36.966007 
L 468.316025 36.954281 
L 468.329877 36.993918 
L 468.482254 37.147126 
L 469.992173 37.086587 
L 470.019878 37.041089 
L 470.102993 37.108945 
L 470.546272 37.111376 
L 473.801603 36.971607 
L 473.884718 36.751462 
L 473.926275 36.890845 
L 474.078652 37.222815 
L 474.092505 37.220299 
L 474.96521 37.109067 
L 477.250868 36.996559 
L 477.278573 36.908166 
L 477.333983 37.072162 
L 477.472508 37.116421 
L 479.287181 37.107562 
L 486.85063 36.996061 
L 486.878335 36.944127 
L 486.933745 37.043698 
L 487.099975 37.138752 
L 489.011615 37.111409 
L 490.978666 37.021453 
L 491.006371 36.918165 
L 491.075634 37.07805 
L 491.255716 37.140348 
L 493.666046 37.013272 
L 493.721455 36.764191 
L 493.763013 36.972571 
L 493.887685 37.194078 
L 493.91539 37.185806 
L 494.691128 37.05535 
L 494.774243 36.652548 
L 494.815801 36.912436 
L 494.954325 37.252667 
L 494.968178 37.250223 
L 495.868588 37.109129 
L 496.588917 37.01004 
L 496.658179 36.877569 
L 496.727442 36.962623 
L 496.921376 37.221246 
L 497.655557 37.116337 
L 498.126541 37.110567 
L 501.908266 36.995628 
L 501.93597 36.9129 
L 502.005233 37.0454 
L 502.226872 37.143681 
L 503.196545 37.120542 
L 503.348922 37.007085 
L 503.39048 36.899502 
L 503.44589 37.065858 
L 503.612119 37.156172 
L 504.817284 37.107746 
L 508.308107 37.033874 
L 508.363517 36.633127 
L 508.418927 37.001829 
L 508.557451 37.234436 
L 508.571304 37.23134 
L 509.374747 37.106157 
L 510.28901 37.107672 
L 512.075979 36.996744 
L 512.103684 36.946231 
L 512.159094 37.066601 
L 512.311471 37.128769 
L 513.696718 37.098145 
L 514.112292 37.108735 
L 517.270655 36.979243 
L 517.312213 36.889701 
L 517.395328 36.932309 
L 517.46459 37.096169 
L 517.603115 37.195187 
L 518.448115 37.108903 
L 521.731151 36.995934 
L 521.800413 36.686714 
L 521.841971 36.901616 
L 521.994348 37.233646 
L 523.144103 37.098501 
L 523.822874 37.10421 
L 523.892136 37.000065 
L 523.961399 37.083767 
L 524.183038 37.125078 
L 525.332793 37.107616 
L 531.48329 37.046703 
L 531.5387 36.877805 
L 531.580257 37.025295 
L 531.732634 37.155038 
L 532.009684 37.078866 
L 532.051241 36.894472 
L 532.106651 37.061601 
L 532.259028 37.137131 
L 532.577635 37.119648 
L 534.655506 37.087773 
L 534.863293 37.120796 
L 537.384442 37.107505 
L 540.612068 36.997937 
L 540.722888 36.922985 
L 540.930675 37.182854 
L 540.944527 37.175595 
L 541.055347 37.002683 
L 541.0692 36.907678 
L 541.138462 37.127623 
L 541.276987 37.173127 
L 541.554036 37.033622 
L 541.581741 37.018522 
L 541.637151 37.107965 
L 541.720266 37.133211 
L 541.734118 37.114013 
L 541.775676 36.917176 
L 541.844938 37.12079 
L 542.02502 37.149418 
L 543.451825 37.107624 
L 545.709777 37.113857 
L 545.737482 36.840376 
L 545.820597 37.058386 
L 545.972974 37.171308 
L 546.194614 37.11124 
L 546.305433 36.998912 
L 546.333138 37.053992 
L 546.485516 37.143157 
L 546.859532 37.117236 
L 547.385926 37.037542 
L 547.413631 36.911938 
L 547.482893 37.084654 
L 547.662976 37.133462 
L 549.31142 37.106572 
L 549.560764 37.135594 
L 550.585847 36.919999 
L 550.752076 36.796857 
L 550.779781 36.83094 
L 550.793634 36.737585 
L 550.807486 36.605959 
L 550.876749 36.957894 
L 551.015273 37.446351 
L 551.056831 37.424857 
L 551.583225 37.123584 
L 551.721749 37.012726 
L 551.791012 36.876591 
L 551.860274 36.977688 
L 552.026504 37.197856 
L 552.206586 37.155432 
L 552.636012 37.055047 
L 552.663717 36.881975 
L 552.73298 37.080089 
L 552.760685 37.104066 
L 552.78839 37.017786 
L 552.829947 37.048024 
L 552.885357 36.991152 
L 552.926914 37.092728 
L 553.079292 37.184162 
L 553.785768 37.109595 
L 554.395276 37.031096 
L 554.422981 36.935547 
L 554.492244 37.092013 
L 554.658473 37.144316 
L 555.919048 37.107634 
L 557.44282 37.029879 
L 557.470525 36.922326 
L 557.525935 37.06885 
L 557.761427 37.133955 
L 558.62028 36.992291 
L 558.647985 36.606442 
L 558.717247 37.036311 
L 558.869624 37.222613 
L 559.382166 37.056984 
L 559.396018 37.040003 
L 559.46528 37.109656 
L 559.79774 37.114396 
L 561.889463 36.968389 
L 561.903315 36.740299 
L 561.98643 37.08629 
L 562.138807 37.166338 
L 563.094628 37.118989 
L 565.338728 37.10884 
L 565.795859 37.060613 
L 565.837417 36.727869 
L 565.906679 36.903221 
L 566.059056 37.197076 
L 567.7075 37.076553 
L 567.749058 36.953958 
L 567.804468 37.078903 
L 567.970697 37.134308 
L 569.729961 37.11644 
L 571.142913 37.038155 
L 571.170618 37.018675 
L 571.226028 37.083087 
L 571.447667 37.125921 
L 571.697012 37.046267 
L 571.710864 37.029145 
L 571.766274 37.112086 
L 571.974061 37.128021 
L 572.47275 37.020493 
L 572.486603 36.87941 
L 572.569718 37.084938 
L 572.735947 37.145297 
L 572.902177 37.07864 
L 572.929882 36.951041 
L 572.999144 37.094808 
L 573.068406 37.14619 
L 573.082259 37.066732 
L 573.109964 36.935429 
L 573.179226 37.12604 
L 573.345456 37.149579 
L 574.259719 37.10813 
L 575.880458 37.131736 
L 575.908163 36.763967 
L 575.991278 37.110921 
L 576.143655 37.185617 
L 576.960951 37.10806 
L 582.141775 37.100802 
L 582.280299 37.108824 
L 583.01448 37.03803 
L 583.097595 36.899668 
L 583.139153 36.96858 
L 583.457759 37.146654 
L 591.284405 37.114351 
L 591.325963 36.802042 
L 591.395225 37.081392 
L 591.547602 37.149297 
L 592.946702 37.107774 
L 605.095318 37.041467 
L 605.109171 36.971587 
L 605.192286 37.100089 
L 605.413925 37.120811 
L 607.74114 37.107631 
L 607.976632 37.02382 
L 608.059747 36.579718 
L 608.101304 36.383148 
L 608.142862 36.720084 
L 608.309091 37.398035 
L 608.419911 37.353127 
L 608.780075 37.137126 
L 609.638929 37.108609 
L 611.287373 37.053586 
L 611.356635 36.863124 
L 611.398192 37.028953 
L 611.55057 37.192642 
L 612.409423 37.113935 
L 614.030162 36.960413 
L 614.057867 36.89676 
L 614.099424 37.019723 
L 614.251801 37.155984 
L 615.553933 37.113302 
L 616.786803 37.028953 
L 616.856066 36.921859 
L 616.897623 36.99071 
L 617.077705 37.155525 
L 618.379837 37.107689 
L 618.864674 37.020167 
L 618.906231 36.717355 
L 618.961641 37.011167 
L 619.114018 37.186181 
L 620.166806 37.107493 
L 621.330414 37.071129 
L 621.482791 36.953637 
L 621.75984 37.143499 
L 622.88189 37.099142 
L 623.061972 37.056689 
L 623.26976 36.988007 
L 623.297464 37.06368 
L 623.463694 37.161037 
L 624.751974 37.114903 
L 627.951895 37.10326 
L 628.686076 37.107648 
L 630.736241 37.009068 
L 630.777799 36.937339 
L 630.847061 37.028909 
L 631.013291 37.158926 
L 631.34575 37.027399 
L 631.415012 36.631091 
L 631.45657 36.950084 
L 631.608947 37.264914 
L 632.63403 37.108579 
L 634.074687 37.023042 
L 634.143949 36.856246 
L 634.185506 37.005212 
L 634.337883 37.12327 
L 634.476408 37.210575 
L 634.504113 37.18989 
L 634.739605 37.135719 
L 635.875508 37.117321 
L 636.111 37.102112 
L 636.152557 36.982587 
L 636.221819 37.073372 
L 636.845181 37.047336 
L 636.942148 37.089347 
L 637.191492 37.101348 
L 639.726494 37.107504 
L 645.53068 37.043568 
L 645.58609 36.722145 
L 645.641499 37.015654 
L 645.793877 37.203859 
L 646.70814 37.108486 
L 648.78601 36.990041 
L 648.924535 36.4515 
L 648.95224 36.703408 
L 649.104617 37.405684 
L 649.118469 37.402073 
L 649.340109 37.171263 
L 649.534044 37.155379 
L 650.198962 37.109673 
L 651.847406 37.017872 
L 651.875111 36.97257 
L 651.944373 37.056536 
L 651.999783 36.933161 
L 652.055193 37.098165 
L 652.221423 37.159906 
L 653.080276 37.108307 
L 654.368556 37.038755 
L 654.410113 36.905408 
L 654.479376 37.034411 
L 654.631753 37.108502 
L 654.770277 37.190788 
L 655.518311 37.109572 
L 657.928641 36.995473 
L 657.970198 36.908926 
L 658.011756 37.034508 
L 658.122575 37.138263 
L 658.15028 37.105148 
L 658.2611 37.136509 
L 658.773641 37.111072 
L 659.244625 37.036887 
L 659.286183 36.899714 
L 659.369298 36.972062 
L 659.535527 36.631935 
L 659.54938 36.64563 
L 659.743314 37.4717 
L 659.812577 37.428686 
L 660.297413 37.127778 
L 661.544136 37.107894 
L 661.945857 37.01444 
L 661.973562 36.955839 
L 662.028972 37.07247 
L 662.195202 37.134906 
L 662.777005 37.008303 
L 662.790858 36.963695 
L 662.86012 37.101095 
L 663.040202 37.14593 
L 664.827171 37.039791 
L 664.854876 36.65429 
L 664.924138 37.028951 
L 665.076516 37.201827 
L 665.921516 37.10884 
L 667.057419 37.119923 
L 667.168239 36.995712 
L 667.182091 37.036082 
L 667.209796 37.031759 
L 667.237501 37.102774 
L 667.389878 37.17507 
L 668.622748 37.10765 
L 671.26857 37.036848 
L 671.32398 36.849397 
L 671.37939 37.046281 
L 671.531767 37.158882 
L 672.584555 36.996739 
L 672.612259 36.837917 
L 672.681522 37.002193 
L 672.833899 37.176733 
L 673.983654 36.950347 
L 674.011359 36.850136 
L 674.066769 37.071365 
L 674.080621 37.110691 
L 674.108326 36.884265 
L 674.122179 36.824377 
L 674.177589 37.066626 
L 674.316113 37.208427 
L 675.133409 37.109561 
L 675.133409 37.109561 
" clip-path="url(#p2922a3a13c)" style="fill: none; stroke: #ff7f0e; stroke-width: 1.5; stroke-linecap: square"/>
   </g>
   <g id="patch_3">
    <path d="M 33.2875 327.558125 
L 33.2875 22.318125 
" style="fill: none; stroke: #000000; stroke-width: 0.8; stroke-linejoin: miter; stroke-linecap: square"/>
   </g>
   <g id="patch_4">
    <path d="M 705.6975 327.558125 
L 705.6975 22.318125 
" style="fill: none; stroke: #000000; stroke-width: 0.8; stroke-linejoin: miter; stroke-linecap: square"/>
   </g>
   <g id="patch_5">
    <path d="M 33.2875 327.558125 
L 705.6975 327.558125 
" style="fill: none; stroke: #000000; stroke-width: 0.8; stroke-linejoin: miter; stroke-linecap: square"/>
   </g>
   <g id="patch_6">
    <path d="M 33.2875 22.318125 
L 705.6975 22.318125 
" style="fill: none; stroke: #000000; stroke-width: 0.8; stroke-linejoin: miter; stroke-linecap: square"/>
   </g>
   <g id="text_12">
    <!-- training -->
    <g transform="translate(346.249062 16.318125) scale(0.12 -0.12)">
     <defs>
      <path id="DejaVuSans-74" d="M 1172 4494 
L 1172 3500 
L 2356 3500 
L 2356 3053 
L 1172 3053 
L 1172 1153 
Q 1172 725 1289 603 
Q 1406 481 1766 481 
L 2356 481 
L 2356 0 
L 1766 0 
Q 1100 0 847 248 
Q 594 497 594 1153 
L 594 3053 
L 172 3053 
L 172 3500 
L 594 3500 
L 594 4494 
L 1172 4494 
z
" transform="scale(0.015625)"/>
      <path id="DejaVuSans-72" d="M 2631 2963 
Q 2534 3019 2420 3045 
Q 2306 3072 2169 3072 
Q 1681 3072 1420 2755 
Q 1159 2438 1159 1844 
L 1159 0 
L 581 0 
L 581 3500 
L 1159 3500 
L 1159 2956 
Q 1341 3275 1631 3429 
Q 1922 3584 2338 3584 
Q 2397 3584 2469 3576 
Q 2541 3569 2628 3553 
L 2631 2963 
z
" transform="scale(0.015625)"/>
      <path id="DejaVuSans-61" d="M 2194 1759 
Q 1497 1759 1228 1600 
Q 959 1441 959 1056 
Q 959 750 1161 570 
Q 1363 391 1709 391 
Q 2188 391 2477 730 
Q 2766 1069 2766 1631 
L 2766 1759 
L 2194 1759 
z
M 3341 1997 
L 3341 0 
L 2766 0 
L 2766 531 
Q 2569 213 2275 61 
Q 1981 -91 1556 -91 
Q 1019 -91 701 211 
Q 384 513 384 1019 
Q 384 1609 779 1909 
Q 1175 2209 1959 2209 
L 2766 2209 
L 2766 2266 
Q 2766 2663 2505 2880 
Q 2244 3097 1772 3097 
Q 1472 3097 1187 3025 
Q 903 2953 641 2809 
L 641 3341 
Q 956 3463 1253 3523 
Q 1550 3584 1831 3584 
Q 2591 3584 2966 3190 
Q 3341 2797 3341 1997 
z
" transform="scale(0.015625)"/>
      <path id="DejaVuSans-69" d="M 603 3500 
L 1178 3500 
L 1178 0 
L 603 0 
L 603 3500 
z
M 603 4863 
L 1178 4863 
L 1178 4134 
L 603 4134 
L 603 4863 
z
" transform="scale(0.015625)"/>
      <path id="DejaVuSans-6e" d="M 3513 2113 
L 3513 0 
L 2938 0 
L 2938 2094 
Q 2938 2591 2744 2837 
Q 2550 3084 2163 3084 
Q 1697 3084 1428 2787 
Q 1159 2491 1159 1978 
L 1159 0 
L 581 0 
L 581 3500 
L 1159 3500 
L 1159 2956 
Q 1366 3272 1645 3428 
Q 1925 3584 2291 3584 
Q 2894 3584 3203 3211 
Q 3513 2838 3513 2113 
z
" transform="scale(0.015625)"/>
      <path id="DejaVuSans-67" d="M 2906 1791 
Q 2906 2416 2648 2759 
Q 2391 3103 1925 3103 
Q 1463 3103 1205 2759 
Q 947 2416 947 1791 
Q 947 1169 1205 825 
Q 1463 481 1925 481 
Q 2391 481 2648 825 
Q 2906 1169 2906 1791 
z
M 3481 434 
Q 3481 -459 3084 -895 
Q 2688 -1331 1869 -1331 
Q 1566 -1331 1297 -1286 
Q 1028 -1241 775 -1147 
L 775 -588 
Q 1028 -725 1275 -790 
Q 1522 -856 1778 -856 
Q 2344 -856 2625 -561 
Q 2906 -266 2906 331 
L 2906 616 
Q 2728 306 2450 153 
Q 2172 0 1784 0 
Q 1141 0 747 490 
Q 353 981 353 1791 
Q 353 2603 747 3093 
Q 1141 3584 1784 3584 
Q 2172 3584 2450 3431 
Q 2728 3278 2906 2969 
L 2906 3500 
L 3481 3500 
L 3481 434 
z
" transform="scale(0.015625)"/>
     </defs>
     <use xlink:href="#DejaVuSans-74"/>
     <use xlink:href="#DejaVuSans-72" x="39.208984"/>
     <use xlink:href="#DejaVuSans-61" x="80.322266"/>
     <use xlink:href="#DejaVuSans-69" x="141.601562"/>
     <use xlink:href="#DejaVuSans-6e" x="169.384766"/>
     <use xlink:href="#DejaVuSans-69" x="232.763672"/>
     <use xlink:href="#DejaVuSans-6e" x="260.546875"/>
     <use xlink:href="#DejaVuSans-67" x="323.925781"/>
    </g>
   </g>
   <g id="legend_1">
    <g id="patch_7">
     <path d="M 40.2875 59.674375 
L 121.68125 59.674375 
Q 123.68125 59.674375 123.68125 57.674375 
L 123.68125 29.318125 
Q 123.68125 27.318125 121.68125 27.318125 
L 40.2875 27.318125 
Q 38.2875 27.318125 38.2875 29.318125 
L 38.2875 57.674375 
Q 38.2875 59.674375 40.2875 59.674375 
z
" style="fill: #ffffff; opacity: 0.8; stroke: #cccccc; stroke-linejoin: miter"/>
    </g>
    <g id="line2d_14">
     <path d="M 42.2875 35.416562 
L 52.2875 35.416562 
L 62.2875 35.416562 
" style="fill: none; stroke: #1f77b4; stroke-width: 1.5; stroke-linecap: square"/>
    </g>
    <g id="text_13">
     <!-- observed -->
     <g transform="translate(70.2875 38.916562) scale(0.1 -0.1)">
      <defs>
       <path id="DejaVuSans-6f" d="M 1959 3097 
Q 1497 3097 1228 2736 
Q 959 2375 959 1747 
Q 959 1119 1226 758 
Q 1494 397 1959 397 
Q 2419 397 2687 759 
Q 2956 1122 2956 1747 
Q 2956 2369 2687 2733 
Q 2419 3097 1959 3097 
z
M 1959 3584 
Q 2709 3584 3137 3096 
Q 3566 2609 3566 1747 
Q 3566 888 3137 398 
Q 2709 -91 1959 -91 
Q 1206 -91 779 398 
Q 353 888 353 1747 
Q 353 2609 779 3096 
Q 1206 3584 1959 3584 
z
" transform="scale(0.015625)"/>
       <path id="DejaVuSans-62" d="M 3116 1747 
Q 3116 2381 2855 2742 
Q 2594 3103 2138 3103 
Q 1681 3103 1420 2742 
Q 1159 2381 1159 1747 
Q 1159 1113 1420 752 
Q 1681 391 2138 391 
Q 2594 391 2855 752 
Q 3116 1113 3116 1747 
z
M 1159 2969 
Q 1341 3281 1617 3432 
Q 1894 3584 2278 3584 
Q 2916 3584 3314 3078 
Q 3713 2572 3713 1747 
Q 3713 922 3314 415 
Q 2916 -91 2278 -91 
Q 1894 -91 1617 61 
Q 1341 213 1159 525 
L 1159 0 
L 581 0 
L 581 4863 
L 1159 4863 
L 1159 2969 
z
" transform="scale(0.015625)"/>
       <path id="DejaVuSans-73" d="M 2834 3397 
L 2834 2853 
Q 2591 2978 2328 3040 
Q 2066 3103 1784 3103 
Q 1356 3103 1142 2972 
Q 928 2841 928 2578 
Q 928 2378 1081 2264 
Q 1234 2150 1697 2047 
L 1894 2003 
Q 2506 1872 2764 1633 
Q 3022 1394 3022 966 
Q 3022 478 2636 193 
Q 2250 -91 1575 -91 
Q 1294 -91 989 -36 
Q 684 19 347 128 
L 347 722 
Q 666 556 975 473 
Q 1284 391 1588 391 
Q 1994 391 2212 530 
Q 2431 669 2431 922 
Q 2431 1156 2273 1281 
Q 2116 1406 1581 1522 
L 1381 1569 
Q 847 1681 609 1914 
Q 372 2147 372 2553 
Q 372 3047 722 3315 
Q 1072 3584 1716 3584 
Q 2034 3584 2315 3537 
Q 2597 3491 2834 3397 
z
" transform="scale(0.015625)"/>
       <path id="DejaVuSans-65" d="M 3597 1894 
L 3597 1613 
L 953 1613 
Q 991 1019 1311 708 
Q 1631 397 2203 397 
Q 2534 397 2845 478 
Q 3156 559 3463 722 
L 3463 178 
Q 3153 47 2828 -22 
Q 2503 -91 2169 -91 
Q 1331 -91 842 396 
Q 353 884 353 1716 
Q 353 2575 817 3079 
Q 1281 3584 2069 3584 
Q 2775 3584 3186 3129 
Q 3597 2675 3597 1894 
z
M 3022 2063 
Q 3016 2534 2758 2815 
Q 2500 3097 2075 3097 
Q 1594 3097 1305 2825 
Q 1016 2553 972 2059 
L 3022 2063 
z
" transform="scale(0.015625)"/>
       <path id="DejaVuSans-76" d="M 191 3500 
L 800 3500 
L 1894 563 
L 2988 3500 
L 3597 3500 
L 2284 0 
L 1503 0 
L 191 3500 
z
" transform="scale(0.015625)"/>
       <path id="DejaVuSans-64" d="M 2906 2969 
L 2906 4863 
L 3481 4863 
L 3481 0 
L 2906 0 
L 2906 525 
Q 2725 213 2448 61 
Q 2172 -91 1784 -91 
Q 1150 -91 751 415 
Q 353 922 353 1747 
Q 353 2572 751 3078 
Q 1150 3584 1784 3584 
Q 2172 3584 2448 3432 
Q 2725 3281 2906 2969 
z
M 947 1747 
Q 947 1113 1208 752 
Q 1469 391 1925 391 
Q 2381 391 2643 752 
Q 2906 1113 2906 1747 
Q 2906 2381 2643 2742 
Q 2381 3103 1925 3103 
Q 1469 3103 1208 2742 
Q 947 2381 947 1747 
z
" transform="scale(0.015625)"/>
      </defs>
      <use xlink:href="#DejaVuSans-6f"/>
      <use xlink:href="#DejaVuSans-62" x="61.181641"/>
      <use xlink:href="#DejaVuSans-73" x="124.658203"/>
      <use xlink:href="#DejaVuSans-65" x="176.757812"/>
      <use xlink:href="#DejaVuSans-72" x="238.28125"/>
      <use xlink:href="#DejaVuSans-76" x="279.394531"/>
      <use xlink:href="#DejaVuSans-65" x="338.574219"/>
      <use xlink:href="#DejaVuSans-64" x="400.097656"/>
     </g>
    </g>
    <g id="line2d_15">
     <path d="M 42.2875 50.094688 
L 52.2875 50.094688 
L 62.2875 50.094688 
" style="fill: none; stroke: #ff7f0e; stroke-width: 1.5; stroke-linecap: square"/>
    </g>
    <g id="text_14">
     <!-- simulated -->
     <g transform="translate(70.2875 53.594688) scale(0.1 -0.1)">
      <defs>
       <path id="DejaVuSans-6d" d="M 3328 2828 
Q 3544 3216 3844 3400 
Q 4144 3584 4550 3584 
Q 5097 3584 5394 3201 
Q 5691 2819 5691 2113 
L 5691 0 
L 5113 0 
L 5113 2094 
Q 5113 2597 4934 2840 
Q 4756 3084 4391 3084 
Q 3944 3084 3684 2787 
Q 3425 2491 3425 1978 
L 3425 0 
L 2847 0 
L 2847 2094 
Q 2847 2600 2669 2842 
Q 2491 3084 2119 3084 
Q 1678 3084 1418 2786 
Q 1159 2488 1159 1978 
L 1159 0 
L 581 0 
L 581 3500 
L 1159 3500 
L 1159 2956 
Q 1356 3278 1631 3431 
Q 1906 3584 2284 3584 
Q 2666 3584 2933 3390 
Q 3200 3197 3328 2828 
z
" transform="scale(0.015625)"/>
       <path id="DejaVuSans-75" d="M 544 1381 
L 544 3500 
L 1119 3500 
L 1119 1403 
Q 1119 906 1312 657 
Q 1506 409 1894 409 
Q 2359 409 2629 706 
Q 2900 1003 2900 1516 
L 2900 3500 
L 3475 3500 
L 3475 0 
L 2900 0 
L 2900 538 
Q 2691 219 2414 64 
Q 2138 -91 1772 -91 
Q 1169 -91 856 284 
Q 544 659 544 1381 
z
M 1991 3584 
L 1991 3584 
z
" transform="scale(0.015625)"/>
       <path id="DejaVuSans-6c" d="M 603 4863 
L 1178 4863 
L 1178 0 
L 603 0 
L 603 4863 
z
" transform="scale(0.015625)"/>
      </defs>
      <use xlink:href="#DejaVuSans-73"/>
      <use xlink:href="#DejaVuSans-69" x="52.099609"/>
      <use xlink:href="#DejaVuSans-6d" x="79.882812"/>
      <use xlink:href="#DejaVuSans-75" x="177.294922"/>
      <use xlink:href="#DejaVuSans-6c" x="240.673828"/>
      <use xlink:href="#DejaVuSans-61" x="268.457031"/>
      <use xlink:href="#DejaVuSans-74" x="329.736328"/>
      <use xlink:href="#DejaVuSans-65" x="368.945312"/>
      <use xlink:href="#DejaVuSans-64" x="430.46875"/>
     </g>
    </g>
   </g>
  </g>
 </g>
 <defs>
  <clipPath id="p2922a3a13c">
   <rect x="33.2875" y="22.318125" width="672.41" height="305.24"/>
  </clipPath>
 </defs>
</svg>
