<?xml version="1.0" encoding="utf-8" standalone="no"?>
<!DOCTYPE svg PUBLIC "-//W3C//DTD SVG 1.1//EN"
  "http://www.w3.org/Graphics/SVG/1.1/DTD/svg11.dtd">
<svg xmlns:xlink="http://www.w3.org/1999/xlink" width="712.96pt" height="351.43625pt" viewBox="0 0 712.96 351.43625" xmlns="http://www.w3.org/2000/svg" version="1.1">
 <metadata>
  <rdf:RDF xmlns:dc="http://purl.org/dc/elements/1.1/" xmlns:cc="http://creativecommons.org/ns#" xmlns:rdf="http://www.w3.org/1999/02/22-rdf-syntax-ns#">
   <cc:Work>
    <dc:type rdf:resource="http://purl.org/dc/dcmitype/StillImage"/>
    <dc:date>2023-08-17T13:38:53.353920</dc:date>
    <dc:format>image/svg+xml</dc:format>
    <dc:creator>
     <cc:Agent>
      <dc:title>Matplotlib v3.7.1, https://matplotlib.org/</dc:title>
     </cc:Agent>
    </dc:creator>
   </cc:Work>
  </rdf:RDF>
 </metadata>
 <defs>
  <style type="text/css">*{stroke-linejoin: round; stroke-linecap: butt}</style>
 </defs>
 <g id="figure_1">
  <g id="patch_1">
   <path d="M 0 351.43625 
L 712.96 351.43625 
L 712.96 0 
L 0 0 
z
" style="fill: #ffffff"/>
  </g>
  <g id="axes_1">
   <g id="patch_2">
    <path d="M 39.65 327.558125 
L 705.76 327.558125 
L 705.76 22.318125 
L 39.65 22.318125 
z
" style="fill: #ffffff"/>
   </g>
   <g id="matplotlib.axis_1">
    <g id="xtick_1">
     <g id="line2d_1">
      <defs>
       <path id="m03351c5f3a" d="M 0 0 
L 0 3.5 
" style="stroke: #000000; stroke-width: 0.8"/>
      </defs>
      <g>
       <use xlink:href="#m03351c5f3a" x="120.75043" y="327.558125" style="stroke: #000000; stroke-width: 0.8"/>
      </g>
     </g>
     <g id="text_1">
      <!-- 2010 -->
      <g transform="translate(108.02543 342.156563) scale(0.1 -0.1)">
       <defs>
        <path id="DejaVuSans-32" d="M 1228 531 
L 3431 531 
L 3431 0 
L 469 0 
L 469 531 
Q 828 903 1448 1529 
Q 2069 2156 2228 2338 
Q 2531 2678 2651 2914 
Q 2772 3150 2772 3378 
Q 2772 3750 2511 3984 
Q 2250 4219 1831 4219 
Q 1534 4219 1204 4116 
Q 875 4013 500 3803 
L 500 4441 
Q 881 4594 1212 4672 
Q 1544 4750 1819 4750 
Q 2544 4750 2975 4387 
Q 3406 4025 3406 3419 
Q 3406 3131 3298 2873 
Q 3191 2616 2906 2266 
Q 2828 2175 2409 1742 
Q 1991 1309 1228 531 
z
" transform="scale(0.015625)"/>
        <path id="DejaVuSans-30" d="M 2034 4250 
Q 1547 4250 1301 3770 
Q 1056 3291 1056 2328 
Q 1056 1369 1301 889 
Q 1547 409 2034 409 
Q 2525 409 2770 889 
Q 3016 1369 3016 2328 
Q 3016 3291 2770 3770 
Q 2525 4250 2034 4250 
z
M 2034 4750 
Q 2819 4750 3233 4129 
Q 3647 3509 3647 2328 
Q 3647 1150 3233 529 
Q 2819 -91 2034 -91 
Q 1250 -91 836 529 
Q 422 1150 422 2328 
Q 422 3509 836 4129 
Q 1250 4750 2034 4750 
z
" transform="scale(0.015625)"/>
        <path id="DejaVuSans-31" d="M 794 531 
L 1825 531 
L 1825 4091 
L 703 3866 
L 703 4441 
L 1819 4666 
L 2450 4666 
L 2450 531 
L 3481 531 
L 3481 0 
L 794 0 
L 794 531 
z
" transform="scale(0.015625)"/>
       </defs>
       <use xlink:href="#DejaVuSans-32"/>
       <use xlink:href="#DejaVuSans-30" x="63.623047"/>
       <use xlink:href="#DejaVuSans-31" x="127.246094"/>
       <use xlink:href="#DejaVuSans-30" x="190.869141"/>
      </g>
     </g>
    </g>
    <g id="xtick_2">
     <g id="line2d_2">
      <g>
       <use xlink:href="#m03351c5f3a" x="222.979334" y="327.558125" style="stroke: #000000; stroke-width: 0.8"/>
      </g>
     </g>
     <g id="text_2">
      <!-- 2011 -->
      <g transform="translate(210.254334 342.156563) scale(0.1 -0.1)">
       <use xlink:href="#DejaVuSans-32"/>
       <use xlink:href="#DejaVuSans-30" x="63.623047"/>
       <use xlink:href="#DejaVuSans-31" x="127.246094"/>
       <use xlink:href="#DejaVuSans-31" x="190.869141"/>
      </g>
     </g>
    </g>
    <g id="xtick_3">
     <g id="line2d_3">
      <g>
       <use xlink:href="#m03351c5f3a" x="325.208238" y="327.558125" style="stroke: #000000; stroke-width: 0.8"/>
      </g>
     </g>
     <g id="text_3">
      <!-- 2012 -->
      <g transform="translate(312.483238 342.156563) scale(0.1 -0.1)">
       <use xlink:href="#DejaVuSans-32"/>
       <use xlink:href="#DejaVuSans-30" x="63.623047"/>
       <use xlink:href="#DejaVuSans-31" x="127.246094"/>
       <use xlink:href="#DejaVuSans-32" x="190.869141"/>
      </g>
     </g>
    </g>
    <g id="xtick_4">
     <g id="line2d_4">
      <g>
       <use xlink:href="#m03351c5f3a" x="427.717221" y="327.558125" style="stroke: #000000; stroke-width: 0.8"/>
      </g>
     </g>
     <g id="text_4">
      <!-- 2013 -->
      <g transform="translate(414.992221 342.156563) scale(0.1 -0.1)">
       <defs>
        <path id="DejaVuSans-33" d="M 2597 2516 
Q 3050 2419 3304 2112 
Q 3559 1806 3559 1356 
Q 3559 666 3084 287 
Q 2609 -91 1734 -91 
Q 1441 -91 1130 -33 
Q 819 25 488 141 
L 488 750 
Q 750 597 1062 519 
Q 1375 441 1716 441 
Q 2309 441 2620 675 
Q 2931 909 2931 1356 
Q 2931 1769 2642 2001 
Q 2353 2234 1838 2234 
L 1294 2234 
L 1294 2753 
L 1863 2753 
Q 2328 2753 2575 2939 
Q 2822 3125 2822 3475 
Q 2822 3834 2567 4026 
Q 2313 4219 1838 4219 
Q 1578 4219 1281 4162 
Q 984 4106 628 3988 
L 628 4550 
Q 988 4650 1302 4700 
Q 1616 4750 1894 4750 
Q 2613 4750 3031 4423 
Q 3450 4097 3450 3541 
Q 3450 3153 3228 2886 
Q 3006 2619 2597 2516 
z
" transform="scale(0.015625)"/>
       </defs>
       <use xlink:href="#DejaVuSans-32"/>
       <use xlink:href="#DejaVuSans-30" x="63.623047"/>
       <use xlink:href="#DejaVuSans-31" x="127.246094"/>
       <use xlink:href="#DejaVuSans-33" x="190.869141"/>
      </g>
     </g>
    </g>
    <g id="xtick_5">
     <g id="line2d_5">
      <g>
       <use xlink:href="#m03351c5f3a" x="529.946124" y="327.558125" style="stroke: #000000; stroke-width: 0.8"/>
      </g>
     </g>
     <g id="text_5">
      <!-- 2014 -->
      <g transform="translate(517.221124 342.156563) scale(0.1 -0.1)">
       <defs>
        <path id="DejaVuSans-34" d="M 2419 4116 
L 825 1625 
L 2419 1625 
L 2419 4116 
z
M 2253 4666 
L 3047 4666 
L 3047 1625 
L 3713 1625 
L 3713 1100 
L 3047 1100 
L 3047 0 
L 2419 0 
L 2419 1100 
L 313 1100 
L 313 1709 
L 2253 4666 
z
" transform="scale(0.015625)"/>
       </defs>
       <use xlink:href="#DejaVuSans-32"/>
       <use xlink:href="#DejaVuSans-30" x="63.623047"/>
       <use xlink:href="#DejaVuSans-31" x="127.246094"/>
       <use xlink:href="#DejaVuSans-34" x="190.869141"/>
      </g>
     </g>
    </g>
    <g id="xtick_6">
     <g id="line2d_6">
      <g>
       <use xlink:href="#m03351c5f3a" x="632.175028" y="327.558125" style="stroke: #000000; stroke-width: 0.8"/>
      </g>
     </g>
     <g id="text_6">
      <!-- 2015 -->
      <g transform="translate(619.450028 342.156563) scale(0.1 -0.1)">
       <defs>
        <path id="DejaVuSans-35" d="M 691 4666 
L 3169 4666 
L 3169 4134 
L 1269 4134 
L 1269 2991 
Q 1406 3038 1543 3061 
Q 1681 3084 1819 3084 
Q 2600 3084 3056 2656 
Q 3513 2228 3513 1497 
Q 3513 744 3044 326 
Q 2575 -91 1722 -91 
Q 1428 -91 1123 -41 
Q 819 9 494 109 
L 494 744 
Q 775 591 1075 516 
Q 1375 441 1709 441 
Q 2250 441 2565 725 
Q 2881 1009 2881 1497 
Q 2881 1984 2565 2268 
Q 2250 2553 1709 2553 
Q 1456 2553 1204 2497 
Q 953 2441 691 2322 
L 691 4666 
z
" transform="scale(0.015625)"/>
       </defs>
       <use xlink:href="#DejaVuSans-32"/>
       <use xlink:href="#DejaVuSans-30" x="63.623047"/>
       <use xlink:href="#DejaVuSans-31" x="127.246094"/>
       <use xlink:href="#DejaVuSans-35" x="190.869141"/>
      </g>
     </g>
    </g>
   </g>
   <g id="matplotlib.axis_2">
    <g id="ytick_1">
     <g id="line2d_7">
      <defs>
       <path id="mf4661b923d" d="M 0 0 
L -3.5 0 
" style="stroke: #000000; stroke-width: 0.8"/>
      </defs>
      <g>
       <use xlink:href="#mf4661b923d" x="39.65" y="313.68358" style="stroke: #000000; stroke-width: 0.8"/>
      </g>
     </g>
     <g id="text_7">
      <!-- 0 -->
      <g transform="translate(26.2875 317.482798) scale(0.1 -0.1)">
       <use xlink:href="#DejaVuSans-30"/>
      </g>
     </g>
    </g>
    <g id="ytick_2">
     <g id="line2d_8">
      <g>
       <use xlink:href="#mf4661b923d" x="39.65" y="262.95398" style="stroke: #000000; stroke-width: 0.8"/>
      </g>
     </g>
     <g id="text_8">
      <!-- 500 -->
      <g transform="translate(13.5625 266.753199) scale(0.1 -0.1)">
       <use xlink:href="#DejaVuSans-35"/>
       <use xlink:href="#DejaVuSans-30" x="63.623047"/>
       <use xlink:href="#DejaVuSans-30" x="127.246094"/>
      </g>
     </g>
    </g>
    <g id="ytick_3">
     <g id="line2d_9">
      <g>
       <use xlink:href="#mf4661b923d" x="39.65" y="212.224381" style="stroke: #000000; stroke-width: 0.8"/>
      </g>
     </g>
     <g id="text_9">
      <!-- 1000 -->
      <g transform="translate(7.2 216.023599) scale(0.1 -0.1)">
       <use xlink:href="#DejaVuSans-31"/>
       <use xlink:href="#DejaVuSans-30" x="63.623047"/>
       <use xlink:href="#DejaVuSans-30" x="127.246094"/>
       <use xlink:href="#DejaVuSans-30" x="190.869141"/>
      </g>
     </g>
    </g>
    <g id="ytick_4">
     <g id="line2d_10">
      <g>
       <use xlink:href="#mf4661b923d" x="39.65" y="161.494781" style="stroke: #000000; stroke-width: 0.8"/>
      </g>
     </g>
     <g id="text_10">
      <!-- 1500 -->
      <g transform="translate(7.2 165.294) scale(0.1 -0.1)">
       <use xlink:href="#DejaVuSans-31"/>
       <use xlink:href="#DejaVuSans-35" x="63.623047"/>
       <use xlink:href="#DejaVuSans-30" x="127.246094"/>
       <use xlink:href="#DejaVuSans-30" x="190.869141"/>
      </g>
     </g>
    </g>
    <g id="ytick_5">
     <g id="line2d_11">
      <g>
       <use xlink:href="#mf4661b923d" x="39.65" y="110.765182" style="stroke: #000000; stroke-width: 0.8"/>
      </g>
     </g>
     <g id="text_11">
      <!-- 2000 -->
      <g transform="translate(7.2 114.5644) scale(0.1 -0.1)">
       <use xlink:href="#DejaVuSans-32"/>
       <use xlink:href="#DejaVuSans-30" x="63.623047"/>
       <use xlink:href="#DejaVuSans-30" x="127.246094"/>
       <use xlink:href="#DejaVuSans-30" x="190.869141"/>
      </g>
     </g>
    </g>
    <g id="ytick_6">
     <g id="line2d_12">
      <g>
       <use xlink:href="#mf4661b923d" x="39.65" y="60.035582" style="stroke: #000000; stroke-width: 0.8"/>
      </g>
     </g>
     <g id="text_12">
      <!-- 2500 -->
      <g transform="translate(7.2 63.834801) scale(0.1 -0.1)">
       <use xlink:href="#DejaVuSans-32"/>
       <use xlink:href="#DejaVuSans-35" x="63.623047"/>
       <use xlink:href="#DejaVuSans-30" x="127.246094"/>
       <use xlink:href="#DejaVuSans-30" x="190.869141"/>
      </g>
     </g>
    </g>
   </g>
   <g id="line2d_13">
    <path d="M 69.927727 312.166765 
L 70.032757 312.253005 
L 70.091107 312.303734 
L 70.137787 312.245395 
L 70.277826 311.821803 
L 70.394526 307.474277 
L 70.476216 303.715213 
L 70.534566 304.43811 
L 70.908004 309.625212 
L 71.269773 311.1471 
L 71.386473 311.329726 
L 71.421483 309.090014 
L 71.549853 233.15034 
L 71.596532 243.372355 
L 71.771582 300.36706 
L 72.063331 306.449539 
L 72.145021 307.276431 
L 72.168361 306.378517 
L 72.261721 301.508476 
L 72.32007 303.474248 
L 72.57681 307.311942 
L 72.973588 309.939735 
L 73.171978 310.487615 
L 73.288678 310.403911 
L 73.382037 309.046894 
L 73.487067 309.432439 
L 74.292295 311.877606 
L 74.315635 311.847168 
L 74.397324 311.900434 
L 74.654064 312.09067 
L 74.829113 312.187056 
L 75.062512 312.324026 
L 75.342592 312.430558 
L 75.575991 312.567528 
L 75.79772 312.674061 
L 75.98444 312.784651 
L 76.182829 312.121108 
L 76.194499 312.128717 
L 76.416228 312.562455 
L 76.544598 312.749648 
L 77.489865 313.1844 
L 78.621852 313.288396 
L 78.820242 313.320356 
L 79.823859 313.425873 
L 79.975568 313.455296 
L 81.002525 313.562336 
L 81.375964 313.592266 
L 83.324848 313.563858 
L 83.406538 312.92365 
L 83.453218 313.097906 
L 83.639938 313.339633 
L 84.200096 313.441092 
L 84.363475 313.47153 
L 85.250393 313.576033 
L 85.472122 313.600383 
L 97.468847 313.506026 
L 97.667237 313.260495 
L 97.865626 313.363476 
L 98.064016 313.425873 
L 98.775884 313.339633 
L 98.997613 312.567528 
L 99.009283 312.577674 
L 99.569441 313.242232 
L 99.861191 313.344452 
L 100.03624 313.394421 
L 100.619738 313.499938 
L 100.818128 313.525303 
L 101.226577 313.424859 
L 101.354946 306.368371 
L 101.413296 307.51486 
L 101.658365 311.180074 
L 102.113494 312.840454 
L 102.533613 313.222955 
L 102.580293 313.163094 
L 102.813692 312.834873 
L 102.918722 312.906148 
L 103.093771 313.054533 
L 103.175461 312.952312 
L 103.222141 312.268224 
L 103.292161 306.599191 
L 103.37385 287.68466 
L 103.44387 293.087362 
L 103.677269 304.252947 
L 103.957349 308.722225 
L 104.389137 311.228267 
L 104.610867 311.674687 
L 104.692557 311.766001 
L 105.065995 312.445777 
L 105.346075 312.58782 
L 105.614484 312.58782 
L 105.754523 312.778817 
L 105.906233 312.946986 
L 106.81649 313.260495 
L 107.551698 313.198097 
L 107.563368 313.065439 
L 107.645058 313.299049 
L 107.913467 313.398479 
L 107.925137 313.410654 
L 107.960147 313.363222 
L 107.995157 312.483825 
L 108.146867 306.327788 
L 108.251896 305.457775 
L 108.298576 291.895217 
L 108.403606 240.582227 
L 108.461956 246.061023 
L 108.858734 292.529337 
L 109.325533 301.077274 
L 109.722312 305.511041 
L 110.34082 308.823684 
L 110.35249 308.793246 
L 110.41084 306.903569 
L 110.52754 302.523068 
L 110.585889 303.182552 
L 111.146048 308.070349 
L 111.414457 308.914997 
L 111.589507 309.432439 
L 112.313044 311.015203 
L 112.488094 311.121735 
L 112.499764 311.157245 
L 112.558114 310.994911 
L 112.604794 310.218748 
L 112.756503 300.89972 
L 112.861533 302.523068 
L 113.176622 307.418474 
L 113.491711 309.148353 
L 113.631751 309.797692 
L 113.78346 310.152799 
L 113.88849 310.241576 
L 114.086879 310.832576 
L 114.215249 310.974619 
L 114.250259 310.913743 
L 114.285269 310.277087 
L 114.343619 301.736759 
L 114.483658 286.898351 
L 114.495328 286.99981 
L 114.985467 307.174972 
L 115.347236 309.371564 
L 115.417255 309.473023 
L 115.475605 309.391855 
L 115.487275 309.38171 
L 115.533955 307.771045 
L 115.627315 296.359421 
L 115.732345 297.906674 
L 116.467552 307.51486 
L 116.852661 308.874414 
L 116.899341 308.945435 
L 117.039381 309.270104 
L 117.121071 309.371564 
L 117.28445 309.868714 
L 117.821269 311.157245 
L 117.902958 311.258705 
L 118.042998 311.289142 
L 118.346417 311.228267 
L 118.393097 310.652486 
L 118.614826 297.348649 
L 118.649836 297.855945 
L 118.661506 297.602297 
L 118.719856 278.096766 
L 118.813216 206.897773 
L 118.859895 218.058285 
L 118.883235 219.808456 
L 118.906575 217.018328 
L 118.976595 202.585757 
L 119.011605 211.869273 
L 119.361704 292.554701 
L 119.665123 301.178733 
L 120.050232 306.053848 
L 120.365321 307.469204 
L 120.80878 308.745053 
L 126.188634 310.061486 
L 126.223644 310.152799 
L 126.258654 309.922825 
L 126.340344 306.523097 
L 126.445374 302.523068 
L 126.492053 303.157188 
L 126.550403 303.907986 
L 126.573743 303.636582 
L 126.620423 293.366375 
L 126.678773 274.672518 
L 126.748793 284.970626 
L 126.982192 299.986588 
L 127.168911 302.015772 
L 127.180581 301.965042 
L 127.262271 299.961223 
L 127.355631 272.592604 
L 127.425651 282.434146 
L 127.67072 297.450108 
L 127.985809 304.552252 
L 128.254218 307.289114 
L 128.650997 309.254886 
L 134.54433 311.989211 
L 134.66103 311.09637 
L 134.68437 311.50728 
L 134.754389 312.36461 
L 134.871089 312.212421 
L 134.999459 311.994284 
L 135.069479 309.932126 
L 135.209518 308.433066 
L 135.256198 307.139461 
L 135.454587 291.362556 
L 135.524607 293.924401 
L 135.863036 304.108368 
L 136.003076 305.632792 
L 136.353175 308.630911 
L 136.691604 309.767254 
L 136.948343 310.129971 
L 137.251762 310.832576 
L 137.310112 310.649949 
L 137.391802 310.528198 
L 137.438482 310.568782 
L 137.601861 310.791992 
L 137.625201 310.761555 
L 137.788581 310.852868 
L 138.13868 311.258705 
L 138.243709 311.360164 
L 138.395419 311.421039 
L 139.025597 311.337336 
L 139.212317 311.164855 
L 139.364026 310.944181 
L 139.620765 310.431812 
L 139.994204 309.767254 
L 140.040884 309.726671 
L 140.075894 309.82813 
L 140.180924 310.031048 
L 140.204264 309.92198 
L 140.309293 296.663799 
L 140.425993 301.330922 
L 140.589373 305.15847 
L 140.612712 304.983453 
L 140.682732 299.073455 
L 140.752752 295.420924 
L 140.811102 296.765258 
L 140.997821 301.305557 
L 141.044501 301.102639 
L 141.067841 301.330922 
L 141.49963 306.956835 
L 141.966429 308.894705 
L 142.689966 310.477469 
L 142.935036 310.832576 
L 143.133425 310.974619 
L 143.460184 311.071005 
L 143.938653 311.522499 
L 144.207062 311.489524 
L 144.347102 309.686087 
L 144.440461 308.641057 
L 144.487141 308.757735 
L 144.77889 310.000611 
L 144.91893 310.081778 
L 144.95394 310.122362 
L 144.97728 309.980319 
L 145.01229 308.87695 
L 145.093979 298.4647 
L 145.152329 299.961223 
L 145.490758 306.944152 
L 145.770838 308.562426 
L 146.097597 309.838276 
L 146.622745 310.761555 
L 146.657755 310.596683 
L 146.797795 309.219375 
L 146.914494 309.473023 
L 146.972844 309.564336 
L 147.124554 310.000611 
L 147.136224 309.911834 
L 147.229583 308.955581 
L 147.276263 309.135671 
L 147.311273 309.219375 
L 147.334613 308.980946 
L 147.439643 308.407701 
L 147.462983 308.458431 
L 147.731392 309.462877 
L 147.883101 309.889006 
L 147.906441 309.817984 
L 148.093161 309.391855 
L 148.151511 309.473023 
L 148.4666 310.528198 
L 148.688329 310.903597 
L 148.886718 311.116662 
L 148.980078 311.187683 
L 149.120118 311.289142 
L 149.260157 311.398211 
L 149.365187 311.492061 
L 149.411867 311.451477 
L 149.575247 311.552936 
L 149.726956 311.64425 
L 149.866996 311.750782 
L 149.960355 311.766001 
L 149.983695 311.735563 
L 150.590534 311.839559 
L 151.092342 312.039941 
L 151.86256 312.143936 
L 151.97926 312.09067 
L 152.656118 311.981601 
L 152.854507 311.438795 
L 152.912857 309.952418 
L 153.052896 297.348649 
L 153.134586 299.200279 
L 153.426335 306.094431 
L 153.788104 309.188937 
L 154.488302 310.720971 
L 154.569992 310.812284 
L 154.698362 311.015203 
L 154.733372 310.923889 
L 154.908421 309.807838 
L 154.978441 309.970173 
L 155.23518 310.632194 
L 155.468579 310.913743 
L 155.690309 311.187683 
L 155.771999 311.281533 
L 155.970388 311.583374 
L 156.063748 311.674687 
L 156.168777 311.735563 
L 156.203787 311.705125 
L 156.308817 311.613812 
L 156.343827 311.64425 
L 156.413847 311.750782 
L 156.857305 312.151546 
L 157.230744 312.04755 
L 157.405794 311.81673 
L 157.440804 311.892825 
L 157.592513 312.039941 
L 157.615853 312.012039 
L 157.767563 311.958773 
L 158.526111 312.354464 
L 158.537781 312.331636 
L 158.86454 311.999357 
L 159.027919 307.542762 
L 159.132949 301.609935 
L 159.191299 302.015772 
L 159.331338 303.588389 
L 159.704777 308.187027 
L 160.019866 309.594774 
L 160.101556 309.787546 
L 160.346625 310.3684 
L 160.650044 310.994911 
L 161.035153 311.451477 
L 161.490282 311.705125 
L 161.618652 311.621421 
L 161.688671 311.258705 
L 161.747021 311.360164 
L 161.817041 311.451477 
L 162.01543 311.766001 
L 162.633939 312.039941 
L 162.797318 312.143936 
L 162.972368 312.136327 
L 163.030718 311.989211 
L 163.089067 312.070378 
L 163.124077 312.09067 
L 163.159087 312.024722 
L 163.194097 312.034868 
L 163.404156 312.194666 
L 163.415826 312.1414 
L 163.602546 311.552936 
L 163.614216 311.583374 
L 163.847615 311.908044 
L 163.975985 312.012039 
L 164.547813 312.253005 
L 164.769542 312.468606 
L 165.131311 312.58782 
L 165.52809 312.379829 
L 165.819839 312.582747 
L 166.064909 312.582747 
L 166.111589 312.151546 
L 166.193278 312.354464 
L 166.251628 312.288516 
L 166.298308 311.522499 
L 166.379998 311.877606 
L 166.403338 311.64425 
L 166.543377 308.874414 
L 166.578387 309.026602 
L 166.660077 309.523752 
L 166.683417 309.046894 
L 166.951826 297.171095 
L 166.998506 274.545694 
L 167.068526 291.514745 
L 167.150216 298.236417 
L 167.185225 294.457061 
L 167.220235 289.028994 
L 167.290255 293.417105 
L 167.698704 305.777371 
L 167.967113 308.255512 
L 168.142163 309.209229 
L 168.165503 306.325251 
L 168.293872 290.043586 
L 168.305542 290.195775 
L 168.807351 307.251066 
L 169.02908 308.823684 
L 169.05242 308.724761 
L 169.14578 306.878204 
L 169.20413 297.627661 
L 169.309159 302.16796 
L 169.519219 306.627092 
L 169.530889 306.21111 
L 169.565899 271.298999 
L 169.624248 217.246611 
L 169.682598 249.079435 
L 169.869318 297.957404 
L 170.102717 304.166707 
L 170.546176 308.341753 
L 170.592856 308.499014 
L 170.604526 308.344289 
L 170.674545 303.743115 
L 170.756235 296.917447 
L 170.826255 299.022725 
L 171.059654 305.229492 
L 171.398083 308.478723 
L 171.783192 310.152799 
L 172.179971 310.880769 
L 172.49506 311.258705 
L 172.798479 311.583374 
L 173.031879 311.796438 
L 173.335298 312.039941 
L 173.510347 312.202275 
L 173.755416 312.303734 
L 174.175535 312.526945 
L 174.397265 312.633477 
L 174.980763 312.869877 
L 174.992433 312.834873 
L 175.074123 310.73619 
L 175.167482 308.955581 
L 175.214162 309.310688 
L 175.575931 311.537717 
L 176.11275 312.346855 
L 176.486189 312.71363 
L 176.626228 312.806972 
L 176.696248 312.857702 
L 176.731258 312.790231 
L 176.812948 312.138863 
L 176.859627 308.937826 
L 177.011337 287.202729 
L 177.069687 290.373329 
L 177.303086 304.209827 
L 177.583165 308.937826 
L 177.921594 311.344945 
L 178.190004 312.070378 
L 178.365053 311.981601 
L 178.388393 311.958773 
L 178.458413 312.039941 
L 179.158611 312.784651 
L 179.33366 312.882052 
L 179.48537 312.991628 
L 179.695429 313.09816 
L 179.963838 313.203678 
L 180.383957 313.309702 
L 180.617357 313.377173 
L 181.235865 313.485734 
L 181.842703 313.55777 
L 186.744089 313.668361 
L 187.666016 313.677492 
L 189.381501 313.682819 
L 189.439851 291.108908 
L 189.486531 269.675652 
L 189.533211 294.507791 
L 189.68492 306.393736 
L 189.91832 310.487615 
L 190.140049 311.735563 
L 190.361778 312.258078 
L 190.898597 312.784651 
L 191.388735 312.875964 
L 191.528775 312.92365 
L 192.007244 312.812552 
L 192.240643 312.818133 
L 192.427362 312.851614 
L 192.754121 312.946986 
L 192.929171 313.012934 
L 193.512669 313.120481 
L 193.734399 313.1844 
L 195.834992 313.283069 
L 195.975032 313.299049 
L 197.293738 313.394421 
L 197.457118 313.441092 
L 198.414055 313.550161 
L 198.635784 313.566901 
L 204.750847 313.466964 
L 205.065936 313.299049 
L 205.451045 313.203678 
L 205.626094 313.120481 
L 206.092893 313.222955 
L 206.244602 313.260495 
L 208.146807 313.368041 
L 208.333526 313.377173 
L 211.682807 313.269119 
L 211.904536 313.242232 
L 212.172945 313.163348 
L 212.406344 312.71363 
L 212.581394 312.628404 
L 212.733104 311.629031 
L 212.756443 310.901061 
L 212.908153 299.910493 
L 212.931493 299.885128 
L 212.943163 299.935858 
L 213.071533 303.550342 
L 213.328272 308.24283 
L 213.655031 310.122362 
L 213.99346 310.87316 
L 214.0168 310.832576 
L 214.07515 310.223821 
L 214.215189 305.97268 
L 214.331889 307.309405 
L 214.670318 309.960027 
L 214.903717 310.639804 
L 214.950397 310.741263 
L 215.195466 311.116662 
L 217.26105 312.395048 
L 217.29606 312.212421 
L 217.35441 310.941645 
L 217.47111 302.21869 
L 217.587809 304.927651 
L 217.821209 309.391855 
L 217.856219 308.836366 
L 217.891229 307.299259 
L 217.949578 309.178791 
L 217.961248 309.148353 
L 217.996258 308.935289 
L 222.337486 312.476215 
L 222.349156 312.460996 
L 222.547545 312.067842 
L 222.675915 310.604293 
L 222.850964 308.955581 
L 222.862634 308.980946 
L 222.932654 309.046894 
L 222.944324 309.003774 
L 222.991004 307.692414 
L 223.096033 302.396244 
L 223.154383 303.030364 
L 223.609512 309.807838 
L 223.877921 310.487615 
L 224.158 311.093833 
L 235.256138 311.892825 
L 235.372838 311.005057 
L 235.559557 307.499641 
L 235.652917 287.862213 
L 235.734607 296.993541 
L 235.827967 302.599162 
L 235.862976 300.341695 
L 235.932996 294.812169 
L 236.003016 297.018906 
L 236.073036 298.845172 
L 236.096376 297.754485 
L 236.189736 288.014402 
L 236.283095 289.181183 
L 237.029973 305.934633 
L 237.146673 306.550998 
L 237.193353 306.365835 
L 237.298382 305.97268 
L 237.333392 306.147698 
L 237.415082 306.741234 
L 237.426752 306.485049 
L 237.473432 299.606116 
L 237.566792 274.621788 
L 237.625141 280.303503 
L 237.881881 299.301738 
L 238.15029 304.166707 
L 238.16196 304.151488 
L 238.26699 302.827445 
L 238.301999 302.624527 
L 238.360349 302.954269 
L 238.395359 303.131823 
L 238.430369 302.751351 
L 238.757128 290.145045 
L 238.850488 292.630796 
L 238.943848 295.116546 
L 238.990527 293.97513 
L 239.048877 293.594658 
L 239.083887 294.127319 
L 239.270607 297.348649 
L 239.293947 296.663799 
L 239.363966 279.770842 
L 239.410646 270.284407 
L 239.468996 276.828526 
L 239.714065 298.616889 
L 239.959135 303.360106 
L 240.320904 306.906105 
L 240.659333 308.407701 
L 240.682673 308.296096 
L 240.717682 306.048775 
L 240.764362 277.893847 
L 240.857722 220.493305 
L 240.892732 227.595449 
L 241.207821 290.982084 
L 241.51124 299.453927 
L 241.791319 303.131823 
L 241.814659 302.979634 
L 241.873009 299.783669 
L 242.001379 292.681525 
L 242.036389 293.112727 
L 242.246448 299.377832 
L 242.561537 303.895303 
L 242.899966 306.436856 
L 243.296745 308.641057 
L 243.495134 308.914997 
L 243.506804 308.874414 
L 243.565154 308.504087 
L 243.821893 305.820492 
L 243.868573 305.921951 
L 244.171992 307.276431 
L 244.685471 309.209229 
L 244.96555 309.726671 
L 245.257299 309.817984 
L 245.444019 310.000611 
L 245.560718 310.081778 
L 245.700758 310.152799 
L 245.945827 310.249186 
L 246.552666 310.87316 
L 246.774395 310.974619 
L 246.902765 311.055786 
L 247.124494 311.157245 
L 247.287873 311.289142 
L 247.486263 311.390602 
L 247.637972 311.451477 
L 247.918052 311.552936 
L 248.45487 311.651859 
L 248.58324 311.674687 
L 248.793299 311.766001 
L 248.933339 311.796438 
L 249.353457 311.81673 
L 250.543794 312.121108 
L 250.567134 311.613812 
L 250.590474 299.441244 
L 250.637154 240.12566 
L 250.707173 264.678786 
L 250.870553 293.924401 
L 251.115622 302.523068 
L 251.150632 302.421608 
L 251.255662 299.783669 
L 251.314012 300.848991 
L 251.594091 306.053848 
L 251.93252 308.410238 
L 252.247609 309.645503 
L 252.410989 309.574482 
L 252.562698 308.499014 
L 252.632718 308.780564 
L 253.017827 310.112216 
L 253.262896 310.37601 
L 253.321246 310.256795 
L 253.367926 310.061486 
L 253.402936 304.975844 
L 253.566315 198.020093 
L 253.589655 154.646285 
L 253.671345 198.527389 
L 254.044784 290.17041 
L 254.266513 295.776031 
L 254.278183 294.913628 
L 254.383213 280.760069 
L 254.453233 283.727751 
L 254.686632 293.696117 
L 254.698302 293.594658 
L 254.815002 286.593973 
L 254.908361 289.992857 
L 255.18844 297.855945 
L 255.20011 296.866717 
L 255.25846 108.228702 
L 255.36349 186.859581 
L 255.573549 271.654106 
L 255.620229 270.842433 
L 255.643569 271.628742 
L 255.690249 275.027625 
L 255.701919 271.857025 
L 255.771939 189.142413 
L 255.806949 128.774189 
L 255.876968 168.089629 
L 256.227067 284.082858 
L 256.530487 295.649207 
L 256.915595 302.85281 
L 257.277364 305.582063 
L 257.592454 307.443839 
L 257.930883 308.641057 
L 258.035912 308.600474 
L 258.047582 308.499014 
L 258.117602 308.757735 
L 258.269312 309.351272 
L 258.479371 309.686087 
L 258.572731 309.757109 
L 258.84114 310.304988 
L 259.027859 310.386156 
L 259.144559 310.416593 
L 259.191239 310.37601 
L 259.249589 310.447031 
L 259.307939 310.538344 
L 259.459648 310.639804 
L 259.517998 310.731117 
L 259.693047 311.005057 
L 259.728057 310.974619 
L 259.914777 311.071005 
L 260.078156 311.116662 
L 260.813364 311.187683 
L 260.988414 311.421039 
L 261.116783 311.522499 
L 261.268493 311.552936 
L 261.700282 311.651859 
L 261.933681 311.877606 
L 262.797258 311.796438 
L 262.925628 311.583374 
L 262.983978 311.613812 
L 263.065668 311.720344 
L 263.159027 311.674687 
L 263.264057 311.77361 
L 263.392427 311.908044 
L 263.415767 311.847168 
L 263.520796 311.289142 
L 263.567476 309.232057 
L 263.847555 211.717085 
L 263.940915 228.026651 
L 264.220994 291.920581 
L 264.512743 300.31633 
L 264.886182 305.696204 
L 264.909522 305.447629 
L 264.944532 306.147698 
L 265.166262 307.809092 
L 265.74976 310.162945 
L 265.936479 310.345572 
L 266.473298 311.157245 
L 266.870077 311.266314 
L 267.080136 311.451477 
L 267.161826 311.552936 
L 267.325205 311.674687 
L 267.476915 311.766001 
L 267.593615 311.847168 
L 267.616954 311.81673 
L 267.768664 311.913117 
L 267.897034 311.908044 
L 267.978723 311.877606 
L 268.013733 311.918189 
L 268.107093 312.019649 
L 268.130433 311.951164 
L 268.235463 311.613812 
L 268.282143 311.697516 
L 268.468862 311.877606 
L 268.562222 311.958773 
L 268.748941 312.151546 
L 269.29743 312.121108 
L 269.414129 311.154709 
L 269.472479 304.110904 
L 269.542499 308.889632 
L 269.705878 310.766628 
L 269.927608 311.514889 
L 270.090987 311.674687 
L 270.254367 310.906134 
L 270.382736 309.523752 
L 270.406076 309.594774 
L 270.429416 309.645503 
L 270.441086 309.615066 
L 270.464426 307.187654 
L 270.604466 295.065817 
L 270.616136 295.040452 
L 270.627806 295.24337 
L 271.071264 307.573199 
L 271.117944 308.037375 
L 271.152954 307.296723 
L 271.211304 299.504656 
L 271.292994 303.081093 
L 271.584743 307.948598 
L 271.923172 310.122362 
L 272.62337 311.289142 
L 272.63504 311.273924 
L 272.64671 310.961937 
L 272.7284 283.981399 
L 272.821759 286.872986 
L 273.311898 306.906105 
L 273.697007 309.960027 
L 274.303845 311.258705 
L 274.362195 311.23334 
L 274.397205 310.944181 
L 274.478895 311.078615 
L 274.910683 311.705125 
L 274.934023 311.674687 
L 274.980703 311.766001 
L 274.992373 311.766001 
L 275.237442 312.019649 
L 275.342472 312.121108 
L 275.482512 312.151546 
L 275.855951 312.237786 
L 276.04267 312.425485 
L 276.18271 312.526945 
L 276.322749 312.582747 
L 276.334419 312.572601 
L 276.439449 312.63855 
L 276.626168 312.71363 
L 276.731198 312.73798 
L 276.859568 312.851614 
L 276.882908 312.840454 
L 276.952927 312.806972 
L 276.999607 312.851614 
L 277.314696 312.952566 
L 277.489746 313.012934 
L 277.874855 313.120481 
L 278.376663 313.242232 
L 278.738432 313.339633 
L 278.866802 313.354091 
L 278.878472 313.339633 
L 278.995172 313.35891 
L 279.181891 313.410654 
L 279.193561 313.390109 
L 279.298591 313.410654 
L 279.310261 313.425873 
L 279.975449 313.536464 
L 280.162168 313.562336 
L 280.313878 313.569184 
L 280.325548 313.525557 
L 280.453917 313.455296 
L 281.177455 313.562336 
L 281.620914 313.61966 
L 310.59744 313.563604 
L 310.60911 313.194039 
L 310.71414 313.299049 
L 310.900859 313.264807 
L 311.180938 313.277743 
L 311.834456 313.455296 
L 312.032846 313.363476 
L 312.126206 313.203678 
L 312.196225 313.251363 
L 312.452965 313.325175 
L 312.546324 313.277743 
L 312.581334 313.304376 
L 312.768054 313.372607 
L 313.036463 313.35891 
L 313.818351 313.463413 
L 314.01674 313.47153 
L 314.250139 313.368041 
L 314.366839 313.15726 
L 314.378509 312.857194 
L 314.471869 313.137222 
L 314.565228 313.218135 
L 314.611908 313.142802 
L 314.740278 313.251363 
L 314.950337 313.277743 
L 315.335446 313.385797 
L 315.475486 313.368041 
L 315.650535 313.097906 
L 315.708885 313.018261 
L 315.767235 313.09816 
L 315.802245 313.023334 
L 315.825585 312.929484 
L 315.907275 313.034241 
L 316.012304 313.054533 
L 316.023974 313.023587 
L 316.093994 312.392511 
L 316.175684 307.210483 
L 316.222364 304.94287 
L 316.292383 306.16038 
L 316.584133 310.538344 
L 316.852542 312.273297 
L 317.249321 312.806972 
L 317.48272 312.743814 
L 317.55274 312.100816 
L 317.692779 309.270104 
L 317.727789 309.422293 
L 317.762799 309.473023 
L 317.797809 309.38171 
L 317.937849 308.407701 
L 317.972859 308.846512 
L 318.171248 310.241576 
L 318.603037 311.989211 
L 319.326575 312.761315 
L 319.758363 312.869877 
L 320.166812 312.969307 
L 320.306852 312.92365 
L 320.446891 312.823713 
L 320.493571 312.425485 
L 320.551921 307.661976 
L 320.680291 297.754485 
L 320.726971 298.4647 
L 320.90202 304.009445 
L 321.193769 308.597937 
L 321.613888 310.700679 
L 321.695578 310.802138 
L 321.823947 311.116662 
L 321.882297 310.984765 
L 321.940647 310.406447 
L 322.034007 306.766599 
L 322.162376 302.16796 
L 322.220726 302.421608 
L 322.360766 304.050029 
L 322.699195 308.027229 
L 323.130984 310.223821 
L 323.772832 311.492061 
L 323.866192 311.390602 
L 324.134601 310.863014 
L 324.21629 310.949254 
L 324.40301 311.126808 
L 324.41468 311.116662 
L 324.50804 311.086224 
L 324.648079 310.974619 
L 324.811459 311.299288 
L 324.869809 311.1471 
L 325.383287 310.041194 
L 325.406627 310.10207 
L 325.885096 311.697516 
L 325.896766 311.54279 
L 325.978455 310.038658 
L 326.013465 311.215585 
L 326.083485 311.674687 
L 326.141835 311.613812 
L 326.281875 311.492061 
L 326.305214 311.522499 
L 326.363564 311.613812 
L 326.550284 311.981601 
L 326.608634 311.958773 
L 326.947063 312.065305 
L 327.215472 312.395048 
L 327.507221 312.496507 
L 327.565571 312.526945 
L 327.623921 312.481288 
L 327.904 312.476215 
L 328.184079 312.369683 
L 328.370798 312.303734 
L 328.499168 312.395048 
L 328.697558 312.633477 
L 328.779247 312.222567 
L 328.814257 312.519335 
L 328.942627 312.778817 
L 328.954297 312.772983 
L 329.047656 312.646159 
L 329.117676 312.71363 
L 329.631155 312.608112 
L 329.806204 312.159155 
L 329.876224 308.978409 
L 329.969584 302.624527 
L 330.051274 303.966325 
L 330.354693 308.501551 
L 330.669782 310.974619 
L 330.693122 309.939735 
L 330.716462 309.219375 
L 330.786481 310.606829 
L 330.949861 311.157245 
L 330.973201 310.624585 
L 330.984871 310.221284 
L 331.054891 311.606202 
L 331.26495 311.869996 
L 331.35831 311.766001 
L 331.41666 311.322117 
L 331.45167 306.710796 
L 331.533359 286.035948 
L 331.591709 289.409466 
L 331.918468 303.550342 
L 332.186877 306.512951 
L 332.221887 306.601727 
L 332.256897 306.343007 
L 332.315247 302.041136 
L 332.536976 269.599558 
L 332.595326 275.255908 
L 332.863735 294.685345 
L 333.283854 304.887067 
L 333.505584 307.174972 
L 333.855683 308.945435 
L 333.972382 309.178791 
L 334.380831 310.213675 
L 334.71926 310.609366 
L 334.84763 310.147726 
L 334.964329 305.856002 
L 335.081029 303.776089 
L 335.116039 303.948569 
L 335.197729 304.927651 
L 335.641187 308.861731 
L 336.096316 310.122362 
L 336.189676 310.203529 
L 336.364725 310.37601 
L 336.726494 310.457177 
L 336.749834 310.528198 
L 338.23192 311.451477 
L 338.570349 311.187683 
L 338.932118 311.289142 
L 339.503946 311.667078 
L 339.515616 311.651859 
L 339.643986 311.451477 
L 339.678996 311.390602 
L 339.749015 311.451477 
L 339.924065 311.64425 
L 339.935735 311.629031 
L 340.099114 311.552936 
L 340.110784 311.575765 
L 340.635933 312.039941 
L 340.834322 312.202275 
L 341.441161 312.303734 
L 341.59287 312.374756 
L 341.977979 311.877606 
L 342.024659 311.958773 
L 342.223048 312.171837 
L 342.363088 312.222567 
L 342.468118 312.121108 
L 342.573147 311.766001 
L 342.666507 311.908044 
L 343.074956 312.273297 
L 343.308355 312.374756 
L 343.518415 312.476215 
L 343.693464 312.324026 
L 344.101913 312.237786 
L 344.171933 312.151546 
L 344.230283 312.202275 
L 344.452012 312.374756 
L 345.21056 312.273297 
L 345.397279 312.253005 
L 345.572329 312.354464 
L 345.759048 312.476215 
L 346.774335 312.410267 
L 346.972725 311.99682 
L 346.984395 312.019649 
L 348.279761 312.468606 
L 348.43147 312.354464 
L 348.45481 312.369683 
L 348.723219 312.476215 
L 349.061649 312.668988 
L 349.073318 312.646159 
L 349.236698 312.668988 
L 349.598467 312.719717 
L 349.773516 312.58782 
L 349.808526 312.646159 
L 349.913556 312.73798 
L 349.948566 312.71363 
L 350.041926 312.71363 
L 350.053596 312.719717 
L 350.158625 312.73798 
L 350.170295 312.719717 
L 350.497054 312.668988 
L 350.660434 312.755482 
L 350.742124 312.806972 
L 350.777134 312.784651 
L 350.975523 312.73798 
L 351.255602 312.834873 
L 351.348962 312.846034 
L 351.360632 312.829293 
L 351.465662 312.806972 
L 351.477332 312.829293 
L 351.710731 312.766896 
L 351.757411 312.36461 
L 351.8391 312.496507 
L 351.88578 312.486361 
L 352.08417 308.955581 
L 352.177529 309.209229 
L 352.796038 311.750782 
L 352.971087 312.070378 
L 353.017767 311.989211 
L 353.064447 311.928335 
L 353.122797 311.989211 
L 353.262836 312.166765 
L 353.332856 312.09067 
L 353.426216 312.194666 
L 353.928024 312.395048 
L 354.068064 312.496507 
L 354.114744 312.526945 
L 354.161424 312.476215 
L 354.208104 312.395048 
L 354.278123 312.453387 
L 354.441503 312.36461 
L 354.488183 312.095743 
L 354.534863 309.805302 
L 354.604882 292.402513 
L 354.674902 272.389686 
L 354.733252 280.734705 
L 354.954981 297.120365 
L 354.966651 296.638434 
L 355.048341 286.467149 
L 355.118361 291.920581 
L 355.35176 301.914312 
L 355.58516 305.871221 
L 355.806889 307.880113 
L 355.818559 307.616319 
L 355.841899 306.601727 
L 355.923589 307.187654 
L 356.110308 308.143907 
L 356.693806 309.807838 
L 356.763826 309.911834 
L 356.857186 310.071632 
L 357.032235 310.345572 
L 357.382334 310.447031 
L 357.487364 310.528198 
L 357.499034 310.487615 
L 357.534044 310.447031 
L 357.580724 310.528198 
L 357.592394 310.528198 
L 357.790783 310.832576 
L 357.849133 310.913743 
L 358.117542 311.64425 
L 358.339272 311.552936 
L 358.537661 310.700679 
L 358.584341 310.852868 
L 358.654361 310.974619 
L 358.689371 310.835113 
L 358.724381 309.650576 
L 358.75939 294.228778 
L 358.86442 301.736759 
L 358.93444 303.360106 
L 358.96945 302.015772 
L 358.99279 301.508476 
L 359.06281 302.193325 
L 359.097819 302.523068 
L 359.249529 304.562398 
L 359.261199 303.735505 
L 359.307879 256.105484 
L 359.377899 235.712185 
L 359.412909 247.177075 
L 359.599628 290.753801 
L 359.879707 301.787488 
L 360.101437 305.095058 
L 360.136446 305.333487 
L 360.171456 305.039256 
L 360.206466 304.846483 
L 360.241476 305.29544 
L 360.603245 308.511697 
L 361.070044 309.686087 
L 361.128394 309.7774 
L 361.455153 310.32528 
L 361.945291 310.974619 
L 362.038651 311.063396 
L 362.20203 311.352554 
L 362.26038 311.258705 
L 362.43543 311.367773 
L 362.49378 311.451477 
L 362.540459 311.360164 
L 362.727179 311.451477 
L 362.762189 311.552936 
L 362.832209 311.451477 
L 362.983918 311.552936 
L 363.053938 311.697516 
L 363.112288 311.560546 
L 363.217317 311.613812 
L 363.310677 311.806584 
L 363.322347 311.847168 
L 363.392367 311.712735 
L 363.474057 311.659469 
L 363.509067 311.727953 
L 363.637436 312.039941 
L 363.660776 312.012039 
L 363.742466 311.928335 
L 363.800816 311.958773 
L 363.905845 312.151546 
L 363.964195 312.034868 
L 364.057555 311.958773 
L 364.080895 311.989211 
L 364.174255 312.222567 
L 364.244275 312.105889 
L 364.337634 312.039941 
L 364.360974 312.075451 
L 364.477674 312.324026 
L 364.512684 312.245395 
L 364.582704 312.121108 
L 364.641053 312.202275 
L 364.699403 312.296125 
L 364.734413 312.136327 
L 364.816103 312.019649 
L 364.862783 312.039941 
L 365.037832 312.253005 
L 365.061172 312.217494 
L 365.142862 312.143936 
L 365.189542 312.202275 
L 365.259562 312.280906 
L 365.294571 312.354464 
L 365.352921 312.237786 
L 365.446281 312.171837 
L 365.469621 312.207348 
L 365.586321 312.389975 
L 365.65634 312.273297 
L 365.72636 312.258078 
L 365.7497 312.303734 
L 366.193159 312.582747 
L 366.204829 312.562455 
L 366.286519 312.547237 
L 366.321528 312.58782 
L 366.438228 312.73798 
L 366.473238 312.668988 
L 366.543258 312.567528 
L 366.601608 312.633477 
L 366.729977 312.731892 
L 366.764987 312.668988 
L 366.799997 312.58782 
L 366.870017 312.695367 
L 366.998387 312.806972 
L 367.021726 312.743814 
L 367.115086 312.63855 
L 367.150096 312.695367 
L 367.348486 312.806972 
L 367.395165 312.784651 
L 367.441845 312.851614 
L 367.593555 312.946986 
L 367.605225 312.941152 
L 367.791944 312.395048 
L 367.896974 312.58782 
L 368.083693 312.689279 
L 368.223733 312.761315 
L 368.375443 312.806972 
L 368.725542 312.991628 
L 368.818901 312.952566 
L 368.842241 312.986048 
L 369.33238 313.114901 
L 369.42574 313.120481 
L 369.437409 313.131642 
L 369.647469 313.1844 
L 370.487706 313.277743 
L 370.639416 313.339633 
L 371.631363 313.441092 
L 371.806413 313.455296 
L 372.86838 313.55777 
L 373.066769 313.576033 
L 395.508114 313.502475 
L 395.636484 312.58782 
L 395.683163 312.957893 
L 395.869883 313.566901 
L 395.939903 313.590237 
L 395.974913 313.509831 
L 396.091612 313.539254 
L 396.430041 313.648069 
L 396.9902 313.68155 
L 403.583731 313.601144 
L 403.65375 313.536464 
L 403.70043 313.566901 
L 404.809077 313.671658 
L 406.687942 313.68358 
L 406.956351 313.566648 
L 407.06138 313.394421 
L 407.08472 313.425873 
L 407.25977 313.547624 
L 407.446489 313.455296 
L 407.656549 313.55777 
L 408.064998 313.600383 
L 408.403427 313.517186 
L 408.450106 313.120481 
L 408.520126 313.269119 
L 408.566806 313.320356 
L 408.578476 313.226506 
L 408.625156 312.829293 
L 408.695176 312.935318 
L 408.916905 313.198858 
L 408.963585 313.232593 
L 408.986925 313.126061 
L 409.196984 312.526945 
L 409.231994 312.590357 
L 409.325354 312.806972 
L 409.360364 312.685221 
L 409.383704 312.59543 
L 409.453724 312.767149 
L 409.815492 313.120481 
L 409.978872 313.222955 
L 410.293961 313.339633 
L 410.854119 313.448194 
L 411.169209 313.513128 
L 412.989723 313.433229 
L 413.013063 313.381485 
L 413.094753 313.455296 
L 413.293142 313.547624 
L 413.818291 313.459355 
L 413.923321 313.012427 
L 413.99334 312.526945 
L 414.05169 312.653769 
L 414.13338 312.71363 
L 414.15672 312.620794 
L 414.19173 312.567528 
L 414.25008 312.646159 
L 414.448469 312.92365 
L 414.576839 313.034241 
L 415.043637 313.299049 
L 415.487096 313.394421 
L 415.650476 313.441092 
L 416.642423 313.547371 
L 416.794132 313.547624 
L 416.992522 313.536464 
L 417.330951 313.576033 
L 421.485459 313.485734 
L 421.602158 313.038806 
L 421.730528 312.92365 
L 422.057287 313.034241 
L 422.290686 313.218135 
L 422.955874 313.377173 
L 423.165934 313.269119 
L 423.457683 313.1844 
L 423.819452 313.074824 
L 424.192891 312.875964 
L 424.39128 312.991628 
L 424.4613 312.888139 
L 424.49631 311.981601 
L 424.61301 302.21869 
L 424.706369 304.691758 
L 424.963109 309.003774 
L 425.254858 310.568782 
L 425.301538 310.670241 
L 425.383227 310.870623 
L 425.616627 311.421039 
L 425.943386 311.973992 
L 426.141775 312.070378 
L 426.305155 311.99682 
L 426.316825 312.019649 
L 426.410184 312.128717 
L 426.655254 312.374756 
L 427.157062 312.476215 
L 427.250422 312.75396 
L 427.273762 313.221687 
L 427.355452 312.549773 
L 427.390462 312.230177 
L 427.448811 312.701454 
L 427.518831 312.806972 
L 427.588851 312.761315 
L 427.9973 312.806972 
L 428.02064 313.16766 
L 428.04398 312.747872 
L 428.137339 313.09816 
L 428.149009 313.092326 
L 428.230699 312.577674 
L 428.265709 312.689279 
L 428.335729 312.689279 
L 429.456046 313.202663 
L 429.479386 313.344452 
L 429.502725 313.1844 
L 429.561075 313.222955 
L 429.607755 313.065439 
L 429.642765 312.875964 
L 429.712785 313.10932 
L 429.841154 313.163094 
L 429.876164 313.120481 
L 430.553022 313.018261 
L 430.681392 312.671524 
L 430.844772 311.958773 
L 430.903121 312.070378 
L 430.996481 312.171837 
L 431.066501 312.217494 
L 431.078171 312.154082 
L 431.101511 311.654396 
L 431.159861 302.091866 
L 431.20654 292.275689 
L 431.28823 294.355602 
L 431.47495 304.110904 
L 431.720019 308.275804 
L 432.105128 310.081778 
L 432.175148 310.264405 
L 432.595266 311.329726 
L 432.735306 311.451477 
L 432.758646 311.421039 
L 432.816996 311.390602 
L 435.827847 312.324026 
L 435.862857 312.212421 
L 435.886197 310.487615 
L 436.014567 237.868193 
L 436.131266 265.591919 
L 436.329656 299.606116 
L 436.633075 306.855375 
L 436.808124 308.296096 
L 436.971504 309.090014 
L 437.251583 310.223821 
L 437.461642 310.439422 
L 437.473312 310.406447 
L 437.531662 310.37601 
L 437.566672 310.447031 
L 437.671702 310.54849 
L 438.103491 311.258705 
L 438.15017 311.164855 
L 438.20852 311.005057 
L 438.500269 309.475559 
L 438.546949 309.219375 
L 438.616969 309.38171 
L 438.838698 309.858568 
L 438.967068 310.000611 
L 438.990408 309.980319 
L 439.048758 309.706379 
L 439.130448 307.783727 
L 439.247147 299.225644 
L 439.328837 300.925085 
L 439.725616 307.890259 
L 439.924005 308.600474 
L 440.437484 310.431812 
L 440.624203 310.832576 
L 440.787583 311.055786 
L 440.939292 311.157245 
L 441.067662 311.461623 
L 441.079332 311.398211 
L 441.102672 311.273924 
L 441.184362 311.390602 
L 441.371081 311.281533 
L 441.499451 310.804675 
L 441.63949 310.152799 
L 441.66283 310.223821 
L 441.77953 310.720971 
L 443.226606 311.375383 
L 443.460005 309.5618 
L 443.541695 304.313823 
L 443.705074 261.076985 
L 443.751754 270.132218 
L 443.926804 295.446289 
L 443.938474 295.420924 
L 443.985153 294.685345 
L 444.008493 295.218005 
L 444.230223 301.787488 
L 444.335252 302.725986 
L 445.07046 308.154053 
L 445.525589 309.046894 
L 445.665629 309.125525 
L 446.097417 310.041194 
L 446.190777 309.939735 
L 446.377497 308.874414 
L 446.424176 309.00631 
L 446.447516 309.046894 
L 446.494196 308.925143 
L 446.622566 308.666422 
L 446.645906 308.701933 
L 446.785945 308.732371 
L 446.855965 308.823684 
L 447.136044 309.178791 
L 447.182724 309.077332 
L 447.217734 309.087478 
L 447.241074 309.148353 
L 447.987952 311.015203 
L 448.057972 310.974619 
L 448.314711 310.87316 
L 448.431411 310.832576 
L 448.48976 310.944181 
L 448.53644 310.832576 
L 448.65314 310.934035 
L 448.72316 311.235876 
L 448.909879 311.522499 
L 449.003239 311.552936 
L 449.014909 311.522499 
L 449.096599 311.344945 
L 449.224968 311.055786 
L 449.271648 311.164855 
L 449.481708 311.674687 
L 449.691767 311.928335 
L 449.820137 311.877606 
L 449.948506 311.958773 
L 449.960176 311.935945 
L 450.158566 311.928335 
L 450.263595 312.019649 
L 450.310275 311.981601 
L 450.368625 311.958773 
L 450.415305 312.019649 
L 450.788744 312.070378 
L 450.975463 311.489524 
L 451.010473 311.289142 
L 451.068823 311.598593 
L 451.197193 311.928335 
L 451.232202 311.877606 
L 451.267212 311.712735 
L 451.325562 311.892825 
L 451.465602 311.989211 
L 451.547292 311.720344 
L 451.780691 310.54849 
L 451.92073 306.753916 
L 451.97908 307.06844 
L 452.01409 307.187654 
L 452.03743 306.893423 
L 452.15413 303.588389 
L 452.23582 304.268166 
L 452.305839 304.912432 
L 452.340849 304.48123 
L 452.387529 303.806527 
L 452.445879 304.48123 
L 452.644268 306.236474 
L 452.819318 307.469204 
L 453.227767 310.137581 
L 453.566196 310.832576 
L 453.612876 310.791992 
L 453.671225 310.832576 
L 453.822935 311.228267 
L 453.869615 311.126808 
L 453.997984 311.015203 
L 454.009654 311.035494 
L 454.103014 311.228267 
L 454.196374 311.157245 
L 454.266394 311.243486 
L 454.406433 311.583374 
L 454.464783 311.471769 
L 454.569813 311.390602 
L 454.593153 311.436258 
L 454.651503 311.522499 
L 454.698182 311.443868 
L 454.791542 311.390602 
L 454.814882 311.428649 
L 454.919912 311.796438 
L 455.001602 311.629031 
L 455.106631 311.398211 
L 455.141641 311.49967 
L 455.258341 311.847168 
L 455.293351 311.796438 
L 455.37504 311.674687 
L 455.42172 311.758391 
L 455.51508 311.958773 
L 455.56176 311.877606 
L 455.7018 311.735563 
L 455.713469 311.766001 
L 455.736809 311.796438 
L 455.760149 311.613812 
L 455.806829 309.074795 
L 455.900189 299.174914 
L 455.981879 301.00118 
L 456.331978 307.251066 
L 456.682077 309.178791 
L 456.740427 309.28025 
L 457.183885 310.353181 
L 457.207225 310.307525 
L 457.242235 309.348735 
L 457.358935 295.091181 
L 457.417285 277.437281 
L 457.487304 286.619338 
L 457.510644 287.710025 
L 457.522314 285.224274 
L 457.627344 246.974156 
L 457.685694 256.409862 
L 457.825733 282.687794 
L 457.849073 274.063762 
L 457.895753 207.810905 
L 457.942433 36.19267 
L 458.024123 70.942446 
L 458.070803 137.398221 
L 458.257522 247.811195 
L 458.525931 294.837533 
L 458.735991 300.31633 
L 459.191119 305.566844 
L 459.331159 306.500268 
L 459.366169 306.236474 
L 459.424519 298.667618 
L 459.494539 270.259042 
L 459.529548 265.947026 
L 459.587898 272.694063 
L 459.821298 299.149549 
L 460.066367 304.037346 
L 460.463146 306.855375 
L 460.486486 306.779281 
L 460.579845 305.617573 
L 460.661535 294.533156 
L 460.696545 291.337191 
L 460.754895 296.359421 
L 460.999964 303.684775 
L 461.326723 307.088732 
L 461.688492 308.935289 
L 461.851872 309.28025 
L 461.875212 309.067186 
L 461.910222 308.849049 
L 461.968571 309.10016 
L 462.120281 309.310688 
L 462.31867 309.402001 
L 462.35368 309.432439 
L 462.37702 309.310688 
L 462.750459 305.069694 
L 462.808809 305.282758 
L 462.832149 305.363925 
L 463.742406 309.219375 
L 463.754076 309.219375 
L 463.765746 309.059577 
L 463.835766 281.318095 
L 463.882446 269.802476 
L 463.952466 275.078354 
L 464.209205 298.743713 
L 464.500954 304.440647 
L 464.827713 307.032929 
L 465.271172 308.630911 
L 465.656281 309.473023 
L 465.702961 309.564336 
L 465.843 309.889006 
L 465.88968 309.848422 
L 466.00638 309.939735 
L 466.251449 310.152799 
L 466.321469 310.241576 
L 466.449838 310.345572 
L 466.473178 310.304988 
L 466.508188 310.264405 
L 466.566538 310.345572 
L 466.799937 310.447031 
L 466.939977 310.680387 
L 466.963317 310.578928 
L 467.173376 308.407701 
L 467.990274 310.700679 
L 468.141983 310.82243 
L 468.165323 310.791992 
L 468.328703 310.700679 
L 468.573772 310.10207 
L 468.632122 308.729834 
L 468.783832 306.728551 
L 468.865521 304.275775 
L 468.958881 281.952215 
L 469.040571 291.514745 
L 469.27397 301.330922 
L 469.554049 305.43241 
L 469.729099 306.944152 
L 469.752439 306.330324 
L 470.067528 293.112727 
L 470.184228 254.608961 
L 470.230907 263.435911 
L 470.452637 298.211052 
L 470.744386 304.509131 
L 471.082815 307.585882 
L 471.386234 308.968263 
L 471.806353 309.960027 
L 471.864703 310.041194 
L 472.133112 310.439422 
L 472.214802 310.616975 
L 472.366511 310.761555 
L 472.553231 310.944181 
L 472.588241 310.903597 
L 472.66993 310.832576 
L 472.70494 310.87316 
L 472.96168 311.243486 
L 473.206749 311.390602 
L 473.276769 311.390602 
L 473.311778 311.451477 
L 473.381798 311.552936 
L 473.428478 311.492061 
L 473.510168 311.390602 
L 473.556848 311.471769 
L 473.953627 311.958773 
L 474.117006 311.877606 
L 474.245376 311.837022 
L 474.432095 310.05895 
L 474.443765 309.675941 
L 474.537125 309.919443 
L 474.583805 309.970173 
L 474.817204 311.157245 
L 474.910564 311.266314 
L 475.015594 311.390602 
L 475.027264 311.367773 
L 475.062273 307.880113 
L 475.143963 310.421666 
L 475.354023 311.492061 
L 475.645772 311.923262 
L 475.669112 311.908044 
L 475.727462 311.885215 
L 475.774141 311.928335 
L 475.925851 312.075451 
L 475.949191 312.039941 
L 476.08923 311.986674 
L 476.11257 306.599191 
L 476.19426 242.383127 
L 476.24094 272.719428 
L 476.38098 298.591524 
L 476.661059 306.000582 
L 476.952808 308.712079 
L 477.046168 309.138207 
L 477.069508 309.01392 
L 477.162867 304.790681 
L 477.174537 304.250411 
L 477.256227 131.564317 
L 477.337917 217.98219 
L 477.559646 295.725301 
L 477.769706 302.421608 
L 478.119805 307.225702 
L 478.131475 307.251066 
L 478.143145 307.16229 
L 478.283184 305.069694 
L 478.353204 305.830638 
L 478.656623 308.691787 
L 478.679963 307.778654 
L 478.820003 302.421608 
L 479.030062 304.493913 
L 479.345151 308.072886 
L 479.68358 309.675941 
L 479.963659 310.439422 
L 480.045349 310.624585 
L 480.232068 310.934035 
L 480.348768 311.172464 
L 480.500478 311.360164 
L 480.582167 311.461623 
L 480.745547 311.583374 
L 481.083976 311.811657 
L 481.095646 311.694979 
L 481.153996 304.323968 
L 481.247356 309.465413 
L 481.457415 311.164855 
L 481.644134 311.560546 
L 482.052583 312.121108 
L 482.262643 312.222567 
L 482.437692 312.374756 
L 482.589402 312.481288 
L 482.776121 312.547237 
L 482.869481 312.646159 
L 482.99785 312.689279 
L 483.1729 312.795812 
L 483.359619 312.829293 
L 483.686378 312.92365 
L 483.861428 312.991628 
L 483.943118 312.899554 
L 484.024807 310.756482 
L 484.094827 310.112216 
L 484.141507 310.431812 
L 484.339897 312.029795 
L 484.351567 311.994284 
L 484.386576 308.10586 
L 484.456596 291.996676 
L 484.538286 296.156503 
L 484.935065 308.039912 
L 485.343514 310.906134 
L 485.623593 311.674687 
L 485.681943 311.766001 
L 486.195421 312.526945 
L 486.323791 312.618258 
L 486.48717 312.761315 
L 486.65055 312.857702 
L 486.72057 312.875964 
L 486.74391 312.829293 
L 486.883949 312.806972 
L 487.280728 312.900315 
L 487.455778 313.012934 
L 487.875896 313.120481 
L 488.120966 313.203678 
L 488.401045 313.299049 
L 488.552754 313.320356 
L 489.579711 313.425873 
L 489.731421 313.425873 
L 490.361599 313.536464 
L 490.559989 313.547624 
L 490.956767 313.441092 
L 491.155157 313.441092 
L 491.446906 313.547624 
L 491.668635 313.594295 
L 492.170444 313.61966 
L 527.203682 313.68358 
L 544.300183 130.296077 
L 544.451892 256.790334 
L 544.708632 301.711394 
L 544.883681 303.946033 
L 545.26879 309.051967 
L 545.28046 309.026602 
L 545.29213 309.00631 
L 545.3038 309.10016 
L 545.513859 310.33289 
L 545.688909 311.01013 
L 549.178229 313.20799 
L 549.201569 313.152948 
L 549.364948 312.99873 
L 549.575008 312.924665 
L 549.610017 312.460996 
L 549.750057 301.026544 
L 549.890097 304.062711 
L 550.146836 308.382336 
L 550.601965 310.495224 
L 550.636974 310.467323 
L 550.812024 310.761555 
L 551.045423 311.106516 
L 551.103773 311.654396 
L 551.115443 311.760928 
L 551.138783 311.215585 
L 551.243813 310.994911 
L 551.255483 311.017739 
L 551.570572 311.512353 
L 551.687271 311.568155 
L 551.827311 311.826876 
L 552.08405 312.131254 
L 552.515839 312.237786 
L 552.772578 312.608112 
L 553.111007 312.871906 
L 553.461106 312.557382 
L 553.472776 312.572601 
L 553.601146 312.746097 
L 553.694506 312.831322 
L 553.741185 312.800377 
L 553.916235 312.542164 
L 554.091284 312.070378 
L 554.219654 312.121108 
L 554.254664 311.649323 
L 554.324684 312.169301 
L 554.511403 313.066708 
L 554.593093 312.911475 
L 554.698123 312.856687 
L 554.721463 312.911475 
L 554.826492 313.128598 
L 554.873172 313.10932 
L 555.211601 312.95003 
L 555.49168 312.851614 
L 555.63172 312.31388 
L 555.77176 310.429276 
L 555.876789 307.136925 
L 556.121859 291.362556 
L 556.180208 294.203413 
L 556.448618 304.367089 
L 556.717027 307.362671 
L 557.008776 308.770418 
L 557.183825 309.016456 
L 557.207165 308.942898 
L 557.335535 308.879486 
L 557.370545 308.965727 
L 557.954043 310.294842 
L 558.024063 310.386156 
L 558.385832 310.969546 
L 558.782611 311.073542 
L 558.805951 311.081151 
L 558.817621 311.01013 
L 558.981 310.005684 
L 559.05102 310.213675 
L 559.15605 310.183237 
L 559.331099 310.284696 
L 560.218017 311.202902 
L 560.393066 311.405821 
L 560.929885 311.522499 
L 561.104934 311.563082 
L 561.244974 311.664541 
L 561.560063 312.09067 
L 561.840142 311.999357 
L 561.980182 311.552936 
L 562.038531 311.355091 
L 562.096881 311.492061 
L 562.341951 312.09067 
L 562.37696 312.194666 
L 562.45865 312.27837 
L 562.50533 312.253005 
L 562.64537 312.230177 
L 562.785409 310.710825 
L 562.843759 306.228865 
L 562.925449 296.536975 
L 563.007139 298.591524 
L 563.042149 297.957404 
L 563.100498 296.536975 
L 563.147178 297.678391 
L 563.462267 305.285294 
L 563.800696 308.103324 
L 564.197475 309.462877 
L 564.757634 310.614439 
L 565.131072 310.880769 
L 565.329462 311.04564 
L 565.411152 311.152173 
L 565.83127 311.623958 
L 565.85461 311.563082 
L 566.04133 311.065932 
L 566.06467 311.126808 
L 566.263059 311.365237 
L 566.414769 311.603666 
L 566.438109 311.481915 
L 566.636498 309.769791 
L 566.753198 308.714615 
L 566.776538 308.851585 
L 566.998267 310.041194 
L 567.068287 309.800229 
L 567.231666 308.468577 
L 567.336696 308.871877 
L 567.383376 309.036748 
L 567.418386 308.843976 
L 567.453396 307.164826 
L 567.570095 296.739893 
L 567.640115 297.095001 
L 567.721805 298.718348 
L 567.768485 299.580751 
L 567.826835 298.819807 
L 567.838505 298.591524 
L 567.896854 299.403197 
L 568.083574 301.280192 
L 568.118584 301.53384 
L 568.842122 308.235221 
L 569.46063 310.10207 
L 569.682359 310.561173 
L 569.740709 310.677851 
L 569.764049 310.670241 
L 570.300867 311.461623 
L 570.405897 311.37031 
L 570.429237 311.395675 
L 570.592617 311.583374 
L 570.662636 311.522499 
L 570.791006 311.623958 
L 570.872696 311.745709 
L 570.931046 311.689906 
L 571.036075 311.750782 
L 571.164445 311.882679 
L 571.222795 311.826876 
L 571.362834 311.933408 
L 571.432854 312.039941 
L 571.479534 311.973992 
L 571.584564 311.826876 
L 571.607904 311.847168 
L 571.794623 312.050086 
L 571.911323 312.151546 
L 572.074702 312.258078 
L 572.168062 312.285979 
L 572.179732 312.298661 
L 572.319772 312.374756 
L 572.343112 312.344318 
L 572.483151 312.263151 
L 572.518161 310.353181 
L 572.564841 308.179418 
L 573.416748 301.762124 
L 573.440088 302.26942 
L 573.825197 308.326534 
L 574.081937 309.701306 
L 574.186966 309.967636 
L 574.198636 309.78501 
L 574.280326 300.975815 
L 574.385356 301.660664 
L 574.723785 307.190191 
L 574.840484 307.991718 
L 574.875494 307.636611 
L 575.050544 303.923205 
L 575.225593 302.421608 
L 575.272273 302.979634 
L 575.599032 307.027856 
L 575.610702 306.93147 
L 575.692392 303.958715 
L 575.727402 303.334741 
L 575.797422 303.933351 
L 576.25255 308.51677 
L 576.742689 310.244113 
L 576.929408 310.495224 
L 577.046108 310.761555 
L 577.594596 311.431185 
L 577.606266 311.388065 
L 577.711296 311.050713 
L 577.734636 311.081151 
L 577.979705 311.299288 
L 578.096405 311.400748 
L 578.329804 311.59352 
L 578.726583 311.928335 
L 578.749923 311.842095 
L 578.878293 311.05325 
L 579.018332 308.468577 
L 579.053342 308.55989 
L 579.158372 309.292933 
L 579.380101 310.568782 
L 579.76521 311.629031 
L 580.115309 312.019649 
L 580.325368 312.121108 
L 580.663797 312.268224 
L 580.698807 312.283443 
L 580.733817 312.189593 
L 580.850517 312.212421 
L 581.142266 312.425485 
L 581.293976 312.534554 
L 581.830794 313.066708 
L 582.064193 313.167152 
L 582.180893 313.18161 
L 582.192563 313.167152 
L 582.355943 313.203678 
L 582.904431 313.303868 
L 583.17284 313.414713 
L 583.697989 313.522259 
L 583.838028 313.516679 
L 583.861368 313.282055 
L 583.943058 311.857314 
L 583.989738 312.070378 
L 584.491546 313.123271 
L 584.514886 312.954088 
L 584.631586 310.545954 
L 584.643256 310.627121 
L 584.818305 311.831949 
L 585.040035 312.66848 
L 585.331784 313.18161 
L 585.915282 313.499938 
L 587.070609 313.6085 
L 587.560747 313.624987 
L 587.817487 313.628792 
L 587.922516 313.577047 
L 587.945856 313.397718 
L 588.039216 313.478632 
L 588.132576 313.50146 
L 588.167586 313.158021 
L 588.249275 313.355613 
L 588.471005 313.56817 
L 588.972813 313.617124 
L 590.08146 313.650098 
L 590.699968 313.636655 
L 590.723308 313.445658 
L 590.804998 313.609007 
L 591.108417 313.650098 
L 591.470186 313.585925 
L 591.855295 313.577047 
L 592.543823 313.617124 
L 592.835572 313.641981 
L 600.771149 313.653395 
L 600.887849 308.252976 
L 600.981209 310.421666 
L 601.354648 312.283443 
L 601.448007 312.379829 
L 601.704746 312.89169 
L 602.031506 313.380217 
L 602.685024 313.487256 
L 602.848403 313.436019 
L 603.058463 313.425873 
L 603.525261 313.531137 
L 603.723651 313.531137 
L 603.88703 313.541029 
L 604.03874 313.551683 
L 604.05041 313.523781 
L 604.08542 313.480661 
L 604.155439 313.529362 
L 604.505538 313.612558 
L 605.007347 313.628792 
L 606.804522 313.533927 
L 607.22464 304.100758 
L 607.25965 304.024664 
L 607.30633 304.240265 
L 607.46971 306.335397 
L 607.866489 309.716525 
L 608.216588 310.90867 
L 608.239928 310.814821 
L 608.309947 300.544613 
L 608.344957 296.308692 
L 608.414977 299.809034 
L 608.718396 306.984736 
L 609.045155 309.716525 
L 609.290225 310.495224 
L 609.663663 311.223194 
L 609.745353 311.238413 
L 609.780363 311.207975 
L 609.850383 311.207975 
L 609.873723 311.258705 
L 609.943743 311.342409 
L 609.990422 311.268851 
L 610.025432 311.129344 
L 610.118792 309.234594 
L 610.223822 307.636611 
L 610.270502 307.806555 
L 610.375531 308.427993 
L 610.573921 309.090014 
L 610.585591 309.082405 
L 610.632271 308.925143 
L 610.77231 307.859822 
L 610.87734 308.151517 
L 611.682568 310.720971 
L 612.091016 310.82243 
L 612.557815 311.502207 
L 612.651175 311.50728 
L 612.662845 311.522499 
L 612.697855 311.446404 
L 612.709525 311.380456 
L 612.779544 311.573228 
L 612.872904 311.54279 
L 612.884574 311.522499 
L 613.619782 311.629031 
L 613.678132 311.64425 
L 613.724812 311.598593 
L 613.853181 311.603666 
L 614.016561 311.497134 
L 614.086581 311.273924 
L 614.29664 310.124898 
L 614.35499 310.221284 
L 614.716759 310.87316 
L 615.031848 310.901061 
L 615.066858 309.247276 
L 615.136878 310.594147 
L 615.311927 311.360164 
L 615.662026 311.598593 
L 615.685366 311.558009 
L 615.883755 311.375383 
L 615.988785 311.278997 
L 616.420574 310.538344 
L 616.058805 311.31958 
L 616.467254 310.649949 
L 616.560613 310.751409 
L 616.618963 310.69307 
L 616.735663 310.619512 
L 616.759003 310.649949 
L 616.969062 310.979692 
L 617.120772 311.065932 
L 617.319161 310.87316 
L 617.330831 310.895988 
L 617.482541 311.116662 
L 617.70427 311.299288 
L 617.90266 311.207975 
L 617.925999 311.230803 
L 618.007689 311.187683 
L 618.182739 311.284069 
L 618.649537 311.887752 
L 619.454765 311.78122 
L 619.629815 311.64425 
L 621.18192 312.04755 
L 621.29862 311.847168 
L 621.555359 310.888379 
L 621.637049 308.052594 
L 621.730408 305.516114 
L 621.788758 305.881367 
L 621.847108 306.42671 
L 622.348917 309.625212 
L 622.407267 309.716525 
L 622.605656 310.340499 
L 622.780705 310.771701 
L 622.815715 310.751409 
L 622.955755 310.649949 
L 623.107464 310.538344 
L 623.329194 310.64234 
L 623.469233 310.852868 
L 623.912692 311.725417 
L 623.936032 311.705125 
L 624.169431 311.390602 
L 624.321141 311.497134 
L 624.367821 311.547863 
L 624.402831 310.596683 
L 624.472851 311.431185 
L 624.61289 311.664541 
L 624.75293 311.563082 
L 624.916309 311.058323 
L 624.974659 309.845885 
L 625.114699 301.965042 
L 625.208058 303.081093 
L 625.581497 307.088732 
L 626.608454 310.27455 
L 626.946883 310.649949 
L 627.308652 310.82243 
L 627.507042 310.931499 
L 627.588731 310.954327 
L 627.623741 310.923889 
L 627.728771 310.82243 
L 627.752111 310.939108 
L 628.487319 311.720344 
L 629.234197 311.928335 
L 629.525946 311.821803 
L 629.665985 311.400748 
L 629.736005 309.866177 
L 629.852705 305.130569 
L 629.934395 305.724105 
L 630.121114 306.987272 
L 630.144454 306.835084 
L 630.261154 302.928904 
L 630.366183 304.392453 
L 630.646263 307.271358 
L 631.066381 308.996165 
L 631.078051 308.988555 
L 631.159741 308.628375 
L 631.253101 308.255512 
L 631.311451 308.397555 
L 631.40481 308.620766 
L 631.6032 309.247276 
L 631.953299 310.178164 
L 632.816876 310.852868 
L 632.851886 310.786919 
L 632.945246 309.92198 
L 633.085286 303.836964 
L 633.201985 304.620737 
L 633.633774 308.549744 
L 637.088084 310.77931 
L 637.356493 311.385529 
L 637.729932 311.563082 
L 638.021681 311.664541 
L 638.50015 311.948627 
L 639.515437 311.207975 
L 639.643807 311.309434 
L 639.772176 311.54279 
L 639.783846 311.517426 
L 639.795516 311.375383 
L 639.877206 311.705125 
L 639.935556 311.806584 
L 640.005576 311.725417 
L 640.133945 311.618885 
L 640.227305 311.481915 
L 640.273985 311.54279 
L 640.717443 311.948627 
L 640.775793 311.86746 
L 640.915833 311.725417 
L 641.009193 311.623958 
L 641.172572 310.5561 
L 641.195912 310.208602 
L 642.736348 311.385529 
L 642.759688 311.350018 
L 642.958077 311.187683 
L 643.156466 311.088761 
L 643.308176 311.065932 
L 643.483225 311.172464 
L 643.693285 311.278997 
L 643.985034 311.380456 
L 643.996704 311.390602 
L 650.998684 305.927024 
L 651.173733 309.044358 
L 651.197073 308.973336 
L 651.220413 309.036748 
L 651.267093 308.935289 
L 651.278763 308.935289 
L 651.360453 308.600474 
L 651.500492 302.928904 
L 651.605522 304.455865 
L 651.757231 306.260148 
L 651.792241 306.206037 
L 651.850591 306.312569 
L 652.17735 307.677195 
L 652.21236 307.433693 
L 652.38741 303.324595 
L 652.480769 296.207233 
L 652.562459 298.439335 
L 652.947568 306.345543 
L 653.379357 308.925143 
L 653.612756 309.800229 
L 653.986195 310.294842 
L 654.184584 310.386156 
L 654.488004 310.700679 
L 654.569693 310.802138 
L 655.071502 311.238413 
L 655.199871 311.31958 
L 655.339911 311.431185 
L 655.351581 311.421039 
L 655.433271 311.405821 
L 655.444941 311.385529 
L 655.63166 310.619512 
L 655.69001 310.766628 
L 655.73669 310.802138 
L 655.76003 310.68546 
L 655.79504 309.115379 
L 655.900069 296.56234 
L 655.970089 297.475473 
L 656.168479 302.117231 
L 656.460228 307.322088 
L 656.681957 308.770418 
L 656.950366 309.528825 
L 657.172096 310.10207 
L 657.312135 310.190847 
L 657.638894 310.888379 
L 657.720584 310.954327 
L 657.767264 310.918816 
L 657.895634 310.87316 
L 657.907304 310.888379 
L 657.977323 311.017739 
L 658.047343 310.923889 
L 658.222393 311.025349 
L 658.537482 311.431185 
L 658.607502 311.350018 
L 658.700861 311.31958 
L 658.724201 311.350018 
L 658.817561 311.410893 
L 658.864241 311.360164 
L 658.992611 311.390602 
L 659.08597 311.486988 
L 659.20267 311.461623 
L 659.447739 311.563082 
L 659.494419 311.563082 
L 659.529429 311.497134 
L 659.669469 311.134417 
L 659.774498 310.672778 
L 659.821178 305.731715 
L 659.902868 298.971996 
L 659.961218 299.555386 
L 660.638076 309.402001 
L 660.871475 310.013293 
L 660.883145 309.876323 
L 660.964835 307.991718 
L 661.046525 308.524379 
L 661.268254 309.587164 
L 661.770062 310.59922 
L 662.073482 311.00252 
L 662.166841 311.167391 
L 662.248531 311.116662 
L 662.365231 311.207975 
L 662.45859 311.350018 
L 662.50527 311.278997 
L 662.6103 311.058323 
L 662.902049 308.894705 
L 662.948729 309.178791 
L 663.228808 310.383619 
L 663.403858 310.627121 
L 663.718947 311.192756 
L 664.034036 311.426112 
L 664.174075 311.421039 
L 664.185745 311.390602 
L 664.407475 311.136954 
L 664.442485 311.197829 
L 664.792584 311.766001 
L 664.815924 311.745709 
L 665.271052 311.999357 
L 665.446102 311.872533 
L 665.457772 311.887752 
L 665.551132 311.999357 
L 665.597811 311.948627 
L 665.761191 312.052623 
L 665.9129 312.192129 
L 666.0296 312.240322 
L 666.11129 312.31388 
L 666.15797 312.247932 
L 666.309679 312.293589 
L 666.379699 312.344318 
L 666.426379 312.285979 
L 666.554749 312.253005 
L 666.566419 312.273297 
L 666.694788 312.354464 
L 666.741468 312.308807 
L 666.858168 312.298661 
L 666.869838 312.324026 
L 666.939857 312.445777 
L 667.009877 312.389975 
L 667.056557 312.374756 
L 667.103237 312.430558 
L 667.231607 312.577674 
L 667.278286 312.521872 
L 667.371646 312.476215 
L 667.394986 312.506653 
L 667.546696 312.549773 
L 667.570036 312.476215 
L 667.651725 312.425485 
L 667.686735 312.445777 
L 667.791765 312.577674 
L 667.838445 312.542164 
L 667.896795 312.384902 
L 667.966815 312.425485 
L 668.141864 312.242859 
L 668.363593 312.045013 
L 668.433613 311.54279 
L 668.515303 311.669614 
L 668.585323 311.801511 
L 668.643673 311.725417 
L 668.702022 311.49967 
L 668.748702 308.519306 
L 668.830392 294.507791 
L 668.935422 297.247189 
L 669.48391 308.742517 
L 669.997389 310.502834 
L 670.219118 310.87316 
L 670.230788 310.824967 
L 670.300808 309.998074 
L 670.382498 310.429276 
L 670.685917 311.126808 
L 670.837626 311.400748 
L 671.082695 311.669614 
L 671.222735 311.684833 
L 671.502814 311.674687 
L 672.273032 312.212421 
L 672.459751 312.1414 
L 672.529771 312.181983 
L 672.576451 312.128717 
L 672.693151 312.050086 
L 672.728161 312.09067 
L 672.94989 312.161692 
L 673.00824 312.042477 
L 673.07826 312.138863 
L 673.253309 312.242859 
L 673.370009 312.395048 
L 673.486709 312.425485 
L 673.591738 312.526945 
L 673.673428 312.572601 
L 673.708438 312.521872 
L 673.755118 312.070378 
L 673.871817 312.359537 
L 674.058537 312.36461 
L 674.140227 312.070378 
L 674.233586 309.64043 
L 674.315276 296.029679 
L 674.373626 297.855945 
L 674.828755 307.697487 
L 675.120504 309.952418 
L 675.482273 310.939108 
L 675.482273 310.939108 
" clip-path="url(#p762d9f4b1a)" style="fill: none; stroke: #1f77b4; stroke-width: 1.5; stroke-linecap: square"/>
   </g>
   <g id="line2d_14">
    <path d="M 69.927727 312.151546 
L 675.482273 312.151546 
L 675.482273 312.151546 
" clip-path="url(#p762d9f4b1a)" style="fill: none; stroke: #ff7f0e; stroke-width: 1.5; stroke-linecap: square"/>
   </g>
   <g id="patch_3">
    <path d="M 39.65 327.558125 
L 39.65 22.318125 
" style="fill: none; stroke: #000000; stroke-width: 0.8; stroke-linejoin: miter; stroke-linecap: square"/>
   </g>
   <g id="patch_4">
    <path d="M 705.76 327.558125 
L 705.76 22.318125 
" style="fill: none; stroke: #000000; stroke-width: 0.8; stroke-linejoin: miter; stroke-linecap: square"/>
   </g>
   <g id="patch_5">
    <path d="M 39.65 327.558125 
L 705.76 327.558125 
" style="fill: none; stroke: #000000; stroke-width: 0.8; stroke-linejoin: miter; stroke-linecap: square"/>
   </g>
   <g id="patch_6">
    <path d="M 39.65 22.318125 
L 705.76 22.318125 
" style="fill: none; stroke: #000000; stroke-width: 0.8; stroke-linejoin: miter; stroke-linecap: square"/>
   </g>
   <g id="text_13">
    <!-- training -->
    <g transform="translate(349.461562 16.318125) scale(0.12 -0.12)">
     <defs>
      <path id="DejaVuSans-74" d="M 1172 4494 
L 1172 3500 
L 2356 3500 
L 2356 3053 
L 1172 3053 
L 1172 1153 
Q 1172 725 1289 603 
Q 1406 481 1766 481 
L 2356 481 
L 2356 0 
L 1766 0 
Q 1100 0 847 248 
Q 594 497 594 1153 
L 594 3053 
L 172 3053 
L 172 3500 
L 594 3500 
L 594 4494 
L 1172 4494 
z
" transform="scale(0.015625)"/>
      <path id="DejaVuSans-72" d="M 2631 2963 
Q 2534 3019 2420 3045 
Q 2306 3072 2169 3072 
Q 1681 3072 1420 2755 
Q 1159 2438 1159 1844 
L 1159 0 
L 581 0 
L 581 3500 
L 1159 3500 
L 1159 2956 
Q 1341 3275 1631 3429 
Q 1922 3584 2338 3584 
Q 2397 3584 2469 3576 
Q 2541 3569 2628 3553 
L 2631 2963 
z
" transform="scale(0.015625)"/>
      <path id="DejaVuSans-61" d="M 2194 1759 
Q 1497 1759 1228 1600 
Q 959 1441 959 1056 
Q 959 750 1161 570 
Q 1363 391 1709 391 
Q 2188 391 2477 730 
Q 2766 1069 2766 1631 
L 2766 1759 
L 2194 1759 
z
M 3341 1997 
L 3341 0 
L 2766 0 
L 2766 531 
Q 2569 213 2275 61 
Q 1981 -91 1556 -91 
Q 1019 -91 701 211 
Q 384 513 384 1019 
Q 384 1609 779 1909 
Q 1175 2209 1959 2209 
L 2766 2209 
L 2766 2266 
Q 2766 2663 2505 2880 
Q 2244 3097 1772 3097 
Q 1472 3097 1187 3025 
Q 903 2953 641 2809 
L 641 3341 
Q 956 3463 1253 3523 
Q 1550 3584 1831 3584 
Q 2591 3584 2966 3190 
Q 3341 2797 3341 1997 
z
" transform="scale(0.015625)"/>
      <path id="DejaVuSans-69" d="M 603 3500 
L 1178 3500 
L 1178 0 
L 603 0 
L 603 3500 
z
M 603 4863 
L 1178 4863 
L 1178 4134 
L 603 4134 
L 603 4863 
z
" transform="scale(0.015625)"/>
      <path id="DejaVuSans-6e" d="M 3513 2113 
L 3513 0 
L 2938 0 
L 2938 2094 
Q 2938 2591 2744 2837 
Q 2550 3084 2163 3084 
Q 1697 3084 1428 2787 
Q 1159 2491 1159 1978 
L 1159 0 
L 581 0 
L 581 3500 
L 1159 3500 
L 1159 2956 
Q 1366 3272 1645 3428 
Q 1925 3584 2291 3584 
Q 2894 3584 3203 3211 
Q 3513 2838 3513 2113 
z
" transform="scale(0.015625)"/>
      <path id="DejaVuSans-67" d="M 2906 1791 
Q 2906 2416 2648 2759 
Q 2391 3103 1925 3103 
Q 1463 3103 1205 2759 
Q 947 2416 947 1791 
Q 947 1169 1205 825 
Q 1463 481 1925 481 
Q 2391 481 2648 825 
Q 2906 1169 2906 1791 
z
M 3481 434 
Q 3481 -459 3084 -895 
Q 2688 -1331 1869 -1331 
Q 1566 -1331 1297 -1286 
Q 1028 -1241 775 -1147 
L 775 -588 
Q 1028 -725 1275 -790 
Q 1522 -856 1778 -856 
Q 2344 -856 2625 -561 
Q 2906 -266 2906 331 
L 2906 616 
Q 2728 306 2450 153 
Q 2172 0 1784 0 
Q 1141 0 747 490 
Q 353 981 353 1791 
Q 353 2603 747 3093 
Q 1141 3584 1784 3584 
Q 2172 3584 2450 3431 
Q 2728 3278 2906 2969 
L 2906 3500 
L 3481 3500 
L 3481 434 
z
" transform="scale(0.015625)"/>
     </defs>
     <use xlink:href="#DejaVuSans-74"/>
     <use xlink:href="#DejaVuSans-72" x="39.208984"/>
     <use xlink:href="#DejaVuSans-61" x="80.322266"/>
     <use xlink:href="#DejaVuSans-69" x="141.601562"/>
     <use xlink:href="#DejaVuSans-6e" x="169.384766"/>
     <use xlink:href="#DejaVuSans-69" x="232.763672"/>
     <use xlink:href="#DejaVuSans-6e" x="260.546875"/>
     <use xlink:href="#DejaVuSans-67" x="323.925781"/>
    </g>
   </g>
   <g id="legend_1">
    <g id="patch_7">
     <path d="M 617.36625 59.674375 
L 698.76 59.674375 
Q 700.76 59.674375 700.76 57.674375 
L 700.76 29.318125 
Q 700.76 27.318125 698.76 27.318125 
L 617.36625 27.318125 
Q 615.36625 27.318125 615.36625 29.318125 
L 615.36625 57.674375 
Q 615.36625 59.674375 617.36625 59.674375 
z
" style="fill: #ffffff; opacity: 0.8; stroke: #cccccc; stroke-linejoin: miter"/>
    </g>
    <g id="line2d_15">
     <path d="M 619.36625 35.416562 
L 629.36625 35.416562 
L 639.36625 35.416562 
" style="fill: none; stroke: #1f77b4; stroke-width: 1.5; stroke-linecap: square"/>
    </g>
    <g id="text_14">
     <!-- observed -->
     <g transform="translate(647.36625 38.916562) scale(0.1 -0.1)">
      <defs>
       <path id="DejaVuSans-6f" d="M 1959 3097 
Q 1497 3097 1228 2736 
Q 959 2375 959 1747 
Q 959 1119 1226 758 
Q 1494 397 1959 397 
Q 2419 397 2687 759 
Q 2956 1122 2956 1747 
Q 2956 2369 2687 2733 
Q 2419 3097 1959 3097 
z
M 1959 3584 
Q 2709 3584 3137 3096 
Q 3566 2609 3566 1747 
Q 3566 888 3137 398 
Q 2709 -91 1959 -91 
Q 1206 -91 779 398 
Q 353 888 353 1747 
Q 353 2609 779 3096 
Q 1206 3584 1959 3584 
z
" transform="scale(0.015625)"/>
       <path id="DejaVuSans-62" d="M 3116 1747 
Q 3116 2381 2855 2742 
Q 2594 3103 2138 3103 
Q 1681 3103 1420 2742 
Q 1159 2381 1159 1747 
Q 1159 1113 1420 752 
Q 1681 391 2138 391 
Q 2594 391 2855 752 
Q 3116 1113 3116 1747 
z
M 1159 2969 
Q 1341 3281 1617 3432 
Q 1894 3584 2278 3584 
Q 2916 3584 3314 3078 
Q 3713 2572 3713 1747 
Q 3713 922 3314 415 
Q 2916 -91 2278 -91 
Q 1894 -91 1617 61 
Q 1341 213 1159 525 
L 1159 0 
L 581 0 
L 581 4863 
L 1159 4863 
L 1159 2969 
z
" transform="scale(0.015625)"/>
       <path id="DejaVuSans-73" d="M 2834 3397 
L 2834 2853 
Q 2591 2978 2328 3040 
Q 2066 3103 1784 3103 
Q 1356 3103 1142 2972 
Q 928 2841 928 2578 
Q 928 2378 1081 2264 
Q 1234 2150 1697 2047 
L 1894 2003 
Q 2506 1872 2764 1633 
Q 3022 1394 3022 966 
Q 3022 478 2636 193 
Q 2250 -91 1575 -91 
Q 1294 -91 989 -36 
Q 684 19 347 128 
L 347 722 
Q 666 556 975 473 
Q 1284 391 1588 391 
Q 1994 391 2212 530 
Q 2431 669 2431 922 
Q 2431 1156 2273 1281 
Q 2116 1406 1581 1522 
L 1381 1569 
Q 847 1681 609 1914 
Q 372 2147 372 2553 
Q 372 3047 722 3315 
Q 1072 3584 1716 3584 
Q 2034 3584 2315 3537 
Q 2597 3491 2834 3397 
z
" transform="scale(0.015625)"/>
       <path id="DejaVuSans-65" d="M 3597 1894 
L 3597 1613 
L 953 1613 
Q 991 1019 1311 708 
Q 1631 397 2203 397 
Q 2534 397 2845 478 
Q 3156 559 3463 722 
L 3463 178 
Q 3153 47 2828 -22 
Q 2503 -91 2169 -91 
Q 1331 -91 842 396 
Q 353 884 353 1716 
Q 353 2575 817 3079 
Q 1281 3584 2069 3584 
Q 2775 3584 3186 3129 
Q 3597 2675 3597 1894 
z
M 3022 2063 
Q 3016 2534 2758 2815 
Q 2500 3097 2075 3097 
Q 1594 3097 1305 2825 
Q 1016 2553 972 2059 
L 3022 2063 
z
" transform="scale(0.015625)"/>
       <path id="DejaVuSans-76" d="M 191 3500 
L 800 3500 
L 1894 563 
L 2988 3500 
L 3597 3500 
L 2284 0 
L 1503 0 
L 191 3500 
z
" transform="scale(0.015625)"/>
       <path id="DejaVuSans-64" d="M 2906 2969 
L 2906 4863 
L 3481 4863 
L 3481 0 
L 2906 0 
L 2906 525 
Q 2725 213 2448 61 
Q 2172 -91 1784 -91 
Q 1150 -91 751 415 
Q 353 922 353 1747 
Q 353 2572 751 3078 
Q 1150 3584 1784 3584 
Q 2172 3584 2448 3432 
Q 2725 3281 2906 2969 
z
M 947 1747 
Q 947 1113 1208 752 
Q 1469 391 1925 391 
Q 2381 391 2643 752 
Q 2906 1113 2906 1747 
Q 2906 2381 2643 2742 
Q 2381 3103 1925 3103 
Q 1469 3103 1208 2742 
Q 947 2381 947 1747 
z
" transform="scale(0.015625)"/>
      </defs>
      <use xlink:href="#DejaVuSans-6f"/>
      <use xlink:href="#DejaVuSans-62" x="61.181641"/>
      <use xlink:href="#DejaVuSans-73" x="124.658203"/>
      <use xlink:href="#DejaVuSans-65" x="176.757812"/>
      <use xlink:href="#DejaVuSans-72" x="238.28125"/>
      <use xlink:href="#DejaVuSans-76" x="279.394531"/>
      <use xlink:href="#DejaVuSans-65" x="338.574219"/>
      <use xlink:href="#DejaVuSans-64" x="400.097656"/>
     </g>
    </g>
    <g id="line2d_16">
     <path d="M 619.36625 50.094688 
L 629.36625 50.094688 
L 639.36625 50.094688 
" style="fill: none; stroke: #ff7f0e; stroke-width: 1.5; stroke-linecap: square"/>
    </g>
    <g id="text_15">
     <!-- simulated -->
     <g transform="translate(647.36625 53.594688) scale(0.1 -0.1)">
      <defs>
       <path id="DejaVuSans-6d" d="M 3328 2828 
Q 3544 3216 3844 3400 
Q 4144 3584 4550 3584 
Q 5097 3584 5394 3201 
Q 5691 2819 5691 2113 
L 5691 0 
L 5113 0 
L 5113 2094 
Q 5113 2597 4934 2840 
Q 4756 3084 4391 3084 
Q 3944 3084 3684 2787 
Q 3425 2491 3425 1978 
L 3425 0 
L 2847 0 
L 2847 2094 
Q 2847 2600 2669 2842 
Q 2491 3084 2119 3084 
Q 1678 3084 1418 2786 
Q 1159 2488 1159 1978 
L 1159 0 
L 581 0 
L 581 3500 
L 1159 3500 
L 1159 2956 
Q 1356 3278 1631 3431 
Q 1906 3584 2284 3584 
Q 2666 3584 2933 3390 
Q 3200 3197 3328 2828 
z
" transform="scale(0.015625)"/>
       <path id="DejaVuSans-75" d="M 544 1381 
L 544 3500 
L 1119 3500 
L 1119 1403 
Q 1119 906 1312 657 
Q 1506 409 1894 409 
Q 2359 409 2629 706 
Q 2900 1003 2900 1516 
L 2900 3500 
L 3475 3500 
L 3475 0 
L 2900 0 
L 2900 538 
Q 2691 219 2414 64 
Q 2138 -91 1772 -91 
Q 1169 -91 856 284 
Q 544 659 544 1381 
z
M 1991 3584 
L 1991 3584 
z
" transform="scale(0.015625)"/>
       <path id="DejaVuSans-6c" d="M 603 4863 
L 1178 4863 
L 1178 0 
L 603 0 
L 603 4863 
z
" transform="scale(0.015625)"/>
      </defs>
      <use xlink:href="#DejaVuSans-73"/>
      <use xlink:href="#DejaVuSans-69" x="52.099609"/>
      <use xlink:href="#DejaVuSans-6d" x="79.882812"/>
      <use xlink:href="#DejaVuSans-75" x="177.294922"/>
      <use xlink:href="#DejaVuSans-6c" x="240.673828"/>
      <use xlink:href="#DejaVuSans-61" x="268.457031"/>
      <use xlink:href="#DejaVuSans-74" x="329.736328"/>
      <use xlink:href="#DejaVuSans-65" x="368.945312"/>
      <use xlink:href="#DejaVuSans-64" x="430.46875"/>
     </g>
    </g>
   </g>
  </g>
 </g>
 <defs>
  <clipPath id="p762d9f4b1a">
   <rect x="39.65" y="22.318125" width="666.11" height="305.24"/>
  </clipPath>
 </defs>
</svg>
