<?xml version="1.0" encoding="utf-8" standalone="no"?>
<!DOCTYPE svg PUBLIC "-//W3C//DTD SVG 1.1//EN"
  "http://www.w3.org/Graphics/SVG/1.1/DTD/svg11.dtd">
<svg xmlns:xlink="http://www.w3.org/1999/xlink" width="720pt" height="360pt" viewBox="0 0 720 360" xmlns="http://www.w3.org/2000/svg" version="1.1">
 <metadata>
  <rdf:RDF xmlns:dc="http://purl.org/dc/elements/1.1/" xmlns:cc="http://creativecommons.org/ns#" xmlns:rdf="http://www.w3.org/1999/02/22-rdf-syntax-ns#">
   <cc:Work>
    <dc:type rdf:resource="http://purl.org/dc/dcmitype/StillImage"/>
    <dc:date>2023-10-23T10:55:07.609616</dc:date>
    <dc:format>image/svg+xml</dc:format>
    <dc:creator>
     <cc:Agent>
      <dc:title>Matplotlib v3.7.1, https://matplotlib.org/</dc:title>
     </cc:Agent>
    </dc:creator>
   </cc:Work>
  </rdf:RDF>
 </metadata>
 <defs>
  <style type="text/css">*{stroke-linejoin: round; stroke-linecap: butt}</style>
 </defs>
 <g id="figure_1">
  <g id="patch_1">
   <path d="M 0 360 
L 720 360 
L 720 0 
L 0 0 
z
" style="fill: #ffffff"/>
  </g>
  <g id="axes_1">
   <g id="patch_2">
    <path d="M 90 288 
L 648 288 
L 648 43.2 
L 90 43.2 
z
" style="fill: #ffffff"/>
   </g>
   <g id="matplotlib.axis_1">
    <g id="xtick_1">
     <g id="line2d_1">
      <defs>
       <path id="m032ef37397" d="M 0 0 
L 0 3.5 
" style="stroke: #000000; stroke-width: 0.8"/>
      </defs>
      <g>
       <use xlink:href="#m032ef37397" x="108.334453" y="288" style="stroke: #000000; stroke-width: 0.8"/>
      </g>
     </g>
     <g id="text_1">
      <!-- 2023-09-17 -->
      <g transform="translate(46.691111 337.765903) rotate(-30) scale(0.12 -0.12)">
       <defs>
        <path id="DejaVuSans-32" d="M 1228 531 
L 3431 531 
L 3431 0 
L 469 0 
L 469 531 
Q 828 903 1448 1529 
Q 2069 2156 2228 2338 
Q 2531 2678 2651 2914 
Q 2772 3150 2772 3378 
Q 2772 3750 2511 3984 
Q 2250 4219 1831 4219 
Q 1534 4219 1204 4116 
Q 875 4013 500 3803 
L 500 4441 
Q 881 4594 1212 4672 
Q 1544 4750 1819 4750 
Q 2544 4750 2975 4387 
Q 3406 4025 3406 3419 
Q 3406 3131 3298 2873 
Q 3191 2616 2906 2266 
Q 2828 2175 2409 1742 
Q 1991 1309 1228 531 
z
" transform="scale(0.015625)"/>
        <path id="DejaVuSans-30" d="M 2034 4250 
Q 1547 4250 1301 3770 
Q 1056 3291 1056 2328 
Q 1056 1369 1301 889 
Q 1547 409 2034 409 
Q 2525 409 2770 889 
Q 3016 1369 3016 2328 
Q 3016 3291 2770 3770 
Q 2525 4250 2034 4250 
z
M 2034 4750 
Q 2819 4750 3233 4129 
Q 3647 3509 3647 2328 
Q 3647 1150 3233 529 
Q 2819 -91 2034 -91 
Q 1250 -91 836 529 
Q 422 1150 422 2328 
Q 422 3509 836 4129 
Q 1250 4750 2034 4750 
z
" transform="scale(0.015625)"/>
        <path id="DejaVuSans-33" d="M 2597 2516 
Q 3050 2419 3304 2112 
Q 3559 1806 3559 1356 
Q 3559 666 3084 287 
Q 2609 -91 1734 -91 
Q 1441 -91 1130 -33 
Q 819 25 488 141 
L 488 750 
Q 750 597 1062 519 
Q 1375 441 1716 441 
Q 2309 441 2620 675 
Q 2931 909 2931 1356 
Q 2931 1769 2642 2001 
Q 2353 2234 1838 2234 
L 1294 2234 
L 1294 2753 
L 1863 2753 
Q 2328 2753 2575 2939 
Q 2822 3125 2822 3475 
Q 2822 3834 2567 4026 
Q 2313 4219 1838 4219 
Q 1578 4219 1281 4162 
Q 984 4106 628 3988 
L 628 4550 
Q 988 4650 1302 4700 
Q 1616 4750 1894 4750 
Q 2613 4750 3031 4423 
Q 3450 4097 3450 3541 
Q 3450 3153 3228 2886 
Q 3006 2619 2597 2516 
z
" transform="scale(0.015625)"/>
        <path id="DejaVuSans-2d" d="M 313 2009 
L 1997 2009 
L 1997 1497 
L 313 1497 
L 313 2009 
z
" transform="scale(0.015625)"/>
        <path id="DejaVuSans-39" d="M 703 97 
L 703 672 
Q 941 559 1184 500 
Q 1428 441 1663 441 
Q 2288 441 2617 861 
Q 2947 1281 2994 2138 
Q 2813 1869 2534 1725 
Q 2256 1581 1919 1581 
Q 1219 1581 811 2004 
Q 403 2428 403 3163 
Q 403 3881 828 4315 
Q 1253 4750 1959 4750 
Q 2769 4750 3195 4129 
Q 3622 3509 3622 2328 
Q 3622 1225 3098 567 
Q 2575 -91 1691 -91 
Q 1453 -91 1209 -44 
Q 966 3 703 97 
z
M 1959 2075 
Q 2384 2075 2632 2365 
Q 2881 2656 2881 3163 
Q 2881 3666 2632 3958 
Q 2384 4250 1959 4250 
Q 1534 4250 1286 3958 
Q 1038 3666 1038 3163 
Q 1038 2656 1286 2365 
Q 1534 2075 1959 2075 
z
" transform="scale(0.015625)"/>
        <path id="DejaVuSans-31" d="M 794 531 
L 1825 531 
L 1825 4091 
L 703 3866 
L 703 4441 
L 1819 4666 
L 2450 4666 
L 2450 531 
L 3481 531 
L 3481 0 
L 794 0 
L 794 531 
z
" transform="scale(0.015625)"/>
        <path id="DejaVuSans-37" d="M 525 4666 
L 3525 4666 
L 3525 4397 
L 1831 0 
L 1172 0 
L 2766 4134 
L 525 4134 
L 525 4666 
z
" transform="scale(0.015625)"/>
       </defs>
       <use xlink:href="#DejaVuSans-32"/>
       <use xlink:href="#DejaVuSans-30" x="63.623047"/>
       <use xlink:href="#DejaVuSans-32" x="127.246094"/>
       <use xlink:href="#DejaVuSans-33" x="190.869141"/>
       <use xlink:href="#DejaVuSans-2d" x="254.492188"/>
       <use xlink:href="#DejaVuSans-30" x="290.576172"/>
       <use xlink:href="#DejaVuSans-39" x="354.199219"/>
       <use xlink:href="#DejaVuSans-2d" x="417.822266"/>
       <use xlink:href="#DejaVuSans-31" x="453.90625"/>
       <use xlink:href="#DejaVuSans-37" x="517.529297"/>
      </g>
     </g>
    </g>
    <g id="xtick_2">
     <g id="line2d_2">
      <g>
       <use xlink:href="#m032ef37397" x="164.567919" y="288" style="stroke: #000000; stroke-width: 0.8"/>
      </g>
     </g>
     <g id="text_2">
      <!-- 2023-09-21 -->
      <g transform="translate(102.924578 337.765903) rotate(-30) scale(0.12 -0.12)">
       <use xlink:href="#DejaVuSans-32"/>
       <use xlink:href="#DejaVuSans-30" x="63.623047"/>
       <use xlink:href="#DejaVuSans-32" x="127.246094"/>
       <use xlink:href="#DejaVuSans-33" x="190.869141"/>
       <use xlink:href="#DejaVuSans-2d" x="254.492188"/>
       <use xlink:href="#DejaVuSans-30" x="290.576172"/>
       <use xlink:href="#DejaVuSans-39" x="354.199219"/>
       <use xlink:href="#DejaVuSans-2d" x="417.822266"/>
       <use xlink:href="#DejaVuSans-32" x="453.90625"/>
       <use xlink:href="#DejaVuSans-31" x="517.529297"/>
      </g>
     </g>
    </g>
    <g id="xtick_3">
     <g id="line2d_3">
      <g>
       <use xlink:href="#m032ef37397" x="220.801386" y="288" style="stroke: #000000; stroke-width: 0.8"/>
      </g>
     </g>
     <g id="text_3">
      <!-- 2023-09-25 -->
      <g transform="translate(159.158044 337.765903) rotate(-30) scale(0.12 -0.12)">
       <defs>
        <path id="DejaVuSans-35" d="M 691 4666 
L 3169 4666 
L 3169 4134 
L 1269 4134 
L 1269 2991 
Q 1406 3038 1543 3061 
Q 1681 3084 1819 3084 
Q 2600 3084 3056 2656 
Q 3513 2228 3513 1497 
Q 3513 744 3044 326 
Q 2575 -91 1722 -91 
Q 1428 -91 1123 -41 
Q 819 9 494 109 
L 494 744 
Q 775 591 1075 516 
Q 1375 441 1709 441 
Q 2250 441 2565 725 
Q 2881 1009 2881 1497 
Q 2881 1984 2565 2268 
Q 2250 2553 1709 2553 
Q 1456 2553 1204 2497 
Q 953 2441 691 2322 
L 691 4666 
z
" transform="scale(0.015625)"/>
       </defs>
       <use xlink:href="#DejaVuSans-32"/>
       <use xlink:href="#DejaVuSans-30" x="63.623047"/>
       <use xlink:href="#DejaVuSans-32" x="127.246094"/>
       <use xlink:href="#DejaVuSans-33" x="190.869141"/>
       <use xlink:href="#DejaVuSans-2d" x="254.492188"/>
       <use xlink:href="#DejaVuSans-30" x="290.576172"/>
       <use xlink:href="#DejaVuSans-39" x="354.199219"/>
       <use xlink:href="#DejaVuSans-2d" x="417.822266"/>
       <use xlink:href="#DejaVuSans-32" x="453.90625"/>
       <use xlink:href="#DejaVuSans-35" x="517.529297"/>
      </g>
     </g>
    </g>
    <g id="xtick_4">
     <g id="line2d_4">
      <g>
       <use xlink:href="#m032ef37397" x="277.034852" y="288" style="stroke: #000000; stroke-width: 0.8"/>
      </g>
     </g>
     <g id="text_4">
      <!-- 2023-09-29 -->
      <g transform="translate(215.39151 337.765903) rotate(-30) scale(0.12 -0.12)">
       <use xlink:href="#DejaVuSans-32"/>
       <use xlink:href="#DejaVuSans-30" x="63.623047"/>
       <use xlink:href="#DejaVuSans-32" x="127.246094"/>
       <use xlink:href="#DejaVuSans-33" x="190.869141"/>
       <use xlink:href="#DejaVuSans-2d" x="254.492188"/>
       <use xlink:href="#DejaVuSans-30" x="290.576172"/>
       <use xlink:href="#DejaVuSans-39" x="354.199219"/>
       <use xlink:href="#DejaVuSans-2d" x="417.822266"/>
       <use xlink:href="#DejaVuSans-32" x="453.90625"/>
       <use xlink:href="#DejaVuSans-39" x="517.529297"/>
      </g>
     </g>
    </g>
    <g id="xtick_5">
     <g id="line2d_5">
      <g>
       <use xlink:href="#m032ef37397" x="305.151585" y="288" style="stroke: #000000; stroke-width: 0.8"/>
      </g>
     </g>
     <g id="text_5">
      <!-- 2023-10-01 -->
      <g transform="translate(243.508244 337.765903) rotate(-30) scale(0.12 -0.12)">
       <use xlink:href="#DejaVuSans-32"/>
       <use xlink:href="#DejaVuSans-30" x="63.623047"/>
       <use xlink:href="#DejaVuSans-32" x="127.246094"/>
       <use xlink:href="#DejaVuSans-33" x="190.869141"/>
       <use xlink:href="#DejaVuSans-2d" x="254.492188"/>
       <use xlink:href="#DejaVuSans-31" x="290.576172"/>
       <use xlink:href="#DejaVuSans-30" x="354.199219"/>
       <use xlink:href="#DejaVuSans-2d" x="417.822266"/>
       <use xlink:href="#DejaVuSans-30" x="453.90625"/>
       <use xlink:href="#DejaVuSans-31" x="517.529297"/>
      </g>
     </g>
    </g>
    <g id="xtick_6">
     <g id="line2d_6">
      <g>
       <use xlink:href="#m032ef37397" x="361.385051" y="288" style="stroke: #000000; stroke-width: 0.8"/>
      </g>
     </g>
     <g id="text_6">
      <!-- 2023-10-05 -->
      <g transform="translate(299.74171 337.765903) rotate(-30) scale(0.12 -0.12)">
       <use xlink:href="#DejaVuSans-32"/>
       <use xlink:href="#DejaVuSans-30" x="63.623047"/>
       <use xlink:href="#DejaVuSans-32" x="127.246094"/>
       <use xlink:href="#DejaVuSans-33" x="190.869141"/>
       <use xlink:href="#DejaVuSans-2d" x="254.492188"/>
       <use xlink:href="#DejaVuSans-31" x="290.576172"/>
       <use xlink:href="#DejaVuSans-30" x="354.199219"/>
       <use xlink:href="#DejaVuSans-2d" x="417.822266"/>
       <use xlink:href="#DejaVuSans-30" x="453.90625"/>
       <use xlink:href="#DejaVuSans-35" x="517.529297"/>
      </g>
     </g>
    </g>
    <g id="xtick_7">
     <g id="line2d_7">
      <g>
       <use xlink:href="#m032ef37397" x="417.618518" y="288" style="stroke: #000000; stroke-width: 0.8"/>
      </g>
     </g>
     <g id="text_7">
      <!-- 2023-10-09 -->
      <g transform="translate(355.975176 337.765903) rotate(-30) scale(0.12 -0.12)">
       <use xlink:href="#DejaVuSans-32"/>
       <use xlink:href="#DejaVuSans-30" x="63.623047"/>
       <use xlink:href="#DejaVuSans-32" x="127.246094"/>
       <use xlink:href="#DejaVuSans-33" x="190.869141"/>
       <use xlink:href="#DejaVuSans-2d" x="254.492188"/>
       <use xlink:href="#DejaVuSans-31" x="290.576172"/>
       <use xlink:href="#DejaVuSans-30" x="354.199219"/>
       <use xlink:href="#DejaVuSans-2d" x="417.822266"/>
       <use xlink:href="#DejaVuSans-30" x="453.90625"/>
       <use xlink:href="#DejaVuSans-39" x="517.529297"/>
      </g>
     </g>
    </g>
    <g id="xtick_8">
     <g id="line2d_8">
      <g>
       <use xlink:href="#m032ef37397" x="473.851984" y="288" style="stroke: #000000; stroke-width: 0.8"/>
      </g>
     </g>
     <g id="text_8">
      <!-- 2023-10-13 -->
      <g transform="translate(412.208642 337.765903) rotate(-30) scale(0.12 -0.12)">
       <use xlink:href="#DejaVuSans-32"/>
       <use xlink:href="#DejaVuSans-30" x="63.623047"/>
       <use xlink:href="#DejaVuSans-32" x="127.246094"/>
       <use xlink:href="#DejaVuSans-33" x="190.869141"/>
       <use xlink:href="#DejaVuSans-2d" x="254.492188"/>
       <use xlink:href="#DejaVuSans-31" x="290.576172"/>
       <use xlink:href="#DejaVuSans-30" x="354.199219"/>
       <use xlink:href="#DejaVuSans-2d" x="417.822266"/>
       <use xlink:href="#DejaVuSans-31" x="453.90625"/>
       <use xlink:href="#DejaVuSans-33" x="517.529297"/>
      </g>
     </g>
    </g>
    <g id="xtick_9">
     <g id="line2d_9">
      <g>
       <use xlink:href="#m032ef37397" x="530.08545" y="288" style="stroke: #000000; stroke-width: 0.8"/>
      </g>
     </g>
     <g id="text_9">
      <!-- 2023-10-17 -->
      <g transform="translate(468.442109 337.765903) rotate(-30) scale(0.12 -0.12)">
       <use xlink:href="#DejaVuSans-32"/>
       <use xlink:href="#DejaVuSans-30" x="63.623047"/>
       <use xlink:href="#DejaVuSans-32" x="127.246094"/>
       <use xlink:href="#DejaVuSans-33" x="190.869141"/>
       <use xlink:href="#DejaVuSans-2d" x="254.492188"/>
       <use xlink:href="#DejaVuSans-31" x="290.576172"/>
       <use xlink:href="#DejaVuSans-30" x="354.199219"/>
       <use xlink:href="#DejaVuSans-2d" x="417.822266"/>
       <use xlink:href="#DejaVuSans-31" x="453.90625"/>
       <use xlink:href="#DejaVuSans-37" x="517.529297"/>
      </g>
     </g>
    </g>
    <g id="xtick_10">
     <g id="line2d_10">
      <g>
       <use xlink:href="#m032ef37397" x="586.318917" y="288" style="stroke: #000000; stroke-width: 0.8"/>
      </g>
     </g>
     <g id="text_10">
      <!-- 2023-10-21 -->
      <g transform="translate(524.675575 337.765903) rotate(-30) scale(0.12 -0.12)">
       <use xlink:href="#DejaVuSans-32"/>
       <use xlink:href="#DejaVuSans-30" x="63.623047"/>
       <use xlink:href="#DejaVuSans-32" x="127.246094"/>
       <use xlink:href="#DejaVuSans-33" x="190.869141"/>
       <use xlink:href="#DejaVuSans-2d" x="254.492188"/>
       <use xlink:href="#DejaVuSans-31" x="290.576172"/>
       <use xlink:href="#DejaVuSans-30" x="354.199219"/>
       <use xlink:href="#DejaVuSans-2d" x="417.822266"/>
       <use xlink:href="#DejaVuSans-32" x="453.90625"/>
       <use xlink:href="#DejaVuSans-31" x="517.529297"/>
      </g>
     </g>
    </g>
    <g id="xtick_11">
     <g id="line2d_11">
      <g>
       <use xlink:href="#m032ef37397" x="642.552383" y="288" style="stroke: #000000; stroke-width: 0.8"/>
      </g>
     </g>
     <g id="text_11">
      <!-- 2023-10-25 -->
      <g transform="translate(580.909041 337.765903) rotate(-30) scale(0.12 -0.12)">
       <use xlink:href="#DejaVuSans-32"/>
       <use xlink:href="#DejaVuSans-30" x="63.623047"/>
       <use xlink:href="#DejaVuSans-32" x="127.246094"/>
       <use xlink:href="#DejaVuSans-33" x="190.869141"/>
       <use xlink:href="#DejaVuSans-2d" x="254.492188"/>
       <use xlink:href="#DejaVuSans-31" x="290.576172"/>
       <use xlink:href="#DejaVuSans-30" x="354.199219"/>
       <use xlink:href="#DejaVuSans-2d" x="417.822266"/>
       <use xlink:href="#DejaVuSans-32" x="453.90625"/>
       <use xlink:href="#DejaVuSans-35" x="517.529297"/>
      </g>
     </g>
    </g>
   </g>
   <g id="matplotlib.axis_2">
    <g id="ytick_1">
     <g id="line2d_12">
      <defs>
       <path id="m8233a24cbe" d="M 0 0 
L -3.5 0 
" style="stroke: #000000; stroke-width: 0.8"/>
      </defs>
      <g>
       <use xlink:href="#m8233a24cbe" x="90" y="282.392671" style="stroke: #000000; stroke-width: 0.8"/>
      </g>
     </g>
     <g id="text_12">
      <!-- 0.1 -->
      <g transform="translate(63.91625 286.951733) scale(0.12 -0.12)">
       <defs>
        <path id="DejaVuSans-2e" d="M 684 794 
L 1344 794 
L 1344 0 
L 684 0 
L 684 794 
z
" transform="scale(0.015625)"/>
       </defs>
       <use xlink:href="#DejaVuSans-30"/>
       <use xlink:href="#DejaVuSans-2e" x="63.623047"/>
       <use xlink:href="#DejaVuSans-31" x="95.410156"/>
      </g>
     </g>
    </g>
    <g id="ytick_2">
     <g id="line2d_13">
      <g>
       <use xlink:href="#m8233a24cbe" x="90" y="229.342114" style="stroke: #000000; stroke-width: 0.8"/>
      </g>
     </g>
     <g id="text_13">
      <!-- 0.2 -->
      <g transform="translate(63.91625 233.901176) scale(0.12 -0.12)">
       <use xlink:href="#DejaVuSans-30"/>
       <use xlink:href="#DejaVuSans-2e" x="63.623047"/>
       <use xlink:href="#DejaVuSans-32" x="95.410156"/>
      </g>
     </g>
    </g>
    <g id="ytick_3">
     <g id="line2d_14">
      <g>
       <use xlink:href="#m8233a24cbe" x="90" y="176.291557" style="stroke: #000000; stroke-width: 0.8"/>
      </g>
     </g>
     <g id="text_14">
      <!-- 0.3 -->
      <g transform="translate(63.91625 180.850619) scale(0.12 -0.12)">
       <use xlink:href="#DejaVuSans-30"/>
       <use xlink:href="#DejaVuSans-2e" x="63.623047"/>
       <use xlink:href="#DejaVuSans-33" x="95.410156"/>
      </g>
     </g>
    </g>
    <g id="ytick_4">
     <g id="line2d_15">
      <g>
       <use xlink:href="#m8233a24cbe" x="90" y="123.241" style="stroke: #000000; stroke-width: 0.8"/>
      </g>
     </g>
     <g id="text_15">
      <!-- 0.4 -->
      <g transform="translate(63.91625 127.800062) scale(0.12 -0.12)">
       <defs>
        <path id="DejaVuSans-34" d="M 2419 4116 
L 825 1625 
L 2419 1625 
L 2419 4116 
z
M 2253 4666 
L 3047 4666 
L 3047 1625 
L 3713 1625 
L 3713 1100 
L 3047 1100 
L 3047 0 
L 2419 0 
L 2419 1100 
L 313 1100 
L 313 1709 
L 2253 4666 
z
" transform="scale(0.015625)"/>
       </defs>
       <use xlink:href="#DejaVuSans-30"/>
       <use xlink:href="#DejaVuSans-2e" x="63.623047"/>
       <use xlink:href="#DejaVuSans-34" x="95.410156"/>
      </g>
     </g>
    </g>
    <g id="ytick_5">
     <g id="line2d_16">
      <g>
       <use xlink:href="#m8233a24cbe" x="90" y="70.190443" style="stroke: #000000; stroke-width: 0.8"/>
      </g>
     </g>
     <g id="text_16">
      <!-- 0.5 -->
      <g transform="translate(63.91625 74.749505) scale(0.12 -0.12)">
       <use xlink:href="#DejaVuSans-30"/>
       <use xlink:href="#DejaVuSans-2e" x="63.623047"/>
       <use xlink:href="#DejaVuSans-35" x="95.410156"/>
      </g>
     </g>
    </g>
    <g id="text_17">
     <!-- Meters -->
     <g transform="translate(57.836562 182.6875) rotate(-90) scale(0.1 -0.1)">
      <defs>
       <path id="DejaVuSans-4d" d="M 628 4666 
L 1569 4666 
L 2759 1491 
L 3956 4666 
L 4897 4666 
L 4897 0 
L 4281 0 
L 4281 4097 
L 3078 897 
L 2444 897 
L 1241 4097 
L 1241 0 
L 628 0 
L 628 4666 
z
" transform="scale(0.015625)"/>
       <path id="DejaVuSans-65" d="M 3597 1894 
L 3597 1613 
L 953 1613 
Q 991 1019 1311 708 
Q 1631 397 2203 397 
Q 2534 397 2845 478 
Q 3156 559 3463 722 
L 3463 178 
Q 3153 47 2828 -22 
Q 2503 -91 2169 -91 
Q 1331 -91 842 396 
Q 353 884 353 1716 
Q 353 2575 817 3079 
Q 1281 3584 2069 3584 
Q 2775 3584 3186 3129 
Q 3597 2675 3597 1894 
z
M 3022 2063 
Q 3016 2534 2758 2815 
Q 2500 3097 2075 3097 
Q 1594 3097 1305 2825 
Q 1016 2553 972 2059 
L 3022 2063 
z
" transform="scale(0.015625)"/>
       <path id="DejaVuSans-74" d="M 1172 4494 
L 1172 3500 
L 2356 3500 
L 2356 3053 
L 1172 3053 
L 1172 1153 
Q 1172 725 1289 603 
Q 1406 481 1766 481 
L 2356 481 
L 2356 0 
L 1766 0 
Q 1100 0 847 248 
Q 594 497 594 1153 
L 594 3053 
L 172 3053 
L 172 3500 
L 594 3500 
L 594 4494 
L 1172 4494 
z
" transform="scale(0.015625)"/>
       <path id="DejaVuSans-72" d="M 2631 2963 
Q 2534 3019 2420 3045 
Q 2306 3072 2169 3072 
Q 1681 3072 1420 2755 
Q 1159 2438 1159 1844 
L 1159 0 
L 581 0 
L 581 3500 
L 1159 3500 
L 1159 2956 
Q 1341 3275 1631 3429 
Q 1922 3584 2338 3584 
Q 2397 3584 2469 3576 
Q 2541 3569 2628 3553 
L 2631 2963 
z
" transform="scale(0.015625)"/>
       <path id="DejaVuSans-73" d="M 2834 3397 
L 2834 2853 
Q 2591 2978 2328 3040 
Q 2066 3103 1784 3103 
Q 1356 3103 1142 2972 
Q 928 2841 928 2578 
Q 928 2378 1081 2264 
Q 1234 2150 1697 2047 
L 1894 2003 
Q 2506 1872 2764 1633 
Q 3022 1394 3022 966 
Q 3022 478 2636 193 
Q 2250 -91 1575 -91 
Q 1294 -91 989 -36 
Q 684 19 347 128 
L 347 722 
Q 666 556 975 473 
Q 1284 391 1588 391 
Q 1994 391 2212 530 
Q 2431 669 2431 922 
Q 2431 1156 2273 1281 
Q 2116 1406 1581 1522 
L 1381 1569 
Q 847 1681 609 1914 
Q 372 2147 372 2553 
Q 372 3047 722 3315 
Q 1072 3584 1716 3584 
Q 2034 3584 2315 3537 
Q 2597 3491 2834 3397 
z
" transform="scale(0.015625)"/>
      </defs>
      <use xlink:href="#DejaVuSans-4d"/>
      <use xlink:href="#DejaVuSans-65" x="86.279297"/>
      <use xlink:href="#DejaVuSans-74" x="147.802734"/>
      <use xlink:href="#DejaVuSans-65" x="187.011719"/>
      <use xlink:href="#DejaVuSans-72" x="248.535156"/>
      <use xlink:href="#DejaVuSans-73" x="289.648438"/>
     </g>
    </g>
   </g>
   <g id="line2d_17">
    <path d="M 115.363636 247.790785 
L 115.949402 247.5256 
L 116.535167 248.497945 
L 117.120932 248.40955 
L 117.706697 250.265844 
L 118.292463 254.508802 
L 118.878228 254.950777 
L 119.463993 254.420407 
L 120.049759 255.746332 
L 120.635524 253.182878 
L 121.221289 253.890038 
L 121.807054 256.718676 
L 122.39282 254.420407 
L 122.978585 254.862382 
L 123.56435 256.011517 
L 124.150115 256.630281 
L 124.735881 255.215962 
L 125.321646 255.481147 
L 125.907411 254.420407 
L 126.493177 253.801643 
L 127.664707 257.425836 
L 128.250472 257.337441 
L 129.422003 250.619424 
L 130.007768 253.801643 
L 130.593533 255.834727 
L 131.179299 254.508802 
L 131.765064 257.072256 
L 132.350829 255.834727 
L 132.936595 255.569542 
L 133.52236 258.132996 
L 134.108125 256.099912 
L 134.69389 255.392752 
L 135.279656 255.657937 
L 135.865421 261.226819 
L 136.451186 260.873239 
L 137.036952 259.45892 
L 137.622717 256.895466 
L 138.208482 258.221391 
L 138.794247 259.10534 
L 139.380013 259.016945 
L 139.965778 259.98929 
L 140.551543 258.486576 
L 141.137308 258.221391 
L 141.723074 260.077685 
L 142.308839 258.309786 
L 142.894604 254.773987 
L 143.48037 253.978433 
L 144.066135 261.580399 
L 144.6519 265.734962 
L 145.237665 273.778904 
L 145.823431 275.723593 
L 146.409196 270.50829 
L 148.166492 259.10534 
L 148.752257 254.685592 
L 149.923788 262.287559 
L 150.509553 259.900895 
L 151.095318 258.309786 
L 151.681083 256.276702 
L 152.266849 256.807071 
L 152.852614 254.597197 
L 153.438379 250.354239 
L 154.024144 251.414979 
L 154.60991 247.260416 
L 155.195675 250.796214 
L 155.78144 247.437206 
L 156.367206 248.58634 
L 156.952971 247.70239 
L 157.538736 246.288071 
L 158.124501 247.172021 
L 158.710267 246.906836 
L 159.296032 246.199676 
L 159.881797 247.437206 
L 160.467562 255.657937 
L 161.053328 259.547315 
L 161.639093 255.481147 
L 162.224858 256.895466 
L 162.810624 253.006088 
L 163.396389 254.066828 
L 163.982154 262.199164 
L 164.567919 259.28213 
L 165.73945 255.657937 
L 166.325215 254.950777 
L 166.91098 255.481147 
L 167.496746 254.597197 
L 168.082511 252.564113 
L 168.668276 254.862382 
L 169.254042 253.713248 
L 169.839807 256.983861 
L 170.425572 255.746332 
L 171.011337 257.337441 
L 171.597103 250.354239 
L 172.182868 253.006088 
L 172.768633 260.979313 
L 173.354398 262.552744 
L 174.525929 276.872727 
L 175.111694 273.602114 
L 175.69746 268.917181 
L 176.283225 265.204593 
L 176.86899 263.790273 
L 177.454755 263.613483 
L 178.040521 260.077685 
L 180.383582 254.243617 
L 180.969347 254.950777 
L 182.140878 255.834727 
L 182.726643 256.011517 
L 183.312408 254.420407 
L 183.898173 255.392752 
L 184.483939 253.890038 
L 185.069704 254.243617 
L 185.655469 250.884609 
L 186.241235 251.856954 
L 186.827 254.597197 
L 187.412765 263.701878 
L 187.99853 270.243105 
L 188.584296 267.502861 
L 189.755826 254.508802 
L 190.341591 255.127567 
L 190.927357 254.773987 
L 191.513122 254.066828 
L 192.098887 254.508802 
L 192.684653 255.834727 
L 193.270418 259.370525 
L 193.856183 258.221391 
L 194.441948 258.398181 
L 195.027714 259.8125 
L 195.613479 256.453491 
L 196.199244 261.845584 
L 196.785009 264.851013 
L 197.370775 261.668794 
L 198.542305 258.663365 
L 199.128071 258.75176 
L 199.713836 254.066828 
L 200.299601 256.365097 
L 200.885366 265.116198 
L 201.471132 267.326072 
L 202.056897 266.530517 
L 202.642662 266.884097 
L 203.228427 262.287559 
L 203.814193 256.365097 
L 204.399958 255.127567 
L 205.571489 255.657937 
L 206.157254 267.414467 
L 206.743019 267.060887 
L 207.328784 262.110769 
L 207.91455 263.171508 
L 208.500315 260.34287 
L 209.08608 263.967063 
L 209.671845 265.469777 
L 210.257611 265.646567 
L 210.843376 266.618912 
L 211.429141 264.674223 
L 212.014907 265.027803 
L 212.600672 264.585828 
L 213.772202 259.45892 
L 214.357968 262.110769 
L 214.943733 266.265332 
L 216.115263 270.50829 
L 217.286794 263.348298 
L 217.872559 253.890038 
L 218.458325 255.039172 
L 219.04409 255.039172 
L 219.629855 256.718676 
L 220.21562 262.641139 
L 220.801386 264.143853 
L 221.387151 259.10534 
L 221.972916 255.304357 
L 222.558682 255.127567 
L 223.144447 255.215962 
L 223.730212 256.276702 
L 224.315977 255.304357 
L 224.901743 255.746332 
L 225.487508 255.481147 
L 226.073273 256.983861 
L 226.659038 257.249046 
L 227.244804 252.564113 
L 228.416334 249.47029 
L 229.0021 252.917693 
L 229.587865 252.298928 
L 230.17363 255.127567 
L 230.759395 255.392752 
L 231.345161 258.433539 
L 231.930926 256.807071 
L 232.516691 252.033743 
L 233.102456 252.387323 
L 234.273987 256.011517 
L 234.859752 255.215962 
L 235.445518 255.481147 
L 236.031283 253.713248 
L 236.617048 253.006088 
L 237.202813 254.066828 
L 237.788579 251.503374 
L 238.374344 251.768559 
L 238.960109 252.829298 
L 239.545874 249.558685 
L 240.13164 252.652508 
L 241.30317 246.288071 
L 241.888936 245.404121 
L 242.474701 245.846096 
L 243.060466 246.111281 
L 243.646231 249.64708 
L 244.231997 251.856954 
L 244.817762 250.000659 
L 245.403527 249.2935 
L 245.989292 247.790785 
L 246.575058 249.823869 
L 247.160823 250.973004 
L 247.746588 250.442634 
L 248.332354 249.205105 
L 248.918119 248.58634 
L 249.503884 248.76313 
L 250.089649 250.442634 
L 250.675415 250.177449 
L 251.26118 247.967575 
L 251.846945 250.000659 
L 253.018476 249.205105 
L 253.604241 249.381895 
L 254.190006 247.87918 
L 254.775772 249.11671 
L 255.361537 246.464861 
L 255.947302 246.199676 
L 256.533067 245.404121 
L 257.118833 248.40955 
L 257.704598 248.144365 
L 258.290363 248.851525 
L 259.461894 249.558685 
L 260.047659 248.05597 
L 261.21919 248.497945 
L 261.804955 249.028315 
L 262.39072 246.818441 
L 262.976485 247.083626 
L 263.562251 250.796214 
L 264.148016 243.547827 
L 264.733781 239.039684 
L 265.319547 230.376978 
L 265.905312 214.55428 
L 266.491077 187.770607 
L 267.076842 176.544447 
L 267.662608 176.190868 
L 268.248373 181.22938 
L 268.834138 174.864943 
L 269.419903 162.931624 
L 270.005669 164.080758 
L 270.591434 172.566674 
L 271.177199 184.853574 
L 272.34873 197.052078 
L 274.106026 209.604163 
L 275.277556 214.289095 
L 275.863321 217.029339 
L 276.449087 218.443659 
L 277.034852 219.416003 
L 277.620617 221.537482 
L 278.206383 221.802667 
L 278.792148 222.333037 
L 279.963678 225.692045 
L 280.549444 226.929575 
L 281.135209 227.901919 
L 281.720974 229.581424 
L 282.306739 230.376978 
L 282.892505 230.200188 
L 283.47827 230.642163 
L 284.064035 231.968087 
L 284.649801 239.658449 
L 285.235566 237.18339 
L 285.821331 242.840668 
L 286.407096 241.514743 
L 286.992862 243.989802 
L 287.578627 241.691533 
L 288.164392 240.807584 
L 288.750157 239.658449 
L 289.335923 243.105852 
L 289.921688 241.868323 
L 290.507453 241.956718 
L 291.093219 241.603138 
L 291.678984 241.691533 
L 292.850514 250.089054 
L 293.43628 249.381895 
L 294.022045 249.028315 
L 294.60781 249.028315 
L 295.193575 250.442634 
L 295.779341 249.823869 
L 296.365106 251.503374 
L 296.950871 252.210533 
L 298.122402 247.348811 
L 298.708167 246.641651 
L 300.465463 262.994719 
L 301.051228 263.790273 
L 301.636993 254.685592 
L 302.222759 251.856954 
L 302.808524 250.973004 
L 303.394289 254.950777 
L 303.980055 253.448063 
L 304.56582 257.602626 
L 305.151585 254.420407 
L 305.73735 253.359668 
L 306.323116 251.768559 
L 306.908881 251.945349 
L 307.494646 251.591769 
L 308.080412 251.856954 
L 308.666177 250.000659 
L 309.251942 247.260416 
L 309.837707 248.321155 
L 310.423473 247.967575 
L 311.009238 250.177449 
L 311.595003 252.917693 
L 312.180768 251.149794 
L 312.766534 252.387323 
L 313.352299 248.58634 
L 313.938064 252.475718 
L 314.52383 250.354239 
L 315.109595 267.237677 
L 315.69536 260.254475 
L 316.281125 256.453491 
L 316.866891 257.249046 
L 317.452656 256.807071 
L 318.038421 256.011517 
L 318.624186 256.983861 
L 320.381482 253.890038 
L 320.967248 254.420407 
L 321.553013 253.801643 
L 322.138778 253.536458 
L 322.724543 253.006088 
L 323.310309 253.801643 
L 324.481839 254.243617 
L 325.067604 254.685592 
L 325.65337 253.801643 
L 326.239135 252.652508 
L 326.8249 254.243617 
L 327.410666 259.193735 
L 328.582196 272.187794 
L 329.167961 265.646567 
L 329.753727 265.116198 
L 330.339492 254.773987 
L 330.925257 261.757189 
L 331.511022 261.668794 
L 332.096788 260.431265 
L 332.682553 261.845584 
L 333.268318 260.254475 
L 333.854084 257.425836 
L 334.439849 256.365097 
L 335.025614 256.983861 
L 335.611379 256.011517 
L 337.368675 255.215962 
L 337.95444 255.923122 
L 339.125971 256.276702 
L 339.711736 253.713248 
L 340.297502 254.597197 
L 340.883267 256.276702 
L 341.469032 258.574971 
L 342.054797 266.000147 
L 342.640563 269.535946 
L 343.226328 269.535946 
L 344.397858 259.10534 
L 344.983624 256.630281 
L 345.569389 261.315214 
L 346.155154 262.110769 
L 346.74092 263.701878 
L 347.326685 261.226819 
L 347.91245 258.132996 
L 348.498215 257.160651 
L 349.083981 254.420407 
L 349.669746 258.840155 
L 350.255511 256.099912 
L 350.841277 254.950777 
L 351.427042 253.094483 
L 352.012807 253.359668 
L 352.598572 254.950777 
L 353.184338 255.304357 
L 353.770103 254.950777 
L 354.355868 250.796214 
L 354.941633 255.923122 
L 356.113164 261.580399 
L 356.698929 259.10534 
L 357.284695 256.011517 
L 357.87046 258.75176 
L 359.627756 254.773987 
L 360.213521 260.69645 
L 360.799286 265.469777 
L 361.385051 261.138424 
L 361.970817 254.862382 
L 362.556582 255.215962 
L 363.142347 257.867811 
L 363.728113 257.337441 
L 364.313878 258.840155 
L 364.899643 258.398181 
L 365.485408 260.873239 
L 366.071174 256.807071 
L 366.656939 254.420407 
L 367.242704 250.884609 
L 367.828469 249.558685 
L 368.414235 246.995231 
L 369 240.807584 
L 369.585765 242.310298 
L 370.171531 240.895978 
L 370.757296 236.564625 
L 371.343061 235.061911 
L 371.928826 234.001172 
L 372.514592 228.874264 
L 373.686122 206.421944 
L 374.857653 195.460969 
L 375.443418 186.533078 
L 376.029183 170.091615 
L 376.614949 164.964708 
L 377.200714 169.296061 
L 377.786479 169.119271 
L 378.372244 161.694094 
L 378.95801 158.600271 
L 379.543775 166.379027 
L 380.12954 177.870372 
L 380.715305 191.836776 
L 382.472601 211.372062 
L 383.058367 221.891062 
L 383.644132 229.669819 
L 384.229897 232.410062 
L 384.815662 234.354751 
L 385.401428 231.260928 
L 385.987193 233.382407 
L 386.572958 227.813524 
L 387.158723 229.581424 
L 387.744489 233.028827 
L 388.330254 234.619936 
L 388.916019 237.71376 
L 389.501785 238.155735 
L 390.08755 233.559197 
L 390.673315 234.885121 
L 391.25908 237.53697 
L 391.844846 235.415491 
L 392.430611 233.824382 
L 393.016376 230.730558 
L 393.602142 224.808096 
L 394.187907 224.542911 
L 394.773672 227.19476 
L 395.359437 221.714272 
L 395.945203 220.653533 
L 396.530968 219.946373 
L 397.116733 224.631306 
L 397.702498 221.537482 
L 398.288264 221.537482 
L 398.874029 222.951802 
L 399.459794 222.156247 
L 400.04556 219.062423 
L 400.631325 223.040197 
L 401.21709 221.714272 
L 401.802855 225.161676 
L 402.388621 230.553768 
L 402.974386 230.642163 
L 420.547344 250.089054 
L 421.133109 249.64708 
L 421.718875 250.619424 
L 422.30464 249.64708 
L 422.890405 246.730046 
L 423.47617 247.5256 
L 424.061936 246.995231 
L 424.647701 248.05597 
L 425.233466 255.481147 
L 425.819232 252.564113 
L 426.404997 246.995231 
L 427.576527 254.420407 
L 428.162293 253.624853 
L 428.748058 249.64708 
L 429.333823 247.613995 
L 429.919588 247.967575 
L 430.505354 247.172021 
L 431.091119 247.5256 
L 431.676884 247.5256 
L 432.26265 247.70239 
L 432.848415 250.796214 
L 433.43418 250.265844 
L 434.019945 249.47029 
L 435.191476 248.497945 
L 435.777241 250.265844 
L 436.948772 248.40955 
L 437.534537 247.967575 
L 438.120302 248.144365 
L 438.706068 247.87918 
L 439.291833 248.497945 
L 439.877598 249.381895 
L 440.463363 251.238189 
L 441.049129 251.414979 
L 441.634894 251.238189 
L 442.220659 249.823869 
L 442.806425 251.326584 
L 443.39219 250.354239 
L 443.977955 247.87918 
L 445.149486 247.348811 
L 445.735251 247.260416 
L 446.321016 246.111281 
L 446.906781 247.613995 
L 447.492547 248.321155 
L 448.664077 252.210533 
L 449.249843 249.205105 
L 450.421373 246.022886 
L 451.007138 246.022886 
L 451.592904 245.404121 
L 452.178669 246.376466 
L 452.764434 244.962147 
L 453.350199 245.757701 
L 453.935965 248.76313 
L 454.52173 248.674735 
L 455.693261 250.619424 
L 456.279026 250.265844 
L 456.864791 249.558685 
L 457.450556 249.205105 
L 458.036322 249.028315 
L 458.622087 248.321155 
L 459.207852 249.205105 
L 460.379383 246.818441 
L 460.965148 246.818441 
L 462.136679 248.93992 
L 462.722444 254.066828 
L 463.308209 255.834727 
L 463.893974 256.099912 
L 464.47974 253.182878 
L 465.065505 253.094483 
L 465.65127 252.387323 
L 466.237035 256.188307 
L 466.822801 253.006088 
L 467.408566 251.945349 
L 467.994331 262.994719 
L 468.580097 269.359156 
L 469.165862 269.182366 
L 469.751627 269.535946 
L 470.337392 264.585828 
L 470.923158 255.746332 
L 471.508923 254.066828 
L 472.094688 251.149794 
L 473.266219 252.033743 
L 473.851984 251.061399 
L 474.437749 250.796214 
L 475.023515 252.475718 
L 475.60928 255.127567 
L 476.195045 254.332012 
L 476.78081 250.707819 
L 477.366576 250.707819 
L 477.952341 248.93992 
L 478.538106 247.613995 
L 479.123872 247.348811 
L 479.709637 248.93992 
L 480.295402 247.083626 
L 480.881167 244.696962 
L 481.466933 245.138937 
L 482.052698 246.199676 
L 482.638463 246.730046 
L 483.224228 247.967575 
L 483.809994 248.05597 
L 484.395759 246.818441 
L 484.981524 246.111281 
L 485.56729 245.669306 
L 486.153055 246.199676 
L 486.73882 246.199676 
L 487.324585 245.050542 
L 487.910351 245.934491 
L 488.496116 241.868323 
L 489.081881 241.072768 
L 489.667646 239.746844 
L 490.839177 231.437718 
L 492.010708 216.940944 
L 492.596473 214.37749 
L 493.182238 209.604163 
L 493.768003 209.250583 
L 494.353769 207.924658 
L 494.939534 194.577019 
L 495.525299 176.721237 
L 496.111064 170.975565 
L 496.69683 171.77112 
L 497.282595 175.572103 
L 498.454126 188.035792 
L 499.039891 193.69307 
L 500.211421 199.792322 
L 500.797187 202.178986 
L 501.382952 200.941456 
L 501.968717 195.726154 
L 502.554482 196.256524 
L 503.140248 201.383431 
L 503.726013 202.444171 
L 504.311778 207.659473 
L 504.897544 211.725642 
L 505.483309 214.465885 
L 506.069074 214.465885 
L 506.654839 215.26144 
L 507.82637 221.183902 
L 508.412135 225.161676 
L 508.9979 223.924146 
L 509.583666 225.161676 
L 510.169431 234.708331 
L 510.755196 228.255499 
L 511.340962 227.19476 
L 511.926727 228.078709 
L 513.098257 228.962659 
L 513.684023 231.172533 
L 514.269788 231.526113 
L 515.441318 230.023398 
L 516.027084 229.493029 
L 516.612849 230.465373 
L 517.198614 229.316239 
L 517.78438 228.697474 
L 518.370145 226.752785 
L 519.541675 219.592793 
L 520.127441 216.852549 
L 520.713206 212.167616 
L 521.298971 209.338978 
L 521.884737 208.808608 
L 522.470502 210.399717 
L 523.056267 212.432801 
L 523.642032 213.139961 
L 524.227798 214.465885 
L 524.813563 213.316751 
L 525.399328 213.316751 
L 526.570859 216.764154 
L 527.156624 221.449087 
L 527.742389 221.891062 
L 528.91392 225.60365 
L 529.499685 228.697474 
L 530.08545 235.592281 
L 530.671216 236.564625 
L 531.256981 229.316239 
L 531.842746 226.752785 
L 532.428511 226.31081 
L 533.014277 228.785869 
L 533.600042 228.343894 
L 534.185807 228.255499 
L 534.771573 228.697474 
L 535.357338 226.399205 
L 535.943103 227.37155 
L 536.528868 227.813524 
L 537.114634 227.901919 
L 537.700399 228.520684 
L 538.286164 229.493029 
L 538.871929 230.200188 
L 539.457695 230.730558 
L 540.04346 231.526113 
L 540.629225 231.791298 
L 541.214991 231.791298 
L 541.800756 232.763642 
L 542.386521 231.614508 
L 542.972286 239.216474 
L 543.558052 239.039684 
L 544.143817 228.343894 
L 544.729582 229.669819 
L 545.315347 232.233272 
L 545.901113 241.779928 
L 547.072643 236.918205 
L 547.658409 231.791298 
L 548.244174 229.404634 
L 548.829939 229.758213 
L 549.415704 234.266356 
L 550.00147 237.36018 
L 550.587235 235.945861 
L 551.173 232.586852 
L 551.758765 235.150306 
L 552.344531 244.608567 
L 552.930296 248.58634 
L 553.516061 250.796214 
L 554.101827 250.177449 
L 554.687592 244.431777 
L 555.273357 243.724617 
L 555.859122 242.133508 
L 556.444888 239.570054 
L 557.030653 244.696962 
L 557.616418 246.022886 
L 558.787949 240.719189 
L 559.373714 239.304869 
L 559.959479 243.724617 
L 560.545245 239.658449 
L 561.13101 237.625365 
L 561.716775 237.89055 
L 562.30254 237.89055 
L 562.888306 236.65302 
L 563.474071 238.06734 
L 564.059836 237.802155 
L 564.645602 238.06734 
L 565.817132 239.128079 
L 566.402897 239.481659 
L 566.988663 240.807584 
L 567.574428 239.039684 
L 568.160193 240.012029 
L 568.745958 241.603138 
L 569.331724 238.951289 
L 569.917489 237.978945 
L 570.503254 237.71376 
L 571.08902 235.592281 
L 572.26055 233.470802 
L 572.846315 228.874264 
L 573.432081 218.001684 
L 574.017846 201.206641 
L 575.775142 133.319312 
L 576.946672 107.596379 
L 577.532438 90.978126 
L 578.118203 78.514437 
L 578.703968 78.691227 
L 580.461264 109.010698 
L 581.047029 110.866992 
L 581.632794 108.657118 
L 582.21856 106.889219 
L 582.804325 107.596379 
L 583.39009 107.331194 
L 583.975856 103.176631 
L 584.561621 105.12132 
L 585.147386 112.723286 
L 585.733151 117.054639 
L 586.318917 116.34748 
L 586.904682 114.844765 
L 587.490447 114.137606 
L 588.076212 118.026984 
L 588.661978 119.529698 
L 589.833508 119.794883 
L 590.419274 121.297597 
L 592.176569 129.518329 
L 592.762335 131.021043 
L 593.3481 135.440791 
L 594.51963 141.540043 
L 595.105396 145.341027 
L 595.691161 147.639295 
L 596.276926 151.440279 
L 596.862692 157.716321 
L 597.448457 156.920766 
L 598.034222 157.185951 
L 599.205753 164.699523 
L 599.791518 167.528162 
L 600.377283 169.296061 
L 600.963048 169.82643 
L 601.548814 172.831859 
L 602.720344 176.898027 
L 603.30611 182.11333 
L 603.891875 183.792834 
L 605.063405 193.86986 
L 605.649171 192.543935 
L 606.234936 193.427885 
L 606.820701 193.86986 
L 607.406467 189.538507 
L 608.577997 194.577019 
L 609.163762 201.118246 
L 609.749528 214.642675 
L 610.335293 219.681188 
L 610.921058 210.399717 
L 611.506823 203.593305 
L 612.092589 203.416515 
L 612.678354 204.74244 
L 613.264119 213.847121 
L 613.849885 220.653533 
L 614.43565 219.946373 
L 615.021415 217.824894 
L 615.60718 218.355264 
L 616.192946 217.471314 
L 616.778711 221.360692 
L 617.364476 219.504398 
L 617.950241 220.299953 
L 618.536007 222.951802 
L 619.121772 217.913289 
L 619.707537 221.007112 
L 620.293303 221.537482 
L 620.879068 219.062423 
L 621.464833 217.648104 
L 622.636364 230.642163 
L 622.636364 230.642163 
" clip-path="url(#p5f4a4ebf3f)" style="fill: none; stroke: #1f77b4; stroke-width: 1.5; stroke-linecap: square"/>
   </g>
   <g id="line2d_18">
    <path d="M 115.363636 249.417253 
L 115.949402 249.407552 
L 116.535167 249.792323 
L 117.120932 249.350873 
L 118.878228 257.202472 
L 119.463993 254.807172 
L 120.635524 236.733065 
L 121.221289 230.959209 
L 121.807054 227.640287 
L 122.39282 225.846288 
L 122.978585 224.977891 
L 123.56435 224.668874 
L 124.150115 224.694808 
L 125.321646 225.262129 
L 127.078942 226.588054 
L 128.836238 228.026126 
L 129.422003 256.842429 
L 137.622717 257.961267 
L 142.894604 258.571707 
L 144.066135 258.629345 
L 154.024144 259.577245 
L 156.952971 259.815129 
L 157.538736 247.428366 
L 158.124501 246.075662 
L 158.710267 245.366415 
L 159.296032 245.043107 
L 159.881797 244.951591 
L 161.053328 245.126318 
L 162.810624 245.723837 
L 171.011337 248.792566 
L 171.597103 256.842429 
L 181.555112 258.166411 
L 187.412765 258.81283 
L 187.99853 253.748606 
L 194.441948 255.091517 
L 199.713836 256.045351 
L 200.299601 257.814774 
L 209.08608 258.81902 
L 219.04409 259.726188 
L 227.244804 260.324907 
L 227.830569 256.13527 
L 234.273987 257.100907 
L 235.445518 257.802024 
L 236.031283 257.859438 
L 236.617048 257.761097 
L 237.202813 257.525835 
L 238.374344 257.427321 
L 240.717405 257.614982 
L 241.30317 257.674289 
L 241.888936 251.008362 
L 244.817762 251.796075 
L 245.989292 252.644765 
L 246.575058 252.774475 
L 247.160823 252.747424 
L 247.746588 252.582427 
L 248.918119 252.621467 
L 251.26118 253.070923 
L 257.704598 254.494032 
L 258.290363 246.235034 
L 261.21919 247.378953 
L 261.804955 247.295774 
L 267.076842 249.174362 
L 269.419903 249.936517 
L 270.005669 180.469184 
L 273.52026 186.794204 
L 277.034852 192.668279 
L 280.549444 198.118538 
L 284.064035 203.171239 
L 287.578627 207.851671 
L 291.093219 212.184081 
L 294.60781 216.191622 
L 296.950871 218.693761 
L 297.536637 253.978433 
L 304.56582 255.397635 
L 311.595003 256.595637 
L 312.180768 249.205105 
L 318.038421 251.029464 
L 323.896074 252.615394 
L 325.65337 253.049355 
L 326.239135 256.630281 
L 334.439849 257.78734 
L 339.711736 258.418637 
L 340.297502 256.630281 
L 348.498215 257.78734 
L 353.770103 258.418637 
L 354.355868 250.796214 
L 360.213521 252.412667 
L 366.071174 253.793859 
L 366.656939 254.265624 
L 367.242704 256.147709 
L 367.828469 259.074056 
L 368.414235 250.796214 
L 369 251.852131 
L 369.585765 242.554917 
L 371.343061 199.270309 
L 372.514592 166.236545 
L 374.271887 121.214715 
L 376.614949 80.692493 
L 377.200714 70.097311 
L 377.786479 61.617117 
L 378.372244 56.654228 
L 378.95801 54.625501 
L 379.543775 54.327273 
L 380.12954 55.104771 
L 380.715305 56.521278 
L 381.886836 60.334163 
L 382.472601 196.168129 
L 384.815662 199.401909 
L 388.916019 205.112044 
L 392.430611 209.647457 
L 395.945203 213.845315 
L 396.530968 215.79181 
L 397.116733 214.234553 
L 397.702498 213.569341 
L 398.288264 213.441555 
L 398.874029 213.627869 
L 400.04556 214.447803 
L 400.631325 215.489232 
L 401.21709 216.976653 
L 401.802855 218.784461 
L 402.388621 219.742252 
L 402.974386 219.310146 
L 421.718875 231.668258 
L 425.819232 234.581988 
L 429.919588 237.231568 
L 434.019945 239.639777 
L 438.120302 241.827637 
L 438.706068 250.796214 
L 444.56372 252.412667 
L 451.007138 253.947257 
L 451.592904 254.075343 
L 452.178669 247.083626 
L 455.107495 248.072078 
L 456.279026 248.462037 
L 456.864791 248.890955 
L 457.450556 249.756274 
L 458.036322 251.167252 
L 458.622087 251.88254 
L 459.207852 251.337276 
L 460.379383 249.072416 
L 460.965148 248.547717 
L 461.550913 248.295393 
L 462.722444 248.27877 
L 464.47974 248.703309 
L 466.237035 249.257468 
L 466.822801 252.387323 
L 473.851984 254.047907 
L 479.123872 255.110534 
L 479.709637 255.529357 
L 480.295402 257.412276 
L 480.881167 248.144365 
L 481.466933 248.465421 
L 482.052698 246.967503 
L 482.638463 244.818972 
L 483.224228 244.174054 
L 483.809994 244.076578 
L 484.981524 243.397507 
L 485.56729 242.863386 
L 486.153055 242.730618 
L 486.73882 242.71683 
L 487.324585 243.172787 
L 487.910351 244.998626 
L 488.496116 246.265458 
L 489.081881 246.791292 
L 489.667646 247.974219 
L 490.839177 251.43816 
L 491.424942 251.417752 
L 492.010708 247.635949 
L 493.768003 222.410287 
L 494.353769 218.385622 
L 494.939534 209.427373 
L 495.525299 203.571558 
L 496.111064 199.376629 
L 497.282595 193.961469 
L 499.039891 182.566526 
L 499.625656 180.02322 
L 500.211421 178.627735 
L 500.797187 178.045556 
L 501.382952 178.168474 
L 501.968717 178.677424 
L 503.140248 180.304293 
L 505.483309 184.301695 
L 508.412135 189.338234 
L 508.9979 221.095507 
L 512.512492 222.853421 
L 513.098257 222.600186 
L 513.684023 221.884006 
L 514.855553 221.922588 
L 516.027084 221.099102 
L 516.612849 221.10718 
L 517.78438 220.575416 
L 518.370145 220.889345 
L 520.127441 220.923122 
L 521.298971 221.318309 
L 522.470502 221.829442 
L 523.056267 208.366633 
L 527.156624 213.315249 
L 530.671216 217.236726 
L 534.185807 220.86205 
L 536.528868 223.124172 
L 537.114634 229.581424 
L 541.214991 232.683512 
L 545.315347 235.505355 
L 549.415704 238.070944 
L 550.587235 238.76005 
L 551.173 235.945861 
L 555.273357 238.471333 
L 559.959479 241.076491 
L 562.888306 242.523816 
L 563.474071 243.228628 
L 564.059836 244.903788 
L 564.645602 247.751471 
L 565.231367 238.59771 
L 565.817132 239.058721 
L 566.402897 236.950203 
L 567.574428 230.396935 
L 568.160193 227.878234 
L 568.745958 226.031111 
L 569.331724 225.020806 
L 569.917489 224.491009 
L 570.503254 225.426351 
L 571.674785 230.706845 
L 572.26055 231.959224 
L 572.846315 230.357417 
L 574.017846 223.739503 
L 574.603611 221.356281 
L 575.189376 220.2649 
L 575.775142 219.817786 
L 576.360907 219.794627 
L 576.946672 220.014088 
L 578.118203 220.828397 
L 578.703968 221.325138 
L 579.289733 81.60826 
L 581.047029 88.198745 
L 582.21856 93.131062 
L 583.975856 98.803731 
L 585.147386 107.85115 
L 585.733151 109.120476 
L 586.318917 106.084496 
L 586.904682 100.819021 
L 587.490447 98.404923 
L 588.076212 97.441522 
L 588.661978 97.710586 
L 589.247743 98.649282 
L 590.419274 101.5989 
L 592.762335 108.834979 
L 593.3481 126.15932 
L 598.034222 133.19241 
L 598.619987 132.892113 
L 599.205753 131.648577 
L 599.791518 132.291198 
L 600.377283 130.909271 
L 600.963048 128.503869 
L 601.548814 128.55169 
L 602.134579 127.802404 
L 602.720344 126.832808 
L 603.30611 126.824872 
L 603.891875 127.175424 
L 605.063405 128.483363 
L 606.820701 130.914347 
L 607.406467 191.394801 
L 614.43565 196.811157 
L 620.293303 201.027294 
L 620.879068 201.434226 
L 621.464833 224.808096 
L 622.636364 225.31624 
L 622.636364 225.31624 
" clip-path="url(#p5f4a4ebf3f)" style="fill: none; stroke: #ff7f0e; stroke-width: 1.5; stroke-linecap: square"/>
   </g>
   <g id="patch_3">
    <path d="M 90 288 
L 90 43.2 
" style="fill: none; stroke: #000000; stroke-width: 0.8; stroke-linejoin: miter; stroke-linecap: square"/>
   </g>
   <g id="patch_4">
    <path d="M 648 288 
L 648 43.2 
" style="fill: none; stroke: #000000; stroke-width: 0.8; stroke-linejoin: miter; stroke-linecap: square"/>
   </g>
   <g id="patch_5">
    <path d="M 90 288 
L 648 288 
" style="fill: none; stroke: #000000; stroke-width: 0.8; stroke-linejoin: miter; stroke-linecap: square"/>
   </g>
   <g id="patch_6">
    <path d="M 90 43.2 
L 648 43.2 
" style="fill: none; stroke: #000000; stroke-width: 0.8; stroke-linejoin: miter; stroke-linecap: square"/>
   </g>
   <g id="text_18">
    <!-- MDOT2491 -->
    <g transform="translate(335.545313 37.2) scale(0.12 -0.12)">
     <defs>
      <path id="DejaVuSans-44" d="M 1259 4147 
L 1259 519 
L 2022 519 
Q 2988 519 3436 956 
Q 3884 1394 3884 2338 
Q 3884 3275 3436 3711 
Q 2988 4147 2022 4147 
L 1259 4147 
z
M 628 4666 
L 1925 4666 
Q 3281 4666 3915 4102 
Q 4550 3538 4550 2338 
Q 4550 1131 3912 565 
Q 3275 0 1925 0 
L 628 0 
L 628 4666 
z
" transform="scale(0.015625)"/>
      <path id="DejaVuSans-4f" d="M 2522 4238 
Q 1834 4238 1429 3725 
Q 1025 3213 1025 2328 
Q 1025 1447 1429 934 
Q 1834 422 2522 422 
Q 3209 422 3611 934 
Q 4013 1447 4013 2328 
Q 4013 3213 3611 3725 
Q 3209 4238 2522 4238 
z
M 2522 4750 
Q 3503 4750 4090 4092 
Q 4678 3434 4678 2328 
Q 4678 1225 4090 567 
Q 3503 -91 2522 -91 
Q 1538 -91 948 565 
Q 359 1222 359 2328 
Q 359 3434 948 4092 
Q 1538 4750 2522 4750 
z
" transform="scale(0.015625)"/>
      <path id="DejaVuSans-54" d="M -19 4666 
L 3928 4666 
L 3928 4134 
L 2272 4134 
L 2272 0 
L 1638 0 
L 1638 4134 
L -19 4134 
L -19 4666 
z
" transform="scale(0.015625)"/>
     </defs>
     <use xlink:href="#DejaVuSans-4d"/>
     <use xlink:href="#DejaVuSans-44" x="86.279297"/>
     <use xlink:href="#DejaVuSans-4f" x="163.28125"/>
     <use xlink:href="#DejaVuSans-54" x="241.992188"/>
     <use xlink:href="#DejaVuSans-32" x="303.076172"/>
     <use xlink:href="#DejaVuSans-34" x="366.699219"/>
     <use xlink:href="#DejaVuSans-39" x="430.322266"/>
     <use xlink:href="#DejaVuSans-31" x="493.945312"/>
    </g>
   </g>
   <g id="legend_1">
    <g id="patch_7">
     <path d="M 97 80.55625 
L 178.95625 80.55625 
Q 180.95625 80.55625 180.95625 78.55625 
L 180.95625 50.2 
Q 180.95625 48.2 178.95625 48.2 
L 97 48.2 
Q 95 48.2 95 50.2 
L 95 78.55625 
Q 95 80.55625 97 80.55625 
z
" style="fill: #ffffff; opacity: 0.8; stroke: #cccccc; stroke-linejoin: miter"/>
    </g>
    <g id="line2d_19">
     <path d="M 99 56.298437 
L 109 56.298437 
L 119 56.298437 
" style="fill: none; stroke: #1f77b4; stroke-width: 1.5; stroke-linecap: square"/>
    </g>
    <g id="text_19">
     <!-- measured -->
     <g transform="translate(127 59.798437) scale(0.1 -0.1)">
      <defs>
       <path id="DejaVuSans-6d" d="M 3328 2828 
Q 3544 3216 3844 3400 
Q 4144 3584 4550 3584 
Q 5097 3584 5394 3201 
Q 5691 2819 5691 2113 
L 5691 0 
L 5113 0 
L 5113 2094 
Q 5113 2597 4934 2840 
Q 4756 3084 4391 3084 
Q 3944 3084 3684 2787 
Q 3425 2491 3425 1978 
L 3425 0 
L 2847 0 
L 2847 2094 
Q 2847 2600 2669 2842 
Q 2491 3084 2119 3084 
Q 1678 3084 1418 2786 
Q 1159 2488 1159 1978 
L 1159 0 
L 581 0 
L 581 3500 
L 1159 3500 
L 1159 2956 
Q 1356 3278 1631 3431 
Q 1906 3584 2284 3584 
Q 2666 3584 2933 3390 
Q 3200 3197 3328 2828 
z
" transform="scale(0.015625)"/>
       <path id="DejaVuSans-61" d="M 2194 1759 
Q 1497 1759 1228 1600 
Q 959 1441 959 1056 
Q 959 750 1161 570 
Q 1363 391 1709 391 
Q 2188 391 2477 730 
Q 2766 1069 2766 1631 
L 2766 1759 
L 2194 1759 
z
M 3341 1997 
L 3341 0 
L 2766 0 
L 2766 531 
Q 2569 213 2275 61 
Q 1981 -91 1556 -91 
Q 1019 -91 701 211 
Q 384 513 384 1019 
Q 384 1609 779 1909 
Q 1175 2209 1959 2209 
L 2766 2209 
L 2766 2266 
Q 2766 2663 2505 2880 
Q 2244 3097 1772 3097 
Q 1472 3097 1187 3025 
Q 903 2953 641 2809 
L 641 3341 
Q 956 3463 1253 3523 
Q 1550 3584 1831 3584 
Q 2591 3584 2966 3190 
Q 3341 2797 3341 1997 
z
" transform="scale(0.015625)"/>
       <path id="DejaVuSans-75" d="M 544 1381 
L 544 3500 
L 1119 3500 
L 1119 1403 
Q 1119 906 1312 657 
Q 1506 409 1894 409 
Q 2359 409 2629 706 
Q 2900 1003 2900 1516 
L 2900 3500 
L 3475 3500 
L 3475 0 
L 2900 0 
L 2900 538 
Q 2691 219 2414 64 
Q 2138 -91 1772 -91 
Q 1169 -91 856 284 
Q 544 659 544 1381 
z
M 1991 3584 
L 1991 3584 
z
" transform="scale(0.015625)"/>
       <path id="DejaVuSans-64" d="M 2906 2969 
L 2906 4863 
L 3481 4863 
L 3481 0 
L 2906 0 
L 2906 525 
Q 2725 213 2448 61 
Q 2172 -91 1784 -91 
Q 1150 -91 751 415 
Q 353 922 353 1747 
Q 353 2572 751 3078 
Q 1150 3584 1784 3584 
Q 2172 3584 2448 3432 
Q 2725 3281 2906 2969 
z
M 947 1747 
Q 947 1113 1208 752 
Q 1469 391 1925 391 
Q 2381 391 2643 752 
Q 2906 1113 2906 1747 
Q 2906 2381 2643 2742 
Q 2381 3103 1925 3103 
Q 1469 3103 1208 2742 
Q 947 2381 947 1747 
z
" transform="scale(0.015625)"/>
      </defs>
      <use xlink:href="#DejaVuSans-6d"/>
      <use xlink:href="#DejaVuSans-65" x="97.412109"/>
      <use xlink:href="#DejaVuSans-61" x="158.935547"/>
      <use xlink:href="#DejaVuSans-73" x="220.214844"/>
      <use xlink:href="#DejaVuSans-75" x="272.314453"/>
      <use xlink:href="#DejaVuSans-72" x="335.693359"/>
      <use xlink:href="#DejaVuSans-65" x="374.556641"/>
      <use xlink:href="#DejaVuSans-64" x="436.080078"/>
     </g>
    </g>
    <g id="line2d_20">
     <path d="M 99 70.976562 
L 109 70.976562 
L 119 70.976562 
" style="fill: none; stroke: #ff7f0e; stroke-width: 1.5; stroke-linecap: square"/>
    </g>
    <g id="text_20">
     <!-- predicted -->
     <g transform="translate(127 74.476562) scale(0.1 -0.1)">
      <defs>
       <path id="DejaVuSans-70" d="M 1159 525 
L 1159 -1331 
L 581 -1331 
L 581 3500 
L 1159 3500 
L 1159 2969 
Q 1341 3281 1617 3432 
Q 1894 3584 2278 3584 
Q 2916 3584 3314 3078 
Q 3713 2572 3713 1747 
Q 3713 922 3314 415 
Q 2916 -91 2278 -91 
Q 1894 -91 1617 61 
Q 1341 213 1159 525 
z
M 3116 1747 
Q 3116 2381 2855 2742 
Q 2594 3103 2138 3103 
Q 1681 3103 1420 2742 
Q 1159 2381 1159 1747 
Q 1159 1113 1420 752 
Q 1681 391 2138 391 
Q 2594 391 2855 752 
Q 3116 1113 3116 1747 
z
" transform="scale(0.015625)"/>
       <path id="DejaVuSans-69" d="M 603 3500 
L 1178 3500 
L 1178 0 
L 603 0 
L 603 3500 
z
M 603 4863 
L 1178 4863 
L 1178 4134 
L 603 4134 
L 603 4863 
z
" transform="scale(0.015625)"/>
       <path id="DejaVuSans-63" d="M 3122 3366 
L 3122 2828 
Q 2878 2963 2633 3030 
Q 2388 3097 2138 3097 
Q 1578 3097 1268 2742 
Q 959 2388 959 1747 
Q 959 1106 1268 751 
Q 1578 397 2138 397 
Q 2388 397 2633 464 
Q 2878 531 3122 666 
L 3122 134 
Q 2881 22 2623 -34 
Q 2366 -91 2075 -91 
Q 1284 -91 818 406 
Q 353 903 353 1747 
Q 353 2603 823 3093 
Q 1294 3584 2113 3584 
Q 2378 3584 2631 3529 
Q 2884 3475 3122 3366 
z
" transform="scale(0.015625)"/>
      </defs>
      <use xlink:href="#DejaVuSans-70"/>
      <use xlink:href="#DejaVuSans-72" x="63.476562"/>
      <use xlink:href="#DejaVuSans-65" x="102.339844"/>
      <use xlink:href="#DejaVuSans-64" x="163.863281"/>
      <use xlink:href="#DejaVuSans-69" x="227.339844"/>
      <use xlink:href="#DejaVuSans-63" x="255.123047"/>
      <use xlink:href="#DejaVuSans-74" x="310.103516"/>
      <use xlink:href="#DejaVuSans-65" x="349.3125"/>
      <use xlink:href="#DejaVuSans-64" x="410.835938"/>
     </g>
    </g>
   </g>
  </g>
 </g>
 <defs>
  <clipPath id="p5f4a4ebf3f">
   <rect x="90" y="43.2" width="558" height="244.8"/>
  </clipPath>
 </defs>
</svg>
