<?xml version="1.0" encoding="utf-8" standalone="no"?>
<!DOCTYPE svg PUBLIC "-//W3C//DTD SVG 1.1//EN"
  "http://www.w3.org/Graphics/SVG/1.1/DTD/svg11.dtd">
<svg xmlns:xlink="http://www.w3.org/1999/xlink" width="720pt" height="360pt" viewBox="0 0 720 360" xmlns="http://www.w3.org/2000/svg" version="1.1">
 <metadata>
  <rdf:RDF xmlns:dc="http://purl.org/dc/elements/1.1/" xmlns:cc="http://creativecommons.org/ns#" xmlns:rdf="http://www.w3.org/1999/02/22-rdf-syntax-ns#">
   <cc:Work>
    <dc:type rdf:resource="http://purl.org/dc/dcmitype/StillImage"/>
    <dc:date>2023-10-23T10:54:14.318629</dc:date>
    <dc:format>image/svg+xml</dc:format>
    <dc:creator>
     <cc:Agent>
      <dc:title>Matplotlib v3.7.1, https://matplotlib.org/</dc:title>
     </cc:Agent>
    </dc:creator>
   </cc:Work>
  </rdf:RDF>
 </metadata>
 <defs>
  <style type="text/css">*{stroke-linejoin: round; stroke-linecap: butt}</style>
 </defs>
 <g id="figure_1">
  <g id="patch_1">
   <path d="M 0 360 
L 720 360 
L 720 0 
L 0 0 
z
" style="fill: #ffffff"/>
  </g>
  <g id="axes_1">
   <g id="patch_2">
    <path d="M 90 288 
L 648 288 
L 648 43.2 
L 90 43.2 
z
" style="fill: #ffffff"/>
   </g>
   <g id="matplotlib.axis_1">
    <g id="xtick_1">
     <g id="line2d_1">
      <defs>
       <path id="m3774cfbb90" d="M 0 0 
L 0 3.5 
" style="stroke: #000000; stroke-width: 0.8"/>
      </defs>
      <g>
       <use xlink:href="#m3774cfbb90" x="149.370747" y="288" style="stroke: #000000; stroke-width: 0.8"/>
      </g>
     </g>
     <g id="text_1">
      <!-- 2023-08-15 -->
      <g transform="translate(87.727405 337.765903) rotate(-30) scale(0.12 -0.12)">
       <defs>
        <path id="DejaVuSans-32" d="M 1228 531 
L 3431 531 
L 3431 0 
L 469 0 
L 469 531 
Q 828 903 1448 1529 
Q 2069 2156 2228 2338 
Q 2531 2678 2651 2914 
Q 2772 3150 2772 3378 
Q 2772 3750 2511 3984 
Q 2250 4219 1831 4219 
Q 1534 4219 1204 4116 
Q 875 4013 500 3803 
L 500 4441 
Q 881 4594 1212 4672 
Q 1544 4750 1819 4750 
Q 2544 4750 2975 4387 
Q 3406 4025 3406 3419 
Q 3406 3131 3298 2873 
Q 3191 2616 2906 2266 
Q 2828 2175 2409 1742 
Q 1991 1309 1228 531 
z
" transform="scale(0.015625)"/>
        <path id="DejaVuSans-30" d="M 2034 4250 
Q 1547 4250 1301 3770 
Q 1056 3291 1056 2328 
Q 1056 1369 1301 889 
Q 1547 409 2034 409 
Q 2525 409 2770 889 
Q 3016 1369 3016 2328 
Q 3016 3291 2770 3770 
Q 2525 4250 2034 4250 
z
M 2034 4750 
Q 2819 4750 3233 4129 
Q 3647 3509 3647 2328 
Q 3647 1150 3233 529 
Q 2819 -91 2034 -91 
Q 1250 -91 836 529 
Q 422 1150 422 2328 
Q 422 3509 836 4129 
Q 1250 4750 2034 4750 
z
" transform="scale(0.015625)"/>
        <path id="DejaVuSans-33" d="M 2597 2516 
Q 3050 2419 3304 2112 
Q 3559 1806 3559 1356 
Q 3559 666 3084 287 
Q 2609 -91 1734 -91 
Q 1441 -91 1130 -33 
Q 819 25 488 141 
L 488 750 
Q 750 597 1062 519 
Q 1375 441 1716 441 
Q 2309 441 2620 675 
Q 2931 909 2931 1356 
Q 2931 1769 2642 2001 
Q 2353 2234 1838 2234 
L 1294 2234 
L 1294 2753 
L 1863 2753 
Q 2328 2753 2575 2939 
Q 2822 3125 2822 3475 
Q 2822 3834 2567 4026 
Q 2313 4219 1838 4219 
Q 1578 4219 1281 4162 
Q 984 4106 628 3988 
L 628 4550 
Q 988 4650 1302 4700 
Q 1616 4750 1894 4750 
Q 2613 4750 3031 4423 
Q 3450 4097 3450 3541 
Q 3450 3153 3228 2886 
Q 3006 2619 2597 2516 
z
" transform="scale(0.015625)"/>
        <path id="DejaVuSans-2d" d="M 313 2009 
L 1997 2009 
L 1997 1497 
L 313 1497 
L 313 2009 
z
" transform="scale(0.015625)"/>
        <path id="DejaVuSans-38" d="M 2034 2216 
Q 1584 2216 1326 1975 
Q 1069 1734 1069 1313 
Q 1069 891 1326 650 
Q 1584 409 2034 409 
Q 2484 409 2743 651 
Q 3003 894 3003 1313 
Q 3003 1734 2745 1975 
Q 2488 2216 2034 2216 
z
M 1403 2484 
Q 997 2584 770 2862 
Q 544 3141 544 3541 
Q 544 4100 942 4425 
Q 1341 4750 2034 4750 
Q 2731 4750 3128 4425 
Q 3525 4100 3525 3541 
Q 3525 3141 3298 2862 
Q 3072 2584 2669 2484 
Q 3125 2378 3379 2068 
Q 3634 1759 3634 1313 
Q 3634 634 3220 271 
Q 2806 -91 2034 -91 
Q 1263 -91 848 271 
Q 434 634 434 1313 
Q 434 1759 690 2068 
Q 947 2378 1403 2484 
z
M 1172 3481 
Q 1172 3119 1398 2916 
Q 1625 2713 2034 2713 
Q 2441 2713 2670 2916 
Q 2900 3119 2900 3481 
Q 2900 3844 2670 4047 
Q 2441 4250 2034 4250 
Q 1625 4250 1398 4047 
Q 1172 3844 1172 3481 
z
" transform="scale(0.015625)"/>
        <path id="DejaVuSans-31" d="M 794 531 
L 1825 531 
L 1825 4091 
L 703 3866 
L 703 4441 
L 1819 4666 
L 2450 4666 
L 2450 531 
L 3481 531 
L 3481 0 
L 794 0 
L 794 531 
z
" transform="scale(0.015625)"/>
        <path id="DejaVuSans-35" d="M 691 4666 
L 3169 4666 
L 3169 4134 
L 1269 4134 
L 1269 2991 
Q 1406 3038 1543 3061 
Q 1681 3084 1819 3084 
Q 2600 3084 3056 2656 
Q 3513 2228 3513 1497 
Q 3513 744 3044 326 
Q 2575 -91 1722 -91 
Q 1428 -91 1123 -41 
Q 819 9 494 109 
L 494 744 
Q 775 591 1075 516 
Q 1375 441 1709 441 
Q 2250 441 2565 725 
Q 2881 1009 2881 1497 
Q 2881 1984 2565 2268 
Q 2250 2553 1709 2553 
Q 1456 2553 1204 2497 
Q 953 2441 691 2322 
L 691 4666 
z
" transform="scale(0.015625)"/>
       </defs>
       <use xlink:href="#DejaVuSans-32"/>
       <use xlink:href="#DejaVuSans-30" x="63.623047"/>
       <use xlink:href="#DejaVuSans-32" x="127.246094"/>
       <use xlink:href="#DejaVuSans-33" x="190.869141"/>
       <use xlink:href="#DejaVuSans-2d" x="254.492188"/>
       <use xlink:href="#DejaVuSans-30" x="290.576172"/>
       <use xlink:href="#DejaVuSans-38" x="354.199219"/>
       <use xlink:href="#DejaVuSans-2d" x="417.822266"/>
       <use xlink:href="#DejaVuSans-31" x="453.90625"/>
       <use xlink:href="#DejaVuSans-35" x="517.529297"/>
      </g>
     </g>
    </g>
    <g id="xtick_2">
     <g id="line2d_2">
      <g>
       <use xlink:href="#m3774cfbb90" x="264.994921" y="288" style="stroke: #000000; stroke-width: 0.8"/>
      </g>
     </g>
     <g id="text_2">
      <!-- 2023-09-01 -->
      <g transform="translate(203.35158 337.765903) rotate(-30) scale(0.12 -0.12)">
       <defs>
        <path id="DejaVuSans-39" d="M 703 97 
L 703 672 
Q 941 559 1184 500 
Q 1428 441 1663 441 
Q 2288 441 2617 861 
Q 2947 1281 2994 2138 
Q 2813 1869 2534 1725 
Q 2256 1581 1919 1581 
Q 1219 1581 811 2004 
Q 403 2428 403 3163 
Q 403 3881 828 4315 
Q 1253 4750 1959 4750 
Q 2769 4750 3195 4129 
Q 3622 3509 3622 2328 
Q 3622 1225 3098 567 
Q 2575 -91 1691 -91 
Q 1453 -91 1209 -44 
Q 966 3 703 97 
z
M 1959 2075 
Q 2384 2075 2632 2365 
Q 2881 2656 2881 3163 
Q 2881 3666 2632 3958 
Q 2384 4250 1959 4250 
Q 1534 4250 1286 3958 
Q 1038 3666 1038 3163 
Q 1038 2656 1286 2365 
Q 1534 2075 1959 2075 
z
" transform="scale(0.015625)"/>
       </defs>
       <use xlink:href="#DejaVuSans-32"/>
       <use xlink:href="#DejaVuSans-30" x="63.623047"/>
       <use xlink:href="#DejaVuSans-32" x="127.246094"/>
       <use xlink:href="#DejaVuSans-33" x="190.869141"/>
       <use xlink:href="#DejaVuSans-2d" x="254.492188"/>
       <use xlink:href="#DejaVuSans-30" x="290.576172"/>
       <use xlink:href="#DejaVuSans-39" x="354.199219"/>
       <use xlink:href="#DejaVuSans-2d" x="417.822266"/>
       <use xlink:href="#DejaVuSans-30" x="453.90625"/>
       <use xlink:href="#DejaVuSans-31" x="517.529297"/>
      </g>
     </g>
    </g>
    <g id="xtick_3">
     <g id="line2d_3">
      <g>
       <use xlink:href="#m3774cfbb90" x="360.21483" y="288" style="stroke: #000000; stroke-width: 0.8"/>
      </g>
     </g>
     <g id="text_3">
      <!-- 2023-09-15 -->
      <g transform="translate(298.571488 337.765903) rotate(-30) scale(0.12 -0.12)">
       <use xlink:href="#DejaVuSans-32"/>
       <use xlink:href="#DejaVuSans-30" x="63.623047"/>
       <use xlink:href="#DejaVuSans-32" x="127.246094"/>
       <use xlink:href="#DejaVuSans-33" x="190.869141"/>
       <use xlink:href="#DejaVuSans-2d" x="254.492188"/>
       <use xlink:href="#DejaVuSans-30" x="290.576172"/>
       <use xlink:href="#DejaVuSans-39" x="354.199219"/>
       <use xlink:href="#DejaVuSans-2d" x="417.822266"/>
       <use xlink:href="#DejaVuSans-31" x="453.90625"/>
       <use xlink:href="#DejaVuSans-35" x="517.529297"/>
      </g>
     </g>
    </g>
    <g id="xtick_4">
     <g id="line2d_4">
      <g>
       <use xlink:href="#m3774cfbb90" x="469.037583" y="288" style="stroke: #000000; stroke-width: 0.8"/>
      </g>
     </g>
     <g id="text_4">
      <!-- 2023-10-01 -->
      <g transform="translate(407.394241 337.765903) rotate(-30) scale(0.12 -0.12)">
       <use xlink:href="#DejaVuSans-32"/>
       <use xlink:href="#DejaVuSans-30" x="63.623047"/>
       <use xlink:href="#DejaVuSans-32" x="127.246094"/>
       <use xlink:href="#DejaVuSans-33" x="190.869141"/>
       <use xlink:href="#DejaVuSans-2d" x="254.492188"/>
       <use xlink:href="#DejaVuSans-31" x="290.576172"/>
       <use xlink:href="#DejaVuSans-30" x="354.199219"/>
       <use xlink:href="#DejaVuSans-2d" x="417.822266"/>
       <use xlink:href="#DejaVuSans-30" x="453.90625"/>
       <use xlink:href="#DejaVuSans-31" x="517.529297"/>
      </g>
     </g>
    </g>
    <g id="xtick_5">
     <g id="line2d_5">
      <g>
       <use xlink:href="#m3774cfbb90" x="564.257491" y="288" style="stroke: #000000; stroke-width: 0.8"/>
      </g>
     </g>
     <g id="text_5">
      <!-- 2023-10-15 -->
      <g transform="translate(502.614149 337.765903) rotate(-30) scale(0.12 -0.12)">
       <use xlink:href="#DejaVuSans-32"/>
       <use xlink:href="#DejaVuSans-30" x="63.623047"/>
       <use xlink:href="#DejaVuSans-32" x="127.246094"/>
       <use xlink:href="#DejaVuSans-33" x="190.869141"/>
       <use xlink:href="#DejaVuSans-2d" x="254.492188"/>
       <use xlink:href="#DejaVuSans-31" x="290.576172"/>
       <use xlink:href="#DejaVuSans-30" x="354.199219"/>
       <use xlink:href="#DejaVuSans-2d" x="417.822266"/>
       <use xlink:href="#DejaVuSans-31" x="453.90625"/>
       <use xlink:href="#DejaVuSans-35" x="517.529297"/>
      </g>
     </g>
    </g>
   </g>
   <g id="matplotlib.axis_2">
    <g id="ytick_1">
     <g id="line2d_6">
      <defs>
       <path id="md113af13cb" d="M 0 0 
L -3.5 0 
" style="stroke: #000000; stroke-width: 0.8"/>
      </defs>
      <g>
       <use xlink:href="#md113af13cb" x="90" y="260.779183" style="stroke: #000000; stroke-width: 0.8"/>
      </g>
     </g>
     <g id="text_6">
      <!-- −0.25 -->
      <g transform="translate(46.225625 265.338245) scale(0.12 -0.12)">
       <defs>
        <path id="DejaVuSans-2212" d="M 678 2272 
L 4684 2272 
L 4684 1741 
L 678 1741 
L 678 2272 
z
" transform="scale(0.015625)"/>
        <path id="DejaVuSans-2e" d="M 684 794 
L 1344 794 
L 1344 0 
L 684 0 
L 684 794 
z
" transform="scale(0.015625)"/>
       </defs>
       <use xlink:href="#DejaVuSans-2212"/>
       <use xlink:href="#DejaVuSans-30" x="83.789062"/>
       <use xlink:href="#DejaVuSans-2e" x="147.412109"/>
       <use xlink:href="#DejaVuSans-32" x="179.199219"/>
       <use xlink:href="#DejaVuSans-35" x="242.822266"/>
      </g>
     </g>
    </g>
    <g id="ytick_2">
     <g id="line2d_7">
      <g>
       <use xlink:href="#md113af13cb" x="90" y="226.984976" style="stroke: #000000; stroke-width: 0.8"/>
      </g>
     </g>
     <g id="text_7">
      <!-- 0.00 -->
      <g transform="translate(56.28125 231.544038) scale(0.12 -0.12)">
       <use xlink:href="#DejaVuSans-30"/>
       <use xlink:href="#DejaVuSans-2e" x="63.623047"/>
       <use xlink:href="#DejaVuSans-30" x="95.410156"/>
       <use xlink:href="#DejaVuSans-30" x="159.033203"/>
      </g>
     </g>
    </g>
    <g id="ytick_3">
     <g id="line2d_8">
      <g>
       <use xlink:href="#md113af13cb" x="90" y="193.190769" style="stroke: #000000; stroke-width: 0.8"/>
      </g>
     </g>
     <g id="text_8">
      <!-- 0.25 -->
      <g transform="translate(56.28125 197.749832) scale(0.12 -0.12)">
       <use xlink:href="#DejaVuSans-30"/>
       <use xlink:href="#DejaVuSans-2e" x="63.623047"/>
       <use xlink:href="#DejaVuSans-32" x="95.410156"/>
       <use xlink:href="#DejaVuSans-35" x="159.033203"/>
      </g>
     </g>
    </g>
    <g id="ytick_4">
     <g id="line2d_9">
      <g>
       <use xlink:href="#md113af13cb" x="90" y="159.396562" style="stroke: #000000; stroke-width: 0.8"/>
      </g>
     </g>
     <g id="text_9">
      <!-- 0.50 -->
      <g transform="translate(56.28125 163.955625) scale(0.12 -0.12)">
       <use xlink:href="#DejaVuSans-30"/>
       <use xlink:href="#DejaVuSans-2e" x="63.623047"/>
       <use xlink:href="#DejaVuSans-35" x="95.410156"/>
       <use xlink:href="#DejaVuSans-30" x="159.033203"/>
      </g>
     </g>
    </g>
    <g id="ytick_5">
     <g id="line2d_10">
      <g>
       <use xlink:href="#md113af13cb" x="90" y="125.602355" style="stroke: #000000; stroke-width: 0.8"/>
      </g>
     </g>
     <g id="text_10">
      <!-- 0.75 -->
      <g transform="translate(56.28125 130.161418) scale(0.12 -0.12)">
       <defs>
        <path id="DejaVuSans-37" d="M 525 4666 
L 3525 4666 
L 3525 4397 
L 1831 0 
L 1172 0 
L 2766 4134 
L 525 4134 
L 525 4666 
z
" transform="scale(0.015625)"/>
       </defs>
       <use xlink:href="#DejaVuSans-30"/>
       <use xlink:href="#DejaVuSans-2e" x="63.623047"/>
       <use xlink:href="#DejaVuSans-37" x="95.410156"/>
       <use xlink:href="#DejaVuSans-35" x="159.033203"/>
      </g>
     </g>
    </g>
    <g id="ytick_6">
     <g id="line2d_11">
      <g>
       <use xlink:href="#md113af13cb" x="90" y="91.808148" style="stroke: #000000; stroke-width: 0.8"/>
      </g>
     </g>
     <g id="text_11">
      <!-- 1.00 -->
      <g transform="translate(56.28125 96.367211) scale(0.12 -0.12)">
       <use xlink:href="#DejaVuSans-31"/>
       <use xlink:href="#DejaVuSans-2e" x="63.623047"/>
       <use xlink:href="#DejaVuSans-30" x="95.410156"/>
       <use xlink:href="#DejaVuSans-30" x="159.033203"/>
      </g>
     </g>
    </g>
    <g id="ytick_7">
     <g id="line2d_12">
      <g>
       <use xlink:href="#md113af13cb" x="90" y="58.013941" style="stroke: #000000; stroke-width: 0.8"/>
      </g>
     </g>
     <g id="text_12">
      <!-- 1.25 -->
      <g transform="translate(56.28125 62.573004) scale(0.12 -0.12)">
       <use xlink:href="#DejaVuSans-31"/>
       <use xlink:href="#DejaVuSans-2e" x="63.623047"/>
       <use xlink:href="#DejaVuSans-32" x="95.410156"/>
       <use xlink:href="#DejaVuSans-35" x="159.033203"/>
      </g>
     </g>
    </g>
    <g id="text_13">
     <!-- Meters -->
     <g transform="translate(40.145938 182.6875) rotate(-90) scale(0.1 -0.1)">
      <defs>
       <path id="DejaVuSans-4d" d="M 628 4666 
L 1569 4666 
L 2759 1491 
L 3956 4666 
L 4897 4666 
L 4897 0 
L 4281 0 
L 4281 4097 
L 3078 897 
L 2444 897 
L 1241 4097 
L 1241 0 
L 628 0 
L 628 4666 
z
" transform="scale(0.015625)"/>
       <path id="DejaVuSans-65" d="M 3597 1894 
L 3597 1613 
L 953 1613 
Q 991 1019 1311 708 
Q 1631 397 2203 397 
Q 2534 397 2845 478 
Q 3156 559 3463 722 
L 3463 178 
Q 3153 47 2828 -22 
Q 2503 -91 2169 -91 
Q 1331 -91 842 396 
Q 353 884 353 1716 
Q 353 2575 817 3079 
Q 1281 3584 2069 3584 
Q 2775 3584 3186 3129 
Q 3597 2675 3597 1894 
z
M 3022 2063 
Q 3016 2534 2758 2815 
Q 2500 3097 2075 3097 
Q 1594 3097 1305 2825 
Q 1016 2553 972 2059 
L 3022 2063 
z
" transform="scale(0.015625)"/>
       <path id="DejaVuSans-74" d="M 1172 4494 
L 1172 3500 
L 2356 3500 
L 2356 3053 
L 1172 3053 
L 1172 1153 
Q 1172 725 1289 603 
Q 1406 481 1766 481 
L 2356 481 
L 2356 0 
L 1766 0 
Q 1100 0 847 248 
Q 594 497 594 1153 
L 594 3053 
L 172 3053 
L 172 3500 
L 594 3500 
L 594 4494 
L 1172 4494 
z
" transform="scale(0.015625)"/>
       <path id="DejaVuSans-72" d="M 2631 2963 
Q 2534 3019 2420 3045 
Q 2306 3072 2169 3072 
Q 1681 3072 1420 2755 
Q 1159 2438 1159 1844 
L 1159 0 
L 581 0 
L 581 3500 
L 1159 3500 
L 1159 2956 
Q 1341 3275 1631 3429 
Q 1922 3584 2338 3584 
Q 2397 3584 2469 3576 
Q 2541 3569 2628 3553 
L 2631 2963 
z
" transform="scale(0.015625)"/>
       <path id="DejaVuSans-73" d="M 2834 3397 
L 2834 2853 
Q 2591 2978 2328 3040 
Q 2066 3103 1784 3103 
Q 1356 3103 1142 2972 
Q 928 2841 928 2578 
Q 928 2378 1081 2264 
Q 1234 2150 1697 2047 
L 1894 2003 
Q 2506 1872 2764 1633 
Q 3022 1394 3022 966 
Q 3022 478 2636 193 
Q 2250 -91 1575 -91 
Q 1294 -91 989 -36 
Q 684 19 347 128 
L 347 722 
Q 666 556 975 473 
Q 1284 391 1588 391 
Q 1994 391 2212 530 
Q 2431 669 2431 922 
Q 2431 1156 2273 1281 
Q 2116 1406 1581 1522 
L 1381 1569 
Q 847 1681 609 1914 
Q 372 2147 372 2553 
Q 372 3047 722 3315 
Q 1072 3584 1716 3584 
Q 2034 3584 2315 3537 
Q 2597 3491 2834 3397 
z
" transform="scale(0.015625)"/>
      </defs>
      <use xlink:href="#DejaVuSans-4d"/>
      <use xlink:href="#DejaVuSans-65" x="86.279297"/>
      <use xlink:href="#DejaVuSans-74" x="147.802734"/>
      <use xlink:href="#DejaVuSans-65" x="187.011719"/>
      <use xlink:href="#DejaVuSans-72" x="248.535156"/>
      <use xlink:href="#DejaVuSans-73" x="289.648438"/>
     </g>
    </g>
   </g>
   <g id="line2d_13">
    <path d="M 115.363636 195.875236 
L 115.647029 196.812222 
L 115.930422 195.348182 
L 116.213814 198.028502 
L 116.497207 198.208692 
L 116.780599 199.740304 
L 117.063992 200.280873 
L 117.347384 201.72239 
L 117.91417 201.452105 
L 118.480955 202.262959 
L 118.764347 203.231478 
L 119.04774 205.145993 
L 119.331133 202.893622 
L 119.614525 202.690909 
L 119.897918 201.666081 
L 120.18131 203.118859 
L 120.464703 201.226868 
L 120.748095 201.136774 
L 121.031488 200.866489 
L 121.314881 201.632295 
L 121.881666 207.713695 
L 122.165058 207.083031 
L 122.448451 204.254054 
L 122.731844 204.76309 
L 123.015236 204.515329 
L 123.298629 206.655081 
L 123.582021 206.632557 
L 123.865414 206.137036 
L 124.148807 206.249654 
L 124.432199 207.646124 
L 124.715592 208.23174 
L 124.998984 206.767699 
L 125.565769 211.092251 
L 125.849162 209.659743 
L 126.132555 209.695781 
L 126.415947 209.966065 
L 126.69934 207.983979 
L 126.982732 208.092093 
L 127.266125 208.416435 
L 127.549518 208.119122 
L 127.83291 207.420887 
L 128.683088 212.308531 
L 128.96648 210.799442 
L 129.249873 207.443411 
L 129.816658 206.722652 
L 130.100051 204.965803 
L 131.233621 202.285482 
L 131.517014 202.826051 
L 131.800406 202.735956 
L 132.083799 201.857532 
L 132.367191 202.465672 
L 132.650584 202.335035 
L 132.933977 203.226973 
L 133.217369 201.001631 
L 133.500762 199.98356 
L 133.784154 201.024155 
L 134.35094 199.165949 
L 134.634332 199.470019 
L 134.917725 198.726737 
L 135.48451 203.254002 
L 135.767902 201.524181 
L 136.334688 201.271916 
L 136.61808 202.33053 
L 136.901473 200.821442 
L 137.468258 202.353054 
L 137.751651 202.375577 
L 138.035043 203.681952 
L 138.601828 203.929713 
L 138.885221 204.335139 
L 139.452006 211.011165 
L 139.735399 207.612338 
L 140.018791 207.747481 
L 140.302184 205.990632 
L 140.585576 205.956846 
L 141.152362 207.950194 
L 141.435754 207.848837 
L 141.719147 209.943542 
L 142.002539 210.551682 
L 142.569325 211.389563 
L 142.852717 147.59793 
L 143.13611 211.092251 
L 143.419502 211.745438 
L 143.702895 211.903104 
L 143.986287 212.466197 
L 144.26968 212.66891 
L 144.553073 213.470754 
L 144.836465 213.457239 
L 145.119858 213.862666 
L 145.40325 213.186955 
L 145.970036 214.042856 
L 146.253428 215.09246 
L 146.536821 214.200522 
L 147.103606 215.011375 
L 147.386998 214.020332 
L 147.670391 212.218436 
L 147.953784 213.705 
L 148.237176 214.290617 
L 148.520569 255.193662 
L 148.803961 202.15034 
L 149.087354 192.555242 
L 149.370747 190.302872 
L 149.654139 190.730822 
L 149.937532 190.730822 
L 150.220924 188.365834 
L 150.504317 188.636118 
L 150.787709 187.262172 
L 151.354495 172.95962 
L 151.637887 170.054062 
L 152.488065 166.87822 
L 153.338243 160.886915 
L 153.621635 157.553407 
L 153.905028 155.728987 
L 154.471813 148.701591 
L 154.755206 146.021271 
L 155.038598 142.012051 
L 155.605383 139.038922 
L 155.888776 139.51192 
L 156.455561 133.745852 
L 156.738954 133.205283 
L 157.022346 131.831337 
L 157.305739 132.484525 
L 158.155917 129.015874 
L 159.006094 127.033788 
L 159.289487 124.984131 
L 159.57288 125.209368 
L 159.856272 126.763504 
L 160.989843 112.821331 
L 161.84002 108.924731 
L 162.123413 107.370595 
L 162.690198 109.195015 
L 163.256983 102.618093 
L 164.390554 96.108743 
L 166.374302 89.64444 
L 166.657694 87.504688 
L 167.224479 76.377979 
L 167.791265 72.211093 
L 168.074657 71.625477 
L 168.35805 72.18857 
L 168.641442 72.120999 
L 168.924835 72.256141 
L 169.49162 70.679482 
L 169.775013 70.274055 
L 170.341798 68.855062 
L 170.62519 70.521816 
L 170.908583 69.913676 
L 171.191976 69.868628 
L 171.475368 68.832538 
L 171.758761 69.305536 
L 172.042153 68.472159 
L 172.325546 68.269445 
L 172.608939 67.210831 
L 172.892331 67.818971 
L 173.459116 71.738096 
L 173.742509 69.598344 
L 174.025901 66.354931 
L 174.309294 66.940547 
L 174.592687 65.881933 
L 174.876079 66.490073 
L 175.159472 66.017075 
L 175.442864 65.071079 
L 175.726257 65.814362 
L 176.293042 69.215441 
L 176.859827 65.273793 
L 177.14322 64.778271 
L 177.426612 64.575558 
L 177.710005 63.426849 
L 177.993398 63.629562 
L 178.560183 62.007856 
L 178.843575 61.782619 
L 179.126968 60.048293 
L 179.693753 59.800533 
L 179.977146 59.935675 
L 180.260538 61.151955 
L 180.827324 56.286835 
L 181.110716 55.678695 
L 181.394109 54.642605 
L 181.677501 54.55251 
L 181.960894 54.327273 
L 182.527679 55.070555 
L 182.811072 55.633648 
L 183.094464 57.615733 
L 183.377857 56.782356 
L 183.661249 56.534596 
L 184.228035 58.291445 
L 184.511427 60.251007 
L 184.79482 60.994289 
L 185.361605 64.800795 
L 186.211783 69.665915 
L 186.495175 71.760619 
L 187.06196 79.058299 
L 187.345353 79.756534 
L 187.628746 76.715834 
L 187.912138 76.941071 
L 188.478923 76.738358 
L 188.762316 77.66183 
L 189.045708 79.959248 
L 189.329101 80.815148 
L 189.612494 82.571997 
L 189.895886 86.536169 
L 190.179279 86.333456 
L 190.462671 86.828977 
L 190.746064 87.054214 
L 191.029457 90.162485 
L 191.596242 93.743754 
L 191.879634 96.266409 
L 192.44642 98.383637 
L 193.013205 101.627051 
L 193.57999 105.050653 
L 193.863382 107.640879 
L 194.146775 105.658793 
L 194.430168 105.658793 
L 194.71356 104.667751 
L 194.996953 104.284848 
L 195.280345 103.473994 
L 195.563738 104.892988 
L 195.847131 104.938035 
L 196.413916 106.965168 
L 196.697308 108.586875 
L 196.980701 107.866116 
L 197.264093 108.384162 
L 197.830879 111.019435 
L 198.114271 111.920383 
L 198.397664 113.677232 
L 198.964449 115.479128 
L 199.247842 117.078311 
L 199.531234 119.893774 
L 200.381412 123.069616 
L 200.664804 123.407472 
L 201.23159 125.659842 
L 201.514982 126.650885 
L 201.798375 126.245459 
L 202.081767 127.619405 
L 202.36516 127.777071 
L 202.931945 130.434868 
L 203.215338 133.070141 
L 203.49873 137.011789 
L 203.782123 135.390082 
L 204.348908 136.628886 
L 205.482478 142.800381 
L 206.049264 146.449221 
L 206.332656 147.688025 
L 206.616049 148.161022 
L 206.899441 149.625063 
L 207.182834 151.877434 
L 207.466227 151.269294 
L 207.749619 151.24677 
L 208.033012 152.620716 
L 208.316404 151.85491 
L 208.599797 153.138761 
L 208.883189 153.228856 
L 209.166582 152.958571 
L 209.449975 153.318951 
L 209.733367 152.575668 
L 210.01676 154.692896 
L 210.300152 157.958834 
L 210.866938 155.008228 
L 211.15033 156.11189 
L 211.433723 156.021795 
L 211.717115 154.873086 
L 212.000508 154.602802 
L 212.2839 154.084756 
L 213.417471 156.021795 
L 213.700863 155.233465 
L 214.267649 157.801168 
L 214.551041 157.846215 
L 214.834434 158.274165 
L 215.117826 160.233728 
L 215.401219 160.233728 
L 215.684611 161.607674 
L 215.968004 161.810387 
L 216.251397 163.026667 
L 216.534789 162.959096 
L 216.818182 165.752035 
L 217.101574 167.080934 
L 217.384967 169.220685 
L 217.66836 157.620978 
L 217.951752 156.201985 
L 218.235145 157.485836 
L 218.80193 158.341736 
L 219.085322 157.373217 
L 219.368715 155.999271 
L 219.652108 156.247032 
L 220.218893 154.760468 
L 220.785678 156.810125 
L 221.069071 157.170504 
L 221.352463 158.161547 
L 221.635856 158.229118 
L 222.202641 160.79682 
L 222.486034 160.729249 
L 222.769426 162.869001 
L 223.052819 162.553669 
L 223.619604 162.79242 
L 223.902996 165.188942 
L 224.186389 162.148242 
L 225.319959 157.418265 
L 226.170137 153.544188 
L 226.736922 151.359388 
L 227.303707 147.868214 
L 227.870493 147.485311 
L 228.437278 143.588711 
L 229.004063 140.7282 
L 229.287456 140.210155 
L 229.570848 136.741505 
L 230.421026 132.619667 
L 230.704418 133.723328 
L 230.987811 129.443825 
L 231.554596 126.065269 
L 231.837989 125.682366 
L 232.121381 123.587662 
L 232.404774 123.610185 
L 232.688167 123.88047 
L 232.971559 122.686713 
L 233.538344 122.123621 
L 233.821737 123.09214 
L 234.10513 123.249806 
L 234.671915 125.907603 
L 235.522092 122.574095 
L 235.805485 123.475043 
L 236.37227 124.038136 
L 237.222448 126.245459 
L 237.505841 131.425911 
L 237.789233 128.678019 
L 238.072626 127.754547 
L 238.356018 128.880732 
L 238.639411 129.331206 
L 238.922803 129.443825 
L 239.206196 130.547486 
L 239.489589 130.772723 
L 239.772981 131.78629 
L 240.056374 131.110579 
L 240.339766 131.223197 
L 240.623159 132.709762 
L 240.906552 132.844904 
L 241.473337 137.07936 
L 241.756729 133.880994 
L 242.040122 132.619667 
L 242.323514 129.96187 
L 242.606907 129.894299 
L 242.8903 130.479915 
L 243.173692 129.871775 
L 243.457085 130.051965 
L 243.740477 129.826728 
L 244.02387 130.57001 
L 244.307263 133.926042 
L 244.590655 132.619667 
L 244.874048 121.808289 
L 245.15744 61.151955 
L 245.440833 131.358339 
L 245.724225 131.065531 
L 246.291011 132.912475 
L 246.574403 133.340425 
L 246.857796 134.421563 
L 247.141188 134.083708 
L 247.424581 135.25494 
L 247.707974 135.119798 
L 247.991366 135.547748 
L 248.274759 134.894561 
L 248.558151 135.682891 
L 249.124937 134.106231 
L 249.408329 131.876385 
L 249.691722 132.799856 
L 249.975114 133.00257 
L 250.258507 133.633234 
L 250.541899 135.052227 
L 250.825292 134.263897 
L 251.108685 136.110841 
L 251.67547 135.818033 
L 251.958862 136.020746 
L 252.525648 137.282074 
L 252.80904 136.831599 
L 253.092433 137.980308 
L 253.375825 138.250593 
L 253.659218 139.241636 
L 253.94261 139.737157 
L 254.226003 140.615582 
L 254.509396 142.012051 
L 254.792788 142.462525 
L 255.076181 145.570796 
L 255.359573 143.521139 
L 255.642966 143.566187 
L 255.926359 144.241898 
L 256.209751 144.219374 
L 257.059929 146.471745 
L 257.343321 147.688025 
L 257.626714 148.386259 
L 257.910107 153.251379 
L 258.193499 151.359388 
L 258.476892 151.872929 
L 258.760284 153.454093 
L 259.043677 153.566711 
L 259.32707 153.814472 
L 259.610462 155.819082 
L 259.893855 155.796558 
L 260.177247 157.801168 
L 260.46064 158.296689 
L 260.744033 159.107542 
L 261.027425 160.751773 
L 261.310818 161.269818 
L 261.877603 167.148505 
L 262.160995 164.152852 
L 262.444388 163.094238 
L 262.727781 164.387099 
L 263.011173 164.107805 
L 263.577958 162.058148 
L 263.861351 163.905091 
L 264.428136 165.076324 
L 264.711529 168.026929 
L 264.994921 165.66194 
L 265.278314 165.143895 
L 265.561706 165.752035 
L 265.845099 165.188942 
L 266.128492 165.188942 
L 266.411884 166.630459 
L 266.695277 166.225033 
L 266.978669 168.026929 
L 267.262062 167.283647 
L 267.545455 167.891787 
L 267.828847 169.130591 
L 268.11224 169.761254 
L 268.395632 172.892049 
L 268.679025 174.716469 
L 268.962417 170.076586 
L 269.24581 169.445922 
L 269.529203 169.549531 
L 269.812595 169.783778 
L 270.095988 168.684621 
L 270.37938 168.70264 
L 271.229558 170.955011 
L 271.512951 175.171448 
L 271.796343 174.153376 
L 272.079736 173.792997 
L 272.363128 174.378614 
L 272.646521 176.090415 
L 272.929914 176.495842 
L 273.213306 177.239124 
L 273.780091 179.716731 
L 274.063484 180.752822 
L 274.346877 182.419576 
L 274.913662 184.090835 
L 275.480447 189.356876 
L 276.047232 185.212515 
L 276.330625 186.744127 
L 276.614017 187.577504 
L 276.89741 189.118125 
L 277.180802 190.010064 
L 277.464195 190.010064 
L 277.747588 187.678861 
L 278.03098 190.460538 
L 278.314373 190.685775 
L 278.597765 188.95145 
L 278.881158 188.861355 
L 279.164551 188.996497 
L 279.447943 188.591071 
L 280.014728 190.59568 
L 280.298121 190.933536 
L 280.581513 190.663251 
L 280.864906 190.235301 
L 281.148299 191.11823 
L 281.431691 191.586723 
L 281.715084 192.397576 
L 281.998476 194.131902 
L 282.281869 193.442676 
L 282.565262 191.046154 
L 282.848654 190.307377 
L 283.132047 190.685775 
L 283.698832 188.226187 
L 283.982224 189.685723 
L 284.265617 187.847788 
L 284.54901 188.496471 
L 284.832402 187.955902 
L 285.115795 189.435709 
L 285.68258 188.973974 
L 285.965973 188.140596 
L 286.249365 188.748736 
L 286.532758 189.064068 
L 286.81615 188.027978 
L 287.382936 189.98754 
L 287.666328 188.928926 
L 287.949721 189.649685 
L 288.233113 191.113725 
L 288.516506 191.248868 
L 288.799898 193.591333 
L 289.083291 194.537328 
L 289.366684 191.676818 
L 289.650076 190.708299 
L 289.933469 190.505585 
L 290.216861 190.76686 
L 290.500254 189.672208 
L 290.783647 192.206125 
L 291.067039 191.091202 
L 291.350432 191.733127 
L 291.633824 189.739779 
L 291.917217 193.388619 
L 292.200609 193.523762 
L 292.484002 193.456191 
L 292.767395 192.104768 
L 293.050787 191.744389 
L 293.33418 191.046154 
L 293.617572 192.510195 
L 293.900965 193.185906 
L 294.46775 196.879794 
L 294.751143 196.834746 
L 295.034535 197.983455 
L 295.317928 198.231216 
L 295.60132 202.713433 
L 295.884713 202.551262 
L 296.168106 202.533243 
L 296.734891 201.271916 
L 297.018283 202.217911 
L 297.301676 204.808137 
L 297.585069 203.118859 
L 297.868461 203.017503 
L 298.151854 204.988327 
L 298.435246 204.064855 
L 298.718639 203.6324 
L 299.002031 201.362011 
L 299.568817 199.199735 
L 299.852209 200.528634 
L 300.135602 199.627685 
L 300.418994 201.001631 
L 300.702387 200.798918 
L 301.269172 201.992674 
L 301.552565 201.677342 
L 301.835957 202.645862 
L 302.11935 202.735956 
L 302.402743 203.36662 
L 302.686135 205.506372 
L 303.25292 197.803265 
L 303.536313 196.699604 
L 303.819705 198.280768 
L 304.103098 197.253687 
L 304.669883 198.848365 
L 304.953276 200.307901 
L 305.236668 199.605162 
L 305.520061 201.578238 
L 305.803454 201.587248 
L 306.086846 201.249392 
L 306.370239 199.515067 
L 306.653631 198.861879 
L 306.937024 199.244782 
L 307.220416 199.312354 
L 307.503809 200.168254 
L 307.787202 198.68169 
L 308.070594 197.960931 
L 308.353987 197.848313 
L 308.637379 198.546548 
L 308.920772 198.208692 
L 309.204165 198.343834 
L 309.487557 199.470019 
L 309.77095 199.71778 
L 310.054342 200.889013 
L 310.337735 199.794361 
L 310.621127 199.267306 
L 310.90452 201.587248 
L 311.187913 198.929451 
L 311.471305 199.560114 
L 311.754698 198.974498 
L 312.321483 200.578186 
L 312.604876 199.605162 
L 313.171661 200.145731 
L 313.455053 198.276263 
L 313.738446 199.470019 
L 314.021838 199.357401 
L 314.305231 200.280873 
L 314.588624 198.906927 
L 314.872016 199.830399 
L 315.438801 199.740304 
L 315.722194 199.064593 
L 316.005587 199.267306 
L 316.288979 198.388882 
L 316.572372 198.821337 
L 316.855764 200.889013 
L 317.139157 198.433929 
L 317.42255 198.848365 
L 317.705942 197.875341 
L 317.989335 198.388882 
L 318.55612 198.839356 
L 318.839512 197.118545 
L 319.122905 199.019545 
L 319.406298 198.794308 
L 319.68969 197.659114 
L 319.973083 198.051026 
L 320.256475 197.605057 
L 320.539868 198.478976 
L 320.823261 198.343834 
L 321.106653 197.578028 
L 321.390046 198.839356 
L 321.673438 198.578081 
L 321.956831 199.672733 
L 322.240223 199.244782 
L 322.807009 202.623338 
L 323.373794 198.145626 
L 323.657186 199.312354 
L 323.940579 201.260654 
L 324.223972 198.794308 
L 324.507364 199.560114 
L 324.790757 197.780742 
L 325.074149 200.659271 
L 325.357542 199.902475 
L 325.640934 200.145731 
L 325.924327 202.071507 
L 326.20772 202.902632 
L 326.491112 202.551262 
L 326.774505 203.010746 
L 327.057897 204.290092 
L 327.34129 203.231478 
L 327.624683 203.36662 
L 327.908075 205.19104 
L 328.191468 204.019808 
L 328.47486 203.704476 
L 328.758253 204.132426 
L 329.041646 205.686562 
L 329.325038 206.41633 
L 329.608431 208.344359 
L 329.891823 206.182083 
L 330.175216 206.046941 
L 330.742001 202.544505 
L 331.025394 204.166212 
L 331.308786 203.794571 
L 331.592179 203.862142 
L 331.875571 205.416277 
L 332.158964 205.37123 
L 332.442357 205.720347 
L 332.725749 205.754133 
L 333.009142 206.308216 
L 333.575927 205.010851 
L 333.859319 205.389249 
L 334.142712 207.510982 
L 334.426105 208.389406 
L 334.709497 206.925365 
L 334.99289 207.691171 
L 335.276282 207.929923 
L 335.559675 208.817357 
L 335.843068 208.366882 
L 336.12646 207.092041 
L 336.409853 208.704738 
L 336.693245 207.736219 
L 336.976638 202.848575 
L 337.26003 202.127816 
L 337.543423 199.830399 
L 338.110208 173.792997 
L 338.393601 173.792997 
L 338.960386 181.315914 
L 339.243779 181.451056 
L 339.527171 182.577242 
L 339.810564 180.752822 
L 343.494667 179.671684 
L 343.77806 179.018496 
L 344.061453 179.176162 
L 344.344845 180.054587 
L 344.628238 180.550108 
L 344.91163 180.054587 
L 345.195023 180.392442 
L 345.478415 180.505061 
L 346.045201 182.68986 
L 346.328593 184.874659 
L 346.611986 185.572894 
L 346.895378 185.865702 
L 347.178771 185.392705 
L 347.745556 187.622551 
L 348.312341 189.514542 
L 348.595734 189.401924 
L 349.729304 193.794046 
L 350.012697 194.672471 
L 350.296089 194.807613 
L 350.579482 195.753608 
L 350.862875 194.920231 
L 351.146267 197.307744 
L 351.713052 196.519414 
L 351.996445 196.800961 
L 352.279837 197.523971 
L 352.56323 196.956374 
L 352.846623 197.983455 
L 353.130015 199.605162 
L 353.6968 198.591595 
L 354.263586 199.807875 
L 354.546978 201.091726 
L 354.830371 200.911536 
L 355.113763 201.497153 
L 355.397156 202.353054 
L 355.680549 202.105293 
L 356.247334 204.76309 
L 356.530726 205.236088 
L 356.814119 207.781266 
L 357.097511 206.470387 
L 357.380904 203.862142 
L 357.664297 205.227078 
L 357.947689 204.267568 
L 358.514474 207.713695 
L 358.797867 205.855489 
L 359.364652 206.632557 
L 359.648045 205.929818 
L 359.931437 207.781266 
L 360.498222 207.173126 
L 360.781615 205.911799 
L 361.065008 207.173126 
L 361.3484 207.80379 
L 361.631793 207.083031 
L 361.915185 207.871361 
L 362.481971 207.218174 
L 362.765363 207.375839 
L 363.048756 207.105555 
L 363.332148 208.029027 
L 363.615541 209.493068 
L 364.182326 205.889275 
L 364.465719 205.281135 
L 364.749111 206.722652 
L 365.032504 206.091988 
L 365.315896 207.218174 
L 365.599289 207.200155 
L 365.882682 207.362325 
L 366.166074 206.992937 
L 366.449467 207.578553 
L 366.732859 206.700128 
L 367.016252 208.065065 
L 367.583037 207.601077 
L 367.86643 207.916408 
L 368.149822 207.736219 
L 368.433215 207.758742 
L 369 208.614643 
L 369.283393 208.884928 
L 369.566785 209.921018 
L 369.850178 209.695781 
L 370.13357 209.290354 
L 370.416963 210.05616 
L 370.700356 209.065117 
L 370.983748 210.191302 
L 371.267141 209.659743 
L 371.550533 209.425497 
L 371.833926 210.146255 
L 372.117318 209.988589 
L 372.400711 209.515591 
L 372.684104 207.375839 
L 372.967496 208.682214 
L 373.250889 209.01106 
L 373.534281 208.997546 
L 373.817674 208.772309 
L 374.101067 209.065117 
L 374.384459 208.817357 
L 374.667852 208.997546 
L 374.951244 208.907451 
L 375.234637 209.087641 
L 375.801422 210.529158 
L 376.084815 210.168779 
L 376.368207 211.069727 
L 376.6516 211.28145 
L 376.934992 211.092251 
L 377.218385 211.948151 
L 377.501778 211.227393 
L 377.78517 211.092251 
L 378.068563 210.754395 
L 378.351955 210.191302 
L 379.202133 211.605791 
L 379.485526 212.646386 
L 379.768918 211.182345 
L 380.052311 212.200417 
L 380.335703 212.011218 
L 380.619096 212.804052 
L 380.902489 211.605791 
L 381.185881 212.240959 
L 381.469274 212.578815 
L 381.752666 213.849152 
L 382.036059 213.907714 
L 382.319451 213.840142 
L 382.602844 214.538377 
L 383.169629 213.659953 
L 383.453022 213.88519 
L 383.736414 215.200574 
L 384.019807 215.664562 
L 384.3032 214.650996 
L 384.586592 216.092513 
L 384.869985 215.065432 
L 385.153377 214.538377 
L 385.43677 215.70961 
L 385.720163 215.416802 
L 386.003555 214.470806 
L 386.286948 215.799705 
L 386.57034 214.200522 
L 386.853733 214.605948 
L 387.137125 214.673519 
L 387.420518 214.155474 
L 387.987303 214.538377 
L 388.270696 213.502287 
L 388.837481 215.574468 
L 389.404266 214.605948 
L 389.687659 215.033899 
L 389.971051 214.898757 
L 390.254444 215.506897 
L 390.537836 215.078946 
L 390.821229 215.934847 
L 391.104622 215.822228 
L 391.388014 216.723177 
L 391.671407 214.245569 
L 391.954799 216.524968 
L 392.238192 214.768119 
L 392.521585 216.984451 
L 392.804977 215.065432 
L 393.08837 217.263745 
L 393.371762 216.930395 
L 393.655155 217.106079 
L 393.938547 216.655605 
L 394.22194 216.714167 
L 394.505333 215.349231 
L 394.788725 215.642039 
L 395.072118 215.687086 
L 395.35551 215.551944 
L 395.638903 216.610558 
L 395.922296 215.642039 
L 396.205688 215.506897 
L 396.772473 219.065642 
L 397.055866 216.160084 
L 397.339259 215.912323 
L 397.622651 216.849309 
L 397.906044 214.437021 
L 398.189436 216.452892 
L 398.472829 216.858319 
L 398.756221 212.443673 
L 399.606399 214.437021 
L 399.889792 211.632819 
L 400.456577 218.930499 
L 400.73997 276.872727 
L 401.023362 216.92589 
L 401.306755 215.912323 
L 401.590147 217.092565 
L 402.156932 216.542987 
L 402.723718 218.14217 
L 403.00711 218.299836 
L 403.290503 217.96198 
L 403.573895 218.907976 
L 403.857288 219.290879 
L 404.140681 219.44404 
L 404.424073 218.903471 
L 404.707466 220.079208 
L 404.990858 217.389878 
L 405.274251 216.858319 
L 405.557643 215.551944 
L 405.841036 217.207436 
L 406.124429 215.687086 
L 406.691214 219.065642 
L 406.974606 219.606211 
L 407.541392 220.214351 
L 407.824784 220.912585 
L 408.108177 219.155737 
L 408.391569 219.606211 
L 408.674962 218.75031 
L 408.958354 218.975547 
L 409.52514 218.547597 
L 409.808532 220.191827 
L 410.091925 219.538639 
L 410.65871 221.025204 
L 410.942103 220.056685 
L 411.508888 221.430631 
L 412.642458 222.038771 
L 412.925851 218.254788 
L 413.492636 218.930499 
L 413.776028 219.561163 
L 414.059421 219.335926 
L 414.342814 218.660215 
L 414.626206 220.326969 
L 414.909599 220.518421 
L 415.192991 220.214351 
L 415.476384 220.799967 
L 415.759777 220.529682 
L 416.043169 221.903628 
L 416.326562 222.376626 
L 416.609954 221.160346 
L 416.893347 222.660425 
L 417.176739 222.552311 
L 417.460132 223.052337 
L 417.743525 222.556816 
L 418.026917 222.876652 
L 418.31031 222.737005 
L 418.877095 221.588297 
L 419.160488 222.579339 
L 419.44388 223.018552 
L 419.727273 221.881105 
L 420.010665 222.950981 
L 420.294058 222.106342 
L 420.57745 223.074861 
L 420.860843 223.417221 
L 421.144236 225.687611 
L 421.427628 223.863191 
L 421.711021 224.133475 
L 421.994413 225.113256 
L 422.277806 224.83171 
L 422.561199 225.169565 
L 422.844591 226.228179 
L 423.127984 224.876757 
L 423.411376 226.65613 
L 423.694769 226.205656 
L 423.978162 227.039033 
L 424.261554 227.512031 
L 424.544947 227.09309 
L 425.111732 227.390403 
L 425.395124 225.687611 
L 425.678517 226.160608 
L 425.96191 223.60642 
L 426.245302 224.921805 
L 426.528695 220.957633 
L 426.812087 224.381236 
L 427.378873 224.065904 
L 427.662265 224.065904 
L 427.945658 227.039033 
L 428.22905 225.822753 
L 428.512443 227.552573 
L 428.795835 226.768748 
L 429.362621 228.007552 
L 429.929406 226.336293 
L 430.212798 226.273227 
L 430.496191 226.813796 
L 430.779584 226.836319 
L 431.062976 227.129128 
L 431.346369 227.219222 
L 431.629761 227.714744 
L 431.913154 226.340798 
L 432.196546 223.998333 
L 432.479939 226.340798 
L 432.763332 225.180827 
L 433.330117 227.309317 
L 433.613509 226.984976 
L 433.896902 226.002942 
L 434.180295 226.201151 
L 434.463687 225.372279 
L 434.74708 225.101994 
L 435.030472 226.408369 
L 435.597257 225.101994 
L 435.88065 225.912848 
L 436.164043 225.147042 
L 436.447435 225.417326 
L 436.730828 224.498359 
L 437.01422 224.930814 
L 437.297613 224.291141 
L 437.581006 224.944328 
L 437.864398 225.912848 
L 438.147791 225.849781 
L 438.431183 223.885714 
L 438.714576 224.552416 
L 438.997969 226.498464 
L 439.281361 225.201099 
L 440.131539 223.309107 
L 440.414931 223.255051 
L 440.698324 224.719091 
L 440.981717 222.930709 
L 441.265109 223.822648 
L 441.548502 222.962242 
L 441.831894 224.417274 
L 442.115287 222.804577 
L 442.39868 222.579339 
L 442.682072 221.903628 
L 442.965465 222.737005 
L 443.248857 221.318012 
L 443.53225 222.957738 
L 443.815642 221.858581 
L 444.099035 221.903628 
L 444.382428 222.21896 
L 444.66582 223.683001 
L 444.949213 223.457764 
L 445.232605 223.998333 
L 445.515998 223.930762 
L 445.799391 224.313665 
L 446.082783 223.728048 
L 446.366176 225.957895 
L 446.649568 225.011899 
L 446.932961 225.755182 
L 447.216353 225.574992 
L 447.499746 224.786662 
L 447.783139 225.124518 
L 448.066531 224.426283 
L 448.349924 225.169565 
L 448.633316 224.246094 
L 448.916709 223.750572 
L 449.200102 223.998333 
L 449.483494 222.759529 
L 450.050279 222.534292 
L 450.617064 220.484635 
L 450.900457 220.439588 
L 451.18385 219.628734 
L 451.467242 220.124256 
L 451.750635 219.7864 
L 452.034027 220.777443 
L 452.31742 220.980157 
L 452.600813 220.980157 
L 452.884205 220.845014 
L 453.167598 221.205394 
L 453.45099 221.18287 
L 453.734383 221.8766 
L 454.017776 221.971199 
L 454.301168 222.489245 
L 454.584561 221.993723 
L 454.867953 221.836057 
L 455.434738 221.993723 
L 455.718131 220.912585 
L 456.001524 221.205394 
L 456.284916 220.935109 
L 456.568309 221.047728 
L 456.851701 221.475678 
L 457.418487 223.052337 
L 457.985272 222.511768 
L 458.268664 223.525335 
L 458.552057 222.759529 
L 458.835449 222.939719 
L 459.118842 223.660477 
L 459.402235 223.908238 
L 459.685627 224.83171 
L 459.96902 225.101994 
L 460.535805 224.516378 
L 460.819198 223.930762 
L 461.10259 224.714587 
L 461.385983 223.795619 
L 461.669375 223.930762 
L 461.952768 222.417169 
L 462.23616 222.173913 
L 462.519553 222.714482 
L 462.802946 222.962242 
L 463.086338 224.201046 
L 463.369731 222.737005 
L 463.653123 223.074861 
L 463.936516 222.962242 
L 464.219909 223.480288 
L 464.503301 222.984766 
L 464.786694 223.322622 
L 465.070086 221.926152 
L 465.353479 222.601863 
L 465.636872 222.579339 
L 465.920264 219.493592 
L 466.770442 217.916933 
L 467.053834 216.227655 
L 467.337227 215.551944 
L 467.62062 215.461849 
L 467.904012 218.75031 
L 468.187405 216.430368 
L 468.470797 216.31775 
L 468.75419 216.464154 
L 469.037583 219.525125 
L 469.320975 219.313402 
L 469.604368 218.592644 
L 469.88776 218.254788 
L 470.171153 218.412454 
L 470.454545 218.389931 
L 470.737938 219.583687 
L 471.021331 219.380974 
L 471.304723 220.101732 
L 471.588116 221.926152 
L 471.871508 221.137822 
L 472.154901 221.385583 
L 472.438294 221.318012 
L 472.721686 222.74151 
L 473.571864 219.200784 
L 473.855256 219.335926 
L 474.138649 218.930499 
L 474.705434 216.633082 
L 474.988827 220.417064 
L 475.272219 218.164694 
L 475.555612 219.696305 
L 475.839005 223.633449 
L 476.122397 222.264008 
L 476.40579 222.556816 
L 476.689182 221.18287 
L 477.255967 221.047728 
L 477.53936 222.511768 
L 478.106145 221.475678 
L 478.389538 223.029814 
L 478.67293 223.457764 
L 479.239716 221.261703 
L 479.523108 222.876652 
L 479.806501 222.782053 
L 480.089893 220.642301 
L 480.373286 217.308793 
L 480.940071 219.944066 
L 481.223464 219.403497 
L 481.506856 220.619777 
L 482.073641 221.363059 
L 482.357034 223.255051 
L 482.640427 224.291141 
L 483.207212 223.43524 
L 483.490604 223.570382 
L 483.773997 224.989376 
L 484.05739 224.381236 
L 484.340782 225.372279 
L 484.624175 225.383541 
L 484.907567 226.881367 
L 485.19096 226.025466 
L 485.474352 226.120066 
L 485.757745 227.016509 
L 486.041138 225.529945 
L 486.32453 225.890324 
L 486.607923 225.484897 
L 486.891315 223.633449 
L 487.174708 223.390193 
L 488.024886 226.498464 
L 488.308278 234.336713 
L 488.591671 225.237137 
L 488.875063 225.620039 
L 489.158456 228.435502 
L 489.441849 227.376888 
L 489.725241 224.471331 
L 490.292026 227.174175 
L 490.575419 226.65613 
L 490.858812 227.016509 
L 491.425597 228.201256 
L 491.708989 227.804839 
L 491.992382 226.926414 
L 492.275775 226.543511 
L 492.559167 227.129128 
L 492.84256 229.69683 
L 493.125952 228.232789 
L 493.409345 229.381498 
L 493.692737 226.430893 
L 493.97613 228.660739 
L 494.259523 226.059252 
L 494.542915 226.282236 
L 495.1097 223.840667 
L 495.393093 226.971462 
L 496.243271 224.957843 
L 496.526663 226.802534 
L 497.093448 226.430893 
L 497.376841 227.08408 
L 497.660234 226.65613 
L 497.943626 225.890324 
L 498.227019 227.822858 
L 498.510411 219.290879 
L 498.793804 216.565511 
L 499.077197 217.376364 
L 499.643982 219.899019 
L 499.927374 220.714377 
L 500.210767 215.930342 
L 500.494159 215.254631 
L 500.777552 215.524915 
L 501.060945 217.939457 
L 501.62773 219.290879 
L 501.911122 218.065589 
L 502.194515 218.389931 
L 502.7613 217.87639 
L 503.044693 216.858319 
L 503.328085 216.970937 
L 503.89487 216.610558 
L 504.178263 215.236612 
L 504.461656 214.49333 
L 505.595226 217.061032 
L 505.878619 216.565511 
L 506.162011 217.015985 
L 506.728796 215.173546 
L 507.012189 213.686981 
L 507.295582 213.659953 
L 507.578974 213.795095 
L 507.862367 213.173441 
L 508.145759 214.245569 
L 508.712544 212.286007 
L 508.995937 213.903209 
L 509.27933 210.011113 
L 509.562722 199.244782 
L 510.129507 188.478452 
L 510.696293 177.284171 
L 510.979685 176.270605 
L 511.263078 177.757169 
L 511.54647 176.968839 
L 512.113255 172.35148 
L 512.396648 173.702902 
L 512.680041 172.306433 
L 512.963433 169.130591 
L 513.246826 168.207119 
L 514.097004 161.945529 
L 514.380396 157.418265 
L 514.947181 153.972138 
L 515.230574 150.120585 
L 515.513966 148.498878 
L 516.080752 144.241898 
L 516.364144 143.284641 
L 524.865922 136.178412 
L 525.149314 136.899171 
L 525.432707 138.318164 
L 525.7161 138.250593 
L 525.999492 138.363211 
L 526.282885 138.926304 
L 526.566277 139.016399 
L 526.84967 138.948828 
L 527.133062 139.196588 
L 527.416455 138.836209 
L 527.699848 138.858733 
L 527.98324 139.421825 
L 528.266633 140.322774 
L 528.550025 140.795771 
L 528.833418 140.885866 
L 529.116811 141.494006 
L 529.400203 140.367821 
L 529.683596 142.597668 
L 529.966988 142.912999 
L 530.250381 142.642715 
L 530.533773 144.624801 
L 530.817166 143.250855 
L 531.100559 143.836471 
L 531.383951 144.151803 
L 531.667344 145.097799 
L 531.950736 145.503225 
L 532.234129 147.823167 
L 532.517522 148.341212 
L 532.800914 149.444874 
L 533.084307 149.782729 
L 533.651092 152.012576 
L 533.934485 152.350431 
L 534.217877 152.936048 
L 534.50127 153.228856 
L 534.784662 153.724377 
L 535.068055 153.363998 
L 535.351447 153.814472 
L 535.63484 153.116237 
L 535.918233 153.228856 
L 536.201625 152.755858 
L 536.485018 152.936048 
L 536.76841 152.620716 
L 537.618588 154.918134 
L 538.185373 157.778644 
L 538.752158 159.738206 
L 539.035551 161.720292 
L 539.318944 161.742816 
L 539.602336 162.62124 
L 539.885729 162.733859 
L 540.169121 163.995186 
L 540.452514 164.107805 
L 540.735907 164.400613 
L 541.019299 166.044843 
L 541.586084 166.990839 
L 541.869477 166.743078 
L 542.152869 167.283647 
L 542.719655 169.693683 
L 543.003047 168.590022 
L 543.28644 168.590022 
L 543.569832 169.265733 
L 543.853225 170.482013 
L 544.136618 170.572108 
L 544.42001 170.909963 
L 544.703403 172.103719 
L 544.986795 172.486622 
L 545.270188 173.117286 
L 545.836973 175.910225 
L 546.403758 175.977796 
L 547.820721 182.104244 
L 548.104114 180.955535 
L 548.387506 181.383485 
L 548.670899 182.442099 
L 548.954292 184.807088 
L 549.237684 184.671946 
L 549.521077 184.69447 
L 549.804469 184.604375 
L 550.087862 185.527847 
L 550.371254 185.617942 
L 550.654647 186.811698 
L 551.221432 186.473842 
L 551.788217 187.149554 
L 552.07161 186.676556 
L 552.355003 187.667599 
L 552.638395 186.451319 
L 552.921788 186.744127 
L 553.488573 186.856745 
L 554.055358 185.392705 
L 554.622143 181.586199 
L 555.188928 178.185119 
L 555.755714 178.500451 
L 556.322499 181.113201 
L 556.605891 179.919445 
L 557.172676 174.153376 
L 557.456069 172.824478 
L 557.739462 170.301823 
L 558.022854 169.581065 
L 558.306247 170.211728 
L 558.589639 171.901006 
L 559.439817 174.063282 
L 559.72321 173.522713 
L 560.006602 173.792997 
L 560.289995 174.220948 
L 560.573388 171.428008 
L 561.140173 164.760992 
L 561.423565 162.80143 
L 561.706958 76.44555 
L 561.99035 159.310256 
L 562.273743 160.166156 
L 562.557136 159.287732 
L 563.123921 160.458965 
L 563.407313 160.346346 
L 563.690706 162.215814 
L 563.974099 161.900482 
L 564.257491 162.418527 
L 564.824276 161.877958 
L 565.391061 163.094238 
L 565.674454 163.161809 
L 566.241239 163.882568 
L 566.524632 164.513231 
L 566.808024 163.860044 
L 567.941595 166.517841 
L 568.224987 165.324085 
L 568.50838 166.585412 
L 568.791772 165.797082 
L 569.075165 166.382699 
L 569.358558 166.089891 
L 569.64195 165.414179 
L 569.925343 167.103457 
L 570.208735 167.418789 
L 570.492128 166.562888 
L 570.775521 167.05841 
L 571.058913 167.05841 
L 571.625698 166.45027 
L 571.909091 166.652983 
L 572.192483 165.977272 
L 572.475876 166.044843 
L 572.759269 166.585412 
L 573.042661 166.698031 
L 573.326054 166.968315 
L 573.609446 166.044843 
L 573.892839 166.134938 
L 574.176232 167.125981 
L 574.459624 167.171028 
L 574.743017 167.013362 
L 575.026409 167.711597 
L 575.309802 168.026929 
L 575.593195 168.026929 
L 575.876587 167.66655 
L 576.15998 168.342261 
L 576.726765 168.387308 
L 577.010157 168.387308 
L 577.29355 167.621502 
L 577.576943 167.801692 
L 577.860335 167.125981 
L 578.143728 167.48636 
L 578.42712 167.621502 
L 578.710513 167.238599 
L 578.993906 167.981882 
L 579.277298 167.644026 
L 579.560691 166.360175 
L 579.844083 167.373742 
L 580.127476 166.247556 
L 580.410868 166.923268 
L 580.977654 167.013362 
L 581.261046 167.463836 
L 581.544439 167.05841 
L 582.111224 167.734121 
L 582.394617 167.553931 
L 582.961402 164.535755 
L 583.244794 163.972662 
L 583.811579 161.630197 
L 584.094972 161.382436 
L 584.378365 160.233728 
L 584.661757 161.337389 
L 584.94515 160.594107 
L 585.228542 161.269818 
L 585.795328 160.571583 
L 586.07872 161.495055 
L 586.362113 161.968053 
L 586.645505 162.846477 
L 586.928898 161.832911 
L 587.779076 163.634807 
L 588.062468 163.589759 
L 588.345861 163.972662 
L 588.629253 163.634807 
L 588.912646 164.220423 
L 589.196039 165.098848 
L 589.479431 164.44566 
L 589.762824 164.693421 
L 590.046216 166.405222 
L 590.329609 165.211466 
L 590.896394 166.855696 
L 591.179787 165.819606 
L 591.463179 166.27008 
L 591.746572 166.360175 
L 592.029964 166.968315 
L 592.313357 168.88283 
L 592.59675 169.175638 
L 592.880142 169.153114 
L 593.163535 169.716207 
L 593.446927 171.000058 
L 593.73032 170.436965 
L 594.013713 170.864916 
L 594.297105 171.045105 
L 594.580498 171.360437 
L 594.86389 171.180248 
L 595.714068 173.387571 
L 595.997461 173.522713 
L 596.564246 172.013625 
L 596.847638 171.698293 
L 597.697816 168.950401 
L 598.547994 167.261123 
L 598.831386 168.319737 
L 599.114779 167.936834 
L 599.398172 167.824216 
L 599.964957 166.968315 
L 600.248349 166.810649 
L 600.531742 166.923268 
L 600.815135 167.689074 
L 601.38192 167.103457 
L 601.665312 167.463836 
L 601.948705 166.337651 
L 602.232098 166.540365 
L 602.51549 167.080934 
L 602.798883 166.923268 
L 603.082275 168.319737 
L 603.365668 168.88283 
L 603.64906 168.88283 
L 603.932453 169.288256 
L 604.215846 170.09911 
L 604.499238 170.279299 
L 604.782631 171.653245 
L 605.066023 171.855959 
L 605.632809 171.991101 
L 605.916201 172.847002 
L 606.199594 172.374004 
L 606.482986 173.702902 
L 606.766379 173.432618 
L 607.333164 174.648898 
L 607.616557 174.491232 
L 607.899949 175.887702 
L 608.183342 175.684988 
L 608.466734 177.058934 
L 609.316912 168.049453 
L 609.600305 168.026929 
L 609.883697 167.891787 
L 610.450482 165.706988 
L 611.017268 164.152852 
L 611.584053 162.260861 
L 611.867445 162.531145 
L 612.717623 160.36887 
L 613.001016 158.724639 
L 613.284408 159.15259 
L 613.567801 158.702116 
L 613.851193 159.265208 
L 614.134586 158.679592 
L 614.417979 158.657068 
L 614.701371 158.161547 
L 614.984764 158.499402 
L 615.551549 157.981357 
L 615.834942 157.057885 
L 616.118334 156.810125 
L 616.401727 157.666025 
L 616.685119 157.080409 
L 616.968512 157.666025 
L 617.251905 157.215551 
L 617.535297 156.337127 
L 618.102082 157.418265 
L 618.385475 158.386784 
L 619.235653 157.102933 
L 619.519045 157.598454 
L 619.802438 158.341736 
L 620.08583 158.116499 
L 620.369223 159.490445 
L 620.652616 159.107542 
L 620.936008 159.242685 
L 621.219401 159.738206 
L 621.502793 159.039971 
L 621.786186 160.391394 
L 622.069578 159.310256 
L 622.636364 159.839563 
L 622.636364 159.839563 
" clip-path="url(#p4b0d60b8f7)" style="fill: none; stroke: #1f77b4; stroke-width: 1.5; stroke-linecap: square"/>
   </g>
   <g id="line2d_14">
    <path d="M 115.363636 202.728444 
L 115.930422 203.810758 
L 116.213814 195.348182 
L 119.614525 196.133704 
L 120.18131 192.994375 
L 120.464703 193.153933 
L 121.031488 192.918201 
L 121.598273 192.810208 
L 122.731844 192.994397 
L 123.015236 204.76309 
L 126.69934 205.359317 
L 127.266125 204.517446 
L 127.549518 202.70282 
L 128.116303 197.657921 
L 128.399695 197.580907 
L 129.533266 184.918135 
L 129.816658 207.01546 
L 130.100051 203.153349 
L 130.383443 202.073674 
L 130.666836 202.567168 
L 132.083799 202.905898 
L 133.500762 203.085312 
L 134.35094 203.127063 
L 136.334688 203.443299 
L 136.61808 201.271916 
L 143.13611 202.390724 
L 143.419502 211.092251 
L 146.536821 211.521756 
L 147.103606 212.818556 
L 147.386998 212.842875 
L 147.953784 211.682721 
L 148.237176 211.007453 
L 148.520569 208.865767 
L 149.087354 189.730481 
L 149.654139 215.060624 
L 149.937532 217.98816 
L 150.220924 190.730822 
L 151.071102 164.873344 
L 151.637887 152.384633 
L 156.738954 79.362012 
L 157.022346 133.205283 
L 158.722702 112.714892 
L 160.423057 94.882617 
L 161.84002 82.133585 
L 163.256983 71.247095 
L 163.540376 69.284651 
L 163.823768 100.951339 
L 166.374302 102.594121 
L 166.657694 101.069364 
L 166.941087 98.656645 
L 167.507872 91.444835 
L 167.791265 90.306333 
L 168.074657 90.601387 
L 168.35805 91.334193 
L 168.641442 90.926925 
L 168.924835 90.248904 
L 169.208228 90.441795 
L 169.49162 90.972601 
L 170.058405 90.963043 
L 170.341798 91.0947 
L 170.62519 68.855062 
L 177.14322 73.532944 
L 177.426612 64.778271 
L 182.811072 68.899189 
L 183.377857 68.707396 
L 183.944642 69.241688 
L 184.228035 57.548162 
L 193.296597 64.586711 
L 197.547486 67.816064 
L 197.830879 109.983345 
L 204.348908 113.870485 
L 204.632301 136.628886 
L 206.899441 145.392391 
L 207.182834 145.316863 
L 207.466227 145.10131 
L 208.033012 147.192928 
L 210.583545 157.020149 
L 212.000508 162.035462 
L 212.2839 162.133239 
L 212.567293 162.439977 
L 215.117826 171.698081 
L 216.534789 176.374946 
L 216.818182 176.821452 
L 217.101574 175.658613 
L 217.384967 175.269317 
L 219.368715 182.31101 
L 225.036567 201.497479 
L 228.72067 215.088089 
L 233.821737 234.903683 
L 238.356018 252.807446 
L 238.639411 128.880732 
L 242.323514 142.805168 
L 245.15744 153.864022 
L 245.440833 61.151955 
L 247.991366 68.032331 
L 248.558151 69.534982 
L 249.408329 71.609256 
L 249.975114 74.403096 
L 250.258507 74.746459 
L 250.541899 76.017929 
L 250.825292 76.100783 
L 251.108685 75.400074 
L 251.392077 75.361965 
L 251.67547 75.652661 
L 251.958862 76.414304 
L 252.242255 136.020746 
L 253.375825 138.613929 
L 257.343321 146.492317 
L 258.760284 149.19834 
L 259.043677 153.454093 
L 263.577958 153.833751 
L 270.095988 154.62968 
L 280.581513 156.165358 
L 287.382936 157.208742 
L 287.666328 189.98754 
L 291.917217 197.402882 
L 292.767395 198.828351 
L 293.050787 192.104768 
L 296.734891 201.760156 
L 297.868461 204.757932 
L 298.151854 205.956179 
L 298.718639 205.097436 
L 299.285424 206.691983 
L 300.702387 210.127028 
L 301.835957 212.537183 
L 303.536313 215.657462 
L 304.103098 213.360254 
L 304.386491 214.04384 
L 304.669883 214.041982 
L 304.953276 214.381677 
L 305.236668 213.006186 
L 305.520061 212.509242 
L 306.086846 204.990307 
L 306.370239 206.30791 
L 306.653631 206.533098 
L 307.503809 207.661829 
L 308.353987 208.473706 
L 308.637379 208.527741 
L 309.204165 208.167693 
L 310.90452 206.621955 
L 312.604876 205.183988 
L 314.021838 204.270195 
L 315.155409 203.763494 
L 316.288979 203.465209 
L 317.42255 203.374745 
L 318.55612 203.486382 
L 319.68969 203.791118 
L 321.106653 204.426595 
L 322.523616 205.322267 
L 324.223972 206.704709 
L 325.924327 208.381183 
L 327.908075 210.652118 
L 330.175216 213.586286 
L 333.009142 217.639825 
L 336.693245 223.336285 
L 339.810564 228.364407 
L 343.494667 178.522975 
L 344.628238 177.40299 
L 345.478415 176.897175 
L 347.745556 175.445891 
L 349.445912 174.661657 
L 350.012697 174.430347 
L 350.296089 174.156665 
L 350.579482 174.166066 
L 350.862875 194.740042 
L 352.846623 193.434279 
L 354.546978 192.725813 
L 355.963941 192.373459 
L 356.247334 192.332841 
L 356.530726 203.118859 
L 357.947689 203.070805 
L 359.364652 203.278665 
L 360.781615 203.731442 
L 362.198578 204.410693 
L 363.048756 204.917527 
L 363.332148 207.375839 
L 369.850178 207.560933 
L 370.13357 210.754395 
L 374.384459 210.919996 
L 374.667852 210.677737 
L 374.951244 210.194346 
L 375.234637 210.033811 
L 376.6516 210.178225 
L 376.934992 210.619253 
L 377.501778 210.664752 
L 378.635348 209.823192 
L 378.91874 209.714757 
L 379.202133 209.80847 
L 379.485526 209.668222 
L 380.335703 207.608594 
L 380.619096 207.324325 
L 381.185881 207.214077 
L 382.886237 207.175264 
L 383.453022 207.166305 
L 383.736414 213.051813 
L 385.720163 212.647516 
L 389.404266 212.008712 
L 390.254444 211.894783 
L 390.537836 214.470806 
L 392.238192 217.354987 
L 395.922296 224.025138 
L 396.489081 224.74492 
L 397.055866 225.836454 
L 397.339259 217.984504 
L 397.622651 217.217539 
L 397.906044 217.030642 
L 398.189436 217.164107 
L 398.756221 215.902999 
L 399.606399 214.128201 
L 399.889792 214.075376 
L 400.456577 213.095078 
L 401.590147 212.886898 
L 403.857288 212.591967 
L 404.140681 218.930499 
L 406.974606 218.661246 
L 411.508888 217.771492 
L 412.642458 220.688581 
L 417.460132 220.290656 
L 417.743525 220.267722 
L 418.026917 223.255051 
L 427.662265 223.062515 
L 431.062976 223.026404 
L 431.346369 226.194394 
L 433.046724 226.197648 
L 433.613509 226.377349 
L 434.180295 226.256893 
L 434.74708 226.309144 
L 435.030472 226.371765 
L 436.447435 226.18977 
L 437.581006 226.069112 
L 437.864398 225.990613 
L 438.147791 224.944328 
L 438.714576 224.933481 
L 439.564754 224.93364 
L 439.848146 224.835667 
L 440.131539 224.899032 
L 440.414931 223.526352 
L 440.698324 223.42511 
L 441.265109 216.556201 
L 441.548502 216.58158 
L 441.831894 216.463146 
L 442.682072 215.120344 
L 442.965465 215.263772 
L 443.248857 215.205789 
L 443.53225 213.270209 
L 443.815642 208.325379 
L 444.099035 205.432011 
L 444.382428 206.356367 
L 445.232605 198.306062 
L 445.515998 196.349372 
L 445.799391 197.081186 
L 446.082783 197.266893 
L 446.366176 223.998333 
L 447.783139 223.522659 
L 448.066531 225.383541 
L 450.333672 223.034452 
L 450.900457 220.609606 
L 451.467242 219.879417 
L 451.750635 219.977852 
L 452.31742 217.994742 
L 452.884205 216.977069 
L 454.017776 215.418425 
L 455.718131 212.565348 
L 456.851701 211.211969 
L 461.10259 206.841 
L 464.219909 202.867295 
L 465.070086 202.038211 
L 465.353479 223.221265 
L 469.320975 222.936319 
L 477.822753 222.627262 
L 478.67293 222.615621 
L 479.239716 223.061342 
L 484.340782 226.410601 
L 485.474352 227.182988 
L 485.757745 225.552468 
L 492.559167 230.323891 
L 492.84256 226.870105 
L 495.676486 226.85145 
L 497.093448 226.237168 
L 497.660234 225.290756 
L 498.227019 225.616507 
L 498.510411 223.937083 
L 499.360589 215.498036 
L 499.643982 216.700653 
L 499.927374 216.687579 
L 500.210767 216.090593 
L 500.494159 214.388187 
L 501.344337 205.150066 
L 502.194515 198.338333 
L 502.7613 195.440994 
L 503.328085 192.924163 
L 504.178263 190.597227 
L 505.028441 187.191873 
L 505.878619 184.457645 
L 506.162011 216.903366 
L 508.995937 201.481594 
L 512.680041 182.979934 
L 512.963433 173.286214 
L 513.530218 170.783184 
L 515.230574 161.568886 
L 515.797359 159.337094 
L 516.364144 157.60379 
L 524.865922 157.494017 
L 526.566277 158.982067 
L 527.98324 160.473947 
L 529.683596 162.596206 
L 531.667344 165.448313 
L 533.084307 167.692603 
L 533.367699 148.791686 
L 535.918233 155.031562 
L 536.485018 156.968095 
L 537.335196 159.895137 
L 539.885729 166.381452 
L 540.169121 162.947834 
L 541.586084 166.711661 
L 546.687151 179.910511 
L 546.970543 175.820131 
L 553.488573 192.702971 
L 553.771965 186.766651 
L 554.905536 190.556039 
L 555.472321 191.816028 
L 556.889284 195.411887 
L 557.172676 196.27218 
L 557.456069 198.467874 
L 557.739462 198.042772 
L 558.306247 189.069916 
L 558.589639 186.953752 
L 558.873032 187.076665 
L 559.156425 186.922314 
L 559.439817 187.293966 
L 560.573388 190.217108 
L 560.85678 174.063282 
L 561.99035 169.726459 
L 563.407313 165.126885 
L 567.091417 157.229109 
L 567.37481 163.623545 
L 572.475876 143.479143 
L 573.609446 140.701953 
L 573.892839 140.138492 
L 574.176232 166.292604 
L 574.743017 166.878012 
L 575.593195 168.160948 
L 576.726765 170.325238 
L 578.42712 174.339995 
L 580.694261 180.165062 
L 580.977654 166.765602 
L 585.511935 179.378043 
L 587.495683 185.099845 
L 587.779076 162.711335 
L 591.746572 174.622892 
L 592.029964 175.083204 
L 592.313357 175.81221 
L 592.59675 175.870486 
L 592.880142 175.61327 
L 593.73032 178.181415 
L 594.297105 179.885708 
L 594.580498 171.225295 
L 595.430675 173.802204 
L 595.714068 174.494665 
L 595.997461 174.886446 
L 596.280853 175.067074 
L 596.564246 174.433811 
L 597.131031 176.89173 
L 597.414424 176.763872 
L 597.697816 176.370794 
L 598.264601 174.204572 
L 598.547994 173.84566 
L 598.831386 173.73819 
L 599.114779 174.092241 
L 600.248349 174.695844 
L 600.531742 174.738726 
L 601.098527 174.649956 
L 601.38192 167.373742 
L 601.665312 166.949518 
L 601.948705 166.873432 
L 602.798883 167.384665 
L 605.632809 168.876246 
L 607.616557 170.260876 
L 607.899949 170.480994 
L 608.183342 174.367352 
L 609.600305 174.694633 
L 610.16709 174.885521 
L 610.450482 175.347237 
L 611.584053 178.477174 
L 612.150838 180.510386 
L 612.717623 181.887052 
L 613.567801 182.609235 
L 614.701371 183.404904 
L 614.984764 158.657068 
L 616.685119 157.744102 
L 618.668867 156.948762 
L 620.936008 156.292915 
L 621.502793 156.160805 
L 621.786186 159.670635 
L 622.636364 161.459393 
L 622.636364 161.459393 
" clip-path="url(#p4b0d60b8f7)" style="fill: none; stroke: #ff7f0e; stroke-width: 1.5; stroke-linecap: square"/>
   </g>
   <g id="patch_3">
    <path d="M 90 288 
L 90 43.2 
" style="fill: none; stroke: #000000; stroke-width: 0.8; stroke-linejoin: miter; stroke-linecap: square"/>
   </g>
   <g id="patch_4">
    <path d="M 648 288 
L 648 43.2 
" style="fill: none; stroke: #000000; stroke-width: 0.8; stroke-linejoin: miter; stroke-linecap: square"/>
   </g>
   <g id="patch_5">
    <path d="M 90 288 
L 648 288 
" style="fill: none; stroke: #000000; stroke-width: 0.8; stroke-linejoin: miter; stroke-linecap: square"/>
   </g>
   <g id="patch_6">
    <path d="M 90 43.2 
L 648 43.2 
" style="fill: none; stroke: #000000; stroke-width: 0.8; stroke-linejoin: miter; stroke-linecap: square"/>
   </g>
   <g id="text_14">
    <!-- MDOT4932 -->
    <g transform="translate(335.545313 37.2) scale(0.12 -0.12)">
     <defs>
      <path id="DejaVuSans-44" d="M 1259 4147 
L 1259 519 
L 2022 519 
Q 2988 519 3436 956 
Q 3884 1394 3884 2338 
Q 3884 3275 3436 3711 
Q 2988 4147 2022 4147 
L 1259 4147 
z
M 628 4666 
L 1925 4666 
Q 3281 4666 3915 4102 
Q 4550 3538 4550 2338 
Q 4550 1131 3912 565 
Q 3275 0 1925 0 
L 628 0 
L 628 4666 
z
" transform="scale(0.015625)"/>
      <path id="DejaVuSans-4f" d="M 2522 4238 
Q 1834 4238 1429 3725 
Q 1025 3213 1025 2328 
Q 1025 1447 1429 934 
Q 1834 422 2522 422 
Q 3209 422 3611 934 
Q 4013 1447 4013 2328 
Q 4013 3213 3611 3725 
Q 3209 4238 2522 4238 
z
M 2522 4750 
Q 3503 4750 4090 4092 
Q 4678 3434 4678 2328 
Q 4678 1225 4090 567 
Q 3503 -91 2522 -91 
Q 1538 -91 948 565 
Q 359 1222 359 2328 
Q 359 3434 948 4092 
Q 1538 4750 2522 4750 
z
" transform="scale(0.015625)"/>
      <path id="DejaVuSans-54" d="M -19 4666 
L 3928 4666 
L 3928 4134 
L 2272 4134 
L 2272 0 
L 1638 0 
L 1638 4134 
L -19 4134 
L -19 4666 
z
" transform="scale(0.015625)"/>
      <path id="DejaVuSans-34" d="M 2419 4116 
L 825 1625 
L 2419 1625 
L 2419 4116 
z
M 2253 4666 
L 3047 4666 
L 3047 1625 
L 3713 1625 
L 3713 1100 
L 3047 1100 
L 3047 0 
L 2419 0 
L 2419 1100 
L 313 1100 
L 313 1709 
L 2253 4666 
z
" transform="scale(0.015625)"/>
     </defs>
     <use xlink:href="#DejaVuSans-4d"/>
     <use xlink:href="#DejaVuSans-44" x="86.279297"/>
     <use xlink:href="#DejaVuSans-4f" x="163.28125"/>
     <use xlink:href="#DejaVuSans-54" x="241.992188"/>
     <use xlink:href="#DejaVuSans-34" x="303.076172"/>
     <use xlink:href="#DejaVuSans-39" x="366.699219"/>
     <use xlink:href="#DejaVuSans-33" x="430.322266"/>
     <use xlink:href="#DejaVuSans-32" x="493.945312"/>
    </g>
   </g>
   <g id="legend_1">
    <g id="patch_7">
     <path d="M 559.04375 283 
L 641 283 
Q 643 283 643 281 
L 643 252.64375 
Q 643 250.64375 641 250.64375 
L 559.04375 250.64375 
Q 557.04375 250.64375 557.04375 252.64375 
L 557.04375 281 
Q 557.04375 283 559.04375 283 
z
" style="fill: #ffffff; opacity: 0.8; stroke: #cccccc; stroke-linejoin: miter"/>
    </g>
    <g id="line2d_15">
     <path d="M 561.04375 258.742188 
L 571.04375 258.742188 
L 581.04375 258.742188 
" style="fill: none; stroke: #1f77b4; stroke-width: 1.5; stroke-linecap: square"/>
    </g>
    <g id="text_15">
     <!-- measured -->
     <g transform="translate(589.04375 262.242188) scale(0.1 -0.1)">
      <defs>
       <path id="DejaVuSans-6d" d="M 3328 2828 
Q 3544 3216 3844 3400 
Q 4144 3584 4550 3584 
Q 5097 3584 5394 3201 
Q 5691 2819 5691 2113 
L 5691 0 
L 5113 0 
L 5113 2094 
Q 5113 2597 4934 2840 
Q 4756 3084 4391 3084 
Q 3944 3084 3684 2787 
Q 3425 2491 3425 1978 
L 3425 0 
L 2847 0 
L 2847 2094 
Q 2847 2600 2669 2842 
Q 2491 3084 2119 3084 
Q 1678 3084 1418 2786 
Q 1159 2488 1159 1978 
L 1159 0 
L 581 0 
L 581 3500 
L 1159 3500 
L 1159 2956 
Q 1356 3278 1631 3431 
Q 1906 3584 2284 3584 
Q 2666 3584 2933 3390 
Q 3200 3197 3328 2828 
z
" transform="scale(0.015625)"/>
       <path id="DejaVuSans-61" d="M 2194 1759 
Q 1497 1759 1228 1600 
Q 959 1441 959 1056 
Q 959 750 1161 570 
Q 1363 391 1709 391 
Q 2188 391 2477 730 
Q 2766 1069 2766 1631 
L 2766 1759 
L 2194 1759 
z
M 3341 1997 
L 3341 0 
L 2766 0 
L 2766 531 
Q 2569 213 2275 61 
Q 1981 -91 1556 -91 
Q 1019 -91 701 211 
Q 384 513 384 1019 
Q 384 1609 779 1909 
Q 1175 2209 1959 2209 
L 2766 2209 
L 2766 2266 
Q 2766 2663 2505 2880 
Q 2244 3097 1772 3097 
Q 1472 3097 1187 3025 
Q 903 2953 641 2809 
L 641 3341 
Q 956 3463 1253 3523 
Q 1550 3584 1831 3584 
Q 2591 3584 2966 3190 
Q 3341 2797 3341 1997 
z
" transform="scale(0.015625)"/>
       <path id="DejaVuSans-75" d="M 544 1381 
L 544 3500 
L 1119 3500 
L 1119 1403 
Q 1119 906 1312 657 
Q 1506 409 1894 409 
Q 2359 409 2629 706 
Q 2900 1003 2900 1516 
L 2900 3500 
L 3475 3500 
L 3475 0 
L 2900 0 
L 2900 538 
Q 2691 219 2414 64 
Q 2138 -91 1772 -91 
Q 1169 -91 856 284 
Q 544 659 544 1381 
z
M 1991 3584 
L 1991 3584 
z
" transform="scale(0.015625)"/>
       <path id="DejaVuSans-64" d="M 2906 2969 
L 2906 4863 
L 3481 4863 
L 3481 0 
L 2906 0 
L 2906 525 
Q 2725 213 2448 61 
Q 2172 -91 1784 -91 
Q 1150 -91 751 415 
Q 353 922 353 1747 
Q 353 2572 751 3078 
Q 1150 3584 1784 3584 
Q 2172 3584 2448 3432 
Q 2725 3281 2906 2969 
z
M 947 1747 
Q 947 1113 1208 752 
Q 1469 391 1925 391 
Q 2381 391 2643 752 
Q 2906 1113 2906 1747 
Q 2906 2381 2643 2742 
Q 2381 3103 1925 3103 
Q 1469 3103 1208 2742 
Q 947 2381 947 1747 
z
" transform="scale(0.015625)"/>
      </defs>
      <use xlink:href="#DejaVuSans-6d"/>
      <use xlink:href="#DejaVuSans-65" x="97.412109"/>
      <use xlink:href="#DejaVuSans-61" x="158.935547"/>
      <use xlink:href="#DejaVuSans-73" x="220.214844"/>
      <use xlink:href="#DejaVuSans-75" x="272.314453"/>
      <use xlink:href="#DejaVuSans-72" x="335.693359"/>
      <use xlink:href="#DejaVuSans-65" x="374.556641"/>
      <use xlink:href="#DejaVuSans-64" x="436.080078"/>
     </g>
    </g>
    <g id="line2d_16">
     <path d="M 561.04375 273.420312 
L 571.04375 273.420312 
L 581.04375 273.420312 
" style="fill: none; stroke: #ff7f0e; stroke-width: 1.5; stroke-linecap: square"/>
    </g>
    <g id="text_16">
     <!-- predicted -->
     <g transform="translate(589.04375 276.920312) scale(0.1 -0.1)">
      <defs>
       <path id="DejaVuSans-70" d="M 1159 525 
L 1159 -1331 
L 581 -1331 
L 581 3500 
L 1159 3500 
L 1159 2969 
Q 1341 3281 1617 3432 
Q 1894 3584 2278 3584 
Q 2916 3584 3314 3078 
Q 3713 2572 3713 1747 
Q 3713 922 3314 415 
Q 2916 -91 2278 -91 
Q 1894 -91 1617 61 
Q 1341 213 1159 525 
z
M 3116 1747 
Q 3116 2381 2855 2742 
Q 2594 3103 2138 3103 
Q 1681 3103 1420 2742 
Q 1159 2381 1159 1747 
Q 1159 1113 1420 752 
Q 1681 391 2138 391 
Q 2594 391 2855 752 
Q 3116 1113 3116 1747 
z
" transform="scale(0.015625)"/>
       <path id="DejaVuSans-69" d="M 603 3500 
L 1178 3500 
L 1178 0 
L 603 0 
L 603 3500 
z
M 603 4863 
L 1178 4863 
L 1178 4134 
L 603 4134 
L 603 4863 
z
" transform="scale(0.015625)"/>
       <path id="DejaVuSans-63" d="M 3122 3366 
L 3122 2828 
Q 2878 2963 2633 3030 
Q 2388 3097 2138 3097 
Q 1578 3097 1268 2742 
Q 959 2388 959 1747 
Q 959 1106 1268 751 
Q 1578 397 2138 397 
Q 2388 397 2633 464 
Q 2878 531 3122 666 
L 3122 134 
Q 2881 22 2623 -34 
Q 2366 -91 2075 -91 
Q 1284 -91 818 406 
Q 353 903 353 1747 
Q 353 2603 823 3093 
Q 1294 3584 2113 3584 
Q 2378 3584 2631 3529 
Q 2884 3475 3122 3366 
z
" transform="scale(0.015625)"/>
      </defs>
      <use xlink:href="#DejaVuSans-70"/>
      <use xlink:href="#DejaVuSans-72" x="63.476562"/>
      <use xlink:href="#DejaVuSans-65" x="102.339844"/>
      <use xlink:href="#DejaVuSans-64" x="163.863281"/>
      <use xlink:href="#DejaVuSans-69" x="227.339844"/>
      <use xlink:href="#DejaVuSans-63" x="255.123047"/>
      <use xlink:href="#DejaVuSans-74" x="310.103516"/>
      <use xlink:href="#DejaVuSans-65" x="349.3125"/>
      <use xlink:href="#DejaVuSans-64" x="410.835938"/>
     </g>
    </g>
   </g>
  </g>
 </g>
 <defs>
  <clipPath id="p4b0d60b8f7">
   <rect x="90" y="43.2" width="558" height="244.8"/>
  </clipPath>
 </defs>
</svg>
