<?xml version="1.0" encoding="utf-8" standalone="no"?>
<!DOCTYPE svg PUBLIC "-//W3C//DTD SVG 1.1//EN"
  "http://www.w3.org/Graphics/SVG/1.1/DTD/svg11.dtd">
<svg xmlns:xlink="http://www.w3.org/1999/xlink" width="720pt" height="360pt" viewBox="0 0 720 360" xmlns="http://www.w3.org/2000/svg" version="1.1">
 <metadata>
  <rdf:RDF xmlns:dc="http://purl.org/dc/elements/1.1/" xmlns:cc="http://creativecommons.org/ns#" xmlns:rdf="http://www.w3.org/1999/02/22-rdf-syntax-ns#">
   <cc:Work>
    <dc:type rdf:resource="http://purl.org/dc/dcmitype/StillImage"/>
    <dc:date>2023-10-23T10:54:11.542710</dc:date>
    <dc:format>image/svg+xml</dc:format>
    <dc:creator>
     <cc:Agent>
      <dc:title>Matplotlib v3.7.1, https://matplotlib.org/</dc:title>
     </cc:Agent>
    </dc:creator>
   </cc:Work>
  </rdf:RDF>
 </metadata>
 <defs>
  <style type="text/css">*{stroke-linejoin: round; stroke-linecap: butt}</style>
 </defs>
 <g id="figure_1">
  <g id="patch_1">
   <path d="M 0 360 
L 720 360 
L 720 0 
L 0 0 
z
" style="fill: #ffffff"/>
  </g>
  <g id="axes_1">
   <g id="patch_2">
    <path d="M 90 288 
L 648 288 
L 648 43.2 
L 90 43.2 
z
" style="fill: #ffffff"/>
   </g>
   <g id="matplotlib.axis_1">
    <g id="xtick_1">
     <g id="line2d_1">
      <defs>
       <path id="m5c80ed99e5" d="M 0 0 
L 0 3.5 
" style="stroke: #000000; stroke-width: 0.8"/>
      </defs>
      <g>
       <use xlink:href="#m5c80ed99e5" x="149.370747" y="288" style="stroke: #000000; stroke-width: 0.8"/>
      </g>
     </g>
     <g id="text_1">
      <!-- 2023-08-15 -->
      <g transform="translate(87.727405 337.765903) rotate(-30) scale(0.12 -0.12)">
       <defs>
        <path id="DejaVuSans-32" d="M 1228 531 
L 3431 531 
L 3431 0 
L 469 0 
L 469 531 
Q 828 903 1448 1529 
Q 2069 2156 2228 2338 
Q 2531 2678 2651 2914 
Q 2772 3150 2772 3378 
Q 2772 3750 2511 3984 
Q 2250 4219 1831 4219 
Q 1534 4219 1204 4116 
Q 875 4013 500 3803 
L 500 4441 
Q 881 4594 1212 4672 
Q 1544 4750 1819 4750 
Q 2544 4750 2975 4387 
Q 3406 4025 3406 3419 
Q 3406 3131 3298 2873 
Q 3191 2616 2906 2266 
Q 2828 2175 2409 1742 
Q 1991 1309 1228 531 
z
" transform="scale(0.015625)"/>
        <path id="DejaVuSans-30" d="M 2034 4250 
Q 1547 4250 1301 3770 
Q 1056 3291 1056 2328 
Q 1056 1369 1301 889 
Q 1547 409 2034 409 
Q 2525 409 2770 889 
Q 3016 1369 3016 2328 
Q 3016 3291 2770 3770 
Q 2525 4250 2034 4250 
z
M 2034 4750 
Q 2819 4750 3233 4129 
Q 3647 3509 3647 2328 
Q 3647 1150 3233 529 
Q 2819 -91 2034 -91 
Q 1250 -91 836 529 
Q 422 1150 422 2328 
Q 422 3509 836 4129 
Q 1250 4750 2034 4750 
z
" transform="scale(0.015625)"/>
        <path id="DejaVuSans-33" d="M 2597 2516 
Q 3050 2419 3304 2112 
Q 3559 1806 3559 1356 
Q 3559 666 3084 287 
Q 2609 -91 1734 -91 
Q 1441 -91 1130 -33 
Q 819 25 488 141 
L 488 750 
Q 750 597 1062 519 
Q 1375 441 1716 441 
Q 2309 441 2620 675 
Q 2931 909 2931 1356 
Q 2931 1769 2642 2001 
Q 2353 2234 1838 2234 
L 1294 2234 
L 1294 2753 
L 1863 2753 
Q 2328 2753 2575 2939 
Q 2822 3125 2822 3475 
Q 2822 3834 2567 4026 
Q 2313 4219 1838 4219 
Q 1578 4219 1281 4162 
Q 984 4106 628 3988 
L 628 4550 
Q 988 4650 1302 4700 
Q 1616 4750 1894 4750 
Q 2613 4750 3031 4423 
Q 3450 4097 3450 3541 
Q 3450 3153 3228 2886 
Q 3006 2619 2597 2516 
z
" transform="scale(0.015625)"/>
        <path id="DejaVuSans-2d" d="M 313 2009 
L 1997 2009 
L 1997 1497 
L 313 1497 
L 313 2009 
z
" transform="scale(0.015625)"/>
        <path id="DejaVuSans-38" d="M 2034 2216 
Q 1584 2216 1326 1975 
Q 1069 1734 1069 1313 
Q 1069 891 1326 650 
Q 1584 409 2034 409 
Q 2484 409 2743 651 
Q 3003 894 3003 1313 
Q 3003 1734 2745 1975 
Q 2488 2216 2034 2216 
z
M 1403 2484 
Q 997 2584 770 2862 
Q 544 3141 544 3541 
Q 544 4100 942 4425 
Q 1341 4750 2034 4750 
Q 2731 4750 3128 4425 
Q 3525 4100 3525 3541 
Q 3525 3141 3298 2862 
Q 3072 2584 2669 2484 
Q 3125 2378 3379 2068 
Q 3634 1759 3634 1313 
Q 3634 634 3220 271 
Q 2806 -91 2034 -91 
Q 1263 -91 848 271 
Q 434 634 434 1313 
Q 434 1759 690 2068 
Q 947 2378 1403 2484 
z
M 1172 3481 
Q 1172 3119 1398 2916 
Q 1625 2713 2034 2713 
Q 2441 2713 2670 2916 
Q 2900 3119 2900 3481 
Q 2900 3844 2670 4047 
Q 2441 4250 2034 4250 
Q 1625 4250 1398 4047 
Q 1172 3844 1172 3481 
z
" transform="scale(0.015625)"/>
        <path id="DejaVuSans-31" d="M 794 531 
L 1825 531 
L 1825 4091 
L 703 3866 
L 703 4441 
L 1819 4666 
L 2450 4666 
L 2450 531 
L 3481 531 
L 3481 0 
L 794 0 
L 794 531 
z
" transform="scale(0.015625)"/>
        <path id="DejaVuSans-35" d="M 691 4666 
L 3169 4666 
L 3169 4134 
L 1269 4134 
L 1269 2991 
Q 1406 3038 1543 3061 
Q 1681 3084 1819 3084 
Q 2600 3084 3056 2656 
Q 3513 2228 3513 1497 
Q 3513 744 3044 326 
Q 2575 -91 1722 -91 
Q 1428 -91 1123 -41 
Q 819 9 494 109 
L 494 744 
Q 775 591 1075 516 
Q 1375 441 1709 441 
Q 2250 441 2565 725 
Q 2881 1009 2881 1497 
Q 2881 1984 2565 2268 
Q 2250 2553 1709 2553 
Q 1456 2553 1204 2497 
Q 953 2441 691 2322 
L 691 4666 
z
" transform="scale(0.015625)"/>
       </defs>
       <use xlink:href="#DejaVuSans-32"/>
       <use xlink:href="#DejaVuSans-30" x="63.623047"/>
       <use xlink:href="#DejaVuSans-32" x="127.246094"/>
       <use xlink:href="#DejaVuSans-33" x="190.869141"/>
       <use xlink:href="#DejaVuSans-2d" x="254.492188"/>
       <use xlink:href="#DejaVuSans-30" x="290.576172"/>
       <use xlink:href="#DejaVuSans-38" x="354.199219"/>
       <use xlink:href="#DejaVuSans-2d" x="417.822266"/>
       <use xlink:href="#DejaVuSans-31" x="453.90625"/>
       <use xlink:href="#DejaVuSans-35" x="517.529297"/>
      </g>
     </g>
    </g>
    <g id="xtick_2">
     <g id="line2d_2">
      <g>
       <use xlink:href="#m5c80ed99e5" x="264.994921" y="288" style="stroke: #000000; stroke-width: 0.8"/>
      </g>
     </g>
     <g id="text_2">
      <!-- 2023-09-01 -->
      <g transform="translate(203.35158 337.765903) rotate(-30) scale(0.12 -0.12)">
       <defs>
        <path id="DejaVuSans-39" d="M 703 97 
L 703 672 
Q 941 559 1184 500 
Q 1428 441 1663 441 
Q 2288 441 2617 861 
Q 2947 1281 2994 2138 
Q 2813 1869 2534 1725 
Q 2256 1581 1919 1581 
Q 1219 1581 811 2004 
Q 403 2428 403 3163 
Q 403 3881 828 4315 
Q 1253 4750 1959 4750 
Q 2769 4750 3195 4129 
Q 3622 3509 3622 2328 
Q 3622 1225 3098 567 
Q 2575 -91 1691 -91 
Q 1453 -91 1209 -44 
Q 966 3 703 97 
z
M 1959 2075 
Q 2384 2075 2632 2365 
Q 2881 2656 2881 3163 
Q 2881 3666 2632 3958 
Q 2384 4250 1959 4250 
Q 1534 4250 1286 3958 
Q 1038 3666 1038 3163 
Q 1038 2656 1286 2365 
Q 1534 2075 1959 2075 
z
" transform="scale(0.015625)"/>
       </defs>
       <use xlink:href="#DejaVuSans-32"/>
       <use xlink:href="#DejaVuSans-30" x="63.623047"/>
       <use xlink:href="#DejaVuSans-32" x="127.246094"/>
       <use xlink:href="#DejaVuSans-33" x="190.869141"/>
       <use xlink:href="#DejaVuSans-2d" x="254.492188"/>
       <use xlink:href="#DejaVuSans-30" x="290.576172"/>
       <use xlink:href="#DejaVuSans-39" x="354.199219"/>
       <use xlink:href="#DejaVuSans-2d" x="417.822266"/>
       <use xlink:href="#DejaVuSans-30" x="453.90625"/>
       <use xlink:href="#DejaVuSans-31" x="517.529297"/>
      </g>
     </g>
    </g>
    <g id="xtick_3">
     <g id="line2d_3">
      <g>
       <use xlink:href="#m5c80ed99e5" x="360.21483" y="288" style="stroke: #000000; stroke-width: 0.8"/>
      </g>
     </g>
     <g id="text_3">
      <!-- 2023-09-15 -->
      <g transform="translate(298.571488 337.765903) rotate(-30) scale(0.12 -0.12)">
       <use xlink:href="#DejaVuSans-32"/>
       <use xlink:href="#DejaVuSans-30" x="63.623047"/>
       <use xlink:href="#DejaVuSans-32" x="127.246094"/>
       <use xlink:href="#DejaVuSans-33" x="190.869141"/>
       <use xlink:href="#DejaVuSans-2d" x="254.492188"/>
       <use xlink:href="#DejaVuSans-30" x="290.576172"/>
       <use xlink:href="#DejaVuSans-39" x="354.199219"/>
       <use xlink:href="#DejaVuSans-2d" x="417.822266"/>
       <use xlink:href="#DejaVuSans-31" x="453.90625"/>
       <use xlink:href="#DejaVuSans-35" x="517.529297"/>
      </g>
     </g>
    </g>
    <g id="xtick_4">
     <g id="line2d_4">
      <g>
       <use xlink:href="#m5c80ed99e5" x="469.037583" y="288" style="stroke: #000000; stroke-width: 0.8"/>
      </g>
     </g>
     <g id="text_4">
      <!-- 2023-10-01 -->
      <g transform="translate(407.394241 337.765903) rotate(-30) scale(0.12 -0.12)">
       <use xlink:href="#DejaVuSans-32"/>
       <use xlink:href="#DejaVuSans-30" x="63.623047"/>
       <use xlink:href="#DejaVuSans-32" x="127.246094"/>
       <use xlink:href="#DejaVuSans-33" x="190.869141"/>
       <use xlink:href="#DejaVuSans-2d" x="254.492188"/>
       <use xlink:href="#DejaVuSans-31" x="290.576172"/>
       <use xlink:href="#DejaVuSans-30" x="354.199219"/>
       <use xlink:href="#DejaVuSans-2d" x="417.822266"/>
       <use xlink:href="#DejaVuSans-30" x="453.90625"/>
       <use xlink:href="#DejaVuSans-31" x="517.529297"/>
      </g>
     </g>
    </g>
    <g id="xtick_5">
     <g id="line2d_5">
      <g>
       <use xlink:href="#m5c80ed99e5" x="564.257491" y="288" style="stroke: #000000; stroke-width: 0.8"/>
      </g>
     </g>
     <g id="text_5">
      <!-- 2023-10-15 -->
      <g transform="translate(502.614149 337.765903) rotate(-30) scale(0.12 -0.12)">
       <use xlink:href="#DejaVuSans-32"/>
       <use xlink:href="#DejaVuSans-30" x="63.623047"/>
       <use xlink:href="#DejaVuSans-32" x="127.246094"/>
       <use xlink:href="#DejaVuSans-33" x="190.869141"/>
       <use xlink:href="#DejaVuSans-2d" x="254.492188"/>
       <use xlink:href="#DejaVuSans-31" x="290.576172"/>
       <use xlink:href="#DejaVuSans-30" x="354.199219"/>
       <use xlink:href="#DejaVuSans-2d" x="417.822266"/>
       <use xlink:href="#DejaVuSans-31" x="453.90625"/>
       <use xlink:href="#DejaVuSans-35" x="517.529297"/>
      </g>
     </g>
    </g>
   </g>
   <g id="matplotlib.axis_2">
    <g id="ytick_1">
     <g id="line2d_6">
      <defs>
       <path id="m70d98faa3e" d="M 0 0 
L -3.5 0 
" style="stroke: #000000; stroke-width: 0.8"/>
      </defs>
      <g>
       <use xlink:href="#m70d98faa3e" x="90" y="282.059754" style="stroke: #000000; stroke-width: 0.8"/>
      </g>
     </g>
     <g id="text_6">
      <!-- 1.2 -->
      <g transform="translate(63.91625 286.618817) scale(0.12 -0.12)">
       <defs>
        <path id="DejaVuSans-2e" d="M 684 794 
L 1344 794 
L 1344 0 
L 684 0 
L 684 794 
z
" transform="scale(0.015625)"/>
       </defs>
       <use xlink:href="#DejaVuSans-31"/>
       <use xlink:href="#DejaVuSans-2e" x="63.623047"/>
       <use xlink:href="#DejaVuSans-32" x="95.410156"/>
      </g>
     </g>
    </g>
    <g id="ytick_2">
     <g id="line2d_7">
      <g>
       <use xlink:href="#m70d98faa3e" x="90" y="254.358527" style="stroke: #000000; stroke-width: 0.8"/>
      </g>
     </g>
     <g id="text_7">
      <!-- 1.4 -->
      <g transform="translate(63.91625 258.91759) scale(0.12 -0.12)">
       <defs>
        <path id="DejaVuSans-34" d="M 2419 4116 
L 825 1625 
L 2419 1625 
L 2419 4116 
z
M 2253 4666 
L 3047 4666 
L 3047 1625 
L 3713 1625 
L 3713 1100 
L 3047 1100 
L 3047 0 
L 2419 0 
L 2419 1100 
L 313 1100 
L 313 1709 
L 2253 4666 
z
" transform="scale(0.015625)"/>
       </defs>
       <use xlink:href="#DejaVuSans-31"/>
       <use xlink:href="#DejaVuSans-2e" x="63.623047"/>
       <use xlink:href="#DejaVuSans-34" x="95.410156"/>
      </g>
     </g>
    </g>
    <g id="ytick_3">
     <g id="line2d_8">
      <g>
       <use xlink:href="#m70d98faa3e" x="90" y="226.657301" style="stroke: #000000; stroke-width: 0.8"/>
      </g>
     </g>
     <g id="text_8">
      <!-- 1.6 -->
      <g transform="translate(63.91625 231.216363) scale(0.12 -0.12)">
       <defs>
        <path id="DejaVuSans-36" d="M 2113 2584 
Q 1688 2584 1439 2293 
Q 1191 2003 1191 1497 
Q 1191 994 1439 701 
Q 1688 409 2113 409 
Q 2538 409 2786 701 
Q 3034 994 3034 1497 
Q 3034 2003 2786 2293 
Q 2538 2584 2113 2584 
z
M 3366 4563 
L 3366 3988 
Q 3128 4100 2886 4159 
Q 2644 4219 2406 4219 
Q 1781 4219 1451 3797 
Q 1122 3375 1075 2522 
Q 1259 2794 1537 2939 
Q 1816 3084 2150 3084 
Q 2853 3084 3261 2657 
Q 3669 2231 3669 1497 
Q 3669 778 3244 343 
Q 2819 -91 2113 -91 
Q 1303 -91 875 529 
Q 447 1150 447 2328 
Q 447 3434 972 4092 
Q 1497 4750 2381 4750 
Q 2619 4750 2861 4703 
Q 3103 4656 3366 4563 
z
" transform="scale(0.015625)"/>
       </defs>
       <use xlink:href="#DejaVuSans-31"/>
       <use xlink:href="#DejaVuSans-2e" x="63.623047"/>
       <use xlink:href="#DejaVuSans-36" x="95.410156"/>
      </g>
     </g>
    </g>
    <g id="ytick_4">
     <g id="line2d_9">
      <g>
       <use xlink:href="#m70d98faa3e" x="90" y="198.956074" style="stroke: #000000; stroke-width: 0.8"/>
      </g>
     </g>
     <g id="text_9">
      <!-- 1.8 -->
      <g transform="translate(63.91625 203.515136) scale(0.12 -0.12)">
       <use xlink:href="#DejaVuSans-31"/>
       <use xlink:href="#DejaVuSans-2e" x="63.623047"/>
       <use xlink:href="#DejaVuSans-38" x="95.410156"/>
      </g>
     </g>
    </g>
    <g id="ytick_5">
     <g id="line2d_10">
      <g>
       <use xlink:href="#m70d98faa3e" x="90" y="171.254847" style="stroke: #000000; stroke-width: 0.8"/>
      </g>
     </g>
     <g id="text_10">
      <!-- 2.0 -->
      <g transform="translate(63.91625 175.81391) scale(0.12 -0.12)">
       <use xlink:href="#DejaVuSans-32"/>
       <use xlink:href="#DejaVuSans-2e" x="63.623047"/>
       <use xlink:href="#DejaVuSans-30" x="95.410156"/>
      </g>
     </g>
    </g>
    <g id="ytick_6">
     <g id="line2d_11">
      <g>
       <use xlink:href="#m70d98faa3e" x="90" y="143.553621" style="stroke: #000000; stroke-width: 0.8"/>
      </g>
     </g>
     <g id="text_11">
      <!-- 2.2 -->
      <g transform="translate(63.91625 148.112683) scale(0.12 -0.12)">
       <use xlink:href="#DejaVuSans-32"/>
       <use xlink:href="#DejaVuSans-2e" x="63.623047"/>
       <use xlink:href="#DejaVuSans-32" x="95.410156"/>
      </g>
     </g>
    </g>
    <g id="ytick_7">
     <g id="line2d_12">
      <g>
       <use xlink:href="#m70d98faa3e" x="90" y="115.852394" style="stroke: #000000; stroke-width: 0.8"/>
      </g>
     </g>
     <g id="text_12">
      <!-- 2.4 -->
      <g transform="translate(63.91625 120.411456) scale(0.12 -0.12)">
       <use xlink:href="#DejaVuSans-32"/>
       <use xlink:href="#DejaVuSans-2e" x="63.623047"/>
       <use xlink:href="#DejaVuSans-34" x="95.410156"/>
      </g>
     </g>
    </g>
    <g id="ytick_8">
     <g id="line2d_13">
      <g>
       <use xlink:href="#m70d98faa3e" x="90" y="88.151167" style="stroke: #000000; stroke-width: 0.8"/>
      </g>
     </g>
     <g id="text_13">
      <!-- 2.6 -->
      <g transform="translate(63.91625 92.71023) scale(0.12 -0.12)">
       <use xlink:href="#DejaVuSans-32"/>
       <use xlink:href="#DejaVuSans-2e" x="63.623047"/>
       <use xlink:href="#DejaVuSans-36" x="95.410156"/>
      </g>
     </g>
    </g>
    <g id="ytick_9">
     <g id="line2d_14">
      <g>
       <use xlink:href="#m70d98faa3e" x="90" y="60.449941" style="stroke: #000000; stroke-width: 0.8"/>
      </g>
     </g>
     <g id="text_14">
      <!-- 2.8 -->
      <g transform="translate(63.91625 65.009003) scale(0.12 -0.12)">
       <use xlink:href="#DejaVuSans-32"/>
       <use xlink:href="#DejaVuSans-2e" x="63.623047"/>
       <use xlink:href="#DejaVuSans-38" x="95.410156"/>
      </g>
     </g>
    </g>
    <g id="text_15">
     <!-- Meters -->
     <g transform="translate(57.836562 182.6875) rotate(-90) scale(0.1 -0.1)">
      <defs>
       <path id="DejaVuSans-4d" d="M 628 4666 
L 1569 4666 
L 2759 1491 
L 3956 4666 
L 4897 4666 
L 4897 0 
L 4281 0 
L 4281 4097 
L 3078 897 
L 2444 897 
L 1241 4097 
L 1241 0 
L 628 0 
L 628 4666 
z
" transform="scale(0.015625)"/>
       <path id="DejaVuSans-65" d="M 3597 1894 
L 3597 1613 
L 953 1613 
Q 991 1019 1311 708 
Q 1631 397 2203 397 
Q 2534 397 2845 478 
Q 3156 559 3463 722 
L 3463 178 
Q 3153 47 2828 -22 
Q 2503 -91 2169 -91 
Q 1331 -91 842 396 
Q 353 884 353 1716 
Q 353 2575 817 3079 
Q 1281 3584 2069 3584 
Q 2775 3584 3186 3129 
Q 3597 2675 3597 1894 
z
M 3022 2063 
Q 3016 2534 2758 2815 
Q 2500 3097 2075 3097 
Q 1594 3097 1305 2825 
Q 1016 2553 972 2059 
L 3022 2063 
z
" transform="scale(0.015625)"/>
       <path id="DejaVuSans-74" d="M 1172 4494 
L 1172 3500 
L 2356 3500 
L 2356 3053 
L 1172 3053 
L 1172 1153 
Q 1172 725 1289 603 
Q 1406 481 1766 481 
L 2356 481 
L 2356 0 
L 1766 0 
Q 1100 0 847 248 
Q 594 497 594 1153 
L 594 3053 
L 172 3053 
L 172 3500 
L 594 3500 
L 594 4494 
L 1172 4494 
z
" transform="scale(0.015625)"/>
       <path id="DejaVuSans-72" d="M 2631 2963 
Q 2534 3019 2420 3045 
Q 2306 3072 2169 3072 
Q 1681 3072 1420 2755 
Q 1159 2438 1159 1844 
L 1159 0 
L 581 0 
L 581 3500 
L 1159 3500 
L 1159 2956 
Q 1341 3275 1631 3429 
Q 1922 3584 2338 3584 
Q 2397 3584 2469 3576 
Q 2541 3569 2628 3553 
L 2631 2963 
z
" transform="scale(0.015625)"/>
       <path id="DejaVuSans-73" d="M 2834 3397 
L 2834 2853 
Q 2591 2978 2328 3040 
Q 2066 3103 1784 3103 
Q 1356 3103 1142 2972 
Q 928 2841 928 2578 
Q 928 2378 1081 2264 
Q 1234 2150 1697 2047 
L 1894 2003 
Q 2506 1872 2764 1633 
Q 3022 1394 3022 966 
Q 3022 478 2636 193 
Q 2250 -91 1575 -91 
Q 1294 -91 989 -36 
Q 684 19 347 128 
L 347 722 
Q 666 556 975 473 
Q 1284 391 1588 391 
Q 1994 391 2212 530 
Q 2431 669 2431 922 
Q 2431 1156 2273 1281 
Q 2116 1406 1581 1522 
L 1381 1569 
Q 847 1681 609 1914 
Q 372 2147 372 2553 
Q 372 3047 722 3315 
Q 1072 3584 1716 3584 
Q 2034 3584 2315 3537 
Q 2597 3491 2834 3397 
z
" transform="scale(0.015625)"/>
      </defs>
      <use xlink:href="#DejaVuSans-4d"/>
      <use xlink:href="#DejaVuSans-65" x="86.279297"/>
      <use xlink:href="#DejaVuSans-74" x="147.802734"/>
      <use xlink:href="#DejaVuSans-65" x="187.011719"/>
      <use xlink:href="#DejaVuSans-72" x="248.535156"/>
      <use xlink:href="#DejaVuSans-73" x="289.648438"/>
     </g>
    </g>
   </g>
   <g id="line2d_15">
    <path d="M 115.363636 227.337151 
L 115.647029 227.554088 
L 115.930422 229.446521 
L 116.213814 230.554286 
L 117.630777 233.416014 
L 117.91417 232.215934 
L 118.197562 232.331327 
L 118.480955 232.008228 
L 119.331133 228.223363 
L 119.614525 227.9695 
L 119.897918 228.592618 
L 120.748095 233.277543 
L 121.314881 238.354801 
L 121.881666 238.100938 
L 122.165058 237.662448 
L 122.731844 238.539429 
L 123.015236 238.100938 
L 123.582021 237.962467 
L 123.865414 237.91631 
L 124.148807 238.654821 
L 124.715592 238.51635 
L 124.998984 237.362428 
L 126.132555 228.546461 
L 126.415947 228.56954 
L 126.982732 230.300423 
L 127.83291 237.408585 
L 128.116303 240.131841 
L 128.96648 243.639765 
L 129.533266 241.170371 
L 129.816658 241.054979 
L 130.100051 229.861933 
L 130.383443 239.508723 
L 130.666836 239.139468 
L 130.950229 238.447115 
L 131.517014 238.977919 
L 132.083799 238.562507 
L 132.367191 238.354801 
L 132.650584 238.470193 
L 132.933977 238.07786 
L 133.500762 240.408783 
L 133.784154 240.916508 
L 134.067547 241.793489 
L 134.35094 241.885803 
L 134.917725 243.224353 
L 135.201117 241.839646 
L 135.48451 241.424234 
L 136.051295 241.655019 
L 136.334688 241.216528 
L 136.61808 241.747332 
L 136.901473 241.747332 
L 137.184865 242.647392 
L 137.468258 243.108961 
L 137.751651 244.216726 
L 138.035043 244.60906 
L 138.318436 245.209099 
L 138.601828 246.132237 
L 138.885221 245.04755 
L 139.168614 245.855296 
L 139.452006 247.72465 
L 139.735399 247.678493 
L 140.018791 248.578553 
L 140.302184 248.46316 
L 140.585576 247.632336 
L 140.868969 248.093905 
L 141.152362 247.909278 
L 141.435754 247.516944 
L 142.002539 245.370649 
L 142.285932 245.024472 
L 142.852717 243.57053 
L 143.13611 243.016647 
L 143.419502 244.101334 
L 143.702895 244.678295 
L 143.986287 244.793687 
L 144.26968 244.678295 
L 144.836465 244.955236 
L 145.119858 244.770609 
L 145.40325 244.74753 
L 146.253428 245.601433 
L 146.820213 246.68612 
L 147.103606 247.863121 
L 147.386998 247.470787 
L 147.670391 247.978513 
L 148.237176 246.524571 
L 148.520569 247.170767 
L 148.803961 245.509119 
L 149.087354 245.001393 
L 150.504317 235.262289 
L 150.787709 234.108367 
L 151.071102 230.900463 
L 151.92128 210.614509 
L 152.204672 209.85292 
L 152.488065 209.991391 
L 152.771458 210.406803 
L 153.05485 211.860745 
L 153.338243 212.206922 
L 153.621635 209.899077 
L 154.471813 196.352029 
L 155.605383 178.512391 
L 155.888776 175.719899 
L 157.022346 151.533687 
L 158.722702 111.331034 
L 159.289487 102.699695 
L 160.139665 96.076181 
L 160.423057 96.907006 
L 160.989843 100.484165 
L 161.273235 100.899577 
L 161.556628 103.022794 
L 162.123413 105.30756 
L 162.406805 105.60758 
L 162.973591 107.199992 
L 163.540376 106.04607 
L 163.823768 106.323012 
L 164.390554 108.353915 
L 164.673946 108.815484 
L 164.957339 109.992484 
L 165.240731 110.107877 
L 165.807517 111.284877 
L 166.090909 111.700289 
L 166.374302 111.723368 
L 166.657694 112.646506 
L 166.941087 112.13878 
L 167.507872 106.761502 
L 167.791265 105.976835 
L 168.074657 104.753677 
L 168.641442 99.930282 
L 168.924835 100.137988 
L 169.49162 94.853024 
L 169.775013 93.606788 
L 170.341798 93.42216 
L 170.62519 94.16067 
L 170.908583 93.72218 
L 172.042153 90.260413 
L 172.892331 86.244764 
L 173.459116 84.467723 
L 173.742509 82.829154 
L 174.592687 75.559443 
L 174.876079 74.451678 
L 175.159472 73.96703 
L 175.442864 74.290128 
L 175.726257 75.282502 
L 176.00965 74.036266 
L 176.293042 74.751697 
L 176.859827 74.751697 
L 177.14322 76.436424 
L 177.426612 78.813504 
L 178.27679 89.337275 
L 178.560183 90.975845 
L 178.843575 93.583709 
L 179.693753 98.268634 
L 179.977146 98.91483 
L 180.260538 101.384224 
L 180.543931 101.684244 
L 181.110716 103.922853 
L 181.394109 104.315187 
L 181.677501 104.4075 
L 182.244286 106.276855 
L 182.811072 106.392247 
L 183.094464 107.892346 
L 183.377857 108.72317 
L 183.661249 108.700091 
L 183.944642 109.277053 
L 184.228035 109.530916 
L 184.511427 110.223269 
L 185.078212 112.623427 
L 186.211783 116.985254 
L 186.778568 119.593118 
L 187.06196 121.716335 
L 187.345353 122.939493 
L 187.912138 126.008926 
L 188.195531 126.83975 
L 188.762316 128.91681 
L 189.329101 130.924635 
L 189.612494 130.763086 
L 189.895886 132.101636 
L 190.179279 131.847773 
L 190.462671 131.432361 
L 190.746064 131.455439 
L 191.029457 133.763284 
L 191.312849 134.40948 
L 192.44642 140.525268 
L 193.296597 144.494761 
L 193.57999 145.464056 
L 194.430168 150.702863 
L 195.847131 156.680181 
L 196.130523 157.603318 
L 196.413916 157.234063 
L 196.697308 157.926417 
L 196.980701 158.041809 
L 197.547486 159.057261 
L 197.830879 159.126496 
L 199.247842 163.834499 
L 199.531234 164.203754 
L 199.814627 165.496147 
L 200.948197 168.196325 
L 201.798375 172.58123 
L 202.081767 173.458211 
L 202.36516 173.896701 
L 202.648553 175.558349 
L 202.931945 175.535271 
L 203.49873 174.35827 
L 203.782123 174.265956 
L 204.065515 174.65829 
L 204.348908 175.881448 
L 204.632301 176.389173 
L 204.915693 176.066075 
L 205.199086 176.550723 
L 205.482478 177.450782 
L 206.899441 185.459003 
L 207.466227 186.797553 
L 208.033012 189.520809 
L 208.316404 190.074692 
L 208.883189 191.482477 
L 209.166582 191.344006 
L 209.733367 189.866986 
L 210.01676 188.966927 
L 210.300152 189.151554 
L 210.583545 189.728515 
L 211.15033 185.689787 
L 211.433723 185.782101 
L 212.000508 186.151356 
L 212.2839 186.151356 
L 213.134078 188.551515 
L 213.417471 189.428495 
L 213.700863 191.020908 
L 213.984256 191.182457 
L 214.267649 191.782497 
L 214.551041 191.782497 
L 214.834434 192.174831 
L 215.117826 193.651851 
L 215.401219 194.159577 
L 215.684611 193.998028 
L 215.968004 195.313499 
L 216.251397 194.621146 
L 216.534789 196.836677 
L 216.818182 198.152148 
L 217.101574 197.944442 
L 217.384967 54.327273 
L 217.66836 194.967323 
L 217.951752 191.551712 
L 218.518537 189.105397 
L 218.80193 184.120453 
L 219.652108 159.21881 
L 219.9355 155.8032 
L 220.218893 153.749218 
L 221.069071 151.395217 
L 221.352463 150.218216 
L 221.635856 149.548941 
L 221.919248 149.387392 
L 222.202641 148.094999 
L 222.486034 148.625803 
L 223.052819 147.102626 
L 223.619604 143.086976 
L 223.902996 141.84074 
L 224.469782 128.501398 
L 225.319959 106.78458 
L 225.886745 98.245555 
L 226.45353 92.38363 
L 226.736922 90.329648 
L 227.020315 89.244961 
L 227.303707 89.429589 
L 227.5871 90.629668 
L 228.153885 96.122338 
L 228.72067 102.307362 
L 229.004063 103.207421 
L 229.287456 104.70752 
L 230.137633 112.415721 
L 230.421026 112.761898 
L 230.704418 113.661957 
L 230.987811 113.685036 
L 231.554596 114.654331 
L 231.837989 115.369762 
L 232.121381 116.662155 
L 232.688167 117.677607 
L 232.971559 117.585293 
L 233.254952 115.785174 
L 234.388522 113.292702 
L 234.671915 113.638879 
L 234.955307 112.992682 
L 235.2387 114.008134 
L 235.805485 113.431173 
L 236.088878 114.261997 
L 236.655663 116.962175 
L 236.939055 117.723764 
L 237.222448 116.177508 
L 237.505841 116.89294 
L 237.789233 116.823704 
L 238.072626 116.615998 
L 238.356018 115.900567 
L 238.639411 115.969802 
L 238.922803 115.462076 
L 239.206196 116.085194 
L 239.489589 117.077567 
L 240.339766 118.393039 
L 240.906552 118.66998 
L 241.189944 119.246941 
L 241.473337 120.30855 
L 242.606907 126.770515 
L 242.8903 128.062908 
L 243.740477 129.563007 
L 244.02387 129.678399 
L 244.307263 130.25536 
L 244.874048 127.762888 
L 245.15744 127.024378 
L 245.440833 127.485946 
L 245.724225 127.716731 
L 246.007618 127.785966 
L 246.291011 127.462868 
L 246.574403 128.547555 
L 247.141188 129.65532 
L 247.424581 130.463066 
L 247.991366 133.901754 
L 248.558151 136.971188 
L 249.124937 140.640661 
L 249.408329 140.963759 
L 250.258507 143.271604 
L 250.541899 144.379369 
L 251.108685 139.486738 
L 251.392077 138.171267 
L 251.67547 138.794385 
L 251.958862 140.548347 
L 252.525648 145.417899 
L 252.80904 145.833311 
L 253.375825 148.002685 
L 253.94261 151.256746 
L 254.509396 153.980002 
L 255.359573 160.188104 
L 255.642966 162.03438 
L 255.926359 162.080537 
L 256.209751 162.842126 
L 256.493144 163.280616 
L 257.059929 165.911559 
L 257.343321 166.396206 
L 257.626714 165.219206 
L 257.910107 167.296266 
L 258.476892 165.75001 
L 258.760284 165.611539 
L 259.32707 166.003873 
L 259.610462 166.696226 
L 259.893855 167.873227 
L 260.177247 168.42711 
L 260.46064 169.557953 
L 260.744033 170.181072 
L 261.027425 171.150366 
L 261.310818 171.127288 
L 262.160995 174.842918 
L 262.727781 177.658488 
L 263.861351 181.18949 
L 264.144744 182.597275 
L 264.428136 182.689589 
L 264.711529 186.059042 
L 264.994921 185.228218 
L 265.278314 185.112826 
L 265.561706 185.274375 
L 266.978669 188.551515 
L 267.262062 189.728515 
L 267.545455 190.213163 
L 267.828847 191.205536 
L 268.11224 191.505556 
L 268.395632 191.597869 
L 268.679025 191.920968 
L 268.962417 191.759419 
L 269.812595 193.628773 
L 270.37938 193.651851 
L 270.662773 192.936419 
L 270.946166 192.913341 
L 271.229558 192.128674 
L 271.512951 193.698008 
L 271.796343 193.097968 
L 272.079736 192.013281 
L 272.363128 191.551712 
L 272.646521 191.597869 
L 272.929914 191.344006 
L 273.213306 191.274771 
L 273.496699 192.544086 
L 274.063484 193.928792 
L 274.346877 193.882636 
L 274.630269 194.251891 
L 274.913662 193.905714 
L 275.197054 193.005655 
L 275.76384 194.921166 
L 276.047232 196.675128 
L 276.614017 197.275167 
L 276.89741 196.605892 
L 277.464195 197.782893 
L 277.747588 197.159775 
L 278.03098 198.613717 
L 278.314373 197.52903 
L 278.597765 197.736736 
L 278.881158 198.26754 
L 279.164551 200.852326 
L 279.447943 201.54468 
L 279.731336 201.475444 
L 280.581513 205.052603 
L 280.864906 205.514172 
L 281.148299 206.691173 
L 281.715084 207.360448 
L 281.998476 206.783487 
L 282.281869 206.875801 
L 282.848654 208.583606 
L 283.132047 208.422057 
L 283.415439 208.122037 
L 283.698832 208.283586 
L 283.982224 208.652841 
L 284.265617 208.560527 
L 284.54901 208.860547 
L 284.832402 208.029723 
L 285.115795 209.299037 
L 285.399187 208.329743 
L 285.68258 206.552702 
L 285.965973 206.021898 
L 286.249365 205.814192 
L 286.532758 205.214153 
L 287.099543 205.929584 
L 287.666328 206.091133 
L 287.949721 206.021898 
L 288.233113 205.514172 
L 288.516506 205.468015 
L 288.799898 204.844897 
L 289.083291 205.883427 
L 289.650076 209.483665 
L 289.933469 210.037548 
L 290.216861 210.983764 
L 290.783647 213.960884 
L 291.067039 214.445531 
L 291.350432 215.299433 
L 291.917217 218.530416 
L 292.200609 216.176414 
L 292.484002 215.184041 
L 292.767395 214.837864 
L 293.050787 215.022492 
L 293.33418 215.022492 
L 293.617572 215.137884 
L 293.900965 215.691767 
L 294.184358 215.622532 
L 294.751143 216.222571 
L 295.317928 216.522591 
L 295.60132 216.453356 
L 295.884713 215.807159 
L 296.168106 216.914925 
L 296.451498 217.561121 
L 297.585069 222.823007 
L 297.868461 223.146105 
L 298.435246 223.169183 
L 299.002031 219.36124 
L 299.285424 217.72267 
L 299.568817 217.884219 
L 300.135602 217.630356 
L 300.418994 218.230396 
L 300.702387 216.961082 
L 301.269172 218.253474 
L 301.552565 217.953455 
L 301.835957 217.468807 
L 302.11935 217.28418 
L 302.402743 217.399572 
L 302.686135 217.307258 
L 302.969528 217.561121 
L 303.25292 217.999612 
L 303.536313 217.353415 
L 304.103098 218.599651 
L 304.386491 218.276553 
L 304.953276 220.284378 
L 305.236668 219.684338 
L 305.520061 219.984358 
L 305.803454 217.72267 
L 306.370239 220.445927 
L 306.653631 222.569144 
L 306.937024 223.330733 
L 307.220416 222.499909 
L 308.070594 213.960884 
L 308.353987 212.483863 
L 308.637379 212.345392 
L 308.920772 214.237825 
L 309.204165 215.276355 
L 310.054342 220.538241 
L 310.337735 221.253672 
L 310.621127 222.546065 
L 310.90452 222.407595 
L 311.187913 222.130653 
L 312.03809 220.445927 
L 312.321483 220.09975 
L 312.604876 220.030515 
L 312.888268 220.69979 
L 313.171661 220.561319 
L 314.021838 220.722868 
L 314.872016 218.899671 
L 315.722194 215.068649 
L 316.005587 214.745551 
L 316.288979 213.014667 
L 316.855764 213.383922 
L 317.139157 213.351613 
L 317.42255 214.30706 
L 317.705942 214.422452 
L 317.989335 214.860943 
L 319.122905 217.838062 
L 319.406298 219.499711 
L 320.539868 221.161359 
L 320.823261 221.184437 
L 321.390046 220.053593 
L 321.673438 219.06122 
L 321.956831 218.553494 
L 322.523616 216.707219 
L 322.807009 216.38412 
L 323.657186 217.076474 
L 323.940579 218.438102 
L 324.223972 220.353613 
L 324.507364 220.007436 
L 324.790757 219.938201 
L 325.074149 220.561319 
L 325.357542 222.015261 
L 325.640934 222.361438 
L 325.924327 225.038538 
L 326.20772 224.738518 
L 326.491112 224.715439 
L 326.774505 224.85391 
L 327.34129 226.977127 
L 327.624683 227.300225 
L 328.191468 229.215736 
L 328.47486 229.561913 
L 329.041646 229.677305 
L 329.325038 229.192658 
L 329.891823 228.846481 
L 330.175216 228.546461 
L 330.458608 227.9695 
L 330.742001 228.961873 
L 331.025394 230.369659 
L 331.592179 230.94662 
L 331.875571 231.038934 
L 332.158964 228.892638 
L 332.442357 228.477226 
L 332.725749 229.30805 
L 333.575927 226.838656 
L 333.859319 226.654029 
L 334.142712 225.89244 
L 334.426105 226.515558 
L 334.709497 226.700186 
L 334.99289 227.300225 
L 335.559675 227.623324 
L 335.843068 227.415618 
L 336.12646 227.461774 
L 336.409853 227.046362 
L 336.693245 227.415618 
L 336.976638 227.484853 
L 337.26003 227.300225 
L 337.543423 227.461774 
L 337.826816 228.500305 
L 338.110208 227.715637 
L 338.393601 226.146303 
L 338.676993 226.377087 
L 338.960386 226.423244 
L 339.243779 226.584793 
L 339.527171 227.161755 
L 339.810564 227.207912 
L 344.344845 235.354603 
L 345.195023 234.177602 
L 345.478415 234.616093 
L 346.328593 231.269718 
L 346.611986 231.108169 
L 346.895378 230.092717 
L 347.178771 229.769619 
L 347.462164 230.323502 
L 347.745556 230.185031 
L 348.312341 229.700384 
L 348.595734 229.700384 
L 348.879126 229.90809 
L 349.445912 229.538835 
L 349.729304 229.700384 
L 350.012697 230.023482 
L 350.579482 232.239013 
L 351.146267 235.539231 
L 351.42966 235.539231 
L 351.713052 236.43929 
L 352.279837 237.062408 
L 352.56323 237.108565 
L 353.130015 239.485645 
L 353.413408 238.747135 
L 353.6968 238.51635 
L 353.980193 238.054781 
L 354.263586 238.608664 
L 354.546978 238.631742 
L 354.830371 238.931762 
L 355.113763 239.439488 
L 355.397156 238.931762 
L 355.680549 239.531802 
L 355.963941 239.462566 
L 356.247334 239.947214 
L 356.814119 240.15492 
L 357.097511 240.639567 
L 357.380904 242.485843 
L 358.231082 245.093707 
L 358.514474 245.509119 
L 358.797867 245.001393 
L 359.08126 246.524571 
L 359.648045 245.509119 
L 359.931437 244.585981 
L 360.21483 242.093509 
L 360.781615 239.485645 
L 361.065008 238.585585 
L 361.3484 238.424036 
L 361.631793 237.939389 
L 362.481971 237.131643 
L 362.765363 237.108565 
L 363.332148 236.623917 
L 363.898933 235.608466 
L 364.182326 235.746937 
L 364.465719 237.200879 
L 364.749111 237.800918 
L 365.599289 241.054979 
L 365.882682 243.085882 
L 366.166074 241.955039 
L 366.449467 242.23198 
L 366.732859 241.724254 
L 367.016252 240.916508 
L 367.299644 240.501096 
L 367.583037 240.731881 
L 368.149822 242.093509 
L 368.433215 242.208901 
L 369 242.947412 
L 369.283393 243.016647 
L 369.566785 243.316667 
L 369.850178 242.832019 
L 370.13357 243.155118 
L 370.416963 242.439686 
L 370.700356 241.378077 
L 370.983748 241.054979 
L 371.267141 241.354999 
L 371.833926 243.962863 
L 372.117318 243.962863 
L 372.400711 243.132039 
L 372.684104 241.770411 
L 372.967496 242.347372 
L 373.250889 240.685724 
L 373.817674 239.000997 
L 374.101067 238.447115 
L 374.384459 238.424036 
L 374.951244 237.247036 
L 375.234637 236.346976 
L 375.518029 236.208505 
L 375.801422 235.793093 
L 376.934992 237.570134 
L 377.218385 238.124016 
L 378.351955 243.408981 
L 378.91874 248.717023 
L 379.202133 248.440082 
L 379.485526 249.755553 
L 379.768918 250.517142 
L 380.052311 250.124808 
L 380.335703 250.032495 
L 380.619096 249.617083 
L 380.902489 248.278533 
L 381.469274 247.216924 
L 381.752666 247.770807 
L 382.319451 247.309238 
L 382.602844 246.755355 
L 382.886237 246.98614 
L 383.169629 246.824591 
L 383.453022 247.28616 
L 383.736414 247.263081 
L 384.019807 246.870748 
L 384.3032 247.193846 
L 385.153377 251.324888 
L 385.43677 250.978711 
L 385.720163 251.555672 
L 386.003555 179.989411 
L 386.286948 252.201869 
L 386.57034 252.455731 
L 387.137125 250.217122 
L 387.703911 249.132435 
L 387.987303 249.0632 
L 388.270696 249.317063 
L 388.554088 249.178592 
L 389.120874 249.917102 
L 389.404266 249.824789 
L 389.687659 250.517142 
L 390.254444 249.732475 
L 390.537836 250.078651 
L 391.104622 248.878572 
L 391.388014 249.709396 
L 391.671407 251.255652 
L 391.954799 250.747926 
L 392.238192 251.14026 
L 392.521585 251.186417 
L 392.804977 250.032495 
L 393.08837 250.124808 
L 393.371762 251.163338 
L 393.655155 250.817162 
L 393.938547 251.371044 
L 394.788725 251.301809 
L 395.072118 251.209495 
L 395.35551 250.978711 
L 395.638903 252.271104 
L 396.205688 253.240399 
L 396.489081 254.786654 
L 397.055866 255.871341 
L 397.339259 255.755949 
L 397.906044 253.863517 
L 398.189436 253.263477 
L 398.472829 252.17879 
L 398.756221 252.617281 
L 399.039614 253.540418 
L 399.323007 252.47881 
L 399.606399 253.125006 
L 399.889792 253.494261 
L 400.173184 253.194242 
L 400.456577 253.701968 
L 400.73997 252.248025 
L 401.023362 252.17879 
L 401.87354 254.371242 
L 402.440325 256.517538 
L 403.290503 259.517736 
L 404.140681 261.756345 
L 404.424073 262.333306 
L 404.707466 262.171757 
L 405.274251 265.448897 
L 405.841036 265.725838 
L 406.407821 260.487031 
L 406.691214 260.971678 
L 406.974606 259.240795 
L 407.257999 255.5944 
L 407.541392 255.271302 
L 408.108177 252.871143 
L 408.391569 252.524967 
L 408.674962 252.538814 
L 408.958354 252.848065 
L 409.52514 253.678889 
L 410.091925 253.886595 
L 410.65871 254.925125 
L 411.225495 255.871341 
L 411.508888 256.125204 
L 411.79228 257.357593 
L 412.359066 261.202462 
L 412.642458 262.240993 
L 412.925851 262.817954 
L 413.209243 264.387288 
L 413.492636 264.756543 
L 413.776028 264.179582 
L 414.059421 265.264269 
L 414.342814 264.964249 
L 414.909599 262.517934 
L 415.192991 262.102522 
L 415.759777 263.048738 
L 416.609954 265.171955 
L 416.893347 265.148877 
L 417.176739 265.725838 
L 417.460132 265.956622 
L 418.026917 265.125798 
L 418.31031 264.433445 
L 418.593702 265.10272 
L 418.877095 266.87976 
L 419.160488 266.718211 
L 419.727273 267.941369 
L 420.010665 267.872133 
L 420.294058 268.426016 
L 420.57745 267.156702 
L 420.860843 266.602819 
L 421.144236 267.4798 
L 421.427628 267.987526 
L 421.711021 267.4798 
L 421.994413 266.048936 
L 422.277806 266.372034 
L 422.561199 267.849055 
L 422.844591 268.402938 
L 423.127984 268.195232 
L 423.694769 269.487625 
L 423.978162 269.672252 
L 424.261554 271.056959 
L 424.544947 270.756939 
L 425.111732 268.772193 
L 425.678517 271.080037 
L 425.96191 272.049332 
L 426.245302 271.93394 
L 426.528695 271.172351 
L 427.09548 272.395509 
L 427.378873 270.872331 
L 427.662265 270.849253 
L 427.945658 269.85688 
L 428.22905 267.018231 
L 428.512443 265.702759 
L 428.795835 265.54121 
L 429.362621 266.695133 
L 429.646013 267.687506 
L 430.496191 268.149075 
L 430.779584 267.341329 
L 431.062976 267.687506 
L 431.629761 267.664427 
L 431.913154 266.672054 
L 432.196546 268.195232 
L 432.479939 268.702957 
L 432.763332 268.241388 
L 433.046724 268.541408 
L 433.330117 268.541408 
L 433.613509 269.187605 
L 433.896902 269.164526 
L 434.180295 267.91829 
L 434.463687 267.872133 
L 434.74708 267.987526 
L 435.030472 268.702957 
L 435.88065 272.926313 
L 436.164043 272.210881 
L 436.730828 265.956622 
L 437.01422 264.571916 
L 437.297613 265.056563 
L 438.147791 270.433841 
L 438.431183 272.095489 
L 438.714576 272.810921 
L 438.997969 273.087862 
L 439.281361 272.026254 
L 439.564754 272.326273 
L 439.848146 271.841626 
L 440.414931 267.572114 
L 440.698324 268.010604 
L 440.981717 268.010604 
L 441.548502 266.995152 
L 441.831894 266.672054 
L 442.115287 266.718211 
L 442.682072 266.14125 
L 442.965465 266.302799 
L 443.248857 266.302799 
L 443.53225 266.002779 
L 443.815642 266.002779 
L 444.099035 265.795073 
L 444.949213 265.679681 
L 445.515998 266.348956 
L 445.799391 266.44127 
L 446.082783 267.041309 
L 446.366176 267.041309 
L 446.649568 267.295172 
L 446.932961 267.733663 
L 447.216353 267.895212 
L 448.633316 274.980295 
L 448.916709 275.695727 
L 449.200102 275.372628 
L 449.483494 273.018627 
L 450.050279 265.610446 
L 450.333672 264.087268 
L 450.617064 265.079641 
L 451.467242 272.026254 
L 451.750635 272.303195 
L 452.31742 269.049134 
L 452.600813 268.864507 
L 452.884205 269.372232 
L 453.45099 273.526353 
L 453.734383 275.718805 
L 454.017776 276.872727 
L 454.867953 268.933742 
L 455.151346 269.533781 
L 455.718131 273.318647 
L 456.001524 272.903235 
L 456.568309 265.979701 
L 457.135094 258.70999 
L 457.701879 254.99436 
L 459.118842 250.747926 
L 459.96902 246.455335 
L 460.252412 246.524571 
L 460.535805 246.016845 
L 461.10259 247.563101 
L 462.519553 252.617281 
L 463.653123 259.633128 
L 465.070086 263.810327 
L 465.636872 264.433445 
L 465.920264 264.410366 
L 466.203657 263.602621 
L 466.487049 263.441072 
L 466.770442 264.433445 
L 467.053834 264.248817 
L 467.337227 263.394915 
L 467.62062 263.441072 
L 467.904012 264.50268 
L 468.187405 261.133227 
L 468.470797 260.094697 
L 468.75419 260.371638 
L 469.037583 259.01001 
L 469.604368 257.948402 
L 469.88776 258.156108 
L 470.737938 257.902245 
L 471.021331 257.948402 
L 471.304723 257.833009 
L 472.154901 259.402344 
L 472.438294 259.402344 
L 472.721686 259.886991 
L 473.288471 265.079641 
L 473.855256 267.710584 
L 474.138649 267.595192 
L 474.705434 270.89541 
L 474.988827 270.941567 
L 475.272219 269.210683 
L 475.555612 268.979899 
L 475.839005 268.125996 
L 476.40579 267.802898 
L 476.972575 268.402938 
L 477.255967 268.633722 
L 477.53936 269.072213 
L 478.106145 268.910663 
L 478.389538 268.21831 
L 478.956323 265.748916 
L 479.523108 261.733267 
L 480.089893 264.895014 
L 480.656679 266.902839 
L 480.940071 266.072015 
L 481.223464 267.018231 
L 481.506856 268.379859 
L 482.640427 263.417993 
L 482.923819 263.16413 
L 483.490604 263.741092 
L 483.773997 264.779622 
L 485.19096 266.948996 
L 485.474352 266.925917 
L 485.757745 267.087466 
L 486.041138 266.925917 
L 486.32453 265.264269 
L 486.891315 270.318449 
L 487.174708 270.618468 
L 487.458101 268.726036 
L 487.741493 269.464546 
L 488.024886 269.164526 
L 488.308278 270.387684 
L 488.591671 268.472173 
L 488.875063 270.29537 
L 489.725241 267.018231 
L 490.292026 266.648976 
L 490.575419 265.471975 
L 490.858812 267.61827 
L 491.142204 267.849055 
L 491.425597 267.756741 
L 491.708989 268.356781 
L 491.992382 268.056761 
L 492.275775 267.387486 
L 492.84256 267.202858 
L 493.125952 265.633524 
L 493.409345 265.518132 
L 493.692737 266.556662 
L 493.97613 266.764368 
L 494.259523 267.572114 
L 494.542915 267.664427 
L 494.826308 268.495251 
L 495.1097 268.679879 
L 495.393093 268.310624 
L 495.676486 269.187605 
L 496.243271 267.895212 
L 496.526663 266.464348 
L 496.810056 266.372034 
L 497.093448 267.110545 
L 497.376841 266.625897 
L 497.660234 268.356781 
L 497.943626 268.21831 
L 498.227019 267.61827 
L 498.510411 267.502878 
L 498.793804 266.57974 
L 499.077197 265.056563 
L 499.360589 264.179582 
L 499.643982 264.36421 
L 500.210767 265.771995 
L 500.494159 264.687308 
L 500.777552 262.864111 
L 501.344337 261.525561 
L 501.62773 259.240795 
L 502.7613 254.394321 
L 503.044693 253.95583 
L 503.328085 252.132633 
L 503.89487 251.071025 
L 504.461656 251.971084 
L 505.028441 255.040517 
L 505.311833 254.763576 
L 505.595226 255.086674 
L 505.878619 254.837427 
L 506.162011 255.086674 
L 506.445404 254.209693 
L 506.728796 252.155712 
L 507.012189 253.101928 
L 507.295582 253.586575 
L 507.862367 238.354801 
L 508.429152 212.668491 
L 508.995937 185.574395 
L 509.562722 167.411658 
L 509.846115 163.488322 
L 510.129507 161.272791 
L 510.4129 161.111242 
L 510.696293 161.757439 
L 511.263078 161.803596 
L 512.396648 167.52705 
L 512.963433 169.742581 
L 513.246826 169.534875 
L 513.530218 169.581032 
L 514.097004 173.596682 
L 514.663789 175.442957 
L 514.947181 175.927605 
L 515.513966 173.481289 
L 515.797359 170.965739 
L 516.080752 169.650267 
L 516.364144 169.684885 
L 524.865922 169.511797 
L 525.149314 170.273385 
L 525.999492 174.242878 
L 526.566277 177.958508 
L 526.84967 178.304685 
L 527.133062 177.681566 
L 527.699848 183.912747 
L 527.98324 185.228218 
L 528.266633 187.143729 
L 528.550025 187.951475 
L 528.833418 187.997632 
L 529.116811 188.666907 
L 529.683596 187.305278 
L 529.966988 186.936023 
L 530.250381 188.297652 
L 530.533773 188.851534 
L 531.100559 190.582418 
L 531.667344 191.990203 
L 531.950736 191.874811 
L 532.517522 192.705635 
L 533.651092 196.698206 
L 534.50127 201.290817 
L 535.068055 204.79874 
L 535.63484 205.837271 
L 535.918233 205.768035 
L 536.76841 204.706427 
L 537.335196 204.244858 
L 537.618588 203.990995 
L 538.185373 204.544878 
L 538.468766 205.09876 
L 539.035551 207.221977 
L 539.885729 211.006842 
L 540.452514 212.714647 
L 540.735907 213.430079 
L 541.019299 213.799334 
L 541.302692 215.230198 
L 542.436262 225.477028 
L 542.719655 228.961873 
L 543.003047 230.369659 
L 543.28644 230.877384 
L 543.853225 227.992579 
L 544.136618 227.392539 
L 544.42001 226.053989 
L 544.986795 225.177008 
L 545.270188 225.130851 
L 545.55358 224.923145 
L 545.836973 225.292401 
L 546.120366 224.738518 
L 546.970543 224.323106 
L 547.253936 224.461576 
L 547.537329 224.023086 
L 547.820721 224.784675 
L 548.104114 227.369461 
L 548.387506 228.915717 
L 548.670899 228.477226 
L 549.237684 228.477226 
L 549.521077 229.054187 
L 549.804469 230.185031 
L 551.221432 233.3237 
L 551.504825 233.716033 
L 551.788217 233.76219 
L 552.638395 233.254464 
L 554.055358 230.115796 
L 554.622143 229.331129 
L 554.905536 229.377285 
L 555.188928 229.123423 
L 555.755714 229.123423 
L 556.039106 229.446521 
L 556.605891 230.900463 
L 556.889284 231.569738 
L 557.456069 232.239013 
L 557.739462 232.400562 
L 558.022854 232.42364 
L 558.306247 232.28517 
L 558.589639 232.308248 
L 558.873032 232.492876 
L 559.72321 230.669678 
L 560.006602 229.723462 
L 560.289995 229.769619 
L 560.85678 230.623522 
L 561.423565 232.077464 
L 561.706958 232.262091 
L 562.273743 231.223561 
L 562.557136 231.500502 
L 562.840528 233.000601 
L 563.123921 233.046758 
L 563.407313 231.892836 
L 563.690706 231.454346 
L 563.974099 230.600443 
L 564.257491 230.485051 
L 564.540884 230.508129 
L 564.824276 230.94662 
L 565.107669 230.692757 
L 565.674454 227.877186 
L 566.241239 223.353811 
L 567.091417 216.568748 
L 567.658202 214.630158 
L 567.941595 214.445531 
L 568.224987 214.676315 
L 568.791772 215.622532 
L 569.075165 216.522591 
L 569.64195 220.538241 
L 569.925343 219.384318 
L 570.208735 218.738122 
L 570.492128 218.507337 
L 570.775521 218.876593 
L 571.058913 218.899671 
L 571.909091 215.276355 
L 572.475876 211.445333 
L 572.759269 211.006842 
L 573.042661 210.360646 
L 573.609446 207.383526 
L 573.892839 207.383526 
L 574.176232 207.914331 
L 574.743017 210.014469 
L 575.876587 214.999414 
L 576.443372 216.522591 
L 576.726765 216.222571 
L 577.010157 215.184041 
L 577.576943 211.745353 
L 578.143728 209.229802 
L 578.42712 208.652841 
L 578.993906 210.176018 
L 579.277298 210.614509 
L 579.560691 210.45296 
L 579.844083 210.499117 
L 580.127476 211.029921 
L 580.694261 210.15294 
L 581.544439 207.891252 
L 581.827831 207.960488 
L 582.111224 211.399176 
L 582.394617 211.445333 
L 582.678009 210.706823 
L 582.961402 210.522195 
L 583.244794 208.583606 
L 583.528187 207.545076 
L 583.811579 207.568154 
L 584.094972 209.506743 
L 584.94515 217.838062 
L 585.228542 219.153534 
L 585.795328 218.830436 
L 586.07872 218.299631 
L 586.362113 218.876593 
L 586.645505 219.015063 
L 586.928898 218.899671 
L 587.212291 218.991985 
L 587.779076 218.668887 
L 588.062468 218.7612 
L 588.345861 217.053395 
L 588.629253 216.591826 
L 588.912646 218.715043 
L 589.479431 217.953455 
L 589.762824 218.968906 
L 590.046216 217.791906 
L 590.329609 217.261101 
L 590.613002 215.94563 
L 591.179787 216.891846 
L 591.463179 216.707219 
L 591.746572 215.784081 
L 592.029964 215.484061 
L 592.313357 214.699394 
L 592.59675 214.814786 
L 593.446927 212.991589 
L 593.73032 212.945432 
L 594.013713 212.714647 
L 594.297105 211.814588 
L 594.580498 212.091529 
L 594.86389 212.091529 
L 595.430675 213.314687 
L 595.714068 214.237825 
L 596.280853 217.238023 
L 596.564246 218.068847 
L 596.847638 218.253474 
L 597.414424 219.568946 
L 598.264601 218.530416 
L 598.547994 216.661062 
L 598.831386 216.522591 
L 599.114779 216.545669 
L 599.398172 217.030317 
L 599.964957 218.691965 
L 600.248349 219.892044 
L 600.531742 220.192064 
L 601.098527 221.784477 
L 601.38192 222.569144 
L 601.948705 223.099948 
L 602.232098 223.907694 
L 602.51549 223.169183 
L 603.082275 223.930772 
L 603.365668 224.715439 
L 603.64906 224.507733 
L 603.932453 224.576969 
L 604.499238 223.81538 
L 605.916201 218.068847 
L 606.199594 216.591826 
L 606.482986 216.084101 
L 607.899949 208.283586 
L 608.183342 208.329743 
L 608.466734 206.945036 
L 608.750127 206.368075 
L 609.03352 206.575781 
L 609.600305 207.614311 
L 609.883697 207.129664 
L 610.16709 206.991193 
L 611.017268 206.091133 
L 611.584053 204.06023 
L 612.434231 202.698602 
L 612.717623 202.513974 
L 613.001016 201.54468 
L 613.284408 201.798543 
L 613.567801 202.398582 
L 613.851193 203.62174 
L 614.134586 203.0217 
L 614.417979 202.906308 
L 614.701371 203.644818 
L 614.984764 203.0217 
L 615.268156 203.252485 
L 615.551549 202.790916 
L 616.401727 205.144917 
L 616.968512 207.822017 
L 617.251905 208.306664 
L 617.535297 207.568154 
L 617.81869 202.537053 
L 618.102082 199.998424 
L 618.385475 199.790718 
L 618.95226 196.028931 
L 619.235653 194.921166 
L 619.519045 194.759616 
L 619.802438 194.898087 
L 620.08583 195.313499 
L 622.352971 206.13729 
L 622.636364 206.275761 
L 622.636364 206.275761 
" clip-path="url(#pd98c1c5a57)" style="fill: none; stroke: #1f77b4; stroke-width: 1.5; stroke-linecap: square"/>
   </g>
   <g id="line2d_16">
    <path d="M 115.363636 235.954648 
L 115.930422 235.954649 
L 116.213814 229.446521 
L 122.731844 229.464029 
L 123.015236 238.539429 
L 127.266125 238.493236 
L 127.549518 238.712663 
L 127.83291 237.373862 
L 128.116303 237.287454 
L 128.399695 238.844503 
L 128.683088 239.013199 
L 128.96648 238.267547 
L 129.249873 236.986032 
L 129.533266 238.048429 
L 129.816658 241.170371 
L 130.666836 241.351316 
L 136.334688 241.362975 
L 136.61808 241.216528 
L 143.13611 241.216783 
L 143.419502 243.016647 
L 148.237176 243.038205 
L 148.520569 243.176353 
L 149.087354 236.368377 
L 149.370747 236.821867 
L 149.654139 239.421311 
L 149.937532 243.283846 
L 150.220924 238.008624 
L 150.504317 240.09495 
L 150.787709 240.786255 
L 151.071102 241.145701 
L 151.92128 243.115155 
L 152.204672 243.23852 
L 152.488065 242.592152 
L 152.771458 242.479798 
L 153.05485 243.438406 
L 153.338243 243.751489 
L 153.621635 243.726344 
L 154.188421 243.880716 
L 156.738954 243.873258 
L 157.022346 157.972574 
L 163.540376 157.973267 
L 163.823768 106.04607 
L 166.657694 106.052428 
L 166.941087 105.877724 
L 167.224479 104.593087 
L 167.507872 104.719869 
L 167.791265 106.135492 
L 168.074657 106.480423 
L 168.35805 106.64593 
L 168.641442 106.679858 
L 168.924835 106.573255 
L 170.341798 106.691426 
L 170.62519 93.42216 
L 177.14322 93.423195 
L 177.426612 76.436424 
L 182.811072 76.465455 
L 183.094464 76.252531 
L 183.377857 76.281822 
L 183.661249 76.519705 
L 183.944642 76.480915 
L 184.228035 109.277053 
L 197.547486 109.278996 
L 197.830879 159.057261 
L 204.348908 159.057949 
L 204.632301 175.881448 
L 216.534789 175.836443 
L 216.818182 176.054611 
L 217.101574 174.747245 
L 217.384967 174.892103 
L 217.66836 176.363646 
L 217.951752 176.163804 
L 218.518537 176.206097 
L 226.170137 176.210066 
L 238.356018 176.211183 
L 238.639411 115.900567 
L 245.15744 115.901482 
L 245.440833 127.024378 
L 250.258507 129.017438 
L 250.541899 128.950344 
L 250.825292 128.670473 
L 251.108685 128.605789 
L 251.958862 128.858314 
L 252.242255 140.548347 
L 253.092433 140.605474 
L 253.94261 140.371704 
L 255.076181 139.715973 
L 257.059929 138.448821 
L 258.193499 137.99313 
L 258.760284 137.862557 
L 259.043677 165.611539 
L 259.893855 165.32543 
L 261.027425 165.193832 
L 262.444388 165.300547 
L 264.428136 165.724746 
L 268.11224 166.811354 
L 287.382936 172.819462 
L 287.666328 206.068055 
L 291.350432 227.17289 
L 292.767395 234.703175 
L 293.050787 214.837864 
L 295.884713 230.852511 
L 298.151854 242.485774 
L 298.718639 243.935987 
L 299.568817 247.901857 
L 301.269172 254.753739 
L 302.686135 259.69149 
L 304.103098 263.919925 
L 304.953276 265.999668 
L 305.236668 266.517332 
L 305.520061 267.578481 
L 305.803454 267.991625 
L 306.086846 268.761111 
L 306.370239 268.81023 
L 306.937024 270.010237 
L 308.070594 271.881163 
L 309.204165 273.346173 
L 310.337735 274.430364 
L 311.471305 275.151553 
L 312.321483 275.465481 
L 313.171661 275.59433 
L 314.021838 275.547478 
L 315.155409 275.229983 
L 316.288979 274.647622 
L 317.42255 273.834466 
L 318.839512 272.555228 
L 320.823261 270.44258 
L 324.507364 266.474605 
L 325.924327 265.268584 
L 327.057897 264.532429 
L 328.191468 264.034762 
L 329.325038 263.793504 
L 330.458608 263.811688 
L 331.592179 264.077692 
L 332.725749 264.566704 
L 334.142712 265.436708 
L 336.12646 266.982354 
L 339.810564 270.074726 
L 343.494667 231.546659 
L 344.91163 226.034901 
L 346.611986 219.606844 
L 347.745556 216.192077 
L 348.595734 214.229536 
L 349.445912 212.758183 
L 350.579482 211.36138 
L 350.862875 230.577365 
L 352.279837 230.401874 
L 354.263586 230.41844 
L 356.247334 230.602585 
L 356.530726 239.439488 
L 362.198578 240.113198 
L 363.048756 240.220879 
L 363.332148 237.362428 
L 369.850178 238.234438 
L 370.13357 243.039725 
L 371.833926 245.379992 
L 373.534281 247.380062 
L 374.384459 248.292693 
L 374.667852 248.316542 
L 374.951244 248.130947 
L 375.234637 248.227154 
L 376.368207 249.271484 
L 376.6516 249.508863 
L 376.934992 236.254662 
L 380.902489 237.046859 
L 381.185881 236.848838 
L 381.469274 236.489155 
L 382.036059 235.306419 
L 382.319451 235.017089 
L 382.886237 234.985063 
L 383.453022 235.051557 
L 383.736414 247.609258 
L 386.286948 249.252036 
L 389.120874 250.794257 
L 390.254444 251.345549 
L 390.537836 250.655613 
L 397.055866 251.857974 
L 397.339259 254.25585 
L 398.189436 254.651424 
L 399.323007 253.312251 
L 401.590147 254.082223 
L 403.857288 254.321789 
L 404.140681 260.210089 
L 404.424073 259.535005 
L 404.707466 259.275797 
L 405.274251 258.161147 
L 407.257999 258.32838 
L 412.075673 259.039601 
L 412.359066 256.19444 
L 415.759777 258.157497 
L 417.743525 259.194114 
L 418.026917 265.333504 
L 420.010665 265.005003 
L 421.994413 264.895974 
L 424.261554 264.978789 
L 427.09548 265.314314 
L 430.496191 265.954291 
L 431.062976 266.079379 
L 431.346369 267.502878 
L 433.896902 267.724775 
L 437.01422 268.219265 
L 437.864398 268.384951 
L 438.147791 266.44127 
L 440.131539 267.293505 
L 440.414931 267.320078 
L 440.698324 267.587988 
L 441.548502 266.67467 
L 443.248857 267.322063 
L 443.53225 267.026258 
L 443.815642 267.226341 
L 444.099035 266.679051 
L 444.382428 266.379175 
L 446.082783 262.963559 
L 446.366176 266.072015 
L 447.499746 265.249378 
L 447.783139 265.067106 
L 448.066531 267.733663 
L 449.766887 266.246469 
L 450.333672 265.88575 
L 450.900457 264.485148 
L 451.18385 264.50859 
L 451.467242 264.322233 
L 451.750635 269.903037 
L 455.434738 265.595593 
L 457.135094 264.086475 
L 458.835449 262.904988 
L 460.535805 261.994447 
L 462.519553 261.213977 
L 464.503301 260.682989 
L 465.070086 260.570609 
L 465.353479 262.887189 
L 467.053834 262.098431 
L 469.037583 261.454477 
L 471.021331 261.052578 
L 471.871508 260.942826 
L 472.154901 258.317657 
L 476.972575 259.400983 
L 478.67293 259.832496 
L 478.956323 268.287545 
L 485.474352 268.928756 
L 485.757745 266.718211 
L 492.559167 267.438913 
L 492.84256 268.102918 
L 498.227019 268.539986 
L 499.360589 267.491921 
L 499.927374 266.601624 
L 500.210767 266.363491 
L 500.777552 265.146527 
L 502.7613 260.094518 
L 503.89487 259.539423 
L 504.461656 259.517792 
L 505.311833 259.886811 
L 505.878619 260.209508 
L 506.162011 254.763576 
L 508.429152 257.345687 
L 510.129507 258.952313 
L 511.829863 260.245145 
L 512.396648 260.331948 
L 512.680041 260.524987 
L 512.963433 167.261648 
L 515.230574 164.167092 
L 516.080752 162.977072 
L 516.364144 162.606183 
L 529.683596 144.16081 
L 533.084307 139.494082 
L 533.367699 193.536459 
L 537.051803 189.164398 
L 539.885729 185.814382 
L 540.169121 209.737528 
L 546.120366 203.559668 
L 546.687151 202.955106 
L 546.970543 224.623126 
L 552.355003 219.891984 
L 553.20518 218.811229 
L 553.488573 218.539415 
L 553.771965 231.962071 
L 556.605891 229.618857 
L 556.889284 229.079514 
L 557.172676 228.924853 
L 557.456069 228.563492 
L 557.739462 228.94972 
L 558.022854 228.429791 
L 558.589639 223.860028 
L 558.873032 221.623085 
L 559.439817 220.092308 
L 560.006602 219.63299 
L 560.573388 219.114658 
L 560.85678 229.711923 
L 561.140173 229.338342 
L 561.423565 229.197991 
L 562.557136 229.19532 
L 562.840528 228.85914 
L 563.407313 227.848102 
L 565.107669 225.975889 
L 565.391061 225.037426 
L 565.957847 222.319256 
L 566.524632 220.952046 
L 567.091417 220.380652 
L 567.37481 219.015063 
L 571.342306 220.268208 
L 572.475876 220.494784 
L 573.892839 220.951037 
L 574.176232 207.660468 
L 577.29355 221.90942 
L 579.277298 230.103399 
L 580.694261 235.354733 
L 580.977654 210.74144 
L 587.495683 213.214104 
L 587.779076 219.188152 
L 592.313357 220.660379 
L 593.446927 220.737852 
L 594.297105 221.026604 
L 594.580498 212.68003 
L 595.430675 212.837571 
L 596.280853 213.067726 
L 597.414424 212.965996 
L 597.981209 212.58051 
L 598.831386 212.405256 
L 599.681564 212.446189 
L 600.248349 212.39686 
L 600.815135 212.115383 
L 601.098527 212.067382 
L 601.38192 220.815182 
L 601.665312 220.82643 
L 602.51549 220.484607 
L 602.798883 220.47687 
L 603.082275 220.623322 
L 603.365668 220.408438 
L 603.932453 218.46737 
L 604.499238 217.058107 
L 604.782631 216.595661 
L 605.066023 216.522501 
L 606.482986 216.958801 
L 607.616557 216.735735 
L 607.899949 216.578701 
L 608.183342 209.945234 
L 610.450482 210.808448 
L 614.701371 212.428712 
L 614.984764 202.779376 
L 621.502793 202.779385 
L 621.786186 200.425375 
L 622.636364 200.425375 
L 622.636364 200.425375 
" clip-path="url(#pd98c1c5a57)" style="fill: none; stroke: #ff7f0e; stroke-width: 1.5; stroke-linecap: square"/>
   </g>
   <g id="patch_3">
    <path d="M 90 288 
L 90 43.2 
" style="fill: none; stroke: #000000; stroke-width: 0.8; stroke-linejoin: miter; stroke-linecap: square"/>
   </g>
   <g id="patch_4">
    <path d="M 648 288 
L 648 43.2 
" style="fill: none; stroke: #000000; stroke-width: 0.8; stroke-linejoin: miter; stroke-linecap: square"/>
   </g>
   <g id="patch_5">
    <path d="M 90 288 
L 648 288 
" style="fill: none; stroke: #000000; stroke-width: 0.8; stroke-linejoin: miter; stroke-linecap: square"/>
   </g>
   <g id="patch_6">
    <path d="M 90 43.2 
L 648 43.2 
" style="fill: none; stroke: #000000; stroke-width: 0.8; stroke-linejoin: miter; stroke-linecap: square"/>
   </g>
   <g id="text_16">
    <!-- MDOT3970 -->
    <g transform="translate(335.545313 37.2) scale(0.12 -0.12)">
     <defs>
      <path id="DejaVuSans-44" d="M 1259 4147 
L 1259 519 
L 2022 519 
Q 2988 519 3436 956 
Q 3884 1394 3884 2338 
Q 3884 3275 3436 3711 
Q 2988 4147 2022 4147 
L 1259 4147 
z
M 628 4666 
L 1925 4666 
Q 3281 4666 3915 4102 
Q 4550 3538 4550 2338 
Q 4550 1131 3912 565 
Q 3275 0 1925 0 
L 628 0 
L 628 4666 
z
" transform="scale(0.015625)"/>
      <path id="DejaVuSans-4f" d="M 2522 4238 
Q 1834 4238 1429 3725 
Q 1025 3213 1025 2328 
Q 1025 1447 1429 934 
Q 1834 422 2522 422 
Q 3209 422 3611 934 
Q 4013 1447 4013 2328 
Q 4013 3213 3611 3725 
Q 3209 4238 2522 4238 
z
M 2522 4750 
Q 3503 4750 4090 4092 
Q 4678 3434 4678 2328 
Q 4678 1225 4090 567 
Q 3503 -91 2522 -91 
Q 1538 -91 948 565 
Q 359 1222 359 2328 
Q 359 3434 948 4092 
Q 1538 4750 2522 4750 
z
" transform="scale(0.015625)"/>
      <path id="DejaVuSans-54" d="M -19 4666 
L 3928 4666 
L 3928 4134 
L 2272 4134 
L 2272 0 
L 1638 0 
L 1638 4134 
L -19 4134 
L -19 4666 
z
" transform="scale(0.015625)"/>
      <path id="DejaVuSans-37" d="M 525 4666 
L 3525 4666 
L 3525 4397 
L 1831 0 
L 1172 0 
L 2766 4134 
L 525 4134 
L 525 4666 
z
" transform="scale(0.015625)"/>
     </defs>
     <use xlink:href="#DejaVuSans-4d"/>
     <use xlink:href="#DejaVuSans-44" x="86.279297"/>
     <use xlink:href="#DejaVuSans-4f" x="163.28125"/>
     <use xlink:href="#DejaVuSans-54" x="241.992188"/>
     <use xlink:href="#DejaVuSans-33" x="303.076172"/>
     <use xlink:href="#DejaVuSans-39" x="366.699219"/>
     <use xlink:href="#DejaVuSans-37" x="430.322266"/>
     <use xlink:href="#DejaVuSans-30" x="493.945312"/>
    </g>
   </g>
   <g id="legend_1">
    <g id="patch_7">
     <path d="M 559.04375 80.55625 
L 641 80.55625 
Q 643 80.55625 643 78.55625 
L 643 50.2 
Q 643 48.2 641 48.2 
L 559.04375 48.2 
Q 557.04375 48.2 557.04375 50.2 
L 557.04375 78.55625 
Q 557.04375 80.55625 559.04375 80.55625 
z
" style="fill: #ffffff; opacity: 0.8; stroke: #cccccc; stroke-linejoin: miter"/>
    </g>
    <g id="line2d_17">
     <path d="M 561.04375 56.298437 
L 571.04375 56.298437 
L 581.04375 56.298437 
" style="fill: none; stroke: #1f77b4; stroke-width: 1.5; stroke-linecap: square"/>
    </g>
    <g id="text_17">
     <!-- measured -->
     <g transform="translate(589.04375 59.798437) scale(0.1 -0.1)">
      <defs>
       <path id="DejaVuSans-6d" d="M 3328 2828 
Q 3544 3216 3844 3400 
Q 4144 3584 4550 3584 
Q 5097 3584 5394 3201 
Q 5691 2819 5691 2113 
L 5691 0 
L 5113 0 
L 5113 2094 
Q 5113 2597 4934 2840 
Q 4756 3084 4391 3084 
Q 3944 3084 3684 2787 
Q 3425 2491 3425 1978 
L 3425 0 
L 2847 0 
L 2847 2094 
Q 2847 2600 2669 2842 
Q 2491 3084 2119 3084 
Q 1678 3084 1418 2786 
Q 1159 2488 1159 1978 
L 1159 0 
L 581 0 
L 581 3500 
L 1159 3500 
L 1159 2956 
Q 1356 3278 1631 3431 
Q 1906 3584 2284 3584 
Q 2666 3584 2933 3390 
Q 3200 3197 3328 2828 
z
" transform="scale(0.015625)"/>
       <path id="DejaVuSans-61" d="M 2194 1759 
Q 1497 1759 1228 1600 
Q 959 1441 959 1056 
Q 959 750 1161 570 
Q 1363 391 1709 391 
Q 2188 391 2477 730 
Q 2766 1069 2766 1631 
L 2766 1759 
L 2194 1759 
z
M 3341 1997 
L 3341 0 
L 2766 0 
L 2766 531 
Q 2569 213 2275 61 
Q 1981 -91 1556 -91 
Q 1019 -91 701 211 
Q 384 513 384 1019 
Q 384 1609 779 1909 
Q 1175 2209 1959 2209 
L 2766 2209 
L 2766 2266 
Q 2766 2663 2505 2880 
Q 2244 3097 1772 3097 
Q 1472 3097 1187 3025 
Q 903 2953 641 2809 
L 641 3341 
Q 956 3463 1253 3523 
Q 1550 3584 1831 3584 
Q 2591 3584 2966 3190 
Q 3341 2797 3341 1997 
z
" transform="scale(0.015625)"/>
       <path id="DejaVuSans-75" d="M 544 1381 
L 544 3500 
L 1119 3500 
L 1119 1403 
Q 1119 906 1312 657 
Q 1506 409 1894 409 
Q 2359 409 2629 706 
Q 2900 1003 2900 1516 
L 2900 3500 
L 3475 3500 
L 3475 0 
L 2900 0 
L 2900 538 
Q 2691 219 2414 64 
Q 2138 -91 1772 -91 
Q 1169 -91 856 284 
Q 544 659 544 1381 
z
M 1991 3584 
L 1991 3584 
z
" transform="scale(0.015625)"/>
       <path id="DejaVuSans-64" d="M 2906 2969 
L 2906 4863 
L 3481 4863 
L 3481 0 
L 2906 0 
L 2906 525 
Q 2725 213 2448 61 
Q 2172 -91 1784 -91 
Q 1150 -91 751 415 
Q 353 922 353 1747 
Q 353 2572 751 3078 
Q 1150 3584 1784 3584 
Q 2172 3584 2448 3432 
Q 2725 3281 2906 2969 
z
M 947 1747 
Q 947 1113 1208 752 
Q 1469 391 1925 391 
Q 2381 391 2643 752 
Q 2906 1113 2906 1747 
Q 2906 2381 2643 2742 
Q 2381 3103 1925 3103 
Q 1469 3103 1208 2742 
Q 947 2381 947 1747 
z
" transform="scale(0.015625)"/>
      </defs>
      <use xlink:href="#DejaVuSans-6d"/>
      <use xlink:href="#DejaVuSans-65" x="97.412109"/>
      <use xlink:href="#DejaVuSans-61" x="158.935547"/>
      <use xlink:href="#DejaVuSans-73" x="220.214844"/>
      <use xlink:href="#DejaVuSans-75" x="272.314453"/>
      <use xlink:href="#DejaVuSans-72" x="335.693359"/>
      <use xlink:href="#DejaVuSans-65" x="374.556641"/>
      <use xlink:href="#DejaVuSans-64" x="436.080078"/>
     </g>
    </g>
    <g id="line2d_18">
     <path d="M 561.04375 70.976562 
L 571.04375 70.976562 
L 581.04375 70.976562 
" style="fill: none; stroke: #ff7f0e; stroke-width: 1.5; stroke-linecap: square"/>
    </g>
    <g id="text_18">
     <!-- predicted -->
     <g transform="translate(589.04375 74.476562) scale(0.1 -0.1)">
      <defs>
       <path id="DejaVuSans-70" d="M 1159 525 
L 1159 -1331 
L 581 -1331 
L 581 3500 
L 1159 3500 
L 1159 2969 
Q 1341 3281 1617 3432 
Q 1894 3584 2278 3584 
Q 2916 3584 3314 3078 
Q 3713 2572 3713 1747 
Q 3713 922 3314 415 
Q 2916 -91 2278 -91 
Q 1894 -91 1617 61 
Q 1341 213 1159 525 
z
M 3116 1747 
Q 3116 2381 2855 2742 
Q 2594 3103 2138 3103 
Q 1681 3103 1420 2742 
Q 1159 2381 1159 1747 
Q 1159 1113 1420 752 
Q 1681 391 2138 391 
Q 2594 391 2855 752 
Q 3116 1113 3116 1747 
z
" transform="scale(0.015625)"/>
       <path id="DejaVuSans-69" d="M 603 3500 
L 1178 3500 
L 1178 0 
L 603 0 
L 603 3500 
z
M 603 4863 
L 1178 4863 
L 1178 4134 
L 603 4134 
L 603 4863 
z
" transform="scale(0.015625)"/>
       <path id="DejaVuSans-63" d="M 3122 3366 
L 3122 2828 
Q 2878 2963 2633 3030 
Q 2388 3097 2138 3097 
Q 1578 3097 1268 2742 
Q 959 2388 959 1747 
Q 959 1106 1268 751 
Q 1578 397 2138 397 
Q 2388 397 2633 464 
Q 2878 531 3122 666 
L 3122 134 
Q 2881 22 2623 -34 
Q 2366 -91 2075 -91 
Q 1284 -91 818 406 
Q 353 903 353 1747 
Q 353 2603 823 3093 
Q 1294 3584 2113 3584 
Q 2378 3584 2631 3529 
Q 2884 3475 3122 3366 
z
" transform="scale(0.015625)"/>
      </defs>
      <use xlink:href="#DejaVuSans-70"/>
      <use xlink:href="#DejaVuSans-72" x="63.476562"/>
      <use xlink:href="#DejaVuSans-65" x="102.339844"/>
      <use xlink:href="#DejaVuSans-64" x="163.863281"/>
      <use xlink:href="#DejaVuSans-69" x="227.339844"/>
      <use xlink:href="#DejaVuSans-63" x="255.123047"/>
      <use xlink:href="#DejaVuSans-74" x="310.103516"/>
      <use xlink:href="#DejaVuSans-65" x="349.3125"/>
      <use xlink:href="#DejaVuSans-64" x="410.835938"/>
     </g>
    </g>
   </g>
  </g>
 </g>
 <defs>
  <clipPath id="pd98c1c5a57">
   <rect x="90" y="43.2" width="558" height="244.8"/>
  </clipPath>
 </defs>
</svg>
