<?xml version="1.0" encoding="utf-8" standalone="no"?>
<!DOCTYPE svg PUBLIC "-//W3C//DTD SVG 1.1//EN"
  "http://www.w3.org/Graphics/SVG/1.1/DTD/svg11.dtd">
<svg xmlns:xlink="http://www.w3.org/1999/xlink" width="713.0225pt" height="351.43625pt" viewBox="0 0 713.0225 351.43625" xmlns="http://www.w3.org/2000/svg" version="1.1">
 <metadata>
  <rdf:RDF xmlns:dc="http://purl.org/dc/elements/1.1/" xmlns:cc="http://creativecommons.org/ns#" xmlns:rdf="http://www.w3.org/1999/02/22-rdf-syntax-ns#">
   <cc:Work>
    <dc:type rdf:resource="http://purl.org/dc/dcmitype/StillImage"/>
    <dc:date>2024-05-09T00:00:04.994284</dc:date>
    <dc:format>image/svg+xml</dc:format>
    <dc:creator>
     <cc:Agent>
      <dc:title>Matplotlib v3.8.4, https://matplotlib.org/</dc:title>
     </cc:Agent>
    </dc:creator>
   </cc:Work>
  </rdf:RDF>
 </metadata>
 <defs>
  <style type="text/css">*{stroke-linejoin: round; stroke-linecap: butt}</style>
 </defs>
 <g id="figure_1">
  <g id="patch_1">
   <path d="M 0 351.43625 
L 713.0225 351.43625 
L 713.0225 0 
L 0 0 
z
" style="fill: #ffffff"/>
  </g>
  <g id="axes_1">
   <g id="patch_2">
    <path d="M 46.0125 327.558125 
L 705.8225 327.558125 
L 705.8225 22.318125 
L 46.0125 22.318125 
z
" style="fill: #ffffff"/>
   </g>
   <g id="matplotlib.axis_1">
    <g id="xtick_1">
     <g id="line2d_1">
      <defs>
       <path id="ma803982470" d="M 0 0 
L 0 3.5 
" style="stroke: #000000; stroke-width: 0.8"/>
      </defs>
      <g>
       <use xlink:href="#ma803982470" x="104.935754" y="327.558125" style="stroke: #000000; stroke-width: 0.8"/>
      </g>
     </g>
     <g id="text_1">
      <!-- 2010 -->
      <g transform="translate(92.210754 342.156563) scale(0.1 -0.1)">
       <defs>
        <path id="DejaVuSans-32" d="M 1228 531 
L 3431 531 
L 3431 0 
L 469 0 
L 469 531 
Q 828 903 1448 1529 
Q 2069 2156 2228 2338 
Q 2531 2678 2651 2914 
Q 2772 3150 2772 3378 
Q 2772 3750 2511 3984 
Q 2250 4219 1831 4219 
Q 1534 4219 1204 4116 
Q 875 4013 500 3803 
L 500 4441 
Q 881 4594 1212 4672 
Q 1544 4750 1819 4750 
Q 2544 4750 2975 4387 
Q 3406 4025 3406 3419 
Q 3406 3131 3298 2873 
Q 3191 2616 2906 2266 
Q 2828 2175 2409 1742 
Q 1991 1309 1228 531 
z
" transform="scale(0.015625)"/>
        <path id="DejaVuSans-30" d="M 2034 4250 
Q 1547 4250 1301 3770 
Q 1056 3291 1056 2328 
Q 1056 1369 1301 889 
Q 1547 409 2034 409 
Q 2525 409 2770 889 
Q 3016 1369 3016 2328 
Q 3016 3291 2770 3770 
Q 2525 4250 2034 4250 
z
M 2034 4750 
Q 2819 4750 3233 4129 
Q 3647 3509 3647 2328 
Q 3647 1150 3233 529 
Q 2819 -91 2034 -91 
Q 1250 -91 836 529 
Q 422 1150 422 2328 
Q 422 3509 836 4129 
Q 1250 4750 2034 4750 
z
" transform="scale(0.015625)"/>
        <path id="DejaVuSans-31" d="M 794 531 
L 1825 531 
L 1825 4091 
L 703 3866 
L 703 4441 
L 1819 4666 
L 2450 4666 
L 2450 531 
L 3481 531 
L 3481 0 
L 794 0 
L 794 531 
z
" transform="scale(0.015625)"/>
       </defs>
       <use xlink:href="#DejaVuSans-32"/>
       <use xlink:href="#DejaVuSans-30" x="63.623047"/>
       <use xlink:href="#DejaVuSans-31" x="127.246094"/>
       <use xlink:href="#DejaVuSans-30" x="190.869141"/>
      </g>
     </g>
    </g>
    <g id="xtick_2">
     <g id="line2d_2">
      <g>
       <use xlink:href="#ma803982470" x="220.478659" y="327.558125" style="stroke: #000000; stroke-width: 0.8"/>
      </g>
     </g>
     <g id="text_2">
      <!-- 2012 -->
      <g transform="translate(207.753659 342.156563) scale(0.1 -0.1)">
       <use xlink:href="#DejaVuSans-32"/>
       <use xlink:href="#DejaVuSans-30" x="63.623047"/>
       <use xlink:href="#DejaVuSans-31" x="127.246094"/>
       <use xlink:href="#DejaVuSans-32" x="190.869141"/>
      </g>
     </g>
    </g>
    <g id="xtick_3">
     <g id="line2d_3">
      <g>
       <use xlink:href="#ma803982470" x="336.179842" y="327.558125" style="stroke: #000000; stroke-width: 0.8"/>
      </g>
     </g>
     <g id="text_3">
      <!-- 2014 -->
      <g transform="translate(323.454842 342.156563) scale(0.1 -0.1)">
       <defs>
        <path id="DejaVuSans-34" d="M 2419 4116 
L 825 1625 
L 2419 1625 
L 2419 4116 
z
M 2253 4666 
L 3047 4666 
L 3047 1625 
L 3713 1625 
L 3713 1100 
L 3047 1100 
L 3047 0 
L 2419 0 
L 2419 1100 
L 313 1100 
L 313 1709 
L 2253 4666 
z
" transform="scale(0.015625)"/>
       </defs>
       <use xlink:href="#DejaVuSans-32"/>
       <use xlink:href="#DejaVuSans-30" x="63.623047"/>
       <use xlink:href="#DejaVuSans-31" x="127.246094"/>
       <use xlink:href="#DejaVuSans-34" x="190.869141"/>
      </g>
     </g>
    </g>
    <g id="xtick_4">
     <g id="line2d_4">
      <g>
       <use xlink:href="#ma803982470" x="451.722747" y="327.558125" style="stroke: #000000; stroke-width: 0.8"/>
      </g>
     </g>
     <g id="text_4">
      <!-- 2016 -->
      <g transform="translate(438.997747 342.156563) scale(0.1 -0.1)">
       <defs>
        <path id="DejaVuSans-36" d="M 2113 2584 
Q 1688 2584 1439 2293 
Q 1191 2003 1191 1497 
Q 1191 994 1439 701 
Q 1688 409 2113 409 
Q 2538 409 2786 701 
Q 3034 994 3034 1497 
Q 3034 2003 2786 2293 
Q 2538 2584 2113 2584 
z
M 3366 4563 
L 3366 3988 
Q 3128 4100 2886 4159 
Q 2644 4219 2406 4219 
Q 1781 4219 1451 3797 
Q 1122 3375 1075 2522 
Q 1259 2794 1537 2939 
Q 1816 3084 2150 3084 
Q 2853 3084 3261 2657 
Q 3669 2231 3669 1497 
Q 3669 778 3244 343 
Q 2819 -91 2113 -91 
Q 1303 -91 875 529 
Q 447 1150 447 2328 
Q 447 3434 972 4092 
Q 1497 4750 2381 4750 
Q 2619 4750 2861 4703 
Q 3103 4656 3366 4563 
z
" transform="scale(0.015625)"/>
       </defs>
       <use xlink:href="#DejaVuSans-32"/>
       <use xlink:href="#DejaVuSans-30" x="63.623047"/>
       <use xlink:href="#DejaVuSans-31" x="127.246094"/>
       <use xlink:href="#DejaVuSans-36" x="190.869141"/>
      </g>
     </g>
    </g>
    <g id="xtick_5">
     <g id="line2d_5">
      <g>
       <use xlink:href="#ma803982470" x="567.423929" y="327.558125" style="stroke: #000000; stroke-width: 0.8"/>
      </g>
     </g>
     <g id="text_5">
      <!-- 2018 -->
      <g transform="translate(554.698929 342.156563) scale(0.1 -0.1)">
       <defs>
        <path id="DejaVuSans-38" d="M 2034 2216 
Q 1584 2216 1326 1975 
Q 1069 1734 1069 1313 
Q 1069 891 1326 650 
Q 1584 409 2034 409 
Q 2484 409 2743 651 
Q 3003 894 3003 1313 
Q 3003 1734 2745 1975 
Q 2488 2216 2034 2216 
z
M 1403 2484 
Q 997 2584 770 2862 
Q 544 3141 544 3541 
Q 544 4100 942 4425 
Q 1341 4750 2034 4750 
Q 2731 4750 3128 4425 
Q 3525 4100 3525 3541 
Q 3525 3141 3298 2862 
Q 3072 2584 2669 2484 
Q 3125 2378 3379 2068 
Q 3634 1759 3634 1313 
Q 3634 634 3220 271 
Q 2806 -91 2034 -91 
Q 1263 -91 848 271 
Q 434 634 434 1313 
Q 434 1759 690 2068 
Q 947 2378 1403 2484 
z
M 1172 3481 
Q 1172 3119 1398 2916 
Q 1625 2713 2034 2713 
Q 2441 2713 2670 2916 
Q 2900 3119 2900 3481 
Q 2900 3844 2670 4047 
Q 2441 4250 2034 4250 
Q 1625 4250 1398 4047 
Q 1172 3844 1172 3481 
z
" transform="scale(0.015625)"/>
       </defs>
       <use xlink:href="#DejaVuSans-32"/>
       <use xlink:href="#DejaVuSans-30" x="63.623047"/>
       <use xlink:href="#DejaVuSans-31" x="127.246094"/>
       <use xlink:href="#DejaVuSans-38" x="190.869141"/>
      </g>
     </g>
    </g>
    <g id="xtick_6">
     <g id="line2d_6">
      <g>
       <use xlink:href="#ma803982470" x="682.966834" y="327.558125" style="stroke: #000000; stroke-width: 0.8"/>
      </g>
     </g>
     <g id="text_6">
      <!-- 2020 -->
      <g transform="translate(670.241834 342.156563) scale(0.1 -0.1)">
       <use xlink:href="#DejaVuSans-32"/>
       <use xlink:href="#DejaVuSans-30" x="63.623047"/>
       <use xlink:href="#DejaVuSans-32" x="127.246094"/>
       <use xlink:href="#DejaVuSans-30" x="190.869141"/>
      </g>
     </g>
    </g>
   </g>
   <g id="matplotlib.axis_2">
    <g id="ytick_1">
     <g id="line2d_7">
      <defs>
       <path id="m3ec86eee0e" d="M 0 0 
L -3.5 0 
" style="stroke: #000000; stroke-width: 0.8"/>
      </defs>
      <g>
       <use xlink:href="#m3ec86eee0e" x="46.0125" y="313.672679" style="stroke: #000000; stroke-width: 0.8"/>
      </g>
     </g>
     <g id="text_7">
      <!-- 0 -->
      <g transform="translate(32.65 317.471897) scale(0.1 -0.1)">
       <use xlink:href="#DejaVuSans-30"/>
      </g>
     </g>
    </g>
    <g id="ytick_2">
     <g id="line2d_8">
      <g>
       <use xlink:href="#m3ec86eee0e" x="46.0125" y="259.973422" style="stroke: #000000; stroke-width: 0.8"/>
      </g>
     </g>
     <g id="text_8">
      <!-- 10000 -->
      <g transform="translate(7.2 263.772641) scale(0.1 -0.1)">
       <use xlink:href="#DejaVuSans-31"/>
       <use xlink:href="#DejaVuSans-30" x="63.623047"/>
       <use xlink:href="#DejaVuSans-30" x="127.246094"/>
       <use xlink:href="#DejaVuSans-30" x="190.869141"/>
       <use xlink:href="#DejaVuSans-30" x="254.492188"/>
      </g>
     </g>
    </g>
    <g id="ytick_3">
     <g id="line2d_9">
      <g>
       <use xlink:href="#m3ec86eee0e" x="46.0125" y="206.274165" style="stroke: #000000; stroke-width: 0.8"/>
      </g>
     </g>
     <g id="text_9">
      <!-- 20000 -->
      <g transform="translate(7.2 210.073384) scale(0.1 -0.1)">
       <use xlink:href="#DejaVuSans-32"/>
       <use xlink:href="#DejaVuSans-30" x="63.623047"/>
       <use xlink:href="#DejaVuSans-30" x="127.246094"/>
       <use xlink:href="#DejaVuSans-30" x="190.869141"/>
       <use xlink:href="#DejaVuSans-30" x="254.492188"/>
      </g>
     </g>
    </g>
    <g id="ytick_4">
     <g id="line2d_10">
      <g>
       <use xlink:href="#m3ec86eee0e" x="46.0125" y="152.574908" style="stroke: #000000; stroke-width: 0.8"/>
      </g>
     </g>
     <g id="text_10">
      <!-- 30000 -->
      <g transform="translate(7.2 156.374127) scale(0.1 -0.1)">
       <defs>
        <path id="DejaVuSans-33" d="M 2597 2516 
Q 3050 2419 3304 2112 
Q 3559 1806 3559 1356 
Q 3559 666 3084 287 
Q 2609 -91 1734 -91 
Q 1441 -91 1130 -33 
Q 819 25 488 141 
L 488 750 
Q 750 597 1062 519 
Q 1375 441 1716 441 
Q 2309 441 2620 675 
Q 2931 909 2931 1356 
Q 2931 1769 2642 2001 
Q 2353 2234 1838 2234 
L 1294 2234 
L 1294 2753 
L 1863 2753 
Q 2328 2753 2575 2939 
Q 2822 3125 2822 3475 
Q 2822 3834 2567 4026 
Q 2313 4219 1838 4219 
Q 1578 4219 1281 4162 
Q 984 4106 628 3988 
L 628 4550 
Q 988 4650 1302 4700 
Q 1616 4750 1894 4750 
Q 2613 4750 3031 4423 
Q 3450 4097 3450 3541 
Q 3450 3153 3228 2886 
Q 3006 2619 2597 2516 
z
" transform="scale(0.015625)"/>
       </defs>
       <use xlink:href="#DejaVuSans-33"/>
       <use xlink:href="#DejaVuSans-30" x="63.623047"/>
       <use xlink:href="#DejaVuSans-30" x="127.246094"/>
       <use xlink:href="#DejaVuSans-30" x="190.869141"/>
       <use xlink:href="#DejaVuSans-30" x="254.492188"/>
      </g>
     </g>
    </g>
    <g id="ytick_5">
     <g id="line2d_11">
      <g>
       <use xlink:href="#m3ec86eee0e" x="46.0125" y="98.875652" style="stroke: #000000; stroke-width: 0.8"/>
      </g>
     </g>
     <g id="text_11">
      <!-- 40000 -->
      <g transform="translate(7.2 102.67487) scale(0.1 -0.1)">
       <use xlink:href="#DejaVuSans-34"/>
       <use xlink:href="#DejaVuSans-30" x="63.623047"/>
       <use xlink:href="#DejaVuSans-30" x="127.246094"/>
       <use xlink:href="#DejaVuSans-30" x="190.869141"/>
       <use xlink:href="#DejaVuSans-30" x="254.492188"/>
      </g>
     </g>
    </g>
    <g id="ytick_6">
     <g id="line2d_12">
      <g>
       <use xlink:href="#m3ec86eee0e" x="46.0125" y="45.176395" style="stroke: #000000; stroke-width: 0.8"/>
      </g>
     </g>
     <g id="text_12">
      <!-- 50000 -->
      <g transform="translate(7.2 48.975614) scale(0.1 -0.1)">
       <defs>
        <path id="DejaVuSans-35" d="M 691 4666 
L 3169 4666 
L 3169 4134 
L 1269 4134 
L 1269 2991 
Q 1406 3038 1543 3061 
Q 1681 3084 1819 3084 
Q 2600 3084 3056 2656 
Q 3513 2228 3513 1497 
Q 3513 744 3044 326 
Q 2575 -91 1722 -91 
Q 1428 -91 1123 -41 
Q 819 9 494 109 
L 494 744 
Q 775 591 1075 516 
Q 1375 441 1709 441 
Q 2250 441 2565 725 
Q 2881 1009 2881 1497 
Q 2881 1984 2565 2268 
Q 2250 2553 1709 2553 
Q 1456 2553 1204 2497 
Q 953 2441 691 2322 
L 691 4666 
z
" transform="scale(0.015625)"/>
       </defs>
       <use xlink:href="#DejaVuSans-35"/>
       <use xlink:href="#DejaVuSans-30" x="63.623047"/>
       <use xlink:href="#DejaVuSans-30" x="127.246094"/>
       <use xlink:href="#DejaVuSans-30" x="190.869141"/>
       <use xlink:href="#DejaVuSans-30" x="254.492188"/>
      </g>
     </g>
    </g>
   </g>
   <g id="line2d_13">
    <path d="M 76.003864 313.594976 
L 83.865002 313.574167 
L 83.891382 313.282849 
L 83.977115 313.424212 
L 84.273887 313.56383 
L 85.639034 313.646849 
L 86.990991 313.557789 
L 87.037156 313.063622 
L 87.056941 309.602436 
L 87.149269 312.244439 
L 87.340522 313.162965 
L 87.597724 313.405417 
L 87.782381 313.300838 
L 87.841735 313.282849 
L 87.894495 313.320573 
L 88.26381 313.49241 
L 89.00244 313.411727 
L 89.01563 312.853926 
L 89.04201 311.213414 
L 89.127744 312.245782 
L 89.371756 313.106313 
L 89.747666 313.391993 
L 90.98751 313.581551 
L 91.620622 313.49429 
L 91.633811 312.890307 
L 91.693166 259.205684 
L 91.772305 295.19761 
L 91.937177 309.16076 
L 92.121835 311.453718 
L 92.372442 312.335728 
L 92.379037 312.315591 
L 92.444986 312.451182 
L 92.787921 312.698198 
L 93.038528 312.91568 
L 93.328704 313.103628 
L 93.486982 313.184176 
L 93.942032 313.076778 
L 94.159664 312.985489 
L 94.443245 313.076778 
L 94.951053 312.966694 
L 95.076357 312.276659 
L 95.18847 312.432387 
L 95.247825 312.539785 
L 95.551191 312.993544 
L 97.041641 313.48167 
L 102.897926 313.591754 
L 103.155127 313.594976 
L 104.052036 313.485698 
L 104.289453 313.429045 
L 104.810451 313.44247 
L 108.32554 313.333729 
L 108.529983 312.945215 
L 108.694856 312.966694 
L 108.932273 313.021736 
L 109.044386 313.076778 
L 109.9347 313.320573 
L 110.554622 313.209818 
L 110.877772 312.872721 
L 111.134974 312.941187 
L 111.365796 313.047243 
L 111.649377 313.135847 
L 112.097832 313.240561 
L 112.302274 313.28889 
L 113.284916 313.184311 
L 113.456384 312.972064 
L 114.504975 313.280835 
L 115.230416 313.38716 
L 115.441453 313.405417 
L 115.70525 313.411861 
L 116.034996 313.305 
L 116.232843 313.238413 
L 117.182511 313.346617 
L 117.393548 313.335608 
L 117.63756 312.998914 
L 117.769458 312.052465 
L 117.828812 310.991904 
L 117.921141 311.32484 
L 118.125584 311.916874 
L 118.138773 311.841695 
L 118.178343 310.304554 
L 118.217912 292.015929 
L 118.303646 306.608702 
L 118.481709 310.899273 
L 118.824644 312.307536 
L 118.831239 312.303509 
L 119.15439 312.682088 
L 119.160985 312.678061 
L 119.563275 312.797542 
L 119.879831 312.907625 
L 121.09989 313.286876 
L 122.056153 313.395215 
L 122.352924 313.419379 
L 122.748619 313.435086 
L 123.203668 313.424212 
L 126.032886 313.346214 
L 126.112025 312.182685 
L 126.138405 308.647932 
L 126.224139 311.212071 
L 126.263708 311.589309 
L 126.316468 311.024124 
L 126.408796 307.024872 
L 126.435176 300.043968 
L 126.52091 305.816638 
L 126.764922 311.025466 
L 126.877035 311.610788 
L 126.929795 311.304702 
L 126.956174 311.338265 
L 126.962769 311.263086 
L 127.002339 307.782031 
L 127.022123 302.44701 
L 127.107857 308.525766 
L 127.305705 311.148975 
L 127.490362 311.950436 
L 127.773944 312.614964 
L 128.169639 312.982804 
L 128.354296 313.100943 
L 128.400461 313.090203 
L 128.46641 313.114367 
L 129.429267 313.38716 
L 130.187682 313.458311 
L 133.735747 313.567589 
L 134.111657 313.559534 
L 135.503184 313.513219 
L 135.516373 311.153002 
L 135.615297 313.202971 
L 135.80655 313.469588 
L 136.18246 313.562756 
L 136.20884 313.38716 
L 136.294573 313.525032 
L 136.525395 313.579134 
L 137.165102 313.612697 
L 143.562169 313.571348 
L 143.575359 305.722665 
L 143.674283 312.303509 
L 143.852346 313.041873 
L 144.195281 313.488383 
L 144.518432 313.559534 
L 144.802013 313.466769 
L 144.828393 313.123496 
L 144.867962 312.851241 
L 144.947101 312.972064 
L 145.191113 313.162965 
L 145.619783 313.234117 
L 145.626378 313.214382 
L 145.679137 313.135847 
L 145.745086 313.175048 
L 145.982503 313.264188 
L 146.153971 313.375077 
L 146.688159 313.533759 
L 147.301486 313.522616 
L 147.809294 313.542351 
L 156.923466 313.467306 
L 156.936656 309.486983 
L 157.03558 312.290084 
L 157.213643 312.945215 
L 157.431275 313.234117 
L 157.985248 313.465561 
L 160.128595 313.57457 
L 160.425366 313.581551 
L 169.987992 313.495766 
L 170.027562 312.871378 
L 170.053942 312.067232 
L 170.14627 312.177315 
L 170.21222 311.483253 
L 170.284764 311.836325 
L 170.58813 312.93716 
L 170.799167 313.165382 
L 171.049774 313.335608 
L 171.359735 313.435086 
L 171.36633 313.396826 
L 171.419089 313.057983 
L 171.445469 310.59453 
L 171.537797 311.739666 
L 171.788404 312.778747 
L 172.368757 313.312518 
L 173.034843 313.405417 
L 173.186526 313.405417 
L 173.397563 313.348362 
L 173.628385 313.305 
L 174.215333 313.362861 
L 174.624217 313.165382 
L 174.80228 313.238413 
L 175.085861 313.348362 
L 176.061909 313.49241 
L 179.280227 313.390382 
L 179.478075 312.833789 
L 179.48467 312.835131 
L 179.695707 312.985489 
L 179.933124 313.165382 
L 180.24968 313.32809 
L 180.256275 313.227539 
L 180.342008 311.425526 
L 180.473907 306.702676 
L 180.493691 308.018308 
L 180.645374 310.335431 
L 180.731108 309.355419 
L 180.764083 298.943134 
L 180.895981 281.907044 
L 180.902576 281.074706 
L 180.928956 289.008771 
L 181.080639 307.293368 
L 181.291676 310.469679 
L 181.575257 311.971916 
L 181.865434 312.503538 
L 183.30972 313.255596 
L 183.599896 313.221363 
L 183.613086 312.598855 
L 183.71201 312.886146 
L 183.956022 313.160549 
L 184.338527 313.305 
L 184.86612 313.214382 
L 184.971639 312.261892 
L 185.037588 312.900913 
L 185.176081 313.0996 
L 185.182676 313.021736 
L 185.209055 303.53442 
L 185.584966 307.481315 
L 185.802598 310.547543 
L 185.99385 311.664487 
L 186.514849 312.786802 
L 186.950113 313.098258 
L 188.460348 313.417768 
L 189.291308 313.506909 
L 191.84354 313.617395 
L 193.149333 313.639117 
L 211.971219 313.582491 
L 212.043763 312.39077 
L 212.096522 308.94462 
L 212.155877 311.037549 
L 212.333939 312.76935 
L 212.729634 313.268484 
L 213.151709 313.411861 
L 218.750791 313.333326 
L 218.82993 313.150749 
L 218.876095 313.165382 
L 219.100322 313.298959 
L 219.390498 313.415799 
L 220.142318 313.525032 
L 220.946898 313.559534 
L 232.989212 313.509325 
L 233.002402 310.121976 
L 233.048566 292.297851 
L 233.127705 302.742356 
L 233.272793 308.388833 
L 233.285983 308.058582 
L 233.332148 305.118548 
L 233.398097 307.85721 
L 233.57616 310.856314 
L 233.919095 312.311564 
L 234.182892 312.739815 
L 234.6907 313.098258 
L 234.980876 313.205253 
L 235.304027 313.294931 
L 235.943734 313.406894 
L 235.950329 313.376823 
L 236.062442 313.398436 
L 237.084654 313.28889 
L 237.295691 312.307536 
L 237.869449 313.133162 
L 239.043344 313.49241 
L 244.022504 313.603433 
L 244.147808 313.51389 
L 244.167592 313.454284 
L 244.259921 313.51295 
L 244.464364 313.500868 
L 244.800704 313.54772 
L 245.024931 313.562756 
L 245.968004 313.604105 
L 261.162688 313.542498 
L 261.169282 313.320304 
L 261.248421 313.636083 
L 261.268206 313.623973 
L 261.439674 313.434146 
L 261.492433 313.372124 
L 261.551787 313.427568 
L 261.980457 313.500734 
L 263.009264 313.611623 
L 264.512904 313.653293 
L 265.680204 313.63035 
L 265.693394 313.174242 
L 265.805507 313.209684 
L 265.904431 313.340441 
L 265.911026 313.313726 
L 265.950596 310.214608 
L 265.963785 305.239371 
L 266.056114 311.30336 
L 266.234177 312.754582 
L 266.563923 313.314129 
L 267.16406 313.529463 
L 283.031425 313.421661 
L 283.084184 312.994484 
L 283.117158 312.051122 
L 283.202892 312.427017 
L 283.868979 313.30057 
L 284.12618 313.395215 
L 286.196984 313.542753 
L 286.88945 313.457506 
L 287.786358 313.205119 
L 287.944636 313.240561 
L 288.195243 313.31037 
L 289.191075 313.482207 
L 289.375732 313.238278 
L 289.481251 312.872721 
L 289.520821 312.891516 
L 289.685693 312.996229 
L 290.444109 313.282446 
L 291.242093 313.411324 
L 292.712759 313.314129 
L 292.877632 313.207401 
L 293.03591 313.186324 
L 293.240352 313.076778 
L 293.477769 313.098258 
L 293.649237 313.16753 
L 294.077907 313.278419 
L 294.183425 313.227673 
L 294.209805 313.016366 
L 294.282349 310.132716 
L 294.381273 311.132865 
L 294.631879 312.335728 
L 294.96822 312.868693 
L 295.37051 313.135847 
L 295.3837 313.095573 
L 295.456244 304.272785 
L 295.469434 303.520995 
L 295.528788 307.790086 
L 295.713445 311.088563 
L 295.964052 312.373318 
L 296.260823 312.806939 
L 296.491645 313.006969 
L 297.586401 313.117052 
L 297.863388 313.200555 
L 298.061235 313.152762 
L 298.338221 313.071408 
L 298.595423 313.138801 
L 298.83284 313.125107 
L 298.898789 312.776062 
L 298.944954 311.804106 
L 299.017498 312.141068 
L 299.254915 312.670006 
L 299.749533 313.044558 
L 299.769318 313.001599 
L 299.855052 313.068723 
L 300.085874 313.177196 
L 300.224367 313.236265 
L 300.38924 313.298556 
L 301.259769 313.408102 
L 301.549945 313.430522 
L 301.93245 313.457506 
L 302.143487 313.381387 
L 302.202841 307.414191 
L 302.29517 310.547543 
L 302.466638 311.616158 
L 303.014016 312.912995 
L 303.020611 312.837816 
L 303.126129 311.68731 
L 303.152509 311.783968 
L 303.429496 312.704911 
L 303.673507 313.012339 
L 304.247265 313.336682 
L 304.919946 313.414278 
L 306.364233 313.52463 
L 307.287521 313.564367 
L 307.498558 313.571348 
L 308.679048 313.604105 
L 311.138951 313.512145 
L 311.158736 312.935817 
L 311.277444 313.257744 
L 311.508266 313.365143 
L 311.679734 313.414278 
L 311.686329 313.406491 
L 311.844607 313.021736 
L 311.930341 313.125107 
L 312.200732 313.321647 
L 312.405174 313.270364 
L 312.411769 313.255596 
L 312.438149 311.997423 
L 312.530478 312.581402 
L 312.556857 312.589457 
L 312.563452 312.431044 
L 312.576642 305.118548 
L 312.675566 310.668366 
L 312.880008 312.577375 
L 313.11083 313.012339 
L 313.117425 312.957297 
L 313.13721 310.699243 
L 313.189969 300.111092 
L 313.249323 306.756375 
L 313.427386 311.073796 
L 313.697778 312.684773 
L 313.922005 313.015024 
L 313.987954 313.049928 
L 314.001144 312.929105 
L 314.040713 312.255179 
L 314.146232 312.625704 
L 314.363864 313.052613 
L 314.858483 313.314129 
L 315.412455 313.423138 
L 315.649872 313.450793 
L 316.553376 313.521408 
L 317.503043 313.564367 
L 327.487744 313.454821 
L 327.857059 313.418708 
L 328.120856 313.464218 
L 328.463792 313.50315 
L 328.727588 313.522482 
L 329.248586 313.546646 
L 329.532168 313.564367 
L 334.557493 313.453478 
L 334.682796 313.296408 
L 334.748745 313.017709 
L 334.788315 313.041873 
L 335.263149 313.358162 
L 335.421427 313.372124 
L 337.729647 313.517783 
L 337.960469 313.365143 
L 338.158316 313.345945 
L 338.468277 313.391993 
L 339.694931 313.499525 
L 342.194404 313.581819 
L 348.050688 313.472273 
L 348.129827 313.278419 
L 348.26832 313.135847 
L 348.499142 313.244857 
L 348.914622 313.385549 
L 349.903859 313.494692 
L 350.161061 313.512279 
L 356.083294 313.622362 
L 356.393255 313.638284 
L 356.525153 313.623436 
L 360.831633 313.513353 
L 360.871202 313.472139 
L 360.923962 308.204913 
L 360.943746 295.546656 
L 361.02948 308.927168 
L 361.227328 312.365263 
L 361.352631 312.848556 
L 361.372416 312.698198 
L 361.398795 311.626898 
L 361.491124 312.284714 
L 361.504314 312.389427 
L 361.524099 311.753091 
L 361.590048 309.546052 
L 361.642807 310.422692 
L 361.880224 312.577375 
L 362.097856 313.092888 
L 362.579285 313.342321 
L 363.608092 313.521408 
L 366.556019 313.632243 
L 366.931929 313.60142 
L 367.21551 313.63035 
L 368.151988 313.651897 
L 370.750384 313.557118 
L 370.763574 313.391993 
L 370.862498 313.47093 
L 371.416471 313.577792 
L 380.860389 313.649776 
L 380.886768 309.167472 
L 380.913148 293.116764 
L 380.998882 307.991458 
L 381.190134 311.504732 
L 381.341817 312.341098 
L 381.407766 312.20685 
L 381.50669 311.057686 
L 381.592424 311.49802 
L 381.974929 312.829761 
L 382.331055 313.257744 
L 383.42581 313.498317 
L 384.382073 313.560608 
L 394.960316 313.452136 
L 395.243897 313.452136 
L 395.487909 313.473615 
L 397.934623 313.584236 
L 399.088733 313.590143 
L 402.465329 313.480194 
L 402.715936 313.385549 
L 403.57987 313.483818 
L 405.373686 313.376957 
L 405.433041 312.627047 
L 405.466015 310.500556 
L 405.551749 310.92478 
L 405.907874 312.437757 
L 405.987013 312.613622 
L 406.554176 313.135847 
L 406.811378 313.240561 
L 407.035605 313.306611 
L 407.273022 313.22096 
L 407.338971 312.5371 
L 407.371945 311.381224 
L 407.457679 311.727584 
L 407.708286 312.432387 
L 408.202905 313.025764 
L 408.308423 313.095573 
L 408.315018 312.984147 
L 408.440322 312.447154 
L 408.53265 312.433729 
L 408.552435 307.024872 
L 408.657954 310.228032 
L 408.868991 311.814845 
L 409.126193 312.496826 
L 409.403179 312.883461 
L 409.614216 313.044558 
L 409.825254 313.150212 
L 410.036291 313.231969 
L 410.821086 313.267813 
L 410.840871 310.76771 
L 410.946389 311.863175 
L 410.966174 311.953121 
L 411.005743 311.734297 
L 411.018933 311.27114 
L 411.038718 307.226244 
L 411.131047 309.739369 
L 411.335489 311.255031 
L 411.592691 312.145096 
L 411.836703 312.621677 
L 412.093904 312.868693 
L 412.990813 313.286474 
L 413.663494 313.391993 
L 413.801987 313.409713 
L 413.815177 313.385414 
L 413.947075 313.40488 
L 414.237252 313.400047 
L 414.250441 312.578852 
L 414.36915 310.59453 
L 414.38234 310.308581 
L 414.468074 310.918068 
L 414.527428 311.126152 
L 414.923123 312.389427 
L 415.219894 312.821706 
L 415.312223 312.902255 
L 415.51007 313.063353 
L 415.529855 312.996229 
L 415.562829 312.918365 
L 415.655158 312.95864 
L 415.998094 312.933132 
L 416.565256 313.155313 
L 416.631206 313.086444 
L 416.70375 295.076787 
L 416.809268 305.225947 
L 416.908192 308.384805 
L 416.974141 308.152556 
L 416.993926 308.383463 
L 417.323672 311.570514 
L 417.330267 311.557089 
L 417.336861 311.516815 
L 417.402811 311.796051 
L 417.44238 311.890024 
L 417.462165 311.731612 
L 417.528114 304.420458 
L 417.567684 292.244151 
L 417.633633 304.393608 
L 417.824885 309.723259 
L 418.055707 311.510102 
L 418.576705 312.754582 
L 418.886666 312.996229 
L 419.143868 313.135847 
L 419.572538 313.244857 
L 419.869309 313.319767 
L 420.001207 313.314129 
L 420.086941 313.290501 
L 420.093536 313.261906 
L 420.119915 313.205119 
L 420.212244 313.242709 
L 420.700268 313.145781 
L 420.799192 311.680597 
L 420.832166 311.947751 
L 421.076178 312.845871 
L 421.326785 313.152762 
L 421.366354 313.108997 
L 422.599603 313.493484 
L 423.061247 313.447974 
L 423.067842 313.235459 
L 423.166766 313.513353 
L 423.529486 313.567589 
L 423.635005 313.486101 
L 423.65479 313.344066 
L 423.753713 313.387025 
L 423.806473 312.337071 
L 423.859232 307.239669 
L 423.931776 309.634656 
L 423.951561 309.919262 
L 423.977941 308.465354 
L 424.037295 256.896616 
L 424.096649 297.708051 
L 424.254927 308.737878 
L 424.485749 311.475198 
L 424.736356 312.351838 
L 425.17162 312.92105 
L 425.310113 313.029791 
L 425.844301 313.242709 
L 425.9762 312.829761 
L 425.98939 312.684773 
L 426.075123 312.955955 
L 426.246591 313.174779 
L 426.721425 313.378568 
L 427.512815 313.488651 
L 427.776611 313.507983 
L 430.421172 313.456969 
L 430.447552 312.551868 
L 430.460742 308.376751 
L 430.55307 312.284714 
L 430.737728 313.119737 
L 431.014714 313.359907 
L 431.047689 313.378568 
L 431.060879 313.294394 
L 431.205967 312.974749 
L 431.680801 313.383803 
L 432.795341 313.564367 
L 433.903287 313.457506 
L 434.074755 313.434952 
L 434.688082 313.545572 
L 435.149726 313.581014 
L 444.685973 313.52463 
L 444.738732 310.943575 
L 444.758517 308.125706 
L 444.844251 311.044261 
L 445.042098 312.617649 
L 445.279515 313.082148 
L 445.873057 313.423138 
L 446.262157 313.334534 
L 446.301727 312.04441 
L 446.341296 303.051127 
L 446.420435 307.709537 
L 446.591903 310.742203 
L 446.954623 312.271289 
L 447.284369 312.833789 
L 447.600925 313.184042 
L 448.708871 313.452136 
L 448.755035 313.356283 
L 448.801199 311.667172 
L 448.873743 303.212224 
L 448.959477 305.749514 
L 449.064996 309.062759 
L 449.427716 312.137041 
L 450.113587 313.16753 
L 450.403764 313.274391 
L 450.647775 313.351181 
L 450.904977 313.288487 
L 450.918167 312.989382 
L 450.937952 301.211927 
L 450.970926 250.318457 
L 451.05666 287.075598 
L 451.089635 271.945832 
L 451.162179 286.202985 
L 451.307267 305.561567 
L 451.544684 310.101839 
L 451.986543 312.056492 
L 452.474567 312.641814 
L 452.632845 312.749212 
L 452.817502 312.802912 
L 453.054919 312.91031 
L 453.483589 313.119737 
L 454.096916 313.229821 
L 454.848736 313.358162 
L 456.906349 313.468246 
L 457.249285 313.488651 
L 463.151734 313.533759 
L 463.732086 313.169946 
L 463.989288 313.290501 
L 464.97193 313.477643 
L 465.367625 313.509057 
L 466.330482 313.553627 
L 467.926452 313.446766 
L 468.289172 313.336682 
L 469.113536 313.457506 
L 469.23884 313.415755 
L 469.542206 313.3442 
L 470.228077 313.453478 
L 470.320406 313.372124 
L 470.472089 313.26204 
L 470.630367 313.214248 
L 470.735885 313.051271 
L 470.762265 310.852286 
L 470.78205 301.332751 
L 470.874379 308.580808 
L 471.078821 311.241606 
L 471.678958 313.238413 
L 472.833068 313.498317 
L 473.525534 313.395215 
L 473.545319 312.887622 
L 473.571699 312.008163 
L 473.657433 312.621677 
L 473.934419 313.223377 
L 474.310329 313.439382 
L 475.180858 313.521408 
L 475.932678 313.416426 
L 475.985438 312.36392 
L 476.064577 312.895543 
L 476.301993 313.407968 
L 476.486651 313.481402 
L 476.935105 313.529463 
L 477.647356 313.556447 
L 477.660546 312.127644 
L 477.75947 313.302583 
L 477.924342 313.474958 
L 478.240898 313.540874 
L 478.557454 313.564367 
L 480.911839 313.53792 
L 480.925029 311.930299 
L 480.938218 310.095127 
L 481.037142 310.959685 
L 481.2218 312.561265 
L 481.399862 312.985489 
L 481.413052 312.90494 
L 481.446027 312.912995 
L 481.479001 312.990859 
L 481.742798 313.282446 
L 481.841722 313.213711 
L 481.854912 313.040531 
L 481.94724 313.30849 
L 482.151683 313.415755 
L 482.395695 313.472273 
L 483.437691 313.571348 
L 484.624776 313.592157 
L 484.637966 310.912698 
L 484.736889 313.513353 
L 485.112799 313.57457 
L 491.602195 313.5692 
L 491.63517 310.409267 
L 491.714309 313.30057 
L 491.800043 313.417097 
L 491.833017 313.282446 
L 492.419965 313.512279 
L 494.827109 313.622899 
L 496.080142 313.619946 
L 496.258205 313.592828 
L 497.023215 313.487175 
L 497.049595 312.314248 
L 497.135329 312.984147 
L 497.339771 313.393604 
L 497.682707 313.507983 
L 498.177325 313.465963 
L 498.22349 313.16753 
L 498.296034 313.276405 
L 498.619185 313.50315 
L 498.770868 313.525704 
L 505.708718 313.636539 
L 506.533082 313.639224 
L 512.039836 313.534833 
L 512.092595 313.201897 
L 512.204709 312.469976 
L 512.270658 312.711623 
L 512.48829 313.194379 
L 512.712517 313.353866 
L 513.780893 313.460728 
L 514.0315 313.495632 
L 518.410524 313.606655 
L 519.597608 313.615918 
L 523.205026 313.508788 
L 523.31714 313.283117 
L 523.409469 313.098258 
L 523.455633 313.125107 
L 523.699645 313.248616 
L 524.049176 313.355209 
L 524.253618 313.383938 
L 526.462914 313.349436 
L 526.495889 311.646632 
L 526.509079 307.535015 
L 526.601408 311.378539 
L 526.80585 312.856611 
L 527.010292 313.130477 
L 527.135596 313.053956 
L 527.16857 311.375854 
L 527.22133 290.51235 
L 527.293874 300.607811 
L 527.485126 310.00518 
L 527.702758 311.911504 
L 527.880821 312.351838 
L 527.926985 312.19611 
L 528.052289 310.840204 
L 528.138023 311.422841 
L 528.210567 311.785311 
L 528.250136 311.50876 
L 528.388629 309.052019 
L 528.434794 262.848283 
L 528.447984 78.480835 
L 528.863463 309.951481 
L 529.034931 311.073796 
L 529.081095 311.030836 
L 529.120665 310.927465 
L 529.608689 312.029642 
L 530.017573 312.357208 
L 530.182446 312.464606 
L 530.25499 312.506223 
L 530.26818 312.413592 
L 530.393483 311.159714 
L 530.426458 307.118845 
L 530.512192 309.170157 
L 530.749609 310.893903 
L 531.05957 311.793366 
L 531.521214 312.224302 
L 531.527809 312.210877 
L 531.659707 311.518157 
L 531.705871 301.493848 
L 531.738846 288.33753 
L 531.81139 304.59498 
L 531.976263 309.966248 
L 532.207085 311.385251 
L 532.497261 311.966546 
L 532.668729 312.194768 
L 532.919336 312.668664 
L 532.925931 312.586772 
L 533.018259 311.804106 
L 533.051234 311.861832 
L 533.572232 312.857953 
L 533.697536 312.91031 
L 534.442761 313.098258 
L 534.601039 313.150346 
L 534.917595 313.244857 
L 535.583681 313.354269 
L 535.794719 313.380581 
L 536.098085 313.401658 
L 536.368476 313.388771 
L 537.093917 313.45321 
L 538.630532 313.442336 
L 538.643722 313.135713 
L 538.742645 313.416157 
L 538.960278 313.390919 
L 538.973467 312.96401 
L 539.072391 313.33346 
L 539.494466 313.22915 
L 539.55382 313.059326 
L 539.619769 313.148064 
L 539.870376 313.361787 
L 540.569437 313.554701 
L 544.908891 313.59605 
L 544.92208 310.06962 
L 545.021004 312.58006 
L 545.265016 313.393604 
L 545.548597 313.516575 
L 545.75304 313.553627 
L 545.759635 313.538323 
L 545.805799 313.286608 
L 545.825584 310.625407 
L 545.917913 312.200138 
L 546.168519 313.259892 
L 546.379557 313.423138 
L 546.663138 313.493484 
L 546.682923 309.59814 
L 546.788441 312.261892 
L 547.052238 313.28446 
L 547.335819 313.457506 
L 547.896387 313.567589 
L 575.324637 313.457237 
L 575.364206 313.365143 
L 575.509295 307.890772 
L 575.542269 302.205363 
L 575.614813 308.258612 
L 575.799471 311.456403 
L 575.951154 312.205508 
L 575.977534 312.048437 
L 576.003913 308.743248 
L 576.043483 284.605432 
L 576.135812 296.150772 
L 576.300684 309.293665 
L 576.498532 311.370484 
L 576.782113 312.21222 
L 577.217378 312.733103 
L 577.223972 312.716993 
L 577.289922 312.786802 
L 578.015362 313.082148 
L 578.918865 313.235549 
L 580.600569 313.34957 
L 580.930314 313.246333 
L 580.950099 312.974749 
L 581.009453 302.849755 
L 581.114972 308.458642 
L 581.253465 310.93015 
L 581.28644 311.201331 
L 581.477692 312.197453 
L 581.668945 312.529046 
L 581.939336 312.793514 
L 582.130589 312.89957 
L 582.341626 313.031134 
L 582.612018 313.141217 
L 583.410002 313.337085 
L 583.535306 313.359236 
L 583.686989 313.363263 
L 584.240962 313.418171 
L 584.458594 313.437771 
L 584.959807 313.475763 
L 585.276363 313.474152 
L 585.408262 313.465561 
L 586.839358 313.47093 
L 587.017421 313.454284 
L 589.503704 313.482744 
L 589.516893 313.387428 
L 589.609222 313.48704 
L 591.765759 313.597661 
L 592.003176 313.601957 
L 607.151695 313.505701 
L 607.290188 313.430522 
L 607.296783 313.434952 
L 607.9233 313.542887 
L 608.160717 313.566784 
L 608.602576 313.611086 
L 609.255473 313.630874 
L 609.875395 313.649628 
L 611.590073 313.646111 
L 611.603263 313.013144 
L 611.609857 311.679255 
L 611.669212 313.19881 
L 611.715376 312.805597 
L 611.741756 312.883461 
L 611.933008 313.322586 
L 613.054144 313.551077 
L 613.403674 313.566515 
L 624.680978 313.475092 
L 624.799687 313.358162 
L 624.812877 313.361653 
L 625.109648 313.405417 
L 625.188787 313.198944 
L 625.215166 311.981313 
L 625.307495 312.620334 
L 625.518532 313.098258 
L 625.71638 313.242172 
L 625.722975 313.235593 
L 625.808709 312.92642 
L 625.848278 312.252494 
L 625.934012 312.572005 
L 626.145049 312.989517 
L 626.929844 313.354403 
L 626.989198 312.984147 
L 627.035363 310.030688 
L 627.074932 308.004883 
L 627.140881 310.163593 
L 627.66188 312.75861 
L 628.06417 313.082148 
L 628.519219 313.009654 
L 628.684091 313.074093 
L 628.82918 313.134505 
L 629.000647 313.200286 
L 629.9701 313.401256 
L 630.682351 313.490799 
L 630.801059 313.491873 
L 631.11102 313.394543 
L 631.203349 311.179852 
L 631.256108 311.636295 
L 631.282488 311.820215 
L 631.48693 312.58543 
L 631.658398 312.819022 
L 631.823271 312.918365 
L 634.817362 313.415486 
L 635.173488 313.449182 
L 635.542803 313.475092 
L 635.885738 313.324063 
L 635.991257 312.339756 
L 636.057206 312.461921 
L 636.426521 312.91031 
L 636.472686 312.902255 
L 636.51885 312.844529 
L 636.769457 312.778747 
L 637.086013 313.039188 
L 637.211316 313.103628 
L 637.415758 313.179881 
L 637.752099 313.269827 
L 638.457755 313.378568 
L 638.84026 313.430656 
L 639.341474 313.322452 
L 639.572296 313.236265 
L 639.987775 313.250361 
L 640.271357 313.279224 
L 640.891279 313.343126 
L 641.095721 313.36568 
L 641.530985 313.367291 
L 641.629909 312.962667 
L 641.709048 312.514278 
L 641.755212 312.600197 
L 641.821161 312.690143 
L 642.6785 313.248347 
L 643.061005 313.357625 
L 643.423726 313.414009 
L 644.201926 313.302986 
L 644.24809 309.582299 
L 644.27447 302.42016 
L 644.353609 309.442681 
L 644.360204 309.226541 
L 644.419558 310.688504 
L 644.426153 310.56768 
L 644.432748 310.554255 
L 644.439343 310.73012 
L 644.630595 312.171945 
L 644.63719 312.159863 
L 644.716329 310.637489 
L 644.821848 311.507417 
L 644.986721 312.20685 
L 645.171378 312.290084 
L 645.204353 312.159863 
L 645.250517 310.014578 
L 645.323061 311.225496 
L 645.356036 311.452375 
L 645.408795 310.915383 
L 645.461554 310.014578 
L 645.534098 310.56231 
L 645.698971 311.711474 
L 645.81768 312.126301 
L 645.850654 312.083342 
L 646.411222 312.675376 
L 646.5695 312.810967 
L 646.998169 313.023079 
L 647.017954 312.884803 
L 647.024549 312.856611 
L 647.103688 312.95864 
L 647.110283 312.95864 
L 647.33451 313.063353 
L 647.367485 313.057983 
L 647.380675 311.323497 
L 647.426839 281.853345 
L 647.519168 293.667182 
L 647.651066 309.16613 
L 647.657661 309.111088 
L 647.677446 309.71252 
L 647.684041 309.829315 
L 647.703825 309.411804 
L 647.717015 309.434626 
L 647.76318 280.900183 
L 647.829129 306.501304 
L 647.967622 310.044112 
L 647.974217 310.003838 
L 648.132495 310.853629 
L 648.165469 311.110043 
L 648.211634 311.09796 
L 648.310558 311.496677 
L 648.343532 311.349004 
L 648.409481 311.557089 
L 648.416076 311.551719 
L 648.435861 311.648378 
L 648.594139 312.029642 
L 648.739227 312.256522 
L 648.759012 312.208192 
L 648.772202 312.202823 
L 648.824961 312.296796 
L 648.897505 312.404195 
L 649.068973 312.612279 
L 649.273415 312.74787 
L 649.319579 312.735788 
L 649.372339 312.796199 
L 649.543807 312.870036 
L 649.576781 311.190592 
L 649.603161 308.872126 
L 649.6823 311.336922 
L 649.880147 312.296796 
L 649.886742 312.280686 
L 649.965881 312.36929 
L 650.038425 312.471319 
L 650.051615 312.397482 
L 650.097779 309.715204 
L 650.242867 310.340801 
L 650.256057 310.268307 
L 650.282437 310.479076 
L 650.552828 311.755776 
L 650.757271 312.137041 
L 651.522281 312.676718 
L 651.57504 312.512936 
L 651.6278 312.17463 
L 651.647584 312.200138 
L 651.700344 311.13018 
L 651.746508 295.358708 
L 651.812457 307.347067 
L 651.96414 310.601242 
L 651.970735 310.38913 
L 652.00371 308.045158 
L 652.036684 290.592899 
L 652.115823 306.836924 
L 652.129013 307.024872 
L 652.287291 310.566338 
L 652.326861 310.842889 
L 652.564277 311.989368 
L 652.623632 312.088712 
L 652.650011 312.020245 
L 652.656606 311.826928 
L 652.676391 252.036833 
L 652.689581 36.19267 
L 652.78191 303.176425 
L 652.795099 302.393311 
L 652.801694 303.212224 
L 652.920403 309.661505 
L 652.933593 309.453421 
L 652.946783 309.578271 
L 653.164415 311.496677 
L 653.619464 312.608252 
L 653.903045 312.859296 
L 654.628486 313.143902 
L 654.64827 313.052613 
L 654.747194 313.080805 
L 654.753789 313.090203 
L 657.048819 313.446632 
L 657.338996 313.440859 
L 657.556628 313.453478 
L 658.328233 313.500734 
L 658.638194 313.50315 
L 659.040484 313.464218 
L 659.172382 313.469588 
L 659.422989 313.454821 
L 659.831873 313.484624 
L 659.950582 313.450122 
L 659.957177 313.430925 
L 659.976962 313.111682 
L 660.102265 313.167261 
L 660.227568 313.191157 
L 660.544124 313.329701 
L 660.926629 313.415889 
L 661.177236 313.450525 
L 661.605905 313.476569 
L 662.239017 313.485966 
L 662.271992 313.290501 
L 662.291777 313.076778 
L 662.384105 313.224719 
L 662.542383 313.258684 
L 662.878724 313.344737 
L 662.885319 313.326479 
L 663.004027 312.643156 
L 663.037002 312.686116 
L 663.333773 313.08886 
L 664.296631 313.394141 
L 666.822483 313.531611 
L 667.633657 313.449451 
L 667.646847 312.633759 
L 667.693012 308.858701 
L 667.758961 311.570514 
L 667.937024 312.949242 
L 668.20082 313.305537 
L 668.860312 313.455089 
L 669.269196 313.437771 
L 669.308766 313.334534 
L 669.361525 311.988026 
L 669.374715 310.585132 
L 669.467044 312.069917 
L 669.658296 312.692828 
L 669.882523 313.001599 
L 669.968257 313.023079 
L 669.974852 313.013681 
L 670.047396 310.430747 
L 670.080371 305.950887 
L 670.15951 309.69104 
L 670.377142 311.981313 
L 670.634344 312.604224 
L 670.832191 312.800227 
L 671.135557 312.998914 
L 671.597201 313.173974 
L 671.610391 313.092888 
L 671.70272 312.510251 
L 671.828023 312.743843 
L 671.940137 312.845871 
L 672.137984 312.96401 
L 672.381996 312.853926 
L 672.593033 312.716993 
L 672.757906 312.824391 
L 672.968943 312.939845 
L 672.975538 312.918365 
L 673.021703 312.588115 
L 673.061272 311.409416 
L 673.127221 309.630628 
L 673.179981 310.197155 
L 673.417398 311.890024 
L 673.740548 312.572005 
L 674.017535 312.797542 
L 674.221977 312.92105 
L 674.248357 312.93716 
L 674.261547 312.861981 
L 674.327496 308.93925 
L 674.353875 304.25936 
L 674.433014 308.75533 
L 674.630862 311.322155 
L 674.874874 312.284714 
L 675.132075 312.72639 
L 675.560745 313.006969 
L 675.831136 313.103628 
L 675.831136 313.103628 
" clip-path="url(#p4f1b5a4b35)" style="fill: none; stroke: #1f77b4; stroke-width: 1.5; stroke-linecap: square"/>
   </g>
   <g id="patch_3">
    <path d="M 46.0125 327.558125 
L 46.0125 22.318125 
" style="fill: none; stroke: #000000; stroke-width: 0.8; stroke-linejoin: miter; stroke-linecap: square"/>
   </g>
   <g id="patch_4">
    <path d="M 705.8225 327.558125 
L 705.8225 22.318125 
" style="fill: none; stroke: #000000; stroke-width: 0.8; stroke-linejoin: miter; stroke-linecap: square"/>
   </g>
   <g id="patch_5">
    <path d="M 46.0125 327.558125 
L 705.8225 327.558125 
" style="fill: none; stroke: #000000; stroke-width: 0.8; stroke-linejoin: miter; stroke-linecap: square"/>
   </g>
   <g id="patch_6">
    <path d="M 46.0125 22.318125 
L 705.8225 22.318125 
" style="fill: none; stroke: #000000; stroke-width: 0.8; stroke-linejoin: miter; stroke-linecap: square"/>
   </g>
   <g id="text_13">
    <!-- training -->
    <g transform="translate(352.674062 16.318125) scale(0.12 -0.12)">
     <defs>
      <path id="DejaVuSans-74" d="M 1172 4494 
L 1172 3500 
L 2356 3500 
L 2356 3053 
L 1172 3053 
L 1172 1153 
Q 1172 725 1289 603 
Q 1406 481 1766 481 
L 2356 481 
L 2356 0 
L 1766 0 
Q 1100 0 847 248 
Q 594 497 594 1153 
L 594 3053 
L 172 3053 
L 172 3500 
L 594 3500 
L 594 4494 
L 1172 4494 
z
" transform="scale(0.015625)"/>
      <path id="DejaVuSans-72" d="M 2631 2963 
Q 2534 3019 2420 3045 
Q 2306 3072 2169 3072 
Q 1681 3072 1420 2755 
Q 1159 2438 1159 1844 
L 1159 0 
L 581 0 
L 581 3500 
L 1159 3500 
L 1159 2956 
Q 1341 3275 1631 3429 
Q 1922 3584 2338 3584 
Q 2397 3584 2469 3576 
Q 2541 3569 2628 3553 
L 2631 2963 
z
" transform="scale(0.015625)"/>
      <path id="DejaVuSans-61" d="M 2194 1759 
Q 1497 1759 1228 1600 
Q 959 1441 959 1056 
Q 959 750 1161 570 
Q 1363 391 1709 391 
Q 2188 391 2477 730 
Q 2766 1069 2766 1631 
L 2766 1759 
L 2194 1759 
z
M 3341 1997 
L 3341 0 
L 2766 0 
L 2766 531 
Q 2569 213 2275 61 
Q 1981 -91 1556 -91 
Q 1019 -91 701 211 
Q 384 513 384 1019 
Q 384 1609 779 1909 
Q 1175 2209 1959 2209 
L 2766 2209 
L 2766 2266 
Q 2766 2663 2505 2880 
Q 2244 3097 1772 3097 
Q 1472 3097 1187 3025 
Q 903 2953 641 2809 
L 641 3341 
Q 956 3463 1253 3523 
Q 1550 3584 1831 3584 
Q 2591 3584 2966 3190 
Q 3341 2797 3341 1997 
z
" transform="scale(0.015625)"/>
      <path id="DejaVuSans-69" d="M 603 3500 
L 1178 3500 
L 1178 0 
L 603 0 
L 603 3500 
z
M 603 4863 
L 1178 4863 
L 1178 4134 
L 603 4134 
L 603 4863 
z
" transform="scale(0.015625)"/>
      <path id="DejaVuSans-6e" d="M 3513 2113 
L 3513 0 
L 2938 0 
L 2938 2094 
Q 2938 2591 2744 2837 
Q 2550 3084 2163 3084 
Q 1697 3084 1428 2787 
Q 1159 2491 1159 1978 
L 1159 0 
L 581 0 
L 581 3500 
L 1159 3500 
L 1159 2956 
Q 1366 3272 1645 3428 
Q 1925 3584 2291 3584 
Q 2894 3584 3203 3211 
Q 3513 2838 3513 2113 
z
" transform="scale(0.015625)"/>
      <path id="DejaVuSans-67" d="M 2906 1791 
Q 2906 2416 2648 2759 
Q 2391 3103 1925 3103 
Q 1463 3103 1205 2759 
Q 947 2416 947 1791 
Q 947 1169 1205 825 
Q 1463 481 1925 481 
Q 2391 481 2648 825 
Q 2906 1169 2906 1791 
z
M 3481 434 
Q 3481 -459 3084 -895 
Q 2688 -1331 1869 -1331 
Q 1566 -1331 1297 -1286 
Q 1028 -1241 775 -1147 
L 775 -588 
Q 1028 -725 1275 -790 
Q 1522 -856 1778 -856 
Q 2344 -856 2625 -561 
Q 2906 -266 2906 331 
L 2906 616 
Q 2728 306 2450 153 
Q 2172 0 1784 0 
Q 1141 0 747 490 
Q 353 981 353 1791 
Q 353 2603 747 3093 
Q 1141 3584 1784 3584 
Q 2172 3584 2450 3431 
Q 2728 3278 2906 2969 
L 2906 3500 
L 3481 3500 
L 3481 434 
z
" transform="scale(0.015625)"/>
     </defs>
     <use xlink:href="#DejaVuSans-74"/>
     <use xlink:href="#DejaVuSans-72" x="39.208984"/>
     <use xlink:href="#DejaVuSans-61" x="80.322266"/>
     <use xlink:href="#DejaVuSans-69" x="141.601562"/>
     <use xlink:href="#DejaVuSans-6e" x="169.384766"/>
     <use xlink:href="#DejaVuSans-69" x="232.763672"/>
     <use xlink:href="#DejaVuSans-6e" x="260.546875"/>
     <use xlink:href="#DejaVuSans-67" x="323.925781"/>
    </g>
   </g>
   <g id="legend_1">
    <g id="patch_7">
     <path d="M 53.0125 44.99625 
L 131.373438 44.99625 
Q 133.373438 44.99625 133.373438 42.99625 
L 133.373438 29.318125 
Q 133.373438 27.318125 131.373438 27.318125 
L 53.0125 27.318125 
Q 51.0125 27.318125 51.0125 29.318125 
L 51.0125 42.99625 
Q 51.0125 44.99625 53.0125 44.99625 
z
" style="fill: #ffffff; opacity: 0.8; stroke: #cccccc; stroke-linejoin: miter"/>
    </g>
    <g id="line2d_14">
     <path d="M 55.0125 35.416563 
L 65.0125 35.416563 
L 75.0125 35.416563 
" style="fill: none; stroke: #1f77b4; stroke-width: 1.5; stroke-linecap: square"/>
    </g>
    <g id="text_14">
     <!-- observed -->
     <g transform="translate(83.0125 38.916563) scale(0.1 -0.1)">
      <defs>
       <path id="DejaVuSans-6f" d="M 1959 3097 
Q 1497 3097 1228 2736 
Q 959 2375 959 1747 
Q 959 1119 1226 758 
Q 1494 397 1959 397 
Q 2419 397 2687 759 
Q 2956 1122 2956 1747 
Q 2956 2369 2687 2733 
Q 2419 3097 1959 3097 
z
M 1959 3584 
Q 2709 3584 3137 3096 
Q 3566 2609 3566 1747 
Q 3566 888 3137 398 
Q 2709 -91 1959 -91 
Q 1206 -91 779 398 
Q 353 888 353 1747 
Q 353 2609 779 3096 
Q 1206 3584 1959 3584 
z
" transform="scale(0.015625)"/>
       <path id="DejaVuSans-62" d="M 3116 1747 
Q 3116 2381 2855 2742 
Q 2594 3103 2138 3103 
Q 1681 3103 1420 2742 
Q 1159 2381 1159 1747 
Q 1159 1113 1420 752 
Q 1681 391 2138 391 
Q 2594 391 2855 752 
Q 3116 1113 3116 1747 
z
M 1159 2969 
Q 1341 3281 1617 3432 
Q 1894 3584 2278 3584 
Q 2916 3584 3314 3078 
Q 3713 2572 3713 1747 
Q 3713 922 3314 415 
Q 2916 -91 2278 -91 
Q 1894 -91 1617 61 
Q 1341 213 1159 525 
L 1159 0 
L 581 0 
L 581 4863 
L 1159 4863 
L 1159 2969 
z
" transform="scale(0.015625)"/>
       <path id="DejaVuSans-73" d="M 2834 3397 
L 2834 2853 
Q 2591 2978 2328 3040 
Q 2066 3103 1784 3103 
Q 1356 3103 1142 2972 
Q 928 2841 928 2578 
Q 928 2378 1081 2264 
Q 1234 2150 1697 2047 
L 1894 2003 
Q 2506 1872 2764 1633 
Q 3022 1394 3022 966 
Q 3022 478 2636 193 
Q 2250 -91 1575 -91 
Q 1294 -91 989 -36 
Q 684 19 347 128 
L 347 722 
Q 666 556 975 473 
Q 1284 391 1588 391 
Q 1994 391 2212 530 
Q 2431 669 2431 922 
Q 2431 1156 2273 1281 
Q 2116 1406 1581 1522 
L 1381 1569 
Q 847 1681 609 1914 
Q 372 2147 372 2553 
Q 372 3047 722 3315 
Q 1072 3584 1716 3584 
Q 2034 3584 2315 3537 
Q 2597 3491 2834 3397 
z
" transform="scale(0.015625)"/>
       <path id="DejaVuSans-65" d="M 3597 1894 
L 3597 1613 
L 953 1613 
Q 991 1019 1311 708 
Q 1631 397 2203 397 
Q 2534 397 2845 478 
Q 3156 559 3463 722 
L 3463 178 
Q 3153 47 2828 -22 
Q 2503 -91 2169 -91 
Q 1331 -91 842 396 
Q 353 884 353 1716 
Q 353 2575 817 3079 
Q 1281 3584 2069 3584 
Q 2775 3584 3186 3129 
Q 3597 2675 3597 1894 
z
M 3022 2063 
Q 3016 2534 2758 2815 
Q 2500 3097 2075 3097 
Q 1594 3097 1305 2825 
Q 1016 2553 972 2059 
L 3022 2063 
z
" transform="scale(0.015625)"/>
       <path id="DejaVuSans-76" d="M 191 3500 
L 800 3500 
L 1894 563 
L 2988 3500 
L 3597 3500 
L 2284 0 
L 1503 0 
L 191 3500 
z
" transform="scale(0.015625)"/>
       <path id="DejaVuSans-64" d="M 2906 2969 
L 2906 4863 
L 3481 4863 
L 3481 0 
L 2906 0 
L 2906 525 
Q 2725 213 2448 61 
Q 2172 -91 1784 -91 
Q 1150 -91 751 415 
Q 353 922 353 1747 
Q 353 2572 751 3078 
Q 1150 3584 1784 3584 
Q 2172 3584 2448 3432 
Q 2725 3281 2906 2969 
z
M 947 1747 
Q 947 1113 1208 752 
Q 1469 391 1925 391 
Q 2381 391 2643 752 
Q 2906 1113 2906 1747 
Q 2906 2381 2643 2742 
Q 2381 3103 1925 3103 
Q 1469 3103 1208 2742 
Q 947 2381 947 1747 
z
" transform="scale(0.015625)"/>
      </defs>
      <use xlink:href="#DejaVuSans-6f"/>
      <use xlink:href="#DejaVuSans-62" x="61.181641"/>
      <use xlink:href="#DejaVuSans-73" x="124.658203"/>
      <use xlink:href="#DejaVuSans-65" x="176.757812"/>
      <use xlink:href="#DejaVuSans-72" x="238.28125"/>
      <use xlink:href="#DejaVuSans-76" x="279.394531"/>
      <use xlink:href="#DejaVuSans-65" x="338.574219"/>
      <use xlink:href="#DejaVuSans-64" x="400.097656"/>
     </g>
    </g>
   </g>
  </g>
 </g>
 <defs>
  <clipPath id="p4f1b5a4b35">
   <rect x="46.0125" y="22.318125" width="659.81" height="305.24"/>
  </clipPath>
 </defs>
</svg>
