<?xml version="1.0" encoding="utf-8" standalone="no"?>
<!DOCTYPE svg PUBLIC "-//W3C//DTD SVG 1.1//EN"
  "http://www.w3.org/Graphics/SVG/1.1/DTD/svg11.dtd">
<svg xmlns:xlink="http://www.w3.org/1999/xlink" width="720pt" height="360pt" viewBox="0 0 720 360" xmlns="http://www.w3.org/2000/svg" version="1.1">
 <metadata>
  <rdf:RDF xmlns:dc="http://purl.org/dc/elements/1.1/" xmlns:cc="http://creativecommons.org/ns#" xmlns:rdf="http://www.w3.org/1999/02/22-rdf-syntax-ns#">
   <cc:Work>
    <dc:type rdf:resource="http://purl.org/dc/dcmitype/StillImage"/>
    <dc:date>2023-10-23T10:54:41.802354</dc:date>
    <dc:format>image/svg+xml</dc:format>
    <dc:creator>
     <cc:Agent>
      <dc:title>Matplotlib v3.7.1, https://matplotlib.org/</dc:title>
     </cc:Agent>
    </dc:creator>
   </cc:Work>
  </rdf:RDF>
 </metadata>
 <defs>
  <style type="text/css">*{stroke-linejoin: round; stroke-linecap: butt}</style>
 </defs>
 <g id="figure_1">
  <g id="patch_1">
   <path d="M 0 360 
L 720 360 
L 720 0 
L 0 0 
z
" style="fill: #ffffff"/>
  </g>
  <g id="axes_1">
   <g id="patch_2">
    <path d="M 90 288 
L 648 288 
L 648 43.2 
L 90 43.2 
z
" style="fill: #ffffff"/>
   </g>
   <g id="matplotlib.axis_1">
    <g id="xtick_1">
     <g id="line2d_1">
      <defs>
       <path id="m85bfcfd151" d="M 0 0 
L 0 3.5 
" style="stroke: #000000; stroke-width: 0.8"/>
      </defs>
      <g>
       <use xlink:href="#m85bfcfd151" x="149.370747" y="288" style="stroke: #000000; stroke-width: 0.8"/>
      </g>
     </g>
     <g id="text_1">
      <!-- 2023-08-15 -->
      <g transform="translate(87.727405 337.765903) rotate(-30) scale(0.12 -0.12)">
       <defs>
        <path id="DejaVuSans-32" d="M 1228 531 
L 3431 531 
L 3431 0 
L 469 0 
L 469 531 
Q 828 903 1448 1529 
Q 2069 2156 2228 2338 
Q 2531 2678 2651 2914 
Q 2772 3150 2772 3378 
Q 2772 3750 2511 3984 
Q 2250 4219 1831 4219 
Q 1534 4219 1204 4116 
Q 875 4013 500 3803 
L 500 4441 
Q 881 4594 1212 4672 
Q 1544 4750 1819 4750 
Q 2544 4750 2975 4387 
Q 3406 4025 3406 3419 
Q 3406 3131 3298 2873 
Q 3191 2616 2906 2266 
Q 2828 2175 2409 1742 
Q 1991 1309 1228 531 
z
" transform="scale(0.015625)"/>
        <path id="DejaVuSans-30" d="M 2034 4250 
Q 1547 4250 1301 3770 
Q 1056 3291 1056 2328 
Q 1056 1369 1301 889 
Q 1547 409 2034 409 
Q 2525 409 2770 889 
Q 3016 1369 3016 2328 
Q 3016 3291 2770 3770 
Q 2525 4250 2034 4250 
z
M 2034 4750 
Q 2819 4750 3233 4129 
Q 3647 3509 3647 2328 
Q 3647 1150 3233 529 
Q 2819 -91 2034 -91 
Q 1250 -91 836 529 
Q 422 1150 422 2328 
Q 422 3509 836 4129 
Q 1250 4750 2034 4750 
z
" transform="scale(0.015625)"/>
        <path id="DejaVuSans-33" d="M 2597 2516 
Q 3050 2419 3304 2112 
Q 3559 1806 3559 1356 
Q 3559 666 3084 287 
Q 2609 -91 1734 -91 
Q 1441 -91 1130 -33 
Q 819 25 488 141 
L 488 750 
Q 750 597 1062 519 
Q 1375 441 1716 441 
Q 2309 441 2620 675 
Q 2931 909 2931 1356 
Q 2931 1769 2642 2001 
Q 2353 2234 1838 2234 
L 1294 2234 
L 1294 2753 
L 1863 2753 
Q 2328 2753 2575 2939 
Q 2822 3125 2822 3475 
Q 2822 3834 2567 4026 
Q 2313 4219 1838 4219 
Q 1578 4219 1281 4162 
Q 984 4106 628 3988 
L 628 4550 
Q 988 4650 1302 4700 
Q 1616 4750 1894 4750 
Q 2613 4750 3031 4423 
Q 3450 4097 3450 3541 
Q 3450 3153 3228 2886 
Q 3006 2619 2597 2516 
z
" transform="scale(0.015625)"/>
        <path id="DejaVuSans-2d" d="M 313 2009 
L 1997 2009 
L 1997 1497 
L 313 1497 
L 313 2009 
z
" transform="scale(0.015625)"/>
        <path id="DejaVuSans-38" d="M 2034 2216 
Q 1584 2216 1326 1975 
Q 1069 1734 1069 1313 
Q 1069 891 1326 650 
Q 1584 409 2034 409 
Q 2484 409 2743 651 
Q 3003 894 3003 1313 
Q 3003 1734 2745 1975 
Q 2488 2216 2034 2216 
z
M 1403 2484 
Q 997 2584 770 2862 
Q 544 3141 544 3541 
Q 544 4100 942 4425 
Q 1341 4750 2034 4750 
Q 2731 4750 3128 4425 
Q 3525 4100 3525 3541 
Q 3525 3141 3298 2862 
Q 3072 2584 2669 2484 
Q 3125 2378 3379 2068 
Q 3634 1759 3634 1313 
Q 3634 634 3220 271 
Q 2806 -91 2034 -91 
Q 1263 -91 848 271 
Q 434 634 434 1313 
Q 434 1759 690 2068 
Q 947 2378 1403 2484 
z
M 1172 3481 
Q 1172 3119 1398 2916 
Q 1625 2713 2034 2713 
Q 2441 2713 2670 2916 
Q 2900 3119 2900 3481 
Q 2900 3844 2670 4047 
Q 2441 4250 2034 4250 
Q 1625 4250 1398 4047 
Q 1172 3844 1172 3481 
z
" transform="scale(0.015625)"/>
        <path id="DejaVuSans-31" d="M 794 531 
L 1825 531 
L 1825 4091 
L 703 3866 
L 703 4441 
L 1819 4666 
L 2450 4666 
L 2450 531 
L 3481 531 
L 3481 0 
L 794 0 
L 794 531 
z
" transform="scale(0.015625)"/>
        <path id="DejaVuSans-35" d="M 691 4666 
L 3169 4666 
L 3169 4134 
L 1269 4134 
L 1269 2991 
Q 1406 3038 1543 3061 
Q 1681 3084 1819 3084 
Q 2600 3084 3056 2656 
Q 3513 2228 3513 1497 
Q 3513 744 3044 326 
Q 2575 -91 1722 -91 
Q 1428 -91 1123 -41 
Q 819 9 494 109 
L 494 744 
Q 775 591 1075 516 
Q 1375 441 1709 441 
Q 2250 441 2565 725 
Q 2881 1009 2881 1497 
Q 2881 1984 2565 2268 
Q 2250 2553 1709 2553 
Q 1456 2553 1204 2497 
Q 953 2441 691 2322 
L 691 4666 
z
" transform="scale(0.015625)"/>
       </defs>
       <use xlink:href="#DejaVuSans-32"/>
       <use xlink:href="#DejaVuSans-30" x="63.623047"/>
       <use xlink:href="#DejaVuSans-32" x="127.246094"/>
       <use xlink:href="#DejaVuSans-33" x="190.869141"/>
       <use xlink:href="#DejaVuSans-2d" x="254.492188"/>
       <use xlink:href="#DejaVuSans-30" x="290.576172"/>
       <use xlink:href="#DejaVuSans-38" x="354.199219"/>
       <use xlink:href="#DejaVuSans-2d" x="417.822266"/>
       <use xlink:href="#DejaVuSans-31" x="453.90625"/>
       <use xlink:href="#DejaVuSans-35" x="517.529297"/>
      </g>
     </g>
    </g>
    <g id="xtick_2">
     <g id="line2d_2">
      <g>
       <use xlink:href="#m85bfcfd151" x="264.994921" y="288" style="stroke: #000000; stroke-width: 0.8"/>
      </g>
     </g>
     <g id="text_2">
      <!-- 2023-09-01 -->
      <g transform="translate(203.35158 337.765903) rotate(-30) scale(0.12 -0.12)">
       <defs>
        <path id="DejaVuSans-39" d="M 703 97 
L 703 672 
Q 941 559 1184 500 
Q 1428 441 1663 441 
Q 2288 441 2617 861 
Q 2947 1281 2994 2138 
Q 2813 1869 2534 1725 
Q 2256 1581 1919 1581 
Q 1219 1581 811 2004 
Q 403 2428 403 3163 
Q 403 3881 828 4315 
Q 1253 4750 1959 4750 
Q 2769 4750 3195 4129 
Q 3622 3509 3622 2328 
Q 3622 1225 3098 567 
Q 2575 -91 1691 -91 
Q 1453 -91 1209 -44 
Q 966 3 703 97 
z
M 1959 2075 
Q 2384 2075 2632 2365 
Q 2881 2656 2881 3163 
Q 2881 3666 2632 3958 
Q 2384 4250 1959 4250 
Q 1534 4250 1286 3958 
Q 1038 3666 1038 3163 
Q 1038 2656 1286 2365 
Q 1534 2075 1959 2075 
z
" transform="scale(0.015625)"/>
       </defs>
       <use xlink:href="#DejaVuSans-32"/>
       <use xlink:href="#DejaVuSans-30" x="63.623047"/>
       <use xlink:href="#DejaVuSans-32" x="127.246094"/>
       <use xlink:href="#DejaVuSans-33" x="190.869141"/>
       <use xlink:href="#DejaVuSans-2d" x="254.492188"/>
       <use xlink:href="#DejaVuSans-30" x="290.576172"/>
       <use xlink:href="#DejaVuSans-39" x="354.199219"/>
       <use xlink:href="#DejaVuSans-2d" x="417.822266"/>
       <use xlink:href="#DejaVuSans-30" x="453.90625"/>
       <use xlink:href="#DejaVuSans-31" x="517.529297"/>
      </g>
     </g>
    </g>
    <g id="xtick_3">
     <g id="line2d_3">
      <g>
       <use xlink:href="#m85bfcfd151" x="360.21483" y="288" style="stroke: #000000; stroke-width: 0.8"/>
      </g>
     </g>
     <g id="text_3">
      <!-- 2023-09-15 -->
      <g transform="translate(298.571488 337.765903) rotate(-30) scale(0.12 -0.12)">
       <use xlink:href="#DejaVuSans-32"/>
       <use xlink:href="#DejaVuSans-30" x="63.623047"/>
       <use xlink:href="#DejaVuSans-32" x="127.246094"/>
       <use xlink:href="#DejaVuSans-33" x="190.869141"/>
       <use xlink:href="#DejaVuSans-2d" x="254.492188"/>
       <use xlink:href="#DejaVuSans-30" x="290.576172"/>
       <use xlink:href="#DejaVuSans-39" x="354.199219"/>
       <use xlink:href="#DejaVuSans-2d" x="417.822266"/>
       <use xlink:href="#DejaVuSans-31" x="453.90625"/>
       <use xlink:href="#DejaVuSans-35" x="517.529297"/>
      </g>
     </g>
    </g>
    <g id="xtick_4">
     <g id="line2d_4">
      <g>
       <use xlink:href="#m85bfcfd151" x="469.037583" y="288" style="stroke: #000000; stroke-width: 0.8"/>
      </g>
     </g>
     <g id="text_4">
      <!-- 2023-10-01 -->
      <g transform="translate(407.394241 337.765903) rotate(-30) scale(0.12 -0.12)">
       <use xlink:href="#DejaVuSans-32"/>
       <use xlink:href="#DejaVuSans-30" x="63.623047"/>
       <use xlink:href="#DejaVuSans-32" x="127.246094"/>
       <use xlink:href="#DejaVuSans-33" x="190.869141"/>
       <use xlink:href="#DejaVuSans-2d" x="254.492188"/>
       <use xlink:href="#DejaVuSans-31" x="290.576172"/>
       <use xlink:href="#DejaVuSans-30" x="354.199219"/>
       <use xlink:href="#DejaVuSans-2d" x="417.822266"/>
       <use xlink:href="#DejaVuSans-30" x="453.90625"/>
       <use xlink:href="#DejaVuSans-31" x="517.529297"/>
      </g>
     </g>
    </g>
    <g id="xtick_5">
     <g id="line2d_5">
      <g>
       <use xlink:href="#m85bfcfd151" x="564.257491" y="288" style="stroke: #000000; stroke-width: 0.8"/>
      </g>
     </g>
     <g id="text_5">
      <!-- 2023-10-15 -->
      <g transform="translate(502.614149 337.765903) rotate(-30) scale(0.12 -0.12)">
       <use xlink:href="#DejaVuSans-32"/>
       <use xlink:href="#DejaVuSans-30" x="63.623047"/>
       <use xlink:href="#DejaVuSans-32" x="127.246094"/>
       <use xlink:href="#DejaVuSans-33" x="190.869141"/>
       <use xlink:href="#DejaVuSans-2d" x="254.492188"/>
       <use xlink:href="#DejaVuSans-31" x="290.576172"/>
       <use xlink:href="#DejaVuSans-30" x="354.199219"/>
       <use xlink:href="#DejaVuSans-2d" x="417.822266"/>
       <use xlink:href="#DejaVuSans-31" x="453.90625"/>
       <use xlink:href="#DejaVuSans-35" x="517.529297"/>
      </g>
     </g>
    </g>
   </g>
   <g id="matplotlib.axis_2">
    <g id="ytick_1">
     <g id="line2d_6">
      <defs>
       <path id="m8e577d071b" d="M 0 0 
L -3.5 0 
" style="stroke: #000000; stroke-width: 0.8"/>
      </defs>
      <g>
       <use xlink:href="#m8e577d071b" x="90" y="275.197779" style="stroke: #000000; stroke-width: 0.8"/>
      </g>
     </g>
     <g id="text_6">
      <!-- 0.0 -->
      <g transform="translate(63.91625 279.756841) scale(0.12 -0.12)">
       <defs>
        <path id="DejaVuSans-2e" d="M 684 794 
L 1344 794 
L 1344 0 
L 684 0 
L 684 794 
z
" transform="scale(0.015625)"/>
       </defs>
       <use xlink:href="#DejaVuSans-30"/>
       <use xlink:href="#DejaVuSans-2e" x="63.623047"/>
       <use xlink:href="#DejaVuSans-30" x="95.410156"/>
      </g>
     </g>
    </g>
    <g id="ytick_2">
     <g id="line2d_7">
      <g>
       <use xlink:href="#m8e577d071b" x="90" y="247.352169" style="stroke: #000000; stroke-width: 0.8"/>
      </g>
     </g>
     <g id="text_7">
      <!-- 0.2 -->
      <g transform="translate(63.91625 251.911232) scale(0.12 -0.12)">
       <use xlink:href="#DejaVuSans-30"/>
       <use xlink:href="#DejaVuSans-2e" x="63.623047"/>
       <use xlink:href="#DejaVuSans-32" x="95.410156"/>
      </g>
     </g>
    </g>
    <g id="ytick_3">
     <g id="line2d_8">
      <g>
       <use xlink:href="#m8e577d071b" x="90" y="219.50656" style="stroke: #000000; stroke-width: 0.8"/>
      </g>
     </g>
     <g id="text_8">
      <!-- 0.4 -->
      <g transform="translate(63.91625 224.065623) scale(0.12 -0.12)">
       <defs>
        <path id="DejaVuSans-34" d="M 2419 4116 
L 825 1625 
L 2419 1625 
L 2419 4116 
z
M 2253 4666 
L 3047 4666 
L 3047 1625 
L 3713 1625 
L 3713 1100 
L 3047 1100 
L 3047 0 
L 2419 0 
L 2419 1100 
L 313 1100 
L 313 1709 
L 2253 4666 
z
" transform="scale(0.015625)"/>
       </defs>
       <use xlink:href="#DejaVuSans-30"/>
       <use xlink:href="#DejaVuSans-2e" x="63.623047"/>
       <use xlink:href="#DejaVuSans-34" x="95.410156"/>
      </g>
     </g>
    </g>
    <g id="ytick_4">
     <g id="line2d_9">
      <g>
       <use xlink:href="#m8e577d071b" x="90" y="191.660951" style="stroke: #000000; stroke-width: 0.8"/>
      </g>
     </g>
     <g id="text_9">
      <!-- 0.6 -->
      <g transform="translate(63.91625 196.220014) scale(0.12 -0.12)">
       <defs>
        <path id="DejaVuSans-36" d="M 2113 2584 
Q 1688 2584 1439 2293 
Q 1191 2003 1191 1497 
Q 1191 994 1439 701 
Q 1688 409 2113 409 
Q 2538 409 2786 701 
Q 3034 994 3034 1497 
Q 3034 2003 2786 2293 
Q 2538 2584 2113 2584 
z
M 3366 4563 
L 3366 3988 
Q 3128 4100 2886 4159 
Q 2644 4219 2406 4219 
Q 1781 4219 1451 3797 
Q 1122 3375 1075 2522 
Q 1259 2794 1537 2939 
Q 1816 3084 2150 3084 
Q 2853 3084 3261 2657 
Q 3669 2231 3669 1497 
Q 3669 778 3244 343 
Q 2819 -91 2113 -91 
Q 1303 -91 875 529 
Q 447 1150 447 2328 
Q 447 3434 972 4092 
Q 1497 4750 2381 4750 
Q 2619 4750 2861 4703 
Q 3103 4656 3366 4563 
z
" transform="scale(0.015625)"/>
       </defs>
       <use xlink:href="#DejaVuSans-30"/>
       <use xlink:href="#DejaVuSans-2e" x="63.623047"/>
       <use xlink:href="#DejaVuSans-36" x="95.410156"/>
      </g>
     </g>
    </g>
    <g id="ytick_5">
     <g id="line2d_10">
      <g>
       <use xlink:href="#m8e577d071b" x="90" y="163.815342" style="stroke: #000000; stroke-width: 0.8"/>
      </g>
     </g>
     <g id="text_10">
      <!-- 0.8 -->
      <g transform="translate(63.91625 168.374404) scale(0.12 -0.12)">
       <use xlink:href="#DejaVuSans-30"/>
       <use xlink:href="#DejaVuSans-2e" x="63.623047"/>
       <use xlink:href="#DejaVuSans-38" x="95.410156"/>
      </g>
     </g>
    </g>
    <g id="ytick_6">
     <g id="line2d_11">
      <g>
       <use xlink:href="#m8e577d071b" x="90" y="135.969733" style="stroke: #000000; stroke-width: 0.8"/>
      </g>
     </g>
     <g id="text_11">
      <!-- 1.0 -->
      <g transform="translate(63.91625 140.528795) scale(0.12 -0.12)">
       <use xlink:href="#DejaVuSans-31"/>
       <use xlink:href="#DejaVuSans-2e" x="63.623047"/>
       <use xlink:href="#DejaVuSans-30" x="95.410156"/>
      </g>
     </g>
    </g>
    <g id="ytick_7">
     <g id="line2d_12">
      <g>
       <use xlink:href="#m8e577d071b" x="90" y="108.124124" style="stroke: #000000; stroke-width: 0.8"/>
      </g>
     </g>
     <g id="text_12">
      <!-- 1.2 -->
      <g transform="translate(63.91625 112.683186) scale(0.12 -0.12)">
       <use xlink:href="#DejaVuSans-31"/>
       <use xlink:href="#DejaVuSans-2e" x="63.623047"/>
       <use xlink:href="#DejaVuSans-32" x="95.410156"/>
      </g>
     </g>
    </g>
    <g id="ytick_8">
     <g id="line2d_13">
      <g>
       <use xlink:href="#m8e577d071b" x="90" y="80.278514" style="stroke: #000000; stroke-width: 0.8"/>
      </g>
     </g>
     <g id="text_13">
      <!-- 1.4 -->
      <g transform="translate(63.91625 84.837577) scale(0.12 -0.12)">
       <use xlink:href="#DejaVuSans-31"/>
       <use xlink:href="#DejaVuSans-2e" x="63.623047"/>
       <use xlink:href="#DejaVuSans-34" x="95.410156"/>
      </g>
     </g>
    </g>
    <g id="ytick_9">
     <g id="line2d_14">
      <g>
       <use xlink:href="#m8e577d071b" x="90" y="52.432905" style="stroke: #000000; stroke-width: 0.8"/>
      </g>
     </g>
     <g id="text_14">
      <!-- 1.6 -->
      <g transform="translate(63.91625 56.991968) scale(0.12 -0.12)">
       <use xlink:href="#DejaVuSans-31"/>
       <use xlink:href="#DejaVuSans-2e" x="63.623047"/>
       <use xlink:href="#DejaVuSans-36" x="95.410156"/>
      </g>
     </g>
    </g>
    <g id="text_15">
     <!-- Meters -->
     <g transform="translate(57.836562 182.6875) rotate(-90) scale(0.1 -0.1)">
      <defs>
       <path id="DejaVuSans-4d" d="M 628 4666 
L 1569 4666 
L 2759 1491 
L 3956 4666 
L 4897 4666 
L 4897 0 
L 4281 0 
L 4281 4097 
L 3078 897 
L 2444 897 
L 1241 4097 
L 1241 0 
L 628 0 
L 628 4666 
z
" transform="scale(0.015625)"/>
       <path id="DejaVuSans-65" d="M 3597 1894 
L 3597 1613 
L 953 1613 
Q 991 1019 1311 708 
Q 1631 397 2203 397 
Q 2534 397 2845 478 
Q 3156 559 3463 722 
L 3463 178 
Q 3153 47 2828 -22 
Q 2503 -91 2169 -91 
Q 1331 -91 842 396 
Q 353 884 353 1716 
Q 353 2575 817 3079 
Q 1281 3584 2069 3584 
Q 2775 3584 3186 3129 
Q 3597 2675 3597 1894 
z
M 3022 2063 
Q 3016 2534 2758 2815 
Q 2500 3097 2075 3097 
Q 1594 3097 1305 2825 
Q 1016 2553 972 2059 
L 3022 2063 
z
" transform="scale(0.015625)"/>
       <path id="DejaVuSans-74" d="M 1172 4494 
L 1172 3500 
L 2356 3500 
L 2356 3053 
L 1172 3053 
L 1172 1153 
Q 1172 725 1289 603 
Q 1406 481 1766 481 
L 2356 481 
L 2356 0 
L 1766 0 
Q 1100 0 847 248 
Q 594 497 594 1153 
L 594 3053 
L 172 3053 
L 172 3500 
L 594 3500 
L 594 4494 
L 1172 4494 
z
" transform="scale(0.015625)"/>
       <path id="DejaVuSans-72" d="M 2631 2963 
Q 2534 3019 2420 3045 
Q 2306 3072 2169 3072 
Q 1681 3072 1420 2755 
Q 1159 2438 1159 1844 
L 1159 0 
L 581 0 
L 581 3500 
L 1159 3500 
L 1159 2956 
Q 1341 3275 1631 3429 
Q 1922 3584 2338 3584 
Q 2397 3584 2469 3576 
Q 2541 3569 2628 3553 
L 2631 2963 
z
" transform="scale(0.015625)"/>
       <path id="DejaVuSans-73" d="M 2834 3397 
L 2834 2853 
Q 2591 2978 2328 3040 
Q 2066 3103 1784 3103 
Q 1356 3103 1142 2972 
Q 928 2841 928 2578 
Q 928 2378 1081 2264 
Q 1234 2150 1697 2047 
L 1894 2003 
Q 2506 1872 2764 1633 
Q 3022 1394 3022 966 
Q 3022 478 2636 193 
Q 2250 -91 1575 -91 
Q 1294 -91 989 -36 
Q 684 19 347 128 
L 347 722 
Q 666 556 975 473 
Q 1284 391 1588 391 
Q 1994 391 2212 530 
Q 2431 669 2431 922 
Q 2431 1156 2273 1281 
Q 2116 1406 1581 1522 
L 1381 1569 
Q 847 1681 609 1914 
Q 372 2147 372 2553 
Q 372 3047 722 3315 
Q 1072 3584 1716 3584 
Q 2034 3584 2315 3537 
Q 2597 3491 2834 3397 
z
" transform="scale(0.015625)"/>
      </defs>
      <use xlink:href="#DejaVuSans-4d"/>
      <use xlink:href="#DejaVuSans-65" x="86.279297"/>
      <use xlink:href="#DejaVuSans-74" x="147.802734"/>
      <use xlink:href="#DejaVuSans-65" x="187.011719"/>
      <use xlink:href="#DejaVuSans-72" x="248.535156"/>
      <use xlink:href="#DejaVuSans-73" x="289.648438"/>
     </g>
    </g>
   </g>
   <g id="line2d_15">
    <path d="M 115.363636 264.897541 
L 115.647029 264.345411 
L 115.930422 264.136622 
L 116.213814 264.136622 
L 116.497207 264.020629 
L 116.780599 264.136622 
L 117.630777 263.556654 
L 118.764347 263.81184 
L 119.04774 263.742244 
L 119.331133 264.345411 
L 119.614525 264.067026 
L 119.897918 264.229417 
L 120.18131 264.531001 
L 120.748095 265.598143 
L 121.314881 266.224508 
L 121.598273 266.247707 
L 121.881666 267.013265 
L 122.165058 266.804477 
L 122.448451 266.108515 
L 122.731844 266.410098 
L 123.298629 265.27336 
L 123.582021 265.64454 
L 123.865414 265.783732 
L 124.148807 265.528546 
L 124.432199 265.853329 
L 124.715592 265.899726 
L 125.282377 264.832584 
L 125.565769 263.556654 
L 125.849162 264.136622 
L 126.132555 265.621341 
L 126.69934 265.899726 
L 126.982732 266.410098 
L 127.266125 265.389354 
L 127.83291 267.129259 
L 128.116303 265.574944 
L 128.399695 266.3869 
L 128.683088 268.150003 
L 128.96648 265.737335 
L 129.249873 264.623796 
L 129.533266 264.507802 
L 129.816658 263.835039 
L 130.100051 263.835039 
L 130.383443 264.299013 
L 130.666836 263.904635 
L 131.800406 263.556654 
L 132.083799 263.069481 
L 132.650584 262.489512 
L 132.933977 263.463859 
L 133.217369 263.487058 
L 133.500762 263.765443 
L 133.784154 266.549291 
L 134.067547 262.373519 
L 134.35094 263.974231 
L 135.201117 265.018174 
L 135.48451 265.598143 
L 135.767902 264.994976 
L 136.051295 262.953487 
L 136.334688 262.605506 
L 136.61808 262.930288 
L 136.901473 262.698301 
L 137.184865 262.651903 
L 137.468258 262.211127 
L 137.751651 262.675102 
L 138.035043 261.97914 
L 138.601828 262.141531 
L 139.168614 261.352774 
L 139.452006 261.886345 
L 139.735399 263.092679 
L 140.302184 262.883891 
L 140.585576 263.046282 
L 140.868969 264.507802 
L 141.152362 265.110969 
L 141.435754 265.064572 
L 141.719147 264.670193 
L 142.002539 264.507802 
L 142.285932 264.159821 
L 142.569325 264.206219 
L 142.852717 264.067026 
L 143.419502 262.582307 
L 143.702895 263.023083 
L 144.26968 262.489512 
L 145.119858 262.628705 
L 145.40325 262.814295 
L 145.970036 262.443115 
L 146.536821 262.443115 
L 146.820213 263.046282 
L 147.103606 263.324667 
L 147.386998 264.275815 
L 147.670391 264.507802 
L 147.953784 263.788641 
L 148.237176 263.951032 
L 148.520569 263.742244 
L 148.803961 263.394263 
L 149.087354 263.603051 
L 149.370747 262.953487 
L 149.937532 262.35032 
L 150.504317 262.559108 
L 150.787709 261.839948 
L 151.354495 261.97914 
L 151.637887 262.141531 
L 152.204672 263.092679 
L 152.488065 262.396717 
L 152.771458 262.141531 
L 153.05485 262.35032 
L 153.338243 262.187929 
L 153.621635 262.628705 
L 153.905028 262.187929 
L 154.188421 263.046282 
L 154.471813 262.976686 
L 155.321991 263.371064 
L 155.605383 262.953487 
L 155.888776 263.023083 
L 156.455561 262.767897 
L 156.738954 263.417462 
L 157.022346 263.139077 
L 157.589132 263.301468 
L 157.872524 262.999884 
L 158.155917 263.208673 
L 158.722702 263.046282 
L 159.006094 263.185474 
L 159.289487 262.7215 
L 159.57288 261.747153 
L 159.856272 261.839948 
L 160.139665 263.394263 
L 160.423057 263.719045 
L 160.70645 263.835039 
L 160.989843 264.623796 
L 161.556628 265.412553 
L 161.84002 266.131713 
L 162.406805 266.3869 
L 162.690198 267.802022 
L 162.973591 268.057208 
L 163.256983 265.690938 
L 163.540376 264.391808 
L 163.823768 264.484603 
L 164.107161 263.881436 
L 164.390554 263.835039 
L 164.673946 263.927834 
L 165.240731 263.347865 
L 165.524124 263.069481 
L 165.807517 263.231872 
L 166.090909 262.999884 
L 166.374302 263.115878 
L 166.657694 263.046282 
L 166.941087 264.299013 
L 167.507872 264.670193 
L 167.791265 265.366155 
L 168.074657 264.531001 
L 168.35805 262.651903 
L 168.924835 260.610415 
L 169.208228 261.79355 
L 169.49162 276.872727 
L 169.775013 258.638522 
L 170.058405 257.756971 
L 170.62519 255.483495 
L 170.908583 254.346757 
L 171.475368 254.346757 
L 172.608939 252.328467 
L 172.892331 251.678902 
L 173.175724 250.704555 
L 173.459116 250.240581 
L 173.742509 250.379773 
L 174.025901 250.843748 
L 174.592687 251.075735 
L 174.876079 251.214928 
L 175.159472 251.16853 
L 175.442864 251.423716 
L 175.726257 251.307722 
L 176.00965 251.516511 
L 176.293042 253.511602 
L 176.576435 253.673993 
L 176.859827 251.562909 
L 177.14322 251.191729 
L 177.710005 251.238126 
L 178.27679 252.305268 
L 178.560183 252.305268 
L 178.843575 252.699647 
L 179.126968 252.653249 
L 179.410361 253.511602 
L 179.977146 252.328467 
L 180.260538 252.560454 
L 180.543931 254.439552 
L 181.677501 257.246598 
L 181.960894 257.478586 
L 182.244286 257.40899 
L 182.527679 257.756971 
L 183.094464 259.659267 
L 183.661249 257.617778 
L 183.944642 257.733772 
L 184.228035 257.664176 
L 184.511427 257.2234 
L 184.79482 257.200201 
L 185.078212 257.061009 
L 185.361605 256.504239 
L 185.644997 256.48104 
L 185.92839 256.29545 
L 186.211783 255.947469 
L 186.778568 254.741135 
L 187.06196 254.46275 
L 187.345353 255.274706 
L 187.628746 254.926725 
L 187.912138 254.903526 
L 188.195531 255.112315 
L 188.478923 254.741135 
L 188.762316 254.810731 
L 189.045708 255.20511 
L 189.329101 253.882782 
L 189.612494 254.184365 
L 189.895886 255.692283 
L 190.179279 255.57629 
L 190.462671 254.393154 
L 190.746064 254.555545 
L 191.029457 254.439552 
L 191.312849 253.905981 
L 191.596242 254.83393 
L 191.879634 254.810731 
L 192.163027 254.485949 
L 192.44642 253.488403 
L 192.729812 253.836384 
L 193.013205 254.810731 
L 193.296597 254.741135 
L 193.863382 255.344302 
L 194.146775 256.249053 
L 194.430168 256.017065 
L 194.71356 255.970668 
L 194.996953 256.249053 
L 195.563738 256.388245 
L 196.130523 256.133059 
L 196.413916 256.411444 
L 196.697308 256.179457 
L 197.264093 256.759425 
L 197.547486 256.318649 
L 198.114271 257.687374 
L 198.397664 257.94256 
L 198.681056 258.87051 
L 198.964449 259.380882 
L 199.247842 259.195292 
L 199.531234 259.636068 
L 199.814627 259.659267 
L 200.381412 258.638522 
L 200.948197 260.355229 
L 201.514982 261.027992 
L 201.798375 261.747153 
L 202.081767 262.930288 
L 202.36516 262.999884 
L 202.648553 263.556654 
L 203.215338 263.069481 
L 203.49873 264.020629 
L 203.782123 262.466314 
L 204.348908 260.70321 
L 204.632301 261.723954 
L 204.915693 262.187929 
L 205.199086 261.97914 
L 205.482478 262.234326 
L 205.765871 261.955941 
L 206.049264 262.095134 
L 206.332656 261.213582 
L 206.616049 261.584762 
L 206.899441 261.329576 
L 207.182834 261.561563 
L 207.466227 262.280724 
L 207.749619 262.187929 
L 208.033012 261.329576 
L 208.316404 261.816749 
L 208.599797 262.048736 
L 208.883189 262.999884 
L 209.166582 262.953487 
L 209.449975 265.737335 
L 209.733367 262.048736 
L 210.01676 262.907089 
L 210.300152 262.907089 
L 210.866938 261.816749 
L 211.15033 261.770351 
L 211.433723 261.074389 
L 211.717115 260.680011 
L 212.000508 261.213582 
L 212.2839 262.883891 
L 212.567293 263.487058 
L 212.850686 230.544856 
L 214.834434 104.668525 
L 215.401219 89.496553 
L 216.818182 69.59204 
L 217.66836 59.941366 
L 217.951752 59.709379 
L 218.235145 59.315001 
L 218.80193 55.788793 
L 219.368715 54.74485 
L 219.652108 54.327273 
L 219.9355 54.860844 
L 220.502285 57.528698 
L 221.635856 64.975492 
L 224.186389 85.52957 
L 224.753174 90.401304 
L 225.886745 100.144772 
L 226.45353 104.366942 
L 227.020315 109.35467 
L 227.5871 112.718486 
L 229.004063 125.037014 
L 230.421026 133.991725 
L 230.704418 137.796317 
L 230.987811 138.770664 
L 231.271204 138.956254 
L 232.404774 146.611836 
L 233.538344 153.130681 
L 234.10513 155.89133 
L 234.388522 156.726484 
L 234.671915 158.188005 
L 234.955307 161.111045 
L 236.655663 171.179296 
L 237.222448 174.311125 
L 237.505841 176.329414 
L 237.789233 175.935036 
L 238.072626 176.167023 
L 238.356018 177.535749 
L 238.639411 177.790935 
L 238.922803 178.904474 
L 239.206196 179.484442 
L 240.056374 183.938599 
L 240.906552 186.444062 
L 241.189944 186.768845 
L 241.473337 187.511204 
L 241.756729 190.318251 
L 242.323514 192.684522 
L 242.8903 196.001941 
L 244.307263 204.608671 
L 244.874048 202.567183 
L 245.15744 202.79917 
L 245.440833 204.005504 
L 246.007618 205.304633 
L 246.291011 206.441371 
L 247.141188 207.995686 
L 247.424581 209.016431 
L 247.707974 209.503604 
L 247.991366 209.550001 
L 248.274759 209.457206 
L 248.558151 211.545093 
L 249.408329 214.560928 
L 249.975114 217.228782 
L 250.825292 219.919835 
L 251.108685 218.783098 
L 251.392077 219.10788 
L 251.67547 219.200675 
L 251.958862 219.571854 
L 252.242255 220.592599 
L 252.525648 221.056573 
L 253.375825 223.028466 
L 253.659218 223.608434 
L 253.94261 223.910018 
L 255.076181 227.041847 
L 255.642966 229.152932 
L 255.926359 229.686502 
L 257.343321 233.76948 
L 257.626714 234.395845 
L 257.910107 235.625378 
L 258.193499 234.48864 
L 258.476892 234.326249 
L 258.760284 234.651032 
L 259.043677 235.671776 
L 259.32707 236.158949 
L 259.893855 236.669321 
L 260.177247 236.251744 
L 260.46064 237.272488 
L 260.744033 236.901309 
L 261.310818 237.43488 
L 261.59421 236.831713 
L 261.877603 237.0637 
L 262.160995 239.105188 
L 262.727781 240.566709 
L 263.011173 241.842639 
L 263.294566 242.422607 
L 263.861351 244.3945 
L 264.144744 244.672885 
L 264.711529 247.039155 
L 264.994921 246.41279 
L 265.278314 245.48484 
L 265.561706 245.693629 
L 266.128492 245.508039 
L 266.411884 246.157604 
L 266.695277 246.2272 
L 266.978669 246.111206 
L 267.262062 246.783969 
L 267.545455 246.830367 
L 267.828847 246.992758 
L 268.11224 246.946361 
L 268.395632 245.48484 
L 268.679025 245.438443 
L 268.962417 248.013502 
L 269.24581 248.500676 
L 269.812595 250.263779 
L 270.095988 251.609306 
L 270.662773 253.00123 
L 270.946166 253.140422 
L 271.512951 254.973122 
L 271.796343 253.070826 
L 272.079736 252.467659 
L 272.363128 252.722845 
L 272.646521 253.789987 
L 272.929914 253.882782 
L 273.213306 253.836384 
L 273.496699 254.021974 
L 273.780091 253.998776 
L 274.063484 253.789987 
L 274.346877 253.998776 
L 274.630269 255.042719 
L 274.913662 254.578744 
L 275.197054 252.606852 
L 275.480447 252.490858 
L 275.76384 253.929179 
L 276.614017 255.622687 
L 277.180802 257.849765 
L 277.464195 258.174548 
L 277.747588 259.172093 
L 278.03098 259.032901 
L 278.314373 260.587216 
L 278.597765 258.731317 
L 278.881158 257.664176 
L 279.164551 257.316195 
L 279.447943 257.177002 
L 279.731336 257.548182 
L 280.014728 258.174548 
L 280.581513 257.826567 
L 280.864906 258.12815 
L 281.148299 257.94256 
L 281.715084 257.246598 
L 281.998476 257.269797 
L 282.281869 257.478586 
L 282.565262 258.383336 
L 282.848654 258.360138 
L 283.132047 258.800914 
L 284.265617 261.955941 
L 284.54901 262.025538 
L 285.115795 263.904635 
L 285.399187 261.816749 
L 286.532758 260.262434 
L 286.81615 260.216036 
L 287.099543 260.355229 
L 287.382936 260.8888 
L 287.666328 261.004793 
L 287.949721 260.726408 
L 288.233113 260.935197 
L 288.516506 260.819203 
L 288.799898 260.378427 
L 289.083291 260.192838 
L 289.366684 260.842402 
L 289.933469 261.167184 
L 290.216861 262.280724 
L 290.500254 262.559108 
L 290.783647 263.742244 
L 291.350432 264.646994 
L 291.633824 265.528546 
L 291.917217 267.175656 
L 292.200609 265.667739 
L 293.050787 262.744698 
L 293.617572 262.651903 
L 293.900965 262.791096 
L 294.184358 262.512711 
L 294.46775 262.489512 
L 294.751143 263.185474 
L 295.034535 263.556654 
L 295.317928 261.955941 
L 295.884713 261.700755 
L 296.168106 262.7215 
L 296.451498 262.953487 
L 296.734891 263.556654 
L 297.018283 264.531001 
L 297.301676 264.971777 
L 297.585069 265.899726 
L 298.151854 266.038919 
L 298.435246 266.340502 
L 298.718639 265.203764 
L 299.002031 265.435751 
L 299.285424 264.36861 
L 299.568817 264.299013 
L 299.852209 263.487058 
L 300.135602 263.115878 
L 300.418994 263.25507 
L 300.702387 263.25507 
L 300.98578 263.463859 
L 301.269172 263.394263 
L 301.552565 263.510257 
L 301.835957 263.487058 
L 302.11935 263.208673 
L 302.402743 263.603051 
L 302.686135 262.16473 
L 302.969528 261.839948 
L 303.25292 261.932743 
L 303.536313 262.280724 
L 304.103098 261.747153 
L 304.386491 262.837493 
L 304.669883 262.814295 
L 304.953276 263.278269 
L 305.236668 262.002339 
L 305.520061 261.561563 
L 305.803454 261.723954 
L 306.086846 258.49933 
L 306.370239 256.945015 
L 306.653631 256.504239 
L 306.937024 256.620233 
L 307.220416 257.571381 
L 307.787202 257.524983 
L 308.353987 256.620233 
L 308.637379 256.040264 
L 308.920772 255.785078 
L 309.204165 255.831476 
L 309.487557 255.506693 
L 310.337735 255.901072 
L 310.90452 256.48104 
L 311.187913 257.571381 
L 311.471305 255.367501 
L 311.754698 255.529892 
L 312.03809 254.114769 
L 312.321483 254.021974 
L 313.455053 253.18682 
L 313.738446 253.047628 
L 314.021838 252.653249 
L 314.305231 252.63005 
L 314.588624 253.094025 
L 314.872016 253.070826 
L 315.722194 251.818095 
L 316.005587 251.052536 
L 316.572372 248.639868 
L 317.139157 242.863383 
L 318.55612 228.781752 
L 319.122905 224.953961 
L 319.68969 222.03092 
L 319.973083 221.914927 
L 320.539868 219.827041 
L 320.823261 218.899091 
L 321.673438 218.226328 
L 322.523616 218.319123 
L 322.807009 218.527911 
L 323.657186 220.221419 
L 324.223972 221.381356 
L 324.507364 221.172567 
L 325.074149 222.703684 
L 325.357542 223.330049 
L 325.640934 224.42039 
L 325.924327 223.817223 
L 326.20772 223.631633 
L 326.491112 223.724428 
L 326.774505 224.002813 
L 327.34129 225.116352 
L 327.624683 225.441134 
L 328.191468 227.923399 
L 328.758253 228.224982 
L 329.041646 228.688957 
L 329.325038 228.317777 
L 329.608431 228.920944 
L 329.891823 229.245727 
L 330.458608 232.075972 
L 331.308786 234.627833 
L 331.592179 235.950161 
L 331.875571 236.553328 
L 332.158964 236.437334 
L 332.442357 237.736463 
L 332.725749 238.107643 
L 333.009142 237.365283 
L 333.292534 237.272488 
L 333.575927 237.458078 
L 333.859319 237.411681 
L 334.426105 238.478823 
L 334.709497 238.618015 
L 334.99289 239.383573 
L 335.559675 239.615561 
L 336.12646 240.288324 
L 336.409853 239.917144 
L 336.693245 240.218728 
L 337.543423 242.5618 
L 337.826816 243.280961 
L 338.110208 244.58009 
L 338.393601 244.533692 
L 338.960386 244.232109 
L 339.243779 244.487295 
L 339.527171 244.487295 
L 339.810564 244.904872 
L 343.494667 247.595925 
L 344.061453 248.825458 
L 345.478415 251.53971 
L 345.761808 250.820549 
L 346.045201 252.490858 
L 346.328593 253.326012 
L 346.611986 251.562909 
L 346.895378 251.029338 
L 347.178771 251.748498 
L 347.462164 252.81564 
L 348.028949 253.070826 
L 348.312341 252.931634 
L 348.595734 253.094025 
L 349.162519 253.789987 
L 349.445912 253.905981 
L 349.729304 254.207564 
L 350.296089 253.534801 
L 350.862875 255.506693 
L 351.146267 256.29545 
L 351.42966 257.756971 
L 351.713052 258.058554 
L 351.996445 257.107406 
L 352.279837 257.269797 
L 352.56323 256.829021 
L 352.846623 258.151349 
L 353.130015 257.664176 
L 353.413408 256.272252 
L 353.6968 256.063463 
L 353.980193 256.48104 
L 354.263586 256.550636 
L 354.830371 257.40899 
L 355.113763 257.153803 
L 355.397156 257.780169 
L 355.680549 257.617778 
L 355.963941 258.429734 
L 356.247334 257.988958 
L 356.530726 258.197746 
L 357.097511 256.318649 
L 357.947689 259.682465 
L 358.231082 260.772806 
L 358.514474 261.120787 
L 358.797867 260.494421 
L 359.08126 260.448024 
L 359.648045 261.97914 
L 359.931437 262.280724 
L 360.781615 260.030446 
L 361.065008 259.914453 
L 361.3484 260.308831 
L 361.631793 260.100043 
L 362.765363 260.796005 
L 363.332148 260.610415 
L 363.615541 259.288087 
L 363.898933 258.731317 
L 364.749111 262.814295 
L 365.882682 264.577398 
L 366.166074 264.299013 
L 366.449467 264.855783 
L 367.583037 262.860692 
L 367.86643 262.976686 
L 368.149822 262.303922 
L 368.433215 262.605506 
L 369.566785 262.327121 
L 369.850178 262.628705 
L 370.13357 262.628705 
L 370.416963 261.283178 
L 370.700356 260.656812 
L 371.550533 264.322212 
L 371.833926 264.484603 
L 372.117318 265.250162 
L 372.400711 266.410098 
L 372.684104 265.899726 
L 372.967496 265.621341 
L 373.250889 264.786187 
L 373.534281 264.832584 
L 373.817674 264.762988 
L 374.101067 263.463859 
L 374.384459 262.999884 
L 374.667852 262.860692 
L 374.951244 263.023083 
L 375.234637 263.487058 
L 375.518029 263.208673 
L 376.084815 263.046282 
L 376.6516 264.36861 
L 376.934992 263.974231 
L 377.218385 261.747153 
L 377.501778 262.025538 
L 378.351955 265.180565 
L 378.635348 265.08777 
L 378.91874 266.363701 
L 379.202133 265.992521 
L 379.485526 266.062117 
L 379.768918 266.758079 
L 380.052311 264.36861 
L 380.335703 264.113424 
L 380.902489 264.229417 
L 381.185881 264.878982 
L 381.469274 264.18302 
L 381.752666 264.18302 
L 382.036059 263.185474 
L 382.319451 263.208673 
L 382.602844 262.605506 
L 382.886237 262.512711 
L 383.169629 262.651903 
L 383.453022 262.559108 
L 383.736414 262.651903 
L 384.019807 262.373519 
L 384.3032 262.303922 
L 384.586592 262.744698 
L 384.869985 262.907089 
L 385.43677 265.250162 
L 385.720163 265.226963 
L 386.003555 265.667739 
L 386.286948 265.64454 
L 386.57034 265.783732 
L 386.853733 267.338048 
L 387.137125 267.430843 
L 387.420518 266.688483 
L 387.703911 265.27336 
L 387.987303 265.134168 
L 388.270696 265.528546 
L 388.554088 265.203764 
L 388.837481 264.623796 
L 389.120874 264.809386 
L 389.404266 264.832584 
L 389.687659 264.646994 
L 389.971051 264.739789 
L 390.254444 263.927834 
L 390.537836 264.994976 
L 390.821229 262.837493 
L 391.104622 262.211127 
L 392.238192 265.760534 
L 392.521585 265.969322 
L 392.804977 265.435751 
L 393.08837 265.412553 
L 393.371762 265.806931 
L 393.655155 266.549291 
L 394.22194 265.157367 
L 394.505333 265.157367 
L 395.072118 265.041373 
L 395.35551 264.577398 
L 395.638903 264.646994 
L 396.205688 263.974231 
L 396.489081 264.136622 
L 396.772473 264.067026 
L 397.055866 264.345411 
L 397.339259 264.043827 
L 397.906044 263.951032 
L 398.472829 265.134168 
L 398.756221 264.461405 
L 399.039614 265.041373 
L 399.606399 267.129259 
L 399.889792 266.897272 
L 400.173184 266.943669 
L 400.456577 267.616432 
L 401.023362 266.108515 
L 401.306755 265.598143 
L 401.87354 265.992521 
L 402.440325 264.971777 
L 402.723718 265.574944 
L 403.00711 265.482149 
L 403.290503 264.739789 
L 403.573895 265.110969 
L 403.857288 264.461405 
L 404.140681 264.971777 
L 404.424073 263.324667 
L 404.707466 262.419916 
L 404.990858 263.046282 
L 405.841036 266.363701 
L 406.124429 266.549291 
L 406.407821 267.430843 
L 406.974606 267.059663 
L 407.257999 266.665284 
L 407.541392 266.781278 
L 407.824784 266.456496 
L 408.108177 265.899726 
L 408.391569 266.711682 
L 408.674962 265.690938 
L 408.958354 266.038919 
L 409.52514 264.809386 
L 409.808532 266.131713 
L 410.091925 265.537826 
L 410.375317 265.505348 
L 410.65871 265.064572 
L 410.942103 264.067026 
L 411.508888 263.208673 
L 412.075673 264.646994 
L 412.642458 266.224508 
L 413.209243 267.129259 
L 413.492636 266.827675 
L 413.776028 266.804477 
L 414.059421 267.47724 
L 414.342814 266.549291 
L 414.626206 266.3869 
L 415.192991 267.175656 
L 415.476384 266.340502 
L 415.759777 266.966868 
L 416.043169 265.366155 
L 416.326562 266.642086 
L 417.460132 264.971777 
L 417.743525 265.226963 
L 418.31031 262.025538 
L 419.160488 266.526092 
L 419.727273 267.570035 
L 420.010665 267.222054 
L 420.294058 267.338048 
L 420.57745 266.618887 
L 420.860843 267.500439 
L 421.144236 266.410098 
L 421.427628 266.131713 
L 421.711021 265.528546 
L 421.994413 265.528546 
L 422.277806 265.319758 
L 422.561199 265.621341 
L 422.844591 265.551745 
L 423.127984 266.178111 
L 423.694769 263.25507 
L 423.978162 263.463859 
L 424.261554 264.020629 
L 424.544947 263.603051 
L 424.828339 262.605506 
L 425.111732 262.118332 
L 425.395124 263.208673 
L 425.678517 263.579853 
L 426.245302 265.551745 
L 426.528695 266.038919 
L 426.812087 267.10606 
L 427.09548 266.224508 
L 427.378873 266.781278 
L 427.662265 267.082862 
L 428.22905 265.064572 
L 428.512443 265.064572 
L 429.079228 265.319758 
L 429.646013 265.018174 
L 430.212798 265.157367 
L 430.496191 264.902181 
L 430.779584 264.855783 
L 431.062976 264.507802 
L 431.629761 264.322212 
L 431.913154 264.531001 
L 432.479939 264.438206 
L 433.046724 264.832584 
L 433.330117 264.693392 
L 433.613509 264.809386 
L 433.896902 264.623796 
L 434.180295 265.064572 
L 434.463687 264.971777 
L 434.74708 264.391808 
L 435.030472 264.18302 
L 435.313865 264.507802 
L 435.597257 264.507802 
L 435.88065 264.252616 
L 436.164043 264.484603 
L 436.447435 264.507802 
L 436.730828 264.345411 
L 437.01422 264.693392 
L 437.581006 264.809386 
L 437.864398 264.786187 
L 438.714576 264.36861 
L 439.281361 264.809386 
L 439.564754 265.250162 
L 440.414931 265.412553 
L 440.698324 265.737335 
L 440.981717 265.667739 
L 441.548502 264.855783 
L 442.682072 264.623796 
L 442.965465 264.948578 
L 443.53225 265.226963 
L 443.815642 264.971777 
L 444.099035 264.971777 
L 444.382428 264.832584 
L 444.66582 265.041373 
L 444.949213 264.577398 
L 445.232605 264.461405 
L 445.515998 264.832584 
L 445.799391 264.994976 
L 446.366176 266.038919 
L 446.649568 266.062117 
L 446.932961 265.760534 
L 447.216353 265.783732 
L 447.783139 265.435751 
L 448.349924 264.716591 
L 448.633316 264.36861 
L 449.200102 264.113424 
L 449.483494 264.299013 
L 449.766887 264.113424 
L 450.333672 261.700755 
L 450.617064 249.8926 
L 450.900457 246.783969 
L 451.18385 246.969559 
L 451.467242 246.551982 
L 451.750635 245.415244 
L 452.31742 244.301705 
L 452.600813 244.185711 
L 452.884205 244.232109 
L 453.45099 245.508039 
L 454.017776 247.456733 
L 454.867953 249.938997 
L 456.568309 252.606852 
L 456.851701 252.769243 
L 457.985272 254.253962 
L 458.268664 254.300359 
L 459.685627 255.947469 
L 459.96902 256.457841 
L 460.252412 256.504239 
L 461.10259 257.826567 
L 461.385983 258.800914 
L 461.669375 258.68492 
L 462.23616 257.803368 
L 462.519553 257.03781 
L 462.802946 257.571381 
L 463.086338 257.316195 
L 463.369731 256.713027 
L 463.653123 257.153803 
L 464.219909 257.107406 
L 464.503301 257.362592 
L 464.786694 257.40899 
L 465.070086 257.292996 
L 465.636872 258.49933 
L 465.920264 258.638522 
L 466.203657 258.452933 
L 466.487049 259.102497 
L 466.770442 260.70321 
L 467.337227 262.837493 
L 467.904012 261.770351 
L 468.75419 260.865601 
L 469.037583 259.288087 
L 469.320975 258.522529 
L 469.604368 258.754516 
L 469.88776 258.522529 
L 470.737938 258.963305 
L 471.021331 258.777715 
L 471.304723 258.916907 
L 471.588116 259.357683 
L 471.871508 259.357683 
L 472.154901 259.148895 
L 472.438294 259.172093 
L 472.721686 258.267343 
L 473.005079 258.522529 
L 473.571864 261.375973 
L 473.855256 262.605506 
L 474.422042 263.649449 
L 474.705434 262.860692 
L 475.555612 262.443115 
L 475.839005 262.095134 
L 476.122397 261.97914 
L 476.972575 259.891254 
L 477.53936 259.334484 
L 477.822753 259.264888 
L 478.389538 260.192838 
L 478.67293 259.891254 
L 478.956323 259.914453 
L 479.523108 258.847311 
L 479.806501 259.032901 
L 480.940071 263.579853 
L 481.223464 263.463859 
L 481.506856 262.419916 
L 481.790249 262.837493 
L 482.073641 262.837493 
L 482.357034 262.327121 
L 482.640427 261.491967 
L 482.923819 261.074389 
L 483.207212 262.141531 
L 483.490604 261.97914 
L 483.773997 261.42237 
L 484.05739 261.329576 
L 484.340782 261.42237 
L 485.19096 262.280724 
L 485.474352 262.118332 
L 485.757745 262.466314 
L 486.041138 261.120787 
L 486.32453 260.911998 
L 486.607923 260.865601 
L 486.891315 261.909544 
L 487.174708 263.556654 
L 487.741493 265.180565 
L 488.024886 265.041373 
L 488.308278 263.788641 
L 488.591671 263.162276 
L 488.875063 263.208673 
L 489.725241 261.167184 
L 490.008634 260.865601 
L 490.575419 261.816749 
L 490.858812 261.375973 
L 491.142204 261.190383 
L 491.425597 262.095134 
L 491.708989 262.095134 
L 491.992382 261.097588 
L 492.275775 261.375973 
L 492.559167 261.306377 
L 493.125952 260.14644 
L 493.409345 260.587216 
L 493.692737 261.97914 
L 493.97613 262.35032 
L 494.542915 264.090225 
L 494.826308 262.860692 
L 495.1097 262.373519 
L 495.393093 262.953487 
L 495.676486 263.927834 
L 495.959878 264.206219 
L 496.243271 263.927834 
L 496.810056 261.283178 
L 497.943626 260.819203 
L 498.227019 260.958396 
L 498.510411 261.306377 
L 498.793804 260.935197 
L 499.077197 261.004793 
L 500.210767 261.747153 
L 500.777552 262.002339 
L 501.344337 262.559108 
L 501.62773 262.095134 
L 501.911122 260.749607 
L 502.194515 258.777715 
L 502.477908 255.993867 
L 502.7613 254.369955 
L 503.044693 254.161167 
L 503.328085 254.230763 
L 503.89487 253.650795 
L 504.178263 252.769243 
L 504.745048 251.864492 
L 505.311833 251.562909 
L 505.595226 251.864492 
L 505.878619 252.560454 
L 506.445404 253.070826 
L 506.728796 253.140422 
L 507.012189 253.952378 
L 507.578974 256.017065 
L 508.145759 257.988958 
L 508.429152 258.104952 
L 509.27933 254.926725 
L 509.846115 253.789987 
L 510.129507 252.838839 
L 510.4129 253.349211 
L 510.696293 254.091571 
L 510.979685 254.46275 
L 512.113255 256.66663 
L 512.680041 257.292996 
L 512.963433 257.501784 
L 513.246826 257.292996 
L 513.530218 257.339393 
L 514.097004 258.615324 
L 514.380396 259.914453 
L 514.663789 260.123241 
L 514.947181 260.007248 
L 515.230574 260.123241 
L 515.513966 259.752062 
L 515.797359 259.148895 
L 516.080752 259.162814 
L 524.865922 258.021436 
L 525.149314 257.826567 
L 525.7161 258.12815 
L 525.999492 258.476131 
L 526.282885 258.522529 
L 526.84967 259.218491 
L 527.133062 259.427279 
L 527.699848 260.540819 
L 527.98324 260.610415 
L 528.550025 262.373519 
L 528.833418 261.909544 
L 529.683596 261.816749 
L 529.966988 262.234326 
L 530.250381 260.842402 
L 530.533773 261.213582 
L 530.817166 260.610415 
L 531.100559 258.708119 
L 531.383951 258.615324 
L 531.667344 259.357683 
L 531.950736 259.148895 
L 532.234129 259.195292 
L 532.800914 260.819203 
L 533.084307 260.958396 
L 533.367699 260.355229 
L 534.50127 261.909544 
L 534.784662 262.489512 
L 535.351447 262.930288 
L 535.918233 262.953487 
L 536.485018 262.234326 
L 536.76841 262.141531 
L 537.051803 262.396717 
L 537.335196 261.747153 
L 537.618588 261.42237 
L 538.185373 261.213582 
L 538.468766 261.213582 
L 538.752158 261.375973 
L 539.035551 261.143986 
L 539.318944 261.515165 
L 539.602336 261.445569 
L 539.885729 262.234326 
L 540.169121 262.489512 
L 540.452514 261.631159 
L 540.735907 261.700755 
L 541.019299 261.515165 
L 541.302692 261.97914 
L 542.152869 264.646994 
L 542.436262 264.322212 
L 542.719655 263.719045 
L 543.003047 263.788641 
L 543.28644 265.319758 
L 543.569832 265.08777 
L 543.853225 264.531001 
L 544.42001 261.259979 
L 544.703403 261.445569 
L 545.270188 262.327121 
L 545.55358 261.839948 
L 545.836973 261.700755 
L 546.403758 261.747153 
L 546.687151 261.839948 
L 546.970543 262.071935 
L 547.253936 261.97914 
L 547.537329 262.118332 
L 547.820721 261.97914 
L 548.670899 262.837493 
L 549.237684 263.974231 
L 549.521077 264.067026 
L 549.804469 263.99743 
L 550.087862 264.090225 
L 550.371254 264.5542 
L 550.654647 265.45895 
L 550.93804 263.208673 
L 551.221432 262.605506 
L 552.07161 262.814295 
L 552.355003 262.767897 
L 552.638395 262.999884 
L 552.921788 262.976686 
L 553.488573 263.231872 
L 554.338751 263.023083 
L 555.188928 263.371064 
L 555.755714 264.577398 
L 556.039106 265.412553 
L 556.322499 265.250162 
L 556.605891 265.435751 
L 556.889284 265.412553 
L 557.172676 264.786187 
L 557.456069 264.902181 
L 557.739462 264.809386 
L 558.022854 264.043827 
L 558.306247 264.345411 
L 558.873032 262.976686 
L 559.156425 263.324667 
L 559.439817 262.53591 
L 559.72321 262.095134 
L 560.006602 261.932743 
L 560.573388 260.935197 
L 561.140173 259.682465 
L 561.423565 259.288087 
L 561.706958 258.545727 
L 561.99035 258.49933 
L 562.557136 257.548182 
L 563.974099 256.457841 
L 564.257491 256.689829 
L 564.540884 256.689829 
L 564.824276 256.921816 
L 565.107669 256.805822 
L 565.391061 257.061009 
L 565.674454 256.713027 
L 565.957847 257.269797 
L 566.241239 257.478586 
L 566.524632 257.177002 
L 567.37481 258.174548 
L 567.658202 258.452933 
L 567.941595 258.035355 
L 568.224987 257.896163 
L 568.791772 260.424825 
L 569.075165 260.424825 
L 569.358558 260.865601 
L 569.64195 260.656812 
L 570.492128 260.587216 
L 571.058913 259.427279 
L 571.625698 259.380882 
L 571.909091 259.102497 
L 572.759269 259.032901 
L 573.042661 259.172093 
L 573.326054 259.58967 
L 573.609446 259.357683 
L 573.892839 259.357683 
L 574.176232 259.705664 
L 574.459624 259.612869 
L 575.026409 260.169639 
L 575.309802 260.239235 
L 575.593195 261.399172 
L 575.876587 260.564017 
L 576.443372 262.419916 
L 576.726765 261.654358 
L 577.29355 260.587216 
L 577.576943 259.96085 
L 578.143728 259.334484 
L 578.710513 259.241689 
L 579.844083 259.682465 
L 580.127476 259.96085 
L 581.544439 260.285633 
L 582.394617 261.306377 
L 582.678009 261.329576 
L 582.961402 261.839948 
L 583.244794 261.816749 
L 583.528187 262.443115 
L 584.094972 262.303922 
L 584.378365 262.605506 
L 584.661757 260.772806 
L 584.94515 261.654358 
L 585.228542 261.329576 
L 585.511935 261.375973 
L 585.795328 260.169639 
L 586.07872 259.58967 
L 586.362113 260.123241 
L 586.645505 260.076844 
L 586.928898 259.543273 
L 587.495683 260.378427 
L 588.062468 260.564017 
L 588.345861 260.355229 
L 588.629253 260.540819 
L 589.479431 263.324667 
L 590.046216 262.7215 
L 590.329609 262.559108 
L 590.613002 261.909544 
L 590.896394 261.955941 
L 591.179787 262.396717 
L 591.746572 259.984049 
L 592.029964 259.798459 
L 592.59675 259.821658 
L 592.880142 260.123241 
L 593.163535 260.14644 
L 593.446927 259.77526 
L 593.73032 259.77526 
L 594.013713 260.076844 
L 594.297105 260.656812 
L 594.580498 260.633614 
L 595.430675 261.468768 
L 595.714068 262.002339 
L 595.997461 261.955941 
L 596.280853 261.468768 
L 596.564246 261.213582 
L 596.847638 261.120787 
L 597.131031 261.306377 
L 597.697816 259.728863 
L 598.547994 257.362592 
L 599.964957 256.10986 
L 600.248349 256.040264 
L 601.098527 256.249053 
L 601.948705 256.249053 
L 602.232098 255.970668 
L 602.798883 257.617778 
L 603.082275 257.014611 
L 603.64906 257.594579 
L 603.932453 257.130605 
L 604.215846 257.03781 
L 604.499238 256.759425 
L 604.782631 256.643431 
L 605.066023 256.759425 
L 605.349416 256.620233 
L 606.199594 256.991412 
L 606.482986 257.03781 
L 607.049771 257.432188 
L 607.333164 258.012157 
L 607.616557 258.174548 
L 608.183342 257.710573 
L 608.750127 257.03781 
L 609.03352 257.756971 
L 609.600305 257.803368 
L 609.883697 257.803368 
L 610.450482 258.012157 
L 611.017268 257.594579 
L 611.30066 257.478586 
L 611.867445 257.571381 
L 612.150838 257.501784 
L 612.434231 257.548182 
L 612.717623 257.084207 
L 613.284408 256.85222 
L 614.134586 256.875419 
L 614.417979 256.829021 
L 614.984764 256.48104 
L 615.268156 255.970668 
L 615.551549 255.738681 
L 615.834942 255.808277 
L 616.118334 256.921816 
L 616.401727 257.200201 
L 616.685119 258.220945 
L 616.968512 258.035355 
L 617.251905 258.406535 
L 617.535297 258.429734 
L 617.81869 257.988958 
L 618.102082 257.756971 
L 618.385475 257.292996 
L 618.668867 255.529892 
L 618.95226 255.181911 
L 619.235653 253.929179 
L 619.802438 252.792441 
L 620.369223 251.562909 
L 620.936008 251.562909 
L 621.219401 251.516511 
L 621.502793 251.261325 
L 621.786186 251.702101 
L 622.352971 249.846202 
L 622.636364 249.753407 
L 622.636364 249.753407 
" clip-path="url(#p5158769fb4)" style="fill: none; stroke: #1f77b4; stroke-width: 1.5; stroke-linecap: square"/>
   </g>
   <g id="line2d_16">
    <path d="M 115.363636 264.806274 
L 115.930422 264.877978 
L 116.213814 264.136622 
L 118.480955 264.662165 
L 120.748095 265.023719 
L 121.031488 265.012356 
L 121.598273 264.752435 
L 122.731844 264.989466 
L 123.015236 266.410098 
L 124.715592 267.067022 
L 126.69934 267.591987 
L 127.266125 267.303838 
L 127.549518 267.271133 
L 127.83291 267.738366 
L 128.399695 263.583709 
L 128.683088 263.142174 
L 128.96648 263.285733 
L 129.249873 262.910165 
L 129.533266 261.734409 
L 129.816658 264.507802 
L 130.383443 263.027066 
L 130.950229 262.252845 
L 131.517014 261.826343 
L 132.083799 261.728921 
L 132.933977 261.954576 
L 134.35094 262.698168 
L 136.334688 263.711471 
L 136.61808 262.605506 
L 137.184865 251.333114 
L 137.751651 243.267698 
L 138.318436 237.847943 
L 138.885221 234.443954 
L 139.452006 232.497456 
L 140.018791 231.561303 
L 140.585576 231.246001 
L 140.868969 231.224905 
L 141.435754 231.567385 
L 142.285932 232.390962 
L 143.13611 233.417149 
L 143.419502 263.324667 
L 145.970036 264.577527 
L 147.103606 265.029799 
L 147.953784 264.297857 
L 149.087354 264.52054 
L 149.370747 264.351377 
L 149.937532 261.939493 
L 150.220924 262.35032 
L 150.504317 260.978609 
L 151.071102 256.561809 
L 151.637887 254.851813 
L 152.488065 250.854691 
L 153.05485 249.322818 
L 154.188421 247.592212 
L 154.471813 247.507042 
L 154.755206 246.978743 
L 155.038598 245.787928 
L 155.321991 245.120088 
L 155.605383 245.242485 
L 156.455561 243.38469 
L 156.738954 243.275983 
L 157.022346 263.417462 
L 158.155917 263.930562 
L 160.70645 265.151599 
L 162.406805 265.710915 
L 163.540376 265.979522 
L 163.823768 264.391808 
L 166.374302 264.878057 
L 167.791265 265.007421 
L 168.074657 265.383951 
L 168.35805 263.735667 
L 168.641442 261.338209 
L 168.924835 260.064575 
L 169.208228 259.456546 
L 169.49162 259.51401 
L 169.775013 258.858494 
L 170.341798 257.147596 
L 170.62519 256.434643 
L 171.191976 252.265576 
L 171.758761 249.712472 
L 172.325546 248.294631 
L 172.892331 247.645719 
L 173.459116 247.498993 
L 174.025901 247.666722 
L 174.876079 248.239165 
L 177.14322 250.229181 
L 177.426612 251.191729 
L 179.126968 252.437847 
L 181.110716 253.604457 
L 183.377857 254.673681 
L 183.944642 254.910857 
L 184.228035 257.733772 
L 187.628746 258.753448 
L 192.44642 259.955658 
L 197.547486 261.046776 
L 197.830879 256.318649 
L 203.215338 257.92947 
L 204.348908 258.241125 
L 204.632301 260.70321 
L 211.433723 261.9983 
L 216.251397 262.866841 
L 216.534789 262.22883 
L 216.818182 261.215675 
L 217.101574 262.927009 
L 217.384967 267.404303 
L 217.66836 276.063711 
L 217.951752 274.986384 
L 218.235145 275.008291 
L 218.518537 272.599356 
L 219.368715 251.258225 
L 219.9355 240.82314 
L 220.502285 233.489932 
L 221.069071 228.662949 
L 221.635856 225.721342 
L 222.202641 224.130331 
L 222.769426 223.46965 
L 223.052819 223.386813 
L 223.619604 223.564362 
L 224.186389 224.051409 
L 225.319959 225.48562 
L 228.72067 230.148218 
L 230.704418 232.419838 
L 232.971559 234.666829 
L 235.805485 237.135117 
L 238.356018 239.143554 
L 238.639411 177.535749 
L 242.323514 184.111001 
L 245.15744 188.844193 
L 245.440833 202.79917 
L 249.124937 207.551106 
L 251.67547 210.535903 
L 251.958862 210.728842 
L 252.242255 219.571854 
L 252.80904 219.569894 
L 253.659218 219.408569 
L 254.226003 219.491844 
L 255.076181 219.881397 
L 256.209751 220.685216 
L 258.760284 222.826572 
L 259.043677 234.651032 
L 263.861351 237.591707 
L 268.679025 240.277415 
L 273.780091 242.867739 
L 279.164551 245.345107 
L 284.832402 247.695317 
L 287.382936 248.673814 
L 287.666328 260.8888 
L 292.767395 261.728889 
L 293.050787 263.672648 
L 297.301676 264.151129 
L 297.585069 263.930156 
L 297.868461 263.455589 
L 298.435246 263.132573 
L 299.002031 262.848471 
L 299.285424 263.020759 
L 300.135602 258.822345 
L 301.269172 253.128519 
L 302.11935 250.124254 
L 302.686135 248.824627 
L 303.25292 247.955114 
L 304.669883 246.470094 
L 305.236668 246.169096 
L 305.520061 246.136317 
L 306.086846 245.19187 
L 307.787202 244.387857 
L 308.637379 244.349951 
L 309.77095 244.562845 
L 311.471305 245.17584 
L 314.872016 246.731899 
L 321.390046 249.69222 
L 326.491112 251.754849 
L 331.875571 253.690053 
L 337.543423 255.487176 
L 339.810564 256.143705 
L 343.494667 246.969559 
L 344.628238 241.09465 
L 345.195023 239.099111 
L 345.761808 237.870199 
L 346.328593 237.220262 
L 346.895378 236.958485 
L 347.462164 236.940942 
L 348.312341 237.170808 
L 349.729304 237.842769 
L 350.579482 238.302157 
L 350.862875 253.720391 
L 356.247334 255.145219 
L 356.530726 258.104952 
L 363.048756 259.313108 
L 363.332148 260.680011 
L 369.850178 261.764536 
L 370.13357 262.280724 
L 375.518029 263.003303 
L 382.319451 263.775719 
L 383.169629 263.542727 
L 383.453022 263.665449 
L 383.736414 262.628705 
L 386.003555 263.363633 
L 388.837481 264.034719 
L 392.804977 264.740808 
L 393.371762 264.43526 
L 394.22194 264.780466 
L 396.489081 265.451861 
L 397.339259 265.644596 
L 397.622651 264.020629 
L 397.906044 263.159809 
L 398.472829 260.273601 
L 399.889792 253.375435 
L 400.456577 251.843231 
L 401.023362 250.8562 
L 401.590147 250.308825 
L 402.156932 250.110121 
L 402.723718 250.183522 
L 403.290503 250.465307 
L 403.857288 250.902933 
L 404.140681 265.134168 
L 412.075673 265.640253 
L 412.359066 263.839679 
L 417.743525 264.363623 
L 418.026917 264.869702 
L 429.646013 265.697606 
L 431.062976 265.784958 
L 431.346369 264.869702 
L 432.479939 264.911394 
L 433.046724 264.634399 
L 433.330117 264.423949 
L 433.896902 263.466621 
L 434.180295 263.424333 
L 435.030472 264.387693 
L 435.313865 264.615212 
L 435.88065 264.522066 
L 436.730828 265.014891 
L 437.297613 264.826527 
L 437.864398 265.292867 
L 438.147791 264.786187 
L 439.848146 266.595715 
L 440.131539 266.482045 
L 440.698324 265.69943 
L 440.981717 265.655682 
L 442.965465 267.391884 
L 444.66582 268.978875 
L 445.515998 269.606126 
L 446.082783 270.157995 
L 446.366176 264.814025 
L 447.783139 266.143007 
L 448.066531 265.788372 
L 448.349924 265.981251 
L 448.633316 266.381476 
L 448.916709 266.213532 
L 449.200102 265.868751 
L 449.766887 266.037279 
L 450.050279 265.991612 
L 450.333672 266.093302 
L 451.467242 267.137982 
L 451.750635 246.969559 
L 452.034027 247.757923 
L 452.884205 246.071748 
L 453.45099 245.888657 
L 454.017776 245.979375 
L 454.584561 246.285045 
L 455.434738 247.032244 
L 456.568309 248.357627 
L 461.669375 254.80081 
L 463.369731 256.479756 
L 465.070086 257.870036 
L 465.353479 257.40899 
L 467.053834 259.072648 
L 468.75419 260.445451 
L 470.454545 261.55563 
L 471.871508 262.309383 
L 472.154901 259.302006 
L 474.138649 260.261773 
L 476.40579 261.115373 
L 478.67293 261.77822 
L 478.956323 260.220676 
L 482.073641 260.995563 
L 485.474352 261.657023 
L 485.757745 262.503431 
L 491.142204 263.229165 
L 492.559167 263.391947 
L 492.84256 261.195023 
L 499.360589 262.109011 
L 499.643982 260.944477 
L 500.494159 261.041734 
L 500.777552 261.198758 
L 501.060945 260.643027 
L 501.344337 259.798576 
L 501.62773 259.411483 
L 501.911122 259.492079 
L 502.477908 259.145334 
L 502.7613 258.751319 
L 503.328085 257.166915 
L 503.611478 255.282171 
L 504.745048 234.789353 
L 505.595226 223.587072 
L 505.878619 220.63243 
L 506.162011 251.813455 
L 506.728796 248.949379 
L 507.295582 247.011659 
L 507.862367 245.730018 
L 508.429152 244.907874 
L 508.995937 244.406549 
L 509.562722 244.129452 
L 511.263078 243.785924 
L 512.963433 244.022788 
L 513.246826 257.047089 
L 515.513966 259.647338 
L 516.080752 260.230284 
L 525.432707 265.97254 
L 527.416455 266.705595 
L 529.683596 267.303641 
L 532.517522 267.797051 
L 533.367699 267.904919 
L 533.651092 260.69393 
L 537.618588 261.476356 
L 539.885729 261.848142 
L 540.169121 261.278538 
L 546.403758 262.190929 
L 546.970543 262.264722 
L 547.253936 261.779631 
L 548.954292 263.36134 
L 550.654647 264.655313 
L 552.355003 265.682906 
L 553.488573 266.238784 
L 553.771965 263.143717 
L 555.755714 263.997568 
L 557.172676 264.430953 
L 558.589639 264.536539 
L 559.439817 262.259888 
L 560.289995 254.572423 
L 560.573388 252.100671 
L 560.85678 262.002339 
L 561.423565 256.454514 
L 562.273743 244.979693 
L 563.407313 224.153228 
L 565.107669 190.374304 
L 565.674454 183.696942 
L 566.241239 179.368672 
L 566.808024 176.722931 
L 567.091417 175.864764 
L 567.37481 257.548182 
L 567.941595 256.729667 
L 568.50838 256.313293 
L 569.075165 256.133657 
L 569.925343 256.100983 
L 571.625698 256.162029 
L 572.192483 255.98256 
L 573.609446 255.099718 
L 574.176232 254.910264 
L 574.459624 259.329845 
L 576.443372 261.438655 
L 578.143728 262.944121 
L 579.844083 264.16527 
L 580.977654 264.835732 
L 581.261046 260.025807 
L 583.244794 261.112572 
L 585.228542 261.956899 
L 587.495683 262.697995 
L 587.779076 262.77719 
L 588.062468 260.025807 
L 590.613002 260.836143 
L 593.73032 261.591786 
L 594.580498 261.761375 
L 594.86389 260.025807 
L 595.147283 259.976601 
L 596.280853 258.138085 
L 596.564246 258.043232 
L 596.847638 258.180288 
L 597.414424 258.758131 
L 597.697816 258.841397 
L 597.981209 258.375999 
L 598.547994 256.312664 
L 599.114779 254.684999 
L 599.681564 253.741088 
L 600.248349 253.225246 
L 600.815135 253.044644 
L 601.38192 253.124733 
L 601.665312 256.211935 
L 602.51549 256.750388 
L 603.64906 257.826943 
L 607.899949 262.549959 
L 608.183342 258.021436 
L 609.316912 259.358153 
L 609.883697 259.58782 
L 610.16709 259.875523 
L 610.450482 259.844875 
L 610.733875 259.942093 
L 611.30066 260.64621 
L 611.584053 260.714544 
L 611.867445 260.501871 
L 612.434231 260.322494 
L 613.567801 257.784656 
L 614.134586 257.494389 
L 614.701371 257.458706 
L 614.984764 257.524687 
L 615.268156 256.824381 
L 616.968512 256.978456 
L 619.802438 257.499697 
L 621.786186 257.926601 
L 622.069578 251.395878 
L 622.636364 251.596933 
L 622.636364 251.596933 
" clip-path="url(#p5158769fb4)" style="fill: none; stroke: #ff7f0e; stroke-width: 1.5; stroke-linecap: square"/>
   </g>
   <g id="patch_3">
    <path d="M 90 288 
L 90 43.2 
" style="fill: none; stroke: #000000; stroke-width: 0.8; stroke-linejoin: miter; stroke-linecap: square"/>
   </g>
   <g id="patch_4">
    <path d="M 648 288 
L 648 43.2 
" style="fill: none; stroke: #000000; stroke-width: 0.8; stroke-linejoin: miter; stroke-linecap: square"/>
   </g>
   <g id="patch_5">
    <path d="M 90 288 
L 648 288 
" style="fill: none; stroke: #000000; stroke-width: 0.8; stroke-linejoin: miter; stroke-linecap: square"/>
   </g>
   <g id="patch_6">
    <path d="M 90 43.2 
L 648 43.2 
" style="fill: none; stroke: #000000; stroke-width: 0.8; stroke-linejoin: miter; stroke-linecap: square"/>
   </g>
   <g id="text_16">
    <!-- MDOT7092 -->
    <g transform="translate(335.545313 37.2) scale(0.12 -0.12)">
     <defs>
      <path id="DejaVuSans-44" d="M 1259 4147 
L 1259 519 
L 2022 519 
Q 2988 519 3436 956 
Q 3884 1394 3884 2338 
Q 3884 3275 3436 3711 
Q 2988 4147 2022 4147 
L 1259 4147 
z
M 628 4666 
L 1925 4666 
Q 3281 4666 3915 4102 
Q 4550 3538 4550 2338 
Q 4550 1131 3912 565 
Q 3275 0 1925 0 
L 628 0 
L 628 4666 
z
" transform="scale(0.015625)"/>
      <path id="DejaVuSans-4f" d="M 2522 4238 
Q 1834 4238 1429 3725 
Q 1025 3213 1025 2328 
Q 1025 1447 1429 934 
Q 1834 422 2522 422 
Q 3209 422 3611 934 
Q 4013 1447 4013 2328 
Q 4013 3213 3611 3725 
Q 3209 4238 2522 4238 
z
M 2522 4750 
Q 3503 4750 4090 4092 
Q 4678 3434 4678 2328 
Q 4678 1225 4090 567 
Q 3503 -91 2522 -91 
Q 1538 -91 948 565 
Q 359 1222 359 2328 
Q 359 3434 948 4092 
Q 1538 4750 2522 4750 
z
" transform="scale(0.015625)"/>
      <path id="DejaVuSans-54" d="M -19 4666 
L 3928 4666 
L 3928 4134 
L 2272 4134 
L 2272 0 
L 1638 0 
L 1638 4134 
L -19 4134 
L -19 4666 
z
" transform="scale(0.015625)"/>
      <path id="DejaVuSans-37" d="M 525 4666 
L 3525 4666 
L 3525 4397 
L 1831 0 
L 1172 0 
L 2766 4134 
L 525 4134 
L 525 4666 
z
" transform="scale(0.015625)"/>
     </defs>
     <use xlink:href="#DejaVuSans-4d"/>
     <use xlink:href="#DejaVuSans-44" x="86.279297"/>
     <use xlink:href="#DejaVuSans-4f" x="163.28125"/>
     <use xlink:href="#DejaVuSans-54" x="241.992188"/>
     <use xlink:href="#DejaVuSans-37" x="303.076172"/>
     <use xlink:href="#DejaVuSans-30" x="366.699219"/>
     <use xlink:href="#DejaVuSans-39" x="430.322266"/>
     <use xlink:href="#DejaVuSans-32" x="493.945312"/>
    </g>
   </g>
   <g id="legend_1">
    <g id="patch_7">
     <path d="M 559.04375 80.55625 
L 641 80.55625 
Q 643 80.55625 643 78.55625 
L 643 50.2 
Q 643 48.2 641 48.2 
L 559.04375 48.2 
Q 557.04375 48.2 557.04375 50.2 
L 557.04375 78.55625 
Q 557.04375 80.55625 559.04375 80.55625 
z
" style="fill: #ffffff; opacity: 0.8; stroke: #cccccc; stroke-linejoin: miter"/>
    </g>
    <g id="line2d_17">
     <path d="M 561.04375 56.298437 
L 571.04375 56.298437 
L 581.04375 56.298437 
" style="fill: none; stroke: #1f77b4; stroke-width: 1.5; stroke-linecap: square"/>
    </g>
    <g id="text_17">
     <!-- measured -->
     <g transform="translate(589.04375 59.798437) scale(0.1 -0.1)">
      <defs>
       <path id="DejaVuSans-6d" d="M 3328 2828 
Q 3544 3216 3844 3400 
Q 4144 3584 4550 3584 
Q 5097 3584 5394 3201 
Q 5691 2819 5691 2113 
L 5691 0 
L 5113 0 
L 5113 2094 
Q 5113 2597 4934 2840 
Q 4756 3084 4391 3084 
Q 3944 3084 3684 2787 
Q 3425 2491 3425 1978 
L 3425 0 
L 2847 0 
L 2847 2094 
Q 2847 2600 2669 2842 
Q 2491 3084 2119 3084 
Q 1678 3084 1418 2786 
Q 1159 2488 1159 1978 
L 1159 0 
L 581 0 
L 581 3500 
L 1159 3500 
L 1159 2956 
Q 1356 3278 1631 3431 
Q 1906 3584 2284 3584 
Q 2666 3584 2933 3390 
Q 3200 3197 3328 2828 
z
" transform="scale(0.015625)"/>
       <path id="DejaVuSans-61" d="M 2194 1759 
Q 1497 1759 1228 1600 
Q 959 1441 959 1056 
Q 959 750 1161 570 
Q 1363 391 1709 391 
Q 2188 391 2477 730 
Q 2766 1069 2766 1631 
L 2766 1759 
L 2194 1759 
z
M 3341 1997 
L 3341 0 
L 2766 0 
L 2766 531 
Q 2569 213 2275 61 
Q 1981 -91 1556 -91 
Q 1019 -91 701 211 
Q 384 513 384 1019 
Q 384 1609 779 1909 
Q 1175 2209 1959 2209 
L 2766 2209 
L 2766 2266 
Q 2766 2663 2505 2880 
Q 2244 3097 1772 3097 
Q 1472 3097 1187 3025 
Q 903 2953 641 2809 
L 641 3341 
Q 956 3463 1253 3523 
Q 1550 3584 1831 3584 
Q 2591 3584 2966 3190 
Q 3341 2797 3341 1997 
z
" transform="scale(0.015625)"/>
       <path id="DejaVuSans-75" d="M 544 1381 
L 544 3500 
L 1119 3500 
L 1119 1403 
Q 1119 906 1312 657 
Q 1506 409 1894 409 
Q 2359 409 2629 706 
Q 2900 1003 2900 1516 
L 2900 3500 
L 3475 3500 
L 3475 0 
L 2900 0 
L 2900 538 
Q 2691 219 2414 64 
Q 2138 -91 1772 -91 
Q 1169 -91 856 284 
Q 544 659 544 1381 
z
M 1991 3584 
L 1991 3584 
z
" transform="scale(0.015625)"/>
       <path id="DejaVuSans-64" d="M 2906 2969 
L 2906 4863 
L 3481 4863 
L 3481 0 
L 2906 0 
L 2906 525 
Q 2725 213 2448 61 
Q 2172 -91 1784 -91 
Q 1150 -91 751 415 
Q 353 922 353 1747 
Q 353 2572 751 3078 
Q 1150 3584 1784 3584 
Q 2172 3584 2448 3432 
Q 2725 3281 2906 2969 
z
M 947 1747 
Q 947 1113 1208 752 
Q 1469 391 1925 391 
Q 2381 391 2643 752 
Q 2906 1113 2906 1747 
Q 2906 2381 2643 2742 
Q 2381 3103 1925 3103 
Q 1469 3103 1208 2742 
Q 947 2381 947 1747 
z
" transform="scale(0.015625)"/>
      </defs>
      <use xlink:href="#DejaVuSans-6d"/>
      <use xlink:href="#DejaVuSans-65" x="97.412109"/>
      <use xlink:href="#DejaVuSans-61" x="158.935547"/>
      <use xlink:href="#DejaVuSans-73" x="220.214844"/>
      <use xlink:href="#DejaVuSans-75" x="272.314453"/>
      <use xlink:href="#DejaVuSans-72" x="335.693359"/>
      <use xlink:href="#DejaVuSans-65" x="374.556641"/>
      <use xlink:href="#DejaVuSans-64" x="436.080078"/>
     </g>
    </g>
    <g id="line2d_18">
     <path d="M 561.04375 70.976562 
L 571.04375 70.976562 
L 581.04375 70.976562 
" style="fill: none; stroke: #ff7f0e; stroke-width: 1.5; stroke-linecap: square"/>
    </g>
    <g id="text_18">
     <!-- predicted -->
     <g transform="translate(589.04375 74.476562) scale(0.1 -0.1)">
      <defs>
       <path id="DejaVuSans-70" d="M 1159 525 
L 1159 -1331 
L 581 -1331 
L 581 3500 
L 1159 3500 
L 1159 2969 
Q 1341 3281 1617 3432 
Q 1894 3584 2278 3584 
Q 2916 3584 3314 3078 
Q 3713 2572 3713 1747 
Q 3713 922 3314 415 
Q 2916 -91 2278 -91 
Q 1894 -91 1617 61 
Q 1341 213 1159 525 
z
M 3116 1747 
Q 3116 2381 2855 2742 
Q 2594 3103 2138 3103 
Q 1681 3103 1420 2742 
Q 1159 2381 1159 1747 
Q 1159 1113 1420 752 
Q 1681 391 2138 391 
Q 2594 391 2855 752 
Q 3116 1113 3116 1747 
z
" transform="scale(0.015625)"/>
       <path id="DejaVuSans-69" d="M 603 3500 
L 1178 3500 
L 1178 0 
L 603 0 
L 603 3500 
z
M 603 4863 
L 1178 4863 
L 1178 4134 
L 603 4134 
L 603 4863 
z
" transform="scale(0.015625)"/>
       <path id="DejaVuSans-63" d="M 3122 3366 
L 3122 2828 
Q 2878 2963 2633 3030 
Q 2388 3097 2138 3097 
Q 1578 3097 1268 2742 
Q 959 2388 959 1747 
Q 959 1106 1268 751 
Q 1578 397 2138 397 
Q 2388 397 2633 464 
Q 2878 531 3122 666 
L 3122 134 
Q 2881 22 2623 -34 
Q 2366 -91 2075 -91 
Q 1284 -91 818 406 
Q 353 903 353 1747 
Q 353 2603 823 3093 
Q 1294 3584 2113 3584 
Q 2378 3584 2631 3529 
Q 2884 3475 3122 3366 
z
" transform="scale(0.015625)"/>
      </defs>
      <use xlink:href="#DejaVuSans-70"/>
      <use xlink:href="#DejaVuSans-72" x="63.476562"/>
      <use xlink:href="#DejaVuSans-65" x="102.339844"/>
      <use xlink:href="#DejaVuSans-64" x="163.863281"/>
      <use xlink:href="#DejaVuSans-69" x="227.339844"/>
      <use xlink:href="#DejaVuSans-63" x="255.123047"/>
      <use xlink:href="#DejaVuSans-74" x="310.103516"/>
      <use xlink:href="#DejaVuSans-65" x="349.3125"/>
      <use xlink:href="#DejaVuSans-64" x="410.835938"/>
     </g>
    </g>
   </g>
  </g>
 </g>
 <defs>
  <clipPath id="p5158769fb4">
   <rect x="90" y="43.2" width="558" height="244.8"/>
  </clipPath>
 </defs>
</svg>
