<?xml version="1.0" encoding="utf-8" standalone="no"?>
<!DOCTYPE svg PUBLIC "-//W3C//DTD SVG 1.1//EN"
  "http://www.w3.org/Graphics/SVG/1.1/DTD/svg11.dtd">
<svg xmlns:xlink="http://www.w3.org/1999/xlink" width="720pt" height="360pt" viewBox="0 0 720 360" xmlns="http://www.w3.org/2000/svg" version="1.1">
 <metadata>
  <rdf:RDF xmlns:dc="http://purl.org/dc/elements/1.1/" xmlns:cc="http://creativecommons.org/ns#" xmlns:rdf="http://www.w3.org/1999/02/22-rdf-syntax-ns#">
   <cc:Work>
    <dc:type rdf:resource="http://purl.org/dc/dcmitype/StillImage"/>
    <dc:date>2023-10-23T10:53:23.450853</dc:date>
    <dc:format>image/svg+xml</dc:format>
    <dc:creator>
     <cc:Agent>
      <dc:title>Matplotlib v3.7.1, https://matplotlib.org/</dc:title>
     </cc:Agent>
    </dc:creator>
   </cc:Work>
  </rdf:RDF>
 </metadata>
 <defs>
  <style type="text/css">*{stroke-linejoin: round; stroke-linecap: butt}</style>
 </defs>
 <g id="figure_1">
  <g id="patch_1">
   <path d="M 0 360 
L 720 360 
L 720 0 
L 0 0 
z
" style="fill: #ffffff"/>
  </g>
  <g id="axes_1">
   <g id="patch_2">
    <path d="M 90 288 
L 648 288 
L 648 43.2 
L 90 43.2 
z
" style="fill: #ffffff"/>
   </g>
   <g id="matplotlib.axis_1">
    <g id="xtick_1">
     <g id="line2d_1">
      <defs>
       <path id="m1370239c54" d="M 0 0 
L 0 3.5 
" style="stroke: #000000; stroke-width: 0.8"/>
      </defs>
      <g>
       <use xlink:href="#m1370239c54" x="149.408786" y="288" style="stroke: #000000; stroke-width: 0.8"/>
      </g>
     </g>
     <g id="text_1">
      <!-- 2023-08-15 -->
      <g transform="translate(87.765444 337.765903) rotate(-30) scale(0.12 -0.12)">
       <defs>
        <path id="DejaVuSans-32" d="M 1228 531 
L 3431 531 
L 3431 0 
L 469 0 
L 469 531 
Q 828 903 1448 1529 
Q 2069 2156 2228 2338 
Q 2531 2678 2651 2914 
Q 2772 3150 2772 3378 
Q 2772 3750 2511 3984 
Q 2250 4219 1831 4219 
Q 1534 4219 1204 4116 
Q 875 4013 500 3803 
L 500 4441 
Q 881 4594 1212 4672 
Q 1544 4750 1819 4750 
Q 2544 4750 2975 4387 
Q 3406 4025 3406 3419 
Q 3406 3131 3298 2873 
Q 3191 2616 2906 2266 
Q 2828 2175 2409 1742 
Q 1991 1309 1228 531 
z
" transform="scale(0.015625)"/>
        <path id="DejaVuSans-30" d="M 2034 4250 
Q 1547 4250 1301 3770 
Q 1056 3291 1056 2328 
Q 1056 1369 1301 889 
Q 1547 409 2034 409 
Q 2525 409 2770 889 
Q 3016 1369 3016 2328 
Q 3016 3291 2770 3770 
Q 2525 4250 2034 4250 
z
M 2034 4750 
Q 2819 4750 3233 4129 
Q 3647 3509 3647 2328 
Q 3647 1150 3233 529 
Q 2819 -91 2034 -91 
Q 1250 -91 836 529 
Q 422 1150 422 2328 
Q 422 3509 836 4129 
Q 1250 4750 2034 4750 
z
" transform="scale(0.015625)"/>
        <path id="DejaVuSans-33" d="M 2597 2516 
Q 3050 2419 3304 2112 
Q 3559 1806 3559 1356 
Q 3559 666 3084 287 
Q 2609 -91 1734 -91 
Q 1441 -91 1130 -33 
Q 819 25 488 141 
L 488 750 
Q 750 597 1062 519 
Q 1375 441 1716 441 
Q 2309 441 2620 675 
Q 2931 909 2931 1356 
Q 2931 1769 2642 2001 
Q 2353 2234 1838 2234 
L 1294 2234 
L 1294 2753 
L 1863 2753 
Q 2328 2753 2575 2939 
Q 2822 3125 2822 3475 
Q 2822 3834 2567 4026 
Q 2313 4219 1838 4219 
Q 1578 4219 1281 4162 
Q 984 4106 628 3988 
L 628 4550 
Q 988 4650 1302 4700 
Q 1616 4750 1894 4750 
Q 2613 4750 3031 4423 
Q 3450 4097 3450 3541 
Q 3450 3153 3228 2886 
Q 3006 2619 2597 2516 
z
" transform="scale(0.015625)"/>
        <path id="DejaVuSans-2d" d="M 313 2009 
L 1997 2009 
L 1997 1497 
L 313 1497 
L 313 2009 
z
" transform="scale(0.015625)"/>
        <path id="DejaVuSans-38" d="M 2034 2216 
Q 1584 2216 1326 1975 
Q 1069 1734 1069 1313 
Q 1069 891 1326 650 
Q 1584 409 2034 409 
Q 2484 409 2743 651 
Q 3003 894 3003 1313 
Q 3003 1734 2745 1975 
Q 2488 2216 2034 2216 
z
M 1403 2484 
Q 997 2584 770 2862 
Q 544 3141 544 3541 
Q 544 4100 942 4425 
Q 1341 4750 2034 4750 
Q 2731 4750 3128 4425 
Q 3525 4100 3525 3541 
Q 3525 3141 3298 2862 
Q 3072 2584 2669 2484 
Q 3125 2378 3379 2068 
Q 3634 1759 3634 1313 
Q 3634 634 3220 271 
Q 2806 -91 2034 -91 
Q 1263 -91 848 271 
Q 434 634 434 1313 
Q 434 1759 690 2068 
Q 947 2378 1403 2484 
z
M 1172 3481 
Q 1172 3119 1398 2916 
Q 1625 2713 2034 2713 
Q 2441 2713 2670 2916 
Q 2900 3119 2900 3481 
Q 2900 3844 2670 4047 
Q 2441 4250 2034 4250 
Q 1625 4250 1398 4047 
Q 1172 3844 1172 3481 
z
" transform="scale(0.015625)"/>
        <path id="DejaVuSans-31" d="M 794 531 
L 1825 531 
L 1825 4091 
L 703 3866 
L 703 4441 
L 1819 4666 
L 2450 4666 
L 2450 531 
L 3481 531 
L 3481 0 
L 794 0 
L 794 531 
z
" transform="scale(0.015625)"/>
        <path id="DejaVuSans-35" d="M 691 4666 
L 3169 4666 
L 3169 4134 
L 1269 4134 
L 1269 2991 
Q 1406 3038 1543 3061 
Q 1681 3084 1819 3084 
Q 2600 3084 3056 2656 
Q 3513 2228 3513 1497 
Q 3513 744 3044 326 
Q 2575 -91 1722 -91 
Q 1428 -91 1123 -41 
Q 819 9 494 109 
L 494 744 
Q 775 591 1075 516 
Q 1375 441 1709 441 
Q 2250 441 2565 725 
Q 2881 1009 2881 1497 
Q 2881 1984 2565 2268 
Q 2250 2553 1709 2553 
Q 1456 2553 1204 2497 
Q 953 2441 691 2322 
L 691 4666 
z
" transform="scale(0.015625)"/>
       </defs>
       <use xlink:href="#DejaVuSans-32"/>
       <use xlink:href="#DejaVuSans-30" x="63.623047"/>
       <use xlink:href="#DejaVuSans-32" x="127.246094"/>
       <use xlink:href="#DejaVuSans-33" x="190.869141"/>
       <use xlink:href="#DejaVuSans-2d" x="254.492188"/>
       <use xlink:href="#DejaVuSans-30" x="290.576172"/>
       <use xlink:href="#DejaVuSans-38" x="354.199219"/>
       <use xlink:href="#DejaVuSans-2d" x="417.822266"/>
       <use xlink:href="#DejaVuSans-31" x="453.90625"/>
       <use xlink:href="#DejaVuSans-35" x="517.529297"/>
      </g>
     </g>
    </g>
    <g id="xtick_2">
     <g id="line2d_2">
      <g>
       <use xlink:href="#m1370239c54" x="265.162294" y="288" style="stroke: #000000; stroke-width: 0.8"/>
      </g>
     </g>
     <g id="text_2">
      <!-- 2023-09-01 -->
      <g transform="translate(203.518952 337.765903) rotate(-30) scale(0.12 -0.12)">
       <defs>
        <path id="DejaVuSans-39" d="M 703 97 
L 703 672 
Q 941 559 1184 500 
Q 1428 441 1663 441 
Q 2288 441 2617 861 
Q 2947 1281 2994 2138 
Q 2813 1869 2534 1725 
Q 2256 1581 1919 1581 
Q 1219 1581 811 2004 
Q 403 2428 403 3163 
Q 403 3881 828 4315 
Q 1253 4750 1959 4750 
Q 2769 4750 3195 4129 
Q 3622 3509 3622 2328 
Q 3622 1225 3098 567 
Q 2575 -91 1691 -91 
Q 1453 -91 1209 -44 
Q 966 3 703 97 
z
M 1959 2075 
Q 2384 2075 2632 2365 
Q 2881 2656 2881 3163 
Q 2881 3666 2632 3958 
Q 2384 4250 1959 4250 
Q 1534 4250 1286 3958 
Q 1038 3666 1038 3163 
Q 1038 2656 1286 2365 
Q 1534 2075 1959 2075 
z
" transform="scale(0.015625)"/>
       </defs>
       <use xlink:href="#DejaVuSans-32"/>
       <use xlink:href="#DejaVuSans-30" x="63.623047"/>
       <use xlink:href="#DejaVuSans-32" x="127.246094"/>
       <use xlink:href="#DejaVuSans-33" x="190.869141"/>
       <use xlink:href="#DejaVuSans-2d" x="254.492188"/>
       <use xlink:href="#DejaVuSans-30" x="290.576172"/>
       <use xlink:href="#DejaVuSans-39" x="354.199219"/>
       <use xlink:href="#DejaVuSans-2d" x="417.822266"/>
       <use xlink:href="#DejaVuSans-30" x="453.90625"/>
       <use xlink:href="#DejaVuSans-31" x="517.529297"/>
      </g>
     </g>
    </g>
    <g id="xtick_3">
     <g id="line2d_3">
      <g>
       <use xlink:href="#m1370239c54" x="360.488713" y="288" style="stroke: #000000; stroke-width: 0.8"/>
      </g>
     </g>
     <g id="text_3">
      <!-- 2023-09-15 -->
      <g transform="translate(298.845371 337.765903) rotate(-30) scale(0.12 -0.12)">
       <use xlink:href="#DejaVuSans-32"/>
       <use xlink:href="#DejaVuSans-30" x="63.623047"/>
       <use xlink:href="#DejaVuSans-32" x="127.246094"/>
       <use xlink:href="#DejaVuSans-33" x="190.869141"/>
       <use xlink:href="#DejaVuSans-2d" x="254.492188"/>
       <use xlink:href="#DejaVuSans-30" x="290.576172"/>
       <use xlink:href="#DejaVuSans-39" x="354.199219"/>
       <use xlink:href="#DejaVuSans-2d" x="417.822266"/>
       <use xlink:href="#DejaVuSans-31" x="453.90625"/>
       <use xlink:href="#DejaVuSans-35" x="517.529297"/>
      </g>
     </g>
    </g>
    <g id="xtick_4">
     <g id="line2d_4">
      <g>
       <use xlink:href="#m1370239c54" x="469.433191" y="288" style="stroke: #000000; stroke-width: 0.8"/>
      </g>
     </g>
     <g id="text_4">
      <!-- 2023-10-01 -->
      <g transform="translate(407.789849 337.765903) rotate(-30) scale(0.12 -0.12)">
       <use xlink:href="#DejaVuSans-32"/>
       <use xlink:href="#DejaVuSans-30" x="63.623047"/>
       <use xlink:href="#DejaVuSans-32" x="127.246094"/>
       <use xlink:href="#DejaVuSans-33" x="190.869141"/>
       <use xlink:href="#DejaVuSans-2d" x="254.492188"/>
       <use xlink:href="#DejaVuSans-31" x="290.576172"/>
       <use xlink:href="#DejaVuSans-30" x="354.199219"/>
       <use xlink:href="#DejaVuSans-2d" x="417.822266"/>
       <use xlink:href="#DejaVuSans-30" x="453.90625"/>
       <use xlink:href="#DejaVuSans-31" x="517.529297"/>
      </g>
     </g>
    </g>
    <g id="xtick_5">
     <g id="line2d_5">
      <g>
       <use xlink:href="#m1370239c54" x="564.75961" y="288" style="stroke: #000000; stroke-width: 0.8"/>
      </g>
     </g>
     <g id="text_5">
      <!-- 2023-10-15 -->
      <g transform="translate(503.116268 337.765903) rotate(-30) scale(0.12 -0.12)">
       <use xlink:href="#DejaVuSans-32"/>
       <use xlink:href="#DejaVuSans-30" x="63.623047"/>
       <use xlink:href="#DejaVuSans-32" x="127.246094"/>
       <use xlink:href="#DejaVuSans-33" x="190.869141"/>
       <use xlink:href="#DejaVuSans-2d" x="254.492188"/>
       <use xlink:href="#DejaVuSans-31" x="290.576172"/>
       <use xlink:href="#DejaVuSans-30" x="354.199219"/>
       <use xlink:href="#DejaVuSans-2d" x="417.822266"/>
       <use xlink:href="#DejaVuSans-31" x="453.90625"/>
       <use xlink:href="#DejaVuSans-35" x="517.529297"/>
      </g>
     </g>
    </g>
   </g>
   <g id="matplotlib.axis_2">
    <g id="ytick_1">
     <g id="line2d_6">
      <defs>
       <path id="m25d5684f46" d="M 0 0 
L -3.5 0 
" style="stroke: #000000; stroke-width: 0.8"/>
      </defs>
      <g>
       <use xlink:href="#m25d5684f46" x="90" y="258.871942" style="stroke: #000000; stroke-width: 0.8"/>
      </g>
     </g>
     <g id="text_6">
      <!-- −0.1 -->
      <g transform="translate(53.860625 263.431005) scale(0.12 -0.12)">
       <defs>
        <path id="DejaVuSans-2212" d="M 678 2272 
L 4684 2272 
L 4684 1741 
L 678 1741 
L 678 2272 
z
" transform="scale(0.015625)"/>
        <path id="DejaVuSans-2e" d="M 684 794 
L 1344 794 
L 1344 0 
L 684 0 
L 684 794 
z
" transform="scale(0.015625)"/>
       </defs>
       <use xlink:href="#DejaVuSans-2212"/>
       <use xlink:href="#DejaVuSans-30" x="83.789062"/>
       <use xlink:href="#DejaVuSans-2e" x="147.412109"/>
       <use xlink:href="#DejaVuSans-31" x="179.199219"/>
      </g>
     </g>
    </g>
    <g id="ytick_2">
     <g id="line2d_7">
      <g>
       <use xlink:href="#m25d5684f46" x="90" y="228.427113" style="stroke: #000000; stroke-width: 0.8"/>
      </g>
     </g>
     <g id="text_7">
      <!-- 0.0 -->
      <g transform="translate(63.91625 232.986176) scale(0.12 -0.12)">
       <use xlink:href="#DejaVuSans-30"/>
       <use xlink:href="#DejaVuSans-2e" x="63.623047"/>
       <use xlink:href="#DejaVuSans-30" x="95.410156"/>
      </g>
     </g>
    </g>
    <g id="ytick_3">
     <g id="line2d_8">
      <g>
       <use xlink:href="#m25d5684f46" x="90" y="197.982284" style="stroke: #000000; stroke-width: 0.8"/>
      </g>
     </g>
     <g id="text_8">
      <!-- 0.1 -->
      <g transform="translate(63.91625 202.541347) scale(0.12 -0.12)">
       <use xlink:href="#DejaVuSans-30"/>
       <use xlink:href="#DejaVuSans-2e" x="63.623047"/>
       <use xlink:href="#DejaVuSans-31" x="95.410156"/>
      </g>
     </g>
    </g>
    <g id="ytick_4">
     <g id="line2d_9">
      <g>
       <use xlink:href="#m25d5684f46" x="90" y="167.537455" style="stroke: #000000; stroke-width: 0.8"/>
      </g>
     </g>
     <g id="text_9">
      <!-- 0.2 -->
      <g transform="translate(63.91625 172.096518) scale(0.12 -0.12)">
       <use xlink:href="#DejaVuSans-30"/>
       <use xlink:href="#DejaVuSans-2e" x="63.623047"/>
       <use xlink:href="#DejaVuSans-32" x="95.410156"/>
      </g>
     </g>
    </g>
    <g id="ytick_5">
     <g id="line2d_10">
      <g>
       <use xlink:href="#m25d5684f46" x="90" y="137.092626" style="stroke: #000000; stroke-width: 0.8"/>
      </g>
     </g>
     <g id="text_10">
      <!-- 0.3 -->
      <g transform="translate(63.91625 141.651689) scale(0.12 -0.12)">
       <use xlink:href="#DejaVuSans-30"/>
       <use xlink:href="#DejaVuSans-2e" x="63.623047"/>
       <use xlink:href="#DejaVuSans-33" x="95.410156"/>
      </g>
     </g>
    </g>
    <g id="ytick_6">
     <g id="line2d_11">
      <g>
       <use xlink:href="#m25d5684f46" x="90" y="106.647797" style="stroke: #000000; stroke-width: 0.8"/>
      </g>
     </g>
     <g id="text_11">
      <!-- 0.4 -->
      <g transform="translate(63.91625 111.20686) scale(0.12 -0.12)">
       <defs>
        <path id="DejaVuSans-34" d="M 2419 4116 
L 825 1625 
L 2419 1625 
L 2419 4116 
z
M 2253 4666 
L 3047 4666 
L 3047 1625 
L 3713 1625 
L 3713 1100 
L 3047 1100 
L 3047 0 
L 2419 0 
L 2419 1100 
L 313 1100 
L 313 1709 
L 2253 4666 
z
" transform="scale(0.015625)"/>
       </defs>
       <use xlink:href="#DejaVuSans-30"/>
       <use xlink:href="#DejaVuSans-2e" x="63.623047"/>
       <use xlink:href="#DejaVuSans-34" x="95.410156"/>
      </g>
     </g>
    </g>
    <g id="ytick_7">
     <g id="line2d_12">
      <g>
       <use xlink:href="#m25d5684f46" x="90" y="76.202969" style="stroke: #000000; stroke-width: 0.8"/>
      </g>
     </g>
     <g id="text_12">
      <!-- 0.5 -->
      <g transform="translate(63.91625 80.762031) scale(0.12 -0.12)">
       <use xlink:href="#DejaVuSans-30"/>
       <use xlink:href="#DejaVuSans-2e" x="63.623047"/>
       <use xlink:href="#DejaVuSans-35" x="95.410156"/>
      </g>
     </g>
    </g>
    <g id="ytick_8">
     <g id="line2d_13">
      <g>
       <use xlink:href="#m25d5684f46" x="90" y="45.75814" style="stroke: #000000; stroke-width: 0.8"/>
      </g>
     </g>
     <g id="text_13">
      <!-- 0.6 -->
      <g transform="translate(63.91625 50.317202) scale(0.12 -0.12)">
       <defs>
        <path id="DejaVuSans-36" d="M 2113 2584 
Q 1688 2584 1439 2293 
Q 1191 2003 1191 1497 
Q 1191 994 1439 701 
Q 1688 409 2113 409 
Q 2538 409 2786 701 
Q 3034 994 3034 1497 
Q 3034 2003 2786 2293 
Q 2538 2584 2113 2584 
z
M 3366 4563 
L 3366 3988 
Q 3128 4100 2886 4159 
Q 2644 4219 2406 4219 
Q 1781 4219 1451 3797 
Q 1122 3375 1075 2522 
Q 1259 2794 1537 2939 
Q 1816 3084 2150 3084 
Q 2853 3084 3261 2657 
Q 3669 2231 3669 1497 
Q 3669 778 3244 343 
Q 2819 -91 2113 -91 
Q 1303 -91 875 529 
Q 447 1150 447 2328 
Q 447 3434 972 4092 
Q 1497 4750 2381 4750 
Q 2619 4750 2861 4703 
Q 3103 4656 3366 4563 
z
" transform="scale(0.015625)"/>
       </defs>
       <use xlink:href="#DejaVuSans-30"/>
       <use xlink:href="#DejaVuSans-2e" x="63.623047"/>
       <use xlink:href="#DejaVuSans-36" x="95.410156"/>
      </g>
     </g>
    </g>
    <g id="text_14">
     <!-- Meters -->
     <g transform="translate(47.780937 182.6875) rotate(-90) scale(0.1 -0.1)">
      <defs>
       <path id="DejaVuSans-4d" d="M 628 4666 
L 1569 4666 
L 2759 1491 
L 3956 4666 
L 4897 4666 
L 4897 0 
L 4281 0 
L 4281 4097 
L 3078 897 
L 2444 897 
L 1241 4097 
L 1241 0 
L 628 0 
L 628 4666 
z
" transform="scale(0.015625)"/>
       <path id="DejaVuSans-65" d="M 3597 1894 
L 3597 1613 
L 953 1613 
Q 991 1019 1311 708 
Q 1631 397 2203 397 
Q 2534 397 2845 478 
Q 3156 559 3463 722 
L 3463 178 
Q 3153 47 2828 -22 
Q 2503 -91 2169 -91 
Q 1331 -91 842 396 
Q 353 884 353 1716 
Q 353 2575 817 3079 
Q 1281 3584 2069 3584 
Q 2775 3584 3186 3129 
Q 3597 2675 3597 1894 
z
M 3022 2063 
Q 3016 2534 2758 2815 
Q 2500 3097 2075 3097 
Q 1594 3097 1305 2825 
Q 1016 2553 972 2059 
L 3022 2063 
z
" transform="scale(0.015625)"/>
       <path id="DejaVuSans-74" d="M 1172 4494 
L 1172 3500 
L 2356 3500 
L 2356 3053 
L 1172 3053 
L 1172 1153 
Q 1172 725 1289 603 
Q 1406 481 1766 481 
L 2356 481 
L 2356 0 
L 1766 0 
Q 1100 0 847 248 
Q 594 497 594 1153 
L 594 3053 
L 172 3053 
L 172 3500 
L 594 3500 
L 594 4494 
L 1172 4494 
z
" transform="scale(0.015625)"/>
       <path id="DejaVuSans-72" d="M 2631 2963 
Q 2534 3019 2420 3045 
Q 2306 3072 2169 3072 
Q 1681 3072 1420 2755 
Q 1159 2438 1159 1844 
L 1159 0 
L 581 0 
L 581 3500 
L 1159 3500 
L 1159 2956 
Q 1341 3275 1631 3429 
Q 1922 3584 2338 3584 
Q 2397 3584 2469 3576 
Q 2541 3569 2628 3553 
L 2631 2963 
z
" transform="scale(0.015625)"/>
       <path id="DejaVuSans-73" d="M 2834 3397 
L 2834 2853 
Q 2591 2978 2328 3040 
Q 2066 3103 1784 3103 
Q 1356 3103 1142 2972 
Q 928 2841 928 2578 
Q 928 2378 1081 2264 
Q 1234 2150 1697 2047 
L 1894 2003 
Q 2506 1872 2764 1633 
Q 3022 1394 3022 966 
Q 3022 478 2636 193 
Q 2250 -91 1575 -91 
Q 1294 -91 989 -36 
Q 684 19 347 128 
L 347 722 
Q 666 556 975 473 
Q 1284 391 1588 391 
Q 1994 391 2212 530 
Q 2431 669 2431 922 
Q 2431 1156 2273 1281 
Q 2116 1406 1581 1522 
L 1381 1569 
Q 847 1681 609 1914 
Q 372 2147 372 2553 
Q 372 3047 722 3315 
Q 1072 3584 1716 3584 
Q 2034 3584 2315 3537 
Q 2597 3491 2834 3397 
z
" transform="scale(0.015625)"/>
      </defs>
      <use xlink:href="#DejaVuSans-4d"/>
      <use xlink:href="#DejaVuSans-65" x="86.279297"/>
      <use xlink:href="#DejaVuSans-74" x="147.802734"/>
      <use xlink:href="#DejaVuSans-65" x="187.011719"/>
      <use xlink:href="#DejaVuSans-72" x="248.535156"/>
      <use xlink:href="#DejaVuSans-73" x="289.648438"/>
     </g>
    </g>
   </g>
   <g id="line2d_14">
    <path d="M 115.363636 259.371432 
L 115.647346 259.168519 
L 116.214765 259.574346 
L 116.498475 259.11779 
L 116.782184 259.016333 
L 117.065894 260.183086 
L 117.917023 259.422161 
L 118.200732 259.716385 
L 118.484442 259.827988 
L 118.768151 259.777259 
L 119.051861 259.320704 
L 119.33557 259.11779 
L 119.61928 260.183086 
L 119.90299 260.69037 
L 120.186699 260.69037 
L 120.470409 261.248383 
L 120.754118 261.197654 
L 121.037828 262.567321 
L 121.321538 262.313679 
L 121.605247 262.618049 
L 121.888957 263.53116 
L 122.456376 260.994741 
L 123.023795 261.045469 
L 123.307505 260.893284 
L 123.591214 260.436728 
L 123.874924 260.933867 
L 124.158633 260.386 
L 124.726052 261.349839 
L 125.009762 261.502025 
L 125.860891 258.306136 
L 126.42831 260.944012 
L 126.71202 261.552753 
L 126.995729 261.755667 
L 127.279439 261.197654 
L 127.563148 261.704938 
L 127.846858 262.871691 
L 128.414277 202.301991 
L 128.697987 190.938832 
L 128.981696 187.742943 
L 129.832825 201.693251 
L 130.683954 215.187003 
L 132.386211 235.884187 
L 132.669921 238.31915 
L 132.95363 241.717952 
L 133.804759 245.218211 
L 134.088469 247.45026 
L 134.372178 248.769198 
L 134.655888 251.153433 
L 134.939597 251.508531 
L 135.223307 253.50723 
L 135.507016 253.689852 
L 135.790726 254.095679 
L 136.074436 253.385482 
L 136.641855 254.40005 
L 137.209274 254.552235 
L 137.492984 255.414618 
L 137.776693 255.211704 
L 138.060403 255.363889 
L 138.344112 255.66826 
L 138.627822 256.682827 
L 138.911531 256.936469 
L 139.195241 256.175543 
L 139.478951 255.97263 
L 139.76266 256.124815 
L 140.330079 258.559778 
L 140.613789 258.509049 
L 140.897498 259.219247 
L 141.181208 260.446874 
L 141.464918 260.538185 
L 141.748627 259.878716 
L 142.032337 260.284543 
L 142.316046 260.183086 
L 142.599756 259.929444 
L 142.883466 259.878716 
L 143.167175 259.067062 
L 143.450885 259.016333 
L 143.734594 259.523617 
L 144.018304 259.168519 
L 144.302013 260.030901 
L 144.585723 259.777259 
L 144.869433 259.726531 
L 145.153142 259.219247 
L 145.436852 260.08163 
L 145.720561 260.030901 
L 146.28798 260.284543 
L 146.57169 260.639642 
L 147.139109 261.857123 
L 147.422819 261.857123 
L 147.706528 262.820963 
L 147.990238 262.161494 
L 149.125076 261.704938 
L 149.976205 238.572792 
L 151.394753 155.784056 
L 151.678462 156.900081 
L 152.529591 179.119116 
L 152.813301 183.177388 
L 153.66443 199.562658 
L 154.515558 210.570719 
L 156.217816 233.24631 
L 156.501525 233.855051 
L 157.920073 240.246828 
L 158.203783 240.967172 
L 158.487492 240.957026 
L 159.622331 243.747087 
L 159.90604 243.747087 
L 160.18975 244.3051 
L 160.473459 245.268939 
L 161.040879 248.211186 
L 161.324588 249.783766 
L 161.892007 249.783766 
L 162.459426 254.146408 
L 162.743136 254.958062 
L 163.026846 255.160976 
L 163.310555 253.892766 
L 163.594265 253.385482 
L 163.877974 253.324608 
L 164.445394 253.791309 
L 164.729103 254.653692 
L 165.012813 254.755148 
L 165.296522 254.450778 
L 165.580232 254.552235 
L 165.863941 255.160976 
L 166.147651 253.182568 
L 166.431361 252.370914 
L 166.99878 254.146408 
L 167.282489 255.820445 
L 167.566199 255.97263 
L 167.849908 254.958062 
L 168.133618 242.326693 
L 168.984747 184.293412 
L 169.268456 183.938314 
L 170.970714 211.838929 
L 171.538133 218.43362 
L 172.105552 222.948447 
L 174.375229 244.254371 
L 174.942648 247.044433 
L 175.226358 247.14589 
L 175.510067 248.028564 
L 175.793777 249.276482 
L 176.077486 251.762173 
L 176.361196 252.117272 
L 176.644905 252.675284 
L 176.928615 251.508531 
L 177.496034 250.59542 
L 177.779744 251.153433 
L 178.063453 251.254889 
L 178.347163 251.965087 
L 178.630872 252.269457 
L 179.198292 253.334754 
L 179.482001 253.791309 
L 179.765711 253.385482 
L 180.04942 252.675284 
L 180.33313 253.233297 
L 180.61684 253.182568 
L 181.184259 254.542089 
L 181.751678 256.530642 
L 182.035387 256.429185 
L 182.319097 254.856605 
L 182.602807 256.530642 
L 182.886516 257.24084 
L 183.170226 259.422161 
L 183.453935 258.509049 
L 183.737645 256.936469 
L 184.021354 256.277 
L 184.588774 256.479914 
L 184.872483 256.581371 
L 185.156193 256.479914 
L 185.439902 256.682827 
L 185.723612 257.190111 
L 186.007322 257.088654 
L 186.291031 257.54521 
L 186.574741 257.088654 
L 186.85845 255.942193 
L 187.14216 255.617531 
L 187.425869 255.820445 
L 187.993289 256.530642 
L 188.276998 256.378457 
L 188.560708 258.103222 
L 188.844417 257.748124 
L 189.128127 257.190111 
L 189.695546 257.697395 
L 189.979256 258.864148 
L 190.262965 258.255408 
L 190.546675 258.306136 
L 190.830384 257.900309 
L 191.114094 257.697395 
L 191.397804 257.697395 
L 191.681513 256.835013 
L 192.248932 258.81342 
L 192.532642 259.655511 
L 192.816351 259.625074 
L 193.100061 260.994741 
L 193.383771 260.893284 
L 193.66748 260.994741 
L 193.95119 260.335272 
L 194.234899 260.284543 
L 194.518609 260.944012 
L 195.086028 264.038444 
L 195.369738 264.089173 
L 195.653447 263.125333 
L 195.937157 263.683345 
L 196.220866 262.92242 
L 196.504576 262.973148 
L 196.788286 263.683345 
L 197.639414 260.69037 
L 197.923124 261.096197 
L 198.206833 261.055615 
L 198.490543 261.400568 
L 198.774253 262.009308 
L 199.057962 263.886259 
L 199.341672 262.161494 
L 199.625381 262.415136 
L 199.909091 262.060037 
L 200.47651 260.08163 
L 201.611348 262.364407 
L 202.178768 264.900827 
L 202.462477 265.458839 
L 202.746187 265.357382 
L 203.029896 266.422679 
L 203.313606 269.618567 
L 203.597315 270.48095 
L 203.881025 267.690888 
L 204.164735 263.277518 
L 204.732154 262.92242 
L 205.015863 262.364407 
L 205.299573 262.060037 
L 205.583282 264.190629 
L 206.150702 262.110765 
L 206.718121 263.683345 
L 207.00183 262.212222 
L 207.28554 262.567321 
L 207.56925 262.364407 
L 208.136669 261.704938 
L 208.420378 262.009308 
L 208.987797 263.581889 
L 209.271507 264.444271 
L 209.555217 263.53116 
L 209.838926 263.6732 
L 210.122636 263.074605 
L 210.406345 260.944012 
L 210.690055 262.820963 
L 210.973764 261.95858 
L 211.257474 261.552753 
L 211.541184 261.451296 
L 211.824893 261.857123 
L 212.108603 261.146926 
L 212.392312 262.26295 
L 212.676022 258.81342 
L 213.243441 98.511702 
L 213.527151 54.327273 
L 213.81086 57.421705 
L 214.09457 62.951099 
L 214.661989 95.315813 
L 215.229408 142.391761 
L 215.513118 152.151903 
L 216.647956 172.422969 
L 216.931666 176.024685 
L 217.782794 190.786646 
L 218.066504 193.779622 
L 218.350214 160.70471 
L 218.633923 145.384736 
L 218.917633 139.956798 
L 220.052471 177.901635 
L 220.61989 188.402412 
L 221.471019 201.338152 
L 222.038438 213.817336 
L 222.605857 222.086064 
L 224.024405 233.499952 
L 224.308115 232.94194 
L 224.591824 234.818891 
L 224.875534 235.681273 
L 225.159243 237.507495 
L 225.442953 238.116236 
L 226.010372 239.638088 
L 226.294082 240.399014 
L 226.577791 240.804841 
L 227.14521 242.225236 
L 227.71263 241.920865 
L 228.563758 245.319668 
L 228.847468 245.471853 
L 229.131178 246.942976 
L 229.414887 250.240322 
L 229.698597 249.276482 
L 230.266016 250.493964 
L 230.549725 253.740581 
L 230.833435 255.262432 
L 231.117145 252.168 
L 231.400854 250.544692 
L 231.684564 249.98668 
L 231.968273 249.935951 
L 232.251983 250.646149 
L 232.535692 251.741882 
L 232.819402 253.334754 
L 233.103112 252.168 
L 233.386821 252.015815 
L 233.95424 252.776741 
L 234.23795 252.370914 
L 234.52166 250.189593 
L 234.805369 250.29105 
L 235.089079 250.849062 
L 235.372788 251.711445 
L 235.940207 256.327729 
L 236.223917 258.407593 
L 236.507627 258.356864 
L 236.791336 256.733556 
L 237.642465 264.545728 
L 237.926174 260.791827 
L 238.209884 259.351141 
L 238.493594 256.074087 
L 238.777303 256.530642 
L 239.061013 258.965605 
L 239.344722 256.936469 
L 239.628432 258.458321 
L 239.912142 259.269975 
L 240.195851 258.458321 
L 240.479561 258.661235 
L 240.76327 258.306136 
L 241.330689 256.327729 
L 241.614399 256.733556 
L 241.898109 256.784284 
L 242.465528 258.762691 
L 243.032947 263.125333 
L 243.316656 262.668778 
L 243.600366 261.349839 
L 244.451495 268.096716 
L 245.018914 262.313679 
L 245.302624 261.146926 
L 245.586333 261.400568 
L 245.870043 261.299111 
L 246.153752 261.045469 
L 246.437462 261.045469 
L 247.004881 260.69037 
L 247.288591 260.588914 
L 247.5723 260.639642 
L 247.85601 259.777259 
L 248.139719 259.523617 
L 248.423429 258.356864 
L 248.707138 258.661235 
L 248.990848 259.269975 
L 249.274558 260.639642 
L 249.558267 260.893284 
L 249.841977 260.872993 
L 250.125686 261.65421 
L 250.409396 260.842555 
L 250.693106 261.704938 
L 250.976815 260.741099 
L 251.260525 260.994741 
L 251.544234 260.386 
L 251.827944 261.299111 
L 252.679073 242.377421 
L 252.962782 238.775705 
L 253.246492 237.000211 
L 253.530201 236.797298 
L 253.813911 237.456767 
L 254.66504 241.76868 
L 254.948749 243.747087 
L 255.232459 244.558742 
L 255.799878 247.75463 
L 256.083588 248.769198 
L 256.367297 250.341778 
L 256.651007 253.182568 
L 256.934716 254.044951 
L 257.218426 254.450778 
L 258.069555 263.53116 
L 258.353264 258.001766 
L 258.636974 257.595938 
L 258.920683 256.936469 
L 259.204393 257.900309 
L 259.488103 258.001766 
L 259.771812 256.987198 
L 260.055522 257.037926 
L 260.339231 259.168519 
L 260.622941 259.726531 
L 260.90665 259.016333 
L 261.19036 259.899007 
L 261.47407 259.422161 
L 261.757779 258.509049 
L 262.041489 257.139383 
L 262.608908 258.509049 
L 262.892617 260.842555 
L 263.176327 262.060037 
L 263.460037 263.987716 
L 263.743746 264.900827 
L 264.027456 263.074605 
L 264.311165 265.002284 
L 264.594875 268.857641 
L 264.878585 271.191147 
L 265.446004 264.495 
L 265.729713 263.480432 
L 266.013423 262.92242 
L 266.580842 262.92242 
L 266.864552 262.760089 
L 267.148261 262.364407 
L 267.431971 262.668778 
L 267.71568 262.719506 
L 268.283099 261.552753 
L 268.566809 259.320704 
L 268.850519 259.067062 
L 269.134228 259.675802 
L 269.985357 263.632617 
L 270.269067 265.611024 
L 270.552776 265.661753 
L 270.836486 264.190629 
L 271.403905 270.075123 
L 271.687614 272.205715 
L 271.971324 266.625592 
L 272.822453 264.241358 
L 273.106162 263.784802 
L 273.389872 263.784802 
L 273.673581 263.328247 
L 273.957291 263.176062 
L 274.52471 263.632617 
L 274.80842 262.871691 
L 275.092129 262.567321 
L 275.659549 260.538185 
L 275.943258 259.878716 
L 276.226968 260.386 
L 276.510677 261.451296 
L 276.794387 261.65421 
L 277.078096 262.973148 
L 277.361806 262.060037 
L 277.645516 262.516592 
L 277.929225 263.480432 
L 278.212935 262.719506 
L 278.496644 263.186207 
L 278.780354 262.110765 
L 279.347773 262.212222 
L 279.631483 263.023876 
L 280.198902 261.755667 
L 280.482611 261.65421 
L 280.766321 262.719506 
L 281.050031 262.465864 
L 281.33374 261.95858 
L 281.61745 261.045469 
L 281.901159 261.045469 
L 282.184869 260.538185 
L 282.752288 259.11779 
L 283.035998 260.588914 
L 283.887126 262.618049 
L 284.170836 262.516592 
L 284.738255 263.023876 
L 285.305674 264.850098 
L 285.589384 262.26295 
L 285.873093 262.060037 
L 286.156803 262.212222 
L 286.440513 261.65421 
L 286.724222 261.451296 
L 287.575351 261.552753 
L 287.85906 261.146926 
L 288.42648 261.451296 
L 288.710189 261.400568 
L 288.993899 260.944012 
L 289.277608 259.878716 
L 289.561318 259.320704 
L 289.845027 260.629496 
L 290.128737 260.538185 
L 290.412447 261.755667 
L 290.979866 262.92242 
L 291.263575 262.415136 
L 291.547285 262.92242 
L 291.830995 265.712481 
L 292.114704 244.710927 
L 292.398414 265.458839 
L 292.682123 263.480432 
L 292.965833 262.618049 
L 293.249542 262.364407 
L 293.533252 262.415136 
L 293.816962 262.26295 
L 294.384381 262.26295 
L 294.66809 261.704938 
L 294.9518 261.95858 
L 295.235509 262.060037 
L 295.519219 261.177363 
L 295.802929 261.197654 
L 296.370348 260.233815 
L 296.654057 261.096197 
L 296.937767 262.770234 
L 297.221477 263.328247 
L 297.505186 262.770234 
L 298.072605 264.596456 
L 298.356315 263.886259 
L 298.640024 266.980691 
L 298.923734 264.241358 
L 299.207444 251.914359 
L 299.774863 238.471335 
L 300.058572 234.768162 
L 300.342282 233.652138 
L 300.625991 234.311607 
L 300.909701 235.681273 
L 301.47712 239.435174 
L 301.76083 240.601927 
L 302.328249 243.544174 
L 302.611959 244.3051 
L 303.463087 249.124297 
L 303.746797 244.406557 
L 304.314216 231.166446 
L 304.597926 226.245792 
L 304.881635 224.470299 
L 305.165345 225.839965 
L 305.449054 230.202607 
L 305.732764 231.217175 
L 306.016473 232.789755 
L 306.867602 239.506194 
L 308.28615 247.602445 
L 308.56986 247.500988 
L 308.853569 249.428667 
L 309.137279 249.428667 
L 309.704698 251.254889 
L 309.988408 251.153433 
L 310.839536 254.197136 
L 311.123246 256.175543 
L 311.406955 255.617531 
L 311.974375 256.733556 
L 312.258084 257.291568 
L 312.541794 256.682827 
L 312.825503 256.733556 
L 313.109213 257.54521 
L 313.392923 257.139383 
L 313.676632 255.97263 
L 313.960342 257.190111 
L 314.244051 257.595938 
L 314.527761 259.219247 
L 314.81147 258.81342 
L 315.09518 259.016333 
L 315.37889 259.777259 
L 315.662599 259.219247 
L 315.946309 259.878716 
L 316.513728 259.980173 
L 316.797437 260.893284 
L 317.081147 260.893284 
L 317.364857 260.69037 
L 317.648566 261.755667 
L 317.932276 261.603481 
L 318.215985 261.704938 
L 318.499695 262.33397 
L 318.783405 262.009308 
L 319.067114 261.502025 
L 319.350824 261.907852 
L 319.634533 261.552753 
L 320.201952 259.980173 
L 320.485662 260.436728 
L 320.769372 259.472889 
L 321.053081 260.132358 
L 321.336791 259.929444 
L 321.90421 261.096197 
L 322.187919 261.248383 
L 322.471629 262.465864 
L 322.755339 261.65421 
L 323.039048 261.248383 
L 323.606467 263.429703 
L 324.173887 263.368829 
L 324.457596 264.139901 
L 324.741306 264.545728 
L 325.025015 266.118308 
L 325.308725 264.241358 
L 325.592434 265.255926 
L 325.876144 264.495 
L 326.159854 262.973148 
L 326.727273 261.552753 
L 327.010982 261.907852 
L 327.294692 263.835531 
L 327.578401 263.683345 
L 327.862111 263.683345 
L 328.145821 263.936987 
L 328.42953 263.987716 
L 328.71324 264.190629 
L 329.280659 263.683345 
L 329.564369 263.277518 
L 329.848078 261.755667 
L 330.131788 261.704938 
L 330.415497 262.820963 
L 330.699207 263.480432 
L 330.982916 263.794948 
L 331.550336 267.132876 
L 331.834045 267.64016 
L 332.117755 265.915395 
L 332.401464 266.879234 
L 332.685174 269.314197 
L 333.252593 266.016851 
L 333.536303 266.06758 
L 333.820012 264.900827 
L 334.103722 265.154469 
L 334.387431 264.292086 
L 335.805979 263.987716 
L 336.089689 263.125333 
L 336.373398 262.719506 
L 336.657108 262.942711 
L 336.940818 261.857123 
L 337.508237 263.176062 
L 337.791946 263.125333 
L 338.075656 263.683345 
L 338.359365 263.581889 
L 338.643075 263.125333 
L 339.777913 263.784802 
L 340.061623 262.719506 
L 343.466138 202.35272 
L 345.168395 232.231743 
L 346.303234 241.46431 
L 346.586943 245.268939 
L 346.870653 244.051458 
L 347.154362 245.218211 
L 347.438072 245.776223 
L 348.289201 248.941675 
L 348.57291 249.682309 
L 348.85662 249.733038 
L 349.140329 250.240322 
L 349.424039 251.254889 
L 349.991458 252.015815 
L 350.275168 251.660717 
L 350.558877 252.117272 
L 350.842587 253.689852 
L 351.126297 253.689852 
L 351.693716 256.632099 
L 351.977425 256.429185 
L 352.261135 256.987198 
L 352.544844 256.885741 
L 352.828554 259.067062 
L 353.112264 263.378975 
L 353.395973 263.936987 
L 353.679683 259.929444 
L 353.963392 258.803274 
L 354.247102 258.711963 
L 354.530811 258.153951 
L 354.814521 257.84958 
L 355.098231 258.458321 
L 355.38194 258.204679 
L 355.66565 258.103222 
L 355.949359 258.762691 
L 356.233069 259.067062 
L 356.516779 259.067062 
L 356.800488 258.610506 
L 357.084198 257.54521 
L 357.367907 258.458321 
L 357.935326 258.153951 
L 358.219036 259.574346 
L 358.502746 261.755667 
L 359.070165 261.65421 
L 359.353874 262.060037 
L 359.637584 262.942711 
L 359.921293 266.727049 
L 360.205003 268.553271 
L 360.488713 264.951555 
L 360.772422 263.277518 
L 361.056132 262.465864 
L 361.623551 261.95858 
L 361.907261 262.161494 
L 362.19097 262.060037 
L 362.47468 261.603481 
L 362.758389 261.95858 
L 363.325808 261.95858 
L 363.609518 262.26295 
L 363.893228 261.045469 
L 364.176937 259.168519 
L 365.595485 264.241358 
L 365.879195 264.342815 
L 366.162904 263.023876 
L 366.730323 264.393543 
L 367.014033 265.611024 
L 367.581452 263.784802 
L 368.148871 263.581889 
L 368.71629 263.176062 
L 369.28371 263.277518 
L 369.567419 263.328247 
L 369.851129 263.734074 
L 370.134838 263.734074 
L 370.418548 263.378975 
L 370.702257 261.603481 
L 370.985967 261.542607 
L 371.269677 262.060037 
L 371.553386 262.313679 
L 371.837096 263.277518 
L 372.120805 264.900827 
L 372.404515 265.408111 
L 372.688225 265.509568 
L 372.971934 264.647185 
L 373.255644 264.748642 
L 373.539353 265.10374 
L 373.823063 266.574864 
L 374.106772 265.712481 
L 374.390482 264.444271 
L 374.674192 264.089173 
L 374.957901 263.936987 
L 375.241611 263.53116 
L 375.52532 263.480432 
L 375.80903 263.734074 
L 376.092739 263.632617 
L 376.376449 263.176062 
L 376.660159 263.247081 
L 377.794997 262.212222 
L 378.078707 262.719506 
L 378.362416 261.755667 
L 378.646126 264.089173 
L 378.929835 264.951555 
L 379.213545 266.422679 
L 379.497254 265.915395 
L 379.780964 265.10374 
L 380.064674 264.748642 
L 380.348383 264.190629 
L 380.632093 265.205197 
L 380.915802 264.647185 
L 381.199512 264.342815 
L 381.483221 263.074605 
L 381.766931 264.545728 
L 382.050641 264.697913 
L 382.33435 264.393543 
L 382.61806 263.734074 
L 383.185479 264.596456 
L 383.752898 264.444271 
L 384.036608 264.596456 
L 384.320317 264.342815 
L 384.604027 263.835531 
L 384.887736 264.647185 
L 385.171446 264.545728 
L 385.455156 265.306654 
L 385.738865 266.828506 
L 386.022575 266.574864 
L 386.306284 267.741617 
L 386.589994 266.777777 
L 387.157413 269.415654 
L 387.441123 271.799888 
L 387.724832 267.082148 
L 388.008542 265.306654 
L 388.292251 265.073303 
L 388.859671 265.915395 
L 389.14338 264.951555 
L 389.42709 265.053012 
L 389.994509 265.966123 
L 390.561928 265.205197 
L 390.845638 265.357382 
L 391.129347 264.697913 
L 391.413057 263.734074 
L 391.696766 263.53116 
L 392.264185 264.647185 
L 392.831605 266.321222 
L 393.115314 266.06758 
L 393.399024 265.661753 
L 393.682733 265.763209 
L 394.533862 265.10374 
L 395.101281 265.154469 
L 395.384991 264.79937 
L 395.6687 264.139901 
L 395.95241 264.900827 
L 396.23612 264.748642 
L 396.519829 264.900827 
L 396.803539 264.596456 
L 397.087248 265.255926 
L 397.654667 264.545728 
L 397.938377 264.545728 
L 398.222087 263.480432 
L 398.789506 265.306654 
L 399.073215 265.154469 
L 399.356925 265.408111 
L 399.924344 269.466382 
L 400.208054 267.94453 
L 400.491763 268.350357 
L 400.775473 269.51711 
L 401.626602 266.06758 
L 401.910311 266.118308 
L 402.194021 266.016851 
L 402.47773 265.357382 
L 402.76144 265.357382 
L 403.045149 265.002284 
L 403.328859 264.951555 
L 403.896278 265.458839 
L 404.179988 265.458839 
L 404.463697 265.053012 
L 404.747407 264.444271 
L 405.031117 263.378975 
L 405.314826 263.855822 
L 405.598536 263.936987 
L 406.165955 266.676321 
L 406.449664 269.21274 
L 406.733374 269.263469 
L 407.017084 267.893802 
L 407.300793 268.705456 
L 407.584503 270.227308 
L 407.868212 269.618567 
L 408.151922 267.285061 
L 408.719341 265.661753 
L 409.28676 265.154469 
L 409.57047 265.154469 
L 410.421599 264.342815 
L 410.705308 264.190629 
L 410.989018 264.768933 
L 411.272727 264.900827 
L 411.840146 263.734074 
L 412.123856 263.987716 
L 412.974985 267.538703 
L 413.258694 271.343333 
L 413.542404 270.886777 
L 413.826113 269.770752 
L 414.109823 269.162012 
L 414.393533 271.546246 
L 415.244661 267.33579 
L 415.528371 266.625592 
L 415.812081 265.306654 
L 416.09579 266.37195 
L 416.3795 265.509568 
L 416.663209 267.843074 
L 416.946919 267.447392 
L 417.230628 265.813938 
L 417.514338 265.661753 
L 417.798048 265.915395 
L 418.081757 267.132876 
L 418.649176 263.176062 
L 418.932886 263.378975 
L 419.500305 266.321222 
L 419.784015 267.995259 
L 420.351434 276.872727 
L 420.635143 270.17658 
L 420.918853 269.263469 
L 421.202563 271.952073 
L 421.486272 271.444789 
L 421.769982 271.546246 
L 422.053691 269.567839 
L 422.337401 266.574864 
L 422.90482 265.712481 
L 423.18853 265.661753 
L 423.472239 268.096716 
L 423.755949 265.255926 
L 424.039658 264.139901 
L 424.323368 264.951555 
L 424.607077 267.132876 
L 425.458206 262.719506 
L 425.741916 262.770234 
L 426.025625 264.139901 
L 426.309335 264.647185 
L 426.593045 266.37195 
L 426.876754 271.089691 
L 427.160464 271.495518 
L 427.444173 268.959098 
L 428.011592 270.633135 
L 428.579012 266.321222 
L 429.146431 264.951555 
L 429.43014 264.697913 
L 429.71385 265.306654 
L 429.997559 265.357382 
L 430.281269 264.900827 
L 430.848688 265.10374 
L 431.416107 263.683345 
L 431.699817 263.632617 
L 431.983527 264.038444 
L 432.267236 263.480432 
L 432.550946 263.835531 
L 432.834655 264.951555 
L 433.118365 265.509568 
L 433.402074 265.509568 
L 433.685784 266.016851 
L 433.969494 266.047288 
L 434.253203 265.915395 
L 434.536913 266.06758 
L 434.820622 265.763209 
L 435.671751 264.089173 
L 436.23917 264.596456 
L 436.52288 264.139901 
L 436.806589 264.038444 
L 437.090299 264.089173 
L 437.374009 263.936987 
L 437.657718 264.292086 
L 438.508847 263.886259 
L 438.792556 263.886259 
L 439.076266 264.342815 
L 439.359976 264.545728 
L 439.643685 265.073303 
L 439.927395 265.357382 
L 440.211104 263.987716 
L 440.494814 263.886259 
L 440.778523 264.089173 
L 441.062233 263.835531 
L 441.345943 264.139901 
L 441.629652 264.697913 
L 442.197071 263.429703 
L 442.480781 263.53116 
L 442.764491 263.429703 
L 443.0482 263.125333 
L 444.183038 263.023876 
L 444.466748 262.618049 
L 445.034167 262.26295 
L 445.601586 262.668778 
L 446.169005 263.53116 
L 446.452715 263.632617 
L 446.736425 264.089173 
L 447.020134 263.987716 
L 447.303844 263.734074 
L 447.871263 263.632617 
L 448.722392 262.415136 
L 449.289811 259.574346 
L 449.57352 254.856605 
L 449.85723 240.094643 
L 450.424649 190.380819 
L 450.992068 162.683117 
L 451.275778 156.29134 
L 451.559487 145.587649 
L 451.843197 147.515328 
L 452.410616 166.995031 
L 453.261745 200.678683 
L 453.829164 214.32462 
L 454.396583 223.303546 
L 454.680293 225.535595 
L 455.247712 231.217175 
L 456.38255 238.471335 
L 456.949969 241.08892 
L 457.233679 242.377421 
L 457.517389 243.03689 
L 457.801098 244.406557 
L 459.503356 249.124297 
L 460.070775 249.98668 
L 460.638194 252.82747 
L 461.205613 253.588395 
L 461.489323 253.689852 
L 461.773032 254.958062 
L 462.056742 254.856605 
L 462.340451 253.994223 
L 462.624161 253.568104 
L 462.907871 254.298593 
L 463.19158 255.66826 
L 463.47529 255.211704 
L 463.758999 255.516074 
L 464.042709 255.465346 
L 464.610128 255.871173 
L 464.893838 255.566803 
L 465.177547 255.921901 
L 465.744966 255.820445 
L 466.028676 256.581371 
L 466.312386 256.632099 
L 466.596095 256.429185 
L 466.879805 254.958062 
L 467.447224 259.422161 
L 467.730933 262.770234 
L 468.014643 262.618049 
L 468.298353 260.568622 
L 468.582062 261.299111 
L 468.865772 264.495 
L 469.149481 263.277518 
L 469.433191 259.827988 
L 469.716901 260.284543 
L 470.00061 259.726531 
L 470.28432 259.574346 
L 470.568029 259.878716 
L 470.851739 259.980173 
L 471.135448 260.335272 
L 471.702868 259.929444 
L 472.270287 260.030901 
L 472.553996 260.386 
L 472.837706 259.827988 
L 473.121415 257.748124 
L 473.405125 258.610506 
L 473.688835 258.914877 
L 474.256254 262.770234 
L 474.539963 266.727049 
L 474.823673 268.806913 
L 475.107383 264.79937 
L 475.391092 264.900827 
L 475.674802 268.096716 
L 476.242221 263.22679 
L 476.52593 261.95858 
L 476.80964 261.603481 
L 477.09335 261.755667 
L 477.377059 261.704938 
L 477.660769 261.907852 
L 477.944478 262.465864 
L 478.228188 262.009308 
L 478.511897 261.95858 
L 478.795607 262.212222 
L 479.079317 262.110765 
L 479.363026 262.212222 
L 479.646736 261.116489 
L 479.930445 260.639642 
L 480.214155 259.929444 
L 480.781574 260.741099 
L 481.348993 265.864666 
L 481.632703 266.879234 
L 481.916412 265.966123 
L 482.200122 266.422679 
L 482.483832 269.973666 
L 483.051251 263.936987 
L 483.902379 262.770234 
L 484.469799 263.074605 
L 484.753508 262.820963 
L 485.037218 262.770234 
L 485.320927 263.480432 
L 485.604637 263.612326 
L 486.172056 263.53116 
L 486.739475 261.096197 
L 487.306894 261.502025 
L 487.590604 262.212222 
L 488.158023 267.64016 
L 488.441733 270.531678 
L 488.725442 267.487975 
L 489.009152 268.045987 
L 489.292862 270.734592 
L 489.576571 267.132876 
L 489.860281 265.154469 
L 490.711409 262.668778 
L 490.995119 262.820963 
L 491.278829 263.612326 
L 492.981086 263.328247 
L 493.264796 263.023876 
L 493.548505 262.161494 
L 494.399634 263.987716 
L 494.683344 264.089173 
L 494.967053 267.843074 
L 495.534472 264.748642 
L 495.818182 266.473407 
L 496.101891 269.922938 
L 496.385601 266.777777 
L 496.669311 264.900827 
L 496.95302 263.784802 
L 497.804149 263.429703 
L 498.087858 263.6732 
L 498.371568 264.139901 
L 498.655278 263.784802 
L 498.938987 263.734074 
L 499.222697 263.023876 
L 499.506406 264.190629 
L 499.790116 263.429703 
L 500.073826 263.784802 
L 500.357535 263.125333 
L 500.641245 263.734074 
L 500.924954 263.53116 
L 501.208664 263.734074 
L 501.492373 263.074605 
L 501.776083 256.987198 
L 502.059793 246.740063 
L 502.910921 151.117044 
L 503.194631 145.334008 
L 503.47834 149.240094 
L 505.748017 210.976546 
L 506.315436 220.665669 
L 506.882855 226.702348 
L 507.733984 233.347767 
L 508.301403 238.522063 
L 508.585113 240.601927 
L 508.868822 241.312125 
L 509.152532 241.717952 
L 510.003661 245.776223 
L 510.28737 245.167482 
L 510.57108 244.863112 
L 511.138499 245.725495 
L 511.422209 245.218211 
L 511.705918 141.630835 
L 511.989628 247.196618 
L 512.273337 247.399532 
L 512.840757 247.196618 
L 513.408176 248.160458 
L 513.691885 248.617013 
L 513.975595 143.609242 
L 514.259304 249.327211 
L 514.543014 250.443235 
L 515.110433 253.628978 
L 515.961562 254.653692 
L 516.245272 254.095679 
L 524.472849 259.777259 
L 524.756559 259.726531 
L 525.040268 259.878716 
L 525.323978 259.371432 
L 525.607688 259.472889 
L 525.891397 259.219247 
L 526.175107 259.625074 
L 526.742526 259.219247 
L 527.026236 258.81342 
L 527.309945 259.574346 
L 527.593655 259.219247 
L 528.161074 260.994741 
L 528.444783 261.197654 
L 529.012203 262.364407 
L 529.295912 260.944012 
L 529.579622 261.146926 
L 529.863331 260.538185 
L 530.147041 262.009308 
L 530.43075 260.791827 
L 530.71446 260.538185 
L 530.99817 260.791827 
L 531.281879 260.507748 
L 532.133008 260.08163 
L 532.416718 260.335272 
L 532.700427 261.096197 
L 533.551556 260.538185 
L 534.402685 260.741099 
L 534.970104 261.502025 
L 535.537523 261.907852 
L 535.821232 261.857123 
L 536.388652 262.364407 
L 536.672361 261.755667 
L 536.956071 261.603481 
L 537.23978 261.146926 
L 537.52349 260.994741 
L 538.090909 261.146926 
L 538.374619 261.400568 
L 538.658328 261.451296 
L 538.942038 261.248383 
L 539.225747 261.502025 
L 539.509457 261.603481 
L 539.793167 261.248383 
L 540.076876 261.197654 
L 540.360586 261.349839 
L 540.644295 261.045469 
L 540.928005 261.299111 
L 541.211714 261.299111 
L 541.779134 261.806395 
L 542.062843 261.755667 
L 542.346553 263.480432 
L 542.630262 262.699215 
L 542.913972 262.26295 
L 543.197682 262.465864 
L 543.481391 263.632617 
L 543.765101 267.843074 
L 544.04881 264.190629 
L 544.33252 262.009308 
L 544.899939 262.770234 
L 545.183649 262.516592 
L 545.467358 261.502025 
L 545.751068 261.907852 
L 546.034777 261.755667 
L 546.602196 262.009308 
L 546.885906 262.212222 
L 547.453325 260.893284 
L 547.737035 261.451296 
L 548.304454 262.090474 
L 549.155583 263.734074 
L 549.723002 264.393543 
L 550.290421 264.342815 
L 550.574131 264.139901 
L 550.85784 265.053012 
L 551.425259 262.110765 
L 551.708969 262.313679 
L 551.992678 262.668778 
L 552.276388 261.65421 
L 552.560098 261.451296 
L 552.843807 261.704938 
L 553.127517 262.110765 
L 553.411226 262.26295 
L 553.694936 261.907852 
L 553.978646 262.33397 
L 554.262355 262.465864 
L 554.546065 261.704938 
L 554.829774 261.95858 
L 555.397193 263.176062 
L 555.964613 263.480432 
L 556.248322 263.429703 
L 556.532032 263.784802 
L 556.815741 263.683345 
L 557.099451 263.125333 
L 557.38316 263.683345 
L 557.66687 263.277518 
L 557.95058 262.567321 
L 558.517999 262.364407 
L 559.085418 261.299111 
L 559.652837 260.933867 
L 559.936547 260.08163 
L 560.503966 256.479914 
L 561.355095 244.964569 
L 561.922514 239.333717 
L 562.206223 237.710409 
L 562.489933 237.558224 
L 562.773642 238.31915 
L 563.057352 238.217693 
L 563.341062 237.000211 
L 564.4759 222.441163 
L 564.75961 222.288978 
L 567.029286 240.551199 
L 567.596705 244.000729 
L 568.164124 245.979137 
L 568.447834 246.435692 
L 568.731544 247.298075 
L 569.298963 251.051976 
L 569.582672 251.812902 
L 569.866382 252.218729 
L 570.150092 252.421642 
L 570.433801 253.334754 
L 570.717511 253.537667 
L 571.568639 255.059519 
L 572.136059 254.70442 
L 572.419768 255.363889 
L 572.703478 255.160976 
L 572.987187 255.465346 
L 573.270897 256.226272 
L 573.554606 255.921901 
L 573.838316 256.682827 
L 574.122026 256.581371 
L 574.405735 257.190111 
L 574.689445 257.342296 
L 574.973154 257.190111 
L 575.256864 257.54521 
L 575.540574 257.697395 
L 575.824283 259.422161 
L 576.107993 258.762691 
L 576.675412 261.248383 
L 576.959121 261.177363 
L 577.242831 260.386 
L 578.09396 259.574346 
L 578.661379 259.675802 
L 579.228798 259.472889 
L 579.796217 259.929444 
L 580.079927 259.929444 
L 580.647346 260.284543 
L 580.931056 260.030901 
L 581.214765 260.487457 
L 581.498475 260.233815 
L 581.782184 260.284543 
L 582.065894 260.538185 
L 582.633313 261.481733 
L 583.200732 261.248383 
L 583.484442 261.451296 
L 583.768151 261.451296 
L 584.051861 261.95858 
L 584.33557 261.95858 
L 584.61928 264.139901 
L 584.90299 262.668778 
L 585.470409 261.907852 
L 585.754118 263.328247 
L 586.321538 262.465864 
L 587.172666 261.907852 
L 587.456376 261.299111 
L 587.740085 261.248383 
L 588.023795 262.465864 
L 588.307505 262.638341 
L 588.591214 262.313679 
L 588.874924 261.755667 
L 589.442343 260.335272 
L 589.726052 261.096197 
L 590.293472 263.53116 
L 590.577181 263.125333 
L 590.860891 263.176062 
L 591.1446 263.074605 
L 591.42831 263.886259 
L 591.71202 264.038444 
L 591.995729 261.603481 
L 592.279439 261.603481 
L 592.563148 261.907852 
L 593.130567 264.342815 
L 593.697987 262.92242 
L 593.981696 262.760089 
L 594.265406 263.125333 
L 594.549115 262.871691 
L 594.832825 262.92242 
L 595.116534 261.95858 
L 595.400244 261.907852 
L 595.683954 261.349839 
L 596.251373 262.313679 
L 596.535082 262.415136 
L 597.386211 260.436728 
L 597.669921 258.001766 
L 597.95363 254.298593 
L 599.372178 217.875608 
L 599.655888 215.28846 
L 599.939597 214.91307 
L 600.223307 215.28846 
L 600.507016 216.404484 
L 600.790726 218.484348 
L 602.209274 232.586841 
L 603.627822 241.261396 
L 604.195241 243.03689 
L 604.478951 242.681791 
L 605.04637 238.572792 
L 605.330079 234.971076 
L 605.897498 231.67373 
L 606.181208 231.927372 
L 606.464918 231.420088 
L 606.748627 233.043397 
L 607.032337 233.956508 
L 607.883466 238.775705 
L 608.450885 241.362853 
L 608.734594 242.833976 
L 609.302013 243.950001 
L 609.869433 246.283507 
L 610.153142 246.841519 
L 610.720561 248.312643 
L 611.28798 249.124297 
L 611.57169 248.972112 
L 612.139109 246.638606 
L 612.422819 246.080593 
L 613.273948 243.493446 
L 613.557657 243.239804 
L 614.125076 243.442717 
L 614.692495 244.91384 
L 615.259915 245.776223 
L 615.543624 246.435692 
L 615.827334 246.486421 
L 616.111043 247.14589 
L 616.678462 249.631581 
L 616.962172 124.697698 
L 617.245882 251.001247 
L 617.529591 252.776741 
L 617.813301 253.284025 
L 618.09701 251.812902 
L 618.66443 254.653692 
L 618.948139 254.805877 
L 619.231849 254.298593 
L 619.515558 254.095679 
L 619.799268 254.450778 
L 620.366687 254.653692 
L 620.650397 254.095679 
L 620.934106 254.501507 
L 621.217816 255.617531 
L 621.501525 255.617531 
L 621.785235 255.414618 
L 622.352654 256.074087 
L 622.636364 255.896537 
L 622.636364 255.896537 
" clip-path="url(#p907548145e)" style="fill: none; stroke: #1f77b4; stroke-width: 1.5; stroke-linecap: square"/>
   </g>
   <g id="line2d_15">
    <path d="M 115.363636 257.126523 
L 115.931056 257.287889 
L 116.214765 259.371432 
L 119.61928 260.103036 
L 119.90299 259.719109 
L 120.470409 258.105835 
L 120.754118 257.744708 
L 121.321538 257.788607 
L 122.740085 258.151204 
L 123.023795 261.045469 
L 128.414277 261.907608 
L 128.697987 260.155097 
L 129.549115 250.875975 
L 129.832825 196.650849 
L 132.102502 208.133935 
L 132.95363 211.715328 
L 133.23734 212.376711 
L 133.521049 212.521156 
L 133.804759 212.808043 
L 134.372178 214.146941 
L 135.223307 216.599369 
L 136.358145 220.141909 
L 136.641855 253.842037 
L 140.613789 255.362679 
L 143.167175 256.221603 
L 143.450885 259.067062 
L 145.720561 260.725717 
L 147.990238 262.115163 
L 148.557657 262.467426 
L 148.841367 262.053974 
L 149.125076 259.818025 
L 149.408786 256.535051 
L 149.692495 251.605127 
L 150.259915 238.572792 
L 150.543624 236.349249 
L 150.827334 227.513394 
L 151.394753 194.989211 
L 151.678462 187.709214 
L 151.962172 187.258549 
L 152.529591 189.805403 
L 154.231849 198.653531 
L 154.515558 199.056333 
L 154.799268 199.236443 
L 155.082977 198.804498 
L 155.934106 196.708702 
L 156.217816 196.613024 
L 156.501525 197.482128 
L 156.785235 198.936854 
L 157.068944 235.173989 
L 159.054912 238.023101 
L 161.324588 240.871112 
L 163.594265 243.359511 
L 163.877974 253.385482 
L 165.863941 255.678495 
L 167.849908 257.65631 
L 168.133618 257.419522 
L 168.417328 253.363716 
L 168.984747 236.943167 
L 169.268456 233.340823 
L 169.552166 232.850935 
L 169.835876 233.17234 
L 170.403295 234.485625 
L 170.687004 203.62093 
L 172.389262 211.875842 
L 174.091519 219.091102 
L 175.793777 225.397592 
L 177.212325 230.041824 
L 177.496034 251.051976 
L 179.482001 253.68415 
L 181.467968 255.933755 
L 183.453935 257.856395 
L 184.021354 258.352498 
L 184.305064 256.277 
L 186.291031 258.149752 
L 188.560708 259.959125 
L 190.830384 261.471209 
L 191.114094 257.900309 
L 193.100061 259.537123 
L 195.369738 261.118544 
L 197.639414 262.440129 
L 197.923124 260.69037 
L 200.1928 262.082307 
L 202.746187 263.376807 
L 204.448444 264.105461 
L 204.732154 263.074605 
L 207.28554 264.187667 
L 210.122636 265.187392 
L 212.108603 265.78287 
L 212.392312 265.774045 
L 212.676022 265.441978 
L 212.959732 254.335943 
L 213.527151 211.703534 
L 213.81086 205.539391 
L 214.378279 207.717753 
L 216.080537 215.466868 
L 216.931666 218.682826 
L 217.215375 216.385911 
L 217.782794 206.835076 
L 218.066504 206.324658 
L 220.9036 218.84395 
L 222.605857 225.181568 
L 224.308115 230.720957 
L 226.010372 235.562652 
L 227.71263 239.794531 
L 229.414887 243.493399 
L 231.117145 246.726391 
L 233.103112 249.987261 
L 235.089079 252.774184 
L 237.075046 255.156047 
L 238.493594 256.642345 
L 238.777303 256.074087 
L 240.76327 257.97633 
L 243.032947 259.814198 
L 245.302624 261.350094 
L 245.586333 261.146926 
L 247.85601 262.463848 
L 250.693106 263.834945 
L 250.976815 263.741842 
L 251.260525 263.394532 
L 251.544234 260.466425 
L 252.111653 247.765683 
L 252.395363 254.501507 
L 252.962782 255.047579 
L 254.948749 257.097998 
L 256.934716 258.851423 
L 258.920683 260.349999 
L 259.204393 256.936469 
L 263.460037 258.462928 
L 267.99939 259.847894 
L 273.106162 261.162946 
L 278.780354 262.381405 
L 285.021965 263.48666 
L 287.575351 263.879889 
L 287.85906 261.552753 
L 292.965833 262.262578 
L 293.249542 262.618049 
L 297.788896 263.234778 
L 298.072605 262.264309 
L 298.923734 253.593278 
L 299.207444 252.592639 
L 299.491153 252.37837 
L 300.058572 252.563934 
L 304.030506 254.277761 
L 308.002441 255.734263 
L 312.541794 257.14866 
L 317.648566 258.489279 
L 323.322758 259.736617 
L 329.564369 260.880716 
L 336.940818 261.996794 
L 340.061623 262.407043 
L 343.466138 197.503086 
L 343.749847 196.62577 
L 344.033557 197.221352 
L 345.168395 202.514902 
L 346.586943 208.545542 
L 348.005491 213.683364 
L 349.707749 218.936141 
L 350.842587 221.994588 
L 351.126297 251.55926 
L 353.112264 254.117704 
L 355.098231 256.304295 
L 356.516779 257.668742 
L 356.800488 258.864148 
L 359.070165 260.556143 
L 361.339841 261.970134 
L 363.325808 263.015426 
L 363.609518 262.009308 
L 366.162904 263.317157 
L 369 264.491836 
L 370.134838 264.892708 
L 370.418548 263.734074 
L 373.255644 264.824962 
L 376.376449 265.773494 
L 376.943868 265.922186 
L 377.227578 263.429703 
L 378.646126 263.943289 
L 378.929835 263.562063 
L 379.213545 262.317839 
L 379.780964 258.636548 
L 380.348383 257.2635 
L 381.199512 251.861188 
L 381.483221 251.286278 
L 381.766931 251.259956 
L 382.33435 251.920774 
L 383.752898 253.748727 
L 384.036608 264.393543 
L 386.873703 265.351894 
L 390.278218 266.251229 
L 390.561928 266.315809 
L 390.845638 265.10374 
L 394.250153 266.003059 
L 395.6687 266.337664 
L 395.95241 266.170531 
L 396.519829 265.121748 
L 396.803539 265.006199 
L 397.370958 265.187118 
L 397.654667 264.951555 
L 401.059182 265.885057 
L 404.179988 266.55551 
L 404.463697 265.027648 
L 407.868212 265.944073 
L 411.556437 266.706315 
L 412.123856 266.806053 
L 412.407566 264.768933 
L 415.528371 265.671332 
L 418.081757 266.268297 
L 418.365467 267.843074 
L 424.323368 268.298371 
L 431.416107 268.632537 
L 431.699817 264.850098 
L 434.253203 265.060024 
L 434.820622 264.636225 
L 435.955461 263.171959 
L 436.52288 263.159376 
L 438.225137 263.412874 
L 438.508847 263.962352 
L 439.927395 264.059971 
L 440.211104 263.585773 
L 440.778523 262.295803 
L 441.345943 261.459333 
L 441.629652 261.221198 
L 442.197071 261.188408 
L 444.466748 261.575316 
L 444.750458 261.099469 
L 445.885296 257.000056 
L 446.169005 256.91888 
L 446.452715 256.990403 
L 446.736425 262.455718 
L 447.871263 262.607465 
L 448.154973 263.734074 
L 449.006101 263.856287 
L 449.289811 263.770747 
L 449.57352 262.738548 
L 450.14094 259.23231 
L 450.992068 257.659567 
L 451.275778 255.190459 
L 451.843197 246.823418 
L 452.126907 162.683117 
L 452.410616 163.696144 
L 452.978035 167.295563 
L 454.964002 183.670511 
L 456.38255 193.365061 
L 457.801098 201.306629 
L 459.219646 207.919084 
L 460.638194 213.507968 
L 462.056742 218.291847 
L 463.758999 223.192886 
L 465.461257 227.367319 
L 465.744966 255.617531 
L 469.433191 257.092814 
L 472.270287 258.086613 
L 472.553996 259.929444 
L 477.660769 261.15583 
L 479.079317 261.459996 
L 479.363026 261.968726 
L 481.916412 263.208237 
L 484.753508 264.334879 
L 485.888347 264.722834 
L 486.172056 263.480432 
L 489.009152 264.555123 
L 492.129957 265.501955 
L 492.697376 265.651639 
L 492.981086 263.277518 
L 495.818182 264.390937 
L 498.938987 265.371899 
L 499.506406 265.527114 
L 499.790116 263.22679 
L 500.924954 263.380058 
L 501.208664 263.258647 
L 501.776083 262.738005 
L 502.059793 262.649469 
L 502.343502 262.166689 
L 502.627212 260.223205 
L 503.194631 253.347973 
L 504.329469 244.196457 
L 504.613179 241.454253 
L 504.896888 240.311772 
L 505.180598 240.034258 
L 505.464308 240.114914 
L 506.031727 240.655521 
L 506.315436 240.98355 
L 506.599146 215.491373 
L 508.017694 220.003001 
L 509.719951 224.644568 
L 511.422209 228.613609 
L 513.124466 232.044313 
L 513.408176 120.740883 
L 514.543014 141.148921 
L 515.677852 156.960476 
L 516.245272 163.405651 
L 524.472849 214.502744 
L 525.891397 219.149192 
L 527.593655 223.919455 
L 529.295912 227.990524 
L 530.99817 231.503475 
L 532.700427 234.563834 
L 533.551556 235.95022 
L 533.835265 259.777259 
L 536.104942 261.231776 
L 537.23978 261.77579 
L 538.090909 261.208007 
L 539.225747 261.811848 
L 540.360586 262.4047 
L 540.644295 261.299111 
L 543.197682 262.654826 
L 546.034777 263.887783 
L 546.885906 264.112518 
L 547.169616 263.855123 
L 547.453325 261.603481 
L 550.006711 262.906401 
L 551.425259 263.482299 
L 551.708969 263.401526 
L 551.992678 263.125879 
L 552.843807 261.566214 
L 553.411226 259.795576 
L 553.694936 258.965817 
L 553.978646 258.704853 
L 554.262355 261.755667 
L 555.680903 262.395028 
L 555.964613 262.117202 
L 556.248322 261.068535 
L 556.815741 258.402018 
L 557.099451 258.23806 
L 558.234289 259.183011 
L 558.517999 259.013811 
L 558.801708 258.455379 
L 559.085418 256.548111 
L 559.936547 244.215176 
L 560.220256 243.81116 
L 560.787675 244.735478 
L 561.071385 260.933867 
L 561.638804 256.928606 
L 561.922514 252.850546 
L 563.057352 223.466533 
L 563.624771 216.194416 
L 564.4759 199.042772 
L 564.75961 196.677651 
L 565.043319 196.695644 
L 565.894448 200.909968 
L 567.596705 209.049012 
L 567.880415 237.558224 
L 569.866382 241.905647 
L 571.568639 245.15815 
L 571.852349 245.570945 
L 572.136059 245.550442 
L 572.987187 243.849457 
L 573.270897 243.957299 
L 574.122026 245.421041 
L 574.405735 245.917991 
L 574.689445 255.363889 
L 575.540574 256.082522 
L 576.391702 255.488834 
L 577.242831 256.260874 
L 579.228798 258.03166 
L 582.349603 260.447054 
L 584.90299 261.950634 
L 587.456376 263.193285 
L 588.023795 263.438714 
L 588.307505 261.983944 
L 590.860891 263.220815 
L 593.697987 264.345009 
L 594.832825 264.723232 
L 595.116534 262.760089 
L 595.400244 262.631485 
L 595.683954 261.808032 
L 595.967663 260.013421 
L 596.818792 252.707005 
L 597.102502 251.377843 
L 597.386211 250.707858 
L 597.669921 250.545806 
L 597.95363 250.658864 
L 598.23734 249.262476 
L 598.804759 238.525354 
L 599.088469 233.647949 
L 599.372178 231.391446 
L 599.655888 231.01339 
L 600.223307 232.38552 
L 601.641855 236.072511 
L 601.925564 220.209114 
L 602.492984 222.035312 
L 602.776693 222.091886 
L 603.060403 221.870233 
L 603.627822 221.686765 
L 603.911531 220.365647 
L 604.478951 216.765583 
L 604.76266 217.042024 
L 606.464918 223.246739 
L 608.167175 228.719603 
L 608.450885 229.566025 
L 608.734594 237.862594 
L 610.720561 240.541878 
L 611.004271 240.791361 
L 611.28798 240.684529 
L 611.57169 239.74815 
L 612.139109 233.189233 
L 612.422819 230.142041 
L 612.706528 228.739065 
L 612.990238 228.653894 
L 613.557657 229.609135 
L 615.259915 232.902876 
L 615.543624 244.863112 
L 617.529591 248.204056 
L 619.515558 251.08468 
L 621.501525 253.568408 
L 622.068944 254.212996 
L 622.352654 255.592167 
L 622.636364 255.714956 
L 622.636364 255.714956 
" clip-path="url(#p907548145e)" style="fill: none; stroke: #ff7f0e; stroke-width: 1.5; stroke-linecap: square"/>
   </g>
   <g id="patch_3">
    <path d="M 90 288 
L 90 43.2 
" style="fill: none; stroke: #000000; stroke-width: 0.8; stroke-linejoin: miter; stroke-linecap: square"/>
   </g>
   <g id="patch_4">
    <path d="M 648 288 
L 648 43.2 
" style="fill: none; stroke: #000000; stroke-width: 0.8; stroke-linejoin: miter; stroke-linecap: square"/>
   </g>
   <g id="patch_5">
    <path d="M 90 288 
L 648 288 
" style="fill: none; stroke: #000000; stroke-width: 0.8; stroke-linejoin: miter; stroke-linecap: square"/>
   </g>
   <g id="patch_6">
    <path d="M 90 43.2 
L 648 43.2 
" style="fill: none; stroke: #000000; stroke-width: 0.8; stroke-linejoin: miter; stroke-linecap: square"/>
   </g>
   <g id="text_15">
    <!-- ARB006 -->
    <g transform="translate(345.1575 37.2) scale(0.12 -0.12)">
     <defs>
      <path id="DejaVuSans-41" d="M 2188 4044 
L 1331 1722 
L 3047 1722 
L 2188 4044 
z
M 1831 4666 
L 2547 4666 
L 4325 0 
L 3669 0 
L 3244 1197 
L 1141 1197 
L 716 0 
L 50 0 
L 1831 4666 
z
" transform="scale(0.015625)"/>
      <path id="DejaVuSans-52" d="M 2841 2188 
Q 3044 2119 3236 1894 
Q 3428 1669 3622 1275 
L 4263 0 
L 3584 0 
L 2988 1197 
Q 2756 1666 2539 1819 
Q 2322 1972 1947 1972 
L 1259 1972 
L 1259 0 
L 628 0 
L 628 4666 
L 2053 4666 
Q 2853 4666 3247 4331 
Q 3641 3997 3641 3322 
Q 3641 2881 3436 2590 
Q 3231 2300 2841 2188 
z
M 1259 4147 
L 1259 2491 
L 2053 2491 
Q 2509 2491 2742 2702 
Q 2975 2913 2975 3322 
Q 2975 3731 2742 3939 
Q 2509 4147 2053 4147 
L 1259 4147 
z
" transform="scale(0.015625)"/>
      <path id="DejaVuSans-42" d="M 1259 2228 
L 1259 519 
L 2272 519 
Q 2781 519 3026 730 
Q 3272 941 3272 1375 
Q 3272 1813 3026 2020 
Q 2781 2228 2272 2228 
L 1259 2228 
z
M 1259 4147 
L 1259 2741 
L 2194 2741 
Q 2656 2741 2882 2914 
Q 3109 3088 3109 3444 
Q 3109 3797 2882 3972 
Q 2656 4147 2194 4147 
L 1259 4147 
z
M 628 4666 
L 2241 4666 
Q 2963 4666 3353 4366 
Q 3744 4066 3744 3513 
Q 3744 3084 3544 2831 
Q 3344 2578 2956 2516 
Q 3422 2416 3680 2098 
Q 3938 1781 3938 1306 
Q 3938 681 3513 340 
Q 3088 0 2303 0 
L 628 0 
L 628 4666 
z
" transform="scale(0.015625)"/>
     </defs>
     <use xlink:href="#DejaVuSans-41"/>
     <use xlink:href="#DejaVuSans-52" x="68.408203"/>
     <use xlink:href="#DejaVuSans-42" x="137.890625"/>
     <use xlink:href="#DejaVuSans-30" x="206.494141"/>
     <use xlink:href="#DejaVuSans-30" x="270.117188"/>
     <use xlink:href="#DejaVuSans-36" x="333.740234"/>
    </g>
   </g>
   <g id="legend_1">
    <g id="patch_7">
     <path d="M 559.04375 80.55625 
L 641 80.55625 
Q 643 80.55625 643 78.55625 
L 643 50.2 
Q 643 48.2 641 48.2 
L 559.04375 48.2 
Q 557.04375 48.2 557.04375 50.2 
L 557.04375 78.55625 
Q 557.04375 80.55625 559.04375 80.55625 
z
" style="fill: #ffffff; opacity: 0.8; stroke: #cccccc; stroke-linejoin: miter"/>
    </g>
    <g id="line2d_16">
     <path d="M 561.04375 56.298437 
L 571.04375 56.298437 
L 581.04375 56.298437 
" style="fill: none; stroke: #1f77b4; stroke-width: 1.5; stroke-linecap: square"/>
    </g>
    <g id="text_16">
     <!-- measured -->
     <g transform="translate(589.04375 59.798437) scale(0.1 -0.1)">
      <defs>
       <path id="DejaVuSans-6d" d="M 3328 2828 
Q 3544 3216 3844 3400 
Q 4144 3584 4550 3584 
Q 5097 3584 5394 3201 
Q 5691 2819 5691 2113 
L 5691 0 
L 5113 0 
L 5113 2094 
Q 5113 2597 4934 2840 
Q 4756 3084 4391 3084 
Q 3944 3084 3684 2787 
Q 3425 2491 3425 1978 
L 3425 0 
L 2847 0 
L 2847 2094 
Q 2847 2600 2669 2842 
Q 2491 3084 2119 3084 
Q 1678 3084 1418 2786 
Q 1159 2488 1159 1978 
L 1159 0 
L 581 0 
L 581 3500 
L 1159 3500 
L 1159 2956 
Q 1356 3278 1631 3431 
Q 1906 3584 2284 3584 
Q 2666 3584 2933 3390 
Q 3200 3197 3328 2828 
z
" transform="scale(0.015625)"/>
       <path id="DejaVuSans-61" d="M 2194 1759 
Q 1497 1759 1228 1600 
Q 959 1441 959 1056 
Q 959 750 1161 570 
Q 1363 391 1709 391 
Q 2188 391 2477 730 
Q 2766 1069 2766 1631 
L 2766 1759 
L 2194 1759 
z
M 3341 1997 
L 3341 0 
L 2766 0 
L 2766 531 
Q 2569 213 2275 61 
Q 1981 -91 1556 -91 
Q 1019 -91 701 211 
Q 384 513 384 1019 
Q 384 1609 779 1909 
Q 1175 2209 1959 2209 
L 2766 2209 
L 2766 2266 
Q 2766 2663 2505 2880 
Q 2244 3097 1772 3097 
Q 1472 3097 1187 3025 
Q 903 2953 641 2809 
L 641 3341 
Q 956 3463 1253 3523 
Q 1550 3584 1831 3584 
Q 2591 3584 2966 3190 
Q 3341 2797 3341 1997 
z
" transform="scale(0.015625)"/>
       <path id="DejaVuSans-75" d="M 544 1381 
L 544 3500 
L 1119 3500 
L 1119 1403 
Q 1119 906 1312 657 
Q 1506 409 1894 409 
Q 2359 409 2629 706 
Q 2900 1003 2900 1516 
L 2900 3500 
L 3475 3500 
L 3475 0 
L 2900 0 
L 2900 538 
Q 2691 219 2414 64 
Q 2138 -91 1772 -91 
Q 1169 -91 856 284 
Q 544 659 544 1381 
z
M 1991 3584 
L 1991 3584 
z
" transform="scale(0.015625)"/>
       <path id="DejaVuSans-64" d="M 2906 2969 
L 2906 4863 
L 3481 4863 
L 3481 0 
L 2906 0 
L 2906 525 
Q 2725 213 2448 61 
Q 2172 -91 1784 -91 
Q 1150 -91 751 415 
Q 353 922 353 1747 
Q 353 2572 751 3078 
Q 1150 3584 1784 3584 
Q 2172 3584 2448 3432 
Q 2725 3281 2906 2969 
z
M 947 1747 
Q 947 1113 1208 752 
Q 1469 391 1925 391 
Q 2381 391 2643 752 
Q 2906 1113 2906 1747 
Q 2906 2381 2643 2742 
Q 2381 3103 1925 3103 
Q 1469 3103 1208 2742 
Q 947 2381 947 1747 
z
" transform="scale(0.015625)"/>
      </defs>
      <use xlink:href="#DejaVuSans-6d"/>
      <use xlink:href="#DejaVuSans-65" x="97.412109"/>
      <use xlink:href="#DejaVuSans-61" x="158.935547"/>
      <use xlink:href="#DejaVuSans-73" x="220.214844"/>
      <use xlink:href="#DejaVuSans-75" x="272.314453"/>
      <use xlink:href="#DejaVuSans-72" x="335.693359"/>
      <use xlink:href="#DejaVuSans-65" x="374.556641"/>
      <use xlink:href="#DejaVuSans-64" x="436.080078"/>
     </g>
    </g>
    <g id="line2d_17">
     <path d="M 561.04375 70.976562 
L 571.04375 70.976562 
L 581.04375 70.976562 
" style="fill: none; stroke: #ff7f0e; stroke-width: 1.5; stroke-linecap: square"/>
    </g>
    <g id="text_17">
     <!-- predicted -->
     <g transform="translate(589.04375 74.476562) scale(0.1 -0.1)">
      <defs>
       <path id="DejaVuSans-70" d="M 1159 525 
L 1159 -1331 
L 581 -1331 
L 581 3500 
L 1159 3500 
L 1159 2969 
Q 1341 3281 1617 3432 
Q 1894 3584 2278 3584 
Q 2916 3584 3314 3078 
Q 3713 2572 3713 1747 
Q 3713 922 3314 415 
Q 2916 -91 2278 -91 
Q 1894 -91 1617 61 
Q 1341 213 1159 525 
z
M 3116 1747 
Q 3116 2381 2855 2742 
Q 2594 3103 2138 3103 
Q 1681 3103 1420 2742 
Q 1159 2381 1159 1747 
Q 1159 1113 1420 752 
Q 1681 391 2138 391 
Q 2594 391 2855 752 
Q 3116 1113 3116 1747 
z
" transform="scale(0.015625)"/>
       <path id="DejaVuSans-69" d="M 603 3500 
L 1178 3500 
L 1178 0 
L 603 0 
L 603 3500 
z
M 603 4863 
L 1178 4863 
L 1178 4134 
L 603 4134 
L 603 4863 
z
" transform="scale(0.015625)"/>
       <path id="DejaVuSans-63" d="M 3122 3366 
L 3122 2828 
Q 2878 2963 2633 3030 
Q 2388 3097 2138 3097 
Q 1578 3097 1268 2742 
Q 959 2388 959 1747 
Q 959 1106 1268 751 
Q 1578 397 2138 397 
Q 2388 397 2633 464 
Q 2878 531 3122 666 
L 3122 134 
Q 2881 22 2623 -34 
Q 2366 -91 2075 -91 
Q 1284 -91 818 406 
Q 353 903 353 1747 
Q 353 2603 823 3093 
Q 1294 3584 2113 3584 
Q 2378 3584 2631 3529 
Q 2884 3475 3122 3366 
z
" transform="scale(0.015625)"/>
      </defs>
      <use xlink:href="#DejaVuSans-70"/>
      <use xlink:href="#DejaVuSans-72" x="63.476562"/>
      <use xlink:href="#DejaVuSans-65" x="102.339844"/>
      <use xlink:href="#DejaVuSans-64" x="163.863281"/>
      <use xlink:href="#DejaVuSans-69" x="227.339844"/>
      <use xlink:href="#DejaVuSans-63" x="255.123047"/>
      <use xlink:href="#DejaVuSans-74" x="310.103516"/>
      <use xlink:href="#DejaVuSans-65" x="349.3125"/>
      <use xlink:href="#DejaVuSans-64" x="410.835938"/>
     </g>
    </g>
   </g>
  </g>
 </g>
 <defs>
  <clipPath id="p907548145e">
   <rect x="90" y="43.2" width="558" height="244.8"/>
  </clipPath>
 </defs>
</svg>
