<?xml version="1.0" encoding="utf-8" standalone="no"?>
<!DOCTYPE svg PUBLIC "-//W3C//DTD SVG 1.1//EN"
  "http://www.w3.org/Graphics/SVG/1.1/DTD/svg11.dtd">
<svg xmlns:xlink="http://www.w3.org/1999/xlink" width="720pt" height="360pt" viewBox="0 0 720 360" xmlns="http://www.w3.org/2000/svg" version="1.1">
 <metadata>
  <rdf:RDF xmlns:dc="http://purl.org/dc/elements/1.1/" xmlns:cc="http://creativecommons.org/ns#" xmlns:rdf="http://www.w3.org/1999/02/22-rdf-syntax-ns#">
   <cc:Work>
    <dc:type rdf:resource="http://purl.org/dc/dcmitype/StillImage"/>
    <dc:date>2023-10-23T10:52:45.915001</dc:date>
    <dc:format>image/svg+xml</dc:format>
    <dc:creator>
     <cc:Agent>
      <dc:title>Matplotlib v3.7.1, https://matplotlib.org/</dc:title>
     </cc:Agent>
    </dc:creator>
   </cc:Work>
  </rdf:RDF>
 </metadata>
 <defs>
  <style type="text/css">*{stroke-linejoin: round; stroke-linecap: butt}</style>
 </defs>
 <g id="figure_1">
  <g id="patch_1">
   <path d="M 0 360 
L 720 360 
L 720 0 
L 0 0 
z
" style="fill: #ffffff"/>
  </g>
  <g id="axes_1">
   <g id="patch_2">
    <path d="M 90 288 
L 648 288 
L 648 43.2 
L 90 43.2 
z
" style="fill: #ffffff"/>
   </g>
   <g id="matplotlib.axis_1">
    <g id="xtick_1">
     <g id="line2d_1">
      <defs>
       <path id="m23da34a1f2" d="M 0 0 
L 0 3.5 
" style="stroke: #000000; stroke-width: 0.8"/>
      </defs>
      <g>
       <use xlink:href="#m23da34a1f2" x="149.370747" y="288" style="stroke: #000000; stroke-width: 0.8"/>
      </g>
     </g>
     <g id="text_1">
      <!-- 2023-08-15 -->
      <g transform="translate(87.727405 337.765903) rotate(-30) scale(0.12 -0.12)">
       <defs>
        <path id="DejaVuSans-32" d="M 1228 531 
L 3431 531 
L 3431 0 
L 469 0 
L 469 531 
Q 828 903 1448 1529 
Q 2069 2156 2228 2338 
Q 2531 2678 2651 2914 
Q 2772 3150 2772 3378 
Q 2772 3750 2511 3984 
Q 2250 4219 1831 4219 
Q 1534 4219 1204 4116 
Q 875 4013 500 3803 
L 500 4441 
Q 881 4594 1212 4672 
Q 1544 4750 1819 4750 
Q 2544 4750 2975 4387 
Q 3406 4025 3406 3419 
Q 3406 3131 3298 2873 
Q 3191 2616 2906 2266 
Q 2828 2175 2409 1742 
Q 1991 1309 1228 531 
z
" transform="scale(0.015625)"/>
        <path id="DejaVuSans-30" d="M 2034 4250 
Q 1547 4250 1301 3770 
Q 1056 3291 1056 2328 
Q 1056 1369 1301 889 
Q 1547 409 2034 409 
Q 2525 409 2770 889 
Q 3016 1369 3016 2328 
Q 3016 3291 2770 3770 
Q 2525 4250 2034 4250 
z
M 2034 4750 
Q 2819 4750 3233 4129 
Q 3647 3509 3647 2328 
Q 3647 1150 3233 529 
Q 2819 -91 2034 -91 
Q 1250 -91 836 529 
Q 422 1150 422 2328 
Q 422 3509 836 4129 
Q 1250 4750 2034 4750 
z
" transform="scale(0.015625)"/>
        <path id="DejaVuSans-33" d="M 2597 2516 
Q 3050 2419 3304 2112 
Q 3559 1806 3559 1356 
Q 3559 666 3084 287 
Q 2609 -91 1734 -91 
Q 1441 -91 1130 -33 
Q 819 25 488 141 
L 488 750 
Q 750 597 1062 519 
Q 1375 441 1716 441 
Q 2309 441 2620 675 
Q 2931 909 2931 1356 
Q 2931 1769 2642 2001 
Q 2353 2234 1838 2234 
L 1294 2234 
L 1294 2753 
L 1863 2753 
Q 2328 2753 2575 2939 
Q 2822 3125 2822 3475 
Q 2822 3834 2567 4026 
Q 2313 4219 1838 4219 
Q 1578 4219 1281 4162 
Q 984 4106 628 3988 
L 628 4550 
Q 988 4650 1302 4700 
Q 1616 4750 1894 4750 
Q 2613 4750 3031 4423 
Q 3450 4097 3450 3541 
Q 3450 3153 3228 2886 
Q 3006 2619 2597 2516 
z
" transform="scale(0.015625)"/>
        <path id="DejaVuSans-2d" d="M 313 2009 
L 1997 2009 
L 1997 1497 
L 313 1497 
L 313 2009 
z
" transform="scale(0.015625)"/>
        <path id="DejaVuSans-38" d="M 2034 2216 
Q 1584 2216 1326 1975 
Q 1069 1734 1069 1313 
Q 1069 891 1326 650 
Q 1584 409 2034 409 
Q 2484 409 2743 651 
Q 3003 894 3003 1313 
Q 3003 1734 2745 1975 
Q 2488 2216 2034 2216 
z
M 1403 2484 
Q 997 2584 770 2862 
Q 544 3141 544 3541 
Q 544 4100 942 4425 
Q 1341 4750 2034 4750 
Q 2731 4750 3128 4425 
Q 3525 4100 3525 3541 
Q 3525 3141 3298 2862 
Q 3072 2584 2669 2484 
Q 3125 2378 3379 2068 
Q 3634 1759 3634 1313 
Q 3634 634 3220 271 
Q 2806 -91 2034 -91 
Q 1263 -91 848 271 
Q 434 634 434 1313 
Q 434 1759 690 2068 
Q 947 2378 1403 2484 
z
M 1172 3481 
Q 1172 3119 1398 2916 
Q 1625 2713 2034 2713 
Q 2441 2713 2670 2916 
Q 2900 3119 2900 3481 
Q 2900 3844 2670 4047 
Q 2441 4250 2034 4250 
Q 1625 4250 1398 4047 
Q 1172 3844 1172 3481 
z
" transform="scale(0.015625)"/>
        <path id="DejaVuSans-31" d="M 794 531 
L 1825 531 
L 1825 4091 
L 703 3866 
L 703 4441 
L 1819 4666 
L 2450 4666 
L 2450 531 
L 3481 531 
L 3481 0 
L 794 0 
L 794 531 
z
" transform="scale(0.015625)"/>
        <path id="DejaVuSans-35" d="M 691 4666 
L 3169 4666 
L 3169 4134 
L 1269 4134 
L 1269 2991 
Q 1406 3038 1543 3061 
Q 1681 3084 1819 3084 
Q 2600 3084 3056 2656 
Q 3513 2228 3513 1497 
Q 3513 744 3044 326 
Q 2575 -91 1722 -91 
Q 1428 -91 1123 -41 
Q 819 9 494 109 
L 494 744 
Q 775 591 1075 516 
Q 1375 441 1709 441 
Q 2250 441 2565 725 
Q 2881 1009 2881 1497 
Q 2881 1984 2565 2268 
Q 2250 2553 1709 2553 
Q 1456 2553 1204 2497 
Q 953 2441 691 2322 
L 691 4666 
z
" transform="scale(0.015625)"/>
       </defs>
       <use xlink:href="#DejaVuSans-32"/>
       <use xlink:href="#DejaVuSans-30" x="63.623047"/>
       <use xlink:href="#DejaVuSans-32" x="127.246094"/>
       <use xlink:href="#DejaVuSans-33" x="190.869141"/>
       <use xlink:href="#DejaVuSans-2d" x="254.492188"/>
       <use xlink:href="#DejaVuSans-30" x="290.576172"/>
       <use xlink:href="#DejaVuSans-38" x="354.199219"/>
       <use xlink:href="#DejaVuSans-2d" x="417.822266"/>
       <use xlink:href="#DejaVuSans-31" x="453.90625"/>
       <use xlink:href="#DejaVuSans-35" x="517.529297"/>
      </g>
     </g>
    </g>
    <g id="xtick_2">
     <g id="line2d_2">
      <g>
       <use xlink:href="#m23da34a1f2" x="264.994921" y="288" style="stroke: #000000; stroke-width: 0.8"/>
      </g>
     </g>
     <g id="text_2">
      <!-- 2023-09-01 -->
      <g transform="translate(203.35158 337.765903) rotate(-30) scale(0.12 -0.12)">
       <defs>
        <path id="DejaVuSans-39" d="M 703 97 
L 703 672 
Q 941 559 1184 500 
Q 1428 441 1663 441 
Q 2288 441 2617 861 
Q 2947 1281 2994 2138 
Q 2813 1869 2534 1725 
Q 2256 1581 1919 1581 
Q 1219 1581 811 2004 
Q 403 2428 403 3163 
Q 403 3881 828 4315 
Q 1253 4750 1959 4750 
Q 2769 4750 3195 4129 
Q 3622 3509 3622 2328 
Q 3622 1225 3098 567 
Q 2575 -91 1691 -91 
Q 1453 -91 1209 -44 
Q 966 3 703 97 
z
M 1959 2075 
Q 2384 2075 2632 2365 
Q 2881 2656 2881 3163 
Q 2881 3666 2632 3958 
Q 2384 4250 1959 4250 
Q 1534 4250 1286 3958 
Q 1038 3666 1038 3163 
Q 1038 2656 1286 2365 
Q 1534 2075 1959 2075 
z
" transform="scale(0.015625)"/>
       </defs>
       <use xlink:href="#DejaVuSans-32"/>
       <use xlink:href="#DejaVuSans-30" x="63.623047"/>
       <use xlink:href="#DejaVuSans-32" x="127.246094"/>
       <use xlink:href="#DejaVuSans-33" x="190.869141"/>
       <use xlink:href="#DejaVuSans-2d" x="254.492188"/>
       <use xlink:href="#DejaVuSans-30" x="290.576172"/>
       <use xlink:href="#DejaVuSans-39" x="354.199219"/>
       <use xlink:href="#DejaVuSans-2d" x="417.822266"/>
       <use xlink:href="#DejaVuSans-30" x="453.90625"/>
       <use xlink:href="#DejaVuSans-31" x="517.529297"/>
      </g>
     </g>
    </g>
    <g id="xtick_3">
     <g id="line2d_3">
      <g>
       <use xlink:href="#m23da34a1f2" x="360.21483" y="288" style="stroke: #000000; stroke-width: 0.8"/>
      </g>
     </g>
     <g id="text_3">
      <!-- 2023-09-15 -->
      <g transform="translate(298.571488 337.765903) rotate(-30) scale(0.12 -0.12)">
       <use xlink:href="#DejaVuSans-32"/>
       <use xlink:href="#DejaVuSans-30" x="63.623047"/>
       <use xlink:href="#DejaVuSans-32" x="127.246094"/>
       <use xlink:href="#DejaVuSans-33" x="190.869141"/>
       <use xlink:href="#DejaVuSans-2d" x="254.492188"/>
       <use xlink:href="#DejaVuSans-30" x="290.576172"/>
       <use xlink:href="#DejaVuSans-39" x="354.199219"/>
       <use xlink:href="#DejaVuSans-2d" x="417.822266"/>
       <use xlink:href="#DejaVuSans-31" x="453.90625"/>
       <use xlink:href="#DejaVuSans-35" x="517.529297"/>
      </g>
     </g>
    </g>
    <g id="xtick_4">
     <g id="line2d_4">
      <g>
       <use xlink:href="#m23da34a1f2" x="469.037583" y="288" style="stroke: #000000; stroke-width: 0.8"/>
      </g>
     </g>
     <g id="text_4">
      <!-- 2023-10-01 -->
      <g transform="translate(407.394241 337.765903) rotate(-30) scale(0.12 -0.12)">
       <use xlink:href="#DejaVuSans-32"/>
       <use xlink:href="#DejaVuSans-30" x="63.623047"/>
       <use xlink:href="#DejaVuSans-32" x="127.246094"/>
       <use xlink:href="#DejaVuSans-33" x="190.869141"/>
       <use xlink:href="#DejaVuSans-2d" x="254.492188"/>
       <use xlink:href="#DejaVuSans-31" x="290.576172"/>
       <use xlink:href="#DejaVuSans-30" x="354.199219"/>
       <use xlink:href="#DejaVuSans-2d" x="417.822266"/>
       <use xlink:href="#DejaVuSans-30" x="453.90625"/>
       <use xlink:href="#DejaVuSans-31" x="517.529297"/>
      </g>
     </g>
    </g>
    <g id="xtick_5">
     <g id="line2d_5">
      <g>
       <use xlink:href="#m23da34a1f2" x="564.257491" y="288" style="stroke: #000000; stroke-width: 0.8"/>
      </g>
     </g>
     <g id="text_5">
      <!-- 2023-10-15 -->
      <g transform="translate(502.614149 337.765903) rotate(-30) scale(0.12 -0.12)">
       <use xlink:href="#DejaVuSans-32"/>
       <use xlink:href="#DejaVuSans-30" x="63.623047"/>
       <use xlink:href="#DejaVuSans-32" x="127.246094"/>
       <use xlink:href="#DejaVuSans-33" x="190.869141"/>
       <use xlink:href="#DejaVuSans-2d" x="254.492188"/>
       <use xlink:href="#DejaVuSans-31" x="290.576172"/>
       <use xlink:href="#DejaVuSans-30" x="354.199219"/>
       <use xlink:href="#DejaVuSans-2d" x="417.822266"/>
       <use xlink:href="#DejaVuSans-31" x="453.90625"/>
       <use xlink:href="#DejaVuSans-35" x="517.529297"/>
      </g>
     </g>
    </g>
   </g>
   <g id="matplotlib.axis_2">
    <g id="ytick_1">
     <g id="line2d_6">
      <defs>
       <path id="m07fa7746b2" d="M 0 0 
L -3.5 0 
" style="stroke: #000000; stroke-width: 0.8"/>
      </defs>
      <g>
       <use xlink:href="#m07fa7746b2" x="90" y="262.225829" style="stroke: #000000; stroke-width: 0.8"/>
      </g>
     </g>
     <g id="text_6">
      <!-- 1.0 -->
      <g transform="translate(63.91625 266.784892) scale(0.12 -0.12)">
       <defs>
        <path id="DejaVuSans-2e" d="M 684 794 
L 1344 794 
L 1344 0 
L 684 0 
L 684 794 
z
" transform="scale(0.015625)"/>
       </defs>
       <use xlink:href="#DejaVuSans-31"/>
       <use xlink:href="#DejaVuSans-2e" x="63.623047"/>
       <use xlink:href="#DejaVuSans-30" x="95.410156"/>
      </g>
     </g>
    </g>
    <g id="ytick_2">
     <g id="line2d_7">
      <g>
       <use xlink:href="#m07fa7746b2" x="90" y="234.888048" style="stroke: #000000; stroke-width: 0.8"/>
      </g>
     </g>
     <g id="text_7">
      <!-- 1.5 -->
      <g transform="translate(63.91625 239.44711) scale(0.12 -0.12)">
       <use xlink:href="#DejaVuSans-31"/>
       <use xlink:href="#DejaVuSans-2e" x="63.623047"/>
       <use xlink:href="#DejaVuSans-35" x="95.410156"/>
      </g>
     </g>
    </g>
    <g id="ytick_3">
     <g id="line2d_8">
      <g>
       <use xlink:href="#m07fa7746b2" x="90" y="207.550267" style="stroke: #000000; stroke-width: 0.8"/>
      </g>
     </g>
     <g id="text_8">
      <!-- 2.0 -->
      <g transform="translate(63.91625 212.109329) scale(0.12 -0.12)">
       <use xlink:href="#DejaVuSans-32"/>
       <use xlink:href="#DejaVuSans-2e" x="63.623047"/>
       <use xlink:href="#DejaVuSans-30" x="95.410156"/>
      </g>
     </g>
    </g>
    <g id="ytick_4">
     <g id="line2d_9">
      <g>
       <use xlink:href="#m07fa7746b2" x="90" y="180.212485" style="stroke: #000000; stroke-width: 0.8"/>
      </g>
     </g>
     <g id="text_9">
      <!-- 2.5 -->
      <g transform="translate(63.91625 184.771548) scale(0.12 -0.12)">
       <use xlink:href="#DejaVuSans-32"/>
       <use xlink:href="#DejaVuSans-2e" x="63.623047"/>
       <use xlink:href="#DejaVuSans-35" x="95.410156"/>
      </g>
     </g>
    </g>
    <g id="ytick_5">
     <g id="line2d_10">
      <g>
       <use xlink:href="#m07fa7746b2" x="90" y="152.874704" style="stroke: #000000; stroke-width: 0.8"/>
      </g>
     </g>
     <g id="text_10">
      <!-- 3.0 -->
      <g transform="translate(63.91625 157.433766) scale(0.12 -0.12)">
       <use xlink:href="#DejaVuSans-33"/>
       <use xlink:href="#DejaVuSans-2e" x="63.623047"/>
       <use xlink:href="#DejaVuSans-30" x="95.410156"/>
      </g>
     </g>
    </g>
    <g id="ytick_6">
     <g id="line2d_11">
      <g>
       <use xlink:href="#m07fa7746b2" x="90" y="125.536923" style="stroke: #000000; stroke-width: 0.8"/>
      </g>
     </g>
     <g id="text_11">
      <!-- 3.5 -->
      <g transform="translate(63.91625 130.095985) scale(0.12 -0.12)">
       <use xlink:href="#DejaVuSans-33"/>
       <use xlink:href="#DejaVuSans-2e" x="63.623047"/>
       <use xlink:href="#DejaVuSans-35" x="95.410156"/>
      </g>
     </g>
    </g>
    <g id="ytick_7">
     <g id="line2d_12">
      <g>
       <use xlink:href="#m07fa7746b2" x="90" y="98.199141" style="stroke: #000000; stroke-width: 0.8"/>
      </g>
     </g>
     <g id="text_12">
      <!-- 4.0 -->
      <g transform="translate(63.91625 102.758204) scale(0.12 -0.12)">
       <defs>
        <path id="DejaVuSans-34" d="M 2419 4116 
L 825 1625 
L 2419 1625 
L 2419 4116 
z
M 2253 4666 
L 3047 4666 
L 3047 1625 
L 3713 1625 
L 3713 1100 
L 3047 1100 
L 3047 0 
L 2419 0 
L 2419 1100 
L 313 1100 
L 313 1709 
L 2253 4666 
z
" transform="scale(0.015625)"/>
       </defs>
       <use xlink:href="#DejaVuSans-34"/>
       <use xlink:href="#DejaVuSans-2e" x="63.623047"/>
       <use xlink:href="#DejaVuSans-30" x="95.410156"/>
      </g>
     </g>
    </g>
    <g id="ytick_8">
     <g id="line2d_13">
      <g>
       <use xlink:href="#m07fa7746b2" x="90" y="70.86136" style="stroke: #000000; stroke-width: 0.8"/>
      </g>
     </g>
     <g id="text_13">
      <!-- 4.5 -->
      <g transform="translate(63.91625 75.420422) scale(0.12 -0.12)">
       <use xlink:href="#DejaVuSans-34"/>
       <use xlink:href="#DejaVuSans-2e" x="63.623047"/>
       <use xlink:href="#DejaVuSans-35" x="95.410156"/>
      </g>
     </g>
    </g>
    <g id="ytick_9">
     <g id="line2d_14">
      <g>
       <use xlink:href="#m07fa7746b2" x="90" y="43.523579" style="stroke: #000000; stroke-width: 0.8"/>
      </g>
     </g>
     <g id="text_14">
      <!-- 5.0 -->
      <g transform="translate(63.91625 48.082641) scale(0.12 -0.12)">
       <use xlink:href="#DejaVuSans-35"/>
       <use xlink:href="#DejaVuSans-2e" x="63.623047"/>
       <use xlink:href="#DejaVuSans-30" x="95.410156"/>
      </g>
     </g>
    </g>
    <g id="text_15">
     <!-- Meters -->
     <g transform="translate(57.836562 182.6875) rotate(-90) scale(0.1 -0.1)">
      <defs>
       <path id="DejaVuSans-4d" d="M 628 4666 
L 1569 4666 
L 2759 1491 
L 3956 4666 
L 4897 4666 
L 4897 0 
L 4281 0 
L 4281 4097 
L 3078 897 
L 2444 897 
L 1241 4097 
L 1241 0 
L 628 0 
L 628 4666 
z
" transform="scale(0.015625)"/>
       <path id="DejaVuSans-65" d="M 3597 1894 
L 3597 1613 
L 953 1613 
Q 991 1019 1311 708 
Q 1631 397 2203 397 
Q 2534 397 2845 478 
Q 3156 559 3463 722 
L 3463 178 
Q 3153 47 2828 -22 
Q 2503 -91 2169 -91 
Q 1331 -91 842 396 
Q 353 884 353 1716 
Q 353 2575 817 3079 
Q 1281 3584 2069 3584 
Q 2775 3584 3186 3129 
Q 3597 2675 3597 1894 
z
M 3022 2063 
Q 3016 2534 2758 2815 
Q 2500 3097 2075 3097 
Q 1594 3097 1305 2825 
Q 1016 2553 972 2059 
L 3022 2063 
z
" transform="scale(0.015625)"/>
       <path id="DejaVuSans-74" d="M 1172 4494 
L 1172 3500 
L 2356 3500 
L 2356 3053 
L 1172 3053 
L 1172 1153 
Q 1172 725 1289 603 
Q 1406 481 1766 481 
L 2356 481 
L 2356 0 
L 1766 0 
Q 1100 0 847 248 
Q 594 497 594 1153 
L 594 3053 
L 172 3053 
L 172 3500 
L 594 3500 
L 594 4494 
L 1172 4494 
z
" transform="scale(0.015625)"/>
       <path id="DejaVuSans-72" d="M 2631 2963 
Q 2534 3019 2420 3045 
Q 2306 3072 2169 3072 
Q 1681 3072 1420 2755 
Q 1159 2438 1159 1844 
L 1159 0 
L 581 0 
L 581 3500 
L 1159 3500 
L 1159 2956 
Q 1341 3275 1631 3429 
Q 1922 3584 2338 3584 
Q 2397 3584 2469 3576 
Q 2541 3569 2628 3553 
L 2631 2963 
z
" transform="scale(0.015625)"/>
       <path id="DejaVuSans-73" d="M 2834 3397 
L 2834 2853 
Q 2591 2978 2328 3040 
Q 2066 3103 1784 3103 
Q 1356 3103 1142 2972 
Q 928 2841 928 2578 
Q 928 2378 1081 2264 
Q 1234 2150 1697 2047 
L 1894 2003 
Q 2506 1872 2764 1633 
Q 3022 1394 3022 966 
Q 3022 478 2636 193 
Q 2250 -91 1575 -91 
Q 1294 -91 989 -36 
Q 684 19 347 128 
L 347 722 
Q 666 556 975 473 
Q 1284 391 1588 391 
Q 1994 391 2212 530 
Q 2431 669 2431 922 
Q 2431 1156 2273 1281 
Q 2116 1406 1581 1522 
L 1381 1569 
Q 847 1681 609 1914 
Q 372 2147 372 2553 
Q 372 3047 722 3315 
Q 1072 3584 1716 3584 
Q 2034 3584 2315 3537 
Q 2597 3491 2834 3397 
z
" transform="scale(0.015625)"/>
      </defs>
      <use xlink:href="#DejaVuSans-4d"/>
      <use xlink:href="#DejaVuSans-65" x="86.279297"/>
      <use xlink:href="#DejaVuSans-74" x="147.802734"/>
      <use xlink:href="#DejaVuSans-65" x="187.011719"/>
      <use xlink:href="#DejaVuSans-72" x="248.535156"/>
      <use xlink:href="#DejaVuSans-73" x="289.648438"/>
     </g>
    </g>
   </g>
   <g id="line2d_15">
    <path d="M 115.363636 272.481581 
L 115.647029 272.918874 
L 115.930422 272.78222 
L 116.497207 273.146631 
L 116.780599 273.328836 
L 117.347384 273.237733 
L 117.630777 273.301505 
L 117.91417 273.173961 
L 118.480955 273.620364 
L 119.04774 274.476729 
L 119.614525 275.424196 
L 119.897918 275.688393 
L 120.18131 275.788606 
L 121.031488 275.478857 
L 121.314881 275.779496 
L 121.598273 275.260211 
L 121.881666 275.378644 
L 122.165058 275.132667 
L 122.731844 274.385626 
L 123.298629 273.939223 
L 123.582021 274.221641 
L 123.865414 274.258082 
L 124.715592 275.187329 
L 124.998984 275.825047 
L 125.282377 275.752165 
L 125.565769 276.644971 
L 126.132555 276.836286 
L 126.415947 276.872727 
L 126.69934 276.426324 
L 127.266125 276.435435 
L 127.549518 275.998142 
L 127.83291 275.196439 
L 128.116303 275.050675 
L 128.399695 273.921003 
L 128.683088 273.319726 
L 128.96648 272.217384 
L 129.533266 271.014829 
L 129.816658 245.260122 
L 130.100051 246.316912 
L 130.666836 171.257472 
L 130.950229 153.109832 
L 131.233621 147.042398 
L 131.517014 146.723539 
L 131.800406 148.682245 
L 133.217369 161.482162 
L 133.784154 166.410813 
L 134.067547 169.198553 
L 134.634332 178.764327 
L 136.61808 214.512991 
L 137.184865 222.557351 
L 138.318436 233.471444 
L 140.302184 249.569275 
L 140.868969 252.420787 
L 141.435754 255.199416 
L 142.285932 257.568084 
L 143.702895 260.884219 
L 145.970036 264.40989 
L 147.103606 267.224961 
L 147.670391 268.345523 
L 147.953784 268.473067 
L 148.237176 268.2362 
L 148.520569 267.808018 
L 149.370747 267.17941 
L 149.654139 265.530452 
L 150.220924 256.620617 
L 150.787709 229.736237 
L 151.071102 224.315632 
L 151.354495 223.942111 
L 151.92128 227.431341 
L 152.771458 233.043262 
L 153.05485 233.152585 
L 153.905028 229.554032 
L 154.471813 230.483279 
L 154.755206 230.410396 
L 155.038598 229.517591 
L 155.605383 226.912056 
L 156.172169 225.709502 
L 156.455561 225.955479 
L 157.022346 227.513333 
L 157.589132 229.253393 
L 159.289487 236.231853 
L 159.57288 237.935472 
L 159.856272 238.591411 
L 160.423057 240.550117 
L 161.273235 242.517933 
L 161.84002 243.547393 
L 162.406805 244.795498 
L 162.690198 244.83194 
L 162.973591 244.749947 
L 163.256983 245.506099 
L 163.540376 245.20546 
L 164.673946 245.697414 
L 165.240731 246.162038 
L 166.090909 246.754205 
L 166.657694 247.546797 
L 167.791265 248.302949 
L 168.074657 248.084303 
L 168.35805 246.289581 
L 168.641442 242.74569 
L 168.924835 234.236706 
L 169.208228 220.543984 
L 169.49162 196.747982 
L 169.775013 198.515373 
L 170.058405 194.862158 
L 170.341798 193.978463 
L 170.908583 196.146705 
L 171.475368 198.396939 
L 172.608939 202.022823 
L 173.175724 205.575825 
L 176.293042 226.857395 
L 176.576435 227.7502 
L 177.14322 230.346625 
L 180.827324 243.80248 
L 181.110716 243.930024 
L 181.394109 244.267103 
L 181.677501 244.376426 
L 182.244286 245.150799 
L 182.811072 245.952502 
L 183.377857 245.979832 
L 183.944642 247.218828 
L 184.511427 249.687709 
L 185.078212 252.18392 
L 185.644997 253.878429 
L 186.211783 254.944329 
L 186.495175 255.126534 
L 186.778568 255.973789 
L 187.06196 256.465743 
L 187.345353 256.72994 
L 187.628746 257.231005 
L 187.912138 257.376769 
L 188.195531 257.340328 
L 189.045708 256.839263 
L 189.329101 256.903035 
L 189.612494 256.447522 
L 189.895886 256.411081 
L 191.029457 254.926109 
L 191.596242 254.516147 
L 191.879634 254.789455 
L 192.44642 254.916998 
L 193.013205 254.880557 
L 193.296597 255.108314 
L 193.863382 256.101332 
L 194.146775 256.146884 
L 194.71356 256.966807 
L 194.996953 256.821043 
L 195.280345 257.05791 
L 195.563738 257.139902 
L 196.130523 256.766381 
L 196.413916 256.875704 
L 196.697308 256.292648 
L 196.980701 255.992009 
L 197.830879 255.746032 
L 198.114271 255.800694 
L 198.397664 256.001119 
L 198.681056 255.764253 
L 199.247842 255.809804 
L 199.814627 255.900907 
L 200.381412 256.547735 
L 200.948197 257.668297 
L 201.514982 258.843521 
L 201.798375 258.989285 
L 202.081767 258.779749 
L 202.648553 259.599673 
L 202.931945 259.800098 
L 203.215338 260.137178 
L 203.782123 258.879962 
L 204.065515 258.579323 
L 204.632301 258.333346 
L 204.915693 258.47911 
L 205.199086 258.46089 
L 205.765871 258.943734 
L 206.332656 259.289924 
L 206.616049 259.280813 
L 206.899441 259.062167 
L 207.182834 259.299034 
L 207.466227 259.308144 
L 207.749619 259.973193 
L 208.033012 256.420191 
L 208.316404 242.208184 
L 208.883189 144.263769 
L 209.166582 131.810042 
L 209.449975 127.008935 
L 209.733367 125.724388 
L 210.01676 126.398547 
L 210.583545 131.226985 
L 211.433723 139.544654 
L 212.000508 144.199997 
L 212.2839 144.928818 
L 213.134078 133.240353 
L 213.417471 133.231243 
L 213.984256 136.775134 
L 214.267649 136.665811 
L 214.551041 135.973431 
L 214.834434 137.32175 
L 216.251397 151.825285 
L 217.66836 167.385611 
L 217.951752 166.410813 
L 218.80193 80.118421 
L 219.085322 65.851753 
L 219.368715 57.770951 
L 219.652108 54.327273 
L 219.9355 55.046983 
L 220.218893 58.317567 
L 222.486034 95.42366 
L 223.336211 104.679685 
L 223.619604 106.328642 
L 223.902996 107.011912 
L 224.186389 106.902589 
L 224.753174 105.20808 
L 225.036567 101.418212 
L 225.319959 104.369936 
L 225.603352 104.86189 
L 226.170137 107.403653 
L 227.020315 113.5713 
L 227.870493 120.422216 
L 230.137633 140.665216 
L 231.271204 149.019325 
L 232.404774 158.412004 
L 234.388522 177.953514 
L 235.2387 187.072885 
L 236.655663 198.169183 
L 237.222448 201.266672 
L 240.056374 209.128827 
L 240.906552 212.007669 
L 241.189944 212.72738 
L 241.756729 216.189279 
L 242.323514 217.892898 
L 243.740477 221.883192 
L 244.02387 222.657564 
L 244.307263 222.721336 
L 244.590655 222.484469 
L 245.15744 222.639344 
L 246.007618 223.960332 
L 246.291011 224.033214 
L 247.424581 225.581958 
L 247.707974 225.755053 
L 247.991366 225.709502 
L 248.558151 227.176254 
L 248.841544 227.540664 
L 249.124937 227.40401 
L 249.691722 227.832193 
L 250.541899 228.032618 
L 250.825292 227.859523 
L 251.108685 228.005288 
L 251.67547 229.171401 
L 252.242255 228.706778 
L 252.525648 228.005288 
L 253.092433 225.955479 
L 253.375825 225.326871 
L 253.659218 225.026232 
L 253.94261 225.253989 
L 254.509396 226.35633 
L 255.642966 229.435598 
L 256.493144 230.838579 
L 257.059929 232.551308 
L 257.343321 233.061482 
L 257.626714 234.03628 
L 257.910107 234.045391 
L 258.193499 233.407672 
L 258.476892 233.143475 
L 260.46064 234.837983 
L 261.310818 235.749009 
L 261.59421 235.739899 
L 262.160995 238.263441 
L 262.727781 238.57319 
L 263.011173 238.290772 
L 263.294566 238.454757 
L 264.144744 239.994391 
L 264.428136 240.367912 
L 264.711529 240.203927 
L 264.994921 239.001372 
L 265.278314 238.609631 
L 266.411884 238.91938 
L 267.262062 239.374893 
L 268.11224 240.185706 
L 268.395632 240.085494 
L 268.962417 241.962207 
L 269.812595 241.843774 
L 270.095988 242.344838 
L 270.37938 242.363059 
L 270.662773 242.973446 
L 270.946166 243.028108 
L 271.229558 243.356077 
L 271.796343 242.089751 
L 272.646521 242.445051 
L 272.929914 242.463272 
L 273.496699 243.301416 
L 273.780091 243.483621 
L 274.346877 244.731727 
L 274.913662 245.515209 
L 275.197054 245.19635 
L 276.330625 246.881748 
L 276.614017 246.863528 
L 278.03098 246.271361 
L 278.314373 246.426235 
L 278.597765 246.389794 
L 278.881158 246.963741 
L 279.164551 247.063953 
L 279.447943 246.827087 
L 279.731336 246.745094 
L 280.014728 246.817976 
L 280.581513 246.663102 
L 280.864906 246.617551 
L 281.431691 247.009292 
L 281.715084 247.000182 
L 281.998476 247.145946 
L 282.281869 247.601459 
L 282.848654 247.929428 
L 283.415439 248.312059 
L 283.698832 248.102523 
L 284.54901 248.275618 
L 285.399187 247.501246 
L 285.965973 247.364592 
L 286.249365 247.510356 
L 286.532758 248.220957 
L 286.81615 247.947649 
L 287.099543 247.428364 
L 288.516506 248.521595 
L 288.799898 248.3485 
L 289.366684 249.642157 
L 290.216861 249.687709 
L 290.500254 249.897245 
L 290.783647 249.778811 
L 291.067039 250.170552 
L 291.350432 250.316317 
L 291.633824 249.833473 
L 291.917217 250.07945 
L 292.200609 250.115891 
L 292.484002 249.815252 
L 293.33418 249.951906 
L 295.317928 251.272894 
L 295.60132 250.935814 
L 296.168106 252.247692 
L 297.018283 251.783069 
L 297.585069 251.728407 
L 297.868461 252.083707 
L 298.435246 251.901502 
L 299.002031 251.11802 
L 299.285424 250.944925 
L 299.568817 251.345776 
L 300.135602 251.090689 
L 300.418994 251.263784 
L 300.702387 250.890263 
L 300.98578 250.990476 
L 301.552565 251.701076 
L 302.402743 251.810399 
L 302.686135 252.311464 
L 302.969528 252.575661 
L 303.536313 252.357015 
L 303.819705 249.505503 
L 304.103098 245.478768 
L 304.386491 239.110696 
L 304.953276 223.632362 
L 305.236668 221.281915 
L 305.520061 221.026828 
L 306.086846 223.55948 
L 308.070594 237.634833 
L 309.204165 242.800351 
L 309.487557 243.866252 
L 309.77095 244.176001 
L 310.337735 243.620275 
L 310.621127 244.121339 
L 310.90452 244.312655 
L 311.471305 245.351224 
L 312.321483 246.772425 
L 312.604876 246.836197 
L 312.888268 247.29171 
L 313.171661 247.528577 
L 313.455053 247.601459 
L 314.305231 248.512485 
L 315.155409 248.794903 
L 316.288979 250.352758 
L 316.855764 251.034205 
L 317.705942 251.582643 
L 318.839512 251.892392 
L 319.406298 251.855951 
L 320.823261 252.302353 
L 321.106653 252.757867 
L 321.673438 255.299629 
L 323.373794 265.940414 
L 323.940579 265.849312 
L 324.223972 266.067958 
L 326.491112 265.840201 
L 326.774505 266.004186 
L 327.057897 266.377707 
L 327.34129 266.541691 
L 327.624683 266.569022 
L 327.908075 266.47792 
L 329.325038 267.097417 
L 329.608431 267.270512 
L 329.891823 267.589371 
L 330.175216 268.336413 
L 330.742001 268.782816 
L 331.025394 268.664382 
L 331.308786 269.028793 
L 332.158964 267.90823 
L 332.442357 268.391074 
L 332.725749 268.318192 
L 333.009142 267.707805 
L 333.575927 267.379835 
L 334.426105 267.316064 
L 334.709497 267.115638 
L 334.99289 266.614573 
L 335.276282 266.523471 
L 335.559675 266.596353 
L 335.843068 266.423258 
L 336.12646 266.441478 
L 336.409853 266.259273 
L 336.693245 266.933433 
L 336.976638 268.063105 
L 337.26003 268.436626 
L 337.543423 268.609721 
L 338.676993 267.689584 
L 338.960386 267.270512 
L 339.243779 267.097417 
L 339.527171 266.769448 
L 339.810564 266.933433 
L 343.211275 234.291368 
L 343.494667 230.109758 
L 343.77806 228.205713 
L 344.061453 227.40401 
L 344.628238 227.267356 
L 345.195023 226.174125 
L 345.478415 226.01014 
L 345.761808 226.365441 
L 346.045201 226.994049 
L 346.611986 229.745347 
L 349.162519 246.60844 
L 350.012697 249.359739 
L 350.579482 252.557441 
L 350.862875 252.657654 
L 351.146267 253.058505 
L 351.713052 254.598139 
L 351.996445 254.63458 
L 352.279837 255.071873 
L 352.56323 256.620617 
L 352.846623 257.176343 
L 353.130015 257.021469 
L 353.413408 256.547735 
L 353.980193 256.520404 
L 354.546978 256.994138 
L 354.830371 257.003248 
L 355.113763 256.593286 
L 355.397156 256.529515 
L 355.680549 256.292648 
L 355.963941 255.900907 
L 356.530726 255.518276 
L 356.814119 255.563827 
L 357.097511 256.219766 
L 357.380904 258.078259 
L 357.947689 257.914274 
L 358.231082 258.306015 
L 358.514474 258.224023 
L 358.797867 257.786731 
L 359.08126 257.950715 
L 359.364652 259.344585 
L 359.648045 259.016616 
L 360.21483 257.968936 
L 360.781615 258.251354 
L 361.3484 258.934623 
L 361.631793 258.852631 
L 362.481971 259.144159 
L 363.332148 259.745437 
L 363.615541 259.50857 
L 363.898933 259.781878 
L 364.182326 260.847778 
L 364.465719 261.111976 
L 364.749111 260.428706 
L 365.032504 260.538029 
L 365.599289 260.392265 
L 365.882682 261.503717 
L 366.166074 260.474258 
L 366.449467 260.064296 
L 366.732859 259.982303 
L 367.299644 259.444798 
L 367.583037 259.535901 
L 367.86643 259.344585 
L 369 257.914274 
L 369.283393 257.823172 
L 369.850178 257.43143 
L 370.13357 257.495202 
L 370.416963 257.121682 
L 370.700356 257.486092 
L 370.983748 258.542882 
L 371.267141 258.752418 
L 371.550533 258.770639 
L 372.117318 259.572342 
L 372.400711 259.581452 
L 372.684104 259.399247 
L 372.967496 259.572342 
L 373.250889 259.198821 
L 373.534281 259.308144 
L 373.817674 258.980175 
L 374.667852 259.089498 
L 374.951244 259.371916 
L 375.234637 259.326365 
L 375.518029 259.089498 
L 375.801422 259.317254 
L 376.368207 259.308144 
L 376.6516 259.572342 
L 377.218385 259.608783 
L 377.501778 259.708996 
L 377.78517 260.346714 
L 378.351955 260.738455 
L 378.635348 261.075535 
L 379.202133 261.239519 
L 379.485526 260.875109 
L 379.768918 260.865999 
L 380.335703 260.328493 
L 380.619096 260.264722 
L 380.902489 260.346714 
L 381.185881 260.720235 
L 381.469274 260.747565 
L 381.752666 261.039094 
L 382.319451 260.947991 
L 382.602844 260.720235 
L 382.886237 260.774896 
L 383.453022 261.093755 
L 384.019807 261.048204 
L 384.3032 261.458166 
L 384.586592 262.332751 
L 384.869985 262.724492 
L 385.153377 262.387412 
L 385.43677 262.232538 
L 385.720163 262.323641 
L 386.853733 263.435092 
L 387.137125 263.416872 
L 387.420518 262.879366 
L 387.703911 262.678941 
L 387.987303 262.697161 
L 388.270696 262.514956 
L 388.554088 262.114105 
L 389.404266 259.973193 
L 390.537836 259.52679 
L 390.821229 259.016616 
L 391.104622 258.889072 
L 391.388014 259.708996 
L 392.238192 259.581452 
L 392.521585 259.444798 
L 393.08837 260.146288 
L 393.371762 259.772767 
L 393.655155 259.745437 
L 393.938547 259.991414 
L 394.788725 260.009634 
L 395.072118 260.21917 
L 395.638903 259.545011 
L 395.922296 259.444798 
L 396.205688 259.754547 
L 397.339259 261.640371 
L 397.906044 261.877238 
L 398.189436 262.104994 
L 398.472829 262.560507 
L 398.756221 262.496735 
L 399.039614 262.551397 
L 399.323007 262.742713 
L 399.606399 263.398651 
L 399.889792 263.763062 
L 400.173184 263.908826 
L 400.456577 263.599077 
L 400.73997 263.025131 
L 401.023362 262.943138 
L 402.156932 261.822576 
L 403.00711 261.403504 
L 403.290503 261.348843 
L 403.573895 261.494607 
L 403.857288 261.804356 
L 404.140681 261.758804 
L 404.424073 262.114105 
L 404.707466 262.196097 
L 405.274251 263.425982 
L 406.407821 265.10227 
L 406.691214 265.202483 
L 406.974606 264.76519 
L 407.541392 264.73786 
L 407.824784 264.828962 
L 408.108177 264.719639 
L 408.391569 264.810742 
L 409.241747 265.43024 
L 410.091925 267.629457 
L 411.79228 272.286622 
L 412.642458 273.255954 
L 412.925851 273.365277 
L 413.209243 273.110189 
L 413.492636 273.374387 
L 413.776028 273.893672 
L 414.059421 273.401718 
L 414.626206 271.37013 
L 414.909599 271.233476 
L 415.192991 271.288137 
L 415.759777 271.187924 
L 416.326562 270.568427 
L 416.609954 270.568427 
L 416.893347 270.404442 
L 417.176739 270.431773 
L 417.460132 270.122024 
L 417.743525 270.149355 
L 418.026917 270.030921 
L 418.31031 270.204016 
L 418.593702 271.525004 
L 418.877095 271.525004 
L 419.160488 271.670768 
L 419.44388 271.652548 
L 419.727273 271.506784 
L 420.294058 271.616107 
L 420.57745 272.180943 
L 420.860843 271.761871 
L 421.427628 269.876047 
L 421.711021 269.420534 
L 421.994413 269.247439 
L 422.277806 269.229218 
L 422.561199 269.438754 
L 422.844591 269.384093 
L 423.411376 269.794055 
L 423.694769 269.502526 
L 424.261554 269.712062 
L 424.828339 269.374983 
L 425.111732 270.103803 
L 425.395124 271.74365 
L 425.96191 271.780091 
L 426.245302 271.825643 
L 426.528695 271.670768 
L 426.812087 271.670768 
L 427.378873 271.124153 
L 427.662265 270.049142 
L 427.945658 269.520747 
L 428.22905 269.27477 
L 428.512443 269.27477 
L 428.795835 269.393203 
L 429.079228 269.229218 
L 429.362621 269.201888 
L 429.646013 269.047013 
L 429.929406 269.092564 
L 430.212798 269.29299 
L 431.346369 268.327302 
L 431.629761 268.172428 
L 432.763332 268.381964 
L 433.330117 268.263531 
L 434.180295 267.999333 
L 434.463687 267.516489 
L 435.030472 267.161189 
L 435.597257 266.095289 
L 435.88065 265.958635 
L 436.447435 264.938285 
L 437.297613 263.872385 
L 437.581006 263.444203 
L 437.864398 263.225556 
L 438.147791 262.387412 
L 438.431183 261.066425 
L 438.997969 256.319979 
L 439.564754 253.778216 
L 440.131539 248.485154 
L 440.981717 244.176001 
L 441.265109 243.79337 
L 441.548502 244.358206 
L 442.39868 247.30082 
L 443.248857 248.849565 
L 444.382428 252.912741 
L 445.515998 257.394989 
L 446.649568 261.111976 
L 447.783139 263.526195 
L 448.066531 263.999929 
L 448.349924 264.200354 
L 448.633316 264.537434 
L 448.916709 257.240115 
L 449.200102 263.498864 
L 449.483494 262.150546 
L 449.766887 257.43143 
L 450.617064 219.432532 
L 450.900457 214.82274 
L 451.18385 213.975486 
L 451.467242 215.469568 
L 452.034027 220.234235 
L 452.31742 220.39822 
L 452.884205 217.938449 
L 453.167598 218.239088 
L 453.734383 221.291025 
L 456.568309 241.625128 
L 458.268664 251.291115 
L 459.402235 256.174214 
L 460.252412 258.907293 
L 460.535805 259.299034 
L 460.819198 259.945862 
L 461.10259 261.148417 
L 461.385983 260.647353 
L 461.669375 260.683794 
L 461.952768 260.865999 
L 462.519553 261.439945 
L 465.636872 264.920065 
L 465.920264 265.612445 
L 466.203657 267.516489 
L 466.487049 267.853569 
L 467.053834 267.862679 
L 467.337227 268.436626 
L 467.62062 268.427515 
L 467.904012 269.338541 
L 468.187405 269.757613 
L 468.470797 269.374983 
L 469.037583 267.279622 
L 469.320975 267.20674 
L 469.604368 267.443607 
L 469.88776 267.470938 
L 470.171153 267.726025 
L 470.454545 267.698694 
L 470.737938 267.90823 
L 471.304723 267.844459 
L 471.588116 268.154208 
L 471.871508 268.163318 
L 472.154901 268.436626 
L 472.721686 268.22709 
L 473.571864 269.229218 
L 473.855256 269.930708 
L 474.138649 269.948929 
L 474.705434 270.468214 
L 474.988827 271.233476 
L 475.272219 271.415681 
L 475.839005 268.673492 
L 476.40579 268.445736 
L 477.255967 268.901249 
L 477.53936 268.955911 
L 477.822753 268.828367 
L 478.106145 269.028793 
L 478.67293 268.58239 
L 479.523108 268.281751 
L 479.806501 270.049142 
L 480.373286 269.365872 
L 480.940071 269.693842 
L 481.223464 269.675621 
L 481.790249 271.452122 
L 482.073641 271.288137 
L 482.357034 269.876047 
L 482.640427 269.092564 
L 482.923819 268.892139 
L 484.05739 268.901249 
L 484.624175 269.420534 
L 484.907567 269.329431 
L 485.19096 269.566298 
L 485.474352 269.475195 
L 485.757745 269.538967 
L 486.041138 268.773705 
L 486.32453 268.363744 
L 486.607923 269.056123 
L 488.024886 266.787668 
L 488.308278 266.660125 
L 488.591671 266.869661 
L 488.875063 266.814999 
L 489.725241 264.236795 
L 490.008634 263.735731 
L 490.575419 263.334879 
L 490.858812 263.207336 
L 491.142204 262.943138 
L 492.275775 261.075535 
L 493.125952 260.246501 
L 493.409345 260.993542 
L 493.692737 261.157527 
L 494.542915 261.039094 
L 494.826308 261.348843 
L 495.1097 261.121086 
L 495.393093 261.312402 
L 495.676486 261.758804 
L 496.243271 260.856889 
L 496.526663 260.638242 
L 497.660234 261.102866 
L 497.943626 261.029983 
L 498.227019 260.784006 
L 499.360589 260.355824 
L 500.210767 261.221299 
L 500.494159 261.367063 
L 500.777552 261.685922 
L 501.060945 261.667702 
L 501.344337 261.521938 
L 501.62773 260.255611 
L 501.911122 259.563231 
L 502.194515 259.299034 
L 502.7613 255.053652 
L 503.044693 248.266508 
L 503.611478 221.127041 
L 503.89487 214.676976 
L 504.178263 212.189875 
L 504.461656 211.570377 
L 504.745048 211.634149 
L 505.028441 211.451943 
L 505.311833 210.877997 
L 506.162011 207.962713 
L 506.445404 207.84428 
L 506.728796 208.481998 
L 507.862367 216.644792 
L 508.995937 226.210566 
L 509.27933 227.294687 
L 510.4129 234.090942 
L 510.979685 236.997115 
L 511.54647 238.937601 
L 511.829863 239.520657 
L 512.113255 239.493327 
L 513.530218 240.99652 
L 513.813611 241.907546 
L 514.663789 242.882344 
L 514.947181 243.410739 
L 515.230574 243.611165 
L 515.797359 244.631514 
L 516.080752 244.558632 
L 516.364144 244.185111 
L 525.149314 250.963145 
L 525.7161 250.972255 
L 526.566277 251.682856 
L 526.84967 251.855951 
L 527.133062 251.892392 
L 527.699848 253.195159 
L 527.98324 253.104056 
L 528.266633 253.368254 
L 528.833418 253.668893 
L 529.116811 254.197288 
L 529.683596 253.732664 
L 529.966988 253.167828 
L 530.250381 253.022064 
L 531.383951 253.687113 
L 531.950736 253.9422 
L 533.367699 255.217637 
L 534.217877 255.727812 
L 535.351447 256.046671 
L 535.63484 255.964678 
L 535.918233 256.101332 
L 536.201625 256.046671 
L 536.485018 255.837135 
L 536.76841 255.800694 
L 538.185373 256.283538 
L 538.468766 256.155994 
L 539.035551 255.645819 
L 539.318944 255.500055 
L 539.885729 255.563827 
L 540.169121 255.746032 
L 540.452514 255.773363 
L 541.019299 256.074002 
L 541.586084 255.855355 
L 541.869477 255.992009 
L 543.003047 256.055781 
L 543.569832 256.074002 
L 544.136618 256.02845 
L 544.703403 256.256207 
L 544.986795 256.347309 
L 545.270188 256.174214 
L 545.55358 256.237986 
L 546.120366 256.584176 
L 546.403758 256.657058 
L 546.970543 257.149012 
L 547.253936 257.258335 
L 547.820721 257.804951 
L 548.670899 259.627003 
L 548.954292 259.362806 
L 549.521077 259.481239 
L 549.804469 259.226152 
L 550.087862 258.533772 
L 550.371254 258.196692 
L 550.93804 258.050928 
L 552.638395 259.089498 
L 553.20518 259.15327 
L 555.188928 260.21006 
L 556.322499 260.465147 
L 556.889284 260.237391 
L 557.456069 259.964083 
L 557.739462 259.982303 
L 558.022854 259.86387 
L 558.306247 259.581452 
L 558.589639 259.563231 
L 558.873032 259.344585 
L 559.156425 259.289924 
L 559.439817 259.089498 
L 559.72321 259.053057 
L 560.289995 258.79797 
L 560.573388 258.697757 
L 560.85678 258.415339 
L 561.140173 257.76851 
L 561.423565 256.237986 
L 561.706958 253.395585 
L 561.99035 248.102523 
L 562.273743 238.363654 
L 562.840528 211.34262 
L 563.123921 202.487447 
L 563.407313 197.586126 
L 563.690706 196.019161 
L 563.974099 196.574887 
L 564.540884 200.373866 
L 569.075165 236.350287 
L 569.64195 238.627852 
L 570.775521 242.7548 
L 571.625698 245.105247 
L 573.042661 248.193626 
L 574.743017 250.881153 
L 575.309802 251.992605 
L 575.876587 252.739646 
L 576.15998 253.295372 
L 576.443372 252.88541 
L 576.726765 253.167828 
L 577.010157 253.258931 
L 577.29355 253.158718 
L 577.576943 253.176939 
L 578.710513 253.805547 
L 578.993906 253.759995 
L 579.277298 253.860208 
L 579.844083 254.370383 
L 580.977654 255.500055 
L 582.394617 256.948587 
L 583.244794 257.094351 
L 583.528187 257.312997 
L 584.378365 257.185453 
L 584.661757 257.258335 
L 584.94515 257.030579 
L 585.511935 256.821043 
L 586.645505 257.586305 
L 587.212291 258.570213 
L 587.495683 258.788859 
L 587.779076 259.636114 
L 588.062468 260.091627 
L 588.345861 260.328493 
L 588.629253 261.312402 
L 588.912646 261.767915 
L 589.479431 261.786135 
L 589.762824 261.777025 
L 590.046216 261.585709 
L 590.329609 261.540158 
L 590.613002 261.731474 
L 590.896394 261.503717 
L 591.463179 261.330622 
L 592.029964 261.102866 
L 592.313357 261.111976 
L 592.880142 260.638242 
L 593.163535 260.702014 
L 593.446927 260.583581 
L 593.73032 260.692904 
L 594.013713 260.56536 
L 594.86389 261.066425 
L 595.430675 261.430835 
L 595.714068 261.96834 
L 596.280853 261.904569 
L 597.131031 261.184858 
L 597.697816 260.282942 
L 597.981209 260.064296 
L 598.264601 258.961954 
L 598.547994 257.358548 
L 598.831386 254.507037 
L 599.398172 246.59022 
L 599.681564 244.257993 
L 599.964957 243.328746 
L 600.248349 243.410739 
L 600.815135 245.114358 
L 601.38192 246.863528 
L 603.365668 250.817381 
L 603.64906 250.762719 
L 604.215846 251.373107 
L 605.066023 250.471191 
L 605.632809 250.252545 
L 605.916201 250.024788 
L 606.482986 250.288986 
L 607.333164 251.300225 
L 607.616557 251.655525 
L 608.466734 253.277151 
L 609.600305 254.944329 
L 609.883697 256.046671 
L 610.16709 256.684389 
L 610.450482 256.483963 
L 610.733875 256.520404 
L 611.017268 257.07613 
L 611.584053 256.265317 
L 611.867445 256.675279 
L 612.717623 257.021469 
L 613.284408 257.167233 
L 613.851193 257.622746 
L 615.551549 258.852631 
L 615.834942 259.87298 
L 616.118334 260.465147 
L 616.685119 260.683794 
L 616.968512 260.56536 
L 617.251905 260.665573 
L 617.81869 261.512827 
L 618.385475 260.073406 
L 618.668867 259.882091 
L 619.235653 259.991414 
L 620.08583 259.982303 
L 620.652616 260.319383 
L 620.936008 260.128068 
L 621.219401 260.747565 
L 621.502793 260.656463 
L 622.069578 261.084645 
L 622.352971 260.993542 
L 622.636364 261.731474 
L 622.636364 261.731474 
" clip-path="url(#p5b0456c5d3)" style="fill: none; stroke: #1f77b4; stroke-width: 1.5; stroke-linecap: square"/>
   </g>
   <g id="line2d_16">
    <path d="M 115.363636 276.22984 
L 115.930422 276.767337 
L 116.213814 272.78222 
L 119.614525 274.255303 
L 120.18131 274.290616 
L 120.748095 273.834281 
L 121.031488 273.84197 
L 121.598273 271.24475 
L 121.881666 271.125475 
L 122.731844 271.485604 
L 123.015236 274.385626 
L 125.282377 275.228272 
L 128.399695 276.349591 
L 128.683088 276.255758 
L 128.96648 275.940652 
L 129.533266 274.065929 
L 129.816658 271.014829 
L 130.100051 270.393322 
L 130.383443 268.979579 
L 130.666836 266.77459 
L 131.517014 257.121333 
L 131.800406 255.769978 
L 132.083799 255.534801 
L 132.650584 255.689299 
L 132.933977 256.501239 
L 133.217369 257.845013 
L 133.500762 258.172778 
L 133.784154 258.001124 
L 134.067547 258.138039 
L 134.35094 257.311859 
L 134.634332 255.514597 
L 135.767902 240.322589 
L 136.051295 239.560468 
L 136.334688 239.290949 
L 136.61808 210.048963 
L 137.468258 213.472852 
L 138.601828 219.357753 
L 141.152362 233.285158 
L 142.002539 236.783514 
L 142.852717 239.387884 
L 143.13611 240.069031 
L 143.419502 259.663444 
L 144.26968 260.881427 
L 145.119858 261.641952 
L 145.970036 262.124249 
L 147.386998 262.608437 
L 149.937532 263.135562 
L 150.504317 260.548286 
L 150.787709 256.112188 
L 151.071102 253.500643 
L 151.354495 248.903192 
L 151.92128 226.524116 
L 152.771458 187.098957 
L 153.621635 137.711428 
L 153.905028 134.321672 
L 154.188421 135.753416 
L 154.471813 134.362458 
L 154.755206 133.976092 
L 155.038598 134.289873 
L 155.321991 134.057162 
L 155.888776 133.306229 
L 156.172169 131.124731 
L 156.738954 121.043475 
L 157.022346 226.647859 
L 157.305739 226.380671 
L 157.589132 225.750531 
L 158.155917 223.394186 
L 159.289487 217.605757 
L 159.57288 216.778704 
L 159.856272 216.404903 
L 160.139665 216.514058 
L 160.423057 217.092459 
L 160.989843 219.433021 
L 161.84002 224.633954 
L 162.973591 231.499058 
L 163.540376 234.156062 
L 163.823768 245.20546 
L 164.673946 246.810511 
L 165.524124 247.79959 
L 166.374302 248.432325 
L 167.791265 249.11984 
L 168.074657 249.184583 
L 168.35805 249.474432 
L 168.641442 249.137624 
L 168.924835 246.762418 
L 169.208228 242.006983 
L 170.341798 216.304525 
L 170.62519 193.978463 
L 171.191976 195.553863 
L 174.592687 206.873327 
L 177.14322 214.408625 
L 177.426612 230.346625 
L 179.977146 235.602173 
L 182.527679 240.347312 
L 183.944642 242.781402 
L 184.228035 247.218828 
L 186.778568 250.835778 
L 189.329101 254.101456 
L 190.746064 255.776634 
L 191.029457 255.181196 
L 193.863382 258.323255 
L 196.697308 261.128141 
L 197.547486 261.909373 
L 197.830879 255.891796 
L 200.664804 258.957601 
L 203.49873 261.694416 
L 204.348908 262.456689 
L 204.632301 258.488221 
L 207.466227 261.275405 
L 210.300152 263.763208 
L 211.15033 264.471551 
L 211.433723 263.536848 
L 211.717115 252.97884 
L 212.000508 249.092845 
L 212.2839 252.159172 
L 212.850686 239.54675 
L 213.134078 239.647735 
L 213.417471 241.049191 
L 213.700863 227.13903 
L 214.267649 182.498245 
L 214.551041 168.49522 
L 214.834434 161.919902 
L 215.117826 159.716637 
L 215.401219 159.457549 
L 215.684611 160.047765 
L 216.251397 162.556491 
L 216.818182 178.325029 
L 217.101574 178.18336 
L 217.384967 179.795166 
L 217.66836 176.980001 
L 217.951752 177.976837 
L 218.235145 180.055395 
L 218.80193 185.140116 
L 219.368715 181.526173 
L 219.652108 181.095845 
L 219.9355 181.434649 
L 220.502285 183.152238 
L 225.319959 200.806518 
L 227.870493 208.93095 
L 230.421026 216.266352 
L 232.971559 222.889352 
L 235.522092 228.869138 
L 238.072626 234.268177 
L 238.356018 234.834727 
L 238.639411 204.118183 
L 241.189944 211.920992 
L 243.740477 218.966006 
L 245.15744 222.57985 
L 245.440833 222.639344 
L 247.991366 228.64341 
L 250.541899 234.055224 
L 250.825292 234.563498 
L 251.108685 235.324748 
L 251.392077 235.279507 
L 251.67547 234.626136 
L 251.958862 234.638951 
L 252.242255 228.952755 
L 252.525648 229.05942 
L 252.80904 229.465171 
L 254.509396 233.258445 
L 256.776536 237.71455 
L 258.760284 241.285403 
L 259.043677 233.371231 
L 261.59421 238.333036 
L 264.144744 242.812958 
L 266.695277 246.857798 
L 269.24581 250.509811 
L 271.796343 253.807146 
L 274.630269 257.096654 
L 277.464195 260.033166 
L 280.298121 262.654563 
L 283.132047 264.99466 
L 286.249365 267.279793 
L 287.382936 268.042503 
L 287.666328 247.665231 
L 292.767395 249.082815 
L 293.050787 249.824363 
L 297.585069 251.017961 
L 298.151854 250.354586 
L 298.435246 250.473506 
L 298.718639 250.182984 
L 299.285424 249.953471 
L 299.568817 249.537156 
L 299.852209 249.894964 
L 300.702387 252.539479 
L 300.98578 253.402108 
L 301.269172 253.321931 
L 301.552565 252.834677 
L 301.835957 252.958074 
L 302.402743 254.424353 
L 303.536313 257.528442 
L 304.669883 260.036847 
L 305.803454 262.035574 
L 306.937024 263.617919 
L 308.070594 264.866296 
L 309.487557 266.061942 
L 310.90452 266.952353 
L 312.604876 267.732501 
L 314.588624 268.371595 
L 317.139157 268.925899 
L 320.539868 269.408036 
L 325.924327 269.909562 
L 336.693245 270.639733 
L 339.810564 270.830317 
L 343.77806 252.714933 
L 344.061453 252.714423 
L 344.344845 253.244129 
L 348.879126 269.052529 
L 350.012697 271.933514 
L 350.579482 273.151203 
L 350.862875 250.170552 
L 351.996445 252.411222 
L 353.130015 254.202767 
L 354.263586 255.632683 
L 355.680549 257.023735 
L 356.247334 257.481464 
L 356.530726 256.03756 
L 359.364652 259.087723 
L 362.198578 261.810575 
L 363.048756 262.568959 
L 363.332148 259.299034 
L 369.850178 260.418773 
L 370.13357 257.586305 
L 376.6516 258.713772 
L 376.934992 259.207931 
L 379.485526 259.63605 
L 380.052311 259.229492 
L 380.335703 259.365118 
L 380.619096 259.111645 
L 381.185881 258.954423 
L 381.469274 258.72986 
L 381.752666 258.796491 
L 382.319451 259.23695 
L 383.453022 259.633297 
L 383.736414 260.993542 
L 386.853733 263.536261 
L 390.254444 265.980105 
L 390.537836 259.718106 
L 393.371762 262.387524 
L 396.205688 264.765629 
L 397.055866 265.427102 
L 397.339259 260.683794 
L 400.173184 263.247826 
L 403.00711 265.532048 
L 403.857288 266.167407 
L 404.140681 261.558379 
L 406.974606 264.026969 
L 410.091925 266.432426 
L 411.79228 267.621184 
L 412.075673 270.814404 
L 415.476384 272.544903 
L 417.743525 273.572213 
L 418.026917 270.149355 
L 421.427628 271.965966 
L 425.111732 273.669507 
L 429.079228 275.239337 
L 431.062976 275.933998 
L 431.346369 268.782816 
L 434.463687 270.460712 
L 435.030472 270.509332 
L 435.597257 270.238581 
L 436.164043 269.788764 
L 436.730828 269.592708 
L 437.297613 269.756608 
L 437.864398 270.042974 
L 438.147791 263.535305 
L 438.714576 255.34783 
L 439.281361 245.134099 
L 439.564754 242.639083 
L 439.848146 241.476429 
L 440.131539 241.100879 
L 440.414931 241.164513 
L 440.981717 241.759844 
L 443.53225 245.387774 
L 445.232605 247.248864 
L 446.082783 248.089031 
L 446.366176 257.05791 
L 446.649568 253.775644 
L 446.932961 252.099143 
L 447.216353 251.471093 
L 447.499746 251.356196 
L 447.783139 262.278089 
L 448.633316 263.125295 
L 449.200102 263.671489 
L 450.333672 264.239936 
L 450.617064 263.97539 
L 451.18385 260.504746 
L 451.467242 257.465403 
L 451.750635 213.902604 
L 452.31742 207.376962 
L 452.600813 205.663949 
L 452.884205 204.792327 
L 453.167598 204.547733 
L 453.45099 204.689743 
L 453.734383 205.116209 
L 454.584561 207.230815 
L 457.701879 215.657436 
L 460.252412 221.8775 
L 462.802946 227.532939 
L 465.070086 232.127528 
L 465.353479 263.808613 
L 468.470797 266.240135 
L 471.588116 268.381419 
L 471.871508 268.562921 
L 472.154901 268.072215 
L 475.272219 269.994814 
L 478.67293 271.831435 
L 478.956323 269.028793 
L 482.357034 270.990497 
L 485.474352 272.564756 
L 485.757745 269.384093 
L 492.275775 270.607233 
L 492.559167 261.458166 
L 499.077197 263.365577 
L 499.360589 260.583581 
L 501.344337 262.410681 
L 501.62773 262.455243 
L 502.194515 261.188133 
L 502.477908 260.316364 
L 502.7613 258.453257 
L 503.044693 255.508248 
L 503.89487 242.248239 
L 504.461656 228.833516 
L 505.028441 216.392353 
L 505.311833 213.032378 
L 505.595226 211.773064 
L 505.878619 211.858278 
L 506.162011 210.185617 
L 509.846115 228.830831 
L 510.979685 233.202861 
L 511.54647 234.701373 
L 511.829863 234.877963 
L 512.113255 234.517305 
L 512.396648 233.443936 
L 512.680041 231.723176 
L 512.963433 239.757524 
L 514.380396 244.808371 
L 515.230574 247.230259 
L 516.364144 249.757411 
L 524.865922 259.909568 
L 526.84967 260.945419 
L 529.400203 262.020129 
L 532.800914 263.195287 
L 533.084307 263.284617 
L 533.367699 254.62547 
L 537.335196 256.244706 
L 538.185373 256.217311 
L 538.752158 256.456363 
L 539.885729 257.297066 
L 540.169121 255.500055 
L 541.869477 256.659471 
L 544.136618 257.907999 
L 546.687151 259.059934 
L 546.970543 256.593286 
L 547.820721 256.874229 
L 549.804469 257.543417 
L 551.788217 258.204834 
L 553.20518 258.595336 
L 553.488573 258.512252 
L 553.771965 259.107718 
L 554.622143 258.732453 
L 555.188928 258.763325 
L 556.889284 259.306751 
L 558.022854 259.689591 
L 558.589639 259.231277 
L 559.156425 258.208122 
L 559.439817 255.655688 
L 560.289995 244.703533 
L 560.573388 258.971065 
L 561.140173 254.708973 
L 561.706958 252.567217 
L 561.99035 251.965133 
L 563.123921 251.483399 
L 563.690706 250.75909 
L 563.974099 250.652729 
L 564.257491 250.877348 
L 564.540884 251.428054 
L 565.107669 253.417713 
L 567.091417 261.489196 
L 567.37481 218.111544 
L 569.925343 224.108788 
L 571.342306 227.066726 
L 572.759269 229.724187 
L 573.892839 231.968206 
L 574.176232 248.858675 
L 577.010157 252.40267 
L 579.844083 255.591068 
L 580.694261 256.483677 
L 580.977654 254.844116 
L 583.811579 258.045429 
L 586.645505 260.897385 
L 587.495683 261.69066 
L 587.779076 258.588434 
L 590.896394 261.398317 
L 594.013713 263.899713 
L 594.297105 264.112818 
L 594.580498 260.638242 
L 595.147283 261.286562 
L 595.714068 261.989107 
L 595.997461 261.860611 
L 596.280853 260.99485 
L 596.847638 256.31508 
L 597.414424 251.161015 
L 597.697816 249.479447 
L 597.981209 248.767599 
L 598.264601 248.720668 
L 598.547994 248.083167 
L 598.831386 246.264155 
L 599.964957 236.282215 
L 600.248349 236.128932 
L 600.815135 236.945881 
L 601.098527 237.466151 
L 601.38192 244.731727 
L 604.215846 249.031315 
L 606.766379 252.503044 
L 607.899949 253.933867 
L 608.183342 251.455099 
L 610.733875 254.68752 
L 611.30066 255.247453 
L 611.584053 255.321117 
L 611.867445 255.12005 
L 612.434231 253.814583 
L 613.001016 252.523633 
L 613.284408 252.106315 
L 613.567801 252.107689 
L 614.134586 252.441977 
L 614.701371 253.065329 
L 614.984764 257.905164 
L 617.81869 260.771119 
L 620.652616 263.325622 
L 621.502793 264.03616 
L 621.786186 260.692904 
L 622.636364 261.449375 
L 622.636364 261.449375 
" clip-path="url(#p5b0456c5d3)" style="fill: none; stroke: #ff7f0e; stroke-width: 1.5; stroke-linecap: square"/>
   </g>
   <g id="patch_3">
    <path d="M 90 288 
L 90 43.2 
" style="fill: none; stroke: #000000; stroke-width: 0.8; stroke-linejoin: miter; stroke-linecap: square"/>
   </g>
   <g id="patch_4">
    <path d="M 648 288 
L 648 43.2 
" style="fill: none; stroke: #000000; stroke-width: 0.8; stroke-linejoin: miter; stroke-linecap: square"/>
   </g>
   <g id="patch_5">
    <path d="M 90 288 
L 648 288 
" style="fill: none; stroke: #000000; stroke-width: 0.8; stroke-linejoin: miter; stroke-linecap: square"/>
   </g>
   <g id="patch_6">
    <path d="M 90 43.2 
L 648 43.2 
" style="fill: none; stroke: #000000; stroke-width: 0.8; stroke-linejoin: miter; stroke-linecap: square"/>
   </g>
   <g id="text_16">
    <!-- DET033 -->
    <g transform="translate(345.471563 37.2) scale(0.12 -0.12)">
     <defs>
      <path id="DejaVuSans-44" d="M 1259 4147 
L 1259 519 
L 2022 519 
Q 2988 519 3436 956 
Q 3884 1394 3884 2338 
Q 3884 3275 3436 3711 
Q 2988 4147 2022 4147 
L 1259 4147 
z
M 628 4666 
L 1925 4666 
Q 3281 4666 3915 4102 
Q 4550 3538 4550 2338 
Q 4550 1131 3912 565 
Q 3275 0 1925 0 
L 628 0 
L 628 4666 
z
" transform="scale(0.015625)"/>
      <path id="DejaVuSans-45" d="M 628 4666 
L 3578 4666 
L 3578 4134 
L 1259 4134 
L 1259 2753 
L 3481 2753 
L 3481 2222 
L 1259 2222 
L 1259 531 
L 3634 531 
L 3634 0 
L 628 0 
L 628 4666 
z
" transform="scale(0.015625)"/>
      <path id="DejaVuSans-54" d="M -19 4666 
L 3928 4666 
L 3928 4134 
L 2272 4134 
L 2272 0 
L 1638 0 
L 1638 4134 
L -19 4134 
L -19 4666 
z
" transform="scale(0.015625)"/>
     </defs>
     <use xlink:href="#DejaVuSans-44"/>
     <use xlink:href="#DejaVuSans-45" x="77.001953"/>
     <use xlink:href="#DejaVuSans-54" x="140.185547"/>
     <use xlink:href="#DejaVuSans-30" x="201.269531"/>
     <use xlink:href="#DejaVuSans-33" x="264.892578"/>
     <use xlink:href="#DejaVuSans-33" x="328.515625"/>
    </g>
   </g>
   <g id="legend_1">
    <g id="patch_7">
     <path d="M 559.04375 80.55625 
L 641 80.55625 
Q 643 80.55625 643 78.55625 
L 643 50.2 
Q 643 48.2 641 48.2 
L 559.04375 48.2 
Q 557.04375 48.2 557.04375 50.2 
L 557.04375 78.55625 
Q 557.04375 80.55625 559.04375 80.55625 
z
" style="fill: #ffffff; opacity: 0.8; stroke: #cccccc; stroke-linejoin: miter"/>
    </g>
    <g id="line2d_17">
     <path d="M 561.04375 56.298437 
L 571.04375 56.298437 
L 581.04375 56.298437 
" style="fill: none; stroke: #1f77b4; stroke-width: 1.5; stroke-linecap: square"/>
    </g>
    <g id="text_17">
     <!-- measured -->
     <g transform="translate(589.04375 59.798437) scale(0.1 -0.1)">
      <defs>
       <path id="DejaVuSans-6d" d="M 3328 2828 
Q 3544 3216 3844 3400 
Q 4144 3584 4550 3584 
Q 5097 3584 5394 3201 
Q 5691 2819 5691 2113 
L 5691 0 
L 5113 0 
L 5113 2094 
Q 5113 2597 4934 2840 
Q 4756 3084 4391 3084 
Q 3944 3084 3684 2787 
Q 3425 2491 3425 1978 
L 3425 0 
L 2847 0 
L 2847 2094 
Q 2847 2600 2669 2842 
Q 2491 3084 2119 3084 
Q 1678 3084 1418 2786 
Q 1159 2488 1159 1978 
L 1159 0 
L 581 0 
L 581 3500 
L 1159 3500 
L 1159 2956 
Q 1356 3278 1631 3431 
Q 1906 3584 2284 3584 
Q 2666 3584 2933 3390 
Q 3200 3197 3328 2828 
z
" transform="scale(0.015625)"/>
       <path id="DejaVuSans-61" d="M 2194 1759 
Q 1497 1759 1228 1600 
Q 959 1441 959 1056 
Q 959 750 1161 570 
Q 1363 391 1709 391 
Q 2188 391 2477 730 
Q 2766 1069 2766 1631 
L 2766 1759 
L 2194 1759 
z
M 3341 1997 
L 3341 0 
L 2766 0 
L 2766 531 
Q 2569 213 2275 61 
Q 1981 -91 1556 -91 
Q 1019 -91 701 211 
Q 384 513 384 1019 
Q 384 1609 779 1909 
Q 1175 2209 1959 2209 
L 2766 2209 
L 2766 2266 
Q 2766 2663 2505 2880 
Q 2244 3097 1772 3097 
Q 1472 3097 1187 3025 
Q 903 2953 641 2809 
L 641 3341 
Q 956 3463 1253 3523 
Q 1550 3584 1831 3584 
Q 2591 3584 2966 3190 
Q 3341 2797 3341 1997 
z
" transform="scale(0.015625)"/>
       <path id="DejaVuSans-75" d="M 544 1381 
L 544 3500 
L 1119 3500 
L 1119 1403 
Q 1119 906 1312 657 
Q 1506 409 1894 409 
Q 2359 409 2629 706 
Q 2900 1003 2900 1516 
L 2900 3500 
L 3475 3500 
L 3475 0 
L 2900 0 
L 2900 538 
Q 2691 219 2414 64 
Q 2138 -91 1772 -91 
Q 1169 -91 856 284 
Q 544 659 544 1381 
z
M 1991 3584 
L 1991 3584 
z
" transform="scale(0.015625)"/>
       <path id="DejaVuSans-64" d="M 2906 2969 
L 2906 4863 
L 3481 4863 
L 3481 0 
L 2906 0 
L 2906 525 
Q 2725 213 2448 61 
Q 2172 -91 1784 -91 
Q 1150 -91 751 415 
Q 353 922 353 1747 
Q 353 2572 751 3078 
Q 1150 3584 1784 3584 
Q 2172 3584 2448 3432 
Q 2725 3281 2906 2969 
z
M 947 1747 
Q 947 1113 1208 752 
Q 1469 391 1925 391 
Q 2381 391 2643 752 
Q 2906 1113 2906 1747 
Q 2906 2381 2643 2742 
Q 2381 3103 1925 3103 
Q 1469 3103 1208 2742 
Q 947 2381 947 1747 
z
" transform="scale(0.015625)"/>
      </defs>
      <use xlink:href="#DejaVuSans-6d"/>
      <use xlink:href="#DejaVuSans-65" x="97.412109"/>
      <use xlink:href="#DejaVuSans-61" x="158.935547"/>
      <use xlink:href="#DejaVuSans-73" x="220.214844"/>
      <use xlink:href="#DejaVuSans-75" x="272.314453"/>
      <use xlink:href="#DejaVuSans-72" x="335.693359"/>
      <use xlink:href="#DejaVuSans-65" x="374.556641"/>
      <use xlink:href="#DejaVuSans-64" x="436.080078"/>
     </g>
    </g>
    <g id="line2d_18">
     <path d="M 561.04375 70.976562 
L 571.04375 70.976562 
L 581.04375 70.976562 
" style="fill: none; stroke: #ff7f0e; stroke-width: 1.5; stroke-linecap: square"/>
    </g>
    <g id="text_18">
     <!-- predicted -->
     <g transform="translate(589.04375 74.476562) scale(0.1 -0.1)">
      <defs>
       <path id="DejaVuSans-70" d="M 1159 525 
L 1159 -1331 
L 581 -1331 
L 581 3500 
L 1159 3500 
L 1159 2969 
Q 1341 3281 1617 3432 
Q 1894 3584 2278 3584 
Q 2916 3584 3314 3078 
Q 3713 2572 3713 1747 
Q 3713 922 3314 415 
Q 2916 -91 2278 -91 
Q 1894 -91 1617 61 
Q 1341 213 1159 525 
z
M 3116 1747 
Q 3116 2381 2855 2742 
Q 2594 3103 2138 3103 
Q 1681 3103 1420 2742 
Q 1159 2381 1159 1747 
Q 1159 1113 1420 752 
Q 1681 391 2138 391 
Q 2594 391 2855 752 
Q 3116 1113 3116 1747 
z
" transform="scale(0.015625)"/>
       <path id="DejaVuSans-69" d="M 603 3500 
L 1178 3500 
L 1178 0 
L 603 0 
L 603 3500 
z
M 603 4863 
L 1178 4863 
L 1178 4134 
L 603 4134 
L 603 4863 
z
" transform="scale(0.015625)"/>
       <path id="DejaVuSans-63" d="M 3122 3366 
L 3122 2828 
Q 2878 2963 2633 3030 
Q 2388 3097 2138 3097 
Q 1578 3097 1268 2742 
Q 959 2388 959 1747 
Q 959 1106 1268 751 
Q 1578 397 2138 397 
Q 2388 397 2633 464 
Q 2878 531 3122 666 
L 3122 134 
Q 2881 22 2623 -34 
Q 2366 -91 2075 -91 
Q 1284 -91 818 406 
Q 353 903 353 1747 
Q 353 2603 823 3093 
Q 1294 3584 2113 3584 
Q 2378 3584 2631 3529 
Q 2884 3475 3122 3366 
z
" transform="scale(0.015625)"/>
      </defs>
      <use xlink:href="#DejaVuSans-70"/>
      <use xlink:href="#DejaVuSans-72" x="63.476562"/>
      <use xlink:href="#DejaVuSans-65" x="102.339844"/>
      <use xlink:href="#DejaVuSans-64" x="163.863281"/>
      <use xlink:href="#DejaVuSans-69" x="227.339844"/>
      <use xlink:href="#DejaVuSans-63" x="255.123047"/>
      <use xlink:href="#DejaVuSans-74" x="310.103516"/>
      <use xlink:href="#DejaVuSans-65" x="349.3125"/>
      <use xlink:href="#DejaVuSans-64" x="410.835938"/>
     </g>
    </g>
   </g>
  </g>
 </g>
 <defs>
  <clipPath id="p5b0456c5d3">
   <rect x="90" y="43.2" width="558" height="244.8"/>
  </clipPath>
 </defs>
</svg>
