<?xml version="1.0" encoding="utf-8" standalone="no"?>
<!DOCTYPE svg PUBLIC "-//W3C//DTD SVG 1.1//EN"
  "http://www.w3.org/Graphics/SVG/1.1/DTD/svg11.dtd">
<svg xmlns:xlink="http://www.w3.org/1999/xlink" width="720pt" height="360pt" viewBox="0 0 720 360" xmlns="http://www.w3.org/2000/svg" version="1.1">
 <metadata>
  <rdf:RDF xmlns:dc="http://purl.org/dc/elements/1.1/" xmlns:cc="http://creativecommons.org/ns#" xmlns:rdf="http://www.w3.org/1999/02/22-rdf-syntax-ns#">
   <cc:Work>
    <dc:type rdf:resource="http://purl.org/dc/dcmitype/StillImage"/>
    <dc:date>2023-10-23T10:54:33.563062</dc:date>
    <dc:format>image/svg+xml</dc:format>
    <dc:creator>
     <cc:Agent>
      <dc:title>Matplotlib v3.7.1, https://matplotlib.org/</dc:title>
     </cc:Agent>
    </dc:creator>
   </cc:Work>
  </rdf:RDF>
 </metadata>
 <defs>
  <style type="text/css">*{stroke-linejoin: round; stroke-linecap: butt}</style>
 </defs>
 <g id="figure_1">
  <g id="patch_1">
   <path d="M 0 360 
L 720 360 
L 720 0 
L 0 0 
z
" style="fill: #ffffff"/>
  </g>
  <g id="axes_1">
   <g id="patch_2">
    <path d="M 90 288 
L 648 288 
L 648 43.2 
L 90 43.2 
z
" style="fill: #ffffff"/>
   </g>
   <g id="matplotlib.axis_1">
    <g id="xtick_1">
     <g id="line2d_1">
      <defs>
       <path id="mdc35000346" d="M 0 0 
L 0 3.5 
" style="stroke: #000000; stroke-width: 0.8"/>
      </defs>
      <g>
       <use xlink:href="#mdc35000346" x="149.370747" y="288" style="stroke: #000000; stroke-width: 0.8"/>
      </g>
     </g>
     <g id="text_1">
      <!-- 2023-08-15 -->
      <g transform="translate(87.727405 337.765903) rotate(-30) scale(0.12 -0.12)">
       <defs>
        <path id="DejaVuSans-32" d="M 1228 531 
L 3431 531 
L 3431 0 
L 469 0 
L 469 531 
Q 828 903 1448 1529 
Q 2069 2156 2228 2338 
Q 2531 2678 2651 2914 
Q 2772 3150 2772 3378 
Q 2772 3750 2511 3984 
Q 2250 4219 1831 4219 
Q 1534 4219 1204 4116 
Q 875 4013 500 3803 
L 500 4441 
Q 881 4594 1212 4672 
Q 1544 4750 1819 4750 
Q 2544 4750 2975 4387 
Q 3406 4025 3406 3419 
Q 3406 3131 3298 2873 
Q 3191 2616 2906 2266 
Q 2828 2175 2409 1742 
Q 1991 1309 1228 531 
z
" transform="scale(0.015625)"/>
        <path id="DejaVuSans-30" d="M 2034 4250 
Q 1547 4250 1301 3770 
Q 1056 3291 1056 2328 
Q 1056 1369 1301 889 
Q 1547 409 2034 409 
Q 2525 409 2770 889 
Q 3016 1369 3016 2328 
Q 3016 3291 2770 3770 
Q 2525 4250 2034 4250 
z
M 2034 4750 
Q 2819 4750 3233 4129 
Q 3647 3509 3647 2328 
Q 3647 1150 3233 529 
Q 2819 -91 2034 -91 
Q 1250 -91 836 529 
Q 422 1150 422 2328 
Q 422 3509 836 4129 
Q 1250 4750 2034 4750 
z
" transform="scale(0.015625)"/>
        <path id="DejaVuSans-33" d="M 2597 2516 
Q 3050 2419 3304 2112 
Q 3559 1806 3559 1356 
Q 3559 666 3084 287 
Q 2609 -91 1734 -91 
Q 1441 -91 1130 -33 
Q 819 25 488 141 
L 488 750 
Q 750 597 1062 519 
Q 1375 441 1716 441 
Q 2309 441 2620 675 
Q 2931 909 2931 1356 
Q 2931 1769 2642 2001 
Q 2353 2234 1838 2234 
L 1294 2234 
L 1294 2753 
L 1863 2753 
Q 2328 2753 2575 2939 
Q 2822 3125 2822 3475 
Q 2822 3834 2567 4026 
Q 2313 4219 1838 4219 
Q 1578 4219 1281 4162 
Q 984 4106 628 3988 
L 628 4550 
Q 988 4650 1302 4700 
Q 1616 4750 1894 4750 
Q 2613 4750 3031 4423 
Q 3450 4097 3450 3541 
Q 3450 3153 3228 2886 
Q 3006 2619 2597 2516 
z
" transform="scale(0.015625)"/>
        <path id="DejaVuSans-2d" d="M 313 2009 
L 1997 2009 
L 1997 1497 
L 313 1497 
L 313 2009 
z
" transform="scale(0.015625)"/>
        <path id="DejaVuSans-38" d="M 2034 2216 
Q 1584 2216 1326 1975 
Q 1069 1734 1069 1313 
Q 1069 891 1326 650 
Q 1584 409 2034 409 
Q 2484 409 2743 651 
Q 3003 894 3003 1313 
Q 3003 1734 2745 1975 
Q 2488 2216 2034 2216 
z
M 1403 2484 
Q 997 2584 770 2862 
Q 544 3141 544 3541 
Q 544 4100 942 4425 
Q 1341 4750 2034 4750 
Q 2731 4750 3128 4425 
Q 3525 4100 3525 3541 
Q 3525 3141 3298 2862 
Q 3072 2584 2669 2484 
Q 3125 2378 3379 2068 
Q 3634 1759 3634 1313 
Q 3634 634 3220 271 
Q 2806 -91 2034 -91 
Q 1263 -91 848 271 
Q 434 634 434 1313 
Q 434 1759 690 2068 
Q 947 2378 1403 2484 
z
M 1172 3481 
Q 1172 3119 1398 2916 
Q 1625 2713 2034 2713 
Q 2441 2713 2670 2916 
Q 2900 3119 2900 3481 
Q 2900 3844 2670 4047 
Q 2441 4250 2034 4250 
Q 1625 4250 1398 4047 
Q 1172 3844 1172 3481 
z
" transform="scale(0.015625)"/>
        <path id="DejaVuSans-31" d="M 794 531 
L 1825 531 
L 1825 4091 
L 703 3866 
L 703 4441 
L 1819 4666 
L 2450 4666 
L 2450 531 
L 3481 531 
L 3481 0 
L 794 0 
L 794 531 
z
" transform="scale(0.015625)"/>
        <path id="DejaVuSans-35" d="M 691 4666 
L 3169 4666 
L 3169 4134 
L 1269 4134 
L 1269 2991 
Q 1406 3038 1543 3061 
Q 1681 3084 1819 3084 
Q 2600 3084 3056 2656 
Q 3513 2228 3513 1497 
Q 3513 744 3044 326 
Q 2575 -91 1722 -91 
Q 1428 -91 1123 -41 
Q 819 9 494 109 
L 494 744 
Q 775 591 1075 516 
Q 1375 441 1709 441 
Q 2250 441 2565 725 
Q 2881 1009 2881 1497 
Q 2881 1984 2565 2268 
Q 2250 2553 1709 2553 
Q 1456 2553 1204 2497 
Q 953 2441 691 2322 
L 691 4666 
z
" transform="scale(0.015625)"/>
       </defs>
       <use xlink:href="#DejaVuSans-32"/>
       <use xlink:href="#DejaVuSans-30" x="63.623047"/>
       <use xlink:href="#DejaVuSans-32" x="127.246094"/>
       <use xlink:href="#DejaVuSans-33" x="190.869141"/>
       <use xlink:href="#DejaVuSans-2d" x="254.492188"/>
       <use xlink:href="#DejaVuSans-30" x="290.576172"/>
       <use xlink:href="#DejaVuSans-38" x="354.199219"/>
       <use xlink:href="#DejaVuSans-2d" x="417.822266"/>
       <use xlink:href="#DejaVuSans-31" x="453.90625"/>
       <use xlink:href="#DejaVuSans-35" x="517.529297"/>
      </g>
     </g>
    </g>
    <g id="xtick_2">
     <g id="line2d_2">
      <g>
       <use xlink:href="#mdc35000346" x="264.994921" y="288" style="stroke: #000000; stroke-width: 0.8"/>
      </g>
     </g>
     <g id="text_2">
      <!-- 2023-09-01 -->
      <g transform="translate(203.35158 337.765903) rotate(-30) scale(0.12 -0.12)">
       <defs>
        <path id="DejaVuSans-39" d="M 703 97 
L 703 672 
Q 941 559 1184 500 
Q 1428 441 1663 441 
Q 2288 441 2617 861 
Q 2947 1281 2994 2138 
Q 2813 1869 2534 1725 
Q 2256 1581 1919 1581 
Q 1219 1581 811 2004 
Q 403 2428 403 3163 
Q 403 3881 828 4315 
Q 1253 4750 1959 4750 
Q 2769 4750 3195 4129 
Q 3622 3509 3622 2328 
Q 3622 1225 3098 567 
Q 2575 -91 1691 -91 
Q 1453 -91 1209 -44 
Q 966 3 703 97 
z
M 1959 2075 
Q 2384 2075 2632 2365 
Q 2881 2656 2881 3163 
Q 2881 3666 2632 3958 
Q 2384 4250 1959 4250 
Q 1534 4250 1286 3958 
Q 1038 3666 1038 3163 
Q 1038 2656 1286 2365 
Q 1534 2075 1959 2075 
z
" transform="scale(0.015625)"/>
       </defs>
       <use xlink:href="#DejaVuSans-32"/>
       <use xlink:href="#DejaVuSans-30" x="63.623047"/>
       <use xlink:href="#DejaVuSans-32" x="127.246094"/>
       <use xlink:href="#DejaVuSans-33" x="190.869141"/>
       <use xlink:href="#DejaVuSans-2d" x="254.492188"/>
       <use xlink:href="#DejaVuSans-30" x="290.576172"/>
       <use xlink:href="#DejaVuSans-39" x="354.199219"/>
       <use xlink:href="#DejaVuSans-2d" x="417.822266"/>
       <use xlink:href="#DejaVuSans-30" x="453.90625"/>
       <use xlink:href="#DejaVuSans-31" x="517.529297"/>
      </g>
     </g>
    </g>
    <g id="xtick_3">
     <g id="line2d_3">
      <g>
       <use xlink:href="#mdc35000346" x="360.21483" y="288" style="stroke: #000000; stroke-width: 0.8"/>
      </g>
     </g>
     <g id="text_3">
      <!-- 2023-09-15 -->
      <g transform="translate(298.571488 337.765903) rotate(-30) scale(0.12 -0.12)">
       <use xlink:href="#DejaVuSans-32"/>
       <use xlink:href="#DejaVuSans-30" x="63.623047"/>
       <use xlink:href="#DejaVuSans-32" x="127.246094"/>
       <use xlink:href="#DejaVuSans-33" x="190.869141"/>
       <use xlink:href="#DejaVuSans-2d" x="254.492188"/>
       <use xlink:href="#DejaVuSans-30" x="290.576172"/>
       <use xlink:href="#DejaVuSans-39" x="354.199219"/>
       <use xlink:href="#DejaVuSans-2d" x="417.822266"/>
       <use xlink:href="#DejaVuSans-31" x="453.90625"/>
       <use xlink:href="#DejaVuSans-35" x="517.529297"/>
      </g>
     </g>
    </g>
    <g id="xtick_4">
     <g id="line2d_4">
      <g>
       <use xlink:href="#mdc35000346" x="469.037583" y="288" style="stroke: #000000; stroke-width: 0.8"/>
      </g>
     </g>
     <g id="text_4">
      <!-- 2023-10-01 -->
      <g transform="translate(407.394241 337.765903) rotate(-30) scale(0.12 -0.12)">
       <use xlink:href="#DejaVuSans-32"/>
       <use xlink:href="#DejaVuSans-30" x="63.623047"/>
       <use xlink:href="#DejaVuSans-32" x="127.246094"/>
       <use xlink:href="#DejaVuSans-33" x="190.869141"/>
       <use xlink:href="#DejaVuSans-2d" x="254.492188"/>
       <use xlink:href="#DejaVuSans-31" x="290.576172"/>
       <use xlink:href="#DejaVuSans-30" x="354.199219"/>
       <use xlink:href="#DejaVuSans-2d" x="417.822266"/>
       <use xlink:href="#DejaVuSans-30" x="453.90625"/>
       <use xlink:href="#DejaVuSans-31" x="517.529297"/>
      </g>
     </g>
    </g>
    <g id="xtick_5">
     <g id="line2d_5">
      <g>
       <use xlink:href="#mdc35000346" x="564.257491" y="288" style="stroke: #000000; stroke-width: 0.8"/>
      </g>
     </g>
     <g id="text_5">
      <!-- 2023-10-15 -->
      <g transform="translate(502.614149 337.765903) rotate(-30) scale(0.12 -0.12)">
       <use xlink:href="#DejaVuSans-32"/>
       <use xlink:href="#DejaVuSans-30" x="63.623047"/>
       <use xlink:href="#DejaVuSans-32" x="127.246094"/>
       <use xlink:href="#DejaVuSans-33" x="190.869141"/>
       <use xlink:href="#DejaVuSans-2d" x="254.492188"/>
       <use xlink:href="#DejaVuSans-31" x="290.576172"/>
       <use xlink:href="#DejaVuSans-30" x="354.199219"/>
       <use xlink:href="#DejaVuSans-2d" x="417.822266"/>
       <use xlink:href="#DejaVuSans-31" x="453.90625"/>
       <use xlink:href="#DejaVuSans-35" x="517.529297"/>
      </g>
     </g>
    </g>
   </g>
   <g id="matplotlib.axis_2">
    <g id="ytick_1">
     <g id="line2d_6">
      <defs>
       <path id="m60b1a800f8" d="M 0 0 
L -3.5 0 
" style="stroke: #000000; stroke-width: 0.8"/>
      </defs>
      <g>
       <use xlink:href="#m60b1a800f8" x="90" y="275.211298" style="stroke: #000000; stroke-width: 0.8"/>
      </g>
     </g>
     <g id="text_6">
      <!-- 2.6 -->
      <g transform="translate(63.91625 279.770361) scale(0.12 -0.12)">
       <defs>
        <path id="DejaVuSans-2e" d="M 684 794 
L 1344 794 
L 1344 0 
L 684 0 
L 684 794 
z
" transform="scale(0.015625)"/>
        <path id="DejaVuSans-36" d="M 2113 2584 
Q 1688 2584 1439 2293 
Q 1191 2003 1191 1497 
Q 1191 994 1439 701 
Q 1688 409 2113 409 
Q 2538 409 2786 701 
Q 3034 994 3034 1497 
Q 3034 2003 2786 2293 
Q 2538 2584 2113 2584 
z
M 3366 4563 
L 3366 3988 
Q 3128 4100 2886 4159 
Q 2644 4219 2406 4219 
Q 1781 4219 1451 3797 
Q 1122 3375 1075 2522 
Q 1259 2794 1537 2939 
Q 1816 3084 2150 3084 
Q 2853 3084 3261 2657 
Q 3669 2231 3669 1497 
Q 3669 778 3244 343 
Q 2819 -91 2113 -91 
Q 1303 -91 875 529 
Q 447 1150 447 2328 
Q 447 3434 972 4092 
Q 1497 4750 2381 4750 
Q 2619 4750 2861 4703 
Q 3103 4656 3366 4563 
z
" transform="scale(0.015625)"/>
       </defs>
       <use xlink:href="#DejaVuSans-32"/>
       <use xlink:href="#DejaVuSans-2e" x="63.623047"/>
       <use xlink:href="#DejaVuSans-36" x="95.410156"/>
      </g>
     </g>
    </g>
    <g id="ytick_2">
     <g id="line2d_7">
      <g>
       <use xlink:href="#m60b1a800f8" x="90" y="244.123595" style="stroke: #000000; stroke-width: 0.8"/>
      </g>
     </g>
     <g id="text_7">
      <!-- 2.7 -->
      <g transform="translate(63.91625 248.682657) scale(0.12 -0.12)">
       <defs>
        <path id="DejaVuSans-37" d="M 525 4666 
L 3525 4666 
L 3525 4397 
L 1831 0 
L 1172 0 
L 2766 4134 
L 525 4134 
L 525 4666 
z
" transform="scale(0.015625)"/>
       </defs>
       <use xlink:href="#DejaVuSans-32"/>
       <use xlink:href="#DejaVuSans-2e" x="63.623047"/>
       <use xlink:href="#DejaVuSans-37" x="95.410156"/>
      </g>
     </g>
    </g>
    <g id="ytick_3">
     <g id="line2d_8">
      <g>
       <use xlink:href="#m60b1a800f8" x="90" y="213.035891" style="stroke: #000000; stroke-width: 0.8"/>
      </g>
     </g>
     <g id="text_8">
      <!-- 2.8 -->
      <g transform="translate(63.91625 217.594954) scale(0.12 -0.12)">
       <use xlink:href="#DejaVuSans-32"/>
       <use xlink:href="#DejaVuSans-2e" x="63.623047"/>
       <use xlink:href="#DejaVuSans-38" x="95.410156"/>
      </g>
     </g>
    </g>
    <g id="ytick_4">
     <g id="line2d_9">
      <g>
       <use xlink:href="#m60b1a800f8" x="90" y="181.948188" style="stroke: #000000; stroke-width: 0.8"/>
      </g>
     </g>
     <g id="text_9">
      <!-- 2.9 -->
      <g transform="translate(63.91625 186.507251) scale(0.12 -0.12)">
       <use xlink:href="#DejaVuSans-32"/>
       <use xlink:href="#DejaVuSans-2e" x="63.623047"/>
       <use xlink:href="#DejaVuSans-39" x="95.410156"/>
      </g>
     </g>
    </g>
    <g id="ytick_5">
     <g id="line2d_10">
      <g>
       <use xlink:href="#m60b1a800f8" x="90" y="150.860485" style="stroke: #000000; stroke-width: 0.8"/>
      </g>
     </g>
     <g id="text_10">
      <!-- 3.0 -->
      <g transform="translate(63.91625 155.419547) scale(0.12 -0.12)">
       <use xlink:href="#DejaVuSans-33"/>
       <use xlink:href="#DejaVuSans-2e" x="63.623047"/>
       <use xlink:href="#DejaVuSans-30" x="95.410156"/>
      </g>
     </g>
    </g>
    <g id="ytick_6">
     <g id="line2d_11">
      <g>
       <use xlink:href="#m60b1a800f8" x="90" y="119.772781" style="stroke: #000000; stroke-width: 0.8"/>
      </g>
     </g>
     <g id="text_11">
      <!-- 3.1 -->
      <g transform="translate(63.91625 124.331844) scale(0.12 -0.12)">
       <use xlink:href="#DejaVuSans-33"/>
       <use xlink:href="#DejaVuSans-2e" x="63.623047"/>
       <use xlink:href="#DejaVuSans-31" x="95.410156"/>
      </g>
     </g>
    </g>
    <g id="ytick_7">
     <g id="line2d_12">
      <g>
       <use xlink:href="#m60b1a800f8" x="90" y="88.685078" style="stroke: #000000; stroke-width: 0.8"/>
      </g>
     </g>
     <g id="text_12">
      <!-- 3.2 -->
      <g transform="translate(63.91625 93.244141) scale(0.12 -0.12)">
       <use xlink:href="#DejaVuSans-33"/>
       <use xlink:href="#DejaVuSans-2e" x="63.623047"/>
       <use xlink:href="#DejaVuSans-32" x="95.410156"/>
      </g>
     </g>
    </g>
    <g id="ytick_8">
     <g id="line2d_13">
      <g>
       <use xlink:href="#m60b1a800f8" x="90" y="57.597375" style="stroke: #000000; stroke-width: 0.8"/>
      </g>
     </g>
     <g id="text_13">
      <!-- 3.3 -->
      <g transform="translate(63.91625 62.156437) scale(0.12 -0.12)">
       <use xlink:href="#DejaVuSans-33"/>
       <use xlink:href="#DejaVuSans-2e" x="63.623047"/>
       <use xlink:href="#DejaVuSans-33" x="95.410156"/>
      </g>
     </g>
    </g>
    <g id="text_14">
     <!-- Meters -->
     <g transform="translate(57.836562 182.6875) rotate(-90) scale(0.1 -0.1)">
      <defs>
       <path id="DejaVuSans-4d" d="M 628 4666 
L 1569 4666 
L 2759 1491 
L 3956 4666 
L 4897 4666 
L 4897 0 
L 4281 0 
L 4281 4097 
L 3078 897 
L 2444 897 
L 1241 4097 
L 1241 0 
L 628 0 
L 628 4666 
z
" transform="scale(0.015625)"/>
       <path id="DejaVuSans-65" d="M 3597 1894 
L 3597 1613 
L 953 1613 
Q 991 1019 1311 708 
Q 1631 397 2203 397 
Q 2534 397 2845 478 
Q 3156 559 3463 722 
L 3463 178 
Q 3153 47 2828 -22 
Q 2503 -91 2169 -91 
Q 1331 -91 842 396 
Q 353 884 353 1716 
Q 353 2575 817 3079 
Q 1281 3584 2069 3584 
Q 2775 3584 3186 3129 
Q 3597 2675 3597 1894 
z
M 3022 2063 
Q 3016 2534 2758 2815 
Q 2500 3097 2075 3097 
Q 1594 3097 1305 2825 
Q 1016 2553 972 2059 
L 3022 2063 
z
" transform="scale(0.015625)"/>
       <path id="DejaVuSans-74" d="M 1172 4494 
L 1172 3500 
L 2356 3500 
L 2356 3053 
L 1172 3053 
L 1172 1153 
Q 1172 725 1289 603 
Q 1406 481 1766 481 
L 2356 481 
L 2356 0 
L 1766 0 
Q 1100 0 847 248 
Q 594 497 594 1153 
L 594 3053 
L 172 3053 
L 172 3500 
L 594 3500 
L 594 4494 
L 1172 4494 
z
" transform="scale(0.015625)"/>
       <path id="DejaVuSans-72" d="M 2631 2963 
Q 2534 3019 2420 3045 
Q 2306 3072 2169 3072 
Q 1681 3072 1420 2755 
Q 1159 2438 1159 1844 
L 1159 0 
L 581 0 
L 581 3500 
L 1159 3500 
L 1159 2956 
Q 1341 3275 1631 3429 
Q 1922 3584 2338 3584 
Q 2397 3584 2469 3576 
Q 2541 3569 2628 3553 
L 2631 2963 
z
" transform="scale(0.015625)"/>
       <path id="DejaVuSans-73" d="M 2834 3397 
L 2834 2853 
Q 2591 2978 2328 3040 
Q 2066 3103 1784 3103 
Q 1356 3103 1142 2972 
Q 928 2841 928 2578 
Q 928 2378 1081 2264 
Q 1234 2150 1697 2047 
L 1894 2003 
Q 2506 1872 2764 1633 
Q 3022 1394 3022 966 
Q 3022 478 2636 193 
Q 2250 -91 1575 -91 
Q 1294 -91 989 -36 
Q 684 19 347 128 
L 347 722 
Q 666 556 975 473 
Q 1284 391 1588 391 
Q 1994 391 2212 530 
Q 2431 669 2431 922 
Q 2431 1156 2273 1281 
Q 2116 1406 1581 1522 
L 1381 1569 
Q 847 1681 609 1914 
Q 372 2147 372 2553 
Q 372 3047 722 3315 
Q 1072 3584 1716 3584 
Q 2034 3584 2315 3537 
Q 2597 3491 2834 3397 
z
" transform="scale(0.015625)"/>
      </defs>
      <use xlink:href="#DejaVuSans-4d"/>
      <use xlink:href="#DejaVuSans-65" x="86.279297"/>
      <use xlink:href="#DejaVuSans-74" x="147.802734"/>
      <use xlink:href="#DejaVuSans-65" x="187.011719"/>
      <use xlink:href="#DejaVuSans-72" x="248.535156"/>
      <use xlink:href="#DejaVuSans-73" x="289.648438"/>
     </g>
    </g>
   </g>
   <g id="line2d_14">
    <path d="M 115.363636 210.140394 
L 115.647029 210.710189 
L 115.930422 210.295792 
L 116.213814 210.399392 
L 116.497207 210.710189 
L 117.063992 210.55479 
L 117.347384 210.710189 
L 117.630777 211.124586 
L 117.91417 211.953379 
L 118.197562 211.538982 
L 118.480955 211.538982 
L 119.04774 212.419575 
L 119.331133 214.698756 
L 119.614525 214.439758 
L 119.897918 213.869963 
L 120.464703 215.009554 
L 121.314881 218.107168 
L 121.598273 218.728763 
L 121.881666 220.759307 
L 122.448451 217.599532 
L 123.015236 215.890146 
L 124.148807 217.754931 
L 124.432199 217.495933 
L 124.715592 216.563541 
L 125.282377 216.563541 
L 125.565769 215.838347 
L 125.849162 216.511741 
L 126.132555 218.635524 
L 126.415947 218.376526 
L 126.69934 219.049921 
L 127.266125 217.288735 
L 127.549518 219.308918 
L 127.83291 219.723315 
L 128.116303 222.209695 
L 128.399695 221.432701 
L 128.96648 222.468692 
L 129.533266 219.10172 
L 129.816658 218.790923 
L 130.100051 216.977938 
L 130.383443 216.252743 
L 130.666836 216.66714 
L 130.950229 217.962129 
L 131.517014 218.635524 
L 131.800406 218.583724 
L 132.083799 216.149144 
L 132.933977 222.209695 
L 133.217369 221.847098 
L 133.500762 219.982313 
L 133.784154 219.826914 
L 134.067547 218.842722 
L 134.634332 215.734748 
L 135.201117 210.140394 
L 135.48451 210.502991 
L 136.051295 202.629455 
L 136.334688 201.593464 
L 136.61808 201.127268 
L 136.901473 201.904261 
L 137.184865 202.215059 
L 137.751651 205.478432 
L 138.035043 204.805037 
L 138.318436 205.841029 
L 138.885221 209.156202 
L 139.168614 215.42395 
L 139.452006 216.097345 
L 140.018791 211.74618 
L 140.302184 210.969187 
L 140.585576 210.813788 
L 140.868969 211.953379 
L 141.152362 212.264176 
L 142.002539 211.642581 
L 261.027425 215.734748 
L 261.310818 215.42395 
L 261.59421 217.236935 
L 261.877603 221.329102 
L 262.160995 219.775115 
L 262.444388 219.10172 
L 265.845099 218.045009 
L 266.411884 218.169328 
L 266.695277 218.480125 
L 266.978669 218.272927 
L 267.262062 218.739123 
L 267.545455 218.739123 
L 267.828847 219.049921 
L 268.11224 218.635524 
L 268.395632 220.085912 
L 268.679025 220.500309 
L 269.24581 218.946321 
L 269.812595 220.137712 
L 270.37938 222.76913 
L 270.662773 222.77949 
L 270.946166 224.178078 
L 271.229558 224.126279 
L 271.512951 227.078855 
L 272.079736 221.070104 
L 272.363128 220.396709 
L 272.646521 219.308918 
L 272.929914 218.946321 
L 273.213306 219.516117 
L 273.496699 219.723315 
L 273.780091 219.619716 
L 274.063484 220.552108 
L 274.346877 221.070104 
L 274.913662 221.070104 
L 275.197054 223.867281 
L 275.480447 224.540675 
L 275.76384 223.452884 
L 276.047232 223.711882 
L 276.330625 223.660083 
L 276.614017 224.02268 
L 276.89741 224.02268 
L 277.180802 225.369469 
L 277.464195 224.592475 
L 277.747588 222.986688 
L 278.03098 223.401085 
L 278.314373 226.094663 
L 278.597765 223.142087 
L 278.881158 222.77949 
L 279.164551 225.21407 
L 279.447943 223.401085 
L 279.731336 222.883089 
L 280.298121 220.966505 
L 281.148299 224.229878 
L 281.431691 224.333477 
L 281.715084 223.556484 
L 281.998476 225.058671 
L 282.281869 229.668833 
L 283.132047 224.851473 
L 283.698832 227.286053 
L 283.982224 226.664458 
L 284.265617 228.270245 
L 284.54901 227.555411 
L 285.115795 228.736441 
L 285.399187 225.576667 
L 285.68258 223.867281 
L 285.965973 225.058671 
L 286.249365 223.090287 
L 286.532758 224.02268 
L 286.81615 226.146462 
L 287.382936 225.421268 
L 287.666328 225.421268 
L 287.949721 225.21407 
L 288.233113 225.26587 
L 288.516506 225.058671 
L 288.799898 226.664458 
L 289.083291 229.409835 
L 289.366684 228.632842 
L 289.650076 226.664458 
L 289.933469 226.40546 
L 291.350432 232.828607 
L 291.633824 232.725008 
L 291.917217 236.817175 
L 292.484002 229.720633 
L 292.767395 228.373844 
L 293.050787 227.70045 
L 293.33418 227.441452 
L 293.617572 226.353661 
L 293.900965 225.732066 
L 294.184358 226.301861 
L 294.46775 225.939264 
L 294.751143 226.353661 
L 295.034535 227.182454 
L 295.317928 226.975255 
L 296.168106 232.207013 
L 296.451498 230.445827 
L 296.734891 230.445827 
L 297.018283 231.740816 
L 297.301676 234.123597 
L 297.585069 232.51781 
L 298.151854 234.537993 
L 298.718639 231.27462 
L 299.002031 232.51781 
L 299.852209 227.752249 
L 300.135602 226.871656 
L 300.418994 227.182454 
L 300.702387 226.664458 
L 300.98578 226.560859 
L 301.552565 227.286053 
L 301.835957 227.389652 
L 302.11935 227.234253 
L 302.402743 227.855848 
L 302.969528 225.835665 
L 303.25292 223.815481 
L 303.536313 223.297486 
L 303.819705 224.126279 
L 304.103098 227.027055 
L 304.386491 227.130654 
L 304.669883 226.353661 
L 304.953276 226.042863 
L 305.236668 225.524867 
L 305.520061 224.747874 
L 306.086846 217.599532 
L 306.370239 216.149144 
L 306.937024 211.84978 
L 307.503809 209.829596 
L 307.787202 208.897204 
L 308.070594 209.4152 
L 308.353987 211.383583 
L 308.637379 210.761989 
L 308.920772 211.331784 
L 309.487557 213.248368 
L 310.054342 215.372151 
L 310.337735 215.42395 
L 310.621127 217.547733 
L 310.90452 217.547733 
L 311.187913 216.615341 
L 311.471305 217.288735 
L 311.754698 215.734748 
L 312.03809 215.42395 
L 312.321483 213.455566 
L 312.604876 212.782172 
L 312.888268 210.036795 
L 313.171661 209.518799 
L 314.021838 206.773421 
L 314.305231 206.151826 
L 314.588624 206.618023 
L 314.872016 206.100027 
L 315.155409 206.359025 
L 315.438801 205.996428 
L 315.722194 206.462624 
L 316.005587 206.669822 
L 316.288979 207.187818 
L 316.855764 210.275073 
L 317.139157 209.466999 
L 317.42255 210.969187 
L 317.705942 211.538982 
L 317.989335 211.694381 
L 318.272727 213.869963 
L 318.839512 214.439758 
L 319.122905 214.646957 
L 319.68969 212.419575 
L 319.973083 212.523174 
L 320.539868 214.025362 
L 320.823261 213.921763 
L 321.106653 214.23256 
L 321.390046 214.28436 
L 321.673438 215.42395 
L 321.956831 215.113153 
L 322.240223 216.045545 
L 322.523616 215.734748 
L 322.807009 218.376526 
L 323.090401 222.261494 
L 323.657186 218.065729 
L 323.940579 219.049921 
L 324.223972 219.308918 
L 325.074149 222.157895 
L 325.357542 222.831289 
L 325.640934 224.799673 
L 325.924327 227.70045 
L 326.20772 222.157895 
L 326.491112 219.826914 
L 326.774505 219.205319 
L 327.057897 219.671515 
L 327.34129 219.723315 
L 327.624683 219.464317 
L 327.908075 219.826914 
L 328.191468 219.516117 
L 328.47486 220.241311 
L 328.758253 220.552108 
L 329.041646 220.603908 
L 329.325038 221.277302 
L 329.891823 226.45726 
L 330.458608 222.72769 
L 330.742001 222.520492 
L 331.025394 224.488876 
L 331.308786 224.437076 
L 331.592179 223.97088 
L 331.875571 225.939264 
L 332.158964 226.560859 
L 332.442357 225.887464 
L 332.725749 223.349285 
L 333.009142 223.090287 
L 333.292534 221.795298 
L 333.575927 221.639899 
L 333.859319 223.401085 
L 334.142712 223.763682 
L 334.426105 223.401085 
L 334.99289 224.178078 
L 335.276282 223.452884 
L 335.559675 223.452884 
L 335.843068 222.624091 
L 336.12646 222.468692 
L 336.409853 222.883089 
L 336.976638 218.894522 
L 337.543423 218.376526 
L 337.826816 218.169328 
L 338.110208 217.754931 
L 338.393601 217.029737 
L 338.676993 216.822539 
L 338.960386 215.890146 
L 339.527171 215.320351 
L 339.810564 214.336159 
L 343.494667 208.327409 
L 343.77806 205.582031 
L 344.061453 206.307225 
L 344.344845 203.820846 
L 344.628238 205.219434 
L 344.91163 205.944628 
L 345.195023 205.115835 
L 345.478415 206.773421 
L 345.761808 207.602215 
L 346.045201 209.052603 
L 346.328593 209.725997 
L 346.611986 203.458249 
L 347.178771 198.899886 
L 347.462164 198.951686 
L 347.745556 198.019293 
L 348.028949 197.967494 
L 348.312341 197.397698 
L 348.595734 195.118517 
L 348.879126 195.584713 
L 349.162519 195.118517 
L 349.445912 195.636513 
L 349.729304 194.80772 
L 350.012697 194.600521 
L 350.296089 195.636513 
L 350.579482 198.43369 
L 350.862875 198.38189 
L 351.146267 198.019293 
L 351.42966 200.194875 
L 351.713052 200.86827 
L 351.996445 199.780479 
L 352.279837 200.81647 
L 352.56323 200.764671 
L 352.846623 203.30285 
L 353.130015 207.964812 
L 353.413408 203.043852 
L 353.6968 201.645263 
L 354.546978 203.199251 
L 354.830371 203.458249 
L 355.113763 204.390641 
L 355.680549 205.064035 
L 355.963941 205.115835 
L 356.530726 205.530232 
L 357.097511 210.451191 
L 357.380904 208.379208 
L 357.664297 207.602215 
L 357.947689 208.534607 
L 358.231082 210.502991 
L 358.797867 211.590782 
L 359.08126 213.092969 
L 359.931437 219.930513 
L 360.21483 213.455566 
L 360.498222 211.383583 
L 360.781615 211.228185 
L 361.3484 211.435383 
L 361.915185 211.79798 
L 362.198578 212.108778 
L 362.481971 211.84978 
L 362.765363 212.367775 
L 363.048756 212.160577 
L 363.332148 212.730372 
L 363.615541 215.42395 
L 363.898933 216.045545 
L 364.182326 215.320351 
L 364.465719 214.28436 
L 364.749111 215.320351 
L 365.032504 215.838347 
L 365.315896 217.288735 
L 365.599289 217.133336 
L 365.882682 218.687324 
L 366.166074 219.049921 
L 366.732859 223.556484 
L 367.016252 217.133336 
L 367.299644 215.786547 
L 367.583037 215.009554 
L 368.149822 214.750556 
L 368.716607 215.993746 
L 369 215.838347 
L 369.283393 216.252743 
L 369.566785 215.993746 
L 369.850178 216.71894 
L 370.13357 215.579349 
L 370.700356 216.252743 
L 370.983748 216.926138 
L 371.267141 217.299095 
L 372.684104 216.553181 
L 372.967496 216.66714 
L 373.250889 216.563541 
L 373.534281 217.495933 
L 373.817674 217.340535 
L 374.101067 216.511741 
L 374.384459 217.288735 
L 374.667852 217.599532 
L 374.951244 216.977938 
L 375.234637 216.926138 
L 375.518029 217.288735 
L 375.801422 217.962129 
L 376.084815 217.806731 
L 376.368207 218.169328 
L 376.6516 217.91033 
L 376.934992 217.962129 
L 377.218385 218.324726 
L 377.501778 217.806731 
L 377.78517 217.962129 
L 378.068563 217.962129 
L 378.351955 219.10172 
L 378.635348 218.531925 
L 379.202133 219.930513 
L 379.768918 223.245686 
L 380.335703 225.576667 
L 380.902489 218.998121 
L 381.185881 219.257119 
L 381.469274 218.531925 
L 381.752666 218.480125 
L 382.036059 218.998121 
L 382.319451 218.894522 
L 382.602844 218.998121 
L 382.886237 218.583724 
L 383.169629 219.308918 
L 383.453022 218.687324 
L 383.736414 219.10172 
L 384.3032 223.349285 
L 384.586592 219.567916 
L 384.869985 220.29311 
L 385.153377 220.552108 
L 385.43677 221.090824 
L 385.720163 221.090824 
L 399.606399 225.069031 
L 399.889792 226.353661 
L 400.173184 225.006872 
L 400.456577 225.16227 
L 401.023362 222.002496 
L 401.590147 220.759307 
L 401.87354 221.070104 
L 403.00711 221.277302 
L 403.290503 221.795298 
L 403.573895 221.432701 
L 403.857288 221.639899 
L 404.140681 221.173703 
L 404.424073 222.106095 
L 404.707466 222.520492 
L 404.990858 221.898897 
L 405.274251 222.72769 
L 405.557643 221.950697 
L 405.841036 224.696074 
L 406.124429 224.074479 
L 406.407821 223.763682 
L 406.691214 224.696074 
L 406.974606 227.286053 
L 407.257999 226.353661 
L 407.541392 226.871656 
L 412.075673 225.732066 
L 412.359066 224.955072 
L 414.059421 231.222821 
L 414.342814 230.601226 
L 414.626206 228.166646 
L 415.192991 225.835665 
L 415.476384 225.732066 
L 415.759777 225.939264 
L 416.043169 225.576667 
L 416.326562 225.680266 
L 416.609954 225.991064 
L 416.893347 227.078855 
L 417.176739 227.70045 
L 418.026917 226.560859 
L 418.593702 229.668833 
L 418.877095 227.59685 
L 419.44388 228.529243 
L 419.727273 228.581042 
L 420.010665 228.373844 
L 421.144236 232.362411 
L 421.427628 228.684641 
L 421.994413 225.732066 
L 422.277806 227.286053 
L 422.561199 226.768057 
L 422.844591 227.078855 
L 423.127984 226.871656 
L 423.411376 228.270245 
L 423.694769 227.286053 
L 423.978162 228.684641 
L 424.261554 229.306236 
L 424.544947 228.373844 
L 425.111732 233.139405 
L 425.678517 229.720633 
L 426.528695 231.27462 
L 426.812087 233.502002 
L 427.09548 232.932207 
L 427.378873 231.948015 
L 427.662265 233.605601 
L 428.512443 229.409835 
L 428.795835 229.824232 
L 429.362621 226.923456 
L 429.929406 227.907648 
L 430.212798 228.89184 
L 430.496191 228.788241 
L 430.779584 230.497627 
L 431.062976 230.497627 
L 431.346369 230.653025 
L 431.629761 231.32642 
L 431.913154 232.51781 
L 432.196546 232.051614 
L 432.479939 230.342228 
L 432.763332 231.948015 
L 433.046724 231.792616 
L 433.330117 232.258812 
L 433.613509 233.087605 
L 433.896902 233.243004 
L 434.180295 231.015622 
L 434.463687 230.497627 
L 434.74708 229.409835 
L 435.030472 229.409835 
L 435.313865 229.202637 
L 436.164043 229.409835 
L 436.447435 228.529243 
L 436.730828 228.684641 
L 437.01422 229.461635 
L 437.297613 228.632842 
L 437.864398 228.84004 
L 438.147791 228.322044 
L 438.431183 229.150838 
L 438.714576 228.684641 
L 438.997969 228.995439 
L 439.281361 230.13503 
L 439.564754 230.394027 
L 439.848146 229.979631 
L 440.414931 228.270245 
L 440.981717 227.493251 
L 441.265109 226.716258 
L 441.548502 225.317669 
L 441.831894 225.369469 
L 442.115287 225.732066 
L 442.965465 224.385277 
L 443.53225 225.16227 
L 443.815642 224.955072 
L 444.099035 224.903272 
L 444.66582 224.488876 
L 444.949213 224.540675 
L 445.232605 224.074479 
L 445.799391 224.540675 
L 446.366176 224.799673 
L 446.649568 225.783865 
L 446.932961 225.317669 
L 447.216353 225.783865 
L 447.499746 224.903272 
L 448.066531 224.903272 
L 448.349924 224.385277 
L 448.633316 224.333477 
L 448.916709 223.919081 
L 449.200102 223.919081 
L 449.483494 223.556484 
L 450.050279 223.763682 
L 450.333672 223.401085 
L 450.617064 223.608283 
L 451.18385 223.608283 
L 451.750635 223.660083 
L 452.034027 223.867281 
L 452.31742 223.867281 
L 452.600813 223.608283 
L 453.45099 225.26587 
L 454.017776 222.986688 
L 454.301168 223.97088 
L 454.867953 223.090287 
L 455.151346 223.349285 
L 455.434738 222.520492 
L 455.718131 222.313294 
L 456.001524 223.401085 
L 456.284916 223.763682 
L 456.568309 223.608283 
L 457.135094 221.225503 
L 457.418487 220.811106 
L 457.701879 220.811106 
L 457.985272 220.603908 
L 458.268664 220.137712 
L 458.552057 220.500309 
L 458.835449 220.189511 
L 459.402235 220.448509 
L 459.685627 221.018304 
L 459.96902 222.106095 
L 460.252412 222.572292 
L 460.535805 221.950697 
L 460.819198 222.572292 
L 461.10259 222.313294 
L 461.385983 222.313294 
L 461.669375 223.245686 
L 461.952768 225.783865 
L 462.23616 224.229878 
L 462.802946 223.142087 
L 463.369731 222.77949 
L 463.653123 223.038488 
L 463.936516 222.934889 
L 464.219909 222.986688 
L 464.503301 222.416893 
L 464.786694 222.624091 
L 465.070086 222.468692 
L 465.353479 222.675891 
L 465.636872 223.038488 
L 465.920264 223.919081 
L 466.487049 223.142087 
L 466.770442 223.245686 
L 467.337227 225.21407 
L 467.62062 225.887464 
L 467.904012 227.337853 
L 468.187405 228.063047 
L 468.470797 230.963823 
L 468.75419 229.513435 
L 469.037583 224.02268 
L 469.604368 222.365093 
L 470.171153 221.950697 
L 470.454545 222.106095 
L 470.737938 222.624091 
L 471.021331 222.054296 
L 471.304723 222.365093 
L 471.588116 222.261494 
L 472.154901 223.401085 
L 472.438294 222.77949 
L 472.721686 221.173703 
L 473.005079 222.934889 
L 473.288471 223.660083 
L 473.571864 223.867281 
L 473.855256 225.369469 
L 474.138649 226.042863 
L 474.422042 227.130654 
L 474.705434 229.565234 
L 474.988827 230.549426 
L 475.272219 233.502002 
L 475.555612 231.067422 
L 475.839005 226.250061 
L 476.122397 224.799673 
L 476.689182 224.385277 
L 476.972575 224.592475 
L 477.255967 225.058671 
L 477.822753 224.851473 
L 478.106145 225.576667 
L 478.389538 225.369469 
L 478.67293 225.369469 
L 478.956323 225.524867 
L 479.239716 226.353661 
L 479.523108 228.736441 
L 479.806501 227.545051 
L 480.089893 224.644275 
L 480.373286 224.592475 
L 480.656679 227.959447 
L 480.940071 229.927831 
L 481.223464 229.824232 
L 481.790249 232.56961 
L 482.073641 236.558177 
L 482.357034 234.382595 
L 482.640427 228.943639 
L 482.923819 227.959447 
L 483.490604 227.027055 
L 483.773997 227.078855 
L 484.05739 227.493251 
L 484.340782 227.545051 
L 484.624175 226.975255 
L 484.907567 227.804049 
L 485.474352 227.493251 
L 485.757745 227.182454 
L 486.041138 228.270245 
L 486.32453 231.015622 
L 486.607923 229.409835 
L 486.891315 226.094663 
L 487.458101 228.322044 
L 487.741493 230.704825 
L 488.024886 230.653025 
L 488.591671 234.227196 
L 488.875063 239.054916 
L 542.436262 196.289187 
L 543.003047 200.402074 
L 543.28644 199.728679 
L 543.569832 197.268199 
L 547.820721 197.1905 
L 548.104114 195.740112 
L 548.387506 195.222116 
L 548.954292 196.827903 
L 549.521077 196.102709 
L 549.804469 196.258108 
L 550.087862 197.1905 
L 550.371254 196.827903 
L 550.654647 195.532914 
L 550.93804 195.99911 
L 551.221432 195.066717 
L 551.788217 194.393323 
L 553.771965 194.237924 
L 554.622143 192.891135 
L 555.755714 187.40038 
L 556.039106 186.519788 
L 557.172676 177.195864 
L 559.439817 148.239902 
L 561.99035 120.268131 
L 562.557136 115.55437 
L 563.123921 110.840609 
L 563.974099 104.62466 
L 564.540884 98.978506 
L 565.107669 95.663333 
L 565.674454 92.503559 
L 565.957847 89.913581 
L 566.241239 88.877589 
L 566.808024 85.510617 
L 567.091417 84.837222 
L 568.224987 80.848655 
L 568.50838 80.848655 
L 568.791772 81.055853 
L 569.075165 80.22706 
L 569.358558 80.019862 
L 569.64195 81.729248 
L 569.925343 82.247244 
L 570.208735 80.796855 
L 570.775521 80.589657 
L 571.058913 81.107653 
L 571.342306 82.299043 
L 571.909091 85.303418 
L 572.192483 86.494809 
L 572.759269 90.327977 
L 573.326054 95.611534 
L 573.609446 96.12953 
L 573.892839 97.26912 
L 574.459624 101.050489 
L 574.743017 104.521061 
L 575.876587 111.514003 
L 576.443372 114.052182 
L 577.29355 119.542937 
L 577.860335 120.993325 
L 578.42712 124.567496 
L 578.710513 126.121483 
L 578.993906 126.794878 
L 579.844083 131.45684 
L 580.127476 131.974835 
L 580.410868 131.715837 
L 580.694261 132.64823 
L 580.977654 133.062626 
L 581.827831 136.740396 
L 582.394617 140.262767 
L 582.961402 143.422541 
L 583.244794 142.697347 
L 583.528187 143.733339 
L 583.811579 145.235526 
L 584.094972 148.706098 
L 584.378365 147.152111 
L 584.661757 148.084503 
L 584.94515 147.462908 
L 585.511935 149.224094 
L 586.07872 149.63849 
L 586.928898 151.555075 
L 587.212291 151.503275 
L 587.779076 152.280269 
L 588.062468 152.383868 
L 588.345861 152.694665 
L 588.629253 154.352252 
L 588.912646 154.404051 
L 589.196039 155.232844 
L 589.479431 159.014213 
L 589.762824 158.703416 
L 590.046216 159.48041 
L 590.329609 160.6718 
L 590.613002 162.484785 
L 590.896394 159.791207 
L 591.179787 158.807015 
L 591.463179 158.755215 
L 591.746572 159.066013 
L 592.029964 159.014213 
L 592.59675 159.584009 
L 592.880142 162.122188 
L 593.163535 160.878998 
L 593.446927 160.568201 
L 594.013713 160.827198 
L 594.580498 161.604192 
L 595.147283 162.277587 
L 595.997461 164.090572 
L 596.280853 163.624376 
L 596.564246 163.572576 
L 597.697816 164.660367 
L 597.981209 164.660367 
L 598.264601 164.815766 
L 598.547994 164.504968 
L 598.831386 164.660367 
L 599.398172 163.10638 
L 599.681564 162.795582 
L 599.964957 162.795582 
L 600.248349 161.604192 
L 600.815135 160.516401 
L 601.098527 159.37681 
L 601.38192 159.273211 
L 601.665312 158.910614 
L 601.948705 158.133621 
L 602.232098 158.030021 
L 602.51549 158.23722 
L 602.798883 157.926422 
L 603.082275 158.444418 
L 603.365668 158.289019 
L 603.64906 157.615625 
L 603.932453 157.667424 
L 604.499238 156.527834 
L 604.782631 154.922047 
L 605.066023 155.543642 
L 605.349416 155.388243 
L 605.632809 153.419859 
L 606.199594 152.176669 
L 606.482986 151.969471 
L 607.616557 147.411109 
L 607.899949 144.510332 
L 608.183342 142.800946 
L 608.466734 142.490149 
L 608.750127 140.987961 
L 609.03352 138.812379 
L 609.600305 136.481398 
L 609.883697 135.911603 
L 610.16709 135.03101 
L 610.450482 134.616614 
L 611.017268 131.871236 
L 611.584053 129.177658 
L 612.150838 127.053876 
L 612.717623 123.117108 
L 613.567801 114.000383 
L 613.851193 110.788809 
L 614.417979 102.656276 
L 614.701371 99.807299 
L 615.268156 92.192762 
L 616.401727 82.454442 
L 616.685119 80.900455 
L 616.968512 80.071661 
L 617.535297 77.170885 
L 617.81869 77.999678 
L 618.95226 63.185 
L 619.802438 58.523038 
L 620.08583 58.005043 
L 620.652616 55.93306 
L 621.219401 55.363264 
L 621.502793 54.327273 
L 622.069578 55.207865 
L 622.636364 56.803292 
L 622.636364 56.803292 
" clip-path="url(#pa3b0f53307)" style="fill: none; stroke: #1f77b4; stroke-width: 1.5; stroke-linecap: square"/>
   </g>
   <g id="line2d_15">
    <path d="M 115.363636 209.26893 
L 115.930422 210.286173 
L 116.213814 210.295792 
L 119.331133 216.761419 
L 119.614525 217.108213 
L 121.598273 220.720275 
L 122.731844 222.499144 
L 123.015236 216.71894 
L 125.282377 220.763952 
L 126.69934 223.115858 
L 126.982732 222.790091 
L 127.266125 224.128297 
L 127.549518 228.018352 
L 127.83291 229.991262 
L 128.116303 224.810546 
L 128.399695 221.768962 
L 128.96648 220.471841 
L 129.533266 212.941131 
L 129.816658 219.10172 
L 131.800406 173.375984 
L 133.217369 147.696867 
L 134.35094 132.285069 
L 135.201117 123.347081 
L 136.051295 116.451523 
L 136.334688 114.564538 
L 136.61808 201.593464 
L 137.468258 197.550677 
L 138.035043 195.63654 
L 138.601828 194.263666 
L 139.168614 193.366269 
L 139.735399 192.884488 
L 140.302184 192.764534 
L 140.868969 192.95854 
L 141.152362 193.159857 
L 142.002539 194.124416 
L 261.59421 216.861218 
L 262.444388 217.231791 
L 267.828847 220.394904 
L 271.512951 222.569429 
L 274.346877 223.997235 
L 277.180802 225.167001 
L 280.014728 226.082782 
L 282.848654 226.768685 
L 285.965973 227.296216 
L 287.382936 227.469099 
L 287.666328 225.421268 
L 291.350432 225.725018 
L 292.767395 225.791365 
L 293.050787 228.373844 
L 297.301676 228.397849 
L 297.585069 228.342104 
L 298.151854 228.530912 
L 299.568817 228.355688 
L 303.25292 228.011968 
L 303.536313 226.946378 
L 304.103098 220.291958 
L 306.086846 208.220866 
L 306.370239 206.90419 
L 306.937024 202.978935 
L 308.070594 198.743395 
L 308.920772 196.276461 
L 309.77095 194.382088 
L 310.621127 193.015056 
L 311.471305 192.1367 
L 312.03809 191.801467 
L 312.604876 191.650742 
L 313.171661 191.670707 
L 314.021838 191.990471 
L 314.872016 192.617317 
L 315.722194 193.507158 
L 316.855764 195.031198 
L 318.272727 197.353255 
L 320.256475 201.112343 
L 328.47486 217.363913 
L 330.742001 221.106714 
L 332.725749 223.99011 
L 334.709497 226.505546 
L 336.693245 228.667024 
L 338.676993 230.498367 
L 339.810564 231.40778 
L 343.494667 204.805037 
L 344.344845 196.843371 
L 345.195023 190.63968 
L 346.045201 185.958422 
L 346.895378 182.587914 
L 347.745556 180.338836 
L 348.312341 179.378406 
L 348.879126 178.795887 
L 349.445912 178.54965 
L 350.012697 178.601407 
L 350.579482 178.916 
L 350.862875 195.481114 
L 351.42966 195.656868 
L 351.996445 195.939919 
L 352.279837 196.133453 
L 353.980193 198.470293 
L 355.113763 200.507985 
L 357.097511 204.726439 
L 359.931437 211.780225 
L 363.048756 219.568411 
L 363.332148 212.108778 
L 368.716607 231.841723 
L 369.850178 235.801331 
L 370.13357 215.527549 
L 373.250889 225.487057 
L 376.084815 233.766032 
L 376.6516 235.327807 
L 376.934992 217.703132 
L 377.501778 214.166039 
L 379.768918 204.836637 
L 380.619096 202.44369 
L 381.469274 200.628799 
L 382.319451 199.349599 
L 383.169629 198.558133 
L 383.453022 198.394021 
L 383.736414 219.412518 
L 384.586592 218.061706 
L 385.43677 217.187525 
L 385.720163 216.989568 
L 399.606399 224.437979 
L 400.456577 223.979182 
L 401.590147 223.669841 
L 403.290503 223.566315 
L 403.857288 223.620627 
L 404.140681 221.432701 
L 405.557643 221.788968 
L 407.541392 222.52859 
L 412.075673 224.590305 
L 412.359066 226.871656 
L 414.909599 228.16095 
L 417.460132 229.19625 
L 417.743525 229.296607 
L 418.026917 227.493251 
L 420.57745 230.716841 
L 423.127984 233.589777 
L 425.678517 236.1378 
L 428.22905 238.390856 
L 431.062976 240.587161 
L 431.346369 230.476907 
L 435.88065 230.527863 
L 437.864398 230.489045 
L 438.147791 228.674282 
L 440.131539 228.530857 
L 440.414931 228.054724 
L 440.698324 228.086086 
L 441.265109 225.479373 
L 441.548502 227.210256 
L 441.831894 227.802963 
L 443.248857 221.518571 
L 443.53225 220.553815 
L 444.66582 212.415146 
L 445.515998 199.503023 
L 446.082783 193.434847 
L 446.366176 224.447436 
L 447.499746 206.215843 
L 447.783139 202.262146 
L 448.066531 225.566307 
L 449.200102 212.64709 
L 450.333672 202.593666 
L 451.467242 194.860991 
L 451.750635 223.639363 
L 452.884205 218.05126 
L 453.734383 214.812055 
L 454.584561 212.249626 
L 455.434738 210.257709 
L 456.284916 208.745015 
L 457.135094 207.633211 
L 457.985272 206.855169 
L 458.835449 206.353447 
L 459.685627 206.078977 
L 460.819198 205.995126 
L 461.952768 206.159319 
L 463.369731 206.614048 
L 465.070086 207.396838 
L 465.353479 222.582652 
L 468.470797 224.667438 
L 471.304723 226.291646 
L 471.871508 226.581521 
L 472.154901 222.334014 
L 474.705434 223.510189 
L 477.255967 224.457369 
L 478.67293 224.892248 
L 478.956323 225.379829 
L 481.790249 226.048798 
L 484.907567 226.557958 
L 485.474352 226.628651 
L 485.757745 227.67973 
L 488.875063 227.940375 
L 542.436262 272.762528 
L 543.569832 276.872727 
L 547.820721 198.196994 
L 550.371254 202.134018 
L 551.788217 204.208537 
L 553.771965 194.393323 
L 554.622143 194.767371 
L 554.905536 194.035864 
L 555.188928 194.368318 
L 555.472321 195.251996 
L 556.322499 193.924071 
L 556.605891 193.683328 
L 556.889284 192.821981 
L 557.172676 192.677637 
L 557.456069 192.732039 
L 558.022854 186.851598 
L 558.306247 189.28971 
L 558.589639 189.211638 
L 558.873032 185.463362 
L 559.156425 179.616271 
L 559.439817 176.782809 
L 559.72321 175.071251 
L 560.573388 162.135603 
L 560.85678 142.086112 
L 563.123921 100.66753 
L 563.974099 88.804848 
L 564.824276 79.757377 
L 565.674454 73.125474 
L 566.524632 68.586856 
L 567.091417 66.578684 
L 567.37481 85.583136 
L 567.941595 84.583276 
L 568.50838 84.19487 
L 568.791772 84.209058 
L 569.358558 84.615124 
L 569.925343 85.476129 
L 570.492128 86.737673 
L 571.342306 89.272597 
L 572.475876 93.620684 
L 573.892839 100.187308 
L 574.176232 101.610997 
L 574.459624 96.02593 
L 576.726765 109.051631 
L 580.977654 133.905496 
L 581.261046 131.643318 
L 583.244794 142.1149 
L 585.511935 152.937672 
L 587.495683 161.353721 
L 587.779076 162.470672 
L 588.062468 151.410036 
L 591.179787 161.710385 
L 592.029964 163.623385 
L 592.59675 165.086221 
L 592.880142 165.988817 
L 593.163535 166.429885 
L 593.73032 166.22334 
L 594.580498 166.009729 
L 594.86389 160.796119 
L 595.430675 158.57022 
L 595.714068 158.501984 
L 596.564246 155.147283 
L 596.847638 154.756707 
L 597.131031 153.694565 
L 597.981209 149.1532 
L 600.531742 137.630401 
L 600.815135 136.929167 
L 601.38192 134.86667 
L 601.665312 160.733959 
L 602.51549 158.807418 
L 603.365668 157.556883 
L 603.932453 157.05564 
L 604.499238 156.792431 
L 605.066023 156.745414 
L 605.632809 156.893901 
L 606.482986 157.440429 
L 607.333164 158.320884 
L 607.899949 159.065302 
L 608.183342 147.493988 
L 608.466734 147.469748 
L 608.750127 148.430476 
L 609.03352 150.0529 
L 609.316912 150.768958 
L 609.600305 150.141797 
L 609.883697 150.053218 
L 610.16709 149.525264 
L 611.867445 142.851311 
L 612.150838 142.895119 
L 612.434231 141.407131 
L 613.284408 135.559452 
L 614.134586 131.023791 
L 614.984764 127.54401 
L 615.268156 102.863474 
L 615.834942 102.325198 
L 616.401727 102.066257 
L 616.968512 102.061892 
L 617.535297 102.288311 
L 618.102082 102.722811 
L 618.95226 103.717913 
L 619.802438 105.065381 
L 620.936008 107.304764 
L 621.786186 109.245841 
L 622.069578 55.311465 
L 622.636364 56.858753 
L 622.636364 56.858753 
" clip-path="url(#pa3b0f53307)" style="fill: none; stroke: #ff7f0e; stroke-width: 1.5; stroke-linecap: square"/>
   </g>
   <g id="patch_3">
    <path d="M 90 288 
L 90 43.2 
" style="fill: none; stroke: #000000; stroke-width: 0.8; stroke-linejoin: miter; stroke-linecap: square"/>
   </g>
   <g id="patch_4">
    <path d="M 648 288 
L 648 43.2 
" style="fill: none; stroke: #000000; stroke-width: 0.8; stroke-linejoin: miter; stroke-linecap: square"/>
   </g>
   <g id="patch_5">
    <path d="M 90 288 
L 648 288 
" style="fill: none; stroke: #000000; stroke-width: 0.8; stroke-linejoin: miter; stroke-linecap: square"/>
   </g>
   <g id="patch_6">
    <path d="M 90 43.2 
L 648 43.2 
" style="fill: none; stroke: #000000; stroke-width: 0.8; stroke-linejoin: miter; stroke-linecap: square"/>
   </g>
   <g id="text_15">
    <!-- MDOT8767 -->
    <g transform="translate(335.545313 37.2) scale(0.12 -0.12)">
     <defs>
      <path id="DejaVuSans-44" d="M 1259 4147 
L 1259 519 
L 2022 519 
Q 2988 519 3436 956 
Q 3884 1394 3884 2338 
Q 3884 3275 3436 3711 
Q 2988 4147 2022 4147 
L 1259 4147 
z
M 628 4666 
L 1925 4666 
Q 3281 4666 3915 4102 
Q 4550 3538 4550 2338 
Q 4550 1131 3912 565 
Q 3275 0 1925 0 
L 628 0 
L 628 4666 
z
" transform="scale(0.015625)"/>
      <path id="DejaVuSans-4f" d="M 2522 4238 
Q 1834 4238 1429 3725 
Q 1025 3213 1025 2328 
Q 1025 1447 1429 934 
Q 1834 422 2522 422 
Q 3209 422 3611 934 
Q 4013 1447 4013 2328 
Q 4013 3213 3611 3725 
Q 3209 4238 2522 4238 
z
M 2522 4750 
Q 3503 4750 4090 4092 
Q 4678 3434 4678 2328 
Q 4678 1225 4090 567 
Q 3503 -91 2522 -91 
Q 1538 -91 948 565 
Q 359 1222 359 2328 
Q 359 3434 948 4092 
Q 1538 4750 2522 4750 
z
" transform="scale(0.015625)"/>
      <path id="DejaVuSans-54" d="M -19 4666 
L 3928 4666 
L 3928 4134 
L 2272 4134 
L 2272 0 
L 1638 0 
L 1638 4134 
L -19 4134 
L -19 4666 
z
" transform="scale(0.015625)"/>
     </defs>
     <use xlink:href="#DejaVuSans-4d"/>
     <use xlink:href="#DejaVuSans-44" x="86.279297"/>
     <use xlink:href="#DejaVuSans-4f" x="163.28125"/>
     <use xlink:href="#DejaVuSans-54" x="241.992188"/>
     <use xlink:href="#DejaVuSans-38" x="303.076172"/>
     <use xlink:href="#DejaVuSans-37" x="366.699219"/>
     <use xlink:href="#DejaVuSans-36" x="430.322266"/>
     <use xlink:href="#DejaVuSans-37" x="493.945312"/>
    </g>
   </g>
   <g id="legend_1">
    <g id="patch_7">
     <path d="M 97 80.55625 
L 178.95625 80.55625 
Q 180.95625 80.55625 180.95625 78.55625 
L 180.95625 50.2 
Q 180.95625 48.2 178.95625 48.2 
L 97 48.2 
Q 95 48.2 95 50.2 
L 95 78.55625 
Q 95 80.55625 97 80.55625 
z
" style="fill: #ffffff; opacity: 0.8; stroke: #cccccc; stroke-linejoin: miter"/>
    </g>
    <g id="line2d_16">
     <path d="M 99 56.298437 
L 109 56.298437 
L 119 56.298437 
" style="fill: none; stroke: #1f77b4; stroke-width: 1.5; stroke-linecap: square"/>
    </g>
    <g id="text_16">
     <!-- measured -->
     <g transform="translate(127 59.798437) scale(0.1 -0.1)">
      <defs>
       <path id="DejaVuSans-6d" d="M 3328 2828 
Q 3544 3216 3844 3400 
Q 4144 3584 4550 3584 
Q 5097 3584 5394 3201 
Q 5691 2819 5691 2113 
L 5691 0 
L 5113 0 
L 5113 2094 
Q 5113 2597 4934 2840 
Q 4756 3084 4391 3084 
Q 3944 3084 3684 2787 
Q 3425 2491 3425 1978 
L 3425 0 
L 2847 0 
L 2847 2094 
Q 2847 2600 2669 2842 
Q 2491 3084 2119 3084 
Q 1678 3084 1418 2786 
Q 1159 2488 1159 1978 
L 1159 0 
L 581 0 
L 581 3500 
L 1159 3500 
L 1159 2956 
Q 1356 3278 1631 3431 
Q 1906 3584 2284 3584 
Q 2666 3584 2933 3390 
Q 3200 3197 3328 2828 
z
" transform="scale(0.015625)"/>
       <path id="DejaVuSans-61" d="M 2194 1759 
Q 1497 1759 1228 1600 
Q 959 1441 959 1056 
Q 959 750 1161 570 
Q 1363 391 1709 391 
Q 2188 391 2477 730 
Q 2766 1069 2766 1631 
L 2766 1759 
L 2194 1759 
z
M 3341 1997 
L 3341 0 
L 2766 0 
L 2766 531 
Q 2569 213 2275 61 
Q 1981 -91 1556 -91 
Q 1019 -91 701 211 
Q 384 513 384 1019 
Q 384 1609 779 1909 
Q 1175 2209 1959 2209 
L 2766 2209 
L 2766 2266 
Q 2766 2663 2505 2880 
Q 2244 3097 1772 3097 
Q 1472 3097 1187 3025 
Q 903 2953 641 2809 
L 641 3341 
Q 956 3463 1253 3523 
Q 1550 3584 1831 3584 
Q 2591 3584 2966 3190 
Q 3341 2797 3341 1997 
z
" transform="scale(0.015625)"/>
       <path id="DejaVuSans-75" d="M 544 1381 
L 544 3500 
L 1119 3500 
L 1119 1403 
Q 1119 906 1312 657 
Q 1506 409 1894 409 
Q 2359 409 2629 706 
Q 2900 1003 2900 1516 
L 2900 3500 
L 3475 3500 
L 3475 0 
L 2900 0 
L 2900 538 
Q 2691 219 2414 64 
Q 2138 -91 1772 -91 
Q 1169 -91 856 284 
Q 544 659 544 1381 
z
M 1991 3584 
L 1991 3584 
z
" transform="scale(0.015625)"/>
       <path id="DejaVuSans-64" d="M 2906 2969 
L 2906 4863 
L 3481 4863 
L 3481 0 
L 2906 0 
L 2906 525 
Q 2725 213 2448 61 
Q 2172 -91 1784 -91 
Q 1150 -91 751 415 
Q 353 922 353 1747 
Q 353 2572 751 3078 
Q 1150 3584 1784 3584 
Q 2172 3584 2448 3432 
Q 2725 3281 2906 2969 
z
M 947 1747 
Q 947 1113 1208 752 
Q 1469 391 1925 391 
Q 2381 391 2643 752 
Q 2906 1113 2906 1747 
Q 2906 2381 2643 2742 
Q 2381 3103 1925 3103 
Q 1469 3103 1208 2742 
Q 947 2381 947 1747 
z
" transform="scale(0.015625)"/>
      </defs>
      <use xlink:href="#DejaVuSans-6d"/>
      <use xlink:href="#DejaVuSans-65" x="97.412109"/>
      <use xlink:href="#DejaVuSans-61" x="158.935547"/>
      <use xlink:href="#DejaVuSans-73" x="220.214844"/>
      <use xlink:href="#DejaVuSans-75" x="272.314453"/>
      <use xlink:href="#DejaVuSans-72" x="335.693359"/>
      <use xlink:href="#DejaVuSans-65" x="374.556641"/>
      <use xlink:href="#DejaVuSans-64" x="436.080078"/>
     </g>
    </g>
    <g id="line2d_17">
     <path d="M 99 70.976562 
L 109 70.976562 
L 119 70.976562 
" style="fill: none; stroke: #ff7f0e; stroke-width: 1.5; stroke-linecap: square"/>
    </g>
    <g id="text_17">
     <!-- predicted -->
     <g transform="translate(127 74.476562) scale(0.1 -0.1)">
      <defs>
       <path id="DejaVuSans-70" d="M 1159 525 
L 1159 -1331 
L 581 -1331 
L 581 3500 
L 1159 3500 
L 1159 2969 
Q 1341 3281 1617 3432 
Q 1894 3584 2278 3584 
Q 2916 3584 3314 3078 
Q 3713 2572 3713 1747 
Q 3713 922 3314 415 
Q 2916 -91 2278 -91 
Q 1894 -91 1617 61 
Q 1341 213 1159 525 
z
M 3116 1747 
Q 3116 2381 2855 2742 
Q 2594 3103 2138 3103 
Q 1681 3103 1420 2742 
Q 1159 2381 1159 1747 
Q 1159 1113 1420 752 
Q 1681 391 2138 391 
Q 2594 391 2855 752 
Q 3116 1113 3116 1747 
z
" transform="scale(0.015625)"/>
       <path id="DejaVuSans-69" d="M 603 3500 
L 1178 3500 
L 1178 0 
L 603 0 
L 603 3500 
z
M 603 4863 
L 1178 4863 
L 1178 4134 
L 603 4134 
L 603 4863 
z
" transform="scale(0.015625)"/>
       <path id="DejaVuSans-63" d="M 3122 3366 
L 3122 2828 
Q 2878 2963 2633 3030 
Q 2388 3097 2138 3097 
Q 1578 3097 1268 2742 
Q 959 2388 959 1747 
Q 959 1106 1268 751 
Q 1578 397 2138 397 
Q 2388 397 2633 464 
Q 2878 531 3122 666 
L 3122 134 
Q 2881 22 2623 -34 
Q 2366 -91 2075 -91 
Q 1284 -91 818 406 
Q 353 903 353 1747 
Q 353 2603 823 3093 
Q 1294 3584 2113 3584 
Q 2378 3584 2631 3529 
Q 2884 3475 3122 3366 
z
" transform="scale(0.015625)"/>
      </defs>
      <use xlink:href="#DejaVuSans-70"/>
      <use xlink:href="#DejaVuSans-72" x="63.476562"/>
      <use xlink:href="#DejaVuSans-65" x="102.339844"/>
      <use xlink:href="#DejaVuSans-64" x="163.863281"/>
      <use xlink:href="#DejaVuSans-69" x="227.339844"/>
      <use xlink:href="#DejaVuSans-63" x="255.123047"/>
      <use xlink:href="#DejaVuSans-74" x="310.103516"/>
      <use xlink:href="#DejaVuSans-65" x="349.3125"/>
      <use xlink:href="#DejaVuSans-64" x="410.835938"/>
     </g>
    </g>
   </g>
  </g>
 </g>
 <defs>
  <clipPath id="pa3b0f53307">
   <rect x="90" y="43.2" width="558" height="244.8"/>
  </clipPath>
 </defs>
</svg>
