<?xml version="1.0" encoding="utf-8" standalone="no"?>
<!DOCTYPE svg PUBLIC "-//W3C//DTD SVG 1.1//EN"
  "http://www.w3.org/Graphics/SVG/1.1/DTD/svg11.dtd">
<svg xmlns:xlink="http://www.w3.org/1999/xlink" width="720pt" height="360pt" viewBox="0 0 720 360" xmlns="http://www.w3.org/2000/svg" version="1.1">
 <metadata>
  <rdf:RDF xmlns:dc="http://purl.org/dc/elements/1.1/" xmlns:cc="http://creativecommons.org/ns#" xmlns:rdf="http://www.w3.org/1999/02/22-rdf-syntax-ns#">
   <cc:Work>
    <dc:type rdf:resource="http://purl.org/dc/dcmitype/StillImage"/>
    <dc:date>2023-10-23T10:53:49.527368</dc:date>
    <dc:format>image/svg+xml</dc:format>
    <dc:creator>
     <cc:Agent>
      <dc:title>Matplotlib v3.7.1, https://matplotlib.org/</dc:title>
     </cc:Agent>
    </dc:creator>
   </cc:Work>
  </rdf:RDF>
 </metadata>
 <defs>
  <style type="text/css">*{stroke-linejoin: round; stroke-linecap: butt}</style>
 </defs>
 <g id="figure_1">
  <g id="patch_1">
   <path d="M 0 360 
L 720 360 
L 720 0 
L 0 0 
z
" style="fill: #ffffff"/>
  </g>
  <g id="axes_1">
   <g id="patch_2">
    <path d="M 90 288 
L 648 288 
L 648 43.2 
L 90 43.2 
z
" style="fill: #ffffff"/>
   </g>
   <g id="matplotlib.axis_1">
    <g id="xtick_1">
     <g id="line2d_1">
      <defs>
       <path id="m94e1ac8080" d="M 0 0 
L 0 3.5 
" style="stroke: #000000; stroke-width: 0.8"/>
      </defs>
      <g>
       <use xlink:href="#m94e1ac8080" x="149.370747" y="288" style="stroke: #000000; stroke-width: 0.8"/>
      </g>
     </g>
     <g id="text_1">
      <!-- 2023-08-15 -->
      <g transform="translate(87.727405 337.765903) rotate(-30) scale(0.12 -0.12)">
       <defs>
        <path id="DejaVuSans-32" d="M 1228 531 
L 3431 531 
L 3431 0 
L 469 0 
L 469 531 
Q 828 903 1448 1529 
Q 2069 2156 2228 2338 
Q 2531 2678 2651 2914 
Q 2772 3150 2772 3378 
Q 2772 3750 2511 3984 
Q 2250 4219 1831 4219 
Q 1534 4219 1204 4116 
Q 875 4013 500 3803 
L 500 4441 
Q 881 4594 1212 4672 
Q 1544 4750 1819 4750 
Q 2544 4750 2975 4387 
Q 3406 4025 3406 3419 
Q 3406 3131 3298 2873 
Q 3191 2616 2906 2266 
Q 2828 2175 2409 1742 
Q 1991 1309 1228 531 
z
" transform="scale(0.015625)"/>
        <path id="DejaVuSans-30" d="M 2034 4250 
Q 1547 4250 1301 3770 
Q 1056 3291 1056 2328 
Q 1056 1369 1301 889 
Q 1547 409 2034 409 
Q 2525 409 2770 889 
Q 3016 1369 3016 2328 
Q 3016 3291 2770 3770 
Q 2525 4250 2034 4250 
z
M 2034 4750 
Q 2819 4750 3233 4129 
Q 3647 3509 3647 2328 
Q 3647 1150 3233 529 
Q 2819 -91 2034 -91 
Q 1250 -91 836 529 
Q 422 1150 422 2328 
Q 422 3509 836 4129 
Q 1250 4750 2034 4750 
z
" transform="scale(0.015625)"/>
        <path id="DejaVuSans-33" d="M 2597 2516 
Q 3050 2419 3304 2112 
Q 3559 1806 3559 1356 
Q 3559 666 3084 287 
Q 2609 -91 1734 -91 
Q 1441 -91 1130 -33 
Q 819 25 488 141 
L 488 750 
Q 750 597 1062 519 
Q 1375 441 1716 441 
Q 2309 441 2620 675 
Q 2931 909 2931 1356 
Q 2931 1769 2642 2001 
Q 2353 2234 1838 2234 
L 1294 2234 
L 1294 2753 
L 1863 2753 
Q 2328 2753 2575 2939 
Q 2822 3125 2822 3475 
Q 2822 3834 2567 4026 
Q 2313 4219 1838 4219 
Q 1578 4219 1281 4162 
Q 984 4106 628 3988 
L 628 4550 
Q 988 4650 1302 4700 
Q 1616 4750 1894 4750 
Q 2613 4750 3031 4423 
Q 3450 4097 3450 3541 
Q 3450 3153 3228 2886 
Q 3006 2619 2597 2516 
z
" transform="scale(0.015625)"/>
        <path id="DejaVuSans-2d" d="M 313 2009 
L 1997 2009 
L 1997 1497 
L 313 1497 
L 313 2009 
z
" transform="scale(0.015625)"/>
        <path id="DejaVuSans-38" d="M 2034 2216 
Q 1584 2216 1326 1975 
Q 1069 1734 1069 1313 
Q 1069 891 1326 650 
Q 1584 409 2034 409 
Q 2484 409 2743 651 
Q 3003 894 3003 1313 
Q 3003 1734 2745 1975 
Q 2488 2216 2034 2216 
z
M 1403 2484 
Q 997 2584 770 2862 
Q 544 3141 544 3541 
Q 544 4100 942 4425 
Q 1341 4750 2034 4750 
Q 2731 4750 3128 4425 
Q 3525 4100 3525 3541 
Q 3525 3141 3298 2862 
Q 3072 2584 2669 2484 
Q 3125 2378 3379 2068 
Q 3634 1759 3634 1313 
Q 3634 634 3220 271 
Q 2806 -91 2034 -91 
Q 1263 -91 848 271 
Q 434 634 434 1313 
Q 434 1759 690 2068 
Q 947 2378 1403 2484 
z
M 1172 3481 
Q 1172 3119 1398 2916 
Q 1625 2713 2034 2713 
Q 2441 2713 2670 2916 
Q 2900 3119 2900 3481 
Q 2900 3844 2670 4047 
Q 2441 4250 2034 4250 
Q 1625 4250 1398 4047 
Q 1172 3844 1172 3481 
z
" transform="scale(0.015625)"/>
        <path id="DejaVuSans-31" d="M 794 531 
L 1825 531 
L 1825 4091 
L 703 3866 
L 703 4441 
L 1819 4666 
L 2450 4666 
L 2450 531 
L 3481 531 
L 3481 0 
L 794 0 
L 794 531 
z
" transform="scale(0.015625)"/>
        <path id="DejaVuSans-35" d="M 691 4666 
L 3169 4666 
L 3169 4134 
L 1269 4134 
L 1269 2991 
Q 1406 3038 1543 3061 
Q 1681 3084 1819 3084 
Q 2600 3084 3056 2656 
Q 3513 2228 3513 1497 
Q 3513 744 3044 326 
Q 2575 -91 1722 -91 
Q 1428 -91 1123 -41 
Q 819 9 494 109 
L 494 744 
Q 775 591 1075 516 
Q 1375 441 1709 441 
Q 2250 441 2565 725 
Q 2881 1009 2881 1497 
Q 2881 1984 2565 2268 
Q 2250 2553 1709 2553 
Q 1456 2553 1204 2497 
Q 953 2441 691 2322 
L 691 4666 
z
" transform="scale(0.015625)"/>
       </defs>
       <use xlink:href="#DejaVuSans-32"/>
       <use xlink:href="#DejaVuSans-30" x="63.623047"/>
       <use xlink:href="#DejaVuSans-32" x="127.246094"/>
       <use xlink:href="#DejaVuSans-33" x="190.869141"/>
       <use xlink:href="#DejaVuSans-2d" x="254.492188"/>
       <use xlink:href="#DejaVuSans-30" x="290.576172"/>
       <use xlink:href="#DejaVuSans-38" x="354.199219"/>
       <use xlink:href="#DejaVuSans-2d" x="417.822266"/>
       <use xlink:href="#DejaVuSans-31" x="453.90625"/>
       <use xlink:href="#DejaVuSans-35" x="517.529297"/>
      </g>
     </g>
    </g>
    <g id="xtick_2">
     <g id="line2d_2">
      <g>
       <use xlink:href="#m94e1ac8080" x="264.994921" y="288" style="stroke: #000000; stroke-width: 0.8"/>
      </g>
     </g>
     <g id="text_2">
      <!-- 2023-09-01 -->
      <g transform="translate(203.35158 337.765903) rotate(-30) scale(0.12 -0.12)">
       <defs>
        <path id="DejaVuSans-39" d="M 703 97 
L 703 672 
Q 941 559 1184 500 
Q 1428 441 1663 441 
Q 2288 441 2617 861 
Q 2947 1281 2994 2138 
Q 2813 1869 2534 1725 
Q 2256 1581 1919 1581 
Q 1219 1581 811 2004 
Q 403 2428 403 3163 
Q 403 3881 828 4315 
Q 1253 4750 1959 4750 
Q 2769 4750 3195 4129 
Q 3622 3509 3622 2328 
Q 3622 1225 3098 567 
Q 2575 -91 1691 -91 
Q 1453 -91 1209 -44 
Q 966 3 703 97 
z
M 1959 2075 
Q 2384 2075 2632 2365 
Q 2881 2656 2881 3163 
Q 2881 3666 2632 3958 
Q 2384 4250 1959 4250 
Q 1534 4250 1286 3958 
Q 1038 3666 1038 3163 
Q 1038 2656 1286 2365 
Q 1534 2075 1959 2075 
z
" transform="scale(0.015625)"/>
       </defs>
       <use xlink:href="#DejaVuSans-32"/>
       <use xlink:href="#DejaVuSans-30" x="63.623047"/>
       <use xlink:href="#DejaVuSans-32" x="127.246094"/>
       <use xlink:href="#DejaVuSans-33" x="190.869141"/>
       <use xlink:href="#DejaVuSans-2d" x="254.492188"/>
       <use xlink:href="#DejaVuSans-30" x="290.576172"/>
       <use xlink:href="#DejaVuSans-39" x="354.199219"/>
       <use xlink:href="#DejaVuSans-2d" x="417.822266"/>
       <use xlink:href="#DejaVuSans-30" x="453.90625"/>
       <use xlink:href="#DejaVuSans-31" x="517.529297"/>
      </g>
     </g>
    </g>
    <g id="xtick_3">
     <g id="line2d_3">
      <g>
       <use xlink:href="#m94e1ac8080" x="360.21483" y="288" style="stroke: #000000; stroke-width: 0.8"/>
      </g>
     </g>
     <g id="text_3">
      <!-- 2023-09-15 -->
      <g transform="translate(298.571488 337.765903) rotate(-30) scale(0.12 -0.12)">
       <use xlink:href="#DejaVuSans-32"/>
       <use xlink:href="#DejaVuSans-30" x="63.623047"/>
       <use xlink:href="#DejaVuSans-32" x="127.246094"/>
       <use xlink:href="#DejaVuSans-33" x="190.869141"/>
       <use xlink:href="#DejaVuSans-2d" x="254.492188"/>
       <use xlink:href="#DejaVuSans-30" x="290.576172"/>
       <use xlink:href="#DejaVuSans-39" x="354.199219"/>
       <use xlink:href="#DejaVuSans-2d" x="417.822266"/>
       <use xlink:href="#DejaVuSans-31" x="453.90625"/>
       <use xlink:href="#DejaVuSans-35" x="517.529297"/>
      </g>
     </g>
    </g>
    <g id="xtick_4">
     <g id="line2d_4">
      <g>
       <use xlink:href="#m94e1ac8080" x="469.037583" y="288" style="stroke: #000000; stroke-width: 0.8"/>
      </g>
     </g>
     <g id="text_4">
      <!-- 2023-10-01 -->
      <g transform="translate(407.394241 337.765903) rotate(-30) scale(0.12 -0.12)">
       <use xlink:href="#DejaVuSans-32"/>
       <use xlink:href="#DejaVuSans-30" x="63.623047"/>
       <use xlink:href="#DejaVuSans-32" x="127.246094"/>
       <use xlink:href="#DejaVuSans-33" x="190.869141"/>
       <use xlink:href="#DejaVuSans-2d" x="254.492188"/>
       <use xlink:href="#DejaVuSans-31" x="290.576172"/>
       <use xlink:href="#DejaVuSans-30" x="354.199219"/>
       <use xlink:href="#DejaVuSans-2d" x="417.822266"/>
       <use xlink:href="#DejaVuSans-30" x="453.90625"/>
       <use xlink:href="#DejaVuSans-31" x="517.529297"/>
      </g>
     </g>
    </g>
    <g id="xtick_5">
     <g id="line2d_5">
      <g>
       <use xlink:href="#m94e1ac8080" x="564.257491" y="288" style="stroke: #000000; stroke-width: 0.8"/>
      </g>
     </g>
     <g id="text_5">
      <!-- 2023-10-15 -->
      <g transform="translate(502.614149 337.765903) rotate(-30) scale(0.12 -0.12)">
       <use xlink:href="#DejaVuSans-32"/>
       <use xlink:href="#DejaVuSans-30" x="63.623047"/>
       <use xlink:href="#DejaVuSans-32" x="127.246094"/>
       <use xlink:href="#DejaVuSans-33" x="190.869141"/>
       <use xlink:href="#DejaVuSans-2d" x="254.492188"/>
       <use xlink:href="#DejaVuSans-31" x="290.576172"/>
       <use xlink:href="#DejaVuSans-30" x="354.199219"/>
       <use xlink:href="#DejaVuSans-2d" x="417.822266"/>
       <use xlink:href="#DejaVuSans-31" x="453.90625"/>
       <use xlink:href="#DejaVuSans-35" x="517.529297"/>
      </g>
     </g>
    </g>
   </g>
   <g id="matplotlib.axis_2">
    <g id="ytick_1">
     <g id="line2d_6">
      <defs>
       <path id="m05b9f7c715" d="M 0 0 
L -3.5 0 
" style="stroke: #000000; stroke-width: 0.8"/>
      </defs>
      <g>
       <use xlink:href="#m05b9f7c715" x="90" y="268.107742" style="stroke: #000000; stroke-width: 0.8"/>
      </g>
     </g>
     <g id="text_6">
      <!-- 0.2 -->
      <g transform="translate(63.91625 272.666804) scale(0.12 -0.12)">
       <defs>
        <path id="DejaVuSans-2e" d="M 684 794 
L 1344 794 
L 1344 0 
L 684 0 
L 684 794 
z
" transform="scale(0.015625)"/>
       </defs>
       <use xlink:href="#DejaVuSans-30"/>
       <use xlink:href="#DejaVuSans-2e" x="63.623047"/>
       <use xlink:href="#DejaVuSans-32" x="95.410156"/>
      </g>
     </g>
    </g>
    <g id="ytick_2">
     <g id="line2d_7">
      <g>
       <use xlink:href="#m05b9f7c715" x="90" y="236.599965" style="stroke: #000000; stroke-width: 0.8"/>
      </g>
     </g>
     <g id="text_7">
      <!-- 0.4 -->
      <g transform="translate(63.91625 241.159028) scale(0.12 -0.12)">
       <defs>
        <path id="DejaVuSans-34" d="M 2419 4116 
L 825 1625 
L 2419 1625 
L 2419 4116 
z
M 2253 4666 
L 3047 4666 
L 3047 1625 
L 3713 1625 
L 3713 1100 
L 3047 1100 
L 3047 0 
L 2419 0 
L 2419 1100 
L 313 1100 
L 313 1709 
L 2253 4666 
z
" transform="scale(0.015625)"/>
       </defs>
       <use xlink:href="#DejaVuSans-30"/>
       <use xlink:href="#DejaVuSans-2e" x="63.623047"/>
       <use xlink:href="#DejaVuSans-34" x="95.410156"/>
      </g>
     </g>
    </g>
    <g id="ytick_3">
     <g id="line2d_8">
      <g>
       <use xlink:href="#m05b9f7c715" x="90" y="205.092189" style="stroke: #000000; stroke-width: 0.8"/>
      </g>
     </g>
     <g id="text_8">
      <!-- 0.6 -->
      <g transform="translate(63.91625 209.651251) scale(0.12 -0.12)">
       <defs>
        <path id="DejaVuSans-36" d="M 2113 2584 
Q 1688 2584 1439 2293 
Q 1191 2003 1191 1497 
Q 1191 994 1439 701 
Q 1688 409 2113 409 
Q 2538 409 2786 701 
Q 3034 994 3034 1497 
Q 3034 2003 2786 2293 
Q 2538 2584 2113 2584 
z
M 3366 4563 
L 3366 3988 
Q 3128 4100 2886 4159 
Q 2644 4219 2406 4219 
Q 1781 4219 1451 3797 
Q 1122 3375 1075 2522 
Q 1259 2794 1537 2939 
Q 1816 3084 2150 3084 
Q 2853 3084 3261 2657 
Q 3669 2231 3669 1497 
Q 3669 778 3244 343 
Q 2819 -91 2113 -91 
Q 1303 -91 875 529 
Q 447 1150 447 2328 
Q 447 3434 972 4092 
Q 1497 4750 2381 4750 
Q 2619 4750 2861 4703 
Q 3103 4656 3366 4563 
z
" transform="scale(0.015625)"/>
       </defs>
       <use xlink:href="#DejaVuSans-30"/>
       <use xlink:href="#DejaVuSans-2e" x="63.623047"/>
       <use xlink:href="#DejaVuSans-36" x="95.410156"/>
      </g>
     </g>
    </g>
    <g id="ytick_4">
     <g id="line2d_9">
      <g>
       <use xlink:href="#m05b9f7c715" x="90" y="173.584412" style="stroke: #000000; stroke-width: 0.8"/>
      </g>
     </g>
     <g id="text_9">
      <!-- 0.8 -->
      <g transform="translate(63.91625 178.143475) scale(0.12 -0.12)">
       <use xlink:href="#DejaVuSans-30"/>
       <use xlink:href="#DejaVuSans-2e" x="63.623047"/>
       <use xlink:href="#DejaVuSans-38" x="95.410156"/>
      </g>
     </g>
    </g>
    <g id="ytick_5">
     <g id="line2d_10">
      <g>
       <use xlink:href="#m05b9f7c715" x="90" y="142.076636" style="stroke: #000000; stroke-width: 0.8"/>
      </g>
     </g>
     <g id="text_10">
      <!-- 1.0 -->
      <g transform="translate(63.91625 146.635698) scale(0.12 -0.12)">
       <use xlink:href="#DejaVuSans-31"/>
       <use xlink:href="#DejaVuSans-2e" x="63.623047"/>
       <use xlink:href="#DejaVuSans-30" x="95.410156"/>
      </g>
     </g>
    </g>
    <g id="ytick_6">
     <g id="line2d_11">
      <g>
       <use xlink:href="#m05b9f7c715" x="90" y="110.568859" style="stroke: #000000; stroke-width: 0.8"/>
      </g>
     </g>
     <g id="text_11">
      <!-- 1.2 -->
      <g transform="translate(63.91625 115.127922) scale(0.12 -0.12)">
       <use xlink:href="#DejaVuSans-31"/>
       <use xlink:href="#DejaVuSans-2e" x="63.623047"/>
       <use xlink:href="#DejaVuSans-32" x="95.410156"/>
      </g>
     </g>
    </g>
    <g id="ytick_7">
     <g id="line2d_12">
      <g>
       <use xlink:href="#m05b9f7c715" x="90" y="79.061083" style="stroke: #000000; stroke-width: 0.8"/>
      </g>
     </g>
     <g id="text_12">
      <!-- 1.4 -->
      <g transform="translate(63.91625 83.620145) scale(0.12 -0.12)">
       <use xlink:href="#DejaVuSans-31"/>
       <use xlink:href="#DejaVuSans-2e" x="63.623047"/>
       <use xlink:href="#DejaVuSans-34" x="95.410156"/>
      </g>
     </g>
    </g>
    <g id="ytick_8">
     <g id="line2d_13">
      <g>
       <use xlink:href="#m05b9f7c715" x="90" y="47.553306" style="stroke: #000000; stroke-width: 0.8"/>
      </g>
     </g>
     <g id="text_13">
      <!-- 1.6 -->
      <g transform="translate(63.91625 52.112369) scale(0.12 -0.12)">
       <use xlink:href="#DejaVuSans-31"/>
       <use xlink:href="#DejaVuSans-2e" x="63.623047"/>
       <use xlink:href="#DejaVuSans-36" x="95.410156"/>
      </g>
     </g>
    </g>
    <g id="text_14">
     <!-- Meters -->
     <g transform="translate(57.836562 182.6875) rotate(-90) scale(0.1 -0.1)">
      <defs>
       <path id="DejaVuSans-4d" d="M 628 4666 
L 1569 4666 
L 2759 1491 
L 3956 4666 
L 4897 4666 
L 4897 0 
L 4281 0 
L 4281 4097 
L 3078 897 
L 2444 897 
L 1241 4097 
L 1241 0 
L 628 0 
L 628 4666 
z
" transform="scale(0.015625)"/>
       <path id="DejaVuSans-65" d="M 3597 1894 
L 3597 1613 
L 953 1613 
Q 991 1019 1311 708 
Q 1631 397 2203 397 
Q 2534 397 2845 478 
Q 3156 559 3463 722 
L 3463 178 
Q 3153 47 2828 -22 
Q 2503 -91 2169 -91 
Q 1331 -91 842 396 
Q 353 884 353 1716 
Q 353 2575 817 3079 
Q 1281 3584 2069 3584 
Q 2775 3584 3186 3129 
Q 3597 2675 3597 1894 
z
M 3022 2063 
Q 3016 2534 2758 2815 
Q 2500 3097 2075 3097 
Q 1594 3097 1305 2825 
Q 1016 2553 972 2059 
L 3022 2063 
z
" transform="scale(0.015625)"/>
       <path id="DejaVuSans-74" d="M 1172 4494 
L 1172 3500 
L 2356 3500 
L 2356 3053 
L 1172 3053 
L 1172 1153 
Q 1172 725 1289 603 
Q 1406 481 1766 481 
L 2356 481 
L 2356 0 
L 1766 0 
Q 1100 0 847 248 
Q 594 497 594 1153 
L 594 3053 
L 172 3053 
L 172 3500 
L 594 3500 
L 594 4494 
L 1172 4494 
z
" transform="scale(0.015625)"/>
       <path id="DejaVuSans-72" d="M 2631 2963 
Q 2534 3019 2420 3045 
Q 2306 3072 2169 3072 
Q 1681 3072 1420 2755 
Q 1159 2438 1159 1844 
L 1159 0 
L 581 0 
L 581 3500 
L 1159 3500 
L 1159 2956 
Q 1341 3275 1631 3429 
Q 1922 3584 2338 3584 
Q 2397 3584 2469 3576 
Q 2541 3569 2628 3553 
L 2631 2963 
z
" transform="scale(0.015625)"/>
       <path id="DejaVuSans-73" d="M 2834 3397 
L 2834 2853 
Q 2591 2978 2328 3040 
Q 2066 3103 1784 3103 
Q 1356 3103 1142 2972 
Q 928 2841 928 2578 
Q 928 2378 1081 2264 
Q 1234 2150 1697 2047 
L 1894 2003 
Q 2506 1872 2764 1633 
Q 3022 1394 3022 966 
Q 3022 478 2636 193 
Q 2250 -91 1575 -91 
Q 1294 -91 989 -36 
Q 684 19 347 128 
L 347 722 
Q 666 556 975 473 
Q 1284 391 1588 391 
Q 1994 391 2212 530 
Q 2431 669 2431 922 
Q 2431 1156 2273 1281 
Q 2116 1406 1581 1522 
L 1381 1569 
Q 847 1681 609 1914 
Q 372 2147 372 2553 
Q 372 3047 722 3315 
Q 1072 3584 1716 3584 
Q 2034 3584 2315 3537 
Q 2597 3491 2834 3397 
z
" transform="scale(0.015625)"/>
      </defs>
      <use xlink:href="#DejaVuSans-4d"/>
      <use xlink:href="#DejaVuSans-65" x="86.279297"/>
      <use xlink:href="#DejaVuSans-74" x="147.802734"/>
      <use xlink:href="#DejaVuSans-65" x="187.011719"/>
      <use xlink:href="#DejaVuSans-72" x="248.535156"/>
      <use xlink:href="#DejaVuSans-73" x="289.648438"/>
     </g>
    </g>
   </g>
   <g id="line2d_14">
    <path d="M 115.363636 273.785756 
L 115.930422 273.906505 
L 117.063992 276.163984 
L 117.630777 276.872727 
L 118.197562 276.58398 
L 118.480955 276.61023 
L 119.04774 276.321482 
L 119.331133 276.163984 
L 120.18131 276.268983 
L 121.031488 275.376491 
L 121.314881 274.326501 
L 121.881666 270.336537 
L 122.448451 269.102799 
L 122.731844 268.91905 
L 123.015236 269.076549 
L 123.865414 271.255279 
L 124.432199 273.066512 
L 124.715592 273.880255 
L 124.998984 274.169002 
L 125.282377 274.247751 
L 125.565769 274.090253 
L 125.849162 274.169002 
L 126.132555 274.825246 
L 126.415947 275.140243 
L 126.69934 275.271492 
L 127.266125 275.087744 
L 127.549518 274.720247 
L 127.83291 274.037753 
L 128.116303 254.954179 
L 128.399695 255.164177 
L 128.683088 235.319359 
L 128.96648 232.300637 
L 129.249873 231.880641 
L 129.533266 225.554449 
L 129.816658 222.089481 
L 130.100051 222.299479 
L 130.666836 223.926964 
L 130.950229 225.764447 
L 131.233621 226.341942 
L 131.517014 224.34696 
L 132.083799 232.064389 
L 132.367191 234.479367 
L 132.650584 239.860567 
L 134.067547 251.331712 
L 135.201117 257.474156 
L 135.767902 258.786644 
L 136.051295 258.970392 
L 136.61808 260.28288 
L 136.901473 261.30662 
L 138.318436 263.669099 
L 138.885221 264.246593 
L 139.168614 264.299093 
L 139.452006 264.64034 
L 140.018791 265.847829 
L 140.302184 265.71658 
L 140.868969 266.267825 
L 141.152362 266.346574 
L 141.435754 267.029068 
L 141.719147 266.950318 
L 142.285932 267.186566 
L 142.852717 267.685312 
L 143.419502 267.84281 
L 143.986287 269.076549 
L 144.553073 269.601544 
L 145.119858 270.152789 
L 145.40325 270.179039 
L 145.686643 270.441536 
L 145.970036 270.467786 
L 146.253428 270.809033 
L 146.536821 270.914032 
L 146.820213 271.17653 
L 147.103606 271.281529 
L 147.953784 271.045281 
L 148.237176 270.782783 
L 148.520569 270.940282 
L 148.803961 270.940282 
L 149.370747 271.596526 
L 149.937532 207.783362 
L 150.220924 203.6359 
L 150.504317 204.187145 
L 151.071102 210.565837 
L 151.354495 213.978305 
L 151.637887 215.028296 
L 151.92128 213.689558 
L 152.204672 215.002046 
L 153.05485 221.354488 
L 153.905028 227.785678 
L 154.188421 229.413163 
L 155.321991 238.416831 
L 155.605383 240.175565 
L 156.172169 244.585524 
L 157.305739 251.305462 
L 158.439309 255.715422 
L 159.006094 257.316657 
L 159.289487 257.736653 
L 159.57288 257.736653 
L 159.856272 257.999151 
L 160.423057 259.521637 
L 160.70645 259.495387 
L 161.556628 260.545377 
L 161.84002 261.831616 
L 162.406805 262.514109 
L 162.690198 262.619108 
L 162.973591 262.304111 
L 163.540376 262.540359 
L 164.390554 264.010345 
L 164.957339 264.482841 
L 165.524124 265.112835 
L 165.807517 265.007836 
L 166.090909 265.244084 
L 166.374302 264.981587 
L 166.657694 265.191585 
L 167.224479 265.900328 
L 167.507872 266.110326 
L 168.074657 266.162826 
L 168.35805 258.10415 
L 168.641442 239.781818 
L 168.924835 232.195638 
L 169.208228 231.093148 
L 169.49162 232.248137 
L 169.775013 231.303146 
L 170.341798 234.610616 
L 171.191976 238.390581 
L 171.475368 240.963057 
L 171.758761 242.380544 
L 172.042153 245.084269 
L 172.325546 246.08176 
L 172.892331 249.966725 
L 174.309294 255.531673 
L 175.726257 259.337888 
L 176.859827 261.437869 
L 177.426612 262.015364 
L 177.710005 262.067863 
L 178.560183 263.222853 
L 179.410361 264.246593 
L 179.693753 264.115345 
L 179.977146 263.721598 
L 180.260538 263.800347 
L 180.543931 264.456591 
L 180.827324 264.482841 
L 181.110716 265.060336 
L 181.394109 264.981587 
L 181.677501 265.401583 
L 181.960894 265.506582 
L 182.244286 266.110326 
L 182.811072 266.504073 
L 183.094464 266.477823 
L 183.377857 265.979077 
L 183.944642 263.721598 
L 184.228035 260.25663 
L 184.511427 261.280371 
L 185.078212 264.797838 
L 185.644997 266.661571 
L 185.92839 267.186566 
L 186.211783 267.186566 
L 186.495175 267.737811 
L 186.778568 267.685312 
L 187.628746 268.210307 
L 188.195531 267.947809 
L 188.478923 268.105308 
L 188.762316 267.737811 
L 189.045708 268.236557 
L 189.329101 268.472804 
L 189.612494 268.551554 
L 189.895886 268.446555 
L 190.179279 267.580313 
L 190.462671 268.079058 
L 190.746064 267.475314 
L 191.029457 268.420305 
L 191.312849 268.551554 
L 191.596242 268.97155 
L 191.879634 269.129048 
L 192.44642 270.389037 
L 193.013205 270.441536 
L 193.296597 270.336537 
L 193.57999 269.969041 
L 193.863382 269.102799 
L 194.146775 268.709052 
L 194.430168 268.97155 
L 194.71356 269.444046 
L 194.996953 269.627794 
L 195.280345 269.969041 
L 195.563738 269.864042 
L 195.847131 270.441536 
L 196.130523 270.389037 
L 196.413916 270.02154 
L 196.697308 269.916541 
L 196.980701 269.942791 
L 197.264093 270.152789 
L 197.547486 269.99529 
L 198.114271 271.386528 
L 198.681056 272.25277 
L 199.247842 272.646516 
L 199.531234 272.646516 
L 199.814627 273.040262 
L 200.381412 272.672766 
L 200.664804 272.725265 
L 200.948197 273.014013 
L 201.514982 273.145262 
L 201.798375 273.434009 
L 202.36516 272.489018 
L 202.648553 272.777765 
L 202.931945 272.804015 
L 203.49873 273.854005 
L 203.782123 273.801506 
L 204.065515 273.224011 
L 204.348908 273.040262 
L 204.632301 273.145262 
L 204.915693 273.434009 
L 205.199086 273.27651 
L 205.482478 273.722756 
L 206.332656 273.749006 
L 206.899441 273.775256 
L 207.182834 273.460259 
L 207.749619 273.670257 
L 208.033012 273.224011 
L 208.316404 273.32901 
L 208.599797 273.092762 
L 208.883189 273.35526 
L 209.166582 273.197761 
L 209.449975 273.35526 
L 209.733367 273.35526 
L 210.01676 272.987763 
L 210.300152 272.856514 
L 210.583545 272.436518 
L 210.866938 271.806524 
L 211.15033 271.517776 
L 211.717115 272.436518 
L 212.000508 269.365296 
L 212.2839 234.033121 
L 212.567293 130.504073 
L 213.134078 65.588419 
L 213.417471 54.327273 
L 217.66836 54.327273 
L 217.951752 62.412198 
L 218.235145 65.115924 
L 218.518537 63.147192 
L 218.80193 65.903416 
L 219.368715 80.157035 
L 221.352463 138.772747 
L 222.202641 163.946265 
L 223.052819 180.87736 
L 223.902996 194.238487 
L 224.753174 202.55966 
L 225.319959 206.654623 
L 226.170137 211.720826 
L 227.020315 215.894538 
L 227.5871 218.388265 
L 229.287456 225.790697 
L 229.854241 227.470681 
L 230.421026 229.75441 
L 232.971559 235.923104 
L 233.254952 236.31685 
L 233.821737 237.340591 
L 234.10513 237.839336 
L 234.388522 237.681837 
L 236.088878 241.829299 
L 236.655663 243.693032 
L 237.222448 244.795522 
L 238.072626 245.871762 
L 239.772981 249.231731 
L 240.623159 250.124223 
L 240.906552 250.281722 
L 241.189944 250.281722 
L 241.473337 250.43922 
L 241.756729 250.859216 
L 242.040122 251.54171 
L 242.323514 251.725458 
L 242.8903 252.512951 
L 243.740477 254.350434 
L 244.307263 254.455433 
L 244.874048 254.192936 
L 245.15744 254.192936 
L 245.724225 254.79668 
L 246.857796 255.741671 
L 247.141188 255.95167 
L 247.424581 255.87292 
L 247.707974 255.95167 
L 247.991366 255.584173 
L 248.274759 255.584173 
L 248.558151 255.741671 
L 248.841544 256.056669 
L 249.124937 255.95167 
L 249.408329 256.266667 
L 249.691722 256.371666 
L 249.975114 256.765412 
L 251.108685 257.316657 
L 251.67547 256.161668 
L 251.958862 256.94916 
L 252.525648 256.791662 
L 252.80904 257.369157 
L 253.092433 256.97541 
L 253.375825 256.97541 
L 253.659218 257.920401 
L 253.94261 257.132909 
L 254.226003 258.287898 
L 254.509396 257.894152 
L 254.792788 258.944142 
L 255.076181 251.410461 
L 255.359573 248.470488 
L 255.642966 254.219185 
L 255.926359 256.319166 
L 256.209751 256.030419 
L 256.493144 257.631654 
L 256.776536 256.817912 
L 257.343321 261.30662 
L 258.193499 261.017873 
L 258.476892 261.30662 
L 259.043677 261.070373 
L 259.32707 261.175372 
L 260.46064 262.120363 
L 261.027425 262.330361 
L 261.59421 261.674117 
L 261.877603 261.044123 
L 262.160995 261.254121 
L 262.444388 261.936615 
L 262.727781 261.33287 
L 263.011173 262.540359 
L 263.294566 262.724107 
L 263.577958 263.117854 
L 263.861351 263.931596 
L 264.144744 264.167844 
L 264.711529 263.459101 
L 264.994921 263.800347 
L 265.278314 263.196603 
L 265.845099 263.380351 
L 266.411884 263.5116 
L 266.695277 263.826597 
L 266.978669 263.879097 
L 267.262062 263.432851 
L 267.545455 263.669099 
L 267.828847 262.172862 
L 268.11224 262.38286 
L 268.395632 262.015364 
L 268.679025 261.044123 
L 268.962417 261.595368 
L 269.24581 263.249102 
L 269.529203 263.432851 
L 269.812595 264.220344 
L 270.095988 264.377842 
L 270.946166 265.69033 
L 271.229558 265.532831 
L 271.512951 265.007836 
L 271.796343 264.902837 
L 272.079736 263.984096 
L 272.363128 263.48535 
L 272.646521 264.062845 
L 273.213306 265.769079 
L 273.496699 265.506582 
L 273.780091 266.084076 
L 274.063484 266.372824 
L 274.346877 266.189075 
L 274.913662 266.81907 
L 275.197054 266.74032 
L 275.480447 266.451573 
L 275.76384 266.346574 
L 276.047232 266.661571 
L 276.330625 266.76657 
L 276.614017 267.134067 
L 276.89741 267.239066 
L 277.180802 266.950318 
L 277.747588 267.396564 
L 278.03098 267.501563 
L 278.597765 267.265316 
L 278.881158 267.606562 
L 279.164551 267.055318 
L 279.447943 267.212816 
L 279.731336 267.632812 
L 280.014728 267.501563 
L 280.298121 267.554063 
L 281.431691 268.157807 
L 281.715084 267.84281 
L 281.998476 267.317815 
L 282.565262 267.527813 
L 282.848654 267.449064 
L 283.132047 267.711561 
L 283.415439 268.315306 
L 283.698832 268.105308 
L 283.982224 268.236557 
L 284.265617 268.656553 
L 284.54901 268.761552 
L 284.832402 268.604053 
L 285.399187 267.92156 
L 285.68258 268.105308 
L 285.965973 267.711561 
L 286.249365 268.394055 
L 286.532758 268.709052 
L 286.81615 268.656553 
L 287.382936 268.892801 
L 287.666328 268.761552 
L 287.949721 268.866551 
L 288.516506 268.656553 
L 288.799898 268.630303 
L 289.366684 267.764061 
L 289.650076 268.420305 
L 289.933469 268.105308 
L 290.500254 269.076549 
L 290.783647 268.892801 
L 291.350432 269.575294 
L 291.917217 269.207798 
L 292.200609 269.601544 
L 292.767395 268.525304 
L 293.050787 268.289056 
L 295.034535 269.627794 
L 295.317928 269.470295 
L 295.60132 269.050299 
L 295.884713 269.076549 
L 296.168106 269.234047 
L 296.451498 268.814051 
L 297.018283 269.732793 
L 297.301676 269.391546 
L 297.585069 269.864042 
L 297.868461 269.99529 
L 298.151854 270.310288 
L 298.435246 269.234047 
L 298.718639 269.155298 
L 299.002031 268.682803 
L 299.285424 259.547887 
L 299.568817 240.753059 
L 299.852209 239.099324 
L 300.135602 239.335572 
L 300.702387 243.798031 
L 301.269172 248.23424 
L 302.402743 254.77043 
L 302.686135 257.054159 
L 302.969528 257.447906 
L 303.536313 249.205482 
L 303.819705 248.102992 
L 304.103098 249.205482 
L 304.386491 249.284231 
L 304.669883 250.622969 
L 304.953276 250.019224 
L 305.236668 248.916734 
L 305.520061 256.345416 
L 305.803454 256.97541 
L 306.086846 257.894152 
L 306.370239 257.264157 
L 306.937024 258.839143 
L 307.503809 260.20413 
L 308.353987 261.857865 
L 308.637379 261.700367 
L 308.920772 262.750357 
L 309.487557 263.091604 
L 309.77095 263.48535 
L 310.054342 263.616599 
L 310.337735 264.167844 
L 310.621127 264.167844 
L 310.90452 264.61409 
L 311.187913 264.850338 
L 311.471305 264.745339 
L 311.754698 264.404092 
L 312.03809 264.64034 
L 312.321483 264.141594 
L 312.604876 264.167844 
L 312.888268 264.062845 
L 313.171661 264.719089 
L 313.738446 264.955337 
L 314.021838 265.270334 
L 314.305231 265.952828 
L 314.588624 266.267825 
L 315.155409 266.399074 
L 315.722194 266.425323 
L 316.005587 266.399074 
L 316.572372 266.897819 
L 316.855764 267.317815 
L 317.42255 267.554063 
L 317.705942 267.449064 
L 318.272727 267.659062 
L 318.55612 267.501563 
L 319.68969 267.370315 
L 320.256475 267.737811 
L 321.673438 267.84281 
L 321.956831 267.659062 
L 322.240223 267.86906 
L 323.090401 267.86906 
L 323.657186 268.394055 
L 323.940579 268.604053 
L 325.357542 268.682803 
L 325.924327 268.682803 
L 326.774505 268.630303 
L 327.057897 268.761552 
L 327.624683 269.391546 
L 329.041646 269.627794 
L 329.608431 269.286547 
L 329.891823 269.417796 
L 330.458608 270.152789 
L 330.742001 270.152789 
L 331.025394 270.441536 
L 331.308786 270.520286 
L 331.875571 270.467786 
L 332.158964 270.441536 
L 333.292534 269.522795 
L 333.575927 269.417796 
L 333.859319 269.522795 
L 334.142712 269.759043 
L 334.426105 269.627794 
L 334.709497 269.785292 
L 334.99289 269.706543 
L 335.559675 270.152789 
L 335.843068 270.310288 
L 336.12646 270.231538 
L 336.409853 269.864042 
L 336.693245 270.07404 
L 336.976638 269.942791 
L 337.26003 270.336537 
L 338.393601 270.966532 
L 339.527171 270.520286 
L 339.810564 270.441536 
L 343.211275 257.526655 
L 343.77806 258.314148 
L 344.344845 260.361629 
L 344.91163 261.621617 
L 345.195023 261.490369 
L 345.478415 261.647867 
L 346.045201 259.810384 
L 346.328593 259.574136 
L 346.611986 259.652886 
L 346.895378 259.967883 
L 347.178771 260.466628 
L 349.162519 266.451573 
L 349.729304 267.317815 
L 350.012697 267.002818 
L 350.579482 267.527813 
L 351.42966 268.709052 
L 351.713052 269.391546 
L 351.996445 269.496545 
L 352.279837 269.470295 
L 352.846623 270.205289 
L 353.130015 270.284038 
L 353.6968 269.890291 
L 354.546978 269.706543 
L 354.830371 270.126539 
L 355.680549 270.467786 
L 356.530726 270.336537 
L 356.814119 270.310288 
L 357.097511 269.890291 
L 357.380904 270.231538 
L 357.664297 270.756533 
L 357.947689 270.940282 
L 358.231082 271.570276 
L 358.797867 271.675275 
L 359.08126 271.465277 
L 359.364652 272.17402 
L 361.065008 271.307778 
L 361.3484 271.465277 
L 361.631793 271.491527 
L 361.915185 271.307778 
L 362.481971 271.701525 
L 363.048756 271.727775 
L 363.332148 271.570276 
L 363.898933 271.045281 
L 364.182326 271.12403 
L 364.749111 271.964022 
L 365.032504 272.25277 
L 365.315896 272.961513 
L 365.599289 272.620266 
L 366.166074 273.486508 
L 366.732859 272.725265 
L 367.583037 272.069021 
L 367.86643 272.147771 
L 368.149822 271.964022 
L 368.433215 271.937773 
L 369 272.20027 
L 369.283393 272.646516 
L 369.566785 272.567767 
L 370.13357 272.777765 
L 370.416963 272.462768 
L 370.700356 271.937773 
L 371.267141 272.830264 
L 371.550533 272.987763 
L 372.117318 273.696506 
L 372.400711 273.35526 
L 372.684104 273.775256 
L 373.250889 273.092762 
L 373.534281 272.935263 
L 373.817674 272.646516 
L 374.101067 272.17402 
L 374.384459 272.20027 
L 374.667852 271.990272 
L 374.951244 271.937773 
L 375.518029 272.25277 
L 375.801422 272.121521 
L 376.084815 272.25277 
L 376.368207 272.147771 
L 376.934992 272.594017 
L 377.218385 272.25277 
L 377.501778 272.305269 
L 378.351955 272.987763 
L 378.635348 273.617757 
L 378.91874 273.854005 
L 379.202133 273.119012 
L 379.768918 273.32901 
L 380.052311 272.987763 
L 380.335703 272.935263 
L 380.902489 272.594017 
L 381.185881 271.701525 
L 381.469274 270.10029 
L 381.752666 269.286547 
L 382.036059 269.260297 
L 382.319451 268.656553 
L 382.886237 268.105308 
L 384.3032 268.472804 
L 384.869985 269.417796 
L 385.153377 269.312797 
L 385.43677 270.02154 
L 385.720163 270.284038 
L 386.003555 270.205289 
L 386.57034 270.756533 
L 386.853733 270.704034 
L 387.137125 270.861533 
L 387.420518 271.307778 
L 387.987303 271.307778 
L 388.270696 271.517776 
L 388.554088 271.465277 
L 388.837481 271.570276 
L 389.120874 271.544026 
L 389.404266 271.649025 
L 389.971051 272.22652 
L 390.537836 272.410268 
L 391.104622 271.832774 
L 392.238192 272.594017 
L 392.521585 273.171511 
L 392.804977 273.197761 
L 393.371762 272.882764 
L 393.938547 272.725265 
L 394.22194 272.804015 
L 394.505333 273.171511 
L 395.072118 272.804015 
L 395.922296 273.145262 
L 396.489081 273.040262 
L 397.339259 273.066512 
L 397.622651 272.751515 
L 397.906044 272.830264 
L 398.189436 273.066512 
L 398.472829 272.935263 
L 399.039614 273.644007 
L 399.323007 273.32901 
L 400.173184 274.247751 
L 400.456577 273.801506 
L 401.023362 271.439027 
L 401.306755 271.09778 
L 401.590147 271.202779 
L 401.87354 271.439027 
L 402.440325 272.22652 
L 402.723718 272.121521 
L 403.00711 272.489018 
L 403.857288 273.014013 
L 404.424073 272.751515 
L 404.707466 272.368269 
L 405.841036 273.486508 
L 406.124429 274.221502 
L 406.407821 274.221502 
L 406.691214 274.746497 
L 406.974606 274.956495 
L 407.824784 274.41575 
L 408.391569 273.880255 
L 409.241747 273.486508 
L 409.52514 273.119012 
L 410.375317 273.040262 
L 410.942103 273.565258 
L 411.508888 273.014013 
L 412.075673 273.775256 
L 412.642458 273.932754 
L 412.925851 274.169002 
L 413.209243 274.011504 
L 413.492636 274.090253 
L 413.776028 274.300251 
L 414.059421 274.037753 
L 414.342814 273.959004 
L 414.626206 273.381509 
L 414.909599 273.092762 
L 415.476384 272.987763 
L 415.759777 272.567767 
L 416.609954 272.25277 
L 416.893347 272.436518 
L 417.176739 272.462768 
L 417.460132 272.751515 
L 418.31031 272.331519 
L 419.727273 274.274001 
L 420.294058 274.195252 
L 420.57745 274.483999 
L 420.860843 274.35275 
L 421.144236 274.4315 
L 421.427628 273.35526 
L 421.711021 273.145262 
L 421.994413 273.486508 
L 422.277806 272.961513 
L 422.561199 272.909014 
L 423.127984 273.197761 
L 423.411376 272.935263 
L 423.694769 273.014013 
L 423.978162 272.961513 
L 424.261554 273.30276 
L 424.544947 273.407759 
L 424.828339 273.30276 
L 425.111732 273.040262 
L 425.96191 273.407759 
L 426.528695 273.775256 
L 426.812087 273.434009 
L 427.09548 273.617757 
L 427.378873 273.591507 
L 427.662265 272.725265 
L 427.945658 272.725265 
L 428.512443 272.121521 
L 429.079228 271.386528 
L 429.646013 271.281529 
L 430.496191 270.966532 
L 431.062976 271.09778 
L 431.629761 271.281529 
L 431.913154 271.12403 
L 432.196546 271.229029 
L 432.479939 271.202779 
L 432.763332 271.517776 
L 433.046724 271.439027 
L 433.896902 271.859023 
L 434.180295 271.622776 
L 435.030472 271.727775 
L 435.313865 271.911523 
L 435.597257 271.727775 
L 435.88065 271.701525 
L 436.447435 271.465277 
L 437.581006 271.360278 
L 437.864398 271.360278 
L 438.714576 270.809033 
L 438.997969 271.071531 
L 439.281361 271.045281 
L 439.848146 271.491527 
L 440.131539 271.045281 
L 440.698324 270.914032 
L 440.981717 270.730284 
L 441.548502 270.704034 
L 441.831894 270.572785 
L 442.115287 270.572785 
L 442.39868 270.441536 
L 442.965465 270.362787 
L 443.53225 270.257788 
L 445.515998 270.310288 
L 445.799391 270.389037 
L 446.649568 269.99529 
L 446.932961 270.10029 
L 447.783139 269.969041 
L 448.066531 270.126539 
L 449.200102 270.152789 
L 449.483494 269.654044 
L 449.766887 266.845319 
L 450.333672 231.854391 
L 450.617064 229.334414 
L 450.900457 228.888168 
L 451.18385 227.470681 
L 452.034027 232.904381 
L 452.31742 232.510635 
L 452.600813 240.149315 
L 454.301168 252.512951 
L 454.867953 255.584173 
L 455.434738 257.605404 
L 456.001524 259.075391 
L 457.418487 261.464119 
L 459.118842 263.091604 
L 459.96902 264.692839 
L 460.252412 265.585331 
L 462.23616 267.764061 
L 463.653123 268.026559 
L 464.503301 268.656553 
L 465.353479 267.947809 
L 465.636872 268.026559 
L 466.203657 267.89531 
L 467.337227 269.732793 
L 467.62062 269.969041 
L 467.904012 270.914032 
L 468.187405 270.809033 
L 468.470797 270.284038 
L 468.75419 270.07404 
L 469.037583 269.627794 
L 469.320975 269.444046 
L 469.604368 269.811542 
L 469.88776 269.706543 
L 470.737938 269.732793 
L 471.304723 270.205289 
L 471.588116 269.969041 
L 471.871508 270.152789 
L 472.154901 270.651534 
L 472.438294 270.651534 
L 472.721686 270.310288 
L 473.005079 270.572785 
L 473.288471 270.992781 
L 473.571864 270.809033 
L 474.705434 272.436518 
L 474.988827 272.20027 
L 475.555612 272.410268 
L 475.839005 272.462768 
L 476.122397 272.305269 
L 478.389538 272.20027 
L 478.956323 272.305269 
L 479.239716 272.121521 
L 479.523108 271.596526 
L 479.806501 271.386528 
L 480.373286 271.596526 
L 480.656679 271.386528 
L 480.940071 271.675275 
L 481.223464 272.305269 
L 481.506856 272.410268 
L 481.790249 272.646516 
L 482.357034 272.725265 
L 482.640427 272.384019 
L 482.923819 272.410268 
L 483.490604 271.701525 
L 483.773997 271.465277 
L 485.474352 272.751515 
L 485.757745 272.804015 
L 486.041138 272.672766 
L 486.607923 272.095271 
L 486.891315 272.17402 
L 487.174708 272.567767 
L 488.024886 273.066512 
L 488.308278 273.670257 
L 488.591671 273.565258 
L 489.158456 273.827755 
L 489.441849 273.460259 
L 489.725241 273.460259 
L 490.008634 272.882764 
L 490.292026 272.594017 
L 491.708989 273.014013 
L 491.992382 272.882764 
L 492.559167 273.145262 
L 493.409345 272.699016 
L 493.692737 272.830264 
L 493.97613 273.460259 
L 494.259523 273.617757 
L 494.542915 273.591507 
L 494.826308 274.037753 
L 495.393093 273.775256 
L 495.676486 274.195252 
L 495.959878 274.142752 
L 497.093448 273.35526 
L 497.376841 273.460259 
L 497.660234 273.381509 
L 498.227019 272.725265 
L 499.077197 273.119012 
L 499.360589 273.381509 
L 499.927374 273.460259 
L 500.494159 274.064003 
L 500.777552 274.116503 
L 501.344337 274.772747 
L 501.911122 273.932754 
L 502.194515 268.709052 
L 502.477908 244.926771 
L 502.7613 236.841845 
L 503.044693 232.694383 
L 503.328085 231.513144 
L 503.611478 231.749392 
L 503.89487 234.505617 
L 504.178263 235.21436 
L 504.461656 239.046825 
L 505.878619 247.341749 
L 507.578974 256.97541 
L 508.712544 260.414129 
L 508.995937 260.991623 
L 509.562722 261.647867 
L 509.846115 262.671608 
L 510.4129 263.406601 
L 511.263078 265.296584 
L 511.829863 265.900328 
L 512.396648 266.609072 
L 512.680041 266.661571 
L 512.963433 266.897819 
L 513.246826 266.79282 
L 513.530218 266.950318 
L 513.813611 266.950318 
L 514.097004 267.160317 
L 514.663789 267.947809 
L 515.230574 268.367805 
L 515.513966 268.814051 
L 516.080752 269.155298 
L 524.865922 272.27377 
L 525.149314 272.17402 
L 525.999492 272.279019 
L 526.282885 272.541517 
L 526.84967 272.20027 
L 527.416455 272.305269 
L 527.699848 272.357769 
L 528.266633 272.751515 
L 528.550025 273.250261 
L 528.833418 273.512758 
L 529.116811 273.617757 
L 530.250381 273.460259 
L 530.533773 273.670257 
L 530.817166 273.32901 
L 531.100559 273.224011 
L 531.667344 273.460259 
L 531.950736 273.066512 
L 532.517522 273.460259 
L 532.800914 273.775256 
L 533.084307 273.617757 
L 533.651092 273.775256 
L 533.934485 273.670257 
L 534.217877 273.696506 
L 534.50127 273.854005 
L 535.068055 274.326501 
L 535.351447 274.379 
L 535.63484 274.300251 
L 536.201625 274.772747 
L 536.485018 274.379 
L 537.051803 274.169002 
L 537.901981 273.906505 
L 538.468766 273.880255 
L 539.035551 273.644007 
L 539.602336 273.565258 
L 540.169121 273.670257 
L 541.019299 273.486508 
L 541.302692 273.696506 
L 541.869477 274.510249 
L 542.152869 274.221502 
L 542.719655 274.35275 
L 543.28644 275.271492 
L 543.569832 274.588998 
L 543.853225 274.326501 
L 544.136618 274.300251 
L 544.42001 274.40525 
L 544.703403 274.247751 
L 544.986795 273.959004 
L 545.836973 274.142752 
L 546.120366 274.35275 
L 546.687151 274.142752 
L 547.253936 274.35275 
L 547.537329 274.221502 
L 548.954292 275.297742 
L 549.237684 275.218992 
L 549.521077 275.48149 
L 550.087862 275.350241 
L 550.93804 275.035244 
L 551.221432 275.140243 
L 551.504825 275.008994 
L 552.355003 275.061494 
L 553.488573 275.035244 
L 553.771965 275.166493 
L 554.338751 275.113993 
L 555.472321 275.428991 
L 555.755714 275.192743 
L 556.322499 275.45524 
L 556.889284 275.192743 
L 558.306247 275.140243 
L 558.589639 275.061494 
L 558.873032 274.825246 
L 559.156425 274.746497 
L 559.439817 237.839336 
L 559.72321 274.247751 
L 560.006602 273.722756 
L 560.289995 235.870604 
L 560.573388 269.99529 
L 560.85678 266.976568 
L 561.423565 254.744181 
L 562.273743 243.745532 
L 562.557136 209.647095 
L 562.840528 239.676819 
L 563.123921 239.493071 
L 563.407313 240.096815 
L 564.540884 245.793013 
L 566.808024 255.479174 
L 567.658202 257.815402 
L 567.941595 258.182899 
L 569.925343 263.301602 
L 570.208735 263.905346 
L 570.775521 264.430342 
L 571.058913 264.58784 
L 571.342306 265.034086 
L 572.759269 265.900328 
L 573.326054 266.582822 
L 573.892839 267.107817 
L 574.459624 267.291565 
L 575.309802 267.632812 
L 575.593195 268.105308 
L 576.15998 268.026559 
L 576.726765 268.289056 
L 577.010157 267.055318 
L 577.29355 262.277861 
L 577.576943 261.149122 
L 577.860335 262.094113 
L 578.42712 264.850338 
L 578.993906 266.714071 
L 579.277298 267.422814 
L 580.694261 269.181548 
L 581.544439 269.549045 
L 581.827831 269.969041 
L 582.678009 270.572785 
L 583.244794 270.730284 
L 583.528187 270.677784 
L 583.811579 270.756533 
L 584.094972 270.992781 
L 584.378365 271.465277 
L 584.661757 271.386528 
L 584.94515 271.15028 
L 585.228542 271.15028 
L 585.511935 271.570276 
L 585.795328 271.622776 
L 586.07872 271.465277 
L 586.362113 271.937773 
L 586.645505 272.016522 
L 586.928898 270.914032 
L 588.062468 271.15028 
L 588.629253 270.992781 
L 588.912646 271.12403 
L 589.762824 272.462768 
L 590.329609 272.594017 
L 590.613002 272.830264 
L 590.896394 272.856514 
L 591.179787 272.594017 
L 591.463179 272.489018 
L 592.880142 272.830264 
L 594.013713 272.725265 
L 595.430675 272.777765 
L 596.280853 273.197761 
L 596.564246 273.092762 
L 596.847638 272.751515 
L 597.131031 272.121521 
L 597.414424 270.914032 
L 597.697816 268.604053 
L 598.264601 256.581664 
L 598.547994 254.035437 
L 598.831386 253.457942 
L 599.114779 253.825439 
L 599.964957 256.082918 
L 600.531742 257.132909 
L 601.098527 258.0779 
L 601.948705 258.812893 
L 602.232098 258.839143 
L 602.51549 259.12789 
L 603.365668 261.35912 
L 604.215846 260.834125 
L 604.782631 260.781625 
L 605.916201 262.304111 
L 607.616557 265.034086 
L 609.600305 266.74032 
L 609.883697 266.714071 
L 610.16709 267.370315 
L 610.450482 267.501563 
L 610.733875 267.396564 
L 611.017268 267.580313 
L 611.30066 267.501563 
L 611.584053 267.291565 
L 612.717623 267.737811 
L 613.284408 267.632812 
L 613.567801 267.632812 
L 614.134586 268.131558 
L 614.417979 267.947809 
L 615.268156 268.394055 
L 615.834942 268.236557 
L 616.401727 269.312797 
L 616.685119 269.391546 
L 616.968512 269.942791 
L 617.251905 270.231538 
L 617.535297 270.310288 
L 617.81869 270.231538 
L 618.102082 270.441536 
L 618.385475 270.966532 
L 618.668867 270.914032 
L 618.95226 270.730284 
L 619.235653 271.019031 
L 620.08583 270.861533 
L 620.369223 270.651534 
L 620.652616 270.651534 
L 620.936008 270.809033 
L 621.502793 270.756533 
L 621.786186 270.625285 
L 622.069578 270.704034 
L 622.636364 269.753793 
L 622.636364 269.753793 
" clip-path="url(#pab491d22f3)" style="fill: none; stroke: #1f77b4; stroke-width: 1.5; stroke-linecap: square"/>
   </g>
   <g id="line2d_15">
    <path d="M 115.363636 273.388397 
L 115.930422 273.429802 
L 116.213814 273.906505 
L 120.748095 273.960893 
L 121.031488 273.762054 
L 121.598273 272.750341 
L 122.165058 272.657572 
L 122.731844 272.733868 
L 123.015236 268.91905 
L 124.998984 270.03964 
L 126.982732 270.913734 
L 128.116303 271.336357 
L 128.399695 271.238742 
L 128.683088 270.074529 
L 128.96648 268.31365 
L 129.249873 267.67321 
L 129.533266 267.730179 
L 129.816658 225.554449 
L 131.233621 232.898564 
L 133.217369 241.105213 
L 133.500762 241.433787 
L 133.784154 241.315904 
L 134.067547 242.108429 
L 134.35094 241.337941 
L 134.634332 237.032018 
L 134.917725 235.916338 
L 135.201117 236.619864 
L 136.334688 241.115794 
L 136.61808 259.626636 
L 138.318436 262.35517 
L 139.735399 264.239026 
L 141.435754 266.106692 
L 143.13611 267.620316 
L 143.419502 267.711561 
L 145.119858 268.919496 
L 147.103606 270.040016 
L 149.370747 271.026718 
L 149.654139 270.837524 
L 149.937532 266.609711 
L 150.220924 207.783362 
L 150.787709 202.180466 
L 151.354495 201.596347 
L 151.637887 201.692503 
L 151.92128 202.510958 
L 152.488065 205.754336 
L 154.188421 217.046301 
L 155.321991 221.445044 
L 155.605383 221.530585 
L 155.888776 221.913074 
L 156.455561 224.038836 
L 156.738954 225.519659 
L 157.022346 248.207991 
L 158.722702 252.214725 
L 160.423057 255.598749 
L 162.123413 258.456759 
L 163.540376 260.496002 
L 163.823768 262.540359 
L 165.240731 264.394711 
L 166.941087 266.232881 
L 168.35805 267.469303 
L 168.641442 265.881991 
L 168.924835 255.293299 
L 169.49162 225.965389 
L 169.775013 223.840148 
L 170.058405 224.471968 
L 170.341798 225.809604 
L 170.62519 234.610616 
L 172.325546 241.81735 
L 173.742509 246.874817 
L 175.159472 251.169063 
L 176.576435 254.80585 
L 177.14322 256.097908 
L 177.426612 261.726616 
L 178.843575 263.710514 
L 180.543931 265.678034 
L 182.244286 267.273078 
L 183.944642 268.564668 
L 184.228035 263.721598 
L 185.92839 265.316987 
L 187.912138 266.867644 
L 189.895886 268.140906 
L 190.746064 268.614303 
L 191.029457 267.475314 
L 193.013205 268.63987 
L 195.280345 269.717961 
L 197.547486 270.578615 
L 197.830879 269.99529 
L 199.814627 270.879092 
L 202.081767 271.653023 
L 204.348908 272.234687 
L 204.632301 273.040262 
L 209.733367 273.424997 
L 210.583545 273.488532 
L 210.866938 273.3028 
L 211.15033 272.611627 
L 211.433723 272.691005 
L 211.717115 268.392996 
L 212.2839 228.393776 
L 212.567293 220.409404 
L 212.850686 219.322512 
L 213.134078 219.96852 
L 214.267649 225.523024 
L 215.968004 233.339088 
L 216.251397 233.871079 
L 216.534789 233.346871 
L 216.818182 233.506719 
L 217.101574 233.213998 
L 217.384967 224.632733 
L 217.66836 210.314227 
L 217.951752 204.099525 
L 218.235145 203.944388 
L 218.518537 205.154401 
L 221.635856 223.73451 
L 223.052819 230.533676 
L 224.469782 236.412861 
L 225.886745 241.496551 
L 227.303707 245.892386 
L 229.004063 250.38956 
L 230.704418 254.166807 
L 232.404774 257.339378 
L 234.10513 260.004074 
L 235.805485 262.242198 
L 237.505841 264.122039 
L 238.356018 264.945903 
L 238.639411 246.449257 
L 240.339766 250.729469 
L 242.040122 254.344363 
L 243.740477 257.397355 
L 245.15744 259.575722 
L 245.440833 254.192936 
L 248.274759 256.766392 
L 250.541899 258.607916 
L 250.825292 258.76786 
L 251.108685 259.188169 
L 251.392077 257.739678 
L 251.958862 249.4235 
L 252.242255 256.94916 
L 256.776536 260.378755 
L 258.760284 261.674233 
L 259.043677 261.201621 
L 262.160995 263.075635 
L 265.278314 264.698637 
L 268.679025 266.222292 
L 272.363128 267.624317 
L 276.330625 268.890151 
L 280.581513 270.012439 
L 285.399187 271.044768 
L 287.382936 271.407507 
L 287.666328 268.892801 
L 291.917217 270.014617 
L 292.767395 270.213769 
L 293.050787 268.525304 
L 297.301676 269.711041 
L 297.868461 269.805221 
L 298.435246 269.757363 
L 299.285424 269.86626 
L 299.568817 270.282262 
L 299.852209 267.697657 
L 300.418994 258.151852 
L 300.702387 257.148412 
L 300.98578 257.10561 
L 301.835957 257.737758 
L 303.819705 259.292768 
L 304.103098 259.224905 
L 304.669883 258.648555 
L 304.953276 258.641746 
L 305.520061 258.952125 
L 308.920772 261.304676 
L 312.03809 263.164886 
L 315.155409 264.775934 
L 318.55612 266.288365 
L 322.240223 267.680064 
L 326.20772 268.936574 
L 330.458608 270.050595 
L 335.276282 271.07532 
L 339.810564 271.852455 
L 343.211275 258.996642 
L 343.494667 257.413323 
L 343.77806 256.881361 
L 344.061453 256.923447 
L 345.478415 258.032284 
L 346.328593 258.643012 
L 346.895378 258.881907 
L 350.579482 261.408864 
L 350.862875 267.265316 
L 352.279837 268.625816 
L 352.56323 268.766157 
L 353.130015 267.03178 
L 353.413408 266.780945 
L 353.6968 266.861698 
L 355.680549 268.772443 
L 356.247334 269.239507 
L 356.530726 270.494036 
L 358.514474 271.593151 
L 360.498222 272.437894 
L 362.765363 273.1653 
L 363.048756 273.241638 
L 363.332148 271.596526 
L 365.315896 272.440485 
L 367.583037 273.167213 
L 369.850178 273.703143 
L 370.13357 272.541517 
L 372.400711 273.241766 
L 375.234637 273.864319 
L 376.6516 274.096901 
L 376.934992 272.069021 
L 378.068563 272.5219 
L 378.91874 272.461102 
L 379.202133 270.987159 
L 379.485526 268.686906 
L 379.768918 267.434377 
L 380.052311 267.076989 
L 380.619096 267.45931 
L 381.185881 267.216909 
L 381.469274 267.08712 
L 381.752666 267.097103 
L 382.319451 267.548254 
L 383.453022 268.613295 
L 383.736414 268.131558 
L 384.869985 269.141711 
L 386.003555 269.329911 
L 387.987303 270.692156 
L 389.971051 271.745543 
L 390.254444 271.874661 
L 390.537836 272.305269 
L 392.804977 273.022308 
L 395.638903 273.670675 
L 397.055866 273.91649 
L 397.339259 273.171511 
L 400.173184 273.774448 
L 403.573895 274.260376 
L 403.857288 274.292063 
L 404.140681 272.541517 
L 406.691214 273.268882 
L 409.52514 273.842151 
L 411.79228 274.171958 
L 412.075673 272.974638 
L 412.642458 273.052251 
L 415.476384 273.691504 
L 417.743525 274.059423 
L 418.026917 272.809265 
L 420.57745 273.462185 
L 423.694769 274.018374 
L 427.378873 274.443798 
L 431.062976 274.70817 
L 431.346369 270.982281 
L 432.479939 271.236449 
L 432.763332 271.111085 
L 433.046724 269.144454 
L 433.613509 263.297469 
L 433.896902 261.465571 
L 434.180295 260.855163 
L 434.74708 261.185672 
L 437.581006 263.221792 
L 437.864398 263.38892 
L 438.147791 271.328778 
L 438.431183 271.442457 
L 438.714576 269.224733 
L 439.281361 257.390585 
L 439.564754 254.445634 
L 439.848146 253.759054 
L 440.131539 253.842781 
L 446.082783 258.881639 
L 446.366176 270.289288 
L 447.499746 270.534029 
L 447.783139 270.06879 
L 449.766887 270.428437 
L 450.050279 270.032235 
L 450.333672 268.795264 
L 450.617064 265.328343 
L 451.18385 256.31183 
L 451.467242 253.878693 
L 451.750635 227.386682 
L 452.034027 227.280652 
L 452.31742 227.354799 
L 452.600813 227.549458 
L 453.167598 228.52535 
L 455.718131 233.641372 
L 457.985272 237.723166 
L 460.252412 241.357419 
L 460.819198 241.767339 
L 461.10259 241.868698 
L 461.669375 242.50706 
L 464.503301 246.460111 
L 465.070086 247.192964 
L 465.353479 268.493804 
L 468.75419 269.638059 
L 471.871508 270.513035 
L 472.154901 269.974291 
L 476.122397 270.996233 
L 478.67293 271.54374 
L 478.956323 272.17927 
L 485.19096 272.912953 
L 485.474352 272.941594 
L 485.757745 272.651766 
L 491.425597 273.323986 
L 492.275775 273.407781 
L 492.559167 272.872264 
L 498.510411 273.510777 
L 499.077197 273.561265 
L 499.360589 272.966763 
L 501.060945 273.505866 
L 501.344337 272.513346 
L 501.62773 270.020708 
L 504.178263 238.148483 
L 504.461656 236.779967 
L 504.745048 237.006617 
L 505.878619 241.370812 
L 506.162011 245.404517 
L 508.429152 248.92369 
L 510.696293 252.023774 
L 511.263078 252.660426 
L 511.829863 253.06318 
L 512.680041 254.067878 
L 512.963433 266.603822 
L 513.246826 266.990061 
L 514.097004 267.19892 
L 515.230574 268.198195 
L 515.797359 268.698635 
L 516.080752 268.732275 
L 525.432707 271.709031 
L 527.699848 272.575347 
L 530.250381 273.293312 
L 533.084307 273.859134 
L 533.367699 273.785756 
L 536.76841 274.269235 
L 537.335196 274.35115 
L 538.468766 273.815254 
L 539.885729 274.031586 
L 540.169121 273.565258 
L 543.28644 274.087425 
L 546.687151 274.463859 
L 546.970543 274.195252 
L 547.253936 274.317212 
L 548.104114 273.784938 
L 548.670899 273.802285 
L 548.954292 273.928103 
L 549.237684 273.361566 
L 549.521077 271.827751 
L 550.087862 266.055944 
L 550.654647 260.841567 
L 551.221432 258.222675 
L 551.504825 257.610468 
L 551.788217 257.513514 
L 552.355003 258.349459 
L 552.638395 258.864182 
L 552.921788 256.425188 
L 553.488573 247.808915 
L 553.771965 275.045744 
L 557.172676 275.083963 
L 557.456069 274.973223 
L 558.306247 272.733032 
L 558.589639 272.200701 
L 558.873032 270.945703 
L 559.439817 263.896733 
L 559.72321 262.459617 
L 560.006602 262.239723 
L 560.573388 263.043457 
L 560.85678 273.848755 
L 561.423565 267.462301 
L 562.273743 261.466247 
L 562.840528 259.677312 
L 563.690706 253.313219 
L 563.974099 252.852787 
L 564.257491 252.820003 
L 564.540884 253.035528 
L 565.107669 254.213869 
L 566.808024 258.077205 
L 567.091417 258.654065 
L 567.37481 255.389925 
L 570.208735 257.787583 
L 573.042661 259.894164 
L 573.892839 260.475033 
L 574.176232 266.855819 
L 577.29355 268.173237 
L 580.694261 269.372682 
L 580.977654 268.745802 
L 584.661757 269.929366 
L 587.495683 270.688474 
L 587.779076 270.982281 
L 592.313357 271.908214 
L 594.297105 272.245473 
L 594.580498 272.746265 
L 595.430675 272.75823 
L 595.714068 271.699325 
L 596.280853 265.558259 
L 596.847638 259.80496 
L 597.131031 258.82585 
L 597.414424 258.590367 
L 597.697816 258.756222 
L 597.981209 258.632405 
L 598.264601 257.091332 
L 598.547994 253.100734 
L 599.114779 243.525944 
L 599.398172 242.50127 
L 599.681564 242.828434 
L 601.098527 245.273497 
L 601.38192 257.594904 
L 601.948705 258.076667 
L 602.232098 258.002665 
L 602.51549 257.460329 
L 603.082275 255.335806 
L 603.365668 254.780424 
L 603.64906 254.8316 
L 603.932453 253.442688 
L 604.499238 247.394697 
L 604.782631 246.165338 
L 605.066023 245.834315 
L 605.349416 246.046646 
L 607.899949 249.865262 
L 608.183342 264.997336 
L 609.883697 266.953514 
L 611.30066 267.920306 
L 611.584053 267.66295 
L 612.150838 264.795623 
L 612.434231 264.355115 
L 612.717623 264.439315 
L 614.701371 266.763857 
L 614.984764 267.989809 
L 616.685119 269.37466 
L 618.385475 270.496304 
L 620.369223 271.536138 
L 621.502793 272.023487 
L 621.786186 270.856283 
L 622.636364 271.297367 
L 622.636364 271.297367 
" clip-path="url(#pab491d22f3)" style="fill: none; stroke: #ff7f0e; stroke-width: 1.5; stroke-linecap: square"/>
   </g>
   <g id="patch_3">
    <path d="M 90 288 
L 90 43.2 
" style="fill: none; stroke: #000000; stroke-width: 0.8; stroke-linejoin: miter; stroke-linecap: square"/>
   </g>
   <g id="patch_4">
    <path d="M 648 288 
L 648 43.2 
" style="fill: none; stroke: #000000; stroke-width: 0.8; stroke-linejoin: miter; stroke-linecap: square"/>
   </g>
   <g id="patch_5">
    <path d="M 90 288 
L 648 288 
" style="fill: none; stroke: #000000; stroke-width: 0.8; stroke-linejoin: miter; stroke-linecap: square"/>
   </g>
   <g id="patch_6">
    <path d="M 90 43.2 
L 648 43.2 
" style="fill: none; stroke: #000000; stroke-width: 0.8; stroke-linejoin: miter; stroke-linecap: square"/>
   </g>
   <g id="text_15">
    <!-- ARB071 -->
    <g transform="translate(345.1575 37.2) scale(0.12 -0.12)">
     <defs>
      <path id="DejaVuSans-41" d="M 2188 4044 
L 1331 1722 
L 3047 1722 
L 2188 4044 
z
M 1831 4666 
L 2547 4666 
L 4325 0 
L 3669 0 
L 3244 1197 
L 1141 1197 
L 716 0 
L 50 0 
L 1831 4666 
z
" transform="scale(0.015625)"/>
      <path id="DejaVuSans-52" d="M 2841 2188 
Q 3044 2119 3236 1894 
Q 3428 1669 3622 1275 
L 4263 0 
L 3584 0 
L 2988 1197 
Q 2756 1666 2539 1819 
Q 2322 1972 1947 1972 
L 1259 1972 
L 1259 0 
L 628 0 
L 628 4666 
L 2053 4666 
Q 2853 4666 3247 4331 
Q 3641 3997 3641 3322 
Q 3641 2881 3436 2590 
Q 3231 2300 2841 2188 
z
M 1259 4147 
L 1259 2491 
L 2053 2491 
Q 2509 2491 2742 2702 
Q 2975 2913 2975 3322 
Q 2975 3731 2742 3939 
Q 2509 4147 2053 4147 
L 1259 4147 
z
" transform="scale(0.015625)"/>
      <path id="DejaVuSans-42" d="M 1259 2228 
L 1259 519 
L 2272 519 
Q 2781 519 3026 730 
Q 3272 941 3272 1375 
Q 3272 1813 3026 2020 
Q 2781 2228 2272 2228 
L 1259 2228 
z
M 1259 4147 
L 1259 2741 
L 2194 2741 
Q 2656 2741 2882 2914 
Q 3109 3088 3109 3444 
Q 3109 3797 2882 3972 
Q 2656 4147 2194 4147 
L 1259 4147 
z
M 628 4666 
L 2241 4666 
Q 2963 4666 3353 4366 
Q 3744 4066 3744 3513 
Q 3744 3084 3544 2831 
Q 3344 2578 2956 2516 
Q 3422 2416 3680 2098 
Q 3938 1781 3938 1306 
Q 3938 681 3513 340 
Q 3088 0 2303 0 
L 628 0 
L 628 4666 
z
" transform="scale(0.015625)"/>
      <path id="DejaVuSans-37" d="M 525 4666 
L 3525 4666 
L 3525 4397 
L 1831 0 
L 1172 0 
L 2766 4134 
L 525 4134 
L 525 4666 
z
" transform="scale(0.015625)"/>
     </defs>
     <use xlink:href="#DejaVuSans-41"/>
     <use xlink:href="#DejaVuSans-52" x="68.408203"/>
     <use xlink:href="#DejaVuSans-42" x="137.890625"/>
     <use xlink:href="#DejaVuSans-30" x="206.494141"/>
     <use xlink:href="#DejaVuSans-37" x="270.117188"/>
     <use xlink:href="#DejaVuSans-31" x="333.740234"/>
    </g>
   </g>
   <g id="legend_1">
    <g id="patch_7">
     <path d="M 559.04375 80.55625 
L 641 80.55625 
Q 643 80.55625 643 78.55625 
L 643 50.2 
Q 643 48.2 641 48.2 
L 559.04375 48.2 
Q 557.04375 48.2 557.04375 50.2 
L 557.04375 78.55625 
Q 557.04375 80.55625 559.04375 80.55625 
z
" style="fill: #ffffff; opacity: 0.8; stroke: #cccccc; stroke-linejoin: miter"/>
    </g>
    <g id="line2d_16">
     <path d="M 561.04375 56.298437 
L 571.04375 56.298437 
L 581.04375 56.298437 
" style="fill: none; stroke: #1f77b4; stroke-width: 1.5; stroke-linecap: square"/>
    </g>
    <g id="text_16">
     <!-- measured -->
     <g transform="translate(589.04375 59.798437) scale(0.1 -0.1)">
      <defs>
       <path id="DejaVuSans-6d" d="M 3328 2828 
Q 3544 3216 3844 3400 
Q 4144 3584 4550 3584 
Q 5097 3584 5394 3201 
Q 5691 2819 5691 2113 
L 5691 0 
L 5113 0 
L 5113 2094 
Q 5113 2597 4934 2840 
Q 4756 3084 4391 3084 
Q 3944 3084 3684 2787 
Q 3425 2491 3425 1978 
L 3425 0 
L 2847 0 
L 2847 2094 
Q 2847 2600 2669 2842 
Q 2491 3084 2119 3084 
Q 1678 3084 1418 2786 
Q 1159 2488 1159 1978 
L 1159 0 
L 581 0 
L 581 3500 
L 1159 3500 
L 1159 2956 
Q 1356 3278 1631 3431 
Q 1906 3584 2284 3584 
Q 2666 3584 2933 3390 
Q 3200 3197 3328 2828 
z
" transform="scale(0.015625)"/>
       <path id="DejaVuSans-61" d="M 2194 1759 
Q 1497 1759 1228 1600 
Q 959 1441 959 1056 
Q 959 750 1161 570 
Q 1363 391 1709 391 
Q 2188 391 2477 730 
Q 2766 1069 2766 1631 
L 2766 1759 
L 2194 1759 
z
M 3341 1997 
L 3341 0 
L 2766 0 
L 2766 531 
Q 2569 213 2275 61 
Q 1981 -91 1556 -91 
Q 1019 -91 701 211 
Q 384 513 384 1019 
Q 384 1609 779 1909 
Q 1175 2209 1959 2209 
L 2766 2209 
L 2766 2266 
Q 2766 2663 2505 2880 
Q 2244 3097 1772 3097 
Q 1472 3097 1187 3025 
Q 903 2953 641 2809 
L 641 3341 
Q 956 3463 1253 3523 
Q 1550 3584 1831 3584 
Q 2591 3584 2966 3190 
Q 3341 2797 3341 1997 
z
" transform="scale(0.015625)"/>
       <path id="DejaVuSans-75" d="M 544 1381 
L 544 3500 
L 1119 3500 
L 1119 1403 
Q 1119 906 1312 657 
Q 1506 409 1894 409 
Q 2359 409 2629 706 
Q 2900 1003 2900 1516 
L 2900 3500 
L 3475 3500 
L 3475 0 
L 2900 0 
L 2900 538 
Q 2691 219 2414 64 
Q 2138 -91 1772 -91 
Q 1169 -91 856 284 
Q 544 659 544 1381 
z
M 1991 3584 
L 1991 3584 
z
" transform="scale(0.015625)"/>
       <path id="DejaVuSans-64" d="M 2906 2969 
L 2906 4863 
L 3481 4863 
L 3481 0 
L 2906 0 
L 2906 525 
Q 2725 213 2448 61 
Q 2172 -91 1784 -91 
Q 1150 -91 751 415 
Q 353 922 353 1747 
Q 353 2572 751 3078 
Q 1150 3584 1784 3584 
Q 2172 3584 2448 3432 
Q 2725 3281 2906 2969 
z
M 947 1747 
Q 947 1113 1208 752 
Q 1469 391 1925 391 
Q 2381 391 2643 752 
Q 2906 1113 2906 1747 
Q 2906 2381 2643 2742 
Q 2381 3103 1925 3103 
Q 1469 3103 1208 2742 
Q 947 2381 947 1747 
z
" transform="scale(0.015625)"/>
      </defs>
      <use xlink:href="#DejaVuSans-6d"/>
      <use xlink:href="#DejaVuSans-65" x="97.412109"/>
      <use xlink:href="#DejaVuSans-61" x="158.935547"/>
      <use xlink:href="#DejaVuSans-73" x="220.214844"/>
      <use xlink:href="#DejaVuSans-75" x="272.314453"/>
      <use xlink:href="#DejaVuSans-72" x="335.693359"/>
      <use xlink:href="#DejaVuSans-65" x="374.556641"/>
      <use xlink:href="#DejaVuSans-64" x="436.080078"/>
     </g>
    </g>
    <g id="line2d_17">
     <path d="M 561.04375 70.976562 
L 571.04375 70.976562 
L 581.04375 70.976562 
" style="fill: none; stroke: #ff7f0e; stroke-width: 1.5; stroke-linecap: square"/>
    </g>
    <g id="text_17">
     <!-- predicted -->
     <g transform="translate(589.04375 74.476562) scale(0.1 -0.1)">
      <defs>
       <path id="DejaVuSans-70" d="M 1159 525 
L 1159 -1331 
L 581 -1331 
L 581 3500 
L 1159 3500 
L 1159 2969 
Q 1341 3281 1617 3432 
Q 1894 3584 2278 3584 
Q 2916 3584 3314 3078 
Q 3713 2572 3713 1747 
Q 3713 922 3314 415 
Q 2916 -91 2278 -91 
Q 1894 -91 1617 61 
Q 1341 213 1159 525 
z
M 3116 1747 
Q 3116 2381 2855 2742 
Q 2594 3103 2138 3103 
Q 1681 3103 1420 2742 
Q 1159 2381 1159 1747 
Q 1159 1113 1420 752 
Q 1681 391 2138 391 
Q 2594 391 2855 752 
Q 3116 1113 3116 1747 
z
" transform="scale(0.015625)"/>
       <path id="DejaVuSans-69" d="M 603 3500 
L 1178 3500 
L 1178 0 
L 603 0 
L 603 3500 
z
M 603 4863 
L 1178 4863 
L 1178 4134 
L 603 4134 
L 603 4863 
z
" transform="scale(0.015625)"/>
       <path id="DejaVuSans-63" d="M 3122 3366 
L 3122 2828 
Q 2878 2963 2633 3030 
Q 2388 3097 2138 3097 
Q 1578 3097 1268 2742 
Q 959 2388 959 1747 
Q 959 1106 1268 751 
Q 1578 397 2138 397 
Q 2388 397 2633 464 
Q 2878 531 3122 666 
L 3122 134 
Q 2881 22 2623 -34 
Q 2366 -91 2075 -91 
Q 1284 -91 818 406 
Q 353 903 353 1747 
Q 353 2603 823 3093 
Q 1294 3584 2113 3584 
Q 2378 3584 2631 3529 
Q 2884 3475 3122 3366 
z
" transform="scale(0.015625)"/>
      </defs>
      <use xlink:href="#DejaVuSans-70"/>
      <use xlink:href="#DejaVuSans-72" x="63.476562"/>
      <use xlink:href="#DejaVuSans-65" x="102.339844"/>
      <use xlink:href="#DejaVuSans-64" x="163.863281"/>
      <use xlink:href="#DejaVuSans-69" x="227.339844"/>
      <use xlink:href="#DejaVuSans-63" x="255.123047"/>
      <use xlink:href="#DejaVuSans-74" x="310.103516"/>
      <use xlink:href="#DejaVuSans-65" x="349.3125"/>
      <use xlink:href="#DejaVuSans-64" x="410.835938"/>
     </g>
    </g>
   </g>
  </g>
 </g>
 <defs>
  <clipPath id="pab491d22f3">
   <rect x="90" y="43.2" width="558" height="244.8"/>
  </clipPath>
 </defs>
</svg>
