<?xml version="1.0" encoding="utf-8" standalone="no"?>
<!DOCTYPE svg PUBLIC "-//W3C//DTD SVG 1.1//EN"
  "http://www.w3.org/Graphics/SVG/1.1/DTD/svg11.dtd">
<svg xmlns:xlink="http://www.w3.org/1999/xlink" width="713.0225pt" height="351.43625pt" viewBox="0 0 713.0225 351.43625" xmlns="http://www.w3.org/2000/svg" version="1.1">
 <metadata>
  <rdf:RDF xmlns:dc="http://purl.org/dc/elements/1.1/" xmlns:cc="http://creativecommons.org/ns#" xmlns:rdf="http://www.w3.org/1999/02/22-rdf-syntax-ns#">
   <cc:Work>
    <dc:type rdf:resource="http://purl.org/dc/dcmitype/StillImage"/>
    <dc:date>2024-05-08T09:53:05.873413</dc:date>
    <dc:format>image/svg+xml</dc:format>
    <dc:creator>
     <cc:Agent>
      <dc:title>Matplotlib v3.8.4, https://matplotlib.org/</dc:title>
     </cc:Agent>
    </dc:creator>
   </cc:Work>
  </rdf:RDF>
 </metadata>
 <defs>
  <style type="text/css">*{stroke-linejoin: round; stroke-linecap: butt}</style>
 </defs>
 <g id="figure_1">
  <g id="patch_1">
   <path d="M 0 351.43625 
L 713.0225 351.43625 
L 713.0225 0 
L 0 0 
z
" style="fill: #ffffff"/>
  </g>
  <g id="axes_1">
   <g id="patch_2">
    <path d="M 46.0125 327.558125 
L 705.8225 327.558125 
L 705.8225 22.318125 
L 46.0125 22.318125 
z
" style="fill: #ffffff"/>
   </g>
   <g id="matplotlib.axis_1">
    <g id="xtick_1">
     <g id="line2d_1">
      <defs>
       <path id="mb991cc9acb" d="M 0 0 
L 0 3.5 
" style="stroke: #000000; stroke-width: 0.8"/>
      </defs>
      <g>
       <use xlink:href="#mb991cc9acb" x="53.054033" y="327.558125" style="stroke: #000000; stroke-width: 0.8"/>
      </g>
     </g>
     <g id="text_1">
      <!-- 2012 -->
      <g transform="translate(40.329033 342.156563) scale(0.1 -0.1)">
       <defs>
        <path id="DejaVuSans-32" d="M 1228 531 
L 3431 531 
L 3431 0 
L 469 0 
L 469 531 
Q 828 903 1448 1529 
Q 2069 2156 2228 2338 
Q 2531 2678 2651 2914 
Q 2772 3150 2772 3378 
Q 2772 3750 2511 3984 
Q 2250 4219 1831 4219 
Q 1534 4219 1204 4116 
Q 875 4013 500 3803 
L 500 4441 
Q 881 4594 1212 4672 
Q 1544 4750 1819 4750 
Q 2544 4750 2975 4387 
Q 3406 4025 3406 3419 
Q 3406 3131 3298 2873 
Q 3191 2616 2906 2266 
Q 2828 2175 2409 1742 
Q 1991 1309 1228 531 
z
" transform="scale(0.015625)"/>
        <path id="DejaVuSans-30" d="M 2034 4250 
Q 1547 4250 1301 3770 
Q 1056 3291 1056 2328 
Q 1056 1369 1301 889 
Q 1547 409 2034 409 
Q 2525 409 2770 889 
Q 3016 1369 3016 2328 
Q 3016 3291 2770 3770 
Q 2525 4250 2034 4250 
z
M 2034 4750 
Q 2819 4750 3233 4129 
Q 3647 3509 3647 2328 
Q 3647 1150 3233 529 
Q 2819 -91 2034 -91 
Q 1250 -91 836 529 
Q 422 1150 422 2328 
Q 422 3509 836 4129 
Q 1250 4750 2034 4750 
z
" transform="scale(0.015625)"/>
        <path id="DejaVuSans-31" d="M 794 531 
L 1825 531 
L 1825 4091 
L 703 3866 
L 703 4441 
L 1819 4666 
L 2450 4666 
L 2450 531 
L 3481 531 
L 3481 0 
L 794 0 
L 794 531 
z
" transform="scale(0.015625)"/>
       </defs>
       <use xlink:href="#DejaVuSans-32"/>
       <use xlink:href="#DejaVuSans-30" x="63.623047"/>
       <use xlink:href="#DejaVuSans-31" x="127.246094"/>
       <use xlink:href="#DejaVuSans-32" x="190.869141"/>
      </g>
     </g>
    </g>
    <g id="xtick_2">
     <g id="line2d_2">
      <g>
       <use xlink:href="#mb991cc9acb" x="135.911129" y="327.558125" style="stroke: #000000; stroke-width: 0.8"/>
      </g>
     </g>
     <g id="text_2">
      <!-- 2013 -->
      <g transform="translate(123.186129 342.156563) scale(0.1 -0.1)">
       <defs>
        <path id="DejaVuSans-33" d="M 2597 2516 
Q 3050 2419 3304 2112 
Q 3559 1806 3559 1356 
Q 3559 666 3084 287 
Q 2609 -91 1734 -91 
Q 1441 -91 1130 -33 
Q 819 25 488 141 
L 488 750 
Q 750 597 1062 519 
Q 1375 441 1716 441 
Q 2309 441 2620 675 
Q 2931 909 2931 1356 
Q 2931 1769 2642 2001 
Q 2353 2234 1838 2234 
L 1294 2234 
L 1294 2753 
L 1863 2753 
Q 2328 2753 2575 2939 
Q 2822 3125 2822 3475 
Q 2822 3834 2567 4026 
Q 2313 4219 1838 4219 
Q 1578 4219 1281 4162 
Q 984 4106 628 3988 
L 628 4550 
Q 988 4650 1302 4700 
Q 1616 4750 1894 4750 
Q 2613 4750 3031 4423 
Q 3450 4097 3450 3541 
Q 3450 3153 3228 2886 
Q 3006 2619 2597 2516 
z
" transform="scale(0.015625)"/>
       </defs>
       <use xlink:href="#DejaVuSans-32"/>
       <use xlink:href="#DejaVuSans-30" x="63.623047"/>
       <use xlink:href="#DejaVuSans-31" x="127.246094"/>
       <use xlink:href="#DejaVuSans-33" x="190.869141"/>
      </g>
     </g>
    </g>
    <g id="xtick_3">
     <g id="line2d_3">
      <g>
       <use xlink:href="#mb991cc9acb" x="218.54184" y="327.558125" style="stroke: #000000; stroke-width: 0.8"/>
      </g>
     </g>
     <g id="text_3">
      <!-- 2014 -->
      <g transform="translate(205.81684 342.156563) scale(0.1 -0.1)">
       <defs>
        <path id="DejaVuSans-34" d="M 2419 4116 
L 825 1625 
L 2419 1625 
L 2419 4116 
z
M 2253 4666 
L 3047 4666 
L 3047 1625 
L 3713 1625 
L 3713 1100 
L 3047 1100 
L 3047 0 
L 2419 0 
L 2419 1100 
L 313 1100 
L 313 1709 
L 2253 4666 
z
" transform="scale(0.015625)"/>
       </defs>
       <use xlink:href="#DejaVuSans-32"/>
       <use xlink:href="#DejaVuSans-30" x="63.623047"/>
       <use xlink:href="#DejaVuSans-31" x="127.246094"/>
       <use xlink:href="#DejaVuSans-34" x="190.869141"/>
      </g>
     </g>
    </g>
    <g id="xtick_4">
     <g id="line2d_4">
      <g>
       <use xlink:href="#mb991cc9acb" x="301.172551" y="327.558125" style="stroke: #000000; stroke-width: 0.8"/>
      </g>
     </g>
     <g id="text_4">
      <!-- 2015 -->
      <g transform="translate(288.447551 342.156563) scale(0.1 -0.1)">
       <defs>
        <path id="DejaVuSans-35" d="M 691 4666 
L 3169 4666 
L 3169 4134 
L 1269 4134 
L 1269 2991 
Q 1406 3038 1543 3061 
Q 1681 3084 1819 3084 
Q 2600 3084 3056 2656 
Q 3513 2228 3513 1497 
Q 3513 744 3044 326 
Q 2575 -91 1722 -91 
Q 1428 -91 1123 -41 
Q 819 9 494 109 
L 494 744 
Q 775 591 1075 516 
Q 1375 441 1709 441 
Q 2250 441 2565 725 
Q 2881 1009 2881 1497 
Q 2881 1984 2565 2268 
Q 2250 2553 1709 2553 
Q 1456 2553 1204 2497 
Q 953 2441 691 2322 
L 691 4666 
z
" transform="scale(0.015625)"/>
       </defs>
       <use xlink:href="#DejaVuSans-32"/>
       <use xlink:href="#DejaVuSans-30" x="63.623047"/>
       <use xlink:href="#DejaVuSans-31" x="127.246094"/>
       <use xlink:href="#DejaVuSans-35" x="190.869141"/>
      </g>
     </g>
    </g>
    <g id="xtick_5">
     <g id="line2d_5">
      <g>
       <use xlink:href="#mb991cc9acb" x="383.803262" y="327.558125" style="stroke: #000000; stroke-width: 0.8"/>
      </g>
     </g>
     <g id="text_5">
      <!-- 2016 -->
      <g transform="translate(371.078262 342.156563) scale(0.1 -0.1)">
       <defs>
        <path id="DejaVuSans-36" d="M 2113 2584 
Q 1688 2584 1439 2293 
Q 1191 2003 1191 1497 
Q 1191 994 1439 701 
Q 1688 409 2113 409 
Q 2538 409 2786 701 
Q 3034 994 3034 1497 
Q 3034 2003 2786 2293 
Q 2538 2584 2113 2584 
z
M 3366 4563 
L 3366 3988 
Q 3128 4100 2886 4159 
Q 2644 4219 2406 4219 
Q 1781 4219 1451 3797 
Q 1122 3375 1075 2522 
Q 1259 2794 1537 2939 
Q 1816 3084 2150 3084 
Q 2853 3084 3261 2657 
Q 3669 2231 3669 1497 
Q 3669 778 3244 343 
Q 2819 -91 2113 -91 
Q 1303 -91 875 529 
Q 447 1150 447 2328 
Q 447 3434 972 4092 
Q 1497 4750 2381 4750 
Q 2619 4750 2861 4703 
Q 3103 4656 3366 4563 
z
" transform="scale(0.015625)"/>
       </defs>
       <use xlink:href="#DejaVuSans-32"/>
       <use xlink:href="#DejaVuSans-30" x="63.623047"/>
       <use xlink:href="#DejaVuSans-31" x="127.246094"/>
       <use xlink:href="#DejaVuSans-36" x="190.869141"/>
      </g>
     </g>
    </g>
    <g id="xtick_6">
     <g id="line2d_6">
      <g>
       <use xlink:href="#mb991cc9acb" x="466.660358" y="327.558125" style="stroke: #000000; stroke-width: 0.8"/>
      </g>
     </g>
     <g id="text_6">
      <!-- 2017 -->
      <g transform="translate(453.935358 342.156563) scale(0.1 -0.1)">
       <defs>
        <path id="DejaVuSans-37" d="M 525 4666 
L 3525 4666 
L 3525 4397 
L 1831 0 
L 1172 0 
L 2766 4134 
L 525 4134 
L 525 4666 
z
" transform="scale(0.015625)"/>
       </defs>
       <use xlink:href="#DejaVuSans-32"/>
       <use xlink:href="#DejaVuSans-30" x="63.623047"/>
       <use xlink:href="#DejaVuSans-31" x="127.246094"/>
       <use xlink:href="#DejaVuSans-37" x="190.869141"/>
      </g>
     </g>
    </g>
    <g id="xtick_7">
     <g id="line2d_7">
      <g>
       <use xlink:href="#mb991cc9acb" x="549.291069" y="327.558125" style="stroke: #000000; stroke-width: 0.8"/>
      </g>
     </g>
     <g id="text_7">
      <!-- 2018 -->
      <g transform="translate(536.566069 342.156563) scale(0.1 -0.1)">
       <defs>
        <path id="DejaVuSans-38" d="M 2034 2216 
Q 1584 2216 1326 1975 
Q 1069 1734 1069 1313 
Q 1069 891 1326 650 
Q 1584 409 2034 409 
Q 2484 409 2743 651 
Q 3003 894 3003 1313 
Q 3003 1734 2745 1975 
Q 2488 2216 2034 2216 
z
M 1403 2484 
Q 997 2584 770 2862 
Q 544 3141 544 3541 
Q 544 4100 942 4425 
Q 1341 4750 2034 4750 
Q 2731 4750 3128 4425 
Q 3525 4100 3525 3541 
Q 3525 3141 3298 2862 
Q 3072 2584 2669 2484 
Q 3125 2378 3379 2068 
Q 3634 1759 3634 1313 
Q 3634 634 3220 271 
Q 2806 -91 2034 -91 
Q 1263 -91 848 271 
Q 434 634 434 1313 
Q 434 1759 690 2068 
Q 947 2378 1403 2484 
z
M 1172 3481 
Q 1172 3119 1398 2916 
Q 1625 2713 2034 2713 
Q 2441 2713 2670 2916 
Q 2900 3119 2900 3481 
Q 2900 3844 2670 4047 
Q 2441 4250 2034 4250 
Q 1625 4250 1398 4047 
Q 1172 3844 1172 3481 
z
" transform="scale(0.015625)"/>
       </defs>
       <use xlink:href="#DejaVuSans-32"/>
       <use xlink:href="#DejaVuSans-30" x="63.623047"/>
       <use xlink:href="#DejaVuSans-31" x="127.246094"/>
       <use xlink:href="#DejaVuSans-38" x="190.869141"/>
      </g>
     </g>
    </g>
    <g id="xtick_8">
     <g id="line2d_8">
      <g>
       <use xlink:href="#mb991cc9acb" x="631.92178" y="327.558125" style="stroke: #000000; stroke-width: 0.8"/>
      </g>
     </g>
     <g id="text_8">
      <!-- 2019 -->
      <g transform="translate(619.19678 342.156563) scale(0.1 -0.1)">
       <defs>
        <path id="DejaVuSans-39" d="M 703 97 
L 703 672 
Q 941 559 1184 500 
Q 1428 441 1663 441 
Q 2288 441 2617 861 
Q 2947 1281 2994 2138 
Q 2813 1869 2534 1725 
Q 2256 1581 1919 1581 
Q 1219 1581 811 2004 
Q 403 2428 403 3163 
Q 403 3881 828 4315 
Q 1253 4750 1959 4750 
Q 2769 4750 3195 4129 
Q 3622 3509 3622 2328 
Q 3622 1225 3098 567 
Q 2575 -91 1691 -91 
Q 1453 -91 1209 -44 
Q 966 3 703 97 
z
M 1959 2075 
Q 2384 2075 2632 2365 
Q 2881 2656 2881 3163 
Q 2881 3666 2632 3958 
Q 2384 4250 1959 4250 
Q 1534 4250 1286 3958 
Q 1038 3666 1038 3163 
Q 1038 2656 1286 2365 
Q 1534 2075 1959 2075 
z
" transform="scale(0.015625)"/>
       </defs>
       <use xlink:href="#DejaVuSans-32"/>
       <use xlink:href="#DejaVuSans-30" x="63.623047"/>
       <use xlink:href="#DejaVuSans-31" x="127.246094"/>
       <use xlink:href="#DejaVuSans-39" x="190.869141"/>
      </g>
     </g>
    </g>
   </g>
   <g id="matplotlib.axis_2">
    <g id="ytick_1">
     <g id="line2d_9">
      <defs>
       <path id="m3a3955c21f" d="M 0 0 
L -3.5 0 
" style="stroke: #000000; stroke-width: 0.8"/>
      </defs>
      <g>
       <use xlink:href="#m3a3955c21f" x="46.0125" y="313.375898" style="stroke: #000000; stroke-width: 0.8"/>
      </g>
     </g>
     <g id="text_9">
      <!-- 0 -->
      <g transform="translate(32.65 317.175116) scale(0.1 -0.1)">
       <use xlink:href="#DejaVuSans-30"/>
      </g>
     </g>
    </g>
    <g id="ytick_2">
     <g id="line2d_10">
      <g>
       <use xlink:href="#m3a3955c21f" x="46.0125" y="276.001849" style="stroke: #000000; stroke-width: 0.8"/>
      </g>
     </g>
     <g id="text_10">
      <!-- 10000 -->
      <g transform="translate(7.2 279.801068) scale(0.1 -0.1)">
       <use xlink:href="#DejaVuSans-31"/>
       <use xlink:href="#DejaVuSans-30" x="63.623047"/>
       <use xlink:href="#DejaVuSans-30" x="127.246094"/>
       <use xlink:href="#DejaVuSans-30" x="190.869141"/>
       <use xlink:href="#DejaVuSans-30" x="254.492188"/>
      </g>
     </g>
    </g>
    <g id="ytick_3">
     <g id="line2d_11">
      <g>
       <use xlink:href="#m3a3955c21f" x="46.0125" y="238.627801" style="stroke: #000000; stroke-width: 0.8"/>
      </g>
     </g>
     <g id="text_11">
      <!-- 20000 -->
      <g transform="translate(7.2 242.42702) scale(0.1 -0.1)">
       <use xlink:href="#DejaVuSans-32"/>
       <use xlink:href="#DejaVuSans-30" x="63.623047"/>
       <use xlink:href="#DejaVuSans-30" x="127.246094"/>
       <use xlink:href="#DejaVuSans-30" x="190.869141"/>
       <use xlink:href="#DejaVuSans-30" x="254.492188"/>
      </g>
     </g>
    </g>
    <g id="ytick_4">
     <g id="line2d_12">
      <g>
       <use xlink:href="#m3a3955c21f" x="46.0125" y="201.253753" style="stroke: #000000; stroke-width: 0.8"/>
      </g>
     </g>
     <g id="text_12">
      <!-- 30000 -->
      <g transform="translate(7.2 205.052972) scale(0.1 -0.1)">
       <use xlink:href="#DejaVuSans-33"/>
       <use xlink:href="#DejaVuSans-30" x="63.623047"/>
       <use xlink:href="#DejaVuSans-30" x="127.246094"/>
       <use xlink:href="#DejaVuSans-30" x="190.869141"/>
       <use xlink:href="#DejaVuSans-30" x="254.492188"/>
      </g>
     </g>
    </g>
    <g id="ytick_5">
     <g id="line2d_13">
      <g>
       <use xlink:href="#m3a3955c21f" x="46.0125" y="163.879705" style="stroke: #000000; stroke-width: 0.8"/>
      </g>
     </g>
     <g id="text_13">
      <!-- 40000 -->
      <g transform="translate(7.2 167.678923) scale(0.1 -0.1)">
       <use xlink:href="#DejaVuSans-34"/>
       <use xlink:href="#DejaVuSans-30" x="63.623047"/>
       <use xlink:href="#DejaVuSans-30" x="127.246094"/>
       <use xlink:href="#DejaVuSans-30" x="190.869141"/>
       <use xlink:href="#DejaVuSans-30" x="254.492188"/>
      </g>
     </g>
    </g>
    <g id="ytick_6">
     <g id="line2d_14">
      <g>
       <use xlink:href="#m3a3955c21f" x="46.0125" y="126.505656" style="stroke: #000000; stroke-width: 0.8"/>
      </g>
     </g>
     <g id="text_14">
      <!-- 50000 -->
      <g transform="translate(7.2 130.304875) scale(0.1 -0.1)">
       <use xlink:href="#DejaVuSans-35"/>
       <use xlink:href="#DejaVuSans-30" x="63.623047"/>
       <use xlink:href="#DejaVuSans-30" x="127.246094"/>
       <use xlink:href="#DejaVuSans-30" x="190.869141"/>
       <use xlink:href="#DejaVuSans-30" x="254.492188"/>
      </g>
     </g>
    </g>
    <g id="ytick_7">
     <g id="line2d_15">
      <g>
       <use xlink:href="#m3a3955c21f" x="46.0125" y="89.131608" style="stroke: #000000; stroke-width: 0.8"/>
      </g>
     </g>
     <g id="text_15">
      <!-- 60000 -->
      <g transform="translate(7.2 92.930827) scale(0.1 -0.1)">
       <use xlink:href="#DejaVuSans-36"/>
       <use xlink:href="#DejaVuSans-30" x="63.623047"/>
       <use xlink:href="#DejaVuSans-30" x="127.246094"/>
       <use xlink:href="#DejaVuSans-30" x="190.869141"/>
       <use xlink:href="#DejaVuSans-30" x="254.492188"/>
      </g>
     </g>
    </g>
    <g id="ytick_8">
     <g id="line2d_16">
      <g>
       <use xlink:href="#m3a3955c21f" x="46.0125" y="51.75756" style="stroke: #000000; stroke-width: 0.8"/>
      </g>
     </g>
     <g id="text_16">
      <!-- 70000 -->
      <g transform="translate(7.2 55.556779) scale(0.1 -0.1)">
       <use xlink:href="#DejaVuSans-37"/>
       <use xlink:href="#DejaVuSans-30" x="63.623047"/>
       <use xlink:href="#DejaVuSans-30" x="127.246094"/>
       <use xlink:href="#DejaVuSans-30" x="190.869141"/>
       <use xlink:href="#DejaVuSans-30" x="254.492188"/>
      </g>
     </g>
    </g>
   </g>
   <g id="line2d_17">
    <path d="M 76.003864 312.393427 
L 76.145355 312.437342 
L 76.37174 312.470044 
L 76.532096 312.474716 
L 76.692453 312.483125 
L 76.824511 312.479388 
L 76.975435 312.509287 
L 76.984868 312.49714 
L 77.135791 312.470979 
L 77.230118 312.47565 
L 77.248984 312.459766 
L 77.560264 312.547595 
L 77.701755 312.550398 
L 78.30545 312.573757 
L 78.418642 312.604591 
L 78.428075 312.595247 
L 78.588432 312.612066 
L 78.748788 312.561611 
L 78.758221 312.57656 
L 78.880846 312.639162 
L 78.890279 312.629818 
L 79.03177 312.64944 
L 79.993908 312.745678 
L 80.107101 312.745678 
L 80.333487 312.731663 
L 80.437247 312.783052 
L 80.465545 312.768102 
L 80.607036 312.753153 
L 80.852287 312.783986 
L 80.965479 312.762496 
L 80.974912 312.767168 
L 81.257894 312.822295 
L 81.361654 312.811082 
L 81.371087 312.824163 
L 81.644636 312.800493 
L 81.654069 312.726056 
L 81.757829 312.755021 
L 81.927618 312.662521 
L 82.154003 312.807345 
L 82.304927 312.706435 
L 82.182301 312.831638 
L 82.323792 312.719516 
L 82.408687 312.678405 
L 82.41812 312.64103 
L 82.465283 312.64103 
L 82.512447 312.696157 
L 82.663371 312.660652 
L 82.682236 312.473782 
L 82.738833 312.701763 
L 82.767131 312.676536 
L 82.852025 312.528908 
L 82.889756 311.858979 
L 83.050113 305.323192 
L 83.078411 305.921177 
L 83.295364 310.908743 
L 83.484018 311.700139 
L 83.644375 311.967363 
L 83.66324 311.942136 
L 83.672673 311.795443 
L 83.767 311.956151 
L 83.776433 311.907565 
L 83.889626 310.369623 
L 83.936789 309.378276 
L 84.002818 309.76136 
L 84.210338 311.19372 
L 84.502753 311.862716 
L 84.710273 312.018753 
L 84.90836 312.072945 
L 85.144179 312.154233 
L 85.3234 312.207492 
L 85.483757 312.23085 
L 85.606382 312.253275 
L 85.861066 312.276633 
L 86.01199 312.337366 
L 86.125182 312.347644 
L 86.379866 312.392493 
L 86.549655 312.384084 
L 86.766608 312.446685 
L 86.870368 312.437342 
L 86.889234 312.451357 
L 87.021292 312.483125 
L 87.209946 312.483125 
L 87.36087 312.504615 
L 90.181256 312.714844 
L 90.190689 312.669061 
L 90.285016 312.739137 
L 91.813118 312.79987 
L 91.916878 312.811082 
L 91.926311 312.81482 
L 92.077235 312.77838 
L 92.218726 312.811082 
L 92.539439 312.8578 
L 92.662064 312.844719 
L 92.954479 312.835376 
L 93.067671 312.859669 
L 93.077104 312.846588 
L 93.209162 312.859669 
L 95.095708 312.969922 
L 95.350392 312.95871 
L 95.491883 312.954972 
L 95.671105 312.969922 
L 95.803163 312.95871 
L 95.982385 312.992347 
L 96.123876 312.956841 
L 96.737003 312.749415 
L 96.916225 312.114056 
L 96.925658 312.120597 
L 97.274669 312.74194 
L 97.444458 312.782118 
L 97.557651 312.79987 
L 97.576516 312.782118 
L 97.642545 312.717647 
L 97.699142 312.452292 
L 97.774603 312.585904 
L 98.067018 312.743809 
L 98.199076 312.665324 
L 98.283971 312.540121 
L 98.340567 312.645702 
L 98.519789 312.726991 
L 98.538655 312.749415 
L 98.632982 312.75689 
L 99.000858 312.848456 
L 100.029026 312.949366 
L 100.142219 312.956841 
L 100.151651 312.947498 
L 100.28371 312.951235 
L 100.519528 312.968053 
L 101.047761 312.975528 
L 101.42507 313.012902 
L 101.726917 313.003559 
L 101.868408 313.039064 
L 101.877841 313.022246 
L 102.264583 312.973659 
L 102.396641 312.992347 
L 102.594728 312.971791 
L 103.038067 313.031589 
L 103.198423 313.055882 
L 103.368212 313.033458 
L 103.471972 313.042801 
L 103.613463 313.037195 
L 103.877579 313.029721 
L 103.98134 313.05962 
L 103.990772 313.024114 
L 104.320918 313.064292 
L 104.547303 313.090453 
L 104.679361 313.072701 
L 104.688794 313.082979 
L 104.868016 313.084847 
L 105.075536 313.080176 
L 105.179296 313.072701 
L 105.198162 313.086716 
L 105.773558 313.029721 
L 106.009376 313.049342 
L 106.188598 313.054014 
L 106.282926 313.063357 
L 106.301791 313.048408 
L 106.499878 313.056817 
L 106.754562 313.071766 
L 106.877187 313.068029 
L 107.065842 313.091388 
L 107.537479 313.108206 
L 107.914788 313.071766 
L 108.471319 313.116615 
L 108.50905 313.138105 
L 108.527915 313.083913 
L 108.575079 313.090453 
L 108.697704 313.12409 
L 108.744868 313.127827 
L 108.801464 313.093256 
L 108.942955 313.108206 
L 109.848497 313.128762 
L 110.074883 313.136237 
L 110.235239 313.125959 
L 110.48049 313.129696 
L 110.697443 313.127827 
L 111.159647 313.124401 
L 111.282272 313.128762 
L 111.291705 313.120353 
L 111.31057 313.110075 
L 111.320003 312.968988 
L 111.423763 312.999821 
L 111.574687 312.783052 
L 111.593552 312.809214 
L 111.857669 313.11755 
L 111.867101 313.106337 
L 111.885967 312.994215 
L 111.989727 313.012902 
L 112.093487 312.863406 
L 112.131218 312.803608 
L 112.187814 312.910124 
L 112.385902 313.060554 
L 112.819807 313.11755 
L 113.008462 313.1026 
L 113.168818 313.121287 
L 113.810244 313.106337 
L 113.9706 313.110075 
L 114.498833 313.115681 
L 114.59316 313.096994 
L 114.602593 313.073635 
L 114.668622 312.424261 
L 114.762949 312.708304 
L 114.810113 312.74194 
L 114.857277 312.669061 
L 114.923306 312.457898 
L 114.970469 312.585904 
L 115.159124 312.926942 
L 115.394942 313.005427 
L 116.055233 313.025983 
L 116.545735 313.033458 
L 116.696659 313.042801 
L 116.866448 313.029721 
L 117.14943 313.027852 
L 117.441845 313.024114 
L 117.498441 313.040933 
L 117.517306 312.953104 
L 117.526739 312.843785 
L 117.621066 312.990478 
L 117.809721 313.050276 
L 122.752471 313.110075 
L 122.761904 312.845653 
L 122.856231 313.091388 
L 123.186377 313.104469 
L 123.205242 313.098863 
L 123.214675 312.953104 
L 123.271271 313.113812 
L 123.309002 313.108206 
L 123.478792 313.122221 
L 137.759944 313.142777 
L 137.797675 312.650374 
L 137.892002 312.807345 
L 137.967464 312.895174 
L 137.98633 312.833507 
L 138.033493 312.534514 
L 138.099522 312.7354 
L 138.344773 313.1026 
L 138.646621 313.125024 
L 139.042795 313.166136 
L 139.64649 313.155858 
L 139.901174 313.153989 
L 140.042665 313.133434 
L 140.419974 313.132499 
L 140.721821 313.134368 
L 141.184025 313.115681 
L 141.665094 313.125024 
L 141.816018 313.130631 
L 142.127298 313.113812 
L 142.287654 313.133434 
L 142.485742 313.144646 
L 142.919647 313.16053 
L 144.391153 313.119418 
L 144.542077 313.139974 
L 144.938251 313.171742 
L 145.249531 313.153055 
L 145.532513 313.157727 
L 145.815495 313.175479 
L 146.089044 313.184823 
L 146.381459 313.18202 
L 146.645575 313.195101 
L 146.900259 313.201641 
L 151.607191 313.111943 
L 151.67322 313.020377 
L 151.720384 313.076438 
L 151.946769 313.162398 
L 152.663657 313.192921 
L 154.116297 313.201641 
L 154.276654 313.205379 
L 154.474741 313.172676 
L 154.484174 313.18856 
L 154.767155 313.205379 
L 155.304821 313.260505 
L 155.465177 313.232475 
L 155.795323 313.245556 
L 156.738596 313.230606 
L 156.795192 313.006362 
L 156.861221 313.126893 
L 156.983847 313.040933 
L 157.040443 312.840982 
L 157.09704 312.984872 
L 157.313992 313.219394 
L 157.578109 313.229672 
L 157.747898 313.23154 
L 158.040313 313.234343 
L 158.285564 313.23154 
L 158.493084 313.225934 
L 158.644007 313.21846 
L 158.832662 313.239015 
L 165.152591 313.237147 
L 165.162023 313.048408 
L 165.265783 313.195101 
L 165.378976 313.051211 
L 165.42614 312.893305 
L 165.501602 312.964316 
L 166.039267 313.252096 
L 166.510904 313.236212 
L 166.803318 313.241818 
L 166.973108 313.23995 
L 168.482344 313.256768 
L 168.491777 313.052145 
L 168.586104 313.222197 
L 168.670999 313.110075 
L 168.737028 312.494337 
L 168.81249 312.721385 
L 168.935115 312.859669 
L 168.944548 312.854063 
L 168.963413 312.072945 
L 169.010577 309.359589 
L 169.086039 310.735888 
L 169.274694 311.884206 
L 169.519944 312.430801 
L 169.784061 312.716713 
L 170.321727 313.002313 
L 170.416054 313.003559 
L 170.425487 312.788658 
L 170.463217 313.022246 
L 170.519814 313.002313 
L 170.633007 313.003559 
L 170.642439 312.979266 
L 170.699036 312.904518 
L 170.755632 312.962447 
L 170.906556 313.029721 
L 170.915988 313.024114 
L 171.19897 313.080798 
L 171.40649 313.027852 
L 171.57628 313.055882 
L 172.029051 313.104469 
L 172.038483 313.114435 
L 172.047916 313.055882 
L 172.057349 312.919467 
L 172.142243 313.120353 
L 172.151676 313.11755 
L 172.425225 313.113812 
L 172.71764 313.115681 
L 173.321335 313.122221 
L 173.698644 313.153989 
L 174.424964 313.197904 
L 174.594753 313.216591 
L 178.216921 313.315009 
L 178.330114 313.283864 
L 178.848914 313.28947 
L 179.103598 313.278258 
L 179.311118 313.297879 
L 179.792187 313.306289 
L 179.952543 313.296011 
L 180.235525 313.255834 
L 180.348718 313.125647 
L 180.395882 313.183889 
L 180.480776 313.205379 
L 180.518507 313.151186 
L 180.575104 313.082044 
L 180.6317 313.156792 
L 180.792056 313.201641 
L 183.819963 313.31096 
L 184.178406 313.301617 
L 184.489686 313.321425 
L 184.857563 313.30442 
L 185.140545 313.30442 
L 185.300901 313.320023 
L 185.451825 313.336842 
L 185.970625 313.352632 
L 186.564887 313.331049 
L 187.479862 313.32862 
L 187.857171 313.295076 
L 188.02696 313.327592 
L 188.375971 313.345905 
L 188.508029 313.317501 
L 192.083034 313.349269 
L 192.290554 313.313763 
L 192.582968 313.345905 
L 193.526241 313.342541 
L 194.082772 313.382251 
L 194.101638 313.315165 
L 194.195965 313.353847 
L 194.356321 313.367208 
L 194.535543 313.360481 
L 194.79966 313.280127 
L 194.950583 313.301617 
L 195.375056 313.290405 
L 195.393922 313.015705 
L 195.507114 313.162398 
L 195.592009 313.164267 
L 195.620307 313.189495 
L 195.978751 313.303485 
L 197.261602 313.322733 
L 197.327631 313.238081 
L 197.374795 310.627504 
L 197.450257 285.52429 
L 197.49742 300.02542 
L 197.638911 311.718826 
L 197.846431 312.897043 
L 198.110548 313.120353 
L 199.883901 313.229672 
L 200.242345 313.225 
L 200.497028 313.21846 
L 200.534759 313.212853 
L 200.581923 309.163375 
L 200.647952 312.27383 
L 200.666818 312.500878 
L 200.742279 312.141153 
L 200.874338 305.295161 
L 200.940367 308.341146 
L 201.119589 311.53943 
L 201.327109 312.136481 
L 201.336541 312.133678 
L 201.383705 311.986985 
L 201.421436 311.895418 
L 201.487465 311.97951 
L 201.893072 312.706435 
L 202.459036 312.930679 
L 203.081596 313.065226 
L 203.241953 313.083913 
L 203.411742 313.083913 
L 204.609698 313.05962 
L 204.694593 306.790123 
L 204.722891 236.143829 
L 204.760622 135.701074 
L 204.826651 249.318181 
L 205.024739 306.154764 
L 205.298288 309.163375 
L 205.751059 310.848011 
L 206.015175 311.505794 
L 206.317023 311.743119 
L 206.458513 311.782362 
L 206.675466 311.886075 
L 206.958448 311.942136 
L 207.533845 312.105647 
L 207.769663 312.210295 
L 207.911154 312.214966 
L 208.920456 312.32522 
L 210.21274 312.519565 
L 210.231605 312.414917 
L 210.325933 312.470979 
L 210.467424 312.356053 
L 210.52402 312.302795 
L 210.580616 312.372872 
L 210.740973 312.431736 
L 210.750405 312.417721 
L 210.882464 312.390624 
L 212.28794 312.496206 
L 212.467162 312.508353 
L 212.561489 312.448554 
L 212.589788 312.492469 
L 212.9105 312.584969 
L 213.325541 312.609263 
L 213.542493 312.611131 
L 214.419737 312.672798 
L 214.702719 312.678405 
L 214.966836 312.695223 
L 215.174356 312.69896 
L 215.476203 312.715779 
L 215.645992 312.71391 
L 215.825214 312.706435 
L 217.975876 312.816688 
L 218.155098 312.826032 
L 218.419215 312.835376 
L 218.579571 312.844719 
L 218.768226 312.831638 
L 219.258727 312.846588 
L 220.041644 312.897043 
L 220.192568 312.87275 
L 220.664204 312.854063 
L 224.767442 312.95871 
L 224.937231 312.953104 
L 225.720147 312.910124 
L 227.946271 313.020377 
L 228.106628 313.007296 
L 228.38961 313.003559 
L 228.540533 313.007296 
L 228.842381 313.00169 
L 228.955573 312.979266 
L 229.191392 312.992347 
L 239.746616 313.100731 
L 240.010732 313.130631 
L 240.199387 313.130631 
L 240.821947 313.110075 
L 240.982304 313.137171 
L 241.123795 313.134368 
L 241.670893 313.132499 
L 241.963308 313.122221 
L 242.123664 313.135302 
L 242.916013 313.168005 
L 247.688974 313.232786 
L 247.70784 313.030655 
L 247.802167 313.162398 
L 247.990822 313.20351 
L 248.471891 313.158661 
L 248.481324 312.725122 
L 248.585084 312.973659 
L 248.622815 312.954972 
L 248.632247 312.897043 
L 248.679411 311.671174 
L 248.754873 312.381281 
L 248.830335 312.782118 
L 248.896364 312.697092 
L 248.990691 312.798001 
L 249.207644 312.994215 
L 249.358567 313.076438 
L 249.368 313.067095 
L 249.490626 313.093256 
L 251.169652 313.155858 
L 251.311143 313.162398 
L 251.452633 313.149318 
L 251.594124 311.034881 
L 251.622423 311.533824 
L 251.688452 312.744743 
L 251.726183 311.673977 
L 251.782779 303.837573 
L 251.877106 305.640871 
L 251.962001 306.416383 
L 252.178954 311.190917 
L 252.292146 311.332004 
L 252.716619 312.153299 
L 252.914707 312.332695 
L 253.518401 312.625146 
L 253.678758 312.674667 
L 255.244591 312.878356 
L 255.376649 312.898911 
L 255.678496 312.904518 
L 255.952045 312.908255 
L 256.168998 312.917598 
L 256.357653 312.928811 
L 256.536875 312.932548 
L 257.263195 312.966185 
L 257.678235 312.990478 
L 257.86689 312.984872 
L 258.027246 312.966185 
L 258.187602 312.990478 
L 258.197035 312.979266 
L 258.263064 312.990478 
L 258.272497 312.838179 
L 258.347959 313.00169 
L 258.366824 312.990478 
L 259.064846 313.024114 
L 259.225203 313.01664 
L 259.63081 313.048408 
L 259.791166 313.040933 
L 260.074148 313.040933 
L 260.206206 313.053079 
L 260.215639 312.710172 
L 260.309967 313.048408 
L 260.479756 313.058685 
L 260.791036 313.025983 
L 261.064585 313.060554 
L 262.300272 313.076438 
L 262.441763 313.119418 
L 263.102054 312.926942 
L 263.111487 312.467241 
L 263.215247 312.676536 
L 263.234113 312.682142 
L 263.252978 312.179461 
L 263.309575 312.979266 
L 263.347305 313.168005 
L 263.4322 313.143711 
L 263.451065 313.032524 
L 263.545393 313.11755 
L 264.035895 313.194166 
L 264.88484 313.210985 
L 265.026331 313.215656 
L 265.98847 313.230606 
L 266.186557 313.205379 
L 266.205422 313.128762 
L 266.262019 313.276389 
L 266.290317 313.224066 
L 267.327917 313.223131 
L 267.384514 313.219394 
L 267.412812 313.281061 
L 267.431677 313.265177 
L 267.780688 313.242753 
L 268.129699 313.263308 
L 268.667365 313.268914 
L 269.978514 313.287602 
L 270.223765 313.268914 
L 270.742565 313.279192 
L 271.648107 313.298814 
L 272.015984 313.297879 
L 272.204638 313.296945 
L 273.015853 313.28293 
L 273.053584 313.116615 
L 273.119613 313.288536 
L 273.685577 313.286667 
L 273.883664 313.264243 
L 273.893097 313.114747 
L 273.987424 313.294142 
L 274.147781 313.30442 
L 275.128785 313.312829 
L 275.138217 312.803608 
L 275.232545 313.254899 
L 275.45893 313.263308 
L 275.723047 313.315632 
L 276.430501 313.315632 
L 276.571992 313.268914 
L 277.486967 313.278258 
L 277.505832 312.684011 
L 277.60016 313.014771 
L 277.628458 313.071766 
L 277.647323 312.95871 
L 277.685054 312.95871 
L 277.769949 312.132743 
L 277.826545 312.787724 
L 278.0152 313.194166 
L 278.798116 313.23995 
L 278.920742 313.26144 
L 279.147127 313.26798 
L 279.430109 313.26144 
L 279.797986 313.262374 
L 280.062102 313.275455 
L 280.250757 313.283864 
L 280.420546 313.257702 
L 280.835586 313.278258 
L 280.845019 312.848456 
L 280.939346 313.276389 
L 281.146866 313.300682 
L 281.675099 313.301617 
L 281.844888 313.286667 
L 282.071274 313.292273 
L 282.354255 313.309092 
L 282.778728 313.294142 
L 282.910787 313.244621 
L 283.457885 313.271718 
L 283.467318 313.318342 
L 283.505048 313.228737 
L 283.561645 313.258637 
L 283.627674 313.279192 
L 283.646539 313.429903 
L 283.740867 313.314698 
L 284.391725 313.298814 
L 284.7879 313.30442 
L 285.052016 313.296945 
L 285.221805 313.294142 
L 285.231238 313.342915 
L 285.250103 313.386549 
L 285.344431 313.349269 
L 285.438758 313.306382 
L 285.476489 313.126893 
L 285.551951 313.223131 
L 285.891529 313.385522 
L 286.419762 313.302831 
L 286.438627 313.122221 
L 286.532955 313.169873 
L 286.570686 313.165201 
L 286.589551 312.956841 
L 286.674446 313.125959 
L 286.844235 313.308157 
L 286.853667 313.303485 
L 287.042322 313.175479 
L 287.061188 313.012902 
L 287.127217 313.271718 
L 287.27814 313.28293 
L 287.447929 313.254899 
L 287.976162 313.291993 
L 287.985595 313.226869 
L 288.023326 313.671769 
L 288.164817 313.678562 
L 288.334606 313.187626 
L 288.344039 313.213788 
L 288.457232 313.208182 
L 288.466664 313.196035 
L 288.598722 313.005427 
L 288.815675 312.889568 
L 288.862839 313.018508 
L 289.079792 313.234343 
L 292.296352 313.205379 
L 292.305785 313.022246 
L 292.400112 313.178282 
L 292.49444 313.062423 
L 292.551036 312.41118 
L 292.626498 312.593379 
L 292.834018 313.08765 
L 292.843451 313.083913 
L 293.164164 313.095125 
L 298.276703 313.027852 
L 298.286136 312.88583 
L 298.323867 313.094191 
L 298.380463 313.080176 
L 298.512521 313.106337 
L 298.531387 313.085782 
L 298.757772 313.153055 
L 298.936994 313.198838 
L 298.946427 313.18856 
L 299.229409 313.169873 
L 300.002893 313.21005 
L 301.115955 313.21005 
L 301.389504 313.201641 
L 301.75738 313.164267 
L 301.889438 313.161464 
L 301.898871 313.147449 
L 302.087526 313.130631 
L 302.304479 313.182954 
L 302.672355 313.18856 
L 303.48357 313.168005 
L 303.511868 312.812951 
L 303.615628 313.027852 
L 303.700522 313.115681 
L 303.757119 313.074569 
L 303.870312 313.120353 
L 305.539905 313.179217 
L 305.804021 313.168005 
L 305.97381 313.176414 
L 306.039839 313.103534 
L 306.275658 309.172719 
L 306.511476 311.988853 
L 306.652967 311.867388 
L 307.360422 312.543858 
L 307.615105 312.623278 
L 307.879222 312.730728 
L 308.916822 312.826032 
L 309.133775 312.820426 
L 309.963855 312.880224 
L 310.114779 312.874618 
L 310.25627 312.887699 
L 310.548684 312.88583 
L 311.359899 312.94376 
L 311.520255 312.938154 
L 311.718343 312.945629 
L 311.859834 312.934417 
L 311.991892 312.95871 
L 312.274874 312.954972 
L 312.397499 312.968053 
L 312.416365 312.582166 
L 312.529557 312.831638 
L 312.633317 312.865275 
L 312.661616 313.673526 
L 312.74651 312.949366 
L 316.434707 312.839113 
L 316.538467 312.165446 
L 316.604497 310.125757 
L 316.670526 311.219882 
L 316.840315 311.998197 
L 317.142162 312.716713 
L 317.198758 312.690551 
L 317.48174 312.769971 
L 317.868482 312.844719 
L 318.047704 312.867143 
L 318.396715 312.887699 
L 318.604235 312.88583 
L 318.906083 312.889568 
L 319.123035 312.783052 
L 319.20793 311.959888 
L 319.264526 311.396475 
L 319.321123 311.826276 
L 319.528643 312.342038 
L 319.764461 312.568151 
L 320.104039 312.706435 
L 320.254963 312.696157 
L 320.924687 312.779314 
L 324.311037 312.815754 
L 324.320469 312.624212 
L 324.414797 312.805476 
L 324.895866 312.878356 
L 325.093953 312.887699 
L 325.141117 312.891437 
L 325.15055 312.867143 
L 325.329771 312.043046 
L 325.376935 311.89355 
L 325.414666 312.105647 
L 325.424099 312.165446 
L 325.442964 311.788902 
L 325.499561 304.20197 
L 325.56559 309.06994 
L 325.725946 311.771149 
L 325.820273 312.056127 
L 325.867437 312.002869 
L 325.895735 311.96456 
L 325.942899 312.072011 
L 326.282477 312.621409 
L 326.489997 312.695223 
L 326.631488 312.64103 
L 326.640921 312.652243 
L 326.829575 312.731663 
L 326.839008 312.723253 
L 326.876739 303.146154 
L 326.961634 278.105541 
L 326.999365 292.317023 
L 327.084259 309.340902 
L 327.12199 303.398428 
L 327.169154 295.643313 
L 327.22575 304.061818 
L 327.386106 311.092811 
L 327.527597 311.716023 
L 327.555896 311.616982 
L 327.687954 311.015259 
L 327.74455 311.275943 
L 327.989801 312.139284 
L 328.253918 312.420524 
L 328.489736 312.558808 
L 328.744419 312.625146 
L 329.008536 312.654111 
L 329.234921 312.69242 
L 329.687692 312.67093 
L 329.763154 312.601788 
L 329.819751 312.669061 
L 330.083867 312.738203 
L 330.734725 312.755021 
L 331.017707 312.710172 
L 331.206362 312.740072 
L 331.33842 312.529843 
L 331.385584 312.330826 
L 331.574238 311.185311 
L 331.593104 311.19372 
L 331.630835 311.246978 
L 331.659133 311.143265 
L 331.819489 309.219436 
L 331.885518 309.873482 
L 332.036442 310.950789 
L 332.055308 310.883516 
L 332.083606 310.253763 
L 332.196798 290.139985 
L 332.300559 270.621388 
L 332.347722 278.012106 
L 332.602406 305.024199 
L 332.85709 307.612352 
L 333.253264 309.312871 
L 333.564544 310.150985 
L 333.602275 307.958062 
L 333.724901 260.530395 
L 333.772064 36.19267 
L 333.847526 191.762146 
L 333.989017 278.012106 
L 334.055046 254.457112 
L 334.092777 233.24734 
L 334.158806 254.924288 
L 334.328595 277.591648 
L 334.592712 300.240321 
L 334.639875 298.184749 
L 334.668174 297.175649 
L 334.72477 299.334001 
L 334.819097 301.025176 
L 334.856828 300.380474 
L 335.054916 292.531924 
L 335.102079 295.035985 
L 335.111512 295.017298 
L 335.120945 295.120077 
L 335.177541 280.217175 
L 335.234137 272.863831 
L 335.290734 276.713358 
L 335.592581 302.856505 
L 335.875563 304.912077 
L 336.234007 306.388352 
L 336.356632 306.874215 
L 337.233876 309.135345 
L 337.262174 309.135345 
L 337.28104 309.200749 
L 337.290472 309.210093 
L 337.516858 309.537116 
L 338.403535 310.291137 
L 338.507295 304.70652 
L 338.582756 307.930032 
L 338.658218 307.15452 
L 338.705382 307.789879 
L 338.9412 309.658581 
L 339.139287 310.046337 
L 339.14872 310.040731 
L 339.224182 310.120151 
L 339.233615 310.056615 
L 339.290211 301.109268 
L 339.35624 295.12942 
L 339.393971 299.773146 
L 339.544895 308.070184 
L 339.790146 309.154032 
L 339.837309 308.967162 
L 339.856175 309.013879 
L 339.87504 308.976505 
L 339.912771 309.210093 
L 339.941069 308.761604 
L 339.969368 308.275742 
L 340.044829 308.976505 
L 340.195753 309.60252 
L 340.214619 309.499742 
L 340.412706 309.135345 
L 340.450437 309.238123 
L 340.639091 309.723986 
L 340.77115 309.990276 
L 340.959804 310.277122 
L 341.271084 310.606014 
L 341.365412 310.651797 
L 341.374844 310.668615 
L 341.80875 310.869501 
L 341.818183 310.854551 
L 341.846481 309.674465 
L 341.893644 306.444413 
L 341.959674 309.032566 
L 342.12003 310.215455 
L 342.233223 310.530331 
L 342.261521 310.365885 
L 342.308685 309.892169 
L 342.365281 310.352804 
L 342.563368 310.784475 
L 342.780321 310.894728 
L 343.063303 311.060108 
L 343.57267 311.233898 
L 343.808489 311.274075 
L 343.997143 311.343217 
L 344.016009 311.31612 
L 344.129201 311.368444 
L 346.742067 311.773953 
L 346.864693 311.790771 
L 347.034482 311.815064 
L 347.977755 311.889812 
L 348.826701 311.991656 
L 348.958759 311.998197 
L 349.524723 312.050521 
L 349.760541 312.078551 
L 349.911465 312.054258 
L 350.175581 312.089763 
L 350.467996 312.121531 
L 350.609487 312.114056 
L 352.024396 312.22431 
L 352.38284 312.249537 
L 352.420571 312.219638 
L 352.496033 312.262618 
L 352.646956 312.241128 
L 352.769582 312.272896 
L 353.505335 312.308401 
L 353.892076 312.268224 
L 354.571233 312.363528 
L 354.722157 312.379412 
L 354.882513 312.385018 
L 355.033437 312.403705 
L 355.363582 312.421458 
L 355.712593 312.443882 
L 355.882382 312.425195 
L 356.023873 312.420524 
L 356.259692 312.429867 
L 356.372884 312.453226 
L 356.646434 312.465372 
L 356.948281 312.463504 
L 357.363321 312.493403 
L 358.061343 312.521434 
L 358.768798 312.494337 
L 358.938587 312.484059 
L 359.070645 312.519565 
L 359.306463 312.549464 
L 359.608311 312.556939 
L 359.787532 312.55507 
L 362.862602 312.662521 
L 363.041824 312.654111 
L 363.277642 312.658783 
L 364.088857 312.706435 
L 368.135498 312.726056 
L 368.144931 312.463504 
L 368.239258 312.730728 
L 368.31472 312.453226 
L 368.324153 312.473782 
L 368.503375 311.319858 
L 368.52224 311.343217 
L 368.531673 311.400212 
L 368.805222 312.439211 
L 368.871251 312.476585 
L 368.908982 312.416786 
L 369.201397 312.442014 
L 369.361753 312.513959 
L 369.588138 312.539186 
L 369.673033 312.523302 
L 369.682466 312.494337 
L 369.76736 312.333629 
L 369.795659 263.240014 
L 369.833389 48.806412 
L 369.908851 197.928864 
L 370.040909 270.434518 
L 370.295593 302.024932 
L 370.512546 306.070673 
L 370.814393 308.163619 
L 370.87099 308.369177 
L 371.257732 309.453024 
L 371.342626 309.864139 
L 371.49355 310.319168 
L 371.502983 310.208914 
L 371.521848 309.434337 
L 371.606743 310.515381 
L 371.663339 310.586392 
L 371.710503 310.520988 
L 371.795397 310.369623 
L 371.861426 310.438765 
L 372.031215 310.666746 
L 372.42739 310.970411 
L 372.84243 311.20213 
L 373.087681 311.334807 
L 373.210307 311.340414 
L 373.351798 311.394606 
L 373.36123 311.384328 
L 373.540452 311.445061 
L 373.842299 311.389 
L 373.870598 311.406753 
L 373.917761 311.306777 
L 373.927194 311.279681 
L 374.012089 311.365641 
L 374.436561 311.576804 
L 374.549754 311.579607 
L 374.8799 311.654356 
L 375.021391 311.669305 
L 375.276074 311.716023 
L 375.417565 311.69173 
L 375.426998 311.721629 
L 375.625085 311.732841 
L 375.776009 311.733775 
L 375.9175 311.730972 
L 376.030693 311.714154 
L 376.077856 311.718826 
L 376.115587 311.667437 
L 376.200482 311.627259 
L 376.238213 311.648749 
L 376.323107 311.681452 
L 376.341973 311.645946 
L 376.398569 311.542233 
L 376.464598 311.635669 
L 376.653253 311.387131 
L 376.757013 310.959198 
L 376.823042 311.018062 
L 376.898504 311.062911 
L 376.907937 311.085336 
L 377.096591 311.23016 
L 377.106024 311.213342 
L 377.153188 311.314252 
L 377.181486 311.271272 
L 377.322977 311.340414 
L 377.587093 311.450667 
L 377.728584 311.47496 
L 377.870075 311.5114 
L 378.011566 311.53943 
L 378.285115 311.580542 
L 378.492635 311.6338 
L 379.596265 311.557183 
L 379.681159 311.455339 
L 379.709457 311.517006 
L 379.71889 311.525415 
L 379.737755 311.466551 
L 379.916977 310.743363 
L 379.92641 310.753641 
L 379.992439 310.914349 
L 380.03017 310.769525 
L 380.077334 310.580786 
L 380.143363 310.722807 
L 380.388614 311.147003 
L 380.803654 311.348823 
L 380.907414 311.366575 
L 380.916847 311.381525 
L 381.133799 311.433849 
L 381.256425 311.459076 
L 381.407349 311.46842 
L 381.558272 311.474026 
L 382.492113 311.574936 
L 382.633603 311.613244 
L 382.765662 311.602032 
L 382.822258 311.584279 
L 382.831691 311.497385 
L 382.859989 311.588951 
L 382.926018 311.566527 
L 382.963749 311.552511 
L 382.992047 311.491778 
L 383.209 311.207736 
L 383.246731 311.246978 
L 383.435385 311.357232 
L 384.406957 311.540365 
L 384.539015 311.530087 
L 384.652208 311.491778 
L 384.925757 311.522612 
L 385.133277 311.542233 
L 385.14271 311.525415 
L 386.680244 311.727235 
L 386.821735 311.718826 
L 387.000957 311.738447 
L 387.123583 311.729104 
L 387.32167 311.758069 
L 387.444296 311.771149 
L 387.680114 311.819736 
L 387.868768 311.817867 
L 387.991394 311.839357 
L 388.000827 311.832817 
L 388.283808 311.864585 
L 388.425299 311.849635 
L 388.613954 311.872059 
L 389.198783 311.937464 
L 389.35914 311.934661 
L 389.510063 311.932792 
L 389.991133 311.992591 
L 390.29298 312.025293 
L 390.491067 312.020621 
L 390.670289 312.023424 
L 390.679722 312.006606 
L 390.887242 312.030899 
L 391.066464 312.057995 
L 391.255118 312.053324 
L 391.604129 312.111253 
L 391.726755 312.119662 
L 394.471679 312.228982 
L 394.726363 312.235522 
L 394.858421 312.256078 
L 395.23573 312.258881 
L 395.65077 312.26729 
L 395.877156 312.077617 
L 395.886588 311.969232 
L 395.943185 312.141153 
L 395.980916 312.135546 
L 396.028079 312.143956 
L 396.046945 312.060798 
L 396.084676 311.907565 
L 396.150705 312.093501 
L 396.235599 312.13835 
L 396.27333 312.105647 
L 396.433687 312.175724 
L 396.848727 312.265421 
L 396.999651 312.236456 
L 397.150574 312.251406 
L 397.471287 312.286911 
L 397.697673 312.295321 
L 398.046684 312.349513 
L 398.405127 312.354185 
L 398.603215 312.377543 
L 398.735273 312.392493 
L 398.989957 312.380346 
L 399.197477 312.377543 
L 399.206909 312.443882 
L 399.282371 312.295321 
L 399.301237 312.361659 
L 399.329535 312.384084 
L 399.480458 311.545037 
L 399.499324 311.632866 
L 399.537055 311.225488 
L 399.716277 310.702252 
L 399.612517 311.311449 
L 399.735142 310.758313 
L 400.027557 311.64034 
L 400.367135 311.882337 
L 400.489761 311.937464 
L 401.17835 311.974838 
L 401.357572 312.002869 
L 401.565092 311.973904 
L 401.640554 311.130185 
L 401.706583 311.494582 
L 401.848074 311.678649 
L 402.046161 311.887943 
L 402.21595 311.939333 
L 402.744183 311.990722 
L 402.923405 311.950545 
L 403.064896 311.952414 
L 403.432772 312.015015 
L 403.913841 312.025293 
L 404.121361 312.044914 
L 404.262852 312.031833 
L 404.611863 312.072945 
L 404.857114 312.098172 
L 405.017471 312.098172 
L 407.149268 312.186936 
L 407.168133 311.945873 
L 407.26246 311.972035 
L 407.300191 311.746856 
L 407.36622 309.639894 
L 407.441682 310.754575 
L 407.668068 311.483369 
L 407.828424 311.6338 
L 407.84729 311.61885 
L 407.960482 311.716957 
L 408.15857 311.873928 
L 408.356657 311.919711 
L 408.507581 308.434581 
L 408.564177 303.426459 
L 408.620773 306.537848 
L 408.771697 309.527772 
L 408.875457 309.929543 
L 408.894323 309.705299 
L 409.007515 306.743406 
L 409.054679 307.481543 
L 409.139574 308.406551 
L 409.158439 307.677757 
L 409.224468 304.426215 
L 409.281064 306.257543 
L 409.422555 308.985849 
L 409.450854 308.873726 
L 409.488585 308.752261 
L 409.535748 308.948475 
L 409.884759 310.614423 
L 410.196039 310.992835 
L 410.554483 311.082533 
L 410.667676 311.157281 
L 410.828032 311.216145 
L 410.931792 311.160084 
L 410.969523 311.190917 
L 411.280803 311.20213 
L 411.431727 311.048896 
L 411.497756 310.964804 
L 411.54492 311.060108 
L 411.610949 311.160084 
L 411.667545 311.068517 
L 411.799603 311.265665 
L 411.969392 311.34602 
L 412.120316 311.403015 
L 412.27124 311.433849 
L 412.827771 311.538496 
L 413.035291 311.579607 
L 413.242811 311.591754 
L 413.431465 311.602032 
L 414.676586 311.500188 
L 414.686018 311.451601 
L 414.76148 311.613244 
L 415.412339 311.442258 
L 415.45007 311.456273 
L 415.506666 310.646191 
L 415.685888 291.887221 
L 415.733051 295.79281 
L 415.921706 306.687345 
L 416.204688 308.920444 
L 416.506535 309.677268 
L 416.817815 310.134166 
L 416.987605 310.316365 
L 417.11023 310.369623 
L 417.147961 310.392981 
L 417.176259 310.29394 
L 417.204557 310.207046 
L 417.270586 310.33038 
L 417.280019 310.33038 
L 417.31775 310.181818 
L 417.374346 309.686612 
L 417.430943 310.023913 
L 417.591299 310.520053 
L 417.600732 310.516316 
L 417.695059 310.435962 
L 417.761088 310.503235 
L 417.874281 310.405128 
L 418.015772 308.116902 
L 418.062936 307.677757 
L 418.119532 308.023467 
L 418.176128 308.387864 
L 418.204427 308.014123 
L 418.261023 305.566123 
L 418.345918 298.390306 
L 418.402514 301.015833 
L 418.553438 303.762825 
L 418.572303 302.800444 
L 418.591169 301.922153 
L 418.657198 303.977726 
L 418.685496 304.379497 
L 418.732659 303.155497 
L 418.845852 296.026397 
L 418.893016 298.80142 
L 419.025074 304.314093 
L 419.053372 303.519894 
L 419.213729 300.744871 
L 419.223161 300.772901 
L 419.289191 303.062062 
L 419.487278 306.668658 
L 419.940049 308.35049 
L 420.345656 308.948475 
L 420.355089 308.920444 
L 420.421118 309.023223 
L 420.430551 309.023223 
L 421.553046 309.987473 
L 421.694537 310.066893 
L 421.996384 310.319168 
L 422.100144 310.361214 
L 422.326529 310.503235 
L 422.345395 310.486417 
L 422.458588 310.533134 
L 422.609511 310.594801 
L 422.788733 310.635913 
L 424.779039 311.118972 
L 425.043156 310.970411 
L 425.109185 311.054502 
L 425.260108 311.188114 
L 425.278974 311.179705 
L 426.420334 311.415162 
L 426.524094 311.456273 
L 426.778778 311.531956 
L 426.920269 311.53943 
L 427.901273 311.625391 
L 428.061629 311.645946 
L 428.750218 311.7562 
L 430.825419 311.862716 
L 430.86315 311.673977 
L 430.938612 311.801049 
L 431.07067 311.840291 
L 431.080102 311.81413 
L 431.231026 311.090942 
L 431.240459 311.060108 
L 431.27819 311.272206 
L 431.447979 311.69173 
L 431.627201 311.830948 
L 433.117572 312.016884 
L 433.259063 312.014081 
L 433.268496 312.028096 
L 433.400554 312.030899 
L 433.947652 312.08042 
L 434.07971 312.085092 
L 434.419289 312.129006 
L 434.711703 312.160774 
L 434.928656 312.10845 
L 435.070147 312.141153 
L 435.155042 312.112188 
L 435.164474 311.744053 
L 435.268234 311.955217 
L 435.324831 311.751528 
L 435.400293 311.84216 
L 435.419158 311.86365 
L 435.466322 311.722563 
L 435.588947 311.727235 
L 435.824765 308.761604 
L 435.890795 309.490398 
L 436.070016 310.823717 
L 436.079449 310.73402 
L 436.136046 310.606014 
L 436.154911 310.586392 
L 436.192642 310.686368 
L 436.456758 311.326398 
L 436.541653 311.307711 
L 436.683144 304.912077 
L 436.720875 306.892902 
L 436.881231 310.023913 
L 436.928395 310.296743 
L 436.984991 310.122954 
L 437.003857 310.004291 
L 437.060453 310.401391 
L 437.249108 310.992835 
L 437.371733 311.236701 
L 437.588686 311.481501 
L 437.683013 311.525415 
L 437.692446 311.543168 
L 438.041457 311.735644 
L 438.277275 311.821604 
L 438.286708 311.785165 
L 438.36217 311.502991 
L 438.428199 311.630997 
L 438.664017 311.798246 
L 438.720613 311.83562 
L 438.77721 311.759937 
L 438.890403 311.791705 
L 439.08849 311.870191 
L 439.267712 311.927186 
L 439.663886 312.000066 
L 440.116657 311.927186 
L 440.144956 311.874862 
L 440.210985 311.960823 
L 440.220417 311.95802 
L 440.33361 311.948676 
L 440.446803 311.987919 
L 441.456105 312.172921 
L 444.333087 312.347644 
L 444.474578 312.349513 
L 444.663233 312.326154 
L 444.700964 312.193476 
L 444.776426 312.300927 
L 444.823589 312.316811 
L 444.833022 312.277568 
L 444.870753 312.078551 
L 444.946215 312.130875 
L 444.974513 311.736579 
L 445.06884 301.669879 
L 445.144302 305.93052 
L 445.323524 310.029519 
L 445.54991 311.162887 
L 446.002681 311.748725 
L 446.502615 311.929989 
L 446.644106 311.950545 
L 447.493052 312.094435 
L 447.653408 312.127137 
L 447.898659 312.179461 
L 448.04015 312.182264 
L 448.209939 312.203754 
L 448.55895 312.233653 
L 448.681576 312.238325 
L 448.860798 312.241128 
L 449.14378 312.270093 
L 449.370165 312.293452 
L 449.605983 312.295321 
L 449.728609 312.298124 
L 449.738042 312.28878 
L 449.964427 312.31027 
L 450.219111 312.335498 
L 451.077489 312.394362 
L 451.285009 312.395296 
L 452.011329 312.427064 
L 452.181118 312.461635 
L 452.831977 312.492469 
L 452.973468 312.465372 
L 453.228151 312.470044 
L 453.435672 312.477519 
L 453.56773 312.461635 
L 453.737519 312.35325 
L 453.746952 312.373806 
L 453.963904 312.491534 
L 454.180857 312.508353 
L 454.199723 311.92812 
L 454.29405 312.354185 
L 454.39781 312.189739 
L 454.435541 312.290649 
L 454.60533 312.422392 
L 454.850581 312.270093 
L 454.888312 312.177592 
L 454.954341 312.274765 
L 455.161861 312.285043 
L 455.378814 312.349513 
L 455.652363 312.358856 
L 455.85045 312.37474 
L 456.105134 312.399034 
L 456.26549 312.419589 
L 456.529607 312.448554 
L 459.085877 312.558808 
L 459.2368 312.557873 
L 459.425455 312.560676 
L 459.661273 312.583101 
L 460.076313 312.564414 
L 460.283833 311.803852 
L 460.425324 296.801909 
L 460.481921 302.847161 
L 460.623411 309.004536 
L 460.632844 308.976505 
L 460.661142 307.808566 
L 460.774335 302.193115 
L 460.821499 302.875192 
L 461.151644 310.663009 
L 461.632714 311.861782 
L 463.066488 312.316811 
L 463.283441 312.327088 
L 464.4531 312.450423 
L 464.604023 312.45416 
L 464.802111 312.463504 
L 465.311478 312.465372 
L 465.443536 312.470979 
L 465.660489 312.485928 
L 466.264184 312.500878 
L 466.396242 312.530777 
L 466.811282 312.541055 
L 467.452708 312.511156 
L 467.594199 312.541055 
L 468.405413 312.590576 
L 468.575202 312.590576 
L 470.263661 312.503681 
L 470.357988 312.328023 
L 470.414585 312.372872 
L 470.442883 312.216835 
L 470.593807 308.901757 
L 470.631538 306.220169 
L 470.725865 306.491131 
L 471.008847 309.817421 
L 471.272963 310.889122 
L 471.489916 311.274075 
L 471.603109 311.409556 
L 471.791763 311.566527 
L 472.074745 311.716957 
L 472.244534 311.782362 
L 472.640709 311.858044 
L 472.876527 311.907565 
L 472.999153 311.944004 
L 473.018018 311.932792 
L 473.385895 311.977641 
L 473.517953 311.96456 
L 474.489524 312.072945 
L 474.659313 312.074814 
L 474.942295 312.079485 
L 475.149815 312.075748 
L 476.196848 312.192542 
L 476.310041 312.177592 
L 476.451532 312.179461 
L 476.715648 312.180395 
L 476.828841 311.862716 
L 476.866572 311.89355 
L 476.885437 311.751528 
L 476.913735 311.579607 
L 476.989197 311.750594 
L 478.026797 312.076682 
L 478.121125 311.077861 
L 478.215452 307.360077 
L 478.300347 308.406551 
L 478.356943 307.294673 
L 478.413539 308.200994 
L 478.687089 310.691974 
L 479.092696 311.34602 
L 479.5549 311.626325 
L 479.573765 311.240438 
L 479.668092 311.387131 
L 479.885045 311.56092 
L 480.498173 311.796377 
L 480.866049 311.869256 
L 481.21506 310.59667 
L 481.309387 310.914349 
L 481.592369 311.463748 
L 481.781024 311.632866 
L 481.931948 311.706679 
L 482.073438 311.752462 
L 482.082871 311.744053 
L 482.120602 311.673977 
L 482.177198 308.686856 
L 482.262093 310.504169 
L 482.375286 311.062911 
L 482.413017 310.984426 
L 482.507344 309.789391 
L 482.601671 297.8951 
L 482.677133 304.005757 
L 482.865788 310.209849 
L 483.101606 311.20213 
L 483.384588 311.549708 
L 483.535512 311.610441 
L 483.818493 311.721629 
L 483.988283 311.755266 
L 484.176937 311.798246 
L 484.544814 311.894484 
L 484.874959 311.939333 
L 485.063614 311.970166 
L 485.214537 311.995394 
L 486.110647 312.075748 
L 486.223839 312.074814 
L 486.233272 312.081354 
L 486.421927 312.087895 
L 486.450225 311.701073 
L 486.544552 311.874862 
L 486.601149 311.673977 
L 486.629447 311.596426 
L 486.695476 311.731907 
L 487.119949 312.031833 
L 487.384065 312.083223 
L 487.412363 312.045849 
L 487.487825 312.042111 
L 487.534989 311.981379 
L 487.601018 311.113366 
L 487.695345 311.382459 
L 487.959462 311.82067 
L 488.025491 311.816933 
L 488.053789 311.852438 
L 488.223578 311.973904 
L 488.336771 312.028096 
L 488.676349 312.077617 
L 488.808407 312.110319 
L 489.176284 312.141153 
L 489.346073 312.153299 
L 489.553593 312.044914 
L 489.581891 305.276474 
L 489.676218 283.543465 
L 489.713949 292.130153 
L 489.864873 306.96765 
L 490.06296 309.247467 
L 490.449702 310.347198 
L 490.525164 310.433159 
L 490.808146 310.724676 
L 490.911906 310.784475 
L 490.930772 310.747101 
L 490.987368 309.965983 
L 491.015666 309.611864 
L 491.081695 310.237879 
L 491.289215 310.844273 
L 491.902343 311.514203 
L 492.034401 311.587082 
L 492.685259 311.96456 
L 493.600234 312.122466 
L 493.732292 312.089763 
L 493.751158 312.10845 
L 493.958678 312.146759 
L 494.081303 312.163577 
L 494.354852 312.189739 
L 494.477478 312.207492 
L 496.448918 312.298124 
L 496.571544 312.337366 
L 496.580977 312.332695 
L 496.684737 312.328957 
L 496.703602 312.342972 
L 497.090344 312.334563 
L 497.269566 312.371937 
L 498.609013 312.399034 
L 498.778803 312.130875 
L 498.844832 312.274765 
L 499.222141 312.406508 
L 499.363632 312.41118 
L 499.533421 312.433605 
L 499.731508 312.453226 
L 500.165414 312.467241 
L 500.53329 312.430801 
L 500.703079 312.467241 
L 500.806839 312.495272 
L 500.816272 312.120597 
L 500.910599 312.46911 
L 501.165283 312.483125 
L 501.419967 312.508353 
L 501.702949 312.393427 
L 501.731247 312.261684 
L 501.816141 312.335498 
L 501.995363 312.45416 
L 502.080258 312.15143 
L 502.231182 312.305598 
L 502.495298 312.470044 
L 502.825444 312.547595 
L 503.146156 312.562545 
L 503.259349 312.590576 
L 504.013967 312.632621 
L 504.240353 312.639162 
L 504.730855 312.680273 
L 504.778019 312.658783 
L 504.834615 312.69896 
L 504.994971 312.689617 
L 505.240222 312.686814 
L 505.391146 312.707369 
L 505.692993 312.728859 
L 505.843917 312.757824 
L 506.834354 312.769971 
L 506.909815 312.703632 
L 507.032441 312.519565 
L 507.051306 312.543858 
L 507.107903 312.593379 
L 507.136201 312.514893 
L 507.164499 312.448554 
L 507.230528 312.562545 
L 507.655001 312.760627 
L 508.079474 312.812951 
L 508.381321 312.803608 
L 508.569976 312.820426 
L 508.739765 312.843785 
L 510.17354 312.876487 
L 510.333896 312.889568 
L 510.598013 312.902649 
L 516.125592 312.966185 
L 516.135025 312.646637 
L 516.238785 312.764365 
L 516.295381 312.594313 
L 516.342545 312.074814 
L 516.408574 312.444817 
L 516.597229 312.848456 
L 516.917941 312.917598 
L 517.087731 312.938154 
L 517.323549 312.953104 
L 517.493338 312.936285 
L 517.653694 312.925073 
L 518.540371 312.990478 
L 518.81392 312.999821 
L 520.389186 312.90078 
L 520.511811 312.115925 
L 520.558975 304.54768 
L 520.766495 241.843371 
L 520.813659 251.280318 
L 521.096641 305.659558 
L 521.285295 308.920444 
L 521.643739 310.635913 
L 521.804095 311.068517 
L 522.351194 311.956151 
L 522.360626 311.944004 
L 522.388925 311.995394 
L 522.426656 312.018753 
L 522.709637 312.2458 
L 523.294467 312.474716 
L 523.44539 312.513959 
L 524.511289 312.618606 
L 524.624482 312.644768 
L 524.633914 312.63449 
L 525.048954 312.646637 
L 525.199878 312.67093 
L 525.756409 312.674667 
L 525.945064 312.689617 
L 526.095987 312.697092 
L 526.303507 312.674667 
L 526.444998 312.710172 
L 526.709115 312.676536 
L 527.501464 312.683076 
L 527.520329 312.364463 
L 527.642955 312.563479 
L 527.671253 312.559742 
L 527.680686 312.488731 
L 527.746715 312.185067 
L 527.803311 312.366331 
L 527.859908 312.487797 
L 527.916504 312.356988 
L 528.029697 312.461635 
L 528.208919 312.498075 
L 528.218351 312.479388 
L 528.265515 312.414917 
L 528.340977 312.484059 
L 528.708853 312.636359 
L 529.057864 312.612066 
L 529.07673 312.618606 
L 529.086163 312.37474 
L 529.189923 312.517696 
L 529.312548 312.434539 
L 529.359712 312.330826 
L 529.425741 312.400902 
L 530.057734 312.651308 
L 530.472774 312.678405 
L 530.63313 312.694288 
L 532.340454 312.758759 
L 532.491378 312.745678 
L 532.746062 312.769971 
L 532.925284 312.764365 
L 533.170534 312.784921 
L 540.58466 312.889568 
L 540.735584 312.887699 
L 540.943104 312.88583 
L 541.112893 312.898911 
L 541.292115 312.897043 
L 541.575097 312.90078 
L 541.858078 312.895174 
L 541.999569 312.908255 
L 542.527802 312.913861 
L 542.791919 312.904518 
L 543.008871 312.902649 
L 543.461642 312.917598 
L 543.527672 312.91573 
L 543.546537 312.846588 
L 543.76349 312.780249 
L 543.933279 312.685879 
L 544.48981 312.840982 
L 546.065076 312.783052 
L 546.131105 312.113122 
L 546.244298 312.377543 
L 546.432952 312.588707 
L 546.442385 312.417721 
L 546.536712 312.583101 
L 546.555578 312.557873 
L 546.640472 309.892169 
L 546.753665 310.919956 
L 547.027214 312.222441 
L 547.376225 312.594313 
L 547.56488 312.674667 
L 547.800698 312.738203 
L 547.970487 312.779314 
L 547.97992 312.768102 
L 552.139754 312.878356 
L 552.422736 312.87275 
L 552.998132 312.876487 
L 553.611259 312.865275 
L 553.884809 312.863406 
L 554.111194 312.852194 
L 554.488503 312.883962 
L 554.714889 312.874618 
L 557.771093 312.869012 
L 557.780526 312.743809 
L 557.86542 312.898911 
L 557.874853 312.898911 
L 558.167268 312.902649 
L 558.34649 312.895174 
L 561.600781 312.818557 
L 561.704541 312.50555 
L 561.770571 312.558808 
L 561.902629 312.647571 
L 561.912061 312.63449 
L 561.921494 312.417721 
L 562.015821 312.684945 
L 562.270505 312.803608 
L 562.987393 312.904518 
L 563.110018 312.923205 
L 563.119451 312.91573 
L 563.723146 312.923205 
L 568.845118 312.98674 
L 568.986609 300.212291 
L 569.137532 283.98261 
L 569.156398 284.608626 
L 569.54314 310.234142 
L 569.920449 311.508597 
L 570.967482 312.770905 
L 574.391563 313.040933 
L 574.400995 312.687748 
L 574.495323 313.000756 
L 575.31597 313.065226 
L 575.41973 313.033458 
L 575.429163 313.037195 
L 575.514057 313.057751 
L 575.551788 313.033458 
L 575.674414 313.065226 
L 575.83477 313.054014 
L 576.476196 313.070832 
L 576.787476 313.065226 
L 576.9384 313.082044 
L 576.947832 313.070832 
L 577.419469 313.054014 
L 577.466633 312.917598 
L 577.513796 312.479388 
L 577.589258 312.702698 
L 577.909971 312.913861 
L 578.570262 313.056817 
L 578.919273 313.095748 
L 579.192822 313.096994 
L 579.63616 313.120353 
L 580.11723 313.108206 
L 580.32475 313.125959 
L 581.532139 313.11755 
L 581.947179 313.126893 
L 582.19243 313.14558 
L 582.588605 313.186692 
L 582.899885 313.18202 
L 583.097972 313.18202 
L 583.248896 313.193232 
L 584.2299 313.179217 
L 587.682279 313.187626 
L 587.701144 312.954972 
L 587.795471 313.084847 
L 588.106751 313.108206 
L 588.644417 313.205379 
L 589.908403 313.190429 
L 590.266847 313.219394 
L 590.436636 313.209116 
L 590.747916 313.191363 
L 591.030898 313.174545 
L 591.14409 313.191363 
L 591.153523 312.13835 
L 591.24785 313.055882 
L 591.408207 312.824163 
L 591.445938 312.923205 
L 591.672323 313.128762 
L 591.681756 313.123156 
L 592.408076 312.964316 
L 592.45524 312.165446 
L 592.530702 312.624212 
L 592.709923 312.998887 
L 592.87028 313.012902 
L 593.162694 313.106337 
L 597.633808 313.209116 
L 597.794165 313.20351 
L 597.954521 313.234343 
L 598.709139 313.200707 
L 599.001554 313.226869 
L 599.586383 313.23154 
L 600.16178 313.169873 
L 600.435329 313.248359 
L 601.039024 313.237147 
L 601.19938 313.227803 
L 601.482362 313.226869 
L 601.652151 313.223131 
L 601.906835 313.229672 
L 602.067191 313.255834 
L 602.34074 313.241818 
L 602.840675 313.255834 
L 603.010464 313.23154 
L 603.284013 313.258637 
L 603.425504 313.259571 
L 604.208421 313.293208 
L 604.500835 313.316566 
L 604.821548 313.267046 
L 605.387512 313.161464 
L 605.396945 313.084847 
L 605.444108 313.213788 
L 605.491272 313.212853 
L 605.62333 313.103534 
L 605.670494 313.201641 
L 605.887447 313.236212 
L 605.981774 313.176414 
L 606.03837 312.977397 
L 606.104399 313.095125 
L 606.198727 313.138105 
L 606.217592 313.104469 
L 606.55717 309.331558 
L 606.613767 310.301415 
L 606.792989 312.06547 
L 606.802421 312.039308 
L 606.887316 309.499742 
L 606.93448 311.257256 
L 607.057105 312.413049 
L 607.066538 312.321482 
L 607.085403 312.206557 
L 607.160865 312.402771 
L 607.330654 312.779314 
L 607.585338 312.870881 
L 607.707963 310.275253 
L 607.792858 311.284353 
L 607.962647 312.367266 
L 608.311658 312.848456 
L 608.622938 312.84285 
L 608.877622 312.87275 
L 609.104007 312.833507 
L 609.283229 312.800805 
L 609.500182 311.384328 
L 609.52848 311.445061 
L 609.736 312.102844 
L 610.132175 312.474716 
L 610.301964 312.528908 
L 610.490619 312.618606 
L 610.584946 312.683076 
L 610.905659 312.723253 
L 611.094313 312.760627 
L 611.509353 312.809214 
L 611.745172 312.827901 
L 612.047019 312.833507 
L 612.169645 312.874618 
L 612.886532 312.904518 
L 613.131783 312.801739 
L 613.188379 312.774643 
L 613.235543 312.820426 
L 613.395899 312.897043 
L 613.556256 312.850325 
L 614.009027 312.827901 
L 614.461798 312.612066 
L 614.53726 306.285574 
L 614.622154 309.172719 
L 614.697616 310.710661 
L 614.725914 309.424994 
L 614.754212 308.144932 
L 614.829674 309.621207 
L 615.018329 311.040487 
L 615.376773 311.815998 
L 615.386205 311.808524 
L 615.659754 311.791705 
L 615.867275 311.643143 
L 616.065362 311.773953 
L 616.348344 311.747791 
L 616.395507 311.697336 
L 616.461537 311.74125 
L 616.574729 311.749659 
L 616.584162 311.742185 
L 616.640758 311.602966 
L 616.725653 310.925562 
L 616.81998 310.967607 
L 616.904875 311.068517 
L 617.178424 311.486172 
L 617.319915 311.593623 
L 617.536868 311.721629 
L 617.81985 311.852438 
L 618.102831 311.934661 
L 618.159428 310.226667 
L 618.216024 311.296499 
L 618.263188 311.545037 
L 618.357515 311.497385 
L 618.508439 311.588951 
L 618.668795 311.790771 
L 618.876315 311.934661 
L 618.942344 311.778624 
L 619.027239 303.183528 
L 619.112134 308.53736 
L 619.291355 310.953592 
L 619.734694 311.929989 
L 620.093137 312.06547 
L 620.168599 312.061733 
L 620.196897 312.034637 
L 620.262927 311.8786 
L 620.357254 311.738447 
L 620.394985 311.764609 
L 620.62137 311.941201 
L 621.149603 312.050521 
L 621.508047 312.141153 
L 621.630672 312.135546 
L 621.640105 312.143956 
L 622.055145 312.154233 
L 622.111742 312.097238 
L 622.187203 312.160774 
L 622.394723 312.160774 
L 622.611676 312.186936 
L 622.743734 312.216835 
L 623.017284 312.281305 
L 623.243669 312.257946 
L 623.413458 312.256078 
L 623.620978 312.26075 
L 623.885095 312.28878 
L 624.054884 312.305598 
L 624.234106 312.314008 
L 624.790637 312.315876 
L 624.932128 312.336432 
L 625.120782 312.32522 
L 625.696179 312.378478 
L 626.120652 312.399034 
L 626.271575 312.393427 
L 626.347037 312.371937 
L 626.365903 312.343907 
L 626.441364 312.247669 
L 626.497961 309.004536 
L 626.620586 285.468229 
L 626.658317 282.029816 
L 626.705481 288.906641 
L 626.87527 307.883314 
L 627.101655 309.864139 
L 627.441234 310.997507 
L 627.592157 311.487107 
L 627.818543 311.831882 
L 628.375074 312.190673 
L 628.497699 312.2458 
L 629.044798 312.297189 
L 629.186289 312.324285 
L 629.459838 312.379412 
L 629.601329 312.381281 
L 630.148427 312.444817 
L 630.223889 312.442014 
L 630.26162 312.462569 
L 630.459707 312.468175 
L 630.610631 312.468175 
L 630.818151 312.457898 
L 630.855882 312.430801 
L 631.138864 309.04191 
L 631.204893 309.780047 
L 631.261489 309.639894 
L 631.497307 311.05824 
L 631.751991 311.514203 
L 631.92178 311.550643 
L 632.034973 311.558117 
L 632.053838 311.586148 
L 632.33682 311.679583 
L 632.374551 311.598295 
L 632.421715 309.144688 
L 632.54434 293.475619 
L 632.61037 298.203436 
L 632.789591 306.509818 
L 633.063141 308.612108 
L 633.431017 310.135101 
L 634.430886 311.216145 
L 634.449752 311.090942 
L 634.534646 311.210539 
L 634.600675 311.138594 
L 634.732734 311.068517 
L 634.742166 311.076927 
L 635.732603 311.540365 
L 636.109912 311.574001 
L 636.355163 311.685189 
L 636.572116 311.739382 
L 636.713607 311.788902 
L 636.817367 311.790771 
L 636.836232 311.811327 
L 637.873833 311.908499 
L 637.996458 311.90009 
L 638.005891 311.922514 
L 638.081353 311.823473 
L 638.600153 311.688927 
L 638.892567 311.847766 
L 639.175549 311.901024 
L 639.31704 311.915974 
L 639.788677 311.944004 
L 639.949033 311.940267 
L 640.241448 311.965495 
L 640.647055 311.996328 
L 640.788546 312.036505 
L 641.005499 312.047717 
L 641.137557 312.02903 
L 641.514866 311.987919 
L 641.703521 312.027162 
L 641.816714 312.042111 
L 641.826146 312.052389 
L 642.043099 312.093501 
L 642.222321 312.069208 
L 642.231754 312.083223 
L 642.39211 312.071076 
L 642.882612 312.10191 
L 643.439143 312.157037 
L 643.995674 312.157037 
L 644.108867 312.183198 
L 644.401281 312.185067 
L 644.655965 312.208426 
L 647.872526 312.317745 
L 648.032882 312.314008 
L 648.23097 312.305598 
L 648.306432 312.222441 
L 648.344162 312.176658 
L 648.400759 312.251406 
L 648.561115 312.309336 
L 651.34377 312.414917 
L 651.560723 312.430801 
L 651.72108 312.416786 
L 651.730512 312.427998 
L 651.947465 312.422392 
L 652.070091 312.413049 
L 652.390803 312.431736 
L 652.9662 312.43267 
L 653.767982 312.320548 
L 653.881175 311.697336 
L 653.909473 311.79264 
L 653.928338 311.662765 
L 654.0038 310.628438 
L 654.060397 311.181574 
L 654.230186 311.908499 
L 654.494302 312.211229 
L 655.050833 312.318679 
L 655.380979 312.32522 
L 655.531902 312.34671 
L 655.701691 312.349513 
L 656.201626 312.359791 
L 656.211059 311.956151 
L 656.314819 312.099107 
L 656.35255 311.787033 
L 656.409146 310.384572 
L 656.484608 311.094679 
L 656.682695 311.969232 
L 656.993975 312.270093 
L 657.192063 312.317745 
L 657.324121 312.323351 
L 657.644834 312.235522 
L 657.720296 312.174789 
L 657.682565 312.304664 
L 657.758027 312.225244 
L 657.927816 312.125269 
L 657.965547 312.179461 
L 658.125903 312.241128 
L 658.606972 312.254209 
L 658.90882 312.281305 
L 659.437052 312.328957 
L 659.578543 312.341104 
L 659.644572 312.176658 
L 659.682303 312.266356 
L 659.814362 311.517006 
L 659.870958 307.612352 
L 660.087911 293.914764 
L 660.116209 296.829939 
L 660.285998 308.088871 
L 660.521816 309.845452 
L 660.851962 310.549952 
L 660.870827 310.411668 
L 660.955722 310.59667 
L 660.993453 310.563033 
L 661.021751 309.41565 
L 661.144376 286.131618 
L 661.200973 296.32539 
L 661.361329 306.238856 
L 661.597147 308.238368 
L 661.832966 308.985849 
L 661.889562 309.079284 
L 662.3329 310.050075 
L 662.417795 310.22947 
L 662.738508 310.567705 
L 662.785671 310.417275 
L 662.81397 310.344395 
L 662.879999 310.492023 
L 663.096951 310.763919 
L 663.568588 311.04329 
L 663.728944 311.10122 
L 664.106254 311.302105 
L 664.153417 311.299302 
L 664.210014 311.345085 
L 664.389235 311.380591 
L 664.615621 311.48991 
L 665.058959 311.626325 
L 665.162719 311.669305 
L 665.313643 311.671174 
L 665.464567 311.724432 
L 665.577759 311.749659 
L 665.71925 311.742185 
L 665.889039 311.733775 
L 665.898472 311.380591 
L 665.992799 311.705745 
L 666.13429 311.804786 
L 666.219185 311.809458 
L 666.23805 311.825342 
L 666.388974 311.858979 
L 666.671956 311.90663 
L 666.832312 311.937464 
L 666.992669 311.92812 
L 667.002101 311.793574 
L 667.096429 311.944004 
L 667.313382 311.94307 
L 667.322814 311.716023 
L 667.426574 311.876731 
L 667.615229 311.92812 
L 667.624662 311.895418 
L 667.690691 311.952414 
L 667.718989 311.947742 
L 667.992538 311.986985 
L 668.152895 312.038374 
L 668.162327 311.515137 
L 668.266087 311.870191 
L 668.426444 311.992591 
L 668.596233 311.97951 
L 669.181062 312.072945 
L 669.190495 311.637537 
L 669.294255 311.970166 
L 669.473477 312.133678 
L 669.596102 312.1234 
L 669.784757 312.145824 
L 669.803622 311.798246 
L 669.897949 311.929055 
L 669.945113 311.956151 
L 669.973411 311.871125 
L 670.03944 311.802917 
L 670.086604 311.859913 
L 670.567673 312.222441 
L 670.775193 312.222441 
L 670.897819 312.242063 
L 671.14307 312.242997 
L 671.407186 312.250472 
L 671.576975 312.251406 
L 671.718466 312.014081 
L 671.841092 312.044914 
L 671.97315 312.08042 
L 671.982583 312.017818 
L 672.07691 312.133678 
L 672.322161 312.199082 
L 672.49195 312.177592 
L 672.727768 312.221507 
L 672.737201 311.790771 
L 672.840961 312.112188 
L 673.020183 312.235522 
L 673.538983 312.314942 
L 673.557849 312.207492 
L 673.652176 312.256078 
L 673.972889 312.304664 
L 674.538852 312.356988 
L 675.529289 312.465372 
L 675.67078 312.449488 
L 675.793405 312.472847 
L 675.831136 312.46911 
L 675.831136 312.46911 
" clip-path="url(#p7f89ca9c5f)" style="fill: none; stroke: #1f77b4; stroke-width: 1.5; stroke-linecap: square"/>
   </g>
   <g id="line2d_18">
    <path d="M 76.003864 312.393427 
L 79.060068 312.791429 
L 82.295494 313.001986 
L 86.521357 313.16019 
L 93.529875 313.307122 
L 105.405682 313.338082 
L 105.528307 313.299919 
L 114.715786 313.311178 
L 115.017633 313.308705 
L 129.959077 313.369215 
L 195.42222 313.33492 
L 195.582576 313.321872 
L 204.590833 313.299397 
L 204.770055 313.293177 
L 217.541971 313.362605 
L 251.528095 313.336817 
L 251.660154 313.305161 
L 255.678496 313.32213 
L 272.893228 313.369254 
L 288.551559 313.275928 
L 289.296744 313.286389 
L 301.644187 313.36417 
L 332.083606 313.315171 
L 332.225097 313.296315 
L 333.592842 313.203829 
L 333.781497 313.16422 
L 339.431702 313.257355 
L 349.703945 313.354337 
L 368.324153 313.314887 
L 368.559971 313.266406 
L 377.634257 313.323039 
L 394.650901 313.365664 
L 415.374608 313.292337 
L 415.827379 313.194411 
L 421.968086 313.273572 
L 430.702793 313.316801 
L 431.07067 313.316935 
L 444.795291 313.345924 
L 445.012244 313.30755 
L 457.755862 313.345307 
L 476.743946 313.335553 
L 477.130688 313.333525 
L 496.543246 313.363036 
L 516.116159 313.299605 
L 516.276516 313.259595 
L 520.511811 313.236906 
L 520.700466 313.122434 
L 521.011746 313.130667 
L 527.510897 313.291865 
L 529.265384 313.279327 
L 543.65973 313.322439 
L 543.744624 313.002507 
L 543.86725 312.872354 
L 547.866727 313.103996 
L 554.101761 313.282227 
L 565.421037 313.352303 
L 568.85455 313.276876 
L 568.977176 313.193037 
L 575.910232 313.298513 
L 587.691711 313.345066 
L 588.078453 313.336782 
L 607.462713 313.355749 
L 607.76456 313.323895 
L 610.867928 313.34228 
L 614.603289 313.252858 
L 615.669187 313.266843 
L 626.073488 313.349679 
L 653.767982 313.370892 
L 653.994367 313.298259 
L 659.776631 313.269538 
L 659.927554 313.227963 
L 667.785018 313.315442 
L 675.831136 313.348167 
L 675.831136 313.348167 
" clip-path="url(#p7f89ca9c5f)" style="fill: none; stroke: #ff7f0e; stroke-width: 1.5; stroke-linecap: square"/>
   </g>
   <g id="patch_3">
    <path d="M 46.0125 327.558125 
L 46.0125 22.318125 
" style="fill: none; stroke: #000000; stroke-width: 0.8; stroke-linejoin: miter; stroke-linecap: square"/>
   </g>
   <g id="patch_4">
    <path d="M 705.8225 327.558125 
L 705.8225 22.318125 
" style="fill: none; stroke: #000000; stroke-width: 0.8; stroke-linejoin: miter; stroke-linecap: square"/>
   </g>
   <g id="patch_5">
    <path d="M 46.0125 327.558125 
L 705.8225 327.558125 
" style="fill: none; stroke: #000000; stroke-width: 0.8; stroke-linejoin: miter; stroke-linecap: square"/>
   </g>
   <g id="patch_6">
    <path d="M 46.0125 22.318125 
L 705.8225 22.318125 
" style="fill: none; stroke: #000000; stroke-width: 0.8; stroke-linejoin: miter; stroke-linecap: square"/>
   </g>
   <g id="text_17">
    <!-- training -->
    <g transform="translate(352.674062 16.318125) scale(0.12 -0.12)">
     <defs>
      <path id="DejaVuSans-74" d="M 1172 4494 
L 1172 3500 
L 2356 3500 
L 2356 3053 
L 1172 3053 
L 1172 1153 
Q 1172 725 1289 603 
Q 1406 481 1766 481 
L 2356 481 
L 2356 0 
L 1766 0 
Q 1100 0 847 248 
Q 594 497 594 1153 
L 594 3053 
L 172 3053 
L 172 3500 
L 594 3500 
L 594 4494 
L 1172 4494 
z
" transform="scale(0.015625)"/>
      <path id="DejaVuSans-72" d="M 2631 2963 
Q 2534 3019 2420 3045 
Q 2306 3072 2169 3072 
Q 1681 3072 1420 2755 
Q 1159 2438 1159 1844 
L 1159 0 
L 581 0 
L 581 3500 
L 1159 3500 
L 1159 2956 
Q 1341 3275 1631 3429 
Q 1922 3584 2338 3584 
Q 2397 3584 2469 3576 
Q 2541 3569 2628 3553 
L 2631 2963 
z
" transform="scale(0.015625)"/>
      <path id="DejaVuSans-61" d="M 2194 1759 
Q 1497 1759 1228 1600 
Q 959 1441 959 1056 
Q 959 750 1161 570 
Q 1363 391 1709 391 
Q 2188 391 2477 730 
Q 2766 1069 2766 1631 
L 2766 1759 
L 2194 1759 
z
M 3341 1997 
L 3341 0 
L 2766 0 
L 2766 531 
Q 2569 213 2275 61 
Q 1981 -91 1556 -91 
Q 1019 -91 701 211 
Q 384 513 384 1019 
Q 384 1609 779 1909 
Q 1175 2209 1959 2209 
L 2766 2209 
L 2766 2266 
Q 2766 2663 2505 2880 
Q 2244 3097 1772 3097 
Q 1472 3097 1187 3025 
Q 903 2953 641 2809 
L 641 3341 
Q 956 3463 1253 3523 
Q 1550 3584 1831 3584 
Q 2591 3584 2966 3190 
Q 3341 2797 3341 1997 
z
" transform="scale(0.015625)"/>
      <path id="DejaVuSans-69" d="M 603 3500 
L 1178 3500 
L 1178 0 
L 603 0 
L 603 3500 
z
M 603 4863 
L 1178 4863 
L 1178 4134 
L 603 4134 
L 603 4863 
z
" transform="scale(0.015625)"/>
      <path id="DejaVuSans-6e" d="M 3513 2113 
L 3513 0 
L 2938 0 
L 2938 2094 
Q 2938 2591 2744 2837 
Q 2550 3084 2163 3084 
Q 1697 3084 1428 2787 
Q 1159 2491 1159 1978 
L 1159 0 
L 581 0 
L 581 3500 
L 1159 3500 
L 1159 2956 
Q 1366 3272 1645 3428 
Q 1925 3584 2291 3584 
Q 2894 3584 3203 3211 
Q 3513 2838 3513 2113 
z
" transform="scale(0.015625)"/>
      <path id="DejaVuSans-67" d="M 2906 1791 
Q 2906 2416 2648 2759 
Q 2391 3103 1925 3103 
Q 1463 3103 1205 2759 
Q 947 2416 947 1791 
Q 947 1169 1205 825 
Q 1463 481 1925 481 
Q 2391 481 2648 825 
Q 2906 1169 2906 1791 
z
M 3481 434 
Q 3481 -459 3084 -895 
Q 2688 -1331 1869 -1331 
Q 1566 -1331 1297 -1286 
Q 1028 -1241 775 -1147 
L 775 -588 
Q 1028 -725 1275 -790 
Q 1522 -856 1778 -856 
Q 2344 -856 2625 -561 
Q 2906 -266 2906 331 
L 2906 616 
Q 2728 306 2450 153 
Q 2172 0 1784 0 
Q 1141 0 747 490 
Q 353 981 353 1791 
Q 353 2603 747 3093 
Q 1141 3584 1784 3584 
Q 2172 3584 2450 3431 
Q 2728 3278 2906 2969 
L 2906 3500 
L 3481 3500 
L 3481 434 
z
" transform="scale(0.015625)"/>
     </defs>
     <use xlink:href="#DejaVuSans-74"/>
     <use xlink:href="#DejaVuSans-72" x="39.208984"/>
     <use xlink:href="#DejaVuSans-61" x="80.322266"/>
     <use xlink:href="#DejaVuSans-69" x="141.601562"/>
     <use xlink:href="#DejaVuSans-6e" x="169.384766"/>
     <use xlink:href="#DejaVuSans-69" x="232.763672"/>
     <use xlink:href="#DejaVuSans-6e" x="260.546875"/>
     <use xlink:href="#DejaVuSans-67" x="323.925781"/>
    </g>
   </g>
   <g id="legend_1">
    <g id="patch_7">
     <path d="M 617.42875 59.674375 
L 698.8225 59.674375 
Q 700.8225 59.674375 700.8225 57.674375 
L 700.8225 29.318125 
Q 700.8225 27.318125 698.8225 27.318125 
L 617.42875 27.318125 
Q 615.42875 27.318125 615.42875 29.318125 
L 615.42875 57.674375 
Q 615.42875 59.674375 617.42875 59.674375 
z
" style="fill: #ffffff; opacity: 0.8; stroke: #cccccc; stroke-linejoin: miter"/>
    </g>
    <g id="line2d_19">
     <path d="M 619.42875 35.416562 
L 629.42875 35.416562 
L 639.42875 35.416562 
" style="fill: none; stroke: #1f77b4; stroke-width: 1.5; stroke-linecap: square"/>
    </g>
    <g id="text_18">
     <!-- observed -->
     <g transform="translate(647.42875 38.916562) scale(0.1 -0.1)">
      <defs>
       <path id="DejaVuSans-6f" d="M 1959 3097 
Q 1497 3097 1228 2736 
Q 959 2375 959 1747 
Q 959 1119 1226 758 
Q 1494 397 1959 397 
Q 2419 397 2687 759 
Q 2956 1122 2956 1747 
Q 2956 2369 2687 2733 
Q 2419 3097 1959 3097 
z
M 1959 3584 
Q 2709 3584 3137 3096 
Q 3566 2609 3566 1747 
Q 3566 888 3137 398 
Q 2709 -91 1959 -91 
Q 1206 -91 779 398 
Q 353 888 353 1747 
Q 353 2609 779 3096 
Q 1206 3584 1959 3584 
z
" transform="scale(0.015625)"/>
       <path id="DejaVuSans-62" d="M 3116 1747 
Q 3116 2381 2855 2742 
Q 2594 3103 2138 3103 
Q 1681 3103 1420 2742 
Q 1159 2381 1159 1747 
Q 1159 1113 1420 752 
Q 1681 391 2138 391 
Q 2594 391 2855 752 
Q 3116 1113 3116 1747 
z
M 1159 2969 
Q 1341 3281 1617 3432 
Q 1894 3584 2278 3584 
Q 2916 3584 3314 3078 
Q 3713 2572 3713 1747 
Q 3713 922 3314 415 
Q 2916 -91 2278 -91 
Q 1894 -91 1617 61 
Q 1341 213 1159 525 
L 1159 0 
L 581 0 
L 581 4863 
L 1159 4863 
L 1159 2969 
z
" transform="scale(0.015625)"/>
       <path id="DejaVuSans-73" d="M 2834 3397 
L 2834 2853 
Q 2591 2978 2328 3040 
Q 2066 3103 1784 3103 
Q 1356 3103 1142 2972 
Q 928 2841 928 2578 
Q 928 2378 1081 2264 
Q 1234 2150 1697 2047 
L 1894 2003 
Q 2506 1872 2764 1633 
Q 3022 1394 3022 966 
Q 3022 478 2636 193 
Q 2250 -91 1575 -91 
Q 1294 -91 989 -36 
Q 684 19 347 128 
L 347 722 
Q 666 556 975 473 
Q 1284 391 1588 391 
Q 1994 391 2212 530 
Q 2431 669 2431 922 
Q 2431 1156 2273 1281 
Q 2116 1406 1581 1522 
L 1381 1569 
Q 847 1681 609 1914 
Q 372 2147 372 2553 
Q 372 3047 722 3315 
Q 1072 3584 1716 3584 
Q 2034 3584 2315 3537 
Q 2597 3491 2834 3397 
z
" transform="scale(0.015625)"/>
       <path id="DejaVuSans-65" d="M 3597 1894 
L 3597 1613 
L 953 1613 
Q 991 1019 1311 708 
Q 1631 397 2203 397 
Q 2534 397 2845 478 
Q 3156 559 3463 722 
L 3463 178 
Q 3153 47 2828 -22 
Q 2503 -91 2169 -91 
Q 1331 -91 842 396 
Q 353 884 353 1716 
Q 353 2575 817 3079 
Q 1281 3584 2069 3584 
Q 2775 3584 3186 3129 
Q 3597 2675 3597 1894 
z
M 3022 2063 
Q 3016 2534 2758 2815 
Q 2500 3097 2075 3097 
Q 1594 3097 1305 2825 
Q 1016 2553 972 2059 
L 3022 2063 
z
" transform="scale(0.015625)"/>
       <path id="DejaVuSans-76" d="M 191 3500 
L 800 3500 
L 1894 563 
L 2988 3500 
L 3597 3500 
L 2284 0 
L 1503 0 
L 191 3500 
z
" transform="scale(0.015625)"/>
       <path id="DejaVuSans-64" d="M 2906 2969 
L 2906 4863 
L 3481 4863 
L 3481 0 
L 2906 0 
L 2906 525 
Q 2725 213 2448 61 
Q 2172 -91 1784 -91 
Q 1150 -91 751 415 
Q 353 922 353 1747 
Q 353 2572 751 3078 
Q 1150 3584 1784 3584 
Q 2172 3584 2448 3432 
Q 2725 3281 2906 2969 
z
M 947 1747 
Q 947 1113 1208 752 
Q 1469 391 1925 391 
Q 2381 391 2643 752 
Q 2906 1113 2906 1747 
Q 2906 2381 2643 2742 
Q 2381 3103 1925 3103 
Q 1469 3103 1208 2742 
Q 947 2381 947 1747 
z
" transform="scale(0.015625)"/>
      </defs>
      <use xlink:href="#DejaVuSans-6f"/>
      <use xlink:href="#DejaVuSans-62" x="61.181641"/>
      <use xlink:href="#DejaVuSans-73" x="124.658203"/>
      <use xlink:href="#DejaVuSans-65" x="176.757812"/>
      <use xlink:href="#DejaVuSans-72" x="238.28125"/>
      <use xlink:href="#DejaVuSans-76" x="279.394531"/>
      <use xlink:href="#DejaVuSans-65" x="338.574219"/>
      <use xlink:href="#DejaVuSans-64" x="400.097656"/>
     </g>
    </g>
    <g id="line2d_20">
     <path d="M 619.42875 50.094688 
L 629.42875 50.094688 
L 639.42875 50.094688 
" style="fill: none; stroke: #ff7f0e; stroke-width: 1.5; stroke-linecap: square"/>
    </g>
    <g id="text_19">
     <!-- simulated -->
     <g transform="translate(647.42875 53.594688) scale(0.1 -0.1)">
      <defs>
       <path id="DejaVuSans-6d" d="M 3328 2828 
Q 3544 3216 3844 3400 
Q 4144 3584 4550 3584 
Q 5097 3584 5394 3201 
Q 5691 2819 5691 2113 
L 5691 0 
L 5113 0 
L 5113 2094 
Q 5113 2597 4934 2840 
Q 4756 3084 4391 3084 
Q 3944 3084 3684 2787 
Q 3425 2491 3425 1978 
L 3425 0 
L 2847 0 
L 2847 2094 
Q 2847 2600 2669 2842 
Q 2491 3084 2119 3084 
Q 1678 3084 1418 2786 
Q 1159 2488 1159 1978 
L 1159 0 
L 581 0 
L 581 3500 
L 1159 3500 
L 1159 2956 
Q 1356 3278 1631 3431 
Q 1906 3584 2284 3584 
Q 2666 3584 2933 3390 
Q 3200 3197 3328 2828 
z
" transform="scale(0.015625)"/>
       <path id="DejaVuSans-75" d="M 544 1381 
L 544 3500 
L 1119 3500 
L 1119 1403 
Q 1119 906 1312 657 
Q 1506 409 1894 409 
Q 2359 409 2629 706 
Q 2900 1003 2900 1516 
L 2900 3500 
L 3475 3500 
L 3475 0 
L 2900 0 
L 2900 538 
Q 2691 219 2414 64 
Q 2138 -91 1772 -91 
Q 1169 -91 856 284 
Q 544 659 544 1381 
z
M 1991 3584 
L 1991 3584 
z
" transform="scale(0.015625)"/>
       <path id="DejaVuSans-6c" d="M 603 4863 
L 1178 4863 
L 1178 0 
L 603 0 
L 603 4863 
z
" transform="scale(0.015625)"/>
      </defs>
      <use xlink:href="#DejaVuSans-73"/>
      <use xlink:href="#DejaVuSans-69" x="52.099609"/>
      <use xlink:href="#DejaVuSans-6d" x="79.882812"/>
      <use xlink:href="#DejaVuSans-75" x="177.294922"/>
      <use xlink:href="#DejaVuSans-6c" x="240.673828"/>
      <use xlink:href="#DejaVuSans-61" x="268.457031"/>
      <use xlink:href="#DejaVuSans-74" x="329.736328"/>
      <use xlink:href="#DejaVuSans-65" x="368.945312"/>
      <use xlink:href="#DejaVuSans-64" x="430.46875"/>
     </g>
    </g>
   </g>
  </g>
 </g>
 <defs>
  <clipPath id="p7f89ca9c5f">
   <rect x="46.0125" y="22.318125" width="659.81" height="305.24"/>
  </clipPath>
 </defs>
</svg>
