<?xml version="1.0" encoding="utf-8" standalone="no"?>
<!DOCTYPE svg PUBLIC "-//W3C//DTD SVG 1.1//EN"
  "http://www.w3.org/Graphics/SVG/1.1/DTD/svg11.dtd">
<svg xmlns:xlink="http://www.w3.org/1999/xlink" width="711.85554pt" height="351.43625pt" viewBox="0 0 711.85554 351.43625" xmlns="http://www.w3.org/2000/svg" version="1.1">
 <metadata>
  <rdf:RDF xmlns:dc="http://purl.org/dc/elements/1.1/" xmlns:cc="http://creativecommons.org/ns#" xmlns:rdf="http://www.w3.org/1999/02/22-rdf-syntax-ns#">
   <cc:Work>
    <dc:type rdf:resource="http://purl.org/dc/dcmitype/StillImage"/>
    <dc:date>2024-05-03T18:37:45.891865</dc:date>
    <dc:format>image/svg+xml</dc:format>
    <dc:creator>
     <cc:Agent>
      <dc:title>Matplotlib v3.7.1, https://matplotlib.org/</dc:title>
     </cc:Agent>
    </dc:creator>
   </cc:Work>
  </rdf:RDF>
 </metadata>
 <defs>
  <style type="text/css">*{stroke-linejoin: round; stroke-linecap: butt}</style>
 </defs>
 <g id="figure_1">
  <g id="patch_1">
   <path d="M 0 351.43625 
L 711.85554 351.43625 
L 711.85554 0 
L 0 0 
z
" style="fill: #ffffff"/>
  </g>
  <g id="axes_1">
   <g id="patch_2">
    <path d="M 21.87607 327.558125 
L 704.65554 327.558125 
L 704.65554 22.318125 
L 21.87607 22.318125 
z
" style="fill: #ffffff"/>
   </g>
   <g id="matplotlib.axis_1">
    <g id="xtick_1">
     <g id="line2d_1">
      <defs>
       <path id="mb42f2b52d7" d="M 0 0 
L 0 3.5 
" style="stroke: #000000; stroke-width: 0.8"/>
      </defs>
      <g>
       <use xlink:href="#mb42f2b52d7" x="28.091406" y="327.558125" style="stroke: #000000; stroke-width: 0.8"/>
      </g>
     </g>
     <g id="text_1">
      <!-- 2021-03 -->
      <g transform="translate(7.2 342.156563) scale(0.1 -0.1)">
       <defs>
        <path id="DejaVuSans-32" d="M 1228 531 
L 3431 531 
L 3431 0 
L 469 0 
L 469 531 
Q 828 903 1448 1529 
Q 2069 2156 2228 2338 
Q 2531 2678 2651 2914 
Q 2772 3150 2772 3378 
Q 2772 3750 2511 3984 
Q 2250 4219 1831 4219 
Q 1534 4219 1204 4116 
Q 875 4013 500 3803 
L 500 4441 
Q 881 4594 1212 4672 
Q 1544 4750 1819 4750 
Q 2544 4750 2975 4387 
Q 3406 4025 3406 3419 
Q 3406 3131 3298 2873 
Q 3191 2616 2906 2266 
Q 2828 2175 2409 1742 
Q 1991 1309 1228 531 
z
" transform="scale(0.015625)"/>
        <path id="DejaVuSans-30" d="M 2034 4250 
Q 1547 4250 1301 3770 
Q 1056 3291 1056 2328 
Q 1056 1369 1301 889 
Q 1547 409 2034 409 
Q 2525 409 2770 889 
Q 3016 1369 3016 2328 
Q 3016 3291 2770 3770 
Q 2525 4250 2034 4250 
z
M 2034 4750 
Q 2819 4750 3233 4129 
Q 3647 3509 3647 2328 
Q 3647 1150 3233 529 
Q 2819 -91 2034 -91 
Q 1250 -91 836 529 
Q 422 1150 422 2328 
Q 422 3509 836 4129 
Q 1250 4750 2034 4750 
z
" transform="scale(0.015625)"/>
        <path id="DejaVuSans-31" d="M 794 531 
L 1825 531 
L 1825 4091 
L 703 3866 
L 703 4441 
L 1819 4666 
L 2450 4666 
L 2450 531 
L 3481 531 
L 3481 0 
L 794 0 
L 794 531 
z
" transform="scale(0.015625)"/>
        <path id="DejaVuSans-2d" d="M 313 2009 
L 1997 2009 
L 1997 1497 
L 313 1497 
L 313 2009 
z
" transform="scale(0.015625)"/>
        <path id="DejaVuSans-33" d="M 2597 2516 
Q 3050 2419 3304 2112 
Q 3559 1806 3559 1356 
Q 3559 666 3084 287 
Q 2609 -91 1734 -91 
Q 1441 -91 1130 -33 
Q 819 25 488 141 
L 488 750 
Q 750 597 1062 519 
Q 1375 441 1716 441 
Q 2309 441 2620 675 
Q 2931 909 2931 1356 
Q 2931 1769 2642 2001 
Q 2353 2234 1838 2234 
L 1294 2234 
L 1294 2753 
L 1863 2753 
Q 2328 2753 2575 2939 
Q 2822 3125 2822 3475 
Q 2822 3834 2567 4026 
Q 2313 4219 1838 4219 
Q 1578 4219 1281 4162 
Q 984 4106 628 3988 
L 628 4550 
Q 988 4650 1302 4700 
Q 1616 4750 1894 4750 
Q 2613 4750 3031 4423 
Q 3450 4097 3450 3541 
Q 3450 3153 3228 2886 
Q 3006 2619 2597 2516 
z
" transform="scale(0.015625)"/>
       </defs>
       <use xlink:href="#DejaVuSans-32"/>
       <use xlink:href="#DejaVuSans-30" x="63.623047"/>
       <use xlink:href="#DejaVuSans-32" x="127.246094"/>
       <use xlink:href="#DejaVuSans-31" x="190.869141"/>
       <use xlink:href="#DejaVuSans-2d" x="254.492188"/>
       <use xlink:href="#DejaVuSans-30" x="290.576172"/>
       <use xlink:href="#DejaVuSans-33" x="354.199219"/>
      </g>
     </g>
    </g>
    <g id="xtick_2">
     <g id="line2d_2">
      <g>
       <use xlink:href="#mb42f2b52d7" x="128.746856" y="327.558125" style="stroke: #000000; stroke-width: 0.8"/>
      </g>
     </g>
     <g id="text_2">
      <!-- 2021-05 -->
      <g transform="translate(107.85545 342.156563) scale(0.1 -0.1)">
       <defs>
        <path id="DejaVuSans-35" d="M 691 4666 
L 3169 4666 
L 3169 4134 
L 1269 4134 
L 1269 2991 
Q 1406 3038 1543 3061 
Q 1681 3084 1819 3084 
Q 2600 3084 3056 2656 
Q 3513 2228 3513 1497 
Q 3513 744 3044 326 
Q 2575 -91 1722 -91 
Q 1428 -91 1123 -41 
Q 819 9 494 109 
L 494 744 
Q 775 591 1075 516 
Q 1375 441 1709 441 
Q 2250 441 2565 725 
Q 2881 1009 2881 1497 
Q 2881 1984 2565 2268 
Q 2250 2553 1709 2553 
Q 1456 2553 1204 2497 
Q 953 2441 691 2322 
L 691 4666 
z
" transform="scale(0.015625)"/>
       </defs>
       <use xlink:href="#DejaVuSans-32"/>
       <use xlink:href="#DejaVuSans-30" x="63.623047"/>
       <use xlink:href="#DejaVuSans-32" x="127.246094"/>
       <use xlink:href="#DejaVuSans-31" x="190.869141"/>
       <use xlink:href="#DejaVuSans-2d" x="254.492188"/>
       <use xlink:href="#DejaVuSans-30" x="290.576172"/>
       <use xlink:href="#DejaVuSans-35" x="354.199219"/>
      </g>
     </g>
    </g>
    <g id="xtick_3">
     <g id="line2d_3">
      <g>
       <use xlink:href="#mb42f2b52d7" x="229.402306" y="327.558125" style="stroke: #000000; stroke-width: 0.8"/>
      </g>
     </g>
     <g id="text_3">
      <!-- 2021-07 -->
      <g transform="translate(208.5109 342.156563) scale(0.1 -0.1)">
       <defs>
        <path id="DejaVuSans-37" d="M 525 4666 
L 3525 4666 
L 3525 4397 
L 1831 0 
L 1172 0 
L 2766 4134 
L 525 4134 
L 525 4666 
z
" transform="scale(0.015625)"/>
       </defs>
       <use xlink:href="#DejaVuSans-32"/>
       <use xlink:href="#DejaVuSans-30" x="63.623047"/>
       <use xlink:href="#DejaVuSans-32" x="127.246094"/>
       <use xlink:href="#DejaVuSans-31" x="190.869141"/>
       <use xlink:href="#DejaVuSans-2d" x="254.492188"/>
       <use xlink:href="#DejaVuSans-30" x="290.576172"/>
       <use xlink:href="#DejaVuSans-37" x="354.199219"/>
      </g>
     </g>
    </g>
    <g id="xtick_4">
     <g id="line2d_4">
      <g>
       <use xlink:href="#mb42f2b52d7" x="331.707846" y="327.558125" style="stroke: #000000; stroke-width: 0.8"/>
      </g>
     </g>
     <g id="text_4">
      <!-- 2021-09 -->
      <g transform="translate(310.81644 342.156563) scale(0.1 -0.1)">
       <defs>
        <path id="DejaVuSans-39" d="M 703 97 
L 703 672 
Q 941 559 1184 500 
Q 1428 441 1663 441 
Q 2288 441 2617 861 
Q 2947 1281 2994 2138 
Q 2813 1869 2534 1725 
Q 2256 1581 1919 1581 
Q 1219 1581 811 2004 
Q 403 2428 403 3163 
Q 403 3881 828 4315 
Q 1253 4750 1959 4750 
Q 2769 4750 3195 4129 
Q 3622 3509 3622 2328 
Q 3622 1225 3098 567 
Q 2575 -91 1691 -91 
Q 1453 -91 1209 -44 
Q 966 3 703 97 
z
M 1959 2075 
Q 2384 2075 2632 2365 
Q 2881 2656 2881 3163 
Q 2881 3666 2632 3958 
Q 2384 4250 1959 4250 
Q 1534 4250 1286 3958 
Q 1038 3666 1038 3163 
Q 1038 2656 1286 2365 
Q 1534 2075 1959 2075 
z
" transform="scale(0.015625)"/>
       </defs>
       <use xlink:href="#DejaVuSans-32"/>
       <use xlink:href="#DejaVuSans-30" x="63.623047"/>
       <use xlink:href="#DejaVuSans-32" x="127.246094"/>
       <use xlink:href="#DejaVuSans-31" x="190.869141"/>
       <use xlink:href="#DejaVuSans-2d" x="254.492188"/>
       <use xlink:href="#DejaVuSans-30" x="290.576172"/>
       <use xlink:href="#DejaVuSans-39" x="354.199219"/>
      </g>
     </g>
    </g>
    <g id="xtick_5">
     <g id="line2d_5">
      <g>
       <use xlink:href="#mb42f2b52d7" x="432.363296" y="327.558125" style="stroke: #000000; stroke-width: 0.8"/>
      </g>
     </g>
     <g id="text_5">
      <!-- 2021-11 -->
      <g transform="translate(411.47189 342.156563) scale(0.1 -0.1)">
       <use xlink:href="#DejaVuSans-32"/>
       <use xlink:href="#DejaVuSans-30" x="63.623047"/>
       <use xlink:href="#DejaVuSans-32" x="127.246094"/>
       <use xlink:href="#DejaVuSans-31" x="190.869141"/>
       <use xlink:href="#DejaVuSans-2d" x="254.492188"/>
       <use xlink:href="#DejaVuSans-31" x="290.576172"/>
       <use xlink:href="#DejaVuSans-31" x="354.199219"/>
      </g>
     </g>
    </g>
    <g id="xtick_6">
     <g id="line2d_6">
      <g>
       <use xlink:href="#mb42f2b52d7" x="533.018746" y="327.558125" style="stroke: #000000; stroke-width: 0.8"/>
      </g>
     </g>
     <g id="text_6">
      <!-- 2022-01 -->
      <g transform="translate(512.12734 342.156563) scale(0.1 -0.1)">
       <use xlink:href="#DejaVuSans-32"/>
       <use xlink:href="#DejaVuSans-30" x="63.623047"/>
       <use xlink:href="#DejaVuSans-32" x="127.246094"/>
       <use xlink:href="#DejaVuSans-32" x="190.869141"/>
       <use xlink:href="#DejaVuSans-2d" x="254.492188"/>
       <use xlink:href="#DejaVuSans-30" x="290.576172"/>
       <use xlink:href="#DejaVuSans-31" x="354.199219"/>
      </g>
     </g>
    </g>
    <g id="xtick_7">
     <g id="line2d_7">
      <g>
       <use xlink:href="#mb42f2b52d7" x="630.374018" y="327.558125" style="stroke: #000000; stroke-width: 0.8"/>
      </g>
     </g>
     <g id="text_7">
      <!-- 2022-03 -->
      <g transform="translate(609.482611 342.156563) scale(0.1 -0.1)">
       <use xlink:href="#DejaVuSans-32"/>
       <use xlink:href="#DejaVuSans-30" x="63.623047"/>
       <use xlink:href="#DejaVuSans-32" x="127.246094"/>
       <use xlink:href="#DejaVuSans-32" x="190.869141"/>
       <use xlink:href="#DejaVuSans-2d" x="254.492188"/>
       <use xlink:href="#DejaVuSans-30" x="290.576172"/>
       <use xlink:href="#DejaVuSans-33" x="354.199219"/>
      </g>
     </g>
    </g>
   </g>
   <g id="matplotlib.axis_2">
    <g id="ytick_1">
     <g id="line2d_8">
      <defs>
       <path id="mecf01a8940" d="M 0 0 
L -3.5 0 
" style="stroke: #000000; stroke-width: 0.8"/>
      </defs>
      <g>
       <use xlink:href="#mecf01a8940" x="21.87607" y="307.78148" style="stroke: #000000; stroke-width: 0.8"/>
      </g>
     </g>
     <g id="text_8">
      <!-- 0 -->
      <g transform="translate(8.51357 311.580699) scale(0.1 -0.1)">
       <use xlink:href="#DejaVuSans-30"/>
      </g>
     </g>
    </g>
    <g id="ytick_2">
     <g id="line2d_9">
      <g>
       <use xlink:href="#mecf01a8940" x="21.87607" y="270.893356" style="stroke: #000000; stroke-width: 0.8"/>
      </g>
     </g>
     <g id="text_9">
      <!-- 1 -->
      <g transform="translate(8.51357 274.692575) scale(0.1 -0.1)">
       <use xlink:href="#DejaVuSans-31"/>
      </g>
     </g>
    </g>
    <g id="ytick_3">
     <g id="line2d_10">
      <g>
       <use xlink:href="#mecf01a8940" x="21.87607" y="234.005233" style="stroke: #000000; stroke-width: 0.8"/>
      </g>
     </g>
     <g id="text_10">
      <!-- 2 -->
      <g transform="translate(8.51357 237.804452) scale(0.1 -0.1)">
       <use xlink:href="#DejaVuSans-32"/>
      </g>
     </g>
    </g>
    <g id="ytick_4">
     <g id="line2d_11">
      <g>
       <use xlink:href="#mecf01a8940" x="21.87607" y="197.117109" style="stroke: #000000; stroke-width: 0.8"/>
      </g>
     </g>
     <g id="text_11">
      <!-- 3 -->
      <g transform="translate(8.51357 200.916328) scale(0.1 -0.1)">
       <use xlink:href="#DejaVuSans-33"/>
      </g>
     </g>
    </g>
    <g id="ytick_5">
     <g id="line2d_12">
      <g>
       <use xlink:href="#mecf01a8940" x="21.87607" y="160.228986" style="stroke: #000000; stroke-width: 0.8"/>
      </g>
     </g>
     <g id="text_12">
      <!-- 4 -->
      <g transform="translate(8.51357 164.028205) scale(0.1 -0.1)">
       <defs>
        <path id="DejaVuSans-34" d="M 2419 4116 
L 825 1625 
L 2419 1625 
L 2419 4116 
z
M 2253 4666 
L 3047 4666 
L 3047 1625 
L 3713 1625 
L 3713 1100 
L 3047 1100 
L 3047 0 
L 2419 0 
L 2419 1100 
L 313 1100 
L 313 1709 
L 2253 4666 
z
" transform="scale(0.015625)"/>
       </defs>
       <use xlink:href="#DejaVuSans-34"/>
      </g>
     </g>
    </g>
    <g id="ytick_6">
     <g id="line2d_13">
      <g>
       <use xlink:href="#mecf01a8940" x="21.87607" y="123.340862" style="stroke: #000000; stroke-width: 0.8"/>
      </g>
     </g>
     <g id="text_13">
      <!-- 5 -->
      <g transform="translate(8.51357 127.140081) scale(0.1 -0.1)">
       <use xlink:href="#DejaVuSans-35"/>
      </g>
     </g>
    </g>
    <g id="ytick_7">
     <g id="line2d_14">
      <g>
       <use xlink:href="#mecf01a8940" x="21.87607" y="86.452739" style="stroke: #000000; stroke-width: 0.8"/>
      </g>
     </g>
     <g id="text_14">
      <!-- 6 -->
      <g transform="translate(8.51357 90.251957) scale(0.1 -0.1)">
       <defs>
        <path id="DejaVuSans-36" d="M 2113 2584 
Q 1688 2584 1439 2293 
Q 1191 2003 1191 1497 
Q 1191 994 1439 701 
Q 1688 409 2113 409 
Q 2538 409 2786 701 
Q 3034 994 3034 1497 
Q 3034 2003 2786 2293 
Q 2538 2584 2113 2584 
z
M 3366 4563 
L 3366 3988 
Q 3128 4100 2886 4159 
Q 2644 4219 2406 4219 
Q 1781 4219 1451 3797 
Q 1122 3375 1075 2522 
Q 1259 2794 1537 2939 
Q 1816 3084 2150 3084 
Q 2853 3084 3261 2657 
Q 3669 2231 3669 1497 
Q 3669 778 3244 343 
Q 2819 -91 2113 -91 
Q 1303 -91 875 529 
Q 447 1150 447 2328 
Q 447 3434 972 4092 
Q 1497 4750 2381 4750 
Q 2619 4750 2861 4703 
Q 3103 4656 3366 4563 
z
" transform="scale(0.015625)"/>
       </defs>
       <use xlink:href="#DejaVuSans-36"/>
      </g>
     </g>
    </g>
    <g id="ytick_8">
     <g id="line2d_15">
      <g>
       <use xlink:href="#mecf01a8940" x="21.87607" y="49.564615" style="stroke: #000000; stroke-width: 0.8"/>
      </g>
     </g>
     <g id="text_15">
      <!-- 7 -->
      <g transform="translate(8.51357 53.363834) scale(0.1 -0.1)">
       <use xlink:href="#DejaVuSans-37"/>
      </g>
     </g>
    </g>
   </g>
   <g id="line2d_16">
    <path d="M 52.9115 36.284891 
L 53.117761 37.668195 
L 53.255269 38.405958 
L 53.530284 39.789262 
L 54.286575 43.478075 
L 54.355328 43.570295 
L 54.56159 44.769159 
L 55.042866 46.336904 
L 56.005418 50.486818 
L 56.280433 51.870123 
L 56.349186 51.962343 
L 56.761709 54.175631 
L 56.96797 54.913393 
L 57.242985 56.296698 
L 57.518 55.558935 
L 58.755567 61.737696 
L 58.82432 61.737696 
L 59.030581 63.02878 
L 59.168089 63.489882 
L 59.443104 65.057627 
L 60.199395 68.377558 
L 60.543163 70.037524 
L 61.505716 73.910777 
L 61.711977 73.449675 
L 61.918238 73.818556 
L 62.193253 71.328608 
L 62.399514 70.590846 
L 62.468268 70.683066 
L 62.605775 70.221964 
L 62.812036 70.129744 
L 63.018297 69.760863 
L 63.087051 69.945303 
L 63.155805 69.945303 
L 63.224559 69.576422 
L 63.293312 69.760863 
L 63.362066 69.484202 
L 63.43082 69.760863 
L 63.499573 69.576422 
L 63.568327 69.668643 
L 63.637081 69.760863 
L 63.705835 69.299761 
L 63.774588 69.391982 
L 63.843342 69.391982 
L 63.912096 69.576422 
L 63.98085 69.484202 
L 64.187111 69.576422 
L 64.255864 69.576422 
L 64.324618 69.391982 
L 64.393372 69.576422 
L 64.462126 69.484202 
L 64.530879 69.484202 
L 64.599633 69.115321 
L 64.668387 69.484202 
L 64.874648 69.0231 
L 64.943402 69.0231 
L 65.562185 67.547575 
L 65.630939 67.639796 
L 65.699693 67.086474 
L 65.768446 67.178694 
L 66.043461 66.440932 
L 66.180969 66.440932 
L 66.593491 65.518729 
L 66.868506 65.79539 
L 66.93726 65.057627 
L 67.006013 65.426508 
L 67.349782 65.426508 
L 67.418536 65.242068 
L 67.487289 65.334288 
L 67.556043 65.426508 
L 67.624797 65.242068 
L 67.693551 65.426508 
L 67.831058 65.242068 
L 67.968565 65.334288 
L 68.037319 65.057627 
L 68.24358 65.334288 
L 68.587349 65.610949 
L 68.656103 65.518729 
L 68.862364 65.97983 
L 68.931118 65.79539 
L 68.999871 66.07205 
L 69.068625 65.97983 
L 69.34364 66.440932 
L 69.412394 66.348711 
L 69.549901 66.533152 
L 69.618655 66.533152 
L 69.756162 66.809813 
L 69.824916 66.717593 
L 70.099931 67.270915 
L 70.237438 67.270915 
L 70.374946 67.639796 
L 70.443699 67.455355 
L 70.512453 67.824236 
L 70.581207 67.639796 
L 70.718714 68.008677 
L 70.787468 68.377558 
L 70.856222 68.285338 
L 71.062483 68.654219 
L 71.19999 68.654219 
L 71.268744 68.93088 
L 71.337498 68.746439 
L 71.543759 69.391982 
L 71.612513 69.299761 
L 71.818774 69.945303 
L 71.887528 69.760863 
L 72.575065 71.420828 
L 72.643819 71.420828 
L 72.85008 72.343031 
L 72.918833 72.066371 
L 73.056341 72.435252 
L 73.125095 72.527472 
L 73.331356 73.449675 
L 73.743878 74.464099 
L 73.950139 75.478522 
L 74.225154 76.400725 
L 74.293908 76.400725 
L 74.362662 76.585166 
L 74.500169 77.230708 
L 75.25646 79.536216 
L 75.462721 80.273978 
L 76.219012 82.948367 
L 76.287766 82.948367 
L 77.319072 86.82162 
L 77.387825 86.82162 
L 77.66284 87.928264 
L 77.937855 88.850467 
L 78.556639 91.063754 
L 78.625392 91.063754 
L 78.900407 92.078178 
L 79.037915 92.447059 
L 79.31293 93.184821 
L 79.381683 92.81594 
L 79.587945 93.369262 
L 79.931713 94.014804 
L 80.412989 95.213668 
L 80.481743 95.85921 
L 80.550497 95.305888 
L 80.756758 96.320312 
L 81.16928 97.150295 
L 81.375541 97.611396 
L 81.581803 98.164718 
L 81.650556 98.072498 
L 81.71931 97.980277 
L 81.925571 98.441379 
L 81.994325 98.349159 
L 82.131832 98.90248 
L 82.200586 98.625819 
L 82.613108 99.548023 
L 82.681862 99.455802 
L 82.81937 99.732463 
L 83.369399 100.470226 
L 83.506907 100.285785 
L 83.644414 100.839107 
L 83.713168 100.562446 
L 83.850675 100.746887 
L 83.919429 100.746887 
L 84.263198 101.392429 
L 84.400705 101.207988 
L 84.538213 101.484649 
L 84.744474 101.392429 
L 85.019489 101.484649 
L 85.088242 101.207988 
L 85.22575 101.576869 
L 85.294504 101.484649 
L 85.363257 101.66909 
L 85.432011 101.576869 
L 85.707026 101.76131 
L 85.77578 101.66909 
L 85.844533 101.76131 
L 86.119548 101.945751 
L 86.188302 101.85353 
L 86.257056 101.945751 
L 86.600824 102.037971 
L 86.738332 102.222412 
L 86.807085 102.037971 
L 86.944593 102.499072 
L 87.013347 102.222412 
L 87.150854 102.499072 
L 87.219608 102.499072 
L 87.288362 102.314632 
L 87.494623 102.591293 
L 87.563376 102.314632 
L 87.63213 102.499072 
L 87.700884 102.406852 
L 87.769638 102.314632 
L 87.838391 102.406852 
L 87.907145 102.591293 
L 87.975899 102.499072 
L 88.044652 102.499072 
L 88.113406 102.314632 
L 88.18216 102.683513 
L 88.250914 102.314632 
L 88.319667 102.406852 
L 88.457175 102.314632 
L 88.594682 102.406852 
L 88.800943 102.222412 
L 88.869697 102.499072 
L 88.938451 102.130191 
L 89.007205 102.314632 
L 89.28222 101.945751 
L 89.350973 102.222412 
L 89.419727 102.130191 
L 89.625988 101.85353 
L 90.932309 100.285785 
L 91.001063 100.285785 
L 91.13857 99.824684 
L 91.276077 99.824684 
L 91.344831 99.455802 
L 91.413585 99.548023 
L 92.032368 98.81026 
L 92.101122 99.086921 
L 92.307383 98.625819 
L 92.376137 98.81026 
L 92.444891 98.441379 
L 92.513644 98.533599 
L 92.651152 98.349159 
L 92.719906 98.533599 
L 92.994921 97.980277 
L 93.201182 98.072498 
L 93.269935 97.888057 
L 93.338689 97.980277 
L 93.407443 97.980277 
L 93.476197 98.256938 
L 93.682458 97.980277 
L 93.888719 97.888057 
L 94.026226 97.703616 
L 94.369995 97.703616 
L 94.438749 97.980277 
L 94.507502 97.703616 
L 94.713764 98.256938 
L 94.782517 98.164718 
L 94.851271 98.072498 
L 95.126286 98.533599 
L 95.951331 99.548023 
L 96.020084 99.455802 
L 96.363853 100.470226 
L 97.188898 102.960174 
L 98.426465 108.216732 
L 99.114002 112.182205 
L 99.182756 112.366645 
L 99.45777 114.118831 
L 100.076554 117.992084 
L 101.039106 123.801964 
L 101.10786 123.986404 
L 101.382875 125.64637 
L 102.276673 130.902928 
L 102.345427 130.995148 
L 102.620442 132.470673 
L 102.826703 133.208435 
L 103.239225 135.237282 
L 104.6143 142.061585 
L 104.889315 143.44489 
L 105.439344 146.395939 
L 108.945784 164.747781 
L 109.152045 165.577764 
L 109.702075 167.975492 
L 110.183351 170.280999 
L 110.52712 172.033185 
L 110.664627 172.402067 
L 110.939642 173.785371 
L 111.558426 176.55198 
L 111.695933 177.197523 
L 111.902194 178.304166 
L 112.039702 178.673048 
L 112.245963 179.779691 
L 112.452224 180.609674 
L 113.277269 184.482927 
L 113.346022 184.575147 
L 115.271127 194.3505 
L 116.508694 199.607058 
L 116.852462 201.267023 
L 116.98997 201.728125 
L 117.264985 203.019209 
L 117.402492 203.38809 
L 117.746261 204.955836 
L 118.227537 206.892462 
L 118.777567 203.480311 
L 118.983828 198.408194 
L 119.39635 192.229433 
L 119.808872 188.540621 
L 120.290148 185.958452 
L 120.977686 182.822961 
L 121.390208 180.240793 
L 121.80273 177.474183 
L 122.696529 169.635457 
L 123.315312 163.272256 
L 124.896648 151.375836 
L 125.927954 147.410363 
L 125.996707 147.502583 
L 126.134215 146.949261 
L 126.202969 147.041482 
L 126.477984 146.857041 
L 126.684245 146.857041 
L 126.890506 147.133702 
L 126.95926 147.225922 
L 127.028013 147.594803 
L 127.096767 147.502583 
L 127.440536 148.055905 
L 127.646797 148.609227 
L 128.471841 150.914735 
L 128.540595 151.468056 
L 128.609349 151.375836 
L 128.953118 152.39026 
L 129.090625 152.66692 
L 129.228132 153.035802 
L 129.296886 152.943581 
L 129.434394 153.220242 
L 129.91567 153.681344 
L 129.984423 153.681344 
L 130.121931 153.958005 
L 130.259438 153.865784 
L 130.328192 154.050225 
L 130.396946 153.958005 
L 130.465699 154.050225 
L 130.534453 153.958005 
L 130.603207 153.865784 
L 130.671961 154.050225 
L 130.740714 153.958005 
L 130.878222 153.958005 
L 131.084483 153.589124 
L 131.153237 153.589124 
L 131.22199 153.404683 
L 131.290744 153.496903 
L 131.359498 153.404683 
L 131.428252 153.589124 
L 131.497005 153.404683 
L 131.565759 153.496903 
L 133.078341 153.496903 
L 133.353356 153.958005 
L 133.42211 154.050225 
L 133.559617 154.511327 
L 133.628371 154.511327 
L 133.903386 155.064648 
L 134.040893 154.972428 
L 134.590923 155.802411 
L 134.797184 156.355733 
L 136.516027 161.243409 
L 137.68484 165.577764 
L 137.753594 165.577764 
L 138.028609 166.776628 
L 138.166116 167.145509 
L 138.647392 169.174356 
L 138.7849 169.543237 
L 139.266176 171.203202 
L 139.403683 171.479863 
L 140.778758 176.736421 
L 140.916265 177.105302 
L 141.397541 178.673048 
L 141.947571 181.624097 
L 145.385257 199.514837 
L 146.004041 201.635904 
L 146.554071 203.38809 
L 146.829085 204.402514 
L 147.172854 205.324717 
L 147.241608 205.232496 
L 147.310362 204.955836 
L 147.791638 205.970259 
L 148.135406 206.43136 
L 148.341667 205.693598 
L 149.510481 204.310293 
L 149.785496 204.586954 
L 149.923003 204.494734 
L 150.129264 204.771395 
L 150.335525 204.863615 
L 150.404279 204.863615 
L 150.473033 205.140276 
L 150.61054 204.863615 
L 151.023063 204.494734 
L 151.16057 204.402514 
L 151.229324 204.125853 
L 151.298077 204.218073 
L 151.366831 204.125853 
L 151.435585 204.218073 
L 151.779353 204.125853 
L 151.848107 203.941412 
L 151.916861 204.033632 
L 152.26063 203.38809 
L 152.604398 202.097006 
L 153.085674 199.791498 
L 153.498197 197.30155 
L 154.391995 190.569467 
L 154.735764 188.079519 
L 154.942025 186.880655 
L 155.560808 183.284063 
L 155.698316 182.730741 
L 156.110838 181.070776 
L 156.660868 179.871912 
L 157.142144 179.134149 
L 157.279651 178.765268 
L 158.448465 177.289743 
L 158.517218 177.381963 
L 158.792233 176.920862 
L 159.136002 176.275319 
L 159.686032 175.076455 
L 159.754785 175.168676 
L 159.961046 174.523134 
L 160.098554 174.154252 
L 160.442323 172.863168 
L 162.161166 165.669984 
L 162.504934 164.102239 
L 162.779949 163.180036 
L 163.261225 162.073392 
L 163.329979 162.073392 
L 163.53624 161.61229 
L 163.880009 160.966748 
L 164.223777 160.874528 
L 164.292531 160.782308 
L 164.361285 160.874528 
L 164.430038 160.874528 
L 164.705053 161.52007 
L 164.773807 161.42785 
L 164.980068 162.073392 
L 165.736359 164.286679 
L 167.523956 176.920862 
L 168.486508 186.880655 
L 170.205351 208.921309 
L 171.305411 223.676558 
L 173.50553 249.037143 
L 175.086865 262.870189 
L 178.662059 286.294148 
L 178.730813 286.386368 
L 179.212089 288.876316 
L 180.312148 294.225094 
L 182.581021 303.354905 
L 182.649775 303.262685 
L 182.718529 302.248261 
L 182.787282 302.617142 
L 182.856036 302.617142 
L 183.268559 304.000447 
L 184.024849 307.504819 
L 184.506126 309.072564 
L 184.574879 309.072564 
L 184.849894 290.628502 
L 185.056155 289.060757 
L 185.33117 291.642926 
L 186.018707 300.588296 
L 186.98126 307.504819 
L 187.668797 309.902547 
L 187.875058 310.363648 
L 188.012565 310.73253 
L 188.768856 310.640309 
L 188.975117 310.086988 
L 189.318886 309.533666 
L 189.38764 309.164784 
L 189.593901 306.859277 
L 189.731408 306.582616 
L 189.800162 306.674836 
L 189.868916 306.582616 
L 190.693961 305.291531 
L 190.968975 304.83043 
L 191.450252 295.516179 
L 191.656513 294.501755 
L 191.79402 294.132874 
L 192.000281 294.040654 
L 192.206542 293.395112 
L 192.34405 293.302891 
L 192.412804 293.210671 
L 192.481557 293.302891 
L 192.687819 293.395112 
L 192.89408 292.749569 
L 193.100341 292.288468 
L 193.169095 292.011807 
L 193.375356 290.351841 
L 193.719124 288.691876 
L 194.406662 285.648606 
L 194.681676 281.959793 
L 194.819184 281.590912 
L 194.887938 281.590912 
L 195.644229 279.377625 
L 196.813042 272.645542 
L 198.463131 256.138107 
L 200.181974 238.524028 
L 201.419541 232.345267 
L 201.488295 232.253047 
L 201.832064 230.961963 
L 202.588355 227.642031 
L 203.344646 222.016593 
L 204.032183 213.808985 
L 207.469869 160.136765 
L 207.951145 156.079072 
L 208.501175 152.39026 
L 208.844943 150.822514 
L 208.913697 150.914735 
L 209.051205 150.638074 
L 209.188712 150.730294 
L 209.463727 151.283616 
L 209.876249 152.5747 
L 210.63254 157.093495 
L 212.832659 178.673048 
L 214.482749 197.48599 
L 215.23904 203.111429 
L 215.307793 203.111429 
L 215.376547 203.29587 
L 215.789069 200.43704 
L 215.926577 199.699278 
L 218.745479 170.46544 
L 219.020494 168.805474 
L 219.433017 167.975492 
L 219.570524 167.883271 
L 219.914293 168.436593 
L 220.395569 170.649881 
L 220.670584 173.047609 
L 221.358121 181.347436 
L 223.283225 208.183546 
L 224.10827 216.114493 
L 224.727053 219.618865 
L 225.070822 220.633288 
L 225.483344 221.555491 
L 225.96462 221.463271 
L 226.033374 221.37105 
L 226.308389 220.448847 
L 226.652158 219.803305 
L 226.858419 219.249983 
L 227.06468 218.881102 
L 227.408449 217.866679 
L 227.477202 217.958899 
L 228.577262 213.163443 
L 229.333553 208.552428 
L 230.158597 203.756971 
L 230.296105 203.20365 
L 230.846135 200.805922 
L 230.914888 200.805922 
L 231.189903 199.699278 
L 231.946194 197.854872 
L 232.014948 198.131533 
L 232.152455 197.670431 
L 232.289963 197.762651 
L 232.496224 196.563787 
L 232.633731 196.748228 
L 232.839993 196.748228 
L 232.908746 196.932669 
L 232.9775 196.840448 
L 233.046254 196.840448 
L 233.183761 197.024889 
L 233.321269 197.117109 
L 233.52753 197.762651 
L 233.940052 199.053736 
L 234.627589 202.281447 
L 234.833851 203.111429 
L 235.38388 205.601378 
L 235.521388 206.1547 
L 237.171477 215.561171 
L 237.652753 219.157763 
L 238.821566 226.350947 
L 239.371596 228.933116 
L 239.715365 230.685302 
L 239.99038 231.699725 
L 240.196641 232.437488 
L 240.265395 232.253047 
L 240.402902 229.763099 
L 240.677917 230.685302 
L 240.815424 231.146403 
L 240.952932 230.685302 
L 241.021686 230.13198 
L 241.365454 215.468951 
L 241.709223 209.38241 
L 241.915484 208.091326 
L 242.190499 207.814665 
L 242.671775 208.460207 
L 242.809282 208.183546 
L 242.878036 208.183546 
L 243.359312 206.708021 
L 244.046849 202.465887 
L 244.321864 199.975939 
L 245.009402 191.49167 
L 246.246969 174.707574 
L 247.484536 163.180036 
L 247.965812 148.609227 
L 248.378334 142.707127 
L 248.584595 141.877144 
L 248.790856 142.338246 
L 249.065871 143.813771 
L 251.128483 162.257833 
L 252.984833 173.969812 
L 253.534863 176.55198 
L 254.016139 178.673048 
L 254.2224 179.50303 
L 254.566169 180.517454 
L 254.909938 180.056352 
L 255.459967 177.658624 
L 256.285012 175.260896 
L 256.697534 173.600931 
L 256.903796 172.770948 
L 257.591333 170.280999 
L 258.141363 169.451017 
L 258.210116 169.082135 
L 258.27887 169.358796 
L 258.485131 169.082135 
L 258.691392 169.451017 
L 258.8289 169.266576 
L 259.103915 169.819898 
L 259.585191 171.387643 
L 259.997713 173.047609 
L 260.478989 175.260896 
L 260.616497 173.600931 
L 260.68525 173.693151 
L 260.960265 175.260896 
L 261.441541 176.828641 
L 261.647802 177.013082 
L 261.716556 176.920862 
L 261.78531 177.013082 
L 261.854064 177.013082 
L 262.060325 176.090879 
L 262.129079 175.814218 
L 262.197832 175.998659 
L 262.541601 174.984235 
L 262.747862 174.615354 
L 263.022877 173.877591 
L 263.297892 172.863168 
L 263.572907 171.940965 
L 263.64166 171.848745 
L 263.916675 170.742101 
L 264.260444 169.635457 
L 264.604213 167.51439 
L 264.879227 166.038865 
L 265.635518 160.505647 
L 265.979287 157.185716 
L 267.1481 147.225922 
L 269.623234 129.888504 
L 270.10451 125.185268 
L 270.998309 115.502136 
L 271.20457 113.288849 
L 271.617092 108.677833 
L 272.098368 103.974597 
L 273.06092 98.164718 
L 273.129674 98.164718 
L 273.542196 97.242515 
L 273.885965 97.888057 
L 273.954719 97.888057 
L 274.16098 98.349159 
L 274.367241 98.625819 
L 274.642256 99.548023 
L 274.71101 99.548023 
L 275.054778 101.207988 
L 275.123532 101.392429 
L 275.398547 102.960174 
L 275.536054 99.271362 
L 277.461159 114.026611 
L 277.529912 114.211052 
L 277.942435 117.162102 
L 278.836233 123.801964 
L 279.592524 129.888504 
L 280.211308 135.329502 
L 280.486322 138.188332 
L 281.311367 144.182652 
L 281.998904 146.58038 
L 282.273919 146.48816 
L 282.617688 145.012635 
L 283.648994 134.407299 
L 284.267777 126.199692 
L 285.161576 118.453186 
L 285.780359 116.977661 
L 286.261635 118.545406 
L 286.674158 121.219795 
L 287.499202 131.179588 
L 289.011784 157.277936 
L 290.936888 193.889398 
L 291.89944 207.906885 
L 292.724485 213.808985 
L 292.9995 214.177866 
L 293.068254 214.085646 
L 293.343269 213.993426 
L 293.54953 213.071223 
L 293.824545 209.843512 
L 294.168313 207.538004 
L 294.580836 206.24692 
L 294.718343 205.970259 
L 294.924604 205.324717 
L 295.543388 204.310293 
L 295.95591 202.926989 
L 296.437186 200.805922 
L 296.712201 199.238176 
L 297.262231 197.39377 
L 297.330985 197.39377 
L 297.537246 196.748228 
L 297.605999 196.840448 
L 297.743507 196.656008 
L 297.949768 196.656008 
L 298.36229 197.854872 
L 299.531104 206.43136 
L 300.424902 215.837832 
L 301.181193 223.676558 
L 302.762529 239.815112 
L 302.900036 240.921756 
L 304.893894 258.720276 
L 306.337722 266.0979 
L 306.406476 266.0979 
L 306.543983 266.743442 
L 307.094013 269.786713 
L 307.300274 270.616695 
L 307.575289 271.538898 
L 308.606595 275.412151 
L 308.675349 275.412151 
L 308.88161 275.873253 
L 309.569147 276.979897 
L 309.775408 277.256558 
L 309.844162 277.256558 
L 310.050423 277.533219 
L 310.119177 277.440998 
L 310.187931 277.533219 
L 310.875468 277.440998 
L 311.012975 277.164337 
L 311.081729 277.256558 
L 311.150483 277.164337 
L 311.563005 276.703236 
L 311.631759 276.795456 
L 311.700513 276.703236 
L 311.83802 276.426575 
L 311.975528 276.426575 
L 312.319296 275.688812 
L 312.38805 275.688812 
L 313.075587 274.028847 
L 313.144341 274.028847 
L 313.350602 273.106644 
L 313.419356 273.014423 
L 313.763124 271.631119 
L 313.900632 271.077797 
L 314.588169 267.020103 
L 314.656923 266.835663 
L 314.931938 264.991257 
L 315.069445 264.253494 
L 315.550721 260.656902 
L 315.688229 259.734699 
L 316.582027 253.463718 
L 316.857042 248.944923 
L 316.994549 248.11494 
L 317.338318 244.518348 
L 317.888348 240.368434 
L 318.094609 239.26179 
L 318.507131 236.771842 
L 320.638497 223.215457 
L 321.051019 221.463271 
L 321.326034 219.249983 
L 321.463541 218.881102 
L 321.532295 218.973322 
L 321.944817 218.512221 
L 322.151078 218.788882 
L 322.563601 218.881102 
L 322.907369 219.526644 
L 323.113631 220.264407 
L 323.388645 221.18661 
L 324.144936 223.953219 
L 324.282444 224.22988 
L 324.832474 226.627608 
L 326.551317 233.17525 
L 326.963839 234.097453 
L 327.032593 234.097453 
L 327.1701 234.374114 
L 327.238854 234.374114 
L 327.376361 234.650775 
L 327.445115 234.558555 
L 327.582623 234.742995 
L 327.857637 234.742995 
L 327.995145 235.019656 
L 328.201406 235.111876 
L 328.407667 234.835216 
L 328.751436 234.189673 
L 329.989003 230.777522 
L 330.264018 229.578658 
L 331.295324 225.244303 
L 331.570338 223.676558 
L 331.914107 222.662135 
L 332.120368 222.201033 
L 332.739152 220.817729 
L 332.876659 220.909949 
L 332.945413 220.725508 
L 333.014167 220.909949 
L 333.08292 220.817729 
L 333.151674 220.817729 
L 333.357935 221.09439 
L 333.495443 221.18661 
L 333.839211 221.832152 
L 334.114226 222.385474 
L 334.73301 225.244303 
L 335.076778 227.642031 
L 336.314345 238.339587 
L 337.483159 251.15821 
L 340.164554 278.824303 
L 340.508322 281.775353 
L 341.19586 287.216351 
L 341.402121 288.876316 
L 342.50218 295.608399 
L 342.777195 297.083924 
L 343.327225 300.034974 
L 343.877255 302.524922 
L 345.45859 307.043717 
L 345.527344 306.859277 
L 345.596098 306.398175 
L 345.802359 303.078244 
L 346.146128 296.622822 
L 346.764911 284.265301 
L 347.039926 281.314251 
L 347.383695 280.207607 
L 347.589956 280.760929 
L 347.65871 280.85315 
L 348.002478 282.420895 
L 348.758769 285.925267 
L 349.033784 286.478588 
L 349.51506 288.046334 
L 349.721321 288.784096 
L 352.402716 302.617142 
L 353.57153 306.951497 
L 353.984052 308.242581 
L 354.327821 309.533666 
L 354.671589 310.548089 
L 354.877851 311.378072 
L 355.152865 311.839173 
L 355.290373 312.208055 
L 355.840403 312.945817 
L 355.97791 313.314698 
L 356.252925 313.314698 
L 356.459186 313.68358 
L 356.802955 313.591359 
L 357.07797 312.576936 
L 357.559246 311.378072 
L 357.765507 307.135938 
L 357.971768 305.475972 
L 358.728059 300.957177 
L 358.865566 300.496075 
L 359.690611 294.225094 
L 360.171887 288.046334 
L 360.653163 279.562065 
L 363.265805 225.613185 
L 364.090849 209.474631 
L 364.297111 202.558107 
L 364.572125 194.073839 
L 365.053401 186.603994 
L 365.740939 179.31859 
L 366.703491 174.523134 
L 366.978506 173.969812 
L 367.116013 173.693151 
L 367.253521 173.877591 
L 367.459782 173.785371 
L 367.734797 174.246473 
L 367.80355 173.969812 
L 367.941058 172.586507 
L 369.109871 175.445337 
L 369.178625 175.537557 
L 369.591147 177.381963 
L 369.659901 177.289743 
L 370.00367 178.765268 
L 370.072423 178.673048 
L 370.347438 179.41081 
L 370.75996 180.240793 
L 370.828714 180.333013 
L 371.034975 180.978555 
L 371.516251 182.177419 
L 371.585005 182.085199 
L 371.791266 182.45408 
L 371.928774 182.36186 
L 372.066281 182.638521 
L 372.135035 182.5463 
L 372.203789 182.638521 
L 372.341296 182.822961 
L 372.478804 182.822961 
L 373.578863 186.050672 
L 373.922632 187.433977 
L 373.991385 187.526197 
L 374.403908 189.555044 
L 374.541415 190.016145 
L 374.885184 191.583891 
L 375.160199 192.598314 
L 375.228952 192.690534 
L 375.503967 193.704958 
L 375.641475 193.981619 
L 375.847736 194.534941 
L 376.053997 194.903822 
L 376.329012 195.641584 
L 376.397766 195.549364 
L 376.672781 196.010466 
L 376.947796 196.194906 
L 377.016549 196.194906 
L 377.085303 196.379347 
L 377.154057 196.194906 
L 377.291564 196.379347 
L 377.566579 196.471567 
L 377.910348 196.748228 
L 378.047855 196.748228 
L 378.116609 197.024889 
L 378.185363 196.748228 
L 378.32287 197.024889 
L 378.529131 196.932669 
L 378.666639 197.117109 
L 378.735392 197.024889 
L 378.941653 197.30155 
L 379.010407 197.30155 
L 379.147915 197.578211 
L 379.904206 198.777075 
L 380.247974 199.422617 
L 380.591743 199.975939 
L 381.210526 202.189226 
L 381.27928 202.189226 
L 381.82931 204.125853 
L 381.966817 204.402514 
L 383.341892 209.659071 
L 383.410645 209.566851 
L 383.68566 210.027952 
L 383.891922 210.489054 
L 384.78572 212.702341 
L 384.923227 212.794562 
L 385.129489 213.071223 
L 385.198242 212.979002 
L 385.542011 212.886782 
L 385.610765 212.702341 
L 385.679518 212.794562 
L 385.748272 212.794562 
L 385.817026 212.610121 
L 385.885779 212.702341 
L 386.023287 212.33346 
L 386.917085 209.659071 
L 387.260854 208.367987 
L 387.74213 206.800242 
L 388.979697 203.572531 
L 389.048451 203.664751 
L 389.254712 203.38809 
L 389.323466 203.38809 
L 389.460973 203.20365 
L 389.529727 203.20365 
L 389.667234 202.650328 
L 389.942249 202.558107 
L 390.011003 202.373667 
L 390.14851 202.650328 
L 390.354771 202.558107 
L 390.561033 202.650328 
L 390.767294 202.558107 
L 391.042309 202.004786 
L 391.111062 202.189226 
L 391.317324 202.373667 
L 391.386077 202.281447 
L 391.454831 202.373667 
L 391.729846 202.373667 
L 391.867353 202.650328 
L 392.073615 202.650328 
L 392.142368 202.834768 
L 392.211122 202.650328 
L 392.279876 202.834768 
L 392.348629 202.650328 
L 392.417383 202.742548 
L 392.486137 202.742548 
L 392.761152 202.281447 
L 393.10492 201.635904 
L 393.586196 200.068159 
L 393.998719 196.656008 
L 394.067472 196.471567 
L 394.342487 194.996042 
L 395.167532 190.938349 
L 395.236286 190.938349 
L 395.442547 189.923925 
L 395.511301 190.016145 
L 395.786316 189.186163 
L 395.855069 189.186163 
L 396.130084 188.632841 
L 396.267592 188.725061 
L 396.542606 188.4484 
L 396.680114 188.632841 
L 396.748868 188.171739 
L 396.817621 188.35618 
L 397.023883 188.4484 
L 397.092636 188.540621 
L 397.16139 188.26396 
L 397.436405 189.001722 
L 397.505159 188.817281 
L 397.71142 189.093942 
L 397.848927 189.278383 
L 397.917681 189.093942 
L 397.986435 189.370603 
L 398.055188 189.278383 
L 398.192696 189.278383 
L 398.26145 189.555044 
L 398.330203 189.370603 
L 398.398957 189.647264 
L 398.467711 189.462824 
L 398.536464 189.555044 
L 398.605218 189.555044 
L 398.811479 189.831705 
L 398.948987 189.739485 
L 399.017741 190.016145 
L 399.086494 189.923925 
L 399.361509 190.385027 
L 399.430263 190.477247 
L 399.499017 190.846128 
L 399.56777 190.477247 
L 399.705278 190.846128 
L 399.911539 190.938349 
L 400.255308 191.215009 
L 400.392815 191.30723 
L 400.530322 191.583891 
L 400.599076 191.49167 
L 401.080352 192.598314 
L 401.21786 192.690534 
L 401.286613 192.967195 
L 401.355367 192.782755 
L 401.561628 193.151636 
L 401.630382 193.151636 
L 401.836643 193.520517 
L 401.905397 193.428297 
L 401.974151 193.520517 
L 402.249165 193.981619 
L 402.386673 194.073839 
L 402.661688 194.903822 
L 402.936703 195.364923 
L 403.07421 195.641584 
L 403.211718 195.733805 
L 403.555486 196.287126 
L 403.761747 196.748228 
L 404.311777 197.670431 
L 404.449285 197.947092 
L 404.518038 197.854872 
L 404.793053 198.315973 
L 404.861807 198.315973 
L 404.999314 198.500414 
L 405.068068 198.500414 
L 405.136822 198.684855 
L 405.205576 198.500414 
L 405.274329 198.592634 
L 405.48059 198.592634 
L 405.618098 198.869295 
L 405.824359 198.961515 
L 406.58065 198.869295 
L 406.855665 198.500414 
L 406.924419 198.684855 
L 406.993172 198.315973 
L 407.061926 198.592634 
L 407.199434 198.223753 
L 407.268187 198.408194 
L 407.405695 198.039312 
L 407.474448 198.131533 
L 407.543202 198.039312 
L 407.611956 197.854872 
L 407.68071 197.947092 
L 408.574508 196.563787 
L 408.780769 196.287126 
L 408.849523 196.287126 
L 409.055784 195.733805 
L 409.53706 194.903822 
L 410.774627 191.768331 
L 410.843381 191.860552 
L 411.118396 191.030569 
L 411.187149 191.122789 
L 411.393411 190.569467 
L 411.462164 190.661688 
L 411.737179 189.739485 
L 411.874687 189.647264 
L 412.837239 188.35618 
L 412.905993 188.540621 
L 412.974746 188.171739 
L 413.0435 188.35618 
L 413.937298 187.157316 
L 414.006052 187.433977 
L 414.14356 187.157316 
L 414.349821 187.249536 
L 414.418574 186.788435 
L 414.487328 186.880655 
L 415.312373 185.589571 
L 415.862403 184.114046 
L 415.931156 184.206266 
L 415.99991 184.114046 
L 416.274925 183.007402 
L 417.031216 180.240793 
L 417.09997 180.148572 
L 417.374984 178.580827 
L 417.718753 177.474183 
L 418.200029 175.353116 
L 418.268783 175.260896 
L 418.612551 173.693151 
L 419.300089 171.940965 
L 419.368842 172.033185 
L 419.437596 171.664304 
L 419.50635 171.756524 
L 419.575104 171.756524 
L 419.781365 171.479863 
L 419.918872 171.295423 
L 419.987626 171.479863 
L 420.05638 171.387643 
L 420.675163 172.402067 
L 421.225193 174.984235 
L 421.775223 178.396387 
L 422.600267 187.157316 
L 423.150297 194.996042 
L 426.450476 250.604888 
L 426.794245 254.754802 
L 427.344274 258.166954 
L 428.169319 264.991257 
L 429.613147 273.936626 
L 430.78196 278.270981 
L 430.919468 278.270981 
L 431.400744 279.377625 
L 431.469498 279.377625 
L 431.813266 280.115387 
L 431.88202 280.115387 
L 431.950774 280.392048 
L 432.019527 280.299828 
L 432.500803 281.406471 
L 432.569557 281.406471 
L 432.844572 281.959793 
L 432.913326 281.959793 
L 433.119587 282.328675 
L 433.188341 282.328675 
L 433.669617 283.435318 
L 433.738371 283.435318 
L 434.082139 284.173081 
L 434.219647 284.265301 
L 434.563415 284.541962 
L 434.632169 284.541962 
L 434.83843 284.910843 
L 434.907184 284.910843 
L 435.250952 285.556385 
L 435.38846 285.556385 
L 435.457214 285.833046 
L 435.525967 285.740826 
L 435.732228 286.017487 
L 435.800982 286.017487 
L 435.93849 286.386368 
L 436.007243 286.294148 
L 436.075997 286.386368 
L 437.038549 287.493012 
L 437.176057 287.493012 
L 437.313564 287.769673 
L 437.79484 288.230774 
L 437.932348 288.230774 
L 438.069855 288.599656 
L 438.138609 288.507435 
L 439.169915 289.706299 
L 439.788698 289.706299 
L 439.926206 290.075181 
L 440.063713 290.075181 
L 440.338728 289.521859 
L 440.407482 289.706299 
L 440.476235 289.614079 
L 440.682497 289.429638 
L 440.820004 289.614079 
L 440.957511 289.429638 
L 441.026265 289.706299 
L 441.232526 288.876316 
L 441.782556 285.095284 
L 441.85131 284.910843 
L 442.195078 281.314251 
L 442.40134 280.115387 
L 442.745108 277.717659 
L 443.157631 274.305508 
L 443.776414 270.893356 
L 444.25769 268.864509 
L 445.082735 265.91346 
L 445.220242 265.544578 
L 447.2141 255.400344 
L 447.282854 255.400344 
L 448.039145 253.463718 
L 448.107899 253.555938 
L 448.245406 253.279277 
L 448.726682 253.371498 
L 448.86419 253.555938 
L 449.001697 253.648159 
L 449.207958 253.924819 
L 449.482973 254.478141 
L 449.757988 255.215904 
L 450.101757 256.414768 
L 451.27057 261.486885 
L 452.026861 266.0979 
L 452.920659 271.446678 
L 453.12692 272.461102 
L 453.401935 273.844406 
L 453.951965 276.979897 
L 454.089472 277.533219 
L 454.570748 279.746506 
L 454.639502 279.746506 
L 454.914517 281.03759 
L 455.464547 282.697556 
L 455.739562 283.711979 
L 456.358345 285.648606 
L 456.564606 286.201928 
L 456.702114 286.478588 
L 456.977129 287.493012 
L 457.458405 288.599656 
L 457.527159 288.599656 
L 457.73342 289.337418 
L 457.802173 289.337418 
L 457.939681 289.706299 
L 458.008435 289.706299 
L 458.214696 290.259621 
L 458.627218 291.181824 
L 458.695972 291.181824 
L 459.03974 292.196248 
L 459.246002 292.657349 
L 459.521017 293.118451 
L 459.727278 293.579552 
L 459.933539 294.132874 
L 460.002293 294.132874 
L 460.277307 294.962857 
L 460.346061 294.962857 
L 460.68983 295.97728 
L 460.964845 296.438382 
L 461.171106 297.083924 
L 461.23986 297.083924 
L 461.721136 298.190568 
L 461.927397 298.282788 
L 462.064904 298.559449 
L 462.202412 298.559449 
L 462.271165 298.92833 
L 462.339919 298.83611 
L 462.477427 298.92833 
L 462.683688 299.204991 
L 463.852501 300.957177 
L 463.990009 301.141618 
L 464.333777 301.233838 
L 464.471285 301.510499 
L 464.540038 301.418278 
L 464.608792 301.510499 
L 464.746299 301.602719 
L 464.952561 301.78716 
L 465.090068 301.694939 
L 465.365083 301.87938 
L 465.708852 301.87938 
L 465.846359 302.156041 
L 465.915113 302.063821 
L 465.983866 302.156041 
L 466.121374 302.248261 
L 466.190128 302.156041 
L 466.258881 302.248261 
L 466.671404 302.340482 
L 466.740157 302.432702 
L 466.877665 302.248261 
L 467.083926 302.340482 
L 467.290187 302.248261 
L 467.358941 302.340482 
L 467.427695 302.248261 
L 468.871523 302.248261 
L 469.00903 302.524922 
L 469.146538 302.432702 
L 469.284045 302.617142 
L 469.55906 302.617142 
L 469.696568 302.801583 
L 469.765321 302.709363 
L 469.834075 302.801583 
L 470.384105 303.354905 
L 471.277903 303.354905 
L 471.346657 303.539346 
L 471.415411 303.354905 
L 471.552918 303.631566 
L 471.621672 303.354905 
L 471.827933 303.908227 
L 472.171702 304.277108 
L 472.446716 304.092667 
L 472.652978 304.553769 
L 472.859239 304.461549 
L 472.996746 304.73821 
L 473.340515 305.107091 
L 473.409269 305.014871 
L 473.546776 305.199311 
L 473.890545 305.291531 
L 474.096806 305.568192 
L 474.578082 305.568192 
L 474.853097 306.029294 
L 474.92185 305.937074 
L 475.128112 306.398175 
L 475.334373 306.674836 
L 475.47188 306.674836 
L 475.678141 307.043717 
L 475.953156 307.043717 
L 476.02191 307.320378 
L 476.159417 307.043717 
L 476.296925 307.412599 
L 476.434432 307.412599 
L 476.503186 307.597039 
L 476.57194 307.504819 
L 476.778201 307.597039 
L 476.915708 307.78148 
L 477.328231 307.8737 
L 477.465738 308.150361 
L 477.534492 308.058141 
L 477.603246 308.150361 
L 478.909566 308.150361 
L 478.97832 307.96592 
L 479.047074 308.058141 
L 479.390842 307.78148 
L 479.734611 307.78148 
L 479.872118 307.412599 
L 480.009626 307.412599 
L 480.215887 307.689259 
L 480.284641 307.597039 
L 480.422148 307.78148 
L 482.759775 307.78148 
L 482.897282 307.96592 
L 482.966036 307.78148 
L 483.03479 307.8737 
L 483.103543 307.78148 
L 483.241051 308.150361 
L 483.309805 307.96592 
L 483.516066 308.242581 
L 483.584819 308.150361 
L 483.653573 308.242581 
L 483.859834 308.334802 
L 483.928588 308.519242 
L 483.997342 308.427022 
L 484.203603 308.519242 
L 485.097401 308.611463 
L 485.303663 308.888123 
L 485.509924 308.888123 
L 485.578677 308.611463 
L 485.716185 308.795903 
L 485.784939 308.519242 
L 485.853692 308.611463 
L 487.160013 308.519242 
L 487.572535 308.058141 
L 487.641289 308.150361 
L 487.710043 308.058141 
L 487.985058 307.78148 
L 488.053811 307.8737 
L 488.122565 307.78148 
L 489.635147 307.689259 
L 489.841408 307.412599 
L 489.910162 307.689259 
L 490.116423 307.412599 
L 490.872714 307.412599 
L 490.941468 307.228158 
L 491.010222 307.320378 
L 491.35399 307.043717 
L 492.247789 307.043717 
L 492.45405 306.674836 
L 493.141587 306.582616 
L 493.347848 306.305955 
L 494.035385 306.305955 
L 494.241647 305.937074 
L 494.3104 305.937074 
L 494.379154 305.752633 
L 494.447908 305.844853 
L 494.516661 305.752633 
L 494.722923 304.000447 
L 495.341706 302.617142 
L 495.41046 302.617142 
L 495.547967 302.248261 
L 495.685475 302.156041 
L 495.891736 301.510499 
L 496.029243 301.418278 
L 496.304258 300.680516 
L 496.579273 299.666093 
L 497.060549 297.360585 
L 497.748086 292.011807 
L 498.298116 286.84747 
L 499.054407 279.746506 
L 500.016959 272.737762 
L 501.735802 263.884613 
L 501.804556 263.792393 
L 502.217078 261.947986 
L 502.354586 261.579105 
L 502.835862 260.01136 
L 504.760966 255.031463 
L 504.82972 255.031463 
L 505.173488 254.01704 
L 505.37975 253.555938 
L 505.792272 252.264854 
L 506.067287 251.342651 
L 506.342302 250.328227 
L 506.479809 249.959346 
L 507.78613 244.333907 
L 508.817436 238.524028 
L 509.161204 235.941859 
L 511.567585 220.448847 
L 511.980107 218.512221 
L 512.736398 214.177866 
L 513.355181 211.319037 
L 513.561443 210.581274 
L 513.630196 210.489054 
L 513.836458 209.751292 
L 515.142778 206.43136 
L 515.280286 206.33914 
L 515.555301 205.416937 
L 515.624054 205.324717 
L 515.899069 204.310293 
L 517.136636 201.267023 
L 517.75542 200.529261 
L 517.824173 200.713701 
L 517.961681 200.43704 
L 518.030435 200.43704 
L 518.099188 200.2526 
L 518.236696 200.43704 
L 518.580464 200.43704 
L 518.649218 200.2526 
L 518.717972 200.43704 
L 518.855479 200.2526 
L 519.06174 200.160379 
L 519.336755 199.975939 
L 519.474263 200.160379 
L 519.543017 199.975939 
L 519.61177 200.160379 
L 519.749278 199.975939 
L 519.955539 200.068159 
L 520.093046 199.883719 
L 520.1618 199.883719 
L 520.368061 199.607058 
L 520.986845 198.961515 
L 521.26186 198.869295 
L 521.468121 198.592634 
L 521.605628 198.592634 
L 521.674382 198.408194 
L 521.743136 198.500414 
L 521.811889 198.592634 
L 522.018151 198.315973 
L 522.086904 198.408194 
L 522.155658 198.223753 
L 522.293165 198.408194 
L 522.430673 198.223753 
L 522.56818 198.408194 
L 522.705688 198.223753 
L 522.843195 198.408194 
L 522.980703 198.315973 
L 523.11821 198.592634 
L 523.324471 198.592634 
L 523.530732 198.869295 
L 523.874501 199.145956 
L 523.943255 199.145956 
L 524.149516 199.422617 
L 524.21827 199.330397 
L 524.287023 199.514837 
L 524.424531 199.330397 
L 524.493285 199.514837 
L 524.562038 199.422617 
L 524.630792 199.422617 
L 524.768299 199.883719 
L 524.837053 199.607058 
L 524.905807 199.699278 
L 525.180822 199.883719 
L 525.318329 200.068159 
L 525.387083 199.975939 
L 525.868359 200.068159 
L 526.005866 199.791498 
L 526.07462 199.699278 
L 526.143374 199.791498 
L 526.487142 199.699278 
L 527.518448 198.131533 
L 527.862217 197.117109 
L 528.687262 194.719381 
L 529.03103 193.336077 
L 529.099784 193.243856 
L 529.443553 191.860552 
L 529.718567 190.846128 
L 529.787321 190.569467 
L 529.856075 191.33797 
L 530.13109 188.632841 
L 530.268597 188.079519 
L 531.98744 178.304166 
L 532.881239 172.586507 
L 532.949992 172.863168 
L 534.462574 159.675664 
L 534.531328 159.491223 
L 534.600082 159.860105 
L 535.287619 152.113599 
L 536.112664 146.119279 
L 536.181417 146.211499 
L 537.212723 134.68396 
L 537.693999 128.412979 
L 538.106522 122.879761 
L 539.55035 104.8968 
L 540.10038 97.888057 
L 540.581656 91.063754 
L 542.713021 55.558935 
L 543.05679 52.700106 
L 543.538066 50.579039 
L 543.950588 49.564615 
L 544.019342 49.656836 
L 544.088096 49.380175 
L 544.156849 49.564615 
L 544.225603 49.380175 
L 544.431864 49.656836 
L 544.706879 50.025717 
L 544.775633 49.841276 
L 544.844386 50.117937 
L 544.91314 50.025717 
L 545.394416 51.04014 
L 545.46317 50.94792 
L 545.669431 51.777903 
L 545.806939 52.146784 
L 545.875692 52.054564 
L 546.081953 52.884546 
L 546.356968 53.806749 
L 546.425722 54.267851 
L 546.494476 54.08341 
L 547.044506 56.481138 
L 547.250767 57.680002 
L 547.31952 57.680002 
L 547.388274 58.602205 
L 547.457028 58.509985 
L 548.075811 61.368815 
L 548.144565 60.907713 
L 548.213319 61.553255 
L 548.282073 61.276594 
L 548.763349 62.659899 
L 548.900856 63.397662 
L 548.96961 63.397662 
L 549.244625 64.688746 
L 549.313378 64.780966 
L 549.794655 66.809813 
L 550.482192 68.83866 
L 550.757207 69.945303 
L 550.82596 69.760863 
L 550.963468 70.498625 
L 551.032222 70.314185 
L 551.238483 71.605269 
L 551.307236 71.420828 
L 551.37599 71.513049 
L 551.582251 72.066371 
L 551.857266 72.896353 
L 552.063527 73.541896 
L 552.201035 73.726336 
L 552.338542 74.187438 
L 552.407296 74.187438 
L 552.751065 75.201861 
L 552.819818 75.109641 
L 553.026079 75.755183 
L 553.094833 75.755183 
L 553.301094 76.400725 
L 553.369848 76.492945 
L 553.507356 76.861827 
L 553.919878 77.230708 
L 553.988632 77.230708 
L 554.126139 77.507369 
L 554.194893 77.415148 
L 554.263646 77.78403 
L 554.3324 77.691809 
L 554.607415 78.245131 
L 554.744923 78.152911 
L 554.88243 78.060691 
L 555.019937 78.337352 
L 555.088691 78.060691 
L 555.157445 78.152911 
L 555.43246 78.429572 
L 555.569967 78.060691 
L 555.776228 78.337352 
L 555.913736 78.060691 
L 555.98249 78.060691 
L 556.051243 78.245131 
L 556.119997 77.96847 
L 556.188751 78.152911 
L 556.257504 78.060691 
L 556.395012 78.152911 
L 556.532519 77.78403 
L 556.601273 78.060691 
L 556.670027 77.78403 
L 556.738781 77.87625 
L 556.876288 77.507369 
L 556.945042 77.691809 
L 557.013795 77.138488 
L 557.082549 77.322928 
L 557.28881 77.230708 
L 557.495071 76.954047 
L 557.563825 77.230708 
L 557.770086 76.769606 
L 557.83884 76.954047 
L 558.113855 76.492945 
L 558.457624 75.939624 
L 558.663885 74.095217 
L 558.870146 71.88193 
L 558.9389 71.697489 
L 559.076407 71.88193 
L 559.213915 71.697489 
L 559.282668 71.78971 
L 559.351422 71.88193 
L 559.420176 71.78971 
L 559.695191 71.328608 
L 559.832698 71.144167 
L 559.901452 71.236388 
L 559.970205 71.328608 
L 560.038959 71.051947 
L 560.107713 71.420828 
L 560.176467 71.051947 
L 560.313974 71.328608 
L 560.382728 71.236388 
L 560.588989 71.513049 
L 560.657743 71.328608 
L 560.79525 71.697489 
L 560.864004 71.605269 
L 560.932758 71.88193 
L 561.001511 71.697489 
L 561.070265 71.88193 
L 561.139019 71.78971 
L 561.34528 72.158591 
L 561.414034 71.78971 
L 561.551541 72.250811 
L 561.689049 72.250811 
L 561.964063 72.804133 
L 562.101571 72.619692 
L 563.614153 74.648539 
L 563.820414 75.201861 
L 563.889168 75.109641 
L 563.957921 75.201861 
L 564.232936 76.308505 
L 564.370444 76.585166 
L 565.057981 78.982894 
L 565.126735 79.075114 
L 565.332996 80.181758 
L 565.608011 81.196181 
L 566.639317 84.977214 
L 566.776824 85.346095 
L 567.189346 87.743823 
L 567.2581 87.743823 
L 569.939495 98.164718 
L 570.008249 98.164718 
L 570.21451 98.81026 
L 571.108309 100.931327 
L 571.245816 101.207988 
L 571.383323 101.484649 
L 571.452077 101.392429 
L 571.589585 101.85353 
L 571.658338 101.85353 
L 572.002107 102.499072 
L 572.139614 102.591293 
L 572.345876 102.867954 
L 572.483383 103.329055 
L 572.552137 103.144615 
L 572.758398 103.790157 
L 572.895905 103.882377 
L 574.339734 105.726783 
L 574.408487 105.634563 
L 574.545995 106.095665 
L 574.614748 106.003444 
L 574.683502 106.003444 
L 574.889763 106.372325 
L 574.958517 106.372325 
L 575.233532 106.833427 
L 575.508547 106.741207 
L 575.577301 107.202308 
L 575.646054 107.017868 
L 575.852315 107.294529 
L 576.058577 107.478969 
L 576.196084 107.386749 
L 576.264838 107.66341 
L 576.333591 107.571189 
L 576.402345 107.571189 
L 576.471099 107.940071 
L 576.539853 107.84785 
L 576.608606 108.032291 
L 576.67736 107.940071 
L 577.089882 108.585613 
L 577.158636 108.216732 
L 577.296144 108.493393 
L 577.502405 108.493393 
L 577.708666 109.046714 
L 577.77742 108.862274 
L 577.846173 109.138935 
L 577.914927 109.046714 
L 577.983681 108.954494 
L 578.052435 109.046714 
L 578.258696 109.138935 
L 578.327449 109.231155 
L 578.396203 109.046714 
L 578.464957 109.231155 
L 578.602464 109.046714 
L 578.671218 109.046714 
L 578.739972 109.323375 
L 578.877479 108.954494 
L 579.014987 109.231155 
L 579.08374 108.954494 
L 579.358755 109.507816 
L 579.427509 109.138935 
L 579.496263 109.323375 
L 579.565016 109.415596 
L 579.63377 109.323375 
L 579.702524 109.231155 
L 579.771278 109.323375 
L 579.840031 109.415596 
L 579.908785 109.323375 
L 580.046293 109.231155 
L 580.321307 109.507816 
L 580.527569 109.138935 
L 580.596322 109.600036 
L 580.665076 109.507816 
L 580.73383 109.415596 
L 580.802583 109.692257 
L 580.940091 109.507816 
L 581.008845 109.507816 
L 581.077598 109.692257 
L 581.146352 109.600036 
L 581.352613 109.415596 
L 581.421367 109.507816 
L 581.490121 109.415596 
L 582.04015 109.507816 
L 582.108904 109.231155 
L 582.177658 109.323375 
L 582.315165 109.507816 
L 582.521427 109.231155 
L 582.658934 109.415596 
L 582.933949 109.138935 
L 583.002703 109.415596 
L 583.14021 109.231155 
L 583.277717 109.323375 
L 583.346471 109.415596 
L 583.415225 109.138935 
L 583.621486 109.415596 
L 583.69024 109.231155 
L 583.758994 109.415596 
L 583.827747 109.323375 
L 584.102762 109.600036 
L 584.171516 109.507816 
L 584.446531 110.061138 
L 584.515285 109.968917 
L 584.584038 110.061138 
L 584.652792 110.061138 
L 584.721546 110.337799 
L 584.790299 110.153358 
L 584.859053 110.522239 
L 584.927807 110.430019 
L 585.409083 111.536663 
L 585.477837 111.536663 
L 586.921665 115.594356 
L 587.127926 116.79322 
L 587.19668 116.79322 
L 587.471695 118.268745 
L 587.540448 118.360966 
L 590.221843 133.300656 
L 590.359351 134.130638 
L 590.496858 133.392876 
L 591.459411 139.202755 
L 591.528164 139.387196 
L 591.871933 141.508263 
L 592.00944 142.061585 
L 592.284455 143.53711 
L 593.453268 149.346989 
L 593.65953 150.084752 
L 594.003298 151.375836 
L 594.553328 153.312463 
L 594.690835 153.681344 
L 595.240865 155.710191 
L 595.309619 155.710191 
L 595.653388 157.001275 
L 595.790895 157.185716 
L 595.997156 157.831258 
L 596.959708 160.228986 
L 597.028462 160.228986 
L 597.578492 161.42785 
L 597.784753 161.52007 
L 597.92226 161.704511 
L 598.128522 161.704511 
L 598.266029 161.888951 
L 598.541044 161.704511 
L 598.884813 161.796731 
L 598.953566 162.073392 
L 599.159827 161.796731 
L 599.228581 161.796731 
L 599.297335 161.981172 
L 599.434842 161.61229 
L 599.709857 161.52007 
L 600.603656 160.228986 
L 600.809917 159.491223 
L 600.947424 159.122342 
L 601.703715 156.909055 
L 602.116238 154.880208 
L 602.253745 154.234666 
L 605.691431 136.343926 
L 606.928998 131.64069 
L 606.997752 131.64069 
L 607.754043 129.888504 
L 608.510334 128.966301 
L 608.579087 129.058521 
L 608.647841 128.966301 
L 608.854102 128.874081 
L 608.99161 128.966301 
L 609.266625 129.150742 
L 609.54164 129.150742 
L 609.610393 129.611843 
L 609.679147 129.427403 
L 609.747901 129.335182 
L 609.885408 129.611843 
L 609.954162 129.611843 
L 610.091669 129.888504 
L 610.160423 129.796284 
L 610.229177 129.980724 
L 610.297931 129.888504 
L 610.84796 130.441826 
L 611.054221 130.349606 
L 611.191729 130.626267 
L 611.260483 130.441826 
L 611.39799 130.626267 
L 611.466744 130.534046 
L 611.604251 130.718487 
L 611.673005 130.349606 
L 611.810512 130.718487 
L 611.94802 130.441826 
L 612.016774 130.349606 
L 612.085527 130.626267 
L 612.154281 130.349606 
L 612.223035 130.441826 
L 612.291788 130.441826 
L 612.566803 129.796284 
L 612.635557 130.072945 
L 612.841818 129.335182 
L 613.048079 128.874081 
L 613.254341 127.306336 
L 614.285646 123.525303 
L 616.073243 119.006508 
L 616.141997 119.006508 
L 616.485766 118.268745 
L 616.554519 118.360966 
L 616.623273 118.268745 
L 616.76078 117.899864 
L 616.898288 118.176525 
L 617.104549 117.807644 
L 617.173303 117.992084 
L 617.379564 118.084305 
L 617.998347 119.098728 
L 618.41087 120.389812 
L 618.892146 122.510879 
L 619.029653 123.156422 
L 619.373422 124.908607 
L 624.186183 156.447953 
L 624.32369 157.001275 
L 624.529951 158.107919 
L 624.804966 159.122342 
L 625.148735 160.782308 
L 625.217488 160.597867 
L 625.630011 162.442273 
L 625.836272 162.903375 
L 626.317548 164.47112 
L 626.455055 164.747781 
L 626.798824 165.762204 
L 626.867578 165.854425 
L 627.073839 166.499967 
L 627.142593 166.592187 
L 627.211346 166.961068 
L 627.2801 166.868848 
L 627.486361 167.237729 
L 627.555115 167.237729 
L 627.761376 167.883271 
L 627.898884 167.975492 
L 628.448913 168.713254 
L 628.517667 168.528814 
L 628.723928 168.805474 
L 628.861436 168.897695 
L 628.930189 168.713254 
L 629.136451 167.791051 
L 631.061555 170.37322 
L 631.130309 170.188779 
L 631.199062 170.280999 
L 631.267816 170.188779 
L 631.405323 170.55766 
L 631.474077 170.37322 
L 631.680338 170.649881 
L 631.749092 170.46544 
L 631.817846 170.55766 
L 631.886599 170.926542 
L 631.955353 170.834321 
L 632.230368 171.018762 
L 632.367876 171.110982 
L 632.505383 171.203202 
L 632.574137 170.926542 
L 632.711644 171.295423 
L 633.124166 171.387643 
L 633.261674 171.479863 
L 633.330428 171.387643 
L 633.399181 171.756524 
L 633.467935 171.664304 
L 633.605443 171.664304 
L 633.74295 171.848745 
L 633.811704 171.848745 
L 633.949211 172.033185 
L 634.361734 172.033185 
L 634.567995 172.309846 
L 634.636748 172.033185 
L 634.705502 172.309846 
L 634.774256 172.033185 
L 634.84301 172.309846 
L 634.911763 172.217626 
L 635.186778 172.217626 
L 635.324286 172.402067 
L 635.736808 172.402067 
L 635.805562 172.217626 
L 635.874315 172.309846 
L 636.286838 172.678727 
L 636.493099 172.586507 
L 636.630606 172.402067 
L 636.69936 172.770948 
L 636.768114 172.586507 
L 637.180636 172.955388 
L 637.24939 172.678727 
L 637.455651 173.047609 
L 637.936927 173.139829 
L 638.005681 173.41649 
L 638.074435 173.32427 
L 638.418203 173.600931 
L 638.624464 173.693151 
L 639.10574 174.154252 
L 639.174494 174.062032 
L 639.449509 174.523134 
L 639.518263 174.430913 
L 639.724524 174.799795 
L 639.793278 174.707574 
L 639.862031 174.799795 
L 640.962091 176.275319 
L 641.030845 176.090879 
L 641.099598 176.183099 
L 641.168352 176.45976 
L 641.237106 176.36754 
L 642.61218 178.211946 
L 642.818441 178.857488 
L 643.16221 179.41081 
L 643.368471 179.871912 
L 643.505979 180.240793 
L 643.71224 180.701894 
L 643.780994 179.41081 
L 643.849747 179.50303 
L 644.26227 181.162996 
L 644.812299 182.822961 
L 645.087314 183.745164 
L 645.499837 185.036249 
L 645.706098 185.49735 
L 646.187374 187.065096 
L 647.699956 193.336077 
L 647.906217 194.3505 
L 649.07503 198.684855 
L 649.143784 198.592634 
L 649.212538 198.684855 
L 649.350045 199.238176 
L 649.762567 200.529261 
L 650.106336 201.912565 
L 650.312597 202.650328 
L 650.518858 203.480311 
L 650.587612 203.572531 
L 650.862627 204.586954 
L 651.000134 204.955836 
L 651.825179 206.892462 
L 652.237701 207.538004 
L 652.375209 207.814665 
L 652.443963 207.722445 
L 652.718977 208.183546 
L 654.025298 209.751292 
L 654.094052 209.751292 
L 654.231559 210.120173 
L 654.369067 210.027952 
L 654.437821 210.212393 
L 654.506574 209.935732 
L 654.712835 210.396834 
L 654.850343 210.304613 
L 654.98785 210.489054 
L 655.194111 210.120173 
L 655.606634 210.027952 
L 655.675388 209.935732 
L 655.744141 210.027952 
L 655.881649 209.935732 
L 656.019156 209.659071 
L 656.156664 209.566851 
L 656.294171 209.29019 
L 656.500432 208.736868 
L 656.775447 207.353564 
L 656.981708 205.509157 
L 657.94426 195.180483 
L 658.49429 192.598314 
L 658.563044 192.506094 
L 659.04432 190.477247 
L 659.250581 189.739485 
L 660.006872 185.220689 
L 660.625656 180.425233 
L 662.894528 162.995595 
L 663.10079 161.888951 
L 663.582066 159.399003 
L 664.338357 155.802411 
L 664.40711 155.710191 
L 665.025894 152.851361 
L 665.163401 152.205819 
L 665.575924 150.269192 
L 666.125953 147.041482 
L 666.194707 147.041482 
L 667.088506 141.692704 
L 667.432274 139.940518 
L 668.326073 134.59174 
L 668.944856 131.73291 
L 669.219871 130.072945 
L 670.457438 125.369709 
L 670.663699 124.908607 
L 671.282483 123.525303 
L 671.695005 122.78754 
L 671.901266 122.326439 
L 672.038774 121.957558 
L 672.107527 121.773117 
L 672.176281 121.865337 
L 672.245035 121.865337 
L 672.588803 121.127575 
L 672.726311 121.127575 
L 673.001326 120.666473 
L 673.620109 120.020931 
L 673.620109 120.020931 
" clip-path="url(#pf5f3208160)" style="fill: none; stroke: #1f77b4; stroke-width: 1.5; stroke-linecap: square"/>
   </g>
   <g id="line2d_17">
    <path d="M 52.9115 36.19267 
L 673.620109 36.19267 
L 673.620109 36.19267 
" clip-path="url(#pf5f3208160)" style="fill: none; stroke: #ff7f0e; stroke-width: 1.5; stroke-linecap: square"/>
   </g>
   <g id="patch_3">
    <path d="M 21.87607 327.558125 
L 21.87607 22.318125 
" style="fill: none; stroke: #000000; stroke-width: 0.8; stroke-linejoin: miter; stroke-linecap: square"/>
   </g>
   <g id="patch_4">
    <path d="M 704.65554 327.558125 
L 704.65554 22.318125 
" style="fill: none; stroke: #000000; stroke-width: 0.8; stroke-linejoin: miter; stroke-linecap: square"/>
   </g>
   <g id="patch_5">
    <path d="M 21.87607 327.558125 
L 704.65554 327.558125 
" style="fill: none; stroke: #000000; stroke-width: 0.8; stroke-linejoin: miter; stroke-linecap: square"/>
   </g>
   <g id="patch_6">
    <path d="M 21.87607 22.318125 
L 704.65554 22.318125 
" style="fill: none; stroke: #000000; stroke-width: 0.8; stroke-linejoin: miter; stroke-linecap: square"/>
   </g>
   <g id="text_16">
    <!-- training -->
    <g transform="translate(340.022367 16.318125) scale(0.12 -0.12)">
     <defs>
      <path id="DejaVuSans-74" d="M 1172 4494 
L 1172 3500 
L 2356 3500 
L 2356 3053 
L 1172 3053 
L 1172 1153 
Q 1172 725 1289 603 
Q 1406 481 1766 481 
L 2356 481 
L 2356 0 
L 1766 0 
Q 1100 0 847 248 
Q 594 497 594 1153 
L 594 3053 
L 172 3053 
L 172 3500 
L 594 3500 
L 594 4494 
L 1172 4494 
z
" transform="scale(0.015625)"/>
      <path id="DejaVuSans-72" d="M 2631 2963 
Q 2534 3019 2420 3045 
Q 2306 3072 2169 3072 
Q 1681 3072 1420 2755 
Q 1159 2438 1159 1844 
L 1159 0 
L 581 0 
L 581 3500 
L 1159 3500 
L 1159 2956 
Q 1341 3275 1631 3429 
Q 1922 3584 2338 3584 
Q 2397 3584 2469 3576 
Q 2541 3569 2628 3553 
L 2631 2963 
z
" transform="scale(0.015625)"/>
      <path id="DejaVuSans-61" d="M 2194 1759 
Q 1497 1759 1228 1600 
Q 959 1441 959 1056 
Q 959 750 1161 570 
Q 1363 391 1709 391 
Q 2188 391 2477 730 
Q 2766 1069 2766 1631 
L 2766 1759 
L 2194 1759 
z
M 3341 1997 
L 3341 0 
L 2766 0 
L 2766 531 
Q 2569 213 2275 61 
Q 1981 -91 1556 -91 
Q 1019 -91 701 211 
Q 384 513 384 1019 
Q 384 1609 779 1909 
Q 1175 2209 1959 2209 
L 2766 2209 
L 2766 2266 
Q 2766 2663 2505 2880 
Q 2244 3097 1772 3097 
Q 1472 3097 1187 3025 
Q 903 2953 641 2809 
L 641 3341 
Q 956 3463 1253 3523 
Q 1550 3584 1831 3584 
Q 2591 3584 2966 3190 
Q 3341 2797 3341 1997 
z
" transform="scale(0.015625)"/>
      <path id="DejaVuSans-69" d="M 603 3500 
L 1178 3500 
L 1178 0 
L 603 0 
L 603 3500 
z
M 603 4863 
L 1178 4863 
L 1178 4134 
L 603 4134 
L 603 4863 
z
" transform="scale(0.015625)"/>
      <path id="DejaVuSans-6e" d="M 3513 2113 
L 3513 0 
L 2938 0 
L 2938 2094 
Q 2938 2591 2744 2837 
Q 2550 3084 2163 3084 
Q 1697 3084 1428 2787 
Q 1159 2491 1159 1978 
L 1159 0 
L 581 0 
L 581 3500 
L 1159 3500 
L 1159 2956 
Q 1366 3272 1645 3428 
Q 1925 3584 2291 3584 
Q 2894 3584 3203 3211 
Q 3513 2838 3513 2113 
z
" transform="scale(0.015625)"/>
      <path id="DejaVuSans-67" d="M 2906 1791 
Q 2906 2416 2648 2759 
Q 2391 3103 1925 3103 
Q 1463 3103 1205 2759 
Q 947 2416 947 1791 
Q 947 1169 1205 825 
Q 1463 481 1925 481 
Q 2391 481 2648 825 
Q 2906 1169 2906 1791 
z
M 3481 434 
Q 3481 -459 3084 -895 
Q 2688 -1331 1869 -1331 
Q 1566 -1331 1297 -1286 
Q 1028 -1241 775 -1147 
L 775 -588 
Q 1028 -725 1275 -790 
Q 1522 -856 1778 -856 
Q 2344 -856 2625 -561 
Q 2906 -266 2906 331 
L 2906 616 
Q 2728 306 2450 153 
Q 2172 0 1784 0 
Q 1141 0 747 490 
Q 353 981 353 1791 
Q 353 2603 747 3093 
Q 1141 3584 1784 3584 
Q 2172 3584 2450 3431 
Q 2728 3278 2906 2969 
L 2906 3500 
L 3481 3500 
L 3481 434 
z
" transform="scale(0.015625)"/>
     </defs>
     <use xlink:href="#DejaVuSans-74"/>
     <use xlink:href="#DejaVuSans-72" x="39.208984"/>
     <use xlink:href="#DejaVuSans-61" x="80.322266"/>
     <use xlink:href="#DejaVuSans-69" x="141.601562"/>
     <use xlink:href="#DejaVuSans-6e" x="169.384766"/>
     <use xlink:href="#DejaVuSans-69" x="232.763672"/>
     <use xlink:href="#DejaVuSans-6e" x="260.546875"/>
     <use xlink:href="#DejaVuSans-67" x="323.925781"/>
    </g>
   </g>
   <g id="legend_1">
    <g id="patch_7">
     <path d="M 28.87607 322.558125 
L 110.26982 322.558125 
Q 112.26982 322.558125 112.26982 320.558125 
L 112.26982 292.201875 
Q 112.26982 290.201875 110.26982 290.201875 
L 28.87607 290.201875 
Q 26.87607 290.201875 26.87607 292.201875 
L 26.87607 320.558125 
Q 26.87607 322.558125 28.87607 322.558125 
z
" style="fill: #ffffff; opacity: 0.8; stroke: #cccccc; stroke-linejoin: miter"/>
    </g>
    <g id="line2d_18">
     <path d="M 30.87607 298.300313 
L 40.87607 298.300313 
L 50.87607 298.300313 
" style="fill: none; stroke: #1f77b4; stroke-width: 1.5; stroke-linecap: square"/>
    </g>
    <g id="text_17">
     <!-- observed -->
     <g transform="translate(58.87607 301.800313) scale(0.1 -0.1)">
      <defs>
       <path id="DejaVuSans-6f" d="M 1959 3097 
Q 1497 3097 1228 2736 
Q 959 2375 959 1747 
Q 959 1119 1226 758 
Q 1494 397 1959 397 
Q 2419 397 2687 759 
Q 2956 1122 2956 1747 
Q 2956 2369 2687 2733 
Q 2419 3097 1959 3097 
z
M 1959 3584 
Q 2709 3584 3137 3096 
Q 3566 2609 3566 1747 
Q 3566 888 3137 398 
Q 2709 -91 1959 -91 
Q 1206 -91 779 398 
Q 353 888 353 1747 
Q 353 2609 779 3096 
Q 1206 3584 1959 3584 
z
" transform="scale(0.015625)"/>
       <path id="DejaVuSans-62" d="M 3116 1747 
Q 3116 2381 2855 2742 
Q 2594 3103 2138 3103 
Q 1681 3103 1420 2742 
Q 1159 2381 1159 1747 
Q 1159 1113 1420 752 
Q 1681 391 2138 391 
Q 2594 391 2855 752 
Q 3116 1113 3116 1747 
z
M 1159 2969 
Q 1341 3281 1617 3432 
Q 1894 3584 2278 3584 
Q 2916 3584 3314 3078 
Q 3713 2572 3713 1747 
Q 3713 922 3314 415 
Q 2916 -91 2278 -91 
Q 1894 -91 1617 61 
Q 1341 213 1159 525 
L 1159 0 
L 581 0 
L 581 4863 
L 1159 4863 
L 1159 2969 
z
" transform="scale(0.015625)"/>
       <path id="DejaVuSans-73" d="M 2834 3397 
L 2834 2853 
Q 2591 2978 2328 3040 
Q 2066 3103 1784 3103 
Q 1356 3103 1142 2972 
Q 928 2841 928 2578 
Q 928 2378 1081 2264 
Q 1234 2150 1697 2047 
L 1894 2003 
Q 2506 1872 2764 1633 
Q 3022 1394 3022 966 
Q 3022 478 2636 193 
Q 2250 -91 1575 -91 
Q 1294 -91 989 -36 
Q 684 19 347 128 
L 347 722 
Q 666 556 975 473 
Q 1284 391 1588 391 
Q 1994 391 2212 530 
Q 2431 669 2431 922 
Q 2431 1156 2273 1281 
Q 2116 1406 1581 1522 
L 1381 1569 
Q 847 1681 609 1914 
Q 372 2147 372 2553 
Q 372 3047 722 3315 
Q 1072 3584 1716 3584 
Q 2034 3584 2315 3537 
Q 2597 3491 2834 3397 
z
" transform="scale(0.015625)"/>
       <path id="DejaVuSans-65" d="M 3597 1894 
L 3597 1613 
L 953 1613 
Q 991 1019 1311 708 
Q 1631 397 2203 397 
Q 2534 397 2845 478 
Q 3156 559 3463 722 
L 3463 178 
Q 3153 47 2828 -22 
Q 2503 -91 2169 -91 
Q 1331 -91 842 396 
Q 353 884 353 1716 
Q 353 2575 817 3079 
Q 1281 3584 2069 3584 
Q 2775 3584 3186 3129 
Q 3597 2675 3597 1894 
z
M 3022 2063 
Q 3016 2534 2758 2815 
Q 2500 3097 2075 3097 
Q 1594 3097 1305 2825 
Q 1016 2553 972 2059 
L 3022 2063 
z
" transform="scale(0.015625)"/>
       <path id="DejaVuSans-76" d="M 191 3500 
L 800 3500 
L 1894 563 
L 2988 3500 
L 3597 3500 
L 2284 0 
L 1503 0 
L 191 3500 
z
" transform="scale(0.015625)"/>
       <path id="DejaVuSans-64" d="M 2906 2969 
L 2906 4863 
L 3481 4863 
L 3481 0 
L 2906 0 
L 2906 525 
Q 2725 213 2448 61 
Q 2172 -91 1784 -91 
Q 1150 -91 751 415 
Q 353 922 353 1747 
Q 353 2572 751 3078 
Q 1150 3584 1784 3584 
Q 2172 3584 2448 3432 
Q 2725 3281 2906 2969 
z
M 947 1747 
Q 947 1113 1208 752 
Q 1469 391 1925 391 
Q 2381 391 2643 752 
Q 2906 1113 2906 1747 
Q 2906 2381 2643 2742 
Q 2381 3103 1925 3103 
Q 1469 3103 1208 2742 
Q 947 2381 947 1747 
z
" transform="scale(0.015625)"/>
      </defs>
      <use xlink:href="#DejaVuSans-6f"/>
      <use xlink:href="#DejaVuSans-62" x="61.181641"/>
      <use xlink:href="#DejaVuSans-73" x="124.658203"/>
      <use xlink:href="#DejaVuSans-65" x="176.757812"/>
      <use xlink:href="#DejaVuSans-72" x="238.28125"/>
      <use xlink:href="#DejaVuSans-76" x="279.394531"/>
      <use xlink:href="#DejaVuSans-65" x="338.574219"/>
      <use xlink:href="#DejaVuSans-64" x="400.097656"/>
     </g>
    </g>
    <g id="line2d_19">
     <path d="M 30.87607 312.978438 
L 40.87607 312.978438 
L 50.87607 312.978438 
" style="fill: none; stroke: #ff7f0e; stroke-width: 1.5; stroke-linecap: square"/>
    </g>
    <g id="text_18">
     <!-- simulated -->
     <g transform="translate(58.87607 316.478438) scale(0.1 -0.1)">
      <defs>
       <path id="DejaVuSans-6d" d="M 3328 2828 
Q 3544 3216 3844 3400 
Q 4144 3584 4550 3584 
Q 5097 3584 5394 3201 
Q 5691 2819 5691 2113 
L 5691 0 
L 5113 0 
L 5113 2094 
Q 5113 2597 4934 2840 
Q 4756 3084 4391 3084 
Q 3944 3084 3684 2787 
Q 3425 2491 3425 1978 
L 3425 0 
L 2847 0 
L 2847 2094 
Q 2847 2600 2669 2842 
Q 2491 3084 2119 3084 
Q 1678 3084 1418 2786 
Q 1159 2488 1159 1978 
L 1159 0 
L 581 0 
L 581 3500 
L 1159 3500 
L 1159 2956 
Q 1356 3278 1631 3431 
Q 1906 3584 2284 3584 
Q 2666 3584 2933 3390 
Q 3200 3197 3328 2828 
z
" transform="scale(0.015625)"/>
       <path id="DejaVuSans-75" d="M 544 1381 
L 544 3500 
L 1119 3500 
L 1119 1403 
Q 1119 906 1312 657 
Q 1506 409 1894 409 
Q 2359 409 2629 706 
Q 2900 1003 2900 1516 
L 2900 3500 
L 3475 3500 
L 3475 0 
L 2900 0 
L 2900 538 
Q 2691 219 2414 64 
Q 2138 -91 1772 -91 
Q 1169 -91 856 284 
Q 544 659 544 1381 
z
M 1991 3584 
L 1991 3584 
z
" transform="scale(0.015625)"/>
       <path id="DejaVuSans-6c" d="M 603 4863 
L 1178 4863 
L 1178 0 
L 603 0 
L 603 4863 
z
" transform="scale(0.015625)"/>
      </defs>
      <use xlink:href="#DejaVuSans-73"/>
      <use xlink:href="#DejaVuSans-69" x="52.099609"/>
      <use xlink:href="#DejaVuSans-6d" x="79.882812"/>
      <use xlink:href="#DejaVuSans-75" x="177.294922"/>
      <use xlink:href="#DejaVuSans-6c" x="240.673828"/>
      <use xlink:href="#DejaVuSans-61" x="268.457031"/>
      <use xlink:href="#DejaVuSans-74" x="329.736328"/>
      <use xlink:href="#DejaVuSans-65" x="368.945312"/>
      <use xlink:href="#DejaVuSans-64" x="430.46875"/>
     </g>
    </g>
   </g>
  </g>
 </g>
 <defs>
  <clipPath id="pf5f3208160">
   <rect x="21.87607" y="22.318125" width="682.77947" height="305.24"/>
  </clipPath>
 </defs>
</svg>
