<?xml version="1.0" encoding="utf-8" standalone="no"?>
<!DOCTYPE svg PUBLIC "-//W3C//DTD SVG 1.1//EN"
  "http://www.w3.org/Graphics/SVG/1.1/DTD/svg11.dtd">
<svg xmlns:xlink="http://www.w3.org/1999/xlink" width="711.782723pt" height="351.43625pt" viewBox="0 0 711.782723 351.43625" xmlns="http://www.w3.org/2000/svg" version="1.1">
 <metadata>
  <rdf:RDF xmlns:dc="http://purl.org/dc/elements/1.1/" xmlns:cc="http://creativecommons.org/ns#" xmlns:rdf="http://www.w3.org/1999/02/22-rdf-syntax-ns#">
   <cc:Work>
    <dc:type rdf:resource="http://purl.org/dc/dcmitype/StillImage"/>
    <dc:date>2024-05-09T09:37:29.062087</dc:date>
    <dc:format>image/svg+xml</dc:format>
    <dc:creator>
     <cc:Agent>
      <dc:title>Matplotlib v3.8.4, https://matplotlib.org/</dc:title>
     </cc:Agent>
    </dc:creator>
   </cc:Work>
  </rdf:RDF>
 </metadata>
 <defs>
  <style type="text/css">*{stroke-linejoin: round; stroke-linecap: butt}</style>
 </defs>
 <g id="figure_1">
  <g id="patch_1">
   <path d="M 0 351.43625 
L 711.782723 351.43625 
L 711.782723 0 
L 0 0 
z
" style="fill: #ffffff"/>
  </g>
  <g id="axes_1">
   <g id="patch_2">
    <path d="M 46.0125 327.558125 
L 701.068919 327.558125 
L 701.068919 22.318125 
L 46.0125 22.318125 
z
" style="fill: #ffffff"/>
   </g>
   <g id="matplotlib.axis_1">
    <g id="xtick_1">
     <g id="line2d_1">
      <defs>
       <path id="m33983a91ee" d="M 0 0 
L 0 3.5 
" style="stroke: #000000; stroke-width: 0.8"/>
      </defs>
      <g>
       <use xlink:href="#m33983a91ee" x="107.800079" y="327.558125" style="stroke: #000000; stroke-width: 0.8"/>
      </g>
     </g>
     <g id="text_1">
      <!-- 2010 -->
      <g transform="translate(95.075079 342.156563) scale(0.1 -0.1)">
       <defs>
        <path id="DejaVuSans-32" d="M 1228 531 
L 3431 531 
L 3431 0 
L 469 0 
L 469 531 
Q 828 903 1448 1529 
Q 2069 2156 2228 2338 
Q 2531 2678 2651 2914 
Q 2772 3150 2772 3378 
Q 2772 3750 2511 3984 
Q 2250 4219 1831 4219 
Q 1534 4219 1204 4116 
Q 875 4013 500 3803 
L 500 4441 
Q 881 4594 1212 4672 
Q 1544 4750 1819 4750 
Q 2544 4750 2975 4387 
Q 3406 4025 3406 3419 
Q 3406 3131 3298 2873 
Q 3191 2616 2906 2266 
Q 2828 2175 2409 1742 
Q 1991 1309 1228 531 
z
" transform="scale(0.015625)"/>
        <path id="DejaVuSans-30" d="M 2034 4250 
Q 1547 4250 1301 3770 
Q 1056 3291 1056 2328 
Q 1056 1369 1301 889 
Q 1547 409 2034 409 
Q 2525 409 2770 889 
Q 3016 1369 3016 2328 
Q 3016 3291 2770 3770 
Q 2525 4250 2034 4250 
z
M 2034 4750 
Q 2819 4750 3233 4129 
Q 3647 3509 3647 2328 
Q 3647 1150 3233 529 
Q 2819 -91 2034 -91 
Q 1250 -91 836 529 
Q 422 1150 422 2328 
Q 422 3509 836 4129 
Q 1250 4750 2034 4750 
z
" transform="scale(0.015625)"/>
        <path id="DejaVuSans-31" d="M 794 531 
L 1825 531 
L 1825 4091 
L 703 3866 
L 703 4441 
L 1819 4666 
L 2450 4666 
L 2450 531 
L 3481 531 
L 3481 0 
L 794 0 
L 794 531 
z
" transform="scale(0.015625)"/>
       </defs>
       <use xlink:href="#DejaVuSans-32"/>
       <use xlink:href="#DejaVuSans-30" x="63.623047"/>
       <use xlink:href="#DejaVuSans-31" x="127.246094"/>
       <use xlink:href="#DejaVuSans-30" x="190.869141"/>
      </g>
     </g>
    </g>
    <g id="xtick_2">
     <g id="line2d_2">
      <g>
       <use xlink:href="#m33983a91ee" x="224.547636" y="327.558125" style="stroke: #000000; stroke-width: 0.8"/>
      </g>
     </g>
     <g id="text_2">
      <!-- 2012 -->
      <g transform="translate(211.822636 342.156563) scale(0.1 -0.1)">
       <use xlink:href="#DejaVuSans-32"/>
       <use xlink:href="#DejaVuSans-30" x="63.623047"/>
       <use xlink:href="#DejaVuSans-31" x="127.246094"/>
       <use xlink:href="#DejaVuSans-32" x="190.869141"/>
      </g>
     </g>
    </g>
    <g id="xtick_3">
     <g id="line2d_3">
      <g>
       <use xlink:href="#m33983a91ee" x="341.455122" y="327.558125" style="stroke: #000000; stroke-width: 0.8"/>
      </g>
     </g>
     <g id="text_3">
      <!-- 2014 -->
      <g transform="translate(328.730122 342.156563) scale(0.1 -0.1)">
       <defs>
        <path id="DejaVuSans-34" d="M 2419 4116 
L 825 1625 
L 2419 1625 
L 2419 4116 
z
M 2253 4666 
L 3047 4666 
L 3047 1625 
L 3713 1625 
L 3713 1100 
L 3047 1100 
L 3047 0 
L 2419 0 
L 2419 1100 
L 313 1100 
L 313 1709 
L 2253 4666 
z
" transform="scale(0.015625)"/>
       </defs>
       <use xlink:href="#DejaVuSans-32"/>
       <use xlink:href="#DejaVuSans-30" x="63.623047"/>
       <use xlink:href="#DejaVuSans-31" x="127.246094"/>
       <use xlink:href="#DejaVuSans-34" x="190.869141"/>
      </g>
     </g>
    </g>
    <g id="xtick_4">
     <g id="line2d_4">
      <g>
       <use xlink:href="#m33983a91ee" x="458.20268" y="327.558125" style="stroke: #000000; stroke-width: 0.8"/>
      </g>
     </g>
     <g id="text_4">
      <!-- 2016 -->
      <g transform="translate(445.47768 342.156563) scale(0.1 -0.1)">
       <defs>
        <path id="DejaVuSans-36" d="M 2113 2584 
Q 1688 2584 1439 2293 
Q 1191 2003 1191 1497 
Q 1191 994 1439 701 
Q 1688 409 2113 409 
Q 2538 409 2786 701 
Q 3034 994 3034 1497 
Q 3034 2003 2786 2293 
Q 2538 2584 2113 2584 
z
M 3366 4563 
L 3366 3988 
Q 3128 4100 2886 4159 
Q 2644 4219 2406 4219 
Q 1781 4219 1451 3797 
Q 1122 3375 1075 2522 
Q 1259 2794 1537 2939 
Q 1816 3084 2150 3084 
Q 2853 3084 3261 2657 
Q 3669 2231 3669 1497 
Q 3669 778 3244 343 
Q 2819 -91 2113 -91 
Q 1303 -91 875 529 
Q 447 1150 447 2328 
Q 447 3434 972 4092 
Q 1497 4750 2381 4750 
Q 2619 4750 2861 4703 
Q 3103 4656 3366 4563 
z
" transform="scale(0.015625)"/>
       </defs>
       <use xlink:href="#DejaVuSans-32"/>
       <use xlink:href="#DejaVuSans-30" x="63.623047"/>
       <use xlink:href="#DejaVuSans-31" x="127.246094"/>
       <use xlink:href="#DejaVuSans-36" x="190.869141"/>
      </g>
     </g>
    </g>
    <g id="xtick_5">
     <g id="line2d_5">
      <g>
       <use xlink:href="#m33983a91ee" x="575.110166" y="327.558125" style="stroke: #000000; stroke-width: 0.8"/>
      </g>
     </g>
     <g id="text_5">
      <!-- 2018 -->
      <g transform="translate(562.385166 342.156563) scale(0.1 -0.1)">
       <defs>
        <path id="DejaVuSans-38" d="M 2034 2216 
Q 1584 2216 1326 1975 
Q 1069 1734 1069 1313 
Q 1069 891 1326 650 
Q 1584 409 2034 409 
Q 2484 409 2743 651 
Q 3003 894 3003 1313 
Q 3003 1734 2745 1975 
Q 2488 2216 2034 2216 
z
M 1403 2484 
Q 997 2584 770 2862 
Q 544 3141 544 3541 
Q 544 4100 942 4425 
Q 1341 4750 2034 4750 
Q 2731 4750 3128 4425 
Q 3525 4100 3525 3541 
Q 3525 3141 3298 2862 
Q 3072 2584 2669 2484 
Q 3125 2378 3379 2068 
Q 3634 1759 3634 1313 
Q 3634 634 3220 271 
Q 2806 -91 2034 -91 
Q 1263 -91 848 271 
Q 434 634 434 1313 
Q 434 1759 690 2068 
Q 947 2378 1403 2484 
z
M 1172 3481 
Q 1172 3119 1398 2916 
Q 1625 2713 2034 2713 
Q 2441 2713 2670 2916 
Q 2900 3119 2900 3481 
Q 2900 3844 2670 4047 
Q 2441 4250 2034 4250 
Q 1625 4250 1398 4047 
Q 1172 3844 1172 3481 
z
" transform="scale(0.015625)"/>
       </defs>
       <use xlink:href="#DejaVuSans-32"/>
       <use xlink:href="#DejaVuSans-30" x="63.623047"/>
       <use xlink:href="#DejaVuSans-31" x="127.246094"/>
       <use xlink:href="#DejaVuSans-38" x="190.869141"/>
      </g>
     </g>
    </g>
    <g id="xtick_6">
     <g id="line2d_6">
      <g>
       <use xlink:href="#m33983a91ee" x="691.857723" y="327.558125" style="stroke: #000000; stroke-width: 0.8"/>
      </g>
     </g>
     <g id="text_6">
      <!-- 2020 -->
      <g transform="translate(679.132723 342.156563) scale(0.1 -0.1)">
       <use xlink:href="#DejaVuSans-32"/>
       <use xlink:href="#DejaVuSans-30" x="63.623047"/>
       <use xlink:href="#DejaVuSans-32" x="127.246094"/>
       <use xlink:href="#DejaVuSans-30" x="190.869141"/>
      </g>
     </g>
    </g>
   </g>
   <g id="matplotlib.axis_2">
    <g id="ytick_1">
     <g id="line2d_7">
      <defs>
       <path id="mc21e35b888" d="M 0 0 
L -3.5 0 
" style="stroke: #000000; stroke-width: 0.8"/>
      </defs>
      <g>
       <use xlink:href="#mc21e35b888" x="46.0125" y="313.620351" style="stroke: #000000; stroke-width: 0.8"/>
      </g>
     </g>
     <g id="text_7">
      <!-- 0 -->
      <g transform="translate(32.65 317.41957) scale(0.1 -0.1)">
       <use xlink:href="#DejaVuSans-30"/>
      </g>
     </g>
    </g>
    <g id="ytick_2">
     <g id="line2d_8">
      <g>
       <use xlink:href="#mc21e35b888" x="46.0125" y="278.78393" style="stroke: #000000; stroke-width: 0.8"/>
      </g>
     </g>
     <g id="text_8">
      <!-- 10000 -->
      <g transform="translate(7.2 282.583149) scale(0.1 -0.1)">
       <use xlink:href="#DejaVuSans-31"/>
       <use xlink:href="#DejaVuSans-30" x="63.623047"/>
       <use xlink:href="#DejaVuSans-30" x="127.246094"/>
       <use xlink:href="#DejaVuSans-30" x="190.869141"/>
       <use xlink:href="#DejaVuSans-30" x="254.492188"/>
      </g>
     </g>
    </g>
    <g id="ytick_3">
     <g id="line2d_9">
      <g>
       <use xlink:href="#mc21e35b888" x="46.0125" y="243.947508" style="stroke: #000000; stroke-width: 0.8"/>
      </g>
     </g>
     <g id="text_9">
      <!-- 20000 -->
      <g transform="translate(7.2 247.746727) scale(0.1 -0.1)">
       <use xlink:href="#DejaVuSans-32"/>
       <use xlink:href="#DejaVuSans-30" x="63.623047"/>
       <use xlink:href="#DejaVuSans-30" x="127.246094"/>
       <use xlink:href="#DejaVuSans-30" x="190.869141"/>
       <use xlink:href="#DejaVuSans-30" x="254.492188"/>
      </g>
     </g>
    </g>
    <g id="ytick_4">
     <g id="line2d_10">
      <g>
       <use xlink:href="#mc21e35b888" x="46.0125" y="209.111087" style="stroke: #000000; stroke-width: 0.8"/>
      </g>
     </g>
     <g id="text_10">
      <!-- 30000 -->
      <g transform="translate(7.2 212.910306) scale(0.1 -0.1)">
       <defs>
        <path id="DejaVuSans-33" d="M 2597 2516 
Q 3050 2419 3304 2112 
Q 3559 1806 3559 1356 
Q 3559 666 3084 287 
Q 2609 -91 1734 -91 
Q 1441 -91 1130 -33 
Q 819 25 488 141 
L 488 750 
Q 750 597 1062 519 
Q 1375 441 1716 441 
Q 2309 441 2620 675 
Q 2931 909 2931 1356 
Q 2931 1769 2642 2001 
Q 2353 2234 1838 2234 
L 1294 2234 
L 1294 2753 
L 1863 2753 
Q 2328 2753 2575 2939 
Q 2822 3125 2822 3475 
Q 2822 3834 2567 4026 
Q 2313 4219 1838 4219 
Q 1578 4219 1281 4162 
Q 984 4106 628 3988 
L 628 4550 
Q 988 4650 1302 4700 
Q 1616 4750 1894 4750 
Q 2613 4750 3031 4423 
Q 3450 4097 3450 3541 
Q 3450 3153 3228 2886 
Q 3006 2619 2597 2516 
z
" transform="scale(0.015625)"/>
       </defs>
       <use xlink:href="#DejaVuSans-33"/>
       <use xlink:href="#DejaVuSans-30" x="63.623047"/>
       <use xlink:href="#DejaVuSans-30" x="127.246094"/>
       <use xlink:href="#DejaVuSans-30" x="190.869141"/>
       <use xlink:href="#DejaVuSans-30" x="254.492188"/>
      </g>
     </g>
    </g>
    <g id="ytick_5">
     <g id="line2d_11">
      <g>
       <use xlink:href="#mc21e35b888" x="46.0125" y="174.274665" style="stroke: #000000; stroke-width: 0.8"/>
      </g>
     </g>
     <g id="text_11">
      <!-- 40000 -->
      <g transform="translate(7.2 178.073884) scale(0.1 -0.1)">
       <use xlink:href="#DejaVuSans-34"/>
       <use xlink:href="#DejaVuSans-30" x="63.623047"/>
       <use xlink:href="#DejaVuSans-30" x="127.246094"/>
       <use xlink:href="#DejaVuSans-30" x="190.869141"/>
       <use xlink:href="#DejaVuSans-30" x="254.492188"/>
      </g>
     </g>
    </g>
    <g id="ytick_6">
     <g id="line2d_12">
      <g>
       <use xlink:href="#mc21e35b888" x="46.0125" y="139.438244" style="stroke: #000000; stroke-width: 0.8"/>
      </g>
     </g>
     <g id="text_12">
      <!-- 50000 -->
      <g transform="translate(7.2 143.237463) scale(0.1 -0.1)">
       <defs>
        <path id="DejaVuSans-35" d="M 691 4666 
L 3169 4666 
L 3169 4134 
L 1269 4134 
L 1269 2991 
Q 1406 3038 1543 3061 
Q 1681 3084 1819 3084 
Q 2600 3084 3056 2656 
Q 3513 2228 3513 1497 
Q 3513 744 3044 326 
Q 2575 -91 1722 -91 
Q 1428 -91 1123 -41 
Q 819 9 494 109 
L 494 744 
Q 775 591 1075 516 
Q 1375 441 1709 441 
Q 2250 441 2565 725 
Q 2881 1009 2881 1497 
Q 2881 1984 2565 2268 
Q 2250 2553 1709 2553 
Q 1456 2553 1204 2497 
Q 953 2441 691 2322 
L 691 4666 
z
" transform="scale(0.015625)"/>
       </defs>
       <use xlink:href="#DejaVuSans-35"/>
       <use xlink:href="#DejaVuSans-30" x="63.623047"/>
       <use xlink:href="#DejaVuSans-30" x="127.246094"/>
       <use xlink:href="#DejaVuSans-30" x="190.869141"/>
       <use xlink:href="#DejaVuSans-30" x="254.492188"/>
      </g>
     </g>
    </g>
    <g id="ytick_7">
     <g id="line2d_13">
      <g>
       <use xlink:href="#mc21e35b888" x="46.0125" y="104.601822" style="stroke: #000000; stroke-width: 0.8"/>
      </g>
     </g>
     <g id="text_13">
      <!-- 60000 -->
      <g transform="translate(7.2 108.401041) scale(0.1 -0.1)">
       <use xlink:href="#DejaVuSans-36"/>
       <use xlink:href="#DejaVuSans-30" x="63.623047"/>
       <use xlink:href="#DejaVuSans-30" x="127.246094"/>
       <use xlink:href="#DejaVuSans-30" x="190.869141"/>
       <use xlink:href="#DejaVuSans-30" x="254.492188"/>
      </g>
     </g>
    </g>
    <g id="ytick_8">
     <g id="line2d_14">
      <g>
       <use xlink:href="#mc21e35b888" x="46.0125" y="69.765401" style="stroke: #000000; stroke-width: 0.8"/>
      </g>
     </g>
     <g id="text_14">
      <!-- 70000 -->
      <g transform="translate(7.2 73.56462) scale(0.1 -0.1)">
       <defs>
        <path id="DejaVuSans-37" d="M 525 4666 
L 3525 4666 
L 3525 4397 
L 1831 0 
L 1172 0 
L 2766 4134 
L 525 4134 
L 525 4666 
z
" transform="scale(0.015625)"/>
       </defs>
       <use xlink:href="#DejaVuSans-37"/>
       <use xlink:href="#DejaVuSans-30" x="63.623047"/>
       <use xlink:href="#DejaVuSans-30" x="127.246094"/>
       <use xlink:href="#DejaVuSans-30" x="190.869141"/>
       <use xlink:href="#DejaVuSans-30" x="254.492188"/>
      </g>
     </g>
    </g>
    <g id="ytick_9">
     <g id="line2d_15">
      <g>
       <use xlink:href="#mc21e35b888" x="46.0125" y="34.928979" style="stroke: #000000; stroke-width: 0.8"/>
      </g>
     </g>
     <g id="text_15">
      <!-- 80000 -->
      <g transform="translate(7.2 38.728198) scale(0.1 -0.1)">
       <use xlink:href="#DejaVuSans-38"/>
       <use xlink:href="#DejaVuSans-30" x="63.623047"/>
       <use xlink:href="#DejaVuSans-30" x="127.246094"/>
       <use xlink:href="#DejaVuSans-30" x="190.869141"/>
       <use xlink:href="#DejaVuSans-30" x="254.492188"/>
      </g>
     </g>
    </g>
   </g>
   <g id="line2d_16">
    <path d="M 75.787792 312.674543 
L 75.801119 312.686735 
L 75.814446 312.613579 
L 75.834437 308.056104 
L 75.927729 311.95517 
L 76.061002 312.428075 
L 76.100984 312.397593 
L 76.234258 312.034423 
L 76.27424 312.166802 
L 76.607424 312.726797 
L 76.907289 312.910559 
L 77.600311 312.988941 
L 77.620302 312.873981 
L 77.713593 312.972394 
L 77.840203 313.030745 
L 78.879736 313.141351 
L 79.759341 313.257182 
L 80.479018 313.148318 
L 80.665601 312.813017 
L 80.732237 312.954105 
L 80.818865 313.029874 
L 80.825529 312.947138 
L 80.838856 311.436979 
L 80.898829 291.430422 
L 80.945475 306.767156 
L 81.092076 311.797536 
L 81.291986 312.55697 
L 81.551869 312.893141 
L 81.631833 312.94017 
L 81.678479 312.853079 
L 81.718461 312.29918 
L 81.738452 311.814954 
L 81.831744 311.99262 
L 82.144936 312.699799 
L 82.491447 312.936687 
L 83.137824 312.992425 
L 83.197797 311.547584 
L 83.217788 302.752259 
L 83.304415 310.438915 
L 83.45768 312.142416 
L 83.471007 312.091903 
L 83.58429 311.113871 
L 83.610944 311.463977 
L 83.764209 312.232991 
L 84.044083 312.659737 
L 84.603832 312.960201 
L 84.957006 312.941912 
L 85.136926 312.968039 
L 86.136477 313.148318 
L 86.163131 311.62945 
L 86.263086 312.867885 
L 86.423014 313.07342 
L 86.549624 312.890528 
L 86.576279 312.90185 
L 88.622027 313.323371 
L 89.028511 313.114352 
L 89.115139 311.771408 
L 89.181775 312.320082 
L 89.368358 312.965427 
L 89.93477 313.070807 
L 89.974752 312.971523 
L 90.001407 312.732023 
L 90.088035 312.880948 
L 90.334591 313.005489 
L 90.594474 312.934074 
L 90.707756 312.699799 
L 90.721084 311.795794 
L 90.861021 293.485771 
L 90.901003 289.549255 
L 90.954312 295.201464 
L 91.147559 306.558138 
L 91.234187 308.38705 
L 91.247514 307.699031 
L 91.320814 290.994967 
L 91.394115 297.239395 
L 91.653998 307.394212 
L 91.673989 302.412604 
L 91.733962 267.158145 
L 91.800599 283.531263 
L 91.960527 299.712781 
L 92.240401 306.889084 
L 92.560258 309.615034 
L 92.940087 311.010233 
L 93.233289 311.60071 
L 93.239952 311.592001 
L 93.393217 311.701736 
L 93.5798 311.936881 
L 93.793037 312.072743 
L 93.813028 312.079711 
L 93.946302 312.516908 
L 93.966293 312.522133 
L 93.986284 312.424591 
L 94.112894 312.210347 
L 94.132885 312.269569 
L 94.219512 312.487297 
L 94.246167 312.398464 
L 94.399432 311.10342 
L 94.499387 247.998113 
L 94.539369 269.24833 
L 94.692633 298.049342 
L 94.865889 305.304027 
L 95.072463 308.360923 
L 95.092454 308.012558 
L 95.219063 289.845365 
L 95.319018 297.274232 
L 95.61222 305.495627 
L 95.965395 309.301506 
L 96.498489 310.995427 
L 96.505152 310.979751 
L 96.558462 310.764636 
L 96.731717 309.789216 
L 96.778363 310.189835 
L 96.984937 310.936205 
L 97.278138 311.142611 
L 97.291466 311.106033 
L 97.664631 310.163708 
L 97.757923 303.553497 
L 97.817896 255.052489 
L 97.877869 285.142448 
L 98.037797 299.747617 
L 98.311008 306.714902 
L 98.737483 310.006944 
L 99.097321 311.062487 
L 99.110649 311.031134 
L 99.250586 311.351629 
L 99.397187 311.662545 
L 99.60376 311.835856 
L 99.737034 311.936881 
L 99.896962 312.072743 
L 100.150182 312.180736 
L 100.470038 312.354918 
L 100.490029 312.18422 
L 100.516684 311.346404 
L 100.63663 310.085326 
L 100.643293 310.111453 
L 100.889849 311.537133 
L 101.049778 311.825405 
L 101.076432 311.806245 
L 102.442485 312.570033 
L 102.86896 312.678897 
L 103.728574 312.898367 
L 105.53443 313.00723 
L 105.880941 313.023778 
L 106.627272 312.928848 
L 106.867164 311.732217 
L 106.96712 311.964751 
L 107.033756 312.06926 
L 107.640151 312.543035 
L 107.926689 312.649286 
L 108.266536 312.776439 
L 108.639702 312.886174 
L 108.792966 312.907076 
L 110.918678 313.067323 
L 111.08527 312.926236 
L 111.238534 312.316598 
L 111.425117 312.334017 
L 111.458435 312.347951 
L 111.471763 312.249538 
L 111.498417 310.989331 
L 111.625027 306.767156 
L 111.645018 307.429048 
L 111.651682 307.402921 
L 111.671673 307.725158 
L 111.824937 309.763089 
L 112.071493 311.053778 
L 112.078157 311.038973 
L 112.104812 311.187898 
L 112.111475 311.165255 
L 112.258076 311.646868 
L 112.398013 311.55281 
L 112.418004 311.431753 
L 112.497968 311.646868 
L 112.504632 311.609419 
L 112.677888 311.881143 
L 112.691215 311.875918 
L 112.831152 312.007425 
L 112.851143 311.98304 
L 112.857807 311.975201 
L 112.884462 312.063163 
L 112.91778 312.062292 
L 113.011071 312.07884 
L 113.031062 312.062292 
L 113.091035 311.942107 
L 113.237636 311.679963 
L 113.2443 311.701736 
L 113.304273 311.55281 
L 113.510847 309.26667 
L 113.684102 305.652391 
L 113.69743 305.774318 
L 113.797385 307.159066 
L 113.824039 307.106812 
L 113.837367 306.889084 
L 113.910667 307.847085 
L 114.037277 308.639614 
L 114.043941 308.465432 
L 114.130568 308.883469 
L 114.337142 310.050489 
L 114.343806 310.033071 
L 114.383788 310.23338 
L 114.397115 310.207253 
L 114.583698 310.648805 
L 114.696981 310.938818 
L 114.716972 310.895272 
L 114.863572 311.173093 
L 114.8769 311.099065 
L 114.896891 311.225347 
L 114.956864 311.187027 
L 114.970191 311.150449 
L 115.083474 311.327244 
L 115.103465 311.295891 
L 115.15011 311.384724 
L 115.170101 311.376886 
L 115.256729 311.593743 
L 115.323366 311.537133 
L 115.33003 311.512748 
L 115.350021 311.617257 
L 115.409994 311.577195 
L 115.563258 311.861983 
L 115.60324 311.853274 
L 115.596577 311.899432 
L 115.663213 311.909012 
L 115.816478 312.017876 
L 116.003061 312.109322 
L 116.009724 312.103225 
L 116.229626 311.630321 
L 116.262944 311.39953 
L 116.329581 311.680834 
L 116.336244 311.659061 
L 116.476181 311.853274 
L 116.576137 311.889852 
L 116.702746 312.030069 
L 116.70941 312.022231 
L 116.862675 312.072743 
L 117.115894 312.187704 
L 117.209186 312.21296 
L 117.222513 312.226024 
L 117.442414 312.330533 
L 117.695634 312.442009 
L 117.802252 312.49078 
L 118.182082 312.601386 
L 118.368665 312.654512 
L 119.128323 312.760763 
L 119.381543 312.818243 
L 119.854664 312.921881 
L 120.014592 312.94017 
L 120.494377 312.839145 
L 120.541022 312.309631 
L 120.62765 305.513045 
L 120.70095 299.146689 
L 120.760923 301.193329 
L 121.120762 308.691869 
L 121.127425 308.68316 
L 121.15408 307.22003 
L 121.260699 294.809555 
L 121.320672 299.268617 
L 121.53391 306.314283 
L 121.567228 306.418792 
L 121.573892 306.453629 
L 121.60721 306.070428 
L 121.620537 306.140101 
L 121.633865 306.122683 
L 121.647192 306.331701 
L 121.840439 308.787669 
L 122.306896 310.639225 
L 122.500142 311.076422 
L 122.520133 310.936205 
L 122.553452 308.622196 
L 122.626752 305.286609 
L 122.680061 305.843991 
L 122.906626 309.205706 
L 123.093209 310.024362 
L 123.539675 311.334211 
L 124.312661 312.163318 
L 124.492581 312.272182 
L 124.739136 312.41414 
L 124.792446 312.361886 
L 124.852419 311.255829 
L 124.932383 312.019618 
L 125.132293 312.41414 
L 125.292221 312.524746 
L 125.632069 312.651899 
L 125.97858 312.675414 
L 126.065207 312.187704 
L 126.138508 312.351435 
L 126.325091 312.583097 
L 126.858185 312.864401 
L 126.991458 312.799954 
L 127.058095 309.893725 
L 127.151386 310.957978 
L 127.331305 312.037036 
L 127.857736 312.713734 
L 128.064309 312.818243 
L 128.330856 312.938428 
L 128.497448 312.910559 
L 128.504112 312.857434 
L 128.530767 312.36624 
L 128.624058 307.150357 
L 128.650713 308.474141 
L 128.817305 311.431753 
L 129.023878 312.1459 
L 129.170479 312.29918 
L 129.177143 312.281762 
L 129.197134 310.465913 
L 129.263771 311.376015 
L 129.31708 302.856768 
L 129.450354 305.286609 
L 129.783537 309.353761 
L 130.056748 310.928367 
L 130.076739 310.231639 
L 130.183358 285.638867 
L 130.230003 294.226045 
L 130.409923 305.025335 
L 130.669806 309.327633 
L 130.829734 310.28128 
L 130.849725 310.160224 
L 130.856389 309.693416 
L 130.94968 310.552134 
L 131.016317 309.797925 
L 130.976335 310.665352 
L 131.042971 310.526006 
L 131.196236 311.232315 
L 131.296191 311.513619 
L 131.596056 311.947332 
L 131.696011 312.051842 
L 131.989213 312.239958 
L 132.00254 312.21296 
L 132.015868 312.177253 
L 132.075841 312.285246 
L 132.089168 312.288729 
L 132.215778 312.409786 
L 132.229105 312.351435 
L 132.242433 312.292213 
L 132.322397 312.469879 
L 132.662244 312.664963 
L 132.788854 312.734635 
L 132.975437 312.82521 
L 133.43523 312.933203 
L 133.661795 312.938428 
L 133.801732 312.811276 
L 133.81506 312.829565 
L 133.988315 312.981974 
L 134.528073 313.075161 
L 135.054503 313.117836 
L 135.06783 307.942886 
L 135.161122 312.541293 
L 135.334377 312.986329 
L 135.600924 313.110869 
L 136.547166 313.221474 
L 137.8799 313.290276 
L 138.099802 313.168349 
L 138.113129 310.683641 
L 138.213084 312.549131 
L 138.406331 312.950621 
L 138.512949 312.927107 
L 138.519613 312.908818 
L 138.526277 312.721572 
L 138.572922 287.415524 
L 138.639559 305.408536 
L 138.71286 309.85018 
L 138.746178 305.617555 
L 138.812815 264.806687 
L 138.879451 298.005796 
L 139.072698 309.092488 
L 139.345909 311.439591 
L 139.69242 312.262602 
L 139.719074 312.180736 
L 139.938975 312.596161 
L 140.16554 312.82521 
L 140.172204 312.799083 
L 140.205522 312.510811 
L 140.278823 312.800825 
L 140.49206 312.968039 
L 140.951854 313.076032 
L 141.345011 313.157898 
L 142.57779 313.366046 
L 142.617772 313.367787 
L 142.631099 312.846112 
L 142.724391 313.378238 
L 142.997602 313.424222 
L 143.504041 313.455575 
L 146.975815 313.384857 
L 147.015797 313.280696 
L 147.082433 313.377367 
L 147.40229 313.454269 
L 147.935383 313.421174 
L 148.068657 312.571775 
L 148.115303 304.337316 
L 148.141957 297.788069 
L 148.215258 309.127324 
L 148.395177 312.210347 
L 148.821652 313.100418 
L 149.421383 313.210153 
L 150.28766 313.43058 
L 153.419587 313.524029 
L 154.099281 313.528906 
L 175.089853 313.418823 
L 175.22979 313.368658 
L 175.516328 313.3225 
L 175.642937 313.221474 
L 175.649601 313.223216 
L 176.269323 313.278084 
L 176.422587 313.107385 
L 176.815744 313.144834 
L 177.815295 312.906205 
L 177.961896 312.550873 
L 177.975223 312.570033 
L 178.748209 313.037712 
L 179.47455 313.114352 
L 182.266629 313.042938 
L 182.393239 312.813017 
L 182.439884 312.747699 
L 182.513185 312.83479 
L 182.733086 312.989812 
L 182.859696 312.951492 
L 182.992969 311.360339 
L 183.052942 311.867209 
L 183.279507 312.58571 
L 183.965865 312.98807 
L 184.199094 312.837403 
L 184.259067 311.430011 
L 184.492296 244.42738 
L 184.552269 248.172295 
L 184.592251 215.338968 
L 185.358573 309.423434 
L 185.471856 310.49117 
L 185.505174 309.937271 
L 185.525165 308.378341 
L 185.605129 269.161239 
L 185.711748 290.986257 
L 185.738403 290.132765 
L 185.785048 292.431969 
L 186.058259 307.446467 
L 186.258169 309.876307 
L 186.777936 312.007425 
L 187.104456 312.379304 
L 187.291038 312.53781 
L 187.324357 312.380175 
L 187.38433 312.062292 
L 187.444303 312.295697 
L 187.957406 312.898367 
L 188.263935 312.999392 
L 188.530482 313.015069 
L 188.537145 312.977619 
L 188.590455 311.595484 
L 188.650428 308.987978 
L 188.710401 309.406015 
L 188.870329 311.671254 
L 188.896984 311.723508 
L 188.910311 311.601581 
L 188.970284 298.232233 
L 189.043585 299.216362 
L 189.110221 286.840723 
L 189.136876 281.745897 
L 189.190185 290.977548 
L 189.350114 305.739482 
L 189.550024 310.429335 
L 189.736607 311.031134 
L 189.79658 311.135644 
L 190.243046 311.825405 
L 190.376319 311.931656 
L 190.549575 312.058809 
L 190.736158 312.152867 
L 190.829449 312.257376 
L 191.042687 312.543035 
L 191.155969 312.641448 
L 191.349216 312.783406 
L 191.982265 312.989812 
L 193.708156 313.135254 
L 203.270527 313.500166 
L 203.417128 313.469336 
L 204.383361 313.50452 
L 207.815153 313.44286 
L 207.82848 313.134383 
L 207.935099 313.279825 
L 208.095027 313.333822 
L 208.348246 313.441815 
L 209.601017 313.526816 
L 216.091435 313.422916 
L 216.251363 313.244118 
L 216.744475 313.379109 
L 217.257578 313.218862 
L 217.384187 313.135254 
L 217.657398 313.144834 
L 218.157174 313.103901 
L 218.190492 312.836532 
L 218.250465 294.783427 
L 218.35042 304.755353 
L 218.523676 309.763089 
L 218.836868 312.160705 
L 219.070097 312.583097 
L 219.423272 312.939299 
L 220.196258 312.938428 
L 220.262894 312.678026 
L 220.589414 312.093645 
L 220.656051 312.18422 
L 220.902607 312.529971 
L 221.095854 312.724184 
L 221.329082 312.887916 
L 221.728903 312.972394 
L 221.86884 312.943654 
L 221.875503 312.913172 
L 222.055423 312.368853 
L 222.202023 312.267827 
L 222.222014 312.29918 
L 222.648489 312.726797 
L 222.66848 312.654512 
L 222.941691 311.076422 
L 223.041646 311.513619 
L 223.234893 312.111934 
L 223.614722 312.612708 
L 223.70135 312.689348 
L 223.734668 312.601386 
L 224.02787 311.326373 
L 224.061188 311.302858 
L 224.10117 311.423915 
L 224.281089 311.820179 
L 224.6276 312.358402 
L 225.300631 312.905334 
L 226.006981 313.01594 
L 226.153582 312.960201 
L 226.180236 312.41414 
L 226.193564 311.749636 
L 226.286855 312.386271 
L 226.473438 312.532584 
L 226.76664 312.760763 
L 226.926568 312.856563 
L 227.193115 312.924494 
L 228.07272 313.034229 
L 228.459213 313.022036 
L 228.479204 312.739861 
L 228.585822 289.662473 
L 228.692441 297.657432 
L 228.978979 306.401374 
L 229.232199 309.048942 
L 229.385463 309.75438 
L 229.90523 311.714799 
L 229.951875 311.584163 
L 230.011849 310.86479 
L 230.125131 296.290103 
L 230.211759 302.74355 
L 230.478306 307.759994 
L 230.811489 309.789216 
L 231.204646 311.121709 
L 231.437875 311.788827 
L 231.764395 312.034423 
L 231.891004 311.931656 
L 232.084251 311.173093 
L 232.150888 311.310697 
L 232.350798 311.745281 
L 232.444089 311.853274 
L 232.604018 312.090162 
L 233.077138 312.428075 
L 233.210412 312.48033 
L 233.337022 312.588322 
L 233.930089 312.912301 
L 234.110008 312.885303 
L 234.256609 312.943654 
L 235.00294 313.024649 
L 235.409424 312.906205 
L 235.549361 312.368853 
L 235.58268 312.41414 
L 235.629325 312.340984 
L 235.742608 312.497748 
L 235.842563 312.577872 
L 235.869217 312.455944 
L 235.962509 308.630905 
L 236.035809 307.402921 
L 236.075791 308.012558 
L 236.349002 310.154998 
L 236.482275 310.799472 
L 236.742159 311.788827 
L 236.995378 312.163318 
L 237.008706 312.072743 
L 237.101997 312.187704 
L 237.248598 312.295697 
L 237.295244 312.327049 
L 237.321898 312.210347 
L 237.341889 311.2567 
L 237.368544 301.76813 
L 237.701728 296.80394 
L 237.761701 292.301332 
L 237.821674 294.731173 
L 238.021584 301.524275 
L 238.361431 306.993593 
L 239.214382 310.877854 
L 239.221045 310.860436 
L 239.274355 311.024167 
L 239.660848 311.956041 
L 240.200605 312.48033 
L 240.527125 312.664963 
L 240.667062 312.724184 
L 241.046892 312.880948 
L 241.433385 312.95933 
L 241.500021 312.851337 
L 241.573322 312.689348 
L 241.639959 312.732023 
L 241.85986 312.974136 
L 242.83942 313.116965 
L 244.245455 313.2267 
L 244.838522 313.267633 
L 246.877606 313.377367 
L 247.397372 313.400882 
L 248.037085 313.429274 
L 251.722096 313.539531 
L 252.601701 313.566007 
L 253.607916 313.597534 
L 254.554158 313.609813 
L 270.313745 313.501211 
L 270.606947 313.412465 
L 270.920139 313.4237 
L 271.699789 313.494418 
L 277.690432 313.604153 
L 278.150225 313.611991 
L 279.196422 313.585689 
L 280.042708 313.60633 
L 281.422089 313.585689 
L 281.868555 313.592831 
L 283.334563 313.579767 
L 283.707729 313.577154 
L 285.147082 313.467332 
L 285.366983 313.364304 
L 285.826777 313.480483 
L 286.686391 313.536483 
L 287.732587 313.504172 
L 287.772569 313.199702 
L 287.925834 312.623159 
L 287.939161 312.644061 
L 288.199045 313.114352 
L 288.612192 313.253698 
L 289.67838 313.146576 
L 289.871627 313.089967 
L 290.504676 313.200573 
L 291.337635 313.309436 
L 291.577527 313.260665 
L 292.043984 313.167478 
L 292.077302 312.691961 
L 292.197249 310.843018 
L 292.237231 311.069454 
L 292.263885 311.046811 
L 292.457132 312.062292 
L 292.910262 312.948879 
L 293.749884 313.15964 
L 294.056413 313.085612 
L 294.076404 312.570033 
L 294.196351 311.318535 
L 294.256324 311.0172 
L 294.309633 311.302858 
L 294.536198 312.15548 
L 294.969337 312.854821 
L 295.242547 312.981974 
L 295.742323 313.09258 
L 295.995542 313.046421 
L 296.548627 312.877465 
L 297.088385 313.037712 
L 297.601488 313.082129 
L 299.067496 313.167478 
L 299.227424 313.132642 
L 299.560608 313.145705 
L 301.286499 313.043809 
L 301.479746 312.948009 
L 301.613019 312.936687 
L 301.619683 312.910559 
L 301.692983 311.958654 
L 301.786275 308.848633 
L 301.88623 309.597616 
L 302.112795 311.44743 
L 302.126122 311.529295 
L 302.139449 311.016329 
L 302.15944 310.04178 
L 302.246068 311.44743 
L 302.459306 312.229507 
L 302.672543 312.476846 
L 302.692534 312.466395 
L 302.772498 312.368853 
L 303.01239 312.086678 
L 303.019054 312.097129 
L 303.165655 312.207735 
L 303.385556 312.519521 
L 303.872004 312.927107 
L 304.038596 312.977619 
L 304.358452 313.055131 
L 305.67786 313.116965 
L 305.957734 313.157027 
L 306.424191 313.222345 
L 306.777366 313.287664 
L 307.143868 313.228442 
L 307.443733 312.603999 
L 307.503706 312.864401 
L 307.690289 313.03597 
L 308.0368 313.167478 
L 308.729822 313.319887 
L 310.035902 313.270245 
L 310.04923 313.19796 
L 310.135857 313.352982 
L 310.402404 313.426225 
L 311.202045 313.484315 
L 312.288224 313.542666 
L 313.467694 313.561304 
L 315.786652 313.452092 
L 315.939917 313.497553 
L 316.732894 313.510268 
L 317.412589 313.424222 
L 317.532535 312.964556 
L 317.57918 313.075161 
L 318.125602 313.345144 
L 318.138929 313.311178 
L 318.225557 313.225829 
L 318.252211 292.292623 
L 318.352167 301.611366 
L 318.478776 310.229897 
L 318.492104 309.989525 
L 318.552077 298.989925 
L 318.572068 294.356681 
L 318.638705 306.54072 
L 318.805296 311.187027 
L 318.88526 311.83063 
L 318.918579 311.303729 
L 318.925243 311.18006 
L 318.998543 311.784472 
L 319.185126 312.368853 
L 319.484991 312.948879 
L 319.99143 313.149189 
L 323.223312 313.459756 
L 325.035831 313.505653 
L 325.169104 313.459233 
L 325.822144 313.518803 
L 326.375229 313.535176 
L 328.02782 313.516713 
L 335.184606 313.40663 
L 335.33787 313.440944 
L 336.950479 313.541099 
L 337.75012 313.526816 
L 338.096631 313.521416 
L 338.636388 313.392173 
L 338.829635 312.743345 
L 339.442693 312.259118 
L 339.749222 312.263473 
L 339.862504 307.568394 
L 339.969123 308.822505 
L 340.189024 310.539941 
L 340.515544 311.436108 
L 340.682136 311.736572 
L 341.08862 312.293084 
L 341.908252 312.894883 
L 342.288081 312.893141 
L 343.021085 313.034229 
L 343.061068 312.653641 
L 343.201005 311.817567 
L 343.280969 311.598968 
L 343.360933 311.686059 
L 344.007309 312.495135 
L 344.15391 312.58571 
L 344.35382 312.711992 
L 344.793623 312.915785 
L 345.00686 312.995909 
L 346.56616 313.319016 
L 346.912671 313.342531 
L 348.378679 313.422306 
L 352.057027 313.319887 
L 352.496829 312.538681 
L 352.503493 312.543906 
L 352.77004 312.653641 
L 353.276479 312.917527 
L 353.363107 312.755537 
L 353.389761 312.001329 
L 353.483053 304.842444 
L 353.543026 307.237448 
L 353.709618 308.67445 
L 353.716281 308.665741 
L 353.742936 308.805087 
L 354.016147 310.111453 
L 354.136093 310.448495 
L 354.835778 311.578066 
L 354.915742 311.699123 
L 355.168962 311.911625 
L 355.342218 312.015263 
L 355.355545 311.927301 
L 355.535464 311.335082 
L 355.575446 311.416948 
L 355.861984 311.767925 
L 356.10854 311.982169 
L 356.30845 312.051842 
L 356.341769 312.041391 
L 356.415069 310.369242 
L 356.515024 310.860436 
L 356.535015 310.790763 
L 356.594988 310.952752 
L 356.848208 311.337695 
L 356.868199 311.308084 
L 356.908181 310.614839 
L 357.008136 309.188288 
L 357.061445 309.641161 
L 357.361311 310.637483 
L 357.934386 311.379499 
L 357.94105 311.346404 
L 358.007687 310.804698 
L 358.080987 311.014587 
L 358.300889 311.337695 
L 358.567435 311.601581 
L 359.140511 312.111063 
L 359.273785 311.885498 
L 359.307103 311.817567 
L 359.37374 311.953429 
L 359.680269 312.231249 
L 359.840197 312.340984 
L 360.053435 312.489039 
L 360.120071 312.508199 
L 360.15339 312.436784 
L 360.293327 312.033552 
L 360.3533 312.076227 
L 360.47991 312.12674 
L 360.773111 312.435042 
L 360.93304 312.543906 
L 361.892608 312.948879 
L 361.9126 312.833048 
L 361.999227 312.489039 
L 362.065864 312.650157 
L 362.38572 312.886174 
L 362.558976 312.964556 
L 362.572303 312.927978 
L 362.618949 312.686735 
L 362.758886 312.111063 
L 362.772213 312.12674 
L 362.798868 312.177253 
L 362.812195 312.063163 
L 362.858841 312.057067 
L 363.032097 311.825405 
L 363.065415 311.854145 
L 363.371944 312.215573 
L 364.591396 313.032487 
L 365.284418 313.10216 
L 365.404364 313.098676 
L 365.417692 313.109127 
L 365.517647 313.037712 
L 365.564293 313.05426 
L 365.610938 313.096063 
L 366.170687 313.198831 
L 366.377261 313.143092 
L 366.390588 312.765117 
L 366.490543 312.938428 
L 366.610489 312.754666 
L 366.730435 312.429817 
L 366.790408 312.577001 
L 366.857045 312.683252 
L 366.890364 312.579613 
L 366.910355 311.994361 
L 367.030301 311.193995 
L 367.036964 311.179189 
L 367.076946 311.353371 
L 367.176901 311.693897 
L 367.216884 311.487492 
L 367.276857 310.658385 
L 367.356821 310.900498 
L 367.530076 311.54323 
L 367.563395 311.47617 
L 368.183116 312.587452 
L 368.816165 313.01681 
L 368.929448 312.797341 
L 369.022739 312.709379 
L 368.989421 312.832177 
L 369.04273 312.738119 
L 369.44255 313.00636 
L 369.469205 312.934945 
L 369.482532 312.927978 
L 369.509187 312.976749 
L 369.562497 312.994167 
L 369.575824 313.002005 
L 369.589151 312.764246 
L 369.689106 312.877465 
L 370.075599 313.123062 
L 370.2222 313.170962 
L 370.795276 313.278084 
L 372.38123 313.385206 
L 372.514504 313.393044 
L 372.781051 313.406717 
L 373.787265 313.467245 
L 374.200413 313.44077 
L 374.227068 312.408044 
L 374.313696 313.069936 
L 374.440305 313.395569 
L 374.493615 313.376496 
L 375.106673 313.485709 
L 375.153319 313.487799 
L 375.17331 313.412291 
L 375.359892 312.926236 
L 375.393211 313.049905 
L 375.57313 313.308565 
L 375.846341 313.408894 
L 376.032923 313.439899 
L 376.546026 313.485709 
L 379.411406 313.595879 
L 379.964491 313.609465 
L 380.357647 313.547021 
L 380.810777 313.554859 
L 381.057333 313.577503 
L 381.610418 313.601191 
L 381.843647 313.610946 
L 382.056884 313.52699 
L 382.096866 313.375451 
L 382.116857 313.142222 
L 382.210149 313.337306 
L 382.543332 313.495637 
L 383.169718 313.509572 
L 383.189709 313.008101 
L 383.283 313.332951 
L 383.469583 313.451569 
L 384.235905 313.576632 
L 384.429152 313.585602 
L 384.968909 313.605633 
L 385.188811 313.608681 
L 385.468685 313.586473 
L 385.981788 313.56261 
L 386.115061 313.577503 
L 386.34829 313.596663 
L 386.488227 313.595008 
L 386.641491 313.573409 
L 386.648155 313.543276 
L 386.821411 311.468332 
L 386.914702 312.30876 
L 387.107949 312.744215 
L 387.114612 312.736377 
L 387.267877 311.809728 
L 387.294531 311.530166 
L 387.361168 311.864596 
L 387.541087 312.484684 
L 387.754325 312.79647 
L 387.760989 312.788632 
L 387.794307 312.85395 
L 387.827625 312.872239 
L 388.50732 313.264149 
L 389.36027 313.373013 
L 389.573508 313.379109 
L 389.826727 313.413162 
L 390.26653 313.450176 
L 390.653023 313.417865 
L 390.806287 313.343402 
L 390.926233 313.331209 
L 390.966215 313.298985 
L 391.039516 313.33208 
L 391.159462 313.365175 
L 391.166126 313.357336 
L 391.332717 313.386077 
L 391.492646 313.412204 
L 391.705883 313.443382 
L 391.712547 313.433019 
L 397.170095 313.472035 
L 397.316696 313.407501 
L 397.32336 313.41203 
L 397.876445 313.14048 
L 397.956409 313.077774 
L 398.029709 313.02639 
L 398.069691 313.049034 
L 398.216292 313.135254 
L 398.336238 313.174445 
L 398.569467 313.232796 
L 398.62944 313.229313 
L 398.676086 313.263278 
L 398.889323 313.314662 
L 399.289144 313.318145 
L 399.40909 313.349498 
L 399.415753 313.337306 
L 399.449072 313.359949 
L 399.522372 313.343402 
L 399.615664 313.375626 
L 399.635655 313.346886 
L 399.928856 313.385206 
L 400.188739 312.975007 
L 400.235385 309.858889 
L 400.348668 305.730773 
L 400.368659 306.63652 
L 400.608551 309.972107 
L 400.801797 310.779441 
L 401.148308 311.733088 
L 401.64142 312.324437 
L 401.648084 312.317469 
L 401.654748 312.307018 
L 401.714721 312.415011 
L 401.728048 312.397593 
L 401.861321 312.570904 
L 401.887976 312.543035 
L 401.954613 312.64319 
L 402.034577 312.675414 
L 402.041241 312.697186 
L 402.22116 312.798212 
L 402.227823 312.790374 
L 404.620082 313.316404 
L 404.713374 313.295502 
L 404.640073 313.333822 
L 404.733365 313.326855 
L 404.853311 313.299856 
L 404.866638 313.325984 
L 404.879965 313.30334 
L 405.019903 313.317275 
L 405.03323 313.333822 
L 405.126521 313.307695 
L 405.193158 313.344273 
L 405.239804 313.314662 
L 405.35975 313.348627 
L 405.926162 313.353853 
L 406.032781 313.386077 
L 406.039445 313.358207 
L 406.239355 313.39705 
L 406.312655 313.36082 
L 406.352637 313.388689 
L 408.178484 313.346015 
L 408.29843 313.203185 
L 408.311757 313.210153 
L 408.485013 312.943654 
L 408.531658 312.984587 
L 408.564977 312.961072 
L 408.664932 313.04468 
L 408.764887 312.983716 
L 408.778214 313.005489 
L 408.991452 312.954976 
L 409.158044 313.046421 
L 409.191362 313.062969 
L 409.271326 312.98807 
L 409.297981 313.056872 
L 409.324636 312.967169 
L 409.384609 312.995038 
L 409.73112 312.71025 
L 409.864393 310.686254 
L 409.957685 308.561232 
L 410.00433 308.717996 
L 410.010994 308.665741 
L 410.05764 308.935724 
L 410.064303 308.892178 
L 410.177586 309.623743 
L 410.190913 309.580197 
L 410.277541 309.527943 
L 410.224232 309.684707 
L 410.290868 309.55407 
L 410.337514 309.719543 
L 410.390823 309.432143 
L 410.484115 309.353761 
L 410.430805 309.510525 
L 410.490778 309.45827 
L 410.570743 309.658579 
L 410.510769 309.414724 
L 410.610725 309.597616 
L 410.624052 309.545361 
L 410.637379 309.815343 
L 410.670698 309.771798 
L 410.737334 309.928562 
L 410.763989 309.658579 
L 410.943908 308.822505 
L 410.957236 308.961851 
L 411.143818 309.789216 
L 411.150482 309.75438 
L 411.243774 309.64987 
L 411.210455 309.806634 
L 411.263765 309.702125 
L 411.290419 309.867598 
L 411.323738 309.493106 
L 411.483666 301.28042 
L 411.576957 303.283514 
L 411.743549 306.584265 
L 411.983441 308.439305 
L 412.070069 308.866051 
L 412.003432 308.38705 
L 412.116715 308.796378 
L 412.156697 308.439305 
L 412.229997 308.517687 
L 412.243325 308.448014 
L 412.456562 309.17087 
L 412.463226 309.083778 
L 412.536526 309.388597 
L 412.549854 309.353761 
L 412.676463 309.728252 
L 412.563181 309.336343 
L 412.683127 309.675998 
L 412.689791 309.606325 
L 412.756427 309.824052 
L 412.783082 309.771798 
L 412.976329 310.195931 
L 413.076284 310.386661 
L 413.002983 310.163708 
L 413.096275 310.353566 
L 413.102938 310.198544 
L 413.19623 310.422368 
L 413.202894 310.363146 
L 413.262867 310.48159 
L 413.26953 310.329181 
L 413.289521 309.022815 
L 413.369485 302.038112 
L 413.416131 302.525822 
L 413.602714 306.688774 
L 413.815951 308.421886 
L 414.395691 310.69235 
L 414.435673 310.425852 
L 414.468991 310.292602 
L 414.475655 310.407562 
L 414.548956 310.8735 
L 414.595601 310.706285 
L 414.602265 310.72109 
L 414.615592 309.684707 
L 414.722211 310.058327 
L 414.855485 310.94056 
L 414.868812 310.694963 
L 414.962103 311.07468 
L 414.995422 310.870016 
L 415.008749 311.153062 
L 415.068722 311.123451 
L 415.082049 311.190511 
L 415.095377 311.098195 
L 415.221987 311.463106 
L 415.541843 312.058809 
L 415.561834 311.989136 
L 415.601816 311.990007 
L 415.60848 312.093645 
L 415.628471 312.067518 
L 415.75508 312.213831 
L 415.761744 312.209476 
L 415.80839 312.279149 
L 415.775071 312.276536 
L 415.815054 312.305277 
L 415.968318 312.459428 
L 415.988309 312.446364 
L 416.168228 312.473362 
L 417.754182 312.198155 
L 417.980747 312.494264 
L 417.994075 312.442009 
L 418.134012 312.194671 
L 418.22064 312.306147 
L 418.527169 312.584839 
L 420.086468 313.278084 
L 420.37967 313.022907 
L 420.45297 312.898367 
L 420.50628 312.914043 
L 420.606235 312.555228 
L 420.646217 311.770537 
L 420.732844 290.150183 
L 420.819472 301.463311 
L 420.999391 307.071975 
L 421.379221 309.74567 
L 421.392548 309.667289 
L 421.419203 309.371179 
L 421.492503 309.824052 
L 421.63244 310.094035 
L 421.539149 309.780507 
L 421.639104 310.085326 
L 421.659095 308.639614 
L 421.745723 293.956062 
L 421.785705 300.810128 
L 421.952297 306.453629 
L 422.132216 308.143195 
L 422.158871 307.829667 
L 422.192189 307.402921 
L 422.278817 307.533558 
L 422.498718 308.97056 
L 422.751937 309.719543 
L 422.858556 309.954689 
L 422.898538 309.876307 
L 422.918529 309.466979 
L 423.005157 309.832762 
L 423.031812 309.980816 
L 423.085121 309.658579 
L 423.131767 308.047395 
L 423.145094 307.106812 
L 423.231722 309.022815 
L 423.478278 310.094035 
L 423.651533 310.501621 
L 423.658197 310.520781 
L 423.684852 310.303053 
L 423.811462 309.223124 
L 423.838116 309.466979 
L 423.871435 309.571488 
L 424.071345 310.282151 
L 424.804349 311.637288 
L 425.07756 311.964751 
L 425.137533 312.06926 
L 425.397416 312.273053 
L 426.063783 312.661479 
L 426.183729 312.664092 
L 426.190393 312.673672 
L 426.436949 312.79647 
L 426.543568 312.647544 
L 426.603541 311.663415 
L 426.630195 309.580197 
L 426.716823 311.085131 
L 426.736814 311.207929 
L 426.78346 310.897014 
L 427.023352 303.536078 
L 427.076662 305.809155 
L 427.276572 309.075069 
L 427.529791 310.56781 
L 428.08954 311.919463 
L 428.236141 311.398659 
L 428.256132 311.327244 
L 428.316105 311.497942 
L 428.48936 312.124127 
L 428.749244 312.435042 
L 428.989136 312.57613 
L 429.01579 311.754861 
L 429.122409 305.277899 
L 429.162391 308.003849 
L 429.282337 310.059198 
L 429.295665 309.336343 
L 429.302328 308.953142 
L 429.39562 309.902434 
L 429.59553 310.764636 
L 429.602194 310.713252 
L 429.662167 307.263575 
L 429.72214 309.580197 
L 429.888732 310.64445 
L 429.948705 310.619194 
L 429.908723 310.597421 
L 429.962032 310.573906 
L 430.155279 308.056104 
L 430.201924 308.909596 
L 430.221915 309.153451 
L 430.268561 308.543814 
L 430.315207 308.944433 
L 430.348525 308.900887 
L 430.361852 308.987978 
L 430.595081 310.27083 
L 431.208139 311.574583 
L 431.221466 311.535392 
L 431.241457 307.272285 
L 431.341412 310.610485 
L 431.794542 312.03094 
L 432.221017 312.351435 
L 432.234345 312.255635 
L 432.3343 311.96388 
L 432.354291 312.065776 
L 432.634165 312.47075 
L 433.11395 312.776439 
L 433.380497 312.896625 
L 433.620389 313.00636 
L 433.833626 313.069065 
L 433.986891 313.112611 
L 434.326738 313.166607 
L 434.486666 313.060356 
L 434.526648 312.967169 
L 434.599949 313.041196 
L 434.953123 313.18838 
L 435.086397 313.19796 
L 438.251642 313.307695 
L 438.658126 313.307695 
L 438.798063 313.292018 
L 439.977533 313.259794 
L 440.077488 311.302858 
L 440.104143 307.960304 
L 440.184107 311.710445 
L 440.344035 312.877465 
L 440.590591 313.203185 
L 441.003739 313.295502 
L 441.756734 313.379109 
L 444.122338 313.488844 
L 444.515495 313.497205 
L 449.280021 313.40123 
L 449.339994 312.487297 
L 449.413295 312.942783 
L 449.433286 312.869627 
L 449.479931 313.083 
L 449.666514 313.394786 
L 449.893079 313.456185 
L 450.199608 313.489192 
L 451.059222 313.398443 
L 451.152513 310.927496 
L 451.205823 304.215389 
L 451.265796 306.096555 
L 451.465706 310.83605 
L 451.752244 312.373208 
L 452.105419 312.962814 
L 452.691822 313.285051 
L 452.771786 313.180542 
L 452.825095 312.785148 
L 453.118297 310.120162 
L 454.224467 312.708508 
L 454.624287 312.968039 
L 454.890834 313.076032 
L 455.283991 313.15964 
L 455.323973 312.900979 
L 455.470574 308.97056 
L 455.577193 309.867598 
L 455.890385 311.201833 
L 456.563416 312.513424 
L 456.836627 312.638835 
L 456.856618 312.529101 
L 456.909927 312.111063 
L 456.989891 312.250409 
L 457.116501 312.351435 
L 457.34973 312.565679 
L 457.356393 312.539551 
L 457.416366 312.201638 
L 457.483003 310.241219 
L 457.576295 259.407041 
L 457.602949 133.125013 
L 457.696241 36.97649 
L 457.709568 192.172748 
L 457.836178 296.046248 
L 458.016097 303.509951 
L 458.309299 307.341957 
L 458.549191 308.691869 
L 458.795747 309.571488 
L 459.095612 310.313504 
L 459.528751 310.761152 
L 459.588724 310.573035 
L 459.662024 310.401466 
L 459.728661 310.461559 
L 460.008535 310.850856 
L 460.128482 310.957978 
L 460.694894 311.456139 
L 461.034741 311.881143 
L 461.394579 312.100613 
L 461.601153 312.205122 
L 461.927673 312.386271 
L 462.24753 312.487297 
L 462.440776 312.591806 
L 462.767296 312.698057 
L 463.007188 312.74857 
L 463.360363 312.852208 
L 463.440327 312.841757 
L 463.466982 312.809534 
L 464.399896 313.057743 
L 464.579815 313.086483 
L 465.452757 313.202314 
L 465.932541 313.250214 
L 466.532272 313.29376 
L 466.865455 313.198831 
L 466.918765 312.753795 
L 466.945419 312.1459 
L 467.045374 312.229507 
L 467.178648 312.135449 
L 467.225294 312.190316 
L 467.591796 312.599644 
L 468.27149 312.74857 
L 468.45141 312.814759 
L 468.904539 312.929719 
L 469.071131 312.856563 
L 469.217732 309.301506 
L 469.344342 309.728252 
L 469.410979 308.622196 
L 469.490943 307.620649 
L 469.544252 308.038686 
L 469.750826 309.040233 
L 469.784144 309.101197 
L 469.824126 308.935724 
L 469.850781 309.031524 
L 470.010709 309.36247 
L 470.050691 309.440852 
L 470.290583 310.128871 
L 470.397202 310.445883 
L 470.890314 311.32376 
L 471.510036 312.020489 
L 471.516699 312.003071 
L 471.59 311.668641 
L 471.636645 311.832372 
L 471.836556 312.100613 
L 472.163076 312.340984 
L 472.382977 312.479459 
L 472.549569 312.555228 
L 472.562896 312.463782 
L 472.589551 311.789697 
L 472.69617 309.571488 
L 472.729488 309.728252 
L 473.009362 310.846501 
L 473.235927 311.319406 
L 473.489147 311.769667 
L 473.809003 312.072743 
L 473.888967 312.152867 
L 474.115532 312.362757 
L 476.227916 313.072549 
L 476.747683 313.182283 
L 476.987575 313.136996 
L 477.054212 313.070807 
L 477.114185 313.128287 
L 477.320759 313.210153 
L 477.334086 313.133512 
L 477.46736 311.921205 
L 477.600633 308.866051 
L 477.780552 310.765507 
L 478.200364 312.135449 
L 478.460247 312.508199 
L 478.926704 312.889657 
L 478.953359 312.873981 
L 478.960022 312.788632 
L 479.006668 311.464848 
L 479.04665 305.034044 
L 479.119951 309.423434 
L 479.29987 311.043327 
L 479.37317 311.385595 
L 479.439807 311.214026 
L 479.526435 311.500555 
L 479.892937 312.22254 
L 480.086183 312.455944 
L 480.139493 312.402819 
L 480.452685 312.644061 
L 480.639268 312.73899 
L 480.745887 312.725926 
L 480.765878 312.74857 
L 481.065743 312.933203 
L 481.392263 312.846112 
L 481.432245 312.389755 
L 481.478891 307.820958 
L 481.545528 309.980816 
L 481.71212 310.629645 
L 481.865384 311.131289 
L 481.892039 311.109516 
L 482.531751 312.474233 
L 482.944899 312.668446 
L 482.971554 312.563066 
L 483.051518 312.057067 
L 483.098164 312.205993 
L 483.244764 311.118225 
L 483.311401 311.439591 
L 483.54463 312.201638 
L 483.971105 312.797341 
L 484.357598 313.041196 
L 484.39758 313.049905 
L 484.404244 312.973265 
L 484.444226 312.456815 
L 484.510862 312.973265 
L 484.857373 313.1788 
L 485.143911 313.28418 
L 485.150575 313.257182 
L 485.163902 311.780117 
L 485.17723 295.14921 
L 485.270521 312.01178 
L 485.437113 312.880948 
L 485.796951 313.170091 
L 486.336709 313.329467 
L 486.829821 313.336435 
L 486.836484 313.282438 
L 486.869803 313.365175 
L 486.93644 313.330338 
L 487.496188 313.222345 
L 487.629462 313.192734 
L 487.716089 313.266762 
L 487.869354 313.276342 
L 487.882681 313.234538 
L 487.995964 312.968039 
L 488.029282 313.004618 
L 488.235856 313.171833 
L 488.555712 313.347756 
L 488.629013 313.368658 
L 488.635676 313.305953 
L 488.668995 311.028522 
L 488.76895 312.782536 
L 488.955533 313.201443 
L 488.975524 313.177058 
L 489.048824 313.260665 
L 489.455308 313.400359 
L 489.515281 312.879207 
L 489.595245 313.023778 
L 489.828474 313.130029 
L 490.141666 313.358207 
L 490.414877 313.432409 
L 491.98084 313.356466 
L 492.03415 311.574583 
L 492.147432 312.649286 
L 492.187414 312.802566 
L 492.240724 312.602257 
L 492.247387 312.602257 
L 492.267378 311.661674 
L 492.354006 312.581355 
L 492.513934 312.932332 
L 492.767154 313.231054 
L 493.073683 313.368658 
L 493.08701 313.292018 
L 493.107001 312.071873 
L 493.133656 306.854247 
L 493.220284 309.841471 
L 493.346893 311.640772 
L 493.366884 311.4004 
L 493.446848 305.068881 
L 493.520149 307.594521 
L 493.553467 306.819411 
L 493.620104 308.143195 
L 493.846669 310.486815 
L 494.173189 311.909883 
L 494.246489 311.153062 
L 494.213171 311.982169 
L 494.293135 311.832372 
L 494.353108 311.968234 
L 494.373099 311.864596 
L 494.426408 311.369919 
L 494.493045 311.438721 
L 494.71961 310.067907 
L 494.726274 310.094035 
L 494.766256 310.198544 
L 495.126094 311.294149 
L 495.139421 311.219251 
L 495.166076 310.499879 
L 495.179403 309.16216 
L 495.272695 310.563455 
L 495.292686 310.64445 
L 495.29935 310.53907 
L 495.312677 306.671356 
L 495.405968 310.649676 
L 495.485932 310.954494 
L 496.052345 312.257376 
L 496.178955 312.445493 
L 496.398856 312.644061 
L 496.405519 312.63361 
L 496.445501 312.441139 
L 496.512138 312.654512 
L 496.592102 312.706766 
L 496.612093 312.668446 
L 496.658739 312.413269 
L 496.725376 312.602257 
L 497.025241 312.867014 
L 497.325106 312.976749 
L 497.711599 313.138738 
L 498.044783 313.243247 
L 498.251357 313.298985 
L 498.791114 313.393044 
L 499.784002 313.388428 
L 499.890621 312.220798 
L 499.923939 312.725926 
L 500.077203 313.187509 
L 500.417051 313.382593 
L 500.810208 313.46411 
L 501.263337 313.493373 
L 501.556539 313.517061 
L 502.829301 313.407675 
L 502.869283 313.2746 
L 502.949247 312.78689 
L 502.995892 312.983716 
L 503.195803 313.333822 
L 503.548977 313.432409 
L 504.002107 313.325984 
L 504.202017 313.008101 
L 504.248663 313.076032 
L 504.761766 313.340789 
L 506.201119 313.450872 
L 506.627594 313.469336 
L 507.240652 313.485012 
L 511.64534 313.379109 
L 511.805269 313.38956 
L 512.178434 313.459581 
L 515.110451 313.497553 
L 515.223733 313.573496 
L 519.175291 313.462978 
L 519.715049 313.305953 
L 520.141524 313.404191 
L 522.173944 313.515145 
L 522.62041 313.528209 
L 522.74702 313.439812 
L 522.787002 310.60613 
L 522.880294 312.41414 
L 523.120186 312.859176 
L 523.413388 313.087354 
L 523.633289 313.19796 
L 523.886508 313.248473 
L 523.899836 313.220604 
L 524.372957 312.726797 
L 524.659495 312.896625 
L 526.891825 313.366916 
L 527.245 313.259794 
L 527.624829 312.944525 
L 527.664811 311.952558 
L 527.764766 312.20338 
L 527.818076 311.964751 
L 527.904703 312.086678 
L 527.984668 312.027456 
L 528.037977 312.093645 
L 528.057968 312.104096 
L 528.091286 312.013521 
L 528.357833 311.42827 
L 528.451125 311.501426 
L 529.290748 312.612708 
L 530.017088 312.88269 
L 530.030415 312.78689 
L 530.05707 312.037036 
L 530.177016 309.667289 
L 530.210334 309.16216 
L 530.283635 309.64987 
L 530.370263 310.120162 
L 530.396917 309.824052 
L 530.490209 305.234354 
L 530.563509 306.383956 
L 530.78341 308.987978 
L 530.830056 309.196997 
L 530.843383 308.918305 
L 530.863374 307.141648 
L 530.96333 308.421886 
L 531.089939 309.057651 
L 531.309841 310.094035 
L 531.343159 310.198544 
L 531.549733 310.562585 
L 531.782961 310.9693 
L 531.802952 310.77857 
L 531.909571 308.726705 
L 531.989535 308.996687 
L 532.309392 310.362275 
L 532.962432 311.617257 
L 533.628799 312.344468 
L 533.635463 312.315727 
L 533.782063 312.192929 
L 533.922001 312.257376 
L 534.321821 312.599644 
L 534.395121 312.644061 
L 534.408449 312.57613 
L 534.488413 309.379888 
L 534.50174 309.580197 
L 534.548386 288.930909 
L 534.575041 264.28414 
L 534.648341 299.207653 
L 534.821596 306.227192 
L 535.034834 308.517687 
L 535.148116 309.118615 
L 535.181435 309.284088 
L 535.221417 308.97056 
L 535.254735 289.453455 
L 535.288054 237.895551 
L 535.361354 293.88639 
L 535.514618 304.215389 
L 535.73452 307.22003 
L 535.741183 307.211321 
L 535.754511 302.25584 
L 535.867793 36.19267 
L 535.881121 222.393343 
L 536.00773 297.465832 
L 536.194313 304.250225 
L 536.374232 306.592974 
L 536.407551 306.270737 
L 536.440869 304.555044 
L 536.554152 300.618528 
L 536.574143 301.158493 
L 536.794044 306.070428 
L 537.487066 309.867598 
L 537.933532 310.728928 
L 538.513272 311.665157 
L 538.686527 311.846307 
L 538.886437 312.010038 
L 538.893101 311.996103 
L 538.933083 311.989136 
L 538.986392 312.055325 
L 538.99972 312.058809 
L 539.046365 310.039167 
L 539.086347 302.717422 
L 539.166311 306.392665 
L 539.346231 309.806634 
L 539.592787 310.883951 
L 539.839343 311.38995 
L 540.139208 311.940365 
L 540.165863 311.824534 
L 540.17919 311.735701 
L 540.25249 311.978685 
L 540.259154 311.997845 
L 540.265818 311.957783 
L 540.299136 310.154998 
L 540.399091 311.046811 
L 540.665638 312.017005 
L 541.125431 312.535197 
L 541.43196 312.644061 
L 541.505261 312.488168 
L 541.598552 312.584839 
L 541.625207 312.463782 
L 541.705171 311.213155 
L 541.751817 311.662545 
L 541.951727 312.435042 
L 542.518139 312.931461 
L 543.204498 313.173574 
L 543.351098 313.168349 
L 543.544345 313.218862 
L 543.804228 313.204927 
L 544.583878 313.304211 
L 544.670506 313.184025 
L 544.723815 313.290276 
L 545.010353 313.431364 
L 545.630075 313.430667 
L 545.80333 313.346015 
L 545.909949 313.392173 
L 546.109859 313.445995 
L 546.283115 313.350369 
L 546.343088 311.308955 
L 546.38307 308.770251 
L 546.45637 310.664481 
L 546.669608 312.226024 
L 546.8362 312.517779 
L 546.856191 312.488168 
L 546.882845 312.443751 
L 546.896173 309.814472 
L 546.9095 308.97056 
L 546.996128 310.593066 
L 547.182711 311.933398 
L 547.495903 312.550873 
L 547.655831 312.693703 
L 547.662495 312.664963 
L 547.68915 312.170285 
L 547.782441 312.532584 
L 547.835751 312.605741 
L 547.855742 312.479459 
L 547.955697 312.384529 
L 547.922378 312.574388 
L 547.975688 312.427204 
L 548.168934 312.821726 
L 549.348404 313.314662 
L 550.04809 313.385206 
L 550.307973 313.396527 
L 550.541202 313.440421 
L 553.033416 313.357336 
L 553.053407 312.853079 
L 553.140035 313.346015 
L 553.233326 313.418474 
L 553.259981 313.377367 
L 553.353272 313.330338 
L 553.379927 313.340789 
L 553.879702 313.450872 
L 555.105818 313.532041 
L 555.732204 313.554162 
L 578.695222 313.460801 
L 578.72854 313.316404 
L 578.821832 313.40872 
L 579.334935 313.553988 
L 579.641464 313.558517 
L 583.279829 313.481441 
L 583.306484 312.920139 
L 583.399775 308.839923 
L 583.433094 309.014106 
L 583.719632 311.376015 
L 583.779605 311.356855 
L 583.806259 311.303729 
L 583.859569 311.163513 
L 583.886224 310.094906 
L 583.95286 303.701551 
L 584.026161 306.05301 
L 584.199416 309.74567 
L 584.425981 310.964945 
L 584.632555 311.167867 
L 584.65921 311.146095 
L 584.712519 311.250604 
L 585.085685 312.057938 
L 585.871998 312.814759 
L 586.791585 313.173574 
L 587.338006 313.28418 
L 588.810678 313.369529 
L 588.843997 312.4812 
L 588.923961 304.78148 
L 589.023916 306.497174 
L 589.097216 307.977722 
L 589.117207 307.420339 
L 589.183844 295.92432 
L 589.250481 300.818837 
L 589.437064 307.22003 
L 589.643637 308.761542 
L 589.970157 309.885016 
L 590.796453 311.738314 
L 591.309556 312.338371 
L 591.582766 312.483813 
L 591.58943 312.419366 
L 591.709376 310.81602 
L 591.802668 310.918787 
L 592.129188 311.842823 
L 592.675609 312.497748 
L 592.942156 312.617933 
L 592.962147 312.482071 
L 593.002129 311.561519 
L 593.008792 311.322019 
L 593.082093 311.832372 
L 593.102084 311.797536 
L 593.162057 311.801019 
L 593.195375 311.842823 
L 593.448595 312.205993 
L 593.501904 312.11716 
L 593.67516 312.013521 
L 593.715142 311.922947 
L 593.761788 311.473557 
L 593.835088 311.745281 
L 594.208254 312.272182 
L 594.508119 312.507328 
L 594.668047 312.592677 
L 594.768002 309.395564 
L 594.847966 300.932056 
L 594.887948 304.389571 
L 595.074531 308.665741 
L 595.327751 310.163708 
L 595.414379 310.445883 
L 595.787544 311.327244 
L 596.513885 312.344468 
L 596.593849 312.244313 
L 596.620503 311.503168 
L 596.693804 312.334017 
L 596.947023 312.591806 
L 597.133606 312.701541 
L 597.566745 312.842628 
L 597.573409 312.827823 
L 597.5934 312.750312 
L 597.6667 312.879207 
L 597.673364 312.880948 
L 597.973229 312.891399 
L 597.979893 312.853079 
L 597.999884 311.894207 
L 598.106503 312.666704 
L 598.233112 312.875723 
L 598.273094 312.856563 
L 598.299749 312.75815 
L 598.393041 312.854821 
L 598.626269 313.018552 
L 599.2993 313.253698 
L 599.352609 313.180542 
L 599.385928 311.956912 
L 599.472556 312.95933 
L 599.612493 313.14048 
L 599.632484 313.126545 
L 599.652475 313.10216 
L 599.719112 313.177058 
L 599.725775 313.177058 
L 599.939013 313.287664 
L 600.518752 313.395657 
L 600.53208 313.313791 
L 600.565398 313.075161 
L 600.645362 313.258053 
L 601.391694 313.448869 
L 601.418348 313.147447 
L 601.425012 313.181413 
L 601.45833 312.032682 
L 601.531631 313.04468 
L 601.698223 313.373884 
L 602.477872 313.466636 
L 602.664455 313.469423 
L 603.01763 313.50452 
L 608.468515 313.615474 
L 608.901653 313.558604 
L 609.081573 313.387818 
L 609.134882 313.450437 
L 609.361447 313.55094 
L 610.27437 313.52908 
L 610.420971 313.534915 
L 610.467617 313.540402 
L 610.47428 313.491979 
L 610.500935 313.23628 
L 610.587563 313.356466 
L 610.774146 313.511313 
L 610.947401 313.488757 
L 610.967392 313.386077 
L 611.047356 313.530299 
L 611.227275 313.506959 
L 611.547132 313.464807 
L 611.680405 313.409156 
L 611.700396 313.387818 
L 611.787024 313.440247 
L 612.220163 313.493024 
L 614.499139 313.603369 
L 614.952269 313.613558 
L 616.02512 313.614778 
L 616.438268 313.631325 
L 620.263217 313.530996 
L 620.32319 313.307695 
L 620.416481 313.425616 
L 620.822965 313.516365 
L 621.462678 313.429099 
L 621.815852 313.406978 
L 622.10239 313.232796 
L 622.502211 313.405585 
L 623.188569 313.488844 
L 623.741654 313.382593 
L 623.821618 312.428075 
L 623.981546 310.802956 
L 624.034856 310.960591 
L 624.547959 312.313115 
L 624.661241 312.417624 
L 625.021079 312.776439 
L 625.474209 313.089967 
L 626.053949 313.271116 
L 626.80028 313.381722 
L 628.386234 313.477348 
L 628.566154 313.388689 
L 628.592808 312.93059 
L 628.639454 303.344478 
L 628.726082 309.675998 
L 628.932656 311.46659 
L 629.185875 312.339242 
L 629.93887 313.055131 
L 630.531937 313.244118 
L 630.778493 312.40456 
L 630.838466 309.693416 
L 630.905103 306.357828 
L 630.97174 307.585812 
L 631.24495 310.172417 
L 631.438197 310.8256 
L 631.491506 310.798601 
L 631.957963 311.876789 
L 632.704295 312.587452 
L 632.75094 312.399335 
L 632.797586 310.743734 
L 632.897541 307.786122 
L 632.944187 308.622196 
L 633.184079 310.31002 
L 633.383989 310.785538 
L 633.397317 310.715865 
L 633.463954 308.97056 
L 633.603891 309.371179 
L 633.897092 310.327439 
L 634.010375 310.517297 
L 634.023702 310.437173 
L 634.050357 308.500268 
L 634.130321 293.381261 
L 634.196958 301.785548 
L 634.390204 307.228739 
L 634.603442 308.857342 
L 634.996598 310.332664 
L 635.176518 310.622677 
L 635.196509 310.599163 
L 635.249818 310.305666 
L 635.449728 307.699031 
L 635.516365 308.19545 
L 635.722939 309.327633 
L 636.056122 310.189835 
L 636.216051 310.296957 
L 636.409297 310.582615 
L 636.429288 310.482461 
L 636.509252 309.64987 
L 636.629198 309.780507 
L 636.689171 309.885016 
L 637.015691 310.23338 
L 637.029019 310.181126 
L 637.069001 309.580197 
L 637.208938 309.048942 
L 637.262247 309.153451 
L 637.508803 309.867598 
L 637.855314 310.469397 
L 639.014793 311.804503 
L 639.294668 312.020489 
L 639.347977 311.873305 
L 639.474587 311.203575 
L 639.521233 300.287582 
L 639.53456 295.697883 
L 639.614524 304.650844 
L 639.78778 308.421886 
L 639.994353 309.379888 
L 640.001017 309.36247 
L 640.067654 308.900887 
L 640.094309 307.176484 
L 640.214255 290.742403 
L 640.2609 296.70814 
L 640.500793 305.164681 
L 640.820649 308.169322 
L 640.873958 308.404468 
L 641.060541 309.118615 
L 641.153833 309.406015 
L 641.447034 310.181126 
L 641.460362 310.163708 
L 641.487016 310.076616 
L 641.513671 309.057651 
L 641.613626 304.859862 
L 641.646944 305.547882 
L 641.853518 307.89934 
L 642.106738 308.839923 
L 642.153384 308.927015 
L 642.339966 309.64987 
L 642.699805 310.279539 
L 643.006334 310.640096 
L 643.386163 311.018071 
L 643.70602 311.403884 
L 644.125831 311.682575 
L 644.285759 311.762699 
L 644.292423 311.730476 
L 644.372387 311.193995 
L 644.43236 311.334211 
L 644.625606 311.532779 
L 644.752216 311.672125 
L 644.812189 311.567615 
L 645.018763 310.991073 
L 645.165364 310.426722 
L 645.192019 310.440657 
L 645.418584 310.97888 
L 645.518539 310.930109 
L 645.805077 311.194866 
L 646.031642 311.417819 
L 646.184906 311.522328 
L 646.59139 311.839339 
L 646.598054 311.814954 
L 646.724664 311.651223 
L 646.744655 311.668641 
L 646.924574 311.879401 
L 647.504313 312.219927 
L 647.510977 312.202509 
L 647.69756 310.849985 
L 647.850824 310.69235 
L 647.904134 310.794247 
L 648.130699 311.076422 
L 648.22399 311.186156 
L 648.823721 311.665157 
L 648.843712 311.490104 
L 648.903685 310.941431 
L 648.990313 311.031134 
L 649.030295 311.05552 
L 649.056949 310.933592 
L 649.150241 310.719348 
L 649.190223 310.90224 
L 649.350151 311.038102 
L 649.550061 311.2088 
L 649.78329 311.452655 
L 649.916563 311.630321 
L 649.936554 311.585034 
L 649.969873 311.174835 
L 650.10981 307.31583 
L 650.169783 307.838376 
L 650.522957 309.75438 
L 650.669558 310.033071 
L 650.696213 309.998235 
L 650.742859 309.615034 
L 650.856141 308.918305 
L 650.882796 308.979269 
L 651.049388 309.571488 
L 651.255961 310.085326 
L 651.695764 310.723703 
L 651.775728 310.582615 
L 651.809046 310.342244 
L 651.935656 307.516139 
L 651.975638 308.474141 
L 652.162221 309.789216 
L 652.695315 310.874371 
L 652.708642 310.891789 
L 652.715306 310.879596 
L 652.735297 309.763089 
L 652.815261 280.962077 
L 652.861907 299.712781 
L 653.021835 304.825026 
L 653.148445 306.575556 
L 653.168436 305.6611 
L 653.215081 304.00637 
L 653.281718 304.424407 
L 653.514947 307.472594 
L 653.894776 309.17087 
L 653.921431 309.06636 
L 653.968077 308.57865 
L 654.061368 308.805087 
L 654.114677 308.900887 
L 654.341242 309.562779 
L 654.394552 309.388597 
L 654.527825 309.057651 
L 654.534489 309.06636 
L 654.834354 309.797925 
L 655.227511 310.49117 
L 655.427421 310.8256 
L 655.527376 310.923142 
L 655.587349 310.802956 
L 655.647322 310.745476 
L 655.680641 310.84563 
L 655.893878 311.278473 
L 656.000497 311.379499 
L 656.007161 311.302858 
L 656.093788 310.80731 
L 656.167089 310.97888 
L 656.38699 311.505781 
L 656.633546 311.825405 
L 657.213285 312.275666 
L 657.319904 312.124998 
L 657.379877 311.700865 
L 657.459841 311.264538 
L 657.539805 311.505781 
L 657.779698 312.090162 
L 658.106218 312.396722 
L 658.286137 312.502973 
L 658.559348 312.61445 
L 658.566011 312.598773 
L 658.705948 311.604194 
L 658.719276 310.547779 
L 658.819231 310.853469 
L 658.852549 310.983234 
L 659.259033 312.177253 
L 659.472271 312.407173 
L 661.151516 313.024649 
L 661.244808 309.704738 
L 661.298117 292.701951 
L 661.364754 303.623169 
L 661.584655 309.26667 
L 661.751247 310.333535 
L 661.757911 310.274313 
L 661.777902 302.969986 
L 661.871193 308.526396 
L 662.084431 310.301311 
L 662.404287 311.28544 
L 662.850753 311.964751 
L 662.924054 312.072743 
L 663.044 312.201638 
L 663.057327 312.140674 
L 663.063991 312.082323 
L 663.143955 312.302664 
L 663.450484 312.523875 
L 663.470475 312.469879 
L 663.543775 312.572646 
L 663.690376 312.630126 
L 663.617076 312.50036 
L 663.703703 312.616192 
L 663.816986 312.694574 
L 664.016896 312.793857 
L 664.02356 312.755537 
L 664.143506 312.373208 
L 664.116851 312.765988 
L 664.150169 312.37582 
L 664.323425 312.779923 
L 664.783218 312.900108 
L 664.916492 312.858305 
L 665.029774 312.814759 
L 665.063093 312.861788 
L 665.369622 313.085612 
L 666.195917 313.290276 
L 666.629056 313.345144 
L 667.581961 313.365175 
L 667.728562 313.367787 
L 668.648149 313.381722 
L 668.928023 313.163994 
L 668.934687 313.175316 
L 669.134597 313.323371 
L 669.347835 313.386077 
L 669.687682 313.440596 
L 670.580614 313.484489 
L 670.593942 313.391041 
L 670.693897 313.473429 
L 670.860489 313.368658 
L 670.900471 312.620546 
L 671.013753 312.893141 
L 671.100381 313.051647 
L 671.113708 312.993296 
L 671.213663 308.735414 
L 671.226991 305.034044 
L 671.293627 309.693416 
L 671.293627 309.693416 
" clip-path="url(#p76db29102b)" style="fill: none; stroke: #1f77b4; stroke-width: 1.5; stroke-linecap: square"/>
   </g>
   <g id="patch_3">
    <path d="M 46.0125 327.558125 
L 46.0125 22.318125 
" style="fill: none; stroke: #000000; stroke-width: 0.8; stroke-linejoin: miter; stroke-linecap: square"/>
   </g>
   <g id="patch_4">
    <path d="M 701.068919 327.558125 
L 701.068919 22.318125 
" style="fill: none; stroke: #000000; stroke-width: 0.8; stroke-linejoin: miter; stroke-linecap: square"/>
   </g>
   <g id="patch_5">
    <path d="M 46.0125 327.558125 
L 701.068919 327.558125 
" style="fill: none; stroke: #000000; stroke-width: 0.8; stroke-linejoin: miter; stroke-linecap: square"/>
   </g>
   <g id="patch_6">
    <path d="M 46.0125 22.318125 
L 701.068919 22.318125 
" style="fill: none; stroke: #000000; stroke-width: 0.8; stroke-linejoin: miter; stroke-linecap: square"/>
   </g>
   <g id="text_16">
    <!-- training -->
    <g transform="translate(350.297272 16.318125) scale(0.12 -0.12)">
     <defs>
      <path id="DejaVuSans-74" d="M 1172 4494 
L 1172 3500 
L 2356 3500 
L 2356 3053 
L 1172 3053 
L 1172 1153 
Q 1172 725 1289 603 
Q 1406 481 1766 481 
L 2356 481 
L 2356 0 
L 1766 0 
Q 1100 0 847 248 
Q 594 497 594 1153 
L 594 3053 
L 172 3053 
L 172 3500 
L 594 3500 
L 594 4494 
L 1172 4494 
z
" transform="scale(0.015625)"/>
      <path id="DejaVuSans-72" d="M 2631 2963 
Q 2534 3019 2420 3045 
Q 2306 3072 2169 3072 
Q 1681 3072 1420 2755 
Q 1159 2438 1159 1844 
L 1159 0 
L 581 0 
L 581 3500 
L 1159 3500 
L 1159 2956 
Q 1341 3275 1631 3429 
Q 1922 3584 2338 3584 
Q 2397 3584 2469 3576 
Q 2541 3569 2628 3553 
L 2631 2963 
z
" transform="scale(0.015625)"/>
      <path id="DejaVuSans-61" d="M 2194 1759 
Q 1497 1759 1228 1600 
Q 959 1441 959 1056 
Q 959 750 1161 570 
Q 1363 391 1709 391 
Q 2188 391 2477 730 
Q 2766 1069 2766 1631 
L 2766 1759 
L 2194 1759 
z
M 3341 1997 
L 3341 0 
L 2766 0 
L 2766 531 
Q 2569 213 2275 61 
Q 1981 -91 1556 -91 
Q 1019 -91 701 211 
Q 384 513 384 1019 
Q 384 1609 779 1909 
Q 1175 2209 1959 2209 
L 2766 2209 
L 2766 2266 
Q 2766 2663 2505 2880 
Q 2244 3097 1772 3097 
Q 1472 3097 1187 3025 
Q 903 2953 641 2809 
L 641 3341 
Q 956 3463 1253 3523 
Q 1550 3584 1831 3584 
Q 2591 3584 2966 3190 
Q 3341 2797 3341 1997 
z
" transform="scale(0.015625)"/>
      <path id="DejaVuSans-69" d="M 603 3500 
L 1178 3500 
L 1178 0 
L 603 0 
L 603 3500 
z
M 603 4863 
L 1178 4863 
L 1178 4134 
L 603 4134 
L 603 4863 
z
" transform="scale(0.015625)"/>
      <path id="DejaVuSans-6e" d="M 3513 2113 
L 3513 0 
L 2938 0 
L 2938 2094 
Q 2938 2591 2744 2837 
Q 2550 3084 2163 3084 
Q 1697 3084 1428 2787 
Q 1159 2491 1159 1978 
L 1159 0 
L 581 0 
L 581 3500 
L 1159 3500 
L 1159 2956 
Q 1366 3272 1645 3428 
Q 1925 3584 2291 3584 
Q 2894 3584 3203 3211 
Q 3513 2838 3513 2113 
z
" transform="scale(0.015625)"/>
      <path id="DejaVuSans-67" d="M 2906 1791 
Q 2906 2416 2648 2759 
Q 2391 3103 1925 3103 
Q 1463 3103 1205 2759 
Q 947 2416 947 1791 
Q 947 1169 1205 825 
Q 1463 481 1925 481 
Q 2391 481 2648 825 
Q 2906 1169 2906 1791 
z
M 3481 434 
Q 3481 -459 3084 -895 
Q 2688 -1331 1869 -1331 
Q 1566 -1331 1297 -1286 
Q 1028 -1241 775 -1147 
L 775 -588 
Q 1028 -725 1275 -790 
Q 1522 -856 1778 -856 
Q 2344 -856 2625 -561 
Q 2906 -266 2906 331 
L 2906 616 
Q 2728 306 2450 153 
Q 2172 0 1784 0 
Q 1141 0 747 490 
Q 353 981 353 1791 
Q 353 2603 747 3093 
Q 1141 3584 1784 3584 
Q 2172 3584 2450 3431 
Q 2728 3278 2906 2969 
L 2906 3500 
L 3481 3500 
L 3481 434 
z
" transform="scale(0.015625)"/>
     </defs>
     <use xlink:href="#DejaVuSans-74"/>
     <use xlink:href="#DejaVuSans-72" x="39.208984"/>
     <use xlink:href="#DejaVuSans-61" x="80.322266"/>
     <use xlink:href="#DejaVuSans-69" x="141.601562"/>
     <use xlink:href="#DejaVuSans-6e" x="169.384766"/>
     <use xlink:href="#DejaVuSans-69" x="232.763672"/>
     <use xlink:href="#DejaVuSans-6e" x="260.546875"/>
     <use xlink:href="#DejaVuSans-67" x="323.925781"/>
    </g>
   </g>
   <g id="legend_1">
    <g id="patch_7">
     <path d="M 615.707982 44.99625 
L 694.068919 44.99625 
Q 696.068919 44.99625 696.068919 42.99625 
L 696.068919 29.318125 
Q 696.068919 27.318125 694.068919 27.318125 
L 615.707982 27.318125 
Q 613.707982 27.318125 613.707982 29.318125 
L 613.707982 42.99625 
Q 613.707982 44.99625 615.707982 44.99625 
z
" style="fill: #ffffff; opacity: 0.8; stroke: #cccccc; stroke-linejoin: miter"/>
    </g>
    <g id="line2d_17">
     <path d="M 617.707982 35.416563 
L 627.707982 35.416563 
L 637.707982 35.416563 
" style="fill: none; stroke: #1f77b4; stroke-width: 1.5; stroke-linecap: square"/>
    </g>
    <g id="text_17">
     <!-- observed -->
     <g transform="translate(645.707982 38.916563) scale(0.1 -0.1)">
      <defs>
       <path id="DejaVuSans-6f" d="M 1959 3097 
Q 1497 3097 1228 2736 
Q 959 2375 959 1747 
Q 959 1119 1226 758 
Q 1494 397 1959 397 
Q 2419 397 2687 759 
Q 2956 1122 2956 1747 
Q 2956 2369 2687 2733 
Q 2419 3097 1959 3097 
z
M 1959 3584 
Q 2709 3584 3137 3096 
Q 3566 2609 3566 1747 
Q 3566 888 3137 398 
Q 2709 -91 1959 -91 
Q 1206 -91 779 398 
Q 353 888 353 1747 
Q 353 2609 779 3096 
Q 1206 3584 1959 3584 
z
" transform="scale(0.015625)"/>
       <path id="DejaVuSans-62" d="M 3116 1747 
Q 3116 2381 2855 2742 
Q 2594 3103 2138 3103 
Q 1681 3103 1420 2742 
Q 1159 2381 1159 1747 
Q 1159 1113 1420 752 
Q 1681 391 2138 391 
Q 2594 391 2855 752 
Q 3116 1113 3116 1747 
z
M 1159 2969 
Q 1341 3281 1617 3432 
Q 1894 3584 2278 3584 
Q 2916 3584 3314 3078 
Q 3713 2572 3713 1747 
Q 3713 922 3314 415 
Q 2916 -91 2278 -91 
Q 1894 -91 1617 61 
Q 1341 213 1159 525 
L 1159 0 
L 581 0 
L 581 4863 
L 1159 4863 
L 1159 2969 
z
" transform="scale(0.015625)"/>
       <path id="DejaVuSans-73" d="M 2834 3397 
L 2834 2853 
Q 2591 2978 2328 3040 
Q 2066 3103 1784 3103 
Q 1356 3103 1142 2972 
Q 928 2841 928 2578 
Q 928 2378 1081 2264 
Q 1234 2150 1697 2047 
L 1894 2003 
Q 2506 1872 2764 1633 
Q 3022 1394 3022 966 
Q 3022 478 2636 193 
Q 2250 -91 1575 -91 
Q 1294 -91 989 -36 
Q 684 19 347 128 
L 347 722 
Q 666 556 975 473 
Q 1284 391 1588 391 
Q 1994 391 2212 530 
Q 2431 669 2431 922 
Q 2431 1156 2273 1281 
Q 2116 1406 1581 1522 
L 1381 1569 
Q 847 1681 609 1914 
Q 372 2147 372 2553 
Q 372 3047 722 3315 
Q 1072 3584 1716 3584 
Q 2034 3584 2315 3537 
Q 2597 3491 2834 3397 
z
" transform="scale(0.015625)"/>
       <path id="DejaVuSans-65" d="M 3597 1894 
L 3597 1613 
L 953 1613 
Q 991 1019 1311 708 
Q 1631 397 2203 397 
Q 2534 397 2845 478 
Q 3156 559 3463 722 
L 3463 178 
Q 3153 47 2828 -22 
Q 2503 -91 2169 -91 
Q 1331 -91 842 396 
Q 353 884 353 1716 
Q 353 2575 817 3079 
Q 1281 3584 2069 3584 
Q 2775 3584 3186 3129 
Q 3597 2675 3597 1894 
z
M 3022 2063 
Q 3016 2534 2758 2815 
Q 2500 3097 2075 3097 
Q 1594 3097 1305 2825 
Q 1016 2553 972 2059 
L 3022 2063 
z
" transform="scale(0.015625)"/>
       <path id="DejaVuSans-76" d="M 191 3500 
L 800 3500 
L 1894 563 
L 2988 3500 
L 3597 3500 
L 2284 0 
L 1503 0 
L 191 3500 
z
" transform="scale(0.015625)"/>
       <path id="DejaVuSans-64" d="M 2906 2969 
L 2906 4863 
L 3481 4863 
L 3481 0 
L 2906 0 
L 2906 525 
Q 2725 213 2448 61 
Q 2172 -91 1784 -91 
Q 1150 -91 751 415 
Q 353 922 353 1747 
Q 353 2572 751 3078 
Q 1150 3584 1784 3584 
Q 2172 3584 2448 3432 
Q 2725 3281 2906 2969 
z
M 947 1747 
Q 947 1113 1208 752 
Q 1469 391 1925 391 
Q 2381 391 2643 752 
Q 2906 1113 2906 1747 
Q 2906 2381 2643 2742 
Q 2381 3103 1925 3103 
Q 1469 3103 1208 2742 
Q 947 2381 947 1747 
z
" transform="scale(0.015625)"/>
      </defs>
      <use xlink:href="#DejaVuSans-6f"/>
      <use xlink:href="#DejaVuSans-62" x="61.181641"/>
      <use xlink:href="#DejaVuSans-73" x="124.658203"/>
      <use xlink:href="#DejaVuSans-65" x="176.757812"/>
      <use xlink:href="#DejaVuSans-72" x="238.28125"/>
      <use xlink:href="#DejaVuSans-76" x="279.394531"/>
      <use xlink:href="#DejaVuSans-65" x="338.574219"/>
      <use xlink:href="#DejaVuSans-64" x="400.097656"/>
     </g>
    </g>
   </g>
  </g>
 </g>
 <defs>
  <clipPath id="p76db29102b">
   <rect x="46.0125" y="22.318125" width="655.056419" height="305.24"/>
  </clipPath>
 </defs>
</svg>
