<?xml version="1.0" encoding="utf-8" standalone="no"?>
<!DOCTYPE svg PUBLIC "-//W3C//DTD SVG 1.1//EN"
  "http://www.w3.org/Graphics/SVG/1.1/DTD/svg11.dtd">
<svg xmlns:xlink="http://www.w3.org/1999/xlink" width="713.0225pt" height="351.43625pt" viewBox="0 0 713.0225 351.43625" xmlns="http://www.w3.org/2000/svg" version="1.1">
 <metadata>
  <rdf:RDF xmlns:dc="http://purl.org/dc/elements/1.1/" xmlns:cc="http://creativecommons.org/ns#" xmlns:rdf="http://www.w3.org/1999/02/22-rdf-syntax-ns#">
   <cc:Work>
    <dc:type rdf:resource="http://purl.org/dc/dcmitype/StillImage"/>
    <dc:date>2024-05-10T16:01:46.698190</dc:date>
    <dc:format>image/svg+xml</dc:format>
    <dc:creator>
     <cc:Agent>
      <dc:title>Matplotlib v3.8.4, https://matplotlib.org/</dc:title>
     </cc:Agent>
    </dc:creator>
   </cc:Work>
  </rdf:RDF>
 </metadata>
 <defs>
  <style type="text/css">*{stroke-linejoin: round; stroke-linecap: butt}</style>
 </defs>
 <g id="figure_1">
  <g id="patch_1">
   <path d="M 0 351.43625 
L 713.0225 351.43625 
L 713.0225 0 
L 0 0 
z
" style="fill: #ffffff"/>
  </g>
  <g id="axes_1">
   <g id="patch_2">
    <path d="M 46.0125 327.558125 
L 705.8225 327.558125 
L 705.8225 22.318125 
L 46.0125 22.318125 
z
" style="fill: #ffffff"/>
   </g>
   <g id="matplotlib.axis_1">
    <g id="xtick_1">
     <g id="line2d_1">
      <defs>
       <path id="m403dfc7442" d="M 0 0 
L 0 3.5 
" style="stroke: #000000; stroke-width: 0.8"/>
      </defs>
      <g>
       <use xlink:href="#m403dfc7442" x="132.744591" y="327.558125" style="stroke: #000000; stroke-width: 0.8"/>
      </g>
     </g>
     <g id="text_1">
      <!-- 2017 -->
      <g transform="translate(120.019591 342.156563) scale(0.1 -0.1)">
       <defs>
        <path id="DejaVuSans-32" d="M 1228 531 
L 3431 531 
L 3431 0 
L 469 0 
L 469 531 
Q 828 903 1448 1529 
Q 2069 2156 2228 2338 
Q 2531 2678 2651 2914 
Q 2772 3150 2772 3378 
Q 2772 3750 2511 3984 
Q 2250 4219 1831 4219 
Q 1534 4219 1204 4116 
Q 875 4013 500 3803 
L 500 4441 
Q 881 4594 1212 4672 
Q 1544 4750 1819 4750 
Q 2544 4750 2975 4387 
Q 3406 4025 3406 3419 
Q 3406 3131 3298 2873 
Q 3191 2616 2906 2266 
Q 2828 2175 2409 1742 
Q 1991 1309 1228 531 
z
" transform="scale(0.015625)"/>
        <path id="DejaVuSans-30" d="M 2034 4250 
Q 1547 4250 1301 3770 
Q 1056 3291 1056 2328 
Q 1056 1369 1301 889 
Q 1547 409 2034 409 
Q 2525 409 2770 889 
Q 3016 1369 3016 2328 
Q 3016 3291 2770 3770 
Q 2525 4250 2034 4250 
z
M 2034 4750 
Q 2819 4750 3233 4129 
Q 3647 3509 3647 2328 
Q 3647 1150 3233 529 
Q 2819 -91 2034 -91 
Q 1250 -91 836 529 
Q 422 1150 422 2328 
Q 422 3509 836 4129 
Q 1250 4750 2034 4750 
z
" transform="scale(0.015625)"/>
        <path id="DejaVuSans-31" d="M 794 531 
L 1825 531 
L 1825 4091 
L 703 3866 
L 703 4441 
L 1819 4666 
L 2450 4666 
L 2450 531 
L 3481 531 
L 3481 0 
L 794 0 
L 794 531 
z
" transform="scale(0.015625)"/>
        <path id="DejaVuSans-37" d="M 525 4666 
L 3525 4666 
L 3525 4397 
L 1831 0 
L 1172 0 
L 2766 4134 
L 525 4134 
L 525 4666 
z
" transform="scale(0.015625)"/>
       </defs>
       <use xlink:href="#DejaVuSans-32"/>
       <use xlink:href="#DejaVuSans-30" x="63.623047"/>
       <use xlink:href="#DejaVuSans-31" x="127.246094"/>
       <use xlink:href="#DejaVuSans-37" x="190.869141"/>
      </g>
     </g>
    </g>
    <g id="xtick_2">
     <g id="line2d_2">
      <g>
       <use xlink:href="#m403dfc7442" x="232.956036" y="327.558125" style="stroke: #000000; stroke-width: 0.8"/>
      </g>
     </g>
     <g id="text_2">
      <!-- 2018 -->
      <g transform="translate(220.231036 342.156563) scale(0.1 -0.1)">
       <defs>
        <path id="DejaVuSans-38" d="M 2034 2216 
Q 1584 2216 1326 1975 
Q 1069 1734 1069 1313 
Q 1069 891 1326 650 
Q 1584 409 2034 409 
Q 2484 409 2743 651 
Q 3003 894 3003 1313 
Q 3003 1734 2745 1975 
Q 2488 2216 2034 2216 
z
M 1403 2484 
Q 997 2584 770 2862 
Q 544 3141 544 3541 
Q 544 4100 942 4425 
Q 1341 4750 2034 4750 
Q 2731 4750 3128 4425 
Q 3525 4100 3525 3541 
Q 3525 3141 3298 2862 
Q 3072 2584 2669 2484 
Q 3125 2378 3379 2068 
Q 3634 1759 3634 1313 
Q 3634 634 3220 271 
Q 2806 -91 2034 -91 
Q 1263 -91 848 271 
Q 434 634 434 1313 
Q 434 1759 690 2068 
Q 947 2378 1403 2484 
z
M 1172 3481 
Q 1172 3119 1398 2916 
Q 1625 2713 2034 2713 
Q 2441 2713 2670 2916 
Q 2900 3119 2900 3481 
Q 2900 3844 2670 4047 
Q 2441 4250 2034 4250 
Q 1625 4250 1398 4047 
Q 1172 3844 1172 3481 
z
" transform="scale(0.015625)"/>
       </defs>
       <use xlink:href="#DejaVuSans-32"/>
       <use xlink:href="#DejaVuSans-30" x="63.623047"/>
       <use xlink:href="#DejaVuSans-31" x="127.246094"/>
       <use xlink:href="#DejaVuSans-38" x="190.869141"/>
      </g>
     </g>
    </g>
    <g id="xtick_3">
     <g id="line2d_3">
      <g>
       <use xlink:href="#m403dfc7442" x="333.167481" y="327.558125" style="stroke: #000000; stroke-width: 0.8"/>
      </g>
     </g>
     <g id="text_3">
      <!-- 2019 -->
      <g transform="translate(320.442481 342.156563) scale(0.1 -0.1)">
       <defs>
        <path id="DejaVuSans-39" d="M 703 97 
L 703 672 
Q 941 559 1184 500 
Q 1428 441 1663 441 
Q 2288 441 2617 861 
Q 2947 1281 2994 2138 
Q 2813 1869 2534 1725 
Q 2256 1581 1919 1581 
Q 1219 1581 811 2004 
Q 403 2428 403 3163 
Q 403 3881 828 4315 
Q 1253 4750 1959 4750 
Q 2769 4750 3195 4129 
Q 3622 3509 3622 2328 
Q 3622 1225 3098 567 
Q 2575 -91 1691 -91 
Q 1453 -91 1209 -44 
Q 966 3 703 97 
z
M 1959 2075 
Q 2384 2075 2632 2365 
Q 2881 2656 2881 3163 
Q 2881 3666 2632 3958 
Q 2384 4250 1959 4250 
Q 1534 4250 1286 3958 
Q 1038 3666 1038 3163 
Q 1038 2656 1286 2365 
Q 1534 2075 1959 2075 
z
" transform="scale(0.015625)"/>
       </defs>
       <use xlink:href="#DejaVuSans-32"/>
       <use xlink:href="#DejaVuSans-30" x="63.623047"/>
       <use xlink:href="#DejaVuSans-31" x="127.246094"/>
       <use xlink:href="#DejaVuSans-39" x="190.869141"/>
      </g>
     </g>
    </g>
    <g id="xtick_4">
     <g id="line2d_4">
      <g>
       <use xlink:href="#m403dfc7442" x="433.378926" y="327.558125" style="stroke: #000000; stroke-width: 0.8"/>
      </g>
     </g>
     <g id="text_4">
      <!-- 2020 -->
      <g transform="translate(420.653926 342.156563) scale(0.1 -0.1)">
       <use xlink:href="#DejaVuSans-32"/>
       <use xlink:href="#DejaVuSans-30" x="63.623047"/>
       <use xlink:href="#DejaVuSans-32" x="127.246094"/>
       <use xlink:href="#DejaVuSans-30" x="190.869141"/>
      </g>
     </g>
    </g>
    <g id="xtick_5">
     <g id="line2d_5">
      <g>
       <use xlink:href="#m403dfc7442" x="533.864923" y="327.558125" style="stroke: #000000; stroke-width: 0.8"/>
      </g>
     </g>
     <g id="text_5">
      <!-- 2021 -->
      <g transform="translate(521.139923 342.156563) scale(0.1 -0.1)">
       <use xlink:href="#DejaVuSans-32"/>
       <use xlink:href="#DejaVuSans-30" x="63.623047"/>
       <use xlink:href="#DejaVuSans-32" x="127.246094"/>
       <use xlink:href="#DejaVuSans-31" x="190.869141"/>
      </g>
     </g>
    </g>
    <g id="xtick_6">
     <g id="line2d_6">
      <g>
       <use xlink:href="#m403dfc7442" x="634.076368" y="327.558125" style="stroke: #000000; stroke-width: 0.8"/>
      </g>
     </g>
     <g id="text_6">
      <!-- 2022 -->
      <g transform="translate(621.351368 342.156563) scale(0.1 -0.1)">
       <use xlink:href="#DejaVuSans-32"/>
       <use xlink:href="#DejaVuSans-30" x="63.623047"/>
       <use xlink:href="#DejaVuSans-32" x="127.246094"/>
       <use xlink:href="#DejaVuSans-32" x="190.869141"/>
      </g>
     </g>
    </g>
   </g>
   <g id="matplotlib.axis_2">
    <g id="ytick_1">
     <g id="line2d_7">
      <defs>
       <path id="m7cf02dc80c" d="M 0 0 
L -3.5 0 
" style="stroke: #000000; stroke-width: 0.8"/>
      </defs>
      <g>
       <use xlink:href="#m7cf02dc80c" x="46.0125" y="313.38887" style="stroke: #000000; stroke-width: 0.8"/>
      </g>
     </g>
     <g id="text_7">
      <!-- 0 -->
      <g transform="translate(32.65 317.188088) scale(0.1 -0.1)">
       <use xlink:href="#DejaVuSans-30"/>
      </g>
     </g>
    </g>
    <g id="ytick_2">
     <g id="line2d_8">
      <g>
       <use xlink:href="#m7cf02dc80c" x="46.0125" y="256.735665" style="stroke: #000000; stroke-width: 0.8"/>
      </g>
     </g>
     <g id="text_8">
      <!-- 5000 -->
      <g transform="translate(13.5625 260.534884) scale(0.1 -0.1)">
       <defs>
        <path id="DejaVuSans-35" d="M 691 4666 
L 3169 4666 
L 3169 4134 
L 1269 4134 
L 1269 2991 
Q 1406 3038 1543 3061 
Q 1681 3084 1819 3084 
Q 2600 3084 3056 2656 
Q 3513 2228 3513 1497 
Q 3513 744 3044 326 
Q 2575 -91 1722 -91 
Q 1428 -91 1123 -41 
Q 819 9 494 109 
L 494 744 
Q 775 591 1075 516 
Q 1375 441 1709 441 
Q 2250 441 2565 725 
Q 2881 1009 2881 1497 
Q 2881 1984 2565 2268 
Q 2250 2553 1709 2553 
Q 1456 2553 1204 2497 
Q 953 2441 691 2322 
L 691 4666 
z
" transform="scale(0.015625)"/>
       </defs>
       <use xlink:href="#DejaVuSans-35"/>
       <use xlink:href="#DejaVuSans-30" x="63.623047"/>
       <use xlink:href="#DejaVuSans-30" x="127.246094"/>
       <use xlink:href="#DejaVuSans-30" x="190.869141"/>
      </g>
     </g>
    </g>
    <g id="ytick_3">
     <g id="line2d_9">
      <g>
       <use xlink:href="#m7cf02dc80c" x="46.0125" y="200.08246" style="stroke: #000000; stroke-width: 0.8"/>
      </g>
     </g>
     <g id="text_9">
      <!-- 10000 -->
      <g transform="translate(7.2 203.881679) scale(0.1 -0.1)">
       <use xlink:href="#DejaVuSans-31"/>
       <use xlink:href="#DejaVuSans-30" x="63.623047"/>
       <use xlink:href="#DejaVuSans-30" x="127.246094"/>
       <use xlink:href="#DejaVuSans-30" x="190.869141"/>
       <use xlink:href="#DejaVuSans-30" x="254.492188"/>
      </g>
     </g>
    </g>
    <g id="ytick_4">
     <g id="line2d_10">
      <g>
       <use xlink:href="#m7cf02dc80c" x="46.0125" y="143.429255" style="stroke: #000000; stroke-width: 0.8"/>
      </g>
     </g>
     <g id="text_10">
      <!-- 15000 -->
      <g transform="translate(7.2 147.228474) scale(0.1 -0.1)">
       <use xlink:href="#DejaVuSans-31"/>
       <use xlink:href="#DejaVuSans-35" x="63.623047"/>
       <use xlink:href="#DejaVuSans-30" x="127.246094"/>
       <use xlink:href="#DejaVuSans-30" x="190.869141"/>
       <use xlink:href="#DejaVuSans-30" x="254.492188"/>
      </g>
     </g>
    </g>
    <g id="ytick_5">
     <g id="line2d_11">
      <g>
       <use xlink:href="#m7cf02dc80c" x="46.0125" y="86.776051" style="stroke: #000000; stroke-width: 0.8"/>
      </g>
     </g>
     <g id="text_11">
      <!-- 20000 -->
      <g transform="translate(7.2 90.57527) scale(0.1 -0.1)">
       <use xlink:href="#DejaVuSans-32"/>
       <use xlink:href="#DejaVuSans-30" x="63.623047"/>
       <use xlink:href="#DejaVuSans-30" x="127.246094"/>
       <use xlink:href="#DejaVuSans-30" x="190.869141"/>
       <use xlink:href="#DejaVuSans-30" x="254.492188"/>
      </g>
     </g>
    </g>
    <g id="ytick_6">
     <g id="line2d_12">
      <g>
       <use xlink:href="#m7cf02dc80c" x="46.0125" y="30.122846" style="stroke: #000000; stroke-width: 0.8"/>
      </g>
     </g>
     <g id="text_12">
      <!-- 25000 -->
      <g transform="translate(7.2 33.922065) scale(0.1 -0.1)">
       <use xlink:href="#DejaVuSans-32"/>
       <use xlink:href="#DejaVuSans-35" x="63.623047"/>
       <use xlink:href="#DejaVuSans-30" x="127.246094"/>
       <use xlink:href="#DejaVuSans-30" x="190.869141"/>
       <use xlink:href="#DejaVuSans-30" x="254.492188"/>
      </g>
     </g>
    </g>
   </g>
   <g id="line2d_13">
    <path d="M 76.003864 311.413939 
L 76.381373 312.195753 
L 76.621605 312.433697 
L 76.7932 312.524342 
L 76.930476 312.603656 
L 76.941916 312.58666 
L 77.754132 312.885789 
L 77.879968 312.592326 
L 77.902848 312.388374 
L 77.982925 312.660309 
L 78.028684 312.603656 
L 78.085882 312.399705 
L 78.143081 312.524342 
L 78.337555 312.777015 
L 78.48627 312.886922 
L 78.8409 313.017225 
L 78.920978 312.996829 
L 78.955297 313.030821 
L 79.344245 313.135063 
L 79.881909 313.085775 
L 79.927668 311.527245 
L 80.030625 312.037124 
L 80.431013 312.906184 
L 80.579729 312.805342 
L 80.636927 312.714696 
L 80.694125 312.806475 
L 80.980117 313.021757 
L 81.128833 312.922047 
L 81.22035 310.949383 
L 81.243229 309.465069 
L 81.323307 311.034362 
L 81.426264 311.300632 
L 81.437703 311.226983 
L 81.506341 308.620936 
L 81.609298 310.048597 
L 81.838092 311.776519 
L 82.078325 312.433697 
L 82.730385 312.947541 
L 82.741825 312.910717 
L 82.833342 312.975868 
L 83.004937 312.990598 
L 83.016377 312.962271 
L 83.073575 312.834801 
L 83.165092 312.91185 
L 83.57692 312.81214 
L 83.691317 312.57533 
L 85.761896 311.470592 
L 85.784775 311.538576 
L 86.059327 312.343051 
L 86.082206 312.309059 
L 86.139405 311.929483 
L 86.230922 311.051358 
L 86.276681 311.306298 
L 86.551233 312.218414 
L 86.768586 312.479019 
L 86.802905 312.422366 
L 86.848664 312.399705 
L 86.894423 312.445027 
L 87.111776 312.637648 
L 87.580802 312.949241 
L 87.912552 313.033087 
L 88.34726 313.143561 
L 88.633251 313.173587 
L 89.308191 313.068779 
L 89.434028 312.980967 
L 89.445467 312.987765 
L 89.651381 313.009293 
L 89.70858 312.275068 
L 89.742899 311.776519 
L 89.811536 312.275068 
L 89.834416 312.331721 
L 89.845855 312.161761 
L 90.02889 306.230171 
L 90.074649 307.00632 
L 90.246244 309.448073 
L 90.280563 307.782468 
L 90.349201 309.210129 
L 90.646632 311.402608 
L 91.149977 312.552668 
L 91.7334 312.949241 
L 91.859236 312.985499 
L 91.962193 312.942442 
L 91.973633 312.86596 
L 92.019391 309.363093 
L 92.099469 310.966379 
L 92.305383 312.280733 
L 92.522737 312.637648 
L 92.545616 312.450693 
L 92.579935 311.470592 
L 92.660012 311.991802 
L 92.865926 312.603656 
L 93.106159 312.799676 
L 93.140478 312.643313 
L 93.186237 312.535672 
L 93.243435 312.648979 
L 93.575186 312.966803 
L 93.75822 312.953206 
L 93.872617 313.009293 
L 94.295884 313.132797 
L 95.153859 313.02289 
L 95.302575 312.840467 
L 95.439851 312.938477 
L 95.714402 313.120333 
L 96.355024 313.063114 
L 96.457981 312.743023 
L 96.503739 312.78438 
L 96.549498 312.78438 
L 96.572377 312.726027 
L 96.732532 312.212749 
L 96.778291 312.309059 
L 97.247317 313.012692 
L 97.579067 313.103337 
L 97.727783 313.164523 
L 98.059533 313.216077 
L 98.231128 313.24497 
L 98.379844 313.244404 
L 98.49424 312.309059 
L 98.654396 312.388374 
L 99.111982 313.070479 
L 99.420853 313.180386 
L 99.87844 313.293692 
L 100.095793 313.31522 
L 104.419986 313.209845 
L 104.488624 313.068212 
L 104.545822 313.112968 
L 104.786055 313.214378 
L 105.312279 313.325418 
L 105.724107 313.388303 
L 105.952901 313.406432 
L 106.273211 313.404732 
L 106.604961 313.384904 
L 106.707918 313.403033 
L 123.970369 313.68358 
L 124.107645 312.399705 
L 124.27924 287.506286 
L 124.347878 297.477251 
L 124.530913 308.875875 
L 124.771146 311.391278 
L 125.148654 312.433697 
L 125.320249 312.541338 
L 125.457525 312.49035 
L 125.606241 312.411035 
L 125.732077 312.40537 
L 125.789276 312.099443 
L 125.903672 309.210129 
L 125.926552 307.708819 
L 127.745458 307.827791 
L 127.939932 308.87021 
L 128.374639 310.785088 
L 128.68351 311.481923 
L 128.786467 311.583898 
L 128.877985 311.612225 
L 128.832226 311.527245 
L 128.889424 311.561237 
L 128.900864 311.538576 
L 128.958062 311.663213 
L 128.969502 311.612225 
L 128.992381 311.685874 
L 129.0267 311.4366 
L 129.106778 309.380089 
L 129.141097 297.080678 
L 129.198295 287.39298 
L 129.255493 292.435115 
L 129.472847 305.108437 
L 129.72452 308.479303 
L 129.999071 309.872972 
L 130.468098 311.102346 
L 130.479537 311.079685 
L 130.536736 311.187326 
L 130.548175 311.187326 
L 130.639693 311.34029 
L 130.662572 311.266641 
L 130.74265 310.501822 
L 130.799848 308.632267 
L 130.994322 299.460113 
L 131.06296 298.723621 
L 131.120158 299.120193 
L 131.486228 305.958235 
L 131.520547 304.972469 
L 131.577745 294.984509 
L 131.657823 277.705282 
L 131.715021 282.067579 
L 131.989573 301.499628 
L 132.058211 301.782894 
L 132.08109 301.273015 
L 132.161168 299.516766 
L 132.206926 300.423217 
L 132.618754 306.473779 
L 132.916185 307.878779 
L 132.927625 307.827791 
L 132.984823 308.014747 
L 132.996263 308.014747 
L 133.202177 308.717246 
L 133.213617 308.705916 
L 133.247936 308.796561 
L 133.259375 308.779565 
L 133.408091 309.057166 
L 133.488169 309.045835 
L 133.499608 308.994847 
L 133.591126 308.904202 
L 133.739841 307.674827 
L 133.865677 306.03755 
L 133.899996 306.139526 
L 134.185988 307.300916 
L 134.552057 308.96652 
L 135.307075 310.54148 
L 135.593067 310.745431 
L 135.673144 310.473496 
L 135.959136 307.895775 
L 136.050653 308.065734 
L 136.268007 308.586944 
L 136.393843 308.671924 
L 136.405283 308.654928 
L 136.691274 308.065734 
L 136.83999 306.762711 
L 136.885748 306.819364 
L 136.988705 306.915674 
L 137.297576 307.708819 
L 137.320456 307.674827 
L 137.377654 307.408557 
L 137.629326 303.83374 
L 137.755163 304.36628 
L 138.041154 305.674969 
L 138.075473 305.50501 
L 138.166991 304.218982 
L 138.247068 302.712007 
L 138.304267 303.244547 
L 138.704655 305.674969 
L 138.87625 303.788418 
L 138.944888 281.047821 
L 139.093603 257.593394 
L 139.116483 257.87666 
L 139.242319 270.057099 
L 139.52831 294.304671 
L 139.779983 300.64983 
L 140.134613 305.578659 
L 140.592199 307.810795 
L 140.90107 308.683254 
L 140.981148 308.904202 
L 141.450174 309.782327 
L 141.793364 310.263879 
L 142.045036 310.598133 
L 142.056476 310.569806 
L 142.125114 310.666117 
L 142.331028 310.90406 
L 142.685657 311.006036 
L 142.914451 311.08535 
L 143.314839 311.006036 
L 143.692348 308.892871 
L 143.772425 309.272448 
L 143.95546 309.833314 
L 143.9669 309.804988 
L 144.127055 309.997609 
L 144.527443 310.088254 
L 144.721917 310.326197 
L 144.779116 310.399846 
L 144.939271 310.632125 
L 145.007909 310.677447 
L 144.98503 310.688778 
L 145.019349 310.700108 
L 145.190943 310.592467 
L 145.2939 310.269544 
L 145.442616 309.770996 
L 145.465495 309.827649 
L 145.854444 310.535814 
L 145.865884 310.490492 
L 145.934522 310.603798 
L 145.945961 310.603798 
L 146.106117 310.72277 
L 146.266272 310.632125 
L 146.369229 310.399846 
L 146.449306 310.46783 
L 146.620901 310.739766 
L 146.65522 310.700108 
L 146.712419 310.779423 
L 146.941212 310.938052 
L 147.101367 310.972044 
L 147.158565 310.943717 
L 147.124246 310.938052 
L 147.170005 310.90406 
L 147.467436 310.144907 
L 147.558954 310.229887 
L 147.730549 310.422508 
L 147.741988 310.394181 
L 147.810626 310.348859 
L 147.856385 310.422508 
L 147.902144 310.450834 
L 147.925023 310.394181 
L 148.062299 308.909867 
L 148.165256 306.298154 
L 148.222454 306.660735 
L 148.634282 308.179041 
L 148.645722 308.162045 
L 148.680041 308.303678 
L 148.897394 308.722912 
L 148.920274 308.68892 
L 148.977472 308.405654 
L 149.137627 304.150998 
L 149.206265 269.943793 
L 149.263463 254.534121 
L 149.332101 259.916176 
L 149.70961 298.100436 
L 150.075679 304.45126 
L 150.453188 306.825029 
L 150.796378 307.980755 
L 150.842137 307.55019 
L 151.013732 303.771422 
L 151.139568 304.955474 
L 151.379801 306.071542 
L 151.391241 306.054546 
L 151.42556 306.173517 
L 151.471318 306.286824 
L 151.482758 306.173517 
L 151.528517 303.221885 
L 151.654353 286.486529 
L 151.75731 291.415358 
L 152.043301 300.253258 
L 152.363612 304.462591 
L 152.523767 305.295393 
L 152.558086 305.085776 
L 152.695362 302.179466 
L 152.78688 303.369184 
L 153.084311 305.646643 
L 153.45038 306.904344 
L 153.541897 307.164949 
L 153.587656 307.01765 
L 153.656294 304.570232 
L 153.839328 280.028063 
L 153.953725 285.97665 
L 154.216837 297.81717 
L 154.502829 302.179466 
L 154.78882 304.791179 
L 155.520959 308.292347 
L 155.532399 308.275351 
L 155.601037 308.382992 
L 155.898468 308.926863 
L 155.989985 308.78523 
L 156.138701 308.264021 
L 156.184459 308.365996 
L 156.344615 308.78523 
L 156.356054 308.705916 
L 156.481891 306.711723 
L 156.584848 304.0037 
L 156.642046 304.490917 
L 156.859399 305.816602 
L 156.950917 306.213175 
L 157.16827 306.842025 
L 157.271227 307.040311 
L 157.294107 306.955332 
L 157.374184 306.12253 
L 157.465702 304.587228 
L 157.5229 305.091441 
L 157.740253 306.173517 
L 157.991926 306.859021 
L 158.140642 307.18761 
L 158.163521 306.983658 
L 158.220719 303.278539 
L 158.255038 288.80931 
L 158.335116 265.411537 
L 158.380875 268.697423 
L 158.712625 296.23088 
L 158.975737 300.81979 
L 159.582039 305.754284 
L 159.89091 306.847691 
L 159.90235 306.791037 
L 160.451454 308.564283 
L 160.485772 308.42265 
L 160.634488 307.640835 
L 160.691686 307.708819 
L 160.703126 307.674827 
L 160.748885 307.873114 
L 161.160713 309.210129 
L 161.320868 309.340432 
L 161.515342 309.57271 
L 161.526782 309.561379 
L 161.881411 309.946621 
L 161.892851 309.918294 
L 162.144524 310.025935 
L 162.407636 310.224222 
L 162.659308 310.314867 
L 162.682188 310.37152 
L 162.727946 310.218556 
L 162.865222 309.844645 
L 162.899541 309.946621 
L 162.968179 310.133576 
L 162.979619 310.065593 
L 163.048257 307.657831 
L 163.174093 308.445311 
L 163.185533 308.479303 
L 163.196973 308.349 
L 163.27705 304.241643 
L 163.402886 281.161128 
L 163.563042 201.789988 
L 163.574481 201.789988 
L 163.597361 201.393415 
L 163.63168 203.036358 
L 163.665999 204.396035 
L 163.700318 201.110149 
L 163.906232 151.765208 
L 163.97487 159.130125 
L 164.192223 221.391997 
L 164.455335 293.22826 
L 164.741327 300.47987 
L 165.496345 306.864687 
L 165.748017 307.850452 
L 165.839535 308.043073 
L 165.862414 307.952428 
L 166.01113 307.249928 
L 166.045449 307.363235 
L 166.091207 307.646501 
L 166.354319 309.108153 
L 166.537354 309.465069 
L 166.708949 309.793657 
L 166.731828 309.748335 
L 166.777587 309.833314 
L 166.800466 309.686016 
L 166.869104 308.507629 
L 166.937742 304.134002 
L 167.052139 298.553661 
L 167.086458 298.836927 
L 167.406768 296.004267 
L 167.441087 296.344186 
L 168.02451 305.754284 
L 168.253303 307.414223 
L 168.504976 308.626601 
L 168.69945 309.193133 
L 168.71089 309.159141 
L 169.008321 307.640835 
L 169.031201 307.652166 
L 169.328632 309.045835 
L 169.523106 309.680351 
L 170.083649 310.802084 
L 170.095089 310.790754 
L 170.140848 310.892729 
L 170.815788 311.504584 
L 170.838667 311.470592 
L 171.044581 310.762427 
L 171.113219 310.966379 
L 171.342012 311.61789 
L 171.570806 311.697205 
L 171.833918 311.799181 
L 172.051271 311.867164 
L 172.177108 311.759523 
L 172.280065 310.320532 
L 172.325823 306.082872 
L 172.405901 307.663497 
L 172.600375 309.861641 
L 172.909246 310.949383 
L 173.10372 311.357286 
L 173.1266 311.232649 
L 173.206677 308.292347 
L 173.286755 296.570799 
L 173.343953 299.573419 
L 173.572747 306.354808 
L 173.858738 308.983516 
L 174.098971 309.957951 
L 174.442161 310.864403 
L 174.46504 310.756762 
L 174.579437 310.065593 
L 174.648075 310.445169 
L 174.922627 311.289302 
L 175.025584 311.374282 
L 175.265817 311.697205 
L 175.425972 311.595229 
L 175.48317 310.46783 
L 175.620446 293.738139 
L 175.723403 299.403459 
L 175.975076 306.587086 
L 176.238188 309.045835 
L 176.51274 310.178899 
L 176.718654 310.609463 
L 177.17624 311.470592 
L 177.267758 311.572568 
L 177.622387 311.799181 
L 177.656706 311.748193 
L 177.725344 311.810511 
L 177.759663 311.889826 
L 178.045655 305.442691 
L 178.079974 300.253258 
L 178.148612 304.700534 
L 178.297327 308.201702 
L 178.320207 307.674827 
L 178.365965 305.006461 
L 178.434603 306.683396 
L 178.640517 309.459403 
L 178.972267 310.90406 
L 179.22394 311.391278 
L 179.384095 311.583898 
L 179.418414 311.549907 
L 179.475613 311.045693 
L 179.521371 310.19023 
L 179.590009 310.603798 
L 179.864561 311.4366 
L 180.25351 311.844503 
L 180.322148 311.753858 
L 180.402225 311.549907 
L 180.425105 311.419604 
L 180.482303 301.952854 
L 180.608139 305.844929 
L 180.642458 305.595655 
L 180.699656 303.624123 
L 180.756855 295.267776 
L 180.825493 299.516766 
L 181.042846 306.949666 
L 181.340278 309.816318 
L 181.912261 311.413939 
L 182.404166 311.95781 
L 183.090546 312.059785 
L 183.182063 312.105108 
L 183.193503 312.05412 
L 183.365098 310.167568 
L 183.456615 310.887064 
L 183.513813 311.153334 
L 183.548132 310.830411 
L 183.61677 309.997609 
L 183.662529 309.034504 
L 183.731167 309.595371 
L 183.776926 309.674685 
L 183.834124 309.567044 
L 183.845564 309.58404 
L 183.857003 309.493395 
L 183.902762 308.162045 
L 183.98284 308.796561 
L 184.040038 309.068496 
L 184.062917 308.858879 
L 184.177314 296.967372 
L 184.31459 300.026645 
L 184.64634 307.748477 
L 184.943771 309.929625 
L 185.252642 311.011701 
L 185.504315 311.493253 
L 185.801746 311.844503 
L 185.824625 311.867164 
L 185.836065 311.821842 
L 185.881824 311.368616 
L 185.961901 311.640552 
L 186.0191 311.731197 
L 186.064858 309.068496 
L 186.167815 310.626459 
L 186.282212 311.130673 
L 186.305091 311.011701 
L 186.362289 309.799323 
L 186.430927 310.473496 
L 186.751238 311.504584 
L 186.922833 311.821842 
L 187.243143 312.218414 
L 187.71217 312.535672 
L 187.998161 312.637648 
L 188.158317 312.709031 
L 188.581584 312.816672 
L 188.741739 312.816672 
L 188.764619 311.770854 
L 188.810377 310.297871 
L 188.879015 311.515915 
L 188.936214 311.663213 
L 188.981972 311.470592 
L 188.993412 311.459261 
L 189.016291 311.527245 
L 189.256524 312.388374 
L 189.634033 312.760019 
L 189.931464 312.660309 
L 190.103059 312.127769 
L 190.240335 303.573135 
L 190.331852 307.108295 
L 190.549206 310.853072 
L 190.789439 311.889826 
L 191.235586 312.541338 
L 191.716052 312.667674 
L 191.807569 312.286398 
L 191.956285 312.40537 
L 192.105 312.547003 
L 192.253716 312.541338 
L 192.390992 312.637648 
L 192.562587 312.743023 
L 192.688423 312.734525 
L 192.848578 311.912487 
L 192.894337 311.527245 
L 192.951535 308.213033 
L 193.054492 309.408415 
L 193.157449 310.037266 
L 193.534958 311.889826 
L 193.557837 311.765189 
L 193.786631 307.27259 
L 193.866708 304.876159 
L 193.901027 305.77128 
L 194.084062 308.298013 
L 194.187019 309.261117 
L 194.232777 309.000512 
L 194.347174 308.145049 
L 194.392933 308.501964 
L 194.724683 310.671782 
L 194.770442 308.898537 
L 194.907717 302.576039 
L 194.930597 302.915958 
L 194.987795 303.312531 
L 195.010674 303.023599 
L 195.067873 298.950234 
L 195.136511 301.952854 
L 195.342425 308.037408 
L 195.582658 310.082589 
L 196.246158 311.708536 
L 196.589348 312.150431 
L 196.921098 312.337386 
L 197.172771 312.099443 
L 197.241409 311.187326 
L 197.332926 311.708536 
L 197.596038 312.309059 
L 197.984987 312.660309 
L 197.996426 312.620652 
L 198.019306 312.445027 
L 198.099383 312.700533 
L 198.465453 312.840467 
L 199.277669 312.767384 
L 199.449264 309.93529 
L 199.495022 309.130815 
L 199.56366 309.714343 
L 199.712376 310.768092 
L 199.735255 310.700108 
L 199.838212 310.02027 
L 199.883971 310.326197 
L 200.101324 311.470592 
L 200.684747 312.388374 
L 200.753385 312.411035 
L 200.764825 312.382709 
L 200.844902 310.127911 
L 200.902101 291.245398 
L 201.005058 298.610315 
L 201.199532 307.499202 
L 201.428325 309.878637 
L 201.679998 311.028697 
L 202.240541 312.127769 
L 202.343498 312.229745 
L 202.480774 312.360047 
L 202.503654 312.32039 
L 202.858283 312.252406 
L 203.167154 312.467688 
L 203.190033 312.433697 
L 203.544663 312.343051 
L 203.693378 312.524342 
L 204.036568 312.729426 
L 204.070887 312.705065 
L 204.139525 312.774182 
L 204.539913 312.945842 
L 204.631431 312.896553 
L 204.66575 312.927146 
L 204.837345 312.974735 
L 206.072828 313.140729 
L 206.232984 313.155458 
L 206.484656 313.184352 
L 206.564734 313.156025 
L 206.599053 313.186618 
L 206.827846 313.196249 
L 206.942243 313.240438 
L 207.171036 313.24497 
L 207.296872 313.2597 
L 207.434148 313.273297 
L 208.898425 313.379805 
L 209.05858 313.369607 
L 209.813598 313.268765 
L 209.962314 312.58666 
L 209.996633 310.235552 
L 210.042391 302.576039 
L 210.111029 305.827933 
L 210.316943 310.558475 
L 210.557176 311.844503 
L 210.854607 312.388374 
L 211.197797 312.709031 
L 211.403711 312.816672 
L 211.724022 312.909017 
L 211.838418 312.717529 
L 212.067211 311.991802 
L 212.170168 312.212749 
L 212.627755 312.700533 
L 213.062462 312.885789 
L 213.851799 312.995696 
L 213.886118 313.002495 
L 213.897558 312.945275 
L 213.989075 311.277971 
L 214.011954 308.371662 
L 214.080592 294.871203 
L 214.13779 298.666968 
L 214.355144 307.924101 
L 214.595377 310.280875 
L 214.904248 311.35162 
L 215.15592 311.833173 
L 215.258877 311.753858 
L 215.350395 310.768092 
L 215.396153 308.320674 
L 215.476231 303.063256 
L 215.533429 304.298296 
L 215.785102 308.230029 
L 216.059654 309.957951 
L 216.620197 311.300632 
L 216.711715 311.402608 
L 216.929068 311.708536 
L 216.963387 311.600894 
L 217.032025 311.719866 
L 217.112103 311.674544 
L 217.134982 311.719866 
L 217.249379 311.731197 
L 217.340896 311.776519 
L 217.695526 311.980471 
L 218.427664 310.575471 
L 218.484862 310.643455 
L 218.713656 310.938052 
L 218.816612 311.040028 
L 219.136923 311.4366 
L 219.663148 311.810511 
L 219.823303 311.912487 
L 219.972018 312.003132 
L 220.017777 311.175995 
L 220.086415 311.765189 
L 220.26945 312.116439 
L 220.738476 312.218414 
L 220.887191 312.286398 
L 221.2647 312.195753 
L 221.344778 311.833173 
L 221.413416 311.289302 
L 221.482054 311.323294 
L 222.431546 312.110773 
L 223.072167 312.218414 
L 223.30096 312.297729 
L 223.701348 312.40537 
L 224.113176 312.50168 
L 224.216133 312.547003 
L 225.394419 312.648979 
L 225.566013 312.667674 
L 225.771927 312.558334 
L 226.183755 312.082447 
L 226.206635 312.105108 
L 226.652781 312.411035 
L 226.767178 312.445027 
L 227.236204 312.547003 
L 227.419239 312.580995 
L 228.574645 312.692035 
L 228.803438 312.726027 
L 229.924525 312.626317 
L 230.09612 312.50168 
L 230.233396 312.49035 
L 230.507948 312.388374 
L 230.610905 312.161761 
L 235.072373 312.1391 
L 235.564279 311.402608 
L 235.781632 311.470592 
L 236.067624 311.045693 
L 236.365055 307.81646 
L 236.422253 307.521864 
L 236.468012 307.759807 
L 236.89128 309.83898 
L 237.21159 310.133576 
L 238.264039 310.768092 
L 238.492832 310.870068 
L 238.57291 310.836076 
L 238.607229 310.881399 
L 238.870341 310.994705 
L 239.179212 310.921056 
L 239.24785 310.711439 
L 239.305048 310.836076 
L 239.510962 311.175995 
L 239.545281 311.164665 
L 239.59104 311.238314 
L 239.808393 311.481923 
L 240.002868 311.640552 
L 240.494773 311.549907 
L 240.586291 311.17033 
L 240.666368 309.363093 
L 241.684498 309.0515 
L 241.741696 309.119484 
L 241.776015 308.983516 
L 241.844653 308.552952 
L 241.94761 307.53886 
L 242.016248 307.946763 
L 242.233602 308.972186 
L 242.30224 309.034504 
L 242.359438 309.000512 
L 242.439516 308.7739 
L 242.531033 306.094203 
L 242.679749 295.041163 
L 242.759826 296.854065 
L 242.98862 301.839547 
L 243.205973 303.958377 
L 243.228853 303.595797 
L 243.30893 296.287533 
L 243.434767 271.813349 
L 243.503405 277.535322 
L 243.709318 293.964752 
L 243.972431 301.046402 
L 244.041069 301.8962 
L 244.063948 300.933096 
L 244.121146 276.742178 
L 244.315621 184.624067 
L 244.487216 152.898272 
L 244.521535 155.1644 
L 244.578733 161.962785 
L 244.784647 224.394616 
L 245.02488 291.245398 
L 245.207914 295.664348 
L 245.253673 295.494388 
L 245.413828 296.23088 
L 245.471027 296.06092 
L 245.516785 296.004267 
L 245.539664 296.174227 
L 245.779897 298.100436 
L 245.791337 298.157089 
L 245.825656 297.873823 
L 245.928613 296.06092 
L 245.985811 296.627452 
L 246.04301 297.250638 
L 246.054449 297.137331 
L 246.111648 285.013545 
L 246.248924 236.405096 
L 246.306122 241.673844 
L 246.69507 291.925236 
L 246.992502 299.346806 
L 247.0497 300.139951 
L 247.587364 304.36628 
L 247.941994 305.816602 
L 247.953433 305.799606 
L 247.987752 305.674969 
L 248.159347 302.173801 
L 248.227985 272.209921 
L 248.308063 248.019003 
L 248.353822 250.851663 
L 248.75421 285.919997 
L 249.08596 296.004267 
L 249.234676 297.64721 
L 249.257555 297.250638 
L 249.303314 293.738139 
L 249.486348 265.29823 
L 249.554986 269.433914 
L 249.921055 293.511526 
L 250.207047 299.573419 
L 250.43584 302.06616 
L 251.717082 307.878779 
L 252.174669 308.552952 
L 252.197548 308.450976 
L 252.266186 305.176421 
L 252.369143 289.999027 
L 252.506419 295.097816 
L 252.758092 300.083298 
L 253.055523 302.859305 
L 253.535989 305.618316 
L 253.84486 306.587086 
L 253.867739 306.638074 
L 253.924937 306.524767 
L 253.947817 306.439787 
L 253.993575 306.638074 
L 254.291006 307.55019 
L 254.348205 307.629505 
L 254.359644 307.680493 
L 254.393963 307.499202 
L 254.474041 304.643881 
L 254.531239 300.423217 
L 254.611317 301.669588 
L 254.679955 302.23612 
L 254.725714 301.782894 
L 254.908748 300.64983 
L 254.931628 300.706483 
L 255.103222 302.06616 
L 255.206179 302.5987 
L 255.240498 302.41741 
L 255.389214 301.782894 
L 255.423533 301.8962 
L 255.595128 302.349426 
L 255.732404 300.536524 
L 255.789602 292.038543 
L 255.926878 242.013763 
L 256.006956 252.777872 
L 256.315827 292.435115 
L 256.54462 298.440355 
L 257.082284 303.839405 
L 257.128043 303.329527 
L 257.21956 297.930476 
L 257.265319 296.06092 
L 257.333957 297.64721 
L 257.56275 300.593177 
L 257.825862 302.122813 
L 257.848742 302.179466 
L 258.077535 303.459829 
L 258.134733 303.159567 
L 258.23769 300.253258 
L 258.329207 301.612934 
L 258.523682 302.881966 
L 258.535121 302.881966 
L 258.58088 300.706483 
L 258.718156 291.585317 
L 258.775354 293.171607 
L 259.049906 298.836927 
L 259.347337 301.669588 
L 259.381656 301.612934 
L 259.484613 300.196604 
L 259.553251 300.933096 
L 259.827803 303.414506 
L 260.090915 304.286966 
L 260.125234 304.343619 
L 260.571381 306.337812 
L 260.720097 306.717388 
L 260.891692 307.266924 
L 260.903131 307.170614 
L 260.983209 307.431219 
L 261.372158 308.281017 
L 261.395037 308.247025 
L 261.452235 308.382992 
L 261.463675 308.349 
L 261.509434 308.247025 
L 261.600951 307.459545 
L 261.692468 304.298296 
L 261.783985 277.818588 
L 261.864063 257.480088 
L 261.921261 262.975449 
L 262.241572 294.191365 
L 262.527564 300.366564 
L 263.213943 306.12253 
L 263.740168 307.646501 
L 263.751607 307.612509 
L 263.763047 307.595513 
L 263.820245 307.686158 
L 263.831685 307.708819 
L 263.866004 307.612509 
L 264.140556 303.935716 
L 264.197754 294.587937 
L 264.34647 280.707902 
L 264.35791 280.481289 
L 264.403668 281.614353 
L 264.872694 297.760517 
L 265.067169 300.763136 
L 265.467557 305.074445 
L 265.787867 306.864687 
L 266.405609 308.620936 
L 266.474247 308.705916 
L 266.657282 309.13648 
L 266.70304 309.034504 
L 267.160627 309.895633 
L 267.183506 309.83898 
L 267.263584 309.92396 
L 267.38942 309.952286 
L 267.503817 309.663355 
L 267.561015 309.793657 
L 268.007162 310.683113 
L 268.018602 310.671782 
L 268.041481 310.626459 
L 268.08724 310.72277 
L 268.270274 310.994705 
L 268.350352 310.955048 
L 268.499067 310.20156 
L 268.533386 310.399846 
L 268.659223 310.688778 
L 268.682102 310.615129 
L 268.830818 308.887206 
L 268.876576 307.640835 
L 268.933775 308.541621 
L 269.116809 310.071258 
L 269.402801 310.847407 
L 269.42568 310.81908 
L 269.471439 310.949383 
L 269.723111 311.243979 
L 269.734551 311.221318 
L 269.78031 311.334624 
L 270.009103 311.549907 
L 270.054862 311.561237 
L 270.066301 311.527245 
L 270.157819 311.266641 
L 270.192138 311.345955 
L 270.295095 311.549907 
L 270.329414 311.504584 
L 270.489569 310.960713 
L 270.501008 310.972044 
L 270.592526 311.040028 
L 270.615405 310.972044 
L 270.672603 310.246883 
L 270.752681 310.717104 
L 270.947155 311.232649 
L 271.233147 311.368616 
L 271.336104 310.841741 
L 271.404742 311.130673 
L 271.633535 311.663213 
L 271.885208 311.867164 
L 271.919527 311.799181 
L 272.091122 311.504584 
L 272.15976 311.175995 
L 272.216958 311.419604 
L 272.571587 312.003132 
L 272.754622 312.105108 
L 272.937657 312.1391 
L 272.983415 312.105108 
L 273.086372 307.929767 
L 273.109252 304.218982 
L 273.189329 307.963759 
L 273.406683 310.615129 
L 273.441002 310.756762 
L 273.475321 310.462165 
L 273.532519 309.414081 
L 273.601157 310.099585 
L 273.818511 310.830411 
L 274.161701 311.413939 
L 274.253218 311.4366 
L 274.264657 311.459261 
L 274.401933 311.385612 
L 274.493451 307.612509 
L 274.653606 288.526044 
L 274.676485 288.072819 
L 274.710804 289.035923 
L 275.053994 306.434122 
L 275.328546 309.164807 
L 275.751814 310.898395 
L 275.820452 311.006036 
L 276.323797 311.776519 
L 276.392435 311.867164 
L 276.586909 312.025793 
L 276.689866 312.127769 
L 276.861461 312.229745 
L 276.918659 312.082447 
L 276.975858 312.218414 
L 277.090254 312.309059 
L 277.101694 312.297729 
L 277.136013 311.504584 
L 277.23897 311.708536 
L 277.387685 310.921056 
L 277.399125 310.870068 
L 277.444884 311.130673 
L 277.673677 311.651882 
L 278.085505 312.241076 
L 278.291419 312.343051 
L 278.771885 312.666541 
L 278.794764 312.660309 
L 278.851962 312.724894 
L 279.206592 312.855196 
L 279.904411 312.960571 
L 280.076006 313.029688 
L 280.087446 313.016091 
L 280.63655 312.916382 
L 280.705188 312.832535 
L 280.762386 312.909017 
L 280.888222 312.953206 
L 280.911101 312.923747 
L 280.991179 312.626317 
L 281.082696 312.726027 
L 281.208533 312.676172 
L 281.391567 310.224222 
L 281.460205 311.289302 
L 281.494524 311.634886 
L 281.528843 311.034362 
L 281.64324 308.643597 
L 281.677559 306.462449 
L 281.746197 308.162045 
L 281.791956 308.60394 
L 281.849154 308.128053 
L 281.917792 307.00632 
L 281.97499 307.788134 
L 282.032188 308.51896 
L 282.089387 307.878779 
L 282.169464 309.006178 
L 282.421137 310.960713 
L 282.878723 312.184422 
L 282.901603 312.122104 
L 282.947361 310.603798 
L 283.027439 311.697205 
L 283.199034 312.048455 
L 283.210474 312.082447 
L 283.221913 311.980471 
L 283.404948 308.094061 
L 283.473586 309.476399 
L 283.6795 311.459261 
L 283.931172 312.161761 
L 284.251483 312.569664 
L 284.411638 311.821842 
L 284.445957 311.289302 
L 284.514595 311.742527 
L 284.537475 311.833173 
L 284.560354 311.368616 
L 284.583233 310.513153 
L 284.663311 311.538576 
L 284.834906 312.212749 
L 285.326811 312.760019 
L 285.635682 312.863128 
L 285.830156 312.945842 
L 285.944553 312.840467 
L 286.024631 312.901652 
L 286.241984 313.002495 
L 286.825407 313.101638 
L 286.962683 313.095406 
L 287.031321 313.036487 
L 287.088519 313.069346 
L 287.111399 313.082942 
L 287.157157 312.988898 
L 287.237235 312.620652 
L 287.363071 311.821842 
L 287.466028 312.003132 
L 288.106649 313.029688 
L 288.140968 313.043285 
L 288.163848 312.938477 
L 288.198167 312.78438 
L 288.289684 304.830836 
L 288.324003 298.723621 
L 288.392641 303.556139 
L 288.564236 309.000512 
L 288.598555 308.756904 
L 288.621434 309.017508 
L 288.655753 309.017508 
L 288.678632 309.085492 
L 288.701512 308.762569 
L 288.75871 306.740049 
L 288.815908 307.98642 
L 289.033262 310.331863 
L 289.044702 310.348859 
L 289.067581 310.235552 
L 289.124779 309.368758 
L 289.181978 309.963617 
L 289.387892 311.334624 
L 289.673883 312.025793 
L 290.028513 312.50168 
L 290.188668 312.422366 
L 290.234427 312.258072 
L 290.291625 312.394039 
L 290.669134 312.756053 
L 291.046643 312.913549 
L 291.275436 312.88409 
L 291.401272 312.853497 
L 291.595746 312.774182 
L 291.767341 312.774749 
L 292.339324 313.036487 
L 292.682514 313.102204 
L 293.037144 312.848398 
L 293.151541 312.953773 
L 293.288816 313.017225 
L 293.311696 312.995696 
L 293.346015 312.833102 
L 293.368894 312.752088 
L 293.437532 312.880124 
L 293.448972 312.880124 
L 293.483291 312.547003 
L 293.51761 312.116439 
L 293.597687 312.241076 
L 293.883679 312.65861 
L 293.917998 312.637648 
L 294.020955 312.811007 
L 294.078153 312.834801 
L 294.089593 312.811007 
L 294.146791 311.232649 
L 294.272627 312.037124 
L 294.489981 312.669374 
L 295.222119 313.098805 
L 295.359395 313.073311 
L 295.405154 312.933944 
L 295.462352 312.496015 
L 295.53099 312.603656 
L 295.862741 313.020624 
L 295.942818 313.041019 
L 295.965698 312.957172 
L 296.080094 311.95781 
L 296.240249 308.365996 
L 296.263129 308.51896 
L 296.54912 311.821842 
L 296.869431 312.433697 
L 297.029586 312.513011 
L 297.086785 312.416701 
L 297.143983 312.32039 
L 297.201181 312.40537 
L 297.464293 312.648979 
L 297.715966 312.855196 
L 298.219311 313.076144 
L 298.356587 313.114102 
L 298.711217 313.181519 
L 299.477674 313.08011 
L 299.523433 309.521722 
L 299.61495 311.549907 
L 299.797985 312.692035 
L 300.003898 312.988898 
L 300.381407 313.095406 
L 300.896192 313.251769 
L 301.29658 313.196249 
L 301.30802 313.02289 
L 301.376658 313.246103 
L 301.399537 313.175287 
L 301.479615 312.96737 
L 301.594012 312.399705 
L 301.65121 312.603656 
L 301.914322 313.132797 
L 302.165995 313.157724 
L 302.383348 312.792311 
L 302.486305 311.986136 
L 302.520624 311.402608 
L 302.600702 311.810511 
L 302.966771 312.824604 
L 303.550194 313.101071 
L 303.67603 313.1192 
L 303.904823 313.215511 
L 304.179375 313.106737 
L 304.293772 312.860862 
L 304.476807 312.088112 
L 304.579764 311.833173 
L 304.614083 311.901156 
L 305.003031 312.731126 
L 305.117428 312.837067 
L 305.666532 313.072745 
L 305.71229 312.014463 
L 305.746609 311.249645 
L 305.826687 311.770854 
L 305.872445 312.297729 
L 305.895325 311.317628 
L 305.952523 308.269686 
L 306.021161 309.465069 
L 306.101239 310.598133 
L 306.169877 310.405512 
L 306.238515 310.666117 
L 306.272834 310.479161 
L 306.421549 307.153618 
L 306.478748 306.13386 
L 306.524506 307.074303 
L 306.673222 309.102488 
L 306.696101 308.830553 
L 306.74186 308.728577 
L 306.810498 308.218698 
L 307.016412 303.646784 
L 307.107929 233.855702 
L 307.176567 219.182522 
L 307.222326 224.507923 
L 307.336722 273.399639 
L 307.508317 301.329668 
L 307.771429 307.470876 
L 308.10318 310.003274 
L 308.331973 310.813415 
L 308.412051 310.439504 
L 308.503568 310.643455 
L 309.292905 311.980471 
L 309.430181 312.082447 
L 309.842008 312.337386 
L 310.722862 312.661442 
L 310.871578 312.343051 
L 311.043173 311.821842 
L 311.123251 311.991802 
L 311.683794 312.637648 
L 312.816321 312.743023 
L 312.999355 312.824604 
L 313.84589 312.927712 
L 314.017485 312.970769 
L 314.234839 312.984366 
L 314.8869 312.894854 
L 315.058495 312.32039 
L 315.172891 311.583898 
L 315.20721 311.651882 
L 315.378805 312.037124 
L 315.390245 312.025793 
L 316.168142 312.648979 
L 316.488452 312.754354 
L 316.591409 312.770783 
L 316.614289 312.720928 
L 316.854522 312.547003 
L 316.980358 312.456358 
L 317.140513 312.309059 
L 317.163392 312.297729 
L 317.220591 312.377043 
L 317.609539 312.609321 
L 317.838333 312.603656 
L 317.884091 312.496015 
L 317.964169 308.173376 
L 317.987048 304.655212 
L 318.044247 292.548422 
L 318.101445 297.250638 
L 318.295919 306.473779 
L 318.547592 309.368758 
L 318.764945 310.269544 
L 318.867902 307.935432 
L 318.982299 298.610315 
L 319.085256 300.989749 
L 319.348368 306.360473 
L 319.63436 308.711581 
L 319.657239 308.626601 
L 319.760196 305.352046 
L 319.851713 301.103056 
L 319.920351 301.329668 
L 320.000429 300.989749 
L 320.034748 301.273015 
L 320.114825 302.122813 
L 320.28642 303.890393 
L 320.320739 303.56747 
L 320.389377 299.686725 
L 320.549533 269.150648 
L 320.65249 278.215161 
L 320.915602 298.043783 
L 321.178714 304.071684 
L 321.487585 307.011985 
L 322.116766 309.578375 
L 322.67731 310.671782 
L 322.814586 310.802084 
L 322.848905 310.728435 
L 322.963301 310.02027 
L 323.0205 309.65769 
L 323.089138 309.754 
L 323.443767 310.473496 
L 323.649681 310.575471 
L 323.947112 310.921056 
L 324.244544 311.164665 
L 324.553415 311.07402 
L 324.999561 310.037266 
L 325.228355 306.03755 
L 325.319872 306.558759 
L 325.74314 308.586944 
L 326.269364 309.804988 
L 326.73839 310.501822 
L 326.818468 310.598133 
L 326.898545 310.671782 
L 326.932864 310.569806 
L 326.990063 309.635028 
L 327.047261 304.264304 
L 327.150218 268.980689 
L 327.253175 277.025444 
L 327.516287 295.947614 
L 327.802279 302.06616 
L 328.374262 306.689062 
L 328.4429 306.83636 
L 328.465779 306.598416 
L 328.477219 306.541763 
L 328.522978 306.876017 
L 328.660253 307.00632 
L 328.717452 307.051642 
L 328.740331 306.989324 
L 328.820409 305.476683 
L 328.969124 300.593177 
L 329.049202 301.216362 
L 329.369513 304.343619 
L 330.078772 307.652166 
L 330.113091 307.238598 
L 330.181729 298.950234 
L 330.47916 252.607912 
L 330.502039 252.04138 
L 330.547798 254.194202 
L 331.096902 295.834308 
L 331.348574 300.763136 
L 331.680324 304.049022 
L 332.069273 306.247167 
L 332.080713 306.230171 
L 332.115032 304.213317 
L 332.195109 275.099235 
L 332.366704 233.799048 
L 332.378144 234.195621 
L 332.458221 247.225858 
L 332.744213 291.415358 
L 332.984446 298.723621 
L 333.007325 298.213742 
L 333.2018 293.511526 
L 333.350515 255.497226 
L 333.464912 266.487948 
L 333.750903 293.001647 
L 333.785222 293.511526 
L 333.819541 292.321809 
L 333.945378 282.917377 
L 334.025455 285.693384 
L 334.174171 289.999027 
L 334.20849 289.432495 
L 334.311447 286.203263 
L 334.471602 264.845005 
L 334.5288 266.204682 
L 335.020706 296.684106 
L 335.272379 301.046402 
L 335.924439 306.445453 
L 336.23331 307.53886 
L 336.484983 308.060069 
L 336.553621 307.929767 
L 336.736655 307.221602 
L 336.782414 307.323577 
L 337.342957 308.654928 
L 337.720466 309.017508 
L 337.777665 308.535956 
L 337.960699 306.281159 
L 338.120855 306.462449 
L 338.25813 306.541763 
L 338.26957 306.524767 
L 338.303889 305.380373 
L 338.372527 291.64197 
L 338.509803 225.810947 
L 338.589881 236.008523 
L 338.910191 293.22826 
L 339.150424 299.743379 
L 339.447855 302.757329 
L 339.459295 302.734668 
L 339.482174 302.462733 
L 339.539373 288.696004 
L 339.676649 227.793809 
L 339.733847 233.402476 
L 340.122795 292.661728 
L 340.443106 300.026645 
L 340.694779 302.825313 
L 341.015089 304.915816 
L 341.049408 305.046119 
L 341.095167 305.301058 
L 341.609952 308.094061 
L 341.66715 308.230029 
L 341.724348 308.128053 
L 342.776797 309.533052 
L 342.811116 309.499061 
L 342.868315 309.589706 
L 342.971271 309.680351 
L 343.165746 309.929625 
L 343.268703 309.929625 
L 343.314461 309.391419 
L 343.36022 305.471018 
L 343.405979 271.020204 
L 343.554694 193.122047 
L 343.589013 191.422451 
L 343.634772 194.255112 
L 344.241074 293.39822 
L 344.401229 297.250638 
L 344.435548 296.967372 
L 344.618583 293.39822 
L 344.664342 293.908099 
L 344.847376 296.117574 
L 344.870255 295.607695 
L 344.927454 289.319189 
L 345.06473 235.441991 
L 345.156247 246.262753 
L 345.442239 289.205883 
L 345.72823 297.930476 
L 345.876946 299.743379 
L 345.899825 299.346806 
L 346.002782 296.344186 
L 346.07142 297.590557 
L 346.208696 299.743379 
L 346.220136 299.573419 
L 346.288774 288.186125 
L 346.483248 248.075656 
L 346.506127 247.225858 
L 346.551886 249.095414 
L 346.689162 272.266574 
L 346.906515 290.338947 
L 346.929395 290.735519 
L 346.952274 290.112334 
L 347.009472 272.153268 
L 347.238266 194.255112 
L 347.318343 190.289387 
L 347.352662 193.122047 
L 347.535697 251.304889 
L 347.615775 267.224439 
L 347.650094 263.995207 
L 347.856007 245.299649 
L 347.924645 231.419614 
L 348.10768 194.255112 
L 348.222077 188.023259 
L 348.244956 189.722855 
L 348.359353 210.401275 
L 348.736861 289.545802 
L 349.011413 296.967372 
L 349.343164 301.442975 
L 349.846509 304.490917 
L 350.063862 305.578659 
L 350.086742 305.482348 
L 350.121061 304.609889 
L 350.212578 289.432495 
L 350.281216 280.481289 
L 350.338414 282.80407 
L 350.624406 296.004267 
L 350.967596 301.839547 
L 351.196389 303.686442 
L 351.49382 305.046119 
L 351.5167 304.89882 
L 351.619656 301.839547 
L 351.711174 298.666968 
L 351.768372 299.2335 
L 351.814131 299.913338 
L 351.84845 299.176847 
L 351.894208 292.605075 
L 352.020045 247.395818 
L 352.111562 260.596014 
L 352.351795 290.22564 
L 352.660666 299.346806 
L 353.038175 303.306865 
L 353.244089 304.541905 
L 353.278408 304.524909 
L 353.427123 305.051784 
L 353.781753 307.249928 
L 354.399495 308.739908 
L 354.754124 309.329101 
L 354.857081 309.436742 
L 355.051555 309.58404 
L 355.062995 309.567044 
L 355.268909 309.385754 
L 355.303228 309.442407 
L 355.646418 310.11658 
L 356.058246 310.54148 
L 356.172642 310.473496 
L 356.309918 309.561379 
L 356.389996 308.932528 
L 356.447194 309.23279 
L 356.710306 310.320532 
L 356.778944 310.416842 
L 357.087815 310.677447 
L 357.362367 310.802084 
L 357.659798 310.717104 
L 357.854273 308.139384 
L 357.922911 308.734242 
L 358.117385 309.527387 
L 358.300419 309.725673 
L 358.506333 309.782327 
L 358.62073 309.878637 
L 358.860963 310.19023 
L 359.124075 310.11658 
L 359.272791 309.408415 
L 359.341429 309.578375 
L 359.547343 310.099585 
L 359.707498 310.263879 
L 359.730377 310.229887 
L 359.821895 309.776661 
L 359.97061 308.541621 
L 360.027809 284.730279 
L 360.130766 227.907115 
L 360.165084 229.946631 
L 360.32524 274.192783 
L 360.531154 293.964752 
L 360.805706 301.499628 
L 361.034499 304.258639 
L 361.045939 303.884728 
L 361.194654 297.420597 
L 361.206094 297.590557 
L 361.572163 304.026361 
L 361.595042 304.060353 
L 361.617922 303.924385 
L 361.743758 302.564708 
L 361.800956 303.272873 
L 362.052629 305.850594 
L 362.304301 306.757045 
L 362.658931 307.737146 
L 362.807647 307.997751 
L 362.910604 308.213033 
L 362.933483 308.145049 
L 363.013561 306.938336 
L 363.150836 293.114954 
L 363.208035 282.520804 
L 363.276673 286.939754 
L 363.516906 297.81717 
L 363.928734 303.83374 
L 364.294803 306.116864 
L 364.649432 307.567186 
L 364.821027 308.003416 
L 364.923984 308.060069 
L 364.935424 308.026077 
L 365.026941 307.856118 
L 365.06126 307.963759 
L 365.347252 309.170472 
L 365.587485 309.612367 
L 365.976433 310.280875 
L 366.056511 310.388516 
L 366.514097 310.881399 
L 366.651373 310.983375 
L 366.903046 311.164665 
L 367.074641 311.091016 
L 367.10896 311.028697 
L 367.166158 311.130673 
L 367.177598 311.130673 
L 367.211917 311.011701 
L 367.463589 305.850594 
L 367.555107 307.266924 
L 367.77246 309.368758 
L 368.081331 310.450834 
L 368.298685 310.881399 
L 368.401642 310.977709 
L 368.699073 311.221318 
L 368.950745 311.334624 
L 369.088021 310.535814 
L 369.12234 309.238456 
L 369.179539 287.789553 
L 369.328254 207.851881 
L 369.374013 210.287968 
L 369.47697 237.934732 
L 369.717203 295.607695 
L 369.957436 302.898962 
L 370.243427 306.326481 
L 370.540859 308.190372 
L 370.701014 308.530291 
L 370.792531 308.632267 
L 371.742023 311.108012 
L 372.725834 311.935148 
L 372.87455 312.025793 
L 373.034705 312.105108 
L 373.183421 312.207084 
L 373.320697 312.241076 
L 373.526611 312.331721 
L 373.53805 312.309059 
L 373.641007 312.354382 
L 373.835481 312.411035 
L 373.949878 312.445027 
L 374.110033 312.49035 
L 374.121473 312.467688 
L 374.167232 312.456358 
L 374.21299 312.507346 
L 374.418904 312.614987 
L 375.105284 312.724327 
L 375.265439 312.765684 
L 375.642948 312.876725 
L 375.814543 312.929412 
L 375.92894 312.724894 
L 376.054776 312.394039 
L 376.169173 311.685874 
L 376.203492 311.753858 
L 376.420845 312.195753 
L 376.455164 312.173092 
L 376.535242 312.082447 
L 376.581 311.69154 
L 376.626759 309.906964 
L 376.695397 291.98189 
L 376.752595 298.950234 
L 376.92419 307.357569 
L 376.992828 304.796845 
L 377.050027 306.502106 
L 377.210182 309.130815 
L 377.221622 308.853214 
L 377.370337 303.335192 
L 377.393216 303.510817 
L 377.94232 310.90406 
L 377.9652 310.796419 
L 378.056717 308.722912 
L 378.159674 297.420597 
L 378.205433 300.196604 
L 378.411346 308.179041 
L 378.685898 310.490492 
L 378.994769 311.470592 
L 379.074847 311.561237 
L 379.246442 311.799181 
L 379.280761 311.742527 
L 379.360838 311.651882 
L 379.395157 311.294967 
L 379.612511 306.48511 
L 379.704028 307.771138 
L 379.749787 308.162045 
L 379.875623 309.425411 
L 379.887063 308.762569 
L 380.081537 288.752657 
L 380.138736 293.114954 
L 380.356089 304.779849 
L 380.504805 306.434122 
L 380.527684 306.173517 
L 380.619201 302.41741 
L 380.699279 288.639351 
L 380.790796 293.568179 
L 381.042469 304.077349 
L 381.168305 306.043215 
L 381.214064 305.60132 
L 381.32846 303.448498 
L 381.385659 304.428599 
L 381.637331 308.320674 
L 381.946202 310.088254 
L 382.083478 310.490492 
L 382.106358 310.331863 
L 382.300832 307.674827 
L 382.323711 307.844787 
L 382.541065 309.93529 
L 382.769858 310.892729 
L 382.918574 311.187326 
L 382.930013 311.17033 
L 382.998651 310.620794 
L 383.078729 310.960713 
L 383.284643 311.4366 
L 383.616393 311.855834 
L 383.685031 311.855834 
L 383.845186 309.567044 
L 383.902385 310.280875 
L 383.913824 310.433838 
L 383.925264 309.969282 
L 384.0511 290.168987 
L 384.108298 291.245398 
L 384.39429 308.830553 
L 384.520126 309.748335 
L 384.565885 309.720008 
L 384.600204 308.60394 
L 384.657402 305.448356 
L 384.72604 307.01765 
L 384.794678 307.476541 
L 384.806118 307.442549 
L 384.840437 299.290153 
L 384.920515 304.394607 
L 385.240825 309.431077 
L 385.584015 311.006036 
L 385.629774 310.966379 
L 385.675532 311.028697 
L 385.686972 310.966379 
L 385.778489 307.946763 
L 385.835688 279.574838 
L 385.915765 241.95711 
L 385.972963 247.509124 
L 386.030162 257.933314 
L 386.236076 300.64983 
L 386.396231 305.131098 
L 386.41911 304.683538 
L 386.476309 294.64459 
L 386.567826 296.344186 
L 386.819499 306.6664 
L 387.10549 309.091157 
L 387.471559 310.484826 
L 387.505878 310.422508 
L 387.551637 309.929625 
L 387.700353 306.12253 
L 387.746111 306.881682 
L 387.997784 309.867306 
L 388.386732 310.983375 
L 388.432491 300.026645 
L 388.535448 306.292489 
L 388.569767 307.385896 
L 388.649845 306.774041 
L 388.718483 303.323861 
L 388.764241 305.091441 
L 388.855758 307.062973 
L 388.890077 305.935574 
L 388.912957 305.369042 
L 389.015914 266.544601 
L 389.14175 277.818588 
L 389.507819 303.975373 
L 389.896768 308.802226 
L 390.17132 309.963617 
L 390.697544 311.187326 
L 390.83482 311.289302 
L 390.903458 311.334624 
L 390.926337 311.260975 
L 390.983536 310.824746 
L 391.052174 311.153334 
L 391.212329 311.4366 
L 391.235208 311.374282 
L 391.292407 310.20156 
L 391.361045 310.932387 
L 391.418243 311.175995 
L 391.452562 310.836076 
L 391.475441 310.654786 
L 391.544079 311.034362 
L 391.784312 311.61789 
L 391.795752 311.60656 
L 391.84151 305.669304 
L 391.933028 308.654928 
L 391.967347 309.108153 
L 391.990226 308.122388 
L 392.081743 306.479445 
L 392.116062 307.255594 
L 392.321976 310.365855 
L 392.493571 310.972044 
L 392.505011 310.892729 
L 392.607968 308.949524 
L 392.676606 309.66902 
L 392.928278 311.062689 
L 393.145632 311.549907 
L 393.282908 311.651882 
L 393.305787 311.583898 
L 393.362986 311.4366 
L 393.420184 311.561237 
L 393.820572 312.110773 
L 394.90734 312.626317 
L 394.91878 312.592326 
L 395.124694 311.17033 
L 395.170452 311.413939 
L 395.525082 312.399705 
L 396.58897 312.816672 
L 396.703367 312.832535 
L 397.069436 312.931112 
L 397.229592 312.960571 
L 397.401187 312.901085 
L 397.446945 312.286398 
L 397.515583 309.0515 
L 397.584221 311.011701 
L 397.62998 311.402608 
L 397.664299 310.785088 
L 397.675738 310.615129 
L 397.732937 311.17033 
L 397.893092 312.105108 
L 397.927411 312.037124 
L 398.167644 312.422366 
L 398.396437 312.637648 
L 398.865463 312.547003 
L 398.922662 312.110773 
L 398.97986 309.346097 
L 399.094257 310.977709 
L 399.563283 312.580995 
L 399.780636 312.770217 
L 400.238223 312.975868 
L 400.375499 313.014392 
L 401.439387 313.170188 
L 401.610982 313.203614 
L 410.064893 313.511807 
L 410.259367 313.518605 
L 410.659756 313.541833 
L 412.444343 313.522571 
L 412.718895 313.268765 
L 412.787533 313.350345 
L 413.165042 313.507841 
L 413.954378 313.411531 
L 414.080215 312.591192 
L 414.125973 308.371662 
L 414.206051 310.156238 
L 414.423405 312.716396 
L 414.652198 313.198515 
L 415.006827 313.408132 
L 415.132664 313.246103 
L 415.201302 313.101071 
L 415.464414 308.620936 
L 415.544492 310.173234 
L 415.773285 312.416701 
L 416.047837 312.981533 
L 416.379587 313.216644 
L 416.539742 313.114102 
L 416.585501 312.473354 
L 416.631259 309.555714 
L 416.677018 300.876443 
L 416.745656 303.374849 
L 416.96301 309.754 
L 417.226122 311.595229 
L 417.523553 312.275068 
L 417.809545 312.603656 
L 418.015459 312.709031 
L 418.473045 312.916382 
L 418.919192 312.241076 
L 418.930632 312.252406 
L 419.514054 312.675039 
L 419.891563 312.57533 
L 420.131796 312.411035 
L 420.246193 312.50168 
L 420.429227 312.626317 
L 420.955452 312.734525 
L 421.241444 312.816672 
L 421.390159 312.840467 
L 421.653271 312.885789 
L 421.824866 312.901652 
L 422.602763 312.824604 
L 422.7286 312.031459 
L 422.888755 310.496157 
L 422.945953 308.42265 
L 423.04891 298.497008 
L 423.117548 300.876443 
L 423.357781 307.618174 
L 423.643773 309.946621 
L 423.861126 310.694443 
L 423.872566 310.63779 
L 423.998402 309.079827 
L 424.08992 306.779707 
L 424.158558 307.425553 
L 424.444549 309.482065 
L 424.776299 310.433838 
L 424.787739 310.416842 
L 424.822058 309.946621 
L 424.879256 306.677731 
L 424.936455 281.671006 
L 425.073731 222.581714 
L 425.09661 223.431512 
L 425.176687 242.240376 
L 425.42836 296.967372 
L 425.680033 304.134002 
L 426.000343 307.300916 
L 426.480809 309.680351 
L 426.732482 310.224222 
L 426.984154 310.700108 
L 427.418861 311.017366 
L 427.521818 310.37152 
L 427.579017 308.003416 
L 427.693413 291.188745 
L 427.773491 294.81455 
L 428.013724 301.952854 
L 428.322595 304.938478 
L 428.425552 305.284062 
L 428.448431 305.182086 
L 428.505629 304.026361 
L 428.597147 296.287533 
L 428.688664 291.698624 
L 428.734423 292.491768 
L 429.134811 302.576039 
L 429.14625 302.179466 
L 429.340725 276.855484 
L 429.48944 249.095414 
L 429.51232 249.775252 
L 429.649596 272.7198 
L 429.889829 294.531284 
L 430.118622 301.273015 
L 430.427493 305.221744 
L 431.20539 308.51896 
L 431.251148 308.620936 
L 431.765933 309.816318 
L 432.063364 310.246883 
L 432.246399 310.462165 
L 432.772623 310.881399 
L 432.784063 310.864403 
L 432.852701 310.411177 
L 432.944218 296.627452 
L 433.035736 273.286332 
L 433.115813 279.461531 
L 433.436124 300.933096 
L 433.779314 305.539002 
L 433.89371 306.077207 
L 433.91659 305.924243 
L 433.962348 304.043357 
L 434.019547 291.98189 
L 434.168262 245.809528 
L 434.202581 246.999245 
L 434.946159 297.590557 
L 435.197832 301.386322 
L 435.25503 301.216362 
L 435.289349 301.442975 
L 435.907091 306.48511 
L 436.341798 307.652166 
L 436.353238 307.63517 
L 436.364678 307.652166 
L 436.376117 307.487872 
L 436.467635 297.760517 
L 436.559152 285.070199 
L 436.60491 286.373222 
L 436.9481 299.346806 
L 437.073937 301.103056 
L 437.108256 300.366564 
L 437.165454 292.095196 
L 437.256971 285.240158 
L 437.30273 286.14661 
L 437.680239 296.797412 
L 438.149265 303.901724 
L 438.160705 303.896059 
L 438.172144 303.958377 
L 438.252222 304.36628 
L 438.286541 304.049022 
L 438.378058 301.159709 
L 438.423817 300.366564 
L 438.481015 301.103056 
L 438.744127 304.150998 
L 438.98436 305.618316 
L 439.464826 307.436884 
L 439.762257 308.060069 
L 439.842335 307.799464 
L 439.899533 306.207509 
L 440.059689 294.078058 
L 440.162646 296.344186 
L 440.608792 303.085918 
L 440.67743 303.357853 
L 440.723189 303.13124 
L 440.860465 301.782894 
L 440.906224 302.292773 
L 441.249414 304.638216 
L 441.844276 307.028981 
L 442.187466 307.833456 
L 442.267544 307.929767 
L 442.427699 308.365996 
L 442.793768 309.13648 
L 442.885285 309.085492 
L 443.022561 307.357569 
L 443.114079 303.873397 
L 443.194156 287.053061 
L 443.297113 243.939972 
L 443.571665 95.112003 
L 443.708941 125.704734 
L 444.383881 295.324429 
L 444.532597 297.987129 
L 444.555476 297.533904 
L 444.624114 288.97927 
L 444.910106 238.444611 
L 444.932985 237.821426 
L 444.967304 239.860941 
L 445.207537 276.515565 
L 445.264735 265.581496 
L 445.43633 212.270831 
L 445.504968 218.842602 
L 445.653684 259.972829 
L 445.848158 286.203263 
L 446.12271 295.437735 
L 446.44302 300.706483 
L 446.729012 303.403176 
L 446.763331 303.573135 
L 446.80909 303.403176 
L 446.957805 300.366564 
L 447.060762 301.556281 
L 447.300995 303.48249 
L 447.335314 303.595797 
L 447.392512 303.48249 
L 447.449711 303.403176 
L 447.48403 303.573135 
L 447.975935 305.844929 
L 448.296246 306.558759 
L 448.422082 306.689062 
L 448.444961 306.615412 
L 448.547918 305.86759 
L 448.730953 302.5987 
L 448.82247 302.961281 
L 449.028384 303.618458 
L 449.039824 303.573135 
L 449.074143 303.48249 
L 449.131341 303.357853 
L 449.16566 303.48249 
L 449.52029 305.459687 
L 449.646126 305.539002 
L 450.286747 307.521864 
L 450.298187 307.487872 
L 450.389704 306.893013 
L 450.53842 303.924385 
L 450.618497 263.768594 
L 450.698575 246.489366 
L 450.744334 251.361542 
L 451.064644 292.888341 
L 451.327756 299.913338 
L 451.648067 304.134002 
L 451.979817 306.207509 
L 452.197171 307.085634 
L 452.506042 307.856118 
L 452.608999 307.697489 
L 452.757714 307.618174 
L 453.169542 308.68892 
L 453.203861 306.383134 
L 453.329697 283.030683 
L 453.421215 289.999027 
L 453.627129 300.933096 
L 453.798723 302.179466 
L 453.935999 303.403176 
L 454.199112 305.102772 
L 454.25631 305.182086 
L 454.359267 305.340715 
L 454.382146 305.261401 
L 454.485103 303.465494 
L 454.565181 302.23612 
L 454.61094 302.621361 
L 454.748215 303.403176 
L 454.771095 303.13124 
L 454.874052 297.987129 
L 455.034207 294.021405 
L 455.045647 294.021405 
L 455.102845 293.624833 
L 455.137164 293.964752 
L 455.205802 294.927856 
L 455.251561 294.248018 
L 455.297319 287.109714 
L 455.514673 200.486964 
L 455.560432 204.282729 
L 455.674828 234.818806 
L 455.903621 286.826448 
L 456.018018 290.905479 
L 456.052337 289.715761 
L 456.201053 271.020204 
L 456.29257 276.005686 
L 456.418406 283.540562 
L 456.429846 281.897619 
L 456.601441 217.822845 
L 456.658639 222.411754 
L 456.727277 237.424854 
L 456.944631 283.087337 
L 457.242062 295.381082 
L 457.63101 301.839547 
L 457.65389 301.726241 
L 457.756847 300.083298 
L 457.802605 300.536524 
L 458.202994 304.89882 
L 458.225873 304.921482 
L 458.237313 304.859163 
L 458.271632 303.221885 
L 458.420347 280.821208 
L 458.523304 284.333707 
L 458.900813 296.967372 
L 459.449917 303.550474 
L 459.552874 304.405937 
L 459.861745 306.247167 
L 459.953262 306.575755 
L 460.285012 307.674827 
L 461.566254 310.031601 
L 461.577694 309.991943 
L 461.634892 309.48773 
L 461.680651 304.915816 
L 461.72641 240.597433 
L 461.886565 163.662381 
L 461.909444 163.095849 
L 461.932324 165.928509 
L 462.035281 186.890195 
L 462.515746 297.363944 
L 462.847497 302.915958 
L 463.110609 304.71753 
L 463.156368 304.405937 
L 463.259325 302.23612 
L 463.327963 303.176563 
L 463.568195 305.301058 
L 463.659713 305.539002 
L 463.694032 305.380373 
L 463.76267 304.173659 
L 463.819868 302.712007 
L 463.888506 303.199224 
L 464.140179 304.615554 
L 464.552006 306.394465 
L 464.586325 306.31515 
L 464.746481 305.51634 
L 464.803679 303.505151 
L 464.883757 297.363944 
L 464.963834 298.950234 
L 465.169748 301.952854 
L 465.192628 302.009507 
L 465.215507 301.669588 
L 465.272705 295.154469 
L 465.352783 271.643389 
L 465.421421 275.099235 
L 465.638774 285.693384 
L 466.084921 299.006887 
L 466.279395 301.612934 
L 466.302275 300.706483 
L 466.348033 290.56556 
L 466.428111 261.275853 
L 466.485309 264.618392 
L 466.851379 293.681486 
L 467.125931 300.47987 
L 467.82375 306.360473 
L 467.972466 305.482348 
L 468.006785 305.221744 
L 468.052543 305.754284 
L 468.258457 307.051642 
L 468.349974 307.357569 
L 468.716044 308.637932 
L 468.773242 308.535956 
L 468.899078 307.470876 
L 468.921958 307.357569 
L 468.979156 307.578517 
L 469.230828 309.017508 
L 469.436742 309.442407 
L 469.745613 309.918294 
L 470.317596 310.337528 
L 470.420553 310.445169 
L 470.820942 310.864403 
L 470.832381 310.847407 
L 470.88958 310.938052 
L 471.084054 311.08535 
L 471.19845 311.187326 
L 471.484442 311.413939 
L 471.56452 311.34029 
L 471.633158 310.411177 
L 471.667477 306.660735 
L 471.861951 197.087772 
L 471.964908 208.305106 
L 472.102184 242.523642 
L 472.330977 290.678866 
L 472.605529 300.763136 
L 473.005917 305.063115 
L 473.108874 305.946905 
L 473.120314 305.748618 
L 473.154633 297.873823 
L 473.25759 301.046402 
L 473.440624 305.102772 
L 473.452064 304.524909 
L 473.486383 295.041163 
L 473.532142 250.681703 
L 473.60078 267.281092 
L 473.795254 294.81455 
L 474.218521 304.2813 
L 474.664668 307.317912 
L 475.659919 310.388516 
L 475.739997 310.473496 
L 475.96879 310.756762 
L 476.048867 310.864403 
L 476.231902 311.028697 
L 476.323419 311.119342 
L 476.357738 311.164665 
L 476.403497 311.07402 
L 476.563652 310.326197 
L 476.620851 310.615129 
L 476.96404 311.413939 
L 477.261472 311.765189 
L 477.455946 311.867164 
L 477.501705 311.901156 
L 477.536024 310.977709 
L 477.616101 311.731197 
L 477.810575 312.059785 
L 477.867774 312.105108 
L 477.913532 312.025793 
L 478.108007 311.980471 
L 478.382559 312.286398 
L 478.599912 312.388374 
L 478.794386 312.433697 
L 479.297732 312.40537 
L 479.34349 312.161761 
L 479.435008 312.218414 
L 479.572284 312.32039 
L 479.949792 312.547003 
L 480.407379 312.45919 
L 480.430258 312.272235 
L 480.476017 311.504584 
L 480.544655 311.923818 
L 480.762008 312.388374 
L 480.853526 312.337386 
L 480.899284 312.161761 
L 480.979362 312.241076 
L 481.208155 312.388374 
L 481.574224 311.946479 
L 481.631423 312.088112 
L 481.837337 312.40537 
L 482.134768 312.675039 
L 482.500837 312.816672 
L 482.832587 312.45919 
L 482.866906 312.195753 
L 482.924105 307.844787 
L 483.015622 281.38774 
L 483.08426 293.766466 
L 483.232976 301.754567 
L 483.461769 308.527458 
L 483.644803 309.929625 
L 483.656243 309.660522 
L 483.850717 299.06354 
L 483.907916 300.253258 
L 484.159588 309.895633 
L 484.44558 311.25531 
L 484.571416 311.527245 
L 484.674373 311.742527 
L 484.708692 311.629221 
L 484.731571 311.374282 
L 484.77733 307.553023 
L 484.868847 309.340432 
L 485.086201 311.198657 
L 485.292115 311.708536 
L 485.360753 311.748193 
L 485.406511 309.414081 
L 485.486589 310.748264 
L 485.543787 310.872901 
L 485.578106 310.688778 
L 485.600986 310.768092 
L 485.715382 310.649121 
L 485.738262 310.779423 
L 485.898417 311.391278 
L 485.932736 311.379947 
L 486.264486 311.810511 
L 486.321684 311.889826 
L 486.527598 312.258072 
L 486.699193 312.388374 
L 487.099582 312.631983 
L 488.037634 312.974168 
L 489.650626 312.878424 
L 489.742144 312.507346 
L 489.810782 311.527245 
L 489.87942 311.657548 
L 489.902299 311.736862 
L 489.913739 311.640552 
L 490.039575 310.221389 
L 489.993816 311.997467 
L 490.062454 310.470663 
L 490.234049 312.110773 
L 490.268368 311.912487 
L 490.325566 311.226983 
L 490.382765 311.629221 
L 490.577239 312.331721 
L 490.622998 310.538647 
L 490.703075 311.637719 
L 490.88611 312.408203 
L 490.908989 312.450693 
L 490.931869 312.345884 
L 491.023386 309.643526 
L 491.046265 304.36628 
L 491.126343 308.218698 
L 491.309377 310.651953 
L 491.503852 311.453596 
L 491.515291 311.408274 
L 491.583929 310.745431 
L 491.664007 311.147669 
L 491.675447 311.153334 
L 491.686886 311.037195 
L 491.744085 310.688778 
L 491.789843 310.952215 
L 491.835602 311.221318 
L 491.869921 310.855905 
L 491.91568 272.351554 
L 491.995757 289.545802 
L 492.23599 308.020412 
L 492.476223 310.521651 
L 492.727896 311.481923 
L 492.739335 311.459261 
L 492.842292 311.317628 
L 492.888051 311.453596 
L 493.139723 311.719866 
L 493.26556 311.827507 
L 493.299879 311.878495 
L 493.322758 311.782185 
L 493.368517 311.175995 
L 493.448594 311.391278 
L 493.59731 311.294967 
L 493.757465 310.19023 
L 493.803224 310.496157 
L 494.226491 312.037124 
L 494.443845 312.32039 
L 494.466724 312.286398 
L 494.569681 312.218414 
L 494.604 312.252406 
L 494.695518 312.008798 
L 494.798475 311.334624 
L 494.855673 311.578233 
L 494.992949 311.725531 
L 495.038707 311.742527 
L 495.061587 311.804846 
L 495.324699 312.32039 
L 495.564932 312.563999 
L 495.805165 312.637648 
L 495.816605 312.57533 
L 496.033958 309.734171 
L 496.125475 310.790754 
L 496.457226 312.110773 
L 496.788976 312.592326 
L 496.800415 312.580995 
L 496.949131 310.06276 
L 496.97201 309.601036 
L 497.052088 310.297871 
L 497.074967 310.380018 
L 497.360959 311.867164 
L 497.727028 312.354382 
L 497.829985 312.411035 
L 497.852864 312.365713 
L 498.00158 311.547074 
L 498.035899 311.153334 
L 498.093097 311.61789 
L 498.276132 312.173092 
L 498.985391 312.726027 
L 499.305702 312.836501 
L 499.626012 312.840467 
L 499.786167 312.656344 
L 499.957762 310.388516 
L 499.980642 310.538647 
L 500.197995 311.844503 
L 500.586944 312.377043 
L 500.72422 312.484684 
L 500.941573 312.609321 
L 501.010211 312.552668 
L 501.05597 310.436671 
L 501.170367 311.266641 
L 501.273324 311.459261 
L 501.296203 311.368616 
L 501.376281 310.802084 
L 501.444919 311.00037 
L 501.708031 311.583898 
L 501.936824 312.173092 
L 502.165617 312.462023 
L 503.526937 313.016091 
L 503.915886 312.998529 
L 504.018843 308.357498 
L 504.11036 309.909796 
L 504.293395 311.923818 
L 504.499308 312.479019 
L 504.750981 312.734525 
L 504.968335 312.840467 
L 505.300085 312.923747 
L 505.666154 313.029688 
L 505.837749 313.069346 
L 506.318215 313.169055 
L 506.501249 313.20418 
L 507.084672 313.114102 
L 507.130431 312.450693 
L 507.290586 309.147811 
L 507.324905 309.516057 
L 507.565138 311.946479 
L 507.874009 312.535672 
L 508.034164 312.683537 
L 508.057044 312.535672 
L 508.354475 311.040028 
L 508.365914 311.062689 
L 508.85782 312.377043 
L 509.5442 312.901652 
L 509.933148 313.002495 
L 510.104743 313.043285 
L 510.974158 313.152059 
L 511.180071 313.13393 
L 511.466063 312.887489 
L 511.694856 311.481923 
L 511.774934 311.753858 
L 511.935089 312.241076 
L 511.969408 312.218414 
L 512.163882 312.422366 
L 512.175322 312.411035 
L 512.312598 312.428031 
L 512.690107 312.794011 
L 513.124814 312.902785 
L 513.445125 312.990031 
L 513.60528 313.018358 
L 515.206833 312.918648 
L 515.447066 312.787213 
L 515.584342 312.81214 
L 515.996169 312.977567 
L 516.156325 312.991164 
L 516.167764 313.004761 
L 516.224963 312.927146 
L 516.339359 312.020128 
L 516.385118 308.315009 
L 516.545273 286.203263 
L 516.613911 291.98189 
L 516.854144 306.235836 
L 517.105817 309.482065 
L 517.426127 310.858737 
L 518.146826 312.048455 
L 518.592973 312.337386 
L 518.70737 312.382709 
L 518.718809 312.326055 
L 518.741689 312.263737 
L 518.810326 312.399705 
L 519.073439 312.507346 
L 519.576784 312.648979 
L 519.70262 312.680705 
L 519.839896 312.6977 
L 520.011491 312.680705 
L 520.05725 309.708677 
L 520.125888 277.988548 
L 520.240284 242.353682 
L 520.274603 246.036141 
L 520.686431 302.85364 
L 520.972423 306.966662 
L 521.430009 309.198799 
L 521.761759 310.178899 
L 522.162148 310.875733 
L 522.505338 311.198657 
L 522.722691 311.289302 
L 522.882846 311.402608 
L 523.134519 311.504584 
L 523.145959 311.527245 
L 523.180278 311.464927 
L 523.214597 311.464927 
L 523.43195 311.017366 
L 523.44339 311.062689 
L 523.534907 311.164665 
L 524.049692 311.527245 
L 524.209847 311.402608 
L 524.221287 311.425269 
L 524.324244 311.425269 
L 524.335684 311.459261 
L 524.484399 311.561237 
L 524.79327 311.719866 
L 525.079262 311.810511 
L 525.090701 311.833173 
L 525.159339 311.753858 
L 525.308055 311.034362 
L 525.559727 308.932528 
L 525.616926 308.983516 
L 525.868598 309.550048 
L 526.017314 309.725673 
L 526.246107 309.906964 
L 526.268987 309.855976 
L 526.349064 308.932528 
L 526.440581 303.794083 
L 526.600737 290.22564 
L 526.692254 293.738139 
L 526.978246 302.672349 
L 527.561668 307.822126 
L 527.83622 308.790895 
L 528.442522 309.997609 
L 528.579798 310.144907 
L 528.625557 310.037266 
L 528.85435 309.748335 
L 529.003066 310.065593 
L 529.014506 310.025935 
L 529.083144 305.850594 
L 529.163221 292.491768 
L 529.22042 288.469391 
L 529.277618 290.792172 
L 529.597928 301.442975 
L 529.735204 302.77999 
L 529.780963 302.519386 
L 529.861041 301.952854 
L 529.906799 302.292773 
L 530.352946 305.629647 
L 530.730455 306.955332 
L 531.005007 307.561521 
L 531.668507 309.476399 
L 531.805783 309.448073 
L 531.862982 308.196037 
L 531.92018 302.638357 
L 532.023137 283.200643 
L 532.091775 286.939754 
L 532.366327 299.460113 
L 532.617999 303.046261 
L 532.823913 304.541905 
L 532.835353 304.524909 
L 533.029827 304.825171 
L 533.075586 304.706199 
L 533.132784 304.649546 
L 533.167103 304.745857 
L 533.178543 304.745857 
L 533.464534 305.691965 
L 533.693328 306.281159 
L 533.945 306.853356 
L 534.093716 307.300916 
L 534.150914 307.119626 
L 534.253871 306.088538 
L 534.311069 306.3888 
L 534.516983 307.19894 
L 534.917372 307.992085 
L 535.100406 308.343335 
L 535.203363 308.445311 
L 535.489355 309.0515 
L 535.672389 309.385754 
L 535.763907 309.48773 
L 535.878303 309.544383 
L 535.889743 309.510391 
L 536.175734 309.346097 
L 536.187174 309.363093 
L 536.759157 310.258213 
L 537.239623 310.365855 
L 537.434097 310.462165 
L 537.971761 310.382851 
L 538.051839 310.178899 
L 538.131917 310.235552 
L 538.337831 310.337528 
L 538.749659 310.598133 
L 538.898374 310.700108 
L 539.253004 310.90406 
L 539.584754 310.80775 
L 539.779228 310.462165 
L 539.813547 310.507488 
L 540.419849 310.960713 
L 540.614324 310.853072 
L 540.774479 309.153476 
L 540.888875 293.171607 
L 540.946074 286.316569 
L 541.014712 289.262536 
L 541.323583 301.329668 
L 541.781169 306.473779 
L 542.124359 307.629505 
L 542.181557 307.572852 
L 542.364592 305.986562 
L 542.456109 306.473779 
L 542.75354 307.397227 
L 543.188248 308.343335 
L 543.508558 308.751238 
L 543.531438 308.70025 
L 543.737351 307.867448 
L 543.828869 308.15638 
L 544.046222 308.751238 
L 544.103421 308.674756 
L 544.320774 307.731481 
L 544.377973 307.918436 
L 544.549567 308.524625 
L 544.583886 308.439646 
L 544.972835 305.567328 
L 545.190189 303.612793 
L 545.327465 302.808317 
L 545.407542 297.250638 
L 545.544818 285.353465 
L 545.590577 286.429876 
L 546.048163 300.366564 
L 546.322715 303.720434 
L 546.448552 304.587228 
L 546.471431 304.320958 
L 546.540069 298.100436 
L 546.665905 275.55246 
L 546.745983 279.688144 
L 547.054854 296.740759 
L 547.19213 298.270395 
L 547.215009 298.043783 
L 547.409483 294.417977 
L 547.432362 294.701243 
L 547.741233 299.856685 
L 548.164501 303.029265 
L 548.244579 303.221885 
L 548.267458 303.176563 
L 548.313217 301.046402 
L 548.404734 289.489149 
L 548.473372 286.259916 
L 548.53057 287.506286 
L 548.930958 299.176847 
L 549.239829 303.097248 
L 549.468622 304.734526 
L 549.53726 304.609889 
L 549.708855 302.23612 
L 549.834692 290.282294 
L 549.971968 265.184924 
L 550.040606 267.904278 
L 550.109244 274.419396 
L 550.143563 267.507705 
L 550.326597 210.741194 
L 550.383795 213.913774 
L 550.521071 248.472228 
L 550.749865 288.242778 
L 551.035856 297.81717 
L 551.390486 302.734668 
L 552.305659 307.504868 
L 552.683168 308.281017 
L 553.300909 309.147811 
L 553.358108 309.085492 
L 553.483944 308.909867 
L 553.552582 308.96652 
L 553.838574 309.493395 
L 553.941531 309.601036 
L 554.193203 309.804988 
L 554.204643 309.793657 
L 554.3076 309.686016 
L 554.364798 309.601036 
L 554.421996 309.66902 
L 554.719428 309.997609 
L 554.742307 309.963617 
L 554.776626 309.878637 
L 554.833824 307.227267 
L 554.868143 301.476967 
L 555.005419 276.175646 
L 555.074057 274.702662 
L 555.119816 275.89238 
L 555.257092 284.333707 
L 555.554523 297.590557 
L 555.863394 302.576039 
L 556.778567 307.380231 
L 556.812886 307.448215 
L 556.835765 307.289586 
L 556.915843 304.88749 
L 557.030239 275.533576 
L 557.075998 260.482708 
L 557.144636 268.697423 
L 557.36199 291.500337 
L 557.373429 287.931186 
L 557.762378 36.19267 
L 557.842456 93.412407 
L 558.03693 178.392214 
L 558.208525 247.565777 
L 558.402999 291.81193 
L 558.414439 291.528664 
L 558.471637 284.956892 
L 558.620353 264.165166 
L 558.631792 264.391779 
L 559.077939 292.661728 
L 559.649922 301.867874 
L 560.267664 305.64381 
L 560.668052 306.994989 
L 560.679492 306.960997 
L 560.805328 306.300987 
L 560.908285 301.357995 
L 560.976923 303.207722 
L 561.205716 305.91008 
L 561.262915 306.102701 
L 561.320113 305.927076 
L 561.42307 304.315292 
L 561.514587 305.16509 
L 561.731941 306.65507 
L 562.08657 307.861783 
L 563.653804 309.997609 
L 563.79108 310.10525 
L 564.157149 310.4565 
L 565.049443 310.892729 
L 565.072322 310.80775 
L 565.221038 309.462236 
L 565.266797 309.190301 
L 565.335435 309.368758 
L 565.48415 309.955119 
L 565.735823 310.575471 
L 565.930297 310.81908 
L 566.570918 311.014534 
L 566.673875 310.80775 
L 566.788272 309.88147 
L 566.902668 310.272377 
L 567.085703 310.688778 
L 567.142901 310.785088 
L 567.337376 310.960713 
L 567.451772 310.960713 
L 567.554729 310.892729 
L 567.794962 310.564141 
L 567.932238 307.952428 
L 567.989436 306.020554 
L 568.058074 306.93267 
L 568.241109 308.215865 
L 568.401264 308.833385 
L 568.733014 309.671853 
L 568.847411 309.889968 
L 569.202041 310.487659 
L 569.293558 310.496157 
L 569.316437 310.462165 
L 569.373636 310.142074 
L 569.430834 307.969424 
L 569.55667 300.64983 
L 569.602429 301.527955 
L 569.89986 306.264163 
L 570.24305 308.663426 
L 570.56336 309.756833 
L 571.135344 310.768092 
L 571.24974 310.872901 
L 573.366078 312.32039 
L 573.583431 312.331721 
L 573.755026 312.399705 
L 573.96094 312.50168 
L 574.143975 312.535672 
L 574.395647 312.464856 
L 574.544363 311.207155 
L 574.624441 306.584253 
L 574.681639 308.023245 
L 574.898993 310.7341 
L 575.173544 311.680209 
L 575.66545 312.212749 
L 575.9972 312.297729 
L 576.145916 311.600894 
L 576.271752 299.601746 
L 576.306071 297.024025 
L 576.363269 300.423217 
L 576.569183 308.096894 
L 576.843735 310.436671 
L 577.095408 311.062689 
L 577.129727 311.130673 
L 577.164046 310.977709 
L 577.289882 309.878637 
L 577.34708 308.637932 
L 577.415718 309.144978 
L 577.678831 310.479161 
L 577.724589 310.323365 
L 577.827546 310.11658 
L 577.861865 310.193062 
L 578.056339 310.558475 
L 578.090658 310.569806 
L 578.124977 310.473496 
L 578.250814 310.130744 
L 578.433848 270.566978 
L 578.468167 272.833106 
L 578.788478 303.38618 
L 579.143107 308.609605 
L 579.520616 310.683113 
L 579.852367 311.439433 
L 579.978203 311.663213 
L 580.275634 312.008798 
L 581.156488 312.476186 
L 581.179367 312.396872 
L 581.293764 311.040028 
L 581.350962 309.776661 
L 581.43104 310.173234 
L 581.728471 312.014463 
L 582.266135 312.614987 
L 582.494929 312.713563 
L 582.700843 312.79741 
L 583.558817 312.900519 
L 583.753291 312.975301 
L 583.79905 312.841316 
L 583.833369 312.328888 
L 583.993524 290.56556 
L 584.062162 296.004267 
L 584.268076 308.632267 
L 584.508309 310.929554 
L 584.782861 311.78785 
L 585.057413 312.190088 
L 585.206129 312.297729 
L 585.49212 312.53284 
L 585.595077 312.394039 
L 585.83531 312.303394 
L 586.292897 312.561166 
L 586.418733 312.32039 
L 586.704724 312.093777 
L 586.819121 311.946479 
L 586.887759 311.731197 
L 586.944957 311.838838 
L 587.413984 312.58666 
L 587.425423 312.569664 
L 587.551259 312.195753 
L 587.597018 312.258072 
L 587.928768 312.67164 
L 588.443553 312.841033 
L 588.454993 312.788912 
L 588.649467 311.674544 
L 588.683786 311.697205 
L 588.729545 311.561237 
L 588.775303 311.714201 
L 589.004097 312.32039 
L 589.164252 312.354382 
L 589.438804 312.748688 
L 589.942149 313.012126 
L 590.296779 313.1192 
L 590.559891 313.172454 
L 590.720046 312.797693 
L 590.823003 311.901156 
L 590.91452 312.303394 
L 591.246271 312.958872 
L 591.61234 313.172454 
L 591.623779 313.118634 
L 591.715297 312.934511 
L 591.761055 313.000229 
L 591.93265 313.06368 
L 592.104245 313.06368 
L 592.127125 313.071612 
L 592.150004 312.991731 
L 592.28728 311.08535 
L 592.344478 307.470876 
L 592.413116 309.164807 
L 592.60759 311.770854 
L 592.893582 312.563999 
L 593.156694 312.849531 
L 594.30066 313.187184 
L 594.495135 313.187184 
L 594.620971 312.921764 
L 594.952721 311.940814 
L 595.00992 312.173092 
L 595.227273 312.67164 
L 595.68486 313.047817 
L 596.00517 312.967086 
L 596.039489 312.317557 
L 596.085248 306.895846 
L 596.165325 309.564212 
L 596.233963 310.431006 
L 596.279722 309.742669 
L 596.302601 309.632196 
L 596.33692 309.198799 
L 596.382679 309.946621 
L 596.554274 311.045693 
L 596.565714 311.04286 
L 596.737309 309.476399 
L 596.783067 299.913338 
L 596.840266 283.852155 
L 596.908904 291.98189 
L 597.137697 306.765543 
L 597.160576 306.230171 
L 597.194895 305.522006 
L 597.252093 306.62391 
L 597.343611 307.683325 
L 597.35505 307.19894 
L 597.458007 283.908808 
L 597.538085 292.803361 
L 597.743999 306.876017 
L 597.904154 308.7739 
L 597.915594 308.527458 
L 597.961353 299.460113 
L 598.007111 292.633402 
L 598.075749 298.270395 
L 598.258784 307.977922 
L 598.510456 310.493324 
L 598.785008 311.504584 
L 599.356991 312.399705 
L 600.226406 312.775882 
L 600.260725 309.516057 
L 600.306483 305.748618 
L 600.375121 308.08273 
L 600.455199 309.827649 
L 600.523837 309.428244 
L 600.569596 309.300774 
L 600.626794 306.601249 
L 600.683992 295.664348 
L 600.786949 269.093995 
L 600.832708 272.436534 
L 601.153018 303.669446 
L 601.42757 308.592609 
L 601.702122 310.394181 
L 602.022433 311.181661 
L 602.11395 311.21282 
L 602.136829 311.158999 
L 602.205467 311.093848 
L 602.251226 311.187326 
L 602.628735 311.96914 
L 602.880407 312.23541 
L 603.315115 312.558334 
L 603.48671 312.654644 
L 603.749822 312.762285 
L 604.13877 312.871909 
L 604.630676 312.979267 
L 604.687874 311.95781 
L 604.722193 311.306298 
L 604.790831 311.810511 
L 604.848029 312.093777 
L 604.893788 311.742527 
L 604.905228 311.736862 
L 604.928107 311.821842 
L 605.1569 312.57533 
L 605.397133 312.77135 
L 605.431452 312.694585 
L 605.488651 311.980471 
L 605.603047 309.878637 
L 605.648806 310.385683 
L 605.808961 311.510249 
L 605.820401 311.476257 
L 605.934797 308.198869 
L 606.014875 310.003274 
L 606.18647 310.98904 
L 606.346625 311.110844 
L 606.358065 311.068354 
L 606.380944 310.892729 
L 606.586858 302.658186 
L 606.644057 297.278964 
L 606.712694 299.800032 
L 606.987246 307.646501 
L 607.238919 310.051429 
L 607.490592 311.051358 
L 607.982497 311.980471 
L 608.096894 312.082447 
L 608.314247 312.280733 
L 609.57261 312.845282 
L 609.58405 312.793161 
L 609.664127 311.07402 
L 609.789964 298.043783 
L 609.870041 302.743166 
L 610.075955 309.153476 
L 610.293309 310.569806 
L 610.499223 311.08535 
L 610.556421 310.983375 
L 610.659378 310.156238 
L 610.853852 304.252974 
L 610.899611 305.173588 
L 611.071206 306.173517 
L 611.517353 310.071258 
L 612.112215 311.493253 
L 612.478284 311.844503 
L 612.63844 311.952144 
L 613.015949 312.110773 
L 613.038828 312.042789 
L 613.279061 310.705774 
L 613.31338 310.824746 
L 613.587932 311.78785 
L 613.896803 312.167426 
L 614.766217 312.49035 
L 614.972131 312.428031 
L 615.189485 312.558334 
L 615.555554 312.689769 
L 615.566993 312.648979 
L 615.589873 312.331721 
L 615.795787 307.232932 
L 615.807226 307.221602 
L 615.818666 307.312247 
L 616.127537 310.677447 
L 616.447847 311.447931 
L 616.573684 311.487588 
L 616.596563 311.470592 
L 616.68808 311.447931 
L 616.69952 311.422437 
L 616.916874 310.997538 
L 617.019831 309.547216 
L 617.077029 307.363235 
L 617.260063 300.763136 
L 617.305822 300.56485 
L 617.340141 300.904769 
L 617.992202 309.00901 
L 618.289633 310.187397 
L 618.941694 311.374282 
L 619.239125 311.61789 
L 619.799669 312.003132 
L 619.948384 312.05412 
L 620.325893 312.173092 
L 620.337333 312.144765 
L 620.646204 311.164665 
L 620.680523 311.232649 
L 621.046592 311.844503 
L 621.09235 311.88416 
L 621.10379 311.810511 
L 621.138109 311.663213 
L 621.206747 311.765189 
L 621.515618 312.141933 
L 622.213437 312.201418 
L 622.362153 312.042789 
L 622.46511 311.974806 
L 622.602386 311.95781 
L 622.716783 312.059785 
L 623.025653 312.218414 
L 623.162929 312.116439 
L 623.586197 311.844503 
L 623.82643 312.003132 
L 624.203939 312.093777 
L 624.432732 311.821842 
L 624.592887 311.708536 
L 624.604327 311.719866 
L 624.947517 311.912487 
L 625.256388 312.003132 
L 625.405103 312.065451 
L 625.86269 312.173092 
L 626.343156 312.280733 
L 626.754983 312.365713 
L 627.189691 312.263737 
L 627.578639 312.025793 
L 628.001907 312.297729 
L 628.036226 312.195753 
L 628.059105 312.1391 
L 628.116303 312.289231 
L 628.367976 312.343051 
L 628.470933 312.122104 
L 628.539571 308.38016 
L 628.56245 305.893084 
L 628.642528 277.761935 
L 628.699726 281.671006 
L 628.962838 301.726241 
L 629.271709 306.640906 
L 629.637778 308.977851 
L 629.946649 309.884302 
L 629.969529 309.705845 
L 630.175443 305.159425 
L 630.221201 305.374707 
L 630.392796 306.349142 
L 630.415676 306.128195 
L 630.633029 296.797412 
L 630.735986 298.497008 
L 631.090616 303.958377 
L 631.410926 306.473779 
L 632.085866 309.535885 
L 632.451935 310.093919 
L 632.554892 310.204393 
L 632.806565 310.518818 
L 632.9896 310.77659 
L 633.001039 310.768092 
L 633.229833 310.855905 
L 633.32135 310.926721 
L 633.344229 310.90406 
L 633.378548 310.337528 
L 633.618781 296.514146 
L 633.698859 276.345605 
L 633.767497 280.481289 
L 634.019169 298.412028 
L 634.32804 303.142571 
L 634.33948 303.085918 
L 634.362359 302.451402 
L 634.419557 284.107094 
L 634.533954 235.215379 
L 634.568273 237.009397 
L 635.094498 290.962132 
L 635.369049 297.477251 
L 635.735119 301.924527 
L 635.780877 302.009507 
L 635.826636 302.377753 
L 636.238464 306.111199 
L 636.307102 306.201844 
L 636.35286 306.153689 
L 636.421498 306.054546 
L 636.455817 305.711794 
L 636.501576 298.97856 
L 636.638852 245.242996 
L 636.753249 258.244906 
L 637.073559 293.936425 
L 637.37099 300.64983 
L 638.045931 306.258497 
L 638.343362 307.527529 
L 638.354801 307.504868 
L 638.412 306.813699 
L 638.560715 303.165232 
L 638.640793 303.762924 
L 638.938224 306.286824 
L 638.972543 306.383134 
L 639.006862 306.224505 
L 639.304293 303.513649 
L 639.372931 297.930476 
L 639.521647 267.451052 
L 639.613164 274.022824 
L 639.899156 295.267776 
L 640.173708 300.961423 
L 641.168958 307.524696 
L 641.477829 308.60394 
L 641.512148 308.507629 
L 641.535028 308.456642 
L 641.569347 308.524625 
L 641.615105 308.524625 
L 642.004054 308.949524 
L 642.278606 310.238385 
L 642.312925 309.841812 
L 642.370123 308.694585 
L 642.438761 309.278113 
L 642.850589 310.161903 
L 642.987865 310.255381 
L 643.125141 310.346026 
L 643.13658 310.337528 
L 643.228098 309.841812 
L 643.308175 308.094061 
L 643.411132 301.301342 
L 643.594167 244.761444 
L 643.685684 254.109222 
L 644.040314 295.182796 
L 644.314866 300.933096 
L 644.955487 306.213175 
L 645.275797 307.425553 
L 646.21385 309.680351 
L 646.408324 309.960784 
L 646.728635 310.405512 
L 647.23198 310.677447 
L 647.243419 310.651953 
L 647.266299 310.184564 
L 647.403575 290.707193 
L 647.495092 296.457493 
L 647.689566 302.89613 
L 648.044196 306.153689 
L 648.421705 307.536027 
L 648.456024 307.179112 
L 648.616179 301.754567 
L 648.684817 294.163038 
L 648.867851 221.816896 
L 648.959369 232.552678 
L 649.062326 255.157307 
L 649.108084 245.469609 
L 649.233921 220.343912 
L 649.279679 222.610041 
L 649.565671 251.531501 
L 649.783024 285.296811 
L 650.034697 295.041163 
L 650.366447 301.159709 
L 650.709637 304.071684 
L 651.190103 306.541763 
L 651.601931 307.873114 
L 652.105276 308.776732 
L 652.139595 308.360331 
L 652.31119 302.009507 
L 652.414147 304.136835 
L 652.505664 305.023457 
L 652.539983 304.635383 
L 652.620061 299.969992 
L 652.734457 290.338947 
L 652.780216 290.848826 
L 653.375079 302.207793 
L 653.386518 302.179466 
L 653.489475 301.414648 
L 653.546673 301.726241 
L 653.798346 304.71753 
L 653.821225 304.680705 
L 653.935622 302.94995 
L 653.969941 302.655353 
L 654.038579 303.066089 
L 654.095777 303.380514 
L 654.130096 303.142571 
L 654.290252 299.969992 
L 654.370329 300.423217 
L 654.599122 301.782894 
L 654.610562 301.754567 
L 654.69064 301.556281 
L 654.713519 301.697914 
L 655.35414 305.646643 
L 655.548614 306.473779 
L 656.006201 308.196037 
L 656.418029 308.78523 
L 656.429468 308.705916 
L 656.509546 307.300916 
L 656.589624 303.890393 
L 656.681141 305.102772 
L 656.852736 306.496441 
L 656.887055 306.479445 
L 657.092969 307.252761 
L 657.630633 308.615271 
L 658.339892 309.782327 
L 658.431409 309.85031 
L 658.774599 310.000441 
L 658.831798 309.966449 
L 658.888996 310.008939 
L 659.014832 310.093919 
L 659.277944 310.518818 
L 659.392341 310.626459 
L 660.12448 310.983375 
L 660.147359 310.884231 
L 660.273195 309.969282 
L 660.353273 308.938194 
L 660.410471 309.297942 
L 660.513428 309.748335 
L 660.559187 309.603869 
L 660.593506 309.544383 
L 660.650704 309.663355 
L 661.142609 310.20156 
L 661.508679 310.292205 
L 661.691713 310.513153 
L 661.943386 310.283707 
L 662.034903 308.533123 
L 662.206498 301.103056 
L 662.240817 301.329668 
L 662.423852 303.335192 
L 662.46961 302.958448 
L 662.606886 298.270395 
L 662.675524 299.375133 
L 662.938637 303.176563 
L 663.064473 303.845071 
L 663.098792 303.720434 
L 663.133111 303.607127 
L 663.178869 303.805413 
L 663.522059 306.65507 
L 663.544939 306.564425 
L 663.613577 303.745928 
L 663.727973 294.191365 
L 663.83093 296.797412 
L 664.105482 301.669588 
L 664.425793 304.853498 
L 664.974896 307.776803 
L 665.661276 309.476399 
L 665.729914 309.569877 
L 665.764233 309.484897 
L 665.935828 307.89011 
L 666.015906 308.405654 
L 666.256139 309.680351 
L 666.645087 310.292205 
L 666.851001 310.399846 
L 667.171312 310.671782 
L 667.274269 310.688778 
L 667.285708 310.677447 
L 667.388665 310.518818 
L 667.445864 310.615129 
L 667.994967 311.238314 
L 668.075045 311.221318 
L 668.109364 311.25531 
L 668.372476 311.498919 
L 668.429675 311.515915 
L 668.452554 311.453596 
L 668.60127 310.459332 
L 668.647028 308.39149 
L 668.681347 280.14137 
L 668.795744 252.409626 
L 668.818623 253.514364 
L 668.955899 275.269194 
L 669.207572 297.165658 
L 669.527882 304.083014 
L 669.848193 307.261259 
L 670.237141 309.187468 
L 670.786245 310.439504 
L 670.820564 310.300703 
L 670.96928 310.051429 
L 670.980719 310.042931 
L 671.003599 310.108082 
L 671.175194 310.615129 
L 671.198073 310.600965 
L 671.449746 311.045693 
L 671.484065 311.040028 
L 671.518384 311.125008 
L 672.044608 311.719866 
L 672.136125 311.776519 
L 672.296281 311.821842 
L 672.30772 311.799181 
L 672.456436 311.906822 
L 672.902583 312.195753 
L 673.245773 312.246741 
L 673.34873 311.96914 
L 673.440247 310.77659 
L 673.554643 311.102346 
L 673.794876 311.838838 
L 674.00079 311.95781 
L 674.115187 311.861499 
L 674.160946 311.654715 
L 674.206704 309.691681 
L 674.309661 302.496724 
L 674.34398 302.81115 
L 674.35542 302.893297 
L 674.378299 302.612864 
L 674.458377 300.309911 
L 674.504135 301.499628 
L 674.732929 307.722983 
L 675.03036 310.176066 
L 675.270593 311.00037 
L 675.831136 311.889826 
L 675.831136 311.889826 
" clip-path="url(#p666f23de55)" style="fill: none; stroke: #1f77b4; stroke-width: 1.5; stroke-linecap: square"/>
   </g>
   <g id="patch_3">
    <path d="M 46.0125 327.558125 
L 46.0125 22.318125 
" style="fill: none; stroke: #000000; stroke-width: 0.8; stroke-linejoin: miter; stroke-linecap: square"/>
   </g>
   <g id="patch_4">
    <path d="M 705.8225 327.558125 
L 705.8225 22.318125 
" style="fill: none; stroke: #000000; stroke-width: 0.8; stroke-linejoin: miter; stroke-linecap: square"/>
   </g>
   <g id="patch_5">
    <path d="M 46.0125 327.558125 
L 705.8225 327.558125 
" style="fill: none; stroke: #000000; stroke-width: 0.8; stroke-linejoin: miter; stroke-linecap: square"/>
   </g>
   <g id="patch_6">
    <path d="M 46.0125 22.318125 
L 705.8225 22.318125 
" style="fill: none; stroke: #000000; stroke-width: 0.8; stroke-linejoin: miter; stroke-linecap: square"/>
   </g>
   <g id="text_13">
    <!-- training -->
    <g transform="translate(352.674062 16.318125) scale(0.12 -0.12)">
     <defs>
      <path id="DejaVuSans-74" d="M 1172 4494 
L 1172 3500 
L 2356 3500 
L 2356 3053 
L 1172 3053 
L 1172 1153 
Q 1172 725 1289 603 
Q 1406 481 1766 481 
L 2356 481 
L 2356 0 
L 1766 0 
Q 1100 0 847 248 
Q 594 497 594 1153 
L 594 3053 
L 172 3053 
L 172 3500 
L 594 3500 
L 594 4494 
L 1172 4494 
z
" transform="scale(0.015625)"/>
      <path id="DejaVuSans-72" d="M 2631 2963 
Q 2534 3019 2420 3045 
Q 2306 3072 2169 3072 
Q 1681 3072 1420 2755 
Q 1159 2438 1159 1844 
L 1159 0 
L 581 0 
L 581 3500 
L 1159 3500 
L 1159 2956 
Q 1341 3275 1631 3429 
Q 1922 3584 2338 3584 
Q 2397 3584 2469 3576 
Q 2541 3569 2628 3553 
L 2631 2963 
z
" transform="scale(0.015625)"/>
      <path id="DejaVuSans-61" d="M 2194 1759 
Q 1497 1759 1228 1600 
Q 959 1441 959 1056 
Q 959 750 1161 570 
Q 1363 391 1709 391 
Q 2188 391 2477 730 
Q 2766 1069 2766 1631 
L 2766 1759 
L 2194 1759 
z
M 3341 1997 
L 3341 0 
L 2766 0 
L 2766 531 
Q 2569 213 2275 61 
Q 1981 -91 1556 -91 
Q 1019 -91 701 211 
Q 384 513 384 1019 
Q 384 1609 779 1909 
Q 1175 2209 1959 2209 
L 2766 2209 
L 2766 2266 
Q 2766 2663 2505 2880 
Q 2244 3097 1772 3097 
Q 1472 3097 1187 3025 
Q 903 2953 641 2809 
L 641 3341 
Q 956 3463 1253 3523 
Q 1550 3584 1831 3584 
Q 2591 3584 2966 3190 
Q 3341 2797 3341 1997 
z
" transform="scale(0.015625)"/>
      <path id="DejaVuSans-69" d="M 603 3500 
L 1178 3500 
L 1178 0 
L 603 0 
L 603 3500 
z
M 603 4863 
L 1178 4863 
L 1178 4134 
L 603 4134 
L 603 4863 
z
" transform="scale(0.015625)"/>
      <path id="DejaVuSans-6e" d="M 3513 2113 
L 3513 0 
L 2938 0 
L 2938 2094 
Q 2938 2591 2744 2837 
Q 2550 3084 2163 3084 
Q 1697 3084 1428 2787 
Q 1159 2491 1159 1978 
L 1159 0 
L 581 0 
L 581 3500 
L 1159 3500 
L 1159 2956 
Q 1366 3272 1645 3428 
Q 1925 3584 2291 3584 
Q 2894 3584 3203 3211 
Q 3513 2838 3513 2113 
z
" transform="scale(0.015625)"/>
      <path id="DejaVuSans-67" d="M 2906 1791 
Q 2906 2416 2648 2759 
Q 2391 3103 1925 3103 
Q 1463 3103 1205 2759 
Q 947 2416 947 1791 
Q 947 1169 1205 825 
Q 1463 481 1925 481 
Q 2391 481 2648 825 
Q 2906 1169 2906 1791 
z
M 3481 434 
Q 3481 -459 3084 -895 
Q 2688 -1331 1869 -1331 
Q 1566 -1331 1297 -1286 
Q 1028 -1241 775 -1147 
L 775 -588 
Q 1028 -725 1275 -790 
Q 1522 -856 1778 -856 
Q 2344 -856 2625 -561 
Q 2906 -266 2906 331 
L 2906 616 
Q 2728 306 2450 153 
Q 2172 0 1784 0 
Q 1141 0 747 490 
Q 353 981 353 1791 
Q 353 2603 747 3093 
Q 1141 3584 1784 3584 
Q 2172 3584 2450 3431 
Q 2728 3278 2906 2969 
L 2906 3500 
L 3481 3500 
L 3481 434 
z
" transform="scale(0.015625)"/>
     </defs>
     <use xlink:href="#DejaVuSans-74"/>
     <use xlink:href="#DejaVuSans-72" x="39.208984"/>
     <use xlink:href="#DejaVuSans-61" x="80.322266"/>
     <use xlink:href="#DejaVuSans-69" x="141.601562"/>
     <use xlink:href="#DejaVuSans-6e" x="169.384766"/>
     <use xlink:href="#DejaVuSans-69" x="232.763672"/>
     <use xlink:href="#DejaVuSans-6e" x="260.546875"/>
     <use xlink:href="#DejaVuSans-67" x="323.925781"/>
    </g>
   </g>
   <g id="legend_1">
    <g id="patch_7">
     <path d="M 620.461563 44.99625 
L 698.8225 44.99625 
Q 700.8225 44.99625 700.8225 42.99625 
L 700.8225 29.318125 
Q 700.8225 27.318125 698.8225 27.318125 
L 620.461563 27.318125 
Q 618.461563 27.318125 618.461563 29.318125 
L 618.461563 42.99625 
Q 618.461563 44.99625 620.461563 44.99625 
z
" style="fill: #ffffff; opacity: 0.8; stroke: #cccccc; stroke-linejoin: miter"/>
    </g>
    <g id="line2d_14">
     <path d="M 622.461563 35.416563 
L 632.461563 35.416563 
L 642.461563 35.416563 
" style="fill: none; stroke: #1f77b4; stroke-width: 1.5; stroke-linecap: square"/>
    </g>
    <g id="text_14">
     <!-- observed -->
     <g transform="translate(650.461563 38.916563) scale(0.1 -0.1)">
      <defs>
       <path id="DejaVuSans-6f" d="M 1959 3097 
Q 1497 3097 1228 2736 
Q 959 2375 959 1747 
Q 959 1119 1226 758 
Q 1494 397 1959 397 
Q 2419 397 2687 759 
Q 2956 1122 2956 1747 
Q 2956 2369 2687 2733 
Q 2419 3097 1959 3097 
z
M 1959 3584 
Q 2709 3584 3137 3096 
Q 3566 2609 3566 1747 
Q 3566 888 3137 398 
Q 2709 -91 1959 -91 
Q 1206 -91 779 398 
Q 353 888 353 1747 
Q 353 2609 779 3096 
Q 1206 3584 1959 3584 
z
" transform="scale(0.015625)"/>
       <path id="DejaVuSans-62" d="M 3116 1747 
Q 3116 2381 2855 2742 
Q 2594 3103 2138 3103 
Q 1681 3103 1420 2742 
Q 1159 2381 1159 1747 
Q 1159 1113 1420 752 
Q 1681 391 2138 391 
Q 2594 391 2855 752 
Q 3116 1113 3116 1747 
z
M 1159 2969 
Q 1341 3281 1617 3432 
Q 1894 3584 2278 3584 
Q 2916 3584 3314 3078 
Q 3713 2572 3713 1747 
Q 3713 922 3314 415 
Q 2916 -91 2278 -91 
Q 1894 -91 1617 61 
Q 1341 213 1159 525 
L 1159 0 
L 581 0 
L 581 4863 
L 1159 4863 
L 1159 2969 
z
" transform="scale(0.015625)"/>
       <path id="DejaVuSans-73" d="M 2834 3397 
L 2834 2853 
Q 2591 2978 2328 3040 
Q 2066 3103 1784 3103 
Q 1356 3103 1142 2972 
Q 928 2841 928 2578 
Q 928 2378 1081 2264 
Q 1234 2150 1697 2047 
L 1894 2003 
Q 2506 1872 2764 1633 
Q 3022 1394 3022 966 
Q 3022 478 2636 193 
Q 2250 -91 1575 -91 
Q 1294 -91 989 -36 
Q 684 19 347 128 
L 347 722 
Q 666 556 975 473 
Q 1284 391 1588 391 
Q 1994 391 2212 530 
Q 2431 669 2431 922 
Q 2431 1156 2273 1281 
Q 2116 1406 1581 1522 
L 1381 1569 
Q 847 1681 609 1914 
Q 372 2147 372 2553 
Q 372 3047 722 3315 
Q 1072 3584 1716 3584 
Q 2034 3584 2315 3537 
Q 2597 3491 2834 3397 
z
" transform="scale(0.015625)"/>
       <path id="DejaVuSans-65" d="M 3597 1894 
L 3597 1613 
L 953 1613 
Q 991 1019 1311 708 
Q 1631 397 2203 397 
Q 2534 397 2845 478 
Q 3156 559 3463 722 
L 3463 178 
Q 3153 47 2828 -22 
Q 2503 -91 2169 -91 
Q 1331 -91 842 396 
Q 353 884 353 1716 
Q 353 2575 817 3079 
Q 1281 3584 2069 3584 
Q 2775 3584 3186 3129 
Q 3597 2675 3597 1894 
z
M 3022 2063 
Q 3016 2534 2758 2815 
Q 2500 3097 2075 3097 
Q 1594 3097 1305 2825 
Q 1016 2553 972 2059 
L 3022 2063 
z
" transform="scale(0.015625)"/>
       <path id="DejaVuSans-76" d="M 191 3500 
L 800 3500 
L 1894 563 
L 2988 3500 
L 3597 3500 
L 2284 0 
L 1503 0 
L 191 3500 
z
" transform="scale(0.015625)"/>
       <path id="DejaVuSans-64" d="M 2906 2969 
L 2906 4863 
L 3481 4863 
L 3481 0 
L 2906 0 
L 2906 525 
Q 2725 213 2448 61 
Q 2172 -91 1784 -91 
Q 1150 -91 751 415 
Q 353 922 353 1747 
Q 353 2572 751 3078 
Q 1150 3584 1784 3584 
Q 2172 3584 2448 3432 
Q 2725 3281 2906 2969 
z
M 947 1747 
Q 947 1113 1208 752 
Q 1469 391 1925 391 
Q 2381 391 2643 752 
Q 2906 1113 2906 1747 
Q 2906 2381 2643 2742 
Q 2381 3103 1925 3103 
Q 1469 3103 1208 2742 
Q 947 2381 947 1747 
z
" transform="scale(0.015625)"/>
      </defs>
      <use xlink:href="#DejaVuSans-6f"/>
      <use xlink:href="#DejaVuSans-62" x="61.181641"/>
      <use xlink:href="#DejaVuSans-73" x="124.658203"/>
      <use xlink:href="#DejaVuSans-65" x="176.757812"/>
      <use xlink:href="#DejaVuSans-72" x="238.28125"/>
      <use xlink:href="#DejaVuSans-76" x="279.394531"/>
      <use xlink:href="#DejaVuSans-65" x="338.574219"/>
      <use xlink:href="#DejaVuSans-64" x="400.097656"/>
     </g>
    </g>
   </g>
  </g>
 </g>
 <defs>
  <clipPath id="p666f23de55">
   <rect x="46.0125" y="22.318125" width="659.81" height="305.24"/>
  </clipPath>
 </defs>
</svg>
