<?xml version="1.0" encoding="utf-8" standalone="no"?>
<!DOCTYPE svg PUBLIC "-//W3C//DTD SVG 1.1//EN"
  "http://www.w3.org/Graphics/SVG/1.1/DTD/svg11.dtd">
<svg xmlns:xlink="http://www.w3.org/1999/xlink" width="720pt" height="360pt" viewBox="0 0 720 360" xmlns="http://www.w3.org/2000/svg" version="1.1">
 <metadata>
  <rdf:RDF xmlns:dc="http://purl.org/dc/elements/1.1/" xmlns:cc="http://creativecommons.org/ns#" xmlns:rdf="http://www.w3.org/1999/02/22-rdf-syntax-ns#">
   <cc:Work>
    <dc:type rdf:resource="http://purl.org/dc/dcmitype/StillImage"/>
    <dc:date>2023-10-23T10:54:20.352387</dc:date>
    <dc:format>image/svg+xml</dc:format>
    <dc:creator>
     <cc:Agent>
      <dc:title>Matplotlib v3.7.1, https://matplotlib.org/</dc:title>
     </cc:Agent>
    </dc:creator>
   </cc:Work>
  </rdf:RDF>
 </metadata>
 <defs>
  <style type="text/css">*{stroke-linejoin: round; stroke-linecap: butt}</style>
 </defs>
 <g id="figure_1">
  <g id="patch_1">
   <path d="M 0 360 
L 720 360 
L 720 0 
L 0 0 
z
" style="fill: #ffffff"/>
  </g>
  <g id="axes_1">
   <g id="patch_2">
    <path d="M 90 288 
L 648 288 
L 648 43.2 
L 90 43.2 
z
" style="fill: #ffffff"/>
   </g>
   <g id="matplotlib.axis_1">
    <g id="xtick_1">
     <g id="line2d_1">
      <defs>
       <path id="mc6e729ca51" d="M 0 0 
L 0 3.5 
" style="stroke: #000000; stroke-width: 0.8"/>
      </defs>
      <g>
       <use xlink:href="#mc6e729ca51" x="149.370747" y="288" style="stroke: #000000; stroke-width: 0.8"/>
      </g>
     </g>
     <g id="text_1">
      <!-- 2023-08-15 -->
      <g transform="translate(87.727405 337.765903) rotate(-30) scale(0.12 -0.12)">
       <defs>
        <path id="DejaVuSans-32" d="M 1228 531 
L 3431 531 
L 3431 0 
L 469 0 
L 469 531 
Q 828 903 1448 1529 
Q 2069 2156 2228 2338 
Q 2531 2678 2651 2914 
Q 2772 3150 2772 3378 
Q 2772 3750 2511 3984 
Q 2250 4219 1831 4219 
Q 1534 4219 1204 4116 
Q 875 4013 500 3803 
L 500 4441 
Q 881 4594 1212 4672 
Q 1544 4750 1819 4750 
Q 2544 4750 2975 4387 
Q 3406 4025 3406 3419 
Q 3406 3131 3298 2873 
Q 3191 2616 2906 2266 
Q 2828 2175 2409 1742 
Q 1991 1309 1228 531 
z
" transform="scale(0.015625)"/>
        <path id="DejaVuSans-30" d="M 2034 4250 
Q 1547 4250 1301 3770 
Q 1056 3291 1056 2328 
Q 1056 1369 1301 889 
Q 1547 409 2034 409 
Q 2525 409 2770 889 
Q 3016 1369 3016 2328 
Q 3016 3291 2770 3770 
Q 2525 4250 2034 4250 
z
M 2034 4750 
Q 2819 4750 3233 4129 
Q 3647 3509 3647 2328 
Q 3647 1150 3233 529 
Q 2819 -91 2034 -91 
Q 1250 -91 836 529 
Q 422 1150 422 2328 
Q 422 3509 836 4129 
Q 1250 4750 2034 4750 
z
" transform="scale(0.015625)"/>
        <path id="DejaVuSans-33" d="M 2597 2516 
Q 3050 2419 3304 2112 
Q 3559 1806 3559 1356 
Q 3559 666 3084 287 
Q 2609 -91 1734 -91 
Q 1441 -91 1130 -33 
Q 819 25 488 141 
L 488 750 
Q 750 597 1062 519 
Q 1375 441 1716 441 
Q 2309 441 2620 675 
Q 2931 909 2931 1356 
Q 2931 1769 2642 2001 
Q 2353 2234 1838 2234 
L 1294 2234 
L 1294 2753 
L 1863 2753 
Q 2328 2753 2575 2939 
Q 2822 3125 2822 3475 
Q 2822 3834 2567 4026 
Q 2313 4219 1838 4219 
Q 1578 4219 1281 4162 
Q 984 4106 628 3988 
L 628 4550 
Q 988 4650 1302 4700 
Q 1616 4750 1894 4750 
Q 2613 4750 3031 4423 
Q 3450 4097 3450 3541 
Q 3450 3153 3228 2886 
Q 3006 2619 2597 2516 
z
" transform="scale(0.015625)"/>
        <path id="DejaVuSans-2d" d="M 313 2009 
L 1997 2009 
L 1997 1497 
L 313 1497 
L 313 2009 
z
" transform="scale(0.015625)"/>
        <path id="DejaVuSans-38" d="M 2034 2216 
Q 1584 2216 1326 1975 
Q 1069 1734 1069 1313 
Q 1069 891 1326 650 
Q 1584 409 2034 409 
Q 2484 409 2743 651 
Q 3003 894 3003 1313 
Q 3003 1734 2745 1975 
Q 2488 2216 2034 2216 
z
M 1403 2484 
Q 997 2584 770 2862 
Q 544 3141 544 3541 
Q 544 4100 942 4425 
Q 1341 4750 2034 4750 
Q 2731 4750 3128 4425 
Q 3525 4100 3525 3541 
Q 3525 3141 3298 2862 
Q 3072 2584 2669 2484 
Q 3125 2378 3379 2068 
Q 3634 1759 3634 1313 
Q 3634 634 3220 271 
Q 2806 -91 2034 -91 
Q 1263 -91 848 271 
Q 434 634 434 1313 
Q 434 1759 690 2068 
Q 947 2378 1403 2484 
z
M 1172 3481 
Q 1172 3119 1398 2916 
Q 1625 2713 2034 2713 
Q 2441 2713 2670 2916 
Q 2900 3119 2900 3481 
Q 2900 3844 2670 4047 
Q 2441 4250 2034 4250 
Q 1625 4250 1398 4047 
Q 1172 3844 1172 3481 
z
" transform="scale(0.015625)"/>
        <path id="DejaVuSans-31" d="M 794 531 
L 1825 531 
L 1825 4091 
L 703 3866 
L 703 4441 
L 1819 4666 
L 2450 4666 
L 2450 531 
L 3481 531 
L 3481 0 
L 794 0 
L 794 531 
z
" transform="scale(0.015625)"/>
        <path id="DejaVuSans-35" d="M 691 4666 
L 3169 4666 
L 3169 4134 
L 1269 4134 
L 1269 2991 
Q 1406 3038 1543 3061 
Q 1681 3084 1819 3084 
Q 2600 3084 3056 2656 
Q 3513 2228 3513 1497 
Q 3513 744 3044 326 
Q 2575 -91 1722 -91 
Q 1428 -91 1123 -41 
Q 819 9 494 109 
L 494 744 
Q 775 591 1075 516 
Q 1375 441 1709 441 
Q 2250 441 2565 725 
Q 2881 1009 2881 1497 
Q 2881 1984 2565 2268 
Q 2250 2553 1709 2553 
Q 1456 2553 1204 2497 
Q 953 2441 691 2322 
L 691 4666 
z
" transform="scale(0.015625)"/>
       </defs>
       <use xlink:href="#DejaVuSans-32"/>
       <use xlink:href="#DejaVuSans-30" x="63.623047"/>
       <use xlink:href="#DejaVuSans-32" x="127.246094"/>
       <use xlink:href="#DejaVuSans-33" x="190.869141"/>
       <use xlink:href="#DejaVuSans-2d" x="254.492188"/>
       <use xlink:href="#DejaVuSans-30" x="290.576172"/>
       <use xlink:href="#DejaVuSans-38" x="354.199219"/>
       <use xlink:href="#DejaVuSans-2d" x="417.822266"/>
       <use xlink:href="#DejaVuSans-31" x="453.90625"/>
       <use xlink:href="#DejaVuSans-35" x="517.529297"/>
      </g>
     </g>
    </g>
    <g id="xtick_2">
     <g id="line2d_2">
      <g>
       <use xlink:href="#mc6e729ca51" x="264.994921" y="288" style="stroke: #000000; stroke-width: 0.8"/>
      </g>
     </g>
     <g id="text_2">
      <!-- 2023-09-01 -->
      <g transform="translate(203.35158 337.765903) rotate(-30) scale(0.12 -0.12)">
       <defs>
        <path id="DejaVuSans-39" d="M 703 97 
L 703 672 
Q 941 559 1184 500 
Q 1428 441 1663 441 
Q 2288 441 2617 861 
Q 2947 1281 2994 2138 
Q 2813 1869 2534 1725 
Q 2256 1581 1919 1581 
Q 1219 1581 811 2004 
Q 403 2428 403 3163 
Q 403 3881 828 4315 
Q 1253 4750 1959 4750 
Q 2769 4750 3195 4129 
Q 3622 3509 3622 2328 
Q 3622 1225 3098 567 
Q 2575 -91 1691 -91 
Q 1453 -91 1209 -44 
Q 966 3 703 97 
z
M 1959 2075 
Q 2384 2075 2632 2365 
Q 2881 2656 2881 3163 
Q 2881 3666 2632 3958 
Q 2384 4250 1959 4250 
Q 1534 4250 1286 3958 
Q 1038 3666 1038 3163 
Q 1038 2656 1286 2365 
Q 1534 2075 1959 2075 
z
" transform="scale(0.015625)"/>
       </defs>
       <use xlink:href="#DejaVuSans-32"/>
       <use xlink:href="#DejaVuSans-30" x="63.623047"/>
       <use xlink:href="#DejaVuSans-32" x="127.246094"/>
       <use xlink:href="#DejaVuSans-33" x="190.869141"/>
       <use xlink:href="#DejaVuSans-2d" x="254.492188"/>
       <use xlink:href="#DejaVuSans-30" x="290.576172"/>
       <use xlink:href="#DejaVuSans-39" x="354.199219"/>
       <use xlink:href="#DejaVuSans-2d" x="417.822266"/>
       <use xlink:href="#DejaVuSans-30" x="453.90625"/>
       <use xlink:href="#DejaVuSans-31" x="517.529297"/>
      </g>
     </g>
    </g>
    <g id="xtick_3">
     <g id="line2d_3">
      <g>
       <use xlink:href="#mc6e729ca51" x="360.21483" y="288" style="stroke: #000000; stroke-width: 0.8"/>
      </g>
     </g>
     <g id="text_3">
      <!-- 2023-09-15 -->
      <g transform="translate(298.571488 337.765903) rotate(-30) scale(0.12 -0.12)">
       <use xlink:href="#DejaVuSans-32"/>
       <use xlink:href="#DejaVuSans-30" x="63.623047"/>
       <use xlink:href="#DejaVuSans-32" x="127.246094"/>
       <use xlink:href="#DejaVuSans-33" x="190.869141"/>
       <use xlink:href="#DejaVuSans-2d" x="254.492188"/>
       <use xlink:href="#DejaVuSans-30" x="290.576172"/>
       <use xlink:href="#DejaVuSans-39" x="354.199219"/>
       <use xlink:href="#DejaVuSans-2d" x="417.822266"/>
       <use xlink:href="#DejaVuSans-31" x="453.90625"/>
       <use xlink:href="#DejaVuSans-35" x="517.529297"/>
      </g>
     </g>
    </g>
    <g id="xtick_4">
     <g id="line2d_4">
      <g>
       <use xlink:href="#mc6e729ca51" x="469.037583" y="288" style="stroke: #000000; stroke-width: 0.8"/>
      </g>
     </g>
     <g id="text_4">
      <!-- 2023-10-01 -->
      <g transform="translate(407.394241 337.765903) rotate(-30) scale(0.12 -0.12)">
       <use xlink:href="#DejaVuSans-32"/>
       <use xlink:href="#DejaVuSans-30" x="63.623047"/>
       <use xlink:href="#DejaVuSans-32" x="127.246094"/>
       <use xlink:href="#DejaVuSans-33" x="190.869141"/>
       <use xlink:href="#DejaVuSans-2d" x="254.492188"/>
       <use xlink:href="#DejaVuSans-31" x="290.576172"/>
       <use xlink:href="#DejaVuSans-30" x="354.199219"/>
       <use xlink:href="#DejaVuSans-2d" x="417.822266"/>
       <use xlink:href="#DejaVuSans-30" x="453.90625"/>
       <use xlink:href="#DejaVuSans-31" x="517.529297"/>
      </g>
     </g>
    </g>
    <g id="xtick_5">
     <g id="line2d_5">
      <g>
       <use xlink:href="#mc6e729ca51" x="564.257491" y="288" style="stroke: #000000; stroke-width: 0.8"/>
      </g>
     </g>
     <g id="text_5">
      <!-- 2023-10-15 -->
      <g transform="translate(502.614149 337.765903) rotate(-30) scale(0.12 -0.12)">
       <use xlink:href="#DejaVuSans-32"/>
       <use xlink:href="#DejaVuSans-30" x="63.623047"/>
       <use xlink:href="#DejaVuSans-32" x="127.246094"/>
       <use xlink:href="#DejaVuSans-33" x="190.869141"/>
       <use xlink:href="#DejaVuSans-2d" x="254.492188"/>
       <use xlink:href="#DejaVuSans-31" x="290.576172"/>
       <use xlink:href="#DejaVuSans-30" x="354.199219"/>
       <use xlink:href="#DejaVuSans-2d" x="417.822266"/>
       <use xlink:href="#DejaVuSans-31" x="453.90625"/>
       <use xlink:href="#DejaVuSans-35" x="517.529297"/>
      </g>
     </g>
    </g>
   </g>
   <g id="matplotlib.axis_2">
    <g id="ytick_1">
     <g id="line2d_6">
      <defs>
       <path id="m83e159e708" d="M 0 0 
L -3.5 0 
" style="stroke: #000000; stroke-width: 0.8"/>
      </defs>
      <g>
       <use xlink:href="#m83e159e708" x="90" y="270.574583" style="stroke: #000000; stroke-width: 0.8"/>
      </g>
     </g>
     <g id="text_6">
      <!-- 0.4 -->
      <g transform="translate(63.91625 275.133645) scale(0.12 -0.12)">
       <defs>
        <path id="DejaVuSans-2e" d="M 684 794 
L 1344 794 
L 1344 0 
L 684 0 
L 684 794 
z
" transform="scale(0.015625)"/>
        <path id="DejaVuSans-34" d="M 2419 4116 
L 825 1625 
L 2419 1625 
L 2419 4116 
z
M 2253 4666 
L 3047 4666 
L 3047 1625 
L 3713 1625 
L 3713 1100 
L 3047 1100 
L 3047 0 
L 2419 0 
L 2419 1100 
L 313 1100 
L 313 1709 
L 2253 4666 
z
" transform="scale(0.015625)"/>
       </defs>
       <use xlink:href="#DejaVuSans-30"/>
       <use xlink:href="#DejaVuSans-2e" x="63.623047"/>
       <use xlink:href="#DejaVuSans-34" x="95.410156"/>
      </g>
     </g>
    </g>
    <g id="ytick_2">
     <g id="line2d_7">
      <g>
       <use xlink:href="#m83e159e708" x="90" y="225.965137" style="stroke: #000000; stroke-width: 0.8"/>
      </g>
     </g>
     <g id="text_7">
      <!-- 0.5 -->
      <g transform="translate(63.91625 230.5242) scale(0.12 -0.12)">
       <use xlink:href="#DejaVuSans-30"/>
       <use xlink:href="#DejaVuSans-2e" x="63.623047"/>
       <use xlink:href="#DejaVuSans-35" x="95.410156"/>
      </g>
     </g>
    </g>
    <g id="ytick_3">
     <g id="line2d_8">
      <g>
       <use xlink:href="#m83e159e708" x="90" y="181.355692" style="stroke: #000000; stroke-width: 0.8"/>
      </g>
     </g>
     <g id="text_8">
      <!-- 0.6 -->
      <g transform="translate(63.91625 185.914754) scale(0.12 -0.12)">
       <defs>
        <path id="DejaVuSans-36" d="M 2113 2584 
Q 1688 2584 1439 2293 
Q 1191 2003 1191 1497 
Q 1191 994 1439 701 
Q 1688 409 2113 409 
Q 2538 409 2786 701 
Q 3034 994 3034 1497 
Q 3034 2003 2786 2293 
Q 2538 2584 2113 2584 
z
M 3366 4563 
L 3366 3988 
Q 3128 4100 2886 4159 
Q 2644 4219 2406 4219 
Q 1781 4219 1451 3797 
Q 1122 3375 1075 2522 
Q 1259 2794 1537 2939 
Q 1816 3084 2150 3084 
Q 2853 3084 3261 2657 
Q 3669 2231 3669 1497 
Q 3669 778 3244 343 
Q 2819 -91 2113 -91 
Q 1303 -91 875 529 
Q 447 1150 447 2328 
Q 447 3434 972 4092 
Q 1497 4750 2381 4750 
Q 2619 4750 2861 4703 
Q 3103 4656 3366 4563 
z
" transform="scale(0.015625)"/>
       </defs>
       <use xlink:href="#DejaVuSans-30"/>
       <use xlink:href="#DejaVuSans-2e" x="63.623047"/>
       <use xlink:href="#DejaVuSans-36" x="95.410156"/>
      </g>
     </g>
    </g>
    <g id="ytick_4">
     <g id="line2d_9">
      <g>
       <use xlink:href="#m83e159e708" x="90" y="136.746247" style="stroke: #000000; stroke-width: 0.8"/>
      </g>
     </g>
     <g id="text_9">
      <!-- 0.7 -->
      <g transform="translate(63.91625 141.305309) scale(0.12 -0.12)">
       <defs>
        <path id="DejaVuSans-37" d="M 525 4666 
L 3525 4666 
L 3525 4397 
L 1831 0 
L 1172 0 
L 2766 4134 
L 525 4134 
L 525 4666 
z
" transform="scale(0.015625)"/>
       </defs>
       <use xlink:href="#DejaVuSans-30"/>
       <use xlink:href="#DejaVuSans-2e" x="63.623047"/>
       <use xlink:href="#DejaVuSans-37" x="95.410156"/>
      </g>
     </g>
    </g>
    <g id="ytick_5">
     <g id="line2d_10">
      <g>
       <use xlink:href="#m83e159e708" x="90" y="92.136801" style="stroke: #000000; stroke-width: 0.8"/>
      </g>
     </g>
     <g id="text_10">
      <!-- 0.8 -->
      <g transform="translate(63.91625 96.695864) scale(0.12 -0.12)">
       <use xlink:href="#DejaVuSans-30"/>
       <use xlink:href="#DejaVuSans-2e" x="63.623047"/>
       <use xlink:href="#DejaVuSans-38" x="95.410156"/>
      </g>
     </g>
    </g>
    <g id="ytick_6">
     <g id="line2d_11">
      <g>
       <use xlink:href="#m83e159e708" x="90" y="47.527356" style="stroke: #000000; stroke-width: 0.8"/>
      </g>
     </g>
     <g id="text_11">
      <!-- 0.9 -->
      <g transform="translate(63.91625 52.086418) scale(0.12 -0.12)">
       <use xlink:href="#DejaVuSans-30"/>
       <use xlink:href="#DejaVuSans-2e" x="63.623047"/>
       <use xlink:href="#DejaVuSans-39" x="95.410156"/>
      </g>
     </g>
    </g>
    <g id="text_12">
     <!-- Meters -->
     <g transform="translate(57.836562 182.6875) rotate(-90) scale(0.1 -0.1)">
      <defs>
       <path id="DejaVuSans-4d" d="M 628 4666 
L 1569 4666 
L 2759 1491 
L 3956 4666 
L 4897 4666 
L 4897 0 
L 4281 0 
L 4281 4097 
L 3078 897 
L 2444 897 
L 1241 4097 
L 1241 0 
L 628 0 
L 628 4666 
z
" transform="scale(0.015625)"/>
       <path id="DejaVuSans-65" d="M 3597 1894 
L 3597 1613 
L 953 1613 
Q 991 1019 1311 708 
Q 1631 397 2203 397 
Q 2534 397 2845 478 
Q 3156 559 3463 722 
L 3463 178 
Q 3153 47 2828 -22 
Q 2503 -91 2169 -91 
Q 1331 -91 842 396 
Q 353 884 353 1716 
Q 353 2575 817 3079 
Q 1281 3584 2069 3584 
Q 2775 3584 3186 3129 
Q 3597 2675 3597 1894 
z
M 3022 2063 
Q 3016 2534 2758 2815 
Q 2500 3097 2075 3097 
Q 1594 3097 1305 2825 
Q 1016 2553 972 2059 
L 3022 2063 
z
" transform="scale(0.015625)"/>
       <path id="DejaVuSans-74" d="M 1172 4494 
L 1172 3500 
L 2356 3500 
L 2356 3053 
L 1172 3053 
L 1172 1153 
Q 1172 725 1289 603 
Q 1406 481 1766 481 
L 2356 481 
L 2356 0 
L 1766 0 
Q 1100 0 847 248 
Q 594 497 594 1153 
L 594 3053 
L 172 3053 
L 172 3500 
L 594 3500 
L 594 4494 
L 1172 4494 
z
" transform="scale(0.015625)"/>
       <path id="DejaVuSans-72" d="M 2631 2963 
Q 2534 3019 2420 3045 
Q 2306 3072 2169 3072 
Q 1681 3072 1420 2755 
Q 1159 2438 1159 1844 
L 1159 0 
L 581 0 
L 581 3500 
L 1159 3500 
L 1159 2956 
Q 1341 3275 1631 3429 
Q 1922 3584 2338 3584 
Q 2397 3584 2469 3576 
Q 2541 3569 2628 3553 
L 2631 2963 
z
" transform="scale(0.015625)"/>
       <path id="DejaVuSans-73" d="M 2834 3397 
L 2834 2853 
Q 2591 2978 2328 3040 
Q 2066 3103 1784 3103 
Q 1356 3103 1142 2972 
Q 928 2841 928 2578 
Q 928 2378 1081 2264 
Q 1234 2150 1697 2047 
L 1894 2003 
Q 2506 1872 2764 1633 
Q 3022 1394 3022 966 
Q 3022 478 2636 193 
Q 2250 -91 1575 -91 
Q 1294 -91 989 -36 
Q 684 19 347 128 
L 347 722 
Q 666 556 975 473 
Q 1284 391 1588 391 
Q 1994 391 2212 530 
Q 2431 669 2431 922 
Q 2431 1156 2273 1281 
Q 2116 1406 1581 1522 
L 1381 1569 
Q 847 1681 609 1914 
Q 372 2147 372 2553 
Q 372 3047 722 3315 
Q 1072 3584 1716 3584 
Q 2034 3584 2315 3537 
Q 2597 3491 2834 3397 
z
" transform="scale(0.015625)"/>
      </defs>
      <use xlink:href="#DejaVuSans-4d"/>
      <use xlink:href="#DejaVuSans-65" x="86.279297"/>
      <use xlink:href="#DejaVuSans-74" x="147.802734"/>
      <use xlink:href="#DejaVuSans-65" x="187.011719"/>
      <use xlink:href="#DejaVuSans-72" x="248.535156"/>
      <use xlink:href="#DejaVuSans-73" x="289.648438"/>
     </g>
    </g>
   </g>
   <g id="line2d_12">
    <path d="M 115.363636 189.070746 
L 115.930422 178.867259 
L 116.213814 175.708232 
L 116.497207 177.343493 
L 116.780599 173.404001 
L 117.063992 176.302872 
L 117.347384 181.580305 
L 117.630777 182.992576 
L 117.91417 182.100615 
L 118.197562 186.820573 
L 118.480955 178.272618 
L 118.764347 174.035806 
L 119.04774 178.904424 
L 119.331133 172.474875 
L 119.614525 176.934678 
L 119.897918 176.377202 
L 120.18131 181.54314 
L 120.464703 183.066906 
L 120.748095 177.083338 
L 121.314881 181.02283 
L 121.598273 176.600192 
L 121.881666 178.495608 
L 122.165058 188.492999 
L 122.448451 177.417823 
L 122.731844 175.745397 
L 123.015236 175.745397 
L 123.298629 170.616624 
L 123.582021 181.46881 
L 123.865414 175.894057 
L 124.148807 175.596737 
L 124.715592 180.168034 
L 125.565769 165.859501 
L 125.849162 163.369445 
L 126.132555 173.887146 
L 126.415947 152.740249 
L 126.982732 157.608867 
L 127.266125 155.601955 
L 127.549518 151.067823 
L 127.83291 157.088556 
L 128.116303 157.274381 
L 128.399695 156.047936 
L 128.683088 172.06606 
L 128.96648 164.856046 
L 129.533266 182.955411 
L 129.816658 163.85259 
L 130.100051 171.434254 
L 130.383443 182.026285 
L 130.666836 167.494762 
L 130.950229 171.248429 
L 131.233621 179.536229 
L 131.517014 173.812816 
L 131.800406 170.542294 
L 132.367191 171.76874 
L 132.650584 167.457597 
L 132.933977 160.619233 
L 133.217369 158.240672 
L 133.500762 165.116201 
L 133.784154 158.909642 
L 134.067547 157.794692 
L 134.35094 156.047936 
L 134.634332 152.888909 
L 134.917725 148.131786 
L 135.201117 149.915707 
L 135.48451 156.456751 
L 135.767902 151.402308 
L 136.051295 157.348711 
L 136.334688 140.884607 
L 136.61808 153.223394 
L 136.901473 153.186229 
L 137.184865 142.965848 
L 137.468258 154.52417 
L 137.751651 150.733338 
L 138.035043 159.578613 
L 138.318436 163.220785 
L 138.601828 160.619233 
L 138.885221 163.592435 
L 139.168614 162.403154 
L 139.452006 159.690108 
L 139.735399 146.347865 
L 140.018791 166.602802 
L 140.302184 162.180164 
L 140.585576 154.264015 
L 140.868969 175.633902 
L 141.152362 162.477484 
L 141.435754 158.129177 
L 141.719147 156.939896 
L 142.002539 160.990883 
L 142.285932 154.82149 
L 142.852717 168.312393 
L 143.13611 152.145608 
L 143.419502 156.939896 
L 143.702895 157.757527 
L 143.986287 154.89582 
L 144.26968 162.217329 
L 144.553073 156.159431 
L 144.836465 166.491307 
L 145.40325 168.089402 
L 145.686643 168.461053 
L 145.970036 165.004706 
L 146.253428 166.639967 
L 146.536821 160.359078 
L 146.820213 168.015072 
L 147.103606 161.362534 
L 147.386998 166.639967 
L 147.670391 150.919163 
L 147.953784 152.331434 
L 148.237176 165.599346 
L 148.520569 140.401462 
L 148.803961 159.913098 
L 149.370747 165.227696 
L 149.654139 173.552661 
L 149.937532 170.133479 
L 150.220924 169.724663 
L 150.504317 156.754071 
L 150.787709 177.417823 
L 151.071102 165.041871 
L 151.354495 170.096314 
L 151.637887 182.472266 
L 151.92128 173.924311 
L 152.204672 182.769586 
L 152.488065 172.36338 
L 152.771458 180.87417 
L 153.05485 163.55527 
L 153.338243 175.782562 
L 153.621635 180.50252 
L 153.905028 164.038415 
L 154.188421 182.249276 
L 154.471813 173.849981 
L 154.755206 183.512886 
L 155.038598 167.048782 
L 155.605383 181.09716 
L 155.888776 173.849981 
L 156.172169 183.847371 
L 156.455561 175.856892 
L 156.738954 179.573394 
L 157.022346 169.390178 
L 157.305739 176.228542 
L 157.589132 168.089402 
L 158.155917 183.141236 
L 158.439309 173.25534 
L 158.722702 178.867259 
L 159.006094 180.279529 
L 159.289487 179.424734 
L 159.57288 160.619233 
L 159.856272 176.563027 
L 160.139665 180.762675 
L 160.423057 162.923465 
L 160.70645 176.228542 
L 160.989843 173.701321 
L 161.556628 173.18101 
L 161.84002 176.191377 
L 162.123413 172.846525 
L 162.406805 175.410912 
L 162.690198 183.066906 
L 162.973591 170.690954 
L 163.256983 179.796384 
L 163.540376 179.387569 
L 164.107161 172.36338 
L 164.390554 171.174099 
L 164.673946 171.434254 
L 164.957339 171.359924 
L 165.240731 168.944198 
L 165.524124 176.711687 
L 165.807517 173.887146 
L 166.090909 167.123112 
L 166.374302 175.708232 
L 166.941087 166.639967 
L 167.224479 184.999487 
L 167.791265 166.045326 
L 168.074657 184.776497 
L 168.35805 185.928613 
L 168.641442 174.407456 
L 168.924835 185.333972 
L 169.208228 185.854283 
L 169.49162 168.312393 
L 169.775013 177.157668 
L 170.058405 179.647724 
L 170.341798 170.876779 
L 170.908583 183.921702 
L 171.191976 171.582914 
L 171.475368 182.286441 
L 172.042153 170.170644 
L 172.325546 180.353859 
L 172.608939 176.228542 
L 172.892331 176.079882 
L 173.175724 177.900968 
L 173.742509 173.143845 
L 174.025901 176.117047 
L 174.309294 171.025439 
L 174.592687 178.458443 
L 174.876079 173.775651 
L 175.159472 171.62008 
L 175.442864 177.603648 
L 175.726257 171.062604 
L 176.00965 179.722054 
L 176.293042 173.626991 
L 176.576435 181.09716 
L 176.859827 169.873324 
L 177.14322 178.309783 
L 177.426612 177.566483 
L 177.710005 174.816271 
L 177.993398 181.654635 
L 178.27679 168.907033 
L 178.560183 179.276074 
L 178.843575 171.359924 
L 179.410361 182.360771 
L 179.693753 170.765284 
L 179.977146 180.130869 
L 180.260538 173.664156 
L 180.543931 171.545749 
L 180.827324 167.420432 
L 181.110716 169.204353 
L 181.394109 160.507738 
L 181.960894 175.299417 
L 182.244286 165.859501 
L 182.527679 175.671067 
L 182.811072 168.758373 
L 183.094464 166.602802 
L 183.377857 179.090249 
L 183.661249 172.14039 
L 183.944642 168.200898 
L 184.228035 180.688345 
L 184.79482 176.451532 
L 185.078212 176.823182 
L 185.361605 173.775651 
L 185.644997 164.29857 
L 185.92839 178.867259 
L 186.211783 178.941589 
L 186.495175 174.816271 
L 186.778568 182.286441 
L 187.06196 178.384113 
L 187.345353 171.657245 
L 187.628746 175.187922 
L 187.912138 170.133479 
L 188.195531 169.538838 
L 188.478923 169.576003 
L 188.762316 175.225087 
L 189.045708 167.457597 
L 189.329101 170.728119 
L 189.612494 165.636511 
L 189.895886 166.379812 
L 190.179279 171.248429 
L 190.462671 163.77826 
L 190.746064 174.667611 
L 191.029457 175.448077 
L 191.312849 169.650333 
L 191.596242 172.920855 
L 191.879634 174.035806 
L 192.44642 162.737639 
L 193.013205 174.147301 
L 193.296597 167.494762 
L 193.57999 167.494762 
L 193.863382 172.623535 
L 194.146775 160.210418 
L 194.430168 164.261405 
L 194.71356 177.120503 
L 194.996953 158.389332 
L 195.280345 176.860347 
L 195.563738 161.882844 
L 195.847131 165.004706 
L 196.130523 161.957174 
L 196.413916 161.102379 
L 196.980701 157.162886 
L 197.264093 173.961476 
L 197.547486 156.233761 
L 197.830879 175.150757 
L 198.397664 164.707386 
L 198.681056 170.170644 
L 198.964449 168.498218 
L 199.247842 168.721208 
L 199.531234 155.750615 
L 199.814627 179.461899 
L 200.098019 151.104988 
L 200.381412 168.758373 
L 200.664804 169.278683 
L 200.948197 160.805058 
L 201.23159 162.217329 
L 201.514982 167.606257 
L 201.798375 170.876779 
L 202.081767 150.956328 
L 202.36516 172.95802 
L 202.931945 149.060912 
L 203.215338 162.477484 
L 203.49873 135.272689 
L 203.782123 159.318458 
L 204.065515 151.142153 
L 204.632301 159.652943 
L 204.915693 144.861264 
L 205.199086 148.094621 
L 205.482478 148.168951 
L 205.765871 137.837075 
L 206.049264 133.117118 
L 206.332656 149.358232 
L 206.616049 139.249346 
L 207.182834 150.175862 
L 207.466227 129.883761 
L 207.749619 135.161194 
L 208.033012 152.777414 
L 208.316404 144.972759 
L 208.599797 148.837922 
L 208.883189 143.783479 
L 209.166582 145.64173 
L 209.449975 152.963239 
L 209.733367 144.080799 
L 210.300152 137.2796 
L 210.583545 150.361687 
L 210.866938 118.474099 
L 211.15033 138.506046 
L 211.433723 149.841377 
L 211.717115 140.141307 
L 212.000508 148.986582 
L 212.567293 158.240672 
L 212.850686 144.601109 
L 213.134078 143.448993 
L 213.417471 163.666765 
L 213.700863 153.000404 
L 214.267649 160.656398 
L 214.551041 143.523324 
L 214.834434 167.160277 
L 215.684611 139.620996 
L 215.968004 166.193986 
L 216.251397 165.413521 
L 216.534789 145.93905 
L 216.818182 177.826638 
L 217.101574 158.426497 
L 217.384967 156.010771 
L 217.66836 162.588979 
L 217.951752 164.670221 
L 218.235145 170.653789 
L 218.518537 161.920009 
L 218.80193 179.238909 
L 219.085322 163.10929 
L 219.368715 180.093704 
L 219.9355 162.588979 
L 220.218893 177.715143 
L 220.502285 168.944198 
L 220.785678 178.904424 
L 221.069071 163.443775 
L 221.352463 185.668458 
L 221.635856 157.980517 
L 221.919248 151.959783 
L 222.202641 180.911335 
L 222.486034 131.481857 
L 222.769426 162.811969 
L 223.052819 172.14039 
L 223.336211 165.673676 
L 223.619604 165.339191 
L 223.902996 176.748852 
L 224.186389 155.304635 
L 224.469782 152.331434 
L 224.753174 184.999487 
L 225.036567 113.865637 
L 225.319959 145.827555 
L 225.603352 158.649487 
L 225.886745 112.825016 
L 226.170137 128.62015 
L 226.45353 131.035876 
L 227.020315 88.258937 
L 227.303707 120.592505 
L 227.5871 94.725651 
L 227.870493 104.648711 
L 228.153885 130.404071 
L 228.437278 104.648711 
L 228.72067 126.092929 
L 229.004063 123.008232 
L 229.287456 133.600263 
L 229.570848 126.464579 
L 230.137633 137.94857 
L 230.421026 132.039332 
L 230.704418 140.996102 
L 230.987811 143.597654 
L 231.271204 144.043634 
L 231.837989 148.354776 
L 232.121381 148.540601 
L 232.404774 148.986582 
L 232.688167 155.007315 
L 232.971559 155.3418 
L 233.254952 156.902731 
L 233.538344 156.791236 
L 233.821737 158.612322 
L 234.10513 159.021137 
L 234.388522 161.028048 
L 234.671915 161.523582 
L 235.522092 161.845679 
L 236.939055 158.649487 
L 237.222448 159.913098 
L 237.505841 162.663309 
L 237.789233 162.923465 
L 238.072626 159.894515 
L 238.356018 160.221037 
L 238.639411 162.588979 
L 239.206196 165.413521 
L 239.489589 165.785171 
L 239.772981 165.970996 
L 240.056374 166.342647 
L 240.339766 165.190531 
L 240.623159 164.52156 
L 240.906552 164.335735 
L 241.189944 164.595891 
L 241.473337 163.6296 
L 241.756729 163.295115 
L 242.040122 163.40661 
L 242.323514 157.534536 
L 242.606907 162.440319 
L 242.8903 163.220785 
L 243.173692 160.842223 
L 243.457085 165.636511 
L 243.740477 165.264861 
L 244.02387 166.119656 
L 244.307263 162.217329 
L 244.590655 162.923465 
L 244.874048 159.913098 
L 245.15744 160.098923 
L 245.440833 161.920009 
L 245.724225 159.467118 
L 246.007618 161.176709 
L 246.291011 161.065213 
L 246.574403 161.845679 
L 246.857796 159.504283 
L 247.424581 158.426497 
L 247.707974 154.30118 
L 247.991366 156.010771 
L 248.274759 149.135242 
L 248.558151 148.206116 
L 249.124937 135.978824 
L 249.408329 140.364297 
L 249.691722 132.856962 
L 249.975114 134.046243 
L 250.258507 123.788697 
L 250.541899 120.964156 
L 250.825292 114.460277 
L 251.108685 103.942576 
L 251.392077 106.506962 
L 251.67547 100.003084 
L 251.958862 104.723041 
L 252.242255 104.165566 
L 252.525648 106.321137 
L 252.80904 113.382491 
L 253.659218 119.14307 
L 253.94261 119.73771 
L 254.226003 119.81204 
L 254.509396 120.964156 
L 254.792788 119.73771 
L 255.076181 117.953789 
L 255.359573 119.2174 
L 255.642966 118.697089 
L 256.493144 127.059219 
L 256.776536 128.02551 
L 257.059929 126.836229 
L 257.343321 123.937357 
L 257.626714 122.487922 
L 257.910107 124.829318 
L 258.193499 124.383338 
L 258.476892 122.971067 
L 259.043677 123.788697 
L 259.32707 124.197513 
L 259.610462 123.974522 
L 259.893855 124.346173 
L 260.177247 124.383338 
L 260.46064 124.048852 
L 260.744033 123.082562 
L 261.027425 122.599417 
L 261.310818 122.710912 
L 261.59421 121.447301 
L 261.877603 119.58905 
L 262.160995 118.92008 
L 262.444388 119.105905 
L 262.727781 119.700545 
L 263.011173 123.379882 
L 263.577958 125.126638 
L 263.861351 123.974522 
L 264.144744 122.079106 
L 264.428136 122.487922 
L 264.711529 124.346173 
L 264.994921 124.271843 
L 265.278314 123.082562 
L 265.561706 122.822407 
L 265.845099 121.930446 
L 266.128492 122.004776 
L 266.695277 123.082562 
L 266.978669 125.089473 
L 267.262062 123.565707 
L 267.545455 123.379882 
L 267.828847 123.565707 
L 268.11224 122.562252 
L 268.395632 120.852661 
L 268.679025 121.447301 
L 269.24581 120.48101 
L 269.529203 119.44039 
L 269.812595 120.815496 
L 270.37938 121.261476 
L 270.946166 119.9607 
L 271.229558 118.771419 
L 271.512951 119.700545 
L 271.796343 120.072195 
L 272.079736 119.105905 
L 272.363128 116.727343 
L 272.929914 118.139614 
L 273.213306 117.098993 
L 273.496699 117.136158 
L 273.780091 116.244198 
L 274.063484 117.470644 
L 274.913662 118.548429 
L 275.197054 120.10936 
L 275.480447 119.105905 
L 275.76384 117.284819 
L 276.047232 118.659924 
L 276.330625 116.987498 
L 276.614017 119.774875 
L 276.89741 123.863027 
L 277.180802 124.457668 
L 277.464195 122.859572 
L 277.747588 118.882914 
L 278.03098 123.305552 
L 278.314373 124.271843 
L 278.597765 123.825862 
L 278.881158 123.008232 
L 279.164551 123.342717 
L 279.731336 123.119727 
L 280.298121 122.525087 
L 280.864906 122.525087 
L 281.148299 122.971067 
L 281.431691 122.599417 
L 281.715084 122.896737 
L 281.998476 122.264931 
L 282.281869 119.105905 
L 282.848654 120.146525 
L 283.132047 117.916624 
L 283.415439 117.173324 
L 283.698832 124.011687 
L 283.982224 122.413591 
L 284.54901 126.427414 
L 284.832402 133.191448 
L 285.115795 134.417893 
L 285.399187 133.302943 
L 285.965973 137.20527 
L 286.532758 140.735947 
L 286.81615 140.624452 
L 287.099543 140.252802 
L 287.382936 140.289967 
L 287.666328 140.847442 
L 287.949721 140.921772 
L 288.233113 141.293422 
L 288.516506 140.587287 
L 288.799898 139.212181 
L 289.083291 133.451603 
L 289.366684 130.478401 
L 289.650076 134.863874 
L 289.933469 134.826709 
L 290.216861 140.327132 
L 290.500254 142.185383 
L 290.783647 140.178472 
L 291.067039 140.327132 
L 291.350432 137.019445 
L 291.917217 134.529388 
L 292.200609 136.796455 
L 292.484002 136.424804 
L 293.050787 135.198359 
L 293.617572 137.242435 
L 293.900965 137.019445 
L 294.184358 136.238979 
L 294.46775 136.75929 
L 294.751143 135.607174 
L 295.034535 136.387639 
L 295.317928 136.127484 
L 295.60132 136.276144 
L 295.884713 134.343563 
L 296.168106 133.302943 
L 296.451498 134.492223 
L 296.734891 134.083408 
L 297.301676 136.61063 
L 297.585069 136.796455 
L 297.868461 137.465425 
L 298.151854 136.015989 
L 298.718639 134.789544 
L 299.002031 135.421349 
L 299.285424 134.380728 
L 299.568817 136.870785 
L 299.852209 132.596807 
L 300.135602 134.194903 
L 300.418994 133.414438 
L 300.98578 127.393704 
L 301.269172 127.542364 
L 301.552565 127.319374 
L 301.835957 122.599417 
L 302.11935 122.636582 
L 302.402743 119.403225 
L 302.686135 113.939967 
L 302.969528 117.396314 
L 303.25292 118.99441 
L 303.536313 116.058373 
L 303.819705 119.9607 
L 304.103098 116.281363 
L 304.386491 118.436934 
L 304.669883 116.615848 
L 304.953276 102.79046 
L 305.236668 69.230446 
L 305.520061 100.672054 
L 305.803454 105.540672 
L 306.086846 106.729953 
L 306.370239 115.909713 
L 306.653631 97.624522 
L 306.937024 105.875157 
L 307.220416 86.772336 
L 307.503809 103.01345 
L 307.787202 94.948641 
L 308.070594 95.468951 
L 308.353987 96.509572 
L 308.637379 85.954706 
L 308.920772 99.111123 
L 309.204165 75.39984 
L 309.487557 89.745538 
L 310.054342 96.621067 
L 310.337735 96.992717 
L 310.621127 93.276215 
L 310.90452 100.746384 
L 311.187913 95.431786 
L 311.471305 101.212636 
L 311.754698 102.084325 
L 312.321483 109.257174 
L 312.604876 110.223465 
L 312.888268 113.345326 
L 313.171661 113.642646 
L 313.455053 114.720432 
L 313.738446 112.825016 
L 314.021838 112.602026 
L 314.588624 117.024663 
L 314.872016 118.251109 
L 315.155409 118.474099 
L 315.438801 119.403225 
L 315.722194 119.923535 
L 316.005587 118.92008 
L 316.572372 120.511418 
L 317.139157 124.048852 
L 317.42255 127.765355 
L 317.989335 129.177625 
L 318.272727 127.691024 
L 318.839512 122.822407 
L 319.122905 125.052308 
L 319.406298 125.423958 
L 319.68969 125.349628 
L 319.973083 124.903648 
L 320.539868 126.910559 
L 320.823261 127.468034 
L 321.106653 127.542364 
L 321.390046 127.95118 
L 321.673438 129.06613 
L 322.240223 126.204424 
L 322.523616 126.204424 
L 322.807009 125.721278 
L 323.090401 124.903648 
L 323.373794 124.940813 
L 323.657186 125.275298 
L 323.940579 125.832773 
L 324.223972 127.579529 
L 324.507364 128.62015 
L 324.790757 128.731645 
L 325.357542 125.089473 
L 325.640934 125.200968 
L 325.924327 126.576074 
L 326.20772 125.758443 
L 326.491112 125.572618 
L 326.774505 127.95118 
L 327.057897 126.576074 
L 327.624683 128.434325 
L 327.908075 128.47149 
L 328.47486 129.43778 
L 328.758253 131.927837 
L 329.041646 131.184536 
L 329.325038 130.812886 
L 329.608431 128.954635 
L 329.891823 129.512111 
L 330.175216 130.589896 
L 330.458608 128.47149 
L 330.742001 129.326285 
L 331.025394 129.660771 
L 331.875571 132.262322 
L 332.158964 132.002167 
L 332.442357 131.481857 
L 332.725749 131.704847 
L 333.009142 132.410982 
L 333.292534 130.924381 
L 333.859319 134.380728 
L 334.142712 135.124029 
L 334.426105 135.049699 
L 334.709497 135.867329 
L 334.99289 135.904494 
L 335.276282 134.826709 
L 335.559675 135.272689 
L 335.843068 135.458514 
L 336.12646 131.965002 
L 336.976638 105.466342 
L 337.543423 99.185453 
L 337.826816 100.040249 
L 338.110208 101.935665 
L 338.393601 102.976285 
L 338.676993 104.871702 
L 338.960386 103.422266 
L 339.527171 97.736017 
L 339.810564 96.249417 
L 343.494667 102.901955 
L 343.77806 102.381645 
L 344.628238 98.442153 
L 344.91163 94.688486 
L 345.478415 91.975439 
L 345.761808 92.309924 
L 346.045201 93.499205 
L 346.328593 95.208796 
L 346.611986 99.296948 
L 346.895378 99.073958 
L 347.178771 100.411899 
L 347.745556 101.266694 
L 348.028949 101.52685 
L 348.312341 101.37819 
L 348.595734 101.006539 
L 348.879126 101.118034 
L 349.162519 101.45252 
L 350.012697 101.303859 
L 350.296089 102.19582 
L 350.862875 103.01345 
L 351.146267 104.277061 
L 351.42966 104.908867 
L 351.713052 105.057527 
L 351.996445 102.084325 
L 352.279837 101.303859 
L 352.56323 101.60118 
L 352.846623 101.52685 
L 353.130015 102.976285 
L 353.413408 101.415355 
L 353.6968 100.523394 
L 354.263586 101.82417 
L 354.546978 103.050615 
L 354.830371 102.827625 
L 355.113763 102.19582 
L 355.397156 103.01345 
L 355.680549 102.19582 
L 355.963941 101.74984 
L 356.247334 101.8985 
L 356.530726 101.74984 
L 356.814119 100.226074 
L 357.097511 99.668599 
L 357.380904 99.705764 
L 357.664297 99.594268 
L 357.947689 99.742929 
L 358.797867 105.280517 
L 359.08126 105.726497 
L 359.364652 104.128401 
L 359.648045 101.52685 
L 359.931437 103.236441 
L 360.498222 102.12149 
L 360.781615 101.192364 
L 361.065008 102.307315 
L 361.3484 101.52685 
L 361.915185 102.604635 
L 362.198578 104.946032 
L 362.765363 102.678965 
L 363.048756 104.908867 
L 363.615541 103.236441 
L 363.898933 102.084325 
L 364.182326 101.74984 
L 364.465719 102.232985 
L 365.315896 99.482773 
L 365.882682 99.668599 
L 366.166074 100.114579 
L 366.449467 101.118034 
L 367.016252 103.570926 
L 367.299644 104.946032 
L 367.86643 108.848359 
L 368.149822 108.885524 
L 368.433215 106.692788 
L 368.716607 109.851814 
L 369 109.480164 
L 369.283393 109.368669 
L 369.566785 110.70661 
L 369.850178 111.37558 
L 370.13357 110.297795 
L 370.416963 110.111969 
L 370.700356 110.372125 
L 370.983748 110.297795 
L 371.267141 109.517329 
L 371.550533 109.814649 
L 371.833926 109.331504 
L 372.117318 109.926144 
L 372.684104 112.379036 
L 372.967496 110.40929 
L 373.250889 110.40929 
L 373.534281 112.936511 
L 373.817674 111.635735 
L 374.101067 111.22692 
L 374.667852 111.82156 
L 374.951244 111.970221 
L 375.518029 113.716977 
L 376.084815 113.419656 
L 376.368207 113.456821 
L 376.6516 111.970221 
L 376.934992 111.710065 
L 377.218385 112.379036 
L 377.78517 111.338415 
L 378.068563 111.970221 
L 378.351955 112.081716 
L 378.635348 111.412745 
L 378.91874 111.933056 
L 379.202133 111.858725 
L 379.768918 110.520785 
L 380.052311 110.595115 
L 380.335703 111.22692 
L 380.619096 111.00393 
L 380.902489 111.15259 
L 381.469274 113.122336 
L 382.036059 113.531151 
L 382.602844 113.605481 
L 383.169629 114.014297 
L 383.453022 113.085171 
L 383.736414 112.787851 
L 384.019807 113.085171 
L 384.3032 112.639191 
L 384.586592 111.970221 
L 385.153377 113.048006 
L 385.43677 113.531151 
L 385.720163 115.538063 
L 386.003555 115.017752 
L 386.286948 115.872548 
L 386.57034 113.791307 
L 387.137125 111.895891 
L 387.420518 111.412745 
L 387.703911 113.345326 
L 387.987303 112.527696 
L 388.270696 112.527696 
L 388.554088 112.379036 
L 388.837481 112.564861 
L 389.404266 112.453366 
L 389.687659 112.564861 
L 389.971051 112.973676 
L 390.254444 112.602026 
L 390.537836 112.676356 
L 390.821229 112.267541 
L 391.388014 109.331504 
L 391.671407 110.223465 
L 391.954799 110.520785 
L 392.521585 113.791307 
L 392.804977 113.716977 
L 393.08837 114.497442 
L 393.371762 112.936511 
L 393.655155 112.936511 
L 393.938547 113.085171 
L 394.22194 112.118881 
L 394.505333 112.044551 
L 394.788725 112.602026 
L 395.072118 111.52424 
L 395.35551 112.862181 
L 395.922296 112.044551 
L 396.205688 112.341871 
L 396.489081 112.379036 
L 396.772473 111.895891 
L 397.055866 112.304706 
L 397.339259 112.044551 
L 397.906044 109.182844 
L 398.189436 109.888979 
L 398.472829 109.703154 
L 398.756221 109.851814 
L 399.039614 113.977132 
L 399.323007 114.646102 
L 399.606399 114.608937 
L 399.889792 113.048006 
L 400.173184 110.595115 
L 400.456577 110.297795 
L 400.73997 112.156046 
L 401.023362 112.490531 
L 401.306755 111.933056 
L 401.590147 112.379036 
L 401.87354 111.895891 
L 402.440325 112.118881 
L 403.00711 112.341871 
L 403.290503 112.490531 
L 403.573895 112.825016 
L 403.857288 112.490531 
L 404.140681 112.713521 
L 404.424073 112.007386 
L 404.990858 107.956398 
L 405.274251 110.037639 
L 405.557643 110.9296 
L 406.124429 115.240742 
L 406.407821 116.132703 
L 406.691214 115.129247 
L 406.974606 113.456821 
L 407.257999 113.048006 
L 407.541392 112.193211 
L 407.824784 112.267541 
L 408.108177 113.308161 
L 408.391569 113.65954 
L 409.241747 113.196666 
L 409.52514 112.341871 
L 410.091925 113.642646 
L 410.375317 113.048006 
L 410.65871 113.308161 
L 410.942103 113.416278 
L 411.225495 113.159501 
L 411.79228 111.52424 
L 412.359066 113.568316 
L 412.642458 115.240742 
L 412.925851 115.352237 
L 413.209243 114.980587 
L 413.776028 113.308161 
L 414.626206 111.82156 
L 414.909599 112.527696 
L 415.476384 113.196666 
L 415.759777 113.345326 
L 416.043169 111.52424 
L 416.326562 111.784395 
L 416.609954 114.311617 
L 416.893347 113.754142 
L 417.176739 113.605481 
L 417.743525 113.865637 
L 418.026917 113.010841 
L 418.593702 113.865637 
L 418.877095 114.200122 
L 419.160488 114.906257 
L 419.727273 113.382491 
L 420.010665 113.270996 
L 420.294058 111.970221 
L 420.57745 111.635735 
L 420.860843 112.230376 
L 421.144236 112.230376 
L 421.427628 110.297795 
L 421.711021 110.63228 
L 422.277806 112.304706 
L 422.561199 112.007386 
L 422.844591 114.051462 
L 423.127984 113.493986 
L 423.694769 110.70661 
L 423.978162 113.010841 
L 424.261554 113.568316 
L 424.828339 114.311617 
L 425.395124 116.281363 
L 425.96191 117.507809 
L 426.528695 120.741166 
L 426.812087 120.852661 
L 427.662265 108.848359 
L 427.945658 107.621913 
L 428.22905 106.915778 
L 428.512443 107.324593 
L 429.079228 109.740319 
L 429.362621 112.936511 
L 429.646013 113.568316 
L 429.929406 113.085171 
L 430.212798 113.568316 
L 430.496191 113.754142 
L 431.062976 113.716977 
L 431.629761 113.754142 
L 431.913154 111.22692 
L 432.763332 112.973676 
L 433.046724 115.686723 
L 433.330117 115.649558 
L 433.613509 115.203577 
L 433.896902 116.095538 
L 434.180295 113.308161 
L 434.74708 112.007386 
L 435.030472 112.453366 
L 435.313865 111.041095 
L 435.597257 111.59857 
L 435.88065 113.085171 
L 436.164043 112.639191 
L 436.447435 113.196666 
L 437.01422 113.568316 
L 437.581006 114.906257 
L 437.864398 114.646102 
L 438.147791 115.389402 
L 438.714576 111.52424 
L 438.997969 113.456821 
L 439.281361 111.933056 
L 439.848146 114.460277 
L 440.131539 116.132703 
L 440.414931 114.125792 
L 440.981717 100.634889 
L 441.265109 98.070503 
L 441.548502 92.161264 
L 441.831894 89.671208 
L 442.115287 89.671208 
L 442.39868 91.194974 
L 442.965465 98.888133 
L 443.53225 104.091236 
L 444.099035 106.990108 
L 444.382428 108.290883 
L 444.66582 108.476709 
L 444.949213 109.331504 
L 445.232605 108.067893 
L 445.515998 108.662534 
L 445.799391 108.625369 
L 446.082783 109.517329 
L 446.366176 112.118881 
L 446.649568 113.270996 
L 447.216353 110.669445 
L 447.499746 112.193211 
L 447.783139 111.37558 
L 448.066531 109.554494 
L 448.349924 108.699699 
L 448.633316 108.476709 
L 448.916709 109.331504 
L 449.200102 109.442999 
L 449.483494 109.034184 
L 449.766887 109.331504 
L 450.050279 111.041095 
L 450.333672 111.82156 
L 450.617064 111.07826 
L 451.18385 111.041095 
L 451.467242 109.926144 
L 452.034027 110.892435 
L 452.600813 108.699699 
L 452.884205 109.257174 
L 453.45099 111.6729 
L 453.734383 111.412745 
L 454.867953 109.442999 
L 455.151346 109.442999 
L 455.434738 110.892435 
L 455.718131 110.33496 
L 456.568309 109.591659 
L 457.135094 109.480164 
L 457.418487 109.888979 
L 457.701879 109.257174 
L 457.985272 109.554494 
L 458.552057 108.662534 
L 458.835449 108.253718 
L 459.118842 106.209642 
L 459.685627 107.547583 
L 459.96902 107.770573 
L 460.252412 107.101603 
L 460.535805 107.436088 
L 460.819198 107.547583 
L 461.10259 107.361758 
L 461.385983 106.469797 
L 461.952768 106.655623 
L 462.23616 105.503507 
L 462.519553 106.729953 
L 462.802946 106.952943 
L 463.086338 105.712982 
L 463.369731 106.395467 
L 463.653123 106.395467 
L 464.219909 105.466342 
L 464.503301 105.837992 
L 464.786694 106.729953 
L 465.070086 106.506962 
L 465.353479 106.952943 
L 465.636872 107.175933 
L 466.203657 105.243352 
L 466.487049 105.726497 
L 466.770442 107.175933 
L 467.053834 107.324593 
L 467.62062 105.912322 
L 467.904012 105.540672 
L 468.187405 104.648711 
L 468.470797 104.723041 
L 468.75419 104.054071 
L 469.320975 103.570926 
L 469.88776 104.239896 
L 470.171153 103.979741 
L 470.454545 104.277061 
L 470.737938 104.239896 
L 471.021331 104.537216 
L 471.304723 104.351391 
L 471.871508 102.12149 
L 472.154901 101.935665 
L 472.438294 102.307315 
L 473.288471 104.462886 
L 473.571864 104.425721 
L 474.138649 103.347936 
L 474.422042 103.645256 
L 474.705434 103.385101 
L 474.988827 102.12149 
L 475.555612 101.60118 
L 475.839005 101.564015 
L 476.122397 100.672054 
L 476.40579 99.371278 
L 476.972575 100.523394 
L 477.255967 100.337569 
L 477.53936 101.229529 
L 477.822753 100.188909 
L 478.106145 100.969374 
L 478.389538 100.672054 
L 478.67293 100.672054 
L 478.956323 101.52685 
L 479.239716 100.634889 
L 479.523108 100.969374 
L 479.806501 100.003084 
L 480.089893 100.449064 
L 480.373286 100.486229 
L 480.656679 102.604635 
L 480.940071 102.34448 
L 481.223464 103.682421 
L 481.506856 103.942576 
L 481.790249 100.857879 
L 482.073641 103.162111 
L 482.357034 102.381645 
L 482.640427 101.118034 
L 483.207212 100.634889 
L 483.773997 100.932209 
L 484.05739 100.486229 
L 484.340782 98.627978 
L 484.624175 99.259783 
L 484.907567 97.624522 
L 485.474352 96.249417 
L 486.041138 95.245961 
L 486.607923 92.64441 
L 486.891315 92.458584 
L 487.174708 92.607245 
L 488.024886 96.695397 
L 488.308278 96.806892 
L 488.591671 95.803436 
L 488.875063 97.773182 
L 489.158456 97.959008 
L 489.441849 95.914931 
L 489.725241 95.840601 
L 490.008634 94.502661 
L 490.292026 95.394621 
L 490.575419 95.060136 
L 490.858812 95.654776 
L 491.708989 93.01606 
L 491.992382 92.94173 
L 492.275775 92.161264 
L 492.559167 92.64441 
L 492.84256 92.421419 
L 493.409345 92.94173 
L 493.692737 91.752449 
L 493.97613 92.532914 
L 494.259523 92.458584 
L 494.542915 92.235594 
L 494.826308 93.31338 
L 495.1097 93.796525 
L 495.393093 91.901109 
L 495.676486 91.492294 
L 495.959878 92.012604 
L 496.243271 91.417964 
L 496.526663 91.306469 
L 496.810056 91.529459 
L 497.093448 91.901109 
L 497.660234 94.13101 
L 497.943626 92.64441 
L 498.227019 93.053225 
L 498.510411 94.168175 
L 498.793804 94.799981 
L 499.077197 93.647865 
L 499.360589 93.276215 
L 499.643982 92.049769 
L 499.927374 89.931363 
L 500.210767 88.927907 
L 500.777552 88.444762 
L 501.060945 89.039402 
L 501.344337 86.995326 
L 501.62773 86.883831 
L 501.911122 89.894198 
L 502.194515 85.843211 
L 502.477908 85.285735 
L 502.7613 86.512181 
L 503.044693 87.106821 
L 503.328085 87.032491 
L 503.611478 84.72826 
L 503.89487 85.24857 
L 504.178263 84.50527 
L 504.461656 84.43094 
L 505.028441 81.755058 
L 505.595226 77.852731 
L 505.878619 77.741236 
L 506.162011 77.443916 
L 506.445404 77.443916 
L 507.012189 76.105975 
L 507.295582 76.849276 
L 507.578974 76.66345 
L 507.862367 76.328965 
L 508.429152 77.481081 
L 508.712544 76.06881 
L 509.27933 75.882985 
L 509.562722 76.180305 
L 509.846115 75.69716 
L 510.129507 76.36613 
L 510.4129 78.150051 
L 510.696293 76.923606 
L 510.979685 76.403295 
L 511.263078 76.58912 
L 511.54647 76.06881 
L 511.829863 76.2918 
L 512.396648 78.373041 
L 512.680041 78.633197 
L 512.963433 77.889896 
L 513.246826 75.734325 
L 513.813611 70.308232 
L 514.097004 69.862252 
L 514.380396 71.386017 
L 514.947181 80.156962 
L 515.513966 85.434395 
L 516.080752 86.437851 
L 516.364144 88.927907 
L 526.282885 86.066201 
L 526.84967 87.961617 
L 527.133062 87.218316 
L 527.416455 88.110277 
L 527.98324 88.221772 
L 528.266633 87.701462 
L 528.550025 87.738627 
L 528.833418 88.370432 
L 529.400203 87.775792 
L 529.966988 87.292646 
L 530.533773 87.404142 
L 531.100559 86.846666 
L 531.950736 85.47156 
L 532.800914 85.768881 
L 533.651092 85.137075 
L 534.50127 84.20795 
L 534.784662 84.765425 
L 535.068055 84.839755 
L 535.351447 85.39723 
L 535.63484 84.65393 
L 535.918233 85.360065 
L 536.485018 84.5796 
L 536.76841 85.39723 
L 537.335196 85.806046 
L 537.618588 84.43094 
L 537.901981 85.768881 
L 538.752158 84.319445 
L 539.035551 82.312534 
L 539.318944 81.346243 
L 539.885729 76.886441 
L 540.169121 75.99448 
L 540.452514 76.51479 
L 540.735907 75.25118 
L 541.019299 75.065355 
L 541.302692 75.77149 
L 541.586084 76.886441 
L 541.869477 75.99448 
L 542.152869 80.751603 
L 542.436262 82.424029 
L 542.719655 83.167329 
L 543.003047 82.721349 
L 543.28644 84.28228 
L 543.569832 84.170785 
L 543.853225 84.28228 
L 544.136618 84.691095 
L 544.703403 86.549346 
L 544.986795 85.917541 
L 545.270188 86.103366 
L 545.55358 86.920996 
L 545.836973 88.519092 
L 546.120366 88.221772 
L 546.403758 87.366977 
L 546.970543 86.252026 
L 547.253936 85.694551 
L 547.537329 85.694551 
L 547.820721 84.05929 
L 548.104114 85.211405 
L 548.387506 85.24857 
L 548.670899 86.066201 
L 548.954292 88.110277 
L 549.237684 88.853577 
L 549.804469 82.052379 
L 550.654647 80.863098 
L 550.93804 81.383408 
L 551.504825 86.103366 
L 551.788217 85.508725 
L 552.355003 86.698006 
L 552.638395 86.326356 
L 552.921788 86.400686 
L 553.20518 86.177696 
L 553.488573 86.214861 
L 553.771965 86.772336 
L 554.055358 86.809501 
L 554.338751 85.620221 
L 554.622143 82.981504 
L 554.905536 86.289191 
L 555.188928 86.586511 
L 555.472321 88.110277 
L 555.755714 87.998782 
L 556.322499 86.883831 
L 556.605891 86.809501 
L 556.889284 85.47156 
L 557.172676 85.17424 
L 557.456069 85.39723 
L 558.022854 86.289191 
L 558.306247 85.47156 
L 558.873032 85.806046 
L 559.156425 85.47156 
L 559.439817 86.698006 
L 559.72321 86.660841 
L 560.006602 85.954706 
L 560.573388 82.312534 
L 561.423565 72.389473 
L 561.706958 71.311687 
L 561.99035 68.301321 
L 562.273743 68.152661 
L 562.557136 69.490601 
L 562.840528 69.341941 
L 563.123921 68.672971 
L 563.690706 70.233902 
L 563.974099 70.233902 
L 564.257491 70.419727 
L 564.540884 71.125862 
L 564.824276 70.531222 
L 565.391061 71.831998 
L 565.674454 72.017823 
L 565.957847 73.504424 
L 566.241239 72.946948 
L 566.524632 71.460347 
L 566.808024 71.051532 
L 567.091417 72.054988 
L 567.37481 72.315143 
L 567.658202 71.683338 
L 567.941595 69.118951 
L 568.224987 69.676426 
L 568.50838 69.787922 
L 568.791772 70.233902 
L 569.075165 70.977202 
L 569.358558 70.568387 
L 569.925343 70.531222 
L 570.208735 70.085242 
L 570.775521 70.345397 
L 571.058913 71.163027 
L 571.342306 71.423182 
L 571.625698 70.828542 
L 571.909091 71.088697 
L 572.192483 71.794833 
L 572.475876 71.534678 
L 573.042661 72.092153 
L 573.609446 71.757668 
L 573.892839 71.831998 
L 574.176232 71.720503 
L 574.459624 71.794833 
L 574.743017 72.203648 
L 575.026409 74.879529 
L 575.876587 77.927061 
L 576.443372 78.112886 
L 576.726765 78.075721 
L 577.576943 78.298711 
L 577.860335 78.373041 
L 578.143728 78.744692 
L 578.42712 78.633197 
L 578.710513 78.819022 
L 579.277298 79.636652 
L 579.560691 79.562322 
L 579.844083 79.042012 
L 580.127476 78.261546 
L 580.410868 78.075721 
L 580.977654 78.075721 
L 581.261046 78.373041 
L 581.544439 77.592576 
L 581.827831 77.889896 
L 582.678009 77.964226 
L 582.961402 79.896807 
L 583.244794 83.799135 
L 583.528187 83.613309 
L 583.811579 80.268457 
L 584.094972 80.305623 
L 584.378365 79.487992 
L 584.94515 78.781857 
L 585.228542 78.856187 
L 585.795328 79.748147 
L 586.362113 79.896807 
L 586.928898 78.819022 
L 587.212291 78.819022 
L 587.779076 79.599487 
L 588.062468 79.785312 
L 588.629253 78.707527 
L 588.912646 79.450827 
L 589.196039 79.748147 
L 589.479431 80.677273 
L 589.762824 80.602943 
L 590.046216 80.045467 
L 590.329609 79.76504 
L 590.896394 78.670362 
L 591.179787 78.781857 
L 591.746572 77.852731 
L 592.029964 78.038556 
L 592.313357 78.633197 
L 592.59675 78.373041 
L 592.880142 78.410206 
L 593.163535 78.298711 
L 593.73032 77.258091 
L 594.580498 78.112886 
L 594.86389 77.927061 
L 595.147283 77.927061 
L 595.714068 76.06881 
L 595.997461 74.582209 
L 596.564246 70.717047 
L 597.697816 65.253789 
L 598.264601 63.841518 
L 598.547994 63.692858 
L 598.831386 65.253789 
L 599.114779 65.551109 
L 599.398172 64.176003 
L 599.681564 63.618528 
L 599.964957 64.287498 
L 600.248349 64.176003 
L 601.098527 59.790531 
L 601.38192 59.790531 
L 601.665312 58.60125 
L 602.232098 54.327273 
L 602.798883 55.182068 
L 603.082275 56.185524 
L 603.64906 59.307386 
L 603.932453 60.608161 
L 604.215846 60.422336 
L 604.499238 61.239967 
L 604.782631 63.432703 
L 605.349416 65.365284 
L 605.632809 65.699769 
L 605.916201 66.331575 
L 606.199594 66.59173 
L 606.766379 68.078331 
L 607.049771 69.602096 
L 607.616557 70.456892 
L 608.183342 72.500968 
L 608.466734 72.723958 
L 608.750127 72.166483 
L 609.03352 73.169938 
L 609.316912 72.129318 
L 609.600305 72.389473 
L 609.883697 73.132773 
L 610.16709 72.686793 
L 611.017268 74.916694 
L 611.30066 75.065355 
L 611.584053 75.47417 
L 611.867445 76.51479 
L 612.150838 78.670362 
L 612.434231 78.075721 
L 612.717623 76.997936 
L 613.001016 77.815566 
L 613.284408 77.927061 
L 613.567801 78.856187 
L 613.851193 80.268457 
L 614.134586 77.295256 
L 614.701371 78.150051 
L 614.984764 80.565778 
L 615.268156 79.785312 
L 615.834942 76.51479 
L 616.118334 77.258091 
L 616.401727 79.302167 
L 616.968512 84.87692 
L 617.535297 84.20795 
L 617.81869 81.123253 
L 618.385475 80.937428 
L 618.668867 81.755058 
L 618.95226 81.420573 
L 620.652616 83.538979 
L 620.936008 83.501814 
L 621.219401 83.687639 
L 621.502793 83.724804 
L 621.786186 83.092999 
L 622.069578 82.126709 
L 622.352971 81.829388 
L 622.636364 81.078655 
L 622.636364 81.078655 
" clip-path="url(#pcdaffc975d)" style="fill: none; stroke: #1f77b4; stroke-width: 1.5; stroke-linecap: square"/>
   </g>
   <g id="line2d_13">
    <path d="M 115.363636 179.151822 
L 115.930422 179.119731 
L 116.213814 178.867259 
L 122.731844 178.404989 
L 123.015236 175.745397 
L 126.415947 175.726824 
L 126.69934 174.965834 
L 127.549518 168.996273 
L 127.83291 167.880876 
L 128.399695 167.631994 
L 129.533266 167.57886 
L 129.816658 182.955411 
L 132.083799 182.735748 
L 136.334688 182.737936 
L 136.61808 140.884607 
L 143.13611 140.894893 
L 143.419502 152.145608 
L 144.836465 152.161108 
L 145.119858 152.467123 
L 145.40325 153.815611 
L 146.253428 160.127833 
L 146.536821 160.897272 
L 147.386998 160.954543 
L 148.520569 160.598167 
L 149.937532 160.597445 
L 150.220924 170.133479 
L 151.92128 171.110783 
L 153.621635 171.813555 
L 155.321991 172.28818 
L 156.455561 172.450038 
L 156.738954 172.757594 
L 157.022346 179.573394 
L 157.589132 179.029982 
L 157.872524 178.862735 
L 159.006094 178.900911 
L 163.540376 179.027347 
L 163.823768 179.387569 
L 164.673946 172.86608 
L 165.240731 172.893039 
L 166.941087 172.887343 
L 168.35805 172.724009 
L 168.641442 172.782361 
L 169.208228 172.452477 
L 170.341798 172.570131 
L 170.62519 170.876779 
L 175.159472 170.978747 
L 175.726257 171.983276 
L 176.293042 172.206299 
L 177.14322 172.221097 
L 177.426612 178.309783 
L 181.677501 178.418871 
L 181.960894 178.864477 
L 182.527679 181.957814 
L 183.094464 184.799548 
L 183.661249 184.913869 
L 183.944642 184.913399 
L 184.228035 168.200898 
L 186.211783 170.364062 
L 187.912138 171.883611 
L 189.612494 173.080076 
L 191.312849 173.971767 
L 193.013205 174.599841 
L 194.996953 175.067257 
L 195.847131 175.237112 
L 196.130523 174.929457 
L 196.697308 173.050885 
L 197.264093 169.165704 
L 197.547486 169.420674 
L 197.830879 156.233761 
L 199.247842 156.205964 
L 199.531234 156.34292 
L 200.098019 154.356365 
L 201.23159 153.855234 
L 202.648553 153.874979 
L 204.065515 153.814486 
L 204.348908 153.744146 
L 204.915693 158.335714 
L 205.199086 156.522288 
L 205.482478 158.258688 
L 206.049264 179.244563 
L 206.332656 177.529159 
L 206.616049 177.618003 
L 206.899441 177.44317 
L 207.749619 177.511131 
L 210.01676 177.735747 
L 211.717115 178.136517 
L 212.850686 178.594912 
L 213.700863 179.057296 
L 213.984256 179.061239 
L 214.267649 179.207491 
L 215.117826 180.343494 
L 215.684611 181.453143 
L 216.251397 182.964662 
L 216.818182 184.980301 
L 217.66836 189.147026 
L 218.518537 194.847602 
L 219.368715 202.055017 
L 220.785678 216.553384 
L 223.336211 243.40415 
L 224.469782 252.974746 
L 225.603352 260.43361 
L 226.45353 264.700863 
L 227.303707 267.981132 
L 228.153885 270.444771 
L 229.004063 272.261825 
L 229.854241 273.584304 
L 230.704418 274.538424 
L 231.837989 275.40579 
L 232.971559 275.96298 
L 234.388522 276.390957 
L 235.522092 276.602149 
L 238.356018 276.872727 
L 238.639411 167.048782 
L 240.339766 167.086369 
L 240.906552 167.335168 
L 241.756729 167.370498 
L 242.323514 167.661087 
L 243.457085 167.617823 
L 244.874048 166.181619 
L 245.15744 166.208766 
L 245.440833 160.098923 
L 246.857796 160.005312 
L 247.707974 159.422952 
L 249.691722 159.439071 
L 251.958862 159.441554 
L 252.242255 104.723041 
L 258.760284 104.739462 
L 259.043677 123.305552 
L 263.011173 123.320974 
L 263.294566 123.673411 
L 263.861351 125.933191 
L 264.144744 126.138357 
L 265.278314 126.213154 
L 265.845099 126.326147 
L 266.695277 126.796589 
L 267.828847 127.202145 
L 270.37938 127.112119 
L 270.946166 126.475911 
L 272.079736 126.504085 
L 287.382936 126.534094 
L 287.666328 140.289967 
L 292.767395 140.238456 
L 293.050787 135.718669 
L 300.702387 135.659638 
L 300.98578 135.425904 
L 301.269172 134.892134 
L 301.552565 134.65836 
L 302.686135 134.670033 
L 315.155409 134.644189 
L 326.20772 134.839253 
L 339.810564 134.715735 
L 343.494667 101.97283 
L 345.478415 102.005637 
L 345.761808 102.180139 
L 346.895378 103.573969 
L 348.595734 103.647912 
L 350.296089 103.675413 
L 350.579482 103.791396 
L 350.862875 102.028577 
L 356.247334 102.04252 
L 356.530726 101.694092 
L 363.048756 101.711026 
L 363.332148 102.307315 
L 364.182326 102.182661 
L 365.032504 100.832598 
L 365.882682 100.471295 
L 369.850178 100.487416 
L 370.13357 110.446455 
L 374.667852 110.508435 
L 375.234637 110.894225 
L 376.6516 112.122385 
L 376.934992 113.512569 
L 378.351955 113.436072 
L 378.91874 113.299732 
L 382.036059 113.310167 
L 382.886237 113.572249 
L 383.453022 113.858512 
L 384.019807 114.278038 
L 385.153377 114.713577 
L 386.286948 114.835672 
L 389.404266 114.764667 
L 390.254444 114.738422 
L 390.537836 113.066589 
L 397.055866 113.07297 
L 397.339259 112.118881 
L 403.857288 112.209475 
L 404.140681 112.509113 
L 406.974606 112.597712 
L 412.075673 112.600232 
L 412.359066 110.55795 
L 417.743525 110.59666 
L 418.026917 113.679812 
L 431.062976 113.773928 
L 431.346369 113.456821 
L 437.01422 113.536013 
L 437.864398 113.791512 
L 438.147791 115.017752 
L 439.564754 115.67512 
L 440.414931 115.825611 
L 442.682072 115.864441 
L 446.082783 115.865791 
L 446.366176 107.659078 
L 447.783139 107.659677 
L 448.066531 113.233831 
L 451.467242 113.235182 
L 451.750635 111.00393 
L 465.070086 110.573649 
L 465.353479 106.915778 
L 465.920264 105.472202 
L 466.203657 105.22775 
L 467.053834 105.157556 
L 469.320975 105.017087 
L 470.454545 104.37827 
L 471.588116 104.3102 
L 471.871508 104.300312 
L 472.154901 103.793916 
L 475.272219 103.702676 
L 475.839005 103.395464 
L 477.255967 103.363328 
L 478.67293 103.313714 
L 478.956323 99.780094 
L 479.806501 100.597328 
L 480.656679 101.131006 
L 481.790249 101.54455 
L 483.207212 101.79407 
L 485.474352 101.940559 
L 485.757745 97.104212 
L 487.458101 97.322145 
L 490.575419 97.437755 
L 492.275775 97.422677 
L 492.559167 97.608501 
L 492.84256 92.049769 
L 493.125952 92.06847 
L 493.692737 91.320825 
L 494.259523 91.288431 
L 495.959878 91.232172 
L 499.360589 91.106509 
L 499.643982 93.83369 
L 501.060945 93.851189 
L 501.344337 93.27919 
L 501.911122 91.146393 
L 502.194515 90.010013 
L 502.477908 89.859785 
L 505.878619 89.706644 
L 506.162011 78.224381 
L 506.445404 78.188455 
L 507.012189 76.385312 
L 507.295582 75.989037 
L 507.862367 74.420268 
L 508.145759 74.37873 
L 508.429152 73.610979 
L 508.995937 71.437201 
L 509.562722 70.592765 
L 510.129507 70.189588 
L 510.696293 70.142453 
L 511.54647 70.138044 
L 511.829863 70.291899 
L 512.396648 71.064971 
L 512.680041 71.511202 
L 512.963433 78.001391 
L 513.530218 78.337524 
L 514.380396 79.104158 
L 516.080752 80.238059 
L 516.364144 80.355363 
L 525.999492 87.947969 
L 528.266633 88.111941 
L 533.084307 88.188274 
L 533.367699 85.806046 
L 533.934485 85.136478 
L 534.50127 84.629917 
L 535.351447 84.377427 
L 535.63484 84.255501 
L 536.485018 84.23593 
L 537.335196 84.201281 
L 538.468766 84.287143 
L 539.885729 84.885691 
L 540.169121 80.119797 
L 541.302692 80.530291 
L 541.586084 80.434828 
L 541.869477 80.137322 
L 542.152869 80.010464 
L 543.003047 80.172461 
L 543.853225 80.33755 
L 544.986795 80.916379 
L 546.403758 81.555992 
L 546.687151 81.646364 
L 546.970543 87.143986 
L 548.670899 87.242194 
L 549.237684 87.019692 
L 550.087862 86.566632 
L 553.20518 86.822276 
L 553.488573 86.847339 
L 553.771965 86.363521 
L 560.573388 86.513097 
L 560.85678 84.80259 
L 562.557136 85.024582 
L 565.674454 85.140644 
L 567.091417 85.158856 
L 567.37481 71.423182 
L 574.176232 71.420786 
L 574.459624 71.646173 
L 580.127476 71.767016 
L 580.694261 71.824042 
L 580.977654 78.001391 
L 587.495683 77.779085 
L 587.779076 78.670362 
L 592.880142 78.611099 
L 593.73032 77.419793 
L 594.580498 75.977741 
L 594.86389 77.600009 
L 595.714068 76.708087 
L 595.997461 76.387554 
L 596.564246 76.243962 
L 597.697816 75.079342 
L 598.264601 75.02312 
L 601.098527 75.037072 
L 601.38192 61.633916 
L 607.899949 61.307195 
L 608.183342 70.375129 
L 611.584053 70.768385 
L 614.701371 70.89765 
L 614.984764 70.899764 
L 615.268156 77.064833 
L 616.118334 77.657036 
L 616.968512 77.973027 
L 618.385475 78.172961 
L 620.652616 78.248204 
L 621.786186 78.250507 
L 622.069578 83.66534 
L 622.636364 83.665906 
L 622.636364 83.665906 
" clip-path="url(#pcdaffc975d)" style="fill: none; stroke: #ff7f0e; stroke-width: 1.5; stroke-linecap: square"/>
   </g>
   <g id="patch_3">
    <path d="M 90 288 
L 90 43.2 
" style="fill: none; stroke: #000000; stroke-width: 0.8; stroke-linejoin: miter; stroke-linecap: square"/>
   </g>
   <g id="patch_4">
    <path d="M 648 288 
L 648 43.2 
" style="fill: none; stroke: #000000; stroke-width: 0.8; stroke-linejoin: miter; stroke-linecap: square"/>
   </g>
   <g id="patch_5">
    <path d="M 90 288 
L 648 288 
" style="fill: none; stroke: #000000; stroke-width: 0.8; stroke-linejoin: miter; stroke-linecap: square"/>
   </g>
   <g id="patch_6">
    <path d="M 90 43.2 
L 648 43.2 
" style="fill: none; stroke: #000000; stroke-width: 0.8; stroke-linejoin: miter; stroke-linecap: square"/>
   </g>
   <g id="text_13">
    <!-- MDOT488 -->
    <g transform="translate(339.362813 37.2) scale(0.12 -0.12)">
     <defs>
      <path id="DejaVuSans-44" d="M 1259 4147 
L 1259 519 
L 2022 519 
Q 2988 519 3436 956 
Q 3884 1394 3884 2338 
Q 3884 3275 3436 3711 
Q 2988 4147 2022 4147 
L 1259 4147 
z
M 628 4666 
L 1925 4666 
Q 3281 4666 3915 4102 
Q 4550 3538 4550 2338 
Q 4550 1131 3912 565 
Q 3275 0 1925 0 
L 628 0 
L 628 4666 
z
" transform="scale(0.015625)"/>
      <path id="DejaVuSans-4f" d="M 2522 4238 
Q 1834 4238 1429 3725 
Q 1025 3213 1025 2328 
Q 1025 1447 1429 934 
Q 1834 422 2522 422 
Q 3209 422 3611 934 
Q 4013 1447 4013 2328 
Q 4013 3213 3611 3725 
Q 3209 4238 2522 4238 
z
M 2522 4750 
Q 3503 4750 4090 4092 
Q 4678 3434 4678 2328 
Q 4678 1225 4090 567 
Q 3503 -91 2522 -91 
Q 1538 -91 948 565 
Q 359 1222 359 2328 
Q 359 3434 948 4092 
Q 1538 4750 2522 4750 
z
" transform="scale(0.015625)"/>
      <path id="DejaVuSans-54" d="M -19 4666 
L 3928 4666 
L 3928 4134 
L 2272 4134 
L 2272 0 
L 1638 0 
L 1638 4134 
L -19 4134 
L -19 4666 
z
" transform="scale(0.015625)"/>
     </defs>
     <use xlink:href="#DejaVuSans-4d"/>
     <use xlink:href="#DejaVuSans-44" x="86.279297"/>
     <use xlink:href="#DejaVuSans-4f" x="163.28125"/>
     <use xlink:href="#DejaVuSans-54" x="241.992188"/>
     <use xlink:href="#DejaVuSans-34" x="303.076172"/>
     <use xlink:href="#DejaVuSans-38" x="366.699219"/>
     <use xlink:href="#DejaVuSans-38" x="430.322266"/>
    </g>
   </g>
   <g id="legend_1">
    <g id="patch_7">
     <path d="M 97 80.55625 
L 178.95625 80.55625 
Q 180.95625 80.55625 180.95625 78.55625 
L 180.95625 50.2 
Q 180.95625 48.2 178.95625 48.2 
L 97 48.2 
Q 95 48.2 95 50.2 
L 95 78.55625 
Q 95 80.55625 97 80.55625 
z
" style="fill: #ffffff; opacity: 0.8; stroke: #cccccc; stroke-linejoin: miter"/>
    </g>
    <g id="line2d_14">
     <path d="M 99 56.298437 
L 109 56.298437 
L 119 56.298437 
" style="fill: none; stroke: #1f77b4; stroke-width: 1.5; stroke-linecap: square"/>
    </g>
    <g id="text_14">
     <!-- measured -->
     <g transform="translate(127 59.798437) scale(0.1 -0.1)">
      <defs>
       <path id="DejaVuSans-6d" d="M 3328 2828 
Q 3544 3216 3844 3400 
Q 4144 3584 4550 3584 
Q 5097 3584 5394 3201 
Q 5691 2819 5691 2113 
L 5691 0 
L 5113 0 
L 5113 2094 
Q 5113 2597 4934 2840 
Q 4756 3084 4391 3084 
Q 3944 3084 3684 2787 
Q 3425 2491 3425 1978 
L 3425 0 
L 2847 0 
L 2847 2094 
Q 2847 2600 2669 2842 
Q 2491 3084 2119 3084 
Q 1678 3084 1418 2786 
Q 1159 2488 1159 1978 
L 1159 0 
L 581 0 
L 581 3500 
L 1159 3500 
L 1159 2956 
Q 1356 3278 1631 3431 
Q 1906 3584 2284 3584 
Q 2666 3584 2933 3390 
Q 3200 3197 3328 2828 
z
" transform="scale(0.015625)"/>
       <path id="DejaVuSans-61" d="M 2194 1759 
Q 1497 1759 1228 1600 
Q 959 1441 959 1056 
Q 959 750 1161 570 
Q 1363 391 1709 391 
Q 2188 391 2477 730 
Q 2766 1069 2766 1631 
L 2766 1759 
L 2194 1759 
z
M 3341 1997 
L 3341 0 
L 2766 0 
L 2766 531 
Q 2569 213 2275 61 
Q 1981 -91 1556 -91 
Q 1019 -91 701 211 
Q 384 513 384 1019 
Q 384 1609 779 1909 
Q 1175 2209 1959 2209 
L 2766 2209 
L 2766 2266 
Q 2766 2663 2505 2880 
Q 2244 3097 1772 3097 
Q 1472 3097 1187 3025 
Q 903 2953 641 2809 
L 641 3341 
Q 956 3463 1253 3523 
Q 1550 3584 1831 3584 
Q 2591 3584 2966 3190 
Q 3341 2797 3341 1997 
z
" transform="scale(0.015625)"/>
       <path id="DejaVuSans-75" d="M 544 1381 
L 544 3500 
L 1119 3500 
L 1119 1403 
Q 1119 906 1312 657 
Q 1506 409 1894 409 
Q 2359 409 2629 706 
Q 2900 1003 2900 1516 
L 2900 3500 
L 3475 3500 
L 3475 0 
L 2900 0 
L 2900 538 
Q 2691 219 2414 64 
Q 2138 -91 1772 -91 
Q 1169 -91 856 284 
Q 544 659 544 1381 
z
M 1991 3584 
L 1991 3584 
z
" transform="scale(0.015625)"/>
       <path id="DejaVuSans-64" d="M 2906 2969 
L 2906 4863 
L 3481 4863 
L 3481 0 
L 2906 0 
L 2906 525 
Q 2725 213 2448 61 
Q 2172 -91 1784 -91 
Q 1150 -91 751 415 
Q 353 922 353 1747 
Q 353 2572 751 3078 
Q 1150 3584 1784 3584 
Q 2172 3584 2448 3432 
Q 2725 3281 2906 2969 
z
M 947 1747 
Q 947 1113 1208 752 
Q 1469 391 1925 391 
Q 2381 391 2643 752 
Q 2906 1113 2906 1747 
Q 2906 2381 2643 2742 
Q 2381 3103 1925 3103 
Q 1469 3103 1208 2742 
Q 947 2381 947 1747 
z
" transform="scale(0.015625)"/>
      </defs>
      <use xlink:href="#DejaVuSans-6d"/>
      <use xlink:href="#DejaVuSans-65" x="97.412109"/>
      <use xlink:href="#DejaVuSans-61" x="158.935547"/>
      <use xlink:href="#DejaVuSans-73" x="220.214844"/>
      <use xlink:href="#DejaVuSans-75" x="272.314453"/>
      <use xlink:href="#DejaVuSans-72" x="335.693359"/>
      <use xlink:href="#DejaVuSans-65" x="374.556641"/>
      <use xlink:href="#DejaVuSans-64" x="436.080078"/>
     </g>
    </g>
    <g id="line2d_15">
     <path d="M 99 70.976562 
L 109 70.976562 
L 119 70.976562 
" style="fill: none; stroke: #ff7f0e; stroke-width: 1.5; stroke-linecap: square"/>
    </g>
    <g id="text_15">
     <!-- predicted -->
     <g transform="translate(127 74.476562) scale(0.1 -0.1)">
      <defs>
       <path id="DejaVuSans-70" d="M 1159 525 
L 1159 -1331 
L 581 -1331 
L 581 3500 
L 1159 3500 
L 1159 2969 
Q 1341 3281 1617 3432 
Q 1894 3584 2278 3584 
Q 2916 3584 3314 3078 
Q 3713 2572 3713 1747 
Q 3713 922 3314 415 
Q 2916 -91 2278 -91 
Q 1894 -91 1617 61 
Q 1341 213 1159 525 
z
M 3116 1747 
Q 3116 2381 2855 2742 
Q 2594 3103 2138 3103 
Q 1681 3103 1420 2742 
Q 1159 2381 1159 1747 
Q 1159 1113 1420 752 
Q 1681 391 2138 391 
Q 2594 391 2855 752 
Q 3116 1113 3116 1747 
z
" transform="scale(0.015625)"/>
       <path id="DejaVuSans-69" d="M 603 3500 
L 1178 3500 
L 1178 0 
L 603 0 
L 603 3500 
z
M 603 4863 
L 1178 4863 
L 1178 4134 
L 603 4134 
L 603 4863 
z
" transform="scale(0.015625)"/>
       <path id="DejaVuSans-63" d="M 3122 3366 
L 3122 2828 
Q 2878 2963 2633 3030 
Q 2388 3097 2138 3097 
Q 1578 3097 1268 2742 
Q 959 2388 959 1747 
Q 959 1106 1268 751 
Q 1578 397 2138 397 
Q 2388 397 2633 464 
Q 2878 531 3122 666 
L 3122 134 
Q 2881 22 2623 -34 
Q 2366 -91 2075 -91 
Q 1284 -91 818 406 
Q 353 903 353 1747 
Q 353 2603 823 3093 
Q 1294 3584 2113 3584 
Q 2378 3584 2631 3529 
Q 2884 3475 3122 3366 
z
" transform="scale(0.015625)"/>
      </defs>
      <use xlink:href="#DejaVuSans-70"/>
      <use xlink:href="#DejaVuSans-72" x="63.476562"/>
      <use xlink:href="#DejaVuSans-65" x="102.339844"/>
      <use xlink:href="#DejaVuSans-64" x="163.863281"/>
      <use xlink:href="#DejaVuSans-69" x="227.339844"/>
      <use xlink:href="#DejaVuSans-63" x="255.123047"/>
      <use xlink:href="#DejaVuSans-74" x="310.103516"/>
      <use xlink:href="#DejaVuSans-65" x="349.3125"/>
      <use xlink:href="#DejaVuSans-64" x="410.835938"/>
     </g>
    </g>
   </g>
  </g>
 </g>
 <defs>
  <clipPath id="pcdaffc975d">
   <rect x="90" y="43.2" width="558" height="244.8"/>
  </clipPath>
 </defs>
</svg>
