<?xml version="1.0" encoding="utf-8" standalone="no"?>
<!DOCTYPE svg PUBLIC "-//W3C//DTD SVG 1.1//EN"
  "http://www.w3.org/Graphics/SVG/1.1/DTD/svg11.dtd">
<svg xmlns:xlink="http://www.w3.org/1999/xlink" width="712.96pt" height="351.43625pt" viewBox="0 0 712.96 351.43625" xmlns="http://www.w3.org/2000/svg" version="1.1">
 <metadata>
  <rdf:RDF xmlns:dc="http://purl.org/dc/elements/1.1/" xmlns:cc="http://creativecommons.org/ns#" xmlns:rdf="http://www.w3.org/1999/02/22-rdf-syntax-ns#">
   <cc:Work>
    <dc:type rdf:resource="http://purl.org/dc/dcmitype/StillImage"/>
    <dc:date>2023-11-30T01:09:10.625263</dc:date>
    <dc:format>image/svg+xml</dc:format>
    <dc:creator>
     <cc:Agent>
      <dc:title>Matplotlib v3.7.1, https://matplotlib.org/</dc:title>
     </cc:Agent>
    </dc:creator>
   </cc:Work>
  </rdf:RDF>
 </metadata>
 <defs>
  <style type="text/css">*{stroke-linejoin: round; stroke-linecap: butt}</style>
 </defs>
 <g id="figure_1">
  <g id="patch_1">
   <path d="M 0 351.43625 
L 712.96 351.43625 
L 712.96 0 
L 0 0 
z
" style="fill: #ffffff"/>
  </g>
  <g id="axes_1">
   <g id="patch_2">
    <path d="M 39.65 327.558125 
L 705.76 327.558125 
L 705.76 22.318125 
L 39.65 22.318125 
z
" style="fill: #ffffff"/>
   </g>
   <g id="matplotlib.axis_1">
    <g id="xtick_1">
     <g id="line2d_1">
      <defs>
       <path id="ma0ae95fc39" d="M 0 0 
L 0 3.5 
" style="stroke: #000000; stroke-width: 0.8"/>
      </defs>
      <g>
       <use xlink:href="#ma0ae95fc39" x="69.343897" y="327.558125" style="stroke: #000000; stroke-width: 0.8"/>
      </g>
     </g>
     <g id="text_1">
      <!-- 2009-07 -->
      <g transform="translate(48.452491 342.156563) scale(0.1 -0.1)">
       <defs>
        <path id="DejaVuSans-32" d="M 1228 531 
L 3431 531 
L 3431 0 
L 469 0 
L 469 531 
Q 828 903 1448 1529 
Q 2069 2156 2228 2338 
Q 2531 2678 2651 2914 
Q 2772 3150 2772 3378 
Q 2772 3750 2511 3984 
Q 2250 4219 1831 4219 
Q 1534 4219 1204 4116 
Q 875 4013 500 3803 
L 500 4441 
Q 881 4594 1212 4672 
Q 1544 4750 1819 4750 
Q 2544 4750 2975 4387 
Q 3406 4025 3406 3419 
Q 3406 3131 3298 2873 
Q 3191 2616 2906 2266 
Q 2828 2175 2409 1742 
Q 1991 1309 1228 531 
z
" transform="scale(0.015625)"/>
        <path id="DejaVuSans-30" d="M 2034 4250 
Q 1547 4250 1301 3770 
Q 1056 3291 1056 2328 
Q 1056 1369 1301 889 
Q 1547 409 2034 409 
Q 2525 409 2770 889 
Q 3016 1369 3016 2328 
Q 3016 3291 2770 3770 
Q 2525 4250 2034 4250 
z
M 2034 4750 
Q 2819 4750 3233 4129 
Q 3647 3509 3647 2328 
Q 3647 1150 3233 529 
Q 2819 -91 2034 -91 
Q 1250 -91 836 529 
Q 422 1150 422 2328 
Q 422 3509 836 4129 
Q 1250 4750 2034 4750 
z
" transform="scale(0.015625)"/>
        <path id="DejaVuSans-39" d="M 703 97 
L 703 672 
Q 941 559 1184 500 
Q 1428 441 1663 441 
Q 2288 441 2617 861 
Q 2947 1281 2994 2138 
Q 2813 1869 2534 1725 
Q 2256 1581 1919 1581 
Q 1219 1581 811 2004 
Q 403 2428 403 3163 
Q 403 3881 828 4315 
Q 1253 4750 1959 4750 
Q 2769 4750 3195 4129 
Q 3622 3509 3622 2328 
Q 3622 1225 3098 567 
Q 2575 -91 1691 -91 
Q 1453 -91 1209 -44 
Q 966 3 703 97 
z
M 1959 2075 
Q 2384 2075 2632 2365 
Q 2881 2656 2881 3163 
Q 2881 3666 2632 3958 
Q 2384 4250 1959 4250 
Q 1534 4250 1286 3958 
Q 1038 3666 1038 3163 
Q 1038 2656 1286 2365 
Q 1534 2075 1959 2075 
z
" transform="scale(0.015625)"/>
        <path id="DejaVuSans-2d" d="M 313 2009 
L 1997 2009 
L 1997 1497 
L 313 1497 
L 313 2009 
z
" transform="scale(0.015625)"/>
        <path id="DejaVuSans-37" d="M 525 4666 
L 3525 4666 
L 3525 4397 
L 1831 0 
L 1172 0 
L 2766 4134 
L 525 4134 
L 525 4666 
z
" transform="scale(0.015625)"/>
       </defs>
       <use xlink:href="#DejaVuSans-32"/>
       <use xlink:href="#DejaVuSans-30" x="63.623047"/>
       <use xlink:href="#DejaVuSans-30" x="127.246094"/>
       <use xlink:href="#DejaVuSans-39" x="190.869141"/>
       <use xlink:href="#DejaVuSans-2d" x="254.492188"/>
       <use xlink:href="#DejaVuSans-30" x="290.576172"/>
       <use xlink:href="#DejaVuSans-37" x="354.199219"/>
      </g>
     </g>
    </g>
    <g id="xtick_2">
     <g id="line2d_2">
      <g>
       <use xlink:href="#ma0ae95fc39" x="137.19108" y="327.558125" style="stroke: #000000; stroke-width: 0.8"/>
      </g>
     </g>
     <g id="text_2">
      <!-- 2009-10 -->
      <g transform="translate(116.299674 342.156563) scale(0.1 -0.1)">
       <defs>
        <path id="DejaVuSans-31" d="M 794 531 
L 1825 531 
L 1825 4091 
L 703 3866 
L 703 4441 
L 1819 4666 
L 2450 4666 
L 2450 531 
L 3481 531 
L 3481 0 
L 794 0 
L 794 531 
z
" transform="scale(0.015625)"/>
       </defs>
       <use xlink:href="#DejaVuSans-32"/>
       <use xlink:href="#DejaVuSans-30" x="63.623047"/>
       <use xlink:href="#DejaVuSans-30" x="127.246094"/>
       <use xlink:href="#DejaVuSans-39" x="190.869141"/>
       <use xlink:href="#DejaVuSans-2d" x="254.492188"/>
       <use xlink:href="#DejaVuSans-31" x="290.576172"/>
       <use xlink:href="#DejaVuSans-30" x="354.199219"/>
      </g>
     </g>
    </g>
    <g id="xtick_3">
     <g id="line2d_3">
      <g>
       <use xlink:href="#ma0ae95fc39" x="205.038263" y="327.558125" style="stroke: #000000; stroke-width: 0.8"/>
      </g>
     </g>
     <g id="text_3">
      <!-- 2010-01 -->
      <g transform="translate(184.146857 342.156563) scale(0.1 -0.1)">
       <use xlink:href="#DejaVuSans-32"/>
       <use xlink:href="#DejaVuSans-30" x="63.623047"/>
       <use xlink:href="#DejaVuSans-31" x="127.246094"/>
       <use xlink:href="#DejaVuSans-30" x="190.869141"/>
       <use xlink:href="#DejaVuSans-2d" x="254.492188"/>
       <use xlink:href="#DejaVuSans-30" x="290.576172"/>
       <use xlink:href="#DejaVuSans-31" x="354.199219"/>
      </g>
     </g>
    </g>
    <g id="xtick_4">
     <g id="line2d_4">
      <g>
       <use xlink:href="#ma0ae95fc39" x="271.410508" y="327.558125" style="stroke: #000000; stroke-width: 0.8"/>
      </g>
     </g>
     <g id="text_4">
      <!-- 2010-04 -->
      <g transform="translate(250.519101 342.156563) scale(0.1 -0.1)">
       <defs>
        <path id="DejaVuSans-34" d="M 2419 4116 
L 825 1625 
L 2419 1625 
L 2419 4116 
z
M 2253 4666 
L 3047 4666 
L 3047 1625 
L 3713 1625 
L 3713 1100 
L 3047 1100 
L 3047 0 
L 2419 0 
L 2419 1100 
L 313 1100 
L 313 1709 
L 2253 4666 
z
" transform="scale(0.015625)"/>
       </defs>
       <use xlink:href="#DejaVuSans-32"/>
       <use xlink:href="#DejaVuSans-30" x="63.623047"/>
       <use xlink:href="#DejaVuSans-31" x="127.246094"/>
       <use xlink:href="#DejaVuSans-30" x="190.869141"/>
       <use xlink:href="#DejaVuSans-2d" x="254.492188"/>
       <use xlink:href="#DejaVuSans-30" x="290.576172"/>
       <use xlink:href="#DejaVuSans-34" x="354.199219"/>
      </g>
     </g>
    </g>
    <g id="xtick_5">
     <g id="line2d_5">
      <g>
       <use xlink:href="#ma0ae95fc39" x="338.520221" y="327.558125" style="stroke: #000000; stroke-width: 0.8"/>
      </g>
     </g>
     <g id="text_5">
      <!-- 2010-07 -->
      <g transform="translate(317.628815 342.156563) scale(0.1 -0.1)">
       <use xlink:href="#DejaVuSans-32"/>
       <use xlink:href="#DejaVuSans-30" x="63.623047"/>
       <use xlink:href="#DejaVuSans-31" x="127.246094"/>
       <use xlink:href="#DejaVuSans-30" x="190.869141"/>
       <use xlink:href="#DejaVuSans-2d" x="254.492188"/>
       <use xlink:href="#DejaVuSans-30" x="290.576172"/>
       <use xlink:href="#DejaVuSans-37" x="354.199219"/>
      </g>
     </g>
    </g>
    <g id="xtick_6">
     <g id="line2d_6">
      <g>
       <use xlink:href="#ma0ae95fc39" x="406.367404" y="327.558125" style="stroke: #000000; stroke-width: 0.8"/>
      </g>
     </g>
     <g id="text_6">
      <!-- 2010-10 -->
      <g transform="translate(385.475998 342.156563) scale(0.1 -0.1)">
       <use xlink:href="#DejaVuSans-32"/>
       <use xlink:href="#DejaVuSans-30" x="63.623047"/>
       <use xlink:href="#DejaVuSans-31" x="127.246094"/>
       <use xlink:href="#DejaVuSans-30" x="190.869141"/>
       <use xlink:href="#DejaVuSans-2d" x="254.492188"/>
       <use xlink:href="#DejaVuSans-31" x="290.576172"/>
       <use xlink:href="#DejaVuSans-30" x="354.199219"/>
      </g>
     </g>
    </g>
    <g id="xtick_7">
     <g id="line2d_7">
      <g>
       <use xlink:href="#ma0ae95fc39" x="474.214588" y="327.558125" style="stroke: #000000; stroke-width: 0.8"/>
      </g>
     </g>
     <g id="text_7">
      <!-- 2011-01 -->
      <g transform="translate(453.323181 342.156563) scale(0.1 -0.1)">
       <use xlink:href="#DejaVuSans-32"/>
       <use xlink:href="#DejaVuSans-30" x="63.623047"/>
       <use xlink:href="#DejaVuSans-31" x="127.246094"/>
       <use xlink:href="#DejaVuSans-31" x="190.869141"/>
       <use xlink:href="#DejaVuSans-2d" x="254.492188"/>
       <use xlink:href="#DejaVuSans-30" x="290.576172"/>
       <use xlink:href="#DejaVuSans-31" x="354.199219"/>
      </g>
     </g>
    </g>
    <g id="xtick_8">
     <g id="line2d_8">
      <g>
       <use xlink:href="#ma0ae95fc39" x="540.586832" y="327.558125" style="stroke: #000000; stroke-width: 0.8"/>
      </g>
     </g>
     <g id="text_8">
      <!-- 2011-04 -->
      <g transform="translate(519.695426 342.156563) scale(0.1 -0.1)">
       <use xlink:href="#DejaVuSans-32"/>
       <use xlink:href="#DejaVuSans-30" x="63.623047"/>
       <use xlink:href="#DejaVuSans-31" x="127.246094"/>
       <use xlink:href="#DejaVuSans-31" x="190.869141"/>
       <use xlink:href="#DejaVuSans-2d" x="254.492188"/>
       <use xlink:href="#DejaVuSans-30" x="290.576172"/>
       <use xlink:href="#DejaVuSans-34" x="354.199219"/>
      </g>
     </g>
    </g>
    <g id="xtick_9">
     <g id="line2d_9">
      <g>
       <use xlink:href="#ma0ae95fc39" x="607.696545" y="327.558125" style="stroke: #000000; stroke-width: 0.8"/>
      </g>
     </g>
     <g id="text_9">
      <!-- 2011-07 -->
      <g transform="translate(586.805139 342.156563) scale(0.1 -0.1)">
       <use xlink:href="#DejaVuSans-32"/>
       <use xlink:href="#DejaVuSans-30" x="63.623047"/>
       <use xlink:href="#DejaVuSans-31" x="127.246094"/>
       <use xlink:href="#DejaVuSans-31" x="190.869141"/>
       <use xlink:href="#DejaVuSans-2d" x="254.492188"/>
       <use xlink:href="#DejaVuSans-30" x="290.576172"/>
       <use xlink:href="#DejaVuSans-37" x="354.199219"/>
      </g>
     </g>
    </g>
    <g id="xtick_10">
     <g id="line2d_10">
      <g>
       <use xlink:href="#ma0ae95fc39" x="675.543729" y="327.558125" style="stroke: #000000; stroke-width: 0.8"/>
      </g>
     </g>
     <g id="text_10">
      <!-- 2011-10 -->
      <g transform="translate(654.652322 342.156563) scale(0.1 -0.1)">
       <use xlink:href="#DejaVuSans-32"/>
       <use xlink:href="#DejaVuSans-30" x="63.623047"/>
       <use xlink:href="#DejaVuSans-31" x="127.246094"/>
       <use xlink:href="#DejaVuSans-31" x="190.869141"/>
       <use xlink:href="#DejaVuSans-2d" x="254.492188"/>
       <use xlink:href="#DejaVuSans-31" x="290.576172"/>
       <use xlink:href="#DejaVuSans-30" x="354.199219"/>
      </g>
     </g>
    </g>
   </g>
   <g id="matplotlib.axis_2">
    <g id="ytick_1">
     <g id="line2d_11">
      <defs>
       <path id="m9852480031" d="M 0 0 
L -3.5 0 
" style="stroke: #000000; stroke-width: 0.8"/>
      </defs>
      <g>
       <use xlink:href="#m9852480031" x="39.65" y="313.623423" style="stroke: #000000; stroke-width: 0.8"/>
      </g>
     </g>
     <g id="text_11">
      <!-- 0 -->
      <g transform="translate(26.2875 317.422642) scale(0.1 -0.1)">
       <use xlink:href="#DejaVuSans-30"/>
      </g>
     </g>
    </g>
    <g id="ytick_2">
     <g id="line2d_12">
      <g>
       <use xlink:href="#m9852480031" x="39.65" y="256.285773" style="stroke: #000000; stroke-width: 0.8"/>
      </g>
     </g>
     <g id="text_12">
      <!-- 1000 -->
      <g transform="translate(7.2 260.084991) scale(0.1 -0.1)">
       <use xlink:href="#DejaVuSans-31"/>
       <use xlink:href="#DejaVuSans-30" x="63.623047"/>
       <use xlink:href="#DejaVuSans-30" x="127.246094"/>
       <use xlink:href="#DejaVuSans-30" x="190.869141"/>
      </g>
     </g>
    </g>
    <g id="ytick_3">
     <g id="line2d_13">
      <g>
       <use xlink:href="#m9852480031" x="39.65" y="198.948123" style="stroke: #000000; stroke-width: 0.8"/>
      </g>
     </g>
     <g id="text_13">
      <!-- 2000 -->
      <g transform="translate(7.2 202.747341) scale(0.1 -0.1)">
       <use xlink:href="#DejaVuSans-32"/>
       <use xlink:href="#DejaVuSans-30" x="63.623047"/>
       <use xlink:href="#DejaVuSans-30" x="127.246094"/>
       <use xlink:href="#DejaVuSans-30" x="190.869141"/>
      </g>
     </g>
    </g>
    <g id="ytick_4">
     <g id="line2d_14">
      <g>
       <use xlink:href="#m9852480031" x="39.65" y="141.610473" style="stroke: #000000; stroke-width: 0.8"/>
      </g>
     </g>
     <g id="text_14">
      <!-- 3000 -->
      <g transform="translate(7.2 145.409691) scale(0.1 -0.1)">
       <defs>
        <path id="DejaVuSans-33" d="M 2597 2516 
Q 3050 2419 3304 2112 
Q 3559 1806 3559 1356 
Q 3559 666 3084 287 
Q 2609 -91 1734 -91 
Q 1441 -91 1130 -33 
Q 819 25 488 141 
L 488 750 
Q 750 597 1062 519 
Q 1375 441 1716 441 
Q 2309 441 2620 675 
Q 2931 909 2931 1356 
Q 2931 1769 2642 2001 
Q 2353 2234 1838 2234 
L 1294 2234 
L 1294 2753 
L 1863 2753 
Q 2328 2753 2575 2939 
Q 2822 3125 2822 3475 
Q 2822 3834 2567 4026 
Q 2313 4219 1838 4219 
Q 1578 4219 1281 4162 
Q 984 4106 628 3988 
L 628 4550 
Q 988 4650 1302 4700 
Q 1616 4750 1894 4750 
Q 2613 4750 3031 4423 
Q 3450 4097 3450 3541 
Q 3450 3153 3228 2886 
Q 3006 2619 2597 2516 
z
" transform="scale(0.015625)"/>
       </defs>
       <use xlink:href="#DejaVuSans-33"/>
       <use xlink:href="#DejaVuSans-30" x="63.623047"/>
       <use xlink:href="#DejaVuSans-30" x="127.246094"/>
       <use xlink:href="#DejaVuSans-30" x="190.869141"/>
      </g>
     </g>
    </g>
    <g id="ytick_5">
     <g id="line2d_15">
      <g>
       <use xlink:href="#m9852480031" x="39.65" y="84.272822" style="stroke: #000000; stroke-width: 0.8"/>
      </g>
     </g>
     <g id="text_15">
      <!-- 4000 -->
      <g transform="translate(7.2 88.072041) scale(0.1 -0.1)">
       <use xlink:href="#DejaVuSans-34"/>
       <use xlink:href="#DejaVuSans-30" x="63.623047"/>
       <use xlink:href="#DejaVuSans-30" x="127.246094"/>
       <use xlink:href="#DejaVuSans-30" x="190.869141"/>
      </g>
     </g>
    </g>
    <g id="ytick_6">
     <g id="line2d_16">
      <g>
       <use xlink:href="#m9852480031" x="39.65" y="26.935172" style="stroke: #000000; stroke-width: 0.8"/>
      </g>
     </g>
     <g id="text_16">
      <!-- 5000 -->
      <g transform="translate(7.2 30.734391) scale(0.1 -0.1)">
       <defs>
        <path id="DejaVuSans-35" d="M 691 4666 
L 3169 4666 
L 3169 4134 
L 1269 4134 
L 1269 2991 
Q 1406 3038 1543 3061 
Q 1681 3084 1819 3084 
Q 2600 3084 3056 2656 
Q 3513 2228 3513 1497 
Q 3513 744 3044 326 
Q 2575 -91 1722 -91 
Q 1428 -91 1123 -41 
Q 819 9 494 109 
L 494 744 
Q 775 591 1075 516 
Q 1375 441 1709 441 
Q 2250 441 2565 725 
Q 2881 1009 2881 1497 
Q 2881 1984 2565 2268 
Q 2250 2553 1709 2553 
Q 1456 2553 1204 2497 
Q 953 2441 691 2322 
L 691 4666 
z
" transform="scale(0.015625)"/>
       </defs>
       <use xlink:href="#DejaVuSans-35"/>
       <use xlink:href="#DejaVuSans-30" x="63.623047"/>
       <use xlink:href="#DejaVuSans-30" x="127.246094"/>
       <use xlink:href="#DejaVuSans-30" x="190.869141"/>
      </g>
     </g>
    </g>
   </g>
   <g id="line2d_17">
    <path d="M 69.927727 312.667174 
L 69.958455 312.585468 
L 70.081367 312.944784 
L 70.112095 312.940006 
L 70.142823 312.813863 
L 70.204278 312.919938 
L 70.357918 313.150769 
L 70.603741 313.158032 
L 70.726652 313.109486 
L 70.75738 313.129698 
L 70.788108 306.469452 
L 70.849564 309.997151 
L 71.003203 313.076374 
L 71.126115 313.308878 
L 71.279754 313.246714 
L 71.34121 313.216564 
L 71.402666 313.363827 
L 71.464122 313.297124 
L 71.679217 313.312892 
L 71.863584 313.357997 
L 74.26036 313.352072 
L 74.321816 313.121623 
L 74.383271 313.226503 
L 74.536911 313.357615 
L 74.721278 313.336782 
L 74.813462 313.392209 
L 74.84419 313.369465 
L 75.120741 313.256318 
L 75.243652 313.381315 
L 75.27438 313.366741 
L 75.673843 313.309595 
L 75.827482 313.239499 
L 76.349856 313.375485 
L 76.411312 313.316045 
L 76.472768 313.363827 
L 76.780047 313.389485 
L 76.933686 313.403485 
L 77.333149 313.351977 
L 77.6097 313.406209 
L 78.869544 313.258325 
L 78.992455 313.465696 
L 79.330462 313.422263 
L 79.422646 313.220244 
L 79.453373 313.438222 
L 79.545557 313.419157 
L 79.822108 313.438222 
L 80.006475 313.432775 
L 80.129387 313.411656 
L 80.37521 313.36655 
L 80.743945 313.438222 
L 80.989768 313.363827 
L 81.143407 313.394932 
L 81.266319 313.398038 
L 81.419958 313.475731 
L 81.850149 313.432966 
L 82.065244 313.44085 
L 82.495435 313.422454 
L 82.618346 313.402912 
L 82.771986 313.492311 
L 83.017809 313.205909 
L 83.079265 313.272325 
L 83.109992 313.298414 
L 83.232904 312.849221 
L 83.355816 313.363444 
L 83.417271 313.319199 
L 83.447999 313.419826 
L 83.693822 313.438127 
L 83.755278 312.830109 
L 83.816734 313.283267 
L 84.093285 312.627993 
L 84.246924 313.315281 
L 84.339108 313.233049 
L 84.400564 313.042736 
L 84.431292 313.121527 
L 84.584931 313.422263 
L 84.707843 313.341847 
L 84.830754 313.393403 
L 85.076577 313.450311 
L 85.537496 313.414379 
L 85.998414 313.458099 
L 86.090598 313.342182 
L 86.121326 313.389198 
L 86.152054 311.681922 
L 86.213509 312.70301 
L 86.274965 313.068538 
L 86.397877 249.259378 
L 86.428605 289.424402 
L 86.582244 312.41011 
L 86.797339 313.110585 
L 87.104618 313.342851 
L 87.135346 313.178865 
L 87.196802 313.403007 
L 87.319714 313.385042 
L 87.534809 313.392018 
L 87.596265 313.279397 
L 87.688448 313.402721 
L 87.780632 313.396413 
L 87.842088 312.81004 
L 87.934271 312.146357 
L 87.964999 312.539598 
L 88.180094 313.305724 
L 88.456645 313.268694 
L 88.579557 313.438222 
L 88.82538 313.411656 
L 88.856108 313.300182 
L 88.886836 313.435594 
L 88.948292 313.383082 
L 89.317026 313.254312 
L 89.347754 313.152346 
L 89.378482 313.253356 
L 89.532122 313.438222 
L 89.777945 313.331096 
L 89.931584 313.391826 
L 90.085224 313.432775 
L 90.177407 313.163336 
L 90.208135 313.240121 
L 90.392503 313.332721 
L 90.42323 313.112831 
L 90.515414 313.20524 
L 90.546142 313.219001 
L 90.57687 313.102319 
L 90.607598 313.284366 
L 90.669054 313.348489 
L 90.699782 312.245265 
L 90.761237 313.045603 
L 90.791965 313.037958 
L 90.945605 313.316045 
L 91.099244 313.285083 
L 91.222156 313.381315 
L 91.498707 313.312462 
L 91.59089 313.448543 
L 91.621618 313.41371 
L 91.805986 313.395315 
L 91.928897 313.395315 
L 92.051809 313.287759 
L 92.143992 311.270525 
L 92.205448 312.148268 
L 92.359088 313.122626 
L 92.481999 313.269984 
L 92.604911 313.201465 
L 92.666367 313.321158 
L 92.697094 313.196878 
L 92.75855 313.153493 
L 92.789278 313.320967 
L 92.850734 313.308735 
L 92.942918 313.095152 
L 92.973645 313.182544 
L 93.035101 313.34696 
L 93.096557 313.266496 
L 93.127285 313.125589 
L 93.158013 311.597062 
L 93.188741 271.100245 
L 93.250196 305.583107 
L 93.373108 312.079463 
L 93.434564 301.245514 
L 93.49602 309.656948 
L 93.649659 312.846832 
L 93.895482 313.248148 
L 93.92621 313.268312 
L 93.956938 313.151677 
L 94.018394 313.202994 
L 94.172033 313.349158 
L 94.233489 312.980142 
L 94.294945 313.0112 
L 94.387128 313.330953 
L 94.417856 312.956586 
L 94.51004 313.00021 
L 94.786591 313.351786 
L 94.817319 313.267022 
L 94.878775 313.3784 
L 95.063142 313.1835 
L 95.124598 313.047848 
L 95.216781 313.392018 
L 95.308965 313.421594 
L 95.339693 313.389198 
L 95.493332 313.351786 
L 95.585516 313.381123 
L 95.6777 313.231902 
L 95.708428 313.286946 
L 96.046435 313.439178 
L 96.353713 313.02262 
L 96.507353 313.345956 
L 96.84536 313.435594 
L 96.968271 313.264107 
L 97.060455 313.129602 
L 97.152639 313.397465 
L 97.183366 313.354891 
L 97.306278 313.374912 
L 97.521373 313.428953 
L 97.613557 313.381601 
L 97.675013 313.006422 
L 97.736469 313.053248 
L 97.767196 313.139971 
L 97.797924 313.082394 
L 97.828652 312.97632 
L 97.890108 313.07236 
L 97.951564 313.342421 
L 98.074475 313.217711 
L 98.135931 313.097493 
L 98.166659 312.972975 
L 98.197387 313.168879 
L 98.289571 313.129698 
L 98.351026 312.824375 
L 98.412482 312.929207 
L 98.473938 313.369656 
L 98.535394 313.209779 
L 98.566122 313.132326 
L 98.596849 313.345813 
L 98.627577 313.274475 
L 98.811945 313.267595 
L 98.996312 313.090613 
L 99.119224 313.380741 
L 99.45723 313.113643 
L 99.580142 312.886013 
L 99.61087 313.251636 
L 99.641598 307.553038 
L 99.703054 311.658031 
L 99.856693 313.102176 
L 99.887421 312.932839 
L 99.918149 313.210179 
L 100.04106 313.403485 
L 100.286883 313.308257 
L 100.440523 313.470857 
L 100.471251 313.473819 
L 100.594162 313.157507 
L 100.62489 313.261288 
L 100.77853 313.102319 
L 100.901441 313.23109 
L 100.993625 313.059937 
L 101.147264 313.349205 
L 101.270176 313.435499 
L 101.300904 313.383391 
L 101.485271 313.29698 
L 101.608183 313.136531 
L 101.669639 313.282025 
L 101.700366 313.340748 
L 101.731094 313.318769 
L 101.79255 312.384308 
L 101.854006 312.925671 
L 101.915462 313.394168 
L 101.976917 313.368509 
L 102.222741 313.475157 
L 102.284196 313.357997 
L 102.345652 313.408646 
L 102.468564 313.424413 
L 102.868026 313.453608 
L 102.990938 313.480604 
L 103.052394 313.451362 
L 103.083122 313.196701 
L 103.144577 313.434161 
L 103.206033 313.460823 
L 103.236761 313.340815 
L 103.298217 313.487055 
L 103.513312 313.480509 
L 103.912775 313.432584 
L 104.066414 313.470857 
L 104.220053 313.492311 
L 104.281509 312.88219 
L 104.342965 313.017889 
L 104.435149 313.223397 
L 104.465877 313.076183 
L 104.527332 312.988282 
L 104.650244 313.419635 
L 104.773156 313.465792 
L 105.418441 313.375294 
L 105.572081 313.477881 
L 105.633536 313.357257 
L 105.694992 313.438127 
L 105.940815 313.397656 
L 106.002271 312.774682 
L 106.032999 313.1781 
L 106.340278 313.470857 
L 106.862652 313.44085 
L 107.108475 313.480318 
L 107.32357 313.482946 
L 107.446482 313.46842 
L 107.47721 313.453799 
L 107.507938 313.148906 
L 107.538666 270.484343 
L 107.600121 305.134918 
L 107.753761 312.148268 
L 107.9074 313.214032 
L 107.938128 310.551415 
L 107.999584 311.971477 
L 108.122496 312.54342 
L 108.153224 312.545809 
L 108.245407 313.045125 
L 108.276135 282.093783 
L 108.368319 297.193654 
L 108.64487 312.852566 
L 108.675598 312.811474 
L 108.829237 313.287663 
L 108.921421 313.274475 
L 108.982877 313.134285 
L 109.07506 313.397656 
L 109.320883 313.482946 
L 109.443795 313.429192 
L 109.566707 313.535075 
L 109.628162 313.337977 
L 109.689618 313.44257 
L 110.089081 313.517348 
L 110.427087 313.436502 
L 110.549999 313.466795 
L 110.611455 313.365499 
L 110.642183 313.430147 
L 110.734366 313.539184 
L 110.795822 313.513908 
L 110.949462 313.46713 
L 111.133829 313.471765 
L 111.25674 313.44515 
L 111.318196 313.310646 
L 111.348924 313.434256 
L 111.533292 313.480604 
L 111.656203 313.469519 
L 111.779115 313.434734 
L 111.902026 313.441997 
L 111.932754 313.3224 
L 112.024938 313.358762 
L 112.147849 313.485 
L 112.516584 313.514864 
L 112.57804 313.51515 
L 112.608768 312.926197 
L 112.639496 276.995511 
L 112.700951 305.679626 
L 112.854591 312.691543 
L 113.038958 313.287663 
L 113.223326 313.392878 
L 113.346237 313.388052 
L 113.376965 313.217759 
L 113.438421 313.282885 
L 113.499877 313.480604 
L 113.561332 313.404775 
L 113.653516 313.421308 
L 113.868611 313.496802 
L 114.145162 313.444386 
L 114.17589 313.458051 
L 114.206618 313.338407 
L 114.268074 313.461062 
L 114.636808 313.521887 
L 114.75972 313.46412 
L 114.882632 313.517491 
L 115.005543 313.504065 
L 115.251366 313.517205 
L 115.405006 313.481034 
L 115.527917 313.499335 
L 115.712285 313.519259 
L 116.203931 313.481417 
L 116.234659 313.286803 
L 116.296115 313.480222 
L 116.326842 313.43741 
L 116.388298 313.528481 
L 116.787761 313.510324 
L 116.818489 313.38386 
L 116.879945 313.494461 
L 117.156496 313.506072 
L 117.494502 313.517061 
L 117.893965 313.454516 
L 118.016876 313.489969 
L 118.078332 313.457956 
L 118.139788 313.513096 
L 118.324155 313.503587 
L 118.508523 313.491269 
L 118.69289 313.411178 
L 118.84653 313.494318 
L 119.061625 313.499335 
L 119.184536 313.405253 
L 119.215264 313.485 
L 119.491815 313.475731 
L 119.553271 284.35002 
L 119.614727 301.054389 
L 119.768366 312.68772 
L 119.952734 313.28451 
L 119.983462 313.275335 
L 120.044917 313.36956 
L 120.075645 313.266114 
L 120.137101 312.911815 
L 120.198557 313.144462 
L 120.29074 313.349158 
L 120.321468 313.266066 
L 120.352196 313.143841 
L 120.382924 313.318482 
L 120.413652 313.363827 
L 120.44438 313.326748 
L 120.536564 312.08663 
L 120.598019 312.524786 
L 120.628747 312.545809 
L 120.905298 313.383751 
L 121.02821 313.443096 
L 121.427672 313.464091 
L 121.489128 313.501676 
L 121.550584 313.377635 
L 121.765679 313.519689 
L 121.950047 313.514625 
L 122.134414 313.50373 
L 122.441693 313.534932 
L 122.533876 313.49169 
L 122.564604 313.519403 
L 122.718244 313.488249 
L 122.7797 311.365132 
L 122.871883 286.103596 
L 122.933339 303.390898 
L 123.086978 312.577345 
L 123.20989 313.129411 
L 123.240618 313.120189 
L 123.271346 313.083207 
L 123.394257 313.331383 
L 123.424985 313.294591 
L 123.486441 313.373956 
L 123.578625 313.389581 
L 123.609353 313.181158 
L 123.640081 313.442809 
L 123.670808 313.436311 
L 124.100999 313.510611 
L 124.131727 313.423649 
L 124.193183 313.469615 
L 124.316094 313.500911 
L 124.469734 313.327991 
L 124.500461 313.359287 
L 124.623373 313.545348 
L 124.777012 313.512522 
L 125.330115 313.496898 
L 125.360842 313.325011 
L 125.422298 313.486099 
L 125.514482 313.503874 
L 125.698849 313.519689 
L 125.852489 313.390059 
L 125.883217 313.29354 
L 125.913944 313.456939 
L 125.944672 313.373478 
L 126.221223 313.539041 
L 126.344135 309.40944 
L 126.374863 311.357964 
L 126.528502 313.155882 
L 126.71287 313.388912 
L 126.805053 313.444386 
L 126.835781 313.148763 
L 126.897237 313.475635 
L 127.112332 313.496993 
L 127.911257 313.458099 
L 128.064897 313.465983 
L 128.126353 313.315615 
L 128.187808 313.417485 
L 128.249264 313.37453 
L 128.341448 313.473294 
L 128.464359 313.440898 
L 128.679455 313.475539 
L 129.109645 313.515294 
L 129.509108 313.492311 
L 129.662747 313.429956 
L 129.816387 313.528481 
L 130.123665 313.505546 
L 130.277305 313.489523 
L 131.045502 313.457908 
L 131.07623 313.377349 
L 131.137686 313.489969 
L 131.352781 313.387144 
L 131.905883 313.403485 
L 131.998067 313.226885 
L 132.120978 313.487341 
L 132.182434 313.368127 
L 132.213162 313.211356 
L 132.274618 313.453226 
L 132.489713 313.431246 
L 132.612625 313.383082 
L 132.67408 313.478167 
L 132.704808 313.404775 
L 132.766264 313.227411 
L 132.796992 313.333055 
L 132.858448 313.480222 
L 132.919904 313.389103 
L 133.196455 313.375294 
L 134.056836 313.448734 
L 134.149019 312.723078 
L 134.179747 311.933252 
L 134.333387 274.120028 
L 134.394842 285.716567 
L 134.57921 311.222265 
L 134.763577 312.914682 
L 134.825033 313.083828 
L 134.886489 311.672844 
L 134.947944 312.212295 
L 135.255223 313.328086 
L 135.501046 313.389103 
L 135.623958 313.430338 
L 135.900509 313.451362 
L 137.098897 313.404106 
L 137.221808 313.11823 
L 137.252536 313.199889 
L 137.436904 313.398038 
L 137.498359 313.369656 
L 137.559815 313.419826 
L 137.897822 313.451362 
L 138.051461 313.451362 
L 140.571148 313.406209 
L 140.632604 313.299991 
L 140.663332 313.411656 
L 140.878427 313.427519 
L 140.909155 313.355083 
L 140.970611 313.458673 
L 141.431529 313.432966 
L 141.70808 313.451362 
L 143.981944 313.386379 
L 144.166312 313.083828 
L 144.381407 313.387144 
L 144.780869 313.478167 
L 144.995965 313.44085 
L 145.364699 313.453799 
L 146.009985 313.395315 
L 146.409448 313.398038 
L 146.870366 313.451362 
L 147.515652 313.36053 
L 147.638563 313.192913 
L 147.669291 313.265015 
L 147.853659 313.257656 
L 148.038026 309.34828 
L 148.068754 309.646436 
L 148.099482 309.488279 
L 148.191665 306.907607 
L 148.222393 308.453335 
L 148.406761 311.962877 
L 148.468216 312.187449 
L 148.498944 312.069429 
L 148.652584 310.550937 
L 148.683312 310.118038 
L 148.714039 310.244181 
L 148.836951 311.529977 
L 148.867679 311.501309 
L 148.959863 312.249565 
L 149.174958 304.193625 
L 149.297869 291.416885 
L 149.328597 295.473524 
L 149.482237 303.061206 
L 149.635876 307.891904 
L 149.789516 303.601136 
L 149.881699 304.083728 
L 149.912427 303.605914 
L 149.943155 304.270075 
L 150.004611 298.584092 
L 150.035339 302.874859 
L 150.188978 311.812843 
L 150.373346 312.719256 
L 150.496257 312.887924 
L 150.74208 313.125875 
L 150.89572 313.16692 
L 151.141543 313.360912 
L 151.233727 313.265779 
L 151.264454 313.303001 
L 151.510278 313.383847 
L 151.694645 313.31724 
L 151.786829 313.29053 
L 151.90974 313.387144 
L 153.200312 313.380359 
L 153.231039 313.270987 
L 153.292495 313.2901 
L 153.476863 313.443191 
L 153.845597 313.424796 
L 154.183604 313.360243 
L 154.214332 313.339554 
L 154.24506 313.419826 
L 154.490883 313.448734 
L 154.705978 313.315472 
L 154.767434 270.976013 
L 154.82889 296.070791 
L 154.982529 312.191749 
L 155.166897 313.064715 
L 155.41272 313.325076 
L 155.627815 313.387144 
L 156.488196 313.451362 
L 156.58038 307.630539 
L 156.672563 268.271587 
L 156.703291 279.992359 
L 156.856931 310.813735 
L 157.041298 312.279189 
L 157.072026 311.955232 
L 157.133482 310.878239 
L 157.317849 257.888695 
L 157.379305 281.34935 
L 157.563672 310.525613 
L 157.778767 312.506151 
L 157.963135 312.959118 
L 158.485509 313.258421 
L 158.884971 313.384229 
L 158.977155 313.357711 
L 159.007883 313.387144 
L 159.806808 313.419826 
L 159.960448 313.419826 
L 160.052631 313.414379 
L 160.144815 312.734546 
L 160.175543 312.860689 
L 160.267726 313.089896 
L 160.421366 300.891932 
L 160.482822 304.767002 
L 160.728645 311.838167 
L 160.913012 312.972019 
L 161.189563 313.241936 
L 161.558298 313.352168 
L 167.734604 313.259902 
L 167.980427 311.058853 
L 168.195522 304.661883 
L 168.22625 304.939015 
L 168.287706 306.171774 
L 168.318434 305.813414 
L 168.37989 305.235259 
L 168.441345 308.717088 
L 168.502801 307.590881 
L 168.564257 304.432532 
L 168.625713 305.89942 
L 168.687169 306.100102 
L 168.994447 312.043149 
L 169.055903 312.003013 
L 169.301726 312.959118 
L 169.363182 313.010722 
L 169.39391 312.705877 
L 169.486094 295.956116 
L 169.516822 303.711033 
L 169.670461 312.003013 
L 169.885556 312.87359 
L 170.100652 312.967719 
L 170.223563 313.064715 
L 170.776665 313.278202 
L 172.190148 313.387144 
L 172.651066 313.398038 
L 172.989073 313.395315 
L 173.726543 313.414379 
L 174.033822 313.324646 
L 174.095277 312.829153 
L 174.126005 312.941439 
L 174.156733 304.392396 
L 174.187461 247.993172 
L 174.248917 298.426413 
L 174.402556 311.989156 
L 174.617651 313.015023 
L 174.92493 313.261718 
L 175.262937 313.319055 
L 175.723856 313.381315 
L 176.584236 313.406209 
L 176.799332 313.366311 
L 176.983699 310.027731 
L 177.014427 310.684725 
L 177.075883 311.226566 
L 177.106611 310.646022 
L 177.198794 295.014823 
L 177.26025 302.296704 
L 177.444617 311.263835 
L 177.628985 312.666696 
L 177.874808 313.045603 
L 177.966992 313.08765 
L 178.028447 312.61127 
L 178.243543 310.735851 
L 178.581549 313.037958 
L 179.319019 313.245042 
L 179.349747 312.140002 
L 179.380475 306.608974 
L 179.44193 310.061178 
L 179.59557 312.728812 
L 179.810665 313.144988 
L 179.995032 313.238639 
L 181.316332 313.322066 
L 181.469971 313.319055 
L 181.900162 313.339984 
L 182.176713 310.646022 
L 182.207441 311.370865 
L 182.391808 313.064715 
L 182.576175 313.309738 
L 183.436556 313.387144 
L 183.498012 312.617482 
L 183.620924 310.233669 
L 183.743835 296.524714 
L 183.774563 302.473496 
L 183.805291 305.526725 
L 183.897475 304.016834 
L 184.081842 311.853935 
L 184.389121 312.959118 
L 184.727128 313.106763 
L 184.880767 313.125875 
L 185.464597 313.196783 
L 185.526053 313.071405 
L 185.587509 309.251284 
L 185.648964 302.664621 
L 185.71042 305.402494 
L 185.771876 305.25915 
L 185.833332 304.532873 
L 186.140611 312.075163 
L 186.324978 312.708744 
L 186.417162 312.735024 
L 186.447889 312.66144 
L 186.662985 312.697754 
L 186.816624 312.97632 
L 186.847352 312.900825 
L 186.87808 313.015023 
L 186.908808 313.015023 
L 187.062447 313.060893 
L 187.154631 313.015023 
L 187.369726 312.865945 
L 187.738461 313.095295 
L 188.107196 313.025534 
L 188.168651 308.420366 
L 188.322291 270.273627 
L 188.383747 225.645823 
L 188.414474 249.082587 
L 188.598842 307.743781 
L 188.783209 311.273391 
L 189.05976 312.321237 
L 189.305583 312.635161 
L 189.428495 312.68772 
L 189.64359 312.883146 
L 189.950869 313.018845 
L 190.350332 313.05707 
L 190.596155 313.129698 
L 190.872706 313.156312 
L 191.118529 313.16367 
L 191.425808 313.144988 
L 191.456536 313.052292 
L 191.517991 309.605344 
L 191.579447 299.659173 
L 191.640903 302.841412 
L 191.82527 312.003013 
L 192.040366 312.810996 
L 193.269481 313.141165 
L 193.423121 313.151773 
L 193.515304 313.16735 
L 193.546032 313.141165 
L 193.761127 313.170455 
L 195.666257 313.091473 
L 195.696985 312.950518 
L 195.75844 313.049425 
L 195.881352 313.045603 
L 195.973536 312.975364 
L 196.004264 313.125875 
L 196.096447 313.05707 
L 196.250087 312.879323 
L 196.741733 312.556321 
L 196.833917 312.274411 
L 196.864644 312.286834 
L 197.202651 312.802873 
L 197.417747 312.878368 
L 197.50993 312.479871 
L 197.602114 312.105265 
L 197.66357 312.199872 
L 197.940121 312.774204 
L 198.063032 312.855911 
L 198.155216 312.828675 
L 198.339583 312.2682 
L 198.431767 312.367107 
L 198.646862 312.778983 
L 198.892685 312.946217 
L 199.107781 312.469837 
L 199.292148 312.850177 
L 199.353604 312.937617 
L 199.415059 312.892224 
L 199.476515 312.997343 
L 199.722338 312.954818 
L 199.84525 312.778983 
L 200.398352 312.997821 
L 200.490536 312.855911 
L 200.551991 312.08663 
L 200.582719 306.916686 
L 200.644175 261.099603 
L 200.705631 271.764406 
L 200.767087 270.273627 
L 200.797815 273.52276 
L 200.828542 273.064059 
L 200.920726 246.860753 
L 200.982182 264.272286 
L 201.01291 264.267508 
L 201.074366 274.879751 
L 201.258733 303.902159 
L 201.473828 309.836128 
L 201.719651 311.558646 
L 202.487849 312.714 
L 203.133134 312.920415 
L 203.348229 313.006422 
L 203.471141 313.022668 
L 204.577345 313.001644 
L 204.700257 307.819276 
L 204.761712 310.10227 
L 204.94608 312.315025 
L 205.007536 312.524786 
L 205.038263 312.245742 
L 205.130447 307.399755 
L 205.191903 310.000018 
L 205.37627 312.509018 
L 205.591365 312.859255 
L 205.837189 312.907037 
L 206.052284 313.04178 
L 206.083012 312.990654 
L 206.144468 313.060893 
L 206.513202 313.129698 
L 206.666842 313.148094 
L 206.69757 313.241028 
L 206.759025 313.080005 
L 206.974121 313.170885 
L 207.035576 312.911815 
L 207.097032 312.959118 
L 207.281399 313.185745 
L 207.527223 313.163384 
L 208.510515 313.214223 
L 208.633427 313.196783 
L 209.708903 313.231663 
L 209.739631 312.999255 
L 209.801087 313.192387 
L 209.985454 313.235151 
L 211.952039 313.325076 
L 212.105678 313.337117 
L 212.22859 313.11823 
L 212.290046 313.217711 
L 212.65878 313.352168 
L 212.843148 313.28451 
L 212.935331 313.070927 
L 212.996787 313.158558 
L 213.119699 313.261718 
L 213.150427 313.247383 
L 213.795712 313.287663 
L 214.072263 313.316045 
L 215.178467 313.297124 
L 215.424291 313.312892 
L 215.793025 313.312605 
L 216.00812 313.306584 
L 216.16176 313.303431 
L 216.438311 313.316045 
L 216.622678 313.321636 
L 216.899229 313.287185 
L 217.022141 313.303431 
L 217.237236 313.226694 
L 217.298692 309.460566 
L 217.360148 287.183456 
L 217.421603 300.676916 
L 217.575243 311.296326 
L 217.882522 312.828675 
L 218.066889 313.022668 
L 218.189801 313.080005 
L 218.312712 313.106763 
L 218.49708 313.16367 
L 218.712175 313.221199 
L 218.92727 313.231663 
L 219.111637 313.224687 
L 219.388188 313.234005 
L 219.603284 313.169643 
L 219.787651 313.268312 
L 220.586576 313.210353 
L 220.770944 311.820966 
L 220.832399 311.962877 
L 220.893855 312.518574 
L 220.955311 312.199872 
L 221.139678 312.361373 
L 221.170406 312.35564 
L 221.354773 313.080005 
L 221.723508 313.228175 
L 221.969331 313.271465 
L 222.338066 313.281356 
L 222.798984 313.231281 
L 222.952624 310.122816 
L 223.01408 300.4619 
L 223.075535 303.997721 
L 223.382814 312.489905 
L 223.44427 312.717345 
L 223.474998 312.439735 
L 223.505726 312.529086 
L 223.536454 312.048883 
L 223.59791 312.45837 
L 223.782277 313.034135 
L 225.134304 313.278202 
L 225.380127 313.240598 
L 225.564495 313.281356 
L 226.36342 313.296646 
L 226.609243 313.303431 
L 226.885794 313.303431 
L 227.715447 313.034135 
L 227.869086 312.820075 
L 227.899814 312.850177 
L 228.207093 313.278202 
L 228.391461 313.268312 
L 228.637284 312.916115 
L 228.668012 312.967719 
L 228.883107 313.238639 
L 229.067474 313.278202 
L 229.313297 313.193104 
L 229.405481 312.975364 
L 229.528392 312.764648 
L 229.620576 312.603625 
L 229.682032 312.44738 
L 229.743488 312.530042 
L 229.835671 312.481305 
L 229.897127 312.1239 
L 230.020039 311.430114 
L 230.050767 311.583015 
L 230.29659 312.941917 
L 230.542413 313.182066 
L 230.603869 313.16367 
L 230.634597 313.039869 
L 230.72678 313.095295 
L 231.341338 313.226407 
L 231.402794 312.647106 
L 231.494977 311.722059 
L 231.525705 311.764584 
L 231.771529 312.98492 
L 231.986624 312.854477 
L 232.170991 312.788539 
L 232.263175 312.735024 
L 232.386086 312.745536 
L 232.662637 312.854477 
L 232.816277 312.811474 
L 232.969916 312.286834 
L 233.092828 312.44738 
L 233.369379 312.911815 
L 233.553746 312.98062 
L 233.64593 312.593113 
L 233.768841 312.418711 
L 234.045392 312.920415 
L 234.22976 313.034135 
L 234.567767 312.755092 
L 234.721406 312.783761 
L 234.936501 312.666696 
L 235.366692 312.959118 
L 235.735426 312.963419 
L 235.82761 312.455503 
L 235.950522 311.559124 
L 235.98125 311.626974 
L 236.380712 312.887924 
L 236.503624 312.875023 
L 236.565079 312.46697 
L 236.687991 311.786086 
L 236.718719 311.814754 
L 237.025998 312.74028 
L 237.241093 312.883146 
L 237.333277 312.845876 
L 237.486916 312.750314 
L 237.886379 313.060893 
L 238.00929 312.945262 
L 238.16293 312.206084 
L 238.224386 312.063218 
L 238.255113 312.119122 
L 238.500937 312.854477 
L 238.685304 312.967719 
L 238.808216 312.946217 
L 238.869671 312.818641 
L 238.992583 312.487516 
L 239.023311 312.503762 
L 239.453501 312.967719 
L 239.484229 312.959118 
L 239.637869 312.608881 
L 239.699324 312.598369 
L 239.730052 312.640417 
L 239.91442 312.959118 
L 240.190971 313.060893 
L 240.375338 312.989221 
L 240.528977 312.98062 
L 240.713345 313.022668 
L 240.92844 312.940961 
L 241.112807 309.641657 
L 241.204991 310.472098 
L 241.389358 311.976255 
L 241.420086 311.996324 
L 241.573726 312.286834 
L 241.635181 312.35564 
L 241.665909 312.280623 
L 241.758093 310.888274 
L 241.850277 308.858043 
L 241.881005 309.006165 
L 242.126828 311.772229 
L 242.372651 312.286834 
L 242.434107 311.982945 
L 242.495562 311.475984 
L 242.587746 310.482132 
L 242.618474 310.648411 
L 242.956481 312.23093 
L 243.079392 312.349906 
L 243.171576 311.953798 
L 243.325215 308.080162 
L 243.386671 308.97224 
L 243.632494 311.15346 
L 243.84759 311.69339 
L 244.062685 310.406637 
L 244.154869 302.650287 
L 244.247052 304.494648 
L 244.43142 309.907322 
L 244.554331 310.566705 
L 244.585059 310.538036 
L 244.677243 309.585275 
L 244.769426 306.085768 
L 244.86161 307.218186 
L 245.138161 311.070321 
L 245.322528 311.619806 
L 245.506896 310.138106 
L 245.599079 310.426228 
L 245.814175 311.559124 
L 245.906358 311.399534 
L 245.937086 311.321651 
L 245.967814 311.375644 
L 246.059998 311.779396 
L 246.121454 311.707246 
L 246.244365 311.054075 
L 246.275093 311.104245 
L 246.643828 312.274411 
L 246.981834 312.418711 
L 247.012562 312.319326 
L 247.074018 312.481782 
L 247.19693 312.535298 
L 247.381297 312.530042 
L 247.412025 312.483694 
L 247.473481 312.577345 
L 247.596392 312.372841 
L 247.750032 311.848201 
L 247.842215 312.015914 
L 248.088039 312.530042 
L 248.241678 312.608881 
L 248.303134 312.650928 
L 248.333862 312.624649 
L 248.487501 312.261988 
L 248.518229 312.029771 
L 248.579685 312.131545 
L 248.886964 312.635161 
L 249.040603 312.592635 
L 249.224971 311.757895 
L 249.286426 311.860147 
L 249.501522 312.551065 
L 249.870256 312.619393 
L 250.177535 311.596871 
L 250.208263 311.686223 
L 250.423358 312.35564 
L 250.638454 312.424445 
L 250.730637 312.326971 
L 250.853549 312.224719 
L 250.884277 312.326971 
L 251.222283 312.714 
L 251.283739 312.618915 
L 251.437379 312.470315 
L 251.71393 312.763693 
L 251.744658 312.715911 
L 251.775385 312.807174 
L 251.806113 312.811474 
L 251.990481 312.754614 
L 252.021209 312.49755 
L 252.113392 312.545332 
L 252.14412 312.46267 
L 252.174848 312.614137 
L 252.328488 312.750314 
L 252.451399 312.832976 
L 252.72795 312.911815 
L 252.758678 312.750314 
L 252.850862 312.810518 
L 252.912317 312.703488 
L 252.943045 312.768948 
L 253.127413 312.883146 
L 253.619059 312.791884 
L 253.649787 312.854477 
L 253.711243 312.802873 
L 253.74197 312.745058 
L 253.803426 312.837276 
L 254.141433 312.91946 
L 254.172161 312.67673 
L 254.264345 312.797617 
L 254.3258 312.878368 
L 254.387256 312.854477 
L 254.47944 312.800962 
L 254.510168 312.832976 
L 254.633079 312.916115 
L 254.725263 312.892702 
L 254.786719 312.705399 
L 254.817447 312.950518 
L 254.878902 312.940961 
L 254.90963 312.832498 
L 255.001814 312.900825 
L 255.339821 312.924716 
L 255.554916 312.98492 
L 255.831467 312.645673 
L 255.862195 312.778505 
L 256.015834 312.916115 
L 256.23093 312.957685 
L 256.323113 313.015023 
L 256.476753 312.841576 
L 256.507481 312.869289 
L 256.538209 312.782805 
L 256.568936 312.713044 
L 256.599664 312.739324 
L 256.753304 312.896047 
L 256.784032 312.967719 
L 256.81476 312.732635 
L 256.906943 294.565678 
L 256.968399 303.209329 
L 257.029855 309.171489 
L 257.091311 306.272115 
L 257.183494 304.475535 
L 257.275678 308.957906 
L 257.337134 307.502963 
L 257.398589 305.870751 
L 257.429317 306.902829 
L 257.552229 310.806567 
L 257.582957 310.28145 
L 257.675141 302.526055 
L 257.736596 298.220953 
L 257.798052 298.263956 
L 257.82878 273.140509 
L 257.890236 298.168394 
L 258.043875 306.945832 
L 258.320426 310.926499 
L 258.443338 303.266666 
L 258.535521 305.025021 
L 258.719889 310.026298 
L 258.934984 311.26718 
L 258.965712 311.275303 
L 259.180807 311.827655 
L 259.303719 308.311902 
L 259.365175 309.887254 
L 259.549542 311.777963 
L 259.58027 311.763151 
L 259.733909 311.962877 
L 260.1641 312.407243 
L 260.225555 312.292568 
L 260.256283 312.361373 
L 260.379195 312.503284 
L 260.409923 312.423967 
L 260.440651 312.384308 
L 260.563562 312.614137 
L 260.59429 312.521919 
L 260.655746 312.587857 
L 260.717202 312.577345 
L 260.74793 312.490861 
L 260.840113 312.556321 
L 260.901569 312.587857 
L 260.932297 312.406288 
L 261.024481 312.49325 
L 261.208848 312.619393 
L 261.946317 312.714 
L 262.130685 312.745536 
L 264.466004 312.802873 
L 264.52746 306.627131 
L 264.588916 301.680325 
L 264.619644 306.852181 
L 264.650372 303.510351 
L 264.804011 310.601107 
L 264.988379 312.321237 
L 265.203474 312.556321 
L 265.541481 312.650928 
L 265.818032 312.745536 
L 267.108603 312.677208 
L 267.170059 312.233797 
L 267.231515 309.967526 
L 267.29297 310.158174 
L 267.354426 310.564794 
L 267.44661 307.365831 
L 267.477338 309.177222 
L 267.661705 312.332705 
L 267.8768 312.682464 
L 268.337719 312.750314 
L 268.491358 312.854477 
L 268.675725 312.802873 
L 269.167372 312.802873 
L 269.1981 312.455503 
L 269.321011 272.720033 
L 269.351739 285.276979 
L 269.505378 308.421799 
L 269.566834 309.887254 
L 269.62829 308.856609 
L 269.659018 308.296612 
L 269.689746 309.158588 
L 269.843385 311.49223 
L 270.119936 312.143968 
L 270.611583 312.49325 
L 273.315637 312.854477 
L 273.407821 312.811474 
L 273.438549 312.854477 
L 277.279535 312.854477 
L 277.433174 288.354099 
L 277.463902 294.804585 
L 277.64827 311.618373 
L 277.832637 312.556321 
L 277.863365 312.509018 
L 277.894093 312.545809 
L 278.109188 312.854477 
L 278.477923 312.911815 
L 280.813242 312.85161 
L 280.99761 311.619329 
L 281.274161 312.837276 
L 281.550712 312.920415 
L 281.704351 312.98062 
L 281.919446 313.015023 
L 282.103814 312.97632 
L 282.380365 312.937617 
L 282.534004 313.05707 
L 282.749099 313.060893 
L 286.559358 312.95434 
L 286.620814 312.567789 
L 286.682269 310.282406 
L 286.743725 310.868205 
L 286.774453 311.492708 
L 286.805181 310.032509 
L 287.204644 312.989221 
L 287.389011 313.010722 
L 288.771766 313.106763 
L 289.140501 313.064715 
L 289.232684 313.076183 
L 289.386324 311.727792 
L 289.417052 312.007791 
L 289.785786 312.993521 
L 289.939426 313.060893 
L 306.19448 309.55804 
L 306.34812 312.773249 
L 306.409575 312.993521 
L 306.440303 312.984442 
L 306.501759 312.551065 
L 306.563215 312.74028 
L 306.593943 312.728812 
L 306.839766 313.238639 
L 307.915242 313.334107 
L 308.161065 313.352168 
L 309.69746 313.321253 
L 309.758916 312.882668 
L 309.820371 313.110585 
L 309.912555 313.006422 
L 309.974011 217.618552 
L 310.035467 288.17253 
L 310.096922 272.52413 
L 310.12765 287.19779 
L 310.28129 311.719669 
L 310.496385 312.924716 
L 310.557841 312.829153 
L 310.588569 312.954818 
L 310.772936 313.217711 
L 311.080215 313.309738 
L 311.203126 313.334107 
L 311.44895 313.355083 
L 312.247875 313.395315 
L 312.708793 313.387144 
L 312.89316 313.414379 
L 313.507718 313.451362 
L 313.599902 311.736871 
L 313.692086 312.32936 
L 313.876453 313.258278 
L 314.06082 313.387144 
L 314.183732 313.419826 
L 314.245188 214.656106 
L 314.306643 300.390228 
L 314.460283 311.954276 
L 314.64465 313.002122 
L 314.951929 313.271609 
L 316.918514 313.443383 
L 316.949242 312.810948 
L 316.97997 300.270774 
L 317.041426 310.509845 
L 317.195065 313.185554 
L 317.379432 313.387144 
L 318.055446 313.46842 
L 318.116902 312.892702 
L 318.14763 313.036237 
L 318.239813 313.451362 
L 318.270541 313.44085 
L 318.485637 313.463546 
L 318.516364 290.633988 
L 318.57782 305.359491 
L 318.73146 312.837754 
L 318.946555 313.366741 
L 319.31529 313.480604 
L 320.667317 313.418823 
L 320.698045 313.318386 
L 320.7595 313.44085 
L 320.820956 313.453226 
L 320.882412 313.366741 
L 320.91314 313.408932 
L 321.097507 313.496993 
L 321.527698 313.545348 
L 322.695358 313.573109 
L 322.848997 313.544775 
L 322.941181 313.112688 
L 323.002637 313.15206 
L 323.187004 313.485287 
L 323.279188 313.479362 
L 323.340643 313.354796 
L 323.402099 313.458673 
L 323.801562 313.555621 
L 323.83229 313.553566 
L 323.893745 313.355083 
L 323.955201 313.460918 
L 324.108841 313.57502 
L 324.26248 313.561641 
L 324.600487 313.593846 
L 324.999949 313.582665 
L 326.628528 313.521601 
L 326.689983 308.578044 
L 326.751439 290.494705 
L 326.782167 304.919902 
L 326.935807 312.962941 
L 327.120174 313.389867 
L 327.427453 313.55973 
L 327.61182 313.481464 
L 327.704004 313.419826 
L 327.734732 313.44085 
L 328.011283 313.461109 
L 328.441473 313.603163 
L 332.589738 313.64975 
L 332.620466 301.609131 
L 332.681922 309.058725 
L 332.835562 313.2901 
L 332.989201 313.53713 
L 333.050657 313.44085 
L 333.081385 313.508126 
L 333.235024 313.574972 
L 333.419392 313.646883 
L 334.587051 313.64975 
L 335.078698 313.668958 
L 336.21563 313.681286 
L 336.338541 313.624235 
L 336.369269 313.521887 
L 336.430725 313.576932 
L 336.676548 313.661218 
L 336.860915 313.676699 
L 336.891643 226.58573 
L 336.953099 299.726067 
L 337.106738 312.576867 
L 337.291106 313.287663 
L 337.567657 313.541239 
L 337.905664 313.605027 
L 389.958711 313.514768 
L 390.050894 313.241936 
L 390.081622 313.321397 
L 390.26599 313.535075 
L 392.570581 313.458434 
L 392.632037 307.949719 
L 392.693493 286.208716 
L 392.724221 296.840071 
L 392.87786 312.110999 
L 393.062228 313.258421 
L 393.308051 313.480604 
L 396.473024 313.403485 
L 396.534479 313.36655 
L 396.565207 313.419826 
L 397.333405 313.5087 
L 397.609956 313.535075 
L 398.777615 313.463164 
L 398.808343 313.395315 
L 398.869799 313.451362 
L 399.115622 313.5087 
L 403.018064 313.454611 
L 403.048792 313.192148 
L 403.110248 313.473294 
L 403.540438 313.465983 
L 403.724806 313.274905 
L 403.878445 311.40049 
L 403.909173 307.452793 
L 403.939901 258.309171 
L 404.001357 302.645509 
L 404.154996 312.400554 
L 404.339364 313.159991 
L 404.554459 313.316045 
L 405.691391 313.419826 
L 405.752847 304.585432 
L 405.814302 292.826436 
L 405.906486 222.731159 
L 405.937214 227.241721 
L 406.029398 273.608767 
L 406.060126 242.593876 
L 406.121581 277.034691 
L 406.305949 311.222265 
L 406.336677 311.59496 
L 406.490316 239.884672 
L 406.521044 273.054503 
L 406.674683 310.30343 
L 406.859051 312.540553 
L 407.043418 313.045603 
L 407.412153 313.316045 
L 408.18035 313.419826 
L 408.518357 313.404441 
L 408.549085 313.001166 
L 408.794908 299.10013 
L 408.825636 299.917192 
L 409.040731 309.392717 
L 409.255826 312.624649 
L 409.470921 313.07236 
L 409.716745 313.241936 
L 409.962568 313.319055 
L 410.208391 313.3784 
L 410.392758 313.389867 
L 410.669309 313.438222 
L 410.884404 313.36956 
L 411.068772 313.29397 
L 411.376051 313.438127 
L 411.437506 313.28451 
L 411.498962 313.312892 
L 411.68333 313.451362 
L 412.021336 313.443478 
L 412.144248 313.281356 
L 412.420799 313.480604 
L 413.096813 313.381315 
L 413.71137 313.387144 
L 416.292513 313.438222 
L 416.323241 313.084927 
L 416.476881 260.277763 
L 416.507608 286.404619 
L 416.661248 312.020214 
L 416.845615 313.076183 
L 417.06071 313.29698 
L 417.091438 313.254742 
L 417.152894 313.337117 
L 419.365302 313.451362 
L 419.39603 313.42986 
L 419.457486 313.255124 
L 419.518942 313.316045 
L 419.641853 313.316045 
L 419.826221 313.470857 
L 420.164227 313.424987 
L 420.225683 313.28451 
L 420.287139 313.381123 
L 420.410051 313.419826 
L 420.625146 313.316045 
L 420.901697 313.312892 
L 420.963153 312.98062 
L 421.024608 313.099118 
L 421.208976 313.349158 
L 421.393343 313.419826 
L 425.695248 313.446106 
L 425.787431 312.608881 
L 425.848887 295.191614 
L 425.941071 302.277592 
L 426.002527 309.623978 
L 426.033255 302.816566 
L 426.063983 212.553726 
L 426.125438 293.213465 
L 426.279078 311.335507 
L 426.432717 312.52813 
L 426.586357 312.918026 
L 426.862908 313.228175 
L 427.108731 313.195684 
L 427.293098 313.414379 
L 427.661833 313.303335 
L 427.692561 313.340031 
L 427.723289 313.243274 
L 427.754017 313.274332 
L 427.784744 313.244851 
L 427.8462 313.339315 
L 427.938384 313.397847 
L 427.969112 313.36655 
L 428.153479 313.354796 
L 428.245663 313.28451 
L 428.307119 313.16735 
L 428.368574 313.261718 
L 429.659146 313.357902 
L 429.782057 313.312892 
L 430.304431 313.372571 
L 430.703894 313.271609 
L 430.888261 313.381315 
L 431.502819 313.251827 
L 431.656459 312.209429 
L 431.93301 280.88587 
L 431.963738 291.641458 
L 432.148105 309.819882 
L 432.301744 312.236664 
L 432.332472 312.184104 
L 432.547567 312.937617 
L 432.670479 313.14881 
L 432.762663 312.952907 
L 432.793391 313.121336 
L 432.824118 313.091473 
L 432.885574 313.174708 
L 433.008486 313.24466 
L 433.039214 313.213984 
L 433.069942 313.183882 
L 433.131397 313.258421 
L 433.254309 313.306154 
L 433.315765 313.051814 
L 433.377221 313.16238 
L 433.438676 312.868812 
L 433.561588 313.312892 
L 433.715227 313.369656 
L 433.930323 313.419826 
L 434.176146 313.269888 
L 434.206874 313.163384 
L 434.299057 313.230708 
L 434.421969 313.238257 
L 434.667792 313.425082 
L 434.882887 313.379881 
L 434.913615 313.303001 
L 434.975071 313.400762 
L 435.190166 313.387144 
L 436.29637 313.400762 
L 436.327098 313.262435 
L 436.388554 313.403485 
L 436.603649 313.395315 
L 436.788016 313.419826 
L 440.352452 313.384229 
L 440.38318 313.192196 
L 440.506091 311.075099 
L 440.536819 311.464039 
L 440.690459 312.248609 
L 440.751914 310.618787 
L 440.844098 311.141993 
L 440.874826 311.633663 
L 440.905554 310.908342 
L 440.96701 309.427597 
L 441.028465 310.444862 
L 441.182105 312.736935 
L 441.243561 301.956979 
L 441.305016 309.0205 
L 441.458656 312.805262 
L 441.735207 313.316045 
L 442.226853 313.403485 
L 442.288309 313.299704 
L 442.319037 313.408741 
L 445.053819 313.408932 
L 445.084547 313.304721 
L 445.176731 313.380072 
L 445.268914 313.371185 
L 445.391826 313.408932 
L 445.668377 313.387144 
L 446.129295 313.357997 
L 446.958948 313.387144 
L 447.266227 313.340127 
L 447.389139 313.264728 
L 447.419867 313.316045 
L 447.727146 313.352168 
L 448.618254 313.387144 
L 448.67971 313.206005 
L 448.771894 313.245233 
L 448.83335 313.257847 
L 448.864078 313.312318 
L 449.109901 313.3924 
L 449.386452 313.411465 
L 449.509363 313.300277 
L 449.724458 313.366455 
L 449.755186 313.271895 
L 449.816642 313.387144 
L 450.154649 313.299274 
L 450.339016 313.274762 
L 450.554112 313.349158 
L 451.568132 313.250871 
L 451.660316 313.081152 
L 451.721771 305.123451 
L 451.783227 287.193012 
L 451.813955 243.864861 
L 451.875411 298.827777 
L 452.02905 312.110999 
L 452.213418 313.013589 
L 452.489969 313.281356 
L 452.797248 313.352168 
L 459.618839 313.290673 
L 459.680295 312.553454 
L 459.772479 303.414789 
L 459.833935 308.216817 
L 459.987574 312.468404 
L 460.018302 312.468881 
L 460.141213 298.593648 
L 460.171941 303.926049 
L 460.325581 312.319804 
L 460.509948 313.05707 
L 460.755771 313.278202 
L 461.278145 313.372571 
L 461.616152 313.387144 
L 463.705649 313.277916 
L 463.859288 313.068538 
L 463.890016 313.13352 
L 464.105111 313.328086 
L 464.320207 313.372571 
L 464.750397 313.355083 
L 464.934764 313.387144 
L 470.865247 313.278202 
L 471.233982 313.309738 
L 471.664173 313.334107 
L 471.756356 313.159991 
L 471.787084 313.251445 
L 471.940724 313.278202 
L 480.237254 313.366741 
L 480.329438 313.558153 
L 480.360166 313.414188 
L 480.667445 313.24853 
L 480.851812 313.387144 
L 482.357479 313.278202 
L 482.511118 313.16735 
L 482.541846 313.196783 
L 483.187132 313.287663 
L 483.432955 313.387144 
L 484.262608 313.278202 
L 484.569887 313.16735 
L 485.122989 313.316045 
L 485.368812 313.263342 
L 485.460996 313.106763 
L 485.491723 313.140735 
L 485.645363 313.352168 
L 486.843751 313.274619 
L 486.905206 312.868812 
L 487.058846 309.003776 
L 487.089574 310.118516 
L 487.212485 312.255776 
L 487.243213 312.249565 
L 487.366125 311.486974 
L 487.396853 311.619806 
L 487.704132 313.152633 
L 487.949955 313.271609 
L 488.841064 313.352168 
L 489.91654 313.453799 
L 490.162363 313.432966 
L 490.316002 313.42771 
L 490.654009 313.5087 
L 490.899832 313.408932 
L 490.961288 313.340127 
L 491.022744 313.419826 
L 491.575846 313.5087 
L 491.698757 313.349158 
L 491.729485 313.303431 
L 491.790941 313.387144 
L 492.190404 313.475731 
L 492.620594 313.435594 
L 492.958601 313.280496 
L 493.081512 309.749643 
L 493.11224 308.643982 
L 493.173696 309.013332 
L 493.235152 310.386091 
L 493.26588 310.167253 
L 493.296608 308.428966 
L 493.358064 309.144253 
L 493.511703 312.162603 
L 493.69607 311.875915 
L 493.818982 312.088064 
L 493.84971 312.043149 
L 493.972621 310.824246 
L 494.034077 311.036874 
L 494.402812 312.85161 
L 494.43354 312.745536 
L 494.525723 312.854477 
L 494.587179 313.068538 
L 494.648635 312.914204 
L 494.833002 312.49325 
L 495.201737 313.106763 
L 495.478288 313.224687 
L 495.754839 313.207247 
L 496.03139 313.352168 
L 496.123574 313.309738 
L 496.277213 312.45598 
L 496.307941 312.081852 
L 496.369397 312.321237 
L 496.61522 313.083828 
L 496.983955 313.312892 
L 497.229778 313.352168 
L 497.721424 313.241936 
L 497.905791 313.049425 
L 497.967247 310.839059 
L 498.059431 264.754878 
L 498.120887 295.139055 
L 498.274526 308.15709 
L 498.335982 308.89149 
L 498.36671 308.09593 
L 498.458893 303.118544 
L 498.489621 304.384751 
L 498.704717 311.834345 
L 498.919812 312.719256 
L 499.165635 312.959118 
L 499.288546 313.015023 
L 499.53437 313.152633 
L 499.626553 313.137343 
L 499.749465 313.083828 
L 499.903104 313.196783 
L 500.425478 313.158749 
L 500.579118 311.088478 
L 500.640574 311.552912 
L 500.855669 312.424445 
L 500.886397 312.321237 
L 500.917125 312.429701 
L 501.13222 313.060893 
L 501.347315 313.196783 
L 501.531682 313.022668 
L 501.56241 313.060893 
L 501.869689 313.251827 
L 502.392063 313.196783 
L 502.545703 313.221199 
L 503.006621 313.316045 
L 504.543016 313.360912 
L 504.758111 313.387144 
L 504.881023 313.392018 
L 505.034662 313.352168 
L 505.557036 313.387144 
L 511.426063 313.387144 
L 511.487519 313.267356 
L 511.518247 313.366741 
L 511.733342 313.387144 
L 512.655179 313.280591 
L 512.839546 312.556321 
L 512.870274 312.624649 
L 513.054642 312.89748 
L 513.085369 312.797617 
L 513.146825 312.645195 
L 513.177553 312.378575 
L 513.239009 312.719256 
L 513.392648 313.141165 
L 513.638471 313.387144 
L 514.898315 313.315185 
L 515.051954 312.922327 
L 515.11341 312.940961 
L 515.205594 306.057099 
L 515.236322 308.205349 
L 515.389961 312.395776 
L 515.451417 312.231408 
L 515.635784 313.238639 
L 515.912335 313.387144 
L 517.141451 313.443478 
L 517.172179 312.502663 
L 517.233635 303.749258 
L 517.264363 308.031425 
L 517.418002 312.81004 
L 517.479458 313.04178 
L 517.602369 304.3083 
L 517.694553 299.477603 
L 517.909648 312.104787 
L 518.094016 313.009289 
L 518.370567 313.245233 
L 518.401295 313.181063 
L 518.46275 313.268312 
L 518.770029 313.331096 
L 518.954397 313.324646 
L 519.323131 313.387144 
L 519.691866 313.395315 
L 520.79807 313.406209 
L 521.105349 313.375485 
L 521.750635 313.378209 
L 521.873546 308.221117 
L 521.96573 309.795036 
L 521.996458 310.371279 
L 522.088641 238.594575 
L 522.119369 270.058611 
L 522.180825 283.900875 
L 522.211553 266.962378 
L 522.242281 270.397858 
L 522.39592 307.965965 
L 522.580288 311.582537 
L 522.856839 312.66144 
L 523.287029 313.015023 
L 523.686492 313.125875 
L 523.809403 313.152633 
L 523.840131 312.974886 
L 523.901587 311.604516 
L 523.963043 312.259121 
L 524.085954 313.106763 
L 524.485417 313.075705 
L 524.546873 310.921721 
L 524.639056 303.505573 
L 524.792696 272.371229 
L 524.823424 272.562355 
L 524.946335 290.681052 
L 524.977063 291.631902 
L 525.038519 246.984985 
L 525.099975 281.062661 
L 525.130703 262.709835 
L 525.192158 285.764349 
L 525.376526 307.320438 
L 525.560893 311.336941 
L 526.021812 312.530042 
L 526.544186 312.850177 
L 528.81805 313.181923 
L 528.910233 310.998649 
L 528.971689 278.272229 
L 529.002417 296.075569 
L 529.156056 311.776529 
L 529.340424 312.788539 
L 529.862798 313.106763 
L 531.153369 313.210735 
L 531.552832 313.238639 
L 532.781948 313.278202 
L 532.812675 312.454213 
L 532.874131 306.061399 
L 532.935587 310.456808 
L 533.089226 312.906081 
L 533.273594 313.152633 
L 533.488689 313.238639 
L 534.656349 313.278202 
L 534.687077 313.093384 
L 534.748533 286.848986 
L 534.77926 300.66736 
L 534.9329 312.342739 
L 535.025084 312.845876 
L 535.055811 312.821508 
L 535.117267 312.168814 
L 535.178723 312.423011 
L 535.209451 312.44069 
L 535.393818 313.091473 
L 535.670369 313.224687 
L 539.757179 313.221199 
L 539.818635 312.653795 
L 539.910818 311.825744 
L 539.972274 311.902672 
L 540.218097 313.106763 
L 540.402464 313.217711 
L 540.556104 313.210735 
L 540.709743 313.274905 
L 540.832655 310.723906 
L 540.894111 311.234211 
L 541.109206 313.049425 
L 541.139934 313.04178 
L 541.355029 313.238639 
L 541.570124 313.278202 
L 542.031043 313.228175 
L 542.061771 313.156312 
L 542.123226 313.203759 
L 542.369049 313.316045 
L 543.751805 313.312892 
L 543.81326 303.390898 
L 543.874716 308.241185 
L 543.905444 310.465886 
L 543.9669 309.24555 
L 544.028356 305.421606 
L 544.059083 307.127402 
L 544.243451 312.728334 
L 544.458546 313.182066 
L 544.796553 313.238639 
L 544.98092 313.258421 
L 545.441839 313.29397 
L 545.687662 313.274905 
L 546.179308 313.293684 
L 546.210036 313.21752 
L 546.271492 313.293827 
L 546.394403 306.123993 
L 546.455859 309.295242 
L 546.793866 313.076183 
L 547.070417 313.235151 
L 548.422444 313.278202 
L 548.576083 313.278202 
L 549.06773 313.316045 
L 549.098458 312.57013 
L 549.159913 303.893558 
L 549.221369 310.43674 
L 549.405736 313.005944 
L 549.590104 313.238639 
L 549.65156 311.789908 
L 549.743743 294.331549 
L 549.774471 303.099432 
L 549.928111 311.137692 
L 550.112478 312.868812 
L 550.327573 313.129698 
L 550.696308 313.193104 
L 550.849947 313.200271 
L 551.09577 313.268312 
L 551.280138 313.278202 
L 551.771784 313.278202 
L 552.017607 313.28451 
L 552.048335 313.270271 
L 552.109791 307.656341 
L 552.171247 302.33493 
L 552.201975 304.413419 
L 552.26343 310.008141 
L 552.294158 306.214299 
L 552.447798 286.954105 
L 552.601437 310.916465 
L 552.816532 312.666696 
L 553.185267 313.060893 
L 553.861281 313.152633 
L 554.107104 313.196783 
L 554.291471 313.185745 
L 554.352927 313.076183 
L 554.414383 313.196783 
L 556.442423 313.306584 
L 556.565335 313.278202 
L 556.78043 309.840428 
L 556.841886 308.39743 
L 556.872614 309.753466 
L 557.026253 310.761175 
L 557.056981 310.57435 
L 557.087709 310.831414 
L 557.333532 312.954818 
L 557.610083 313.196783 
L 557.732995 313.140879 
L 557.94809 313.037958 
L 558.163185 313.182066 
L 558.255369 313.278202 
L 558.347553 299.807773 
L 558.409008 308.430877 
L 558.562648 312.897003 
L 558.716287 313.14881 
L 558.747015 313.129698 
L 558.992838 313.196783 
L 560.990151 313.152203 
L 561.051607 312.915159 
L 561.082335 312.512362 
L 561.143791 312.89748 
L 561.358886 313.278202 
L 565.015505 313.328086 
L 565.845158 313.231663 
L 566.428988 313.316045 
L 572.697478 313.24509 
L 572.728206 313.051336 
L 572.789661 313.223732 
L 572.943301 313.352168 
L 573.035485 313.351021 
L 573.066212 312.959262 
L 573.127668 299.472825 
L 573.189124 306.678257 
L 573.342763 312.702055 
L 573.557859 313.217329 
L 573.742226 313.322066 
L 573.772954 307.466554 
L 573.83441 311.190252 
L 574.018777 313.125875 
L 574.203144 313.274619 
L 574.41824 313.287663 
L 574.633335 313.340127 
L 574.694791 313.357997 
L 574.84843 311.217965 
L 574.940614 311.99489 
L 575.032797 312.792839 
L 575.063525 312.07803 
L 575.124981 312.76417 
L 575.43226 313.28451 
L 575.462988 313.264346 
L 575.555172 300.69125 
L 575.585899 307.70699 
L 575.708811 312.284445 
L 575.800995 309.627801 
L 575.831723 310.422405 
L 575.985362 312.905603 
L 576.046818 313.017412 
L 576.108274 311.320695 
L 576.169729 312.538642 
L 576.354097 313.151438 
L 576.507736 313.29397 
L 576.538464 313.233861 
L 576.630648 313.296837 
L 576.661376 313.334107 
L 576.692104 313.245185 
L 576.784287 312.813959 
L 576.845743 307.948286 
L 576.907199 311.232777 
L 577.060838 312.98492 
L 577.583212 313.349062 
L 578.013403 313.290387 
L 578.136314 313.340031 
L 578.320682 313.363827 
L 578.566505 313.33984 
L 578.720144 313.318673 
L 578.750872 313.405826 
L 578.843056 313.3364 
L 579.181063 313.278202 
L 579.396158 313.159991 
L 579.426886 313.203759 
L 579.641981 313.318769 
L 579.795621 313.325076 
L 580.102899 313.245042 
L 580.287267 313.29397 
L 580.410178 313.331001 
L 580.502362 313.354796 
L 580.686729 313.357997 
L 586.248478 313.373144 
L 586.340661 309.825616 
L 586.371389 311.403357 
L 586.525029 313.137343 
L 586.709396 313.343137 
L 587.170314 313.451362 
L 588.860348 313.387144 
L 588.98326 313.251827 
L 589.198355 313.422454 
L 589.536362 313.432966 
L 590.704022 313.443478 
L 591.072756 313.451362 
L 591.257124 313.422454 
L 591.502947 313.44085 
L 591.595131 313.334154 
L 591.625859 313.002122 
L 591.687314 313.435594 
L 592.240416 313.451362 
L 592.394056 313.448734 
L 592.455512 305.763243 
L 592.516967 311.494141 
L 592.701335 313.091473 
L 592.885702 313.400762 
L 593.039342 313.336543 
L 593.070069 313.414379 
L 593.408076 313.451362 
L 594.299185 313.480604 
L 594.329913 313.300038 
L 594.391369 304.972461 
L 594.452824 311.193597 
L 594.606464 313.083828 
L 594.790831 313.343042 
L 594.944471 313.357997 
L 595.221022 313.470857 
L 595.497573 313.46842 
L 595.68194 313.422454 
L 595.83558 313.456236 
L 596.112131 313.480604 
L 596.603777 313.465983 
L 596.818872 313.485287 
L 597.249063 313.480604 
L 597.310518 309.825616 
L 597.341246 311.718714 
L 597.43343 312.774204 
L 597.494886 179.441233 
L 597.556341 298.335628 
L 597.709981 311.633185 
L 597.925076 313.013589 
L 598.047988 313.214032 
L 598.109444 310.805612 
L 598.201627 312.161647 
L 598.416722 313.251636 
L 599.277103 313.422168 
L 599.738022 313.445724 
L 599.799478 313.446106 
L 599.830205 313.201083 
L 599.953117 304.413419 
L 599.983845 306.477575 
L 600.137484 312.649495 
L 600.35258 313.283888 
L 600.383307 313.240121 
L 600.414035 313.330523 
L 600.444763 313.311315 
L 600.967137 313.392591 
L 601.090049 313.432966 
L 601.458784 313.414379 
L 602.349892 313.389676 
L 602.53426 313.432775 
L 602.657171 313.446106 
L 602.933722 313.419826 
L 603.056634 313.419826 
L 604.255022 313.419922 
L 604.316477 312.946217 
L 604.377933 312.959118 
L 604.408661 312.897003 
L 604.439389 312.929016 
L 604.71594 313.453799 
L 604.961763 313.463546 
L 605.115403 313.42771 
L 609.386579 313.485096 
L 609.417307 312.796805 
L 609.478763 241.055316 
L 609.540219 302.511721 
L 609.693858 312.016392 
L 609.81677 312.891747 
L 609.908954 306.379623 
L 609.970409 310.550459 
L 610.124049 312.900347 
L 610.308416 313.255124 
L 610.339144 313.196783 
L 610.4006 313.261718 
L 610.707879 313.419826 
L 610.98443 313.438222 
L 611.291709 313.470857 
L 611.783355 313.460918 
L 611.906267 313.016456 
L 612.059906 313.343137 
L 613.012471 313.5087 
L 613.473389 313.386284 
L 613.504117 300.362514 
L 613.565573 306.40877 
L 613.719212 312.598369 
L 613.903579 313.137343 
L 614.272314 313.451362 
L 617.09928 313.5087 
L 617.160736 132.806611 
L 617.191464 262.509153 
L 617.345103 309.560907 
L 617.529471 312.193661 
L 617.836749 312.959118 
L 618.297668 313.185745 
L 618.451307 313.16367 
L 618.666403 313.238639 
L 619.373144 313.255124 
L 619.588239 313.324646 
L 619.987702 313.261574 
L 620.141341 313.324933 
L 620.571532 313.300277 
L 620.694443 313.24853 
L 620.817355 313.258421 
L 621.093906 313.28451 
L 621.370457 313.241936 
L 621.493368 313.240646 
L 621.800647 313.254598 
L 621.831375 280.983774 
L 621.892831 306.444606 
L 622.04647 312.701577 
L 622.507389 313.268312 
L 622.538117 313.189855 
L 622.599573 313.280926 
L 622.753212 313.251445 
L 622.78394 313.132947 
L 622.845396 313.238639 
L 623.152675 313.208012 
L 623.306314 313.284079 
L 623.521409 313.127978 
L 623.582865 313.251827 
L 623.982328 313.280018 
L 624.105239 313.170025 
L 624.166695 313.129077 
L 624.228151 313.287663 
L 624.504702 313.290387 
L 625.887457 313.251827 
L 625.948913 309.911622 
L 626.041096 311.27148 
L 626.194736 312.776116 
L 626.409831 313.178387 
L 626.840021 313.221199 
L 627.055117 313.354891 
L 627.085845 313.321922 
L 627.30094 313.312892 
L 628.284232 313.264202 
L 628.407144 313.32498 
L 628.806606 313.19621 
L 628.929518 313.309165 
L 628.960246 313.287233 
L 629.298253 313.312318 
L 629.451892 313.330953 
L 629.574804 313.303431 
L 630.004994 313.360816 
L 630.189362 313.278202 
L 630.619552 313.357997 
L 630.742464 313.351308 
L 630.988287 313.297124 
L 631.203382 313.236728 
L 631.264838 312.859733 
L 631.326294 313.000688 
L 631.449205 313.005466 
L 631.6643 313.260714 
L 631.81794 313.265015 
L 632.278858 313.348871 
L 632.586137 313.281356 
L 632.647593 310.909775 
L 632.709049 311.573458 
L 632.739777 312.53912 
L 632.83196 312.444991 
L 632.9856 312.828197 
L 633.169967 313.129698 
L 633.262151 313.14838 
L 633.41579 313.278202 
L 633.600157 313.316045 
L 633.753797 313.322066 
L 634.183987 313.316045 
L 634.306899 313.354796 
L 634.767817 313.331096 
L 634.860001 313.340127 
L 634.921457 281.440134 
L 634.982913 307.331428 
L 635.136552 312.506151 
L 635.351647 313.13352 
L 635.474559 313.023145 
L 635.566742 313.271609 
L 635.59747 305.175007 
L 635.658926 249.584292 
L 635.689654 290.919959 
L 635.843293 311.382811 
L 636.089117 312.837276 
L 636.488579 313.216803 
L 637.010953 313.236728 
L 637.103137 313.173036 
L 637.133865 313.269602 
L 637.164593 313.375485 
L 637.256776 313.329472 
L 637.287504 313.363635 
L 637.318232 313.315711 
L 637.34896 313.228701 
L 637.379688 313.372571 
L 637.410416 313.348871 
L 637.625511 313.346147 
L 639.438457 313.452843 
L 639.561368 313.442618 
L 639.745736 313.321875 
L 639.776464 313.362919 
L 639.807191 313.439703 
L 639.899375 313.399806 
L 640.053015 313.428666 
L 640.11447 312.424445 
L 640.175926 312.910381 
L 640.26811 313.196401 
L 640.329566 312.21994 
L 640.360293 312.850177 
L 640.421749 313.167063 
L 640.452477 312.992565 
L 640.636844 310.423839 
L 640.667572 311.203631 
L 640.821212 312.886491 
L 640.85194 312.699188 
L 640.882668 312.184104 
L 640.913395 312.532908 
L 640.974851 247.15222 
L 641.005579 287.603932 
L 641.159219 311.657076 
L 641.220674 312.1196 
L 641.251402 311.949976 
L 641.312858 311.632707 
L 641.343586 311.850113 
L 641.527953 312.587857 
L 641.681593 312.929016 
L 641.712321 312.585468 
L 641.773776 312.79475 
L 641.896688 313.011678 
L 641.988872 312.940006 
L 642.050327 312.791406 
L 642.081055 312.977275 
L 642.111783 312.878846 
L 642.203967 312.775638 
L 642.234695 312.926627 
L 642.265423 313.083111 
L 642.326878 312.979664 
L 642.357606 312.799051 
L 642.44979 312.910381 
L 642.480518 312.869289 
L 642.634157 313.338407 
L 642.818525 313.403198 
L 642.879981 313.083684 
L 642.910708 313.254455 
L 642.972164 313.463546 
L 643.03362 313.387144 
L 643.064348 313.453799 
L 643.095076 313.27395 
L 643.187259 313.199506 
L 643.217987 313.221008 
L 643.371627 313.136435 
L 643.555994 313.366741 
L 643.709634 313.40468 
L 643.740361 313.435308 
L 643.771089 313.344427 
L 643.894001 313.355083 
L 643.986185 313.327369 
L 644.139824 312.001102 
L 644.170552 312.418711 
L 644.416375 313.234769 
L 644.508559 313.290817 
L 644.539287 303.284202 
L 644.570015 117.516571 
L 644.63147 289.605971 
L 644.78511 311.192163 
L 645.000205 312.783761 
L 645.36894 313.316045 
L 645.891314 313.269888 
L 645.95277 305.543449 
L 646.014225 311.154416 
L 646.198593 313.034135 
L 646.5366 313.3784 
L 647.243341 313.473294 
L 647.458436 313.480604 
L 647.704259 313.499335 
L 647.919355 313.480604 
L 648.71828 313.463546 
L 648.749008 313.198503 
L 648.810463 287.427141 
L 648.841191 303.061206 
L 648.994831 312.187449 
L 649.425021 313.274905 
L 649.670844 313.387144 
L 650.162491 313.451362 
L 650.193219 312.208903 
L 650.377586 254.634783 
L 650.408314 241.461458 
L 650.439042 245.675775 
L 650.500497 270.416971 
L 650.561953 239.024608 
L 650.623409 241.89149 
L 650.777048 291.512448 
L 650.930688 306.133549 
L 651.084327 311.69339 
L 651.268695 312.73359 
L 651.422334 312.967719 
L 651.453062 312.949562 
L 651.637429 313.047992 
L 651.668157 313.011678 
L 651.698885 313.135527 
L 652.313443 313.354987 
L 652.467082 313.24638 
L 653.050912 313.396318 
L 653.204552 313.29397 
L 653.296736 313.452365 
L 653.327463 313.343042 
L 653.66547 313.456236 
L 653.849838 313.432393 
L 654.064933 313.38399 
L 654.187844 313.441662 
L 655.41696 313.433874 
L 655.447688 313.460679 
L 655.509144 313.379786 
L 655.970062 313.44797 
L 656.092974 313.343854 
L 656.123701 313.44797 
L 656.185157 313.346147 
L 656.277341 313.37367 
L 656.400252 313.45528 
L 656.768987 313.431437 
L 656.799715 313.031507 
L 656.861171 313.380263 
L 656.984082 313.387144 
L 657.045538 283.050367 
L 657.106994 308.06535 
L 657.16845 309.296198 
L 657.199178 306.939621 
L 657.260633 239.167952 
L 657.322089 271.673621 
L 657.475729 310.818991 
L 657.59864 312.355162 
L 657.629368 309.807459 
L 657.660096 280.771195 
L 657.721552 299.926748 
L 657.905919 311.86158 
L 657.936647 312.181238 
L 657.998103 300.246883 
L 658.059559 306.984057 
L 658.151742 311.296804 
L 658.274654 285.661141 
L 658.305382 197.598155 
L 658.397565 236.086053 
L 658.551205 305.41205 
L 658.581933 307.461871 
L 658.643389 224.451288 
L 658.735572 238.150208 
L 658.7663 101.50981 
L 658.827756 256.068224 
L 658.950667 303.61547 
L 659.135035 262.547379 
L 659.196491 293.648276 
L 659.288674 36.19267 
L 659.319402 153.878197 
L 659.473042 286.939771 
L 659.595953 304.723998 
L 659.626681 301.761553 
L 659.657409 288.296762 
L 659.718865 299.4346 
L 659.78032 292.114493 
L 659.811048 294.890591 
L 659.995416 310.462064 
L 660.179783 311.842468 
L 660.425606 312.372841 
L 660.794341 312.802873 
L 661.593266 313.106763 
L 661.623994 312.917071 
L 661.716178 308.820773 
L 661.746906 311.108546 
L 661.900545 312.883146 
L 662.054184 313.060893 
L 662.084912 312.992565 
L 662.146368 313.106763 
L 662.638014 313.196783 
L 662.760926 313.207247 
L 662.945293 313.238639 
L 664.727511 313.316045 
L 664.88115 313.352168 
L 667.8003 313.352168 
L 667.831028 313.221581 
L 667.953939 311.32834 
L 667.984667 311.669499 
L 668.169035 313.099118 
L 668.414858 313.319055 
L 668.568497 313.352168 
L 669.459606 313.301472 
L 669.490334 313.233718 
L 669.521062 313.340127 
L 669.55179 313.352168 
L 670.074164 313.320154 
L 670.104892 309.929779 
L 670.166348 291.737021 
L 670.227803 297.900818 
L 670.258531 297.446895 
L 670.473627 312.247654 
L 670.657994 313.045603 
L 670.873089 313.196783 
L 670.996001 313.238639 
L 671.334007 313.243656 
L 671.364735 313.045603 
L 671.426191 313.099118 
L 671.610558 313.316045 
L 673.638599 313.360912 
L 673.700055 303.326871 
L 673.730783 296.978637 
L 673.761511 306.960167 
L 673.91515 312.587857 
L 674.038062 313.02219 
L 674.06879 267.170227 
L 674.130246 291.087194 
L 674.283885 311.777485 
L 674.49898 312.841576 
L 674.591164 312.937617 
L 674.621892 312.869289 
L 674.65262 312.824375 
L 674.683348 312.907037 
L 675.021354 313.235151 
L 675.23645 313.265015 
L 675.359361 313.278202 
L 675.482273 313.287663 
L 675.482273 313.287663 
" clip-path="url(#p258b53b9c8)" style="fill: none; stroke: #1f77b4; stroke-width: 1.5; stroke-linecap: square"/>
   </g>
   <g id="patch_3">
    <path d="M 39.65 327.558125 
L 39.65 22.318125 
" style="fill: none; stroke: #000000; stroke-width: 0.8; stroke-linejoin: miter; stroke-linecap: square"/>
   </g>
   <g id="patch_4">
    <path d="M 705.76 327.558125 
L 705.76 22.318125 
" style="fill: none; stroke: #000000; stroke-width: 0.8; stroke-linejoin: miter; stroke-linecap: square"/>
   </g>
   <g id="patch_5">
    <path d="M 39.65 327.558125 
L 705.76 327.558125 
" style="fill: none; stroke: #000000; stroke-width: 0.8; stroke-linejoin: miter; stroke-linecap: square"/>
   </g>
   <g id="patch_6">
    <path d="M 39.65 22.318125 
L 705.76 22.318125 
" style="fill: none; stroke: #000000; stroke-width: 0.8; stroke-linejoin: miter; stroke-linecap: square"/>
   </g>
   <g id="text_17">
    <!-- training -->
    <g transform="translate(349.461562 16.318125) scale(0.12 -0.12)">
     <defs>
      <path id="DejaVuSans-74" d="M 1172 4494 
L 1172 3500 
L 2356 3500 
L 2356 3053 
L 1172 3053 
L 1172 1153 
Q 1172 725 1289 603 
Q 1406 481 1766 481 
L 2356 481 
L 2356 0 
L 1766 0 
Q 1100 0 847 248 
Q 594 497 594 1153 
L 594 3053 
L 172 3053 
L 172 3500 
L 594 3500 
L 594 4494 
L 1172 4494 
z
" transform="scale(0.015625)"/>
      <path id="DejaVuSans-72" d="M 2631 2963 
Q 2534 3019 2420 3045 
Q 2306 3072 2169 3072 
Q 1681 3072 1420 2755 
Q 1159 2438 1159 1844 
L 1159 0 
L 581 0 
L 581 3500 
L 1159 3500 
L 1159 2956 
Q 1341 3275 1631 3429 
Q 1922 3584 2338 3584 
Q 2397 3584 2469 3576 
Q 2541 3569 2628 3553 
L 2631 2963 
z
" transform="scale(0.015625)"/>
      <path id="DejaVuSans-61" d="M 2194 1759 
Q 1497 1759 1228 1600 
Q 959 1441 959 1056 
Q 959 750 1161 570 
Q 1363 391 1709 391 
Q 2188 391 2477 730 
Q 2766 1069 2766 1631 
L 2766 1759 
L 2194 1759 
z
M 3341 1997 
L 3341 0 
L 2766 0 
L 2766 531 
Q 2569 213 2275 61 
Q 1981 -91 1556 -91 
Q 1019 -91 701 211 
Q 384 513 384 1019 
Q 384 1609 779 1909 
Q 1175 2209 1959 2209 
L 2766 2209 
L 2766 2266 
Q 2766 2663 2505 2880 
Q 2244 3097 1772 3097 
Q 1472 3097 1187 3025 
Q 903 2953 641 2809 
L 641 3341 
Q 956 3463 1253 3523 
Q 1550 3584 1831 3584 
Q 2591 3584 2966 3190 
Q 3341 2797 3341 1997 
z
" transform="scale(0.015625)"/>
      <path id="DejaVuSans-69" d="M 603 3500 
L 1178 3500 
L 1178 0 
L 603 0 
L 603 3500 
z
M 603 4863 
L 1178 4863 
L 1178 4134 
L 603 4134 
L 603 4863 
z
" transform="scale(0.015625)"/>
      <path id="DejaVuSans-6e" d="M 3513 2113 
L 3513 0 
L 2938 0 
L 2938 2094 
Q 2938 2591 2744 2837 
Q 2550 3084 2163 3084 
Q 1697 3084 1428 2787 
Q 1159 2491 1159 1978 
L 1159 0 
L 581 0 
L 581 3500 
L 1159 3500 
L 1159 2956 
Q 1366 3272 1645 3428 
Q 1925 3584 2291 3584 
Q 2894 3584 3203 3211 
Q 3513 2838 3513 2113 
z
" transform="scale(0.015625)"/>
      <path id="DejaVuSans-67" d="M 2906 1791 
Q 2906 2416 2648 2759 
Q 2391 3103 1925 3103 
Q 1463 3103 1205 2759 
Q 947 2416 947 1791 
Q 947 1169 1205 825 
Q 1463 481 1925 481 
Q 2391 481 2648 825 
Q 2906 1169 2906 1791 
z
M 3481 434 
Q 3481 -459 3084 -895 
Q 2688 -1331 1869 -1331 
Q 1566 -1331 1297 -1286 
Q 1028 -1241 775 -1147 
L 775 -588 
Q 1028 -725 1275 -790 
Q 1522 -856 1778 -856 
Q 2344 -856 2625 -561 
Q 2906 -266 2906 331 
L 2906 616 
Q 2728 306 2450 153 
Q 2172 0 1784 0 
Q 1141 0 747 490 
Q 353 981 353 1791 
Q 353 2603 747 3093 
Q 1141 3584 1784 3584 
Q 2172 3584 2450 3431 
Q 2728 3278 2906 2969 
L 2906 3500 
L 3481 3500 
L 3481 434 
z
" transform="scale(0.015625)"/>
     </defs>
     <use xlink:href="#DejaVuSans-74"/>
     <use xlink:href="#DejaVuSans-72" x="39.208984"/>
     <use xlink:href="#DejaVuSans-61" x="80.322266"/>
     <use xlink:href="#DejaVuSans-69" x="141.601562"/>
     <use xlink:href="#DejaVuSans-6e" x="169.384766"/>
     <use xlink:href="#DejaVuSans-69" x="232.763672"/>
     <use xlink:href="#DejaVuSans-6e" x="260.546875"/>
     <use xlink:href="#DejaVuSans-67" x="323.925781"/>
    </g>
   </g>
   <g id="legend_1">
    <g id="patch_7">
     <path d="M 46.65 44.99625 
L 125.010938 44.99625 
Q 127.010938 44.99625 127.010938 42.99625 
L 127.010938 29.318125 
Q 127.010938 27.318125 125.010938 27.318125 
L 46.65 27.318125 
Q 44.65 27.318125 44.65 29.318125 
L 44.65 42.99625 
Q 44.65 44.99625 46.65 44.99625 
z
" style="fill: #ffffff; opacity: 0.8; stroke: #cccccc; stroke-linejoin: miter"/>
    </g>
    <g id="line2d_18">
     <path d="M 48.65 35.416563 
L 58.65 35.416563 
L 68.65 35.416563 
" style="fill: none; stroke: #1f77b4; stroke-width: 1.5; stroke-linecap: square"/>
    </g>
    <g id="text_18">
     <!-- observed -->
     <g transform="translate(76.65 38.916563) scale(0.1 -0.1)">
      <defs>
       <path id="DejaVuSans-6f" d="M 1959 3097 
Q 1497 3097 1228 2736 
Q 959 2375 959 1747 
Q 959 1119 1226 758 
Q 1494 397 1959 397 
Q 2419 397 2687 759 
Q 2956 1122 2956 1747 
Q 2956 2369 2687 2733 
Q 2419 3097 1959 3097 
z
M 1959 3584 
Q 2709 3584 3137 3096 
Q 3566 2609 3566 1747 
Q 3566 888 3137 398 
Q 2709 -91 1959 -91 
Q 1206 -91 779 398 
Q 353 888 353 1747 
Q 353 2609 779 3096 
Q 1206 3584 1959 3584 
z
" transform="scale(0.015625)"/>
       <path id="DejaVuSans-62" d="M 3116 1747 
Q 3116 2381 2855 2742 
Q 2594 3103 2138 3103 
Q 1681 3103 1420 2742 
Q 1159 2381 1159 1747 
Q 1159 1113 1420 752 
Q 1681 391 2138 391 
Q 2594 391 2855 752 
Q 3116 1113 3116 1747 
z
M 1159 2969 
Q 1341 3281 1617 3432 
Q 1894 3584 2278 3584 
Q 2916 3584 3314 3078 
Q 3713 2572 3713 1747 
Q 3713 922 3314 415 
Q 2916 -91 2278 -91 
Q 1894 -91 1617 61 
Q 1341 213 1159 525 
L 1159 0 
L 581 0 
L 581 4863 
L 1159 4863 
L 1159 2969 
z
" transform="scale(0.015625)"/>
       <path id="DejaVuSans-73" d="M 2834 3397 
L 2834 2853 
Q 2591 2978 2328 3040 
Q 2066 3103 1784 3103 
Q 1356 3103 1142 2972 
Q 928 2841 928 2578 
Q 928 2378 1081 2264 
Q 1234 2150 1697 2047 
L 1894 2003 
Q 2506 1872 2764 1633 
Q 3022 1394 3022 966 
Q 3022 478 2636 193 
Q 2250 -91 1575 -91 
Q 1294 -91 989 -36 
Q 684 19 347 128 
L 347 722 
Q 666 556 975 473 
Q 1284 391 1588 391 
Q 1994 391 2212 530 
Q 2431 669 2431 922 
Q 2431 1156 2273 1281 
Q 2116 1406 1581 1522 
L 1381 1569 
Q 847 1681 609 1914 
Q 372 2147 372 2553 
Q 372 3047 722 3315 
Q 1072 3584 1716 3584 
Q 2034 3584 2315 3537 
Q 2597 3491 2834 3397 
z
" transform="scale(0.015625)"/>
       <path id="DejaVuSans-65" d="M 3597 1894 
L 3597 1613 
L 953 1613 
Q 991 1019 1311 708 
Q 1631 397 2203 397 
Q 2534 397 2845 478 
Q 3156 559 3463 722 
L 3463 178 
Q 3153 47 2828 -22 
Q 2503 -91 2169 -91 
Q 1331 -91 842 396 
Q 353 884 353 1716 
Q 353 2575 817 3079 
Q 1281 3584 2069 3584 
Q 2775 3584 3186 3129 
Q 3597 2675 3597 1894 
z
M 3022 2063 
Q 3016 2534 2758 2815 
Q 2500 3097 2075 3097 
Q 1594 3097 1305 2825 
Q 1016 2553 972 2059 
L 3022 2063 
z
" transform="scale(0.015625)"/>
       <path id="DejaVuSans-76" d="M 191 3500 
L 800 3500 
L 1894 563 
L 2988 3500 
L 3597 3500 
L 2284 0 
L 1503 0 
L 191 3500 
z
" transform="scale(0.015625)"/>
       <path id="DejaVuSans-64" d="M 2906 2969 
L 2906 4863 
L 3481 4863 
L 3481 0 
L 2906 0 
L 2906 525 
Q 2725 213 2448 61 
Q 2172 -91 1784 -91 
Q 1150 -91 751 415 
Q 353 922 353 1747 
Q 353 2572 751 3078 
Q 1150 3584 1784 3584 
Q 2172 3584 2448 3432 
Q 2725 3281 2906 2969 
z
M 947 1747 
Q 947 1113 1208 752 
Q 1469 391 1925 391 
Q 2381 391 2643 752 
Q 2906 1113 2906 1747 
Q 2906 2381 2643 2742 
Q 2381 3103 1925 3103 
Q 1469 3103 1208 2742 
Q 947 2381 947 1747 
z
" transform="scale(0.015625)"/>
      </defs>
      <use xlink:href="#DejaVuSans-6f"/>
      <use xlink:href="#DejaVuSans-62" x="61.181641"/>
      <use xlink:href="#DejaVuSans-73" x="124.658203"/>
      <use xlink:href="#DejaVuSans-65" x="176.757812"/>
      <use xlink:href="#DejaVuSans-72" x="238.28125"/>
      <use xlink:href="#DejaVuSans-76" x="279.394531"/>
      <use xlink:href="#DejaVuSans-65" x="338.574219"/>
      <use xlink:href="#DejaVuSans-64" x="400.097656"/>
     </g>
    </g>
   </g>
  </g>
 </g>
 <defs>
  <clipPath id="p258b53b9c8">
   <rect x="39.65" y="22.318125" width="666.11" height="305.24"/>
  </clipPath>
 </defs>
</svg>
