<?xml version="1.0" encoding="utf-8" standalone="no"?>
<!DOCTYPE svg PUBLIC "-//W3C//DTD SVG 1.1//EN"
  "http://www.w3.org/Graphics/SVG/1.1/DTD/svg11.dtd">
<svg xmlns:xlink="http://www.w3.org/1999/xlink" width="720pt" height="360pt" viewBox="0 0 720 360" xmlns="http://www.w3.org/2000/svg" version="1.1">
 <metadata>
  <rdf:RDF xmlns:dc="http://purl.org/dc/elements/1.1/" xmlns:cc="http://creativecommons.org/ns#" xmlns:rdf="http://www.w3.org/1999/02/22-rdf-syntax-ns#">
   <cc:Work>
    <dc:type rdf:resource="http://purl.org/dc/dcmitype/StillImage"/>
    <dc:date>2023-10-23T10:53:57.951291</dc:date>
    <dc:format>image/svg+xml</dc:format>
    <dc:creator>
     <cc:Agent>
      <dc:title>Matplotlib v3.7.1, https://matplotlib.org/</dc:title>
     </cc:Agent>
    </dc:creator>
   </cc:Work>
  </rdf:RDF>
 </metadata>
 <defs>
  <style type="text/css">*{stroke-linejoin: round; stroke-linecap: butt}</style>
 </defs>
 <g id="figure_1">
  <g id="patch_1">
   <path d="M 0 360 
L 720 360 
L 720 0 
L 0 0 
z
" style="fill: #ffffff"/>
  </g>
  <g id="axes_1">
   <g id="patch_2">
    <path d="M 90 288 
L 648 288 
L 648 43.2 
L 90 43.2 
z
" style="fill: #ffffff"/>
   </g>
   <g id="matplotlib.axis_1">
    <g id="xtick_1">
     <g id="line2d_1">
      <defs>
       <path id="ma46439f10e" d="M 0 0 
L 0 3.5 
" style="stroke: #000000; stroke-width: 0.8"/>
      </defs>
      <g>
       <use xlink:href="#ma46439f10e" x="149.370747" y="288" style="stroke: #000000; stroke-width: 0.8"/>
      </g>
     </g>
     <g id="text_1">
      <!-- 2023-08-15 -->
      <g transform="translate(87.727405 337.765903) rotate(-30) scale(0.12 -0.12)">
       <defs>
        <path id="DejaVuSans-32" d="M 1228 531 
L 3431 531 
L 3431 0 
L 469 0 
L 469 531 
Q 828 903 1448 1529 
Q 2069 2156 2228 2338 
Q 2531 2678 2651 2914 
Q 2772 3150 2772 3378 
Q 2772 3750 2511 3984 
Q 2250 4219 1831 4219 
Q 1534 4219 1204 4116 
Q 875 4013 500 3803 
L 500 4441 
Q 881 4594 1212 4672 
Q 1544 4750 1819 4750 
Q 2544 4750 2975 4387 
Q 3406 4025 3406 3419 
Q 3406 3131 3298 2873 
Q 3191 2616 2906 2266 
Q 2828 2175 2409 1742 
Q 1991 1309 1228 531 
z
" transform="scale(0.015625)"/>
        <path id="DejaVuSans-30" d="M 2034 4250 
Q 1547 4250 1301 3770 
Q 1056 3291 1056 2328 
Q 1056 1369 1301 889 
Q 1547 409 2034 409 
Q 2525 409 2770 889 
Q 3016 1369 3016 2328 
Q 3016 3291 2770 3770 
Q 2525 4250 2034 4250 
z
M 2034 4750 
Q 2819 4750 3233 4129 
Q 3647 3509 3647 2328 
Q 3647 1150 3233 529 
Q 2819 -91 2034 -91 
Q 1250 -91 836 529 
Q 422 1150 422 2328 
Q 422 3509 836 4129 
Q 1250 4750 2034 4750 
z
" transform="scale(0.015625)"/>
        <path id="DejaVuSans-33" d="M 2597 2516 
Q 3050 2419 3304 2112 
Q 3559 1806 3559 1356 
Q 3559 666 3084 287 
Q 2609 -91 1734 -91 
Q 1441 -91 1130 -33 
Q 819 25 488 141 
L 488 750 
Q 750 597 1062 519 
Q 1375 441 1716 441 
Q 2309 441 2620 675 
Q 2931 909 2931 1356 
Q 2931 1769 2642 2001 
Q 2353 2234 1838 2234 
L 1294 2234 
L 1294 2753 
L 1863 2753 
Q 2328 2753 2575 2939 
Q 2822 3125 2822 3475 
Q 2822 3834 2567 4026 
Q 2313 4219 1838 4219 
Q 1578 4219 1281 4162 
Q 984 4106 628 3988 
L 628 4550 
Q 988 4650 1302 4700 
Q 1616 4750 1894 4750 
Q 2613 4750 3031 4423 
Q 3450 4097 3450 3541 
Q 3450 3153 3228 2886 
Q 3006 2619 2597 2516 
z
" transform="scale(0.015625)"/>
        <path id="DejaVuSans-2d" d="M 313 2009 
L 1997 2009 
L 1997 1497 
L 313 1497 
L 313 2009 
z
" transform="scale(0.015625)"/>
        <path id="DejaVuSans-38" d="M 2034 2216 
Q 1584 2216 1326 1975 
Q 1069 1734 1069 1313 
Q 1069 891 1326 650 
Q 1584 409 2034 409 
Q 2484 409 2743 651 
Q 3003 894 3003 1313 
Q 3003 1734 2745 1975 
Q 2488 2216 2034 2216 
z
M 1403 2484 
Q 997 2584 770 2862 
Q 544 3141 544 3541 
Q 544 4100 942 4425 
Q 1341 4750 2034 4750 
Q 2731 4750 3128 4425 
Q 3525 4100 3525 3541 
Q 3525 3141 3298 2862 
Q 3072 2584 2669 2484 
Q 3125 2378 3379 2068 
Q 3634 1759 3634 1313 
Q 3634 634 3220 271 
Q 2806 -91 2034 -91 
Q 1263 -91 848 271 
Q 434 634 434 1313 
Q 434 1759 690 2068 
Q 947 2378 1403 2484 
z
M 1172 3481 
Q 1172 3119 1398 2916 
Q 1625 2713 2034 2713 
Q 2441 2713 2670 2916 
Q 2900 3119 2900 3481 
Q 2900 3844 2670 4047 
Q 2441 4250 2034 4250 
Q 1625 4250 1398 4047 
Q 1172 3844 1172 3481 
z
" transform="scale(0.015625)"/>
        <path id="DejaVuSans-31" d="M 794 531 
L 1825 531 
L 1825 4091 
L 703 3866 
L 703 4441 
L 1819 4666 
L 2450 4666 
L 2450 531 
L 3481 531 
L 3481 0 
L 794 0 
L 794 531 
z
" transform="scale(0.015625)"/>
        <path id="DejaVuSans-35" d="M 691 4666 
L 3169 4666 
L 3169 4134 
L 1269 4134 
L 1269 2991 
Q 1406 3038 1543 3061 
Q 1681 3084 1819 3084 
Q 2600 3084 3056 2656 
Q 3513 2228 3513 1497 
Q 3513 744 3044 326 
Q 2575 -91 1722 -91 
Q 1428 -91 1123 -41 
Q 819 9 494 109 
L 494 744 
Q 775 591 1075 516 
Q 1375 441 1709 441 
Q 2250 441 2565 725 
Q 2881 1009 2881 1497 
Q 2881 1984 2565 2268 
Q 2250 2553 1709 2553 
Q 1456 2553 1204 2497 
Q 953 2441 691 2322 
L 691 4666 
z
" transform="scale(0.015625)"/>
       </defs>
       <use xlink:href="#DejaVuSans-32"/>
       <use xlink:href="#DejaVuSans-30" x="63.623047"/>
       <use xlink:href="#DejaVuSans-32" x="127.246094"/>
       <use xlink:href="#DejaVuSans-33" x="190.869141"/>
       <use xlink:href="#DejaVuSans-2d" x="254.492188"/>
       <use xlink:href="#DejaVuSans-30" x="290.576172"/>
       <use xlink:href="#DejaVuSans-38" x="354.199219"/>
       <use xlink:href="#DejaVuSans-2d" x="417.822266"/>
       <use xlink:href="#DejaVuSans-31" x="453.90625"/>
       <use xlink:href="#DejaVuSans-35" x="517.529297"/>
      </g>
     </g>
    </g>
    <g id="xtick_2">
     <g id="line2d_2">
      <g>
       <use xlink:href="#ma46439f10e" x="264.994921" y="288" style="stroke: #000000; stroke-width: 0.8"/>
      </g>
     </g>
     <g id="text_2">
      <!-- 2023-09-01 -->
      <g transform="translate(203.35158 337.765903) rotate(-30) scale(0.12 -0.12)">
       <defs>
        <path id="DejaVuSans-39" d="M 703 97 
L 703 672 
Q 941 559 1184 500 
Q 1428 441 1663 441 
Q 2288 441 2617 861 
Q 2947 1281 2994 2138 
Q 2813 1869 2534 1725 
Q 2256 1581 1919 1581 
Q 1219 1581 811 2004 
Q 403 2428 403 3163 
Q 403 3881 828 4315 
Q 1253 4750 1959 4750 
Q 2769 4750 3195 4129 
Q 3622 3509 3622 2328 
Q 3622 1225 3098 567 
Q 2575 -91 1691 -91 
Q 1453 -91 1209 -44 
Q 966 3 703 97 
z
M 1959 2075 
Q 2384 2075 2632 2365 
Q 2881 2656 2881 3163 
Q 2881 3666 2632 3958 
Q 2384 4250 1959 4250 
Q 1534 4250 1286 3958 
Q 1038 3666 1038 3163 
Q 1038 2656 1286 2365 
Q 1534 2075 1959 2075 
z
" transform="scale(0.015625)"/>
       </defs>
       <use xlink:href="#DejaVuSans-32"/>
       <use xlink:href="#DejaVuSans-30" x="63.623047"/>
       <use xlink:href="#DejaVuSans-32" x="127.246094"/>
       <use xlink:href="#DejaVuSans-33" x="190.869141"/>
       <use xlink:href="#DejaVuSans-2d" x="254.492188"/>
       <use xlink:href="#DejaVuSans-30" x="290.576172"/>
       <use xlink:href="#DejaVuSans-39" x="354.199219"/>
       <use xlink:href="#DejaVuSans-2d" x="417.822266"/>
       <use xlink:href="#DejaVuSans-30" x="453.90625"/>
       <use xlink:href="#DejaVuSans-31" x="517.529297"/>
      </g>
     </g>
    </g>
    <g id="xtick_3">
     <g id="line2d_3">
      <g>
       <use xlink:href="#ma46439f10e" x="360.21483" y="288" style="stroke: #000000; stroke-width: 0.8"/>
      </g>
     </g>
     <g id="text_3">
      <!-- 2023-09-15 -->
      <g transform="translate(298.571488 337.765903) rotate(-30) scale(0.12 -0.12)">
       <use xlink:href="#DejaVuSans-32"/>
       <use xlink:href="#DejaVuSans-30" x="63.623047"/>
       <use xlink:href="#DejaVuSans-32" x="127.246094"/>
       <use xlink:href="#DejaVuSans-33" x="190.869141"/>
       <use xlink:href="#DejaVuSans-2d" x="254.492188"/>
       <use xlink:href="#DejaVuSans-30" x="290.576172"/>
       <use xlink:href="#DejaVuSans-39" x="354.199219"/>
       <use xlink:href="#DejaVuSans-2d" x="417.822266"/>
       <use xlink:href="#DejaVuSans-31" x="453.90625"/>
       <use xlink:href="#DejaVuSans-35" x="517.529297"/>
      </g>
     </g>
    </g>
    <g id="xtick_4">
     <g id="line2d_4">
      <g>
       <use xlink:href="#ma46439f10e" x="469.037583" y="288" style="stroke: #000000; stroke-width: 0.8"/>
      </g>
     </g>
     <g id="text_4">
      <!-- 2023-10-01 -->
      <g transform="translate(407.394241 337.765903) rotate(-30) scale(0.12 -0.12)">
       <use xlink:href="#DejaVuSans-32"/>
       <use xlink:href="#DejaVuSans-30" x="63.623047"/>
       <use xlink:href="#DejaVuSans-32" x="127.246094"/>
       <use xlink:href="#DejaVuSans-33" x="190.869141"/>
       <use xlink:href="#DejaVuSans-2d" x="254.492188"/>
       <use xlink:href="#DejaVuSans-31" x="290.576172"/>
       <use xlink:href="#DejaVuSans-30" x="354.199219"/>
       <use xlink:href="#DejaVuSans-2d" x="417.822266"/>
       <use xlink:href="#DejaVuSans-30" x="453.90625"/>
       <use xlink:href="#DejaVuSans-31" x="517.529297"/>
      </g>
     </g>
    </g>
    <g id="xtick_5">
     <g id="line2d_5">
      <g>
       <use xlink:href="#ma46439f10e" x="564.257491" y="288" style="stroke: #000000; stroke-width: 0.8"/>
      </g>
     </g>
     <g id="text_5">
      <!-- 2023-10-15 -->
      <g transform="translate(502.614149 337.765903) rotate(-30) scale(0.12 -0.12)">
       <use xlink:href="#DejaVuSans-32"/>
       <use xlink:href="#DejaVuSans-30" x="63.623047"/>
       <use xlink:href="#DejaVuSans-32" x="127.246094"/>
       <use xlink:href="#DejaVuSans-33" x="190.869141"/>
       <use xlink:href="#DejaVuSans-2d" x="254.492188"/>
       <use xlink:href="#DejaVuSans-31" x="290.576172"/>
       <use xlink:href="#DejaVuSans-30" x="354.199219"/>
       <use xlink:href="#DejaVuSans-2d" x="417.822266"/>
       <use xlink:href="#DejaVuSans-31" x="453.90625"/>
       <use xlink:href="#DejaVuSans-35" x="517.529297"/>
      </g>
     </g>
    </g>
   </g>
   <g id="matplotlib.axis_2">
    <g id="ytick_1">
     <g id="line2d_6">
      <defs>
       <path id="mb1abb94faf" d="M 0 0 
L -3.5 0 
" style="stroke: #000000; stroke-width: 0.8"/>
      </defs>
      <g>
       <use xlink:href="#mb1abb94faf" x="90" y="267.925059" style="stroke: #000000; stroke-width: 0.8"/>
      </g>
     </g>
     <g id="text_6">
      <!-- 0.275 -->
      <g transform="translate(48.64625 272.484121) scale(0.12 -0.12)">
       <defs>
        <path id="DejaVuSans-2e" d="M 684 794 
L 1344 794 
L 1344 0 
L 684 0 
L 684 794 
z
" transform="scale(0.015625)"/>
        <path id="DejaVuSans-37" d="M 525 4666 
L 3525 4666 
L 3525 4397 
L 1831 0 
L 1172 0 
L 2766 4134 
L 525 4134 
L 525 4666 
z
" transform="scale(0.015625)"/>
       </defs>
       <use xlink:href="#DejaVuSans-30"/>
       <use xlink:href="#DejaVuSans-2e" x="63.623047"/>
       <use xlink:href="#DejaVuSans-32" x="95.410156"/>
       <use xlink:href="#DejaVuSans-37" x="159.033203"/>
       <use xlink:href="#DejaVuSans-35" x="222.65625"/>
      </g>
     </g>
    </g>
    <g id="ytick_2">
     <g id="line2d_7">
      <g>
       <use xlink:href="#mb1abb94faf" x="90" y="237.008053" style="stroke: #000000; stroke-width: 0.8"/>
      </g>
     </g>
     <g id="text_7">
      <!-- 0.300 -->
      <g transform="translate(48.64625 241.567116) scale(0.12 -0.12)">
       <use xlink:href="#DejaVuSans-30"/>
       <use xlink:href="#DejaVuSans-2e" x="63.623047"/>
       <use xlink:href="#DejaVuSans-33" x="95.410156"/>
       <use xlink:href="#DejaVuSans-30" x="159.033203"/>
       <use xlink:href="#DejaVuSans-30" x="222.65625"/>
      </g>
     </g>
    </g>
    <g id="ytick_3">
     <g id="line2d_8">
      <g>
       <use xlink:href="#mb1abb94faf" x="90" y="206.091048" style="stroke: #000000; stroke-width: 0.8"/>
      </g>
     </g>
     <g id="text_8">
      <!-- 0.325 -->
      <g transform="translate(48.64625 210.65011) scale(0.12 -0.12)">
       <use xlink:href="#DejaVuSans-30"/>
       <use xlink:href="#DejaVuSans-2e" x="63.623047"/>
       <use xlink:href="#DejaVuSans-33" x="95.410156"/>
       <use xlink:href="#DejaVuSans-32" x="159.033203"/>
       <use xlink:href="#DejaVuSans-35" x="222.65625"/>
      </g>
     </g>
    </g>
    <g id="ytick_4">
     <g id="line2d_9">
      <g>
       <use xlink:href="#mb1abb94faf" x="90" y="175.174042" style="stroke: #000000; stroke-width: 0.8"/>
      </g>
     </g>
     <g id="text_9">
      <!-- 0.350 -->
      <g transform="translate(48.64625 179.733104) scale(0.12 -0.12)">
       <use xlink:href="#DejaVuSans-30"/>
       <use xlink:href="#DejaVuSans-2e" x="63.623047"/>
       <use xlink:href="#DejaVuSans-33" x="95.410156"/>
       <use xlink:href="#DejaVuSans-35" x="159.033203"/>
       <use xlink:href="#DejaVuSans-30" x="222.65625"/>
      </g>
     </g>
    </g>
    <g id="ytick_5">
     <g id="line2d_10">
      <g>
       <use xlink:href="#mb1abb94faf" x="90" y="144.257036" style="stroke: #000000; stroke-width: 0.8"/>
      </g>
     </g>
     <g id="text_10">
      <!-- 0.375 -->
      <g transform="translate(48.64625 148.816099) scale(0.12 -0.12)">
       <use xlink:href="#DejaVuSans-30"/>
       <use xlink:href="#DejaVuSans-2e" x="63.623047"/>
       <use xlink:href="#DejaVuSans-33" x="95.410156"/>
       <use xlink:href="#DejaVuSans-37" x="159.033203"/>
       <use xlink:href="#DejaVuSans-35" x="222.65625"/>
      </g>
     </g>
    </g>
    <g id="ytick_6">
     <g id="line2d_11">
      <g>
       <use xlink:href="#mb1abb94faf" x="90" y="113.340031" style="stroke: #000000; stroke-width: 0.8"/>
      </g>
     </g>
     <g id="text_11">
      <!-- 0.400 -->
      <g transform="translate(48.64625 117.899093) scale(0.12 -0.12)">
       <defs>
        <path id="DejaVuSans-34" d="M 2419 4116 
L 825 1625 
L 2419 1625 
L 2419 4116 
z
M 2253 4666 
L 3047 4666 
L 3047 1625 
L 3713 1625 
L 3713 1100 
L 3047 1100 
L 3047 0 
L 2419 0 
L 2419 1100 
L 313 1100 
L 313 1709 
L 2253 4666 
z
" transform="scale(0.015625)"/>
       </defs>
       <use xlink:href="#DejaVuSans-30"/>
       <use xlink:href="#DejaVuSans-2e" x="63.623047"/>
       <use xlink:href="#DejaVuSans-34" x="95.410156"/>
       <use xlink:href="#DejaVuSans-30" x="159.033203"/>
       <use xlink:href="#DejaVuSans-30" x="222.65625"/>
      </g>
     </g>
    </g>
    <g id="ytick_7">
     <g id="line2d_12">
      <g>
       <use xlink:href="#mb1abb94faf" x="90" y="82.423025" style="stroke: #000000; stroke-width: 0.8"/>
      </g>
     </g>
     <g id="text_12">
      <!-- 0.425 -->
      <g transform="translate(48.64625 86.982087) scale(0.12 -0.12)">
       <use xlink:href="#DejaVuSans-30"/>
       <use xlink:href="#DejaVuSans-2e" x="63.623047"/>
       <use xlink:href="#DejaVuSans-34" x="95.410156"/>
       <use xlink:href="#DejaVuSans-32" x="159.033203"/>
       <use xlink:href="#DejaVuSans-35" x="222.65625"/>
      </g>
     </g>
    </g>
    <g id="ytick_8">
     <g id="line2d_13">
      <g>
       <use xlink:href="#mb1abb94faf" x="90" y="51.506019" style="stroke: #000000; stroke-width: 0.8"/>
      </g>
     </g>
     <g id="text_13">
      <!-- 0.450 -->
      <g transform="translate(48.64625 56.065082) scale(0.12 -0.12)">
       <use xlink:href="#DejaVuSans-30"/>
       <use xlink:href="#DejaVuSans-2e" x="63.623047"/>
       <use xlink:href="#DejaVuSans-34" x="95.410156"/>
       <use xlink:href="#DejaVuSans-35" x="159.033203"/>
       <use xlink:href="#DejaVuSans-30" x="222.65625"/>
      </g>
     </g>
    </g>
    <g id="text_14">
     <!-- Meters -->
     <g transform="translate(42.566563 182.6875) rotate(-90) scale(0.1 -0.1)">
      <defs>
       <path id="DejaVuSans-4d" d="M 628 4666 
L 1569 4666 
L 2759 1491 
L 3956 4666 
L 4897 4666 
L 4897 0 
L 4281 0 
L 4281 4097 
L 3078 897 
L 2444 897 
L 1241 4097 
L 1241 0 
L 628 0 
L 628 4666 
z
" transform="scale(0.015625)"/>
       <path id="DejaVuSans-65" d="M 3597 1894 
L 3597 1613 
L 953 1613 
Q 991 1019 1311 708 
Q 1631 397 2203 397 
Q 2534 397 2845 478 
Q 3156 559 3463 722 
L 3463 178 
Q 3153 47 2828 -22 
Q 2503 -91 2169 -91 
Q 1331 -91 842 396 
Q 353 884 353 1716 
Q 353 2575 817 3079 
Q 1281 3584 2069 3584 
Q 2775 3584 3186 3129 
Q 3597 2675 3597 1894 
z
M 3022 2063 
Q 3016 2534 2758 2815 
Q 2500 3097 2075 3097 
Q 1594 3097 1305 2825 
Q 1016 2553 972 2059 
L 3022 2063 
z
" transform="scale(0.015625)"/>
       <path id="DejaVuSans-74" d="M 1172 4494 
L 1172 3500 
L 2356 3500 
L 2356 3053 
L 1172 3053 
L 1172 1153 
Q 1172 725 1289 603 
Q 1406 481 1766 481 
L 2356 481 
L 2356 0 
L 1766 0 
Q 1100 0 847 248 
Q 594 497 594 1153 
L 594 3053 
L 172 3053 
L 172 3500 
L 594 3500 
L 594 4494 
L 1172 4494 
z
" transform="scale(0.015625)"/>
       <path id="DejaVuSans-72" d="M 2631 2963 
Q 2534 3019 2420 3045 
Q 2306 3072 2169 3072 
Q 1681 3072 1420 2755 
Q 1159 2438 1159 1844 
L 1159 0 
L 581 0 
L 581 3500 
L 1159 3500 
L 1159 2956 
Q 1341 3275 1631 3429 
Q 1922 3584 2338 3584 
Q 2397 3584 2469 3576 
Q 2541 3569 2628 3553 
L 2631 2963 
z
" transform="scale(0.015625)"/>
       <path id="DejaVuSans-73" d="M 2834 3397 
L 2834 2853 
Q 2591 2978 2328 3040 
Q 2066 3103 1784 3103 
Q 1356 3103 1142 2972 
Q 928 2841 928 2578 
Q 928 2378 1081 2264 
Q 1234 2150 1697 2047 
L 1894 2003 
Q 2506 1872 2764 1633 
Q 3022 1394 3022 966 
Q 3022 478 2636 193 
Q 2250 -91 1575 -91 
Q 1294 -91 989 -36 
Q 684 19 347 128 
L 347 722 
Q 666 556 975 473 
Q 1284 391 1588 391 
Q 1994 391 2212 530 
Q 2431 669 2431 922 
Q 2431 1156 2273 1281 
Q 2116 1406 1581 1522 
L 1381 1569 
Q 847 1681 609 1914 
Q 372 2147 372 2553 
Q 372 3047 722 3315 
Q 1072 3584 1716 3584 
Q 2034 3584 2315 3537 
Q 2597 3491 2834 3397 
z
" transform="scale(0.015625)"/>
      </defs>
      <use xlink:href="#DejaVuSans-4d"/>
      <use xlink:href="#DejaVuSans-65" x="86.279297"/>
      <use xlink:href="#DejaVuSans-74" x="147.802734"/>
      <use xlink:href="#DejaVuSans-65" x="187.011719"/>
      <use xlink:href="#DejaVuSans-72" x="248.535156"/>
      <use xlink:href="#DejaVuSans-73" x="289.648438"/>
     </g>
    </g>
   </g>
   <g id="line2d_14">
    <path d="M 115.363636 212.993939 
L 116.213814 207.842424 
L 116.497207 209.078788 
L 116.780599 208.872727 
L 117.063992 210.315152 
L 117.347384 210.521212 
L 117.630777 214.848485 
L 117.91417 215.672727 
L 118.197562 213.612121 
L 118.480955 210.315152 
L 118.764347 202.89697 
L 119.04774 210.521212 
L 119.331133 223.29697 
L 119.614525 228.860606 
L 119.897918 224.533333 
L 120.18131 228.860606 
L 120.464703 230.09697 
L 121.031488 238.133333 
L 121.314881 216.49697 
L 121.598273 229.890909 
L 121.881666 224.121212 
L 122.165058 224.945455 
L 122.448451 221.854545 
L 122.731844 210.521212 
L 123.015236 207.842424 
L 123.298629 209.69697 
L 123.582021 210.315152 
L 123.865414 212.787879 
L 124.432199 213.2 
L 124.715592 214.024242 
L 124.998984 212.993939 
L 125.282377 207.842424 
L 125.565769 200.630303 
L 125.849162 207.018182 
L 126.415947 227.212121 
L 126.69934 223.50303 
L 126.982732 230.09697 
L 127.266125 223.915152 
L 127.549518 222.266667 
L 127.83291 223.709091 
L 128.116303 204.339394 
L 128.399695 210.521212 
L 128.683088 198.775758 
L 128.96648 147.672727 
L 129.533266 109.345455 
L 129.816658 106.048485 
L 130.383443 122.739394 
L 130.950229 131.806061 
L 131.800406 152.824242 
L 132.083799 154.678788 
L 132.367191 149.939394 
L 132.650584 159.624242 
L 132.933977 181.054545 
L 133.217369 181.466667 
L 133.500762 193.212121 
L 133.784154 190.121212 
L 134.634332 213.406061 
L 134.917725 215.260606 
L 135.201117 211.551515 
L 136.051295 190.739394 
L 136.334688 187.648485 
L 136.901473 184.557576 
L 137.184865 184.351515 
L 137.468258 184.763636 
L 137.751651 184.145455 
L 138.035043 184.969697 
L 138.318436 182.49697 
L 138.601828 183.939394 
L 138.885221 183.115152 
L 139.168614 181.672727 
L 139.452006 188.266667 
L 139.735399 202.278788 
L 140.018791 207.842424 
L 140.585576 222.060606 
L 140.868969 222.266667 
L 141.152362 221.236364 
L 141.435754 224.533333 
L 141.719147 212.993939 
L 142.852717 197.333333 
L 143.13611 196.09697 
L 143.419502 198.363636 
L 143.702895 198.363636 
L 143.986287 201.866667 
L 144.26968 201.248485 
L 144.836465 203.515152 
L 145.119858 199.806061 
L 145.40325 201.248485 
L 145.686643 202.072727 
L 145.970036 201.454545 
L 146.253428 206.812121 
L 146.536821 209.284848 
L 146.820213 217.321212 
L 147.103606 215.466667 
L 147.386998 224.327273 
L 147.670391 222.060606 
L 148.237176 210.109091 
L 148.520569 207.224242 
L 148.803961 206.4 
L 149.087354 202.89697 
L 149.370747 189.29697 
L 149.654139 191.769697 
L 149.937532 198.775758 
L 150.220924 197.539394 
L 150.504317 192.387879 
L 150.787709 184.763636 
L 151.071102 169.10303 
L 151.637887 148.290909 
L 151.92128 123.563636 
L 152.204672 134.072727 
L 152.771458 144.787879 
L 153.05485 141.078788 
L 153.338243 145.406061 
L 153.621635 153.236364 
L 154.188421 161.684848 
L 154.471813 168.690909 
L 154.755206 171.369697 
L 155.038598 170.339394 
L 155.888776 173.430303 
L 156.455561 167.660606 
L 156.738954 169.927273 
L 157.022346 169.721212 
L 157.589132 174.666667 
L 157.872524 174.872727 
L 158.439309 181.672727 
L 158.722702 181.878788 
L 159.006094 182.70303 
L 159.289487 184.145455 
L 159.57288 178.581818 
L 159.856272 184.351515 
L 160.423057 209.90303 
L 160.70645 214.436364 
L 161.273235 233.393939 
L 161.556628 235.248485 
L 161.84002 237.927273 
L 162.123413 235.660606 
L 162.406805 228.036364 
L 162.690198 212.169697 
L 163.823768 195.478788 
L 164.107161 194.242424 
L 164.390554 194.242424 
L 164.673946 195.684848 
L 164.957339 196.30303 
L 165.240731 195.478788 
L 165.524124 193.212121 
L 165.807517 193.006061 
L 166.090909 190.945455 
L 166.657694 198.569697 
L 166.941087 209.284848 
L 167.224479 214.436364 
L 167.507872 210.315152 
L 167.791265 197.127273 
L 168.074657 174.872727 
L 168.35805 174.666667 
L 168.641442 155.090909 
L 168.924835 100.072727 
L 169.208228 115.939394 
L 169.775013 111.2 
L 170.058405 113.878788 
L 170.341798 114.084848 
L 170.62519 117.175758 
L 171.191976 139.842424 
L 171.475368 147.672727 
L 172.042153 155.709091 
L 172.608939 162.715152 
L 172.892331 162.715152 
L 173.175724 154.884848 
L 173.459116 162.30303 
L 173.742509 179.612121 
L 174.025901 189.29697 
L 174.309294 191.563636 
L 174.592687 201.660606 
L 174.876079 205.781818 
L 175.159472 211.551515 
L 175.442864 207.636364 
L 175.726257 208.872727 
L 176.00965 205.987879 
L 176.859827 193.830303 
L 177.14322 191.769697 
L 177.710005 189.915152 
L 177.993398 189.29697 
L 178.560183 194.036364 
L 178.843575 193.624242 
L 179.410361 197.539394 
L 179.693753 195.272727 
L 179.977146 186.412121 
L 180.260538 188.884848 
L 180.543931 207.636364 
L 181.110716 225.151515 
L 181.677501 236.89697 
L 181.960894 235.660606 
L 182.244286 237.515152 
L 182.527679 236.278788 
L 183.094464 214.642424 
L 183.661249 198.569697 
L 183.944642 194.036364 
L 184.228035 193.830303 
L 184.79482 193.006061 
L 185.078212 193.418182 
L 185.361605 194.242424 
L 185.644997 193.830303 
L 185.92839 195.478788 
L 186.211783 196.09697 
L 186.495175 194.860606 
L 186.778568 191.769697 
L 187.06196 195.890909 
L 187.345353 212.169697 
L 187.628746 219.793939 
L 188.478923 228.242424 
L 188.762316 234.012121 
L 189.045708 237.515152 
L 189.329101 235.660606 
L 189.612494 220.618182 
L 190.462671 202.278788 
L 190.746064 198.363636 
L 191.312849 195.478788 
L 191.596242 196.09697 
L 191.879634 193.006061 
L 192.44642 199.806061 
L 193.013205 203.10303 
L 193.296597 202.278788 
L 193.57999 198.569697 
L 193.863382 203.515152 
L 194.430168 221.236364 
L 194.996953 229.272727 
L 195.280345 230.30303 
L 195.563738 236.690909 
L 195.847131 238.957576 
L 196.413916 217.939394 
L 196.697308 211.963636 
L 196.980701 208.460606 
L 197.830879 191.975758 
L 198.397664 210.315152 
L 198.681056 206.4 
L 198.964449 206.4 
L 199.247842 205.781818 
L 199.531234 205.575758 
L 199.814627 206.193939 
L 200.098019 205.575758 
L 200.381412 200.218182 
L 200.664804 205.987879 
L 200.948197 217.527273 
L 201.23159 220 
L 201.514982 230.09697 
L 202.081767 227.212121 
L 202.36516 230.30303 
L 202.648553 228.448485 
L 202.931945 229.684848 
L 203.215338 226.181818 
L 203.49873 216.290909 
L 203.782123 212.375758 
L 204.065515 204.957576 
L 204.348908 208.872727 
L 204.632301 204.133333 
L 205.199086 209.284848 
L 205.482478 217.115152 
L 206.049264 210.521212 
L 206.332656 208.666667 
L 206.616049 212.787879 
L 206.899441 206.812121 
L 207.182834 208.048485 
L 207.466227 210.933333 
L 207.749619 208.254545 
L 208.033012 208.048485 
L 208.316404 213.818182 
L 208.599797 214.642424 
L 208.883189 219.587879 
L 209.166582 219.793939 
L 209.449975 222.060606 
L 209.733367 221.648485 
L 210.300152 208.666667 
L 210.866938 206.193939 
L 211.433723 207.842424 
L 211.717115 207.430303 
L 212.000508 206.812121 
L 212.2839 207.430303 
L 212.567293 192.8 
L 212.850686 165.187879 
L 213.134078 157.563636 
L 213.417471 144.375758 
L 213.700863 76.581818 
L 213.984256 95.127273 
L 214.267649 89.769697 
L 214.551041 58.242424 
L 214.834434 56.387879 
L 215.117826 56.8 
L 215.684611 87.50303 
L 215.968004 94.715152 
L 216.818182 133.248485 
L 217.384967 147.466667 
L 217.66836 148.290909 
L 217.951752 161.272727 
L 218.235145 136.545455 
L 218.518537 136.339394 
L 218.80193 54.327273 
L 219.085322 74.727273 
L 219.368715 74.315152 
L 219.652108 70.606061 
L 219.9355 71.636364 
L 220.218893 77.2 
L 222.769426 152.618182 
L 223.052819 156.121212 
L 223.336211 162.30303 
L 223.619604 163.333333 
L 224.186389 150.969697 
L 224.469782 148.49697 
L 224.753174 149.321212 
L 225.036567 151.381818 
L 225.319959 152.618182 
L 225.603352 154.472727 
L 225.886745 155.29697 
L 226.170137 158.593939 
L 226.45353 157.357576 
L 226.736922 160.860606 
L 227.020315 160.036364 
L 227.5871 154.060606 
L 227.870493 156.739394 
L 228.153885 160.860606 
L 228.437278 161.684848 
L 228.72067 166.424242 
L 229.004063 173.636364 
L 229.287456 187.854545 
L 229.570848 185.381818 
L 229.854241 189.50303 
L 230.137633 191.769697 
L 230.421026 180.848485 
L 230.704418 181.054545 
L 231.271204 176.521212 
L 231.554596 176.315152 
L 231.837989 178.375758 
L 232.404774 188.060606 
L 232.688167 186 
L 232.971559 179.818182 
L 233.538344 182.290909 
L 233.821737 181.054545 
L 234.10513 177.551515 
L 234.388522 170.339394 
L 234.671915 173.224242 
L 234.955307 189.29697 
L 235.522092 203.309091 
L 235.805485 207.636364 
L 236.37227 223.29697 
L 236.655663 225.975758 
L 236.939055 225.769697 
L 237.505841 205.163636 
L 238.072626 194.242424 
L 238.356018 193.418182 
L 238.922803 194.654545 
L 239.206196 193.624242 
L 239.489589 194.242424 
L 240.056374 192.8 
L 240.339766 190.945455 
L 240.623159 191.151515 
L 240.906552 188.060606 
L 241.189944 178.581818 
L 241.473337 176.315152 
L 241.756729 195.272727 
L 242.323514 208.872727 
L 242.8903 217.527273 
L 243.173692 221.030303 
L 243.740477 215.672727 
L 244.307263 184.763636 
L 244.874048 164.775758 
L 245.440833 155.915152 
L 245.724225 155.50303 
L 246.007618 155.29697 
L 246.291011 154.472727 
L 246.574403 153.030303 
L 246.857796 153.236364 
L 247.424581 157.563636 
L 247.707974 154.678788 
L 247.991366 149.527273 
L 248.274759 154.884848 
L 248.558151 173.430303 
L 248.841544 177.963636 
L 249.124937 180.230303 
L 249.975114 199.806061 
L 250.541899 194.448485 
L 250.825292 176.109091 
L 251.108685 173.430303 
L 251.392077 175.69697 
L 251.67547 163.127273 
L 251.958862 163.333333 
L 252.242255 164.363636 
L 252.525648 148.084848 
L 252.80904 141.284848 
L 253.092433 147.054545 
L 253.375825 148.49697 
L 253.659218 150.557576 
L 253.94261 149.115152 
L 254.226003 152.412121 
L 254.509396 154.060606 
L 254.792788 157.357576 
L 255.076181 156.533333 
L 255.359573 161.066667 
L 255.642966 169.721212 
L 255.926359 174.254545 
L 256.209751 188.678788 
L 256.776536 203.309091 
L 257.059929 207.430303 
L 257.343321 201.042424 
L 257.626714 185.793939 
L 257.910107 189.29697 
L 258.476892 183.733333 
L 258.760284 180.024242 
L 259.043677 180.024242 
L 259.32707 180.436364 
L 259.893855 177.139394 
L 260.177247 177.551515 
L 260.46064 178.375758 
L 260.744033 180.642424 
L 261.027425 180.436364 
L 261.310818 177.345455 
L 261.59421 167.454545 
L 261.877603 162.715152 
L 262.444388 193.212121 
L 263.011173 204.957576 
L 263.577958 222.472727 
L 263.861351 228.036364 
L 264.144744 225.769697 
L 264.711529 207.842424 
L 264.994921 200.630303 
L 265.278314 198.569697 
L 265.561706 199.187879 
L 265.845099 194.860606 
L 266.128492 195.066667 
L 266.411884 195.684848 
L 266.978669 191.975758 
L 267.262062 192.593939 
L 267.828847 193.006061 
L 268.11224 188.472727 
L 268.395632 180.230303 
L 268.679025 177.139394 
L 269.24581 202.072727 
L 269.812595 210.315152 
L 270.662773 239.575758 
L 270.946166 234.836364 
L 271.229558 216.290909 
L 271.796343 198.363636 
L 272.079736 195.684848 
L 272.363128 195.890909 
L 272.646521 193.624242 
L 272.929914 193.212121 
L 273.213306 193.624242 
L 273.780091 192.181818 
L 274.063484 189.29697 
L 274.346877 188.060606 
L 274.913662 186.618182 
L 275.197054 181.672727 
L 275.480447 172.812121 
L 275.76384 190.533333 
L 276.89741 221.854545 
L 277.180802 217.733333 
L 277.464195 208.254545 
L 277.747588 204.751515 
L 278.314373 180.024242 
L 278.597765 172.812121 
L 278.881158 161.684848 
L 279.447943 155.29697 
L 279.731336 155.29697 
L 280.014728 152.618182 
L 280.298121 152.824242 
L 281.148299 158.8 
L 281.431691 159.624242 
L 281.715084 163.333333 
L 281.998476 161.890909 
L 282.281869 162.30303 
L 282.565262 169.309091 
L 283.132047 195.066667 
L 283.698832 200.630303 
L 284.265617 216.290909 
L 284.54901 216.70303 
L 284.832402 206.193939 
L 285.115795 215.672727 
L 285.399187 208.666667 
L 285.68258 206.4 
L 285.965973 202.278788 
L 286.249365 195.684848 
L 287.099543 201.248485 
L 287.382936 199.187879 
L 287.949721 197.127273 
L 288.233113 196.921212 
L 288.799898 192.387879 
L 289.083291 185.587879 
L 289.650076 209.284848 
L 289.933469 215.878788 
L 290.216861 217.939394 
L 290.500254 219.175758 
L 291.067039 228.448485 
L 291.350432 229.066667 
L 291.633824 217.527273 
L 292.200609 203.515152 
L 292.484002 200.012121 
L 293.050787 197.539394 
L 293.33418 198.569697 
L 293.617572 198.569697 
L 293.900965 198.775758 
L 294.46775 196.30303 
L 294.751143 194.036364 
L 295.034535 195.066667 
L 295.317928 194.860606 
L 295.60132 191.357576 
L 295.884713 186.412121 
L 296.168106 200.630303 
L 297.018283 216.084848 
L 297.301676 218.763636 
L 297.585069 225.769697 
L 297.868461 224.327273 
L 298.151854 227.624242 
L 298.435246 219.381818 
L 298.718639 214.848485 
L 299.002031 199.187879 
L 299.285424 195.890909 
L 299.568817 195.272727 
L 299.852209 192.387879 
L 300.135602 191.769697 
L 300.418994 192.181818 
L 300.702387 189.090909 
L 300.98578 189.915152 
L 301.552565 184.969697 
L 301.835957 183.939394 
L 302.11935 181.260606 
L 302.402743 181.466667 
L 302.686135 186.824242 
L 302.969528 188.678788 
L 303.25292 192.181818 
L 303.536313 190.945455 
L 303.819705 197.745455 
L 304.103098 198.981818 
L 304.386491 210.727273 
L 304.669883 216.084848 
L 304.953276 209.078788 
L 305.236668 205.987879 
L 305.520061 199.187879 
L 305.803454 189.50303 
L 306.086846 194.654545 
L 306.370239 197.745455 
L 306.653631 194.654545 
L 306.937024 189.29697 
L 307.220416 187.236364 
L 307.503809 194.448485 
L 308.070594 198.157576 
L 308.353987 196.509091 
L 308.920772 190.327273 
L 309.204165 192.181818 
L 309.487557 190.739394 
L 310.337735 197.951515 
L 310.621127 215.466667 
L 310.90452 214.436364 
L 311.187913 214.230303 
L 311.471305 218.557576 
L 311.754698 218.351515 
L 312.604876 202.484848 
L 312.888268 201.248485 
L 313.171661 197.951515 
L 313.455053 198.775758 
L 313.738446 201.042424 
L 314.021838 200.218182 
L 314.305231 201.866667 
L 314.588624 202.278788 
L 314.872016 207.430303 
L 315.155409 203.309091 
L 315.438801 201.248485 
L 315.722194 204.133333 
L 316.005587 202.690909 
L 316.288979 202.484848 
L 317.139157 212.581818 
L 317.42255 212.787879 
L 317.705942 213.612121 
L 317.989335 210.727273 
L 318.272727 212.581818 
L 318.55612 211.963636 
L 318.839512 211.963636 
L 319.406298 204.339394 
L 319.68969 203.10303 
L 320.256475 201.660606 
L 320.823261 203.10303 
L 321.106653 202.278788 
L 321.390046 201.042424 
L 321.673438 202.690909 
L 321.956831 201.248485 
L 322.240223 202.89697 
L 322.523616 203.515152 
L 322.807009 203.515152 
L 323.090401 205.781818 
L 323.657186 216.084848 
L 324.223972 230.921212 
L 324.507364 233.806061 
L 324.790757 241.842424 
L 325.074149 239.575758 
L 325.924327 216.084848 
L 326.491112 214.230303 
L 327.624683 233.393939 
L 328.191468 228.654545 
L 329.041646 215.878788 
L 329.325038 212.787879 
L 329.891823 201.248485 
L 330.458608 234.630303 
L 331.025394 252.145455 
L 331.592179 268.630303 
L 331.875571 268.218182 
L 332.158964 262.860606 
L 332.442357 247.612121 
L 332.725749 244.109091 
L 333.292534 227.624242 
L 333.575927 224.945455 
L 333.859319 223.709091 
L 334.142712 218.969697 
L 334.426105 219.381818 
L 334.709497 219.381818 
L 334.99289 217.939394 
L 335.276282 218.969697 
L 335.559675 218.557576 
L 335.843068 219.587879 
L 336.12646 219.381818 
L 336.409853 214.848485 
L 336.693245 215.054545 
L 337.826816 245.963636 
L 338.110208 244.315152 
L 338.960386 216.084848 
L 339.243779 216.290909 
L 339.810564 225.151515 
L 343.211275 194.448485 
L 343.494667 187.442424 
L 343.77806 187.030303 
L 345.478415 244.933333 
L 345.761808 241.018182 
L 346.045201 228.036364 
L 346.328593 225.975758 
L 346.895378 211.139394 
L 347.178771 208.666667 
L 347.462164 209.078788 
L 348.028949 207.430303 
L 348.312341 208.254545 
L 348.595734 209.490909 
L 348.879126 209.078788 
L 349.162519 209.69697 
L 349.445912 211.963636 
L 349.729304 212.581818 
L 350.296089 201.248485 
L 350.862875 234.218182 
L 351.713052 256.884848 
L 351.996445 253.793939 
L 352.279837 255.030303 
L 352.56323 251.939394 
L 352.846623 235.042424 
L 353.130015 232.775758 
L 353.6968 221.442424 
L 353.980193 218.969697 
L 354.263586 217.733333 
L 354.546978 217.321212 
L 354.830371 218.557576 
L 355.113763 217.115152 
L 355.397156 216.70303 
L 355.680549 220.206061 
L 355.963941 221.030303 
L 356.247334 221.442424 
L 356.530726 222.266667 
L 356.814119 217.115152 
L 357.097511 208.666667 
L 357.664297 243.90303 
L 358.514474 273.163636 
L 358.797867 267.187879 
L 359.08126 276.872727 
L 359.931437 240.4 
L 360.21483 232.981818 
L 360.781615 227.830303 
L 361.065008 228.036364 
L 361.3484 228.654545 
L 361.631793 226.8 
L 361.915185 228.448485 
L 362.198578 227.624242 
L 362.481971 229.272727 
L 362.765363 228.448485 
L 363.048756 228.448485 
L 363.332148 227.418182 
L 363.898933 211.963636 
L 364.465719 241.430303 
L 364.749111 250.49697 
L 365.032504 250.084848 
L 365.315896 261.624242 
L 365.599289 258.945455 
L 365.882682 253.587879 
L 366.166074 239.369697 
L 366.449467 235.866667 
L 367.016252 223.915152 
L 367.299644 219.587879 
L 367.583037 219.587879 
L 368.149822 222.472727 
L 368.433215 223.29697 
L 369.283393 227.624242 
L 369.566785 228.242424 
L 369.850178 227.624242 
L 370.13357 225.563636 
L 370.700356 210.933333 
L 370.983748 217.321212 
L 371.267141 237.309091 
L 371.550533 240.4 
L 372.117318 252.351515 
L 372.400711 252.145455 
L 372.967496 238.133333 
L 373.250889 234.218182 
L 373.534281 227.212121 
L 373.817674 223.50303 
L 374.101067 218.145455 
L 374.384459 216.909091 
L 374.667852 214.642424 
L 374.951244 217.321212 
L 375.518029 219.381818 
L 376.084815 221.236364 
L 376.368207 221.030303 
L 376.6516 223.50303 
L 377.218385 219.381818 
L 377.501778 218.763636 
L 377.78517 221.854545 
L 378.068563 242.048485 
L 378.351955 242.254545 
L 378.635348 241.430303 
L 378.91874 245.345455 
L 379.202133 239.781818 
L 379.485526 230.509091 
L 380.052311 224.945455 
L 380.335703 230.30303 
L 380.619096 228.036364 
L 380.902489 221.854545 
L 381.185881 222.884848 
L 381.469274 226.593939 
L 381.752666 227.624242 
L 382.036059 227.624242 
L 382.319451 226.387879 
L 382.602844 226.181818 
L 382.886237 223.50303 
L 383.169629 217.115152 
L 383.453022 214.848485 
L 383.736414 217.321212 
L 384.019807 216.49697 
L 384.3032 216.49697 
L 384.869985 234.836364 
L 385.43677 248.436364 
L 385.720163 251.939394 
L 386.003555 252.557576 
L 386.57034 246.581818 
L 386.853733 244.521212 
L 387.420518 229.272727 
L 387.703911 224.533333 
L 387.987303 224.121212 
L 388.270696 224.121212 
L 388.554088 218.145455 
L 388.837481 216.909091 
L 389.687659 223.915152 
L 389.971051 222.678788 
L 390.537836 224.533333 
L 391.104622 212.787879 
L 391.388014 225.975758 
L 391.671407 246.581818 
L 392.238192 255.442424 
L 392.521585 256.472727 
L 393.08837 248.436364 
L 393.655155 236.072727 
L 395.072118 217.939394 
L 395.35551 218.145455 
L 395.638903 219.587879 
L 395.922296 218.351515 
L 396.489081 226.181818 
L 396.772473 233.6 
L 397.622651 228.654545 
L 397.906044 230.509091 
L 398.189436 234.218182 
L 398.472829 243.078788 
L 398.756221 240.812121 
L 399.039614 241.842424 
L 399.323007 254.824242 
L 399.889792 263.890909 
L 400.173184 258.739394 
L 400.73997 235.454545 
L 401.023362 226.387879 
L 401.306755 222.884848 
L 401.590147 223.29697 
L 401.87354 222.678788 
L 402.156932 222.678788 
L 402.440325 223.29697 
L 402.723718 223.50303 
L 403.00711 223.915152 
L 403.573895 227.006061 
L 403.857288 227.212121 
L 404.140681 226.8 
L 404.707466 217.939394 
L 404.990858 227.212121 
L 405.274251 244.315152 
L 405.557643 244.109091 
L 405.841036 256.060606 
L 406.407821 266.775758 
L 406.691214 265.745455 
L 406.974606 261.006061 
L 407.257999 243.90303 
L 407.824784 228.654545 
L 408.391569 221.442424 
L 408.674962 221.236364 
L 408.958354 222.678788 
L 409.241747 222.884848 
L 409.52514 226.181818 
L 410.091925 225.151515 
L 410.375317 226.387879 
L 410.65871 226.8 
L 410.942103 226.181818 
L 411.508888 219.793939 
L 412.359066 253.175758 
L 412.642458 258.327273 
L 412.925851 256.266667 
L 413.209243 245.551515 
L 413.492636 253.793939 
L 413.776028 251.733333 
L 414.059421 242.872727 
L 414.342814 228.654545 
L 414.626206 228.036364 
L 414.909599 228.654545 
L 415.476384 224.945455 
L 416.043169 225.975758 
L 416.326562 227.212121 
L 416.609954 226.8 
L 416.893347 226.8 
L 417.176739 227.418182 
L 417.460132 229.272727 
L 417.743525 229.890909 
L 418.31031 217.939394 
L 418.593702 224.327273 
L 418.877095 238.339394 
L 419.44388 249.054545 
L 419.727273 256.472727 
L 420.010665 251.115152 
L 420.294058 249.672727 
L 420.57745 249.054545 
L 420.860843 242.666667 
L 421.144236 242.254545 
L 421.711021 231.951515 
L 421.994413 228.242424 
L 422.561199 228.654545 
L 422.844591 227.212121 
L 423.127984 229.066667 
L 423.411376 229.066667 
L 423.694769 224.945455 
L 424.261554 232.981818 
L 424.544947 233.806061 
L 424.828339 227.418182 
L 425.111732 217.733333 
L 425.395124 227.830303 
L 425.678517 244.933333 
L 426.528695 257.709091 
L 426.812087 258.533333 
L 427.09548 261.006061 
L 427.378873 259.151515 
L 427.662265 246.581818 
L 428.512443 221.442424 
L 428.795835 225.975758 
L 429.079228 226.387879 
L 429.362621 230.09697 
L 429.929406 226.387879 
L 430.212798 227.212121 
L 430.779584 227.212121 
L 431.062976 226.181818 
L 431.346369 223.50303 
L 431.629761 224.739394 
L 432.196546 228.860606 
L 432.763332 235.248485 
L 433.046724 232.775758 
L 433.613509 236.484848 
L 434.463687 228.860606 
L 434.74708 227.418182 
L 435.030472 225.151515 
L 435.597257 223.090909 
L 435.88065 224.121212 
L 436.164043 220.412121 
L 436.447435 221.236364 
L 437.01422 224.327273 
L 437.297613 224.945455 
L 437.581006 225.975758 
L 437.864398 225.563636 
L 438.147791 226.387879 
L 438.431183 220.618182 
L 438.714576 220.618182 
L 438.997969 221.236364 
L 439.564754 230.509091 
L 439.848146 221.442424 
L 440.131539 223.29697 
L 440.414931 221.442424 
L 440.698324 223.709091 
L 440.981717 223.709091 
L 441.265109 228.036364 
L 441.548502 228.654545 
L 441.831894 226.181818 
L 442.115287 225.563636 
L 442.39868 225.975758 
L 442.682072 223.090909 
L 442.965465 222.266667 
L 443.248857 220.824242 
L 443.53225 220.412121 
L 443.815642 219.587879 
L 444.382428 217.321212 
L 444.66582 216.49697 
L 444.949213 217.527273 
L 445.232605 217.321212 
L 445.799391 224.327273 
L 446.082783 223.915152 
L 446.366176 229.890909 
L 446.649568 229.890909 
L 446.932961 228.242424 
L 447.216353 225.151515 
L 447.499746 223.915152 
L 447.783139 223.29697 
L 448.066531 220.206061 
L 449.200102 213.612121 
L 449.483494 212.787879 
L 450.050279 200.424242 
L 450.333672 198.775758 
L 450.617064 192.181818 
L 450.900457 149.939394 
L 451.18385 148.909091 
L 451.467242 136.339394 
L 451.750635 129.745455 
L 452.034027 130.775758 
L 453.167598 169.721212 
L 454.017776 186.206061 
L 454.301168 188.884848 
L 454.867953 191.563636 
L 455.718131 194.654545 
L 456.001524 195.066667 
L 456.568309 198.775758 
L 456.851701 198.981818 
L 457.135094 199.6 
L 457.418487 199.806061 
L 457.701879 200.424242 
L 457.985272 201.454545 
L 458.268664 201.660606 
L 458.552057 202.89697 
L 458.835449 202.690909 
L 459.118842 204.339394 
L 459.402235 206.812121 
L 459.96902 219.587879 
L 460.252412 220 
L 460.535805 227.830303 
L 460.819198 229.890909 
L 461.10259 229.890909 
L 461.385983 231.951515 
L 462.23616 219.381818 
L 462.519553 219.793939 
L 462.802946 220 
L 463.369731 224.327273 
L 463.653123 223.709091 
L 463.936516 224.533333 
L 464.503301 218.969697 
L 464.786694 218.557576 
L 465.353479 213.818182 
L 465.636872 216.70303 
L 465.920264 216.70303 
L 466.203657 220.824242 
L 466.770442 242.254545 
L 467.053834 245.757576 
L 467.337227 238.957576 
L 467.62062 243.078788 
L 467.904012 255.854545 
L 468.187405 258.533333 
L 468.75419 228.860606 
L 469.320975 218.557576 
L 469.604368 218.557576 
L 469.88776 219.587879 
L 470.171153 219.381818 
L 470.454545 219.381818 
L 470.737938 220.824242 
L 471.021331 221.030303 
L 471.304723 221.648485 
L 471.588116 221.236364 
L 471.871508 222.884848 
L 472.154901 223.709091 
L 472.438294 221.442424 
L 472.721686 215.054545 
L 473.005079 217.733333 
L 473.288471 241.636364 
L 473.571864 247.2 
L 473.855256 250.290909 
L 474.138649 259.563636 
L 474.422042 257.915152 
L 474.705434 266.157576 
L 474.988827 263.478788 
L 475.555612 232.157576 
L 475.839005 224.533333 
L 476.122397 220.824242 
L 476.40579 218.763636 
L 476.689182 218.145455 
L 477.255967 220.412121 
L 477.822753 220.412121 
L 478.106145 222.472727 
L 478.389538 222.472727 
L 478.67293 222.678788 
L 478.956323 223.915152 
L 479.523108 215.054545 
L 479.806501 220.618182 
L 480.089893 242.254545 
L 480.940071 268.836364 
L 481.223464 259.769697 
L 481.790249 275.430303 
L 482.357034 236.484848 
L 482.640427 227.212121 
L 482.923819 223.709091 
L 483.207212 221.648485 
L 483.490604 220.618182 
L 483.773997 220.824242 
L 484.05739 220.618182 
L 484.340782 221.442424 
L 484.624175 221.030303 
L 484.907567 222.678788 
L 485.19096 222.266667 
L 485.757745 224.121212 
L 486.607923 213.818182 
L 486.891315 241.842424 
L 487.174708 247.612121 
L 487.458101 247.406061 
L 487.741493 258.533333 
L 488.024886 257.915152 
L 488.591671 274.812121 
L 489.158456 241.018182 
L 489.441849 232.569697 
L 490.008634 226.593939 
L 490.575419 219.587879 
L 491.142204 224.945455 
L 491.425597 224.739394 
L 491.708989 224.121212 
L 491.992382 221.854545 
L 492.275775 222.266667 
L 492.559167 220.206061 
L 492.84256 215.878788 
L 493.125952 206.4 
L 493.97613 231.127273 
L 494.542915 243.90303 
L 494.826308 236.89697 
L 495.1097 241.018182 
L 495.393093 257.29697 
L 495.676486 249.466667 
L 496.243271 230.509091 
L 496.526663 227.006061 
L 496.810056 227.006061 
L 497.093448 224.739394 
L 497.376841 224.121212 
L 497.660234 220.618182 
L 497.943626 220.412121 
L 498.227019 217.321212 
L 498.510411 219.175758 
L 498.793804 216.084848 
L 499.077197 219.175758 
L 499.360589 219.175758 
L 499.643982 216.70303 
L 499.927374 215.466667 
L 500.210767 218.145455 
L 500.494159 218.763636 
L 500.777552 226.593939 
L 501.060945 220 
L 501.344337 217.733333 
L 501.62773 213.406061 
L 502.194515 195.890909 
L 502.477908 192.387879 
L 502.7613 190.945455 
L 503.328085 120.678788 
L 503.611478 115.321212 
L 503.89487 124.181818 
L 504.178263 124.387879 
L 504.461656 138.193939 
L 504.745048 143.139394 
L 506.162011 181.672727 
L 506.445404 180.642424 
L 506.728796 180.848485 
L 507.295582 207.224242 
L 507.578974 212.993939 
L 507.862367 216.290909 
L 508.145759 226.387879 
L 508.429152 226.181818 
L 508.712544 229.890909 
L 509.27933 218.763636 
L 509.562722 220.206061 
L 509.846115 211.345455 
L 510.696293 204.957576 
L 510.979685 209.490909 
L 511.263078 207.224242 
L 511.54647 210.521212 
L 511.829863 215.672727 
L 512.113255 216.49697 
L 512.396648 212.993939 
L 512.680041 214.230303 
L 512.963433 209.490909 
L 513.246826 210.727273 
L 513.530218 208.872727 
L 514.380396 234.218182 
L 514.663789 233.806061 
L 514.947181 233.6 
L 515.230574 230.921212 
L 515.513966 242.048485 
L 516.080752 224.986667 
L 524.582529 221.030303 
L 524.865922 215.672727 
L 525.149314 216.084848 
L 525.432707 218.557576 
L 525.7161 219.175758 
L 525.999492 217.527273 
L 526.282885 216.909091 
L 526.566277 218.969697 
L 526.84967 212.787879 
L 527.133062 210.315152 
L 527.416455 225.563636 
L 527.699848 232.157576 
L 527.98324 241.636364 
L 528.266633 241.842424 
L 528.550025 246.993939 
L 528.833418 240.606061 
L 529.116811 242.666667 
L 529.400203 236.072727 
L 529.966988 230.715152 
L 530.250381 231.127273 
L 530.817166 218.969697 
L 531.100559 215.260606 
L 531.383951 222.678788 
L 531.667344 217.733333 
L 531.950736 221.648485 
L 532.234129 222.678788 
L 532.800914 221.442424 
L 533.084307 219.381818 
L 533.367699 220 
L 533.934485 217.527273 
L 534.217877 218.145455 
L 534.50127 221.236364 
L 534.784662 222.060606 
L 535.351447 227.006061 
L 535.918233 222.472727 
L 536.201625 225.769697 
L 536.485018 255.236364 
L 536.76841 264.715152 
L 537.051803 249.878788 
L 537.618588 202.89697 
L 537.901981 198.157576 
L 538.185373 197.539394 
L 538.468766 197.745455 
L 538.752158 197.333333 
L 539.035551 198.363636 
L 539.318944 197.745455 
L 539.602336 198.157576 
L 539.885729 199.393939 
L 540.169121 199.6 
L 540.735907 193.006061 
L 541.019299 194.448485 
L 541.302692 198.363636 
L 541.869477 216.084848 
L 542.152869 233.6 
L 542.436262 237.309091 
L 542.719655 222.266667 
L 543.003047 232.775758 
L 543.28644 234.012121 
L 543.853225 222.060606 
L 544.703403 215.466667 
L 544.986795 215.466667 
L 545.270188 215.672727 
L 545.55358 215.054545 
L 545.836973 213.818182 
L 546.120366 215.054545 
L 546.403758 215.260606 
L 546.687151 211.757576 
L 546.970543 210.727273 
L 547.253936 204.545455 
L 547.537329 207.018182 
L 547.820721 212.581818 
L 548.104114 215.878788 
L 548.387506 221.442424 
L 548.670899 222.678788 
L 548.954292 225.769697 
L 549.237684 231.539394 
L 549.804469 225.975758 
L 550.087862 223.709091 
L 550.371254 225.563636 
L 550.93804 205.575758 
L 551.504825 212.169697 
L 551.788217 213.818182 
L 552.07161 216.70303 
L 552.355003 214.230303 
L 552.638395 213.818182 
L 552.921788 213.818182 
L 553.20518 215.878788 
L 553.771965 221.442424 
L 554.055358 221.030303 
L 554.338751 222.060606 
L 554.622143 224.121212 
L 554.905536 224.739394 
L 555.188928 225.975758 
L 555.472321 223.50303 
L 555.755714 223.50303 
L 556.039106 223.915152 
L 556.605891 219.175758 
L 556.889284 220 
L 557.456069 218.557576 
L 557.739462 220.618182 
L 558.022854 219.381818 
L 558.306247 213.2 
L 558.873032 208.872727 
L 559.156425 209.90303 
L 559.72321 214.436364 
L 560.006602 214.848485 
L 560.289995 216.909091 
L 560.85678 215.054545 
L 561.140173 212.375758 
L 561.423565 211.551515 
L 561.706958 212.375758 
L 562.273743 215.054545 
L 562.557136 213.406061 
L 562.840528 203.10303 
L 563.123921 202.89697 
L 563.407313 201.454545 
L 563.690706 202.072727 
L 563.974099 198.775758 
L 564.257491 190.739394 
L 564.540884 177.345455 
L 564.824276 176.521212 
L 565.107669 182.70303 
L 565.391061 183.939394 
L 565.674454 186.412121 
L 566.241239 195.890909 
L 566.524632 203.927273 
L 566.808024 206.4 
L 567.091417 212.993939 
L 567.658202 203.721212 
L 567.941595 197.127273 
L 568.50838 219.587879 
L 568.791772 219.587879 
L 569.075165 221.442424 
L 569.358558 217.733333 
L 569.64195 215.878788 
L 569.925343 219.175758 
L 570.208735 212.169697 
L 570.492128 211.757576 
L 570.775521 206.812121 
L 571.342306 204.133333 
L 571.625698 204.957576 
L 572.759269 214.436364 
L 573.042661 213.2 
L 573.326054 212.581818 
L 573.609446 211.551515 
L 573.892839 208.666667 
L 574.176232 209.284848 
L 574.459624 207.636364 
L 574.743017 209.490909 
L 575.309802 217.115152 
L 575.593195 217.733333 
L 576.15998 223.50303 
L 576.443372 224.533333 
L 577.010157 212.787879 
L 577.29355 208.872727 
L 577.576943 206.812121 
L 577.860335 205.781818 
L 578.143728 208.666667 
L 578.42712 213.612121 
L 578.993906 215.260606 
L 579.277298 217.321212 
L 579.560691 217.939394 
L 579.844083 217.939394 
L 580.410868 220.618182 
L 580.694261 221.030303 
L 581.261046 216.909091 
L 581.544439 216.70303 
L 581.827831 218.145455 
L 582.394617 224.533333 
L 582.678009 223.915152 
L 582.961402 222.060606 
L 583.244794 223.915152 
L 583.528187 224.739394 
L 583.811579 227.624242 
L 584.094972 228.654545 
L 584.378365 219.587879 
L 584.94515 215.672727 
L 585.228542 222.884848 
L 585.511935 222.472727 
L 585.795328 221.854545 
L 586.07872 219.587879 
L 586.362113 218.763636 
L 586.928898 210.315152 
L 587.212291 209.490909 
L 587.779076 223.090909 
L 588.062468 217.321212 
L 588.345861 205.575758 
L 588.912646 223.29697 
L 589.196039 224.739394 
L 589.479431 230.30303 
L 589.762824 230.921212 
L 590.046216 226.8 
L 590.329609 229.066667 
L 590.613002 234.218182 
L 590.896394 234.218182 
L 591.179787 230.09697 
L 591.463179 220.618182 
L 592.029964 212.375758 
L 592.313357 220 
L 592.59675 222.266667 
L 592.880142 219.587879 
L 593.163535 215.672727 
L 593.446927 215.672727 
L 594.013713 216.084848 
L 594.297105 218.969697 
L 594.580498 211.551515 
L 595.147283 214.024242 
L 595.430675 219.587879 
L 595.714068 218.969697 
L 595.997461 219.175758 
L 596.564246 213.406061 
L 596.847638 210.727273 
L 597.131031 210.933333 
L 597.414424 210.109091 
L 597.697816 208.254545 
L 597.981209 210.521212 
L 598.264601 211.757576 
L 598.547994 211.963636 
L 598.831386 210.109091 
L 599.398172 202.278788 
L 599.681564 198.981818 
L 599.964957 193.006061 
L 600.248349 195.684848 
L 600.531742 184.763636 
L 601.098527 188.060606 
L 601.38192 190.739394 
L 601.665312 191.151515 
L 602.232098 197.539394 
L 602.798883 207.842424 
L 603.082275 211.345455 
L 603.365668 211.963636 
L 603.932453 208.048485 
L 604.215846 203.721212 
L 604.499238 202.484848 
L 604.782631 202.89697 
L 605.066023 206.4 
L 605.916201 204.545455 
L 606.199594 201.454545 
L 606.482986 202.89697 
L 606.766379 202.89697 
L 607.049771 204.339394 
L 607.333164 204.545455 
L 607.616557 208.254545 
L 607.899949 209.90303 
L 608.183342 208.872727 
L 608.466734 211.139394 
L 608.750127 200.630303 
L 609.03352 213.612121 
L 609.316912 213.406061 
L 609.883697 218.145455 
L 610.16709 216.70303 
L 610.450482 216.49697 
L 610.733875 217.939394 
L 611.017268 212.581818 
L 611.584053 210.315152 
L 611.867445 211.757576 
L 612.150838 211.139394 
L 612.434231 211.551515 
L 612.717623 210.727273 
L 613.001016 212.993939 
L 613.284408 212.993939 
L 613.567801 212.169697 
L 613.851193 216.909091 
L 614.134586 219.175758 
L 614.417979 214.024242 
L 614.984764 208.666667 
L 615.268156 202.89697 
L 615.551549 199.393939 
L 616.685119 229.684848 
L 616.968512 234.218182 
L 617.251905 232.569697 
L 617.535297 241.430303 
L 617.81869 243.078788 
L 618.102082 233.393939 
L 618.668867 221.854545 
L 619.235653 217.939394 
L 619.519045 217.527273 
L 620.08583 215.054545 
L 620.652616 215.878788 
L 620.936008 214.436364 
L 621.219401 217.115152 
L 621.502793 216.909091 
L 621.786186 216.909091 
L 622.069578 213.818182 
L 622.636364 205.699394 
L 622.636364 205.699394 
" clip-path="url(#pd43f1dc215)" style="fill: none; stroke: #1f77b4; stroke-width: 1.5; stroke-linecap: square"/>
   </g>
   <g id="line2d_15">
    <path d="M 115.363636 211.308622 
L 115.930422 211.592491 
L 116.213814 208.666667 
L 119.614525 210.519661 
L 119.897918 210.288883 
L 120.18131 209.095259 
L 120.464703 207.327166 
L 120.748095 206.624643 
L 121.314881 207.036129 
L 122.731844 207.85536 
L 123.015236 210.521212 
L 127.83291 212.91526 
L 128.399695 213.197491 
L 128.683088 211.648271 
L 129.533266 195.588505 
L 129.816658 109.345455 
L 130.383443 110.507092 
L 132.933977 116.367102 
L 133.217369 116.621223 
L 133.500762 115.908461 
L 133.784154 114.624511 
L 134.067547 114.351424 
L 134.35094 114.857273 
L 134.917725 115.247752 
L 135.767902 117.047778 
L 136.334688 118.30005 
L 136.61808 187.648485 
L 140.868969 191.469987 
L 143.13611 193.390355 
L 143.419502 196.09697 
L 147.953784 199.217631 
L 148.520569 199.628124 
L 148.803961 199.38008 
L 149.087354 197.694523 
L 149.370747 195.238337 
L 149.654139 190.686332 
L 149.937532 182.690956 
L 150.220924 198.775758 
L 150.504317 195.076394 
L 150.787709 178.799542 
L 151.354495 128.075927 
L 151.637887 110.783912 
L 151.92128 104.142192 
L 152.204672 102.227686 
L 152.488065 101.901595 
L 152.771458 102.119949 
L 153.338243 103.179146 
L 153.905028 104.402154 
L 154.188421 104.648856 
L 154.471813 104.475218 
L 154.755206 103.980385 
L 155.321991 101.733041 
L 156.172169 97.468521 
L 156.455561 96.924019 
L 156.738954 97.078745 
L 157.022346 169.927273 
L 157.589132 170.323245 
L 159.006094 171.796513 
L 163.540376 176.67584 
L 163.823768 198.569697 
L 167.791265 201.167703 
L 168.074657 200.969065 
L 168.35805 197.691492 
L 168.924835 181.523386 
L 169.208228 177.301395 
L 169.49162 174.941271 
L 169.775013 173.649623 
L 170.058405 173.034107 
L 170.341798 172.807071 
L 170.62519 114.084848 
L 171.475368 115.5083 
L 177.14322 126.574655 
L 177.426612 191.769697 
L 182.244286 195.4089 
L 183.944642 196.625055 
L 184.228035 194.036364 
L 189.045708 197.500483 
L 190.746064 198.658138 
L 191.029457 198.363636 
L 195.847131 201.49358 
L 197.547486 202.539576 
L 197.830879 197.951515 
L 202.648553 201.113281 
L 204.348908 202.16991 
L 204.632301 208.872727 
L 210.300152 211.58175 
L 212.2839 212.415535 
L 212.567293 212.260473 
L 212.850686 204.603511 
L 213.134078 168.781473 
L 213.417471 147.359532 
L 213.700863 136.726973 
L 213.984256 131.656817 
L 214.267649 129.182753 
L 214.551041 128.043284 
L 214.834434 127.618983 
L 215.117826 127.592301 
L 215.684611 128.124057 
L 216.818182 129.74027 
L 217.101574 127.591994 
L 217.384967 122.155106 
L 217.66836 118.881118 
L 217.951752 117.323067 
L 218.235145 116.693445 
L 218.518537 116.575438 
L 218.80193 116.744846 
L 219.368715 117.511845 
L 220.785678 120.157444 
L 225.319959 128.806855 
L 229.287456 135.867738 
L 233.254952 142.474349 
L 237.222448 148.656116 
L 238.356018 150.348197 
L 238.639411 193.418182 
L 243.457085 196.930049 
L 245.15744 198.103658 
L 245.440833 160.242424 
L 249.691722 165.629552 
L 250.825292 166.854969 
L 251.108685 166.884473 
L 251.392077 164.918961 
L 251.958862 154.109287 
L 252.242255 163.333333 
L 252.525648 163.192572 
L 252.80904 163.256554 
L 253.375825 163.69101 
L 254.792788 165.30717 
L 258.760284 170.010689 
L 259.043677 180.024242 
L 263.294566 184.161053 
L 267.828847 188.258792 
L 272.363128 192.054289 
L 276.89741 195.569251 
L 281.715084 199.01912 
L 286.532758 202.197663 
L 287.382936 202.732015 
L 287.666328 199.187879 
L 292.200609 202.339364 
L 292.767395 202.715319 
L 293.050787 198.569697 
L 297.585069 201.582582 
L 297.868461 201.056881 
L 298.718639 193.905136 
L 299.002031 192.886125 
L 299.285424 192.392218 
L 299.568817 192.194137 
L 300.135602 192.240658 
L 300.98578 192.726652 
L 303.819705 194.789419 
L 304.103098 195.112381 
L 304.386491 194.559626 
L 304.953276 190.736361 
L 305.236668 188.353654 
L 305.520061 186.926366 
L 305.803454 186.220934 
L 306.086846 185.913083 
L 306.370239 185.835944 
L 306.937024 186.025801 
L 308.070594 186.866901 
L 315.155409 192.64657 
L 319.973083 196.218039 
L 324.790757 199.513665 
L 329.891823 202.726209 
L 334.99289 205.676774 
L 339.810564 208.242188 
L 343.211275 201.248485 
L 343.494667 197.487613 
L 343.77806 195.833759 
L 344.061453 195.353321 
L 344.344845 195.348425 
L 345.195023 195.901716 
L 350.296089 199.517237 
L 356.247334 203.460775 
L 356.530726 220.78303 
L 363.048756 222.723576 
L 363.332148 228.448485 
L 369.850178 229.57291 
L 370.13357 228.201212 
L 376.6516 229.352017 
L 376.934992 221.030303 
L 378.351955 221.438503 
L 378.635348 221.293652 
L 378.91874 220.540175 
L 380.052311 215.269875 
L 380.619096 211.978143 
L 381.185881 208.946036 
L 381.469274 208.333152 
L 381.752666 208.143198 
L 382.319451 208.294082 
L 383.453022 208.876237 
L 383.736414 217.815758 
L 389.971051 219.978413 
L 390.254444 220.07131 
L 390.537836 222.761212 
L 395.35551 224.060698 
L 395.638903 224.058114 
L 395.922296 223.788 
L 396.489081 223.0756 
L 397.055866 223.05295 
L 397.339259 233.393939 
L 403.857288 233.99003 
L 404.140681 227.212121 
L 411.79228 228.616078 
L 412.075673 220.041212 
L 412.642458 220.130217 
L 417.743525 221.662522 
L 418.026917 229.437576 
L 427.662265 230.847536 
L 431.062976 231.293599 
L 431.346369 226.470303 
L 433.896902 226.992137 
L 434.180295 226.81157 
L 434.74708 225.738317 
L 435.597257 223.77263 
L 436.164043 223.841493 
L 437.864398 224.300619 
L 438.147791 225.975758 
L 439.564754 226.227806 
L 439.848146 225.693851 
L 440.698324 222.456367 
L 441.265109 221.337968 
L 441.548502 221.201102 
L 442.965465 221.673334 
L 444.099035 221.947102 
L 444.382428 221.409761 
L 444.66582 219.736033 
L 445.232605 214.918985 
L 445.515998 213.945573 
L 445.799391 213.88657 
L 446.082783 214.030776 
L 446.366176 220.535758 
L 447.499746 220.912156 
L 447.783139 225.481212 
L 448.633316 225.707463 
L 448.916709 225.520592 
L 449.200102 223.847303 
L 449.766887 216.502787 
L 450.050279 215.365719 
L 450.333672 215.463507 
L 450.617064 214.273268 
L 450.900457 210.354462 
L 451.467242 195.123155 
L 451.750635 148.579394 
L 452.31742 143.99578 
L 452.600813 142.598559 
L 452.884205 142.396881 
L 453.734383 143.514801 
L 454.301168 143.633022 
L 454.867953 144.51582 
L 459.118842 151.547552 
L 463.086338 157.639334 
L 465.070086 160.52412 
L 465.353479 218.557576 
L 471.588116 220.644775 
L 471.871508 220.734428 
L 472.154901 221.030303 
L 478.67293 222.873071 
L 478.956323 222.513939 
L 485.474352 224.204117 
L 485.757745 222.266667 
L 492.275775 223.982275 
L 492.559167 221.772121 
L 499.077197 223.538722 
L 499.360589 216.579394 
L 500.494159 216.997955 
L 500.777552 216.811703 
L 501.344337 215.712784 
L 501.62773 215.535583 
L 501.911122 214.83443 
L 502.194515 211.783103 
L 503.044693 194.519219 
L 503.611478 189.317054 
L 504.461656 174.868564 
L 504.745048 174.799452 
L 505.878619 176.124395 
L 506.162011 168.113939 
L 510.129507 173.051368 
L 511.263078 174.434696 
L 511.54647 174.283827 
L 511.829863 172.21583 
L 512.396648 164.747262 
L 512.680041 164.173814 
L 512.963433 212.128485 
L 515.513966 213.301824 
L 515.797359 213.188393 
L 516.080752 212.854882 
L 533.084307 219.437974 
L 533.367699 222.019394 
L 536.485018 222.962506 
L 536.76841 222.943276 
L 537.051803 222.588628 
L 537.618588 221.498047 
L 538.185373 221.59276 
L 539.885729 222.120612 
L 540.169121 197.786667 
L 544.703403 201.049177 
L 546.403758 202.111725 
L 546.687151 201.864319 
L 546.970543 215.590303 
L 550.93804 217.172745 
L 551.221432 217.04867 
L 551.504825 216.599204 
L 552.07161 214.865772 
L 552.638395 212.730892 
L 553.20518 209.368789 
L 553.488573 208.522122 
L 553.771965 215.837576 
L 554.338751 215.904594 
L 555.188928 216.20017 
L 555.472321 216.106672 
L 555.755714 215.469911 
L 556.605891 212.259473 
L 556.889284 212.078713 
L 557.456069 212.214697 
L 557.739462 212.342644 
L 558.022854 212.315312 
L 558.306247 211.951975 
L 558.589639 210.228148 
L 559.72321 194.477396 
L 560.006602 193.72763 
L 560.289995 193.638603 
L 560.573388 193.770876 
L 560.85678 214.848485 
L 561.140173 212.385638 
L 561.423565 208.014006 
L 561.99035 189.09586 
L 562.557136 169.605941 
L 563.407313 150.160339 
L 563.974099 134.087838 
L 564.257491 128.612147 
L 564.540884 125.820443 
L 564.824276 125.000748 
L 565.107669 125.100541 
L 565.674454 126.021585 
L 567.091417 128.677367 
L 567.37481 205.699394 
L 570.775521 207.657597 
L 571.058913 207.486057 
L 571.342306 206.598923 
L 572.192483 201.41965 
L 572.475876 200.552507 
L 572.759269 200.261572 
L 573.326054 200.567701 
L 573.892839 200.959714 
L 574.176232 212.128485 
L 579.844083 214.631518 
L 580.694261 214.986424 
L 580.977654 220.78303 
L 587.495683 222.723576 
L 587.779076 208.172121 
L 593.163535 210.904241 
L 594.297105 211.44841 
L 594.580498 215.837576 
L 594.86389 215.83208 
L 595.147283 215.389494 
L 595.430675 214.13691 
L 596.847638 203.717372 
L 597.131031 202.99617 
L 597.414424 202.680521 
L 597.697816 201.253476 
L 598.264601 190.764817 
L 598.831386 180.017277 
L 599.114779 177.697996 
L 599.398172 176.913401 
L 599.681564 176.858656 
L 600.248349 177.327761 
L 601.098527 178.208964 
L 601.38192 185.670303 
L 603.082275 187.203399 
L 603.365668 187.115561 
L 603.64906 186.238697 
L 604.215846 182.604166 
L 605.066023 176.675735 
L 605.349416 175.970359 
L 605.632809 175.846344 
L 606.199594 176.271215 
L 607.899949 178.053231 
L 608.183342 207.924848 
L 609.883697 208.748363 
L 610.733875 208.855662 
L 611.30066 208.645734 
L 611.584053 208.251054 
L 611.867445 206.753971 
L 612.434231 200.420271 
L 613.284408 183.042913 
L 613.567801 180.809389 
L 613.851193 179.681305 
L 614.134586 179.153864 
L 614.417979 178.963658 
L 614.701371 178.96744 
L 614.984764 214.848485 
L 621.502793 217.306093 
L 621.786186 216.826667 
L 622.636364 217.137625 
L 622.636364 217.137625 
" clip-path="url(#pd43f1dc215)" style="fill: none; stroke: #ff7f0e; stroke-width: 1.5; stroke-linecap: square"/>
   </g>
   <g id="patch_3">
    <path d="M 90 288 
L 90 43.2 
" style="fill: none; stroke: #000000; stroke-width: 0.8; stroke-linejoin: miter; stroke-linecap: square"/>
   </g>
   <g id="patch_4">
    <path d="M 648 288 
L 648 43.2 
" style="fill: none; stroke: #000000; stroke-width: 0.8; stroke-linejoin: miter; stroke-linecap: square"/>
   </g>
   <g id="patch_5">
    <path d="M 90 288 
L 648 288 
" style="fill: none; stroke: #000000; stroke-width: 0.8; stroke-linejoin: miter; stroke-linecap: square"/>
   </g>
   <g id="patch_6">
    <path d="M 90 43.2 
L 648 43.2 
" style="fill: none; stroke: #000000; stroke-width: 0.8; stroke-linejoin: miter; stroke-linecap: square"/>
   </g>
   <g id="text_15">
    <!-- ARB028 -->
    <g transform="translate(345.1575 37.2) scale(0.12 -0.12)">
     <defs>
      <path id="DejaVuSans-41" d="M 2188 4044 
L 1331 1722 
L 3047 1722 
L 2188 4044 
z
M 1831 4666 
L 2547 4666 
L 4325 0 
L 3669 0 
L 3244 1197 
L 1141 1197 
L 716 0 
L 50 0 
L 1831 4666 
z
" transform="scale(0.015625)"/>
      <path id="DejaVuSans-52" d="M 2841 2188 
Q 3044 2119 3236 1894 
Q 3428 1669 3622 1275 
L 4263 0 
L 3584 0 
L 2988 1197 
Q 2756 1666 2539 1819 
Q 2322 1972 1947 1972 
L 1259 1972 
L 1259 0 
L 628 0 
L 628 4666 
L 2053 4666 
Q 2853 4666 3247 4331 
Q 3641 3997 3641 3322 
Q 3641 2881 3436 2590 
Q 3231 2300 2841 2188 
z
M 1259 4147 
L 1259 2491 
L 2053 2491 
Q 2509 2491 2742 2702 
Q 2975 2913 2975 3322 
Q 2975 3731 2742 3939 
Q 2509 4147 2053 4147 
L 1259 4147 
z
" transform="scale(0.015625)"/>
      <path id="DejaVuSans-42" d="M 1259 2228 
L 1259 519 
L 2272 519 
Q 2781 519 3026 730 
Q 3272 941 3272 1375 
Q 3272 1813 3026 2020 
Q 2781 2228 2272 2228 
L 1259 2228 
z
M 1259 4147 
L 1259 2741 
L 2194 2741 
Q 2656 2741 2882 2914 
Q 3109 3088 3109 3444 
Q 3109 3797 2882 3972 
Q 2656 4147 2194 4147 
L 1259 4147 
z
M 628 4666 
L 2241 4666 
Q 2963 4666 3353 4366 
Q 3744 4066 3744 3513 
Q 3744 3084 3544 2831 
Q 3344 2578 2956 2516 
Q 3422 2416 3680 2098 
Q 3938 1781 3938 1306 
Q 3938 681 3513 340 
Q 3088 0 2303 0 
L 628 0 
L 628 4666 
z
" transform="scale(0.015625)"/>
     </defs>
     <use xlink:href="#DejaVuSans-41"/>
     <use xlink:href="#DejaVuSans-52" x="68.408203"/>
     <use xlink:href="#DejaVuSans-42" x="137.890625"/>
     <use xlink:href="#DejaVuSans-30" x="206.494141"/>
     <use xlink:href="#DejaVuSans-32" x="270.117188"/>
     <use xlink:href="#DejaVuSans-38" x="333.740234"/>
    </g>
   </g>
   <g id="legend_1">
    <g id="patch_7">
     <path d="M 559.04375 80.55625 
L 641 80.55625 
Q 643 80.55625 643 78.55625 
L 643 50.2 
Q 643 48.2 641 48.2 
L 559.04375 48.2 
Q 557.04375 48.2 557.04375 50.2 
L 557.04375 78.55625 
Q 557.04375 80.55625 559.04375 80.55625 
z
" style="fill: #ffffff; opacity: 0.8; stroke: #cccccc; stroke-linejoin: miter"/>
    </g>
    <g id="line2d_16">
     <path d="M 561.04375 56.298437 
L 571.04375 56.298437 
L 581.04375 56.298437 
" style="fill: none; stroke: #1f77b4; stroke-width: 1.5; stroke-linecap: square"/>
    </g>
    <g id="text_16">
     <!-- measured -->
     <g transform="translate(589.04375 59.798437) scale(0.1 -0.1)">
      <defs>
       <path id="DejaVuSans-6d" d="M 3328 2828 
Q 3544 3216 3844 3400 
Q 4144 3584 4550 3584 
Q 5097 3584 5394 3201 
Q 5691 2819 5691 2113 
L 5691 0 
L 5113 0 
L 5113 2094 
Q 5113 2597 4934 2840 
Q 4756 3084 4391 3084 
Q 3944 3084 3684 2787 
Q 3425 2491 3425 1978 
L 3425 0 
L 2847 0 
L 2847 2094 
Q 2847 2600 2669 2842 
Q 2491 3084 2119 3084 
Q 1678 3084 1418 2786 
Q 1159 2488 1159 1978 
L 1159 0 
L 581 0 
L 581 3500 
L 1159 3500 
L 1159 2956 
Q 1356 3278 1631 3431 
Q 1906 3584 2284 3584 
Q 2666 3584 2933 3390 
Q 3200 3197 3328 2828 
z
" transform="scale(0.015625)"/>
       <path id="DejaVuSans-61" d="M 2194 1759 
Q 1497 1759 1228 1600 
Q 959 1441 959 1056 
Q 959 750 1161 570 
Q 1363 391 1709 391 
Q 2188 391 2477 730 
Q 2766 1069 2766 1631 
L 2766 1759 
L 2194 1759 
z
M 3341 1997 
L 3341 0 
L 2766 0 
L 2766 531 
Q 2569 213 2275 61 
Q 1981 -91 1556 -91 
Q 1019 -91 701 211 
Q 384 513 384 1019 
Q 384 1609 779 1909 
Q 1175 2209 1959 2209 
L 2766 2209 
L 2766 2266 
Q 2766 2663 2505 2880 
Q 2244 3097 1772 3097 
Q 1472 3097 1187 3025 
Q 903 2953 641 2809 
L 641 3341 
Q 956 3463 1253 3523 
Q 1550 3584 1831 3584 
Q 2591 3584 2966 3190 
Q 3341 2797 3341 1997 
z
" transform="scale(0.015625)"/>
       <path id="DejaVuSans-75" d="M 544 1381 
L 544 3500 
L 1119 3500 
L 1119 1403 
Q 1119 906 1312 657 
Q 1506 409 1894 409 
Q 2359 409 2629 706 
Q 2900 1003 2900 1516 
L 2900 3500 
L 3475 3500 
L 3475 0 
L 2900 0 
L 2900 538 
Q 2691 219 2414 64 
Q 2138 -91 1772 -91 
Q 1169 -91 856 284 
Q 544 659 544 1381 
z
M 1991 3584 
L 1991 3584 
z
" transform="scale(0.015625)"/>
       <path id="DejaVuSans-64" d="M 2906 2969 
L 2906 4863 
L 3481 4863 
L 3481 0 
L 2906 0 
L 2906 525 
Q 2725 213 2448 61 
Q 2172 -91 1784 -91 
Q 1150 -91 751 415 
Q 353 922 353 1747 
Q 353 2572 751 3078 
Q 1150 3584 1784 3584 
Q 2172 3584 2448 3432 
Q 2725 3281 2906 2969 
z
M 947 1747 
Q 947 1113 1208 752 
Q 1469 391 1925 391 
Q 2381 391 2643 752 
Q 2906 1113 2906 1747 
Q 2906 2381 2643 2742 
Q 2381 3103 1925 3103 
Q 1469 3103 1208 2742 
Q 947 2381 947 1747 
z
" transform="scale(0.015625)"/>
      </defs>
      <use xlink:href="#DejaVuSans-6d"/>
      <use xlink:href="#DejaVuSans-65" x="97.412109"/>
      <use xlink:href="#DejaVuSans-61" x="158.935547"/>
      <use xlink:href="#DejaVuSans-73" x="220.214844"/>
      <use xlink:href="#DejaVuSans-75" x="272.314453"/>
      <use xlink:href="#DejaVuSans-72" x="335.693359"/>
      <use xlink:href="#DejaVuSans-65" x="374.556641"/>
      <use xlink:href="#DejaVuSans-64" x="436.080078"/>
     </g>
    </g>
    <g id="line2d_17">
     <path d="M 561.04375 70.976562 
L 571.04375 70.976562 
L 581.04375 70.976562 
" style="fill: none; stroke: #ff7f0e; stroke-width: 1.5; stroke-linecap: square"/>
    </g>
    <g id="text_17">
     <!-- predicted -->
     <g transform="translate(589.04375 74.476562) scale(0.1 -0.1)">
      <defs>
       <path id="DejaVuSans-70" d="M 1159 525 
L 1159 -1331 
L 581 -1331 
L 581 3500 
L 1159 3500 
L 1159 2969 
Q 1341 3281 1617 3432 
Q 1894 3584 2278 3584 
Q 2916 3584 3314 3078 
Q 3713 2572 3713 1747 
Q 3713 922 3314 415 
Q 2916 -91 2278 -91 
Q 1894 -91 1617 61 
Q 1341 213 1159 525 
z
M 3116 1747 
Q 3116 2381 2855 2742 
Q 2594 3103 2138 3103 
Q 1681 3103 1420 2742 
Q 1159 2381 1159 1747 
Q 1159 1113 1420 752 
Q 1681 391 2138 391 
Q 2594 391 2855 752 
Q 3116 1113 3116 1747 
z
" transform="scale(0.015625)"/>
       <path id="DejaVuSans-69" d="M 603 3500 
L 1178 3500 
L 1178 0 
L 603 0 
L 603 3500 
z
M 603 4863 
L 1178 4863 
L 1178 4134 
L 603 4134 
L 603 4863 
z
" transform="scale(0.015625)"/>
       <path id="DejaVuSans-63" d="M 3122 3366 
L 3122 2828 
Q 2878 2963 2633 3030 
Q 2388 3097 2138 3097 
Q 1578 3097 1268 2742 
Q 959 2388 959 1747 
Q 959 1106 1268 751 
Q 1578 397 2138 397 
Q 2388 397 2633 464 
Q 2878 531 3122 666 
L 3122 134 
Q 2881 22 2623 -34 
Q 2366 -91 2075 -91 
Q 1284 -91 818 406 
Q 353 903 353 1747 
Q 353 2603 823 3093 
Q 1294 3584 2113 3584 
Q 2378 3584 2631 3529 
Q 2884 3475 3122 3366 
z
" transform="scale(0.015625)"/>
      </defs>
      <use xlink:href="#DejaVuSans-70"/>
      <use xlink:href="#DejaVuSans-72" x="63.476562"/>
      <use xlink:href="#DejaVuSans-65" x="102.339844"/>
      <use xlink:href="#DejaVuSans-64" x="163.863281"/>
      <use xlink:href="#DejaVuSans-69" x="227.339844"/>
      <use xlink:href="#DejaVuSans-63" x="255.123047"/>
      <use xlink:href="#DejaVuSans-74" x="310.103516"/>
      <use xlink:href="#DejaVuSans-65" x="349.3125"/>
      <use xlink:href="#DejaVuSans-64" x="410.835938"/>
     </g>
    </g>
   </g>
  </g>
 </g>
 <defs>
  <clipPath id="pd43f1dc215">
   <rect x="90" y="43.2" width="558" height="244.8"/>
  </clipPath>
 </defs>
</svg>
