<?xml version="1.0" encoding="utf-8" standalone="no"?>
<!DOCTYPE svg PUBLIC "-//W3C//DTD SVG 1.1//EN"
  "http://www.w3.org/Graphics/SVG/1.1/DTD/svg11.dtd">
<svg xmlns:xlink="http://www.w3.org/1999/xlink" width="712.96pt" height="351.43625pt" viewBox="0 0 712.96 351.43625" xmlns="http://www.w3.org/2000/svg" version="1.1">
 <metadata>
  <rdf:RDF xmlns:dc="http://purl.org/dc/elements/1.1/" xmlns:cc="http://creativecommons.org/ns#" xmlns:rdf="http://www.w3.org/1999/02/22-rdf-syntax-ns#">
   <cc:Work>
    <dc:type rdf:resource="http://purl.org/dc/dcmitype/StillImage"/>
    <dc:date>2024-05-12T11:53:53.439510</dc:date>
    <dc:format>image/svg+xml</dc:format>
    <dc:creator>
     <cc:Agent>
      <dc:title>Matplotlib v3.8.4, https://matplotlib.org/</dc:title>
     </cc:Agent>
    </dc:creator>
   </cc:Work>
  </rdf:RDF>
 </metadata>
 <defs>
  <style type="text/css">*{stroke-linejoin: round; stroke-linecap: butt}</style>
 </defs>
 <g id="figure_1">
  <g id="patch_1">
   <path d="M 0 351.43625 
L 712.96 351.43625 
L 712.96 0 
L 0 0 
z
" style="fill: #ffffff"/>
  </g>
  <g id="axes_1">
   <g id="patch_2">
    <path d="M 39.65 327.558125 
L 705.76 327.558125 
L 705.76 22.318125 
L 39.65 22.318125 
z
" style="fill: #ffffff"/>
   </g>
   <g id="matplotlib.axis_1">
    <g id="xtick_1">
     <g id="line2d_1">
      <defs>
       <path id="m611216e604" d="M 0 0 
L 0 3.5 
" style="stroke: #000000; stroke-width: 0.8"/>
      </defs>
      <g>
       <use xlink:href="#m611216e604" x="133.210299" y="327.558125" style="stroke: #000000; stroke-width: 0.8"/>
      </g>
     </g>
     <g id="text_1">
      <!-- 2018 -->
      <g transform="translate(120.485299 342.156563) scale(0.1 -0.1)">
       <defs>
        <path id="DejaVuSans-32" d="M 1228 531 
L 3431 531 
L 3431 0 
L 469 0 
L 469 531 
Q 828 903 1448 1529 
Q 2069 2156 2228 2338 
Q 2531 2678 2651 2914 
Q 2772 3150 2772 3378 
Q 2772 3750 2511 3984 
Q 2250 4219 1831 4219 
Q 1534 4219 1204 4116 
Q 875 4013 500 3803 
L 500 4441 
Q 881 4594 1212 4672 
Q 1544 4750 1819 4750 
Q 2544 4750 2975 4387 
Q 3406 4025 3406 3419 
Q 3406 3131 3298 2873 
Q 3191 2616 2906 2266 
Q 2828 2175 2409 1742 
Q 1991 1309 1228 531 
z
" transform="scale(0.015625)"/>
        <path id="DejaVuSans-30" d="M 2034 4250 
Q 1547 4250 1301 3770 
Q 1056 3291 1056 2328 
Q 1056 1369 1301 889 
Q 1547 409 2034 409 
Q 2525 409 2770 889 
Q 3016 1369 3016 2328 
Q 3016 3291 2770 3770 
Q 2525 4250 2034 4250 
z
M 2034 4750 
Q 2819 4750 3233 4129 
Q 3647 3509 3647 2328 
Q 3647 1150 3233 529 
Q 2819 -91 2034 -91 
Q 1250 -91 836 529 
Q 422 1150 422 2328 
Q 422 3509 836 4129 
Q 1250 4750 2034 4750 
z
" transform="scale(0.015625)"/>
        <path id="DejaVuSans-31" d="M 794 531 
L 1825 531 
L 1825 4091 
L 703 3866 
L 703 4441 
L 1819 4666 
L 2450 4666 
L 2450 531 
L 3481 531 
L 3481 0 
L 794 0 
L 794 531 
z
" transform="scale(0.015625)"/>
        <path id="DejaVuSans-38" d="M 2034 2216 
Q 1584 2216 1326 1975 
Q 1069 1734 1069 1313 
Q 1069 891 1326 650 
Q 1584 409 2034 409 
Q 2484 409 2743 651 
Q 3003 894 3003 1313 
Q 3003 1734 2745 1975 
Q 2488 2216 2034 2216 
z
M 1403 2484 
Q 997 2584 770 2862 
Q 544 3141 544 3541 
Q 544 4100 942 4425 
Q 1341 4750 2034 4750 
Q 2731 4750 3128 4425 
Q 3525 4100 3525 3541 
Q 3525 3141 3298 2862 
Q 3072 2584 2669 2484 
Q 3125 2378 3379 2068 
Q 3634 1759 3634 1313 
Q 3634 634 3220 271 
Q 2806 -91 2034 -91 
Q 1263 -91 848 271 
Q 434 634 434 1313 
Q 434 1759 690 2068 
Q 947 2378 1403 2484 
z
M 1172 3481 
Q 1172 3119 1398 2916 
Q 1625 2713 2034 2713 
Q 2441 2713 2670 2916 
Q 2900 3119 2900 3481 
Q 2900 3844 2670 4047 
Q 2441 4250 2034 4250 
Q 1625 4250 1398 4047 
Q 1172 3844 1172 3481 
z
" transform="scale(0.015625)"/>
       </defs>
       <use xlink:href="#DejaVuSans-32"/>
       <use xlink:href="#DejaVuSans-30" x="63.623047"/>
       <use xlink:href="#DejaVuSans-31" x="127.246094"/>
       <use xlink:href="#DejaVuSans-38" x="190.869141"/>
      </g>
     </g>
    </g>
    <g id="xtick_2">
     <g id="line2d_2">
      <g>
       <use xlink:href="#m611216e604" x="255.909576" y="327.558125" style="stroke: #000000; stroke-width: 0.8"/>
      </g>
     </g>
     <g id="text_2">
      <!-- 2019 -->
      <g transform="translate(243.184576 342.156563) scale(0.1 -0.1)">
       <defs>
        <path id="DejaVuSans-39" d="M 703 97 
L 703 672 
Q 941 559 1184 500 
Q 1428 441 1663 441 
Q 2288 441 2617 861 
Q 2947 1281 2994 2138 
Q 2813 1869 2534 1725 
Q 2256 1581 1919 1581 
Q 1219 1581 811 2004 
Q 403 2428 403 3163 
Q 403 3881 828 4315 
Q 1253 4750 1959 4750 
Q 2769 4750 3195 4129 
Q 3622 3509 3622 2328 
Q 3622 1225 3098 567 
Q 2575 -91 1691 -91 
Q 1453 -91 1209 -44 
Q 966 3 703 97 
z
M 1959 2075 
Q 2384 2075 2632 2365 
Q 2881 2656 2881 3163 
Q 2881 3666 2632 3958 
Q 2384 4250 1959 4250 
Q 1534 4250 1286 3958 
Q 1038 3666 1038 3163 
Q 1038 2656 1286 2365 
Q 1534 2075 1959 2075 
z
" transform="scale(0.015625)"/>
       </defs>
       <use xlink:href="#DejaVuSans-32"/>
       <use xlink:href="#DejaVuSans-30" x="63.623047"/>
       <use xlink:href="#DejaVuSans-31" x="127.246094"/>
       <use xlink:href="#DejaVuSans-39" x="190.869141"/>
      </g>
     </g>
    </g>
    <g id="xtick_3">
     <g id="line2d_3">
      <g>
       <use xlink:href="#m611216e604" x="378.608852" y="327.558125" style="stroke: #000000; stroke-width: 0.8"/>
      </g>
     </g>
     <g id="text_3">
      <!-- 2020 -->
      <g transform="translate(365.883852 342.156563) scale(0.1 -0.1)">
       <use xlink:href="#DejaVuSans-32"/>
       <use xlink:href="#DejaVuSans-30" x="63.623047"/>
       <use xlink:href="#DejaVuSans-32" x="127.246094"/>
       <use xlink:href="#DejaVuSans-30" x="190.869141"/>
      </g>
     </g>
    </g>
    <g id="xtick_4">
     <g id="line2d_4">
      <g>
       <use xlink:href="#m611216e604" x="501.644291" y="327.558125" style="stroke: #000000; stroke-width: 0.8"/>
      </g>
     </g>
     <g id="text_4">
      <!-- 2021 -->
      <g transform="translate(488.919291 342.156563) scale(0.1 -0.1)">
       <use xlink:href="#DejaVuSans-32"/>
       <use xlink:href="#DejaVuSans-30" x="63.623047"/>
       <use xlink:href="#DejaVuSans-32" x="127.246094"/>
       <use xlink:href="#DejaVuSans-31" x="190.869141"/>
      </g>
     </g>
    </g>
    <g id="xtick_5">
     <g id="line2d_5">
      <g>
       <use xlink:href="#m611216e604" x="624.343567" y="327.558125" style="stroke: #000000; stroke-width: 0.8"/>
      </g>
     </g>
     <g id="text_5">
      <!-- 2022 -->
      <g transform="translate(611.618567 342.156563) scale(0.1 -0.1)">
       <use xlink:href="#DejaVuSans-32"/>
       <use xlink:href="#DejaVuSans-30" x="63.623047"/>
       <use xlink:href="#DejaVuSans-32" x="127.246094"/>
       <use xlink:href="#DejaVuSans-32" x="190.869141"/>
      </g>
     </g>
    </g>
   </g>
   <g id="matplotlib.axis_2">
    <g id="ytick_1">
     <g id="line2d_6">
      <defs>
       <path id="mc17c53edad" d="M 0 0 
L -3.5 0 
" style="stroke: #000000; stroke-width: 0.8"/>
      </defs>
      <g>
       <use xlink:href="#mc17c53edad" x="39.65" y="313.68358" style="stroke: #000000; stroke-width: 0.8"/>
      </g>
     </g>
     <g id="text_6">
      <!-- 0 -->
      <g transform="translate(26.2875 317.482798) scale(0.1 -0.1)">
       <use xlink:href="#DejaVuSans-30"/>
      </g>
     </g>
    </g>
    <g id="ytick_2">
     <g id="line2d_7">
      <g>
       <use xlink:href="#mc17c53edad" x="39.65" y="269.124622" style="stroke: #000000; stroke-width: 0.8"/>
      </g>
     </g>
     <g id="text_7">
      <!-- 1000 -->
      <g transform="translate(7.2 272.923841) scale(0.1 -0.1)">
       <use xlink:href="#DejaVuSans-31"/>
       <use xlink:href="#DejaVuSans-30" x="63.623047"/>
       <use xlink:href="#DejaVuSans-30" x="127.246094"/>
       <use xlink:href="#DejaVuSans-30" x="190.869141"/>
      </g>
     </g>
    </g>
    <g id="ytick_3">
     <g id="line2d_8">
      <g>
       <use xlink:href="#mc17c53edad" x="39.65" y="224.565664" style="stroke: #000000; stroke-width: 0.8"/>
      </g>
     </g>
     <g id="text_8">
      <!-- 2000 -->
      <g transform="translate(7.2 228.364883) scale(0.1 -0.1)">
       <use xlink:href="#DejaVuSans-32"/>
       <use xlink:href="#DejaVuSans-30" x="63.623047"/>
       <use xlink:href="#DejaVuSans-30" x="127.246094"/>
       <use xlink:href="#DejaVuSans-30" x="190.869141"/>
      </g>
     </g>
    </g>
    <g id="ytick_4">
     <g id="line2d_9">
      <g>
       <use xlink:href="#mc17c53edad" x="39.65" y="180.006706" style="stroke: #000000; stroke-width: 0.8"/>
      </g>
     </g>
     <g id="text_9">
      <!-- 3000 -->
      <g transform="translate(7.2 183.805925) scale(0.1 -0.1)">
       <defs>
        <path id="DejaVuSans-33" d="M 2597 2516 
Q 3050 2419 3304 2112 
Q 3559 1806 3559 1356 
Q 3559 666 3084 287 
Q 2609 -91 1734 -91 
Q 1441 -91 1130 -33 
Q 819 25 488 141 
L 488 750 
Q 750 597 1062 519 
Q 1375 441 1716 441 
Q 2309 441 2620 675 
Q 2931 909 2931 1356 
Q 2931 1769 2642 2001 
Q 2353 2234 1838 2234 
L 1294 2234 
L 1294 2753 
L 1863 2753 
Q 2328 2753 2575 2939 
Q 2822 3125 2822 3475 
Q 2822 3834 2567 4026 
Q 2313 4219 1838 4219 
Q 1578 4219 1281 4162 
Q 984 4106 628 3988 
L 628 4550 
Q 988 4650 1302 4700 
Q 1616 4750 1894 4750 
Q 2613 4750 3031 4423 
Q 3450 4097 3450 3541 
Q 3450 3153 3228 2886 
Q 3006 2619 2597 2516 
z
" transform="scale(0.015625)"/>
       </defs>
       <use xlink:href="#DejaVuSans-33"/>
       <use xlink:href="#DejaVuSans-30" x="63.623047"/>
       <use xlink:href="#DejaVuSans-30" x="127.246094"/>
       <use xlink:href="#DejaVuSans-30" x="190.869141"/>
      </g>
     </g>
    </g>
    <g id="ytick_5">
     <g id="line2d_10">
      <g>
       <use xlink:href="#mc17c53edad" x="39.65" y="135.447749" style="stroke: #000000; stroke-width: 0.8"/>
      </g>
     </g>
     <g id="text_10">
      <!-- 4000 -->
      <g transform="translate(7.2 139.246967) scale(0.1 -0.1)">
       <defs>
        <path id="DejaVuSans-34" d="M 2419 4116 
L 825 1625 
L 2419 1625 
L 2419 4116 
z
M 2253 4666 
L 3047 4666 
L 3047 1625 
L 3713 1625 
L 3713 1100 
L 3047 1100 
L 3047 0 
L 2419 0 
L 2419 1100 
L 313 1100 
L 313 1709 
L 2253 4666 
z
" transform="scale(0.015625)"/>
       </defs>
       <use xlink:href="#DejaVuSans-34"/>
       <use xlink:href="#DejaVuSans-30" x="63.623047"/>
       <use xlink:href="#DejaVuSans-30" x="127.246094"/>
       <use xlink:href="#DejaVuSans-30" x="190.869141"/>
      </g>
     </g>
    </g>
    <g id="ytick_6">
     <g id="line2d_11">
      <g>
       <use xlink:href="#mc17c53edad" x="39.65" y="90.888791" style="stroke: #000000; stroke-width: 0.8"/>
      </g>
     </g>
     <g id="text_11">
      <!-- 5000 -->
      <g transform="translate(7.2 94.68801) scale(0.1 -0.1)">
       <defs>
        <path id="DejaVuSans-35" d="M 691 4666 
L 3169 4666 
L 3169 4134 
L 1269 4134 
L 1269 2991 
Q 1406 3038 1543 3061 
Q 1681 3084 1819 3084 
Q 2600 3084 3056 2656 
Q 3513 2228 3513 1497 
Q 3513 744 3044 326 
Q 2575 -91 1722 -91 
Q 1428 -91 1123 -41 
Q 819 9 494 109 
L 494 744 
Q 775 591 1075 516 
Q 1375 441 1709 441 
Q 2250 441 2565 725 
Q 2881 1009 2881 1497 
Q 2881 1984 2565 2268 
Q 2250 2553 1709 2553 
Q 1456 2553 1204 2497 
Q 953 2441 691 2322 
L 691 4666 
z
" transform="scale(0.015625)"/>
       </defs>
       <use xlink:href="#DejaVuSans-35"/>
       <use xlink:href="#DejaVuSans-30" x="63.623047"/>
       <use xlink:href="#DejaVuSans-30" x="127.246094"/>
       <use xlink:href="#DejaVuSans-30" x="190.869141"/>
      </g>
     </g>
    </g>
    <g id="ytick_7">
     <g id="line2d_12">
      <g>
       <use xlink:href="#mc17c53edad" x="39.65" y="46.329833" style="stroke: #000000; stroke-width: 0.8"/>
      </g>
     </g>
     <g id="text_12">
      <!-- 6000 -->
      <g transform="translate(7.2 50.129052) scale(0.1 -0.1)">
       <defs>
        <path id="DejaVuSans-36" d="M 2113 2584 
Q 1688 2584 1439 2293 
Q 1191 2003 1191 1497 
Q 1191 994 1439 701 
Q 1688 409 2113 409 
Q 2538 409 2786 701 
Q 3034 994 3034 1497 
Q 3034 2003 2786 2293 
Q 2538 2584 2113 2584 
z
M 3366 4563 
L 3366 3988 
Q 3128 4100 2886 4159 
Q 2644 4219 2406 4219 
Q 1781 4219 1451 3797 
Q 1122 3375 1075 2522 
Q 1259 2794 1537 2939 
Q 1816 3084 2150 3084 
Q 2853 3084 3261 2657 
Q 3669 2231 3669 1497 
Q 3669 778 3244 343 
Q 2819 -91 2113 -91 
Q 1303 -91 875 529 
Q 447 1150 447 2328 
Q 447 3434 972 4092 
Q 1497 4750 2381 4750 
Q 2619 4750 2861 4703 
Q 3103 4656 3366 4563 
z
" transform="scale(0.015625)"/>
       </defs>
       <use xlink:href="#DejaVuSans-36"/>
       <use xlink:href="#DejaVuSans-30" x="63.623047"/>
       <use xlink:href="#DejaVuSans-30" x="127.246094"/>
       <use xlink:href="#DejaVuSans-30" x="190.869141"/>
      </g>
     </g>
    </g>
   </g>
   <g id="line2d_13">
    <path d="M 69.927727 312.53173 
L 70.039781 312.783489 
L 70.081802 312.669863 
L 70.137829 312.627532 
L 70.193856 312.681003 
L 70.516011 313.06421 
L 70.82416 313.21571 
L 71.370424 313.325326 
L 71.482478 313.356517 
L 71.636553 310.973281 
L 71.69258 311.62607 
L 71.874668 312.607481 
L 72.000729 312.65204 
L 72.014736 312.590771 
L 72.098776 311.130351 
L 72.16881 311.295219 
L 72.757094 312.677661 
L 72.771101 312.594113 
L 72.813121 311.336436 
L 72.897162 311.842181 
L 73.023223 312.508337 
L 73.219317 312.921621 
L 73.5975 313.08649 
L 73.723561 312.952813 
L 73.751575 312.97175 
L 74.087737 313.206799 
L 74.339859 313.285779 
L 74.395886 312.787944 
L 74.46592 313.05307 
L 74.479926 313.082034 
L 74.493933 312.998486 
L 74.535954 312.493855 
L 74.619994 312.675433 
L 74.648008 312.46155 
L 74.704035 311.442264 
L 74.788075 311.676199 
L 74.872116 311.415529 
L 74.928143 311.545864 
L 74.98417 311.749721 
L 74.998177 311.580397 
L 75.054204 310.883049 
L 75.110231 311.291877 
L 75.362353 312.604139 
L 75.614475 313.015195 
L 76.090705 313.276199 
L 76.272793 313.327108 
L 77.393334 313.437169 
L 78.009632 313.480391 
L 79.928559 313.449422 
L 79.984586 313.006283 
L 80.05462 313.090945 
L 80.61489 313.473707 
L 84.844934 313.584324 
L 85.29315 313.591788 
L 86.525746 313.545892 
L 86.693827 313.535198 
L 87.842382 313.510579 
L 87.898409 312.654268 
L 87.98245 312.894886 
L 88.234571 313.206799 
L 88.836862 313.487632 
L 88.93491 313.21571 
L 88.97693 313.260938 
L 89.341106 313.470142 
L 90.097471 313.556141 
L 90.125485 310.910898 
L 90.209525 313.119909 
L 90.279559 313.368882 
L 90.32158 313.117681 
L 90.447641 313.401299 
L 90.475654 313.350279 
L 90.545688 312.364634 
L 90.629728 312.755639 
L 90.83983 313.23799 
L 90.909864 313.323432 
L 90.923871 313.293243 
L 90.979898 312.730018 
L 91.049931 312.883746 
L 91.302053 313.276311 
L 92.632696 313.583767 
L 100.924702 313.519825 
L 101.190831 311.815445 
L 101.274871 312.20645 
L 101.330898 311.901221 
L 101.512986 311.103616 
L 101.428946 311.932413 
L 101.569013 311.433352 
L 101.821135 312.636444 
L 102.05925 313.055298 
L 102.087264 313.000714 
L 102.199318 312.868151 
L 102.227331 312.89043 
L 102.647534 313.220166 
L 102.899656 313.317528 
L 103.48794 313.42291 
L 103.712049 313.486963 
L 115.351672 313.468471 
L 115.505746 313.508574 
L 115.687834 313.507906 
L 128.363958 313.500554 
L 128.952242 313.467469 
L 133.462421 313.434495 
L 133.826597 313.43093 
L 133.980671 313.407314 
L 134.148753 313.437057 
L 134.302827 313.423467 
L 134.624983 313.46357 
L 135.283301 313.477272 
L 140.549845 313.500665 
L 140.984055 313.509354 
L 141.250183 313.508463 
L 150.550676 313.406757 
L 150.718758 313.302155 
L 152.455597 313.412215 
L 152.973847 313.455438 
L 153.141928 313.43093 
L 153.197955 313.020765 
L 153.267989 313.260158 
L 153.478091 313.46836 
L 153.674185 313.488857 
L 154.066375 313.497991 
L 154.528598 313.496655 
L 154.906781 313.518266 
L 161.84013 313.418231 
L 161.882151 312.589657 
L 161.966191 312.981776 
L 162.162286 313.383252 
L 162.372388 313.40063 
L 163.857105 313.5098 
L 164.109227 313.50668 
L 164.473403 313.530742 
L 174.866424 313.426586 
L 174.908444 313.275865 
L 174.978478 313.343595 
L 175.636796 313.57441 
L 186.337965 313.680126 
L 186.365979 302.477002 
L 186.45002 312.976206 
L 186.604094 313.604153 
L 186.856216 313.664419 
L 186.996283 313.658292 
L 187.066317 312.569606 
L 187.122344 312.723334 
L 187.416486 313.365206 
L 187.696622 313.545892 
L 188.060798 313.622088 
L 188.761136 313.664419 
L 197.347284 313.621977 
L 197.361291 313.21248 
L 197.445331 313.567392 
L 197.613413 313.669766 
L 197.921562 313.679346 
L 197.949575 312.799084 
L 197.977589 312.474918 
L 198.047622 312.7924 
L 198.285737 313.397957 
L 198.565873 313.592679 
L 199.070116 313.641137 
L 199.09813 312.333443 
L 199.182171 313.433715 
L 199.336245 313.653948 
L 200.162644 313.680906 
L 208.692765 313.679012 
L 208.748792 312.892658 
L 208.818826 313.364872 
L 208.986907 313.622868 
L 209.140982 313.656064 
L 209.197009 308.459042 
L 209.281049 310.456397 
L 209.491151 312.5373 
L 209.743273 313.046386 
L 210.079435 313.468026 
L 210.681726 313.647041 
L 210.905834 313.654505 
L 210.947855 312.511679 
L 211.031895 313.235985 
L 211.18597 313.588112 
L 211.241997 313.006283 
L 211.326037 313.247125 
L 211.564152 313.574187 
L 211.858294 313.653279 
L 216.284433 313.68358 
L 216.354467 312.934989 
L 216.4245 313.046386 
L 216.452514 313.131048 
L 216.480527 312.885974 
L 216.508541 312.756753 
L 216.550561 313.079806 
L 216.690629 313.42291 
L 216.704636 313.400853 
L 216.718642 313.360973 
L 216.77467 311.069083 
L 216.85871 312.039354 
L 216.998778 312.906026 
L 217.180866 296.606359 
L 217.348947 310.787247 
L 217.37696 310.977737 
L 217.390967 310.433004 
L 217.461001 297.920848 
L 217.587062 251.412436 
L 217.615076 252.637807 
L 217.76915 282.0133 
L 217.909218 296.528381 
L 218.147333 308.848933 
L 218.371441 311.589309 
L 218.693597 312.767893 
L 219.141813 313.292797 
L 219.337908 313.400853 
L 220.1503 313.556141 
L 221.901146 313.501445 
L 221.943166 312.576289 
L 222.0132 313.172266 
L 222.083234 313.418565 
L 222.377376 272.165771 
L 222.587478 268.122045 
L 222.615491 268.34484 
L 222.657512 273.335443 
L 222.853606 308.54816 
L 223.049701 310.437459 
L 223.455897 311.623842 
L 223.778053 312.110648 
L 223.974148 312.21759 
L 224.240276 312.413649 
L 225.122702 312.850327 
L 225.69698 312.957269 
L 225.935095 313.010739 
L 226.831528 313.180063 
L 227.573887 313.084262 
L 227.727961 312.721106 
L 227.797995 308.991521 
L 228.03611 265.559905 
L 228.218198 253.640384 
L 228.456313 194.82256 
L 228.55436 204.736928 
L 228.806482 245.508374 
L 228.932543 271.118635 
L 229.086617 294.83514 
L 229.128638 295.492385 
L 229.156651 295.336429 
L 229.212678 278.938732 
L 229.450793 242.946234 
L 229.548841 226.348022 
L 229.646888 215.096886 
L 229.688908 218.216013 
L 229.842983 243.169029 
L 230.263186 285.511179 
L 230.515308 296.261027 
L 230.529314 296.327866 
L 230.543321 296.183049 
L 230.669382 289.120454 
L 231.005545 238.156146 
L 231.24366 201.840596 
L 231.257666 201.617801 
L 231.28568 202.397583 
L 231.495781 222.671908 
L 232.546289 298.099084 
L 232.896458 302.510421 
L 232.924472 302.321045 
L 232.994505 298.165923 
L 233.14858 283.695401 
L 233.344675 268.456237 
L 233.484742 263.331957 
L 233.512756 264.223136 
L 233.638817 275.262618 
L 233.918952 294.746023 
L 234.283128 302.10939 
L 234.745351 306.052858 
L 235.039493 307.534443 
L 235.249595 308.358784 
L 235.263602 308.09143 
L 235.361649 298.321879 
L 235.599764 240.049902 
L 235.711818 210.64099 
L 235.865893 200.615224 
L 235.949933 197.941687 
L 235.977947 199.389853 
L 236.033974 205.739505 
L 236.48219 293.498372 
L 236.538217 294.077638 
L 236.608251 293.721166 
L 236.678285 293.810284 
L 236.87438 296.57294 
L 237.182529 301.017696 
L 237.406637 302.309906 
L 238.191016 305.518151 
L 238.765293 306.977456 
L 239.115462 307.579002 
L 239.311557 307.445325 
L 239.591693 307.846356 
L 239.969875 307.935474 
L 240.109943 308.080291 
L 240.712234 308.425623 
L 240.838295 308.403343 
L 241.188464 308.503601 
L 241.384559 308.637278 
L 241.412572 308.559299 
L 241.426579 308.52588 
L 241.496613 308.603858 
L 241.51062 308.603858 
L 241.566647 308.570439 
L 241.580653 308.603858 
L 241.720721 308.782094 
L 241.958836 309.094007 
L 242.813249 309.197606 
L 242.995337 309.227684 
L 243.317492 309.330169 
L 244.003824 309.427085 
L 244.171905 309.477214 
L 244.32598 309.586383 
L 244.634129 309.65545 
L 245.27844 309.564104 
L 245.390494 309.510633 
L 245.404501 309.544052 
L 245.71265 309.646538 
L 245.964771 309.712262 
L 246.300934 309.726744 
L 246.441001 309.798038 
L 246.861204 309.900524 
L 247.071306 309.933943 
L 247.211374 309.922804 
L 247.22538 309.945083 
L 247.883698 309.840369 
L 248.275888 309.691097 
L 248.415956 309.679957 
L 248.948213 309.038308 
L 249.620537 309.439339 
L 249.844646 309.229912 
L 249.99872 308.470181 
L 250.012727 308.503601 
L 250.068754 308.570439 
L 250.082761 308.481321 
L 250.208822 306.854919 
L 250.404916 302.811194 
L 250.47495 301.908875 
L 250.516971 302.410163 
L 250.783099 306.208814 
L 251.42741 308.336505 
L 251.749566 308.648417 
L 253.024182 309.526229 
L 253.346337 309.698895 
L 253.500412 309.802494 
L 253.654486 309.90498 
L 253.948628 309.98073 
L 254.088696 309.871561 
L 254.11671 309.384754 
L 254.144723 308.603858 
L 254.228764 309.094007 
L 254.270784 309.149706 
L 254.340818 309.334625 
L 254.396845 309.245507 
L 254.410852 309.267787 
L 254.452872 309.183125 
L 254.480886 309.183125 
L 254.929102 309.278927 
L 255.139204 309.517317 
L 255.237251 309.601979 
L 255.447352 309.820318 
L 255.741495 309.900524 
L 256.161698 309.995212 
L 256.287758 309.985186 
L 256.525873 309.945083 
L 257.744462 310.035315 
L 257.856516 310.025289 
L 258.304733 310.125547 
L 258.430794 310.135573 
L 258.598875 310.145598 
L 258.893017 310.245856 
L 259.117125 310.381761 
L 259.537328 310.285959 
L 259.677396 310.265907 
L 261.008039 310.361709 
L 261.1341 310.381761 
L 261.260161 310.341658 
L 262.254641 310.427434 
L 262.394709 310.493158 
L 262.548783 310.390673 
L 262.674844 310.427434 
L 262.842925 310.542173 
L 262.997 310.568908 
L 263.221108 310.604556 
L 263.361176 310.586732 
L 263.501243 310.595644 
L 263.865419 310.493158 
L 264.117541 310.787247 
L 268.879842 310.885277 
L 268.991896 310.889733 
L 269.328058 310.983307 
L 269.468126 311.027866 
L 271.695202 311.09916 
L 271.835269 311.193848 
L 271.975337 311.228381 
L 272.605642 311.321955 
L 272.745709 311.362058 
L 274.846724 311.468999 
L 275.000799 311.500191 
L 276.289421 311.606018 
L 276.499523 311.611588 
L 279.875154 311.52247 
L 280.015221 311.20276 
L 280.043235 311.241749 
L 280.183302 311.397705 
L 280.225323 311.314157 
L 280.477445 310.411838 
L 280.533472 310.6001 
L 280.673539 310.818439 
L 280.701553 310.77388 
L 280.75758 310.733777 
L 280.813607 310.800615 
L 281.331857 311.428896 
L 281.443911 311.504647 
L 281.597986 311.611588 
L 282.088223 311.71853 
L 282.396372 311.790938 
L 282.536439 311.834383 
L 283.853075 311.943552 
L 283.965129 311.901221 
L 284.147217 311.819901 
L 284.161224 311.835497 
L 284.553414 311.94578 
L 284.735502 311.856662 
L 285.211732 312.005935 
L 285.407826 311.921273 
L 285.421833 311.936868 
L 285.673955 311.832155 
L 285.786009 311.805419 
L 285.800016 311.836611 
L 285.968097 311.903449 
L 286.136178 311.923501 
L 286.290253 311.948008 
L 286.416314 311.959148 
L 286.584395 312.052722 
L 286.752476 312.025986 
L 287.018605 312.1307 
L 287.158672 312.083913 
L 287.172679 312.097281 
L 287.34076 312.124016 
L 287.536855 312.137384 
L 287.676923 312.137384 
L 287.943051 312.03267 
L 287.985072 312.025986 
L 287.999078 311.958034 
L 288.167159 311.647235 
L 288.321234 311.780912 
L 288.349247 311.63164 
L 288.419281 311.059057 
L 288.475308 311.215013 
L 288.741437 311.874486 
L 289.553829 311.971402 
L 289.707904 311.994795 
L 289.861978 312.025986 
L 289.974032 312.052722 
L 289.988039 312.03267 
L 290.226154 312.039354 
L 290.310195 312.052722 
L 290.338208 312.002593 
L 290.394235 311.851092 
L 290.660364 309.365817 
L 290.814438 299.157359 
L 290.884472 300.939718 
L 290.912486 301.429866 
L 290.968513 300.694643 
L 291.02454 299.926001 
L 291.080567 300.538687 
L 291.192621 302.577259 
L 291.444743 307.757238 
L 291.962993 310.341658 
L 292.159088 310.568908 
L 292.215115 310.720409 
L 292.45323 311.129237 
L 292.579291 311.320841 
L 292.747372 311.509102 
L 293.615792 311.936868 
L 293.79788 311.921273 
L 293.965961 310.764968 
L 294.064008 311.129237 
L 294.106029 311.008928 
L 294.302123 310.640203 
L 294.372157 310.787247 
L 294.428184 310.839604 
L 294.456198 310.764968 
L 294.75034 308.793234 
L 294.848387 308.10257 
L 294.918421 308.403343 
L 295.366638 310.304897 
L 296.024956 311.455632 
L 296.038962 311.437808 
L 296.108996 311.418871 
L 296.22105 310.978851 
L 296.235057 311.008928 
L 296.431152 311.245091 
L 296.627247 311.34869 
L 296.739301 309.808064 
L 296.837348 280.810209 
L 296.949402 290.290127 
L 297.159504 295.603782 
L 297.201524 292.952524 
L 297.5657 264.000342 
L 297.593713 263.554752 
L 297.621727 264.445931 
L 297.677754 279.406601 
L 297.733781 289.320969 
L 297.789808 285.901069 
L 297.929876 277.969575 
L 297.971896 279.685095 
L 298.196004 300.137656 
L 298.238025 299.302176 
L 298.294052 298.310739 
L 298.336072 299.268757 
L 298.658228 308.169409 
L 298.672235 308.09143 
L 298.742268 294.601206 
L 298.896343 265.225713 
L 299.03641 247.959117 
L 299.190485 214.911223 
L 299.288532 227.461996 
L 299.540654 260.324228 
L 299.778769 278.5934 
L 299.932844 294.679184 
L 299.988871 295.503525 
L 300.030891 294.779442 
L 300.170959 290.022773 
L 300.212979 288.919939 
L 300.269006 290.501782 
L 300.717222 303.345901 
L 301.053385 306.776941 
L 301.235473 307.946614 
L 301.431568 308.581579 
L 301.445574 308.559299 
L 301.459581 308.692976 
L 301.669683 309.282268 
L 301.487595 308.626138 
L 301.711703 309.143022 
L 301.907798 309.138566 
L 301.921804 309.187581 
L 302.089886 309.3246 
L 302.103892 309.274471 
L 302.145913 301.641521 
L 302.173926 296.639778 
L 302.215946 302.699796 
L 302.24396 302.287626 
L 302.257967 302.265347 
L 302.271974 302.354465 
L 302.299987 302.321045 
L 302.328001 302.577259 
L 302.370021 302.075971 
L 302.426048 300.516408 
L 302.482075 301.363028 
L 302.510089 301.741779 
L 302.552109 300.783761 
L 302.580122 300.338172 
L 302.622143 301.552403 
L 302.832244 306.453889 
L 302.888271 306.776941 
L 302.930292 306.487308 
L 303.084366 302.588399 
L 303.336488 288.262694 
L 303.364501 288.374092 
L 303.406522 289.799978 
L 303.448542 287.984201 
L 303.58861 285.45548 
L 303.602616 285.589157 
L 303.67265 285.277244 
L 303.728677 285.355222 
L 303.742684 285.388641 
L 303.756691 285.221545 
L 304.06484 279.4623 
L 304.190901 277.056116 
L 304.218914 277.535125 
L 304.260934 278.827335 
L 304.709151 306.253373 
L 305.0173 309.397008 
L 305.143361 309.956223 
L 305.255415 310.395128 
L 305.297435 310.313808 
L 305.479523 310.332746 
L 305.507537 310.294871 
L 305.563564 310.390673 
L 305.577571 310.418522 
L 305.619591 310.295985 
L 305.633598 310.295985 
L 305.647604 310.303783 
L 305.661611 310.194613 
L 305.829692 309.336853 
L 305.983767 297.441839 
L 306.221882 274.716771 
L 306.502017 258.430472 
L 306.516024 258.653267 
L 306.572051 261.549599 
L 306.712119 283.71768 
L 306.824173 278.203509 
L 307.034274 267.899251 
L 307.118315 268.456237 
L 307.300403 263.888944 
L 307.482491 256.425319 
L 307.524511 257.205101 
L 308.210843 290.267847 
L 308.30889 289.955935 
L 308.322897 289.922515 
L 308.336904 290.15645 
L 308.392931 290.958511 
L 308.448958 290.446083 
L 308.518992 286.769969 
L 308.603032 288.830821 
L 308.659059 291.270424 
L 308.729093 289.699721 
L 308.813134 289.254131 
L 308.841147 289.499205 
L 309.247343 300.070818 
L 309.555492 302.477002 
L 310.325864 305.139399 
L 312.482907 309.060588 
L 312.51092 308.938051 
L 312.636981 308.381064 
L 312.650988 308.447902 
L 312.707015 308.737535 
L 312.805062 308.614998 
L 312.875096 308.481321 
L 312.917116 307.790657 
L 312.98715 308.392203 
L 313.043177 308.503601 
L 313.099204 308.414483 
L 313.155231 308.12485 
L 313.37934 303.891749 
L 313.5054 301.741779 
L 313.547421 302.042552 
L 314.121698 308.381064 
L 314.3318 308.782094 
L 314.37382 308.860072 
L 314.387827 308.648417 
L 314.443854 308.670697 
L 314.485874 306.966317 
L 314.499881 306.620985 
L 314.541901 308.035732 
L 314.583922 307.077714 
L 314.611935 307.311649 
L 314.794023 308.581579 
L 315.102172 309.356905 
L 315.340287 309.428199 
L 315.3683 309.379184 
L 315.438334 309.427085 
L 315.620422 309.613119 
L 315.634429 309.5797 
L 315.690456 309.55742 
L 315.732476 309.601979 
L 315.886551 309.711148 
L 316.054632 309.721174 
L 316.250727 309.798038 
L 316.264734 309.743454 
L 316.292747 309.668817 
L 316.376788 309.7312 
L 317.049112 309.860421 
L 317.2312 310.065392 
L 317.371268 310.085444 
L 317.679417 310.175676 
L 317.777464 310.155624 
L 317.805478 309.985186 
L 317.861505 310.185701 
L 317.875512 310.185701 
L 318.267701 310.341658 
L 318.491809 310.225804 
L 318.673897 310.332746 
L 319.01006 310.427434 
L 319.150127 310.273705 
L 319.290195 299.725486 
L 319.318209 298.165923 
L 319.374236 301.329609 
L 319.598344 310.552199 
L 319.892486 311.665059 
L 319.976527 310.586732 
L 320.088581 310.91424 
L 320.326696 311.290764 
L 320.578818 311.384337 
L 320.844946 311.54475 
L 321.055048 311.647235 
L 321.321176 311.812103 
L 321.811413 311.905677 
L 321.951481 311.943552 
L 322.847914 312.052722 
L 323.17007 312.110648 
L 323.870408 312.21759 
L 324.024482 312.21759 
L 325.55122 312.324531 
L 325.677281 312.340127 
L 325.873375 312.355723 
L 327.568194 312.449296 
L 327.694255 312.449296 
L 329.571162 312.556238 
L 329.823284 312.562922 
L 330.005372 312.596341 
L 331.560123 312.701055 
L 331.840258 312.71665 
L 333.549084 312.816908 
L 333.745178 312.838073 
L 333.983293 312.859239 
L 337.905188 312.96618 
L 338.073269 312.984004 
L 338.269364 312.903798 
L 338.283371 312.926077 
L 339.011723 313.030791 
L 339.15179 313.024107 
L 339.305865 313.028563 
L 339.754081 313.055298 
L 340.160278 313.041931 
L 342.471394 312.941673 
L 342.555435 312.885974 
L 342.583448 312.919393 
L 342.765536 313.010739 
L 342.779543 312.972864 
L 342.863584 312.538414 
L 342.919611 312.62976 
L 343.185739 312.904912 
L 343.493888 313.010739 
L 343.872071 313.073122 
L 344.208233 313.082034 
L 344.432341 313.099857 
L 345.398808 313.082034 
L 345.538876 312.842529 
L 345.566889 312.777919 
L 345.622917 312.903798 
L 345.819011 313.028563 
L 346.309248 312.965066 
L 346.379282 312.364634 
L 346.463323 312.424789 
L 346.925546 312.896 
L 347.219688 313.050842 
L 347.625884 313.161126 
L 347.863999 313.199001 
L 348.018074 313.222394 
L 348.284202 313.22128 
L 348.494304 313.250689 
L 348.802453 313.265728 
L 351.925962 313.229969 
L 352.276131 313.211255 
L 359.615677 313.113225 
L 359.783758 313.078692 
L 360.203961 312.992916 
L 360.344028 312.190854 
L 360.400055 312.002593 
L 360.456083 312.076115 
L 360.610157 312.730018 
L 360.666184 312.443727 
L 360.708204 312.271061 
L 360.792245 312.347925 
L 360.904299 312.083913 
L 360.960326 312.184171 
L 361.170428 312.589657 
L 361.212448 312.535072 
L 361.394536 312.164119 
L 361.408543 312.171917 
L 362.108881 312.850327 
L 362.304976 312.945015 
L 362.487064 313.001827 
L 362.963294 313.108769 
L 363.453531 313.148872 
L 364.784173 313.055298 
L 364.924241 313.015195 
L 377.460297 312.987346 
L 377.474304 312.889316 
L 377.530331 312.997372 
L 377.558345 312.997372 
L 378.104609 313.055298 
L 383.973444 312.973978 
L 384.001457 312.850327 
L 384.099505 312.917165 
L 384.155532 312.850327 
L 384.225566 312.630874 
L 384.267586 312.767893 
L 384.295599 312.821364 
L 384.33762 312.703282 
L 384.37964 312.773463 
L 384.953917 313.095401 
L 388.371569 313.197887 
L 388.58167 313.211255 
L 388.805778 313.197887 
L 390.528611 313.089831 
L 390.948814 313.037475 
L 392.30747 312.949471 
L 392.34949 312.62419 
L 392.433531 312.653154 
L 392.503565 312.332329 
L 392.573599 312.463778 
L 392.643632 312.558466 
L 392.671646 312.434815 
L 392.82572 310.978851 
L 392.895754 311.243977 
L 393.147876 312.110648 
L 393.357978 312.328987 
L 393.582086 312.328987 
L 393.73616 312.427017 
L 393.904241 312.560694 
L 394.156363 312.658724 
L 394.296431 312.70551 
L 394.464512 312.73893 
L 394.674614 312.765665 
L 397.812129 312.872607 
L 398.008224 312.894886 
L 399.899138 312.833617 
L 400.067219 311.473455 
L 400.2353 310.105495 
L 400.249307 310.155624 
L 400.291327 310.475335 
L 400.319341 310.195727 
L 400.543449 302.209648 
L 400.585469 303.992006 
L 400.781564 310.829578 
L 400.991665 311.773114 
L 401.481902 312.164119 
L 401.62197 312.271061 
L 402.084193 312.569606 
L 402.686484 312.674319 
L 402.966619 312.686573 
L 403.120694 312.654268 
L 403.863053 312.597455 
L 403.877059 312.535072 
L 403.975107 312.596341 
L 404.493357 312.569606 
L 404.521371 311.407731 
L 404.577398 311.536952 
L 404.661438 310.429662 
L 404.689452 310.389559 
L 404.717465 310.563339 
L 404.773492 311.065741 
L 404.801506 310.620151 
L 404.843526 308.219537 
L 405.123662 275.073243 
L 405.179689 275.652509 
L 405.473831 298.021106 
L 405.711946 308.09143 
L 405.922047 309.854851 
L 406.384271 311.219469 
L 406.692419 311.580397 
L 407.490805 311.969174 
L 407.616866 312.0271 
L 407.784947 312.05495 
L 408.219157 312.204222 
L 409.087577 312.308936 
L 409.451752 312.364634 
L 409.59182 312.36909 
L 409.899969 312.414763 
L 410.418219 312.447068 
L 410.558287 312.413649 
L 412.575261 312.519477 
L 412.785363 312.511679 
L 414.886378 312.616393 
L 415.124493 312.609709 
L 415.292574 312.589657 
L 417.0014 312.686573 
L 417.155474 312.703282 
L 417.295542 312.730018 
L 417.449616 312.750069 
L 417.589684 312.736702 
L 418.990361 312.844757 
L 419.242482 312.828048 
L 420.657166 312.934989 
L 420.81124 312.957269 
L 426.652062 313.055298 
L 426.848157 313.095401 
L 427.408427 313.001827 
L 427.450448 312.850327 
L 427.534488 312.957269 
L 428.122773 313.073122 
L 428.360888 313.068666 
L 428.416915 312.449296 
L 428.514962 312.703282 
L 428.753077 313.015195 
L 429.103246 313.16224 
L 430.097727 313.059754 
L 430.12574 313.015195 
L 430.195774 313.099857 
L 430.363855 313.180063 
L 432.394836 313.288342 
L 432.871066 313.326662 
L 436.134643 313.246456 
L 436.162657 313.197887 
L 436.246697 313.23799 
L 436.302724 313.21571 
L 436.400772 312.681003 
L 436.456799 312.750069 
L 436.722927 312.850327 
L 436.834981 312.850327 
L 436.848988 312.867037 
L 436.961042 312.861467 
L 436.975049 312.802426 
L 437.073096 312.623076 
L 437.115117 312.654268 
L 437.185151 312.709966 
L 437.213164 312.623076 
L 437.339225 312.623076 
L 437.801448 312.756753 
L 437.96953 311.198304 
L 438.025557 311.393249 
L 438.627848 312.707738 
L 438.781922 312.804654 
L 439.048051 312.923849 
L 440.294653 313.026335 
L 440.420714 312.841415 
L 440.476741 312.87929 
L 440.700849 312.926077 
L 440.980984 313.024107 
L 441.023005 313.041931 
L 441.065025 312.979548 
L 441.205093 312.957269 
L 442.227587 313.166696 
L 442.29762 312.743386 
L 442.423681 312.91271 
L 442.577756 313.041931 
L 442.605769 313.010739 
L 442.68981 312.807996 
L 442.745837 312.851441 
L 443.348128 313.23242 
L 443.712304 313.359413 
L 443.894392 313.394837 
L 446.387596 313.453655 
L 446.527664 313.464127 
L 446.695745 313.471702 
L 447.41009 313.428702 
L 447.634199 313.350613 
L 447.732246 313.276199 
L 447.774266 313.300707 
L 448.110429 313.427254 
L 448.684706 313.514924 
L 449.034875 313.456886 
L 449.160936 313.383586 
L 449.399051 313.47716 
L 453.755156 313.57441 
L 460.92662 313.483955 
L 460.982647 312.850327 
L 461.038674 313.288119 
L 461.136722 313.42291 
L 461.178742 313.405532 
L 461.458877 313.514256 
L 461.710999 313.556141 
L 463.433831 313.52339 
L 463.475852 311.919045 
L 463.587906 307.228101 
L 463.755987 271.709041 
L 463.798007 271.163194 
L 463.854034 271.675622 
L 463.938075 272.076653 
L 463.952082 271.954116 
L 464.246224 264.557329 
L 464.288244 264.891521 
L 464.456325 269.2026 
L 464.988583 310.05648 
L 465.184677 310.946546 
L 465.534846 311.651691 
L 465.590873 311.687338 
L 465.60488 311.710732 
L 466.011076 312.48383 
L 466.361246 312.859239 
L 466.55734 312.965066 
L 467.537814 313.23799 
L 469.750883 313.342258 
L 469.932971 313.357854 
L 476.34807 313.467023 
L 476.600192 313.482841 
L 476.908341 313.448308 
L 479.59764 313.349053 
L 479.793735 313.288453 
L 487.357389 313.361084 
L 487.91766 313.330116 
L 490.438878 313.247236 
L 490.564939 313.243671 
L 490.929114 313.260826 
L 490.985142 313.08649 
L 491.055175 313.157784 
L 491.447365 313.309396 
L 491.853561 313.295025 
L 492.007636 313.309284 
L 492.245751 313.23799 
L 494.010603 313.347159 
L 494.220705 313.340921 
L 501.504223 313.238658 
L 501.784359 313.175607 
L 504.123489 313.286559 
L 504.361604 313.303826 
L 510.748689 313.259712 
L 511.112865 313.258933 
L 511.322967 313.239772 
L 511.519062 313.239327 
L 511.757177 313.272078 
L 512.107346 313.276311 
L 525.875997 313.285668 
L 525.904011 313.033019 
L 525.988052 313.13996 
L 527.192633 313.230861 
L 527.332701 313.250689 
L 527.570816 313.197887 
L 527.738897 313.238881 
L 531.84288 313.346157 
L 532.080995 313.357854 
L 541.073339 313.331898 
L 541.1994 300.137656 
L 541.353475 293.420394 
L 541.535563 290.512922 
L 541.549569 290.312406 
L 541.563576 291.615756 
L 541.829705 301.752919 
L 542.165867 309.205404 
L 542.179874 309.138566 
L 542.277921 307.400767 
L 542.516036 286.669711 
L 542.572063 293.754586 
L 542.796172 307.701539 
L 542.838192 308.314225 
L 542.922233 308.069151 
L 543.258395 310.57782 
L 543.286408 310.504298 
L 543.45449 308.782094 
L 543.552537 309.194265 
L 543.902706 311.27294 
L 544.280889 311.986997 
L 544.96722 312.589657 
L 545.555505 312.872607 
L 545.583518 312.779033 
L 545.723586 312.756753 
L 545.891667 312.71665 
L 545.947694 312.277744 
L 546.017728 312.496083 
L 546.213823 312.828048 
L 546.774093 312.934989 
L 546.900154 312.951699 
L 547.166283 312.962838 
L 547.320357 312.973978 
L 547.474432 312.968408 
L 547.628506 311.773114 
L 547.642513 311.851092 
L 547.69854 312.184171 
L 547.782581 312.061633 
L 547.824601 312.244325 
L 547.852614 311.88117 
L 547.950662 307.757238 
L 548.21679 277.011557 
L 548.370865 271.185474 
L 548.426892 269.703888 
L 548.468912 270.684185 
L 548.538946 284.898493 
L 548.69302 303.42388 
L 548.931135 308.97147 
L 549.155244 310.085444 
L 549.351338 310.742688 
L 549.575447 311.366514 
L 549.869589 311.827699 
L 550.163731 312.137384 
L 550.177738 312.109534 
L 550.247772 310.202411 
L 550.359826 305.818924 
L 550.387839 306.197675 
L 550.695988 311.254002 
L 550.878076 311.647235 
L 551.116191 311.749721 
L 551.38232 312.083913 
L 551.564408 312.190854 
L 551.914577 312.511679 
L 552.166699 312.603025 
L 552.194712 312.623076 
L 552.292759 310.587846 
L 552.446834 266.005495 
L 552.516868 202.95457 
L 552.712962 36.19267 
L 552.726969 37.752234 
L 552.839023 76.518527 
L 553.259226 234.702827 
L 553.385287 236.373788 
L 553.525355 246.176759 
L 553.707443 261.438202 
L 553.76347 283.483746 
L 553.903538 303.323622 
L 554.127646 306.710103 
L 554.323741 307.790657 
L 554.491822 308.414483 
L 554.870005 309.587126 
L 554.898018 309.380298 
L 555.024079 307.946614 
L 555.038086 308.225107 
L 555.23418 310.342772 
L 555.570343 311.188278 
L 555.58435 311.178252 
L 555.738424 311.282966 
L 555.920512 311.419984 
L 556.298695 311.526926 
L 556.494789 311.562573 
L 556.508796 311.526926 
L 556.53681 311.616044 
L 556.57883 311.607132 
L 556.816945 311.731897 
L 556.928999 311.757519 
L 556.985026 311.731897 
L 556.999033 311.706276 
L 557.153108 311.109186 
L 557.195128 311.148175 
L 557.279168 305.54043 
L 557.419236 291.649175 
L 557.461256 292.250721 
L 557.53129 288.630306 
L 557.573311 291.225865 
L 557.825432 308.247387 
L 558.063547 310.351683 
L 558.259642 310.924266 
L 558.273649 310.904215 
L 558.413717 311.079108 
L 558.44173 311.02898 
L 558.525771 311.049031 
L 558.539777 311.089134 
L 558.763886 311.402161 
L 559.884427 312.025986 
L 560.024495 311.943552 
L 560.752847 312.052722 
L 560.920928 312.090597 
L 561.131029 312.110648 
L 561.243083 312.137384 
L 561.25709 312.110648 
L 561.411165 312.052722 
L 561.537225 312.067203 
L 561.635273 312.076115 
L 561.64928 312.06052 
L 561.831368 311.85889 
L 561.957428 308.819969 
L 561.999449 305.674107 
L 562.055476 308.381064 
L 562.181537 310.457511 
L 562.20955 310.155624 
L 562.349618 308.915771 
L 562.377631 309.082867 
L 562.517699 309.860421 
L 562.531706 309.688869 
L 562.615747 306.509587 
L 562.699787 307.445325 
L 562.937902 309.635398 
L 563.232044 310.798387 
L 563.400125 311.059057 
L 563.442146 310.998902 
L 563.540193 310.731549 
L 563.59622 310.904215 
L 563.624234 310.945432 
L 563.63824 310.857428 
L 563.694268 308.581579 
L 563.792315 304.315059 
L 563.834335 304.972303 
L 563.862349 305.195098 
L 563.904369 304.805207 
L 563.960396 303.357041 
L 564.576694 276.008981 
L 564.772789 266.005495 
L 564.800802 268.010648 
L 565.066931 299.881442 
L 565.235012 303.111967 
L 565.319053 304.415316 
L 565.613195 309.288952 
L 565.85131 310.464195 
L 565.991377 310.825122 
L 566.005384 310.691446 
L 566.033398 309.29675 
L 566.103431 310.616809 
L 566.593668 311.473455 
L 567.700203 312.052722 
L 568.204446 312.150751 
L 568.400541 312.190854 
L 568.778724 312.251009 
L 568.932798 312.297796 
L 569.535089 312.386914 
L 569.66115 312.449296 
L 569.829231 312.422561 
L 570.039333 312.480488 
L 570.907752 312.569606 
L 571.033813 312.596341 
L 572.658598 312.703282 
L 572.8687 312.681003 
L 574.941701 312.779033 
L 575.095776 312.801312 
L 575.277864 312.790172 
L 575.72608 312.850327 
L 578.793562 312.772349 
L 578.919623 312.569606 
L 578.947637 312.609709 
L 579.311812 312.660951 
L 579.479894 312.692143 
L 579.788043 312.801312 
L 581.328787 312.900456 
L 581.468855 312.911596 
L 581.650942 312.894886 
L 581.777003 312.894886 
L 584.060106 312.997372 
L 584.214181 312.997372 
L 584.354248 312.997372 
L 592.814336 312.894886 
L 592.982417 312.801312 
L 593.346593 312.730018 
L 593.40262 312.45041 
L 593.458647 312.654268 
L 593.528681 312.549554 
L 593.598715 312.630874 
L 593.710769 312.697713 
L 593.780802 311.059057 
L 593.83683 311.443378 
L 594.088951 312.864809 
L 594.341073 313.172266 
L 594.453127 313.011853 
L 594.523161 313.103199 
L 594.915351 313.482062 
L 595.30754 313.592234 
L 595.69973 313.606047 
L 596.988352 313.501779 
L 597.17044 313.501556 
L 597.324514 313.48674 
L 598.501083 313.327553 
L 598.669164 313.327999 
L 602.352944 313.224622 
L 602.450991 313.227964 
L 602.464998 313.242446 
L 602.647086 313.233534 
L 608.86609 313.135504 
L 609.020165 313.13996 
L 612.339768 313.242891 
L 612.479836 313.238436 
L 613.446303 313.338025 
L 613.572364 313.301152 
L 613.908526 313.310398 
L 614.49681 313.377905 
L 614.706912 313.352729 
L 615.127115 313.35362 
L 615.645365 313.323098 
L 616.149609 313.355737 
L 616.667859 313.333346 
L 617.046042 313.338248 
L 621.920397 313.278984 
L 622.074471 313.274751 
L 622.214539 313.247347 
L 622.38262 313.266953 
L 625.071919 313.376123 
L 625.240001 313.373004 
L 625.716231 313.34404 
L 625.870305 313.40776 
L 626.052393 313.382138 
L 626.304515 313.375232 
L 629.035834 313.281546 
L 629.133882 313.244117 
L 629.161895 313.26829 
L 629.596105 313.157784 
L 629.778193 313.135504 
L 629.7922 313.163354 
L 629.890247 313.193431 
L 629.918261 313.175607 
L 630.156376 313.160012 
L 630.282437 313.307056 
L 630.296443 313.302712 
L 630.422504 313.294023 
L 630.436511 313.323766 
L 630.576579 313.340476 
L 630.898734 313.360193 
L 631.080822 313.371667 
L 634.372412 313.265171 
L 634.568507 313.265617 
L 635.436927 313.157784 
L 635.605008 313.13996 
L 637.818077 313.225068 
L 637.972151 313.298367 
L 638.896598 313.206799 
L 639.14872 313.171152 
L 639.372828 313.131048 
L 639.821045 313.099857 
L 640.353302 313.155556 
L 640.53539 313.188975 
L 642.888527 313.258376 
L 643.028594 313.350836 
L 643.196675 313.354066 
L 644.275196 313.271521 
L 644.443278 313.261606 
L 646.68436 313.197887 
L 646.866448 313.166696 
L 649.84989 313.068666 
L 650.045984 313.030791 
L 650.32612 313.033019 
L 651.124505 313.171152 
L 651.292587 313.131048 
L 651.3206 313.175607 
L 651.79683 313.184519 
L 651.950905 313.188975 
L 652.104979 313.202343 
L 652.301074 313.157784 
L 652.483162 313.186747 
L 652.945385 313.188975 
L 656.755226 313.291238 
L 656.937314 313.320313 
L 663.002244 313.42291 
L 663.128304 310.831806 
L 663.198338 311.402161 
L 663.478474 312.861467 
L 663.828643 313.322429 
L 665.033225 313.575858 
L 665.061238 313.49788 
L 665.145279 313.537872 
L 665.397401 313.556141 
L 665.719556 313.46836 
L 665.761577 313.256259 
L 665.845617 313.33446 
L 666.405888 313.523613 
L 666.714037 313.439508 
L 666.868111 313.357854 
L 667.65249 313.466466 
L 668.100707 313.57441 
L 675.482273 313.584324 
L 675.482273 313.584324 
" clip-path="url(#p4514c0038b)" style="fill: none; stroke: #1f77b4; stroke-width: 1.5; stroke-linecap: square"/>
   </g>
   <g id="line2d_14">
    <path d="M 69.927727 312.488286 
L 70.025775 312.382324 
L 70.165842 312.349074 
L 71.496485 312.346825 
L 71.77662 311.089651 
L 72.68706 311.027885 
L 72.827128 310.642119 
L 74.353866 310.654042 
L 74.54996 308.150585 
L 74.619994 308.155303 
L 82.057587 308.560808 
L 82.211662 308.334605 
L 82.309709 308.281173 
L 82.43577 308.136969 
L 83.82244 308.187011 
L 83.976514 307.920026 
L 85.741367 307.932746 
L 85.76938 307.722376 
L 85.937462 306.452402 
L 86.035509 306.298385 
L 86.16157 306.229689 
L 86.693827 306.171625 
L 86.931942 304.858577 
L 87.212077 304.837254 
L 87.352145 304.538632 
L 92.954852 305.066777 
L 93.094919 305.043742 
L 100.168337 305.713867 
L 100.322411 305.525152 
L 100.58854 305.442708 
L 100.840661 305.238757 
L 101.022749 303.301485 
L 101.372919 298.794904 
L 101.569013 298.538623 
L 102.325379 298.600786 
L 102.479453 298.359759 
L 109.384789 299.554625 
L 109.636911 299.27284 
L 115.267631 300.216124 
L 115.57578 298.18713 
L 115.589787 298.188953 
L 123.853779 299.680004 
L 129.022276 300.536997 
L 129.190357 300.181557 
L 130.030763 300.316952 
L 135.283301 301.147608 
L 136.852059 301.261068 
L 147.987438 302.842947 
L 159.837163 304.304185 
L 172.779415 305.67907 
L 178.774311 306.166777 
L 178.942393 306.163118 
L 180.090947 306.184032 
L 180.38509 304.794587 
L 185.119377 305.236553 
L 185.385505 304.072753 
L 186.464026 304.142477 
L 186.590087 304.044952 
L 189.993732 304.345226 
L 190.17582 304.327779 
L 191.786598 304.437931 
L 191.884645 303.992773 
L 191.926665 303.997159 
L 193.98566 304.146657 
L 194.125728 303.951477 
L 201.409246 304.756924 
L 203.398207 304.871039 
L 204.042519 304.861237 
L 204.280634 304.114146 
L 207.810339 304.432192 
L 207.9364 304.372842 
L 208.45465 304.3895 
L 208.650745 303.342071 
L 208.678758 303.08539 
L 208.860846 300.670073 
L 209.140982 300.704533 
L 215.668135 301.634044 
L 215.822209 301.495362 
L 216.85871 301.575745 
L 217.040798 301.249988 
L 217.138845 301.160816 
L 217.166859 300.846524 
L 217.278913 299.956407 
L 217.29292 299.95804 
L 217.390967 299.844684 
L 217.615076 296.616757 
L 217.685109 296.626133 
L 218.021272 296.680927 
L 220.052253 297.038311 
L 220.1503 296.438232 
L 220.206327 296.44881 
L 221.775085 296.724081 
L 221.831112 295.466343 
L 222.069227 291.625203 
L 222.223302 291.530491 
L 223.483911 291.811726 
L 223.595965 291.175238 
L 223.651992 291.187991 
L 226.971596 292.019549 
L 227.013616 291.584589 
L 227.12567 288.289584 
L 227.16769 288.299352 
L 227.643921 288.351429 
L 227.699948 288.119001 
L 227.755975 286.341936 
L 227.952069 277.408694 
L 227.966076 277.410597 
L 229.170658 277.879862 
L 229.184665 277.817814 
L 229.324733 275.399993 
L 229.436787 275.449232 
L 230.109111 275.644472 
L 230.179145 275.555359 
L 230.305206 274.729983 
L 230.431267 273.438439 
L 230.529314 273.4825 
L 230.585342 273.492056 
L 230.599348 273.398547 
L 230.711402 270.887874 
L 230.935511 269.106509 
L 231.061572 269.126018 
L 231.089585 269.108167 
L 231.103592 269.049553 
L 231.215646 267.869376 
L 231.313693 267.018261 
L 231.36972 267.043948 
L 232.882451 267.885602 
L 232.910465 267.794902 
L 232.980499 266.169149 
L 233.078546 264.681851 
L 233.134573 264.709295 
L 235.277608 265.922094 
L 235.347642 264.69255 
L 235.44569 262.930085 
L 235.48771 262.945984 
L 239.25553 265.157492 
L 239.269537 265.081464 
L 239.311557 264.951693 
L 239.381591 264.986507 
L 245.726656 268.627459 
L 251.931654 271.924653 
L 254.24277 273.03163 
L 254.326811 272.660646 
L 254.410852 272.699968 
L 255.657454 273.287958 
L 255.671461 273.24385 
L 255.755501 272.73619 
L 255.839542 272.771001 
L 259.663389 274.587272 
L 259.733423 274.446597 
L 259.803457 274.478258 
L 264.817879 276.762886 
L 265.37815 277.010913 
L 269.986376 278.967149 
L 270.210485 278.923425 
L 277.115821 281.742315 
L 279.006734 282.434313 
L 279.104781 281.8078 
L 279.216836 281.848594 
L 279.903167 282.048869 
L 280.001214 281.012906 
L 280.141282 281.063447 
L 287.242713 283.780693 
L 287.999078 284.03567 
L 288.055105 282.853434 
L 288.125139 281.960632 
L 288.181166 281.975953 
L 290.338208 282.700593 
L 290.366222 282.54172 
L 290.436256 280.544724 
L 290.59033 278.148771 
L 290.702384 278.15254 
L 293.79788 279.456897 
L 293.811886 279.389158 
L 293.825893 279.374357 
L 294.106029 276.39963 
L 294.120035 276.400788 
L 294.190069 276.368423 
L 294.288117 275.988511 
L 294.344144 276.011339 
L 296.823341 277.075107 
L 296.893375 276.977809 
L 296.949402 277.001622 
L 297.271558 277.130425 
L 297.313578 276.559392 
L 297.411626 274.293674 
L 297.453646 274.299177 
L 297.621727 274.364788 
L 298.742268 274.877813 
L 298.756275 274.846131 
L 298.882336 273.170205 
L 299.008397 273.229437 
L 299.736749 273.572765 
L 299.764762 273.486143 
L 299.86281 272.41063 
L 300.044898 272.496662 
L 305.815686 275.302789 
L 305.843699 275.101088 
L 305.871713 274.440121 
L 305.983767 271.246237 
L 306.01178 271.256281 
L 306.459997 271.4528 
L 306.572051 269.676867 
L 306.740132 269.757924 
L 307.174342 269.976379 
L 307.244376 269.27268 
L 307.31441 269.302415 
L 307.468484 269.349737 
L 307.496498 269.284316 
L 307.580538 268.691438 
L 307.636565 268.715702 
L 308.420944 269.097518 
L 308.434951 269.038746 
L 308.518992 268.441921 
L 308.631046 268.498135 
L 310.325864 269.380816 
L 312.55294 269.445756 
L 312.636981 268.707354 
L 312.707015 268.741319 
L 315.382307 270.127243 
L 319.122114 272.064497 
L 319.206155 271.259226 
L 319.262182 271.284728 
L 319.430263 271.374139 
L 319.44427 271.337249 
L 319.556324 269.66845 
L 319.696391 269.737751 
L 320.326696 270.030491 
L 320.382723 269.792528 
L 320.466764 269.829795 
L 326.881863 273.143437 
L 333.352989 276.232421 
L 334.963767 276.887289 
L 335.019794 276.847776 
L 335.075821 276.871938 
L 336.518518 277.410262 
L 336.644579 277.412181 
L 337.555019 277.794821 
L 337.611046 276.365228 
L 337.68108 275.389388 
L 337.737107 275.40945 
L 341.771056 277.24621 
L 341.785062 277.176323 
L 341.827083 276.071348 
L 341.96715 273.926284 
L 342.023178 273.797435 
L 342.093211 273.826638 
L 344.768504 275.077284 
L 344.880558 274.077859 
L 345.020626 274.140832 
L 345.398808 274.307024 
L 345.426822 274.243867 
L 345.524869 273.082222 
L 345.580896 273.106258 
L 350.469258 275.395942 
L 353.844889 276.856038 
L 354.040983 276.929533 
L 357.374594 278.310043 
L 358.523149 278.786941 
L 360.189954 279.400849 
L 360.231974 279.161319 
L 360.273995 277.254271 
L 360.442076 274.081711 
L 360.498103 274.047028 
L 360.55413 274.07316 
L 364.882221 276.04748 
L 365.778654 276.440475 
L 372.487895 279.37843 
L 379.435251 282.176639 
L 383.889403 283.824486 
L 384.015464 283.031333 
L 384.169539 282.445957 
L 384.225566 282.171149 
L 384.309606 281.480606 
L 384.393647 281.508325 
L 385.752303 281.979856 
L 385.76631 281.939234 
L 385.878364 281.93405 
L 390.40255 283.618259 
L 390.416557 283.581021 
L 390.612651 282.404616 
L 390.752719 282.45626 
L 392.321477 282.957844 
L 392.419524 281.822457 
L 392.489558 281.843829 
L 392.853734 281.935847 
L 392.965788 281.295111 
L 393.077842 281.336146 
L 399.675029 283.837252 
L 399.815097 283.810034 
L 399.885131 283.736617 
L 399.969171 283.249846 
L 400.19328 279.377572 
L 400.417388 279.4604 
L 402.966619 280.408438 
L 403.09268 279.713138 
L 403.232748 279.767733 
L 403.863053 279.918614 
L 403.9611 279.221982 
L 404.045141 279.252565 
L 404.493357 279.382308 
L 404.549384 278.258093 
L 404.661438 276.79967 
L 404.689452 276.807143 
L 404.87154 276.88532 
L 404.885547 276.826738 
L 404.95558 276.04888 
L 405.025614 275.216586 
L 405.081641 275.237853 
L 406.006088 275.546546 
L 410.474246 277.530974 
L 410.488253 277.427185 
L 410.54428 277.135837 
L 410.614314 277.159979 
L 417.813792 280.242519 
L 424.831182 282.996579 
L 427.422434 283.856848 
L 427.436441 283.85017 
L 427.520482 283.080748 
L 427.590515 283.101969 
L 430.013686 283.901765 
L 430.0417 283.621314 
L 430.097727 283.26509 
L 430.16776 283.284586 
L 431.162241 283.561215 
L 431.246281 283.004561 
L 431.302309 283.023149 
L 436.14865 284.759297 
L 436.218684 284.594797 
L 436.288718 284.617586 
L 437.241178 284.862608 
L 437.353232 283.353568 
L 437.507306 283.40566 
L 441.793377 284.877701 
L 442.073512 284.778754 
L 446.821806 286.404646 
L 446.835813 286.363323 
L 446.877833 285.889279 
L 446.947867 285.458944 
L 447.003894 285.475006 
L 447.522144 285.537379 
L 448.306523 285.780538 
L 450.883768 286.624336 
L 451.5701 286.740137 
L 458.867625 289.031081 
L 460.646485 289.457255 
L 460.660492 289.446932 
L 460.744532 288.9915 
L 460.800559 289.006563 
L 461.038674 289.059101 
L 461.164735 287.763249 
L 461.31881 287.809673 
L 463.321777 288.388965 
L 463.489858 287.831705 
L 463.503865 287.834109 
L 469.008525 289.425766 
L 477.118442 291.719406 
L 479.59764 292.306231 
L 479.765721 291.755725 
L 479.835755 291.774403 
L 486.222841 293.375417 
L 494.696935 295.369574 
L 496.027578 295.60347 
L 501.112034 296.635538 
L 501.140047 296.469962 
L 501.280115 295.815703 
L 501.43419 295.745826 
L 501.462203 295.706648 
L 501.742338 293.302895 
L 501.868399 293.332309 
L 504.557698 293.898501 
L 504.837834 293.616533 
L 504.991908 293.396206 
L 505.398104 293.485125 
L 508.241478 294.113007 
L 508.423566 293.393024 
L 508.45158 293.399114 
L 508.801749 293.374207 
L 508.955823 293.384434 
L 509.670168 293.46466 
L 509.866263 292.729738 
L 509.992324 292.564613 
L 510.244446 292.620354 
L 510.510574 292.580334 
L 510.748689 292.631113 
L 514.628564 293.516683 
L 515.356916 293.596883 
L 515.707085 293.372169 
L 516.715572 293.49937 
L 516.799613 293.18096 
L 516.883653 292.93012 
L 516.925673 292.93923 
L 520.441372 293.705931 
L 520.609453 293.421833 
L 520.693494 292.900687 
L 520.763528 292.915412 
L 521.603934 293.013768 
L 521.884069 292.748527 
L 528.705364 294.403249 
L 528.873446 293.836934 
L 528.957486 293.420913 
L 529.013513 293.433344 
L 529.433716 293.463135 
L 529.573784 293.318762 
L 529.657824 293.322771 
L 529.671831 293.257108 
L 529.769879 292.975609 
L 529.811899 292.984695 
L 536.04491 294.449819 
L 536.128951 294.260254 
L 536.184978 294.272662 
L 536.255012 294.232675 
L 536.409086 293.776385 
L 536.52114 293.689406 
L 536.857303 292.956544 
L 537.165451 291.694793 
L 537.403566 291.610288 
L 537.641681 291.565598 
L 538.285993 291.722057 
L 539.574615 291.98208 
L 539.714683 291.930379 
L 540.989299 292.243635 
L 541.003305 292.187332 
L 541.129366 288.934766 
L 541.423508 282.352412 
L 541.619603 281.02801 
L 542.10984 277.887778 
L 542.291928 274.229229 
L 542.347955 273.748459 
L 542.431996 273.059622 
L 542.474016 273.074512 
L 543.034287 273.310502 
L 543.048293 273.257208 
L 543.132334 272.861629 
L 543.202368 272.890999 
L 545.233349 273.80269 
L 545.40143 273.756829 
L 545.541498 273.796456 
L 545.555505 273.731286 
L 545.611532 272.504208 
L 545.681566 272.083587 
L 545.737593 272.093344 
L 546.087762 272.044982 
L 546.998202 272.428522 
L 547.054229 271.966584 
L 547.124263 271.456922 
L 547.18029 271.467612 
L 547.22231 271.395182 
L 547.418405 270.287118 
L 547.474432 269.99435 
L 548.17477 264.58267 
L 548.202784 264.594806 
L 548.328844 264.56502 
L 548.496926 264.415908 
L 548.524939 264.432719 
L 549.309318 264.821207 
L 549.323325 264.793463 
L 549.421372 264.271486 
L 549.60346 263.818618 
L 549.715514 263.726059 
L 549.771541 263.672612 
L 549.841575 263.712897 
L 550.023663 263.744895 
L 550.03767 263.717449 
L 550.121711 263.442776 
L 550.247772 263.286902 
L 550.429859 263.081708 
L 550.5139 261.812625 
L 550.569927 261.842869 
L 551.354306 262.271203 
L 551.396326 261.89006 
L 551.522387 260.083762 
L 551.564408 260.095333 
L 552.194712 260.03056 
L 552.236732 259.529746 
L 552.544881 253.071999 
L 552.797003 253.247304 
L 553.021111 253.336358 
L 553.035118 253.296931 
L 553.091145 252.892587 
L 553.301247 251.732382 
L 553.399294 251.437335 
L 553.455321 251.172794 
L 553.525355 251.219299 
L 553.76347 251.356165 
L 553.791483 251.288174 
L 553.861517 251.296069 
L 553.889531 251.317211 
L 554.253707 251.484634 
L 554.309734 251.434708 
L 554.379768 251.484904 
L 554.463808 251.416653 
L 554.519835 251.192301 
L 554.603876 251.244823 
L 554.785964 251.32887 
L 554.799971 251.300912 
L 554.841991 251.23207 
L 554.912025 251.268011 
L 555.472296 251.624981 
L 555.528323 251.508911 
L 555.598356 251.558118 
L 555.808458 251.720686 
L 555.822465 251.623781 
L 555.864485 251.448417 
L 555.934519 251.492471 
L 556.957013 252.246336 
L 556.97102 252.211035 
L 557.125094 249.695992 
L 557.223141 249.767529 
L 559.450217 251.454396 
L 559.618298 250.646901 
L 559.78638 250.707103 
L 561.187056 251.724446 
L 561.201063 251.673334 
L 561.229077 251.461984 
L 561.411165 249.571523 
L 561.565239 249.540785 
L 561.719313 249.098295 
L 561.789347 248.603678 
L 561.957428 246.942958 
L 561.999449 246.711786 
L 562.139516 246.35746 
L 562.20955 246.269489 
L 562.265577 246.027139 
L 562.335611 246.076083 
L 562.783828 246.318503 
L 562.881875 246.02179 
L 562.937902 246.060785 
L 563.11999 246.17721 
L 563.133997 246.082738 
L 563.568207 239.14049 
L 563.666254 239.189212 
L 563.792315 239.263406 
L 563.820328 239.169752 
L 563.876356 239.097662 
L 563.946389 239.13399 
L 564.03043 239.185749 
L 564.058443 239.112369 
L 564.268545 237.621414 
L 564.380599 237.709891 
L 564.46464 237.699255 
L 564.478646 237.672911 
L 564.54868 237.533231 
L 564.618714 237.567979 
L 566.145452 238.681199 
L 566.159459 238.654561 
L 566.243499 237.781146 
L 566.383567 237.23104 
L 566.397574 237.24072 
L 566.467607 237.107599 
L 566.551648 236.617876 
L 566.607675 236.663181 
L 568.582629 238.365505 
L 568.778724 238.476919 
L 568.806737 238.373795 
L 568.904785 238.417382 
L 571.734152 240.886051 
L 571.804185 240.627372 
L 571.986273 239.670658 
L 572.084321 239.752268 
L 572.532537 240.125116 
L 572.546544 240.075311 
L 572.588564 239.998172 
L 572.658598 240.050662 
L 573.232876 240.498781 
L 573.246882 240.459565 
L 573.30291 240.389901 
L 573.358937 240.431265 
L 573.456984 240.48227 
L 573.484997 240.44453 
L 573.541025 240.297065 
L 573.611058 240.348276 
L 577.448912 243.632755 
L 577.602987 243.701781 
L 577.616994 243.657779 
L 577.659014 243.578046 
L 577.729048 243.627071 
L 578.359352 244.115833 
L 578.387366 244.072066 
L 578.639488 241.948989 
L 578.863596 240.130938 
L 579.003664 240.080667 
L 579.157738 240.148233 
L 579.325819 240.270641 
L 579.353833 240.184526 
L 579.465887 240.257226 
L 582.589396 242.916748 
L 583.093639 243.142834 
L 584.914519 244.676932 
L 584.928526 244.646519 
L 584.970546 244.546813 
L 585.04058 244.585193 
L 588.570285 247.371583 
L 593.346593 251.130586 
L 593.388613 250.841448 
L 593.528681 248.581946 
L 593.598715 248.616148 
L 593.654742 248.507376 
L 593.794809 248.264195 
L 593.850836 247.988824 
L 593.96289 246.627065 
L 594.032924 246.671408 
L 595.657709 247.970589 
L 597.618657 249.494938 
L 597.632663 249.458244 
L 597.856772 248.690493 
L 597.982832 248.782422 
L 600.50405 250.723612 
L 600.518057 250.698941 
L 600.616105 250.397533 
L 600.686138 250.435134 
L 604.173823 252.982119 
L 604.481972 252.998128 
L 604.608033 252.69244 
L 604.636047 252.438378 
L 604.818135 250.158084 
L 604.832141 250.161157 
L 605.5745 250.731966 
L 610.64495 254.501143 
L 612.858019 256.030761 
L 612.872026 255.998919 
L 613.06812 255.549398 
L 613.166168 255.615286 
L 618.838908 259.512727 
L 619.763355 260.036374 
L 619.777361 260.003903 
L 619.833389 259.813957 
L 619.903422 259.839632 
L 621.108004 260.625545 
L 624.385588 262.644119 
L 624.413601 262.633505 
L 624.581682 259.14202 
L 624.707743 259.206956 
L 625.11394 259.358801 
L 625.492122 259.600563 
L 631.094829 263.178562 
L 631.346951 263.316996 
L 631.73914 263.437815 
L 637.692016 266.970766 
L 640.227241 268.383819 
L 640.255254 268.317473 
L 640.339295 267.338389 
L 640.451349 267.39229 
L 641.866033 268.139985 
L 641.936066 267.625537 
L 642.0061 267.655733 
L 642.314249 267.81084 
L 642.328256 267.762333 
L 642.468324 266.981251 
L 642.48233 266.986568 
L 651.124505 271.264121 
L 651.152519 271.168103 
L 651.166526 271.121683 
L 651.264573 268.613028 
L 651.334607 268.641676 
L 654.009899 270.054865 
L 654.09394 269.211141 
L 654.191987 269.256748 
L 655.00438 269.608006 
L 655.032393 269.278993 
L 655.08842 268.906742 
L 655.158454 268.938078 
L 655.91482 269.252384 
L 655.99886 268.660865 
L 656.054887 268.449196 
L 656.124921 268.48144 
L 660.929242 271.020322 
L 661.013283 270.857344 
L 661.083317 270.890995 
L 661.741635 271.111498 
L 661.965743 271.215318 
L 662.413959 271.396795 
L 662.596047 269.952749 
L 662.750122 267.005973 
L 662.764129 267.007725 
L 663.478474 267.410518 
L 664.977198 268.143749 
L 665.019218 267.919146 
L 665.089252 267.24203 
L 665.159286 267.256201 
L 665.999692 267.642626 
L 666.013698 267.60484 
L 666.083732 267.434645 
L 666.153766 267.470781 
L 666.18178 267.47053 
L 666.195786 267.413421 
L 666.2238 267.268403 
L 666.321847 265.529745 
L 666.377874 265.558066 
L 668.030673 266.499521 
L 668.04468 266.411026 
L 668.0867 265.382146 
L 668.226768 261.145869 
L 668.240774 261.149151 
L 668.871079 261.505557 
L 669.053167 261.628044 
L 669.123201 260.691233 
L 669.193234 260.725429 
L 672.302737 262.633703 
L 672.554858 261.157531 
L 672.568865 261.161331 
L 672.72294 261.173618 
L 672.736946 261.14041 
L 672.863007 260.64669 
L 672.905028 260.667267 
L 675.454259 262.263419 
L 675.482273 262.195062 
" clip-path="url(#p4514c0038b)" style="fill: none; stroke: #ff7f0e; stroke-width: 1.5; stroke-linecap: square"/>
   </g>
   <g id="patch_3">
    <path d="M 39.65 327.558125 
L 39.65 22.318125 
" style="fill: none; stroke: #000000; stroke-width: 0.8; stroke-linejoin: miter; stroke-linecap: square"/>
   </g>
   <g id="patch_4">
    <path d="M 705.76 327.558125 
L 705.76 22.318125 
" style="fill: none; stroke: #000000; stroke-width: 0.8; stroke-linejoin: miter; stroke-linecap: square"/>
   </g>
   <g id="patch_5">
    <path d="M 39.65 327.558125 
L 705.76 327.558125 
" style="fill: none; stroke: #000000; stroke-width: 0.8; stroke-linejoin: miter; stroke-linecap: square"/>
   </g>
   <g id="patch_6">
    <path d="M 39.65 22.318125 
L 705.76 22.318125 
" style="fill: none; stroke: #000000; stroke-width: 0.8; stroke-linejoin: miter; stroke-linecap: square"/>
   </g>
   <g id="text_13">
    <!-- training -->
    <g transform="translate(349.461563 16.318125) scale(0.12 -0.12)">
     <defs>
      <path id="DejaVuSans-74" d="M 1172 4494 
L 1172 3500 
L 2356 3500 
L 2356 3053 
L 1172 3053 
L 1172 1153 
Q 1172 725 1289 603 
Q 1406 481 1766 481 
L 2356 481 
L 2356 0 
L 1766 0 
Q 1100 0 847 248 
Q 594 497 594 1153 
L 594 3053 
L 172 3053 
L 172 3500 
L 594 3500 
L 594 4494 
L 1172 4494 
z
" transform="scale(0.015625)"/>
      <path id="DejaVuSans-72" d="M 2631 2963 
Q 2534 3019 2420 3045 
Q 2306 3072 2169 3072 
Q 1681 3072 1420 2755 
Q 1159 2438 1159 1844 
L 1159 0 
L 581 0 
L 581 3500 
L 1159 3500 
L 1159 2956 
Q 1341 3275 1631 3429 
Q 1922 3584 2338 3584 
Q 2397 3584 2469 3576 
Q 2541 3569 2628 3553 
L 2631 2963 
z
" transform="scale(0.015625)"/>
      <path id="DejaVuSans-61" d="M 2194 1759 
Q 1497 1759 1228 1600 
Q 959 1441 959 1056 
Q 959 750 1161 570 
Q 1363 391 1709 391 
Q 2188 391 2477 730 
Q 2766 1069 2766 1631 
L 2766 1759 
L 2194 1759 
z
M 3341 1997 
L 3341 0 
L 2766 0 
L 2766 531 
Q 2569 213 2275 61 
Q 1981 -91 1556 -91 
Q 1019 -91 701 211 
Q 384 513 384 1019 
Q 384 1609 779 1909 
Q 1175 2209 1959 2209 
L 2766 2209 
L 2766 2266 
Q 2766 2663 2505 2880 
Q 2244 3097 1772 3097 
Q 1472 3097 1187 3025 
Q 903 2953 641 2809 
L 641 3341 
Q 956 3463 1253 3523 
Q 1550 3584 1831 3584 
Q 2591 3584 2966 3190 
Q 3341 2797 3341 1997 
z
" transform="scale(0.015625)"/>
      <path id="DejaVuSans-69" d="M 603 3500 
L 1178 3500 
L 1178 0 
L 603 0 
L 603 3500 
z
M 603 4863 
L 1178 4863 
L 1178 4134 
L 603 4134 
L 603 4863 
z
" transform="scale(0.015625)"/>
      <path id="DejaVuSans-6e" d="M 3513 2113 
L 3513 0 
L 2938 0 
L 2938 2094 
Q 2938 2591 2744 2837 
Q 2550 3084 2163 3084 
Q 1697 3084 1428 2787 
Q 1159 2491 1159 1978 
L 1159 0 
L 581 0 
L 581 3500 
L 1159 3500 
L 1159 2956 
Q 1366 3272 1645 3428 
Q 1925 3584 2291 3584 
Q 2894 3584 3203 3211 
Q 3513 2838 3513 2113 
z
" transform="scale(0.015625)"/>
      <path id="DejaVuSans-67" d="M 2906 1791 
Q 2906 2416 2648 2759 
Q 2391 3103 1925 3103 
Q 1463 3103 1205 2759 
Q 947 2416 947 1791 
Q 947 1169 1205 825 
Q 1463 481 1925 481 
Q 2391 481 2648 825 
Q 2906 1169 2906 1791 
z
M 3481 434 
Q 3481 -459 3084 -895 
Q 2688 -1331 1869 -1331 
Q 1566 -1331 1297 -1286 
Q 1028 -1241 775 -1147 
L 775 -588 
Q 1028 -725 1275 -790 
Q 1522 -856 1778 -856 
Q 2344 -856 2625 -561 
Q 2906 -266 2906 331 
L 2906 616 
Q 2728 306 2450 153 
Q 2172 0 1784 0 
Q 1141 0 747 490 
Q 353 981 353 1791 
Q 353 2603 747 3093 
Q 1141 3584 1784 3584 
Q 2172 3584 2450 3431 
Q 2728 3278 2906 2969 
L 2906 3500 
L 3481 3500 
L 3481 434 
z
" transform="scale(0.015625)"/>
     </defs>
     <use xlink:href="#DejaVuSans-74"/>
     <use xlink:href="#DejaVuSans-72" x="39.208984"/>
     <use xlink:href="#DejaVuSans-61" x="80.322266"/>
     <use xlink:href="#DejaVuSans-69" x="141.601562"/>
     <use xlink:href="#DejaVuSans-6e" x="169.384766"/>
     <use xlink:href="#DejaVuSans-69" x="232.763672"/>
     <use xlink:href="#DejaVuSans-6e" x="260.546875"/>
     <use xlink:href="#DejaVuSans-67" x="323.925781"/>
    </g>
   </g>
   <g id="legend_1">
    <g id="patch_7">
     <path d="M 617.36625 59.674375 
L 698.76 59.674375 
Q 700.76 59.674375 700.76 57.674375 
L 700.76 29.318125 
Q 700.76 27.318125 698.76 27.318125 
L 617.36625 27.318125 
Q 615.36625 27.318125 615.36625 29.318125 
L 615.36625 57.674375 
Q 615.36625 59.674375 617.36625 59.674375 
z
" style="fill: #ffffff; opacity: 0.8; stroke: #cccccc; stroke-linejoin: miter"/>
    </g>
    <g id="line2d_15">
     <path d="M 619.36625 35.416562 
L 629.36625 35.416562 
L 639.36625 35.416562 
" style="fill: none; stroke: #1f77b4; stroke-width: 1.5; stroke-linecap: square"/>
    </g>
    <g id="text_14">
     <!-- observed -->
     <g transform="translate(647.36625 38.916562) scale(0.1 -0.1)">
      <defs>
       <path id="DejaVuSans-6f" d="M 1959 3097 
Q 1497 3097 1228 2736 
Q 959 2375 959 1747 
Q 959 1119 1226 758 
Q 1494 397 1959 397 
Q 2419 397 2687 759 
Q 2956 1122 2956 1747 
Q 2956 2369 2687 2733 
Q 2419 3097 1959 3097 
z
M 1959 3584 
Q 2709 3584 3137 3096 
Q 3566 2609 3566 1747 
Q 3566 888 3137 398 
Q 2709 -91 1959 -91 
Q 1206 -91 779 398 
Q 353 888 353 1747 
Q 353 2609 779 3096 
Q 1206 3584 1959 3584 
z
" transform="scale(0.015625)"/>
       <path id="DejaVuSans-62" d="M 3116 1747 
Q 3116 2381 2855 2742 
Q 2594 3103 2138 3103 
Q 1681 3103 1420 2742 
Q 1159 2381 1159 1747 
Q 1159 1113 1420 752 
Q 1681 391 2138 391 
Q 2594 391 2855 752 
Q 3116 1113 3116 1747 
z
M 1159 2969 
Q 1341 3281 1617 3432 
Q 1894 3584 2278 3584 
Q 2916 3584 3314 3078 
Q 3713 2572 3713 1747 
Q 3713 922 3314 415 
Q 2916 -91 2278 -91 
Q 1894 -91 1617 61 
Q 1341 213 1159 525 
L 1159 0 
L 581 0 
L 581 4863 
L 1159 4863 
L 1159 2969 
z
" transform="scale(0.015625)"/>
       <path id="DejaVuSans-73" d="M 2834 3397 
L 2834 2853 
Q 2591 2978 2328 3040 
Q 2066 3103 1784 3103 
Q 1356 3103 1142 2972 
Q 928 2841 928 2578 
Q 928 2378 1081 2264 
Q 1234 2150 1697 2047 
L 1894 2003 
Q 2506 1872 2764 1633 
Q 3022 1394 3022 966 
Q 3022 478 2636 193 
Q 2250 -91 1575 -91 
Q 1294 -91 989 -36 
Q 684 19 347 128 
L 347 722 
Q 666 556 975 473 
Q 1284 391 1588 391 
Q 1994 391 2212 530 
Q 2431 669 2431 922 
Q 2431 1156 2273 1281 
Q 2116 1406 1581 1522 
L 1381 1569 
Q 847 1681 609 1914 
Q 372 2147 372 2553 
Q 372 3047 722 3315 
Q 1072 3584 1716 3584 
Q 2034 3584 2315 3537 
Q 2597 3491 2834 3397 
z
" transform="scale(0.015625)"/>
       <path id="DejaVuSans-65" d="M 3597 1894 
L 3597 1613 
L 953 1613 
Q 991 1019 1311 708 
Q 1631 397 2203 397 
Q 2534 397 2845 478 
Q 3156 559 3463 722 
L 3463 178 
Q 3153 47 2828 -22 
Q 2503 -91 2169 -91 
Q 1331 -91 842 396 
Q 353 884 353 1716 
Q 353 2575 817 3079 
Q 1281 3584 2069 3584 
Q 2775 3584 3186 3129 
Q 3597 2675 3597 1894 
z
M 3022 2063 
Q 3016 2534 2758 2815 
Q 2500 3097 2075 3097 
Q 1594 3097 1305 2825 
Q 1016 2553 972 2059 
L 3022 2063 
z
" transform="scale(0.015625)"/>
       <path id="DejaVuSans-76" d="M 191 3500 
L 800 3500 
L 1894 563 
L 2988 3500 
L 3597 3500 
L 2284 0 
L 1503 0 
L 191 3500 
z
" transform="scale(0.015625)"/>
       <path id="DejaVuSans-64" d="M 2906 2969 
L 2906 4863 
L 3481 4863 
L 3481 0 
L 2906 0 
L 2906 525 
Q 2725 213 2448 61 
Q 2172 -91 1784 -91 
Q 1150 -91 751 415 
Q 353 922 353 1747 
Q 353 2572 751 3078 
Q 1150 3584 1784 3584 
Q 2172 3584 2448 3432 
Q 2725 3281 2906 2969 
z
M 947 1747 
Q 947 1113 1208 752 
Q 1469 391 1925 391 
Q 2381 391 2643 752 
Q 2906 1113 2906 1747 
Q 2906 2381 2643 2742 
Q 2381 3103 1925 3103 
Q 1469 3103 1208 2742 
Q 947 2381 947 1747 
z
" transform="scale(0.015625)"/>
      </defs>
      <use xlink:href="#DejaVuSans-6f"/>
      <use xlink:href="#DejaVuSans-62" x="61.181641"/>
      <use xlink:href="#DejaVuSans-73" x="124.658203"/>
      <use xlink:href="#DejaVuSans-65" x="176.757812"/>
      <use xlink:href="#DejaVuSans-72" x="238.28125"/>
      <use xlink:href="#DejaVuSans-76" x="279.394531"/>
      <use xlink:href="#DejaVuSans-65" x="338.574219"/>
      <use xlink:href="#DejaVuSans-64" x="400.097656"/>
     </g>
    </g>
    <g id="line2d_16">
     <path d="M 619.36625 50.094688 
L 629.36625 50.094688 
L 639.36625 50.094688 
" style="fill: none; stroke: #ff7f0e; stroke-width: 1.5; stroke-linecap: square"/>
    </g>
    <g id="text_15">
     <!-- simulated -->
     <g transform="translate(647.36625 53.594688) scale(0.1 -0.1)">
      <defs>
       <path id="DejaVuSans-6d" d="M 3328 2828 
Q 3544 3216 3844 3400 
Q 4144 3584 4550 3584 
Q 5097 3584 5394 3201 
Q 5691 2819 5691 2113 
L 5691 0 
L 5113 0 
L 5113 2094 
Q 5113 2597 4934 2840 
Q 4756 3084 4391 3084 
Q 3944 3084 3684 2787 
Q 3425 2491 3425 1978 
L 3425 0 
L 2847 0 
L 2847 2094 
Q 2847 2600 2669 2842 
Q 2491 3084 2119 3084 
Q 1678 3084 1418 2786 
Q 1159 2488 1159 1978 
L 1159 0 
L 581 0 
L 581 3500 
L 1159 3500 
L 1159 2956 
Q 1356 3278 1631 3431 
Q 1906 3584 2284 3584 
Q 2666 3584 2933 3390 
Q 3200 3197 3328 2828 
z
" transform="scale(0.015625)"/>
       <path id="DejaVuSans-75" d="M 544 1381 
L 544 3500 
L 1119 3500 
L 1119 1403 
Q 1119 906 1312 657 
Q 1506 409 1894 409 
Q 2359 409 2629 706 
Q 2900 1003 2900 1516 
L 2900 3500 
L 3475 3500 
L 3475 0 
L 2900 0 
L 2900 538 
Q 2691 219 2414 64 
Q 2138 -91 1772 -91 
Q 1169 -91 856 284 
Q 544 659 544 1381 
z
M 1991 3584 
L 1991 3584 
z
" transform="scale(0.015625)"/>
       <path id="DejaVuSans-6c" d="M 603 4863 
L 1178 4863 
L 1178 0 
L 603 0 
L 603 4863 
z
" transform="scale(0.015625)"/>
      </defs>
      <use xlink:href="#DejaVuSans-73"/>
      <use xlink:href="#DejaVuSans-69" x="52.099609"/>
      <use xlink:href="#DejaVuSans-6d" x="79.882812"/>
      <use xlink:href="#DejaVuSans-75" x="177.294922"/>
      <use xlink:href="#DejaVuSans-6c" x="240.673828"/>
      <use xlink:href="#DejaVuSans-61" x="268.457031"/>
      <use xlink:href="#DejaVuSans-74" x="329.736328"/>
      <use xlink:href="#DejaVuSans-65" x="368.945312"/>
      <use xlink:href="#DejaVuSans-64" x="430.46875"/>
     </g>
    </g>
   </g>
  </g>
 </g>
 <defs>
  <clipPath id="p4514c0038b">
   <rect x="39.65" y="22.318125" width="666.11" height="305.24"/>
  </clipPath>
 </defs>
</svg>
