<?xml version="1.0" encoding="utf-8" standalone="no"?>
<!DOCTYPE svg PUBLIC "-//W3C//DTD SVG 1.1//EN"
  "http://www.w3.org/Graphics/SVG/1.1/DTD/svg11.dtd">
<svg xmlns:xlink="http://www.w3.org/1999/xlink" width="720pt" height="360pt" viewBox="0 0 720 360" xmlns="http://www.w3.org/2000/svg" version="1.1">
 <metadata>
  <rdf:RDF xmlns:dc="http://purl.org/dc/elements/1.1/" xmlns:cc="http://creativecommons.org/ns#" xmlns:rdf="http://www.w3.org/1999/02/22-rdf-syntax-ns#">
   <cc:Work>
    <dc:type rdf:resource="http://purl.org/dc/dcmitype/StillImage"/>
    <dc:date>2023-10-23T10:55:24.858912</dc:date>
    <dc:format>image/svg+xml</dc:format>
    <dc:creator>
     <cc:Agent>
      <dc:title>Matplotlib v3.7.1, https://matplotlib.org/</dc:title>
     </cc:Agent>
    </dc:creator>
   </cc:Work>
  </rdf:RDF>
 </metadata>
 <defs>
  <style type="text/css">*{stroke-linejoin: round; stroke-linecap: butt}</style>
 </defs>
 <g id="figure_1">
  <g id="patch_1">
   <path d="M 0 360 
L 720 360 
L 720 0 
L 0 0 
z
" style="fill: #ffffff"/>
  </g>
  <g id="axes_1">
   <g id="patch_2">
    <path d="M 90 288 
L 648 288 
L 648 43.2 
L 90 43.2 
z
" style="fill: #ffffff"/>
   </g>
   <g id="matplotlib.axis_1">
    <g id="xtick_1">
     <g id="line2d_1">
      <defs>
       <path id="m6d9cc16b65" d="M 0 0 
L 0 3.5 
" style="stroke: #000000; stroke-width: 0.8"/>
      </defs>
      <g>
       <use xlink:href="#m6d9cc16b65" x="93.675016" y="288" style="stroke: #000000; stroke-width: 0.8"/>
      </g>
     </g>
     <g id="text_1">
      <!-- 2023-09-17 -->
      <g transform="translate(32.031675 337.765903) rotate(-30) scale(0.12 -0.12)">
       <defs>
        <path id="DejaVuSans-32" d="M 1228 531 
L 3431 531 
L 3431 0 
L 469 0 
L 469 531 
Q 828 903 1448 1529 
Q 2069 2156 2228 2338 
Q 2531 2678 2651 2914 
Q 2772 3150 2772 3378 
Q 2772 3750 2511 3984 
Q 2250 4219 1831 4219 
Q 1534 4219 1204 4116 
Q 875 4013 500 3803 
L 500 4441 
Q 881 4594 1212 4672 
Q 1544 4750 1819 4750 
Q 2544 4750 2975 4387 
Q 3406 4025 3406 3419 
Q 3406 3131 3298 2873 
Q 3191 2616 2906 2266 
Q 2828 2175 2409 1742 
Q 1991 1309 1228 531 
z
" transform="scale(0.015625)"/>
        <path id="DejaVuSans-30" d="M 2034 4250 
Q 1547 4250 1301 3770 
Q 1056 3291 1056 2328 
Q 1056 1369 1301 889 
Q 1547 409 2034 409 
Q 2525 409 2770 889 
Q 3016 1369 3016 2328 
Q 3016 3291 2770 3770 
Q 2525 4250 2034 4250 
z
M 2034 4750 
Q 2819 4750 3233 4129 
Q 3647 3509 3647 2328 
Q 3647 1150 3233 529 
Q 2819 -91 2034 -91 
Q 1250 -91 836 529 
Q 422 1150 422 2328 
Q 422 3509 836 4129 
Q 1250 4750 2034 4750 
z
" transform="scale(0.015625)"/>
        <path id="DejaVuSans-33" d="M 2597 2516 
Q 3050 2419 3304 2112 
Q 3559 1806 3559 1356 
Q 3559 666 3084 287 
Q 2609 -91 1734 -91 
Q 1441 -91 1130 -33 
Q 819 25 488 141 
L 488 750 
Q 750 597 1062 519 
Q 1375 441 1716 441 
Q 2309 441 2620 675 
Q 2931 909 2931 1356 
Q 2931 1769 2642 2001 
Q 2353 2234 1838 2234 
L 1294 2234 
L 1294 2753 
L 1863 2753 
Q 2328 2753 2575 2939 
Q 2822 3125 2822 3475 
Q 2822 3834 2567 4026 
Q 2313 4219 1838 4219 
Q 1578 4219 1281 4162 
Q 984 4106 628 3988 
L 628 4550 
Q 988 4650 1302 4700 
Q 1616 4750 1894 4750 
Q 2613 4750 3031 4423 
Q 3450 4097 3450 3541 
Q 3450 3153 3228 2886 
Q 3006 2619 2597 2516 
z
" transform="scale(0.015625)"/>
        <path id="DejaVuSans-2d" d="M 313 2009 
L 1997 2009 
L 1997 1497 
L 313 1497 
L 313 2009 
z
" transform="scale(0.015625)"/>
        <path id="DejaVuSans-39" d="M 703 97 
L 703 672 
Q 941 559 1184 500 
Q 1428 441 1663 441 
Q 2288 441 2617 861 
Q 2947 1281 2994 2138 
Q 2813 1869 2534 1725 
Q 2256 1581 1919 1581 
Q 1219 1581 811 2004 
Q 403 2428 403 3163 
Q 403 3881 828 4315 
Q 1253 4750 1959 4750 
Q 2769 4750 3195 4129 
Q 3622 3509 3622 2328 
Q 3622 1225 3098 567 
Q 2575 -91 1691 -91 
Q 1453 -91 1209 -44 
Q 966 3 703 97 
z
M 1959 2075 
Q 2384 2075 2632 2365 
Q 2881 2656 2881 3163 
Q 2881 3666 2632 3958 
Q 2384 4250 1959 4250 
Q 1534 4250 1286 3958 
Q 1038 3666 1038 3163 
Q 1038 2656 1286 2365 
Q 1534 2075 1959 2075 
z
" transform="scale(0.015625)"/>
        <path id="DejaVuSans-31" d="M 794 531 
L 1825 531 
L 1825 4091 
L 703 3866 
L 703 4441 
L 1819 4666 
L 2450 4666 
L 2450 531 
L 3481 531 
L 3481 0 
L 794 0 
L 794 531 
z
" transform="scale(0.015625)"/>
        <path id="DejaVuSans-37" d="M 525 4666 
L 3525 4666 
L 3525 4397 
L 1831 0 
L 1172 0 
L 2766 4134 
L 525 4134 
L 525 4666 
z
" transform="scale(0.015625)"/>
       </defs>
       <use xlink:href="#DejaVuSans-32"/>
       <use xlink:href="#DejaVuSans-30" x="63.623047"/>
       <use xlink:href="#DejaVuSans-32" x="127.246094"/>
       <use xlink:href="#DejaVuSans-33" x="190.869141"/>
       <use xlink:href="#DejaVuSans-2d" x="254.492188"/>
       <use xlink:href="#DejaVuSans-30" x="290.576172"/>
       <use xlink:href="#DejaVuSans-39" x="354.199219"/>
       <use xlink:href="#DejaVuSans-2d" x="417.822266"/>
       <use xlink:href="#DejaVuSans-31" x="453.90625"/>
       <use xlink:href="#DejaVuSans-37" x="517.529297"/>
      </g>
     </g>
    </g>
    <g id="xtick_2">
     <g id="line2d_2">
      <g>
       <use xlink:href="#m6d9cc16b65" x="151.511337" y="288" style="stroke: #000000; stroke-width: 0.8"/>
      </g>
     </g>
     <g id="text_2">
      <!-- 2023-09-21 -->
      <g transform="translate(89.867995 337.765903) rotate(-30) scale(0.12 -0.12)">
       <use xlink:href="#DejaVuSans-32"/>
       <use xlink:href="#DejaVuSans-30" x="63.623047"/>
       <use xlink:href="#DejaVuSans-32" x="127.246094"/>
       <use xlink:href="#DejaVuSans-33" x="190.869141"/>
       <use xlink:href="#DejaVuSans-2d" x="254.492188"/>
       <use xlink:href="#DejaVuSans-30" x="290.576172"/>
       <use xlink:href="#DejaVuSans-39" x="354.199219"/>
       <use xlink:href="#DejaVuSans-2d" x="417.822266"/>
       <use xlink:href="#DejaVuSans-32" x="453.90625"/>
       <use xlink:href="#DejaVuSans-31" x="517.529297"/>
      </g>
     </g>
    </g>
    <g id="xtick_3">
     <g id="line2d_3">
      <g>
       <use xlink:href="#m6d9cc16b65" x="209.347657" y="288" style="stroke: #000000; stroke-width: 0.8"/>
      </g>
     </g>
     <g id="text_3">
      <!-- 2023-09-25 -->
      <g transform="translate(147.704315 337.765903) rotate(-30) scale(0.12 -0.12)">
       <defs>
        <path id="DejaVuSans-35" d="M 691 4666 
L 3169 4666 
L 3169 4134 
L 1269 4134 
L 1269 2991 
Q 1406 3038 1543 3061 
Q 1681 3084 1819 3084 
Q 2600 3084 3056 2656 
Q 3513 2228 3513 1497 
Q 3513 744 3044 326 
Q 2575 -91 1722 -91 
Q 1428 -91 1123 -41 
Q 819 9 494 109 
L 494 744 
Q 775 591 1075 516 
Q 1375 441 1709 441 
Q 2250 441 2565 725 
Q 2881 1009 2881 1497 
Q 2881 1984 2565 2268 
Q 2250 2553 1709 2553 
Q 1456 2553 1204 2497 
Q 953 2441 691 2322 
L 691 4666 
z
" transform="scale(0.015625)"/>
       </defs>
       <use xlink:href="#DejaVuSans-32"/>
       <use xlink:href="#DejaVuSans-30" x="63.623047"/>
       <use xlink:href="#DejaVuSans-32" x="127.246094"/>
       <use xlink:href="#DejaVuSans-33" x="190.869141"/>
       <use xlink:href="#DejaVuSans-2d" x="254.492188"/>
       <use xlink:href="#DejaVuSans-30" x="290.576172"/>
       <use xlink:href="#DejaVuSans-39" x="354.199219"/>
       <use xlink:href="#DejaVuSans-2d" x="417.822266"/>
       <use xlink:href="#DejaVuSans-32" x="453.90625"/>
       <use xlink:href="#DejaVuSans-35" x="517.529297"/>
      </g>
     </g>
    </g>
    <g id="xtick_4">
     <g id="line2d_4">
      <g>
       <use xlink:href="#m6d9cc16b65" x="267.183978" y="288" style="stroke: #000000; stroke-width: 0.8"/>
      </g>
     </g>
     <g id="text_4">
      <!-- 2023-09-29 -->
      <g transform="translate(205.540636 337.765903) rotate(-30) scale(0.12 -0.12)">
       <use xlink:href="#DejaVuSans-32"/>
       <use xlink:href="#DejaVuSans-30" x="63.623047"/>
       <use xlink:href="#DejaVuSans-32" x="127.246094"/>
       <use xlink:href="#DejaVuSans-33" x="190.869141"/>
       <use xlink:href="#DejaVuSans-2d" x="254.492188"/>
       <use xlink:href="#DejaVuSans-30" x="290.576172"/>
       <use xlink:href="#DejaVuSans-39" x="354.199219"/>
       <use xlink:href="#DejaVuSans-2d" x="417.822266"/>
       <use xlink:href="#DejaVuSans-32" x="453.90625"/>
       <use xlink:href="#DejaVuSans-39" x="517.529297"/>
      </g>
     </g>
    </g>
    <g id="xtick_5">
     <g id="line2d_5">
      <g>
       <use xlink:href="#m6d9cc16b65" x="296.102138" y="288" style="stroke: #000000; stroke-width: 0.8"/>
      </g>
     </g>
     <g id="text_5">
      <!-- 2023-10-01 -->
      <g transform="translate(234.458796 337.765903) rotate(-30) scale(0.12 -0.12)">
       <use xlink:href="#DejaVuSans-32"/>
       <use xlink:href="#DejaVuSans-30" x="63.623047"/>
       <use xlink:href="#DejaVuSans-32" x="127.246094"/>
       <use xlink:href="#DejaVuSans-33" x="190.869141"/>
       <use xlink:href="#DejaVuSans-2d" x="254.492188"/>
       <use xlink:href="#DejaVuSans-31" x="290.576172"/>
       <use xlink:href="#DejaVuSans-30" x="354.199219"/>
       <use xlink:href="#DejaVuSans-2d" x="417.822266"/>
       <use xlink:href="#DejaVuSans-30" x="453.90625"/>
       <use xlink:href="#DejaVuSans-31" x="517.529297"/>
      </g>
     </g>
    </g>
    <g id="xtick_6">
     <g id="line2d_6">
      <g>
       <use xlink:href="#m6d9cc16b65" x="353.938458" y="288" style="stroke: #000000; stroke-width: 0.8"/>
      </g>
     </g>
     <g id="text_6">
      <!-- 2023-10-05 -->
      <g transform="translate(292.295117 337.765903) rotate(-30) scale(0.12 -0.12)">
       <use xlink:href="#DejaVuSans-32"/>
       <use xlink:href="#DejaVuSans-30" x="63.623047"/>
       <use xlink:href="#DejaVuSans-32" x="127.246094"/>
       <use xlink:href="#DejaVuSans-33" x="190.869141"/>
       <use xlink:href="#DejaVuSans-2d" x="254.492188"/>
       <use xlink:href="#DejaVuSans-31" x="290.576172"/>
       <use xlink:href="#DejaVuSans-30" x="354.199219"/>
       <use xlink:href="#DejaVuSans-2d" x="417.822266"/>
       <use xlink:href="#DejaVuSans-30" x="453.90625"/>
       <use xlink:href="#DejaVuSans-35" x="517.529297"/>
      </g>
     </g>
    </g>
    <g id="xtick_7">
     <g id="line2d_7">
      <g>
       <use xlink:href="#m6d9cc16b65" x="411.774779" y="288" style="stroke: #000000; stroke-width: 0.8"/>
      </g>
     </g>
     <g id="text_7">
      <!-- 2023-10-09 -->
      <g transform="translate(350.131437 337.765903) rotate(-30) scale(0.12 -0.12)">
       <use xlink:href="#DejaVuSans-32"/>
       <use xlink:href="#DejaVuSans-30" x="63.623047"/>
       <use xlink:href="#DejaVuSans-32" x="127.246094"/>
       <use xlink:href="#DejaVuSans-33" x="190.869141"/>
       <use xlink:href="#DejaVuSans-2d" x="254.492188"/>
       <use xlink:href="#DejaVuSans-31" x="290.576172"/>
       <use xlink:href="#DejaVuSans-30" x="354.199219"/>
       <use xlink:href="#DejaVuSans-2d" x="417.822266"/>
       <use xlink:href="#DejaVuSans-30" x="453.90625"/>
       <use xlink:href="#DejaVuSans-39" x="517.529297"/>
      </g>
     </g>
    </g>
    <g id="xtick_8">
     <g id="line2d_8">
      <g>
       <use xlink:href="#m6d9cc16b65" x="469.611099" y="288" style="stroke: #000000; stroke-width: 0.8"/>
      </g>
     </g>
     <g id="text_8">
      <!-- 2023-10-13 -->
      <g transform="translate(407.967757 337.765903) rotate(-30) scale(0.12 -0.12)">
       <use xlink:href="#DejaVuSans-32"/>
       <use xlink:href="#DejaVuSans-30" x="63.623047"/>
       <use xlink:href="#DejaVuSans-32" x="127.246094"/>
       <use xlink:href="#DejaVuSans-33" x="190.869141"/>
       <use xlink:href="#DejaVuSans-2d" x="254.492188"/>
       <use xlink:href="#DejaVuSans-31" x="290.576172"/>
       <use xlink:href="#DejaVuSans-30" x="354.199219"/>
       <use xlink:href="#DejaVuSans-2d" x="417.822266"/>
       <use xlink:href="#DejaVuSans-31" x="453.90625"/>
       <use xlink:href="#DejaVuSans-33" x="517.529297"/>
      </g>
     </g>
    </g>
    <g id="xtick_9">
     <g id="line2d_9">
      <g>
       <use xlink:href="#m6d9cc16b65" x="527.44742" y="288" style="stroke: #000000; stroke-width: 0.8"/>
      </g>
     </g>
     <g id="text_9">
      <!-- 2023-10-17 -->
      <g transform="translate(465.804078 337.765903) rotate(-30) scale(0.12 -0.12)">
       <use xlink:href="#DejaVuSans-32"/>
       <use xlink:href="#DejaVuSans-30" x="63.623047"/>
       <use xlink:href="#DejaVuSans-32" x="127.246094"/>
       <use xlink:href="#DejaVuSans-33" x="190.869141"/>
       <use xlink:href="#DejaVuSans-2d" x="254.492188"/>
       <use xlink:href="#DejaVuSans-31" x="290.576172"/>
       <use xlink:href="#DejaVuSans-30" x="354.199219"/>
       <use xlink:href="#DejaVuSans-2d" x="417.822266"/>
       <use xlink:href="#DejaVuSans-31" x="453.90625"/>
       <use xlink:href="#DejaVuSans-37" x="517.529297"/>
      </g>
     </g>
    </g>
    <g id="xtick_10">
     <g id="line2d_10">
      <g>
       <use xlink:href="#m6d9cc16b65" x="585.28374" y="288" style="stroke: #000000; stroke-width: 0.8"/>
      </g>
     </g>
     <g id="text_10">
      <!-- 2023-10-21 -->
      <g transform="translate(523.640398 337.765903) rotate(-30) scale(0.12 -0.12)">
       <use xlink:href="#DejaVuSans-32"/>
       <use xlink:href="#DejaVuSans-30" x="63.623047"/>
       <use xlink:href="#DejaVuSans-32" x="127.246094"/>
       <use xlink:href="#DejaVuSans-33" x="190.869141"/>
       <use xlink:href="#DejaVuSans-2d" x="254.492188"/>
       <use xlink:href="#DejaVuSans-31" x="290.576172"/>
       <use xlink:href="#DejaVuSans-30" x="354.199219"/>
       <use xlink:href="#DejaVuSans-2d" x="417.822266"/>
       <use xlink:href="#DejaVuSans-32" x="453.90625"/>
       <use xlink:href="#DejaVuSans-31" x="517.529297"/>
      </g>
     </g>
    </g>
    <g id="xtick_11">
     <g id="line2d_11">
      <g>
       <use xlink:href="#m6d9cc16b65" x="643.12006" y="288" style="stroke: #000000; stroke-width: 0.8"/>
      </g>
     </g>
     <g id="text_11">
      <!-- 2023-10-25 -->
      <g transform="translate(581.476719 337.765903) rotate(-30) scale(0.12 -0.12)">
       <use xlink:href="#DejaVuSans-32"/>
       <use xlink:href="#DejaVuSans-30" x="63.623047"/>
       <use xlink:href="#DejaVuSans-32" x="127.246094"/>
       <use xlink:href="#DejaVuSans-33" x="190.869141"/>
       <use xlink:href="#DejaVuSans-2d" x="254.492188"/>
       <use xlink:href="#DejaVuSans-31" x="290.576172"/>
       <use xlink:href="#DejaVuSans-30" x="354.199219"/>
       <use xlink:href="#DejaVuSans-2d" x="417.822266"/>
       <use xlink:href="#DejaVuSans-32" x="453.90625"/>
       <use xlink:href="#DejaVuSans-35" x="517.529297"/>
      </g>
     </g>
    </g>
   </g>
   <g id="matplotlib.axis_2">
    <g id="ytick_1">
     <g id="line2d_12">
      <defs>
       <path id="m62cd4d81a2" d="M 0 0 
L -3.5 0 
" style="stroke: #000000; stroke-width: 0.8"/>
      </defs>
      <g>
       <use xlink:href="#m62cd4d81a2" x="90" y="266.520685" style="stroke: #000000; stroke-width: 0.8"/>
      </g>
     </g>
     <g id="text_12">
      <!-- −0.10 -->
      <g transform="translate(46.225625 271.079748) scale(0.12 -0.12)">
       <defs>
        <path id="DejaVuSans-2212" d="M 678 2272 
L 4684 2272 
L 4684 1741 
L 678 1741 
L 678 2272 
z
" transform="scale(0.015625)"/>
        <path id="DejaVuSans-2e" d="M 684 794 
L 1344 794 
L 1344 0 
L 684 0 
L 684 794 
z
" transform="scale(0.015625)"/>
       </defs>
       <use xlink:href="#DejaVuSans-2212"/>
       <use xlink:href="#DejaVuSans-30" x="83.789062"/>
       <use xlink:href="#DejaVuSans-2e" x="147.412109"/>
       <use xlink:href="#DejaVuSans-31" x="179.199219"/>
       <use xlink:href="#DejaVuSans-30" x="242.822266"/>
      </g>
     </g>
    </g>
    <g id="ytick_2">
     <g id="line2d_13">
      <g>
       <use xlink:href="#m62cd4d81a2" x="90" y="230.75168" style="stroke: #000000; stroke-width: 0.8"/>
      </g>
     </g>
     <g id="text_13">
      <!-- −0.05 -->
      <g transform="translate(46.225625 235.310743) scale(0.12 -0.12)">
       <use xlink:href="#DejaVuSans-2212"/>
       <use xlink:href="#DejaVuSans-30" x="83.789062"/>
       <use xlink:href="#DejaVuSans-2e" x="147.412109"/>
       <use xlink:href="#DejaVuSans-30" x="179.199219"/>
       <use xlink:href="#DejaVuSans-35" x="242.822266"/>
      </g>
     </g>
    </g>
    <g id="ytick_3">
     <g id="line2d_14">
      <g>
       <use xlink:href="#m62cd4d81a2" x="90" y="194.982675" style="stroke: #000000; stroke-width: 0.8"/>
      </g>
     </g>
     <g id="text_14">
      <!-- 0.00 -->
      <g transform="translate(56.28125 199.541738) scale(0.12 -0.12)">
       <use xlink:href="#DejaVuSans-30"/>
       <use xlink:href="#DejaVuSans-2e" x="63.623047"/>
       <use xlink:href="#DejaVuSans-30" x="95.410156"/>
       <use xlink:href="#DejaVuSans-30" x="159.033203"/>
      </g>
     </g>
    </g>
    <g id="ytick_4">
     <g id="line2d_15">
      <g>
       <use xlink:href="#m62cd4d81a2" x="90" y="159.21367" style="stroke: #000000; stroke-width: 0.8"/>
      </g>
     </g>
     <g id="text_15">
      <!-- 0.05 -->
      <g transform="translate(56.28125 163.772733) scale(0.12 -0.12)">
       <use xlink:href="#DejaVuSans-30"/>
       <use xlink:href="#DejaVuSans-2e" x="63.623047"/>
       <use xlink:href="#DejaVuSans-30" x="95.410156"/>
       <use xlink:href="#DejaVuSans-35" x="159.033203"/>
      </g>
     </g>
    </g>
    <g id="ytick_5">
     <g id="line2d_16">
      <g>
       <use xlink:href="#m62cd4d81a2" x="90" y="123.444665" style="stroke: #000000; stroke-width: 0.8"/>
      </g>
     </g>
     <g id="text_16">
      <!-- 0.10 -->
      <g transform="translate(56.28125 128.003728) scale(0.12 -0.12)">
       <use xlink:href="#DejaVuSans-30"/>
       <use xlink:href="#DejaVuSans-2e" x="63.623047"/>
       <use xlink:href="#DejaVuSans-31" x="95.410156"/>
       <use xlink:href="#DejaVuSans-30" x="159.033203"/>
      </g>
     </g>
    </g>
    <g id="ytick_6">
     <g id="line2d_17">
      <g>
       <use xlink:href="#m62cd4d81a2" x="90" y="87.67566" style="stroke: #000000; stroke-width: 0.8"/>
      </g>
     </g>
     <g id="text_17">
      <!-- 0.15 -->
      <g transform="translate(56.28125 92.234723) scale(0.12 -0.12)">
       <use xlink:href="#DejaVuSans-30"/>
       <use xlink:href="#DejaVuSans-2e" x="63.623047"/>
       <use xlink:href="#DejaVuSans-31" x="95.410156"/>
       <use xlink:href="#DejaVuSans-35" x="159.033203"/>
      </g>
     </g>
    </g>
    <g id="ytick_7">
     <g id="line2d_18">
      <g>
       <use xlink:href="#m62cd4d81a2" x="90" y="51.906655" style="stroke: #000000; stroke-width: 0.8"/>
      </g>
     </g>
     <g id="text_18">
      <!-- 0.20 -->
      <g transform="translate(56.28125 56.465718) scale(0.12 -0.12)">
       <use xlink:href="#DejaVuSans-30"/>
       <use xlink:href="#DejaVuSans-2e" x="63.623047"/>
       <use xlink:href="#DejaVuSans-32" x="95.410156"/>
       <use xlink:href="#DejaVuSans-30" x="159.033203"/>
      </g>
     </g>
    </g>
    <g id="text_19">
     <!-- Meters -->
     <g transform="translate(40.145938 182.6875) rotate(-90) scale(0.1 -0.1)">
      <defs>
       <path id="DejaVuSans-4d" d="M 628 4666 
L 1569 4666 
L 2759 1491 
L 3956 4666 
L 4897 4666 
L 4897 0 
L 4281 0 
L 4281 4097 
L 3078 897 
L 2444 897 
L 1241 4097 
L 1241 0 
L 628 0 
L 628 4666 
z
" transform="scale(0.015625)"/>
       <path id="DejaVuSans-65" d="M 3597 1894 
L 3597 1613 
L 953 1613 
Q 991 1019 1311 708 
Q 1631 397 2203 397 
Q 2534 397 2845 478 
Q 3156 559 3463 722 
L 3463 178 
Q 3153 47 2828 -22 
Q 2503 -91 2169 -91 
Q 1331 -91 842 396 
Q 353 884 353 1716 
Q 353 2575 817 3079 
Q 1281 3584 2069 3584 
Q 2775 3584 3186 3129 
Q 3597 2675 3597 1894 
z
M 3022 2063 
Q 3016 2534 2758 2815 
Q 2500 3097 2075 3097 
Q 1594 3097 1305 2825 
Q 1016 2553 972 2059 
L 3022 2063 
z
" transform="scale(0.015625)"/>
       <path id="DejaVuSans-74" d="M 1172 4494 
L 1172 3500 
L 2356 3500 
L 2356 3053 
L 1172 3053 
L 1172 1153 
Q 1172 725 1289 603 
Q 1406 481 1766 481 
L 2356 481 
L 2356 0 
L 1766 0 
Q 1100 0 847 248 
Q 594 497 594 1153 
L 594 3053 
L 172 3053 
L 172 3500 
L 594 3500 
L 594 4494 
L 1172 4494 
z
" transform="scale(0.015625)"/>
       <path id="DejaVuSans-72" d="M 2631 2963 
Q 2534 3019 2420 3045 
Q 2306 3072 2169 3072 
Q 1681 3072 1420 2755 
Q 1159 2438 1159 1844 
L 1159 0 
L 581 0 
L 581 3500 
L 1159 3500 
L 1159 2956 
Q 1341 3275 1631 3429 
Q 1922 3584 2338 3584 
Q 2397 3584 2469 3576 
Q 2541 3569 2628 3553 
L 2631 2963 
z
" transform="scale(0.015625)"/>
       <path id="DejaVuSans-73" d="M 2834 3397 
L 2834 2853 
Q 2591 2978 2328 3040 
Q 2066 3103 1784 3103 
Q 1356 3103 1142 2972 
Q 928 2841 928 2578 
Q 928 2378 1081 2264 
Q 1234 2150 1697 2047 
L 1894 2003 
Q 2506 1872 2764 1633 
Q 3022 1394 3022 966 
Q 3022 478 2636 193 
Q 2250 -91 1575 -91 
Q 1294 -91 989 -36 
Q 684 19 347 128 
L 347 722 
Q 666 556 975 473 
Q 1284 391 1588 391 
Q 1994 391 2212 530 
Q 2431 669 2431 922 
Q 2431 1156 2273 1281 
Q 2116 1406 1581 1522 
L 1381 1569 
Q 847 1681 609 1914 
Q 372 2147 372 2553 
Q 372 3047 722 3315 
Q 1072 3584 1716 3584 
Q 2034 3584 2315 3537 
Q 2597 3491 2834 3397 
z
" transform="scale(0.015625)"/>
      </defs>
      <use xlink:href="#DejaVuSans-4d"/>
      <use xlink:href="#DejaVuSans-65" x="86.279297"/>
      <use xlink:href="#DejaVuSans-74" x="147.802734"/>
      <use xlink:href="#DejaVuSans-65" x="187.011719"/>
      <use xlink:href="#DejaVuSans-72" x="248.535156"/>
      <use xlink:href="#DejaVuSans-73" x="289.648438"/>
     </g>
    </g>
   </g>
   <g id="line2d_19">
    <path d="M 115.363636 112.615825 
L 115.966098 133.237337 
L 116.56856 144.561289 
L 117.171021 124.654974 
L 117.773483 130.32887 
L 118.375945 129.613673 
L 118.978406 130.972547 
L 119.580868 110.351035 
L 120.18333 108.205444 
L 120.785791 117.598364 
L 121.388253 111.900628 
L 122.593176 90.20632 
L 123.195638 92.70951 
L 123.7981 97.715888 
L 124.400561 98.311886 
L 125.003023 102.960666 
L 126.207946 96.285494 
L 126.810408 94.616702 
L 127.41287 92.113512 
L 128.015331 93.543906 
L 128.617793 90.563919 
L 129.822716 96.643093 
L 131.02764 117.503004 
L 131.630101 116.787807 
L 132.232563 111.42383 
L 132.835025 112.913824 
L 133.437487 112.377426 
L 134.039948 106.536651 
L 134.64241 107.192248 
L 135.244872 109.635838 
L 136.449795 103.437464 
L 137.052257 99.74228 
L 137.654718 98.073487 
L 138.25718 97.35829 
L 138.859642 98.192686 
L 139.462103 98.073487 
L 140.064565 96.523893 
L 140.667027 91.279116 
L 141.269488 88.060729 
L 141.87195 83.531149 
L 142.474412 84.603944 
L 143.076873 86.034338 
L 143.679335 87.107133 
L 144.281797 82.100755 
L 144.884258 79.120767 
L 145.48672 85.199942 
L 146.089182 99.384681 
L 146.691643 103.079866 
L 147.294105 103.556664 
L 147.896567 94.139904 
L 148.499028 98.311886 
L 149.10149 96.047095 
L 149.703952 96.404694 
L 150.306413 92.828709 
L 150.908875 92.471111 
L 151.511337 99.027083 
L 152.113798 94.855101 
L 152.71626 85.915139 
L 153.318722 90.921517 
L 153.921183 93.901505 
L 154.523645 94.9743 
L 155.126107 90.087121 
L 155.728568 97.596689 
L 156.33103 93.067108 
L 156.933492 97.000691 
L 157.535953 96.523893 
L 158.138415 99.027083 
L 158.740877 103.556664 
L 159.343338 96.881492 
L 159.9458 105.106257 
L 160.548262 108.086244 
L 161.150723 113.569421 
L 161.753185 113.92702 
L 162.355647 111.42383 
L 162.958108 105.225456 
L 163.56057 103.151385 
L 164.163032 102.12627 
L 164.765493 103.318265 
L 165.367955 102.00707 
L 165.970417 104.867858 
L 166.572878 101.887871 
L 167.17534 105.153937 
L 167.777802 102.12627 
L 168.380263 100.576676 
L 168.982725 100.815075 
L 169.585187 99.861479 
L 170.187648 101.053474 
L 171.392572 93.305507 
L 171.995033 93.901505 
L 172.597495 94.855101 
L 173.199957 96.643093 
L 173.802418 97.477489 
L 174.40488 110.470234 
L 175.007342 105.940653 
L 175.609803 117.503004 
L 176.212265 124.416575 
L 176.814727 123.820577 
L 177.417189 117.622204 
L 178.01965 105.583055 
L 178.622112 106.417451 
L 179.224574 107.609446 
L 179.827035 104.152661 
L 180.429497 83.17355 
L 181.031959 84.603944 
L 181.63442 93.186308 
L 182.236882 86.868734 
L 182.839344 104.987058 
L 183.441805 98.788684 
L 184.044267 94.9743 
L 184.646729 96.047095 
L 185.24919 101.053474 
L 185.851652 99.62308 
L 186.454114 115.953411 
L 187.056575 108.563042 
L 187.659037 104.033462 
L 188.261499 113.211823 
L 188.86396 128.469358 
L 189.466422 130.138151 
L 190.068884 128.946156 
L 190.671345 126.800565 
L 191.273807 127.515762 
L 191.876269 115.166694 
L 192.47873 95.451098 
L 193.081192 101.864031 
L 193.683654 100.219078 
L 194.286115 108.443843 
L 194.888577 106.65585 
L 195.491039 97.23909 
L 196.0935 96.643093 
L 196.695962 91.636714 
L 197.298424 99.980679 
L 197.900885 96.762292 
L 198.503347 100.457477 
L 199.70827 105.440016 
L 200.310732 114.642216 
L 200.913194 116.787807 
L 201.515655 122.032585 
L 202.118117 119.648595 
L 202.720579 132.283742 
L 203.32304 135.859726 
L 203.925502 132.76054 
L 204.527964 135.02533 
L 205.130425 134.90613 
L 205.732887 133.714135 
L 206.335349 131.091747 
L 206.93781 111.54303 
L 207.540272 113.986619 
L 208.142734 119.028758 
L 208.745195 105.940653 
L 209.347657 111.304631 
L 209.950119 102.722267 
L 210.55258 105.702254 
L 211.155042 102.722267 
L 211.757504 105.225456 
L 212.359965 98.311886 
L 212.962427 100.004519 
L 213.564889 106.298252 
L 214.16735 105.106257 
L 214.769812 100.338277 
L 215.372274 113.92702 
L 215.974735 120.244593 
L 216.577197 120.602191 
L 217.179659 119.529396 
L 218.384582 116.16797 
L 218.987044 112.162867 
L 219.589506 113.450222 
L 220.191967 117.920203 
L 220.794429 110.947032 
L 221.396891 115.595812 
L 221.999352 114.046219 
L 222.601814 115.119014 
L 223.204276 110.351035 
L 223.806737 110.112636 
L 224.409199 96.404694 
L 225.011661 100.099878 
L 225.614122 99.74228 
L 226.216584 95.689497 
L 226.819046 102.483868 
L 227.421507 110.708633 
L 228.023969 108.801441 
L 228.626431 104.629459 
L 229.228892 96.166295 
L 229.831354 77.094376 
L 230.433816 54.327273 
L 231.036277 67.558417 
L 231.638739 65.055227 
L 232.241201 85.319141 
L 232.843662 79.835964 
L 233.446124 91.159916 
L 234.048586 96.821892 
L 234.651047 91.279116 
L 235.253509 91.755914 
L 235.855971 89.133525 
L 236.458432 89.848722 
L 237.060894 86.034338 
L 237.663356 93.663106 
L 238.265817 91.875113 
L 238.868279 97.835088 
L 239.470741 102.364669 
L 240.073202 90.802318 
L 240.675664 96.285494 
L 241.278126 93.663106 
L 241.880587 88.656727 
L 242.483049 94.855101 
L 243.085511 105.940653 
L 243.687972 101.053474 
L 244.290434 111.304631 
L 244.892896 115.595812 
L 245.495357 115.023655 
L 246.097819 108.443843 
L 246.700281 106.536651 
L 247.905204 94.616702 
L 248.507666 110.470234 
L 249.110127 105.463855 
L 250.315051 110.708633 
L 251.519974 96.523893 
L 252.122436 104.867858 
L 252.724897 107.132648 
L 253.327359 97.954287 
L 253.929821 115.834211 
L 254.532282 99.503881 
L 255.134744 109.755037 
L 256.339667 91.040717 
L 256.942129 90.087121 
L 257.544591 98.788684 
L 258.147052 105.344656 
L 258.749514 104.39106 
L 259.351976 94.378303 
L 259.954437 89.848722 
L 260.556899 103.795063 
L 261.159361 110.708633 
L 261.761823 112.496626 
L 262.364284 113.331022 
L 263.569208 107.490247 
L 264.171669 110.112636 
L 264.774131 113.331022 
L 265.376593 106.77505 
L 265.979054 103.437464 
L 266.581516 112.377426 
L 267.183978 113.331022 
L 267.786439 111.42383 
L 268.388901 113.211823 
L 269.593824 108.324643 
L 270.196286 106.65585 
L 270.798748 107.609446 
L 271.401209 113.211823 
L 272.003671 115.357413 
L 272.606133 118.694999 
L 273.208594 118.5758 
L 273.811056 126.085368 
L 274.413518 126.800565 
L 275.015979 125.370171 
L 275.618441 128.946156 
L 276.220903 131.210946 
L 276.823364 136.098125 
L 277.425826 139.316512 
L 278.028288 140.985305 
L 278.630749 138.720514 
L 279.233211 132.998939 
L 279.835673 130.37655 
L 280.438134 129.065355 
L 281.040596 129.780552 
L 281.643058 132.64134 
L 282.245519 125.846969 
L 282.847981 130.734148 
L 283.450443 129.542153 
L 284.052904 124.535774 
L 284.655366 129.780552 
L 285.257828 125.846969 
L 285.860289 128.707757 
L 286.462751 126.800565 
L 287.065213 128.469358 
L 287.667674 128.707757 
L 288.270136 130.018951 
L 288.872598 132.402941 
L 289.475059 148.614072 
L 290.077521 160.653221 
L 290.679983 154.812446 
L 291.282444 157.792433 
L 291.884906 157.673234 
L 292.487368 158.269231 
L 293.692291 135.621327 
L 294.294753 133.475736 
L 294.897214 136.765642 
L 295.499676 139.197312 
L 296.102138 133.594936 
L 296.704599 131.210946 
L 297.307061 134.90613 
L 297.909523 134.310133 
L 298.511984 139.316512 
L 299.114446 142.1773 
L 299.716908 133.833335 
L 300.319369 135.859726 
L 300.921831 135.263729 
L 301.524293 135.263729 
L 302.126754 134.429332 
L 302.729216 135.978926 
L 303.331678 135.740527 
L 303.934139 139.79331 
L 304.536601 147.779676 
L 305.139063 150.282865 
L 305.741525 153.620451 
L 306.343986 152.356936 
L 306.946448 156.07596 
L 307.54891 143.607693 
L 308.151371 138.958913 
L 308.753833 135.740527 
L 309.356295 138.196036 
L 309.958756 145.991683 
L 310.561218 144.203691 
L 311.16368 142.0581 
L 311.766141 135.144529 
L 312.368603 143.011696 
L 312.971065 139.912509 
L 313.573526 144.203691 
L 314.175988 140.985305 
L 314.77845 142.654097 
L 315.380911 140.746906 
L 315.983373 137.051721 
L 316.585835 136.574923 
L 317.188296 137.170921 
L 317.790758 145.157287 
L 318.39322 149.567668 
L 318.995681 156.362039 
L 320.200605 160.057224 
L 320.803066 153.978049 
L 321.405528 153.024453 
L 322.00799 142.773297 
L 322.610451 138.124517 
L 323.212913 139.912509 
L 323.815375 139.67411 
L 325.020298 145.991683 
L 325.62276 145.276486 
L 326.225221 147.660476 
L 326.827683 149.567668 
L 327.430145 152.428456 
L 328.032606 151.236461 
L 328.635068 152.905254 
L 329.23753 153.262852 
L 329.839991 145.514885 
L 330.442453 144.918888 
L 331.647376 141.104504 
L 332.249838 141.938901 
L 332.8523 145.157287 
L 333.454761 149.567668 
L 334.057223 151.355661 
L 334.659685 159.342027 
L 335.262146 152.905254 
L 335.864608 151.59406 
L 336.46707 146.468481 
L 337.069531 142.296499 
L 337.671993 137.170921 
L 338.876916 145.395686 
L 339.479378 137.528519 
L 340.08184 131.210946 
L 340.684301 130.018951 
L 341.286763 129.184555 
L 341.889225 126.919764 
L 342.491686 127.99256 
L 343.69661 138.958913 
L 344.299071 140.150908 
L 344.901533 139.316512 
L 345.503995 136.813322 
L 346.106456 137.29012 
L 346.708918 139.554911 
L 347.31138 144.44209 
L 347.913842 145.634085 
L 348.516303 155.360764 
L 349.118765 158.746029 
L 349.721227 151.47486 
L 350.323688 146.063203 
L 350.92615 144.024892 
L 351.528612 145.204967 
L 352.131073 144.44209 
L 352.733535 141.700502 
L 353.335997 136.813322 
L 353.938458 133.952534 
L 354.54092 126.323767 
L 355.143382 128.111759 
L 355.745843 124.535774 
L 356.348305 131.330146 
L 356.950767 135.382928 
L 357.553228 140.627706 
L 358.15569 137.528519 
L 358.758152 132.998939 
L 359.360613 130.853348 
L 359.963075 134.667731 
L 360.565537 134.90613 
L 361.167998 131.449345 
L 361.77046 137.051721 
L 362.372922 145.872484 
L 362.975383 150.521264 
L 364.180307 169.831582 
L 364.782768 167.685991 
L 365.987692 148.852471 
L 366.590153 137.051721 
L 367.192615 119.529396 
L 367.795077 117.622204 
L 368.397538 104.987058 
L 369 106.179052 
L 369.602462 135.859726 
L 370.204923 142.1773 
L 370.807385 136.574923 
L 371.409847 134.667731 
L 372.012308 146.230082 
L 372.61477 146.468481 
L 373.217232 155.408443 
L 373.819693 146.349282 
L 374.422155 140.866105 
L 375.024617 144.561289 
L 375.627078 153.73965 
L 376.22954 171.619574 
L 376.832002 172.69237 
L 377.434463 183.253445 
L 378.036925 196.770668 
L 378.639387 191.978848 
L 379.241848 189.737897 
L 379.84431 186.996309 
L 380.446772 180.535697 
L 381.049233 170.30838 
L 381.651695 167.089994 
L 382.254157 158.150032 
L 382.856618 169.831582 
L 383.45908 200.704251 
L 384.061542 216.676983 
L 384.664003 193.552281 
L 385.266465 154.335648 
L 386.471388 196.29387 
L 387.07385 205.233832 
L 387.676312 175.910756 
L 388.278773 182.228329 
L 388.881235 194.863476 
L 389.483697 199.154657 
L 390.086158 198.201061 
L 390.68862 210.24021 
L 391.291082 228.239334 
L 391.893544 232.888114 
L 392.496005 241.470478 
L 393.098467 230.384925 
L 393.700929 225.140147 
L 394.30339 223.709753 
L 394.905852 245.880859 
L 395.508314 248.622447 
L 396.110775 234.676107 
L 396.713237 212.385801 
L 414.787087 214.292993 
L 415.389549 212.6242 
L 415.99201 208.929016 
L 416.594472 207.498622 
L 417.196934 209.405814 
L 417.799395 209.286614 
L 418.401857 212.147402 
L 419.004319 216.080986 
L 419.60678 217.749778 
L 420.209242 212.505001 
L 421.414165 247.192053 
L 422.619089 241.708877 
L 423.22155 222.16016 
L 424.426474 209.405814 
L 425.028935 209.286614 
L 425.631397 205.353031 
L 426.233859 206.783425 
L 426.83632 210.001811 
L 427.438782 210.717008 
L 428.041244 204.757034 
L 428.643705 193.671481 
L 429.246167 191.883488 
L 429.848629 186.996309 
L 431.053552 205.114632 
L 431.656014 203.684238 
L 432.258475 193.313882 
L 432.860937 191.764289 
L 434.065861 205.949029 
L 434.668322 209.405814 
L 435.270784 202.373044 
L 435.873246 203.20744 
L 436.475707 201.657847 
L 437.078169 208.094619 
L 437.680631 201.777046 
L 438.885554 196.055471 
L 439.488016 188.426703 
L 440.090477 196.055471 
L 440.692939 190.929892 
L 441.295401 179.009943 
L 441.897862 192.837084 
L 442.500324 202.134645 
L 443.102786 214.650592 
L 443.705247 197.843463 
L 444.307709 194.386678 
L 444.910171 188.784302 
L 445.512632 192.121887 
L 446.115094 194.029079 
L 447.320017 186.75791 
L 447.922479 187.592307 
L 448.524941 192.241087 
L 449.127402 192.479486 
L 449.729864 193.075483 
L 450.332326 188.665102 
L 450.934787 191.764289 
L 451.537249 192.717885 
L 452.139711 192.479486 
L 452.742172 187.353908 
L 453.344634 185.446716 
L 454.549557 188.069105 
L 455.152019 190.095496 
L 455.754481 184.49312 
L 456.356942 186.996309 
L 456.959404 188.545903 
L 457.561866 187.115509 
L 458.164327 183.777923 
L 458.766789 183.420324 
L 459.369251 183.420324 
L 459.971712 184.969918 
L 460.574174 184.016322 
L 461.779097 187.473107 
L 462.381559 186.638711 
L 462.984021 195.459473 
L 463.586482 199.989054 
L 464.188944 192.717885 
L 464.791406 210.001811 
L 465.393867 212.505001 
L 466.598791 186.638711 
L 467.201252 187.473107 
L 467.803714 190.572294 
L 468.406176 197.724264 
L 469.008637 197.962663 
L 469.611099 199.035458 
L 470.213561 194.505877 
L 470.816022 197.366665 
L 471.418484 193.552281 
L 472.623407 172.57317 
L 473.225869 186.87711 
L 473.828331 190.691493 
L 474.430792 183.420324 
L 475.033254 181.036334 
L 475.635716 182.705127 
L 476.238177 180.559536 
L 476.840639 180.678736 
L 478.045563 174.718761 
L 478.648024 168.758787 
L 479.250486 176.149155 
L 479.852948 179.129143 
L 480.455409 183.301125 
L 481.057871 185.923514 
L 481.660333 185.565915 
L 482.262794 183.777923 
L 482.865256 180.797935 
L 483.467718 179.486741 
L 484.672641 182.228329 
L 485.877564 176.149155 
L 486.480026 193.79068 
L 487.082488 176.625953 
L 487.684949 152.547655 
L 488.287411 150.759663 
L 488.889873 159.699625 
L 489.492334 174.098924 
L 490.094796 180.797935 
L 490.697258 173.407567 
L 491.299719 183.420324 
L 491.902181 177.817948 
L 492.504643 182.943526 
L 493.107104 182.347529 
L 494.312028 189.618698 
L 494.914489 183.539524 
L 495.516951 171.142776 
L 496.119413 181.036334 
L 496.721874 167.328393 
L 497.324336 171.857973 
L 498.529259 161.606817 
L 499.131721 184.612319 
L 499.734183 185.804314 
L 500.336644 181.393933 
L 500.939106 173.407567 
L 501.541568 170.546779 
L 502.144029 168.281989 
L 502.746491 174.95716 
L 503.348953 175.314759 
L 503.951414 171.619574 
L 504.553876 171.619574 
L 505.156338 168.877986 
L 505.758799 184.612319 
L 506.361261 211.909003 
L 506.963723 228.120134 
L 507.566184 230.146526 
L 508.168646 224.42495 
L 508.771108 216.319385 
L 509.373569 223.709753 
L 509.976031 210.597809 
L 510.578493 189.1419 
L 511.783416 195.578673 
L 512.385878 197.009067 
L 512.988339 196.889867 
L 513.590801 196.055471 
L 514.193263 203.20744 
L 514.795724 204.637834 
L 515.398186 196.413069 
L 516.000648 178.533145 
L 516.603109 174.361163 
L 517.205571 179.009943 
L 517.808033 184.969918 
L 518.410494 178.533145 
L 519.012956 168.877986 
L 519.615418 164.229206 
L 520.21788 168.639587 
L 520.820341 174.718761 
L 521.422803 176.268355 
L 522.025265 181.393933 
L 522.627726 188.307504 
L 523.230188 199.035458 
L 523.83265 197.605064 
L 524.435111 206.545026 
L 525.037573 201.061849 
L 525.640035 208.452218 
L 526.242496 208.809816 
L 526.844958 191.645089 
L 527.44742 184.49312 
L 528.049881 186.281112 
L 528.652343 183.897122 
L 529.857266 171.857973 
L 530.459728 177.46035 
L 531.06219 173.407567 
L 531.664651 174.241963 
L 532.267113 169.354784 
L 532.869575 156.12364 
L 534.074498 161.010819 
L 534.67696 162.798812 
L 535.279421 165.897999 
L 536.484345 192.002688 
L 537.086806 191.52589 
L 537.689268 185.208317 
L 538.894191 178.056347 
L 539.496653 184.969918 
L 540.099115 175.07636 
L 540.701576 176.029956 
L 541.304038 168.997186 
L 541.9065 181.155534 
L 542.508961 176.029956 
L 543.111423 161.249218 
L 543.713885 158.50763 
L 544.316346 161.130019 
L 544.918808 166.732395 
L 545.52127 166.017198 
L 546.123731 161.249218 
L 546.726193 160.653221 
L 547.328655 156.362039 
L 547.931116 155.646842 
L 548.533578 147.302878 
L 549.13604 146.82608 
L 549.738501 157.196436 
L 550.340963 186.042713 
L 550.943425 190.119336 
L 551.545886 180.917135 
L 552.148348 179.129143 
L 552.75081 172.453971 
L 553.353271 168.401188 
L 553.955733 169.473984 
L 554.558195 167.447592 
L 555.160656 160.057224 
L 555.763118 165.778799 
L 556.36558 161.964415 
L 556.968041 165.778799 
L 557.570503 162.083615 
L 558.172965 160.534022 
L 558.775426 160.653221 
L 559.377888 162.441213 
L 559.98035 163.633208 
L 560.582811 161.249218 
L 561.185273 157.792433 
L 561.787735 152.428456 
L 562.390197 152.428456 
L 562.992658 152.786054 
L 563.59512 156.719638 
L 564.197582 166.851595 
L 564.800043 170.904377 
L 566.004967 190.691493 
L 566.607428 194.029079 
L 567.20989 188.307504 
L 567.812352 181.036334 
L 568.414813 169.712383 
L 569.017275 161.964415 
L 569.619737 158.150032 
L 570.222198 161.368418 
L 570.82466 153.501251 
L 571.427122 147.183678 
L 572.029583 149.09087 
L 573.234507 178.056347 
L 573.836968 177.579549 
L 575.041892 174.241963 
L 575.644353 175.672357 
L 576.246815 182.824327 
L 576.849277 193.83836 
L 577.451738 200.108253 
L 578.0542 197.724264 
L 578.656662 197.366665 
L 579.259123 202.730642 
L 579.861585 203.27896 
L 580.464047 212.6242 
L 581.066508 213.220198 
L 581.66897 207.141024 
L 582.271432 207.379423 
L 582.873893 211.670604 
L 583.476355 222.875357 
L 584.078817 219.537771 
L 584.681278 217.988177 
L 585.28374 220.252968 
L 585.886202 231.314681 
L 586.488663 234.461547 
L 587.091125 258.873604 
L 587.693587 266.74077 
L 588.296048 256.203535 
L 588.89851 242.424074 
L 589.500972 246.715255 
L 590.103433 253.152028 
L 590.705895 254.582422 
L 591.910818 235.868101 
L 592.51328 233.484112 
L 593.115742 233.603311 
L 594.320665 223.161435 
L 594.923127 226.332142 
L 595.525588 225.140147 
L 596.12805 232.888114 
L 596.730512 222.756157 
L 597.332973 215.00819 
L 597.935435 214.173794 
L 598.537897 219.65697 
L 599.140358 217.153781 
L 599.74282 224.067352 
L 600.345282 223.590554 
L 600.947743 226.570541 
L 601.550205 232.649715 
L 602.152667 234.080109 
L 602.755128 248.860846 
L 603.35759 251.602435 
L 603.960052 241.232079 
L 604.562513 254.463222 
L 605.164975 253.271228 
L 605.767437 241.947276 
L 606.369899 238.49049 
L 606.97236 242.424074 
L 608.177284 276.872727 
L 609.984669 254.94002 
L 611.189592 225.974544 
L 611.792054 224.901748 
L 612.996977 219.77617 
L 613.599439 227.881735 
L 614.2019 229.550528 
L 614.804362 223.471354 
L 615.406824 221.802561 
L 616.009285 224.782549 
L 617.214209 222.636958 
L 617.81667 217.988177 
L 618.419132 218.464975 
L 619.021594 217.153781 
L 619.624055 216.796182 
L 620.226517 206.068228 
L 620.828979 206.187428 
L 621.43144 206.187428 
L 622.033902 216.438584 
L 622.636364 223.828953 
L 622.636364 223.828953 
" clip-path="url(#p97c61229a9)" style="fill: none; stroke: #1f77b4; stroke-width: 1.5; stroke-linecap: square"/>
   </g>
   <g id="line2d_20">
    <path d="M 115.363636 92.351911 
L 120.18333 92.390743 
L 120.785791 92.629053 
L 122.593176 92.831816 
L 126.810408 92.875048 
L 129.220255 92.875803 
L 129.822716 91.636714 
L 143.679335 91.637334 
L 144.281797 85.199942 
L 158.138415 87.368578 
L 158.740877 99.861479 
L 159.9458 100.19293 
L 165.970417 101.53642 
L 166.572878 101.880707 
L 167.777802 100.123168 
L 168.380263 98.513486 
L 170.187648 101.411493 
L 170.79011 102.407629 
L 171.392572 103.108804 
L 175.007342 104.008231 
L 175.609803 110.112636 
L 176.212265 110.112661 
L 176.814727 113.450222 
L 187.659037 113.450665 
L 188.261499 115.357413 
L 215.974735 115.358538 
L 216.577197 101.053474 
L 221.999352 101.165135 
L 224.409199 101.604805 
L 225.614122 101.835287 
L 227.421507 103.098431 
L 228.023969 103.263007 
L 229.228892 103.404233 
L 229.831354 103.597944 
L 230.433816 103.633503 
L 231.036277 100.338277 
L 231.638739 99.169716 
L 234.048586 99.666005 
L 247.302742 102.743956 
L 247.905204 108.920641 
L 250.917512 108.96538 
L 251.519974 109.397439 
L 258.749514 111.436412 
L 259.351976 110.979597 
L 259.954437 103.675863 
L 260.556899 104.056934 
L 262.364284 108.385332 
L 262.966746 108.99631 
L 263.569208 109.338832 
L 264.774131 109.634106 
L 266.581516 109.743576 
L 274.413518 109.766581 
L 288.270136 109.767168 
L 288.872598 128.230959 
L 289.475059 128.18178 
L 290.077521 127.951709 
L 290.679983 126.330688 
L 291.282444 125.459074 
L 291.884906 123.980891 
L 292.487368 122.975012 
L 293.089829 122.416373 
L 300.319369 122.501355 
L 302.729216 122.535096 
L 303.331678 134.429332 
L 307.54891 134.509887 
L 308.753833 134.030732 
L 309.958756 134.058373 
L 311.16368 133.578224 
L 316.585835 133.514787 
L 317.188296 132.380928 
L 317.790758 137.528519 
L 319.598143 140.370512 
L 320.200605 140.822326 
L 320.803066 141.007728 
L 322.00799 141.671832 
L 326.225221 143.291444 
L 331.647376 145.417052 
L 332.249838 144.918888 
L 346.106456 144.919379 
L 346.708918 137.29012 
L 360.565537 142.547598 
L 361.167998 132.998939 
L 365.987692 134.620212 
L 366.590153 134.158437 
L 367.192615 132.704965 
L 369.602462 125.663169 
L 370.204923 124.50408 
L 371.409847 142.906741 
L 372.012308 142.307684 
L 375.024617 143.458791 
L 375.627078 149.925267 
L 376.832002 150.127719 
L 379.241848 150.209621 
L 386.471388 150.156493 
L 387.676312 150.933692 
L 388.278773 151.73615 
L 388.881235 153.377962 
L 389.483697 154.665152 
L 390.086158 179.248342 
L 396.713237 179.437774 
L 418.401857 179.960911 
L 432.860937 179.961336 
L 433.463399 205.233832 
L 439.488016 205.216381 
L 440.692939 205.622064 
L 441.897862 206.367643 
L 442.500324 206.70903 
L 443.705247 206.987879 
L 446.115094 207.101709 
L 447.320017 207.110049 
L 447.922479 193.79068 
L 461.779097 193.751805 
L 462.381559 184.49312 
L 462.984021 184.540888 
L 464.791406 185.257301 
L 466.598791 185.421671 
L 470.213561 185.452668 
L 471.418484 185.790203 
L 473.225869 185.938999 
L 474.430792 185.973763 
L 475.033254 185.740748 
L 475.635716 185.96431 
L 476.238177 187.26433 
L 476.840639 184.016322 
L 484.070179 187.349184 
L 484.672641 187.805289 
L 485.877564 186.457577 
L 486.480026 187.032218 
L 487.082488 185.78835 
L 488.287411 182.55382 
L 489.492334 179.007537 
L 490.094796 178.11861 
L 490.697258 176.532002 
L 491.299719 184.016322 
L 492.504643 184.069467 
L 494.914489 184.527007 
L 496.721874 184.684132 
L 500.336644 184.732801 
L 500.939106 184.567389 
L 502.144029 183.281639 
L 503.951414 182.896762 
L 505.156338 182.903602 
L 505.758799 172.811569 
L 512.988339 172.898963 
L 514.193263 173.29203 
L 516.000648 173.458784 
L 517.808033 173.486787 
L 519.012956 173.799378 
L 519.615418 173.853395 
L 520.21788 180.678736 
L 534.074498 180.822369 
L 534.67696 157.315635 
L 539.496653 157.414892 
L 540.099115 157.014996 
L 540.701576 156.302055 
L 541.304038 156.024714 
L 546.123731 156.059246 
L 546.726193 156.102024 
L 547.931116 155.657596 
L 548.533578 155.191704 
L 549.13604 159.461226 
L 549.738501 158.379044 
L 551.545886 155.957137 
L 553.353271 152.713363 
L 553.955733 152.621352 
L 554.558195 151.404874 
L 555.160656 149.551674 
L 555.763118 148.432015 
L 556.36558 147.791801 
L 556.968041 147.518582 
L 557.570503 147.436623 
L 558.172965 147.008353 
L 558.775426 146.408059 
L 559.377888 146.132961 
L 562.992658 146.173408 
L 563.59512 153.978049 
L 564.197582 153.719649 
L 564.800043 153.589367 
L 566.607428 153.677909 
L 568.414813 153.894882 
L 571.427122 154.041035 
L 572.029583 154.246026 
L 573.234507 154.336278 
L 573.836968 154.039306 
L 574.43943 153.44174 
L 575.041892 153.167551 
L 576.849277 153.189976 
L 577.451738 153.015202 
L 578.0542 179.248342 
L 578.656662 178.91874 
L 581.066508 178.906803 
L 581.66897 178.92871 
L 583.476355 178.690305 
L 591.910818 178.777597 
L 592.51328 259.588801 
L 606.369899 259.592611 
L 606.97236 243.37767 
L 617.81667 248.231497 
L 618.419132 248.925092 
L 619.021594 249.429076 
L 620.828979 250.170623 
L 621.43144 206.902625 
L 622.636364 207.462665 
L 622.636364 207.462665 
" clip-path="url(#p97c61229a9)" style="fill: none; stroke: #ff7f0e; stroke-width: 1.5; stroke-linecap: square"/>
   </g>
   <g id="patch_3">
    <path d="M 90 288 
L 90 43.2 
" style="fill: none; stroke: #000000; stroke-width: 0.8; stroke-linejoin: miter; stroke-linecap: square"/>
   </g>
   <g id="patch_4">
    <path d="M 648 288 
L 648 43.2 
" style="fill: none; stroke: #000000; stroke-width: 0.8; stroke-linejoin: miter; stroke-linecap: square"/>
   </g>
   <g id="patch_5">
    <path d="M 90 288 
L 648 288 
" style="fill: none; stroke: #000000; stroke-width: 0.8; stroke-linejoin: miter; stroke-linecap: square"/>
   </g>
   <g id="patch_6">
    <path d="M 90 43.2 
L 648 43.2 
" style="fill: none; stroke: #000000; stroke-width: 0.8; stroke-linejoin: miter; stroke-linecap: square"/>
   </g>
   <g id="text_20">
    <!-- MDOT6142 -->
    <g transform="translate(335.545313 37.2) scale(0.12 -0.12)">
     <defs>
      <path id="DejaVuSans-44" d="M 1259 4147 
L 1259 519 
L 2022 519 
Q 2988 519 3436 956 
Q 3884 1394 3884 2338 
Q 3884 3275 3436 3711 
Q 2988 4147 2022 4147 
L 1259 4147 
z
M 628 4666 
L 1925 4666 
Q 3281 4666 3915 4102 
Q 4550 3538 4550 2338 
Q 4550 1131 3912 565 
Q 3275 0 1925 0 
L 628 0 
L 628 4666 
z
" transform="scale(0.015625)"/>
      <path id="DejaVuSans-4f" d="M 2522 4238 
Q 1834 4238 1429 3725 
Q 1025 3213 1025 2328 
Q 1025 1447 1429 934 
Q 1834 422 2522 422 
Q 3209 422 3611 934 
Q 4013 1447 4013 2328 
Q 4013 3213 3611 3725 
Q 3209 4238 2522 4238 
z
M 2522 4750 
Q 3503 4750 4090 4092 
Q 4678 3434 4678 2328 
Q 4678 1225 4090 567 
Q 3503 -91 2522 -91 
Q 1538 -91 948 565 
Q 359 1222 359 2328 
Q 359 3434 948 4092 
Q 1538 4750 2522 4750 
z
" transform="scale(0.015625)"/>
      <path id="DejaVuSans-54" d="M -19 4666 
L 3928 4666 
L 3928 4134 
L 2272 4134 
L 2272 0 
L 1638 0 
L 1638 4134 
L -19 4134 
L -19 4666 
z
" transform="scale(0.015625)"/>
      <path id="DejaVuSans-36" d="M 2113 2584 
Q 1688 2584 1439 2293 
Q 1191 2003 1191 1497 
Q 1191 994 1439 701 
Q 1688 409 2113 409 
Q 2538 409 2786 701 
Q 3034 994 3034 1497 
Q 3034 2003 2786 2293 
Q 2538 2584 2113 2584 
z
M 3366 4563 
L 3366 3988 
Q 3128 4100 2886 4159 
Q 2644 4219 2406 4219 
Q 1781 4219 1451 3797 
Q 1122 3375 1075 2522 
Q 1259 2794 1537 2939 
Q 1816 3084 2150 3084 
Q 2853 3084 3261 2657 
Q 3669 2231 3669 1497 
Q 3669 778 3244 343 
Q 2819 -91 2113 -91 
Q 1303 -91 875 529 
Q 447 1150 447 2328 
Q 447 3434 972 4092 
Q 1497 4750 2381 4750 
Q 2619 4750 2861 4703 
Q 3103 4656 3366 4563 
z
" transform="scale(0.015625)"/>
      <path id="DejaVuSans-34" d="M 2419 4116 
L 825 1625 
L 2419 1625 
L 2419 4116 
z
M 2253 4666 
L 3047 4666 
L 3047 1625 
L 3713 1625 
L 3713 1100 
L 3047 1100 
L 3047 0 
L 2419 0 
L 2419 1100 
L 313 1100 
L 313 1709 
L 2253 4666 
z
" transform="scale(0.015625)"/>
     </defs>
     <use xlink:href="#DejaVuSans-4d"/>
     <use xlink:href="#DejaVuSans-44" x="86.279297"/>
     <use xlink:href="#DejaVuSans-4f" x="163.28125"/>
     <use xlink:href="#DejaVuSans-54" x="241.992188"/>
     <use xlink:href="#DejaVuSans-36" x="303.076172"/>
     <use xlink:href="#DejaVuSans-31" x="366.699219"/>
     <use xlink:href="#DejaVuSans-34" x="430.322266"/>
     <use xlink:href="#DejaVuSans-32" x="493.945312"/>
    </g>
   </g>
   <g id="legend_1">
    <g id="patch_7">
     <path d="M 559.04375 80.55625 
L 641 80.55625 
Q 643 80.55625 643 78.55625 
L 643 50.2 
Q 643 48.2 641 48.2 
L 559.04375 48.2 
Q 557.04375 48.2 557.04375 50.2 
L 557.04375 78.55625 
Q 557.04375 80.55625 559.04375 80.55625 
z
" style="fill: #ffffff; opacity: 0.8; stroke: #cccccc; stroke-linejoin: miter"/>
    </g>
    <g id="line2d_21">
     <path d="M 561.04375 56.298437 
L 571.04375 56.298437 
L 581.04375 56.298437 
" style="fill: none; stroke: #1f77b4; stroke-width: 1.5; stroke-linecap: square"/>
    </g>
    <g id="text_21">
     <!-- measured -->
     <g transform="translate(589.04375 59.798437) scale(0.1 -0.1)">
      <defs>
       <path id="DejaVuSans-6d" d="M 3328 2828 
Q 3544 3216 3844 3400 
Q 4144 3584 4550 3584 
Q 5097 3584 5394 3201 
Q 5691 2819 5691 2113 
L 5691 0 
L 5113 0 
L 5113 2094 
Q 5113 2597 4934 2840 
Q 4756 3084 4391 3084 
Q 3944 3084 3684 2787 
Q 3425 2491 3425 1978 
L 3425 0 
L 2847 0 
L 2847 2094 
Q 2847 2600 2669 2842 
Q 2491 3084 2119 3084 
Q 1678 3084 1418 2786 
Q 1159 2488 1159 1978 
L 1159 0 
L 581 0 
L 581 3500 
L 1159 3500 
L 1159 2956 
Q 1356 3278 1631 3431 
Q 1906 3584 2284 3584 
Q 2666 3584 2933 3390 
Q 3200 3197 3328 2828 
z
" transform="scale(0.015625)"/>
       <path id="DejaVuSans-61" d="M 2194 1759 
Q 1497 1759 1228 1600 
Q 959 1441 959 1056 
Q 959 750 1161 570 
Q 1363 391 1709 391 
Q 2188 391 2477 730 
Q 2766 1069 2766 1631 
L 2766 1759 
L 2194 1759 
z
M 3341 1997 
L 3341 0 
L 2766 0 
L 2766 531 
Q 2569 213 2275 61 
Q 1981 -91 1556 -91 
Q 1019 -91 701 211 
Q 384 513 384 1019 
Q 384 1609 779 1909 
Q 1175 2209 1959 2209 
L 2766 2209 
L 2766 2266 
Q 2766 2663 2505 2880 
Q 2244 3097 1772 3097 
Q 1472 3097 1187 3025 
Q 903 2953 641 2809 
L 641 3341 
Q 956 3463 1253 3523 
Q 1550 3584 1831 3584 
Q 2591 3584 2966 3190 
Q 3341 2797 3341 1997 
z
" transform="scale(0.015625)"/>
       <path id="DejaVuSans-75" d="M 544 1381 
L 544 3500 
L 1119 3500 
L 1119 1403 
Q 1119 906 1312 657 
Q 1506 409 1894 409 
Q 2359 409 2629 706 
Q 2900 1003 2900 1516 
L 2900 3500 
L 3475 3500 
L 3475 0 
L 2900 0 
L 2900 538 
Q 2691 219 2414 64 
Q 2138 -91 1772 -91 
Q 1169 -91 856 284 
Q 544 659 544 1381 
z
M 1991 3584 
L 1991 3584 
z
" transform="scale(0.015625)"/>
       <path id="DejaVuSans-64" d="M 2906 2969 
L 2906 4863 
L 3481 4863 
L 3481 0 
L 2906 0 
L 2906 525 
Q 2725 213 2448 61 
Q 2172 -91 1784 -91 
Q 1150 -91 751 415 
Q 353 922 353 1747 
Q 353 2572 751 3078 
Q 1150 3584 1784 3584 
Q 2172 3584 2448 3432 
Q 2725 3281 2906 2969 
z
M 947 1747 
Q 947 1113 1208 752 
Q 1469 391 1925 391 
Q 2381 391 2643 752 
Q 2906 1113 2906 1747 
Q 2906 2381 2643 2742 
Q 2381 3103 1925 3103 
Q 1469 3103 1208 2742 
Q 947 2381 947 1747 
z
" transform="scale(0.015625)"/>
      </defs>
      <use xlink:href="#DejaVuSans-6d"/>
      <use xlink:href="#DejaVuSans-65" x="97.412109"/>
      <use xlink:href="#DejaVuSans-61" x="158.935547"/>
      <use xlink:href="#DejaVuSans-73" x="220.214844"/>
      <use xlink:href="#DejaVuSans-75" x="272.314453"/>
      <use xlink:href="#DejaVuSans-72" x="335.693359"/>
      <use xlink:href="#DejaVuSans-65" x="374.556641"/>
      <use xlink:href="#DejaVuSans-64" x="436.080078"/>
     </g>
    </g>
    <g id="line2d_22">
     <path d="M 561.04375 70.976562 
L 571.04375 70.976562 
L 581.04375 70.976562 
" style="fill: none; stroke: #ff7f0e; stroke-width: 1.5; stroke-linecap: square"/>
    </g>
    <g id="text_22">
     <!-- predicted -->
     <g transform="translate(589.04375 74.476562) scale(0.1 -0.1)">
      <defs>
       <path id="DejaVuSans-70" d="M 1159 525 
L 1159 -1331 
L 581 -1331 
L 581 3500 
L 1159 3500 
L 1159 2969 
Q 1341 3281 1617 3432 
Q 1894 3584 2278 3584 
Q 2916 3584 3314 3078 
Q 3713 2572 3713 1747 
Q 3713 922 3314 415 
Q 2916 -91 2278 -91 
Q 1894 -91 1617 61 
Q 1341 213 1159 525 
z
M 3116 1747 
Q 3116 2381 2855 2742 
Q 2594 3103 2138 3103 
Q 1681 3103 1420 2742 
Q 1159 2381 1159 1747 
Q 1159 1113 1420 752 
Q 1681 391 2138 391 
Q 2594 391 2855 752 
Q 3116 1113 3116 1747 
z
" transform="scale(0.015625)"/>
       <path id="DejaVuSans-69" d="M 603 3500 
L 1178 3500 
L 1178 0 
L 603 0 
L 603 3500 
z
M 603 4863 
L 1178 4863 
L 1178 4134 
L 603 4134 
L 603 4863 
z
" transform="scale(0.015625)"/>
       <path id="DejaVuSans-63" d="M 3122 3366 
L 3122 2828 
Q 2878 2963 2633 3030 
Q 2388 3097 2138 3097 
Q 1578 3097 1268 2742 
Q 959 2388 959 1747 
Q 959 1106 1268 751 
Q 1578 397 2138 397 
Q 2388 397 2633 464 
Q 2878 531 3122 666 
L 3122 134 
Q 2881 22 2623 -34 
Q 2366 -91 2075 -91 
Q 1284 -91 818 406 
Q 353 903 353 1747 
Q 353 2603 823 3093 
Q 1294 3584 2113 3584 
Q 2378 3584 2631 3529 
Q 2884 3475 3122 3366 
z
" transform="scale(0.015625)"/>
      </defs>
      <use xlink:href="#DejaVuSans-70"/>
      <use xlink:href="#DejaVuSans-72" x="63.476562"/>
      <use xlink:href="#DejaVuSans-65" x="102.339844"/>
      <use xlink:href="#DejaVuSans-64" x="163.863281"/>
      <use xlink:href="#DejaVuSans-69" x="227.339844"/>
      <use xlink:href="#DejaVuSans-63" x="255.123047"/>
      <use xlink:href="#DejaVuSans-74" x="310.103516"/>
      <use xlink:href="#DejaVuSans-65" x="349.3125"/>
      <use xlink:href="#DejaVuSans-64" x="410.835938"/>
     </g>
    </g>
   </g>
  </g>
 </g>
 <defs>
  <clipPath id="p97c61229a9">
   <rect x="90" y="43.2" width="558" height="244.8"/>
  </clipPath>
 </defs>
</svg>
