<?xml version="1.0" encoding="utf-8" standalone="no"?>
<!DOCTYPE svg PUBLIC "-//W3C//DTD SVG 1.1//EN"
  "http://www.w3.org/Graphics/SVG/1.1/DTD/svg11.dtd">
<svg xmlns:xlink="http://www.w3.org/1999/xlink" width="720pt" height="360pt" viewBox="0 0 720 360" xmlns="http://www.w3.org/2000/svg" version="1.1">
 <metadata>
  <rdf:RDF xmlns:dc="http://purl.org/dc/elements/1.1/" xmlns:cc="http://creativecommons.org/ns#" xmlns:rdf="http://www.w3.org/1999/02/22-rdf-syntax-ns#">
   <cc:Work>
    <dc:type rdf:resource="http://purl.org/dc/dcmitype/StillImage"/>
    <dc:date>2023-10-23T10:55:13.261495</dc:date>
    <dc:format>image/svg+xml</dc:format>
    <dc:creator>
     <cc:Agent>
      <dc:title>Matplotlib v3.7.1, https://matplotlib.org/</dc:title>
     </cc:Agent>
    </dc:creator>
   </cc:Work>
  </rdf:RDF>
 </metadata>
 <defs>
  <style type="text/css">*{stroke-linejoin: round; stroke-linecap: butt}</style>
 </defs>
 <g id="figure_1">
  <g id="patch_1">
   <path d="M 0 360 
L 720 360 
L 720 0 
L 0 0 
z
" style="fill: #ffffff"/>
  </g>
  <g id="axes_1">
   <g id="patch_2">
    <path d="M 90 288 
L 648 288 
L 648 43.2 
L 90 43.2 
z
" style="fill: #ffffff"/>
   </g>
   <g id="matplotlib.axis_1">
    <g id="xtick_1">
     <g id="line2d_1">
      <defs>
       <path id="m43d42d49d8" d="M 0 0 
L 0 3.5 
" style="stroke: #000000; stroke-width: 0.8"/>
      </defs>
      <g>
       <use xlink:href="#m43d42d49d8" x="108.334453" y="288" style="stroke: #000000; stroke-width: 0.8"/>
      </g>
     </g>
     <g id="text_1">
      <!-- 2023-09-17 -->
      <g transform="translate(46.691111 337.765903) rotate(-30) scale(0.12 -0.12)">
       <defs>
        <path id="DejaVuSans-32" d="M 1228 531 
L 3431 531 
L 3431 0 
L 469 0 
L 469 531 
Q 828 903 1448 1529 
Q 2069 2156 2228 2338 
Q 2531 2678 2651 2914 
Q 2772 3150 2772 3378 
Q 2772 3750 2511 3984 
Q 2250 4219 1831 4219 
Q 1534 4219 1204 4116 
Q 875 4013 500 3803 
L 500 4441 
Q 881 4594 1212 4672 
Q 1544 4750 1819 4750 
Q 2544 4750 2975 4387 
Q 3406 4025 3406 3419 
Q 3406 3131 3298 2873 
Q 3191 2616 2906 2266 
Q 2828 2175 2409 1742 
Q 1991 1309 1228 531 
z
" transform="scale(0.015625)"/>
        <path id="DejaVuSans-30" d="M 2034 4250 
Q 1547 4250 1301 3770 
Q 1056 3291 1056 2328 
Q 1056 1369 1301 889 
Q 1547 409 2034 409 
Q 2525 409 2770 889 
Q 3016 1369 3016 2328 
Q 3016 3291 2770 3770 
Q 2525 4250 2034 4250 
z
M 2034 4750 
Q 2819 4750 3233 4129 
Q 3647 3509 3647 2328 
Q 3647 1150 3233 529 
Q 2819 -91 2034 -91 
Q 1250 -91 836 529 
Q 422 1150 422 2328 
Q 422 3509 836 4129 
Q 1250 4750 2034 4750 
z
" transform="scale(0.015625)"/>
        <path id="DejaVuSans-33" d="M 2597 2516 
Q 3050 2419 3304 2112 
Q 3559 1806 3559 1356 
Q 3559 666 3084 287 
Q 2609 -91 1734 -91 
Q 1441 -91 1130 -33 
Q 819 25 488 141 
L 488 750 
Q 750 597 1062 519 
Q 1375 441 1716 441 
Q 2309 441 2620 675 
Q 2931 909 2931 1356 
Q 2931 1769 2642 2001 
Q 2353 2234 1838 2234 
L 1294 2234 
L 1294 2753 
L 1863 2753 
Q 2328 2753 2575 2939 
Q 2822 3125 2822 3475 
Q 2822 3834 2567 4026 
Q 2313 4219 1838 4219 
Q 1578 4219 1281 4162 
Q 984 4106 628 3988 
L 628 4550 
Q 988 4650 1302 4700 
Q 1616 4750 1894 4750 
Q 2613 4750 3031 4423 
Q 3450 4097 3450 3541 
Q 3450 3153 3228 2886 
Q 3006 2619 2597 2516 
z
" transform="scale(0.015625)"/>
        <path id="DejaVuSans-2d" d="M 313 2009 
L 1997 2009 
L 1997 1497 
L 313 1497 
L 313 2009 
z
" transform="scale(0.015625)"/>
        <path id="DejaVuSans-39" d="M 703 97 
L 703 672 
Q 941 559 1184 500 
Q 1428 441 1663 441 
Q 2288 441 2617 861 
Q 2947 1281 2994 2138 
Q 2813 1869 2534 1725 
Q 2256 1581 1919 1581 
Q 1219 1581 811 2004 
Q 403 2428 403 3163 
Q 403 3881 828 4315 
Q 1253 4750 1959 4750 
Q 2769 4750 3195 4129 
Q 3622 3509 3622 2328 
Q 3622 1225 3098 567 
Q 2575 -91 1691 -91 
Q 1453 -91 1209 -44 
Q 966 3 703 97 
z
M 1959 2075 
Q 2384 2075 2632 2365 
Q 2881 2656 2881 3163 
Q 2881 3666 2632 3958 
Q 2384 4250 1959 4250 
Q 1534 4250 1286 3958 
Q 1038 3666 1038 3163 
Q 1038 2656 1286 2365 
Q 1534 2075 1959 2075 
z
" transform="scale(0.015625)"/>
        <path id="DejaVuSans-31" d="M 794 531 
L 1825 531 
L 1825 4091 
L 703 3866 
L 703 4441 
L 1819 4666 
L 2450 4666 
L 2450 531 
L 3481 531 
L 3481 0 
L 794 0 
L 794 531 
z
" transform="scale(0.015625)"/>
        <path id="DejaVuSans-37" d="M 525 4666 
L 3525 4666 
L 3525 4397 
L 1831 0 
L 1172 0 
L 2766 4134 
L 525 4134 
L 525 4666 
z
" transform="scale(0.015625)"/>
       </defs>
       <use xlink:href="#DejaVuSans-32"/>
       <use xlink:href="#DejaVuSans-30" x="63.623047"/>
       <use xlink:href="#DejaVuSans-32" x="127.246094"/>
       <use xlink:href="#DejaVuSans-33" x="190.869141"/>
       <use xlink:href="#DejaVuSans-2d" x="254.492188"/>
       <use xlink:href="#DejaVuSans-30" x="290.576172"/>
       <use xlink:href="#DejaVuSans-39" x="354.199219"/>
       <use xlink:href="#DejaVuSans-2d" x="417.822266"/>
       <use xlink:href="#DejaVuSans-31" x="453.90625"/>
       <use xlink:href="#DejaVuSans-37" x="517.529297"/>
      </g>
     </g>
    </g>
    <g id="xtick_2">
     <g id="line2d_2">
      <g>
       <use xlink:href="#m43d42d49d8" x="164.567919" y="288" style="stroke: #000000; stroke-width: 0.8"/>
      </g>
     </g>
     <g id="text_2">
      <!-- 2023-09-21 -->
      <g transform="translate(102.924578 337.765903) rotate(-30) scale(0.12 -0.12)">
       <use xlink:href="#DejaVuSans-32"/>
       <use xlink:href="#DejaVuSans-30" x="63.623047"/>
       <use xlink:href="#DejaVuSans-32" x="127.246094"/>
       <use xlink:href="#DejaVuSans-33" x="190.869141"/>
       <use xlink:href="#DejaVuSans-2d" x="254.492188"/>
       <use xlink:href="#DejaVuSans-30" x="290.576172"/>
       <use xlink:href="#DejaVuSans-39" x="354.199219"/>
       <use xlink:href="#DejaVuSans-2d" x="417.822266"/>
       <use xlink:href="#DejaVuSans-32" x="453.90625"/>
       <use xlink:href="#DejaVuSans-31" x="517.529297"/>
      </g>
     </g>
    </g>
    <g id="xtick_3">
     <g id="line2d_3">
      <g>
       <use xlink:href="#m43d42d49d8" x="220.801386" y="288" style="stroke: #000000; stroke-width: 0.8"/>
      </g>
     </g>
     <g id="text_3">
      <!-- 2023-09-25 -->
      <g transform="translate(159.158044 337.765903) rotate(-30) scale(0.12 -0.12)">
       <defs>
        <path id="DejaVuSans-35" d="M 691 4666 
L 3169 4666 
L 3169 4134 
L 1269 4134 
L 1269 2991 
Q 1406 3038 1543 3061 
Q 1681 3084 1819 3084 
Q 2600 3084 3056 2656 
Q 3513 2228 3513 1497 
Q 3513 744 3044 326 
Q 2575 -91 1722 -91 
Q 1428 -91 1123 -41 
Q 819 9 494 109 
L 494 744 
Q 775 591 1075 516 
Q 1375 441 1709 441 
Q 2250 441 2565 725 
Q 2881 1009 2881 1497 
Q 2881 1984 2565 2268 
Q 2250 2553 1709 2553 
Q 1456 2553 1204 2497 
Q 953 2441 691 2322 
L 691 4666 
z
" transform="scale(0.015625)"/>
       </defs>
       <use xlink:href="#DejaVuSans-32"/>
       <use xlink:href="#DejaVuSans-30" x="63.623047"/>
       <use xlink:href="#DejaVuSans-32" x="127.246094"/>
       <use xlink:href="#DejaVuSans-33" x="190.869141"/>
       <use xlink:href="#DejaVuSans-2d" x="254.492188"/>
       <use xlink:href="#DejaVuSans-30" x="290.576172"/>
       <use xlink:href="#DejaVuSans-39" x="354.199219"/>
       <use xlink:href="#DejaVuSans-2d" x="417.822266"/>
       <use xlink:href="#DejaVuSans-32" x="453.90625"/>
       <use xlink:href="#DejaVuSans-35" x="517.529297"/>
      </g>
     </g>
    </g>
    <g id="xtick_4">
     <g id="line2d_4">
      <g>
       <use xlink:href="#m43d42d49d8" x="277.034852" y="288" style="stroke: #000000; stroke-width: 0.8"/>
      </g>
     </g>
     <g id="text_4">
      <!-- 2023-09-29 -->
      <g transform="translate(215.39151 337.765903) rotate(-30) scale(0.12 -0.12)">
       <use xlink:href="#DejaVuSans-32"/>
       <use xlink:href="#DejaVuSans-30" x="63.623047"/>
       <use xlink:href="#DejaVuSans-32" x="127.246094"/>
       <use xlink:href="#DejaVuSans-33" x="190.869141"/>
       <use xlink:href="#DejaVuSans-2d" x="254.492188"/>
       <use xlink:href="#DejaVuSans-30" x="290.576172"/>
       <use xlink:href="#DejaVuSans-39" x="354.199219"/>
       <use xlink:href="#DejaVuSans-2d" x="417.822266"/>
       <use xlink:href="#DejaVuSans-32" x="453.90625"/>
       <use xlink:href="#DejaVuSans-39" x="517.529297"/>
      </g>
     </g>
    </g>
    <g id="xtick_5">
     <g id="line2d_5">
      <g>
       <use xlink:href="#m43d42d49d8" x="305.151585" y="288" style="stroke: #000000; stroke-width: 0.8"/>
      </g>
     </g>
     <g id="text_5">
      <!-- 2023-10-01 -->
      <g transform="translate(243.508244 337.765903) rotate(-30) scale(0.12 -0.12)">
       <use xlink:href="#DejaVuSans-32"/>
       <use xlink:href="#DejaVuSans-30" x="63.623047"/>
       <use xlink:href="#DejaVuSans-32" x="127.246094"/>
       <use xlink:href="#DejaVuSans-33" x="190.869141"/>
       <use xlink:href="#DejaVuSans-2d" x="254.492188"/>
       <use xlink:href="#DejaVuSans-31" x="290.576172"/>
       <use xlink:href="#DejaVuSans-30" x="354.199219"/>
       <use xlink:href="#DejaVuSans-2d" x="417.822266"/>
       <use xlink:href="#DejaVuSans-30" x="453.90625"/>
       <use xlink:href="#DejaVuSans-31" x="517.529297"/>
      </g>
     </g>
    </g>
    <g id="xtick_6">
     <g id="line2d_6">
      <g>
       <use xlink:href="#m43d42d49d8" x="361.385051" y="288" style="stroke: #000000; stroke-width: 0.8"/>
      </g>
     </g>
     <g id="text_6">
      <!-- 2023-10-05 -->
      <g transform="translate(299.74171 337.765903) rotate(-30) scale(0.12 -0.12)">
       <use xlink:href="#DejaVuSans-32"/>
       <use xlink:href="#DejaVuSans-30" x="63.623047"/>
       <use xlink:href="#DejaVuSans-32" x="127.246094"/>
       <use xlink:href="#DejaVuSans-33" x="190.869141"/>
       <use xlink:href="#DejaVuSans-2d" x="254.492188"/>
       <use xlink:href="#DejaVuSans-31" x="290.576172"/>
       <use xlink:href="#DejaVuSans-30" x="354.199219"/>
       <use xlink:href="#DejaVuSans-2d" x="417.822266"/>
       <use xlink:href="#DejaVuSans-30" x="453.90625"/>
       <use xlink:href="#DejaVuSans-35" x="517.529297"/>
      </g>
     </g>
    </g>
    <g id="xtick_7">
     <g id="line2d_7">
      <g>
       <use xlink:href="#m43d42d49d8" x="417.618518" y="288" style="stroke: #000000; stroke-width: 0.8"/>
      </g>
     </g>
     <g id="text_7">
      <!-- 2023-10-09 -->
      <g transform="translate(355.975176 337.765903) rotate(-30) scale(0.12 -0.12)">
       <use xlink:href="#DejaVuSans-32"/>
       <use xlink:href="#DejaVuSans-30" x="63.623047"/>
       <use xlink:href="#DejaVuSans-32" x="127.246094"/>
       <use xlink:href="#DejaVuSans-33" x="190.869141"/>
       <use xlink:href="#DejaVuSans-2d" x="254.492188"/>
       <use xlink:href="#DejaVuSans-31" x="290.576172"/>
       <use xlink:href="#DejaVuSans-30" x="354.199219"/>
       <use xlink:href="#DejaVuSans-2d" x="417.822266"/>
       <use xlink:href="#DejaVuSans-30" x="453.90625"/>
       <use xlink:href="#DejaVuSans-39" x="517.529297"/>
      </g>
     </g>
    </g>
    <g id="xtick_8">
     <g id="line2d_8">
      <g>
       <use xlink:href="#m43d42d49d8" x="473.851984" y="288" style="stroke: #000000; stroke-width: 0.8"/>
      </g>
     </g>
     <g id="text_8">
      <!-- 2023-10-13 -->
      <g transform="translate(412.208642 337.765903) rotate(-30) scale(0.12 -0.12)">
       <use xlink:href="#DejaVuSans-32"/>
       <use xlink:href="#DejaVuSans-30" x="63.623047"/>
       <use xlink:href="#DejaVuSans-32" x="127.246094"/>
       <use xlink:href="#DejaVuSans-33" x="190.869141"/>
       <use xlink:href="#DejaVuSans-2d" x="254.492188"/>
       <use xlink:href="#DejaVuSans-31" x="290.576172"/>
       <use xlink:href="#DejaVuSans-30" x="354.199219"/>
       <use xlink:href="#DejaVuSans-2d" x="417.822266"/>
       <use xlink:href="#DejaVuSans-31" x="453.90625"/>
       <use xlink:href="#DejaVuSans-33" x="517.529297"/>
      </g>
     </g>
    </g>
    <g id="xtick_9">
     <g id="line2d_9">
      <g>
       <use xlink:href="#m43d42d49d8" x="530.08545" y="288" style="stroke: #000000; stroke-width: 0.8"/>
      </g>
     </g>
     <g id="text_9">
      <!-- 2023-10-17 -->
      <g transform="translate(468.442109 337.765903) rotate(-30) scale(0.12 -0.12)">
       <use xlink:href="#DejaVuSans-32"/>
       <use xlink:href="#DejaVuSans-30" x="63.623047"/>
       <use xlink:href="#DejaVuSans-32" x="127.246094"/>
       <use xlink:href="#DejaVuSans-33" x="190.869141"/>
       <use xlink:href="#DejaVuSans-2d" x="254.492188"/>
       <use xlink:href="#DejaVuSans-31" x="290.576172"/>
       <use xlink:href="#DejaVuSans-30" x="354.199219"/>
       <use xlink:href="#DejaVuSans-2d" x="417.822266"/>
       <use xlink:href="#DejaVuSans-31" x="453.90625"/>
       <use xlink:href="#DejaVuSans-37" x="517.529297"/>
      </g>
     </g>
    </g>
    <g id="xtick_10">
     <g id="line2d_10">
      <g>
       <use xlink:href="#m43d42d49d8" x="586.318917" y="288" style="stroke: #000000; stroke-width: 0.8"/>
      </g>
     </g>
     <g id="text_10">
      <!-- 2023-10-21 -->
      <g transform="translate(524.675575 337.765903) rotate(-30) scale(0.12 -0.12)">
       <use xlink:href="#DejaVuSans-32"/>
       <use xlink:href="#DejaVuSans-30" x="63.623047"/>
       <use xlink:href="#DejaVuSans-32" x="127.246094"/>
       <use xlink:href="#DejaVuSans-33" x="190.869141"/>
       <use xlink:href="#DejaVuSans-2d" x="254.492188"/>
       <use xlink:href="#DejaVuSans-31" x="290.576172"/>
       <use xlink:href="#DejaVuSans-30" x="354.199219"/>
       <use xlink:href="#DejaVuSans-2d" x="417.822266"/>
       <use xlink:href="#DejaVuSans-32" x="453.90625"/>
       <use xlink:href="#DejaVuSans-31" x="517.529297"/>
      </g>
     </g>
    </g>
    <g id="xtick_11">
     <g id="line2d_11">
      <g>
       <use xlink:href="#m43d42d49d8" x="642.552383" y="288" style="stroke: #000000; stroke-width: 0.8"/>
      </g>
     </g>
     <g id="text_11">
      <!-- 2023-10-25 -->
      <g transform="translate(580.909041 337.765903) rotate(-30) scale(0.12 -0.12)">
       <use xlink:href="#DejaVuSans-32"/>
       <use xlink:href="#DejaVuSans-30" x="63.623047"/>
       <use xlink:href="#DejaVuSans-32" x="127.246094"/>
       <use xlink:href="#DejaVuSans-33" x="190.869141"/>
       <use xlink:href="#DejaVuSans-2d" x="254.492188"/>
       <use xlink:href="#DejaVuSans-31" x="290.576172"/>
       <use xlink:href="#DejaVuSans-30" x="354.199219"/>
       <use xlink:href="#DejaVuSans-2d" x="417.822266"/>
       <use xlink:href="#DejaVuSans-32" x="453.90625"/>
       <use xlink:href="#DejaVuSans-35" x="517.529297"/>
      </g>
     </g>
    </g>
   </g>
   <g id="matplotlib.axis_2">
    <g id="ytick_1">
     <g id="line2d_12">
      <defs>
       <path id="m086a3d05be" d="M 0 0 
L -3.5 0 
" style="stroke: #000000; stroke-width: 0.8"/>
      </defs>
      <g>
       <use xlink:href="#m086a3d05be" x="90" y="259.439358" style="stroke: #000000; stroke-width: 0.8"/>
      </g>
     </g>
     <g id="text_12">
      <!-- 2.02 -->
      <g transform="translate(56.28125 263.998421) scale(0.12 -0.12)">
       <defs>
        <path id="DejaVuSans-2e" d="M 684 794 
L 1344 794 
L 1344 0 
L 684 0 
L 684 794 
z
" transform="scale(0.015625)"/>
       </defs>
       <use xlink:href="#DejaVuSans-32"/>
       <use xlink:href="#DejaVuSans-2e" x="63.623047"/>
       <use xlink:href="#DejaVuSans-30" x="95.410156"/>
       <use xlink:href="#DejaVuSans-32" x="159.033203"/>
      </g>
     </g>
    </g>
    <g id="ytick_2">
     <g id="line2d_13">
      <g>
       <use xlink:href="#m086a3d05be" x="90" y="220.329031" style="stroke: #000000; stroke-width: 0.8"/>
      </g>
     </g>
     <g id="text_13">
      <!-- 2.04 -->
      <g transform="translate(56.28125 224.888094) scale(0.12 -0.12)">
       <defs>
        <path id="DejaVuSans-34" d="M 2419 4116 
L 825 1625 
L 2419 1625 
L 2419 4116 
z
M 2253 4666 
L 3047 4666 
L 3047 1625 
L 3713 1625 
L 3713 1100 
L 3047 1100 
L 3047 0 
L 2419 0 
L 2419 1100 
L 313 1100 
L 313 1709 
L 2253 4666 
z
" transform="scale(0.015625)"/>
       </defs>
       <use xlink:href="#DejaVuSans-32"/>
       <use xlink:href="#DejaVuSans-2e" x="63.623047"/>
       <use xlink:href="#DejaVuSans-30" x="95.410156"/>
       <use xlink:href="#DejaVuSans-34" x="159.033203"/>
      </g>
     </g>
    </g>
    <g id="ytick_3">
     <g id="line2d_14">
      <g>
       <use xlink:href="#m086a3d05be" x="90" y="181.218704" style="stroke: #000000; stroke-width: 0.8"/>
      </g>
     </g>
     <g id="text_14">
      <!-- 2.06 -->
      <g transform="translate(56.28125 185.777767) scale(0.12 -0.12)">
       <defs>
        <path id="DejaVuSans-36" d="M 2113 2584 
Q 1688 2584 1439 2293 
Q 1191 2003 1191 1497 
Q 1191 994 1439 701 
Q 1688 409 2113 409 
Q 2538 409 2786 701 
Q 3034 994 3034 1497 
Q 3034 2003 2786 2293 
Q 2538 2584 2113 2584 
z
M 3366 4563 
L 3366 3988 
Q 3128 4100 2886 4159 
Q 2644 4219 2406 4219 
Q 1781 4219 1451 3797 
Q 1122 3375 1075 2522 
Q 1259 2794 1537 2939 
Q 1816 3084 2150 3084 
Q 2853 3084 3261 2657 
Q 3669 2231 3669 1497 
Q 3669 778 3244 343 
Q 2819 -91 2113 -91 
Q 1303 -91 875 529 
Q 447 1150 447 2328 
Q 447 3434 972 4092 
Q 1497 4750 2381 4750 
Q 2619 4750 2861 4703 
Q 3103 4656 3366 4563 
z
" transform="scale(0.015625)"/>
       </defs>
       <use xlink:href="#DejaVuSans-32"/>
       <use xlink:href="#DejaVuSans-2e" x="63.623047"/>
       <use xlink:href="#DejaVuSans-30" x="95.410156"/>
       <use xlink:href="#DejaVuSans-36" x="159.033203"/>
      </g>
     </g>
    </g>
    <g id="ytick_4">
     <g id="line2d_15">
      <g>
       <use xlink:href="#m086a3d05be" x="90" y="142.108377" style="stroke: #000000; stroke-width: 0.8"/>
      </g>
     </g>
     <g id="text_15">
      <!-- 2.08 -->
      <g transform="translate(56.28125 146.66744) scale(0.12 -0.12)">
       <defs>
        <path id="DejaVuSans-38" d="M 2034 2216 
Q 1584 2216 1326 1975 
Q 1069 1734 1069 1313 
Q 1069 891 1326 650 
Q 1584 409 2034 409 
Q 2484 409 2743 651 
Q 3003 894 3003 1313 
Q 3003 1734 2745 1975 
Q 2488 2216 2034 2216 
z
M 1403 2484 
Q 997 2584 770 2862 
Q 544 3141 544 3541 
Q 544 4100 942 4425 
Q 1341 4750 2034 4750 
Q 2731 4750 3128 4425 
Q 3525 4100 3525 3541 
Q 3525 3141 3298 2862 
Q 3072 2584 2669 2484 
Q 3125 2378 3379 2068 
Q 3634 1759 3634 1313 
Q 3634 634 3220 271 
Q 2806 -91 2034 -91 
Q 1263 -91 848 271 
Q 434 634 434 1313 
Q 434 1759 690 2068 
Q 947 2378 1403 2484 
z
M 1172 3481 
Q 1172 3119 1398 2916 
Q 1625 2713 2034 2713 
Q 2441 2713 2670 2916 
Q 2900 3119 2900 3481 
Q 2900 3844 2670 4047 
Q 2441 4250 2034 4250 
Q 1625 4250 1398 4047 
Q 1172 3844 1172 3481 
z
" transform="scale(0.015625)"/>
       </defs>
       <use xlink:href="#DejaVuSans-32"/>
       <use xlink:href="#DejaVuSans-2e" x="63.623047"/>
       <use xlink:href="#DejaVuSans-30" x="95.410156"/>
       <use xlink:href="#DejaVuSans-38" x="159.033203"/>
      </g>
     </g>
    </g>
    <g id="ytick_5">
     <g id="line2d_16">
      <g>
       <use xlink:href="#m086a3d05be" x="90" y="102.99805" style="stroke: #000000; stroke-width: 0.8"/>
      </g>
     </g>
     <g id="text_16">
      <!-- 2.10 -->
      <g transform="translate(56.28125 107.557113) scale(0.12 -0.12)">
       <use xlink:href="#DejaVuSans-32"/>
       <use xlink:href="#DejaVuSans-2e" x="63.623047"/>
       <use xlink:href="#DejaVuSans-31" x="95.410156"/>
       <use xlink:href="#DejaVuSans-30" x="159.033203"/>
      </g>
     </g>
    </g>
    <g id="ytick_6">
     <g id="line2d_17">
      <g>
       <use xlink:href="#m086a3d05be" x="90" y="63.887723" style="stroke: #000000; stroke-width: 0.8"/>
      </g>
     </g>
     <g id="text_17">
      <!-- 2.12 -->
      <g transform="translate(56.28125 68.446786) scale(0.12 -0.12)">
       <use xlink:href="#DejaVuSans-32"/>
       <use xlink:href="#DejaVuSans-2e" x="63.623047"/>
       <use xlink:href="#DejaVuSans-31" x="95.410156"/>
       <use xlink:href="#DejaVuSans-32" x="159.033203"/>
      </g>
     </g>
    </g>
    <g id="text_18">
     <!-- Meters -->
     <g transform="translate(50.201562 182.6875) rotate(-90) scale(0.1 -0.1)">
      <defs>
       <path id="DejaVuSans-4d" d="M 628 4666 
L 1569 4666 
L 2759 1491 
L 3956 4666 
L 4897 4666 
L 4897 0 
L 4281 0 
L 4281 4097 
L 3078 897 
L 2444 897 
L 1241 4097 
L 1241 0 
L 628 0 
L 628 4666 
z
" transform="scale(0.015625)"/>
       <path id="DejaVuSans-65" d="M 3597 1894 
L 3597 1613 
L 953 1613 
Q 991 1019 1311 708 
Q 1631 397 2203 397 
Q 2534 397 2845 478 
Q 3156 559 3463 722 
L 3463 178 
Q 3153 47 2828 -22 
Q 2503 -91 2169 -91 
Q 1331 -91 842 396 
Q 353 884 353 1716 
Q 353 2575 817 3079 
Q 1281 3584 2069 3584 
Q 2775 3584 3186 3129 
Q 3597 2675 3597 1894 
z
M 3022 2063 
Q 3016 2534 2758 2815 
Q 2500 3097 2075 3097 
Q 1594 3097 1305 2825 
Q 1016 2553 972 2059 
L 3022 2063 
z
" transform="scale(0.015625)"/>
       <path id="DejaVuSans-74" d="M 1172 4494 
L 1172 3500 
L 2356 3500 
L 2356 3053 
L 1172 3053 
L 1172 1153 
Q 1172 725 1289 603 
Q 1406 481 1766 481 
L 2356 481 
L 2356 0 
L 1766 0 
Q 1100 0 847 248 
Q 594 497 594 1153 
L 594 3053 
L 172 3053 
L 172 3500 
L 594 3500 
L 594 4494 
L 1172 4494 
z
" transform="scale(0.015625)"/>
       <path id="DejaVuSans-72" d="M 2631 2963 
Q 2534 3019 2420 3045 
Q 2306 3072 2169 3072 
Q 1681 3072 1420 2755 
Q 1159 2438 1159 1844 
L 1159 0 
L 581 0 
L 581 3500 
L 1159 3500 
L 1159 2956 
Q 1341 3275 1631 3429 
Q 1922 3584 2338 3584 
Q 2397 3584 2469 3576 
Q 2541 3569 2628 3553 
L 2631 2963 
z
" transform="scale(0.015625)"/>
       <path id="DejaVuSans-73" d="M 2834 3397 
L 2834 2853 
Q 2591 2978 2328 3040 
Q 2066 3103 1784 3103 
Q 1356 3103 1142 2972 
Q 928 2841 928 2578 
Q 928 2378 1081 2264 
Q 1234 2150 1697 2047 
L 1894 2003 
Q 2506 1872 2764 1633 
Q 3022 1394 3022 966 
Q 3022 478 2636 193 
Q 2250 -91 1575 -91 
Q 1294 -91 989 -36 
Q 684 19 347 128 
L 347 722 
Q 666 556 975 473 
Q 1284 391 1588 391 
Q 1994 391 2212 530 
Q 2431 669 2431 922 
Q 2431 1156 2273 1281 
Q 2116 1406 1581 1522 
L 1381 1569 
Q 847 1681 609 1914 
Q 372 2147 372 2553 
Q 372 3047 722 3315 
Q 1072 3584 1716 3584 
Q 2034 3584 2315 3537 
Q 2597 3491 2834 3397 
z
" transform="scale(0.015625)"/>
      </defs>
      <use xlink:href="#DejaVuSans-4d"/>
      <use xlink:href="#DejaVuSans-65" x="86.279297"/>
      <use xlink:href="#DejaVuSans-74" x="147.802734"/>
      <use xlink:href="#DejaVuSans-65" x="187.011719"/>
      <use xlink:href="#DejaVuSans-72" x="248.535156"/>
      <use xlink:href="#DejaVuSans-73" x="289.648438"/>
     </g>
    </g>
   </g>
   <g id="line2d_18">
    <path d="M 115.363636 177.166925 
L 115.949402 195.087902 
L 116.535167 182.3803 
L 117.706697 190.526199 
L 118.292463 198.672098 
L 118.878228 197.69459 
L 119.463993 191.503707 
L 120.049759 197.042918 
L 120.635524 220.828943 
L 121.221289 217.244747 
L 121.807054 211.3797 
L 122.39282 178.470268 
L 122.978585 174.560237 
L 123.56435 174.560237 
L 124.150115 172.605221 
L 124.735881 166.740174 
L 125.321646 165.762666 
L 125.907411 164.133486 
L 126.493177 172.605221 
L 127.078942 173.256893 
L 127.664707 176.841089 
L 128.250472 177.818597 
L 128.836238 180.75112 
L 129.422003 184.661152 
L 130.007768 194.43623 
L 130.593533 213.986388 
L 131.179299 224.738974 
L 131.765064 247.873327 
L 132.350829 220.828943 
L 133.52236 211.705536 
L 134.108125 205.188817 
L 134.69389 203.559637 
L 135.279656 196.06541 
L 135.865421 193.132886 
L 136.451186 174.886073 
L 137.036952 170.32437 
L 137.622717 163.155979 
L 138.208482 173.908565 
L 138.794247 176.189417 
L 139.380013 174.234401 
L 140.551543 185.312824 
L 141.137308 179.12194 
L 141.723074 186.290331 
L 142.308839 189.222855 
L 142.894604 192.807051 
L 143.48037 190.526199 
L 144.066135 245.592475 
L 144.6519 249.502507 
L 145.237665 245.592475 
L 145.823431 244.614968 
L 146.409196 228.32317 
L 146.994961 230.278186 
L 147.580726 239.075756 
L 148.166492 245.918311 
L 148.752257 244.940804 
L 149.338022 230.929857 
L 149.923788 200.952949 
L 150.509553 178.796104 
L 151.095318 171.953549 
L 151.681083 177.818597 
L 152.266849 178.144433 
L 153.438379 183.683644 
L 154.024144 184.661152 
L 155.195675 169.672698 
L 155.78144 166.740174 
L 156.367206 172.279385 
L 156.952971 171.301877 
L 157.538736 177.818597 
L 158.124501 186.290331 
L 158.710267 183.683644 
L 159.296032 201.604621 
L 159.881797 228.649006 
L 160.467562 224.413138 
L 161.639093 201.930457 
L 162.224858 205.188817 
L 162.810624 218.222255 
L 163.396389 224.087302 
L 163.982154 221.806451 
L 164.567919 196.391246 
L 165.73945 171.627713 
L 166.325215 163.155979 
L 166.91098 171.301877 
L 167.496746 172.931057 
L 168.082511 175.211909 
L 168.668276 179.773612 
L 169.254042 182.054464 
L 169.839807 176.841089 
L 170.425572 173.908565 
L 171.011337 167.391846 
L 171.597103 173.256893 
L 173.354398 230.929857 
L 173.940164 242.659952 
L 174.525929 232.233201 
L 175.111694 218.548091 
L 175.69746 212.357208 
L 176.283225 202.907965 
L 176.86899 200.627113 
L 177.454755 212.683044 
L 178.040521 197.042918 
L 178.626286 188.245347 
L 179.212051 175.602912 
L 180.383582 164.133486 
L 180.969347 163.481814 
L 181.555112 169.672698 
L 182.140878 178.144433 
L 182.726643 180.75112 
L 183.312408 181.728628 
L 183.898173 174.234401 
L 184.483939 171.627713 
L 185.069704 163.155979 
L 185.655469 166.740174 
L 186.241235 206.492161 
L 187.412765 234.514053 
L 187.99853 239.727428 
L 188.584296 227.997334 
L 189.170061 212.031372 
L 190.341591 205.188817 
L 190.927357 196.391246 
L 191.513122 215.289732 
L 192.684653 174.886073 
L 193.270418 172.279385 
L 193.856183 174.560237 
L 194.441948 173.256893 
L 195.027714 178.796104 
L 195.613479 177.492761 
L 196.199244 174.560237 
L 196.785009 177.492761 
L 197.370775 182.706136 
L 197.95654 177.818597 
L 198.542305 185.964495 
L 199.128071 188.897019 
L 199.713836 187.919511 
L 200.299601 229.95235 
L 201.471132 243.311624 
L 202.056897 237.120741 
L 202.642662 215.615567 
L 203.228427 217.244747 
L 203.814193 217.896419 
L 204.399958 211.3797 
L 204.985723 222.132287 
L 205.571489 207.795505 
L 206.157254 188.245347 
L 206.743019 175.211909 
L 207.328784 166.740174 
L 207.91455 163.80765 
L 208.500315 166.740174 
L 209.08608 162.178471 
L 209.671845 172.931057 
L 210.257611 168.369354 
L 210.843376 161.852635 
L 211.429141 166.414338 
L 212.014907 165.43683 
L 212.600672 178.470268 
L 213.186437 181.076956 
L 213.772202 173.908565 
L 214.357968 216.593075 
L 214.943733 217.896419 
L 215.529498 219.525599 
L 216.115263 228.649006 
L 217.286794 221.480615 
L 217.872559 221.154779 
L 218.458325 223.109794 
L 219.04409 196.391246 
L 219.629855 198.997934 
L 220.21562 183.031972 
L 220.801386 177.166925 
L 221.387151 173.256893 
L 221.972916 172.279385 
L 222.558682 181.076956 
L 223.144447 177.166925 
L 223.730212 177.492761 
L 224.315977 176.189417 
L 224.901743 179.12194 
L 225.487508 176.515253 
L 226.073273 181.728628 
L 226.659038 178.796104 
L 227.244804 178.796104 
L 227.830569 184.661152 
L 228.416334 203.233801 
L 229.0021 203.559637 
L 229.587865 208.773012 
L 230.17363 209.424684 
L 231.930926 203.559637 
L 232.516691 197.368754 
L 233.102456 203.885473 
L 233.688222 206.492161 
L 234.859752 178.796104 
L 235.445518 172.605221 
L 236.617048 163.80765 
L 237.202813 164.459322 
L 237.788579 172.931057 
L 238.960109 181.402792 
L 239.545874 177.492761 
L 240.13164 172.279385 
L 240.717405 170.976041 
L 241.30317 168.043518 
L 241.888936 170.976041 
L 243.646231 195.087902 
L 244.231997 192.155379 
L 245.403527 184.335316 
L 245.989292 170.32437 
L 246.575058 163.481814 
L 247.160823 160.875127 
L 247.746588 158.920111 
L 248.332354 157.616767 
L 249.503884 164.459322 
L 250.089649 164.459322 
L 250.675415 168.043518 
L 251.26118 170.650206 
L 251.846945 169.998534 
L 252.43271 172.279385 
L 253.018476 171.627713 
L 253.604241 171.953549 
L 254.190006 172.605221 
L 254.775772 169.346862 
L 255.361537 168.369354 
L 256.533067 178.144433 
L 257.118833 176.841089 
L 257.704598 182.3803 
L 258.290363 184.335316 
L 258.876128 189.874527 
L 260.047659 185.964495 
L 260.633424 183.031972 
L 261.21919 181.076956 
L 261.804955 177.818597 
L 262.976485 169.998534 
L 263.562251 169.998534 
L 264.148016 161.200963 
L 264.733781 166.740174 
L 265.319547 161.852635 
L 265.905312 165.762666 
L 266.491077 175.537745 
L 267.076842 182.706136 
L 267.662608 182.3803 
L 268.248373 181.076956 
L 268.834138 177.818597 
L 269.419903 176.189417 
L 270.005669 177.492761 
L 270.591434 178.470268 
L 271.177199 180.75112 
L 271.762965 186.290331 
L 273.52026 235.817397 
L 274.106026 240.053264 
L 274.691791 231.907365 
L 275.277556 191.829543 
L 275.863321 183.357808 
L 276.449087 187.593675 
L 277.034852 190.526199 
L 277.620617 182.706136 
L 278.206383 181.728628 
L 278.792148 174.234401 
L 279.377913 172.605221 
L 279.963678 171.627713 
L 280.549444 166.740174 
L 281.135209 173.256893 
L 281.720974 174.886073 
L 282.306739 180.099448 
L 282.892505 178.796104 
L 283.47827 174.560237 
L 284.064035 173.582729 
L 284.649801 172.931057 
L 285.821331 183.683644 
L 286.407096 194.762066 
L 286.992862 210.728028 
L 287.578627 220.503107 
L 288.164392 203.885473 
L 288.750157 194.43623 
L 289.335923 187.919511 
L 289.921688 177.492761 
L 290.507453 170.976041 
L 291.093219 173.908565 
L 291.678984 174.560237 
L 292.264749 181.402792 
L 292.850514 181.728628 
L 293.43628 174.560237 
L 294.022045 173.908565 
L 294.60781 170.976041 
L 295.193575 169.021026 
L 295.779341 175.863581 
L 296.365106 179.12194 
L 296.950871 191.177871 
L 297.536637 196.391246 
L 298.122402 191.503707 
L 298.708167 197.69459 
L 299.293932 196.06541 
L 299.879698 212.031372 
L 300.465463 231.907365 
L 301.051228 243.63746 
L 301.636993 230.929857 
L 302.222759 230.278186 
L 302.808524 233.210709 
L 303.394289 240.704936 
L 303.980055 230.929857 
L 305.151585 181.076956 
L 305.73735 172.605221 
L 306.323116 175.211909 
L 307.494646 174.560237 
L 308.080412 170.976041 
L 308.666177 172.605221 
L 309.251942 176.515253 
L 309.837707 182.054464 
L 310.423473 178.144433 
L 311.595003 184.661152 
L 312.180768 185.63866 
L 313.352299 228.32317 
L 314.52383 244.614968 
L 315.109595 239.401592 
L 315.69536 220.828943 
L 316.281125 213.334716 
L 316.866891 228.974842 
L 317.452656 248.850835 
L 318.038421 249.176671 
L 318.624186 197.368754 
L 319.209952 172.931057 
L 319.795717 174.234401 
L 320.381482 171.953549 
L 320.967248 173.908565 
L 322.138778 179.773612 
L 322.724543 181.728628 
L 323.310309 182.054464 
L 323.896074 186.290331 
L 324.481839 188.245347 
L 325.067604 178.470268 
L 325.65337 175.537745 
L 326.239135 168.369354 
L 326.8249 223.109794 
L 327.410666 226.69399 
L 327.996431 234.188217 
L 328.582196 232.884873 
L 329.167961 234.514053 
L 329.753727 231.255693 
L 330.339492 226.69399 
L 330.925257 226.368154 
L 331.511022 236.469069 
L 332.096788 249.502507 
L 332.682553 211.705536 
L 333.268318 186.290331 
L 333.854084 181.076956 
L 334.439849 181.076956 
L 335.025614 188.245347 
L 335.611379 181.728628 
L 336.197145 177.818597 
L 336.78291 171.627713 
L 337.368675 172.279385 
L 337.95444 177.492761 
L 338.540206 180.75112 
L 339.125971 183.031972 
L 339.711736 190.200363 
L 340.297502 181.076956 
L 340.883267 223.761466 
L 341.469032 228.32317 
L 342.054797 218.873927 
L 342.640563 220.959277 
L 343.226328 221.480615 
L 343.812093 220.828943 
L 344.397858 222.458123 
L 344.983624 221.480615 
L 345.569389 222.132287 
L 346.155154 232.884873 
L 346.74092 221.806451 
L 347.326685 183.031972 
L 347.91245 177.818597 
L 348.498215 176.515253 
L 349.083981 167.06601 
L 349.669746 168.369354 
L 350.255511 177.818597 
L 350.841277 174.886073 
L 352.012807 161.526799 
L 352.598572 158.920111 
L 353.184338 167.06601 
L 353.770103 161.852635 
L 354.355868 169.672698 
L 354.941633 205.514653 
L 355.527399 215.941403 
L 356.113164 204.537145 
L 356.698929 198.997934 
L 357.284695 200.627113 
L 357.87046 203.885473 
L 358.456225 203.233801 
L 359.04199 200.952949 
L 359.627756 195.413738 
L 360.213521 192.807051 
L 360.799286 186.290331 
L 361.385051 171.953549 
L 361.970817 170.650206 
L 362.556582 168.369354 
L 363.142347 172.279385 
L 363.728113 171.953549 
L 364.313878 179.773612 
L 364.899643 176.841089 
L 365.485408 189.874527 
L 366.071174 181.728628 
L 366.656939 183.683644 
L 367.242704 167.391846 
L 367.828469 166.414338 
L 369 176.189417 
L 369.585765 185.63866 
L 370.171531 164.459322 
L 370.757296 160.223455 
L 371.343061 177.818597 
L 371.928826 189.222855 
L 373.100357 173.582729 
L 373.686122 169.021026 
L 374.271887 173.582729 
L 374.857653 173.908565 
L 375.443418 172.279385 
L 376.029183 179.12194 
L 376.614949 178.144433 
L 377.200714 175.863581 
L 377.786479 171.953549 
L 378.95801 166.740174 
L 379.543775 177.492761 
L 380.12954 171.301877 
L 381.301071 169.998534 
L 381.886836 172.931057 
L 382.472601 177.492761 
L 383.058367 216.593075 
L 383.644132 229.300678 
L 384.229897 249.176671 
L 384.815662 221.480615 
L 385.401428 203.559637 
L 385.987193 215.941403 
L 386.572958 219.851435 
L 387.158723 207.795505 
L 387.744489 203.233801 
L 388.330254 213.660552 
L 388.916019 205.840489 
L 389.501785 185.63866 
L 390.08755 177.492761 
L 390.673315 173.908565 
L 391.25908 176.515253 
L 391.844846 179.773612 
L 392.430611 184.986988 
L 393.016376 181.076956 
L 393.602142 174.234401 
L 394.187907 179.773612 
L 394.773672 177.818597 
L 395.359437 179.12194 
L 395.945203 171.953549 
L 396.530968 179.447776 
L 397.116733 218.222255 
L 397.702498 205.188817 
L 398.288264 226.368154 
L 398.874029 221.806451 
L 399.459794 207.143833 
L 400.04556 205.840489 
L 400.631325 207.143833 
L 401.21709 209.098848 
L 401.802855 207.143833 
L 402.974386 185.475742 
L 421.133109 180.75112 
L 421.718875 184.661152 
L 422.30464 178.144433 
L 423.47617 177.492761 
L 424.647701 185.312824 
L 425.233466 205.514653 
L 425.819232 208.773012 
L 426.404997 234.514053 
L 426.990762 221.806451 
L 428.162293 242.985788 
L 428.748058 234.839889 
L 429.333823 248.199163 
L 429.919588 226.042318 
L 430.505354 212.683044 
L 431.091119 204.211309 
L 431.676884 201.278785 
L 432.26265 193.132886 
L 432.848415 192.481215 
L 433.43418 188.897019 
L 434.019945 190.852035 
L 434.605711 194.762066 
L 435.191476 199.975442 
L 435.777241 202.582129 
L 436.363007 206.817997 
L 436.948772 206.166325 
L 437.534537 206.492161 
L 438.120302 205.840489 
L 438.706068 201.930457 
L 439.291833 207.795505 
L 439.877598 204.537145 
L 440.463363 211.705536 
L 441.049129 215.615567 
L 441.634894 217.896419 
L 442.220659 215.289732 
L 442.806425 228.32317 
L 443.977955 206.817997 
L 444.56372 204.537145 
L 445.149486 199.32377 
L 446.321016 191.503707 
L 446.906781 190.852035 
L 447.492547 188.245347 
L 448.078312 184.661152 
L 448.664077 184.661152 
L 449.249843 183.683644 
L 449.835608 186.616167 
L 450.421373 197.69459 
L 451.007138 204.537145 
L 451.592904 202.907965 
L 452.178669 195.739574 
L 452.764434 190.526199 
L 453.350199 197.69459 
L 453.935965 208.773012 
L 454.52173 222.458123 
L 455.107495 242.659952 
L 455.693261 242.985788 
L 456.279026 236.143233 
L 456.864791 235.491561 
L 457.450556 230.278186 
L 458.036322 230.604021 
L 459.207852 210.728028 
L 460.965148 194.762066 
L 461.550913 193.784558 
L 462.136679 194.762066 
L 462.722444 199.975442 
L 463.308209 202.582129 
L 463.893974 207.795505 
L 464.47974 202.582129 
L 465.065505 200.301278 
L 465.65127 190.852035 
L 466.237035 187.919511 
L 466.822801 191.829543 
L 467.408566 242.334116 
L 467.994331 256.996734 
L 468.580097 276.872727 
L 469.165862 272.63686 
L 469.751627 244.940804 
L 470.337392 239.401592 
L 470.923158 258.300078 
L 471.508923 244.940804 
L 472.094688 216.267239 
L 472.680453 202.907965 
L 473.266219 194.43623 
L 473.851984 194.110394 
L 474.437749 192.481215 
L 475.023515 194.762066 
L 475.60928 194.110394 
L 476.195045 195.413738 
L 477.366576 198.997934 
L 477.952341 199.649606 
L 479.123872 194.762066 
L 479.709637 195.087902 
L 480.295402 195.739574 
L 480.881167 194.110394 
L 481.466933 197.368754 
L 482.052698 198.672098 
L 482.638463 204.862981 
L 483.224228 207.795505 
L 483.809994 207.143833 
L 484.395759 201.604621 
L 484.981524 200.952949 
L 485.56729 199.32377 
L 486.153055 198.346262 
L 486.73882 196.717082 
L 487.324585 198.020426 
L 487.910351 187.919511 
L 488.496116 184.00948 
L 489.081881 187.267839 
L 489.667646 185.964495 
L 490.253412 183.031972 
L 491.424942 197.368754 
L 492.010708 195.413738 
L 493.182238 186.942003 
L 493.768003 180.099448 
L 494.939534 188.897019 
L 495.525299 196.391246 
L 496.111064 208.12134 
L 496.69683 209.75052 
L 497.282595 218.222255 
L 497.86836 224.087302 
L 498.454126 214.312224 
L 499.039891 212.357208 
L 499.625656 192.155379 
L 500.211421 188.571183 
L 500.797187 191.829543 
L 501.382952 191.503707 
L 502.554482 209.098848 
L 503.140248 202.582129 
L 503.726013 193.458722 
L 504.311778 186.290331 
L 504.897544 186.942003 
L 505.483309 180.425284 
L 506.069074 181.402792 
L 506.654839 184.00948 
L 507.240605 193.784558 
L 507.82637 198.672098 
L 508.9979 206.492161 
L 509.583666 208.773012 
L 510.169431 213.986388 
L 510.755196 226.368154 
L 511.340962 226.368154 
L 511.926727 234.839889 
L 512.512492 235.491561 
L 513.098257 220.177271 
L 513.684023 209.098848 
L 514.269788 215.289732 
L 514.855553 215.289732 
L 515.441318 213.00888 
L 516.612849 189.874527 
L 517.198614 191.503707 
L 517.78438 186.616167 
L 518.370145 183.031972 
L 518.95591 190.526199 
L 519.541675 191.829543 
L 520.127441 185.63866 
L 520.713206 193.132886 
L 521.298971 203.885473 
L 521.884737 204.211309 
L 522.470502 191.177871 
L 523.056267 185.63866 
L 523.642032 201.278785 
L 524.813563 211.3797 
L 525.399328 213.334716 
L 525.985093 206.817997 
L 526.570859 209.75052 
L 527.156624 207.795505 
L 527.742389 207.469669 
L 528.328155 205.188817 
L 529.499685 185.312824 
L 530.08545 182.706136 
L 530.671216 182.3803 
L 531.256981 179.447776 
L 531.842746 178.470268 
L 532.428511 178.144433 
L 533.014277 188.571183 
L 533.600042 195.739574 
L 534.771573 193.784558 
L 535.357338 188.897019 
L 535.943103 185.964495 
L 536.528868 185.63866 
L 537.114634 181.076956 
L 537.700399 182.706136 
L 538.286164 187.593675 
L 538.871929 188.897019 
L 539.457695 200.627113 
L 540.04346 216.593075 
L 540.629225 248.199163 
L 541.214991 226.368154 
L 541.800756 197.69459 
L 542.386521 188.245347 
L 542.972286 187.593675 
L 543.558052 183.031972 
L 544.143817 182.3803 
L 544.729582 197.69459 
L 545.315347 191.177871 
L 545.901113 194.110394 
L 546.486878 190.200363 
L 547.072643 180.75112 
L 547.658409 183.031972 
L 548.244174 179.773612 
L 548.829939 182.054464 
L 550.00147 187.919511 
L 550.587235 200.301278 
L 551.173 192.155379 
L 551.758765 218.548091 
L 552.344531 236.469069 
L 552.930296 241.356608 
L 553.516061 243.311624 
L 554.101827 221.806451 
L 554.687592 212.683044 
L 555.273357 190.200363 
L 555.859122 233.862381 
L 556.444888 234.839889 
L 557.616418 195.739574 
L 558.202183 183.683644 
L 558.787949 174.234401 
L 559.373714 177.166925 
L 559.959479 178.470268 
L 560.545245 181.402792 
L 561.13101 183.031972 
L 561.716775 187.593675 
L 562.30254 194.110394 
L 562.888306 197.042918 
L 563.474071 201.278785 
L 564.059836 199.32377 
L 564.645602 193.458722 
L 565.231367 198.672098 
L 565.817132 199.975442 
L 566.402897 203.885473 
L 566.988663 212.683044 
L 567.574428 215.289732 
L 568.160193 213.986388 
L 568.745958 209.098848 
L 569.331724 213.00888 
L 569.917489 197.368754 
L 571.08902 192.155379 
L 572.26055 184.335316 
L 573.432081 176.515253 
L 574.017846 177.818597 
L 574.603611 176.841089 
L 575.189376 177.818597 
L 575.775142 182.054464 
L 576.946672 200.952949 
L 577.532438 200.952949 
L 578.118203 197.368754 
L 578.703968 194.762066 
L 579.289733 190.200363 
L 579.875499 187.267839 
L 580.461264 186.942003 
L 581.047029 184.986988 
L 581.632794 189.548691 
L 582.21856 190.852035 
L 582.804325 195.087902 
L 583.39009 197.69459 
L 583.975856 202.256293 
L 584.561621 204.211309 
L 585.147386 210.402192 
L 585.733151 201.930457 
L 586.904682 195.087902 
L 588.661978 206.492161 
L 589.247743 207.469669 
L 589.833508 206.166325 
L 590.419274 212.357208 
L 591.005039 212.683044 
L 591.590804 205.840489 
L 592.176569 203.233801 
L 592.762335 205.840489 
L 593.3481 200.627113 
L 593.933865 198.997934 
L 594.51963 205.514653 
L 595.105396 227.671498 
L 595.691161 242.659952 
L 596.276926 244.940804 
L 596.862692 242.659952 
L 597.448457 245.26664 
L 598.034222 255.041718 
L 598.619987 221.154779 
L 599.791518 194.762066 
L 600.377283 208.447176 
L 600.963048 203.885473 
L 601.548814 205.840489 
L 602.134579 205.188817 
L 602.720344 209.098848 
L 603.30611 198.346262 
L 603.891875 208.12134 
L 604.47764 196.06541 
L 605.063405 188.571183 
L 605.649171 191.503707 
L 606.234936 193.132886 
L 606.820701 199.975442 
L 607.406467 191.503707 
L 607.992232 215.615567 
L 608.577997 217.244747 
L 609.749528 225.716482 
L 610.335293 244.940804 
L 610.921058 245.26664 
L 611.506823 240.704936 
L 612.092589 242.659952 
L 612.678354 250.154179 
L 613.264119 239.727428 
L 613.849885 220.828943 
L 614.43565 210.728028 
L 615.021415 190.526199 
L 616.192946 204.862981 
L 616.778711 202.582129 
L 617.364476 202.256293 
L 617.950241 204.862981 
L 618.536007 203.885473 
L 619.121772 211.053864 
L 619.707537 200.301278 
L 620.293303 210.728028 
L 620.879068 206.166325 
L 621.464833 206.817997 
L 622.050598 256.996734 
L 622.636364 232.396119 
L 622.636364 232.396119 
" clip-path="url(#paff2a99c1f)" style="fill: none; stroke: #1f77b4; stroke-width: 1.5; stroke-linecap: square"/>
   </g>
   <g id="line2d_19">
    <path d="M 115.363636 169.346862 
L 117.706697 169.004145 
L 120.635524 168.327354 
L 123.56435 167.40264 
L 126.493177 166.254854 
L 128.836238 165.189775 
L 129.422003 177.166925 
L 135.279656 169.806143 
L 140.551543 163.92941 
L 142.894604 161.402933 
L 143.48037 192.807051 
L 156.952971 193.756955 
L 157.538736 171.301877 
L 158.124501 171.267518 
L 159.881797 170.249343 
L 161.053328 170.232465 
L 167.496746 170.823616 
L 171.011337 171.153908 
L 171.597103 176.189417 
L 187.412765 177.585466 
L 187.99853 223.43563 
L 188.584296 223.453595 
L 189.170061 239.727428 
L 199.713836 239.906961 
L 200.299601 187.593675 
L 227.244804 189.625917 
L 227.830569 183.031972 
L 241.30317 184.11742 
L 241.888936 173.908565 
L 244.231997 174.087757 
L 244.817762 173.868314 
L 245.403527 173.995137 
L 245.989292 172.260567 
L 246.575058 168.890428 
L 247.160823 168.092869 
L 247.746588 165.122787 
L 248.332354 159.739284 
L 248.918119 155.479189 
L 249.503884 153.166681 
L 250.089649 152.243283 
L 250.675415 151.938944 
L 251.846945 151.899284 
L 257.118833 152.47749 
L 257.704598 152.543933 
L 258.290363 176.515253 
L 258.876128 176.197764 
L 260.047659 175.826263 
L 261.21919 175.011239 
L 261.804955 185.63866 
L 269.419903 186.110548 
L 270.005669 181.076956 
L 297.536637 183.338909 
L 298.122402 179.773612 
L 311.595003 180.907073 
L 312.180768 176.515253 
L 325.65337 177.694603 
L 326.239135 187.593675 
L 339.711736 188.617002 
L 340.297502 179.12194 
L 353.770103 180.264579 
L 354.355868 168.858108 
L 363.728113 169.68111 
L 364.313878 169.628036 
L 364.899643 167.859797 
L 365.485408 164.137317 
L 366.071174 162.150334 
L 366.656939 158.718084 
L 367.828469 146.900038 
L 368.414235 167.391846 
L 369.585765 153.822401 
L 371.343061 133.349467 
L 372.514592 126.834697 
L 373.100357 124.146185 
L 373.686122 122.201568 
L 374.271887 121.06395 
L 374.857653 120.652755 
L 375.443418 120.548045 
L 377.200714 120.710277 
L 381.886836 121.393365 
L 382.472601 170.813123 
L 390.673315 171.597799 
L 391.844846 171.413536 
L 392.430611 171.532938 
L 393.016376 171.27469 
L 393.602142 170.820464 
L 394.187907 170.658988 
L 395.359437 170.646326 
L 395.945203 170.690186 
L 396.530968 176.678171 
L 397.116733 176.613643 
L 397.702498 176.75388 
L 398.288264 176.128251 
L 399.459794 173.170199 
L 400.04556 169.883022 
L 401.21709 161.298988 
L 401.802855 152.654007 
L 402.974386 125.611796 
L 421.133109 56.6733 
L 436.948772 59.322244 
L 437.534537 59.054328 
L 438.120302 54.327273 
L 438.706068 208.447176 
L 443.39219 208.717258 
L 443.977955 208.580512 
L 445.149486 207.509532 
L 445.735251 206.790639 
L 446.321016 205.238115 
L 447.492547 201.344133 
L 448.078312 200.057668 
L 448.664077 199.358368 
L 449.249843 199.100987 
L 450.421373 199.027136 
L 451.592904 199.085753 
L 452.178669 202.582129 
L 454.52173 200.14665 
L 456.864791 198.080769 
L 459.207852 196.326541 
L 461.550913 194.834498 
L 464.47974 193.274382 
L 466.237035 192.474141 
L 466.822801 200.13836 
L 469.165862 198.091676 
L 471.508923 196.331897 
L 473.851984 194.807841 
L 474.437749 194.48653 
L 475.023515 193.943356 
L 476.195045 191.991687 
L 477.366576 189.132714 
L 478.538106 187.52784 
L 479.123872 187.301888 
L 479.709637 186.804342 
L 480.295402 185.749492 
L 480.881167 194.762066 
L 481.466933 193.075738 
L 483.809994 184.795961 
L 484.395759 183.573557 
L 484.981524 183.082516 
L 486.153055 182.735803 
L 487.324585 182.050821 
L 488.496116 175.696473 
L 489.081881 173.421022 
L 489.667646 167.473258 
L 490.839177 153.249605 
L 493.182238 131.490325 
L 493.768003 127.727069 
L 494.353769 126.071835 
L 494.939534 180.588202 
L 496.111064 172.343117 
L 496.69683 169.059973 
L 497.282595 166.88462 
L 498.454126 164.313361 
L 499.625656 162.306182 
L 500.211421 161.76179 
L 500.797187 161.57498 
L 501.968717 161.569764 
L 508.412135 162.220192 
L 508.9979 194.273312 
L 514.269788 194.597239 
L 515.441318 194.04535 
L 516.027084 194.184351 
L 516.612849 193.775332 
L 517.198614 193.202131 
L 518.370145 193.138525 
L 518.95591 193.410738 
L 519.541675 191.472647 
L 520.127441 188.041384 
L 521.298971 183.506789 
L 521.884737 181.957298 
L 522.470502 181.987245 
L 523.056267 203.070883 
L 523.642032 188.100439 
L 524.227798 182.04267 
L 524.813563 182.127999 
L 525.399328 182.075121 
L 527.742389 182.249835 
L 528.91392 182.364838 
L 529.499685 181.601862 
L 530.08545 177.43524 
L 530.671216 170.608796 
L 531.256981 166.058666 
L 531.842746 165.09547 
L 534.771573 165.339304 
L 536.528868 165.477734 
L 537.114634 188.408265 
L 538.871929 188.422182 
L 539.457695 188.774013 
L 540.04346 186.143007 
L 540.629225 181.156906 
L 541.214991 179.551308 
L 542.386521 179.890785 
L 542.972286 177.50741 
L 543.558052 173.177451 
L 544.143817 171.79444 
L 544.729582 171.991506 
L 546.486878 172.086341 
L 550.587235 172.387671 
L 551.173 184.00948 
L 558.787949 184.754803 
L 561.716775 184.99583 
L 562.30254 184.837044 
L 562.888306 184.259046 
L 563.474071 183.874892 
L 564.059836 183.717458 
L 564.645602 182.726166 
L 565.231367 200.13836 
L 566.988663 198.471027 
L 568.160193 197.362384 
L 568.745958 196.758823 
L 569.331724 195.246434 
L 569.917489 191.706358 
L 570.503254 189.484654 
L 571.08902 188.618149 
L 572.26055 185.530024 
L 572.846315 185.13404 
L 574.603611 185.223127 
L 578.703968 185.335221 
L 579.289733 200.13836 
L 579.875499 198.54725 
L 580.461264 196.496021 
L 581.047029 195.572545 
L 587.490447 192.264904 
L 590.419274 191.160901 
L 592.762335 190.417537 
L 593.3481 204.048391 
L 595.691161 201.37475 
L 596.276926 200.809446 
L 596.862692 199.925761 
L 597.448457 198.476154 
L 599.205753 195.562715 
L 599.791518 193.574054 
L 600.963048 185.954422 
L 601.548814 184.428937 
L 602.720344 184.441273 
L 606.820701 184.812125 
L 607.406467 192.807051 
L 620.879068 193.048783 
L 621.464833 197.205836 
L 622.636364 197.225206 
L 622.636364 197.225206 
" clip-path="url(#paff2a99c1f)" style="fill: none; stroke: #ff7f0e; stroke-width: 1.5; stroke-linecap: square"/>
   </g>
   <g id="patch_3">
    <path d="M 90 288 
L 90 43.2 
" style="fill: none; stroke: #000000; stroke-width: 0.8; stroke-linejoin: miter; stroke-linecap: square"/>
   </g>
   <g id="patch_4">
    <path d="M 648 288 
L 648 43.2 
" style="fill: none; stroke: #000000; stroke-width: 0.8; stroke-linejoin: miter; stroke-linecap: square"/>
   </g>
   <g id="patch_5">
    <path d="M 90 288 
L 648 288 
" style="fill: none; stroke: #000000; stroke-width: 0.8; stroke-linejoin: miter; stroke-linecap: square"/>
   </g>
   <g id="patch_6">
    <path d="M 90 43.2 
L 648 43.2 
" style="fill: none; stroke: #000000; stroke-width: 0.8; stroke-linejoin: miter; stroke-linecap: square"/>
   </g>
   <g id="text_19">
    <!-- MDOT3082 -->
    <g transform="translate(335.545313 37.2) scale(0.12 -0.12)">
     <defs>
      <path id="DejaVuSans-44" d="M 1259 4147 
L 1259 519 
L 2022 519 
Q 2988 519 3436 956 
Q 3884 1394 3884 2338 
Q 3884 3275 3436 3711 
Q 2988 4147 2022 4147 
L 1259 4147 
z
M 628 4666 
L 1925 4666 
Q 3281 4666 3915 4102 
Q 4550 3538 4550 2338 
Q 4550 1131 3912 565 
Q 3275 0 1925 0 
L 628 0 
L 628 4666 
z
" transform="scale(0.015625)"/>
      <path id="DejaVuSans-4f" d="M 2522 4238 
Q 1834 4238 1429 3725 
Q 1025 3213 1025 2328 
Q 1025 1447 1429 934 
Q 1834 422 2522 422 
Q 3209 422 3611 934 
Q 4013 1447 4013 2328 
Q 4013 3213 3611 3725 
Q 3209 4238 2522 4238 
z
M 2522 4750 
Q 3503 4750 4090 4092 
Q 4678 3434 4678 2328 
Q 4678 1225 4090 567 
Q 3503 -91 2522 -91 
Q 1538 -91 948 565 
Q 359 1222 359 2328 
Q 359 3434 948 4092 
Q 1538 4750 2522 4750 
z
" transform="scale(0.015625)"/>
      <path id="DejaVuSans-54" d="M -19 4666 
L 3928 4666 
L 3928 4134 
L 2272 4134 
L 2272 0 
L 1638 0 
L 1638 4134 
L -19 4134 
L -19 4666 
z
" transform="scale(0.015625)"/>
     </defs>
     <use xlink:href="#DejaVuSans-4d"/>
     <use xlink:href="#DejaVuSans-44" x="86.279297"/>
     <use xlink:href="#DejaVuSans-4f" x="163.28125"/>
     <use xlink:href="#DejaVuSans-54" x="241.992188"/>
     <use xlink:href="#DejaVuSans-33" x="303.076172"/>
     <use xlink:href="#DejaVuSans-30" x="366.699219"/>
     <use xlink:href="#DejaVuSans-38" x="430.322266"/>
     <use xlink:href="#DejaVuSans-32" x="493.945312"/>
    </g>
   </g>
   <g id="legend_1">
    <g id="patch_7">
     <path d="M 559.04375 80.55625 
L 641 80.55625 
Q 643 80.55625 643 78.55625 
L 643 50.2 
Q 643 48.2 641 48.2 
L 559.04375 48.2 
Q 557.04375 48.2 557.04375 50.2 
L 557.04375 78.55625 
Q 557.04375 80.55625 559.04375 80.55625 
z
" style="fill: #ffffff; opacity: 0.8; stroke: #cccccc; stroke-linejoin: miter"/>
    </g>
    <g id="line2d_20">
     <path d="M 561.04375 56.298437 
L 571.04375 56.298437 
L 581.04375 56.298437 
" style="fill: none; stroke: #1f77b4; stroke-width: 1.5; stroke-linecap: square"/>
    </g>
    <g id="text_20">
     <!-- measured -->
     <g transform="translate(589.04375 59.798437) scale(0.1 -0.1)">
      <defs>
       <path id="DejaVuSans-6d" d="M 3328 2828 
Q 3544 3216 3844 3400 
Q 4144 3584 4550 3584 
Q 5097 3584 5394 3201 
Q 5691 2819 5691 2113 
L 5691 0 
L 5113 0 
L 5113 2094 
Q 5113 2597 4934 2840 
Q 4756 3084 4391 3084 
Q 3944 3084 3684 2787 
Q 3425 2491 3425 1978 
L 3425 0 
L 2847 0 
L 2847 2094 
Q 2847 2600 2669 2842 
Q 2491 3084 2119 3084 
Q 1678 3084 1418 2786 
Q 1159 2488 1159 1978 
L 1159 0 
L 581 0 
L 581 3500 
L 1159 3500 
L 1159 2956 
Q 1356 3278 1631 3431 
Q 1906 3584 2284 3584 
Q 2666 3584 2933 3390 
Q 3200 3197 3328 2828 
z
" transform="scale(0.015625)"/>
       <path id="DejaVuSans-61" d="M 2194 1759 
Q 1497 1759 1228 1600 
Q 959 1441 959 1056 
Q 959 750 1161 570 
Q 1363 391 1709 391 
Q 2188 391 2477 730 
Q 2766 1069 2766 1631 
L 2766 1759 
L 2194 1759 
z
M 3341 1997 
L 3341 0 
L 2766 0 
L 2766 531 
Q 2569 213 2275 61 
Q 1981 -91 1556 -91 
Q 1019 -91 701 211 
Q 384 513 384 1019 
Q 384 1609 779 1909 
Q 1175 2209 1959 2209 
L 2766 2209 
L 2766 2266 
Q 2766 2663 2505 2880 
Q 2244 3097 1772 3097 
Q 1472 3097 1187 3025 
Q 903 2953 641 2809 
L 641 3341 
Q 956 3463 1253 3523 
Q 1550 3584 1831 3584 
Q 2591 3584 2966 3190 
Q 3341 2797 3341 1997 
z
" transform="scale(0.015625)"/>
       <path id="DejaVuSans-75" d="M 544 1381 
L 544 3500 
L 1119 3500 
L 1119 1403 
Q 1119 906 1312 657 
Q 1506 409 1894 409 
Q 2359 409 2629 706 
Q 2900 1003 2900 1516 
L 2900 3500 
L 3475 3500 
L 3475 0 
L 2900 0 
L 2900 538 
Q 2691 219 2414 64 
Q 2138 -91 1772 -91 
Q 1169 -91 856 284 
Q 544 659 544 1381 
z
M 1991 3584 
L 1991 3584 
z
" transform="scale(0.015625)"/>
       <path id="DejaVuSans-64" d="M 2906 2969 
L 2906 4863 
L 3481 4863 
L 3481 0 
L 2906 0 
L 2906 525 
Q 2725 213 2448 61 
Q 2172 -91 1784 -91 
Q 1150 -91 751 415 
Q 353 922 353 1747 
Q 353 2572 751 3078 
Q 1150 3584 1784 3584 
Q 2172 3584 2448 3432 
Q 2725 3281 2906 2969 
z
M 947 1747 
Q 947 1113 1208 752 
Q 1469 391 1925 391 
Q 2381 391 2643 752 
Q 2906 1113 2906 1747 
Q 2906 2381 2643 2742 
Q 2381 3103 1925 3103 
Q 1469 3103 1208 2742 
Q 947 2381 947 1747 
z
" transform="scale(0.015625)"/>
      </defs>
      <use xlink:href="#DejaVuSans-6d"/>
      <use xlink:href="#DejaVuSans-65" x="97.412109"/>
      <use xlink:href="#DejaVuSans-61" x="158.935547"/>
      <use xlink:href="#DejaVuSans-73" x="220.214844"/>
      <use xlink:href="#DejaVuSans-75" x="272.314453"/>
      <use xlink:href="#DejaVuSans-72" x="335.693359"/>
      <use xlink:href="#DejaVuSans-65" x="374.556641"/>
      <use xlink:href="#DejaVuSans-64" x="436.080078"/>
     </g>
    </g>
    <g id="line2d_21">
     <path d="M 561.04375 70.976562 
L 571.04375 70.976562 
L 581.04375 70.976562 
" style="fill: none; stroke: #ff7f0e; stroke-width: 1.5; stroke-linecap: square"/>
    </g>
    <g id="text_21">
     <!-- predicted -->
     <g transform="translate(589.04375 74.476562) scale(0.1 -0.1)">
      <defs>
       <path id="DejaVuSans-70" d="M 1159 525 
L 1159 -1331 
L 581 -1331 
L 581 3500 
L 1159 3500 
L 1159 2969 
Q 1341 3281 1617 3432 
Q 1894 3584 2278 3584 
Q 2916 3584 3314 3078 
Q 3713 2572 3713 1747 
Q 3713 922 3314 415 
Q 2916 -91 2278 -91 
Q 1894 -91 1617 61 
Q 1341 213 1159 525 
z
M 3116 1747 
Q 3116 2381 2855 2742 
Q 2594 3103 2138 3103 
Q 1681 3103 1420 2742 
Q 1159 2381 1159 1747 
Q 1159 1113 1420 752 
Q 1681 391 2138 391 
Q 2594 391 2855 752 
Q 3116 1113 3116 1747 
z
" transform="scale(0.015625)"/>
       <path id="DejaVuSans-69" d="M 603 3500 
L 1178 3500 
L 1178 0 
L 603 0 
L 603 3500 
z
M 603 4863 
L 1178 4863 
L 1178 4134 
L 603 4134 
L 603 4863 
z
" transform="scale(0.015625)"/>
       <path id="DejaVuSans-63" d="M 3122 3366 
L 3122 2828 
Q 2878 2963 2633 3030 
Q 2388 3097 2138 3097 
Q 1578 3097 1268 2742 
Q 959 2388 959 1747 
Q 959 1106 1268 751 
Q 1578 397 2138 397 
Q 2388 397 2633 464 
Q 2878 531 3122 666 
L 3122 134 
Q 2881 22 2623 -34 
Q 2366 -91 2075 -91 
Q 1284 -91 818 406 
Q 353 903 353 1747 
Q 353 2603 823 3093 
Q 1294 3584 2113 3584 
Q 2378 3584 2631 3529 
Q 2884 3475 3122 3366 
z
" transform="scale(0.015625)"/>
      </defs>
      <use xlink:href="#DejaVuSans-70"/>
      <use xlink:href="#DejaVuSans-72" x="63.476562"/>
      <use xlink:href="#DejaVuSans-65" x="102.339844"/>
      <use xlink:href="#DejaVuSans-64" x="163.863281"/>
      <use xlink:href="#DejaVuSans-69" x="227.339844"/>
      <use xlink:href="#DejaVuSans-63" x="255.123047"/>
      <use xlink:href="#DejaVuSans-74" x="310.103516"/>
      <use xlink:href="#DejaVuSans-65" x="349.3125"/>
      <use xlink:href="#DejaVuSans-64" x="410.835938"/>
     </g>
    </g>
   </g>
  </g>
 </g>
 <defs>
  <clipPath id="paff2a99c1f">
   <rect x="90" y="43.2" width="558" height="244.8"/>
  </clipPath>
 </defs>
</svg>
