<?xml version="1.0" encoding="utf-8" standalone="no"?>
<!DOCTYPE svg PUBLIC "-//W3C//DTD SVG 1.1//EN"
  "http://www.w3.org/Graphics/SVG/1.1/DTD/svg11.dtd">
<svg xmlns:xlink="http://www.w3.org/1999/xlink" width="720pt" height="360pt" viewBox="0 0 720 360" xmlns="http://www.w3.org/2000/svg" version="1.1">
 <metadata>
  <rdf:RDF xmlns:dc="http://purl.org/dc/elements/1.1/" xmlns:cc="http://creativecommons.org/ns#" xmlns:rdf="http://www.w3.org/1999/02/22-rdf-syntax-ns#">
   <cc:Work>
    <dc:type rdf:resource="http://purl.org/dc/dcmitype/StillImage"/>
    <dc:date>2023-10-23T10:54:08.887007</dc:date>
    <dc:format>image/svg+xml</dc:format>
    <dc:creator>
     <cc:Agent>
      <dc:title>Matplotlib v3.7.1, https://matplotlib.org/</dc:title>
     </cc:Agent>
    </dc:creator>
   </cc:Work>
  </rdf:RDF>
 </metadata>
 <defs>
  <style type="text/css">*{stroke-linejoin: round; stroke-linecap: butt}</style>
 </defs>
 <g id="figure_1">
  <g id="patch_1">
   <path d="M 0 360 
L 720 360 
L 720 0 
L 0 0 
z
" style="fill: #ffffff"/>
  </g>
  <g id="axes_1">
   <g id="patch_2">
    <path d="M 90 288 
L 648 288 
L 648 43.2 
L 90 43.2 
z
" style="fill: #ffffff"/>
   </g>
   <g id="matplotlib.axis_1">
    <g id="xtick_1">
     <g id="line2d_1">
      <defs>
       <path id="m5971f21ee1" d="M 0 0 
L 0 3.5 
" style="stroke: #000000; stroke-width: 0.8"/>
      </defs>
      <g>
       <use xlink:href="#m5971f21ee1" x="143.752557" y="288" style="stroke: #000000; stroke-width: 0.8"/>
      </g>
     </g>
     <g id="text_1">
      <!-- 2023-08-15 -->
      <g transform="translate(82.109215 337.765903) rotate(-30) scale(0.12 -0.12)">
       <defs>
        <path id="DejaVuSans-32" d="M 1228 531 
L 3431 531 
L 3431 0 
L 469 0 
L 469 531 
Q 828 903 1448 1529 
Q 2069 2156 2228 2338 
Q 2531 2678 2651 2914 
Q 2772 3150 2772 3378 
Q 2772 3750 2511 3984 
Q 2250 4219 1831 4219 
Q 1534 4219 1204 4116 
Q 875 4013 500 3803 
L 500 4441 
Q 881 4594 1212 4672 
Q 1544 4750 1819 4750 
Q 2544 4750 2975 4387 
Q 3406 4025 3406 3419 
Q 3406 3131 3298 2873 
Q 3191 2616 2906 2266 
Q 2828 2175 2409 1742 
Q 1991 1309 1228 531 
z
" transform="scale(0.015625)"/>
        <path id="DejaVuSans-30" d="M 2034 4250 
Q 1547 4250 1301 3770 
Q 1056 3291 1056 2328 
Q 1056 1369 1301 889 
Q 1547 409 2034 409 
Q 2525 409 2770 889 
Q 3016 1369 3016 2328 
Q 3016 3291 2770 3770 
Q 2525 4250 2034 4250 
z
M 2034 4750 
Q 2819 4750 3233 4129 
Q 3647 3509 3647 2328 
Q 3647 1150 3233 529 
Q 2819 -91 2034 -91 
Q 1250 -91 836 529 
Q 422 1150 422 2328 
Q 422 3509 836 4129 
Q 1250 4750 2034 4750 
z
" transform="scale(0.015625)"/>
        <path id="DejaVuSans-33" d="M 2597 2516 
Q 3050 2419 3304 2112 
Q 3559 1806 3559 1356 
Q 3559 666 3084 287 
Q 2609 -91 1734 -91 
Q 1441 -91 1130 -33 
Q 819 25 488 141 
L 488 750 
Q 750 597 1062 519 
Q 1375 441 1716 441 
Q 2309 441 2620 675 
Q 2931 909 2931 1356 
Q 2931 1769 2642 2001 
Q 2353 2234 1838 2234 
L 1294 2234 
L 1294 2753 
L 1863 2753 
Q 2328 2753 2575 2939 
Q 2822 3125 2822 3475 
Q 2822 3834 2567 4026 
Q 2313 4219 1838 4219 
Q 1578 4219 1281 4162 
Q 984 4106 628 3988 
L 628 4550 
Q 988 4650 1302 4700 
Q 1616 4750 1894 4750 
Q 2613 4750 3031 4423 
Q 3450 4097 3450 3541 
Q 3450 3153 3228 2886 
Q 3006 2619 2597 2516 
z
" transform="scale(0.015625)"/>
        <path id="DejaVuSans-2d" d="M 313 2009 
L 1997 2009 
L 1997 1497 
L 313 1497 
L 313 2009 
z
" transform="scale(0.015625)"/>
        <path id="DejaVuSans-38" d="M 2034 2216 
Q 1584 2216 1326 1975 
Q 1069 1734 1069 1313 
Q 1069 891 1326 650 
Q 1584 409 2034 409 
Q 2484 409 2743 651 
Q 3003 894 3003 1313 
Q 3003 1734 2745 1975 
Q 2488 2216 2034 2216 
z
M 1403 2484 
Q 997 2584 770 2862 
Q 544 3141 544 3541 
Q 544 4100 942 4425 
Q 1341 4750 2034 4750 
Q 2731 4750 3128 4425 
Q 3525 4100 3525 3541 
Q 3525 3141 3298 2862 
Q 3072 2584 2669 2484 
Q 3125 2378 3379 2068 
Q 3634 1759 3634 1313 
Q 3634 634 3220 271 
Q 2806 -91 2034 -91 
Q 1263 -91 848 271 
Q 434 634 434 1313 
Q 434 1759 690 2068 
Q 947 2378 1403 2484 
z
M 1172 3481 
Q 1172 3119 1398 2916 
Q 1625 2713 2034 2713 
Q 2441 2713 2670 2916 
Q 2900 3119 2900 3481 
Q 2900 3844 2670 4047 
Q 2441 4250 2034 4250 
Q 1625 4250 1398 4047 
Q 1172 3844 1172 3481 
z
" transform="scale(0.015625)"/>
        <path id="DejaVuSans-31" d="M 794 531 
L 1825 531 
L 1825 4091 
L 703 3866 
L 703 4441 
L 1819 4666 
L 2450 4666 
L 2450 531 
L 3481 531 
L 3481 0 
L 794 0 
L 794 531 
z
" transform="scale(0.015625)"/>
        <path id="DejaVuSans-35" d="M 691 4666 
L 3169 4666 
L 3169 4134 
L 1269 4134 
L 1269 2991 
Q 1406 3038 1543 3061 
Q 1681 3084 1819 3084 
Q 2600 3084 3056 2656 
Q 3513 2228 3513 1497 
Q 3513 744 3044 326 
Q 2575 -91 1722 -91 
Q 1428 -91 1123 -41 
Q 819 9 494 109 
L 494 744 
Q 775 591 1075 516 
Q 1375 441 1709 441 
Q 2250 441 2565 725 
Q 2881 1009 2881 1497 
Q 2881 1984 2565 2268 
Q 2250 2553 1709 2553 
Q 1456 2553 1204 2497 
Q 953 2441 691 2322 
L 691 4666 
z
" transform="scale(0.015625)"/>
       </defs>
       <use xlink:href="#DejaVuSans-32"/>
       <use xlink:href="#DejaVuSans-30" x="63.623047"/>
       <use xlink:href="#DejaVuSans-32" x="127.246094"/>
       <use xlink:href="#DejaVuSans-33" x="190.869141"/>
       <use xlink:href="#DejaVuSans-2d" x="254.492188"/>
       <use xlink:href="#DejaVuSans-30" x="290.576172"/>
       <use xlink:href="#DejaVuSans-38" x="354.199219"/>
       <use xlink:href="#DejaVuSans-2d" x="417.822266"/>
       <use xlink:href="#DejaVuSans-31" x="453.90625"/>
       <use xlink:href="#DejaVuSans-35" x="517.529297"/>
      </g>
     </g>
    </g>
    <g id="xtick_2">
     <g id="line2d_2">
      <g>
       <use xlink:href="#m5971f21ee1" x="260.749319" y="288" style="stroke: #000000; stroke-width: 0.8"/>
      </g>
     </g>
     <g id="text_2">
      <!-- 2023-09-01 -->
      <g transform="translate(199.105977 337.765903) rotate(-30) scale(0.12 -0.12)">
       <defs>
        <path id="DejaVuSans-39" d="M 703 97 
L 703 672 
Q 941 559 1184 500 
Q 1428 441 1663 441 
Q 2288 441 2617 861 
Q 2947 1281 2994 2138 
Q 2813 1869 2534 1725 
Q 2256 1581 1919 1581 
Q 1219 1581 811 2004 
Q 403 2428 403 3163 
Q 403 3881 828 4315 
Q 1253 4750 1959 4750 
Q 2769 4750 3195 4129 
Q 3622 3509 3622 2328 
Q 3622 1225 3098 567 
Q 2575 -91 1691 -91 
Q 1453 -91 1209 -44 
Q 966 3 703 97 
z
M 1959 2075 
Q 2384 2075 2632 2365 
Q 2881 2656 2881 3163 
Q 2881 3666 2632 3958 
Q 2384 4250 1959 4250 
Q 1534 4250 1286 3958 
Q 1038 3666 1038 3163 
Q 1038 2656 1286 2365 
Q 1534 2075 1959 2075 
z
" transform="scale(0.015625)"/>
       </defs>
       <use xlink:href="#DejaVuSans-32"/>
       <use xlink:href="#DejaVuSans-30" x="63.623047"/>
       <use xlink:href="#DejaVuSans-32" x="127.246094"/>
       <use xlink:href="#DejaVuSans-33" x="190.869141"/>
       <use xlink:href="#DejaVuSans-2d" x="254.492188"/>
       <use xlink:href="#DejaVuSans-30" x="290.576172"/>
       <use xlink:href="#DejaVuSans-39" x="354.199219"/>
       <use xlink:href="#DejaVuSans-2d" x="417.822266"/>
       <use xlink:href="#DejaVuSans-30" x="453.90625"/>
       <use xlink:href="#DejaVuSans-31" x="517.529297"/>
      </g>
     </g>
    </g>
    <g id="xtick_3">
     <g id="line2d_3">
      <g>
       <use xlink:href="#m5971f21ee1" x="357.099594" y="288" style="stroke: #000000; stroke-width: 0.8"/>
      </g>
     </g>
     <g id="text_3">
      <!-- 2023-09-15 -->
      <g transform="translate(295.456252 337.765903) rotate(-30) scale(0.12 -0.12)">
       <use xlink:href="#DejaVuSans-32"/>
       <use xlink:href="#DejaVuSans-30" x="63.623047"/>
       <use xlink:href="#DejaVuSans-32" x="127.246094"/>
       <use xlink:href="#DejaVuSans-33" x="190.869141"/>
       <use xlink:href="#DejaVuSans-2d" x="254.492188"/>
       <use xlink:href="#DejaVuSans-30" x="290.576172"/>
       <use xlink:href="#DejaVuSans-39" x="354.199219"/>
       <use xlink:href="#DejaVuSans-2d" x="417.822266"/>
       <use xlink:href="#DejaVuSans-31" x="453.90625"/>
       <use xlink:href="#DejaVuSans-35" x="517.529297"/>
      </g>
     </g>
    </g>
    <g id="xtick_4">
     <g id="line2d_4">
      <g>
       <use xlink:href="#m5971f21ee1" x="467.214194" y="288" style="stroke: #000000; stroke-width: 0.8"/>
      </g>
     </g>
     <g id="text_4">
      <!-- 2023-10-01 -->
      <g transform="translate(405.570852 337.765903) rotate(-30) scale(0.12 -0.12)">
       <use xlink:href="#DejaVuSans-32"/>
       <use xlink:href="#DejaVuSans-30" x="63.623047"/>
       <use xlink:href="#DejaVuSans-32" x="127.246094"/>
       <use xlink:href="#DejaVuSans-33" x="190.869141"/>
       <use xlink:href="#DejaVuSans-2d" x="254.492188"/>
       <use xlink:href="#DejaVuSans-31" x="290.576172"/>
       <use xlink:href="#DejaVuSans-30" x="354.199219"/>
       <use xlink:href="#DejaVuSans-2d" x="417.822266"/>
       <use xlink:href="#DejaVuSans-30" x="453.90625"/>
       <use xlink:href="#DejaVuSans-31" x="517.529297"/>
      </g>
     </g>
    </g>
    <g id="xtick_5">
     <g id="line2d_5">
      <g>
       <use xlink:href="#m5971f21ee1" x="563.564469" y="288" style="stroke: #000000; stroke-width: 0.8"/>
      </g>
     </g>
     <g id="text_5">
      <!-- 2023-10-15 -->
      <g transform="translate(501.921127 337.765903) rotate(-30) scale(0.12 -0.12)">
       <use xlink:href="#DejaVuSans-32"/>
       <use xlink:href="#DejaVuSans-30" x="63.623047"/>
       <use xlink:href="#DejaVuSans-32" x="127.246094"/>
       <use xlink:href="#DejaVuSans-33" x="190.869141"/>
       <use xlink:href="#DejaVuSans-2d" x="254.492188"/>
       <use xlink:href="#DejaVuSans-31" x="290.576172"/>
       <use xlink:href="#DejaVuSans-30" x="354.199219"/>
       <use xlink:href="#DejaVuSans-2d" x="417.822266"/>
       <use xlink:href="#DejaVuSans-31" x="453.90625"/>
       <use xlink:href="#DejaVuSans-35" x="517.529297"/>
      </g>
     </g>
    </g>
   </g>
   <g id="matplotlib.axis_2">
    <g id="ytick_1">
     <g id="line2d_6">
      <defs>
       <path id="m6ac668c06e" d="M 0 0 
L -3.5 0 
" style="stroke: #000000; stroke-width: 0.8"/>
      </defs>
      <g>
       <use xlink:href="#m6ac668c06e" x="90" y="272.243031" style="stroke: #000000; stroke-width: 0.8"/>
      </g>
     </g>
     <g id="text_6">
      <!-- −4 -->
      <g transform="translate(65.309375 276.802093) scale(0.12 -0.12)">
       <defs>
        <path id="DejaVuSans-2212" d="M 678 2272 
L 4684 2272 
L 4684 1741 
L 678 1741 
L 678 2272 
z
" transform="scale(0.015625)"/>
        <path id="DejaVuSans-34" d="M 2419 4116 
L 825 1625 
L 2419 1625 
L 2419 4116 
z
M 2253 4666 
L 3047 4666 
L 3047 1625 
L 3713 1625 
L 3713 1100 
L 3047 1100 
L 3047 0 
L 2419 0 
L 2419 1100 
L 313 1100 
L 313 1709 
L 2253 4666 
z
" transform="scale(0.015625)"/>
       </defs>
       <use xlink:href="#DejaVuSans-2212"/>
       <use xlink:href="#DejaVuSans-34" x="83.789062"/>
      </g>
     </g>
    </g>
    <g id="ytick_2">
     <g id="line2d_7">
      <g>
       <use xlink:href="#m6ac668c06e" x="90" y="226.067137" style="stroke: #000000; stroke-width: 0.8"/>
      </g>
     </g>
     <g id="text_7">
      <!-- −2 -->
      <g transform="translate(65.309375 230.626199) scale(0.12 -0.12)">
       <use xlink:href="#DejaVuSans-2212"/>
       <use xlink:href="#DejaVuSans-32" x="83.789062"/>
      </g>
     </g>
    </g>
    <g id="ytick_3">
     <g id="line2d_8">
      <g>
       <use xlink:href="#m6ac668c06e" x="90" y="179.891243" style="stroke: #000000; stroke-width: 0.8"/>
      </g>
     </g>
     <g id="text_8">
      <!-- 0 -->
      <g transform="translate(75.365 184.450305) scale(0.12 -0.12)">
       <use xlink:href="#DejaVuSans-30"/>
      </g>
     </g>
    </g>
    <g id="ytick_4">
     <g id="line2d_9">
      <g>
       <use xlink:href="#m6ac668c06e" x="90" y="133.715349" style="stroke: #000000; stroke-width: 0.8"/>
      </g>
     </g>
     <g id="text_9">
      <!-- 2 -->
      <g transform="translate(75.365 138.274411) scale(0.12 -0.12)">
       <use xlink:href="#DejaVuSans-32"/>
      </g>
     </g>
    </g>
    <g id="ytick_5">
     <g id="line2d_10">
      <g>
       <use xlink:href="#m6ac668c06e" x="90" y="87.539455" style="stroke: #000000; stroke-width: 0.8"/>
      </g>
     </g>
     <g id="text_10">
      <!-- 4 -->
      <g transform="translate(75.365 92.098517) scale(0.12 -0.12)">
       <use xlink:href="#DejaVuSans-34"/>
      </g>
     </g>
    </g>
    <g id="text_11">
     <!-- Meters -->
     <g transform="translate(59.229687 182.6875) rotate(-90) scale(0.1 -0.1)">
      <defs>
       <path id="DejaVuSans-4d" d="M 628 4666 
L 1569 4666 
L 2759 1491 
L 3956 4666 
L 4897 4666 
L 4897 0 
L 4281 0 
L 4281 4097 
L 3078 897 
L 2444 897 
L 1241 4097 
L 1241 0 
L 628 0 
L 628 4666 
z
" transform="scale(0.015625)"/>
       <path id="DejaVuSans-65" d="M 3597 1894 
L 3597 1613 
L 953 1613 
Q 991 1019 1311 708 
Q 1631 397 2203 397 
Q 2534 397 2845 478 
Q 3156 559 3463 722 
L 3463 178 
Q 3153 47 2828 -22 
Q 2503 -91 2169 -91 
Q 1331 -91 842 396 
Q 353 884 353 1716 
Q 353 2575 817 3079 
Q 1281 3584 2069 3584 
Q 2775 3584 3186 3129 
Q 3597 2675 3597 1894 
z
M 3022 2063 
Q 3016 2534 2758 2815 
Q 2500 3097 2075 3097 
Q 1594 3097 1305 2825 
Q 1016 2553 972 2059 
L 3022 2063 
z
" transform="scale(0.015625)"/>
       <path id="DejaVuSans-74" d="M 1172 4494 
L 1172 3500 
L 2356 3500 
L 2356 3053 
L 1172 3053 
L 1172 1153 
Q 1172 725 1289 603 
Q 1406 481 1766 481 
L 2356 481 
L 2356 0 
L 1766 0 
Q 1100 0 847 248 
Q 594 497 594 1153 
L 594 3053 
L 172 3053 
L 172 3500 
L 594 3500 
L 594 4494 
L 1172 4494 
z
" transform="scale(0.015625)"/>
       <path id="DejaVuSans-72" d="M 2631 2963 
Q 2534 3019 2420 3045 
Q 2306 3072 2169 3072 
Q 1681 3072 1420 2755 
Q 1159 2438 1159 1844 
L 1159 0 
L 581 0 
L 581 3500 
L 1159 3500 
L 1159 2956 
Q 1341 3275 1631 3429 
Q 1922 3584 2338 3584 
Q 2397 3584 2469 3576 
Q 2541 3569 2628 3553 
L 2631 2963 
z
" transform="scale(0.015625)"/>
       <path id="DejaVuSans-73" d="M 2834 3397 
L 2834 2853 
Q 2591 2978 2328 3040 
Q 2066 3103 1784 3103 
Q 1356 3103 1142 2972 
Q 928 2841 928 2578 
Q 928 2378 1081 2264 
Q 1234 2150 1697 2047 
L 1894 2003 
Q 2506 1872 2764 1633 
Q 3022 1394 3022 966 
Q 3022 478 2636 193 
Q 2250 -91 1575 -91 
Q 1294 -91 989 -36 
Q 684 19 347 128 
L 347 722 
Q 666 556 975 473 
Q 1284 391 1588 391 
Q 1994 391 2212 530 
Q 2431 669 2431 922 
Q 2431 1156 2273 1281 
Q 2116 1406 1581 1522 
L 1381 1569 
Q 847 1681 609 1914 
Q 372 2147 372 2553 
Q 372 3047 722 3315 
Q 1072 3584 1716 3584 
Q 2034 3584 2315 3537 
Q 2597 3491 2834 3397 
z
" transform="scale(0.015625)"/>
      </defs>
      <use xlink:href="#DejaVuSans-4d"/>
      <use xlink:href="#DejaVuSans-65" x="86.279297"/>
      <use xlink:href="#DejaVuSans-74" x="147.802734"/>
      <use xlink:href="#DejaVuSans-65" x="187.011719"/>
      <use xlink:href="#DejaVuSans-72" x="248.535156"/>
      <use xlink:href="#DejaVuSans-73" x="289.648438"/>
     </g>
    </g>
   </g>
   <g id="line2d_11">
    <path d="M 115.363636 184.775402 
L 115.93715 185.675601 
L 119.091474 60.109323 
L 121.959042 169.633586 
L 127.980934 60.109323 
L 133.142556 60.109323 
L 134.002826 249.58976 
L 134.863097 218.775241 
L 143.179043 164.186225 
L 144.612827 173.880681 
L 145.186341 213.166307 
L 145.473097 191.053716 
L 145.759854 141.358091 
L 146.046611 199.9403 
L 146.620124 210.973513 
L 147.193638 158.415716 
L 150.061206 169.195027 
L 161.818233 60.109323 
L 162.10499 201.140566 
L 162.391747 170.510703 
L 183.038234 146.943944 
L 190.49391 261.144628 
L 190.780667 263.412053 
L 191.354181 263.777519 
L 191.927694 263.504381 
L 192.214451 263.123528 
L 192.501208 262.550324 
L 206.265533 196.88193 
L 206.552289 199.963382 
L 206.839046 178.52017 
L 207.125803 201.763781 
L 208.27283 251.159339 
L 209.993371 194.677595 
L 210.566884 205.733891 
L 210.853641 221.868234 
L 212.574182 215.336018 
L 213.434452 271.725433 
L 213.721209 221.82207 
L 214.007965 116.706476 
L 214.868236 227.315595 
L 215.154993 60.109323 
L 215.441749 60.109323 
L 216.015263 246.473685 
L 216.875533 215.982315 
L 217.16229 186.22957 
L 218.309317 137.284112 
L 218.596074 227.280972 
L 222.323912 60.109323 
L 223.184182 156.199841 
L 223.470939 60.109323 
L 227.485534 132.102195 
L 248.132021 276.872727 
L 248.418778 176.373541 
L 262.756616 164.774817 
L 263.043373 164.907539 
L 264.1904 164.890227 
L 268.491752 165.536524 
L 268.778509 165.49036 
L 269.638779 165.67117 
L 270.785806 165.740416 
L 271.35932 165.986624 
L 271.932833 166.078952 
L 278.528239 166.771413 
L 278.814996 166.863741 
L 280.822293 167.040704 
L 281.10905 167.194584 
L 281.682563 166.944529 
L 281.96932 167.083021 
L 282.256077 167.090715 
L 282.542834 166.940682 
L 283.976618 167.233054 
L 284.836888 167.248442 
L 285.410401 167.229207 
L 285.983915 167.475415 
L 286.270672 149.706094 
L 286.557428 167.502345 
L 287.417699 167.948597 
L 287.704456 167.921668 
L 287.991212 168.079395 
L 289.138239 167.721624 
L 290.285266 167.648531 
L 291.145537 167.710083 
L 292.292564 167.7524 
L 293.152834 167.994761 
L 293.439591 168.133254 
L 293.726348 149.155973 
L 294.013104 168.314063 
L 294.586618 168.421779 
L 294.873375 168.460249 
L 295.446888 168.148642 
L 298.314456 168.321757 
L 299.174726 168.51026 
L 299.461483 168.533342 
L 299.74824 168.675681 
L 300.034997 168.47179 
L 300.60851 168.679528 
L 301.182024 168.898808 
L 301.755537 168.979595 
L 302.042294 168.791092 
L 302.329051 168.933431 
L 302.615808 168.575659 
L 303.189321 168.525648 
L 304.336348 168.667987 
L 304.909862 168.70261 
L 305.483375 168.775704 
L 305.770132 168.460249 
L 306.343646 168.841103 
L 306.917159 168.825715 
L 308.064186 168.979595 
L 308.350943 150.802491 
L 308.6377 169.018065 
L 309.49797 168.825715 
L 310.071484 168.829562 
L 310.931754 168.771857 
L 311.218511 168.914196 
L 311.792024 168.925737 
L 312.078781 168.944972 
L 312.365538 168.841103 
L 312.652295 168.894961 
L 312.939051 169.102699 
L 313.225808 168.991136 
L 313.512565 158.129499 
L 314.086078 60.109323 
L 315.806619 168.877649 
L 316.666889 168.914196 
L 316.953646 168.975748 
L 317.240403 168.88342 
L 317.813916 168.933431 
L 318.674187 168.852644 
L 319.534457 169.018065 
L 319.821214 168.937278 
L 320.107971 169.0046 
L 322.688782 114.59447 
L 322.975538 177.50456 
L 323.262295 169.056535 
L 323.549052 169.002677 
L 324.122565 169.121934 
L 324.409322 169.044994 
L 324.982836 169.206568 
L 325.556349 169.098852 
L 325.843106 169.202721 
L 326.129863 169.183486 
L 326.41662 168.906502 
L 326.990133 169.252732 
L 329.570944 142.033241 
L 329.857701 169.341213 
L 330.717971 169.302743 
L 331.864998 169.41046 
L 332.725269 169.479706 
L 333.298782 169.441236 
L 333.585539 169.433542 
L 333.872296 169.614351 
L 334.159052 169.624353 
L 334.445809 114.906077 
L 334.732566 169.648974 
L 335.879593 169.452777 
L 336.453107 169.44893 
L 340.467701 169.633586 
L 340.754458 169.729761 
L 341.041215 133.07164 
L 343.622026 169.464318 
L 344.195539 169.422001 
L 344.769053 169.456624 
L 345.05581 169.375836 
L 345.629323 169.425848 
L 346.202837 169.402766 
L 347.063107 169.514329 
L 347.349864 169.702832 
L 352.224729 169.44893 
L 353.658513 169.648974 
L 354.232026 169.295049 
L 357.386351 169.790544 
L 358.246621 169.618198 
L 360.827432 169.722067 
L 361.114189 169.656668 
L 363.695 170.302965 
L 363.981757 170.09138 
L 365.702297 169.925958 
L 368.569865 170.122156 
L 370.577162 170.352976 
L 371.150676 170.214484 
L 372.010946 170.145238 
L 374.591757 170.195249 
L 375.452027 170.433763 
L 376.025541 170.529938 
L 376.312298 170.499162 
L 376.885811 170.663045 
L 377.459325 170.633807 
L 378.032838 170.43761 
L 378.319595 170.306812 
L 378.606352 170.522244 
L 379.179865 170.352976 
L 379.753379 170.59149 
L 380.326892 170.487621 
L 380.613649 170.706901 
L 380.900406 170.606878 
L 381.187163 170.69536 
L 382.33419 170.656889 
L 383.481217 170.885786 
L 384.341487 170.838468 
L 386.635541 170.653042 
L 387.209055 170.833852 
L 387.495812 170.69536 
L 387.782568 170.806923 
L 388.642839 170.641501 
L 389.216352 170.922333 
L 389.503109 151.8835 
L 389.789866 171.106989 
L 390.363379 171.139689 
L 390.650136 171.264716 
L 392.08392 170.883863 
L 392.94419 170.891557 
L 396.385272 170.814617 
L 396.672028 152.606737 
L 396.958785 152.656748 
L 397.245542 171.214705 
L 397.819055 171.137765 
L 398.105812 171.160847 
L 398.679326 170.968497 
L 400.686623 170.872322 
L 401.546893 170.987732 
L 402.120407 170.779994 
L 402.980677 171.00312 
L 403.267434 170.995426 
L 404.414461 143.533573 
L 404.701218 171.499384 
L 404.987975 171.424752 
L 405.274731 171.149306 
L 405.848245 171.068519 
L 406.995272 171.091601 
L 407.855542 171.149306 
L 408.715813 171.11853 
L 409.289326 170.910792 
L 409.576083 171.091601 
L 409.86284 171.083907 
L 410.149597 171.203164 
L 410.436353 152.860639 
L 410.72311 171.507847 
L 412.443651 171.060825 
L 413.877435 171.176235 
L 414.450948 171.303187 
L 415.597975 171.257022 
L 416.171489 171.114683 
L 417.031759 171.587865 
L 417.605273 171.83792 
L 418.465543 171.834073 
L 419.325813 171.445526 
L 420.759597 171.518619 
L 423.340408 171.514772 
L 423.913922 171.657111 
L 424.200678 171.949484 
L 424.774192 172.041812 
L 426.207976 171.576324 
L 426.781489 171.557089 
L 428.788787 171.557089 
L 429.3623 171.49169 
L 430.222571 171.699428 
L 431.082841 172.061816 
L 431.943111 171.753286 
L 432.229868 171.510925 
L 433.663652 171.572477 
L 434.523922 171.564783 
L 435.097436 171.614794 
L 435.670949 171.572477 
L 436.531219 171.553242 
L 437.39149 171.94179 
L 437.678247 171.787909 
L 437.965003 171.849461 
L 438.25176 171.741745 
L 439.11203 171.780215 
L 439.398787 171.668652 
L 445.707436 171.818685 
L 446.28095 171.714816 
L 446.854463 171.664805 
L 447.14122 171.810991 
L 448.288247 171.230093 
L 449.148517 171.287798 
L 450.295544 171.357045 
L 450.869058 171.445526 
L 451.442572 171.549395 
L 451.729328 171.641723 
L 453.736626 171.29934 
L 456.89095 171.245481 
L 457.751221 171.449373 
L 458.037977 162.23964 
L 458.324734 171.603253 
L 458.611491 126.987215 
L 458.898248 171.4663 
L 459.185004 171.461683 
L 459.758518 171.27241 
L 460.332031 171.19547 
L 460.618788 152.699065 
L 460.905545 171.164694 
L 461.765815 171.283951 
L 462.626086 171.287798 
L 462.912842 171.387821 
L 463.773113 171.364739 
L 464.059869 171.110836 
L 464.346626 171.076213 
L 464.633383 171.183929 
L 464.92014 134.2796 
L 466.927437 134.410398 
L 467.214194 171.49169 
L 467.787707 171.383974 
L 469.221491 171.310881 
L 470.081762 171.372433 
L 471.515546 171.433985 
L 471.802302 156.361415 
L 473.8096 171.728281 
L 474.66987 171.476302 
L 475.816897 171.503231 
L 476.390411 171.441679 
L 476.677167 171.541701 
L 478.110951 171.318575 
L 478.684465 171.549395 
L 480.405005 172.0572 
L 480.978519 171.822532 
L 481.265276 171.595559 
L 482.69906 171.637876 
L 483.272573 171.664805 
L 484.132843 171.772521 
L 484.4196 171.664805 
L 484.706357 171.437832 
L 484.993114 171.37628 
L 485.27987 171.45322 
L 485.566627 149.279846 
L 485.853384 171.641723 
L 486.426898 60.109323 
L 486.713654 54.327273 
L 487.000411 172.164916 
L 488.720952 171.41475 
L 489.294465 171.595559 
L 489.581222 171.441679 
L 490.441492 171.564783 
L 491.588519 171.433985 
L 492.162033 171.691734 
L 493.30906 172.13414 
L 493.595817 172.034118 
L 494.16933 172.180304 
L 494.456087 172.130293 
L 495.029601 171.822532 
L 496.463385 171.94179 
L 497.610412 171.999495 
L 497.897168 172.330337 
L 498.757439 171.87639 
L 500.191223 171.810991 
L 500.477979 171.834073 
L 501.33825 171.545548 
L 503.05879 171.64557 
L 505.926358 172.026424 
L 506.213115 172.145681 
L 506.499872 171.98026 
L 507.073385 172.122599 
L 507.646899 171.98026 
L 507.933655 171.822532 
L 508.507169 171.972566 
L 508.793926 171.668652 
L 509.080682 171.572477 
L 509.940953 171.676346 
L 510.22771 171.587865 
L 510.801223 171.630182 
L 511.661493 171.584018 
L 511.94825 171.503231 
L 512.521764 171.734051 
L 512.80852 171.834073 
L 514.242304 171.718663 
L 514.529061 171.791756 
L 515.102575 171.603253 
L 526.286089 171.287798 
L 526.859602 171.49169 
L 527.433116 171.526313 
L 528.006629 171.714816 
L 528.293386 171.433985 
L 528.8669 171.383974 
L 529.440413 171.130071 
L 529.72717 171.187776 
L 530.013927 171.360892 
L 530.58744 171.141612 
L 532.021224 171.083907 
L 534.315278 171.472455 
L 535.175549 171.187776 
L 535.462305 171.303187 
L 535.749062 171.141612 
L 538.903387 171.083907 
L 539.763657 171.08006 
L 541.197441 171.383974 
L 542.057711 171.249328 
L 542.631225 171.264716 
L 544.065008 171.145459 
L 544.638522 171.249328 
L 545.212036 171.241634 
L 546.359063 171.160847 
L 546.645819 152.48748 
L 546.932576 171.130071 
L 547.50609 171.370509 
L 549.22663 171.641723 
L 549.513387 171.380127 
L 550.373657 171.257022 
L 550.947171 171.253175 
L 551.807441 171.23394 
L 552.954468 171.330116 
L 553.814739 171.303187 
L 555.535279 171.268563 
L 556.39555 171.27241 
L 556.682306 171.345504 
L 557.542577 171.083907 
L 558.11609 171.018508 
L 558.402847 171.114683 
L 561.270415 170.852317 
L 561.557171 144.895413 
L 562.990955 170.726136 
L 563.851226 170.683819 
L 564.424739 170.38606 
L 564.711496 170.522244 
L 565.28501 170.572255 
L 565.571766 170.691513 
L 567.00555 170.441457 
L 567.292307 170.549173 
L 567.579064 161.431769 
L 567.86582 170.618419 
L 568.152577 170.641501 
L 568.439334 162.43199 
L 569.873118 215.001329 
L 570.159875 170.314506 
L 571.880415 170.237566 
L 572.453929 170.279883 
L 572.740686 170.191402 
L 573.887713 170.356823 
L 574.461226 170.390677 
L 574.747983 170.433763 
L 577.615551 170.318353 
L 578.189064 170.233719 
L 581.343389 170.037522 
L 581.630145 148.014951 
L 581.916902 169.956734 
L 585.071227 169.956734 
L 585.357983 170.006745 
L 585.931497 169.852865 
L 586.505011 169.837477 
L 586.791767 169.929805 
L 587.938794 169.787466 
L 588.225551 169.849018 
L 595.107714 170.113692 
L 595.39447 151.868112 
L 595.681227 170.238335 
L 596.828254 170.187555 
L 597.401768 133.402483 
L 597.688525 170.095227 
L 600.842849 169.305821 
L 601.989876 169.050764 
L 602.276633 168.88342 
L 608.298525 167.745475 
L 608.585282 60.109323 
L 608.872039 168.052466 
L 609.158795 167.913974 
L 614.033661 168.187112 
L 614.607174 168.306369 
L 614.893931 168.225582 
L 615.754201 168.444861 
L 616.040958 168.248664 
L 622.06285 168.302522 
L 622.636364 168.125559 
L 622.636364 168.125559 
" clip-path="url(#p7c280c6bb0)" style="fill: none; stroke: #1f77b4; stroke-width: 1.5; stroke-linecap: square"/>
   </g>
   <g id="line2d_12">
    <path d="M 115.363636 159.878574 
L 115.93715 159.973325 
L 119.091474 159.058716 
L 121.959042 159.877398 
L 128.267691 158.082884 
L 130.274988 158.010914 
L 133.142556 60.16221 
L 134.863097 60.268711 
L 143.179043 249.467814 
L 144.612827 249.58976 
L 146.046611 249.103789 
L 150.061206 247.386855 
L 162.10499 248.919659 
L 162.391747 248.856381 
L 183.038234 250.090733 
L 192.501208 250.997504 
L 206.265533 260.544697 
L 207.125803 260.330258 
L 208.27283 259.875088 
L 210.853641 258.548716 
L 214.007965 256.58312 
L 216.015263 255.757472 
L 218.309317 255.201928 
L 218.596074 255.155259 
L 223.470939 253.267004 
L 227.485534 252.948183 
L 248.132021 176.31821 
L 248.418778 176.267347 
L 263.33013 176.214122 
L 270.212293 177.355447 
L 276.234185 178.26251 
L 281.96932 178.919555 
L 283.403104 179.05169 
L 283.689861 167.090715 
L 288.851483 167.516832 
L 289.138239 167.744706 
L 294.299861 168.037176 
L 295.733645 167.960367 
L 300.895267 167.841198 
L 302.902564 167.721418 
L 305.770132 167.392792 
L 308.6377 167.32881 
L 314.086078 167.442979 
L 336.453107 168.021081 
L 340.180945 169.375067 
L 341.041215 169.003422 
L 345.629323 167.219074 
L 347.349864 166.720276 
L 350.504188 168.968165 
L 353.084999 168.558618 
L 353.371756 169.573573 
L 354.232026 169.450536 
L 358.820135 169.078896 
L 359.967162 169.099787 
L 360.253918 169.813626 
L 366.849324 170.963313 
L 367.136081 169.933652 
L 370.577162 170.292635 
L 373.731487 170.405196 
L 374.018243 170.192171 
L 375.452027 169.801837 
L 377.746082 169.143698 
L 380.040136 168.760221 
L 380.613649 168.659074 
L 380.900406 170.469156 
L 384.915001 170.142084 
L 387.495812 170.177989 
L 387.782568 170.843085 
L 394.377974 171.128175 
L 394.664731 170.778455 
L 401.260137 171.269432 
L 401.546893 170.930796 
L 407.282029 170.895837 
L 414.164191 170.559944 
L 415.311218 170.449227 
L 415.597975 171.326269 
L 425.921219 171.664448 
L 428.788787 171.724423 
L 429.075543 171.510925 
L 436.531219 171.552017 
L 438.25176 171.434686 
L 443.986896 171.218855 
L 444.273652 171.803297 
L 445.707436 171.608648 
L 445.994193 171.795603 
L 449.148517 170.878704 
L 449.435274 170.831694 
L 449.722031 171.303187 
L 451.729328 171.140547 
L 455.17041 171.119734 
L 464.059869 171.370587 
L 468.361221 171.670846 
L 470.081762 171.82121 
L 470.368518 171.318575 
L 476.963924 171.899122 
L 477.250681 171.503231 
L 481.552032 171.865794 
L 483.846087 171.917385 
L 484.132843 171.687887 
L 487.573925 171.549578 
L 491.015006 171.271911 
L 491.301763 171.557089 
L 497.897168 171.664372 
L 498.183925 171.995648 
L 499.904466 171.303004 
L 500.764736 170.877252 
L 504.492574 168.757283 
L 504.779331 171.757133 
L 506.499872 170.771596 
L 507.360142 170.025354 
L 510.22771 167.113722 
L 511.08798 166.578897 
L 511.374737 166.445413 
L 511.661493 171.657111 
L 513.095277 170.932356 
L 514.529061 170.464254 
L 515.102575 170.341374 
L 523.705278 174.672864 
L 526.572845 177.825573 
L 532.021224 183.896755 
L 532.307981 171.110836 
L 534.888792 173.326238 
L 537.469603 175.274418 
L 538.903387 176.176796 
L 539.190143 171.103142 
L 540.910684 171.655443 
L 545.212036 172.716567 
L 545.785549 172.856904 
L 546.072306 171.203164 
L 552.667712 172.644083 
L 552.954468 171.280104 
L 557.542577 171.824385 
L 558.689604 171.726857 
L 559.836631 171.613256 
L 560.123388 170.941568 
L 561.557171 170.627987 
L 563.564469 170.214883 
L 564.998253 169.624303 
L 566.432037 168.914581 
L 566.718793 170.418375 
L 568.152577 169.854387 
L 568.439334 169.767326 
L 570.733388 169.358629 
L 573.314199 169.174259 
L 573.600956 170.333741 
L 574.747983 170.138079 
L 578.475821 169.841712 
L 580.196362 169.935182 
L 580.483118 170.172167 
L 581.916902 170.341557 
L 587.078524 171.176931 
L 587.365281 169.933652 
L 588.225551 170.078544 
L 592.526903 170.532024 
L 593.100416 170.391615 
L 593.960687 170.369306 
L 594.247443 170.010592 
L 596.828254 170.151164 
L 600.842849 170.096331 
L 601.129606 169.356601 
L 607.438255 168.870847 
L 607.725012 168.844289 
L 608.011768 167.910127 
L 609.158795 167.761177 
L 614.607174 166.851497 
L 614.893931 168.256358 
L 618.908526 167.896282 
L 621.489337 167.862008 
L 621.776093 168.402544 
L 622.636364 168.441564 
L 622.636364 168.441564 
" clip-path="url(#p7c280c6bb0)" style="fill: none; stroke: #ff7f0e; stroke-width: 1.5; stroke-linecap: square"/>
   </g>
   <g id="patch_3">
    <path d="M 90 288 
L 90 43.2 
" style="fill: none; stroke: #000000; stroke-width: 0.8; stroke-linejoin: miter; stroke-linecap: square"/>
   </g>
   <g id="patch_4">
    <path d="M 648 288 
L 648 43.2 
" style="fill: none; stroke: #000000; stroke-width: 0.8; stroke-linejoin: miter; stroke-linecap: square"/>
   </g>
   <g id="patch_5">
    <path d="M 90 288 
L 648 288 
" style="fill: none; stroke: #000000; stroke-width: 0.8; stroke-linejoin: miter; stroke-linecap: square"/>
   </g>
   <g id="patch_6">
    <path d="M 90 43.2 
L 648 43.2 
" style="fill: none; stroke: #000000; stroke-width: 0.8; stroke-linejoin: miter; stroke-linecap: square"/>
   </g>
   <g id="text_12">
    <!-- MDOT9178 -->
    <g transform="translate(335.545313 37.2) scale(0.12 -0.12)">
     <defs>
      <path id="DejaVuSans-44" d="M 1259 4147 
L 1259 519 
L 2022 519 
Q 2988 519 3436 956 
Q 3884 1394 3884 2338 
Q 3884 3275 3436 3711 
Q 2988 4147 2022 4147 
L 1259 4147 
z
M 628 4666 
L 1925 4666 
Q 3281 4666 3915 4102 
Q 4550 3538 4550 2338 
Q 4550 1131 3912 565 
Q 3275 0 1925 0 
L 628 0 
L 628 4666 
z
" transform="scale(0.015625)"/>
      <path id="DejaVuSans-4f" d="M 2522 4238 
Q 1834 4238 1429 3725 
Q 1025 3213 1025 2328 
Q 1025 1447 1429 934 
Q 1834 422 2522 422 
Q 3209 422 3611 934 
Q 4013 1447 4013 2328 
Q 4013 3213 3611 3725 
Q 3209 4238 2522 4238 
z
M 2522 4750 
Q 3503 4750 4090 4092 
Q 4678 3434 4678 2328 
Q 4678 1225 4090 567 
Q 3503 -91 2522 -91 
Q 1538 -91 948 565 
Q 359 1222 359 2328 
Q 359 3434 948 4092 
Q 1538 4750 2522 4750 
z
" transform="scale(0.015625)"/>
      <path id="DejaVuSans-54" d="M -19 4666 
L 3928 4666 
L 3928 4134 
L 2272 4134 
L 2272 0 
L 1638 0 
L 1638 4134 
L -19 4134 
L -19 4666 
z
" transform="scale(0.015625)"/>
      <path id="DejaVuSans-37" d="M 525 4666 
L 3525 4666 
L 3525 4397 
L 1831 0 
L 1172 0 
L 2766 4134 
L 525 4134 
L 525 4666 
z
" transform="scale(0.015625)"/>
     </defs>
     <use xlink:href="#DejaVuSans-4d"/>
     <use xlink:href="#DejaVuSans-44" x="86.279297"/>
     <use xlink:href="#DejaVuSans-4f" x="163.28125"/>
     <use xlink:href="#DejaVuSans-54" x="241.992188"/>
     <use xlink:href="#DejaVuSans-39" x="303.076172"/>
     <use xlink:href="#DejaVuSans-31" x="366.699219"/>
     <use xlink:href="#DejaVuSans-37" x="430.322266"/>
     <use xlink:href="#DejaVuSans-38" x="493.945312"/>
    </g>
   </g>
   <g id="legend_1">
    <g id="patch_7">
     <path d="M 97 283 
L 178.95625 283 
Q 180.95625 283 180.95625 281 
L 180.95625 252.64375 
Q 180.95625 250.64375 178.95625 250.64375 
L 97 250.64375 
Q 95 250.64375 95 252.64375 
L 95 281 
Q 95 283 97 283 
z
" style="fill: #ffffff; opacity: 0.8; stroke: #cccccc; stroke-linejoin: miter"/>
    </g>
    <g id="line2d_13">
     <path d="M 99 258.742188 
L 109 258.742188 
L 119 258.742188 
" style="fill: none; stroke: #1f77b4; stroke-width: 1.5; stroke-linecap: square"/>
    </g>
    <g id="text_13">
     <!-- measured -->
     <g transform="translate(127 262.242188) scale(0.1 -0.1)">
      <defs>
       <path id="DejaVuSans-6d" d="M 3328 2828 
Q 3544 3216 3844 3400 
Q 4144 3584 4550 3584 
Q 5097 3584 5394 3201 
Q 5691 2819 5691 2113 
L 5691 0 
L 5113 0 
L 5113 2094 
Q 5113 2597 4934 2840 
Q 4756 3084 4391 3084 
Q 3944 3084 3684 2787 
Q 3425 2491 3425 1978 
L 3425 0 
L 2847 0 
L 2847 2094 
Q 2847 2600 2669 2842 
Q 2491 3084 2119 3084 
Q 1678 3084 1418 2786 
Q 1159 2488 1159 1978 
L 1159 0 
L 581 0 
L 581 3500 
L 1159 3500 
L 1159 2956 
Q 1356 3278 1631 3431 
Q 1906 3584 2284 3584 
Q 2666 3584 2933 3390 
Q 3200 3197 3328 2828 
z
" transform="scale(0.015625)"/>
       <path id="DejaVuSans-61" d="M 2194 1759 
Q 1497 1759 1228 1600 
Q 959 1441 959 1056 
Q 959 750 1161 570 
Q 1363 391 1709 391 
Q 2188 391 2477 730 
Q 2766 1069 2766 1631 
L 2766 1759 
L 2194 1759 
z
M 3341 1997 
L 3341 0 
L 2766 0 
L 2766 531 
Q 2569 213 2275 61 
Q 1981 -91 1556 -91 
Q 1019 -91 701 211 
Q 384 513 384 1019 
Q 384 1609 779 1909 
Q 1175 2209 1959 2209 
L 2766 2209 
L 2766 2266 
Q 2766 2663 2505 2880 
Q 2244 3097 1772 3097 
Q 1472 3097 1187 3025 
Q 903 2953 641 2809 
L 641 3341 
Q 956 3463 1253 3523 
Q 1550 3584 1831 3584 
Q 2591 3584 2966 3190 
Q 3341 2797 3341 1997 
z
" transform="scale(0.015625)"/>
       <path id="DejaVuSans-75" d="M 544 1381 
L 544 3500 
L 1119 3500 
L 1119 1403 
Q 1119 906 1312 657 
Q 1506 409 1894 409 
Q 2359 409 2629 706 
Q 2900 1003 2900 1516 
L 2900 3500 
L 3475 3500 
L 3475 0 
L 2900 0 
L 2900 538 
Q 2691 219 2414 64 
Q 2138 -91 1772 -91 
Q 1169 -91 856 284 
Q 544 659 544 1381 
z
M 1991 3584 
L 1991 3584 
z
" transform="scale(0.015625)"/>
       <path id="DejaVuSans-64" d="M 2906 2969 
L 2906 4863 
L 3481 4863 
L 3481 0 
L 2906 0 
L 2906 525 
Q 2725 213 2448 61 
Q 2172 -91 1784 -91 
Q 1150 -91 751 415 
Q 353 922 353 1747 
Q 353 2572 751 3078 
Q 1150 3584 1784 3584 
Q 2172 3584 2448 3432 
Q 2725 3281 2906 2969 
z
M 947 1747 
Q 947 1113 1208 752 
Q 1469 391 1925 391 
Q 2381 391 2643 752 
Q 2906 1113 2906 1747 
Q 2906 2381 2643 2742 
Q 2381 3103 1925 3103 
Q 1469 3103 1208 2742 
Q 947 2381 947 1747 
z
" transform="scale(0.015625)"/>
      </defs>
      <use xlink:href="#DejaVuSans-6d"/>
      <use xlink:href="#DejaVuSans-65" x="97.412109"/>
      <use xlink:href="#DejaVuSans-61" x="158.935547"/>
      <use xlink:href="#DejaVuSans-73" x="220.214844"/>
      <use xlink:href="#DejaVuSans-75" x="272.314453"/>
      <use xlink:href="#DejaVuSans-72" x="335.693359"/>
      <use xlink:href="#DejaVuSans-65" x="374.556641"/>
      <use xlink:href="#DejaVuSans-64" x="436.080078"/>
     </g>
    </g>
    <g id="line2d_14">
     <path d="M 99 273.420312 
L 109 273.420312 
L 119 273.420312 
" style="fill: none; stroke: #ff7f0e; stroke-width: 1.5; stroke-linecap: square"/>
    </g>
    <g id="text_14">
     <!-- predicted -->
     <g transform="translate(127 276.920312) scale(0.1 -0.1)">
      <defs>
       <path id="DejaVuSans-70" d="M 1159 525 
L 1159 -1331 
L 581 -1331 
L 581 3500 
L 1159 3500 
L 1159 2969 
Q 1341 3281 1617 3432 
Q 1894 3584 2278 3584 
Q 2916 3584 3314 3078 
Q 3713 2572 3713 1747 
Q 3713 922 3314 415 
Q 2916 -91 2278 -91 
Q 1894 -91 1617 61 
Q 1341 213 1159 525 
z
M 3116 1747 
Q 3116 2381 2855 2742 
Q 2594 3103 2138 3103 
Q 1681 3103 1420 2742 
Q 1159 2381 1159 1747 
Q 1159 1113 1420 752 
Q 1681 391 2138 391 
Q 2594 391 2855 752 
Q 3116 1113 3116 1747 
z
" transform="scale(0.015625)"/>
       <path id="DejaVuSans-69" d="M 603 3500 
L 1178 3500 
L 1178 0 
L 603 0 
L 603 3500 
z
M 603 4863 
L 1178 4863 
L 1178 4134 
L 603 4134 
L 603 4863 
z
" transform="scale(0.015625)"/>
       <path id="DejaVuSans-63" d="M 3122 3366 
L 3122 2828 
Q 2878 2963 2633 3030 
Q 2388 3097 2138 3097 
Q 1578 3097 1268 2742 
Q 959 2388 959 1747 
Q 959 1106 1268 751 
Q 1578 397 2138 397 
Q 2388 397 2633 464 
Q 2878 531 3122 666 
L 3122 134 
Q 2881 22 2623 -34 
Q 2366 -91 2075 -91 
Q 1284 -91 818 406 
Q 353 903 353 1747 
Q 353 2603 823 3093 
Q 1294 3584 2113 3584 
Q 2378 3584 2631 3529 
Q 2884 3475 3122 3366 
z
" transform="scale(0.015625)"/>
      </defs>
      <use xlink:href="#DejaVuSans-70"/>
      <use xlink:href="#DejaVuSans-72" x="63.476562"/>
      <use xlink:href="#DejaVuSans-65" x="102.339844"/>
      <use xlink:href="#DejaVuSans-64" x="163.863281"/>
      <use xlink:href="#DejaVuSans-69" x="227.339844"/>
      <use xlink:href="#DejaVuSans-63" x="255.123047"/>
      <use xlink:href="#DejaVuSans-74" x="310.103516"/>
      <use xlink:href="#DejaVuSans-65" x="349.3125"/>
      <use xlink:href="#DejaVuSans-64" x="410.835938"/>
     </g>
    </g>
   </g>
  </g>
 </g>
 <defs>
  <clipPath id="p7c280c6bb0">
   <rect x="90" y="43.2" width="558" height="244.8"/>
  </clipPath>
 </defs>
</svg>
