<?xml version="1.0" encoding="utf-8" standalone="no"?>
<!DOCTYPE svg PUBLIC "-//W3C//DTD SVG 1.1//EN"
  "http://www.w3.org/Graphics/SVG/1.1/DTD/svg11.dtd">
<svg xmlns:xlink="http://www.w3.org/1999/xlink" width="713.0225pt" height="351.43625pt" viewBox="0 0 713.0225 351.43625" xmlns="http://www.w3.org/2000/svg" version="1.1">
 <metadata>
  <rdf:RDF xmlns:dc="http://purl.org/dc/elements/1.1/" xmlns:cc="http://creativecommons.org/ns#" xmlns:rdf="http://www.w3.org/1999/02/22-rdf-syntax-ns#">
   <cc:Work>
    <dc:type rdf:resource="http://purl.org/dc/dcmitype/StillImage"/>
    <dc:date>2024-05-11T20:30:35.023357</dc:date>
    <dc:format>image/svg+xml</dc:format>
    <dc:creator>
     <cc:Agent>
      <dc:title>Matplotlib v3.8.4, https://matplotlib.org/</dc:title>
     </cc:Agent>
    </dc:creator>
   </cc:Work>
  </rdf:RDF>
 </metadata>
 <defs>
  <style type="text/css">*{stroke-linejoin: round; stroke-linecap: butt}</style>
 </defs>
 <g id="figure_1">
  <g id="patch_1">
   <path d="M 0 351.43625 
L 713.0225 351.43625 
L 713.0225 0 
L 0 0 
z
" style="fill: #ffffff"/>
  </g>
  <g id="axes_1">
   <g id="patch_2">
    <path d="M 46.0125 327.558125 
L 705.8225 327.558125 
L 705.8225 22.318125 
L 46.0125 22.318125 
z
" style="fill: #ffffff"/>
   </g>
   <g id="matplotlib.axis_1">
    <g id="xtick_1">
     <g id="line2d_1">
      <defs>
       <path id="m7efd24960d" d="M 0 0 
L 0 3.5 
" style="stroke: #000000; stroke-width: 0.8"/>
      </defs>
      <g>
       <use xlink:href="#m7efd24960d" x="107.328835" y="327.558125" style="stroke: #000000; stroke-width: 0.8"/>
      </g>
     </g>
     <g id="text_1">
      <!-- 2010 -->
      <g transform="translate(94.603835 342.156563) scale(0.1 -0.1)">
       <defs>
        <path id="DejaVuSans-32" d="M 1228 531 
L 3431 531 
L 3431 0 
L 469 0 
L 469 531 
Q 828 903 1448 1529 
Q 2069 2156 2228 2338 
Q 2531 2678 2651 2914 
Q 2772 3150 2772 3378 
Q 2772 3750 2511 3984 
Q 2250 4219 1831 4219 
Q 1534 4219 1204 4116 
Q 875 4013 500 3803 
L 500 4441 
Q 881 4594 1212 4672 
Q 1544 4750 1819 4750 
Q 2544 4750 2975 4387 
Q 3406 4025 3406 3419 
Q 3406 3131 3298 2873 
Q 3191 2616 2906 2266 
Q 2828 2175 2409 1742 
Q 1991 1309 1228 531 
z
" transform="scale(0.015625)"/>
        <path id="DejaVuSans-30" d="M 2034 4250 
Q 1547 4250 1301 3770 
Q 1056 3291 1056 2328 
Q 1056 1369 1301 889 
Q 1547 409 2034 409 
Q 2525 409 2770 889 
Q 3016 1369 3016 2328 
Q 3016 3291 2770 3770 
Q 2525 4250 2034 4250 
z
M 2034 4750 
Q 2819 4750 3233 4129 
Q 3647 3509 3647 2328 
Q 3647 1150 3233 529 
Q 2819 -91 2034 -91 
Q 1250 -91 836 529 
Q 422 1150 422 2328 
Q 422 3509 836 4129 
Q 1250 4750 2034 4750 
z
" transform="scale(0.015625)"/>
        <path id="DejaVuSans-31" d="M 794 531 
L 1825 531 
L 1825 4091 
L 703 3866 
L 703 4441 
L 1819 4666 
L 2450 4666 
L 2450 531 
L 3481 531 
L 3481 0 
L 794 0 
L 794 531 
z
" transform="scale(0.015625)"/>
       </defs>
       <use xlink:href="#DejaVuSans-32"/>
       <use xlink:href="#DejaVuSans-30" x="63.623047"/>
       <use xlink:href="#DejaVuSans-31" x="127.246094"/>
       <use xlink:href="#DejaVuSans-30" x="190.869141"/>
      </g>
     </g>
    </g>
    <g id="xtick_2">
     <g id="line2d_2">
      <g>
       <use xlink:href="#m7efd24960d" x="223.948788" y="327.558125" style="stroke: #000000; stroke-width: 0.8"/>
      </g>
     </g>
     <g id="text_2">
      <!-- 2012 -->
      <g transform="translate(211.223788 342.156563) scale(0.1 -0.1)">
       <use xlink:href="#DejaVuSans-32"/>
       <use xlink:href="#DejaVuSans-30" x="63.623047"/>
       <use xlink:href="#DejaVuSans-31" x="127.246094"/>
       <use xlink:href="#DejaVuSans-32" x="190.869141"/>
      </g>
     </g>
    </g>
    <g id="xtick_3">
     <g id="line2d_3">
      <g>
       <use xlink:href="#m7efd24960d" x="340.728494" y="327.558125" style="stroke: #000000; stroke-width: 0.8"/>
      </g>
     </g>
     <g id="text_3">
      <!-- 2014 -->
      <g transform="translate(328.003494 342.156563) scale(0.1 -0.1)">
       <defs>
        <path id="DejaVuSans-34" d="M 2419 4116 
L 825 1625 
L 2419 1625 
L 2419 4116 
z
M 2253 4666 
L 3047 4666 
L 3047 1625 
L 3713 1625 
L 3713 1100 
L 3047 1100 
L 3047 0 
L 2419 0 
L 2419 1100 
L 313 1100 
L 313 1709 
L 2253 4666 
z
" transform="scale(0.015625)"/>
       </defs>
       <use xlink:href="#DejaVuSans-32"/>
       <use xlink:href="#DejaVuSans-30" x="63.623047"/>
       <use xlink:href="#DejaVuSans-31" x="127.246094"/>
       <use xlink:href="#DejaVuSans-34" x="190.869141"/>
      </g>
     </g>
    </g>
    <g id="xtick_4">
     <g id="line2d_4">
      <g>
       <use xlink:href="#m7efd24960d" x="457.348447" y="327.558125" style="stroke: #000000; stroke-width: 0.8"/>
      </g>
     </g>
     <g id="text_4">
      <!-- 2016 -->
      <g transform="translate(444.623447 342.156563) scale(0.1 -0.1)">
       <defs>
        <path id="DejaVuSans-36" d="M 2113 2584 
Q 1688 2584 1439 2293 
Q 1191 2003 1191 1497 
Q 1191 994 1439 701 
Q 1688 409 2113 409 
Q 2538 409 2786 701 
Q 3034 994 3034 1497 
Q 3034 2003 2786 2293 
Q 2538 2584 2113 2584 
z
M 3366 4563 
L 3366 3988 
Q 3128 4100 2886 4159 
Q 2644 4219 2406 4219 
Q 1781 4219 1451 3797 
Q 1122 3375 1075 2522 
Q 1259 2794 1537 2939 
Q 1816 3084 2150 3084 
Q 2853 3084 3261 2657 
Q 3669 2231 3669 1497 
Q 3669 778 3244 343 
Q 2819 -91 2113 -91 
Q 1303 -91 875 529 
Q 447 1150 447 2328 
Q 447 3434 972 4092 
Q 1497 4750 2381 4750 
Q 2619 4750 2861 4703 
Q 3103 4656 3366 4563 
z
" transform="scale(0.015625)"/>
       </defs>
       <use xlink:href="#DejaVuSans-32"/>
       <use xlink:href="#DejaVuSans-30" x="63.623047"/>
       <use xlink:href="#DejaVuSans-31" x="127.246094"/>
       <use xlink:href="#DejaVuSans-36" x="190.869141"/>
      </g>
     </g>
    </g>
    <g id="xtick_5">
     <g id="line2d_5">
      <g>
       <use xlink:href="#m7efd24960d" x="574.128153" y="327.558125" style="stroke: #000000; stroke-width: 0.8"/>
      </g>
     </g>
     <g id="text_5">
      <!-- 2018 -->
      <g transform="translate(561.403153 342.156563) scale(0.1 -0.1)">
       <defs>
        <path id="DejaVuSans-38" d="M 2034 2216 
Q 1584 2216 1326 1975 
Q 1069 1734 1069 1313 
Q 1069 891 1326 650 
Q 1584 409 2034 409 
Q 2484 409 2743 651 
Q 3003 894 3003 1313 
Q 3003 1734 2745 1975 
Q 2488 2216 2034 2216 
z
M 1403 2484 
Q 997 2584 770 2862 
Q 544 3141 544 3541 
Q 544 4100 942 4425 
Q 1341 4750 2034 4750 
Q 2731 4750 3128 4425 
Q 3525 4100 3525 3541 
Q 3525 3141 3298 2862 
Q 3072 2584 2669 2484 
Q 3125 2378 3379 2068 
Q 3634 1759 3634 1313 
Q 3634 634 3220 271 
Q 2806 -91 2034 -91 
Q 1263 -91 848 271 
Q 434 634 434 1313 
Q 434 1759 690 2068 
Q 947 2378 1403 2484 
z
M 1172 3481 
Q 1172 3119 1398 2916 
Q 1625 2713 2034 2713 
Q 2441 2713 2670 2916 
Q 2900 3119 2900 3481 
Q 2900 3844 2670 4047 
Q 2441 4250 2034 4250 
Q 1625 4250 1398 4047 
Q 1172 3844 1172 3481 
z
" transform="scale(0.015625)"/>
       </defs>
       <use xlink:href="#DejaVuSans-32"/>
       <use xlink:href="#DejaVuSans-30" x="63.623047"/>
       <use xlink:href="#DejaVuSans-31" x="127.246094"/>
       <use xlink:href="#DejaVuSans-38" x="190.869141"/>
      </g>
     </g>
    </g>
    <g id="xtick_6">
     <g id="line2d_6">
      <g>
       <use xlink:href="#m7efd24960d" x="690.748106" y="327.558125" style="stroke: #000000; stroke-width: 0.8"/>
      </g>
     </g>
     <g id="text_6">
      <!-- 2020 -->
      <g transform="translate(678.023106 342.156563) scale(0.1 -0.1)">
       <use xlink:href="#DejaVuSans-32"/>
       <use xlink:href="#DejaVuSans-30" x="63.623047"/>
       <use xlink:href="#DejaVuSans-32" x="127.246094"/>
       <use xlink:href="#DejaVuSans-30" x="190.869141"/>
      </g>
     </g>
    </g>
   </g>
   <g id="matplotlib.axis_2">
    <g id="ytick_1">
     <g id="line2d_7">
      <defs>
       <path id="m8fa935d313" d="M 0 0 
L -3.5 0 
" style="stroke: #000000; stroke-width: 0.8"/>
      </defs>
      <g>
       <use xlink:href="#m8fa935d313" x="46.0125" y="313.68358" style="stroke: #000000; stroke-width: 0.8"/>
      </g>
     </g>
     <g id="text_7">
      <!-- 0 -->
      <g transform="translate(32.65 317.482798) scale(0.1 -0.1)">
       <use xlink:href="#DejaVuSans-30"/>
      </g>
     </g>
    </g>
    <g id="ytick_2">
     <g id="line2d_8">
      <g>
       <use xlink:href="#m8fa935d313" x="46.0125" y="276.411463" style="stroke: #000000; stroke-width: 0.8"/>
      </g>
     </g>
     <g id="text_8">
      <!-- 5000 -->
      <g transform="translate(13.5625 280.210682) scale(0.1 -0.1)">
       <defs>
        <path id="DejaVuSans-35" d="M 691 4666 
L 3169 4666 
L 3169 4134 
L 1269 4134 
L 1269 2991 
Q 1406 3038 1543 3061 
Q 1681 3084 1819 3084 
Q 2600 3084 3056 2656 
Q 3513 2228 3513 1497 
Q 3513 744 3044 326 
Q 2575 -91 1722 -91 
Q 1428 -91 1123 -41 
Q 819 9 494 109 
L 494 744 
Q 775 591 1075 516 
Q 1375 441 1709 441 
Q 2250 441 2565 725 
Q 2881 1009 2881 1497 
Q 2881 1984 2565 2268 
Q 2250 2553 1709 2553 
Q 1456 2553 1204 2497 
Q 953 2441 691 2322 
L 691 4666 
z
" transform="scale(0.015625)"/>
       </defs>
       <use xlink:href="#DejaVuSans-35"/>
       <use xlink:href="#DejaVuSans-30" x="63.623047"/>
       <use xlink:href="#DejaVuSans-30" x="127.246094"/>
       <use xlink:href="#DejaVuSans-30" x="190.869141"/>
      </g>
     </g>
    </g>
    <g id="ytick_3">
     <g id="line2d_9">
      <g>
       <use xlink:href="#m8fa935d313" x="46.0125" y="239.139346" style="stroke: #000000; stroke-width: 0.8"/>
      </g>
     </g>
     <g id="text_9">
      <!-- 10000 -->
      <g transform="translate(7.2 242.938565) scale(0.1 -0.1)">
       <use xlink:href="#DejaVuSans-31"/>
       <use xlink:href="#DejaVuSans-30" x="63.623047"/>
       <use xlink:href="#DejaVuSans-30" x="127.246094"/>
       <use xlink:href="#DejaVuSans-30" x="190.869141"/>
       <use xlink:href="#DejaVuSans-30" x="254.492188"/>
      </g>
     </g>
    </g>
    <g id="ytick_4">
     <g id="line2d_10">
      <g>
       <use xlink:href="#m8fa935d313" x="46.0125" y="201.867229" style="stroke: #000000; stroke-width: 0.8"/>
      </g>
     </g>
     <g id="text_10">
      <!-- 15000 -->
      <g transform="translate(7.2 205.666448) scale(0.1 -0.1)">
       <use xlink:href="#DejaVuSans-31"/>
       <use xlink:href="#DejaVuSans-35" x="63.623047"/>
       <use xlink:href="#DejaVuSans-30" x="127.246094"/>
       <use xlink:href="#DejaVuSans-30" x="190.869141"/>
       <use xlink:href="#DejaVuSans-30" x="254.492188"/>
      </g>
     </g>
    </g>
    <g id="ytick_5">
     <g id="line2d_11">
      <g>
       <use xlink:href="#m8fa935d313" x="46.0125" y="164.595113" style="stroke: #000000; stroke-width: 0.8"/>
      </g>
     </g>
     <g id="text_11">
      <!-- 20000 -->
      <g transform="translate(7.2 168.394331) scale(0.1 -0.1)">
       <use xlink:href="#DejaVuSans-32"/>
       <use xlink:href="#DejaVuSans-30" x="63.623047"/>
       <use xlink:href="#DejaVuSans-30" x="127.246094"/>
       <use xlink:href="#DejaVuSans-30" x="190.869141"/>
       <use xlink:href="#DejaVuSans-30" x="254.492188"/>
      </g>
     </g>
    </g>
    <g id="ytick_6">
     <g id="line2d_12">
      <g>
       <use xlink:href="#m8fa935d313" x="46.0125" y="127.322996" style="stroke: #000000; stroke-width: 0.8"/>
      </g>
     </g>
     <g id="text_12">
      <!-- 25000 -->
      <g transform="translate(7.2 131.122215) scale(0.1 -0.1)">
       <use xlink:href="#DejaVuSans-32"/>
       <use xlink:href="#DejaVuSans-35" x="63.623047"/>
       <use xlink:href="#DejaVuSans-30" x="127.246094"/>
       <use xlink:href="#DejaVuSans-30" x="190.869141"/>
       <use xlink:href="#DejaVuSans-30" x="254.492188"/>
      </g>
     </g>
    </g>
    <g id="ytick_7">
     <g id="line2d_13">
      <g>
       <use xlink:href="#m8fa935d313" x="46.0125" y="90.050879" style="stroke: #000000; stroke-width: 0.8"/>
      </g>
     </g>
     <g id="text_13">
      <!-- 30000 -->
      <g transform="translate(7.2 93.850098) scale(0.1 -0.1)">
       <defs>
        <path id="DejaVuSans-33" d="M 2597 2516 
Q 3050 2419 3304 2112 
Q 3559 1806 3559 1356 
Q 3559 666 3084 287 
Q 2609 -91 1734 -91 
Q 1441 -91 1130 -33 
Q 819 25 488 141 
L 488 750 
Q 750 597 1062 519 
Q 1375 441 1716 441 
Q 2309 441 2620 675 
Q 2931 909 2931 1356 
Q 2931 1769 2642 2001 
Q 2353 2234 1838 2234 
L 1294 2234 
L 1294 2753 
L 1863 2753 
Q 2328 2753 2575 2939 
Q 2822 3125 2822 3475 
Q 2822 3834 2567 4026 
Q 2313 4219 1838 4219 
Q 1578 4219 1281 4162 
Q 984 4106 628 3988 
L 628 4550 
Q 988 4650 1302 4700 
Q 1616 4750 1894 4750 
Q 2613 4750 3031 4423 
Q 3450 4097 3450 3541 
Q 3450 3153 3228 2886 
Q 3006 2619 2597 2516 
z
" transform="scale(0.015625)"/>
       </defs>
       <use xlink:href="#DejaVuSans-33"/>
       <use xlink:href="#DejaVuSans-30" x="63.623047"/>
       <use xlink:href="#DejaVuSans-30" x="127.246094"/>
       <use xlink:href="#DejaVuSans-30" x="190.869141"/>
       <use xlink:href="#DejaVuSans-30" x="254.492188"/>
      </g>
     </g>
    </g>
    <g id="ytick_8">
     <g id="line2d_14">
      <g>
       <use xlink:href="#m8fa935d313" x="46.0125" y="52.778762" style="stroke: #000000; stroke-width: 0.8"/>
      </g>
     </g>
     <g id="text_14">
      <!-- 35000 -->
      <g transform="translate(7.2 56.577981) scale(0.1 -0.1)">
       <use xlink:href="#DejaVuSans-33"/>
       <use xlink:href="#DejaVuSans-35" x="63.623047"/>
       <use xlink:href="#DejaVuSans-30" x="127.246094"/>
       <use xlink:href="#DejaVuSans-30" x="190.869141"/>
       <use xlink:href="#DejaVuSans-30" x="254.492188"/>
      </g>
     </g>
    </g>
   </g>
   <g id="line2d_15">
    <path d="M 76.003864 312.29333 
L 76.270119 312.893411 
L 76.955727 313.495169 
L 78.493353 313.68358 
L 81.209161 313.578659 
L 81.335632 313.578845 
L 82.327434 313.634008 
L 84.064752 313.618707 
L 85.815383 313.639915 
L 86.001761 313.543623 
L 86.074982 313.363039 
L 86.141546 313.443174 
L 86.334581 313.51455 
L 86.560898 313.559836 
L 87.306414 313.589076 
L 87.319727 313.485478 
L 87.419572 313.547164 
L 87.985366 313.620217 
L 88.551159 313.57549 
L 88.584441 313.506351 
L 88.591097 313.510264 
L 88.60441 306.253383 
L 88.697599 312.231831 
L 88.717569 312.494599 
L 88.764163 312.106969 
L 88.777476 311.395072 
L 88.864009 312.669778 
L 89.170203 313.372357 
L 89.303331 313.43162 
L 89.336613 313.363039 
L 89.356582 312.910369 
L 89.369895 292.233476 
L 89.469741 306.061432 
L 89.649463 311.963471 
L 89.829186 312.796503 
L 90.022221 312.47969 
L 90.04219 312.513235 
L 90.275164 312.912047 
L 90.082129 312.464781 
L 90.341728 312.708914 
L 90.461543 311.128576 
L 90.488168 310.791263 
L 90.568045 311.167712 
L 91.053961 313.066353 
L 91.193746 313.199042 
L 91.200402 313.069149 
L 91.220371 302.792667 
L 91.253653 202.799032 
L 91.33353 291.376218 
L 91.49994 304.384186 
L 91.752882 309.181108 
L 92.079046 311.355936 
L 92.544993 312.535598 
L 92.931063 312.973918 
L 93.077504 313.082008 
L 93.270539 313.17817 
L 93.922866 313.284209 
L 93.949491 312.658596 
L 94.016055 221.062369 
L 94.089275 283.809978 
L 94.249029 303.582836 
L 94.488659 308.348076 
L 94.601817 309.203471 
L 94.61513 308.825159 
L 94.714976 298.961093 
L 94.728289 296.538406 
L 94.808165 301.81241 
L 95.001201 306.43788 
L 95.373959 310.224727 
L 95.779998 311.620568 
L 95.853219 311.786429 
L 96.026285 312.073424 
L 96.05291 311.926199 
L 96.099505 311.055895 
L 96.192695 305.632802 
L 96.285884 307.431182 
L 96.525514 309.906051 
L 96.658642 310.522904 
L 96.711893 310.40736 
L 96.765144 310.159501 
L 96.898272 307.449818 
L 96.978149 304.589183 
L 97.038056 305.483714 
L 97.237748 308.070399 
L 97.244404 308.010763 
L 97.277686 278.21916 
L 97.310968 231.498562 
L 97.377532 286.437662 
L 97.550598 302.576489 
L 97.89673 307.856084 
L 98.216237 309.81287 
L 99.028317 311.77152 
L 99.108193 311.872155 
L 99.480951 312.282148 
L 99.840396 312.52069 
L 99.966868 312.580325 
L 99.993493 312.494599 
L 100.133277 311.111803 
L 100.159903 309.53892 
L 100.246436 310.35518 
L 100.559286 311.47707 
L 100.932044 311.892654 
L 101.065172 311.924336 
L 101.298146 312.147968 
L 101.324771 312.036152 
L 101.411304 312.077151 
L 101.477868 312.067833 
L 101.504494 312.02497 
L 101.577714 311.887064 
L 101.630965 311.967199 
L 101.950472 312.289602 
L 102.190102 312.390237 
L 102.329886 312.4126 
L 103.388252 312.878502 
L 103.767666 312.77414 
L 103.887481 312.490872 
L 103.974014 312.57287 
L 104.326803 312.803958 
L 104.679592 312.818866 
L 104.892596 312.893411 
L 105.3652 312.999077 
L 105.571548 313.029081 
L 106.08409 312.925465 
L 106.170623 312.625051 
L 106.217218 311.171439 
L 106.297095 301.514233 
L 106.39694 305.40917 
L 106.783011 309.270561 
L 107.002672 309.99364 
L 107.122487 310.112911 
L 107.155769 310.070048 
L 107.255615 309.971277 
L 107.348804 309.516557 
L 107.422024 309.635828 
L 107.541839 309.913505 
L 107.754844 310.455814 
L 107.907941 310.776354 
L 108.00113 310.999987 
L 109.339065 312.565416 
L 110.570497 312.457327 
L 110.643717 310.342134 
L 110.670343 302.446036 
L 110.763532 306.387563 
L 110.96988 308.905294 
L 111.069726 308.180352 
L 111.129634 306.477016 
L 111.202854 307.257867 
L 111.489079 309.505375 
L 111.788616 310.476314 
L 111.85518 309.820325 
L 111.928401 306.232883 
L 111.988308 304.514639 
L 112.048216 305.315989 
L 112.26122 307.643633 
L 112.460912 308.390939 
L 112.50085 308.405848 
L 112.527476 308.338758 
L 112.540788 308.338758 
L 112.727167 307.474045 
L 112.767106 307.643633 
L 112.853639 307.966037 
L 112.886921 307.749859 
L 112.953485 306.754693 
L 113.006736 305.017812 
L 113.106582 305.40917 
L 113.432745 308.405848 
L 113.705657 308.862431 
L 113.912005 309.717826 
L 114.144978 310.112911 
L 114.291419 310.343998 
L 114.34467 310.291817 
L 114.457829 310.396179 
L 115.369754 311.715612 
L 115.496226 311.823701 
L 115.569446 311.872155 
L 115.576102 311.819974 
L 115.695917 308.314531 
L 115.715886 307.548589 
L 115.795763 308.689116 
L 116.008768 310.075639 
L 116.235085 310.733492 
L 117.020539 311.846064 
L 117.127041 311.954153 
L 117.539737 312.311966 
L 117.872557 312.52069 
L 118.018997 312.591507 
L 118.045623 312.505781 
L 118.258627 311.849791 
L 118.371786 312.02497 
L 118.67798 312.323147 
L 118.890984 312.431236 
L 119.183866 312.595234 
L 119.862817 312.725686 
L 119.869474 312.701459 
L 119.942694 312.047334 
L 119.989289 307.408819 
L 120.022571 301.942863 
L 120.109104 303.881013 
L 120.242232 304.812816 
L 120.262201 304.421459 
L 120.308796 296.762039 
L 120.328765 294.749344 
L 120.395329 299.87426 
L 120.428611 301.085604 
L 120.461892 298.867913 
L 120.481862 296.557042 
L 120.555082 301.122876 
L 120.634959 303.191479 
L 120.681553 302.296948 
L 120.734804 301.980135 
L 120.768086 302.446036 
L 121.16747 307.285821 
L 121.533571 309.427104 
L 121.873047 310.440905 
L 121.986206 310.679447 
L 122.026144 310.522904 
L 122.066082 310.336543 
L 122.119334 308.799069 
L 122.152616 306.477016 
L 122.232492 307.725632 
L 122.465466 309.35256 
L 122.69844 310.053275 
L 122.738378 310.152046 
L 123.257576 311.395072 
L 123.470581 311.715612 
L 123.889933 312.207604 
L 124.236066 312.524417 
L 124.409132 312.617597 
L 124.535603 312.617597 
L 124.901705 312.725686 
L 125.440872 312.962737 
L 125.454185 312.90832 
L 125.574 312.196422 
L 125.607282 309.136381 
L 125.700471 310.539676 
L 125.940101 311.987698 
L 126.259608 312.554234 
L 126.472613 312.744322 
L 126.485925 312.725686 
L 126.585771 312.621324 
L 126.612397 312.222513 
L 126.632366 311.439798 
L 126.725555 311.808792 
L 127.045062 312.565416 
L 127.690732 313.122261 
L 128.003582 313.132698 
L 128.143367 313.122261 
L 128.189961 303.191479 
L 128.263182 308.51021 
L 128.456217 311.311209 
L 128.536094 311.529251 
L 128.54275 311.162121 
L 128.556063 309.374923 
L 128.609314 289.028074 
L 128.695847 302.4274 
L 128.729129 297.283848 
L 128.742442 292.531653 
L 128.795693 298.923821 
L 128.842288 294.712072 
L 128.902195 290.723956 
L 128.868913 295.159338 
L 128.935477 295.066157 
L 129.015354 301.19742 
L 129.068605 299.203362 
L 129.081918 297.768386 
L 129.155138 302.166495 
L 129.474645 308.679798 
L 129.547865 309.188562 
L 129.567834 308.631344 
L 129.634398 275.051031 
L 129.720931 296.035232 
L 129.887341 304.775544 
L 130.107002 308.567982 
L 130.473103 311.078259 
L 130.765984 311.983971 
L 130.95902 312.36601 
L 131.518156 312.962737 
L 131.697879 313.071571 
L 131.890914 313.159347 
L 131.904227 312.876638 
L 132.004073 313.102135 
L 132.217077 313.23706 
L 133.18891 313.347385 
L 133.328694 313.363039 
L 133.335351 313.325208 
L 133.368633 313.13512 
L 133.455166 313.199042 
L 133.641545 313.302659 
L 133.827924 313.359312 
L 134.253933 313.471874 
L 134.513532 313.425843 
L 134.540157 313.187488 
L 134.633347 313.298559 
L 134.859664 313.486783 
L 135.505334 313.38093 
L 135.598523 313.439074 
L 135.891405 313.486596 
L 136.044502 313.469265 
L 136.5637 313.553873 
L 137.255964 313.557786 
L 137.269277 313.142388 
L 137.369123 313.36863 
L 137.389092 313.386521 
L 137.395749 313.336762 
L 137.52222 310.92917 
L 137.528876 307.360365 
L 137.582128 311.521797 
L 137.628722 311.277664 
L 137.655348 311.75102 
L 137.662004 311.277664 
L 137.675317 308.847522 
L 137.775163 310.342134 
L 137.981511 312.468509 
L 138.201172 313.026472 
L 138.746996 313.329308 
L 138.933375 313.406834 
L 138.96 312.049197 
L 139.066503 312.759231 
L 139.272851 313.241532 
L 139.465886 313.395093 
L 140.331217 313.577727 
L 140.437719 313.547909 
L 140.444375 313.513246 
L 140.471001 313.444293 
L 140.550878 313.510264 
L 140.883697 313.595617 
L 147.320426 313.557208 
L 147.333739 313.288309 
L 147.433585 313.470569 
L 147.466867 313.497592 
L 147.493492 313.416898 
L 147.500149 313.226623 
L 147.513461 252.40822 
L 147.540087 86.510028 
L 147.619964 293.556637 
L 147.779717 308.704025 
L 147.986065 311.406253 
L 148.312228 312.725686 
L 148.352167 312.509508 
L 148.425387 312.632506 
L 148.538546 312.543053 
L 148.611766 312.371601 
L 148.658361 312.468509 
L 148.924616 312.973918 
L 149.190872 313.207987 
L 149.896449 313.45007 
L 149.909762 313.363039 
L 150.049546 312.869557 
L 150.069515 312.651142 
L 150.162705 312.785322 
L 150.555432 313.228673 
L 150.868282 313.370494 
L 151.307604 313.481565 
L 151.527265 313.513619 
L 152.945076 313.60009 
L 154.768927 313.490137 
L 155.181623 313.333408 
L 155.581006 313.450256 
L 156.393086 313.496474 
L 159.934285 313.409257 
L 160.047444 311.721203 
L 160.100695 311.920608 
L 160.406889 312.80023 
L 160.446827 312.856139 
L 160.520048 312.766685 
L 160.573299 312.658596 
L 160.839554 312.602688 
L 160.852867 312.628779 
L 161.431973 313.112571 
L 161.518506 313.154502 
L 162.15752 313.345521 
L 164.440661 313.526478 
L 164.633697 313.526478 
L 165.312648 313.323158 
L 165.372556 313.055917 
L 165.552278 312.636233 
L 165.578904 312.52069 
L 165.60553 311.124849 
L 165.665437 307.820676 
L 165.725345 309.21838 
L 165.925036 311.314937 
L 166.344389 312.431236 
L 166.983402 312.982305 
L 168.068394 313.319058 
L 170.451381 313.430129 
L 170.671042 313.408511 
L 170.857421 313.351112 
L 171.13699 313.260914 
L 171.582968 313.171461 
L 172.055571 312.051061 
L 172.062228 312.067833 
L 172.428329 312.4126 
L 172.474924 312.360419 
L 172.641334 311.870291 
L 172.781118 309.790507 
L 172.821056 308.912749 
L 172.907589 309.039474 
L 172.954184 308.664889 
L 173.007435 309.1047 
L 173.673074 311.737975 
L 173.906048 312.030561 
L 174.378652 312.554234 
L 174.385308 312.543053 
L 174.471841 311.605659 
L 174.511779 306.495652 
L 174.644907 309.15129 
L 174.904506 310.671993 
L 174.931132 310.744673 
L 174.937788 310.647766 
L 175.044291 307.565362 
L 175.097542 308.439393 
L 175.323859 310.250818 
L 175.70993 311.320527 
L 175.836401 311.350345 
L 175.843057 311.355936 
L 175.863027 311.234801 
L 175.902965 310.716719 
L 175.982842 311.027941 
L 176.242441 311.641068 
L 176.808234 312.375328 
L 177.161023 312.61387 
L 177.207617 312.438691 
L 177.234243 311.687658 
L 177.300807 304.589183 
L 177.367371 306.847873 
L 177.593688 309.87996 
L 178.146168 311.607523 
L 178.632085 312.207604 
L 178.91831 312.490872 
L 179.084719 312.632506 
L 179.091376 312.606415 
L 179.184565 312.084606 
L 179.264442 311.499434 
L 179.364288 311.737975 
L 179.71042 312.118151 
L 179.890142 311.887064 
L 179.936737 311.941108 
L 180.069865 311.941108 
L 180.083178 311.920608 
L 180.342777 311.892654 
L 180.529156 312.062242 
L 180.708878 312.170332 
L 181.55424 312.736868 
L 181.654086 312.63996 
L 181.694024 311.572114 
L 181.727306 298.569736 
L 181.747275 288.375812 
L 181.833808 301.961499 
L 182.046813 307.9679 
L 182.266474 309.807279 
L 182.286443 309.140109 
L 182.339694 291.711667 
L 182.353007 289.512612 
L 182.419571 300.116529 
L 182.632575 307.09946 
L 182.872205 309.300379 
L 183.118492 310.51545 
L 183.331496 311.372708 
L 183.358122 311.240392 
L 183.464624 308.704025 
L 183.504562 307.889629 
L 183.571126 308.854977 
L 183.631034 309.374923 
L 183.677628 308.97052 
L 183.690941 307.624997 
L 183.717567 286.996744 
L 186.712942 312.254194 
L 186.719599 312.250467 
L 186.77285 307.444227 
L 186.812788 300.712883 
L 186.886008 305.968251 
L 187.072387 309.732735 
L 187.331987 311.22362 
L 187.924405 312.446145 
L 187.971 312.121878 
L 187.997626 311.065213 
L 188.070846 265.751637 
L 188.144066 294.898433 
L 188.303819 305.576894 
L 188.397009 307.229913 
L 188.416978 306.320473 
L 188.490198 306.486334 
L 188.496855 304.600365 
L 188.556762 118.377688 
L 188.610013 273.280605 
L 188.676577 291.748939 
L 188.743141 288.282632 
L 188.976115 305.893707 
L 189.209088 309.434558 
L 189.415437 310.858353 
L 189.621785 311.764066 
L 190.041137 312.52069 
L 190.340675 312.803958 
L 190.493772 312.937392 
L 191.49223 313.302659 
L 191.498887 313.266877 
L 191.518856 312.744322 
L 191.605389 313.300609 
L 192.237746 313.436093 
L 192.244402 313.383539 
L 192.251059 313.304708 
L 192.350905 313.388384 
L 192.94998 313.49871 
L 193.469178 313.556854 
L 196.371364 313.667963 
L 199.386709 313.68358 
L 204.039525 313.594126 
L 204.152684 313.590399 
L 215.355388 313.487528 
L 215.401983 312.844957 
L 215.441922 301.141512 
L 215.488516 255.744074 
L 215.55508 291.208493 
L 215.72149 306.562742 
L 215.927838 308.957475 
L 216.214063 309.941459 
L 216.486975 310.470723 
L 216.566851 310.373816 
L 216.693323 310.157637 
L 216.726605 310.193046 
L 217.205865 310.791263 
L 217.372275 310.886307 
L 217.425526 310.932897 
L 217.452151 310.813627 
L 217.578623 308.730115 
L 217.598592 299.576083 
L 217.645187 270.55974 
L 217.711751 294.171626 
L 217.884817 305.278717 
L 218.091165 308.001445 
L 218.270887 308.890385 
L 218.304169 308.823296 
L 218.37739 308.238123 
L 218.463923 306.95969 
L 218.530486 307.492681 
L 218.750147 308.718934 
L 219.435756 310.180001 
L 219.442412 310.172546 
L 219.502319 309.633964 
L 219.555571 299.576083 
L 219.582196 292.662106 
L 219.675386 295.90478 
L 219.908359 305.50235 
L 220.281117 308.428211 
L 220.540716 309.225834 
L 220.720439 309.583647 
L 220.900161 309.844552 
L 220.906818 309.837097 
L 221.106509 309.941459 
L 221.213012 309.934005 
L 221.226324 309.911641 
L 221.266263 308.614572 
L 221.312857 285.189046 
L 221.386078 298.122471 
L 221.572457 305.110993 
L 221.871994 307.803903 
L 222.031748 308.366712 
L 222.071686 308.271668 
L 222.118281 307.908265 
L 222.198157 305.707347 
L 222.311316 306.838555 
L 222.797232 308.927657 
L 223.043519 309.374923 
L 223.130052 309.479285 
L 223.329744 309.658191 
L 224.334859 310.619812 
L 224.494612 310.72231 
L 224.641052 310.791263 
L 224.953903 310.897489 
L 225.220158 310.977624 
L 225.51304 310.869535 
L 225.566291 309.440149 
L 225.626198 302.054679 
L 225.739357 305.260081 
L 225.959018 308.018218 
L 226.185335 308.927657 
L 226.458247 309.464376 
L 227.443393 310.40736 
L 227.529926 310.440905 
L 227.536582 310.455814 
L 227.696336 310.545267 
L 227.809494 310.625402 
L 227.829463 310.537813 
L 227.856089 309.222107 
L 227.922653 268.640226 
L 227.995873 286.344482 
L 228.168939 301.886955 
L 228.401913 307.118096 
L 229.000988 310.534086 
L 229.2739 311.339163 
L 229.360433 311.547887 
L 229.413684 311.454707 
L 229.44031 311.335436 
L 229.460279 310.103593 
L 229.473592 310.125956 
L 229.493561 304.645091 
L 229.593407 308.206442 
L 229.799755 310.185591 
L 229.999446 310.824808 
L 230.125918 311.072668 
L 230.511988 311.510615 
L 230.518645 311.499434 
L 230.585209 311.559069 
L 230.605178 311.570251 
L 231.051156 311.801338 
L 231.230879 311.708157 
L 231.403945 310.31418 
L 231.52376 310.783809 
L 232.24265 311.521797 
L 232.275932 311.471479 
L 232.335839 311.454707 
L 232.375778 311.499434 
L 233.36758 312.192695 
L 233.766963 312.29333 
L 233.926717 312.349238 
L 234.186316 312.457327 
L 234.632294 312.580325 
L 234.80536 312.475963 
L 235.078272 312.330602 
L 235.218056 312.371601 
L 235.244682 312.31942 
L 235.28462 311.445389 
L 235.37781 306.894463 
L 235.424404 307.932492 
L 235.61744 310.209818 
L 236.016823 311.327982 
L 236.083387 311.417435 
L 236.256453 311.618704 
L 236.502739 311.834883 
L 236.595929 311.529251 
L 236.615898 308.741297 
L 236.709088 237.462101 
L 236.788964 273.597418 
L 237.028594 297.861566 
L 237.088502 297.022943 
L 237.29485 305.297353 
L 237.567762 308.935112 
L 237.807392 310.271317 
L 237.880612 310.582539 
L 238.053678 311.106213 
L 238.446405 311.79761 
L 238.958947 312.371601 
L 238.965604 312.29892 
L 239.032168 311.715612 
L 239.078762 312.095787 
L 239.30508 312.401419 
L 239.45152 312.509508 
L 239.657868 312.643687 
L 240.163754 312.84123 
L 240.17041 312.815139 
L 240.283569 312.84123 
L 240.529855 312.951555 
L 240.829393 313.042872 
L 240.849362 312.968328 
L 240.895957 312.897138 
L 240.962521 312.959941 
L 241.049054 312.882229 
L 241.162212 312.874775 
L 241.175525 312.893411 
L 241.361904 313.040263 
L 241.588221 313.149656 
L 242.706495 313.439074 
L 243.518575 313.486783 
L 243.738235 313.485478 
L 243.957896 313.515482 
L 244.636848 313.590399 
L 269.851253 313.50281 
L 269.877879 313.364344 
L 269.971068 313.475787 
L 270.070914 313.538591 
L 270.323857 313.553873 
L 273.432391 313.664869 
L 275.79541 313.666136 
L 287.058022 313.598413 
L 287.124585 299.184726 
L 287.211119 308.197124 
L 287.417467 311.70443 
L 287.437436 311.680203 
L 287.617158 312.27283 
L 287.730317 312.438691 
L 287.843476 312.580325 
L 287.74363 312.4126 
L 287.863445 312.571007 
L 287.883414 312.602688 
L 287.956634 312.580325 
L 288.069793 312.710777 
L 288.076449 312.654869 
L 288.196264 312.803958 
L 288.209577 312.766685 
L 288.242859 312.729413 
L 288.262828 312.837502 
L 288.316079 312.79464 
L 288.442551 312.88782 
L 288.329392 312.779731 
L 288.469176 312.861729 
L 288.562366 312.824457 
L 288.582335 312.854648 
L 288.622273 312.928819 
L 288.695494 312.86732 
L 288.861903 312.902915 
L 288.875216 312.880365 
L 288.981718 312.701459 
L 288.921811 312.904592 
L 288.995031 312.721959 
L 289.001687 312.75364 
L 289.054939 312.498326 
L 289.174754 312.088333 
L 289.194723 312.149832 
L 289.294569 312.306375 
L 289.314538 312.269103 
L 289.374445 312.229967 
L 289.34782 312.321284 
L 289.414384 312.254194 
L 289.42104 312.313829 
L 289.49426 312.155423 
L 289.520886 312.259785 
L 289.574137 312.161014 
L 289.547511 312.280284 
L 289.640701 312.187104 
L 289.687296 312.267239 
L 289.780485 312.401419 
L 289.700608 312.243012 
L 289.807111 312.367874 
L 289.820423 312.345511 
L 290.113305 312.63996 
L 290.119961 312.543053 
L 290.179869 312.662324 
L 290.226463 312.597097 
L 290.253089 312.569143 
L 290.286371 312.688414 
L 290.312996 312.626915 
L 290.319653 312.718232 
L 290.419499 312.61387 
L 290.426155 312.669778 
L 290.479406 312.675369 
L 290.499375 312.591507 
L 290.519344 312.647415 
L 290.579252 312.528144 
L 290.632503 312.582188 
L 290.745662 312.528144 
L 290.71238 312.634369 
L 290.758974 312.556098 
L 291.065168 312.116287 
L 290.772287 312.576598 
L 291.111763 312.147968 
L 291.244891 312.328738 
L 291.351393 312.248603 
L 291.298142 312.395828 
L 291.35805 312.263512 
L 291.397988 312.157286 
L 291.531116 309.6731 
L 291.624305 310.418542 
L 291.810684 311.52366 
L 291.843966 311.491979 
L 291.863935 311.570251 
L 291.977094 311.915018 
L 291.98375 311.874018 
L 292.023689 311.903836 
L 292.110222 312.147968 
L 292.143504 312.125605 
L 292.170129 312.09206 
L 292.203411 312.209467 
L 292.210067 312.161014 
L 292.230037 312.155423 
L 292.323226 312.328738 
L 292.329882 312.256057 
L 292.363164 312.367874 
L 292.429728 312.308238 
L 292.576169 312.483417 
L 292.609451 312.427509 
L 292.656046 312.561689 
L 292.682671 312.522553 
L 292.789173 312.625051 
L 292.695984 312.494599 
L 292.79583 312.550507 
L 292.849081 312.569143 
L 292.809143 312.589643 
L 292.86905 312.617597 
L 292.968896 312.677232 
L 292.895676 312.59337 
L 292.982209 312.662324 
L 293.288403 312.781594 
L 293.315028 312.677232 
L 293.34831 312.149832 
L 293.434843 286.363118 
L 293.474782 296.426589 
L 293.627879 307.043552 
L 293.814257 309.838961 
L 294.040575 311.150939 
L 294.060544 311.083849 
L 294.0672 311.067077 
L 294.100482 311.259028 
L 294.127108 311.184484 
L 294.286861 311.512479 
L 294.30683 311.471479 
L 294.320143 311.609386 
L 294.346769 311.551614 
L 294.47324 311.75102 
L 294.925875 311.969062 
L 294.932531 311.929926 
L 295.059002 312.136787 
L 295.225412 312.121878 
L 295.43176 309.889278 
L 295.538262 310.418542 
L 295.678047 311.007442 
L 295.684703 310.910534 
L 295.76458 311.204984 
L 295.771236 311.139758 
L 295.897708 311.501297 
L 295.91102 311.426753 
L 296.024179 311.644795 
L 296.037492 311.596341 
L 296.143994 311.762202 
L 296.15065 311.711885 
L 296.203901 311.950426 
L 296.24384 311.851655 
L 296.330373 311.948563 
L 296.257153 311.829292 
L 296.363655 311.907563 
L 296.370311 311.883336 
L 296.416906 312.006334 
L 296.443532 311.983971 
L 296.450188 312.080879 
L 296.543377 311.8852 
L 296.55669 311.957881 
L 296.609941 311.81811 
L 296.669849 311.165848 
L 296.689818 307.108778 
L 296.783007 309.073019 
L 297.002668 310.668265 
L 297.009325 310.619812 
L 297.062576 310.912398 
L 297.095858 310.776354 
L 297.102514 310.934761 
L 297.189047 310.664538 
L 297.242298 308.592208 
L 297.322175 309.42524 
L 297.415364 309.885551 
L 297.455303 309.831506 
L 297.461959 309.747644 
L 297.535179 310.137138 
L 297.541836 310.116638 
L 297.548492 310.064457 
L 297.6084 310.424133 
L 297.615056 310.342134 
L 297.728215 310.841581 
L 297.748184 310.733492 
L 297.954532 311.24412 
L 297.961188 311.167712 
L 298.054378 311.36339 
L 298.061034 311.301891 
L 298.127598 311.436071 
L 298.147567 311.421162 
L 298.260726 311.592614 
L 298.274039 311.570251 
L 298.360572 311.721203 
L 298.373885 311.503161 
L 298.380541 311.588887 
L 298.513669 308.96493 
L 298.600202 309.915369 
L 298.766612 310.793127 
L 298.773268 310.763309 
L 298.826519 310.958988 
L 298.839832 310.958988 
L 299.28581 311.708157 
L 299.305779 311.663431 
L 299.312436 311.635477 
L 299.379 311.827428 
L 299.392312 311.717475 
L 299.498815 311.939244 
L 299.518784 311.907563 
L 299.552066 311.965335 
L 299.605317 310.979487 
L 299.671881 296.588102 
L 299.738445 303.321931 
L 299.938136 309.065564 
L 299.951449 308.972384 
L 300.124515 310.329089 
L 301.003159 311.894518 
L 301.009815 311.836746 
L 301.083035 311.600068 
L 301.103005 306.661513 
L 301.20285 309.05811 
L 301.429168 310.673856 
L 301.755331 311.526766 
L 302.034899 311.819974 
L 302.121432 311.607523 
L 302.25456 311.462161 
L 302.267873 311.510615 
L 302.321124 311.313073 
L 302.354406 311.275801 
L 302.401001 311.372708 
L 302.414313 311.365254 
L 302.627318 311.734248 
L 303.059983 312.149832 
L 303.06664 312.084606 
L 303.193111 311.011169 
L 303.266331 311.385754 
L 303.479336 311.836746 
L 303.492649 311.805065 
L 303.499305 311.780838 
L 303.559212 311.870291 
L 303.579182 311.868427 
L 303.592494 311.860973 
L 303.698997 311.97838 
L 303.705653 311.946699 
L 303.745591 312.028698 
L 303.792186 312.017516 
L 303.925314 312.105105 
L 304.018503 312.056652 
L 304.038473 312.067833 
L 304.065098 312.101378 
L 304.078411 311.989562 
L 304.105036 311.710642 
L 304.191569 311.81811 
L 304.357979 311.982107 
L 304.364636 311.972789 
L 304.484451 312.106969 
L 304.524389 312.079015 
L 304.624235 312.103242 
L 304.724081 312.200149 
L 304.74405 312.192695 
L 304.764019 312.211331 
L 304.923772 311.808792 
L 304.950398 307.170277 
L 304.970367 301.10424 
L 306.055359 311.855382 
L 306.068671 311.833019 
L 306.095297 311.801338 
L 306.10861 311.965335 
L 306.128579 311.849791 
L 306.188486 312.108833 
L 306.248394 312.103242 
L 306.27502 311.972789 
L 306.321614 312.11256 
L 306.361553 312.02497 
L 306.408147 312.110696 
L 306.454742 311.989562 
L 306.461398 312.086469 
L 306.681059 303.47102 
L 306.727654 305.315989 
L 307.047161 310.74281 
L 307.373324 311.674612 
L 307.419919 311.542296 
L 307.426575 311.47707 
L 307.486483 311.711885 
L 307.513108 311.663431 
L 307.553046 311.790156 
L 307.566359 311.767793 
L 307.719456 312.168468 
L 307.726113 312.052924 
L 307.792676 312.270966 
L 307.825958 312.248603 
L 307.945773 312.448009 
L 307.959086 312.401419 
L 307.972399 312.52628 
L 308.045619 312.494599 
L 308.145465 312.673505 
L 308.172091 312.61387 
L 308.684633 313.074926 
L 308.691289 313.007463 
L 308.771166 313.094121 
L 308.791135 313.085548 
L 308.957545 313.199042 
L 308.970858 313.174815 
L 308.997483 313.212833 
L 309.090673 313.154502 
L 309.190518 313.063185 
L 309.217144 313.013054 
L 309.290364 313.150588 
L 309.297021 313.061135 
L 309.370241 313.14947 
L 309.336959 313.004668 
L 309.403523 313.075112 
L 309.436805 313.133443 
L 309.443461 313.040263 
L 311.733259 313.496474 
L 315.034829 313.442615 
L 315.074767 312.129332 
L 315.08808 307.723768 
L 315.181269 313.2611 
L 315.341023 313.556854 
L 315.680499 313.588163 
L 317.750636 313.577727 
L 317.930358 312.956401 
L 317.943671 312.84123 
L 318.030204 313.112571 
L 318.156676 313.215255 
L 318.329742 313.294459 
L 318.376337 313.271723 
L 318.396306 312.632506 
L 318.489495 313.222151 
L 318.735782 313.406834 
L 319.780835 313.556854 
L 328.467424 313.454356 
L 328.494049 313.439074 
L 328.573926 313.490137 
L 328.753649 313.521819 
L 329.512477 313.620217 
L 331.003508 313.509146 
L 331.256451 313.491255 
L 332.101813 313.388198 
L 332.234941 313.343658 
L 332.647637 313.450256 
L 332.867298 313.481565 
L 334.498113 313.463674 
L 334.531395 313.122261 
L 334.617928 313.207987 
L 334.917466 313.374221 
L 335.170409 313.439074 
L 336.601532 313.52275 
L 337.207264 313.550145 
L 337.839621 313.444293 
L 338.045969 313.122261 
L 338.225692 312.31942 
L 338.305568 312.4126 
L 338.365476 312.461054 
L 339.011146 312.63996 
L 339.024458 312.52069 
L 339.044428 312.384646 
L 339.084366 305.670074 
L 339.124304 291.804847 
L 339.204181 300.023349 
L 339.403873 309.60601 
L 339.656815 311.629886 
L 339.989635 312.371601 
L 340.102794 312.475963 
L 340.34908 312.673505 
L 341.127878 312.9851 
L 342.326028 312.902729 
L 342.35931 311.903836 
L 342.379279 310.806172 
L 342.419217 304.831452 
L 342.492438 307.863539 
L 342.705442 310.841581 
L 343.00498 311.961608 
L 343.15142 312.222513 
L 343.371081 312.446145 
L 343.510865 312.550507 
L 343.790434 312.699596 
L 344.063346 312.803958 
L 344.209786 312.871047 
L 344.436103 312.939628 
L 345.194932 313.082008 
L 347.55795 313.190097 
L 347.750986 313.190097 
L 351.258903 313.087039 
L 351.451939 312.47969 
L 351.48522 312.461054 
L 351.545128 312.535598 
L 351.691569 312.632506 
L 351.851322 312.718232 
L 352.490335 312.951555 
L 352.616807 312.848684 
L 352.636776 312.464781 
L 352.70334 294.413895 
L 352.803186 303.731924 
L 353.002877 308.526982 
L 353.242507 310.302999 
L 353.388948 310.761446 
L 353.608609 311.111803 
L 353.821613 311.218029 
L 354.540503 311.67834 
L 354.62038 311.579569 
L 354.700257 309.827779 
L 354.733539 307.446091 
L 354.813415 308.793478 
L 355.033076 310.217273 
L 355.152891 310.470723 
L 355.206142 310.418542 
L 355.272706 310.366361 
L 355.305988 310.440905 
L 355.512336 310.813627 
L 355.525649 310.791263 
L 355.558931 310.813627 
L 355.625495 310.373816 
L 355.725341 307.727495 
L 355.81853 308.920203 
L 356.011566 309.85946 
L 356.091442 310.023458 
L 356.111412 309.920959 
L 356.164663 307.844902 
L 356.204601 298.662917 
L 356.304447 304.253734 
L 356.497482 307.768495 
L 356.816989 309.770007 
L 357.189747 310.679447 
L 357.209716 310.468859 
L 357.296249 305.632802 
L 357.396095 307.898947 
L 357.635725 309.725281 
L 358.128298 310.999987 
L 358.214831 311.100622 
L 358.487743 311.350345 
L 358.614214 311.454707 
L 358.893783 311.715612 
L 359.153382 311.823701 
L 359.373043 311.983971 
L 359.845646 312.088333 
L 360.051994 312.222513 
L 360.31825 312.326874 
L 360.544567 312.416328 
L 360.850761 312.524417 
L 361.010515 312.580325 
L 361.250145 312.475963 
L 361.44318 312.051061 
L 361.5164 312.140514 
L 361.729405 312.349238 
L 361.795969 312.401419 
L 361.835907 312.304511 
L 361.929096 312.222513 
L 362.015629 310.157637 
L 362.055568 310.368225 
L 362.135444 310.60863 
L 362.16207 310.442769 
L 362.241947 309.546375 
L 362.308511 309.941459 
L 362.548141 310.999987 
L 362.594735 310.891898 
L 362.667956 310.534086 
L 362.747832 310.750264 
L 363.020744 311.38389 
L 363.593194 312.237421 
L 363.626476 312.192695 
L 363.719665 312.289602 
L 363.826168 312.371601 
L 363.866106 312.349238 
L 363.972608 312.237421 
L 364.019203 312.304511 
L 364.158987 312.446145 
L 364.178956 312.397692 
L 364.438555 312.416328 
L 364.57834 312.311966 
L 364.644904 312.31942 
L 364.678185 312.360419 
L 364.824626 312.427509 
L 364.851252 312.483417 
L 364.897846 312.505781 
L 365.090882 312.602688 
L 365.097538 312.57287 
L 365.230666 312.464781 
L 365.343824 312.051061 
L 365.456983 312.229967 
L 365.749864 312.602688 
L 365.756521 312.595234 
L 365.809772 312.461054 
L 365.876336 312.543053 
L 365.902961 312.565416 
L 365.929587 312.4536 
L 365.956212 312.416328 
L 366.022776 312.516962 
L 366.215812 312.569143 
L 366.235781 312.513235 
L 366.375565 312.07156 
L 366.462098 311.924336 
L 366.502036 311.99888 
L 366.695072 312.106969 
L 367.187645 312.744322 
L 367.194301 312.733141 
L 367.200957 312.721959 
L 367.247552 312.796503 
L 367.280834 312.802094 
L 367.706843 313.031877 
L 367.753438 313.050699 
L 371.833805 313.500946 
L 372.133342 313.471874 
L 376.260304 313.423793 
L 376.293586 313.042872 
L 376.386775 313.190097 
L 376.673 313.391739 
L 377.178886 313.525546 
L 379.987882 313.461065 
L 380.041134 313.16177 
L 380.107698 313.243769 
L 380.407235 313.464047 
L 380.893152 313.536727 
L 385.865475 313.462742 
L 385.898757 313.217678 
L 385.965321 271.454271 
L 386.031885 304.79418 
L 386.184982 309.844552 
L 386.304797 310.658947 
L 386.318109 310.090547 
L 386.358048 283.642253 
L 386.384673 253.582291 
L 386.451237 296.631586 
L 386.690867 309.071155 
L 386.923841 310.852762 
L 387.509603 312.036152 
L 387.649387 312.144241 
L 387.82911 312.237421 
L 388.015489 312.338056 
L 388.195211 312.431236 
L 388.47478 312.539326 
L 388.701097 312.602688 
L 388.707753 312.576598 
L 388.721066 312.52069 
L 388.814256 312.580325 
L 389.932529 312.472236 
L 390.07897 312.356692 
L 390.112252 311.29071 
L 390.198785 311.417435 
L 390.438415 311.834883 
L 390.837798 312.118151 
L 391.084085 312.222513 
L 391.330371 312.334329 
L 391.696473 312.434964 
L 391.8296 312.446145 
L 392.355455 312.550507 
L 392.528521 312.580325 
L 392.781464 312.475963 
L 392.947874 312.375328 
L 392.967843 312.27283 
L 393.027751 311.417435 
L 393.100971 311.499434 
L 393.460416 311.887064 
L 393.640138 311.995153 
L 394.126055 312.140514 
L 394.438905 312.243012 
L 394.565377 312.274694 
L 394.924822 312.166604 
L 394.971416 311.918745 
L 395.024668 310.157637 
L 395.091231 310.507995 
L 395.3708 311.454707 
L 395.643712 311.983971 
L 396.296038 312.550507 
L 396.355946 312.446145 
L 396.435822 311.922472 
L 396.455791 311.113667 
L 396.482417 309.166199 
L 396.56895 310.282499 
L 396.768642 311.45098 
L 396.795267 311.499434 
L 396.828549 311.355936 
L 396.868488 310.157637 
L 396.921739 305.073721 
L 397.008272 308.020081 
L 397.227933 310.455814 
L 397.514157 311.428616 
L 397.733818 311.581432 
L 397.800382 311.68393 
L 398.046669 312.013789 
L 398.153171 312.118151 
L 398.299611 312.222513 
L 398.778871 312.31942 
L 398.945281 312.431236 
L 399.404572 312.341783 
L 399.457823 311.747293 
L 399.517731 305.837799 
L 399.531044 305.110993 
L 399.597607 307.248549 
L 399.77733 310.146456 
L 400.003647 311.078259 
L 400.223308 311.663431 
L 400.482907 311.983971 
L 400.56944 312.088333 
L 400.849009 312.237421 
L 401.128577 312.345511 
L 401.814185 312.602688 
L 402.240194 312.710777 
L 402.619609 312.796503 
L 403.291904 312.900865 
L 403.458314 312.930683 
L 403.578129 312.939628 
L 404.150578 312.837502 
L 404.243768 312.468509 
L 404.297019 312.259785 
L 404.370239 312.338056 
L 404.603213 312.52069 
L 404.916063 312.628779 
L 405.23557 312.684687 
L 405.368698 312.692141 
L 405.54842 312.729413 
L 406.094244 312.837502 
L 406.380469 312.871047 
L 407.385584 312.766685 
L 407.685121 312.461054 
L 407.691778 312.468509 
L 407.911439 312.550507 
L 408.763456 312.449872 
L 409.06965 311.538569 
L 409.129558 310.170683 
L 409.169496 307.211276 
L 409.249373 308.776705 
L 409.422439 309.591101 
L 409.875074 311.011169 
L 409.921668 310.931034 
L 409.961607 310.211682 
L 410.041483 305.297353 
L 410.141329 307.680905 
L 410.181268 308.280986 
L 410.43421 310.105456 
L 410.460836 310.165092 
L 410.487462 310.002958 
L 410.520743 308.368576 
L 410.573995 270.932462 
L 410.593964 255.240901 
L 410.67384 277.585534 
L 410.886845 302.203768 
L 411.073224 307.05287 
L 411.625704 310.152046 
L 412.151559 311.417435 
L 412.238092 311.525524 
L 412.471066 311.79761 
L 412.491035 311.737975 
L 412.557599 310.752128 
L 412.604194 306.042796 
L 412.710696 308.808387 
L 412.956982 310.463269 
L 413.243207 311.245983 
L 413.695841 311.79761 
L 413.809 311.903836 
L 414.421388 312.274694 
L 414.674331 312.382783 
L 414.980525 312.431236 
L 415.040432 312.431236 
L 415.087027 312.475963 
L 415.293375 312.584052 
L 415.41319 312.632506 
L 415.419846 312.625051 
L 415.473098 311.883336 
L 415.50638 300.507886 
L 415.606225 306.368927 
L 415.785948 309.046928 
L 415.832543 308.726388 
L 415.885794 309.087928 
L 416.198644 311.011169 
L 416.218613 311.067077 
L 416.238582 310.841581 
L 416.271864 306.50497 
L 416.385023 309.69919 
L 416.61134 311.055895 
L 416.957473 311.849791 
L 417.044006 311.954153 
L 417.656394 312.475963 
L 418.654852 312.90832 
L 419.353773 312.999077 
L 419.43365 312.585916 
L 419.659967 288.301268 
L 419.706562 83.90098 
L 419.779782 257.887221 
L 419.813064 266.273447 
L 419.826377 247.618753 
L 419.859659 163.476949 
L 419.932879 264.726654 
L 420.085976 300.097893 
L 420.338919 307.775949 
L 420.605174 309.85946 
L 420.804866 310.545267 
L 420.811522 310.364498 
L 420.824835 292.438473 
L 420.87143 210.626177 
L 420.931337 287.947183 
L 421.091091 304.104646 
L 421.137686 303.061026 
L 421.270813 307.474045 
L 421.330721 300.358798 
L 421.377316 288.413084 
L 421.443879 298.197015 
L 421.636915 306.622377 
L 421.856576 308.838204 
L 421.909827 309.21838 
L 421.936452 308.83075 
L 421.949765 306.55156 
L 422.06958 226.280466 
L 422.096206 254.998632 
L 422.202708 294.823888 
L 422.222677 282.412274 
L 422.249303 273.783779 
L 422.315867 290.70532 
L 422.488933 301.737866 
L 422.635373 306.801283 
L 422.661999 305.036448 
L 422.675312 297.693841 
L 422.768501 305.558258 
L 422.841721 306.320473 
L 422.868347 305.50235 
L 422.914942 302.986482 
L 422.988162 305.110993 
L 423.214479 308.687252 
L 423.474078 310.366361 
L 423.953338 311.603795 
L 424.113092 311.812519 
L 424.332753 312.073424 
L 424.459224 312.170332 
L 424.599008 312.289602 
L 424.605665 312.274694 
L 425.391119 312.595234 
L 425.524247 311.970926 
L 425.797159 298.886549 
L 425.843753 303.116934 
L 425.890348 305.297353 
L 425.970225 304.477367 
L 425.990194 304.812816 
L 426.016819 303.191479 
L 426.050101 278.927331 
L 426.123322 238.673445 
L 426.16326 276.784184 
L 426.316357 303.340567 
L 426.542674 309.063701 
L 426.815586 310.852762 
L 427.108467 311.603795 
L 427.234939 311.801338 
L 427.28819 311.872155 
L 427.321472 311.758475 
L 427.334785 311.689521 
L 427.354754 311.745429 
L 427.368067 295.90478 
L 427.461256 308.704025 
L 427.647635 311.044714 
L 427.967142 311.909427 
L 428.419776 312.259785 
L 428.572873 312.274694 
L 428.732627 312.375328 
L 428.739283 312.38651 
L 428.759252 312.265376 
L 428.792534 312.01938 
L 428.865754 312.289602 
L 429.045477 312.207604 
L 429.065446 311.180757 
L 429.092072 270.541104 
L 429.185261 303.694652 
L 429.218543 304.79418 
L 429.231856 302.762849 
L 429.27845 273.131517 
L 429.351671 296.035232 
L 429.438204 303.769196 
L 429.44486 303.098298 
L 429.458173 283.381349 
L 429.551362 303.415111 
L 429.737741 309.039474 
L 430.003997 310.944079 
L 430.955861 312.334329 
L 431.075676 312.434964 
L 431.202147 312.505781 
L 431.222116 312.475963 
L 431.235429 305.657029 
L 431.335275 311.769656 
L 431.461746 306.45838 
L 431.534967 309.002202 
L 431.734658 311.38389 
L 431.967632 312.095787 
L 432.926152 313.061135 
L 432.939465 313.040076 
L 432.98606 312.863593 
L 433.065936 312.937392 
L 433.258972 313.112571 
L 433.425381 313.215255 
L 433.758201 313.230723 
L 433.864703 313.252714 
L 434.011144 313.269859 
L 434.124302 313.310858 
L 434.397214 313.420438 
L 434.616875 313.486783 
L 435.362391 313.596736 
L 435.655272 313.622528 
L 436.533916 313.51455 
L 436.58051 313.366767 
L 436.60048 313.406834 
L 436.627105 312.416328 
L 436.726951 312.935155 
L 437.026488 313.374221 
L 437.372621 313.500946 
L 438.497551 313.611943 
L 438.910247 313.6311 
L 439.183159 313.547164 
L 439.203128 312.136787 
L 439.223097 312.468509 
L 439.23641 303.5642 
L 439.329599 311.650386 
L 439.509322 312.9851 
L 439.522635 312.993486 
L 439.555917 313.076789 
L 439.848798 313.335458 
L 440.414591 313.556109 
L 442.544636 313.68358 
L 448.422228 313.576049 
L 448.5487 313.319058 
L 448.615263 313.46796 
L 448.848237 313.596176 
L 449.527189 313.652793 
L 450.252735 313.615111 
L 450.272705 295.848872 
L 450.312643 212.862504 
L 450.379207 292.065752 
L 450.545617 310.981351 
L 450.745308 312.962737 
L 451.324414 313.513619 
L 451.856925 313.513991 
L 451.890207 293.947994 
L 451.930146 245.624694 
L 452.003366 281.722739 
L 452.189745 302.837394 
L 452.402749 308.018218 
L 452.968543 312.893411 
L 453.10167 313.094866 
L 453.800591 313.466656 
L 454.253226 313.525546 
L 454.333102 313.501692 
L 454.339759 313.451188 
L 454.353072 312.606415 
L 454.386354 287.742186 
L 454.459574 183.976613 
L 454.512825 235.971216 
L 454.672578 297.209304 
L 454.932178 308.046172 
L 455.191777 311.618704 
L 455.44472 312.587779 
L 455.744257 312.990691 
L 456.063764 313.147234 
L 456.07042 313.127293 
L 456.130328 312.996282 
L 456.190235 313.076789 
L 456.389927 313.310858 
L 456.496429 313.23501 
L 456.576306 311.708157 
L 456.589619 309.097246 
L 456.722746 36.19267 
L 456.78931 136.827386 
L 456.949064 287.444009 
L 457.155412 300.265618 
L 457.468262 305.353261 
L 457.814394 307.354774 
L 457.900928 307.768495 
L 458.167183 308.979838 
L 458.353562 309.613464 
L 458.373531 309.568738 
L 458.41347 309.464376 
L 458.526628 308.627617 
L 458.586536 308.331304 
L 458.63313 308.547482 
L 458.819509 309.307833 
L 458.906042 309.412195 
L 458.999232 309.837097 
L 459.332051 310.567631 
L 459.398615 310.668265 
L 459.531743 310.873262 
L 459.61162 310.966442 
L 459.784686 311.126712 
L 459.844593 311.231074 
L 460.71658 312.04547 
L 460.849708 312.073424 
L 461.069369 312.181513 
L 461.502035 312.401419 
L 461.681757 312.502053 
L 461.834854 312.550507 
L 462.167674 312.658596 
L 462.327427 312.714505 
L 462.693528 312.818866 
L 462.899876 312.885956 
L 463.252665 312.988827 
L 463.419075 313.023118 
L 464.490754 313.133443 
L 464.617225 313.170715 
L 465.722186 313.270604 
L 465.855314 313.31384 
L 465.948503 313.203887 
L 466.074974 313.04399 
L 466.221415 312.919874 
L 466.281323 312.490872 
L 466.354543 312.554234 
L 466.620798 312.789049 
L 467.100059 312.684687 
L 467.120028 312.403282 
L 467.186592 311.02235 
L 467.246499 311.357799 
L 467.432878 311.901972 
L 467.499442 312.006334 
L 467.8722 312.427509 
L 467.885513 312.416328 
L 467.972046 312.475963 
L 468.131799 312.373465 
L 468.191706 312.056652 
L 468.224988 301.905591 
L 468.251614 272.386074 
L 468.344803 298.197015 
L 468.564464 303.396475 
L 468.650997 304.999176 
L 468.864002 307.343592 
L 468.990473 308.331304 
L 469.010442 307.746131 
L 469.057037 305.465078 
L 469.130257 306.676422 
L 469.409826 310.001094 
L 469.609518 310.97576 
L 470.621289 312.257921 
L 470.641258 312.237421 
L 471.020672 312.345511 
L 471.233677 312.490872 
L 471.440025 312.580325 
L 471.573153 312.647415 
L 471.866034 312.548644 
L 471.912628 312.285875 
L 471.999162 312.408873 
L 472.391889 312.684687 
L 472.75799 312.789049 
L 472.911087 312.833775 
L 473.410316 312.939628 
L 473.536788 312.949132 
L 473.543444 312.917638 
L 474.016048 312.893411 
L 474.222396 312.964228 
L 474.661718 312.880365 
L 474.708312 312.54678 
L 474.76822 309.018974 
L 474.84144 310.575085 
L 475.041132 311.976517 
L 475.240823 312.367874 
L 475.553674 312.684687 
L 475.740053 312.792776 
L 476.072872 312.923228 
L 476.086185 312.863593 
L 476.272564 312.067833 
L 476.325815 312.215058 
L 476.425661 312.475963 
L 476.438974 312.311966 
L 476.458943 311.182621 
L 476.605383 274.417405 
L 476.645322 289.848061 
L 476.811732 304.79418 
L 477.084644 309.788643 
L 477.384181 311.484525 
L 477.64378 312.147968 
L 478.04982 312.625051 
L 478.302763 312.356692 
L 478.356014 312.438691 
L 478.45586 312.602688 
L 478.482485 312.556098 
L 478.495798 312.369737 
L 478.542393 268.211597 
L 478.608957 295.662511 
L 478.76871 306.495652 
L 479.014997 310.891898 
L 479.361129 311.879609 
L 479.434349 311.983971 
L 479.673979 312.416328 
L 479.773825 312.516962 
L 480.000142 312.684687 
L 480.153239 312.792776 
L 480.359587 312.923228 
L 480.572592 312.869184 
L 480.61253 311.607523 
L 480.665781 258.874932 
L 480.745658 299.613355 
L 480.832191 303.992829 
L 480.838847 303.545564 
L 480.872129 220.316927 
L 480.952006 297.544753 
L 481.151698 306.214247 
L 481.404641 309.911641 
L 481.531112 309.814734 
L 481.577707 309.613464 
L 481.624302 309.898596 
L 481.863932 311.031668 
L 481.943808 311.098758 
L 481.890557 310.985078 
L 481.970434 311.031668 
L 481.97709 311.02235 
L 481.997059 311.163984 
L 482.176782 311.663431 
L 482.196751 311.473343 
L 482.296597 305.558258 
L 482.336535 307.632451 
L 482.529571 310.919852 
L 482.749231 311.812519 
L 482.755888 311.75102 
L 483.481434 312.759231 
L 483.774315 312.863593 
L 484.020602 312.976155 
L 484.273545 313.082753 
L 484.639646 313.370494 
L 484.959153 313.475601 
L 485.125563 313.515855 
L 485.411787 313.551636 
L 485.418444 313.349808 
L 485.431757 305.875071 
L 485.524946 311.462161 
L 485.717981 312.68096 
L 485.957611 313.000009 
L 485.964268 312.99125 
L 485.990893 312.263512 
L 486.084083 312.61387 
L 486.330369 313.052935 
L 486.829598 313.534491 
L 486.856224 313.407207 
L 486.962726 313.31384 
L 486.976039 313.318872 
L 487.26892 313.223642 
L 487.335484 313.197551 
L 487.375422 313.247496 
L 487.461956 313.352603 
L 487.721555 313.525546 
L 487.821401 313.523123 
L 487.84137 308.534437 
L 487.934559 311.320527 
L 488.134251 312.496463 
L 488.360568 312.917638 
L 488.626824 313.223642 
L 488.640137 312.91391 
L 488.733326 313.170715 
L 488.739982 313.184133 
L 488.786577 313.091139 
L 488.899736 311.879609 
L 488.933018 311.991425 
L 489.179304 312.755504 
L 490.024666 313.542691 
L 490.370798 313.652774 
L 490.603772 313.664459 
L 490.610428 313.638834 
L 490.696961 310.347725 
L 490.856714 311.195666 
L 491.063063 312.399555 
L 491.236129 312.710777 
L 491.469102 312.964228 
L 491.535666 312.955282 
L 491.575605 312.988827 
L 492.41431 313.551636 
L 495.655972 313.518091 
L 495.669284 313.366021 
L 495.76913 313.447274 
L 495.882289 313.459947 
L 495.895602 313.472619 
L 496.734307 313.581454 
L 496.874091 313.61731 
L 515.445419 313.536355 
L 515.525296 313.103812 
L 515.625142 313.223642 
L 515.818177 313.333967 
L 516.104402 313.403293 
L 517.109517 313.506164 
L 517.249301 313.515855 
L 517.91494 313.407207 
L 518.001473 313.333967 
L 518.048068 313.352603 
L 518.261072 313.25905 
L 518.32098 313.170715 
L 518.380887 313.223642 
L 518.507359 313.190842 
L 518.553953 312.600825 
L 518.63383 312.733141 
L 518.920055 313.000009 
L 519.539099 313.170715 
L 519.68554 313.082753 
L 519.938482 313.170715 
L 520.07161 313.247496 
L 520.344522 313.352603 
L 520.517588 313.403293 
L 521.256448 313.513432 
L 521.609236 313.525546 
L 522.993765 313.426029 
L 523.140206 312.968514 
L 523.166832 311.145348 
L 523.253365 311.903836 
L 523.459713 312.647415 
L 523.805845 313.011936 
L 524.151977 313.270604 
L 524.3317 313.370494 
L 524.484797 313.433111 
L 524.924119 313.542691 
L 525.463286 313.606799 
L 526.328617 313.5658 
L 526.335273 313.48026 
L 526.348586 306.745375 
L 526.448432 310.724173 
L 526.648124 312.274694 
L 526.987599 312.830048 
L 527.114071 312.434964 
L 527.154009 311.365254 
L 527.240542 311.685794 
L 527.513454 312.401419 
L 527.859587 312.77414 
L 528.085904 312.874775 
L 528.25897 312.952301 
L 528.598446 313.058899 
L 528.871358 313.241532 
L 528.878014 313.223642 
L 528.944578 313.292968 
L 528.964547 313.292968 
L 529.05108 313.234823 
L 529.091019 312.985659 
L 529.137613 280.49276 
L 529.210834 301.421053 
L 529.417182 308.96493 
L 529.450464 308.920203 
L 529.463776 308.730115 
L 529.510371 300.601067 
L 529.536997 295.476151 
L 529.603561 302.874666 
L 529.816565 308.44312 
L 530.189323 311.415571 
L 530.289169 311.745429 
L 530.608676 312.25233 
L 530.941495 312.259785 
L 530.981433 309.922823 
L 531.081279 310.947806 
L 531.39413 312.095787 
L 531.460693 312.192695 
L 531.667042 312.416328 
L 531.966579 312.714505 
L 531.973236 312.699596 
L 532.033143 312.759231 
L 532.059769 312.766685 
L 532.798628 313.079771 
L 532.945068 312.218785 
L 532.97835 311.819974 
L 533.058227 312.118151 
L 533.404359 312.759231 
L 533.510862 312.654869 
L 533.544144 310.671993 
L 533.577426 299.371087 
L 533.610707 243.42564 
L 533.683928 293.25846 
L 533.850338 305.204173 
L 534.176501 310.677583 
L 534.236408 310.97576 
L 534.256377 310.535949 
L 534.276346 302.466536 
L 534.329598 197.208215 
L 534.389505 281.648195 
L 534.549258 302.762849 
L 534.689043 306.11734 
L 534.715668 304.98054 
L 534.742294 305.260081 
L 534.828827 296.314773 
L 534.875422 115.023197 
L 534.955298 275.871017 
L 535.121708 301.737866 
L 535.334712 307.05287 
L 535.407933 308.103944 
L 535.46784 307.392046 
L 535.487809 307.270912 
L 535.547717 307.729359 
L 535.674188 309.061837 
L 535.867224 310.733492 
L 536.11351 311.700703 
L 536.652678 312.647415 
L 536.885651 312.548644 
L 536.932246 311.939244 
L 536.965528 308.704025 
L 537.065374 310.752128 
L 537.298348 312.147968 
L 537.57126 312.677232 
L 537.890766 312.964228 
L 537.897423 312.903101 
L 537.937361 312.833775 
L 538.003925 312.897138 
L 538.043863 312.900865 
L 538.05052 312.880365 
L 538.070489 311.581432 
L 538.110427 221.435091 
L 538.190304 286.325846 
L 538.356714 304.160554 
L 538.649595 309.825915 
L 538.855943 311.098758 
L 539.222044 312.170332 
L 539.441705 312.373465 
L 539.455018 312.349238 
L 539.494956 312.147968 
L 539.56152 312.341783 
L 540.406882 313.247496 
L 540.420194 313.146116 
L 540.440164 312.955282 
L 540.513384 313.223642 
L 540.52004 313.223642 
L 540.526697 313.247496 
L 540.533353 313.14127 
L 540.626543 303.079662 
L 540.713076 308.847522 
L 540.859516 310.985078 
L 541.112459 312.367874 
L 541.445279 312.915774 
L 541.73816 313.197551 
L 541.891257 313.370494 
L 542.064323 313.472619 
L 542.224076 313.534491 
L 543.475477 313.640791 
L 543.675169 313.668447 
L 544.660315 313.601693 
L 544.740192 313.347758 
L 544.773474 313.500946 
L 544.826725 313.594872 
L 544.846694 309.989913 
L 544.939883 311.903836 
L 545.046386 312.667914 
L 545.059698 312.36601 
L 545.086324 304.738272 
L 545.09298 301.383781 
L 545.152888 310.770764 
L 545.179513 310.535949 
L 545.246077 311.603795 
L 545.325954 311.365254 
L 545.365892 311.484525 
L 545.385861 311.20312 
L 545.399174 311.059623 
L 545.472394 311.566523 
L 545.751963 312.714505 
L 546.024875 313.058899 
L 546.131377 312.889683 
L 546.224567 313.026099 
L 546.763734 313.5658 
L 547.123179 313.480819 
L 547.143148 313.403293 
L 547.223025 313.525546 
L 547.396091 313.634082 
L 547.58247 313.670012 
L 549.133409 313.680449 
L 550.564533 313.608346 
L 550.604471 312.872911 
L 550.684348 313.39938 
L 550.697661 313.270232 
L 550.71763 312.915774 
L 550.804163 313.197551 
L 551.010511 313.5658 
L 551.170264 313.663154 
L 551.662837 313.573459 
L 551.669494 313.521073 
L 551.689463 274.622401 
L 551.775996 311.350345 
L 551.789309 311.840473 
L 551.809278 310.571358 
L 551.869185 311.732384 
L 551.882498 303.005118 
L 551.982344 307.431182 
L 552.095503 309.893005 
L 552.102159 309.121472 
L 552.135441 216.030634 
L 552.215318 295.830236 
L 552.288538 302.967846 
L 552.301851 295.420242 
L 552.335133 236.343937 
L 552.408353 292.587561 
L 552.574763 305.968251 
L 552.907582 311.566523 
L 553.180494 312.464781 
L 553.293653 312.617597 
L 553.300309 312.591507 
L 553.320278 304.831452 
L 553.426781 310.422269 
L 553.619816 312.142378 
L 553.872759 312.729413 
L 554.704807 313.495728 
L 555.423698 313.659874 
L 563.304863 313.550518 
L 563.424678 313.419693 
L 563.431335 313.430316 
L 563.584432 313.5248 
L 564.303322 313.651004 
L 569.87472 313.588908 
L 570.034474 313.584436 
L 572.690373 313.492933 
L 572.976598 312.721959 
L 573.023193 312.803958 
L 573.329387 313.333967 
L 573.462514 313.443733 
L 574.068246 313.640791 
L 577.602789 313.624019 
L 577.622758 308.042445 
L 577.715948 310.854626 
L 577.915639 312.373465 
L 578.181895 312.893411 
L 578.701093 313.31384 
L 578.880816 313.418948 
L 579.120446 313.513432 
L 579.266887 313.542691 
L 579.459922 313.594872 
L 579.559768 313.606799 
L 579.566424 313.61731 
L 582.262262 313.536168 
L 582.288888 312.203877 
L 582.328826 236.418482 
L 582.408703 285.990397 
L 582.568456 301.476961 
L 582.595082 302.036043 
L 582.641676 300.768791 
L 582.761491 289.419432 
L 582.834712 182.299368 
L 582.941214 221.435091 
L 583.074342 292.960283 
L 583.287346 303.974193 
L 583.380536 305.334625 
L 583.407161 305.017812 
L 583.460412 288.785806 
L 583.540289 297.637933 
L 583.726668 302.613761 
L 583.946329 306.098704 
L 584.325743 308.368576 
L 584.359025 308.579163 
L 584.738439 310.604903 
L 585.131166 311.357799 
L 585.211043 306.154612 
L 585.297576 306.540378 
L 585.590457 310.012276 
L 586.102999 311.357799 
L 586.169563 311.454707 
L 586.462444 311.849791 
L 586.595572 311.954153 
L 586.888453 312.237421 
L 587.008268 312.341783 
L 587.221273 312.483417 
L 587.454246 312.580325 
L 587.793722 312.481554 
L 587.800379 312.216922 
L 587.840317 160.49518 
L 587.933506 255.389989 
L 588.099916 295.28979 
L 588.119885 290.686684 
L 588.159824 264.372569 
L 588.226387 290.574867 
L 588.419423 302.501945 
L 588.605802 305.260081 
L 588.625771 305.185537 
L 589.05178 308.079717 
L 589.058436 308.018218 
L 589.078405 307.833721 
L 589.138313 308.415166 
L 589.318035 309.704781 
L 589.391256 310.001094 
L 589.404569 309.81287 
L 589.444507 303.247387 
L 589.464476 298.383376 
L 589.551009 303.04239 
L 589.790639 307.442364 
L 590.056895 309.717826 
L 590.556124 311.231074 
L 590.576093 311.08944 
L 590.622688 310.593721 
L 590.662626 306.879555 
L 590.769128 308.987293 
L 590.995446 310.724173 
L 591.527957 311.901972 
L 591.587864 312.006334 
L 591.827494 312.274694 
L 591.847464 312.237421 
L 591.933997 311.728657 
L 592.033843 306.866509 
L 592.100406 307.856084 
L 592.379975 310.752128 
L 592.439882 310.985078 
L 592.49979 310.845308 
L 592.639574 310.522904 
L 592.672856 310.586267 
L 592.799327 310.947806 
L 592.999019 311.454707 
L 593.165429 311.790156 
L 593.331839 312.04547 
L 593.644689 312.330602 
L 593.651345 312.216922 
L 593.677971 308.409575 
L 593.79113 215.471552 
L 593.844381 280.06413 
L 594.024103 298.718825 
L 594.25042 304.999176 
L 594.842839 310.422269 
L 595.235566 311.680203 
L 595.355381 311.901972 
L 595.535104 312.198286 
L 595.681544 312.274694 
L 595.841298 312.257921 
L 595.914518 307.451682 
L 595.974425 309.6526 
L 596.174117 311.700703 
L 596.380465 312.241149 
L 596.699972 312.565416 
L 596.919633 312.669778 
L 597.066073 312.710777 
L 597.07273 312.699596 
L 597.092699 312.196422 
L 597.112668 312.006334 
L 597.199201 312.263512 
L 597.452144 312.725686 
L 598.27088 313.064862 
L 598.410664 313.082753 
L 598.703545 313.323904 
L 598.896581 313.418948 
L 599.861757 313.530018 
L 600.088074 313.553127 
L 600.101387 313.508587 
L 600.201233 313.534491 
L 600.853559 313.642245 
L 601.07322 313.656073 
L 601.40604 313.546418 
L 601.465947 313.515855 
L 601.519198 313.534491 
L 603.808996 313.477204 
L 603.815653 313.258864 
L 603.915499 313.555363 
L 604.321539 313.656073 
L 605.253433 313.677392 
L 605.912416 313.573627 
L 606.058856 313.559091 
L 606.298486 313.646606 
L 607.057315 313.678324 
L 610.31229 313.5248 
L 610.332259 310.619812 
L 610.398823 300.470614 
L 610.452074 306.102431 
L 610.645109 311.581432 
L 610.651765 311.484525 
L 610.705017 309.883687 
L 610.724986 296.296137 
L 610.818175 305.893707 
L 611.01121 310.793127 
L 611.024523 310.683174 
L 611.071118 311.044714 
L 611.097744 310.589994 
L 611.157651 310.977624 
L 611.244184 311.272074 
L 611.596973 312.494599 
L 611.929792 312.84123 
L 612.022982 312.900865 
L 612.189392 313.005227 
L 612.382427 313.123752 
L 612.462303 313.22066 
L 612.595431 313.310858 
L 612.688621 313.366021 
L 612.775154 313.410002 
L 612.78181 313.337135 
L 612.788467 313.280109 
L 612.848374 313.426402 
L 612.881656 313.427334 
L 613.74033 313.604376 
L 613.900084 313.626423 
L 614.206278 313.617589 
L 614.339405 313.614794 
L 614.732132 313.658682 
L 620.476597 313.567291 
L 620.603068 313.573254 
L 620.609725 313.580709 
L 620.696258 313.589654 
L 620.722883 313.563563 
L 620.922575 313.451933 
L 620.949201 311.983971 
L 621.035734 312.371601 
L 621.262051 312.893411 
L 621.85447 313.391739 
L 622.233884 313.535982 
L 622.393637 313.556482 
L 622.699831 313.531509 
L 622.872897 313.510823 
L 622.986056 313.427706 
L 623.12584 312.885956 
L 623.192404 312.923228 
L 623.245655 312.856139 
L 623.36547 312.826321 
L 623.398752 311.926199 
L 623.498598 312.243012 
L 623.738228 312.669778 
L 624.210832 313.035045 
L 624.370585 313.133443 
L 624.497057 313.229605 
L 624.65681 313.292968 
L 624.943035 313.383353 
L 625.06285 313.387639 
L 625.61533 313.498337 
L 625.828335 313.525546 
L 626.340877 313.581454 
L 627.545683 313.472619 
L 627.652185 313.313095 
L 627.672155 309.091655 
L 627.765344 311.229211 
L 627.985005 312.459191 
L 628.217979 312.818866 
L 628.397701 312.952301 
L 628.663957 313.058899 
L 628.863648 313.197551 
L 629.036715 313.298186 
L 629.15653 313.366021 
L 629.176499 313.352603 
L 629.489349 313.433111 
L 629.569226 313.302845 
L 629.722323 312.792776 
L 629.842138 311.186348 
L 629.882076 309.613464 
L 629.961953 310.463269 
L 630.208239 311.948563 
L 630.314741 312.170332 
L 630.494464 312.4536 
L 631.259949 312.952301 
L 631.646019 313.067844 
L 631.652676 313.032063 
L 631.679301 312.748049 
L 631.732553 261.744885 
L 631.745865 255.184992 
L 631.805773 288.487629 
L 631.972183 304.496003 
L 632.1985 308.761797 
L 632.338284 310.045821 
L 632.371566 309.565011 
L 632.431474 302.036043 
L 632.444786 298.774733 
L 632.531319 304.048737 
L 632.737667 307.820676 
L 632.837513 308.331304 
L 632.870795 308.184079 
L 632.904077 307.831857 
L 632.937359 305.819163 
L 632.983954 263.217133 
L 633.010579 236.157577 
L 633.070487 283.269532 
L 633.243553 301.905591 
L 633.46987 306.214247 
L 634.142166 311.02235 
L 634.168791 310.88258 
L 634.248668 309.825915 
L 634.341857 300.321526 
L 634.441703 304.197826 
L 634.721272 308.040581 
L 635.00084 309.945186 
L 635.133968 310.38127 
L 635.353629 310.910534 
L 635.373598 310.826672 
L 635.460131 309.305969 
L 635.493413 307.257867 
L 635.579946 308.644389 
L 635.799607 310.120365 
L 635.939391 310.513586 
L 635.95936 310.336543 
L 636.025924 308.789751 
L 636.072519 304.253734 
L 636.159052 306.005523 
L 636.418651 308.96493 
L 636.811378 310.724173 
L 636.851316 310.808036 
L 637.15751 311.618704 
L 637.370515 311.954153 
L 637.483674 312.056652 
L 637.65674 312.203877 
L 637.663396 312.192695 
L 637.716647 312.25233 
L 637.749929 312.25233 
L 637.89637 312.356692 
L 638.109374 312.459191 
L 638.222533 312.528144 
L 638.229189 312.483417 
L 638.428881 306.229156 
L 638.475476 273.243333 
L 638.562009 298.029291 
L 638.768357 305.520986 
L 638.981361 307.310048 
L 639.0213 307.110642 
L 639.081207 305.353261 
L 639.121145 297.041579 
L 639.161084 284.853597 
L 639.247617 291.50667 
L 639.467278 303.433747 
L 639.660313 305.986887 
L 639.906599 308.275395 
L 640.179511 310.084957 
L 640.399172 310.957124 
L 640.439111 310.668265 
L 640.505675 308.875476 
L 640.558926 305.483714 
L 640.638802 306.806874 
L 640.885089 309.182971 
L 640.891745 309.143836 
L 640.944996 309.464376 
L 640.978278 309.568738 
L 641.217908 310.463269 
L 641.497477 311.260892 
L 641.564041 311.357799 
L 641.757076 311.618704 
L 642.016675 311.93179 
L 642.123177 312.039879 
L 642.37612 312.25233 
L 643.041759 312.669778 
L 643.221482 312.604552 
L 643.234794 312.371601 
L 643.254764 286.30721 
L 643.381235 302.986482 
L 643.560958 307.05287 
L 643.567614 307.041688 
L 643.580927 307.218731 
L 643.760649 308.234396 
L 643.807244 308.077853 
L 643.827213 305.614166 
L 643.927059 306.39129 
L 644.000279 303.47102 
L 644.0735 305.166901 
L 644.373037 308.920203 
L 644.659262 310.440905 
L 644.6992 310.534086 
L 644.912205 311.193802 
L 644.965456 311.298164 
L 645.171804 311.603795 
L 645.17846 311.596341 
L 645.238368 311.693249 
L 645.497967 312.051061 
L 645.504623 312.04547 
L 645.770879 311.126712 
L 645.864069 311.424889 
L 646.136981 311.954153 
L 646.323359 312.142378 
L 646.423205 312.192695 
L 646.443174 312.220649 
L 646.463144 312.090197 
L 646.516395 312.125605 
L 646.596271 311.303755 
L 646.602928 311.048441 
L 646.649523 298.662917 
L 646.722743 304.812816 
L 646.94906 309.017111 
L 647.155408 310.40736 
L 647.335131 311.067077 
L 647.3551 311.048441 
L 647.50154 308.979838 
L 647.588074 309.561283 
L 647.807734 310.660811 
L 648.220431 311.572114 
L 648.832818 312.38651 
L 648.859444 312.297057 
L 648.899382 311.667158 
L 648.952634 304.88736 
L 648.992572 298.047927 
L 649.072449 301.71923 
L 649.278797 306.790102 
L 649.545052 309.527739 
L 649.60496 309.734599 
L 649.638242 309.449467 
L 649.651554 309.31156 
L 649.671524 306.559014 
L 649.691493 295.28979 
L 649.784682 303.508292 
L 650.057594 308.105807 
L 650.330506 310.24709 
L 650.530198 311.059623 
L 650.570136 310.530358 
L 650.656669 310.785672 
L 650.683295 310.858353 
L 650.723233 310.683174 
L 650.856361 305.632802 
L 650.936238 307.297002 
L 651.142586 309.78678 
L 651.435467 311.121122 
L 651.628502 311.521797 
L 651.635159 311.475207 
L 651.655128 304.827725 
L 651.701723 241.562034 
L 651.781599 280.530032 
L 651.921383 292.513017 
L 652.067824 301.253329 
L 652.07448 300.787427 
L 652.161013 296.463862 
L 652.194295 298.569736 
L 652.4073 304.496003 
L 652.473864 305.334625 
L 652.533771 304.775544 
L 652.57371 304.607819 
L 652.600335 304.98054 
L 652.806683 307.511317 
L 652.833309 306.866509 
L 652.906529 298.867913 
L 653.013031 303.116934 
L 653.226036 306.253383 
L 653.259318 306.503106 
L 653.299256 306.135976 
L 653.392446 301.849682 
L 653.492291 304.235098 
L 653.811798 307.775949 
L 653.931613 308.554936 
L 654.197869 310.28809 
L 654.444155 311.221756 
L 654.457468 310.901216 
L 654.544001 306.743511 
L 654.56397 305.856435 
L 654.643847 307.705132 
L 654.89679 310.612357 
L 654.903446 310.638448 
L 654.923415 310.364498 
L 654.996636 308.459892 
L 655.04323 305.110993 
L 655.123107 306.635422 
L 655.509178 310.414815 
L 655.708869 311.005578 
L 655.875279 311.411844 
L 656.088284 311.834883 
L 656.16816 311.737975 
L 656.214755 311.266483 
L 656.228068 308.700298 
L 656.268006 285.226318 
L 656.341226 297.526117 
L 656.780548 308.659298 
L 657.060117 310.284362 
L 657.073429 309.939595 
L 657.120024 307.263457 
L 657.206557 308.866158 
L 657.426218 310.388724 
L 657.432874 310.373816 
L 657.506095 309.660055 
L 657.512751 308.821432 
L 657.566002 146.890857 
L 657.632566 285.021322 
L 657.86554 301.886955 
L 658.078544 307.740541 
L 658.338143 311.63175 
L 658.571117 312.634369 
L 659.343258 313.527037 
L 659.609514 313.63002 
L 660.128712 313.663434 
L 660.135369 313.596736 
L 660.215245 115.76864 
L 660.275153 247.823749 
L 660.434906 299.930168 
L 660.647911 307.075233 
L 660.974074 311.311209 
L 661.207048 311.982107 
L 661.22036 311.946699 
L 661.280268 312.038016 
L 661.47996 312.511371 
L 661.499929 312.490872 
L 662.03244 312.912047 
L 662.19885 312.981932 
L 662.505044 312.931056 
L 662.571607 312.977273 
L 662.631515 312.688414 
L 662.651484 312.662324 
L 662.704735 312.80023 
L 662.871145 313.008582 
L 663.164026 313.093935 
L 663.30381 313.270604 
L 663.410313 313.338626 
L 663.530128 313.484546 
L 664.182454 313.584808 
L 664.308925 313.626255 
L 664.315582 313.61731 
L 664.501961 313.651675 
L 667.683715 313.677951 
L 667.703684 261.521252 
L 667.790217 306.285064 
L 667.890063 311.171439 
L 667.96994 311.115531 
L 668.143006 312.733141 
L 668.635579 313.564309 
L 668.821958 313.660862 
L 669.174746 313.678604 
L 669.920262 313.617422 
L 670.05339 311.81811 
L 670.073359 298.178379 
L 670.159892 311.178893 
L 670.472742 313.291104 
L 670.492712 313.345708 
L 670.506024 313.092071 
L 670.519337 312.9892 
L 670.539306 310.224727 
L 670.632496 312.811412 
L 670.805562 313.13307 
L 670.952002 313.457711 
L 670.958659 313.451002 
L 671.091787 313.499083 
L 671.171663 313.511382 
L 671.204945 313.46591 
L 671.318104 313.423607 
L 671.32476 313.430502 
L 671.378011 313.466656 
L 671.384668 313.398448 
L 671.404637 312.839366 
L 671.511139 313.071571 
L 671.531108 313.032995 
L 671.557734 312.848684 
L 671.637611 313.033554 
L 672.06362 313.586672 
L 675.098933 313.564122 
L 675.10559 313.237619 
L 675.118903 297.917474 
L 675.212092 308.948157 
L 675.298625 311.654113 
L 675.34522 309.961959 
L 675.391815 297.283848 
L 675.465035 306.005523 
L 675.644757 310.778218 
L 675.831136 312.062242 
L 675.831136 312.062242 
" clip-path="url(#pefe4c3789b)" style="fill: none; stroke: #1f77b4; stroke-width: 1.5; stroke-linecap: square"/>
   </g>
   <g id="patch_3">
    <path d="M 46.0125 327.558125 
L 46.0125 22.318125 
" style="fill: none; stroke: #000000; stroke-width: 0.8; stroke-linejoin: miter; stroke-linecap: square"/>
   </g>
   <g id="patch_4">
    <path d="M 705.8225 327.558125 
L 705.8225 22.318125 
" style="fill: none; stroke: #000000; stroke-width: 0.8; stroke-linejoin: miter; stroke-linecap: square"/>
   </g>
   <g id="patch_5">
    <path d="M 46.0125 327.558125 
L 705.8225 327.558125 
" style="fill: none; stroke: #000000; stroke-width: 0.8; stroke-linejoin: miter; stroke-linecap: square"/>
   </g>
   <g id="patch_6">
    <path d="M 46.0125 22.318125 
L 705.8225 22.318125 
" style="fill: none; stroke: #000000; stroke-width: 0.8; stroke-linejoin: miter; stroke-linecap: square"/>
   </g>
   <g id="text_15">
    <!-- training -->
    <g transform="translate(352.674062 16.318125) scale(0.12 -0.12)">
     <defs>
      <path id="DejaVuSans-74" d="M 1172 4494 
L 1172 3500 
L 2356 3500 
L 2356 3053 
L 1172 3053 
L 1172 1153 
Q 1172 725 1289 603 
Q 1406 481 1766 481 
L 2356 481 
L 2356 0 
L 1766 0 
Q 1100 0 847 248 
Q 594 497 594 1153 
L 594 3053 
L 172 3053 
L 172 3500 
L 594 3500 
L 594 4494 
L 1172 4494 
z
" transform="scale(0.015625)"/>
      <path id="DejaVuSans-72" d="M 2631 2963 
Q 2534 3019 2420 3045 
Q 2306 3072 2169 3072 
Q 1681 3072 1420 2755 
Q 1159 2438 1159 1844 
L 1159 0 
L 581 0 
L 581 3500 
L 1159 3500 
L 1159 2956 
Q 1341 3275 1631 3429 
Q 1922 3584 2338 3584 
Q 2397 3584 2469 3576 
Q 2541 3569 2628 3553 
L 2631 2963 
z
" transform="scale(0.015625)"/>
      <path id="DejaVuSans-61" d="M 2194 1759 
Q 1497 1759 1228 1600 
Q 959 1441 959 1056 
Q 959 750 1161 570 
Q 1363 391 1709 391 
Q 2188 391 2477 730 
Q 2766 1069 2766 1631 
L 2766 1759 
L 2194 1759 
z
M 3341 1997 
L 3341 0 
L 2766 0 
L 2766 531 
Q 2569 213 2275 61 
Q 1981 -91 1556 -91 
Q 1019 -91 701 211 
Q 384 513 384 1019 
Q 384 1609 779 1909 
Q 1175 2209 1959 2209 
L 2766 2209 
L 2766 2266 
Q 2766 2663 2505 2880 
Q 2244 3097 1772 3097 
Q 1472 3097 1187 3025 
Q 903 2953 641 2809 
L 641 3341 
Q 956 3463 1253 3523 
Q 1550 3584 1831 3584 
Q 2591 3584 2966 3190 
Q 3341 2797 3341 1997 
z
" transform="scale(0.015625)"/>
      <path id="DejaVuSans-69" d="M 603 3500 
L 1178 3500 
L 1178 0 
L 603 0 
L 603 3500 
z
M 603 4863 
L 1178 4863 
L 1178 4134 
L 603 4134 
L 603 4863 
z
" transform="scale(0.015625)"/>
      <path id="DejaVuSans-6e" d="M 3513 2113 
L 3513 0 
L 2938 0 
L 2938 2094 
Q 2938 2591 2744 2837 
Q 2550 3084 2163 3084 
Q 1697 3084 1428 2787 
Q 1159 2491 1159 1978 
L 1159 0 
L 581 0 
L 581 3500 
L 1159 3500 
L 1159 2956 
Q 1366 3272 1645 3428 
Q 1925 3584 2291 3584 
Q 2894 3584 3203 3211 
Q 3513 2838 3513 2113 
z
" transform="scale(0.015625)"/>
      <path id="DejaVuSans-67" d="M 2906 1791 
Q 2906 2416 2648 2759 
Q 2391 3103 1925 3103 
Q 1463 3103 1205 2759 
Q 947 2416 947 1791 
Q 947 1169 1205 825 
Q 1463 481 1925 481 
Q 2391 481 2648 825 
Q 2906 1169 2906 1791 
z
M 3481 434 
Q 3481 -459 3084 -895 
Q 2688 -1331 1869 -1331 
Q 1566 -1331 1297 -1286 
Q 1028 -1241 775 -1147 
L 775 -588 
Q 1028 -725 1275 -790 
Q 1522 -856 1778 -856 
Q 2344 -856 2625 -561 
Q 2906 -266 2906 331 
L 2906 616 
Q 2728 306 2450 153 
Q 2172 0 1784 0 
Q 1141 0 747 490 
Q 353 981 353 1791 
Q 353 2603 747 3093 
Q 1141 3584 1784 3584 
Q 2172 3584 2450 3431 
Q 2728 3278 2906 2969 
L 2906 3500 
L 3481 3500 
L 3481 434 
z
" transform="scale(0.015625)"/>
     </defs>
     <use xlink:href="#DejaVuSans-74"/>
     <use xlink:href="#DejaVuSans-72" x="39.208984"/>
     <use xlink:href="#DejaVuSans-61" x="80.322266"/>
     <use xlink:href="#DejaVuSans-69" x="141.601562"/>
     <use xlink:href="#DejaVuSans-6e" x="169.384766"/>
     <use xlink:href="#DejaVuSans-69" x="232.763672"/>
     <use xlink:href="#DejaVuSans-6e" x="260.546875"/>
     <use xlink:href="#DejaVuSans-67" x="323.925781"/>
    </g>
   </g>
   <g id="legend_1">
    <g id="patch_7">
     <path d="M 620.461563 44.99625 
L 698.8225 44.99625 
Q 700.8225 44.99625 700.8225 42.99625 
L 700.8225 29.318125 
Q 700.8225 27.318125 698.8225 27.318125 
L 620.461563 27.318125 
Q 618.461563 27.318125 618.461563 29.318125 
L 618.461563 42.99625 
Q 618.461563 44.99625 620.461563 44.99625 
z
" style="fill: #ffffff; opacity: 0.8; stroke: #cccccc; stroke-linejoin: miter"/>
    </g>
    <g id="line2d_16">
     <path d="M 622.461563 35.416563 
L 632.461563 35.416563 
L 642.461563 35.416563 
" style="fill: none; stroke: #1f77b4; stroke-width: 1.5; stroke-linecap: square"/>
    </g>
    <g id="text_16">
     <!-- observed -->
     <g transform="translate(650.461563 38.916563) scale(0.1 -0.1)">
      <defs>
       <path id="DejaVuSans-6f" d="M 1959 3097 
Q 1497 3097 1228 2736 
Q 959 2375 959 1747 
Q 959 1119 1226 758 
Q 1494 397 1959 397 
Q 2419 397 2687 759 
Q 2956 1122 2956 1747 
Q 2956 2369 2687 2733 
Q 2419 3097 1959 3097 
z
M 1959 3584 
Q 2709 3584 3137 3096 
Q 3566 2609 3566 1747 
Q 3566 888 3137 398 
Q 2709 -91 1959 -91 
Q 1206 -91 779 398 
Q 353 888 353 1747 
Q 353 2609 779 3096 
Q 1206 3584 1959 3584 
z
" transform="scale(0.015625)"/>
       <path id="DejaVuSans-62" d="M 3116 1747 
Q 3116 2381 2855 2742 
Q 2594 3103 2138 3103 
Q 1681 3103 1420 2742 
Q 1159 2381 1159 1747 
Q 1159 1113 1420 752 
Q 1681 391 2138 391 
Q 2594 391 2855 752 
Q 3116 1113 3116 1747 
z
M 1159 2969 
Q 1341 3281 1617 3432 
Q 1894 3584 2278 3584 
Q 2916 3584 3314 3078 
Q 3713 2572 3713 1747 
Q 3713 922 3314 415 
Q 2916 -91 2278 -91 
Q 1894 -91 1617 61 
Q 1341 213 1159 525 
L 1159 0 
L 581 0 
L 581 4863 
L 1159 4863 
L 1159 2969 
z
" transform="scale(0.015625)"/>
       <path id="DejaVuSans-73" d="M 2834 3397 
L 2834 2853 
Q 2591 2978 2328 3040 
Q 2066 3103 1784 3103 
Q 1356 3103 1142 2972 
Q 928 2841 928 2578 
Q 928 2378 1081 2264 
Q 1234 2150 1697 2047 
L 1894 2003 
Q 2506 1872 2764 1633 
Q 3022 1394 3022 966 
Q 3022 478 2636 193 
Q 2250 -91 1575 -91 
Q 1294 -91 989 -36 
Q 684 19 347 128 
L 347 722 
Q 666 556 975 473 
Q 1284 391 1588 391 
Q 1994 391 2212 530 
Q 2431 669 2431 922 
Q 2431 1156 2273 1281 
Q 2116 1406 1581 1522 
L 1381 1569 
Q 847 1681 609 1914 
Q 372 2147 372 2553 
Q 372 3047 722 3315 
Q 1072 3584 1716 3584 
Q 2034 3584 2315 3537 
Q 2597 3491 2834 3397 
z
" transform="scale(0.015625)"/>
       <path id="DejaVuSans-65" d="M 3597 1894 
L 3597 1613 
L 953 1613 
Q 991 1019 1311 708 
Q 1631 397 2203 397 
Q 2534 397 2845 478 
Q 3156 559 3463 722 
L 3463 178 
Q 3153 47 2828 -22 
Q 2503 -91 2169 -91 
Q 1331 -91 842 396 
Q 353 884 353 1716 
Q 353 2575 817 3079 
Q 1281 3584 2069 3584 
Q 2775 3584 3186 3129 
Q 3597 2675 3597 1894 
z
M 3022 2063 
Q 3016 2534 2758 2815 
Q 2500 3097 2075 3097 
Q 1594 3097 1305 2825 
Q 1016 2553 972 2059 
L 3022 2063 
z
" transform="scale(0.015625)"/>
       <path id="DejaVuSans-76" d="M 191 3500 
L 800 3500 
L 1894 563 
L 2988 3500 
L 3597 3500 
L 2284 0 
L 1503 0 
L 191 3500 
z
" transform="scale(0.015625)"/>
       <path id="DejaVuSans-64" d="M 2906 2969 
L 2906 4863 
L 3481 4863 
L 3481 0 
L 2906 0 
L 2906 525 
Q 2725 213 2448 61 
Q 2172 -91 1784 -91 
Q 1150 -91 751 415 
Q 353 922 353 1747 
Q 353 2572 751 3078 
Q 1150 3584 1784 3584 
Q 2172 3584 2448 3432 
Q 2725 3281 2906 2969 
z
M 947 1747 
Q 947 1113 1208 752 
Q 1469 391 1925 391 
Q 2381 391 2643 752 
Q 2906 1113 2906 1747 
Q 2906 2381 2643 2742 
Q 2381 3103 1925 3103 
Q 1469 3103 1208 2742 
Q 947 2381 947 1747 
z
" transform="scale(0.015625)"/>
      </defs>
      <use xlink:href="#DejaVuSans-6f"/>
      <use xlink:href="#DejaVuSans-62" x="61.181641"/>
      <use xlink:href="#DejaVuSans-73" x="124.658203"/>
      <use xlink:href="#DejaVuSans-65" x="176.757812"/>
      <use xlink:href="#DejaVuSans-72" x="238.28125"/>
      <use xlink:href="#DejaVuSans-76" x="279.394531"/>
      <use xlink:href="#DejaVuSans-65" x="338.574219"/>
      <use xlink:href="#DejaVuSans-64" x="400.097656"/>
     </g>
    </g>
   </g>
  </g>
 </g>
 <defs>
  <clipPath id="pefe4c3789b">
   <rect x="46.0125" y="22.318125" width="659.81" height="305.24"/>
  </clipPath>
 </defs>
</svg>
