<?xml version="1.0" encoding="utf-8" standalone="no"?>
<!DOCTYPE svg PUBLIC "-//W3C//DTD SVG 1.1//EN"
  "http://www.w3.org/Graphics/SVG/1.1/DTD/svg11.dtd">
<svg xmlns:xlink="http://www.w3.org/1999/xlink" width="720pt" height="360pt" viewBox="0 0 720 360" xmlns="http://www.w3.org/2000/svg" version="1.1">
 <metadata>
  <rdf:RDF xmlns:dc="http://purl.org/dc/elements/1.1/" xmlns:cc="http://creativecommons.org/ns#" xmlns:rdf="http://www.w3.org/1999/02/22-rdf-syntax-ns#">
   <cc:Work>
    <dc:type rdf:resource="http://purl.org/dc/dcmitype/StillImage"/>
    <dc:date>2023-10-23T10:54:38.943343</dc:date>
    <dc:format>image/svg+xml</dc:format>
    <dc:creator>
     <cc:Agent>
      <dc:title>Matplotlib v3.7.1, https://matplotlib.org/</dc:title>
     </cc:Agent>
    </dc:creator>
   </cc:Work>
  </rdf:RDF>
 </metadata>
 <defs>
  <style type="text/css">*{stroke-linejoin: round; stroke-linecap: butt}</style>
 </defs>
 <g id="figure_1">
  <g id="patch_1">
   <path d="M 0 360 
L 720 360 
L 720 0 
L 0 0 
z
" style="fill: #ffffff"/>
  </g>
  <g id="axes_1">
   <g id="patch_2">
    <path d="M 90 288 
L 648 288 
L 648 43.2 
L 90 43.2 
z
" style="fill: #ffffff"/>
   </g>
   <g id="matplotlib.axis_1">
    <g id="xtick_1">
     <g id="line2d_1">
      <defs>
       <path id="mc2d6fa6d42" d="M 0 0 
L 0 3.5 
" style="stroke: #000000; stroke-width: 0.8"/>
      </defs>
      <g>
       <use xlink:href="#mc2d6fa6d42" x="149.370747" y="288" style="stroke: #000000; stroke-width: 0.8"/>
      </g>
     </g>
     <g id="text_1">
      <!-- 2023-08-15 -->
      <g transform="translate(87.727405 337.765903) rotate(-30) scale(0.12 -0.12)">
       <defs>
        <path id="DejaVuSans-32" d="M 1228 531 
L 3431 531 
L 3431 0 
L 469 0 
L 469 531 
Q 828 903 1448 1529 
Q 2069 2156 2228 2338 
Q 2531 2678 2651 2914 
Q 2772 3150 2772 3378 
Q 2772 3750 2511 3984 
Q 2250 4219 1831 4219 
Q 1534 4219 1204 4116 
Q 875 4013 500 3803 
L 500 4441 
Q 881 4594 1212 4672 
Q 1544 4750 1819 4750 
Q 2544 4750 2975 4387 
Q 3406 4025 3406 3419 
Q 3406 3131 3298 2873 
Q 3191 2616 2906 2266 
Q 2828 2175 2409 1742 
Q 1991 1309 1228 531 
z
" transform="scale(0.015625)"/>
        <path id="DejaVuSans-30" d="M 2034 4250 
Q 1547 4250 1301 3770 
Q 1056 3291 1056 2328 
Q 1056 1369 1301 889 
Q 1547 409 2034 409 
Q 2525 409 2770 889 
Q 3016 1369 3016 2328 
Q 3016 3291 2770 3770 
Q 2525 4250 2034 4250 
z
M 2034 4750 
Q 2819 4750 3233 4129 
Q 3647 3509 3647 2328 
Q 3647 1150 3233 529 
Q 2819 -91 2034 -91 
Q 1250 -91 836 529 
Q 422 1150 422 2328 
Q 422 3509 836 4129 
Q 1250 4750 2034 4750 
z
" transform="scale(0.015625)"/>
        <path id="DejaVuSans-33" d="M 2597 2516 
Q 3050 2419 3304 2112 
Q 3559 1806 3559 1356 
Q 3559 666 3084 287 
Q 2609 -91 1734 -91 
Q 1441 -91 1130 -33 
Q 819 25 488 141 
L 488 750 
Q 750 597 1062 519 
Q 1375 441 1716 441 
Q 2309 441 2620 675 
Q 2931 909 2931 1356 
Q 2931 1769 2642 2001 
Q 2353 2234 1838 2234 
L 1294 2234 
L 1294 2753 
L 1863 2753 
Q 2328 2753 2575 2939 
Q 2822 3125 2822 3475 
Q 2822 3834 2567 4026 
Q 2313 4219 1838 4219 
Q 1578 4219 1281 4162 
Q 984 4106 628 3988 
L 628 4550 
Q 988 4650 1302 4700 
Q 1616 4750 1894 4750 
Q 2613 4750 3031 4423 
Q 3450 4097 3450 3541 
Q 3450 3153 3228 2886 
Q 3006 2619 2597 2516 
z
" transform="scale(0.015625)"/>
        <path id="DejaVuSans-2d" d="M 313 2009 
L 1997 2009 
L 1997 1497 
L 313 1497 
L 313 2009 
z
" transform="scale(0.015625)"/>
        <path id="DejaVuSans-38" d="M 2034 2216 
Q 1584 2216 1326 1975 
Q 1069 1734 1069 1313 
Q 1069 891 1326 650 
Q 1584 409 2034 409 
Q 2484 409 2743 651 
Q 3003 894 3003 1313 
Q 3003 1734 2745 1975 
Q 2488 2216 2034 2216 
z
M 1403 2484 
Q 997 2584 770 2862 
Q 544 3141 544 3541 
Q 544 4100 942 4425 
Q 1341 4750 2034 4750 
Q 2731 4750 3128 4425 
Q 3525 4100 3525 3541 
Q 3525 3141 3298 2862 
Q 3072 2584 2669 2484 
Q 3125 2378 3379 2068 
Q 3634 1759 3634 1313 
Q 3634 634 3220 271 
Q 2806 -91 2034 -91 
Q 1263 -91 848 271 
Q 434 634 434 1313 
Q 434 1759 690 2068 
Q 947 2378 1403 2484 
z
M 1172 3481 
Q 1172 3119 1398 2916 
Q 1625 2713 2034 2713 
Q 2441 2713 2670 2916 
Q 2900 3119 2900 3481 
Q 2900 3844 2670 4047 
Q 2441 4250 2034 4250 
Q 1625 4250 1398 4047 
Q 1172 3844 1172 3481 
z
" transform="scale(0.015625)"/>
        <path id="DejaVuSans-31" d="M 794 531 
L 1825 531 
L 1825 4091 
L 703 3866 
L 703 4441 
L 1819 4666 
L 2450 4666 
L 2450 531 
L 3481 531 
L 3481 0 
L 794 0 
L 794 531 
z
" transform="scale(0.015625)"/>
        <path id="DejaVuSans-35" d="M 691 4666 
L 3169 4666 
L 3169 4134 
L 1269 4134 
L 1269 2991 
Q 1406 3038 1543 3061 
Q 1681 3084 1819 3084 
Q 2600 3084 3056 2656 
Q 3513 2228 3513 1497 
Q 3513 744 3044 326 
Q 2575 -91 1722 -91 
Q 1428 -91 1123 -41 
Q 819 9 494 109 
L 494 744 
Q 775 591 1075 516 
Q 1375 441 1709 441 
Q 2250 441 2565 725 
Q 2881 1009 2881 1497 
Q 2881 1984 2565 2268 
Q 2250 2553 1709 2553 
Q 1456 2553 1204 2497 
Q 953 2441 691 2322 
L 691 4666 
z
" transform="scale(0.015625)"/>
       </defs>
       <use xlink:href="#DejaVuSans-32"/>
       <use xlink:href="#DejaVuSans-30" x="63.623047"/>
       <use xlink:href="#DejaVuSans-32" x="127.246094"/>
       <use xlink:href="#DejaVuSans-33" x="190.869141"/>
       <use xlink:href="#DejaVuSans-2d" x="254.492188"/>
       <use xlink:href="#DejaVuSans-30" x="290.576172"/>
       <use xlink:href="#DejaVuSans-38" x="354.199219"/>
       <use xlink:href="#DejaVuSans-2d" x="417.822266"/>
       <use xlink:href="#DejaVuSans-31" x="453.90625"/>
       <use xlink:href="#DejaVuSans-35" x="517.529297"/>
      </g>
     </g>
    </g>
    <g id="xtick_2">
     <g id="line2d_2">
      <g>
       <use xlink:href="#mc2d6fa6d42" x="264.994921" y="288" style="stroke: #000000; stroke-width: 0.8"/>
      </g>
     </g>
     <g id="text_2">
      <!-- 2023-09-01 -->
      <g transform="translate(203.35158 337.765903) rotate(-30) scale(0.12 -0.12)">
       <defs>
        <path id="DejaVuSans-39" d="M 703 97 
L 703 672 
Q 941 559 1184 500 
Q 1428 441 1663 441 
Q 2288 441 2617 861 
Q 2947 1281 2994 2138 
Q 2813 1869 2534 1725 
Q 2256 1581 1919 1581 
Q 1219 1581 811 2004 
Q 403 2428 403 3163 
Q 403 3881 828 4315 
Q 1253 4750 1959 4750 
Q 2769 4750 3195 4129 
Q 3622 3509 3622 2328 
Q 3622 1225 3098 567 
Q 2575 -91 1691 -91 
Q 1453 -91 1209 -44 
Q 966 3 703 97 
z
M 1959 2075 
Q 2384 2075 2632 2365 
Q 2881 2656 2881 3163 
Q 2881 3666 2632 3958 
Q 2384 4250 1959 4250 
Q 1534 4250 1286 3958 
Q 1038 3666 1038 3163 
Q 1038 2656 1286 2365 
Q 1534 2075 1959 2075 
z
" transform="scale(0.015625)"/>
       </defs>
       <use xlink:href="#DejaVuSans-32"/>
       <use xlink:href="#DejaVuSans-30" x="63.623047"/>
       <use xlink:href="#DejaVuSans-32" x="127.246094"/>
       <use xlink:href="#DejaVuSans-33" x="190.869141"/>
       <use xlink:href="#DejaVuSans-2d" x="254.492188"/>
       <use xlink:href="#DejaVuSans-30" x="290.576172"/>
       <use xlink:href="#DejaVuSans-39" x="354.199219"/>
       <use xlink:href="#DejaVuSans-2d" x="417.822266"/>
       <use xlink:href="#DejaVuSans-30" x="453.90625"/>
       <use xlink:href="#DejaVuSans-31" x="517.529297"/>
      </g>
     </g>
    </g>
    <g id="xtick_3">
     <g id="line2d_3">
      <g>
       <use xlink:href="#mc2d6fa6d42" x="360.21483" y="288" style="stroke: #000000; stroke-width: 0.8"/>
      </g>
     </g>
     <g id="text_3">
      <!-- 2023-09-15 -->
      <g transform="translate(298.571488 337.765903) rotate(-30) scale(0.12 -0.12)">
       <use xlink:href="#DejaVuSans-32"/>
       <use xlink:href="#DejaVuSans-30" x="63.623047"/>
       <use xlink:href="#DejaVuSans-32" x="127.246094"/>
       <use xlink:href="#DejaVuSans-33" x="190.869141"/>
       <use xlink:href="#DejaVuSans-2d" x="254.492188"/>
       <use xlink:href="#DejaVuSans-30" x="290.576172"/>
       <use xlink:href="#DejaVuSans-39" x="354.199219"/>
       <use xlink:href="#DejaVuSans-2d" x="417.822266"/>
       <use xlink:href="#DejaVuSans-31" x="453.90625"/>
       <use xlink:href="#DejaVuSans-35" x="517.529297"/>
      </g>
     </g>
    </g>
    <g id="xtick_4">
     <g id="line2d_4">
      <g>
       <use xlink:href="#mc2d6fa6d42" x="469.037583" y="288" style="stroke: #000000; stroke-width: 0.8"/>
      </g>
     </g>
     <g id="text_4">
      <!-- 2023-10-01 -->
      <g transform="translate(407.394241 337.765903) rotate(-30) scale(0.12 -0.12)">
       <use xlink:href="#DejaVuSans-32"/>
       <use xlink:href="#DejaVuSans-30" x="63.623047"/>
       <use xlink:href="#DejaVuSans-32" x="127.246094"/>
       <use xlink:href="#DejaVuSans-33" x="190.869141"/>
       <use xlink:href="#DejaVuSans-2d" x="254.492188"/>
       <use xlink:href="#DejaVuSans-31" x="290.576172"/>
       <use xlink:href="#DejaVuSans-30" x="354.199219"/>
       <use xlink:href="#DejaVuSans-2d" x="417.822266"/>
       <use xlink:href="#DejaVuSans-30" x="453.90625"/>
       <use xlink:href="#DejaVuSans-31" x="517.529297"/>
      </g>
     </g>
    </g>
    <g id="xtick_5">
     <g id="line2d_5">
      <g>
       <use xlink:href="#mc2d6fa6d42" x="564.257491" y="288" style="stroke: #000000; stroke-width: 0.8"/>
      </g>
     </g>
     <g id="text_5">
      <!-- 2023-10-15 -->
      <g transform="translate(502.614149 337.765903) rotate(-30) scale(0.12 -0.12)">
       <use xlink:href="#DejaVuSans-32"/>
       <use xlink:href="#DejaVuSans-30" x="63.623047"/>
       <use xlink:href="#DejaVuSans-32" x="127.246094"/>
       <use xlink:href="#DejaVuSans-33" x="190.869141"/>
       <use xlink:href="#DejaVuSans-2d" x="254.492188"/>
       <use xlink:href="#DejaVuSans-31" x="290.576172"/>
       <use xlink:href="#DejaVuSans-30" x="354.199219"/>
       <use xlink:href="#DejaVuSans-2d" x="417.822266"/>
       <use xlink:href="#DejaVuSans-31" x="453.90625"/>
       <use xlink:href="#DejaVuSans-35" x="517.529297"/>
      </g>
     </g>
    </g>
   </g>
   <g id="matplotlib.axis_2">
    <g id="ytick_1">
     <g id="line2d_6">
      <defs>
       <path id="m418dc184f5" d="M 0 0 
L -3.5 0 
" style="stroke: #000000; stroke-width: 0.8"/>
      </defs>
      <g>
       <use xlink:href="#m418dc184f5" x="90" y="262.084456" style="stroke: #000000; stroke-width: 0.8"/>
      </g>
     </g>
     <g id="text_6">
      <!-- 0.0 -->
      <g transform="translate(63.91625 266.643518) scale(0.12 -0.12)">
       <defs>
        <path id="DejaVuSans-2e" d="M 684 794 
L 1344 794 
L 1344 0 
L 684 0 
L 684 794 
z
" transform="scale(0.015625)"/>
       </defs>
       <use xlink:href="#DejaVuSans-30"/>
       <use xlink:href="#DejaVuSans-2e" x="63.623047"/>
       <use xlink:href="#DejaVuSans-30" x="95.410156"/>
      </g>
     </g>
    </g>
    <g id="ytick_2">
     <g id="line2d_7">
      <g>
       <use xlink:href="#m418dc184f5" x="90" y="218.790626" style="stroke: #000000; stroke-width: 0.8"/>
      </g>
     </g>
     <g id="text_7">
      <!-- 0.2 -->
      <g transform="translate(63.91625 223.349688) scale(0.12 -0.12)">
       <use xlink:href="#DejaVuSans-30"/>
       <use xlink:href="#DejaVuSans-2e" x="63.623047"/>
       <use xlink:href="#DejaVuSans-32" x="95.410156"/>
      </g>
     </g>
    </g>
    <g id="ytick_3">
     <g id="line2d_8">
      <g>
       <use xlink:href="#m418dc184f5" x="90" y="175.496796" style="stroke: #000000; stroke-width: 0.8"/>
      </g>
     </g>
     <g id="text_8">
      <!-- 0.4 -->
      <g transform="translate(63.91625 180.055859) scale(0.12 -0.12)">
       <defs>
        <path id="DejaVuSans-34" d="M 2419 4116 
L 825 1625 
L 2419 1625 
L 2419 4116 
z
M 2253 4666 
L 3047 4666 
L 3047 1625 
L 3713 1625 
L 3713 1100 
L 3047 1100 
L 3047 0 
L 2419 0 
L 2419 1100 
L 313 1100 
L 313 1709 
L 2253 4666 
z
" transform="scale(0.015625)"/>
       </defs>
       <use xlink:href="#DejaVuSans-30"/>
       <use xlink:href="#DejaVuSans-2e" x="63.623047"/>
       <use xlink:href="#DejaVuSans-34" x="95.410156"/>
      </g>
     </g>
    </g>
    <g id="ytick_4">
     <g id="line2d_9">
      <g>
       <use xlink:href="#m418dc184f5" x="90" y="132.202967" style="stroke: #000000; stroke-width: 0.8"/>
      </g>
     </g>
     <g id="text_9">
      <!-- 0.6 -->
      <g transform="translate(63.91625 136.762029) scale(0.12 -0.12)">
       <defs>
        <path id="DejaVuSans-36" d="M 2113 2584 
Q 1688 2584 1439 2293 
Q 1191 2003 1191 1497 
Q 1191 994 1439 701 
Q 1688 409 2113 409 
Q 2538 409 2786 701 
Q 3034 994 3034 1497 
Q 3034 2003 2786 2293 
Q 2538 2584 2113 2584 
z
M 3366 4563 
L 3366 3988 
Q 3128 4100 2886 4159 
Q 2644 4219 2406 4219 
Q 1781 4219 1451 3797 
Q 1122 3375 1075 2522 
Q 1259 2794 1537 2939 
Q 1816 3084 2150 3084 
Q 2853 3084 3261 2657 
Q 3669 2231 3669 1497 
Q 3669 778 3244 343 
Q 2819 -91 2113 -91 
Q 1303 -91 875 529 
Q 447 1150 447 2328 
Q 447 3434 972 4092 
Q 1497 4750 2381 4750 
Q 2619 4750 2861 4703 
Q 3103 4656 3366 4563 
z
" transform="scale(0.015625)"/>
       </defs>
       <use xlink:href="#DejaVuSans-30"/>
       <use xlink:href="#DejaVuSans-2e" x="63.623047"/>
       <use xlink:href="#DejaVuSans-36" x="95.410156"/>
      </g>
     </g>
    </g>
    <g id="ytick_5">
     <g id="line2d_10">
      <g>
       <use xlink:href="#m418dc184f5" x="90" y="88.909137" style="stroke: #000000; stroke-width: 0.8"/>
      </g>
     </g>
     <g id="text_10">
      <!-- 0.8 -->
      <g transform="translate(63.91625 93.468199) scale(0.12 -0.12)">
       <use xlink:href="#DejaVuSans-30"/>
       <use xlink:href="#DejaVuSans-2e" x="63.623047"/>
       <use xlink:href="#DejaVuSans-38" x="95.410156"/>
      </g>
     </g>
    </g>
    <g id="ytick_6">
     <g id="line2d_11">
      <g>
       <use xlink:href="#m418dc184f5" x="90" y="45.615307" style="stroke: #000000; stroke-width: 0.8"/>
      </g>
     </g>
     <g id="text_11">
      <!-- 1.0 -->
      <g transform="translate(63.91625 50.17437) scale(0.12 -0.12)">
       <use xlink:href="#DejaVuSans-31"/>
       <use xlink:href="#DejaVuSans-2e" x="63.623047"/>
       <use xlink:href="#DejaVuSans-30" x="95.410156"/>
      </g>
     </g>
    </g>
    <g id="text_12">
     <!-- Meters -->
     <g transform="translate(57.836562 182.6875) rotate(-90) scale(0.1 -0.1)">
      <defs>
       <path id="DejaVuSans-4d" d="M 628 4666 
L 1569 4666 
L 2759 1491 
L 3956 4666 
L 4897 4666 
L 4897 0 
L 4281 0 
L 4281 4097 
L 3078 897 
L 2444 897 
L 1241 4097 
L 1241 0 
L 628 0 
L 628 4666 
z
" transform="scale(0.015625)"/>
       <path id="DejaVuSans-65" d="M 3597 1894 
L 3597 1613 
L 953 1613 
Q 991 1019 1311 708 
Q 1631 397 2203 397 
Q 2534 397 2845 478 
Q 3156 559 3463 722 
L 3463 178 
Q 3153 47 2828 -22 
Q 2503 -91 2169 -91 
Q 1331 -91 842 396 
Q 353 884 353 1716 
Q 353 2575 817 3079 
Q 1281 3584 2069 3584 
Q 2775 3584 3186 3129 
Q 3597 2675 3597 1894 
z
M 3022 2063 
Q 3016 2534 2758 2815 
Q 2500 3097 2075 3097 
Q 1594 3097 1305 2825 
Q 1016 2553 972 2059 
L 3022 2063 
z
" transform="scale(0.015625)"/>
       <path id="DejaVuSans-74" d="M 1172 4494 
L 1172 3500 
L 2356 3500 
L 2356 3053 
L 1172 3053 
L 1172 1153 
Q 1172 725 1289 603 
Q 1406 481 1766 481 
L 2356 481 
L 2356 0 
L 1766 0 
Q 1100 0 847 248 
Q 594 497 594 1153 
L 594 3053 
L 172 3053 
L 172 3500 
L 594 3500 
L 594 4494 
L 1172 4494 
z
" transform="scale(0.015625)"/>
       <path id="DejaVuSans-72" d="M 2631 2963 
Q 2534 3019 2420 3045 
Q 2306 3072 2169 3072 
Q 1681 3072 1420 2755 
Q 1159 2438 1159 1844 
L 1159 0 
L 581 0 
L 581 3500 
L 1159 3500 
L 1159 2956 
Q 1341 3275 1631 3429 
Q 1922 3584 2338 3584 
Q 2397 3584 2469 3576 
Q 2541 3569 2628 3553 
L 2631 2963 
z
" transform="scale(0.015625)"/>
       <path id="DejaVuSans-73" d="M 2834 3397 
L 2834 2853 
Q 2591 2978 2328 3040 
Q 2066 3103 1784 3103 
Q 1356 3103 1142 2972 
Q 928 2841 928 2578 
Q 928 2378 1081 2264 
Q 1234 2150 1697 2047 
L 1894 2003 
Q 2506 1872 2764 1633 
Q 3022 1394 3022 966 
Q 3022 478 2636 193 
Q 2250 -91 1575 -91 
Q 1294 -91 989 -36 
Q 684 19 347 128 
L 347 722 
Q 666 556 975 473 
Q 1284 391 1588 391 
Q 1994 391 2212 530 
Q 2431 669 2431 922 
Q 2431 1156 2273 1281 
Q 2116 1406 1581 1522 
L 1381 1569 
Q 847 1681 609 1914 
Q 372 2147 372 2553 
Q 372 3047 722 3315 
Q 1072 3584 1716 3584 
Q 2034 3584 2315 3537 
Q 2597 3491 2834 3397 
z
" transform="scale(0.015625)"/>
      </defs>
      <use xlink:href="#DejaVuSans-4d"/>
      <use xlink:href="#DejaVuSans-65" x="86.279297"/>
      <use xlink:href="#DejaVuSans-74" x="147.802734"/>
      <use xlink:href="#DejaVuSans-65" x="187.011719"/>
      <use xlink:href="#DejaVuSans-72" x="248.535156"/>
      <use xlink:href="#DejaVuSans-73" x="289.648438"/>
     </g>
    </g>
   </g>
   <g id="line2d_12">
    <path d="M 115.363636 265.676924 
L 115.647029 266.268454 
L 115.930422 266.41273 
L 116.497207 265.547075 
L 117.063992 265.72742 
L 117.347384 265.294593 
L 117.630777 265.979903 
L 118.197562 267.963695 
L 118.480955 268.432592 
L 118.764347 268.649005 
L 119.04774 269.406454 
L 119.331133 269.153971 
L 119.614525 269.334316 
L 119.897918 270.56066 
L 120.18131 270.632798 
L 120.464703 272.075556 
L 120.748095 264.284662 
L 121.031488 265.511006 
L 121.598273 266.232385 
L 121.881666 269.117902 
L 122.165058 269.153971 
L 122.448451 267.242316 
L 122.731844 266.953765 
L 123.298629 268.107971 
L 123.582021 267.278385 
L 124.148807 266.881627 
L 124.432199 267.891557 
L 124.715592 268.14404 
L 124.998984 269.983557 
L 125.282377 269.803212 
L 125.565769 268.685074 
L 126.132555 274.131487 
L 126.415947 273.410108 
L 126.69934 274.528245 
L 127.549518 270.055695 
L 127.83291 266.701282 
L 128.116303 266.917696 
L 128.399695 269.298247 
L 128.683088 267.999764 
L 128.96648 267.711213 
L 129.249873 267.891557 
L 129.533266 265.763489 
L 130.100051 242.535082 
L 130.383443 204.518403 
L 130.666836 193.373096 
L 130.950229 197.989922 
L 131.517014 220.352674 
L 131.800406 225.005569 
L 132.367191 226.051569 
L 132.650584 230.52412 
L 133.500762 237.052601 
L 134.35094 226.195845 
L 134.634332 220.713364 
L 134.917725 220.172329 
L 135.48451 234.275291 
L 135.767902 235.645911 
L 136.051295 233.806395 
L 136.334688 234.131015 
L 136.61808 235.393429 
L 137.184865 238.964255 
L 138.035043 243.076116 
L 138.601828 247.260115 
L 138.885221 248.12577 
L 139.168614 248.414321 
L 139.735399 259.379284 
L 140.018791 259.52356 
L 140.302184 259.16287 
L 140.585576 258.621836 
L 140.868969 257.611905 
L 141.152362 257.972595 
L 141.435754 257.720112 
L 141.719147 256.962664 
L 142.002539 257.575836 
L 142.569325 256.962664 
L 142.852717 257.756181 
L 143.13611 258.044733 
L 143.702895 257.972595 
L 143.986287 258.11687 
L 144.26968 257.647974 
L 144.553073 257.503698 
L 144.836465 258.297215 
L 145.686643 262.481214 
L 145.970036 262.986179 
L 146.536821 266.160248 
L 146.820213 266.629144 
L 147.103606 266.881627 
L 147.386998 266.557006 
L 147.670391 263.99611 
L 147.953784 265.366731 
L 148.237176 262.769766 
L 148.520569 262.300869 
L 148.803961 262.409076 
L 149.370747 261.218801 
L 149.654139 261.002387 
L 149.937532 262.769766 
L 150.220924 260.064594 
L 150.504317 255.195285 
L 150.787709 241.164461 
L 151.354495 191.713924 
L 151.637887 178.765169 
L 152.488065 159.360071 
L 153.338243 151.172418 
L 153.621635 150.378901 
L 153.905028 148.972212 
L 154.188421 148.32297 
L 154.755206 149.657522 
L 155.321991 153.697245 
L 155.605383 155.861382 
L 155.888776 155.392486 
L 156.172169 155.93352 
L 156.738954 158.819036 
L 157.022346 160.117519 
L 157.872524 168.269103 
L 158.722702 178.296272 
L 159.289487 185.546132 
L 159.57288 188.7202 
L 159.856272 196.835715 
L 160.423057 202.714955 
L 160.70645 203.905231 
L 161.273235 207.187506 
L 161.556628 208.522057 
L 162.123413 212.597849 
L 162.973591 221.54295 
L 163.256983 221.001915 
L 163.540376 221.54295 
L 163.823768 223.454604 
L 164.107161 223.634949 
L 164.390554 226.051569 
L 164.957339 227.891086 
L 165.524124 232.327567 
L 166.090909 235.573773 
L 166.374302 236.583704 
L 166.941087 243.400737 
L 167.224479 242.318668 
L 167.507872 242.751496 
L 167.791265 237.160807 
L 168.074657 228.684603 
L 168.35805 215.447296 
L 168.641442 196.402888 
L 168.924835 188.503787 
L 169.208228 189.657993 
L 169.49162 195.176543 
L 169.775013 194.96013 
L 170.058405 193.481302 
L 170.341798 192.904199 
L 170.908583 195.356888 
L 171.191976 196.294681 
L 172.042153 201.8493 
L 173.175724 209.423781 
L 173.459116 216.637572 
L 173.742509 220.533019 
L 174.025901 220.280536 
L 174.309294 221.434743 
L 174.592687 221.110122 
L 175.442864 223.995639 
L 176.00965 229.297775 
L 176.293042 234.167084 
L 176.859827 230.812671 
L 177.14322 231.425844 
L 177.993398 236.078739 
L 178.27679 236.764049 
L 178.843575 239.721703 
L 179.126968 241.489082 
L 179.410361 242.499013 
L 179.977146 242.282599 
L 180.260538 249.460321 
L 180.543931 251.083424 
L 181.110716 250.650597 
L 181.394109 250.686666 
L 181.677501 250.217769 
L 182.244286 247.729011 
L 182.527679 248.12577 
L 182.811072 249.388183 
L 183.094464 251.480183 
L 183.377857 252.129424 
L 183.661249 250.830942 
L 183.944642 250.470252 
L 184.228035 249.929218 
L 184.511427 251.119493 
L 185.078212 251.119493 
L 185.644997 251.876941 
L 186.211783 253.824665 
L 186.495175 253.860734 
L 186.778568 253.067217 
L 187.06196 258.225077 
L 187.345353 258.080802 
L 187.912138 257.10694 
L 188.762316 253.175424 
L 189.045708 253.103286 
L 189.329101 252.886872 
L 189.612494 253.788596 
L 189.895886 255.808457 
L 190.179279 253.139355 
L 190.462671 253.427906 
L 190.746064 253.427906 
L 191.029457 252.995079 
L 191.312849 251.768734 
L 191.596242 252.237631 
L 192.44642 254.762458 
L 193.013205 257.936526 
L 193.296597 258.513629 
L 193.57999 258.693974 
L 194.146775 263.563283 
L 194.430168 263.67149 
L 194.71356 263.166524 
L 195.280345 260.966318 
L 195.563738 260.713835 
L 195.847131 259.776042 
L 196.130523 259.307146 
L 196.697308 260.677766 
L 196.980701 259.126801 
L 197.264093 258.405422 
L 197.547486 258.152939 
L 197.830879 258.513629 
L 198.114271 259.595698 
L 198.397664 260.172801 
L 198.681056 260.028525 
L 198.964449 260.244939 
L 199.247842 261.471283 
L 199.531234 261.615559 
L 199.814627 262.733697 
L 200.098019 262.914042 
L 200.381412 262.120525 
L 200.948197 263.960041 
L 201.23159 265.799558 
L 201.798375 262.589421 
L 202.081767 261.182732 
L 202.36516 262.877973 
L 202.648553 261.723766 
L 202.931945 262.445145 
L 203.49873 266.557006 
L 203.782123 262.589421 
L 204.065515 261.471283 
L 204.348908 261.615559 
L 204.632301 261.507352 
L 204.915693 260.858111 
L 205.199086 260.605628 
L 205.482478 261.038456 
L 205.765871 260.605628 
L 206.049264 261.25487 
L 206.332656 263.455076 
L 206.616049 264.032179 
L 206.899441 265.763489 
L 207.182834 265.438868 
L 207.466227 266.304523 
L 207.749619 264.68142 
L 208.033012 265.366731 
L 208.316404 265.72742 
L 208.599797 263.923972 
L 208.883189 264.176455 
L 209.166582 264.861765 
L 209.449975 262.517283 
L 209.733367 261.363076 
L 210.01676 263.563283 
L 210.300152 264.392869 
L 210.583545 264.104317 
L 210.866938 261.94018 
L 211.15033 262.697628 
L 212.000508 259.703905 
L 212.2839 255.231354 
L 212.850686 145.148902 
L 213.417471 101.180846 
L 213.984256 79.647679 
L 214.551041 68.863062 
L 214.834434 65.688994 
L 215.117826 64.246235 
L 215.401219 63.705201 
L 215.684611 62.334581 
L 215.968004 61.973891 
L 216.534789 62.911684 
L 217.384967 67.420304 
L 217.66836 71.171475 
L 218.235145 61.541064 
L 218.518537 61.036098 
L 219.368715 55.301135 
L 219.652108 54.507618 
L 219.9355 54.687962 
L 220.218893 54.327273 
L 220.785678 55.986445 
L 221.352463 59.59334 
L 222.202641 65.436511 
L 222.769426 72.217475 
L 223.052819 74.345543 
L 224.186389 89.061677 
L 224.469782 92.0554 
L 225.603352 110.955533 
L 227.020315 136.492353 
L 227.870493 150.703521 
L 228.437278 159.756829 
L 229.287456 171.80386 
L 229.570848 173.787653 
L 230.704418 186.66427 
L 230.987811 185.834684 
L 231.271204 187.024959 
L 232.404774 197.088198 
L 232.971559 201.019714 
L 233.821737 207.403919 
L 234.388522 208.882746 
L 234.955307 218.693502 
L 235.522092 220.49695 
L 235.805485 220.208398 
L 236.37227 221.037984 
L 236.655663 221.651157 
L 236.939055 221.831501 
L 237.505841 228.828879 
L 237.789233 224.861294 
L 238.072626 223.346398 
L 238.356018 224.103846 
L 238.639411 224.536673 
L 239.206196 225.799086 
L 239.489589 226.412259 
L 240.339766 231.353706 
L 240.623159 232.255429 
L 240.906552 232.435774 
L 241.189944 232.291498 
L 241.756729 239.469221 
L 242.606907 237.052601 
L 242.8903 237.052601 
L 243.457085 237.77398 
L 243.740477 238.242876 
L 244.307263 244.122116 
L 244.590655 239.757772 
L 244.874048 237.629704 
L 245.15744 237.954324 
L 245.440833 237.737911 
L 245.724225 237.269014 
L 246.007618 238.242876 
L 246.291011 238.315014 
L 247.141188 241.669427 
L 247.424581 242.282599 
L 247.707974 242.535082 
L 247.991366 242.066185 
L 248.274759 242.93184 
L 248.558151 246.178046 
L 248.841544 245.564874 
L 249.408329 242.751496 
L 249.691722 242.426875 
L 249.975114 241.20053 
L 250.258507 240.803772 
L 250.541899 240.695565 
L 250.825292 241.56122 
L 251.108685 244.194254 
L 251.392077 243.869633 
L 251.958862 241.164461 
L 252.242255 241.344806 
L 252.525648 241.957978 
L 252.80904 241.633358 
L 253.375825 243.256461 
L 253.659218 244.194254 
L 254.509396 247.729011 
L 254.792788 247.44046 
L 255.076181 247.873287 
L 255.359573 248.81108 
L 255.642966 250.903079 
L 255.926359 251.408045 
L 256.209751 250.794873 
L 256.493144 250.578459 
L 256.776536 249.279976 
L 257.059929 250.037424 
L 257.343321 249.784942 
L 257.910107 254.906733 
L 258.193499 250.253838 
L 258.476892 248.630735 
L 258.760284 248.594666 
L 259.043677 248.378253 
L 259.32707 248.522528 
L 259.610462 248.197908 
L 259.893855 248.161839 
L 260.177247 248.414321 
L 260.744033 251.58839 
L 261.027425 251.408045 
L 261.310818 252.381907 
L 261.59421 250.470252 
L 262.160995 259.126801 
L 262.444388 257.10694 
L 262.727781 256.457699 
L 263.011173 255.123147 
L 263.294566 254.546044 
L 263.861351 252.634389 
L 264.144744 252.995079 
L 264.428136 255.519906 
L 264.711529 259.52356 
L 264.994921 254.041079 
L 265.278314 252.237631 
L 265.561706 251.58839 
L 265.845099 251.480183 
L 266.128492 251.732665 
L 266.411884 251.408045 
L 267.262062 253.608251 
L 267.828847 255.411699 
L 268.11224 255.411699 
L 268.395632 254.00501 
L 268.679025 254.942802 
L 268.962417 258.080802 
L 269.24581 258.693974 
L 269.529203 259.920318 
L 269.812595 257.647974 
L 270.095988 257.251216 
L 270.37938 254.798527 
L 270.662773 254.041079 
L 271.229558 256.133078 
L 271.512951 260.064594 
L 271.796343 255.519906 
L 272.079736 253.536113 
L 272.363128 253.608251 
L 273.213306 252.490113 
L 273.780091 252.670458 
L 274.630269 254.654251 
L 274.913662 254.509975 
L 275.197054 252.706527 
L 275.480447 252.922941 
L 276.047232 259.812111 
L 276.330625 260.244939 
L 276.614017 259.379284 
L 276.89741 257.467629 
L 277.180802 254.618182 
L 277.464195 254.149285 
L 278.03098 255.267423 
L 278.597765 255.628113 
L 278.881158 255.411699 
L 279.164551 255.01494 
L 279.731336 255.37563 
L 280.014728 255.303492 
L 280.864906 256.457699 
L 281.148299 256.710181 
L 281.431691 257.43156 
L 281.715084 257.395491 
L 281.998476 256.962664 
L 282.281869 258.47756 
L 282.565262 262.300869 
L 282.848654 262.336938 
L 283.132047 262.517283 
L 283.415439 261.904111 
L 283.698832 259.884249 
L 283.982224 259.487491 
L 284.265617 257.034802 
L 284.54901 257.10694 
L 284.832402 258.225077 
L 285.115795 260.461353 
L 285.399187 259.018594 
L 285.68258 259.198939 
L 285.965973 258.802181 
L 286.249365 257.756181 
L 286.532758 258.802181 
L 286.81615 258.621836 
L 287.099543 258.621836 
L 287.382936 257.647974 
L 287.666328 258.152939 
L 287.949721 259.956387 
L 288.233113 260.822042 
L 288.516506 260.100663 
L 288.799898 258.982525 
L 289.366684 264.861765 
L 289.650076 265.114248 
L 289.933469 265.186386 
L 290.500254 263.094386 
L 290.783647 261.723766 
L 291.067039 259.379284 
L 291.350432 260.100663 
L 291.917217 265.150317 
L 292.200609 260.641697 
L 292.484002 259.487491 
L 292.767395 259.054663 
L 293.050787 258.910388 
L 293.617572 257.936526 
L 293.900965 257.539767 
L 294.184358 257.575836 
L 294.46775 258.225077 
L 295.034535 261.074525 
L 295.317928 261.94018 
L 295.60132 261.218801 
L 295.884713 262.481214 
L 296.168106 264.789627 
L 296.734891 262.805835 
L 297.018283 260.822042 
L 297.301676 260.749904 
L 297.868461 259.198939 
L 298.151854 259.559629 
L 298.435246 260.20887 
L 298.718639 261.651628 
L 299.002031 258.766112 
L 299.285424 257.972595 
L 299.568817 257.611905 
L 300.135602 252.814734 
L 300.418994 252.526182 
L 300.98578 249.965287 
L 301.269172 250.037424 
L 301.552565 250.794873 
L 301.835957 249.929218 
L 302.402743 249.388183 
L 302.969528 250.001356 
L 303.25292 250.794873 
L 303.819705 244.771357 
L 304.103098 246.827287 
L 304.669883 242.967909 
L 304.953276 243.941771 
L 305.236668 246.899425 
L 305.520061 248.342184 
L 305.803454 247.260115 
L 306.086846 249.279976 
L 306.370239 247.512598 
L 306.653631 247.476529 
L 306.937024 245.204184 
L 307.220416 243.905702 
L 307.787202 246.502667 
L 308.070594 249.460321 
L 308.637379 252.057286 
L 309.77095 254.00501 
L 310.054342 253.391837 
L 310.337735 254.618182 
L 310.621127 253.28363 
L 310.90452 252.995079 
L 311.471305 254.221423 
L 312.03809 253.031148 
L 312.321483 252.742596 
L 312.604876 252.95901 
L 312.888268 253.463975 
L 313.171661 253.427906 
L 313.455053 254.00501 
L 313.738446 254.113216 
L 314.305231 254.726389 
L 315.438801 258.044733 
L 316.572372 259.776042 
L 316.855764 259.776042 
L 317.139157 259.415353 
L 317.989335 256.782319 
L 319.122905 256.457699 
L 319.68969 255.70025 
L 319.973083 255.844526 
L 320.256475 256.42163 
L 320.539868 257.395491 
L 320.823261 257.828319 
L 321.390046 257.359422 
L 322.240223 259.415353 
L 322.523616 260.641697 
L 322.807009 260.858111 
L 323.373794 267.855488 
L 323.657186 265.547075 
L 323.940579 266.737351 
L 324.223972 266.701282 
L 325.074149 262.373007 
L 325.357542 262.950111 
L 325.924327 265.763489 
L 326.20772 260.713835 
L 326.491112 259.559629 
L 327.057897 260.461353 
L 327.624683 260.100663 
L 328.191468 260.641697 
L 328.47486 261.074525 
L 328.758253 262.084456 
L 329.325038 263.058317 
L 329.608431 262.336938 
L 329.891823 263.779696 
L 330.175216 270.704936 
L 331.025394 270.055695 
L 331.875571 264.320731 
L 332.158964 264.176455 
L 332.442357 266.809489 
L 332.725749 265.871696 
L 333.009142 261.146663 
L 333.292534 260.858111 
L 333.575927 260.749904 
L 333.859319 260.930249 
L 334.142712 260.20887 
L 334.709497 259.776042 
L 334.99289 260.281008 
L 335.559675 262.914042 
L 335.843068 263.022248 
L 336.12646 263.455076 
L 336.409853 263.3108 
L 336.693245 262.877973 
L 337.26003 263.923972 
L 337.543423 263.851834 
L 337.826816 261.399145 
L 338.393601 259.018594 
L 338.676993 259.235008 
L 338.960386 259.271077 
L 339.527171 259.812111 
L 339.810564 259.703905 
L 343.494667 223.418535 
L 343.77806 223.129984 
L 344.061453 223.238191 
L 344.344845 221.795432 
L 344.628238 221.939708 
L 344.91163 223.346398 
L 345.195023 223.490673 
L 345.478415 225.654811 
L 345.761808 224.572742 
L 346.045201 224.212052 
L 346.328593 224.861294 
L 346.611986 224.608811 
L 346.895378 224.536673 
L 347.178771 225.510535 
L 347.745556 228.143569 
L 348.028949 228.901017 
L 348.312341 229.983085 
L 348.879126 234.419567 
L 349.162519 235.032739 
L 349.445912 236.872256 
L 349.729304 237.305083 
L 350.012697 238.531428 
L 350.296089 242.102254 
L 350.862875 245.095978 
L 351.146267 245.961633 
L 351.713052 243.508944 
L 351.996445 243.545013 
L 352.279837 243.076116 
L 352.56323 245.384529 
L 352.846623 248.630735 
L 353.130015 248.991425 
L 353.413408 244.879564 
L 353.6968 245.34846 
L 354.263586 246.971563 
L 354.546978 247.007632 
L 354.830371 247.296184 
L 355.397156 249.099632 
L 355.680549 250.650597 
L 355.963941 250.86701 
L 356.247334 252.886872 
L 356.530726 253.824665 
L 356.814119 253.067217 
L 357.380904 260.244939 
L 357.664297 259.703905 
L 358.231082 255.952733 
L 358.514474 258.225077 
L 358.797867 256.998733 
L 359.364652 253.427906 
L 359.648045 259.884249 
L 360.498222 253.355768 
L 361.065008 254.401768 
L 361.3484 254.041079 
L 361.631793 254.473906 
L 361.915185 254.401768 
L 362.481971 256.601974 
L 362.765363 257.215147 
L 363.048756 258.189008 
L 363.332148 258.11687 
L 363.615541 258.189008 
L 363.898933 261.507352 
L 364.182326 263.491145 
L 364.465719 263.382938 
L 364.749111 263.419007 
L 365.032504 260.677766 
L 365.599289 257.900457 
L 365.882682 257.720112 
L 366.166074 257.684043 
L 366.449467 260.569559 
L 366.732859 260.677766 
L 367.016252 256.926595 
L 367.299644 256.854457 
L 368.716607 257.864388 
L 369.283393 259.667836 
L 370.13357 261.57949 
L 370.416963 260.858111 
L 370.700356 262.517283 
L 370.983748 263.058317 
L 371.267141 264.392869 
L 371.550533 266.304523 
L 371.833926 265.583144 
L 372.684104 262.336938 
L 372.967496 260.425284 
L 373.250889 260.461353 
L 373.534281 259.920318 
L 373.817674 259.631767 
L 374.101067 259.52356 
L 374.384459 259.198939 
L 374.951244 260.281008 
L 375.234637 259.235008 
L 375.518029 259.884249 
L 376.368207 262.336938 
L 376.6516 262.697628 
L 376.934992 262.409076 
L 377.218385 262.661559 
L 377.501778 263.67149 
L 377.78517 268.216178 
L 378.068563 268.649005 
L 378.351955 269.983557 
L 378.635348 268.071902 
L 379.202133 261.651628 
L 379.485526 261.687697 
L 379.768918 260.53349 
L 380.052311 261.290939 
L 380.335703 262.553352 
L 380.619096 260.353146 
L 380.902489 259.776042 
L 381.185881 260.028525 
L 381.469274 260.461353 
L 381.752666 259.776042 
L 382.036059 260.281008 
L 382.886237 260.966318 
L 383.453022 263.99611 
L 383.736414 264.609282 
L 384.019807 263.851834 
L 384.586592 265.547075 
L 384.869985 267.061971 
L 385.153377 264.392869 
L 385.720163 263.094386 
L 386.003555 262.409076 
L 386.286948 262.300869 
L 386.57034 263.67149 
L 386.853733 263.058317 
L 387.137125 261.868042 
L 387.420518 261.687697 
L 387.703911 261.25487 
L 387.987303 261.146663 
L 388.270696 260.749904 
L 388.554088 260.749904 
L 388.837481 260.317077 
L 389.120874 260.461353 
L 389.687659 262.228731 
L 389.971051 262.733697 
L 390.537836 265.907765 
L 390.821229 263.887903 
L 391.388014 271.570591 
L 391.671407 271.498453 
L 391.954799 270.488522 
L 392.238192 267.927626 
L 392.521585 266.520937 
L 393.08837 262.445145 
L 393.371762 261.290939 
L 394.22194 262.300869 
L 394.505333 262.481214 
L 394.788725 262.336938 
L 395.072118 261.182732 
L 395.638903 261.146663 
L 395.922296 260.641697 
L 396.205688 261.399145 
L 396.489081 263.094386 
L 396.772473 263.563283 
L 397.339259 265.871696 
L 397.622651 265.330662 
L 397.906044 265.943834 
L 398.189436 265.835627 
L 398.472829 267.278385 
L 398.756221 264.392869 
L 399.039614 265.943834 
L 399.323007 265.330662 
L 399.606399 266.917696 
L 399.889792 263.99611 
L 400.173184 263.022248 
L 400.456577 265.511006 
L 400.73997 265.114248 
L 401.023362 263.346869 
L 401.306755 263.202593 
L 401.590147 263.527214 
L 401.87354 263.238662 
L 402.156932 262.769766 
L 402.440325 262.877973 
L 402.723718 262.012318 
L 403.00711 262.661559 
L 403.290503 262.986179 
L 403.573895 263.491145 
L 403.857288 265.366731 
L 404.140681 266.052041 
L 404.424073 266.052041 
L 404.707466 269.51466 
L 404.990858 268.540799 
L 405.274251 270.870853 
L 405.841036 268.793281 
L 406.124429 267.494799 
L 406.407821 267.494799 
L 406.691214 266.376661 
L 406.974606 266.268454 
L 407.257999 268.649005 
L 407.824784 263.635421 
L 408.108177 262.877973 
L 408.391569 263.274731 
L 408.674962 264.248593 
L 408.958354 263.563283 
L 409.241747 263.491145 
L 409.52514 263.707559 
L 410.091925 264.933903 
L 410.375317 264.969972 
L 410.942103 267.206247 
L 411.225495 266.520937 
L 411.508888 266.881627 
L 411.79228 270.272108 
L 412.075673 270.127833 
L 412.359066 270.92135 
L 412.642458 267.386592 
L 412.925851 267.603006 
L 413.209243 268.180109 
L 413.492636 266.448799 
L 413.776028 266.593075 
L 414.059421 267.66793 
L 414.342814 266.665213 
L 414.909599 264.212524 
L 415.476384 265.835627 
L 415.759777 265.835627 
L 416.043169 265.474937 
L 416.326562 266.196316 
L 416.609954 266.376661 
L 417.176739 267.242316 
L 418.026917 268.721143 
L 418.593702 273.590452 
L 418.877095 274.925004 
L 419.160488 273.193694 
L 419.44388 273.626521 
L 419.727273 272.905142 
L 420.294058 268.180109 
L 420.57745 267.891557 
L 421.144236 269.298247 
L 421.427628 266.989834 
L 421.711021 266.701282 
L 422.277806 265.835627 
L 422.561199 266.232385 
L 422.844591 265.763489 
L 423.127984 266.989834 
L 423.411376 267.09804 
L 423.694769 267.747282 
L 424.261554 269.767143 
L 424.544947 269.767143 
L 424.828339 269.51466 
L 425.111732 274.636452 
L 425.395124 276.692382 
L 425.678517 276.872727 
L 425.96191 276.07921 
L 426.245302 275.826728 
L 427.09548 269.298247 
L 427.378873 269.009695 
L 427.662265 267.603006 
L 427.945658 267.206247 
L 428.512443 264.609282 
L 428.795835 263.707559 
L 429.079228 265.583144 
L 429.362621 265.402799 
L 429.646013 264.392869 
L 429.929406 264.501076 
L 430.212798 264.825696 
L 431.062976 268.071902 
L 431.346369 268.540799 
L 431.629761 269.51466 
L 431.913154 268.288316 
L 432.196546 268.324385 
L 432.479939 268.757212 
L 432.763332 268.82935 
L 433.330117 265.114248 
L 433.613509 263.960041 
L 433.896902 263.382938 
L 434.180295 261.218801 
L 434.463687 258.008664 
L 434.74708 258.189008 
L 435.030472 258.83825 
L 435.88065 262.986179 
L 436.164043 263.707559 
L 436.730828 263.707559 
L 437.864398 267.206247 
L 438.147791 268.216178 
L 438.431183 267.386592 
L 438.714576 267.206247 
L 438.997969 267.891557 
L 439.281361 267.927626 
L 439.564754 267.639075 
L 440.131539 265.294593 
L 440.414931 263.743628 
L 440.981717 263.707559 
L 441.265109 263.3108 
L 441.548502 261.904111 
L 441.831894 262.228731 
L 442.115287 262.877973 
L 442.39868 263.022248 
L 442.682072 263.887903 
L 443.248857 263.130455 
L 443.53225 262.950111 
L 443.815642 262.950111 
L 444.099035 263.707559 
L 444.949213 267.675144 
L 445.232605 266.737351 
L 445.799391 268.14404 
L 446.082783 268.612936 
L 446.366176 268.071902 
L 446.932961 264.933903 
L 447.216353 262.661559 
L 447.499746 261.723766 
L 447.783139 261.651628 
L 448.349924 261.074525 
L 448.633316 262.048387 
L 448.916709 259.595698 
L 449.200102 258.47756 
L 449.766887 240.154531 
L 450.050279 241.741565 
L 450.333672 245.34846 
L 450.617064 244.807426 
L 450.900457 242.462944 
L 451.18385 224.500604 
L 451.467242 218.945985 
L 452.034027 231.930809 
L 452.31742 235.321291 
L 452.600813 234.960601 
L 452.884205 234.094946 
L 453.167598 233.914601 
L 453.45099 233.878532 
L 453.734383 234.67205 
L 454.017776 235.032739 
L 454.301168 235.754118 
L 454.867953 237.990393 
L 455.718131 239.82991 
L 456.284916 241.453013 
L 456.851701 242.462944 
L 458.835449 251.011286 
L 459.118842 251.371976 
L 459.402235 252.381907 
L 460.252412 253.968941 
L 460.535805 252.165493 
L 460.819198 251.191631 
L 461.385983 252.237631 
L 461.669375 251.660527 
L 461.952768 251.91301 
L 462.23616 252.381907 
L 462.519553 252.381907 
L 462.802946 252.634389 
L 463.086338 254.077147 
L 463.369731 254.870665 
L 463.653123 255.195285 
L 464.503301 256.710181 
L 464.786694 257.900457 
L 465.070086 258.333284 
L 465.353479 259.307146 
L 465.636872 259.16287 
L 466.770442 265.366731 
L 467.053834 263.815765 
L 467.337227 263.563283 
L 468.187405 259.776042 
L 468.470797 261.615559 
L 468.75419 257.972595 
L 469.037583 257.10694 
L 469.320975 257.251216 
L 470.171153 258.946456 
L 470.454545 258.982525 
L 470.737938 259.343215 
L 471.021331 259.379284 
L 471.304723 259.776042 
L 472.154901 262.517283 
L 472.438294 262.733697 
L 472.721686 266.629144 
L 473.005079 268.82935 
L 473.288471 268.432592 
L 473.571864 269.009695 
L 474.138649 267.314454 
L 474.705434 263.202593 
L 474.988827 263.166524 
L 475.272219 264.068248 
L 475.839005 259.703905 
L 476.122397 259.559629 
L 476.689182 260.244939 
L 477.255967 259.84818 
L 477.53936 259.379284 
L 477.822753 260.281008 
L 478.106145 260.785973 
L 478.956323 263.960041 
L 479.239716 264.465007 
L 479.523108 268.685074 
L 479.806501 271.24597 
L 480.089893 268.324385 
L 480.373286 266.77342 
L 480.940071 261.976249 
L 481.223464 262.336938 
L 481.506856 262.228731 
L 481.790249 263.274731 
L 482.073641 263.815765 
L 482.357034 261.182732 
L 482.640427 259.84818 
L 482.923819 259.52356 
L 483.207212 259.956387 
L 483.490604 260.172801 
L 483.773997 260.749904 
L 484.05739 260.785973 
L 484.340782 260.641697 
L 484.624175 261.002387 
L 484.907567 261.795904 
L 485.757745 266.196316 
L 486.041138 265.547075 
L 486.607923 270.92135 
L 486.891315 270.344246 
L 487.174708 269.045764 
L 487.458101 267.170178 
L 487.741493 266.232385 
L 488.308278 263.491145 
L 488.591671 263.563283 
L 488.875063 265.655282 
L 489.441849 261.399145 
L 490.292026 261.435214 
L 490.575419 261.759835 
L 490.858812 262.2648 
L 491.425597 261.363076 
L 491.708989 262.300869 
L 491.992382 262.733697 
L 492.559167 264.825696 
L 492.84256 265.258524 
L 493.125952 268.035833 
L 493.409345 269.442522 
L 493.692737 270.127833 
L 493.97613 267.314454 
L 494.259523 267.422661 
L 494.826308 262.841904 
L 495.1097 261.182732 
L 495.393093 261.110594 
L 495.676486 263.815765 
L 495.959878 263.3108 
L 496.243271 261.363076 
L 496.810056 260.20887 
L 497.093448 261.182732 
L 497.376841 261.25487 
L 497.660234 261.723766 
L 497.943626 261.759835 
L 498.227019 260.858111 
L 498.510411 262.553352 
L 498.793804 262.841904 
L 499.077197 264.176455 
L 499.643982 265.655282 
L 499.927374 265.366731 
L 500.210767 267.783351 
L 500.494159 262.156593 
L 500.777552 248.702873 
L 501.060945 228.720672 
L 501.344337 199.180197 
L 502.194515 181.47034 
L 503.328085 166.321379 
L 503.611478 166.357448 
L 504.178263 168.954413 
L 504.745048 173.138412 
L 505.595226 183.418064 
L 506.162011 190.740062 
L 506.445404 193.481302 
L 507.012189 204.843023 
L 507.295582 206.213644 
L 507.578974 206.718609 
L 507.862367 205.925092 
L 508.145759 208.594195 
L 508.429152 209.243436 
L 508.712544 210.433712 
L 508.995937 210.036953 
L 509.27933 210.902608 
L 509.562722 212.706056 
L 509.846115 213.211021 
L 510.129507 214.148814 
L 510.4129 216.493296 
L 510.696293 217.503227 
L 510.979685 217.214675 
L 511.54647 219.45095 
L 511.829863 220.460881 
L 512.963433 226.267983 
L 513.246826 227.422189 
L 513.530218 232.183292 
L 514.097004 234.347429 
L 514.380396 235.032739 
L 514.663789 234.491705 
L 514.947181 233.409636 
L 515.230574 233.445705 
L 515.513966 233.157153 
L 515.797359 233.662119 
L 516.080752 234.780256 
L 516.364144 233.193222 
L 524.865922 246.286253 
L 525.149314 246.935494 
L 525.432707 247.07977 
L 525.7161 248.12577 
L 525.999492 250.073493 
L 526.282885 250.722735 
L 526.566277 252.562251 
L 526.84967 252.454044 
L 527.416455 257.972595 
L 527.699848 257.575836 
L 527.98324 255.628113 
L 528.550025 254.582113 
L 528.833418 252.995079 
L 529.116811 252.201562 
L 529.400203 249.604597 
L 529.683596 249.135701 
L 529.966988 250.217769 
L 530.250381 250.470252 
L 530.533773 249.929218 
L 530.817166 249.965287 
L 531.667344 251.516252 
L 531.950736 251.552321 
L 532.234129 252.021217 
L 532.517522 252.814734 
L 533.367699 256.205216 
L 534.217877 257.323353 
L 534.50127 258.730043 
L 535.068055 257.611905 
L 535.63484 253.391837 
L 536.201625 252.381907 
L 536.485018 252.201562 
L 536.76841 252.670458 
L 537.335196 252.490113 
L 537.901981 253.28363 
L 538.185373 253.175424 
L 538.468766 252.59832 
L 539.035551 252.706527 
L 539.318944 253.175424 
L 540.169121 256.890526 
L 540.452514 257.287285 
L 541.302692 256.926595 
L 541.586084 257.323353 
L 541.869477 257.359422 
L 542.719655 254.401768 
L 543.28644 253.139355 
L 543.569832 253.391837 
L 543.853225 253.067217 
L 544.42001 253.860734 
L 544.703403 254.221423 
L 544.986795 254.185354 
L 545.270188 253.752527 
L 545.836973 254.546044 
L 546.120366 255.37563 
L 546.403758 256.854457 
L 546.687151 257.10694 
L 547.253936 258.333284 
L 547.537329 258.261146 
L 548.104114 260.028525 
L 548.387506 262.192662 
L 548.670899 262.733697 
L 548.954292 262.409076 
L 549.521077 255.880595 
L 549.804469 254.798527 
L 550.087862 253.211493 
L 550.371254 243.400737 
L 550.654647 243.256461 
L 551.221432 250.939148 
L 551.504825 253.211493 
L 551.788217 254.257492 
L 552.07161 254.365699 
L 552.355003 254.185354 
L 552.921788 254.978871 
L 553.20518 255.483837 
L 553.488573 256.42163 
L 553.771965 258.044733 
L 554.338751 259.595698 
L 554.622143 259.126801 
L 554.905536 259.271077 
L 555.188928 259.090732 
L 555.472321 258.585767 
L 556.039106 255.339561 
L 556.322499 255.916664 
L 556.605891 254.473906 
L 556.889284 253.64432 
L 557.172676 253.680389 
L 557.456069 253.391837 
L 557.739462 254.618182 
L 558.022854 254.437837 
L 558.306247 254.113216 
L 558.873032 251.58839 
L 559.72321 246.286253 
L 560.006602 246.683012 
L 560.289995 247.76508 
L 560.573388 247.76508 
L 560.85678 246.286253 
L 561.99035 237.232945 
L 562.840528 223.923501 
L 563.407313 218.044261 
L 564.257491 213.319228 
L 564.540884 213.463504 
L 565.107669 215.266952 
L 565.391061 215.916193 
L 565.674454 216.132606 
L 566.241239 217.39502 
L 566.524632 218.693502 
L 567.091417 222.661087 
L 567.37481 223.093915 
L 567.658202 223.923501 
L 567.941595 228.215706 
L 568.224987 235.321291 
L 568.50838 235.465567 
L 568.791772 232.002947 
L 569.358558 229.730603 
L 569.64195 229.622396 
L 569.925343 228.1075 
L 570.492128 228.359982 
L 571.058913 230.415913 
L 571.342306 230.704464 
L 571.625698 231.425844 
L 571.909091 231.570119 
L 572.192483 231.461912 
L 572.475876 230.993016 
L 572.759269 230.84874 
L 573.326054 232.58005 
L 573.892839 234.058877 
L 574.176232 234.022808 
L 575.026409 236.150877 
L 575.309802 235.898394 
L 575.593195 235.35736 
L 575.876587 233.662119 
L 576.443372 232.868602 
L 576.726765 232.652188 
L 577.576943 233.553912 
L 578.42712 235.213084 
L 578.710513 235.140946 
L 578.993906 235.249153 
L 579.277298 235.609842 
L 579.844083 237.990393 
L 580.127476 238.603566 
L 580.977654 242.24653 
L 581.261046 241.777634 
L 581.544439 242.895771 
L 581.827831 243.076116 
L 582.111224 243.61715 
L 582.394617 242.967909 
L 582.678009 241.489082 
L 582.961402 242.499013 
L 583.244794 242.571151 
L 583.528187 243.364668 
L 583.811579 242.499013 
L 584.094972 242.102254 
L 584.378365 242.102254 
L 584.661757 241.489082 
L 584.94515 242.066185 
L 585.228542 243.472875 
L 585.795328 243.508944 
L 586.07872 243.653219 
L 586.362113 243.472875 
L 586.645505 243.797495 
L 586.928898 244.446736 
L 587.495683 247.151908 
L 587.779076 247.909356 
L 588.345861 250.109562 
L 588.629253 253.500044 
L 588.912646 253.824665 
L 589.196039 251.985148 
L 589.479431 252.417976 
L 590.329609 246.574805 
L 590.613002 246.899425 
L 590.896394 246.538736 
L 591.179787 245.889495 
L 591.463179 244.807426 
L 591.746572 244.446736 
L 592.029964 244.879564 
L 592.313357 246.105908 
L 592.59675 246.574805 
L 592.880142 246.322322 
L 593.163535 246.250184 
L 593.446927 247.187977 
L 593.73032 247.692942 
L 594.86389 252.814734 
L 595.147283 251.985148 
L 595.430675 252.706527 
L 595.714068 252.057286 
L 595.997461 253.427906 
L 596.280853 251.985148 
L 596.564246 248.883218 
L 596.847638 247.945425 
L 597.131031 245.781288 
L 597.414424 244.66315 
L 597.697816 242.679358 
L 597.981209 242.24653 
L 598.547994 240.154531 
L 598.831386 238.45929 
L 599.681564 230.271637 
L 599.964957 229.405982 
L 600.248349 229.622396 
L 600.531742 230.596258 
L 600.815135 232.075085 
L 601.098527 232.868602 
L 601.665312 233.553912 
L 602.798883 232.868602 
L 603.082275 232.039016 
L 603.64906 227.855017 
L 604.215846 218.76564 
L 604.499238 210.46978 
L 604.782631 205.528334 
L 605.066023 206.177575 
L 605.349416 208.05316 
L 605.632809 208.666333 
L 605.916201 207.872816 
L 606.199594 206.574333 
L 606.482986 206.68254 
L 606.766379 207.331781 
L 607.049771 208.77454 
L 607.616557 212.273228 
L 608.183342 215.555503 
L 608.750127 217.71964 
L 609.316912 220.13626 
L 609.600305 223.238191 
L 609.883697 224.608811 
L 610.450482 218.693502 
L 610.733875 218.909916 
L 611.017268 218.585295 
L 611.30066 219.45095 
L 611.584053 219.883778 
L 612.434231 224.067777 
L 612.717623 224.536673 
L 613.284408 227.025431 
L 613.567801 227.422189 
L 613.851193 229.658465 
L 614.984764 233.012878 
L 615.268156 235.032739 
L 615.551549 238.892117 
L 615.834942 237.124738 
L 616.118334 237.485428 
L 616.401727 238.278945 
L 616.968512 240.803772 
L 617.81869 235.790187 
L 618.102082 235.465567 
L 618.385475 234.960601 
L 618.668867 235.898394 
L 618.95226 235.970532 
L 619.235653 236.619773 
L 619.519045 236.583704 
L 619.802438 237.485428 
L 620.08583 237.305083 
L 620.369223 237.557566 
L 620.652616 238.387152 
L 620.936008 238.567497 
L 621.219401 239.577427 
L 622.352971 246.719081 
L 622.636364 248.775011 
L 622.636364 248.775011 
" clip-path="url(#p4b0dfdf4fa)" style="fill: none; stroke: #1f77b4; stroke-width: 1.5; stroke-linecap: square"/>
   </g>
   <g id="line2d_13">
    <path d="M 115.363636 264.298424 
L 115.930422 264.388526 
L 116.213814 266.41273 
L 119.614525 267.457197 
L 119.897918 267.070631 
L 120.748095 263.544487 
L 121.314881 259.906384 
L 121.598273 259.672211 
L 122.731844 259.908961 
L 123.015236 266.953765 
L 127.266125 268.142564 
L 127.549518 268.129814 
L 127.83291 268.56328 
L 128.399695 266.620719 
L 128.683088 265.344005 
L 129.533266 257.446299 
L 129.816658 265.763489 
L 130.100051 264.338125 
L 130.383443 263.762021 
L 130.950229 264.039328 
L 132.650584 264.680892 
L 133.217369 264.43128 
L 133.500762 264.515159 
L 134.067547 264.054849 
L 134.917725 264.393112 
L 136.334688 264.888082 
L 136.61808 234.131015 
L 141.152362 238.398792 
L 143.13611 240.163319 
L 143.419502 258.044733 
L 148.237176 260.365334 
L 148.803961 260.655199 
L 149.087354 260.497264 
L 149.370747 260.207127 
L 149.654139 259.556435 
L 149.937532 258.118848 
L 150.220924 262.769766 
L 150.787709 258.610279 
L 151.354495 254.495135 
L 151.92128 249.174683 
L 152.488065 242.564593 
L 153.621635 225.202788 
L 153.905028 223.094245 
L 154.471813 217.417152 
L 155.321991 215.182942 
L 155.605383 214.645422 
L 155.888776 214.660898 
L 156.455561 214.95448 
L 156.738954 215.338051 
L 157.022346 158.819036 
L 161.556628 166.426217 
L 163.540376 169.59981 
L 163.823768 221.54295 
L 167.507872 224.520533 
L 167.791265 224.247227 
L 168.35805 222.710889 
L 169.49162 213.645289 
L 170.058405 213.352037 
L 170.341798 213.269031 
L 170.62519 192.904199 
L 176.293042 201.062895 
L 177.14322 202.249715 
L 177.426612 231.425844 
L 181.960894 235.890084 
L 183.944642 237.739722 
L 184.228035 250.470252 
L 188.762316 253.387283 
L 193.296597 256.031861 
L 197.547486 258.278664 
L 197.830879 258.152939 
L 202.648553 260.459401 
L 204.348908 261.212714 
L 204.632301 261.615559 
L 206.049264 262.271746 
L 206.332656 262.117405 
L 206.616049 263.528077 
L 206.899441 260.662752 
L 207.182834 251.544932 
L 207.749619 246.591855 
L 208.316404 240.920532 
L 208.599797 241.696569 
L 208.883189 241.801902 
L 209.733367 242.553106 
L 210.866938 243.249768 
L 211.15033 243.13167 
L 211.433723 244.482548 
L 212.000508 241.093171 
L 212.2839 240.744469 
L 212.850686 234.78029 
L 213.134078 236.180859 
L 213.417471 236.142024 
L 213.984256 236.736907 
L 215.401219 237.95498 
L 215.684611 237.813561 
L 215.968004 238.203814 
L 216.534789 236.625112 
L 216.818182 235.071009 
L 217.384967 228.264638 
L 217.66836 228.089983 
L 218.235145 228.233322 
L 219.9355 230.048879 
L 224.469782 234.610326 
L 229.004063 238.842521 
L 233.254952 242.515397 
L 237.505841 245.909665 
L 238.356018 246.555827 
L 238.639411 224.103846 
L 244.02387 227.863218 
L 245.15744 228.62026 
L 245.440833 237.954324 
L 249.975114 240.333075 
L 250.258507 240.271052 
L 250.541899 239.939942 
L 250.825292 239.216852 
L 251.392077 233.847161 
L 251.958862 227.349592 
L 252.242255 241.164461 
L 252.525648 240.695363 
L 252.80904 240.486221 
L 253.375825 240.493405 
L 254.226003 240.880075 
L 258.760284 243.412971 
L 259.043677 248.594666 
L 264.994921 251.201829 
L 271.229558 253.678951 
L 277.464195 255.920353 
L 284.265617 258.122983 
L 287.382936 259.054967 
L 287.666328 257.647974 
L 291.350432 259.91847 
L 292.767395 260.727794 
L 293.050787 259.054663 
L 297.018283 261.331073 
L 297.868461 261.920009 
L 298.718639 260.199909 
L 299.285424 258.520144 
L 300.135602 257.472426 
L 300.418994 257.400719 
L 300.98578 257.129438 
L 301.552565 257.238917 
L 302.686135 257.882462 
L 303.819705 258.710188 
L 304.669883 257.303477 
L 305.236668 255.078131 
L 305.520061 254.939525 
L 307.220416 246.148487 
L 307.503809 245.729432 
L 307.787202 245.625069 
L 308.353987 245.879444 
L 309.77095 247.133687 
L 313.455053 250.409609 
L 317.139157 253.388531 
L 320.823261 256.084071 
L 324.507364 258.513372 
L 328.47486 260.852656 
L 332.442357 262.927584 
L 336.409853 264.761501 
L 339.810564 266.158936 
L 343.494667 227.728776 
L 343.77806 226.435528 
L 344.061453 225.771199 
L 344.344845 225.503053 
L 344.91163 225.538062 
L 346.328593 226.092498 
L 347.462164 226.888036 
L 350.579482 229.332105 
L 350.862875 240.7136 
L 354.546978 244.538549 
L 356.247334 246.195351 
L 356.530726 250.560424 
L 361.915185 253.069473 
L 363.048756 253.566841 
L 363.332148 257.161043 
L 369.283393 259.237303 
L 369.850178 259.423473 
L 370.13357 260.299042 
L 376.6516 262.207775 
L 376.934992 262.138559 
L 377.218385 261.93973 
L 378.351955 261.708787 
L 378.635348 261.497401 
L 379.202133 260.804618 
L 379.768918 258.781472 
L 380.052311 257.555013 
L 380.619096 252.176889 
L 381.469274 244.206034 
L 381.752666 242.207396 
L 382.036059 241.026009 
L 382.319451 240.491029 
L 382.602844 240.329638 
L 383.169629 240.478404 
L 383.453022 240.637803 
L 383.736414 261.976249 
L 390.254444 263.686855 
L 390.537836 262.354973 
L 394.788725 264.326802 
L 397.339259 265.390896 
L 397.622651 263.382938 
L 401.87354 265.228039 
L 403.857288 266.008369 
L 404.140681 263.437041 
L 408.391569 265.27543 
L 412.075673 266.681238 
L 412.359066 269.87535 
L 417.743525 271.129537 
L 418.026917 267.386592 
L 422.844591 268.887906 
L 427.945658 270.237133 
L 431.062976 270.954782 
L 431.346369 266.41273 
L 433.330117 266.710306 
L 433.613509 266.574913 
L 434.180295 265.716759 
L 434.74708 264.559872 
L 435.313865 263.911466 
L 436.164043 263.428914 
L 436.730828 263.360908 
L 437.297613 263.398835 
L 437.581006 263.262985 
L 437.864398 262.975681 
L 438.147791 266.196316 
L 440.131539 266.261613 
L 440.698324 266.116128 
L 441.831894 265.755425 
L 442.682072 265.785884 
L 445.799391 266.318429 
L 446.082783 266.368524 
L 446.366176 268.576868 
L 447.783139 268.773245 
L 448.066531 261.435214 
L 451.18385 262.146521 
L 451.467242 261.886444 
L 451.750635 230.704464 
L 452.600813 229.387337 
L 452.884205 229.260595 
L 453.45099 229.352371 
L 454.301168 229.859726 
L 465.070086 237.481741 
L 465.353479 257.323353 
L 471.871508 259.331526 
L 472.154901 260.244939 
L 476.122397 262.332311 
L 478.67293 263.54792 
L 478.956323 261.759835 
L 485.474352 263.318089 
L 485.757745 262.950111 
L 492.559167 264.632064 
L 492.84256 263.707559 
L 497.943626 264.870711 
L 498.793804 264.890798 
L 499.077197 264.220258 
L 499.360589 263.174678 
L 499.643982 262.733697 
L 500.777552 263.281078 
L 501.060945 263.281402 
L 501.62773 262.166287 
L 501.911122 261.172999 
L 502.477908 256.806086 
L 503.044693 249.77456 
L 503.89487 240.703457 
L 504.178263 238.941732 
L 504.461656 237.963922 
L 504.745048 237.583385 
L 505.028441 237.557701 
L 505.595226 237.959726 
L 505.878619 238.243766 
L 506.162011 181.794961 
L 510.979685 189.941366 
L 511.829863 190.951743 
L 512.113255 191.1103 
L 512.396648 191.137371 
L 512.680041 191.291152 
L 512.963433 191.58749 
L 513.246826 223.129984 
L 513.530218 223.101106 
L 514.097004 223.421157 
L 514.947181 224.083872 
L 515.230574 223.979974 
L 515.797359 223.47039 
L 516.364144 222.043297 
L 533.367699 236.122908 
L 533.651092 253.64432 
L 535.351447 254.770702 
L 535.918233 254.894341 
L 537.618588 255.300441 
L 538.468766 255.760337 
L 539.885729 256.696493 
L 540.169121 253.536113 
L 543.853225 256.153267 
L 546.970543 258.167985 
L 547.253936 257.10694 
L 551.221432 259.538753 
L 553.488573 260.734711 
L 553.771965 255.37563 
L 554.622143 254.817501 
L 555.188928 254.299772 
L 555.472321 254.212446 
L 556.889284 254.764243 
L 557.172676 254.47598 
L 558.306247 251.57881 
L 558.873032 248.238279 
L 559.72321 241.296764 
L 560.289995 235.579987 
L 560.573388 234.295421 
L 560.85678 247.692942 
L 561.140173 246.421327 
L 561.99035 244.574259 
L 562.273743 244.221405 
L 562.840528 242.624282 
L 563.407313 240.977592 
L 563.974099 239.835201 
L 564.257491 239.565042 
L 564.540884 239.560489 
L 565.107669 239.945259 
L 567.091417 241.978917 
L 567.37481 219.45095 
L 571.909091 223.584217 
L 574.176232 225.542741 
L 574.459624 233.95067 
L 579.277298 237.64276 
L 580.977654 238.870072 
L 581.261046 239.361014 
L 585.795328 242.41087 
L 587.779076 243.666512 
L 588.062468 245.204184 
L 592.880142 247.936153 
L 594.297105 248.637928 
L 594.580498 248.364104 
L 594.86389 249.424252 
L 595.147283 248.96265 
L 595.714068 246.812378 
L 596.564246 243.578672 
L 597.981209 239.234053 
L 598.547994 235.620897 
L 599.114779 232.408156 
L 599.398172 231.658758 
L 599.681564 231.326776 
L 599.964957 231.274105 
L 600.531742 231.528908 
L 601.38192 232.181318 
L 601.665312 231.678326 
L 601.948705 231.571054 
L 602.51549 230.854857 
L 603.64906 228.720625 
L 603.932453 228.624524 
L 604.215846 228.749601 
L 604.782631 229.310381 
L 607.899949 233.179599 
L 608.183342 211.335435 
L 610.733875 214.340745 
L 611.017268 214.510235 
L 611.30066 214.526878 
L 611.584053 214.384279 
L 611.867445 213.923724 
L 613.001016 210.890508 
L 613.567801 209.915055 
L 613.851193 209.713287 
L 614.134586 209.727159 
L 614.701371 210.168867 
L 614.984764 210.475059 
L 615.268156 232.002947 
L 619.235653 236.738097 
L 621.786186 239.583236 
L 622.069578 241.633358 
L 622.636364 242.041547 
L 622.636364 242.041547 
" clip-path="url(#p4b0dfdf4fa)" style="fill: none; stroke: #ff7f0e; stroke-width: 1.5; stroke-linecap: square"/>
   </g>
   <g id="patch_3">
    <path d="M 90 288 
L 90 43.2 
" style="fill: none; stroke: #000000; stroke-width: 0.8; stroke-linejoin: miter; stroke-linecap: square"/>
   </g>
   <g id="patch_4">
    <path d="M 648 288 
L 648 43.2 
" style="fill: none; stroke: #000000; stroke-width: 0.8; stroke-linejoin: miter; stroke-linecap: square"/>
   </g>
   <g id="patch_5">
    <path d="M 90 288 
L 648 288 
" style="fill: none; stroke: #000000; stroke-width: 0.8; stroke-linejoin: miter; stroke-linecap: square"/>
   </g>
   <g id="patch_6">
    <path d="M 90 43.2 
L 648 43.2 
" style="fill: none; stroke: #000000; stroke-width: 0.8; stroke-linejoin: miter; stroke-linecap: square"/>
   </g>
   <g id="text_13">
    <!-- MDOT5772 -->
    <g transform="translate(335.545313 37.2) scale(0.12 -0.12)">
     <defs>
      <path id="DejaVuSans-44" d="M 1259 4147 
L 1259 519 
L 2022 519 
Q 2988 519 3436 956 
Q 3884 1394 3884 2338 
Q 3884 3275 3436 3711 
Q 2988 4147 2022 4147 
L 1259 4147 
z
M 628 4666 
L 1925 4666 
Q 3281 4666 3915 4102 
Q 4550 3538 4550 2338 
Q 4550 1131 3912 565 
Q 3275 0 1925 0 
L 628 0 
L 628 4666 
z
" transform="scale(0.015625)"/>
      <path id="DejaVuSans-4f" d="M 2522 4238 
Q 1834 4238 1429 3725 
Q 1025 3213 1025 2328 
Q 1025 1447 1429 934 
Q 1834 422 2522 422 
Q 3209 422 3611 934 
Q 4013 1447 4013 2328 
Q 4013 3213 3611 3725 
Q 3209 4238 2522 4238 
z
M 2522 4750 
Q 3503 4750 4090 4092 
Q 4678 3434 4678 2328 
Q 4678 1225 4090 567 
Q 3503 -91 2522 -91 
Q 1538 -91 948 565 
Q 359 1222 359 2328 
Q 359 3434 948 4092 
Q 1538 4750 2522 4750 
z
" transform="scale(0.015625)"/>
      <path id="DejaVuSans-54" d="M -19 4666 
L 3928 4666 
L 3928 4134 
L 2272 4134 
L 2272 0 
L 1638 0 
L 1638 4134 
L -19 4134 
L -19 4666 
z
" transform="scale(0.015625)"/>
      <path id="DejaVuSans-37" d="M 525 4666 
L 3525 4666 
L 3525 4397 
L 1831 0 
L 1172 0 
L 2766 4134 
L 525 4134 
L 525 4666 
z
" transform="scale(0.015625)"/>
     </defs>
     <use xlink:href="#DejaVuSans-4d"/>
     <use xlink:href="#DejaVuSans-44" x="86.279297"/>
     <use xlink:href="#DejaVuSans-4f" x="163.28125"/>
     <use xlink:href="#DejaVuSans-54" x="241.992188"/>
     <use xlink:href="#DejaVuSans-35" x="303.076172"/>
     <use xlink:href="#DejaVuSans-37" x="366.699219"/>
     <use xlink:href="#DejaVuSans-37" x="430.322266"/>
     <use xlink:href="#DejaVuSans-32" x="493.945312"/>
    </g>
   </g>
   <g id="legend_1">
    <g id="patch_7">
     <path d="M 559.04375 80.55625 
L 641 80.55625 
Q 643 80.55625 643 78.55625 
L 643 50.2 
Q 643 48.2 641 48.2 
L 559.04375 48.2 
Q 557.04375 48.2 557.04375 50.2 
L 557.04375 78.55625 
Q 557.04375 80.55625 559.04375 80.55625 
z
" style="fill: #ffffff; opacity: 0.8; stroke: #cccccc; stroke-linejoin: miter"/>
    </g>
    <g id="line2d_14">
     <path d="M 561.04375 56.298437 
L 571.04375 56.298437 
L 581.04375 56.298437 
" style="fill: none; stroke: #1f77b4; stroke-width: 1.5; stroke-linecap: square"/>
    </g>
    <g id="text_14">
     <!-- measured -->
     <g transform="translate(589.04375 59.798437) scale(0.1 -0.1)">
      <defs>
       <path id="DejaVuSans-6d" d="M 3328 2828 
Q 3544 3216 3844 3400 
Q 4144 3584 4550 3584 
Q 5097 3584 5394 3201 
Q 5691 2819 5691 2113 
L 5691 0 
L 5113 0 
L 5113 2094 
Q 5113 2597 4934 2840 
Q 4756 3084 4391 3084 
Q 3944 3084 3684 2787 
Q 3425 2491 3425 1978 
L 3425 0 
L 2847 0 
L 2847 2094 
Q 2847 2600 2669 2842 
Q 2491 3084 2119 3084 
Q 1678 3084 1418 2786 
Q 1159 2488 1159 1978 
L 1159 0 
L 581 0 
L 581 3500 
L 1159 3500 
L 1159 2956 
Q 1356 3278 1631 3431 
Q 1906 3584 2284 3584 
Q 2666 3584 2933 3390 
Q 3200 3197 3328 2828 
z
" transform="scale(0.015625)"/>
       <path id="DejaVuSans-61" d="M 2194 1759 
Q 1497 1759 1228 1600 
Q 959 1441 959 1056 
Q 959 750 1161 570 
Q 1363 391 1709 391 
Q 2188 391 2477 730 
Q 2766 1069 2766 1631 
L 2766 1759 
L 2194 1759 
z
M 3341 1997 
L 3341 0 
L 2766 0 
L 2766 531 
Q 2569 213 2275 61 
Q 1981 -91 1556 -91 
Q 1019 -91 701 211 
Q 384 513 384 1019 
Q 384 1609 779 1909 
Q 1175 2209 1959 2209 
L 2766 2209 
L 2766 2266 
Q 2766 2663 2505 2880 
Q 2244 3097 1772 3097 
Q 1472 3097 1187 3025 
Q 903 2953 641 2809 
L 641 3341 
Q 956 3463 1253 3523 
Q 1550 3584 1831 3584 
Q 2591 3584 2966 3190 
Q 3341 2797 3341 1997 
z
" transform="scale(0.015625)"/>
       <path id="DejaVuSans-75" d="M 544 1381 
L 544 3500 
L 1119 3500 
L 1119 1403 
Q 1119 906 1312 657 
Q 1506 409 1894 409 
Q 2359 409 2629 706 
Q 2900 1003 2900 1516 
L 2900 3500 
L 3475 3500 
L 3475 0 
L 2900 0 
L 2900 538 
Q 2691 219 2414 64 
Q 2138 -91 1772 -91 
Q 1169 -91 856 284 
Q 544 659 544 1381 
z
M 1991 3584 
L 1991 3584 
z
" transform="scale(0.015625)"/>
       <path id="DejaVuSans-64" d="M 2906 2969 
L 2906 4863 
L 3481 4863 
L 3481 0 
L 2906 0 
L 2906 525 
Q 2725 213 2448 61 
Q 2172 -91 1784 -91 
Q 1150 -91 751 415 
Q 353 922 353 1747 
Q 353 2572 751 3078 
Q 1150 3584 1784 3584 
Q 2172 3584 2448 3432 
Q 2725 3281 2906 2969 
z
M 947 1747 
Q 947 1113 1208 752 
Q 1469 391 1925 391 
Q 2381 391 2643 752 
Q 2906 1113 2906 1747 
Q 2906 2381 2643 2742 
Q 2381 3103 1925 3103 
Q 1469 3103 1208 2742 
Q 947 2381 947 1747 
z
" transform="scale(0.015625)"/>
      </defs>
      <use xlink:href="#DejaVuSans-6d"/>
      <use xlink:href="#DejaVuSans-65" x="97.412109"/>
      <use xlink:href="#DejaVuSans-61" x="158.935547"/>
      <use xlink:href="#DejaVuSans-73" x="220.214844"/>
      <use xlink:href="#DejaVuSans-75" x="272.314453"/>
      <use xlink:href="#DejaVuSans-72" x="335.693359"/>
      <use xlink:href="#DejaVuSans-65" x="374.556641"/>
      <use xlink:href="#DejaVuSans-64" x="436.080078"/>
     </g>
    </g>
    <g id="line2d_15">
     <path d="M 561.04375 70.976562 
L 571.04375 70.976562 
L 581.04375 70.976562 
" style="fill: none; stroke: #ff7f0e; stroke-width: 1.5; stroke-linecap: square"/>
    </g>
    <g id="text_15">
     <!-- predicted -->
     <g transform="translate(589.04375 74.476562) scale(0.1 -0.1)">
      <defs>
       <path id="DejaVuSans-70" d="M 1159 525 
L 1159 -1331 
L 581 -1331 
L 581 3500 
L 1159 3500 
L 1159 2969 
Q 1341 3281 1617 3432 
Q 1894 3584 2278 3584 
Q 2916 3584 3314 3078 
Q 3713 2572 3713 1747 
Q 3713 922 3314 415 
Q 2916 -91 2278 -91 
Q 1894 -91 1617 61 
Q 1341 213 1159 525 
z
M 3116 1747 
Q 3116 2381 2855 2742 
Q 2594 3103 2138 3103 
Q 1681 3103 1420 2742 
Q 1159 2381 1159 1747 
Q 1159 1113 1420 752 
Q 1681 391 2138 391 
Q 2594 391 2855 752 
Q 3116 1113 3116 1747 
z
" transform="scale(0.015625)"/>
       <path id="DejaVuSans-69" d="M 603 3500 
L 1178 3500 
L 1178 0 
L 603 0 
L 603 3500 
z
M 603 4863 
L 1178 4863 
L 1178 4134 
L 603 4134 
L 603 4863 
z
" transform="scale(0.015625)"/>
       <path id="DejaVuSans-63" d="M 3122 3366 
L 3122 2828 
Q 2878 2963 2633 3030 
Q 2388 3097 2138 3097 
Q 1578 3097 1268 2742 
Q 959 2388 959 1747 
Q 959 1106 1268 751 
Q 1578 397 2138 397 
Q 2388 397 2633 464 
Q 2878 531 3122 666 
L 3122 134 
Q 2881 22 2623 -34 
Q 2366 -91 2075 -91 
Q 1284 -91 818 406 
Q 353 903 353 1747 
Q 353 2603 823 3093 
Q 1294 3584 2113 3584 
Q 2378 3584 2631 3529 
Q 2884 3475 3122 3366 
z
" transform="scale(0.015625)"/>
      </defs>
      <use xlink:href="#DejaVuSans-70"/>
      <use xlink:href="#DejaVuSans-72" x="63.476562"/>
      <use xlink:href="#DejaVuSans-65" x="102.339844"/>
      <use xlink:href="#DejaVuSans-64" x="163.863281"/>
      <use xlink:href="#DejaVuSans-69" x="227.339844"/>
      <use xlink:href="#DejaVuSans-63" x="255.123047"/>
      <use xlink:href="#DejaVuSans-74" x="310.103516"/>
      <use xlink:href="#DejaVuSans-65" x="349.3125"/>
      <use xlink:href="#DejaVuSans-64" x="410.835938"/>
     </g>
    </g>
   </g>
  </g>
 </g>
 <defs>
  <clipPath id="p4b0dfdf4fa">
   <rect x="90" y="43.2" width="558" height="244.8"/>
  </clipPath>
 </defs>
</svg>
