<?xml version="1.0" encoding="utf-8" standalone="no"?>
<!DOCTYPE svg PUBLIC "-//W3C//DTD SVG 1.1//EN"
  "http://www.w3.org/Graphics/SVG/1.1/DTD/svg11.dtd">
<svg xmlns:xlink="http://www.w3.org/1999/xlink" width="712.8975pt" height="351.43625pt" viewBox="0 0 712.8975 351.43625" xmlns="http://www.w3.org/2000/svg" version="1.1">
 <metadata>
  <rdf:RDF xmlns:dc="http://purl.org/dc/elements/1.1/" xmlns:cc="http://creativecommons.org/ns#" xmlns:rdf="http://www.w3.org/1999/02/22-rdf-syntax-ns#">
   <cc:Work>
    <dc:type rdf:resource="http://purl.org/dc/dcmitype/StillImage"/>
    <dc:date>2024-05-11T13:46:27.553131</dc:date>
    <dc:format>image/svg+xml</dc:format>
    <dc:creator>
     <cc:Agent>
      <dc:title>Matplotlib v3.8.4, https://matplotlib.org/</dc:title>
     </cc:Agent>
    </dc:creator>
   </cc:Work>
  </rdf:RDF>
 </metadata>
 <defs>
  <style type="text/css">*{stroke-linejoin: round; stroke-linecap: butt}</style>
 </defs>
 <g id="figure_1">
  <g id="patch_1">
   <path d="M 0 351.43625 
L 712.8975 351.43625 
L 712.8975 0 
L 0 0 
z
" style="fill: #ffffff"/>
  </g>
  <g id="axes_1">
   <g id="patch_2">
    <path d="M 33.2875 327.558125 
L 705.6975 327.558125 
L 705.6975 22.318125 
L 33.2875 22.318125 
z
" style="fill: #ffffff"/>
   </g>
   <g id="matplotlib.axis_1">
    <g id="xtick_1">
     <g id="line2d_1">
      <defs>
       <path id="m2fa005935a" d="M 0 0 
L 0 3.5 
" style="stroke: #000000; stroke-width: 0.8"/>
      </defs>
      <g>
       <use xlink:href="#m2fa005935a" x="145.448621" y="327.558125" style="stroke: #000000; stroke-width: 0.8"/>
      </g>
     </g>
     <g id="text_1">
      <!-- 2012 -->
      <g transform="translate(132.723621 342.156563) scale(0.1 -0.1)">
       <defs>
        <path id="DejaVuSans-32" d="M 1228 531 
L 3431 531 
L 3431 0 
L 469 0 
L 469 531 
Q 828 903 1448 1529 
Q 2069 2156 2228 2338 
Q 2531 2678 2651 2914 
Q 2772 3150 2772 3378 
Q 2772 3750 2511 3984 
Q 2250 4219 1831 4219 
Q 1534 4219 1204 4116 
Q 875 4013 500 3803 
L 500 4441 
Q 881 4594 1212 4672 
Q 1544 4750 1819 4750 
Q 2544 4750 2975 4387 
Q 3406 4025 3406 3419 
Q 3406 3131 3298 2873 
Q 3191 2616 2906 2266 
Q 2828 2175 2409 1742 
Q 1991 1309 1228 531 
z
" transform="scale(0.015625)"/>
        <path id="DejaVuSans-30" d="M 2034 4250 
Q 1547 4250 1301 3770 
Q 1056 3291 1056 2328 
Q 1056 1369 1301 889 
Q 1547 409 2034 409 
Q 2525 409 2770 889 
Q 3016 1369 3016 2328 
Q 3016 3291 2770 3770 
Q 2525 4250 2034 4250 
z
M 2034 4750 
Q 2819 4750 3233 4129 
Q 3647 3509 3647 2328 
Q 3647 1150 3233 529 
Q 2819 -91 2034 -91 
Q 1250 -91 836 529 
Q 422 1150 422 2328 
Q 422 3509 836 4129 
Q 1250 4750 2034 4750 
z
" transform="scale(0.015625)"/>
        <path id="DejaVuSans-31" d="M 794 531 
L 1825 531 
L 1825 4091 
L 703 3866 
L 703 4441 
L 1819 4666 
L 2450 4666 
L 2450 531 
L 3481 531 
L 3481 0 
L 794 0 
L 794 531 
z
" transform="scale(0.015625)"/>
       </defs>
       <use xlink:href="#DejaVuSans-32"/>
       <use xlink:href="#DejaVuSans-30" x="63.623047"/>
       <use xlink:href="#DejaVuSans-31" x="127.246094"/>
       <use xlink:href="#DejaVuSans-32" x="190.869141"/>
      </g>
     </g>
    </g>
    <g id="xtick_2">
     <g id="line2d_2">
      <g>
       <use xlink:href="#m2fa005935a" x="259.551786" y="327.558125" style="stroke: #000000; stroke-width: 0.8"/>
      </g>
     </g>
     <g id="text_2">
      <!-- 2014 -->
      <g transform="translate(246.826786 342.156563) scale(0.1 -0.1)">
       <defs>
        <path id="DejaVuSans-34" d="M 2419 4116 
L 825 1625 
L 2419 1625 
L 2419 4116 
z
M 2253 4666 
L 3047 4666 
L 3047 1625 
L 3713 1625 
L 3713 1100 
L 3047 1100 
L 3047 0 
L 2419 0 
L 2419 1100 
L 313 1100 
L 313 1709 
L 2253 4666 
z
" transform="scale(0.015625)"/>
       </defs>
       <use xlink:href="#DejaVuSans-32"/>
       <use xlink:href="#DejaVuSans-30" x="63.623047"/>
       <use xlink:href="#DejaVuSans-31" x="127.246094"/>
       <use xlink:href="#DejaVuSans-34" x="190.869141"/>
      </g>
     </g>
    </g>
    <g id="xtick_3">
     <g id="line2d_3">
      <g>
       <use xlink:href="#m2fa005935a" x="373.498858" y="327.558125" style="stroke: #000000; stroke-width: 0.8"/>
      </g>
     </g>
     <g id="text_3">
      <!-- 2016 -->
      <g transform="translate(360.773858 342.156563) scale(0.1 -0.1)">
       <defs>
        <path id="DejaVuSans-36" d="M 2113 2584 
Q 1688 2584 1439 2293 
Q 1191 2003 1191 1497 
Q 1191 994 1439 701 
Q 1688 409 2113 409 
Q 2538 409 2786 701 
Q 3034 994 3034 1497 
Q 3034 2003 2786 2293 
Q 2538 2584 2113 2584 
z
M 3366 4563 
L 3366 3988 
Q 3128 4100 2886 4159 
Q 2644 4219 2406 4219 
Q 1781 4219 1451 3797 
Q 1122 3375 1075 2522 
Q 1259 2794 1537 2939 
Q 1816 3084 2150 3084 
Q 2853 3084 3261 2657 
Q 3669 2231 3669 1497 
Q 3669 778 3244 343 
Q 2819 -91 2113 -91 
Q 1303 -91 875 529 
Q 447 1150 447 2328 
Q 447 3434 972 4092 
Q 1497 4750 2381 4750 
Q 2619 4750 2861 4703 
Q 3103 4656 3366 4563 
z
" transform="scale(0.015625)"/>
       </defs>
       <use xlink:href="#DejaVuSans-32"/>
       <use xlink:href="#DejaVuSans-30" x="63.623047"/>
       <use xlink:href="#DejaVuSans-31" x="127.246094"/>
       <use xlink:href="#DejaVuSans-36" x="190.869141"/>
      </g>
     </g>
    </g>
    <g id="xtick_4">
     <g id="line2d_4">
      <g>
       <use xlink:href="#m2fa005935a" x="487.602023" y="327.558125" style="stroke: #000000; stroke-width: 0.8"/>
      </g>
     </g>
     <g id="text_4">
      <!-- 2018 -->
      <g transform="translate(474.877023 342.156563) scale(0.1 -0.1)">
       <defs>
        <path id="DejaVuSans-38" d="M 2034 2216 
Q 1584 2216 1326 1975 
Q 1069 1734 1069 1313 
Q 1069 891 1326 650 
Q 1584 409 2034 409 
Q 2484 409 2743 651 
Q 3003 894 3003 1313 
Q 3003 1734 2745 1975 
Q 2488 2216 2034 2216 
z
M 1403 2484 
Q 997 2584 770 2862 
Q 544 3141 544 3541 
Q 544 4100 942 4425 
Q 1341 4750 2034 4750 
Q 2731 4750 3128 4425 
Q 3525 4100 3525 3541 
Q 3525 3141 3298 2862 
Q 3072 2584 2669 2484 
Q 3125 2378 3379 2068 
Q 3634 1759 3634 1313 
Q 3634 634 3220 271 
Q 2806 -91 2034 -91 
Q 1263 -91 848 271 
Q 434 634 434 1313 
Q 434 1759 690 2068 
Q 947 2378 1403 2484 
z
M 1172 3481 
Q 1172 3119 1398 2916 
Q 1625 2713 2034 2713 
Q 2441 2713 2670 2916 
Q 2900 3119 2900 3481 
Q 2900 3844 2670 4047 
Q 2441 4250 2034 4250 
Q 1625 4250 1398 4047 
Q 1172 3844 1172 3481 
z
" transform="scale(0.015625)"/>
       </defs>
       <use xlink:href="#DejaVuSans-32"/>
       <use xlink:href="#DejaVuSans-30" x="63.623047"/>
       <use xlink:href="#DejaVuSans-31" x="127.246094"/>
       <use xlink:href="#DejaVuSans-38" x="190.869141"/>
      </g>
     </g>
    </g>
    <g id="xtick_5">
     <g id="line2d_5">
      <g>
       <use xlink:href="#m2fa005935a" x="601.549095" y="327.558125" style="stroke: #000000; stroke-width: 0.8"/>
      </g>
     </g>
     <g id="text_5">
      <!-- 2020 -->
      <g transform="translate(588.824095 342.156563) scale(0.1 -0.1)">
       <use xlink:href="#DejaVuSans-32"/>
       <use xlink:href="#DejaVuSans-30" x="63.623047"/>
       <use xlink:href="#DejaVuSans-32" x="127.246094"/>
       <use xlink:href="#DejaVuSans-30" x="190.869141"/>
      </g>
     </g>
    </g>
   </g>
   <g id="matplotlib.axis_2">
    <g id="ytick_1">
     <g id="line2d_6">
      <defs>
       <path id="m2042e6f23d" d="M 0 0 
L -3.5 0 
" style="stroke: #000000; stroke-width: 0.8"/>
      </defs>
      <g>
       <use xlink:href="#m2042e6f23d" x="33.2875" y="313.324425" style="stroke: #000000; stroke-width: 0.8"/>
      </g>
     </g>
     <g id="text_6">
      <!-- 0 -->
      <g transform="translate(19.925 317.123643) scale(0.1 -0.1)">
       <use xlink:href="#DejaVuSans-30"/>
      </g>
     </g>
    </g>
    <g id="ytick_2">
     <g id="line2d_7">
      <g>
       <use xlink:href="#m2042e6f23d" x="33.2875" y="262.739212" style="stroke: #000000; stroke-width: 0.8"/>
      </g>
     </g>
     <g id="text_7">
      <!-- 100 -->
      <g transform="translate(7.2 266.538431) scale(0.1 -0.1)">
       <use xlink:href="#DejaVuSans-31"/>
       <use xlink:href="#DejaVuSans-30" x="63.623047"/>
       <use xlink:href="#DejaVuSans-30" x="127.246094"/>
      </g>
     </g>
    </g>
    <g id="ytick_3">
     <g id="line2d_8">
      <g>
       <use xlink:href="#m2042e6f23d" x="33.2875" y="212.154" style="stroke: #000000; stroke-width: 0.8"/>
      </g>
     </g>
     <g id="text_8">
      <!-- 200 -->
      <g transform="translate(7.2 215.953218) scale(0.1 -0.1)">
       <use xlink:href="#DejaVuSans-32"/>
       <use xlink:href="#DejaVuSans-30" x="63.623047"/>
       <use xlink:href="#DejaVuSans-30" x="127.246094"/>
      </g>
     </g>
    </g>
    <g id="ytick_4">
     <g id="line2d_9">
      <g>
       <use xlink:href="#m2042e6f23d" x="33.2875" y="161.568787" style="stroke: #000000; stroke-width: 0.8"/>
      </g>
     </g>
     <g id="text_9">
      <!-- 300 -->
      <g transform="translate(7.2 165.368006) scale(0.1 -0.1)">
       <defs>
        <path id="DejaVuSans-33" d="M 2597 2516 
Q 3050 2419 3304 2112 
Q 3559 1806 3559 1356 
Q 3559 666 3084 287 
Q 2609 -91 1734 -91 
Q 1441 -91 1130 -33 
Q 819 25 488 141 
L 488 750 
Q 750 597 1062 519 
Q 1375 441 1716 441 
Q 2309 441 2620 675 
Q 2931 909 2931 1356 
Q 2931 1769 2642 2001 
Q 2353 2234 1838 2234 
L 1294 2234 
L 1294 2753 
L 1863 2753 
Q 2328 2753 2575 2939 
Q 2822 3125 2822 3475 
Q 2822 3834 2567 4026 
Q 2313 4219 1838 4219 
Q 1578 4219 1281 4162 
Q 984 4106 628 3988 
L 628 4550 
Q 988 4650 1302 4700 
Q 1616 4750 1894 4750 
Q 2613 4750 3031 4423 
Q 3450 4097 3450 3541 
Q 3450 3153 3228 2886 
Q 3006 2619 2597 2516 
z
" transform="scale(0.015625)"/>
       </defs>
       <use xlink:href="#DejaVuSans-33"/>
       <use xlink:href="#DejaVuSans-30" x="63.623047"/>
       <use xlink:href="#DejaVuSans-30" x="127.246094"/>
      </g>
     </g>
    </g>
    <g id="ytick_5">
     <g id="line2d_10">
      <g>
       <use xlink:href="#m2042e6f23d" x="33.2875" y="110.983575" style="stroke: #000000; stroke-width: 0.8"/>
      </g>
     </g>
     <g id="text_10">
      <!-- 400 -->
      <g transform="translate(7.2 114.782794) scale(0.1 -0.1)">
       <use xlink:href="#DejaVuSans-34"/>
       <use xlink:href="#DejaVuSans-30" x="63.623047"/>
       <use xlink:href="#DejaVuSans-30" x="127.246094"/>
      </g>
     </g>
    </g>
    <g id="ytick_6">
     <g id="line2d_11">
      <g>
       <use xlink:href="#m2042e6f23d" x="33.2875" y="60.398362" style="stroke: #000000; stroke-width: 0.8"/>
      </g>
     </g>
     <g id="text_11">
      <!-- 500 -->
      <g transform="translate(7.2 64.197581) scale(0.1 -0.1)">
       <defs>
        <path id="DejaVuSans-35" d="M 691 4666 
L 3169 4666 
L 3169 4134 
L 1269 4134 
L 1269 2991 
Q 1406 3038 1543 3061 
Q 1681 3084 1819 3084 
Q 2600 3084 3056 2656 
Q 3513 2228 3513 1497 
Q 3513 744 3044 326 
Q 2575 -91 1722 -91 
Q 1428 -91 1123 -41 
Q 819 9 494 109 
L 494 744 
Q 775 591 1075 516 
Q 1375 441 1709 441 
Q 2250 441 2565 725 
Q 2881 1009 2881 1497 
Q 2881 1984 2565 2268 
Q 2250 2553 1709 2553 
Q 1456 2553 1204 2497 
Q 953 2441 691 2322 
L 691 4666 
z
" transform="scale(0.015625)"/>
       </defs>
       <use xlink:href="#DejaVuSans-35"/>
       <use xlink:href="#DejaVuSans-30" x="63.623047"/>
       <use xlink:href="#DejaVuSans-30" x="127.246094"/>
      </g>
     </g>
    </g>
   </g>
   <g id="line2d_12">
    <path d="M 63.851591 313.061381 
L 64.93773 313.16761 
L 65.126341 313.177727 
L 67.038467 313.094262 
L 67.168543 312.995621 
L 67.363658 313.036089 
L 67.610804 313.096791 
L 67.779903 313.10185 
L 77.379554 312.995621 
L 77.405569 312.96527 
L 77.490119 313.010796 
L 77.652715 313.020913 
L 77.98441 313.03103 
L 82.088326 312.922272 
L 82.380998 312.924801 
L 82.641151 312.909626 
L 82.933823 312.909626 
L 83.11593 312.912155 
L 83.252511 312.899509 
L 85.880058 312.805926 
L 85.893065 312.75787 
L 85.977615 312.856511 
L 86.270287 312.853982 
L 86.439387 312.859041 
L 106.575239 312.798338 
L 106.601255 312.707285 
L 106.692308 312.735107 
L 107.934539 312.841336 
L 108.07112 312.833748 
L 108.337777 312.848924 
L 111.875859 312.950094 
L 112.01244 312.960211 
L 114.542429 313.06644 
L 114.698521 313.081616 
L 114.958674 313.06644 
L 115.166797 313.104379 
L 115.394431 313.079086 
L 115.518003 313.091733 
L 115.752141 313.137259 
L 116.805761 313.246017 
L 117.222006 313.291544 
L 117.61874 313.256135 
L 117.950435 313.266252 
L 118.210588 313.283956 
L 119.381277 313.392715 
L 119.758499 313.420536 
L 120.038164 313.430653 
L 121.351937 313.321895 
L 121.631602 313.314307 
L 121.664121 313.296603 
L 121.755175 313.359834 
L 121.839724 313.326954 
L 121.859236 313.37501 
L 122.138901 313.367422 
L 122.353527 313.334542 
L 122.399054 312.332954 
L 122.464092 312.889392 
L 122.607176 312.972857 
L 123.029925 313.162552 
L 123.173009 313.122084 
L 123.186017 312.879275 
L 123.283574 313.023443 
L 123.576247 313.111967 
L 125.709502 313.015855 
L 125.748525 312.838806 
L 125.820067 313.005738 
L 126.034694 313.086674 
L 126.288343 313.106908 
L 136.421308 313.000679 
L 136.596911 313.000679 
L 136.928606 313.010796 
L 139.848825 312.904567 
L 139.998413 312.922272 
L 140.291085 312.919743 
L 140.603269 312.917214 
L 140.889438 312.909626 
L 143.556007 312.805926 
L 143.673076 312.717402 
L 143.705595 312.770516 
L 143.887702 312.818572 
L 166.93727 312.924801 
L 167.164904 312.96527 
L 169.51929 312.881804 
L 169.538801 312.803397 
L 169.623351 312.907097 
L 169.831474 312.982974 
L 170.137154 312.982974 
L 170.371291 312.955152 
L 172.010256 313.061381 
L 172.244394 313.106908 
L 172.550074 313.106908 
L 173.356549 313.215666 
L 173.811817 313.273839 
L 178.221412 313.382598 
L 178.598634 313.410419 
L 181.544869 313.516648 
L 181.557876 313.496414 
L 181.674945 313.501473 
L 181.759495 313.486297 
L 181.73348 313.521707 
L 181.78551 313.496414 
L 182.013144 313.534353 
L 182.09119 313.455946 
L 182.032656 313.536882 
L 182.130213 313.471122 
L 182.234274 313.541941 
L 182.247282 313.536882 
L 182.364351 313.506531 
L 182.370855 313.509061 
L 183.697636 313.617819 
L 183.795193 313.595055 
L 183.717147 313.577351 
L 183.814705 313.569763 
L 185.401639 313.678521 
L 185.551227 313.658287 
L 185.889426 313.552058 
L 186.42274 313.276369 
L 186.734924 313.273839 
L 187.599933 313.246017 
L 187.61294 312.765458 
L 187.710498 313.109437 
L 187.847078 313.079086 
L 188.00317 313.096791 
L 193.752554 312.990562 
L 193.934662 312.980445 
L 194.08425 312.975387 
L 194.090753 312.945035 
L 194.194815 312.975387 
L 199.91168 312.879275 
L 199.950703 312.823631 
L 200.028749 312.853982 
L 200.334429 312.853982 
L 228.02773 312.96274 
L 228.346417 312.970328 
L 228.743151 312.934918 
L 231.8845 313.043677 
L 232.307249 313.089203 
L 232.743005 313.038618 
L 232.964135 313.071498 
L 233.393388 312.96527 
L 233.516961 312.972857 
L 233.874671 312.993091 
L 234.108809 313.015855 
L 234.271405 313.036089 
L 234.479527 313.058852 
L 236.768875 313.020913 
L 236.833913 312.41642 
L 236.885944 312.82616 
L 237.016021 312.874216 
L 237.633884 312.859041 
L 237.666403 311.819514 
L 237.750953 312.231784 
L 237.835503 312.469534 
L 237.842007 312.325367 
L 237.887534 311.773988 
L 237.946068 312.489769 
L 238.069641 312.747753 
L 238.089152 312.730048 
L 238.160694 312.684522 
L 238.206221 312.717402 
L 238.45987 312.843865 
L 238.681001 312.881804 
L 238.915138 312.904567 
L 239.136269 312.939977 
L 241.575204 313.048735 
L 241.757311 313.051264 
L 242.511755 312.955152 
L 242.583298 311.215021 
L 242.661344 311.900451 
L 242.882474 312.638995 
L 242.999543 312.760399 
L 243.006046 312.722461 
L 243.032062 312.064853 
L 243.123115 312.413891 
L 243.350749 312.767987 
L 244.053163 312.874216 
L 244.23527 312.879275 
L 252.267498 312.795809 
L 252.306521 312.697168 
L 252.378063 312.778104 
L 252.638216 312.843865 
L 259.506259 312.737636 
L 259.681862 312.735107 
L 259.974535 312.730048 
L 260.260703 312.737636 
L 271.967594 312.628878 
L 272.273274 312.626349 
L 272.448877 312.626349 
L 281.404649 312.735107 
L 281.710329 312.740165 
L 281.996497 312.651641 
L 282.172101 312.687051 
L 282.185108 312.560588 
L 282.282666 312.631407 
L 282.497292 312.661758 
L 283.232225 312.575763 
L 283.297263 312.474593 
L 283.355797 312.51759 
L 284.084226 312.681992 
L 284.422425 312.573234 
L 284.53299 312.611173 
L 284.585021 312.608644 
L 284.591525 312.570705 
L 284.650059 312.322837 
L 284.715098 312.446771 
L 284.92322 312.611173 
L 285.775222 312.719931 
L 286.14594 312.747753 
L 286.328047 312.742695 
L 286.718277 312.775575 
L 286.874369 312.767987 
L 286.887376 312.338013 
L 286.984934 312.62129 
L 287.134522 312.692109 
L 287.355652 312.72499 
L 287.628813 312.737636 
L 303.589207 312.684522 
L 303.608719 312.547942 
L 303.699772 312.636466 
L 317.084651 312.527707 
L 317.37082 312.535295 
L 340.739075 312.638995 
L 340.758586 312.618761 
L 340.882159 312.641524 
L 341.844726 312.578293 
L 341.877245 312.510003 
L 341.955291 312.527707 
L 342.417063 312.613702 
L 342.423566 312.590939 
L 344.602349 312.666817 
L 344.660883 312.702226 
L 344.62186 312.626349 
L 344.712914 312.692109 
L 344.797464 312.608644 
L 344.823479 312.702226 
L 345.291755 312.593468 
L 345.545404 312.606115 
L 345.681984 312.618761 
L 345.688488 312.608644 
L 346.67707 312.717402 
L 346.859177 312.722461 
L 352.641081 312.6567 
L 352.647585 312.608644 
L 352.725631 312.717402 
L 352.738638 312.717402 
L 353.128868 312.75787 
L 353.291464 312.737636 
L 362.455358 312.631407 
L 362.598442 312.573234 
L 363.125252 312.659229 
L 363.437436 312.6567 
L 372.802949 312.553 
L 372.82246 312.474593 
L 372.854979 312.58588 
L 372.90701 312.580822 
L 390.233209 312.537824 
L 390.25272 310.908981 
L 390.343774 311.667759 
L 390.551896 312.360776 
L 390.760019 312.479651 
L 391.033179 312.555529 
L 395.976089 312.664288 
L 396.320792 312.681992 
L 396.626472 312.679463 
L 396.886625 312.669346 
L 397.029709 312.666817 
L 397.335389 312.669346 
L 397.615054 312.679463 
L 405.003403 312.788221 
L 405.205021 312.816043 
L 405.341602 312.823631 
L 407.565911 312.714873 
L 407.865087 312.714873 
L 408.229302 312.740165 
L 408.359378 312.747753 
L 408.528478 312.745224 
L 408.704081 312.742695 
L 409.016265 312.750282 
L 409.185364 312.752812 
L 409.510556 312.760399 
L 410.544664 312.651641 
L 410.694253 312.638995 
L 410.934894 312.687051 
L 411.214559 312.684522 
L 411.357643 312.684522 
L 429.451293 312.580822 
L 429.490316 312.560588 
L 429.555355 312.601056 
L 429.763477 312.628878 
L 430.030134 312.638995 
L 430.19273 312.631407 
L 430.355326 312.644053 
L 430.63499 312.636466 
L 430.953678 312.628878 
L 431.129281 312.626349 
L 449.281466 312.52012 
L 449.444062 312.499886 
L 449.619665 312.550471 
L 450.029406 312.590939 
L 450.185498 312.603585 
L 450.536705 312.623819 
L 450.8684 312.613702 
L 451.245622 312.641524 
L 459.492477 312.740165 
L 459.616049 312.740165 
L 460.045302 312.730048 
L 460.708692 312.755341 
L 484.636277 312.65417 
L 484.746842 312.65417 
L 486.359791 312.638995 
L 486.658968 312.633936 
L 486.769533 312.631407 
L 487.120739 312.631407 
L 487.348373 312.616232 
L 487.576007 312.626349 
L 487.667061 312.606115 
L 487.686572 312.62129 
L 488.076802 312.583351 
L 488.330451 312.601056 
L 488.460528 312.601056 
L 488.629628 312.603585 
L 488.980834 312.62129 
L 489.162941 312.618761 
L 489.774301 312.631407 
L 489.930393 312.626349 
L 490.717356 312.611173 
L 491.010029 312.613702 
L 491.153113 312.613702 
L 491.452289 312.616232 
L 500.35603 312.512532 
L 500.388549 312.487239 
L 500.453587 312.550471 
L 500.700733 312.606115 
L 500.889344 312.593468 
L 501.175512 312.58588 
L 510.690613 312.694639 
L 510.963774 312.681992 
L 516.335936 312.790751 
L 516.674135 312.803397 
L 531.353276 312.704756 
L 531.502864 312.6567 
L 543.873145 312.558059 
L 543.892657 312.530237 
L 543.977207 312.580822 
L 568.46412 312.68958 
L 568.607205 312.65417 
L 568.860854 312.638995 
L 569.225068 312.661758 
L 572.516006 312.770516 
L 572.88022 312.79328 
L 575.46224 312.899509 
L 575.676866 312.92986 
L 580.944967 312.879275 
L 580.957975 312.669346 
L 581.055532 312.821102 
L 581.471777 312.864099 
L 595.871253 312.755341 
L 596.157422 312.762929 
L 597.295591 312.6567 
L 597.328111 312.613702 
L 597.399653 312.681992 
L 597.58176 312.727519 
L 597.893944 312.730048 
L 598.19312 312.732578 
L 624.156403 312.838806 
L 624.279975 312.798338 
L 624.429563 312.788221 
L 624.631182 312.808455 
L 624.897839 312.823631 
L 625.197015 312.727519 
L 625.229534 312.687051 
L 625.301076 312.75787 
L 625.606756 312.859041 
L 631.375652 312.967799 
L 631.603286 312.939977 
L 631.752874 312.960211 
L 633.10567 312.879275 
L 633.209732 311.895392 
L 633.255258 312.158435 
L 633.586954 312.742695 
L 633.71703 312.773046 
L 633.951168 312.818572 
L 634.094252 312.813514 
L 634.224329 312.780634 
L 634.458467 312.790751 
L 634.556024 313.468592 
L 634.582039 312.92986 
L 634.595047 312.828689 
L 634.653581 313.412949 
L 634.673093 313.554587 
L 634.725124 313.13473 
L 634.738131 312.846394 
L 634.822681 313.455946 
L 634.848696 313.562175 
L 634.881215 313.2359 
L 634.900727 312.853982 
L 634.985277 313.54447 
L 635.011292 313.632994 
L 635.043811 313.20302 
L 635.095842 312.831219 
L 635.16088 312.833748 
L 635.310468 312.841336 
L 636.955937 312.917214 
L 637.007967 313.643111 
L 637.086013 313.192903 
L 637.203082 312.823631 
L 638.991635 312.92986 
L 639.115208 312.937448 
L 639.128215 312.917214 
L 639.206261 312.788221 
L 639.2713 312.841336 
L 639.661529 312.874216 
L 641.671212 312.770516 
L 641.742754 312.742695 
L 641.794785 312.780634 
L 642.250053 312.838806 
L 652.76024 312.730048 
L 652.935843 312.732578 
L 658.490112 312.628878 
L 658.548647 312.525178 
L 658.613685 312.58588 
L 658.847823 312.631407 
L 659.452679 312.6567 
L 659.524221 313.377539 
L 659.576252 312.942506 
L 659.706328 312.636466 
L 661.91763 312.616232 
L 661.969661 313.326954 
L 662.047706 313.228313 
L 662.190791 312.611173 
L 665.923988 312.504944 
L 666.145118 312.469534 
L 666.294706 312.474593 
L 675.133409 312.530237 
L 675.133409 312.530237 
" clip-path="url(#pec4283c5ea)" style="fill: none; stroke: #1f77b4; stroke-width: 1.5; stroke-linecap: square"/>
   </g>
   <g id="line2d_13">
    <path d="M 63.851591 313.061381 
L 68.209156 313.012222 
L 68.378255 312.990769 
L 87.824702 313.179308 
L 105.495604 313.223906 
L 107.141072 313.223316 
L 122.236458 313.211247 
L 122.743757 313.174344 
L 132.239346 313.172149 
L 132.388934 313.158303 
L 145.006361 313.170932 
L 146.541264 313.177869 
L 171.561492 313.288761 
L 173.311022 313.281986 
L 177.779152 313.187428 
L 177.92874 313.166481 
L 236.619287 313.140947 
L 236.990005 313.020153 
L 243.40278 313.007956 
L 243.584887 312.999624 
L 260.52736 313.146395 
L 281.736344 313.258029 
L 281.872925 313.230411 
L 284.383402 313.136632 
L 284.539494 313.114734 
L 291.114865 313.080838 
L 291.349002 313.080425 
L 298.165015 313.058296 
L 298.425168 313.027991 
L 303.608719 312.995379 
L 303.725788 312.939481 
L 319.796748 313.091295 
L 320.08942 313.079698 
L 330.541072 313.122203 
L 335.932746 313.075752 
L 336.205907 313.020686 
L 338.157055 312.940324 
L 338.287132 312.912604 
L 339.639928 312.825687 
L 339.84805 312.824279 
L 345.23322 312.810894 
L 345.369801 312.772895 
L 349.811915 312.748529 
L 349.941992 312.602298 
L 355.821453 312.56095 
L 362.416335 312.51927 
L 362.559419 312.371132 
L 367.450298 312.254296 
L 373.915103 312.072999 
L 379.807572 311.785054 
L 383.410693 311.419096 
L 385.752071 310.978052 
L 387.267463 310.482658 
L 388.405633 309.896206 
L 389.270642 309.204084 
L 389.934032 308.390867 
L 390.298247 307.653539 
L 390.753515 306.485737 
L 391.195775 304.80231 
L 391.579501 302.424069 
L 391.911196 298.893768 
L 392.190861 293.373201 
L 392.431503 283.851965 
L 392.626617 266.377758 
L 392.789213 228.64121 
L 392.945305 128.489893 
L 393.159931 38.63189 
L 393.316023 36.330508 
L 393.491627 36.243278 
L 396.125677 36.2411 
L 675.133409 36.241101 
L 675.133409 36.241101 
" clip-path="url(#pec4283c5ea)" style="fill: none; stroke: #ff7f0e; stroke-width: 1.5; stroke-linecap: square"/>
   </g>
   <g id="patch_3">
    <path d="M 33.2875 327.558125 
L 33.2875 22.318125 
" style="fill: none; stroke: #000000; stroke-width: 0.8; stroke-linejoin: miter; stroke-linecap: square"/>
   </g>
   <g id="patch_4">
    <path d="M 705.6975 327.558125 
L 705.6975 22.318125 
" style="fill: none; stroke: #000000; stroke-width: 0.8; stroke-linejoin: miter; stroke-linecap: square"/>
   </g>
   <g id="patch_5">
    <path d="M 33.2875 327.558125 
L 705.6975 327.558125 
" style="fill: none; stroke: #000000; stroke-width: 0.8; stroke-linejoin: miter; stroke-linecap: square"/>
   </g>
   <g id="patch_6">
    <path d="M 33.2875 22.318125 
L 705.6975 22.318125 
" style="fill: none; stroke: #000000; stroke-width: 0.8; stroke-linejoin: miter; stroke-linecap: square"/>
   </g>
   <g id="text_12">
    <!-- training -->
    <g transform="translate(346.249063 16.318125) scale(0.12 -0.12)">
     <defs>
      <path id="DejaVuSans-74" d="M 1172 4494 
L 1172 3500 
L 2356 3500 
L 2356 3053 
L 1172 3053 
L 1172 1153 
Q 1172 725 1289 603 
Q 1406 481 1766 481 
L 2356 481 
L 2356 0 
L 1766 0 
Q 1100 0 847 248 
Q 594 497 594 1153 
L 594 3053 
L 172 3053 
L 172 3500 
L 594 3500 
L 594 4494 
L 1172 4494 
z
" transform="scale(0.015625)"/>
      <path id="DejaVuSans-72" d="M 2631 2963 
Q 2534 3019 2420 3045 
Q 2306 3072 2169 3072 
Q 1681 3072 1420 2755 
Q 1159 2438 1159 1844 
L 1159 0 
L 581 0 
L 581 3500 
L 1159 3500 
L 1159 2956 
Q 1341 3275 1631 3429 
Q 1922 3584 2338 3584 
Q 2397 3584 2469 3576 
Q 2541 3569 2628 3553 
L 2631 2963 
z
" transform="scale(0.015625)"/>
      <path id="DejaVuSans-61" d="M 2194 1759 
Q 1497 1759 1228 1600 
Q 959 1441 959 1056 
Q 959 750 1161 570 
Q 1363 391 1709 391 
Q 2188 391 2477 730 
Q 2766 1069 2766 1631 
L 2766 1759 
L 2194 1759 
z
M 3341 1997 
L 3341 0 
L 2766 0 
L 2766 531 
Q 2569 213 2275 61 
Q 1981 -91 1556 -91 
Q 1019 -91 701 211 
Q 384 513 384 1019 
Q 384 1609 779 1909 
Q 1175 2209 1959 2209 
L 2766 2209 
L 2766 2266 
Q 2766 2663 2505 2880 
Q 2244 3097 1772 3097 
Q 1472 3097 1187 3025 
Q 903 2953 641 2809 
L 641 3341 
Q 956 3463 1253 3523 
Q 1550 3584 1831 3584 
Q 2591 3584 2966 3190 
Q 3341 2797 3341 1997 
z
" transform="scale(0.015625)"/>
      <path id="DejaVuSans-69" d="M 603 3500 
L 1178 3500 
L 1178 0 
L 603 0 
L 603 3500 
z
M 603 4863 
L 1178 4863 
L 1178 4134 
L 603 4134 
L 603 4863 
z
" transform="scale(0.015625)"/>
      <path id="DejaVuSans-6e" d="M 3513 2113 
L 3513 0 
L 2938 0 
L 2938 2094 
Q 2938 2591 2744 2837 
Q 2550 3084 2163 3084 
Q 1697 3084 1428 2787 
Q 1159 2491 1159 1978 
L 1159 0 
L 581 0 
L 581 3500 
L 1159 3500 
L 1159 2956 
Q 1366 3272 1645 3428 
Q 1925 3584 2291 3584 
Q 2894 3584 3203 3211 
Q 3513 2838 3513 2113 
z
" transform="scale(0.015625)"/>
      <path id="DejaVuSans-67" d="M 2906 1791 
Q 2906 2416 2648 2759 
Q 2391 3103 1925 3103 
Q 1463 3103 1205 2759 
Q 947 2416 947 1791 
Q 947 1169 1205 825 
Q 1463 481 1925 481 
Q 2391 481 2648 825 
Q 2906 1169 2906 1791 
z
M 3481 434 
Q 3481 -459 3084 -895 
Q 2688 -1331 1869 -1331 
Q 1566 -1331 1297 -1286 
Q 1028 -1241 775 -1147 
L 775 -588 
Q 1028 -725 1275 -790 
Q 1522 -856 1778 -856 
Q 2344 -856 2625 -561 
Q 2906 -266 2906 331 
L 2906 616 
Q 2728 306 2450 153 
Q 2172 0 1784 0 
Q 1141 0 747 490 
Q 353 981 353 1791 
Q 353 2603 747 3093 
Q 1141 3584 1784 3584 
Q 2172 3584 2450 3431 
Q 2728 3278 2906 2969 
L 2906 3500 
L 3481 3500 
L 3481 434 
z
" transform="scale(0.015625)"/>
     </defs>
     <use xlink:href="#DejaVuSans-74"/>
     <use xlink:href="#DejaVuSans-72" x="39.208984"/>
     <use xlink:href="#DejaVuSans-61" x="80.322266"/>
     <use xlink:href="#DejaVuSans-69" x="141.601562"/>
     <use xlink:href="#DejaVuSans-6e" x="169.384766"/>
     <use xlink:href="#DejaVuSans-69" x="232.763672"/>
     <use xlink:href="#DejaVuSans-6e" x="260.546875"/>
     <use xlink:href="#DejaVuSans-67" x="323.925781"/>
    </g>
   </g>
   <g id="legend_1">
    <g id="patch_7">
     <path d="M 40.2875 59.674375 
L 121.68125 59.674375 
Q 123.68125 59.674375 123.68125 57.674375 
L 123.68125 29.318125 
Q 123.68125 27.318125 121.68125 27.318125 
L 40.2875 27.318125 
Q 38.2875 27.318125 38.2875 29.318125 
L 38.2875 57.674375 
Q 38.2875 59.674375 40.2875 59.674375 
z
" style="fill: #ffffff; opacity: 0.8; stroke: #cccccc; stroke-linejoin: miter"/>
    </g>
    <g id="line2d_14">
     <path d="M 42.2875 35.416562 
L 52.2875 35.416562 
L 62.2875 35.416562 
" style="fill: none; stroke: #1f77b4; stroke-width: 1.5; stroke-linecap: square"/>
    </g>
    <g id="text_13">
     <!-- observed -->
     <g transform="translate(70.2875 38.916562) scale(0.1 -0.1)">
      <defs>
       <path id="DejaVuSans-6f" d="M 1959 3097 
Q 1497 3097 1228 2736 
Q 959 2375 959 1747 
Q 959 1119 1226 758 
Q 1494 397 1959 397 
Q 2419 397 2687 759 
Q 2956 1122 2956 1747 
Q 2956 2369 2687 2733 
Q 2419 3097 1959 3097 
z
M 1959 3584 
Q 2709 3584 3137 3096 
Q 3566 2609 3566 1747 
Q 3566 888 3137 398 
Q 2709 -91 1959 -91 
Q 1206 -91 779 398 
Q 353 888 353 1747 
Q 353 2609 779 3096 
Q 1206 3584 1959 3584 
z
" transform="scale(0.015625)"/>
       <path id="DejaVuSans-62" d="M 3116 1747 
Q 3116 2381 2855 2742 
Q 2594 3103 2138 3103 
Q 1681 3103 1420 2742 
Q 1159 2381 1159 1747 
Q 1159 1113 1420 752 
Q 1681 391 2138 391 
Q 2594 391 2855 752 
Q 3116 1113 3116 1747 
z
M 1159 2969 
Q 1341 3281 1617 3432 
Q 1894 3584 2278 3584 
Q 2916 3584 3314 3078 
Q 3713 2572 3713 1747 
Q 3713 922 3314 415 
Q 2916 -91 2278 -91 
Q 1894 -91 1617 61 
Q 1341 213 1159 525 
L 1159 0 
L 581 0 
L 581 4863 
L 1159 4863 
L 1159 2969 
z
" transform="scale(0.015625)"/>
       <path id="DejaVuSans-73" d="M 2834 3397 
L 2834 2853 
Q 2591 2978 2328 3040 
Q 2066 3103 1784 3103 
Q 1356 3103 1142 2972 
Q 928 2841 928 2578 
Q 928 2378 1081 2264 
Q 1234 2150 1697 2047 
L 1894 2003 
Q 2506 1872 2764 1633 
Q 3022 1394 3022 966 
Q 3022 478 2636 193 
Q 2250 -91 1575 -91 
Q 1294 -91 989 -36 
Q 684 19 347 128 
L 347 722 
Q 666 556 975 473 
Q 1284 391 1588 391 
Q 1994 391 2212 530 
Q 2431 669 2431 922 
Q 2431 1156 2273 1281 
Q 2116 1406 1581 1522 
L 1381 1569 
Q 847 1681 609 1914 
Q 372 2147 372 2553 
Q 372 3047 722 3315 
Q 1072 3584 1716 3584 
Q 2034 3584 2315 3537 
Q 2597 3491 2834 3397 
z
" transform="scale(0.015625)"/>
       <path id="DejaVuSans-65" d="M 3597 1894 
L 3597 1613 
L 953 1613 
Q 991 1019 1311 708 
Q 1631 397 2203 397 
Q 2534 397 2845 478 
Q 3156 559 3463 722 
L 3463 178 
Q 3153 47 2828 -22 
Q 2503 -91 2169 -91 
Q 1331 -91 842 396 
Q 353 884 353 1716 
Q 353 2575 817 3079 
Q 1281 3584 2069 3584 
Q 2775 3584 3186 3129 
Q 3597 2675 3597 1894 
z
M 3022 2063 
Q 3016 2534 2758 2815 
Q 2500 3097 2075 3097 
Q 1594 3097 1305 2825 
Q 1016 2553 972 2059 
L 3022 2063 
z
" transform="scale(0.015625)"/>
       <path id="DejaVuSans-76" d="M 191 3500 
L 800 3500 
L 1894 563 
L 2988 3500 
L 3597 3500 
L 2284 0 
L 1503 0 
L 191 3500 
z
" transform="scale(0.015625)"/>
       <path id="DejaVuSans-64" d="M 2906 2969 
L 2906 4863 
L 3481 4863 
L 3481 0 
L 2906 0 
L 2906 525 
Q 2725 213 2448 61 
Q 2172 -91 1784 -91 
Q 1150 -91 751 415 
Q 353 922 353 1747 
Q 353 2572 751 3078 
Q 1150 3584 1784 3584 
Q 2172 3584 2448 3432 
Q 2725 3281 2906 2969 
z
M 947 1747 
Q 947 1113 1208 752 
Q 1469 391 1925 391 
Q 2381 391 2643 752 
Q 2906 1113 2906 1747 
Q 2906 2381 2643 2742 
Q 2381 3103 1925 3103 
Q 1469 3103 1208 2742 
Q 947 2381 947 1747 
z
" transform="scale(0.015625)"/>
      </defs>
      <use xlink:href="#DejaVuSans-6f"/>
      <use xlink:href="#DejaVuSans-62" x="61.181641"/>
      <use xlink:href="#DejaVuSans-73" x="124.658203"/>
      <use xlink:href="#DejaVuSans-65" x="176.757812"/>
      <use xlink:href="#DejaVuSans-72" x="238.28125"/>
      <use xlink:href="#DejaVuSans-76" x="279.394531"/>
      <use xlink:href="#DejaVuSans-65" x="338.574219"/>
      <use xlink:href="#DejaVuSans-64" x="400.097656"/>
     </g>
    </g>
    <g id="line2d_15">
     <path d="M 42.2875 50.094688 
L 52.2875 50.094688 
L 62.2875 50.094688 
" style="fill: none; stroke: #ff7f0e; stroke-width: 1.5; stroke-linecap: square"/>
    </g>
    <g id="text_14">
     <!-- simulated -->
     <g transform="translate(70.2875 53.594688) scale(0.1 -0.1)">
      <defs>
       <path id="DejaVuSans-6d" d="M 3328 2828 
Q 3544 3216 3844 3400 
Q 4144 3584 4550 3584 
Q 5097 3584 5394 3201 
Q 5691 2819 5691 2113 
L 5691 0 
L 5113 0 
L 5113 2094 
Q 5113 2597 4934 2840 
Q 4756 3084 4391 3084 
Q 3944 3084 3684 2787 
Q 3425 2491 3425 1978 
L 3425 0 
L 2847 0 
L 2847 2094 
Q 2847 2600 2669 2842 
Q 2491 3084 2119 3084 
Q 1678 3084 1418 2786 
Q 1159 2488 1159 1978 
L 1159 0 
L 581 0 
L 581 3500 
L 1159 3500 
L 1159 2956 
Q 1356 3278 1631 3431 
Q 1906 3584 2284 3584 
Q 2666 3584 2933 3390 
Q 3200 3197 3328 2828 
z
" transform="scale(0.015625)"/>
       <path id="DejaVuSans-75" d="M 544 1381 
L 544 3500 
L 1119 3500 
L 1119 1403 
Q 1119 906 1312 657 
Q 1506 409 1894 409 
Q 2359 409 2629 706 
Q 2900 1003 2900 1516 
L 2900 3500 
L 3475 3500 
L 3475 0 
L 2900 0 
L 2900 538 
Q 2691 219 2414 64 
Q 2138 -91 1772 -91 
Q 1169 -91 856 284 
Q 544 659 544 1381 
z
M 1991 3584 
L 1991 3584 
z
" transform="scale(0.015625)"/>
       <path id="DejaVuSans-6c" d="M 603 4863 
L 1178 4863 
L 1178 0 
L 603 0 
L 603 4863 
z
" transform="scale(0.015625)"/>
      </defs>
      <use xlink:href="#DejaVuSans-73"/>
      <use xlink:href="#DejaVuSans-69" x="52.099609"/>
      <use xlink:href="#DejaVuSans-6d" x="79.882812"/>
      <use xlink:href="#DejaVuSans-75" x="177.294922"/>
      <use xlink:href="#DejaVuSans-6c" x="240.673828"/>
      <use xlink:href="#DejaVuSans-61" x="268.457031"/>
      <use xlink:href="#DejaVuSans-74" x="329.736328"/>
      <use xlink:href="#DejaVuSans-65" x="368.945312"/>
      <use xlink:href="#DejaVuSans-64" x="430.46875"/>
     </g>
    </g>
   </g>
  </g>
 </g>
 <defs>
  <clipPath id="pec4283c5ea">
   <rect x="33.2875" y="22.318125" width="672.41" height="305.24"/>
  </clipPath>
 </defs>
</svg>
