<?xml version="1.0" encoding="utf-8" standalone="no"?>
<!DOCTYPE svg PUBLIC "-//W3C//DTD SVG 1.1//EN"
  "http://www.w3.org/Graphics/SVG/1.1/DTD/svg11.dtd">
<svg xmlns:xlink="http://www.w3.org/1999/xlink" width="711.793882pt" height="351.43625pt" viewBox="0 0 711.793882 351.43625" xmlns="http://www.w3.org/2000/svg" version="1.1">
 <metadata>
  <rdf:RDF xmlns:dc="http://purl.org/dc/elements/1.1/" xmlns:cc="http://creativecommons.org/ns#" xmlns:rdf="http://www.w3.org/1999/02/22-rdf-syntax-ns#">
   <cc:Work>
    <dc:type rdf:resource="http://purl.org/dc/dcmitype/StillImage"/>
    <dc:date>2024-05-11T13:50:59.012077</dc:date>
    <dc:format>image/svg+xml</dc:format>
    <dc:creator>
     <cc:Agent>
      <dc:title>Matplotlib v3.8.4, https://matplotlib.org/</dc:title>
     </cc:Agent>
    </dc:creator>
   </cc:Work>
  </rdf:RDF>
 </metadata>
 <defs>
  <style type="text/css">*{stroke-linejoin: round; stroke-linecap: butt}</style>
 </defs>
 <g id="figure_1">
  <g id="patch_1">
   <path d="M 0 351.43625 
L 711.793882 351.43625 
L 711.793882 0 
L 0 0 
z
" style="fill: #ffffff"/>
  </g>
  <g id="axes_1">
   <g id="patch_2">
    <path d="M 28.750943 327.558125 
L 704.593882 327.558125 
L 704.593882 22.318125 
L 28.750943 22.318125 
z
" style="fill: #ffffff"/>
   </g>
   <g id="matplotlib.axis_1">
    <g id="xtick_1">
     <g id="line2d_1">
      <defs>
       <path id="m2398b24ea3" d="M 0 0 
L 0 3.5 
" style="stroke: #000000; stroke-width: 0.8"/>
      </defs>
      <g>
       <use xlink:href="#m2398b24ea3" x="36.257812" y="327.558125" style="stroke: #000000; stroke-width: 0.8"/>
      </g>
     </g>
     <g id="text_1">
      <!-- 2022-07-01 -->
      <g transform="translate(7.2 342.156563) scale(0.1 -0.1)">
       <defs>
        <path id="DejaVuSans-32" d="M 1228 531 
L 3431 531 
L 3431 0 
L 469 0 
L 469 531 
Q 828 903 1448 1529 
Q 2069 2156 2228 2338 
Q 2531 2678 2651 2914 
Q 2772 3150 2772 3378 
Q 2772 3750 2511 3984 
Q 2250 4219 1831 4219 
Q 1534 4219 1204 4116 
Q 875 4013 500 3803 
L 500 4441 
Q 881 4594 1212 4672 
Q 1544 4750 1819 4750 
Q 2544 4750 2975 4387 
Q 3406 4025 3406 3419 
Q 3406 3131 3298 2873 
Q 3191 2616 2906 2266 
Q 2828 2175 2409 1742 
Q 1991 1309 1228 531 
z
" transform="scale(0.015625)"/>
        <path id="DejaVuSans-30" d="M 2034 4250 
Q 1547 4250 1301 3770 
Q 1056 3291 1056 2328 
Q 1056 1369 1301 889 
Q 1547 409 2034 409 
Q 2525 409 2770 889 
Q 3016 1369 3016 2328 
Q 3016 3291 2770 3770 
Q 2525 4250 2034 4250 
z
M 2034 4750 
Q 2819 4750 3233 4129 
Q 3647 3509 3647 2328 
Q 3647 1150 3233 529 
Q 2819 -91 2034 -91 
Q 1250 -91 836 529 
Q 422 1150 422 2328 
Q 422 3509 836 4129 
Q 1250 4750 2034 4750 
z
" transform="scale(0.015625)"/>
        <path id="DejaVuSans-2d" d="M 313 2009 
L 1997 2009 
L 1997 1497 
L 313 1497 
L 313 2009 
z
" transform="scale(0.015625)"/>
        <path id="DejaVuSans-37" d="M 525 4666 
L 3525 4666 
L 3525 4397 
L 1831 0 
L 1172 0 
L 2766 4134 
L 525 4134 
L 525 4666 
z
" transform="scale(0.015625)"/>
        <path id="DejaVuSans-31" d="M 794 531 
L 1825 531 
L 1825 4091 
L 703 3866 
L 703 4441 
L 1819 4666 
L 2450 4666 
L 2450 531 
L 3481 531 
L 3481 0 
L 794 0 
L 794 531 
z
" transform="scale(0.015625)"/>
       </defs>
       <use xlink:href="#DejaVuSans-32"/>
       <use xlink:href="#DejaVuSans-30" x="63.623047"/>
       <use xlink:href="#DejaVuSans-32" x="127.246094"/>
       <use xlink:href="#DejaVuSans-32" x="190.869141"/>
       <use xlink:href="#DejaVuSans-2d" x="254.492188"/>
       <use xlink:href="#DejaVuSans-30" x="290.576172"/>
       <use xlink:href="#DejaVuSans-37" x="354.199219"/>
       <use xlink:href="#DejaVuSans-2d" x="417.822266"/>
       <use xlink:href="#DejaVuSans-30" x="453.90625"/>
       <use xlink:href="#DejaVuSans-31" x="517.529297"/>
      </g>
     </g>
    </g>
    <g id="xtick_2">
     <g id="line2d_2">
      <g>
       <use xlink:href="#m2398b24ea3" x="162.058725" y="327.558125" style="stroke: #000000; stroke-width: 0.8"/>
      </g>
     </g>
     <g id="text_2">
      <!-- 2022-07-15 -->
      <g transform="translate(133.000913 342.156563) scale(0.1 -0.1)">
       <defs>
        <path id="DejaVuSans-35" d="M 691 4666 
L 3169 4666 
L 3169 4134 
L 1269 4134 
L 1269 2991 
Q 1406 3038 1543 3061 
Q 1681 3084 1819 3084 
Q 2600 3084 3056 2656 
Q 3513 2228 3513 1497 
Q 3513 744 3044 326 
Q 2575 -91 1722 -91 
Q 1428 -91 1123 -41 
Q 819 9 494 109 
L 494 744 
Q 775 591 1075 516 
Q 1375 441 1709 441 
Q 2250 441 2565 725 
Q 2881 1009 2881 1497 
Q 2881 1984 2565 2268 
Q 2250 2553 1709 2553 
Q 1456 2553 1204 2497 
Q 953 2441 691 2322 
L 691 4666 
z
" transform="scale(0.015625)"/>
       </defs>
       <use xlink:href="#DejaVuSans-32"/>
       <use xlink:href="#DejaVuSans-30" x="63.623047"/>
       <use xlink:href="#DejaVuSans-32" x="127.246094"/>
       <use xlink:href="#DejaVuSans-32" x="190.869141"/>
       <use xlink:href="#DejaVuSans-2d" x="254.492188"/>
       <use xlink:href="#DejaVuSans-30" x="290.576172"/>
       <use xlink:href="#DejaVuSans-37" x="354.199219"/>
       <use xlink:href="#DejaVuSans-2d" x="417.822266"/>
       <use xlink:href="#DejaVuSans-31" x="453.90625"/>
       <use xlink:href="#DejaVuSans-35" x="517.529297"/>
      </g>
     </g>
    </g>
    <g id="xtick_3">
     <g id="line2d_3">
      <g>
       <use xlink:href="#m2398b24ea3" x="314.816976" y="327.558125" style="stroke: #000000; stroke-width: 0.8"/>
      </g>
     </g>
     <g id="text_3">
      <!-- 2022-08-01 -->
      <g transform="translate(285.759164 342.156563) scale(0.1 -0.1)">
       <defs>
        <path id="DejaVuSans-38" d="M 2034 2216 
Q 1584 2216 1326 1975 
Q 1069 1734 1069 1313 
Q 1069 891 1326 650 
Q 1584 409 2034 409 
Q 2484 409 2743 651 
Q 3003 894 3003 1313 
Q 3003 1734 2745 1975 
Q 2488 2216 2034 2216 
z
M 1403 2484 
Q 997 2584 770 2862 
Q 544 3141 544 3541 
Q 544 4100 942 4425 
Q 1341 4750 2034 4750 
Q 2731 4750 3128 4425 
Q 3525 4100 3525 3541 
Q 3525 3141 3298 2862 
Q 3072 2584 2669 2484 
Q 3125 2378 3379 2068 
Q 3634 1759 3634 1313 
Q 3634 634 3220 271 
Q 2806 -91 2034 -91 
Q 1263 -91 848 271 
Q 434 634 434 1313 
Q 434 1759 690 2068 
Q 947 2378 1403 2484 
z
M 1172 3481 
Q 1172 3119 1398 2916 
Q 1625 2713 2034 2713 
Q 2441 2713 2670 2916 
Q 2900 3119 2900 3481 
Q 2900 3844 2670 4047 
Q 2441 4250 2034 4250 
Q 1625 4250 1398 4047 
Q 1172 3844 1172 3481 
z
" transform="scale(0.015625)"/>
       </defs>
       <use xlink:href="#DejaVuSans-32"/>
       <use xlink:href="#DejaVuSans-30" x="63.623047"/>
       <use xlink:href="#DejaVuSans-32" x="127.246094"/>
       <use xlink:href="#DejaVuSans-32" x="190.869141"/>
       <use xlink:href="#DejaVuSans-2d" x="254.492188"/>
       <use xlink:href="#DejaVuSans-30" x="290.576172"/>
       <use xlink:href="#DejaVuSans-38" x="354.199219"/>
       <use xlink:href="#DejaVuSans-2d" x="417.822266"/>
       <use xlink:href="#DejaVuSans-30" x="453.90625"/>
       <use xlink:href="#DejaVuSans-31" x="517.529297"/>
      </g>
     </g>
    </g>
    <g id="xtick_4">
     <g id="line2d_4">
      <g>
       <use xlink:href="#m2398b24ea3" x="440.617889" y="327.558125" style="stroke: #000000; stroke-width: 0.8"/>
      </g>
     </g>
     <g id="text_4">
      <!-- 2022-08-15 -->
      <g transform="translate(411.560077 342.156563) scale(0.1 -0.1)">
       <use xlink:href="#DejaVuSans-32"/>
       <use xlink:href="#DejaVuSans-30" x="63.623047"/>
       <use xlink:href="#DejaVuSans-32" x="127.246094"/>
       <use xlink:href="#DejaVuSans-32" x="190.869141"/>
       <use xlink:href="#DejaVuSans-2d" x="254.492188"/>
       <use xlink:href="#DejaVuSans-30" x="290.576172"/>
       <use xlink:href="#DejaVuSans-38" x="354.199219"/>
       <use xlink:href="#DejaVuSans-2d" x="417.822266"/>
       <use xlink:href="#DejaVuSans-31" x="453.90625"/>
       <use xlink:href="#DejaVuSans-35" x="517.529297"/>
      </g>
     </g>
    </g>
    <g id="xtick_5">
     <g id="line2d_5">
      <g>
       <use xlink:href="#m2398b24ea3" x="593.37614" y="327.558125" style="stroke: #000000; stroke-width: 0.8"/>
      </g>
     </g>
     <g id="text_5">
      <!-- 2022-09-01 -->
      <g transform="translate(564.318328 342.156563) scale(0.1 -0.1)">
       <defs>
        <path id="DejaVuSans-39" d="M 703 97 
L 703 672 
Q 941 559 1184 500 
Q 1428 441 1663 441 
Q 2288 441 2617 861 
Q 2947 1281 2994 2138 
Q 2813 1869 2534 1725 
Q 2256 1581 1919 1581 
Q 1219 1581 811 2004 
Q 403 2428 403 3163 
Q 403 3881 828 4315 
Q 1253 4750 1959 4750 
Q 2769 4750 3195 4129 
Q 3622 3509 3622 2328 
Q 3622 1225 3098 567 
Q 2575 -91 1691 -91 
Q 1453 -91 1209 -44 
Q 966 3 703 97 
z
M 1959 2075 
Q 2384 2075 2632 2365 
Q 2881 2656 2881 3163 
Q 2881 3666 2632 3958 
Q 2384 4250 1959 4250 
Q 1534 4250 1286 3958 
Q 1038 3666 1038 3163 
Q 1038 2656 1286 2365 
Q 1534 2075 1959 2075 
z
" transform="scale(0.015625)"/>
       </defs>
       <use xlink:href="#DejaVuSans-32"/>
       <use xlink:href="#DejaVuSans-30" x="63.623047"/>
       <use xlink:href="#DejaVuSans-32" x="127.246094"/>
       <use xlink:href="#DejaVuSans-32" x="190.869141"/>
       <use xlink:href="#DejaVuSans-2d" x="254.492188"/>
       <use xlink:href="#DejaVuSans-30" x="290.576172"/>
       <use xlink:href="#DejaVuSans-39" x="354.199219"/>
       <use xlink:href="#DejaVuSans-2d" x="417.822266"/>
       <use xlink:href="#DejaVuSans-30" x="453.90625"/>
       <use xlink:href="#DejaVuSans-31" x="517.529297"/>
      </g>
     </g>
    </g>
   </g>
   <g id="matplotlib.axis_2">
    <g id="ytick_1">
     <g id="line2d_6">
      <defs>
       <path id="madf4806e64" d="M 0 0 
L -3.5 0 
" style="stroke: #000000; stroke-width: 0.8"/>
      </defs>
      <g>
       <use xlink:href="#madf4806e64" x="28.750943" y="271.853335" style="stroke: #000000; stroke-width: 0.8"/>
      </g>
     </g>
     <g id="text_6">
      <!-- 0 -->
      <g transform="translate(15.388443 275.652554) scale(0.1 -0.1)">
       <use xlink:href="#DejaVuSans-30"/>
      </g>
     </g>
    </g>
    <g id="ytick_2">
     <g id="line2d_7">
      <g>
       <use xlink:href="#madf4806e64" x="28.750943" y="213.708395" style="stroke: #000000; stroke-width: 0.8"/>
      </g>
     </g>
     <g id="text_7">
      <!-- 1 -->
      <g transform="translate(15.388443 217.507614) scale(0.1 -0.1)">
       <use xlink:href="#DejaVuSans-31"/>
      </g>
     </g>
    </g>
    <g id="ytick_3">
     <g id="line2d_8">
      <g>
       <use xlink:href="#madf4806e64" x="28.750943" y="155.563456" style="stroke: #000000; stroke-width: 0.8"/>
      </g>
     </g>
     <g id="text_8">
      <!-- 2 -->
      <g transform="translate(15.388443 159.362675) scale(0.1 -0.1)">
       <use xlink:href="#DejaVuSans-32"/>
      </g>
     </g>
    </g>
    <g id="ytick_4">
     <g id="line2d_9">
      <g>
       <use xlink:href="#madf4806e64" x="28.750943" y="97.418516" style="stroke: #000000; stroke-width: 0.8"/>
      </g>
     </g>
     <g id="text_9">
      <!-- 3 -->
      <g transform="translate(15.388443 101.217735) scale(0.1 -0.1)">
       <defs>
        <path id="DejaVuSans-33" d="M 2597 2516 
Q 3050 2419 3304 2112 
Q 3559 1806 3559 1356 
Q 3559 666 3084 287 
Q 2609 -91 1734 -91 
Q 1441 -91 1130 -33 
Q 819 25 488 141 
L 488 750 
Q 750 597 1062 519 
Q 1375 441 1716 441 
Q 2309 441 2620 675 
Q 2931 909 2931 1356 
Q 2931 1769 2642 2001 
Q 2353 2234 1838 2234 
L 1294 2234 
L 1294 2753 
L 1863 2753 
Q 2328 2753 2575 2939 
Q 2822 3125 2822 3475 
Q 2822 3834 2567 4026 
Q 2313 4219 1838 4219 
Q 1578 4219 1281 4162 
Q 984 4106 628 3988 
L 628 4550 
Q 988 4650 1302 4700 
Q 1616 4750 1894 4750 
Q 2613 4750 3031 4423 
Q 3450 4097 3450 3541 
Q 3450 3153 3228 2886 
Q 3006 2619 2597 2516 
z
" transform="scale(0.015625)"/>
       </defs>
       <use xlink:href="#DejaVuSans-33"/>
      </g>
     </g>
    </g>
    <g id="ytick_5">
     <g id="line2d_10">
      <g>
       <use xlink:href="#madf4806e64" x="28.750943" y="39.273577" style="stroke: #000000; stroke-width: 0.8"/>
      </g>
     </g>
     <g id="text_10">
      <!-- 4 -->
      <g transform="translate(15.388443 43.072796) scale(0.1 -0.1)">
       <defs>
        <path id="DejaVuSans-34" d="M 2419 4116 
L 825 1625 
L 2419 1625 
L 2419 4116 
z
M 2253 4666 
L 3047 4666 
L 3047 1625 
L 3713 1625 
L 3713 1100 
L 3047 1100 
L 3047 0 
L 2419 0 
L 2419 1100 
L 313 1100 
L 313 1709 
L 2253 4666 
z
" transform="scale(0.015625)"/>
       </defs>
       <use xlink:href="#DejaVuSans-34"/>
      </g>
     </g>
    </g>
   </g>
   <g id="line2d_11">
    <path d="M 59.471076 270.581899 
L 60.219891 270.359398 
L 60.594299 270.734471 
L 61.343114 271.001473 
L 61.717521 270.899758 
L 62.840743 272.489053 
L 63.215151 270.35304 
L 63.589558 269.850823 
L 63.963966 270.124182 
L 64.712781 269.819037 
L 65.087188 269.475749 
L 65.836003 269.437606 
L 66.210411 269.469392 
L 66.959226 269.119747 
L 67.708041 269.056176 
L 68.082448 270.047896 
L 68.456856 270.238611 
L 69.205671 270.124182 
L 69.954486 270.276754 
L 70.328893 270.709042 
L 70.703301 270.162325 
L 71.077708 270.26404 
L 71.826523 269.72368 
L 72.20093 269.819037 
L 72.949745 269.596536 
L 73.324153 269.399463 
L 73.69856 269.405821 
L 74.072968 270.124182 
L 74.447375 269.215105 
L 75.19619 259.711121 
L 75.945005 255.578954 
L 77.068228 258.153612 
L 77.442635 258.223541 
L 77.817043 258.503257 
L 78.565858 259.774693 
L 80.063487 266.131873 
L 80.437895 267.339737 
L 80.812302 267.606739 
L 81.561117 267.454166 
L 82.309932 266.996449 
L 82.68434 267.339737 
L 83.058747 267.530452 
L 83.433155 259.011831 
L 84.18197 219.78803 
L 85.6796 203.221219 
L 86.428415 191.435007 
L 86.802822 187.716057 
L 87.17723 186.285691 
L 87.551637 186.158548 
L 88.300452 188.828563 
L 89.798082 199.483197 
L 90.546897 205.547947 
L 91.670119 218.294093 
L 93.167749 234.040828 
L 93.916564 241.24987 
L 94.665379 248.725914 
L 95.414194 256.697818 
L 96.537417 265.114724 
L 96.911824 266.996449 
L 97.660639 268.484029 
L 98.035046 269.208748 
L 98.409454 269.501178 
L 98.783861 269.437606 
L 99.907084 267.244379 
L 100.655899 267.498666 
L 101.404714 267.37788 
L 101.779121 267.435095 
L 102.153529 267.339737 
L 102.527936 267.053664 
L 103.276751 267.307951 
L 103.651159 267.530452 
L 104.025566 268.16617 
L 104.774381 268.388672 
L 105.148789 268.102599 
L 105.523196 268.178885 
L 105.897603 267.911883 
L 106.272011 268.140742 
L 106.646418 253.226797 
L 107.020826 202.382071 
L 107.395233 177.258496 
L 107.769641 164.811137 
L 108.892863 141.181499 
L 109.267271 136.890402 
L 109.641678 134.983248 
L 110.016086 134.188601 
L 110.390493 134.563675 
L 110.764901 135.873254 
L 111.139308 137.843979 
L 112.262531 146.585102 
L 114.883383 176.304919 
L 118.25305 218.802667 
L 119.376273 232.438819 
L 120.125088 242.089018 
L 122.371533 264.892223 
L 122.74594 266.958306 
L 123.120347 268.007241 
L 123.494755 268.598459 
L 124.24357 268.979889 
L 124.617977 269.437606 
L 125.366792 269.56475 
L 125.7412 269.97161 
L 126.490015 267.594024 
L 126.864422 268.522172 
L 127.23883 268.070813 
L 127.987645 267.721168 
L 129.485275 267.752954 
L 129.859682 267.606739 
L 130.608497 267.657596 
L 130.982905 268.3696 
L 132.106127 268.642959 
L 132.480534 269.208748 
L 132.854942 269.02439 
L 133.978164 268.979889 
L 134.352572 269.475749 
L 135.101387 268.712888 
L 135.475794 269.119747 
L 135.850202 269.094319 
L 136.599017 268.255171 
L 136.973424 268.674745 
L 138.096647 268.217028 
L 138.471054 268.522172 
L 138.845462 268.420458 
L 139.219869 268.026312 
L 139.594277 268.229742 
L 139.968684 268.751031 
L 140.343091 268.642959 
L 140.717499 269.85718 
L 141.091906 269.755465 
L 141.840721 270.518327 
L 142.215129 270.696328 
L 142.963944 270.359398 
L 143.338351 270.887043 
L 143.712759 270.8044 
L 144.087166 270.124182 
L 144.835981 269.85718 
L 145.210389 269.374035 
L 145.959204 269.087962 
L 147.082426 269.278677 
L 147.456834 269.208748 
L 147.831241 269.02439 
L 148.205649 268.445886 
L 148.580056 268.929032 
L 148.954463 268.140742 
L 149.328871 268.229742 
L 150.452093 268.86546 
L 150.826501 269.437606 
L 151.200908 260.219695 
L 151.575316 261.236844 
L 152.698538 267.752954 
L 153.072946 267.492309 
L 153.447353 268.16617 
L 154.944983 267.797454 
L 155.693798 268.026312 
L 156.817021 268.039027 
L 157.191428 267.835597 
L 157.565835 268.16617 
L 158.31465 269.914395 
L 158.689058 270.009753 
L 159.063465 269.933466 
L 159.437873 270.10511 
L 159.81228 270.086039 
L 160.186688 270.581899 
L 160.935503 270.359398 
L 161.30991 272.260194 
L 161.684318 273.220129 
L 162.433133 269.946181 
L 163.181948 269.170605 
L 163.556355 268.86546 
L 164.30517 268.992604 
L 165.8028 268.833674 
L 166.551615 268.484029 
L 166.926022 269.590179 
L 168.423652 269.946181 
L 169.921282 269.660108 
L 170.670097 269.72368 
L 171.044505 267.072735 
L 171.418912 267.263451 
L 171.79332 267.78474 
L 172.167727 267.187165 
L 173.29095 267.689382 
L 174.039765 268.134385 
L 175.537394 267.797454 
L 176.286209 268.293314 
L 177.035024 268.484029 
L 177.409432 268.293314 
L 177.783839 268.522172 
L 178.158247 268.452244 
L 178.907062 268.706531 
L 179.281469 268.674745 
L 179.655877 268.407743 
L 180.404692 268.445886 
L 180.779099 268.16617 
L 181.527914 268.16617 
L 181.902322 268.407743 
L 182.276729 268.388672 
L 183.025544 268.706531 
L 184.523174 268.255171 
L 184.897581 268.293314 
L 186.395211 269.469392 
L 187.144026 269.183319 
L 187.518434 269.246891 
L 187.892841 269.018033 
L 188.267249 269.056176 
L 188.641656 268.979889 
L 189.390471 269.094319 
L 190.139286 268.751031 
L 190.513694 268.929032 
L 191.262509 268.897246 
L 191.636916 269.056176 
L 192.385731 268.960818 
L 192.760138 268.979889 
L 193.134546 268.706531 
L 193.508953 268.903603 
L 193.883361 269.914395 
L 194.257768 269.933466 
L 194.632176 270.454755 
L 195.380991 270.550113 
L 195.755398 271.154045 
L 196.129806 271.039616 
L 196.504213 271.312975 
L 196.878621 271.154045 
L 197.253028 271.916907 
L 197.627436 271.878764 
L 198.001843 270.613685 
L 198.376251 270.086039 
L 198.750658 270.073324 
L 199.499473 269.691894 
L 199.873881 269.36132 
L 200.622695 269.215105 
L 201.37151 269.246891 
L 201.745918 269.056176 
L 202.120325 268.547601 
L 202.494733 268.751031 
L 202.86914 270.136896 
L 203.617955 270.518327 
L 203.992363 270.162325 
L 204.741178 270.327612 
L 205.115585 270.772614 
L 205.489993 270.518327 
L 205.8644 270.543756 
L 206.238808 270.391183 
L 206.613215 270.505613 
L 206.987623 269.882609 
L 207.736438 269.755465 
L 208.110845 269.85718 
L 208.485253 269.018033 
L 209.234067 269.018033 
L 209.982882 269.437606 
L 210.35729 268.992604 
L 211.106105 268.992604 
L 211.85492 269.278677 
L 212.229327 269.628322 
L 212.603735 269.742751 
L 212.978142 269.374035 
L 213.35255 269.819037 
L 213.726957 269.691894 
L 214.101365 269.819037 
L 214.475772 270.359398 
L 215.224587 270.168682 
L 216.34781 269.819037 
L 216.722217 270.200468 
L 217.096625 269.977967 
L 217.471032 269.36132 
L 217.84544 268.515815 
L 218.219847 269.246891 
L 218.594254 269.278677 
L 218.968662 269.094319 
L 219.343069 269.310463 
L 220.466292 269.170605 
L 220.840699 270.429326 
L 221.215107 270.772614 
L 221.589514 270.581899 
L 221.963922 270.581899 
L 223.461552 271.440118 
L 224.210367 271.217617 
L 224.584774 271.421047 
L 225.333589 270.550113 
L 225.707997 269.819037 
L 226.082404 269.532964 
L 226.456812 266.576875 
L 226.831219 267.816525 
L 227.205626 268.522172 
L 227.580034 267.78474 
L 228.703256 268.064456 
L 229.077664 267.339737 
L 229.452071 265.972943 
L 230.949701 266.831163 
L 231.324109 267.37788 
L 231.698516 268.134385 
L 232.447331 268.801888 
L 233.196146 268.789174 
L 233.570554 269.56475 
L 233.944961 268.979889 
L 234.693776 268.445886 
L 235.068184 268.134385 
L 235.442591 268.293314 
L 235.816998 267.689382 
L 236.565813 268.452244 
L 236.940221 267.950026 
L 237.689036 267.78474 
L 238.063443 268.178885 
L 238.437851 268.007241 
L 238.812258 268.407743 
L 239.186666 268.484029 
L 239.561073 268.331457 
L 240.684296 269.342249 
L 241.807518 270.96333 
L 242.181926 271.382904 
L 242.556333 271.312975 
L 243.305148 269.977967 
L 243.679556 269.704608 
L 244.053963 269.278677 
L 244.802778 266.290802 
L 245.177185 267.797454 
L 245.551593 267.301594 
L 245.926 267.276165 
L 246.674815 267.689382 
L 247.42363 267.689382 
L 247.798038 267.911883 
L 248.172445 267.848311 
L 248.92126 268.070813 
L 250.044483 268.007241 
L 250.41889 268.255171 
L 250.793298 268.293314 
L 251.167705 268.102599 
L 251.91652 267.911883 
L 252.290928 268.356886 
L 253.039742 268.007241 
L 253.41415 268.3696 
L 253.788557 268.3696 
L 254.537372 268.636602 
L 254.91178 268.452244 
L 255.286187 268.979889 
L 255.660595 268.738317 
L 256.40941 269.056176 
L 257.158225 270.518327 
L 258.281447 270.8044 
L 259.030262 271.026901 
L 259.40467 271.077759 
L 259.779077 270.709042 
L 260.153485 271.077759 
L 260.527892 270.454755 
L 261.276707 269.946181 
L 261.651114 269.437606 
L 262.774337 268.979889 
L 263.523152 268.86546 
L 264.646374 268.833674 
L 265.395189 268.706531 
L 265.769597 270.276754 
L 266.518412 270.772614 
L 266.892819 270.35304 
L 267.267227 270.677257 
L 267.641634 270.46747 
L 268.016042 270.709042 
L 268.764857 270.772614 
L 269.888079 269.666465 
L 270.262486 269.475749 
L 271.011301 268.751031 
L 271.760116 268.407743 
L 272.508931 268.751031 
L 272.883339 268.770103 
L 274.006561 268.3696 
L 274.755376 268.611173 
L 275.129784 268.560316 
L 275.878599 267.988169 
L 276.253006 268.039027 
L 276.627414 268.293314 
L 277.001821 269.215105 
L 277.750636 270.136896 
L 278.125044 270.276754 
L 278.499451 269.780894 
L 278.873858 269.72368 
L 279.997081 269.132462 
L 280.371488 268.897246 
L 282.243526 269.246891 
L 282.992341 268.929032 
L 283.366748 268.3696 
L 283.741156 269.628322 
L 284.115563 270.047896 
L 284.489971 269.374035 
L 285.238786 270.232254 
L 285.987601 270.518327 
L 286.362008 271.382904 
L 286.736416 271.764334 
L 287.110823 271.757977 
L 287.48523 271.268474 
L 287.859638 270.550113 
L 288.608453 270.454755 
L 288.98286 269.819037 
L 289.357268 269.72368 
L 290.106083 269.72368 
L 290.48049 269.399463 
L 290.854898 269.552036 
L 291.229305 269.469392 
L 291.603713 269.208748 
L 291.97812 268.579387 
L 292.352528 268.751031 
L 292.726935 270.613685 
L 293.101343 270.96333 
L 293.47575 270.867972 
L 294.224565 270.96333 
L 294.598973 271.268474 
L 294.97338 270.772614 
L 295.347788 270.931544 
L 295.722195 270.35304 
L 296.47101 271.077759 
L 296.845417 270.518327 
L 297.594232 270.073324 
L 298.343047 270.073324 
L 298.717455 269.85718 
L 299.091862 269.475749 
L 300.215085 269.405821 
L 300.9639 269.119747 
L 301.338307 269.399463 
L 301.712715 270.899758 
L 302.46153 270.931544 
L 302.835937 271.115902 
L 303.210345 270.772614 
L 303.584752 271.249403 
L 303.95916 270.620042 
L 304.333567 270.518327 
L 304.707974 271.039616 
L 305.082382 270.677257 
L 305.456789 270.620042 
L 305.831197 270.887043 
L 306.580012 269.119747 
L 306.954419 269.552036 
L 307.328827 270.200468 
L 307.703234 269.914395 
L 308.826457 269.552036 
L 309.575272 269.513893 
L 309.949679 269.246891 
L 310.698494 270.10511 
L 311.821717 270.422969 
L 312.196124 270.086039 
L 312.570532 270.232254 
L 312.944939 270.543756 
L 313.693754 270.391183 
L 314.068161 270.899758 
L 315.565791 269.513893 
L 315.940199 270.10511 
L 316.689014 269.278677 
L 317.437829 268.929032 
L 317.812236 268.86546 
L 318.186644 268.992604 
L 318.935459 268.960818 
L 319.309866 269.285034 
L 320.433089 269.132462 
L 320.807496 269.183319 
L 321.181904 269.094319 
L 321.930718 269.590179 
L 322.305126 270.232254 
L 323.428348 270.696328 
L 323.802756 270.009753 
L 324.551571 269.666465 
L 325.674793 269.755465 
L 326.423608 269.437606 
L 327.546831 269.590179 
L 327.921238 269.437606 
L 328.295646 269.72368 
L 328.670053 271.154045 
L 329.044461 271.217617 
L 329.793276 271.058687 
L 330.167683 270.772614 
L 330.54209 271.249403 
L 331.290905 271.948693 
L 331.665313 272.107622 
L 332.03972 272.145765 
L 332.414128 271.821549 
L 332.788535 271.268474 
L 333.162943 270.200468 
L 333.53735 269.475749 
L 333.911758 269.469392 
L 334.660573 269.119747 
L 335.783795 269.285034 
L 336.158203 269.437606 
L 336.907018 268.827317 
L 337.655833 269.246891 
L 338.779055 269.215105 
L 339.52787 269.819037 
L 339.902277 269.628322 
L 340.651092 269.819037 
L 341.0255 271.001473 
L 341.399907 250.969998 
L 342.148722 232.629534 
L 344.02076 212.337415 
L 344.395167 210.65912 
L 344.769575 210.284046 
L 345.143982 210.964264 
L 345.51839 212.35013 
L 346.267205 218.103378 
L 347.01602 225.382349 
L 350.011279 254.828807 
L 350.760094 260.512126 
L 351.134502 261.014343 
L 351.883317 261.332202 
L 352.257724 257.079248 
L 352.632132 256.011242 
L 353.380947 256.774104 
L 354.504169 252.813581 
L 354.878577 252.425793 
L 355.252984 252.209648 
L 356.750614 257.34625 
L 357.873836 262.953283 
L 358.248244 264.326434 
L 358.622651 264.669721 
L 358.997059 265.356297 
L 359.371466 265.273653 
L 360.120281 266.38616 
L 360.494689 266.348017 
L 361.617911 267.187165 
L 362.741134 267.657596 
L 363.489949 267.62581 
L 364.238764 268.16617 
L 364.613171 268.712888 
L 364.987578 268.941746 
L 365.361986 269.02439 
L 365.736393 268.86546 
L 367.608431 269.342249 
L 368.357246 269.660108 
L 369.106061 269.437606 
L 369.480468 268.801888 
L 369.854876 269.018033 
L 370.229283 269.02439 
L 371.352506 268.751031 
L 371.726913 268.738317 
L 372.475728 268.356886 
L 372.850136 268.3696 
L 373.973358 268.86546 
L 374.722173 268.789174 
L 375.09658 269.310463 
L 375.470988 269.513893 
L 375.845395 270.391183 
L 376.968618 266.424303 
L 377.717433 267.721168 
L 379.215063 268.261528 
L 379.963878 268.611173 
L 381.0871 268.407743 
L 382.959137 268.026312 
L 383.333545 268.102599 
L 383.707952 268.445886 
L 384.08236 268.3251 
L 384.831175 268.929032 
L 385.205582 269.513893 
L 385.57999 268.827317 
L 385.954397 268.960818 
L 386.328805 269.342249 
L 387.07762 269.018033 
L 387.452027 268.801888 
L 389.698472 269.513893 
L 390.07288 269.119747 
L 390.821694 269.437606 
L 391.570509 270.709042 
L 391.944917 270.96333 
L 392.319324 270.899758 
L 393.442547 271.001473 
L 393.816954 271.535476 
L 394.191362 271.567262 
L 394.565769 270.314897 
L 394.940177 271.312975 
L 395.314584 270.391183 
L 395.688992 270.422969 
L 396.063399 269.780894 
L 396.437807 269.850823 
L 397.186622 269.72368 
L 397.561029 269.85718 
L 397.935437 269.780894 
L 398.684252 269.933466 
L 399.807474 269.278677 
L 400.181881 269.285034 
L 400.556289 270.740828 
L 401.305104 271.154045 
L 401.679511 271.230331 
L 402.428326 270.867972 
L 402.802734 271.84062 
L 403.177141 271.948693 
L 403.551549 272.45091 
L 403.925956 271.726191 
L 404.300364 270.620042 
L 404.674771 270.581899 
L 405.423586 270.232254 
L 406.172401 269.399463 
L 406.546809 269.660108 
L 408.044439 269.596536 
L 408.418846 270.200468 
L 408.793253 269.882609 
L 409.542068 270.740828 
L 409.916476 271.45919 
L 410.290883 271.878764 
L 410.665291 271.630834 
L 411.414106 271.948693 
L 411.788513 271.764334 
L 412.162921 271.916907 
L 412.537328 271.802477 
L 412.911736 271.185831 
L 414.783773 270.295826 
L 415.906996 270.276754 
L 416.655811 270.047896 
L 417.030218 270.073324 
L 417.779033 269.691894 
L 418.15344 270.009753 
L 418.527848 271.115902 
L 418.902255 271.599048 
L 419.65107 271.948693 
L 420.025478 271.45919 
L 421.1487 272.520839 
L 421.897515 272.20298 
L 422.64633 270.887043 
L 423.395145 270.581899 
L 423.769553 270.26404 
L 424.518368 270.073324 
L 424.892775 269.85718 
L 425.267183 269.850823 
L 426.015997 269.596536 
L 426.390405 269.780894 
L 426.764812 269.475749 
L 427.13922 269.56475 
L 427.513627 269.819037 
L 427.888035 269.660108 
L 428.262442 269.97161 
L 428.63685 269.882609 
L 429.385665 270.200468 
L 430.13448 270.073324 
L 430.508887 270.925187 
L 430.883295 270.124182 
L 431.257702 269.755465 
L 431.63211 269.628322 
L 432.006517 269.246891 
L 432.380925 269.246891 
L 432.755332 269.119747 
L 433.12974 269.590179 
L 433.504147 269.660108 
L 434.252962 269.660108 
L 435.001777 269.399463 
L 435.376184 269.628322 
L 436.124999 269.437606 
L 436.499407 269.513893 
L 436.873814 269.374035 
L 437.622629 269.755465 
L 438.745852 269.933466 
L 439.120259 269.704608 
L 439.494667 269.850823 
L 439.869074 269.552036 
L 440.243482 270.26404 
L 440.617889 270.124182 
L 440.992297 269.755465 
L 441.366704 268.86546 
L 441.741112 269.310463 
L 442.489927 269.72368 
L 442.864334 269.399463 
L 443.238741 269.399463 
L 443.613149 269.183319 
L 443.987556 269.590179 
L 444.361964 269.02439 
L 444.736371 269.85718 
L 445.110779 269.691894 
L 445.485186 270.276754 
L 445.859594 270.041539 
L 446.608409 269.882609 
L 446.982816 269.97161 
L 447.357224 269.552036 
L 447.731631 270.200468 
L 448.106039 270.047896 
L 448.480446 270.422969 
L 448.854854 269.666465 
L 449.229261 269.628322 
L 450.726891 268.611173 
L 451.101299 268.445886 
L 451.475706 268.445886 
L 451.850113 268.197956 
L 452.224521 268.217028 
L 453.347743 267.911883 
L 453.722151 267.454166 
L 454.845373 269.246891 
L 455.219781 269.399463 
L 455.594188 269.018033 
L 455.968596 269.56475 
L 456.343003 269.170605 
L 456.717411 269.056176 
L 457.091818 269.246891 
L 457.840633 268.445886 
L 458.215041 268.611173 
L 458.963856 268.3251 
L 459.338263 268.026312 
L 459.712671 268.217028 
L 460.461485 267.568595 
L 460.835893 267.594024 
L 461.2103 267.492309 
L 461.959115 267.606739 
L 463.082338 266.92652 
L 463.456745 266.615018 
L 463.831153 267.950026 
L 464.20556 268.070813 
L 464.579968 268.331457 
L 464.954375 268.420458 
L 465.328783 268.178885 
L 465.70319 268.770103 
L 466.077598 267.988169 
L 466.452005 259.32969 
L 467.20082 263.334714 
L 467.575228 262.91514 
L 468.324043 264.256505 
L 468.69845 264.936723 
L 469.072857 265.369011 
L 470.19608 265.8903 
L 470.570487 266.068301 
L 471.319302 266.100087 
L 471.69371 265.928443 
L 472.068117 266.004729 
L 472.442525 266.640447 
L 472.816932 266.767591 
L 473.19134 266.767591 
L 473.565747 267.149022 
L 473.940155 267.053664 
L 474.314562 267.301594 
L 474.68897 267.276165 
L 475.437785 267.562238 
L 475.812192 266.920163 
L 476.1866 267.072735 
L 476.561007 266.92652 
L 476.935415 267.072735 
L 477.309822 266.481518 
L 477.684229 266.538732 
L 478.433044 266.38616 
L 478.807452 266.481518 
L 480.305082 266.500589 
L 481.053897 266.119158 
L 481.802712 267.301594 
L 482.177119 267.021878 
L 482.551527 267.263451 
L 482.925934 267.117236 
L 483.674749 267.562238 
L 484.049157 267.263451 
L 484.423564 267.568595 
L 484.797972 266.831163 
L 485.921194 266.920163 
L 486.295601 266.449732 
L 486.670009 266.195445 
L 487.044416 266.163659 
L 487.793231 266.672233 
L 488.167639 266.424303 
L 488.542046 266.462446 
L 489.665269 266.259016 
L 490.039676 265.928443 
L 490.414084 266.290802 
L 490.788491 267.072735 
L 492.286121 266.920163 
L 492.660529 266.38616 
L 493.034936 267.08545 
L 493.409344 266.119158 
L 494.158159 266.195445 
L 494.532566 266.449732 
L 494.906973 266.271731 
L 495.281381 266.259016 
L 496.030196 266.481518 
L 496.404603 266.081015 
L 496.779011 266.348017 
L 497.153418 211.142265 
L 497.527826 117.551861 
L 497.902233 64.641051 
L 498.276641 45.423296 
L 498.651048 36.19267 
L 499.399863 36.19267 
L 500.523086 53.433343 
L 502.020716 70.457871 
L 502.769531 77.863986 
L 503.518345 86.573322 
L 505.015975 101.07405 
L 506.513605 119.611587 
L 507.636828 135.04682 
L 508.76005 156.076372 
L 509.508865 168.549159 
L 509.883273 171.40989 
L 510.25768 175.891702 
L 510.632088 187.658842 
L 511.006495 189.845712 
L 511.380903 252.196934 
L 511.75531 248.141053 
L 512.504125 217.817304 
L 514.376162 242.165304 
L 515.499385 253.913373 
L 515.873792 256.818604 
L 516.622607 258.980045 
L 517.371422 259.711121 
L 518.120237 261.141486 
L 518.494645 261.503846 
L 518.869052 261.274987 
L 519.24346 261.395774 
L 519.992275 261.936134 
L 520.741089 260.601126 
L 521.489904 261.236844 
L 521.864312 260.823627 
L 522.238719 260.588412 
L 522.987534 260.512126 
L 523.361942 260.410411 
L 524.110757 260.505768 
L 525.233979 260.206981 
L 525.608387 260.397696 
L 525.982794 259.933622 
L 526.357202 227.785363 
L 526.731609 261.332202 
L 527.106017 261.92342 
L 527.854832 262.457423 
L 528.229239 262.126849 
L 529.352461 262.190421 
L 529.726869 261.885277 
L 530.101276 262.190421 
L 530.475684 261.92342 
L 530.850091 261.077915 
L 531.224499 260.779127 
L 531.598906 260.918985 
L 531.973314 260.893556 
L 532.347721 260.982557 
L 533.470944 260.855413 
L 533.845351 260.893556 
L 534.594166 260.702841 
L 534.968574 260.283267 
L 535.342981 260.893556 
L 535.717389 261.26863 
L 536.466204 261.650061 
L 537.215019 261.522917 
L 537.589426 261.274987 
L 537.963833 261.885277 
L 538.338241 261.586489 
L 538.712648 261.618275 
L 539.087056 261.395774 
L 539.461463 260.588412 
L 539.835871 261.077915 
L 540.210278 260.893556 
L 540.584686 261.014343 
L 541.707908 260.626555 
L 542.082316 260.435839 
L 542.831131 260.779127 
L 543.205538 260.664698 
L 543.579946 259.939979 
L 544.328761 260.9317 
L 544.703168 260.855413 
L 545.451983 259.679335 
L 545.826391 260.588412 
L 546.200798 260.779127 
L 546.575205 261.332202 
L 546.949613 262.686281 
L 547.32402 262.794353 
L 547.698428 261.503846 
L 548.82165 261.42756 
L 549.570465 260.696484 
L 549.944873 261.198701 
L 550.31928 261.198701 
L 550.693688 261.014343 
L 551.068095 219.012454 
L 551.442503 260.442197 
L 551.81691 261.007986 
L 552.191318 260.982557 
L 552.565725 260.664698 
L 552.940133 259.997194 
L 553.688948 261.077915 
L 554.063355 262.381137 
L 554.81217 263.080426 
L 555.186577 263.220284 
L 555.560985 263.080426 
L 555.935392 263.182141 
L 556.684207 261.465703 
L 557.058615 260.918985 
L 558.181837 261.351273 
L 558.556245 260.588412 
L 558.930652 261.236844 
L 559.30506 260.779127 
L 559.679467 259.583977 
L 560.053875 255.36281 
L 560.428282 257.676823 
L 560.80269 257.880253 
L 561.177097 260.505768 
L 562.30032 260.206981 
L 562.674727 260.893556 
L 563.049135 261.236844 
L 563.423542 261.732704 
L 563.797949 261.586489 
L 564.172357 261.80899 
L 564.546764 261.491131 
L 564.921172 261.732704 
L 565.295579 261.554703 
L 566.044394 260.791842 
L 566.418802 261.274987 
L 567.167617 261.046129 
L 568.665247 261.109701 
L 569.039654 261.274987 
L 570.162877 260.505768 
L 570.537284 260.779127 
L 570.911692 260.168838 
L 571.286099 260.473983 
L 571.660507 259.749264 
L 572.034914 259.647549 
L 572.409321 260.092552 
L 572.783729 260.823627 
L 573.158136 260.168838 
L 574.281359 261.713633 
L 574.655766 257.193678 
L 575.030174 256.774104 
L 575.404581 256.023957 
L 575.778989 255.782384 
L 576.153396 256.659675 
L 576.527804 256.201958 
L 576.902211 257.263607 
L 577.276619 257.498822 
L 577.651026 224.492343 
L 578.399841 208.090819 
L 579.148656 257.155535 
L 579.523064 257.200035 
L 579.897471 257.117391 
L 580.646286 258.376113 
L 581.020694 258.344327 
L 581.395101 259.367833 
L 581.769508 258.757544 
L 582.518323 259.361476 
L 582.892731 260.32141 
L 583.267138 258.261684 
L 583.641546 260.346839 
L 584.015953 259.787407 
L 584.390361 259.933622 
L 584.764768 260.206981 
L 585.139176 260.060766 
L 585.513583 260.359553 
L 587.011213 260.283267 
L 587.385621 259.749264 
L 588.134436 260.130695 
L 588.508843 259.679335 
L 588.883251 259.82555 
L 589.257658 260.124338 
L 590.006473 261.300416 
L 590.755288 261.586489 
L 591.129695 262.41928 
L 591.504103 262.41928 
L 592.252918 262.114135 
L 592.627325 261.363988 
L 593.001733 261.42756 
L 593.37614 261.618275 
L 593.750548 261.465703 
L 594.124955 261.014343 
L 594.87377 261.141486 
L 595.622585 260.359553 
L 595.996993 260.950771 
L 596.745808 261.236844 
L 597.120215 261.046129 
L 597.494623 261.014343 
L 597.86903 260.245124 
L 598.243438 261.077915 
L 599.36666 262.686281 
L 600.489882 262.724424 
L 600.86429 262.190421 
L 601.238697 262.037849 
L 601.987512 261.084272 
L 602.36192 262.285779 
L 603.110735 261.745419 
L 603.485142 239.495288 
L 603.85955 261.046129 
L 605.35718 260.702841 
L 605.731587 260.537554 
L 606.105995 260.855413 
L 606.480402 260.696484 
L 607.229217 261.046129 
L 607.603624 261.541989 
L 607.978032 261.31313 
L 608.352439 261.840776 
L 609.475662 261.999706 
L 609.850069 261.522917 
L 610.224477 261.580132 
L 610.598884 261.141486 
L 611.347699 256.818604 
L 611.722107 257.384393 
L 612.096514 260.664698 
L 612.470922 260.918985 
L 612.845329 261.007986 
L 613.219737 260.823627 
L 613.594144 260.779127 
L 613.968552 249.476061 
L 614.342959 205.814948 
L 614.717367 261.077915 
L 615.466182 259.48862 
L 615.840589 260.245124 
L 616.214996 260.32141 
L 616.963811 261.618275 
L 617.338219 261.872562 
L 617.712626 261.694561 
L 618.087034 261.777204 
L 618.461441 262.037849 
L 618.835849 262.476494 
L 619.584664 259.838265 
L 619.959071 260.893556 
L 620.333479 261.122415 
L 620.707886 261.205058 
L 621.082294 255.591668 
L 621.456701 259.997194 
L 621.831109 259.596692 
L 622.205516 260.346839 
L 622.579924 258.452399 
L 622.954331 257.168249 
L 623.703146 239.527074 
L 624.077554 245.82704 
L 624.451961 259.367833 
L 624.826368 260.02898 
L 625.200776 260.397696 
L 625.575183 260.092552 
L 625.949591 260.81727 
L 626.323998 259.965408 
L 626.698406 260.702841 
L 627.072813 260.950771 
L 627.821628 260.855413 
L 628.196036 261.198701 
L 628.570443 261.160558 
L 628.944851 251.828218 
L 629.319258 220.538177 
L 629.693666 258.757544 
L 630.068073 260.664698 
L 630.442481 259.679335 
L 630.816888 253.417513 
L 631.191296 255.420024 
L 631.940111 260.060766 
L 632.314518 255.286524 
L 633.063333 240.321722 
L 633.43774 256.278244 
L 633.812148 313.68358 
L 634.186555 260.740984 
L 634.560963 261.109701 
L 636.058593 260.950771 
L 636.433 261.122415 
L 636.807408 261.503846 
L 637.93063 260.632912 
L 638.305038 260.969843 
L 638.679445 259.552191 
L 639.053853 259.138975 
L 639.42826 260.664698 
L 640.177075 259.997194 
L 640.551483 260.054409 
L 640.92589 259.787407 
L 641.300298 260.442197 
L 641.674705 260.473983 
L 642.049112 260.632912 
L 642.797927 260.632912 
L 643.172335 260.397696 
L 643.546742 260.72827 
L 644.295557 260.72827 
L 644.669965 261.885277 
L 645.41878 262.381137 
L 645.793187 262.114135 
L 646.167595 261.459345 
L 646.542002 261.618275 
L 646.91641 260.537554 
L 647.290817 261.122415 
L 647.665225 261.332202 
L 649.162855 261.007986 
L 649.537262 260.442197 
L 649.91167 260.32141 
L 650.286077 260.823627 
L 651.034892 260.887199 
L 651.409299 260.664698 
L 651.783707 260.219695 
L 652.532522 261.650061 
L 653.281337 262.457423 
L 654.404559 263.366499 
L 654.778967 263.143998 
L 655.527782 261.770847 
L 655.902189 261.681847 
L 656.651004 261.26863 
L 658.148634 261.198701 
L 658.523042 261.046129 
L 658.897449 261.198701 
L 659.271856 261.046129 
L 659.646264 261.236844 
L 660.020671 261.046129 
L 660.769486 260.442197 
L 661.143894 260.779127 
L 661.518301 261.999706 
L 662.267116 263.143998 
L 662.641524 262.826139 
L 663.015931 263.372857 
L 663.390339 263.04864 
L 663.764746 262.228564 
L 664.139154 260.060766 
L 664.887969 242.419591 
L 665.262376 261.92342 
L 666.011191 260.346839 
L 666.760006 260.823627 
L 667.134414 260.588412 
L 668.257636 260.823627 
L 669.380858 260.81727 
L 669.755266 260.130695 
L 670.129673 259.997194 
L 670.504081 260.740984 
L 670.878488 261.236844 
L 671.252896 261.351273 
L 671.627303 261.681847 
L 672.001711 231.790386 
L 672.376118 261.554703 
L 673.124933 260.982557 
L 673.499341 260.855413 
L 673.873748 261.046129 
L 673.873748 261.046129 
" clip-path="url(#pe153b892d5)" style="fill: none; stroke: #1f77b4; stroke-width: 1.5; stroke-linecap: square"/>
   </g>
   <g id="line2d_12">
    <path d="M 59.471076 270.581899 
L 65.087188 270.982957 
L 71.077708 271.273418 
L 74.447375 271.346184 
L 74.821783 270.351279 
L 75.945005 260.530143 
L 76.319413 255.096236 
L 76.69382 252.831591 
L 77.068228 252.139891 
L 77.442635 252.180244 
L 78.19145 252.958454 
L 79.314673 254.39306 
L 80.063487 254.858047 
L 82.309932 257.405184 
L 83.433155 258.534543 
L 84.18197 258.863688 
L 85.6796 260.023598 
L 86.054007 259.983208 
L 86.428415 259.503829 
L 86.802822 257.337558 
L 87.551637 246.204561 
L 88.300452 241.837424 
L 88.674859 238.432809 
L 89.049267 237.513302 
L 89.423674 237.640209 
L 90.172489 239.017862 
L 91.670119 242.320936 
L 92.418934 243.108835 
L 94.290972 246.74715 
L 95.788602 249.323606 
L 96.537417 249.925298 
L 98.409454 252.701131 
L 99.907084 254.666576 
L 100.655899 255.125575 
L 102.902344 257.633298 
L 104.025566 258.742599 
L 104.774381 259.092023 
L 106.272011 260.331155 
L 106.646418 260.580132 
L 107.020826 251.731725 
L 107.395233 227.574119 
L 107.769641 184.584878 
L 108.144048 160.245436 
L 108.892863 149.043971 
L 109.267271 146.31505 
L 109.641678 147.201451 
L 110.390493 152.469294 
L 112.262531 167.386808 
L 113.011346 170.175931 
L 114.883383 183.046776 
L 116.381013 192.160375 
L 117.129828 194.288711 
L 119.001865 204.107533 
L 120.499495 211.059801 
L 121.24831 212.683393 
L 123.120347 220.17364 
L 124.617977 225.477151 
L 125.366792 226.715702 
L 127.23883 232.42961 
L 128.73646 236.475375 
L 129.485275 237.4202 
L 131.357312 241.779036 
L 132.854942 244.865337 
L 133.603757 245.586094 
L 135.475794 248.91122 
L 136.973424 251.265596 
L 137.722239 251.815424 
L 139.594277 254.351989 
L 141.091906 256.148019 
L 141.840721 256.567453 
L 144.087166 258.859021 
L 145.210389 259.872564 
L 145.959204 260.192527 
L 148.205649 261.936476 
L 148.580056 262.215333 
L 148.954463 262.160749 
L 150.077686 261.05267 
L 150.452093 260.795794 
L 150.826501 260.815795 
L 151.200908 260.323568 
L 151.575316 258.636848 
L 151.949723 256.063443 
L 152.324131 255.062443 
L 152.698538 254.83019 
L 153.072946 255.004877 
L 153.447353 255.342631 
L 154.196168 255.740372 
L 156.817021 258.499479 
L 157.565835 259.203207 
L 158.31465 259.541047 
L 160.561095 261.38683 
L 161.684318 262.203206 
L 162.433133 262.460927 
L 164.679578 263.86898 
L 165.8028 264.491751 
L 166.926022 264.879705 
L 169.546875 266.083943 
L 169.921282 266.235712 
L 170.670097 266.383635 
L 171.044505 266.104784 
L 171.418912 265.277718 
L 171.79332 263.950965 
L 172.916542 261.558142 
L 173.29095 261.429654 
L 174.039765 261.55336 
L 174.788579 261.756339 
L 178.158247 263.899755 
L 179.281469 264.318903 
L 181.902322 265.619471 
L 182.276729 265.785956 
L 183.399951 266.105706 
L 186.395211 267.224847 
L 187.518434 267.468785 
L 189.390471 267.980303 
L 190.139286 267.911944 
L 190.513694 267.752112 
L 191.636916 267.630593 
L 193.134546 267.989964 
L 194.632176 268.384832 
L 196.129806 268.655344 
L 198.750658 269.207369 
L 200.622695 269.478904 
L 203.992363 269.941237 
L 208.110845 270.394694 
L 212.978142 270.799548 
L 214.101365 270.835258 
L 215.224587 270.75146 
L 218.219847 270.919793 
L 224.210367 271.214246 
L 232.447331 271.481425 
L 237.314628 271.532369 
L 238.063443 271.237311 
L 238.812258 270.933413 
L 239.935481 270.92755 
L 244.053963 271.153104 
L 244.802778 270.851474 
L 245.926 269.086201 
L 246.300408 268.963111 
L 247.049223 268.922983 
L 248.172445 268.622587 
L 249.670075 268.800323 
L 252.290928 269.323105 
L 254.162965 269.582759 
L 257.532632 270.02487 
L 261.651114 270.458494 
L 266.892819 270.872277 
L 272.883339 271.199675 
L 275.878599 271.184218 
L 277.001821 270.613051 
L 278.499451 270.482379 
L 291.603713 271.268935 
L 300.215085 271.522333 
L 312.570532 271.706393 
L 321.556311 271.735227 
L 323.428348 271.543656 
L 327.921238 271.608748 
L 340.651092 271.722649 
L 341.0255 271.723273 
L 341.399907 265.780123 
L 341.774315 248.104271 
L 342.52313 183.893062 
L 342.897537 167.398223 
L 343.646352 161.304712 
L 344.02076 160.514983 
L 344.395167 161.99383 
L 345.51839 169.723184 
L 347.01602 180.161548 
L 347.764834 182.609926 
L 349.262464 191.777099 
L 350.011279 195.30593 
L 350.760094 198.475961 
L 351.134502 200.292156 
L 351.883317 201.572531 
L 352.257724 201.706756 
L 352.632132 200.7211 
L 353.006539 200.731116 
L 353.380947 201.734424 
L 354.504169 206.630122 
L 355.252984 210.036719 
L 356.001799 211.684517 
L 357.873836 219.299612 
L 359.371466 224.692809 
L 360.120281 225.952307 
L 361.992319 231.762852 
L 363.489949 235.877043 
L 364.238764 236.837847 
L 366.110801 241.270403 
L 367.608431 244.408901 
L 368.357246 245.141847 
L 370.229283 248.523211 
L 371.726913 250.917405 
L 372.475728 251.476532 
L 374.347765 254.055996 
L 375.845395 255.882402 
L 376.59421 256.30893 
L 378.840655 258.639274 
L 379.963878 259.668895 
L 381.461508 260.30618 
L 382.959137 259.722064 
L 383.333545 259.799883 
L 384.831175 260.562969 
L 385.205582 259.930207 
L 385.57999 257.966292 
L 385.954397 255.055936 
L 386.328805 253.973351 
L 386.703212 253.719738 
L 387.07762 253.904693 
L 391.196102 258.007023 
L 392.319324 259.087014 
L 393.068139 259.427958 
L 395.314584 261.290696 
L 396.437807 262.11457 
L 397.186622 262.374658 
L 399.433067 263.795644 
L 400.556289 264.424135 
L 401.679511 264.815652 
L 404.300364 266.030474 
L 404.674771 266.185983 
L 405.797994 266.484651 
L 408.793253 267.530005 
L 410.290883 267.86722 
L 412.911736 268.55529 
L 414.409366 268.812533 
L 417.030218 269.337426 
L 418.902255 269.595615 
L 422.271923 270.035223 
L 426.390405 270.466391 
L 430.883295 270.809439 
L 431.63211 270.494087 
L 432.380925 270.078282 
L 433.12974 269.948867 
L 439.120259 270.415273 
L 444.361964 270.841877 
L 449.978076 271.160928 
L 467.20082 271.485691 
L 471.69371 271.563996 
L 485.172379 271.734907 
L 493.034936 271.711734 
L 494.906973 271.415797 
L 496.404603 271.384434 
L 496.779011 271.247271 
L 497.153418 256.865164 
L 497.527826 220.374734 
L 497.902233 158.121234 
L 498.276641 128.474105 
L 499.025456 100.444516 
L 499.399863 94.481699 
L 500.148678 94.338971 
L 500.523086 96.727295 
L 501.646308 108.99933 
L 503.518345 129.540594 
L 504.26716 133.341003 
L 506.139198 150.875066 
L 507.636828 163.290261 
L 508.385643 166.189631 
L 510.25768 179.565518 
L 511.75531 189.036379 
L 512.504125 191.248147 
L 514.376162 201.451873 
L 515.873792 208.676675 
L 516.622607 210.363913 
L 518.494645 218.147781 
L 519.992275 223.659192 
L 520.741089 224.946295 
L 522.613127 230.88419 
L 524.110757 235.088551 
L 524.859572 236.070413 
L 526.731609 240.600118 
L 528.229239 243.807402 
L 528.978054 244.556413 
L 530.850091 248.011886 
L 532.347721 250.458554 
L 533.096536 251.029935 
L 534.968574 253.665933 
L 536.466204 255.532368 
L 537.215019 255.968245 
L 539.461463 258.349643 
L 540.584686 259.402916 
L 541.333501 259.735424 
L 543.579946 261.552068 
L 544.703168 262.355555 
L 545.451983 262.609208 
L 548.072835 264.2049 
L 548.82165 264.607971 
L 549.944873 264.9898 
L 552.565725 266.174561 
L 552.940133 266.326221 
L 554.063355 266.617499 
L 557.058615 267.636985 
L 558.556245 267.965856 
L 561.177097 268.6369 
L 562.674727 268.887778 
L 565.295579 269.399683 
L 567.167617 269.651482 
L 570.911692 270.133034 
L 571.286099 268.862804 
L 571.660507 265.485117 
L 572.034914 259.657581 
L 572.409321 256.245407 
L 572.783729 254.861886 
L 573.158136 254.548984 
L 574.281359 255.040715 
L 574.655766 255.354334 
L 575.030174 255.270192 
L 576.153396 253.423221 
L 576.527804 253.553106 
L 577.276619 254.308809 
L 577.651026 254.753953 
L 578.399841 255.201788 
L 580.646286 257.693531 
L 581.769508 258.79797 
L 582.518323 259.146633 
L 584.764768 261.051546 
L 585.887991 261.894073 
L 586.636806 262.160051 
L 588.883251 263.613209 
L 590.006473 264.25593 
L 591.129695 264.656311 
L 593.750548 265.898638 
L 594.124955 266.057667 
L 595.248178 266.363098 
L 598.243438 267.43212 
L 599.741067 267.776969 
L 602.36192 268.480618 
L 603.85955 268.743686 
L 606.480402 269.280464 
L 608.352439 269.544497 
L 611.722107 269.994059 
L 615.840589 270.434989 
L 621.082294 270.855745 
L 627.072813 271.18866 
L 655.153374 271.74785 
L 673.873748 271.822134 
L 673.873748 271.822134 
" clip-path="url(#pe153b892d5)" style="fill: none; stroke: #ff7f0e; stroke-width: 1.5; stroke-linecap: square"/>
   </g>
   <g id="patch_3">
    <path d="M 28.750943 327.558125 
L 28.750943 22.318125 
" style="fill: none; stroke: #000000; stroke-width: 0.8; stroke-linejoin: miter; stroke-linecap: square"/>
   </g>
   <g id="patch_4">
    <path d="M 704.593882 327.558125 
L 704.593882 22.318125 
" style="fill: none; stroke: #000000; stroke-width: 0.8; stroke-linejoin: miter; stroke-linecap: square"/>
   </g>
   <g id="patch_5">
    <path d="M 28.750943 327.558125 
L 704.593882 327.558125 
" style="fill: none; stroke: #000000; stroke-width: 0.8; stroke-linejoin: miter; stroke-linecap: square"/>
   </g>
   <g id="patch_6">
    <path d="M 28.750943 22.318125 
L 704.593882 22.318125 
" style="fill: none; stroke: #000000; stroke-width: 0.8; stroke-linejoin: miter; stroke-linecap: square"/>
   </g>
   <g id="text_11">
    <!-- training -->
    <g transform="translate(343.428975 16.318125) scale(0.12 -0.12)">
     <defs>
      <path id="DejaVuSans-74" d="M 1172 4494 
L 1172 3500 
L 2356 3500 
L 2356 3053 
L 1172 3053 
L 1172 1153 
Q 1172 725 1289 603 
Q 1406 481 1766 481 
L 2356 481 
L 2356 0 
L 1766 0 
Q 1100 0 847 248 
Q 594 497 594 1153 
L 594 3053 
L 172 3053 
L 172 3500 
L 594 3500 
L 594 4494 
L 1172 4494 
z
" transform="scale(0.015625)"/>
      <path id="DejaVuSans-72" d="M 2631 2963 
Q 2534 3019 2420 3045 
Q 2306 3072 2169 3072 
Q 1681 3072 1420 2755 
Q 1159 2438 1159 1844 
L 1159 0 
L 581 0 
L 581 3500 
L 1159 3500 
L 1159 2956 
Q 1341 3275 1631 3429 
Q 1922 3584 2338 3584 
Q 2397 3584 2469 3576 
Q 2541 3569 2628 3553 
L 2631 2963 
z
" transform="scale(0.015625)"/>
      <path id="DejaVuSans-61" d="M 2194 1759 
Q 1497 1759 1228 1600 
Q 959 1441 959 1056 
Q 959 750 1161 570 
Q 1363 391 1709 391 
Q 2188 391 2477 730 
Q 2766 1069 2766 1631 
L 2766 1759 
L 2194 1759 
z
M 3341 1997 
L 3341 0 
L 2766 0 
L 2766 531 
Q 2569 213 2275 61 
Q 1981 -91 1556 -91 
Q 1019 -91 701 211 
Q 384 513 384 1019 
Q 384 1609 779 1909 
Q 1175 2209 1959 2209 
L 2766 2209 
L 2766 2266 
Q 2766 2663 2505 2880 
Q 2244 3097 1772 3097 
Q 1472 3097 1187 3025 
Q 903 2953 641 2809 
L 641 3341 
Q 956 3463 1253 3523 
Q 1550 3584 1831 3584 
Q 2591 3584 2966 3190 
Q 3341 2797 3341 1997 
z
" transform="scale(0.015625)"/>
      <path id="DejaVuSans-69" d="M 603 3500 
L 1178 3500 
L 1178 0 
L 603 0 
L 603 3500 
z
M 603 4863 
L 1178 4863 
L 1178 4134 
L 603 4134 
L 603 4863 
z
" transform="scale(0.015625)"/>
      <path id="DejaVuSans-6e" d="M 3513 2113 
L 3513 0 
L 2938 0 
L 2938 2094 
Q 2938 2591 2744 2837 
Q 2550 3084 2163 3084 
Q 1697 3084 1428 2787 
Q 1159 2491 1159 1978 
L 1159 0 
L 581 0 
L 581 3500 
L 1159 3500 
L 1159 2956 
Q 1366 3272 1645 3428 
Q 1925 3584 2291 3584 
Q 2894 3584 3203 3211 
Q 3513 2838 3513 2113 
z
" transform="scale(0.015625)"/>
      <path id="DejaVuSans-67" d="M 2906 1791 
Q 2906 2416 2648 2759 
Q 2391 3103 1925 3103 
Q 1463 3103 1205 2759 
Q 947 2416 947 1791 
Q 947 1169 1205 825 
Q 1463 481 1925 481 
Q 2391 481 2648 825 
Q 2906 1169 2906 1791 
z
M 3481 434 
Q 3481 -459 3084 -895 
Q 2688 -1331 1869 -1331 
Q 1566 -1331 1297 -1286 
Q 1028 -1241 775 -1147 
L 775 -588 
Q 1028 -725 1275 -790 
Q 1522 -856 1778 -856 
Q 2344 -856 2625 -561 
Q 2906 -266 2906 331 
L 2906 616 
Q 2728 306 2450 153 
Q 2172 0 1784 0 
Q 1141 0 747 490 
Q 353 981 353 1791 
Q 353 2603 747 3093 
Q 1141 3584 1784 3584 
Q 2172 3584 2450 3431 
Q 2728 3278 2906 2969 
L 2906 3500 
L 3481 3500 
L 3481 434 
z
" transform="scale(0.015625)"/>
     </defs>
     <use xlink:href="#DejaVuSans-74"/>
     <use xlink:href="#DejaVuSans-72" x="39.208984"/>
     <use xlink:href="#DejaVuSans-61" x="80.322266"/>
     <use xlink:href="#DejaVuSans-69" x="141.601562"/>
     <use xlink:href="#DejaVuSans-6e" x="169.384766"/>
     <use xlink:href="#DejaVuSans-69" x="232.763672"/>
     <use xlink:href="#DejaVuSans-6e" x="260.546875"/>
     <use xlink:href="#DejaVuSans-67" x="323.925781"/>
    </g>
   </g>
   <g id="legend_1">
    <g id="patch_7">
     <path d="M 616.200132 59.674375 
L 697.593882 59.674375 
Q 699.593882 59.674375 699.593882 57.674375 
L 699.593882 29.318125 
Q 699.593882 27.318125 697.593882 27.318125 
L 616.200132 27.318125 
Q 614.200132 27.318125 614.200132 29.318125 
L 614.200132 57.674375 
Q 614.200132 59.674375 616.200132 59.674375 
z
" style="fill: #ffffff; opacity: 0.8; stroke: #cccccc; stroke-linejoin: miter"/>
    </g>
    <g id="line2d_13">
     <path d="M 618.200132 35.416562 
L 628.200132 35.416562 
L 638.200132 35.416562 
" style="fill: none; stroke: #1f77b4; stroke-width: 1.5; stroke-linecap: square"/>
    </g>
    <g id="text_12">
     <!-- observed -->
     <g transform="translate(646.200132 38.916562) scale(0.1 -0.1)">
      <defs>
       <path id="DejaVuSans-6f" d="M 1959 3097 
Q 1497 3097 1228 2736 
Q 959 2375 959 1747 
Q 959 1119 1226 758 
Q 1494 397 1959 397 
Q 2419 397 2687 759 
Q 2956 1122 2956 1747 
Q 2956 2369 2687 2733 
Q 2419 3097 1959 3097 
z
M 1959 3584 
Q 2709 3584 3137 3096 
Q 3566 2609 3566 1747 
Q 3566 888 3137 398 
Q 2709 -91 1959 -91 
Q 1206 -91 779 398 
Q 353 888 353 1747 
Q 353 2609 779 3096 
Q 1206 3584 1959 3584 
z
" transform="scale(0.015625)"/>
       <path id="DejaVuSans-62" d="M 3116 1747 
Q 3116 2381 2855 2742 
Q 2594 3103 2138 3103 
Q 1681 3103 1420 2742 
Q 1159 2381 1159 1747 
Q 1159 1113 1420 752 
Q 1681 391 2138 391 
Q 2594 391 2855 752 
Q 3116 1113 3116 1747 
z
M 1159 2969 
Q 1341 3281 1617 3432 
Q 1894 3584 2278 3584 
Q 2916 3584 3314 3078 
Q 3713 2572 3713 1747 
Q 3713 922 3314 415 
Q 2916 -91 2278 -91 
Q 1894 -91 1617 61 
Q 1341 213 1159 525 
L 1159 0 
L 581 0 
L 581 4863 
L 1159 4863 
L 1159 2969 
z
" transform="scale(0.015625)"/>
       <path id="DejaVuSans-73" d="M 2834 3397 
L 2834 2853 
Q 2591 2978 2328 3040 
Q 2066 3103 1784 3103 
Q 1356 3103 1142 2972 
Q 928 2841 928 2578 
Q 928 2378 1081 2264 
Q 1234 2150 1697 2047 
L 1894 2003 
Q 2506 1872 2764 1633 
Q 3022 1394 3022 966 
Q 3022 478 2636 193 
Q 2250 -91 1575 -91 
Q 1294 -91 989 -36 
Q 684 19 347 128 
L 347 722 
Q 666 556 975 473 
Q 1284 391 1588 391 
Q 1994 391 2212 530 
Q 2431 669 2431 922 
Q 2431 1156 2273 1281 
Q 2116 1406 1581 1522 
L 1381 1569 
Q 847 1681 609 1914 
Q 372 2147 372 2553 
Q 372 3047 722 3315 
Q 1072 3584 1716 3584 
Q 2034 3584 2315 3537 
Q 2597 3491 2834 3397 
z
" transform="scale(0.015625)"/>
       <path id="DejaVuSans-65" d="M 3597 1894 
L 3597 1613 
L 953 1613 
Q 991 1019 1311 708 
Q 1631 397 2203 397 
Q 2534 397 2845 478 
Q 3156 559 3463 722 
L 3463 178 
Q 3153 47 2828 -22 
Q 2503 -91 2169 -91 
Q 1331 -91 842 396 
Q 353 884 353 1716 
Q 353 2575 817 3079 
Q 1281 3584 2069 3584 
Q 2775 3584 3186 3129 
Q 3597 2675 3597 1894 
z
M 3022 2063 
Q 3016 2534 2758 2815 
Q 2500 3097 2075 3097 
Q 1594 3097 1305 2825 
Q 1016 2553 972 2059 
L 3022 2063 
z
" transform="scale(0.015625)"/>
       <path id="DejaVuSans-76" d="M 191 3500 
L 800 3500 
L 1894 563 
L 2988 3500 
L 3597 3500 
L 2284 0 
L 1503 0 
L 191 3500 
z
" transform="scale(0.015625)"/>
       <path id="DejaVuSans-64" d="M 2906 2969 
L 2906 4863 
L 3481 4863 
L 3481 0 
L 2906 0 
L 2906 525 
Q 2725 213 2448 61 
Q 2172 -91 1784 -91 
Q 1150 -91 751 415 
Q 353 922 353 1747 
Q 353 2572 751 3078 
Q 1150 3584 1784 3584 
Q 2172 3584 2448 3432 
Q 2725 3281 2906 2969 
z
M 947 1747 
Q 947 1113 1208 752 
Q 1469 391 1925 391 
Q 2381 391 2643 752 
Q 2906 1113 2906 1747 
Q 2906 2381 2643 2742 
Q 2381 3103 1925 3103 
Q 1469 3103 1208 2742 
Q 947 2381 947 1747 
z
" transform="scale(0.015625)"/>
      </defs>
      <use xlink:href="#DejaVuSans-6f"/>
      <use xlink:href="#DejaVuSans-62" x="61.181641"/>
      <use xlink:href="#DejaVuSans-73" x="124.658203"/>
      <use xlink:href="#DejaVuSans-65" x="176.757812"/>
      <use xlink:href="#DejaVuSans-72" x="238.28125"/>
      <use xlink:href="#DejaVuSans-76" x="279.394531"/>
      <use xlink:href="#DejaVuSans-65" x="338.574219"/>
      <use xlink:href="#DejaVuSans-64" x="400.097656"/>
     </g>
    </g>
    <g id="line2d_14">
     <path d="M 618.200132 50.094688 
L 628.200132 50.094688 
L 638.200132 50.094688 
" style="fill: none; stroke: #ff7f0e; stroke-width: 1.5; stroke-linecap: square"/>
    </g>
    <g id="text_13">
     <!-- simulated -->
     <g transform="translate(646.200132 53.594688) scale(0.1 -0.1)">
      <defs>
       <path id="DejaVuSans-6d" d="M 3328 2828 
Q 3544 3216 3844 3400 
Q 4144 3584 4550 3584 
Q 5097 3584 5394 3201 
Q 5691 2819 5691 2113 
L 5691 0 
L 5113 0 
L 5113 2094 
Q 5113 2597 4934 2840 
Q 4756 3084 4391 3084 
Q 3944 3084 3684 2787 
Q 3425 2491 3425 1978 
L 3425 0 
L 2847 0 
L 2847 2094 
Q 2847 2600 2669 2842 
Q 2491 3084 2119 3084 
Q 1678 3084 1418 2786 
Q 1159 2488 1159 1978 
L 1159 0 
L 581 0 
L 581 3500 
L 1159 3500 
L 1159 2956 
Q 1356 3278 1631 3431 
Q 1906 3584 2284 3584 
Q 2666 3584 2933 3390 
Q 3200 3197 3328 2828 
z
" transform="scale(0.015625)"/>
       <path id="DejaVuSans-75" d="M 544 1381 
L 544 3500 
L 1119 3500 
L 1119 1403 
Q 1119 906 1312 657 
Q 1506 409 1894 409 
Q 2359 409 2629 706 
Q 2900 1003 2900 1516 
L 2900 3500 
L 3475 3500 
L 3475 0 
L 2900 0 
L 2900 538 
Q 2691 219 2414 64 
Q 2138 -91 1772 -91 
Q 1169 -91 856 284 
Q 544 659 544 1381 
z
M 1991 3584 
L 1991 3584 
z
" transform="scale(0.015625)"/>
       <path id="DejaVuSans-6c" d="M 603 4863 
L 1178 4863 
L 1178 0 
L 603 0 
L 603 4863 
z
" transform="scale(0.015625)"/>
      </defs>
      <use xlink:href="#DejaVuSans-73"/>
      <use xlink:href="#DejaVuSans-69" x="52.099609"/>
      <use xlink:href="#DejaVuSans-6d" x="79.882812"/>
      <use xlink:href="#DejaVuSans-75" x="177.294922"/>
      <use xlink:href="#DejaVuSans-6c" x="240.673828"/>
      <use xlink:href="#DejaVuSans-61" x="268.457031"/>
      <use xlink:href="#DejaVuSans-74" x="329.736328"/>
      <use xlink:href="#DejaVuSans-65" x="368.945312"/>
      <use xlink:href="#DejaVuSans-64" x="430.46875"/>
     </g>
    </g>
   </g>
  </g>
 </g>
 <defs>
  <clipPath id="pe153b892d5">
   <rect x="28.750943" y="22.318125" width="675.842939" height="305.24"/>
  </clipPath>
 </defs>
</svg>
