<?xml version="1.0" encoding="utf-8" standalone="no"?>
<!DOCTYPE svg PUBLIC "-//W3C//DTD SVG 1.1//EN"
  "http://www.w3.org/Graphics/SVG/1.1/DTD/svg11.dtd">
<svg xmlns:xlink="http://www.w3.org/1999/xlink" width="720pt" height="360pt" viewBox="0 0 720 360" xmlns="http://www.w3.org/2000/svg" version="1.1">
 <metadata>
  <rdf:RDF xmlns:dc="http://purl.org/dc/elements/1.1/" xmlns:cc="http://creativecommons.org/ns#" xmlns:rdf="http://www.w3.org/1999/02/22-rdf-syntax-ns#">
   <cc:Work>
    <dc:type rdf:resource="http://purl.org/dc/dcmitype/StillImage"/>
    <dc:date>2023-10-23T10:54:36.272912</dc:date>
    <dc:format>image/svg+xml</dc:format>
    <dc:creator>
     <cc:Agent>
      <dc:title>Matplotlib v3.7.1, https://matplotlib.org/</dc:title>
     </cc:Agent>
    </dc:creator>
   </cc:Work>
  </rdf:RDF>
 </metadata>
 <defs>
  <style type="text/css">*{stroke-linejoin: round; stroke-linecap: butt}</style>
 </defs>
 <g id="figure_1">
  <g id="patch_1">
   <path d="M 0 360 
L 720 360 
L 720 0 
L 0 0 
z
" style="fill: #ffffff"/>
  </g>
  <g id="axes_1">
   <g id="patch_2">
    <path d="M 90 288 
L 648 288 
L 648 43.2 
L 90 43.2 
z
" style="fill: #ffffff"/>
   </g>
   <g id="matplotlib.axis_1">
    <g id="xtick_1">
     <g id="line2d_1">
      <defs>
       <path id="me9a65486ff" d="M 0 0 
L 0 3.5 
" style="stroke: #000000; stroke-width: 0.8"/>
      </defs>
      <g>
       <use xlink:href="#me9a65486ff" x="131.537549" y="288" style="stroke: #000000; stroke-width: 0.8"/>
      </g>
     </g>
     <g id="text_1">
      <!-- 2023-08-15 -->
      <g transform="translate(69.894208 337.765903) rotate(-30) scale(0.12 -0.12)">
       <defs>
        <path id="DejaVuSans-32" d="M 1228 531 
L 3431 531 
L 3431 0 
L 469 0 
L 469 531 
Q 828 903 1448 1529 
Q 2069 2156 2228 2338 
Q 2531 2678 2651 2914 
Q 2772 3150 2772 3378 
Q 2772 3750 2511 3984 
Q 2250 4219 1831 4219 
Q 1534 4219 1204 4116 
Q 875 4013 500 3803 
L 500 4441 
Q 881 4594 1212 4672 
Q 1544 4750 1819 4750 
Q 2544 4750 2975 4387 
Q 3406 4025 3406 3419 
Q 3406 3131 3298 2873 
Q 3191 2616 2906 2266 
Q 2828 2175 2409 1742 
Q 1991 1309 1228 531 
z
" transform="scale(0.015625)"/>
        <path id="DejaVuSans-30" d="M 2034 4250 
Q 1547 4250 1301 3770 
Q 1056 3291 1056 2328 
Q 1056 1369 1301 889 
Q 1547 409 2034 409 
Q 2525 409 2770 889 
Q 3016 1369 3016 2328 
Q 3016 3291 2770 3770 
Q 2525 4250 2034 4250 
z
M 2034 4750 
Q 2819 4750 3233 4129 
Q 3647 3509 3647 2328 
Q 3647 1150 3233 529 
Q 2819 -91 2034 -91 
Q 1250 -91 836 529 
Q 422 1150 422 2328 
Q 422 3509 836 4129 
Q 1250 4750 2034 4750 
z
" transform="scale(0.015625)"/>
        <path id="DejaVuSans-33" d="M 2597 2516 
Q 3050 2419 3304 2112 
Q 3559 1806 3559 1356 
Q 3559 666 3084 287 
Q 2609 -91 1734 -91 
Q 1441 -91 1130 -33 
Q 819 25 488 141 
L 488 750 
Q 750 597 1062 519 
Q 1375 441 1716 441 
Q 2309 441 2620 675 
Q 2931 909 2931 1356 
Q 2931 1769 2642 2001 
Q 2353 2234 1838 2234 
L 1294 2234 
L 1294 2753 
L 1863 2753 
Q 2328 2753 2575 2939 
Q 2822 3125 2822 3475 
Q 2822 3834 2567 4026 
Q 2313 4219 1838 4219 
Q 1578 4219 1281 4162 
Q 984 4106 628 3988 
L 628 4550 
Q 988 4650 1302 4700 
Q 1616 4750 1894 4750 
Q 2613 4750 3031 4423 
Q 3450 4097 3450 3541 
Q 3450 3153 3228 2886 
Q 3006 2619 2597 2516 
z
" transform="scale(0.015625)"/>
        <path id="DejaVuSans-2d" d="M 313 2009 
L 1997 2009 
L 1997 1497 
L 313 1497 
L 313 2009 
z
" transform="scale(0.015625)"/>
        <path id="DejaVuSans-38" d="M 2034 2216 
Q 1584 2216 1326 1975 
Q 1069 1734 1069 1313 
Q 1069 891 1326 650 
Q 1584 409 2034 409 
Q 2484 409 2743 651 
Q 3003 894 3003 1313 
Q 3003 1734 2745 1975 
Q 2488 2216 2034 2216 
z
M 1403 2484 
Q 997 2584 770 2862 
Q 544 3141 544 3541 
Q 544 4100 942 4425 
Q 1341 4750 2034 4750 
Q 2731 4750 3128 4425 
Q 3525 4100 3525 3541 
Q 3525 3141 3298 2862 
Q 3072 2584 2669 2484 
Q 3125 2378 3379 2068 
Q 3634 1759 3634 1313 
Q 3634 634 3220 271 
Q 2806 -91 2034 -91 
Q 1263 -91 848 271 
Q 434 634 434 1313 
Q 434 1759 690 2068 
Q 947 2378 1403 2484 
z
M 1172 3481 
Q 1172 3119 1398 2916 
Q 1625 2713 2034 2713 
Q 2441 2713 2670 2916 
Q 2900 3119 2900 3481 
Q 2900 3844 2670 4047 
Q 2441 4250 2034 4250 
Q 1625 4250 1398 4047 
Q 1172 3844 1172 3481 
z
" transform="scale(0.015625)"/>
        <path id="DejaVuSans-31" d="M 794 531 
L 1825 531 
L 1825 4091 
L 703 3866 
L 703 4441 
L 1819 4666 
L 2450 4666 
L 2450 531 
L 3481 531 
L 3481 0 
L 794 0 
L 794 531 
z
" transform="scale(0.015625)"/>
        <path id="DejaVuSans-35" d="M 691 4666 
L 3169 4666 
L 3169 4134 
L 1269 4134 
L 1269 2991 
Q 1406 3038 1543 3061 
Q 1681 3084 1819 3084 
Q 2600 3084 3056 2656 
Q 3513 2228 3513 1497 
Q 3513 744 3044 326 
Q 2575 -91 1722 -91 
Q 1428 -91 1123 -41 
Q 819 9 494 109 
L 494 744 
Q 775 591 1075 516 
Q 1375 441 1709 441 
Q 2250 441 2565 725 
Q 2881 1009 2881 1497 
Q 2881 1984 2565 2268 
Q 2250 2553 1709 2553 
Q 1456 2553 1204 2497 
Q 953 2441 691 2322 
L 691 4666 
z
" transform="scale(0.015625)"/>
       </defs>
       <use xlink:href="#DejaVuSans-32"/>
       <use xlink:href="#DejaVuSans-30" x="63.623047"/>
       <use xlink:href="#DejaVuSans-32" x="127.246094"/>
       <use xlink:href="#DejaVuSans-33" x="190.869141"/>
       <use xlink:href="#DejaVuSans-2d" x="254.492188"/>
       <use xlink:href="#DejaVuSans-30" x="290.576172"/>
       <use xlink:href="#DejaVuSans-38" x="354.199219"/>
       <use xlink:href="#DejaVuSans-2d" x="417.822266"/>
       <use xlink:href="#DejaVuSans-31" x="453.90625"/>
       <use xlink:href="#DejaVuSans-35" x="517.529297"/>
      </g>
     </g>
    </g>
    <g id="xtick_2">
     <g id="line2d_2">
      <g>
       <use xlink:href="#me9a65486ff" x="251.518577" y="288" style="stroke: #000000; stroke-width: 0.8"/>
      </g>
     </g>
     <g id="text_2">
      <!-- 2023-09-01 -->
      <g transform="translate(189.875235 337.765903) rotate(-30) scale(0.12 -0.12)">
       <defs>
        <path id="DejaVuSans-39" d="M 703 97 
L 703 672 
Q 941 559 1184 500 
Q 1428 441 1663 441 
Q 2288 441 2617 861 
Q 2947 1281 2994 2138 
Q 2813 1869 2534 1725 
Q 2256 1581 1919 1581 
Q 1219 1581 811 2004 
Q 403 2428 403 3163 
Q 403 3881 828 4315 
Q 1253 4750 1959 4750 
Q 2769 4750 3195 4129 
Q 3622 3509 3622 2328 
Q 3622 1225 3098 567 
Q 2575 -91 1691 -91 
Q 1453 -91 1209 -44 
Q 966 3 703 97 
z
M 1959 2075 
Q 2384 2075 2632 2365 
Q 2881 2656 2881 3163 
Q 2881 3666 2632 3958 
Q 2384 4250 1959 4250 
Q 1534 4250 1286 3958 
Q 1038 3666 1038 3163 
Q 1038 2656 1286 2365 
Q 1534 2075 1959 2075 
z
" transform="scale(0.015625)"/>
       </defs>
       <use xlink:href="#DejaVuSans-32"/>
       <use xlink:href="#DejaVuSans-30" x="63.623047"/>
       <use xlink:href="#DejaVuSans-32" x="127.246094"/>
       <use xlink:href="#DejaVuSans-33" x="190.869141"/>
       <use xlink:href="#DejaVuSans-2d" x="254.492188"/>
       <use xlink:href="#DejaVuSans-30" x="290.576172"/>
       <use xlink:href="#DejaVuSans-39" x="354.199219"/>
       <use xlink:href="#DejaVuSans-2d" x="417.822266"/>
       <use xlink:href="#DejaVuSans-30" x="453.90625"/>
       <use xlink:href="#DejaVuSans-31" x="517.529297"/>
      </g>
     </g>
    </g>
    <g id="xtick_3">
     <g id="line2d_3">
      <g>
       <use xlink:href="#me9a65486ff" x="350.326482" y="288" style="stroke: #000000; stroke-width: 0.8"/>
      </g>
     </g>
     <g id="text_3">
      <!-- 2023-09-15 -->
      <g transform="translate(288.683141 337.765903) rotate(-30) scale(0.12 -0.12)">
       <use xlink:href="#DejaVuSans-32"/>
       <use xlink:href="#DejaVuSans-30" x="63.623047"/>
       <use xlink:href="#DejaVuSans-32" x="127.246094"/>
       <use xlink:href="#DejaVuSans-33" x="190.869141"/>
       <use xlink:href="#DejaVuSans-2d" x="254.492188"/>
       <use xlink:href="#DejaVuSans-30" x="290.576172"/>
       <use xlink:href="#DejaVuSans-39" x="354.199219"/>
       <use xlink:href="#DejaVuSans-2d" x="417.822266"/>
       <use xlink:href="#DejaVuSans-31" x="453.90625"/>
       <use xlink:href="#DejaVuSans-35" x="517.529297"/>
      </g>
     </g>
    </g>
    <g id="xtick_4">
     <g id="line2d_4">
      <g>
       <use xlink:href="#me9a65486ff" x="463.249802" y="288" style="stroke: #000000; stroke-width: 0.8"/>
      </g>
     </g>
     <g id="text_4">
      <!-- 2023-10-01 -->
      <g transform="translate(401.606461 337.765903) rotate(-30) scale(0.12 -0.12)">
       <use xlink:href="#DejaVuSans-32"/>
       <use xlink:href="#DejaVuSans-30" x="63.623047"/>
       <use xlink:href="#DejaVuSans-32" x="127.246094"/>
       <use xlink:href="#DejaVuSans-33" x="190.869141"/>
       <use xlink:href="#DejaVuSans-2d" x="254.492188"/>
       <use xlink:href="#DejaVuSans-31" x="290.576172"/>
       <use xlink:href="#DejaVuSans-30" x="354.199219"/>
       <use xlink:href="#DejaVuSans-2d" x="417.822266"/>
       <use xlink:href="#DejaVuSans-30" x="453.90625"/>
       <use xlink:href="#DejaVuSans-31" x="517.529297"/>
      </g>
     </g>
    </g>
    <g id="xtick_5">
     <g id="line2d_5">
      <g>
       <use xlink:href="#me9a65486ff" x="562.057708" y="288" style="stroke: #000000; stroke-width: 0.8"/>
      </g>
     </g>
     <g id="text_5">
      <!-- 2023-10-15 -->
      <g transform="translate(500.414366 337.765903) rotate(-30) scale(0.12 -0.12)">
       <use xlink:href="#DejaVuSans-32"/>
       <use xlink:href="#DejaVuSans-30" x="63.623047"/>
       <use xlink:href="#DejaVuSans-32" x="127.246094"/>
       <use xlink:href="#DejaVuSans-33" x="190.869141"/>
       <use xlink:href="#DejaVuSans-2d" x="254.492188"/>
       <use xlink:href="#DejaVuSans-31" x="290.576172"/>
       <use xlink:href="#DejaVuSans-30" x="354.199219"/>
       <use xlink:href="#DejaVuSans-2d" x="417.822266"/>
       <use xlink:href="#DejaVuSans-31" x="453.90625"/>
       <use xlink:href="#DejaVuSans-35" x="517.529297"/>
      </g>
     </g>
    </g>
   </g>
   <g id="matplotlib.axis_2">
    <g id="ytick_1">
     <g id="line2d_6">
      <defs>
       <path id="m81acd84cc0" d="M 0 0 
L -3.5 0 
" style="stroke: #000000; stroke-width: 0.8"/>
      </defs>
      <g>
       <use xlink:href="#m81acd84cc0" x="90" y="266.272055" style="stroke: #000000; stroke-width: 0.8"/>
      </g>
     </g>
     <g id="text_6">
      <!-- 0 -->
      <g transform="translate(75.365 270.831118) scale(0.12 -0.12)">
       <use xlink:href="#DejaVuSans-30"/>
      </g>
     </g>
    </g>
    <g id="ytick_2">
     <g id="line2d_7">
      <g>
       <use xlink:href="#m81acd84cc0" x="90" y="218.072925" style="stroke: #000000; stroke-width: 0.8"/>
      </g>
     </g>
     <g id="text_7">
      <!-- 1 -->
      <g transform="translate(75.365 222.631987) scale(0.12 -0.12)">
       <use xlink:href="#DejaVuSans-31"/>
      </g>
     </g>
    </g>
    <g id="ytick_3">
     <g id="line2d_8">
      <g>
       <use xlink:href="#m81acd84cc0" x="90" y="169.873795" style="stroke: #000000; stroke-width: 0.8"/>
      </g>
     </g>
     <g id="text_8">
      <!-- 2 -->
      <g transform="translate(75.365 174.432857) scale(0.12 -0.12)">
       <use xlink:href="#DejaVuSans-32"/>
      </g>
     </g>
    </g>
    <g id="ytick_4">
     <g id="line2d_9">
      <g>
       <use xlink:href="#m81acd84cc0" x="90" y="121.674665" style="stroke: #000000; stroke-width: 0.8"/>
      </g>
     </g>
     <g id="text_9">
      <!-- 3 -->
      <g transform="translate(75.365 126.233727) scale(0.12 -0.12)">
       <use xlink:href="#DejaVuSans-33"/>
      </g>
     </g>
    </g>
    <g id="ytick_5">
     <g id="line2d_10">
      <g>
       <use xlink:href="#m81acd84cc0" x="90" y="73.475534" style="stroke: #000000; stroke-width: 0.8"/>
      </g>
     </g>
     <g id="text_10">
      <!-- 4 -->
      <g transform="translate(75.365 78.034597) scale(0.12 -0.12)">
       <defs>
        <path id="DejaVuSans-34" d="M 2419 4116 
L 825 1625 
L 2419 1625 
L 2419 4116 
z
M 2253 4666 
L 3047 4666 
L 3047 1625 
L 3713 1625 
L 3713 1100 
L 3047 1100 
L 3047 0 
L 2419 0 
L 2419 1100 
L 313 1100 
L 313 1709 
L 2253 4666 
z
" transform="scale(0.015625)"/>
       </defs>
       <use xlink:href="#DejaVuSans-34"/>
      </g>
     </g>
    </g>
    <g id="text_11">
     <!-- Meters -->
     <g transform="translate(69.285312 182.6875) rotate(-90) scale(0.1 -0.1)">
      <defs>
       <path id="DejaVuSans-4d" d="M 628 4666 
L 1569 4666 
L 2759 1491 
L 3956 4666 
L 4897 4666 
L 4897 0 
L 4281 0 
L 4281 4097 
L 3078 897 
L 2444 897 
L 1241 4097 
L 1241 0 
L 628 0 
L 628 4666 
z
" transform="scale(0.015625)"/>
       <path id="DejaVuSans-65" d="M 3597 1894 
L 3597 1613 
L 953 1613 
Q 991 1019 1311 708 
Q 1631 397 2203 397 
Q 2534 397 2845 478 
Q 3156 559 3463 722 
L 3463 178 
Q 3153 47 2828 -22 
Q 2503 -91 2169 -91 
Q 1331 -91 842 396 
Q 353 884 353 1716 
Q 353 2575 817 3079 
Q 1281 3584 2069 3584 
Q 2775 3584 3186 3129 
Q 3597 2675 3597 1894 
z
M 3022 2063 
Q 3016 2534 2758 2815 
Q 2500 3097 2075 3097 
Q 1594 3097 1305 2825 
Q 1016 2553 972 2059 
L 3022 2063 
z
" transform="scale(0.015625)"/>
       <path id="DejaVuSans-74" d="M 1172 4494 
L 1172 3500 
L 2356 3500 
L 2356 3053 
L 1172 3053 
L 1172 1153 
Q 1172 725 1289 603 
Q 1406 481 1766 481 
L 2356 481 
L 2356 0 
L 1766 0 
Q 1100 0 847 248 
Q 594 497 594 1153 
L 594 3053 
L 172 3053 
L 172 3500 
L 594 3500 
L 594 4494 
L 1172 4494 
z
" transform="scale(0.015625)"/>
       <path id="DejaVuSans-72" d="M 2631 2963 
Q 2534 3019 2420 3045 
Q 2306 3072 2169 3072 
Q 1681 3072 1420 2755 
Q 1159 2438 1159 1844 
L 1159 0 
L 581 0 
L 581 3500 
L 1159 3500 
L 1159 2956 
Q 1341 3275 1631 3429 
Q 1922 3584 2338 3584 
Q 2397 3584 2469 3576 
Q 2541 3569 2628 3553 
L 2631 2963 
z
" transform="scale(0.015625)"/>
       <path id="DejaVuSans-73" d="M 2834 3397 
L 2834 2853 
Q 2591 2978 2328 3040 
Q 2066 3103 1784 3103 
Q 1356 3103 1142 2972 
Q 928 2841 928 2578 
Q 928 2378 1081 2264 
Q 1234 2150 1697 2047 
L 1894 2003 
Q 2506 1872 2764 1633 
Q 3022 1394 3022 966 
Q 3022 478 2636 193 
Q 2250 -91 1575 -91 
Q 1294 -91 989 -36 
Q 684 19 347 128 
L 347 722 
Q 666 556 975 473 
Q 1284 391 1588 391 
Q 1994 391 2212 530 
Q 2431 669 2431 922 
Q 2431 1156 2273 1281 
Q 2116 1406 1581 1522 
L 1381 1569 
Q 847 1681 609 1914 
Q 372 2147 372 2553 
Q 372 3047 722 3315 
Q 1072 3584 1716 3584 
Q 2034 3584 2315 3537 
Q 2597 3491 2834 3397 
z
" transform="scale(0.015625)"/>
      </defs>
      <use xlink:href="#DejaVuSans-4d"/>
      <use xlink:href="#DejaVuSans-65" x="86.279297"/>
      <use xlink:href="#DejaVuSans-74" x="147.802734"/>
      <use xlink:href="#DejaVuSans-65" x="187.011719"/>
      <use xlink:href="#DejaVuSans-72" x="248.535156"/>
      <use xlink:href="#DejaVuSans-73" x="289.648438"/>
     </g>
    </g>
   </g>
   <g id="line2d_11">
    <path d="M 115.363636 268.469373 
L 115.657708 268.42807 
L 115.951779 268.922329 
L 116.539921 268.510676 
L 116.833992 268.970515 
L 117.128063 268.987381 
L 117.422134 268.541653 
L 117.716206 268.421186 
L 118.598419 268.485435 
L 118.89249 268.268594 
L 119.186561 268.199527 
L 119.774704 268.485435 
L 120.068775 268.469373 
L 121.245059 268.710307 
L 122.127273 269.372875 
L 122.715415 269.375284 
L 123.009486 269.165404 
L 123.303557 269.433109 
L 280.631621 274.26785 
L 280.925692 274.114111 
L 281.219763 274.091165 
L 281.513834 274.364224 
L 282.101976 274.19557 
L 282.98419 274.131321 
L 283.572332 273.910465 
L 283.866403 274.203601 
L 284.160474 274.018885 
L 284.454545 274.2807 
L 284.748617 274.361929 
L 285.336759 274.705547 
L 285.924901 274.819321 
L 286.218972 274.605157 
L 286.513043 274.637282 
L 286.807115 274.444535 
L 287.101186 273.76992 
L 287.395257 273.8422 
L 288.27747 273.673546 
L 289.159684 273.637406 
L 289.747826 273.496861 
L 290.63004 273.537017 
L 290.924111 273.439496 
L 291.218182 272.42069 
L 291.806324 271.895454 
L 292.394466 271.922759 
L 292.688538 271.960238 
L 292.982609 271.82739 
L 293.27668 271.830401 
L 293.864822 269.143988 
L 294.158893 269.047614 
L 294.747036 267.116436 
L 295.335178 266.843069 
L 296.217391 267.467776 
L 296.805534 267.770664 
L 297.099605 267.778695 
L 297.687747 268.035692 
L 298.56996 268.330481 
L 299.158103 268.849513 
L 299.746245 268.779145 
L 300.628458 269.047614 
L 301.510672 269.296579 
L 301.804743 269.418653 
L 302.098814 269.392953 
L 302.392885 269.505389 
L 303.56917 269.492415 
L 305.333597 269.741504 
L 306.21581 269.914976 
L 306.509881 270.063552 
L 307.392095 269.823957 
L 307.980237 269.636564 
L 309.744664 269.44625 
L 310.920949 269.481295 
L 311.803162 269.818603 
L 312.097233 270.15591 
L 312.391304 270.180004 
L 314.155731 271.017249 
L 314.743874 270.341774 
L 316.214229 270.10237 
L 316.802372 270.173433 
L 317.096443 270.300471 
L 317.390514 270.300471 
L 317.684585 270.171973 
L 317.978656 270.300471 
L 318.272727 270.188035 
L 318.566798 270.204097 
L 318.86087 269.982438 
L 319.154941 270.637778 
L 319.449012 270.726121 
L 319.743083 271.244129 
L 320.331225 271.741694 
L 320.919368 271.969799 
L 321.801581 271.448193 
L 322.095652 270.975086 
L 322.977866 270.557467 
L 323.271937 270.71809 
L 323.860079 270.589592 
L 324.448221 270.698012 
L 325.036364 270.710059 
L 325.330435 270.541405 
L 325.624506 270.573529 
L 325.918577 270.432984 
L 326.506719 270.791976 
L 326.800791 270.766276 
L 327.094862 270.878712 
L 327.388933 270.65843 
L 327.977075 270.830526 
L 328.565217 270.702027 
L 328.859289 270.758245 
L 329.15336 270.589592 
L 332.976285 268.903054 
L 333.270356 269.168081 
L 333.564427 268.830774 
L 333.858498 268.964383 
L 334.152569 236.074081 
L 334.44664 54.327273 
L 334.740711 54.616393 
L 335.328854 56.672363 
L 335.622925 55.435569 
L 335.916996 56.772752 
L 336.211067 56.206558 
L 336.799209 56.543865 
L 337.093281 56.881173 
L 337.387352 57.025733 
L 337.681423 56.274019 
L 337.975494 56.736612 
L 338.269565 56.543865 
L 339.151779 56.608114 
L 340.328063 56.302931 
L 340.916206 56.408942 
L 341.210277 57.122107 
L 341.504348 56.4582 
L 342.09249 56.383242 
L 342.386561 72.593773 
L 342.680632 214.162859 
L 342.974704 266.81496 
L 343.268775 266.847084 
L 343.562846 266.750711 
L 344.150988 266.879209 
L 345.327273 267.216516 
L 345.915415 267.369108 
L 346.503557 267.473512 
L 346.797628 267.224547 
L 347.0917 267.345014 
L 347.385771 267.674291 
L 347.679842 267.746571 
L 347.973913 268.469373 
L 348.267984 268.565746 
L 348.562055 268.886992 
L 349.73834 269.384922 
L 350.620553 268.702276 
L 351.502767 268.621964 
L 351.796838 268.7344 
L 352.090909 268.702276 
L 352.38498 268.798649 
L 352.973123 268.766525 
L 353.267194 268.903054 
L 354.149407 268.565746 
L 354.443478 268.999427 
L 354.737549 269.01549 
L 355.031621 269.521451 
L 355.619763 269.770416 
L 355.913834 270.171973 
L 356.207905 270.180004 
L 356.501976 270.051506 
L 356.796047 270.316533 
L 357.972332 269.553576 
L 358.266403 269.425077 
L 358.560474 269.569638 
L 360.03083 269.545544 
L 360.618972 269.577669 
L 361.207115 269.047614 
L 361.501186 269.409015 
L 361.795257 269.593731 
L 362.089328 269.995288 
L 362.67747 270.268346 
L 362.971542 270.171973 
L 363.853755 270.854619 
L 364.147826 270.316533 
L 365.03004 269.802541 
L 365.618182 270.027412 
L 365.912253 270.035443 
L 366.500395 270.204097 
L 366.794466 270.027412 
L 367.088538 270.099693 
L 367.970751 269.931039 
L 368.264822 269.674043 
L 368.558893 270.131817 
L 369.735178 270.71809 
L 370.029249 270.766276 
L 370.32332 270.975086 
L 370.617391 270.79037 
L 371.205534 270.043475 
L 371.793676 269.995288 
L 372.381818 270.171973 
L 374.734387 270.300471 
L 375.028458 270.08363 
L 375.616601 270.605654 
L 375.910672 270.469125 
L 376.204743 270.846588 
L 376.498814 270.71809 
L 376.792885 270.967055 
L 377.381028 270.854619 
L 377.675099 271.248144 
L 377.96917 271.336487 
L 379.145455 270.693996 
L 380.321739 270.766276 
L 380.909881 270.726121 
L 381.203953 270.541405 
L 381.498024 270.693996 
L 381.792095 270.653841 
L 382.380237 270.163942 
L 382.674308 270.268346 
L 383.262451 270.814463 
L 383.556522 270.950992 
L 383.850593 270.742183 
L 384.144664 270.926899 
L 384.438735 270.814463 
L 384.732806 270.93493 
L 385.026877 270.878712 
L 385.320949 270.702027 
L 386.203162 270.573529 
L 386.497233 270.693996 
L 387.085375 270.645809 
L 387.379447 270.798401 
L 387.967589 270.58156 
L 388.26166 270.726121 
L 388.849802 270.693996 
L 389.437945 270.324564 
L 390.026087 270.565498 
L 390.614229 271.272238 
L 390.9083 271.2883 
L 391.496443 271.657732 
L 391.790514 271.657732 
L 392.084585 271.778199 
L 392.672727 271.272238 
L 392.966798 271.384674 
L 393.26087 271.21602 
L 393.554941 271.304362 
L 393.849012 271.167833 
L 394.143083 271.304362 
L 394.437154 271.14374 
L 395.025296 271.135709 
L 395.90751 271.119646 
L 396.201581 270.814463 
L 396.495652 270.750214 
L 396.789723 271.015242 
L 397.083794 271.103584 
L 397.966008 271.818355 
L 399.436364 271.882604 
L 399.730435 271.665763 
L 400.024506 271.697888 
L 400.612648 271.440892 
L 400.906719 271.529234 
L 401.494862 271.448923 
L 401.788933 271.505141 
L 402.377075 271.440892 
L 402.671146 271.43286 
L 402.965217 271.577421 
L 403.259289 271.384674 
L 403.55336 271.023273 
L 403.847431 271.545296 
L 404.141502 271.368611 
L 404.435573 271.938822 
L 405.317787 272.557219 
L 405.611858 272.63753 
L 405.905929 272.581312 
L 407.376285 271.770168 
L 407.670356 271.874573 
L 407.964427 272.227942 
L 408.258498 271.882604 
L 408.84664 271.946853 
L 409.728854 272.043226 
L 410.316996 271.43286 
L 410.611067 271.521203 
L 410.905138 272.027164 
L 411.199209 271.99504 
L 411.493281 272.388565 
L 412.963636 273.071211 
L 413.257708 272.814215 
L 413.551779 272.878464 
L 413.84585 272.533125 
L 414.139921 272.364472 
L 414.433992 272.42069 
L 414.728063 272.107475 
L 415.316206 272.300223 
L 415.610277 271.970946 
L 416.198419 272.107475 
L 416.49249 272.043226 
L 416.786561 272.227942 
L 417.080632 272.147631 
L 417.374704 271.746075 
L 417.668775 271.601514 
L 417.962846 272.412658 
L 418.256917 272.051258 
L 418.845059 272.966807 
L 420.021344 273.456706 
L 420.609486 272.766028 
L 420.903557 272.677686 
L 421.197628 272.268098 
L 421.4917 272.260067 
L 421.785771 272.372503 
L 422.373913 272.268098 
L 422.962055 272.28416 
L 424.13834 272.179756 
L 424.726482 271.834417 
L 425.020553 271.978977 
L 425.902767 272.115507 
L 426.196838 272.227942 
L 427.079051 272.091413 
L 427.373123 272.123538 
L 428.255336 271.866542 
L 431.196047 271.762137 
L 431.490119 271.721981 
L 432.078261 271.416798 
L 432.372332 271.392705 
L 432.666403 271.497109 
L 432.960474 271.826386 
L 433.254545 271.689857 
L 433.842688 272.252036 
L 434.43083 272.027164 
L 437.371542 271.810324 
L 437.959684 271.770168 
L 438.841897 271.778199 
L 440.312253 271.794261 
L 441.194466 271.730012 
L 441.782609 271.521203 
L 442.370751 271.545296 
L 442.958893 271.368611 
L 443.252964 271.232082 
L 445.017391 271.175864 
L 445.605534 271.127677 
L 446.487747 271.023273 
L 447.075889 270.999179 
L 447.664032 270.942961 
L 448.840316 270.734152 
L 449.72253 270.557467 
L 451.192885 270.533374 
L 452.075099 270.501249 
L 452.36917 270.396844 
L 452.663241 270.428969 
L 453.545455 270.260315 
L 453.839526 270.196066 
L 454.427668 269.666011 
L 455.01581 269.625856 
L 455.898024 269.248393 
L 457.956522 269.682074 
L 458.838735 269.971194 
L 459.132806 269.850727 
L 459.426877 270.171973 
L 460.01502 270.188035 
L 460.309091 270.180004 
L 460.603162 270.380782 
L 461.779447 271.826386 
L 462.367589 272.244005 
L 462.955731 271.513172 
L 463.543874 271.344518 
L 463.837945 271.408767 
L 464.132016 271.312393 
L 465.014229 271.304362 
L 465.602372 271.368611 
L 465.896443 271.577421 
L 466.484585 271.513172 
L 466.778656 271.416798 
L 467.072727 271.191926 
L 467.366798 271.56939 
L 467.66087 271.36058 
L 468.543083 272.268098 
L 468.837154 272.444783 
L 469.131225 272.460845 
L 469.425296 272.717842 
L 469.719368 272.444783 
L 471.483794 271.914728 
L 471.777866 272.059289 
L 472.071937 271.842448 
L 472.366008 271.930791 
L 472.660079 271.770168 
L 473.542292 271.914728 
L 473.836364 271.577421 
L 474.130435 271.489078 
L 474.424506 271.609545 
L 474.718577 271.505141 
L 475.012648 272.099444 
L 475.306719 272.388565 
L 475.600791 272.332347 
L 476.483004 273.014993 
L 478.247431 272.051258 
L 478.541502 272.075351 
L 478.835573 271.978977 
L 479.129644 272.195818 
L 479.717787 272.195818 
L 480.011858 271.938822 
L 480.305929 272.21188 
L 480.894071 271.930791 
L 481.482213 271.770168 
L 481.776285 271.738043 
L 482.364427 272.404627 
L 482.952569 272.661624 
L 483.540711 272.63753 
L 483.834783 273.039087 
L 484.128854 272.693748 
L 484.422925 272.782091 
L 485.011067 272.308254 
L 485.305138 272.28416 
L 485.599209 272.380534 
L 485.893281 272.260067 
L 486.187352 272.372503 
L 487.657708 272.171725 
L 488.24585 271.794261 
L 488.833992 271.987009 
L 489.716206 272.21188 
L 490.010277 272.460845 
L 490.598419 272.460845 
L 490.89249 272.717842 
L 491.186561 272.653592 
L 491.480632 272.163693 
L 491.774704 272.404627 
L 492.362846 272.21188 
L 492.656917 272.083382 
L 493.53913 272.28416 
L 493.833202 272.075351 
L 494.127273 272.276129 
L 495.303557 271.914728 
L 496.185771 271.874573 
L 496.773913 271.601514 
L 497.067984 271.14374 
L 498.244269 270.380782 
L 499.714625 270.131817 
L 501.773123 268.750462 
L 502.067194 268.003567 
L 502.361265 268.58984 
L 502.655336 268.862898 
L 502.949407 268.702276 
L 503.537549 269.111863 
L 503.831621 269.30461 
L 504.419763 269.184143 
L 505.007905 268.967303 
L 505.301976 268.927147 
L 505.596047 268.58984 
L 505.890119 268.750462 
L 506.478261 268.638027 
L 506.772332 268.678182 
L 507.360474 268.364968 
L 507.948617 268.348906 
L 508.242688 268.413155 
L 508.536759 268.268594 
L 509.124901 268.212377 
L 509.713043 268.565746 
L 510.007115 268.613933 
L 510.595257 268.983365 
L 510.889328 268.790618 
L 511.183399 269.30461 
L 511.47747 269.192175 
L 511.771542 269.682074 
L 512.065613 269.095801 
L 521.76996 269.65798 
L 522.064032 269.521451 
L 522.358103 269.674043 
L 522.946245 269.425077 
L 523.240316 268.80668 
L 523.534387 268.726369 
L 523.828458 268.903054 
L 524.12253 268.638027 
L 524.710672 269.489326 
L 525.004743 269.690105 
L 525.298814 270.115755 
L 525.592885 270.059537 
L 525.886957 270.645809 
L 526.181028 270.284409 
L 527.063241 270.115755 
L 527.651383 269.971194 
L 527.945455 270.228191 
L 528.239526 270.196066 
L 528.827668 270.36472 
L 530.592095 270.091661 
L 531.768379 270.541405 
L 532.356522 270.404876 
L 534.41502 270.541405 
L 537.355731 270.445031 
L 537.649802 270.396844 
L 537.943874 270.517311 
L 538.237945 270.461093 
L 538.826087 271.408767 
L 540.002372 271.874573 
L 541.472727 270.830526 
L 541.766798 270.750214 
L 543.531225 270.942961 
L 543.825296 270.870681 
L 545.001581 270.051506 
L 545.589723 270.372751 
L 546.177866 270.942961 
L 546.471937 270.79037 
L 546.766008 270.959024 
L 547.35415 270.918868 
L 547.942292 271.095553 
L 548.236364 271.103584 
L 548.530435 270.910837 
L 548.824506 270.86265 
L 549.412648 271.095553 
L 551.765217 271.103584 
L 552.059289 271.039335 
L 552.647431 271.087522 
L 553.235573 271.14374 
L 554.117787 271.031304 
L 554.705929 271.159802 
L 555 270.918868 
L 555.294071 270.999179 
L 555.588142 270.838557 
L 557.058498 270.742183 
L 557.64664 271.00721 
L 557.940711 270.942961 
L 558.234783 270.485187 
L 558.528854 270.372751 
L 559.411067 269.505389 
L 559.999209 268.830774 
L 560.293281 268.870929 
L 560.587352 268.565746 
L 560.881423 268.654089 
L 561.763636 268.340875 
L 562.351779 267.95538 
L 562.64585 267.915225 
L 563.822134 267.328952 
L 565.880632 266.670399 
L 566.762846 267.007707 
L 567.056917 266.903302 
L 568.233202 267.152267 
L 569.115415 266.951489 
L 569.409486 266.983613 
L 569.997628 266.806928 
L 571.173913 266.839053 
L 571.467984 266.943458 
L 571.762055 266.88724 
L 572.350198 267.079987 
L 572.644269 266.999676 
L 574.114625 267.569886 
L 574.996838 267.778695 
L 575.879051 267.722477 
L 577.643478 267.979474 
L 579.113834 267.995536 
L 580.58419 268.300719 
L 581.172332 268.646058 
L 581.466403 268.646058 
L 581.760474 268.758493 
L 582.348617 268.541653 
L 583.23083 268.742431 
L 583.818972 268.413155 
L 584.113043 268.557715 
L 584.407115 268.389061 
L 585.289328 268.718338 
L 585.87747 268.742431 
L 586.171542 268.951241 
L 587.053755 268.581809 
L 587.347826 268.838805 
L 587.641897 268.814711 
L 587.935968 269.095801 
L 588.818182 269.537513 
L 590.582609 268.975334 
L 591.758893 269.119894 
L 592.052964 269.01549 
L 592.641107 269.168081 
L 593.52332 269.135957 
L 594.111462 268.959272 
L 594.699605 268.975334 
L 594.993676 268.903054 
L 595.287747 268.975334 
L 595.875889 268.854867 
L 597.640316 268.30875 
L 597.934387 268.172221 
L 598.228458 268.180252 
L 599.404743 267.537761 
L 601.757312 266.622212 
L 602.051383 266.646306 
L 602.345455 266.549932 
L 602.639526 266.300967 
L 605.286166 266.140345 
L 605.580237 266.003815 
L 605.874308 266.188531 
L 606.168379 266.092158 
L 606.462451 265.730757 
L 606.756522 265.835161 
L 607.344664 265.473761 
L 607.932806 265.25692 
L 608.520949 265.61029 
L 608.81502 265.554072 
L 609.109091 265.666508 
L 610.285375 265.465729 
L 610.873518 265.473761 
L 613.226087 265.497854 
L 613.520158 265.377387 
L 614.696443 265.289045 
L 614.990514 265.208733 
L 615.578656 265.642414 
L 615.872727 265.658477 
L 617.343083 266.541901 
L 617.637154 266.429465 
L 617.931225 265.819099 
L 618.225296 265.835161 
L 618.519368 265.457698 
L 618.813439 265.554072 
L 619.401581 265.305107 
L 619.695652 265.377387 
L 621.166008 265.11236 
L 621.75415 265.224795 
L 622.048221 265.040079 
L 622.342292 265.240858 
L 622.636364 265.040079 
L 622.636364 265.040079 
" clip-path="url(#p02088089bc)" style="fill: none; stroke: #1f77b4; stroke-width: 1.5; stroke-linecap: square"/>
   </g>
   <g id="line2d_12">
    <path d="M 115.363636 263.543639 
L 116.24585 263.541057 
L 117.128063 263.487023 
L 118.010277 263.50207 
L 118.304348 268.469373 
L 120.068775 268.192528 
L 123.303557 268.013689 
L 282.98419 274.305064 
L 287.101186 274.282499 
L 287.689328 274.008657 
L 289.453755 273.895958 
L 293.570751 273.703178 
L 293.864822 273.698463 
L 294.158893 273.565978 
L 295.335178 273.495832 
L 303.863241 273.234991 
L 329.15336 273.225568 
L 332.976285 269.269273 
L 334.740711 268.831402 
L 336.799209 268.523865 
L 339.151779 268.387461 
L 340.328063 268.374372 
L 340.622134 56.274019 
L 342.09249 63.682441 
L 343.856917 71.431544 
L 345.621344 78.224724 
L 346.209486 80.30684 
L 346.503557 267.370714 
L 353.267194 267.516719 
L 353.561265 268.739219 
L 360.324901 268.851254 
L 360.618972 269.558394 
L 367.382609 269.650114 
L 367.67668 270.117361 
L 370.029249 270.159027 
L 371.499605 269.170016 
L 371.793676 269.194193 
L 372.087747 269.096584 
L 372.675889 268.71515 
L 373.558103 268.573255 
L 374.440316 268.482178 
L 374.734387 270.319746 
L 381.498024 270.384852 
L 381.792095 270.52213 
L 386.791304 270.464784 
L 387.673518 270.197115 
L 388.26166 270.258725 
L 388.555731 270.105351 
L 388.849802 270.763064 
L 395.613439 270.562034 
L 395.90751 271.100372 
L 404.141502 271.208356 
L 404.435573 270.955811 
L 410.022925 271.034355 
L 410.316996 272.043226 
L 430.901976 272.302411 
L 431.196047 271.794261 
L 433.842688 271.797409 
L 434.724901 271.482843 
L 435.018972 271.545335 
L 435.313043 271.908682 
L 435.607115 271.979292 
L 436.489328 271.718335 
L 437.371542 271.417682 
L 437.665613 270.822522 
L 438.253755 268.92459 
L 438.841897 268.774961 
L 439.43004 268.688454 
L 439.724111 271.778199 
L 440.606324 271.395787 
L 441.194466 271.291808 
L 441.488538 271.794261 
L 442.958893 271.608556 
L 443.252964 271.656908 
L 444.135178 271.113864 
L 444.72332 270.896114 
L 445.017391 270.850832 
L 445.311462 271.199958 
L 447.36996 270.877987 
L 450.604743 270.651942 
L 455.898024 270.600318 
L 459.132806 270.614638 
L 459.426877 269.971194 
L 466.190514 270.024924 
L 466.484585 271.577421 
L 473.248221 271.608816 
L 473.542292 271.78623 
L 480.305929 271.814209 
L 480.6 271.938822 
L 487.657708 271.965034 
L 487.951779 272.364472 
L 495.009486 272.276129 
L 495.303557 272.224628 
L 495.597628 272.423501 
L 495.8917 272.872826 
L 496.479842 272.965972 
L 497.067984 275.193082 
L 497.362055 274.577544 
L 497.656126 275.241202 
L 497.950198 276.872727 
L 498.53834 270.069171 
L 498.832411 270.807387 
L 499.126482 270.979295 
L 501.479051 270.350243 
L 501.773123 269.039583 
L 507.066403 268.97883 
L 507.654545 268.80684 
L 508.83083 268.646989 
L 509.124901 268.413155 
L 510.007115 268.311152 
L 512.065613 268.338947 
L 524.12253 268.309833 
L 530.003953 268.477448 
L 530.298024 270.163942 
L 536.767589 270.283763 
L 537.06166 270.485187 
L 544.119368 270.602951 
L 544.413439 270.942961 
L 545.589723 270.759202 
L 546.471937 270.619695 
L 547.648221 270.486273 
L 547.942292 270.654045 
L 548.236364 270.981192 
L 550.000791 270.967184 
L 550.588933 271.067987 
L 550.883004 271.06886 
L 551.471146 271.195387 
L 552.941502 271.249 
L 553.529644 271.420522 
L 555.588142 271.420502 
L 556.176285 271.264003 
L 557.352569 270.794929 
L 557.940711 270.59053 
L 558.234783 270.455272 
L 558.528854 271.00721 
L 558.822925 270.869192 
L 560.293281 268.485935 
L 561.469565 266.658414 
L 562.057708 265.972198 
L 562.939921 265.498204 
L 563.822134 265.383779 
L 564.998419 265.402184 
L 565.29249 267.152267 
L 567.645059 266.936033 
L 569.997628 266.926871 
L 571.173913 266.924883 
L 573.232411 266.881385 
L 579.407905 266.932208 
L 579.701976 267.979474 
L 586.465613 268.074664 
L 586.759684 268.742431 
L 592.052964 268.85033 
L 592.641107 269.001432 
L 593.52332 268.856195 
L 593.817391 269.176112 
L 594.405534 269.141971 
L 595.287747 268.96246 
L 596.16996 268.855126 
L 596.758103 268.624124 
L 597.346245 268.195429 
L 598.816601 267.794049 
L 604.403953 266.613881 
L 607.050593 266.449847 
L 607.344664 266.442313 
L 607.638735 265.594228 
L 611.167589 265.443271 
L 611.46166 265.350102 
L 612.049802 265.38467 
L 612.932016 265.193363 
L 614.696443 265.039893 
L 614.990514 265.272982 
L 620.577866 265.502238 
L 621.75415 265.552195 
L 622.048221 265.11236 
L 622.636364 265.124239 
L 622.636364 265.124239 
" clip-path="url(#p02088089bc)" style="fill: none; stroke: #ff7f0e; stroke-width: 1.5; stroke-linecap: square"/>
   </g>
   <g id="patch_3">
    <path d="M 90 288 
L 90 43.2 
" style="fill: none; stroke: #000000; stroke-width: 0.8; stroke-linejoin: miter; stroke-linecap: square"/>
   </g>
   <g id="patch_4">
    <path d="M 648 288 
L 648 43.2 
" style="fill: none; stroke: #000000; stroke-width: 0.8; stroke-linejoin: miter; stroke-linecap: square"/>
   </g>
   <g id="patch_5">
    <path d="M 90 288 
L 648 288 
" style="fill: none; stroke: #000000; stroke-width: 0.8; stroke-linejoin: miter; stroke-linecap: square"/>
   </g>
   <g id="patch_6">
    <path d="M 90 43.2 
L 648 43.2 
" style="fill: none; stroke: #000000; stroke-width: 0.8; stroke-linejoin: miter; stroke-linecap: square"/>
   </g>
   <g id="text_12">
    <!-- MDOT1091 -->
    <g transform="translate(335.545313 37.2) scale(0.12 -0.12)">
     <defs>
      <path id="DejaVuSans-44" d="M 1259 4147 
L 1259 519 
L 2022 519 
Q 2988 519 3436 956 
Q 3884 1394 3884 2338 
Q 3884 3275 3436 3711 
Q 2988 4147 2022 4147 
L 1259 4147 
z
M 628 4666 
L 1925 4666 
Q 3281 4666 3915 4102 
Q 4550 3538 4550 2338 
Q 4550 1131 3912 565 
Q 3275 0 1925 0 
L 628 0 
L 628 4666 
z
" transform="scale(0.015625)"/>
      <path id="DejaVuSans-4f" d="M 2522 4238 
Q 1834 4238 1429 3725 
Q 1025 3213 1025 2328 
Q 1025 1447 1429 934 
Q 1834 422 2522 422 
Q 3209 422 3611 934 
Q 4013 1447 4013 2328 
Q 4013 3213 3611 3725 
Q 3209 4238 2522 4238 
z
M 2522 4750 
Q 3503 4750 4090 4092 
Q 4678 3434 4678 2328 
Q 4678 1225 4090 567 
Q 3503 -91 2522 -91 
Q 1538 -91 948 565 
Q 359 1222 359 2328 
Q 359 3434 948 4092 
Q 1538 4750 2522 4750 
z
" transform="scale(0.015625)"/>
      <path id="DejaVuSans-54" d="M -19 4666 
L 3928 4666 
L 3928 4134 
L 2272 4134 
L 2272 0 
L 1638 0 
L 1638 4134 
L -19 4134 
L -19 4666 
z
" transform="scale(0.015625)"/>
     </defs>
     <use xlink:href="#DejaVuSans-4d"/>
     <use xlink:href="#DejaVuSans-44" x="86.279297"/>
     <use xlink:href="#DejaVuSans-4f" x="163.28125"/>
     <use xlink:href="#DejaVuSans-54" x="241.992188"/>
     <use xlink:href="#DejaVuSans-31" x="303.076172"/>
     <use xlink:href="#DejaVuSans-30" x="366.699219"/>
     <use xlink:href="#DejaVuSans-39" x="430.322266"/>
     <use xlink:href="#DejaVuSans-31" x="493.945312"/>
    </g>
   </g>
   <g id="legend_1">
    <g id="patch_7">
     <path d="M 559.04375 80.55625 
L 641 80.55625 
Q 643 80.55625 643 78.55625 
L 643 50.2 
Q 643 48.2 641 48.2 
L 559.04375 48.2 
Q 557.04375 48.2 557.04375 50.2 
L 557.04375 78.55625 
Q 557.04375 80.55625 559.04375 80.55625 
z
" style="fill: #ffffff; opacity: 0.8; stroke: #cccccc; stroke-linejoin: miter"/>
    </g>
    <g id="line2d_13">
     <path d="M 561.04375 56.298437 
L 571.04375 56.298437 
L 581.04375 56.298437 
" style="fill: none; stroke: #1f77b4; stroke-width: 1.5; stroke-linecap: square"/>
    </g>
    <g id="text_13">
     <!-- measured -->
     <g transform="translate(589.04375 59.798437) scale(0.1 -0.1)">
      <defs>
       <path id="DejaVuSans-6d" d="M 3328 2828 
Q 3544 3216 3844 3400 
Q 4144 3584 4550 3584 
Q 5097 3584 5394 3201 
Q 5691 2819 5691 2113 
L 5691 0 
L 5113 0 
L 5113 2094 
Q 5113 2597 4934 2840 
Q 4756 3084 4391 3084 
Q 3944 3084 3684 2787 
Q 3425 2491 3425 1978 
L 3425 0 
L 2847 0 
L 2847 2094 
Q 2847 2600 2669 2842 
Q 2491 3084 2119 3084 
Q 1678 3084 1418 2786 
Q 1159 2488 1159 1978 
L 1159 0 
L 581 0 
L 581 3500 
L 1159 3500 
L 1159 2956 
Q 1356 3278 1631 3431 
Q 1906 3584 2284 3584 
Q 2666 3584 2933 3390 
Q 3200 3197 3328 2828 
z
" transform="scale(0.015625)"/>
       <path id="DejaVuSans-61" d="M 2194 1759 
Q 1497 1759 1228 1600 
Q 959 1441 959 1056 
Q 959 750 1161 570 
Q 1363 391 1709 391 
Q 2188 391 2477 730 
Q 2766 1069 2766 1631 
L 2766 1759 
L 2194 1759 
z
M 3341 1997 
L 3341 0 
L 2766 0 
L 2766 531 
Q 2569 213 2275 61 
Q 1981 -91 1556 -91 
Q 1019 -91 701 211 
Q 384 513 384 1019 
Q 384 1609 779 1909 
Q 1175 2209 1959 2209 
L 2766 2209 
L 2766 2266 
Q 2766 2663 2505 2880 
Q 2244 3097 1772 3097 
Q 1472 3097 1187 3025 
Q 903 2953 641 2809 
L 641 3341 
Q 956 3463 1253 3523 
Q 1550 3584 1831 3584 
Q 2591 3584 2966 3190 
Q 3341 2797 3341 1997 
z
" transform="scale(0.015625)"/>
       <path id="DejaVuSans-75" d="M 544 1381 
L 544 3500 
L 1119 3500 
L 1119 1403 
Q 1119 906 1312 657 
Q 1506 409 1894 409 
Q 2359 409 2629 706 
Q 2900 1003 2900 1516 
L 2900 3500 
L 3475 3500 
L 3475 0 
L 2900 0 
L 2900 538 
Q 2691 219 2414 64 
Q 2138 -91 1772 -91 
Q 1169 -91 856 284 
Q 544 659 544 1381 
z
M 1991 3584 
L 1991 3584 
z
" transform="scale(0.015625)"/>
       <path id="DejaVuSans-64" d="M 2906 2969 
L 2906 4863 
L 3481 4863 
L 3481 0 
L 2906 0 
L 2906 525 
Q 2725 213 2448 61 
Q 2172 -91 1784 -91 
Q 1150 -91 751 415 
Q 353 922 353 1747 
Q 353 2572 751 3078 
Q 1150 3584 1784 3584 
Q 2172 3584 2448 3432 
Q 2725 3281 2906 2969 
z
M 947 1747 
Q 947 1113 1208 752 
Q 1469 391 1925 391 
Q 2381 391 2643 752 
Q 2906 1113 2906 1747 
Q 2906 2381 2643 2742 
Q 2381 3103 1925 3103 
Q 1469 3103 1208 2742 
Q 947 2381 947 1747 
z
" transform="scale(0.015625)"/>
      </defs>
      <use xlink:href="#DejaVuSans-6d"/>
      <use xlink:href="#DejaVuSans-65" x="97.412109"/>
      <use xlink:href="#DejaVuSans-61" x="158.935547"/>
      <use xlink:href="#DejaVuSans-73" x="220.214844"/>
      <use xlink:href="#DejaVuSans-75" x="272.314453"/>
      <use xlink:href="#DejaVuSans-72" x="335.693359"/>
      <use xlink:href="#DejaVuSans-65" x="374.556641"/>
      <use xlink:href="#DejaVuSans-64" x="436.080078"/>
     </g>
    </g>
    <g id="line2d_14">
     <path d="M 561.04375 70.976562 
L 571.04375 70.976562 
L 581.04375 70.976562 
" style="fill: none; stroke: #ff7f0e; stroke-width: 1.5; stroke-linecap: square"/>
    </g>
    <g id="text_14">
     <!-- predicted -->
     <g transform="translate(589.04375 74.476562) scale(0.1 -0.1)">
      <defs>
       <path id="DejaVuSans-70" d="M 1159 525 
L 1159 -1331 
L 581 -1331 
L 581 3500 
L 1159 3500 
L 1159 2969 
Q 1341 3281 1617 3432 
Q 1894 3584 2278 3584 
Q 2916 3584 3314 3078 
Q 3713 2572 3713 1747 
Q 3713 922 3314 415 
Q 2916 -91 2278 -91 
Q 1894 -91 1617 61 
Q 1341 213 1159 525 
z
M 3116 1747 
Q 3116 2381 2855 2742 
Q 2594 3103 2138 3103 
Q 1681 3103 1420 2742 
Q 1159 2381 1159 1747 
Q 1159 1113 1420 752 
Q 1681 391 2138 391 
Q 2594 391 2855 752 
Q 3116 1113 3116 1747 
z
" transform="scale(0.015625)"/>
       <path id="DejaVuSans-69" d="M 603 3500 
L 1178 3500 
L 1178 0 
L 603 0 
L 603 3500 
z
M 603 4863 
L 1178 4863 
L 1178 4134 
L 603 4134 
L 603 4863 
z
" transform="scale(0.015625)"/>
       <path id="DejaVuSans-63" d="M 3122 3366 
L 3122 2828 
Q 2878 2963 2633 3030 
Q 2388 3097 2138 3097 
Q 1578 3097 1268 2742 
Q 959 2388 959 1747 
Q 959 1106 1268 751 
Q 1578 397 2138 397 
Q 2388 397 2633 464 
Q 2878 531 3122 666 
L 3122 134 
Q 2881 22 2623 -34 
Q 2366 -91 2075 -91 
Q 1284 -91 818 406 
Q 353 903 353 1747 
Q 353 2603 823 3093 
Q 1294 3584 2113 3584 
Q 2378 3584 2631 3529 
Q 2884 3475 3122 3366 
z
" transform="scale(0.015625)"/>
      </defs>
      <use xlink:href="#DejaVuSans-70"/>
      <use xlink:href="#DejaVuSans-72" x="63.476562"/>
      <use xlink:href="#DejaVuSans-65" x="102.339844"/>
      <use xlink:href="#DejaVuSans-64" x="163.863281"/>
      <use xlink:href="#DejaVuSans-69" x="227.339844"/>
      <use xlink:href="#DejaVuSans-63" x="255.123047"/>
      <use xlink:href="#DejaVuSans-74" x="310.103516"/>
      <use xlink:href="#DejaVuSans-65" x="349.3125"/>
      <use xlink:href="#DejaVuSans-64" x="410.835938"/>
     </g>
    </g>
   </g>
  </g>
 </g>
 <defs>
  <clipPath id="p02088089bc">
   <rect x="90" y="43.2" width="558" height="244.8"/>
  </clipPath>
 </defs>
</svg>
