<?xml version="1.0" encoding="utf-8" standalone="no"?>
<!DOCTYPE svg PUBLIC "-//W3C//DTD SVG 1.1//EN"
  "http://www.w3.org/Graphics/SVG/1.1/DTD/svg11.dtd">
<svg xmlns:xlink="http://www.w3.org/1999/xlink" width="720pt" height="360pt" viewBox="0 0 720 360" xmlns="http://www.w3.org/2000/svg" version="1.1">
 <metadata>
  <rdf:RDF xmlns:dc="http://purl.org/dc/elements/1.1/" xmlns:cc="http://creativecommons.org/ns#" xmlns:rdf="http://www.w3.org/1999/02/22-rdf-syntax-ns#">
   <cc:Work>
    <dc:type rdf:resource="http://purl.org/dc/dcmitype/StillImage"/>
    <dc:date>2023-10-23T10:55:41.382828</dc:date>
    <dc:format>image/svg+xml</dc:format>
    <dc:creator>
     <cc:Agent>
      <dc:title>Matplotlib v3.7.1, https://matplotlib.org/</dc:title>
     </cc:Agent>
    </dc:creator>
   </cc:Work>
  </rdf:RDF>
 </metadata>
 <defs>
  <style type="text/css">*{stroke-linejoin: round; stroke-linecap: butt}</style>
 </defs>
 <g id="figure_1">
  <g id="patch_1">
   <path d="M 0 360 
L 720 360 
L 720 0 
L 0 0 
z
" style="fill: #ffffff"/>
  </g>
  <g id="axes_1">
   <g id="patch_2">
    <path d="M 90 288 
L 648 288 
L 648 43.2 
L 90 43.2 
z
" style="fill: #ffffff"/>
   </g>
   <g id="matplotlib.axis_1">
    <g id="xtick_1">
     <g id="line2d_1">
      <defs>
       <path id="m6ab579ae8d" d="M 0 0 
L 0 3.5 
" style="stroke: #000000; stroke-width: 0.8"/>
      </defs>
      <g>
       <use xlink:href="#m6ab579ae8d" x="137.688597" y="288" style="stroke: #000000; stroke-width: 0.8"/>
      </g>
     </g>
     <g id="text_1">
      <!-- 2023-09-21 -->
      <g transform="translate(76.045256 337.765903) rotate(-30) scale(0.12 -0.12)">
       <defs>
        <path id="DejaVuSans-32" d="M 1228 531 
L 3431 531 
L 3431 0 
L 469 0 
L 469 531 
Q 828 903 1448 1529 
Q 2069 2156 2228 2338 
Q 2531 2678 2651 2914 
Q 2772 3150 2772 3378 
Q 2772 3750 2511 3984 
Q 2250 4219 1831 4219 
Q 1534 4219 1204 4116 
Q 875 4013 500 3803 
L 500 4441 
Q 881 4594 1212 4672 
Q 1544 4750 1819 4750 
Q 2544 4750 2975 4387 
Q 3406 4025 3406 3419 
Q 3406 3131 3298 2873 
Q 3191 2616 2906 2266 
Q 2828 2175 2409 1742 
Q 1991 1309 1228 531 
z
" transform="scale(0.015625)"/>
        <path id="DejaVuSans-30" d="M 2034 4250 
Q 1547 4250 1301 3770 
Q 1056 3291 1056 2328 
Q 1056 1369 1301 889 
Q 1547 409 2034 409 
Q 2525 409 2770 889 
Q 3016 1369 3016 2328 
Q 3016 3291 2770 3770 
Q 2525 4250 2034 4250 
z
M 2034 4750 
Q 2819 4750 3233 4129 
Q 3647 3509 3647 2328 
Q 3647 1150 3233 529 
Q 2819 -91 2034 -91 
Q 1250 -91 836 529 
Q 422 1150 422 2328 
Q 422 3509 836 4129 
Q 1250 4750 2034 4750 
z
" transform="scale(0.015625)"/>
        <path id="DejaVuSans-33" d="M 2597 2516 
Q 3050 2419 3304 2112 
Q 3559 1806 3559 1356 
Q 3559 666 3084 287 
Q 2609 -91 1734 -91 
Q 1441 -91 1130 -33 
Q 819 25 488 141 
L 488 750 
Q 750 597 1062 519 
Q 1375 441 1716 441 
Q 2309 441 2620 675 
Q 2931 909 2931 1356 
Q 2931 1769 2642 2001 
Q 2353 2234 1838 2234 
L 1294 2234 
L 1294 2753 
L 1863 2753 
Q 2328 2753 2575 2939 
Q 2822 3125 2822 3475 
Q 2822 3834 2567 4026 
Q 2313 4219 1838 4219 
Q 1578 4219 1281 4162 
Q 984 4106 628 3988 
L 628 4550 
Q 988 4650 1302 4700 
Q 1616 4750 1894 4750 
Q 2613 4750 3031 4423 
Q 3450 4097 3450 3541 
Q 3450 3153 3228 2886 
Q 3006 2619 2597 2516 
z
" transform="scale(0.015625)"/>
        <path id="DejaVuSans-2d" d="M 313 2009 
L 1997 2009 
L 1997 1497 
L 313 1497 
L 313 2009 
z
" transform="scale(0.015625)"/>
        <path id="DejaVuSans-39" d="M 703 97 
L 703 672 
Q 941 559 1184 500 
Q 1428 441 1663 441 
Q 2288 441 2617 861 
Q 2947 1281 2994 2138 
Q 2813 1869 2534 1725 
Q 2256 1581 1919 1581 
Q 1219 1581 811 2004 
Q 403 2428 403 3163 
Q 403 3881 828 4315 
Q 1253 4750 1959 4750 
Q 2769 4750 3195 4129 
Q 3622 3509 3622 2328 
Q 3622 1225 3098 567 
Q 2575 -91 1691 -91 
Q 1453 -91 1209 -44 
Q 966 3 703 97 
z
M 1959 2075 
Q 2384 2075 2632 2365 
Q 2881 2656 2881 3163 
Q 2881 3666 2632 3958 
Q 2384 4250 1959 4250 
Q 1534 4250 1286 3958 
Q 1038 3666 1038 3163 
Q 1038 2656 1286 2365 
Q 1534 2075 1959 2075 
z
" transform="scale(0.015625)"/>
        <path id="DejaVuSans-31" d="M 794 531 
L 1825 531 
L 1825 4091 
L 703 3866 
L 703 4441 
L 1819 4666 
L 2450 4666 
L 2450 531 
L 3481 531 
L 3481 0 
L 794 0 
L 794 531 
z
" transform="scale(0.015625)"/>
       </defs>
       <use xlink:href="#DejaVuSans-32"/>
       <use xlink:href="#DejaVuSans-30" x="63.623047"/>
       <use xlink:href="#DejaVuSans-32" x="127.246094"/>
       <use xlink:href="#DejaVuSans-33" x="190.869141"/>
       <use xlink:href="#DejaVuSans-2d" x="254.492188"/>
       <use xlink:href="#DejaVuSans-30" x="290.576172"/>
       <use xlink:href="#DejaVuSans-39" x="354.199219"/>
       <use xlink:href="#DejaVuSans-2d" x="417.822266"/>
       <use xlink:href="#DejaVuSans-32" x="453.90625"/>
       <use xlink:href="#DejaVuSans-31" x="517.529297"/>
      </g>
     </g>
    </g>
    <g id="xtick_2">
     <g id="line2d_2">
      <g>
       <use xlink:href="#m6ab579ae8d" x="197.221827" y="288" style="stroke: #000000; stroke-width: 0.8"/>
      </g>
     </g>
     <g id="text_2">
      <!-- 2023-09-25 -->
      <g transform="translate(135.578485 337.765903) rotate(-30) scale(0.12 -0.12)">
       <defs>
        <path id="DejaVuSans-35" d="M 691 4666 
L 3169 4666 
L 3169 4134 
L 1269 4134 
L 1269 2991 
Q 1406 3038 1543 3061 
Q 1681 3084 1819 3084 
Q 2600 3084 3056 2656 
Q 3513 2228 3513 1497 
Q 3513 744 3044 326 
Q 2575 -91 1722 -91 
Q 1428 -91 1123 -41 
Q 819 9 494 109 
L 494 744 
Q 775 591 1075 516 
Q 1375 441 1709 441 
Q 2250 441 2565 725 
Q 2881 1009 2881 1497 
Q 2881 1984 2565 2268 
Q 2250 2553 1709 2553 
Q 1456 2553 1204 2497 
Q 953 2441 691 2322 
L 691 4666 
z
" transform="scale(0.015625)"/>
       </defs>
       <use xlink:href="#DejaVuSans-32"/>
       <use xlink:href="#DejaVuSans-30" x="63.623047"/>
       <use xlink:href="#DejaVuSans-32" x="127.246094"/>
       <use xlink:href="#DejaVuSans-33" x="190.869141"/>
       <use xlink:href="#DejaVuSans-2d" x="254.492188"/>
       <use xlink:href="#DejaVuSans-30" x="290.576172"/>
       <use xlink:href="#DejaVuSans-39" x="354.199219"/>
       <use xlink:href="#DejaVuSans-2d" x="417.822266"/>
       <use xlink:href="#DejaVuSans-32" x="453.90625"/>
       <use xlink:href="#DejaVuSans-35" x="517.529297"/>
      </g>
     </g>
    </g>
    <g id="xtick_3">
     <g id="line2d_3">
      <g>
       <use xlink:href="#m6ab579ae8d" x="256.755057" y="288" style="stroke: #000000; stroke-width: 0.8"/>
      </g>
     </g>
     <g id="text_3">
      <!-- 2023-09-29 -->
      <g transform="translate(195.111715 337.765903) rotate(-30) scale(0.12 -0.12)">
       <use xlink:href="#DejaVuSans-32"/>
       <use xlink:href="#DejaVuSans-30" x="63.623047"/>
       <use xlink:href="#DejaVuSans-32" x="127.246094"/>
       <use xlink:href="#DejaVuSans-33" x="190.869141"/>
       <use xlink:href="#DejaVuSans-2d" x="254.492188"/>
       <use xlink:href="#DejaVuSans-30" x="290.576172"/>
       <use xlink:href="#DejaVuSans-39" x="354.199219"/>
       <use xlink:href="#DejaVuSans-2d" x="417.822266"/>
       <use xlink:href="#DejaVuSans-32" x="453.90625"/>
       <use xlink:href="#DejaVuSans-39" x="517.529297"/>
      </g>
     </g>
    </g>
    <g id="xtick_4">
     <g id="line2d_4">
      <g>
       <use xlink:href="#m6ab579ae8d" x="286.521671" y="288" style="stroke: #000000; stroke-width: 0.8"/>
      </g>
     </g>
     <g id="text_4">
      <!-- 2023-10-01 -->
      <g transform="translate(224.87833 337.765903) rotate(-30) scale(0.12 -0.12)">
       <use xlink:href="#DejaVuSans-32"/>
       <use xlink:href="#DejaVuSans-30" x="63.623047"/>
       <use xlink:href="#DejaVuSans-32" x="127.246094"/>
       <use xlink:href="#DejaVuSans-33" x="190.869141"/>
       <use xlink:href="#DejaVuSans-2d" x="254.492188"/>
       <use xlink:href="#DejaVuSans-31" x="290.576172"/>
       <use xlink:href="#DejaVuSans-30" x="354.199219"/>
       <use xlink:href="#DejaVuSans-2d" x="417.822266"/>
       <use xlink:href="#DejaVuSans-30" x="453.90625"/>
       <use xlink:href="#DejaVuSans-31" x="517.529297"/>
      </g>
     </g>
    </g>
    <g id="xtick_5">
     <g id="line2d_5">
      <g>
       <use xlink:href="#m6ab579ae8d" x="346.054901" y="288" style="stroke: #000000; stroke-width: 0.8"/>
      </g>
     </g>
     <g id="text_5">
      <!-- 2023-10-05 -->
      <g transform="translate(284.411559 337.765903) rotate(-30) scale(0.12 -0.12)">
       <use xlink:href="#DejaVuSans-32"/>
       <use xlink:href="#DejaVuSans-30" x="63.623047"/>
       <use xlink:href="#DejaVuSans-32" x="127.246094"/>
       <use xlink:href="#DejaVuSans-33" x="190.869141"/>
       <use xlink:href="#DejaVuSans-2d" x="254.492188"/>
       <use xlink:href="#DejaVuSans-31" x="290.576172"/>
       <use xlink:href="#DejaVuSans-30" x="354.199219"/>
       <use xlink:href="#DejaVuSans-2d" x="417.822266"/>
       <use xlink:href="#DejaVuSans-30" x="453.90625"/>
       <use xlink:href="#DejaVuSans-35" x="517.529297"/>
      </g>
     </g>
    </g>
    <g id="xtick_6">
     <g id="line2d_6">
      <g>
       <use xlink:href="#m6ab579ae8d" x="405.588131" y="288" style="stroke: #000000; stroke-width: 0.8"/>
      </g>
     </g>
     <g id="text_6">
      <!-- 2023-10-09 -->
      <g transform="translate(343.944789 337.765903) rotate(-30) scale(0.12 -0.12)">
       <use xlink:href="#DejaVuSans-32"/>
       <use xlink:href="#DejaVuSans-30" x="63.623047"/>
       <use xlink:href="#DejaVuSans-32" x="127.246094"/>
       <use xlink:href="#DejaVuSans-33" x="190.869141"/>
       <use xlink:href="#DejaVuSans-2d" x="254.492188"/>
       <use xlink:href="#DejaVuSans-31" x="290.576172"/>
       <use xlink:href="#DejaVuSans-30" x="354.199219"/>
       <use xlink:href="#DejaVuSans-2d" x="417.822266"/>
       <use xlink:href="#DejaVuSans-30" x="453.90625"/>
       <use xlink:href="#DejaVuSans-39" x="517.529297"/>
      </g>
     </g>
    </g>
    <g id="xtick_7">
     <g id="line2d_7">
      <g>
       <use xlink:href="#m6ab579ae8d" x="465.12136" y="288" style="stroke: #000000; stroke-width: 0.8"/>
      </g>
     </g>
     <g id="text_7">
      <!-- 2023-10-13 -->
      <g transform="translate(403.478019 337.765903) rotate(-30) scale(0.12 -0.12)">
       <use xlink:href="#DejaVuSans-32"/>
       <use xlink:href="#DejaVuSans-30" x="63.623047"/>
       <use xlink:href="#DejaVuSans-32" x="127.246094"/>
       <use xlink:href="#DejaVuSans-33" x="190.869141"/>
       <use xlink:href="#DejaVuSans-2d" x="254.492188"/>
       <use xlink:href="#DejaVuSans-31" x="290.576172"/>
       <use xlink:href="#DejaVuSans-30" x="354.199219"/>
       <use xlink:href="#DejaVuSans-2d" x="417.822266"/>
       <use xlink:href="#DejaVuSans-31" x="453.90625"/>
       <use xlink:href="#DejaVuSans-33" x="517.529297"/>
      </g>
     </g>
    </g>
    <g id="xtick_8">
     <g id="line2d_8">
      <g>
       <use xlink:href="#m6ab579ae8d" x="524.65459" y="288" style="stroke: #000000; stroke-width: 0.8"/>
      </g>
     </g>
     <g id="text_8">
      <!-- 2023-10-17 -->
      <g transform="translate(463.011248 337.765903) rotate(-30) scale(0.12 -0.12)">
       <defs>
        <path id="DejaVuSans-37" d="M 525 4666 
L 3525 4666 
L 3525 4397 
L 1831 0 
L 1172 0 
L 2766 4134 
L 525 4134 
L 525 4666 
z
" transform="scale(0.015625)"/>
       </defs>
       <use xlink:href="#DejaVuSans-32"/>
       <use xlink:href="#DejaVuSans-30" x="63.623047"/>
       <use xlink:href="#DejaVuSans-32" x="127.246094"/>
       <use xlink:href="#DejaVuSans-33" x="190.869141"/>
       <use xlink:href="#DejaVuSans-2d" x="254.492188"/>
       <use xlink:href="#DejaVuSans-31" x="290.576172"/>
       <use xlink:href="#DejaVuSans-30" x="354.199219"/>
       <use xlink:href="#DejaVuSans-2d" x="417.822266"/>
       <use xlink:href="#DejaVuSans-31" x="453.90625"/>
       <use xlink:href="#DejaVuSans-37" x="517.529297"/>
      </g>
     </g>
    </g>
    <g id="xtick_9">
     <g id="line2d_9">
      <g>
       <use xlink:href="#m6ab579ae8d" x="584.18782" y="288" style="stroke: #000000; stroke-width: 0.8"/>
      </g>
     </g>
     <g id="text_9">
      <!-- 2023-10-21 -->
      <g transform="translate(522.544478 337.765903) rotate(-30) scale(0.12 -0.12)">
       <use xlink:href="#DejaVuSans-32"/>
       <use xlink:href="#DejaVuSans-30" x="63.623047"/>
       <use xlink:href="#DejaVuSans-32" x="127.246094"/>
       <use xlink:href="#DejaVuSans-33" x="190.869141"/>
       <use xlink:href="#DejaVuSans-2d" x="254.492188"/>
       <use xlink:href="#DejaVuSans-31" x="290.576172"/>
       <use xlink:href="#DejaVuSans-30" x="354.199219"/>
       <use xlink:href="#DejaVuSans-2d" x="417.822266"/>
       <use xlink:href="#DejaVuSans-32" x="453.90625"/>
       <use xlink:href="#DejaVuSans-31" x="517.529297"/>
      </g>
     </g>
    </g>
    <g id="xtick_10">
     <g id="line2d_10">
      <g>
       <use xlink:href="#m6ab579ae8d" x="643.721049" y="288" style="stroke: #000000; stroke-width: 0.8"/>
      </g>
     </g>
     <g id="text_10">
      <!-- 2023-10-25 -->
      <g transform="translate(582.077707 337.765903) rotate(-30) scale(0.12 -0.12)">
       <use xlink:href="#DejaVuSans-32"/>
       <use xlink:href="#DejaVuSans-30" x="63.623047"/>
       <use xlink:href="#DejaVuSans-32" x="127.246094"/>
       <use xlink:href="#DejaVuSans-33" x="190.869141"/>
       <use xlink:href="#DejaVuSans-2d" x="254.492188"/>
       <use xlink:href="#DejaVuSans-31" x="290.576172"/>
       <use xlink:href="#DejaVuSans-30" x="354.199219"/>
       <use xlink:href="#DejaVuSans-2d" x="417.822266"/>
       <use xlink:href="#DejaVuSans-32" x="453.90625"/>
       <use xlink:href="#DejaVuSans-35" x="517.529297"/>
      </g>
     </g>
    </g>
   </g>
   <g id="matplotlib.axis_2">
    <g id="ytick_1">
     <g id="line2d_11">
      <defs>
       <path id="ma65f6c129f" d="M 0 0 
L -3.5 0 
" style="stroke: #000000; stroke-width: 0.8"/>
      </defs>
      <g>
       <use xlink:href="#ma65f6c129f" x="90" y="263.135052" style="stroke: #000000; stroke-width: 0.8"/>
      </g>
     </g>
     <g id="text_11">
      <!-- 1.1 -->
      <g transform="translate(63.91625 267.694115) scale(0.12 -0.12)">
       <defs>
        <path id="DejaVuSans-2e" d="M 684 794 
L 1344 794 
L 1344 0 
L 684 0 
L 684 794 
z
" transform="scale(0.015625)"/>
       </defs>
       <use xlink:href="#DejaVuSans-31"/>
       <use xlink:href="#DejaVuSans-2e" x="63.623047"/>
       <use xlink:href="#DejaVuSans-31" x="95.410156"/>
      </g>
     </g>
    </g>
    <g id="ytick_2">
     <g id="line2d_12">
      <g>
       <use xlink:href="#ma65f6c129f" x="90" y="221.086826" style="stroke: #000000; stroke-width: 0.8"/>
      </g>
     </g>
     <g id="text_12">
      <!-- 1.2 -->
      <g transform="translate(63.91625 225.645888) scale(0.12 -0.12)">
       <use xlink:href="#DejaVuSans-31"/>
       <use xlink:href="#DejaVuSans-2e" x="63.623047"/>
       <use xlink:href="#DejaVuSans-32" x="95.410156"/>
      </g>
     </g>
    </g>
    <g id="ytick_3">
     <g id="line2d_13">
      <g>
       <use xlink:href="#ma65f6c129f" x="90" y="179.038599" style="stroke: #000000; stroke-width: 0.8"/>
      </g>
     </g>
     <g id="text_13">
      <!-- 1.3 -->
      <g transform="translate(63.91625 183.597662) scale(0.12 -0.12)">
       <use xlink:href="#DejaVuSans-31"/>
       <use xlink:href="#DejaVuSans-2e" x="63.623047"/>
       <use xlink:href="#DejaVuSans-33" x="95.410156"/>
      </g>
     </g>
    </g>
    <g id="ytick_4">
     <g id="line2d_14">
      <g>
       <use xlink:href="#ma65f6c129f" x="90" y="136.990372" style="stroke: #000000; stroke-width: 0.8"/>
      </g>
     </g>
     <g id="text_14">
      <!-- 1.4 -->
      <g transform="translate(63.91625 141.549435) scale(0.12 -0.12)">
       <defs>
        <path id="DejaVuSans-34" d="M 2419 4116 
L 825 1625 
L 2419 1625 
L 2419 4116 
z
M 2253 4666 
L 3047 4666 
L 3047 1625 
L 3713 1625 
L 3713 1100 
L 3047 1100 
L 3047 0 
L 2419 0 
L 2419 1100 
L 313 1100 
L 313 1709 
L 2253 4666 
z
" transform="scale(0.015625)"/>
       </defs>
       <use xlink:href="#DejaVuSans-31"/>
       <use xlink:href="#DejaVuSans-2e" x="63.623047"/>
       <use xlink:href="#DejaVuSans-34" x="95.410156"/>
      </g>
     </g>
    </g>
    <g id="ytick_5">
     <g id="line2d_15">
      <g>
       <use xlink:href="#ma65f6c129f" x="90" y="94.942146" style="stroke: #000000; stroke-width: 0.8"/>
      </g>
     </g>
     <g id="text_15">
      <!-- 1.5 -->
      <g transform="translate(63.91625 99.501208) scale(0.12 -0.12)">
       <use xlink:href="#DejaVuSans-31"/>
       <use xlink:href="#DejaVuSans-2e" x="63.623047"/>
       <use xlink:href="#DejaVuSans-35" x="95.410156"/>
      </g>
     </g>
    </g>
    <g id="ytick_6">
     <g id="line2d_16">
      <g>
       <use xlink:href="#ma65f6c129f" x="90" y="52.893919" style="stroke: #000000; stroke-width: 0.8"/>
      </g>
     </g>
     <g id="text_16">
      <!-- 1.6 -->
      <g transform="translate(63.91625 57.452982) scale(0.12 -0.12)">
       <defs>
        <path id="DejaVuSans-36" d="M 2113 2584 
Q 1688 2584 1439 2293 
Q 1191 2003 1191 1497 
Q 1191 994 1439 701 
Q 1688 409 2113 409 
Q 2538 409 2786 701 
Q 3034 994 3034 1497 
Q 3034 2003 2786 2293 
Q 2538 2584 2113 2584 
z
M 3366 4563 
L 3366 3988 
Q 3128 4100 2886 4159 
Q 2644 4219 2406 4219 
Q 1781 4219 1451 3797 
Q 1122 3375 1075 2522 
Q 1259 2794 1537 2939 
Q 1816 3084 2150 3084 
Q 2853 3084 3261 2657 
Q 3669 2231 3669 1497 
Q 3669 778 3244 343 
Q 2819 -91 2113 -91 
Q 1303 -91 875 529 
Q 447 1150 447 2328 
Q 447 3434 972 4092 
Q 1497 4750 2381 4750 
Q 2619 4750 2861 4703 
Q 3103 4656 3366 4563 
z
" transform="scale(0.015625)"/>
       </defs>
       <use xlink:href="#DejaVuSans-31"/>
       <use xlink:href="#DejaVuSans-2e" x="63.623047"/>
       <use xlink:href="#DejaVuSans-36" x="95.410156"/>
      </g>
     </g>
    </g>
    <g id="text_17">
     <!-- Meters -->
     <g transform="translate(57.836562 182.6875) rotate(-90) scale(0.1 -0.1)">
      <defs>
       <path id="DejaVuSans-4d" d="M 628 4666 
L 1569 4666 
L 2759 1491 
L 3956 4666 
L 4897 4666 
L 4897 0 
L 4281 0 
L 4281 4097 
L 3078 897 
L 2444 897 
L 1241 4097 
L 1241 0 
L 628 0 
L 628 4666 
z
" transform="scale(0.015625)"/>
       <path id="DejaVuSans-65" d="M 3597 1894 
L 3597 1613 
L 953 1613 
Q 991 1019 1311 708 
Q 1631 397 2203 397 
Q 2534 397 2845 478 
Q 3156 559 3463 722 
L 3463 178 
Q 3153 47 2828 -22 
Q 2503 -91 2169 -91 
Q 1331 -91 842 396 
Q 353 884 353 1716 
Q 353 2575 817 3079 
Q 1281 3584 2069 3584 
Q 2775 3584 3186 3129 
Q 3597 2675 3597 1894 
z
M 3022 2063 
Q 3016 2534 2758 2815 
Q 2500 3097 2075 3097 
Q 1594 3097 1305 2825 
Q 1016 2553 972 2059 
L 3022 2063 
z
" transform="scale(0.015625)"/>
       <path id="DejaVuSans-74" d="M 1172 4494 
L 1172 3500 
L 2356 3500 
L 2356 3053 
L 1172 3053 
L 1172 1153 
Q 1172 725 1289 603 
Q 1406 481 1766 481 
L 2356 481 
L 2356 0 
L 1766 0 
Q 1100 0 847 248 
Q 594 497 594 1153 
L 594 3053 
L 172 3053 
L 172 3500 
L 594 3500 
L 594 4494 
L 1172 4494 
z
" transform="scale(0.015625)"/>
       <path id="DejaVuSans-72" d="M 2631 2963 
Q 2534 3019 2420 3045 
Q 2306 3072 2169 3072 
Q 1681 3072 1420 2755 
Q 1159 2438 1159 1844 
L 1159 0 
L 581 0 
L 581 3500 
L 1159 3500 
L 1159 2956 
Q 1341 3275 1631 3429 
Q 1922 3584 2338 3584 
Q 2397 3584 2469 3576 
Q 2541 3569 2628 3553 
L 2631 2963 
z
" transform="scale(0.015625)"/>
       <path id="DejaVuSans-73" d="M 2834 3397 
L 2834 2853 
Q 2591 2978 2328 3040 
Q 2066 3103 1784 3103 
Q 1356 3103 1142 2972 
Q 928 2841 928 2578 
Q 928 2378 1081 2264 
Q 1234 2150 1697 2047 
L 1894 2003 
Q 2506 1872 2764 1633 
Q 3022 1394 3022 966 
Q 3022 478 2636 193 
Q 2250 -91 1575 -91 
Q 1294 -91 989 -36 
Q 684 19 347 128 
L 347 722 
Q 666 556 975 473 
Q 1284 391 1588 391 
Q 1994 391 2212 530 
Q 2431 669 2431 922 
Q 2431 1156 2273 1281 
Q 2116 1406 1581 1522 
L 1381 1569 
Q 847 1681 609 1914 
Q 372 2147 372 2553 
Q 372 3047 722 3315 
Q 1072 3584 1716 3584 
Q 2034 3584 2315 3537 
Q 2597 3491 2834 3397 
z
" transform="scale(0.015625)"/>
      </defs>
      <use xlink:href="#DejaVuSans-4d"/>
      <use xlink:href="#DejaVuSans-65" x="86.279297"/>
      <use xlink:href="#DejaVuSans-74" x="147.802734"/>
      <use xlink:href="#DejaVuSans-65" x="187.011719"/>
      <use xlink:href="#DejaVuSans-72" x="248.535156"/>
      <use xlink:href="#DejaVuSans-73" x="289.648438"/>
     </g>
    </g>
   </g>
   <g id="line2d_17">
    <path d="M 115.363636 133.287639 
L 115.983774 133.567889 
L 116.603912 135.0392 
L 117.844188 143.586818 
L 118.464325 143.09638 
L 119.084463 145.618628 
L 120.324739 145.688691 
L 120.944877 146.739627 
L 121.565014 143.797005 
L 122.185152 144.287442 
L 122.80529 143.726942 
L 123.425428 144.147317 
L 124.045566 143.516755 
L 124.665703 144.357504 
L 125.285841 145.898878 
L 125.905979 145.058129 
L 126.526117 144.847941 
L 127.146255 145.828815 
L 127.766393 146.039003 
L 128.38653 147.160002 
L 129.006668 148.911563 
L 129.626806 149.612187 
L 130.246944 148.701375 
L 130.867082 148.631313 
L 131.487219 152.905122 
L 132.107357 152.344622 
L 132.727495 152.484747 
L 133.347633 159.841303 
L 133.967771 158.01968 
L 135.208046 161.312614 
L 135.828184 160.822177 
L 136.448322 167.478109 
L 137.688597 158.790366 
L 138.308735 158.089742 
L 138.928873 156.828618 
L 139.549011 156.688493 
L 140.169149 157.108868 
L 140.789287 156.688493 
L 141.409424 155.847744 
L 142.029562 156.127994 
L 142.6497 154.796807 
L 143.269838 154.86687 
L 143.889976 156.268119 
L 144.510113 156.548368 
L 145.750389 155.427369 
L 146.370527 155.469407 
L 146.990665 160.822177 
L 147.610802 164.675611 
L 148.23094 166.35711 
L 148.851078 166.427172 
L 149.471216 167.548171 
L 150.091354 166.777484 
L 150.711491 167.898483 
L 151.331629 171.191418 
L 151.951767 167.828421 
L 152.571905 163.694737 
L 153.192043 161.803051 
L 154.432318 162.573738 
L 155.052456 162.083301 
L 155.672594 162.868 
L 156.292732 163.274362 
L 156.91287 163.414487 
L 157.533007 163.274362 
L 158.153145 163.694737 
L 158.773283 163.414487 
L 160.013559 161.943176 
L 160.633696 160.61199 
L 161.253834 161.732989 
L 161.873972 165.166048 
L 162.49411 170.210544 
L 163.114248 169.860231 
L 163.734385 170.700981 
L 164.354523 171.051293 
L 164.974661 170.771043 
L 165.594799 164.115112 
L 166.214937 165.656485 
L 166.835074 166.315072 
L 167.455212 164.045049 
L 168.07535 162.503676 
L 168.695488 162.92405 
L 169.315626 167.057734 
L 169.935764 167.548171 
L 170.555901 169.159607 
L 171.176039 169.790169 
L 171.796177 172.942979 
L 172.416315 172.102229 
L 173.036453 172.942979 
L 173.65659 171.82198 
L 174.276728 171.191418 
L 176.137142 163.344425 
L 176.757279 166.987671 
L 177.377417 173.713665 
L 177.997555 172.942979 
L 179.237831 173.293291 
L 179.857968 172.872916 
L 180.478106 173.293291 
L 181.098244 175.114914 
L 181.718382 172.872916 
L 182.33852 164.535486 
L 182.958657 162.853988 
L 183.578795 156.338181 
L 184.198933 155.497432 
L 184.819071 156.968743 
L 185.439209 156.898681 
L 186.059347 154.936932 
L 186.679484 154.936932 
L 187.299622 153.956058 
L 187.91976 154.30637 
L 188.539898 152.134435 
L 189.160036 154.166245 
L 189.780173 150.312811 
L 190.400311 148.631313 
L 191.020449 147.860626 
L 191.640587 150.803249 
L 192.260725 157.809492 
L 192.880862 157.73943 
L 193.501 157.108868 
L 194.121138 159.911365 
L 194.741276 159.911365 
L 195.361414 162.615775 
L 195.981551 161.803051 
L 196.601689 158.159804 
L 197.221827 155.497432 
L 197.841965 154.58662 
L 198.462103 152.624872 
L 199.08224 151.854185 
L 199.702378 150.522999 
L 200.322516 150.593061 
L 200.942654 152.27456 
L 201.562792 151.153561 
L 202.18293 151.013436 
L 203.423205 151.854185 
L 204.043343 151.784123 
L 204.663481 152.414685 
L 205.283619 152.204497 
L 205.903756 154.446495 
L 206.523894 157.319055 
L 207.144032 159.000554 
L 207.76417 159.77124 
L 208.384308 159.070616 
L 209.004445 159.911365 
L 209.624583 159.280803 
L 210.244721 159.140679 
L 210.864859 161.032364 
L 211.484997 156.057931 
L 212.105134 158.580179 
L 212.725272 160.05149 
L 213.34541 160.541927 
L 213.965548 162.083301 
L 214.585686 164.255236 
L 215.205824 165.586423 
L 215.825961 167.197859 
L 216.446099 166.777484 
L 217.066237 168.809295 
L 217.686375 167.057734 
L 218.306513 168.94942 
L 218.92665 170.350668 
L 219.546788 170.070419 
L 220.166926 170.490793 
L 220.787064 171.26148 
L 221.407202 171.54173 
L 222.027339 173.153166 
L 222.647477 176.025726 
L 223.267615 173.85379 
L 223.887753 175.535289 
L 224.507891 176.025726 
L 225.128028 177.216787 
L 225.748166 177.777287 
L 226.368304 178.968348 
L 226.988442 179.038411 
L 227.60858 179.31866 
L 228.228717 180.355584 
L 228.848855 179.809097 
L 229.468993 178.828223 
L 230.089131 179.59891 
L 230.709269 179.528848 
L 231.329407 181.490596 
L 231.949544 180.15941 
L 232.569682 180.299535 
L 233.18982 180.719909 
L 233.809958 183.592469 
L 234.430096 180.860034 
L 235.050233 182.051095 
L 235.670371 182.75172 
L 236.290509 182.611595 
L 236.910647 183.102032 
L 237.530785 184.012844 
L 238.150922 184.503281 
L 238.77106 183.522407 
L 239.391198 185.133843 
L 240.011336 182.891845 
L 240.631474 182.611595 
L 241.251611 183.452344 
L 241.871749 183.172094 
L 242.491887 183.03197 
L 243.112025 182.121158 
L 243.732163 182.611595 
L 244.352301 182.75172 
L 244.972438 183.172094 
L 245.592576 182.331345 
L 246.212714 182.401408 
L 246.832852 181.210346 
L 247.45299 182.75172 
L 248.073127 182.47147 
L 248.693265 182.961907 
L 249.313403 183.03197 
L 249.933541 182.331345 
L 250.553679 182.75172 
L 251.173816 184.713468 
L 251.793954 184.573343 
L 252.414092 183.172094 
L 253.03423 184.012844 
L 253.654368 181.840908 
L 254.274505 182.401408 
L 254.894643 181.420534 
L 255.514781 179.31866 
L 256.134919 178.968348 
L 256.755057 177.847349 
L 257.375194 177.076662 
L 257.995332 175.184977 
L 258.61547 174.274165 
L 259.235608 174.13404 
L 261.096021 170.560856 
L 261.716159 170.490793 
L 262.956435 167.197859 
L 263.576573 166.847547 
L 264.19671 166.35711 
L 264.816848 164.745673 
L 265.436986 164.605549 
L 266.057124 165.586423 
L 266.677262 166.146922 
L 267.297399 166.427172 
L 267.917537 164.465424 
L 268.537675 161.592864 
L 269.157813 160.822177 
L 269.777951 157.529242 
L 271.638364 151.71406 
L 272.258502 148.771438 
L 272.87864 149.051688 
L 273.498778 147.720501 
L 274.118915 146.669565 
L 274.739053 146.319253 
L 275.979329 143.236505 
L 276.599467 141.274757 
L 277.219604 141.905319 
L 278.45988 139.803446 
L 279.080018 137.491385 
L 279.700156 135.879949 
L 280.320293 132.376828 
L 280.940431 135.669762 
L 281.560569 141.204695 
L 282.180707 142.465819 
L 282.800845 144.567692 
L 283.420982 145.408441 
L 284.661258 148.561251 
L 285.281396 152.624872 
L 285.901534 141.204695 
L 287.141809 133.497827 
L 287.761947 133.287639 
L 288.382085 132.72714 
L 289.002223 131.325891 
L 289.622361 132.376828 
L 290.242498 131.115704 
L 290.862636 131.325891 
L 291.482774 131.395953 
L 292.102912 132.306765 
L 292.72305 133.567889 
L 293.343187 132.096578 
L 293.963325 131.746266 
L 294.583463 129.013831 
L 295.203601 126.98202 
L 296.443876 138.332135 
L 297.064014 139.172884 
L 298.30429 143.306568 
L 298.924428 146.319253 
L 299.544565 148.561251 
L 300.164703 154.516558 
L 300.784841 143.867067 
L 301.404979 140.293883 
L 302.025117 138.542322 
L 302.645255 137.841698 
L 303.265392 138.121947 
L 303.88553 138.612384 
L 304.505668 139.383071 
L 305.125806 138.962697 
L 305.745944 138.19201 
L 306.366081 139.663321 
L 306.986219 139.102822 
L 308.226495 141.414882 
L 308.846633 141.134632 
L 309.46677 139.593259 
L 310.086908 136.650636 
L 310.707046 139.032759 
L 311.327184 146.739627 
L 311.947322 148.070813 
L 312.567459 150.102624 
L 313.807735 155.427369 
L 314.427873 161.102427 
L 315.048011 164.395361 
L 315.668148 153.956058 
L 316.288286 147.930689 
L 316.908424 146.459377 
L 317.528562 146.599502 
L 318.1487 145.688691 
L 318.768838 146.599502 
L 319.388975 145.898878 
L 320.009113 145.548566 
L 320.629251 148.000751 
L 321.249389 148.771438 
L 321.869527 148.701375 
L 322.489664 149.68225 
L 323.109802 148.911563 
L 323.72994 147.019877 
L 324.350078 146.389315 
L 324.970216 142.535881 
L 325.590353 145.478503 
L 326.210491 150.004537 
L 326.830629 152.27456 
L 327.450767 155.74265 
L 328.070905 156.338181 
L 328.691042 162.783925 
L 329.31118 160.61199 
L 329.931318 169.720107 
L 330.551456 160.33174 
L 331.171594 155.217182 
L 331.791731 151.784123 
L 332.411869 150.172687 
L 333.032007 151.784123 
L 333.652145 151.43381 
L 334.272283 148.631313 
L 334.892421 147.089939 
L 335.512558 147.790564 
L 336.132696 149.472062 
L 336.752834 149.051688 
L 337.372972 150.663124 
L 337.99311 151.153561 
L 338.613247 149.331937 
L 339.233385 148.140876 
L 339.853523 148.351063 
L 340.473661 152.064372 
L 341.093799 153.956058 
L 341.713936 155.217182 
L 342.334074 155.385332 
L 343.57435 158.089742 
L 344.194488 163.939955 
L 344.814625 165.236111 
L 345.434763 163.414487 
L 346.054901 158.580179 
L 346.675039 152.554809 
L 347.295177 151.643998 
L 347.915315 155.217182 
L 348.535452 154.86687 
L 349.15559 155.567494 
L 349.775728 155.497432 
L 350.395866 156.127994 
L 351.016004 155.077057 
L 351.636141 155.14712 
L 352.256279 156.268119 
L 352.876417 156.688493 
L 353.496555 153.185371 
L 354.116693 153.045247 
L 354.73683 151.784123 
L 355.356968 108.835849 
L 355.977106 148.070813 
L 356.597244 150.256762 
L 357.837519 143.726942 
L 358.457657 142.325694 
L 359.077795 138.402197 
L 359.697933 236.629734 
L 360.318071 136.020074 
L 360.938208 134.058326 
L 362.178484 121.587212 
L 362.798622 113.249782 
L 364.659035 94.963486 
L 365.279173 90.75974 
L 365.899311 90.549553 
L 366.519449 90.689678 
L 367.139587 90.969927 
L 367.759724 89.778866 
L 368.379862 89.428554 
L 369 88.377617 
L 369.620138 88.727929 
L 370.240276 92.931676 
L 371.480551 95.804235 
L 372.100689 95.103611 
L 372.720827 94.052675 
L 373.340965 93.842487 
L 373.961102 94.473049 
L 374.58124 93.141863 
L 375.201378 92.301114 
L 375.821516 91.180115 
L 376.441654 88.938117 
L 377.061792 89.288429 
L 377.681929 86.485931 
L 378.302067 86.976368 
L 378.922205 86.135619 
L 379.542343 84.73437 
L 380.162481 84.384058 
L 380.782618 83.753496 
L 381.402756 81.931873 
L 382.022894 81.371373 
L 382.643032 82.562435 
L 383.26317 82.001935 
L 383.883307 80.250374 
L 384.503445 82.001935 
L 385.743721 83.963684 
L 386.363859 81.931873 
L 386.983996 81.091124 
L 387.604134 81.721686 
L 388.224272 84.313996 
L 388.84441 81.231249 
L 389.464548 82.071998 
L 390.084685 77.728127 
L 408.68882 59.792143 
L 409.308958 61.403579 
L 409.929095 60.773017 
L 410.549233 59.231643 
L 411.169371 58.250769 
L 411.789509 58.320832 
L 412.409647 60.142455 
L 413.649922 54.327273 
L 414.890198 59.792143 
L 415.510336 61.473641 
L 416.130473 62.384453 
L 416.750611 67.849323 
L 417.370749 67.919386 
L 417.990887 75.275941 
L 418.611025 81.161186 
L 419.231162 84.454121 
L 419.8513 84.384058 
L 420.471438 88.938117 
L 421.091576 91.600489 
L 421.711714 93.422113 
L 422.331852 97.695921 
L 422.951989 98.396546 
L 423.572127 101.058918 
L 424.192265 102.390105 
L 424.812403 101.058918 
L 425.432541 101.759543 
L 426.052678 100.568481 
L 426.672816 101.40923 
L 427.913092 99.09717 
L 428.53323 96.715047 
L 429.153367 97.765984 
L 429.773505 96.925234 
L 430.393643 94.893424 
L 431.013781 94.262862 
L 431.633919 93.141863 
L 432.254056 91.320239 
L 432.874194 87.60693 
L 433.494332 86.555994 
L 434.734608 82.492372 
L 435.354745 79.129375 
L 435.974883 76.607128 
L 436.595021 73.454318 
L 437.215159 71.562632 
L 437.835297 70.651821 
L 438.455435 69.180509 
L 439.075572 69.110447 
L 439.69571 68.479885 
L 440.315848 68.409823 
L 440.935986 70.651821 
L 441.556124 71.983007 
L 442.176261 74.014818 
L 442.796399 74.154942 
L 443.416537 75.626254 
L 444.036675 76.116691 
L 444.656813 78.498814 
L 445.27695 78.779063 
L 445.897088 81.721686 
L 447.137364 84.874495 
L 447.757502 86.626056 
L 448.377639 87.186556 
L 448.997777 88.097367 
L 449.617915 89.288429 
L 450.238053 88.587804 
L 450.858191 88.938117 
L 452.098466 93.211925 
L 452.718604 94.262862 
L 453.338742 95.033549 
L 453.95888 96.364735 
L 454.579018 95.734173 
L 455.199155 96.574922 
L 455.819293 96.574922 
L 456.439431 98.186358 
L 457.059569 97.976171 
L 458.299844 98.53667 
L 458.919982 98.53667 
L 460.160258 109.956848 
L 460.780396 110.867659 
L 461.400533 113.530032 
L 462.020671 113.389907 
L 462.640809 111.638346 
L 463.260947 109.326286 
L 463.881085 110.02691 
L 464.501222 108.135224 
L 465.741498 108.135224 
L 466.981774 110.237097 
L 467.601912 111.288034 
L 468.222049 111.428159 
L 468.842187 111.147909 
L 469.462325 110.167035 
L 470.082463 110.58741 
L 471.322738 110.867659 
L 471.942876 111.918596 
L 472.563014 111.848534 
L 473.183152 113.109657 
L 473.80329 113.389907 
L 474.423427 114.370781 
L 475.043565 114.580969 
L 475.663703 114.651031 
L 476.283841 115.211531 
L 476.903979 116.752904 
L 477.524116 117.313404 
L 478.144254 117.383466 
L 478.764392 116.542717 
L 479.38453 115.982217 
L 480.004668 116.33253 
L 480.624806 116.122342 
L 481.244943 115.351655 
L 481.865081 113.880344 
L 482.485219 113.109657 
L 483.105357 113.389907 
L 483.725495 113.249782 
L 484.345632 113.389907 
L 484.96577 114.651031 
L 486.206046 113.950407 
L 486.826184 114.931281 
L 487.446321 113.810282 
L 488.066459 114.090532 
L 488.686597 114.160594 
L 489.306735 113.17972 
L 489.926873 111.498221 
L 490.54701 111.428159 
L 491.167148 110.867659 
L 491.787286 109.466411 
L 492.407424 112.058721 
L 493.027562 112.479095 
L 493.647699 112.128783 
L 494.267837 110.447285 
L 494.887975 110.30716 
L 495.508113 109.116098 
L 496.128251 108.625661 
L 496.748389 108.625661 
L 497.368526 105.823164 
L 497.988664 106.523788 
L 498.608802 106.523788 
L 499.22894 105.893226 
L 499.849078 103.511104 
L 500.469215 103.441041 
L 501.089353 102.320042 
L 501.709491 99.657669 
L 502.949767 99.447482 
L 503.569904 101.339168 
L 504.190042 105.542914 
L 504.81018 102.390105 
L 505.430318 101.199043 
L 506.050456 102.670354 
L 506.670593 102.600292 
L 507.290731 102.740417 
L 507.910869 101.199043 
L 508.531007 100.358294 
L 509.151145 100.218169 
L 510.39142 97.205484 
L 511.011558 96.22461 
L 511.631696 94.753299 
L 512.251834 95.103611 
L 512.871972 94.893424 
L 514.112247 93.422113 
L 514.732385 93.141863 
L 515.352523 92.441238 
L 515.972661 91.03999 
L 516.592798 90.969927 
L 517.212936 91.320239 
L 517.833074 90.829802 
L 518.453212 91.250177 
L 519.07335 90.829802 
L 519.693487 91.180115 
L 520.933763 91.110052 
L 521.553901 90.409428 
L 522.174039 90.269303 
L 522.794176 89.708803 
L 523.414314 88.587804 
L 524.034452 86.696119 
L 524.65459 86.485931 
L 525.274728 88.517742 
L 525.894866 85.01462 
L 526.515003 83.893621 
L 527.135141 83.753496 
L 527.755279 83.263059 
L 528.375417 83.473247 
L 528.995555 82.70256 
L 529.615692 82.492372 
L 530.23583 81.441436 
L 530.855968 80.880936 
L 531.476106 80.040187 
L 532.096244 79.970125 
L 532.716381 79.339563 
L 533.336519 79.83 
L 534.576795 81.231249 
L 535.196933 81.301311 
L 535.81707 82.492372 
L 536.437208 82.352248 
L 537.057346 82.562435 
L 537.677484 82.492372 
L 538.297622 81.511498 
L 538.91776 81.161186 
L 539.537897 78.568876 
L 540.158035 79.619812 
L 540.778173 81.021061 
L 541.398311 79.83 
L 542.018449 80.950999 
L 542.638586 77.517939 
L 543.258724 76.607128 
L 543.878862 76.607128 
L 544.499 78.638938 
L 545.119138 79.409625 
L 545.739275 77.938314 
L 546.359413 78.709001 
L 546.979551 78.428751 
L 547.599689 78.008376 
L 548.219827 79.199438 
L 548.839964 82.42231 
L 549.460102 87.116493 
L 550.08024 87.186556 
L 550.700378 87.466805 
L 551.320516 86.135619 
L 551.940653 86.065557 
L 552.560791 86.696119 
L 553.180929 85.434995 
L 553.801067 85.29487 
L 554.421205 83.403184 
L 555.041343 84.804433 
L 555.66148 82.212123 
L 556.281618 84.033746 
L 556.901756 83.823559 
L 557.521894 85.224807 
L 558.762169 84.874495 
L 559.382307 86.275744 
L 560.002445 88.16743 
L 560.622583 87.88718 
L 561.242721 88.938117 
L 561.862858 89.358491 
L 563.103134 91.390302 
L 563.723272 91.880739 
L 564.34341 91.460364 
L 564.963547 92.581363 
L 565.583685 92.791551 
L 566.203823 92.441238 
L 566.823961 92.721488 
L 567.444099 91.460364 
L 568.064236 91.530427 
L 568.684374 90.689678 
L 569.304512 91.320239 
L 569.92465 91.600489 
L 570.544788 89.918991 
L 571.164926 89.989053 
L 571.785063 90.19924 
L 572.405201 90.059116 
L 573.025339 90.829802 
L 573.645477 90.059116 
L 574.265615 90.059116 
L 574.885752 88.868054 
L 575.50589 88.657867 
L 576.126028 89.218366 
L 576.746166 85.995494 
L 577.366304 84.594246 
L 577.986441 86.065557 
L 578.606579 86.345806 
L 579.226717 86.065557 
L 579.846855 83.122934 
L 580.466993 82.912747 
L 581.08713 81.301311 
L 581.707268 80.040187 
L 582.947544 80.390499 
L 583.567682 80.320437 
L 584.18782 79.479688 
L 584.807957 79.970125 
L 585.428095 78.989251 
L 586.048233 78.989251 
L 586.668371 78.849126 
L 587.288509 77.588002 
L 587.908646 77.517939 
L 589.148922 75.556191 
L 590.389198 77.798189 
L 591.009335 75.906503 
L 591.629473 75.275941 
L 592.249611 73.594443 
L 592.869749 74.505255 
L 593.489887 77.167627 
L 594.110024 76.607128 
L 594.730162 79.059313 
L 595.3503 77.027502 
L 595.970438 76.256816 
L 596.590576 76.67719 
L 597.210713 75.836441 
L 597.830851 73.944755 
L 599.071127 72.403381 
L 599.691265 70.791945 
L 600.311403 70.091321 
L 601.551678 71.983007 
L 602.171816 71.282382 
L 602.791954 71.49257 
L 603.412092 72.193194 
L 604.032229 71.142258 
L 604.652367 69.320634 
L 605.272505 69.811071 
L 605.892643 68.970322 
L 606.512781 71.142258 
L 607.132918 68.269698 
L 607.753056 71.072195 
L 608.373194 73.244131 
L 609.61347 78.498814 
L 610.233607 78.849126 
L 610.853745 77.868252 
L 611.473883 79.129375 
L 612.094021 82.70256 
L 612.714159 80.530624 
L 613.334297 75.135817 
L 614.574572 69.530822 
L 615.19471 68.970322 
L 615.814848 66.378012 
L 616.434986 66.588199 
L 617.055123 66.658262 
L 617.675261 67.218761 
L 618.295399 64.556389 
L 618.915537 65.046826 
L 619.535675 62.734765 
L 620.155812 63.785702 
L 622.016226 59.441831 
L 622.636364 58.250769 
L 622.636364 58.250769 
" clip-path="url(#p40a2974d10)" style="fill: none; stroke: #1f77b4; stroke-width: 1.5; stroke-linecap: square"/>
   </g>
   <g id="line2d_18">
    <path d="M 115.363636 135.389512 
L 116.603912 144.845117 
L 117.22405 147.81342 
L 117.844188 149.654201 
L 119.084463 151.533755 
L 119.704601 152.79769 
L 120.324739 154.871357 
L 120.944877 160.584836 
L 122.80529 185.47123 
L 123.425428 200.560206 
L 124.045566 220.639643 
L 124.665703 244.662556 
L 125.285841 261.950551 
L 125.905979 267.899951 
L 126.526117 269.620921 
L 127.146255 270.536241 
L 127.766393 271.765642 
L 129.006668 275.769516 
L 129.626806 276.872727 
L 130.246944 147.160002 
L 133.967771 151.351727 
L 134.587908 152.792829 
L 135.208046 155.340878 
L 136.448322 162.108485 
L 137.06846 165.456115 
L 137.688597 167.964958 
L 138.308735 169.73746 
L 138.928873 170.722728 
L 144.510113 177.032063 
L 145.130251 154.86687 
L 158.153145 170.502725 
L 158.773283 171.347502 
L 159.393421 172.981011 
L 160.013559 174.93051 
L 160.633696 176.075839 
L 161.873972 177.619301 
L 162.49411 161.102427 
L 163.114248 163.16726 
L 163.734385 170.560856 
L 164.354523 171.773818 
L 168.695488 177.374933 
L 169.315626 179.155336 
L 169.935764 190.73893 
L 170.555901 207.84747 
L 171.176039 216.699785 
L 171.796177 219.65165 
L 172.416315 220.936114 
L 174.896866 223.942492 
L 175.517004 171.892042 
L 187.91976 188.60951 
L 195.361414 198.820996 
L 195.981551 200.188577 
L 197.221827 205.231252 
L 197.841965 207.789986 
L 198.462103 216.965201 
L 199.08224 230.117181 
L 199.702378 237.069443 
L 201.562792 250.782947 
L 202.18293 254.018991 
L 202.803067 256.580448 
L 203.423205 257.843085 
L 204.043343 258.629545 
L 204.663481 152.694934 
L 208.384308 158.234249 
L 209.004445 159.701802 
L 209.624583 161.558463 
L 210.864859 164.541142 
L 211.484997 167.58739 
L 212.105134 180.020203 
L 213.34541 226.827612 
L 213.965548 236.405586 
L 214.585686 240.700706 
L 215.205824 243.493811 
L 216.446099 246.934377 
L 217.066237 248.22941 
L 218.306513 249.997039 
L 218.92665 250.759124 
L 219.546788 166.987671 
L 224.507891 163.393888 
L 226.988442 161.596388 
L 231.949544 158.721515 
L 235.670371 156.757935 
L 236.290509 156.508463 
L 236.910647 182.961907 
L 240.011336 182.262386 
L 240.631474 184.503281 
L 244.352301 184.056468 
L 247.45299 183.754907 
L 248.073127 183.333545 
L 249.313403 181.657355 
L 249.933541 181.317749 
L 257.995332 178.768309 
L 261.716159 177.88925 
L 265.436986 177.242945 
L 269.157813 176.833542 
L 272.87864 176.656172 
L 276.599467 176.700708 
L 278.45988 176.80213 
L 279.080018 143.306568 
L 282.800845 144.08656 
L 286.521671 145.117081 
L 290.242498 146.372128 
L 293.343187 147.571069 
L 293.963325 132.376828 
L 298.30429 134.307159 
L 303.265392 136.75537 
L 308.226495 139.411295 
L 308.846633 138.822572 
L 315.668148 142.74769 
L 323.109802 147.229422 
L 323.72994 148.491188 
L 337.99311 157.238843 
L 338.613247 150.032562 
L 349.15559 156.316625 
L 349.775728 156.687011 
L 350.395866 156.785617 
L 351.636141 153.305762 
L 352.256279 152.913631 
L 352.876417 152.389857 
L 353.496555 154.516558 
L 354.116693 153.648791 
L 354.73683 152.280252 
L 356.597244 146.179702 
L 357.217382 144.959749 
L 357.837519 144.659668 
L 358.457657 144.753773 
L 359.077795 144.652881 
L 360.318071 143.587621 
L 361.558346 142.284458 
L 363.41876 140.773598 
L 365.899311 138.766475 
L 367.759724 137.147812 
L 368.379862 91.600489 
L 371.480551 89.881241 
L 373.961102 88.777369 
L 376.441654 87.932986 
L 378.922205 87.451582 
L 379.542343 87.532873 
L 380.162481 87.437917 
L 380.782618 87.12789 
L 382.643032 86.632487 
L 383.26317 81.791748 
L 385.743721 81.496518 
L 386.983996 81.338327 
L 389.464548 80.54758 
L 390.084685 80.543208 
L 409.308958 85.335849 
L 414.890198 87.591687 
L 420.471438 90.074233 
L 425.432541 92.501382 
L 427.292954 93.472726 
L 427.913092 101.40923 
L 431.633919 103.552959 
L 432.254056 103.744972 
L 435.354745 105.378387 
L 440.935986 108.805632 
L 442.176261 109.622231 
L 442.796399 69.600884 
L 444.656813 71.188818 
L 450.238053 76.388683 
L 457.059569 83.038665 
L 457.679707 97.765984 
L 466.361636 105.627133 
L 470.082463 109.103216 
L 471.322738 110.334157 
L 471.942876 110.441199 
L 472.563014 112.058721 
L 475.043565 113.878096 
L 476.283841 114.616394 
L 478.144254 116.06845 
L 478.764392 116.596747 
L 479.38453 116.921142 
L 480.004668 117.027446 
L 481.244943 117.549221 
L 481.865081 117.171594 
L 484.345632 112.101504 
L 484.96577 112.098256 
L 487.446321 111.296594 
L 488.066459 113.880344 
L 490.54701 108.83588 
L 492.407424 105.107313 
L 493.027562 104.114152 
L 494.267837 102.710633 
L 497.368526 99.642855 
L 499.849078 97.471217 
L 501.709491 96.045042 
L 502.329629 103.931478 
L 509.151145 109.352027 
L 509.771283 111.131385 
L 510.39142 115.550421 
L 511.011558 122.701076 
L 511.631696 128.538899 
L 512.251834 130.408852 
L 516.592798 133.542651 
L 517.212936 91.180115 
L 519.693487 90.415472 
L 522.174039 89.843504 
L 525.274728 89.383066 
L 528.375417 89.187722 
L 531.476106 89.240605 
L 532.096244 80.670749 
L 535.196933 80.944565 
L 538.297622 81.437754 
L 541.398311 82.137434 
L 545.119138 83.232495 
L 546.359413 83.65616 
L 546.979551 78.288626 
L 550.700378 79.769988 
L 554.421205 81.480277 
L 558.762169 83.738079 
L 560.622583 84.680082 
L 561.242721 84.565163 
L 561.862858 88.377617 
L 562.482996 88.194718 
L 565.583685 86.671395 
L 566.823961 86.562237 
L 567.444099 86.026578 
L 568.684374 84.120289 
L 569.304512 82.935767 
L 569.92465 82.061231 
L 570.544788 81.67156 
L 575.50589 79.731372 
L 576.126028 79.516762 
L 576.746166 88.938117 
L 579.226717 88.53089 
L 580.466993 88.33727 
L 581.08713 88.350663 
L 581.707268 88.044194 
L 582.947544 84.656977 
L 584.18782 84.215817 
L 590.389198 82.290139 
L 591.009335 82.154207 
L 591.629473 75.626254 
L 594.110024 74.855585 
L 596.590576 74.20423 
L 597.830851 73.379261 
L 599.071127 72.353899 
L 600.93154 70.297639 
L 602.171816 69.619725 
L 604.652367 68.666195 
L 605.892643 68.299247 
L 606.512781 69.741009 
L 609.61347 70.496488 
L 612.714159 71.511565 
L 615.814848 72.762713 
L 618.915537 74.228758 
L 620.77595 75.203485 
L 621.396088 64.416264 
L 622.636364 64.529435 
L 622.636364 64.529435 
" clip-path="url(#p40a2974d10)" style="fill: none; stroke: #ff7f0e; stroke-width: 1.5; stroke-linecap: square"/>
   </g>
   <g id="patch_3">
    <path d="M 90 288 
L 90 43.2 
" style="fill: none; stroke: #000000; stroke-width: 0.8; stroke-linejoin: miter; stroke-linecap: square"/>
   </g>
   <g id="patch_4">
    <path d="M 648 288 
L 648 43.2 
" style="fill: none; stroke: #000000; stroke-width: 0.8; stroke-linejoin: miter; stroke-linecap: square"/>
   </g>
   <g id="patch_5">
    <path d="M 90 288 
L 648 288 
" style="fill: none; stroke: #000000; stroke-width: 0.8; stroke-linejoin: miter; stroke-linecap: square"/>
   </g>
   <g id="patch_6">
    <path d="M 90 43.2 
L 648 43.2 
" style="fill: none; stroke: #000000; stroke-width: 0.8; stroke-linejoin: miter; stroke-linecap: square"/>
   </g>
   <g id="text_18">
    <!-- MDOT9734 -->
    <g transform="translate(335.545313 37.2) scale(0.12 -0.12)">
     <defs>
      <path id="DejaVuSans-44" d="M 1259 4147 
L 1259 519 
L 2022 519 
Q 2988 519 3436 956 
Q 3884 1394 3884 2338 
Q 3884 3275 3436 3711 
Q 2988 4147 2022 4147 
L 1259 4147 
z
M 628 4666 
L 1925 4666 
Q 3281 4666 3915 4102 
Q 4550 3538 4550 2338 
Q 4550 1131 3912 565 
Q 3275 0 1925 0 
L 628 0 
L 628 4666 
z
" transform="scale(0.015625)"/>
      <path id="DejaVuSans-4f" d="M 2522 4238 
Q 1834 4238 1429 3725 
Q 1025 3213 1025 2328 
Q 1025 1447 1429 934 
Q 1834 422 2522 422 
Q 3209 422 3611 934 
Q 4013 1447 4013 2328 
Q 4013 3213 3611 3725 
Q 3209 4238 2522 4238 
z
M 2522 4750 
Q 3503 4750 4090 4092 
Q 4678 3434 4678 2328 
Q 4678 1225 4090 567 
Q 3503 -91 2522 -91 
Q 1538 -91 948 565 
Q 359 1222 359 2328 
Q 359 3434 948 4092 
Q 1538 4750 2522 4750 
z
" transform="scale(0.015625)"/>
      <path id="DejaVuSans-54" d="M -19 4666 
L 3928 4666 
L 3928 4134 
L 2272 4134 
L 2272 0 
L 1638 0 
L 1638 4134 
L -19 4134 
L -19 4666 
z
" transform="scale(0.015625)"/>
     </defs>
     <use xlink:href="#DejaVuSans-4d"/>
     <use xlink:href="#DejaVuSans-44" x="86.279297"/>
     <use xlink:href="#DejaVuSans-4f" x="163.28125"/>
     <use xlink:href="#DejaVuSans-54" x="241.992188"/>
     <use xlink:href="#DejaVuSans-39" x="303.076172"/>
     <use xlink:href="#DejaVuSans-37" x="366.699219"/>
     <use xlink:href="#DejaVuSans-33" x="430.322266"/>
     <use xlink:href="#DejaVuSans-34" x="493.945312"/>
    </g>
   </g>
   <g id="legend_1">
    <g id="patch_7">
     <path d="M 97 80.55625 
L 178.95625 80.55625 
Q 180.95625 80.55625 180.95625 78.55625 
L 180.95625 50.2 
Q 180.95625 48.2 178.95625 48.2 
L 97 48.2 
Q 95 48.2 95 50.2 
L 95 78.55625 
Q 95 80.55625 97 80.55625 
z
" style="fill: #ffffff; opacity: 0.8; stroke: #cccccc; stroke-linejoin: miter"/>
    </g>
    <g id="line2d_19">
     <path d="M 99 56.298437 
L 109 56.298437 
L 119 56.298437 
" style="fill: none; stroke: #1f77b4; stroke-width: 1.5; stroke-linecap: square"/>
    </g>
    <g id="text_19">
     <!-- measured -->
     <g transform="translate(127 59.798437) scale(0.1 -0.1)">
      <defs>
       <path id="DejaVuSans-6d" d="M 3328 2828 
Q 3544 3216 3844 3400 
Q 4144 3584 4550 3584 
Q 5097 3584 5394 3201 
Q 5691 2819 5691 2113 
L 5691 0 
L 5113 0 
L 5113 2094 
Q 5113 2597 4934 2840 
Q 4756 3084 4391 3084 
Q 3944 3084 3684 2787 
Q 3425 2491 3425 1978 
L 3425 0 
L 2847 0 
L 2847 2094 
Q 2847 2600 2669 2842 
Q 2491 3084 2119 3084 
Q 1678 3084 1418 2786 
Q 1159 2488 1159 1978 
L 1159 0 
L 581 0 
L 581 3500 
L 1159 3500 
L 1159 2956 
Q 1356 3278 1631 3431 
Q 1906 3584 2284 3584 
Q 2666 3584 2933 3390 
Q 3200 3197 3328 2828 
z
" transform="scale(0.015625)"/>
       <path id="DejaVuSans-61" d="M 2194 1759 
Q 1497 1759 1228 1600 
Q 959 1441 959 1056 
Q 959 750 1161 570 
Q 1363 391 1709 391 
Q 2188 391 2477 730 
Q 2766 1069 2766 1631 
L 2766 1759 
L 2194 1759 
z
M 3341 1997 
L 3341 0 
L 2766 0 
L 2766 531 
Q 2569 213 2275 61 
Q 1981 -91 1556 -91 
Q 1019 -91 701 211 
Q 384 513 384 1019 
Q 384 1609 779 1909 
Q 1175 2209 1959 2209 
L 2766 2209 
L 2766 2266 
Q 2766 2663 2505 2880 
Q 2244 3097 1772 3097 
Q 1472 3097 1187 3025 
Q 903 2953 641 2809 
L 641 3341 
Q 956 3463 1253 3523 
Q 1550 3584 1831 3584 
Q 2591 3584 2966 3190 
Q 3341 2797 3341 1997 
z
" transform="scale(0.015625)"/>
       <path id="DejaVuSans-75" d="M 544 1381 
L 544 3500 
L 1119 3500 
L 1119 1403 
Q 1119 906 1312 657 
Q 1506 409 1894 409 
Q 2359 409 2629 706 
Q 2900 1003 2900 1516 
L 2900 3500 
L 3475 3500 
L 3475 0 
L 2900 0 
L 2900 538 
Q 2691 219 2414 64 
Q 2138 -91 1772 -91 
Q 1169 -91 856 284 
Q 544 659 544 1381 
z
M 1991 3584 
L 1991 3584 
z
" transform="scale(0.015625)"/>
       <path id="DejaVuSans-64" d="M 2906 2969 
L 2906 4863 
L 3481 4863 
L 3481 0 
L 2906 0 
L 2906 525 
Q 2725 213 2448 61 
Q 2172 -91 1784 -91 
Q 1150 -91 751 415 
Q 353 922 353 1747 
Q 353 2572 751 3078 
Q 1150 3584 1784 3584 
Q 2172 3584 2448 3432 
Q 2725 3281 2906 2969 
z
M 947 1747 
Q 947 1113 1208 752 
Q 1469 391 1925 391 
Q 2381 391 2643 752 
Q 2906 1113 2906 1747 
Q 2906 2381 2643 2742 
Q 2381 3103 1925 3103 
Q 1469 3103 1208 2742 
Q 947 2381 947 1747 
z
" transform="scale(0.015625)"/>
      </defs>
      <use xlink:href="#DejaVuSans-6d"/>
      <use xlink:href="#DejaVuSans-65" x="97.412109"/>
      <use xlink:href="#DejaVuSans-61" x="158.935547"/>
      <use xlink:href="#DejaVuSans-73" x="220.214844"/>
      <use xlink:href="#DejaVuSans-75" x="272.314453"/>
      <use xlink:href="#DejaVuSans-72" x="335.693359"/>
      <use xlink:href="#DejaVuSans-65" x="374.556641"/>
      <use xlink:href="#DejaVuSans-64" x="436.080078"/>
     </g>
    </g>
    <g id="line2d_20">
     <path d="M 99 70.976562 
L 109 70.976562 
L 119 70.976562 
" style="fill: none; stroke: #ff7f0e; stroke-width: 1.5; stroke-linecap: square"/>
    </g>
    <g id="text_20">
     <!-- predicted -->
     <g transform="translate(127 74.476562) scale(0.1 -0.1)">
      <defs>
       <path id="DejaVuSans-70" d="M 1159 525 
L 1159 -1331 
L 581 -1331 
L 581 3500 
L 1159 3500 
L 1159 2969 
Q 1341 3281 1617 3432 
Q 1894 3584 2278 3584 
Q 2916 3584 3314 3078 
Q 3713 2572 3713 1747 
Q 3713 922 3314 415 
Q 2916 -91 2278 -91 
Q 1894 -91 1617 61 
Q 1341 213 1159 525 
z
M 3116 1747 
Q 3116 2381 2855 2742 
Q 2594 3103 2138 3103 
Q 1681 3103 1420 2742 
Q 1159 2381 1159 1747 
Q 1159 1113 1420 752 
Q 1681 391 2138 391 
Q 2594 391 2855 752 
Q 3116 1113 3116 1747 
z
" transform="scale(0.015625)"/>
       <path id="DejaVuSans-69" d="M 603 3500 
L 1178 3500 
L 1178 0 
L 603 0 
L 603 3500 
z
M 603 4863 
L 1178 4863 
L 1178 4134 
L 603 4134 
L 603 4863 
z
" transform="scale(0.015625)"/>
       <path id="DejaVuSans-63" d="M 3122 3366 
L 3122 2828 
Q 2878 2963 2633 3030 
Q 2388 3097 2138 3097 
Q 1578 3097 1268 2742 
Q 959 2388 959 1747 
Q 959 1106 1268 751 
Q 1578 397 2138 397 
Q 2388 397 2633 464 
Q 2878 531 3122 666 
L 3122 134 
Q 2881 22 2623 -34 
Q 2366 -91 2075 -91 
Q 1284 -91 818 406 
Q 353 903 353 1747 
Q 353 2603 823 3093 
Q 1294 3584 2113 3584 
Q 2378 3584 2631 3529 
Q 2884 3475 3122 3366 
z
" transform="scale(0.015625)"/>
      </defs>
      <use xlink:href="#DejaVuSans-70"/>
      <use xlink:href="#DejaVuSans-72" x="63.476562"/>
      <use xlink:href="#DejaVuSans-65" x="102.339844"/>
      <use xlink:href="#DejaVuSans-64" x="163.863281"/>
      <use xlink:href="#DejaVuSans-69" x="227.339844"/>
      <use xlink:href="#DejaVuSans-63" x="255.123047"/>
      <use xlink:href="#DejaVuSans-74" x="310.103516"/>
      <use xlink:href="#DejaVuSans-65" x="349.3125"/>
      <use xlink:href="#DejaVuSans-64" x="410.835938"/>
     </g>
    </g>
   </g>
  </g>
 </g>
 <defs>
  <clipPath id="p40a2974d10">
   <rect x="90" y="43.2" width="558" height="244.8"/>
  </clipPath>
 </defs>
</svg>
