<?xml version="1.0" encoding="utf-8" standalone="no"?>
<!DOCTYPE svg PUBLIC "-//W3C//DTD SVG 1.1//EN"
  "http://www.w3.org/Graphics/SVG/1.1/DTD/svg11.dtd">
<svg xmlns:xlink="http://www.w3.org/1999/xlink" width="712.925625pt" height="351.43625pt" viewBox="0 0 712.925625 351.43625" xmlns="http://www.w3.org/2000/svg" version="1.1">
 <metadata>
  <rdf:RDF xmlns:dc="http://purl.org/dc/elements/1.1/" xmlns:cc="http://creativecommons.org/ns#" xmlns:rdf="http://www.w3.org/1999/02/22-rdf-syntax-ns#">
   <cc:Work>
    <dc:type rdf:resource="http://purl.org/dc/dcmitype/StillImage"/>
    <dc:date>2023-10-22T04:49:52.050150</dc:date>
    <dc:format>image/svg+xml</dc:format>
    <dc:creator>
     <cc:Agent>
      <dc:title>Matplotlib v3.7.1, https://matplotlib.org/</dc:title>
     </cc:Agent>
    </dc:creator>
   </cc:Work>
  </rdf:RDF>
 </metadata>
 <defs>
  <style type="text/css">*{stroke-linejoin: round; stroke-linecap: butt}</style>
 </defs>
 <g id="figure_1">
  <g id="patch_1">
   <path d="M 0 351.43625 
L 712.925625 351.43625 
L 712.925625 0 
L 0 0 
z
" style="fill: #ffffff"/>
  </g>
  <g id="axes_1">
   <g id="patch_2">
    <path d="M 36.465625 327.558125 
L 705.725625 327.558125 
L 705.725625 22.318125 
L 36.465625 22.318125 
z
" style="fill: #ffffff"/>
   </g>
   <g id="matplotlib.axis_1">
    <g id="xtick_1">
     <g id="line2d_1">
      <defs>
       <path id="m81fc1a2ff5" d="M 0 0 
L 0 3.5 
" style="stroke: #000000; stroke-width: 0.8"/>
      </defs>
      <g>
       <use xlink:href="#m81fc1a2ff5" x="81.058722" y="327.558125" style="stroke: #000000; stroke-width: 0.8"/>
      </g>
     </g>
     <g id="text_1">
      <!-- 2023-04 -->
      <g transform="translate(60.167316 342.156563) scale(0.1 -0.1)">
       <defs>
        <path id="DejaVuSans-32" d="M 1228 531 
L 3431 531 
L 3431 0 
L 469 0 
L 469 531 
Q 828 903 1448 1529 
Q 2069 2156 2228 2338 
Q 2531 2678 2651 2914 
Q 2772 3150 2772 3378 
Q 2772 3750 2511 3984 
Q 2250 4219 1831 4219 
Q 1534 4219 1204 4116 
Q 875 4013 500 3803 
L 500 4441 
Q 881 4594 1212 4672 
Q 1544 4750 1819 4750 
Q 2544 4750 2975 4387 
Q 3406 4025 3406 3419 
Q 3406 3131 3298 2873 
Q 3191 2616 2906 2266 
Q 2828 2175 2409 1742 
Q 1991 1309 1228 531 
z
" transform="scale(0.015625)"/>
        <path id="DejaVuSans-30" d="M 2034 4250 
Q 1547 4250 1301 3770 
Q 1056 3291 1056 2328 
Q 1056 1369 1301 889 
Q 1547 409 2034 409 
Q 2525 409 2770 889 
Q 3016 1369 3016 2328 
Q 3016 3291 2770 3770 
Q 2525 4250 2034 4250 
z
M 2034 4750 
Q 2819 4750 3233 4129 
Q 3647 3509 3647 2328 
Q 3647 1150 3233 529 
Q 2819 -91 2034 -91 
Q 1250 -91 836 529 
Q 422 1150 422 2328 
Q 422 3509 836 4129 
Q 1250 4750 2034 4750 
z
" transform="scale(0.015625)"/>
        <path id="DejaVuSans-33" d="M 2597 2516 
Q 3050 2419 3304 2112 
Q 3559 1806 3559 1356 
Q 3559 666 3084 287 
Q 2609 -91 1734 -91 
Q 1441 -91 1130 -33 
Q 819 25 488 141 
L 488 750 
Q 750 597 1062 519 
Q 1375 441 1716 441 
Q 2309 441 2620 675 
Q 2931 909 2931 1356 
Q 2931 1769 2642 2001 
Q 2353 2234 1838 2234 
L 1294 2234 
L 1294 2753 
L 1863 2753 
Q 2328 2753 2575 2939 
Q 2822 3125 2822 3475 
Q 2822 3834 2567 4026 
Q 2313 4219 1838 4219 
Q 1578 4219 1281 4162 
Q 984 4106 628 3988 
L 628 4550 
Q 988 4650 1302 4700 
Q 1616 4750 1894 4750 
Q 2613 4750 3031 4423 
Q 3450 4097 3450 3541 
Q 3450 3153 3228 2886 
Q 3006 2619 2597 2516 
z
" transform="scale(0.015625)"/>
        <path id="DejaVuSans-2d" d="M 313 2009 
L 1997 2009 
L 1997 1497 
L 313 1497 
L 313 2009 
z
" transform="scale(0.015625)"/>
        <path id="DejaVuSans-34" d="M 2419 4116 
L 825 1625 
L 2419 1625 
L 2419 4116 
z
M 2253 4666 
L 3047 4666 
L 3047 1625 
L 3713 1625 
L 3713 1100 
L 3047 1100 
L 3047 0 
L 2419 0 
L 2419 1100 
L 313 1100 
L 313 1709 
L 2253 4666 
z
" transform="scale(0.015625)"/>
       </defs>
       <use xlink:href="#DejaVuSans-32"/>
       <use xlink:href="#DejaVuSans-30" x="63.623047"/>
       <use xlink:href="#DejaVuSans-32" x="127.246094"/>
       <use xlink:href="#DejaVuSans-33" x="190.869141"/>
       <use xlink:href="#DejaVuSans-2d" x="254.492188"/>
       <use xlink:href="#DejaVuSans-30" x="290.576172"/>
       <use xlink:href="#DejaVuSans-34" x="354.199219"/>
      </g>
     </g>
    </g>
    <g id="xtick_2">
     <g id="line2d_2">
      <g>
       <use xlink:href="#m81fc1a2ff5" x="169.788941" y="327.558125" style="stroke: #000000; stroke-width: 0.8"/>
      </g>
     </g>
     <g id="text_2">
      <!-- 2023-05 -->
      <g transform="translate(148.897535 342.156563) scale(0.1 -0.1)">
       <defs>
        <path id="DejaVuSans-35" d="M 691 4666 
L 3169 4666 
L 3169 4134 
L 1269 4134 
L 1269 2991 
Q 1406 3038 1543 3061 
Q 1681 3084 1819 3084 
Q 2600 3084 3056 2656 
Q 3513 2228 3513 1497 
Q 3513 744 3044 326 
Q 2575 -91 1722 -91 
Q 1428 -91 1123 -41 
Q 819 9 494 109 
L 494 744 
Q 775 591 1075 516 
Q 1375 441 1709 441 
Q 2250 441 2565 725 
Q 2881 1009 2881 1497 
Q 2881 1984 2565 2268 
Q 2250 2553 1709 2553 
Q 1456 2553 1204 2497 
Q 953 2441 691 2322 
L 691 4666 
z
" transform="scale(0.015625)"/>
       </defs>
       <use xlink:href="#DejaVuSans-32"/>
       <use xlink:href="#DejaVuSans-30" x="63.623047"/>
       <use xlink:href="#DejaVuSans-32" x="127.246094"/>
       <use xlink:href="#DejaVuSans-33" x="190.869141"/>
       <use xlink:href="#DejaVuSans-2d" x="254.492188"/>
       <use xlink:href="#DejaVuSans-30" x="290.576172"/>
       <use xlink:href="#DejaVuSans-35" x="354.199219"/>
      </g>
     </g>
    </g>
    <g id="xtick_3">
     <g id="line2d_3">
      <g>
       <use xlink:href="#m81fc1a2ff5" x="261.476834" y="327.558125" style="stroke: #000000; stroke-width: 0.8"/>
      </g>
     </g>
     <g id="text_3">
      <!-- 2023-06 -->
      <g transform="translate(240.585427 342.156563) scale(0.1 -0.1)">
       <defs>
        <path id="DejaVuSans-36" d="M 2113 2584 
Q 1688 2584 1439 2293 
Q 1191 2003 1191 1497 
Q 1191 994 1439 701 
Q 1688 409 2113 409 
Q 2538 409 2786 701 
Q 3034 994 3034 1497 
Q 3034 2003 2786 2293 
Q 2538 2584 2113 2584 
z
M 3366 4563 
L 3366 3988 
Q 3128 4100 2886 4159 
Q 2644 4219 2406 4219 
Q 1781 4219 1451 3797 
Q 1122 3375 1075 2522 
Q 1259 2794 1537 2939 
Q 1816 3084 2150 3084 
Q 2853 3084 3261 2657 
Q 3669 2231 3669 1497 
Q 3669 778 3244 343 
Q 2819 -91 2113 -91 
Q 1303 -91 875 529 
Q 447 1150 447 2328 
Q 447 3434 972 4092 
Q 1497 4750 2381 4750 
Q 2619 4750 2861 4703 
Q 3103 4656 3366 4563 
z
" transform="scale(0.015625)"/>
       </defs>
       <use xlink:href="#DejaVuSans-32"/>
       <use xlink:href="#DejaVuSans-30" x="63.623047"/>
       <use xlink:href="#DejaVuSans-32" x="127.246094"/>
       <use xlink:href="#DejaVuSans-33" x="190.869141"/>
       <use xlink:href="#DejaVuSans-2d" x="254.492188"/>
       <use xlink:href="#DejaVuSans-30" x="290.576172"/>
       <use xlink:href="#DejaVuSans-36" x="354.199219"/>
      </g>
     </g>
    </g>
    <g id="xtick_4">
     <g id="line2d_4">
      <g>
       <use xlink:href="#m81fc1a2ff5" x="350.207053" y="327.558125" style="stroke: #000000; stroke-width: 0.8"/>
      </g>
     </g>
     <g id="text_4">
      <!-- 2023-07 -->
      <g transform="translate(329.315646 342.156563) scale(0.1 -0.1)">
       <defs>
        <path id="DejaVuSans-37" d="M 525 4666 
L 3525 4666 
L 3525 4397 
L 1831 0 
L 1172 0 
L 2766 4134 
L 525 4134 
L 525 4666 
z
" transform="scale(0.015625)"/>
       </defs>
       <use xlink:href="#DejaVuSans-32"/>
       <use xlink:href="#DejaVuSans-30" x="63.623047"/>
       <use xlink:href="#DejaVuSans-32" x="127.246094"/>
       <use xlink:href="#DejaVuSans-33" x="190.869141"/>
       <use xlink:href="#DejaVuSans-2d" x="254.492188"/>
       <use xlink:href="#DejaVuSans-30" x="290.576172"/>
       <use xlink:href="#DejaVuSans-37" x="354.199219"/>
      </g>
     </g>
    </g>
    <g id="xtick_5">
     <g id="line2d_5">
      <g>
       <use xlink:href="#m81fc1a2ff5" x="441.894946" y="327.558125" style="stroke: #000000; stroke-width: 0.8"/>
      </g>
     </g>
     <g id="text_5">
      <!-- 2023-08 -->
      <g transform="translate(421.003539 342.156563) scale(0.1 -0.1)">
       <defs>
        <path id="DejaVuSans-38" d="M 2034 2216 
Q 1584 2216 1326 1975 
Q 1069 1734 1069 1313 
Q 1069 891 1326 650 
Q 1584 409 2034 409 
Q 2484 409 2743 651 
Q 3003 894 3003 1313 
Q 3003 1734 2745 1975 
Q 2488 2216 2034 2216 
z
M 1403 2484 
Q 997 2584 770 2862 
Q 544 3141 544 3541 
Q 544 4100 942 4425 
Q 1341 4750 2034 4750 
Q 2731 4750 3128 4425 
Q 3525 4100 3525 3541 
Q 3525 3141 3298 2862 
Q 3072 2584 2669 2484 
Q 3125 2378 3379 2068 
Q 3634 1759 3634 1313 
Q 3634 634 3220 271 
Q 2806 -91 2034 -91 
Q 1263 -91 848 271 
Q 434 634 434 1313 
Q 434 1759 690 2068 
Q 947 2378 1403 2484 
z
M 1172 3481 
Q 1172 3119 1398 2916 
Q 1625 2713 2034 2713 
Q 2441 2713 2670 2916 
Q 2900 3119 2900 3481 
Q 2900 3844 2670 4047 
Q 2441 4250 2034 4250 
Q 1625 4250 1398 4047 
Q 1172 3844 1172 3481 
z
" transform="scale(0.015625)"/>
       </defs>
       <use xlink:href="#DejaVuSans-32"/>
       <use xlink:href="#DejaVuSans-30" x="63.623047"/>
       <use xlink:href="#DejaVuSans-32" x="127.246094"/>
       <use xlink:href="#DejaVuSans-33" x="190.869141"/>
       <use xlink:href="#DejaVuSans-2d" x="254.492188"/>
       <use xlink:href="#DejaVuSans-30" x="290.576172"/>
       <use xlink:href="#DejaVuSans-38" x="354.199219"/>
      </g>
     </g>
    </g>
    <g id="xtick_6">
     <g id="line2d_6">
      <g>
       <use xlink:href="#m81fc1a2ff5" x="533.582838" y="327.558125" style="stroke: #000000; stroke-width: 0.8"/>
      </g>
     </g>
     <g id="text_6">
      <!-- 2023-09 -->
      <g transform="translate(512.691432 342.156563) scale(0.1 -0.1)">
       <defs>
        <path id="DejaVuSans-39" d="M 703 97 
L 703 672 
Q 941 559 1184 500 
Q 1428 441 1663 441 
Q 2288 441 2617 861 
Q 2947 1281 2994 2138 
Q 2813 1869 2534 1725 
Q 2256 1581 1919 1581 
Q 1219 1581 811 2004 
Q 403 2428 403 3163 
Q 403 3881 828 4315 
Q 1253 4750 1959 4750 
Q 2769 4750 3195 4129 
Q 3622 3509 3622 2328 
Q 3622 1225 3098 567 
Q 2575 -91 1691 -91 
Q 1453 -91 1209 -44 
Q 966 3 703 97 
z
M 1959 2075 
Q 2384 2075 2632 2365 
Q 2881 2656 2881 3163 
Q 2881 3666 2632 3958 
Q 2384 4250 1959 4250 
Q 1534 4250 1286 3958 
Q 1038 3666 1038 3163 
Q 1038 2656 1286 2365 
Q 1534 2075 1959 2075 
z
" transform="scale(0.015625)"/>
       </defs>
       <use xlink:href="#DejaVuSans-32"/>
       <use xlink:href="#DejaVuSans-30" x="63.623047"/>
       <use xlink:href="#DejaVuSans-32" x="127.246094"/>
       <use xlink:href="#DejaVuSans-33" x="190.869141"/>
       <use xlink:href="#DejaVuSans-2d" x="254.492188"/>
       <use xlink:href="#DejaVuSans-30" x="290.576172"/>
       <use xlink:href="#DejaVuSans-39" x="354.199219"/>
      </g>
     </g>
    </g>
    <g id="xtick_7">
     <g id="line2d_7">
      <g>
       <use xlink:href="#m81fc1a2ff5" x="622.313057" y="327.558125" style="stroke: #000000; stroke-width: 0.8"/>
      </g>
     </g>
     <g id="text_7">
      <!-- 2023-10 -->
      <g transform="translate(601.421651 342.156563) scale(0.1 -0.1)">
       <defs>
        <path id="DejaVuSans-31" d="M 794 531 
L 1825 531 
L 1825 4091 
L 703 3866 
L 703 4441 
L 1819 4666 
L 2450 4666 
L 2450 531 
L 3481 531 
L 3481 0 
L 794 0 
L 794 531 
z
" transform="scale(0.015625)"/>
       </defs>
       <use xlink:href="#DejaVuSans-32"/>
       <use xlink:href="#DejaVuSans-30" x="63.623047"/>
       <use xlink:href="#DejaVuSans-32" x="127.246094"/>
       <use xlink:href="#DejaVuSans-33" x="190.869141"/>
       <use xlink:href="#DejaVuSans-2d" x="254.492188"/>
       <use xlink:href="#DejaVuSans-31" x="290.576172"/>
       <use xlink:href="#DejaVuSans-30" x="354.199219"/>
      </g>
     </g>
    </g>
   </g>
   <g id="matplotlib.axis_2">
    <g id="ytick_1">
     <g id="line2d_8">
      <defs>
       <path id="m69f56d8fee" d="M 0 0 
L -3.5 0 
" style="stroke: #000000; stroke-width: 0.8"/>
      </defs>
      <g>
       <use xlink:href="#m69f56d8fee" x="36.465625" y="298.853155" style="stroke: #000000; stroke-width: 0.8"/>
      </g>
     </g>
     <g id="text_8">
      <!-- 0.0 -->
      <g transform="translate(13.5625 302.652374) scale(0.1 -0.1)">
       <defs>
        <path id="DejaVuSans-2e" d="M 684 794 
L 1344 794 
L 1344 0 
L 684 0 
L 684 794 
z
" transform="scale(0.015625)"/>
       </defs>
       <use xlink:href="#DejaVuSans-30"/>
       <use xlink:href="#DejaVuSans-2e" x="63.623047"/>
       <use xlink:href="#DejaVuSans-30" x="95.410156"/>
      </g>
     </g>
    </g>
    <g id="ytick_2">
     <g id="line2d_9">
      <g>
       <use xlink:href="#m69f56d8fee" x="36.465625" y="264.874166" style="stroke: #000000; stroke-width: 0.8"/>
      </g>
     </g>
     <g id="text_9">
      <!-- 2.5 -->
      <g transform="translate(13.5625 268.673385) scale(0.1 -0.1)">
       <use xlink:href="#DejaVuSans-32"/>
       <use xlink:href="#DejaVuSans-2e" x="63.623047"/>
       <use xlink:href="#DejaVuSans-35" x="95.410156"/>
      </g>
     </g>
    </g>
    <g id="ytick_3">
     <g id="line2d_10">
      <g>
       <use xlink:href="#m69f56d8fee" x="36.465625" y="230.895177" style="stroke: #000000; stroke-width: 0.8"/>
      </g>
     </g>
     <g id="text_10">
      <!-- 5.0 -->
      <g transform="translate(13.5625 234.694396) scale(0.1 -0.1)">
       <use xlink:href="#DejaVuSans-35"/>
       <use xlink:href="#DejaVuSans-2e" x="63.623047"/>
       <use xlink:href="#DejaVuSans-30" x="95.410156"/>
      </g>
     </g>
    </g>
    <g id="ytick_4">
     <g id="line2d_11">
      <g>
       <use xlink:href="#m69f56d8fee" x="36.465625" y="196.916188" style="stroke: #000000; stroke-width: 0.8"/>
      </g>
     </g>
     <g id="text_11">
      <!-- 7.5 -->
      <g transform="translate(13.5625 200.715407) scale(0.1 -0.1)">
       <use xlink:href="#DejaVuSans-37"/>
       <use xlink:href="#DejaVuSans-2e" x="63.623047"/>
       <use xlink:href="#DejaVuSans-35" x="95.410156"/>
      </g>
     </g>
    </g>
    <g id="ytick_5">
     <g id="line2d_12">
      <g>
       <use xlink:href="#m69f56d8fee" x="36.465625" y="162.937199" style="stroke: #000000; stroke-width: 0.8"/>
      </g>
     </g>
     <g id="text_12">
      <!-- 10.0 -->
      <g transform="translate(7.2 166.736418) scale(0.1 -0.1)">
       <use xlink:href="#DejaVuSans-31"/>
       <use xlink:href="#DejaVuSans-30" x="63.623047"/>
       <use xlink:href="#DejaVuSans-2e" x="127.246094"/>
       <use xlink:href="#DejaVuSans-30" x="159.033203"/>
      </g>
     </g>
    </g>
    <g id="ytick_6">
     <g id="line2d_13">
      <g>
       <use xlink:href="#m69f56d8fee" x="36.465625" y="128.95821" style="stroke: #000000; stroke-width: 0.8"/>
      </g>
     </g>
     <g id="text_13">
      <!-- 12.5 -->
      <g transform="translate(7.2 132.757429) scale(0.1 -0.1)">
       <use xlink:href="#DejaVuSans-31"/>
       <use xlink:href="#DejaVuSans-32" x="63.623047"/>
       <use xlink:href="#DejaVuSans-2e" x="127.246094"/>
       <use xlink:href="#DejaVuSans-35" x="159.033203"/>
      </g>
     </g>
    </g>
    <g id="ytick_7">
     <g id="line2d_14">
      <g>
       <use xlink:href="#m69f56d8fee" x="36.465625" y="94.979221" style="stroke: #000000; stroke-width: 0.8"/>
      </g>
     </g>
     <g id="text_14">
      <!-- 15.0 -->
      <g transform="translate(7.2 98.77844) scale(0.1 -0.1)">
       <use xlink:href="#DejaVuSans-31"/>
       <use xlink:href="#DejaVuSans-35" x="63.623047"/>
       <use xlink:href="#DejaVuSans-2e" x="127.246094"/>
       <use xlink:href="#DejaVuSans-30" x="159.033203"/>
      </g>
     </g>
    </g>
    <g id="ytick_8">
     <g id="line2d_15">
      <g>
       <use xlink:href="#m69f56d8fee" x="36.465625" y="61.000232" style="stroke: #000000; stroke-width: 0.8"/>
      </g>
     </g>
     <g id="text_15">
      <!-- 17.5 -->
      <g transform="translate(7.2 64.799451) scale(0.1 -0.1)">
       <use xlink:href="#DejaVuSans-31"/>
       <use xlink:href="#DejaVuSans-37" x="63.623047"/>
       <use xlink:href="#DejaVuSans-2e" x="127.246094"/>
       <use xlink:href="#DejaVuSans-35" x="159.033203"/>
      </g>
     </g>
    </g>
    <g id="ytick_9">
     <g id="line2d_16">
      <g>
       <use xlink:href="#m69f56d8fee" x="36.465625" y="27.021243" style="stroke: #000000; stroke-width: 0.8"/>
      </g>
     </g>
     <g id="text_16">
      <!-- 20.0 -->
      <g transform="translate(7.2 30.820462) scale(0.1 -0.1)">
       <use xlink:href="#DejaVuSans-32"/>
       <use xlink:href="#DejaVuSans-30" x="63.623047"/>
       <use xlink:href="#DejaVuSans-2e" x="127.246094"/>
       <use xlink:href="#DejaVuSans-30" x="159.033203"/>
      </g>
     </g>
    </g>
   </g>
   <g id="line2d_17">
    <path d="M 66.886534 238.63242 
L 67.256243 236.551999 
L 67.502716 236.165636 
L 67.749189 235.898153 
L 68.242135 236.314237 
L 68.365371 236.002174 
L 68.488607 236.121055 
L 68.611844 235.950163 
L 68.858317 235.459779 
L 68.981553 235.407768 
L 69.10479 235.519219 
L 69.597735 234.649901 
L 69.967444 234.687051 
L 70.090681 234.456719 
L 70.213917 234.51616 
L 70.706863 234.300687 
L 70.953336 235.043695 
L 71.199809 234.984254 
L 71.446281 235.021404 
L 71.569518 234.895093 
L 71.692754 234.984254 
L 71.939227 234.739062 
L 72.062464 234.857943 
L 72.432173 234.092645 
L 72.555409 234.263537 
L 72.678646 234.137226 
L 72.801882 233.817733 
L 72.925118 233.847453 
L 73.171591 233.208467 
L 73.294828 233.446229 
L 73.541301 233.319918 
L 73.664537 233.431369 
L 73.787773 233.862313 
L 73.91101 233.646841 
L 74.034246 233.840023 
L 74.157483 233.691421 
L 74.403955 234.033205 
L 74.650428 233.832593 
L 74.896901 233.892033 
L 75.020137 234.137226 
L 75.26661 233.862313 
L 75.759556 234.382418 
L 76.006029 234.835653 
L 76.622211 235.296317 
L 76.745447 235.534079 
L 77.115157 236.789762 
L 77.238393 236.470269 
L 77.361629 236.514849 
L 77.484866 236.269657 
L 77.608102 236.462838 
L 77.854575 236.507419 
L 78.101048 236.849202 
L 78.347521 236.61887 
L 78.840466 237.146405 
L 79.210176 237.569919 
L 79.579885 237.124115 
L 79.949594 236.076475 
L 80.196067 235.660391 
L 80.812249 234.843083 
L 81.305195 233.817733 
L 82.16785 225.481192 
L 82.537559 224.024897 
L 83.153741 222.18967 
L 83.276977 222.026208 
L 83.52345 221.305491 
L 83.769923 221.038008 
L 85.125524 216.05243 
L 85.495233 214.707587 
L 85.618469 214.863618 
L 85.741706 214.722447 
L 85.864942 214.276643 
L 85.988178 214.254352 
L 86.481124 212.679177 
L 87.713488 208.85269 
L 88.083198 207.336955 
L 88.206434 207.418686 
L 88.69938 205.954962 
L 88.822616 205.880661 
L 89.069089 204.885031 
L 89.438798 203.465887 
L 89.685271 202.804611 
L 90.178217 201.036254 
L 90.301453 200.768771 
L 91.410581 196.385029 
L 91.533817 196.139836 
L 91.903526 194.891584 
L 92.642945 192.261338 
L 93.259127 189.920866 
L 94.121782 187.186599 
L 94.245018 187.23118 
L 94.984437 182.527944 
L 95.970328 176.576456 
L 97.202692 168.655999 
L 97.572401 166.426977 
L 98.065347 163.373218 
L 99.297711 155.475051 
L 99.913893 151.789735 
L 100.406839 149.070328 
L 101.39273 144.06246 
L 101.76244 142.725047 
L 102.132149 141.097861 
L 102.255385 140.956689 
L 102.625094 139.648997 
L 102.871567 139.136322 
L 103.11804 138.958 
L 103.487749 138.430465 
L 103.610986 138.274433 
L 103.734222 138.720238 
L 103.980695 138.385884 
L 104.227168 138.103542 
L 104.473641 138.423035 
L 104.596877 138.556776 
L 104.720114 138.437895 
L 104.966586 138.712808 
L 105.089823 138.816829 
L 105.213059 138.720238 
L 105.706005 139.656427 
L 106.322187 141.127581 
L 106.691896 142.479854 
L 106.815133 142.524435 
L 106.938369 142.717617 
L 108.663679 148.929157 
L 109.403097 152.101798 
L 109.896043 154.940085 
L 110.265752 156.492971 
L 110.758698 159.108356 
L 111.128407 160.742972 
L 111.991062 165.178725 
L 112.237535 166.389827 
L 112.853717 170.312905 
L 113.593135 174.235983 
L 114.332554 178.06247 
L 114.45579 178.456264 
L 115.564918 184.838696 
L 115.688155 185.19534 
L 117.043755 193.138087 
L 117.290228 193.881094 
L 118.029646 197.142896 
L 118.522592 199.58739 
L 118.892301 200.954523 
L 119.63172 204.77358 
L 120.494375 208.013092 
L 121.35703 211.876729 
L 121.603502 212.731188 
L 121.726739 213.01353 
L 121.849975 213.622796 
L 121.973212 213.645086 
L 122.219685 215.249982 
L 122.959103 218.14028 
L 123.082339 218.326032 
L 123.452049 219.656015 
L 124.191467 222.25654 
L 124.930886 224.864496 
L 125.054122 224.842205 
L 125.423831 226.840895 
L 125.547068 226.640283 
L 125.916777 227.881105 
L 126.040013 228.007416 
L 126.409723 229.166507 
L 127.51885 232.799813 
L 127.642087 232.851823 
L 127.765323 233.817733 
L 128.011796 233.683991 
L 128.751215 235.340898 
L 129.24416 237.072104 
L 129.490633 237.413888 
L 129.737106 238.104884 
L 130.230052 239.6652 
L 130.599761 240.148154 
L 130.722997 240.229885 
L 131.339179 241.351826 
L 131.462416 241.247805 
L 131.955361 241.953662 
L 132.571543 242.629798 
L 132.69478 242.622368 
L 133.064489 243.239064 
L 133.187725 243.276215 
L 133.434198 243.751739 
L 133.557435 243.580848 
L 133.680671 243.625428 
L 134.173617 245.037142 
L 134.42009 244.569047 
L 134.543326 244.539327 
L 134.789799 244.88111 
L 135.036272 244.84396 
L 135.282745 244.702789 
L 135.77569 246.069922 
L 136.145399 247.838279 
L 136.268636 247.771408 
L 136.761582 248.194923 
L 136.884818 247.994311 
L 137.131291 248.061181 
L 137.377764 246.86494 
L 137.624236 246.983821 
L 137.747473 246.768349 
L 137.870709 246.991251 
L 137.993946 246.92438 
L 138.240418 247.095272 
L 138.363655 247.050691 
L 138.610128 247.325604 
L 138.856601 247.437055 
L 138.979837 247.139852 
L 139.22631 248.061181 
L 139.472783 247.9423 
L 139.596019 247.94973 
L 139.719255 247.763978 
L 139.965728 248.053751 
L 140.088965 248.120622 
L 140.212201 248.031461 
L 140.335438 248.358384 
L 140.58191 247.147282 
L 140.828383 246.627177 
L 140.95162 247.466775 
L 141.321329 246.374555 
L 141.814275 245.438366 
L 141.937511 245.765289 
L 142.060747 245.720708 
L 142.30722 246.188803 
L 142.923402 246.582597 
L 143.046639 246.983821 
L 143.293112 246.805499 
L 143.416348 246.85751 
L 143.662821 246.634607 
L 143.786057 246.9541 
L 144.03253 246.679188 
L 144.155766 246.604887 
L 144.279003 246.768349 
L 144.402239 246.523156 
L 145.141658 247.830849 
L 145.511367 248.492125 
L 146.004313 249.101391 
L 146.374022 249.331724 
L 146.620495 249.487755 
L 147.11344 249.896409 
L 147.236677 249.94842 
L 147.606386 250.810308 
L 148.83875 252.630676 
L 148.961987 252.630676 
L 149.085223 252.942739 
L 149.331696 252.630676 
L 149.947878 252.548945 
L 150.194351 252.652966 
L 150.440824 252.697546 
L 150.687296 252.950169 
L 150.933769 253.581725 
L 151.180242 253.269662 
L 151.426715 253.269662 
L 151.796424 253.499994 
L 151.919661 253.760047 
L 152.042897 253.700606 
L 152.166133 253.462844 
L 152.412606 253.856638 
L 152.905552 254.05725 
L 153.028788 253.797197 
L 153.275261 254.525344 
L 153.891443 255.773596 
L 154.137916 256.457163 
L 154.384389 256.093089 
L 154.754098 256.278841 
L 154.877335 256.055939 
L 155.247044 256.360572 
L 155.493517 256.531464 
L 155.616753 256.479453 
L 155.863226 256.947548 
L 156.479408 257.259611 
L 156.602644 257.764856 
L 156.725881 257.772286 
L 157.09559 257.111009 
L 157.218826 257.17045 
L 157.342063 257.103579 
L 157.588536 257.385922 
L 157.711772 257.326481 
L 157.835009 258.24781 
L 158.204718 257.660835 
L 158.451191 257.935747 
L 158.697663 258.17351 
L 159.190609 258.25524 
L 159.806791 259.22858 
L 159.930028 259.146849 
L 160.1765 259.19886 
L 160.299737 259.183999 
L 160.54621 259.585223 
L 160.669446 259.622374 
L 160.792682 260.075608 
L 161.039155 260.090468 
L 161.162392 259.971587 
L 161.285628 259.555503 
L 161.408865 259.681814 
L 161.778574 260.573423 
L 161.90181 260.387671 
L 162.025047 260.439682 
L 162.148283 260.655154 
L 162.271519 260.484262 
L 162.641229 261.361011 
L 163.380647 263.716344 
L 163.62712 263.820365 
L 163.750356 263.812934 
L 164.120066 264.518791 
L 164.366539 264.697113 
L 164.613011 264.838284 
L 164.859484 264.890295 
L 165.229193 264.741693 
L 165.475666 264.875435 
L 165.598903 264.905155 
L 165.722139 265.053757 
L 165.845375 264.726833 
L 165.968612 264.838284 
L 166.091848 264.600522 
L 166.215085 264.652533 
L 166.338321 265.284089 
L 166.461558 265.209788 
L 166.584794 264.511361 
L 166.70803 264.920015 
L 167.200976 263.419141 
L 167.447449 263.225959 
L 167.570685 263.263109 
L 167.693922 263.151658 
L 167.817158 263.508302 
L 167.940395 263.36713 
L 168.063631 263.656903 
L 168.310104 263.634613 
L 168.803049 264.489071 
L 168.926286 264.451921 
L 169.049522 264.600522 
L 169.172759 264.533651 
L 169.295995 264.749124 
L 169.542468 264.630242 
L 169.912177 263.976396 
L 170.035414 263.902095 
L 170.15865 263.968966 
L 170.405123 263.664333 
L 170.528359 263.493441 
L 170.651596 263.590032 
L 171.021305 263.218529 
L 171.267778 263.552882 
L 171.391014 263.181378 
L 171.637487 263.39685 
L 171.760723 263.159088 
L 172.007196 263.560312 
L 172.376905 263.753494 
L 172.623378 263.515732 
L 172.746615 263.642043 
L 172.869851 263.530592 
L 172.993088 263.746064 
L 173.116324 263.567742 
L 173.362797 263.768354 
L 173.60927 263.604892 
L 173.732506 263.567742 
L 174.102215 262.416081 
L 174.225452 262.401221 
L 174.471925 262.081728 
L 174.595161 262.30463 
L 174.718397 261.873686 
L 174.841634 262.096588 
L 175.211343 261.769665 
L 175.457816 262.156028 
L 175.581052 261.881116 
L 175.827525 261.843965 
L 175.950762 261.591343 
L 176.197234 261.628493 
L 176.443707 261.353581 
L 176.69018 261.472462 
L 177.059889 261.353581 
L 177.306362 261.673074 
L 177.799308 261.606203 
L 178.045781 261.152969 
L 178.292253 260.944927 
L 178.538726 261.100958 
L 178.661963 260.974647 
L 178.908436 260.3208 
L 179.031672 260.365381 
L 179.278145 260.30594 
L 180.1408 260.328231 
L 180.633745 261.309 
L 180.756982 261.197549 
L 180.880218 260.930066 
L 181.003455 261.004367 
L 181.126691 260.944927 
L 181.742873 261.33872 
L 181.866109 261.32386 
L 182.112582 261.576483 
L 182.235819 261.32386 
L 182.359055 261.442741 
L 182.605528 261.754804 
L 182.852001 261.925696 
L 182.975237 262.118878 
L 183.098474 262.059437 
L 183.468183 262.839595 
L 183.591419 262.453231 
L 183.837892 262.936186 
L 183.961129 262.780154 
L 184.084365 262.861885 
L 184.207601 262.683563 
L 184.454074 263.34484 
L 184.577311 263.263109 
L 184.823783 262.661273 
L 185.193493 263.3597 
L 185.809675 263.203669 
L 186.179384 264.065557 
L 186.425857 264.035837 
L 186.67233 264.600522 
L 186.918802 264.652533 
L 187.165275 264.3479 
L 187.288512 264.860575 
L 187.411748 264.548512 
L 187.781457 264.778844 
L 188.02793 265.246938 
L 188.274403 265.313809 
L 188.397639 265.224648 
L 188.520876 265.336099 
L 188.644112 265.239508 
L 188.890585 264.808564 
L 189.013822 264.853145 
L 189.630004 263.961536 
L 189.75324 264.117567 
L 189.876476 263.946676 
L 189.999713 264.065557 
L 190.122949 263.664333 
L 190.369422 263.708913 
L 190.615895 263.159088 
L 190.739131 263.003057 
L 190.862368 262.609263 
L 190.985604 262.676133 
L 191.232077 263.36713 
L 191.355313 263.203669 
L 191.601786 263.842655 
L 191.725023 263.292829 
L 191.971496 263.961536 
L 192.094732 263.946676 
L 192.217968 264.154718 
L 192.341205 263.924386 
L 192.710914 263.887235 
L 193.20386 262.995627 
L 193.450332 263.196238 
L 193.820042 263.34484 
L 194.682697 264.957166 
L 194.805933 264.949736 
L 195.052406 265.469841 
L 195.298879 266.354019 
L 195.422115 266.279718 
L 195.668588 265.767043 
L 195.791824 265.781904 
L 196.161534 266.212848 
L 196.28477 266.628932 
L 196.408006 266.45061 
L 196.531243 266.027096 
L 196.654479 266.049386 
L 196.777716 265.908215 
L 197.024189 266.287149 
L 197.393898 266.495191 
L 197.640371 266.339159 
L 197.763607 266.3986 
L 197.886843 266.294579 
L 198.01008 266.747813 
L 198.133316 266.643792 
L 198.256553 266.851834 
L 198.379789 266.302009 
L 198.503026 266.4729 
L 198.872735 266.316869 
L 199.36568 266.948425 
L 199.488917 266.985575 
L 199.612153 266.673512 
L 200.105099 267.022726 
L 200.474808 267.594841 
L 200.844517 267.624562 
L 201.460699 268.211537 
L 201.707172 268.107516 
L 201.953645 268.137237 
L 202.323354 268.947114 
L 202.693064 268.51617 
L 202.939536 268.5236 
L 203.432482 268.835663 
L 203.555719 268.664772 
L 204.048664 269.103146 
L 204.295137 269.652971 
L 204.418373 269.600961 
L 204.664846 269.712412 
L 204.911319 269.809003 
L 205.157792 270.158216 
L 205.281028 269.965034 
L 206.143683 271.61451 
L 206.390156 272.238636 
L 206.759865 272.156906 
L 206.883102 272.149476 
L 207.376047 271.458479 
L 207.62252 272.023164 
L 207.868993 272.372378 
L 207.992229 272.446678 
L 208.238702 272.899913 
L 208.361939 272.751311 
L 208.608412 273.308567 
L 208.978121 273.085665 
L 209.224594 272.543269 
L 209.34783 272.327797 
L 209.471066 272.379808 
L 209.964012 274.207606 
L 210.210485 275.448428 
L 210.456958 275.834791 
L 210.580194 275.931382 
L 210.949903 275.084354 
L 211.07314 274.913462 
L 211.319613 274.207606 
L 211.442849 274.185315 
L 211.689322 274.452798 
L 212.059031 275.329546 
L 212.305504 275.195805 
L 212.42874 274.958043 
L 212.675213 274.274476 
L 212.79845 274.348777 
L 213.044923 275.455858 
L 213.168159 275.299826 
L 213.537868 274.527099 
L 213.784341 274.965473 
L 214.030814 276.258306 
L 214.277287 276.837851 
L 214.523759 277.031033 
L 214.893469 277.253935 
L 215.632887 277.045893 
L 215.87936 276.644669 
L 216.125833 276.904722 
L 216.249069 276.949302 
L 216.372306 277.187065 
L 216.742015 276.956732 
L 216.865251 277.083044 
L 216.988488 277.439687 
L 217.111724 277.432257 
L 217.358197 277.135054 
L 217.481433 277.573428 
L 217.851143 277.72946 
L 218.097616 277.982082 
L 218.467325 277.959792 
L 218.96027 279.163464 
L 219.083507 279.423516 
L 219.576453 278.546768 
L 219.699689 278.628499 
L 219.822925 278.858831 
L 220.069398 279.512677 
L 220.315871 278.361016 
L 220.439107 278.717659 
L 220.562344 278.323866 
L 220.808817 278.346156 
L 221.055289 278.517047 
L 221.301762 278.494757 
L 221.917944 279.601838 
L 222.164417 280.040212 
L 222.41089 279.743009 
L 222.657363 279.683569 
L 222.780599 280.055072 
L 222.903836 280.003062 
L 223.150309 280.389426 
L 223.273545 280.218534 
L 223.396781 280.374566 
L 223.520018 279.928761 
L 223.643254 279.943621 
L 223.889727 280.218534 
L 224.382673 279.393796 
L 224.752382 279.84703 
L 225.122091 280.107083 
L 225.245328 280.069933 
L 225.368564 279.653849 
L 225.738273 280.374566 
L 225.86151 280.471156 
L 225.984746 280.389426 
L 226.231219 280.084793 
L 226.354455 280.062503 
L 226.724165 280.352275 
L 226.847401 280.389426 
L 227.21711 280.240824 
L 227.340347 280.248254 
L 227.58682 280.84266 
L 227.710056 280.686629 
L 227.833292 281.058132 
L 227.956529 281.065562 
L 228.079765 281.206734 
L 228.572711 280.87238 
L 229.065656 282.217223 
L 229.188893 281.786279 
L 229.312129 281.793709 
L 229.805075 281.221594 
L 230.174784 280.396856 
L 230.298021 280.582608 
L 230.421257 280.471156 
L 230.66773 279.81731 
L 231.530385 281.266174 
L 231.653621 281.214164 
L 231.900094 281.622818 
L 232.02333 281.503937 
L 232.39304 280.78322 
L 232.516276 280.679199 
L 232.639513 280.411716 
L 232.762749 280.530597 
L 233.132458 280.285405 
L 233.255695 280.352275 
L 233.378931 280.248254 
L 233.74864 281.340475 
L 233.871877 281.199304 
L 234.11835 281.711979 
L 234.241586 281.741699 
L 234.857768 283.205423 
L 234.981004 283.108832 
L 235.227477 282.759619 
L 235.597186 283.049392 
L 235.720423 283.049392 
L 236.213369 282.573867 
L 236.336605 282.336105 
L 236.706314 283.361455 
L 236.952787 283.056822 
L 237.19926 282.648168 
L 237.568969 283.227713 
L 237.815442 283.680948 
L 237.938678 283.93357 
L 238.185151 283.532346 
L 238.431624 283.666088 
L 238.678097 283.89642 
L 238.801333 283.8667 
L 238.92457 283.614077 
L 239.047806 283.718098 
L 239.171043 283.591787 
L 239.294279 283.242573 
L 239.540752 284.661717 
L 239.787225 285.077801 
L 240.156934 284.349654 
L 240.64988 285.456735 
L 240.896352 284.90691 
L 241.019589 285.025791 
L 241.142825 243.320795 
L 241.266062 284.297644 
L 242.00548 284.186193 
L 242.375189 285.419585 
L 242.498426 285.285843 
L 242.621662 285.761368 
L 243.114608 285.493885 
L 243.607553 287.113641 
L 243.73079 287.277103 
L 243.854026 286.749568 
L 243.977263 286.942749 
L 244.100499 286.846159 
L 244.470208 287.202802 
L 244.593445 286.9799 
L 244.839918 287.135931 
L 245.08639 287.00219 
L 245.209627 286.645547 
L 245.332863 286.883309 
L 245.579336 287.878939 
L 245.702573 287.797208 
L 246.072282 286.645547 
L 246.195518 286.801578 
L 246.318755 286.645547 
L 246.8117 287.968099 
L 247.058173 287.232522 
L 247.18141 286.883309 
L 247.304646 286.883309 
L 247.551119 287.121071 
L 247.797592 287.284533 
L 248.044064 287.247382 
L 248.290537 287.336543 
L 248.660247 288.406474 
L 248.783483 288.332173 
L 249.029956 287.425704 
L 249.153192 287.611456 
L 249.276429 287.336543 
L 249.646138 288.733397 
L 250.015847 288.332173 
L 250.139083 288.361893 
L 250.26232 288.629376 
L 250.385556 288.592225 
L 250.508793 288.807698 
L 250.632029 288.755687 
L 250.755266 288.844848 
L 251.248211 288.458484 
L 251.494684 289.290652 
L 251.741157 289.112331 
L 251.98763 288.205862 
L 252.357339 288.503065 
L 252.603812 289.320373 
L 252.973521 288.807698 
L 253.219994 288.941439 
L 253.466467 289.1049 
L 254.082649 288.956299 
L 254.329122 289.149481 
L 254.452358 289.654726 
L 254.575594 289.558135 
L 254.822067 288.480774 
L 254.945304 288.243012 
L 255.06854 288.280162 
L 255.191777 288.176141 
L 255.315013 288.532785 
L 255.561486 290.620635 
L 255.931195 288.963729 
L 256.054431 288.792837 
L 256.177668 289.253502 
L 256.300904 289.08261 
L 256.424141 289.119761 
L 256.670613 289.974219 
L 256.79385 289.922208 
L 257.163559 290.182261 
L 257.410032 291.415653 
L 257.533268 291.452803 
L 257.902978 290.472034 
L 258.026214 290.538904 
L 258.272687 290.449744 
L 258.51916 291.371073 
L 259.012105 290.345723 
L 259.258578 290.680076 
L 259.381815 290.576055 
L 259.505051 290.954988 
L 259.628287 290.836107 
L 259.997997 291.229901 
L 260.24447 291.638555 
L 260.490942 292.039779 
L 260.860652 291.10359 
L 260.983888 291.170461 
L 261.230361 291.267052 
L 261.353597 291.668275 
L 261.476834 292.819937 
L 261.60007 292.411283 
L 261.846543 291.274482 
L 261.969779 291.044149 
L 262.093016 291.378503 
L 262.216252 291.378503 
L 262.339489 291.08873 
L 262.462725 291.229901 
L 262.709198 290.865828 
L 263.078907 291.445373 
L 263.202143 291.259621 
L 263.448616 291.772296 
L 263.571853 291.735146 
L 263.818326 291.534534 
L 264.311271 291.995199 
L 264.434508 292.262681 
L 264.68098 291.638555 
L 265.543635 292.195811 
L 265.913345 292.18838 
L 266.283054 293.614954 
L 266.40629 293.414342 
L 266.529527 293.652105 
L 266.652763 293.273171 
L 266.899236 293.369762 
L 267.268945 294.402542 
L 267.392182 295.011808 
L 267.515418 294.625444 
L 268.008364 294.818626 
L 268.254837 295.1827 
L 268.624546 295.257 
L 268.747782 295.034098 
L 268.871019 295.100969 
L 269.487201 296.200619 
L 269.85691 295.368451 
L 269.980146 295.27186 
L 270.226619 295.509623 
L 270.473092 295.405602 
L 270.966038 294.922647 
L 271.089274 294.818626 
L 271.458983 295.167839 
L 271.705456 295.138119 
L 272.198402 296.750445 
L 272.321638 296.705864 
L 272.568111 296.304641 
L 272.691347 296.029728 
L 272.93782 296.059448 
L 273.061057 296.349221 
L 273.30753 297.181389 
L 273.677239 296.052018 
L 273.923712 296.356651 
L 274.170184 296.200619 
L 274.293421 296.319501 
L 274.66313 295.747385 
L 274.909603 296.349221 
L 275.032839 296.27492 
L 275.402549 296.170899 
L 275.649021 295.539343 
L 275.772258 296.044588 
L 276.018731 295.977717 
L 276.141967 296.28235 
L 276.511676 295.598784 
L 277.004622 295.21985 
L 277.251095 295.375881 
L 277.620804 294.974658 
L 277.74404 295.026668 
L 278.11375 296.364081 
L 278.236986 296.408662 
L 278.483459 296.052018 
L 278.976405 296.014868 
L 279.222877 296.378941 
L 279.46935 296.163469 
L 279.715823 296.28235 
L 279.962296 296.371511 
L 280.332005 296.936197 
L 280.578478 296.936197 
L 280.701714 296.824746 
L 281.071424 298.26618 
L 281.441133 297.619763 
L 281.564369 297.701494 
L 281.810842 298.072998 
L 281.934079 298.013557 
L 282.180551 298.667403 
L 282.427024 298.221599 
L 282.550261 298.2959 
L 282.796734 298.749134 
L 283.043206 298.697124 
L 283.166443 298.853155 
L 283.412916 298.786285 
L 283.536152 298.838295 
L 283.659388 299.076057 
L 283.782625 299.061197 
L 283.905861 299.31382 
L 284.152334 299.105778 
L 284.398807 298.31076 
L 284.768516 297.129379 
L 284.891753 297.099658 
L 285.014989 297.441442 
L 285.261462 296.430952 
L 285.384698 295.903417 
L 285.507935 296.141179 
L 285.631171 295.925707 
L 285.754407 296.029728 
L 285.877644 295.673084 
L 286.00088 295.843976 
L 286.124117 295.613644 
L 286.37059 295.925707 
L 286.493826 295.829116 
L 286.617062 295.933137 
L 286.740299 296.185759 
L 286.863535 296.148609 
L 287.110008 296.475532 
L 287.233244 296.29721 
L 287.479717 296.445812 
L 287.602954 296.772735 
L 287.72619 297.575183 
L 287.849427 297.344851 
L 288.095899 298.206739 
L 288.219136 297.961547 
L 288.588845 298.125008 
L 288.835318 298.147298 
L 289.081791 298.511372 
L 289.821209 298.726844 
L 289.944446 298.853155 
L 290.067682 298.808575 
L 290.190918 299.232089 
L 290.314155 299.252893 
L 290.560628 298.786285 
L 290.683864 299.135498 
L 290.930337 298.711984 
L 291.053573 298.667403 
L 291.17681 298.771424 
L 291.546519 298.102718 
L 291.792992 298.169589 
L 292.039465 298.489082 
L 292.285937 298.35534 
L 292.409174 298.444501 
L 292.53241 298.377631 
L 292.778883 298.607963 
L 292.90212 298.533662 
L 293.764774 296.468102 
L 293.888011 296.453242 
L 294.134484 295.866266 
L 294.25772 296.022298 
L 294.627429 295.717665 
L 294.750666 295.725095 
L 295.366848 296.356651 
L 295.859794 297.775795 
L 295.98303 297.404291 
L 296.106266 297.508312 
L 296.599212 297.062508 
L 296.722448 297.055078 
L 296.968921 297.530602 
L 297.215394 296.787595 
L 297.338631 296.921337 
L 297.70834 296.364081 
L 297.954813 296.646424 
L 298.078049 296.542403 
L 298.201285 296.705864 
L 298.324522 296.520113 
L 298.570995 297.151669 
L 298.817467 297.389431 
L 299.556886 296.364081 
L 299.680122 295.992577 
L 299.803359 295.985147 
L 299.926595 295.836546 
L 300.049832 295.895987 
L 300.296304 295.747385 
L 300.542777 295.806826 
L 300.78925 295.873696 
L 301.035723 295.858836 
L 301.158959 295.933137 
L 301.282196 296.319501 
L 301.405432 296.25263 
L 301.651905 296.691004 
L 301.775141 296.512683 
L 302.021614 296.802455 
L 302.144851 296.534973 
L 302.391324 296.653854 
L 302.761033 297.30027 
L 303.130742 296.906476 
L 303.253978 296.861896 
L 303.623688 297.188819 
L 303.870161 297.27798 
L 303.993397 297.619763 
L 304.23987 297.188819 
L 304.363106 297.121948 
L 304.609579 297.144239 
L 304.856052 297.597473 
L 304.979288 297.359711 
L 305.102525 297.523172 
L 305.225761 297.203679 
L 305.348997 297.404291 
L 305.472234 297.3077 
L 305.59547 297.040218 
L 305.718707 297.159099 
L 305.841943 296.720725 
L 305.96518 296.809885 
L 306.088416 296.594413 
L 306.211652 296.683574 
L 306.458125 296.29721 
L 306.827834 296.312071 
L 307.444017 296.809885 
L 307.690489 297.694064 
L 307.936962 298.013557 
L 308.183435 297.738644 
L 308.429908 297.486022 
L 308.676381 297.835235 
L 308.799617 298.2959 
L 309.04609 297.27055 
L 309.539036 296.943627 
L 309.785508 297.107088 
L 310.031981 297.151669 
L 310.278454 297.129379 
L 310.524927 297.166529 
L 310.7714 297.478592 
L 311.264345 296.869326 
L 311.634055 297.523172 
L 311.757291 297.478592 
L 312.003764 297.166529 
L 312.127 297.121948 
L 312.250237 296.921337 
L 312.373473 297.129379 
L 312.743182 297.196249 
L 312.989655 297.29284 
L 313.112892 297.26312 
L 313.729074 298.964606 
L 313.85231 298.979467 
L 313.975547 298.451931 
L 314.345256 298.25875 
L 314.591729 298.986897 
L 314.714965 300.071687 
L 315.207911 298.028417 
L 315.454384 298.392491 
L 315.947329 298.563382 
L 316.070566 298.437071 
L 316.193802 298.555952 
L 316.686748 299.826495 
L 316.933221 299.128068 
L 317.30293 298.868015 
L 317.426166 298.838295 
L 317.672639 299.477281 
L 318.042348 298.229029 
L 318.288821 297.983837 
L 318.412058 298.429641 
L 318.65853 297.968977 
L 318.781767 297.850096 
L 318.905003 297.530602 
L 319.151476 298.27361 
L 319.521185 298.868015 
L 319.644422 299.038907 
L 319.767658 298.824921 
L 320.137367 297.716354 
L 320.38384 297.968977 
L 320.507077 298.615393 
L 321.000022 297.850096 
L 321.246495 297.954117 
L 321.492968 298.147298 
L 321.739441 298.072998 
L 321.862677 298.206739 
L 321.985914 297.931826 
L 322.232386 299.098348 
L 322.355623 299.261809 
L 322.478859 299.774484 
L 322.725332 299.833925 
L 322.848568 299.457963 
L 323.095041 299.581302 
L 323.218278 299.819065 
L 323.341514 299.566442 
L 323.587987 300.116268 
L 323.83446 299.34354 
L 324.080933 299.440131 
L 324.573878 299.492142 
L 324.697115 299.752194 
L 324.820351 299.633313 
L 325.066824 300.3466 
L 325.436533 301.446251 
L 325.55977 301.632002 
L 325.806242 301.42396 
L 326.052715 301.42396 
L 326.175952 301.319939 
L 326.668897 301.535411 
L 326.91537 301.37195 
L 327.038607 301.35709 
L 327.531552 300.725534 
L 327.778025 300.658663 
L 327.901261 300.666093 
L 328.270971 301.089607 
L 328.517444 301.736023 
L 328.64068 301.958926 
L 328.763916 301.854904 
L 329.133626 301.275359 
L 329.380098 301.312509 
L 329.873044 299.841355 
L 330.612463 299.551582 
L 330.858935 299.202369 
L 330.982172 299.135498 
L 331.351881 299.737334 
L 331.598354 299.826495 
L 331.72159 299.32868 
L 331.844827 299.33611 
L 332.0913 299.967666 
L 332.214536 299.663033 
L 332.584245 300.851845 
L 332.830718 299.819065 
L 333.200427 299.856215 
L 333.323664 299.707614 
L 333.570137 299.789344 
L 333.693373 299.232089 
L 333.939846 299.796774 
L 334.309555 300.131128 
L 334.432791 300.116268 
L 334.556028 299.744764 
L 334.802501 300.019677 
L 334.925737 300.562072 
L 335.17221 297.850096 
L 335.418683 297.879816 
L 335.665156 298.080428 
L 335.788392 298.243889 
L 335.911628 298.080428 
L 336.651047 299.246949 
L 336.774283 299.573872 
L 336.89752 299.454991 
L 337.020756 299.900795 
L 337.143993 299.811635 
L 337.267229 299.885935 
L 337.513702 299.521862 
L 337.636938 299.900795 
L 337.760175 299.194939 
L 337.883411 299.551582 
L 338.129884 298.756564 
L 338.746066 296.430952 
L 339.115775 294.811196 
L 339.731957 293.072559 
L 339.855194 293.13943 
L 340.224903 292.611895 
L 341.087558 293.132 
L 341.457267 293.600094 
L 341.580504 293.637245 
L 341.826976 293.860147 
L 341.950213 293.800706 
L 342.073449 208.027952 
L 342.196686 208.027952 
L 342.319922 294.001318 
L 342.443158 251.300693 
L 342.566395 294.253941 
L 342.689631 294.23165 
L 342.936104 294.424832 
L 343.059341 294.959797 
L 343.305813 294.432262 
L 343.42905 294.610584 
L 343.798759 293.993888 
L 343.921995 294.120199 
L 344.168468 294.365392 
L 344.291705 294.536283 
L 344.661414 293.793276 
L 345.031123 293.927017 
L 345.277596 293.748696 
L 345.524069 293.949308 
L 345.770542 293.704115 
L 345.893778 293.815566 
L 346.140251 294.350531 
L 346.386724 293.875007 
L 346.633197 293.340042 
L 347.002906 292.953678 
L 347.126142 292.938818 
L 347.249379 294.439692 
L 347.495851 293.11714 
L 347.619088 250.163892 
L 347.865561 36.19267 
L 348.112034 291.579115 
L 348.23527 291.445373 
L 349.097925 292.218101 
L 349.344398 292.812507 
L 349.467634 292.797646 
L 349.714107 293.302891 
L 349.96058 292.745636 
L 350.207053 292.017489 
L 350.823235 290.12282 
L 351.68589 289.00831 
L 351.809126 289.09004 
L 351.932362 289.01574 
L 352.055599 289.201491 
L 352.178835 289.989079 
L 352.302072 288.384183 
L 352.425308 288.376753 
L 352.671781 289.09004 
L 353.164727 286.01399 
L 353.411199 285.605336 
L 353.657672 285.590476 
L 354.397091 285.657347 
L 354.890036 285.649917 
L 355.013273 285.597906 
L 355.382982 285.95455 
L 355.506218 285.9917 
L 355.629455 285.724218 
L 355.752691 285.724218 
L 355.875928 285.872819 
L 355.999164 285.835669 
L 356.245637 285.94712 
L 356.368873 285.761368 
L 356.49211 285.805948 
L 356.615346 285.642487 
L 356.738583 285.694497 
L 356.861819 285.479025 
L 357.108292 285.605336 
L 357.231528 285.419585 
L 357.84771 286.118011 
L 358.094183 286.474655 
L 358.710365 285.471595 
L 359.080075 286.110581 
L 359.203311 286.043711 
L 359.449784 285.204113 
L 359.942729 284.788028 
L 360.065966 284.706298 
L 360.189202 284.788028 
L 360.312439 284.676577 
L 360.435675 284.95149 
L 360.682148 284.869759 
L 360.928621 285.501315 
L 361.175094 285.055511 
L 361.421566 285.129812 
L 361.544803 285.865389 
L 361.668039 285.337854 
L 361.791276 285.583046 
L 362.037748 286.96504 
L 362.160985 286.96504 
L 362.407458 286.177452 
L 362.530694 286.110581 
L 362.777167 286.288903 
L 363.393349 286.288903 
L 363.516585 286.444935 
L 363.639822 286.392924 
L 363.763058 286.571246 
L 363.886295 287.03934 
L 364.132768 286.927889 
L 364.37924 286.459795 
L 364.502477 286.422644 
L 364.74895 286.95761 
L 364.872186 286.407784 
L 364.995422 286.563816 
L 365.241895 286.222032 
L 365.488368 287.04677 
L 365.734841 285.152102 
L 366.351023 283.710668 
L 366.474259 283.621507 
L 366.967205 284.104462 
L 367.336914 283.93357 
L 367.953096 285.560756 
L 368.199569 285.196682 
L 368.322806 285.330424 
L 368.446042 285.218973 
L 368.569278 285.441875 
L 368.815751 285.226403 
L 369.185461 285.330424 
L 369.431933 285.575616 
L 369.678406 286.170022 
L 369.924879 286.385494 
L 370.171352 285.545896 
L 370.294588 284.96635 
L 370.417825 285.122382 
L 370.541061 285.040651 
L 371.034007 284.290214 
L 371.28048 283.95586 
L 371.526952 283.576927 
L 371.650189 283.636367 
L 371.896662 283.458046 
L 372.019898 283.591787 
L 372.266371 283.444671 
L 372.63608 283.517486 
L 372.882553 283.643797 
L 373.005789 283.406035 
L 373.129026 283.495196 
L 373.252262 284.349654 
L 373.621972 284.067311 
L 373.868444 285.100092 
L 373.991681 285.010931 
L 374.114917 284.602277 
L 374.238154 284.736018 
L 374.36139 284.675091 
L 374.854336 285.731648 
L 375.224045 286.452365 
L 375.470518 287.061631 
L 375.840227 287.804638 
L 376.0867 287.306823 
L 376.333173 287.128501 
L 376.456409 287.04677 
L 376.702882 287.745197 
L 376.826118 288.607086 
L 376.949355 288.562505 
L 377.195828 287.715477 
L 378.181719 286.8417 
L 378.304955 286.942749 
L 378.428192 286.853589 
L 378.551428 286.556386 
L 378.674665 286.756998 
L 378.921137 286.474655 
L 379.16761 285.813378 
L 379.414083 285.612767 
L 379.783792 286.370634 
L 380.153502 285.553326 
L 380.646447 286.392924 
L 380.89292 286.875879 
L 381.016156 286.771858 
L 381.632338 288.540215 
L 381.755575 288.324743 
L 381.878811 288.562505 
L 382.002048 288.302453 
L 382.125284 288.621946 
L 382.371757 288.666526 
L 382.741466 290.06338 
L 382.987939 289.625006 
L 383.111175 289.654726 
L 383.234412 289.870198 
L 383.357648 289.684446 
L 383.727358 290.10053 
L 383.850594 289.989079 
L 383.97383 289.677016 
L 384.34354 290.813817 
L 384.590012 292.203241 
L 384.713249 292.032349 
L 384.836485 292.084359 
L 385.206195 291.854027 
L 385.329431 291.861457 
L 385.452667 291.10359 
L 385.575904 291.177891 
L 385.69914 291.430513 
L 385.945613 290.011369 
L 386.808268 280.040212 
L 386.931504 279.876751 
L 387.301214 280.003062 
L 387.547686 280.515737 
L 387.794159 280.508307 
L 387.917396 280.270545 
L 388.656814 277.031033 
L 389.14976 272.491259 
L 389.765942 266.101397 
L 390.382124 259.25087 
L 390.50536 258.797636 
L 390.751833 257.073859 
L 390.87507 256.917827 
L 391.368015 254.406463 
L 391.614488 254.034959 
L 391.860961 253.388543 
L 392.107434 253.819487 
L 392.23067 254.309872 
L 392.353907 253.893788 
L 392.600379 254.250431 
L 392.970089 255.09746 
L 393.95598 258.292391 
L 394.325689 258.983387 
L 394.695399 259.562933 
L 394.941871 259.518353 
L 395.311581 260.023598 
L 395.68129 260.707164 
L 395.927763 261.108388 
L 396.050999 261.138108 
L 396.297472 261.925696 
L 396.667181 262.891606 
L 396.913654 263.40428 
L 397.529836 265.180068 
L 398.146018 264.39248 
L 398.269255 265.328669 
L 398.392491 264.845715 
L 399.008673 265.40297 
L 399.378382 266.606642 
L 399.871328 266.970715 
L 400.117801 267.324387 
L 400.48751 268.731642 
L 400.610746 268.791083 
L 400.733983 268.382429 
L 400.980456 268.857954 
L 401.226929 269.244317 
L 402.089583 270.968094 
L 402.336056 271.711101 
L 403.075475 270.871503 
L 403.198711 270.960664 
L 403.445184 271.54764 
L 403.814893 271.5625 
L 404.431075 272.751311 
L 405.170494 274.571679 
L 405.29373 275.537589 
L 405.540203 275.552449 
L 405.663439 275.099214 
L 405.786676 275.203235 
L 406.156385 276.236015 
L 406.402858 276.206295 
L 406.526094 276.473778 
L 406.649331 276.369757 
L 407.01904 276.822991 
L 407.265513 277.209355 
L 407.881695 278.048953 
L 408.004931 278.011803 
L 408.128168 278.152974 
L 408.374641 278.004373 
L 408.497877 278.212415 
L 408.621113 277.417397 
L 408.867586 277.7146 
L 408.990823 277.684879 
L 409.114059 277.915212 
L 409.237296 277.692309 
L 409.360532 277.76661 
L 409.607005 277.083044 
L 409.853478 276.934442 
L 410.09995 277.090474 
L 410.592896 277.915212 
L 411.085842 279.408656 
L 411.332315 280.255684 
L 411.702024 279.705859 
L 411.82526 279.631558 
L 411.948497 279.750439 
L 412.071733 280.114513 
L 412.194969 279.869321 
L 412.441442 280.81294 
L 412.564679 280.300265 
L 412.811152 280.478587 
L 413.057624 280.85752 
L 413.304097 281.050702 
L 413.55057 281.221594 
L 414.289989 282.492136 
L 414.659698 281.972031 
L 414.906171 282.551577 
L 415.27588 283.339164 
L 415.522353 282.975091 
L 416.508244 283.510056 
L 416.754717 283.324304 
L 417.00119 283.472906 
L 417.247662 283.383745 
L 417.370899 283.272294 
L 417.494135 283.316874 
L 417.617372 283.227713 
L 417.863845 283.339164 
L 417.987081 282.989951 
L 418.233554 283.532346 
L 418.35679 283.339164 
L 418.480027 282.90822 
L 418.726499 283.160843 
L 419.219445 283.591787 
L 419.342682 283.562067 
L 419.589154 283.302014 
L 419.712391 283.391175 
L 419.835627 283.279724 
L 419.958864 282.982521 
L 420.0821 283.086542 
L 420.205336 283.004811 
L 420.328573 283.064252 
L 420.451809 282.759619 
L 420.575046 282.774479 
L 420.821519 283.168273 
L 421.067991 282.700178 
L 421.191228 282.663028 
L 421.314464 282.819059 
L 421.437701 282.729898 
L 421.560937 282.91565 
L 421.684173 282.85621 
L 421.930646 283.041962 
L 422.546828 282.692748 
L 422.793301 282.89336 
L 422.916538 282.722468 
L 423.16301 282.833919 
L 423.409483 282.559007 
L 423.53272 282.663028 
L 423.655956 282.499566 
L 424.025665 283.487766 
L 424.148902 283.859269 
L 424.518611 283.784969 
L 425.134793 284.030161 
L 425.258029 284.186193 
L 425.381266 284.052451 
L 425.627739 284.542836 
L 425.874212 285.144672 
L 425.997448 285.322994 
L 426.120684 285.159532 
L 426.243921 285.620197 
L 426.490394 285.055511 
L 427.106576 285.278413 
L 427.599521 284.94406 
L 428.462176 282.752189 
L 428.708649 283.019671 
L 428.955122 282.685318 
L 429.324831 281.444496 
L 429.571304 280.604898 
L 429.817777 280.374566 
L 429.941013 280.582608 
L 430.06425 281.177013 
L 430.310723 280.389426 
L 430.926905 280.991262 
L 431.050141 280.81294 
L 431.296614 281.006122 
L 432.036032 280.374566 
L 432.405742 278.234705 
L 432.652214 276.68925 
L 432.775451 276.555508 
L 432.898687 276.139424 
L 433.021924 276.941872 
L 433.268396 275.329546 
L 433.514869 274.965473 
L 433.638106 275.411277 
L 434.007815 273.761801 
L 434.131051 272.899913 
L 434.254288 272.877623 
L 434.500761 272.476399 
L 434.623997 272.959353 
L 434.87047 272.781032 
L 435.363416 271.59965 
L 435.609888 271.421328 
L 435.733125 271.659091 
L 435.979598 272.513549 
L 436.102834 272.491259 
L 436.349307 272.855332 
L 436.59578 273.531469 
L 436.842253 274.348777 
L 437.088725 274.371067 
L 437.211962 274.393357 
L 437.828144 275.470718 
L 438.074617 274.177885 
L 438.444326 272.699301 
L 438.567562 272.364948 
L 438.814035 272.439248 
L 439.183744 271.332168 
L 439.306981 271.168706 
L 439.430217 270.752622 
L 439.553454 270.871503 
L 439.67669 270.447989 
L 439.799926 270.604021 
L 440.416109 270.52972 
L 440.662581 270.760052 
L 440.785818 270.752622 
L 440.909054 270.945804 
L 441.155527 270.886363 
L 441.278763 271.064685 
L 441.402 270.997814 
L 441.894946 272.171766 
L 442.264655 272.030594 
L 442.511128 272.216346 
L 442.880837 272.260927 
L 443.004073 272.127185 
L 443.12731 272.164336 
L 443.373783 271.971154 
L 443.497019 272.156906 
L 443.620255 271.963724 
L 443.989965 272.625 
L 444.359674 271.54021 
L 444.606147 271.451049 
L 444.729383 271.60708 
L 445.099092 271.168706 
L 445.222329 271.116696 
L 445.345565 271.198426 
L 445.961747 270.901223 
L 446.331456 271.079545 
L 446.577929 271.168706 
L 446.701166 271.495629 
L 446.947639 271.213286 
L 447.070875 271.183566 
L 447.317348 270.975524 
L 447.440584 271.034965 
L 447.810293 272.283217 
L 448.056766 272.090035 
L 448.672948 273.048514 
L 448.796185 272.944493 
L 449.65884 274.393357 
L 449.905313 273.977273 
L 450.151785 273.524039 
L 450.644731 273.6132 
L 450.767967 273.420018 
L 450.891204 273.524039 
L 451.01444 273.204546 
L 451.384149 273.917833 
L 452.123568 274.831732 
L 452.616514 276.496068 
L 452.73975 276.436627 
L 452.862986 276.429197 
L 453.109459 276.161715 
L 453.355932 276.406907 
L 453.725641 277.855771 
L 453.972114 277.105334 
L 454.218587 276.949302 
L 454.46506 277.387677 
L 454.958006 278.100963 
L 455.327715 279.029722 
L 455.574188 279.743009 
L 455.697424 280.056558 
L 456.19037 280.154635 
L 456.436843 280.404286 
L 456.560079 280.686629 
L 456.929788 279.75787 
L 457.299497 279.661279 
L 457.422734 279.951051 
L 457.54597 279.861891 
L 457.669207 280.010492 
L 457.792443 279.958482 
L 458.038916 280.107083 
L 458.162152 279.78759 
L 458.655098 280.974915 
L 458.778334 280.552887 
L 458.901571 280.961541 
L 459.024807 280.778761 
L 459.148044 280.903587 
L 459.27128 280.760929 
L 459.394516 281.065562 
L 459.517753 280.939251 
L 459.764226 281.177013 
L 459.887462 281.251314 
L 460.133935 281.630248 
L 460.257171 281.541087 
L 460.380408 281.682258 
L 460.626881 281.154723 
L 461.243063 279.029722 
L 461.366299 279.20953 
L 461.612772 279.096593 
L 461.736008 279.690999 
L 461.859245 278.442747 
L 462.105718 278.479897 
L 462.475427 278.888551 
L 463.707791 280.931821 
L 463.954264 281.117573 
L 464.0775 281.162153 
L 464.200737 281.481646 
L 464.323973 281.258744 
L 464.44721 281.83086 
L 464.570446 281.83086 
L 464.940155 281.001664 
L 465.309864 280.038726 
L 465.433101 280.017922 
L 465.926046 279.319495 
L 466.295756 279.274915 
L 466.418992 279.215474 
L 466.542229 279.282345 
L 466.665465 279.215474 
L 466.788701 279.341786 
L 466.911938 279.208044 
L 467.158411 279.80245 
L 467.281647 279.690999 
L 467.52812 280.337415 
L 467.651356 280.529111 
L 467.897829 280.604898 
L 468.021066 280.769845 
L 468.267538 281.347905 
L 468.390775 281.481646 
L 468.637248 281.912591 
L 468.760484 281.986891 
L 469.006957 282.269234 
L 469.130193 282.217223 
L 469.376666 282.343535 
L 469.623139 282.187503 
L 469.746375 281.934881 
L 470.116085 282.135493 
L 470.362557 282.737329 
L 470.485794 282.606559 
L 470.732267 282.90822 
L 471.718158 283.420895 
L 471.841394 283.420895 
L 472.33434 283.985581 
L 472.580813 284.104462 
L 472.704049 284.238203 
L 472.827286 284.163902 
L 473.196995 285.055511 
L 473.320231 284.862329 
L 473.443468 284.98121 
L 473.813177 283.770109 
L 473.936413 283.532346 
L 474.429359 283.718098 
L 474.922305 282.388115 
L 475.292014 281.058132 
L 475.78496 281.028412 
L 475.908196 280.85009 
L 476.031433 281.013552 
L 476.277905 281.734269 
L 476.401142 281.813028 
L 476.524378 281.708264 
L 476.770851 281.886585 
L 476.894087 281.795195 
L 477.017324 282.243229 
L 477.387033 282.298954 
L 477.633506 282.090912 
L 477.879979 282.128063 
L 478.249688 282.744759 
L 478.742634 283.197993 
L 478.989107 284.483396 
L 479.235579 285.122382 
L 479.605289 284.587417 
L 479.851761 284.669147 
L 480.221471 285.122382 
L 480.344707 285.085231 
L 480.714416 285.352714 
L 480.837653 285.196682 
L 480.960889 285.315564 
L 481.207362 285.322994 
L 481.453835 285.397294 
L 481.823544 285.694497 
L 482.193253 286.348344 
L 482.31649 286.095721 
L 482.439726 286.489515 
L 482.562963 286.458309 
L 482.809435 285.887679 
L 483.179145 285.147644 
L 483.425617 283.94843 
L 483.67209 282.826489 
L 484.0418 280.129373 
L 485.890346 267.788023 
L 486.013582 267.691432 
L 486.260055 267.42395 
L 486.506528 266.822114 
L 486.999473 265.202358 
L 487.862128 262.178319 
L 487.985365 261.100958 
L 488.108601 261.093528 
L 488.231838 260.870626 
L 488.971256 257.987758 
L 489.094493 257.868877 
L 489.217729 257.593964 
L 489.833911 255.030589 
L 489.957147 254.874558 
L 490.326857 253.804627 
L 490.819802 253.335047 
L 491.189512 251.479014 
L 491.312748 251.427004 
L 491.435984 252.140291 
L 491.559221 251.909959 
L 491.682457 252.303753 
L 491.805694 252.170011 
L 491.92893 252.340903 
L 492.175403 252.155151 
L 492.298639 252.244312 
L 492.545112 251.627616 
L 493.531003 250.535395 
L 493.65424 250.520535 
L 493.900713 250.698857 
L 494.023949 251.00349 
L 494.516895 250.201042 
L 494.640131 250.357074 
L 494.763368 249.94099 
L 494.886604 250.215902 
L 495.133077 250.089591 
L 495.502786 248.677877 
L 495.626023 248.477265 
L 495.872495 247.91258 
L 495.995732 247.778839 
L 496.118968 247.310744 
L 496.242205 247.295884 
L 496.488677 246.998681 
L 496.981623 247.489066 
L 497.10486 247.615377 
L 497.474569 246.90209 
L 497.844278 247.97945 
L 498.213987 249.420884 
L 498.337224 249.450605 
L 500.062534 253.953229 
L 500.309006 253.819487 
L 500.432243 253.901218 
L 500.925188 255.520974 
L 501.048425 255.974208 
L 501.171661 255.929628 
L 501.418134 257.029278 
L 501.91108 258.143789 
L 502.034316 258.21066 
L 502.404025 257.779716 
L 502.527262 258.032338 
L 502.773735 258.604454 
L 503.020207 259.087409 
L 503.143444 259.094839 
L 503.26668 259.26573 
L 503.513153 259.23601 
L 503.759626 259.607514 
L 504.006099 260.045888 
L 504.129335 260.120189 
L 504.375808 260.595713 
L 504.622281 261.219839 
L 505.608172 263.129368 
L 505.731409 263.40428 
L 506.101118 265.44755 
L 506.347591 265.487673 
L 506.840536 266.636362 
L 507.087009 266.770103 
L 507.579955 267.832604 
L 508.196137 269.184877 
L 508.812319 269.52666 
L 508.935555 269.57124 
L 509.058792 269.875873 
L 509.551737 269.177447 
L 509.921447 270.106206 
L 510.16792 269.437499 
L 510.414392 269.370629 
L 510.537629 269.48951 
L 510.660865 269.340908 
L 511.030574 269.690122 
L 511.646757 270.997814 
L 511.769993 270.871503 
L 512.139702 272.186626 
L 512.386175 273.308567 
L 512.509411 273.353147 
L 512.755884 273.798952 
L 512.879121 291.16303 
L 513.002357 272.194056 
L 513.372066 269.927884 
L 513.495303 270.017045 
L 513.741776 269.578671 
L 513.988248 269.846153 
L 514.111485 269.942744 
L 514.850903 272.134615 
L 515.097376 272.268357 
L 515.220613 272.119755 
L 515.590322 271.347028 
L 515.713558 271.309877 
L 516.452977 267.550261 
L 517.438868 265.36582 
L 517.562104 265.358389 
L 517.685341 265.588722 
L 518.05505 264.459351 
L 518.301523 262.899036 
L 518.547996 262.163458 
L 518.671232 262.252619 
L 519.040941 261.063808 
L 519.164178 260.930066 
L 519.533887 261.28671 
L 519.657124 261.24956 
L 519.78036 261.34615 
L 520.026833 261.621063 
L 520.150069 261.680504 
L 520.889488 264.013546 
L 521.012724 263.827795 
L 521.135961 263.277969 
L 521.382433 263.240819 
L 521.50567 263.538022 
L 521.752143 264.496501 
L 521.998615 263.619753 
L 522.121852 263.656903 
L 522.245088 263.864945 
L 522.491561 263.671763 
L 522.614797 263.604892 
L 522.86127 263.686623 
L 523.107743 263.716344 
L 523.477452 264.36276 
L 523.847162 264.466781 
L 524.216871 263.538022 
L 524.340107 263.538022 
L 524.58658 264.266169 
L 524.709817 264.191868 
L 524.956289 263.909525 
L 525.079526 263.939246 
L 525.325999 264.162148 
L 525.942181 264.444491 
L 526.188654 264.726833 
L 526.31189 264.607952 
L 526.435126 264.281029 
L 527.051308 264.563372 
L 527.174545 264.563372 
L 527.297781 264.860575 
L 527.544254 265.670453 
L 527.790727 265.202358 
L 527.913963 265.217218 
L 528.776618 266.212848 
L 528.899855 266.777533 
L 529.023091 266.799824 
L 529.146327 267.163897 
L 529.269564 267.981205 
L 529.3928 268.010925 
L 529.639273 268.746502 
L 529.885746 268.865384 
L 530.008982 268.46416 
L 530.378692 269.110576 
L 530.625164 270.254807 
L 530.871637 269.927884 
L 531.11811 270.52972 
L 531.241347 270.485139 
L 531.487819 271.049825 
L 531.980765 271.510489 
L 532.104001 271.763112 
L 532.473711 273.368007 
L 532.596947 273.702361 
L 533.213129 271.881993 
L 533.582838 273.189686 
L 533.829311 272.342657 
L 534.075784 272.327797 
L 534.199021 272.320367 
L 534.815203 273.011364 
L 534.938439 272.989074 
L 535.431385 274.601399 
L 535.801094 274.512239 
L 536.047567 274.170455 
L 536.170803 274.044144 
L 536.540512 275.849652 
L 536.663749 275.493008 
L 536.786985 275.582169 
L 537.526404 277.090474 
L 537.772877 277.580858 
L 537.896113 277.513988 
L 538.142586 278.160404 
L 538.265822 277.848341 
L 538.389059 278.316436 
L 538.512295 278.264425 
L 538.635531 278.435317 
L 538.882004 278.294145 
L 539.005241 278.338726 
L 539.251714 278.138114 
L 539.37495 278.227275 
L 539.621423 277.915212 
L 540.237605 278.72509 
L 540.607314 278.420457 
L 540.977023 277.974652 
L 541.223496 277.818621 
L 541.469969 278.294145 
L 541.716442 277.881033 
L 541.839678 277.952362 
L 542.086151 277.551138 
L 542.332624 278.041523 
L 542.579097 277.75175 
L 542.948806 278.130684 
L 543.195279 278.554198 
L 543.441752 278.621069 
L 543.688224 278.73252 
L 543.934697 278.628499 
L 544.057934 278.895981 
L 544.18117 278.843971 
L 544.304407 279.185754 
L 544.550879 279.245195 
L 544.797352 278.539338 
L 545.043825 278.546768 
L 545.167061 279.044583 
L 545.413534 280.478587 
L 545.536771 279.965912 
L 545.783244 280.055072 
L 546.029716 280.530597 
L 546.152953 280.590038 
L 546.645898 281.734269 
L 546.892371 282.053762 
L 547.262081 283.339164 
L 547.385317 283.368885 
L 547.755026 281.496506 
L 547.878263 280.81294 
L 548.001499 280.902101 
L 548.124735 280.671768 
L 548.371208 281.058132 
L 548.494445 281.020982 
L 548.617681 281.110143 
L 548.740918 280.976401 
L 548.864154 281.169583 
L 548.98739 280.775789 
L 549.233863 281.385055 
L 549.480336 281.689688 
L 549.726809 282.024042 
L 549.850045 282.113202 
L 549.973282 282.462416 
L 550.219754 282.031472 
L 550.466227 281.85315 
L 550.7127 281.949741 
L 550.959173 281.85315 
L 551.328882 281.593097 
L 551.698591 280.983831 
L 551.821828 280.991262 
L 551.945064 280.775789 
L 552.068301 280.79808 
L 552.314774 280.671768 
L 552.684483 281.295895 
L 552.807719 281.072992 
L 553.177428 281.659968 
L 553.547138 281.659968 
L 553.793611 281.325615 
L 553.916847 281.533657 
L 554.16332 281.281034 
L 554.286556 281.184443 
L 554.533029 281.243884 
L 554.656265 281.541087 
L 555.025975 280.85009 
L 555.149211 281.087852 
L 555.395684 280.85009 
L 555.765393 280.753499 
L 555.88863 280.894671 
L 556.011866 281.347905 
L 556.874521 281.058132 
L 556.997757 280.87981 
L 557.120994 281.548517 
L 557.24423 281.437066 
L 557.490703 280.775789 
L 557.613939 280.85752 
L 557.737176 280.760929 
L 557.983649 280.991262 
L 558.106885 281.087852 
L 558.230121 280.983831 
L 558.96954 282.053762 
L 559.216013 283.294584 
L 559.708958 282.559007 
L 559.955431 282.529287 
L 560.078668 283.168273 
L 560.201904 283.168273 
L 560.448377 282.573867 
L 560.571613 282.514426 
L 560.69485 282.596157 
L 560.818086 282.365825 
L 561.064559 282.648168 
L 561.680741 283.168273 
L 562.173687 284.773168 
L 562.666632 283.643797 
L 563.036342 283.92614 
L 563.159578 283.859269 
L 563.406051 283.480336 
L 563.77576 283.740388 
L 564.391942 283.658657 
L 564.515179 283.428325 
L 564.761651 283.725528 
L 565.008124 283.235143 
L 565.254597 282.89336 
L 565.870779 279.884181 
L 565.994016 279.720719 
L 566.363725 278.643359 
L 566.856671 278.011803 
L 567.349616 277.74432 
L 567.842562 278.138114 
L 567.965798 278.338726 
L 568.089035 278.286715 
L 568.212271 278.673079 
L 568.335508 278.361016 
L 568.58198 279.00446 
L 569.074926 279.8396 
L 569.198162 279.7653 
L 569.321399 279.884181 
L 569.567872 280.367135 
L 570.060817 281.013552 
L 570.184054 280.78322 
L 570.30729 280.87238 
L 570.430527 281.355335 
L 570.553763 281.347905 
L 570.676999 281.451926 
L 571.046709 282.506996 
L 571.539654 282.432696 
L 571.786127 282.373255 
L 571.909364 283.056822 
L 572.155836 282.707608 
L 572.279073 282.729898 
L 573.141728 284.104462 
L 573.264964 283.94843 
L 573.511437 284.305074 
L 574.004383 286.192312 
L 574.250855 285.419585 
L 574.497328 284.557696 
L 574.620565 284.201053 
L 574.867038 284.490826 
L 574.990274 284.334794 
L 575.11351 283.941 
L 575.236747 284.097032 
L 575.729692 284.067311 
L 575.976165 284.253063 
L 576.345875 284.223343 
L 576.962057 285.360144 
L 577.085293 285.181822 
L 577.331766 284.446245 
L 577.455002 284.349654 
L 577.701475 284.490826 
L 577.824711 285.137242 
L 577.947948 284.98121 
L 578.071184 284.609707 
L 578.317657 284.617137 
L 578.440894 284.468535 
L 578.810603 284.691438 
L 579.180312 284.550266 
L 579.426785 284.698868 
L 579.796494 285.256123 
L 579.919731 285.114952 
L 580.166203 285.293273 
L 580.412676 284.98864 
L 580.659149 285.070371 
L 581.521804 285.100092 
L 581.768277 285.278413 
L 581.891513 285.248693 
L 582.01475 285.375004 
L 582.261222 285.174392 
L 582.630932 285.412155 
L 583.000641 285.99913 
L 583.37035 286.192312 
L 583.493587 285.902539 
L 583.616823 286.095721 
L 583.740059 286.593536 
L 583.986532 286.095721 
L 584.233005 286.385494 
L 584.356241 286.682697 
L 584.479478 286.444935 
L 584.725951 286.690127 
L 584.972424 286.712417 
L 585.09566 286.868449 
L 585.342133 286.861019 
L 585.465369 287.083921 
L 585.588606 286.942749 
L 585.711842 287.01705 
L 585.835078 287.552015 
L 586.081551 287.091351 
L 586.451261 286.756998 
L 586.697733 286.868449 
L 587.067443 286.430074 
L 587.313915 286.541526 
L 587.930098 287.366264 
L 588.299807 287.351403 
L 588.54628 287.596596 
L 588.792752 288.569935 
L 588.915989 288.465914 
L 589.285698 287.648606 
L 589.408935 287.678327 
L 589.532171 287.500005 
L 589.655407 287.767487 
L 589.90188 287.656036 
L 590.271589 287.559445 
L 590.518062 287.596596 
L 591.134244 287.745197 
L 591.380717 288.04983 
L 591.503954 288.06469 
L 591.750426 288.748257 
L 592.243372 287.633746 
L 592.366608 287.745197 
L 592.613081 288.748257 
L 592.859554 288.458484 
L 593.106027 288.458484 
L 593.3525 288.532785 
L 593.722209 288.681386 
L 593.845445 288.666526 
L 593.968682 288.807698 
L 594.215155 288.770547 
L 594.7081 290.442313 
L 594.831337 290.286282 
L 595.07781 289.625006 
L 595.324282 289.364953 
L 595.570755 289.885058 
L 595.817228 288.971159 
L 596.43341 289.387243 
L 596.803119 289.751317 
L 597.049592 289.729027 
L 597.172829 289.736457 
L 597.665774 291.11102 
L 598.281956 289.870198 
L 598.528429 290.159971 
L 598.898138 289.379813 
L 599.021375 289.1049 
L 599.267848 289.446684 
L 599.514321 289.833048 
L 599.760793 289.781037 
L 599.88403 290.04109 
L 600.007266 290.03366 
L 600.130503 290.219411 
L 600.376975 291.076842 
L 600.623448 292.325094 
L 600.993158 291.629639 
L 601.116394 291.76338 
L 601.60934 291.920898 
L 601.732576 291.527104 
L 602.102285 291.727716 
L 602.225522 292.12894 
L 602.718467 292.054639 
L 603.088177 292.522734 
L 603.334649 293.711545 
L 603.704359 294.395112 
L 604.074068 293.127542 
L 604.197304 293.280601 
L 604.567014 293.065129 
L 604.813486 292.225531 
L 604.936723 292.441003 
L 605.183196 292.448433 
L 605.306432 292.485583 
L 605.552905 292.359272 
L 605.799378 292.619325 
L 606.169087 293.065129 
L 606.292323 293.711545 
L 606.538796 293.929989 
L 606.785269 293.127542 
L 606.908505 293.362332 
L 607.031742 293.341528 
L 607.524688 292.359272 
L 607.647924 292.277541 
L 607.894397 291.854027 
L 608.14087 291.779726 
L 608.264106 291.928328 
L 608.510579 291.489954 
L 608.757052 291.935758 
L 608.880288 291.809447 
L 609.126761 292.13637 
L 609.373234 292.819937 
L 609.49647 292.646073 
L 609.619707 292.812507 
L 610.112652 291.816877 
L 610.359125 291.489954 
L 610.605598 290.732086 
L 610.728834 290.754377 
L 610.852071 290.902978 
L 610.975307 291.252191 
L 611.098544 291.029289 
L 611.22178 291.185321 
L 611.837962 292.589604 
L 612.330908 293.555514 
L 612.823853 292.868975 
L 612.94709 292.946248 
L 613.070326 292.656475 
L 613.193563 292.654989 
L 613.440035 292.084359 
L 613.686508 290.732086 
L 614.056218 289.951929 
L 614.179454 289.877628 
L 614.425927 290.0931 
L 614.549163 290.486894 
L 614.6724 290.472034 
L 614.795636 290.828677 
L 614.918872 290.687506 
L 615.288582 291.185321 
L 615.535055 291.720286 
L 615.658291 291.378503 
L 615.781527 291.400793 
L 616.520946 290.954988 
L 616.767419 291.489954 
L 616.890655 291.259621 
L 617.630074 291.950618 
L 617.999783 292.366702 
L 618.246256 292.604465 
L 618.615965 291.913468 
L 619.108911 291.772296 
L 619.232147 291.787157 
L 619.601856 291.177891 
L 619.848329 291.289342 
L 620.094802 290.917838 
L 620.218038 290.999569 
L 620.587748 290.620635 
L 620.83422 290.308572 
L 621.327166 291.215041 
L 621.573639 291.07387 
L 621.820112 290.145111 
L 621.943348 290.018799 
L 622.313057 290.754377 
L 622.55953 290.323432 
L 622.806003 290.442313 
L 623.052476 290.821247 
L 623.545422 290.999569 
L 623.915131 291.326492 
L 624.038367 291.616265 
L 624.28484 292.834797 
L 624.408076 292.582174 
L 624.777786 291.489954 
L 624.901022 291.274482 
L 625.147495 291.809447 
L 625.393968 291.13331 
L 625.640441 291.10359 
L 625.886913 291.274482 
L 626.626332 291.645985 
L 627.119278 292.998258 
L 627.242514 293.555514 
L 627.858696 291.697996 
L 628.105169 292.760496 
L 629.09106 293.592664 
L 629.337533 293.815566 
L 629.584006 293.793276 
L 629.830479 294.22422 
L 630.200188 295.450182 
L 630.693134 293.674395 
L 630.81637 293.726405 
L 631.062843 294.885497 
L 631.432552 294.320811 
L 631.555789 294.335671 
L 631.679025 294.22422 
L 632.048734 294.476843 
L 632.418443 294.112769 
L 632.911389 294.372822 
L 633.281098 294.320811 
L 633.650808 293.681825 
L 633.774044 293.592664 
L 633.89728 294.081563 
L 634.020517 293.860147 
L 634.143753 293.889867 
L 634.26699 294.075619 
L 634.390226 293.614954 
L 634.636699 294.447122 
L 634.883172 294.008748 
L 635.006408 294.1945 
L 635.62259 293.15429 
L 635.745827 293.458923 
L 635.869063 313.68358 
L 635.992299 292.611895 
L 636.238772 292.195811 
L 636.362009 292.12151 
L 636.485245 292.270111 
L 636.731718 292.076929 
L 636.854954 291.668275 
L 637.101427 291.608835 
L 637.3479 291.861457 
L 637.594373 290.873258 
L 637.717609 291.170461 
L 637.964082 290.501754 
L 638.210555 290.197121 
L 638.703501 289.580425 
L 638.826737 289.550705 
L 639.319683 288.673956 
L 639.442919 288.265302 
L 639.566156 288.339603 
L 639.689392 305.45849 
L 639.812628 287.462855 
L 640.182338 286.251753 
L 641.661175 277.76661 
L 642.030884 276.236015 
L 642.400593 274.62369 
L 642.523829 274.475088 
L 642.647066 274.059004 
L 642.770302 274.155595 
L 642.893539 273.828672 
L 646.837104 272.491259 
L 646.96034 272.223776 
L 647.206813 272.55813 
L 647.453286 272.290647 
L 647.822995 273.561189 
L 647.946232 273.60577 
L 648.069468 273.315997 
L 648.192705 273.412588 
L 648.439177 273.353147 
L 649.301832 274.296766 
L 649.548305 274.571679 
L 650.287724 275.559879 
L 650.780669 276.057694 
L 651.150379 275.381557 
L 651.273615 275.388987 
L 651.766561 276.466348 
L 652.13627 277.521418 
L 652.505979 277.7889 
L 652.875688 278.331296 
L 653.49187 279.059443 
L 653.738343 279.713289 
L 653.86158 280.203674 
L 653.984816 280.107083 
L 654.231289 279.7653 
L 654.477762 280.069933 
L 654.600998 280.448866 
L 654.724235 280.285405 
L 654.970707 280.708919 
L 656.203072 282.566437 
L 656.326308 282.469846 
L 656.572781 283.621507 
L 656.819254 284.520546 
L 657.065726 284.661717 
L 657.312199 284.208483 
L 657.435436 284.260493 
L 657.558672 284.453675 
L 657.681909 284.334794 
L 657.805145 284.446245 
L 657.928381 284.201053 
L 658.051618 284.535406 
L 658.174854 284.527976 
L 658.298091 284.171332 
L 658.6678 284.602277 
L 658.914273 284.349654 
L 659.283982 284.319934 
L 659.530455 284.416525 
L 659.653691 284.156472 
L 660.39311 284.364514 
L 660.516346 283.94843 
L 660.639583 284.022731 
L 660.886055 283.510056 
L 661.132528 283.532346 
L 661.379001 283.487766 
L 661.502237 283.458046 
L 661.625474 283.688378 
L 661.995183 283.183133 
L 662.118419 283.230685 
L 662.241656 282.86364 
L 662.364892 293.533224 
L 662.488129 282.410405 
L 662.734602 281.667398 
L 662.857838 281.607958 
L 663.104311 282.068622 
L 663.350784 280.931821 
L 663.597256 280.946681 
L 663.966966 281.221594 
L 664.213439 281.481646 
L 664.583148 281.080422 
L 664.706384 280.991262 
L 664.829621 280.694059 
L 665.19933 280.946681 
L 665.322566 280.894671 
L 665.445803 280.976401 
L 665.692276 281.325615 
L 665.815512 281.496506 
L 665.938748 281.214164 
L 666.061985 281.370195 
L 667.294349 280.129373 
L 667.540822 280.107083 
L 667.664058 279.735579 
L 668.157004 280.114513 
L 668.403477 280.374566 
L 668.649949 280.664338 
L 668.773186 280.723779 
L 669.389368 280.032782 
L 669.512604 280.129373 
L 669.635841 279.705859 
L 670.128786 279.936191 
L 670.375259 279.490387 
L 670.498496 279.676139 
L 670.744969 279.408656 
L 671.114678 279.096593 
L 671.237914 279.245195 
L 671.73086 278.985142 
L 671.977333 278.227275 
L 672.223806 278.182694 
L 672.347042 278.123254 
L 672.593515 278.413026 
L 672.963224 278.353586 
L 673.209697 278.576488 
L 673.332933 278.628499 
L 673.45617 278.910841 
L 673.825879 278.910841 
L 674.072352 279.081733 
L 674.442061 280.017922 
L 674.565297 279.913901 
L 674.81177 280.114513 
L 675.304716 280.129373 
L 675.304716 280.129373 
" clip-path="url(#p073efe2e14)" style="fill: none; stroke: #1f77b4; stroke-width: 1.5; stroke-linecap: square"/>
   </g>
   <g id="patch_3">
    <path d="M 36.465625 327.558125 
L 36.465625 22.318125 
" style="fill: none; stroke: #000000; stroke-width: 0.8; stroke-linejoin: miter; stroke-linecap: square"/>
   </g>
   <g id="patch_4">
    <path d="M 705.725625 327.558125 
L 705.725625 22.318125 
" style="fill: none; stroke: #000000; stroke-width: 0.8; stroke-linejoin: miter; stroke-linecap: square"/>
   </g>
   <g id="patch_5">
    <path d="M 36.465625 327.558125 
L 705.725625 327.558125 
" style="fill: none; stroke: #000000; stroke-width: 0.8; stroke-linejoin: miter; stroke-linecap: square"/>
   </g>
   <g id="patch_6">
    <path d="M 36.465625 22.318125 
L 705.725625 22.318125 
" style="fill: none; stroke: #000000; stroke-width: 0.8; stroke-linejoin: miter; stroke-linecap: square"/>
   </g>
   <g id="text_17">
    <!-- training -->
    <g transform="translate(347.852188 16.318125) scale(0.12 -0.12)">
     <defs>
      <path id="DejaVuSans-74" d="M 1172 4494 
L 1172 3500 
L 2356 3500 
L 2356 3053 
L 1172 3053 
L 1172 1153 
Q 1172 725 1289 603 
Q 1406 481 1766 481 
L 2356 481 
L 2356 0 
L 1766 0 
Q 1100 0 847 248 
Q 594 497 594 1153 
L 594 3053 
L 172 3053 
L 172 3500 
L 594 3500 
L 594 4494 
L 1172 4494 
z
" transform="scale(0.015625)"/>
      <path id="DejaVuSans-72" d="M 2631 2963 
Q 2534 3019 2420 3045 
Q 2306 3072 2169 3072 
Q 1681 3072 1420 2755 
Q 1159 2438 1159 1844 
L 1159 0 
L 581 0 
L 581 3500 
L 1159 3500 
L 1159 2956 
Q 1341 3275 1631 3429 
Q 1922 3584 2338 3584 
Q 2397 3584 2469 3576 
Q 2541 3569 2628 3553 
L 2631 2963 
z
" transform="scale(0.015625)"/>
      <path id="DejaVuSans-61" d="M 2194 1759 
Q 1497 1759 1228 1600 
Q 959 1441 959 1056 
Q 959 750 1161 570 
Q 1363 391 1709 391 
Q 2188 391 2477 730 
Q 2766 1069 2766 1631 
L 2766 1759 
L 2194 1759 
z
M 3341 1997 
L 3341 0 
L 2766 0 
L 2766 531 
Q 2569 213 2275 61 
Q 1981 -91 1556 -91 
Q 1019 -91 701 211 
Q 384 513 384 1019 
Q 384 1609 779 1909 
Q 1175 2209 1959 2209 
L 2766 2209 
L 2766 2266 
Q 2766 2663 2505 2880 
Q 2244 3097 1772 3097 
Q 1472 3097 1187 3025 
Q 903 2953 641 2809 
L 641 3341 
Q 956 3463 1253 3523 
Q 1550 3584 1831 3584 
Q 2591 3584 2966 3190 
Q 3341 2797 3341 1997 
z
" transform="scale(0.015625)"/>
      <path id="DejaVuSans-69" d="M 603 3500 
L 1178 3500 
L 1178 0 
L 603 0 
L 603 3500 
z
M 603 4863 
L 1178 4863 
L 1178 4134 
L 603 4134 
L 603 4863 
z
" transform="scale(0.015625)"/>
      <path id="DejaVuSans-6e" d="M 3513 2113 
L 3513 0 
L 2938 0 
L 2938 2094 
Q 2938 2591 2744 2837 
Q 2550 3084 2163 3084 
Q 1697 3084 1428 2787 
Q 1159 2491 1159 1978 
L 1159 0 
L 581 0 
L 581 3500 
L 1159 3500 
L 1159 2956 
Q 1366 3272 1645 3428 
Q 1925 3584 2291 3584 
Q 2894 3584 3203 3211 
Q 3513 2838 3513 2113 
z
" transform="scale(0.015625)"/>
      <path id="DejaVuSans-67" d="M 2906 1791 
Q 2906 2416 2648 2759 
Q 2391 3103 1925 3103 
Q 1463 3103 1205 2759 
Q 947 2416 947 1791 
Q 947 1169 1205 825 
Q 1463 481 1925 481 
Q 2391 481 2648 825 
Q 2906 1169 2906 1791 
z
M 3481 434 
Q 3481 -459 3084 -895 
Q 2688 -1331 1869 -1331 
Q 1566 -1331 1297 -1286 
Q 1028 -1241 775 -1147 
L 775 -588 
Q 1028 -725 1275 -790 
Q 1522 -856 1778 -856 
Q 2344 -856 2625 -561 
Q 2906 -266 2906 331 
L 2906 616 
Q 2728 306 2450 153 
Q 2172 0 1784 0 
Q 1141 0 747 490 
Q 353 981 353 1791 
Q 353 2603 747 3093 
Q 1141 3584 1784 3584 
Q 2172 3584 2450 3431 
Q 2728 3278 2906 2969 
L 2906 3500 
L 3481 3500 
L 3481 434 
z
" transform="scale(0.015625)"/>
     </defs>
     <use xlink:href="#DejaVuSans-74"/>
     <use xlink:href="#DejaVuSans-72" x="39.208984"/>
     <use xlink:href="#DejaVuSans-61" x="80.322266"/>
     <use xlink:href="#DejaVuSans-69" x="141.601562"/>
     <use xlink:href="#DejaVuSans-6e" x="169.384766"/>
     <use xlink:href="#DejaVuSans-69" x="232.763672"/>
     <use xlink:href="#DejaVuSans-6e" x="260.546875"/>
     <use xlink:href="#DejaVuSans-67" x="323.925781"/>
    </g>
   </g>
   <g id="legend_1">
    <g id="patch_7">
     <path d="M 620.364688 44.99625 
L 698.725625 44.99625 
Q 700.725625 44.99625 700.725625 42.99625 
L 700.725625 29.318125 
Q 700.725625 27.318125 698.725625 27.318125 
L 620.364688 27.318125 
Q 618.364688 27.318125 618.364688 29.318125 
L 618.364688 42.99625 
Q 618.364688 44.99625 620.364688 44.99625 
z
" style="fill: #ffffff; opacity: 0.8; stroke: #cccccc; stroke-linejoin: miter"/>
    </g>
    <g id="line2d_18">
     <path d="M 622.364688 35.416563 
L 632.364688 35.416563 
L 642.364688 35.416563 
" style="fill: none; stroke: #1f77b4; stroke-width: 1.5; stroke-linecap: square"/>
    </g>
    <g id="text_18">
     <!-- observed -->
     <g transform="translate(650.364688 38.916563) scale(0.1 -0.1)">
      <defs>
       <path id="DejaVuSans-6f" d="M 1959 3097 
Q 1497 3097 1228 2736 
Q 959 2375 959 1747 
Q 959 1119 1226 758 
Q 1494 397 1959 397 
Q 2419 397 2687 759 
Q 2956 1122 2956 1747 
Q 2956 2369 2687 2733 
Q 2419 3097 1959 3097 
z
M 1959 3584 
Q 2709 3584 3137 3096 
Q 3566 2609 3566 1747 
Q 3566 888 3137 398 
Q 2709 -91 1959 -91 
Q 1206 -91 779 398 
Q 353 888 353 1747 
Q 353 2609 779 3096 
Q 1206 3584 1959 3584 
z
" transform="scale(0.015625)"/>
       <path id="DejaVuSans-62" d="M 3116 1747 
Q 3116 2381 2855 2742 
Q 2594 3103 2138 3103 
Q 1681 3103 1420 2742 
Q 1159 2381 1159 1747 
Q 1159 1113 1420 752 
Q 1681 391 2138 391 
Q 2594 391 2855 752 
Q 3116 1113 3116 1747 
z
M 1159 2969 
Q 1341 3281 1617 3432 
Q 1894 3584 2278 3584 
Q 2916 3584 3314 3078 
Q 3713 2572 3713 1747 
Q 3713 922 3314 415 
Q 2916 -91 2278 -91 
Q 1894 -91 1617 61 
Q 1341 213 1159 525 
L 1159 0 
L 581 0 
L 581 4863 
L 1159 4863 
L 1159 2969 
z
" transform="scale(0.015625)"/>
       <path id="DejaVuSans-73" d="M 2834 3397 
L 2834 2853 
Q 2591 2978 2328 3040 
Q 2066 3103 1784 3103 
Q 1356 3103 1142 2972 
Q 928 2841 928 2578 
Q 928 2378 1081 2264 
Q 1234 2150 1697 2047 
L 1894 2003 
Q 2506 1872 2764 1633 
Q 3022 1394 3022 966 
Q 3022 478 2636 193 
Q 2250 -91 1575 -91 
Q 1294 -91 989 -36 
Q 684 19 347 128 
L 347 722 
Q 666 556 975 473 
Q 1284 391 1588 391 
Q 1994 391 2212 530 
Q 2431 669 2431 922 
Q 2431 1156 2273 1281 
Q 2116 1406 1581 1522 
L 1381 1569 
Q 847 1681 609 1914 
Q 372 2147 372 2553 
Q 372 3047 722 3315 
Q 1072 3584 1716 3584 
Q 2034 3584 2315 3537 
Q 2597 3491 2834 3397 
z
" transform="scale(0.015625)"/>
       <path id="DejaVuSans-65" d="M 3597 1894 
L 3597 1613 
L 953 1613 
Q 991 1019 1311 708 
Q 1631 397 2203 397 
Q 2534 397 2845 478 
Q 3156 559 3463 722 
L 3463 178 
Q 3153 47 2828 -22 
Q 2503 -91 2169 -91 
Q 1331 -91 842 396 
Q 353 884 353 1716 
Q 353 2575 817 3079 
Q 1281 3584 2069 3584 
Q 2775 3584 3186 3129 
Q 3597 2675 3597 1894 
z
M 3022 2063 
Q 3016 2534 2758 2815 
Q 2500 3097 2075 3097 
Q 1594 3097 1305 2825 
Q 1016 2553 972 2059 
L 3022 2063 
z
" transform="scale(0.015625)"/>
       <path id="DejaVuSans-76" d="M 191 3500 
L 800 3500 
L 1894 563 
L 2988 3500 
L 3597 3500 
L 2284 0 
L 1503 0 
L 191 3500 
z
" transform="scale(0.015625)"/>
       <path id="DejaVuSans-64" d="M 2906 2969 
L 2906 4863 
L 3481 4863 
L 3481 0 
L 2906 0 
L 2906 525 
Q 2725 213 2448 61 
Q 2172 -91 1784 -91 
Q 1150 -91 751 415 
Q 353 922 353 1747 
Q 353 2572 751 3078 
Q 1150 3584 1784 3584 
Q 2172 3584 2448 3432 
Q 2725 3281 2906 2969 
z
M 947 1747 
Q 947 1113 1208 752 
Q 1469 391 1925 391 
Q 2381 391 2643 752 
Q 2906 1113 2906 1747 
Q 2906 2381 2643 2742 
Q 2381 3103 1925 3103 
Q 1469 3103 1208 2742 
Q 947 2381 947 1747 
z
" transform="scale(0.015625)"/>
      </defs>
      <use xlink:href="#DejaVuSans-6f"/>
      <use xlink:href="#DejaVuSans-62" x="61.181641"/>
      <use xlink:href="#DejaVuSans-73" x="124.658203"/>
      <use xlink:href="#DejaVuSans-65" x="176.757812"/>
      <use xlink:href="#DejaVuSans-72" x="238.28125"/>
      <use xlink:href="#DejaVuSans-76" x="279.394531"/>
      <use xlink:href="#DejaVuSans-65" x="338.574219"/>
      <use xlink:href="#DejaVuSans-64" x="400.097656"/>
     </g>
    </g>
   </g>
  </g>
 </g>
 <defs>
  <clipPath id="p073efe2e14">
   <rect x="36.465625" y="22.318125" width="669.26" height="305.24"/>
  </clipPath>
 </defs>
</svg>
