<?xml version="1.0" encoding="utf-8" standalone="no"?>
<!DOCTYPE svg PUBLIC "-//W3C//DTD SVG 1.1//EN"
  "http://www.w3.org/Graphics/SVG/1.1/DTD/svg11.dtd">
<svg xmlns:xlink="http://www.w3.org/1999/xlink" width="720pt" height="360pt" viewBox="0 0 720 360" xmlns="http://www.w3.org/2000/svg" version="1.1">
 <metadata>
  <rdf:RDF xmlns:dc="http://purl.org/dc/elements/1.1/" xmlns:cc="http://creativecommons.org/ns#" xmlns:rdf="http://www.w3.org/1999/02/22-rdf-syntax-ns#">
   <cc:Work>
    <dc:type rdf:resource="http://purl.org/dc/dcmitype/StillImage"/>
    <dc:date>2023-10-23T10:54:50.052967</dc:date>
    <dc:format>image/svg+xml</dc:format>
    <dc:creator>
     <cc:Agent>
      <dc:title>Matplotlib v3.7.1, https://matplotlib.org/</dc:title>
     </cc:Agent>
    </dc:creator>
   </cc:Work>
  </rdf:RDF>
 </metadata>
 <defs>
  <style type="text/css">*{stroke-linejoin: round; stroke-linecap: butt}</style>
 </defs>
 <g id="figure_1">
  <g id="patch_1">
   <path d="M 0 360 
L 720 360 
L 720 0 
L 0 0 
z
" style="fill: #ffffff"/>
  </g>
  <g id="axes_1">
   <g id="patch_2">
    <path d="M 90 288 
L 648 288 
L 648 43.2 
L 90 43.2 
z
" style="fill: #ffffff"/>
   </g>
   <g id="matplotlib.axis_1">
    <g id="xtick_1">
     <g id="line2d_1">
      <defs>
       <path id="m58c50edc68" d="M 0 0 
L 0 3.5 
" style="stroke: #000000; stroke-width: 0.8"/>
      </defs>
      <g>
       <use xlink:href="#m58c50edc68" x="149.389756" y="288" style="stroke: #000000; stroke-width: 0.8"/>
      </g>
     </g>
     <g id="text_1">
      <!-- 2023-08-15 -->
      <g transform="translate(87.746414 337.765903) rotate(-30) scale(0.12 -0.12)">
       <defs>
        <path id="DejaVuSans-32" d="M 1228 531 
L 3431 531 
L 3431 0 
L 469 0 
L 469 531 
Q 828 903 1448 1529 
Q 2069 2156 2228 2338 
Q 2531 2678 2651 2914 
Q 2772 3150 2772 3378 
Q 2772 3750 2511 3984 
Q 2250 4219 1831 4219 
Q 1534 4219 1204 4116 
Q 875 4013 500 3803 
L 500 4441 
Q 881 4594 1212 4672 
Q 1544 4750 1819 4750 
Q 2544 4750 2975 4387 
Q 3406 4025 3406 3419 
Q 3406 3131 3298 2873 
Q 3191 2616 2906 2266 
Q 2828 2175 2409 1742 
Q 1991 1309 1228 531 
z
" transform="scale(0.015625)"/>
        <path id="DejaVuSans-30" d="M 2034 4250 
Q 1547 4250 1301 3770 
Q 1056 3291 1056 2328 
Q 1056 1369 1301 889 
Q 1547 409 2034 409 
Q 2525 409 2770 889 
Q 3016 1369 3016 2328 
Q 3016 3291 2770 3770 
Q 2525 4250 2034 4250 
z
M 2034 4750 
Q 2819 4750 3233 4129 
Q 3647 3509 3647 2328 
Q 3647 1150 3233 529 
Q 2819 -91 2034 -91 
Q 1250 -91 836 529 
Q 422 1150 422 2328 
Q 422 3509 836 4129 
Q 1250 4750 2034 4750 
z
" transform="scale(0.015625)"/>
        <path id="DejaVuSans-33" d="M 2597 2516 
Q 3050 2419 3304 2112 
Q 3559 1806 3559 1356 
Q 3559 666 3084 287 
Q 2609 -91 1734 -91 
Q 1441 -91 1130 -33 
Q 819 25 488 141 
L 488 750 
Q 750 597 1062 519 
Q 1375 441 1716 441 
Q 2309 441 2620 675 
Q 2931 909 2931 1356 
Q 2931 1769 2642 2001 
Q 2353 2234 1838 2234 
L 1294 2234 
L 1294 2753 
L 1863 2753 
Q 2328 2753 2575 2939 
Q 2822 3125 2822 3475 
Q 2822 3834 2567 4026 
Q 2313 4219 1838 4219 
Q 1578 4219 1281 4162 
Q 984 4106 628 3988 
L 628 4550 
Q 988 4650 1302 4700 
Q 1616 4750 1894 4750 
Q 2613 4750 3031 4423 
Q 3450 4097 3450 3541 
Q 3450 3153 3228 2886 
Q 3006 2619 2597 2516 
z
" transform="scale(0.015625)"/>
        <path id="DejaVuSans-2d" d="M 313 2009 
L 1997 2009 
L 1997 1497 
L 313 1497 
L 313 2009 
z
" transform="scale(0.015625)"/>
        <path id="DejaVuSans-38" d="M 2034 2216 
Q 1584 2216 1326 1975 
Q 1069 1734 1069 1313 
Q 1069 891 1326 650 
Q 1584 409 2034 409 
Q 2484 409 2743 651 
Q 3003 894 3003 1313 
Q 3003 1734 2745 1975 
Q 2488 2216 2034 2216 
z
M 1403 2484 
Q 997 2584 770 2862 
Q 544 3141 544 3541 
Q 544 4100 942 4425 
Q 1341 4750 2034 4750 
Q 2731 4750 3128 4425 
Q 3525 4100 3525 3541 
Q 3525 3141 3298 2862 
Q 3072 2584 2669 2484 
Q 3125 2378 3379 2068 
Q 3634 1759 3634 1313 
Q 3634 634 3220 271 
Q 2806 -91 2034 -91 
Q 1263 -91 848 271 
Q 434 634 434 1313 
Q 434 1759 690 2068 
Q 947 2378 1403 2484 
z
M 1172 3481 
Q 1172 3119 1398 2916 
Q 1625 2713 2034 2713 
Q 2441 2713 2670 2916 
Q 2900 3119 2900 3481 
Q 2900 3844 2670 4047 
Q 2441 4250 2034 4250 
Q 1625 4250 1398 4047 
Q 1172 3844 1172 3481 
z
" transform="scale(0.015625)"/>
        <path id="DejaVuSans-31" d="M 794 531 
L 1825 531 
L 1825 4091 
L 703 3866 
L 703 4441 
L 1819 4666 
L 2450 4666 
L 2450 531 
L 3481 531 
L 3481 0 
L 794 0 
L 794 531 
z
" transform="scale(0.015625)"/>
        <path id="DejaVuSans-35" d="M 691 4666 
L 3169 4666 
L 3169 4134 
L 1269 4134 
L 1269 2991 
Q 1406 3038 1543 3061 
Q 1681 3084 1819 3084 
Q 2600 3084 3056 2656 
Q 3513 2228 3513 1497 
Q 3513 744 3044 326 
Q 2575 -91 1722 -91 
Q 1428 -91 1123 -41 
Q 819 9 494 109 
L 494 744 
Q 775 591 1075 516 
Q 1375 441 1709 441 
Q 2250 441 2565 725 
Q 2881 1009 2881 1497 
Q 2881 1984 2565 2268 
Q 2250 2553 1709 2553 
Q 1456 2553 1204 2497 
Q 953 2441 691 2322 
L 691 4666 
z
" transform="scale(0.015625)"/>
       </defs>
       <use xlink:href="#DejaVuSans-32"/>
       <use xlink:href="#DejaVuSans-30" x="63.623047"/>
       <use xlink:href="#DejaVuSans-32" x="127.246094"/>
       <use xlink:href="#DejaVuSans-33" x="190.869141"/>
       <use xlink:href="#DejaVuSans-2d" x="254.492188"/>
       <use xlink:href="#DejaVuSans-30" x="290.576172"/>
       <use xlink:href="#DejaVuSans-38" x="354.199219"/>
       <use xlink:href="#DejaVuSans-2d" x="417.822266"/>
       <use xlink:href="#DejaVuSans-31" x="453.90625"/>
       <use xlink:href="#DejaVuSans-35" x="517.529297"/>
      </g>
     </g>
    </g>
    <g id="xtick_2">
     <g id="line2d_2">
      <g>
       <use xlink:href="#m58c50edc68" x="265.078561" y="288" style="stroke: #000000; stroke-width: 0.8"/>
      </g>
     </g>
     <g id="text_2">
      <!-- 2023-09-01 -->
      <g transform="translate(203.435219 337.765903) rotate(-30) scale(0.12 -0.12)">
       <defs>
        <path id="DejaVuSans-39" d="M 703 97 
L 703 672 
Q 941 559 1184 500 
Q 1428 441 1663 441 
Q 2288 441 2617 861 
Q 2947 1281 2994 2138 
Q 2813 1869 2534 1725 
Q 2256 1581 1919 1581 
Q 1219 1581 811 2004 
Q 403 2428 403 3163 
Q 403 3881 828 4315 
Q 1253 4750 1959 4750 
Q 2769 4750 3195 4129 
Q 3622 3509 3622 2328 
Q 3622 1225 3098 567 
Q 2575 -91 1691 -91 
Q 1453 -91 1209 -44 
Q 966 3 703 97 
z
M 1959 2075 
Q 2384 2075 2632 2365 
Q 2881 2656 2881 3163 
Q 2881 3666 2632 3958 
Q 2384 4250 1959 4250 
Q 1534 4250 1286 3958 
Q 1038 3666 1038 3163 
Q 1038 2656 1286 2365 
Q 1534 2075 1959 2075 
z
" transform="scale(0.015625)"/>
       </defs>
       <use xlink:href="#DejaVuSans-32"/>
       <use xlink:href="#DejaVuSans-30" x="63.623047"/>
       <use xlink:href="#DejaVuSans-32" x="127.246094"/>
       <use xlink:href="#DejaVuSans-33" x="190.869141"/>
       <use xlink:href="#DejaVuSans-2d" x="254.492188"/>
       <use xlink:href="#DejaVuSans-30" x="290.576172"/>
       <use xlink:href="#DejaVuSans-39" x="354.199219"/>
       <use xlink:href="#DejaVuSans-2d" x="417.822266"/>
       <use xlink:href="#DejaVuSans-30" x="453.90625"/>
       <use xlink:href="#DejaVuSans-31" x="517.529297"/>
      </g>
     </g>
    </g>
    <g id="xtick_3">
     <g id="line2d_3">
      <g>
       <use xlink:href="#m58c50edc68" x="360.351695" y="288" style="stroke: #000000; stroke-width: 0.8"/>
      </g>
     </g>
     <g id="text_3">
      <!-- 2023-09-15 -->
      <g transform="translate(298.708353 337.765903) rotate(-30) scale(0.12 -0.12)">
       <use xlink:href="#DejaVuSans-32"/>
       <use xlink:href="#DejaVuSans-30" x="63.623047"/>
       <use xlink:href="#DejaVuSans-32" x="127.246094"/>
       <use xlink:href="#DejaVuSans-33" x="190.869141"/>
       <use xlink:href="#DejaVuSans-2d" x="254.492188"/>
       <use xlink:href="#DejaVuSans-30" x="290.576172"/>
       <use xlink:href="#DejaVuSans-39" x="354.199219"/>
       <use xlink:href="#DejaVuSans-2d" x="417.822266"/>
       <use xlink:href="#DejaVuSans-31" x="453.90625"/>
       <use xlink:href="#DejaVuSans-35" x="517.529297"/>
      </g>
     </g>
    </g>
    <g id="xtick_4">
     <g id="line2d_4">
      <g>
       <use xlink:href="#m58c50edc68" x="469.235276" y="288" style="stroke: #000000; stroke-width: 0.8"/>
      </g>
     </g>
     <g id="text_4">
      <!-- 2023-10-01 -->
      <g transform="translate(407.591935 337.765903) rotate(-30) scale(0.12 -0.12)">
       <use xlink:href="#DejaVuSans-32"/>
       <use xlink:href="#DejaVuSans-30" x="63.623047"/>
       <use xlink:href="#DejaVuSans-32" x="127.246094"/>
       <use xlink:href="#DejaVuSans-33" x="190.869141"/>
       <use xlink:href="#DejaVuSans-2d" x="254.492188"/>
       <use xlink:href="#DejaVuSans-31" x="290.576172"/>
       <use xlink:href="#DejaVuSans-30" x="354.199219"/>
       <use xlink:href="#DejaVuSans-2d" x="417.822266"/>
       <use xlink:href="#DejaVuSans-30" x="453.90625"/>
       <use xlink:href="#DejaVuSans-31" x="517.529297"/>
      </g>
     </g>
    </g>
    <g id="xtick_5">
     <g id="line2d_5">
      <g>
       <use xlink:href="#m58c50edc68" x="564.50841" y="288" style="stroke: #000000; stroke-width: 0.8"/>
      </g>
     </g>
     <g id="text_5">
      <!-- 2023-10-15 -->
      <g transform="translate(502.865068 337.765903) rotate(-30) scale(0.12 -0.12)">
       <use xlink:href="#DejaVuSans-32"/>
       <use xlink:href="#DejaVuSans-30" x="63.623047"/>
       <use xlink:href="#DejaVuSans-32" x="127.246094"/>
       <use xlink:href="#DejaVuSans-33" x="190.869141"/>
       <use xlink:href="#DejaVuSans-2d" x="254.492188"/>
       <use xlink:href="#DejaVuSans-31" x="290.576172"/>
       <use xlink:href="#DejaVuSans-30" x="354.199219"/>
       <use xlink:href="#DejaVuSans-2d" x="417.822266"/>
       <use xlink:href="#DejaVuSans-31" x="453.90625"/>
       <use xlink:href="#DejaVuSans-35" x="517.529297"/>
      </g>
     </g>
    </g>
   </g>
   <g id="matplotlib.axis_2">
    <g id="ytick_1">
     <g id="line2d_6">
      <defs>
       <path id="mcd36b76a73" d="M 0 0 
L -3.5 0 
" style="stroke: #000000; stroke-width: 0.8"/>
      </defs>
      <g>
       <use xlink:href="#mcd36b76a73" x="90" y="277.542674" style="stroke: #000000; stroke-width: 0.8"/>
      </g>
     </g>
     <g id="text_6">
      <!-- 0.2 -->
      <g transform="translate(63.91625 282.101737) scale(0.12 -0.12)">
       <defs>
        <path id="DejaVuSans-2e" d="M 684 794 
L 1344 794 
L 1344 0 
L 684 0 
L 684 794 
z
" transform="scale(0.015625)"/>
       </defs>
       <use xlink:href="#DejaVuSans-30"/>
       <use xlink:href="#DejaVuSans-2e" x="63.623047"/>
       <use xlink:href="#DejaVuSans-32" x="95.410156"/>
      </g>
     </g>
    </g>
    <g id="ytick_2">
     <g id="line2d_7">
      <g>
       <use xlink:href="#mcd36b76a73" x="90" y="244.413203" style="stroke: #000000; stroke-width: 0.8"/>
      </g>
     </g>
     <g id="text_7">
      <!-- 0.4 -->
      <g transform="translate(63.91625 248.972265) scale(0.12 -0.12)">
       <defs>
        <path id="DejaVuSans-34" d="M 2419 4116 
L 825 1625 
L 2419 1625 
L 2419 4116 
z
M 2253 4666 
L 3047 4666 
L 3047 1625 
L 3713 1625 
L 3713 1100 
L 3047 1100 
L 3047 0 
L 2419 0 
L 2419 1100 
L 313 1100 
L 313 1709 
L 2253 4666 
z
" transform="scale(0.015625)"/>
       </defs>
       <use xlink:href="#DejaVuSans-30"/>
       <use xlink:href="#DejaVuSans-2e" x="63.623047"/>
       <use xlink:href="#DejaVuSans-34" x="95.410156"/>
      </g>
     </g>
    </g>
    <g id="ytick_3">
     <g id="line2d_8">
      <g>
       <use xlink:href="#mcd36b76a73" x="90" y="211.283731" style="stroke: #000000; stroke-width: 0.8"/>
      </g>
     </g>
     <g id="text_8">
      <!-- 0.6 -->
      <g transform="translate(63.91625 215.842794) scale(0.12 -0.12)">
       <defs>
        <path id="DejaVuSans-36" d="M 2113 2584 
Q 1688 2584 1439 2293 
Q 1191 2003 1191 1497 
Q 1191 994 1439 701 
Q 1688 409 2113 409 
Q 2538 409 2786 701 
Q 3034 994 3034 1497 
Q 3034 2003 2786 2293 
Q 2538 2584 2113 2584 
z
M 3366 4563 
L 3366 3988 
Q 3128 4100 2886 4159 
Q 2644 4219 2406 4219 
Q 1781 4219 1451 3797 
Q 1122 3375 1075 2522 
Q 1259 2794 1537 2939 
Q 1816 3084 2150 3084 
Q 2853 3084 3261 2657 
Q 3669 2231 3669 1497 
Q 3669 778 3244 343 
Q 2819 -91 2113 -91 
Q 1303 -91 875 529 
Q 447 1150 447 2328 
Q 447 3434 972 4092 
Q 1497 4750 2381 4750 
Q 2619 4750 2861 4703 
Q 3103 4656 3366 4563 
z
" transform="scale(0.015625)"/>
       </defs>
       <use xlink:href="#DejaVuSans-30"/>
       <use xlink:href="#DejaVuSans-2e" x="63.623047"/>
       <use xlink:href="#DejaVuSans-36" x="95.410156"/>
      </g>
     </g>
    </g>
    <g id="ytick_4">
     <g id="line2d_9">
      <g>
       <use xlink:href="#mcd36b76a73" x="90" y="178.15426" style="stroke: #000000; stroke-width: 0.8"/>
      </g>
     </g>
     <g id="text_9">
      <!-- 0.8 -->
      <g transform="translate(63.91625 182.713322) scale(0.12 -0.12)">
       <use xlink:href="#DejaVuSans-30"/>
       <use xlink:href="#DejaVuSans-2e" x="63.623047"/>
       <use xlink:href="#DejaVuSans-38" x="95.410156"/>
      </g>
     </g>
    </g>
    <g id="ytick_5">
     <g id="line2d_10">
      <g>
       <use xlink:href="#mcd36b76a73" x="90" y="145.024788" style="stroke: #000000; stroke-width: 0.8"/>
      </g>
     </g>
     <g id="text_10">
      <!-- 1.0 -->
      <g transform="translate(63.91625 149.583851) scale(0.12 -0.12)">
       <use xlink:href="#DejaVuSans-31"/>
       <use xlink:href="#DejaVuSans-2e" x="63.623047"/>
       <use xlink:href="#DejaVuSans-30" x="95.410156"/>
      </g>
     </g>
    </g>
    <g id="ytick_6">
     <g id="line2d_11">
      <g>
       <use xlink:href="#mcd36b76a73" x="90" y="111.895317" style="stroke: #000000; stroke-width: 0.8"/>
      </g>
     </g>
     <g id="text_11">
      <!-- 1.2 -->
      <g transform="translate(63.91625 116.454379) scale(0.12 -0.12)">
       <use xlink:href="#DejaVuSans-31"/>
       <use xlink:href="#DejaVuSans-2e" x="63.623047"/>
       <use xlink:href="#DejaVuSans-32" x="95.410156"/>
      </g>
     </g>
    </g>
    <g id="ytick_7">
     <g id="line2d_12">
      <g>
       <use xlink:href="#mcd36b76a73" x="90" y="78.765845" style="stroke: #000000; stroke-width: 0.8"/>
      </g>
     </g>
     <g id="text_12">
      <!-- 1.4 -->
      <g transform="translate(63.91625 83.324908) scale(0.12 -0.12)">
       <use xlink:href="#DejaVuSans-31"/>
       <use xlink:href="#DejaVuSans-2e" x="63.623047"/>
       <use xlink:href="#DejaVuSans-34" x="95.410156"/>
      </g>
     </g>
    </g>
    <g id="ytick_8">
     <g id="line2d_13">
      <g>
       <use xlink:href="#mcd36b76a73" x="90" y="45.636374" style="stroke: #000000; stroke-width: 0.8"/>
      </g>
     </g>
     <g id="text_13">
      <!-- 1.6 -->
      <g transform="translate(63.91625 50.195436) scale(0.12 -0.12)">
       <use xlink:href="#DejaVuSans-31"/>
       <use xlink:href="#DejaVuSans-2e" x="63.623047"/>
       <use xlink:href="#DejaVuSans-36" x="95.410156"/>
      </g>
     </g>
    </g>
    <g id="text_14">
     <!-- Meters -->
     <g transform="translate(57.836562 182.6875) rotate(-90) scale(0.1 -0.1)">
      <defs>
       <path id="DejaVuSans-4d" d="M 628 4666 
L 1569 4666 
L 2759 1491 
L 3956 4666 
L 4897 4666 
L 4897 0 
L 4281 0 
L 4281 4097 
L 3078 897 
L 2444 897 
L 1241 4097 
L 1241 0 
L 628 0 
L 628 4666 
z
" transform="scale(0.015625)"/>
       <path id="DejaVuSans-65" d="M 3597 1894 
L 3597 1613 
L 953 1613 
Q 991 1019 1311 708 
Q 1631 397 2203 397 
Q 2534 397 2845 478 
Q 3156 559 3463 722 
L 3463 178 
Q 3153 47 2828 -22 
Q 2503 -91 2169 -91 
Q 1331 -91 842 396 
Q 353 884 353 1716 
Q 353 2575 817 3079 
Q 1281 3584 2069 3584 
Q 2775 3584 3186 3129 
Q 3597 2675 3597 1894 
z
M 3022 2063 
Q 3016 2534 2758 2815 
Q 2500 3097 2075 3097 
Q 1594 3097 1305 2825 
Q 1016 2553 972 2059 
L 3022 2063 
z
" transform="scale(0.015625)"/>
       <path id="DejaVuSans-74" d="M 1172 4494 
L 1172 3500 
L 2356 3500 
L 2356 3053 
L 1172 3053 
L 1172 1153 
Q 1172 725 1289 603 
Q 1406 481 1766 481 
L 2356 481 
L 2356 0 
L 1766 0 
Q 1100 0 847 248 
Q 594 497 594 1153 
L 594 3053 
L 172 3053 
L 172 3500 
L 594 3500 
L 594 4494 
L 1172 4494 
z
" transform="scale(0.015625)"/>
       <path id="DejaVuSans-72" d="M 2631 2963 
Q 2534 3019 2420 3045 
Q 2306 3072 2169 3072 
Q 1681 3072 1420 2755 
Q 1159 2438 1159 1844 
L 1159 0 
L 581 0 
L 581 3500 
L 1159 3500 
L 1159 2956 
Q 1341 3275 1631 3429 
Q 1922 3584 2338 3584 
Q 2397 3584 2469 3576 
Q 2541 3569 2628 3553 
L 2631 2963 
z
" transform="scale(0.015625)"/>
       <path id="DejaVuSans-73" d="M 2834 3397 
L 2834 2853 
Q 2591 2978 2328 3040 
Q 2066 3103 1784 3103 
Q 1356 3103 1142 2972 
Q 928 2841 928 2578 
Q 928 2378 1081 2264 
Q 1234 2150 1697 2047 
L 1894 2003 
Q 2506 1872 2764 1633 
Q 3022 1394 3022 966 
Q 3022 478 2636 193 
Q 2250 -91 1575 -91 
Q 1294 -91 989 -36 
Q 684 19 347 128 
L 347 722 
Q 666 556 975 473 
Q 1284 391 1588 391 
Q 1994 391 2212 530 
Q 2431 669 2431 922 
Q 2431 1156 2273 1281 
Q 2116 1406 1581 1522 
L 1381 1569 
Q 847 1681 609 1914 
Q 372 2147 372 2553 
Q 372 3047 722 3315 
Q 1072 3584 1716 3584 
Q 2034 3584 2315 3537 
Q 2597 3491 2834 3397 
z
" transform="scale(0.015625)"/>
      </defs>
      <use xlink:href="#DejaVuSans-4d"/>
      <use xlink:href="#DejaVuSans-65" x="86.279297"/>
      <use xlink:href="#DejaVuSans-74" x="147.802734"/>
      <use xlink:href="#DejaVuSans-65" x="187.011719"/>
      <use xlink:href="#DejaVuSans-72" x="248.535156"/>
      <use xlink:href="#DejaVuSans-73" x="289.648438"/>
     </g>
    </g>
   </g>
   <g id="line2d_14">
    <path d="M 115.363636 271.998422 
L 115.647187 271.821776 
L 115.930738 271.93218 
L 116.214289 271.435365 
L 116.49784 271.518167 
L 117.064942 271.159356 
L 117.348493 270.634941 
L 117.632044 270.966151 
L 118.199146 270.055323 
L 118.482697 269.878678 
L 118.766248 269.503307 
L 119.33335 271.573369 
L 119.616901 271.904579 
L 119.900452 271.876978 
L 120.467554 272.097784 
L 120.751105 272.898208 
L 121.034656 272.787805 
L 121.601758 274.526657 
L 122.452411 272.511797 
L 122.735962 271.159356 
L 123.019513 271.214558 
L 123.303064 272.070184 
L 123.870166 272.95341 
L 124.153717 271.987381 
L 124.720819 271.93218 
L 125.00437 271.766575 
L 125.287921 270.883348 
L 125.571472 270.469336 
L 126.138574 273.671032 
L 126.422125 274.250649 
L 126.705676 273.61583 
L 127.556329 275.271879 
L 128.123431 273.119015 
L 128.406982 270.93855 
L 128.690533 271.733454 
L 129.257635 266.191208 
L 129.824737 267.764455 
L 130.108288 266.494817 
L 130.391839 266.218809 
L 130.67539 263.431125 
L 130.958941 263.569129 
L 131.242492 264.452356 
L 131.809594 266.93643 
L 132.093145 267.350443 
L 132.376696 266.991632 
L 132.660247 267.957661 
L 132.943798 269.392904 
L 133.227349 269.475706 
L 133.5109 269.94492 
L 134.078002 267.129636 
L 134.361553 267.322842 
L 134.645104 268.813286 
L 134.928655 268.896089 
L 135.212206 269.2825 
L 135.495757 270.193328 
L 135.779308 270.386533 
L 136.062859 269.724114 
L 136.34641 268.482076 
L 136.629961 268.156387 
L 136.913512 268.26127 
L 137.197063 267.93006 
L 137.480614 268.399274 
L 137.764165 268.426875 
L 138.047716 267.902459 
L 138.331267 268.040463 
L 138.614818 267.295241 
L 138.898369 267.240039 
L 139.18192 267.378043 
L 139.749022 269.889718 
L 140.316124 269.365303 
L 140.599675 269.779315 
L 140.883226 269.530908 
L 141.166777 270.883348 
L 141.450328 270.966151 
L 141.733879 271.435365 
L 142.01743 271.518167 
L 142.300981 270.690142 
L 142.584532 270.27613 
L 142.868083 269.61371 
L 143.435185 269.172097 
L 143.718736 269.315621 
L 144.002287 268.978891 
L 144.285838 268.868488 
L 144.85294 268.868488 
L 145.420042 268.840887 
L 145.703593 268.730484 
L 145.987144 269.199698 
L 146.270695 269.889718 
L 146.837797 271.62857 
L 147.121348 272.070184 
L 147.68845 273.726233 
L 147.972001 273.560628 
L 148.255552 273.533027 
L 148.539103 272.539398 
L 149.106205 271.490566 
L 149.389756 270.800546 
L 149.673307 269.254899 
L 149.956858 265.087175 
L 150.52396 259.876139 
L 150.807511 260.312232 
L 151.374613 264.617961 
L 151.941715 266.080805 
L 152.508817 264.755965 
L 152.792367 261.885479 
L 153.075918 260.56064 
L 153.359469 258.407775 
L 153.64302 259.760216 
L 153.926571 261.857878 
L 154.210122 262.24429 
L 154.493673 261.416265 
L 155.060775 258.407775 
L 155.344326 257.082936 
L 155.627877 256.668923 
L 155.911428 257.303742 
L 156.194979 257.259581 
L 156.762081 258.600981 
L 157.329183 259.373804 
L 158.179836 261.58187 
L 158.463387 262.106286 
L 158.746938 262.078685 
L 159.030489 262.520298 
L 159.31404 262.713504 
L 159.597591 262.078685 
L 159.881142 263.155117 
L 160.164693 264.783566 
L 160.448244 265.666792 
L 160.731795 265.639191 
L 161.015346 266.218809 
L 161.582448 268.813286 
L 161.865999 269.889718 
L 162.14955 270.27613 
L 162.433101 270.165727 
L 162.716652 270.524537 
L 163.000203 270.011162 
L 163.283754 270.220928 
L 163.850856 267.847257 
L 164.134407 268.509677 
L 164.417958 267.571249 
L 164.98506 267.654052 
L 165.268611 268.206068 
L 165.552162 268.095665 
L 165.835713 267.819657 
L 166.119264 268.040463 
L 166.402815 267.654052 
L 166.686366 268.564879 
L 167.253468 269.475706 
L 167.537019 270.303731 
L 167.82057 269.889718 
L 168.104121 268.537278 
L 169.238325 249.520309 
L 169.521876 252.363194 
L 170.088978 260.284631 
L 170.372529 260.146627 
L 171.223182 245.600992 
L 171.790284 243.034115 
L 173.208039 248.499079 
L 174.058692 253.274022 
L 174.342243 254.411176 
L 175.192896 259.953421 
L 175.476447 260.753845 
L 175.759998 261.995882 
L 176.043549 262.547899 
L 176.610651 264.673162 
L 177.177753 263.127516 
L 177.744855 263.182718 
L 178.028406 262.961911 
L 178.311957 263.210319 
L 179.16261 264.562759 
L 179.446161 264.811167 
L 179.729712 264.286751 
L 180.013263 264.121146 
L 180.580365 266.27401 
L 180.863916 267.571249 
L 181.147467 267.378043 
L 181.714569 268.702883 
L 182.281671 270.220928 
L 182.565222 270.303731 
L 182.848773 270.662542 
L 183.415875 270.303731 
L 183.699426 269.696513 
L 183.982977 268.509677 
L 184.266528 268.537278 
L 184.550079 268.26127 
L 185.117181 268.26127 
L 185.684283 267.985262 
L 185.967834 267.825177 
L 186.251385 268.095665 
L 186.534936 267.792056 
L 186.818487 267.240039 
L 187.102038 267.847257 
L 187.385589 269.2825 
L 187.66914 269.558509 
L 187.952691 270.082924 
L 188.519793 270.110525 
L 189.086895 271.545768 
L 189.370446 271.435365 
L 189.653997 270.966151 
L 189.937548 271.021352 
L 190.50465 270.690142 
L 191.355303 269.144496 
L 191.638854 269.089295 
L 191.922405 269.475706 
L 192.489507 269.530908 
L 193.056609 268.978891 
L 193.34016 269.116895 
L 193.623711 269.475706 
L 193.907262 270.027723 
L 194.474364 270.358932 
L 194.757915 270.690142 
L 195.608568 273.422624 
L 195.892119 273.367422 
L 196.175669 272.981011 
L 196.45922 273.477826 
L 197.026322 271.656171 
L 198.160526 270.441735 
L 198.444077 270.706703 
L 198.727628 270.165727 
L 199.011179 270.138126 
L 199.29473 270.248529 
L 199.861832 269.779315 
L 200.428934 270.441735 
L 200.996036 271.738974 
L 201.279587 272.042583 
L 201.846689 274.112645 
L 202.13024 274.002241 
L 202.697342 275.741093 
L 203.264444 276.872727 
L 203.547995 276.155106 
L 203.831546 274.747464 
L 204.115097 272.727083 
L 204.682199 271.297361 
L 204.96575 271.131756 
L 205.816403 271.26976 
L 206.099954 271.186957 
L 206.383505 270.800546 
L 206.667056 270.717743 
L 207.234158 270.93855 
L 207.517709 271.26976 
L 207.80126 265.390784 
L 208.084811 245.159379 
L 208.651913 185.6796 
L 208.935464 176.764534 
L 209.502566 202.73691 
L 209.786117 201.351349 
L 210.63677 172.707213 
L 210.920321 168.567089 
L 211.203872 169.091504 
L 211.487423 171.189167 
L 211.770974 172.431204 
L 212.054525 166.993842 
L 212.338076 164.647772 
L 212.621627 165.558599 
L 212.905178 170.002332 
L 213.188729 168.62229 
L 214.039382 173.148826 
L 214.322933 173.231628 
L 214.890035 175.688102 
L 215.173586 178.64139 
L 216.30779 202.212495 
L 217.158443 210.354738 
L 217.725545 214.053249 
L 218.292647 112.42701 
L 218.859749 66.140426 
L 219.1433 62.359113 
L 219.426851 64.180767 
L 219.710402 63.711553 
L 219.993953 60.26145 
L 220.844606 55.2381 
L 221.128157 54.327273 
L 221.411708 55.707314 
L 221.97881 68.238089 
L 222.262361 74.365472 
L 222.545912 85.212596 
L 223.396565 138.206181 
L 223.963667 151.675384 
L 225.097871 169.257109 
L 226.515626 186.231617 
L 226.799177 188.35688 
L 227.082728 191.448173 
L 227.366279 193.297428 
L 229.918238 220.153031 
L 230.768891 225.038377 
L 231.052442 225.424789 
L 231.903095 229.592514 
L 232.186646 229.951324 
L 232.470197 230.944954 
L 232.753748 232.904613 
L 233.037299 233.953444 
L 233.32085 234.119049 
L 233.604401 234.036246 
L 234.455054 236.603123 
L 235.022156 239.308004 
L 235.305707 240.881251 
L 235.589258 240.826049 
L 236.15636 242.923712 
L 236.723462 246.015005 
L 237.574115 248.057466 
L 237.857666 246.925832 
L 238.141217 247.036235 
L 238.424768 246.787828 
L 238.708319 246.732626 
L 238.99187 247.119038 
L 239.27542 247.063836 
L 239.558971 247.146638 
L 240.126073 247.698655 
L 240.409624 248.057466 
L 240.693175 248.085066 
L 240.976726 248.499079 
L 241.260277 247.615852 
L 241.543828 248.55428 
L 242.11093 251.617972 
L 242.394481 251.755976 
L 242.961583 253.439627 
L 243.528685 255.785697 
L 244.379338 257.634952 
L 244.662889 256.751726 
L 244.94644 255.288882 
L 245.229991 254.57126 
L 245.513542 254.460857 
L 245.797093 254.184849 
L 246.080644 254.488458 
L 246.364195 254.444297 
L 246.647746 254.957672 
L 247.214848 255.068075 
L 247.498399 255.123277 
L 247.78195 254.957672 
L 248.065501 254.21245 
L 248.349052 254.378055 
L 248.632603 255.620092 
L 248.916154 256.337713 
L 249.199705 256.613721 
L 249.766807 258.131767 
L 250.050358 258.214569 
L 250.333909 257.91096 
L 250.61746 257.303742 
L 250.901011 257.138137 
L 251.184562 257.24854 
L 251.468113 257.717755 
L 251.751664 256.834528 
L 252.035215 256.530919 
L 252.318766 256.795887 
L 252.885868 257.055335 
L 253.169419 256.862129 
L 254.870725 257.91096 
L 255.154276 258.407775 
L 255.437827 259.152997 
L 255.721378 258.932191 
L 256.004929 259.014993 
L 256.28848 259.373804 
L 257.139133 259.870619 
L 257.422684 260.947051 
L 257.706235 261.278261 
L 257.989786 261.797156 
L 258.273337 261.747475 
L 258.556888 261.278261 
L 258.840439 260.56064 
L 259.12399 260.284631 
L 259.407541 260.312232 
L 259.691092 260.58824 
L 260.258194 260.119026 
L 260.541745 260.339833 
L 260.825296 260.091425 
L 261.108847 260.284631 
L 261.392398 260.22943 
L 261.675949 259.097796 
L 261.9595 259.484207 
L 262.243051 261.223059 
L 262.526602 261.885479 
L 262.810153 261.719874 
L 263.377255 262.989512 
L 263.660806 264.612441 
L 264.511459 266.798426 
L 264.79501 266.550019 
L 265.078561 265.556389 
L 265.362112 263.458726 
L 266.212765 262.851508 
L 266.496316 262.437496 
L 266.779867 262.823907 
L 267.063418 262.93431 
L 267.63052 262.327092 
L 267.914071 262.520298 
L 268.197622 262.24429 
L 268.481173 261.167858 
L 268.764724 262.051084 
L 269.048275 263.541529 
L 269.331826 263.353843 
L 269.615377 263.458726 
L 269.898928 263.955541 
L 270.46603 265.887599 
L 270.749581 267.433245 
L 271.033132 267.433245 
L 271.316683 268.068064 
L 271.600234 267.874858 
L 271.883785 265.721994 
L 272.734438 264.535158 
L 273.017989 264.203948 
L 273.868642 264.065944 
L 274.152193 264.176348 
L 274.435744 263.955541 
L 274.719295 264.093545 
L 275.569948 262.658302 
L 276.13705 263.403525 
L 276.704152 264.314352 
L 277.271254 265.58399 
L 277.554805 265.031973 
L 277.838356 264.976772 
L 278.121907 264.617961 
L 278.689009 265.694393 
L 279.256111 265.473586 
L 279.539662 264.92157 
L 279.823213 265.197578 
L 280.390315 264.92157 
L 280.673866 264.148747 
L 280.957417 263.900339 
L 281.240968 264.562759 
L 281.80807 263.789936 
L 282.091621 263.624331 
L 282.658722 264.783566 
L 282.942273 264.452356 
L 283.225824 265.059574 
L 283.509375 266.301611 
L 283.792926 265.887599 
L 284.076477 266.467216 
L 284.360028 267.433245 
L 284.643579 267.819657 
L 285.494232 266.329212 
L 285.777783 266.522418 
L 286.344885 265.501187 
L 286.628436 266.301611 
L 286.911987 265.749595 
L 287.195538 264.783566 
L 287.479089 265.363183 
L 287.76264 264.92157 
L 288.046191 264.811167 
L 288.329742 264.838767 
L 288.613293 265.501187 
L 288.896844 264.397154 
L 289.180395 264.949171 
L 289.463946 265.859998 
L 289.747497 265.445986 
L 290.314599 266.053204 
L 290.59815 266.715624 
L 290.881701 268.095665 
L 291.165252 268.095665 
L 291.448803 267.488447 
L 292.015905 268.868488 
L 292.299456 268.978891 
L 292.866558 266.991632 
L 293.717211 266.467216 
L 294.284313 266.053204 
L 294.567864 266.27401 
L 294.851415 265.9428 
L 295.134966 265.804796 
L 295.418517 265.9428 
L 295.702068 264.92157 
L 295.985619 265.335582 
L 296.26917 267.322842 
L 296.552721 266.412014 
L 296.836272 266.412014 
L 297.119823 267.129636 
L 297.403374 268.150866 
L 297.686925 267.59885 
L 297.970476 268.454476 
L 298.254027 268.316471 
L 298.537578 267.681652 
L 298.821129 268.123266 
L 299.10468 268.150866 
L 299.388231 267.212438 
L 299.955333 266.688023 
L 300.238884 267.659572 
L 300.522435 267.516047 
L 300.805986 266.991632 
L 301.089537 266.881229 
L 301.373088 266.108405 
L 301.656639 266.853628 
L 301.94019 266.550019 
L 302.507292 265.363183 
L 302.790843 265.9428 
L 303.074394 266.853628 
L 303.357945 266.908829 
L 303.641496 265.611591 
L 303.925047 260.809047 
L 304.492149 244.85577 
L 304.7757 243.668934 
L 305.342802 259.070195 
L 305.626353 261.719874 
L 305.909904 261.598431 
L 306.193455 261.057454 
L 306.760557 260.698644 
L 307.044108 261.333463 
L 307.61121 260.753845 
L 307.894761 260.119026 
L 308.461863 261.140257 
L 308.745414 260.615841 
L 309.028965 260.91945 
L 309.312516 260.91945 
L 309.596067 261.167858 
L 310.163169 262.189088 
L 310.44672 262.492697 
L 310.730271 263.431125 
L 311.013822 262.078685 
L 311.297373 262.271891 
L 311.580924 261.764035 
L 311.864475 262.133887 
L 312.148026 261.830277 
L 312.431577 260.836648 
L 312.715128 260.25703 
L 313.28223 261.91308 
L 313.565781 262.409895 
L 313.849332 262.603101 
L 314.132883 262.658302 
L 314.416434 262.299492 
L 314.699985 262.409895 
L 314.983536 262.299492 
L 315.267087 262.879109 
L 315.550638 262.796306 
L 315.834189 263.072315 
L 316.11774 262.823907 
L 316.684842 263.458726 
L 317.251944 264.380594 
L 317.535495 264.452356 
L 317.819046 264.976772 
L 318.386148 265.004372 
L 318.669699 264.838767 
L 318.95325 264.452356 
L 319.236801 264.369553 
L 319.520352 264.148747 
L 320.087454 264.535158 
L 320.371005 264.121146 
L 320.654556 264.010743 
L 320.938107 264.535158 
L 321.221658 265.445986 
L 321.78876 264.479957 
L 322.355862 264.949171 
L 322.639413 264.92157 
L 322.922964 264.424755 
L 323.206515 264.744925 
L 323.490066 266.218809 
L 323.773617 266.412014 
L 324.057168 266.356813 
L 324.62427 266.522418 
L 325.191372 266.853628 
L 325.474923 266.853628 
L 326.042024 266.080805 
L 326.325575 265.694393 
L 326.609126 265.749595 
L 326.892677 266.108405 
L 327.176228 267.129636 
L 327.459779 266.688023 
L 327.74333 266.743224 
L 328.310432 265.307981 
L 328.593983 265.639191 
L 329.161085 265.804796 
L 329.444636 265.694393 
L 329.728187 265.9152 
L 330.011738 266.356813 
L 330.57884 268.012862 
L 330.862391 267.985262 
L 331.429493 269.144496 
L 331.713044 268.564879 
L 331.996595 268.426875 
L 332.280146 268.095665 
L 332.563697 268.896089 
L 332.847248 269.227299 
L 333.41435 267.543648 
L 333.697901 266.770825 
L 333.981452 266.329212 
L 334.265003 266.108405 
L 334.548554 265.60607 
L 334.832105 266.412014 
L 335.115656 266.439615 
L 335.399207 266.163607 
L 335.682758 266.191208 
L 335.966309 266.467216 
L 336.24986 266.467216 
L 336.533411 265.501187 
L 336.816962 265.694393 
L 337.100513 266.93643 
L 337.667615 267.792056 
L 338.234717 269.337702 
L 338.518268 268.95129 
L 338.801819 268.868488 
L 339.08537 268.316471 
L 339.368921 268.150866 
L 339.936023 266.715624 
L 343.622186 241.764477 
L 343.905737 243.779338 
L 344.189288 241.129658 
L 344.75639 233.843041 
L 345.039941 234.063847 
L 345.890594 237.883801 
L 346.741247 240.384436 
L 347.875451 245.076577 
L 348.159002 247.615852 
L 348.442553 248.223071 
L 349.009655 250.182729 
L 349.860308 251.700775 
L 350.143859 251.949182 
L 351.278063 256.420516 
L 351.561614 256.729645 
L 352.128716 258.104166 
L 352.412267 258.297372 
L 352.695818 259.2358 
L 352.979369 260.974652 
L 353.26292 261.692273 
L 353.546471 261.499068 
L 353.830022 260.753845 
L 354.113573 260.339833 
L 354.397124 260.22943 
L 354.680675 260.505438 
L 354.964226 260.036224 
L 355.247777 260.091425 
L 355.531328 261.223059 
L 355.814879 261.223059 
L 356.09843 261.443866 
L 356.381981 261.112656 
L 356.665532 261.747475 
L 356.949083 261.029854 
L 357.232634 261.085055 
L 357.516185 263.022633 
L 357.799736 263.403525 
L 358.083287 264.314352 
L 358.366838 264.783566 
L 358.650389 265.639191 
L 358.93394 265.666792 
L 359.501042 267.129636 
L 359.784593 268.371673 
L 360.068144 268.454476 
L 360.351695 266.27401 
L 360.635246 265.970401 
L 360.918797 264.976772 
L 361.202348 265.749595 
L 361.485899 265.528788 
L 361.76945 265.832397 
L 362.053001 265.473586 
L 362.336552 265.611591 
L 362.903654 265.611591 
L 364.037858 263.789936 
L 364.321409 264.949171 
L 364.60496 266.632821 
L 364.888511 266.688023 
L 365.172062 266.60522 
L 365.455613 267.157237 
L 366.022715 269.227299 
L 366.306266 268.012862 
L 366.873368 267.378043 
L 367.156919 267.212438 
L 367.44047 265.721994 
L 367.724021 266.494817 
L 368.007572 266.412014 
L 368.291123 265.777195 
L 368.574674 266.191208 
L 368.858225 265.738554 
L 369.141775 265.887599 
L 369.425326 266.688023 
L 369.708877 266.467216 
L 369.992428 266.439615 
L 370.275979 266.080805 
L 370.55953 265.280381 
L 370.843081 265.25278 
L 371.126632 265.832397 
L 371.410183 267.157237 
L 371.977285 267.985262 
L 372.260836 269.034093 
L 372.544387 269.116895 
L 373.111489 268.178467 
L 373.39504 268.785685 
L 373.678591 269.061694 
L 374.245693 267.626451 
L 374.529244 267.758935 
L 374.812795 267.488447 
L 375.096346 266.908829 
L 375.379897 267.074434 
L 375.663448 266.853628 
L 375.946999 267.184838 
L 376.23055 267.157237 
L 376.514101 267.378043 
L 376.797652 267.019233 
L 377.364754 266.743224 
L 377.648305 267.157237 
L 378.215407 269.089295 
L 378.498958 269.061694 
L 378.782509 269.392904 
L 379.06606 269.917319 
L 379.916713 268.399274 
L 380.483815 267.681652 
L 380.767366 267.626451 
L 381.050917 267.874858 
L 381.334468 267.736854 
L 381.618019 268.040463 
L 381.90157 267.957661 
L 382.185121 268.537278 
L 382.468672 267.212438 
L 382.752223 268.068064 
L 383.035774 267.405644 
L 383.602876 268.233669 
L 383.886427 267.433245 
L 384.169978 267.074434 
L 384.453529 267.405644 
L 384.73708 268.620081 
L 385.020631 268.92369 
L 385.304182 268.95129 
L 385.587733 269.392904 
L 385.871284 269.61371 
L 386.154835 270.303731 
L 386.438386 270.414134 
L 386.721937 270.745344 
L 387.005488 271.324961 
L 387.289039 271.159356 
L 387.57259 270.828147 
L 388.139692 269.365303 
L 388.990345 268.840887 
L 389.557447 267.819657 
L 389.840998 268.702883 
L 390.124549 268.95129 
L 390.691651 268.426875 
L 390.975202 267.543648 
L 391.258753 267.59885 
L 391.542304 268.785685 
L 391.825855 269.348742 
L 392.109406 269.558509 
L 392.392957 269.530908 
L 392.676508 270.138126 
L 392.960059 270.358932 
L 393.24361 271.104155 
L 393.810712 270.082924 
L 394.094263 270.027723 
L 394.377814 269.779315 
L 394.661365 269.2825 
L 394.944916 269.254899 
L 395.228467 268.785685 
L 395.512018 268.92369 
L 395.795569 268.095665 
L 396.07912 268.26127 
L 396.929773 267.654052 
L 397.213324 268.26127 
L 397.496875 267.825177 
L 397.780426 267.626451 
L 398.063977 267.819657 
L 398.347528 267.874858 
L 398.91463 269.006492 
L 399.198181 270.248529 
L 399.481732 269.089295 
L 399.765283 270.883348 
L 400.332385 272.6222 
L 400.899487 271.545768 
L 401.183038 270.634941 
L 401.466589 270.193328 
L 401.75014 270.110525 
L 402.600793 269.172097 
L 402.884344 269.310101 
L 403.167895 269.249379 
L 403.451446 269.337702 
L 404.302099 268.92369 
L 404.869201 267.819657 
L 405.152752 268.454476 
L 405.436303 269.448105 
L 405.719854 269.503307 
L 406.286956 270.579739 
L 406.570507 271.876978 
L 406.854058 274.305851 
L 407.137609 273.864237 
L 407.704711 271.60097 
L 407.988262 270.60734 
L 408.271813 270.165727 
L 409.406017 269.310101 
L 409.689568 269.641311 
L 409.973119 269.547468 
L 410.25667 269.641311 
L 410.823772 269.116895 
L 411.107323 268.647681 
L 411.674425 268.59248 
L 411.957976 269.172097 
L 412.241527 270.386533 
L 412.808628 271.518167 
L 413.092179 271.794175 
L 413.37573 273.450225 
L 413.942832 274.526657 
L 414.226383 274.305851 
L 414.509934 273.422624 
L 414.793485 270.662542 
L 415.360587 270.910949 
L 415.644138 270.414134 
L 415.927689 270.358932 
L 416.21124 270.524537 
L 416.778342 270.27613 
L 417.061893 270.441735 
L 417.628995 269.61371 
L 417.912546 269.889718 
L 418.479648 268.675282 
L 418.763199 269.392904 
L 419.04675 271.021352 
L 419.330301 271.435365 
L 419.613852 272.097784 
L 419.897403 271.987381 
L 420.464505 274.747464 
L 421.031607 273.864237 
L 421.598709 270.828147 
L 421.88226 270.690142 
L 422.449362 271.26976 
L 422.732913 271.242159 
L 423.016464 270.717743 
L 423.300015 271.159356 
L 423.583566 269.94492 
L 423.867117 270.386533 
L 424.150668 270.138126 
L 424.434219 269.254899 
L 425.001321 269.2825 
L 425.284872 268.537278 
L 425.851974 270.496937 
L 426.135525 270.441735 
L 426.419076 270.524537 
L 426.702627 271.214558 
L 426.986178 273.450225 
L 427.269729 273.367422 
L 427.55328 273.477826 
L 428.403933 270.469336 
L 428.971035 269.917319 
L 429.538137 269.94492 
L 429.821688 269.696513 
L 430.105239 269.834517 
L 430.672341 269.779315 
L 430.955892 269.365303 
L 431.239443 269.172097 
L 431.522994 268.840887 
L 431.806545 268.978891 
L 432.090096 269.392904 
L 432.657198 269.806916 
L 433.2243 270.772945 
L 433.507851 270.552138 
L 433.791402 271.214558 
L 434.074953 270.800546 
L 434.358504 270.690142 
L 434.925606 269.724114 
L 435.209157 269.381863 
L 435.492708 269.365303 
L 435.776259 269.917319 
L 436.05981 269.420504 
L 436.626912 269.172097 
L 436.910463 268.482076 
L 438.044667 268.316471 
L 438.328218 267.681652 
L 438.89532 265.280381 
L 439.178871 259.2358 
L 439.462422 256.806927 
L 440.596626 263.762335 
L 440.880177 263.453206 
L 441.163728 264.479957 
L 441.447279 265.998002 
L 442.014381 265.804796 
L 442.297932 265.004372 
L 442.581483 265.280381 
L 442.865034 265.721994 
L 443.148585 265.556389 
L 443.432136 265.142377 
L 443.715687 265.031973 
L 445.416993 265.280381 
L 446.551197 266.467216 
L 446.834748 266.908829 
L 447.40185 266.93643 
L 447.685401 266.743224 
L 448.252503 266.688023 
L 448.536054 266.412014 
L 448.819605 266.439615 
L 449.103156 266.053204 
L 449.386707 264.176348 
L 449.670258 263.044714 
L 450.23736 251.728375 
L 450.520911 247.86426 
L 450.804462 246.843029 
L 451.088013 247.174239 
L 451.371564 249.051095 
L 451.938666 256.089306 
L 452.222217 256.199709 
L 452.789319 251.53517 
L 453.07287 248.968293 
L 453.356421 247.836659 
L 453.639972 247.588252 
L 453.923523 247.753857 
L 454.207074 248.471478 
L 454.774176 251.397166 
L 455.057727 251.148758 
L 455.341278 250.403536 
L 455.624828 251.231561 
L 455.908379 252.639203 
L 457.893236 257.657033 
L 458.176787 257.938561 
L 459.878093 261.361063 
L 460.161644 262.796306 
L 460.728746 264.148747 
L 461.012297 265.9152 
L 461.579399 264.535158 
L 461.86295 264.479957 
L 462.146501 263.955541 
L 462.430052 263.955541 
L 462.713603 264.121146 
L 463.280705 265.169977 
L 463.847807 264.976772 
L 464.414909 265.473586 
L 464.69846 265.225179 
L 464.982011 265.611591 
L 465.549113 265.418385 
L 466.116215 264.59036 
L 466.966868 267.59885 
L 467.250419 268.123266 
L 467.53397 268.206068 
L 468.668174 271.904579 
L 469.235276 268.233669 
L 469.802378 267.59885 
L 470.085929 267.460846 
L 470.653031 267.725814 
L 471.503684 267.019233 
L 471.787235 267.129636 
L 472.070786 267.681652 
L 472.354337 267.460846 
L 472.637888 266.826027 
L 472.921439 267.102035 
L 473.20499 267.543648 
L 473.488541 268.59248 
L 473.772092 268.896089 
L 474.055643 269.641311 
L 474.339194 269.668912 
L 474.622745 271.849377 
L 474.906296 272.870608 
L 475.189847 273.422624 
L 475.473398 273.533027 
L 476.0405 269.806916 
L 476.324051 269.227299 
L 476.607602 269.006492 
L 476.891153 268.978891 
L 477.174704 268.482076 
L 477.458255 268.719443 
L 478.592459 268.482076 
L 478.87601 268.620081 
L 479.159561 268.482076 
L 479.443112 267.93006 
L 479.726663 267.129636 
L 480.293765 268.785685 
L 480.577316 268.896089 
L 481.144418 269.586109 
L 481.427969 270.662542 
L 481.995071 275.051073 
L 482.278622 274.63706 
L 482.845724 270.386533 
L 483.412826 268.675282 
L 483.979928 267.93006 
L 484.54703 268.095665 
L 484.830581 267.985262 
L 485.114132 268.095665 
L 485.397683 267.874858 
L 485.681234 267.985262 
L 485.964785 267.874858 
L 486.248336 267.543648 
L 486.531887 266.522418 
L 486.815438 266.826027 
L 487.098989 268.785685 
L 487.38254 268.26127 
L 487.666091 268.454476 
L 487.949642 269.310101 
L 488.800295 273.422624 
L 489.083846 273.395023 
L 489.367397 272.152986 
L 489.650948 270.386533 
L 489.934499 269.641311 
L 490.21805 269.2825 
L 490.785152 269.116895 
L 491.068703 269.199698 
L 491.352254 269.006492 
L 491.635805 269.144496 
L 492.202907 268.813286 
L 492.486458 268.978891 
L 492.770009 268.730484 
L 493.337111 267.295241 
L 493.620662 267.681652 
L 493.904213 268.758085 
L 494.187764 269.2825 
L 494.471315 270.082924 
L 494.754866 269.696513 
L 495.321968 271.324961 
L 495.605519 271.567849 
L 495.88907 272.539398 
L 496.739723 269.558509 
L 497.023274 269.420504 
L 497.306825 269.668912 
L 497.873927 269.227299 
L 498.157478 269.089295 
L 498.441029 268.785685 
L 499.00813 268.647681 
L 499.291681 268.675282 
L 499.575232 268.868488 
L 499.858783 268.537278 
L 500.142334 268.509677 
L 500.709436 269.199698 
L 501.276538 269.61371 
L 501.560089 269.713073 
L 502.127191 269.006492 
L 502.410742 268.813286 
L 502.694293 265.9152 
L 502.977844 259.732615 
L 503.544946 242.896111 
L 503.828497 242.123288 
L 504.67915 254.488458 
L 504.962701 254.019244 
L 505.529803 240.770848 
L 505.813354 237.569152 
L 506.096905 236.851531 
L 506.947558 239.225202 
L 508.081762 246.649824 
L 508.365313 248.19547 
L 508.932415 252.528799 
L 509.215966 253.798437 
L 509.499517 253.163618 
L 509.783068 254.184849 
L 510.066619 254.516059 
L 510.35017 254.54366 
L 510.633721 255.454487 
L 510.917272 255.702894 
L 511.200823 255.730495 
L 511.484374 257.000133 
L 511.767925 257.082936 
L 512.051476 258.021364 
L 512.335027 257.745355 
L 512.902129 259.048114 
L 513.18568 258.987392 
L 513.752782 260.008623 
L 514.319884 262.216689 
L 514.603435 262.133887 
L 514.886986 262.603101 
L 515.170537 263.431125 
L 515.454088 263.320722 
L 515.737639 264.203948 
L 516.02119 263.707134 
L 516.304741 264.314352 
L 524.811271 266.329212 
L 525.094822 266.60522 
L 525.378373 266.356813 
L 525.661924 266.467216 
L 526.229026 266.467216 
L 526.512577 266.108405 
L 527.079679 266.550019 
L 527.36323 266.136006 
L 527.646781 266.60522 
L 527.930332 267.819657 
L 528.497434 268.26127 
L 528.780985 267.92454 
L 529.064536 269.144496 
L 529.348087 269.448105 
L 529.631638 269.475706 
L 530.19874 268.26127 
L 530.482291 267.874858 
L 531.332944 267.571249 
L 531.616495 267.902459 
L 531.900046 267.709253 
L 532.183597 267.957661 
L 532.750699 267.902459 
L 533.317801 267.543648 
L 533.601352 267.764455 
L 533.884903 267.654052 
L 534.168454 267.736854 
L 534.735556 268.758085 
L 535.019107 268.26127 
L 535.302658 268.647681 
L 535.86976 268.316471 
L 536.153311 268.564879 
L 536.436862 268.316471 
L 537.003964 267.571249 
L 537.287515 267.460846 
L 537.854617 267.59885 
L 538.138168 267.571249 
L 538.421719 267.764455 
L 538.70527 267.59885 
L 538.988821 267.819657 
L 539.555923 267.460846 
L 539.839474 267.654052 
L 540.123025 267.427725 
L 540.406576 267.571249 
L 540.690127 267.460846 
L 540.973678 267.543648 
L 541.824331 268.371673 
L 542.107881 268.564879 
L 542.391432 268.95129 
L 542.674983 269.144496 
L 543.525636 268.26127 
L 543.809187 268.233669 
L 544.092738 268.371673 
L 544.376289 268.040463 
L 544.943391 268.813286 
L 545.510493 268.26127 
L 545.794044 267.433245 
L 546.077595 268.421355 
L 546.361146 268.730484 
L 546.644697 268.233669 
L 547.211799 268.454476 
L 547.49535 268.206068 
L 547.778901 266.577619 
L 548.629554 269.2825 
L 548.913105 269.724114 
L 549.196656 269.779315 
L 549.480207 270.220928 
L 549.763758 271.656171 
L 550.047309 271.186957 
L 550.33086 269.834517 
L 550.614411 269.116895 
L 550.897962 268.758085 
L 551.465064 268.454476 
L 551.748615 268.520718 
L 552.032166 268.288871 
L 552.599268 268.730484 
L 553.16637 268.399274 
L 553.449921 268.840887 
L 553.733472 268.426875 
L 554.017023 268.399274 
L 554.300574 268.206068 
L 554.584125 268.482076 
L 554.867676 268.426875 
L 555.151227 268.59248 
L 555.434778 268.399274 
L 555.718329 268.95129 
L 556.00188 268.95129 
L 556.285431 269.199698 
L 556.568982 269.641311 
L 557.136084 268.813286 
L 557.419635 268.885048 
L 558.270288 268.564879 
L 558.553839 268.068064 
L 558.83739 268.150866 
L 559.120941 268.012862 
L 559.404492 268.178467 
L 559.688043 267.847257 
L 560.255145 267.792056 
L 560.538696 267.405644 
L 560.822247 266.191208 
L 561.105798 265.666792 
L 561.389349 264.507558 
L 561.6729 260.864249 
L 562.240002 256.972532 
L 562.523553 251.286762 
L 562.807104 247.947062 
L 563.090655 248.051945 
L 563.374206 249.078696 
L 563.941308 254.074446 
L 564.224859 256.668923 
L 564.50841 257.828158 
L 564.791961 257.496948 
L 565.359063 252.335594 
L 565.642614 251.86638 
L 565.926165 249.796318 
L 566.209716 249.630713 
L 566.776818 249.934322 
L 567.060369 250.569141 
L 567.627471 251.176359 
L 568.761675 256.497798 
L 569.045226 256.420516 
L 569.328777 255.288882 
L 569.612328 255.123277 
L 570.462981 257.22094 
L 571.030083 257.22094 
L 571.313634 256.365314 
L 571.597185 256.613721 
L 572.731389 259.070195 
L 573.01494 259.2358 
L 573.582042 260.091425 
L 573.865593 260.036224 
L 574.149144 260.201829 
L 574.432695 260.803527 
L 574.716246 261.029854 
L 575.566899 262.547899 
L 576.134001 263.955541 
L 576.417552 264.065944 
L 576.701103 263.955541 
L 576.984654 264.231549 
L 577.268205 263.789936 
L 577.835307 263.624331 
L 578.118858 263.762335 
L 578.402409 263.651932 
L 578.68596 264.535158 
L 578.969511 264.314352 
L 579.253062 263.707134 
L 579.536613 264.286751 
L 580.387266 264.347473 
L 580.954368 264.700763 
L 581.237919 264.92157 
L 581.52147 264.866368 
L 582.372123 266.108405 
L 582.655674 266.743224 
L 582.939225 266.439615 
L 583.222776 266.688023 
L 583.789878 266.743224 
L 584.35698 266.163607 
L 584.640531 266.108405 
L 584.924082 266.412014 
L 585.207633 264.783566 
L 585.491183 264.949171 
L 585.774734 265.307981 
L 586.341836 267.129636 
L 586.908938 266.136006 
L 587.192489 266.660422 
L 587.47604 266.770825 
L 587.759591 266.715624 
L 588.043142 267.157237 
L 588.326693 266.715624 
L 588.610244 265.501187 
L 588.893795 265.970401 
L 589.177346 267.378043 
L 589.460897 267.709253 
L 589.744448 267.405644 
L 590.027999 268.620081 
L 590.31155 268.206068 
L 590.595101 268.426875 
L 590.878652 268.095665 
L 591.162203 268.316471 
L 591.729305 267.825177 
L 592.012856 266.991632 
L 592.296407 267.184838 
L 592.863509 268.344072 
L 593.14706 268.316471 
L 593.714162 267.626451 
L 594.281264 267.847257 
L 594.564815 267.516047 
L 594.848366 266.93643 
L 595.131917 266.881229 
L 595.415468 266.24641 
L 595.699019 266.798426 
L 595.98257 267.985262 
L 596.266121 268.344072 
L 596.549672 268.482076 
L 596.833223 267.764455 
L 597.967427 266.715624 
L 598.250978 266.218809 
L 598.81808 263.900339 
L 599.101631 263.569129 
L 599.385182 261.857878 
L 599.668733 261.140257 
L 600.235835 263.182718 
L 600.519386 264.010743 
L 601.086488 264.783566 
L 601.370039 264.755965 
L 601.937141 263.845138 
L 602.220692 263.541529 
L 603.354896 263.900339 
L 603.638447 263.92794 
L 603.921998 261.58187 
L 604.205549 261.443866 
L 604.4891 261.719874 
L 604.772651 261.140257 
L 605.623304 253.632832 
L 605.906855 253.936441 
L 606.190406 254.57126 
L 606.757508 257.000133 
L 607.041059 257.193339 
L 607.32461 256.420516 
L 608.175263 252.087186 
L 608.742365 251.595891 
L 609.025916 251.728375 
L 609.309467 252.197589 
L 610.16012 254.847269 
L 610.443671 256.116907 
L 610.727222 256.475717 
L 611.010773 257.24854 
L 611.294324 258.380174 
L 611.577875 257.883359 
L 611.861426 256.751726 
L 612.144977 257.082936 
L 612.712079 259.042594 
L 612.99563 259.401405 
L 613.279181 260.063825 
L 613.562732 261.140257 
L 613.846283 261.526668 
L 614.129834 261.085055 
L 614.413385 261.499068 
L 614.696936 262.293971 
L 615.547589 262.189088 
L 615.83114 262.023483 
L 616.398242 263.983142 
L 616.965344 264.838767 
L 617.248895 262.989512 
L 617.532446 262.658302 
L 617.815997 263.817537 
L 618.099548 264.148747 
L 618.383099 264.25915 
L 618.66665 263.789936 
L 618.950201 262.630701 
L 619.233752 262.465096 
L 619.517303 262.023483 
L 620.084405 262.520298 
L 620.367956 262.625181 
L 620.651507 263.099915 
L 620.935058 263.293121 
L 621.218609 263.320722 
L 621.50216 263.845138 
L 621.785711 263.541529 
L 622.069262 264.010743 
L 622.352813 263.59673 
L 622.636364 263.734734 
L 622.636364 263.734734 
" clip-path="url(#p4c01f80874)" style="fill: none; stroke: #1f77b4; stroke-width: 1.5; stroke-linecap: square"/>
   </g>
   <g id="line2d_15">
    <path d="M 115.363636 267.816191 
L 115.930738 267.924095 
L 116.214289 271.93218 
L 120.184003 272.371435 
L 120.467554 272.666262 
L 121.034656 270.437533 
L 121.318207 270.55224 
L 121.601758 270.12116 
L 122.735962 270.321323 
L 123.019513 271.159356 
L 128.123431 271.875374 
L 128.406982 271.826518 
L 128.974084 269.935792 
L 129.257635 270.053634 
L 129.541186 268.911565 
L 129.824737 267.157237 
L 131.809594 267.64906 
L 132.093145 267.768821 
L 132.376696 267.661732 
L 132.660247 268.53 
L 132.943798 267.815267 
L 133.227349 266.619965 
L 134.078002 261.96862 
L 134.361553 261.721026 
L 134.928655 261.868926 
L 136.34641 262.431557 
L 136.629961 268.482076 
L 141.166777 269.446599 
L 143.151634 269.830076 
L 143.435185 269.420504 
L 148.822654 270.461658 
L 149.389756 269.914366 
L 149.956858 268.657183 
L 150.240409 265.087175 
L 150.807511 263.518204 
L 151.374613 260.21726 
L 152.225266 251.963789 
L 152.792367 248.660448 
L 153.075918 248.666178 
L 153.359469 245.378515 
L 153.64302 243.419982 
L 154.493673 231.482201 
L 155.060775 224.67428 
L 155.627877 217.072651 
L 155.911428 214.728575 
L 156.194979 213.858716 
L 156.47853 213.794941 
L 156.762081 214.03178 
L 157.045632 258.600981 
L 160.731795 260.267949 
L 163.567305 261.442312 
L 163.850856 269.144496 
L 168.104121 269.810874 
L 168.387672 269.701076 
L 168.671223 268.89831 
L 169.521876 264.765772 
L 170.088978 263.239674 
L 170.372529 262.862238 
L 170.65608 260.146627 
L 176.610651 262.357747 
L 177.177753 262.551699 
L 177.461304 263.127516 
L 182.848773 264.765521 
L 183.982977 265.083091 
L 184.266528 268.509677 
L 191.355303 269.752227 
L 203.264444 271.553592 
L 204.398648 271.683821 
L 204.682199 271.93218 
L 211.203872 272.582016 
L 211.487423 272.52649 
L 212.054525 270.845688 
L 212.905178 262.981551 
L 213.188729 262.003208 
L 213.47228 261.83021 
L 214.322933 262.070432 
L 216.30779 262.670992 
L 216.874892 261.165763 
L 217.158443 260.885773 
L 217.725545 257.675392 
L 218.009096 255.445754 
L 218.292647 254.896522 
L 218.576198 254.856783 
L 220.844606 256.010826 
L 225.381422 258.179473 
L 230.201789 260.223503 
L 235.305707 262.131332 
L 238.424768 263.181693 
L 238.708319 246.787828 
L 242.961583 249.471639 
L 245.229991 250.802013 
L 245.513542 254.57126 
L 250.333909 256.801327 
L 250.901011 257.079978 
L 251.184562 256.860563 
L 252.035215 254.808795 
L 252.318766 256.530919 
L 252.885868 256.47727 
L 253.736521 256.804653 
L 258.840439 259.21407 
L 259.12399 260.56064 
L 263.660806 262.490042 
L 268.481173 264.283093 
L 273.585091 265.929806 
L 278.97256 267.424924 
L 284.643579 268.767387 
L 287.479089 269.360731 
L 287.76264 265.363183 
L 293.717211 267.128021 
L 298.254027 268.132624 
L 299.388231 268.106176 
L 299.671782 268.167343 
L 299.955333 267.763085 
L 300.805986 263.979996 
L 301.089537 263.52754 
L 301.373088 263.343263 
L 301.94019 263.314536 
L 303.357945 263.710354 
L 309.312516 265.515191 
L 314.983536 266.995117 
L 321.221658 268.389727 
L 328.026881 269.67402 
L 335.399207 270.831335 
L 339.936023 271.440767 
L 343.622186 223.948145 
L 343.905737 223.968849 
L 344.472839 224.306976 
L 345.607043 225.456297 
L 350.994512 231.450901 
L 351.278063 252.953852 
L 355.814879 255.312594 
L 356.381981 255.590169 
L 356.665532 261.443866 
L 362.053001 263.20921 
L 363.470756 263.637852 
L 363.754307 265.639191 
L 369.992428 267.092057 
L 370.275979 265.721994 
L 376.797652 267.224228 
L 377.081203 267.284471 
L 377.364754 266.757025 
L 379.916713 267.349826 
L 380.483815 267.14149 
L 380.767366 267.217549 
L 381.334468 267.010566 
L 382.185121 266.5887 
L 383.602876 266.866427 
L 383.886427 267.129636 
L 390.4081 268.690932 
L 390.691651 268.426875 
L 396.929773 269.708447 
L 397.496875 269.814029 
L 397.780426 268.123266 
L 403.734997 269.398868 
L 404.302099 269.509423 
L 404.58565 269.034093 
L 411.107323 270.265503 
L 412.241527 270.45721 
L 412.525077 268.495877 
L 417.912546 269.606005 
L 418.196097 270.27613 
L 425.284872 271.376449 
L 431.522994 272.176454 
L 431.806545 269.61371 
L 435.492708 270.152885 
L 435.776259 270.086628 
L 436.626912 269.389924 
L 437.761116 269.11559 
L 438.044667 269.093043 
L 438.328218 268.454476 
L 439.462422 268.331416 
L 440.313075 268.238148 
L 441.163728 268.097465 
L 442.581483 268.25351 
L 446.267646 268.778691 
L 446.551197 265.363183 
L 447.968952 265.688881 
L 448.252503 266.24641 
L 451.088013 266.917281 
L 451.371564 266.77849 
L 451.655115 266.396663 
L 451.938666 247.008634 
L 452.789319 246.505983 
L 453.356421 246.578237 
L 454.207074 246.995195 
L 457.326134 249.020036 
L 461.579399 251.638658 
L 465.265562 253.70416 
L 465.549113 265.804796 
L 472.070786 267.306645 
L 472.354337 267.129636 
L 478.592459 268.503458 
L 478.87601 268.560742 
L 479.159561 268.288871 
L 485.397683 269.592962 
L 485.964785 269.700399 
L 486.248336 267.750655 
L 492.770009 269.084477 
L 493.05356 268.918169 
L 499.575232 270.18011 
L 499.858783 268.647681 
L 501.84364 269.04299 
L 502.127191 268.780884 
L 502.410742 267.962117 
L 502.694293 266.642289 
L 504.112048 256.925088 
L 504.395599 254.037866 
L 504.962701 251.765228 
L 505.246252 251.341351 
L 505.529803 251.151338 
L 506.096905 251.16939 
L 506.380456 251.276731 
L 506.664007 255.537289 
L 508.365313 256.406388 
L 513.18568 258.941162 
L 513.469231 257.193339 
L 515.737639 258.235245 
L 516.304741 258.427401 
L 526.796128 262.684141 
L 531.900046 264.379478 
L 533.601352 264.896182 
L 533.884903 267.916259 
L 536.436862 268.392362 
L 538.70527 268.190255 
L 540.123025 268.457989 
L 540.406576 267.92454 
L 546.928248 269.231698 
L 547.211799 269.266047 
L 547.49535 267.433245 
L 548.913105 267.030604 
L 551.465064 267.313027 
L 552.032166 267.302434 
L 553.16637 267.514995 
L 553.449921 267.388706 
L 553.733472 266.670011 
L 554.017023 268.702883 
L 554.300574 268.321364 
L 554.867676 268.141901 
L 555.718329 268.175564 
L 557.703186 268.542847 
L 557.986737 268.655838 
L 558.553839 268.130973 
L 558.83739 268.237076 
L 559.120941 267.737725 
L 559.404492 266.929273 
L 559.688043 266.552208 
L 560.538696 266.505015 
L 560.822247 266.542658 
L 561.105798 267.847257 
L 561.389349 266.87575 
L 561.956451 264.099051 
L 563.657757 259.530598 
L 563.941308 259.300754 
L 564.50841 259.292006 
L 565.642614 259.663411 
L 567.34392 260.406807 
L 567.627471 249.823918 
L 571.030083 251.833169 
L 572.731389 252.057775 
L 574.432695 252.915282 
L 574.716246 259.677413 
L 579.820164 261.572172 
L 581.237919 262.058973 
L 581.52147 264.424755 
L 587.47604 265.987147 
L 592.296407 267.04791 
L 594.848366 267.595222 
L 595.131917 267.792056 
L 595.415468 267.723388 
L 595.699019 267.524316 
L 595.98257 267.072521 
L 597.400325 263.957898 
L 598.534529 262.588521 
L 599.385182 260.293587 
L 599.952284 259.766462 
L 600.519386 259.667294 
L 601.370039 259.82613 
L 601.65359 259.9128 
L 601.937141 264.355753 
L 608.175263 265.970424 
L 608.458814 254.941111 
L 614.413385 257.744111 
L 615.264038 258.114764 
L 615.547589 261.499068 
L 620.367956 263.394938 
L 622.069262 264.005474 
L 622.352813 263.900339 
L 622.636364 264.0001 
L 622.636364 264.0001 
" clip-path="url(#p4c01f80874)" style="fill: none; stroke: #ff7f0e; stroke-width: 1.5; stroke-linecap: square"/>
   </g>
   <g id="patch_3">
    <path d="M 90 288 
L 90 43.2 
" style="fill: none; stroke: #000000; stroke-width: 0.8; stroke-linejoin: miter; stroke-linecap: square"/>
   </g>
   <g id="patch_4">
    <path d="M 648 288 
L 648 43.2 
" style="fill: none; stroke: #000000; stroke-width: 0.8; stroke-linejoin: miter; stroke-linecap: square"/>
   </g>
   <g id="patch_5">
    <path d="M 90 288 
L 648 288 
" style="fill: none; stroke: #000000; stroke-width: 0.8; stroke-linejoin: miter; stroke-linecap: square"/>
   </g>
   <g id="patch_6">
    <path d="M 90 43.2 
L 648 43.2 
" style="fill: none; stroke: #000000; stroke-width: 0.8; stroke-linejoin: miter; stroke-linecap: square"/>
   </g>
   <g id="text_15">
    <!-- DET015 -->
    <g transform="translate(345.471563 37.2) scale(0.12 -0.12)">
     <defs>
      <path id="DejaVuSans-44" d="M 1259 4147 
L 1259 519 
L 2022 519 
Q 2988 519 3436 956 
Q 3884 1394 3884 2338 
Q 3884 3275 3436 3711 
Q 2988 4147 2022 4147 
L 1259 4147 
z
M 628 4666 
L 1925 4666 
Q 3281 4666 3915 4102 
Q 4550 3538 4550 2338 
Q 4550 1131 3912 565 
Q 3275 0 1925 0 
L 628 0 
L 628 4666 
z
" transform="scale(0.015625)"/>
      <path id="DejaVuSans-45" d="M 628 4666 
L 3578 4666 
L 3578 4134 
L 1259 4134 
L 1259 2753 
L 3481 2753 
L 3481 2222 
L 1259 2222 
L 1259 531 
L 3634 531 
L 3634 0 
L 628 0 
L 628 4666 
z
" transform="scale(0.015625)"/>
      <path id="DejaVuSans-54" d="M -19 4666 
L 3928 4666 
L 3928 4134 
L 2272 4134 
L 2272 0 
L 1638 0 
L 1638 4134 
L -19 4134 
L -19 4666 
z
" transform="scale(0.015625)"/>
     </defs>
     <use xlink:href="#DejaVuSans-44"/>
     <use xlink:href="#DejaVuSans-45" x="77.001953"/>
     <use xlink:href="#DejaVuSans-54" x="140.185547"/>
     <use xlink:href="#DejaVuSans-30" x="201.269531"/>
     <use xlink:href="#DejaVuSans-31" x="264.892578"/>
     <use xlink:href="#DejaVuSans-35" x="328.515625"/>
    </g>
   </g>
   <g id="legend_1">
    <g id="patch_7">
     <path d="M 559.04375 80.55625 
L 641 80.55625 
Q 643 80.55625 643 78.55625 
L 643 50.2 
Q 643 48.2 641 48.2 
L 559.04375 48.2 
Q 557.04375 48.2 557.04375 50.2 
L 557.04375 78.55625 
Q 557.04375 80.55625 559.04375 80.55625 
z
" style="fill: #ffffff; opacity: 0.8; stroke: #cccccc; stroke-linejoin: miter"/>
    </g>
    <g id="line2d_16">
     <path d="M 561.04375 56.298437 
L 571.04375 56.298437 
L 581.04375 56.298437 
" style="fill: none; stroke: #1f77b4; stroke-width: 1.5; stroke-linecap: square"/>
    </g>
    <g id="text_16">
     <!-- measured -->
     <g transform="translate(589.04375 59.798437) scale(0.1 -0.1)">
      <defs>
       <path id="DejaVuSans-6d" d="M 3328 2828 
Q 3544 3216 3844 3400 
Q 4144 3584 4550 3584 
Q 5097 3584 5394 3201 
Q 5691 2819 5691 2113 
L 5691 0 
L 5113 0 
L 5113 2094 
Q 5113 2597 4934 2840 
Q 4756 3084 4391 3084 
Q 3944 3084 3684 2787 
Q 3425 2491 3425 1978 
L 3425 0 
L 2847 0 
L 2847 2094 
Q 2847 2600 2669 2842 
Q 2491 3084 2119 3084 
Q 1678 3084 1418 2786 
Q 1159 2488 1159 1978 
L 1159 0 
L 581 0 
L 581 3500 
L 1159 3500 
L 1159 2956 
Q 1356 3278 1631 3431 
Q 1906 3584 2284 3584 
Q 2666 3584 2933 3390 
Q 3200 3197 3328 2828 
z
" transform="scale(0.015625)"/>
       <path id="DejaVuSans-61" d="M 2194 1759 
Q 1497 1759 1228 1600 
Q 959 1441 959 1056 
Q 959 750 1161 570 
Q 1363 391 1709 391 
Q 2188 391 2477 730 
Q 2766 1069 2766 1631 
L 2766 1759 
L 2194 1759 
z
M 3341 1997 
L 3341 0 
L 2766 0 
L 2766 531 
Q 2569 213 2275 61 
Q 1981 -91 1556 -91 
Q 1019 -91 701 211 
Q 384 513 384 1019 
Q 384 1609 779 1909 
Q 1175 2209 1959 2209 
L 2766 2209 
L 2766 2266 
Q 2766 2663 2505 2880 
Q 2244 3097 1772 3097 
Q 1472 3097 1187 3025 
Q 903 2953 641 2809 
L 641 3341 
Q 956 3463 1253 3523 
Q 1550 3584 1831 3584 
Q 2591 3584 2966 3190 
Q 3341 2797 3341 1997 
z
" transform="scale(0.015625)"/>
       <path id="DejaVuSans-75" d="M 544 1381 
L 544 3500 
L 1119 3500 
L 1119 1403 
Q 1119 906 1312 657 
Q 1506 409 1894 409 
Q 2359 409 2629 706 
Q 2900 1003 2900 1516 
L 2900 3500 
L 3475 3500 
L 3475 0 
L 2900 0 
L 2900 538 
Q 2691 219 2414 64 
Q 2138 -91 1772 -91 
Q 1169 -91 856 284 
Q 544 659 544 1381 
z
M 1991 3584 
L 1991 3584 
z
" transform="scale(0.015625)"/>
       <path id="DejaVuSans-64" d="M 2906 2969 
L 2906 4863 
L 3481 4863 
L 3481 0 
L 2906 0 
L 2906 525 
Q 2725 213 2448 61 
Q 2172 -91 1784 -91 
Q 1150 -91 751 415 
Q 353 922 353 1747 
Q 353 2572 751 3078 
Q 1150 3584 1784 3584 
Q 2172 3584 2448 3432 
Q 2725 3281 2906 2969 
z
M 947 1747 
Q 947 1113 1208 752 
Q 1469 391 1925 391 
Q 2381 391 2643 752 
Q 2906 1113 2906 1747 
Q 2906 2381 2643 2742 
Q 2381 3103 1925 3103 
Q 1469 3103 1208 2742 
Q 947 2381 947 1747 
z
" transform="scale(0.015625)"/>
      </defs>
      <use xlink:href="#DejaVuSans-6d"/>
      <use xlink:href="#DejaVuSans-65" x="97.412109"/>
      <use xlink:href="#DejaVuSans-61" x="158.935547"/>
      <use xlink:href="#DejaVuSans-73" x="220.214844"/>
      <use xlink:href="#DejaVuSans-75" x="272.314453"/>
      <use xlink:href="#DejaVuSans-72" x="335.693359"/>
      <use xlink:href="#DejaVuSans-65" x="374.556641"/>
      <use xlink:href="#DejaVuSans-64" x="436.080078"/>
     </g>
    </g>
    <g id="line2d_17">
     <path d="M 561.04375 70.976562 
L 571.04375 70.976562 
L 581.04375 70.976562 
" style="fill: none; stroke: #ff7f0e; stroke-width: 1.5; stroke-linecap: square"/>
    </g>
    <g id="text_17">
     <!-- predicted -->
     <g transform="translate(589.04375 74.476562) scale(0.1 -0.1)">
      <defs>
       <path id="DejaVuSans-70" d="M 1159 525 
L 1159 -1331 
L 581 -1331 
L 581 3500 
L 1159 3500 
L 1159 2969 
Q 1341 3281 1617 3432 
Q 1894 3584 2278 3584 
Q 2916 3584 3314 3078 
Q 3713 2572 3713 1747 
Q 3713 922 3314 415 
Q 2916 -91 2278 -91 
Q 1894 -91 1617 61 
Q 1341 213 1159 525 
z
M 3116 1747 
Q 3116 2381 2855 2742 
Q 2594 3103 2138 3103 
Q 1681 3103 1420 2742 
Q 1159 2381 1159 1747 
Q 1159 1113 1420 752 
Q 1681 391 2138 391 
Q 2594 391 2855 752 
Q 3116 1113 3116 1747 
z
" transform="scale(0.015625)"/>
       <path id="DejaVuSans-69" d="M 603 3500 
L 1178 3500 
L 1178 0 
L 603 0 
L 603 3500 
z
M 603 4863 
L 1178 4863 
L 1178 4134 
L 603 4134 
L 603 4863 
z
" transform="scale(0.015625)"/>
       <path id="DejaVuSans-63" d="M 3122 3366 
L 3122 2828 
Q 2878 2963 2633 3030 
Q 2388 3097 2138 3097 
Q 1578 3097 1268 2742 
Q 959 2388 959 1747 
Q 959 1106 1268 751 
Q 1578 397 2138 397 
Q 2388 397 2633 464 
Q 2878 531 3122 666 
L 3122 134 
Q 2881 22 2623 -34 
Q 2366 -91 2075 -91 
Q 1284 -91 818 406 
Q 353 903 353 1747 
Q 353 2603 823 3093 
Q 1294 3584 2113 3584 
Q 2378 3584 2631 3529 
Q 2884 3475 3122 3366 
z
" transform="scale(0.015625)"/>
      </defs>
      <use xlink:href="#DejaVuSans-70"/>
      <use xlink:href="#DejaVuSans-72" x="63.476562"/>
      <use xlink:href="#DejaVuSans-65" x="102.339844"/>
      <use xlink:href="#DejaVuSans-64" x="163.863281"/>
      <use xlink:href="#DejaVuSans-69" x="227.339844"/>
      <use xlink:href="#DejaVuSans-63" x="255.123047"/>
      <use xlink:href="#DejaVuSans-74" x="310.103516"/>
      <use xlink:href="#DejaVuSans-65" x="349.3125"/>
      <use xlink:href="#DejaVuSans-64" x="410.835938"/>
     </g>
    </g>
   </g>
  </g>
 </g>
 <defs>
  <clipPath id="p4c01f80874">
   <rect x="90" y="43.2" width="558" height="244.8"/>
  </clipPath>
 </defs>
</svg>
