<?xml version="1.0" encoding="utf-8" standalone="no"?>
<!DOCTYPE svg PUBLIC "-//W3C//DTD SVG 1.1//EN"
  "http://www.w3.org/Graphics/SVG/1.1/DTD/svg11.dtd">
<svg xmlns:xlink="http://www.w3.org/1999/xlink" width="720pt" height="360pt" viewBox="0 0 720 360" xmlns="http://www.w3.org/2000/svg" version="1.1">
 <metadata>
  <rdf:RDF xmlns:dc="http://purl.org/dc/elements/1.1/" xmlns:cc="http://creativecommons.org/ns#" xmlns:rdf="http://www.w3.org/1999/02/22-rdf-syntax-ns#">
   <cc:Work>
    <dc:type rdf:resource="http://purl.org/dc/dcmitype/StillImage"/>
    <dc:date>2023-10-23T10:55:30.450892</dc:date>
    <dc:format>image/svg+xml</dc:format>
    <dc:creator>
     <cc:Agent>
      <dc:title>Matplotlib v3.7.1, https://matplotlib.org/</dc:title>
     </cc:Agent>
    </dc:creator>
   </cc:Work>
  </rdf:RDF>
 </metadata>
 <defs>
  <style type="text/css">*{stroke-linejoin: round; stroke-linecap: butt}</style>
 </defs>
 <g id="figure_1">
  <g id="patch_1">
   <path d="M 0 360 
L 720 360 
L 720 0 
L 0 0 
z
" style="fill: #ffffff"/>
  </g>
  <g id="axes_1">
   <g id="patch_2">
    <path d="M 90 288 
L 648 288 
L 648 43.2 
L 90 43.2 
z
" style="fill: #ffffff"/>
   </g>
   <g id="matplotlib.axis_1">
    <g id="xtick_1">
     <g id="line2d_1">
      <defs>
       <path id="m8b95391be1" d="M 0 0 
L 0 3.5 
" style="stroke: #000000; stroke-width: 0.8"/>
      </defs>
      <g>
       <use xlink:href="#m8b95391be1" x="93.675016" y="288" style="stroke: #000000; stroke-width: 0.8"/>
      </g>
     </g>
     <g id="text_1">
      <!-- 2023-09-17 -->
      <g transform="translate(32.031675 337.765903) rotate(-30) scale(0.12 -0.12)">
       <defs>
        <path id="DejaVuSans-32" d="M 1228 531 
L 3431 531 
L 3431 0 
L 469 0 
L 469 531 
Q 828 903 1448 1529 
Q 2069 2156 2228 2338 
Q 2531 2678 2651 2914 
Q 2772 3150 2772 3378 
Q 2772 3750 2511 3984 
Q 2250 4219 1831 4219 
Q 1534 4219 1204 4116 
Q 875 4013 500 3803 
L 500 4441 
Q 881 4594 1212 4672 
Q 1544 4750 1819 4750 
Q 2544 4750 2975 4387 
Q 3406 4025 3406 3419 
Q 3406 3131 3298 2873 
Q 3191 2616 2906 2266 
Q 2828 2175 2409 1742 
Q 1991 1309 1228 531 
z
" transform="scale(0.015625)"/>
        <path id="DejaVuSans-30" d="M 2034 4250 
Q 1547 4250 1301 3770 
Q 1056 3291 1056 2328 
Q 1056 1369 1301 889 
Q 1547 409 2034 409 
Q 2525 409 2770 889 
Q 3016 1369 3016 2328 
Q 3016 3291 2770 3770 
Q 2525 4250 2034 4250 
z
M 2034 4750 
Q 2819 4750 3233 4129 
Q 3647 3509 3647 2328 
Q 3647 1150 3233 529 
Q 2819 -91 2034 -91 
Q 1250 -91 836 529 
Q 422 1150 422 2328 
Q 422 3509 836 4129 
Q 1250 4750 2034 4750 
z
" transform="scale(0.015625)"/>
        <path id="DejaVuSans-33" d="M 2597 2516 
Q 3050 2419 3304 2112 
Q 3559 1806 3559 1356 
Q 3559 666 3084 287 
Q 2609 -91 1734 -91 
Q 1441 -91 1130 -33 
Q 819 25 488 141 
L 488 750 
Q 750 597 1062 519 
Q 1375 441 1716 441 
Q 2309 441 2620 675 
Q 2931 909 2931 1356 
Q 2931 1769 2642 2001 
Q 2353 2234 1838 2234 
L 1294 2234 
L 1294 2753 
L 1863 2753 
Q 2328 2753 2575 2939 
Q 2822 3125 2822 3475 
Q 2822 3834 2567 4026 
Q 2313 4219 1838 4219 
Q 1578 4219 1281 4162 
Q 984 4106 628 3988 
L 628 4550 
Q 988 4650 1302 4700 
Q 1616 4750 1894 4750 
Q 2613 4750 3031 4423 
Q 3450 4097 3450 3541 
Q 3450 3153 3228 2886 
Q 3006 2619 2597 2516 
z
" transform="scale(0.015625)"/>
        <path id="DejaVuSans-2d" d="M 313 2009 
L 1997 2009 
L 1997 1497 
L 313 1497 
L 313 2009 
z
" transform="scale(0.015625)"/>
        <path id="DejaVuSans-39" d="M 703 97 
L 703 672 
Q 941 559 1184 500 
Q 1428 441 1663 441 
Q 2288 441 2617 861 
Q 2947 1281 2994 2138 
Q 2813 1869 2534 1725 
Q 2256 1581 1919 1581 
Q 1219 1581 811 2004 
Q 403 2428 403 3163 
Q 403 3881 828 4315 
Q 1253 4750 1959 4750 
Q 2769 4750 3195 4129 
Q 3622 3509 3622 2328 
Q 3622 1225 3098 567 
Q 2575 -91 1691 -91 
Q 1453 -91 1209 -44 
Q 966 3 703 97 
z
M 1959 2075 
Q 2384 2075 2632 2365 
Q 2881 2656 2881 3163 
Q 2881 3666 2632 3958 
Q 2384 4250 1959 4250 
Q 1534 4250 1286 3958 
Q 1038 3666 1038 3163 
Q 1038 2656 1286 2365 
Q 1534 2075 1959 2075 
z
" transform="scale(0.015625)"/>
        <path id="DejaVuSans-31" d="M 794 531 
L 1825 531 
L 1825 4091 
L 703 3866 
L 703 4441 
L 1819 4666 
L 2450 4666 
L 2450 531 
L 3481 531 
L 3481 0 
L 794 0 
L 794 531 
z
" transform="scale(0.015625)"/>
        <path id="DejaVuSans-37" d="M 525 4666 
L 3525 4666 
L 3525 4397 
L 1831 0 
L 1172 0 
L 2766 4134 
L 525 4134 
L 525 4666 
z
" transform="scale(0.015625)"/>
       </defs>
       <use xlink:href="#DejaVuSans-32"/>
       <use xlink:href="#DejaVuSans-30" x="63.623047"/>
       <use xlink:href="#DejaVuSans-32" x="127.246094"/>
       <use xlink:href="#DejaVuSans-33" x="190.869141"/>
       <use xlink:href="#DejaVuSans-2d" x="254.492188"/>
       <use xlink:href="#DejaVuSans-30" x="290.576172"/>
       <use xlink:href="#DejaVuSans-39" x="354.199219"/>
       <use xlink:href="#DejaVuSans-2d" x="417.822266"/>
       <use xlink:href="#DejaVuSans-31" x="453.90625"/>
       <use xlink:href="#DejaVuSans-37" x="517.529297"/>
      </g>
     </g>
    </g>
    <g id="xtick_2">
     <g id="line2d_2">
      <g>
       <use xlink:href="#m8b95391be1" x="151.511337" y="288" style="stroke: #000000; stroke-width: 0.8"/>
      </g>
     </g>
     <g id="text_2">
      <!-- 2023-09-21 -->
      <g transform="translate(89.867995 337.765903) rotate(-30) scale(0.12 -0.12)">
       <use xlink:href="#DejaVuSans-32"/>
       <use xlink:href="#DejaVuSans-30" x="63.623047"/>
       <use xlink:href="#DejaVuSans-32" x="127.246094"/>
       <use xlink:href="#DejaVuSans-33" x="190.869141"/>
       <use xlink:href="#DejaVuSans-2d" x="254.492188"/>
       <use xlink:href="#DejaVuSans-30" x="290.576172"/>
       <use xlink:href="#DejaVuSans-39" x="354.199219"/>
       <use xlink:href="#DejaVuSans-2d" x="417.822266"/>
       <use xlink:href="#DejaVuSans-32" x="453.90625"/>
       <use xlink:href="#DejaVuSans-31" x="517.529297"/>
      </g>
     </g>
    </g>
    <g id="xtick_3">
     <g id="line2d_3">
      <g>
       <use xlink:href="#m8b95391be1" x="209.347657" y="288" style="stroke: #000000; stroke-width: 0.8"/>
      </g>
     </g>
     <g id="text_3">
      <!-- 2023-09-25 -->
      <g transform="translate(147.704315 337.765903) rotate(-30) scale(0.12 -0.12)">
       <defs>
        <path id="DejaVuSans-35" d="M 691 4666 
L 3169 4666 
L 3169 4134 
L 1269 4134 
L 1269 2991 
Q 1406 3038 1543 3061 
Q 1681 3084 1819 3084 
Q 2600 3084 3056 2656 
Q 3513 2228 3513 1497 
Q 3513 744 3044 326 
Q 2575 -91 1722 -91 
Q 1428 -91 1123 -41 
Q 819 9 494 109 
L 494 744 
Q 775 591 1075 516 
Q 1375 441 1709 441 
Q 2250 441 2565 725 
Q 2881 1009 2881 1497 
Q 2881 1984 2565 2268 
Q 2250 2553 1709 2553 
Q 1456 2553 1204 2497 
Q 953 2441 691 2322 
L 691 4666 
z
" transform="scale(0.015625)"/>
       </defs>
       <use xlink:href="#DejaVuSans-32"/>
       <use xlink:href="#DejaVuSans-30" x="63.623047"/>
       <use xlink:href="#DejaVuSans-32" x="127.246094"/>
       <use xlink:href="#DejaVuSans-33" x="190.869141"/>
       <use xlink:href="#DejaVuSans-2d" x="254.492188"/>
       <use xlink:href="#DejaVuSans-30" x="290.576172"/>
       <use xlink:href="#DejaVuSans-39" x="354.199219"/>
       <use xlink:href="#DejaVuSans-2d" x="417.822266"/>
       <use xlink:href="#DejaVuSans-32" x="453.90625"/>
       <use xlink:href="#DejaVuSans-35" x="517.529297"/>
      </g>
     </g>
    </g>
    <g id="xtick_4">
     <g id="line2d_4">
      <g>
       <use xlink:href="#m8b95391be1" x="267.183978" y="288" style="stroke: #000000; stroke-width: 0.8"/>
      </g>
     </g>
     <g id="text_4">
      <!-- 2023-09-29 -->
      <g transform="translate(205.540636 337.765903) rotate(-30) scale(0.12 -0.12)">
       <use xlink:href="#DejaVuSans-32"/>
       <use xlink:href="#DejaVuSans-30" x="63.623047"/>
       <use xlink:href="#DejaVuSans-32" x="127.246094"/>
       <use xlink:href="#DejaVuSans-33" x="190.869141"/>
       <use xlink:href="#DejaVuSans-2d" x="254.492188"/>
       <use xlink:href="#DejaVuSans-30" x="290.576172"/>
       <use xlink:href="#DejaVuSans-39" x="354.199219"/>
       <use xlink:href="#DejaVuSans-2d" x="417.822266"/>
       <use xlink:href="#DejaVuSans-32" x="453.90625"/>
       <use xlink:href="#DejaVuSans-39" x="517.529297"/>
      </g>
     </g>
    </g>
    <g id="xtick_5">
     <g id="line2d_5">
      <g>
       <use xlink:href="#m8b95391be1" x="296.102138" y="288" style="stroke: #000000; stroke-width: 0.8"/>
      </g>
     </g>
     <g id="text_5">
      <!-- 2023-10-01 -->
      <g transform="translate(234.458796 337.765903) rotate(-30) scale(0.12 -0.12)">
       <use xlink:href="#DejaVuSans-32"/>
       <use xlink:href="#DejaVuSans-30" x="63.623047"/>
       <use xlink:href="#DejaVuSans-32" x="127.246094"/>
       <use xlink:href="#DejaVuSans-33" x="190.869141"/>
       <use xlink:href="#DejaVuSans-2d" x="254.492188"/>
       <use xlink:href="#DejaVuSans-31" x="290.576172"/>
       <use xlink:href="#DejaVuSans-30" x="354.199219"/>
       <use xlink:href="#DejaVuSans-2d" x="417.822266"/>
       <use xlink:href="#DejaVuSans-30" x="453.90625"/>
       <use xlink:href="#DejaVuSans-31" x="517.529297"/>
      </g>
     </g>
    </g>
    <g id="xtick_6">
     <g id="line2d_6">
      <g>
       <use xlink:href="#m8b95391be1" x="353.938458" y="288" style="stroke: #000000; stroke-width: 0.8"/>
      </g>
     </g>
     <g id="text_6">
      <!-- 2023-10-05 -->
      <g transform="translate(292.295117 337.765903) rotate(-30) scale(0.12 -0.12)">
       <use xlink:href="#DejaVuSans-32"/>
       <use xlink:href="#DejaVuSans-30" x="63.623047"/>
       <use xlink:href="#DejaVuSans-32" x="127.246094"/>
       <use xlink:href="#DejaVuSans-33" x="190.869141"/>
       <use xlink:href="#DejaVuSans-2d" x="254.492188"/>
       <use xlink:href="#DejaVuSans-31" x="290.576172"/>
       <use xlink:href="#DejaVuSans-30" x="354.199219"/>
       <use xlink:href="#DejaVuSans-2d" x="417.822266"/>
       <use xlink:href="#DejaVuSans-30" x="453.90625"/>
       <use xlink:href="#DejaVuSans-35" x="517.529297"/>
      </g>
     </g>
    </g>
    <g id="xtick_7">
     <g id="line2d_7">
      <g>
       <use xlink:href="#m8b95391be1" x="411.774779" y="288" style="stroke: #000000; stroke-width: 0.8"/>
      </g>
     </g>
     <g id="text_7">
      <!-- 2023-10-09 -->
      <g transform="translate(350.131437 337.765903) rotate(-30) scale(0.12 -0.12)">
       <use xlink:href="#DejaVuSans-32"/>
       <use xlink:href="#DejaVuSans-30" x="63.623047"/>
       <use xlink:href="#DejaVuSans-32" x="127.246094"/>
       <use xlink:href="#DejaVuSans-33" x="190.869141"/>
       <use xlink:href="#DejaVuSans-2d" x="254.492188"/>
       <use xlink:href="#DejaVuSans-31" x="290.576172"/>
       <use xlink:href="#DejaVuSans-30" x="354.199219"/>
       <use xlink:href="#DejaVuSans-2d" x="417.822266"/>
       <use xlink:href="#DejaVuSans-30" x="453.90625"/>
       <use xlink:href="#DejaVuSans-39" x="517.529297"/>
      </g>
     </g>
    </g>
    <g id="xtick_8">
     <g id="line2d_8">
      <g>
       <use xlink:href="#m8b95391be1" x="469.611099" y="288" style="stroke: #000000; stroke-width: 0.8"/>
      </g>
     </g>
     <g id="text_8">
      <!-- 2023-10-13 -->
      <g transform="translate(407.967757 337.765903) rotate(-30) scale(0.12 -0.12)">
       <use xlink:href="#DejaVuSans-32"/>
       <use xlink:href="#DejaVuSans-30" x="63.623047"/>
       <use xlink:href="#DejaVuSans-32" x="127.246094"/>
       <use xlink:href="#DejaVuSans-33" x="190.869141"/>
       <use xlink:href="#DejaVuSans-2d" x="254.492188"/>
       <use xlink:href="#DejaVuSans-31" x="290.576172"/>
       <use xlink:href="#DejaVuSans-30" x="354.199219"/>
       <use xlink:href="#DejaVuSans-2d" x="417.822266"/>
       <use xlink:href="#DejaVuSans-31" x="453.90625"/>
       <use xlink:href="#DejaVuSans-33" x="517.529297"/>
      </g>
     </g>
    </g>
    <g id="xtick_9">
     <g id="line2d_9">
      <g>
       <use xlink:href="#m8b95391be1" x="527.44742" y="288" style="stroke: #000000; stroke-width: 0.8"/>
      </g>
     </g>
     <g id="text_9">
      <!-- 2023-10-17 -->
      <g transform="translate(465.804078 337.765903) rotate(-30) scale(0.12 -0.12)">
       <use xlink:href="#DejaVuSans-32"/>
       <use xlink:href="#DejaVuSans-30" x="63.623047"/>
       <use xlink:href="#DejaVuSans-32" x="127.246094"/>
       <use xlink:href="#DejaVuSans-33" x="190.869141"/>
       <use xlink:href="#DejaVuSans-2d" x="254.492188"/>
       <use xlink:href="#DejaVuSans-31" x="290.576172"/>
       <use xlink:href="#DejaVuSans-30" x="354.199219"/>
       <use xlink:href="#DejaVuSans-2d" x="417.822266"/>
       <use xlink:href="#DejaVuSans-31" x="453.90625"/>
       <use xlink:href="#DejaVuSans-37" x="517.529297"/>
      </g>
     </g>
    </g>
    <g id="xtick_10">
     <g id="line2d_10">
      <g>
       <use xlink:href="#m8b95391be1" x="585.28374" y="288" style="stroke: #000000; stroke-width: 0.8"/>
      </g>
     </g>
     <g id="text_10">
      <!-- 2023-10-21 -->
      <g transform="translate(523.640398 337.765903) rotate(-30) scale(0.12 -0.12)">
       <use xlink:href="#DejaVuSans-32"/>
       <use xlink:href="#DejaVuSans-30" x="63.623047"/>
       <use xlink:href="#DejaVuSans-32" x="127.246094"/>
       <use xlink:href="#DejaVuSans-33" x="190.869141"/>
       <use xlink:href="#DejaVuSans-2d" x="254.492188"/>
       <use xlink:href="#DejaVuSans-31" x="290.576172"/>
       <use xlink:href="#DejaVuSans-30" x="354.199219"/>
       <use xlink:href="#DejaVuSans-2d" x="417.822266"/>
       <use xlink:href="#DejaVuSans-32" x="453.90625"/>
       <use xlink:href="#DejaVuSans-31" x="517.529297"/>
      </g>
     </g>
    </g>
    <g id="xtick_11">
     <g id="line2d_11">
      <g>
       <use xlink:href="#m8b95391be1" x="643.12006" y="288" style="stroke: #000000; stroke-width: 0.8"/>
      </g>
     </g>
     <g id="text_11">
      <!-- 2023-10-25 -->
      <g transform="translate(581.476719 337.765903) rotate(-30) scale(0.12 -0.12)">
       <use xlink:href="#DejaVuSans-32"/>
       <use xlink:href="#DejaVuSans-30" x="63.623047"/>
       <use xlink:href="#DejaVuSans-32" x="127.246094"/>
       <use xlink:href="#DejaVuSans-33" x="190.869141"/>
       <use xlink:href="#DejaVuSans-2d" x="254.492188"/>
       <use xlink:href="#DejaVuSans-31" x="290.576172"/>
       <use xlink:href="#DejaVuSans-30" x="354.199219"/>
       <use xlink:href="#DejaVuSans-2d" x="417.822266"/>
       <use xlink:href="#DejaVuSans-32" x="453.90625"/>
       <use xlink:href="#DejaVuSans-35" x="517.529297"/>
      </g>
     </g>
    </g>
   </g>
   <g id="matplotlib.axis_2">
    <g id="ytick_1">
     <g id="line2d_12">
      <defs>
       <path id="m68819cbbdd" d="M 0 0 
L -3.5 0 
" style="stroke: #000000; stroke-width: 0.8"/>
      </defs>
      <g>
       <use xlink:href="#m68819cbbdd" x="90" y="280.475991" style="stroke: #000000; stroke-width: 0.8"/>
      </g>
     </g>
     <g id="text_12">
      <!-- −0.4 -->
      <g transform="translate(53.860625 285.035053) scale(0.12 -0.12)">
       <defs>
        <path id="DejaVuSans-2212" d="M 678 2272 
L 4684 2272 
L 4684 1741 
L 678 1741 
L 678 2272 
z
" transform="scale(0.015625)"/>
        <path id="DejaVuSans-2e" d="M 684 794 
L 1344 794 
L 1344 0 
L 684 0 
L 684 794 
z
" transform="scale(0.015625)"/>
        <path id="DejaVuSans-34" d="M 2419 4116 
L 825 1625 
L 2419 1625 
L 2419 4116 
z
M 2253 4666 
L 3047 4666 
L 3047 1625 
L 3713 1625 
L 3713 1100 
L 3047 1100 
L 3047 0 
L 2419 0 
L 2419 1100 
L 313 1100 
L 313 1709 
L 2253 4666 
z
" transform="scale(0.015625)"/>
       </defs>
       <use xlink:href="#DejaVuSans-2212"/>
       <use xlink:href="#DejaVuSans-30" x="83.789062"/>
       <use xlink:href="#DejaVuSans-2e" x="147.412109"/>
       <use xlink:href="#DejaVuSans-34" x="179.199219"/>
      </g>
     </g>
    </g>
    <g id="ytick_2">
     <g id="line2d_13">
      <g>
       <use xlink:href="#m68819cbbdd" x="90" y="251.987133" style="stroke: #000000; stroke-width: 0.8"/>
      </g>
     </g>
     <g id="text_13">
      <!-- −0.2 -->
      <g transform="translate(53.860625 256.546195) scale(0.12 -0.12)">
       <use xlink:href="#DejaVuSans-2212"/>
       <use xlink:href="#DejaVuSans-30" x="83.789062"/>
       <use xlink:href="#DejaVuSans-2e" x="147.412109"/>
       <use xlink:href="#DejaVuSans-32" x="179.199219"/>
      </g>
     </g>
    </g>
    <g id="ytick_3">
     <g id="line2d_14">
      <g>
       <use xlink:href="#m68819cbbdd" x="90" y="223.498275" style="stroke: #000000; stroke-width: 0.8"/>
      </g>
     </g>
     <g id="text_14">
      <!-- 0.0 -->
      <g transform="translate(63.91625 228.057337) scale(0.12 -0.12)">
       <use xlink:href="#DejaVuSans-30"/>
       <use xlink:href="#DejaVuSans-2e" x="63.623047"/>
       <use xlink:href="#DejaVuSans-30" x="95.410156"/>
      </g>
     </g>
    </g>
    <g id="ytick_4">
     <g id="line2d_15">
      <g>
       <use xlink:href="#m68819cbbdd" x="90" y="195.009417" style="stroke: #000000; stroke-width: 0.8"/>
      </g>
     </g>
     <g id="text_15">
      <!-- 0.2 -->
      <g transform="translate(63.91625 199.568479) scale(0.12 -0.12)">
       <use xlink:href="#DejaVuSans-30"/>
       <use xlink:href="#DejaVuSans-2e" x="63.623047"/>
       <use xlink:href="#DejaVuSans-32" x="95.410156"/>
      </g>
     </g>
    </g>
    <g id="ytick_5">
     <g id="line2d_16">
      <g>
       <use xlink:href="#m68819cbbdd" x="90" y="166.520558" style="stroke: #000000; stroke-width: 0.8"/>
      </g>
     </g>
     <g id="text_16">
      <!-- 0.4 -->
      <g transform="translate(63.91625 171.079621) scale(0.12 -0.12)">
       <use xlink:href="#DejaVuSans-30"/>
       <use xlink:href="#DejaVuSans-2e" x="63.623047"/>
       <use xlink:href="#DejaVuSans-34" x="95.410156"/>
      </g>
     </g>
    </g>
    <g id="ytick_6">
     <g id="line2d_17">
      <g>
       <use xlink:href="#m68819cbbdd" x="90" y="138.0317" style="stroke: #000000; stroke-width: 0.8"/>
      </g>
     </g>
     <g id="text_17">
      <!-- 0.6 -->
      <g transform="translate(63.91625 142.590763) scale(0.12 -0.12)">
       <defs>
        <path id="DejaVuSans-36" d="M 2113 2584 
Q 1688 2584 1439 2293 
Q 1191 2003 1191 1497 
Q 1191 994 1439 701 
Q 1688 409 2113 409 
Q 2538 409 2786 701 
Q 3034 994 3034 1497 
Q 3034 2003 2786 2293 
Q 2538 2584 2113 2584 
z
M 3366 4563 
L 3366 3988 
Q 3128 4100 2886 4159 
Q 2644 4219 2406 4219 
Q 1781 4219 1451 3797 
Q 1122 3375 1075 2522 
Q 1259 2794 1537 2939 
Q 1816 3084 2150 3084 
Q 2853 3084 3261 2657 
Q 3669 2231 3669 1497 
Q 3669 778 3244 343 
Q 2819 -91 2113 -91 
Q 1303 -91 875 529 
Q 447 1150 447 2328 
Q 447 3434 972 4092 
Q 1497 4750 2381 4750 
Q 2619 4750 2861 4703 
Q 3103 4656 3366 4563 
z
" transform="scale(0.015625)"/>
       </defs>
       <use xlink:href="#DejaVuSans-30"/>
       <use xlink:href="#DejaVuSans-2e" x="63.623047"/>
       <use xlink:href="#DejaVuSans-36" x="95.410156"/>
      </g>
     </g>
    </g>
    <g id="ytick_7">
     <g id="line2d_18">
      <g>
       <use xlink:href="#m68819cbbdd" x="90" y="109.542842" style="stroke: #000000; stroke-width: 0.8"/>
      </g>
     </g>
     <g id="text_18">
      <!-- 0.8 -->
      <g transform="translate(63.91625 114.101905) scale(0.12 -0.12)">
       <defs>
        <path id="DejaVuSans-38" d="M 2034 2216 
Q 1584 2216 1326 1975 
Q 1069 1734 1069 1313 
Q 1069 891 1326 650 
Q 1584 409 2034 409 
Q 2484 409 2743 651 
Q 3003 894 3003 1313 
Q 3003 1734 2745 1975 
Q 2488 2216 2034 2216 
z
M 1403 2484 
Q 997 2584 770 2862 
Q 544 3141 544 3541 
Q 544 4100 942 4425 
Q 1341 4750 2034 4750 
Q 2731 4750 3128 4425 
Q 3525 4100 3525 3541 
Q 3525 3141 3298 2862 
Q 3072 2584 2669 2484 
Q 3125 2378 3379 2068 
Q 3634 1759 3634 1313 
Q 3634 634 3220 271 
Q 2806 -91 2034 -91 
Q 1263 -91 848 271 
Q 434 634 434 1313 
Q 434 1759 690 2068 
Q 947 2378 1403 2484 
z
M 1172 3481 
Q 1172 3119 1398 2916 
Q 1625 2713 2034 2713 
Q 2441 2713 2670 2916 
Q 2900 3119 2900 3481 
Q 2900 3844 2670 4047 
Q 2441 4250 2034 4250 
Q 1625 4250 1398 4047 
Q 1172 3844 1172 3481 
z
" transform="scale(0.015625)"/>
       </defs>
       <use xlink:href="#DejaVuSans-30"/>
       <use xlink:href="#DejaVuSans-2e" x="63.623047"/>
       <use xlink:href="#DejaVuSans-38" x="95.410156"/>
      </g>
     </g>
    </g>
    <g id="ytick_8">
     <g id="line2d_19">
      <g>
       <use xlink:href="#m68819cbbdd" x="90" y="81.053984" style="stroke: #000000; stroke-width: 0.8"/>
      </g>
     </g>
     <g id="text_19">
      <!-- 1.0 -->
      <g transform="translate(63.91625 85.613047) scale(0.12 -0.12)">
       <use xlink:href="#DejaVuSans-31"/>
       <use xlink:href="#DejaVuSans-2e" x="63.623047"/>
       <use xlink:href="#DejaVuSans-30" x="95.410156"/>
      </g>
     </g>
    </g>
    <g id="ytick_9">
     <g id="line2d_20">
      <g>
       <use xlink:href="#m68819cbbdd" x="90" y="52.565126" style="stroke: #000000; stroke-width: 0.8"/>
      </g>
     </g>
     <g id="text_20">
      <!-- 1.2 -->
      <g transform="translate(63.91625 57.124189) scale(0.12 -0.12)">
       <use xlink:href="#DejaVuSans-31"/>
       <use xlink:href="#DejaVuSans-2e" x="63.623047"/>
       <use xlink:href="#DejaVuSans-32" x="95.410156"/>
      </g>
     </g>
    </g>
    <g id="text_21">
     <!-- Meters -->
     <g transform="translate(47.780937 182.6875) rotate(-90) scale(0.1 -0.1)">
      <defs>
       <path id="DejaVuSans-4d" d="M 628 4666 
L 1569 4666 
L 2759 1491 
L 3956 4666 
L 4897 4666 
L 4897 0 
L 4281 0 
L 4281 4097 
L 3078 897 
L 2444 897 
L 1241 4097 
L 1241 0 
L 628 0 
L 628 4666 
z
" transform="scale(0.015625)"/>
       <path id="DejaVuSans-65" d="M 3597 1894 
L 3597 1613 
L 953 1613 
Q 991 1019 1311 708 
Q 1631 397 2203 397 
Q 2534 397 2845 478 
Q 3156 559 3463 722 
L 3463 178 
Q 3153 47 2828 -22 
Q 2503 -91 2169 -91 
Q 1331 -91 842 396 
Q 353 884 353 1716 
Q 353 2575 817 3079 
Q 1281 3584 2069 3584 
Q 2775 3584 3186 3129 
Q 3597 2675 3597 1894 
z
M 3022 2063 
Q 3016 2534 2758 2815 
Q 2500 3097 2075 3097 
Q 1594 3097 1305 2825 
Q 1016 2553 972 2059 
L 3022 2063 
z
" transform="scale(0.015625)"/>
       <path id="DejaVuSans-74" d="M 1172 4494 
L 1172 3500 
L 2356 3500 
L 2356 3053 
L 1172 3053 
L 1172 1153 
Q 1172 725 1289 603 
Q 1406 481 1766 481 
L 2356 481 
L 2356 0 
L 1766 0 
Q 1100 0 847 248 
Q 594 497 594 1153 
L 594 3053 
L 172 3053 
L 172 3500 
L 594 3500 
L 594 4494 
L 1172 4494 
z
" transform="scale(0.015625)"/>
       <path id="DejaVuSans-72" d="M 2631 2963 
Q 2534 3019 2420 3045 
Q 2306 3072 2169 3072 
Q 1681 3072 1420 2755 
Q 1159 2438 1159 1844 
L 1159 0 
L 581 0 
L 581 3500 
L 1159 3500 
L 1159 2956 
Q 1341 3275 1631 3429 
Q 1922 3584 2338 3584 
Q 2397 3584 2469 3576 
Q 2541 3569 2628 3553 
L 2631 2963 
z
" transform="scale(0.015625)"/>
       <path id="DejaVuSans-73" d="M 2834 3397 
L 2834 2853 
Q 2591 2978 2328 3040 
Q 2066 3103 1784 3103 
Q 1356 3103 1142 2972 
Q 928 2841 928 2578 
Q 928 2378 1081 2264 
Q 1234 2150 1697 2047 
L 1894 2003 
Q 2506 1872 2764 1633 
Q 3022 1394 3022 966 
Q 3022 478 2636 193 
Q 2250 -91 1575 -91 
Q 1294 -91 989 -36 
Q 684 19 347 128 
L 347 722 
Q 666 556 975 473 
Q 1284 391 1588 391 
Q 1994 391 2212 530 
Q 2431 669 2431 922 
Q 2431 1156 2273 1281 
Q 2116 1406 1581 1522 
L 1381 1569 
Q 847 1681 609 1914 
Q 372 2147 372 2553 
Q 372 3047 722 3315 
Q 1072 3584 1716 3584 
Q 2034 3584 2315 3537 
Q 2597 3491 2834 3397 
z
" transform="scale(0.015625)"/>
      </defs>
      <use xlink:href="#DejaVuSans-4d"/>
      <use xlink:href="#DejaVuSans-65" x="86.279297"/>
      <use xlink:href="#DejaVuSans-74" x="147.802734"/>
      <use xlink:href="#DejaVuSans-65" x="187.011719"/>
      <use xlink:href="#DejaVuSans-72" x="248.535156"/>
      <use xlink:href="#DejaVuSans-73" x="289.648438"/>
     </g>
    </g>
   </g>
   <g id="line2d_21">
    <path d="M 115.363636 229.417693 
L 115.966098 230.699364 
L 116.56856 229.393959 
L 118.375945 234.259559 
L 118.978406 234.022213 
L 119.580868 234.330763 
L 120.18333 233.381378 
L 120.785791 233.618724 
L 121.388253 234.235825 
L 122.593176 232.147176 
L 123.195638 231.696218 
L 123.7981 231.767422 
L 124.400561 231.174056 
L 125.003023 231.031649 
L 125.605485 231.29273 
L 126.207946 231.079118 
L 126.810408 231.055383 
L 127.41287 231.150322 
L 128.015331 231.648749 
L 128.617793 231.411403 
L 129.822716 230.105998 
L 130.425178 228.919266 
L 131.630101 230.556956 
L 132.232563 231.886095 
L 132.835025 234.045947 
L 133.437487 234.140886 
L 134.039948 234.52064 
L 134.64241 232.93042 
L 135.244872 233.333908 
L 136.449795 231.482607 
L 137.052257 231.126587 
L 137.654718 231.031649 
L 138.25718 230.62816 
L 140.667027 230.295875 
L 141.269488 229.821182 
L 141.87195 229.939855 
L 142.474412 230.62816 
L 143.076873 230.556956 
L 143.679335 230.889241 
L 144.281797 231.458872 
L 144.884258 230.699364 
L 145.48672 230.604425 
L 146.691643 231.838626 
L 147.896567 234.710517 
L 149.10149 234.663048 
L 149.703952 236.51435 
L 150.306413 235.707372 
L 150.908875 233.025358 
L 151.511337 231.838626 
L 152.113798 231.648749 
L 152.71626 230.533221 
L 153.318722 230.177202 
L 153.921183 230.438283 
L 154.523645 231.150322 
L 155.126107 230.651894 
L 156.33103 231.363933 
L 156.933492 230.770567 
L 157.535953 230.699364 
L 158.138415 230.93671 
L 159.343338 230.27214 
L 159.9458 230.62816 
L 160.548262 231.340199 
L 161.150723 231.729447 
L 161.753185 234.121898 
L 162.355647 234.757987 
L 162.958108 235.731107 
L 163.56057 236.039657 
L 164.163032 235.636168 
L 164.765493 235.066537 
L 165.367955 233.500051 
L 166.572878 231.363933 
L 167.777802 230.794302 
L 168.380263 230.889241 
L 168.982725 230.485752 
L 169.585187 230.865506 
L 170.79011 230.789555 
L 171.392572 230.27214 
L 171.995033 231.174056 
L 172.597495 230.93671 
L 173.199957 230.533221 
L 174.40488 230.889241 
L 175.007342 231.672484 
L 176.212265 234.805456 
L 177.417189 234.829191 
L 178.622112 236.609288 
L 179.224574 234.971598 
L 180.429497 232.906685 
L 181.031959 232.052238 
L 182.236882 231.957299 
L 182.839344 231.553811 
L 183.441805 232.21838 
L 184.044267 231.24526 
L 184.646729 231.387668 
L 185.24919 231.719953 
L 185.851652 231.363933 
L 186.454114 231.625014 
L 187.056575 231.625014 
L 188.261499 229.512632 
L 188.86396 230.462017 
L 189.466422 230.865506 
L 190.068884 233.405112 
L 190.671345 236.727961 
L 191.273807 235.873515 
L 191.876269 235.612434 
L 192.47873 235.830792 
L 193.081192 234.924129 
L 194.286115 234.568109 
L 195.491039 232.479461 
L 196.0935 232.075973 
L 196.695962 230.794302 
L 197.298424 230.462017 
L 197.900885 231.055383 
L 198.503347 231.862361 
L 199.70827 231.197791 
L 200.310732 230.865506 
L 200.913194 231.363933 
L 201.515655 231.363933 
L 202.118117 230.485752 
L 202.720579 230.177202 
L 203.32304 230.533221 
L 203.925502 230.295875 
L 204.527964 232.550665 
L 205.130425 235.944718 
L 205.732887 236.633023 
L 206.93781 235.778576 
L 207.540272 236.253269 
L 208.142734 233.310174 
L 208.745195 232.764277 
L 209.347657 231.031649 
L 209.950119 230.462017 
L 210.55258 230.62816 
L 211.155042 230.27214 
L 212.359965 230.604425 
L 212.962427 230.556956 
L 213.564889 231.007914 
L 214.16735 230.818037 
L 214.769812 230.746833 
L 215.372274 230.93671 
L 215.974735 230.960445 
L 216.577197 231.862361 
L 217.179659 232.028503 
L 217.78212 231.411403 
L 218.384582 231.197791 
L 218.987044 213.990179 
L 219.589506 232.811746 
L 220.191967 232.621869 
L 220.794429 233.191501 
L 221.396891 231.814892 
L 221.999352 232.503196 
L 222.601814 231.363933 
L 223.204276 232.028503 
L 224.409199 230.841771 
L 225.011661 230.699364 
L 225.614122 230.960445 
L 226.216584 230.912975 
L 226.819046 230.533221 
L 228.023969 230.414548 
L 228.626431 231.197791 
L 229.228892 230.651894 
L 230.433816 231.055383 
L 231.036277 231.031649 
L 231.638739 230.604425 
L 232.241201 231.031649 
L 232.843662 230.794302 
L 233.446124 232.5744 
L 234.048586 230.723098 
L 235.253509 232.621869 
L 235.855971 232.337054 
L 236.458432 232.598135 
L 237.663356 231.221526 
L 238.265817 231.24526 
L 238.868279 230.865506 
L 239.470741 231.221526 
L 240.073202 230.58069 
L 240.675664 230.651894 
L 241.278126 230.200936 
L 241.880587 229.536366 
L 243.085511 229.987324 
L 243.687972 230.462017 
L 244.290434 230.533221 
L 244.892896 231.24526 
L 245.495357 230.295875 
L 246.700281 230.200936 
L 247.302742 231.150322 
L 247.905204 231.625014 
L 248.507666 231.197791 
L 249.110127 231.221526 
L 249.712589 230.343344 
L 250.315051 230.058528 
L 250.917512 230.105998 
L 251.519974 230.27214 
L 252.122436 230.93671 
L 252.724897 230.770567 
L 253.327359 246.126878 
L 253.929821 102.793402 
L 254.532282 227.998362 
L 255.134744 228.3259 
L 255.737206 254.647613 
L 256.339667 261.0797 
L 256.942129 261.492682 
L 257.544591 228.159757 
L 258.147052 218.025067 
L 258.749514 216.316173 
L 259.351976 211.545511 
L 260.556899 198.633868 
L 261.159361 195.026204 
L 261.761823 192.913821 
L 262.364284 191.774558 
L 263.569208 189.875787 
L 264.171669 188.997606 
L 264.774131 189.234952 
L 265.376593 187.715935 
L 265.979054 187.241242 
L 266.581516 187.0751 
L 267.183978 186.505469 
L 267.786439 186.76655 
L 268.991363 187.882078 
L 269.593824 188.546647 
L 270.196286 189.496033 
L 270.798748 190.943846 
L 271.401209 191.798293 
L 272.003671 193.341044 
L 272.606133 195.999324 
L 273.208594 196.90124 
L 273.811056 197.138586 
L 274.413518 198.301583 
L 275.015979 199.108561 
L 276.220903 201.838044 
L 276.823364 202.668757 
L 277.425826 205.137159 
L 278.028288 205.469444 
L 278.630749 206.490033 
L 279.233211 206.157748 
L 279.835673 206.300156 
L 280.438134 207.676765 
L 281.040596 207.795438 
L 281.643058 208.578681 
L 282.245519 208.436274 
L 282.847981 209.456863 
L 283.450443 209.860352 
L 284.655366 211.260696 
L 285.257828 212.399958 
L 285.860289 212.637304 
L 286.462751 213.111997 
L 287.065213 213.729098 
L 287.667674 214.156321 
L 288.270136 214.274994 
L 290.077521 215.105707 
L 290.679983 214.298729 
L 291.884906 219.045657 
L 292.487368 220.612143 
L 293.089829 219.78143 
L 294.294753 223.294157 
L 294.897214 222.487179 
L 295.499676 220.327327 
L 296.102138 219.425411 
L 296.704599 218.926983 
L 297.307061 218.665902 
L 298.511984 219.947573 
L 299.114446 220.018777 
L 299.716908 220.683347 
L 300.319369 220.540939 
L 300.921831 220.944428 
L 301.524293 221.015632 
L 302.126754 220.873224 
L 302.729216 220.873224 
L 303.331678 220.683347 
L 304.536601 219.520349 
L 305.139063 220.968162 
L 305.741525 223.222953 
L 306.343986 226.878087 
L 306.946448 226.51732 
L 307.54891 227.257841 
L 308.151371 227.447718 
L 308.753833 228.492042 
L 309.356295 227.257841 
L 309.958756 225.097989 
L 310.561218 224.101134 
L 311.16368 224.124869 
L 311.766141 223.317891 
L 312.368603 223.863788 
L 312.971065 223.816319 
L 313.573526 223.341626 
L 314.175988 224.314746 
L 314.77845 224.623296 
L 315.380911 224.314746 
L 315.983373 224.243542 
L 316.585835 224.575827 
L 317.188296 224.528358 
L 317.790758 224.02993 
L 318.39322 224.053665 
L 318.995681 223.460299 
L 319.598143 223.246687 
L 320.200605 224.295758 
L 320.803066 228.112288 
L 321.405528 229.137624 
L 322.610451 230.651894 
L 323.212913 231.102852 
L 323.815375 229.346489 
L 324.417836 226.783148 
L 325.62276 225.05052 
L 326.225221 224.765704 
L 326.827683 225.430274 
L 327.430145 225.738824 
L 328.032606 225.643886 
L 328.635068 225.406539 
L 329.23753 225.430274 
L 329.839991 225.786294 
L 330.442453 225.999905 
L 331.044915 226.427129 
L 331.647376 226.617006 
L 332.249838 225.430274 
L 333.454761 224.718235 
L 334.057223 225.287866 
L 334.659685 227.471453 
L 335.262146 230.818037 
L 335.864608 231.330705 
L 336.46707 230.704111 
L 337.069531 232.360788 
L 339.479378 228.136023 
L 340.08184 227.162903 
L 340.684301 226.640741 
L 341.286763 225.952436 
L 341.889225 226.118579 
L 342.491686 226.071109 
L 343.094148 225.66762 
L 344.299071 226.711944 
L 344.901533 226.545802 
L 346.106456 227.376514 
L 346.708918 226.99676 
L 347.31138 227.020495 
L 347.913842 226.14706 
L 348.516303 228.064819 
L 349.118765 228.871797 
L 349.721227 228.848062 
L 350.323688 231.78641 
L 350.92615 230.590184 
L 351.528612 230.865506 
L 352.131073 233.552267 
L 353.335997 229.037939 
L 353.938458 227.708799 
L 354.54092 228.563246 
L 355.143382 228.848062 
L 355.745843 227.946146 
L 356.348305 227.66133 
L 357.553228 227.732534 
L 358.15569 228.230961 
L 358.758152 227.613861 
L 359.360613 227.590126 
L 359.963075 263.571836 
L 360.565537 227.851207 
L 361.167998 228.515777 
L 361.77046 227.495188 
L 362.372922 228.468308 
L 362.975383 228.169251 
L 363.577845 229.749978 
L 364.180307 54.327273 
L 364.782768 253.831141 
L 365.38523 245.296166 
L 365.987692 276.872727 
L 366.590153 259.897715 
L 367.192615 221.191268 
L 368.397538 218.85578 
L 369 214.91583 
L 369.602462 204.804874 
L 370.807385 176.536921 
L 373.819693 127.643568 
L 375.024617 114.043621 
L 375.627078 108.845735 
L 376.22954 105.119397 
L 376.832002 103.173157 
L 377.434463 103.220626 
L 378.036925 104.454827 
L 378.639387 106.590944 
L 379.241848 107.113106 
L 379.84431 108.299838 
L 380.446772 110.625833 
L 381.049233 111.147995 
L 381.651695 112.09738 
L 382.254157 115.06421 
L 382.856618 115.42023 
L 383.45908 115.610107 
L 385.868927 126.409367 
L 386.471388 128.47428 
L 387.07385 132.41423 
L 389.483697 144.779976 
L 390.68862 149.004741 
L 391.893544 156.789703 
L 393.098467 164.289848 
L 393.700929 167.470289 
L 394.30339 169.843753 
L 394.905852 173.261541 
L 395.508314 175.089108 
L 396.110775 176.323309 
L 396.713237 176.667461 
L 414.787087 205.777994 
L 415.389549 204.971017 
L 415.99201 204.828609 
L 417.196934 206.252687 
L 418.401857 206.774849 
L 419.004319 207.39195 
L 420.209242 208.032785 
L 422.016627 211.972735 
L 422.619089 211.355634 
L 423.22155 212.708508 
L 423.824012 212.684774 
L 424.426474 213.23067 
L 425.028935 212.447427 
L 425.631397 212.708508 
L 426.233859 213.301874 
L 426.83632 213.017059 
L 427.438782 212.874651 
L 428.041244 211.901531 
L 428.643705 211.854061 
L 429.246167 212.328754 
L 429.848629 211.782858 
L 431.053552 213.444282 
L 431.656014 213.800302 
L 432.258475 213.752832 
L 432.860937 213.515486 
L 433.463399 213.562955 
L 434.065861 214.108852 
L 434.668322 214.298729 
L 435.270784 215.604134 
L 435.873246 216.434846 
L 436.475707 216.411112 
L 437.078169 216.1975 
L 437.680631 216.339908 
L 438.283092 217.265559 
L 438.885554 217.313028 
L 439.488016 216.458581 
L 440.090477 216.790866 
L 440.692939 216.007623 
L 441.295401 216.268704 
L 441.897862 216.126296 
L 442.500324 216.624724 
L 443.102786 216.86207 
L 443.705247 216.957009 
L 444.307709 216.909539 
L 444.910171 217.028212 
L 446.115094 217.692782 
L 446.717556 218.167475 
L 447.922479 218.333617 
L 448.524941 217.787721 
L 449.127402 218.547229 
L 449.729864 218.547229 
L 450.332326 219.971307 
L 450.934787 221.77514 
L 451.537249 223.151749 
L 452.139711 222.463444 
L 452.742172 223.05681 
L 453.344634 224.338481 
L 453.947096 225.003051 
L 455.754481 220.873224 
L 456.959404 220.422266 
L 457.561866 220.588408 
L 458.164327 220.991897 
L 458.766789 220.991897 
L 459.971712 220.493469 
L 460.574174 220.422266 
L 461.176636 220.944428 
L 461.779097 220.920693 
L 462.381559 220.707081 
L 463.586482 221.561528 
L 464.188944 221.870078 
L 464.791406 222.321037 
L 465.393867 222.534648 
L 465.996329 223.009341 
L 466.598791 224.599562 
L 467.201252 224.647031 
L 467.803714 223.911257 
L 468.406176 223.72138 
L 469.008637 223.958727 
L 469.611099 223.341626 
L 470.213561 221.798875 
L 470.816022 222.534648 
L 471.418484 222.368506 
L 472.020946 222.605852 
L 472.623407 223.199218 
L 473.225869 223.009341 
L 473.828331 222.700791 
L 474.430792 223.05681 
L 475.635716 223.365361 
L 476.238177 223.080545 
L 476.840639 223.41283 
L 478.045563 223.697646 
L 478.648024 224.02993 
L 479.250486 224.789439 
L 479.852948 225.05052 
L 480.455409 224.765704 
L 481.057871 225.311601 
L 481.660333 224.908112 
L 482.865256 225.026785 
L 483.467718 224.74197 
L 484.672641 223.887523 
L 485.275103 226.355925 
L 486.480026 223.697646 
L 487.082488 223.365361 
L 487.684949 225.947689 
L 488.287411 222.87168 
L 488.889873 221.727671 
L 489.492334 221.917548 
L 490.094796 222.344771 
L 490.697258 222.534648 
L 491.299719 223.982461 
L 491.902181 221.205509 
L 492.504643 219.425411 
L 493.107104 218.309883 
L 493.709566 219.16433 
L 494.312028 218.760841 
L 494.914489 215.936419 
L 495.516951 214.583545 
L 496.119413 214.797156 
L 496.721874 212.30502 
L 499.131721 206.632441 
L 500.336644 200.627578 
L 502.144029 192.937555 
L 503.348953 188.309301 
L 505.156338 184.891513 
L 506.361261 181.117706 
L 506.963723 179.978443 
L 507.566184 180.358198 
L 508.168646 181.734807 
L 509.373569 182.802865 
L 509.976031 181.426256 
L 510.578493 181.568664 
L 511.180954 181.212645 
L 512.385878 181.141441 
L 512.988339 180.88036 
L 514.193263 181.236379 
L 515.398186 182.850334 
L 516.603109 184.488024 
L 517.205571 185.389941 
L 517.808033 186.600407 
L 518.410494 186.861488 
L 519.615418 189.68591 
L 520.21788 189.804583 
L 522.025265 193.602125 
L 522.627726 195.999324 
L 523.230188 197.542075 
L 523.83265 198.467726 
L 524.435111 198.515195 
L 525.640035 199.796866 
L 526.242496 200.152885 
L 526.844958 200.295293 
L 528.049881 201.244679 
L 529.857266 203.309592 
L 530.459728 203.499469 
L 531.06219 204.021631 
L 531.664651 204.211508 
L 532.267113 204.804874 
L 532.869575 204.804874 
L 533.472036 205.991606 
L 534.074498 206.276422 
L 534.67696 206.988461 
L 535.279421 206.964726 
L 535.881883 207.676765 
L 536.484345 209.02964 
L 537.086806 208.958436 
L 537.689268 209.599271 
L 538.29173 209.95529 
L 538.894191 210.097698 
L 540.099115 211.521777 
L 540.701576 213.064528 
L 541.304038 211.189492 
L 541.9065 210.572391 
L 542.508961 210.999615 
L 543.111423 211.735388 
L 543.713885 211.521777 
L 544.316346 211.094553 
L 544.918808 211.901531 
L 545.52127 212.091408 
L 546.123731 211.474307 
L 546.726193 210.596126 
L 548.533578 212.732243 
L 549.13604 212.589835 
L 549.738501 212.115142 
L 550.340963 211.996469 
L 550.943425 212.115142 
L 552.148348 214.91583 
L 552.75081 215.319319 
L 553.353271 214.963299 
L 553.955733 216.102562 
L 554.558195 215.817746 
L 555.160656 216.50605 
L 555.763118 216.078827 
L 556.36558 215.912684 
L 556.968041 213.681629 
L 557.570503 215.366788 
L 558.172965 215.200645 
L 558.775426 215.200645 
L 559.377888 215.390522 
L 559.98035 215.22438 
L 560.582811 215.176911 
L 561.787735 215.556665 
L 562.390197 216.055092 
L 562.992658 215.794011 
L 563.59512 215.319319 
L 564.197582 215.794011 
L 564.800043 215.675338 
L 565.402505 216.173765 
L 566.004967 216.007623 
L 566.607428 216.126296 
L 567.20989 215.551918 
L 567.812352 215.651603 
L 568.414813 218.941224 
L 569.017275 163.316728 
L 569.619737 214.725953 
L 570.222198 213.800302 
L 570.82466 213.705363 
L 571.427122 212.993324 
L 572.029583 212.471162 
L 573.234507 211.664184 
L 573.836968 210.999615 
L 574.43943 210.050229 
L 575.644353 209.148313 
L 576.246815 209.100844 
L 576.849277 208.887232 
L 577.451738 207.154603 
L 578.0542 206.751114 
L 578.656662 206.015341 
L 579.259123 205.469444 
L 579.861585 204.638732 
L 580.464047 204.401385 
L 581.066508 204.591262 
L 581.66897 204.045366 
L 582.271432 202.706732 
L 584.078817 197.589544 
L 584.681278 196.474016 
L 585.886202 193.720798 
L 587.091125 188.950136 
L 588.296048 183.087681 
L 590.103433 176.133432 
L 591.308357 173.380214 
L 591.910818 171.05422 
L 592.51328 169.226653 
L 593.115742 166.236088 
L 593.718203 166.4497 
L 594.320665 167.11427 
L 594.923127 166.402231 
L 595.525588 166.283558 
L 596.12805 165.618988 
L 597.332973 165.47658 
L 597.935435 165.405376 
L 598.537897 166.046211 
L 599.140358 166.212354 
L 599.74282 166.853189 
L 600.345282 166.75825 
L 600.947743 166.402231 
L 601.550205 166.781985 
L 602.152667 167.019331 
L 602.755128 167.636432 
L 603.35759 168.633287 
L 603.960052 169.986161 
L 604.562513 170.626996 
L 606.369899 171.505178 
L 606.97236 171.125424 
L 607.574822 170.603262 
L 608.177284 171.813728 
L 608.779745 173.736234 
L 609.382207 174.733088 
L 609.984669 176.441982 
L 611.189592 178.364488 
L 611.792054 178.269549 
L 612.394515 177.723653 
L 612.996977 177.343899 
L 613.599439 177.367633 
L 614.2019 175.872351 
L 614.804362 176.750533 
L 615.406824 176.89294 
L 616.611747 176.608125 
L 617.214209 177.438837 
L 617.81667 177.296429 
L 618.419132 178.008468 
L 619.021594 178.008468 
L 620.226517 179.029058 
L 620.828979 178.744242 
L 621.43144 179.55122 
L 622.033902 179.266404 
L 622.636364 177.486306 
L 622.636364 177.486306 
" clip-path="url(#pb322e7c285)" style="fill: none; stroke: #1f77b4; stroke-width: 1.5; stroke-linecap: square"/>
   </g>
   <g id="line2d_22">
    <path d="M 115.363636 230.177202 
L 129.220255 230.281978 
L 129.822716 231.886095 
L 143.679335 231.865245 
L 144.281797 231.316464 
L 147.896567 231.686291 
L 149.10149 231.31413 
L 150.908875 231.50587 
L 158.138415 231.996669 
L 158.740877 231.031649 
L 175.007342 231.114822 
L 175.609803 230.996047 
L 177.417189 231.065133 
L 183.441805 231.628986 
L 187.659037 231.913518 
L 188.261499 231.387668 
L 215.974735 231.49955 
L 216.577197 230.711231 
L 218.987044 231.134676 
L 220.191967 231.440449 
L 220.794429 231.798829 
L 221.396891 231.68855 
L 222.601814 230.279112 
L 223.204276 229.151129 
L 224.409199 224.432188 
L 225.011661 223.90441 
L 225.614122 224.332989 
L 228.626431 225.786553 
L 229.831354 226.536674 
L 230.433816 226.792069 
L 231.036277 230.924843 
L 234.048586 230.997587 
L 235.253509 229.684373 
L 235.855971 228.560887 
L 236.458432 227.126356 
L 237.060894 226.636059 
L 238.265817 226.77573 
L 247.302742 227.420256 
L 247.905204 230.1416 
L 250.917512 230.609378 
L 251.519974 230.248405 
L 253.327359 230.503738 
L 255.737206 231.970032 
L 256.339667 232.505725 
L 256.942129 230.20766 
L 257.544591 227.075586 
L 258.147052 224.770959 
L 258.749514 221.250096 
L 259.351976 219.044008 
L 259.954437 218.49976 
L 260.556899 215.886355 
L 261.159361 215.442982 
L 261.761823 215.478301 
L 262.364284 215.876969 
L 262.966746 216.660632 
L 263.569208 216.160041 
L 264.171669 215.487507 
L 265.376593 216.146769 
L 267.183978 217.867069 
L 269.593824 219.872564 
L 272.003671 221.625835 
L 275.015979 223.504013 
L 278.028288 225.080226 
L 281.040596 226.399043 
L 284.052904 227.499718 
L 287.667674 228.580327 
L 288.270136 228.738297 
L 288.872598 213.729098 
L 297.909523 215.750668 
L 302.729216 216.739881 
L 303.331678 220.920693 
L 314.77845 222.494386 
L 317.188296 222.798225 
L 317.790758 224.089267 
L 331.044915 225.412358 
L 331.647376 225.467495 
L 332.249838 226.296588 
L 346.106456 227.326987 
L 346.708918 226.86622 
L 360.565537 227.806856 
L 361.167998 228.219094 
L 366.590153 228.636412 
L 367.192615 228.911934 
L 368.397538 229.73979 
L 369 229.68387 
L 369.602462 226.862839 
L 370.204923 219.925421 
L 371.409847 197.92651 
L 372.012308 190.682529 
L 372.61477 181.677036 
L 373.217232 175.887565 
L 373.819693 173.749705 
L 374.422155 168.918641 
L 375.024617 165.808296 
L 375.627078 128.854034 
L 382.856618 152.082632 
L 386.471388 163.51439 
L 387.07385 164.606426 
L 387.676312 164.631495 
L 388.278773 165.569673 
L 388.881235 167.585824 
L 389.483697 168.168949 
L 390.086158 138.288553 
L 394.905852 143.762833 
L 396.713237 145.732962 
L 415.99201 164.220577 
L 421.414165 168.673536 
L 426.83632 172.837509 
L 432.258475 176.731248 
L 432.860937 177.147978 
L 433.463399 213.693496 
L 442.500324 215.718832 
L 447.320017 216.709889 
L 447.922479 217.823323 
L 458.164327 219.610406 
L 462.381559 220.351062 
L 462.984021 222.383575 
L 464.188944 214.319052 
L 464.791406 214.797863 
L 465.393867 214.814861 
L 467.803714 215.368346 
L 476.238177 217.099706 
L 476.840639 223.128014 
L 479.852948 224.765095 
L 482.865256 226.133443 
L 485.877564 227.433686 
L 486.480026 227.491047 
L 487.082488 227.85338 
L 487.684949 228.562881 
L 488.287411 228.433853 
L 489.492334 228.445701 
L 490.697258 221.653324 
L 491.299719 221.95315 
L 491.902181 218.063993 
L 492.504643 215.224244 
L 493.107104 215.023457 
L 493.709566 214.604381 
L 494.914489 211.13356 
L 495.516951 210.725457 
L 496.119413 210.069964 
L 496.721874 209.177497 
L 497.324336 209.189621 
L 497.926798 210.210342 
L 498.529259 210.935285 
L 499.131721 210.676807 
L 499.734183 208.46673 
L 500.336644 205.484762 
L 500.939106 203.270297 
L 501.541568 203.039148 
L 502.144029 204.175149 
L 505.156338 208.576997 
L 505.758799 187.419252 
L 511.783416 190.682117 
L 518.410494 194.001177 
L 519.615418 194.575939 
L 520.21788 186.849621 
L 526.242496 190.15341 
L 532.267113 193.219843 
L 534.074498 194.09607 
L 534.67696 204.721803 
L 541.9065 207.12779 
L 548.533578 209.151955 
L 549.13604 210.845339 
L 557.570503 213.024879 
L 562.992658 214.310444 
L 563.59512 215.544798 
L 564.800043 215.817998 
L 567.20989 216.803779 
L 567.812352 216.409899 
L 568.414813 213.523708 
L 569.619737 206.472355 
L 570.222198 203.805998 
L 570.82466 202.495645 
L 571.427122 202.484589 
L 572.632045 203.283364 
L 573.234507 201.05806 
L 573.836968 195.702876 
L 575.041892 181.6541 
L 575.644353 180.496226 
L 576.246815 181.041825 
L 577.451738 181.778903 
L 578.0542 208.566814 
L 581.66897 209.700707 
L 583.476355 210.390975 
L 584.078817 210.988334 
L 585.28374 206.388984 
L 585.886202 205.00246 
L 586.488663 201.825241 
L 587.091125 199.789643 
L 587.693587 198.923641 
L 588.296048 198.822235 
L 590.103433 199.60903 
L 591.910818 200.343277 
L 592.51328 175.100975 
L 597.935435 179.04555 
L 598.537897 178.637284 
L 599.140358 177.98609 
L 599.74282 178.443369 
L 600.345282 178.512321 
L 600.947743 178.081336 
L 601.550205 177.789359 
L 602.152667 176.955364 
L 602.755128 174.822595 
L 603.35759 173.887137 
L 603.960052 174.512351 
L 605.767437 175.762643 
L 606.369899 176.187533 
L 606.97236 170.828741 
L 612.394515 174.852845 
L 617.81667 178.615793 
L 620.828979 180.59976 
L 621.43144 178.411957 
L 622.636364 179.404799 
L 622.636364 179.404799 
" clip-path="url(#pb322e7c285)" style="fill: none; stroke: #ff7f0e; stroke-width: 1.5; stroke-linecap: square"/>
   </g>
   <g id="patch_3">
    <path d="M 90 288 
L 90 43.2 
" style="fill: none; stroke: #000000; stroke-width: 0.8; stroke-linejoin: miter; stroke-linecap: square"/>
   </g>
   <g id="patch_4">
    <path d="M 648 288 
L 648 43.2 
" style="fill: none; stroke: #000000; stroke-width: 0.8; stroke-linejoin: miter; stroke-linecap: square"/>
   </g>
   <g id="patch_5">
    <path d="M 90 288 
L 648 288 
" style="fill: none; stroke: #000000; stroke-width: 0.8; stroke-linejoin: miter; stroke-linecap: square"/>
   </g>
   <g id="patch_6">
    <path d="M 90 43.2 
L 648 43.2 
" style="fill: none; stroke: #000000; stroke-width: 0.8; stroke-linejoin: miter; stroke-linecap: square"/>
   </g>
   <g id="text_22">
    <!-- MDOT7075 -->
    <g transform="translate(335.545313 37.2) scale(0.12 -0.12)">
     <defs>
      <path id="DejaVuSans-44" d="M 1259 4147 
L 1259 519 
L 2022 519 
Q 2988 519 3436 956 
Q 3884 1394 3884 2338 
Q 3884 3275 3436 3711 
Q 2988 4147 2022 4147 
L 1259 4147 
z
M 628 4666 
L 1925 4666 
Q 3281 4666 3915 4102 
Q 4550 3538 4550 2338 
Q 4550 1131 3912 565 
Q 3275 0 1925 0 
L 628 0 
L 628 4666 
z
" transform="scale(0.015625)"/>
      <path id="DejaVuSans-4f" d="M 2522 4238 
Q 1834 4238 1429 3725 
Q 1025 3213 1025 2328 
Q 1025 1447 1429 934 
Q 1834 422 2522 422 
Q 3209 422 3611 934 
Q 4013 1447 4013 2328 
Q 4013 3213 3611 3725 
Q 3209 4238 2522 4238 
z
M 2522 4750 
Q 3503 4750 4090 4092 
Q 4678 3434 4678 2328 
Q 4678 1225 4090 567 
Q 3503 -91 2522 -91 
Q 1538 -91 948 565 
Q 359 1222 359 2328 
Q 359 3434 948 4092 
Q 1538 4750 2522 4750 
z
" transform="scale(0.015625)"/>
      <path id="DejaVuSans-54" d="M -19 4666 
L 3928 4666 
L 3928 4134 
L 2272 4134 
L 2272 0 
L 1638 0 
L 1638 4134 
L -19 4134 
L -19 4666 
z
" transform="scale(0.015625)"/>
     </defs>
     <use xlink:href="#DejaVuSans-4d"/>
     <use xlink:href="#DejaVuSans-44" x="86.279297"/>
     <use xlink:href="#DejaVuSans-4f" x="163.28125"/>
     <use xlink:href="#DejaVuSans-54" x="241.992188"/>
     <use xlink:href="#DejaVuSans-37" x="303.076172"/>
     <use xlink:href="#DejaVuSans-30" x="366.699219"/>
     <use xlink:href="#DejaVuSans-37" x="430.322266"/>
     <use xlink:href="#DejaVuSans-35" x="493.945312"/>
    </g>
   </g>
   <g id="legend_1">
    <g id="patch_7">
     <path d="M 559.04375 80.55625 
L 641 80.55625 
Q 643 80.55625 643 78.55625 
L 643 50.2 
Q 643 48.2 641 48.2 
L 559.04375 48.2 
Q 557.04375 48.2 557.04375 50.2 
L 557.04375 78.55625 
Q 557.04375 80.55625 559.04375 80.55625 
z
" style="fill: #ffffff; opacity: 0.8; stroke: #cccccc; stroke-linejoin: miter"/>
    </g>
    <g id="line2d_23">
     <path d="M 561.04375 56.298437 
L 571.04375 56.298437 
L 581.04375 56.298437 
" style="fill: none; stroke: #1f77b4; stroke-width: 1.5; stroke-linecap: square"/>
    </g>
    <g id="text_23">
     <!-- measured -->
     <g transform="translate(589.04375 59.798437) scale(0.1 -0.1)">
      <defs>
       <path id="DejaVuSans-6d" d="M 3328 2828 
Q 3544 3216 3844 3400 
Q 4144 3584 4550 3584 
Q 5097 3584 5394 3201 
Q 5691 2819 5691 2113 
L 5691 0 
L 5113 0 
L 5113 2094 
Q 5113 2597 4934 2840 
Q 4756 3084 4391 3084 
Q 3944 3084 3684 2787 
Q 3425 2491 3425 1978 
L 3425 0 
L 2847 0 
L 2847 2094 
Q 2847 2600 2669 2842 
Q 2491 3084 2119 3084 
Q 1678 3084 1418 2786 
Q 1159 2488 1159 1978 
L 1159 0 
L 581 0 
L 581 3500 
L 1159 3500 
L 1159 2956 
Q 1356 3278 1631 3431 
Q 1906 3584 2284 3584 
Q 2666 3584 2933 3390 
Q 3200 3197 3328 2828 
z
" transform="scale(0.015625)"/>
       <path id="DejaVuSans-61" d="M 2194 1759 
Q 1497 1759 1228 1600 
Q 959 1441 959 1056 
Q 959 750 1161 570 
Q 1363 391 1709 391 
Q 2188 391 2477 730 
Q 2766 1069 2766 1631 
L 2766 1759 
L 2194 1759 
z
M 3341 1997 
L 3341 0 
L 2766 0 
L 2766 531 
Q 2569 213 2275 61 
Q 1981 -91 1556 -91 
Q 1019 -91 701 211 
Q 384 513 384 1019 
Q 384 1609 779 1909 
Q 1175 2209 1959 2209 
L 2766 2209 
L 2766 2266 
Q 2766 2663 2505 2880 
Q 2244 3097 1772 3097 
Q 1472 3097 1187 3025 
Q 903 2953 641 2809 
L 641 3341 
Q 956 3463 1253 3523 
Q 1550 3584 1831 3584 
Q 2591 3584 2966 3190 
Q 3341 2797 3341 1997 
z
" transform="scale(0.015625)"/>
       <path id="DejaVuSans-75" d="M 544 1381 
L 544 3500 
L 1119 3500 
L 1119 1403 
Q 1119 906 1312 657 
Q 1506 409 1894 409 
Q 2359 409 2629 706 
Q 2900 1003 2900 1516 
L 2900 3500 
L 3475 3500 
L 3475 0 
L 2900 0 
L 2900 538 
Q 2691 219 2414 64 
Q 2138 -91 1772 -91 
Q 1169 -91 856 284 
Q 544 659 544 1381 
z
M 1991 3584 
L 1991 3584 
z
" transform="scale(0.015625)"/>
       <path id="DejaVuSans-64" d="M 2906 2969 
L 2906 4863 
L 3481 4863 
L 3481 0 
L 2906 0 
L 2906 525 
Q 2725 213 2448 61 
Q 2172 -91 1784 -91 
Q 1150 -91 751 415 
Q 353 922 353 1747 
Q 353 2572 751 3078 
Q 1150 3584 1784 3584 
Q 2172 3584 2448 3432 
Q 2725 3281 2906 2969 
z
M 947 1747 
Q 947 1113 1208 752 
Q 1469 391 1925 391 
Q 2381 391 2643 752 
Q 2906 1113 2906 1747 
Q 2906 2381 2643 2742 
Q 2381 3103 1925 3103 
Q 1469 3103 1208 2742 
Q 947 2381 947 1747 
z
" transform="scale(0.015625)"/>
      </defs>
      <use xlink:href="#DejaVuSans-6d"/>
      <use xlink:href="#DejaVuSans-65" x="97.412109"/>
      <use xlink:href="#DejaVuSans-61" x="158.935547"/>
      <use xlink:href="#DejaVuSans-73" x="220.214844"/>
      <use xlink:href="#DejaVuSans-75" x="272.314453"/>
      <use xlink:href="#DejaVuSans-72" x="335.693359"/>
      <use xlink:href="#DejaVuSans-65" x="374.556641"/>
      <use xlink:href="#DejaVuSans-64" x="436.080078"/>
     </g>
    </g>
    <g id="line2d_24">
     <path d="M 561.04375 70.976562 
L 571.04375 70.976562 
L 581.04375 70.976562 
" style="fill: none; stroke: #ff7f0e; stroke-width: 1.5; stroke-linecap: square"/>
    </g>
    <g id="text_24">
     <!-- predicted -->
     <g transform="translate(589.04375 74.476562) scale(0.1 -0.1)">
      <defs>
       <path id="DejaVuSans-70" d="M 1159 525 
L 1159 -1331 
L 581 -1331 
L 581 3500 
L 1159 3500 
L 1159 2969 
Q 1341 3281 1617 3432 
Q 1894 3584 2278 3584 
Q 2916 3584 3314 3078 
Q 3713 2572 3713 1747 
Q 3713 922 3314 415 
Q 2916 -91 2278 -91 
Q 1894 -91 1617 61 
Q 1341 213 1159 525 
z
M 3116 1747 
Q 3116 2381 2855 2742 
Q 2594 3103 2138 3103 
Q 1681 3103 1420 2742 
Q 1159 2381 1159 1747 
Q 1159 1113 1420 752 
Q 1681 391 2138 391 
Q 2594 391 2855 752 
Q 3116 1113 3116 1747 
z
" transform="scale(0.015625)"/>
       <path id="DejaVuSans-69" d="M 603 3500 
L 1178 3500 
L 1178 0 
L 603 0 
L 603 3500 
z
M 603 4863 
L 1178 4863 
L 1178 4134 
L 603 4134 
L 603 4863 
z
" transform="scale(0.015625)"/>
       <path id="DejaVuSans-63" d="M 3122 3366 
L 3122 2828 
Q 2878 2963 2633 3030 
Q 2388 3097 2138 3097 
Q 1578 3097 1268 2742 
Q 959 2388 959 1747 
Q 959 1106 1268 751 
Q 1578 397 2138 397 
Q 2388 397 2633 464 
Q 2878 531 3122 666 
L 3122 134 
Q 2881 22 2623 -34 
Q 2366 -91 2075 -91 
Q 1284 -91 818 406 
Q 353 903 353 1747 
Q 353 2603 823 3093 
Q 1294 3584 2113 3584 
Q 2378 3584 2631 3529 
Q 2884 3475 3122 3366 
z
" transform="scale(0.015625)"/>
      </defs>
      <use xlink:href="#DejaVuSans-70"/>
      <use xlink:href="#DejaVuSans-72" x="63.476562"/>
      <use xlink:href="#DejaVuSans-65" x="102.339844"/>
      <use xlink:href="#DejaVuSans-64" x="163.863281"/>
      <use xlink:href="#DejaVuSans-69" x="227.339844"/>
      <use xlink:href="#DejaVuSans-63" x="255.123047"/>
      <use xlink:href="#DejaVuSans-74" x="310.103516"/>
      <use xlink:href="#DejaVuSans-65" x="349.3125"/>
      <use xlink:href="#DejaVuSans-64" x="410.835938"/>
     </g>
    </g>
   </g>
  </g>
 </g>
 <defs>
  <clipPath id="pb322e7c285">
   <rect x="90" y="43.2" width="558" height="244.8"/>
  </clipPath>
 </defs>
</svg>
