<?xml version="1.0" encoding="utf-8" standalone="no"?>
<!DOCTYPE svg PUBLIC "-//W3C//DTD SVG 1.1//EN"
  "http://www.w3.org/Graphics/SVG/1.1/DTD/svg11.dtd">
<svg xmlns:xlink="http://www.w3.org/1999/xlink" width="709.873725pt" height="351.43625pt" viewBox="0 0 709.873725 351.43625" xmlns="http://www.w3.org/2000/svg" version="1.1">
 <metadata>
  <rdf:RDF xmlns:dc="http://purl.org/dc/elements/1.1/" xmlns:cc="http://creativecommons.org/ns#" xmlns:rdf="http://www.w3.org/1999/02/22-rdf-syntax-ns#">
   <cc:Work>
    <dc:type rdf:resource="http://purl.org/dc/dcmitype/StillImage"/>
    <dc:date>2023-08-22T12:24:46.222433</dc:date>
    <dc:format>image/svg+xml</dc:format>
    <dc:creator>
     <cc:Agent>
      <dc:title>Matplotlib v3.7.1, https://matplotlib.org/</dc:title>
     </cc:Agent>
    </dc:creator>
   </cc:Work>
  </rdf:RDF>
 </metadata>
 <defs>
  <style type="text/css">*{stroke-linejoin: round; stroke-linecap: butt}</style>
 </defs>
 <g id="figure_1">
  <g id="patch_1">
   <path d="M 0 351.43625 
L 709.873725 351.43625 
L 709.873725 0 
L 0 0 
z
" style="fill: #ffffff"/>
  </g>
  <g id="axes_1">
   <g id="patch_2">
    <path d="M 33.2875 327.558125 
L 701.542294 327.558125 
L 701.542294 22.318125 
L 33.2875 22.318125 
z
" style="fill: #ffffff"/>
   </g>
   <g id="matplotlib.axis_1">
    <g id="xtick_1">
     <g id="line2d_1">
      <defs>
       <path id="m7b3ce3e536" d="M 0 0 
L 0 3.5 
" style="stroke: #000000; stroke-width: 0.8"/>
      </defs>
      <g>
       <use xlink:href="#m7b3ce3e536" x="78.138049" y="327.558125" style="stroke: #000000; stroke-width: 0.8"/>
      </g>
     </g>
     <g id="text_1">
      <!-- 2018-01 -->
      <g transform="translate(57.246642 342.156563) scale(0.1 -0.1)">
       <defs>
        <path id="DejaVuSans-32" d="M 1228 531 
L 3431 531 
L 3431 0 
L 469 0 
L 469 531 
Q 828 903 1448 1529 
Q 2069 2156 2228 2338 
Q 2531 2678 2651 2914 
Q 2772 3150 2772 3378 
Q 2772 3750 2511 3984 
Q 2250 4219 1831 4219 
Q 1534 4219 1204 4116 
Q 875 4013 500 3803 
L 500 4441 
Q 881 4594 1212 4672 
Q 1544 4750 1819 4750 
Q 2544 4750 2975 4387 
Q 3406 4025 3406 3419 
Q 3406 3131 3298 2873 
Q 3191 2616 2906 2266 
Q 2828 2175 2409 1742 
Q 1991 1309 1228 531 
z
" transform="scale(0.015625)"/>
        <path id="DejaVuSans-30" d="M 2034 4250 
Q 1547 4250 1301 3770 
Q 1056 3291 1056 2328 
Q 1056 1369 1301 889 
Q 1547 409 2034 409 
Q 2525 409 2770 889 
Q 3016 1369 3016 2328 
Q 3016 3291 2770 3770 
Q 2525 4250 2034 4250 
z
M 2034 4750 
Q 2819 4750 3233 4129 
Q 3647 3509 3647 2328 
Q 3647 1150 3233 529 
Q 2819 -91 2034 -91 
Q 1250 -91 836 529 
Q 422 1150 422 2328 
Q 422 3509 836 4129 
Q 1250 4750 2034 4750 
z
" transform="scale(0.015625)"/>
        <path id="DejaVuSans-31" d="M 794 531 
L 1825 531 
L 1825 4091 
L 703 3866 
L 703 4441 
L 1819 4666 
L 2450 4666 
L 2450 531 
L 3481 531 
L 3481 0 
L 794 0 
L 794 531 
z
" transform="scale(0.015625)"/>
        <path id="DejaVuSans-38" d="M 2034 2216 
Q 1584 2216 1326 1975 
Q 1069 1734 1069 1313 
Q 1069 891 1326 650 
Q 1584 409 2034 409 
Q 2484 409 2743 651 
Q 3003 894 3003 1313 
Q 3003 1734 2745 1975 
Q 2488 2216 2034 2216 
z
M 1403 2484 
Q 997 2584 770 2862 
Q 544 3141 544 3541 
Q 544 4100 942 4425 
Q 1341 4750 2034 4750 
Q 2731 4750 3128 4425 
Q 3525 4100 3525 3541 
Q 3525 3141 3298 2862 
Q 3072 2584 2669 2484 
Q 3125 2378 3379 2068 
Q 3634 1759 3634 1313 
Q 3634 634 3220 271 
Q 2806 -91 2034 -91 
Q 1263 -91 848 271 
Q 434 634 434 1313 
Q 434 1759 690 2068 
Q 947 2378 1403 2484 
z
M 1172 3481 
Q 1172 3119 1398 2916 
Q 1625 2713 2034 2713 
Q 2441 2713 2670 2916 
Q 2900 3119 2900 3481 
Q 2900 3844 2670 4047 
Q 2441 4250 2034 4250 
Q 1625 4250 1398 4047 
Q 1172 3844 1172 3481 
z
" transform="scale(0.015625)"/>
        <path id="DejaVuSans-2d" d="M 313 2009 
L 1997 2009 
L 1997 1497 
L 313 1497 
L 313 2009 
z
" transform="scale(0.015625)"/>
       </defs>
       <use xlink:href="#DejaVuSans-32"/>
       <use xlink:href="#DejaVuSans-30" x="63.623047"/>
       <use xlink:href="#DejaVuSans-31" x="127.246094"/>
       <use xlink:href="#DejaVuSans-38" x="190.869141"/>
       <use xlink:href="#DejaVuSans-2d" x="254.492188"/>
       <use xlink:href="#DejaVuSans-30" x="290.576172"/>
       <use xlink:href="#DejaVuSans-31" x="354.199219"/>
      </g>
     </g>
    </g>
    <g id="xtick_2">
     <g id="line2d_2">
      <g>
       <use xlink:href="#m7b3ce3e536" x="144.678617" y="327.558125" style="stroke: #000000; stroke-width: 0.8"/>
      </g>
     </g>
     <g id="text_2">
      <!-- 2018-07 -->
      <g transform="translate(123.787211 342.156563) scale(0.1 -0.1)">
       <defs>
        <path id="DejaVuSans-37" d="M 525 4666 
L 3525 4666 
L 3525 4397 
L 1831 0 
L 1172 0 
L 2766 4134 
L 525 4134 
L 525 4666 
z
" transform="scale(0.015625)"/>
       </defs>
       <use xlink:href="#DejaVuSans-32"/>
       <use xlink:href="#DejaVuSans-30" x="63.623047"/>
       <use xlink:href="#DejaVuSans-31" x="127.246094"/>
       <use xlink:href="#DejaVuSans-38" x="190.869141"/>
       <use xlink:href="#DejaVuSans-2d" x="254.492188"/>
       <use xlink:href="#DejaVuSans-30" x="290.576172"/>
       <use xlink:href="#DejaVuSans-37" x="354.199219"/>
      </g>
     </g>
    </g>
    <g id="xtick_3">
     <g id="line2d_3">
      <g>
       <use xlink:href="#m7b3ce3e536" x="212.322067" y="327.558125" style="stroke: #000000; stroke-width: 0.8"/>
      </g>
     </g>
     <g id="text_3">
      <!-- 2019-01 -->
      <g transform="translate(191.430661 342.156563) scale(0.1 -0.1)">
       <defs>
        <path id="DejaVuSans-39" d="M 703 97 
L 703 672 
Q 941 559 1184 500 
Q 1428 441 1663 441 
Q 2288 441 2617 861 
Q 2947 1281 2994 2138 
Q 2813 1869 2534 1725 
Q 2256 1581 1919 1581 
Q 1219 1581 811 2004 
Q 403 2428 403 3163 
Q 403 3881 828 4315 
Q 1253 4750 1959 4750 
Q 2769 4750 3195 4129 
Q 3622 3509 3622 2328 
Q 3622 1225 3098 567 
Q 2575 -91 1691 -91 
Q 1453 -91 1209 -44 
Q 966 3 703 97 
z
M 1959 2075 
Q 2384 2075 2632 2365 
Q 2881 2656 2881 3163 
Q 2881 3666 2632 3958 
Q 2384 4250 1959 4250 
Q 1534 4250 1286 3958 
Q 1038 3666 1038 3163 
Q 1038 2656 1286 2365 
Q 1534 2075 1959 2075 
z
" transform="scale(0.015625)"/>
       </defs>
       <use xlink:href="#DejaVuSans-32"/>
       <use xlink:href="#DejaVuSans-30" x="63.623047"/>
       <use xlink:href="#DejaVuSans-31" x="127.246094"/>
       <use xlink:href="#DejaVuSans-39" x="190.869141"/>
       <use xlink:href="#DejaVuSans-2d" x="254.492188"/>
       <use xlink:href="#DejaVuSans-30" x="290.576172"/>
       <use xlink:href="#DejaVuSans-31" x="354.199219"/>
      </g>
     </g>
    </g>
    <g id="xtick_4">
     <g id="line2d_4">
      <g>
       <use xlink:href="#m7b3ce3e536" x="278.862635" y="327.558125" style="stroke: #000000; stroke-width: 0.8"/>
      </g>
     </g>
     <g id="text_4">
      <!-- 2019-07 -->
      <g transform="translate(257.971229 342.156563) scale(0.1 -0.1)">
       <use xlink:href="#DejaVuSans-32"/>
       <use xlink:href="#DejaVuSans-30" x="63.623047"/>
       <use xlink:href="#DejaVuSans-31" x="127.246094"/>
       <use xlink:href="#DejaVuSans-39" x="190.869141"/>
       <use xlink:href="#DejaVuSans-2d" x="254.492188"/>
       <use xlink:href="#DejaVuSans-30" x="290.576172"/>
       <use xlink:href="#DejaVuSans-37" x="354.199219"/>
      </g>
     </g>
    </g>
    <g id="xtick_5">
     <g id="line2d_5">
      <g>
       <use xlink:href="#m7b3ce3e536" x="346.506086" y="327.558125" style="stroke: #000000; stroke-width: 0.8"/>
      </g>
     </g>
     <g id="text_5">
      <!-- 2020-01 -->
      <g transform="translate(325.614679 342.156563) scale(0.1 -0.1)">
       <use xlink:href="#DejaVuSans-32"/>
       <use xlink:href="#DejaVuSans-30" x="63.623047"/>
       <use xlink:href="#DejaVuSans-32" x="127.246094"/>
       <use xlink:href="#DejaVuSans-30" x="190.869141"/>
       <use xlink:href="#DejaVuSans-2d" x="254.492188"/>
       <use xlink:href="#DejaVuSans-30" x="290.576172"/>
       <use xlink:href="#DejaVuSans-31" x="354.199219"/>
      </g>
     </g>
    </g>
    <g id="xtick_6">
     <g id="line2d_6">
      <g>
       <use xlink:href="#m7b3ce3e536" x="413.414281" y="327.558125" style="stroke: #000000; stroke-width: 0.8"/>
      </g>
     </g>
     <g id="text_6">
      <!-- 2020-07 -->
      <g transform="translate(392.522875 342.156563) scale(0.1 -0.1)">
       <use xlink:href="#DejaVuSans-32"/>
       <use xlink:href="#DejaVuSans-30" x="63.623047"/>
       <use xlink:href="#DejaVuSans-32" x="127.246094"/>
       <use xlink:href="#DejaVuSans-30" x="190.869141"/>
       <use xlink:href="#DejaVuSans-2d" x="254.492188"/>
       <use xlink:href="#DejaVuSans-30" x="290.576172"/>
       <use xlink:href="#DejaVuSans-37" x="354.199219"/>
      </g>
     </g>
    </g>
    <g id="xtick_7">
     <g id="line2d_7">
      <g>
       <use xlink:href="#m7b3ce3e536" x="481.057732" y="327.558125" style="stroke: #000000; stroke-width: 0.8"/>
      </g>
     </g>
     <g id="text_7">
      <!-- 2021-01 -->
      <g transform="translate(460.166325 342.156563) scale(0.1 -0.1)">
       <use xlink:href="#DejaVuSans-32"/>
       <use xlink:href="#DejaVuSans-30" x="63.623047"/>
       <use xlink:href="#DejaVuSans-32" x="127.246094"/>
       <use xlink:href="#DejaVuSans-31" x="190.869141"/>
       <use xlink:href="#DejaVuSans-2d" x="254.492188"/>
       <use xlink:href="#DejaVuSans-30" x="290.576172"/>
       <use xlink:href="#DejaVuSans-31" x="354.199219"/>
      </g>
     </g>
    </g>
    <g id="xtick_8">
     <g id="line2d_8">
      <g>
       <use xlink:href="#m7b3ce3e536" x="547.5983" y="327.558125" style="stroke: #000000; stroke-width: 0.8"/>
      </g>
     </g>
     <g id="text_8">
      <!-- 2021-07 -->
      <g transform="translate(526.706894 342.156563) scale(0.1 -0.1)">
       <use xlink:href="#DejaVuSans-32"/>
       <use xlink:href="#DejaVuSans-30" x="63.623047"/>
       <use xlink:href="#DejaVuSans-32" x="127.246094"/>
       <use xlink:href="#DejaVuSans-31" x="190.869141"/>
       <use xlink:href="#DejaVuSans-2d" x="254.492188"/>
       <use xlink:href="#DejaVuSans-30" x="290.576172"/>
       <use xlink:href="#DejaVuSans-37" x="354.199219"/>
      </g>
     </g>
    </g>
    <g id="xtick_9">
     <g id="line2d_9">
      <g>
       <use xlink:href="#m7b3ce3e536" x="615.24175" y="327.558125" style="stroke: #000000; stroke-width: 0.8"/>
      </g>
     </g>
     <g id="text_9">
      <!-- 2022-01 -->
      <g transform="translate(594.350344 342.156563) scale(0.1 -0.1)">
       <use xlink:href="#DejaVuSans-32"/>
       <use xlink:href="#DejaVuSans-30" x="63.623047"/>
       <use xlink:href="#DejaVuSans-32" x="127.246094"/>
       <use xlink:href="#DejaVuSans-32" x="190.869141"/>
       <use xlink:href="#DejaVuSans-2d" x="254.492188"/>
       <use xlink:href="#DejaVuSans-30" x="290.576172"/>
       <use xlink:href="#DejaVuSans-31" x="354.199219"/>
      </g>
     </g>
    </g>
    <g id="xtick_10">
     <g id="line2d_10">
      <g>
       <use xlink:href="#m7b3ce3e536" x="681.782318" y="327.558125" style="stroke: #000000; stroke-width: 0.8"/>
      </g>
     </g>
     <g id="text_10">
      <!-- 2022-07 -->
      <g transform="translate(660.890912 342.156563) scale(0.1 -0.1)">
       <use xlink:href="#DejaVuSans-32"/>
       <use xlink:href="#DejaVuSans-30" x="63.623047"/>
       <use xlink:href="#DejaVuSans-32" x="127.246094"/>
       <use xlink:href="#DejaVuSans-32" x="190.869141"/>
       <use xlink:href="#DejaVuSans-2d" x="254.492188"/>
       <use xlink:href="#DejaVuSans-30" x="290.576172"/>
       <use xlink:href="#DejaVuSans-37" x="354.199219"/>
      </g>
     </g>
    </g>
   </g>
   <g id="matplotlib.axis_2">
    <g id="ytick_1">
     <g id="line2d_11">
      <defs>
       <path id="m2e34ccca6d" d="M 0 0 
L -3.5 0 
" style="stroke: #000000; stroke-width: 0.8"/>
      </defs>
      <g>
       <use xlink:href="#m2e34ccca6d" x="33.2875" y="313.437755" style="stroke: #000000; stroke-width: 0.8"/>
      </g>
     </g>
     <g id="text_11">
      <!-- 0 -->
      <g transform="translate(19.925 317.236974) scale(0.1 -0.1)">
       <use xlink:href="#DejaVuSans-30"/>
      </g>
     </g>
    </g>
    <g id="ytick_2">
     <g id="line2d_12">
      <g>
       <use xlink:href="#m2e34ccca6d" x="33.2875" y="267.631921" style="stroke: #000000; stroke-width: 0.8"/>
      </g>
     </g>
     <g id="text_12">
      <!-- 50 -->
      <g transform="translate(13.5625 271.43114) scale(0.1 -0.1)">
       <defs>
        <path id="DejaVuSans-35" d="M 691 4666 
L 3169 4666 
L 3169 4134 
L 1269 4134 
L 1269 2991 
Q 1406 3038 1543 3061 
Q 1681 3084 1819 3084 
Q 2600 3084 3056 2656 
Q 3513 2228 3513 1497 
Q 3513 744 3044 326 
Q 2575 -91 1722 -91 
Q 1428 -91 1123 -41 
Q 819 9 494 109 
L 494 744 
Q 775 591 1075 516 
Q 1375 441 1709 441 
Q 2250 441 2565 725 
Q 2881 1009 2881 1497 
Q 2881 1984 2565 2268 
Q 2250 2553 1709 2553 
Q 1456 2553 1204 2497 
Q 953 2441 691 2322 
L 691 4666 
z
" transform="scale(0.015625)"/>
       </defs>
       <use xlink:href="#DejaVuSans-35"/>
       <use xlink:href="#DejaVuSans-30" x="63.623047"/>
      </g>
     </g>
    </g>
    <g id="ytick_3">
     <g id="line2d_13">
      <g>
       <use xlink:href="#m2e34ccca6d" x="33.2875" y="221.826087" style="stroke: #000000; stroke-width: 0.8"/>
      </g>
     </g>
     <g id="text_13">
      <!-- 100 -->
      <g transform="translate(7.2 225.625305) scale(0.1 -0.1)">
       <use xlink:href="#DejaVuSans-31"/>
       <use xlink:href="#DejaVuSans-30" x="63.623047"/>
       <use xlink:href="#DejaVuSans-30" x="127.246094"/>
      </g>
     </g>
    </g>
    <g id="ytick_4">
     <g id="line2d_14">
      <g>
       <use xlink:href="#m2e34ccca6d" x="33.2875" y="176.020252" style="stroke: #000000; stroke-width: 0.8"/>
      </g>
     </g>
     <g id="text_14">
      <!-- 150 -->
      <g transform="translate(7.2 179.819471) scale(0.1 -0.1)">
       <use xlink:href="#DejaVuSans-31"/>
       <use xlink:href="#DejaVuSans-35" x="63.623047"/>
       <use xlink:href="#DejaVuSans-30" x="127.246094"/>
      </g>
     </g>
    </g>
    <g id="ytick_5">
     <g id="line2d_15">
      <g>
       <use xlink:href="#m2e34ccca6d" x="33.2875" y="130.214418" style="stroke: #000000; stroke-width: 0.8"/>
      </g>
     </g>
     <g id="text_15">
      <!-- 200 -->
      <g transform="translate(7.2 134.013637) scale(0.1 -0.1)">
       <use xlink:href="#DejaVuSans-32"/>
       <use xlink:href="#DejaVuSans-30" x="63.623047"/>
       <use xlink:href="#DejaVuSans-30" x="127.246094"/>
      </g>
     </g>
    </g>
    <g id="ytick_6">
     <g id="line2d_16">
      <g>
       <use xlink:href="#m2e34ccca6d" x="33.2875" y="84.408584" style="stroke: #000000; stroke-width: 0.8"/>
      </g>
     </g>
     <g id="text_16">
      <!-- 250 -->
      <g transform="translate(7.2 88.207803) scale(0.1 -0.1)">
       <use xlink:href="#DejaVuSans-32"/>
       <use xlink:href="#DejaVuSans-35" x="63.623047"/>
       <use xlink:href="#DejaVuSans-30" x="127.246094"/>
      </g>
     </g>
    </g>
    <g id="ytick_7">
     <g id="line2d_17">
      <g>
       <use xlink:href="#m2e34ccca6d" x="33.2875" y="38.60275" style="stroke: #000000; stroke-width: 0.8"/>
      </g>
     </g>
     <g id="text_17">
      <!-- 300 -->
      <g transform="translate(7.2 42.401969) scale(0.1 -0.1)">
       <defs>
        <path id="DejaVuSans-33" d="M 2597 2516 
Q 3050 2419 3304 2112 
Q 3559 1806 3559 1356 
Q 3559 666 3084 287 
Q 2609 -91 1734 -91 
Q 1441 -91 1130 -33 
Q 819 25 488 141 
L 488 750 
Q 750 597 1062 519 
Q 1375 441 1716 441 
Q 2309 441 2620 675 
Q 2931 909 2931 1356 
Q 2931 1769 2642 2001 
Q 2353 2234 1838 2234 
L 1294 2234 
L 1294 2753 
L 1863 2753 
Q 2328 2753 2575 2939 
Q 2822 3125 2822 3475 
Q 2822 3834 2567 4026 
Q 2313 4219 1838 4219 
Q 1578 4219 1281 4162 
Q 984 4106 628 3988 
L 628 4550 
Q 988 4650 1302 4700 
Q 1616 4750 1894 4750 
Q 2613 4750 3031 4423 
Q 3450 4097 3450 3541 
Q 3450 3153 3228 2886 
Q 3006 2619 2597 2516 
z
" transform="scale(0.015625)"/>
       </defs>
       <use xlink:href="#DejaVuSans-33"/>
       <use xlink:href="#DejaVuSans-30" x="63.623047"/>
       <use xlink:href="#DejaVuSans-30" x="127.246094"/>
      </g>
     </g>
    </g>
   </g>
   <g id="line2d_18">
    <path d="M 63.662718 312.426973 
L 64.198841 312.425446 
L 64.597104 312.420865 
L 64.98005 312.420865 
L 66.021661 312.414758 
L 67.017318 312.327727 
L 68.426557 312.356737 
L 75.135758 312.246803 
L 75.564657 312.274287 
L 75.871013 312.329254 
L 84.111995 312.439188 
L 84.724707 312.448349 
L 86.547527 312.37506 
L 87.007061 312.401016 
L 94.053254 312.365898 
L 96.841095 311.559716 
L 96.933002 309.88933 
L 96.994273 310.313797 
L 97.254676 311.860507 
L 97.530397 312.182675 
L 97.775482 312.208632 
L 97.989931 312.071214 
L 98.06652 309.350348 
L 98.127791 308.324297 
L 98.189062 308.629669 
L 98.250334 309.380885 
L 98.296287 308.832742 
L 98.357558 308.325824 
L 98.403512 308.715173 
L 98.69455 311.687972 
L 98.970271 312.103278 
L 99.383852 312.332307 
L 100.747137 312.440715 
L 101.022857 312.45751 
L 104.591907 312.567444 
L 105.158666 312.567444 
L 109.508924 312.484994 
L 109.570195 312.199471 
L 109.67742 310.83751 
L 109.723374 310.982562 
L 109.799963 311.27572 
L 109.845916 311.145936 
L 109.876552 311.136775 
L 109.907187 311.229914 
L 110.244179 312.057472 
L 110.581171 312.292609 
L 111.025387 312.434607 
L 112.61844 312.543014 
L 112.986067 312.573551 
L 113.338377 312.582713 
L 114.870158 312.539961 
L 115.20715 312.560115 
L 119.388912 312.543014 
L 119.54209 312.524692 
L 120.062896 312.619357 
L 121.104507 312.523165 
L 121.426181 312.56439 
L 122.054211 312.611723 
L 122.299296 312.61325 
L 122.651605 312.631572 
L 123.065186 312.649895 
L 123.448132 312.417812 
L 124.275293 312.628518 
L 124.903324 312.675851 
L 126.756779 312.750667 
L 126.986546 312.736926 
L 127.44608 312.764409 
L 128.104746 312.657529 
L 128.196653 312.37964 
L 128.242606 312.449876 
L 128.457056 312.631572 
L 129.176993 312.732345 
L 129.314853 312.727764 
L 129.391442 312.697227 
L 129.621209 310.040489 
L 129.651845 309.86948 
L 129.697798 310.130574 
L 129.958201 311.869669 
L 130.279875 312.37506 
L 130.724092 312.565917 
L 130.846634 312.367425 
L 130.861952 312.37506 
L 131.15299 312.494155 
L 131.260215 312.193363 
L 131.290851 312.228481 
L 131.612525 312.51095 
L 135.687062 312.807161 
L 136.544859 312.828537 
L 136.743991 312.852967 
L 137.555835 312.883504 
L 137.831556 312.901827 
L 137.954098 312.778151 
L 138.061323 312.805634 
L 147.206055 313.025502 
L 147.512412 313.057566 
L 148.492752 313.141544 
L 149.1361 313.18735 
L 149.519045 313.217887 
L 150.851694 313.181242 
L 150.928283 313.117114 
L 151.280593 313.135436 
L 151.3725 312.649895 
L 151.464407 312.686539 
L 152.00053 312.831591 
L 152.35284 312.837698 
L 152.84301 312.888085 
L 155.646169 313.100319 
L 155.784029 312.668217 
L 155.799347 312.671881 
L 155.967843 312.770517 
L 156.366106 312.84686 
L 157.024772 312.92931 
L 157.346446 312.979697 
L 161.267805 313.286596 
L 161.313759 313.196511 
L 161.359712 312.488047 
L 161.482255 310.028274 
L 161.558844 310.930649 
L 161.757975 312.062053 
L 161.926471 312.344522 
L 161.972425 312.294136 
L 162.00306 311.993344 
L 162.094967 309.912233 
L 162.140921 310.20997 
L 162.186874 308.910612 
L 162.278781 306.301206 
L 162.324734 306.866145 
L 162.554501 311.319999 
L 162.799586 312.123127 
L 162.891493 312.243749 
L 162.906811 312.210159 
L 163.014036 310.058811 
L 163.136578 305.267521 
L 163.151896 305.49655 
L 163.427617 311.405503 
L 163.657384 312.03915 
L 164.009693 312.303297 
L 164.622406 312.274287 
L 164.714313 312.078848 
L 164.760266 312.100225 
L 165.066622 312.27734 
L 165.480203 312.434607 
L 166.276729 312.558283 
L 166.981349 312.536907 
L 167.165162 306.256927 
L 167.241751 308.316663 
L 167.456201 311.43604 
L 167.685968 312.055946 
L 167.977006 312.29719 
L 169.432198 312.51095 
L 169.49347 312.35521 
L 169.524105 312.095644 
L 169.600694 312.323146 
L 169.845779 312.430027 
L 169.998957 312.384221 
L 170.152135 309.348821 
L 170.182771 309.597699 
L 170.244042 310.300055 
L 170.320631 310.104617 
L 170.412538 310.626804 
L 170.672941 311.831497 
L 170.994615 312.191836 
L 171.683916 312.411704 
L 173.246333 312.520111 
L 173.522054 312.53538 
L 181.579222 312.443768 
L 181.655811 312.365898 
L 181.701764 312.401016 
L 181.778353 312.303297 
L 181.931531 312.338415 
L 182.283841 312.393382 
L 187.461261 312.503316 
L 188.073973 312.494155 
L 191.076264 312.384221 
L 191.321349 312.359791 
L 191.612388 312.40407 
L 202.411444 312.58424 
L 204.096403 312.640733 
L 205.965176 312.53538 
L 206.103036 312.498735 
L 206.899562 312.622411 
L 210.591155 312.530799 
L 210.805604 312.11702 
L 210.912829 312.196417 
L 211.32641 312.353683 
L 211.969758 312.494155 
L 212.076982 312.40407 
L 212.260796 309.896964 
L 212.322067 310.238981 
L 212.643741 311.900206 
L 212.950097 312.231535 
L 213.409632 312.384221 
L 213.56281 312.320093 
L 213.731306 311.503222 
L 213.853848 311.735305 
L 214.175522 312.132289 
L 214.589103 312.320093 
L 215.03332 312.420865 
L 216.258744 312.341469 
L 216.320016 311.341375 
L 216.580418 306.850876 
L 216.626372 307.027992 
L 216.748914 309.258736 
L 216.978682 311.545974 
L 217.208449 311.98571 
L 217.560758 312.211685 
L 217.959021 312.323146 
L 218.357284 312.365898 
L 218.801501 312.347576 
L 219.138493 312.240696 
L 219.306989 312.257491 
L 219.659298 312.401016 
L 220.83877 312.411704 
L 221.160444 312.430027 
L 225.204346 312.539961 
L 225.464748 312.529273 
L 225.985554 312.495682 
L 226.169368 311.109292 
L 226.230639 311.355116 
L 226.491042 312.080375 
L 226.64422 312.187256 
L 227.042483 312.368952 
L 227.486699 312.393382 
L 228.099412 312.210159 
L 228.574264 312.365898 
L 229.079752 312.45751 
L 230.856618 312.419339 
L 231.132338 312.291082 
L 234.563528 312.521638 
L 237.090967 312.517058 
L 237.198191 308.47851 
L 237.27478 309.509141 
L 237.504547 311.707821 
L 237.795586 312.159772 
L 238.209167 312.347576 
L 238.377663 312.27276 
L 238.561476 311.084862 
L 238.668701 311.294042 
L 238.714654 311.319999 
L 238.760608 311.236021 
L 238.821879 311.326106 
L 239.174189 312.062053 
L 239.495863 312.329254 
L 239.848172 312.411704 
L 241.058279 312.539961 
L 242.620696 312.431553 
L 242.973006 312.372006 
L 244.351609 312.533853 
L 244.780507 312.523165 
L 244.933685 311.895625 
L 245.071546 311.924636 
L 245.66894 312.37506 
L 246.358242 312.484994 
L 246.710551 312.507896 
L 247.338582 312.494155 
L 248.150426 312.547595 
L 248.4721 312.561337 
L 248.931634 312.585766 
L 250.294919 312.488047 
L 250.417462 311.397868 
L 250.494051 311.54292 
L 250.84636 312.2239 
L 251.183352 312.411704 
L 252.255599 312.512477 
L 255.25789 312.622411 
L 255.778695 312.66669 
L 256.085051 312.659056 
L 256.391408 312.628518 
L 256.406725 312.494155 
L 256.529268 304.21704 
L 256.605857 304.985052 
L 256.896895 311.11998 
L 258.398041 312.159772 
L 258.413359 312.06358 
L 258.505265 310.600847 
L 258.581854 310.788651 
L 258.704397 311.53834 
L 258.719715 311.512383 
L 258.842257 308.988482 
L 258.888211 309.400734 
L 259.148613 311.608575 
L 259.286474 309.771761 
L 259.393698 310.445107 
L 259.638783 311.578038 
L 259.684737 311.660489 
L 259.761326 311.610102 
L 260.083 311.59636 
L 260.144271 311.559716 
L 260.205542 311.59636 
L 260.481263 311.633005 
L 260.756983 311.733778 
L 260.879526 311.706294 
L 261.017386 311.811648 
L 261.216518 312.21932 
L 261.33906 312.349103 
L 261.354378 312.315512 
L 261.415649 312.255964 
L 261.476921 312.292609 
L 261.936455 312.402543 
L 262.503214 312.45751 
L 262.993384 312.35521 
L 263.054655 312.197944 
L 263.177198 311.790272 
L 263.192515 311.791799 
L 263.682685 312.257491 
L 263.698003 312.240696 
L 263.759274 310.083241 
L 263.897135 303.40017 
L 263.92777 303.749821 
L 264.28008 308.760979 
L 264.341351 308.591498 
L 264.586436 306.965391 
L 264.984699 302.303883 
L 265.53614 302.264185 
L 265.903768 303.290236 
L 266.179488 303.849067 
L 273.516719 312.101751 
L 273.547355 311.997925 
L 273.669898 311.695606 
L 273.685215 311.700187 
L 273.838394 311.862034 
L 273.853711 311.787218 
L 273.960936 308.344146 
L 274.006889 308.815946 
L 274.236657 311.371912 
L 274.481742 311.9567 
L 274.588966 309.916813 
L 274.680873 307.029519 
L 274.711509 307.315042 
L 275.033183 311.504749 
L 275.324221 312.03457 
L 275.860344 312.280394 
L 276.02884 312.226954 
L 276.212654 304.186503 
L 276.24329 304.530047 
L 276.427103 309.879558 
L 277.284901 312.121601 
L 277.606575 312.132289 
L 278.249923 312.329254 
L 279.199627 312.439188 
L 280.394416 312.448349 
L 280.471005 312.359791 
L 280.547594 312.320093 
L 280.593548 312.338415 
L 280.639501 312.35521 
L 280.762044 309.18392 
L 280.792679 309.580904 
L 280.976493 311.51849 
L 281.114353 311.794852 
L 281.144989 311.721563 
L 281.221578 311.342901 
L 281.298167 311.582619 
L 281.619841 312.113966 
L 282.155965 312.310931 
L 283.534567 312.483467 
L 283.718381 312.48194 
L 284.484272 312.521638 
L 285.75565 312.462091 
L 285.786286 312.402543 
L 285.862875 312.448349 
L 286.307091 312.585766 
L 286.659401 312.516142 
L 286.690036 312.309405 
L 286.766625 312.414758 
L 286.904486 312.401016 
L 286.981075 312.191836 
L 287.042346 312.237642 
L 287.425291 312.475832 
L 287.471245 312.349103 
L 287.609105 312.352157 
L 288.359678 312.471252 
L 288.574127 312.498735 
L 288.788576 312.549122 
L 289.753598 311.775003 
L 289.922094 312.51095 
L 289.998683 312.549122 
L 290.856481 312.51095 
L 291.009659 310.274099 
L 291.040295 310.538246 
L 291.254744 311.602468 
L 291.270062 311.633005 
L 291.42324 307.606672 
L 291.438558 307.840282 
L 291.668325 311.323052 
L 291.898092 311.971968 
L 292.18913 312.213212 
L 292.510804 312.246803 
L 292.587393 312.138396 
L 292.648665 312.187256 
L 292.939703 312.268179 
L 292.955021 312.184202 
L 293.123517 309.493873 
L 293.200106 309.741224 
L 293.720911 311.90784 
L 294.77784 312.411704 
L 295.007607 312.434607 
L 295.237375 312.402543 
L 295.344599 312.356737 
L 295.359917 312.365898 
L 295.911358 312.475832 
L 296.432164 312.338415 
L 296.73852 312.35521 
L 296.830427 311.946012 
L 296.87638 311.987237 
L 297.427821 312.333834 
L 297.626953 312.384221 
L 297.963945 312.430027 
L 298.101805 312.362845 
L 298.270301 308.942676 
L 298.377526 310.005371 
L 298.591975 311.578038 
L 298.791107 311.802487 
L 299.296594 312.124654 
L 299.32723 311.848292 
L 299.434455 310.469537 
L 299.480408 310.562675 
L 299.832718 311.862034 
L 299.848035 311.82539 
L 299.878671 310.397774 
L 299.970578 310.752006 
L 300.001214 310.687878 
L 300.031849 310.826822 
L 300.292252 311.868142 
L 300.552655 312.182675 
L 301.042825 312.37506 
L 301.088778 311.843712 
L 301.165367 310.358076 
L 301.241956 310.646653 
L 301.517677 311.894098 
L 301.885304 312.225427 
L 302.314203 312.393382 
L 303.217954 312.503316 
L 303.631535 312.521638 
L 303.891937 312.512477 
L 307.537576 312.622411 
L 308.916179 312.652948 
L 309.207218 312.649895 
L 309.590163 312.58424 
L 309.743341 308.159396 
L 309.81993 309.736644 
L 310.034379 311.54292 
L 310.264146 312.077322 
L 310.325418 312.112439 
L 310.340736 312.048311 
L 310.463278 311.048217 
L 310.524549 311.112345 
L 310.830905 311.894098 
L 310.876859 311.950592 
L 310.907495 309.481658 
L 311.030037 306.46 
L 311.045355 306.527181 
L 311.183215 308.762506 
L 311.397664 311.374966 
L 311.627432 311.982656 
L 312.117602 312.3262 
L 313.143895 312.454456 
L 313.189848 312.368952 
L 313.266437 312.416285 
L 313.557476 312.503316 
L 313.695336 312.454456 
L 313.894468 312.494155 
L 313.940421 312.40407 
L 314.01701 312.451403 
L 314.461227 312.549122 
L 314.752265 312.45751 
L 314.813536 311.41161 
L 314.890125 309.834363 
L 314.951396 310.274099 
L 315.181164 311.784164 
L 315.456884 312.124654 
L 315.732605 312.271233 
L 315.76324 312.220847 
L 315.885783 312.271233 
L 316.529131 312.2239 
L 316.651673 312.21932 
L 316.850805 312.274287 
L 317.647331 312.475832 
L 320.082863 312.55981 
L 320.205405 310.014532 
L 320.281994 310.805446 
L 320.481126 311.877303 
L 320.772164 312.271233 
L 321.476784 312.306351 
L 321.538055 311.987237 
L 321.798458 310.2344 
L 321.829093 310.333646 
L 322.212039 311.85898 
L 322.640937 312.233061 
L 323.100472 312.262072 
L 323.314921 312.120074 
L 323.360874 311.132195 
L 323.498735 307.737982 
L 323.514052 307.777681 
L 323.590641 308.464768 
L 323.866362 311.376492 
L 324.111447 311.930743 
L 324.356532 312.11702 
L 324.739477 312.283448 
L 325.428779 312.37506 
L 326.33253 312.346049 
L 326.47039 309.431271 
L 326.562297 310.219132 
L 326.792064 311.637586 
L 327.037149 312.057472 
L 327.358823 312.246803 
L 328.890604 312.439188 
L 331.984802 312.332307 
L 332.168615 312.199471 
L 332.337111 312.231535 
L 332.689421 312.307878 
L 332.934506 312.347576 
L 333.776985 312.45751 
L 334.221202 312.478886 
L 334.359062 312.370479 
L 334.51224 312.338415 
L 334.818596 312.156718 
L 334.895186 311.446728 
L 335.00241 309.461808 
L 335.033046 309.559528 
L 335.35472 311.790272 
L 335.615123 312.147557 
L 336.549509 312.402543 
L 339.107583 312.512477 
L 339.597753 312.512477 
L 345.326614 312.27276 
L 345.372568 312.017774 
L 345.510428 308.727388 
L 345.602335 309.863373 
L 345.84742 311.689499 
L 346.138458 312.106332 
L 346.506086 312.289555 
L 346.705217 312.3262 
L 347.180069 312.388801 
L 347.501743 312.415369 
L 350.167042 311.733778 
L 350.320221 306.085264 
L 350.39681 308.086107 
L 350.580623 311.087916 
L 350.871662 311.903259 
L 351.086111 311.920055 
L 352.464714 312.353683 
L 352.556621 312.252911 
L 352.63321 311.025314 
L 352.755752 308.432704 
L 352.801706 308.806785 
L 353.353147 311.952119 
L 353.736092 312.222373 
L 354.655161 312.208632 
L 354.915564 311.857454 
L 354.930881 311.868142 
L 356.845608 312.335361 
L 356.922197 312.106332 
L 357.075375 311.56735 
L 357.121328 311.622317 
L 357.672769 312.155192 
L 357.933172 312.252911 
L 358.162939 312.29719 
L 358.377389 312.312458 
L 359.786627 312.349103 
L 360.016394 312.304824 
L 360.169573 312.171987 
L 360.322751 312.14603 
L 360.858874 312.294136 
L 361.502222 312.336888 
L 361.915803 312.384221 
L 362.176206 312.338415 
L 362.298748 311.301676 
L 362.390655 311.029895 
L 362.436608 311.106238 
L 362.880825 312.113966 
L 363.202499 312.254438 
L 363.493537 312.304824 
L 364.504513 312.397962 
L 364.795551 312.423919 
L 365.22445 312.437661 
L 366.34265 312.440715 
L 366.403921 312.358264 
L 366.572417 309.922921 
L 366.710278 310.28326 
L 367.016634 311.802487 
L 367.231083 311.976549 
L 367.598711 312.196417 
L 367.81316 312.289555 
L 371.014582 312.501789 
L 371.305621 312.500262 
L 371.841744 312.399489 
L 372.086829 312.359791 
L 372.393185 312.35063 
L 372.515728 310.622223 
L 372.607635 311.155098 
L 372.822084 311.863561 
L 373.12844 312.191836 
L 373.450114 312.298716 
L 373.465432 312.233061 
L 373.587974 308.402167 
L 373.679881 309.452647 
L 373.924966 311.648274 
L 374.170051 312.017774 
L 374.24664 312.058999 
L 374.261958 312.043731 
L 374.338547 310.125993 
L 374.399818 309.725955 
L 374.445772 310.110724 
L 374.644903 311.307784 
L 374.889988 311.810121 
L 374.905306 311.697133 
L 375.012531 309.539678 
L 375.058484 309.956512 
L 375.272934 311.561243 
L 375.288251 311.593307 
L 375.318887 309.611441 
L 375.426112 305.172856 
L 375.456747 305.675193 
L 375.747786 311.208538 
L 375.962235 311.768896 
L 376.421769 312.210159 
L 376.437087 312.181148 
L 376.55963 309.44654 
L 376.651536 310.579471 
L 376.865986 311.729197 
L 377.141706 312.098698 
L 377.172342 312.118547 
L 377.202978 310.04965 
L 377.294885 305.91491 
L 377.32552 306.463053 
L 377.555287 311.365804 
L 377.81569 312.033043 
L 378.183318 312.249857 
L 378.259907 312.236115 
L 378.290542 312.255964 
L 378.734759 312.356737 
L 379.730416 312.323146 
L 379.852959 311.469631 
L 379.91423 311.585672 
L 380.235904 312.161299 
L 380.848617 312.402543 
L 381.078384 312.30177 
L 381.231562 312.284975 
L 382.564211 312.445295 
L 382.809296 312.455983 
L 383.115652 312.489574 
L 383.759 312.533853 
L 384.157264 312.539961 
L 387.925445 312.466671 
L 388.002034 311.897152 
L 388.201165 309.635871 
L 388.277755 310.310743 
L 388.538157 311.860507 
L 388.737289 311.999452 
L 388.783242 312.007086 
L 388.79856 311.971968 
L 388.859831 311.417718 
L 388.921103 310.872628 
L 388.982374 311.187162 
L 389.258094 311.999452 
L 389.732947 312.356737 
L 390.238434 312.37506 
L 390.360977 309.550366 
L 390.437566 310.507708 
L 390.682651 311.892571 
L 390.943054 312.246803 
L 391.38727 312.425446 
L 392.076571 312.520111 
L 392.398246 312.451403 
L 392.428881 312.031516 
L 392.474835 310.173326 
L 392.551424 310.790178 
L 392.949687 312.110913 
L 392.965004 311.845239 
L 393.041594 312.202524 
L 393.409221 312.417812 
L 393.761531 312.442241 
L 395.078862 312.475832 
L 395.140134 311.828443 
L 395.369901 308.480037 
L 395.385219 308.512101 
L 395.461808 309.666408 
L 395.660939 311.564296 
L 395.890706 311.971968 
L 396.258334 312.24833 
L 396.442147 306.408086 
L 396.503419 306.80049 
L 396.825093 311.487953 
L 396.962953 311.597887 
L 396.978271 311.585672 
L 397.391852 311.544447 
L 397.744161 312.407124 
L 397.790115 312.387274 
L 398.096471 312.465144 
L 398.510052 312.512477 
L 398.892997 312.286502 
L 398.938951 311.628424 
L 399.061493 309.376304 
L 399.076811 309.496926 
L 399.306578 311.695606 
L 399.597616 312.226954 
L 400.087786 312.439188 
L 400.13374 312.123127 
L 400.225647 310.353495 
L 400.378825 305.791234 
L 400.424778 306.218755 
L 400.823041 311.539867 
L 400.868995 311.658962 
L 400.89963 311.527652 
L 401.022173 309.554947 
L 401.083444 309.964146 
L 401.328529 311.378019 
L 401.558296 311.918528 
L 401.788063 312.262072 
L 402.048466 312.323146 
L 402.829674 312.520111 
L 403.120713 312.547595 
L 403.365798 312.529273 
L 403.84065 312.51095 
L 403.871285 312.394909 
L 403.947875 312.465144 
L 404.284866 312.567444 
L 404.759718 312.601035 
L 405.020121 312.614777 
L 405.280524 312.622411 
L 405.786012 312.659056 
L 412.433941 312.76899 
L 412.709662 312.784258 
L 414.241443 312.831591 
L 414.501846 312.842279 
L 415.727271 312.732345 
L 415.80386 312.303297 
L 415.849813 312.356737 
L 416.140852 312.552175 
L 416.585068 312.61325 
L 416.768882 312.659056 
L 417.458183 312.549122 
L 417.519454 312.515531 
L 417.534772 312.541487 
L 417.580726 312.178094 
L 417.657315 312.306351 
L 417.887082 312.533853 
L 418.637655 312.71555 
L 419.005282 312.74456 
L 419.219731 312.776624 
L 419.388227 312.761355 
L 419.464816 312.09259 
L 419.51077 312.2239 
L 419.740537 312.561337 
L 420.077529 312.6957 
L 423.294269 312.918622 
L 423.432129 312.652948 
L 423.478083 312.683486 
L 423.615943 312.732345 
L 423.631261 312.675546 
L 423.646579 312.437661 
L 423.738485 312.558283 
L 423.906981 312.550649 
L 424.029524 312.549122 
L 424.136749 312.56439 
L 424.228655 311.703241 
L 424.305244 311.784164 
L 424.580965 312.417812 
L 425.009864 312.526219 
L 425.729801 312.6957 
L 427.184993 312.732345 
L 427.230946 312.718603 
L 427.2769 312.527746 
L 427.353489 312.597981 
L 427.55262 312.636153 
L 427.613891 312.562863 
L 427.705798 311.257397 
L 427.828341 311.813175 
L 428.073426 312.359791 
L 428.349146 312.527746 
L 429.145673 312.651421 
L 431.075717 312.733872 
L 431.336119 312.723184 
L 431.596522 312.732345 
L 432.622815 312.840752 
L 432.883218 312.869763 
L 434.231186 312.979697 
L 434.491588 313.00718 
L 435.31875 312.92931 
L 435.487246 312.216266 
L 435.502564 312.185729 
L 435.548517 312.27276 
L 435.762967 312.55981 
L 436.054005 312.656002 
L 437.06498 312.750667 
L 437.386654 312.76899 
L 437.708328 312.787312 
L 437.922778 312.787312 
L 439.286063 312.897246 
L 439.607737 312.914042 
L 439.699644 312.775097 
L 439.791551 311.976549 
L 439.898775 312.24833 
L 440.220449 312.520111 
L 440.664666 312.61783 
L 441.353967 312.712496 
L 442.701935 312.814796 
L 442.962337 312.842279 
L 444.157127 312.733872 
L 444.264351 312.497208 
L 444.294987 312.518584 
L 444.524754 312.547595 
L 445.04556 312.640733 
L 446.607976 312.750667 
L 446.899015 312.778151 
L 448.446114 312.888085 
L 451.494358 313.080469 
L 453.072092 313.190403 
L 453.546944 313.217887 
L 454.098386 313.21636 
L 456.733049 313.106426 
L 457.100676 312.324673 
L 457.223219 311.571931 
L 457.269172 311.643693 
L 457.299808 311.617736 
L 457.345761 311.710875 
L 457.529575 312.036096 
L 457.544893 312.016247 
L 457.606164 310.736738 
L 457.728707 309.244994 
L 457.77466 309.26179 
L 457.789978 309.225145 
L 457.835931 309.33966 
L 458.295466 312.065107 
L 458.709046 312.37964 
L 459.03072 312.468198 
L 459.597479 312.576605 
L 462.370003 312.466671 
L 462.676359 312.488047 
L 463.166529 312.567444 
L 466.367952 312.50637 
L 466.52113 311.689499 
L 466.582401 311.782637 
L 466.904075 312.226954 
L 467.378927 312.451403 
L 467.516787 312.077322 
L 467.63933 311.312364 
L 467.669965 311.350536 
L 468.26736 312.306351 
L 468.941344 312.521638 
L 470.427171 312.437661 
L 470.626303 311.321525 
L 470.702892 311.443674 
L 471.101155 312.188782 
L 471.560689 312.414758 
L 471.790456 312.478886 
L 472.449122 312.570498 
L 472.571665 312.503316 
L 472.586983 312.51095 
L 474.471073 312.590347 
L 474.792747 312.576605 
L 476.3858 312.567444 
L 476.416435 312.402543 
L 476.493024 312.480413 
L 476.79938 312.61325 
L 477.366139 312.668217 
L 477.534635 312.590347 
L 477.565271 312.466671 
L 477.64186 312.521638 
L 477.917581 312.631572 
L 480.521608 312.523165 
L 480.812647 311.970441 
L 481.119003 312.243749 
L 481.134321 312.222373 
L 481.180274 310.825295 
L 481.287499 308.686774 
L 481.318135 308.852591 
L 481.639809 311.25129 
L 481.884893 311.889518 
L 482.19125 312.130762 
L 483.079683 312.452929 
L 483.370721 312.269706 
L 483.569853 311.40703 
L 483.661759 311.59178 
L 483.998751 312.097171 
L 484.397014 312.338415 
L 488.548141 312.640733 
L 490.003333 312.562863 
L 490.033969 312.249857 
L 490.171829 308.677002 
L 490.202465 308.89687 
L 490.447549 311.56735 
L 490.677317 312.075795 
L 491.060262 312.309405 
L 491.581067 312.401016 
L 491.964013 312.362845 
L 492.009966 311.759735 
L 492.178462 307.742563 
L 492.224415 308.42965 
L 492.454183 311.553608 
L 492.68395 312.083429 
L 493.066895 312.310931 
L 493.327298 312.338415 
L 493.633654 312.448349 
L 493.94001 312.503316 
L 495.364567 312.61325 
L 497.218022 312.686539 
L 497.417153 312.704862 
L 497.937959 312.6957 
L 500.082452 312.594928 
L 500.143723 312.48652 
L 500.266266 311.767369 
L 500.296902 311.82997 
L 500.388808 312.069687 
L 500.434762 311.978076 
L 500.541986 311.828443 
L 500.58794 311.753627 
L 500.649211 311.857454 
L 500.848343 312.155192 
L 500.86366 312.149084 
L 502.579255 312.550649 
L 503.115379 312.607142 
L 503.697455 312.61783 
L 503.743409 312.526219 
L 503.819998 312.565917 
L 506.301483 312.704862 
L 506.960149 312.686539 
L 507.23587 312.610196 
L 507.281823 311.648274 
L 507.435001 307.531856 
L 507.480955 307.789896 
L 507.802629 311.631478 
L 507.848582 311.023787 
L 507.955807 308.873967 
L 508.00176 309.24194 
L 508.262163 311.504749 
L 508.522566 311.793325 
L 508.752333 312.040677 
L 508.798286 312.115493 
L 508.813604 312.03457 
L 509.043371 308.586917 
L 509.089325 308.873967 
L 509.319092 310.816134 
L 509.533541 311.811648 
L 509.732673 312.036096 
L 509.931804 312.089537 
L 510.513881 312.35063 
L 510.682377 312.494155 
L 511.08064 312.448349 
L 511.310407 312.50637 
L 511.325725 312.478886 
L 511.371678 312.43308 
L 511.43295 312.466671 
L 511.769941 312.539961 
L 513.699986 312.649895 
L 514.036977 312.668217 
L 517.468167 312.605616 
L 517.544756 309.735117 
L 517.621345 310.697039 
L 517.820477 311.904786 
L 518.050244 312.251384 
L 518.3566 312.448349 
L 518.892723 312.601035 
L 519.321622 312.622411 
L 519.536071 312.599508 
L 519.643296 312.608669 
L 519.96497 312.601035 
L 520.547047 312.420865 
L 521.021899 312.567444 
L 522.798765 312.643787 
L 523.273617 312.659056 
L 523.595291 312.6957 
L 524.51436 312.599508 
L 524.65222 312.585766 
L 525.188343 312.681959 
L 526.352497 312.626992 
L 526.551628 311.807067 
L 526.628217 310.639018 
L 526.689489 310.774909 
L 527.057116 312.129235 
L 527.470697 312.462091 
L 529.033114 312.665163 
L 529.630508 312.659056 
L 531.162289 312.654475 
L 531.238878 309.84047 
L 531.346103 310.568783 
L 531.57587 311.82539 
L 531.851591 312.257491 
L 532.157947 312.344522 
L 532.403032 312.291082 
L 532.525574 311.82539 
L 532.617481 311.884937 
L 533.000427 312.268179 
L 533.077016 312.30177 
L 533.107651 312.213212 
L 533.260829 311.613156 
L 533.276147 311.626898 
L 533.551868 312.091063 
L 534.241169 312.475832 
L 535.00706 312.512477 
L 535.129602 306.325636 
L 535.175556 306.895155 
L 535.435958 311.310837 
L 535.696361 312.083429 
L 535.9874 312.347576 
L 536.446934 312.494155 
L 536.692019 312.452929 
L 536.783926 310.868048 
L 536.921786 311.32916 
L 537.166871 311.979603 
L 537.565134 312.346049 
L 538.254436 312.565917 
L 538.959055 312.550649 
L 539.066279 312.536907 
L 539.449225 312.63768 
L 539.939395 312.604089 
L 540.628696 312.698754 
L 541.118866 312.714023 
L 543.89139 312.823957 
L 544.105839 312.814796 
L 545.101497 312.823957 
L 545.806116 312.85144 
L 545.882705 312.790366 
L 545.913341 312.173514 
L 546.051201 307.174571 
L 546.112472 308.597605 
L 546.189061 310.542826 
L 546.235015 309.298434 
L 546.326922 308.428124 
L 546.357557 308.600659 
L 546.633278 311.371912 
L 546.908998 311.564296 
L 546.939634 311.51849 
L 547.046859 311.43604 
L 547.062176 311.449782 
L 547.291944 311.67423 
L 547.5983 311.477265 
L 547.644253 311.207011 
L 547.720842 309.525937 
L 547.766796 309.997737 
L 547.935292 310.606954 
L 548.410144 311.66965 
L 548.7165 312.437661 
L 548.976903 312.533853 
L 549.267941 312.558283 
L 549.513026 312.61783 
L 550.18701 312.657529 
L 550.554637 312.685012 
L 551.626884 312.689593 
L 551.810698 312.6957 
L 553.26589 312.63768 
L 553.40375 309.909179 
L 553.480339 310.895531 
L 553.710106 311.765842 
L 553.878602 312.040677 
L 553.955191 307.409707 
L 554.016462 308.651045 
L 554.215594 310.945918 
L 554.276865 310.987143 
L 554.322819 310.945918 
L 554.52195 310.758114 
L 554.644493 310.900112 
L 554.782353 311.43604 
L 555.058073 312.492628 
L 555.272523 312.539961 
L 555.747375 312.614777 
L 556.34477 312.663636 
L 556.788986 312.685012 
L 558.106318 312.723184 
L 569.273001 313.132383 
L 569.42618 313.159866 
L 570.207388 313.19193 
L 570.804782 313.202618 
L 571.126457 313.220941 
L 571.417495 313.243844 
L 572.979912 313.34309 
L 573.148407 313.369046 
L 573.485399 313.379734 
L 574.925273 313.462185 
L 575.047816 313.491195 
L 580.577545 313.593495 
L 580.761359 313.620978 
L 581.006444 313.619451 
L 581.266847 313.628613 
L 582.032737 313.596548 
L 582.216551 313.596548 
L 582.92117 313.625559 
L 583.242844 313.643881 
L 583.978099 313.677472 
L 584.008735 313.599602 
L 584.299773 312.662109 
L 584.345727 312.677378 
L 584.943121 312.686539 
L 585.540516 312.61325 
L 585.984733 312.672797 
L 586.030686 312.649895 
L 586.107275 312.422392 
L 586.153228 312.514004 
L 586.183864 312.51095 
L 586.199182 312.416285 
L 586.245135 312.312458 
L 586.306407 312.359791 
L 586.735305 312.631572 
L 587.011026 312.660583 
L 587.210157 312.669744 
L 587.455242 312.649895 
L 588.573442 312.762882 
L 589.017659 312.787312 
L 589.5691 312.709442 
L 589.645689 312.585766 
L 589.691643 312.611723 
L 590.028634 312.567444 
L 590.212448 312.604089 
L 590.580076 312.6957 
L 590.855796 312.718603 
L 591.483826 312.483467 
L 591.728911 311.955173 
L 591.836136 311.694079 
L 591.88209 311.770423 
L 592.234399 312.349103 
L 592.78584 312.503316 
L 593.291328 312.61325 
L 593.49046 312.61783 
L 593.505777 312.565917 
L 593.643638 312.530799 
L 594.087854 312.640733 
L 594.363575 312.659056 
L 596.584657 312.553702 
L 596.98292 312.401016 
L 597.886671 312.509423 
L 598.361523 312.585766 
L 598.958918 312.633099 
L 599.173367 312.63768 
L 599.694173 312.549122 
L 602.037798 312.45751 
L 602.068433 312.372006 
L 602.145022 312.466671 
L 602.757735 312.576605 
L 603.462354 312.610196 
L 603.860617 312.604089 
L 604.9635 312.494155 
L 605.223902 312.439188 
L 606.066382 312.494155 
L 609.497571 312.40407 
L 609.528207 312.346049 
L 609.604796 312.37964 
L 610.462593 312.521638 
L 627.189642 312.43308 
L 627.312185 312.315512 
L 627.69513 312.631572 
L 627.848308 312.660583 
L 632.704054 312.651421 
L 632.811279 311.461997 
L 632.949139 311.742939 
L 633.240177 312.269706 
L 633.684394 312.484994 
L 634.695369 312.594928 
L 635.032361 312.619357 
L 635.246811 312.649895 
L 635.997383 312.686539 
L 639.152852 312.582713 
L 639.336666 311.775003 
L 639.382619 311.880357 
L 639.597069 312.173514 
L 640.025967 312.411704 
L 640.362959 312.484994 
L 641.098214 312.594928 
L 641.940694 312.672797 
L 644.62131 312.581186 
L 644.774489 310.248142 
L 644.83576 310.41915 
L 645.126798 311.947538 
L 645.448472 312.230008 
L 645.938642 312.402543 
L 646.275634 312.512477 
L 646.58199 312.533853 
L 646.735168 312.446822 
L 647.899322 312.460564 
L 648.067818 312.411704 
L 648.527352 312.521638 
L 649.52301 312.630045 
L 649.630234 312.284975 
L 649.691506 311.944485 
L 649.752777 311.970441 
L 650.840341 312.594928 
L 652.11172 312.61783 
L 652.264898 311.823863 
L 652.341487 311.199376 
L 652.38744 311.336794 
L 652.632525 311.982656 
L 653.046106 312.310931 
L 653.888586 312.448349 
L 654.240895 312.556756 
L 655.496956 312.694174 
L 655.742041 312.6957 
L 660.046346 312.593401 
L 660.184206 312.521638 
L 660.705011 312.611723 
L 660.750965 312.459037 
L 661.026685 305.508765 
L 661.087957 306.615739 
L 661.13391 308.005183 
L 665.744571 312.556756 
L 665.775207 312.477359 
L 665.82116 312.03457 
L 665.836478 311.633005 
L 665.928385 312.06816 
L 666.17347 312.411704 
L 666.847453 312.596454 
L 666.893407 311.094023 
L 666.954678 309.913759 
L 667.000631 310.689405 
L 667.184445 311.9567 
L 667.444848 312.333834 
L 667.858429 312.504843 
L 667.965653 312.335361 
L 668.210738 308.927407 
L 668.27201 309.706106 
L 668.40987 311.194796 
L 668.440506 311.098604 
L 668.517095 310.587105 
L 668.578366 310.846672 
L 668.685591 311.336794 
L 668.731544 311.129141 
L 668.792815 310.707727 
L 668.869404 310.758114 
L 668.976629 310.860413 
L 669.282985 311.894098 
L 669.742519 312.196417 
L 670.355232 312.494155 
L 670.799448 312.558283 
L 670.99858 312.126181 
L 671.029216 311.439094 
L 671.105805 311.833024 
L 671.167076 311.993344 
L 671.167076 311.993344 
" clip-path="url(#p1083a7cee1)" style="fill: none; stroke: #1f77b4; stroke-width: 1.5; stroke-linecap: square"/>
   </g>
   <g id="line2d_19">
    <path d="M 63.662718 312.422392 
L 64.872825 311.861802 
L 65.914436 311.138213 
L 66.159521 310.880023 
L 66.343335 309.981241 
L 66.358653 309.990863 
L 66.450559 310.508678 
L 66.634373 310.933533 
L 66.818187 310.875956 
L 67.35431 310.353838 
L 68.181472 309.29307 
L 68.349968 308.867749 
L 68.533782 308.76811 
L 68.855456 308.268779 
L 69.621346 306.645225 
L 70.417872 304.426437 
L 71.214398 301.515123 
L 72.010925 297.718872 
L 72.746179 293.144628 
L 73.129125 290.533745 
L 73.757155 285.316236 
L 74.783448 274.536881 
L 75.717835 262.01262 
L 76.698174 245.356053 
L 77.831692 222.047672 
L 79.363473 185.438752 
L 81.952183 123.532921 
L 83.085701 101.600642 
L 84.14263 84.844995 
L 85.12297 72.663564 
L 86.072674 63.514791 
L 87.129603 56.294764 
L 88.033354 51.52651 
L 88.814562 48.578118 
L 89.994034 48.4189 
L 90.851831 45.862514 
L 91.663675 44.085654 
L 92.552108 42.603636 
L 93.471177 41.490545 
L 94.053254 40.960811 
L 96.841095 40.87989 
L 97.009591 40.32458 
L 97.070862 40.422744 
L 97.315947 40.917936 
L 97.561032 40.814091 
L 97.622303 40.670893 
L 97.775482 40.498061 
L 97.913342 40.593178 
L 97.92866 40.603191 
L 97.959295 40.522553 
L 98.127791 39.314542 
L 98.219698 39.635243 
L 98.510736 41.217038 
L 98.69455 41.566433 
L 98.893682 41.459599 
L 100.211013 40.47459 
L 101.482392 39.787263 
L 104.147691 39.102966 
L 106.368773 38.856969 
L 106.445362 38.763117 
L 106.567905 38.660667 
L 106.690447 38.725615 
L 106.935532 38.928282 
L 108.252864 38.946097 
L 109.447653 38.778281 
L 109.646785 37.347293 
L 109.662102 37.4014 
L 110.136954 40.411658 
L 110.473946 40.337825 
L 110.719031 40.302869 
L 111.484922 39.844124 
L 111.607464 39.717804 
L 111.730007 39.779266 
L 111.944456 39.831504 
L 112.572486 39.63139 
L 114.303399 39.226861 
L 115.20715 39.067828 
L 116.846155 38.950202 
L 118.91406 38.641135 
L 119.05192 38.399711 
L 119.067238 38.403545 
L 119.113191 38.287192 
L 119.159145 38.401361 
L 119.54209 39.290734 
L 119.817811 39.296718 
L 120.246709 39.156083 
L 120.415205 38.880248 
L 120.491794 38.942841 
L 120.874739 39.362833 
L 121.441498 39.256297 
L 123.187729 38.779169 
L 123.294954 38.408975 
L 123.38686 38.553887 
L 123.73917 39.408355 
L 124.09148 39.373951 
L 126.006206 39.032418 
L 126.46574 39.008716 
L 127.492034 38.842746 
L 127.568623 38.410669 
L 127.645212 38.419699 
L 127.706483 38.526988 
L 127.966886 39.218179 
L 128.242606 39.233135 
L 128.472373 39.138813 
L 128.594916 39.067665 
L 128.748094 39.15143 
L 129.023815 39.178775 
L 129.391442 39.054272 
L 129.575256 38.552691 
L 129.590574 38.498646 
L 129.636527 38.725334 
L 129.89693 39.572785 
L 130.096061 39.642835 
L 130.66282 39.459687 
L 130.831316 39.393323 
L 130.953859 39.342055 
L 131.076401 39.271812 
L 131.198944 39.337905 
L 131.444029 39.405939 
L 132.746043 39.134841 
L 133.037081 38.993544 
L 133.159623 38.82028 
L 133.25153 38.915055 
L 133.435344 39.193686 
L 133.450662 39.183676 
L 133.588522 39.121172 
L 133.772336 39.22651 
L 134.09401 39.218211 
L 136.606131 38.884424 
L 137.831556 38.836858 
L 137.923462 37.963281 
L 137.984734 37.979108 
L 138.030687 38.028665 
L 138.061323 38.290548 
L 141.002342 38.509553 
L 141.339334 39.937213 
L 141.523148 40.014048 
L 142.059271 39.803058 
L 142.35031 39.603157 
L 142.48817 39.465341 
L 142.595395 39.560485 
L 142.809844 39.653606 
L 143.146836 39.571333 
L 143.315332 39.2452 
L 143.376603 39.32932 
L 143.591052 39.61936 
L 143.897408 39.573146 
L 144.877748 39.234219 
L 145.030926 38.951795 
L 145.107515 39.041954 
L 145.337283 39.432182 
L 145.643639 39.407091 
L 146.777157 39.19806 
L 146.82311 38.532013 
L 146.915017 38.541239 
L 146.976288 38.581654 
L 147.221373 39.67321 
L 147.420505 39.722749 
L 148.354891 39.432956 
L 148.630612 39.357612 
L 149.013557 39.235996 
L 149.1361 39.109829 
L 149.258642 39.19148 
L 149.488409 39.285324 
L 150.484067 39.227727 
L 150.621927 38.917493 
L 150.698516 38.977964 
L 150.821059 39.27864 
L 150.851694 39.210762 
L 150.88233 38.917756 
L 150.928283 38.958824 
L 151.142733 39.077629 
L 151.3725 39.626191 
L 151.586949 39.655606 
L 152.13839 39.444584 
L 152.276251 39.13927 
L 152.35284 39.236968 
L 152.567289 39.602337 
L 152.84301 39.574144 
L 155.171317 39.5346 
L 155.324495 39.136156 
L 155.385766 39.213764 
L 155.615533 39.718476 
L 155.768711 39.438264 
L 155.875936 39.505245 
L 156.105703 39.812044 
L 156.33547 39.807396 
L 157.346446 39.462479 
L 159.291808 39.345729 
L 159.429668 39.229877 
L 159.674753 39.292736 
L 160.134287 39.227845 
L 160.961449 38.961447 
L 160.992085 38.926984 
L 161.068674 38.992343 
L 161.298441 39.187196 
L 161.313759 39.079428 
L 161.451619 38.78344 
L 161.482255 38.691915 
L 161.528208 38.839667 
L 161.803929 39.53742 
L 162.033696 39.565007 
L 162.140921 39.531788 
L 162.21751 38.582264 
L 162.294099 38.599904 
L 162.340052 38.658268 
L 162.63109 40.269972 
L 162.814904 40.28591 
L 162.906811 40.264956 
L 163.090625 39.35178 
L 163.105943 39.36979 
L 163.565477 40.629487 
L 163.96374 40.410305 
L 164.407956 40.035294 
L 164.561135 39.660198 
L 164.576452 39.666633 
L 164.668359 39.887781 
L 164.867491 40.21421 
L 165.112576 40.152755 
L 166.843488 39.459487 
L 166.996666 39.332896 
L 167.088573 38.195309 
L 167.211116 38.33633 
L 167.303023 39.330141 
L 167.502154 40.338671 
L 167.685968 40.394053 
L 167.977006 40.250707 
L 168.896075 40.128986 
L 169.27902 40.006977 
L 169.49347 39.699465 
L 169.600694 39.520736 
L 169.63133 39.540491 
L 170.014275 40.146775 
L 170.044911 39.943833 
L 170.167453 39.849594 
L 170.213407 39.793749 
L 170.25936 39.906021 
L 170.335949 39.99814 
L 170.688259 40.350537 
L 171.10184 40.155369 
L 172.3579 39.607535 
L 173.859045 39.208377 
L 175.268284 38.816806 
L 175.329555 38.720266 
L 175.390826 38.798484 
L 175.819725 39.167109 
L 176.754112 39.020789 
L 177.091103 38.999823 
L 179.802356 38.721446 
L 179.955534 38.709318 
L 180.369115 38.829179 
L 180.568246 38.73332 
L 180.721424 38.409981 
L 180.88992 38.537366 
L 181.150323 39.088054 
L 181.533268 39.290766 
L 181.7324 39.218123 
L 181.87026 39.013974 
L 181.962167 39.124478 
L 182.207252 39.327063 
L 182.283841 39.332018 
L 186.006069 39.217084 
L 187.936113 38.941975 
L 188.196516 39.007986 
L 189.896793 38.829554 
L 190.218467 38.650765 
L 190.708637 39.020323 
L 191.060946 38.930381 
L 191.183489 38.844726 
L 191.336667 38.933887 
L 191.566434 39.034915 
L 191.59707 38.994265 
L 191.612388 39.013806 
L 201.017523 38.89013 
L 201.063477 38.678512 
L 201.140066 38.68568 
L 201.216655 38.777699 
L 201.431104 39.199571 
L 201.645553 39.294695 
L 202.44208 39.151057 
L 204.54062 38.888372 
L 205.628184 38.691496 
L 205.781362 38.27544 
L 205.842633 38.392045 
L 206.194943 39.213391 
L 206.593206 39.191805 
L 208.293483 38.995834 
L 210.48393 38.728128 
L 210.575837 38.469492 
L 210.667744 38.266323 
L 210.698379 38.314972 
L 211.203867 39.289686 
L 212.061664 39.121563 
L 212.23016 38.456031 
L 212.276114 38.517456 
L 212.72033 39.568971 
L 213.287089 39.424655 
L 213.486221 39.272212 
L 213.639399 38.739614 
L 213.746624 38.918126 
L 214.068298 39.708707 
L 214.389972 39.64313 
L 215.998342 39.220948 
L 216.197473 39.074771 
L 216.274062 38.848185 
L 216.473194 38.440702 
L 216.595736 38.774266 
L 217.039953 40.055581 
L 217.392262 39.933592 
L 218.633005 39.495176 
L 218.908726 39.482772 
L 219.01595 39.456188 
L 219.153811 39.11186 
L 219.2304 39.179987 
L 219.460167 39.574502 
L 219.751205 39.541121 
L 221.374893 39.195105 
L 222.93731 39.005311 
L 226.000872 38.708871 
L 226.123414 38.263995 
L 226.184686 38.329166 
L 226.628902 39.439933 
L 227.180343 39.323181 
L 227.609242 39.123294 
L 227.777738 38.92622 
L 227.793056 38.942503 
L 228.237272 39.418323 
L 228.558946 39.387038 
L 229.079752 39.259761 
L 230.672804 39.15727 
L 230.856618 38.986786 
L 231.576555 39.133627 
L 232.036089 39.016658 
L 232.158632 38.91215 
L 232.281174 39.015354 
L 232.510941 39.132512 
L 233.29215 39.03129 
L 235.497914 38.845413 
L 237.106284 38.725194 
L 237.213509 38.141395 
L 237.259462 38.150846 
L 237.305416 38.211904 
L 237.581136 39.277029 
L 237.810904 39.31665 
L 238.239802 39.148357 
L 238.423616 38.909017 
L 238.438934 38.930212 
L 238.867833 39.305997 
L 239.189507 39.359584 
L 242.130526 38.929864 
L 242.421565 38.798435 
L 242.59006 38.562073 
L 242.697285 38.713548 
L 243.095548 39.119701 
L 243.248726 39.070572 
L 244.826461 38.829071 
L 244.872414 38.680648 
L 244.949003 38.71536 
L 245.04091 38.8855 
L 245.255359 39.250116 
L 245.546398 39.249666 
L 246.64928 38.942616 
L 246.771823 38.78903 
L 246.78714 38.793803 
L 246.925001 39.060349 
L 247.13945 39.211934 
L 247.690891 39.136377 
L 249.850703 38.876697 
L 250.141741 38.808614 
L 250.340872 37.88483 
L 250.402144 38.072537 
L 250.861678 39.622544 
L 251.305895 39.512687 
L 252.868311 39.151013 
L 254.017147 38.897558 
L 254.109054 38.659656 
L 254.170325 38.704209 
L 254.262232 38.878691 
L 254.491999 39.204716 
L 254.844309 39.184142 
L 256.37609 38.849979 
L 256.452679 37.410741 
L 256.559903 36.19267 
L 256.590539 36.351921 
L 256.65181 37.471035 
L 256.896895 42.171807 
L 258.398041 42.186076 
L 258.443994 41.860889 
L 258.535901 41.966265 
L 258.61249 42.092655 
L 258.704397 42.545958 
L 258.765668 42.345605 
L 259.117978 42.57947 
L 259.163931 42.510984 
L 259.332427 41.819942 
L 259.363063 41.833866 
L 259.378381 41.892091 
L 259.59283 42.465371 
L 259.791961 42.380636 
L 260.22086 41.904797 
L 260.435309 41.31673 
L 260.481263 41.427034 
L 260.665077 41.665101 
L 260.894844 41.510451 
L 262.212175 40.435697 
L 262.978066 39.886806 
L 263.100608 39.541136 
L 263.177198 39.516096 
L 263.192515 39.588061 
L 263.422282 40.137073 
L 263.621414 40.162542 
L 263.759274 40.075644 
L 263.92777 37.344679 
L 263.989041 37.715852 
L 264.080948 39.2869 
L 264.326033 43.737718 
L 264.494529 44.201428 
L 264.5558 44.069404 
L 264.724296 42.744583 
L 264.816203 43.04578 
L 264.984699 44.053631 
L 265.53614 44.210386 
L 265.658683 44.214524 
L 265.75059 43.982027 
L 265.903768 43.357417 
L 265.934403 43.278133 
L 265.995675 43.424885 
L 266.179488 43.69265 
L 273.501402 43.584166 
L 273.639262 43.256908 
L 273.685215 43.214162 
L 273.731169 43.316162 
L 273.777122 43.28076 
L 273.9303 43.023747 
L 273.960936 43.012696 
L 274.006889 43.075202 
L 274.206021 43.163018 
L 274.435788 42.90482 
L 274.497059 42.659388 
L 274.665555 41.498792 
L 274.680873 41.513788 
L 274.834051 42.449602 
L 275.017865 43.004371 
L 275.171043 42.90834 
L 276.02884 41.767179 
L 276.105429 41.237984 
L 276.212654 39.052224 
L 276.273925 39.191414 
L 276.319879 39.771455 
L 276.427103 43.214271 
L 277.162358 43.476526 
L 277.392126 45.038531 
L 277.49935 45.076757 
L 277.529986 45.048197 
L 277.805706 44.554432 
L 278.786046 42.812912 
L 279.705115 41.641403 
L 280.639501 40.590746 
L 280.670137 40.151929 
L 280.762044 40.273585 
L 280.853951 40.468135 
L 281.053082 41.011913 
L 281.313485 40.845491 
L 281.55857 40.847889 
L 282.416367 40.290505 
L 282.615499 39.778207 
L 282.630817 39.809849 
L 282.860584 40.345048 
L 283.090351 40.293947 
L 284.928488 39.508685 
L 286.414316 39.169155 
L 286.644083 39.081498 
L 286.812579 38.350783 
L 286.827897 38.361929 
L 286.919804 38.790449 
L 287.180206 39.64646 
L 287.409973 39.652465 
L 288.788576 39.267418 
L 290.427582 39.193828 
L 290.611396 38.951036 
L 290.749256 39.164743 
L 290.871799 39.252274 
L 290.887116 39.201469 
L 291.009659 39.165059 
L 291.178155 39.262698 
L 291.239426 39.306398 
L 291.346651 38.662619 
L 291.407922 38.676199 
L 291.438558 38.705473 
L 291.729596 39.818129 
L 291.959363 39.815146 
L 292.755889 39.495817 
L 292.939703 38.89109 
L 292.970339 38.928849 
L 293.000974 38.940832 
L 293.016292 38.890301 
L 293.123517 38.05984 
L 293.184788 38.337655 
L 293.292013 39.403213 
L 293.506462 40.955202 
L 293.674958 41.033464 
L 293.7975 40.873811 
L 295.007607 40.223869 
L 295.972629 39.673632 
L 296.11049 39.252018 
L 296.156443 39.149879 
L 296.187079 39.256945 
L 296.447482 39.951469 
L 296.661931 39.994749 
L 296.815109 39.706835 
L 296.845745 39.616453 
L 296.907016 39.744555 
L 297.136783 40.002544 
L 297.397186 39.949943 
L 298.101805 39.555514 
L 298.254983 39.019 
L 298.285619 39.030115 
L 298.300937 39.077614 
L 298.591975 39.800077 
L 298.607293 39.793484 
L 298.806424 39.614664 
L 298.821742 39.636234 
L 299.066827 39.897645 
L 299.32723 40.234459 
L 299.357866 40.095993 
L 299.511044 39.799061 
L 299.526361 39.809031 
L 299.664222 40.281034 
L 299.832718 40.465093 
L 299.893989 39.549079 
L 300.016531 39.415364 
L 300.062485 39.544824 
L 300.30757 41.208401 
L 300.476066 41.239597 
L 300.950918 40.871814 
L 301.07346 40.676398 
L 301.211321 40.35767 
L 301.257274 40.346272 
L 301.28791 40.418588 
L 301.502359 40.694015 
L 301.762762 40.577724 
L 303.156682 39.819629 
L 304.519968 39.365927 
L 306.450012 38.974978 
L 306.756368 39.170411 
L 307.277173 39.11558 
L 309.283807 38.917252 
L 309.590163 38.980299 
L 309.651434 38.221154 
L 309.758659 38.244349 
L 309.804612 38.338112 
L 310.065015 39.564398 
L 310.3101 39.622056 
L 310.647092 39.523135 
L 313.358344 39.237117 
L 314.338684 39.111728 
L 314.583769 38.977412 
L 314.890125 38.264778 
L 314.951396 38.411138 
L 315.533473 40.067369 
L 315.747923 40.103403 
L 316.100232 39.968206 
L 316.345317 39.711048 
L 316.406588 39.689675 
L 316.452542 39.743845 
L 316.498495 39.685666 
L 316.513813 39.612449 
L 316.60572 39.692897 
L 316.774216 39.8999 
L 316.973347 39.960131 
L 317.58606 39.730669 
L 318.84212 39.382238 
L 320.113499 39.006492 
L 320.236041 38.704692 
L 320.297312 38.715863 
L 320.31263 38.77894 
L 320.542397 39.374927 
L 320.787482 39.396248 
L 321.354241 39.194931 
L 321.568691 38.86145 
L 322.150767 39.585687 
L 322.732844 39.443473 
L 323.008565 39.288496 
L 323.146425 39.17162 
L 323.314921 39.216609 
L 323.330239 39.14399 
L 323.498735 38.624082 
L 323.514052 38.627865 
L 323.958269 39.967382 
L 324.264625 39.886503 
L 324.708842 39.710741 
L 326.577614 39.119312 
L 326.792064 39.370751 
L 327.113738 39.34831 
L 328.905922 39.060796 
L 331.234229 38.835308 
L 331.601856 38.710954 
L 331.678445 38.561787 
L 331.755034 38.638583 
L 331.770352 38.659053 
L 331.816306 38.54547 
L 331.862259 38.398699 
L 331.92353 38.468369 
L 332.061391 38.786889 
L 332.291158 39.304442 
L 332.520925 39.367635 
L 333.623807 39.147434 
L 333.776985 39.069839 
L 334.282473 38.92583 
L 334.405016 38.810955 
L 334.481605 38.902524 
L 334.619465 39.141031 
L 334.665418 39.094275 
L 334.787961 38.943521 
L 334.925821 38.524749 
L 334.956457 38.576113 
L 335.170906 39.423615 
L 335.370038 39.77127 
L 335.63044 39.736346 
L 337.606438 39.187034 
L 339.597753 38.914898 
L 345.311297 38.811422 
L 345.464475 38.254361 
L 345.541064 38.357656 
L 345.632971 38.738567 
L 345.84742 39.319643 
L 346.092505 39.353219 
L 347.501743 39.090964 
L 350.18236 38.911709 
L 350.335538 38.240458 
L 350.381492 38.333791 
L 350.749119 39.709932 
L 351.02484 39.674305 
L 352.587256 39.059968 
L 352.709799 38.72663 
L 352.786388 38.770165 
L 352.801706 38.75087 
L 352.847659 38.832189 
L 352.954884 39.142977 
L 353.26124 39.690372 
L 353.598232 39.620234 
L 354.884928 39.303642 
L 355.038106 39.291751 
L 355.819314 39.268908 
L 356.860926 38.934433 
L 357.014104 38.911106 
L 357.029421 38.930824 
L 357.351095 39.165727 
L 358.055715 39.069283 
L 359.985759 38.893008 
L 361.073323 38.833727 
L 361.226501 38.72687 
L 361.364362 38.679706 
L 361.486904 38.806252 
L 361.716671 38.873711 
L 362.160888 38.790441 
L 362.329384 38.434114 
L 362.375337 38.523565 
L 362.651058 39.209239 
L 362.911461 39.231999 
L 366.449875 38.608754 
L 366.526464 38.536656 
L 366.572417 38.562809 
L 366.679642 38.764389 
L 366.909409 39.067539 
L 367.215765 39.068276 
L 367.476168 39.038904 
L 369.023267 38.882618 
L 369.053903 38.502642 
L 369.161127 38.514512 
L 369.222398 38.55597 
L 369.452166 39.149835 
L 369.712568 39.18385 
L 371.703884 38.843803 
L 371.841744 38.741492 
L 372.36255 39.046606 
L 372.408503 38.936347 
L 372.531046 38.725524 
L 372.607635 38.792553 
L 372.837402 39.22107 
L 373.12844 39.224844 
L 373.465432 39.145529 
L 373.603292 38.459882 
L 373.633928 38.465385 
L 373.679881 38.56117 
L 373.97092 39.610976 
L 374.185369 39.613682 
L 374.216005 39.559183 
L 374.384501 38.87761 
L 374.445772 39.02179 
L 374.721492 40.009025 
L 374.889988 40.06207 
L 375.073802 39.620703 
L 375.119755 39.741534 
L 375.288251 40.124889 
L 375.303569 40.0498 
L 375.472065 39.378833 
L 375.518019 39.456591 
L 375.640561 39.880382 
L 375.839693 40.549412 
L 376.023506 40.549672 
L 376.406452 40.260133 
L 376.590265 39.896842 
L 376.651536 39.976117 
L 376.881304 40.285777 
L 377.126389 40.22552 
L 377.202978 40.104483 
L 377.340838 39.900388 
L 377.417427 39.958428 
L 377.616559 40.122195 
L 377.968868 39.992218 
L 378.459038 39.696216 
L 378.581581 39.595998 
L 378.780712 39.641692 
L 379.240246 39.655739 
L 379.607874 39.423927 
L 379.715099 39.152039 
L 379.77637 39.043808 
L 379.837641 39.118691 
L 380.205268 39.723695 
L 380.664803 39.592454 
L 380.971159 39.447299 
L 381.109019 39.242358 
L 381.200926 39.327609 
L 381.430693 39.517496 
L 381.859592 39.428353 
L 383.590505 39.069153 
L 384.11131 38.914976 
L 384.233853 38.752552 
L 384.371713 38.628858 
L 384.432984 38.724717 
L 384.969107 39.356398 
L 385.980083 39.084746 
L 386.148579 39.05688 
L 386.470253 39.123732 
L 386.684702 39.037489 
L 386.83788 38.782438 
L 386.914469 38.859119 
L 387.205508 39.242565 
L 387.68036 39.185575 
L 387.925445 39.073679 
L 388.124576 38.569126 
L 388.139894 38.578644 
L 388.247119 38.816205 
L 388.538157 39.57212 
L 388.584111 39.479535 
L 388.890467 39.424048 
L 388.93642 39.332415 
L 389.013009 39.395926 
L 389.380637 39.702909 
L 389.794218 39.595933 
L 390.039303 39.438707 
L 390.054621 39.45288 
L 390.238434 39.52923 
L 390.422248 38.978045 
L 390.437566 38.991882 
L 390.728604 39.891769 
L 390.989007 39.851121 
L 392.321656 39.306661 
L 392.444199 39.164048 
L 392.474835 39.099693 
L 392.50547 38.91153 
L 392.582059 39.116927 
L 393.010958 39.691074 
L 393.516446 39.52164 
L 393.730895 39.066904 
L 393.792166 39.153056 
L 394.251701 39.677942 
L 395.002273 39.39877 
L 395.323947 38.89797 
L 395.385219 39.004081 
L 395.676257 39.731683 
L 395.72221 39.703353 
L 396.166427 39.70954 
L 396.273652 39.585441 
L 396.442147 38.735791 
L 396.472783 38.78758 
L 396.917 40.205654 
L 396.947635 40.193111 
L 397.422487 40.002309 
L 398.693866 39.365847 
L 398.831726 39.21148 
L 398.923633 39.152869 
L 398.969586 38.892245 
L 399.046175 38.999569 
L 399.122764 39.161383 
L 399.352531 39.941807 
L 399.566981 39.950163 
L 399.980562 39.71051 
L 400.103104 39.569869 
L 400.118422 39.574005 
L 400.13374 39.509471 
L 400.332871 38.514356 
L 400.195011 39.554091 
L 400.40946 38.795106 
L 400.685181 40.878229 
L 400.76177 40.956973 
L 400.807723 40.914014 
L 400.838359 40.699758 
L 400.960901 40.451825 
L 401.037491 40.49394 
L 401.25194 41.014091 
L 401.497025 40.924259 
L 401.925924 40.643157 
L 403.059442 39.974568 
L 403.656836 39.633955 
L 403.825332 39.251113 
L 403.886603 39.413296 
L 404.101053 39.863298 
L 404.346138 39.835673 
L 406.444678 39.2114 
L 408.420675 38.928189 
L 410.534533 38.833278 
L 412.173539 38.679046 
L 412.296081 38.591657 
L 412.403306 38.69538 
L 412.633073 38.866738 
L 413.21515 38.849823 
L 413.261103 38.712072 
L 413.337692 38.147651 
L 413.444917 38.194307 
L 413.521506 38.707285 
L 413.720637 39.40696 
L 413.935087 39.465904 
L 416.554432 39.051719 
L 416.722928 38.398605 
L 416.768882 38.49008 
L 417.013967 39.557101 
L 417.228416 39.614394 
L 417.488819 39.510301 
L 417.626679 39.430975 
L 417.856446 39.485196 
L 418.469159 39.343452 
L 419.572041 39.180044 
L 420.092847 39.117121 
L 422.313929 38.863364 
L 423.278951 38.706134 
L 423.401494 38.114985 
L 423.416811 38.118425 
L 423.478083 38.225841 
L 423.70785 39.277861 
L 423.922299 39.46716 
L 424.106113 39.140242 
L 424.121431 39.148341 
L 424.152066 39.196781 
L 424.167384 39.131669 
L 424.213338 39.020338 
L 424.274609 39.13587 
L 424.596283 39.666963 
L 424.734143 39.524127 
L 424.948592 39.805204 
L 425.147724 39.900904 
L 426.08211 39.653089 
L 427.200311 39.236574 
L 427.292217 38.952974 
L 427.338171 38.978773 
L 427.41476 39.080324 
L 427.55262 39.462633 
L 427.583256 39.362037 
L 427.629209 38.839337 
L 427.736434 38.888492 
L 427.797705 39.132582 
L 428.012155 40.111266 
L 428.195968 40.161623 
L 428.732092 39.918087 
L 428.946541 39.794364 
L 429.467347 39.683026 
L 429.86561 39.545742 
L 430.708089 39.426166 
L 432.362413 39.079204 
L 434.82858 38.808597 
L 435.119619 38.874816 
L 435.31875 38.882588 
L 435.45661 38.621978 
L 435.533199 38.690064 
L 435.762967 39.02343 
L 436.038687 39.002837 
L 436.069323 38.517794 
L 436.16123 38.551645 
L 436.237819 38.61963 
L 436.421632 39.195763 
L 436.574811 39.344295 
L 436.804578 39.531736 
L 437.156887 39.484828 
L 437.478561 39.430678 
L 437.509197 39.013672 
L 437.616422 39.028016 
L 437.693011 39.124677 
L 437.90746 39.600303 
L 438.152545 39.596647 
L 439.669008 39.080853 
L 439.822186 38.964406 
L 439.86814 39.018555 
L 440.174496 39.291017 
L 440.940386 39.161866 
L 443.038926 38.893446 
L 444.141809 38.740397 
L 444.279669 38.529743 
L 444.356258 38.622968 
L 444.586025 38.990268 
L 444.923017 39.002061 
L 447.802765 38.810837 
L 451.96921 38.692951 
L 453.853301 38.597437 
L 453.975843 38.548553 
L 454.665145 38.795056 
L 456.641142 38.66029 
L 456.79432 38.059794 
L 456.840274 38.114939 
L 457.085359 39.003938 
L 457.131312 38.834783 
L 457.192583 37.803143 
L 457.28449 37.95929 
L 457.345761 38.375167 
L 457.544893 39.969877 
L 457.560211 39.986396 
L 457.590846 39.681565 
L 457.667435 39.915251 
L 457.805296 40.30005 
L 458.111652 41.523704 
L 458.280148 41.497496 
L 459.995743 40.221187 
L 460.593137 40.104173 
L 461.83388 39.57963 
L 462.201507 39.37156 
L 462.339368 39.061599 
L 462.400639 39.110478 
L 462.645724 39.611596 
L 462.921444 39.583713 
L 463.564792 39.367639 
L 463.702653 39.057182 
L 463.779242 38.978359 
L 463.794559 38.828527 
L 463.886466 39.005723 
L 464.039644 39.478724 
L 464.238776 39.809715 
L 464.514497 39.765262 
L 466.352634 39.035735 
L 466.459858 38.442288 
L 466.505812 38.50263 
L 466.582401 38.76906 
L 466.827486 39.850769 
L 467.026617 39.892236 
L 467.409563 39.693512 
L 467.63933 39.351178 
L 467.685283 39.386 
L 468.083546 39.845141 
L 469.094522 39.496197 
L 469.492785 39.389973 
L 470.319947 39.110644 
L 470.50376 38.763386 
L 470.534396 38.79929 
L 470.626303 38.993309 
L 470.886706 39.458119 
L 471.162426 39.450118 
L 473.79709 38.930555 
L 474.195353 38.972425 
L 477.77972 38.752201 
L 480.445019 38.59373 
L 480.613515 38.393274 
L 480.674786 38.502314 
L 480.981143 39.024505 
L 481.119003 38.95734 
L 481.256863 38.330506 
L 481.333452 38.420461 
L 481.685762 39.562814 
L 481.9768 39.528452 
L 483.125636 39.136655 
L 483.294132 38.83969 
L 483.462628 39.106443 
L 483.723031 39.459673 
L 484.014069 39.441322 
L 486.281105 38.99721 
L 488.425599 38.820354 
L 489.95738 38.715193 
L 490.064604 37.552868 
L 490.125875 37.576233 
L 490.156511 37.662592 
L 490.539456 39.921791 
L 490.753906 39.918401 
L 491.964013 39.406999 
L 492.101873 39.059213 
L 492.147826 39.078485 
L 492.316322 39.47902 
L 492.515454 39.633095 
L 492.944353 39.527192 
L 494.56804 39.140228 
L 496.268317 38.955343 
L 498.091137 38.812693 
L 504.493982 38.700141 
L 504.876927 38.69827 
L 506.638475 38.633238 
L 506.730382 38.13397 
L 506.806971 38.158935 
L 506.868242 38.303513 
L 507.082691 39.003437 
L 507.098009 38.998883 
L 507.189916 39.073749 
L 507.37373 37.429328 
L 507.389048 37.440654 
L 507.496272 38.43651 
L 507.802629 41.116293 
L 507.817946 41.080898 
L 507.986442 40.715366 
L 508.047714 40.803659 
L 508.292799 41.216806 
L 508.553201 41.057703 
L 508.813604 40.802836 
L 509.012736 39.948077 
L 509.365045 41.066651 
L 509.533541 41.10168 
L 509.993075 40.767667 
L 511.095958 39.858567 
L 511.172547 40.007427 
L 511.371678 40.108328 
L 511.662717 39.98539 
L 511.831213 39.689484 
L 512.030344 39.759575 
L 512.321383 39.95831 
L 512.980048 39.705071 
L 514.404605 39.282066 
L 516.25806 38.976435 
L 516.595052 38.957592 
L 516.625687 38.683977 
L 516.732912 38.700235 
L 516.809501 38.766005 
L 517.02395 39.077721 
L 517.360942 39.0788 
L 517.483485 38.975655 
L 517.544756 38.464397 
L 517.606027 38.469424 
L 517.682616 38.564495 
L 517.912383 39.497376 
L 518.126833 39.553265 
L 518.969312 39.335995 
L 519.153126 39.053517 
L 519.168444 39.058485 
L 519.520753 39.394643 
L 519.811792 39.278955 
L 520.041559 39.096266 
L 520.378551 39.345937 
L 520.593 39.459434 
L 522.124781 39.286663 
L 522.706858 39.040317 
L 522.921307 39.072972 
L 523.18171 39.264114 
L 523.733151 39.1792 
L 524.208003 38.982072 
L 524.391817 38.099572 
L 524.407135 38.141545 
L 524.544995 38.884596 
L 524.774762 39.819548 
L 524.973894 39.901869 
L 525.586606 39.678299 
L 526.352497 39.395691 
L 526.490357 38.692301 
L 526.520993 38.644505 
L 526.536311 38.568509 
L 526.597582 38.801235 
L 526.934574 40.181632 
L 527.133705 40.181521 
L 528.282541 39.683555 
L 528.420401 39.296295 
L 528.49699 39.36248 
L 528.696122 39.781698 
L 528.71144 39.768045 
L 528.864618 39.739042 
L 529.553919 39.6864 
L 530.120678 39.521094 
L 531.055065 39.342623 
L 531.146972 39.283858 
L 531.284832 38.779281 
L 531.330785 38.800261 
L 531.422692 39.09164 
L 531.637141 39.612905 
L 531.866909 39.604156 
L 532.923838 39.428162 
L 533.092333 39.34059 
L 533.230194 39.128162 
L 533.306783 39.218594 
L 533.521232 39.547468 
L 533.551868 39.554653 
L 534.333076 39.451976 
L 534.486254 39.44728 
L 535.00706 39.337155 
L 535.053013 39.080255 
L 535.129602 38.259908 
L 535.221509 38.30797 
L 535.28278 38.818434 
L 535.49723 40.312481 
L 535.681043 40.41627 
L 536.094624 40.210401 
L 536.600112 39.892789 
L 536.75329 38.787912 
L 536.814561 38.887565 
L 537.24346 40.628135 
L 537.274096 40.619748 
L 537.794901 40.315161 
L 538.974373 39.738199 
L 540.245751 39.359715 
L 540.628696 39.310365 
L 540.659332 38.807695 
L 540.766556 38.837351 
L 540.827828 38.872166 
L 541.042277 39.576304 
L 541.256726 39.616431 
L 544.090521 38.98778 
L 544.243699 38.82332 
L 544.350924 38.919107 
L 544.580691 39.074374 
L 545.193404 39.012414 
L 545.882705 38.93189 
L 545.98993 37.860089 
L 546.035883 37.882857 
L 546.081837 37.953532 
L 546.204379 39.075001 
L 546.250333 38.468606 
L 546.280968 38.083112 
L 546.372875 38.287642 
L 546.418828 38.600027 
L 546.694549 41.026942 
L 546.771138 41.298528 
L 546.924316 41.522488 
L 547.353215 41.746527 
L 547.506393 41.604243 
L 547.521711 41.625082 
L 547.690207 40.683822 
L 547.705525 40.668058 
L 547.73616 40.75022 
L 547.858703 41.235736 
L 547.87402 41.01416 
L 547.889338 40.753542 
L 547.981245 40.987507 
L 548.119105 41.791077 
L 548.318237 42.416141 
L 548.471415 42.340196 
L 550.661862 40.353034 
L 551.366481 39.814703 
L 551.458388 39.72076 
L 551.489024 39.748401 
L 551.596248 39.857314 
L 551.626884 39.583387 
L 551.718791 39.643848 
L 551.810698 39.749352 
L 552.009829 40.09024 
L 552.270232 40.047564 
L 553.235254 39.534322 
L 553.357797 38.777458 
L 553.419068 38.82669 
L 553.510975 39.306558 
L 553.725424 40.093663 
L 553.909238 40.096368 
L 554.062416 39.875928 
L 554.154323 39.954543 
L 554.353454 40.047461 
L 554.858942 39.84554 
L 556.222227 39.381888 
L 557.922504 39.05056 
L 558.106318 39.025231 
L 565.520138 38.924256 
L 565.703952 38.590534 
L 565.795859 38.803692 
L 565.99499 39.118277 
L 566.117533 39.133865 
L 566.13285 39.090873 
L 566.255393 39.083063 
L 566.439207 39.191417 
L 566.48516 39.209301 
L 566.500478 39.150609 
L 566.577067 38.705469 
L 566.638338 38.714707 
L 566.699609 38.771051 
L 566.960012 39.53381 
L 567.205097 39.538098 
L 569.977621 38.982803 
L 572.01489 38.849513 
L 572.382517 38.878155 
L 575.675846 38.650773 
L 575.737117 38.061734 
L 575.829024 38.090966 
L 575.890296 38.236327 
L 576.150698 39.229168 
L 576.380465 39.27805 
L 577.789704 39.042587 
L 577.912246 38.011068 
L 577.942882 38.019004 
L 577.988836 38.082971 
L 578.31051 39.928181 
L 578.509641 39.964491 
L 579.612523 39.548615 
L 581.159622 39.165688 
L 581.389389 39.065032 
L 581.481296 38.016971 
L 581.542568 38.030258 
L 581.588521 38.155806 
L 581.848924 40.34192 
L 581.879559 40.353375 
L 581.910195 40.304562 
L 582.063373 39.864856 
L 582.124644 39.957594 
L 582.231869 40.098515 
L 582.446318 40.653629 
L 582.630132 40.634254 
L 585.172889 39.459538 
L 585.310749 38.746301 
L 585.356702 38.729028 
L 585.37202 38.798464 
L 585.617105 40.028359 
L 585.800919 40.093346 
L 586.046004 39.989395 
L 586.183864 39.514282 
L 586.245135 39.53421 
L 586.260453 39.585468 
L 586.551492 40.102437 
L 586.70467 40.147187 
L 586.873166 39.991488 
L 586.98039 40.069297 
L 587.19484 40.078821 
L 589.584418 39.176052 
L 589.752914 38.074632 
L 589.768232 37.746212 
L 589.860139 37.980401 
L 589.936728 38.466103 
L 590.151177 40.600107 
L 590.304355 40.720526 
L 590.671982 40.627932 
L 591.269377 40.134507 
L 591.514462 39.104012 
L 591.591051 39.431431 
L 592.035268 41.162669 
L 592.219081 41.229936 
L 592.602027 40.945194 
L 593.521095 40.337658 
L 594.39421 39.926857 
L 595.665589 39.466663 
L 596.538704 39.191073 
L 596.676564 38.930899 
L 596.753153 39.021079 
L 596.967603 39.36941 
L 597.028874 39.287964 
L 597.151416 39.239454 
L 597.273959 39.337077 
L 597.503726 39.402421 
L 598.80574 39.132579 
L 600.950233 38.876112 
L 601.716124 38.779897 
L 601.853984 38.531675 
L 601.930573 38.631583 
L 602.145022 39.009096 
L 602.451379 39.029812 
L 605.989793 38.766981 
L 606.311467 38.813009 
L 609.420982 38.668549 
L 609.589478 38.163241 
L 609.604796 38.175029 
L 609.666067 38.478003 
L 609.865199 39.150726 
L 609.880517 39.144558 
L 610.202191 38.964681 
L 610.232826 39.044863 
L 610.477911 39.392501 
L 610.784267 39.372211 
L 613.00535 38.978406 
L 613.970372 38.795566 
L 614.092914 38.672868 
L 614.184821 38.760709 
L 614.383953 38.987406 
L 614.598402 38.905891 
L 614.858805 39.068606 
L 615.348975 38.977451 
L 615.425564 38.889497 
L 615.502153 38.682579 
L 615.563424 38.708405 
L 615.655331 38.858375 
L 615.885098 39.18809 
L 616.237408 39.169781 
L 618.565715 38.883234 
L 619.040567 38.87907 
L 621.077836 38.833584 
L 622.624935 38.764656 
L 627.005829 38.52736 
L 627.159007 38.057656 
L 627.220278 38.114272 
L 627.312185 38.481336 
L 627.541952 38.609529 
L 627.771719 39.167828 
L 627.848308 39.200853 
L 632.596829 39.094276 
L 632.658101 38.976066 
L 632.811279 38.679427 
L 632.887868 38.76536 
L 633.194224 39.303197 
L 633.592487 39.254275 
L 634.496238 38.984783 
L 634.634098 38.926454 
L 634.756641 39.053742 
L 634.986408 39.119802 
L 635.139586 39.005672 
L 635.277446 39.095225 
L 635.46126 39.077816 
L 637.100266 38.967534 
L 639.397937 38.819115 
L 639.612387 38.986472 
L 640.14851 38.953341 
L 641.940694 38.849139 
L 644.590675 38.754363 
L 644.6979 38.186263 
L 644.743853 37.97978 
L 644.805124 38.053253 
L 645.234023 39.437378 
L 645.509743 39.441231 
L 646.122456 39.312166 
L 647.730826 38.923121 
L 647.884004 38.502736 
L 647.91464 38.509503 
L 647.945275 38.584597 
L 648.282267 39.356765 
L 648.603941 39.365171 
L 649.599599 39.08365 
L 649.737459 38.889198 
L 649.921273 39.204115 
L 650.166358 39.362596 
L 650.625892 39.290399 
L 652.065766 39.018154 
L 652.081084 39.077664 
L 652.218944 37.458667 
L 652.24958 37.471779 
L 652.264898 37.467098 
L 652.280216 37.561494 
L 652.647843 40.842547 
L 652.816339 40.854986 
L 652.954199 40.680528 
L 653.122695 40.56703 
L 653.413734 40.55416 
L 654.317484 39.986579 
L 654.440027 39.842758 
L 654.562569 39.906722 
L 654.761701 39.989659 
L 655.159964 39.851832 
L 656.262846 39.503585 
L 656.906194 39.32092 
L 657.135962 38.790351 
L 657.151279 38.796831 
L 657.227868 38.897272 
L 657.595496 39.731878 
L 657.886534 39.680313 
L 658.514564 39.432901 
L 658.637107 39.199911 
L 658.729014 39.276574 
L 658.943463 39.549682 
L 659.096641 39.608435 
L 659.127277 38.811792 
L 659.234502 38.824811 
L 659.295773 38.895192 
L 659.52554 40.369589 
L 659.709354 40.445465 
L 659.893167 40.376357 
L 660.092299 39.680133 
L 660.15357 39.549414 
L 660.199524 39.702029 
L 660.50588 40.661905 
L 660.689694 40.645703 
L 660.980732 38.903259 
L 661.057321 39.041934 
L 661.13391 39.809514 
L 665.759889 39.761294 
L 665.989656 42.128908 
L 666.142834 42.593564 
L 666.158152 42.581697 
L 666.219423 42.477066 
L 666.357283 42.164935 
L 666.403237 42.147351 
L 666.418555 42.177602 
L 666.832135 42.337996 
L 666.847453 42.354028 
L 666.862771 42.328666 
L 667.000631 41.877824 
L 667.046585 41.852191 
L 667.07722 41.939068 
L 667.29167 42.362417 
L 667.490801 42.204461 
L 667.980971 41.517644 
L 668.149467 41.211905 
L 668.226056 41.27246 
L 668.348599 41.368216 
L 668.394552 41.323621 
L 668.54773 41.010579 
L 668.609001 41.072005 
L 668.654955 41.221271 
L 668.731544 41.148069 
L 668.854086 41.002401 
L 668.90004 40.858836 
L 668.961311 40.971445 
L 669.129807 41.400733 
L 669.298303 41.536355 
L 669.574024 41.332848 
L 670.707541 40.446119 
L 670.906673 40.197828 
L 671.075169 39.610686 
L 671.121122 39.753395 
L 671.167076 40.064708 
L 671.167076 40.064708 
" clip-path="url(#p1083a7cee1)" style="fill: none; stroke: #ff7f0e; stroke-width: 1.5; stroke-linecap: square"/>
   </g>
   <g id="patch_3">
    <path d="M 33.2875 327.558125 
L 33.2875 22.318125 
" style="fill: none; stroke: #000000; stroke-width: 0.8; stroke-linejoin: miter; stroke-linecap: square"/>
   </g>
   <g id="patch_4">
    <path d="M 701.542294 327.558125 
L 701.542294 22.318125 
" style="fill: none; stroke: #000000; stroke-width: 0.8; stroke-linejoin: miter; stroke-linecap: square"/>
   </g>
   <g id="patch_5">
    <path d="M 33.2875 327.558125 
L 701.542294 327.558125 
" style="fill: none; stroke: #000000; stroke-width: 0.8; stroke-linejoin: miter; stroke-linecap: square"/>
   </g>
   <g id="patch_6">
    <path d="M 33.2875 22.318125 
L 701.542294 22.318125 
" style="fill: none; stroke: #000000; stroke-width: 0.8; stroke-linejoin: miter; stroke-linecap: square"/>
   </g>
   <g id="text_18">
    <!-- training -->
    <g transform="translate(344.171459 16.318125) scale(0.12 -0.12)">
     <defs>
      <path id="DejaVuSans-74" d="M 1172 4494 
L 1172 3500 
L 2356 3500 
L 2356 3053 
L 1172 3053 
L 1172 1153 
Q 1172 725 1289 603 
Q 1406 481 1766 481 
L 2356 481 
L 2356 0 
L 1766 0 
Q 1100 0 847 248 
Q 594 497 594 1153 
L 594 3053 
L 172 3053 
L 172 3500 
L 594 3500 
L 594 4494 
L 1172 4494 
z
" transform="scale(0.015625)"/>
      <path id="DejaVuSans-72" d="M 2631 2963 
Q 2534 3019 2420 3045 
Q 2306 3072 2169 3072 
Q 1681 3072 1420 2755 
Q 1159 2438 1159 1844 
L 1159 0 
L 581 0 
L 581 3500 
L 1159 3500 
L 1159 2956 
Q 1341 3275 1631 3429 
Q 1922 3584 2338 3584 
Q 2397 3584 2469 3576 
Q 2541 3569 2628 3553 
L 2631 2963 
z
" transform="scale(0.015625)"/>
      <path id="DejaVuSans-61" d="M 2194 1759 
Q 1497 1759 1228 1600 
Q 959 1441 959 1056 
Q 959 750 1161 570 
Q 1363 391 1709 391 
Q 2188 391 2477 730 
Q 2766 1069 2766 1631 
L 2766 1759 
L 2194 1759 
z
M 3341 1997 
L 3341 0 
L 2766 0 
L 2766 531 
Q 2569 213 2275 61 
Q 1981 -91 1556 -91 
Q 1019 -91 701 211 
Q 384 513 384 1019 
Q 384 1609 779 1909 
Q 1175 2209 1959 2209 
L 2766 2209 
L 2766 2266 
Q 2766 2663 2505 2880 
Q 2244 3097 1772 3097 
Q 1472 3097 1187 3025 
Q 903 2953 641 2809 
L 641 3341 
Q 956 3463 1253 3523 
Q 1550 3584 1831 3584 
Q 2591 3584 2966 3190 
Q 3341 2797 3341 1997 
z
" transform="scale(0.015625)"/>
      <path id="DejaVuSans-69" d="M 603 3500 
L 1178 3500 
L 1178 0 
L 603 0 
L 603 3500 
z
M 603 4863 
L 1178 4863 
L 1178 4134 
L 603 4134 
L 603 4863 
z
" transform="scale(0.015625)"/>
      <path id="DejaVuSans-6e" d="M 3513 2113 
L 3513 0 
L 2938 0 
L 2938 2094 
Q 2938 2591 2744 2837 
Q 2550 3084 2163 3084 
Q 1697 3084 1428 2787 
Q 1159 2491 1159 1978 
L 1159 0 
L 581 0 
L 581 3500 
L 1159 3500 
L 1159 2956 
Q 1366 3272 1645 3428 
Q 1925 3584 2291 3584 
Q 2894 3584 3203 3211 
Q 3513 2838 3513 2113 
z
" transform="scale(0.015625)"/>
      <path id="DejaVuSans-67" d="M 2906 1791 
Q 2906 2416 2648 2759 
Q 2391 3103 1925 3103 
Q 1463 3103 1205 2759 
Q 947 2416 947 1791 
Q 947 1169 1205 825 
Q 1463 481 1925 481 
Q 2391 481 2648 825 
Q 2906 1169 2906 1791 
z
M 3481 434 
Q 3481 -459 3084 -895 
Q 2688 -1331 1869 -1331 
Q 1566 -1331 1297 -1286 
Q 1028 -1241 775 -1147 
L 775 -588 
Q 1028 -725 1275 -790 
Q 1522 -856 1778 -856 
Q 2344 -856 2625 -561 
Q 2906 -266 2906 331 
L 2906 616 
Q 2728 306 2450 153 
Q 2172 0 1784 0 
Q 1141 0 747 490 
Q 353 981 353 1791 
Q 353 2603 747 3093 
Q 1141 3584 1784 3584 
Q 2172 3584 2450 3431 
Q 2728 3278 2906 2969 
L 2906 3500 
L 3481 3500 
L 3481 434 
z
" transform="scale(0.015625)"/>
     </defs>
     <use xlink:href="#DejaVuSans-74"/>
     <use xlink:href="#DejaVuSans-72" x="39.208984"/>
     <use xlink:href="#DejaVuSans-61" x="80.322266"/>
     <use xlink:href="#DejaVuSans-69" x="141.601562"/>
     <use xlink:href="#DejaVuSans-6e" x="169.384766"/>
     <use xlink:href="#DejaVuSans-69" x="232.763672"/>
     <use xlink:href="#DejaVuSans-6e" x="260.546875"/>
     <use xlink:href="#DejaVuSans-67" x="323.925781"/>
    </g>
   </g>
   <g id="legend_1">
    <g id="patch_7">
     <path d="M 613.148544 191.11625 
L 694.542294 191.11625 
Q 696.542294 191.11625 696.542294 189.11625 
L 696.542294 160.76 
Q 696.542294 158.76 694.542294 158.76 
L 613.148544 158.76 
Q 611.148544 158.76 611.148544 160.76 
L 611.148544 189.11625 
Q 611.148544 191.11625 613.148544 191.11625 
z
" style="fill: #ffffff; opacity: 0.8; stroke: #cccccc; stroke-linejoin: miter"/>
    </g>
    <g id="line2d_20">
     <path d="M 615.148544 166.858438 
L 625.148544 166.858438 
L 635.148544 166.858438 
" style="fill: none; stroke: #1f77b4; stroke-width: 1.5; stroke-linecap: square"/>
    </g>
    <g id="text_19">
     <!-- observed -->
     <g transform="translate(643.148544 170.358438) scale(0.1 -0.1)">
      <defs>
       <path id="DejaVuSans-6f" d="M 1959 3097 
Q 1497 3097 1228 2736 
Q 959 2375 959 1747 
Q 959 1119 1226 758 
Q 1494 397 1959 397 
Q 2419 397 2687 759 
Q 2956 1122 2956 1747 
Q 2956 2369 2687 2733 
Q 2419 3097 1959 3097 
z
M 1959 3584 
Q 2709 3584 3137 3096 
Q 3566 2609 3566 1747 
Q 3566 888 3137 398 
Q 2709 -91 1959 -91 
Q 1206 -91 779 398 
Q 353 888 353 1747 
Q 353 2609 779 3096 
Q 1206 3584 1959 3584 
z
" transform="scale(0.015625)"/>
       <path id="DejaVuSans-62" d="M 3116 1747 
Q 3116 2381 2855 2742 
Q 2594 3103 2138 3103 
Q 1681 3103 1420 2742 
Q 1159 2381 1159 1747 
Q 1159 1113 1420 752 
Q 1681 391 2138 391 
Q 2594 391 2855 752 
Q 3116 1113 3116 1747 
z
M 1159 2969 
Q 1341 3281 1617 3432 
Q 1894 3584 2278 3584 
Q 2916 3584 3314 3078 
Q 3713 2572 3713 1747 
Q 3713 922 3314 415 
Q 2916 -91 2278 -91 
Q 1894 -91 1617 61 
Q 1341 213 1159 525 
L 1159 0 
L 581 0 
L 581 4863 
L 1159 4863 
L 1159 2969 
z
" transform="scale(0.015625)"/>
       <path id="DejaVuSans-73" d="M 2834 3397 
L 2834 2853 
Q 2591 2978 2328 3040 
Q 2066 3103 1784 3103 
Q 1356 3103 1142 2972 
Q 928 2841 928 2578 
Q 928 2378 1081 2264 
Q 1234 2150 1697 2047 
L 1894 2003 
Q 2506 1872 2764 1633 
Q 3022 1394 3022 966 
Q 3022 478 2636 193 
Q 2250 -91 1575 -91 
Q 1294 -91 989 -36 
Q 684 19 347 128 
L 347 722 
Q 666 556 975 473 
Q 1284 391 1588 391 
Q 1994 391 2212 530 
Q 2431 669 2431 922 
Q 2431 1156 2273 1281 
Q 2116 1406 1581 1522 
L 1381 1569 
Q 847 1681 609 1914 
Q 372 2147 372 2553 
Q 372 3047 722 3315 
Q 1072 3584 1716 3584 
Q 2034 3584 2315 3537 
Q 2597 3491 2834 3397 
z
" transform="scale(0.015625)"/>
       <path id="DejaVuSans-65" d="M 3597 1894 
L 3597 1613 
L 953 1613 
Q 991 1019 1311 708 
Q 1631 397 2203 397 
Q 2534 397 2845 478 
Q 3156 559 3463 722 
L 3463 178 
Q 3153 47 2828 -22 
Q 2503 -91 2169 -91 
Q 1331 -91 842 396 
Q 353 884 353 1716 
Q 353 2575 817 3079 
Q 1281 3584 2069 3584 
Q 2775 3584 3186 3129 
Q 3597 2675 3597 1894 
z
M 3022 2063 
Q 3016 2534 2758 2815 
Q 2500 3097 2075 3097 
Q 1594 3097 1305 2825 
Q 1016 2553 972 2059 
L 3022 2063 
z
" transform="scale(0.015625)"/>
       <path id="DejaVuSans-76" d="M 191 3500 
L 800 3500 
L 1894 563 
L 2988 3500 
L 3597 3500 
L 2284 0 
L 1503 0 
L 191 3500 
z
" transform="scale(0.015625)"/>
       <path id="DejaVuSans-64" d="M 2906 2969 
L 2906 4863 
L 3481 4863 
L 3481 0 
L 2906 0 
L 2906 525 
Q 2725 213 2448 61 
Q 2172 -91 1784 -91 
Q 1150 -91 751 415 
Q 353 922 353 1747 
Q 353 2572 751 3078 
Q 1150 3584 1784 3584 
Q 2172 3584 2448 3432 
Q 2725 3281 2906 2969 
z
M 947 1747 
Q 947 1113 1208 752 
Q 1469 391 1925 391 
Q 2381 391 2643 752 
Q 2906 1113 2906 1747 
Q 2906 2381 2643 2742 
Q 2381 3103 1925 3103 
Q 1469 3103 1208 2742 
Q 947 2381 947 1747 
z
" transform="scale(0.015625)"/>
      </defs>
      <use xlink:href="#DejaVuSans-6f"/>
      <use xlink:href="#DejaVuSans-62" x="61.181641"/>
      <use xlink:href="#DejaVuSans-73" x="124.658203"/>
      <use xlink:href="#DejaVuSans-65" x="176.757812"/>
      <use xlink:href="#DejaVuSans-72" x="238.28125"/>
      <use xlink:href="#DejaVuSans-76" x="279.394531"/>
      <use xlink:href="#DejaVuSans-65" x="338.574219"/>
      <use xlink:href="#DejaVuSans-64" x="400.097656"/>
     </g>
    </g>
    <g id="line2d_21">
     <path d="M 615.148544 181.536563 
L 625.148544 181.536563 
L 635.148544 181.536563 
" style="fill: none; stroke: #ff7f0e; stroke-width: 1.5; stroke-linecap: square"/>
    </g>
    <g id="text_20">
     <!-- simulated -->
     <g transform="translate(643.148544 185.036563) scale(0.1 -0.1)">
      <defs>
       <path id="DejaVuSans-6d" d="M 3328 2828 
Q 3544 3216 3844 3400 
Q 4144 3584 4550 3584 
Q 5097 3584 5394 3201 
Q 5691 2819 5691 2113 
L 5691 0 
L 5113 0 
L 5113 2094 
Q 5113 2597 4934 2840 
Q 4756 3084 4391 3084 
Q 3944 3084 3684 2787 
Q 3425 2491 3425 1978 
L 3425 0 
L 2847 0 
L 2847 2094 
Q 2847 2600 2669 2842 
Q 2491 3084 2119 3084 
Q 1678 3084 1418 2786 
Q 1159 2488 1159 1978 
L 1159 0 
L 581 0 
L 581 3500 
L 1159 3500 
L 1159 2956 
Q 1356 3278 1631 3431 
Q 1906 3584 2284 3584 
Q 2666 3584 2933 3390 
Q 3200 3197 3328 2828 
z
" transform="scale(0.015625)"/>
       <path id="DejaVuSans-75" d="M 544 1381 
L 544 3500 
L 1119 3500 
L 1119 1403 
Q 1119 906 1312 657 
Q 1506 409 1894 409 
Q 2359 409 2629 706 
Q 2900 1003 2900 1516 
L 2900 3500 
L 3475 3500 
L 3475 0 
L 2900 0 
L 2900 538 
Q 2691 219 2414 64 
Q 2138 -91 1772 -91 
Q 1169 -91 856 284 
Q 544 659 544 1381 
z
M 1991 3584 
L 1991 3584 
z
" transform="scale(0.015625)"/>
       <path id="DejaVuSans-6c" d="M 603 4863 
L 1178 4863 
L 1178 0 
L 603 0 
L 603 4863 
z
" transform="scale(0.015625)"/>
      </defs>
      <use xlink:href="#DejaVuSans-73"/>
      <use xlink:href="#DejaVuSans-69" x="52.099609"/>
      <use xlink:href="#DejaVuSans-6d" x="79.882812"/>
      <use xlink:href="#DejaVuSans-75" x="177.294922"/>
      <use xlink:href="#DejaVuSans-6c" x="240.673828"/>
      <use xlink:href="#DejaVuSans-61" x="268.457031"/>
      <use xlink:href="#DejaVuSans-74" x="329.736328"/>
      <use xlink:href="#DejaVuSans-65" x="368.945312"/>
      <use xlink:href="#DejaVuSans-64" x="430.46875"/>
     </g>
    </g>
   </g>
  </g>
 </g>
 <defs>
  <clipPath id="p1083a7cee1">
   <rect x="33.2875" y="22.318125" width="668.254794" height="305.24"/>
  </clipPath>
 </defs>
</svg>
