<?xml version="1.0" encoding="utf-8" standalone="no"?>
<!DOCTYPE svg PUBLIC "-//W3C//DTD SVG 1.1//EN"
  "http://www.w3.org/Graphics/SVG/1.1/DTD/svg11.dtd">
<svg xmlns:xlink="http://www.w3.org/1999/xlink" width="713.0225pt" height="351.43625pt" viewBox="0 0 713.0225 351.43625" xmlns="http://www.w3.org/2000/svg" version="1.1">
 <metadata>
  <rdf:RDF xmlns:dc="http://purl.org/dc/elements/1.1/" xmlns:cc="http://creativecommons.org/ns#" xmlns:rdf="http://www.w3.org/1999/02/22-rdf-syntax-ns#">
   <cc:Work>
    <dc:type rdf:resource="http://purl.org/dc/dcmitype/StillImage"/>
    <dc:date>2024-05-10T21:32:56.067288</dc:date>
    <dc:format>image/svg+xml</dc:format>
    <dc:creator>
     <cc:Agent>
      <dc:title>Matplotlib v3.8.4, https://matplotlib.org/</dc:title>
     </cc:Agent>
    </dc:creator>
   </cc:Work>
  </rdf:RDF>
 </metadata>
 <defs>
  <style type="text/css">*{stroke-linejoin: round; stroke-linecap: butt}</style>
 </defs>
 <g id="figure_1">
  <g id="patch_1">
   <path d="M 0 351.43625 
L 713.0225 351.43625 
L 713.0225 0 
L 0 0 
z
" style="fill: #ffffff"/>
  </g>
  <g id="axes_1">
   <g id="patch_2">
    <path d="M 46.0125 327.558125 
L 705.8225 327.558125 
L 705.8225 22.318125 
L 46.0125 22.318125 
z
" style="fill: #ffffff"/>
   </g>
   <g id="matplotlib.axis_1">
    <g id="xtick_1">
     <g id="line2d_1">
      <defs>
       <path id="m9bd3b9984f" d="M 0 0 
L 0 3.5 
" style="stroke: #000000; stroke-width: 0.8"/>
      </defs>
      <g>
       <use xlink:href="#m9bd3b9984f" x="103.839498" y="327.558125" style="stroke: #000000; stroke-width: 0.8"/>
      </g>
     </g>
     <g id="text_1">
      <!-- 2010 -->
      <g transform="translate(91.114498 342.156563) scale(0.1 -0.1)">
       <defs>
        <path id="DejaVuSans-32" d="M 1228 531 
L 3431 531 
L 3431 0 
L 469 0 
L 469 531 
Q 828 903 1448 1529 
Q 2069 2156 2228 2338 
Q 2531 2678 2651 2914 
Q 2772 3150 2772 3378 
Q 2772 3750 2511 3984 
Q 2250 4219 1831 4219 
Q 1534 4219 1204 4116 
Q 875 4013 500 3803 
L 500 4441 
Q 881 4594 1212 4672 
Q 1544 4750 1819 4750 
Q 2544 4750 2975 4387 
Q 3406 4025 3406 3419 
Q 3406 3131 3298 2873 
Q 3191 2616 2906 2266 
Q 2828 2175 2409 1742 
Q 1991 1309 1228 531 
z
" transform="scale(0.015625)"/>
        <path id="DejaVuSans-30" d="M 2034 4250 
Q 1547 4250 1301 3770 
Q 1056 3291 1056 2328 
Q 1056 1369 1301 889 
Q 1547 409 2034 409 
Q 2525 409 2770 889 
Q 3016 1369 3016 2328 
Q 3016 3291 2770 3770 
Q 2525 4250 2034 4250 
z
M 2034 4750 
Q 2819 4750 3233 4129 
Q 3647 3509 3647 2328 
Q 3647 1150 3233 529 
Q 2819 -91 2034 -91 
Q 1250 -91 836 529 
Q 422 1150 422 2328 
Q 422 3509 836 4129 
Q 1250 4750 2034 4750 
z
" transform="scale(0.015625)"/>
        <path id="DejaVuSans-31" d="M 794 531 
L 1825 531 
L 1825 4091 
L 703 3866 
L 703 4441 
L 1819 4666 
L 2450 4666 
L 2450 531 
L 3481 531 
L 3481 0 
L 794 0 
L 794 531 
z
" transform="scale(0.015625)"/>
       </defs>
       <use xlink:href="#DejaVuSans-32"/>
       <use xlink:href="#DejaVuSans-30" x="63.623047"/>
       <use xlink:href="#DejaVuSans-31" x="127.246094"/>
       <use xlink:href="#DejaVuSans-30" x="190.869141"/>
      </g>
     </g>
    </g>
    <g id="xtick_2">
     <g id="line2d_2">
      <g>
       <use xlink:href="#m9bd3b9984f" x="207.07411" y="327.558125" style="stroke: #000000; stroke-width: 0.8"/>
      </g>
     </g>
     <g id="text_2">
      <!-- 2012 -->
      <g transform="translate(194.34911 342.156563) scale(0.1 -0.1)">
       <use xlink:href="#DejaVuSans-32"/>
       <use xlink:href="#DejaVuSans-30" x="63.623047"/>
       <use xlink:href="#DejaVuSans-31" x="127.246094"/>
       <use xlink:href="#DejaVuSans-32" x="190.869141"/>
      </g>
     </g>
    </g>
    <g id="xtick_3">
     <g id="line2d_3">
      <g>
       <use xlink:href="#m9bd3b9984f" x="310.450139" y="327.558125" style="stroke: #000000; stroke-width: 0.8"/>
      </g>
     </g>
     <g id="text_3">
      <!-- 2014 -->
      <g transform="translate(297.725139 342.156563) scale(0.1 -0.1)">
       <defs>
        <path id="DejaVuSans-34" d="M 2419 4116 
L 825 1625 
L 2419 1625 
L 2419 4116 
z
M 2253 4666 
L 3047 4666 
L 3047 1625 
L 3713 1625 
L 3713 1100 
L 3047 1100 
L 3047 0 
L 2419 0 
L 2419 1100 
L 313 1100 
L 313 1709 
L 2253 4666 
z
" transform="scale(0.015625)"/>
       </defs>
       <use xlink:href="#DejaVuSans-32"/>
       <use xlink:href="#DejaVuSans-30" x="63.623047"/>
       <use xlink:href="#DejaVuSans-31" x="127.246094"/>
       <use xlink:href="#DejaVuSans-34" x="190.869141"/>
      </g>
     </g>
    </g>
    <g id="xtick_4">
     <g id="line2d_4">
      <g>
       <use xlink:href="#m9bd3b9984f" x="413.684752" y="327.558125" style="stroke: #000000; stroke-width: 0.8"/>
      </g>
     </g>
     <g id="text_4">
      <!-- 2016 -->
      <g transform="translate(400.959752 342.156563) scale(0.1 -0.1)">
       <defs>
        <path id="DejaVuSans-36" d="M 2113 2584 
Q 1688 2584 1439 2293 
Q 1191 2003 1191 1497 
Q 1191 994 1439 701 
Q 1688 409 2113 409 
Q 2538 409 2786 701 
Q 3034 994 3034 1497 
Q 3034 2003 2786 2293 
Q 2538 2584 2113 2584 
z
M 3366 4563 
L 3366 3988 
Q 3128 4100 2886 4159 
Q 2644 4219 2406 4219 
Q 1781 4219 1451 3797 
Q 1122 3375 1075 2522 
Q 1259 2794 1537 2939 
Q 1816 3084 2150 3084 
Q 2853 3084 3261 2657 
Q 3669 2231 3669 1497 
Q 3669 778 3244 343 
Q 2819 -91 2113 -91 
Q 1303 -91 875 529 
Q 447 1150 447 2328 
Q 447 3434 972 4092 
Q 1497 4750 2381 4750 
Q 2619 4750 2861 4703 
Q 3103 4656 3366 4563 
z
" transform="scale(0.015625)"/>
       </defs>
       <use xlink:href="#DejaVuSans-32"/>
       <use xlink:href="#DejaVuSans-30" x="63.623047"/>
       <use xlink:href="#DejaVuSans-31" x="127.246094"/>
       <use xlink:href="#DejaVuSans-36" x="190.869141"/>
      </g>
     </g>
    </g>
    <g id="xtick_5">
     <g id="line2d_5">
      <g>
       <use xlink:href="#m9bd3b9984f" x="517.060781" y="327.558125" style="stroke: #000000; stroke-width: 0.8"/>
      </g>
     </g>
     <g id="text_5">
      <!-- 2018 -->
      <g transform="translate(504.335781 342.156563) scale(0.1 -0.1)">
       <defs>
        <path id="DejaVuSans-38" d="M 2034 2216 
Q 1584 2216 1326 1975 
Q 1069 1734 1069 1313 
Q 1069 891 1326 650 
Q 1584 409 2034 409 
Q 2484 409 2743 651 
Q 3003 894 3003 1313 
Q 3003 1734 2745 1975 
Q 2488 2216 2034 2216 
z
M 1403 2484 
Q 997 2584 770 2862 
Q 544 3141 544 3541 
Q 544 4100 942 4425 
Q 1341 4750 2034 4750 
Q 2731 4750 3128 4425 
Q 3525 4100 3525 3541 
Q 3525 3141 3298 2862 
Q 3072 2584 2669 2484 
Q 3125 2378 3379 2068 
Q 3634 1759 3634 1313 
Q 3634 634 3220 271 
Q 2806 -91 2034 -91 
Q 1263 -91 848 271 
Q 434 634 434 1313 
Q 434 1759 690 2068 
Q 947 2378 1403 2484 
z
M 1172 3481 
Q 1172 3119 1398 2916 
Q 1625 2713 2034 2713 
Q 2441 2713 2670 2916 
Q 2900 3119 2900 3481 
Q 2900 3844 2670 4047 
Q 2441 4250 2034 4250 
Q 1625 4250 1398 4047 
Q 1172 3844 1172 3481 
z
" transform="scale(0.015625)"/>
       </defs>
       <use xlink:href="#DejaVuSans-32"/>
       <use xlink:href="#DejaVuSans-30" x="63.623047"/>
       <use xlink:href="#DejaVuSans-31" x="127.246094"/>
       <use xlink:href="#DejaVuSans-38" x="190.869141"/>
      </g>
     </g>
    </g>
    <g id="xtick_6">
     <g id="line2d_6">
      <g>
       <use xlink:href="#m9bd3b9984f" x="620.295393" y="327.558125" style="stroke: #000000; stroke-width: 0.8"/>
      </g>
     </g>
     <g id="text_6">
      <!-- 2020 -->
      <g transform="translate(607.570393 342.156563) scale(0.1 -0.1)">
       <use xlink:href="#DejaVuSans-32"/>
       <use xlink:href="#DejaVuSans-30" x="63.623047"/>
       <use xlink:href="#DejaVuSans-32" x="127.246094"/>
       <use xlink:href="#DejaVuSans-30" x="190.869141"/>
      </g>
     </g>
    </g>
   </g>
   <g id="matplotlib.axis_2">
    <g id="ytick_1">
     <g id="line2d_7">
      <defs>
       <path id="m77658dec80" d="M 0 0 
L -3.5 0 
" style="stroke: #000000; stroke-width: 0.8"/>
      </defs>
      <g>
       <use xlink:href="#m77658dec80" x="46.0125" y="313.68358" style="stroke: #000000; stroke-width: 0.8"/>
      </g>
     </g>
     <g id="text_7">
      <!-- 0 -->
      <g transform="translate(32.65 317.482798) scale(0.1 -0.1)">
       <use xlink:href="#DejaVuSans-30"/>
      </g>
     </g>
    </g>
    <g id="ytick_2">
     <g id="line2d_8">
      <g>
       <use xlink:href="#m77658dec80" x="46.0125" y="272.950969" style="stroke: #000000; stroke-width: 0.8"/>
      </g>
     </g>
     <g id="text_8">
      <!-- 2000 -->
      <g transform="translate(13.5625 276.750188) scale(0.1 -0.1)">
       <use xlink:href="#DejaVuSans-32"/>
       <use xlink:href="#DejaVuSans-30" x="63.623047"/>
       <use xlink:href="#DejaVuSans-30" x="127.246094"/>
       <use xlink:href="#DejaVuSans-30" x="190.869141"/>
      </g>
     </g>
    </g>
    <g id="ytick_3">
     <g id="line2d_9">
      <g>
       <use xlink:href="#m77658dec80" x="46.0125" y="232.218359" style="stroke: #000000; stroke-width: 0.8"/>
      </g>
     </g>
     <g id="text_9">
      <!-- 4000 -->
      <g transform="translate(13.5625 236.017577) scale(0.1 -0.1)">
       <use xlink:href="#DejaVuSans-34"/>
       <use xlink:href="#DejaVuSans-30" x="63.623047"/>
       <use xlink:href="#DejaVuSans-30" x="127.246094"/>
       <use xlink:href="#DejaVuSans-30" x="190.869141"/>
      </g>
     </g>
    </g>
    <g id="ytick_4">
     <g id="line2d_10">
      <g>
       <use xlink:href="#m77658dec80" x="46.0125" y="191.485748" style="stroke: #000000; stroke-width: 0.8"/>
      </g>
     </g>
     <g id="text_10">
      <!-- 6000 -->
      <g transform="translate(13.5625 195.284967) scale(0.1 -0.1)">
       <use xlink:href="#DejaVuSans-36"/>
       <use xlink:href="#DejaVuSans-30" x="63.623047"/>
       <use xlink:href="#DejaVuSans-30" x="127.246094"/>
       <use xlink:href="#DejaVuSans-30" x="190.869141"/>
      </g>
     </g>
    </g>
    <g id="ytick_5">
     <g id="line2d_11">
      <g>
       <use xlink:href="#m77658dec80" x="46.0125" y="150.753138" style="stroke: #000000; stroke-width: 0.8"/>
      </g>
     </g>
     <g id="text_11">
      <!-- 8000 -->
      <g transform="translate(13.5625 154.552356) scale(0.1 -0.1)">
       <use xlink:href="#DejaVuSans-38"/>
       <use xlink:href="#DejaVuSans-30" x="63.623047"/>
       <use xlink:href="#DejaVuSans-30" x="127.246094"/>
       <use xlink:href="#DejaVuSans-30" x="190.869141"/>
      </g>
     </g>
    </g>
    <g id="ytick_6">
     <g id="line2d_12">
      <g>
       <use xlink:href="#m77658dec80" x="46.0125" y="110.020527" style="stroke: #000000; stroke-width: 0.8"/>
      </g>
     </g>
     <g id="text_12">
      <!-- 10000 -->
      <g transform="translate(7.2 113.819746) scale(0.1 -0.1)">
       <use xlink:href="#DejaVuSans-31"/>
       <use xlink:href="#DejaVuSans-30" x="63.623047"/>
       <use xlink:href="#DejaVuSans-30" x="127.246094"/>
       <use xlink:href="#DejaVuSans-30" x="190.869141"/>
       <use xlink:href="#DejaVuSans-30" x="254.492188"/>
      </g>
     </g>
    </g>
    <g id="ytick_7">
     <g id="line2d_13">
      <g>
       <use xlink:href="#m77658dec80" x="46.0125" y="69.287916" style="stroke: #000000; stroke-width: 0.8"/>
      </g>
     </g>
     <g id="text_13">
      <!-- 12000 -->
      <g transform="translate(7.2 73.087135) scale(0.1 -0.1)">
       <use xlink:href="#DejaVuSans-31"/>
       <use xlink:href="#DejaVuSans-32" x="63.623047"/>
       <use xlink:href="#DejaVuSans-30" x="127.246094"/>
       <use xlink:href="#DejaVuSans-30" x="190.869141"/>
       <use xlink:href="#DejaVuSans-30" x="254.492188"/>
      </g>
     </g>
    </g>
    <g id="ytick_8">
     <g id="line2d_14">
      <g>
       <use xlink:href="#m77658dec80" x="46.0125" y="28.555306" style="stroke: #000000; stroke-width: 0.8"/>
      </g>
     </g>
     <g id="text_14">
      <!-- 14000 -->
      <g transform="translate(7.2 32.354525) scale(0.1 -0.1)">
       <use xlink:href="#DejaVuSans-31"/>
       <use xlink:href="#DejaVuSans-34" x="63.623047"/>
       <use xlink:href="#DejaVuSans-30" x="127.246094"/>
       <use xlink:href="#DejaVuSans-30" x="190.869141"/>
       <use xlink:href="#DejaVuSans-30" x="254.492188"/>
      </g>
     </g>
    </g>
   </g>
   <g id="line2d_15">
    <path d="M 76.003864 313.68358 
L 87.3526 313.68358 
L 87.382062 310.873029 
L 87.464555 313.085828 
L 87.617758 313.68358 
L 106.821045 313.68358 
L 106.826938 310.399513 
L 106.850507 36.19267 
L 106.933001 303.953577 
L 106.938893 303.917936 
L 107.009602 294.340681 
L 107.062633 299.452624 
L 107.115665 298.821268 
L 107.268867 304.040134 
L 107.675441 309.854714 
L 107.681334 309.763066 
L 107.716688 308.749842 
L 107.787397 309.696875 
L 107.805074 309.956546 
L 107.834536 308.912773 
L 107.852213 308.831307 
L 107.86989 309.106252 
L 107.946491 310.058377 
L 107.964168 308.963688 
L 107.987738 309.391381 
L 108.376635 311.793586 
L 108.382528 311.744707 
L 108.400205 311.951934 
L 108.476806 311.793586 
L 108.53573 311.982993 
L 108.594654 311.952444 
L 108.618223 311.921894 
L 108.641793 312.16018 
L 108.683039 311.998268 
L 108.75964 312.356206 
L 108.80678 312.231462 
L 108.824457 312.058858 
L 108.924627 312.145923 
L 108.995336 312.397447 
L 109.042475 312.231462 
L 109.160323 311.675971 
L 109.178 311.443286 
L 109.189785 311.54359 
L 109.284063 297.24288 
L 109.313525 299.218411 
L 109.319417 299.264235 
L 109.472619 306.957607 
L 109.478512 306.952516 
L 109.484404 307.084897 
L 109.625821 308.337424 
L 109.661176 308.912773 
L 109.808485 309.854714 
L 109.82027 309.773249 
L 109.890979 309.671417 
L 109.914548 309.834348 
L 110.06775 310.526802 
L 110.21506 311.239623 
L 110.226845 311.137791 
L 110.262199 311.239623 
L 110.350585 310.995227 
L 110.385939 311.076692 
L 110.48611 311.382187 
L 110.509679 311.300722 
L 110.58628 311.361821 
L 110.60985 311.509476 
L 110.704128 311.463652 
L 110.721805 311.555301 
L 110.786621 311.661205 
L 110.745375 311.524751 
L 110.827868 311.570575 
L 110.83376 311.524751 
L 110.916254 311.659169 
L 110.933931 311.793586 
L 110.975178 311.623528 
L 111.028209 311.728414 
L 111.093025 311.58585 
L 111.122487 311.858759 
L 111.146057 311.761 
L 111.181411 311.842466 
L 111.322829 310.562443 
L 111.35229 309.773249 
L 111.434784 310.282407 
L 111.464246 306.489182 
L 111.576201 308.963688 
L 111.89439 310.750832 
L 112.035807 310.852663 
L 112.071162 310.368963 
L 112.194902 311.219257 
L 112.283288 309.717242 
L 112.318642 308.133761 
L 112.395243 309.040062 
L 112.407028 309.040062 
L 112.572015 310.506436 
L 112.689862 310.547169 
L 112.825387 310.913762 
L 112.95502 310.995227 
L 112.996266 310.913762 
L 113.07876 311.076692 
L 113.137684 311.117425 
L 113.149468 310.053286 
L 113.249639 310.817022 
L 113.261424 309.574677 
L 113.308563 298.072807 
L 113.373379 301.759108 
L 113.497119 305.562515 
L 113.503012 304.671489 
L 113.544258 299.01984 
L 113.614967 301.804932 
L 113.685676 305.063541 
L 113.774061 304.875153 
L 113.779954 304.839511 
L 113.785846 305.134823 
L 113.84477 306.993248 
L 113.921371 306.988157 
L 114.086358 309.365923 
L 114.09225 309.315007 
L 114.127605 309.416839 
L 114.787552 311.858759 
L 114.870045 311.728414 
L 114.899507 311.793586 
L 115.052709 312.16018 
L 115.064494 312.103154 
L 115.15288 312.145923 
L 115.270728 312.384209 
L 115.27662 312.315473 
L 115.311974 312.274231 
L 115.365006 312.437162 
L 115.370898 312.437162 
L 115.506423 312.54103 
L 115.653733 312.636751 
L 115.706764 312.589909 
L 115.765688 312.636751 
L 115.818719 312.730436 
L 115.960137 312.901513 
L 116.060307 312.980942 
L 116.107446 312.940209 
L 116.178155 313.021675 
L 116.354927 313.094993 
L 116.372604 313.030839 
L 116.419743 313.166275 
L 116.443312 313.166275 
L 116.673116 313.267598 
L 116.796856 313.349572 
L 116.802748 313.342444 
L 116.80864 313.321059 
L 116.820425 313.349572 
L 116.902919 313.369429 
L 117.067905 313.45344 
L 116.932381 313.321059 
L 117.097367 313.424927 
L 117.47448 313.534447 
L 117.627682 313.538979 
L 117.633575 313.529916 
L 117.769099 313.520853 
L 119.360044 313.628591 
L 119.560385 313.645291 
L 143.188855 313.637857 
L 143.20064 313.00029 
L 143.235994 313.68358 
L 143.294918 313.68358 
L 155.356633 313.68358 
L 155.37431 312.528301 
L 155.468589 313.131653 
L 155.474481 313.122488 
L 155.503943 313.25996 
L 155.663037 313.68358 
L 155.698392 312.511499 
L 155.7691 313.672378 
L 156.505649 313.621004 
L 156.629389 313.342444 
L 156.764914 313.182059 
L 156.80616 313.131653 
L 156.835622 313.229411 
L 156.876869 313.182568 
L 156.95347 313.15762 
L 157.006501 313.275235 
L 157.10078 313.166275 
L 157.124349 313.244686 
L 157.142026 313.198861 
L 157.159703 313.29051 
L 157.195058 313.298147 
L 157.295228 313.376048 
L 157.253982 313.252323 
L 157.307013 313.349572 
L 157.336475 313.321059 
L 157.377722 313.376048 
L 157.418968 313.349572 
L 157.501462 313.400488 
L 157.536816 313.349572 
L 157.849113 313.25996 
L 157.961068 313.190206 
L 157.902144 313.29051 
L 157.96696 313.229411 
L 158.314611 313.328188 
L 158.326396 313.369429 
L 158.38532 313.29051 
L 158.420674 313.321059 
L 158.479598 313.321059 
L 158.497275 313.388268 
L 158.520845 313.45344 
L 158.556199 313.349572 
L 158.615123 313.424927 
L 158.744755 313.400488 
L 159.05116 313.501097 
L 159.1749 313.520853 
L 160.052865 313.630882 
L 160.223744 313.68358 
L 160.229637 313.676604 
L 160.353377 313.637755 
L 162.80461 313.534447 
L 162.957812 313.45344 
L 163.010843 313.342444 
L 163.222969 312.901513 
L 163.234754 312.920861 
L 163.240646 312.940209 
L 163.293678 312.775242 
L 163.29957 312.775242 
L 163.32314 312.796627 
L 163.458665 312.577689 
L 163.535266 312.636751 
L 163.505804 312.490114 
L 163.54705 312.502843 
L 163.664898 312.117411 
L 163.57062 312.540521 
L 163.682575 312.32922 
L 163.700253 312.437162 
L 163.747392 311.967718 
L 163.906486 310.913762 
L 163.935948 310.934128 
L 163.94184 310.913762 
L 163.947733 310.954495 
L 163.977195 308.362882 
L 164.059688 309.834348 
L 164.08915 310.277315 
L 164.100935 309.202992 
L 164.106827 308.805849 
L 164.195213 309.956546 
L 164.413231 311.402553 
L 164.419124 311.382187 
L 164.46037 311.58585 
L 164.63125 312.16018 
L 164.684281 312.117411 
L 164.772667 312.384209 
L 164.843376 312.490114 
L 164.973008 312.683594 
L 165.361906 312.785935 
L 165.54457 313.166275 
L 166.03953 313.267598 
L 166.175055 313.349572 
L 166.646446 313.45344 
L 166.711262 313.501097 
L 166.728939 313.400488 
L 166.746616 313.400488 
L 166.905711 313.510975 
L 167.035343 313.520853 
L 168.744135 313.623499 
L 168.861983 313.607817 
L 168.991616 313.607817 
L 169.197849 313.645291 
L 169.404083 313.641523 
L 169.498361 313.643407 
L 169.52193 313.596004 
L 169.645671 313.583377 
L 262.568606 313.68358 
L 262.6511 294.091194 
L 262.698239 297.451634 
L 262.75127 304.651123 
L 262.792517 296.871195 
L 262.827871 301.585994 
L 262.992858 310.526802 
L 263.181415 312.671883 
L 263.676375 313.424927 
L 270.953472 313.68358 
L 340.872531 313.68358 
L 340.937347 312.612821 
L 340.978594 313.662908 
L 341.096442 313.68358 
L 342.168856 313.68358 
L 342.210103 303.520793 
L 342.286704 309.956546 
L 342.434013 313.418818 
L 342.652032 313.637755 
L 343.088068 313.652012 
L 343.200024 299.21332 
L 343.211809 300.776434 
L 343.28841 309.16226 
L 344.001388 300.302917 
L 344.113344 225.293815 
L 344.095666 304.885336 
L 344.136913 268.01214 
L 345.380207 313.68358 
L 345.433238 313.68358 
L 345.450915 312.315473 
L 345.539301 313.669629 
L 345.816243 313.678081 
L 345.845705 313.678081 
L 345.886952 312.718726 
L 345.957661 313.520853 
L 345.969445 312.6617 
L 345.987123 312.991125 
L 345.998907 266.790162 
L 346.099078 300.547313 
L 346.116755 301.2805 
L 347.360049 313.68358 
L 348.674051 313.595801 
L 348.774221 310.954495 
L 348.791899 311.254898 
L 348.803683 311.361821 
L 348.974563 313.583377 
L 366.39835 313.68358 
L 366.433704 309.696875 
L 366.52209 312.102136 
L 366.628153 313.113323 
L 370.611406 313.554864 
L 370.776393 270.863423 
L 370.788178 273.409211 
L 371.129936 306.06149 
L 371.135828 306.025849 
L 371.153505 306.494274 
L 373.245303 313.583377 
L 388.382844 313.612807 
L 388.388736 313.418207 
L 388.400521 313.68358 
L 391.900598 313.68358 
L 391.95363 313.263015 
L 392.006661 313.68358 
L 397.604429 313.68358 
L 397.610321 312.710579 
L 397.710492 313.68358 
L 401.522866 313.68358 
L 401.53465 311.310905 
L 401.628929 313.68358 
L 403.443784 313.68358 
L 403.461461 310.162755 
L 403.473246 286.698225 
L 403.53217 307.634787 
L 407.774688 313.68358 
L 414.645211 313.68358 
L 414.768951 300.40984 
L 414.804305 303.1542 
L 414.928045 309.365923 
L 414.969292 308.668377 
L 415.228557 312.901513 
L 415.275696 312.940209 
L 418.080472 313.680779 
L 418.19832 313.68358 
L 418.327952 313.68358 
L 418.4458 312.410685 
L 418.457585 312.463638 
L 418.469369 312.437162 
L 418.498831 312.741638 
L 418.516508 312.807319 
L 418.575432 312.55325 
L 418.581325 312.55325 
L 418.616679 312.54103 
L 418.640249 312.671883 
L 418.705065 313.058334 
L 418.769881 312.870964 
L 418.84059 312.991125 
L 418.805235 312.828704 
L 418.881836 312.89133 
L 418.917191 312.636751 
L 418.952545 312.901513 
L 419.005577 312.752839 
L 419.017361 312.785935 
L 419.046823 312.528301 
L 419.058608 312.54103 
L 419.076285 312.5894 
L 419.164671 312.950393 
L 419.194133 312.730436 
L 419.200025 312.695305 
L 419.270734 312.911187 
L 419.276626 312.901004 
L 419.282519 312.910678 
L 419.300196 312.828704 
L 419.323765 312.502843 
L 419.394474 312.911187 
L 419.400366 312.911187 
L 419.512322 313.001308 
L 419.524107 312.991125 
L 419.559461 312.940719 
L 419.541784 313.001308 
L 419.624277 313.011491 
L 419.712663 313.221774 
L 419.765694 313.198861 
L 419.771587 313.174422 
L 419.85408 313.29051 
L 420.325471 313.400488 
L 420.472781 313.495802 
L 420.484566 313.479916 
L 420.908817 313.589691 
L 421.062019 313.596004 
L 443.582721 313.595241 
L 443.588613 311.627601 
L 443.653429 313.68358 
L 443.688784 313.68358 
L 444.065897 313.68358 
L 444.077681 312.87911 
L 444.177852 313.490507 
L 444.325162 313.68358 
L 444.51961 313.68358 
L 444.531395 312.525246 
L 444.54318 313.282363 
L 450.871603 313.68358 
L 464.371061 313.68358 
L 464.471231 311.689718 
L 464.512478 311.793586 
L 464.51837 311.93666 
L 464.536047 309.80889 
L 464.577294 307.756985 
L 464.64211 309.717242 
L 464.783528 311.826173 
L 465.031008 313.68358 
L 465.054577 313.68358 
L 465.078147 311.03596 
L 465.172425 312.217206 
L 465.302058 312.980942 
L 465.349197 312.901513 
L 465.378659 312.980942 
L 465.472937 313.166275 
L 465.561323 295.812147 
L 465.596677 304.309988 
L 465.661493 303.999401 
L 465.743987 308.393432 
L 465.779341 309.253908 
L 468.289498 309.742699 
L 468.29539 309.885264 
L 468.307175 308.490172 
L 468.31896 309.085886 
L 468.354314 240.263049 
L 468.454484 283.796027 
L 468.460377 283.439616 
L 468.489839 288.123866 
L 468.660718 301.626727 
L 468.672503 301.626727 
L 468.725534 301.810024 
L 468.772673 289.244013 
L 468.843382 297.186872 
L 469.992397 311.015594 
L 470.015967 310.027828 
L 470.033644 309.722333 
L 470.09846 310.827205 
L 470.163277 311.744707 
L 470.210416 310.857755 
L 470.263447 311.524751 
L 470.345941 311.158158 
L 470.351833 311.137791 
L 470.387187 311.341454 
L 470.463788 311.678008 
L 470.487358 311.234531 
L 470.505035 311.137791 
L 470.528604 311.346546 
L 470.61699 311.793586 
L 470.64056 311.443286 
L 470.646452 311.382187 
L 470.675914 311.921894 
L 470.711268 311.842466 
L 470.717161 311.809879 
L 470.78787 312.028817 
L 470.923394 312.217206 
L 470.805547 311.921894 
L 470.952856 312.16018 
L 470.994103 312.259975 
L 471.064812 312.274231 
L 471.070704 312.245718 
L 471.106058 311.921894 
L 471.164982 312.274231 
L 471.182659 312.16018 
L 471.235691 312.245718 
L 471.377108 312.384209 
L 471.836714 312.287978 
L 471.919208 312.16018 
L 471.942777 312.245718 
L 472.042948 312.437162 
L 472.07241 312.384209 
L 472.555585 312.490114 
L 472.643971 303.276398 
L 472.708788 306.361893 
L 472.779496 308.525813 
L 472.932698 310.587901 
L 472.96216 310.669366 
L 473.168394 311.661205 
L 473.250887 311.728414 
L 473.409982 312.16018 
L 473.457121 312.259975 
L 473.616215 312.384209 
L 473.698708 310.781381 
L 473.710493 309.640868 
L 473.75174 187.921645 
L 473.828341 278.959029 
L 473.981543 299.987239 
L 474.087606 304.885336 
L 475.761044 313.067499 
L 475.766936 313.044078 
L 475.772829 313.029821 
L 475.82586 313.185623 
L 476.709718 313.66413 
L 477.658392 313.68358 
L 546.640561 313.68358 
L 546.652346 313.377779 
L 546.746624 313.68358 
L 554.129785 313.587807 
L 554.135677 313.54295 
L 554.159247 313.68358 
L 554.224063 313.68358 
L 570.787561 313.68358 
L 570.811131 309.640868 
L 570.828808 254.926789 
L 570.923086 294.569802 
L 570.976118 304.864969 
L 573.291826 313.68358 
L 573.509844 313.68358 
L 573.539306 307.543139 
L 573.633584 312.5894 
L 573.792679 313.68358 
L 573.822141 313.68358 
L 573.833925 297.421085 
L 573.934096 306.988157 
L 574.069621 312.239609 
L 575.047757 313.075136 
L 575.077219 313.376048 
L 575.094896 227.686856 
L 575.189174 299.793759 
L 575.371838 312.384209 
L 575.389515 312.463638 
L 575.483794 312.901513 
L 576.073032 312.828195 
L 576.220342 311.346546 
L 576.238019 311.137791 
L 576.291051 311.558865 
L 576.408898 312.683594 
L 576.420683 312.436143 
L 576.444253 311.659169 
L 576.526746 312.490114 
L 576.544423 312.589909 
L 576.550316 312.502334 
L 576.597455 310.791564 
L 576.662271 312.028817 
L 576.679948 312.217206 
L 576.68584 311.15052 
L 576.703518 306.22442 
L 576.797796 309.768157 
L 576.803688 309.859806 
L 576.809581 308.469805 
L 576.821365 297.385444 
L 576.921536 304.880244 
L 576.933321 305.669438 
L 576.939213 300.201085 
L 576.992245 294.508703 
L 577.045276 301.764199 
L 577.086523 304.915885 
L 577.092415 301.779474 
L 577.098307 291.840717 
L 577.198478 302.196983 
L 577.245617 305.419951 
L 577.257402 297.711305 
L 577.310433 302.869071 
L 577.387034 306.764127 
L 577.398819 302.823247 
L 577.404712 302.151159 
L 577.481313 305.918926 
L 577.646299 310.032919 
L 577.858425 311.524751 
L 577.881995 311.58585 
L 577.988058 311.982993 
L 578.01752 311.921894 
L 578.094121 311.982993 
L 578.129475 312.044092 
L 578.200184 311.982993 
L 578.235538 312.088389 
L 578.253215 312.103154 
L 578.777638 311.665788 
L 578.901378 287.207383 
L 578.942624 295.022952 
L 579.101719 307.726435 
L 579.296168 310.424971 
L 579.366876 311.076692 
L 580.062178 312.471784 
L 580.291981 312.326165 
L 580.33912 312.204986 
L 580.398044 312.307836 
L 580.509999 312.451418 
L 580.521784 312.449381 
L 580.616062 312.325147 
L 580.651417 312.264048 
L 580.686771 312.367916 
L 580.722125 312.361806 
L 581.034422 312.469748 
L 581.040314 312.520664 
L 581.075668 312.410685 
L 581.146377 312.503861 
L 581.340826 312.478913 
L 583.69778 312.428506 
L 583.709565 312.577689 
L 587.37463 313.68358 
L 615.693439 313.59519 
L 617.649712 312.491642 
L 617.673281 312.543066 
L 617.797021 312.642861 
L 617.962008 312.738583 
L 618.132887 312.952429 
L 618.221273 313.033894 
L 618.345013 313.145909 
L 618.604278 313.245704 
L 618.751588 313.385722 
L 618.92836 313.418818 
L 619.234764 313.458023 
L 619.246548 312.956502 
L 619.346719 313.311894 
L 619.352611 313.29051 
L 619.370289 278.093461 
L 619.476351 298.520865 
L 619.659015 308.286509 
L 619.676693 308.378157 
L 619.723832 309.197901 
L 619.847572 310.160209 
L 619.853464 310.119476 
L 619.91828 308.429073 
L 619.983097 309.691784 
L 620.024343 310.221308 
L 630.359589 286.290899 
L 630.424406 283.948774 
L 630.377267 287.971119 
L 630.45976 287.00372 
L 630.471545 287.971119 
L 630.512791 282.67588 
L 630.542253 242.401511 
L 630.559931 127.331886 
L 630.648316 294.839656 
L 630.73081 299.411891 
L 630.736702 295.969986 
L 630.742595 287.00372 
L 630.842765 297.711305 
L 631.072568 307.639878 
L 631.390757 290.318336 
L 631.426111 259.560123 
L 631.514497 269.183203 
L 631.52039 268.623129 
L 631.555744 274.478442 
L 631.679484 298.531048 
L 631.708946 298.424125 
L 632.268723 309.936179 
L 632.581019 311.545117 
L 632.628158 311.51966 
L 632.645835 311.71314 
L 632.669405 311.721795 
L 632.687082 311.623528 
L 632.692974 311.596033 
L 632.728329 311.88829 
L 632.799037 312.457528 
L 639.999534 313.68358 
L 675.831136 313.68358 
L 675.831136 313.68358 
" clip-path="url(#p4e5e2acde1)" style="fill: none; stroke: #1f77b4; stroke-width: 1.5; stroke-linecap: square"/>
   </g>
   <g id="line2d_16">
    <path d="M 76.003864 313.68358 
L 675.831136 313.68358 
L 675.831136 313.68358 
" clip-path="url(#p4e5e2acde1)" style="fill: none; stroke: #ff7f0e; stroke-width: 1.5; stroke-linecap: square"/>
   </g>
   <g id="patch_3">
    <path d="M 46.0125 327.558125 
L 46.0125 22.318125 
" style="fill: none; stroke: #000000; stroke-width: 0.8; stroke-linejoin: miter; stroke-linecap: square"/>
   </g>
   <g id="patch_4">
    <path d="M 705.8225 327.558125 
L 705.8225 22.318125 
" style="fill: none; stroke: #000000; stroke-width: 0.8; stroke-linejoin: miter; stroke-linecap: square"/>
   </g>
   <g id="patch_5">
    <path d="M 46.0125 327.558125 
L 705.8225 327.558125 
" style="fill: none; stroke: #000000; stroke-width: 0.8; stroke-linejoin: miter; stroke-linecap: square"/>
   </g>
   <g id="patch_6">
    <path d="M 46.0125 22.318125 
L 705.8225 22.318125 
" style="fill: none; stroke: #000000; stroke-width: 0.8; stroke-linejoin: miter; stroke-linecap: square"/>
   </g>
   <g id="text_15">
    <!-- training -->
    <g transform="translate(352.674062 16.318125) scale(0.12 -0.12)">
     <defs>
      <path id="DejaVuSans-74" d="M 1172 4494 
L 1172 3500 
L 2356 3500 
L 2356 3053 
L 1172 3053 
L 1172 1153 
Q 1172 725 1289 603 
Q 1406 481 1766 481 
L 2356 481 
L 2356 0 
L 1766 0 
Q 1100 0 847 248 
Q 594 497 594 1153 
L 594 3053 
L 172 3053 
L 172 3500 
L 594 3500 
L 594 4494 
L 1172 4494 
z
" transform="scale(0.015625)"/>
      <path id="DejaVuSans-72" d="M 2631 2963 
Q 2534 3019 2420 3045 
Q 2306 3072 2169 3072 
Q 1681 3072 1420 2755 
Q 1159 2438 1159 1844 
L 1159 0 
L 581 0 
L 581 3500 
L 1159 3500 
L 1159 2956 
Q 1341 3275 1631 3429 
Q 1922 3584 2338 3584 
Q 2397 3584 2469 3576 
Q 2541 3569 2628 3553 
L 2631 2963 
z
" transform="scale(0.015625)"/>
      <path id="DejaVuSans-61" d="M 2194 1759 
Q 1497 1759 1228 1600 
Q 959 1441 959 1056 
Q 959 750 1161 570 
Q 1363 391 1709 391 
Q 2188 391 2477 730 
Q 2766 1069 2766 1631 
L 2766 1759 
L 2194 1759 
z
M 3341 1997 
L 3341 0 
L 2766 0 
L 2766 531 
Q 2569 213 2275 61 
Q 1981 -91 1556 -91 
Q 1019 -91 701 211 
Q 384 513 384 1019 
Q 384 1609 779 1909 
Q 1175 2209 1959 2209 
L 2766 2209 
L 2766 2266 
Q 2766 2663 2505 2880 
Q 2244 3097 1772 3097 
Q 1472 3097 1187 3025 
Q 903 2953 641 2809 
L 641 3341 
Q 956 3463 1253 3523 
Q 1550 3584 1831 3584 
Q 2591 3584 2966 3190 
Q 3341 2797 3341 1997 
z
" transform="scale(0.015625)"/>
      <path id="DejaVuSans-69" d="M 603 3500 
L 1178 3500 
L 1178 0 
L 603 0 
L 603 3500 
z
M 603 4863 
L 1178 4863 
L 1178 4134 
L 603 4134 
L 603 4863 
z
" transform="scale(0.015625)"/>
      <path id="DejaVuSans-6e" d="M 3513 2113 
L 3513 0 
L 2938 0 
L 2938 2094 
Q 2938 2591 2744 2837 
Q 2550 3084 2163 3084 
Q 1697 3084 1428 2787 
Q 1159 2491 1159 1978 
L 1159 0 
L 581 0 
L 581 3500 
L 1159 3500 
L 1159 2956 
Q 1366 3272 1645 3428 
Q 1925 3584 2291 3584 
Q 2894 3584 3203 3211 
Q 3513 2838 3513 2113 
z
" transform="scale(0.015625)"/>
      <path id="DejaVuSans-67" d="M 2906 1791 
Q 2906 2416 2648 2759 
Q 2391 3103 1925 3103 
Q 1463 3103 1205 2759 
Q 947 2416 947 1791 
Q 947 1169 1205 825 
Q 1463 481 1925 481 
Q 2391 481 2648 825 
Q 2906 1169 2906 1791 
z
M 3481 434 
Q 3481 -459 3084 -895 
Q 2688 -1331 1869 -1331 
Q 1566 -1331 1297 -1286 
Q 1028 -1241 775 -1147 
L 775 -588 
Q 1028 -725 1275 -790 
Q 1522 -856 1778 -856 
Q 2344 -856 2625 -561 
Q 2906 -266 2906 331 
L 2906 616 
Q 2728 306 2450 153 
Q 2172 0 1784 0 
Q 1141 0 747 490 
Q 353 981 353 1791 
Q 353 2603 747 3093 
Q 1141 3584 1784 3584 
Q 2172 3584 2450 3431 
Q 2728 3278 2906 2969 
L 2906 3500 
L 3481 3500 
L 3481 434 
z
" transform="scale(0.015625)"/>
     </defs>
     <use xlink:href="#DejaVuSans-74"/>
     <use xlink:href="#DejaVuSans-72" x="39.208984"/>
     <use xlink:href="#DejaVuSans-61" x="80.322266"/>
     <use xlink:href="#DejaVuSans-69" x="141.601562"/>
     <use xlink:href="#DejaVuSans-6e" x="169.384766"/>
     <use xlink:href="#DejaVuSans-69" x="232.763672"/>
     <use xlink:href="#DejaVuSans-6e" x="260.546875"/>
     <use xlink:href="#DejaVuSans-67" x="323.925781"/>
    </g>
   </g>
   <g id="legend_1">
    <g id="patch_7">
     <path d="M 617.42875 59.674375 
L 698.8225 59.674375 
Q 700.8225 59.674375 700.8225 57.674375 
L 700.8225 29.318125 
Q 700.8225 27.318125 698.8225 27.318125 
L 617.42875 27.318125 
Q 615.42875 27.318125 615.42875 29.318125 
L 615.42875 57.674375 
Q 615.42875 59.674375 617.42875 59.674375 
z
" style="fill: #ffffff; opacity: 0.8; stroke: #cccccc; stroke-linejoin: miter"/>
    </g>
    <g id="line2d_17">
     <path d="M 619.42875 35.416562 
L 629.42875 35.416562 
L 639.42875 35.416562 
" style="fill: none; stroke: #1f77b4; stroke-width: 1.5; stroke-linecap: square"/>
    </g>
    <g id="text_16">
     <!-- observed -->
     <g transform="translate(647.42875 38.916562) scale(0.1 -0.1)">
      <defs>
       <path id="DejaVuSans-6f" d="M 1959 3097 
Q 1497 3097 1228 2736 
Q 959 2375 959 1747 
Q 959 1119 1226 758 
Q 1494 397 1959 397 
Q 2419 397 2687 759 
Q 2956 1122 2956 1747 
Q 2956 2369 2687 2733 
Q 2419 3097 1959 3097 
z
M 1959 3584 
Q 2709 3584 3137 3096 
Q 3566 2609 3566 1747 
Q 3566 888 3137 398 
Q 2709 -91 1959 -91 
Q 1206 -91 779 398 
Q 353 888 353 1747 
Q 353 2609 779 3096 
Q 1206 3584 1959 3584 
z
" transform="scale(0.015625)"/>
       <path id="DejaVuSans-62" d="M 3116 1747 
Q 3116 2381 2855 2742 
Q 2594 3103 2138 3103 
Q 1681 3103 1420 2742 
Q 1159 2381 1159 1747 
Q 1159 1113 1420 752 
Q 1681 391 2138 391 
Q 2594 391 2855 752 
Q 3116 1113 3116 1747 
z
M 1159 2969 
Q 1341 3281 1617 3432 
Q 1894 3584 2278 3584 
Q 2916 3584 3314 3078 
Q 3713 2572 3713 1747 
Q 3713 922 3314 415 
Q 2916 -91 2278 -91 
Q 1894 -91 1617 61 
Q 1341 213 1159 525 
L 1159 0 
L 581 0 
L 581 4863 
L 1159 4863 
L 1159 2969 
z
" transform="scale(0.015625)"/>
       <path id="DejaVuSans-73" d="M 2834 3397 
L 2834 2853 
Q 2591 2978 2328 3040 
Q 2066 3103 1784 3103 
Q 1356 3103 1142 2972 
Q 928 2841 928 2578 
Q 928 2378 1081 2264 
Q 1234 2150 1697 2047 
L 1894 2003 
Q 2506 1872 2764 1633 
Q 3022 1394 3022 966 
Q 3022 478 2636 193 
Q 2250 -91 1575 -91 
Q 1294 -91 989 -36 
Q 684 19 347 128 
L 347 722 
Q 666 556 975 473 
Q 1284 391 1588 391 
Q 1994 391 2212 530 
Q 2431 669 2431 922 
Q 2431 1156 2273 1281 
Q 2116 1406 1581 1522 
L 1381 1569 
Q 847 1681 609 1914 
Q 372 2147 372 2553 
Q 372 3047 722 3315 
Q 1072 3584 1716 3584 
Q 2034 3584 2315 3537 
Q 2597 3491 2834 3397 
z
" transform="scale(0.015625)"/>
       <path id="DejaVuSans-65" d="M 3597 1894 
L 3597 1613 
L 953 1613 
Q 991 1019 1311 708 
Q 1631 397 2203 397 
Q 2534 397 2845 478 
Q 3156 559 3463 722 
L 3463 178 
Q 3153 47 2828 -22 
Q 2503 -91 2169 -91 
Q 1331 -91 842 396 
Q 353 884 353 1716 
Q 353 2575 817 3079 
Q 1281 3584 2069 3584 
Q 2775 3584 3186 3129 
Q 3597 2675 3597 1894 
z
M 3022 2063 
Q 3016 2534 2758 2815 
Q 2500 3097 2075 3097 
Q 1594 3097 1305 2825 
Q 1016 2553 972 2059 
L 3022 2063 
z
" transform="scale(0.015625)"/>
       <path id="DejaVuSans-76" d="M 191 3500 
L 800 3500 
L 1894 563 
L 2988 3500 
L 3597 3500 
L 2284 0 
L 1503 0 
L 191 3500 
z
" transform="scale(0.015625)"/>
       <path id="DejaVuSans-64" d="M 2906 2969 
L 2906 4863 
L 3481 4863 
L 3481 0 
L 2906 0 
L 2906 525 
Q 2725 213 2448 61 
Q 2172 -91 1784 -91 
Q 1150 -91 751 415 
Q 353 922 353 1747 
Q 353 2572 751 3078 
Q 1150 3584 1784 3584 
Q 2172 3584 2448 3432 
Q 2725 3281 2906 2969 
z
M 947 1747 
Q 947 1113 1208 752 
Q 1469 391 1925 391 
Q 2381 391 2643 752 
Q 2906 1113 2906 1747 
Q 2906 2381 2643 2742 
Q 2381 3103 1925 3103 
Q 1469 3103 1208 2742 
Q 947 2381 947 1747 
z
" transform="scale(0.015625)"/>
      </defs>
      <use xlink:href="#DejaVuSans-6f"/>
      <use xlink:href="#DejaVuSans-62" x="61.181641"/>
      <use xlink:href="#DejaVuSans-73" x="124.658203"/>
      <use xlink:href="#DejaVuSans-65" x="176.757812"/>
      <use xlink:href="#DejaVuSans-72" x="238.28125"/>
      <use xlink:href="#DejaVuSans-76" x="279.394531"/>
      <use xlink:href="#DejaVuSans-65" x="338.574219"/>
      <use xlink:href="#DejaVuSans-64" x="400.097656"/>
     </g>
    </g>
    <g id="line2d_18">
     <path d="M 619.42875 50.094688 
L 629.42875 50.094688 
L 639.42875 50.094688 
" style="fill: none; stroke: #ff7f0e; stroke-width: 1.5; stroke-linecap: square"/>
    </g>
    <g id="text_17">
     <!-- simulated -->
     <g transform="translate(647.42875 53.594688) scale(0.1 -0.1)">
      <defs>
       <path id="DejaVuSans-6d" d="M 3328 2828 
Q 3544 3216 3844 3400 
Q 4144 3584 4550 3584 
Q 5097 3584 5394 3201 
Q 5691 2819 5691 2113 
L 5691 0 
L 5113 0 
L 5113 2094 
Q 5113 2597 4934 2840 
Q 4756 3084 4391 3084 
Q 3944 3084 3684 2787 
Q 3425 2491 3425 1978 
L 3425 0 
L 2847 0 
L 2847 2094 
Q 2847 2600 2669 2842 
Q 2491 3084 2119 3084 
Q 1678 3084 1418 2786 
Q 1159 2488 1159 1978 
L 1159 0 
L 581 0 
L 581 3500 
L 1159 3500 
L 1159 2956 
Q 1356 3278 1631 3431 
Q 1906 3584 2284 3584 
Q 2666 3584 2933 3390 
Q 3200 3197 3328 2828 
z
" transform="scale(0.015625)"/>
       <path id="DejaVuSans-75" d="M 544 1381 
L 544 3500 
L 1119 3500 
L 1119 1403 
Q 1119 906 1312 657 
Q 1506 409 1894 409 
Q 2359 409 2629 706 
Q 2900 1003 2900 1516 
L 2900 3500 
L 3475 3500 
L 3475 0 
L 2900 0 
L 2900 538 
Q 2691 219 2414 64 
Q 2138 -91 1772 -91 
Q 1169 -91 856 284 
Q 544 659 544 1381 
z
M 1991 3584 
L 1991 3584 
z
" transform="scale(0.015625)"/>
       <path id="DejaVuSans-6c" d="M 603 4863 
L 1178 4863 
L 1178 0 
L 603 0 
L 603 4863 
z
" transform="scale(0.015625)"/>
      </defs>
      <use xlink:href="#DejaVuSans-73"/>
      <use xlink:href="#DejaVuSans-69" x="52.099609"/>
      <use xlink:href="#DejaVuSans-6d" x="79.882812"/>
      <use xlink:href="#DejaVuSans-75" x="177.294922"/>
      <use xlink:href="#DejaVuSans-6c" x="240.673828"/>
      <use xlink:href="#DejaVuSans-61" x="268.457031"/>
      <use xlink:href="#DejaVuSans-74" x="329.736328"/>
      <use xlink:href="#DejaVuSans-65" x="368.945312"/>
      <use xlink:href="#DejaVuSans-64" x="430.46875"/>
     </g>
    </g>
   </g>
  </g>
 </g>
 <defs>
  <clipPath id="p4e5e2acde1">
   <rect x="46.0125" y="22.318125" width="659.81" height="305.24"/>
  </clipPath>
 </defs>
</svg>
