<?xml version="1.0" encoding="utf-8" standalone="no"?>
<!DOCTYPE svg PUBLIC "-//W3C//DTD SVG 1.1//EN"
  "http://www.w3.org/Graphics/SVG/1.1/DTD/svg11.dtd">
<svg xmlns:xlink="http://www.w3.org/1999/xlink" width="713.0225pt" height="351.43625pt" viewBox="0 0 713.0225 351.43625" xmlns="http://www.w3.org/2000/svg" version="1.1">
 <metadata>
  <rdf:RDF xmlns:dc="http://purl.org/dc/elements/1.1/" xmlns:cc="http://creativecommons.org/ns#" xmlns:rdf="http://www.w3.org/1999/02/22-rdf-syntax-ns#">
   <cc:Work>
    <dc:type rdf:resource="http://purl.org/dc/dcmitype/StillImage"/>
    <dc:date>2024-05-10T13:07:27.257334</dc:date>
    <dc:format>image/svg+xml</dc:format>
    <dc:creator>
     <cc:Agent>
      <dc:title>Matplotlib v3.8.4, https://matplotlib.org/</dc:title>
     </cc:Agent>
    </dc:creator>
   </cc:Work>
  </rdf:RDF>
 </metadata>
 <defs>
  <style type="text/css">*{stroke-linejoin: round; stroke-linecap: butt}</style>
 </defs>
 <g id="figure_1">
  <g id="patch_1">
   <path d="M 0 351.43625 
L 713.0225 351.43625 
L 713.0225 0 
L 0 0 
z
" style="fill: #ffffff"/>
  </g>
  <g id="axes_1">
   <g id="patch_2">
    <path d="M 46.0125 327.558125 
L 705.8225 327.558125 
L 705.8225 22.318125 
L 46.0125 22.318125 
z
" style="fill: #ffffff"/>
   </g>
   <g id="matplotlib.axis_1">
    <g id="xtick_1">
     <g id="line2d_1">
      <defs>
       <path id="m3d60d97f28" d="M 0 0 
L 0 3.5 
" style="stroke: #000000; stroke-width: 0.8"/>
      </defs>
      <g>
       <use xlink:href="#m3d60d97f28" x="101.965254" y="327.558125" style="stroke: #000000; stroke-width: 0.8"/>
      </g>
     </g>
     <g id="text_1">
      <!-- 2010 -->
      <g transform="translate(89.240254 342.156563) scale(0.1 -0.1)">
       <defs>
        <path id="DejaVuSans-32" d="M 1228 531 
L 3431 531 
L 3431 0 
L 469 0 
L 469 531 
Q 828 903 1448 1529 
Q 2069 2156 2228 2338 
Q 2531 2678 2651 2914 
Q 2772 3150 2772 3378 
Q 2772 3750 2511 3984 
Q 2250 4219 1831 4219 
Q 1534 4219 1204 4116 
Q 875 4013 500 3803 
L 500 4441 
Q 881 4594 1212 4672 
Q 1544 4750 1819 4750 
Q 2544 4750 2975 4387 
Q 3406 4025 3406 3419 
Q 3406 3131 3298 2873 
Q 3191 2616 2906 2266 
Q 2828 2175 2409 1742 
Q 1991 1309 1228 531 
z
" transform="scale(0.015625)"/>
        <path id="DejaVuSans-30" d="M 2034 4250 
Q 1547 4250 1301 3770 
Q 1056 3291 1056 2328 
Q 1056 1369 1301 889 
Q 1547 409 2034 409 
Q 2525 409 2770 889 
Q 3016 1369 3016 2328 
Q 3016 3291 2770 3770 
Q 2525 4250 2034 4250 
z
M 2034 4750 
Q 2819 4750 3233 4129 
Q 3647 3509 3647 2328 
Q 3647 1150 3233 529 
Q 2819 -91 2034 -91 
Q 1250 -91 836 529 
Q 422 1150 422 2328 
Q 422 3509 836 4129 
Q 1250 4750 2034 4750 
z
" transform="scale(0.015625)"/>
        <path id="DejaVuSans-31" d="M 794 531 
L 1825 531 
L 1825 4091 
L 703 3866 
L 703 4441 
L 1819 4666 
L 2450 4666 
L 2450 531 
L 3481 531 
L 3481 0 
L 794 0 
L 794 531 
z
" transform="scale(0.015625)"/>
       </defs>
       <use xlink:href="#DejaVuSans-32"/>
       <use xlink:href="#DejaVuSans-30" x="63.623047"/>
       <use xlink:href="#DejaVuSans-31" x="127.246094"/>
       <use xlink:href="#DejaVuSans-30" x="190.869141"/>
      </g>
     </g>
    </g>
    <g id="xtick_2">
     <g id="line2d_2">
      <g>
       <use xlink:href="#m3d60d97f28" x="194.338032" y="327.558125" style="stroke: #000000; stroke-width: 0.8"/>
      </g>
     </g>
     <g id="text_2">
      <!-- 2012 -->
      <g transform="translate(181.613032 342.156563) scale(0.1 -0.1)">
       <use xlink:href="#DejaVuSans-32"/>
       <use xlink:href="#DejaVuSans-30" x="63.623047"/>
       <use xlink:href="#DejaVuSans-31" x="127.246094"/>
       <use xlink:href="#DejaVuSans-32" x="190.869141"/>
      </g>
     </g>
    </g>
    <g id="xtick_3">
     <g id="line2d_3">
      <g>
       <use xlink:href="#m3d60d97f28" x="286.837348" y="327.558125" style="stroke: #000000; stroke-width: 0.8"/>
      </g>
     </g>
     <g id="text_3">
      <!-- 2014 -->
      <g transform="translate(274.112348 342.156563) scale(0.1 -0.1)">
       <defs>
        <path id="DejaVuSans-34" d="M 2419 4116 
L 825 1625 
L 2419 1625 
L 2419 4116 
z
M 2253 4666 
L 3047 4666 
L 3047 1625 
L 3713 1625 
L 3713 1100 
L 3047 1100 
L 3047 0 
L 2419 0 
L 2419 1100 
L 313 1100 
L 313 1709 
L 2253 4666 
z
" transform="scale(0.015625)"/>
       </defs>
       <use xlink:href="#DejaVuSans-32"/>
       <use xlink:href="#DejaVuSans-30" x="63.623047"/>
       <use xlink:href="#DejaVuSans-31" x="127.246094"/>
       <use xlink:href="#DejaVuSans-34" x="190.869141"/>
      </g>
     </g>
    </g>
    <g id="xtick_4">
     <g id="line2d_4">
      <g>
       <use xlink:href="#m3d60d97f28" x="379.210126" y="327.558125" style="stroke: #000000; stroke-width: 0.8"/>
      </g>
     </g>
     <g id="text_4">
      <!-- 2016 -->
      <g transform="translate(366.485126 342.156563) scale(0.1 -0.1)">
       <defs>
        <path id="DejaVuSans-36" d="M 2113 2584 
Q 1688 2584 1439 2293 
Q 1191 2003 1191 1497 
Q 1191 994 1439 701 
Q 1688 409 2113 409 
Q 2538 409 2786 701 
Q 3034 994 3034 1497 
Q 3034 2003 2786 2293 
Q 2538 2584 2113 2584 
z
M 3366 4563 
L 3366 3988 
Q 3128 4100 2886 4159 
Q 2644 4219 2406 4219 
Q 1781 4219 1451 3797 
Q 1122 3375 1075 2522 
Q 1259 2794 1537 2939 
Q 1816 3084 2150 3084 
Q 2853 3084 3261 2657 
Q 3669 2231 3669 1497 
Q 3669 778 3244 343 
Q 2819 -91 2113 -91 
Q 1303 -91 875 529 
Q 447 1150 447 2328 
Q 447 3434 972 4092 
Q 1497 4750 2381 4750 
Q 2619 4750 2861 4703 
Q 3103 4656 3366 4563 
z
" transform="scale(0.015625)"/>
       </defs>
       <use xlink:href="#DejaVuSans-32"/>
       <use xlink:href="#DejaVuSans-30" x="63.623047"/>
       <use xlink:href="#DejaVuSans-31" x="127.246094"/>
       <use xlink:href="#DejaVuSans-36" x="190.869141"/>
      </g>
     </g>
    </g>
    <g id="xtick_5">
     <g id="line2d_5">
      <g>
       <use xlink:href="#m3d60d97f28" x="471.709441" y="327.558125" style="stroke: #000000; stroke-width: 0.8"/>
      </g>
     </g>
     <g id="text_5">
      <!-- 2018 -->
      <g transform="translate(458.984441 342.156563) scale(0.1 -0.1)">
       <defs>
        <path id="DejaVuSans-38" d="M 2034 2216 
Q 1584 2216 1326 1975 
Q 1069 1734 1069 1313 
Q 1069 891 1326 650 
Q 1584 409 2034 409 
Q 2484 409 2743 651 
Q 3003 894 3003 1313 
Q 3003 1734 2745 1975 
Q 2488 2216 2034 2216 
z
M 1403 2484 
Q 997 2584 770 2862 
Q 544 3141 544 3541 
Q 544 4100 942 4425 
Q 1341 4750 2034 4750 
Q 2731 4750 3128 4425 
Q 3525 4100 3525 3541 
Q 3525 3141 3298 2862 
Q 3072 2584 2669 2484 
Q 3125 2378 3379 2068 
Q 3634 1759 3634 1313 
Q 3634 634 3220 271 
Q 2806 -91 2034 -91 
Q 1263 -91 848 271 
Q 434 634 434 1313 
Q 434 1759 690 2068 
Q 947 2378 1403 2484 
z
M 1172 3481 
Q 1172 3119 1398 2916 
Q 1625 2713 2034 2713 
Q 2441 2713 2670 2916 
Q 2900 3119 2900 3481 
Q 2900 3844 2670 4047 
Q 2441 4250 2034 4250 
Q 1625 4250 1398 4047 
Q 1172 3844 1172 3481 
z
" transform="scale(0.015625)"/>
       </defs>
       <use xlink:href="#DejaVuSans-32"/>
       <use xlink:href="#DejaVuSans-30" x="63.623047"/>
       <use xlink:href="#DejaVuSans-31" x="127.246094"/>
       <use xlink:href="#DejaVuSans-38" x="190.869141"/>
      </g>
     </g>
    </g>
    <g id="xtick_6">
     <g id="line2d_6">
      <g>
       <use xlink:href="#m3d60d97f28" x="564.082219" y="327.558125" style="stroke: #000000; stroke-width: 0.8"/>
      </g>
     </g>
     <g id="text_6">
      <!-- 2020 -->
      <g transform="translate(551.357219 342.156563) scale(0.1 -0.1)">
       <use xlink:href="#DejaVuSans-32"/>
       <use xlink:href="#DejaVuSans-30" x="63.623047"/>
       <use xlink:href="#DejaVuSans-32" x="127.246094"/>
       <use xlink:href="#DejaVuSans-30" x="190.869141"/>
      </g>
     </g>
    </g>
    <g id="xtick_7">
     <g id="line2d_7">
      <g>
       <use xlink:href="#m3d60d97f28" x="656.581535" y="327.558125" style="stroke: #000000; stroke-width: 0.8"/>
      </g>
     </g>
     <g id="text_7">
      <!-- 2022 -->
      <g transform="translate(643.856535 342.156563) scale(0.1 -0.1)">
       <use xlink:href="#DejaVuSans-32"/>
       <use xlink:href="#DejaVuSans-30" x="63.623047"/>
       <use xlink:href="#DejaVuSans-32" x="127.246094"/>
       <use xlink:href="#DejaVuSans-32" x="190.869141"/>
      </g>
     </g>
    </g>
   </g>
   <g id="matplotlib.axis_2">
    <g id="ytick_1">
     <g id="line2d_8">
      <defs>
       <path id="m86b18c8862" d="M 0 0 
L -3.5 0 
" style="stroke: #000000; stroke-width: 0.8"/>
      </defs>
      <g>
       <use xlink:href="#m86b18c8862" x="46.0125" y="313.656405" style="stroke: #000000; stroke-width: 0.8"/>
      </g>
     </g>
     <g id="text_8">
      <!-- 0 -->
      <g transform="translate(32.65 317.455624) scale(0.1 -0.1)">
       <use xlink:href="#DejaVuSans-30"/>
      </g>
     </g>
    </g>
    <g id="ytick_2">
     <g id="line2d_9">
      <g>
       <use xlink:href="#m86b18c8862" x="46.0125" y="272.483372" style="stroke: #000000; stroke-width: 0.8"/>
      </g>
     </g>
     <g id="text_9">
      <!-- 10000 -->
      <g transform="translate(7.2 276.282591) scale(0.1 -0.1)">
       <use xlink:href="#DejaVuSans-31"/>
       <use xlink:href="#DejaVuSans-30" x="63.623047"/>
       <use xlink:href="#DejaVuSans-30" x="127.246094"/>
       <use xlink:href="#DejaVuSans-30" x="190.869141"/>
       <use xlink:href="#DejaVuSans-30" x="254.492188"/>
      </g>
     </g>
    </g>
    <g id="ytick_3">
     <g id="line2d_10">
      <g>
       <use xlink:href="#m86b18c8862" x="46.0125" y="231.310338" style="stroke: #000000; stroke-width: 0.8"/>
      </g>
     </g>
     <g id="text_10">
      <!-- 20000 -->
      <g transform="translate(7.2 235.109557) scale(0.1 -0.1)">
       <use xlink:href="#DejaVuSans-32"/>
       <use xlink:href="#DejaVuSans-30" x="63.623047"/>
       <use xlink:href="#DejaVuSans-30" x="127.246094"/>
       <use xlink:href="#DejaVuSans-30" x="190.869141"/>
       <use xlink:href="#DejaVuSans-30" x="254.492188"/>
      </g>
     </g>
    </g>
    <g id="ytick_4">
     <g id="line2d_11">
      <g>
       <use xlink:href="#m86b18c8862" x="46.0125" y="190.137305" style="stroke: #000000; stroke-width: 0.8"/>
      </g>
     </g>
     <g id="text_11">
      <!-- 30000 -->
      <g transform="translate(7.2 193.936523) scale(0.1 -0.1)">
       <defs>
        <path id="DejaVuSans-33" d="M 2597 2516 
Q 3050 2419 3304 2112 
Q 3559 1806 3559 1356 
Q 3559 666 3084 287 
Q 2609 -91 1734 -91 
Q 1441 -91 1130 -33 
Q 819 25 488 141 
L 488 750 
Q 750 597 1062 519 
Q 1375 441 1716 441 
Q 2309 441 2620 675 
Q 2931 909 2931 1356 
Q 2931 1769 2642 2001 
Q 2353 2234 1838 2234 
L 1294 2234 
L 1294 2753 
L 1863 2753 
Q 2328 2753 2575 2939 
Q 2822 3125 2822 3475 
Q 2822 3834 2567 4026 
Q 2313 4219 1838 4219 
Q 1578 4219 1281 4162 
Q 984 4106 628 3988 
L 628 4550 
Q 988 4650 1302 4700 
Q 1616 4750 1894 4750 
Q 2613 4750 3031 4423 
Q 3450 4097 3450 3541 
Q 3450 3153 3228 2886 
Q 3006 2619 2597 2516 
z
" transform="scale(0.015625)"/>
       </defs>
       <use xlink:href="#DejaVuSans-33"/>
       <use xlink:href="#DejaVuSans-30" x="63.623047"/>
       <use xlink:href="#DejaVuSans-30" x="127.246094"/>
       <use xlink:href="#DejaVuSans-30" x="190.869141"/>
       <use xlink:href="#DejaVuSans-30" x="254.492188"/>
      </g>
     </g>
    </g>
    <g id="ytick_5">
     <g id="line2d_12">
      <g>
       <use xlink:href="#m86b18c8862" x="46.0125" y="148.964271" style="stroke: #000000; stroke-width: 0.8"/>
      </g>
     </g>
     <g id="text_12">
      <!-- 40000 -->
      <g transform="translate(7.2 152.76349) scale(0.1 -0.1)">
       <use xlink:href="#DejaVuSans-34"/>
       <use xlink:href="#DejaVuSans-30" x="63.623047"/>
       <use xlink:href="#DejaVuSans-30" x="127.246094"/>
       <use xlink:href="#DejaVuSans-30" x="190.869141"/>
       <use xlink:href="#DejaVuSans-30" x="254.492188"/>
      </g>
     </g>
    </g>
    <g id="ytick_6">
     <g id="line2d_13">
      <g>
       <use xlink:href="#m86b18c8862" x="46.0125" y="107.791238" style="stroke: #000000; stroke-width: 0.8"/>
      </g>
     </g>
     <g id="text_13">
      <!-- 50000 -->
      <g transform="translate(7.2 111.590456) scale(0.1 -0.1)">
       <defs>
        <path id="DejaVuSans-35" d="M 691 4666 
L 3169 4666 
L 3169 4134 
L 1269 4134 
L 1269 2991 
Q 1406 3038 1543 3061 
Q 1681 3084 1819 3084 
Q 2600 3084 3056 2656 
Q 3513 2228 3513 1497 
Q 3513 744 3044 326 
Q 2575 -91 1722 -91 
Q 1428 -91 1123 -41 
Q 819 9 494 109 
L 494 744 
Q 775 591 1075 516 
Q 1375 441 1709 441 
Q 2250 441 2565 725 
Q 2881 1009 2881 1497 
Q 2881 1984 2565 2268 
Q 2250 2553 1709 2553 
Q 1456 2553 1204 2497 
Q 953 2441 691 2322 
L 691 4666 
z
" transform="scale(0.015625)"/>
       </defs>
       <use xlink:href="#DejaVuSans-35"/>
       <use xlink:href="#DejaVuSans-30" x="63.623047"/>
       <use xlink:href="#DejaVuSans-30" x="127.246094"/>
       <use xlink:href="#DejaVuSans-30" x="190.869141"/>
       <use xlink:href="#DejaVuSans-30" x="254.492188"/>
      </g>
     </g>
    </g>
    <g id="ytick_7">
     <g id="line2d_14">
      <g>
       <use xlink:href="#m86b18c8862" x="46.0125" y="66.618204" style="stroke: #000000; stroke-width: 0.8"/>
      </g>
     </g>
     <g id="text_14">
      <!-- 60000 -->
      <g transform="translate(7.2 70.417423) scale(0.1 -0.1)">
       <use xlink:href="#DejaVuSans-36"/>
       <use xlink:href="#DejaVuSans-30" x="63.623047"/>
       <use xlink:href="#DejaVuSans-30" x="127.246094"/>
       <use xlink:href="#DejaVuSans-30" x="190.869141"/>
       <use xlink:href="#DejaVuSans-30" x="254.492188"/>
      </g>
     </g>
    </g>
    <g id="ytick_8">
     <g id="line2d_15">
      <g>
       <use xlink:href="#m86b18c8862" x="46.0125" y="25.445171" style="stroke: #000000; stroke-width: 0.8"/>
      </g>
     </g>
     <g id="text_15">
      <!-- 70000 -->
      <g transform="translate(7.2 29.244389) scale(0.1 -0.1)">
       <defs>
        <path id="DejaVuSans-37" d="M 525 4666 
L 3525 4666 
L 3525 4397 
L 1831 0 
L 1172 0 
L 2766 4134 
L 525 4134 
L 525 4666 
z
" transform="scale(0.015625)"/>
       </defs>
       <use xlink:href="#DejaVuSans-37"/>
       <use xlink:href="#DejaVuSans-30" x="63.623047"/>
       <use xlink:href="#DejaVuSans-30" x="127.246094"/>
       <use xlink:href="#DejaVuSans-30" x="190.869141"/>
       <use xlink:href="#DejaVuSans-30" x="254.492188"/>
      </g>
     </g>
    </g>
   </g>
   <g id="line2d_16">
    <path d="M 76.003864 313.585999 
L 76.38875 313.567575 
L 79.314943 313.462686 
L 79.320215 313.448173 
L 79.383484 313.585073 
L 79.568019 313.620276 
L 80.701589 313.597734 
L 80.717406 312.204335 
L 80.81231 313.49758 
L 81.028479 313.617394 
L 81.286827 313.537415 
L 81.313189 308.500821 
L 81.408093 312.839429 
L 81.608445 313.443644 
L 81.9037 313.557796 
L 81.966969 313.532166 
L 81.972242 313.478538 
L 82.146232 308.521408 
L 82.209501 310.359783 
L 82.314949 311.979942 
L 82.330766 310.749898 
L 82.336039 309.759687 
L 82.436215 311.475573 
L 82.462577 311.37264 
L 82.488939 311.085458 
L 82.499484 310.970174 
L 82.568025 311.494101 
L 82.626022 312.133312 
L 83.432702 313.404941 
L 83.601419 313.468039 
L 83.849223 313.517755 
L 84.893162 313.505197 
L 84.903707 312.74679 
L 85.003883 313.464024 
L 85.177872 313.506536 
L 85.198962 313.486464 
L 85.283321 313.543488 
L 86.079456 313.601336 
L 86.875591 313.49758 
L 86.917771 313.455584 
L 86.975767 313.540092 
L 87.144485 313.580441 
L 87.155029 313.405044 
L 87.260478 313.51405 
L 87.281568 313.46773 
L 87.434468 313.567575 
L 88.119882 313.479876 
L 88.151517 312.633564 
L 88.167334 312.361822 
L 88.24642 313.114259 
L 88.39932 313.345652 
L 88.42041 313.287804 
L 88.4415 312.630476 
L 88.499496 308.978428 
L 88.589127 262.644355 
L 88.615489 296.344483 
L 88.752572 310.108628 
L 88.952924 312.194042 
L 89.206 313.060734 
L 89.216545 312.961919 
L 89.258725 310.862094 
L 89.37999 312.009793 
L 89.701608 313.122494 
L 89.891415 313.294597 
L 89.991591 313.337829 
L 90.218305 313.425116 
L 91.056619 313.333506 
L 91.077709 313.014415 
L 91.093526 311.847159 
L 91.193702 312.408142 
L 91.378237 312.994858 
L 91.394054 312.314473 
L 91.415144 301.542578 
L 91.510047 309.499267 
L 91.720944 312.111696 
L 91.894934 312.516221 
L 91.900206 312.495635 
L 91.916024 311.773048 
L 91.947658 306.946539 
L 92.042562 309.904821 
L 92.14801 311.191479 
L 92.1691 310.241411 
L 92.174372 310.218766 
L 92.206007 310.5183 
L 92.506535 312.584157 
L 92.717431 313.060734 
L 92.912511 313.246013 
L 93.028504 313.184254 
L 93.044321 312.068464 
L 93.065411 302.232227 
L 93.165587 308.809619 
L 93.350122 311.710259 
L 93.503022 312.500781 
L 93.529384 312.232127 
L 93.645377 309.231642 
L 93.713918 309.658813 
L 93.740281 309.866736 
L 93.95645 311.691731 
L 93.998629 311.267649 
L 94.019719 302.24252 
L 94.114622 309.406628 
L 94.341336 311.927447 
L 94.636592 312.966037 
L 94.947664 313.246013 
L 95.401093 313.353886 
L 95.580355 313.387648 
L 95.749072 313.398353 
L 95.928334 313.418528 
L 96.207773 313.254248 
L 96.228862 312.933098 
L 96.323766 313.192488 
L 96.481938 313.272776 
L 96.492483 313.2666 
L 96.70338 313.345652 
L 97.958216 313.241896 
L 98.005667 313.165726 
L 98.074209 313.225427 
L 98.221837 313.243954 
L 98.227109 313.221309 
L 98.264016 312.130224 
L 98.290378 309.272815 
L 98.380009 310.997966 
L 98.601451 312.555335 
L 98.849254 313.031913 
L 98.923068 313.134846 
L 99.002155 313.171902 
L 99.017972 313.127641 
L 99.086513 311.975825 
L 99.197234 312.361822 
L 99.729748 313.15955 
L 99.940645 313.2666 
L 100.130452 313.320948 
L 100.93186 313.241896 
L 100.958222 312.577981 
L 100.989856 297.641433 
L 101.005674 279.010636 
L 101.095305 304.857008 
L 101.279839 311.091634 
L 101.75963 313.036031 
L 101.933619 313.171902 
L 102.097064 313.28101 
L 102.281599 313.329594 
L 102.877382 313.41194 
L 104.042587 313.367268 
L 104.079494 313.023679 
L 104.100584 312.88369 
L 104.190215 313.027796 
L 104.20076 313.019561 
L 104.264029 313.102937 
L 104.269301 313.106025 
L 104.427474 313.00721 
L 104.517105 312.226981 
L 104.532922 299.267768 
L 104.633098 309.713367 
L 104.822905 311.987148 
L 104.849267 312.123019 
L 104.875629 311.798781 
L 104.901991 311.360288 
L 104.98635 311.673203 
L 105.371237 312.953685 
L 105.539954 313.147198 
L 105.550499 313.12867 
L 105.655947 311.842013 
L 105.777213 312.24345 
L 105.96702 312.735468 
L 106.051379 312.8384 
L 106.262275 313.093673 
L 106.362451 312.986623 
L 106.399358 311.712318 
L 106.441538 309.386041 
L 106.520624 310.359783 
L 106.7737 312.301092 
L 106.79479 312.377262 
L 106.831697 312.002588 
L 106.863331 310.391693 
L 106.889693 296.118031 
L 106.979324 308.469941 
L 107.153314 311.335584 
L 107.227128 311.786429 
L 107.411663 312.485341 
L 107.859818 313.122494 
L 107.870363 313.106025 
L 107.944177 313.171902 
L 107.954722 313.171902 
L 108.339608 313.28101 
L 108.508326 313.287186 
L 108.513598 313.2666 
L 108.571595 312.667532 
L 108.703405 312.857957 
L 109.183195 313.171902 
L 109.430999 313.274834 
L 109.562809 313.303655 
L 109.778979 313.329594 
L 110.237679 313.391354 
L 110.474938 313.303552 
L 110.559297 312.933098 
L 110.63311 313.003092 
L 110.691107 313.011327 
L 110.712197 312.953685 
L 110.754376 312.879573 
L 110.817645 312.953685 
L 111.007452 313.122494 
L 111.624325 313.355842 
L 111.951215 313.359754 
L 112.225381 313.217192 
L 112.489002 313.150286 
L 112.515364 311.399403 
L 112.536454 309.744247 
L 112.626085 311.064872 
L 112.852799 312.418435 
L 113.084785 313.011327 
L 113.59621 313.314463 
L 113.612027 313.285951 
L 113.670024 312.6243 
L 113.812379 312.912512 
L 113.917827 313.015444 
L 114.170904 313.20484 
L 114.492521 313.312302 
L 114.671783 313.361709 
L 115.894984 313.472053 
L 116.227147 313.490169 
L 116.232419 313.457025 
L 116.285143 312.865163 
L 116.374775 312.386526 
L 116.311506 312.978388 
L 116.401137 312.504899 
L 116.617306 313.213075 
L 116.828203 313.383943 
L 117.160365 313.324962 
L 117.318538 311.889362 
L 117.32381 311.905831 
L 117.719241 313.274834 
L 117.740331 313.2666 
L 118.183214 313.472053 
L 118.942443 313.38734 
L 118.984622 313.056617 
L 119.063708 313.221309 
L 119.09007 313.260424 
L 119.095343 313.248072 
L 119.184974 312.28874 
L 119.206064 312.535778 
L 119.390598 313.20484 
L 119.601495 313.380237 
L 119.606767 313.365415 
L 119.643674 313.075145 
L 119.691126 311.809074 
L 119.775485 312.345353 
L 120.007471 313.183224 
L 120.286909 313.392898 
L 120.344906 313.162638 
L 120.408175 313.294597 
L 120.471444 313.339785 
L 120.481989 313.218221 
L 120.492534 312.937215 
L 120.587437 313.237779 
L 120.903782 313.437879 
L 121.267579 313.51405 
L 121.663011 313.53443 
L 122.258794 313.552135 
L 122.369515 313.233661 
L 122.38006 254.502388 
L 122.390604 36.19267 
L 122.485508 308.449355 
L 122.659498 312.234186 
L 122.880939 313.28101 
L 123.260554 313.491404 
L 123.460906 313.51652 
L 123.613806 313.526401 
L 123.845792 313.54565 
L 136.895029 313.654861 
L 137.058474 313.657991 
L 147.866932 313.557693 
L 147.888022 313.156462 
L 147.909112 312.458579 
L 147.99347 313.291921 
L 148.14637 313.49511 
L 148.156915 313.478744 
L 148.18855 313.383943 
L 148.272909 313.470715 
L 148.51544 313.571692 
L 148.636705 313.58322 
L 148.910871 313.603189 
L 149.137585 313.612041 
L 149.533017 313.617394 
L 149.78082 313.630466 
L 149.965355 313.615953 
L 150.756218 313.612144 
L 151.167466 313.605042 
L 151.341456 313.612144 
L 151.515446 313.615232 
L 151.989964 313.573648 
L 152.005781 311.498218 
L 152.100685 313.125582 
L 152.121774 313.217192 
L 152.148136 312.848693 
L 152.169226 303.776215 
L 152.26413 311.609385 
L 152.459209 313.249101 
L 152.733375 313.481317 
L 153.023358 313.403294 
L 153.745679 313.527328 
L 155.105963 313.498918 
L 155.121781 306.545102 
L 155.232501 311.808045 
L 155.422308 313.011327 
L 155.527757 313.248072 
L 155.569936 313.1894 
L 155.575209 313.178078 
L 155.633205 313.305817 
L 155.791378 313.399897 
L 156.012819 313.464024 
L 156.165719 313.482758 
L 156.323892 313.51405 
L 156.329164 313.507668 
L 156.661327 313.485228 
L 156.830044 313.42666 
L 157.141117 313.487699 
L 157.573455 313.493875 
L 157.715811 313.505197 
L 157.721083 313.500154 
L 161.343235 313.522696 
L 161.359052 311.921271 
L 161.380142 310.676816 
L 161.4645 312.453432 
L 161.691214 313.351828 
L 161.896839 313.462583 
L 162.097191 313.361195 
L 162.128825 306.174545 
L 162.13937 304.867301 
L 162.186822 308.943431 
L 162.223729 308.789032 
L 162.418808 312.278447 
L 162.592798 313.131758 
L 162.603343 312.80855 
L 162.708791 242.469568 
L 162.745698 297.682606 
L 162.835329 308.387595 
L 162.888053 307.852346 
L 163.093678 311.232652 
L 163.330937 312.202277 
L 163.352026 311.918183 
L 163.367844 306.894043 
L 163.483837 289.612692 
L 163.758003 310.635643 
L 164.047986 312.520338 
L 164.417055 313.257336 
L 164.612134 313.365415 
L 164.90739 313.439321 
L 165.756249 313.510138 
L 166.146408 312.924863 
L 166.209677 313.015444 
L 166.267674 313.171902 
L 166.526022 312.207423 
L 166.573474 312.458579 
L 166.599836 312.443139 
L 166.805461 313.15955 
L 167.069082 313.403294 
L 167.142895 313.402985 
L 167.15344 313.428204 
L 167.917941 313.482449 
L 167.923213 313.461245 
L 167.991755 313.517755 
L 168.018117 313.51405 
L 168.186834 313.549973 
L 168.355552 313.555531 
L 168.824797 313.564487 
L 169.077873 313.585999 
L 169.178049 313.590631 
L 171.044485 313.581265 
L 171.05503 313.554399 
L 171.118299 313.609056 
L 171.149934 313.602263 
L 171.323924 313.620276 
L 171.613907 313.586926 
L 171.787896 313.598043 
L 172.025155 313.615953 
L 172.905649 313.605865 
L 173.195632 313.619555 
L 174.113033 313.637877 
L 174.123578 313.485228 
L 174.223754 313.601336 
L 181.209709 313.498301 
L 181.246616 313.28101 
L 181.315157 313.529901 
L 181.526054 313.622438 
L 181.889851 313.620276 
L 187.705329 313.52249 
L 187.715874 313.503859 
L 187.800232 313.57478 
L 188.25366 313.625937 
L 188.459285 313.533195 
L 188.464557 313.448173 
L 188.490919 308.830205 
L 188.58055 310.331992 
L 188.749268 312.978388 
L 188.912713 313.363562 
L 189.176334 313.498816 
L 189.186879 312.870824 
L 189.202696 284.404303 
L 189.297599 307.831759 
L 189.308144 296.375363 
L 189.318689 267.173389 
L 189.413593 308.912551 
L 189.6034 312.3505 
L 189.840659 313.20484 
L 189.856476 313.223368 
L 189.872293 313.086468 
L 189.940834 312.867221 
L 189.988286 312.94545 
L 190.209728 313.255277 
L 190.436442 313.431292 
L 190.800239 313.527637 
L 190.837146 313.488831 
L 190.842418 313.453422 
L 190.879325 312.322708 
L 191.016408 302.520438 
L 191.053315 306.730381 
L 191.222032 311.819368 
L 191.432929 313.056617 
L 191.606919 313.345652 
L 191.886357 313.502521 
L 192.207975 313.518887 
L 192.213247 313.493875 
L 192.239609 313.215957 
L 192.387237 309.714396 
L 192.413599 310.127156 
L 192.598134 312.510045 
L 192.793213 313.209987 
L 192.824848 313.2666 
L 192.840665 313.123523 
L 192.888117 310.888857 
L 192.988293 312.019057 
L 193.230824 313.186312 
L 193.388996 313.398353 
L 193.626255 313.51899 
L 193.758066 313.376532 
L 193.895149 313.393104 
L 194.216766 313.502521 
L 194.506749 313.584147 
L 195.508509 313.647965 
L 195.592867 313.574162 
L 195.635047 313.277922 
L 195.719406 313.369121 
L 196.019933 313.528769 
L 197.07969 313.643127 
L 197.422397 313.503962 
L 197.443486 312.027291 
L 197.469849 304.599676 
L 197.55948 309.231642 
L 197.780921 312.030379 
L 198.033997 312.949567 
L 198.355615 313.246013 
L 198.666688 313.17499 
L 198.687777 310.5183 
L 198.703595 308.727273 
L 198.793226 311.077224 
L 199.093754 312.735468 
L 199.230836 313.019561 
L 199.410099 313.223368 
L 199.721171 313.372826 
L 199.932068 313.331653 
L 200.717659 313.141022 
L 200.80729 313.179107 
L 200.844197 313.122494 
L 200.881104 313.114259 
L 200.91801 313.171902 
L 200.9391 313.178078 
L 201.165814 313.201752 
L 201.466342 313.383943 
L 201.719418 313.429748 
L 201.988312 313.465362 
L 202.636819 313.51652 
L 202.794992 313.51899 
L 202.92153 313.408441 
L 202.942619 313.116318 
L 202.963709 306.956832 
L 203.05334 310.86827 
L 203.24842 312.432846 
L 203.253692 312.437992 
L 203.269509 312.299033 
L 203.301144 310.694314 
L 203.316961 305.587829 
L 203.411865 310.208473 
L 203.585854 312.036555 
L 203.591127 312.035526 
L 203.828386 312.871339 
L 204.086734 313.231603 
L 204.413624 313.141022 
L 204.461076 311.185303 
L 204.503255 304.465864 
L 204.592886 307.718533 
L 204.714152 310.8693 
L 204.740514 309.895558 
L 204.756331 309.118417 
L 204.84069 310.544033 
L 205.041042 312.186837 
L 205.051587 312.18169 
L 205.346842 313.073086 
L 205.66846 313.329594 
L 206.011167 313.431395 
L 206.084981 313.436027 
L 206.090253 313.42563 
L 206.137705 312.703558 
L 206.211519 313.015444 
L 206.227336 313.056617 
L 206.243154 312.827078 
L 206.269516 309.15959 
L 206.359147 311.187361 
L 206.612223 312.79311 
L 206.807302 313.183224 
L 206.95493 313.287186 
L 207.171099 313.401647 
L 207.787972 313.303552 
L 207.830152 313.1894 
L 207.909238 313.284098 
L 208.162314 313.431395 
L 209.280067 313.542356 
L 209.601684 313.56006 
L 209.633319 313.417499 
L 209.649136 310.634613 
L 209.654408 304.507037 
L 209.754584 312.207423 
L 209.923302 313.1894 
L 210.192195 313.439115 
L 210.650896 313.353784 
L 210.666713 313.272776 
L 210.756344 313.376532 
L 211.019965 313.49511 
L 211.141231 313.393104 
L 211.188682 313.262482 
L 211.273041 313.353784 
L 211.64211 313.498816 
L 213.192202 313.605865 
L 213.350374 313.613688 
L 213.935613 313.615232 
L 214.051606 313.545753 
L 215.475159 313.47967 
L 215.501521 312.063318 
L 215.638604 312.818843 
L 215.786232 313.432939 
L 215.791504 313.419763 
L 216.598184 313.616673 
L 217.652668 313.648685 
L 220.737033 313.549973 
L 220.763395 313.528769 
L 220.831936 313.607512 
L 221.143009 313.658124 
L 222.292396 313.611012 
L 222.297669 313.496345 
L 222.403117 313.612041 
L 222.956721 313.669581 
L 225.165865 313.57375 
L 225.208044 313.491404 
L 225.281858 313.570663 
L 225.640382 313.653626 
L 226.167624 313.634687 
L 226.315252 313.643127 
L 226.673776 313.667687 
L 227.206291 313.58322 
L 227.332829 313.473391 
L 227.353918 313.44982 
L 227.427732 313.533298 
L 227.622812 313.607512 
L 228.57712 313.649097 
L 228.735292 313.649818 
L 228.914554 313.632216 
L 229.120179 313.624085 
L 229.399617 313.645803 
L 230.211569 313.645186 
L 230.881167 313.600513 
L 231.123698 313.633863 
L 231.877654 313.640039 
L 232.742331 313.633863 
L 234.366236 313.535562 
L 234.382053 313.478744 
L 234.471684 313.554399 
L 234.70367 313.608336 
L 234.951474 313.617394 
L 235.404902 313.62779 
L 236.027047 313.630569 
L 237.777491 313.569324 
L 237.803853 312.080816 
L 237.904029 313.243954 
L 238.067474 313.482758 
L 238.072746 313.48142 
L 238.246736 313.551105 
L 239.042871 313.594337 
L 239.886458 313.521358 
L 239.949727 313.277922 
L 240.018269 313.33577 
L 240.21862 313.361709 
L 240.223893 313.353784 
L 240.355703 313.150286 
L 240.403155 313.228515 
L 240.54551 313.365415 
L 240.661504 313.160579 
L 240.703683 311.951121 
L 240.798587 312.386526 
L 240.89349 312.801344 
L 241.093842 313.307979 
L 241.816163 313.488934 
L 241.884705 313.20484 
L 242.000698 312.986623 
L 242.042877 313.036031 
L 242.116691 313.170872 
L 242.132508 312.982506 
L 242.158871 311.201772 
L 242.190505 289.211255 
L 242.269591 309.211056 
L 242.459398 312.278447 
L 242.749381 313.150286 
L 243.086816 313.378384 
L 243.587696 313.476067 
L 244.352197 313.381987 
L 244.378559 312.641799 
L 244.394376 312.222863 
L 244.484007 312.671649 
L 244.758173 313.237779 
L 244.868894 313.296862 
L 245.111425 313.363459 
L 245.29596 313.413587 
L 245.475222 313.434586 
L 245.638667 313.436027 
L 245.79684 313.330933 
L 245.833746 312.22801 
L 245.94974 312.645916 
L 246.039371 312.871339 
L 246.092095 312.796198 
L 246.229178 312.903248 
L 246.424257 313.114259 
L 246.42953 313.107054 
L 246.498071 313.195576 
L 246.503344 313.192488 
L 246.661516 313.299126 
L 246.666789 313.296862 
L 246.830234 313.34174 
L 246.840778 313.307773 
L 246.946227 313.316625 
L 246.951499 313.325271 
L 247.08331 313.357798 
L 247.088582 313.351828 
L 247.194031 313.065881 
L 247.246755 310.635643 
L 247.331113 311.380875 
L 247.594734 312.641799 
L 247.705455 312.895013 
L 247.795086 312.769435 
L 247.800359 312.760171 
L 247.879445 312.840459 
L 247.990166 312.966037 
L 248.169428 313.170872 
L 248.438321 313.318786 
L 248.622856 313.343799 
L 248.628128 313.357798 
L 249.213367 313.457025 
L 249.355722 313.312302 
L 249.408446 313.011327 
L 249.513895 313.106025 
L 249.698429 313.259394 
L 249.846057 313.320948 
L 250.088588 313.378384 
L 250.373299 313.369121 
L 250.389116 313.349769 
L 250.478747 313.391354 
L 250.826727 313.285025 
L 250.858362 310.515212 
L 250.9849 311.910978 
L 251.206341 312.787963 
L 251.433055 313.15955 
L 251.738856 313.307979 
L 251.991932 313.225427 
L 252.018294 312.155957 
L 252.034111 311.578505 
L 252.129015 312.165221 
L 252.134287 312.142576 
L 252.181739 312.422552 
L 252.276642 312.740614 
L 252.29246 312.458579 
L 252.334639 307.193577 
L 252.440087 310.766367 
L 252.476994 311.134866 
L 252.524446 310.601675 
L 252.534991 310.649024 
L 252.561353 310.755045 
L 252.930422 312.717969 
L 252.983146 312.817814 
L 253.183498 313.147198 
L 253.267857 313.213075 
L 253.288947 313.121465 
L 253.336398 312.030379 
L 253.436574 312.401966 
L 253.636926 312.920746 
L 253.647471 312.908394 
L 253.984906 313.262482 
L 254.116716 313.316625 
L 254.253799 313.370973 
L 254.311796 313.273805 
L 254.317068 313.259394 
L 254.396155 313.325168 
L 254.406699 313.327433 
L 254.817948 313.410191 
L 254.976121 313.432939 
L 255.445366 313.32311 
L 255.698442 313.333712 
L 255.730077 313.357798 
L 257.027092 313.468039 
L 257.248533 313.480082 
L 257.78632 313.493875 
L 258.123755 313.391251 
L 258.339924 313.461245 
L 258.455917 313.261453 
L 258.492824 309.698956 
L 258.519186 303.796802 
L 258.598272 309.827622 
L 258.803897 312.391673 
L 259.109697 313.198664 
L 259.120242 313.1894 
L 259.626394 313.428204 
L 259.631667 313.355636 
L 259.647484 266.761658 
L 259.742387 309.478681 
L 259.832018 311.522922 
L 259.842563 311.094722 
L 259.884743 281.872162 
L 259.953284 307.306803 
L 260.116729 311.640265 
L 260.301264 312.817814 
L 260.464709 313.14411 
L 260.475254 313.12867 
L 260.506888 313.064852 
L 260.564885 313.181166 
L 260.570157 313.181166 
L 260.83905 313.403294 
L 260.849595 313.385796 
L 260.970861 313.428204 
L 261.102671 313.478641 
L 261.107944 313.472053 
L 261.229209 313.485228 
L 261.36102 313.529901 
L 261.587734 313.549973 
L 261.793358 313.522696 
L 262.072796 313.51405 
L 262.331145 313.561193 
L 266.496356 313.470612 
L 266.506901 313.130111 
L 266.517446 310.962968 
L 266.612349 313.221309 
L 266.759977 313.512814 
L 266.823246 313.490169 
L 266.833791 313.446732 
L 266.844336 313.120641 
L 266.860153 295.531315 
L 266.955056 311.609385 
L 267.139591 313.223368 
L 267.387395 313.470715 
L 267.85664 313.585073 
L 268.067537 313.598866 
L 268.362792 313.616673 
L 269.0113 313.594337 
L 269.269648 313.601336 
L 270.350494 313.638598 
L 270.740653 313.646524 
L 273.909377 313.539989 
L 273.946284 313.51652 
L 274.014825 313.575706 
L 274.37335 313.645803 
L 275.448923 313.631393 
L 275.733634 313.643333 
L 276.455955 313.641686 
L 276.703759 313.603189 
L 276.730121 313.512814 
L 276.819752 313.590631 
L 277.041194 313.607409 
L 277.046466 313.587852 
L 277.067556 313.16902 
L 277.0781 305.443723 
L 277.178276 311.825543 
L 277.383901 313.289657 
L 277.584253 313.466701 
L 278.475291 313.582294 
L 278.723095 313.370973 
L 278.738912 313.391251 
L 279.007806 313.487699 
L 279.018351 313.46248 
L 279.055258 313.085438 
L 279.092164 312.760171 
L 279.165978 313.036031 
L 279.38742 313.389501 
L 279.392692 313.387648 
L 279.587772 313.470715 
L 279.782851 313.378179 
L 279.793396 313.151315 
L 279.835576 296.076858 
L 279.909389 309.200763 
L 280.072834 312.3505 
L 280.436631 313.327433 
L 280.810973 313.488934 
L 281.823277 313.439012 
L 281.833822 310.200238 
L 281.96036 312.256831 
L 282.376881 313.207928 
L 282.524509 313.312302 
L 282.703771 313.394854 
L 283.357551 313.49511 
L 283.631717 313.244984 
L 283.694986 312.933098 
L 283.763528 313.040148 
L 283.94279 313.246013 
L 284.591297 313.2666 
L 284.654566 312.515192 
L 284.77056 312.79208 
L 285.007818 313.195576 
L 285.297801 313.365415 
L 285.487608 313.380237 
L 285.529788 313.085438 
L 285.55615 306.081905 
L 285.561422 305.093752 
L 285.640509 310.008783 
L 285.840861 312.530632 
L 286.136116 313.20484 
L 286.352285 313.369121 
L 286.563182 313.408441 
L 286.747717 313.466701 
L 286.963886 313.493875 
L 288.034187 313.383943 
L 288.071094 313.121465 
L 288.086911 309.413833 
L 288.102728 293.771168 
L 288.197632 309.025777 
L 288.392711 312.126107 
L 288.761781 313.177048 
L 289.057036 313.351828 
L 289.246843 313.389501 
L 289.394471 313.427174 
L 290.406775 313.520226 
L 290.986741 313.429851 
L 291.060555 313.093673 
L 291.171276 313.211016 
L 291.192366 313.219251 
L 291.224 313.117347 
L 291.313631 312.250655 
L 291.392718 312.510045 
L 291.577252 312.949567 
L 291.914687 313.272776 
L 292.589557 313.418528 
L 293.965658 313.528769 
L 294.508717 313.533298 
L 294.540352 313.404118 
L 294.593076 310.41125 
L 294.703797 311.996412 
L 294.919966 312.79208 
L 295.093956 313.096761 
L 295.890091 313.437879 
L 296.195891 313.458466 
L 296.227526 313.378282 
L 296.248615 312.653121 
L 296.264433 310.801364 
L 296.359336 311.900684 
L 296.538598 312.722086 
L 296.78113 313.201752 
L 296.786402 313.192488 
L 296.870761 313.268658 
L 296.992026 313.318684 
L 297.013116 313.294597 
L 297.08693 313.241896 
L 297.118564 310.63976 
L 297.139654 308.861085 
L 297.224013 310.829156 
L 297.41382 312.437992 
L 297.809251 313.08338 
L 297.830341 313.036031 
L 297.930517 312.74679 
L 297.983241 312.836341 
L 298.246862 313.114259 
L 298.325948 313.179107 
L 298.331221 313.186312 
L 298.85319 313.365312 
L 299.37516 313.305714 
L 299.522787 313.345755 
L 299.723139 313.383943 
L 299.839133 313.403294 
L 299.849677 313.39228 
L 299.870767 312.148752 
L 299.912946 306.400996 
L 299.98676 309.713367 
L 300.166022 312.081846 
L 300.366374 312.829136 
L 300.809258 313.252189 
L 300.893616 313.073086 
L 300.919978 312.923834 
L 301.004337 313.0525 
L 301.209961 313.19043 
L 301.673934 313.258365 
L 301.747748 313.260424 
L 301.784655 313.29892 
L 301.9481 313.360886 
L 302.158997 313.40103 
L 303.044763 313.330418 
L 303.055308 313.147198 
L 303.065853 309.365455 
L 303.166029 312.218746 
L 303.445467 313.116318 
L 303.540371 313.184254 
L 303.545643 313.087497 
L 303.577277 303.868855 
L 303.682726 310.592411 
L 303.830354 311.508511 
L 304.020161 312.480195 
L 304.23633 312.967066 
L 305.259179 313.443129 
L 305.385717 313.459701 
L 305.422624 313.358827 
L 305.491166 313.127641 
L 305.549162 313.252189 
L 305.575524 313.262482 
L 305.612431 313.119406 
L 305.754786 313.049412 
L 305.791693 311.729816 
L 305.897142 312.186837 
L 305.928776 312.300063 
L 305.949866 312.049937 
L 305.960411 312.000529 
L 306.02368 312.300063 
L 306.028952 312.286681 
L 306.260939 312.905306 
L 306.661642 313.29892 
L 306.688005 313.23572 
L 306.693277 313.211016 
L 306.782908 313.307567 
L 306.835632 313.332682 
L 306.872539 313.362842 
L 306.877812 313.370664 
L 306.898901 313.211016 
L 307.035984 311.050461 
L 307.051801 286.812926 
L 307.146705 309.324282 
L 307.231064 311.32735 
L 307.526319 312.905306 
L 307.589588 313.010298 
L 307.753033 313.212045 
L 308.343544 313.429645 
L 308.717886 313.487905 
L 308.723158 313.464436 
L 308.733703 313.406485 
L 308.833879 313.458054 
L 308.949872 313.486361 
L 309.287307 313.548532 
L 309.408573 313.544723 
L 309.540383 313.522387 
L 309.798732 313.570148 
L 310.737222 313.658505 
L 310.789946 313.579926 
L 310.800491 313.361092 
L 310.816309 306.339237 
L 310.916484 311.920241 
L 311.116836 312.717969 
L 311.327733 313.203811 
L 311.443726 313.307567 
L 311.506995 313.324242 
L 311.533357 313.252189 
L 311.543902 313.264541 
L 311.69153 313.318066 
L 311.828613 313.382399 
L 311.84443 313.354916 
L 311.934061 312.881632 
L 311.992058 312.314473 
L 312.065872 312.51725 
L 312.266224 313.001034 
L 312.577296 313.326301 
L 312.630021 313.332682 
L 312.635293 313.285025 
L 312.65111 312.070523 
L 312.761831 312.605772 
L 312.978 313.130729 
L 312.993818 313.129699 
L 313.046542 313.215133 
L 313.267983 313.355019 
L 313.468335 313.456407 
L 313.579056 313.417087 
L 313.647597 312.658268 
L 313.800498 312.842517 
L 314.027212 313.17396 
L 314.675719 313.492125 
L 314.696809 313.332682 
L 314.796985 312.68606 
L 314.854981 312.973242 
L 314.881343 313.040148 
L 314.897161 312.841488 
L 315.018426 309.211056 
L 315.055333 310.795188 
L 315.250413 312.599597 
L 315.255685 312.59445 
L 315.28732 312.710764 
L 315.556213 313.219251 
L 315.698568 313.328359 
L 315.89892 313.402882 
L 316.099272 313.44982 
L 316.325986 313.511373 
L 316.948132 313.579 
L 316.990311 313.556046 
L 317.058852 313.578897 
L 318.914744 313.495007 
L 318.925289 309.956288 
L 318.935834 306.308357 
L 319.030737 312.164192 
L 319.220544 312.896042 
L 319.426168 313.25013 
L 319.431441 313.246013 
L 320.601918 313.585485 
L 321.039529 313.60463 
L 322.695068 313.499536 
L 322.737247 312.882661 
L 322.837423 313.278952 
L 322.953417 313.389913 
L 322.974506 313.322183 
L 322.995596 311.373669 
L 323.122134 312.654151 
L 323.306669 313.200723 
L 323.707373 313.499845 
L 323.923542 313.54987 
L 324.714405 313.62182 
L 324.904212 313.515491 
L 324.941119 313.505609 
L 325.00966 313.551105 
L 325.431454 313.62604 
L 325.858519 313.518373 
L 326.027237 313.404735 
L 326.043054 313.42069 
L 326.280313 313.509932 
L 328.215291 313.40103 
L 328.341829 313.391766 
L 328.347101 313.399074 
L 328.658174 313.487905 
L 328.927067 313.529078 
L 329.132692 313.552341 
L 329.311954 313.558414 
L 329.470126 313.57128 
L 329.707385 313.474009 
L 329.775927 312.748849 
L 329.797016 312.526514 
L 329.881375 312.795168 
L 330.129179 313.209987 
L 330.382255 313.376532 
L 330.614241 313.404735 
L 330.761869 313.451467 
L 330.767141 313.448173 
L 330.898952 313.461348 
L 330.914769 313.418837 
L 330.935859 313.120435 
L 330.967493 311.124573 
L 331.057124 312.232127 
L 331.262749 312.942362 
L 331.268021 312.933098 
L 331.399832 312.973242 
L 331.594911 313.094702 
L 332.317233 313.391766 
L 332.50704 313.284098 
L 332.681029 312.994858 
L 332.696847 313.004122 
L 332.844474 313.112201 
L 333.071188 313.268658 
L 333.282085 313.00721 
L 333.303175 312.358734 
L 333.318992 263.879546 
L 333.324265 242.366636 
L 333.419168 306.575982 
L 333.582613 311.277942 
L 334.067676 313.022649 
L 334.341841 313.287186 
L 335.338328 313.397324 
L 335.75485 313.432939 
L 335.918295 313.2666 
L 335.928839 313.272776 
L 336.529895 313.389913 
L 336.735519 313.434586 
L 337.036047 313.332579 
L 337.157313 313.0525 
L 337.199492 313.09779 
L 337.447296 313.219251 
L 338.301428 313.436335 
L 338.528142 313.4772 
L 338.760128 313.486464 
L 338.907756 313.38981 
L 338.939391 313.320125 
L 339.018477 313.384355 
L 339.535174 313.330315 
L 339.598443 311.987148 
L 339.703891 312.459608 
L 339.756615 312.418435 
L 340.078233 312.839429 
L 340.610747 313.094702 
L 340.626565 313.044265 
L 340.795282 312.661356 
L 340.816372 312.669591 
L 340.958727 312.724145 
L 340.990361 312.404025 
L 341.021996 307.862639 
L 341.127444 311.064872 
L 341.317251 312.305209 
L 341.601962 312.829136 
L 341.628324 312.65518 
L 341.654686 309.876 
L 341.670504 306.102492 
L 341.760135 310.434924 
L 341.955214 312.250655 
L 342.060663 312.42667 
L 342.071207 312.301092 
L 342.139749 309.211056 
L 342.234652 310.948558 
L 342.40337 311.873922 
L 342.508818 312.296975 
L 342.68808 312.795168 
L 342.88316 312.973242 
L 343.03606 313.08338 
L 343.194233 313.15852 
L 343.204777 313.106025 
L 343.352405 312.936186 
L 343.357678 312.939274 
L 343.521123 313.063822 
L 343.526395 313.040148 
L 343.616026 313.114259 
L 343.621298 313.112201 
L 344.528155 313.348946 
L 344.538699 313.241999 
L 344.554517 286.658527 
L 344.64942 310.209502 
L 344.839227 312.314473 
L 345.466645 313.203811 
L 345.582638 313.25013 
L 345.709176 313.309728 
L 346.020249 313.344931 
L 346.025521 313.326301 
L 346.051884 312.745761 
L 346.072973 307.800879 
L 346.162604 311.379845 
L 346.336594 312.255802 
L 347.006191 313.217192 
L 347.174909 313.2666 
L 347.41744 313.338961 
L 347.422712 313.320125 
L 347.443802 313.036031 
L 347.475437 306.328943 
L 347.559795 310.615056 
L 347.74433 312.451374 
L 347.823416 312.63974 
L 347.949954 312.79208 
L 347.955227 312.788992 
L 348.324296 313.129699 
L 348.524648 313.290892 
L 348.640641 313.340917 
L 348.920079 313.411838 
L 349.173155 313.374576 
L 349.262787 309.23576 
L 349.273331 297.991404 
L 349.373507 306.884779 
L 349.457866 310.008783 
L 349.500045 309.200763 
L 349.526408 294.841667 
L 349.610766 308.716979 
L 349.768939 311.945975 
L 350.064194 312.848693 
L 350.285636 313.076174 
L 350.301453 307.29651 
L 350.311998 298.248736 
L 350.406902 308.994897 
L 350.575619 311.961414 
L 350.659978 312.391673 
L 350.675795 311.879068 
L 350.691612 296.210671 
L 350.786516 310.31964 
L 350.986868 312.314473 
L 350.99214 312.31962 
L 351.007957 312.206394 
L 351.023775 312.02935 
L 351.097588 312.39579 
L 351.171402 312.570775 
L 351.203037 312.383438 
L 351.413934 308.027331 
L 351.477203 309.976874 
L 351.651192 312.149781 
L 351.709189 312.36491 
L 351.719734 312.2733 
L 351.746096 311.858482 
L 351.825182 312.356676 
L 351.856817 312.443139 
L 351.867362 312.409171 
L 351.914813 307.944985 
L 352.004444 310.774602 
L 352.194251 312.27433 
L 352.573866 313.121465 
L 352.579138 313.119406 
L 352.884938 313.313846 
L 352.890211 313.277922 
L 352.900756 312.99074 
L 352.995659 313.289039 
L 353.000932 313.289039 
L 353.343639 313.40103 
L 353.507084 313.415337 
L 353.707436 313.464539 
L 353.960512 313.330624 
L 353.976329 313.356974 
L 354.155591 313.434586 
L 354.313764 313.35893 
L 354.319036 313.364797 
L 354.37176 313.296244 
L 354.408667 311.191479 
L 354.41394 310.146713 
L 354.514116 312.164192 
L 354.71974 313.103966 
L 354.867368 313.213075 
L 355.19953 313.434586 
L 355.326068 313.466289 
L 355.478968 313.409882 
L 355.489513 313.186312 
L 355.584417 313.436335 
L 355.795314 313.489449 
L 356.296193 313.391663 
L 356.391097 312.4874 
L 356.396369 312.082875 
L 356.491273 312.892954 
L 356.65999 313.238808 
L 356.81289 313.340814 
L 356.844525 313.271746 
L 356.85507 312.422552 
L 356.955246 312.91457 
L 357.150325 313.268658 
L 357.229411 313.350901 
L 357.456125 313.443232 
L 358.146812 313.544723 
L 358.515882 313.565516 
L 358.705689 313.560678 
L 359.702176 313.492022 
L 359.712721 313.322286 
L 359.781262 313.560781 
L 359.807624 313.543385 
L 359.918345 313.581059 
L 360.355956 313.598866 
L 360.60376 313.609262 
L 360.761932 313.598866 
L 360.962284 313.612041 
L 362.232937 313.508491 
L 362.254027 313.453113 
L 362.296206 313.531754 
L 362.338385 313.530416 
L 362.52292 313.606483 
L 362.907807 313.586514 
L 363.113431 313.607409 
L 363.814663 313.620894 
L 363.98338 313.62604 
L 364.178459 313.629334 
L 364.457898 313.638392 
L 366.303244 313.56284 
L 366.313789 313.502624 
L 366.408693 313.591661 
L 366.698676 313.634069 
L 370.436821 313.467524 
L 370.479 313.280598 
L 370.542269 313.469686 
L 370.579176 313.517343 
L 370.6319 313.429233 
L 370.642445 313.431292 
L 370.763711 313.461863 
L 370.768983 313.469686 
L 371.085328 313.578794 
L 371.375311 313.613585 
L 371.406946 313.450334 
L 371.433308 308.65522 
L 371.538756 312.453432 
L 371.733836 313.291406 
L 372.065998 313.513947 
L 372.081815 313.486875 
L 372.145084 312.868251 
L 372.160902 305.289324 
L 372.255805 311.494101 
L 372.435067 312.858987 
L 372.640692 313.275864 
L 373.415737 313.504992 
L 373.515913 313.30417 
L 373.616089 308.665513 
L 373.637179 303.024808 
L 373.721538 309.837915 
L 373.906072 312.18272 
L 374.190783 313.031913 
L 374.269869 313.135875 
L 374.501856 313.322286 
L 374.754932 313.420896 
L 374.83929 313.151315 
L 374.86038 311.248092 
L 374.939466 266.967523 
L 375.018553 287.976064 
L 375.16618 308.305249 
L 375.250539 309.427214 
L 375.424529 311.306763 
L 375.68815 312.47196 
L 375.835778 312.768406 
L 376.199574 313.138963 
L 376.289206 313.157491 
L 376.310295 313.194547 
L 376.510647 313.2666 
L 376.616095 313.288421 
L 376.621368 313.293774 
L 376.826992 313.347299 
L 376.869172 313.215133 
L 376.906079 312.545042 
L 376.942985 305.587829 
L 377.037889 310.202297 
L 377.238241 312.082875 
L 377.533496 312.912512 
L 378.102918 313.293671 
L 378.134552 313.246013 
L 378.150369 312.805462 
L 378.171459 308.480234 
L 378.266363 311.304705 
L 378.540528 312.677825 
L 378.545801 312.669591 
L 378.630159 312.80855 
L 378.672339 312.673708 
L 378.682884 311.334555 
L 378.74088 265.938198 
L 378.798877 300.37944 
L 378.957049 310.392722 
L 379.257577 312.466813 
L 379.452657 312.879573 
L 379.716278 313.185283 
L 380.006261 313.319713 
L 380.02735 313.25013 
L 380.190795 313.000004 
L 380.306789 312.778699 
L 380.348968 310.177593 
L 380.449144 311.521892 
L 380.649496 312.504899 
L 381.171465 313.200723 
L 381.587986 313.387237 
L 383.475512 313.48317 
L 383.596778 313.499639 
L 386.032636 313.396089 
L 386.116994 312.492547 
L 386.211898 312.714881 
L 386.449157 313.151315 
L 386.580967 313.254248 
L 386.744412 313.324859 
L 386.865678 313.324448 
L 386.913129 311.623796 
L 387.02385 312.301092 
L 387.087119 312.523426 
L 387.113481 312.187866 
L 387.139843 312.048907 
L 387.213657 312.280505 
L 387.603816 313.079262 
L 387.751444 313.188371 
L 387.772534 313.202781 
L 387.793623 313.180136 
L 387.825258 308.953724 
L 387.914889 304.743782 
L 387.877982 309.262522 
L 387.941251 306.689208 
L 387.993975 308.62434 
L 388.041427 306.020146 
L 388.436859 312.362852 
L 388.442131 312.357705 
L 388.463221 310.781807 
L 388.579214 311.894508 
L 388.790111 312.681943 
L 388.948283 312.9753 
L 388.98519 312.949567 
L 389.095911 312.780758 
L 389.143363 312.875456 
L 389.749691 313.258262 
L 389.802415 312.834283 
L 389.886774 312.916629 
L 390.556371 313.349563 
L 390.572188 313.327227 
L 390.646002 312.867221 
L 390.688181 312.747819 
L 390.756723 312.842517 
L 391.125792 313.215133 
L 391.758482 313.459907 
L 392.016831 313.479464 
L 392.043193 313.47545 
L 392.048465 313.431189 
L 392.074827 312.301092 
L 392.090645 304.57909 
L 392.185548 310.992819 
L 392.380628 312.528573 
L 392.881508 313.224397 
L 392.88678 313.219251 
L 392.986956 311.123543 
L 393.071315 310.065396 
L 393.113494 310.491537 
L 393.182035 311.241916 
L 393.203125 310.513153 
L 393.224215 308.15085 
L 393.313846 310.458599 
L 393.524743 312.357705 
L 393.772546 313.019561 
L 393.967626 313.206899 
L 394.131071 313.254248 
L 394.283971 313.39403 
L 394.32615 313.334947 
L 394.336695 312.680913 
L 394.357785 254.512681 
L 394.473778 297.538501 
L 394.616133 310.211561 
L 394.842847 312.229039 
L 395.164465 313.044265 
L 395.454448 313.293774 
L 395.570441 313.30942 
L 395.591531 313.278952 
L 395.707524 312.755025 
L 395.723341 312.597538 
L 395.8077 312.928981 
L 395.965873 313.154403 
L 395.986962 313.109113 
L 396.023869 312.989711 
L 396.087138 313.145139 
L 396.28749 313.278952 
L 396.693466 313.387237 
L 396.851639 313.439526 
L 397.631957 313.349769 
L 397.658319 312.413289 
L 397.76904 313.117347 
L 397.784857 313.142051 
L 397.837581 312.99074 
L 397.842854 312.99074 
L 397.948302 313.094702 
L 398.164471 313.272776 
L 398.175016 313.157491 
L 398.24883 313.319713 
L 398.26992 313.31714 
L 398.491361 313.221206 
L 398.501906 313.163667 
L 398.591537 313.288421 
L 398.823524 313.330006 
L 398.834068 313.29645 
L 398.928972 313.048383 
L 398.976424 313.132787 
L 399.255862 313.403088 
L 399.899097 313.560163 
L 399.988728 313.465671 
L 400.030908 312.737526 
L 400.131083 313.157491 
L 400.21017 313.230573 
L 400.38416 313.400824 
L 400.642508 313.486875 
L 400.674143 313.405353 
L 400.769046 313.494287 
L 401.048484 313.548223 
L 401.34374 313.577456 
L 401.876254 313.484714 
L 401.886799 313.412146 
L 401.97643 313.549767 
L 402.403496 313.571692 
L 402.414041 313.109113 
L 402.514217 313.508697 
L 402.6513 313.573133 
L 402.682934 313.548223 
L 402.756748 313.499536 
L 402.820017 313.554399 
L 406.015103 313.533813 
L 406.036193 312.908394 
L 406.125824 313.398559 
L 406.426352 313.607924 
L 406.890324 313.621511 
L 407.080131 313.594234 
L 407.148673 312.677825 
L 407.190852 313.193518 
L 407.301573 313.508697 
L 407.312118 313.376635 
L 407.333208 313.196605 
L 407.407021 313.447761 
L 407.422839 313.354504 
L 407.465018 313.490581 
L 407.596829 313.565928 
L 407.617918 313.552855 
L 407.765546 313.23047 
L 407.776091 313.238808 
L 407.807725 312.611948 
L 407.828815 308.387595 
L 407.918446 312.176544 
L 408.018622 312.772523 
L 408.050257 312.413289 
L 408.129343 310.065396 
L 408.187339 310.842537 
L 408.403509 312.373145 
L 408.408781 312.275359 
L 408.456233 311.256326 
L 408.540591 311.747315 
L 408.619678 312.218746 
L 408.630223 312.143605 
L 408.640767 305.247122 
L 408.661857 254.203883 
L 408.746216 306.575982 
L 408.925478 311.123543 
L 409.131102 312.311385 
L 409.668889 313.123523 
L 410.28049 313.359239 
L 410.306852 313.342358 
L 410.375393 313.423057 
L 410.507204 313.455996 
L 411.535325 313.564487 
L 411.777857 313.571692 
L 412.157471 313.570045 
L 412.173288 313.188371 
L 412.268192 313.455996 
L 412.320916 313.272673 
L 412.35255 312.760171 
L 412.431637 313.209987 
L 412.605626 313.441585 
L 413.022147 313.551311 
L 413.538845 313.589396 
L 413.907914 313.61585 
L 414.429883 313.616982 
L 414.672415 313.630775 
L 414.904401 313.638392 
L 415.173294 313.641686 
L 415.610905 313.550488 
L 415.626722 313.107054 
L 415.721626 313.547503 
L 415.916705 313.609159 
L 416.349044 313.608645 
L 416.470309 313.600101 
L 418.663636 313.50108 
L 418.684725 313.337417 
L 418.774356 313.491713 
L 419.00107 313.620482 
L 419.333233 313.642509 
L 419.665395 313.634995 
L 419.834113 313.647347 
L 420.034465 313.623364 
L 420.108278 313.222339 
L 420.192637 313.492022 
L 420.382444 313.605865 
L 420.593341 313.584867 
L 420.624975 313.3649 
L 420.661882 312.037585 
L 420.746241 312.984564 
L 420.936048 313.407 
L 421.284028 313.550899 
L 421.299845 313.471744 
L 421.347297 312.453432 
L 421.363114 312.285652 
L 421.4422 312.811638 
L 421.65837 313.340711 
L 421.906173 313.501595 
L 421.979987 313.419557 
L 422.069618 312.970154 
L 422.148704 313.084409 
L 422.454505 313.397942 
L 422.686491 313.515697 
L 424.57929 313.479464 
L 424.632014 313.227485 
L 424.69001 312.339177 
L 424.763824 312.492547 
L 424.837638 312.656209 
L 424.842911 312.402995 
L 424.879817 306.040732 
L 424.958904 310.210531 
L 425.164528 312.435934 
L 425.723404 313.364694 
L 425.733949 313.3333 
L 425.770856 312.207423 
L 425.786673 312.037585 
L 425.871032 312.416377 
L 426.103019 313.00721 
L 426.640805 313.467524 
L 426.878064 313.511888 
L 427.036237 313.53793 
L 427.47912 313.577353 
L 427.526572 313.169843 
L 427.552934 310.065396 
L 427.65311 311.87598 
L 427.832372 312.56357 
L 428.069631 312.944421 
L 428.180352 313.085438 
L 428.190896 312.996916 
L 428.327979 312.577981 
L 428.349069 312.603714 
L 428.823587 313.288421 
L 429.598632 313.558722 
L 431.201448 313.469377 
L 431.238355 310.802394 
L 431.364893 312.307268 
L 431.559972 312.949567 
L 431.654876 313.129699 
L 431.712872 313.056617 
L 431.976493 313.291406 
L 431.997583 313.263512 
L 432.081942 313.011327 
L 432.18739 312.760171 
L 432.213752 312.797227 
L 432.403559 313.060734 
L 432.64609 313.349769 
L 432.893894 313.423057 
L 433.241874 313.530519 
L 433.442226 313.570251 
L 433.589853 313.554399 
L 433.732209 313.398559 
L 433.816567 313.058676 
L 433.869292 312.313444 
L 433.95365 312.583127 
L 434.022192 312.801344 
L 434.343809 313.236749 
L 434.438713 313.30942 
L 434.918503 313.423057 
L 435.1294 313.455996 
L 435.329752 313.515697 
L 436.046801 313.411838 
L 436.083707 312.308297 
L 436.210245 312.854869 
L 436.305149 313.044265 
L 436.320966 312.901189 
L 436.363146 312.511074 
L 436.447504 312.68606 
L 436.595132 312.939274 
L 436.632039 312.846635 
L 436.674218 312.772523 
L 436.716398 311.947004 
L 436.795484 312.289769 
L 437.032743 312.982506 
L 437.132919 313.135875 
L 437.148736 313.015444 
L 437.196188 312.598567 
L 437.285819 312.660327 
L 437.433447 312.890896 
L 437.470354 312.723116 
L 437.496716 312.397849 
L 437.586347 312.567687 
L 437.765609 312.961919 
L 437.944871 313.218221 
L 438.155768 313.347299 
L 438.197947 313.256306 
L 438.35612 313.041177 
L 438.366665 313.044265 
L 438.524837 313.148227 
L 438.756824 313.339888 
L 438.957176 313.447761 
L 438.994083 313.463818 
L 439.015172 313.349666 
L 439.094259 313.019561 
L 439.168072 313.063822 
L 439.4686 313.368709 
L 439.610956 313.258777 
L 439.6215 305.742228 
L 439.721676 311.682467 
L 439.953663 312.956773 
L 440.154015 313.254248 
L 440.169832 312.843547 
L 440.190922 309.06695 
L 440.291098 311.413813 
L 440.501994 312.707676 
L 440.512539 312.690177 
L 440.570536 312.117872 
L 440.596898 307.358269 
L 440.628532 283.364684 
L 440.707619 307.090645 
L 440.871064 311.316027 
L 441.029236 312.280505 
L 441.034509 312.25889 
L 441.071416 305.237858 
L 441.176864 309.873942 
L 441.366671 312.021115 
L 441.814827 313.126611 
L 442.08372 313.285265 
L 442.178624 313.151315 
L 442.220803 313.206899 
L 442.373703 313.356872 
L 442.837676 313.447761 
L 443.101297 313.463818 
L 443.164566 313.485023 
L 443.169838 313.460319 
L 443.233107 313.063822 
L 443.285832 313.29645 
L 443.491456 313.461863 
L 443.960701 313.522284 
L 444.150508 313.533813 
L 444.182143 313.431189 
L 444.234867 313.248072 
L 444.292864 313.407617 
L 444.519578 313.522284 
L 444.735747 313.439835 
L 444.751564 312.768406 
L 444.846468 313.212045 
L 445.020457 313.429233 
L 445.136451 313.396295 
L 445.141723 313.375605 
L 445.326258 313.085438 
L 445.373709 313.191459 
L 445.610968 313.447761 
L 446.043307 313.558722 
L 446.475645 313.565928 
L 446.618 313.571692 
L 447.055611 313.564487 
L 447.345594 313.600925 
L 447.630305 313.586823 
L 447.94665 313.619247 
L 448.568795 313.597631 
L 448.726968 313.534224 
L 448.779692 313.299641 
L 448.842961 313.50355 
L 448.974771 313.574574 
L 449.048585 313.031913 
L 449.090765 313.20484 
L 449.259482 313.482552 
L 449.965986 313.614512 
L 450.208517 313.591249 
L 450.219062 313.22028 
L 450.319238 313.503756 
L 450.572314 313.612556 
L 450.735759 313.626452 
L 450.862297 313.625423 
L 450.872842 313.545856 
L 450.878115 313.531754 
L 450.962473 313.608748 
L 450.967746 313.608748 
L 452.517837 313.524652 
L 452.528382 313.476582 
L 452.618013 313.579412 
L 452.865817 313.629128 
L 453.060896 313.543385 
L 453.097803 312.436963 
L 453.192707 313.331653 
L 453.350879 313.425939 
L 453.493234 313.532886 
L 453.667224 313.570457 
L 453.915028 313.589396 
L 453.946662 313.39578 
L 454.110107 312.047878 
L 454.13647 312.27433 
L 454.315732 313.188371 
L 454.42118 313.359651 
L 454.447542 313.185283 
L 454.463359 311.005171 
L 454.57408 312.728262 
L 454.864063 313.386413 
L 455.101322 313.514461 
L 455.175136 313.510241 
L 455.185681 312.18169 
L 455.291129 313.287186 
L 455.586385 313.507977 
L 455.72874 313.545753 
L 457.69008 313.650641 
L 626.961086 313.198664 
L 626.997993 312.757083 
L 627.082352 313.024708 
L 627.240524 313.233661 
L 627.614866 313.378076 
L 627.620139 313.347093 
L 627.635956 312.688119 
L 627.662318 302.541024 
L 627.767766 309.747335 
L 627.846853 311.291323 
L 627.867942 309.99849 
L 627.889032 308.109677 
L 627.973391 310.300083 
L 628.142108 310.965027 
L 628.14738 310.944441 
L 628.205377 309.15959 
L 628.295008 310.463745 
L 628.679895 312.96089 
L 628.838067 313.06691 
L 629.012057 313.233661 
L 629.01733 313.176019 
L 629.043692 311.994353 
L 629.075326 310.50183 
L 629.154412 311.847159 
L 629.391671 312.949567 
L 629.565661 313.172931 
L 629.570934 313.169843 
L 629.607841 312.466813 
L 629.623658 312.219775 
L 629.713289 312.504899 
L 630.182534 313.129699 
L 630.187807 313.055588 
L 630.245803 304.167359 
L 630.251076 292.834482 
L 630.351252 309.313988 
L 630.398703 309.272815 
L 630.425065 309.627933 
L 630.446155 309.993343 
L 630.472517 308.644927 
L 630.493607 307.790586 
L 630.567421 309.783361 
L 630.78359 312.393731 
L 631.010304 313.035001 
L 631.93825 313.44982 
L 632.080605 313.475553 
L 632.444402 313.492331 
L 632.74493 313.506741 
L 632.982189 313.546679 
L 633.129816 313.538753 
L 634.611366 313.476685 
L 634.648273 313.198664 
L 634.722087 313.473597 
L 635.307325 313.564487 
L 635.539312 313.430571 
L 635.565674 311.9223 
L 635.655305 313.260424 
L 635.81875 313.494287 
L 636.403988 313.574574 
L 636.440895 313.504683 
L 636.45144 312.392702 
L 636.551616 313.435409 
L 636.64652 313.477509 
L 636.657064 313.416332 
L 636.662337 313.322183 
L 636.762513 313.496036 
L 636.936503 313.548223 
L 637.421565 313.481008 
L 637.437382 311.005171 
L 637.532286 313.291406 
L 637.690459 313.492434 
L 637.985714 313.561604 
L 638.512956 313.590631 
L 638.998018 313.516726 
L 639.008563 313.400824 
L 639.103467 313.565928 
L 650.207181 313.492537 
L 650.228271 313.361195 
L 650.307357 313.541533 
L 650.470802 313.583014 
L 654.883816 313.472156 
L 654.910178 313.273496 
L 654.925996 312.85384 
L 655.015627 313.326301 
L 655.231796 313.531239 
L 655.869759 313.605042 
L 656.692256 313.367371 
L 656.723891 312.679884 
L 656.813522 313.162638 
L 657.024418 313.463304 
L 657.583295 313.548841 
L 657.620202 313.352034 
L 657.678198 311.913036 
L 657.752012 312.658268 
L 657.983999 313.324036 
L 658.817041 313.56181 
L 659.138658 313.588161 
L 660.752019 313.480905 
L 660.831105 313.062793 
L 660.873284 312.657239 
L 660.947098 312.893984 
L 661.14745 313.259394 
L 661.205447 313.221309 
L 661.49543 313.380134 
L 661.637785 313.435512 
L 662.323199 313.558928 
L 662.655362 313.465157 
L 662.697541 313.356974 
L 662.776627 313.39053 
L 662.918983 313.448584 
L 663.214238 313.49161 
L 663.235328 310.104511 
L 663.245873 306.956832 
L 663.340776 311.402491 
L 663.535856 312.614007 
L 663.931287 313.145139 
L 664.205453 313.248072 
L 664.347808 313.312713 
L 664.353081 313.308184 
L 664.87505 313.296553 
L 664.933047 313.051471 
L 664.991043 313.090585 
L 665.650096 313.352651 
L 665.860992 313.215133 
L 665.913717 310.946499 
L 666.040255 312.104491 
L 666.324965 312.953685 
L 666.388234 313.057647 
L 666.604403 313.261453 
L 666.678217 313.272776 
L 666.704579 313.224397 
L 666.725669 313.039119 
L 666.778393 301.26466 
L 666.873297 309.84615 
L 667.052559 312.142576 
L 667.31618 312.9753 
L 667.395266 313.085438 
L 667.64307 313.268658 
L 667.79597 313.196605 
L 667.822332 311.973766 
L 667.853967 310.246558 
L 667.933053 311.511599 
L 668.159767 312.714881 
L 668.217764 312.825019 
L 668.391753 313.109113 
L 668.497202 313.182195 
L 668.513019 313.088526 
L 668.539381 310.892974 
L 668.549926 309.705132 
L 668.64483 311.655705 
L 669.003354 313.011327 
L 669.330244 313.230573 
L 669.45151 313.287289 
L 669.56223 313.312713 
L 669.572775 313.279981 
L 669.588592 312.839429 
L 669.599137 302.458678 
L 669.699313 311.2203 
L 669.88912 312.559453 
L 669.973479 312.483283 
L 669.994569 312.278447 
L 670.078927 312.570775 
L 670.0842 312.581069 
L 670.121107 312.41123 
L 670.136924 312.400937 
L 670.194921 312.497693 
L 670.200193 312.488429 
L 670.405817 312.887808 
L 670.426907 312.738555 
L 670.453269 310.162153 
L 670.479631 305.536363 
L 670.56399 309.954229 
L 670.732707 312.022145 
L 670.948877 312.788992 
L 670.954149 312.781787 
L 671.001601 312.887808 
L 671.033235 312.941333 
L 671.04378 312.775611 
L 671.059597 308.76227 
L 671.080687 302.571904 
L 671.165046 310.368018 
L 671.354853 312.286681 
L 671.887367 313.253218 
L 671.992815 313.167784 
L 672.108809 312.175514 
L 672.193167 312.497693 
L 672.340795 312.8384 
L 672.35134 312.662385 
L 672.393519 307.378856 
L 672.498968 310.874446 
L 672.736227 312.606802 
L 673.073661 313.22028 
L 673.078934 313.208957 
L 673.163292 313.274834 
L 673.3531 313.356974 
L 673.374189 313.341843 
L 673.458548 313.382296 
L 673.685262 313.402471 
L 673.83289 313.437468 
L 673.975245 313.444879 
L 674.186142 313.457848 
L 674.449763 313.367474 
L 674.46558 311.410725 
L 674.476125 305.49519 
L 674.571028 311.926417 
L 674.750291 312.966037 
L 674.760835 312.920746 
L 674.824104 312.514162 
L 674.839922 280.503158 
L 674.934825 309.964522 
L 675.114087 312.451374 
L 675.493702 313.328565 
L 675.75205 313.433762 
L 675.831136 313.448584 
L 675.831136 313.448584 
" clip-path="url(#p0090f27101)" style="fill: none; stroke: #1f77b4; stroke-width: 1.5; stroke-linecap: square"/>
   </g>
   <g id="patch_3">
    <path d="M 46.0125 327.558125 
L 46.0125 22.318125 
" style="fill: none; stroke: #000000; stroke-width: 0.8; stroke-linejoin: miter; stroke-linecap: square"/>
   </g>
   <g id="patch_4">
    <path d="M 705.8225 327.558125 
L 705.8225 22.318125 
" style="fill: none; stroke: #000000; stroke-width: 0.8; stroke-linejoin: miter; stroke-linecap: square"/>
   </g>
   <g id="patch_5">
    <path d="M 46.0125 327.558125 
L 705.8225 327.558125 
" style="fill: none; stroke: #000000; stroke-width: 0.8; stroke-linejoin: miter; stroke-linecap: square"/>
   </g>
   <g id="patch_6">
    <path d="M 46.0125 22.318125 
L 705.8225 22.318125 
" style="fill: none; stroke: #000000; stroke-width: 0.8; stroke-linejoin: miter; stroke-linecap: square"/>
   </g>
   <g id="text_16">
    <!-- training -->
    <g transform="translate(352.674062 16.318125) scale(0.12 -0.12)">
     <defs>
      <path id="DejaVuSans-74" d="M 1172 4494 
L 1172 3500 
L 2356 3500 
L 2356 3053 
L 1172 3053 
L 1172 1153 
Q 1172 725 1289 603 
Q 1406 481 1766 481 
L 2356 481 
L 2356 0 
L 1766 0 
Q 1100 0 847 248 
Q 594 497 594 1153 
L 594 3053 
L 172 3053 
L 172 3500 
L 594 3500 
L 594 4494 
L 1172 4494 
z
" transform="scale(0.015625)"/>
      <path id="DejaVuSans-72" d="M 2631 2963 
Q 2534 3019 2420 3045 
Q 2306 3072 2169 3072 
Q 1681 3072 1420 2755 
Q 1159 2438 1159 1844 
L 1159 0 
L 581 0 
L 581 3500 
L 1159 3500 
L 1159 2956 
Q 1341 3275 1631 3429 
Q 1922 3584 2338 3584 
Q 2397 3584 2469 3576 
Q 2541 3569 2628 3553 
L 2631 2963 
z
" transform="scale(0.015625)"/>
      <path id="DejaVuSans-61" d="M 2194 1759 
Q 1497 1759 1228 1600 
Q 959 1441 959 1056 
Q 959 750 1161 570 
Q 1363 391 1709 391 
Q 2188 391 2477 730 
Q 2766 1069 2766 1631 
L 2766 1759 
L 2194 1759 
z
M 3341 1997 
L 3341 0 
L 2766 0 
L 2766 531 
Q 2569 213 2275 61 
Q 1981 -91 1556 -91 
Q 1019 -91 701 211 
Q 384 513 384 1019 
Q 384 1609 779 1909 
Q 1175 2209 1959 2209 
L 2766 2209 
L 2766 2266 
Q 2766 2663 2505 2880 
Q 2244 3097 1772 3097 
Q 1472 3097 1187 3025 
Q 903 2953 641 2809 
L 641 3341 
Q 956 3463 1253 3523 
Q 1550 3584 1831 3584 
Q 2591 3584 2966 3190 
Q 3341 2797 3341 1997 
z
" transform="scale(0.015625)"/>
      <path id="DejaVuSans-69" d="M 603 3500 
L 1178 3500 
L 1178 0 
L 603 0 
L 603 3500 
z
M 603 4863 
L 1178 4863 
L 1178 4134 
L 603 4134 
L 603 4863 
z
" transform="scale(0.015625)"/>
      <path id="DejaVuSans-6e" d="M 3513 2113 
L 3513 0 
L 2938 0 
L 2938 2094 
Q 2938 2591 2744 2837 
Q 2550 3084 2163 3084 
Q 1697 3084 1428 2787 
Q 1159 2491 1159 1978 
L 1159 0 
L 581 0 
L 581 3500 
L 1159 3500 
L 1159 2956 
Q 1366 3272 1645 3428 
Q 1925 3584 2291 3584 
Q 2894 3584 3203 3211 
Q 3513 2838 3513 2113 
z
" transform="scale(0.015625)"/>
      <path id="DejaVuSans-67" d="M 2906 1791 
Q 2906 2416 2648 2759 
Q 2391 3103 1925 3103 
Q 1463 3103 1205 2759 
Q 947 2416 947 1791 
Q 947 1169 1205 825 
Q 1463 481 1925 481 
Q 2391 481 2648 825 
Q 2906 1169 2906 1791 
z
M 3481 434 
Q 3481 -459 3084 -895 
Q 2688 -1331 1869 -1331 
Q 1566 -1331 1297 -1286 
Q 1028 -1241 775 -1147 
L 775 -588 
Q 1028 -725 1275 -790 
Q 1522 -856 1778 -856 
Q 2344 -856 2625 -561 
Q 2906 -266 2906 331 
L 2906 616 
Q 2728 306 2450 153 
Q 2172 0 1784 0 
Q 1141 0 747 490 
Q 353 981 353 1791 
Q 353 2603 747 3093 
Q 1141 3584 1784 3584 
Q 2172 3584 2450 3431 
Q 2728 3278 2906 2969 
L 2906 3500 
L 3481 3500 
L 3481 434 
z
" transform="scale(0.015625)"/>
     </defs>
     <use xlink:href="#DejaVuSans-74"/>
     <use xlink:href="#DejaVuSans-72" x="39.208984"/>
     <use xlink:href="#DejaVuSans-61" x="80.322266"/>
     <use xlink:href="#DejaVuSans-69" x="141.601562"/>
     <use xlink:href="#DejaVuSans-6e" x="169.384766"/>
     <use xlink:href="#DejaVuSans-69" x="232.763672"/>
     <use xlink:href="#DejaVuSans-6e" x="260.546875"/>
     <use xlink:href="#DejaVuSans-67" x="323.925781"/>
    </g>
   </g>
   <g id="legend_1">
    <g id="patch_7">
     <path d="M 620.461563 44.99625 
L 698.8225 44.99625 
Q 700.8225 44.99625 700.8225 42.99625 
L 700.8225 29.318125 
Q 700.8225 27.318125 698.8225 27.318125 
L 620.461563 27.318125 
Q 618.461563 27.318125 618.461563 29.318125 
L 618.461563 42.99625 
Q 618.461563 44.99625 620.461563 44.99625 
z
" style="fill: #ffffff; opacity: 0.8; stroke: #cccccc; stroke-linejoin: miter"/>
    </g>
    <g id="line2d_17">
     <path d="M 622.461563 35.416563 
L 632.461563 35.416563 
L 642.461563 35.416563 
" style="fill: none; stroke: #1f77b4; stroke-width: 1.5; stroke-linecap: square"/>
    </g>
    <g id="text_17">
     <!-- observed -->
     <g transform="translate(650.461563 38.916563) scale(0.1 -0.1)">
      <defs>
       <path id="DejaVuSans-6f" d="M 1959 3097 
Q 1497 3097 1228 2736 
Q 959 2375 959 1747 
Q 959 1119 1226 758 
Q 1494 397 1959 397 
Q 2419 397 2687 759 
Q 2956 1122 2956 1747 
Q 2956 2369 2687 2733 
Q 2419 3097 1959 3097 
z
M 1959 3584 
Q 2709 3584 3137 3096 
Q 3566 2609 3566 1747 
Q 3566 888 3137 398 
Q 2709 -91 1959 -91 
Q 1206 -91 779 398 
Q 353 888 353 1747 
Q 353 2609 779 3096 
Q 1206 3584 1959 3584 
z
" transform="scale(0.015625)"/>
       <path id="DejaVuSans-62" d="M 3116 1747 
Q 3116 2381 2855 2742 
Q 2594 3103 2138 3103 
Q 1681 3103 1420 2742 
Q 1159 2381 1159 1747 
Q 1159 1113 1420 752 
Q 1681 391 2138 391 
Q 2594 391 2855 752 
Q 3116 1113 3116 1747 
z
M 1159 2969 
Q 1341 3281 1617 3432 
Q 1894 3584 2278 3584 
Q 2916 3584 3314 3078 
Q 3713 2572 3713 1747 
Q 3713 922 3314 415 
Q 2916 -91 2278 -91 
Q 1894 -91 1617 61 
Q 1341 213 1159 525 
L 1159 0 
L 581 0 
L 581 4863 
L 1159 4863 
L 1159 2969 
z
" transform="scale(0.015625)"/>
       <path id="DejaVuSans-73" d="M 2834 3397 
L 2834 2853 
Q 2591 2978 2328 3040 
Q 2066 3103 1784 3103 
Q 1356 3103 1142 2972 
Q 928 2841 928 2578 
Q 928 2378 1081 2264 
Q 1234 2150 1697 2047 
L 1894 2003 
Q 2506 1872 2764 1633 
Q 3022 1394 3022 966 
Q 3022 478 2636 193 
Q 2250 -91 1575 -91 
Q 1294 -91 989 -36 
Q 684 19 347 128 
L 347 722 
Q 666 556 975 473 
Q 1284 391 1588 391 
Q 1994 391 2212 530 
Q 2431 669 2431 922 
Q 2431 1156 2273 1281 
Q 2116 1406 1581 1522 
L 1381 1569 
Q 847 1681 609 1914 
Q 372 2147 372 2553 
Q 372 3047 722 3315 
Q 1072 3584 1716 3584 
Q 2034 3584 2315 3537 
Q 2597 3491 2834 3397 
z
" transform="scale(0.015625)"/>
       <path id="DejaVuSans-65" d="M 3597 1894 
L 3597 1613 
L 953 1613 
Q 991 1019 1311 708 
Q 1631 397 2203 397 
Q 2534 397 2845 478 
Q 3156 559 3463 722 
L 3463 178 
Q 3153 47 2828 -22 
Q 2503 -91 2169 -91 
Q 1331 -91 842 396 
Q 353 884 353 1716 
Q 353 2575 817 3079 
Q 1281 3584 2069 3584 
Q 2775 3584 3186 3129 
Q 3597 2675 3597 1894 
z
M 3022 2063 
Q 3016 2534 2758 2815 
Q 2500 3097 2075 3097 
Q 1594 3097 1305 2825 
Q 1016 2553 972 2059 
L 3022 2063 
z
" transform="scale(0.015625)"/>
       <path id="DejaVuSans-76" d="M 191 3500 
L 800 3500 
L 1894 563 
L 2988 3500 
L 3597 3500 
L 2284 0 
L 1503 0 
L 191 3500 
z
" transform="scale(0.015625)"/>
       <path id="DejaVuSans-64" d="M 2906 2969 
L 2906 4863 
L 3481 4863 
L 3481 0 
L 2906 0 
L 2906 525 
Q 2725 213 2448 61 
Q 2172 -91 1784 -91 
Q 1150 -91 751 415 
Q 353 922 353 1747 
Q 353 2572 751 3078 
Q 1150 3584 1784 3584 
Q 2172 3584 2448 3432 
Q 2725 3281 2906 2969 
z
M 947 1747 
Q 947 1113 1208 752 
Q 1469 391 1925 391 
Q 2381 391 2643 752 
Q 2906 1113 2906 1747 
Q 2906 2381 2643 2742 
Q 2381 3103 1925 3103 
Q 1469 3103 1208 2742 
Q 947 2381 947 1747 
z
" transform="scale(0.015625)"/>
      </defs>
      <use xlink:href="#DejaVuSans-6f"/>
      <use xlink:href="#DejaVuSans-62" x="61.181641"/>
      <use xlink:href="#DejaVuSans-73" x="124.658203"/>
      <use xlink:href="#DejaVuSans-65" x="176.757812"/>
      <use xlink:href="#DejaVuSans-72" x="238.28125"/>
      <use xlink:href="#DejaVuSans-76" x="279.394531"/>
      <use xlink:href="#DejaVuSans-65" x="338.574219"/>
      <use xlink:href="#DejaVuSans-64" x="400.097656"/>
     </g>
    </g>
   </g>
  </g>
 </g>
 <defs>
  <clipPath id="p0090f27101">
   <rect x="46.0125" y="22.318125" width="659.81" height="305.24"/>
  </clipPath>
 </defs>
</svg>
