<?xml version="1.0" encoding="utf-8" standalone="no"?>
<!DOCTYPE svg PUBLIC "-//W3C//DTD SVG 1.1//EN"
  "http://www.w3.org/Graphics/SVG/1.1/DTD/svg11.dtd">
<svg xmlns:xlink="http://www.w3.org/1999/xlink" width="712.835pt" height="351.43625pt" viewBox="0 0 712.835 351.43625" xmlns="http://www.w3.org/2000/svg" version="1.1">
 <metadata>
  <rdf:RDF xmlns:dc="http://purl.org/dc/elements/1.1/" xmlns:cc="http://creativecommons.org/ns#" xmlns:rdf="http://www.w3.org/1999/02/22-rdf-syntax-ns#">
   <cc:Work>
    <dc:type rdf:resource="http://purl.org/dc/dcmitype/StillImage"/>
    <dc:date>2023-10-22T18:17:04.182196</dc:date>
    <dc:format>image/svg+xml</dc:format>
    <dc:creator>
     <cc:Agent>
      <dc:title>Matplotlib v3.7.1, https://matplotlib.org/</dc:title>
     </cc:Agent>
    </dc:creator>
   </cc:Work>
  </rdf:RDF>
 </metadata>
 <defs>
  <style type="text/css">*{stroke-linejoin: round; stroke-linecap: butt}</style>
 </defs>
 <g id="figure_1">
  <g id="patch_1">
   <path d="M 0 351.43625 
L 712.835 351.43625 
L 712.835 0 
L 0 0 
z
" style="fill: #ffffff"/>
  </g>
  <g id="axes_1">
   <g id="patch_2">
    <path d="M 26.925 327.558125 
L 705.635 327.558125 
L 705.635 22.318125 
L 26.925 22.318125 
z
" style="fill: #ffffff"/>
   </g>
   <g id="matplotlib.axis_1">
    <g id="xtick_1">
     <g id="line2d_1">
      <defs>
       <path id="mbcd6e3f826" d="M 0 0 
L 0 3.5 
" style="stroke: #000000; stroke-width: 0.8"/>
      </defs>
      <g>
       <use xlink:href="#mbcd6e3f826" x="64.347149" y="327.558125" style="stroke: #000000; stroke-width: 0.8"/>
      </g>
     </g>
     <g id="text_1">
      <!-- 2023-04-29 -->
      <g transform="translate(35.289337 342.156563) scale(0.1 -0.1)">
       <defs>
        <path id="DejaVuSans-32" d="M 1228 531 
L 3431 531 
L 3431 0 
L 469 0 
L 469 531 
Q 828 903 1448 1529 
Q 2069 2156 2228 2338 
Q 2531 2678 2651 2914 
Q 2772 3150 2772 3378 
Q 2772 3750 2511 3984 
Q 2250 4219 1831 4219 
Q 1534 4219 1204 4116 
Q 875 4013 500 3803 
L 500 4441 
Q 881 4594 1212 4672 
Q 1544 4750 1819 4750 
Q 2544 4750 2975 4387 
Q 3406 4025 3406 3419 
Q 3406 3131 3298 2873 
Q 3191 2616 2906 2266 
Q 2828 2175 2409 1742 
Q 1991 1309 1228 531 
z
" transform="scale(0.015625)"/>
        <path id="DejaVuSans-30" d="M 2034 4250 
Q 1547 4250 1301 3770 
Q 1056 3291 1056 2328 
Q 1056 1369 1301 889 
Q 1547 409 2034 409 
Q 2525 409 2770 889 
Q 3016 1369 3016 2328 
Q 3016 3291 2770 3770 
Q 2525 4250 2034 4250 
z
M 2034 4750 
Q 2819 4750 3233 4129 
Q 3647 3509 3647 2328 
Q 3647 1150 3233 529 
Q 2819 -91 2034 -91 
Q 1250 -91 836 529 
Q 422 1150 422 2328 
Q 422 3509 836 4129 
Q 1250 4750 2034 4750 
z
" transform="scale(0.015625)"/>
        <path id="DejaVuSans-33" d="M 2597 2516 
Q 3050 2419 3304 2112 
Q 3559 1806 3559 1356 
Q 3559 666 3084 287 
Q 2609 -91 1734 -91 
Q 1441 -91 1130 -33 
Q 819 25 488 141 
L 488 750 
Q 750 597 1062 519 
Q 1375 441 1716 441 
Q 2309 441 2620 675 
Q 2931 909 2931 1356 
Q 2931 1769 2642 2001 
Q 2353 2234 1838 2234 
L 1294 2234 
L 1294 2753 
L 1863 2753 
Q 2328 2753 2575 2939 
Q 2822 3125 2822 3475 
Q 2822 3834 2567 4026 
Q 2313 4219 1838 4219 
Q 1578 4219 1281 4162 
Q 984 4106 628 3988 
L 628 4550 
Q 988 4650 1302 4700 
Q 1616 4750 1894 4750 
Q 2613 4750 3031 4423 
Q 3450 4097 3450 3541 
Q 3450 3153 3228 2886 
Q 3006 2619 2597 2516 
z
" transform="scale(0.015625)"/>
        <path id="DejaVuSans-2d" d="M 313 2009 
L 1997 2009 
L 1997 1497 
L 313 1497 
L 313 2009 
z
" transform="scale(0.015625)"/>
        <path id="DejaVuSans-34" d="M 2419 4116 
L 825 1625 
L 2419 1625 
L 2419 4116 
z
M 2253 4666 
L 3047 4666 
L 3047 1625 
L 3713 1625 
L 3713 1100 
L 3047 1100 
L 3047 0 
L 2419 0 
L 2419 1100 
L 313 1100 
L 313 1709 
L 2253 4666 
z
" transform="scale(0.015625)"/>
        <path id="DejaVuSans-39" d="M 703 97 
L 703 672 
Q 941 559 1184 500 
Q 1428 441 1663 441 
Q 2288 441 2617 861 
Q 2947 1281 2994 2138 
Q 2813 1869 2534 1725 
Q 2256 1581 1919 1581 
Q 1219 1581 811 2004 
Q 403 2428 403 3163 
Q 403 3881 828 4315 
Q 1253 4750 1959 4750 
Q 2769 4750 3195 4129 
Q 3622 3509 3622 2328 
Q 3622 1225 3098 567 
Q 2575 -91 1691 -91 
Q 1453 -91 1209 -44 
Q 966 3 703 97 
z
M 1959 2075 
Q 2384 2075 2632 2365 
Q 2881 2656 2881 3163 
Q 2881 3666 2632 3958 
Q 2384 4250 1959 4250 
Q 1534 4250 1286 3958 
Q 1038 3666 1038 3163 
Q 1038 2656 1286 2365 
Q 1534 2075 1959 2075 
z
" transform="scale(0.015625)"/>
       </defs>
       <use xlink:href="#DejaVuSans-32"/>
       <use xlink:href="#DejaVuSans-30" x="63.623047"/>
       <use xlink:href="#DejaVuSans-32" x="127.246094"/>
       <use xlink:href="#DejaVuSans-33" x="190.869141"/>
       <use xlink:href="#DejaVuSans-2d" x="254.492188"/>
       <use xlink:href="#DejaVuSans-30" x="290.576172"/>
       <use xlink:href="#DejaVuSans-34" x="354.199219"/>
       <use xlink:href="#DejaVuSans-2d" x="417.822266"/>
       <use xlink:href="#DejaVuSans-32" x="453.90625"/>
       <use xlink:href="#DejaVuSans-39" x="517.529297"/>
      </g>
     </g>
    </g>
    <g id="xtick_2">
     <g id="line2d_2">
      <g>
       <use xlink:href="#mbcd6e3f826" x="99.396186" y="327.558125" style="stroke: #000000; stroke-width: 0.8"/>
      </g>
     </g>
     <g id="text_2">
      <!-- 2023-05-01 -->
      <g transform="translate(70.338374 342.156563) scale(0.1 -0.1)">
       <defs>
        <path id="DejaVuSans-35" d="M 691 4666 
L 3169 4666 
L 3169 4134 
L 1269 4134 
L 1269 2991 
Q 1406 3038 1543 3061 
Q 1681 3084 1819 3084 
Q 2600 3084 3056 2656 
Q 3513 2228 3513 1497 
Q 3513 744 3044 326 
Q 2575 -91 1722 -91 
Q 1428 -91 1123 -41 
Q 819 9 494 109 
L 494 744 
Q 775 591 1075 516 
Q 1375 441 1709 441 
Q 2250 441 2565 725 
Q 2881 1009 2881 1497 
Q 2881 1984 2565 2268 
Q 2250 2553 1709 2553 
Q 1456 2553 1204 2497 
Q 953 2441 691 2322 
L 691 4666 
z
" transform="scale(0.015625)"/>
        <path id="DejaVuSans-31" d="M 794 531 
L 1825 531 
L 1825 4091 
L 703 3866 
L 703 4441 
L 1819 4666 
L 2450 4666 
L 2450 531 
L 3481 531 
L 3481 0 
L 794 0 
L 794 531 
z
" transform="scale(0.015625)"/>
       </defs>
       <use xlink:href="#DejaVuSans-32"/>
       <use xlink:href="#DejaVuSans-30" x="63.623047"/>
       <use xlink:href="#DejaVuSans-32" x="127.246094"/>
       <use xlink:href="#DejaVuSans-33" x="190.869141"/>
       <use xlink:href="#DejaVuSans-2d" x="254.492188"/>
       <use xlink:href="#DejaVuSans-30" x="290.576172"/>
       <use xlink:href="#DejaVuSans-35" x="354.199219"/>
       <use xlink:href="#DejaVuSans-2d" x="417.822266"/>
       <use xlink:href="#DejaVuSans-30" x="453.90625"/>
       <use xlink:href="#DejaVuSans-31" x="517.529297"/>
      </g>
     </g>
    </g>
    <g id="xtick_3">
     <g id="line2d_3">
      <g>
       <use xlink:href="#mbcd6e3f826" x="169.49426" y="327.558125" style="stroke: #000000; stroke-width: 0.8"/>
      </g>
     </g>
     <g id="text_3">
      <!-- 2023-05-05 -->
      <g transform="translate(140.436448 342.156563) scale(0.1 -0.1)">
       <use xlink:href="#DejaVuSans-32"/>
       <use xlink:href="#DejaVuSans-30" x="63.623047"/>
       <use xlink:href="#DejaVuSans-32" x="127.246094"/>
       <use xlink:href="#DejaVuSans-33" x="190.869141"/>
       <use xlink:href="#DejaVuSans-2d" x="254.492188"/>
       <use xlink:href="#DejaVuSans-30" x="290.576172"/>
       <use xlink:href="#DejaVuSans-35" x="354.199219"/>
       <use xlink:href="#DejaVuSans-2d" x="417.822266"/>
       <use xlink:href="#DejaVuSans-30" x="453.90625"/>
       <use xlink:href="#DejaVuSans-35" x="517.529297"/>
      </g>
     </g>
    </g>
    <g id="xtick_4">
     <g id="line2d_4">
      <g>
       <use xlink:href="#mbcd6e3f826" x="239.592335" y="327.558125" style="stroke: #000000; stroke-width: 0.8"/>
      </g>
     </g>
     <g id="text_4">
      <!-- 2023-05-09 -->
      <g transform="translate(210.534522 342.156563) scale(0.1 -0.1)">
       <use xlink:href="#DejaVuSans-32"/>
       <use xlink:href="#DejaVuSans-30" x="63.623047"/>
       <use xlink:href="#DejaVuSans-32" x="127.246094"/>
       <use xlink:href="#DejaVuSans-33" x="190.869141"/>
       <use xlink:href="#DejaVuSans-2d" x="254.492188"/>
       <use xlink:href="#DejaVuSans-30" x="290.576172"/>
       <use xlink:href="#DejaVuSans-35" x="354.199219"/>
       <use xlink:href="#DejaVuSans-2d" x="417.822266"/>
       <use xlink:href="#DejaVuSans-30" x="453.90625"/>
       <use xlink:href="#DejaVuSans-39" x="517.529297"/>
      </g>
     </g>
    </g>
    <g id="xtick_5">
     <g id="line2d_5">
      <g>
       <use xlink:href="#mbcd6e3f826" x="309.690409" y="327.558125" style="stroke: #000000; stroke-width: 0.8"/>
      </g>
     </g>
     <g id="text_5">
      <!-- 2023-05-13 -->
      <g transform="translate(280.632596 342.156563) scale(0.1 -0.1)">
       <use xlink:href="#DejaVuSans-32"/>
       <use xlink:href="#DejaVuSans-30" x="63.623047"/>
       <use xlink:href="#DejaVuSans-32" x="127.246094"/>
       <use xlink:href="#DejaVuSans-33" x="190.869141"/>
       <use xlink:href="#DejaVuSans-2d" x="254.492188"/>
       <use xlink:href="#DejaVuSans-30" x="290.576172"/>
       <use xlink:href="#DejaVuSans-35" x="354.199219"/>
       <use xlink:href="#DejaVuSans-2d" x="417.822266"/>
       <use xlink:href="#DejaVuSans-31" x="453.90625"/>
       <use xlink:href="#DejaVuSans-33" x="517.529297"/>
      </g>
     </g>
    </g>
    <g id="xtick_6">
     <g id="line2d_6">
      <g>
       <use xlink:href="#mbcd6e3f826" x="379.788483" y="327.558125" style="stroke: #000000; stroke-width: 0.8"/>
      </g>
     </g>
     <g id="text_6">
      <!-- 2023-05-17 -->
      <g transform="translate(350.730671 342.156563) scale(0.1 -0.1)">
       <defs>
        <path id="DejaVuSans-37" d="M 525 4666 
L 3525 4666 
L 3525 4397 
L 1831 0 
L 1172 0 
L 2766 4134 
L 525 4134 
L 525 4666 
z
" transform="scale(0.015625)"/>
       </defs>
       <use xlink:href="#DejaVuSans-32"/>
       <use xlink:href="#DejaVuSans-30" x="63.623047"/>
       <use xlink:href="#DejaVuSans-32" x="127.246094"/>
       <use xlink:href="#DejaVuSans-33" x="190.869141"/>
       <use xlink:href="#DejaVuSans-2d" x="254.492188"/>
       <use xlink:href="#DejaVuSans-30" x="290.576172"/>
       <use xlink:href="#DejaVuSans-35" x="354.199219"/>
       <use xlink:href="#DejaVuSans-2d" x="417.822266"/>
       <use xlink:href="#DejaVuSans-31" x="453.90625"/>
       <use xlink:href="#DejaVuSans-37" x="517.529297"/>
      </g>
     </g>
    </g>
    <g id="xtick_7">
     <g id="line2d_7">
      <g>
       <use xlink:href="#mbcd6e3f826" x="449.886557" y="327.558125" style="stroke: #000000; stroke-width: 0.8"/>
      </g>
     </g>
     <g id="text_7">
      <!-- 2023-05-21 -->
      <g transform="translate(420.828745 342.156563) scale(0.1 -0.1)">
       <use xlink:href="#DejaVuSans-32"/>
       <use xlink:href="#DejaVuSans-30" x="63.623047"/>
       <use xlink:href="#DejaVuSans-32" x="127.246094"/>
       <use xlink:href="#DejaVuSans-33" x="190.869141"/>
       <use xlink:href="#DejaVuSans-2d" x="254.492188"/>
       <use xlink:href="#DejaVuSans-30" x="290.576172"/>
       <use xlink:href="#DejaVuSans-35" x="354.199219"/>
       <use xlink:href="#DejaVuSans-2d" x="417.822266"/>
       <use xlink:href="#DejaVuSans-32" x="453.90625"/>
       <use xlink:href="#DejaVuSans-31" x="517.529297"/>
      </g>
     </g>
    </g>
    <g id="xtick_8">
     <g id="line2d_8">
      <g>
       <use xlink:href="#mbcd6e3f826" x="519.984632" y="327.558125" style="stroke: #000000; stroke-width: 0.8"/>
      </g>
     </g>
     <g id="text_8">
      <!-- 2023-05-25 -->
      <g transform="translate(490.926819 342.156563) scale(0.1 -0.1)">
       <use xlink:href="#DejaVuSans-32"/>
       <use xlink:href="#DejaVuSans-30" x="63.623047"/>
       <use xlink:href="#DejaVuSans-32" x="127.246094"/>
       <use xlink:href="#DejaVuSans-33" x="190.869141"/>
       <use xlink:href="#DejaVuSans-2d" x="254.492188"/>
       <use xlink:href="#DejaVuSans-30" x="290.576172"/>
       <use xlink:href="#DejaVuSans-35" x="354.199219"/>
       <use xlink:href="#DejaVuSans-2d" x="417.822266"/>
       <use xlink:href="#DejaVuSans-32" x="453.90625"/>
       <use xlink:href="#DejaVuSans-35" x="517.529297"/>
      </g>
     </g>
    </g>
    <g id="xtick_9">
     <g id="line2d_9">
      <g>
       <use xlink:href="#mbcd6e3f826" x="590.082706" y="327.558125" style="stroke: #000000; stroke-width: 0.8"/>
      </g>
     </g>
     <g id="text_9">
      <!-- 2023-05-29 -->
      <g transform="translate(561.024893 342.156563) scale(0.1 -0.1)">
       <use xlink:href="#DejaVuSans-32"/>
       <use xlink:href="#DejaVuSans-30" x="63.623047"/>
       <use xlink:href="#DejaVuSans-32" x="127.246094"/>
       <use xlink:href="#DejaVuSans-33" x="190.869141"/>
       <use xlink:href="#DejaVuSans-2d" x="254.492188"/>
       <use xlink:href="#DejaVuSans-30" x="290.576172"/>
       <use xlink:href="#DejaVuSans-35" x="354.199219"/>
       <use xlink:href="#DejaVuSans-2d" x="417.822266"/>
       <use xlink:href="#DejaVuSans-32" x="453.90625"/>
       <use xlink:href="#DejaVuSans-39" x="517.529297"/>
      </g>
     </g>
    </g>
    <g id="xtick_10">
     <g id="line2d_10">
      <g>
       <use xlink:href="#mbcd6e3f826" x="642.656261" y="327.558125" style="stroke: #000000; stroke-width: 0.8"/>
      </g>
     </g>
     <g id="text_10">
      <!-- 2023-06-01 -->
      <g transform="translate(613.598449 342.156563) scale(0.1 -0.1)">
       <defs>
        <path id="DejaVuSans-36" d="M 2113 2584 
Q 1688 2584 1439 2293 
Q 1191 2003 1191 1497 
Q 1191 994 1439 701 
Q 1688 409 2113 409 
Q 2538 409 2786 701 
Q 3034 994 3034 1497 
Q 3034 2003 2786 2293 
Q 2538 2584 2113 2584 
z
M 3366 4563 
L 3366 3988 
Q 3128 4100 2886 4159 
Q 2644 4219 2406 4219 
Q 1781 4219 1451 3797 
Q 1122 3375 1075 2522 
Q 1259 2794 1537 2939 
Q 1816 3084 2150 3084 
Q 2853 3084 3261 2657 
Q 3669 2231 3669 1497 
Q 3669 778 3244 343 
Q 2819 -91 2113 -91 
Q 1303 -91 875 529 
Q 447 1150 447 2328 
Q 447 3434 972 4092 
Q 1497 4750 2381 4750 
Q 2619 4750 2861 4703 
Q 3103 4656 3366 4563 
z
" transform="scale(0.015625)"/>
       </defs>
       <use xlink:href="#DejaVuSans-32"/>
       <use xlink:href="#DejaVuSans-30" x="63.623047"/>
       <use xlink:href="#DejaVuSans-32" x="127.246094"/>
       <use xlink:href="#DejaVuSans-33" x="190.869141"/>
       <use xlink:href="#DejaVuSans-2d" x="254.492188"/>
       <use xlink:href="#DejaVuSans-30" x="290.576172"/>
       <use xlink:href="#DejaVuSans-36" x="354.199219"/>
       <use xlink:href="#DejaVuSans-2d" x="417.822266"/>
       <use xlink:href="#DejaVuSans-30" x="453.90625"/>
       <use xlink:href="#DejaVuSans-31" x="517.529297"/>
      </g>
     </g>
    </g>
   </g>
   <g id="matplotlib.axis_2">
    <g id="ytick_1">
     <g id="line2d_11">
      <defs>
       <path id="mb62b649ff1" d="M 0 0 
L -3.5 0 
" style="stroke: #000000; stroke-width: 0.8"/>
      </defs>
      <g>
       <use xlink:href="#mb62b649ff1" x="26.925" y="311.009042" style="stroke: #000000; stroke-width: 0.8"/>
      </g>
     </g>
     <g id="text_11">
      <!-- 0 -->
      <g transform="translate(13.5625 314.808261) scale(0.1 -0.1)">
       <use xlink:href="#DejaVuSans-30"/>
      </g>
     </g>
    </g>
    <g id="ytick_2">
     <g id="line2d_12">
      <g>
       <use xlink:href="#mb62b649ff1" x="26.925" y="254.774032" style="stroke: #000000; stroke-width: 0.8"/>
      </g>
     </g>
     <g id="text_12">
      <!-- 2 -->
      <g transform="translate(13.5625 258.573251) scale(0.1 -0.1)">
       <use xlink:href="#DejaVuSans-32"/>
      </g>
     </g>
    </g>
    <g id="ytick_3">
     <g id="line2d_13">
      <g>
       <use xlink:href="#mb62b649ff1" x="26.925" y="198.539022" style="stroke: #000000; stroke-width: 0.8"/>
      </g>
     </g>
     <g id="text_13">
      <!-- 4 -->
      <g transform="translate(13.5625 202.33824) scale(0.1 -0.1)">
       <use xlink:href="#DejaVuSans-34"/>
      </g>
     </g>
    </g>
    <g id="ytick_4">
     <g id="line2d_14">
      <g>
       <use xlink:href="#mb62b649ff1" x="26.925" y="142.304011" style="stroke: #000000; stroke-width: 0.8"/>
      </g>
     </g>
     <g id="text_14">
      <!-- 6 -->
      <g transform="translate(13.5625 146.10323) scale(0.1 -0.1)">
       <use xlink:href="#DejaVuSans-36"/>
      </g>
     </g>
    </g>
    <g id="ytick_5">
     <g id="line2d_15">
      <g>
       <use xlink:href="#mb62b649ff1" x="26.925" y="86.069001" style="stroke: #000000; stroke-width: 0.8"/>
      </g>
     </g>
     <g id="text_15">
      <!-- 8 -->
      <g transform="translate(13.5625 89.86822) scale(0.1 -0.1)">
       <defs>
        <path id="DejaVuSans-38" d="M 2034 2216 
Q 1584 2216 1326 1975 
Q 1069 1734 1069 1313 
Q 1069 891 1326 650 
Q 1584 409 2034 409 
Q 2484 409 2743 651 
Q 3003 894 3003 1313 
Q 3003 1734 2745 1975 
Q 2488 2216 2034 2216 
z
M 1403 2484 
Q 997 2584 770 2862 
Q 544 3141 544 3541 
Q 544 4100 942 4425 
Q 1341 4750 2034 4750 
Q 2731 4750 3128 4425 
Q 3525 4100 3525 3541 
Q 3525 3141 3298 2862 
Q 3072 2584 2669 2484 
Q 3125 2378 3379 2068 
Q 3634 1759 3634 1313 
Q 3634 634 3220 271 
Q 2806 -91 2034 -91 
Q 1263 -91 848 271 
Q 434 634 434 1313 
Q 434 1759 690 2068 
Q 947 2378 1403 2484 
z
M 1172 3481 
Q 1172 3119 1398 2916 
Q 1625 2713 2034 2713 
Q 2441 2713 2670 2916 
Q 2900 3119 2900 3481 
Q 2900 3844 2670 4047 
Q 2441 4250 2034 4250 
Q 1625 4250 1398 4047 
Q 1172 3844 1172 3481 
z
" transform="scale(0.015625)"/>
       </defs>
       <use xlink:href="#DejaVuSans-38"/>
      </g>
     </g>
    </g>
    <g id="ytick_6">
     <g id="line2d_16">
      <g>
       <use xlink:href="#mb62b649ff1" x="26.925" y="29.83399" style="stroke: #000000; stroke-width: 0.8"/>
      </g>
     </g>
     <g id="text_16">
      <!-- 10 -->
      <g transform="translate(7.2 33.633209) scale(0.1 -0.1)">
       <use xlink:href="#DejaVuSans-31"/>
       <use xlink:href="#DejaVuSans-30" x="63.623047"/>
      </g>
     </g>
    </g>
   </g>
   <g id="line2d_17">
    <path d="M 57.775455 202.01397 
L 59.235831 200.968749 
L 59.235831 200.968749 
L 59.966019 200.031124 
L 59.966019 200.031124 
L 61.426396 198.801452 
L 61.426396 198.801452 
L 63.616961 196.787863 
L 63.616961 196.787863 
L 64.347149 195.927093 
L 64.347149 195.927093 
L 65.077337 195.527449 
L 73.109408 187.257904 
L 73.109408 187.257904 
L 73.839597 185.65933 
L 74.569785 183.199985 
L 74.569785 183.199985 
L 76.76035 174.146524 
L 76.76035 174.146524 
L 78.220726 167.829082 
L 78.220726 167.829082 
L 79.681103 162.449266 
L 79.681103 162.449266 
L 81.141479 158.022446 
L 81.141479 158.022446 
L 85.522609 144.081038 
L 85.522609 144.081038 
L 87.713174 138.316949 
L 87.713174 138.316949 
L 89.903739 132.89102 
L 89.903739 132.89102 
L 90.633927 131.553752 
L 90.633927 131.553752 
L 91.364115 129.570905 
L 91.364115 129.570905 
L 92.094303 128.018444 
L 92.094303 128.018444 
L 93.55468 124.314056 
L 93.55468 124.314056 
L 94.284868 123.022901 
L 94.284868 123.022901 
L 95.745245 119.579818 
L 95.745245 119.579818 
L 97.205621 115.045402 
L 97.205621 115.045402 
L 100.856563 100.765833 
L 100.856563 100.765833 
L 102.316939 94.940261 
L 102.316939 94.940261 
L 103.777316 89.82175 
L 103.777316 89.82175 
L 105.967881 83.596535 
L 105.967881 83.596535 
L 108.158445 78.616362 
L 108.158445 78.616362 
L 109.618822 75.603665 
L 109.618822 75.603665 
L 112.539575 69.332337 
L 112.539575 69.332337 
L 113.269763 67.733763 
L 113.269763 67.733763 
L 115.460328 62.261722 
L 115.460328 62.261722 
L 116.920705 58.849381 
L 116.920705 58.849381 
L 118.381081 55.375557 
L 118.381081 55.375557 
L 120.571646 51.025592 
L 120.571646 51.025592 
L 122.032023 49.073487 
L 122.032023 49.073487 
L 124.952776 45.430583 
L 124.952776 45.430583 
L 125.682964 44.846489 
L 125.682964 44.846489 
L 126.413152 44.031831 
L 126.413152 44.031831 
L 129.333905 41.710825 
L 129.333905 41.710825 
L 130.064094 41.249697 
L 130.064094 41.249697 
L 130.794282 40.511894 
L 130.794282 40.511894 
L 131.52447 39.989283 
L 131.52447 39.989283 
L 132.984847 39.620382 
L 132.984847 39.620382 
L 133.715035 39.850945 
L 133.715035 39.850945 
L 134.445223 39.897058 
L 134.445223 39.897058 
L 135.175412 38.636644 
L 135.175412 38.636644 
L 135.9056 38.175517 
L 135.9056 38.175517 
L 136.635788 38.006437 
L 136.635788 38.006437 
L 138.096165 38.329226 
L 138.096165 38.329226 
L 138.826353 38.529048 
L 138.826353 38.529048 
L 139.556541 39.0824 
L 139.556541 39.0824 
L 140.286729 39.850945 
L 140.286729 39.850945 
L 141.016918 40.312072 
L 141.016918 40.312072 
L 142.477294 42.156581 
L 142.477294 42.156581 
L 143.207483 43.478478 
L 143.207483 43.478478 
L 143.937671 45.307616 
L 144.667859 46.56803 
L 145.398047 47.490284 
L 146.858424 50.226305 
L 147.588612 50.948737 
L 148.3188 51.471348 
L 149.048989 51.471348 
L 149.779177 51.763395 
L 150.509365 51.609686 
L 152.69993 50.764286 
L 154.160307 50.856512 
L 154.890495 51.210043 
L 155.620683 51.978588 
L 156.350871 52.547311 
L 157.811248 54.222739 
L 158.541436 54.637754 
L 159.271625 55.283332 
L 160.001813 55.636863 
L 160.732001 56.743568 
L 161.462189 57.097098 
L 162.192378 57.911756 
L 162.922566 58.49585 
L 163.652754 58.449738 
L 164.382942 58.111578 
L 165.843319 56.6206 
L 166.573507 54.868317 
L 167.303696 54.207369 
L 168.033884 53.361969 
L 168.764072 52.993067 
L 169.49426 51.748024 
L 170.224449 51.148559 
L 171.684825 50.625948 
L 173.145202 50.82577 
L 175.335767 50.303159 
L 176.065955 49.98037 
L 176.796143 49.027374 
L 177.526331 48.381796 
L 178.25652 48.258829 
L 178.986708 46.952302 
L 179.716896 46.414321 
L 181.177273 44.400733 
L 181.907461 42.894384 
L 182.637649 41.818421 
L 184.098026 40.496523 
L 184.828214 39.558898 
L 186.288591 38.482935 
L 187.018779 38.267742 
L 187.748967 37.237892 
L 188.479155 36.469347 
L 189.939532 36.19267 
L 190.66972 36.607685 
L 191.399909 36.638427 
L 192.130097 37.37623 
L 192.860285 37.775873 
L 193.590473 38.021808 
L 194.320662 38.851837 
L 197.241415 43.34014 
L 197.971603 44.769634 
L 201.622544 53.915321 
L 211.84518 85.779203 
L 213.305557 89.867863 
L 216.22631 98.552423 
L 218.416875 103.763159 
L 219.147063 105.177282 
L 219.877251 107.00642 
L 220.607439 108.297576 
L 222.067816 111.648433 
L 222.798004 112.755138 
L 229.369699 124.667587 
L 230.099887 125.789663 
L 230.830075 127.818622 
L 233.02064 132.060992 
L 235.211205 135.688525 
L 235.941393 137.594517 
L 238.131958 141.345017 
L 238.862146 142.436351 
L 241.052711 147.508749 
L 241.782899 148.630825 
L 242.513088 150.475333 
L 243.973464 153.626368 
L 247.624406 161.434787 
L 248.354594 162.618346 
L 249.81497 167.398697 
L 250.545159 169.135609 
L 251.275347 169.981009 
L 252.005535 171.287536 
L 254.926288 179.111325 
L 255.656477 179.480227 
L 256.386665 181.539928 
L 257.116853 182.631262 
L 259.307418 185.121348 
L 260.037606 186.381762 
L 260.767795 187.288645 
L 262.228171 189.563539 
L 263.688548 191.730836 
L 264.418736 192.361043 
L 265.879112 194.405373 
L 266.609301 194.927984 
L 267.339489 196.111544 
L 268.799866 199.554626 
L 270.99043 202.35213 
L 271.720619 203.889221 
L 272.450807 204.765362 
L 273.180995 205.825954 
L 273.911183 207.501383 
L 274.641372 207.147852 
L 275.37156 208.223815 
L 276.101748 208.454379 
L 276.831937 208.900135 
L 277.562125 209.176811 
L 278.292313 209.684051 
L 279.022501 209.791647 
L 281.213066 211.405592 
L 281.943254 212.066541 
L 282.673443 212.158766 
L 283.403631 212.850457 
L 284.864008 213.357697 
L 287.784761 215.617219 
L 288.514949 215.955379 
L 289.245137 217.169681 
L 289.975325 217.753775 
L 290.705514 219.137156 
L 291.435702 218.722142 
L 292.16589 218.553062 
L 292.896079 220.443683 
L 293.626267 220.028669 
L 294.356455 220.074781 
L 295.816832 220.874068 
L 297.277208 222.165224 
L 298.007396 222.365046 
L 299.467773 224.009732 
L 300.197961 224.040474 
L 301.658338 224.885874 
L 303.118714 226.223142 
L 304.579091 227.283735 
L 305.309279 227.637265 
L 306.039467 228.7286 
L 306.769656 229.42029 
L 307.499844 230.26569 
L 308.230032 232.14094 
L 308.960221 233.186161 
L 309.690409 233.109307 
L 310.420597 232.555954 
L 311.880974 233.954706 
L 312.611162 234.431204 
L 313.34135 234.631026 
L 314.801727 235.537909 
L 315.531915 236.137375 
L 316.992292 236.967403 
L 317.72248 236.798324 
L 319.182856 238.381526 
L 319.913045 239.672682 
L 320.643233 240.026213 
L 321.373421 239.887875 
L 322.103609 240.8255 
L 322.833798 241.056064 
L 323.563986 242.285736 
L 324.294174 242.746863 
L 325.024363 243.484666 
L 325.754551 244.05339 
L 326.484739 244.022648 
L 327.214927 243.822826 
L 327.945116 244.253211 
L 328.675304 244.821935 
L 329.405492 245.75956 
L 330.13568 247.019974 
L 331.596057 248.434097 
L 332.326245 249.1719 
L 333.786622 251.800325 
L 334.51681 252.492015 
L 335.246998 253.398899 
L 335.977187 254.597829 
L 336.707375 256.31937 
L 338.89794 258.809456 
L 339.628128 260.469514 
L 340.358316 260.57711 
L 341.088505 261.560848 
L 343.279069 265.142268 
L 344.009258 265.757104 
L 344.739446 266.771584 
L 345.469634 266.218232 
L 346.199822 266.556391 
L 346.930011 266.571762 
L 348.390387 267.309566 
L 349.850764 267.786064 
L 351.31114 269.09259 
L 352.041329 269.569088 
L 352.771517 268.984994 
L 353.501705 270.122441 
L 354.962082 269.861136 
L 355.69227 270.660422 
L 356.422458 271.090808 
L 357.152647 271.060066 
L 358.613023 272.443447 
L 359.343211 273.073654 
L 360.0734 273.396443 
L 360.803588 273.965167 
L 361.533776 273.734603 
L 362.263964 275.240952 
L 362.994153 275.317806 
L 363.724341 274.749083 
L 365.914906 274.641486 
L 367.375282 275.117984 
L 368.105471 275.271693 
L 368.835659 275.594482 
L 369.565847 275.194839 
L 370.296036 274.349439 
L 371.026224 276.593591 
L 371.756412 276.055609 
L 372.4866 277.915489 
L 373.216789 278.330503 
L 373.946977 279.452579 
L 374.677165 279.145161 
L 375.407353 279.498692 
L 376.137542 279.160532 
L 376.86773 280.005931 
L 377.597918 280.251866 
L 378.328107 281.589134 
L 379.058295 282.326938 
L 379.788483 282.081003 
L 380.518671 280.113528 
L 381.24886 279.836851 
L 381.979048 280.759106 
L 382.709236 280.098157 
L 383.439424 280.113528 
L 384.899801 279.022194 
L 385.629989 278.822372 
L 386.360178 278.991452 
L 387.090366 278.499583 
L 387.820554 278.653292 
L 388.550742 279.052935 
L 389.280931 279.314241 
L 390.741307 280.374833 
L 391.471495 280.113528 
L 392.931872 280.190382 
L 393.66206 280.928186 
L 395.122437 281.128007 
L 395.852625 280.759106 
L 397.313002 281.404684 
L 398.04319 281.788956 
L 398.773378 281.527651 
L 399.503566 281.450796 
L 400.233755 281.235604 
L 400.963943 280.789847 
L 401.694131 279.406466 
L 402.42432 280.14427 
L 403.154508 280.451688 
L 403.884696 280.32872 
L 404.614884 280.4978 
L 405.345073 280.513171 
L 406.075261 280.728364 
L 406.805449 281.250975 
L 408.996014 282.050261 
L 409.726202 282.050261 
L 410.456391 282.480647 
L 411.186579 282.296196 
L 411.916767 282.37305 
L 413.377144 283.510497 
L 414.107332 283.064741 
L 414.83752 282.957145 
L 415.567708 282.265454 
L 416.297897 281.773585 
L 417.028085 281.942665 
L 417.758273 281.85044 
L 418.488462 281.973407 
L 419.21865 281.804327 
L 420.679026 280.897444 
L 421.409215 281.066524 
L 422.139403 280.866702 
L 422.869591 280.405575 
L 424.329968 279.160532 
L 425.790344 277.869376 
L 426.520533 276.962493 
L 427.250721 276.470624 
L 427.980909 275.410031 
L 428.711097 274.979646 
L 430.171474 273.181251 
L 430.901662 272.581785 
L 431.63185 272.274367 
L 433.092227 271.398226 
L 434.552604 271.751757 
L 436.01298 271.336742 
L 436.743168 270.906357 
L 438.203545 270.44523 
L 438.933733 270.721906 
L 440.39411 270.506713 
L 441.124298 271.352113 
L 441.854486 270.798761 
L 442.584675 271.029324 
L 443.314863 271.490451 
L 444.045051 271.782498 
L 444.775239 272.566414 
L 445.505428 272.535673 
L 446.235616 272.750865 
L 446.965804 273.196621 
L 447.695992 274.057392 
L 448.426181 274.472406 
L 449.156369 275.087242 
L 449.886557 276.547478 
L 450.616746 276.485995 
L 451.346934 275.56374 
L 452.077122 275.579111 
L 452.80731 275.994126 
L 453.537499 276.178577 
L 454.267687 276.931751 
L 456.458252 277.976972 
L 457.18844 278.514954 
L 457.918628 278.345874 
L 458.648817 278.545696 
L 460.109193 279.560175 
L 460.839381 280.820589 
L 461.56957 281.665989 
L 462.299758 281.3432 
L 463.029946 281.420054 
L 463.760134 281.85044 
L 464.490323 282.434534 
L 465.220511 282.757323 
L 465.950699 281.911923 
L 466.680888 281.788956 
L 467.411076 282.480647 
L 468.871452 282.342309 
L 469.601641 282.557501 
L 470.331829 283.21845 
L 471.062017 282.987887 
L 471.792205 283.310676 
L 474.712959 284.202188 
L 475.443147 284.094592 
L 476.173335 285.047588 
L 476.903523 284.801653 
L 477.633712 285.293522 
L 478.3639 285.155184 
L 479.094088 285.846874 
L 480.554465 285.616311 
L 481.284653 286.015954 
L 482.014841 286.046696 
L 482.74503 286.569307 
L 483.475218 286.845983 
L 484.935594 287.768237 
L 485.665783 287.368594 
L 486.395971 287.153401 
L 487.126159 286.692274 
L 487.856347 286.369485 
L 489.316724 286.523194 
L 490.046912 286.292631 
L 490.777101 285.677795 
L 492.967665 286.676903 
L 494.428042 286.200405 
L 495.15823 286.938209 
L 495.888419 286.907467 
L 496.618607 287.091918 
L 497.348795 287.445448 
L 498.078983 287.660641 
L 498.809172 288.644379 
L 500.269548 289.136248 
L 500.999736 290.565742 
L 501.729925 290.104615 
L 502.460113 290.350549 
L 503.190301 289.535891 
L 503.92049 289.535891 
L 504.650678 289.213102 
L 505.380866 289.197731 
L 506.111054 289.612746 
L 506.841243 289.366811 
L 507.571431 289.535891 
L 508.301619 289.336069 
L 509.761996 289.274586 
L 510.492184 289.612746 
L 511.222372 289.797197 
L 511.952561 290.919272 
L 512.682749 291.411141 
L 513.412937 291.088352 
L 514.143125 291.457254 
L 514.873314 291.39577 
L 515.603502 291.057611 
L 516.33369 292.041348 
L 517.063878 292.425621 
L 517.794067 293.455471 
L 518.524255 293.824373 
L 519.254443 293.916598 
L 519.984632 292.825264 
L 520.71482 292.533217 
L 521.445008 292.440992 
L 523.635573 294.208646 
L 524.365761 294.177904 
L 525.095949 294.270129 
L 525.826138 294.208646 
L 526.556326 294.700515 
L 527.286514 294.592918 
L 528.016703 295.177013 
L 528.746891 296.790957 
L 529.477079 295.484431 
L 530.937456 296.375943 
L 533.12802 296.375943 
L 533.858209 296.806328 
L 535.318585 298.328048 
L 536.048774 298.743062 
L 537.50915 301.26389 
L 538.239338 300.141814 
L 538.969527 298.666207 
L 539.699715 298.158968 
L 540.429903 298.128226 
L 541.160091 297.805437 
L 542.620468 298.650837 
L 543.350656 298.328048 
L 544.080845 298.358789 
L 544.811033 298.696949 
L 545.541221 298.297306 
L 546.271409 299.327156 
L 547.001598 299.065851 
L 547.731786 299.311785 
L 548.461974 299.096593 
L 549.192162 299.05048 
L 550.652539 299.342527 
L 551.382727 299.327156 
L 554.30348 302.047806 
L 555.033669 304.614747 
L 555.763857 303.431187 
L 556.494045 301.709646 
L 558.68461 300.864247 
L 559.414798 300.864247 
L 561.605363 301.125552 
L 562.335551 301.171665 
L 563.06574 300.92573 
L 563.795928 302.293741 
L 564.526116 302.124661 
L 565.256304 301.817243 
L 565.986493 301.863355 
L 566.716681 301.509824 
L 567.446869 301.648163 
L 568.177058 301.663534 
L 568.907246 301.847984 
L 569.637434 302.585788 
L 570.367622 302.97006 
L 571.097811 303.584896 
L 571.827999 305.121987 
L 572.558187 307.90412 
L 574.018564 303.907685 
L 574.748752 303.508042 
L 575.47894 303.338962 
L 576.209129 303.661751 
L 576.939317 303.800089 
L 577.669505 303.64638 
L 579.129882 304.122878 
L 579.86007 304.768456 
L 580.590258 304.691601 
L 581.320446 305.752194 
L 582.050635 305.367921 
L 582.780823 306.02887 
L 583.511011 306.443884 
L 584.2412 306.428513 
L 584.971388 306.151837 
L 585.701576 305.675339 
L 586.431764 306.151837 
L 587.161953 306.167208 
L 587.892141 307.027979 
L 588.622329 307.627444 
L 589.352517 307.950233 
L 590.082706 307.658186 
L 590.812894 308.303764 
L 591.543082 307.581331 
L 592.273271 307.197059 
L 593.733647 306.920382 
L 596.6544 307.335397 
L 597.384588 307.504477 
L 598.114777 307.442993 
L 598.844965 308.980083 
L 599.575153 308.549698 
L 600.305342 308.641923 
L 601.765718 308.273022 
L 602.495906 308.457473 
L 603.226095 308.24228 
L 603.956283 308.196167 
L 604.686471 308.365247 
L 605.416659 308.9186 
L 606.146848 309.671774 
L 606.877036 309.056938 
L 607.607224 310.194385 
L 608.337413 309.27213 
L 609.067601 308.718778 
L 609.797789 308.641923 
L 610.527977 308.442102 
L 611.258166 308.41136 
L 611.988354 308.703407 
L 614.178919 308.933971 
L 614.909107 309.118421 
L 615.639295 309.133792 
L 616.369484 309.963821 
L 617.099672 309.072309 
L 618.560048 309.164534 
L 619.290237 309.226018 
L 620.020425 309.08768 
L 620.750613 309.717887 
L 621.480802 309.471952 
L 622.21099 309.77937 
L 622.941178 309.871596 
L 623.671366 310.332723 
L 624.401555 310.578657 
L 625.131743 312.991889 
L 625.861931 312.16186 
L 626.592119 310.640141 
L 628.052496 309.656403 
L 628.782684 309.379727 
L 629.512873 309.410469 
L 630.243061 309.625661 
L 630.973249 309.395098 
L 631.703437 309.041567 
L 632.433626 310.071417 
L 633.163814 310.071417 
L 633.894002 310.609399 
L 634.62419 310.563286 
L 635.354379 310.686253 
L 636.814755 310.194385 
L 638.275132 310.547915 
L 639.00532 310.763108 
L 640.465697 310.978301 
L 641.195885 311.946668 
L 641.926073 312.607616 
L 642.656261 313.68358 
L 643.38645 312.745954 
L 644.116638 311.424057 
L 644.846826 310.378835 
L 645.577015 309.871596 
L 646.307203 310.517174 
L 647.767579 311.039784 
L 648.497768 310.947559 
L 649.227956 311.116639 
L 649.958144 311.439428 
L 650.688332 311.639249 
L 651.418521 270.27615 
L 652.148709 312.961147 
L 652.878897 312.638358 
L 653.609086 312.561504 
L 654.339274 312.83818 
L 655.069462 313.283936 
L 655.79965 227.790974 
L 656.529839 310.28661 
L 657.260027 312.269456 
L 657.990215 308.933971 
L 658.720403 309.656403 
L 659.450592 310.716995 
L 660.18078 310.424948 
L 660.910968 310.348094 
L 663.101533 310.870704 
L 663.831721 310.79385 
L 666.752474 311.639249 
L 667.482663 311.48554 
L 668.212851 311.777588 
L 668.943039 311.623879 
L 669.673228 312.054264 
L 670.403416 311.716104 
L 672.593981 311.746846 
L 674.054357 310.440319 
L 674.784545 309.917708 
L 674.784545 309.917708 
" clip-path="url(#pa29c66ea9f)" style="fill: none; stroke: #1f77b4; stroke-width: 1.5; stroke-linecap: square"/>
   </g>
   <g id="patch_3">
    <path d="M 26.925 327.558125 
L 26.925 22.318125 
" style="fill: none; stroke: #000000; stroke-width: 0.8; stroke-linejoin: miter; stroke-linecap: square"/>
   </g>
   <g id="patch_4">
    <path d="M 705.635 327.558125 
L 705.635 22.318125 
" style="fill: none; stroke: #000000; stroke-width: 0.8; stroke-linejoin: miter; stroke-linecap: square"/>
   </g>
   <g id="patch_5">
    <path d="M 26.925 327.558125 
L 705.635 327.558125 
" style="fill: none; stroke: #000000; stroke-width: 0.8; stroke-linejoin: miter; stroke-linecap: square"/>
   </g>
   <g id="patch_6">
    <path d="M 26.925 22.318125 
L 705.635 22.318125 
" style="fill: none; stroke: #000000; stroke-width: 0.8; stroke-linejoin: miter; stroke-linecap: square"/>
   </g>
   <g id="text_17">
    <!-- training -->
    <g transform="translate(343.036563 16.318125) scale(0.12 -0.12)">
     <defs>
      <path id="DejaVuSans-74" d="M 1172 4494 
L 1172 3500 
L 2356 3500 
L 2356 3053 
L 1172 3053 
L 1172 1153 
Q 1172 725 1289 603 
Q 1406 481 1766 481 
L 2356 481 
L 2356 0 
L 1766 0 
Q 1100 0 847 248 
Q 594 497 594 1153 
L 594 3053 
L 172 3053 
L 172 3500 
L 594 3500 
L 594 4494 
L 1172 4494 
z
" transform="scale(0.015625)"/>
      <path id="DejaVuSans-72" d="M 2631 2963 
Q 2534 3019 2420 3045 
Q 2306 3072 2169 3072 
Q 1681 3072 1420 2755 
Q 1159 2438 1159 1844 
L 1159 0 
L 581 0 
L 581 3500 
L 1159 3500 
L 1159 2956 
Q 1341 3275 1631 3429 
Q 1922 3584 2338 3584 
Q 2397 3584 2469 3576 
Q 2541 3569 2628 3553 
L 2631 2963 
z
" transform="scale(0.015625)"/>
      <path id="DejaVuSans-61" d="M 2194 1759 
Q 1497 1759 1228 1600 
Q 959 1441 959 1056 
Q 959 750 1161 570 
Q 1363 391 1709 391 
Q 2188 391 2477 730 
Q 2766 1069 2766 1631 
L 2766 1759 
L 2194 1759 
z
M 3341 1997 
L 3341 0 
L 2766 0 
L 2766 531 
Q 2569 213 2275 61 
Q 1981 -91 1556 -91 
Q 1019 -91 701 211 
Q 384 513 384 1019 
Q 384 1609 779 1909 
Q 1175 2209 1959 2209 
L 2766 2209 
L 2766 2266 
Q 2766 2663 2505 2880 
Q 2244 3097 1772 3097 
Q 1472 3097 1187 3025 
Q 903 2953 641 2809 
L 641 3341 
Q 956 3463 1253 3523 
Q 1550 3584 1831 3584 
Q 2591 3584 2966 3190 
Q 3341 2797 3341 1997 
z
" transform="scale(0.015625)"/>
      <path id="DejaVuSans-69" d="M 603 3500 
L 1178 3500 
L 1178 0 
L 603 0 
L 603 3500 
z
M 603 4863 
L 1178 4863 
L 1178 4134 
L 603 4134 
L 603 4863 
z
" transform="scale(0.015625)"/>
      <path id="DejaVuSans-6e" d="M 3513 2113 
L 3513 0 
L 2938 0 
L 2938 2094 
Q 2938 2591 2744 2837 
Q 2550 3084 2163 3084 
Q 1697 3084 1428 2787 
Q 1159 2491 1159 1978 
L 1159 0 
L 581 0 
L 581 3500 
L 1159 3500 
L 1159 2956 
Q 1366 3272 1645 3428 
Q 1925 3584 2291 3584 
Q 2894 3584 3203 3211 
Q 3513 2838 3513 2113 
z
" transform="scale(0.015625)"/>
      <path id="DejaVuSans-67" d="M 2906 1791 
Q 2906 2416 2648 2759 
Q 2391 3103 1925 3103 
Q 1463 3103 1205 2759 
Q 947 2416 947 1791 
Q 947 1169 1205 825 
Q 1463 481 1925 481 
Q 2391 481 2648 825 
Q 2906 1169 2906 1791 
z
M 3481 434 
Q 3481 -459 3084 -895 
Q 2688 -1331 1869 -1331 
Q 1566 -1331 1297 -1286 
Q 1028 -1241 775 -1147 
L 775 -588 
Q 1028 -725 1275 -790 
Q 1522 -856 1778 -856 
Q 2344 -856 2625 -561 
Q 2906 -266 2906 331 
L 2906 616 
Q 2728 306 2450 153 
Q 2172 0 1784 0 
Q 1141 0 747 490 
Q 353 981 353 1791 
Q 353 2603 747 3093 
Q 1141 3584 1784 3584 
Q 2172 3584 2450 3431 
Q 2728 3278 2906 2969 
L 2906 3500 
L 3481 3500 
L 3481 434 
z
" transform="scale(0.015625)"/>
     </defs>
     <use xlink:href="#DejaVuSans-74"/>
     <use xlink:href="#DejaVuSans-72" x="39.208984"/>
     <use xlink:href="#DejaVuSans-61" x="80.322266"/>
     <use xlink:href="#DejaVuSans-69" x="141.601562"/>
     <use xlink:href="#DejaVuSans-6e" x="169.384766"/>
     <use xlink:href="#DejaVuSans-69" x="232.763672"/>
     <use xlink:href="#DejaVuSans-6e" x="260.546875"/>
     <use xlink:href="#DejaVuSans-67" x="323.925781"/>
    </g>
   </g>
   <g id="legend_1">
    <g id="patch_7">
     <path d="M 620.274063 44.99625 
L 698.635 44.99625 
Q 700.635 44.99625 700.635 42.99625 
L 700.635 29.318125 
Q 700.635 27.318125 698.635 27.318125 
L 620.274063 27.318125 
Q 618.274063 27.318125 618.274063 29.318125 
L 618.274063 42.99625 
Q 618.274063 44.99625 620.274063 44.99625 
z
" style="fill: #ffffff; opacity: 0.8; stroke: #cccccc; stroke-linejoin: miter"/>
    </g>
    <g id="line2d_18">
     <path d="M 622.274063 35.416563 
L 632.274063 35.416563 
L 642.274063 35.416563 
" style="fill: none; stroke: #1f77b4; stroke-width: 1.5; stroke-linecap: square"/>
    </g>
    <g id="text_18">
     <!-- observed -->
     <g transform="translate(650.274063 38.916563) scale(0.1 -0.1)">
      <defs>
       <path id="DejaVuSans-6f" d="M 1959 3097 
Q 1497 3097 1228 2736 
Q 959 2375 959 1747 
Q 959 1119 1226 758 
Q 1494 397 1959 397 
Q 2419 397 2687 759 
Q 2956 1122 2956 1747 
Q 2956 2369 2687 2733 
Q 2419 3097 1959 3097 
z
M 1959 3584 
Q 2709 3584 3137 3096 
Q 3566 2609 3566 1747 
Q 3566 888 3137 398 
Q 2709 -91 1959 -91 
Q 1206 -91 779 398 
Q 353 888 353 1747 
Q 353 2609 779 3096 
Q 1206 3584 1959 3584 
z
" transform="scale(0.015625)"/>
       <path id="DejaVuSans-62" d="M 3116 1747 
Q 3116 2381 2855 2742 
Q 2594 3103 2138 3103 
Q 1681 3103 1420 2742 
Q 1159 2381 1159 1747 
Q 1159 1113 1420 752 
Q 1681 391 2138 391 
Q 2594 391 2855 752 
Q 3116 1113 3116 1747 
z
M 1159 2969 
Q 1341 3281 1617 3432 
Q 1894 3584 2278 3584 
Q 2916 3584 3314 3078 
Q 3713 2572 3713 1747 
Q 3713 922 3314 415 
Q 2916 -91 2278 -91 
Q 1894 -91 1617 61 
Q 1341 213 1159 525 
L 1159 0 
L 581 0 
L 581 4863 
L 1159 4863 
L 1159 2969 
z
" transform="scale(0.015625)"/>
       <path id="DejaVuSans-73" d="M 2834 3397 
L 2834 2853 
Q 2591 2978 2328 3040 
Q 2066 3103 1784 3103 
Q 1356 3103 1142 2972 
Q 928 2841 928 2578 
Q 928 2378 1081 2264 
Q 1234 2150 1697 2047 
L 1894 2003 
Q 2506 1872 2764 1633 
Q 3022 1394 3022 966 
Q 3022 478 2636 193 
Q 2250 -91 1575 -91 
Q 1294 -91 989 -36 
Q 684 19 347 128 
L 347 722 
Q 666 556 975 473 
Q 1284 391 1588 391 
Q 1994 391 2212 530 
Q 2431 669 2431 922 
Q 2431 1156 2273 1281 
Q 2116 1406 1581 1522 
L 1381 1569 
Q 847 1681 609 1914 
Q 372 2147 372 2553 
Q 372 3047 722 3315 
Q 1072 3584 1716 3584 
Q 2034 3584 2315 3537 
Q 2597 3491 2834 3397 
z
" transform="scale(0.015625)"/>
       <path id="DejaVuSans-65" d="M 3597 1894 
L 3597 1613 
L 953 1613 
Q 991 1019 1311 708 
Q 1631 397 2203 397 
Q 2534 397 2845 478 
Q 3156 559 3463 722 
L 3463 178 
Q 3153 47 2828 -22 
Q 2503 -91 2169 -91 
Q 1331 -91 842 396 
Q 353 884 353 1716 
Q 353 2575 817 3079 
Q 1281 3584 2069 3584 
Q 2775 3584 3186 3129 
Q 3597 2675 3597 1894 
z
M 3022 2063 
Q 3016 2534 2758 2815 
Q 2500 3097 2075 3097 
Q 1594 3097 1305 2825 
Q 1016 2553 972 2059 
L 3022 2063 
z
" transform="scale(0.015625)"/>
       <path id="DejaVuSans-76" d="M 191 3500 
L 800 3500 
L 1894 563 
L 2988 3500 
L 3597 3500 
L 2284 0 
L 1503 0 
L 191 3500 
z
" transform="scale(0.015625)"/>
       <path id="DejaVuSans-64" d="M 2906 2969 
L 2906 4863 
L 3481 4863 
L 3481 0 
L 2906 0 
L 2906 525 
Q 2725 213 2448 61 
Q 2172 -91 1784 -91 
Q 1150 -91 751 415 
Q 353 922 353 1747 
Q 353 2572 751 3078 
Q 1150 3584 1784 3584 
Q 2172 3584 2448 3432 
Q 2725 3281 2906 2969 
z
M 947 1747 
Q 947 1113 1208 752 
Q 1469 391 1925 391 
Q 2381 391 2643 752 
Q 2906 1113 2906 1747 
Q 2906 2381 2643 2742 
Q 2381 3103 1925 3103 
Q 1469 3103 1208 2742 
Q 947 2381 947 1747 
z
" transform="scale(0.015625)"/>
      </defs>
      <use xlink:href="#DejaVuSans-6f"/>
      <use xlink:href="#DejaVuSans-62" x="61.181641"/>
      <use xlink:href="#DejaVuSans-73" x="124.658203"/>
      <use xlink:href="#DejaVuSans-65" x="176.757812"/>
      <use xlink:href="#DejaVuSans-72" x="238.28125"/>
      <use xlink:href="#DejaVuSans-76" x="279.394531"/>
      <use xlink:href="#DejaVuSans-65" x="338.574219"/>
      <use xlink:href="#DejaVuSans-64" x="400.097656"/>
     </g>
    </g>
   </g>
  </g>
 </g>
 <defs>
  <clipPath id="pa29c66ea9f">
   <rect x="26.925" y="22.318125" width="678.71" height="305.24"/>
  </clipPath>
 </defs>
</svg>
