<?xml version="1.0" encoding="utf-8" standalone="no"?>
<!DOCTYPE svg PUBLIC "-//W3C//DTD SVG 1.1//EN"
  "http://www.w3.org/Graphics/SVG/1.1/DTD/svg11.dtd">
<svg xmlns:xlink="http://www.w3.org/1999/xlink" width="720pt" height="360pt" viewBox="0 0 720 360" xmlns="http://www.w3.org/2000/svg" version="1.1">
 <metadata>
  <rdf:RDF xmlns:dc="http://purl.org/dc/elements/1.1/" xmlns:cc="http://creativecommons.org/ns#" xmlns:rdf="http://www.w3.org/1999/02/22-rdf-syntax-ns#">
   <cc:Work>
    <dc:type rdf:resource="http://purl.org/dc/dcmitype/StillImage"/>
    <dc:date>2023-10-23T10:52:48.690541</dc:date>
    <dc:format>image/svg+xml</dc:format>
    <dc:creator>
     <cc:Agent>
      <dc:title>Matplotlib v3.7.1, https://matplotlib.org/</dc:title>
     </cc:Agent>
    </dc:creator>
   </cc:Work>
  </rdf:RDF>
 </metadata>
 <defs>
  <style type="text/css">*{stroke-linejoin: round; stroke-linecap: butt}</style>
 </defs>
 <g id="figure_1">
  <g id="patch_1">
   <path d="M 0 360 
L 720 360 
L 720 0 
L 0 0 
z
" style="fill: #ffffff"/>
  </g>
  <g id="axes_1">
   <g id="patch_2">
    <path d="M 90 288 
L 648 288 
L 648 43.2 
L 90 43.2 
z
" style="fill: #ffffff"/>
   </g>
   <g id="matplotlib.axis_1">
    <g id="xtick_1">
     <g id="line2d_1">
      <defs>
       <path id="m1db344a531" d="M 0 0 
L 0 3.5 
" style="stroke: #000000; stroke-width: 0.8"/>
      </defs>
      <g>
       <use xlink:href="#m1db344a531" x="149.370747" y="288" style="stroke: #000000; stroke-width: 0.8"/>
      </g>
     </g>
     <g id="text_1">
      <!-- 2023-08-15 -->
      <g transform="translate(87.727405 337.765903) rotate(-30) scale(0.12 -0.12)">
       <defs>
        <path id="DejaVuSans-32" d="M 1228 531 
L 3431 531 
L 3431 0 
L 469 0 
L 469 531 
Q 828 903 1448 1529 
Q 2069 2156 2228 2338 
Q 2531 2678 2651 2914 
Q 2772 3150 2772 3378 
Q 2772 3750 2511 3984 
Q 2250 4219 1831 4219 
Q 1534 4219 1204 4116 
Q 875 4013 500 3803 
L 500 4441 
Q 881 4594 1212 4672 
Q 1544 4750 1819 4750 
Q 2544 4750 2975 4387 
Q 3406 4025 3406 3419 
Q 3406 3131 3298 2873 
Q 3191 2616 2906 2266 
Q 2828 2175 2409 1742 
Q 1991 1309 1228 531 
z
" transform="scale(0.015625)"/>
        <path id="DejaVuSans-30" d="M 2034 4250 
Q 1547 4250 1301 3770 
Q 1056 3291 1056 2328 
Q 1056 1369 1301 889 
Q 1547 409 2034 409 
Q 2525 409 2770 889 
Q 3016 1369 3016 2328 
Q 3016 3291 2770 3770 
Q 2525 4250 2034 4250 
z
M 2034 4750 
Q 2819 4750 3233 4129 
Q 3647 3509 3647 2328 
Q 3647 1150 3233 529 
Q 2819 -91 2034 -91 
Q 1250 -91 836 529 
Q 422 1150 422 2328 
Q 422 3509 836 4129 
Q 1250 4750 2034 4750 
z
" transform="scale(0.015625)"/>
        <path id="DejaVuSans-33" d="M 2597 2516 
Q 3050 2419 3304 2112 
Q 3559 1806 3559 1356 
Q 3559 666 3084 287 
Q 2609 -91 1734 -91 
Q 1441 -91 1130 -33 
Q 819 25 488 141 
L 488 750 
Q 750 597 1062 519 
Q 1375 441 1716 441 
Q 2309 441 2620 675 
Q 2931 909 2931 1356 
Q 2931 1769 2642 2001 
Q 2353 2234 1838 2234 
L 1294 2234 
L 1294 2753 
L 1863 2753 
Q 2328 2753 2575 2939 
Q 2822 3125 2822 3475 
Q 2822 3834 2567 4026 
Q 2313 4219 1838 4219 
Q 1578 4219 1281 4162 
Q 984 4106 628 3988 
L 628 4550 
Q 988 4650 1302 4700 
Q 1616 4750 1894 4750 
Q 2613 4750 3031 4423 
Q 3450 4097 3450 3541 
Q 3450 3153 3228 2886 
Q 3006 2619 2597 2516 
z
" transform="scale(0.015625)"/>
        <path id="DejaVuSans-2d" d="M 313 2009 
L 1997 2009 
L 1997 1497 
L 313 1497 
L 313 2009 
z
" transform="scale(0.015625)"/>
        <path id="DejaVuSans-38" d="M 2034 2216 
Q 1584 2216 1326 1975 
Q 1069 1734 1069 1313 
Q 1069 891 1326 650 
Q 1584 409 2034 409 
Q 2484 409 2743 651 
Q 3003 894 3003 1313 
Q 3003 1734 2745 1975 
Q 2488 2216 2034 2216 
z
M 1403 2484 
Q 997 2584 770 2862 
Q 544 3141 544 3541 
Q 544 4100 942 4425 
Q 1341 4750 2034 4750 
Q 2731 4750 3128 4425 
Q 3525 4100 3525 3541 
Q 3525 3141 3298 2862 
Q 3072 2584 2669 2484 
Q 3125 2378 3379 2068 
Q 3634 1759 3634 1313 
Q 3634 634 3220 271 
Q 2806 -91 2034 -91 
Q 1263 -91 848 271 
Q 434 634 434 1313 
Q 434 1759 690 2068 
Q 947 2378 1403 2484 
z
M 1172 3481 
Q 1172 3119 1398 2916 
Q 1625 2713 2034 2713 
Q 2441 2713 2670 2916 
Q 2900 3119 2900 3481 
Q 2900 3844 2670 4047 
Q 2441 4250 2034 4250 
Q 1625 4250 1398 4047 
Q 1172 3844 1172 3481 
z
" transform="scale(0.015625)"/>
        <path id="DejaVuSans-31" d="M 794 531 
L 1825 531 
L 1825 4091 
L 703 3866 
L 703 4441 
L 1819 4666 
L 2450 4666 
L 2450 531 
L 3481 531 
L 3481 0 
L 794 0 
L 794 531 
z
" transform="scale(0.015625)"/>
        <path id="DejaVuSans-35" d="M 691 4666 
L 3169 4666 
L 3169 4134 
L 1269 4134 
L 1269 2991 
Q 1406 3038 1543 3061 
Q 1681 3084 1819 3084 
Q 2600 3084 3056 2656 
Q 3513 2228 3513 1497 
Q 3513 744 3044 326 
Q 2575 -91 1722 -91 
Q 1428 -91 1123 -41 
Q 819 9 494 109 
L 494 744 
Q 775 591 1075 516 
Q 1375 441 1709 441 
Q 2250 441 2565 725 
Q 2881 1009 2881 1497 
Q 2881 1984 2565 2268 
Q 2250 2553 1709 2553 
Q 1456 2553 1204 2497 
Q 953 2441 691 2322 
L 691 4666 
z
" transform="scale(0.015625)"/>
       </defs>
       <use xlink:href="#DejaVuSans-32"/>
       <use xlink:href="#DejaVuSans-30" x="63.623047"/>
       <use xlink:href="#DejaVuSans-32" x="127.246094"/>
       <use xlink:href="#DejaVuSans-33" x="190.869141"/>
       <use xlink:href="#DejaVuSans-2d" x="254.492188"/>
       <use xlink:href="#DejaVuSans-30" x="290.576172"/>
       <use xlink:href="#DejaVuSans-38" x="354.199219"/>
       <use xlink:href="#DejaVuSans-2d" x="417.822266"/>
       <use xlink:href="#DejaVuSans-31" x="453.90625"/>
       <use xlink:href="#DejaVuSans-35" x="517.529297"/>
      </g>
     </g>
    </g>
    <g id="xtick_2">
     <g id="line2d_2">
      <g>
       <use xlink:href="#m1db344a531" x="264.994921" y="288" style="stroke: #000000; stroke-width: 0.8"/>
      </g>
     </g>
     <g id="text_2">
      <!-- 2023-09-01 -->
      <g transform="translate(203.35158 337.765903) rotate(-30) scale(0.12 -0.12)">
       <defs>
        <path id="DejaVuSans-39" d="M 703 97 
L 703 672 
Q 941 559 1184 500 
Q 1428 441 1663 441 
Q 2288 441 2617 861 
Q 2947 1281 2994 2138 
Q 2813 1869 2534 1725 
Q 2256 1581 1919 1581 
Q 1219 1581 811 2004 
Q 403 2428 403 3163 
Q 403 3881 828 4315 
Q 1253 4750 1959 4750 
Q 2769 4750 3195 4129 
Q 3622 3509 3622 2328 
Q 3622 1225 3098 567 
Q 2575 -91 1691 -91 
Q 1453 -91 1209 -44 
Q 966 3 703 97 
z
M 1959 2075 
Q 2384 2075 2632 2365 
Q 2881 2656 2881 3163 
Q 2881 3666 2632 3958 
Q 2384 4250 1959 4250 
Q 1534 4250 1286 3958 
Q 1038 3666 1038 3163 
Q 1038 2656 1286 2365 
Q 1534 2075 1959 2075 
z
" transform="scale(0.015625)"/>
       </defs>
       <use xlink:href="#DejaVuSans-32"/>
       <use xlink:href="#DejaVuSans-30" x="63.623047"/>
       <use xlink:href="#DejaVuSans-32" x="127.246094"/>
       <use xlink:href="#DejaVuSans-33" x="190.869141"/>
       <use xlink:href="#DejaVuSans-2d" x="254.492188"/>
       <use xlink:href="#DejaVuSans-30" x="290.576172"/>
       <use xlink:href="#DejaVuSans-39" x="354.199219"/>
       <use xlink:href="#DejaVuSans-2d" x="417.822266"/>
       <use xlink:href="#DejaVuSans-30" x="453.90625"/>
       <use xlink:href="#DejaVuSans-31" x="517.529297"/>
      </g>
     </g>
    </g>
    <g id="xtick_3">
     <g id="line2d_3">
      <g>
       <use xlink:href="#m1db344a531" x="360.21483" y="288" style="stroke: #000000; stroke-width: 0.8"/>
      </g>
     </g>
     <g id="text_3">
      <!-- 2023-09-15 -->
      <g transform="translate(298.571488 337.765903) rotate(-30) scale(0.12 -0.12)">
       <use xlink:href="#DejaVuSans-32"/>
       <use xlink:href="#DejaVuSans-30" x="63.623047"/>
       <use xlink:href="#DejaVuSans-32" x="127.246094"/>
       <use xlink:href="#DejaVuSans-33" x="190.869141"/>
       <use xlink:href="#DejaVuSans-2d" x="254.492188"/>
       <use xlink:href="#DejaVuSans-30" x="290.576172"/>
       <use xlink:href="#DejaVuSans-39" x="354.199219"/>
       <use xlink:href="#DejaVuSans-2d" x="417.822266"/>
       <use xlink:href="#DejaVuSans-31" x="453.90625"/>
       <use xlink:href="#DejaVuSans-35" x="517.529297"/>
      </g>
     </g>
    </g>
    <g id="xtick_4">
     <g id="line2d_4">
      <g>
       <use xlink:href="#m1db344a531" x="469.037583" y="288" style="stroke: #000000; stroke-width: 0.8"/>
      </g>
     </g>
     <g id="text_4">
      <!-- 2023-10-01 -->
      <g transform="translate(407.394241 337.765903) rotate(-30) scale(0.12 -0.12)">
       <use xlink:href="#DejaVuSans-32"/>
       <use xlink:href="#DejaVuSans-30" x="63.623047"/>
       <use xlink:href="#DejaVuSans-32" x="127.246094"/>
       <use xlink:href="#DejaVuSans-33" x="190.869141"/>
       <use xlink:href="#DejaVuSans-2d" x="254.492188"/>
       <use xlink:href="#DejaVuSans-31" x="290.576172"/>
       <use xlink:href="#DejaVuSans-30" x="354.199219"/>
       <use xlink:href="#DejaVuSans-2d" x="417.822266"/>
       <use xlink:href="#DejaVuSans-30" x="453.90625"/>
       <use xlink:href="#DejaVuSans-31" x="517.529297"/>
      </g>
     </g>
    </g>
    <g id="xtick_5">
     <g id="line2d_5">
      <g>
       <use xlink:href="#m1db344a531" x="564.257491" y="288" style="stroke: #000000; stroke-width: 0.8"/>
      </g>
     </g>
     <g id="text_5">
      <!-- 2023-10-15 -->
      <g transform="translate(502.614149 337.765903) rotate(-30) scale(0.12 -0.12)">
       <use xlink:href="#DejaVuSans-32"/>
       <use xlink:href="#DejaVuSans-30" x="63.623047"/>
       <use xlink:href="#DejaVuSans-32" x="127.246094"/>
       <use xlink:href="#DejaVuSans-33" x="190.869141"/>
       <use xlink:href="#DejaVuSans-2d" x="254.492188"/>
       <use xlink:href="#DejaVuSans-31" x="290.576172"/>
       <use xlink:href="#DejaVuSans-30" x="354.199219"/>
       <use xlink:href="#DejaVuSans-2d" x="417.822266"/>
       <use xlink:href="#DejaVuSans-31" x="453.90625"/>
       <use xlink:href="#DejaVuSans-35" x="517.529297"/>
      </g>
     </g>
    </g>
   </g>
   <g id="matplotlib.axis_2">
    <g id="ytick_1">
     <g id="line2d_6">
      <defs>
       <path id="m69b69330ec" d="M 0 0 
L -3.5 0 
" style="stroke: #000000; stroke-width: 0.8"/>
      </defs>
      <g>
       <use xlink:href="#m69b69330ec" x="90" y="260.468098" style="stroke: #000000; stroke-width: 0.8"/>
      </g>
     </g>
     <g id="text_6">
      <!-- 0.0 -->
      <g transform="translate(63.91625 265.02716) scale(0.12 -0.12)">
       <defs>
        <path id="DejaVuSans-2e" d="M 684 794 
L 1344 794 
L 1344 0 
L 684 0 
L 684 794 
z
" transform="scale(0.015625)"/>
       </defs>
       <use xlink:href="#DejaVuSans-30"/>
       <use xlink:href="#DejaVuSans-2e" x="63.623047"/>
       <use xlink:href="#DejaVuSans-30" x="95.410156"/>
      </g>
     </g>
    </g>
    <g id="ytick_2">
     <g id="line2d_7">
      <g>
       <use xlink:href="#m69b69330ec" x="90" y="221.196864" style="stroke: #000000; stroke-width: 0.8"/>
      </g>
     </g>
     <g id="text_7">
      <!-- 0.2 -->
      <g transform="translate(63.91625 225.755927) scale(0.12 -0.12)">
       <use xlink:href="#DejaVuSans-30"/>
       <use xlink:href="#DejaVuSans-2e" x="63.623047"/>
       <use xlink:href="#DejaVuSans-32" x="95.410156"/>
      </g>
     </g>
    </g>
    <g id="ytick_3">
     <g id="line2d_8">
      <g>
       <use xlink:href="#m69b69330ec" x="90" y="181.925631" style="stroke: #000000; stroke-width: 0.8"/>
      </g>
     </g>
     <g id="text_8">
      <!-- 0.4 -->
      <g transform="translate(63.91625 186.484694) scale(0.12 -0.12)">
       <defs>
        <path id="DejaVuSans-34" d="M 2419 4116 
L 825 1625 
L 2419 1625 
L 2419 4116 
z
M 2253 4666 
L 3047 4666 
L 3047 1625 
L 3713 1625 
L 3713 1100 
L 3047 1100 
L 3047 0 
L 2419 0 
L 2419 1100 
L 313 1100 
L 313 1709 
L 2253 4666 
z
" transform="scale(0.015625)"/>
       </defs>
       <use xlink:href="#DejaVuSans-30"/>
       <use xlink:href="#DejaVuSans-2e" x="63.623047"/>
       <use xlink:href="#DejaVuSans-34" x="95.410156"/>
      </g>
     </g>
    </g>
    <g id="ytick_4">
     <g id="line2d_9">
      <g>
       <use xlink:href="#m69b69330ec" x="90" y="142.654398" style="stroke: #000000; stroke-width: 0.8"/>
      </g>
     </g>
     <g id="text_9">
      <!-- 0.6 -->
      <g transform="translate(63.91625 147.21346) scale(0.12 -0.12)">
       <defs>
        <path id="DejaVuSans-36" d="M 2113 2584 
Q 1688 2584 1439 2293 
Q 1191 2003 1191 1497 
Q 1191 994 1439 701 
Q 1688 409 2113 409 
Q 2538 409 2786 701 
Q 3034 994 3034 1497 
Q 3034 2003 2786 2293 
Q 2538 2584 2113 2584 
z
M 3366 4563 
L 3366 3988 
Q 3128 4100 2886 4159 
Q 2644 4219 2406 4219 
Q 1781 4219 1451 3797 
Q 1122 3375 1075 2522 
Q 1259 2794 1537 2939 
Q 1816 3084 2150 3084 
Q 2853 3084 3261 2657 
Q 3669 2231 3669 1497 
Q 3669 778 3244 343 
Q 2819 -91 2113 -91 
Q 1303 -91 875 529 
Q 447 1150 447 2328 
Q 447 3434 972 4092 
Q 1497 4750 2381 4750 
Q 2619 4750 2861 4703 
Q 3103 4656 3366 4563 
z
" transform="scale(0.015625)"/>
       </defs>
       <use xlink:href="#DejaVuSans-30"/>
       <use xlink:href="#DejaVuSans-2e" x="63.623047"/>
       <use xlink:href="#DejaVuSans-36" x="95.410156"/>
      </g>
     </g>
    </g>
    <g id="ytick_5">
     <g id="line2d_10">
      <g>
       <use xlink:href="#m69b69330ec" x="90" y="103.383164" style="stroke: #000000; stroke-width: 0.8"/>
      </g>
     </g>
     <g id="text_10">
      <!-- 0.8 -->
      <g transform="translate(63.91625 107.942227) scale(0.12 -0.12)">
       <use xlink:href="#DejaVuSans-30"/>
       <use xlink:href="#DejaVuSans-2e" x="63.623047"/>
       <use xlink:href="#DejaVuSans-38" x="95.410156"/>
      </g>
     </g>
    </g>
    <g id="ytick_6">
     <g id="line2d_11">
      <g>
       <use xlink:href="#m69b69330ec" x="90" y="64.111931" style="stroke: #000000; stroke-width: 0.8"/>
      </g>
     </g>
     <g id="text_11">
      <!-- 1.0 -->
      <g transform="translate(63.91625 68.670994) scale(0.12 -0.12)">
       <use xlink:href="#DejaVuSans-31"/>
       <use xlink:href="#DejaVuSans-2e" x="63.623047"/>
       <use xlink:href="#DejaVuSans-30" x="95.410156"/>
      </g>
     </g>
    </g>
    <g id="text_12">
     <!-- Meters -->
     <g transform="translate(57.836562 182.6875) rotate(-90) scale(0.1 -0.1)">
      <defs>
       <path id="DejaVuSans-4d" d="M 628 4666 
L 1569 4666 
L 2759 1491 
L 3956 4666 
L 4897 4666 
L 4897 0 
L 4281 0 
L 4281 4097 
L 3078 897 
L 2444 897 
L 1241 4097 
L 1241 0 
L 628 0 
L 628 4666 
z
" transform="scale(0.015625)"/>
       <path id="DejaVuSans-65" d="M 3597 1894 
L 3597 1613 
L 953 1613 
Q 991 1019 1311 708 
Q 1631 397 2203 397 
Q 2534 397 2845 478 
Q 3156 559 3463 722 
L 3463 178 
Q 3153 47 2828 -22 
Q 2503 -91 2169 -91 
Q 1331 -91 842 396 
Q 353 884 353 1716 
Q 353 2575 817 3079 
Q 1281 3584 2069 3584 
Q 2775 3584 3186 3129 
Q 3597 2675 3597 1894 
z
M 3022 2063 
Q 3016 2534 2758 2815 
Q 2500 3097 2075 3097 
Q 1594 3097 1305 2825 
Q 1016 2553 972 2059 
L 3022 2063 
z
" transform="scale(0.015625)"/>
       <path id="DejaVuSans-74" d="M 1172 4494 
L 1172 3500 
L 2356 3500 
L 2356 3053 
L 1172 3053 
L 1172 1153 
Q 1172 725 1289 603 
Q 1406 481 1766 481 
L 2356 481 
L 2356 0 
L 1766 0 
Q 1100 0 847 248 
Q 594 497 594 1153 
L 594 3053 
L 172 3053 
L 172 3500 
L 594 3500 
L 594 4494 
L 1172 4494 
z
" transform="scale(0.015625)"/>
       <path id="DejaVuSans-72" d="M 2631 2963 
Q 2534 3019 2420 3045 
Q 2306 3072 2169 3072 
Q 1681 3072 1420 2755 
Q 1159 2438 1159 1844 
L 1159 0 
L 581 0 
L 581 3500 
L 1159 3500 
L 1159 2956 
Q 1341 3275 1631 3429 
Q 1922 3584 2338 3584 
Q 2397 3584 2469 3576 
Q 2541 3569 2628 3553 
L 2631 2963 
z
" transform="scale(0.015625)"/>
       <path id="DejaVuSans-73" d="M 2834 3397 
L 2834 2853 
Q 2591 2978 2328 3040 
Q 2066 3103 1784 3103 
Q 1356 3103 1142 2972 
Q 928 2841 928 2578 
Q 928 2378 1081 2264 
Q 1234 2150 1697 2047 
L 1894 2003 
Q 2506 1872 2764 1633 
Q 3022 1394 3022 966 
Q 3022 478 2636 193 
Q 2250 -91 1575 -91 
Q 1294 -91 989 -36 
Q 684 19 347 128 
L 347 722 
Q 666 556 975 473 
Q 1284 391 1588 391 
Q 1994 391 2212 530 
Q 2431 669 2431 922 
Q 2431 1156 2273 1281 
Q 2116 1406 1581 1522 
L 1381 1569 
Q 847 1681 609 1914 
Q 372 2147 372 2553 
Q 372 3047 722 3315 
Q 1072 3584 1716 3584 
Q 2034 3584 2315 3537 
Q 2597 3491 2834 3397 
z
" transform="scale(0.015625)"/>
      </defs>
      <use xlink:href="#DejaVuSans-4d"/>
      <use xlink:href="#DejaVuSans-65" x="86.279297"/>
      <use xlink:href="#DejaVuSans-74" x="147.802734"/>
      <use xlink:href="#DejaVuSans-65" x="187.011719"/>
      <use xlink:href="#DejaVuSans-72" x="248.535156"/>
      <use xlink:href="#DejaVuSans-73" x="289.648438"/>
     </g>
    </g>
   </g>
   <g id="line2d_12">
    <path d="M 115.363636 268.673684 
L 115.647029 268.038962 
L 116.213814 267.613632 
L 116.497207 266.828409 
L 116.780599 267.057432 
L 117.063992 266.893844 
L 117.347384 267.09015 
L 117.630777 267.09015 
L 117.91417 266.599385 
L 118.197562 266.861126 
L 118.480955 266.697538 
L 118.764347 267.122868 
L 119.04774 269.543974 
L 119.331133 270.623656 
L 119.614525 271.212574 
L 119.897918 270.623656 
L 120.18131 271.048986 
L 120.748095 272.684868 
L 121.031488 272.128668 
L 121.314881 273.600962 
L 121.598273 272.979327 
L 122.448451 270.460068 
L 122.731844 269.707562 
L 123.015236 269.609409 
L 123.298629 270.002021 
L 123.582021 269.936585 
L 124.148807 269.380385 
L 124.432199 269.511256 
L 124.998984 269.347668 
L 125.282377 269.249515 
L 125.565769 270.492786 
L 125.849162 274.876951 
L 126.132555 276.872727 
L 126.415947 276.709139 
L 126.69934 276.41468 
L 126.982732 276.512833 
L 128.116303 273.437374 
L 128.683088 268.431574 
L 128.96648 268.660597 
L 129.249873 269.118644 
L 129.533266 269.151362 
L 129.816658 267.253738 
L 130.100051 256.358761 
L 130.383443 261.397279 
L 130.666836 263.393056 
L 130.950229 261.789891 
L 131.517014 251.287525 
L 131.800406 249.030007 
L 132.083799 249.520772 
L 132.367191 251.320243 
L 132.650584 254.461137 
L 133.500762 258.32182 
L 133.784154 256.947678 
L 134.067547 251.385678 
L 134.35094 249.717078 
L 134.634332 255.082772 
L 134.917725 255.11549 
L 135.201117 253.675914 
L 135.48451 252.825255 
L 135.767902 250.633172 
L 136.051295 250.10969 
L 136.334688 250.207843 
L 136.61808 250.698607 
L 137.468258 254.461137 
L 138.601828 257.045831 
L 138.885221 257.242137 
L 139.168614 258.190949 
L 139.735399 263.229467 
L 140.018791 264.30915 
L 140.302184 264.472738 
L 140.585576 264.30915 
L 140.868969 264.570891 
L 141.435754 266.664821 
L 141.719147 267.057432 
L 142.002539 267.155585 
L 142.285932 266.468515 
L 142.569325 266.468515 
L 142.852717 266.632103 
L 143.13611 266.468515 
L 143.702895 266.566668 
L 144.836465 266.566668 
L 145.970036 267.351891 
L 146.253428 268.038962 
L 146.536821 269.31495 
L 146.820213 269.772997 
L 147.103606 270.721809 
L 147.386998 270.885397 
L 147.670391 270.787244 
L 147.953784 270.85268 
L 148.237176 271.147139 
L 149.370747 269.413103 
L 149.654139 267.777221 
L 149.937532 252.530796 
L 150.504317 256.980396 
L 151.354495 241.374077 
L 151.637887 241.733971 
L 151.92128 235.91023 
L 152.204672 237.349806 
L 152.488065 228.352452 
L 153.05485 220.238475 
L 153.338243 214.774628 
L 153.621635 211.502863 
L 153.905028 212.582545 
L 155.038598 225.113405 
L 155.888776 231.329759 
L 156.172169 232.213135 
L 156.455561 233.587276 
L 156.738954 234.241629 
L 157.305739 236.073818 
L 157.589132 237.742418 
L 158.155917 239.705477 
L 158.439309 240.163524 
L 159.006094 241.701254 
L 159.289487 241.766689 
L 159.57288 243.598877 
L 159.856272 247.426842 
L 160.423057 250.338713 
L 160.70645 250.993066 
L 160.989843 251.156654 
L 161.556628 253.086996 
L 161.84002 255.279078 
L 162.123413 255.409949 
L 162.406805 255.966149 
L 162.690198 255.573537 
L 162.973591 253.414172 
L 163.540376 252.203619 
L 163.823768 252.040031 
L 164.107161 252.46536 
L 164.390554 252.138184 
L 164.673946 252.367208 
L 165.240731 253.381455 
L 165.524124 255.933431 
L 165.807517 257.111267 
L 166.090909 256.751373 
L 166.374302 257.536596 
L 166.941087 261.200973 
L 167.507872 261.135538 
L 167.791265 259.794114 
L 168.074657 254.788314 
L 168.35805 228.057994 
L 168.641442 230.282794 
L 168.924835 217.326604 
L 169.208228 194.784144 
L 169.49162 188.306049 
L 169.775013 188.404202 
L 170.341798 194.849579 
L 170.908583 202.930839 
L 171.475368 208.75458 
L 172.325546 214.349298 
L 172.892331 217.555628 
L 173.175724 220.336628 
L 173.459116 224.295464 
L 174.025901 228.057994 
L 174.592687 230.282794 
L 175.442864 234.307065 
L 176.00965 236.826324 
L 176.293042 237.1535 
L 176.576435 236.531865 
L 176.859827 237.186218 
L 177.14322 236.531865 
L 177.426612 236.989912 
L 177.710005 238.200465 
L 177.993398 238.887536 
L 178.27679 238.985689 
L 178.843575 239.869065 
L 179.126968 240.392548 
L 179.410361 241.962995 
L 179.693753 241.799407 
L 180.260538 245.463783 
L 180.543931 247.950325 
L 181.110716 247.655866 
L 181.394109 248.244784 
L 181.677501 249.095443 
L 181.960894 249.55349 
L 182.244286 250.404149 
L 182.527679 250.535019 
L 182.811072 251.091219 
L 183.094464 250.207843 
L 183.661249 247.688584 
L 183.944642 247.884889 
L 184.228035 248.604678 
L 184.511427 248.99729 
L 184.79482 249.095443 
L 185.078212 250.338713 
L 185.361605 252.432643 
L 185.644997 252.498078 
L 185.92839 251.614702 
L 186.495175 250.993066 
L 186.778568 252.236337 
L 187.06196 255.344514 
L 187.628746 257.013114 
L 187.912138 257.143984 
L 188.195531 256.947678 
L 188.762316 257.602031 
L 189.045708 258.060079 
L 189.329101 256.882243 
L 189.612494 256.555067 
L 189.895886 255.54082 
L 190.179279 255.017337 
L 190.462671 255.344514 
L 191.029457 255.082772 
L 191.312849 254.55929 
L 191.596242 254.657443 
L 191.879634 255.737125 
L 192.163027 256.09702 
L 192.729812 255.017337 
L 193.013205 254.690161 
L 193.296597 254.951902 
L 193.57999 255.017337 
L 193.863382 256.587784 
L 194.146775 256.293325 
L 194.430168 257.831055 
L 194.71356 257.798337 
L 194.996953 259.041608 
L 195.280345 259.139761 
L 195.563738 259.597808 
L 195.847131 259.597808 
L 196.130523 258.910737 
L 196.413916 259.237914 
L 196.697308 257.961926 
L 197.264093 256.685937 
L 197.547486 256.456914 
L 197.830879 256.587784 
L 198.114271 257.274855 
L 198.397664 256.751373 
L 198.681056 256.555067 
L 198.964449 256.718655 
L 199.247842 257.405726 
L 199.531234 257.602031 
L 199.814627 257.373008 
L 200.098019 257.569314 
L 200.381412 257.961926 
L 200.664804 259.139761 
L 200.948197 258.648996 
L 201.514982 261.888044 
L 201.798375 262.117067 
L 202.081767 262.182502 
L 202.36516 262.575114 
L 202.931945 265.454267 
L 203.215338 265.55242 
L 204.065515 259.892267 
L 204.348908 259.401502 
L 204.632301 259.303349 
L 205.199086 260.088573 
L 205.765871 260.121291 
L 206.049264 260.703665 
L 206.616049 260.710208 
L 206.899441 261.266408 
L 207.182834 261.037385 
L 207.466227 261.364561 
L 207.749619 257.863773 
L 208.316404 171.652765 
L 208.599797 164.651188 
L 208.883189 149.699222 
L 209.166582 146.100281 
L 209.449975 147.016375 
L 210.866938 184.903413 
L 211.15033 189.909214 
L 211.433723 185.165155 
L 211.717115 177.541942 
L 212.000508 178.490754 
L 212.2839 171.162 
L 212.567293 166.810553 
L 213.134078 167.235882 
L 213.417471 167.464906 
L 213.700863 170.47493 
L 215.117826 190.301826 
L 215.968004 199.691791 
L 216.534789 204.959333 
L 216.818182 206.693368 
L 217.384967 212.451675 
L 217.66836 215.101804 
L 217.951752 97.416418 
L 218.235145 77.491369 
L 218.518537 70.882404 
L 219.085322 54.327273 
L 219.368715 54.490861 
L 219.652108 64.175285 
L 220.218893 99.739371 
L 220.785678 122.02009 
L 221.352463 154.279693 
L 221.919248 168.381 
L 222.486034 177.214766 
L 223.619604 186.015814 
L 226.170137 203.159862 
L 226.736922 208.787298 
L 228.153885 223.575676 
L 229.854241 233.718147 
L 230.421026 235.583053 
L 230.704418 235.4849 
L 230.987811 234.503371 
L 231.271204 234.437935 
L 231.554596 234.666959 
L 232.404774 235.91023 
L 232.688167 236.139253 
L 232.971559 236.139253 
L 233.254952 236.531865 
L 233.538344 237.186218 
L 233.821737 237.055347 
L 234.10513 237.513394 
L 234.388522 238.952971 
L 234.671915 242.192018 
L 235.2387 243.435289 
L 235.805485 244.12236 
L 236.37227 245.660089 
L 236.655663 246.936078 
L 236.939055 247.524995 
L 237.222448 248.702831 
L 238.072626 244.842148 
L 238.356018 244.711277 
L 238.639411 244.351383 
L 238.922803 244.613124 
L 239.772981 244.449536 
L 240.339766 245.398348 
L 240.906552 245.23476 
L 241.189944 246.281725 
L 241.473337 249.193595 
L 241.756729 250.404149 
L 242.040122 250.633172 
L 242.323514 251.320243 
L 242.606907 251.680137 
L 242.8903 251.712855 
L 243.173692 252.563513 
L 243.740477 255.213643 
L 244.02387 256.22789 
L 244.307263 254.821031 
L 244.590655 251.974596 
L 244.874048 250.993066 
L 245.15744 250.600454 
L 245.440833 250.79676 
L 245.724225 250.79676 
L 246.007618 250.567737 
L 247.141188 250.894913 
L 247.424581 250.894913 
L 247.707974 251.058502 
L 247.991366 252.33449 
L 248.274759 254.788314 
L 248.558151 256.09702 
L 248.841544 255.835278 
L 249.124937 256.358761 
L 249.408329 256.522349 
L 249.691722 256.816808 
L 249.975114 256.195173 
L 250.825292 255.213643 
L 251.108685 254.526572 
L 251.392077 255.180925 
L 251.67547 251.516549 
L 251.958862 251.418396 
L 252.242255 251.876443 
L 253.375825 247.197819 
L 253.659218 247.197819 
L 254.226003 248.44109 
L 255.642966 251.843725 
L 255.926359 252.203619 
L 256.209751 253.152431 
L 256.493144 253.316019 
L 256.776536 253.643196 
L 257.059929 253.577761 
L 257.343321 254.722878 
L 257.626714 256.816808 
L 257.910107 256.391478 
L 258.193499 253.806784 
L 258.476892 253.185149 
L 258.760284 252.89069 
L 259.043677 253.086996 
L 259.610462 252.857972 
L 260.177247 252.988843 
L 260.46064 252.956125 
L 260.744033 252.792537 
L 261.310818 253.545043 
L 261.59421 255.213643 
L 261.877603 258.060079 
L 262.160995 258.190949 
L 262.444388 257.994643 
L 262.727781 258.812585 
L 263.011173 258.419973 
L 263.294566 258.518126 
L 263.577958 258.87802 
L 263.861351 260.055855 
L 264.144744 260.579338 
L 264.428136 261.691738 
L 264.711529 260.775644 
L 264.994921 257.307573 
L 265.278314 256.09702 
L 265.561706 255.966149 
L 265.845099 255.998867 
L 266.128492 255.900714 
L 266.411884 255.933431 
L 266.695277 256.09702 
L 268.11224 255.769843 
L 268.679025 260.841079 
L 268.962417 259.826832 
L 269.24581 260.252161 
L 269.529203 259.826832 
L 270.095988 259.43422 
L 270.37938 260.513902 
L 270.662773 261.10282 
L 270.946166 262.051632 
L 271.229558 262.247938 
L 271.512951 261.200973 
L 271.796343 259.368785 
L 272.079736 258.45269 
L 273.496699 257.732902 
L 273.780091 257.667467 
L 274.063484 257.798337 
L 274.346877 258.125514 
L 274.630269 258.223667 
L 274.913662 257.732902 
L 275.197054 258.354537 
L 275.480447 260.186726 
L 275.76384 259.56509 
L 276.047232 261.070102 
L 276.330625 260.415749 
L 276.614017 261.920761 
L 276.89741 261.364561 
L 277.464195 260.808361 
L 277.747588 259.695961 
L 278.03098 259.630526 
L 278.314373 260.055855 
L 278.881158 259.499655 
L 279.164551 258.354537 
L 279.447943 258.32182 
L 279.731336 258.45269 
L 280.014728 258.289102 
L 280.298121 257.863773 
L 280.581513 258.387255 
L 280.864906 258.060079 
L 281.431691 258.256384 
L 281.715084 257.569314 
L 281.998476 258.714432 
L 282.281869 260.481185 
L 282.565262 260.055855 
L 282.848654 260.808361 
L 283.132047 262.182502 
L 283.415439 261.65902 
L 283.982224 263.065879 
L 284.265617 262.935008 
L 284.54901 263.949256 
L 285.115795 262.247938 
L 285.399187 261.495432 
L 285.68258 261.10282 
L 285.965973 261.266408 
L 286.249365 260.154008 
L 286.532758 260.448467 
L 286.81615 260.513902 
L 287.099543 260.154008 
L 287.666328 260.121291 
L 287.949721 259.859549 
L 288.233113 260.055855 
L 288.516506 259.695961 
L 289.083291 263.131314 
L 289.366684 262.051632 
L 289.650076 263.687514 
L 290.216861 264.014691 
L 290.500254 263.785667 
L 290.783647 264.178279 
L 291.067039 264.832632 
L 291.350432 264.734479 
L 291.633824 265.42155 
L 291.917217 264.99622 
L 292.767395 262.018914 
L 293.050787 261.560867 
L 293.33418 261.331844 
L 293.617572 261.495432 
L 293.900965 261.364561 
L 294.184358 261.364561 
L 294.751143 262.018914 
L 295.034535 263.491208 
L 295.317928 263.523926 
L 295.60132 265.225244 
L 295.884713 268.104397 
L 296.168106 265.781444 
L 296.451498 267.351891 
L 296.734891 268.071679 
L 297.018283 266.075903 
L 297.301676 266.828409 
L 297.868461 268.856903 
L 298.151854 268.071679 
L 298.718639 267.384609 
L 299.002031 265.225244 
L 299.285424 264.636326 
L 299.568817 264.767197 
L 299.852209 264.472738 
L 300.135602 264.603609 
L 300.418994 263.981973 
L 300.702387 263.916538 
L 300.98578 263.622079 
L 301.269172 263.556644 
L 301.835957 262.902291 
L 302.11935 262.280655 
L 302.686135 265.945032 
L 302.969528 264.243714 
L 303.25292 263.360338 
L 303.536313 261.757173 
L 303.819705 241.308642 
L 304.103098 245.758242 
L 304.386491 246.543466 
L 304.669883 245.660089 
L 304.953276 245.529219 
L 305.236668 243.860619 
L 305.520061 241.504948 
L 305.803454 241.177771 
L 306.086846 242.421042 
L 306.937024 247.066948 
L 307.220416 248.244784 
L 307.787202 249.389901 
L 308.070594 250.600454 
L 308.353987 250.894913 
L 308.920772 252.170902 
L 309.204165 252.759819 
L 309.487557 254.722878 
L 309.77095 254.395702 
L 310.054342 254.526572 
L 310.337735 255.017337 
L 310.621127 256.718655 
L 310.90452 255.442667 
L 311.187913 252.792537 
L 311.471305 251.516549 
L 311.754698 252.596231 
L 312.321483 249.68436 
L 312.604876 247.165101 
L 312.888268 246.674336 
L 313.171661 247.099666 
L 313.455053 248.44109 
L 313.738446 249.193595 
L 314.021838 250.273278 
L 314.305231 250.567737 
L 314.872016 252.269055 
L 315.438801 253.316019 
L 315.722194 253.545043 
L 317.139157 256.816808 
L 317.42255 257.20942 
L 317.705942 258.747149 
L 317.989335 258.354537 
L 318.272727 257.503879 
L 318.55612 257.929208 
L 318.839512 257.503879 
L 319.122905 257.831055 
L 319.68969 257.863773 
L 319.973083 257.536596 
L 321.106653 257.536596 
L 321.673438 257.863773 
L 321.956831 258.289102 
L 322.240223 258.158232 
L 322.523616 258.419973 
L 323.090401 261.986197 
L 323.373794 260.186726 
L 323.657186 260.284879 
L 323.940579 260.644773 
L 324.507364 260.252161 
L 324.790757 260.448467 
L 325.074149 261.495432 
L 325.357542 260.873796 
L 325.924327 259.205196 
L 326.491112 259.205196 
L 327.057897 259.957702 
L 327.34129 259.794114 
L 327.624683 260.023138 
L 327.908075 259.957702 
L 328.191468 259.270632 
L 329.041646 260.54662 
L 329.608431 260.481185 
L 329.891823 262.444244 
L 330.175216 262.673267 
L 330.458608 264.112844 
L 330.742001 263.687514 
L 331.308786 264.047409 
L 331.875571 263.523926 
L 332.158964 263.785667 
L 332.442357 264.734479 
L 332.725749 264.472738 
L 333.009142 263.098597 
L 333.575927 262.051632 
L 334.142712 261.953479 
L 334.709497 261.953479 
L 334.99289 262.411526 
L 335.843068 262.476961 
L 336.12646 262.313373 
L 336.693245 265.225244 
L 336.976638 264.243714 
L 337.26003 266.435797 
L 337.543423 267.122868 
L 337.826816 266.926562 
L 338.110208 266.435797 
L 338.393601 266.174056 
L 338.960386 264.636326 
L 339.243779 264.505456 
L 339.527171 263.654797 
L 339.810564 263.19675 
L 343.211275 199.888097 
L 343.494667 202.538227 
L 344.061453 210.84851 
L 344.628238 220.205758 
L 345.478415 230.806276 
L 346.045201 234.732394 
L 346.328593 234.863265 
L 347.462164 239.640042 
L 348.028949 241.47223 
L 348.595734 243.075395 
L 349.445912 244.776713 
L 349.729304 245.038454 
L 350.012697 247.623148 
L 350.296089 249.160878 
L 350.579482 248.179348 
L 350.862875 248.408372 
L 351.146267 248.800984 
L 351.713052 250.207843 
L 352.279837 250.142407 
L 352.56323 253.44689 
L 352.846623 254.624725 
L 353.130015 253.675914 
L 353.413408 251.811007 
L 353.6968 251.091219 
L 353.980193 251.123937 
L 354.546978 251.745572 
L 354.830371 251.254807 
L 355.397156 252.498078 
L 355.680549 252.563513 
L 355.963941 252.46536 
L 356.530726 252.498078 
L 357.097511 256.751373 
L 357.380904 254.690161 
L 357.664297 257.602031 
L 357.947689 257.700184 
L 358.231082 257.274855 
L 358.514474 258.779867 
L 358.797867 257.700184 
L 359.08126 258.092796 
L 359.364652 257.732902 
L 359.648045 260.873796 
L 359.931437 259.630526 
L 360.21483 256.685937 
L 360.781615 255.475384 
L 361.3484 256.260608 
L 361.631793 256.129737 
L 361.915185 256.162455 
L 362.198578 255.966149 
L 362.765363 256.22789 
L 363.048756 255.933431 
L 363.332148 255.475384 
L 363.615541 258.812585 
L 363.898933 258.125514 
L 364.182326 256.555067 
L 364.465719 259.957702 
L 364.749111 260.023138 
L 365.032504 259.00889 
L 365.315896 258.714432 
L 365.599289 259.56509 
L 365.882682 260.971949 
L 366.166074 259.597808 
L 366.732859 259.107043 
L 367.016252 258.419973 
L 367.299644 257.20942 
L 367.583037 257.503879 
L 367.86643 257.471161 
L 368.433215 257.078549 
L 368.716607 257.307573 
L 369 257.798337 
L 369.283393 257.929208 
L 369.566785 257.831055 
L 369.850178 258.125514 
L 370.13357 258.125514 
L 370.416963 260.971949 
L 370.700356 261.822608 
L 370.983748 259.892267 
L 371.267141 261.855326 
L 371.550533 262.08435 
L 372.117318 262.182502 
L 372.400711 262.444244 
L 372.684104 262.21522 
L 373.534281 260.677491 
L 374.101067 259.041608 
L 374.384459 259.139761 
L 374.951244 258.910737 
L 375.234637 259.205196 
L 375.518029 259.663243 
L 375.801422 259.761396 
L 376.6516 259.303349 
L 376.934992 259.368785 
L 377.218385 259.139761 
L 377.78517 260.481185 
L 378.068563 261.888044 
L 378.91874 262.509679 
L 379.202133 262.346091 
L 379.485526 261.429997 
L 380.335703 260.415749 
L 380.619096 259.859549 
L 381.469274 259.663243 
L 381.752666 259.859549 
L 382.036059 260.284879 
L 382.319451 259.597808 
L 382.602844 259.957702 
L 382.886237 260.023138 
L 383.169629 260.219443 
L 383.736414 259.695961 
L 384.019807 259.695961 
L 384.3032 261.233691 
L 384.586592 260.513902 
L 384.869985 261.757173 
L 385.153377 261.462714 
L 386.286948 263.131314 
L 386.853733 264.570891 
L 387.420518 261.65902 
L 387.703911 260.742926 
L 387.987303 260.481185 
L 388.270696 260.415749 
L 388.837481 260.677491 
L 389.120874 260.154008 
L 389.404266 260.252161 
L 389.687659 260.808361 
L 390.254444 260.677491 
L 390.537836 260.252161 
L 390.821229 263.033161 
L 391.104622 263.19675 
L 391.388014 261.429997 
L 391.671407 263.393056 
L 391.954799 263.654797 
L 392.238192 264.080126 
L 392.804977 263.622079 
L 393.08837 264.603609 
L 393.655155 262.804138 
L 393.938547 262.705985 
L 394.788725 261.10282 
L 395.072118 260.971949 
L 395.35551 261.037385 
L 395.638903 260.775644 
L 395.922296 260.971949 
L 396.205688 260.677491 
L 397.055866 261.233691 
L 397.339259 261.004667 
L 397.622651 261.037385 
L 397.906044 260.906514 
L 398.189436 261.266408 
L 398.472829 263.949256 
L 398.756221 264.767197 
L 399.323007 263.818385 
L 399.606399 263.981973 
L 399.889792 266.828409 
L 400.173184 265.945032 
L 400.456577 265.454267 
L 400.73997 264.472738 
L 401.023362 262.804138 
L 401.306755 262.247938 
L 401.590147 262.117067 
L 402.156932 261.299126 
L 402.723718 261.10282 
L 403.00711 261.233691 
L 404.140681 260.906514 
L 404.707466 262.018914 
L 404.990858 262.117067 
L 405.274251 264.30915 
L 405.557643 265.127091 
L 405.841036 264.963503 
L 406.124429 265.192526 
L 406.691214 267.417326 
L 406.974606 266.075903 
L 407.257999 265.486985 
L 408.108177 262.21522 
L 408.391569 262.313373 
L 408.958354 261.920761 
L 409.241747 261.960022 
L 409.808532 263.000444 
L 410.091925 263.033161 
L 410.375317 262.738703 
L 410.942103 262.705985 
L 411.225495 262.705985 
L 411.508888 263.294903 
L 411.79228 264.178279 
L 412.075673 266.075903 
L 412.359066 266.861126 
L 412.925851 265.912315 
L 413.209243 266.468515 
L 413.492636 267.286456 
L 413.776028 266.985453 
L 414.059421 267.450044 
L 414.342814 266.893844 
L 414.626206 264.636326 
L 414.909599 264.276432 
L 415.192991 264.112844 
L 415.476384 264.210997 
L 415.759777 263.687514 
L 416.326562 263.262185 
L 416.609954 263.262185 
L 416.893347 263.458491 
L 417.176739 264.080126 
L 417.460132 266.664821 
L 417.743525 266.762973 
L 418.31031 268.497009 
L 418.593702 267.057432 
L 418.877095 268.889621 
L 419.160488 269.511256 
L 419.727273 268.824185 
L 420.010665 268.856903 
L 420.294058 270.394633 
L 420.57745 270.754527 
L 421.711021 266.599385 
L 422.561199 266.861126 
L 423.694769 265.945032 
L 423.978162 266.043185 
L 424.261554 265.716009 
L 424.828339 266.566668 
L 425.111732 267.744503 
L 425.395124 267.057432 
L 425.96191 270.067456 
L 426.245302 269.31495 
L 426.812087 269.543974 
L 427.09548 270.590938 
L 427.378873 270.460068 
L 427.662265 268.824185 
L 427.945658 267.842656 
L 428.22905 267.384609 
L 428.512443 267.548197 
L 428.795835 267.319174 
L 429.079228 266.926562 
L 429.362621 267.122868 
L 429.646013 266.861126 
L 429.929406 266.893844 
L 430.496191 267.482762 
L 430.779584 266.762973 
L 431.062976 266.861126 
L 431.346369 266.762973 
L 431.913154 265.585138 
L 432.196546 265.094373 
L 432.763332 259.532373 
L 433.046724 258.845302 
L 433.330117 257.111267 
L 433.896902 256.718655 
L 434.180295 257.503879 
L 434.463687 257.863773 
L 434.74708 258.681714 
L 435.313865 258.583561 
L 435.597257 259.139761 
L 435.88065 259.303349 
L 436.447435 259.892267 
L 436.730828 259.139761 
L 437.297613 259.56509 
L 437.581006 259.794114 
L 437.864398 259.761396 
L 438.147791 258.256384 
L 438.431183 237.644265 
L 438.714576 244.973019 
L 439.564754 231.362476 
L 439.848146 229.857464 
L 441.831894 243.827901 
L 443.248857 248.375654 
L 443.53225 248.702831 
L 444.66582 251.156654 
L 445.232605 252.105466 
L 445.799391 253.217866 
L 446.082783 253.316019 
L 446.366176 253.675914 
L 446.649568 254.232114 
L 447.216353 254.690161 
L 447.499746 254.657443 
L 448.066531 254.919184 
L 448.349924 254.493855 
L 448.633316 255.508102 
L 448.916709 255.802561 
L 450.050279 235.877512 
L 450.617064 217.621063 
L 450.900457 212.059063 
L 451.18385 210.29231 
L 451.467242 210.84851 
L 451.750635 213.171463 
L 452.600813 223.968287 
L 453.45099 231.427912 
L 454.017776 234.666959 
L 454.867953 239.051124 
L 455.151346 240.130806 
L 455.434738 240.752442 
L 456.001524 243.00996 
L 456.568309 244.743995 
L 457.701879 247.034231 
L 457.985272 247.754019 
L 458.552057 248.408372 
L 459.402235 250.404149 
L 459.96902 252.367208 
L 460.252412 253.054278 
L 460.535805 253.185149 
L 460.819198 252.399925 
L 461.10259 253.119713 
L 461.385983 252.759819 
L 461.669375 252.923408 
L 461.952768 251.320243 
L 462.23616 251.418396 
L 462.519553 252.596231 
L 464.219909 254.101243 
L 464.503301 254.264831 
L 464.786694 254.592008 
L 465.070086 254.526572 
L 465.353479 254.690161 
L 465.636872 255.311796 
L 465.920264 256.522349 
L 466.203657 255.508102 
L 466.487049 255.409949 
L 467.053834 259.303349 
L 467.337227 259.237914 
L 467.62062 258.910737 
L 467.904012 261.200973 
L 468.187405 262.313373 
L 468.470797 259.466938 
L 469.320975 257.405726 
L 469.604368 257.078549 
L 470.171153 257.274855 
L 470.454545 257.405726 
L 470.737938 257.76562 
L 471.021331 257.536596 
L 471.588116 257.503879 
L 471.871508 257.961926 
L 472.154901 257.732902 
L 472.438294 257.929208 
L 472.721686 258.779867 
L 473.005079 258.747149 
L 473.288471 259.597808 
L 473.571864 260.971949 
L 473.855256 261.528149 
L 474.138649 260.775644 
L 474.422042 259.499655 
L 474.988827 263.523926 
L 475.555612 259.663243 
L 475.839005 258.485408 
L 476.40579 257.929208 
L 476.689182 257.76562 
L 477.53936 257.732902 
L 477.822753 258.060079 
L 478.106145 258.190949 
L 478.389538 258.027361 
L 478.956323 258.419973 
L 479.239716 259.303349 
L 479.523108 259.728679 
L 479.806501 258.648996 
L 480.089893 260.252161 
L 480.373286 262.509679 
L 480.656679 261.691738 
L 480.940071 259.794114 
L 481.790249 265.225244 
L 482.357034 260.612055 
L 482.640427 259.368785 
L 483.207212 258.550843 
L 483.490604 259.237914 
L 483.773997 259.041608 
L 484.624175 259.00889 
L 484.907567 258.747149 
L 485.757745 259.761396 
L 486.32453 261.233691 
L 486.607923 259.597808 
L 487.174708 263.360338 
L 487.458101 263.262185 
L 487.741493 262.051632 
L 488.024886 262.935008 
L 488.591671 265.257962 
L 488.875063 263.098597 
L 489.725241 259.695961 
L 490.008634 259.270632 
L 490.858812 258.87802 
L 491.142204 258.419973 
L 491.425597 258.87802 
L 492.275775 258.910737 
L 492.559167 259.172479 
L 492.84256 259.826832 
L 493.125952 261.168255 
L 493.409345 259.728679 
L 493.692737 261.462714 
L 493.97613 263.981973 
L 494.259523 263.720232 
L 494.826308 261.920761 
L 495.1097 263.88382 
L 495.676486 262.967726 
L 495.959878 260.742926 
L 496.243271 261.397279 
L 496.810056 260.088573 
L 497.660234 260.383032 
L 497.943626 260.906514 
L 498.227019 260.317596 
L 498.510411 260.415749 
L 498.793804 260.317596 
L 499.077197 260.448467 
L 499.360589 261.168255 
L 499.643982 260.350314 
L 499.927374 260.219443 
L 500.210767 260.579338 
L 500.494159 260.742926 
L 500.777552 261.200973 
L 501.060945 260.841079 
L 501.62773 260.677491 
L 501.911122 259.336067 
L 502.194515 255.606255 
L 502.7613 221.481746 
L 503.611478 193.769897 
L 503.89487 192.003143 
L 504.178263 195.078603 
L 505.595226 216.803122 
L 506.162011 223.215781 
L 506.728796 228.417888 
L 507.012189 229.464853 
L 507.862367 236.106536 
L 508.145759 236.531865 
L 508.429152 238.298618 
L 508.712544 241.145054 
L 508.995937 241.832124 
L 509.27933 240.556136 
L 509.846115 241.733971 
L 510.129507 241.864842 
L 510.4129 242.224736 
L 510.696293 243.042677 
L 511.263078 243.402571 
L 511.829863 243.664313 
L 512.113255 243.173548 
L 512.680041 243.56616 
L 513.246826 244.155077 
L 514.097004 247.295972 
L 514.380396 248.01576 
L 514.663789 248.342937 
L 514.947181 249.12816 
L 515.230574 249.357184 
L 515.513966 249.749796 
L 515.797359 249.422619 
L 516.080752 248.800984 
L 516.364144 248.670113 
L 524.865922 251.549266 
L 525.432707 251.22209 
L 525.7161 251.320243 
L 526.282885 251.320243 
L 527.133062 252.956125 
L 527.416455 251.843725 
L 527.98324 253.839502 
L 528.266633 254.068525 
L 528.550025 253.152431 
L 528.833418 255.246361 
L 529.116811 256.358761 
L 529.400203 255.148208 
L 529.683596 253.250584 
L 530.533773 252.269055 
L 530.817166 252.596231 
L 531.100559 252.596231 
L 531.383951 252.792537 
L 531.667344 252.792537 
L 531.950736 253.054278 
L 532.234129 252.628949 
L 532.517522 252.857972 
L 533.934485 253.185149 
L 534.217877 253.708631 
L 534.784662 254.035808 
L 535.068055 253.970372 
L 535.351447 253.708631 
L 535.63484 253.741349 
L 535.918233 253.479608 
L 536.201625 252.923408 
L 536.485018 253.086996 
L 536.76841 252.825255 
L 537.051803 252.727102 
L 537.335196 252.923408 
L 537.618588 252.89069 
L 537.901981 253.086996 
L 538.185373 252.857972 
L 538.468766 252.956125 
L 539.602336 252.792537 
L 539.885729 253.217866 
L 540.169121 253.348737 
L 540.452514 253.086996 
L 540.735907 252.498078 
L 541.019299 253.119713 
L 541.302692 253.348737 
L 541.586084 253.774066 
L 541.869477 253.872219 
L 542.152869 253.741349 
L 542.436262 254.493855 
L 542.719655 251.483831 
L 543.569832 247.295972 
L 543.853225 247.394125 
L 544.136618 247.361407 
L 544.986795 247.917607 
L 545.55358 247.721301 
L 545.836973 248.048478 
L 546.120366 248.179348 
L 546.403758 247.917607 
L 546.970543 248.44109 
L 547.253936 248.244784 
L 547.537329 248.375654 
L 547.820721 248.342937 
L 548.104114 249.357184 
L 548.387506 250.927631 
L 548.670899 250.993066 
L 548.954292 250.731325 
L 549.237684 250.633172 
L 549.521077 250.960349 
L 549.804469 250.731325 
L 550.654647 248.670113 
L 551.221432 248.179348 
L 551.788217 248.408372 
L 552.355003 249.062725 
L 552.638395 248.866419 
L 552.921788 249.259031 
L 553.20518 249.324466 
L 553.488573 250.044254 
L 553.771965 249.847948 
L 554.055358 249.946101 
L 554.338751 250.273278 
L 554.905536 250.305996 
L 555.188928 250.567737 
L 555.755714 250.600454 
L 556.322499 249.324466 
L 556.605891 250.175125 
L 558.306247 249.749796 
L 558.589639 249.488054 
L 558.873032 248.931854 
L 559.439817 248.604678 
L 559.72321 248.768266 
L 560.006602 248.637395 
L 560.289995 248.244784 
L 560.85678 241.603101 
L 561.140173 243.533442 
L 561.423565 242.257454 
L 562.557136 215.363545 
L 562.840528 211.044816 
L 563.123921 208.590992 
L 563.407313 208.885451 
L 563.974099 213.825816 
L 564.824276 222.136099 
L 565.391061 226.323958 
L 565.957847 229.333982 
L 566.524632 232.049547 
L 567.658202 235.681206 
L 567.941595 236.891759 
L 568.224987 180.22479 
L 568.50838 240.294395 
L 569.075165 240.588854 
L 569.64195 242.257454 
L 569.925343 242.715501 
L 570.208735 242.846371 
L 570.492128 243.435289 
L 570.775521 243.664313 
L 571.058913 244.187795 
L 571.342306 244.384101 
L 571.909091 245.103889 
L 572.192483 245.267477 
L 572.759269 245.889113 
L 573.609446 247.132384 
L 573.892839 248.113913 
L 575.026409 248.899137 
L 575.593195 250.207843 
L 576.15998 250.469584 
L 576.443372 250.076972 
L 576.726765 250.142407 
L 577.010157 251.974596 
L 577.29355 250.731325 
L 577.860335 250.731325 
L 578.143728 250.502301 
L 578.42712 251.091219 
L 578.993906 250.535019 
L 579.277298 250.927631 
L 579.560691 250.960349 
L 580.127476 251.451113 
L 580.410868 251.451113 
L 580.977654 251.680137 
L 581.261046 251.77829 
L 582.111224 253.643196 
L 582.394617 254.395702 
L 582.961402 254.166678 
L 583.244794 254.199396 
L 583.528187 254.461137 
L 584.094972 254.592008 
L 584.661757 255.11549 
L 585.228542 254.395702 
L 585.511935 254.624725 
L 585.795328 255.311796 
L 586.07872 255.279078 
L 586.645505 254.755596 
L 586.928898 254.919184 
L 587.495683 254.919184 
L 587.779076 255.11549 
L 588.062468 255.082772 
L 588.345861 254.592008 
L 588.629253 254.330266 
L 588.912646 256.751373 
L 589.196039 257.961926 
L 590.046216 256.587784 
L 590.329609 256.78409 
L 590.613002 256.260608 
L 590.896394 255.279078 
L 591.463179 254.886467 
L 591.746572 254.330266 
L 592.029964 254.493855 
L 592.880142 254.592008 
L 593.163535 254.297549 
L 593.446927 254.232114 
L 593.73032 254.362984 
L 594.297105 254.232114 
L 594.580498 254.232114 
L 594.86389 253.970372 
L 595.147283 254.00309 
L 595.430675 254.624725 
L 595.714068 256.456914 
L 595.997461 256.947678 
L 596.564246 254.592008 
L 596.847638 254.330266 
L 597.131031 253.152431 
L 597.414424 249.913384 
L 597.697816 251.712855 
L 597.981209 251.516549 
L 598.264601 246.249007 
L 599.114779 238.952971 
L 599.398172 236.368277 
L 599.681564 235.223159 
L 599.964957 234.634241 
L 600.248349 234.863265 
L 600.531742 235.615771 
L 601.098527 238.200465 
L 601.665312 240.065371 
L 601.948705 240.196242 
L 602.232098 240.556136 
L 602.798883 241.995712 
L 603.082275 242.257454 
L 603.365668 242.355607 
L 603.64906 241.832124 
L 603.932453 240.098089 
L 604.215846 235.615771 
L 604.499238 228.974088 
L 604.782631 226.552982 
L 605.632809 212.451675 
L 605.916201 213.106028 
L 606.482986 217.94824 
L 607.333164 225.571452 
L 608.183342 229.955617 
L 609.316912 234.536088 
L 610.450482 238.462206 
L 610.733875 238.364053 
L 611.017268 239.509171 
L 611.30066 239.640042 
L 611.584053 239.541889 
L 611.867445 239.869065 
L 612.150838 239.738195 
L 612.434231 240.294395 
L 612.717623 240.392548 
L 613.567801 241.89756 
L 613.851193 241.733971 
L 614.134586 241.962995 
L 614.417979 243.108113 
L 614.701371 243.56616 
L 614.984764 243.337136 
L 615.268156 244.056924 
L 615.551549 244.449536 
L 615.834942 246.019983 
L 616.118334 246.576183 
L 616.685119 248.375654 
L 616.968512 248.113913 
L 617.81869 249.68436 
L 618.102082 249.357184 
L 618.385475 249.226313 
L 618.668867 248.964572 
L 618.95226 248.899137 
L 619.802438 249.259031 
L 620.369223 249.389901 
L 620.652616 249.651643 
L 620.936008 249.749796 
L 621.786186 250.469584 
L 622.069578 250.10969 
L 622.352971 249.520772 
L 622.636364 249.455337 
L 622.636364 249.455337 
" clip-path="url(#p03151f0ce5)" style="fill: none; stroke: #1f77b4; stroke-width: 1.5; stroke-linecap: square"/>
   </g>
   <g id="line2d_13">
    <path d="M 115.363636 267.730314 
L 115.930422 267.978747 
L 116.213814 267.842656 
L 119.614525 269.762945 
L 120.464703 270.154622 
L 120.748095 269.47445 
L 121.031488 269.410632 
L 121.598273 265.030856 
L 121.881666 265.562917 
L 122.165058 265.657727 
L 122.731844 266.066263 
L 123.015236 269.707562 
L 126.415947 271.379112 
L 128.399695 272.259205 
L 128.96648 271.335231 
L 129.533266 266.419913 
L 129.816658 269.151362 
L 130.100051 268.660066 
L 130.383443 268.583595 
L 132.083799 269.533126 
L 132.367191 269.67782 
L 132.650584 269.482972 
L 132.933977 268.588233 
L 133.217369 269.562677 
L 133.784154 260.076134 
L 134.067547 260.477374 
L 134.35094 259.702871 
L 134.634332 260.128265 
L 135.48451 260.847916 
L 136.334688 261.58365 
L 136.61808 250.207843 
L 139.735399 253.893464 
L 142.852717 257.215667 
L 143.13611 257.500303 
L 143.419502 266.468515 
L 146.536821 268.404184 
L 149.370747 270.051181 
L 149.937532 268.726114 
L 150.220924 252.530796 
L 150.504317 251.768355 
L 150.787709 251.76858 
L 151.071102 249.495384 
L 152.204672 232.947959 
L 152.488065 231.65407 
L 152.771458 229.326284 
L 153.05485 246.248362 
L 153.338243 246.164698 
L 153.905028 224.940653 
L 154.188421 223.395531 
L 154.755206 214.801093 
L 155.605383 199.385676 
L 155.888776 197.086939 
L 156.172169 196.880293 
L 156.455561 196.458405 
L 156.738954 196.757172 
L 157.022346 234.241629 
L 160.423057 239.721043 
L 163.540376 244.336266 
L 163.823768 252.203619 
L 166.941087 255.013158 
L 168.074657 255.991912 
L 168.35805 255.949891 
L 168.641442 255.301922 
L 168.924835 254.139631 
L 169.49162 248.391443 
L 169.775013 247.346022 
L 170.058405 246.734916 
L 170.341798 246.609274 
L 170.62519 194.849579 
L 174.025901 203.886736 
L 176.859827 210.709506 
L 177.14322 211.357807 
L 177.426612 236.531865 
L 180.260538 240.478306 
L 183.377857 244.418983 
L 183.944642 245.093497 
L 184.228035 247.884889 
L 187.345353 251.11097 
L 190.462671 254.025796 
L 190.746064 254.276407 
L 191.029457 255.180925 
L 194.430168 257.919927 
L 197.547486 260.177816 
L 197.830879 256.456914 
L 201.23159 259.062222 
L 204.348908 261.209901 
L 204.632301 259.401502 
L 208.033012 261.698287 
L 211.15033 263.594254 
L 211.433723 263.706614 
L 211.717115 263.373194 
L 212.000508 261.353806 
L 212.2839 258.230195 
L 212.850686 244.819929 
L 213.134078 242.592707 
L 213.417471 242.216061 
L 213.700863 242.362955 
L 214.834434 243.691293 
L 216.251397 245.376165 
L 216.534789 245.00754 
L 216.818182 245.190286 
L 217.66836 233.5291 
L 217.951752 225.845345 
L 218.235145 225.004739 
L 218.518537 224.868597 
L 219.368715 226.232058 
L 222.486034 231.542121 
L 225.319959 235.928204 
L 228.153885 239.927833 
L 230.987811 243.57506 
L 234.10513 247.216958 
L 237.222448 250.507482 
L 238.356018 251.623645 
L 238.639411 244.711277 
L 241.756729 248.243552 
L 244.874048 251.435029 
L 245.15744 251.709426 
L 245.440833 250.600454 
L 248.558151 253.564537 
L 250.825292 255.624565 
L 251.108685 255.190021 
L 251.392077 255.079908 
L 251.67547 253.674769 
L 251.958862 251.601661 
L 252.242255 251.418396 
L 252.525648 251.382625 
L 253.375825 252.083345 
L 256.776536 255.144224 
L 258.760284 256.780989 
L 259.043677 252.89069 
L 262.160995 255.863296 
L 265.278314 258.525106 
L 268.395632 260.908615 
L 271.796343 263.225514 
L 275.197054 265.27945 
L 278.881158 267.242334 
L 282.848654 269.08849 
L 286.81615 270.692579 
L 287.382936 270.903879 
L 287.666328 260.121291 
L 291.067039 262.342658 
L 292.767395 263.364475 
L 293.050787 262.018914 
L 296.734891 264.200145 
L 298.435246 265.055889 
L 299.285424 265.170285 
L 299.568817 265.406541 
L 300.135602 264.541693 
L 300.418994 262.938024 
L 300.702387 260.355763 
L 300.98578 259.521808 
L 301.269172 259.355259 
L 301.835957 259.633449 
L 306.653631 262.771271 
L 310.337735 264.867457 
L 314.305231 266.860786 
L 318.272727 268.612644 
L 322.523616 270.254838 
L 327.057897 271.773329 
L 331.875571 273.15912 
L 337.26003 274.471352 
L 339.810564 275.017095 
L 343.211275 207.740333 
L 343.494667 208.069131 
L 348.879126 220.737159 
L 350.579482 224.278839 
L 350.862875 249.946101 
L 353.6968 252.943094 
L 356.247334 255.394826 
L 356.530726 252.301772 
L 359.648045 255.335952 
L 362.765363 258.052898 
L 363.048756 258.285337 
L 363.332148 256.620502 
L 366.449467 259.203144 
L 369.566785 261.515762 
L 369.850178 261.71361 
L 370.13357 257.798337 
L 373.250889 260.257832 
L 376.6516 262.648593 
L 376.934992 259.56509 
L 379.485526 261.456344 
L 380.052311 261.530828 
L 380.619096 261.36149 
L 381.469274 261.090151 
L 382.036059 260.50621 
L 382.319451 260.365668 
L 382.602844 260.369672 
L 383.453022 260.973884 
L 383.736414 260.154008 
L 386.853733 262.584099 
L 389.971051 264.729892 
L 390.254444 264.912049 
L 390.537836 260.939232 
L 393.08837 263.412279 
L 395.638903 265.595551 
L 397.055866 266.694453 
L 397.339259 260.939232 
L 400.456577 263.246141 
L 403.573895 265.286832 
L 403.857288 265.460239 
L 404.140681 261.135538 
L 407.257999 263.450797 
L 410.375317 265.495198 
L 411.79228 266.343646 
L 412.075673 263.294903 
L 415.192991 265.357541 
L 417.743525 266.864359 
L 418.026917 263.981973 
L 421.427628 266.103941 
L 424.828339 267.960224 
L 428.512443 269.709859 
L 431.062976 270.780874 
L 431.346369 266.877485 
L 435.030472 268.777728 
L 435.313865 268.861778 
L 435.597257 268.784111 
L 436.164043 268.033481 
L 436.730828 267.503618 
L 437.297613 267.531471 
L 437.864398 267.644661 
L 438.147791 259.859549 
L 438.431183 259.764045 
L 441.548502 260.863874 
L 444.66582 263.109671 
L 446.082783 263.89136 
L 446.366176 252.399925 
L 447.499746 253.660489 
L 447.783139 254.706519 
L 450.900457 257.824828 
L 451.467242 257.385324 
L 451.750635 210.29231 
L 452.034027 209.968615 
L 452.31742 209.959383 
L 452.884205 210.537916 
L 453.45099 211.804254 
L 456.284916 219.185602 
L 458.835449 225.163204 
L 461.385983 230.561746 
L 463.936516 235.437387 
L 465.070086 237.449939 
L 465.353479 254.510214 
L 468.187405 257.335307 
L 471.021331 259.85823 
L 471.871508 260.561112 
L 472.154901 257.602031 
L 474.988827 260.096427 
L 478.106145 262.533255 
L 478.67293 262.944652 
L 478.956323 257.994643 
L 481.790249 260.447047 
L 484.907567 262.842855 
L 485.474352 263.247327 
L 485.757745 259.074326 
L 488.875063 261.630735 
L 491.992382 263.888061 
L 492.275775 264.079685 
L 492.559167 258.87802 
L 495.393093 261.235943 
L 498.510411 263.539246 
L 499.077197 263.925426 
L 499.360589 260.301238 
L 501.62773 262.548158 
L 501.911122 262.36942 
L 502.194515 261.156936 
L 502.477908 258.675862 
L 504.461656 231.765157 
L 504.745048 229.171721 
L 505.028441 228.948652 
L 505.595226 230.03717 
L 505.878619 230.691667 
L 506.162011 216.181487 
L 508.712544 222.449888 
L 511.263078 228.111264 
L 512.680041 231.015986 
L 512.963433 243.369854 
L 515.230574 246.569086 
L 516.364144 247.873006 
L 525.7161 258.16528 
L 528.550025 260.599433 
L 531.667344 262.977413 
L 533.084307 263.964295 
L 533.367699 252.939766 
L 535.63484 255.969026 
L 536.201625 256.460943 
L 537.051803 256.921789 
L 538.185373 257.37837 
L 539.885729 259.309535 
L 540.169121 252.74346 
L 542.719655 256.143941 
L 545.270188 259.165747 
L 546.687151 260.711159 
L 546.970543 247.933966 
L 547.253936 248.314771 
L 548.104114 248.30247 
L 548.387506 248.435967 
L 550.93804 251.890505 
L 551.788217 252.457659 
L 552.921788 254.02863 
L 553.20518 253.558387 
L 553.488573 252.268921 
L 553.771965 249.40626 
L 554.338751 247.42035 
L 554.622143 247.214268 
L 555.188928 247.742746 
L 557.739462 250.945278 
L 558.306247 250.834518 
L 558.589639 250.990227 
L 559.439817 248.790915 
L 559.72321 248.144166 
L 560.006602 247.86936 
L 560.289995 248.045261 
L 560.573388 248.71919 
L 561.423565 242.487042 
L 561.99035 239.848355 
L 562.557136 237.790822 
L 563.407313 235.315638 
L 563.690706 234.873728 
L 563.974099 234.778033 
L 564.257491 234.995641 
L 565.391061 236.886309 
L 567.091417 239.735362 
L 567.37481 232.916565 
L 569.925343 237.500706 
L 570.775521 238.820583 
L 571.342306 239.193322 
L 571.909091 239.542157 
L 572.475876 240.21101 
L 573.892839 242.399662 
L 574.176232 246.952436 
L 576.726765 250.240861 
L 579.560691 253.522637 
L 580.694261 254.734855 
L 580.977654 251.418396 
L 583.811579 254.57421 
L 586.645505 257.392458 
L 587.495683 258.177614 
L 587.779076 254.853749 
L 590.613002 257.642097 
L 593.446927 260.132269 
L 594.297105 260.822762 
L 594.580498 254.215755 
L 595.147283 254.494643 
L 595.430675 254.346489 
L 595.714068 253.696551 
L 596.280853 251.511732 
L 596.847638 249.058219 
L 597.131031 248.327119 
L 597.414424 247.948535 
L 597.697816 247.907613 
L 597.981209 247.659563 
L 598.264601 247.157251 
L 599.398172 242.548813 
L 599.681564 242.471465 
L 600.248349 243.196626 
L 601.098527 244.451076 
L 601.38192 236.940836 
L 603.932453 241.198677 
L 606.482986 245.04421 
L 607.899949 247.01733 
L 608.183342 226.782005 
L 610.733875 232.023744 
L 613.284408 236.757787 
L 614.701371 239.186757 
L 614.984764 242.928166 
L 617.535297 246.606225 
L 620.08583 249.928169 
L 621.502793 251.632655 
L 621.786186 249.847948 
L 622.636364 250.855459 
L 622.636364 250.855459 
" clip-path="url(#p03151f0ce5)" style="fill: none; stroke: #ff7f0e; stroke-width: 1.5; stroke-linecap: square"/>
   </g>
   <g id="patch_3">
    <path d="M 90 288 
L 90 43.2 
" style="fill: none; stroke: #000000; stroke-width: 0.8; stroke-linejoin: miter; stroke-linecap: square"/>
   </g>
   <g id="patch_4">
    <path d="M 648 288 
L 648 43.2 
" style="fill: none; stroke: #000000; stroke-width: 0.8; stroke-linejoin: miter; stroke-linecap: square"/>
   </g>
   <g id="patch_5">
    <path d="M 90 288 
L 648 288 
" style="fill: none; stroke: #000000; stroke-width: 0.8; stroke-linejoin: miter; stroke-linecap: square"/>
   </g>
   <g id="patch_6">
    <path d="M 90 43.2 
L 648 43.2 
" style="fill: none; stroke: #000000; stroke-width: 0.8; stroke-linejoin: miter; stroke-linecap: square"/>
   </g>
   <g id="text_13">
    <!-- DET027 -->
    <g transform="translate(345.471563 37.2) scale(0.12 -0.12)">
     <defs>
      <path id="DejaVuSans-44" d="M 1259 4147 
L 1259 519 
L 2022 519 
Q 2988 519 3436 956 
Q 3884 1394 3884 2338 
Q 3884 3275 3436 3711 
Q 2988 4147 2022 4147 
L 1259 4147 
z
M 628 4666 
L 1925 4666 
Q 3281 4666 3915 4102 
Q 4550 3538 4550 2338 
Q 4550 1131 3912 565 
Q 3275 0 1925 0 
L 628 0 
L 628 4666 
z
" transform="scale(0.015625)"/>
      <path id="DejaVuSans-45" d="M 628 4666 
L 3578 4666 
L 3578 4134 
L 1259 4134 
L 1259 2753 
L 3481 2753 
L 3481 2222 
L 1259 2222 
L 1259 531 
L 3634 531 
L 3634 0 
L 628 0 
L 628 4666 
z
" transform="scale(0.015625)"/>
      <path id="DejaVuSans-54" d="M -19 4666 
L 3928 4666 
L 3928 4134 
L 2272 4134 
L 2272 0 
L 1638 0 
L 1638 4134 
L -19 4134 
L -19 4666 
z
" transform="scale(0.015625)"/>
      <path id="DejaVuSans-37" d="M 525 4666 
L 3525 4666 
L 3525 4397 
L 1831 0 
L 1172 0 
L 2766 4134 
L 525 4134 
L 525 4666 
z
" transform="scale(0.015625)"/>
     </defs>
     <use xlink:href="#DejaVuSans-44"/>
     <use xlink:href="#DejaVuSans-45" x="77.001953"/>
     <use xlink:href="#DejaVuSans-54" x="140.185547"/>
     <use xlink:href="#DejaVuSans-30" x="201.269531"/>
     <use xlink:href="#DejaVuSans-32" x="264.892578"/>
     <use xlink:href="#DejaVuSans-37" x="328.515625"/>
    </g>
   </g>
   <g id="legend_1">
    <g id="patch_7">
     <path d="M 559.04375 80.55625 
L 641 80.55625 
Q 643 80.55625 643 78.55625 
L 643 50.2 
Q 643 48.2 641 48.2 
L 559.04375 48.2 
Q 557.04375 48.2 557.04375 50.2 
L 557.04375 78.55625 
Q 557.04375 80.55625 559.04375 80.55625 
z
" style="fill: #ffffff; opacity: 0.8; stroke: #cccccc; stroke-linejoin: miter"/>
    </g>
    <g id="line2d_14">
     <path d="M 561.04375 56.298437 
L 571.04375 56.298437 
L 581.04375 56.298437 
" style="fill: none; stroke: #1f77b4; stroke-width: 1.5; stroke-linecap: square"/>
    </g>
    <g id="text_14">
     <!-- measured -->
     <g transform="translate(589.04375 59.798437) scale(0.1 -0.1)">
      <defs>
       <path id="DejaVuSans-6d" d="M 3328 2828 
Q 3544 3216 3844 3400 
Q 4144 3584 4550 3584 
Q 5097 3584 5394 3201 
Q 5691 2819 5691 2113 
L 5691 0 
L 5113 0 
L 5113 2094 
Q 5113 2597 4934 2840 
Q 4756 3084 4391 3084 
Q 3944 3084 3684 2787 
Q 3425 2491 3425 1978 
L 3425 0 
L 2847 0 
L 2847 2094 
Q 2847 2600 2669 2842 
Q 2491 3084 2119 3084 
Q 1678 3084 1418 2786 
Q 1159 2488 1159 1978 
L 1159 0 
L 581 0 
L 581 3500 
L 1159 3500 
L 1159 2956 
Q 1356 3278 1631 3431 
Q 1906 3584 2284 3584 
Q 2666 3584 2933 3390 
Q 3200 3197 3328 2828 
z
" transform="scale(0.015625)"/>
       <path id="DejaVuSans-61" d="M 2194 1759 
Q 1497 1759 1228 1600 
Q 959 1441 959 1056 
Q 959 750 1161 570 
Q 1363 391 1709 391 
Q 2188 391 2477 730 
Q 2766 1069 2766 1631 
L 2766 1759 
L 2194 1759 
z
M 3341 1997 
L 3341 0 
L 2766 0 
L 2766 531 
Q 2569 213 2275 61 
Q 1981 -91 1556 -91 
Q 1019 -91 701 211 
Q 384 513 384 1019 
Q 384 1609 779 1909 
Q 1175 2209 1959 2209 
L 2766 2209 
L 2766 2266 
Q 2766 2663 2505 2880 
Q 2244 3097 1772 3097 
Q 1472 3097 1187 3025 
Q 903 2953 641 2809 
L 641 3341 
Q 956 3463 1253 3523 
Q 1550 3584 1831 3584 
Q 2591 3584 2966 3190 
Q 3341 2797 3341 1997 
z
" transform="scale(0.015625)"/>
       <path id="DejaVuSans-75" d="M 544 1381 
L 544 3500 
L 1119 3500 
L 1119 1403 
Q 1119 906 1312 657 
Q 1506 409 1894 409 
Q 2359 409 2629 706 
Q 2900 1003 2900 1516 
L 2900 3500 
L 3475 3500 
L 3475 0 
L 2900 0 
L 2900 538 
Q 2691 219 2414 64 
Q 2138 -91 1772 -91 
Q 1169 -91 856 284 
Q 544 659 544 1381 
z
M 1991 3584 
L 1991 3584 
z
" transform="scale(0.015625)"/>
       <path id="DejaVuSans-64" d="M 2906 2969 
L 2906 4863 
L 3481 4863 
L 3481 0 
L 2906 0 
L 2906 525 
Q 2725 213 2448 61 
Q 2172 -91 1784 -91 
Q 1150 -91 751 415 
Q 353 922 353 1747 
Q 353 2572 751 3078 
Q 1150 3584 1784 3584 
Q 2172 3584 2448 3432 
Q 2725 3281 2906 2969 
z
M 947 1747 
Q 947 1113 1208 752 
Q 1469 391 1925 391 
Q 2381 391 2643 752 
Q 2906 1113 2906 1747 
Q 2906 2381 2643 2742 
Q 2381 3103 1925 3103 
Q 1469 3103 1208 2742 
Q 947 2381 947 1747 
z
" transform="scale(0.015625)"/>
      </defs>
      <use xlink:href="#DejaVuSans-6d"/>
      <use xlink:href="#DejaVuSans-65" x="97.412109"/>
      <use xlink:href="#DejaVuSans-61" x="158.935547"/>
      <use xlink:href="#DejaVuSans-73" x="220.214844"/>
      <use xlink:href="#DejaVuSans-75" x="272.314453"/>
      <use xlink:href="#DejaVuSans-72" x="335.693359"/>
      <use xlink:href="#DejaVuSans-65" x="374.556641"/>
      <use xlink:href="#DejaVuSans-64" x="436.080078"/>
     </g>
    </g>
    <g id="line2d_15">
     <path d="M 561.04375 70.976562 
L 571.04375 70.976562 
L 581.04375 70.976562 
" style="fill: none; stroke: #ff7f0e; stroke-width: 1.5; stroke-linecap: square"/>
    </g>
    <g id="text_15">
     <!-- predicted -->
     <g transform="translate(589.04375 74.476562) scale(0.1 -0.1)">
      <defs>
       <path id="DejaVuSans-70" d="M 1159 525 
L 1159 -1331 
L 581 -1331 
L 581 3500 
L 1159 3500 
L 1159 2969 
Q 1341 3281 1617 3432 
Q 1894 3584 2278 3584 
Q 2916 3584 3314 3078 
Q 3713 2572 3713 1747 
Q 3713 922 3314 415 
Q 2916 -91 2278 -91 
Q 1894 -91 1617 61 
Q 1341 213 1159 525 
z
M 3116 1747 
Q 3116 2381 2855 2742 
Q 2594 3103 2138 3103 
Q 1681 3103 1420 2742 
Q 1159 2381 1159 1747 
Q 1159 1113 1420 752 
Q 1681 391 2138 391 
Q 2594 391 2855 752 
Q 3116 1113 3116 1747 
z
" transform="scale(0.015625)"/>
       <path id="DejaVuSans-69" d="M 603 3500 
L 1178 3500 
L 1178 0 
L 603 0 
L 603 3500 
z
M 603 4863 
L 1178 4863 
L 1178 4134 
L 603 4134 
L 603 4863 
z
" transform="scale(0.015625)"/>
       <path id="DejaVuSans-63" d="M 3122 3366 
L 3122 2828 
Q 2878 2963 2633 3030 
Q 2388 3097 2138 3097 
Q 1578 3097 1268 2742 
Q 959 2388 959 1747 
Q 959 1106 1268 751 
Q 1578 397 2138 397 
Q 2388 397 2633 464 
Q 2878 531 3122 666 
L 3122 134 
Q 2881 22 2623 -34 
Q 2366 -91 2075 -91 
Q 1284 -91 818 406 
Q 353 903 353 1747 
Q 353 2603 823 3093 
Q 1294 3584 2113 3584 
Q 2378 3584 2631 3529 
Q 2884 3475 3122 3366 
z
" transform="scale(0.015625)"/>
      </defs>
      <use xlink:href="#DejaVuSans-70"/>
      <use xlink:href="#DejaVuSans-72" x="63.476562"/>
      <use xlink:href="#DejaVuSans-65" x="102.339844"/>
      <use xlink:href="#DejaVuSans-64" x="163.863281"/>
      <use xlink:href="#DejaVuSans-69" x="227.339844"/>
      <use xlink:href="#DejaVuSans-63" x="255.123047"/>
      <use xlink:href="#DejaVuSans-74" x="310.103516"/>
      <use xlink:href="#DejaVuSans-65" x="349.3125"/>
      <use xlink:href="#DejaVuSans-64" x="410.835938"/>
     </g>
    </g>
   </g>
  </g>
 </g>
 <defs>
  <clipPath id="p03151f0ce5">
   <rect x="90" y="43.2" width="558" height="244.8"/>
  </clipPath>
 </defs>
</svg>
