<?xml version="1.0" encoding="utf-8" standalone="no"?>
<!DOCTYPE svg PUBLIC "-//W3C//DTD SVG 1.1//EN"
  "http://www.w3.org/Graphics/SVG/1.1/DTD/svg11.dtd">
<svg xmlns:xlink="http://www.w3.org/1999/xlink" width="720pt" height="360pt" viewBox="0 0 720 360" xmlns="http://www.w3.org/2000/svg" version="1.1">
 <metadata>
  <rdf:RDF xmlns:dc="http://purl.org/dc/elements/1.1/" xmlns:cc="http://creativecommons.org/ns#" xmlns:rdf="http://www.w3.org/1999/02/22-rdf-syntax-ns#">
   <cc:Work>
    <dc:type rdf:resource="http://purl.org/dc/dcmitype/StillImage"/>
    <dc:date>2023-10-23T10:53:44.052681</dc:date>
    <dc:format>image/svg+xml</dc:format>
    <dc:creator>
     <cc:Agent>
      <dc:title>Matplotlib v3.7.1, https://matplotlib.org/</dc:title>
     </cc:Agent>
    </dc:creator>
   </cc:Work>
  </rdf:RDF>
 </metadata>
 <defs>
  <style type="text/css">*{stroke-linejoin: round; stroke-linecap: butt}</style>
 </defs>
 <g id="figure_1">
  <g id="patch_1">
   <path d="M 0 360 
L 720 360 
L 720 0 
L 0 0 
z
" style="fill: #ffffff"/>
  </g>
  <g id="axes_1">
   <g id="patch_2">
    <path d="M 90 288 
L 648 288 
L 648 43.2 
L 90 43.2 
z
" style="fill: #ffffff"/>
   </g>
   <g id="matplotlib.axis_1">
    <g id="xtick_1">
     <g id="line2d_1">
      <defs>
       <path id="m2bed4983e4" d="M 0 0 
L 0 3.5 
" style="stroke: #000000; stroke-width: 0.8"/>
      </defs>
      <g>
       <use xlink:href="#m2bed4983e4" x="149.370747" y="288" style="stroke: #000000; stroke-width: 0.8"/>
      </g>
     </g>
     <g id="text_1">
      <!-- 2023-08-15 -->
      <g transform="translate(87.727405 337.765903) rotate(-30) scale(0.12 -0.12)">
       <defs>
        <path id="DejaVuSans-32" d="M 1228 531 
L 3431 531 
L 3431 0 
L 469 0 
L 469 531 
Q 828 903 1448 1529 
Q 2069 2156 2228 2338 
Q 2531 2678 2651 2914 
Q 2772 3150 2772 3378 
Q 2772 3750 2511 3984 
Q 2250 4219 1831 4219 
Q 1534 4219 1204 4116 
Q 875 4013 500 3803 
L 500 4441 
Q 881 4594 1212 4672 
Q 1544 4750 1819 4750 
Q 2544 4750 2975 4387 
Q 3406 4025 3406 3419 
Q 3406 3131 3298 2873 
Q 3191 2616 2906 2266 
Q 2828 2175 2409 1742 
Q 1991 1309 1228 531 
z
" transform="scale(0.015625)"/>
        <path id="DejaVuSans-30" d="M 2034 4250 
Q 1547 4250 1301 3770 
Q 1056 3291 1056 2328 
Q 1056 1369 1301 889 
Q 1547 409 2034 409 
Q 2525 409 2770 889 
Q 3016 1369 3016 2328 
Q 3016 3291 2770 3770 
Q 2525 4250 2034 4250 
z
M 2034 4750 
Q 2819 4750 3233 4129 
Q 3647 3509 3647 2328 
Q 3647 1150 3233 529 
Q 2819 -91 2034 -91 
Q 1250 -91 836 529 
Q 422 1150 422 2328 
Q 422 3509 836 4129 
Q 1250 4750 2034 4750 
z
" transform="scale(0.015625)"/>
        <path id="DejaVuSans-33" d="M 2597 2516 
Q 3050 2419 3304 2112 
Q 3559 1806 3559 1356 
Q 3559 666 3084 287 
Q 2609 -91 1734 -91 
Q 1441 -91 1130 -33 
Q 819 25 488 141 
L 488 750 
Q 750 597 1062 519 
Q 1375 441 1716 441 
Q 2309 441 2620 675 
Q 2931 909 2931 1356 
Q 2931 1769 2642 2001 
Q 2353 2234 1838 2234 
L 1294 2234 
L 1294 2753 
L 1863 2753 
Q 2328 2753 2575 2939 
Q 2822 3125 2822 3475 
Q 2822 3834 2567 4026 
Q 2313 4219 1838 4219 
Q 1578 4219 1281 4162 
Q 984 4106 628 3988 
L 628 4550 
Q 988 4650 1302 4700 
Q 1616 4750 1894 4750 
Q 2613 4750 3031 4423 
Q 3450 4097 3450 3541 
Q 3450 3153 3228 2886 
Q 3006 2619 2597 2516 
z
" transform="scale(0.015625)"/>
        <path id="DejaVuSans-2d" d="M 313 2009 
L 1997 2009 
L 1997 1497 
L 313 1497 
L 313 2009 
z
" transform="scale(0.015625)"/>
        <path id="DejaVuSans-38" d="M 2034 2216 
Q 1584 2216 1326 1975 
Q 1069 1734 1069 1313 
Q 1069 891 1326 650 
Q 1584 409 2034 409 
Q 2484 409 2743 651 
Q 3003 894 3003 1313 
Q 3003 1734 2745 1975 
Q 2488 2216 2034 2216 
z
M 1403 2484 
Q 997 2584 770 2862 
Q 544 3141 544 3541 
Q 544 4100 942 4425 
Q 1341 4750 2034 4750 
Q 2731 4750 3128 4425 
Q 3525 4100 3525 3541 
Q 3525 3141 3298 2862 
Q 3072 2584 2669 2484 
Q 3125 2378 3379 2068 
Q 3634 1759 3634 1313 
Q 3634 634 3220 271 
Q 2806 -91 2034 -91 
Q 1263 -91 848 271 
Q 434 634 434 1313 
Q 434 1759 690 2068 
Q 947 2378 1403 2484 
z
M 1172 3481 
Q 1172 3119 1398 2916 
Q 1625 2713 2034 2713 
Q 2441 2713 2670 2916 
Q 2900 3119 2900 3481 
Q 2900 3844 2670 4047 
Q 2441 4250 2034 4250 
Q 1625 4250 1398 4047 
Q 1172 3844 1172 3481 
z
" transform="scale(0.015625)"/>
        <path id="DejaVuSans-31" d="M 794 531 
L 1825 531 
L 1825 4091 
L 703 3866 
L 703 4441 
L 1819 4666 
L 2450 4666 
L 2450 531 
L 3481 531 
L 3481 0 
L 794 0 
L 794 531 
z
" transform="scale(0.015625)"/>
        <path id="DejaVuSans-35" d="M 691 4666 
L 3169 4666 
L 3169 4134 
L 1269 4134 
L 1269 2991 
Q 1406 3038 1543 3061 
Q 1681 3084 1819 3084 
Q 2600 3084 3056 2656 
Q 3513 2228 3513 1497 
Q 3513 744 3044 326 
Q 2575 -91 1722 -91 
Q 1428 -91 1123 -41 
Q 819 9 494 109 
L 494 744 
Q 775 591 1075 516 
Q 1375 441 1709 441 
Q 2250 441 2565 725 
Q 2881 1009 2881 1497 
Q 2881 1984 2565 2268 
Q 2250 2553 1709 2553 
Q 1456 2553 1204 2497 
Q 953 2441 691 2322 
L 691 4666 
z
" transform="scale(0.015625)"/>
       </defs>
       <use xlink:href="#DejaVuSans-32"/>
       <use xlink:href="#DejaVuSans-30" x="63.623047"/>
       <use xlink:href="#DejaVuSans-32" x="127.246094"/>
       <use xlink:href="#DejaVuSans-33" x="190.869141"/>
       <use xlink:href="#DejaVuSans-2d" x="254.492188"/>
       <use xlink:href="#DejaVuSans-30" x="290.576172"/>
       <use xlink:href="#DejaVuSans-38" x="354.199219"/>
       <use xlink:href="#DejaVuSans-2d" x="417.822266"/>
       <use xlink:href="#DejaVuSans-31" x="453.90625"/>
       <use xlink:href="#DejaVuSans-35" x="517.529297"/>
      </g>
     </g>
    </g>
    <g id="xtick_2">
     <g id="line2d_2">
      <g>
       <use xlink:href="#m2bed4983e4" x="264.994921" y="288" style="stroke: #000000; stroke-width: 0.8"/>
      </g>
     </g>
     <g id="text_2">
      <!-- 2023-09-01 -->
      <g transform="translate(203.35158 337.765903) rotate(-30) scale(0.12 -0.12)">
       <defs>
        <path id="DejaVuSans-39" d="M 703 97 
L 703 672 
Q 941 559 1184 500 
Q 1428 441 1663 441 
Q 2288 441 2617 861 
Q 2947 1281 2994 2138 
Q 2813 1869 2534 1725 
Q 2256 1581 1919 1581 
Q 1219 1581 811 2004 
Q 403 2428 403 3163 
Q 403 3881 828 4315 
Q 1253 4750 1959 4750 
Q 2769 4750 3195 4129 
Q 3622 3509 3622 2328 
Q 3622 1225 3098 567 
Q 2575 -91 1691 -91 
Q 1453 -91 1209 -44 
Q 966 3 703 97 
z
M 1959 2075 
Q 2384 2075 2632 2365 
Q 2881 2656 2881 3163 
Q 2881 3666 2632 3958 
Q 2384 4250 1959 4250 
Q 1534 4250 1286 3958 
Q 1038 3666 1038 3163 
Q 1038 2656 1286 2365 
Q 1534 2075 1959 2075 
z
" transform="scale(0.015625)"/>
       </defs>
       <use xlink:href="#DejaVuSans-32"/>
       <use xlink:href="#DejaVuSans-30" x="63.623047"/>
       <use xlink:href="#DejaVuSans-32" x="127.246094"/>
       <use xlink:href="#DejaVuSans-33" x="190.869141"/>
       <use xlink:href="#DejaVuSans-2d" x="254.492188"/>
       <use xlink:href="#DejaVuSans-30" x="290.576172"/>
       <use xlink:href="#DejaVuSans-39" x="354.199219"/>
       <use xlink:href="#DejaVuSans-2d" x="417.822266"/>
       <use xlink:href="#DejaVuSans-30" x="453.90625"/>
       <use xlink:href="#DejaVuSans-31" x="517.529297"/>
      </g>
     </g>
    </g>
    <g id="xtick_3">
     <g id="line2d_3">
      <g>
       <use xlink:href="#m2bed4983e4" x="360.21483" y="288" style="stroke: #000000; stroke-width: 0.8"/>
      </g>
     </g>
     <g id="text_3">
      <!-- 2023-09-15 -->
      <g transform="translate(298.571488 337.765903) rotate(-30) scale(0.12 -0.12)">
       <use xlink:href="#DejaVuSans-32"/>
       <use xlink:href="#DejaVuSans-30" x="63.623047"/>
       <use xlink:href="#DejaVuSans-32" x="127.246094"/>
       <use xlink:href="#DejaVuSans-33" x="190.869141"/>
       <use xlink:href="#DejaVuSans-2d" x="254.492188"/>
       <use xlink:href="#DejaVuSans-30" x="290.576172"/>
       <use xlink:href="#DejaVuSans-39" x="354.199219"/>
       <use xlink:href="#DejaVuSans-2d" x="417.822266"/>
       <use xlink:href="#DejaVuSans-31" x="453.90625"/>
       <use xlink:href="#DejaVuSans-35" x="517.529297"/>
      </g>
     </g>
    </g>
    <g id="xtick_4">
     <g id="line2d_4">
      <g>
       <use xlink:href="#m2bed4983e4" x="469.037583" y="288" style="stroke: #000000; stroke-width: 0.8"/>
      </g>
     </g>
     <g id="text_4">
      <!-- 2023-10-01 -->
      <g transform="translate(407.394241 337.765903) rotate(-30) scale(0.12 -0.12)">
       <use xlink:href="#DejaVuSans-32"/>
       <use xlink:href="#DejaVuSans-30" x="63.623047"/>
       <use xlink:href="#DejaVuSans-32" x="127.246094"/>
       <use xlink:href="#DejaVuSans-33" x="190.869141"/>
       <use xlink:href="#DejaVuSans-2d" x="254.492188"/>
       <use xlink:href="#DejaVuSans-31" x="290.576172"/>
       <use xlink:href="#DejaVuSans-30" x="354.199219"/>
       <use xlink:href="#DejaVuSans-2d" x="417.822266"/>
       <use xlink:href="#DejaVuSans-30" x="453.90625"/>
       <use xlink:href="#DejaVuSans-31" x="517.529297"/>
      </g>
     </g>
    </g>
    <g id="xtick_5">
     <g id="line2d_5">
      <g>
       <use xlink:href="#m2bed4983e4" x="564.257491" y="288" style="stroke: #000000; stroke-width: 0.8"/>
      </g>
     </g>
     <g id="text_5">
      <!-- 2023-10-15 -->
      <g transform="translate(502.614149 337.765903) rotate(-30) scale(0.12 -0.12)">
       <use xlink:href="#DejaVuSans-32"/>
       <use xlink:href="#DejaVuSans-30" x="63.623047"/>
       <use xlink:href="#DejaVuSans-32" x="127.246094"/>
       <use xlink:href="#DejaVuSans-33" x="190.869141"/>
       <use xlink:href="#DejaVuSans-2d" x="254.492188"/>
       <use xlink:href="#DejaVuSans-31" x="290.576172"/>
       <use xlink:href="#DejaVuSans-30" x="354.199219"/>
       <use xlink:href="#DejaVuSans-2d" x="417.822266"/>
       <use xlink:href="#DejaVuSans-31" x="453.90625"/>
       <use xlink:href="#DejaVuSans-35" x="517.529297"/>
      </g>
     </g>
    </g>
   </g>
   <g id="matplotlib.axis_2">
    <g id="ytick_1">
     <g id="line2d_6">
      <defs>
       <path id="m89c919f2e1" d="M 0 0 
L -3.5 0 
" style="stroke: #000000; stroke-width: 0.8"/>
      </defs>
      <g>
       <use xlink:href="#m89c919f2e1" x="90" y="276.673387" style="stroke: #000000; stroke-width: 0.8"/>
      </g>
     </g>
     <g id="text_6">
      <!-- −8 -->
      <g transform="translate(65.309375 281.23245) scale(0.12 -0.12)">
       <defs>
        <path id="DejaVuSans-2212" d="M 678 2272 
L 4684 2272 
L 4684 1741 
L 678 1741 
L 678 2272 
z
" transform="scale(0.015625)"/>
       </defs>
       <use xlink:href="#DejaVuSans-2212"/>
       <use xlink:href="#DejaVuSans-38" x="83.789062"/>
      </g>
     </g>
    </g>
    <g id="ytick_2">
     <g id="line2d_7">
      <g>
       <use xlink:href="#m89c919f2e1" x="90" y="230.040196" style="stroke: #000000; stroke-width: 0.8"/>
      </g>
     </g>
     <g id="text_7">
      <!-- −6 -->
      <g transform="translate(65.309375 234.599258) scale(0.12 -0.12)">
       <defs>
        <path id="DejaVuSans-36" d="M 2113 2584 
Q 1688 2584 1439 2293 
Q 1191 2003 1191 1497 
Q 1191 994 1439 701 
Q 1688 409 2113 409 
Q 2538 409 2786 701 
Q 3034 994 3034 1497 
Q 3034 2003 2786 2293 
Q 2538 2584 2113 2584 
z
M 3366 4563 
L 3366 3988 
Q 3128 4100 2886 4159 
Q 2644 4219 2406 4219 
Q 1781 4219 1451 3797 
Q 1122 3375 1075 2522 
Q 1259 2794 1537 2939 
Q 1816 3084 2150 3084 
Q 2853 3084 3261 2657 
Q 3669 2231 3669 1497 
Q 3669 778 3244 343 
Q 2819 -91 2113 -91 
Q 1303 -91 875 529 
Q 447 1150 447 2328 
Q 447 3434 972 4092 
Q 1497 4750 2381 4750 
Q 2619 4750 2861 4703 
Q 3103 4656 3366 4563 
z
" transform="scale(0.015625)"/>
       </defs>
       <use xlink:href="#DejaVuSans-2212"/>
       <use xlink:href="#DejaVuSans-36" x="83.789062"/>
      </g>
     </g>
    </g>
    <g id="ytick_3">
     <g id="line2d_8">
      <g>
       <use xlink:href="#m89c919f2e1" x="90" y="183.407005" style="stroke: #000000; stroke-width: 0.8"/>
      </g>
     </g>
     <g id="text_8">
      <!-- −4 -->
      <g transform="translate(65.309375 187.966067) scale(0.12 -0.12)">
       <defs>
        <path id="DejaVuSans-34" d="M 2419 4116 
L 825 1625 
L 2419 1625 
L 2419 4116 
z
M 2253 4666 
L 3047 4666 
L 3047 1625 
L 3713 1625 
L 3713 1100 
L 3047 1100 
L 3047 0 
L 2419 0 
L 2419 1100 
L 313 1100 
L 313 1709 
L 2253 4666 
z
" transform="scale(0.015625)"/>
       </defs>
       <use xlink:href="#DejaVuSans-2212"/>
       <use xlink:href="#DejaVuSans-34" x="83.789062"/>
      </g>
     </g>
    </g>
    <g id="ytick_4">
     <g id="line2d_9">
      <g>
       <use xlink:href="#m89c919f2e1" x="90" y="136.773813" style="stroke: #000000; stroke-width: 0.8"/>
      </g>
     </g>
     <g id="text_9">
      <!-- −2 -->
      <g transform="translate(65.309375 141.332876) scale(0.12 -0.12)">
       <use xlink:href="#DejaVuSans-2212"/>
       <use xlink:href="#DejaVuSans-32" x="83.789062"/>
      </g>
     </g>
    </g>
    <g id="ytick_5">
     <g id="line2d_10">
      <g>
       <use xlink:href="#m89c919f2e1" x="90" y="90.140622" style="stroke: #000000; stroke-width: 0.8"/>
      </g>
     </g>
     <g id="text_10">
      <!-- 0 -->
      <g transform="translate(75.365 94.699685) scale(0.12 -0.12)">
       <use xlink:href="#DejaVuSans-30"/>
      </g>
     </g>
    </g>
    <g id="ytick_6">
     <g id="line2d_11">
      <g>
       <use xlink:href="#m89c919f2e1" x="90" y="43.507431" style="stroke: #000000; stroke-width: 0.8"/>
      </g>
     </g>
     <g id="text_11">
      <!-- 2 -->
      <g transform="translate(75.365 48.066493) scale(0.12 -0.12)">
       <use xlink:href="#DejaVuSans-32"/>
      </g>
     </g>
    </g>
    <g id="text_12">
     <!-- Meters -->
     <g transform="translate(59.229687 182.6875) rotate(-90) scale(0.1 -0.1)">
      <defs>
       <path id="DejaVuSans-4d" d="M 628 4666 
L 1569 4666 
L 2759 1491 
L 3956 4666 
L 4897 4666 
L 4897 0 
L 4281 0 
L 4281 4097 
L 3078 897 
L 2444 897 
L 1241 4097 
L 1241 0 
L 628 0 
L 628 4666 
z
" transform="scale(0.015625)"/>
       <path id="DejaVuSans-65" d="M 3597 1894 
L 3597 1613 
L 953 1613 
Q 991 1019 1311 708 
Q 1631 397 2203 397 
Q 2534 397 2845 478 
Q 3156 559 3463 722 
L 3463 178 
Q 3153 47 2828 -22 
Q 2503 -91 2169 -91 
Q 1331 -91 842 396 
Q 353 884 353 1716 
Q 353 2575 817 3079 
Q 1281 3584 2069 3584 
Q 2775 3584 3186 3129 
Q 3597 2675 3597 1894 
z
M 3022 2063 
Q 3016 2534 2758 2815 
Q 2500 3097 2075 3097 
Q 1594 3097 1305 2825 
Q 1016 2553 972 2059 
L 3022 2063 
z
" transform="scale(0.015625)"/>
       <path id="DejaVuSans-74" d="M 1172 4494 
L 1172 3500 
L 2356 3500 
L 2356 3053 
L 1172 3053 
L 1172 1153 
Q 1172 725 1289 603 
Q 1406 481 1766 481 
L 2356 481 
L 2356 0 
L 1766 0 
Q 1100 0 847 248 
Q 594 497 594 1153 
L 594 3053 
L 172 3053 
L 172 3500 
L 594 3500 
L 594 4494 
L 1172 4494 
z
" transform="scale(0.015625)"/>
       <path id="DejaVuSans-72" d="M 2631 2963 
Q 2534 3019 2420 3045 
Q 2306 3072 2169 3072 
Q 1681 3072 1420 2755 
Q 1159 2438 1159 1844 
L 1159 0 
L 581 0 
L 581 3500 
L 1159 3500 
L 1159 2956 
Q 1341 3275 1631 3429 
Q 1922 3584 2338 3584 
Q 2397 3584 2469 3576 
Q 2541 3569 2628 3553 
L 2631 2963 
z
" transform="scale(0.015625)"/>
       <path id="DejaVuSans-73" d="M 2834 3397 
L 2834 2853 
Q 2591 2978 2328 3040 
Q 2066 3103 1784 3103 
Q 1356 3103 1142 2972 
Q 928 2841 928 2578 
Q 928 2378 1081 2264 
Q 1234 2150 1697 2047 
L 1894 2003 
Q 2506 1872 2764 1633 
Q 3022 1394 3022 966 
Q 3022 478 2636 193 
Q 2250 -91 1575 -91 
Q 1294 -91 989 -36 
Q 684 19 347 128 
L 347 722 
Q 666 556 975 473 
Q 1284 391 1588 391 
Q 1994 391 2212 530 
Q 2431 669 2431 922 
Q 2431 1156 2273 1281 
Q 2116 1406 1581 1522 
L 1381 1569 
Q 847 1681 609 1914 
Q 372 2147 372 2553 
Q 372 3047 722 3315 
Q 1072 3584 1716 3584 
Q 2034 3584 2315 3537 
Q 2597 3491 2834 3397 
z
" transform="scale(0.015625)"/>
      </defs>
      <use xlink:href="#DejaVuSans-4d"/>
      <use xlink:href="#DejaVuSans-65" x="86.279297"/>
      <use xlink:href="#DejaVuSans-74" x="147.802734"/>
      <use xlink:href="#DejaVuSans-65" x="187.011719"/>
      <use xlink:href="#DejaVuSans-72" x="248.535156"/>
      <use xlink:href="#DejaVuSans-73" x="289.648438"/>
     </g>
    </g>
   </g>
   <g id="line2d_12">
    <path d="M 115.363636 74.606421 
L 116.213814 75.33682 
L 116.780599 75.80109 
L 117.630777 76.44796 
L 118.197562 76.914173 
L 118.764347 77.908759 
L 119.04774 77.352412 
L 119.614525 77.94761 
L 119.897918 111.507142 
L 120.18131 112.509499 
L 120.464703 78.569227 
L 120.748095 78.68578 
L 121.031488 90.659672 
L 121.314881 90.815076 
L 121.598273 90.675212 
L 121.881666 113.954758 
L 122.165058 79.711448 
L 122.448451 79.80469 
L 122.731844 115.073668 
L 123.015236 80.189316 
L 123.582021 80.480698 
L 125.565769 81.630689 
L 125.849162 82.432963 
L 126.132555 81.94344 
L 126.982732 82.41548 
L 127.266125 82.240651 
L 127.549518 83.359561 
L 127.83291 83.052638 
L 128.116303 83.063516 
L 128.399695 72.87211 
L 128.683088 73.817744 
L 128.96648 72.43387 
L 129.249873 73.048494 
L 129.533266 69.953619 
L 129.816658 69.687878 
L 130.100051 67.939581 
L 130.950229 66.148548 
L 131.517014 65.547911 
L 132.083799 65.212238 
L 132.367191 65.095685 
L 133.217369 65.226224 
L 134.634332 65.790342 
L 135.767902 66.503647 
L 136.334688 66.899927 
L 136.61808 67.860325 
L 136.901473 68.199883 
L 137.184865 67.760867 
L 137.468258 68.811399 
L 137.751651 68.004851 
L 138.035043 69.093457 
L 138.318436 69.226328 
L 138.601828 68.689407 
L 140.585576 70.381369 
L 140.868969 70.85341 
L 141.152362 70.841754 
L 141.435754 71.081854 
L 142.002539 74.280072 
L 142.285932 75.134795 
L 142.569325 72.881434 
L 142.852717 72.158805 
L 143.13611 72.3686 
L 143.702895 74.699663 
L 143.986287 73.102885 
L 144.26968 73.254404 
L 144.553073 80.737115 
L 144.836465 73.720617 
L 146.820213 75.277767 
L 147.103606 75.360131 
L 147.386998 75.573812 
L 147.670391 82.312914 
L 147.953784 75.847711 
L 148.520569 76.079652 
L 149.087354 76.517892 
L 149.370747 76.203198 
L 149.654139 85.212756 
L 149.937532 82.112442 
L 150.220924 74.311153 
L 150.504317 74.670525 
L 150.787709 72.657652 
L 151.071102 73.087345 
L 151.637887 64.190456 
L 151.92128 63.35205 
L 152.204672 63.412658 
L 152.488065 62.570367 
L 152.771458 60.686091 
L 153.338243 61.067609 
L 153.905028 61.738955 
L 154.188421 64.55954 
L 154.471813 65.473317 
L 154.755206 64.439102 
L 155.038598 67.333505 
L 155.321991 66.419728 
L 155.605383 62.826784 
L 155.888776 63.654311 
L 156.172169 65.035077 
L 156.455561 63.976775 
L 156.738954 64.217651 
L 157.022346 64.102652 
L 157.305739 64.423562 
L 157.589132 66.33581 
L 157.872524 63.576609 
L 159.57288 64.121301 
L 160.139665 64.475622 
L 160.70645 64.760012 
L 161.556628 65.226224 
L 163.823768 66.671483 
L 164.390554 67.878974 
L 164.673946 67.832352 
L 165.240731 70.340576 
L 165.524124 67.953568 
L 165.807517 70.056186 
L 166.090909 68.957479 
L 166.374302 71.002598 
L 166.657694 71.253575 
L 166.941087 69.38484 
L 167.224479 69.291598 
L 167.507872 68.475726 
L 167.791265 69.627271 
L 168.074657 68.499036 
L 168.35805 69.788891 
L 168.641442 65.981489 
L 168.924835 65.34744 
L 169.49162 63.79029 
L 169.775013 64.054477 
L 170.058405 65.822976 
L 170.341798 64.983017 
L 170.62519 65.207576 
L 170.908583 62.997729 
L 171.475368 63.199754 
L 172.325546 63.763094 
L 172.608939 63.869546 
L 172.892331 63.844681 
L 173.175724 64.209881 
L 173.459116 63.289111 
L 173.742509 63.258808 
L 174.876079 63.920829 
L 176.00965 64.330319 
L 176.576435 64.796532 
L 177.426612 65.26663 
L 177.993398 65.659802 
L 178.27679 66.932562 
L 178.560183 66.03588 
L 178.843575 67.30087 
L 179.126968 66.412735 
L 179.410361 67.67384 
L 179.977146 66.955873 
L 181.110716 67.89296 
L 181.394109 68.065459 
L 181.677501 68.429105 
L 181.960894 68.475726 
L 182.527679 68.899979 
L 182.811072 67.543301 
L 183.094464 69.300922 
L 183.661249 69.854938 
L 184.228035 70.685573 
L 184.511427 70.405846 
L 184.79482 72.574511 
L 185.078212 73.76141 
L 185.361605 73.790549 
L 185.644997 73.077243 
L 185.92839 74.532604 
L 186.211783 73.883791 
L 186.495175 72.811502 
L 186.778568 72.780421 
L 187.06196 73.030622 
L 187.345353 72.636673 
L 187.628746 73.708961 
L 188.478923 73.386498 
L 189.045708 73.627374 
L 189.329101 74.012 
L 189.895886 74.284734 
L 191.312849 75.266888 
L 191.596242 76.022541 
L 191.879634 75.683371 
L 193.013205 76.471271 
L 193.296597 76.797619 
L 193.863382 77.082009 
L 194.71356 77.767342 
L 194.996953 77.875736 
L 195.280345 78.110785 
L 195.563738 94.968253 
L 196.130523 95.411155 
L 196.413916 80.504009 
L 196.697308 78.988818 
L 196.980701 79.082061 
L 197.830879 79.489997 
L 198.681056 80.15435 
L 199.247842 81.27326 
L 199.531234 80.504009 
L 200.098019 80.830358 
L 200.948197 81.319881 
L 201.23159 81.518021 
L 201.514982 81.879336 
L 202.36516 81.786094 
L 203.49873 82.04251 
L 203.782123 82.59031 
L 205.482478 86.902776 
L 206.899441 86.891121 
L 207.466227 87.808005 
L 207.749619 87.178618 
L 208.033012 84.000603 
L 208.599797 84.684381 
L 208.883189 84.358033 
L 209.166582 84.653301 
L 209.449975 84.583369 
L 209.733367 85.183617 
L 210.01676 87.738074 
L 210.300152 84.933028 
L 210.583545 84.793164 
L 210.866938 84.956339 
L 211.15033 87.481657 
L 211.433723 88.592796 
L 211.717115 85.240728 
L 212.000508 85.613698 
L 212.2839 85.107858 
L 212.567293 83.59966 
L 213.134078 61.692333 
L 213.417471 60.301466 
L 213.700863 59.757551 
L 214.834434 59.757551 
L 215.117826 60.400925 
L 215.401219 60.0839 
L 215.684611 62.088614 
L 215.968004 59.757551 
L 217.951752 59.757551 
L 218.518537 61.813549 
L 219.085322 59.757551 
L 220.785678 59.757551 
L 221.919248 61.645712 
L 222.202641 67.850224 
L 222.486034 70.578344 
L 222.769426 70.989388 
L 223.052819 69.422137 
L 223.336211 72.434647 
L 223.619604 66.825333 
L 223.902996 63.669075 
L 224.186389 63.79029 
L 224.469782 64.936396 
L 224.753174 64.051369 
L 225.603352 64.40569 
L 225.886745 63.836911 
L 226.170137 63.762317 
L 226.45353 63.207524 
L 227.5871 63.646541 
L 229.287456 64.056031 
L 230.704418 64.310894 
L 233.254952 65.529263 
L 233.538344 65.678451 
L 233.821737 66.335033 
L 234.10513 65.990813 
L 234.671915 66.404965 
L 235.522092 67.044453 
L 235.805485 68.098871 
L 236.088878 67.394113 
L 236.37227 65.986151 
L 236.655663 67.993973 
L 237.222448 68.182012 
L 237.505841 69.389502 
L 237.789233 68.790419 
L 238.072626 68.825385 
L 239.206196 69.7345 
L 239.489589 71.291649 
L 239.772981 71.109827 
L 240.056374 71.548843 
L 240.623159 73.944399 
L 240.906552 74.447131 
L 241.189944 72.531775 
L 241.473337 71.471141 
L 242.323514 72.172791 
L 242.606907 72.764881 
L 242.8903 72.582281 
L 243.173692 72.955251 
L 243.457085 73.972372 
L 243.740477 73.231094 
L 244.02387 73.285485 
L 244.307263 73.613388 
L 244.874048 73.785886 
L 245.440833 74.238113 
L 245.724225 74.830203 
L 246.007618 74.681015 
L 246.291011 75.546616 
L 246.574403 78.13798 
L 246.857796 77.228866 
L 247.141188 78.252203 
L 247.424581 77.69741 
L 247.707974 78.936369 
L 248.274759 76.199313 
L 248.841544 76.611134 
L 249.691722 77.007415 
L 249.975114 77.147279 
L 250.258507 93.569615 
L 250.541899 77.660113 
L 250.825292 77.648457 
L 251.67547 78.149636 
L 251.958862 78.056393 
L 252.242255 77.799976 
L 253.94261 77.683423 
L 254.226003 77.91653 
L 254.509396 77.858253 
L 254.792788 94.47873 
L 255.076181 77.805804 
L 255.359573 77.768896 
L 255.642966 78.003944 
L 255.926359 77.893219 
L 256.493144 78.091359 
L 256.776536 78.021427 
L 257.059929 78.872265 
L 258.193499 74.361659 
L 259.043677 82.485412 
L 259.893855 79.43172 
L 260.177247 80.674954 
L 260.46064 80.659413 
L 260.744033 79.559929 
L 261.310818 79.338478 
L 261.59421 80.200971 
L 262.160995 80.636103 
L 262.444388 80.682724 
L 262.727781 81.080947 
L 263.011173 80.993532 
L 263.294566 81.071234 
L 263.577958 81.016843 
L 263.861351 81.319881 
L 264.144744 81.451975 
L 264.428136 81.436434 
L 265.561706 81.821059 
L 265.845099 81.786094 
L 266.128492 94.902206 
L 266.411884 91.168621 
L 266.978669 112.31369 
L 267.262062 104.956856 
L 267.545455 113.026995 
L 267.828847 107.750246 
L 268.11224 83.930671 
L 268.679025 82.030855 
L 268.962417 81.477228 
L 269.24581 82.520378 
L 269.529203 74.22568 
L 269.812595 82.951625 
L 271.512951 84.443505 
L 271.796343 84.171548 
L 272.079736 123.465494 
L 272.929914 123.892855 
L 273.496699 84.513437 
L 274.913662 100.908578 
L 275.197054 84.723232 
L 275.76384 84.350262 
L 276.047232 85.453632 
L 276.330625 84.892235 
L 276.614017 84.606679 
L 277.180802 84.839786 
L 282.281869 85.760555 
L 282.565262 83.895705 
L 282.848654 83.208042 
L 283.132047 84.490126 
L 283.698832 84.886407 
L 284.832402 84.699922 
L 289.933469 85.17779 
L 290.216861 84.816475 
L 291.067039 85.119513 
L 295.60132 84.863096 
L 296.734891 85.166134 
L 297.585069 84.699922 
L 297.868461 84.839786 
L 298.435246 84.536747 
L 298.718639 83.953982 
L 299.285424 83.196386 
L 299.568817 83.557701 
L 299.852209 82.462102 
L 300.135602 83.592667 
L 300.418994 83.487769 
L 300.702387 83.083718 
L 300.98578 83.31294 
L 301.269172 82.96328 
L 301.552565 82.858382 
L 301.835957 82.905004 
L 302.11935 82.524263 
L 302.686135 82.76514 
L 302.969528 82.330008 
L 303.536313 82.39994 
L 304.386491 80.270903 
L 306.370239 78.499295 
L 306.937024 78.126325 
L 307.503809 79.000474 
L 307.787202 77.823287 
L 308.070594 78.365259 
L 308.637379 78.86061 
L 308.920772 77.869908 
L 309.77095 77.799976 
L 310.054342 77.986461 
L 310.90452 77.621262 
L 311.187913 77.205555 
L 311.471305 78.149636 
L 313.171661 78.790678 
L 314.021838 276.872727 
L 315.722194 79.711448 
L 316.288979 80.189316 
L 317.139157 80.305869 
L 317.705942 80.597252 
L 318.272727 59.757551 
L 318.55612 80.830358 
L 318.839512 83.88405 
L 319.122905 83.627633 
L 320.256475 83.88405 
L 320.823261 81.110085 
L 321.956831 83.324595 
L 322.523616 83.51108 
L 322.807009 83.464459 
L 323.373794 83.650944 
L 323.657186 83.89959 
L 323.940579 82.357204 
L 324.790757 82.905004 
L 325.074149 83.650944 
L 325.357542 75.375671 
L 325.640934 83.293514 
L 325.924327 83.091489 
L 327.057897 83.499425 
L 327.34129 92.963539 
L 327.624683 83.400354 
L 327.908075 107.040826 
L 328.191468 93.150024 
L 328.758253 106.705153 
L 329.041646 91.045074 
L 329.325038 123.409548 
L 329.608431 89.913732 
L 329.891823 83.359561 
L 330.458608 84.280331 
L 330.742001 84.24925 
L 331.592179 59.757551 
L 331.875571 84.490126 
L 332.442357 59.757551 
L 332.725749 84.420194 
L 333.292534 84.25702 
L 334.142712 84.443505 
L 334.709497 114.706526 
L 334.99289 84.466816 
L 336.693245 84.793164 
L 336.976638 84.49945 
L 337.26003 84.501782 
L 338.393601 59.757551 
L 338.676993 59.757551 
L 339.243779 84.793164 
L 343.494667 75.173646 
L 344.061453 73.248577 
L 344.344845 75.277767 
L 344.91163 72.028265 
L 345.195023 72.586166 
L 345.478415 71.231042 
L 345.761808 68.635015 
L 346.045201 71.361581 
L 346.328593 72.465728 
L 346.611986 70.708884 
L 346.895378 72.997987 
L 347.178771 74.149532 
L 347.462164 71.117597 
L 347.745556 72.611031 
L 348.028949 72.19144 
L 348.312341 73.883791 
L 348.595734 74.387301 
L 348.879126 73.351532 
L 349.162519 71.077192 
L 349.445912 71.533303 
L 349.729304 70.760167 
L 350.012697 70.771822 
L 350.296089 71.398878 
L 350.579482 71.082631 
L 351.146267 71.22638 
L 351.42966 69.01187 
L 351.713052 71.268339 
L 352.279837 71.454824 
L 352.56323 71.564384 
L 352.846623 71.548066 
L 353.980193 72.03759 
L 354.546978 72.252047 
L 355.113763 72.399681 
L 355.963941 72.886096 
L 356.530726 72.858124 
L 357.664297 73.495281 
L 357.947689 74.410611 
L 358.231082 73.697306 
L 358.797867 73.883791 
L 359.08126 69.213896 
L 359.364652 74.029483 
L 359.648045 74.932769 
L 359.931437 74.289396 
L 360.21483 74.755609 
L 360.498222 74.918783 
L 360.781615 74.645272 
L 361.065008 74.592434 
L 361.3484 74.719089 
L 361.631793 78.345445 
L 361.915185 74.991046 
L 362.198578 74.858175 
L 362.481971 75.212497 
L 364.465719 75.841884 
L 364.749111 76.331407 
L 365.032504 70.701891 
L 365.315896 76.160462 
L 365.599289 76.410663 
L 365.882682 70.806788 
L 366.166074 76.44796 
L 366.449467 76.354718 
L 367.016252 76.750998 
L 367.299644 92.858641 
L 367.583037 76.774309 
L 367.86643 78.988818 
L 368.149822 76.587824 
L 368.433215 77.100658 
L 368.716607 76.99576 
L 369.283393 81.506366 
L 369.566785 77.108428 
L 370.13357 77.590181 
L 370.983748 77.823287 
L 371.267141 78.177609 
L 371.833926 78.153521 
L 372.117318 78.406053 
L 372.684104 78.322134 
L 372.967496 74.695001 
L 373.250889 78.390512 
L 373.817674 78.755712 
L 374.101067 78.634497 
L 374.384459 78.825644 
L 375.234637 78.932873 
L 375.801422 79.396754 
L 376.368207 79.24135 
L 376.6516 79.43172 
L 377.218385 79.450369 
L 377.501778 79.451146 
L 378.068563 79.890163 
L 378.91874 79.80469 
L 379.202133 97.520766 
L 379.485526 79.874622 
L 379.768918 79.563814 
L 380.052311 80.014486 
L 380.335703 79.78138 
L 380.902489 80.839682 
L 381.185881 79.97175 
L 381.752666 80.472928 
L 382.036059 80.261579 
L 382.319451 80.648535 
L 382.602844 80.426307 
L 382.886237 80.755764 
L 383.169629 80.760426 
L 383.453022 81.611264 
L 383.736414 81.117856 
L 384.019807 80.911945 
L 384.3032 80.928262 
L 384.586592 81.079005 
L 384.869985 81.09843 
L 385.153377 81.902647 
L 385.43677 80.783737 
L 386.003555 82.601965 
L 386.853733 80.911945 
L 387.420518 81.357178 
L 387.703911 82.205685 
L 387.987303 81.603494 
L 388.270696 81.995889 
L 388.554088 81.29657 
L 388.837481 82.340886 
L 389.120874 81.894876 
L 389.404266 81.910417 
L 389.971051 82.147408 
L 390.254444 83.429493 
L 390.537836 82.561172 
L 390.821229 82.41548 
L 391.104622 81.949268 
L 391.388014 82.164891 
L 391.954799 81.990062 
L 392.521585 82.252306 
L 392.804977 82.023862 
L 393.08837 82.333893 
L 393.371762 82.177712 
L 393.655155 82.40771 
L 393.938547 82.345549 
L 394.22194 82.058051 
L 395.072118 82.555344 
L 395.638903 82.625276 
L 395.922296 82.135753 
L 396.205688 82.96328 
L 396.489081 82.709194 
L 396.772473 82.784565 
L 397.055866 85.212756 
L 398.189436 83.152096 
L 398.472829 83.016895 
L 398.756221 83.083718 
L 399.039614 82.870038 
L 399.323007 83.079833 
L 399.606399 82.923652 
L 400.456577 82.823416 
L 400.73997 82.774464 
L 401.023362 82.928314 
L 401.306755 82.881693 
L 401.590147 83.063516 
L 401.87354 82.77291 
L 402.156932 84.014589 
L 402.723718 83.856077 
L 403.573895 84.833958 
L 403.857288 84.084521 
L 404.140681 82.69987 
L 404.990858 83.091489 
L 405.274251 83.635403 
L 405.557643 83.417837 
L 406.124429 83.394527 
L 406.974606 83.646282 
L 407.257999 83.347906 
L 407.541392 82.353319 
L 408.108177 122.183409 
L 408.391569 82.965611 
L 408.674962 97.217728 
L 408.958354 118.057428 
L 409.241747 84.43962 
L 409.52514 83.152096 
L 409.808532 82.98426 
L 410.091925 102.983223 
L 410.375317 85.278025 
L 410.65871 92.247903 
L 410.942103 84.210399 
L 411.225495 83.095374 
L 411.508888 83.086826 
L 411.79228 83.57635 
L 412.075673 85.115628 
L 412.642458 85.10203 
L 413.209243 82.671897 
L 413.776028 83.942326 
L 414.059421 84.009927 
L 414.626206 83.301284 
L 414.909599 86.156836 
L 415.192991 84.606679 
L 415.476384 84.163777 
L 416.043169 85.294343 
L 416.326562 84.758198 
L 417.176739 84.717405 
L 417.460132 85.055409 
L 417.743525 85.142824 
L 418.026917 85.026271 
L 418.31031 84.361918 
L 418.593702 84.32229 
L 418.877095 83.991279 
L 419.160488 84.624162 
L 419.44388 84.777624 
L 420.010665 84.358033 
L 420.294058 84.606679 
L 420.57745 71.890733 
L 420.860843 85.539104 
L 421.144236 84.886407 
L 421.427628 85.17779 
L 421.711021 85.68363 
L 421.994413 85.753562 
L 422.561199 85.562415 
L 423.127984 85.725589 
L 423.411376 86.086904 
L 424.261554 85.577955 
L 424.544947 85.743072 
L 424.828339 86.698808 
L 425.111732 84.762084 
L 425.395124 85.674306 
L 425.678517 85.154479 
L 425.96191 85.096203 
L 426.245302 84.713908 
L 426.528695 84.82813 
L 426.812087 84.727895 
L 427.09548 84.746543 
L 427.662265 85.469173 
L 429.079228 86.448219 
L 429.362621 86.092732 
L 429.646013 86.66967 
L 432.479939 85.305998 
L 440.414931 84.816475 
L 440.698324 84.381343 
L 440.981717 85.119513 
L 441.265109 85.014615 
L 441.548502 84.711577 
L 443.248857 84.921373 
L 443.53225 86.611393 
L 443.815642 86.389942 
L 444.949213 87.093146 
L 445.799391 86.774568 
L 447.216353 85.243836 
L 447.499746 84.25702 
L 447.783139 84.350262 
L 448.633316 82.928314 
L 448.916709 84.023914 
L 449.483494 81.685081 
L 450.333672 74.322808 
L 450.617064 71.634316 
L 451.18385 64.093328 
L 451.750635 60.871799 
L 452.034027 60.041164 
L 452.31742 59.757551 
L 452.884205 60.750584 
L 453.167598 62.391652 
L 453.45099 61.92544 
L 453.734383 65.060719 
L 454.017776 65.035077 
L 454.301168 63.104957 
L 454.584561 63.223065 
L 454.867953 63.743669 
L 455.718131 64.299239 
L 456.001524 63.869546 
L 456.284916 63.156241 
L 457.135094 63.585156 
L 459.685627 64.159375 
L 460.535805 64.396366 
L 462.23616 65.258859 
L 464.786694 67.011818 
L 465.070086 67.652084 
L 465.353479 67.436072 
L 466.203657 68.063905 
L 467.337227 68.918628 
L 467.62062 71.405094 
L 467.904012 71.263677 
L 468.187405 69.493623 
L 468.470797 69.729837 
L 468.75419 70.872058 
L 469.037583 70.69412 
L 469.320975 70.354562 
L 469.88776 74.447908 
L 470.171153 74.241221 
L 470.454545 75.813911 
L 470.737938 73.66234 
L 471.021331 74.270748 
L 471.871508 72.121508 
L 472.154901 72.986332 
L 472.438294 72.570626 
L 474.422042 73.903217 
L 475.272219 74.238113 
L 475.555612 76.393569 
L 475.839005 74.769595 
L 476.40579 74.95608 
L 476.972575 75.499995 
L 478.389538 76.109956 
L 478.67293 78.017542 
L 478.956323 76.517892 
L 479.523108 76.871436 
L 480.089893 77.25917 
L 480.373286 77.287143 
L 481.223464 77.776666 
L 481.790249 77.877678 
L 482.073641 94.793423 
L 482.357034 78.277844 
L 482.640427 95.131427 
L 482.923819 78.499295 
L 483.207212 79.012129 
L 483.490604 78.382742 
L 483.773997 78.965508 
L 484.05739 78.639159 
L 484.340782 79.338478 
L 484.624175 79.227752 
L 484.907567 88.167378 
L 485.19096 79.688137 
L 485.474352 80.047121 
L 485.757745 79.758069 
L 486.041138 79.820231 
L 486.32453 79.082061 
L 486.607923 80.305869 
L 486.891315 80.309754 
L 487.174708 80.519549 
L 487.458101 80.513333 
L 487.741493 81.185845 
L 488.024886 80.737115 
L 488.308278 80.706034 
L 488.591671 81.349019 
L 488.875063 81.523849 
L 489.158456 81.261604 
L 489.725241 81.343192 
L 490.008634 82.275617 
L 490.292026 81.378158 
L 490.858812 81.506366 
L 491.142204 81.483055 
L 491.425597 82.205685 
L 491.708989 81.887106 
L 491.992382 81.914302 
L 492.559167 82.135753 
L 492.84256 82.228995 
L 493.409345 82.718519 
L 494.542915 82.835072 
L 494.826308 83.037097 
L 495.1097 83.635403 
L 495.393093 83.223582 
L 495.676486 83.277974 
L 496.243271 83.208042 
L 497.376841 83.277974 
L 498.227019 82.438791 
L 498.510411 83.464459 
L 499.077197 82.928314 
L 499.360589 82.508723 
L 500.494159 82.462102 
L 501.060945 83.215812 
L 501.344337 82.532034 
L 501.62773 83.800132 
L 502.194515 76.098301 
L 503.328085 63.304652 
L 503.611478 61.303823 
L 503.89487 60.23775 
L 504.178263 59.757551 
L 504.461656 59.975117 
L 505.878619 61.846184 
L 506.162011 65.34744 
L 506.445404 62.446044 
L 506.728796 62.787933 
L 507.012189 62.519861 
L 507.295582 63.310091 
L 507.578974 64.606162 
L 507.862367 63.519887 
L 508.145759 64.893659 
L 508.429152 67.170331 
L 508.712544 64.046707 
L 509.27933 64.181908 
L 509.562722 63.611575 
L 509.846115 63.394009 
L 510.4129 66.321824 
L 510.696293 64.279813 
L 510.979685 63.081647 
L 511.54647 63.300767 
L 516.364144 63.766979 
L 525.149314 65.43602 
L 525.432707 64.928625 
L 525.999492 65.014098 
L 526.282885 65.981489 
L 526.566277 65.371527 
L 526.84967 65.130651 
L 527.416455 65.221562 
L 528.266633 65.437574 
L 528.550025 66.023448 
L 528.833418 65.468655 
L 530.250381 65.711085 
L 530.533773 66.853306 
L 530.817166 66.680808 
L 531.100559 65.822976 
L 531.383951 67.418977 
L 531.667344 65.850949 
L 532.517522 65.993144 
L 532.800914 66.023448 
L 533.084307 66.94888 
L 533.367699 66.079393 
L 533.934485 66.117467 
L 534.217877 66.70878 
L 534.50127 66.206825 
L 538.185373 66.603105 
L 538.752158 67.543301 
L 539.035551 67.207628 
L 539.318944 66.692463 
L 540.452514 66.806685 
L 541.302692 66.902258 
L 541.586084 68.060797 
L 541.869477 67.038237 
L 542.719655 67.044453 
L 543.003047 67.105061 
L 543.28644 68.009513 
L 543.569832 67.174993 
L 543.853225 67.415092 
L 544.136618 68.247282 
L 544.42001 67.465599 
L 544.703403 67.729786 
L 544.986795 67.51222 
L 545.270188 68.345186 
L 545.55358 67.784177 
L 545.836973 68.662211 
L 546.120366 68.438429 
L 546.403758 68.025054 
L 546.687151 68.466402 
L 546.970543 67.453943 
L 550.087862 67.838569 
L 550.371254 68.382483 
L 550.654647 70.383312 
L 550.93804 70.419832 
L 551.221432 71.521648 
L 551.504825 69.487407 
L 551.788217 70.962193 
L 552.07161 69.818418 
L 552.355003 68.028162 
L 554.338751 68.199883 
L 554.622143 69.203017 
L 554.905536 69.074032 
L 555.188928 69.282273 
L 555.472321 68.26593 
L 555.755714 68.499036 
L 556.039106 69.342881 
L 556.605891 68.340524 
L 556.889284 69.241091 
L 557.172676 69.767134 
L 557.456069 68.417449 
L 557.739462 71.38023 
L 558.022854 70.169631 
L 558.589639 69.748486 
L 558.873032 71.568269 
L 559.156425 71.07253 
L 559.439817 68.312551 
L 559.72321 69.268287 
L 560.006602 68.685521 
L 560.289995 67.589922 
L 560.573388 68.335862 
L 560.85678 67.044453 
L 561.706958 66.293851 
L 561.99035 66.995501 
L 562.273743 65.869598 
L 562.557136 65.686221 
L 563.407313 63.557184 
L 563.974099 63.118944 
L 564.257491 63.258031 
L 564.540884 64.060693 
L 564.824276 63.986099 
L 565.107669 63.160903 
L 565.391061 63.473265 
L 565.674454 63.273571 
L 565.957847 63.216848 
L 566.241239 63.502792 
L 566.524632 63.990761 
L 566.808024 63.596035 
L 567.091417 64.084004 
L 567.37481 62.958877 
L 568.50838 63.361374 
L 570.775521 63.603805 
L 581.827831 64.571196 
L 582.394617 64.687749 
L 584.94515 64.928625 
L 585.795328 65.049064 
L 587.495683 65.173387 
L 588.912646 65.338115 
L 589.196039 66.595335 
L 589.762824 65.384737 
L 594.013713 65.813652 
L 594.297105 66.76628 
L 594.580498 65.860273 
L 595.147283 65.841625 
L 595.430675 66.785705 
L 595.714068 68.116742 
L 595.997461 66.461688 
L 596.280853 68.211539 
L 596.564246 65.89757 
L 596.847638 66.40108 
L 597.131031 65.701761 
L 597.414424 65.332676 
L 597.697816 65.697099 
L 597.981209 63.875762 
L 598.547994 63.390124 
L 598.831386 63.403333 
L 599.114779 64.056031 
L 599.398172 63.611575 
L 599.681564 63.766979 
L 600.248349 63.477927 
L 600.531742 63.413435 
L 600.815135 65.74372 
L 601.098527 63.397894 
L 602.51549 63.619345 
L 602.798883 63.832249 
L 603.082275 63.867992 
L 603.365668 63.305429 
L 603.64906 63.897519 
L 603.932453 63.269686 
L 604.215846 63.763094 
L 604.499238 63.641102 
L 604.782631 63.818263 
L 605.066023 63.79029 
L 605.349416 64.088666 
L 605.632809 64.089443 
L 605.916201 63.403333 
L 606.199594 63.44063 
L 606.482986 63.226173 
L 606.766379 64.377718 
L 607.049771 66.886718 
L 607.333164 64.038937 
L 607.616557 62.983742 
L 609.883697 63.473265 
L 611.30066 63.471711 
L 611.867445 63.42509 
L 620.369223 63.836911 
L 620.652616 63.720358 
L 621.219401 63.844681 
L 621.502793 63.780966 
L 622.636364 64.052534 
L 622.636364 64.052534 
" clip-path="url(#pe00978252c)" style="fill: none; stroke: #1f77b4; stroke-width: 1.5; stroke-linecap: square"/>
   </g>
   <g id="line2d_13">
    <path d="M 115.363636 77.984273 
L 115.930422 78.515536 
L 116.213814 76.063335 
L 118.197562 78.125935 
L 119.897918 79.568987 
L 120.748095 79.715891 
L 121.881666 80.492268 
L 122.731844 81.090265 
L 123.015236 90.815076 
L 126.415947 90.215234 
L 128.399695 89.945333 
L 128.683088 89.658565 
L 129.533266 87.43345 
L 129.816658 69.953619 
L 130.950229 71.620043 
L 132.933977 74.417322 
L 133.500762 74.875603 
L 134.067547 75.221279 
L 135.48451 76.574193 
L 136.334688 77.457648 
L 136.61808 66.899927 
L 138.318436 69.998733 
L 140.018791 72.657626 
L 141.719147 74.935679 
L 143.13611 76.582726 
L 143.419502 72.3686 
L 145.119858 74.688052 
L 146.820213 76.675275 
L 148.520569 78.383675 
L 148.803961 78.563923 
L 149.087354 78.418637 
L 149.370747 78.000581 
L 149.654139 77.270171 
L 149.937532 76.021168 
L 150.220924 63.394009 
L 150.504317 63.305424 
L 150.787709 62.264585 
L 151.637887 54.819399 
L 151.92128 54.327273 
L 152.204672 54.543118 
L 152.771458 55.781896 
L 154.188421 59.495497 
L 154.755206 60.457893 
L 155.321991 60.979298 
L 156.172169 61.572476 
L 156.738954 62.538472 
L 157.022346 64.217651 
L 159.006094 68.220587 
L 160.70645 71.134172 
L 162.406805 73.630439 
L 163.540376 75.092651 
L 163.823768 66.490437 
L 165.524124 69.651859 
L 167.224479 72.360612 
L 168.074657 73.496532 
L 168.35805 73.20084 
L 169.208228 69.779254 
L 169.49162 69.572347 
L 169.775013 69.704378 
L 170.341798 70.40943 
L 170.62519 64.983017 
L 172.608939 68.860971 
L 174.309294 71.68283 
L 176.00965 74.10051 
L 177.14322 75.516688 
L 177.426612 65.091023 
L 179.126968 68.452892 
L 180.827324 71.333218 
L 182.527679 73.800974 
L 183.944642 75.585179 
L 184.228035 70.212367 
L 185.92839 72.840671 
L 187.628746 75.092505 
L 189.895886 77.601398 
L 190.746064 78.416681 
L 191.029457 74.822044 
L 192.729812 76.790072 
L 194.71356 78.732746 
L 196.697308 80.354821 
L 196.980701 80.563576 
L 197.830879 80.504009 
L 200.381412 82.17169 
L 202.36516 83.226236 
L 203.782123 83.871162 
L 205.482478 83.034493 
L 208.599797 84.398602 
L 211.433723 85.344369 
L 212.567293 85.583411 
L 212.850686 83.969039 
L 213.417471 75.514301 
L 213.700863 73.29706 
L 213.984256 72.513206 
L 214.267649 72.421867 
L 214.834434 72.954174 
L 216.818182 75.444326 
L 217.101574 75.24945 
L 217.66836 73.507168 
L 217.951752 73.210446 
L 218.235145 73.291128 
L 218.80193 73.876614 
L 221.352463 76.888284 
L 223.052819 78.470919 
L 225.036567 80.134171 
L 227.020315 81.524966 
L 229.287456 82.835693 
L 231.554596 83.902272 
L 234.10513 84.866624 
L 236.939055 85.705924 
L 238.356018 86.051118 
L 238.639411 69.042951 
L 240.339766 71.838758 
L 242.040122 74.234103 
L 243.740477 76.286346 
L 245.15744 77.770131 
L 245.440833 74.018993 
L 247.141188 76.102047 
L 249.124937 78.158262 
L 250.825292 79.622728 
L 251.392077 79.506271 
L 251.958862 77.366729 
L 252.242255 78.056393 
L 252.525648 78.185059 
L 255.926359 80.869857 
L 258.193499 82.302609 
L 259.043677 78.091359 
L 261.310818 80.041659 
L 263.294566 81.447724 
L 265.561706 82.772838 
L 267.828847 83.851125 
L 269.812595 84.628514 
L 273.496699 85.748015 
L 277.180802 86.548875 
L 284.832402 87.557833 
L 289.933469 85.419253 
L 291.067039 85.726993 
L 295.60132 85.499186 
L 297.585069 86.015443 
L 297.868461 85.949982 
L 298.718639 84.177742 
L 299.285424 83.829248 
L 300.135602 84.060148 
L 303.25292 85.164668 
L 306.370239 86.003053 
L 310.054342 86.731322 
L 314.021838 87.285611 
L 319.406298 87.779586 
L 326.20772 88.140289 
L 334.99289 88.372117 
L 339.243779 88.432894 
L 343.77806 80.919364 
L 344.061453 80.91737 
L 344.91163 81.362294 
L 347.462164 82.8456 
L 349.729304 83.910333 
L 350.579482 84.256326 
L 350.862875 71.506107 
L 352.56323 73.9491 
L 354.263586 76.042166 
L 356.247334 78.108267 
L 356.530726 72.896975 
L 358.231082 75.140744 
L 359.931437 77.063122 
L 361.915185 78.960735 
L 363.048756 79.900954 
L 363.332148 75.294084 
L 365.032504 77.194499 
L 367.016252 79.07043 
L 368.716607 80.429933 
L 369.850178 81.226274 
L 370.13357 77.054036 
L 372.117318 78.953149 
L 374.101067 80.53885 
L 376.084815 81.862864 
L 376.6516 82.199321 
L 376.934992 79.151993 
L 378.351955 80.276032 
L 378.635348 80.404923 
L 378.91874 80.375834 
L 379.768918 79.885349 
L 380.052311 79.863544 
L 380.619096 79.381173 
L 380.902489 79.165673 
L 381.185881 79.092716 
L 381.752666 79.301591 
L 384.869985 81.35085 
L 386.853733 82.540858 
L 389.404266 83.786978 
L 390.254444 84.142147 
L 390.537836 81.879336 
L 392.804977 83.124054 
L 395.072118 84.136135 
L 395.922296 84.324844 
L 396.489081 84.346102 
L 397.055866 84.511941 
L 398.189436 83.045282 
L 400.73997 84.187003 
L 403.573895 85.180672 
L 403.857288 85.266674 
L 404.140681 84.731003 
L 406.974606 85.601108 
L 410.091925 86.33178 
L 411.79228 86.651189 
L 412.075673 83.095374 
L 412.359066 83.095374 
L 414.909599 84.226727 
L 417.743525 85.211373 
L 418.026917 84.717405 
L 420.860843 85.590599 
L 423.411376 86.205523 
L 427.09548 86.876162 
L 429.646013 87.225017 
L 432.479939 86.851561 
L 440.414931 87.06824 
L 442.39868 87.490582 
L 444.949213 87.758125 
L 445.799391 87.997284 
L 447.216353 86.536602 
L 447.499746 86.587541 
L 447.783139 86.774568 
L 448.916709 86.913756 
L 449.200102 86.697874 
L 449.766887 85.863232 
L 450.617064 85.464222 
L 450.900457 84.963417 
L 451.467242 83.100113 
L 451.750635 64.132179 
L 452.034027 64.106353 
L 452.31742 64.23352 
L 452.884205 64.94733 
L 456.284916 70.956635 
L 457.985272 73.478269 
L 459.685627 75.638775 
L 461.669375 77.771447 
L 463.653123 79.552165 
L 465.070086 80.641195 
L 465.353479 66.913914 
L 467.053834 70.014678 
L 468.75419 72.671298 
L 470.454545 74.947392 
L 471.871508 76.593024 
L 472.154901 74.198485 
L 473.855256 76.255829 
L 475.839005 78.28667 
L 477.822753 79.98236 
L 478.67293 80.620536 
L 478.956323 76.109956 
L 480.940071 78.16487 
L 482.923819 79.880661 
L 484.907567 81.313295 
L 485.474352 81.677355 
L 485.757745 88.167378 
L 492.275775 88.343693 
L 492.559167 81.887106 
L 494.826308 83.130377 
L 497.376841 84.254486 
L 499.077197 84.87146 
L 499.360589 83.254663 
L 500.494159 83.76854 
L 501.911122 83.953372 
L 502.194515 83.613643 
L 503.044693 81.61666 
L 503.611478 80.862484 
L 504.178263 79.589892 
L 504.461656 79.292928 
L 504.745048 79.27263 
L 505.311833 79.584866 
L 505.878619 80.010745 
L 506.162011 61.418434 
L 507.862367 65.303492 
L 509.562722 68.634923 
L 511.263078 71.494733 
L 511.54647 71.856114 
L 511.829863 71.927093 
L 512.396648 71.759632 
L 512.680041 71.944743 
L 512.963433 63.370699 
L 514.663789 66.926012 
L 516.364144 69.99738 
L 525.432707 80.315993 
L 527.699848 81.825367 
L 529.966988 83.058412 
L 532.517522 84.177921 
L 533.084307 84.393972 
L 533.367699 66.022282 
L 535.068055 69.194493 
L 536.76841 71.913023 
L 539.035551 75.050952 
L 539.885729 76.04509 
L 540.169121 66.680808 
L 541.869477 69.760777 
L 543.569832 72.406671 
L 545.270188 74.680011 
L 546.687151 76.320576 
L 546.970543 68.63113 
L 548.670899 71.436011 
L 550.371254 73.845876 
L 552.638395 76.633924 
L 553.488573 77.665421 
L 553.771965 68.079445 
L 555.472321 70.872389 
L 555.755714 71.111371 
L 556.322499 71.327128 
L 556.889284 71.944133 
L 558.306247 73.706039 
L 558.589639 73.714331 
L 558.873032 73.21605 
L 559.439817 71.961866 
L 559.72321 71.872678 
L 560.289995 72.376216 
L 560.573388 68.85802 
L 561.423565 68.08846 
L 561.706958 67.089003 
L 562.557136 63.040736 
L 563.407313 60.845492 
L 563.974099 58.886847 
L 564.257491 58.427208 
L 564.540884 58.487339 
L 565.107669 59.527925 
L 567.091417 64.235248 
L 567.37481 63.976775 
L 569.075165 67.498209 
L 570.775521 70.515064 
L 571.625698 71.759295 
L 573.326054 73.284433 
L 573.892839 74.032604 
L 574.176232 63.8136 
L 575.876587 67.358444 
L 577.576943 70.395535 
L 579.277298 72.997602 
L 580.694261 74.878915 
L 580.977654 64.448815 
L 582.678009 67.902672 
L 584.378365 70.86181 
L 586.07872 73.397089 
L 587.495683 75.230114 
L 587.779076 65.142306 
L 589.479431 68.49683 
L 591.179787 71.370862 
L 592.880142 73.833226 
L 594.297105 75.613959 
L 594.580498 65.783348 
L 595.147283 66.716673 
L 595.430675 66.907233 
L 595.997461 66.791139 
L 596.280853 66.743459 
L 596.564246 66.808708 
L 597.131031 67.335867 
L 597.414424 67.740696 
L 597.697816 67.940244 
L 597.981209 67.552615 
L 598.547994 65.964555 
L 598.831386 65.568315 
L 599.114779 65.587804 
L 599.681564 66.364821 
L 601.098527 68.977561 
L 601.38192 67.310194 
L 603.082275 70.361984 
L 603.365668 70.736092 
L 603.64906 70.869844 
L 604.215846 70.771952 
L 604.782631 70.480802 
L 605.066023 70.530451 
L 605.632809 71.095405 
L 607.899949 74.281288 
L 608.183342 64.038937 
L 609.883697 67.55122 
L 610.733875 69.018871 
L 611.017268 69.268487 
L 611.30066 69.148397 
L 611.867445 68.264938 
L 612.150838 68.173951 
L 612.434231 68.366967 
L 613.284408 69.639986 
L 614.701371 71.912222 
L 614.984764 63.522218 
L 616.685119 67.108371 
L 618.385475 70.18128 
L 620.08583 72.814037 
L 621.502793 74.717538 
L 621.786186 63.867992 
L 622.636364 65.704835 
L 622.636364 65.704835 
" clip-path="url(#pe00978252c)" style="fill: none; stroke: #ff7f0e; stroke-width: 1.5; stroke-linecap: square"/>
   </g>
   <g id="patch_3">
    <path d="M 90 288 
L 90 43.2 
" style="fill: none; stroke: #000000; stroke-width: 0.8; stroke-linejoin: miter; stroke-linecap: square"/>
   </g>
   <g id="patch_4">
    <path d="M 648 288 
L 648 43.2 
" style="fill: none; stroke: #000000; stroke-width: 0.8; stroke-linejoin: miter; stroke-linecap: square"/>
   </g>
   <g id="patch_5">
    <path d="M 90 288 
L 648 288 
" style="fill: none; stroke: #000000; stroke-width: 0.8; stroke-linejoin: miter; stroke-linecap: square"/>
   </g>
   <g id="patch_6">
    <path d="M 90 43.2 
L 648 43.2 
" style="fill: none; stroke: #000000; stroke-width: 0.8; stroke-linejoin: miter; stroke-linecap: square"/>
   </g>
   <g id="text_13">
    <!-- ARB003 -->
    <g transform="translate(345.1575 37.2) scale(0.12 -0.12)">
     <defs>
      <path id="DejaVuSans-41" d="M 2188 4044 
L 1331 1722 
L 3047 1722 
L 2188 4044 
z
M 1831 4666 
L 2547 4666 
L 4325 0 
L 3669 0 
L 3244 1197 
L 1141 1197 
L 716 0 
L 50 0 
L 1831 4666 
z
" transform="scale(0.015625)"/>
      <path id="DejaVuSans-52" d="M 2841 2188 
Q 3044 2119 3236 1894 
Q 3428 1669 3622 1275 
L 4263 0 
L 3584 0 
L 2988 1197 
Q 2756 1666 2539 1819 
Q 2322 1972 1947 1972 
L 1259 1972 
L 1259 0 
L 628 0 
L 628 4666 
L 2053 4666 
Q 2853 4666 3247 4331 
Q 3641 3997 3641 3322 
Q 3641 2881 3436 2590 
Q 3231 2300 2841 2188 
z
M 1259 4147 
L 1259 2491 
L 2053 2491 
Q 2509 2491 2742 2702 
Q 2975 2913 2975 3322 
Q 2975 3731 2742 3939 
Q 2509 4147 2053 4147 
L 1259 4147 
z
" transform="scale(0.015625)"/>
      <path id="DejaVuSans-42" d="M 1259 2228 
L 1259 519 
L 2272 519 
Q 2781 519 3026 730 
Q 3272 941 3272 1375 
Q 3272 1813 3026 2020 
Q 2781 2228 2272 2228 
L 1259 2228 
z
M 1259 4147 
L 1259 2741 
L 2194 2741 
Q 2656 2741 2882 2914 
Q 3109 3088 3109 3444 
Q 3109 3797 2882 3972 
Q 2656 4147 2194 4147 
L 1259 4147 
z
M 628 4666 
L 2241 4666 
Q 2963 4666 3353 4366 
Q 3744 4066 3744 3513 
Q 3744 3084 3544 2831 
Q 3344 2578 2956 2516 
Q 3422 2416 3680 2098 
Q 3938 1781 3938 1306 
Q 3938 681 3513 340 
Q 3088 0 2303 0 
L 628 0 
L 628 4666 
z
" transform="scale(0.015625)"/>
     </defs>
     <use xlink:href="#DejaVuSans-41"/>
     <use xlink:href="#DejaVuSans-52" x="68.408203"/>
     <use xlink:href="#DejaVuSans-42" x="137.890625"/>
     <use xlink:href="#DejaVuSans-30" x="206.494141"/>
     <use xlink:href="#DejaVuSans-30" x="270.117188"/>
     <use xlink:href="#DejaVuSans-33" x="333.740234"/>
    </g>
   </g>
   <g id="legend_1">
    <g id="patch_7">
     <path d="M 97 283 
L 178.95625 283 
Q 180.95625 283 180.95625 281 
L 180.95625 252.64375 
Q 180.95625 250.64375 178.95625 250.64375 
L 97 250.64375 
Q 95 250.64375 95 252.64375 
L 95 281 
Q 95 283 97 283 
z
" style="fill: #ffffff; opacity: 0.8; stroke: #cccccc; stroke-linejoin: miter"/>
    </g>
    <g id="line2d_14">
     <path d="M 99 258.742188 
L 109 258.742188 
L 119 258.742188 
" style="fill: none; stroke: #1f77b4; stroke-width: 1.5; stroke-linecap: square"/>
    </g>
    <g id="text_14">
     <!-- measured -->
     <g transform="translate(127 262.242188) scale(0.1 -0.1)">
      <defs>
       <path id="DejaVuSans-6d" d="M 3328 2828 
Q 3544 3216 3844 3400 
Q 4144 3584 4550 3584 
Q 5097 3584 5394 3201 
Q 5691 2819 5691 2113 
L 5691 0 
L 5113 0 
L 5113 2094 
Q 5113 2597 4934 2840 
Q 4756 3084 4391 3084 
Q 3944 3084 3684 2787 
Q 3425 2491 3425 1978 
L 3425 0 
L 2847 0 
L 2847 2094 
Q 2847 2600 2669 2842 
Q 2491 3084 2119 3084 
Q 1678 3084 1418 2786 
Q 1159 2488 1159 1978 
L 1159 0 
L 581 0 
L 581 3500 
L 1159 3500 
L 1159 2956 
Q 1356 3278 1631 3431 
Q 1906 3584 2284 3584 
Q 2666 3584 2933 3390 
Q 3200 3197 3328 2828 
z
" transform="scale(0.015625)"/>
       <path id="DejaVuSans-61" d="M 2194 1759 
Q 1497 1759 1228 1600 
Q 959 1441 959 1056 
Q 959 750 1161 570 
Q 1363 391 1709 391 
Q 2188 391 2477 730 
Q 2766 1069 2766 1631 
L 2766 1759 
L 2194 1759 
z
M 3341 1997 
L 3341 0 
L 2766 0 
L 2766 531 
Q 2569 213 2275 61 
Q 1981 -91 1556 -91 
Q 1019 -91 701 211 
Q 384 513 384 1019 
Q 384 1609 779 1909 
Q 1175 2209 1959 2209 
L 2766 2209 
L 2766 2266 
Q 2766 2663 2505 2880 
Q 2244 3097 1772 3097 
Q 1472 3097 1187 3025 
Q 903 2953 641 2809 
L 641 3341 
Q 956 3463 1253 3523 
Q 1550 3584 1831 3584 
Q 2591 3584 2966 3190 
Q 3341 2797 3341 1997 
z
" transform="scale(0.015625)"/>
       <path id="DejaVuSans-75" d="M 544 1381 
L 544 3500 
L 1119 3500 
L 1119 1403 
Q 1119 906 1312 657 
Q 1506 409 1894 409 
Q 2359 409 2629 706 
Q 2900 1003 2900 1516 
L 2900 3500 
L 3475 3500 
L 3475 0 
L 2900 0 
L 2900 538 
Q 2691 219 2414 64 
Q 2138 -91 1772 -91 
Q 1169 -91 856 284 
Q 544 659 544 1381 
z
M 1991 3584 
L 1991 3584 
z
" transform="scale(0.015625)"/>
       <path id="DejaVuSans-64" d="M 2906 2969 
L 2906 4863 
L 3481 4863 
L 3481 0 
L 2906 0 
L 2906 525 
Q 2725 213 2448 61 
Q 2172 -91 1784 -91 
Q 1150 -91 751 415 
Q 353 922 353 1747 
Q 353 2572 751 3078 
Q 1150 3584 1784 3584 
Q 2172 3584 2448 3432 
Q 2725 3281 2906 2969 
z
M 947 1747 
Q 947 1113 1208 752 
Q 1469 391 1925 391 
Q 2381 391 2643 752 
Q 2906 1113 2906 1747 
Q 2906 2381 2643 2742 
Q 2381 3103 1925 3103 
Q 1469 3103 1208 2742 
Q 947 2381 947 1747 
z
" transform="scale(0.015625)"/>
      </defs>
      <use xlink:href="#DejaVuSans-6d"/>
      <use xlink:href="#DejaVuSans-65" x="97.412109"/>
      <use xlink:href="#DejaVuSans-61" x="158.935547"/>
      <use xlink:href="#DejaVuSans-73" x="220.214844"/>
      <use xlink:href="#DejaVuSans-75" x="272.314453"/>
      <use xlink:href="#DejaVuSans-72" x="335.693359"/>
      <use xlink:href="#DejaVuSans-65" x="374.556641"/>
      <use xlink:href="#DejaVuSans-64" x="436.080078"/>
     </g>
    </g>
    <g id="line2d_15">
     <path d="M 99 273.420312 
L 109 273.420312 
L 119 273.420312 
" style="fill: none; stroke: #ff7f0e; stroke-width: 1.5; stroke-linecap: square"/>
    </g>
    <g id="text_15">
     <!-- predicted -->
     <g transform="translate(127 276.920312) scale(0.1 -0.1)">
      <defs>
       <path id="DejaVuSans-70" d="M 1159 525 
L 1159 -1331 
L 581 -1331 
L 581 3500 
L 1159 3500 
L 1159 2969 
Q 1341 3281 1617 3432 
Q 1894 3584 2278 3584 
Q 2916 3584 3314 3078 
Q 3713 2572 3713 1747 
Q 3713 922 3314 415 
Q 2916 -91 2278 -91 
Q 1894 -91 1617 61 
Q 1341 213 1159 525 
z
M 3116 1747 
Q 3116 2381 2855 2742 
Q 2594 3103 2138 3103 
Q 1681 3103 1420 2742 
Q 1159 2381 1159 1747 
Q 1159 1113 1420 752 
Q 1681 391 2138 391 
Q 2594 391 2855 752 
Q 3116 1113 3116 1747 
z
" transform="scale(0.015625)"/>
       <path id="DejaVuSans-69" d="M 603 3500 
L 1178 3500 
L 1178 0 
L 603 0 
L 603 3500 
z
M 603 4863 
L 1178 4863 
L 1178 4134 
L 603 4134 
L 603 4863 
z
" transform="scale(0.015625)"/>
       <path id="DejaVuSans-63" d="M 3122 3366 
L 3122 2828 
Q 2878 2963 2633 3030 
Q 2388 3097 2138 3097 
Q 1578 3097 1268 2742 
Q 959 2388 959 1747 
Q 959 1106 1268 751 
Q 1578 397 2138 397 
Q 2388 397 2633 464 
Q 2878 531 3122 666 
L 3122 134 
Q 2881 22 2623 -34 
Q 2366 -91 2075 -91 
Q 1284 -91 818 406 
Q 353 903 353 1747 
Q 353 2603 823 3093 
Q 1294 3584 2113 3584 
Q 2378 3584 2631 3529 
Q 2884 3475 3122 3366 
z
" transform="scale(0.015625)"/>
      </defs>
      <use xlink:href="#DejaVuSans-70"/>
      <use xlink:href="#DejaVuSans-72" x="63.476562"/>
      <use xlink:href="#DejaVuSans-65" x="102.339844"/>
      <use xlink:href="#DejaVuSans-64" x="163.863281"/>
      <use xlink:href="#DejaVuSans-69" x="227.339844"/>
      <use xlink:href="#DejaVuSans-63" x="255.123047"/>
      <use xlink:href="#DejaVuSans-74" x="310.103516"/>
      <use xlink:href="#DejaVuSans-65" x="349.3125"/>
      <use xlink:href="#DejaVuSans-64" x="410.835938"/>
     </g>
    </g>
   </g>
  </g>
 </g>
 <defs>
  <clipPath id="pe00978252c">
   <rect x="90" y="43.2" width="558" height="244.8"/>
  </clipPath>
 </defs>
</svg>
