<?xml version="1.0" encoding="utf-8" standalone="no"?>
<!DOCTYPE svg PUBLIC "-//W3C//DTD SVG 1.1//EN"
  "http://www.w3.org/Graphics/SVG/1.1/DTD/svg11.dtd">
<svg xmlns:xlink="http://www.w3.org/1999/xlink" width="720pt" height="360pt" viewBox="0 0 720 360" xmlns="http://www.w3.org/2000/svg" version="1.1">
 <metadata>
  <rdf:RDF xmlns:dc="http://purl.org/dc/elements/1.1/" xmlns:cc="http://creativecommons.org/ns#" xmlns:rdf="http://www.w3.org/1999/02/22-rdf-syntax-ns#">
   <cc:Work>
    <dc:type rdf:resource="http://purl.org/dc/dcmitype/StillImage"/>
    <dc:date>2023-10-23T10:53:12.747836</dc:date>
    <dc:format>image/svg+xml</dc:format>
    <dc:creator>
     <cc:Agent>
      <dc:title>Matplotlib v3.7.1, https://matplotlib.org/</dc:title>
     </cc:Agent>
    </dc:creator>
   </cc:Work>
  </rdf:RDF>
 </metadata>
 <defs>
  <style type="text/css">*{stroke-linejoin: round; stroke-linecap: butt}</style>
 </defs>
 <g id="figure_1">
  <g id="patch_1">
   <path d="M 0 360 
L 720 360 
L 720 0 
L 0 0 
z
" style="fill: #ffffff"/>
  </g>
  <g id="axes_1">
   <g id="patch_2">
    <path d="M 90 288 
L 648 288 
L 648 43.2 
L 90 43.2 
z
" style="fill: #ffffff"/>
   </g>
   <g id="matplotlib.axis_1">
    <g id="xtick_1">
     <g id="line2d_1">
      <defs>
       <path id="mb705f53043" d="M 0 0 
L 0 3.5 
" style="stroke: #000000; stroke-width: 0.8"/>
      </defs>
      <g>
       <use xlink:href="#mb705f53043" x="149.370747" y="288" style="stroke: #000000; stroke-width: 0.8"/>
      </g>
     </g>
     <g id="text_1">
      <!-- 2023-08-15 -->
      <g transform="translate(87.727405 337.765903) rotate(-30) scale(0.12 -0.12)">
       <defs>
        <path id="DejaVuSans-32" d="M 1228 531 
L 3431 531 
L 3431 0 
L 469 0 
L 469 531 
Q 828 903 1448 1529 
Q 2069 2156 2228 2338 
Q 2531 2678 2651 2914 
Q 2772 3150 2772 3378 
Q 2772 3750 2511 3984 
Q 2250 4219 1831 4219 
Q 1534 4219 1204 4116 
Q 875 4013 500 3803 
L 500 4441 
Q 881 4594 1212 4672 
Q 1544 4750 1819 4750 
Q 2544 4750 2975 4387 
Q 3406 4025 3406 3419 
Q 3406 3131 3298 2873 
Q 3191 2616 2906 2266 
Q 2828 2175 2409 1742 
Q 1991 1309 1228 531 
z
" transform="scale(0.015625)"/>
        <path id="DejaVuSans-30" d="M 2034 4250 
Q 1547 4250 1301 3770 
Q 1056 3291 1056 2328 
Q 1056 1369 1301 889 
Q 1547 409 2034 409 
Q 2525 409 2770 889 
Q 3016 1369 3016 2328 
Q 3016 3291 2770 3770 
Q 2525 4250 2034 4250 
z
M 2034 4750 
Q 2819 4750 3233 4129 
Q 3647 3509 3647 2328 
Q 3647 1150 3233 529 
Q 2819 -91 2034 -91 
Q 1250 -91 836 529 
Q 422 1150 422 2328 
Q 422 3509 836 4129 
Q 1250 4750 2034 4750 
z
" transform="scale(0.015625)"/>
        <path id="DejaVuSans-33" d="M 2597 2516 
Q 3050 2419 3304 2112 
Q 3559 1806 3559 1356 
Q 3559 666 3084 287 
Q 2609 -91 1734 -91 
Q 1441 -91 1130 -33 
Q 819 25 488 141 
L 488 750 
Q 750 597 1062 519 
Q 1375 441 1716 441 
Q 2309 441 2620 675 
Q 2931 909 2931 1356 
Q 2931 1769 2642 2001 
Q 2353 2234 1838 2234 
L 1294 2234 
L 1294 2753 
L 1863 2753 
Q 2328 2753 2575 2939 
Q 2822 3125 2822 3475 
Q 2822 3834 2567 4026 
Q 2313 4219 1838 4219 
Q 1578 4219 1281 4162 
Q 984 4106 628 3988 
L 628 4550 
Q 988 4650 1302 4700 
Q 1616 4750 1894 4750 
Q 2613 4750 3031 4423 
Q 3450 4097 3450 3541 
Q 3450 3153 3228 2886 
Q 3006 2619 2597 2516 
z
" transform="scale(0.015625)"/>
        <path id="DejaVuSans-2d" d="M 313 2009 
L 1997 2009 
L 1997 1497 
L 313 1497 
L 313 2009 
z
" transform="scale(0.015625)"/>
        <path id="DejaVuSans-38" d="M 2034 2216 
Q 1584 2216 1326 1975 
Q 1069 1734 1069 1313 
Q 1069 891 1326 650 
Q 1584 409 2034 409 
Q 2484 409 2743 651 
Q 3003 894 3003 1313 
Q 3003 1734 2745 1975 
Q 2488 2216 2034 2216 
z
M 1403 2484 
Q 997 2584 770 2862 
Q 544 3141 544 3541 
Q 544 4100 942 4425 
Q 1341 4750 2034 4750 
Q 2731 4750 3128 4425 
Q 3525 4100 3525 3541 
Q 3525 3141 3298 2862 
Q 3072 2584 2669 2484 
Q 3125 2378 3379 2068 
Q 3634 1759 3634 1313 
Q 3634 634 3220 271 
Q 2806 -91 2034 -91 
Q 1263 -91 848 271 
Q 434 634 434 1313 
Q 434 1759 690 2068 
Q 947 2378 1403 2484 
z
M 1172 3481 
Q 1172 3119 1398 2916 
Q 1625 2713 2034 2713 
Q 2441 2713 2670 2916 
Q 2900 3119 2900 3481 
Q 2900 3844 2670 4047 
Q 2441 4250 2034 4250 
Q 1625 4250 1398 4047 
Q 1172 3844 1172 3481 
z
" transform="scale(0.015625)"/>
        <path id="DejaVuSans-31" d="M 794 531 
L 1825 531 
L 1825 4091 
L 703 3866 
L 703 4441 
L 1819 4666 
L 2450 4666 
L 2450 531 
L 3481 531 
L 3481 0 
L 794 0 
L 794 531 
z
" transform="scale(0.015625)"/>
        <path id="DejaVuSans-35" d="M 691 4666 
L 3169 4666 
L 3169 4134 
L 1269 4134 
L 1269 2991 
Q 1406 3038 1543 3061 
Q 1681 3084 1819 3084 
Q 2600 3084 3056 2656 
Q 3513 2228 3513 1497 
Q 3513 744 3044 326 
Q 2575 -91 1722 -91 
Q 1428 -91 1123 -41 
Q 819 9 494 109 
L 494 744 
Q 775 591 1075 516 
Q 1375 441 1709 441 
Q 2250 441 2565 725 
Q 2881 1009 2881 1497 
Q 2881 1984 2565 2268 
Q 2250 2553 1709 2553 
Q 1456 2553 1204 2497 
Q 953 2441 691 2322 
L 691 4666 
z
" transform="scale(0.015625)"/>
       </defs>
       <use xlink:href="#DejaVuSans-32"/>
       <use xlink:href="#DejaVuSans-30" x="63.623047"/>
       <use xlink:href="#DejaVuSans-32" x="127.246094"/>
       <use xlink:href="#DejaVuSans-33" x="190.869141"/>
       <use xlink:href="#DejaVuSans-2d" x="254.492188"/>
       <use xlink:href="#DejaVuSans-30" x="290.576172"/>
       <use xlink:href="#DejaVuSans-38" x="354.199219"/>
       <use xlink:href="#DejaVuSans-2d" x="417.822266"/>
       <use xlink:href="#DejaVuSans-31" x="453.90625"/>
       <use xlink:href="#DejaVuSans-35" x="517.529297"/>
      </g>
     </g>
    </g>
    <g id="xtick_2">
     <g id="line2d_2">
      <g>
       <use xlink:href="#mb705f53043" x="264.994921" y="288" style="stroke: #000000; stroke-width: 0.8"/>
      </g>
     </g>
     <g id="text_2">
      <!-- 2023-09-01 -->
      <g transform="translate(203.35158 337.765903) rotate(-30) scale(0.12 -0.12)">
       <defs>
        <path id="DejaVuSans-39" d="M 703 97 
L 703 672 
Q 941 559 1184 500 
Q 1428 441 1663 441 
Q 2288 441 2617 861 
Q 2947 1281 2994 2138 
Q 2813 1869 2534 1725 
Q 2256 1581 1919 1581 
Q 1219 1581 811 2004 
Q 403 2428 403 3163 
Q 403 3881 828 4315 
Q 1253 4750 1959 4750 
Q 2769 4750 3195 4129 
Q 3622 3509 3622 2328 
Q 3622 1225 3098 567 
Q 2575 -91 1691 -91 
Q 1453 -91 1209 -44 
Q 966 3 703 97 
z
M 1959 2075 
Q 2384 2075 2632 2365 
Q 2881 2656 2881 3163 
Q 2881 3666 2632 3958 
Q 2384 4250 1959 4250 
Q 1534 4250 1286 3958 
Q 1038 3666 1038 3163 
Q 1038 2656 1286 2365 
Q 1534 2075 1959 2075 
z
" transform="scale(0.015625)"/>
       </defs>
       <use xlink:href="#DejaVuSans-32"/>
       <use xlink:href="#DejaVuSans-30" x="63.623047"/>
       <use xlink:href="#DejaVuSans-32" x="127.246094"/>
       <use xlink:href="#DejaVuSans-33" x="190.869141"/>
       <use xlink:href="#DejaVuSans-2d" x="254.492188"/>
       <use xlink:href="#DejaVuSans-30" x="290.576172"/>
       <use xlink:href="#DejaVuSans-39" x="354.199219"/>
       <use xlink:href="#DejaVuSans-2d" x="417.822266"/>
       <use xlink:href="#DejaVuSans-30" x="453.90625"/>
       <use xlink:href="#DejaVuSans-31" x="517.529297"/>
      </g>
     </g>
    </g>
    <g id="xtick_3">
     <g id="line2d_3">
      <g>
       <use xlink:href="#mb705f53043" x="360.21483" y="288" style="stroke: #000000; stroke-width: 0.8"/>
      </g>
     </g>
     <g id="text_3">
      <!-- 2023-09-15 -->
      <g transform="translate(298.571488 337.765903) rotate(-30) scale(0.12 -0.12)">
       <use xlink:href="#DejaVuSans-32"/>
       <use xlink:href="#DejaVuSans-30" x="63.623047"/>
       <use xlink:href="#DejaVuSans-32" x="127.246094"/>
       <use xlink:href="#DejaVuSans-33" x="190.869141"/>
       <use xlink:href="#DejaVuSans-2d" x="254.492188"/>
       <use xlink:href="#DejaVuSans-30" x="290.576172"/>
       <use xlink:href="#DejaVuSans-39" x="354.199219"/>
       <use xlink:href="#DejaVuSans-2d" x="417.822266"/>
       <use xlink:href="#DejaVuSans-31" x="453.90625"/>
       <use xlink:href="#DejaVuSans-35" x="517.529297"/>
      </g>
     </g>
    </g>
    <g id="xtick_4">
     <g id="line2d_4">
      <g>
       <use xlink:href="#mb705f53043" x="469.037583" y="288" style="stroke: #000000; stroke-width: 0.8"/>
      </g>
     </g>
     <g id="text_4">
      <!-- 2023-10-01 -->
      <g transform="translate(407.394241 337.765903) rotate(-30) scale(0.12 -0.12)">
       <use xlink:href="#DejaVuSans-32"/>
       <use xlink:href="#DejaVuSans-30" x="63.623047"/>
       <use xlink:href="#DejaVuSans-32" x="127.246094"/>
       <use xlink:href="#DejaVuSans-33" x="190.869141"/>
       <use xlink:href="#DejaVuSans-2d" x="254.492188"/>
       <use xlink:href="#DejaVuSans-31" x="290.576172"/>
       <use xlink:href="#DejaVuSans-30" x="354.199219"/>
       <use xlink:href="#DejaVuSans-2d" x="417.822266"/>
       <use xlink:href="#DejaVuSans-30" x="453.90625"/>
       <use xlink:href="#DejaVuSans-31" x="517.529297"/>
      </g>
     </g>
    </g>
    <g id="xtick_5">
     <g id="line2d_5">
      <g>
       <use xlink:href="#mb705f53043" x="564.257491" y="288" style="stroke: #000000; stroke-width: 0.8"/>
      </g>
     </g>
     <g id="text_5">
      <!-- 2023-10-15 -->
      <g transform="translate(502.614149 337.765903) rotate(-30) scale(0.12 -0.12)">
       <use xlink:href="#DejaVuSans-32"/>
       <use xlink:href="#DejaVuSans-30" x="63.623047"/>
       <use xlink:href="#DejaVuSans-32" x="127.246094"/>
       <use xlink:href="#DejaVuSans-33" x="190.869141"/>
       <use xlink:href="#DejaVuSans-2d" x="254.492188"/>
       <use xlink:href="#DejaVuSans-31" x="290.576172"/>
       <use xlink:href="#DejaVuSans-30" x="354.199219"/>
       <use xlink:href="#DejaVuSans-2d" x="417.822266"/>
       <use xlink:href="#DejaVuSans-31" x="453.90625"/>
       <use xlink:href="#DejaVuSans-35" x="517.529297"/>
      </g>
     </g>
    </g>
   </g>
   <g id="matplotlib.axis_2">
    <g id="ytick_1">
     <g id="line2d_6">
      <defs>
       <path id="m22e6c57214" d="M 0 0 
L -3.5 0 
" style="stroke: #000000; stroke-width: 0.8"/>
      </defs>
      <g>
       <use xlink:href="#m22e6c57214" x="90" y="287.989003" style="stroke: #000000; stroke-width: 0.8"/>
      </g>
     </g>
     <g id="text_6">
      <!-- 0.4 -->
      <g transform="translate(63.91625 292.548065) scale(0.12 -0.12)">
       <defs>
        <path id="DejaVuSans-2e" d="M 684 794 
L 1344 794 
L 1344 0 
L 684 0 
L 684 794 
z
" transform="scale(0.015625)"/>
        <path id="DejaVuSans-34" d="M 2419 4116 
L 825 1625 
L 2419 1625 
L 2419 4116 
z
M 2253 4666 
L 3047 4666 
L 3047 1625 
L 3713 1625 
L 3713 1100 
L 3047 1100 
L 3047 0 
L 2419 0 
L 2419 1100 
L 313 1100 
L 313 1709 
L 2253 4666 
z
" transform="scale(0.015625)"/>
       </defs>
       <use xlink:href="#DejaVuSans-30"/>
       <use xlink:href="#DejaVuSans-2e" x="63.623047"/>
       <use xlink:href="#DejaVuSans-34" x="95.410156"/>
      </g>
     </g>
    </g>
    <g id="ytick_2">
     <g id="line2d_7">
      <g>
       <use xlink:href="#m22e6c57214" x="90" y="246.26897" style="stroke: #000000; stroke-width: 0.8"/>
      </g>
     </g>
     <g id="text_7">
      <!-- 0.5 -->
      <g transform="translate(63.91625 250.828033) scale(0.12 -0.12)">
       <use xlink:href="#DejaVuSans-30"/>
       <use xlink:href="#DejaVuSans-2e" x="63.623047"/>
       <use xlink:href="#DejaVuSans-35" x="95.410156"/>
      </g>
     </g>
    </g>
    <g id="ytick_3">
     <g id="line2d_8">
      <g>
       <use xlink:href="#m22e6c57214" x="90" y="204.548938" style="stroke: #000000; stroke-width: 0.8"/>
      </g>
     </g>
     <g id="text_8">
      <!-- 0.6 -->
      <g transform="translate(63.91625 209.108) scale(0.12 -0.12)">
       <defs>
        <path id="DejaVuSans-36" d="M 2113 2584 
Q 1688 2584 1439 2293 
Q 1191 2003 1191 1497 
Q 1191 994 1439 701 
Q 1688 409 2113 409 
Q 2538 409 2786 701 
Q 3034 994 3034 1497 
Q 3034 2003 2786 2293 
Q 2538 2584 2113 2584 
z
M 3366 4563 
L 3366 3988 
Q 3128 4100 2886 4159 
Q 2644 4219 2406 4219 
Q 1781 4219 1451 3797 
Q 1122 3375 1075 2522 
Q 1259 2794 1537 2939 
Q 1816 3084 2150 3084 
Q 2853 3084 3261 2657 
Q 3669 2231 3669 1497 
Q 3669 778 3244 343 
Q 2819 -91 2113 -91 
Q 1303 -91 875 529 
Q 447 1150 447 2328 
Q 447 3434 972 4092 
Q 1497 4750 2381 4750 
Q 2619 4750 2861 4703 
Q 3103 4656 3366 4563 
z
" transform="scale(0.015625)"/>
       </defs>
       <use xlink:href="#DejaVuSans-30"/>
       <use xlink:href="#DejaVuSans-2e" x="63.623047"/>
       <use xlink:href="#DejaVuSans-36" x="95.410156"/>
      </g>
     </g>
    </g>
    <g id="ytick_4">
     <g id="line2d_9">
      <g>
       <use xlink:href="#m22e6c57214" x="90" y="162.828905" style="stroke: #000000; stroke-width: 0.8"/>
      </g>
     </g>
     <g id="text_9">
      <!-- 0.7 -->
      <g transform="translate(63.91625 167.387968) scale(0.12 -0.12)">
       <defs>
        <path id="DejaVuSans-37" d="M 525 4666 
L 3525 4666 
L 3525 4397 
L 1831 0 
L 1172 0 
L 2766 4134 
L 525 4134 
L 525 4666 
z
" transform="scale(0.015625)"/>
       </defs>
       <use xlink:href="#DejaVuSans-30"/>
       <use xlink:href="#DejaVuSans-2e" x="63.623047"/>
       <use xlink:href="#DejaVuSans-37" x="95.410156"/>
      </g>
     </g>
    </g>
    <g id="ytick_5">
     <g id="line2d_10">
      <g>
       <use xlink:href="#m22e6c57214" x="90" y="121.108873" style="stroke: #000000; stroke-width: 0.8"/>
      </g>
     </g>
     <g id="text_10">
      <!-- 0.8 -->
      <g transform="translate(63.91625 125.667936) scale(0.12 -0.12)">
       <use xlink:href="#DejaVuSans-30"/>
       <use xlink:href="#DejaVuSans-2e" x="63.623047"/>
       <use xlink:href="#DejaVuSans-38" x="95.410156"/>
      </g>
     </g>
    </g>
    <g id="ytick_6">
     <g id="line2d_11">
      <g>
       <use xlink:href="#m22e6c57214" x="90" y="79.388841" style="stroke: #000000; stroke-width: 0.8"/>
      </g>
     </g>
     <g id="text_11">
      <!-- 0.9 -->
      <g transform="translate(63.91625 83.947903) scale(0.12 -0.12)">
       <use xlink:href="#DejaVuSans-30"/>
       <use xlink:href="#DejaVuSans-2e" x="63.623047"/>
       <use xlink:href="#DejaVuSans-39" x="95.410156"/>
      </g>
     </g>
    </g>
    <g id="text_12">
     <!-- Meters -->
     <g transform="translate(57.836562 182.6875) rotate(-90) scale(0.1 -0.1)">
      <defs>
       <path id="DejaVuSans-4d" d="M 628 4666 
L 1569 4666 
L 2759 1491 
L 3956 4666 
L 4897 4666 
L 4897 0 
L 4281 0 
L 4281 4097 
L 3078 897 
L 2444 897 
L 1241 4097 
L 1241 0 
L 628 0 
L 628 4666 
z
" transform="scale(0.015625)"/>
       <path id="DejaVuSans-65" d="M 3597 1894 
L 3597 1613 
L 953 1613 
Q 991 1019 1311 708 
Q 1631 397 2203 397 
Q 2534 397 2845 478 
Q 3156 559 3463 722 
L 3463 178 
Q 3153 47 2828 -22 
Q 2503 -91 2169 -91 
Q 1331 -91 842 396 
Q 353 884 353 1716 
Q 353 2575 817 3079 
Q 1281 3584 2069 3584 
Q 2775 3584 3186 3129 
Q 3597 2675 3597 1894 
z
M 3022 2063 
Q 3016 2534 2758 2815 
Q 2500 3097 2075 3097 
Q 1594 3097 1305 2825 
Q 1016 2553 972 2059 
L 3022 2063 
z
" transform="scale(0.015625)"/>
       <path id="DejaVuSans-74" d="M 1172 4494 
L 1172 3500 
L 2356 3500 
L 2356 3053 
L 1172 3053 
L 1172 1153 
Q 1172 725 1289 603 
Q 1406 481 1766 481 
L 2356 481 
L 2356 0 
L 1766 0 
Q 1100 0 847 248 
Q 594 497 594 1153 
L 594 3053 
L 172 3053 
L 172 3500 
L 594 3500 
L 594 4494 
L 1172 4494 
z
" transform="scale(0.015625)"/>
       <path id="DejaVuSans-72" d="M 2631 2963 
Q 2534 3019 2420 3045 
Q 2306 3072 2169 3072 
Q 1681 3072 1420 2755 
Q 1159 2438 1159 1844 
L 1159 0 
L 581 0 
L 581 3500 
L 1159 3500 
L 1159 2956 
Q 1341 3275 1631 3429 
Q 1922 3584 2338 3584 
Q 2397 3584 2469 3576 
Q 2541 3569 2628 3553 
L 2631 2963 
z
" transform="scale(0.015625)"/>
       <path id="DejaVuSans-73" d="M 2834 3397 
L 2834 2853 
Q 2591 2978 2328 3040 
Q 2066 3103 1784 3103 
Q 1356 3103 1142 2972 
Q 928 2841 928 2578 
Q 928 2378 1081 2264 
Q 1234 2150 1697 2047 
L 1894 2003 
Q 2506 1872 2764 1633 
Q 3022 1394 3022 966 
Q 3022 478 2636 193 
Q 2250 -91 1575 -91 
Q 1294 -91 989 -36 
Q 684 19 347 128 
L 347 722 
Q 666 556 975 473 
Q 1284 391 1588 391 
Q 1994 391 2212 530 
Q 2431 669 2431 922 
Q 2431 1156 2273 1281 
Q 2116 1406 1581 1522 
L 1381 1569 
Q 847 1681 609 1914 
Q 372 2147 372 2553 
Q 372 3047 722 3315 
Q 1072 3584 1716 3584 
Q 2034 3584 2315 3537 
Q 2597 3491 2834 3397 
z
" transform="scale(0.015625)"/>
      </defs>
      <use xlink:href="#DejaVuSans-4d"/>
      <use xlink:href="#DejaVuSans-65" x="86.279297"/>
      <use xlink:href="#DejaVuSans-74" x="147.802734"/>
      <use xlink:href="#DejaVuSans-65" x="187.011719"/>
      <use xlink:href="#DejaVuSans-72" x="248.535156"/>
      <use xlink:href="#DejaVuSans-73" x="289.648438"/>
     </g>
    </g>
   </g>
   <g id="line2d_12">
    <path d="M 115.363636 185.711732 
L 115.647029 186.823981 
L 115.930422 187.102043 
L 116.213814 188.408936 
L 116.497207 188.839933 
L 117.347384 192.871837 
L 117.630777 193.010868 
L 117.91417 194.470696 
L 118.197562 195.304883 
L 118.764347 199.684365 
L 119.331133 199.962427 
L 119.614525 200.449036 
L 119.897918 202.047895 
L 120.18131 201.978379 
L 120.748095 203.646753 
L 121.031488 206.566408 
L 121.314881 201.144192 
L 121.598273 203.716269 
L 121.881666 204.175072 
L 122.165058 204.202878 
L 122.731844 205.801736 
L 124.148807 216.368105 
L 125.282377 224.431914 
L 125.565769 228.602849 
L 126.132555 227.768662 
L 126.415947 227.560115 
L 126.69934 227.699146 
L 126.982732 228.533333 
L 127.266125 228.185755 
L 127.549518 228.950427 
L 127.83291 230.118289 
L 128.116303 130.655387 
L 128.399695 121.548845 
L 128.96648 117.725488 
L 129.249873 117.516941 
L 129.533266 117.725488 
L 130.100051 120.297565 
L 130.950229 125.024624 
L 131.233621 125.858812 
L 132.367191 133.018917 
L 132.650584 132.949401 
L 132.933977 133.575042 
L 133.217369 133.853104 
L 133.784154 135.938572 
L 134.067547 136.564212 
L 134.35094 137.606946 
L 135.201117 142.542552 
L 135.48451 142.403521 
L 135.767902 143.237708 
L 136.334688 145.781979 
L 137.184865 151.857641 
L 137.751651 156.793248 
L 138.035043 158.670168 
L 138.318436 159.226293 
L 139.168614 163.133069 
L 139.452006 165.552212 
L 139.735399 165.691243 
L 140.302184 166.594945 
L 142.002539 172.893058 
L 143.13611 175.701487 
L 143.986287 178.899204 
L 144.26968 179.59436 
L 144.553073 180.984672 
L 144.836465 181.054187 
L 145.686643 183.626264 
L 145.970036 184.182389 
L 146.536821 186.823981 
L 147.953784 191.245172 
L 148.237176 191.551041 
L 148.520569 192.941353 
L 148.803961 193.288931 
L 149.087354 193.288931 
L 149.370747 182.792077 
L 149.654139 180.150485 
L 149.937532 179.038235 
L 150.504317 161.311761 
L 150.787709 156.876666 
L 151.071102 136.425181 
L 151.354495 125.858812 
L 152.204672 113.971646 
L 152.488065 112.233757 
L 152.771458 111.260538 
L 153.05485 111.121507 
L 153.338243 111.260538 
L 153.905028 112.442303 
L 154.471813 112.789881 
L 154.755206 113.206975 
L 155.038598 113.346006 
L 155.321991 113.693584 
L 155.605383 114.666802 
L 155.888776 115.222927 
L 156.455561 115.918083 
L 156.738954 117.030332 
L 157.022346 117.238879 
L 157.589132 119.046284 
L 157.872524 119.74144 
L 158.439309 121.409814 
L 158.722702 122.174485 
L 159.006094 123.425766 
L 159.856272 128.361373 
L 160.139665 128.222341 
L 160.423057 128.708951 
L 160.70645 129.612653 
L 162.406805 138.774808 
L 162.690198 138.441133 
L 162.973591 139.344835 
L 163.256983 140.804663 
L 163.823768 142.055943 
L 164.107161 143.515771 
L 164.673946 145.184145 
L 166.090909 151.510063 
L 166.374302 153.665046 
L 166.657694 154.429718 
L 166.941087 154.777296 
L 167.224479 156.44567 
L 167.507872 157.418888 
L 167.791265 151.579579 
L 168.074657 130.349518 
L 168.35805 117.516941 
L 168.641442 113.27649 
L 168.924835 111.469085 
L 169.208228 111.608116 
L 169.49162 110.982476 
L 170.058405 112.094725 
L 170.62519 113.763099 
L 170.908583 114.499965 
L 171.475368 116.821785 
L 171.758761 117.099848 
L 172.042153 118.837737 
L 172.325546 119.463378 
L 172.608939 120.645143 
L 173.175724 125.233171 
L 173.742509 125.678071 
L 174.025901 127.527186 
L 174.309294 128.152826 
L 174.592687 129.8212 
L 174.876079 130.238293 
L 175.159472 132.254245 
L 175.442864 133.366495 
L 176.00965 137.189852 
L 176.293042 136.91179 
L 176.576435 138.941645 
L 176.859827 139.970476 
L 177.14322 139.90096 
L 177.426612 140.457085 
L 177.993398 143.307224 
L 178.843575 147.269612 
L 179.410361 149.35508 
L 179.977146 154.70778 
L 180.260538 155.611483 
L 180.827324 156.44567 
L 181.960894 160.755636 
L 182.811072 165.343665 
L 183.094464 165.135118 
L 183.944642 167.846226 
L 184.511427 169.723147 
L 184.79482 170.279271 
L 185.361605 172.809639 
L 185.644997 173.61602 
L 186.495175 177.925986 
L 186.778568 180.498063 
L 187.345353 180.845641 
L 187.628746 181.610312 
L 187.912138 181.95789 
L 188.478923 183.487233 
L 189.045708 185.294638 
L 189.612494 188.144777 
L 189.895886 188.005746 
L 190.179279 189.535089 
L 190.462671 190.160729 
L 190.746064 190.369276 
L 191.029457 190.828079 
L 191.312849 190.647338 
L 191.596242 191.690072 
L 192.44642 195.861007 
L 192.729812 197.112288 
L 193.013205 197.668413 
L 193.296597 198.641631 
L 193.57999 200.449036 
L 193.863382 201.338836 
L 194.146775 202.673535 
L 194.430168 202.882082 
L 194.71356 203.785784 
L 195.280345 206.635923 
L 195.847131 208.651875 
L 196.130523 209.068969 
L 196.413916 209.764125 
L 196.697308 209.972672 
L 196.980701 211.015405 
L 197.264093 211.432499 
L 197.547486 212.475233 
L 198.964449 223.597727 
L 199.247842 224.431914 
L 199.531234 225.75271 
L 200.098019 226.169803 
L 200.381412 227.421084 
L 200.664804 227.977208 
L 201.514982 230.896863 
L 202.36516 233.399424 
L 202.648553 233.788712 
L 202.931945 234.372642 
L 203.215338 236.45811 
L 203.49873 235.137314 
L 203.782123 235.20683 
L 204.065515 234.859252 
L 204.348908 235.554407 
L 204.632301 235.693439 
L 205.199086 236.45811 
L 205.482478 237.792809 
L 205.765871 237.709391 
L 206.332656 238.265515 
L 206.899441 239.864374 
L 207.749619 241.046139 
L 208.033012 240.907108 
L 208.316404 241.296395 
L 208.599797 242.158388 
L 208.883189 242.088873 
L 209.449975 243.687731 
L 209.733367 243.896278 
L 210.01676 243.826762 
L 210.300152 241.741295 
L 210.583545 242.92306 
L 210.866938 242.92306 
L 211.15033 243.882375 
L 211.433723 243.062091 
L 211.717115 243.409669 
L 212.000508 243.5487 
L 212.2839 244.521918 
L 212.567293 243.965793 
L 212.850686 212.475233 
L 213.417471 56.829834 
L 213.700863 54.327273 
L 214.267649 61.946181 
L 215.968004 89.363128 
L 216.818182 99.303857 
L 217.101574 100.569041 
L 217.384967 102.710121 
L 217.66836 103.335761 
L 217.951752 93.186486 
L 218.235145 62.947205 
L 218.518537 62.738659 
L 219.085322 70.107311 
L 220.502285 89.988769 
L 221.069071 96.453718 
L 221.919248 103.057699 
L 222.486034 107.089603 
L 223.052819 109.314102 
L 223.336211 111.677632 
L 224.186389 113.971646 
L 224.469782 115.361958 
L 224.753174 115.987598 
L 225.036567 117.655972 
L 225.603352 119.421668 
L 226.170137 122.035454 
L 226.736922 124.329469 
L 227.020315 125.928327 
L 227.303707 126.275905 
L 227.5871 128.917497 
L 228.153885 130.585871 
L 228.72067 132.532308 
L 230.137633 139.622898 
L 230.421026 141.916912 
L 230.704418 141.569334 
L 230.987811 142.542552 
L 231.554596 145.03121 
L 231.837989 146.018332 
L 232.404774 149.007502 
L 232.688167 149.841689 
L 233.821737 154.916327 
L 234.10513 156.515185 
L 234.388522 159.851933 
L 234.671915 159.796321 
L 234.955307 159.921449 
L 235.522092 161.033698 
L 236.655663 167.290101 
L 237.222448 170.626849 
L 237.505841 169.723147 
L 237.789233 170.904912 
L 238.072626 172.573286 
L 238.356018 172.781833 
L 238.639411 173.407473 
L 238.922803 175.423425 
L 239.206196 175.840518 
L 239.489589 177.717439 
L 239.772981 178.621142 
L 240.056374 179.107751 
L 240.339766 179.900229 
L 240.906552 182.374984 
L 241.189944 187.102043 
L 241.473337 187.380106 
L 241.756729 186.823981 
L 242.040122 187.032528 
L 242.323514 187.380106 
L 242.8903 189.465573 
L 243.457085 192.107166 
L 244.02387 195.652461 
L 244.307263 194.470696 
L 244.590655 195.582945 
L 244.874048 196.069554 
L 245.440833 197.946475 
L 245.724225 198.919693 
L 246.007618 199.169949 
L 246.291011 200.657583 
L 246.574403 201.283223 
L 246.857796 201.422254 
L 247.141188 201.978379 
L 247.424581 203.994331 
L 247.707974 204.898034 
L 247.991366 206.774955 
L 248.274759 207.400595 
L 248.558151 207.539626 
L 248.841544 207.400595 
L 249.691722 209.972672 
L 250.541899 212.961842 
L 250.825292 212.127655 
L 251.108685 212.892326 
L 251.392077 212.961842 
L 251.958862 203.257466 
L 252.525648 204.133362 
L 253.092433 206.149314 
L 253.659218 207.331079 
L 254.226003 209.138484 
L 254.792788 210.514893 
L 255.076181 211.919108 
L 256.776536 216.368105 
L 257.059929 217.619386 
L 257.343321 219.704854 
L 257.626714 220.942231 
L 257.910107 219.426791 
L 258.193499 220.956134 
L 258.476892 221.442743 
L 258.760284 221.581775 
L 259.32707 223.319664 
L 259.610462 223.736758 
L 260.177247 225.057554 
L 260.46064 225.196585 
L 260.744033 225.683194 
L 261.310818 227.490599 
L 261.59421 232.982331 
L 262.160995 231.452988 
L 262.444388 231.244441 
L 262.727781 231.452988 
L 263.294566 232.287175 
L 263.577958 233.955549 
L 263.861351 234.233611 
L 264.144744 235.901985 
L 264.428136 236.597141 
L 264.711529 235.484892 
L 264.994921 237.08375 
L 265.278314 237.153266 
L 265.561706 237.500844 
L 265.845099 238.335031 
L 266.128492 238.196 
L 266.411884 238.626996 
L 266.695277 239.377765 
L 266.978669 239.44728 
L 267.262062 239.864374 
L 267.545455 240.629045 
L 267.828847 240.907108 
L 268.11224 241.393717 
L 268.395632 245.425621 
L 268.962417 243.965793 
L 269.529203 243.409669 
L 270.37938 245.495136 
L 271.229558 248.692853 
L 271.512951 246.607386 
L 271.796343 246.954964 
L 272.079736 246.968867 
L 272.646521 248.27576 
L 273.213306 248.206244 
L 273.496699 248.067213 
L 273.780091 248.136729 
L 274.346877 250.222196 
L 274.630269 249.874618 
L 274.913662 249.888521 
L 275.197054 252.238148 
L 275.480447 253.280882 
L 275.76384 252.029602 
L 276.047232 251.334446 
L 276.330625 251.612508 
L 276.614017 251.056383 
L 277.180802 253.211366 
L 277.464195 252.863789 
L 278.03098 252.516211 
L 278.314373 252.099117 
L 278.597765 252.029602 
L 278.881158 251.125899 
L 279.447943 253.697976 
L 279.731336 252.933304 
L 280.014728 252.585726 
L 280.298121 253.00282 
L 280.581513 254.393131 
L 280.864906 253.767491 
L 281.148299 253.976038 
L 281.431691 253.976038 
L 281.998476 254.184585 
L 282.281869 254.601678 
L 282.565262 253.906522 
L 282.848654 253.697976 
L 283.132047 234.511674 
L 283.415439 254.184585 
L 283.698832 254.559969 
L 283.982224 254.740709 
L 284.265617 255.157803 
L 284.54901 255.922474 
L 284.832402 255.852959 
L 285.115795 254.393131 
L 285.399187 254.045554 
L 285.68258 253.350398 
L 285.965973 253.419913 
L 286.249365 253.62846 
L 286.532758 253.558944 
L 286.81615 254.115069 
L 287.099543 254.2541 
L 287.382936 254.115069 
L 287.666328 253.697976 
L 287.949721 253.976038 
L 288.233113 254.462647 
L 288.799898 254.810225 
L 289.083291 255.852959 
L 289.366684 255.644412 
L 289.650076 255.922474 
L 290.216861 255.36635 
L 290.500254 255.922474 
L 290.783647 256.061506 
L 291.350432 218.03648 
L 291.917217 255.99199 
L 292.200609 256.728855 
L 292.484002 255.852959 
L 292.767395 255.713928 
L 293.050787 256.131021 
L 293.33418 255.922474 
L 293.617572 255.922474 
L 294.46775 255.227318 
L 294.751143 255.36635 
L 295.034535 255.060481 
L 295.317928 255.227318 
L 295.60132 258.842129 
L 295.884713 258.633582 
L 296.168106 257.173755 
L 296.451498 257.034724 
L 297.301676 257.72988 
L 297.868461 188.992867 
L 298.151854 201.769832 
L 298.435246 242.575482 
L 298.718639 261.483721 
L 299.002031 257.590848 
L 299.285424 256.895693 
L 299.568817 257.173755 
L 300.702387 262.595971 
L 300.98578 264.570213 
L 302.11935 268.157218 
L 302.402743 268.574311 
L 302.686135 268.087702 
L 302.969528 266.766906 
L 303.25292 266.210781 
L 303.536313 260.301956 
L 303.819705 258.98116 
L 304.103098 259.120191 
L 304.386491 258.633582 
L 304.669883 258.703098 
L 304.953276 239.655827 
L 305.236668 258.911645 
L 305.520061 257.243271 
L 305.803454 256.965208 
L 306.086846 257.312786 
L 306.937024 256.61763 
L 307.220416 256.548115 
L 307.787202 257.660364 
L 308.070594 257.382302 
L 308.353987 257.590848 
L 308.637379 257.173755 
L 308.920772 257.104239 
L 309.487557 257.563042 
L 309.77095 257.382302 
L 310.054342 257.451817 
L 310.337735 256.965208 
L 310.90452 258.35552 
L 311.187913 258.216489 
L 311.471305 258.633582 
L 311.754698 258.494551 
L 312.03809 258.564067 
L 312.321483 257.896717 
L 312.604876 258.146973 
L 312.888268 257.72988 
L 313.171661 257.72988 
L 314.588624 265.098532 
L 314.872016 265.724172 
L 315.438801 267.948671 
L 315.722194 268.43528 
L 316.005587 268.018186 
L 316.288979 267.879155 
L 316.572372 268.43528 
L 316.855764 267.879155 
L 317.139157 267.740124 
L 317.42255 267.80964 
L 317.705942 267.670609 
L 317.989335 267.183999 
L 318.272727 267.156193 
L 319.122905 265.793688 
L 319.406298 265.585141 
L 319.68969 265.029016 
L 319.973083 265.585141 
L 320.256475 266.419328 
L 320.539868 267.670609 
L 321.106653 268.921889 
L 321.956831 271.354935 
L 322.240223 271.911059 
L 322.523616 271.563481 
L 322.807009 271.493966 
L 323.090401 271.841544 
L 323.373794 271.841544 
L 323.657186 271.632997 
L 323.940579 272.606215 
L 324.223972 272.411572 
L 324.507364 271.285419 
L 324.790757 271.354935 
L 325.074149 271.285419 
L 325.357542 270.729294 
L 325.924327 268.157218 
L 326.20772 267.601093 
L 326.491112 267.323031 
L 326.774505 267.948671 
L 327.057897 269.575336 
L 327.34129 270.312201 
L 327.624683 270.312201 
L 327.908075 271.285419 
L 328.191468 271.007357 
L 328.47486 271.354935 
L 328.758253 270.381716 
L 329.041646 270.034138 
L 329.325038 270.034138 
L 329.891823 271.827641 
L 330.175216 271.354935 
L 330.742001 269.478014 
L 331.025394 268.852374 
L 331.592179 268.991405 
L 331.875571 269.408498 
L 332.158964 270.034138 
L 332.725749 266.989356 
L 333.009142 267.114484 
L 333.292534 266.002234 
L 333.575927 265.44611 
L 334.142712 264.750954 
L 334.426105 264.403376 
L 334.99289 265.029016 
L 335.276282 264.611923 
L 335.559675 264.611923 
L 335.843068 264.737051 
L 336.12646 263.638704 
L 336.409853 265.029016 
L 336.693245 265.724172 
L 336.976638 264.959501 
L 337.26003 264.889985 
L 337.543423 265.585141 
L 337.826816 265.307079 
L 338.393601 264.125314 
L 338.960386 263.08258 
L 339.527171 262.526455 
L 339.810564 261.900815 
L 343.211275 226.447866 
L 343.494667 226.447866 
L 343.77806 226.795444 
L 344.061453 227.768662 
L 344.344845 227.949402 
L 344.91163 228.950427 
L 345.478415 229.506551 
L 345.761808 231.522503 
L 346.045201 230.966379 
L 346.328593 230.688316 
L 346.895378 231.522503 
L 347.178771 231.202732 
L 347.462164 232.565237 
L 348.312341 233.747002 
L 348.879126 235.137314 
L 349.162519 235.693439 
L 349.445912 236.805688 
L 349.729304 236.736172 
L 350.012697 240.045114 
L 350.296089 241.254686 
L 350.579482 240.211952 
L 350.862875 240.976623 
L 351.42966 241.18517 
L 351.713052 241.949841 
L 351.996445 242.019357 
L 352.56323 244.382887 
L 353.130015 243.298444 
L 353.413408 244.730465 
L 353.6968 244.660949 
L 353.980193 244.869496 
L 354.263586 244.382887 
L 354.546978 244.869496 
L 354.830371 245.773199 
L 355.113763 245.842714 
L 355.397156 246.190292 
L 355.680549 246.954964 
L 355.963941 247.052285 
L 356.247334 247.997697 
L 356.530726 247.511088 
L 357.097511 253.489429 
L 357.380904 252.446695 
L 357.947689 251.612508 
L 358.231082 251.542992 
L 358.514474 252.516211 
L 358.797867 252.057408 
L 359.08126 252.724757 
L 359.364652 255.157803 
L 359.648045 254.740709 
L 359.931437 252.585726 
L 360.21483 253.837007 
L 360.498222 253.62846 
L 361.065008 253.976038 
L 361.631793 253.892619 
L 362.198578 254.671194 
L 362.765363 254.671194 
L 363.048756 254.810225 
L 363.332148 254.810225 
L 363.615541 258.911645 
L 363.898933 259.467769 
L 364.182326 257.521333 
L 364.465719 256.728855 
L 364.749111 257.034724 
L 365.032504 257.104239 
L 365.315896 257.312786 
L 365.599289 257.868911 
L 365.882682 257.868911 
L 366.166074 258.494551 
L 366.449467 258.633582 
L 366.732859 258.286004 
L 367.016252 258.146973 
L 367.299644 257.06253 
L 367.583037 257.868911 
L 367.86643 257.243271 
L 368.433215 257.173755 
L 368.716607 257.312786 
L 369 256.687146 
L 369.850178 258.077458 
L 370.13357 258.007942 
L 370.416963 260.065603 
L 370.700356 260.997112 
L 371.267141 259.120191 
L 371.550533 258.911645 
L 371.833926 259.050676 
L 372.117318 260.162925 
L 372.400711 259.676316 
L 372.684104 259.537285 
L 372.967496 258.911645 
L 373.250889 258.814323 
L 373.817674 258.911645 
L 374.384459 258.007942 
L 374.667852 257.799395 
L 374.951244 258.077458 
L 375.234637 257.799395 
L 375.801422 257.72988 
L 376.084815 257.563042 
L 376.368207 257.799395 
L 376.6516 257.868911 
L 376.934992 257.451817 
L 377.218385 257.72988 
L 377.501778 258.564067 
L 377.78517 258.425035 
L 378.068563 259.328738 
L 378.351955 259.259223 
L 378.635348 258.98116 
L 378.91874 259.731929 
L 379.485526 258.633582 
L 379.768918 258.494551 
L 380.052311 258.216489 
L 380.335703 258.35552 
L 380.619096 257.660364 
L 380.902489 258.007942 
L 381.185881 257.799395 
L 381.469274 258.146973 
L 381.752666 258.897741 
L 382.036059 258.216489 
L 382.319451 258.007942 
L 382.602844 257.938426 
L 382.886237 258.35552 
L 383.169629 258.494551 
L 383.453022 258.425035 
L 383.736414 258.772613 
L 384.3032 260.649534 
L 384.586592 260.816372 
L 385.153377 259.676316 
L 385.43677 259.745832 
L 385.720163 260.162925 
L 386.286948 260.162925 
L 386.57034 261.414206 
L 386.853733 260.510503 
L 387.137125 259.050676 
L 387.703911 258.063554 
L 388.270696 258.772613 
L 388.554088 258.564067 
L 388.837481 258.216489 
L 389.120874 258.494551 
L 389.404266 258.494551 
L 389.687659 258.007942 
L 390.537836 258.313811 
L 391.104622 260.858081 
L 391.388014 260.301956 
L 391.671407 259.328738 
L 391.954799 259.467769 
L 392.521585 258.98116 
L 393.08837 258.911645 
L 394.22194 258.077458 
L 394.505333 258.286004 
L 394.788725 257.660364 
L 395.072118 257.72988 
L 395.922296 257.590848 
L 396.205688 257.72988 
L 396.489081 257.382302 
L 396.772473 257.590848 
L 397.339259 256.895693 
L 398.189436 257.868911 
L 398.472829 258.007942 
L 398.756221 257.590848 
L 399.039614 257.813298 
L 399.323007 257.590848 
L 399.606399 258.286004 
L 400.173184 259.050676 
L 400.456577 258.564067 
L 400.73997 257.382302 
L 401.023362 258.007942 
L 401.590147 257.660364 
L 401.87354 257.563042 
L 402.156932 257.312786 
L 402.440325 257.451817 
L 402.723718 257.312786 
L 403.00711 256.548115 
L 403.290503 257.312786 
L 403.573895 257.104239 
L 404.140681 257.451817 
L 404.424073 258.564067 
L 404.707466 258.35552 
L 405.274251 257.590848 
L 405.841036 257.590848 
L 406.124429 257.938426 
L 406.691214 259.398254 
L 406.974606 259.050676 
L 407.257999 258.146973 
L 407.541392 257.72988 
L 407.824784 258.480648 
L 408.108177 258.146973 
L 408.391569 257.173755 
L 408.674962 256.965208 
L 408.958354 257.451817 
L 409.241747 257.382302 
L 410.091925 256.200537 
L 410.375317 256.409083 
L 410.65871 256.144924 
L 410.942103 256.200537 
L 411.225495 256.409083 
L 411.508888 256.409083 
L 411.79228 257.938426 
L 412.075673 258.286004 
L 412.359066 258.077458 
L 412.642458 256.687146 
L 412.925851 257.382302 
L 413.209243 257.451817 
L 413.492636 258.397229 
L 413.776028 258.772613 
L 414.342814 256.965208 
L 414.626206 257.104239 
L 414.909599 257.521333 
L 415.192991 257.382302 
L 415.476384 256.200537 
L 415.759777 257.173755 
L 416.043169 256.965208 
L 416.326562 257.145949 
L 416.893347 256.200537 
L 417.176739 255.99199 
L 417.460132 257.312786 
L 417.743525 257.173755 
L 418.026917 258.077458 
L 418.31031 257.72988 
L 418.593702 257.72988 
L 419.160488 257.06253 
L 419.44388 257.034724 
L 419.727273 257.72988 
L 420.010665 257.799395 
L 420.294058 258.286004 
L 420.57745 259.189707 
L 420.860843 258.216489 
L 421.144236 257.938426 
L 421.427628 259.328738 
L 421.711021 258.494551 
L 421.994413 256.756661 
L 422.277806 256.756661 
L 422.844591 255.922474 
L 423.127984 256.478599 
L 423.411376 256.756661 
L 423.694769 256.200537 
L 424.261554 257.034724 
L 424.544947 256.61763 
L 424.828339 258.98116 
L 425.395124 258.313811 
L 426.245302 256.965208 
L 426.528695 256.687146 
L 426.812087 257.382302 
L 427.09548 257.521333 
L 427.378873 258.007942 
L 428.22905 255.978087 
L 428.512443 256.756661 
L 429.362621 256.061506 
L 429.929406 255.99199 
L 430.496191 256.548115 
L 431.062976 256.061506 
L 431.629761 257.034724 
L 431.913154 256.409083 
L 432.196546 256.200537 
L 432.479939 256.965208 
L 433.046724 256.756661 
L 433.330117 257.104239 
L 433.613509 256.756661 
L 433.896902 256.728855 
L 434.180295 256.895693 
L 434.463687 256.687146 
L 434.74708 256.339568 
L 435.030472 256.270052 
L 435.597257 256.826177 
L 436.164043 256.756661 
L 436.447435 256.895693 
L 436.730828 256.895693 
L 437.01422 256.756661 
L 438.147791 256.965208 
L 438.431183 256.548115 
L 438.714576 256.687146 
L 439.281361 257.799395 
L 439.564754 257.799395 
L 439.848146 256.645436 
L 440.131539 257.034724 
L 440.414931 257.034724 
L 440.698324 257.173755 
L 440.981717 258.077458 
L 441.831894 257.173755 
L 442.115287 258.007942 
L 442.39868 258.494551 
L 443.248857 262.109362 
L 443.815642 265.863203 
L 444.099035 266.627875 
L 444.66582 268.991405 
L 444.949213 269.686561 
L 445.232605 269.408498 
L 445.799391 268.504796 
L 446.082783 268.296249 
L 446.366176 268.504796 
L 446.649568 267.462062 
L 447.216353 266.766906 
L 447.783139 265.793688 
L 448.066531 265.376594 
L 448.349924 263.819445 
L 449.200102 253.00282 
L 449.483494 245.008527 
L 450.050279 196.903741 
L 450.333672 189.326542 
L 450.617064 168.680413 
L 451.18385 146.282491 
L 451.467242 143.029161 
L 451.750635 141.777881 
L 452.034027 141.221756 
L 452.600813 141.708365 
L 454.301168 146.574456 
L 455.151346 149.633142 
L 456.001524 153.178437 
L 457.701879 165.899789 
L 458.552057 171.25249 
L 459.118842 172.920864 
L 459.96902 176.646899 
L 460.252412 177.23083 
L 461.385983 181.33225 
L 461.669375 181.749343 
L 462.23616 182.861593 
L 462.519553 184.043358 
L 462.802946 185.739538 
L 463.369731 190.438792 
L 463.653123 191.968135 
L 465.070086 202.882082 
L 465.353479 204.550456 
L 465.636872 205.009259 
L 465.920264 205.732221 
L 466.203657 207.122532 
L 467.053834 208.929938 
L 467.62062 211.223952 
L 467.904012 213.30942 
L 468.187405 214.421669 
L 468.470797 213.434548 
L 468.75419 214.699731 
L 469.037583 213.239904 
L 469.320975 215.116825 
L 469.604368 216.090043 
L 470.737938 224.153851 
L 471.021331 226.586897 
L 471.588116 229.437036 
L 472.154901 232.8433 
L 472.438294 232.773784 
L 472.721686 232.426206 
L 473.005079 234.72022 
L 473.288471 235.484892 
L 473.571864 235.137314 
L 473.855256 235.345861 
L 474.138649 235.762954 
L 474.988827 240.003405 
L 475.272219 238.891156 
L 475.555612 238.891156 
L 475.839005 239.238734 
L 476.122397 239.030187 
L 476.40579 239.44728 
L 476.972575 243.131606 
L 478.389538 251.612508 
L 478.67293 253.072335 
L 478.956323 253.837007 
L 479.239716 254.2541 
L 479.523108 256.061506 
L 480.089893 254.726806 
L 480.373286 254.323616 
L 480.656679 254.184585 
L 481.223464 255.157803 
L 481.506856 237.500844 
L 481.790249 258.494551 
L 482.073641 257.243271 
L 482.640427 253.697976 
L 482.923819 253.642363 
L 483.207212 253.837007 
L 485.19096 262.317908 
L 485.474352 262.874033 
L 485.757745 262.901839 
L 486.041138 262.317908 
L 486.32453 263.499673 
L 487.458101 259.467769 
L 487.741493 259.676316 
L 488.024886 259.6068 
L 488.308278 259.884863 
L 488.591671 260.732953 
L 488.875063 258.077458 
L 489.158456 257.104239 
L 489.441849 257.451817 
L 490.008634 256.061506 
L 490.292026 256.339568 
L 490.575419 257.312786 
L 490.858812 259.676316 
L 491.425597 261.900815 
L 491.708989 261.900815 
L 491.992382 262.595971 
L 492.275775 264.194829 
L 492.559167 264.055798 
L 492.84256 263.013064 
L 493.125952 263.916767 
L 493.692737 261.622752 
L 493.97613 261.066628 
L 494.259523 260.065603 
L 494.542915 259.884863 
L 494.826308 259.467769 
L 495.1097 259.537285 
L 495.393093 260.71905 
L 495.676486 258.842129 
L 495.959878 258.564067 
L 496.526663 256.478599 
L 496.810056 256.200537 
L 497.376841 255.36635 
L 497.660234 255.227318 
L 497.943626 254.601678 
L 498.227019 254.323616 
L 498.510411 254.601678 
L 498.793804 253.837007 
L 499.077197 253.976038 
L 499.360589 253.419913 
L 499.643982 253.350398 
L 499.927374 253.642363 
L 500.210767 253.697976 
L 500.494159 253.141851 
L 500.777552 253.141851 
L 501.060945 251.334446 
L 501.344337 244.382887 
L 501.62773 232.565237 
L 502.477908 173.546504 
L 502.7613 161.937401 
L 503.044693 157.877691 
L 503.611478 154.638264 
L 504.178263 155.124874 
L 505.878619 160.964183 
L 506.162011 161.867885 
L 506.445404 162.006917 
L 506.728796 163.814322 
L 507.295582 164.231415 
L 508.145759 167.012039 
L 508.712544 169.653631 
L 508.995937 169.806565 
L 509.27933 170.279271 
L 509.562722 171.461036 
L 509.846115 170.348787 
L 510.129507 170.835396 
L 510.4129 171.669583 
L 511.263078 176.813737 
L 511.829863 181.234928 
L 512.113255 182.444499 
L 512.963433 187.171559 
L 513.246826 187.936231 
L 513.530218 190.021698 
L 513.813611 190.230245 
L 514.097004 190.021698 
L 514.380396 190.925401 
L 514.663789 192.329616 
L 514.947181 192.593775 
L 515.513966 195.513429 
L 515.797359 196.834226 
L 516.080752 196.695194 
L 516.364144 196.695194 
L 524.865922 232.391448 
L 525.7161 238.335031 
L 526.566277 242.297419 
L 527.133062 243.270638 
L 527.416455 244.382887 
L 527.699848 244.521918 
L 527.98324 245.634168 
L 528.266633 245.217074 
L 528.550025 245.842714 
L 528.833418 246.051261 
L 529.116811 246.954964 
L 529.400203 246.954964 
L 529.683596 246.53787 
L 529.966988 246.468355 
L 530.250381 246.607386 
L 530.533773 247.372057 
L 530.817166 247.580604 
L 531.383951 250.500259 
L 531.667344 251.403961 
L 532.234129 255.088287 
L 532.517522 255.783443 
L 533.084307 258.007942 
L 533.367699 258.494551 
L 533.651092 257.521333 
L 533.934485 257.229367 
L 534.50127 257.312786 
L 534.784662 256.756661 
L 535.068055 256.895693 
L 535.351447 256.061506 
L 535.63484 255.713928 
L 535.918233 255.644412 
L 536.201625 254.949256 
L 537.051803 254.059457 
L 537.335196 253.767491 
L 537.618588 253.976038 
L 539.318944 260.649534 
L 539.885729 262.151071 
L 540.169121 262.178877 
L 540.735907 260.927597 
L 541.019299 260.71905 
L 541.302692 260.71905 
L 542.719655 257.980136 
L 543.003047 259.676316 
L 543.28644 258.703098 
L 543.569832 256.756661 
L 543.853225 256.409083 
L 544.136618 256.478599 
L 544.42001 255.644412 
L 544.703403 255.227318 
L 544.986795 254.462647 
L 545.270188 254.879741 
L 545.55358 254.810225 
L 545.836973 254.462647 
L 546.120366 254.810225 
L 546.687151 253.906522 
L 547.253936 253.62846 
L 547.537329 253.837007 
L 547.820721 253.767491 
L 548.387506 254.47655 
L 548.954292 254.045554 
L 549.237684 254.323616 
L 549.804469 253.767491 
L 550.087862 253.767491 
L 550.371254 254.462647 
L 550.654647 252.516211 
L 550.93804 252.863789 
L 551.221432 253.642363 
L 552.355003 258.494551 
L 552.638395 260.371472 
L 552.921788 260.788565 
L 553.488573 262.595971 
L 553.771965 263.221611 
L 554.055358 262.248393 
L 554.338751 261.900815 
L 554.905536 260.997112 
L 555.472321 260.371472 
L 555.755714 259.745832 
L 556.039106 259.537285 
L 556.889284 258.216489 
L 557.172676 257.813298 
L 557.456069 257.660364 
L 557.739462 257.034724 
L 558.022854 256.687146 
L 558.306247 257.451817 
L 558.589639 257.521333 
L 558.873032 258.286004 
L 559.439817 258.216489 
L 560.006602 252.391083 
L 560.289995 251.612508 
L 560.573388 248.762369 
L 561.140173 246.190292 
L 562.557136 235.345861 
L 563.123921 218.314542 
L 563.407313 215.533918 
L 563.974099 213.30942 
L 564.540884 212.405717 
L 564.824276 212.683779 
L 565.957847 217.202293 
L 566.524632 219.565822 
L 567.091417 221.790321 
L 567.37481 222.137899 
L 567.658202 222.137899 
L 568.224987 222.554993 
L 568.50838 223.695048 
L 568.791772 223.111117 
L 569.075165 223.736758 
L 569.358558 223.945304 
L 569.925343 224.64046 
L 570.208735 224.362398 
L 570.775521 225.474647 
L 571.058913 225.75271 
L 571.342306 225.75271 
L 571.625698 226.281028 
L 573.609446 238.056969 
L 574.176232 240.281467 
L 574.743017 240.698561 
L 575.026409 240.768076 
L 575.309802 241.741295 
L 575.593195 241.532748 
L 575.876587 242.019357 
L 576.15998 242.853544 
L 576.443372 243.201122 
L 576.726765 242.644997 
L 577.29355 242.464257 
L 577.576943 242.575482 
L 578.42712 243.757247 
L 579.277298 247.858666 
L 579.844083 251.195414 
L 580.410868 252.655242 
L 580.694261 254.045554 
L 580.977654 254.184585 
L 581.261046 253.767491 
L 581.544439 253.141851 
L 582.111224 253.558944 
L 582.678009 252.655242 
L 582.961402 252.55792 
L 583.244794 252.794273 
L 583.528187 252.724757 
L 583.811579 252.307664 
L 584.094972 252.516211 
L 584.378365 251.195414 
L 584.661757 251.195414 
L 584.94515 250.708805 
L 585.228542 252.655242 
L 585.511935 253.280882 
L 585.795328 254.393131 
L 586.07872 254.393131 
L 586.928898 258.077458 
L 587.212291 258.842129 
L 587.495683 260.09341 
L 587.779076 260.301956 
L 588.345861 258.633582 
L 588.629253 258.286004 
L 588.912646 257.479624 
L 589.196039 257.173755 
L 589.479431 257.034724 
L 589.762824 256.131021 
L 590.329609 255.783443 
L 590.613002 255.644412 
L 590.896394 254.949256 
L 591.179787 255.018772 
L 591.463179 253.489429 
L 591.746572 253.22527 
L 592.029964 253.280882 
L 592.313357 253.072335 
L 592.59675 253.419913 
L 592.880142 252.377179 
L 593.163535 252.307664 
L 593.446927 251.751539 
L 593.73032 252.029602 
L 594.297105 251.612508 
L 594.580498 250.972965 
L 594.86389 250.986868 
L 595.147283 250.63929 
L 595.430675 250.63929 
L 595.997461 249.805103 
L 596.280853 248.970916 
L 597.131031 242.992575 
L 597.414424 236.624947 
L 597.981209 217.341324 
L 598.264601 209.277516 
L 598.831386 201.283223 
L 599.114779 198.363569 
L 599.398172 196.695194 
L 599.681564 195.721976 
L 599.964957 196.13907 
L 600.248349 196.333713 
L 601.098527 196.208585 
L 601.38192 196.347617 
L 601.948705 195.374398 
L 602.232098 195.791492 
L 602.51549 195.861007 
L 602.798883 196.347617 
L 603.082275 196.583969 
L 603.365668 196.000039 
L 603.64906 194.679242 
L 604.215846 184.877545 
L 604.499238 183.348202 
L 605.066023 182.514015 
L 605.349416 182.374984 
L 605.632809 182.653046 
L 606.482986 186.267856 
L 607.899949 193.497477 
L 608.183342 194.818274 
L 608.466734 194.679242 
L 608.750127 195.652461 
L 609.03352 195.833201 
L 609.316912 195.721976 
L 610.16709 196.973257 
L 610.733875 197.251319 
L 611.30066 194.748758 
L 611.584053 194.262149 
L 612.150838 194.331664 
L 612.434231 194.609727 
L 614.134586 203.160144 
L 614.984764 205.732221 
L 615.551549 206.496892 
L 615.834942 207.47011 
L 616.118334 207.609142 
L 616.685119 208.443329 
L 616.968512 208.929938 
L 617.81869 213.656998 
L 618.102082 211.154436 
L 618.385475 212.683779 
L 618.668867 212.753295 
L 618.95226 212.961842 
L 619.235653 212.961842 
L 619.802438 216.507137 
L 620.08583 216.92423 
L 620.652616 222.485477 
L 620.936008 224.431914 
L 621.219401 225.335616 
L 621.502793 227.699146 
L 621.786186 228.811396 
L 622.352971 228.185755 
L 622.636364 229.437036 
L 622.636364 229.437036 
" clip-path="url(#p628f1a360a)" style="fill: none; stroke: #1f77b4; stroke-width: 1.5; stroke-linecap: square"/>
   </g>
   <g id="line2d_13">
    <path d="M 115.363636 164.827073 
L 115.930422 165.744473 
L 116.213814 187.102043 
L 119.614525 191.797215 
L 119.897918 191.289841 
L 120.18131 190.287318 
L 120.464703 190.185842 
L 121.031488 190.750028 
L 122.731844 192.982819 
L 123.015236 205.801736 
L 127.83291 211.308174 
L 128.116303 211.541342 
L 128.399695 212.034852 
L 129.533266 201.115047 
L 129.816658 117.725488 
L 130.950229 120.03454 
L 132.933977 124.292469 
L 133.217369 123.997601 
L 133.500762 123.202692 
L 133.784154 123.323965 
L 134.917725 124.666705 
L 136.334688 127.534334 
L 136.61808 145.781979 
L 141.435754 154.388236 
L 143.13611 157.318011 
L 143.419502 175.701487 
L 147.953784 182.357534 
L 148.520569 183.26997 
L 148.803961 182.494946 
L 149.370747 176.9445 
L 149.937532 165.406189 
L 150.220924 179.038235 
L 150.504317 178.227556 
L 151.354495 151.856024 
L 151.637887 148.514173 
L 151.92128 147.466697 
L 152.204672 147.204306 
L 152.488065 147.311969 
L 153.05485 148.168617 
L 153.621635 149.19482 
L 153.905028 149.420861 
L 154.755206 147.220151 
L 155.605383 142.250473 
L 155.888776 140.608211 
L 156.172169 140.082822 
L 156.455561 140.270933 
L 156.738954 140.702478 
L 157.022346 117.030332 
L 162.123413 127.706197 
L 163.540376 130.567169 
L 163.823768 141.430303 
L 167.791265 148.782877 
L 168.074657 148.319752 
L 168.924835 131.197811 
L 169.208228 129.625925 
L 169.49162 129.223394 
L 169.775013 129.326619 
L 170.341798 130.270624 
L 170.62519 113.067944 
L 176.00965 124.547313 
L 177.14322 126.879124 
L 177.426612 139.90096 
L 183.094464 148.143375 
L 183.944642 149.34515 
L 184.228035 167.846226 
L 189.895886 174.747705 
L 190.746064 175.753967 
L 191.029457 190.369276 
L 196.130523 197.019697 
L 197.547486 198.801372 
L 197.830879 212.475233 
L 203.215338 218.205599 
L 204.348908 219.369109 
L 204.632301 235.554407 
L 210.300152 240.174885 
L 211.717115 241.147911 
L 212.000508 241.301952 
L 212.567293 222.140263 
L 212.850686 217.023498 
L 213.134078 215.590596 
L 213.417471 215.371724 
L 213.984256 215.764793 
L 216.534789 218.331937 
L 216.818182 218.99536 
L 217.101574 215.883597 
L 217.66836 197.75677 
L 217.951752 193.532135 
L 218.235145 192.421262 
L 218.518537 192.349727 
L 219.085322 192.917933 
L 227.870493 203.891286 
L 232.971559 209.799524 
L 238.072626 215.383544 
L 238.356018 215.684624 
L 238.639411 172.781833 
L 243.457085 179.98597 
L 245.15744 182.438241 
L 245.440833 197.181804 
L 250.541899 203.519058 
L 251.108685 203.205985 
L 251.392077 198.727891 
L 251.67547 192.397649 
L 251.958862 189.128922 
L 252.242255 203.257466 
L 252.525648 203.191944 
L 253.092433 203.716653 
L 258.760284 210.257466 
L 259.043677 221.581775 
L 264.428136 226.785584 
L 269.812595 231.688546 
L 275.480447 236.543682 
L 281.148299 241.103875 
L 286.81615 245.387071 
L 287.382936 245.800814 
L 287.666328 254.115069 
L 292.767395 258.150013 
L 293.050787 255.713928 
L 297.301676 258.95619 
L 297.585069 259.462526 
L 297.868461 257.833599 
L 298.435246 250.199296 
L 298.718639 248.694147 
L 299.002031 248.5074 
L 299.852209 249.199433 
L 305.236668 253.744575 
L 310.90452 258.236782 
L 316.572372 262.439034 
L 322.240223 266.361929 
L 327.908075 270.016778 
L 333.575927 273.415445 
L 339.527171 276.721746 
L 339.810564 276.872727 
L 343.211275 229.923645 
L 343.494667 229.231827 
L 343.77806 229.179536 
L 344.628238 229.711164 
L 350.579482 233.834716 
L 350.862875 240.045114 
L 356.247334 244.181654 
L 356.530726 246.885448 
L 362.198578 251.803623 
L 363.048756 252.514964 
L 363.332148 254.705952 
L 369.566785 258.497033 
L 369.850178 258.663226 
L 370.13357 257.173755 
L 376.368207 260.800516 
L 376.6516 260.959506 
L 376.934992 257.868911 
L 378.068563 258.557424 
L 378.351955 258.505724 
L 378.635348 257.89909 
L 379.485526 253.056405 
L 379.768918 252.783395 
L 380.052311 251.636676 
L 380.619096 247.367892 
L 380.902489 246.321026 
L 381.185881 245.802831 
L 381.469274 245.771232 
L 382.319451 246.287019 
L 383.453022 247.098041 
L 383.736414 258.230392 
L 389.404266 262.433063 
L 390.254444 263.039099 
L 390.537836 258.146973 
L 394.788725 261.844551 
L 395.072118 262.044818 
L 395.35551 262.421973 
L 395.922296 260.9507 
L 396.205688 261.027646 
L 396.489081 260.96836 
L 397.055866 261.172389 
L 397.339259 257.625606 
L 402.156932 261.826247 
L 403.857288 263.236535 
L 404.140681 257.312786 
L 411.225495 260.964158 
L 411.79228 261.245405 
L 412.075673 256.061506 
L 417.743525 259.070815 
L 418.026917 255.978087 
L 424.828339 259.57476 
L 431.062976 262.666533 
L 431.346369 256.478599 
L 433.896902 257.799039 
L 434.463687 257.725328 
L 435.597257 257.195836 
L 436.447435 257.514993 
L 437.864398 258.244695 
L 438.147791 256.826177 
L 439.564754 257.50859 
L 440.981717 256.184534 
L 441.548502 256.197055 
L 442.682072 256.719502 
L 444.099035 257.396576 
L 444.382428 257.08873 
L 445.232605 254.868484 
L 445.515998 254.647723 
L 446.082783 254.681667 
L 446.366176 268.991405 
L 447.499746 269.411741 
L 447.783139 266.627875 
L 448.633316 267.023658 
L 448.916709 266.898807 
L 449.766887 263.565935 
L 450.333672 263.022233 
L 450.617064 262.114636 
L 450.900457 259.895135 
L 451.467242 254.083323 
L 451.750635 146.783003 
L 452.034027 145.154134 
L 452.31742 144.270938 
L 452.600813 144.133328 
L 452.884205 144.310868 
L 453.45099 144.943633 
L 453.734383 145.094308 
L 454.017776 145.396127 
L 455.434738 147.898949 
L 461.385983 158.768618 
L 465.070086 165.139718 
L 465.353479 200.170974 
L 470.171153 207.969382 
L 471.871508 210.617759 
L 472.154901 227.949402 
L 476.689182 233.771435 
L 478.67293 236.208871 
L 478.956323 250.847837 
L 483.490604 255.25507 
L 485.474352 257.091787 
L 485.757745 262.109362 
L 490.575419 265.990552 
L 492.275775 267.292429 
L 492.559167 261.900815 
L 497.376841 265.796987 
L 499.077197 267.104668 
L 499.360589 253.837007 
L 500.210767 254.665209 
L 500.494159 254.768361 
L 501.060945 253.995344 
L 501.344337 254.111376 
L 501.62773 253.958158 
L 501.911122 251.898915 
L 502.7613 239.248738 
L 503.328085 234.619427 
L 503.89487 224.681411 
L 504.178263 222.84428 
L 504.745048 221.139212 
L 505.028441 220.802193 
L 505.311833 220.75269 
L 505.878619 221.160659 
L 506.162011 158.962134 
L 508.995937 164.707935 
L 512.680041 172.05318 
L 512.963433 183.487233 
L 513.246826 183.635158 
L 513.813611 184.344832 
L 515.230574 186.804952 
L 516.364144 188.841528 
L 527.98324 207.044458 
L 532.800914 214.461228 
L 533.084307 214.884128 
L 533.367699 255.811249 
L 536.485018 257.80246 
L 536.76841 257.714239 
L 537.051803 257.404595 
L 537.335196 257.362961 
L 538.185373 257.72758 
L 539.885729 258.725264 
L 540.169121 261.066628 
L 544.986795 265.021506 
L 546.687151 266.348773 
L 546.970543 254.288858 
L 550.654647 257.731979 
L 550.93804 257.774428 
L 551.221432 257.5768 
L 551.504825 257.121917 
L 552.355003 254.789963 
L 552.921788 251.61396 
L 553.20518 250.882539 
L 553.488573 250.622073 
L 553.771965 260.788565 
L 554.055358 260.76625 
L 554.622143 261.005503 
L 554.905536 261.264251 
L 555.188928 261.049509 
L 555.472321 260.332123 
L 556.039106 256.068487 
L 556.322499 255.794447 
L 556.605891 255.339021 
L 556.889284 255.177123 
L 557.456069 255.231344 
L 557.739462 255.678475 
L 558.022854 254.425774 
L 558.306247 253.822699 
L 558.589639 249.970405 
L 558.873032 243.591964 
L 559.156425 239.930338 
L 559.439817 238.094263 
L 560.006602 236.225258 
L 560.289995 235.833429 
L 560.573388 253.141851 
L 560.85678 250.168751 
L 561.140173 245.7766 
L 562.840528 207.546402 
L 563.974099 182.108997 
L 564.257491 179.825303 
L 564.824276 177.812579 
L 565.107669 177.353402 
L 565.391061 177.266975 
L 565.674454 177.450627 
L 566.241239 178.232759 
L 567.091417 179.74846 
L 567.37481 219.440694 
L 571.342306 222.888646 
L 571.625698 222.717309 
L 572.475876 221.438444 
L 572.759269 221.389428 
L 573.326054 221.667273 
L 573.892839 222.108659 
L 574.176232 237.709391 
L 574.459624 237.875715 
L 574.743017 238.176649 
L 575.026409 238.026966 
L 575.309802 237.47345 
L 575.593195 237.300141 
L 576.443372 237.74627 
L 578.42712 239.334565 
L 580.694261 241.192525 
L 580.977654 252.411937 
L 585.795328 256.977038 
L 587.495683 258.511277 
L 587.779076 258.077458 
L 592.59675 262.246158 
L 594.297105 263.645596 
L 594.580498 251.26493 
L 594.86389 251.222932 
L 595.147283 250.656241 
L 595.714068 247.796296 
L 596.280853 244.778898 
L 596.564246 243.71907 
L 596.847638 243.100417 
L 597.414424 242.639412 
L 597.697816 241.185853 
L 598.547994 230.767048 
L 598.831386 228.854538 
L 599.114779 227.971935 
L 599.398172 227.650125 
L 599.681564 227.606603 
L 600.248349 227.866551 
L 601.098527 228.503843 
L 601.38192 196.250295 
L 601.665312 196.892369 
L 601.948705 196.578246 
L 602.232098 195.705522 
L 602.51549 195.373563 
L 602.798883 194.853399 
L 603.082275 193.82442 
L 603.64906 188.806856 
L 603.932453 188.43218 
L 604.215846 188.268853 
L 604.782631 188.584444 
L 605.632809 189.569037 
L 607.899949 192.662008 
L 608.183342 190.994916 
L 610.16709 194.49715 
L 610.450482 194.601893 
L 610.733875 193.879383 
L 611.017268 191.55453 
L 611.584053 181.822848 
L 612.150838 178.488535 
L 612.434231 177.888483 
L 612.717623 177.556096 
L 613.001016 177.56575 
L 613.567801 178.161285 
L 614.701371 180.129192 
L 614.984764 203.646753 
L 615.834942 204.851776 
L 621.502793 213.654408 
L 621.786186 224.431914 
L 622.636364 225.589423 
L 622.636364 225.589423 
" clip-path="url(#p628f1a360a)" style="fill: none; stroke: #ff7f0e; stroke-width: 1.5; stroke-linecap: square"/>
   </g>
   <g id="patch_3">
    <path d="M 90 288 
L 90 43.2 
" style="fill: none; stroke: #000000; stroke-width: 0.8; stroke-linejoin: miter; stroke-linecap: square"/>
   </g>
   <g id="patch_4">
    <path d="M 648 288 
L 648 43.2 
" style="fill: none; stroke: #000000; stroke-width: 0.8; stroke-linejoin: miter; stroke-linecap: square"/>
   </g>
   <g id="patch_5">
    <path d="M 90 288 
L 648 288 
" style="fill: none; stroke: #000000; stroke-width: 0.8; stroke-linejoin: miter; stroke-linecap: square"/>
   </g>
   <g id="patch_6">
    <path d="M 90 43.2 
L 648 43.2 
" style="fill: none; stroke: #000000; stroke-width: 0.8; stroke-linejoin: miter; stroke-linecap: square"/>
   </g>
   <g id="text_13">
    <!-- ARB049 -->
    <g transform="translate(345.1575 37.2) scale(0.12 -0.12)">
     <defs>
      <path id="DejaVuSans-41" d="M 2188 4044 
L 1331 1722 
L 3047 1722 
L 2188 4044 
z
M 1831 4666 
L 2547 4666 
L 4325 0 
L 3669 0 
L 3244 1197 
L 1141 1197 
L 716 0 
L 50 0 
L 1831 4666 
z
" transform="scale(0.015625)"/>
      <path id="DejaVuSans-52" d="M 2841 2188 
Q 3044 2119 3236 1894 
Q 3428 1669 3622 1275 
L 4263 0 
L 3584 0 
L 2988 1197 
Q 2756 1666 2539 1819 
Q 2322 1972 1947 1972 
L 1259 1972 
L 1259 0 
L 628 0 
L 628 4666 
L 2053 4666 
Q 2853 4666 3247 4331 
Q 3641 3997 3641 3322 
Q 3641 2881 3436 2590 
Q 3231 2300 2841 2188 
z
M 1259 4147 
L 1259 2491 
L 2053 2491 
Q 2509 2491 2742 2702 
Q 2975 2913 2975 3322 
Q 2975 3731 2742 3939 
Q 2509 4147 2053 4147 
L 1259 4147 
z
" transform="scale(0.015625)"/>
      <path id="DejaVuSans-42" d="M 1259 2228 
L 1259 519 
L 2272 519 
Q 2781 519 3026 730 
Q 3272 941 3272 1375 
Q 3272 1813 3026 2020 
Q 2781 2228 2272 2228 
L 1259 2228 
z
M 1259 4147 
L 1259 2741 
L 2194 2741 
Q 2656 2741 2882 2914 
Q 3109 3088 3109 3444 
Q 3109 3797 2882 3972 
Q 2656 4147 2194 4147 
L 1259 4147 
z
M 628 4666 
L 2241 4666 
Q 2963 4666 3353 4366 
Q 3744 4066 3744 3513 
Q 3744 3084 3544 2831 
Q 3344 2578 2956 2516 
Q 3422 2416 3680 2098 
Q 3938 1781 3938 1306 
Q 3938 681 3513 340 
Q 3088 0 2303 0 
L 628 0 
L 628 4666 
z
" transform="scale(0.015625)"/>
     </defs>
     <use xlink:href="#DejaVuSans-41"/>
     <use xlink:href="#DejaVuSans-52" x="68.408203"/>
     <use xlink:href="#DejaVuSans-42" x="137.890625"/>
     <use xlink:href="#DejaVuSans-30" x="206.494141"/>
     <use xlink:href="#DejaVuSans-34" x="270.117188"/>
     <use xlink:href="#DejaVuSans-39" x="333.740234"/>
    </g>
   </g>
   <g id="legend_1">
    <g id="patch_7">
     <path d="M 559.04375 80.55625 
L 641 80.55625 
Q 643 80.55625 643 78.55625 
L 643 50.2 
Q 643 48.2 641 48.2 
L 559.04375 48.2 
Q 557.04375 48.2 557.04375 50.2 
L 557.04375 78.55625 
Q 557.04375 80.55625 559.04375 80.55625 
z
" style="fill: #ffffff; opacity: 0.8; stroke: #cccccc; stroke-linejoin: miter"/>
    </g>
    <g id="line2d_14">
     <path d="M 561.04375 56.298437 
L 571.04375 56.298437 
L 581.04375 56.298437 
" style="fill: none; stroke: #1f77b4; stroke-width: 1.5; stroke-linecap: square"/>
    </g>
    <g id="text_14">
     <!-- measured -->
     <g transform="translate(589.04375 59.798437) scale(0.1 -0.1)">
      <defs>
       <path id="DejaVuSans-6d" d="M 3328 2828 
Q 3544 3216 3844 3400 
Q 4144 3584 4550 3584 
Q 5097 3584 5394 3201 
Q 5691 2819 5691 2113 
L 5691 0 
L 5113 0 
L 5113 2094 
Q 5113 2597 4934 2840 
Q 4756 3084 4391 3084 
Q 3944 3084 3684 2787 
Q 3425 2491 3425 1978 
L 3425 0 
L 2847 0 
L 2847 2094 
Q 2847 2600 2669 2842 
Q 2491 3084 2119 3084 
Q 1678 3084 1418 2786 
Q 1159 2488 1159 1978 
L 1159 0 
L 581 0 
L 581 3500 
L 1159 3500 
L 1159 2956 
Q 1356 3278 1631 3431 
Q 1906 3584 2284 3584 
Q 2666 3584 2933 3390 
Q 3200 3197 3328 2828 
z
" transform="scale(0.015625)"/>
       <path id="DejaVuSans-61" d="M 2194 1759 
Q 1497 1759 1228 1600 
Q 959 1441 959 1056 
Q 959 750 1161 570 
Q 1363 391 1709 391 
Q 2188 391 2477 730 
Q 2766 1069 2766 1631 
L 2766 1759 
L 2194 1759 
z
M 3341 1997 
L 3341 0 
L 2766 0 
L 2766 531 
Q 2569 213 2275 61 
Q 1981 -91 1556 -91 
Q 1019 -91 701 211 
Q 384 513 384 1019 
Q 384 1609 779 1909 
Q 1175 2209 1959 2209 
L 2766 2209 
L 2766 2266 
Q 2766 2663 2505 2880 
Q 2244 3097 1772 3097 
Q 1472 3097 1187 3025 
Q 903 2953 641 2809 
L 641 3341 
Q 956 3463 1253 3523 
Q 1550 3584 1831 3584 
Q 2591 3584 2966 3190 
Q 3341 2797 3341 1997 
z
" transform="scale(0.015625)"/>
       <path id="DejaVuSans-75" d="M 544 1381 
L 544 3500 
L 1119 3500 
L 1119 1403 
Q 1119 906 1312 657 
Q 1506 409 1894 409 
Q 2359 409 2629 706 
Q 2900 1003 2900 1516 
L 2900 3500 
L 3475 3500 
L 3475 0 
L 2900 0 
L 2900 538 
Q 2691 219 2414 64 
Q 2138 -91 1772 -91 
Q 1169 -91 856 284 
Q 544 659 544 1381 
z
M 1991 3584 
L 1991 3584 
z
" transform="scale(0.015625)"/>
       <path id="DejaVuSans-64" d="M 2906 2969 
L 2906 4863 
L 3481 4863 
L 3481 0 
L 2906 0 
L 2906 525 
Q 2725 213 2448 61 
Q 2172 -91 1784 -91 
Q 1150 -91 751 415 
Q 353 922 353 1747 
Q 353 2572 751 3078 
Q 1150 3584 1784 3584 
Q 2172 3584 2448 3432 
Q 2725 3281 2906 2969 
z
M 947 1747 
Q 947 1113 1208 752 
Q 1469 391 1925 391 
Q 2381 391 2643 752 
Q 2906 1113 2906 1747 
Q 2906 2381 2643 2742 
Q 2381 3103 1925 3103 
Q 1469 3103 1208 2742 
Q 947 2381 947 1747 
z
" transform="scale(0.015625)"/>
      </defs>
      <use xlink:href="#DejaVuSans-6d"/>
      <use xlink:href="#DejaVuSans-65" x="97.412109"/>
      <use xlink:href="#DejaVuSans-61" x="158.935547"/>
      <use xlink:href="#DejaVuSans-73" x="220.214844"/>
      <use xlink:href="#DejaVuSans-75" x="272.314453"/>
      <use xlink:href="#DejaVuSans-72" x="335.693359"/>
      <use xlink:href="#DejaVuSans-65" x="374.556641"/>
      <use xlink:href="#DejaVuSans-64" x="436.080078"/>
     </g>
    </g>
    <g id="line2d_15">
     <path d="M 561.04375 70.976562 
L 571.04375 70.976562 
L 581.04375 70.976562 
" style="fill: none; stroke: #ff7f0e; stroke-width: 1.5; stroke-linecap: square"/>
    </g>
    <g id="text_15">
     <!-- predicted -->
     <g transform="translate(589.04375 74.476562) scale(0.1 -0.1)">
      <defs>
       <path id="DejaVuSans-70" d="M 1159 525 
L 1159 -1331 
L 581 -1331 
L 581 3500 
L 1159 3500 
L 1159 2969 
Q 1341 3281 1617 3432 
Q 1894 3584 2278 3584 
Q 2916 3584 3314 3078 
Q 3713 2572 3713 1747 
Q 3713 922 3314 415 
Q 2916 -91 2278 -91 
Q 1894 -91 1617 61 
Q 1341 213 1159 525 
z
M 3116 1747 
Q 3116 2381 2855 2742 
Q 2594 3103 2138 3103 
Q 1681 3103 1420 2742 
Q 1159 2381 1159 1747 
Q 1159 1113 1420 752 
Q 1681 391 2138 391 
Q 2594 391 2855 752 
Q 3116 1113 3116 1747 
z
" transform="scale(0.015625)"/>
       <path id="DejaVuSans-69" d="M 603 3500 
L 1178 3500 
L 1178 0 
L 603 0 
L 603 3500 
z
M 603 4863 
L 1178 4863 
L 1178 4134 
L 603 4134 
L 603 4863 
z
" transform="scale(0.015625)"/>
       <path id="DejaVuSans-63" d="M 3122 3366 
L 3122 2828 
Q 2878 2963 2633 3030 
Q 2388 3097 2138 3097 
Q 1578 3097 1268 2742 
Q 959 2388 959 1747 
Q 959 1106 1268 751 
Q 1578 397 2138 397 
Q 2388 397 2633 464 
Q 2878 531 3122 666 
L 3122 134 
Q 2881 22 2623 -34 
Q 2366 -91 2075 -91 
Q 1284 -91 818 406 
Q 353 903 353 1747 
Q 353 2603 823 3093 
Q 1294 3584 2113 3584 
Q 2378 3584 2631 3529 
Q 2884 3475 3122 3366 
z
" transform="scale(0.015625)"/>
      </defs>
      <use xlink:href="#DejaVuSans-70"/>
      <use xlink:href="#DejaVuSans-72" x="63.476562"/>
      <use xlink:href="#DejaVuSans-65" x="102.339844"/>
      <use xlink:href="#DejaVuSans-64" x="163.863281"/>
      <use xlink:href="#DejaVuSans-69" x="227.339844"/>
      <use xlink:href="#DejaVuSans-63" x="255.123047"/>
      <use xlink:href="#DejaVuSans-74" x="310.103516"/>
      <use xlink:href="#DejaVuSans-65" x="349.3125"/>
      <use xlink:href="#DejaVuSans-64" x="410.835938"/>
     </g>
    </g>
   </g>
  </g>
 </g>
 <defs>
  <clipPath id="p628f1a360a">
   <rect x="90" y="43.2" width="558" height="244.8"/>
  </clipPath>
 </defs>
</svg>
