<?xml version="1.0" encoding="utf-8" standalone="no"?>
<!DOCTYPE svg PUBLIC "-//W3C//DTD SVG 1.1//EN"
  "http://www.w3.org/Graphics/SVG/1.1/DTD/svg11.dtd">
<svg xmlns:xlink="http://www.w3.org/1999/xlink" width="720pt" height="360pt" viewBox="0 0 720 360" xmlns="http://www.w3.org/2000/svg" version="1.1">
 <metadata>
  <rdf:RDF xmlns:dc="http://purl.org/dc/elements/1.1/" xmlns:cc="http://creativecommons.org/ns#" xmlns:rdf="http://www.w3.org/1999/02/22-rdf-syntax-ns#">
   <cc:Work>
    <dc:type rdf:resource="http://purl.org/dc/dcmitype/StillImage"/>
    <dc:date>2023-10-23T10:55:38.707926</dc:date>
    <dc:format>image/svg+xml</dc:format>
    <dc:creator>
     <cc:Agent>
      <dc:title>Matplotlib v3.7.1, https://matplotlib.org/</dc:title>
     </cc:Agent>
    </dc:creator>
   </cc:Work>
  </rdf:RDF>
 </metadata>
 <defs>
  <style type="text/css">*{stroke-linejoin: round; stroke-linecap: butt}</style>
 </defs>
 <g id="figure_1">
  <g id="patch_1">
   <path d="M 0 360 
L 720 360 
L 720 0 
L 0 0 
z
" style="fill: #ffffff"/>
  </g>
  <g id="axes_1">
   <g id="patch_2">
    <path d="M 90 288 
L 648 288 
L 648 43.2 
L 90 43.2 
z
" style="fill: #ffffff"/>
   </g>
   <g id="matplotlib.axis_1">
    <g id="xtick_1">
     <g id="line2d_1">
      <defs>
       <path id="ma724bc9dc4" d="M 0 0 
L 0 3.5 
" style="stroke: #000000; stroke-width: 0.8"/>
      </defs>
      <g>
       <use xlink:href="#ma724bc9dc4" x="93.675016" y="288" style="stroke: #000000; stroke-width: 0.8"/>
      </g>
     </g>
     <g id="text_1">
      <!-- 2023-09-17 -->
      <g transform="translate(32.031675 337.765903) rotate(-30) scale(0.12 -0.12)">
       <defs>
        <path id="DejaVuSans-32" d="M 1228 531 
L 3431 531 
L 3431 0 
L 469 0 
L 469 531 
Q 828 903 1448 1529 
Q 2069 2156 2228 2338 
Q 2531 2678 2651 2914 
Q 2772 3150 2772 3378 
Q 2772 3750 2511 3984 
Q 2250 4219 1831 4219 
Q 1534 4219 1204 4116 
Q 875 4013 500 3803 
L 500 4441 
Q 881 4594 1212 4672 
Q 1544 4750 1819 4750 
Q 2544 4750 2975 4387 
Q 3406 4025 3406 3419 
Q 3406 3131 3298 2873 
Q 3191 2616 2906 2266 
Q 2828 2175 2409 1742 
Q 1991 1309 1228 531 
z
" transform="scale(0.015625)"/>
        <path id="DejaVuSans-30" d="M 2034 4250 
Q 1547 4250 1301 3770 
Q 1056 3291 1056 2328 
Q 1056 1369 1301 889 
Q 1547 409 2034 409 
Q 2525 409 2770 889 
Q 3016 1369 3016 2328 
Q 3016 3291 2770 3770 
Q 2525 4250 2034 4250 
z
M 2034 4750 
Q 2819 4750 3233 4129 
Q 3647 3509 3647 2328 
Q 3647 1150 3233 529 
Q 2819 -91 2034 -91 
Q 1250 -91 836 529 
Q 422 1150 422 2328 
Q 422 3509 836 4129 
Q 1250 4750 2034 4750 
z
" transform="scale(0.015625)"/>
        <path id="DejaVuSans-33" d="M 2597 2516 
Q 3050 2419 3304 2112 
Q 3559 1806 3559 1356 
Q 3559 666 3084 287 
Q 2609 -91 1734 -91 
Q 1441 -91 1130 -33 
Q 819 25 488 141 
L 488 750 
Q 750 597 1062 519 
Q 1375 441 1716 441 
Q 2309 441 2620 675 
Q 2931 909 2931 1356 
Q 2931 1769 2642 2001 
Q 2353 2234 1838 2234 
L 1294 2234 
L 1294 2753 
L 1863 2753 
Q 2328 2753 2575 2939 
Q 2822 3125 2822 3475 
Q 2822 3834 2567 4026 
Q 2313 4219 1838 4219 
Q 1578 4219 1281 4162 
Q 984 4106 628 3988 
L 628 4550 
Q 988 4650 1302 4700 
Q 1616 4750 1894 4750 
Q 2613 4750 3031 4423 
Q 3450 4097 3450 3541 
Q 3450 3153 3228 2886 
Q 3006 2619 2597 2516 
z
" transform="scale(0.015625)"/>
        <path id="DejaVuSans-2d" d="M 313 2009 
L 1997 2009 
L 1997 1497 
L 313 1497 
L 313 2009 
z
" transform="scale(0.015625)"/>
        <path id="DejaVuSans-39" d="M 703 97 
L 703 672 
Q 941 559 1184 500 
Q 1428 441 1663 441 
Q 2288 441 2617 861 
Q 2947 1281 2994 2138 
Q 2813 1869 2534 1725 
Q 2256 1581 1919 1581 
Q 1219 1581 811 2004 
Q 403 2428 403 3163 
Q 403 3881 828 4315 
Q 1253 4750 1959 4750 
Q 2769 4750 3195 4129 
Q 3622 3509 3622 2328 
Q 3622 1225 3098 567 
Q 2575 -91 1691 -91 
Q 1453 -91 1209 -44 
Q 966 3 703 97 
z
M 1959 2075 
Q 2384 2075 2632 2365 
Q 2881 2656 2881 3163 
Q 2881 3666 2632 3958 
Q 2384 4250 1959 4250 
Q 1534 4250 1286 3958 
Q 1038 3666 1038 3163 
Q 1038 2656 1286 2365 
Q 1534 2075 1959 2075 
z
" transform="scale(0.015625)"/>
        <path id="DejaVuSans-31" d="M 794 531 
L 1825 531 
L 1825 4091 
L 703 3866 
L 703 4441 
L 1819 4666 
L 2450 4666 
L 2450 531 
L 3481 531 
L 3481 0 
L 794 0 
L 794 531 
z
" transform="scale(0.015625)"/>
        <path id="DejaVuSans-37" d="M 525 4666 
L 3525 4666 
L 3525 4397 
L 1831 0 
L 1172 0 
L 2766 4134 
L 525 4134 
L 525 4666 
z
" transform="scale(0.015625)"/>
       </defs>
       <use xlink:href="#DejaVuSans-32"/>
       <use xlink:href="#DejaVuSans-30" x="63.623047"/>
       <use xlink:href="#DejaVuSans-32" x="127.246094"/>
       <use xlink:href="#DejaVuSans-33" x="190.869141"/>
       <use xlink:href="#DejaVuSans-2d" x="254.492188"/>
       <use xlink:href="#DejaVuSans-30" x="290.576172"/>
       <use xlink:href="#DejaVuSans-39" x="354.199219"/>
       <use xlink:href="#DejaVuSans-2d" x="417.822266"/>
       <use xlink:href="#DejaVuSans-31" x="453.90625"/>
       <use xlink:href="#DejaVuSans-37" x="517.529297"/>
      </g>
     </g>
    </g>
    <g id="xtick_2">
     <g id="line2d_2">
      <g>
       <use xlink:href="#ma724bc9dc4" x="151.511337" y="288" style="stroke: #000000; stroke-width: 0.8"/>
      </g>
     </g>
     <g id="text_2">
      <!-- 2023-09-21 -->
      <g transform="translate(89.867995 337.765903) rotate(-30) scale(0.12 -0.12)">
       <use xlink:href="#DejaVuSans-32"/>
       <use xlink:href="#DejaVuSans-30" x="63.623047"/>
       <use xlink:href="#DejaVuSans-32" x="127.246094"/>
       <use xlink:href="#DejaVuSans-33" x="190.869141"/>
       <use xlink:href="#DejaVuSans-2d" x="254.492188"/>
       <use xlink:href="#DejaVuSans-30" x="290.576172"/>
       <use xlink:href="#DejaVuSans-39" x="354.199219"/>
       <use xlink:href="#DejaVuSans-2d" x="417.822266"/>
       <use xlink:href="#DejaVuSans-32" x="453.90625"/>
       <use xlink:href="#DejaVuSans-31" x="517.529297"/>
      </g>
     </g>
    </g>
    <g id="xtick_3">
     <g id="line2d_3">
      <g>
       <use xlink:href="#ma724bc9dc4" x="209.347657" y="288" style="stroke: #000000; stroke-width: 0.8"/>
      </g>
     </g>
     <g id="text_3">
      <!-- 2023-09-25 -->
      <g transform="translate(147.704315 337.765903) rotate(-30) scale(0.12 -0.12)">
       <defs>
        <path id="DejaVuSans-35" d="M 691 4666 
L 3169 4666 
L 3169 4134 
L 1269 4134 
L 1269 2991 
Q 1406 3038 1543 3061 
Q 1681 3084 1819 3084 
Q 2600 3084 3056 2656 
Q 3513 2228 3513 1497 
Q 3513 744 3044 326 
Q 2575 -91 1722 -91 
Q 1428 -91 1123 -41 
Q 819 9 494 109 
L 494 744 
Q 775 591 1075 516 
Q 1375 441 1709 441 
Q 2250 441 2565 725 
Q 2881 1009 2881 1497 
Q 2881 1984 2565 2268 
Q 2250 2553 1709 2553 
Q 1456 2553 1204 2497 
Q 953 2441 691 2322 
L 691 4666 
z
" transform="scale(0.015625)"/>
       </defs>
       <use xlink:href="#DejaVuSans-32"/>
       <use xlink:href="#DejaVuSans-30" x="63.623047"/>
       <use xlink:href="#DejaVuSans-32" x="127.246094"/>
       <use xlink:href="#DejaVuSans-33" x="190.869141"/>
       <use xlink:href="#DejaVuSans-2d" x="254.492188"/>
       <use xlink:href="#DejaVuSans-30" x="290.576172"/>
       <use xlink:href="#DejaVuSans-39" x="354.199219"/>
       <use xlink:href="#DejaVuSans-2d" x="417.822266"/>
       <use xlink:href="#DejaVuSans-32" x="453.90625"/>
       <use xlink:href="#DejaVuSans-35" x="517.529297"/>
      </g>
     </g>
    </g>
    <g id="xtick_4">
     <g id="line2d_4">
      <g>
       <use xlink:href="#ma724bc9dc4" x="267.183978" y="288" style="stroke: #000000; stroke-width: 0.8"/>
      </g>
     </g>
     <g id="text_4">
      <!-- 2023-09-29 -->
      <g transform="translate(205.540636 337.765903) rotate(-30) scale(0.12 -0.12)">
       <use xlink:href="#DejaVuSans-32"/>
       <use xlink:href="#DejaVuSans-30" x="63.623047"/>
       <use xlink:href="#DejaVuSans-32" x="127.246094"/>
       <use xlink:href="#DejaVuSans-33" x="190.869141"/>
       <use xlink:href="#DejaVuSans-2d" x="254.492188"/>
       <use xlink:href="#DejaVuSans-30" x="290.576172"/>
       <use xlink:href="#DejaVuSans-39" x="354.199219"/>
       <use xlink:href="#DejaVuSans-2d" x="417.822266"/>
       <use xlink:href="#DejaVuSans-32" x="453.90625"/>
       <use xlink:href="#DejaVuSans-39" x="517.529297"/>
      </g>
     </g>
    </g>
    <g id="xtick_5">
     <g id="line2d_5">
      <g>
       <use xlink:href="#ma724bc9dc4" x="296.102138" y="288" style="stroke: #000000; stroke-width: 0.8"/>
      </g>
     </g>
     <g id="text_5">
      <!-- 2023-10-01 -->
      <g transform="translate(234.458796 337.765903) rotate(-30) scale(0.12 -0.12)">
       <use xlink:href="#DejaVuSans-32"/>
       <use xlink:href="#DejaVuSans-30" x="63.623047"/>
       <use xlink:href="#DejaVuSans-32" x="127.246094"/>
       <use xlink:href="#DejaVuSans-33" x="190.869141"/>
       <use xlink:href="#DejaVuSans-2d" x="254.492188"/>
       <use xlink:href="#DejaVuSans-31" x="290.576172"/>
       <use xlink:href="#DejaVuSans-30" x="354.199219"/>
       <use xlink:href="#DejaVuSans-2d" x="417.822266"/>
       <use xlink:href="#DejaVuSans-30" x="453.90625"/>
       <use xlink:href="#DejaVuSans-31" x="517.529297"/>
      </g>
     </g>
    </g>
    <g id="xtick_6">
     <g id="line2d_6">
      <g>
       <use xlink:href="#ma724bc9dc4" x="353.938458" y="288" style="stroke: #000000; stroke-width: 0.8"/>
      </g>
     </g>
     <g id="text_6">
      <!-- 2023-10-05 -->
      <g transform="translate(292.295117 337.765903) rotate(-30) scale(0.12 -0.12)">
       <use xlink:href="#DejaVuSans-32"/>
       <use xlink:href="#DejaVuSans-30" x="63.623047"/>
       <use xlink:href="#DejaVuSans-32" x="127.246094"/>
       <use xlink:href="#DejaVuSans-33" x="190.869141"/>
       <use xlink:href="#DejaVuSans-2d" x="254.492188"/>
       <use xlink:href="#DejaVuSans-31" x="290.576172"/>
       <use xlink:href="#DejaVuSans-30" x="354.199219"/>
       <use xlink:href="#DejaVuSans-2d" x="417.822266"/>
       <use xlink:href="#DejaVuSans-30" x="453.90625"/>
       <use xlink:href="#DejaVuSans-35" x="517.529297"/>
      </g>
     </g>
    </g>
    <g id="xtick_7">
     <g id="line2d_7">
      <g>
       <use xlink:href="#ma724bc9dc4" x="411.774779" y="288" style="stroke: #000000; stroke-width: 0.8"/>
      </g>
     </g>
     <g id="text_7">
      <!-- 2023-10-09 -->
      <g transform="translate(350.131437 337.765903) rotate(-30) scale(0.12 -0.12)">
       <use xlink:href="#DejaVuSans-32"/>
       <use xlink:href="#DejaVuSans-30" x="63.623047"/>
       <use xlink:href="#DejaVuSans-32" x="127.246094"/>
       <use xlink:href="#DejaVuSans-33" x="190.869141"/>
       <use xlink:href="#DejaVuSans-2d" x="254.492188"/>
       <use xlink:href="#DejaVuSans-31" x="290.576172"/>
       <use xlink:href="#DejaVuSans-30" x="354.199219"/>
       <use xlink:href="#DejaVuSans-2d" x="417.822266"/>
       <use xlink:href="#DejaVuSans-30" x="453.90625"/>
       <use xlink:href="#DejaVuSans-39" x="517.529297"/>
      </g>
     </g>
    </g>
    <g id="xtick_8">
     <g id="line2d_8">
      <g>
       <use xlink:href="#ma724bc9dc4" x="469.611099" y="288" style="stroke: #000000; stroke-width: 0.8"/>
      </g>
     </g>
     <g id="text_8">
      <!-- 2023-10-13 -->
      <g transform="translate(407.967757 337.765903) rotate(-30) scale(0.12 -0.12)">
       <use xlink:href="#DejaVuSans-32"/>
       <use xlink:href="#DejaVuSans-30" x="63.623047"/>
       <use xlink:href="#DejaVuSans-32" x="127.246094"/>
       <use xlink:href="#DejaVuSans-33" x="190.869141"/>
       <use xlink:href="#DejaVuSans-2d" x="254.492188"/>
       <use xlink:href="#DejaVuSans-31" x="290.576172"/>
       <use xlink:href="#DejaVuSans-30" x="354.199219"/>
       <use xlink:href="#DejaVuSans-2d" x="417.822266"/>
       <use xlink:href="#DejaVuSans-31" x="453.90625"/>
       <use xlink:href="#DejaVuSans-33" x="517.529297"/>
      </g>
     </g>
    </g>
    <g id="xtick_9">
     <g id="line2d_9">
      <g>
       <use xlink:href="#ma724bc9dc4" x="527.44742" y="288" style="stroke: #000000; stroke-width: 0.8"/>
      </g>
     </g>
     <g id="text_9">
      <!-- 2023-10-17 -->
      <g transform="translate(465.804078 337.765903) rotate(-30) scale(0.12 -0.12)">
       <use xlink:href="#DejaVuSans-32"/>
       <use xlink:href="#DejaVuSans-30" x="63.623047"/>
       <use xlink:href="#DejaVuSans-32" x="127.246094"/>
       <use xlink:href="#DejaVuSans-33" x="190.869141"/>
       <use xlink:href="#DejaVuSans-2d" x="254.492188"/>
       <use xlink:href="#DejaVuSans-31" x="290.576172"/>
       <use xlink:href="#DejaVuSans-30" x="354.199219"/>
       <use xlink:href="#DejaVuSans-2d" x="417.822266"/>
       <use xlink:href="#DejaVuSans-31" x="453.90625"/>
       <use xlink:href="#DejaVuSans-37" x="517.529297"/>
      </g>
     </g>
    </g>
    <g id="xtick_10">
     <g id="line2d_10">
      <g>
       <use xlink:href="#ma724bc9dc4" x="585.28374" y="288" style="stroke: #000000; stroke-width: 0.8"/>
      </g>
     </g>
     <g id="text_10">
      <!-- 2023-10-21 -->
      <g transform="translate(523.640398 337.765903) rotate(-30) scale(0.12 -0.12)">
       <use xlink:href="#DejaVuSans-32"/>
       <use xlink:href="#DejaVuSans-30" x="63.623047"/>
       <use xlink:href="#DejaVuSans-32" x="127.246094"/>
       <use xlink:href="#DejaVuSans-33" x="190.869141"/>
       <use xlink:href="#DejaVuSans-2d" x="254.492188"/>
       <use xlink:href="#DejaVuSans-31" x="290.576172"/>
       <use xlink:href="#DejaVuSans-30" x="354.199219"/>
       <use xlink:href="#DejaVuSans-2d" x="417.822266"/>
       <use xlink:href="#DejaVuSans-32" x="453.90625"/>
       <use xlink:href="#DejaVuSans-31" x="517.529297"/>
      </g>
     </g>
    </g>
    <g id="xtick_11">
     <g id="line2d_11">
      <g>
       <use xlink:href="#ma724bc9dc4" x="643.12006" y="288" style="stroke: #000000; stroke-width: 0.8"/>
      </g>
     </g>
     <g id="text_11">
      <!-- 2023-10-25 -->
      <g transform="translate(581.476719 337.765903) rotate(-30) scale(0.12 -0.12)">
       <use xlink:href="#DejaVuSans-32"/>
       <use xlink:href="#DejaVuSans-30" x="63.623047"/>
       <use xlink:href="#DejaVuSans-32" x="127.246094"/>
       <use xlink:href="#DejaVuSans-33" x="190.869141"/>
       <use xlink:href="#DejaVuSans-2d" x="254.492188"/>
       <use xlink:href="#DejaVuSans-31" x="290.576172"/>
       <use xlink:href="#DejaVuSans-30" x="354.199219"/>
       <use xlink:href="#DejaVuSans-2d" x="417.822266"/>
       <use xlink:href="#DejaVuSans-32" x="453.90625"/>
       <use xlink:href="#DejaVuSans-35" x="517.529297"/>
      </g>
     </g>
    </g>
   </g>
   <g id="matplotlib.axis_2">
    <g id="ytick_1">
     <g id="line2d_12">
      <defs>
       <path id="mdd17b91454" d="M 0 0 
L -3.5 0 
" style="stroke: #000000; stroke-width: 0.8"/>
      </defs>
      <g>
       <use xlink:href="#mdd17b91454" x="90" y="265.28111" style="stroke: #000000; stroke-width: 0.8"/>
      </g>
     </g>
     <g id="text_12">
      <!-- 0.96 -->
      <g transform="translate(56.28125 269.840172) scale(0.12 -0.12)">
       <defs>
        <path id="DejaVuSans-2e" d="M 684 794 
L 1344 794 
L 1344 0 
L 684 0 
L 684 794 
z
" transform="scale(0.015625)"/>
        <path id="DejaVuSans-36" d="M 2113 2584 
Q 1688 2584 1439 2293 
Q 1191 2003 1191 1497 
Q 1191 994 1439 701 
Q 1688 409 2113 409 
Q 2538 409 2786 701 
Q 3034 994 3034 1497 
Q 3034 2003 2786 2293 
Q 2538 2584 2113 2584 
z
M 3366 4563 
L 3366 3988 
Q 3128 4100 2886 4159 
Q 2644 4219 2406 4219 
Q 1781 4219 1451 3797 
Q 1122 3375 1075 2522 
Q 1259 2794 1537 2939 
Q 1816 3084 2150 3084 
Q 2853 3084 3261 2657 
Q 3669 2231 3669 1497 
Q 3669 778 3244 343 
Q 2819 -91 2113 -91 
Q 1303 -91 875 529 
Q 447 1150 447 2328 
Q 447 3434 972 4092 
Q 1497 4750 2381 4750 
Q 2619 4750 2861 4703 
Q 3103 4656 3366 4563 
z
" transform="scale(0.015625)"/>
       </defs>
       <use xlink:href="#DejaVuSans-30"/>
       <use xlink:href="#DejaVuSans-2e" x="63.623047"/>
       <use xlink:href="#DejaVuSans-39" x="95.410156"/>
       <use xlink:href="#DejaVuSans-36" x="159.033203"/>
      </g>
     </g>
    </g>
    <g id="ytick_2">
     <g id="line2d_13">
      <g>
       <use xlink:href="#mdd17b91454" x="90" y="223.214507" style="stroke: #000000; stroke-width: 0.8"/>
      </g>
     </g>
     <g id="text_13">
      <!-- 0.98 -->
      <g transform="translate(56.28125 227.773569) scale(0.12 -0.12)">
       <defs>
        <path id="DejaVuSans-38" d="M 2034 2216 
Q 1584 2216 1326 1975 
Q 1069 1734 1069 1313 
Q 1069 891 1326 650 
Q 1584 409 2034 409 
Q 2484 409 2743 651 
Q 3003 894 3003 1313 
Q 3003 1734 2745 1975 
Q 2488 2216 2034 2216 
z
M 1403 2484 
Q 997 2584 770 2862 
Q 544 3141 544 3541 
Q 544 4100 942 4425 
Q 1341 4750 2034 4750 
Q 2731 4750 3128 4425 
Q 3525 4100 3525 3541 
Q 3525 3141 3298 2862 
Q 3072 2584 2669 2484 
Q 3125 2378 3379 2068 
Q 3634 1759 3634 1313 
Q 3634 634 3220 271 
Q 2806 -91 2034 -91 
Q 1263 -91 848 271 
Q 434 634 434 1313 
Q 434 1759 690 2068 
Q 947 2378 1403 2484 
z
M 1172 3481 
Q 1172 3119 1398 2916 
Q 1625 2713 2034 2713 
Q 2441 2713 2670 2916 
Q 2900 3119 2900 3481 
Q 2900 3844 2670 4047 
Q 2441 4250 2034 4250 
Q 1625 4250 1398 4047 
Q 1172 3844 1172 3481 
z
" transform="scale(0.015625)"/>
       </defs>
       <use xlink:href="#DejaVuSans-30"/>
       <use xlink:href="#DejaVuSans-2e" x="63.623047"/>
       <use xlink:href="#DejaVuSans-39" x="95.410156"/>
       <use xlink:href="#DejaVuSans-38" x="159.033203"/>
      </g>
     </g>
    </g>
    <g id="ytick_3">
     <g id="line2d_14">
      <g>
       <use xlink:href="#mdd17b91454" x="90" y="181.147904" style="stroke: #000000; stroke-width: 0.8"/>
      </g>
     </g>
     <g id="text_14">
      <!-- 1.00 -->
      <g transform="translate(56.28125 185.706966) scale(0.12 -0.12)">
       <use xlink:href="#DejaVuSans-31"/>
       <use xlink:href="#DejaVuSans-2e" x="63.623047"/>
       <use xlink:href="#DejaVuSans-30" x="95.410156"/>
       <use xlink:href="#DejaVuSans-30" x="159.033203"/>
      </g>
     </g>
    </g>
    <g id="ytick_4">
     <g id="line2d_15">
      <g>
       <use xlink:href="#mdd17b91454" x="90" y="139.081301" style="stroke: #000000; stroke-width: 0.8"/>
      </g>
     </g>
     <g id="text_15">
      <!-- 1.02 -->
      <g transform="translate(56.28125 143.640363) scale(0.12 -0.12)">
       <use xlink:href="#DejaVuSans-31"/>
       <use xlink:href="#DejaVuSans-2e" x="63.623047"/>
       <use xlink:href="#DejaVuSans-30" x="95.410156"/>
       <use xlink:href="#DejaVuSans-32" x="159.033203"/>
      </g>
     </g>
    </g>
    <g id="ytick_5">
     <g id="line2d_16">
      <g>
       <use xlink:href="#mdd17b91454" x="90" y="97.014698" style="stroke: #000000; stroke-width: 0.8"/>
      </g>
     </g>
     <g id="text_16">
      <!-- 1.04 -->
      <g transform="translate(56.28125 101.57376) scale(0.12 -0.12)">
       <defs>
        <path id="DejaVuSans-34" d="M 2419 4116 
L 825 1625 
L 2419 1625 
L 2419 4116 
z
M 2253 4666 
L 3047 4666 
L 3047 1625 
L 3713 1625 
L 3713 1100 
L 3047 1100 
L 3047 0 
L 2419 0 
L 2419 1100 
L 313 1100 
L 313 1709 
L 2253 4666 
z
" transform="scale(0.015625)"/>
       </defs>
       <use xlink:href="#DejaVuSans-31"/>
       <use xlink:href="#DejaVuSans-2e" x="63.623047"/>
       <use xlink:href="#DejaVuSans-30" x="95.410156"/>
       <use xlink:href="#DejaVuSans-34" x="159.033203"/>
      </g>
     </g>
    </g>
    <g id="ytick_6">
     <g id="line2d_17">
      <g>
       <use xlink:href="#mdd17b91454" x="90" y="54.948095" style="stroke: #000000; stroke-width: 0.8"/>
      </g>
     </g>
     <g id="text_17">
      <!-- 1.06 -->
      <g transform="translate(56.28125 59.507158) scale(0.12 -0.12)">
       <use xlink:href="#DejaVuSans-31"/>
       <use xlink:href="#DejaVuSans-2e" x="63.623047"/>
       <use xlink:href="#DejaVuSans-30" x="95.410156"/>
       <use xlink:href="#DejaVuSans-36" x="159.033203"/>
      </g>
     </g>
    </g>
    <g id="text_18">
     <!-- Meters -->
     <g transform="translate(50.201562 182.6875) rotate(-90) scale(0.1 -0.1)">
      <defs>
       <path id="DejaVuSans-4d" d="M 628 4666 
L 1569 4666 
L 2759 1491 
L 3956 4666 
L 4897 4666 
L 4897 0 
L 4281 0 
L 4281 4097 
L 3078 897 
L 2444 897 
L 1241 4097 
L 1241 0 
L 628 0 
L 628 4666 
z
" transform="scale(0.015625)"/>
       <path id="DejaVuSans-65" d="M 3597 1894 
L 3597 1613 
L 953 1613 
Q 991 1019 1311 708 
Q 1631 397 2203 397 
Q 2534 397 2845 478 
Q 3156 559 3463 722 
L 3463 178 
Q 3153 47 2828 -22 
Q 2503 -91 2169 -91 
Q 1331 -91 842 396 
Q 353 884 353 1716 
Q 353 2575 817 3079 
Q 1281 3584 2069 3584 
Q 2775 3584 3186 3129 
Q 3597 2675 3597 1894 
z
M 3022 2063 
Q 3016 2534 2758 2815 
Q 2500 3097 2075 3097 
Q 1594 3097 1305 2825 
Q 1016 2553 972 2059 
L 3022 2063 
z
" transform="scale(0.015625)"/>
       <path id="DejaVuSans-74" d="M 1172 4494 
L 1172 3500 
L 2356 3500 
L 2356 3053 
L 1172 3053 
L 1172 1153 
Q 1172 725 1289 603 
Q 1406 481 1766 481 
L 2356 481 
L 2356 0 
L 1766 0 
Q 1100 0 847 248 
Q 594 497 594 1153 
L 594 3053 
L 172 3053 
L 172 3500 
L 594 3500 
L 594 4494 
L 1172 4494 
z
" transform="scale(0.015625)"/>
       <path id="DejaVuSans-72" d="M 2631 2963 
Q 2534 3019 2420 3045 
Q 2306 3072 2169 3072 
Q 1681 3072 1420 2755 
Q 1159 2438 1159 1844 
L 1159 0 
L 581 0 
L 581 3500 
L 1159 3500 
L 1159 2956 
Q 1341 3275 1631 3429 
Q 1922 3584 2338 3584 
Q 2397 3584 2469 3576 
Q 2541 3569 2628 3553 
L 2631 2963 
z
" transform="scale(0.015625)"/>
       <path id="DejaVuSans-73" d="M 2834 3397 
L 2834 2853 
Q 2591 2978 2328 3040 
Q 2066 3103 1784 3103 
Q 1356 3103 1142 2972 
Q 928 2841 928 2578 
Q 928 2378 1081 2264 
Q 1234 2150 1697 2047 
L 1894 2003 
Q 2506 1872 2764 1633 
Q 3022 1394 3022 966 
Q 3022 478 2636 193 
Q 2250 -91 1575 -91 
Q 1294 -91 989 -36 
Q 684 19 347 128 
L 347 722 
Q 666 556 975 473 
Q 1284 391 1588 391 
Q 1994 391 2212 530 
Q 2431 669 2431 922 
Q 2431 1156 2273 1281 
Q 2116 1406 1581 1522 
L 1381 1569 
Q 847 1681 609 1914 
Q 372 2147 372 2553 
Q 372 3047 722 3315 
Q 1072 3584 1716 3584 
Q 2034 3584 2315 3537 
Q 2597 3491 2834 3397 
z
" transform="scale(0.015625)"/>
      </defs>
      <use xlink:href="#DejaVuSans-4d"/>
      <use xlink:href="#DejaVuSans-65" x="86.279297"/>
      <use xlink:href="#DejaVuSans-74" x="147.802734"/>
      <use xlink:href="#DejaVuSans-65" x="187.011719"/>
      <use xlink:href="#DejaVuSans-72" x="248.535156"/>
      <use xlink:href="#DejaVuSans-73" x="289.648438"/>
     </g>
    </g>
   </g>
   <g id="line2d_18">
    <path d="M 115.363636 91.476593 
L 115.966098 87.271009 
L 116.56856 88.67287 
L 117.171021 90.635476 
L 118.375945 92.878454 
L 118.978406 95.682176 
L 119.580868 96.733572 
L 120.18333 93.053686 
L 120.785791 92.22759 
L 121.388253 94.480581 
L 121.990715 104.093343 
L 122.593176 104.619041 
L 123.195638 102.341016 
L 123.7981 101.990551 
L 124.400561 108.999857 
L 125.003023 110.752183 
L 125.605485 112.854975 
L 126.207946 112.50451 
L 126.810408 109.700787 
L 127.41287 107.948461 
L 128.015331 107.597996 
L 128.617793 106.897065 
L 129.220255 99.887759 
L 129.822716 97.784968 
L 130.425178 99.186829 
L 131.02764 106.897065 
L 131.630101 104.093343 
L 132.835025 101.990551 
L 133.437487 99.046643 
L 134.039948 103.041947 
L 134.64241 98.485898 
L 135.244872 97.551324 
L 135.847333 99.186829 
L 136.449795 109.700787 
L 137.052257 113.20544 
L 137.654718 113.555906 
L 138.25718 113.555906 
L 138.859642 110.051253 
L 139.462103 105.495204 
L 140.064565 105.845669 
L 141.269488 104.513901 
L 141.87195 97.784968 
L 142.474412 100.58869 
L 143.076873 98.485898 
L 143.679335 99.887759 
L 144.281797 100.238225 
L 144.884258 98.836364 
L 145.48672 94.105082 
L 146.089182 99.046643 
L 146.691643 99.537294 
L 147.294105 105.670437 
L 147.896567 105.144739 
L 148.499028 107.24753 
L 149.10149 114.607301 
L 149.703952 118.812885 
L 150.306413 120.07456 
L 150.908875 126.523121 
L 151.511337 127.749749 
L 152.113798 130.378239 
L 152.71626 123.719399 
L 153.318722 122.59791 
L 153.921183 119.864281 
L 155.126107 121.967072 
L 155.728568 118.812885 
L 156.33103 118.111954 
L 156.933492 118.812885 
L 157.535953 119.16335 
L 158.138415 119.864281 
L 159.343338 110.401718 
L 159.9458 108.298926 
L 160.548262 118.812885 
L 161.150723 124.887616 
L 161.753185 133.882892 
L 162.355647 126.022456 
L 162.958108 129.326843 
L 163.56057 120.915676 
L 164.163032 125.12126 
L 164.765493 131.429635 
L 165.367955 135.635218 
L 165.970417 142.994989 
L 166.572878 145.097781 
L 167.17534 144.046385 
L 167.777802 145.448246 
L 168.380263 146.499642 
L 169.585187 156.31267 
L 170.187648 156.663135 
L 170.79011 154.560344 
L 171.392572 150.35476 
L 171.995033 150.35476 
L 175.007342 132.481031 
L 175.609803 135.635218 
L 176.212265 135.635218 
L 176.814727 125.12126 
L 177.417189 123.018468 
L 178.01965 115.658697 
L 178.622112 115.132999 
L 179.224574 118.462419 
L 179.827035 129.927641 
L 180.429497 125.541818 
L 181.031959 128.275447 
L 181.63442 126.873586 
L 182.236882 126.172656 
L 182.839344 129.326843 
L 183.441805 91.827058 
L 184.044267 131.07917 
L 185.24919 127.224052 
L 185.851652 129.326843 
L 186.454114 125.82219 
L 187.056575 118.812885 
L 187.659037 118.392326 
L 188.261499 115.308232 
L 188.86396 114.957767 
L 189.466422 108.298926 
L 190.671345 124.420329 
L 191.273807 121.616607 
L 191.876269 122.317538 
L 192.47873 121.616607 
L 193.081192 124.770795 
L 193.683654 128.625913 
L 194.888577 141.242663 
L 195.491039 139.139871 
L 196.0935 139.840802 
L 196.695962 141.593128 
L 197.298424 144.572083 
L 197.900885 148.777666 
L 198.503347 147.200573 
L 200.310732 132.831496 
L 200.913194 130.027774 
L 201.515655 125.471725 
L 202.118117 121.967072 
L 202.720579 116.359628 
L 203.32304 115.658697 
L 203.925502 116.009162 
L 204.527964 118.812885 
L 205.130425 128.275447 
L 206.335349 130.378239 
L 206.93781 81.313099 
L 207.540272 76.757051 
L 208.142734 91.476593 
L 208.745195 113.20544 
L 209.347657 119.864281 
L 209.950119 124.420329 
L 210.55258 127.224052 
L 211.757504 144.747316 
L 212.359965 146.499642 
L 212.962427 151.055691 
L 213.564889 154.209878 
L 214.16735 159.817323 
L 214.769812 162.621045 
L 215.974735 176.008819 
L 216.577197 177.691052 
L 217.179659 174.536865 
L 218.987044 191.709664 
L 219.589506 196.265712 
L 220.191967 194.513386 
L 220.794429 189.957337 
L 221.396891 187.153615 
L 221.999352 183.298497 
L 222.601814 183.648962 
L 223.204276 186.102219 
L 223.806737 179.793844 
L 224.409199 179.793844 
L 225.011661 177.340587 
L 225.614122 180.84524 
L 226.216584 181.896636 
L 227.421507 181.195705 
L 228.023969 183.648962 
L 228.626431 183.999427 
L 229.228892 185.751754 
L 229.831354 209.933858 
L 230.433816 272.667144 
L 231.036277 276.872727 
L 231.638739 265.657838 
L 232.241201 262.153185 
L 232.843662 253.041088 
L 233.446124 246.031782 
L 234.048586 242.877595 
L 234.651047 246.382248 
L 235.253509 243.22806 
L 235.855971 243.578525 
L 236.458432 243.578525 
L 237.060894 242.52713 
L 237.663356 241.826199 
L 238.265817 241.826199 
L 238.868279 242.877595 
L 239.470741 247.433644 
L 240.073202 255.84481 
L 240.675664 253.742019 
L 241.880587 232.363636 
L 242.483049 226.055261 
L 243.085511 217.293629 
L 243.687972 211.686185 
L 244.892896 197.667573 
L 246.097819 171.733142 
L 246.700281 170.681747 
L 247.302742 172.784538 
L 247.905204 173.835934 
L 248.507666 178.041518 
L 249.110127 178.041518 
L 249.712589 178.742448 
L 250.315051 178.742448 
L 250.917512 179.443379 
L 251.519974 179.793844 
L 252.122436 181.195705 
L 252.724897 179.793844 
L 253.327359 180.494775 
L 253.929821 186.102219 
L 254.532282 183.648962 
L 255.134744 182.948031 
L 255.737206 180.84524 
L 256.339667 175.938726 
L 256.942129 173.835934 
L 258.147052 168.578955 
L 258.749514 163.321976 
L 259.351976 155.962205 
L 259.954437 153.859413 
L 260.556899 147.901503 
L 261.159361 148.952899 
L 261.761823 151.055691 
L 262.364284 152.107087 
L 262.966746 153.859413 
L 263.569208 153.158482 
L 264.171669 158.765927 
L 264.774131 157.714531 
L 265.376593 158.064996 
L 265.979054 161.920115 
L 266.581516 171.733142 
L 267.183978 176.639656 
L 267.786439 176.990122 
L 268.388901 179.443379 
L 268.991363 180.144309 
L 269.593824 179.443379 
L 270.196286 176.990122 
L 270.798748 175.938726 
L 271.401209 176.639656 
L 272.003671 177.691052 
L 272.606133 182.597566 
L 273.208594 185.751754 
L 273.811056 185.401288 
L 274.413518 179.793844 
L 275.015979 182.597566 
L 275.618441 181.896636 
L 276.823364 186.102219 
L 277.425826 187.153615 
L 278.028288 187.153615 
L 278.630749 185.751754 
L 279.233211 186.452684 
L 279.835673 183.648962 
L 280.438134 183.648962 
L 281.643058 185.050823 
L 282.245519 183.648962 
L 283.450443 173.485469 
L 284.655366 188.205011 
L 285.257828 188.205011 
L 285.860289 190.307802 
L 286.462751 196.265712 
L 287.065213 198.018039 
L 287.667674 197.667573 
L 288.270136 198.718969 
L 288.872598 200.821761 
L 289.475059 201.172226 
L 290.077521 205.027344 
L 290.679983 203.975948 
L 291.282444 204.326414 
L 291.884906 208.531997 
L 292.487368 215.190838 
L 293.089829 213.438511 
L 293.692291 212.03665 
L 294.294753 215.190838 
L 294.897214 217.644094 
L 295.499676 222.200143 
L 296.102138 223.251539 
L 296.704599 221.148747 
L 297.909523 226.055261 
L 298.511984 230.961775 
L 299.114446 233.415032 
L 300.319369 235.517824 
L 300.921831 236.218754 
L 301.524293 236.218754 
L 302.126754 237.971081 
L 302.729216 239.022477 
L 303.331678 238.672011 
L 303.934139 239.022477 
L 304.536601 234.816893 
L 305.139063 228.858984 
L 305.741525 226.055261 
L 306.343986 224.6534 
L 306.946448 222.200143 
L 307.54891 220.798282 
L 308.151371 216.943164 
L 308.753833 215.190838 
L 309.356295 216.592699 
L 309.958756 215.541303 
L 310.561218 219.045956 
L 311.16368 217.99456 
L 311.766141 218.169792 
L 312.368603 214.840372 
L 312.971065 206.779671 
L 313.573526 194.513386 
L 314.175988 185.401288 
L 315.380911 120.915676 
L 315.983373 103.392412 
L 317.188296 96.733572 
L 317.790758 103.041947 
L 318.39322 100.58869 
L 318.995681 102.341016 
L 319.598143 103.742878 
L 320.803066 118.287187 
L 321.405528 122.177351 
L 322.00799 120.533351 
L 323.212913 132.218182 
L 324.417836 147.200573 
L 325.020298 145.958014 
L 325.62276 148.852766 
L 326.225221 148.602434 
L 326.827683 150.35476 
L 327.430145 156.663135 
L 328.032606 154.560344 
L 328.635068 156.137437 
L 329.23753 168.22849 
L 329.839991 169.980816 
L 330.442453 170.681747 
L 331.044915 165.074302 
L 331.647376 146.850107 
L 332.249838 142.644524 
L 332.8523 140.892198 
L 333.454761 137.387545 
L 334.057223 140.892198 
L 334.659685 150.004295 
L 335.262146 154.910809 
L 335.864608 154.980902 
L 336.46707 159.116392 
L 337.671993 168.578955 
L 338.876916 183.648962 
L 340.08184 185.751754 
L 341.286763 195.915247 
L 342.491686 203.275018 
L 343.69661 207.831067 
L 344.299071 208.531997 
L 344.901533 214.139442 
L 345.503995 215.541303 
L 346.106456 215.541303 
L 346.708918 208.181532 
L 347.31138 198.018039 
L 347.913842 197.317108 
L 349.118765 198.018039 
L 349.721227 199.4199 
L 350.323688 199.069435 
L 350.92615 201.873157 
L 351.528612 201.172226 
L 352.131073 204.676879 
L 352.733535 209.232928 
L 353.335997 212.03665 
L 353.938458 210.985254 
L 354.54092 211.686185 
L 355.143382 224.6534 
L 355.745843 224.6534 
L 356.348305 229.910379 
L 356.950767 232.363636 
L 357.553228 232.013171 
L 358.15569 234.466428 
L 359.360613 223.251539 
L 359.963075 222.200143 
L 361.77046 215.541303 
L 362.372922 214.489907 
L 363.577845 215.891768 
L 364.180307 216.242233 
L 364.782768 218.345025 
L 365.38523 219.746886 
L 365.987692 220.447817 
L 366.590153 219.396421 
L 367.192615 219.045956 
L 367.795077 219.045956 
L 368.397538 218.345025 
L 369 218.69549 
L 370.204923 208.882462 
L 370.807385 206.429205 
L 371.409847 207.130136 
L 372.012308 205.37781 
L 373.217232 200.12083 
L 373.819693 193.46199 
L 375.024617 185.401288 
L 375.627078 176.289191 
L 376.22954 162.621045 
L 376.832002 161.920115 
L 378.036925 166.826628 
L 378.639387 172.434073 
L 379.241848 161.920115 
L 379.84431 171.032212 
L 380.446772 174.186399 
L 381.049233 172.434073 
L 381.651695 172.784538 
L 382.254157 178.391983 
L 382.856618 180.144309 
L 383.45908 176.990122 
L 384.061542 182.247101 
L 384.664003 185.401288 
L 385.266465 186.452684 
L 385.868927 187.153615 
L 386.471388 184.700358 
L 387.07385 185.401288 
L 387.676312 184.419986 
L 388.278773 187.153615 
L 388.881235 181.370938 
L 389.483697 183.999427 
L 390.086158 180.84524 
L 390.68862 179.092913 
L 391.291082 181.896636 
L 391.893544 182.247101 
L 392.496005 183.999427 
L 393.098467 178.391983 
L 393.700929 179.443379 
L 394.30339 179.443379 
L 394.905852 179.092913 
L 395.508314 179.092913 
L 396.110775 176.990122 
L 396.713237 178.391983 
L 414.787087 160.868719 
L 415.389549 159.466858 
L 415.99201 155.962205 
L 416.594472 155.611739 
L 417.196934 156.663135 
L 417.799395 157.364066 
L 418.401857 155.261274 
L 419.004319 152.457552 
L 419.60678 151.406156 
L 420.209242 151.055691 
L 420.811704 151.756621 
L 421.414165 152.107087 
L 422.016627 150.004295 
L 422.619089 152.457552 
L 423.22155 152.457552 
L 423.824012 152.808017 
L 424.426474 148.952899 
L 425.028935 146.850107 
L 425.631397 147.551038 
L 426.233859 144.39685 
L 426.83632 141.943593 
L 427.438782 137.387545 
L 428.041244 137.037079 
L 428.643705 137.037079 
L 429.246167 136.336149 
L 429.848629 134.583822 
L 430.45109 135.635218 
L 431.053552 135.284753 
L 431.656014 132.831496 
L 432.258475 126.873586 
L 432.860937 118.462419 
L 433.463399 108.298926 
L 434.065861 100.238225 
L 434.668322 90.425197 
L 435.270784 87.97194 
L 435.873246 86.219613 
L 436.475707 84.116822 
L 437.078169 78.509377 
L 437.680631 73.953329 
L 438.283092 78.158912 
L 438.885554 76.757051 
L 439.488016 80.612169 
L 440.090477 81.663565 
L 440.692939 83.065426 
L 441.295401 83.766356 
L 441.897862 82.364495 
L 442.500324 81.313099 
L 443.102786 82.714961 
L 443.705247 82.364495 
L 444.307709 83.065426 
L 444.910171 84.116822 
L 445.512632 85.976984 
L 446.115094 86.315195 
L 446.717556 86.30049 
L 447.320017 94.95077 
L 447.922479 96.733572 
L 448.524941 91.126127 
L 449.127402 93.053686 
L 449.729864 92.948547 
L 450.332326 95.682176 
L 450.934787 99.712527 
L 451.537249 99.587361 
L 452.139711 98.626084 
L 452.742172 102.41111 
L 453.344634 102.516249 
L 453.947096 107.831639 
L 454.549557 110.752183 
L 455.152019 110.051253 
L 455.754481 105.845669 
L 456.356942 105.495204 
L 457.561866 95.682176 
L 458.164327 94.63078 
L 458.766789 99.887759 
L 459.369251 102.691482 
L 459.971712 104.393742 
L 460.574174 106.984681 
L 461.176636 104.093343 
L 461.779097 105.495204 
L 462.381559 104.093343 
L 462.984021 97.434503 
L 463.586482 93.228919 
L 464.188944 97.434503 
L 464.791406 100.150608 
L 465.393867 105.495204 
L 466.598791 98.310666 
L 467.201252 99.887759 
L 467.803714 99.654116 
L 468.406176 112.854975 
L 469.008637 108.298926 
L 469.611099 107.24753 
L 470.816022 110.101319 
L 472.020946 114.607301 
L 472.623407 113.20544 
L 473.225869 116.710093 
L 473.828331 116.710093 
L 474.430792 118.462419 
L 475.033254 118.812885 
L 475.635716 117.761489 
L 476.238177 114.607301 
L 476.840639 109.700787 
L 477.443101 106.196135 
L 478.045563 109.700787 
L 478.648024 116.359628 
L 479.250486 118.812885 
L 479.852948 122.668003 
L 480.455409 125.354903 
L 481.057871 126.577039 
L 481.660333 128.213601 
L 482.262794 127.032889 
L 482.865256 129.852541 
L 483.467718 135.424939 
L 484.070179 131.009077 
L 484.672641 128.485727 
L 485.275103 128.275447 
L 485.877564 122.434359 
L 486.480026 117.761489 
L 487.082488 125.12126 
L 487.684949 122.317538 
L 488.287411 116.289535 
L 488.889873 116.710093 
L 489.492334 116.710093 
L 490.094796 117.060558 
L 490.697258 117.761489 
L 491.299719 118.812885 
L 491.902181 118.111954 
L 492.504643 121.967072 
L 493.107104 121.967072 
L 493.709566 120.214746 
L 494.312028 120.915676 
L 494.914489 122.317538 
L 495.516951 123.018468 
L 496.119413 122.668003 
L 496.721874 121.967072 
L 497.324336 119.864281 
L 497.926798 118.462419 
L 498.529259 117.611289 
L 499.131721 119.714081 
L 499.734183 124.770795 
L 500.336644 128.275447 
L 500.939106 133.298783 
L 501.541568 133.952985 
L 502.144029 134.934288 
L 502.746491 138.088475 
L 503.348953 135.985684 
L 503.951414 137.137212 
L 504.553876 137.73801 
L 505.156338 136.896893 
L 505.758799 137.037079 
L 506.361261 137.387545 
L 506.963723 135.284753 
L 507.566184 135.635218 
L 508.168646 135.284753 
L 508.771108 136.336149 
L 510.578493 129.326843 
L 511.180954 129.677309 
L 511.783416 130.378239 
L 512.385878 129.326843 
L 512.988339 131.07917 
L 513.590801 130.378239 
L 514.193263 131.429635 
L 514.795724 131.7801 
L 516.000648 138.088475 
L 516.603109 140.541732 
L 517.205571 141.593128 
L 517.808033 142.994989 
L 518.410494 145.097781 
L 519.012956 146.149177 
L 519.615418 146.850107 
L 520.21788 147.200573 
L 520.820341 146.749974 
L 521.422803 147.551038 
L 522.025265 147.901503 
L 522.627726 148.602434 
L 523.83265 148.602434 
L 524.435111 144.747316 
L 525.037573 146.850107 
L 525.640035 146.149177 
L 526.844958 151.406156 
L 527.44742 149.303364 
L 528.049881 147.901503 
L 528.652343 150.004295 
L 529.254805 150.35476 
L 529.857266 148.952899 
L 530.459728 148.251969 
L 531.06219 147.901503 
L 531.664651 147.901503 
L 532.267113 149.303364 
L 532.869575 149.65383 
L 533.472036 152.808017 
L 534.074498 152.457552 
L 534.67696 152.98325 
L 535.279421 147.200573 
L 535.881883 146.850107 
L 536.484345 151.756621 
L 537.086806 152.808017 
L 538.29173 155.611739 
L 538.894191 154.560344 
L 540.099115 158.765927 
L 540.701576 157.013601 
L 541.304038 156.31267 
L 541.9065 154.910809 
L 542.508961 157.364066 
L 543.111423 158.064996 
L 543.713885 162.27058 
L 544.316346 164.373372 
L 544.918808 165.6 
L 545.52127 166.125698 
L 546.123731 167.702792 
L 547.328655 164.723837 
L 547.931116 165.074302 
L 548.533578 167.177094 
L 549.13604 162.97151 
L 549.738501 161.289277 
L 550.340963 160.167788 
L 550.943425 158.415462 
L 551.545886 158.765927 
L 552.148348 162.27058 
L 552.75081 161.709835 
L 553.353271 157.92481 
L 553.955733 160.868719 
L 554.558195 159.607044 
L 555.160656 162.27058 
L 555.763118 165.6 
L 556.36558 155.261274 
L 556.968041 158.532283 
L 557.570503 160.518253 
L 558.172965 164.285755 
L 558.775426 164.723837 
L 559.377888 167.878024 
L 559.98035 168.578955 
L 560.582811 170.331281 
L 561.185273 170.681747 
L 561.787735 168.438769 
L 562.390197 170.331281 
L 562.992658 169.747173 
L 563.59512 170.481481 
L 564.197582 169.630351 
L 564.800043 166.125698 
L 565.402505 164.723837 
L 566.004967 162.27058 
L 566.607428 164.723837 
L 567.20989 165.775233 
L 567.812352 164.723837 
L 568.414813 163.321976 
L 569.017275 160.518253 
L 569.619737 154.793987 
L 570.222198 153.859413 
L 570.82466 142.469291 
L 571.427122 142.294059 
L 572.029583 142.243992 
L 572.632045 145.623479 
L 573.234507 140.541732 
L 573.836968 133.181961 
L 574.43943 132.481031 
L 575.041892 133.532427 
L 575.644353 132.130565 
L 576.246815 131.955333 
L 576.849277 127.574517 
L 577.451738 121.616607 
L 578.656662 99.537294 
L 579.259123 90.425197 
L 579.861585 77.457981 
L 580.464047 67.644953 
L 581.066508 60.285183 
L 581.66897 54.327273 
L 582.873893 55.729134 
L 583.476355 57.831926 
L 584.078817 58.182391 
L 584.681278 60.635648 
L 585.28374 65.191696 
L 585.886202 68.696349 
L 586.488663 69.747745 
L 587.693587 69.747745 
L 588.296048 70.09821 
L 588.89851 68.696349 
L 589.500972 70.448676 
L 590.705895 74.654259 
L 591.308357 75.35519 
L 591.910818 75.004724 
L 592.51328 77.107516 
L 593.115742 78.158912 
L 593.718203 78.509377 
L 594.320665 77.107516 
L 594.923127 78.859843 
L 595.525588 81.313099 
L 596.12805 83.065426 
L 596.730512 84.116822 
L 597.332973 87.271009 
L 597.935435 89.023336 
L 598.537897 91.827058 
L 599.140358 91.827058 
L 599.74282 88.322405 
L 600.345282 88.322405 
L 600.947743 90.074732 
L 601.550205 94.981246 
L 602.152667 97.434503 
L 602.755128 100.58869 
L 603.35759 99.537294 
L 603.960052 100.939155 
L 604.562513 102.691482 
L 605.164975 105.495204 
L 606.369899 109.350322 
L 606.97236 111.102649 
L 607.574822 107.597996 
L 608.177284 108.298926 
L 608.779745 108.649392 
L 609.984669 108.649392 
L 610.58713 108.999857 
L 611.189592 110.401718 
L 611.792054 112.154044 
L 612.394515 115.658697 
L 612.996977 123.368933 
L 613.599439 125.12126 
L 614.2019 123.439026 
L 614.804362 124.770795 
L 615.406824 128.625913 
L 616.009285 130.728704 
L 616.611747 129.677309 
L 617.81667 128.275447 
L 618.419132 125.82219 
L 619.021594 124.770795 
L 619.624055 128.158626 
L 620.226517 127.224052 
L 620.828979 126.523121 
L 621.43144 123.368933 
L 622.033902 118.392326 
L 622.636364 114.607301 
L 622.636364 114.607301 
" clip-path="url(#p647c9fbc59)" style="fill: none; stroke: #1f77b4; stroke-width: 1.5; stroke-linecap: square"/>
   </g>
   <g id="line2d_19">
    <path d="M 115.363636 104.513901 
L 129.220255 121.008491 
L 129.822716 108.298926 
L 143.679335 114.464861 
L 144.281797 101.464853 
L 158.138415 107.669362 
L 158.740877 118.812885 
L 175.007342 125.977968 
L 175.609803 150.35476 
L 176.212265 150.613222 
L 176.814727 150.35476 
L 187.659037 154.997357 
L 188.261499 116.710093 
L 215.974735 128.912479 
L 216.577197 167.177094 
L 230.433816 173.010707 
L 231.036277 185.050823 
L 247.302742 191.777244 
L 247.905204 169.805583 
L 250.917512 173.297727 
L 251.519974 179.268146 
L 275.618441 206.935638 
L 288.270136 221.323808 
L 288.872598 198.193271 
L 300.921831 211.977295 
L 301.524293 212.399486 
L 302.126754 212.260603 
L 302.729216 212.499731 
L 303.331678 236.043522 
L 303.934139 235.452807 
L 304.536601 235.431108 
L 305.741525 236.864281 
L 306.946448 238.095658 
L 307.54891 236.43845 
L 308.151371 234.418736 
L 308.753833 234.324016 
L 309.356295 234.635946 
L 310.561218 235.830249 
L 317.188296 243.254018 
L 317.790758 104.093343 
L 331.647376 110.270184 
L 332.249838 169.980816 
L 346.106456 172.75091 
L 346.708918 215.120744 
L 354.54092 216.663055 
L 355.143382 216.234292 
L 355.745843 214.123511 
L 356.348305 212.939263 
L 356.950767 213.000301 
L 357.553228 212.881957 
L 358.15569 212.540559 
L 358.758152 210.013147 
L 359.963075 203.915203 
L 360.565537 201.39583 
L 361.167998 222.270236 
L 362.372922 203.983605 
L 362.975383 196.864971 
L 363.577845 191.23161 
L 364.180307 186.985492 
L 364.782768 183.952067 
L 365.38523 181.854904 
L 365.987692 180.444564 
L 366.590153 179.528966 
L 367.192615 178.964962 
L 367.795077 178.648731 
L 368.397538 178.506039 
L 369.602462 178.546849 
L 371.409847 179.018068 
L 374.422155 180.157803 
L 375.024617 180.402205 
L 375.627078 193.672269 
L 378.036925 194.684035 
L 379.241848 194.658991 
L 381.049233 195.456514 
L 381.651695 195.47826 
L 382.856618 195.04776 
L 384.061542 195.023671 
L 385.266465 195.257609 
L 387.07385 195.868108 
L 388.278773 191.550839 
L 389.483697 191.475741 
L 390.086158 184.419986 
L 390.68862 183.47869 
L 391.291082 182.26999 
L 391.893544 180.159831 
L 393.098467 173.78988 
L 393.700929 172.052057 
L 394.30339 169.249278 
L 394.905852 164.710133 
L 396.110775 148.609199 
L 396.713237 140.935497 
L 414.787087 119.64893 
L 433.463399 127.924982 
L 434.065861 125.725202 
L 434.668322 124.40539 
L 435.270784 123.504631 
L 435.873246 122.101338 
L 436.475707 121.116521 
L 437.078169 119.739606 
L 437.680631 117.524339 
L 438.283092 116.368727 
L 438.885554 116.172955 
L 439.488016 116.162633 
L 440.090477 116.82924 
L 440.692939 116.494055 
L 442.500324 111.359233 
L 443.102786 110.403209 
L 443.705247 110.133929 
L 444.910171 110.944873 
L 446.115094 108.099017 
L 446.717556 108.176215 
L 447.320017 108.59413 
L 447.922479 83.766356 
L 451.537249 87.957766 
L 452.139711 89.13089 
L 453.344634 84.87061 
L 453.947096 84.405622 
L 454.549557 83.765218 
L 455.152019 84.469605 
L 455.754481 86.07899 
L 456.356942 80.221226 
L 456.959404 72.352546 
L 458.164327 61.917244 
L 458.766789 60.827919 
L 459.369251 60.703426 
L 459.971712 61.160837 
L 461.176636 62.475535 
L 461.779097 63.194064 
L 462.381559 106.196135 
L 464.188944 106.203925 
L 466.598791 106.462392 
L 470.816022 107.201004 
L 476.238177 108.308624 
L 476.840639 119.075734 
L 487.082488 121.245862 
L 488.287411 121.03961 
L 490.094796 121.468716 
L 490.697258 121.389042 
L 491.299719 121.118799 
L 491.902181 117.060558 
L 492.504643 117.26586 
L 493.709566 118.441062 
L 498.529259 124.116003 
L 505.156338 131.950455 
L 505.758799 137.73801 
L 508.771108 138.202293 
L 509.373569 137.763315 
L 510.578493 136.402543 
L 511.180954 136.047239 
L 511.783416 135.966398 
L 512.385878 135.46953 
L 512.988339 134.232553 
L 514.795724 128.969626 
L 516.000648 126.610087 
L 517.205571 125.103541 
L 518.410494 124.172147 
L 519.615418 123.62788 
L 520.21788 146.149177 
L 534.074498 162.337899 
L 534.67696 149.303364 
L 548.533578 165.469677 
L 549.13604 164.723837 
L 559.98035 177.365721 
L 560.582811 177.408084 
L 561.787735 175.049681 
L 562.390197 174.378843 
L 562.992658 174.194964 
L 563.59512 170.331281 
L 564.197582 167.546054 
L 567.812352 124.674195 
L 568.414813 115.972298 
L 569.017275 109.087667 
L 569.619737 105.824882 
L 570.82466 103.108766 
L 571.427122 102.783264 
L 572.029583 101.72784 
L 572.632045 99.919061 
L 573.234507 99.419758 
L 573.836968 97.470407 
L 575.041892 86.577595 
L 575.644353 79.660944 
L 576.246815 70.868473 
L 576.849277 63.920856 
L 577.451738 59.060536 
L 578.0542 133.532427 
L 579.861585 110.11193 
L 580.464047 103.615846 
L 581.066508 100.606789 
L 581.66897 99.857207 
L 582.271432 100.013336 
L 583.476355 101.169832 
L 587.693587 106.165768 
L 591.910818 111.195117 
L 592.51328 74.654259 
L 606.369899 91.374042 
L 606.97236 107.24753 
L 620.828979 123.721792 
L 621.43144 128.275447 
L 622.636364 129.864847 
L 622.636364 129.864847 
" clip-path="url(#p647c9fbc59)" style="fill: none; stroke: #ff7f0e; stroke-width: 1.5; stroke-linecap: square"/>
   </g>
   <g id="patch_3">
    <path d="M 90 288 
L 90 43.2 
" style="fill: none; stroke: #000000; stroke-width: 0.8; stroke-linejoin: miter; stroke-linecap: square"/>
   </g>
   <g id="patch_4">
    <path d="M 648 288 
L 648 43.2 
" style="fill: none; stroke: #000000; stroke-width: 0.8; stroke-linejoin: miter; stroke-linecap: square"/>
   </g>
   <g id="patch_5">
    <path d="M 90 288 
L 648 288 
" style="fill: none; stroke: #000000; stroke-width: 0.8; stroke-linejoin: miter; stroke-linecap: square"/>
   </g>
   <g id="patch_6">
    <path d="M 90 43.2 
L 648 43.2 
" style="fill: none; stroke: #000000; stroke-width: 0.8; stroke-linejoin: miter; stroke-linecap: square"/>
   </g>
   <g id="text_19">
    <!-- MDOT8955 -->
    <g transform="translate(335.545313 37.2) scale(0.12 -0.12)">
     <defs>
      <path id="DejaVuSans-44" d="M 1259 4147 
L 1259 519 
L 2022 519 
Q 2988 519 3436 956 
Q 3884 1394 3884 2338 
Q 3884 3275 3436 3711 
Q 2988 4147 2022 4147 
L 1259 4147 
z
M 628 4666 
L 1925 4666 
Q 3281 4666 3915 4102 
Q 4550 3538 4550 2338 
Q 4550 1131 3912 565 
Q 3275 0 1925 0 
L 628 0 
L 628 4666 
z
" transform="scale(0.015625)"/>
      <path id="DejaVuSans-4f" d="M 2522 4238 
Q 1834 4238 1429 3725 
Q 1025 3213 1025 2328 
Q 1025 1447 1429 934 
Q 1834 422 2522 422 
Q 3209 422 3611 934 
Q 4013 1447 4013 2328 
Q 4013 3213 3611 3725 
Q 3209 4238 2522 4238 
z
M 2522 4750 
Q 3503 4750 4090 4092 
Q 4678 3434 4678 2328 
Q 4678 1225 4090 567 
Q 3503 -91 2522 -91 
Q 1538 -91 948 565 
Q 359 1222 359 2328 
Q 359 3434 948 4092 
Q 1538 4750 2522 4750 
z
" transform="scale(0.015625)"/>
      <path id="DejaVuSans-54" d="M -19 4666 
L 3928 4666 
L 3928 4134 
L 2272 4134 
L 2272 0 
L 1638 0 
L 1638 4134 
L -19 4134 
L -19 4666 
z
" transform="scale(0.015625)"/>
     </defs>
     <use xlink:href="#DejaVuSans-4d"/>
     <use xlink:href="#DejaVuSans-44" x="86.279297"/>
     <use xlink:href="#DejaVuSans-4f" x="163.28125"/>
     <use xlink:href="#DejaVuSans-54" x="241.992188"/>
     <use xlink:href="#DejaVuSans-38" x="303.076172"/>
     <use xlink:href="#DejaVuSans-39" x="366.699219"/>
     <use xlink:href="#DejaVuSans-35" x="430.322266"/>
     <use xlink:href="#DejaVuSans-35" x="493.945312"/>
    </g>
   </g>
   <g id="legend_1">
    <g id="patch_7">
     <path d="M 97 80.55625 
L 178.95625 80.55625 
Q 180.95625 80.55625 180.95625 78.55625 
L 180.95625 50.2 
Q 180.95625 48.2 178.95625 48.2 
L 97 48.2 
Q 95 48.2 95 50.2 
L 95 78.55625 
Q 95 80.55625 97 80.55625 
z
" style="fill: #ffffff; opacity: 0.8; stroke: #cccccc; stroke-linejoin: miter"/>
    </g>
    <g id="line2d_20">
     <path d="M 99 56.298437 
L 109 56.298437 
L 119 56.298437 
" style="fill: none; stroke: #1f77b4; stroke-width: 1.5; stroke-linecap: square"/>
    </g>
    <g id="text_20">
     <!-- measured -->
     <g transform="translate(127 59.798437) scale(0.1 -0.1)">
      <defs>
       <path id="DejaVuSans-6d" d="M 3328 2828 
Q 3544 3216 3844 3400 
Q 4144 3584 4550 3584 
Q 5097 3584 5394 3201 
Q 5691 2819 5691 2113 
L 5691 0 
L 5113 0 
L 5113 2094 
Q 5113 2597 4934 2840 
Q 4756 3084 4391 3084 
Q 3944 3084 3684 2787 
Q 3425 2491 3425 1978 
L 3425 0 
L 2847 0 
L 2847 2094 
Q 2847 2600 2669 2842 
Q 2491 3084 2119 3084 
Q 1678 3084 1418 2786 
Q 1159 2488 1159 1978 
L 1159 0 
L 581 0 
L 581 3500 
L 1159 3500 
L 1159 2956 
Q 1356 3278 1631 3431 
Q 1906 3584 2284 3584 
Q 2666 3584 2933 3390 
Q 3200 3197 3328 2828 
z
" transform="scale(0.015625)"/>
       <path id="DejaVuSans-61" d="M 2194 1759 
Q 1497 1759 1228 1600 
Q 959 1441 959 1056 
Q 959 750 1161 570 
Q 1363 391 1709 391 
Q 2188 391 2477 730 
Q 2766 1069 2766 1631 
L 2766 1759 
L 2194 1759 
z
M 3341 1997 
L 3341 0 
L 2766 0 
L 2766 531 
Q 2569 213 2275 61 
Q 1981 -91 1556 -91 
Q 1019 -91 701 211 
Q 384 513 384 1019 
Q 384 1609 779 1909 
Q 1175 2209 1959 2209 
L 2766 2209 
L 2766 2266 
Q 2766 2663 2505 2880 
Q 2244 3097 1772 3097 
Q 1472 3097 1187 3025 
Q 903 2953 641 2809 
L 641 3341 
Q 956 3463 1253 3523 
Q 1550 3584 1831 3584 
Q 2591 3584 2966 3190 
Q 3341 2797 3341 1997 
z
" transform="scale(0.015625)"/>
       <path id="DejaVuSans-75" d="M 544 1381 
L 544 3500 
L 1119 3500 
L 1119 1403 
Q 1119 906 1312 657 
Q 1506 409 1894 409 
Q 2359 409 2629 706 
Q 2900 1003 2900 1516 
L 2900 3500 
L 3475 3500 
L 3475 0 
L 2900 0 
L 2900 538 
Q 2691 219 2414 64 
Q 2138 -91 1772 -91 
Q 1169 -91 856 284 
Q 544 659 544 1381 
z
M 1991 3584 
L 1991 3584 
z
" transform="scale(0.015625)"/>
       <path id="DejaVuSans-64" d="M 2906 2969 
L 2906 4863 
L 3481 4863 
L 3481 0 
L 2906 0 
L 2906 525 
Q 2725 213 2448 61 
Q 2172 -91 1784 -91 
Q 1150 -91 751 415 
Q 353 922 353 1747 
Q 353 2572 751 3078 
Q 1150 3584 1784 3584 
Q 2172 3584 2448 3432 
Q 2725 3281 2906 2969 
z
M 947 1747 
Q 947 1113 1208 752 
Q 1469 391 1925 391 
Q 2381 391 2643 752 
Q 2906 1113 2906 1747 
Q 2906 2381 2643 2742 
Q 2381 3103 1925 3103 
Q 1469 3103 1208 2742 
Q 947 2381 947 1747 
z
" transform="scale(0.015625)"/>
      </defs>
      <use xlink:href="#DejaVuSans-6d"/>
      <use xlink:href="#DejaVuSans-65" x="97.412109"/>
      <use xlink:href="#DejaVuSans-61" x="158.935547"/>
      <use xlink:href="#DejaVuSans-73" x="220.214844"/>
      <use xlink:href="#DejaVuSans-75" x="272.314453"/>
      <use xlink:href="#DejaVuSans-72" x="335.693359"/>
      <use xlink:href="#DejaVuSans-65" x="374.556641"/>
      <use xlink:href="#DejaVuSans-64" x="436.080078"/>
     </g>
    </g>
    <g id="line2d_21">
     <path d="M 99 70.976562 
L 109 70.976562 
L 119 70.976562 
" style="fill: none; stroke: #ff7f0e; stroke-width: 1.5; stroke-linecap: square"/>
    </g>
    <g id="text_21">
     <!-- predicted -->
     <g transform="translate(127 74.476562) scale(0.1 -0.1)">
      <defs>
       <path id="DejaVuSans-70" d="M 1159 525 
L 1159 -1331 
L 581 -1331 
L 581 3500 
L 1159 3500 
L 1159 2969 
Q 1341 3281 1617 3432 
Q 1894 3584 2278 3584 
Q 2916 3584 3314 3078 
Q 3713 2572 3713 1747 
Q 3713 922 3314 415 
Q 2916 -91 2278 -91 
Q 1894 -91 1617 61 
Q 1341 213 1159 525 
z
M 3116 1747 
Q 3116 2381 2855 2742 
Q 2594 3103 2138 3103 
Q 1681 3103 1420 2742 
Q 1159 2381 1159 1747 
Q 1159 1113 1420 752 
Q 1681 391 2138 391 
Q 2594 391 2855 752 
Q 3116 1113 3116 1747 
z
" transform="scale(0.015625)"/>
       <path id="DejaVuSans-69" d="M 603 3500 
L 1178 3500 
L 1178 0 
L 603 0 
L 603 3500 
z
M 603 4863 
L 1178 4863 
L 1178 4134 
L 603 4134 
L 603 4863 
z
" transform="scale(0.015625)"/>
       <path id="DejaVuSans-63" d="M 3122 3366 
L 3122 2828 
Q 2878 2963 2633 3030 
Q 2388 3097 2138 3097 
Q 1578 3097 1268 2742 
Q 959 2388 959 1747 
Q 959 1106 1268 751 
Q 1578 397 2138 397 
Q 2388 397 2633 464 
Q 2878 531 3122 666 
L 3122 134 
Q 2881 22 2623 -34 
Q 2366 -91 2075 -91 
Q 1284 -91 818 406 
Q 353 903 353 1747 
Q 353 2603 823 3093 
Q 1294 3584 2113 3584 
Q 2378 3584 2631 3529 
Q 2884 3475 3122 3366 
z
" transform="scale(0.015625)"/>
      </defs>
      <use xlink:href="#DejaVuSans-70"/>
      <use xlink:href="#DejaVuSans-72" x="63.476562"/>
      <use xlink:href="#DejaVuSans-65" x="102.339844"/>
      <use xlink:href="#DejaVuSans-64" x="163.863281"/>
      <use xlink:href="#DejaVuSans-69" x="227.339844"/>
      <use xlink:href="#DejaVuSans-63" x="255.123047"/>
      <use xlink:href="#DejaVuSans-74" x="310.103516"/>
      <use xlink:href="#DejaVuSans-65" x="349.3125"/>
      <use xlink:href="#DejaVuSans-64" x="410.835938"/>
     </g>
    </g>
   </g>
  </g>
 </g>
 <defs>
  <clipPath id="p647c9fbc59">
   <rect x="90" y="43.2" width="558" height="244.8"/>
  </clipPath>
 </defs>
</svg>
