<?xml version="1.0" encoding="utf-8" standalone="no"?>
<!DOCTYPE svg PUBLIC "-//W3C//DTD SVG 1.1//EN"
  "http://www.w3.org/Graphics/SVG/1.1/DTD/svg11.dtd">
<svg xmlns:xlink="http://www.w3.org/1999/xlink" width="720pt" height="360pt" viewBox="0 0 720 360" xmlns="http://www.w3.org/2000/svg" version="1.1">
 <metadata>
  <rdf:RDF xmlns:dc="http://purl.org/dc/elements/1.1/" xmlns:cc="http://creativecommons.org/ns#" xmlns:rdf="http://www.w3.org/1999/02/22-rdf-syntax-ns#">
   <cc:Work>
    <dc:type rdf:resource="http://purl.org/dc/dcmitype/StillImage"/>
    <dc:date>2023-10-23T10:53:00.156094</dc:date>
    <dc:format>image/svg+xml</dc:format>
    <dc:creator>
     <cc:Agent>
      <dc:title>Matplotlib v3.7.1, https://matplotlib.org/</dc:title>
     </cc:Agent>
    </dc:creator>
   </cc:Work>
  </rdf:RDF>
 </metadata>
 <defs>
  <style type="text/css">*{stroke-linejoin: round; stroke-linecap: butt}</style>
 </defs>
 <g id="figure_1">
  <g id="patch_1">
   <path d="M 0 360 
L 720 360 
L 720 0 
L 0 0 
z
" style="fill: #ffffff"/>
  </g>
  <g id="axes_1">
   <g id="patch_2">
    <path d="M 90 288 
L 648 288 
L 648 43.2 
L 90 43.2 
z
" style="fill: #ffffff"/>
   </g>
   <g id="matplotlib.axis_1">
    <g id="xtick_1">
     <g id="line2d_1">
      <defs>
       <path id="m9517b78fbb" d="M 0 0 
L 0 3.5 
" style="stroke: #000000; stroke-width: 0.8"/>
      </defs>
      <g>
       <use xlink:href="#m9517b78fbb" x="149.370747" y="288" style="stroke: #000000; stroke-width: 0.8"/>
      </g>
     </g>
     <g id="text_1">
      <!-- 2023-08-15 -->
      <g transform="translate(87.727405 337.765903) rotate(-30) scale(0.12 -0.12)">
       <defs>
        <path id="DejaVuSans-32" d="M 1228 531 
L 3431 531 
L 3431 0 
L 469 0 
L 469 531 
Q 828 903 1448 1529 
Q 2069 2156 2228 2338 
Q 2531 2678 2651 2914 
Q 2772 3150 2772 3378 
Q 2772 3750 2511 3984 
Q 2250 4219 1831 4219 
Q 1534 4219 1204 4116 
Q 875 4013 500 3803 
L 500 4441 
Q 881 4594 1212 4672 
Q 1544 4750 1819 4750 
Q 2544 4750 2975 4387 
Q 3406 4025 3406 3419 
Q 3406 3131 3298 2873 
Q 3191 2616 2906 2266 
Q 2828 2175 2409 1742 
Q 1991 1309 1228 531 
z
" transform="scale(0.015625)"/>
        <path id="DejaVuSans-30" d="M 2034 4250 
Q 1547 4250 1301 3770 
Q 1056 3291 1056 2328 
Q 1056 1369 1301 889 
Q 1547 409 2034 409 
Q 2525 409 2770 889 
Q 3016 1369 3016 2328 
Q 3016 3291 2770 3770 
Q 2525 4250 2034 4250 
z
M 2034 4750 
Q 2819 4750 3233 4129 
Q 3647 3509 3647 2328 
Q 3647 1150 3233 529 
Q 2819 -91 2034 -91 
Q 1250 -91 836 529 
Q 422 1150 422 2328 
Q 422 3509 836 4129 
Q 1250 4750 2034 4750 
z
" transform="scale(0.015625)"/>
        <path id="DejaVuSans-33" d="M 2597 2516 
Q 3050 2419 3304 2112 
Q 3559 1806 3559 1356 
Q 3559 666 3084 287 
Q 2609 -91 1734 -91 
Q 1441 -91 1130 -33 
Q 819 25 488 141 
L 488 750 
Q 750 597 1062 519 
Q 1375 441 1716 441 
Q 2309 441 2620 675 
Q 2931 909 2931 1356 
Q 2931 1769 2642 2001 
Q 2353 2234 1838 2234 
L 1294 2234 
L 1294 2753 
L 1863 2753 
Q 2328 2753 2575 2939 
Q 2822 3125 2822 3475 
Q 2822 3834 2567 4026 
Q 2313 4219 1838 4219 
Q 1578 4219 1281 4162 
Q 984 4106 628 3988 
L 628 4550 
Q 988 4650 1302 4700 
Q 1616 4750 1894 4750 
Q 2613 4750 3031 4423 
Q 3450 4097 3450 3541 
Q 3450 3153 3228 2886 
Q 3006 2619 2597 2516 
z
" transform="scale(0.015625)"/>
        <path id="DejaVuSans-2d" d="M 313 2009 
L 1997 2009 
L 1997 1497 
L 313 1497 
L 313 2009 
z
" transform="scale(0.015625)"/>
        <path id="DejaVuSans-38" d="M 2034 2216 
Q 1584 2216 1326 1975 
Q 1069 1734 1069 1313 
Q 1069 891 1326 650 
Q 1584 409 2034 409 
Q 2484 409 2743 651 
Q 3003 894 3003 1313 
Q 3003 1734 2745 1975 
Q 2488 2216 2034 2216 
z
M 1403 2484 
Q 997 2584 770 2862 
Q 544 3141 544 3541 
Q 544 4100 942 4425 
Q 1341 4750 2034 4750 
Q 2731 4750 3128 4425 
Q 3525 4100 3525 3541 
Q 3525 3141 3298 2862 
Q 3072 2584 2669 2484 
Q 3125 2378 3379 2068 
Q 3634 1759 3634 1313 
Q 3634 634 3220 271 
Q 2806 -91 2034 -91 
Q 1263 -91 848 271 
Q 434 634 434 1313 
Q 434 1759 690 2068 
Q 947 2378 1403 2484 
z
M 1172 3481 
Q 1172 3119 1398 2916 
Q 1625 2713 2034 2713 
Q 2441 2713 2670 2916 
Q 2900 3119 2900 3481 
Q 2900 3844 2670 4047 
Q 2441 4250 2034 4250 
Q 1625 4250 1398 4047 
Q 1172 3844 1172 3481 
z
" transform="scale(0.015625)"/>
        <path id="DejaVuSans-31" d="M 794 531 
L 1825 531 
L 1825 4091 
L 703 3866 
L 703 4441 
L 1819 4666 
L 2450 4666 
L 2450 531 
L 3481 531 
L 3481 0 
L 794 0 
L 794 531 
z
" transform="scale(0.015625)"/>
        <path id="DejaVuSans-35" d="M 691 4666 
L 3169 4666 
L 3169 4134 
L 1269 4134 
L 1269 2991 
Q 1406 3038 1543 3061 
Q 1681 3084 1819 3084 
Q 2600 3084 3056 2656 
Q 3513 2228 3513 1497 
Q 3513 744 3044 326 
Q 2575 -91 1722 -91 
Q 1428 -91 1123 -41 
Q 819 9 494 109 
L 494 744 
Q 775 591 1075 516 
Q 1375 441 1709 441 
Q 2250 441 2565 725 
Q 2881 1009 2881 1497 
Q 2881 1984 2565 2268 
Q 2250 2553 1709 2553 
Q 1456 2553 1204 2497 
Q 953 2441 691 2322 
L 691 4666 
z
" transform="scale(0.015625)"/>
       </defs>
       <use xlink:href="#DejaVuSans-32"/>
       <use xlink:href="#DejaVuSans-30" x="63.623047"/>
       <use xlink:href="#DejaVuSans-32" x="127.246094"/>
       <use xlink:href="#DejaVuSans-33" x="190.869141"/>
       <use xlink:href="#DejaVuSans-2d" x="254.492188"/>
       <use xlink:href="#DejaVuSans-30" x="290.576172"/>
       <use xlink:href="#DejaVuSans-38" x="354.199219"/>
       <use xlink:href="#DejaVuSans-2d" x="417.822266"/>
       <use xlink:href="#DejaVuSans-31" x="453.90625"/>
       <use xlink:href="#DejaVuSans-35" x="517.529297"/>
      </g>
     </g>
    </g>
    <g id="xtick_2">
     <g id="line2d_2">
      <g>
       <use xlink:href="#m9517b78fbb" x="264.994921" y="288" style="stroke: #000000; stroke-width: 0.8"/>
      </g>
     </g>
     <g id="text_2">
      <!-- 2023-09-01 -->
      <g transform="translate(203.35158 337.765903) rotate(-30) scale(0.12 -0.12)">
       <defs>
        <path id="DejaVuSans-39" d="M 703 97 
L 703 672 
Q 941 559 1184 500 
Q 1428 441 1663 441 
Q 2288 441 2617 861 
Q 2947 1281 2994 2138 
Q 2813 1869 2534 1725 
Q 2256 1581 1919 1581 
Q 1219 1581 811 2004 
Q 403 2428 403 3163 
Q 403 3881 828 4315 
Q 1253 4750 1959 4750 
Q 2769 4750 3195 4129 
Q 3622 3509 3622 2328 
Q 3622 1225 3098 567 
Q 2575 -91 1691 -91 
Q 1453 -91 1209 -44 
Q 966 3 703 97 
z
M 1959 2075 
Q 2384 2075 2632 2365 
Q 2881 2656 2881 3163 
Q 2881 3666 2632 3958 
Q 2384 4250 1959 4250 
Q 1534 4250 1286 3958 
Q 1038 3666 1038 3163 
Q 1038 2656 1286 2365 
Q 1534 2075 1959 2075 
z
" transform="scale(0.015625)"/>
       </defs>
       <use xlink:href="#DejaVuSans-32"/>
       <use xlink:href="#DejaVuSans-30" x="63.623047"/>
       <use xlink:href="#DejaVuSans-32" x="127.246094"/>
       <use xlink:href="#DejaVuSans-33" x="190.869141"/>
       <use xlink:href="#DejaVuSans-2d" x="254.492188"/>
       <use xlink:href="#DejaVuSans-30" x="290.576172"/>
       <use xlink:href="#DejaVuSans-39" x="354.199219"/>
       <use xlink:href="#DejaVuSans-2d" x="417.822266"/>
       <use xlink:href="#DejaVuSans-30" x="453.90625"/>
       <use xlink:href="#DejaVuSans-31" x="517.529297"/>
      </g>
     </g>
    </g>
    <g id="xtick_3">
     <g id="line2d_3">
      <g>
       <use xlink:href="#m9517b78fbb" x="360.21483" y="288" style="stroke: #000000; stroke-width: 0.8"/>
      </g>
     </g>
     <g id="text_3">
      <!-- 2023-09-15 -->
      <g transform="translate(298.571488 337.765903) rotate(-30) scale(0.12 -0.12)">
       <use xlink:href="#DejaVuSans-32"/>
       <use xlink:href="#DejaVuSans-30" x="63.623047"/>
       <use xlink:href="#DejaVuSans-32" x="127.246094"/>
       <use xlink:href="#DejaVuSans-33" x="190.869141"/>
       <use xlink:href="#DejaVuSans-2d" x="254.492188"/>
       <use xlink:href="#DejaVuSans-30" x="290.576172"/>
       <use xlink:href="#DejaVuSans-39" x="354.199219"/>
       <use xlink:href="#DejaVuSans-2d" x="417.822266"/>
       <use xlink:href="#DejaVuSans-31" x="453.90625"/>
       <use xlink:href="#DejaVuSans-35" x="517.529297"/>
      </g>
     </g>
    </g>
    <g id="xtick_4">
     <g id="line2d_4">
      <g>
       <use xlink:href="#m9517b78fbb" x="469.037583" y="288" style="stroke: #000000; stroke-width: 0.8"/>
      </g>
     </g>
     <g id="text_4">
      <!-- 2023-10-01 -->
      <g transform="translate(407.394241 337.765903) rotate(-30) scale(0.12 -0.12)">
       <use xlink:href="#DejaVuSans-32"/>
       <use xlink:href="#DejaVuSans-30" x="63.623047"/>
       <use xlink:href="#DejaVuSans-32" x="127.246094"/>
       <use xlink:href="#DejaVuSans-33" x="190.869141"/>
       <use xlink:href="#DejaVuSans-2d" x="254.492188"/>
       <use xlink:href="#DejaVuSans-31" x="290.576172"/>
       <use xlink:href="#DejaVuSans-30" x="354.199219"/>
       <use xlink:href="#DejaVuSans-2d" x="417.822266"/>
       <use xlink:href="#DejaVuSans-30" x="453.90625"/>
       <use xlink:href="#DejaVuSans-31" x="517.529297"/>
      </g>
     </g>
    </g>
    <g id="xtick_5">
     <g id="line2d_5">
      <g>
       <use xlink:href="#m9517b78fbb" x="564.257491" y="288" style="stroke: #000000; stroke-width: 0.8"/>
      </g>
     </g>
     <g id="text_5">
      <!-- 2023-10-15 -->
      <g transform="translate(502.614149 337.765903) rotate(-30) scale(0.12 -0.12)">
       <use xlink:href="#DejaVuSans-32"/>
       <use xlink:href="#DejaVuSans-30" x="63.623047"/>
       <use xlink:href="#DejaVuSans-32" x="127.246094"/>
       <use xlink:href="#DejaVuSans-33" x="190.869141"/>
       <use xlink:href="#DejaVuSans-2d" x="254.492188"/>
       <use xlink:href="#DejaVuSans-31" x="290.576172"/>
       <use xlink:href="#DejaVuSans-30" x="354.199219"/>
       <use xlink:href="#DejaVuSans-2d" x="417.822266"/>
       <use xlink:href="#DejaVuSans-31" x="453.90625"/>
       <use xlink:href="#DejaVuSans-35" x="517.529297"/>
      </g>
     </g>
    </g>
   </g>
   <g id="matplotlib.axis_2">
    <g id="ytick_1">
     <g id="line2d_6">
      <defs>
       <path id="m6f328648d4" d="M 0 0 
L -3.5 0 
" style="stroke: #000000; stroke-width: 0.8"/>
      </defs>
      <g>
       <use xlink:href="#m6f328648d4" x="90" y="269.512681" style="stroke: #000000; stroke-width: 0.8"/>
      </g>
     </g>
     <g id="text_6">
      <!-- 0.00 -->
      <g transform="translate(56.28125 274.071744) scale(0.12 -0.12)">
       <defs>
        <path id="DejaVuSans-2e" d="M 684 794 
L 1344 794 
L 1344 0 
L 684 0 
L 684 794 
z
" transform="scale(0.015625)"/>
       </defs>
       <use xlink:href="#DejaVuSans-30"/>
       <use xlink:href="#DejaVuSans-2e" x="63.623047"/>
       <use xlink:href="#DejaVuSans-30" x="95.410156"/>
       <use xlink:href="#DejaVuSans-30" x="159.033203"/>
      </g>
     </g>
    </g>
    <g id="ytick_2">
     <g id="line2d_7">
      <g>
       <use xlink:href="#m6f328648d4" x="90" y="241.005515" style="stroke: #000000; stroke-width: 0.8"/>
      </g>
     </g>
     <g id="text_7">
      <!-- 0.25 -->
      <g transform="translate(56.28125 245.564577) scale(0.12 -0.12)">
       <use xlink:href="#DejaVuSans-30"/>
       <use xlink:href="#DejaVuSans-2e" x="63.623047"/>
       <use xlink:href="#DejaVuSans-32" x="95.410156"/>
       <use xlink:href="#DejaVuSans-35" x="159.033203"/>
      </g>
     </g>
    </g>
    <g id="ytick_3">
     <g id="line2d_8">
      <g>
       <use xlink:href="#m6f328648d4" x="90" y="212.498348" style="stroke: #000000; stroke-width: 0.8"/>
      </g>
     </g>
     <g id="text_8">
      <!-- 0.50 -->
      <g transform="translate(56.28125 217.057411) scale(0.12 -0.12)">
       <use xlink:href="#DejaVuSans-30"/>
       <use xlink:href="#DejaVuSans-2e" x="63.623047"/>
       <use xlink:href="#DejaVuSans-35" x="95.410156"/>
       <use xlink:href="#DejaVuSans-30" x="159.033203"/>
      </g>
     </g>
    </g>
    <g id="ytick_4">
     <g id="line2d_9">
      <g>
       <use xlink:href="#m6f328648d4" x="90" y="183.991182" style="stroke: #000000; stroke-width: 0.8"/>
      </g>
     </g>
     <g id="text_9">
      <!-- 0.75 -->
      <g transform="translate(56.28125 188.550244) scale(0.12 -0.12)">
       <defs>
        <path id="DejaVuSans-37" d="M 525 4666 
L 3525 4666 
L 3525 4397 
L 1831 0 
L 1172 0 
L 2766 4134 
L 525 4134 
L 525 4666 
z
" transform="scale(0.015625)"/>
       </defs>
       <use xlink:href="#DejaVuSans-30"/>
       <use xlink:href="#DejaVuSans-2e" x="63.623047"/>
       <use xlink:href="#DejaVuSans-37" x="95.410156"/>
       <use xlink:href="#DejaVuSans-35" x="159.033203"/>
      </g>
     </g>
    </g>
    <g id="ytick_5">
     <g id="line2d_10">
      <g>
       <use xlink:href="#m6f328648d4" x="90" y="155.484015" style="stroke: #000000; stroke-width: 0.8"/>
      </g>
     </g>
     <g id="text_10">
      <!-- 1.00 -->
      <g transform="translate(56.28125 160.043078) scale(0.12 -0.12)">
       <use xlink:href="#DejaVuSans-31"/>
       <use xlink:href="#DejaVuSans-2e" x="63.623047"/>
       <use xlink:href="#DejaVuSans-30" x="95.410156"/>
       <use xlink:href="#DejaVuSans-30" x="159.033203"/>
      </g>
     </g>
    </g>
    <g id="ytick_6">
     <g id="line2d_11">
      <g>
       <use xlink:href="#m6f328648d4" x="90" y="126.976849" style="stroke: #000000; stroke-width: 0.8"/>
      </g>
     </g>
     <g id="text_11">
      <!-- 1.25 -->
      <g transform="translate(56.28125 131.535911) scale(0.12 -0.12)">
       <use xlink:href="#DejaVuSans-31"/>
       <use xlink:href="#DejaVuSans-2e" x="63.623047"/>
       <use xlink:href="#DejaVuSans-32" x="95.410156"/>
       <use xlink:href="#DejaVuSans-35" x="159.033203"/>
      </g>
     </g>
    </g>
    <g id="ytick_7">
     <g id="line2d_12">
      <g>
       <use xlink:href="#m6f328648d4" x="90" y="98.469682" style="stroke: #000000; stroke-width: 0.8"/>
      </g>
     </g>
     <g id="text_12">
      <!-- 1.50 -->
      <g transform="translate(56.28125 103.028745) scale(0.12 -0.12)">
       <use xlink:href="#DejaVuSans-31"/>
       <use xlink:href="#DejaVuSans-2e" x="63.623047"/>
       <use xlink:href="#DejaVuSans-35" x="95.410156"/>
       <use xlink:href="#DejaVuSans-30" x="159.033203"/>
      </g>
     </g>
    </g>
    <g id="ytick_8">
     <g id="line2d_13">
      <g>
       <use xlink:href="#m6f328648d4" x="90" y="69.962516" style="stroke: #000000; stroke-width: 0.8"/>
      </g>
     </g>
     <g id="text_13">
      <!-- 1.75 -->
      <g transform="translate(56.28125 74.521578) scale(0.12 -0.12)">
       <use xlink:href="#DejaVuSans-31"/>
       <use xlink:href="#DejaVuSans-2e" x="63.623047"/>
       <use xlink:href="#DejaVuSans-37" x="95.410156"/>
       <use xlink:href="#DejaVuSans-35" x="159.033203"/>
      </g>
     </g>
    </g>
    <g id="text_14">
     <!-- Meters -->
     <g transform="translate(50.201562 182.6875) rotate(-90) scale(0.1 -0.1)">
      <defs>
       <path id="DejaVuSans-4d" d="M 628 4666 
L 1569 4666 
L 2759 1491 
L 3956 4666 
L 4897 4666 
L 4897 0 
L 4281 0 
L 4281 4097 
L 3078 897 
L 2444 897 
L 1241 4097 
L 1241 0 
L 628 0 
L 628 4666 
z
" transform="scale(0.015625)"/>
       <path id="DejaVuSans-65" d="M 3597 1894 
L 3597 1613 
L 953 1613 
Q 991 1019 1311 708 
Q 1631 397 2203 397 
Q 2534 397 2845 478 
Q 3156 559 3463 722 
L 3463 178 
Q 3153 47 2828 -22 
Q 2503 -91 2169 -91 
Q 1331 -91 842 396 
Q 353 884 353 1716 
Q 353 2575 817 3079 
Q 1281 3584 2069 3584 
Q 2775 3584 3186 3129 
Q 3597 2675 3597 1894 
z
M 3022 2063 
Q 3016 2534 2758 2815 
Q 2500 3097 2075 3097 
Q 1594 3097 1305 2825 
Q 1016 2553 972 2059 
L 3022 2063 
z
" transform="scale(0.015625)"/>
       <path id="DejaVuSans-74" d="M 1172 4494 
L 1172 3500 
L 2356 3500 
L 2356 3053 
L 1172 3053 
L 1172 1153 
Q 1172 725 1289 603 
Q 1406 481 1766 481 
L 2356 481 
L 2356 0 
L 1766 0 
Q 1100 0 847 248 
Q 594 497 594 1153 
L 594 3053 
L 172 3053 
L 172 3500 
L 594 3500 
L 594 4494 
L 1172 4494 
z
" transform="scale(0.015625)"/>
       <path id="DejaVuSans-72" d="M 2631 2963 
Q 2534 3019 2420 3045 
Q 2306 3072 2169 3072 
Q 1681 3072 1420 2755 
Q 1159 2438 1159 1844 
L 1159 0 
L 581 0 
L 581 3500 
L 1159 3500 
L 1159 2956 
Q 1341 3275 1631 3429 
Q 1922 3584 2338 3584 
Q 2397 3584 2469 3576 
Q 2541 3569 2628 3553 
L 2631 2963 
z
" transform="scale(0.015625)"/>
       <path id="DejaVuSans-73" d="M 2834 3397 
L 2834 2853 
Q 2591 2978 2328 3040 
Q 2066 3103 1784 3103 
Q 1356 3103 1142 2972 
Q 928 2841 928 2578 
Q 928 2378 1081 2264 
Q 1234 2150 1697 2047 
L 1894 2003 
Q 2506 1872 2764 1633 
Q 3022 1394 3022 966 
Q 3022 478 2636 193 
Q 2250 -91 1575 -91 
Q 1294 -91 989 -36 
Q 684 19 347 128 
L 347 722 
Q 666 556 975 473 
Q 1284 391 1588 391 
Q 1994 391 2212 530 
Q 2431 669 2431 922 
Q 2431 1156 2273 1281 
Q 2116 1406 1581 1522 
L 1381 1569 
Q 847 1681 609 1914 
Q 372 2147 372 2553 
Q 372 3047 722 3315 
Q 1072 3584 1716 3584 
Q 2034 3584 2315 3537 
Q 2597 3491 2834 3397 
z
" transform="scale(0.015625)"/>
      </defs>
      <use xlink:href="#DejaVuSans-4d"/>
      <use xlink:href="#DejaVuSans-65" x="86.279297"/>
      <use xlink:href="#DejaVuSans-74" x="147.802734"/>
      <use xlink:href="#DejaVuSans-65" x="187.011719"/>
      <use xlink:href="#DejaVuSans-72" x="248.535156"/>
      <use xlink:href="#DejaVuSans-73" x="289.648438"/>
     </g>
    </g>
   </g>
   <g id="line2d_14">
    <path d="M 115.363636 269.007284 
L 115.647029 268.760285 
L 115.930422 269.216283 
L 116.780599 269.406282 
L 117.063992 269.653281 
L 117.630777 269.463281 
L 118.197562 269.74828 
L 118.764347 269.197283 
L 119.04774 269.976279 
L 119.331133 270.318278 
L 119.897918 270.489277 
L 120.464703 269.976279 
L 120.748095 270.470277 
L 121.314881 269.919279 
L 121.598273 270.318278 
L 121.881666 269.82428 
L 122.731844 269.84328 
L 123.015236 269.938279 
L 123.298629 270.660276 
L 123.582021 270.945275 
L 123.865414 270.812275 
L 124.715592 271.306273 
L 124.998984 271.344273 
L 125.282377 271.211273 
L 125.565769 270.793275 
L 126.132555 273.073265 
L 126.415947 272.921266 
L 126.69934 272.978265 
L 126.982732 272.769266 
L 127.266125 272.275268 
L 127.549518 272.085269 
L 127.83291 271.705271 
L 128.399695 269.159283 
L 128.683088 269.406282 
L 128.96648 269.406282 
L 129.249873 268.836284 
L 129.533266 268.627285 
L 129.816658 263.744308 
L 130.100051 262.319314 
L 130.383443 264.105306 
L 130.666836 262.984311 
L 130.950229 262.642313 
L 131.233621 263.611308 
L 131.517014 261.996316 
L 131.800406 258.690331 
L 132.083799 258.386332 
L 132.367191 259.355328 
L 132.933977 262.110315 
L 133.784154 263.592308 
L 134.067547 261.388319 
L 134.35094 262.148315 
L 134.634332 262.357314 
L 134.917725 261.882316 
L 135.201117 262.053316 
L 135.48451 262.490314 
L 135.767902 261.901316 
L 136.051295 260.495323 
L 136.334688 260.305324 
L 137.184865 264.333305 
L 138.035043 265.891298 
L 138.318436 266.157297 
L 138.601828 265.986297 
L 138.885221 265.663299 
L 139.168614 266.043297 
L 139.735399 268.095288 
L 140.018791 268.171287 
L 140.868969 267.734289 
L 141.152362 268.304287 
L 141.719147 268.684285 
L 142.285932 268.437286 
L 142.569325 268.475286 
L 143.419502 268.000288 
L 144.26968 268.646285 
L 145.119858 268.912284 
L 145.40325 269.254282 
L 146.253428 269.349282 
L 146.820213 270.242278 
L 147.103606 270.451277 
L 147.386998 270.261278 
L 147.670391 270.356277 
L 147.953784 270.052279 
L 148.237176 270.052279 
L 148.520569 269.74828 
L 149.087354 269.71028 
L 149.370747 269.444282 
L 150.504317 253.826353 
L 150.787709 253.731354 
L 151.071102 256.79034 
L 151.354495 255.878344 
L 151.637887 249.342374 
L 152.204672 242.863404 
L 152.771458 221.640502 
L 153.05485 212.444544 
L 153.338243 211.019551 
L 153.621635 213.527539 
L 153.905028 211.703548 
L 154.188421 208.264563 
L 154.471813 207.485567 
L 154.755206 209.119559 
L 155.321991 215.294531 
L 155.605383 216.016528 
L 156.172169 218.600516 
L 157.872524 230.342462 
L 159.006094 239.614419 
L 159.289487 241.438411 
L 159.57288 242.502406 
L 160.139665 246.910385 
L 160.423057 247.670382 
L 160.989843 249.589373 
L 161.556628 251.527364 
L 162.123413 253.750354 
L 162.406805 254.339351 
L 162.690198 254.301351 
L 163.540376 256.923339 
L 163.823768 256.600341 
L 164.107161 257.474337 
L 164.390554 257.968334 
L 164.673946 258.97533 
L 165.240731 259.735326 
L 165.524124 260.305324 
L 165.807517 260.286324 
L 166.090909 260.875321 
L 166.374302 260.628322 
L 166.657694 261.749317 
L 167.224479 262.338314 
L 167.791265 262.357314 
L 168.074657 259.735326 
L 168.641442 245.90339 
L 168.924835 233.477447 
L 169.49162 222.875496 
L 170.058405 204.958579 
L 170.341798 199.619603 
L 170.62519 196.845616 
L 170.908583 195.287623 
L 171.191976 195.629622 
L 171.475368 198.23261 
L 172.608939 215.59853 
L 174.025901 228.119472 
L 174.876079 234.104444 
L 175.159472 235.529438 
L 175.726257 239.557419 
L 176.00965 240.887413 
L 176.293042 241.343411 
L 177.993398 249.000376 
L 178.560183 250.900367 
L 179.410361 252.876358 
L 179.693753 253.332356 
L 179.977146 253.560355 
L 180.260538 255.460346 
L 180.543931 256.448341 
L 180.827324 256.600341 
L 181.110716 256.581341 
L 181.394109 257.170338 
L 181.677501 257.360337 
L 181.960894 258.120334 
L 182.811072 259.165329 
L 183.094464 259.070329 
L 183.661249 260.913321 
L 183.944642 260.818321 
L 184.511427 261.17932 
L 185.644997 262.262315 
L 186.211783 262.661313 
L 186.778568 262.376314 
L 187.06196 263.649308 
L 187.628746 264.333305 
L 188.195531 264.219306 
L 188.478923 263.896307 
L 188.762316 264.219306 
L 189.045708 264.789303 
L 189.329101 264.827303 
L 189.612494 264.485304 
L 189.895886 264.637304 
L 190.179279 264.960302 
L 190.462671 264.751303 
L 190.746064 264.751303 
L 191.029457 264.941302 
L 191.312849 264.846303 
L 191.596242 264.979302 
L 192.163027 265.986297 
L 192.44642 266.100297 
L 193.013205 266.005297 
L 193.296597 266.233296 
L 193.57999 266.252296 
L 193.863382 266.480295 
L 194.146775 266.461295 
L 194.430168 267.107292 
L 195.280345 267.392291 
L 195.563738 267.753289 
L 196.413916 268.171287 
L 196.697308 267.60129 
L 197.264093 267.772289 
L 197.547486 268.000288 
L 197.830879 267.981288 
L 198.114271 268.171287 
L 198.397664 268.570286 
L 198.681056 268.380286 
L 198.964449 268.760285 
L 199.247842 268.646285 
L 199.531234 268.722285 
L 199.814627 268.665285 
L 201.23159 269.406282 
L 201.514982 269.938279 
L 201.798375 269.957279 
L 202.081767 269.80528 
L 202.931945 270.888275 
L 203.215338 270.831275 
L 203.49873 269.976279 
L 203.782123 269.938279 
L 204.065515 269.558281 
L 204.915693 269.311282 
L 205.199086 269.520281 
L 205.482478 269.577281 
L 205.765871 269.88128 
L 207.466227 269.539281 
L 207.749619 258.519332 
L 208.316404 158.921791 
L 208.599797 144.253858 
L 208.883189 114.423996 
L 209.733367 71.693193 
L 210.300152 59.571249 
L 210.583545 54.783271 
L 210.866938 54.327273 
L 213.134078 54.327273 
L 213.417471 59.21025 
L 215.401219 122.707958 
L 216.534789 148.414839 
L 217.66836 169.352743 
L 218.235145 85.126131 
L 218.80193 55.752266 
L 219.085322 54.327273 
L 229.004063 54.327273 
L 229.287456 133.10091 
L 229.570848 135.1339 
L 229.854241 178.871699 
L 230.704418 187.28866 
L 231.554596 194.489627 
L 232.404774 201.519595 
L 233.254952 207.029569 
L 234.955307 215.123532 
L 235.522092 216.947523 
L 236.655663 221.279503 
L 236.939055 222.875496 
L 237.222448 223.692492 
L 237.505841 223.958491 
L 238.072626 226.048481 
L 239.489589 230.266462 
L 241.189944 233.591447 
L 241.473337 235.586438 
L 242.040122 236.232435 
L 242.8903 236.973431 
L 244.02387 239.861418 
L 244.590655 240.222416 
L 244.874048 240.469415 
L 246.857796 243.509401 
L 247.707974 244.193398 
L 247.991366 244.079398 
L 248.274759 244.953394 
L 248.558151 245.048394 
L 249.124937 245.675391 
L 249.408329 245.770391 
L 249.691722 245.99839 
L 250.541899 246.340388 
L 251.108685 246.967385 
L 251.392077 247.518383 
L 251.958862 247.385383 
L 252.242255 246.929385 
L 252.525648 246.796386 
L 252.80904 246.834386 
L 253.375825 244.744395 
L 253.659218 244.744395 
L 253.94261 245.542392 
L 255.076181 247.081385 
L 255.359573 247.594382 
L 255.926359 248.221379 
L 256.209751 248.658377 
L 257.059929 249.361374 
L 257.343321 249.703372 
L 257.626714 250.596368 
L 257.910107 250.558369 
L 259.043677 251.033366 
L 259.32707 250.919367 
L 259.893855 251.470364 
L 260.177247 251.641364 
L 260.46064 252.002362 
L 261.027425 252.30636 
L 261.310818 252.686359 
L 261.59421 252.781358 
L 261.877603 254.738349 
L 262.727781 254.54835 
L 263.011173 254.263351 
L 263.294566 254.244352 
L 264.428136 255.783344 
L 264.994921 255.023348 
L 265.278314 254.985348 
L 267.262062 256.125343 
L 267.545455 256.068343 
L 267.828847 256.296342 
L 268.395632 256.429342 
L 268.679025 257.949334 
L 269.24581 257.645336 
L 269.812595 257.094338 
L 270.095988 257.113338 
L 270.662773 257.835335 
L 270.946166 258.177333 
L 271.229558 258.329333 
L 271.512951 257.683336 
L 272.079736 257.550336 
L 273.213306 258.196333 
L 273.496699 258.120334 
L 273.780091 258.329333 
L 274.630269 258.405332 
L 274.913662 258.310333 
L 275.197054 257.930335 
L 276.047232 259.03233 
L 276.614017 258.84233 
L 276.89741 258.500332 
L 277.180802 258.595332 
L 277.464195 258.329333 
L 278.03098 258.215333 
L 278.881158 259.317328 
L 279.164551 259.127329 
L 279.447943 259.089329 
L 279.731336 259.260328 
L 280.581513 259.336328 
L 280.864906 258.86133 
L 281.715084 258.89933 
L 281.998476 259.146329 
L 282.281869 259.621327 
L 282.565262 259.412328 
L 282.848654 259.963325 
L 283.132047 260.134324 
L 283.415439 260.020325 
L 283.698832 259.564327 
L 284.54901 260.172324 
L 284.832402 259.811326 
L 285.115795 259.735326 
L 285.399187 259.811326 
L 285.965973 260.134324 
L 286.249365 260.894321 
L 286.532758 260.856321 
L 287.099543 260.020325 
L 287.666328 260.875321 
L 287.949721 260.856321 
L 288.233113 261.00832 
L 288.516506 260.970321 
L 288.799898 260.457323 
L 289.083291 261.407319 
L 289.366684 261.559318 
L 290.216861 261.426318 
L 290.500254 261.331319 
L 291.917217 262.376314 
L 292.200609 262.319314 
L 292.484002 261.901316 
L 292.767395 261.806317 
L 294.46775 262.148315 
L 295.317928 262.224315 
L 295.60132 261.882316 
L 295.884713 262.718313 
L 296.168106 263.098311 
L 296.734891 262.851312 
L 297.018283 262.414314 
L 297.301676 262.566313 
L 297.868461 262.072316 
L 298.151854 262.528313 
L 298.435246 262.699313 
L 298.718639 262.566313 
L 299.002031 262.604313 
L 299.285424 262.262315 
L 299.568817 262.376314 
L 299.852209 262.965311 
L 301.269172 263.079311 
L 301.552565 263.23131 
L 301.835957 262.775312 
L 302.11935 262.604313 
L 302.402743 262.794312 
L 302.686135 263.763308 
L 302.969528 263.155311 
L 303.536313 263.23131 
L 303.819705 251.090366 
L 304.103098 245.542392 
L 304.386491 235.605437 
L 304.669883 234.522442 
L 304.953276 237.866427 
L 305.520061 228.157472 
L 305.803454 229.810464 
L 306.937024 244.326397 
L 307.503809 248.221379 
L 307.787202 249.190375 
L 308.070594 249.589373 
L 308.353987 249.608373 
L 308.637379 249.912372 
L 309.204165 252.116361 
L 309.487557 253.560355 
L 309.77095 253.655354 
L 310.054342 254.263351 
L 310.337735 253.484355 
L 310.621127 253.332356 
L 311.187913 253.788354 
L 311.471305 251.204366 
L 311.754698 246.492387 
L 312.03809 245.732391 
L 312.321483 246.549387 
L 312.604876 245.88439 
L 313.171661 238.075426 
L 313.455053 237.011431 
L 313.738446 238.968422 
L 314.305231 243.7944 
L 314.588624 245.219393 
L 315.155409 247.157384 
L 316.288979 251.527364 
L 317.705942 254.757349 
L 317.989335 255.270347 
L 319.406298 256.467341 
L 320.823261 258.044334 
L 321.673438 258.519332 
L 322.240223 258.652331 
L 322.523616 258.93733 
L 322.807009 258.766331 
L 323.090401 260.571322 
L 323.657186 259.678327 
L 323.940579 259.811326 
L 324.223972 259.488327 
L 324.790757 259.754326 
L 326.491112 260.229324 
L 327.057897 260.856321 
L 327.34129 261.04632 
L 327.624683 260.704322 
L 328.191468 260.856321 
L 328.47486 260.799321 
L 328.758253 261.08432 
L 329.608431 261.17932 
L 329.891823 262.452314 
L 330.175216 263.079311 
L 330.458608 263.079311 
L 331.025394 262.243315 
L 331.875571 261.939316 
L 332.158964 262.091315 
L 332.442357 262.813312 
L 332.725749 262.889312 
L 333.292534 262.661313 
L 334.426105 262.794312 
L 335.276282 263.36431 
L 336.12646 263.21231 
L 336.409853 263.535309 
L 336.693245 264.713303 
L 337.26003 263.991307 
L 337.543423 264.086306 
L 337.826816 263.706308 
L 338.393601 263.516309 
L 338.676993 263.19331 
L 338.960386 263.060311 
L 339.243779 263.21231 
L 339.527171 263.079311 
L 339.810564 263.117311 
L 343.494667 179.840694 
L 343.77806 176.55371 
L 344.061453 175.698713 
L 344.344845 176.325711 
L 344.628238 178.396701 
L 344.91163 182.177684 
L 346.328593 207.903565 
L 347.462164 222.267499 
L 348.595734 231.881455 
L 350.579482 242.274407 
L 351.146267 243.262402 
L 352.279837 245.713391 
L 352.846623 248.449378 
L 353.130015 248.734377 
L 353.6968 248.905376 
L 355.397156 251.603364 
L 356.247334 252.572359 
L 356.530726 252.686359 
L 356.814119 253.465355 
L 357.097511 255.042348 
L 357.380904 255.555346 
L 357.947689 254.985348 
L 358.231082 255.099348 
L 359.08126 256.125343 
L 359.364652 257.284338 
L 359.648045 257.759335 
L 359.931437 257.626336 
L 360.21483 256.581341 
L 361.631793 258.139334 
L 362.198578 258.443332 
L 362.765363 258.95633 
L 363.048756 259.165329 
L 363.332148 259.146329 
L 363.615541 259.925325 
L 363.898933 260.324324 
L 364.182326 260.514323 
L 364.465719 260.552323 
L 365.032504 260.020325 
L 365.599289 260.248324 
L 365.882682 261.02732 
L 366.166074 260.229324 
L 366.449467 260.533323 
L 366.732859 260.552323 
L 367.299644 260.438323 
L 368.716607 261.04632 
L 369 260.951321 
L 369.850178 261.274319 
L 370.13357 261.540318 
L 370.700356 262.756312 
L 370.983748 262.699313 
L 371.267141 262.433314 
L 371.550533 262.509313 
L 371.833926 262.376314 
L 372.117318 262.433314 
L 372.400711 262.775312 
L 372.684104 262.357314 
L 373.250889 262.414314 
L 373.534281 262.585313 
L 374.101067 262.262315 
L 374.951244 262.433314 
L 375.234637 262.338314 
L 375.518029 262.471314 
L 376.368207 263.136311 
L 376.6516 263.17431 
L 377.218385 263.041311 
L 377.501778 263.060311 
L 378.068563 263.535309 
L 378.351955 263.668308 
L 378.91874 263.497309 
L 379.485526 263.725308 
L 380.335703 263.32631 
L 380.619096 263.19331 
L 381.185881 263.478309 
L 381.469274 263.535309 
L 382.036059 264.048306 
L 382.319451 263.782308 
L 382.602844 263.706308 
L 382.886237 264.067306 
L 383.169629 264.048306 
L 383.453022 263.877307 
L 383.736414 263.573309 
L 384.3032 263.554309 
L 384.586592 264.314305 
L 385.153377 263.592308 
L 385.43677 263.611308 
L 385.720163 263.877307 
L 386.286948 264.086306 
L 386.57034 264.371305 
L 386.853733 264.390305 
L 387.137125 265.074302 
L 387.420518 264.694303 
L 387.703911 264.637304 
L 388.554088 264.922302 
L 389.687659 264.789303 
L 389.971051 265.4163 
L 390.254444 265.5113 
L 390.537836 265.264301 
L 390.821229 265.986297 
L 391.104622 266.081297 
L 391.388014 267.430291 
L 391.671407 266.803294 
L 391.954799 266.974293 
L 392.238192 266.822294 
L 392.521585 266.005297 
L 393.08837 266.404296 
L 394.788725 265.834298 
L 395.072118 265.891298 
L 395.35551 265.625299 
L 395.638903 265.834298 
L 396.772473 265.815298 
L 397.055866 265.967298 
L 397.906044 265.606299 
L 398.189436 265.891298 
L 398.472829 266.404296 
L 398.756221 266.157297 
L 399.039614 266.119297 
L 399.606399 266.765294 
L 399.889792 267.107292 
L 400.173184 266.898293 
L 400.456577 266.233296 
L 400.73997 266.157297 
L 401.023362 266.594295 
L 401.306755 266.290296 
L 402.723718 266.423295 
L 403.573895 266.765294 
L 403.857288 266.879293 
L 404.707466 266.651294 
L 405.841036 267.52529 
L 406.124429 267.56329 
L 406.407821 268.076288 
L 406.691214 267.772289 
L 406.974606 268.057288 
L 407.541392 267.829289 
L 407.824784 267.354291 
L 410.091925 267.430291 
L 410.375317 267.164292 
L 410.942103 267.145292 
L 411.225495 266.955293 
L 411.508888 267.050293 
L 411.79228 267.905289 
L 412.075673 267.981288 
L 412.359066 268.361287 
L 413.209243 268.228287 
L 413.492636 268.551286 
L 413.776028 269.083283 
L 414.059421 268.608285 
L 414.342814 268.703285 
L 414.909599 267.468291 
L 415.476384 268.304287 
L 416.043169 268.361287 
L 416.326562 268.551286 
L 416.893347 268.532286 
L 417.176739 268.323287 
L 417.743525 268.399286 
L 418.026917 268.836284 
L 418.31031 268.608285 
L 418.593702 270.014279 
L 418.877095 269.88128 
L 419.160488 269.235282 
L 419.44388 269.007284 
L 419.727273 269.178283 
L 420.57745 270.090279 
L 420.860843 269.558281 
L 421.144236 269.558281 
L 421.427628 268.836284 
L 421.711021 268.855284 
L 421.994413 268.570286 
L 422.561199 269.406282 
L 423.411376 269.368282 
L 423.694769 269.102283 
L 424.261554 268.969284 
L 424.544947 269.197283 
L 424.828339 269.083283 
L 425.111732 269.178283 
L 425.395124 270.907275 
L 425.678517 270.546276 
L 425.96191 270.527277 
L 426.528695 269.69128 
L 426.812087 269.76728 
L 427.09548 270.033279 
L 427.378873 269.82428 
L 427.662265 269.045283 
L 427.945658 268.741285 
L 428.22905 268.798285 
L 428.512443 269.045283 
L 428.795835 268.779285 
L 429.646013 268.760285 
L 430.496191 269.064283 
L 430.779584 269.026283 
L 431.346369 268.608285 
L 431.913154 266.708294 
L 432.479939 266.309296 
L 432.763332 265.853298 
L 433.046724 262.490314 
L 433.330117 261.730317 
L 434.180295 265.131301 
L 434.74708 265.910298 
L 435.313865 265.986297 
L 435.88065 266.727294 
L 436.164043 266.746294 
L 437.01422 266.290296 
L 437.297613 266.480295 
L 437.581006 266.195297 
L 437.864398 260.875321 
L 438.147791 260.761322 
L 438.431183 259.944325 
L 438.714576 258.462332 
L 438.997969 259.716326 
L 439.564754 263.21231 
L 439.848146 264.295305 
L 440.131539 263.801308 
L 440.414931 261.616318 
L 440.698324 260.381323 
L 441.548502 259.735326 
L 441.831894 259.830326 
L 442.115287 260.172324 
L 442.965465 262.072316 
L 443.248857 262.072316 
L 443.815642 262.927312 
L 444.382428 263.34531 
L 445.232605 263.782308 
L 445.799391 263.991307 
L 446.366176 264.257305 
L 447.499746 264.713303 
L 448.633316 265.036302 
L 448.916709 263.668308 
L 449.483494 257.835335 
L 450.050279 245.92239 
L 450.617064 221.773501 
L 450.900457 212.596543 
L 451.18385 209.385558 
L 451.467242 208.644562 
L 451.750635 207.181568 
L 452.034027 206.82057 
L 452.884205 210.012555 
L 453.167598 211.646548 
L 453.734383 218.277517 
L 454.584561 228.024472 
L 455.718131 236.479433 
L 456.568309 241.172412 
L 457.701879 245.618391 
L 458.552057 248.202379 
L 460.252412 252.192361 
L 461.10259 253.769354 
L 462.802946 256.182343 
L 463.086338 256.71434 
L 463.653123 257.189338 
L 464.219909 257.835335 
L 464.786694 258.329333 
L 465.353479 258.89933 
L 465.636872 258.97533 
L 465.920264 259.317328 
L 466.203657 261.10332 
L 466.487049 261.350319 
L 466.770442 261.426318 
L 467.053834 260.799321 
L 467.62062 261.654317 
L 467.904012 262.433314 
L 468.187405 262.395314 
L 468.470797 261.502318 
L 468.75419 262.129315 
L 469.037583 261.578318 
L 469.320975 261.521318 
L 470.454545 262.319314 
L 470.737938 262.452314 
L 471.021331 262.414314 
L 472.154901 262.718313 
L 472.438294 262.433314 
L 472.721686 262.680313 
L 473.005079 263.383309 
L 473.571864 264.010307 
L 473.855256 264.390305 
L 474.138649 264.580304 
L 474.422042 264.523304 
L 474.988827 265.245301 
L 475.272219 264.580304 
L 475.555612 264.409305 
L 475.839005 263.934307 
L 476.40579 263.801308 
L 476.972575 264.219306 
L 477.53936 264.219306 
L 477.822753 264.238306 
L 478.956323 264.827303 
L 479.239716 264.580304 
L 479.523108 264.599304 
L 479.806501 266.404296 
L 480.089893 266.062297 
L 480.373286 266.157297 
L 480.656679 265.872298 
L 480.940071 266.005297 
L 481.223464 266.271296 
L 481.506856 266.765294 
L 481.790249 267.012293 
L 482.073641 266.385296 
L 482.357034 266.328296 
L 482.640427 265.815298 
L 483.207212 265.682299 
L 483.490604 265.644299 
L 483.773997 265.758299 
L 484.05739 265.701299 
L 485.474352 266.062297 
L 486.041138 265.701299 
L 486.32453 265.3593 
L 486.607923 266.727294 
L 486.891315 266.765294 
L 487.174708 266.594295 
L 487.458101 265.910298 
L 487.741493 265.796298 
L 488.591671 266.556295 
L 488.875063 266.518295 
L 489.158456 266.727294 
L 489.441849 266.138297 
L 490.292026 266.157297 
L 490.858812 266.442295 
L 491.425597 266.784294 
L 492.559167 267.031293 
L 493.125952 266.442295 
L 493.409345 267.905289 
L 493.97613 267.753289 
L 494.259523 267.145292 
L 494.542915 267.126292 
L 494.826308 267.373291 
L 495.393093 267.54429 
L 495.676486 267.259292 
L 495.959878 267.316291 
L 496.243271 267.164292 
L 496.526663 266.841294 
L 497.376841 267.67729 
L 497.943626 267.487291 
L 498.793804 267.56329 
L 499.077197 267.259292 
L 499.360589 267.316291 
L 499.927374 267.69629 
L 500.210767 267.791289 
L 500.777552 267.69629 
L 501.060945 267.183292 
L 501.344337 267.012293 
L 501.911122 264.599304 
L 502.194515 262.072316 
L 502.7613 254.852349 
L 503.328085 243.7184 
L 503.611478 241.324411 
L 503.89487 235.491438 
L 504.461656 214.686534 
L 504.745048 210.411554 
L 505.028441 210.107555 
L 505.595226 212.577544 
L 505.878619 214.743534 
L 507.012189 227.511475 
L 507.578974 230.72246 
L 508.995937 240.070417 
L 509.27933 240.621414 
L 510.696293 246.454387 
L 511.263078 247.898381 
L 511.54647 248.525378 
L 512.396648 249.342374 
L 513.246826 251.299365 
L 513.530218 251.774363 
L 513.813611 252.933358 
L 514.097004 253.351356 
L 514.380396 253.560355 
L 514.947181 254.472351 
L 515.230574 254.757349 
L 515.513966 255.631345 
L 515.797359 255.232347 
L 516.364144 255.194347 
L 525.149314 262.623313 
L 525.7161 262.623313 
L 525.999492 262.927312 
L 526.282885 263.041311 
L 526.84967 262.946311 
L 527.133062 263.32631 
L 527.416455 264.390305 
L 527.699848 264.504304 
L 527.98324 264.485304 
L 528.266633 264.903302 
L 528.550025 264.789303 
L 528.833418 265.302301 
L 529.400203 265.207301 
L 529.683596 264.523304 
L 530.250381 264.105306 
L 530.817166 264.447305 
L 531.100559 264.485304 
L 531.383951 264.409305 
L 532.234129 264.656304 
L 532.800914 264.846303 
L 533.367699 264.979302 
L 533.651092 265.074302 
L 533.934485 264.979302 
L 534.50127 265.568299 
L 534.784662 265.549299 
L 535.068055 265.682299 
L 535.63484 265.3403 
L 535.918233 265.4543 
L 536.201625 265.4163 
L 536.76841 265.112301 
L 537.051803 265.093302 
L 537.335196 265.321301 
L 538.752158 265.5113 
L 539.318944 265.245301 
L 539.602336 265.4163 
L 540.169121 265.4353 
L 541.586084 265.663299 
L 541.869477 266.062297 
L 542.436262 265.872298 
L 542.719655 265.682299 
L 543.569832 265.663299 
L 543.853225 265.3973 
L 544.136618 265.3783 
L 544.703403 266.043297 
L 545.270188 265.872298 
L 545.836973 265.948298 
L 546.120366 266.271296 
L 546.403758 266.252296 
L 546.970543 266.499295 
L 547.253936 265.929298 
L 547.537329 266.765294 
L 547.820721 267.202292 
L 548.104114 266.860293 
L 548.387506 266.841294 
L 548.670899 267.50629 
L 549.804469 267.715289 
L 550.087862 266.917293 
L 550.371254 266.575295 
L 550.654647 266.518295 
L 550.93804 266.746294 
L 551.221432 266.708294 
L 551.788217 266.784294 
L 552.921788 266.803294 
L 553.20518 266.936293 
L 553.771965 267.316291 
L 554.055358 266.784294 
L 554.622143 266.461295 
L 555.188928 266.784294 
L 555.472321 267.221292 
L 556.322499 267.354291 
L 558.306247 266.594295 
L 558.589639 266.366296 
L 558.873032 266.366296 
L 559.439817 265.948298 
L 560.006602 265.682299 
L 560.289995 265.834298 
L 560.573388 265.644299 
L 561.140173 264.542304 
L 561.423565 262.908312 
L 562.273743 254.168352 
L 562.557136 248.563378 
L 562.840528 245.200393 
L 563.123921 243.300402 
L 563.974099 229.449466 
L 564.257491 229.088467 
L 564.540884 230.209462 
L 565.674454 237.771427 
L 566.808024 241.704409 
L 567.658202 243.8324 
L 568.224987 247.043385 
L 568.50838 247.727382 
L 568.791772 247.860381 
L 571.058913 252.211361 
L 571.342306 252.572359 
L 571.625698 253.123357 
L 572.192483 253.731354 
L 572.759269 254.68135 
L 573.326054 255.232347 
L 573.892839 255.726345 
L 574.176232 256.163343 
L 575.026409 256.448341 
L 577.010157 258.99433 
L 577.29355 258.91833 
L 578.143728 259.260328 
L 578.993906 259.830326 
L 579.560691 260.172324 
L 579.844083 260.191324 
L 580.977654 261.14132 
L 581.827831 261.10332 
L 582.394617 261.464318 
L 582.678009 261.483318 
L 582.961402 262.034316 
L 583.528187 262.300314 
L 584.094972 262.053316 
L 584.661757 262.775312 
L 584.94515 262.490314 
L 585.228542 262.395314 
L 585.511935 262.509313 
L 586.362113 263.459309 
L 586.928898 263.155311 
L 587.212291 263.25031 
L 587.495683 262.756312 
L 588.062468 262.680313 
L 588.345861 263.402309 
L 588.629253 263.744308 
L 589.196039 263.573309 
L 589.479431 263.744308 
L 590.046216 264.257305 
L 590.613002 263.934307 
L 590.896394 264.086306 
L 591.463179 264.010307 
L 591.746572 263.820307 
L 592.313357 264.048306 
L 592.59675 264.504304 
L 592.880142 264.637304 
L 593.163535 264.162306 
L 593.73032 264.428305 
L 594.580498 264.561304 
L 594.86389 264.124306 
L 595.147283 263.915307 
L 595.430675 264.143306 
L 595.714068 264.694303 
L 596.280853 264.485304 
L 597.131031 263.535309 
L 597.697816 262.661313 
L 597.981209 261.445318 
L 598.264601 260.875321 
L 598.547994 260.571322 
L 599.114779 258.500332 
L 599.681564 258.158334 
L 600.531742 253.978353 
L 600.815135 254.073352 
L 601.098527 254.415351 
L 601.38192 254.56735 
L 602.232098 254.206352 
L 602.51549 254.035353 
L 602.798883 253.997353 
L 603.082275 254.168352 
L 603.365668 254.58635 
L 603.932453 251.014366 
L 604.215846 247.651382 
L 604.499238 245.88439 
L 604.782631 246.454387 
L 605.066023 246.701386 
L 605.349416 245.371392 
L 605.916201 241.134412 
L 606.199594 239.557419 
L 606.766379 234.256444 
L 607.049771 233.382448 
L 607.333164 233.667446 
L 607.616557 234.465443 
L 608.466734 238.379425 
L 609.316912 242.179407 
L 610.450482 245.238393 
L 610.733875 246.473387 
L 611.017268 248.259379 
L 611.30066 248.03138 
L 611.584053 248.06938 
L 612.434231 249.893372 
L 612.717623 250.27337 
L 613.851193 252.610359 
L 614.417979 253.370356 
L 614.701371 254.130352 
L 614.984764 254.52935 
L 615.268156 255.289347 
L 615.551549 257.702336 
L 615.834942 257.645336 
L 616.118334 257.303337 
L 616.401727 257.531336 
L 617.81869 260.742322 
L 618.102082 259.906325 
L 618.668867 259.659327 
L 618.95226 259.792326 
L 619.519045 259.659327 
L 620.08583 260.039325 
L 620.652616 260.077325 
L 621.219401 260.286324 
L 621.502793 260.362323 
L 621.786186 260.951321 
L 622.069578 261.217319 
L 622.352971 262.623313 
L 622.636364 262.946311 
L 622.636364 262.946311 
" clip-path="url(#p2b326f568b)" style="fill: none; stroke: #1f77b4; stroke-width: 1.5; stroke-linecap: square"/>
   </g>
   <g id="line2d_15">
    <path d="M 115.363636 270.684138 
L 115.930422 271.02422 
L 116.213814 269.216283 
L 119.04774 271.030666 
L 120.18131 271.703463 
L 120.464703 271.633689 
L 120.748095 271.424181 
L 121.031488 271.377985 
L 121.598273 266.16947 
L 121.881666 265.249236 
L 122.731844 255.783184 
L 123.015236 269.84328 
L 127.83291 272.595287 
L 128.399695 272.890688 
L 128.96648 272.06248 
L 129.249873 272.355389 
L 129.533266 271.235596 
L 130.100051 267.029612 
L 130.383443 266.202446 
L 130.666836 265.741428 
L 131.233621 261.117513 
L 131.517014 260.310333 
L 131.800406 260.160224 
L 132.367191 260.586554 
L 136.334688 264.707785 
L 136.61808 260.305324 
L 139.452006 263.388719 
L 142.002539 265.80118 
L 143.13611 266.770653 
L 143.419502 267.981288 
L 145.970036 269.792375 
L 148.803961 271.520659 
L 149.370747 271.808447 
L 149.937532 271.785948 
L 150.220924 259.773326 
L 151.071102 252.33141 
L 151.637887 250.561197 
L 153.621635 226.490501 
L 154.188421 223.466988 
L 154.471813 223.065765 
L 154.755206 223.035712 
L 156.455561 225.503116 
L 156.738954 226.208592 
L 157.022346 222.210499 
L 161.556628 233.931586 
L 163.540376 238.470611 
L 163.823768 256.923339 
L 166.090909 259.808496 
L 168.35805 262.363752 
L 168.641442 262.522152 
L 169.208228 259.138974 
L 169.49162 258.719382 
L 170.341798 248.767561 
L 170.62519 199.619603 
L 170.908583 199.613593 
L 171.475368 201.065665 
L 176.859827 218.294535 
L 177.14322 219.127513 
L 177.426612 245.504392 
L 179.693753 249.576704 
L 181.960894 253.239065 
L 183.944642 256.1298 
L 184.228035 260.818321 
L 186.778568 263.557999 
L 189.329101 265.948676 
L 190.746064 267.140198 
L 191.029457 264.751303 
L 193.57999 266.987585 
L 196.130523 268.930618 
L 197.547486 269.896114 
L 197.830879 268.000288 
L 200.381412 269.808842 
L 203.215338 271.534934 
L 204.348908 272.150709 
L 204.632301 269.463281 
L 205.765871 270.125729 
L 206.049264 270.197889 
L 206.332656 270.425552 
L 207.182834 270.321398 
L 208.599797 271.122126 
L 210.866938 272.307563 
L 211.15033 272.733304 
L 211.433723 271.346151 
L 211.717115 268.967504 
L 212.000508 269.091638 
L 212.2839 266.588797 
L 212.850686 259.610704 
L 213.134078 258.341198 
L 213.417471 257.999211 
L 213.700863 258.109203 
L 214.551041 259.036538 
L 216.251397 261.094008 
L 216.818182 261.005647 
L 217.101574 260.284085 
L 217.384967 258.661381 
L 217.66836 258.781747 
L 217.951752 257.270213 
L 218.235145 256.841342 
L 218.518537 253.618843 
L 218.80193 251.775111 
L 219.085322 251.472543 
L 219.368715 251.363236 
L 219.652108 251.386946 
L 220.218893 252.106498 
L 223.619604 257.043253 
L 225.886745 259.915319 
L 228.437278 262.768364 
L 230.987811 265.260411 
L 233.538344 267.430381 
L 236.088878 269.314744 
L 238.356018 270.777258 
L 238.639411 226.960477 
L 241.756729 231.721929 
L 244.874048 236.063226 
L 245.15744 236.438363 
L 245.440833 240.925413 
L 248.558151 244.454588 
L 250.825292 246.753151 
L 251.108685 246.9494 
L 251.392077 245.76346 
L 251.958862 241.664466 
L 252.242255 247.385383 
L 252.80904 241.811873 
L 253.375825 239.135775 
L 253.659218 238.522318 
L 253.94261 238.218514 
L 254.226003 238.130646 
L 254.792788 238.349614 
L 255.642966 239.138132 
L 258.760284 242.728341 
L 259.043677 250.824367 
L 262.444388 253.70932 
L 265.845099 256.317914 
L 269.529203 258.862459 
L 273.213306 261.143829 
L 277.180802 263.337527 
L 281.431691 265.418621 
L 285.68258 267.253397 
L 287.382936 267.924989 
L 287.666328 260.476323 
L 291.633824 262.744064 
L 292.767395 263.344505 
L 293.050787 261.806317 
L 297.018283 263.927812 
L 297.585069 264.227451 
L 298.151854 264.11524 
L 299.852209 263.851881 
L 300.98578 264.258089 
L 309.77095 268.046283 
L 314.588624 269.759096 
L 319.68969 271.324949 
L 325.074149 272.740108 
L 331.025394 274.062705 
L 337.26003 275.219536 
L 339.810564 275.634532 
L 343.211275 203.096587 
L 343.77806 199.589798 
L 344.061453 199.052355 
L 344.344845 199.097176 
L 344.91163 199.976945 
L 350.579482 211.789733 
L 350.862875 239.34842 
L 354.263586 243.129427 
L 356.247334 245.17422 
L 356.530726 251.842763 
L 360.21483 254.696711 
L 363.048756 256.699957 
L 363.332148 258.751131 
L 367.299644 261.085264 
L 369.850178 262.454315 
L 370.13357 261.03112 
L 374.384459 263.266046 
L 376.6516 264.353445 
L 376.934992 262.855112 
L 379.485526 264.116996 
L 380.335703 264.102642 
L 380.619096 263.911543 
L 382.036059 262.060948 
L 382.886237 260.229878 
L 383.169629 259.918147 
L 383.453022 259.833376 
L 383.736414 264.040706 
L 386.286948 267.056935 
L 387.703911 267.534776 
L 389.120874 268.938758 
L 390.254444 270.059898 
L 390.537836 264.747503 
L 392.521585 267.277239 
L 394.505333 269.435562 
L 396.489081 271.268925 
L 397.055866 271.739176 
L 397.339259 265.819098 
L 399.323007 268.192747 
L 401.306755 270.214141 
L 403.290503 271.928445 
L 403.857288 272.367748 
L 404.140681 266.708294 
L 406.124429 268.951037 
L 408.108177 270.858001 
L 410.091925 272.473109 
L 411.79228 273.655686 
L 412.075673 266.936293 
L 414.059421 269.145268 
L 416.043169 271.022772 
L 417.743525 272.401377 
L 418.026917 268.076288 
L 420.010665 270.115175 
L 421.994413 271.844666 
L 423.978162 273.306467 
L 426.245302 274.697431 
L 428.512443 275.837387 
L 431.062976 276.872727 
L 431.346369 268.988284 
L 433.613509 269.588102 
L 434.180295 269.561788 
L 434.74708 269.505615 
L 435.597257 269.143453 
L 436.164043 268.444221 
L 437.581006 267.314924 
L 437.864398 267.291768 
L 438.147791 266.480295 
L 438.714576 257.162514 
L 439.281361 251.193847 
L 439.848146 248.175275 
L 440.131539 247.47023 
L 440.414931 247.092687 
L 440.698324 246.935321 
L 441.265109 247.003898 
L 442.115287 247.527173 
L 445.232605 250.048113 
L 446.082783 250.719597 
L 446.366176 263.858307 
L 451.467242 266.040101 
L 451.750635 209.594557 
L 452.034027 209.494638 
L 453.45099 206.161114 
L 453.734383 205.897872 
L 454.017776 205.884546 
L 454.584561 206.352837 
L 455.434738 207.64463 
L 462.802946 220.292393 
L 465.070086 223.754009 
L 465.353479 258.158334 
L 469.320975 260.588744 
L 471.871508 262.011479 
L 472.154901 262.490314 
L 476.40579 264.587464 
L 478.67293 265.605829 
L 478.956323 264.656304 
L 483.773997 266.55478 
L 485.474352 267.17006 
L 485.757745 266.138297 
L 490.858812 267.957203 
L 492.275775 268.421107 
L 492.559167 266.822294 
L 497.376841 268.621993 
L 499.077197 269.20055 
L 499.360589 267.62029 
L 501.344337 269.727212 
L 502.194515 270.41252 
L 502.477908 270.206886 
L 502.7613 269.108245 
L 503.328085 263.897998 
L 503.89487 257.142366 
L 504.745048 241.408146 
L 505.878619 228.707883 
L 506.162011 211.988546 
L 506.445404 211.196659 
L 506.728796 210.868858 
L 507.012189 210.855389 
L 507.578974 211.376045 
L 508.429152 212.745087 
L 511.263078 217.868098 
L 511.54647 217.993866 
L 511.829863 217.823785 
L 512.113255 217.013184 
L 512.680041 213.906263 
L 512.963433 249.266375 
L 513.813611 249.757957 
L 515.797359 251.079905 
L 516.364144 251.260458 
L 528.833418 258.96307 
L 533.084307 261.245837 
L 533.367699 264.884303 
L 535.351447 267.394456 
L 536.201625 268.321449 
L 536.485018 268.50632 
L 536.76841 268.51836 
L 537.051803 268.27236 
L 537.618588 267.304753 
L 538.185373 266.37613 
L 538.468766 266.224312 
L 538.752158 266.254656 
L 539.318944 266.643221 
L 539.885729 267.219949 
L 540.169121 265.4543 
L 542.152869 267.870963 
L 544.136618 269.940505 
L 546.120366 271.697063 
L 546.687151 272.151137 
L 546.970543 265.910298 
L 547.253936 266.208422 
L 547.537329 266.276147 
L 548.104114 265.988952 
L 548.387506 265.786672 
L 548.670899 265.748722 
L 549.237684 266.042432 
L 550.087862 266.906467 
L 550.93804 267.72851 
L 551.504825 267.820872 
L 552.07161 267.943925 
L 553.20518 268.563996 
L 553.488573 267.919063 
L 553.771965 266.594295 
L 554.622143 261.01464 
L 554.905536 260.06509 
L 555.188928 259.620788 
L 555.472321 259.539498 
L 555.755714 259.692144 
L 556.322499 260.359216 
L 558.022854 262.845726 
L 558.306247 263.00964 
L 558.589639 262.930633 
L 559.156425 261.595431 
L 560.289995 257.185933 
L 560.573388 265.682299 
L 561.140173 263.285502 
L 561.706958 260.092303 
L 562.840528 252.342689 
L 563.407313 248.60689 
L 563.974099 246.100638 
L 564.540884 244.882967 
L 564.824276 244.6674 
L 565.391061 244.67406 
L 565.957847 244.98315 
L 567.091417 245.89858 
L 567.37481 241.400411 
L 570.492128 244.430238 
L 573.892839 246.102965 
L 574.176232 255.422346 
L 575.026409 255.856576 
L 580.694261 259.538239 
L 580.977654 260.552323 
L 584.94515 262.725592 
L 587.495683 263.997812 
L 587.779076 263.17431 
L 592.029964 265.193063 
L 594.297105 266.173349 
L 594.580498 264.542304 
L 595.147283 264.754015 
L 595.714068 264.848345 
L 596.280853 264.023111 
L 597.131031 260.876672 
L 597.697816 258.488649 
L 598.264601 256.963593 
L 599.964957 250.701694 
L 600.248349 250.245909 
L 600.531742 250.012259 
L 601.098527 249.958463 
L 601.38192 253.826353 
L 602.232098 254.245334 
L 607.899949 257.829356 
L 608.183342 234.218444 
L 614.701371 242.080552 
L 614.984764 253.028357 
L 620.08583 256.461449 
L 621.502793 257.34101 
L 621.786186 260.438323 
L 622.636364 260.883032 
L 622.636364 260.883032 
" clip-path="url(#p2b326f568b)" style="fill: none; stroke: #ff7f0e; stroke-width: 1.5; stroke-linecap: square"/>
   </g>
   <g id="patch_3">
    <path d="M 90 288 
L 90 43.2 
" style="fill: none; stroke: #000000; stroke-width: 0.8; stroke-linejoin: miter; stroke-linecap: square"/>
   </g>
   <g id="patch_4">
    <path d="M 648 288 
L 648 43.2 
" style="fill: none; stroke: #000000; stroke-width: 0.8; stroke-linejoin: miter; stroke-linecap: square"/>
   </g>
   <g id="patch_5">
    <path d="M 90 288 
L 648 288 
" style="fill: none; stroke: #000000; stroke-width: 0.8; stroke-linejoin: miter; stroke-linecap: square"/>
   </g>
   <g id="patch_6">
    <path d="M 90 43.2 
L 648 43.2 
" style="fill: none; stroke: #000000; stroke-width: 0.8; stroke-linejoin: miter; stroke-linecap: square"/>
   </g>
   <g id="text_15">
    <!-- DET008 -->
    <g transform="translate(345.471563 37.2) scale(0.12 -0.12)">
     <defs>
      <path id="DejaVuSans-44" d="M 1259 4147 
L 1259 519 
L 2022 519 
Q 2988 519 3436 956 
Q 3884 1394 3884 2338 
Q 3884 3275 3436 3711 
Q 2988 4147 2022 4147 
L 1259 4147 
z
M 628 4666 
L 1925 4666 
Q 3281 4666 3915 4102 
Q 4550 3538 4550 2338 
Q 4550 1131 3912 565 
Q 3275 0 1925 0 
L 628 0 
L 628 4666 
z
" transform="scale(0.015625)"/>
      <path id="DejaVuSans-45" d="M 628 4666 
L 3578 4666 
L 3578 4134 
L 1259 4134 
L 1259 2753 
L 3481 2753 
L 3481 2222 
L 1259 2222 
L 1259 531 
L 3634 531 
L 3634 0 
L 628 0 
L 628 4666 
z
" transform="scale(0.015625)"/>
      <path id="DejaVuSans-54" d="M -19 4666 
L 3928 4666 
L 3928 4134 
L 2272 4134 
L 2272 0 
L 1638 0 
L 1638 4134 
L -19 4134 
L -19 4666 
z
" transform="scale(0.015625)"/>
     </defs>
     <use xlink:href="#DejaVuSans-44"/>
     <use xlink:href="#DejaVuSans-45" x="77.001953"/>
     <use xlink:href="#DejaVuSans-54" x="140.185547"/>
     <use xlink:href="#DejaVuSans-30" x="201.269531"/>
     <use xlink:href="#DejaVuSans-30" x="264.892578"/>
     <use xlink:href="#DejaVuSans-38" x="328.515625"/>
    </g>
   </g>
   <g id="legend_1">
    <g id="patch_7">
     <path d="M 559.04375 80.55625 
L 641 80.55625 
Q 643 80.55625 643 78.55625 
L 643 50.2 
Q 643 48.2 641 48.2 
L 559.04375 48.2 
Q 557.04375 48.2 557.04375 50.2 
L 557.04375 78.55625 
Q 557.04375 80.55625 559.04375 80.55625 
z
" style="fill: #ffffff; opacity: 0.8; stroke: #cccccc; stroke-linejoin: miter"/>
    </g>
    <g id="line2d_16">
     <path d="M 561.04375 56.298437 
L 571.04375 56.298437 
L 581.04375 56.298437 
" style="fill: none; stroke: #1f77b4; stroke-width: 1.5; stroke-linecap: square"/>
    </g>
    <g id="text_16">
     <!-- measured -->
     <g transform="translate(589.04375 59.798437) scale(0.1 -0.1)">
      <defs>
       <path id="DejaVuSans-6d" d="M 3328 2828 
Q 3544 3216 3844 3400 
Q 4144 3584 4550 3584 
Q 5097 3584 5394 3201 
Q 5691 2819 5691 2113 
L 5691 0 
L 5113 0 
L 5113 2094 
Q 5113 2597 4934 2840 
Q 4756 3084 4391 3084 
Q 3944 3084 3684 2787 
Q 3425 2491 3425 1978 
L 3425 0 
L 2847 0 
L 2847 2094 
Q 2847 2600 2669 2842 
Q 2491 3084 2119 3084 
Q 1678 3084 1418 2786 
Q 1159 2488 1159 1978 
L 1159 0 
L 581 0 
L 581 3500 
L 1159 3500 
L 1159 2956 
Q 1356 3278 1631 3431 
Q 1906 3584 2284 3584 
Q 2666 3584 2933 3390 
Q 3200 3197 3328 2828 
z
" transform="scale(0.015625)"/>
       <path id="DejaVuSans-61" d="M 2194 1759 
Q 1497 1759 1228 1600 
Q 959 1441 959 1056 
Q 959 750 1161 570 
Q 1363 391 1709 391 
Q 2188 391 2477 730 
Q 2766 1069 2766 1631 
L 2766 1759 
L 2194 1759 
z
M 3341 1997 
L 3341 0 
L 2766 0 
L 2766 531 
Q 2569 213 2275 61 
Q 1981 -91 1556 -91 
Q 1019 -91 701 211 
Q 384 513 384 1019 
Q 384 1609 779 1909 
Q 1175 2209 1959 2209 
L 2766 2209 
L 2766 2266 
Q 2766 2663 2505 2880 
Q 2244 3097 1772 3097 
Q 1472 3097 1187 3025 
Q 903 2953 641 2809 
L 641 3341 
Q 956 3463 1253 3523 
Q 1550 3584 1831 3584 
Q 2591 3584 2966 3190 
Q 3341 2797 3341 1997 
z
" transform="scale(0.015625)"/>
       <path id="DejaVuSans-75" d="M 544 1381 
L 544 3500 
L 1119 3500 
L 1119 1403 
Q 1119 906 1312 657 
Q 1506 409 1894 409 
Q 2359 409 2629 706 
Q 2900 1003 2900 1516 
L 2900 3500 
L 3475 3500 
L 3475 0 
L 2900 0 
L 2900 538 
Q 2691 219 2414 64 
Q 2138 -91 1772 -91 
Q 1169 -91 856 284 
Q 544 659 544 1381 
z
M 1991 3584 
L 1991 3584 
z
" transform="scale(0.015625)"/>
       <path id="DejaVuSans-64" d="M 2906 2969 
L 2906 4863 
L 3481 4863 
L 3481 0 
L 2906 0 
L 2906 525 
Q 2725 213 2448 61 
Q 2172 -91 1784 -91 
Q 1150 -91 751 415 
Q 353 922 353 1747 
Q 353 2572 751 3078 
Q 1150 3584 1784 3584 
Q 2172 3584 2448 3432 
Q 2725 3281 2906 2969 
z
M 947 1747 
Q 947 1113 1208 752 
Q 1469 391 1925 391 
Q 2381 391 2643 752 
Q 2906 1113 2906 1747 
Q 2906 2381 2643 2742 
Q 2381 3103 1925 3103 
Q 1469 3103 1208 2742 
Q 947 2381 947 1747 
z
" transform="scale(0.015625)"/>
      </defs>
      <use xlink:href="#DejaVuSans-6d"/>
      <use xlink:href="#DejaVuSans-65" x="97.412109"/>
      <use xlink:href="#DejaVuSans-61" x="158.935547"/>
      <use xlink:href="#DejaVuSans-73" x="220.214844"/>
      <use xlink:href="#DejaVuSans-75" x="272.314453"/>
      <use xlink:href="#DejaVuSans-72" x="335.693359"/>
      <use xlink:href="#DejaVuSans-65" x="374.556641"/>
      <use xlink:href="#DejaVuSans-64" x="436.080078"/>
     </g>
    </g>
    <g id="line2d_17">
     <path d="M 561.04375 70.976562 
L 571.04375 70.976562 
L 581.04375 70.976562 
" style="fill: none; stroke: #ff7f0e; stroke-width: 1.5; stroke-linecap: square"/>
    </g>
    <g id="text_17">
     <!-- predicted -->
     <g transform="translate(589.04375 74.476562) scale(0.1 -0.1)">
      <defs>
       <path id="DejaVuSans-70" d="M 1159 525 
L 1159 -1331 
L 581 -1331 
L 581 3500 
L 1159 3500 
L 1159 2969 
Q 1341 3281 1617 3432 
Q 1894 3584 2278 3584 
Q 2916 3584 3314 3078 
Q 3713 2572 3713 1747 
Q 3713 922 3314 415 
Q 2916 -91 2278 -91 
Q 1894 -91 1617 61 
Q 1341 213 1159 525 
z
M 3116 1747 
Q 3116 2381 2855 2742 
Q 2594 3103 2138 3103 
Q 1681 3103 1420 2742 
Q 1159 2381 1159 1747 
Q 1159 1113 1420 752 
Q 1681 391 2138 391 
Q 2594 391 2855 752 
Q 3116 1113 3116 1747 
z
" transform="scale(0.015625)"/>
       <path id="DejaVuSans-69" d="M 603 3500 
L 1178 3500 
L 1178 0 
L 603 0 
L 603 3500 
z
M 603 4863 
L 1178 4863 
L 1178 4134 
L 603 4134 
L 603 4863 
z
" transform="scale(0.015625)"/>
       <path id="DejaVuSans-63" d="M 3122 3366 
L 3122 2828 
Q 2878 2963 2633 3030 
Q 2388 3097 2138 3097 
Q 1578 3097 1268 2742 
Q 959 2388 959 1747 
Q 959 1106 1268 751 
Q 1578 397 2138 397 
Q 2388 397 2633 464 
Q 2878 531 3122 666 
L 3122 134 
Q 2881 22 2623 -34 
Q 2366 -91 2075 -91 
Q 1284 -91 818 406 
Q 353 903 353 1747 
Q 353 2603 823 3093 
Q 1294 3584 2113 3584 
Q 2378 3584 2631 3529 
Q 2884 3475 3122 3366 
z
" transform="scale(0.015625)"/>
      </defs>
      <use xlink:href="#DejaVuSans-70"/>
      <use xlink:href="#DejaVuSans-72" x="63.476562"/>
      <use xlink:href="#DejaVuSans-65" x="102.339844"/>
      <use xlink:href="#DejaVuSans-64" x="163.863281"/>
      <use xlink:href="#DejaVuSans-69" x="227.339844"/>
      <use xlink:href="#DejaVuSans-63" x="255.123047"/>
      <use xlink:href="#DejaVuSans-74" x="310.103516"/>
      <use xlink:href="#DejaVuSans-65" x="349.3125"/>
      <use xlink:href="#DejaVuSans-64" x="410.835938"/>
     </g>
    </g>
   </g>
  </g>
 </g>
 <defs>
  <clipPath id="p2b326f568b">
   <rect x="90" y="43.2" width="558" height="244.8"/>
  </clipPath>
 </defs>
</svg>
