<?xml version="1.0" encoding="utf-8" standalone="no"?>
<!DOCTYPE svg PUBLIC "-//W3C//DTD SVG 1.1//EN"
  "http://www.w3.org/Graphics/SVG/1.1/DTD/svg11.dtd">
<svg xmlns:xlink="http://www.w3.org/1999/xlink" width="712.835pt" height="351.43625pt" viewBox="0 0 712.835 351.43625" xmlns="http://www.w3.org/2000/svg" version="1.1">
 <metadata>
  <rdf:RDF xmlns:dc="http://purl.org/dc/elements/1.1/" xmlns:cc="http://creativecommons.org/ns#" xmlns:rdf="http://www.w3.org/1999/02/22-rdf-syntax-ns#">
   <cc:Work>
    <dc:type rdf:resource="http://purl.org/dc/dcmitype/StillImage"/>
    <dc:date>2023-10-23T03:15:14.454760</dc:date>
    <dc:format>image/svg+xml</dc:format>
    <dc:creator>
     <cc:Agent>
      <dc:title>Matplotlib v3.7.1, https://matplotlib.org/</dc:title>
     </cc:Agent>
    </dc:creator>
   </cc:Work>
  </rdf:RDF>
 </metadata>
 <defs>
  <style type="text/css">*{stroke-linejoin: round; stroke-linecap: butt}</style>
 </defs>
 <g id="figure_1">
  <g id="patch_1">
   <path d="M 0 351.43625 
L 712.835 351.43625 
L 712.835 0 
L 0 0 
z
" style="fill: #ffffff"/>
  </g>
  <g id="axes_1">
   <g id="patch_2">
    <path d="M 26.925 327.558125 
L 705.635 327.558125 
L 705.635 22.318125 
L 26.925 22.318125 
z
" style="fill: #ffffff"/>
   </g>
   <g id="matplotlib.axis_1">
    <g id="xtick_1">
     <g id="line2d_1">
      <defs>
       <path id="mcf26568e4f" d="M 0 0 
L 0 3.5 
" style="stroke: #000000; stroke-width: 0.8"/>
      </defs>
      <g>
       <use xlink:href="#mcf26568e4f" x="68.273333" y="327.558125" style="stroke: #000000; stroke-width: 0.8"/>
      </g>
     </g>
     <g id="text_1">
      <!-- 2023-05 -->
      <g transform="translate(47.381926 342.156563) scale(0.1 -0.1)">
       <defs>
        <path id="DejaVuSans-32" d="M 1228 531 
L 3431 531 
L 3431 0 
L 469 0 
L 469 531 
Q 828 903 1448 1529 
Q 2069 2156 2228 2338 
Q 2531 2678 2651 2914 
Q 2772 3150 2772 3378 
Q 2772 3750 2511 3984 
Q 2250 4219 1831 4219 
Q 1534 4219 1204 4116 
Q 875 4013 500 3803 
L 500 4441 
Q 881 4594 1212 4672 
Q 1544 4750 1819 4750 
Q 2544 4750 2975 4387 
Q 3406 4025 3406 3419 
Q 3406 3131 3298 2873 
Q 3191 2616 2906 2266 
Q 2828 2175 2409 1742 
Q 1991 1309 1228 531 
z
" transform="scale(0.015625)"/>
        <path id="DejaVuSans-30" d="M 2034 4250 
Q 1547 4250 1301 3770 
Q 1056 3291 1056 2328 
Q 1056 1369 1301 889 
Q 1547 409 2034 409 
Q 2525 409 2770 889 
Q 3016 1369 3016 2328 
Q 3016 3291 2770 3770 
Q 2525 4250 2034 4250 
z
M 2034 4750 
Q 2819 4750 3233 4129 
Q 3647 3509 3647 2328 
Q 3647 1150 3233 529 
Q 2819 -91 2034 -91 
Q 1250 -91 836 529 
Q 422 1150 422 2328 
Q 422 3509 836 4129 
Q 1250 4750 2034 4750 
z
" transform="scale(0.015625)"/>
        <path id="DejaVuSans-33" d="M 2597 2516 
Q 3050 2419 3304 2112 
Q 3559 1806 3559 1356 
Q 3559 666 3084 287 
Q 2609 -91 1734 -91 
Q 1441 -91 1130 -33 
Q 819 25 488 141 
L 488 750 
Q 750 597 1062 519 
Q 1375 441 1716 441 
Q 2309 441 2620 675 
Q 2931 909 2931 1356 
Q 2931 1769 2642 2001 
Q 2353 2234 1838 2234 
L 1294 2234 
L 1294 2753 
L 1863 2753 
Q 2328 2753 2575 2939 
Q 2822 3125 2822 3475 
Q 2822 3834 2567 4026 
Q 2313 4219 1838 4219 
Q 1578 4219 1281 4162 
Q 984 4106 628 3988 
L 628 4550 
Q 988 4650 1302 4700 
Q 1616 4750 1894 4750 
Q 2613 4750 3031 4423 
Q 3450 4097 3450 3541 
Q 3450 3153 3228 2886 
Q 3006 2619 2597 2516 
z
" transform="scale(0.015625)"/>
        <path id="DejaVuSans-2d" d="M 313 2009 
L 1997 2009 
L 1997 1497 
L 313 1497 
L 313 2009 
z
" transform="scale(0.015625)"/>
        <path id="DejaVuSans-35" d="M 691 4666 
L 3169 4666 
L 3169 4134 
L 1269 4134 
L 1269 2991 
Q 1406 3038 1543 3061 
Q 1681 3084 1819 3084 
Q 2600 3084 3056 2656 
Q 3513 2228 3513 1497 
Q 3513 744 3044 326 
Q 2575 -91 1722 -91 
Q 1428 -91 1123 -41 
Q 819 9 494 109 
L 494 744 
Q 775 591 1075 516 
Q 1375 441 1709 441 
Q 2250 441 2565 725 
Q 2881 1009 2881 1497 
Q 2881 1984 2565 2268 
Q 2250 2553 1709 2553 
Q 1456 2553 1204 2497 
Q 953 2441 691 2322 
L 691 4666 
z
" transform="scale(0.015625)"/>
       </defs>
       <use xlink:href="#DejaVuSans-32"/>
       <use xlink:href="#DejaVuSans-30" x="63.623047"/>
       <use xlink:href="#DejaVuSans-32" x="127.246094"/>
       <use xlink:href="#DejaVuSans-33" x="190.869141"/>
       <use xlink:href="#DejaVuSans-2d" x="254.492188"/>
       <use xlink:href="#DejaVuSans-30" x="290.576172"/>
       <use xlink:href="#DejaVuSans-35" x="354.199219"/>
      </g>
     </g>
    </g>
    <g id="xtick_2">
     <g id="line2d_2">
      <g>
       <use xlink:href="#mcf26568e4f" x="178.279267" y="327.558125" style="stroke: #000000; stroke-width: 0.8"/>
      </g>
     </g>
     <g id="text_2">
      <!-- 2023-06 -->
      <g transform="translate(157.387861 342.156563) scale(0.1 -0.1)">
       <defs>
        <path id="DejaVuSans-36" d="M 2113 2584 
Q 1688 2584 1439 2293 
Q 1191 2003 1191 1497 
Q 1191 994 1439 701 
Q 1688 409 2113 409 
Q 2538 409 2786 701 
Q 3034 994 3034 1497 
Q 3034 2003 2786 2293 
Q 2538 2584 2113 2584 
z
M 3366 4563 
L 3366 3988 
Q 3128 4100 2886 4159 
Q 2644 4219 2406 4219 
Q 1781 4219 1451 3797 
Q 1122 3375 1075 2522 
Q 1259 2794 1537 2939 
Q 1816 3084 2150 3084 
Q 2853 3084 3261 2657 
Q 3669 2231 3669 1497 
Q 3669 778 3244 343 
Q 2819 -91 2113 -91 
Q 1303 -91 875 529 
Q 447 1150 447 2328 
Q 447 3434 972 4092 
Q 1497 4750 2381 4750 
Q 2619 4750 2861 4703 
Q 3103 4656 3366 4563 
z
" transform="scale(0.015625)"/>
       </defs>
       <use xlink:href="#DejaVuSans-32"/>
       <use xlink:href="#DejaVuSans-30" x="63.623047"/>
       <use xlink:href="#DejaVuSans-32" x="127.246094"/>
       <use xlink:href="#DejaVuSans-33" x="190.869141"/>
       <use xlink:href="#DejaVuSans-2d" x="254.492188"/>
       <use xlink:href="#DejaVuSans-30" x="290.576172"/>
       <use xlink:href="#DejaVuSans-36" x="354.199219"/>
      </g>
     </g>
    </g>
    <g id="xtick_3">
     <g id="line2d_3">
      <g>
       <use xlink:href="#mcf26568e4f" x="284.736623" y="327.558125" style="stroke: #000000; stroke-width: 0.8"/>
      </g>
     </g>
     <g id="text_3">
      <!-- 2023-07 -->
      <g transform="translate(263.845216 342.156563) scale(0.1 -0.1)">
       <defs>
        <path id="DejaVuSans-37" d="M 525 4666 
L 3525 4666 
L 3525 4397 
L 1831 0 
L 1172 0 
L 2766 4134 
L 525 4134 
L 525 4666 
z
" transform="scale(0.015625)"/>
       </defs>
       <use xlink:href="#DejaVuSans-32"/>
       <use xlink:href="#DejaVuSans-30" x="63.623047"/>
       <use xlink:href="#DejaVuSans-32" x="127.246094"/>
       <use xlink:href="#DejaVuSans-33" x="190.869141"/>
       <use xlink:href="#DejaVuSans-2d" x="254.492188"/>
       <use xlink:href="#DejaVuSans-30" x="290.576172"/>
       <use xlink:href="#DejaVuSans-37" x="354.199219"/>
      </g>
     </g>
    </g>
    <g id="xtick_4">
     <g id="line2d_4">
      <g>
       <use xlink:href="#mcf26568e4f" x="394.742557" y="327.558125" style="stroke: #000000; stroke-width: 0.8"/>
      </g>
     </g>
     <g id="text_4">
      <!-- 2023-08 -->
      <g transform="translate(373.851151 342.156563) scale(0.1 -0.1)">
       <defs>
        <path id="DejaVuSans-38" d="M 2034 2216 
Q 1584 2216 1326 1975 
Q 1069 1734 1069 1313 
Q 1069 891 1326 650 
Q 1584 409 2034 409 
Q 2484 409 2743 651 
Q 3003 894 3003 1313 
Q 3003 1734 2745 1975 
Q 2488 2216 2034 2216 
z
M 1403 2484 
Q 997 2584 770 2862 
Q 544 3141 544 3541 
Q 544 4100 942 4425 
Q 1341 4750 2034 4750 
Q 2731 4750 3128 4425 
Q 3525 4100 3525 3541 
Q 3525 3141 3298 2862 
Q 3072 2584 2669 2484 
Q 3125 2378 3379 2068 
Q 3634 1759 3634 1313 
Q 3634 634 3220 271 
Q 2806 -91 2034 -91 
Q 1263 -91 848 271 
Q 434 634 434 1313 
Q 434 1759 690 2068 
Q 947 2378 1403 2484 
z
M 1172 3481 
Q 1172 3119 1398 2916 
Q 1625 2713 2034 2713 
Q 2441 2713 2670 2916 
Q 2900 3119 2900 3481 
Q 2900 3844 2670 4047 
Q 2441 4250 2034 4250 
Q 1625 4250 1398 4047 
Q 1172 3844 1172 3481 
z
" transform="scale(0.015625)"/>
       </defs>
       <use xlink:href="#DejaVuSans-32"/>
       <use xlink:href="#DejaVuSans-30" x="63.623047"/>
       <use xlink:href="#DejaVuSans-32" x="127.246094"/>
       <use xlink:href="#DejaVuSans-33" x="190.869141"/>
       <use xlink:href="#DejaVuSans-2d" x="254.492188"/>
       <use xlink:href="#DejaVuSans-30" x="290.576172"/>
       <use xlink:href="#DejaVuSans-38" x="354.199219"/>
      </g>
     </g>
    </g>
    <g id="xtick_5">
     <g id="line2d_5">
      <g>
       <use xlink:href="#mcf26568e4f" x="504.748491" y="327.558125" style="stroke: #000000; stroke-width: 0.8"/>
      </g>
     </g>
     <g id="text_5">
      <!-- 2023-09 -->
      <g transform="translate(483.857085 342.156563) scale(0.1 -0.1)">
       <defs>
        <path id="DejaVuSans-39" d="M 703 97 
L 703 672 
Q 941 559 1184 500 
Q 1428 441 1663 441 
Q 2288 441 2617 861 
Q 2947 1281 2994 2138 
Q 2813 1869 2534 1725 
Q 2256 1581 1919 1581 
Q 1219 1581 811 2004 
Q 403 2428 403 3163 
Q 403 3881 828 4315 
Q 1253 4750 1959 4750 
Q 2769 4750 3195 4129 
Q 3622 3509 3622 2328 
Q 3622 1225 3098 567 
Q 2575 -91 1691 -91 
Q 1453 -91 1209 -44 
Q 966 3 703 97 
z
M 1959 2075 
Q 2384 2075 2632 2365 
Q 2881 2656 2881 3163 
Q 2881 3666 2632 3958 
Q 2384 4250 1959 4250 
Q 1534 4250 1286 3958 
Q 1038 3666 1038 3163 
Q 1038 2656 1286 2365 
Q 1534 2075 1959 2075 
z
" transform="scale(0.015625)"/>
       </defs>
       <use xlink:href="#DejaVuSans-32"/>
       <use xlink:href="#DejaVuSans-30" x="63.623047"/>
       <use xlink:href="#DejaVuSans-32" x="127.246094"/>
       <use xlink:href="#DejaVuSans-33" x="190.869141"/>
       <use xlink:href="#DejaVuSans-2d" x="254.492188"/>
       <use xlink:href="#DejaVuSans-30" x="290.576172"/>
       <use xlink:href="#DejaVuSans-39" x="354.199219"/>
      </g>
     </g>
    </g>
    <g id="xtick_6">
     <g id="line2d_6">
      <g>
       <use xlink:href="#mcf26568e4f" x="611.205847" y="327.558125" style="stroke: #000000; stroke-width: 0.8"/>
      </g>
     </g>
     <g id="text_6">
      <!-- 2023-10 -->
      <g transform="translate(590.314441 342.156563) scale(0.1 -0.1)">
       <defs>
        <path id="DejaVuSans-31" d="M 794 531 
L 1825 531 
L 1825 4091 
L 703 3866 
L 703 4441 
L 1819 4666 
L 2450 4666 
L 2450 531 
L 3481 531 
L 3481 0 
L 794 0 
L 794 531 
z
" transform="scale(0.015625)"/>
       </defs>
       <use xlink:href="#DejaVuSans-32"/>
       <use xlink:href="#DejaVuSans-30" x="63.623047"/>
       <use xlink:href="#DejaVuSans-32" x="127.246094"/>
       <use xlink:href="#DejaVuSans-33" x="190.869141"/>
       <use xlink:href="#DejaVuSans-2d" x="254.492188"/>
       <use xlink:href="#DejaVuSans-31" x="290.576172"/>
       <use xlink:href="#DejaVuSans-30" x="354.199219"/>
      </g>
     </g>
    </g>
   </g>
   <g id="matplotlib.axis_2">
    <g id="ytick_1">
     <g id="line2d_7">
      <defs>
       <path id="m6eae42685e" d="M 0 0 
L -3.5 0 
" style="stroke: #000000; stroke-width: 0.8"/>
      </defs>
      <g>
       <use xlink:href="#m6eae42685e" x="26.925" y="306.251961" style="stroke: #000000; stroke-width: 0.8"/>
      </g>
     </g>
     <g id="text_7">
      <!-- 0 -->
      <g transform="translate(13.5625 310.05118) scale(0.1 -0.1)">
       <use xlink:href="#DejaVuSans-30"/>
      </g>
     </g>
    </g>
    <g id="ytick_2">
     <g id="line2d_8">
      <g>
       <use xlink:href="#m6eae42685e" x="26.925" y="262.539985" style="stroke: #000000; stroke-width: 0.8"/>
      </g>
     </g>
     <g id="text_8">
      <!-- 2 -->
      <g transform="translate(13.5625 266.339204) scale(0.1 -0.1)">
       <use xlink:href="#DejaVuSans-32"/>
      </g>
     </g>
    </g>
    <g id="ytick_3">
     <g id="line2d_9">
      <g>
       <use xlink:href="#m6eae42685e" x="26.925" y="218.828009" style="stroke: #000000; stroke-width: 0.8"/>
      </g>
     </g>
     <g id="text_9">
      <!-- 4 -->
      <g transform="translate(13.5625 222.627228) scale(0.1 -0.1)">
       <defs>
        <path id="DejaVuSans-34" d="M 2419 4116 
L 825 1625 
L 2419 1625 
L 2419 4116 
z
M 2253 4666 
L 3047 4666 
L 3047 1625 
L 3713 1625 
L 3713 1100 
L 3047 1100 
L 3047 0 
L 2419 0 
L 2419 1100 
L 313 1100 
L 313 1709 
L 2253 4666 
z
" transform="scale(0.015625)"/>
       </defs>
       <use xlink:href="#DejaVuSans-34"/>
      </g>
     </g>
    </g>
    <g id="ytick_4">
     <g id="line2d_10">
      <g>
       <use xlink:href="#m6eae42685e" x="26.925" y="175.116033" style="stroke: #000000; stroke-width: 0.8"/>
      </g>
     </g>
     <g id="text_10">
      <!-- 6 -->
      <g transform="translate(13.5625 178.915251) scale(0.1 -0.1)">
       <use xlink:href="#DejaVuSans-36"/>
      </g>
     </g>
    </g>
    <g id="ytick_5">
     <g id="line2d_11">
      <g>
       <use xlink:href="#m6eae42685e" x="26.925" y="131.404057" style="stroke: #000000; stroke-width: 0.8"/>
      </g>
     </g>
     <g id="text_11">
      <!-- 8 -->
      <g transform="translate(13.5625 135.203275) scale(0.1 -0.1)">
       <use xlink:href="#DejaVuSans-38"/>
      </g>
     </g>
    </g>
    <g id="ytick_6">
     <g id="line2d_12">
      <g>
       <use xlink:href="#m6eae42685e" x="26.925" y="87.692081" style="stroke: #000000; stroke-width: 0.8"/>
      </g>
     </g>
     <g id="text_12">
      <!-- 10 -->
      <g transform="translate(7.2 91.491299) scale(0.1 -0.1)">
       <use xlink:href="#DejaVuSans-31"/>
       <use xlink:href="#DejaVuSans-30" x="63.623047"/>
      </g>
     </g>
    </g>
    <g id="ytick_7">
     <g id="line2d_13">
      <g>
       <use xlink:href="#m6eae42685e" x="26.925" y="43.980105" style="stroke: #000000; stroke-width: 0.8"/>
      </g>
     </g>
     <g id="text_13">
      <!-- 12 -->
      <g transform="translate(7.2 47.779323) scale(0.1 -0.1)">
       <use xlink:href="#DejaVuSans-31"/>
       <use xlink:href="#DejaVuSans-32" x="63.623047"/>
      </g>
     </g>
    </g>
   </g>
   <g id="line2d_14">
    <path d="M 57.775455 305.140802 
L 57.923312 304.997427 
L 58.071169 305.045219 
L 58.366884 305.487293 
L 58.514742 305.248334 
L 58.662599 305.451449 
L 59.254029 305.320021 
L 59.549744 305.415605 
L 59.993316 277.732228 
L 60.436888 258.687211 
L 60.584746 259.499671 
L 60.732603 262.904834 
L 60.880461 258.448252 
L 61.176176 247.133553 
L 61.324033 249.00938 
L 61.471891 255.078933 
L 61.619748 243.776182 
L 61.767605 241.302958 
L 62.802607 287.792393 
L 63.098322 291.723266 
L 63.24618 291.926381 
L 63.689752 294.961157 
L 64.576897 299.835917 
L 64.724754 300.218251 
L 64.872612 298.641123 
L 65.168326 269.607628 
L 65.316184 269.344774 
L 65.464041 269.978015 
L 65.759756 278.771699 
L 66.203329 290.193929 
L 66.351186 291.711318 
L 66.942616 259.081493 
L 67.090473 262.331333 
L 67.681903 285.928515 
L 68.125475 293.360133 
L 68.569048 296.86088 
L 68.864762 298.36632 
L 69.01262 298.402164 
L 69.160477 299.226572 
L 69.751907 299.907605 
L 69.899765 299.489427 
L 70.195479 296.490494 
L 70.491194 297.912299 
L 70.639052 297.852559 
L 70.786909 296.012576 
L 70.934767 295.594398 
L 71.230481 296.586077 
L 71.526196 297.983986 
L 71.969769 299.453583 
L 72.117626 299.632802 
L 72.413341 299.047353 
L 72.561198 299.071249 
L 72.856913 299.274364 
L 73.300486 299.130988 
L 73.448343 299.286312 
L 74.039773 300.839544 
L 74.483345 301.580316 
L 74.631203 301.126294 
L 75.222632 297.55386 
L 75.961919 298.903978 
L 76.109777 298.963717 
L 77.144779 300.672273 
L 77.736209 301.711744 
L 77.884066 302.153817 
L 78.031924 123.508217 
L 78.179781 135.336678 
L 78.623353 300.906452 
L 78.771211 300.86344 
L 78.771211 300.86344 
L 79.214783 301.305514 
L 79.214783 301.305514 
L 79.362641 301.365253 
L 79.362641 301.365253 
L 79.510498 301.652004 
L 79.510498 301.652004 
L 79.658355 301.55642 
L 79.658355 301.55642 
L 80.101928 301.735639 
L 80.101928 301.735639 
L 80.249785 302.070182 
L 80.249785 302.070182 
L 80.397643 301.843171 
L 80.397643 301.843171 
L 80.5455 301.855119 
L 80.5455 301.855119 
L 80.841215 302.583943 
L 80.841215 302.583943 
L 80.989072 303.491987 
L 80.989072 303.491987 
L 81.284787 303.683154 
L 81.284787 303.683154 
L 81.432645 303.52783 
L 81.432645 303.52783 
L 81.580502 303.611466 
L 81.580502 303.611466 
L 81.72836 303.480039 
L 81.72836 303.480039 
L 81.876217 303.946008 
L 81.876217 303.946008 
L 82.024074 303.599518 
L 82.024074 303.599518 
L 82.171932 303.862373 
L 82.171932 303.862373 
L 82.319789 303.253028 
L 82.319789 303.253028 
L 82.467647 303.288872 
L 82.467647 303.288872 
L 82.763362 302.83485 
L 82.763362 302.83485 
L 82.911219 303.097705 
L 82.911219 303.097705 
L 83.059077 303.037965 
L 83.059077 303.037965 
L 83.206934 302.799006 
L 83.206934 302.799006 
L 83.354791 302.846798 
L 83.354791 302.846798 
L 83.502649 302.77511 
L 83.798364 302.918486 
L 84.094079 302.906538 
L 84.241936 303.372507 
L 84.389793 303.396403 
L 84.685508 304.627041 
L 84.833366 304.782364 
L 84.981223 304.662885 
L 85.129081 303.922112 
L 85.276938 304.184967 
L 85.424796 304.017696 
L 85.868368 303.109653 
L 86.164083 303.420299 
L 86.459798 303.193288 
L 86.607655 303.18134 
L 86.90337 303.336663 
L 87.199085 303.336663 
L 87.346942 303.229132 
L 87.4948 303.30082 
L 87.642657 303.503935 
L 87.938372 304.280551 
L 88.086229 304.328342 
L 88.529802 305.224438 
L 88.825517 304.435874 
L 88.973374 304.913792 
L 89.121232 304.435874 
L 89.269089 304.770416 
L 89.564804 303.503935 
L 89.860519 303.52783 
L 90.156234 303.491987 
L 90.304091 302.83485 
L 90.895521 303.049913 
L 91.043378 303.193288 
L 91.191236 302.990173 
L 91.486951 303.599518 
L 91.634808 301.855119 
L 91.782665 295.833357 
L 91.930523 295.080637 
L 92.226238 297.96009 
L 92.521953 296.705557 
L 92.817667 297.685288 
L 93.704812 302.36888 
L 94.000527 302.751214 
L 94.444099 303.312768 
L 94.591957 303.264976 
L 95.035529 303.70705 
L 95.479101 304.877948 
L 95.626959 304.471718 
L 95.922674 305.057167 
L 96.514103 304.34029 
L 96.809818 303.814581 
L 96.957676 304.208863 
L 97.401248 300.552793 
L 97.696963 301.699796 
L 97.84482 301.735639 
L 98.140535 301.233826 
L 98.288393 301.26967 
L 98.43625 302.153817 
L 98.584108 302.165765 
L 98.731965 303.049913 
L 98.879822 303.1216 
L 99.175537 303.922112 
L 99.323395 303.969904 
L 99.61911 304.40003 
L 100.062682 303.886269 
L 100.358397 304.34029 
L 100.506254 304.292499 
L 100.654112 304.065488 
L 101.097684 304.101332 
L 101.245541 303.9938 
L 101.393399 304.089384 
L 101.689114 303.93406 
L 101.836971 304.149123 
L 102.132686 305.093011 
L 102.576258 305.941314 
L 102.724116 305.511189 
L 103.019831 305.343917 
L 103.167688 305.487293 
L 104.20269 304.352238 
L 104.498405 304.591197 
L 104.79412 304.137175 
L 104.941977 304.435874 
L 105.237692 304.268603 
L 105.97698 305.929366 
L 106.272694 306.001054 
L 106.420552 305.594824 
L 106.716267 306.550659 
L 107.159839 305.15275 
L 107.455554 305.582876 
L 107.751269 304.937687 
L 108.194841 304.411978 
L 108.342699 304.34029 
L 108.638413 304.471718 
L 108.786271 304.364186 
L 108.934128 304.531457 
L 109.081986 305.367813 
L 109.525558 305.535084 
L 109.673415 306.036898 
L 109.821273 305.96521 
L 109.96913 305.547032 
L 110.116988 305.941314 
L 110.56056 305.67846 
L 110.708418 305.821835 
L 110.856275 305.702356 
L 111.15199 305.236386 
L 111.447705 304.794312 
L 111.891277 304.662885 
L 112.039134 304.161071 
L 112.334849 304.567301 
L 112.630564 304.137175 
L 112.778422 304.268603 
L 112.926279 304.854052 
L 113.074137 304.734572 
L 113.369851 305.164698 
L 113.517709 305.188594 
L 113.813424 304.734572 
L 113.961281 304.483666 
L 114.552711 304.913792 
L 114.996283 304.531457 
L 115.291998 304.650937 
L 115.587713 304.447822 
L 116.031285 304.638989 
L 116.327 304.256655 
L 116.91843 305.260282 
L 117.066287 305.475345 
L 117.214145 305.427553 
L 117.362002 305.570928 
L 117.50986 305.463397 
L 117.805575 304.997427 
L 118.544862 304.650937 
L 118.840577 304.662885 
L 119.136292 304.889896 
L 119.432006 304.483666 
L 119.579864 304.74652 
L 119.727721 304.722624 
L 120.319151 305.654564 
L 120.467008 305.61872 
L 120.614866 305.738199 
L 121.058438 306.347544 
L 121.354153 305.308074 
L 121.502011 305.248334 
L 121.797725 304.758468 
L 122.09344 304.818208 
L 122.389155 304.638989 
L 122.68487 304.758468 
L 122.980585 304.698729 
L 123.128442 304.770416 
L 123.2763 304.435874 
L 123.424157 304.435874 
L 123.719872 303.922112 
L 123.86773 304.495614 
L 124.163444 304.567301 
L 124.311302 304.089384 
L 124.754874 305.296126 
L 125.050589 304.495614 
L 125.346304 304.483666 
L 125.789876 304.34029 
L 126.233449 304.674833 
L 126.381306 304.662885 
L 126.529163 304.531457 
L 127.120593 305.284178 
L 127.268451 305.009375 
L 127.564166 305.21249 
L 127.712023 305.140802 
L 127.85988 305.55898 
L 128.155595 305.61872 
L 128.45131 305.104959 
L 128.599168 305.116906 
L 128.747025 304.937687 
L 128.894882 304.937687 
L 129.04274 304.507562 
L 129.63417 304.722624 
L 129.929885 304.435874 
L 130.077742 304.101332 
L 130.225599 304.531457 
L 130.373457 304.411978 
L 130.521314 305.033271 
L 130.669172 305.128854 
L 130.817029 305.451449 
L 131.260601 305.415605 
L 131.704174 305.726251 
L 132.443461 304.567301 
L 132.739176 304.698729 
L 133.034891 304.507562 
L 133.182748 304.435874 
L 133.330606 304.543405 
L 133.626321 304.268603 
L 133.774178 304.352238 
L 133.922035 304.137175 
L 134.21775 304.74652 
L 134.365608 305.248334 
L 134.513465 305.081063 
L 134.661323 305.570928 
L 134.957037 305.511189 
L 135.104895 305.750147 
L 135.252752 305.069115 
L 135.40061 305.284178 
L 135.548467 304.364186 
L 135.696325 301.413045 
L 135.844182 287.015777 
L 136.139897 224.205456 
L 136.287754 221.732232 
L 137.174899 287.063569 
L 137.618471 294.853626 
L 138.357759 300.911232 
L 138.801331 302.404724 
L 139.097046 302.77511 
L 139.392761 303.432247 
L 139.688475 303.014069 
L 139.98419 303.503935 
L 140.132048 303.539778 
L 140.279905 303.730945 
L 140.427763 303.718997 
L 140.57562 303.946008 
L 140.723478 303.838477 
L 141.019192 303.981852 
L 141.462765 305.248334 
L 141.610622 305.200542 
L 141.75848 305.415605 
L 141.906337 305.140802 
L 142.054194 305.55898 
L 142.202052 304.722624 
L 142.793482 305.774043 
L 143.089197 304.770416 
L 143.384911 304.435874 
L 143.828484 304.292499 
L 143.976341 304.603145 
L 144.272056 304.531457 
L 144.567771 304.041592 
L 145.011343 305.081063 
L 145.159201 304.877948 
L 145.454916 305.403657 
L 145.602773 304.770416 
L 145.898488 305.116906 
L 146.046345 305.093011 
L 146.194203 305.27223 
L 146.637775 304.376134 
L 146.93349 304.328342 
L 147.081347 304.567301 
L 147.229205 304.519509 
L 147.377062 304.591197 
L 148.116349 304.244707 
L 148.559922 305.343917 
L 149.003494 305.630668 
L 149.151352 305.164698 
L 149.299209 306.013002 
L 149.447066 305.809887 
L 149.742781 305.27223 
L 149.890639 305.762095 
L 150.038496 305.690408 
L 150.334211 304.877948 
L 150.777783 304.603145 
L 150.925641 304.710677 
L 151.221356 304.686781 
L 151.369213 304.698729 
L 151.517071 304.591197 
L 151.664928 304.137175 
L 151.960643 305.487293 
L 152.256358 305.367813 
L 152.552073 304.937687 
L 152.847788 305.55898 
L 152.995645 305.21249 
L 153.143502 305.248334 
L 153.439217 305.164698 
L 153.587075 305.176646 
L 154.474219 304.627041 
L 154.917792 304.603145 
L 155.065649 304.519509 
L 155.213507 304.650937 
L 155.361364 305.200542 
L 155.657079 305.176646 
L 155.952794 304.818208 
L 156.100651 304.794312 
L 156.544223 305.320021 
L 156.692081 304.913792 
L 156.839938 304.842104 
L 157.283511 305.296126 
L 157.431368 305.009375 
L 157.727083 304.949635 
L 158.022798 304.842104 
L 158.318513 305.188594 
L 158.46637 305.093011 
L 158.614228 304.710677 
L 158.762085 304.686781 
L 158.909942 305.140802 
L 159.0578 304.866 
L 159.205657 305.116906 
L 159.353515 305.869627 
L 159.64923 305.224438 
L 159.944945 305.654564 
L 160.092802 305.570928 
L 160.536374 305.045219 
L 160.684232 305.320021 
L 160.979947 305.308074 
L 161.127804 305.069115 
L 161.275662 305.057167 
L 161.571376 304.830156 
L 161.719234 305.057167 
L 162.014949 304.961583 
L 162.162806 305.009375 
L 162.310664 304.782364 
L 162.458521 305.666512 
L 162.606378 304.901844 
L 162.902093 305.61872 
L 163.049951 305.308074 
L 163.197808 305.379761 
L 163.493523 306.275857 
L 163.641381 305.27223 
L 164.084953 306.108586 
L 164.676383 304.877948 
L 164.82424 304.794312 
L 165.119955 305.069115 
L 165.267812 304.973531 
L 165.41567 305.021323 
L 165.563527 304.949635 
L 165.711385 305.188594 
L 165.859242 304.758468 
L 166.0071 305.415605 
L 166.154957 304.985479 
L 166.450672 305.630668 
L 166.598529 304.925739 
L 167.042102 306.001054 
L 167.189959 305.785991 
L 167.337816 304.866 
L 167.485674 304.734572 
L 167.633531 304.973531 
L 167.781389 305.594824 
L 168.077104 305.033271 
L 168.520676 304.770416 
L 168.668533 304.973531 
L 168.964248 304.937687 
L 169.112106 304.758468 
L 169.259963 304.854052 
L 169.407821 304.80626 
L 169.555678 305.15275 
L 169.703535 305.021323 
L 169.851393 305.499241 
L 169.99925 305.570928 
L 170.294965 305.045219 
L 170.442823 306.156377 
L 170.59068 305.439501 
L 170.738538 305.714303 
L 170.886395 305.535084 
L 171.034252 305.989106 
L 171.18211 305.809887 
L 171.329967 305.164698 
L 171.477825 305.487293 
L 171.921397 304.985479 
L 172.217112 304.913792 
L 172.364969 305.164698 
L 172.808542 305.069115 
L 172.956399 304.770416 
L 173.252114 305.96521 
L 173.399971 305.702356 
L 173.547829 306.455076 
L 173.695686 305.570928 
L 173.843544 305.977158 
L 173.991401 305.738199 
L 174.139259 306.120533 
L 174.287116 305.535084 
L 174.434974 305.797939 
L 174.582831 305.415605 
L 174.730688 305.809887 
L 175.174261 304.889896 
L 175.76569 305.188594 
L 176.061405 304.997427 
L 176.35712 304.937687 
L 176.504978 304.603145 
L 176.652835 305.857679 
L 176.94855 306.072742 
L 177.096407 305.929366 
L 177.244265 306.144429 
L 177.53998 305.463397 
L 177.687837 305.750147 
L 177.835695 305.331969 
L 177.983552 304.543405 
L 178.131409 304.495614 
L 178.427124 305.236386 
L 178.574982 305.594824 
L 179.166412 305.15275 
L 179.314269 305.200542 
L 179.609984 305.081063 
L 179.757841 305.069115 
L 179.905699 305.260282 
L 180.053556 305.15275 
L 180.201414 306.001054 
L 180.349271 305.785991 
L 180.644986 306.347544 
L 180.792843 306.108586 
L 180.940701 306.3117 
L 181.236416 305.989106 
L 181.384273 305.989106 
L 181.532131 306.335596 
L 181.679988 306.120533 
L 181.827845 306.682087 
L 181.975703 306.096638 
L 182.12356 305.033271 
L 182.271418 305.331969 
L 182.419275 304.770416 
L 182.567133 304.901844 
L 182.71499 304.567301 
L 183.010705 304.447822 
L 183.30642 304.866 
L 183.454277 304.758468 
L 183.602135 305.057167 
L 183.749992 305.630668 
L 184.045707 305.164698 
L 184.193564 305.248334 
L 184.341422 304.901844 
L 184.637137 305.176646 
L 184.932852 305.021323 
L 185.228567 304.519509 
L 185.524281 304.519509 
L 185.672139 304.316394 
L 185.819996 304.304447 
L 185.967854 304.05354 
L 186.115711 304.137175 
L 186.263569 303.814581 
L 186.411426 303.886269 
L 186.707141 303.730945 
L 186.854998 304.125227 
L 187.150713 303.790685 
L 187.446428 305.081063 
L 187.594286 305.176646 
L 187.742143 306.048846 
L 187.89 305.260282 
L 188.037858 305.188594 
L 188.185715 305.260282 
L 188.48143 305.714303 
L 188.629288 305.487293 
L 188.777145 305.55898 
L 189.07286 304.710677 
L 189.220717 304.830156 
L 189.66429 304.949635 
L 189.960005 304.866 
L 190.107862 304.80626 
L 190.255719 304.591197 
L 190.403577 305.093011 
L 190.551434 305.045219 
L 190.699292 304.591197 
L 190.847149 304.937687 
L 191.142864 304.854052 
L 191.290722 305.045219 
L 191.438579 304.866 
L 191.734294 305.690408 
L 191.882151 305.726251 
L 192.177866 305.547032 
L 192.325724 305.606772 
L 192.473581 305.499241 
L 192.621438 305.785991 
L 192.917153 305.642616 
L 193.212868 305.726251 
L 193.360726 305.630668 
L 193.508583 305.27223 
L 193.804298 305.200542 
L 193.952155 305.116906 
L 194.100013 304.877948 
L 194.24787 304.889896 
L 194.8393 306.287805 
L 194.987157 305.989106 
L 195.135015 306.132481 
L 195.282872 306.001054 
L 195.43073 306.502868 
L 195.578587 306.108586 
L 195.726445 306.467024 
L 195.874302 306.240013 
L 196.02216 306.526763 
L 196.465732 305.630668 
L 196.613589 305.666512 
L 196.909304 305.379761 
L 197.352877 305.188594 
L 197.500734 305.164698 
L 197.648591 304.74652 
L 198.092164 305.379761 
L 198.240021 305.523136 
L 198.535736 305.55898 
L 198.683593 305.164698 
L 198.831451 305.200542 
L 198.979308 305.415605 
L 199.127166 305.320021 
L 199.275023 303.9938 
L 199.422881 303.946008 
L 200.01431 305.439501 
L 200.162168 305.55898 
L 200.457883 305.260282 
L 200.60574 305.367813 
L 200.753598 305.642616 
L 200.901455 305.523136 
L 201.19717 305.654564 
L 201.345027 305.367813 
L 201.492885 305.499241 
L 201.7886 305.331969 
L 201.936457 305.475345 
L 202.232172 305.21249 
L 202.527887 305.857679 
L 202.675744 305.415605 
L 202.971459 305.391709 
L 203.119317 305.475345 
L 203.267174 305.284178 
L 203.415031 305.487293 
L 204.154319 304.913792 
L 204.302176 304.889896 
L 204.597891 305.093011 
L 204.745748 304.889896 
L 205.041463 305.128854 
L 205.189321 305.55898 
L 205.337178 305.439501 
L 205.485036 305.714303 
L 205.632893 305.55898 
L 205.78075 305.67846 
L 205.928608 305.654564 
L 206.37218 306.001054 
L 206.520038 305.821835 
L 206.815753 305.260282 
L 207.259325 305.308074 
L 207.407182 305.570928 
L 208.14647 305.475345 
L 208.442184 305.140802 
L 208.590042 305.61872 
L 208.737899 305.547032 
L 209.033614 305.774043 
L 209.181472 306.108586 
L 209.329329 305.833783 
L 209.625044 306.407284 
L 209.772901 305.535084 
L 209.920759 305.403657 
L 210.068616 305.702356 
L 210.216474 306.574555 
L 210.660046 305.439501 
L 210.807903 305.224438 
L 211.103618 305.296126 
L 211.399333 305.463397 
L 211.547191 305.499241 
L 211.695048 305.27223 
L 211.842905 305.343917 
L 211.990763 304.937687 
L 212.434335 306.395336 
L 212.582193 306.407284 
L 212.73005 306.108586 
L 213.025765 306.765722 
L 213.173622 306.705983 
L 213.32148 306.43118 
L 213.469337 306.71793 
L 213.617195 305.905471 
L 213.765052 306.216117 
L 214.060767 305.702356 
L 214.356482 305.547032 
L 215.095769 305.057167 
L 215.687199 305.116906 
L 215.835056 305.069115 
L 216.130771 305.236386 
L 216.278629 305.104959 
L 216.574344 305.296126 
L 216.722201 304.603145 
L 217.017916 295.821409 
L 217.461488 267.612322 
L 217.609346 254.254525 
L 217.757203 252.19948 
L 217.90506 254.266473 
L 218.940063 291.221452 
L 219.531492 298.736706 
L 220.122922 302.571995 
L 220.566494 303.575622 
L 221.010067 304.208863 
L 221.305782 304.304447 
L 221.453639 304.710677 
L 221.749354 304.627041 
L 222.045069 304.997427 
L 222.192926 304.674833 
L 222.488641 304.734572 
L 222.636498 304.973531 
L 222.932213 302.715371 
L 223.080071 302.966277 
L 223.227928 303.491987 
L 223.375786 303.515883 
L 223.671501 303.073809 
L 223.967215 298.700863 
L 224.115073 265.951559 
L 224.26293 181.539362 
L 224.410788 185.756985 
L 225.297932 286.430328 
L 225.741505 295.558554 
L 226.332934 299.979292 
L 226.776507 301.795379 
L 227.515794 303.766789 
L 227.663651 303.169392 
L 227.811509 303.288872 
L 227.959366 304.220811 
L 228.255081 303.718997 
L 228.402939 303.623414 
L 228.698653 303.683154 
L 228.846511 303.623414 
L 229.142226 303.910165 
L 229.733656 303.886269 
L 230.02937 305.021323 
L 230.472943 305.236386 
L 230.6208 304.423926 
L 230.916515 304.603145 
L 231.21223 304.698729 
L 231.655802 299.561114 
L 231.80366 300.660325 
L 232.099375 293.742467 
L 233.134377 300.564741 
L 233.282234 300.887336 
L 233.577949 300.481106 
L 234.021521 302.703423 
L 234.317236 303.70705 
L 234.465094 304.029644 
L 234.760808 303.802633 
L 235.056523 303.420299 
L 235.204381 304.208863 
L 235.352238 304.137175 
L 235.500096 304.531457 
L 235.647953 304.603145 
L 235.795811 304.543405 
L 235.943668 304.80626 
L 236.239383 304.698729 
L 236.38724 304.901844 
L 236.682955 304.770416 
L 236.830813 304.782364 
L 236.97867 305.582876 
L 237.126527 305.726251 
L 237.274385 305.666512 
L 237.422242 306.3117 
L 237.5701 305.61872 
L 237.717957 305.881575 
L 237.865815 305.606772 
L 238.013672 306.168325 
L 238.309387 305.547032 
L 238.457244 305.331969 
L 238.900817 305.881575 
L 239.196532 305.475345 
L 239.344389 305.511189 
L 239.640104 305.236386 
L 239.787961 305.343917 
L 240.083676 305.27223 
L 240.231534 305.116906 
L 240.379391 304.674833 
L 240.822963 306.299753 
L 240.970821 306.251961 
L 241.118678 305.523136 
L 241.266536 305.654564 
L 241.414393 305.989106 
L 241.562251 305.953262 
L 241.710108 306.467024 
L 241.857965 305.809887 
L 242.005823 305.929366 
L 242.449395 305.714303 
L 242.597253 305.845731 
L 243.188682 305.606772 
L 243.33654 305.750147 
L 244.075827 305.284178 
L 244.519399 305.726251 
L 244.667257 305.606772 
L 244.962972 306.060794 
L 245.110829 306.096638 
L 245.702259 305.523136 
L 245.850116 305.594824 
L 246.145831 305.343917 
L 246.293689 305.236386 
L 246.441546 305.55898 
L 246.737261 304.423926 
L 247.032976 305.320021 
L 247.180833 305.403657 
L 247.476548 305.200542 
L 247.772263 305.666512 
L 248.067978 304.961583 
L 248.659408 305.857679 
L 248.955123 305.021323 
L 249.10298 304.973531 
L 249.250837 304.543405 
L 249.546552 305.057167 
L 249.69441 304.866 
L 249.990125 305.929366 
L 250.137982 305.714303 
L 250.433697 305.953262 
L 250.581554 305.785991 
L 250.877269 305.702356 
L 251.025127 305.343917 
L 251.172984 305.869627 
L 251.320842 305.929366 
L 251.468699 305.774043 
L 251.764414 305.953262 
L 251.912271 305.702356 
L 252.060129 306.156377 
L 252.355844 306.156377 
L 252.651559 305.331969 
L 252.947273 305.021323 
L 253.095131 305.523136 
L 253.242988 305.308074 
L 253.390846 305.523136 
L 253.538703 305.391709 
L 253.686561 305.021323 
L 253.982275 305.523136 
L 254.130133 305.475345 
L 254.27799 305.785991 
L 254.721563 305.379761 
L 255.312992 305.989106 
L 255.46085 305.845731 
L 255.608707 306.335596 
L 256.05228 306.359492 
L 256.347994 305.67846 
L 256.643709 304.615093 
L 256.791567 304.758468 
L 257.087282 305.308074 
L 257.530854 305.355865 
L 257.678711 305.630668 
L 257.826569 305.248334 
L 257.974426 305.308074 
L 258.122284 304.316394 
L 258.713713 289.345626 
L 259.009428 281.077651 
L 259.157286 279.572211 
L 259.305143 276.537434 
L 259.453001 271.041381 
L 259.600858 271.543195 
L 260.488003 291.209504 
L 260.931575 296.538285 
L 261.523005 300.720065 
L 262.114435 303.444195 
L 262.705864 304.483666 
L 262.853722 304.05354 
L 263.001579 304.555353 
L 263.149437 304.292499 
L 263.297294 305.27223 
L 263.445152 305.308074 
L 263.593009 304.794312 
L 263.888724 304.722624 
L 264.184439 304.543405 
L 265.219441 304.74652 
L 265.367298 305.236386 
L 265.515156 305.27223 
L 265.958728 305.116906 
L 266.106585 305.355865 
L 266.4023 305.367813 
L 266.550158 305.523136 
L 266.698015 305.284178 
L 266.845873 298.844238 
L 267.141587 255.915289 
L 267.289445 241.00426 
L 267.437302 242.688919 
L 267.733017 223.560267 
L 267.880875 224.70727 
L 268.17659 252.665449 
L 268.472304 279.870909 
L 268.768019 291.591838 
L 269.063734 296.167899 
L 269.507306 299.716438 
L 269.655164 298.987613 
L 269.803021 296.167899 
L 269.950879 296.657765 
L 270.246594 182.973115 
L 270.985881 243.190733 
L 271.429453 285.175794 
L 271.725168 292.930008 
L 272.16874 297.052047 
L 272.612313 299.405791 
L 273.055885 300.481106 
L 273.647315 301.640056 
L 274.238745 302.356932 
L 274.534459 302.595891 
L 274.682317 302.392776 
L 274.978032 302.787058 
L 275.273747 303.30082 
L 275.421604 303.205236 
L 275.865176 303.539778 
L 276.160891 303.93406 
L 276.604464 304.627041 
L 276.752321 304.710677 
L 276.900178 304.973531 
L 277.048036 304.985479 
L 277.195893 305.296126 
L 277.491608 304.328342 
L 277.787323 304.674833 
L 278.083038 304.232759 
L 278.230895 304.423926 
L 278.378753 304.149123 
L 278.52661 304.220811 
L 278.674468 304.077436 
L 278.970183 304.149123 
L 279.265897 303.910165 
L 279.413755 304.316394 
L 279.561612 304.34029 
L 279.70947 303.957956 
L 279.857327 304.220811 
L 280.005185 304.710677 
L 280.3009 304.734572 
L 280.448757 305.140802 
L 280.744472 304.961583 
L 281.188044 304.794312 
L 281.483759 304.471718 
L 281.779474 304.232759 
L 282.075189 304.734572 
L 282.223046 304.376134 
L 282.370904 304.686781 
L 282.666619 304.686781 
L 282.814476 304.567301 
L 282.962333 304.710677 
L 283.110191 305.463397 
L 283.701621 306.02495 
L 283.849478 305.774043 
L 283.997335 306.323648 
L 284.29305 306.168325 
L 284.588765 305.200542 
L 285.47591 305.200542 
L 285.623767 305.045219 
L 285.771625 305.224438 
L 285.919482 304.937687 
L 286.363054 305.236386 
L 286.510912 305.379761 
L 286.806627 306.02495 
L 286.954484 305.654564 
L 287.102342 305.869627 
L 287.250199 306.478972 
L 287.398057 306.156377 
L 287.693771 287.708758 
L 288.137344 298.01983 
L 288.433059 301.126294 
L 288.580916 301.448889 
L 288.728774 301.329409 
L 288.876631 299.346051 
L 289.024488 292.667153 
L 289.172346 291.078077 
L 289.320203 291.149764 
L 289.468061 289.656272 
L 289.615918 290.337305 
L 290.355205 299.154884 
L 290.503063 299.64475 
L 290.65092 299.453583 
L 290.946635 295.080637 
L 291.094493 296.7414 
L 291.24235 288.628749 
L 291.390207 272.618509 
L 291.538065 273.502657 
L 291.685922 271.973321 
L 291.981637 279.536367 
L 292.277352 235.72327 
L 292.573067 263.585867 
L 292.868782 286.896298 
L 293.164497 294.029218 
L 293.608069 298.581383 
L 294.051641 300.660325 
L 294.790928 302.77511 
L 295.234501 302.954329 
L 295.530216 304.017696 
L 295.825931 303.563674 
L 295.973788 303.551726 
L 296.121645 303.659258 
L 296.565218 303.539778 
L 297.156647 304.041592 
L 297.304505 304.722624 
L 297.452362 304.866 
L 297.60022 304.627041 
L 297.748077 305.547032 
L 298.043792 304.662885 
L 298.339507 304.232759 
L 298.487364 304.328342 
L 298.635222 304.638989 
L 298.783079 304.555353 
L 298.930937 304.34029 
L 299.078794 304.889896 
L 299.226652 304.638989 
L 299.374509 304.854052 
L 299.670224 304.579249 
L 300.409511 304.208863 
L 300.557369 304.471718 
L 300.705226 304.471718 
L 300.853083 304.949635 
L 301.148798 304.997427 
L 301.444513 305.893523 
L 301.592371 304.80626 
L 301.740228 305.379761 
L 301.888086 305.379761 
L 302.035943 304.937687 
L 302.1838 305.057167 
L 302.331658 304.794312 
L 302.627373 305.654564 
L 302.77523 304.80626 
L 302.923088 304.698729 
L 303.218802 304.997427 
L 303.810232 304.794312 
L 304.253805 304.770416 
L 304.401662 305.021323 
L 304.697377 304.662885 
L 304.845234 304.74652 
L 304.993092 304.985479 
L 305.140949 304.985479 
L 305.288807 305.630668 
L 305.436664 305.463397 
L 305.732379 304.901844 
L 305.880236 304.842104 
L 306.028094 305.078673 
L 306.175951 304.866 
L 306.175951 304.866 
L 306.471666 305.009375 
L 306.471666 305.009375 
L 306.619524 304.842104 
L 306.915238 304.961583 
L 307.063096 304.973531 
L 307.358811 305.248334 
L 307.506668 305.140802 
L 307.802383 305.21249 
L 307.950241 305.606772 
L 308.098098 305.403657 
L 308.54167 306.096638 
L 308.689528 306.001054 
L 308.985243 306.263909 
L 309.428815 305.752537 
L 309.576672 305.821835 
L 309.72453 305.738199 
L 310.168102 304.949635 
L 310.759532 305.176646 
L 311.646676 305.331969 
L 311.794534 305.475345 
L 311.942391 305.284178 
L 312.090249 303.217184 
L 312.238106 299.429687 
L 312.533821 286.705131 
L 312.681679 287.529539 
L 312.829536 284.817356 
L 312.977393 285.856827 
L 313.125251 289.250042 
L 313.273108 267.146353 
L 313.420966 220.919773 
L 313.568823 211.433108 
L 313.864538 246.177718 
L 314.160253 278.783646 
L 314.455968 291.926381 
L 314.751683 296.51439 
L 315.047398 299.154884 
L 315.195255 299.202676 
L 315.343112 298.605279 
L 316.0824 302.595891 
L 316.378115 301.699796 
L 316.673829 302.870694 
L 316.821687 302.619787 
L 316.969544 302.799006 
L 317.265259 303.52783 
L 317.413117 303.551726 
L 317.708831 303.838477 
L 317.856689 303.802633 
L 318.152404 304.161071 
L 318.300261 304.352238 
L 318.448119 304.208863 
L 318.595976 304.627041 
L 318.743834 304.328342 
L 319.039548 304.794312 
L 319.335263 304.782364 
L 319.483121 305.176646 
L 319.630978 305.057167 
L 319.926693 305.379761 
L 320.07455 305.475345 
L 320.370265 305.176646 
L 320.518123 304.615093 
L 320.66598 305.021323 
L 320.813838 304.997427 
L 320.961695 304.818208 
L 321.25741 305.069115 
L 321.553125 304.758468 
L 321.700982 304.734572 
L 321.84884 304.973531 
L 321.996697 304.877948 
L 322.144555 305.081063 
L 322.440269 303.432247 
L 322.735984 303.253028 
L 322.883842 303.575622 
L 323.031699 303.312768 
L 323.179557 303.754841 
L 323.327414 303.348611 
L 323.475272 301.687848 
L 323.623129 302.070182 
L 323.918844 303.922112 
L 324.066701 303.910165 
L 324.362416 295.881149 
L 325.249561 302.42862 
L 325.545276 303.64731 
L 325.840991 304.256655 
L 326.136705 305.606772 
L 326.43242 305.630668 
L 326.580278 305.762095 
L 326.728135 305.55898 
L 326.875993 305.774043 
L 327.02385 299.776177 
L 327.319565 271.579039 
L 327.763137 241.81672 
L 328.058852 248.041597 
L 328.20671 226.738419 
L 328.354567 222.234046 
L 328.502424 227.634515 
L 329.241712 287.684862 
L 329.537427 294.542979 
L 329.980999 299.190728 
L 330.276714 301.078503 
L 330.572429 301.855119 
L 330.720286 301.96265 
L 331.016001 302.787058 
L 331.311716 302.643683 
L 331.755288 302.846798 
L 332.051003 303.073809 
L 332.642433 303.420299 
L 332.79029 303.922112 
L 332.938148 303.850425 
L 333.086005 303.969904 
L 333.233862 304.292499 
L 333.38172 303.969904 
L 333.677435 304.352238 
L 333.97315 304.101332 
L 334.268865 302.990173 
L 334.564579 302.153817 
L 334.712437 301.114347 
L 334.860294 301.018763 
L 335.008152 301.245774 
L 335.451724 302.500308 
L 335.599582 303.037965 
L 335.747439 303.145496 
L 336.043154 297.780871 
L 336.191011 297.864507 
L 336.338869 298.700863 
L 336.486726 298.569435 
L 336.634584 297.410485 
L 336.782441 297.26711 
L 336.930298 297.637496 
L 337.078156 313.68358 
L 337.373871 148.300193 
L 337.521728 155.588436 
L 338.408873 278.700011 
L 338.704588 290.612107 
L 339.000303 294.387656 
L 339.296017 296.347118 
L 339.591732 297.745027 
L 340.478877 300.720065 
L 340.626734 300.839544 
L 341.070307 301.890963 
L 341.218164 301.879015 
L 341.513879 302.297193 
L 342.253166 302.452516 
L 342.401024 302.225505 
L 342.696739 302.261349 
L 342.992453 302.799006 
L 343.288168 302.643683 
L 343.436026 303.1216 
L 343.583883 303.143107 
L 343.879598 303.456143 
L 344.027456 303.468091 
L 344.471028 304.077436 
L 344.9146 303.456143 
L 345.062458 303.288872 
L 345.210315 303.420299 
L 345.50603 303.264976 
L 345.653887 303.420299 
L 345.801745 303.312768 
L 345.949602 303.444195 
L 346.245317 303.491987 
L 346.688889 303.64731 
L 346.836747 303.503935 
L 347.132462 304.125227 
L 347.280319 304.316394 
L 347.428177 304.232759 
L 347.723891 304.901844 
L 348.019606 304.543405 
L 348.463179 304.830156 
L 348.906751 303.372507 
L 349.054608 303.24108 
L 349.498181 303.826529 
L 349.941753 303.946008 
L 350.08961 303.838477 
L 350.237468 303.9938 
L 350.385325 303.910165 
L 350.533183 304.507562 
L 350.68104 304.579249 
L 350.828898 305.284178 
L 351.124613 304.615093 
L 351.27247 304.794312 
L 351.420327 304.770416 
L 351.568185 304.997427 
L 351.716042 304.674833 
L 351.8639 304.662885 
L 352.159615 304.316394 
L 352.307472 304.280551 
L 352.455329 304.483666 
L 352.603187 304.495614 
L 352.751044 304.280551 
L 353.046759 304.376134 
L 353.342474 303.850425 
L 353.490332 303.969904 
L 353.638189 303.814581 
L 353.786046 304.029644 
L 353.933904 303.93406 
L 354.081761 304.603145 
L 354.377476 304.376134 
L 354.525334 304.555353 
L 354.821049 304.471718 
L 354.968906 305.045219 
L 355.116763 281.751515 
L 355.412478 200.871129 
L 355.560336 211.970765 
L 356.151765 278.998709 
L 356.44748 292.428194 
L 356.743195 296.729453 
L 357.03891 298.975665 
L 357.778197 302.094078 
L 357.926055 302.225505 
L 358.22177 302.882642 
L 358.369627 302.89459 
L 358.517484 303.049913 
L 358.665342 303.444195 
L 358.813199 303.444195 
L 358.961057 303.169392 
L 359.108914 303.396403 
L 359.256772 304.089384 
L 359.552487 303.790685 
L 359.848201 303.515883 
L 360.439631 303.623414 
L 360.587489 303.886269 
L 360.883203 303.611466 
L 361.031061 303.659258 
L 361.178918 304.05354 
L 361.326776 304.029644 
L 361.474633 304.435874 
L 361.770348 303.898217 
L 362.066063 304.304447 
L 362.21392 305.284178 
L 362.361778 305.200542 
L 362.657493 304.531457 
L 362.953208 304.196915 
L 363.101065 304.244707 
L 363.39678 303.718997 
L 363.692495 300.289939 
L 363.98821 301.257722 
L 364.875354 304.196915 
L 365.171069 304.734572 
L 365.318927 304.638989 
L 365.466784 304.376134 
L 365.614642 304.579249 
L 365.762499 300.875388 
L 365.910356 293.216758 
L 366.206071 300.445262 
L 366.353929 300.301887 
L 366.501786 298.306581 
L 366.649644 298.187101 
L 366.797501 298.83229 
L 367.241073 301.771483 
L 367.536788 302.942381 
L 367.684646 303.085757 
L 368.276075 304.161071 
L 368.719648 305.164698 
L 368.867505 305.021323 
L 369.16322 305.236386 
L 369.458935 305.547032 
L 369.75465 304.435874 
L 370.050365 287.589278 
L 370.198222 285.104107 
L 370.34608 287.159152 
L 370.789652 296.45465 
L 371.233224 300.92318 
L 371.528939 302.237453 
L 372.120369 304.304447 
L 372.268226 304.196915 
L 372.563941 305.320021 
L 372.859656 305.009375 
L 373.007513 304.411978 
L 373.303228 304.196915 
L 373.451086 304.471718 
L 373.598943 304.316394 
L 373.894658 304.579249 
L 374.042516 304.495614 
L 374.190373 304.208863 
L 374.33823 304.40003 
L 374.781803 304.208863 
L 375.077518 304.328342 
L 375.225375 304.292499 
L 375.373232 304.137175 
L 375.52109 304.495614 
L 375.816805 304.435874 
L 375.964662 304.364186 
L 376.11252 304.483666 
L 376.260377 304.770416 
L 376.408235 290.397044 
L 376.703949 248.208868 
L 376.851807 241.111791 
L 376.999664 248.674837 
L 377.147522 235.137821 
L 377.295379 197.991675 
L 377.443237 192.017705 
L 377.591094 199.963086 
L 378.478239 283.777885 
L 378.773954 293.180914 
L 379.069668 296.406858 
L 379.513241 299.107093 
L 379.661098 299.322156 
L 380.104671 301.460837 
L 380.400385 301.162138 
L 380.6961 301.532524 
L 380.843958 301.544472 
L 380.991815 301.711744 
L 381.139673 301.687848 
L 381.435387 301.879015 
L 381.583245 301.867067 
L 381.731102 302.046286 
L 381.87896 301.998494 
L 382.026817 302.117974 
L 382.174675 302.094078 
L 382.47039 302.273297 
L 382.618247 302.763162 
L 382.766104 302.583943 
L 382.913962 303.264976 
L 383.209677 303.097705 
L 383.505392 303.683154 
L 383.653249 303.253028 
L 383.801106 303.480039 
L 383.948964 303.133548 
L 384.096821 303.372507 
L 384.244679 303.049913 
L 384.392536 303.085757 
L 384.540394 302.83485 
L 384.836109 303.1216 
L 384.983966 302.990173 
L 385.131823 302.655631 
L 385.279681 302.918486 
L 385.723253 262.307437 
L 385.871111 258.818639 
L 386.314683 277.576905 
L 386.906113 288.760176 
L 387.349685 296.681661 
L 387.793257 300.588637 
L 387.941115 300.899284 
L 388.23683 301.938754 
L 388.384687 302.046286 
L 388.532544 302.297193 
L 388.828259 302.261349 
L 388.976117 302.452516 
L 389.271832 302.416672 
L 389.419689 302.560047 
L 389.863261 303.659258 
L 390.011119 303.778737 
L 390.306834 303.599518 
L 390.602549 304.208863 
L 390.750406 304.077436 
L 391.046121 303.802633 
L 391.341836 304.45977 
L 391.489693 304.125227 
L 392.82041 303.850425 
L 392.968268 303.695102 
L 393.116125 303.766789 
L 393.41184 304.364186 
L 393.559697 304.184967 
L 393.855412 304.447822 
L 394.00327 304.017696 
L 394.446842 304.411978 
L 394.594699 304.328342 
L 394.742557 304.435874 
L 394.890414 303.073809 
L 395.038272 299.29826 
L 395.333987 301.293566 
L 395.629702 301.974598 
L 395.777559 301.926806 
L 396.221131 302.739266 
L 396.516846 302.77511 
L 396.664704 302.978225 
L 397.108276 304.376134 
L 397.256133 304.770416 
L 397.403991 304.328342 
L 397.551848 304.268603 
L 397.847563 304.734572 
L 398.143278 304.388082 
L 398.734708 303.9938 
L 399.030423 304.137175 
L 399.917567 303.898217 
L 400.065425 303.695102 
L 400.508997 304.710677 
L 401.248284 305.104959 
L 401.396142 305.033271 
L 401.543999 304.579249 
L 401.691857 304.579249 
L 401.987571 304.256655 
L 402.135429 304.316394 
L 402.283286 304.208863 
L 402.431144 304.45977 
L 403.022573 304.041592 
L 403.318288 303.515883 
L 403.466146 303.563674 
L 403.761861 304.137175 
L 404.057576 304.913792 
L 404.205433 305.081063 
L 404.35329 304.782364 
L 404.501148 305.069115 
L 404.649005 305.021323 
L 404.796863 305.523136 
L 404.94472 305.594824 
L 405.240435 304.925739 
L 405.53615 304.411978 
L 405.684007 304.376134 
L 405.831865 304.615093 
L 405.979722 300.947075 
L 406.12758 289.011083 
L 406.866867 300.636429 
L 407.014724 300.45721 
L 407.162582 300.086824 
L 407.310439 300.325783 
L 407.754012 302.691475 
L 407.901869 302.954329 
L 408.345441 304.734572 
L 408.493299 304.627041 
L 408.789014 304.352238 
L 409.084728 304.615093 
L 409.380443 304.698729 
L 409.824016 304.579249 
L 409.971873 304.662885 
L 410.119731 304.519509 
L 410.267588 304.686781 
L 410.71116 304.40003 
L 411.450447 305.487293 
L 411.89402 305.487293 
L 412.041877 305.606772 
L 412.189735 305.224438 
L 412.337592 305.27223 
L 412.929022 304.854052 
L 413.076879 304.937687 
L 413.520452 304.615093 
L 413.668309 304.208863 
L 414.111881 304.734572 
L 414.259739 303.718997 
L 414.555454 300.266043 
L 414.851169 298.055674 
L 415.146883 292.726893 
L 415.294741 293.921687 
L 415.590456 298.007882 
L 415.738313 299.405791 
L 416.034028 237.34819 
L 416.181885 227.658411 
L 416.329743 228.172172 
L 417.06903 286.215265 
L 417.364745 293.897791 
L 417.808317 298.700863 
L 418.25189 300.887336 
L 418.695462 302.464464 
L 419.434749 303.217184 
L 419.878321 303.061861 
L 420.026179 303.097705 
L 420.617609 303.623414 
L 420.913324 303.766789 
L 421.209038 303.635362 
L 421.948326 304.555353 
L 422.096183 304.411978 
L 422.24404 304.388082 
L 422.539755 305.21249 
L 422.83547 305.057167 
L 423.4269 304.34029 
L 424.905474 304.734572 
L 425.349047 305.320021 
L 425.496904 305.15275 
L 425.644762 305.61872 
L 425.792619 305.630668 
L 425.940476 305.475345 
L 426.088334 305.797939 
L 426.236191 305.642616 
L 426.384049 305.654564 
L 426.975479 304.973531 
L 427.714766 304.842104 
L 428.158338 304.901844 
L 428.60191 304.997427 
L 428.897625 305.248334 
L 429.045483 305.654564 
L 429.341198 305.511189 
L 429.489055 305.570928 
L 429.636912 304.34029 
L 429.78477 304.734572 
L 430.080485 304.710677 
L 430.3762 305.523136 
L 430.671914 305.427553 
L 431.559059 305.750147 
L 432.002631 305.367813 
L 432.150489 305.427553 
L 432.298346 305.630668 
L 432.446204 306.204169 
L 432.594061 306.120533 
L 432.889776 306.467024 
L 433.185491 306.060794 
L 433.333348 306.072742 
L 433.776921 302.787058 
L 433.924778 302.870694 
L 434.072636 303.862373 
L 434.516208 168.635587 
L 434.664065 166.520801 
L 434.95978 196.450391 
L 435.403353 243.501379 
L 435.994782 280.026232 
L 436.438355 292.834424 
L 436.881927 301.174086 
L 437.177642 302.034338 
L 437.473357 302.810954 
L 437.621214 302.942381 
L 437.916929 303.503935 
L 438.212644 303.623414 
L 438.508359 303.910165 
L 438.804074 303.850425 
L 438.951931 303.862373 
L 439.247646 304.280551 
L 439.839076 304.842104 
L 439.986933 304.435874 
L 440.430505 305.15275 
L 440.578363 304.889896 
L 440.874078 304.949635 
L 441.021935 305.057167 
L 441.31765 304.782364 
L 441.90908 304.662885 
L 442.056937 304.627041 
L 442.204795 304.794312 
L 442.648367 304.662885 
L 443.091939 305.15275 
L 443.535512 305.367813 
L 443.683369 305.55898 
L 443.979084 305.248334 
L 444.126941 304.997427 
L 444.274799 305.033271 
L 444.422656 304.80626 
L 444.570514 287.159152 
L 444.866229 238.97311 
L 445.014086 242.091522 
L 445.605516 284.709825 
L 445.901231 290.432888 
L 446.196946 291.269244 
L 446.344803 290.755482 
L 446.49266 291.221452 
L 446.788375 294.507136 
L 447.231948 299.99124 
L 447.527662 301.460837 
L 448.414807 303.073809 
L 448.562665 303.109653 
L 449.154094 303.58757 
L 449.449809 303.778737 
L 449.893381 303.766789 
L 450.189096 304.483666 
L 450.336954 304.411978 
L 450.484811 304.495614 
L 450.780526 305.403657 
L 450.928384 305.893523 
L 451.224098 304.925739 
L 451.371956 305.009375 
L 451.519813 304.997427 
L 451.963386 304.447822 
L 452.2591 304.352238 
L 452.554815 304.567301 
L 453.146245 304.591197 
L 453.44196 304.782364 
L 454.03339 305.176646 
L 454.181247 301.926806 
L 454.62482 238.650516 
L 454.772677 231.672919 
L 455.807679 294.507136 
L 456.251251 299.381895 
L 456.694824 301.341357 
L 456.990539 301.96265 
L 457.286253 302.751214 
L 457.729826 303.312768 
L 458.025541 304.065488 
L 458.321255 303.922112 
L 458.469113 303.981852 
L 458.61697 304.184967 
L 459.356258 304.137175 
L 459.504115 304.05354 
L 459.79983 304.40003 
L 459.947687 304.638989 
L 460.095545 304.579249 
L 460.243402 304.328342 
L 460.39126 304.531457 
L 460.539117 304.268603 
L 460.982689 304.949635 
L 461.426262 305.308074 
L 461.574119 305.594824 
L 461.721977 305.61872 
L 462.017691 305.140802 
L 462.313406 304.734572 
L 462.461264 304.985479 
L 462.756979 304.997427 
L 463.052694 304.722624 
L 463.200551 304.937687 
L 463.348408 304.913792 
L 463.496266 304.674833 
L 463.644123 304.722624 
L 463.791981 304.638989 
L 464.087696 304.854052 
L 464.235553 304.997427 
L 464.38341 305.308074 
L 464.531268 305.069115 
L 465.270555 306.072742 
L 465.418413 306.001054 
L 465.861985 305.355865 
L 466.009842 305.391709 
L 466.1577 305.057167 
L 466.305557 305.248334 
L 466.453415 304.173019 
L 466.601272 305.033271 
L 466.749129 305.21249 
L 466.896987 305.104959 
L 467.192702 305.104959 
L 467.488417 304.901844 
L 467.784132 305.104959 
L 467.931989 304.961583 
L 468.079846 305.15275 
L 468.227704 305.116906 
L 468.671276 305.845731 
L 468.966991 305.355865 
L 469.114848 305.427553 
L 469.262706 305.762095 
L 469.558421 305.881575 
L 469.854136 305.654564 
L 470.445565 305.487293 
L 470.593423 305.547032 
L 470.889138 305.200542 
L 471.036995 305.331969 
L 471.184853 305.284178 
L 471.628425 305.726251 
L 471.92414 306.120533 
L 472.071997 306.060794 
L 472.219855 306.359492 
L 472.367712 306.347544 
L 472.51557 305.917418 
L 472.663427 305.845731 
L 472.959142 305.857679 
L 473.106999 305.499241 
L 473.846287 305.67846 
L 474.437716 305.367813 
L 474.585574 305.415605 
L 474.733431 305.331969 
L 474.881289 304.758468 
L 475.177003 136.220825 
L 475.324861 101.285048 
L 475.472718 110.281847 
L 476.359863 233.357578 
L 476.803435 255.724122 
L 477.09915 264.470014 
L 477.394865 173.378919 
L 477.542722 180.464047 
L 477.986295 225.925959 
L 478.134152 230.298906 
L 478.28201 220.214844 
L 478.429867 224.408571 
L 478.873439 255.568799 
L 479.317012 272.164488 
L 480.056299 290.050554 
L 480.499871 36.19267 
L 480.795586 36.19267 
L 480.943444 36.455525 
L 481.239158 82.036917 
L 481.682731 145.826969 
L 482.126303 178.922763 
L 482.717733 206.785359 
L 483.161305 219.77277 
L 483.309163 221.815868 
L 483.45702 222.186254 
L 483.604877 221.541065 
L 483.900592 219.306801 
L 484.04845 218.864727 
L 484.196307 219.48602 
L 484.492022 222.61638 
L 484.935594 230.418385 
L 488.336315 297.518017 
L 488.63203 300.301887 
L 488.927745 300.839544 
L 489.371318 301.723691 
L 489.519175 301.663952 
L 489.81489 302.02239 
L 489.962747 302.464464 
L 490.258462 302.094078 
L 490.702035 302.273297 
L 490.849892 301.974598 
L 491.145607 301.96265 
L 491.737037 301.819275 
L 492.032751 302.237453 
L 492.180609 302.392776 
L 492.328466 302.321088 
L 492.476324 302.106026 
L 492.919896 302.703423 
L 493.067754 302.464464 
L 493.511326 303.24108 
L 493.659183 302.966277 
L 493.954898 303.049913 
L 494.102756 303.109653 
L 494.546328 302.799006 
L 494.842043 302.810954 
L 495.285615 302.571995 
L 495.433473 302.739266 
L 495.729187 302.655631 
L 495.877045 302.822902 
L 496.024902 302.787058 
L 496.616332 303.420299 
L 497.207762 303.64731 
L 497.503477 303.30082 
L 497.651334 303.229132 
L 497.799192 300.660325 
L 498.094906 287.553435 
L 498.242764 288.198623 
L 498.390621 283.503083 
L 498.538479 283.63451 
L 499.129909 297.040099 
L 499.573481 300.779804 
L 500.164911 302.643683 
L 500.312768 302.703423 
L 500.75634 303.348611 
L 501.052055 303.097705 
L 501.199913 303.611466 
L 501.495628 303.468091 
L 501.791342 303.551726 
L 501.9392 303.695102 
L 502.087057 303.64731 
L 502.234915 304.05354 
L 502.382772 303.563674 
L 502.826344 303.503935 
L 502.974202 303.372507 
L 503.122059 303.671206 
L 503.269917 303.611466 
L 503.417774 304.364186 
L 503.861347 304.232759 
L 504.009204 304.388082 
L 504.157061 304.722624 
L 504.452776 304.423926 
L 504.748491 304.770416 
L 505.044206 304.220811 
L 505.487778 303.981852 
L 506.227066 303.862373 
L 506.374923 303.695102 
L 506.670638 303.109653 
L 506.966353 304.579249 
L 507.262068 304.220811 
L 507.409925 304.638989 
L 507.557782 304.674833 
L 507.70564 305.009375 
L 508.001355 304.638989 
L 508.149212 304.770416 
L 508.592785 304.543405 
L 508.740642 304.531457 
L 508.888499 304.328342 
L 509.184214 304.352238 
L 509.479929 304.125227 
L 509.627787 304.017696 
L 509.923502 304.184967 
L 510.071359 303.946008 
L 510.219216 304.041592 
L 510.367074 304.388082 
L 510.514931 304.268603 
L 510.810646 304.913792 
L 510.958504 304.734572 
L 511.106361 305.200542 
L 511.254218 304.603145 
L 511.402076 304.74652 
L 511.549933 304.650937 
L 512.141363 304.830156 
L 512.437078 304.34029 
L 512.584935 304.45977 
L 513.324223 304.11328 
L 513.47208 303.886269 
L 513.915652 304.615093 
L 514.06351 304.40003 
L 514.507082 305.081063 
L 514.65494 304.579249 
L 514.802797 304.937687 
L 515.098512 304.782364 
L 515.394227 305.116906 
L 515.689942 304.615093 
L 515.985656 304.877948 
L 516.133514 304.877948 
L 516.429229 304.579249 
L 516.724944 304.686781 
L 516.872801 304.292499 
L 517.168516 304.388082 
L 517.316373 304.483666 
L 517.464231 304.770416 
L 517.759946 304.818208 
L 517.907803 304.985479 
L 518.055661 304.889896 
L 518.203518 305.248334 
L 518.64709 305.164698 
L 519.23852 305.128854 
L 519.534235 305.081063 
L 519.682092 304.758468 
L 519.82995 305.045219 
L 519.977807 304.627041 
L 520.273522 304.74652 
L 520.569237 304.555353 
L 521.012809 304.686781 
L 521.160667 305.116906 
L 521.308524 304.985479 
L 521.456382 305.069115 
L 521.752097 304.997427 
L 521.899954 304.997427 
L 522.047811 304.615093 
L 522.195669 304.603145 
L 522.343526 304.866 
L 522.639241 304.866 
L 522.787099 305.069115 
L 523.082814 304.722624 
L 523.230671 304.901844 
L 523.378528 304.591197 
L 523.674243 304.674833 
L 523.822101 304.722624 
L 523.969958 304.376134 
L 524.117816 304.603145 
L 524.265673 304.447822 
L 524.41353 304.543405 
L 524.561388 304.794312 
L 524.709245 304.017696 
L 524.857103 301.174086 
L 525.152818 260.013433 
L 525.300675 261.662248 
L 526.039962 293.5513 
L 526.335677 297.888403 
L 526.631392 299.680594 
L 526.927107 300.493054 
L 527.222822 300.899284 
L 527.518537 300.994867 
L 527.962109 301.628108 
L 528.257824 302.48836 
L 528.553539 303.097705 
L 528.701396 303.420299 
L 528.849254 303.408351 
L 528.997111 303.623414 
L 529.144969 303.491987 
L 529.440683 304.077436 
L 529.588541 303.969904 
L 529.884256 304.292499 
L 530.179971 304.519509 
L 530.327828 304.471718 
L 530.623543 304.686781 
L 531.067115 304.698729 
L 531.510688 305.128854 
L 531.658545 304.973531 
L 531.95426 305.009375 
L 532.397832 305.021323 
L 532.54569 305.248334 
L 533.137119 305.009375 
L 533.284977 305.140802 
L 533.580692 304.997427 
L 534.024264 305.104959 
L 534.172121 304.471718 
L 534.319979 305.069115 
L 534.467836 305.200542 
L 534.615694 305.093011 
L 534.763551 305.164698 
L 535.059266 305.009375 
L 535.207123 305.427553 
L 535.354981 305.331969 
L 535.650696 305.535084 
L 536.833555 305.260282 
L 536.981413 305.104959 
L 537.12927 305.224438 
L 537.277128 305.188594 
L 537.424985 305.27223 
L 537.572843 305.128854 
L 537.7207 305.343917 
L 537.868557 305.27223 
L 538.016415 305.475345 
L 538.164272 305.164698 
L 538.903559 305.451449 
L 539.051417 305.929366 
L 539.199274 305.881575 
L 539.347132 306.120533 
L 539.494989 305.785991 
L 539.642847 305.821835 
L 539.938562 305.379761 
L 540.234276 305.570928 
L 540.529991 305.331969 
L 540.973564 305.116906 
L 541.269278 305.224438 
L 541.564993 305.093011 
L 542.008566 304.997427 
L 542.156423 305.009375 
L 542.452138 305.726251 
L 542.599995 305.582876 
L 542.747853 306.108586 
L 542.89571 306.048846 
L 543.043568 306.192221 
L 543.339283 305.511189 
L 544.07857 305.284178 
L 544.226427 305.391709 
L 544.522142 304.782364 
L 544.817857 282.451664 
L 545.261429 257.456573 
L 545.409287 260.288235 
L 546.592146 298.139309 
L 546.887861 300.266043 
L 547.331433 301.950702 
L 548.218578 303.93406 
L 548.366436 304.161071 
L 548.810008 304.232759 
L 548.957865 304.447822 
L 549.25358 303.910165 
L 549.549295 304.615093 
L 549.992867 305.081063 
L 550.140725 304.949635 
L 550.43644 304.997427 
L 550.584297 304.782364 
L 551.027869 304.818208 
L 551.471442 304.770416 
L 551.767157 304.74652 
L 552.210729 305.021323 
L 552.358586 304.901844 
L 552.506444 305.081063 
L 552.654301 304.567301 
L 552.802159 304.650937 
L 553.245731 305.535084 
L 553.837161 305.809887 
L 553.985018 305.547032 
L 554.132876 305.654564 
L 554.280733 305.570928 
L 554.428591 305.630668 
L 554.724305 305.176646 
L 554.872163 305.451449 
L 555.167878 305.140802 
L 555.315735 305.021323 
L 555.463593 305.069115 
L 555.61145 305.248334 
L 555.907165 305.069115 
L 556.055022 305.081063 
L 556.350737 304.877948 
L 556.498595 304.997427 
L 556.79431 305.797939 
L 556.942167 305.726251 
L 557.090024 306.02495 
L 557.237882 305.833783 
L 557.385739 305.941314 
L 557.533597 305.654564 
L 557.681454 305.881575 
L 557.977169 305.750147 
L 558.125026 305.415605 
L 558.568599 305.499241 
L 559.160029 305.284178 
L 559.307886 305.427553 
L 559.455743 305.27223 
L 559.603601 305.320021 
L 559.751458 304.997427 
L 560.047173 305.355865 
L 560.342888 306.036898 
L 560.638603 306.251961 
L 560.78646 306.144429 
L 560.934318 306.634295 
L 561.082175 306.467024 
L 561.230033 306.072742 
L 561.37789 306.287805 
L 561.673605 305.797939 
L 562.117177 305.487293 
L 562.56075 305.27223 
L 563.152179 305.343917 
L 563.300037 305.164698 
L 563.447894 305.21249 
L 564.187181 306.43118 
L 564.335039 306.120533 
L 564.778611 305.941314 
L 565.370041 305.511189 
L 565.517898 305.511189 
L 565.813613 305.726251 
L 566.257186 305.762095 
L 566.5529 305.917418 
L 566.700758 305.690408 
L 566.848615 305.750147 
L 567.14433 305.547032 
L 567.440045 306.096638 
L 567.73576 305.869627 
L 568.179332 306.096638 
L 568.475047 305.809887 
L 568.622905 305.845731 
L 568.770762 306.072742 
L 568.918619 305.845731 
L 569.066477 305.941314 
L 569.510049 305.475345 
L 569.657907 305.726251 
L 569.805764 305.702356 
L 569.953622 305.857679 
L 570.397194 305.415605 
L 570.692909 305.582876 
L 570.840766 305.785991 
L 570.988624 306.180273 
L 571.284338 306.108586 
L 571.432196 306.323648 
L 572.615055 305.726251 
L 572.762913 305.738199 
L 573.206485 305.427553 
L 573.5022 305.511189 
L 573.797915 305.523136 
L 573.945772 305.308074 
L 574.389345 305.785991 
L 574.68506 306.478972 
L 574.980774 306.263909 
L 575.128632 306.610399 
L 575.424347 306.072742 
L 575.867919 306.287805 
L 576.459349 305.61872 
L 576.902921 305.594824 
L 577.050779 305.511189 
L 577.198636 305.61872 
L 577.346493 305.55898 
L 577.642208 305.107348 
L 578.085781 306.240013 
L 578.085781 306.240013 
L 578.381496 305.570928 
L 578.381496 305.570928 
L 578.67721 306.574555 
L 578.67721 306.574555 
L 578.825068 306.49092 
L 578.972925 306.192221 
L 579.120783 306.526763 
L 579.416498 306.347544 
L 579.712212 305.797939 
L 579.86007 305.8529 
L 580.155785 305.67846 
L 580.303642 305.67846 
L 580.599357 305.499241 
L 580.895072 305.499241 
L 581.190787 305.164698 
L 581.486502 305.738199 
L 581.782217 305.609162 
L 582.077932 305.989106 
L 582.077932 305.989106 
L 582.225789 306.204169 
L 582.225789 306.204169 
L 582.521504 305.917418 
L 582.669361 306.072742 
L 582.817219 306.036898 
L 582.965076 305.750147 
L 583.408648 305.977158 
L 584.000078 305.714303 
L 584.147936 305.535084 
L 584.295793 305.905471 
L 584.443651 305.738199 
L 584.739365 305.045219 
L 585.182938 305.917418 
L 585.330795 305.869627 
L 585.478653 306.108586 
L 585.62651 305.833783 
L 585.774367 306.013002 
L 586.070082 305.475345 
L 586.21794 306.08469 
L 586.365797 306.204169 
L 586.661512 305.642616 
L 586.957227 306.096638 
L 587.252942 305.953262 
L 587.400799 305.929366 
L 587.548657 306.251961 
L 587.696514 306.192221 
L 588.140086 305.487293 
L 588.731516 305.487293 
L 589.027231 305.594824 
L 589.322946 306.02495 
L 589.618661 305.869627 
L 589.766518 305.917418 
L 590.062233 305.762095 
L 590.505806 305.666512 
L 590.653663 305.511189 
L 590.80152 305.606772 
L 590.949378 305.893523 
L 591.097235 305.845731 
L 591.39295 305.523136 
L 591.98438 305.439501 
L 592.280095 305.726251 
L 592.427952 305.642616 
L 592.57581 305.714303 
L 592.871525 305.67846 
L 593.019382 305.726251 
L 593.167239 305.391709 
L 593.315097 305.523136 
L 593.758669 305.069115 
L 593.906527 305.451449 
L 594.054384 305.176646 
L 594.497956 303.802633 
L 594.793671 303.444195 
L 594.941529 298.89203 
L 595.089386 298.808394 
L 595.385101 301.950702 
L 595.532958 300.875388 
L 595.976531 293.622988 
L 597.011533 302.129921 
L 597.455105 303.456143 
L 597.898677 304.11328 
L 598.637965 305.021323 
L 599.377252 305.475345 
L 599.672967 305.67846 
L 599.820824 305.809887 
L 599.968682 305.714303 
L 600.412254 305.941314 
L 600.560111 303.886269 
L 600.707969 298.330477 
L 600.855826 285.66566 
L 601.151541 237.037544 
L 601.299399 235.388728 
L 601.595113 248.854057 
L 602.038686 273.813303 
L 602.186543 273.813303 
L 602.334401 260.574986 
L 602.482258 260.778101 
L 603.221545 294.208437 
L 603.51726 298.844238 
L 603.812975 300.74396 
L 604.256547 302.141869 
L 604.70012 302.822902 
L 604.847977 302.870694 
L 605.291549 303.52783 
L 605.735122 303.862373 
L 606.326551 304.161071 
L 606.770124 304.866 
L 607.213696 305.140802 
L 607.361553 305.296126 
L 607.509411 305.116906 
L 607.805126 305.093011 
L 608.100841 304.854052 
L 608.248698 304.734572 
L 608.544413 304.710677 
L 608.69227 304.698729 
L 608.987985 305.21249 
L 609.2837 304.961583 
L 609.727273 304.698729 
L 609.87513 305.021323 
L 610.022987 305.630668 
L 610.170845 305.582876 
L 610.318702 305.989106 
L 610.46656 306.02495 
L 610.614417 306.323648 
L 610.910132 305.774043 
L 611.057989 306.3117 
L 611.353704 305.630668 
L 611.501562 305.702356 
L 611.797277 305.403657 
L 612.092992 305.415605 
L 612.240849 305.523136 
L 612.388706 305.439501 
L 612.684421 305.547032 
L 612.832279 305.427553 
L 612.980136 305.15275 
L 613.423708 305.941314 
L 613.571566 305.953262 
L 613.719423 305.785991 
L 614.015138 306.144429 
L 614.162996 306.096638 
L 614.606568 306.705983 
L 614.902283 305.905471 
L 615.197998 305.809887 
L 615.345855 305.630668 
L 616.085142 305.606772 
L 616.676572 305.320021 
L 616.82443 305.451449 
L 617.120144 306.096638 
L 617.268002 306.407284 
L 617.415859 306.204169 
L 617.711574 307.279484 
L 617.859432 306.622347 
L 618.007289 306.921045 
L 618.598719 305.977158 
L 619.042291 305.630668 
L 619.929436 305.702356 
L 620.225151 305.057167 
L 620.373008 305.391709 
L 620.520866 306.08469 
L 620.964438 306.287805 
L 621.260153 306.538711 
L 621.40801 306.43118 
L 621.703725 306.753774 
L 621.99944 306.156377 
L 622.295155 305.702356 
L 622.443012 305.809887 
L 623.182299 305.355865 
L 623.478014 305.260282 
L 623.773729 304.722624 
L 624.069444 305.666512 
L 624.365159 305.989106 
L 624.513016 305.905471 
L 624.956589 305.953262 
L 625.252304 306.108586 
L 625.695876 305.415605 
L 626.139448 305.594824 
L 626.58302 305.248334 
L 628.061595 305.630668 
L 628.209452 304.830156 
L 628.35731 303.097705 
L 628.505167 295.486867 
L 628.94874 231.075522 
L 629.096597 235.269249 
L 629.835884 281.149339 
L 630.279456 292.631309 
L 630.723029 297.96009 
L 631.166601 300.612533 
L 631.610173 302.667579 
L 631.758031 303.312768 
L 632.349461 303.671206 
L 632.645175 304.411978 
L 632.793033 304.364186 
L 632.94089 304.184967 
L 633.088748 304.40003 
L 633.236605 304.901844 
L 633.384463 304.531457 
L 633.53232 305.081063 
L 633.680178 304.722624 
L 633.828035 304.794312 
L 634.12375 304.615093 
L 634.419465 304.674833 
L 634.567322 304.567301 
L 634.71518 304.854052 
L 635.010894 304.901844 
L 635.158752 305.116906 
L 635.306609 305.045219 
L 635.602324 305.128854 
L 635.750182 304.854052 
L 635.898039 304.89587 
L 640.333762 305.714303 
L 640.48162 305.582876 
L 640.629477 305.630668 
L 640.777335 306.013002 
L 640.925192 305.666512 
L 641.073049 305.809887 
L 641.220907 305.702356 
L 641.368764 305.917418 
L 641.516622 305.61872 
L 641.664479 305.570928 
L 641.960194 305.785991 
L 642.403766 305.797939 
L 642.551624 306.120533 
L 642.699481 305.833783 
L 642.847339 305.797939 
L 642.995196 305.893523 
L 643.290911 305.630668 
L 643.438768 305.774043 
L 643.586626 305.67846 
L 644.473771 305.953262 
L 645.213058 305.714303 
L 645.360915 305.941314 
L 645.508773 305.690408 
L 645.804488 305.857679 
L 646.100202 305.774043 
L 646.24806 305.953262 
L 646.395917 305.630668 
L 646.543775 305.594824 
L 646.691632 305.081063 
L 646.83949 305.093011 
L 647.135204 305.511189 
L 647.578777 305.762095 
L 647.726634 305.654564 
L 647.874492 305.845731 
L 648.022349 305.67846 
L 648.170207 305.989106 
L 648.465921 305.809887 
L 648.909494 305.869627 
L 649.205209 305.774043 
L 649.796638 305.821835 
L 650.388068 305.666512 
L 650.535926 305.857679 
L 650.683783 305.499241 
L 650.979498 305.511189 
L 651.127355 305.451449 
L 651.275213 305.55898 
L 651.42307 305.415605 
L 651.718785 305.523136 
L 651.866642 305.427553 
L 652.0145 305.654564 
L 652.310215 305.463397 
L 652.60593 305.785991 
L 652.753787 305.905471 
L 652.901645 306.216117 
L 653.049502 306.251961 
L 653.345217 306.013002 
L 653.788789 306.060794 
L 654.084504 305.893523 
L 654.528076 305.881575 
L 654.675934 305.67846 
L 654.971649 306.048846 
L 655.267364 305.809887 
L 655.415221 306.036898 
L 655.710936 305.857679 
L 656.302366 306.072742 
L 656.598081 306.096638 
L 656.745938 306.240013 
L 656.893795 306.08469 
L 657.18951 306.08469 
L 657.337368 306.001054 
L 657.485225 306.060794 
L 657.633083 305.702356 
L 657.78094 305.774043 
L 657.928797 305.654564 
L 658.224512 305.176646 
L 658.520227 303.718997 
L 658.668085 302.476412 
L 658.9638 298.449956 
L 659.111657 299.668646 
L 659.259514 296.323223 
L 659.850944 222.950922 
L 659.998802 219.07979 
L 660.146659 223.464684 
L 661.329519 289.417313 
L 661.625233 295.534659 
L 661.920948 298.222945 
L 662.364521 300.05098 
L 662.95595 301.687848 
L 663.54738 302.799006 
L 664.878097 304.017696 
L 665.173812 304.161071 
L 665.469527 304.352238 
L 665.913099 304.268603 
L 666.652386 304.650937 
L 667.095959 305.045219 
L 667.243816 304.925739 
L 667.391674 305.069115 
L 667.983103 305.069115 
L 668.130961 304.877948 
L 668.870248 304.961583 
L 669.018105 305.104959 
L 669.461678 305.069115 
L 669.757393 305.21249 
L 669.90525 305.164698 
L 670.49668 305.487293 
L 671.679539 305.116906 
L 671.827397 304.973531 
L 672.123112 305.427553 
L 672.270969 305.331969 
L 672.418826 305.021323 
L 672.566684 305.009375 
L 673.010256 304.674833 
L 673.305971 305.093011 
L 673.897401 305.355865 
L 674.193116 305.96521 
L 674.784545 305.403657 
L 674.784545 305.403657 
" clip-path="url(#p36f4934926)" style="fill: none; stroke: #1f77b4; stroke-width: 1.5; stroke-linecap: square"/>
   </g>
   <g id="line2d_15">
    <path d="M 57.775455 305.391709 
L 59.401886 305.643028 
L 59.549744 305.58267 
L 59.697601 302.791597 
L 60.141174 286.310023 
L 60.436888 281.390001 
L 60.732603 276.121836 
L 60.880461 274.997762 
L 61.324033 266.037029 
L 61.471891 263.140974 
L 61.915463 218.020325 
L 62.06332 217.933477 
L 62.211178 216.992568 
L 62.359035 217.792605 
L 62.950465 226.952526 
L 63.24618 229.740938 
L 64.872612 253.62424 
L 65.020469 255.093603 
L 65.168326 253.640733 
L 65.316184 250.18032 
L 65.464041 249.639422 
L 66.351186 259.970817 
L 66.499043 258.803346 
L 66.942616 245.401285 
L 67.090473 245.901039 
L 68.716905 264.733238 
L 69.456192 271.195165 
L 69.751907 272.222278 
L 69.899765 272.119034 
L 70.047622 272.262525 
L 70.639052 276.142692 
L 70.786909 276.08947 
L 70.934767 276.07825 
L 71.378339 278.80955 
L 71.969769 282.081501 
L 72.117626 281.584058 
L 72.561198 277.18695 
L 73.004771 276.287028 
L 73.152628 276.54376 
L 74.631203 284.787147 
L 74.77906 284.483782 
L 75.074775 282.808733 
L 75.37049 281.054638 
L 75.518347 280.707437 
L 75.666205 280.79966 
L 75.961919 282.076036 
L 76.109777 281.930152 
L 76.257634 281.966366 
L 76.849064 284.274414 
L 77.144779 282.677617 
L 77.440494 283.87052 
L 77.588351 283.65859 
L 77.736209 283.671048 
L 77.884066 283.977583 
L 78.179781 283.21047 
L 78.623353 283.242512 
L 78.771211 283.850251 
L 78.771211 284.623516 
L 78.919068 285.348327 
L 78.919068 286.054685 
L 79.066926 286.735611 
L 79.066926 287.393999 
L 79.214783 288.030064 
L 79.214783 288.644704 
L 79.362641 289.238605 
L 79.362641 289.812475 
L 79.510498 290.366988 
L 79.510498 290.902797 
L 79.658355 291.420532 
L 79.658355 291.920804 
L 79.806213 292.404202 
L 79.806213 292.871294 
L 79.95407 293.322631 
L 79.95407 293.758745 
L 80.101928 294.180148 
L 80.101928 294.587336 
L 80.249785 294.980791 
L 80.249785 295.360973 
L 80.397643 295.728332 
L 80.397643 296.0833 
L 80.5455 296.426294 
L 80.5455 296.757719 
L 80.693358 297.077965 
L 80.693358 297.387409 
L 80.841215 297.686415 
L 80.841215 297.975336 
L 80.989072 298.254511 
L 80.989072 298.524269 
L 81.13693 298.784928 
L 81.13693 299.036795 
L 81.284787 299.280167 
L 81.284787 299.515329 
L 81.432645 299.742559 
L 81.432645 299.962125 
L 81.580502 300.174284 
L 81.580502 300.379288 
L 81.72836 300.577376 
L 81.72836 300.768783 
L 81.876217 300.953734 
L 81.876217 301.132446 
L 82.171932 301.63322 
L 82.171932 301.789013 
L 82.467647 302.225564 
L 82.467647 302.361376 
L 82.763362 302.741941 
L 82.763362 302.860335 
L 83.059077 303.192093 
L 83.059077 303.295304 
L 83.354791 303.584515 
L 83.354791 303.674489 
L 84.833366 304.423118 
L 86.459798 304.998077 
L 88.529802 305.47637 
L 91.191236 305.835113 
L 91.486951 305.880546 
L 91.634808 305.632723 
L 92.07838 302.569647 
L 92.521953 302.968825 
L 93.85267 303.840496 
L 95.331244 304.540908 
L 96.957676 305.13625 
L 97.105533 304.619501 
L 97.401248 303.054501 
L 97.84482 303.41372 
L 99.323395 304.237401 
L 100.949827 304.870747 
L 102.871973 305.367786 
L 105.237692 305.741326 
L 108.490556 306.011927 
L 113.517709 306.177211 
L 124.015587 306.245421 
L 134.957037 306.263958 
L 135.252752 305.9242 
L 135.40061 305.656275 
L 135.696325 304.336086 
L 135.99204 297.329852 
L 136.583469 261.816406 
L 136.879184 259.751609 
L 137.174899 262.315239 
L 138.209901 271.685223 
L 139.244903 279.065908 
L 140.279905 284.87067 
L 141.314907 289.436 
L 142.349909 293.026541 
L 143.384911 295.850431 
L 144.419914 298.071364 
L 145.454916 299.818083 
L 146.637775 301.362524 
L 147.820635 302.536225 
L 149.151352 303.523428 
L 150.629926 304.315933 
L 152.256358 304.92459 
L 154.178504 305.402253 
L 156.692081 305.777784 
L 160.092802 306.036584 
L 165.41567 306.189337 
L 177.244265 306.247797 
L 216.574344 306.270075 
L 216.722201 306.013576 
L 216.870058 304.544161 
L 217.017916 300.951164 
L 217.313631 285.567896 
L 217.757203 258.761891 
L 218.200775 249.579586 
L 218.49649 252.798171 
L 219.531492 264.202193 
L 220.566494 273.180654 
L 221.601496 280.242046 
L 222.488641 285.112732 
L 222.636498 285.508634 
L 222.784356 285.244077 
L 223.227928 281.596686 
L 223.967215 284.611753 
L 224.115073 284.641197 
L 224.26293 280.738231 
L 224.558645 270.107586 
L 225.297932 275.852083 
L 226.332934 282.342828 
L 227.367937 287.447902 
L 228.402939 291.462942 
L 229.437941 294.620687 
L 230.472943 297.138942 
L 230.6208 297.112308 
L 230.768658 296.690149 
L 230.916515 296.700162 
L 231.064372 297.131982 
L 231.21223 296.988997 
L 231.360087 296.572962 
L 231.80366 271.433697 
L 232.099375 274.199515 
L 232.542947 277.103166 
L 232.838662 276.974775 
L 233.282234 279.618772 
L 234.317236 285.306738 
L 235.352238 289.778958 
L 236.38724 293.296271 
L 237.422242 296.062568 
L 238.457244 298.238206 
L 239.492246 299.949301 
L 240.675106 301.462244 
L 241.857965 302.612007 
L 243.188682 303.579076 
L 244.667257 304.355418 
L 246.293689 304.951661 
L 248.215835 305.419582 
L 250.729412 305.787455 
L 254.130133 306.040976 
L 257.530854 306.167518 
L 257.678711 305.889149 
L 257.974426 299.946365 
L 258.861571 283.148059 
L 259.009428 283.195343 
L 259.157286 282.2181 
L 259.453001 275.002588 
L 259.748716 274.838844 
L 260.192288 275.498596 
L 262.114435 286.471077 
L 263.149437 290.694688 
L 264.184439 294.016474 
L 265.219441 296.628993 
L 266.254443 298.684941 
L 266.698015 299.35885 
L 266.845873 298.758879 
L 266.99373 283.131773 
L 267.289445 239.626679 
L 267.437302 240.557829 
L 267.58516 233.818063 
L 267.880875 206.592987 
L 268.17659 212.201386 
L 269.211592 232.226725 
L 269.359449 234.985004 
L 269.507306 235.274905 
L 269.803021 230.174926 
L 270.098736 232.095175 
L 270.246594 231.691016 
L 270.394451 232.883431 
L 270.542309 232.064658 
L 270.690166 227.897589 
L 270.838023 227.403338 
L 271.873026 243.845552 
L 272.908028 257.170589 
L 273.94303 267.650435 
L 274.978032 275.892627 
L 276.013034 282.374947 
L 277.048036 287.473163 
L 278.083038 291.482809 
L 279.11804 294.635211 
L 279.561612 295.829935 
L 279.70947 295.627092 
L 279.857327 294.759415 
L 280.005185 294.658499 
L 280.596614 296.189026 
L 281.631616 298.337866 
L 282.666619 300.027683 
L 283.849478 301.52181 
L 285.032338 302.657274 
L 286.363054 303.612318 
L 287.545914 304.274485 
L 287.693771 304.036381 
L 288.285201 300.46822 
L 288.433059 300.741644 
L 288.580916 300.611452 
L 288.728774 299.794037 
L 288.876631 298.312099 
L 289.320203 289.809135 
L 289.763776 291.538491 
L 290.503063 293.639235 
L 290.65092 292.257581 
L 290.946635 282.569901 
L 291.094493 281.808586 
L 291.24235 282.3135 
L 291.538065 281.18516 
L 291.685922 281.54827 
L 291.83378 283.043702 
L 291.981637 273.35332 
L 292.277352 245.253807 
L 292.720924 251.575798 
L 293.755926 263.274928 
L 296.269503 281.47439 
L 297.304505 286.764893 
L 298.339507 290.925768 
L 299.374509 294.198215 
L 300.409511 296.771929 
L 301.444513 298.796104 
L 302.479515 300.388077 
L 303.662375 301.795704 
L 304.549519 302.658635 
L 304.697377 302.450324 
L 304.845234 301.831299 
L 305.140949 301.587849 
L 305.288807 300.999533 
L 305.436664 300.886241 
L 306.028094 301.600093 
L 306.323809 302.055264 
L 306.323809 302.196817 
L 307.950241 303.565471 
L 309.428815 304.345764 
L 311.055247 304.945003 
L 311.794534 305.179757 
L 311.942391 304.796561 
L 312.533821 297.39578 
L 312.681679 297.50268 
L 313.125251 298.579293 
L 313.273108 295.163548 
L 313.716681 231.371881 
L 314.012395 237.217122 
L 314.89954 250.147115 
L 315.343112 254.457205 
L 315.638827 256.905824 
L 316.525972 266.11322 
L 317.560974 274.683646 
L 318.595976 281.424108 
L 319.630978 286.725347 
L 320.66598 290.894666 
L 321.700982 294.173754 
L 322.735984 296.751279 
L 323.179557 297.755252 
L 323.327414 297.697116 
L 323.475272 299.272244 
L 323.623129 289.639656 
L 323.918844 260.95723 
L 324.214559 264.734777 
L 325.101703 272.512106 
L 326.136705 279.71614 
L 326.875993 283.981596 
L 327.02385 283.778629 
L 327.467422 272.218039 
L 327.61528 264.563802 
L 327.910995 219.314305 
L 328.058852 214.012842 
L 328.20671 214.682758 
L 328.502424 212.387757 
L 328.798139 217.62052 
L 329.833141 236.522248 
L 330.868143 251.410928 
L 331.903146 263.120576 
L 332.938148 272.330046 
L 333.825292 278.813931 
L 333.97315 278.076281 
L 334.121007 275.348483 
L 334.268865 274.925176 
L 334.860294 279.07388 
L 335.747439 284.070495 
L 335.895296 281.653389 
L 336.191011 271.114637 
L 337.078156 258.791514 
L 337.669586 228.773813 
L 337.817443 230.017909 
L 338.55673 242.146352 
L 339.591732 255.83403 
L 340.626734 266.599259 
L 341.661736 275.065897 
L 342.696739 281.72474 
L 343.731741 286.961789 
L 345.210315 293.026315 
L 346.245317 295.850253 
L 347.280319 298.071224 
L 348.315321 299.817973 
L 349.498181 301.362441 
L 350.68104 302.536161 
L 352.011757 303.523382 
L 353.490332 304.315899 
L 354.821049 304.88728 
L 354.968906 304.665489 
L 355.116763 305.263115 
L 355.264621 292.357991 
L 355.560336 259.492955 
L 355.856051 263.435893 
L 356.595338 270.245116 
L 357.63034 277.933215 
L 358.665342 283.979829 
L 359.700344 288.735371 
L 360.735346 292.475511 
L 361.770348 295.417043 
L 362.509635 297.13504 
L 362.657493 297.225576 
L 363.101065 293.670328 
L 363.692495 295.346776 
L 364.727497 297.675518 
L 365.466784 299.046039 
L 365.614642 299.031862 
L 366.058214 296.312886 
L 366.206071 295.96472 
L 366.353929 296.004582 
L 367.093216 297.648193 
L 368.128218 299.485233 
L 369.311077 301.128535 
L 369.458935 301.212262 
L 369.606792 301.714738 
L 369.75465 299.317619 
L 370.050365 292.080485 
L 370.34608 293.220265 
L 371.233224 295.658558 
L 372.268226 297.920465 
L 373.303228 299.699405 
L 374.486088 301.272334 
L 375.668947 302.470088 
L 376.11252 302.712925 
L 376.260377 303.419238 
L 376.408235 298.70567 
L 376.851807 267.936542 
L 377.443237 256.498933 
L 377.738951 252.66107 
L 377.886809 253.146392 
L 378.626096 261.638752 
L 379.661098 271.164403 
L 380.6961 278.656292 
L 381.731102 284.548515 
L 382.766104 289.181918 
L 383.505392 292.390381 
L 383.653249 287.868492 
L 383.948964 274.028312 
L 384.244679 276.556549 
L 385.279681 283.06014 
L 385.427538 282.627613 
L 385.575396 280.343381 
L 386.018968 233.369516 
L 386.166825 235.872985 
L 386.314683 236.148897 
L 386.46254 235.446745 
L 386.610398 236.532352 
L 387.349685 247.640361 
L 388.384687 260.154951 
L 389.419689 269.997577 
L 390.454691 277.738607 
L 391.046121 281.395384 
L 391.341836 282.23381 
L 392.376838 287.362162 
L 393.41184 291.395507 
L 394.446842 294.586618 
L 394.594699 294.891007 
L 394.742557 295.606702 
L 394.890414 293.415611 
L 395.186129 286.569918 
L 395.629702 288.70884 
L 396.664704 292.451135 
L 397.699706 295.397885 
L 398.734708 297.715446 
L 399.76971 299.538161 
L 400.952569 301.149797 
L 402.135429 302.374562 
L 403.466146 303.404717 
L 404.796863 304.161178 
L 405.979722 304.689712 
L 406.12758 304.332583 
L 406.571152 298.583955 
L 407.014724 299.414475 
L 408.197584 301.054525 
L 409.380443 302.30216 
L 410.563303 303.250303 
L 411.89402 304.047789 
L 413.372594 304.688091 
L 413.964024 304.90766 
L 414.111881 304.692524 
L 414.555454 301.726827 
L 414.851169 302.132547 
L 414.999026 301.528623 
L 415.146883 299.404897 
L 415.590456 287.394921 
L 415.738313 283.880121 
L 416.034028 270.944059 
L 416.181885 271.468026 
L 416.625458 269.088143 
L 418.695462 283.143213 
L 419.730464 288.077389 
L 420.765466 291.958021 
L 421.800468 295.010061 
L 422.83547 297.410429 
L 423.870472 299.298272 
L 425.053332 300.967493 
L 426.236191 302.23602 
L 427.419051 303.200039 
L 428.749768 304.010864 
L 429.489055 304.375674 
L 429.636912 304.328086 
L 429.932627 304.12103 
L 430.967629 304.583957 
L 432.741919 305.147205 
L 433.333348 305.342985 
L 433.481206 304.833698 
L 433.776921 302.901937 
L 434.36835 303.196808 
L 434.664065 303.064838 
L 435.55121 303.666027 
L 436.290497 304.096701 
L 436.438355 303.947646 
L 436.734069 303.431168 
L 437.473357 303.892888 
L 438.951931 304.578063 
L 440.72622 305.143021 
L 442.796224 305.566025 
L 444.422656 305.924226 
L 444.570514 303.67157 
L 445.014086 268.746279 
L 445.161943 267.616681 
L 445.753373 253.785379 
L 446.049088 245.363907 
L 446.196946 245.73761 
L 447.08409 255.98057 
L 448.119092 266.714102 
L 449.154094 275.156219 
L 450.189096 281.795777 
L 451.224098 287.017657 
L 452.2591 291.124563 
L 453.294103 294.354789 
L 454.03339 296.066114 
L 454.181247 297.180698 
L 454.329105 291.592112 
L 454.62482 272.897678 
L 454.920534 270.031084 
L 455.659822 274.449202 
L 456.694824 281.241374 
L 457.729826 286.581631 
L 458.764828 290.781636 
L 459.79983 294.084858 
L 460.834832 296.682775 
L 461.869834 298.725986 
L 462.904836 300.332931 
L 464.087696 301.753784 
L 465.270555 302.833563 
L 466.601272 303.741769 
L 468.079846 304.470856 
L 469.854136 305.071998 
L 471.92414 305.522093 
L 474.585574 305.863195 
L 474.881289 305.951296 
L 475.029146 305.647616 
L 475.177003 305.9853 
L 475.324861 287.126018 
L 475.620576 241.317286 
L 475.916291 246.779107 
L 476.655578 256.643561 
L 476.803435 254.071875 
L 477.542722 200.18719 
L 477.69058 198.308418 
L 477.986295 204.945337 
L 478.134152 201.870411 
L 478.429867 190.268475 
L 480.352014 231.512265 
L 480.499871 232.413493 
L 480.647729 230.893296 
L 480.795586 231.23385 
L 481.978446 249.149997 
L 483.013448 261.3424 
L 484.04845 270.931482 
L 485.083452 278.473105 
L 486.118454 284.404442 
L 487.153456 289.069321 
L 488.188458 292.738155 
L 489.22346 295.623621 
L 490.258462 297.892982 
L 491.293464 299.67779 
L 492.476324 301.255908 
L 493.659183 302.455202 
L 494.9899 303.463932 
L 496.468475 304.273716 
L 497.799192 304.971542 
L 497.947049 303.351583 
L 498.242764 298.524135 
L 498.538479 299.167027 
L 499.425623 300.494122 
L 500.608483 301.876284 
L 501.791342 302.926658 
L 503.122059 303.81013 
L 504.600634 304.519362 
L 506.374923 305.104132 
L 508.444927 305.54197 
L 511.106361 305.869117 
L 514.950654 306.095078 
L 521.456382 306.217295 
L 524.561388 306.336351 
L 524.709245 305.288511 
L 525.00496 299.98554 
L 525.300675 298.017179 
L 525.448533 298.031426 
L 526.335677 299.637762 
L 526.483535 299.306491 
L 526.631392 298.314702 
L 526.77925 298.093865 
L 527.370679 299.183813 
L 528.405681 300.693208 
L 529.588541 302.027576 
L 530.7714 303.041632 
L 531.95426 303.812266 
L 532.693547 304.125152 
L 534.319979 304.793787 
L 536.242126 305.31852 
L 538.607845 305.712874 
L 541.712851 305.989707 
L 544.374285 306.115393 
L 544.522142 305.926454 
L 544.67 303.942678 
L 545.409287 283.416937 
L 545.557144 282.361217 
L 545.705002 282.718556 
L 546.000717 284.022427 
L 546.148574 284.040079 
L 546.444289 285.266677 
L 547.479291 289.741034 
L 548.514293 293.266445 
L 549.549295 296.03911 
L 550.584297 298.219756 
L 551.619299 299.934791 
L 552.802159 301.451217 
L 553.985018 302.603627 
L 555.315735 303.572923 
L 556.79431 304.351052 
L 558.420741 304.948667 
L 560.342888 305.417666 
L 562.856465 305.786386 
L 566.257186 306.04049 
L 571.580053 306.190473 
L 583.556506 306.249252 
L 593.167239 306.296335 
L 593.315097 305.800354 
L 593.610812 302.769064 
L 593.906527 302.010884 
L 594.054384 301.949854 
L 594.645814 302.553446 
L 594.793671 302.523959 
L 594.941529 303.225826 
L 595.089386 298.786738 
L 595.385101 282.407596 
L 595.680816 283.698252 
L 596.715818 288.520831 
L 597.75082 292.306779 
L 598.785822 295.284352 
L 599.820824 297.626249 
L 600.412254 298.750867 
L 600.560111 298.461685 
L 600.855826 286.865858 
L 601.595113 261.664825 
L 602.334401 264.653908 
L 603.221545 272.436303 
L 604.256547 279.656632 
L 605.291549 285.335262 
L 606.326551 289.802217 
L 606.770124 291.310752 
L 607.065839 291.967049 
L 607.952983 294.63318 
L 608.987985 297.114023 
L 610.022987 299.065154 
L 611.057989 300.59968 
L 612.240849 301.9565 
L 613.423708 302.987618 
L 614.754425 303.854894 
L 616.233 304.551124 
L 618.007289 305.125174 
L 620.077293 305.554986 
L 622.738727 305.876136 
L 626.58302 306.097954 
L 628.061595 306.145108 
L 628.209452 306.023477 
L 628.35731 304.611282 
L 628.505167 300.211431 
L 628.800882 276.740327 
L 629.392312 231.922283 
L 629.540169 226.75161 
L 629.688027 227.153156 
L 631.166601 249.852757 
L 632.201603 261.896917 
L 632.645175 265.969055 
L 632.94089 266.579743 
L 635.010894 281.221465 
L 635.898039 285.804973 
L 640.333762 286.494644 
L 641.368764 290.713226 
L 642.403766 294.031054 
L 643.438768 296.64046 
L 644.473771 298.692706 
L 645.508773 300.306714 
L 646.24806 301.274963 
L 646.395917 301.126742 
L 646.691632 300.131779 
L 646.83949 300.056084 
L 646.987347 299.777091 
L 647.135204 299.799412 
L 647.874492 300.833835 
L 648.613779 301.611154 
L 649.057351 300.877827 
L 649.796638 301.739808 
L 650.979498 302.822924 
L 652.310215 303.733957 
L 653.788789 304.465313 
L 655.415221 305.027007 
L 657.485225 305.535938 
L 657.633083 305.079659 
L 657.78094 303.161737 
L 658.815942 280.172235 
L 659.111657 278.125862 
L 659.555229 279.170599 
L 660.442374 283.528193 
L 660.590231 283.70651 
L 661.181661 286.448932 
L 662.216663 290.677007 
L 663.251665 294.002569 
L 664.286667 296.618057 
L 665.321669 298.675086 
L 666.356671 300.292899 
L 667.539531 301.723362 
L 668.72239 302.810444 
L 670.053107 303.724792 
L 671.531682 304.45881 
L 673.158114 305.022549 
L 674.636688 305.397462 
L 674.784545 305.228662 
L 674.784545 305.228662 
" clip-path="url(#p36f4934926)" style="fill: none; stroke: #ff7f0e; stroke-width: 1.5; stroke-linecap: square"/>
   </g>
   <g id="patch_3">
    <path d="M 26.925 327.558125 
L 26.925 22.318125 
" style="fill: none; stroke: #000000; stroke-width: 0.8; stroke-linejoin: miter; stroke-linecap: square"/>
   </g>
   <g id="patch_4">
    <path d="M 705.635 327.558125 
L 705.635 22.318125 
" style="fill: none; stroke: #000000; stroke-width: 0.8; stroke-linejoin: miter; stroke-linecap: square"/>
   </g>
   <g id="patch_5">
    <path d="M 26.925 327.558125 
L 705.635 327.558125 
" style="fill: none; stroke: #000000; stroke-width: 0.8; stroke-linejoin: miter; stroke-linecap: square"/>
   </g>
   <g id="patch_6">
    <path d="M 26.925 22.318125 
L 705.635 22.318125 
" style="fill: none; stroke: #000000; stroke-width: 0.8; stroke-linejoin: miter; stroke-linecap: square"/>
   </g>
   <g id="text_14">
    <!-- training -->
    <g transform="translate(343.036563 16.318125) scale(0.12 -0.12)">
     <defs>
      <path id="DejaVuSans-74" d="M 1172 4494 
L 1172 3500 
L 2356 3500 
L 2356 3053 
L 1172 3053 
L 1172 1153 
Q 1172 725 1289 603 
Q 1406 481 1766 481 
L 2356 481 
L 2356 0 
L 1766 0 
Q 1100 0 847 248 
Q 594 497 594 1153 
L 594 3053 
L 172 3053 
L 172 3500 
L 594 3500 
L 594 4494 
L 1172 4494 
z
" transform="scale(0.015625)"/>
      <path id="DejaVuSans-72" d="M 2631 2963 
Q 2534 3019 2420 3045 
Q 2306 3072 2169 3072 
Q 1681 3072 1420 2755 
Q 1159 2438 1159 1844 
L 1159 0 
L 581 0 
L 581 3500 
L 1159 3500 
L 1159 2956 
Q 1341 3275 1631 3429 
Q 1922 3584 2338 3584 
Q 2397 3584 2469 3576 
Q 2541 3569 2628 3553 
L 2631 2963 
z
" transform="scale(0.015625)"/>
      <path id="DejaVuSans-61" d="M 2194 1759 
Q 1497 1759 1228 1600 
Q 959 1441 959 1056 
Q 959 750 1161 570 
Q 1363 391 1709 391 
Q 2188 391 2477 730 
Q 2766 1069 2766 1631 
L 2766 1759 
L 2194 1759 
z
M 3341 1997 
L 3341 0 
L 2766 0 
L 2766 531 
Q 2569 213 2275 61 
Q 1981 -91 1556 -91 
Q 1019 -91 701 211 
Q 384 513 384 1019 
Q 384 1609 779 1909 
Q 1175 2209 1959 2209 
L 2766 2209 
L 2766 2266 
Q 2766 2663 2505 2880 
Q 2244 3097 1772 3097 
Q 1472 3097 1187 3025 
Q 903 2953 641 2809 
L 641 3341 
Q 956 3463 1253 3523 
Q 1550 3584 1831 3584 
Q 2591 3584 2966 3190 
Q 3341 2797 3341 1997 
z
" transform="scale(0.015625)"/>
      <path id="DejaVuSans-69" d="M 603 3500 
L 1178 3500 
L 1178 0 
L 603 0 
L 603 3500 
z
M 603 4863 
L 1178 4863 
L 1178 4134 
L 603 4134 
L 603 4863 
z
" transform="scale(0.015625)"/>
      <path id="DejaVuSans-6e" d="M 3513 2113 
L 3513 0 
L 2938 0 
L 2938 2094 
Q 2938 2591 2744 2837 
Q 2550 3084 2163 3084 
Q 1697 3084 1428 2787 
Q 1159 2491 1159 1978 
L 1159 0 
L 581 0 
L 581 3500 
L 1159 3500 
L 1159 2956 
Q 1366 3272 1645 3428 
Q 1925 3584 2291 3584 
Q 2894 3584 3203 3211 
Q 3513 2838 3513 2113 
z
" transform="scale(0.015625)"/>
      <path id="DejaVuSans-67" d="M 2906 1791 
Q 2906 2416 2648 2759 
Q 2391 3103 1925 3103 
Q 1463 3103 1205 2759 
Q 947 2416 947 1791 
Q 947 1169 1205 825 
Q 1463 481 1925 481 
Q 2391 481 2648 825 
Q 2906 1169 2906 1791 
z
M 3481 434 
Q 3481 -459 3084 -895 
Q 2688 -1331 1869 -1331 
Q 1566 -1331 1297 -1286 
Q 1028 -1241 775 -1147 
L 775 -588 
Q 1028 -725 1275 -790 
Q 1522 -856 1778 -856 
Q 2344 -856 2625 -561 
Q 2906 -266 2906 331 
L 2906 616 
Q 2728 306 2450 153 
Q 2172 0 1784 0 
Q 1141 0 747 490 
Q 353 981 353 1791 
Q 353 2603 747 3093 
Q 1141 3584 1784 3584 
Q 2172 3584 2450 3431 
Q 2728 3278 2906 2969 
L 2906 3500 
L 3481 3500 
L 3481 434 
z
" transform="scale(0.015625)"/>
     </defs>
     <use xlink:href="#DejaVuSans-74"/>
     <use xlink:href="#DejaVuSans-72" x="39.208984"/>
     <use xlink:href="#DejaVuSans-61" x="80.322266"/>
     <use xlink:href="#DejaVuSans-69" x="141.601562"/>
     <use xlink:href="#DejaVuSans-6e" x="169.384766"/>
     <use xlink:href="#DejaVuSans-69" x="232.763672"/>
     <use xlink:href="#DejaVuSans-6e" x="260.546875"/>
     <use xlink:href="#DejaVuSans-67" x="323.925781"/>
    </g>
   </g>
   <g id="legend_1">
    <g id="patch_7">
     <path d="M 617.24125 59.674375 
L 698.635 59.674375 
Q 700.635 59.674375 700.635 57.674375 
L 700.635 29.318125 
Q 700.635 27.318125 698.635 27.318125 
L 617.24125 27.318125 
Q 615.24125 27.318125 615.24125 29.318125 
L 615.24125 57.674375 
Q 615.24125 59.674375 617.24125 59.674375 
z
" style="fill: #ffffff; opacity: 0.8; stroke: #cccccc; stroke-linejoin: miter"/>
    </g>
    <g id="line2d_16">
     <path d="M 619.24125 35.416562 
L 629.24125 35.416562 
L 639.24125 35.416562 
" style="fill: none; stroke: #1f77b4; stroke-width: 1.5; stroke-linecap: square"/>
    </g>
    <g id="text_15">
     <!-- observed -->
     <g transform="translate(647.24125 38.916562) scale(0.1 -0.1)">
      <defs>
       <path id="DejaVuSans-6f" d="M 1959 3097 
Q 1497 3097 1228 2736 
Q 959 2375 959 1747 
Q 959 1119 1226 758 
Q 1494 397 1959 397 
Q 2419 397 2687 759 
Q 2956 1122 2956 1747 
Q 2956 2369 2687 2733 
Q 2419 3097 1959 3097 
z
M 1959 3584 
Q 2709 3584 3137 3096 
Q 3566 2609 3566 1747 
Q 3566 888 3137 398 
Q 2709 -91 1959 -91 
Q 1206 -91 779 398 
Q 353 888 353 1747 
Q 353 2609 779 3096 
Q 1206 3584 1959 3584 
z
" transform="scale(0.015625)"/>
       <path id="DejaVuSans-62" d="M 3116 1747 
Q 3116 2381 2855 2742 
Q 2594 3103 2138 3103 
Q 1681 3103 1420 2742 
Q 1159 2381 1159 1747 
Q 1159 1113 1420 752 
Q 1681 391 2138 391 
Q 2594 391 2855 752 
Q 3116 1113 3116 1747 
z
M 1159 2969 
Q 1341 3281 1617 3432 
Q 1894 3584 2278 3584 
Q 2916 3584 3314 3078 
Q 3713 2572 3713 1747 
Q 3713 922 3314 415 
Q 2916 -91 2278 -91 
Q 1894 -91 1617 61 
Q 1341 213 1159 525 
L 1159 0 
L 581 0 
L 581 4863 
L 1159 4863 
L 1159 2969 
z
" transform="scale(0.015625)"/>
       <path id="DejaVuSans-73" d="M 2834 3397 
L 2834 2853 
Q 2591 2978 2328 3040 
Q 2066 3103 1784 3103 
Q 1356 3103 1142 2972 
Q 928 2841 928 2578 
Q 928 2378 1081 2264 
Q 1234 2150 1697 2047 
L 1894 2003 
Q 2506 1872 2764 1633 
Q 3022 1394 3022 966 
Q 3022 478 2636 193 
Q 2250 -91 1575 -91 
Q 1294 -91 989 -36 
Q 684 19 347 128 
L 347 722 
Q 666 556 975 473 
Q 1284 391 1588 391 
Q 1994 391 2212 530 
Q 2431 669 2431 922 
Q 2431 1156 2273 1281 
Q 2116 1406 1581 1522 
L 1381 1569 
Q 847 1681 609 1914 
Q 372 2147 372 2553 
Q 372 3047 722 3315 
Q 1072 3584 1716 3584 
Q 2034 3584 2315 3537 
Q 2597 3491 2834 3397 
z
" transform="scale(0.015625)"/>
       <path id="DejaVuSans-65" d="M 3597 1894 
L 3597 1613 
L 953 1613 
Q 991 1019 1311 708 
Q 1631 397 2203 397 
Q 2534 397 2845 478 
Q 3156 559 3463 722 
L 3463 178 
Q 3153 47 2828 -22 
Q 2503 -91 2169 -91 
Q 1331 -91 842 396 
Q 353 884 353 1716 
Q 353 2575 817 3079 
Q 1281 3584 2069 3584 
Q 2775 3584 3186 3129 
Q 3597 2675 3597 1894 
z
M 3022 2063 
Q 3016 2534 2758 2815 
Q 2500 3097 2075 3097 
Q 1594 3097 1305 2825 
Q 1016 2553 972 2059 
L 3022 2063 
z
" transform="scale(0.015625)"/>
       <path id="DejaVuSans-76" d="M 191 3500 
L 800 3500 
L 1894 563 
L 2988 3500 
L 3597 3500 
L 2284 0 
L 1503 0 
L 191 3500 
z
" transform="scale(0.015625)"/>
       <path id="DejaVuSans-64" d="M 2906 2969 
L 2906 4863 
L 3481 4863 
L 3481 0 
L 2906 0 
L 2906 525 
Q 2725 213 2448 61 
Q 2172 -91 1784 -91 
Q 1150 -91 751 415 
Q 353 922 353 1747 
Q 353 2572 751 3078 
Q 1150 3584 1784 3584 
Q 2172 3584 2448 3432 
Q 2725 3281 2906 2969 
z
M 947 1747 
Q 947 1113 1208 752 
Q 1469 391 1925 391 
Q 2381 391 2643 752 
Q 2906 1113 2906 1747 
Q 2906 2381 2643 2742 
Q 2381 3103 1925 3103 
Q 1469 3103 1208 2742 
Q 947 2381 947 1747 
z
" transform="scale(0.015625)"/>
      </defs>
      <use xlink:href="#DejaVuSans-6f"/>
      <use xlink:href="#DejaVuSans-62" x="61.181641"/>
      <use xlink:href="#DejaVuSans-73" x="124.658203"/>
      <use xlink:href="#DejaVuSans-65" x="176.757812"/>
      <use xlink:href="#DejaVuSans-72" x="238.28125"/>
      <use xlink:href="#DejaVuSans-76" x="279.394531"/>
      <use xlink:href="#DejaVuSans-65" x="338.574219"/>
      <use xlink:href="#DejaVuSans-64" x="400.097656"/>
     </g>
    </g>
    <g id="line2d_17">
     <path d="M 619.24125 50.094688 
L 629.24125 50.094688 
L 639.24125 50.094688 
" style="fill: none; stroke: #ff7f0e; stroke-width: 1.5; stroke-linecap: square"/>
    </g>
    <g id="text_16">
     <!-- simulated -->
     <g transform="translate(647.24125 53.594688) scale(0.1 -0.1)">
      <defs>
       <path id="DejaVuSans-6d" d="M 3328 2828 
Q 3544 3216 3844 3400 
Q 4144 3584 4550 3584 
Q 5097 3584 5394 3201 
Q 5691 2819 5691 2113 
L 5691 0 
L 5113 0 
L 5113 2094 
Q 5113 2597 4934 2840 
Q 4756 3084 4391 3084 
Q 3944 3084 3684 2787 
Q 3425 2491 3425 1978 
L 3425 0 
L 2847 0 
L 2847 2094 
Q 2847 2600 2669 2842 
Q 2491 3084 2119 3084 
Q 1678 3084 1418 2786 
Q 1159 2488 1159 1978 
L 1159 0 
L 581 0 
L 581 3500 
L 1159 3500 
L 1159 2956 
Q 1356 3278 1631 3431 
Q 1906 3584 2284 3584 
Q 2666 3584 2933 3390 
Q 3200 3197 3328 2828 
z
" transform="scale(0.015625)"/>
       <path id="DejaVuSans-75" d="M 544 1381 
L 544 3500 
L 1119 3500 
L 1119 1403 
Q 1119 906 1312 657 
Q 1506 409 1894 409 
Q 2359 409 2629 706 
Q 2900 1003 2900 1516 
L 2900 3500 
L 3475 3500 
L 3475 0 
L 2900 0 
L 2900 538 
Q 2691 219 2414 64 
Q 2138 -91 1772 -91 
Q 1169 -91 856 284 
Q 544 659 544 1381 
z
M 1991 3584 
L 1991 3584 
z
" transform="scale(0.015625)"/>
       <path id="DejaVuSans-6c" d="M 603 4863 
L 1178 4863 
L 1178 0 
L 603 0 
L 603 4863 
z
" transform="scale(0.015625)"/>
      </defs>
      <use xlink:href="#DejaVuSans-73"/>
      <use xlink:href="#DejaVuSans-69" x="52.099609"/>
      <use xlink:href="#DejaVuSans-6d" x="79.882812"/>
      <use xlink:href="#DejaVuSans-75" x="177.294922"/>
      <use xlink:href="#DejaVuSans-6c" x="240.673828"/>
      <use xlink:href="#DejaVuSans-61" x="268.457031"/>
      <use xlink:href="#DejaVuSans-74" x="329.736328"/>
      <use xlink:href="#DejaVuSans-65" x="368.945312"/>
      <use xlink:href="#DejaVuSans-64" x="430.46875"/>
     </g>
    </g>
   </g>
  </g>
 </g>
 <defs>
  <clipPath id="p36f4934926">
   <rect x="26.925" y="22.318125" width="678.71" height="305.24"/>
  </clipPath>
 </defs>
</svg>
