<?xml version="1.0" encoding="utf-8" standalone="no"?>
<!DOCTYPE svg PUBLIC "-//W3C//DTD SVG 1.1//EN"
  "http://www.w3.org/Graphics/SVG/1.1/DTD/svg11.dtd">
<svg xmlns:xlink="http://www.w3.org/1999/xlink" width="712.96pt" height="351.43625pt" viewBox="0 0 712.96 351.43625" xmlns="http://www.w3.org/2000/svg" version="1.1">
 <metadata>
  <rdf:RDF xmlns:dc="http://purl.org/dc/elements/1.1/" xmlns:cc="http://creativecommons.org/ns#" xmlns:rdf="http://www.w3.org/1999/02/22-rdf-syntax-ns#">
   <cc:Work>
    <dc:type rdf:resource="http://purl.org/dc/dcmitype/StillImage"/>
    <dc:date>2024-05-08T09:19:23.654891</dc:date>
    <dc:format>image/svg+xml</dc:format>
    <dc:creator>
     <cc:Agent>
      <dc:title>Matplotlib v3.8.4, https://matplotlib.org/</dc:title>
     </cc:Agent>
    </dc:creator>
   </cc:Work>
  </rdf:RDF>
 </metadata>
 <defs>
  <style type="text/css">*{stroke-linejoin: round; stroke-linecap: butt}</style>
 </defs>
 <g id="figure_1">
  <g id="patch_1">
   <path d="M 0 351.43625 
L 712.96 351.43625 
L 712.96 0 
L 0 0 
z
" style="fill: #ffffff"/>
  </g>
  <g id="axes_1">
   <g id="patch_2">
    <path d="M 39.65 327.558125 
L 705.76 327.558125 
L 705.76 22.318125 
L 39.65 22.318125 
z
" style="fill: #ffffff"/>
   </g>
   <g id="matplotlib.axis_1">
    <g id="xtick_1">
     <g id="line2d_1">
      <defs>
       <path id="m030e77fdea" d="M 0 0 
L 0 3.5 
" style="stroke: #000000; stroke-width: 0.8"/>
      </defs>
      <g>
       <use xlink:href="#m030e77fdea" x="92.810239" y="327.558125" style="stroke: #000000; stroke-width: 0.8"/>
      </g>
     </g>
     <g id="text_1">
      <!-- 2010 -->
      <g transform="translate(80.085239 342.156563) scale(0.1 -0.1)">
       <defs>
        <path id="DejaVuSans-32" d="M 1228 531 
L 3431 531 
L 3431 0 
L 469 0 
L 469 531 
Q 828 903 1448 1529 
Q 2069 2156 2228 2338 
Q 2531 2678 2651 2914 
Q 2772 3150 2772 3378 
Q 2772 3750 2511 3984 
Q 2250 4219 1831 4219 
Q 1534 4219 1204 4116 
Q 875 4013 500 3803 
L 500 4441 
Q 881 4594 1212 4672 
Q 1544 4750 1819 4750 
Q 2544 4750 2975 4387 
Q 3406 4025 3406 3419 
Q 3406 3131 3298 2873 
Q 3191 2616 2906 2266 
Q 2828 2175 2409 1742 
Q 1991 1309 1228 531 
z
" transform="scale(0.015625)"/>
        <path id="DejaVuSans-30" d="M 2034 4250 
Q 1547 4250 1301 3770 
Q 1056 3291 1056 2328 
Q 1056 1369 1301 889 
Q 1547 409 2034 409 
Q 2525 409 2770 889 
Q 3016 1369 3016 2328 
Q 3016 3291 2770 3770 
Q 2525 4250 2034 4250 
z
M 2034 4750 
Q 2819 4750 3233 4129 
Q 3647 3509 3647 2328 
Q 3647 1150 3233 529 
Q 2819 -91 2034 -91 
Q 1250 -91 836 529 
Q 422 1150 422 2328 
Q 422 3509 836 4129 
Q 1250 4750 2034 4750 
z
" transform="scale(0.015625)"/>
        <path id="DejaVuSans-31" d="M 794 531 
L 1825 531 
L 1825 4091 
L 703 3866 
L 703 4441 
L 1819 4666 
L 2450 4666 
L 2450 531 
L 3481 531 
L 3481 0 
L 794 0 
L 794 531 
z
" transform="scale(0.015625)"/>
       </defs>
       <use xlink:href="#DejaVuSans-32"/>
       <use xlink:href="#DejaVuSans-30" x="63.623047"/>
       <use xlink:href="#DejaVuSans-31" x="127.246094"/>
       <use xlink:href="#DejaVuSans-30" x="190.869141"/>
      </g>
     </g>
    </g>
    <g id="xtick_2">
     <g id="line2d_2">
      <g>
       <use xlink:href="#m030e77fdea" x="161.24684" y="327.558125" style="stroke: #000000; stroke-width: 0.8"/>
      </g>
     </g>
     <g id="text_2">
      <!-- 2011 -->
      <g transform="translate(148.52184 342.156563) scale(0.1 -0.1)">
       <use xlink:href="#DejaVuSans-32"/>
       <use xlink:href="#DejaVuSans-30" x="63.623047"/>
       <use xlink:href="#DejaVuSans-31" x="127.246094"/>
       <use xlink:href="#DejaVuSans-31" x="190.869141"/>
      </g>
     </g>
    </g>
    <g id="xtick_3">
     <g id="line2d_3">
      <g>
       <use xlink:href="#m030e77fdea" x="229.683441" y="327.558125" style="stroke: #000000; stroke-width: 0.8"/>
      </g>
     </g>
     <g id="text_3">
      <!-- 2012 -->
      <g transform="translate(216.958441 342.156563) scale(0.1 -0.1)">
       <use xlink:href="#DejaVuSans-32"/>
       <use xlink:href="#DejaVuSans-30" x="63.623047"/>
       <use xlink:href="#DejaVuSans-31" x="127.246094"/>
       <use xlink:href="#DejaVuSans-32" x="190.869141"/>
      </g>
     </g>
    </g>
    <g id="xtick_4">
     <g id="line2d_4">
      <g>
       <use xlink:href="#m030e77fdea" x="298.30754" y="327.558125" style="stroke: #000000; stroke-width: 0.8"/>
      </g>
     </g>
     <g id="text_4">
      <!-- 2013 -->
      <g transform="translate(285.58254 342.156563) scale(0.1 -0.1)">
       <defs>
        <path id="DejaVuSans-33" d="M 2597 2516 
Q 3050 2419 3304 2112 
Q 3559 1806 3559 1356 
Q 3559 666 3084 287 
Q 2609 -91 1734 -91 
Q 1441 -91 1130 -33 
Q 819 25 488 141 
L 488 750 
Q 750 597 1062 519 
Q 1375 441 1716 441 
Q 2309 441 2620 675 
Q 2931 909 2931 1356 
Q 2931 1769 2642 2001 
Q 2353 2234 1838 2234 
L 1294 2234 
L 1294 2753 
L 1863 2753 
Q 2328 2753 2575 2939 
Q 2822 3125 2822 3475 
Q 2822 3834 2567 4026 
Q 2313 4219 1838 4219 
Q 1578 4219 1281 4162 
Q 984 4106 628 3988 
L 628 4550 
Q 988 4650 1302 4700 
Q 1616 4750 1894 4750 
Q 2613 4750 3031 4423 
Q 3450 4097 3450 3541 
Q 3450 3153 3228 2886 
Q 3006 2619 2597 2516 
z
" transform="scale(0.015625)"/>
       </defs>
       <use xlink:href="#DejaVuSans-32"/>
       <use xlink:href="#DejaVuSans-30" x="63.623047"/>
       <use xlink:href="#DejaVuSans-31" x="127.246094"/>
       <use xlink:href="#DejaVuSans-33" x="190.869141"/>
      </g>
     </g>
    </g>
    <g id="xtick_5">
     <g id="line2d_5">
      <g>
       <use xlink:href="#m030e77fdea" x="366.744141" y="327.558125" style="stroke: #000000; stroke-width: 0.8"/>
      </g>
     </g>
     <g id="text_5">
      <!-- 2014 -->
      <g transform="translate(354.019141 342.156563) scale(0.1 -0.1)">
       <defs>
        <path id="DejaVuSans-34" d="M 2419 4116 
L 825 1625 
L 2419 1625 
L 2419 4116 
z
M 2253 4666 
L 3047 4666 
L 3047 1625 
L 3713 1625 
L 3713 1100 
L 3047 1100 
L 3047 0 
L 2419 0 
L 2419 1100 
L 313 1100 
L 313 1709 
L 2253 4666 
z
" transform="scale(0.015625)"/>
       </defs>
       <use xlink:href="#DejaVuSans-32"/>
       <use xlink:href="#DejaVuSans-30" x="63.623047"/>
       <use xlink:href="#DejaVuSans-31" x="127.246094"/>
       <use xlink:href="#DejaVuSans-34" x="190.869141"/>
      </g>
     </g>
    </g>
    <g id="xtick_6">
     <g id="line2d_6">
      <g>
       <use xlink:href="#m030e77fdea" x="435.180742" y="327.558125" style="stroke: #000000; stroke-width: 0.8"/>
      </g>
     </g>
     <g id="text_6">
      <!-- 2015 -->
      <g transform="translate(422.455742 342.156563) scale(0.1 -0.1)">
       <defs>
        <path id="DejaVuSans-35" d="M 691 4666 
L 3169 4666 
L 3169 4134 
L 1269 4134 
L 1269 2991 
Q 1406 3038 1543 3061 
Q 1681 3084 1819 3084 
Q 2600 3084 3056 2656 
Q 3513 2228 3513 1497 
Q 3513 744 3044 326 
Q 2575 -91 1722 -91 
Q 1428 -91 1123 -41 
Q 819 9 494 109 
L 494 744 
Q 775 591 1075 516 
Q 1375 441 1709 441 
Q 2250 441 2565 725 
Q 2881 1009 2881 1497 
Q 2881 1984 2565 2268 
Q 2250 2553 1709 2553 
Q 1456 2553 1204 2497 
Q 953 2441 691 2322 
L 691 4666 
z
" transform="scale(0.015625)"/>
       </defs>
       <use xlink:href="#DejaVuSans-32"/>
       <use xlink:href="#DejaVuSans-30" x="63.623047"/>
       <use xlink:href="#DejaVuSans-31" x="127.246094"/>
       <use xlink:href="#DejaVuSans-35" x="190.869141"/>
      </g>
     </g>
    </g>
    <g id="xtick_7">
     <g id="line2d_7">
      <g>
       <use xlink:href="#m030e77fdea" x="503.617343" y="327.558125" style="stroke: #000000; stroke-width: 0.8"/>
      </g>
     </g>
     <g id="text_7">
      <!-- 2016 -->
      <g transform="translate(490.892343 342.156563) scale(0.1 -0.1)">
       <defs>
        <path id="DejaVuSans-36" d="M 2113 2584 
Q 1688 2584 1439 2293 
Q 1191 2003 1191 1497 
Q 1191 994 1439 701 
Q 1688 409 2113 409 
Q 2538 409 2786 701 
Q 3034 994 3034 1497 
Q 3034 2003 2786 2293 
Q 2538 2584 2113 2584 
z
M 3366 4563 
L 3366 3988 
Q 3128 4100 2886 4159 
Q 2644 4219 2406 4219 
Q 1781 4219 1451 3797 
Q 1122 3375 1075 2522 
Q 1259 2794 1537 2939 
Q 1816 3084 2150 3084 
Q 2853 3084 3261 2657 
Q 3669 2231 3669 1497 
Q 3669 778 3244 343 
Q 2819 -91 2113 -91 
Q 1303 -91 875 529 
Q 447 1150 447 2328 
Q 447 3434 972 4092 
Q 1497 4750 2381 4750 
Q 2619 4750 2861 4703 
Q 3103 4656 3366 4563 
z
" transform="scale(0.015625)"/>
       </defs>
       <use xlink:href="#DejaVuSans-32"/>
       <use xlink:href="#DejaVuSans-30" x="63.623047"/>
       <use xlink:href="#DejaVuSans-31" x="127.246094"/>
       <use xlink:href="#DejaVuSans-36" x="190.869141"/>
      </g>
     </g>
    </g>
    <g id="xtick_8">
     <g id="line2d_8">
      <g>
       <use xlink:href="#m030e77fdea" x="572.241441" y="327.558125" style="stroke: #000000; stroke-width: 0.8"/>
      </g>
     </g>
     <g id="text_8">
      <!-- 2017 -->
      <g transform="translate(559.516441 342.156563) scale(0.1 -0.1)">
       <defs>
        <path id="DejaVuSans-37" d="M 525 4666 
L 3525 4666 
L 3525 4397 
L 1831 0 
L 1172 0 
L 2766 4134 
L 525 4134 
L 525 4666 
z
" transform="scale(0.015625)"/>
       </defs>
       <use xlink:href="#DejaVuSans-32"/>
       <use xlink:href="#DejaVuSans-30" x="63.623047"/>
       <use xlink:href="#DejaVuSans-31" x="127.246094"/>
       <use xlink:href="#DejaVuSans-37" x="190.869141"/>
      </g>
     </g>
    </g>
    <g id="xtick_9">
     <g id="line2d_9">
      <g>
       <use xlink:href="#m030e77fdea" x="640.678042" y="327.558125" style="stroke: #000000; stroke-width: 0.8"/>
      </g>
     </g>
     <g id="text_9">
      <!-- 2018 -->
      <g transform="translate(627.953042 342.156563) scale(0.1 -0.1)">
       <defs>
        <path id="DejaVuSans-38" d="M 2034 2216 
Q 1584 2216 1326 1975 
Q 1069 1734 1069 1313 
Q 1069 891 1326 650 
Q 1584 409 2034 409 
Q 2484 409 2743 651 
Q 3003 894 3003 1313 
Q 3003 1734 2745 1975 
Q 2488 2216 2034 2216 
z
M 1403 2484 
Q 997 2584 770 2862 
Q 544 3141 544 3541 
Q 544 4100 942 4425 
Q 1341 4750 2034 4750 
Q 2731 4750 3128 4425 
Q 3525 4100 3525 3541 
Q 3525 3141 3298 2862 
Q 3072 2584 2669 2484 
Q 3125 2378 3379 2068 
Q 3634 1759 3634 1313 
Q 3634 634 3220 271 
Q 2806 -91 2034 -91 
Q 1263 -91 848 271 
Q 434 634 434 1313 
Q 434 1759 690 2068 
Q 947 2378 1403 2484 
z
M 1172 3481 
Q 1172 3119 1398 2916 
Q 1625 2713 2034 2713 
Q 2441 2713 2670 2916 
Q 2900 3119 2900 3481 
Q 2900 3844 2670 4047 
Q 2441 4250 2034 4250 
Q 1625 4250 1398 4047 
Q 1172 3844 1172 3481 
z
" transform="scale(0.015625)"/>
       </defs>
       <use xlink:href="#DejaVuSans-32"/>
       <use xlink:href="#DejaVuSans-30" x="63.623047"/>
       <use xlink:href="#DejaVuSans-31" x="127.246094"/>
       <use xlink:href="#DejaVuSans-38" x="190.869141"/>
      </g>
     </g>
    </g>
   </g>
   <g id="matplotlib.axis_2">
    <g id="ytick_1">
     <g id="line2d_10">
      <defs>
       <path id="mbe44d0cf35" d="M 0 0 
L -3.5 0 
" style="stroke: #000000; stroke-width: 0.8"/>
      </defs>
      <g>
       <use xlink:href="#mbe44d0cf35" x="39.65" y="313.647411" style="stroke: #000000; stroke-width: 0.8"/>
      </g>
     </g>
     <g id="text_10">
      <!-- 0 -->
      <g transform="translate(26.2875 317.44663) scale(0.1 -0.1)">
       <use xlink:href="#DejaVuSans-30"/>
      </g>
     </g>
    </g>
    <g id="ytick_2">
     <g id="line2d_11">
      <g>
       <use xlink:href="#mbe44d0cf35" x="39.65" y="270.970766" style="stroke: #000000; stroke-width: 0.8"/>
      </g>
     </g>
     <g id="text_11">
      <!-- 1000 -->
      <g transform="translate(7.2 274.769985) scale(0.1 -0.1)">
       <use xlink:href="#DejaVuSans-31"/>
       <use xlink:href="#DejaVuSans-30" x="63.623047"/>
       <use xlink:href="#DejaVuSans-30" x="127.246094"/>
       <use xlink:href="#DejaVuSans-30" x="190.869141"/>
      </g>
     </g>
    </g>
    <g id="ytick_3">
     <g id="line2d_12">
      <g>
       <use xlink:href="#mbe44d0cf35" x="39.65" y="228.294121" style="stroke: #000000; stroke-width: 0.8"/>
      </g>
     </g>
     <g id="text_12">
      <!-- 2000 -->
      <g transform="translate(7.2 232.093339) scale(0.1 -0.1)">
       <use xlink:href="#DejaVuSans-32"/>
       <use xlink:href="#DejaVuSans-30" x="63.623047"/>
       <use xlink:href="#DejaVuSans-30" x="127.246094"/>
       <use xlink:href="#DejaVuSans-30" x="190.869141"/>
      </g>
     </g>
    </g>
    <g id="ytick_4">
     <g id="line2d_13">
      <g>
       <use xlink:href="#mbe44d0cf35" x="39.65" y="185.617475" style="stroke: #000000; stroke-width: 0.8"/>
      </g>
     </g>
     <g id="text_13">
      <!-- 3000 -->
      <g transform="translate(7.2 189.416694) scale(0.1 -0.1)">
       <use xlink:href="#DejaVuSans-33"/>
       <use xlink:href="#DejaVuSans-30" x="63.623047"/>
       <use xlink:href="#DejaVuSans-30" x="127.246094"/>
       <use xlink:href="#DejaVuSans-30" x="190.869141"/>
      </g>
     </g>
    </g>
    <g id="ytick_5">
     <g id="line2d_14">
      <g>
       <use xlink:href="#mbe44d0cf35" x="39.65" y="142.94083" style="stroke: #000000; stroke-width: 0.8"/>
      </g>
     </g>
     <g id="text_14">
      <!-- 4000 -->
      <g transform="translate(7.2 146.740049) scale(0.1 -0.1)">
       <use xlink:href="#DejaVuSans-34"/>
       <use xlink:href="#DejaVuSans-30" x="63.623047"/>
       <use xlink:href="#DejaVuSans-30" x="127.246094"/>
       <use xlink:href="#DejaVuSans-30" x="190.869141"/>
      </g>
     </g>
    </g>
    <g id="ytick_6">
     <g id="line2d_15">
      <g>
       <use xlink:href="#mbe44d0cf35" x="39.65" y="100.264185" style="stroke: #000000; stroke-width: 0.8"/>
      </g>
     </g>
     <g id="text_15">
      <!-- 5000 -->
      <g transform="translate(7.2 104.063404) scale(0.1 -0.1)">
       <use xlink:href="#DejaVuSans-35"/>
       <use xlink:href="#DejaVuSans-30" x="63.623047"/>
       <use xlink:href="#DejaVuSans-30" x="127.246094"/>
       <use xlink:href="#DejaVuSans-30" x="190.869141"/>
      </g>
     </g>
    </g>
    <g id="ytick_7">
     <g id="line2d_16">
      <g>
       <use xlink:href="#mbe44d0cf35" x="39.65" y="57.58754" style="stroke: #000000; stroke-width: 0.8"/>
      </g>
     </g>
     <g id="text_16">
      <!-- 6000 -->
      <g transform="translate(7.2 61.386758) scale(0.1 -0.1)">
       <use xlink:href="#DejaVuSans-36"/>
       <use xlink:href="#DejaVuSans-30" x="63.623047"/>
       <use xlink:href="#DejaVuSans-30" x="127.246094"/>
       <use xlink:href="#DejaVuSans-30" x="190.869141"/>
      </g>
     </g>
    </g>
   </g>
   <g id="line2d_17">
    <path d="M 69.927727 313.638662 
L 70.224598 313.643997 
L 70.427721 313.636208 
L 70.443345 313.353156 
L 70.537094 313.482573 
L 70.693342 313.58681 
L 70.951151 313.608789 
L 71.708954 313.620738 
L 71.857389 313.625753 
L 72.583942 313.625753 
L 72.997999 313.640796 
L 73.169872 313.648265 
L 79.521351 313.545307 
L 79.685412 312.878165 
L 79.747911 311.646943 
L 79.794785 310.710191 
L 79.849472 311.938211 
L 80.021345 313.378762 
L 80.177593 313.506578 
L 80.513526 313.581796 
L 80.630712 313.572727 
L 80.935395 313.464115 
L 80.990082 313.303757 
L 81.130705 312.273223 
L 81.161955 312.548487 
L 81.357265 313.412049 
L 81.630699 313.549682 
L 81.849446 313.555656 
L 82.052568 313.569099 
L 96.614877 313.461661 
L 96.708625 313.319121 
L 96.739875 313.053139 
L 96.825811 313.168366 
L 97.067996 313.134224 
L 97.153932 312.967786 
L 97.161745 313.016864 
L 99.411715 313.205708 
L 99.75546 313.183303 
L 99.919521 313.231314 
L 100.161705 313.103284 
L 100.739823 313.250518 
L 100.786697 313.273457 
L 100.857008 313.253719 
L 101.044506 313.294262 
L 101.177317 313.44107 
L 101.185129 313.51554 
L 101.255441 313.12889 
L 101.278878 313.097949 
L 101.28669 312.976321 
L 101.521062 313.214243 
L 101.544499 313.381642 
L 101.638248 313.340673 
L 101.661685 313.102217 
L 102.216366 313.395832 
L 104.146028 313.499857 
L 104.18509 313.581796 
L 104.216339 313.42816 
L 104.239777 313.378762 
L 104.278839 313.459207 
L 104.317901 313.436162 
L 104.3804 313.543493 
L 104.411649 313.373 
L 104.481961 313.218511 
L 104.536648 313.331817 
L 104.560085 313.355716 
L 104.583522 313.261721 
L 104.638209 312.111052 
L 104.802269 309.817182 
L 104.888206 308.000224 
L 104.93508 309.205839 
L 104.950705 309.619803 
L 104.989767 307.978886 
L 105.036641 305.300926 
L 105.091328 307.66948 
L 105.255388 311.406887 
L 105.356949 311.696021 
L 105.403824 311.510378 
L 105.474135 310.215142 
L 105.52101 309.566457 
L 105.583509 310.206607 
L 105.817881 311.715226 
L 105.856943 311.576527 
L 105.896005 310.94918 
L 105.981941 307.776172 
L 106.04444 309.280523 
L 106.263187 311.343939 
L 106.536621 311.939278 
L 106.544434 311.926475 
L 106.599121 312.037435 
L 106.927241 312.47487 
L 106.981928 312.496209 
L 107.005365 312.533551 
L 107.02099 312.533551 
L 107.106926 312.598633 
L 107.325674 312.719194 
L 107.552233 312.802414 
L 107.763168 313.010462 
L 107.786605 312.869629 
L 107.880354 312.94218 
L 108.106913 313.048871 
L 108.114726 313.036068 
L 108.560032 313.14276 
L 108.802217 313.208909 
L 108.810029 313.189704 
L 108.849091 313.060607 
L 108.997527 312.598633 
L 109.036589 312.752268 
L 109.356897 313.100083 
L 110.145949 313.204641 
L 110.208448 313.147027 
L 110.270947 313.218511 
L 110.966251 313.109685 
L 111.02875 313.095815 
L 111.059999 313.147027 
L 111.200623 313.205708 
L 111.349058 313.21531 
L 111.669366 313.237715 
L 111.864676 313.172633 
L 112.247484 313.212109 
L 113.880275 313.105418 
L 114.044335 312.698923 
L 114.052148 312.708525 
L 114.192771 312.95925 
L 114.231833 312.937912 
L 114.395893 312.802414 
L 114.403706 312.822685 
L 115.130258 313.15983 
L 115.138071 313.060607 
L 115.239632 313.112886 
L 115.778687 313.281459 
L 116.591177 313.172633 
L 116.645864 313.057406 
L 116.70055 313.151295 
L 116.919297 313.331817 
L 117.075545 313.349741 
L 117.473978 313.172633 
L 117.552102 313.212109 
L 117.559914 313.15983 
L 117.575539 311.122021 
L 117.591164 302.985718 
L 117.684912 311.258586 
L 117.942722 313.010462 
L 118.122407 313.125689 
L 118.302092 313.147027 
L 118.630213 313.091548 
L 118.942708 313.151295 
L 118.997395 312.933644 
L 119.106769 310.758202 
L 119.192705 311.888066 
L 119.434889 312.775741 
L 119.708323 312.912306 
L 119.778635 312.94218 
L 119.79426 312.967786 
L 119.95832 313.026466 
L 120.637999 313.185436 
L 121.184866 313.294262 
L 121.29424 313.307065 
L 121.302052 313.255319 
L 121.317677 312.00436 
L 121.356739 237.733128 
L 121.434863 305.00219 
L 121.583299 310.321834 
L 121.755171 311.358876 
L 122.255165 312.577294 
L 122.364538 312.690387 
L 122.411413 312.647711 
L 122.505162 312.533551 
L 122.591098 310.414655 
L 122.66141 311.849657 
L 122.817658 312.548487 
L 123.044217 312.724529 
L 123.18484 312.835488 
L 123.247339 312.839756 
L 123.262964 312.771473 
L 123.317651 311.980888 
L 123.341088 311.696021 
L 123.403587 312.410855 
L 123.434837 312.501543 
L 123.57546 312.741599 
L 123.583272 312.704257 
L 123.598897 309.379747 
L 123.637959 203.591811 
L 123.708271 297.160356 
L 123.848894 308.55502 
L 124.091078 310.964117 
L 124.348887 311.875263 
L 124.372325 311.836854 
L 124.387949 311.143359 
L 124.411387 309.701955 
L 124.489511 311.73443 
L 124.677008 312.330837 
L 124.802006 312.469536 
L 124.817631 312.324435 
L 124.848881 311.792044 
L 124.958254 287.024653 
L 124.997316 177.879133 
L 125.067628 284.00528 
L 125.216064 299.891661 
L 125.317625 302.004155 
L 125.325437 301.833449 
L 125.356687 277.881182 
L 125.434811 300.649172 
L 125.598871 307.189368 
L 125.973866 310.446663 
L 126.122302 310.993991 
L 126.348861 311.766438 
L 126.747293 312.458867 
L 127.380098 312.937912 
L 127.395722 312.789611 
L 127.450409 309.745699 
L 127.536346 311.728029 
L 127.692593 312.458867 
L 127.966027 312.780008 
L 128.247274 312.890968 
L 128.52852 313.036068 
L 128.669143 313.088347 
L 128.69258 311.599999 
L 128.731642 260.778516 
L 128.801954 305.610332 
L 128.950389 310.663247 
L 129.169137 311.557322 
L 129.364447 312.106784 
L 129.380071 311.920074 
L 129.403509 304.415386 
L 129.497257 310.796611 
L 129.661318 312.136658 
L 129.966001 312.582629 
L 129.973814 312.546354 
L 130.012875 309.334936 
L 130.0285 307.317398 
L 130.106624 311.669349 
L 130.25506 312.562357 
L 130.356621 312.698923 
L 130.372246 310.23648 
L 130.395683 293.948939 
L 130.481619 310.121253 
L 130.630055 311.981955 
L 130.669117 311.875263 
L 131.442544 313.006194 
L 131.794102 313.112886 
L 131.942538 313.175834 
L 132.192534 313.240916 
L 132.919087 313.343767 
L 133.051898 313.355716 
L 134.637815 313.466569 
L 134.801875 313.473931 
L 136.973722 313.367239 
L 137.06747 313.155563 
L 137.09872 313.247318 
L 137.270593 313.456753 
L 137.45809 313.483746 
L 137.903397 313.504338 
L 138.231518 313.522262 
L 138.372141 313.528983 
L 138.567451 313.460274 
L 138.590888 312.21881 
L 138.645575 304.522077 
L 138.700261 311.398352 
L 138.840885 313.262254 
L 139.02057 313.412049 
L 142.520524 313.522262 
L 142.653334 313.493135 
L 151.53603 313.524502 
L 152.106335 312.937912 
L 152.168834 313.032867 
L 152.442268 313.449178 
L 162.97338 313.469023 
L 169.285797 313.240916 
L 169.309234 312.504744 
L 169.340484 311.257519 
L 169.348296 311.300196 
L 169.81704 313.092615 
L 169.871727 312.989124 
L 169.887352 312.967786 
L 169.942038 313.079812 
L 169.949851 313.083012 
L 170.020162 313.133158 
L 170.059224 313.057406 
L 170.090474 312.967786 
L 170.17641 313.006194 
L 170.723278 313.185436 
L 170.848277 313.182236 
L 173.863862 313.27079 
L 174.113859 313.361371 
L 174.129483 313.417597 
L 174.160733 313.208909 
L 174.21542 313.319441 
L 174.340418 313.273457 
L 174.535728 313.273457 
L 174.723226 313.319441 
L 174.871661 313.328723 
L 175.207594 313.343767 
L 175.418529 313.319441 
L 179.066919 313.423145 
L 179.230979 313.433388 
L 179.488788 313.406715 
L 179.676286 313.412049 
L 180.86377 313.310052 
L 181.004393 312.598633 
L 181.066892 312.83122 
L 181.238765 313.253719 
L 181.527824 313.346754 
L 181.988755 312.937912 
L 181.996568 312.946447 
L 182.387188 313.048871 
L 182.410625 313.033934 
L 182.465311 313.125689 
L 182.777807 313.172633 
L 182.957493 312.83122 
L 183.027804 312.916574 
L 183.3403 313.095815 
L 183.887168 313.273457 
L 184.113727 313.307065 
L 184.2856 313.343767 
L 184.434036 313.364358 
L 186.004327 313.292128 
L 186.066827 311.015329 
L 186.129326 312.933644 
L 186.269949 313.21531 
L 186.277761 313.212109 
L 186.637132 313.364358 
L 187.183999 313.456753 
L 187.332435 313.150228 
L 187.355872 301.918802 
L 187.410559 273.997607 
L 187.465246 298.109911 
L 187.519933 303.199101 
L 187.551182 294.738456 
L 187.574619 280.975238 
L 187.652743 300.702518 
L 187.863678 306.645241 
L 188.176174 309.976153 
L 188.183986 309.967617 
L 188.223048 307.498773 
L 188.246486 297.427085 
L 188.332422 307.562788 
L 188.527732 309.843855 
L 188.840228 311.221244 
L 189.40272 312.235881 
L 189.418345 312.106784 
L 189.473032 311.113485 
L 189.543344 311.824051 
L 189.738653 312.378848 
L 189.957401 312.587963 
L 190.066774 312.647711 
L 190.254272 312.797079 
L 190.34802 312.869629 
L 190.558955 312.937912 
L 190.746453 313.048871 
L 191.316758 313.244117 
L 191.457381 313.27079 
L 192.785488 313.381642 
L 192.808926 313.387404 
L 192.816738 313.303757 
L 192.894862 312.089714 
L 192.957361 312.929377 
L 193.113609 313.228113 
L 193.449542 313.250518 
L 193.60579 313.262254 
L 193.8011 313.355716 
L 194.129221 313.340886 
L 194.19172 309.887599 
L 194.269844 312.501543 
L 194.410467 313.083012 
L 194.418279 313.079812 
L 194.433904 313.095815 
L 194.441717 313.022198 
L 194.465154 309.357341 
L 194.488591 296.904296 
L 194.574527 306.933308 
L 194.754213 312.308431 
L 195.035459 312.771473 
L 195.043271 312.757603 
L 195.121395 312.826953 
L 195.129208 312.822685 
L 195.387017 313.040336 
L 195.629201 313.139559 
L 195.637013 313.110752 
L 195.699513 312.512212 
L 195.785449 312.742666 
L 195.965134 313.040336 
L 196.105757 313.091548 
L 196.121382 308.45473 
L 196.144819 246.588532 
L 196.230756 308.576359 
L 196.371379 312.230546 
L 196.387004 312.177201 
L 196.410441 312.082245 
L 196.457315 310.841422 
L 196.480752 308.160261 
L 196.558876 311.441029 
L 196.722937 312.421524 
L 196.972933 312.784276 
L 197.074495 312.852559 
L 197.230743 312.963518 
L 197.261992 313.000504 
L 197.324491 313.018997 
L 197.566676 312.878165 
L 197.597925 312.124922 
L 197.676049 312.83122 
L 197.84011 313.076611 
L 198.183855 313.21531 
L 198.543225 313.325629 
L 198.801034 313.393058 
L 200.066643 313.502097 
L 200.371326 313.476384 
L 200.496325 313.504338 
L 200.691635 313.497616 
L 200.847883 313.483746 
L 201.097879 313.511059 
L 201.363501 313.545627 
L 201.644747 313.569099 
L 202.050992 313.493135 
L 202.160365 313.446617 
L 202.199427 313.139559 
L 202.277551 313.398606 
L 202.558798 313.549682 
L 202.56661 313.539226 
L 202.76192 313.561418 
L 203.011917 313.561418 
L 203.097853 313.542747 
L 203.207227 312.005427 
L 203.246289 312.612502 
L 203.28535 312.533551 
L 203.465036 313.423145 
L 203.660346 313.504338 
L 203.761907 313.404048 
L 203.785344 300.371774 
L 203.879093 312.490874 
L 204.035341 313.221712 
L 204.410336 313.337685 
L 204.425961 313.269189 
L 204.504084 312.903771 
L 204.558771 313.175834 
L 204.707207 313.343767 
L 204.965016 313.409382 
L 205.160326 313.451739 
L 205.293137 313.459207 
L 205.550946 313.493135 
L 205.76188 313.531011 
L 205.98844 313.526743 
L 206.222812 313.528983 
L 206.496246 313.54136 
L 206.519683 312.231613 
L 206.535308 290.502799 
L 206.558745 243.81455 
L 206.636869 306.453196 
L 206.785305 311.200972 
L 207.019676 312.206007 
L 207.183737 312.485539 
L 207.230611 312.442863 
L 207.29311 312.241216 
L 207.347797 312.405521 
L 207.918102 313.006194 
L 208.160286 313.109685 
L 208.371221 313.186503 
L 208.543094 313.208909 
L 208.800903 313.278792 
L 209.504019 313.384523 
L 209.629017 313.414823 
L 209.63683 313.40138 
L 210.19151 313.291061 
L 210.300883 313.291061 
L 210.308696 313.300663 
L 210.58213 313.384523 
L 210.722753 313.287007 
L 210.738378 312.646644 
L 210.839939 312.719194 
L 211.152435 312.757603 
L 211.324307 312.741599 
L 211.832113 312.698923 
L 211.871175 312.159063 
L 211.972736 312.21881 
L 212.152422 312.235881 
L 212.293045 312.212409 
L 212.425855 312.225212 
L 213.535216 312.278558 
L 213.793025 313.543493 
L 213.800837 313.537092 
L 213.996147 313.535065 
L 214.097708 313.506578 
L 214.113333 313.517781 
L 214.214894 313.375881 
L 214.277394 313.381642 
L 214.308643 313.422932 
L 214.582077 313.478838 
L 214.871136 313.502097 
L 218.597649 313.398606 
L 218.667961 313.367239 
L 218.722648 313.406715 
L 219.003894 313.469023 
L 219.199204 313.471477 
L 219.542949 313.478838 
L 219.644511 313.257987 
L 219.683573 313.307065 
L 219.738259 313.214243 
L 219.746072 313.108618 
L 219.832008 313.403941 
L 219.878883 313.378762 
L 219.957006 313.433388 
L 235.347429 313.423145 
L 239.402064 313.117154 
L 239.417688 313.005128 
L 239.51925 313.07341 
L 239.667685 313.185436 
L 239.675497 313.181169 
L 239.800496 313.185436 
L 239.964556 313.281459 
L 240.20674 313.420371 
L 240.362988 313.186503 
L 240.417675 313.313253 
L 240.605173 313.438722 
L 240.753608 313.346754 
L 241.105166 313.322535 
L 241.277039 313.367239 
L 241.722346 313.367239 
L 241.745783 313.319441 
L 241.816094 313.412049 
L 241.823907 313.412049 
L 242.12859 313.409382 
L 242.316088 313.412049 
L 242.737957 313.449178 
L 242.894205 313.449178 
L 243.362949 313.409382 
L 243.706695 313.417597 
L 243.847318 313.430827 
L 244.191063 313.428267 
L 244.401998 313.444057 
L 244.566058 313.423145 
L 244.714494 313.390284 
L 247.730079 313.497616 
L 247.886327 313.508819 
L 248.066012 313.526743 
L 248.206635 313.506578 
L 248.339446 313.508819 
L 248.480069 313.522262 
L 248.651942 313.528983 
L 249.339433 313.446511 
L 249.425369 306.453196 
L 249.440994 301.139953 
L 249.519118 310.501075 
L 249.667554 312.908038 
L 249.870676 313.234515 
L 249.878488 313.231314 
L 250.558167 313.337792 
L 250.69879 313.352729 
L 251.737839 313.459207 
L 251.87065 313.433494 
L 252.800325 313.384523 
L 252.839387 312.24655 
L 252.878449 279.268173 
L 252.948761 309.99109 
L 253.097196 312.767205 
L 253.253444 313.029667 
L 253.347193 313.140626 
L 253.487816 313.103284 
L 253.519066 312.946447 
L 253.59719 313.106485 
L 253.605002 313.095815 
L 253.683126 313.169433 
L 254.042496 313.325522 
L 254.190932 313.34366 
L 254.378429 313.381642 
L 255.011234 313.483746 
L 255.472165 313.511059 
L 255.604976 313.522262 
L 255.839348 313.535065 
L 256.058095 313.504338 
L 256.339341 313.537092 
L 257.54245 313.430934 
L 257.558075 313.417597 
L 257.628387 313.495376 
L 257.948695 313.553736 
L 260.80022 313.587237 
L 260.948656 309.362676 
L 260.96428 296.488199 
L 261.050217 311.98729 
L 261.198652 313.010462 
L 261.636146 313.331817 
L 262.143952 313.436055 
L 262.339262 313.478838 
L 262.393949 313.446617 
L 262.409574 313.417704 
L 262.479885 313.221712 
L 262.534572 313.247318 
L 262.706445 313.473931 
L 264.034552 313.581796 
L 264.245487 313.595986 
L 264.425172 313.607722 
L 265.042352 313.621378 
L 265.612657 313.619885 
L 265.839216 313.624366 
L 266.354835 313.610709 
L 266.636081 313.619885 
L 267.237635 313.622872 
L 277.706248 313.576034 
L 277.71406 313.478625 
L 277.815621 313.545627 
L 278.112493 313.641223 
L 279.948406 313.561738 
L 280.065592 313.307065 
L 280.089029 313.22918 
L 280.214027 311.894468 
L 280.253089 311.900869 
L 280.268714 311.81765 
L 280.393713 311.496508 
L 280.526523 311.563724 
L 280.61246 311.538118 
L 280.628085 311.583995 
L 280.815582 313.610923 
L 283.370236 313.608895 
L 283.378048 313.445551 
L 283.47961 313.590865 
L 285.604582 313.594172 
L 285.612394 313.423252 
L 285.713955 313.563338 
L 286.034264 313.597693 
L 295.198206 313.49975 
L 295.24508 313.456753 
L 295.307579 313.493135 
L 295.573201 313.58361 
L 295.909134 313.590865 
L 305.244949 313.537092 
L 305.393384 313.535065 
L 319.19789 313.434028 
L 319.354138 313.169433 
L 319.533823 313.417597 
L 319.955693 313.58361 
L 321.010367 313.473931 
L 321.158802 313.378762 
L 321.190052 313.423145 
L 322.041603 313.590865 
L 322.252538 313.578168 
L 325.736867 313.581796 
L 325.752492 310.884098 
L 325.791554 288.998448 
L 325.869678 305.7597 
L 326.010301 312.946447 
L 326.197798 313.325629 
L 326.229048 313.337792 
L 326.244673 309.926008 
L 326.291547 148.538939 
L 326.361859 294.813141 
L 326.502482 309.503509 
L 326.713417 311.843256 
L 327.119661 312.818417 
L 327.221222 312.925109 
L 327.43997 313.083012 
L 327.57278 313.136358 
L 327.713404 313.202507 
L 328.111836 313.294262 
L 328.205585 312.835488 
L 328.229022 312.963518 
L 328.377457 313.253719 
L 328.721203 313.361478 
L 328.971199 313.412049 
L 329.838376 313.522262 
L 330.096185 313.545627 
L 330.432118 313.561418 
L 330.643053 313.58361 
L 338.244515 313.604521 
L 338.314827 313.036068 
L 338.369514 313.212109 
L 338.572636 313.58361 
L 350.080297 313.479158 
L 350.213108 311.583995 
L 350.166234 313.511059 
L 350.236545 312.257219 
L 350.384981 313.488441 
L 350.556853 313.610923 
L 356.173967 313.535065 
L 356.283341 313.28786 
L 356.298966 313.334805 
L 356.478651 313.481292 
L 357.29114 313.621378 
L 386.0017 313.553416 
L 386.111074 313.355716 
L 386.126699 313.381642 
L 386.298571 313.561418 
L 387.087624 313.643784 
L 387.75949 313.645064 
L 390.62664 313.570913 
L 390.696951 313.231314 
L 390.75945 313.449178 
L 390.946948 313.631621 
L 391.196945 313.638342 
L 391.267256 313.464008 
L 391.353193 269.207153 
L 391.407879 302.345569 
L 391.548502 312.899503 
L 391.743812 313.40138 
L 392.134432 313.535065 
L 392.728174 313.576354 
L 395.329703 313.494522 
L 395.345328 313.291061 
L 395.431264 313.533038 
L 395.610949 313.616897 
L 395.626574 313.621378 
L 395.673448 311.636274 
L 395.704698 293.55418 
L 395.782822 311.127355 
L 395.93907 313.28466 
L 396.251566 313.502097 
L 396.540624 313.528983 
L 396.735934 313.545627 
L 397.064055 313.569099 
L 397.704672 313.604521 
L 397.923419 313.587237 
L 398.032792 313.547654 
L 398.064042 313.07341 
L 398.165603 313.433388 
L 398.376538 313.578168 
L 398.837469 313.607722 
L 398.884344 311.670415 
L 398.923406 309.897201 
L 398.985905 312.458867 
L 399.13434 313.414823 
L 399.806206 313.555656 
L 399.939017 312.908038 
L 400.001516 313.300557 
L 400.189014 313.486093 
L 400.204639 313.473931 
L 400.259326 313.432534 
L 400.290575 312.362844 
L 400.376512 313.180102 
L 400.556197 313.502097 
L 400.751507 313.565259 
L 400.954629 313.585423 
L 401.2515 313.601107 
L 401.509309 313.607722 
L 401.993678 313.612416 
L 402.095239 313.58361 
L 402.110864 313.609322 
L 402.78273 313.634395 
L 411.235744 313.603027 
L 411.306055 310.67925 
L 411.376367 312.816283 
L 411.485741 313.488441 
L 411.51699 313.44395 
L 411.595114 313.483746 
L 411.602927 313.476384 
L 411.626364 312.930443 
L 411.665426 289.47856 
L 411.681051 280.527134 
L 411.751362 310.738998 
L 411.891985 313.273457 
L 412.10292 313.483746 
L 412.290418 313.537092 
L 412.352917 313.005128 
L 412.399791 311.98729 
L 412.46229 312.963518 
L 412.634163 313.478838 
L 412.993533 313.576354 
L 414.001333 313.547121 
L 414.016957 310.625905 
L 414.048207 242.53425 
L 414.126331 309.629405 
L 414.266954 312.283892 
L 414.274766 312.273223 
L 414.41539 312.357509 
L 414.423202 312.352175 
L 414.477889 311.906204 
L 414.509138 310.175666 
L 414.516951 309.658212 
L 414.595075 311.61707 
L 414.790385 312.485539 
L 414.868509 312.593298 
L 415.13413 312.895235 
L 415.290378 313.029667 
L 415.938807 313.294262 
L 415.962244 313.202507 
L 415.970057 313.185436 
L 416.001306 313.240916 
L 416.055993 313.262254 
L 416.298177 313.367239 
L 417.235665 313.466569 
L 417.360663 313.466569 
L 417.899719 313.425386 
L 417.946593 311.852858 
L 417.97003 308.63824 
L 418.016905 147.25864 
L 418.079404 292.764662 
L 418.220027 309.453364 
L 418.891893 312.357509 
L 419.454386 312.937912 
L 419.641883 313.044603 
L 419.899693 313.193972 
L 419.915317 313.179035 
L 420.173126 313.266522 
L 420.337187 313.179035 
L 421.110614 313.387404 
L 421.2278 313.423145 
L 422.141851 313.313253 
L 422.282474 313.331817 
L 422.540283 313.390284 
L 422.774655 313.420371 
L 423.009027 313.390178 
L 423.063713 313.393058 
L 423.102775 313.456753 
L 423.290273 313.483746 
L 425.094937 313.594279 
L 425.20431 313.522262 
L 425.446495 313.563338 
L 425.641805 313.570913 
L 425.657429 313.549468 
L 431.91516 313.508819 
L 432.352654 313.328723 
L 432.376091 313.37012 
L 432.563589 313.488441 
L 432.993271 313.502097 
L 433.555763 313.454299 
L 452.539889 313.349741 
L 452.618013 313.349741 
L 452.578951 313.382176 
L 452.64145 313.384736 
L 452.891447 313.476064 
L 453.157068 313.492281 
L 453.633624 313.478091 
L 453.758623 313.424639 
L 453.789872 313.34142 
L 453.860184 313.456753 
L 455.414851 313.35785 
L 455.547662 313.191838 
L 455.555474 313.195039 
L 456.516399 313.476064 
L 456.860145 313.412476 
L 458.813244 313.362971 
L 458.828869 312.536751 
L 458.867931 218.528637 
L 458.891368 36.19267 
L 458.969492 254.483711 
L 459.016366 284.90149 
L 461.219462 311.603555 
L 461.227275 311.592531 
L 461.344461 311.68962 
L 461.352273 311.677884 
L 461.414772 311.694955 
L 461.430397 311.742966 
L 461.617895 311.964884 
L 461.99289 312.319101 
L 462.024139 312.276424 
L 462.078826 312.172933 
L 462.15695 311.604267 
L 462.180387 311.254318 
L 462.258511 311.732297 
L 462.492883 312.244416 
L 462.828816 312.55809 
L 462.836629 312.541019 
L 462.930377 312.541019 
L 462.946002 312.55809 
L 463.071 312.579428 
L 463.930364 312.990191 
L 463.945989 312.934711 
L 464.133486 310.764604 
L 464.156924 282.394237 
L 464.24286 308.085577 
L 464.250672 308.544351 
L 464.266297 305.909068 
L 464.305359 269.63392 
L 464.375671 302.217539 
L 464.508482 310.090313 
L 464.516294 310.023097 
L 464.539731 309.205839 
L 464.570981 302.573177 
L 464.578793 300.478465 
L 464.656917 308.661712 
L 464.820977 310.923574 
L 465.031912 311.833654 
L 465.250659 312.340439 
L 465.320971 312.448197 
L 465.38347 312.539952 
L 465.399095 310.188469 
L 465.453782 157.607726 
L 465.555343 261.311974 
L 465.688154 297.843182 
L 465.961587 303.72189 
L 466.063149 305.738362 
L 466.117835 306.77327 
L 466.125648 306.591895 
L 466.141273 237.455729 
L 466.16471 89.360658 
L 466.250646 181.186573 
L 466.258459 180.119657 
L 466.274083 189.295135 
L 466.438144 291.434573 
L 466.703765 299.987684 
L 466.758452 300.979916 
L 466.797514 299.518241 
L 466.828764 286.501864 
L 466.899075 297.501769 
L 468.149059 311.273523 
L 468.156871 311.267121 
L 468.453742 311.710958 
L 468.469367 311.700289 
L 468.531866 311.780308 
L 469.531853 312.394496 
L 469.625602 312.340439 
L 469.656851 312.410855 
L 469.836537 312.596499 
L 470.10997 312.669049 
L 470.30528 312.728796 
L 470.422466 312.775741 
L 470.609964 312.873897 
L 471.094333 312.953916 
L 471.297455 312.990191 
L 471.844323 313.097949 
L 472.016195 312.920841 
L 472.047445 312.784276 
L 472.141194 312.883499 
L 472.359941 313.078745 
L 472.836497 313.155563 
L 473.406802 313.266522 
L 473.648987 313.3156 
L 473.742735 310.583228 
L 473.750548 310.00816 
L 473.820859 312.36071 
L 473.977107 313.069143 
L 474.18023 313.14276 
L 474.469288 313.240916 
L 475.28959 313.349741 
L 475.586461 313.384736 
L 475.594273 313.35785 
L 475.711459 312.809882 
L 475.773959 313.164098 
L 475.930207 313.355289 
L 475.945831 313.349741 
L 476.094267 313.379508 
L 476.273952 313.384736 
L 476.516136 313.349741 
L 477.34425 313.458994 
L 477.60206 313.476064 
L 478.070803 313.368626 
L 478.141115 313.104351 
L 478.328613 311.490107 
L 478.35205 311.99049 
L 478.500485 313.198239 
L 478.687983 313.349741 
L 479.328599 313.454513 
L 479.477035 313.476064 
L 480.055152 313.366172 
L 480.125464 313.279325 
L 480.187963 313.368839 
L 480.812955 313.467529 
L 481.016077 313.482146 
L 481.1567 313.4862 
L 481.359823 313.506151 
L 481.852004 313.537092 
L 481.891066 313.484173 
L 481.961377 313.508072 
L 482.078563 313.476064 
L 482.094188 312.796012 
L 482.141062 295.730688 
L 482.156687 292.551278 
L 482.195749 305.951745 
L 482.32856 312.864295 
L 482.508245 313.134224 
L 482.71918 313.133158 
L 483.016051 313.303651 
L 484.039475 313.50039 
L 484.187911 313.484173 
L 495.273702 313.392418 
L 495.398701 312.990191 
L 495.500262 313.10115 
L 495.773696 313.34142 
L 495.969006 313.389858 
L 500.078327 313.282419 
L 500.1877 312.58583 
L 500.242387 309.012727 
L 500.320511 279.460218 
L 500.343948 273.553059 
L 500.406448 289.019786 
L 500.570508 308.352306 
L 500.77363 309.993223 
L 501.203312 311.508244 
L 501.437684 311.812315 
L 501.445496 311.806981 
L 501.617369 311.913672 
L 501.797054 312.097182 
L 501.922053 312.20174 
L 501.984552 312.207074 
L 502.007989 312.138792 
L 502.062676 311.780308 
L 502.1408 303.871259 
L 502.211111 309.035133 
L 502.367359 311.308731 
L 502.453296 311.495441 
L 502.66423 311.721627 
L 502.851728 312.109985 
L 502.875165 311.928609 
L 502.906415 311.710958 
L 512.265667 312.876031 
L 512.390665 312.053438 
L 512.476601 307.498773 
L 512.539101 309.985755 
L 512.617225 311.463434 
L 512.679724 311.26072 
L 512.695349 311.247917 
L 512.726598 311.380214 
L 512.773473 311.588263 
L 512.835972 311.411155 
L 512.875034 311.14976 
L 512.945345 311.421824 
L 513.132843 311.956349 
L 513.562525 312.265755 
L 513.695335 312.297762 
L 513.843771 312.383115 
L 514.125017 312.486606 
L 514.29689 312.587963 
L 514.4922 312.639175 
L 514.65626 312.549554 
L 514.664073 312.525015 
L 514.726572 312.691454 
L 514.875007 312.771473 
L 514.88282 312.767205 
L 515.031255 312.75867 
L 515.335939 312.805614 
L 515.515624 312.848291 
L 515.687497 312.873897 
L 516.74217 312.980589 
L 516.960918 313.018997 
L 517.335913 312.912306 
L 517.476536 312.920841 
L 517.55466 312.848291 
L 517.695283 312.669049 
L 517.74997 312.728796 
L 517.898405 312.880298 
L 518.039028 312.908038 
L 518.187464 312.950715 
L 519.390573 313.048871 
L 519.531196 313.091548 
L 519.742131 312.990191 
L 519.874942 312.933644 
L 520.117126 313.039269 
L 520.273374 313.057406 
L 521.617106 313.15983 
L 521.718668 313.14276 
L 521.72648 313.129957 
L 521.843666 313.078745 
L 521.867103 313.123555 
L 521.953039 313.152362 
L 521.968664 313.126756 
L 521.992101 312.937912 
L 522.070225 313.182236 
L 522.148349 313.198239 
L 522.171787 313.152362 
L 522.195224 313.129957 
L 522.257723 313.21531 
L 522.265535 313.21531 
L 522.406159 313.237715 
L 522.413971 313.228113 
L 523.968638 313.117154 
L 524.070199 312.537818 
L 524.109261 312.091847 
L 524.179573 312.592231 
L 524.296759 312.8867 
L 524.320196 312.818417 
L 524.351445 312.379915 
L 524.390507 307.79751 
L 524.421757 299.347534 
L 524.492069 308.960449 
L 524.640504 311.130556 
L 524.796752 311.599999 
L 524.953 311.865661 
L 525.14831 312.086513 
L 525.492055 312.383115 
L 525.585804 312.228413 
L 525.648303 310.950247 
L 525.70299 294.215668 
L 525.781114 307.605465 
L 525.952987 309.557922 
L 526.171734 310.445596 
L 526.187359 310.425324 
L 526.210796 309.794777 
L 526.25767 296.317492 
L 526.273295 291.38834 
L 526.343607 303.817913 
L 526.492042 307.328067 
L 526.788913 309.387215 
L 526.87485 309.720093 
L 527.195158 310.740065 
L 527.249845 310.826485 
L 527.42953 311.175366 
L 527.702964 311.558389 
L 527.835775 311.68962 
L 527.843587 311.592531 
L 527.898274 310.167131 
L 528.054522 268.673695 
L 528.077959 282.148846 
L 528.21077 307.861525 
L 528.242019 307.786841 
L 528.296706 291.281648 
L 528.327956 277.198355 
L 528.390455 298.782069 
L 528.546703 305.236911 
L 528.812324 308.448329 
L 529.202944 310.362376 
L 529.234194 310.417856 
L 529.32013 310.383715 
L 529.374817 310.405053 
L 529.335755 310.411454 
L 529.382629 310.454131 
L 529.492003 310.752868 
L 529.507628 310.632306 
L 529.523253 310.431726 
L 529.601377 310.94918 
L 529.71075 311.175366 
L 529.960747 311.501843 
L 530.085745 311.605334 
L 530.257618 311.764304 
L 530.421678 311.870996 
L 530.640425 311.956349 
L 530.671675 309.045802 
L 530.726362 295.752027 
L 530.788861 307.392082 
L 530.945109 310.825418 
L 531.132606 311.296995 
L 531.140419 311.284192 
L 531.202918 306.01576 
L 531.24198 296.360169 
L 531.304479 305.866392 
L 531.374791 308.907103 
L 531.382603 305.663678 
L 531.43729 218.955404 
L 531.499789 293.490165 
L 531.648225 304.703453 
L 531.960721 308.576359 
L 532.468526 310.740065 
L 532.788835 311.416489 
L 532.906021 311.621337 
L 533.116955 311.892334 
L 533.241954 311.994758 
L 533.49195 312.255086 
L 533.663823 312.361777 
L 534.43725 312.75867 
L 534.937244 312.869629 
L 535.280989 312.933644 
L 535.359113 312.884566 
L 535.44505 311.332203 
L 535.452862 311.213775 
L 535.499737 312.04597 
L 535.648172 312.651978 
L 535.851294 312.762938 
L 536.093479 312.865362 
L 536.523161 312.980589 
L 536.601285 312.963518 
L 536.640347 312.993392 
L 537.382524 313.104351 
L 537.49971 313.091548 
L 538.140327 312.980589 
L 538.320012 313.006194 
L 538.913754 313.088347 
L 538.960629 301.652073 
L 538.984066 288.262276 
L 539.06219 310.081777 
L 539.210625 312.400186 
L 539.374686 312.629573 
L 539.530934 312.733064 
L 539.835617 312.963518 
L 539.851242 312.926176 
L 539.890304 312.707458 
L 539.960615 312.883499 
L 540.210612 313.065942 
L 541.077788 313.172633 
L 541.304348 313.21531 
L 541.874653 313.324242 
L 542.28871 313.360837 
L 543.843377 313.269723 
L 543.960563 312.587963 
L 544.007437 313.017931 
L 544.163685 313.279325 
L 544.296496 313.303651 
L 544.37462 312.486606 
L 544.429307 312.525015 
L 544.452744 312.727729 
L 544.601179 313.198239 
L 544.882426 313.303651 
L 545.101173 313.332884 
L 545.374607 313.349741 
L 545.655853 313.25692 
L 545.757414 312.579428 
L 545.812101 312.938979 
L 545.983974 313.263321 
L 546.616778 313.402661 
L 549.077683 313.404048 
L 549.108933 313.023265 
L 549.187057 313.318481 
L 549.358929 313.440643 
L 555.741658 313.358917 
L 555.772908 311.250051 
L 555.788533 308.693719 
L 555.843219 311.774973 
L 555.882281 311.432493 
L 556.030717 313.006194 
L 556.054154 313.022198 
L 556.085404 312.919774 
L 556.116653 311.869929 
L 556.14009 308.106916 
L 556.17134 302.783004 
L 556.241652 309.603799 
L 556.390087 311.97342 
L 556.694771 312.497275 
L 557.429136 312.883499 
L 557.468198 311.790977 
L 557.593196 311.903003 
L 557.921317 312.000093 
L 558.022878 312.016096 
L 558.030691 312.021431 
L 558.358811 311.926475 
L 558.42131 308.875095 
L 558.48381 308.917772 
L 558.61662 308.832419 
L 558.749431 308.928441 
L 558.804118 309.003125 
L 558.858805 308.971118 
L 558.874429 308.93911 
L 558.905679 309.003125 
L 558.960366 309.013794 
L 559.108801 309.088478 
L 559.210363 309.163163 
L 559.225987 309.141824 
L 559.257237 309.184501 
L 559.311924 309.184501 
L 559.444734 309.864126 
L 559.577545 313.280072 
L 559.78848 313.408955 
L 560.069726 313.428907 
L 560.218162 313.414717 
L 560.561907 313.410662 
L 560.608782 313.437229 
L 560.671281 313.42784 
L 571.053957 313.348354 
L 571.116456 310.619503 
L 571.163331 306.01576 
L 571.218017 310.725128 
L 571.350828 312.873897 
L 571.538326 313.112886 
L 571.725823 313.272497 
L 571.913321 313.370226 
L 572.194567 313.382603 
L 573.038306 313.469236 
L 575.100779 313.465395 
L 575.194528 313.344194 
L 575.288276 305.802377 
L 575.475774 312.481272 
L 575.663271 311.960617 
L 575.850769 312.225212 
L 576.132015 312.323368 
L 576.50701 312.839756 
L 577.444498 313.036068 
L 580.358522 313.278151 
L 580.553832 313.294689 
L 582.577243 313.297249 
L 582.639742 313.317307 
L 582.655367 313.349421 
L 582.678804 313.427093 
L 582.717866 313.247318 
L 582.764741 313.333311 
L 582.983488 313.368519 
L 586.272507 313.409916 
L 586.397505 313.401807 
L 586.561566 313.429974 
L 588.678725 313.332351 
L 588.88966 313.01473 
L 588.936535 313.070209 
L 588.975597 312.972053 
L 589.233406 313.264815 
L 589.467778 313.282739 
L 592.678673 313.200373 
L 592.725547 312.98699 
L 592.795859 313.166232 
L 593.014606 313.263321 
L 593.522412 313.356463 
L 593.694285 313.366705 
L 593.889595 313.321255 
L 594.030218 313.323709 
L 594.248965 313.386017 
L 594.256777 313.370226 
L 594.405213 313.322428 
L 594.647397 313.236648 
L 594.686459 312.493008 
L 594.725521 302.932372 
L 594.748958 291.804437 
L 594.827082 309.259185 
L 594.98333 311.772839 
L 595.147391 312.184669 
L 595.319263 312.382049 
L 595.358325 312.403387 
L 595.389575 312.312699 
L 595.436449 312.074777 
L 595.491136 312.318034 
L 595.670821 312.583696 
L 595.678634 312.578361 
L 596.038004 312.788544 
L 596.186439 312.826953 
L 596.444248 312.937912 
L 596.498935 312.933644 
L 596.530185 312.884566 
L 596.584872 312.792811 
L 596.647371 312.852559 
L 596.772369 312.873897 
L 597.014553 312.999793 
L 597.467673 313.069143 
L 597.639545 313.117154 
L 597.733294 313.080879 
L 597.764544 311.409021 
L 597.803606 303.369808 
L 597.873917 310.383715 
L 597.88173 310.584295 
L 597.912979 309.19517 
L 597.959854 304.372709 
L 598.01454 309.152493 
L 598.147351 311.508244 
L 598.155163 311.451698 
L 598.186413 310.823284 
L 598.217663 299.472008 
L 598.303599 308.160261 
L 598.327036 299.475564 
L 598.412973 199.750913 
L 598.452035 263.65919 
L 598.584845 303.753898 
L 598.82703 308.693719 
L 599.108276 310.556555 
L 599.452021 311.621337 
L 599.584832 311.833654 
L 599.702018 312.050238 
L 599.748893 311.978754 
L 599.811392 312.041702 
L 599.819204 312.05984 
L 600.006702 312.319101 
L 600.178574 312.525015 
L 600.756692 312.873897 
L 600.772317 312.818417 
L 600.787941 312.780008 
L 600.858253 312.920841 
L 601.342622 313.026466 
L 601.584806 313.085146 
L 601.912927 313.195039 
L 602.366046 313.263321 
L 602.694166 313.335765 
L 602.709791 310.220476 
L 602.733228 268.823064 
L 602.819165 310.161796 
L 602.9676 312.57516 
L 603.069161 312.767205 
L 603.092599 312.680785 
L 603.178535 311.239381 
L 603.241034 312.095048 
L 603.38947 312.720261 
L 603.397282 312.707458 
L 603.491031 312.741599 
L 603.498843 312.762938 
L 603.55353 312.801347 
L 603.569155 312.681852 
L 603.576967 312.708525 
L 603.686341 312.076911 
L 603.725403 312.249751 
L 603.928525 312.775741 
L 604.233209 312.946447 
L 604.756639 313.117154 
L 604.866013 313.129957 
L 604.873825 313.14276 
L 605.108197 313.234515 
L 605.342569 313.250518 
L 605.428505 313.189704 
L 605.459755 313.21531 
L 605.600378 313.218511 
L 605.662877 313.111819 
L 605.694127 306.325166 
L 605.709752 291.078934 
L 605.795688 310.252484 
L 605.944124 312.395918 
L 606.014435 312.545287 
L 606.03006 312.379915 
L 606.069122 302.793673 
L 606.147246 311.467701 
L 606.303494 312.4578 
L 606.45193 312.656246 
L 606.467554 310.625905 
L 606.530053 270.370092 
L 606.576928 302.857688 
L 606.717551 309.467234 
L 607.053484 311.464501 
L 607.389417 312.284959 
L 607.95191 312.865362 
L 608.217531 312.972053 
L 608.405029 313.027533 
L 608.483153 312.938979 
L 608.50659 310.794477 
L 608.53784 302.025494 
L 608.615964 309.237847 
L 608.764399 311.058006 
L 609.178456 312.039568 
L 609.45189 312.494075 
L 609.467515 312.461 
L 610.600313 313.103284 
L 610.733123 313.161964 
L 610.936246 313.220645 
L 610.944058 313.197172 
L 611.037807 312.943246 
L 611.061244 281.167283 
L 611.14718 311.053738 
L 611.303428 312.715993 
L 611.561237 312.936845 
L 611.819047 313.036068 
L 611.975294 313.081946 
L 612.147167 313.117154 
L 612.615911 313.228113 
L 612.795596 313.274204 
L 613.022156 313.241983 
L 613.498712 313.288536 
L 614.490886 313.323709 
L 614.553386 312.75867 
L 614.654947 313.134224 
L 614.889319 313.221712 
L 614.904943 313.165876 
L 614.944005 312.490518 
L 614.95963 311.577238 
L 615.045567 312.743022 
L 615.217439 313.151295 
L 615.592434 313.230603 
L 615.647121 294.95184 
L 615.670558 277.934527 
L 615.74087 306.293158 
L 615.889306 310.845689 
L 616.240863 311.853149 
L 616.600234 312.562357 
L 617.709594 313.139915 
L 617.959591 313.205352 
L 618.748643 313.341135 
L 618.936141 313.390284 
L 619.154888 313.429974 
L 619.303323 313.432961 
L 620.014251 313.472721 
L 622.19391 313.477345 
L 622.279847 313.44964 
L 622.303284 313.469663 
L 622.373595 313.386443 
L 622.490781 313.103284 
L 622.568905 313.195394 
L 622.647029 313.278507 
L 622.928276 313.393947 
L 623.662641 313.394481 
L 623.686078 313.189704 
L 623.779827 313.239849 
L 623.873576 313.206419 
L 623.881388 313.139915 
L 623.9517 313.292128 
L 623.975137 313.293124 
L 624.209509 313.383776 
L 624.295445 312.932933 
L 624.357944 311.32189 
L 624.436068 312.393785 
L 624.553254 312.987701 
L 624.568879 312.663359 
L 624.639191 295.894282 
L 624.70169 308.487449 
L 624.850125 312.047393 
L 625.139184 312.674028 
L 625.162621 312.570537 
L 625.209496 309.390629 
L 625.311057 311.16612 
L 625.506367 312.596143 
L 625.709489 312.792811 
L 626.084484 312.902348 
L 626.482916 313.057406 
L 627.37353 313.192549 
L 627.498528 313.184014 
L 627.76415 313.124622 
L 627.779774 313.105418 
L 627.826649 313.224912 
L 627.951647 313.192905 
L 627.975084 313.186503 
L 628.021959 313.270221 
L 628.186019 313.278045 
L 628.303205 313.188637 
L 628.326642 313.105418 
L 628.404766 313.208197 
L 628.756324 313.336761 
L 628.975071 313.312186 
L 629.03757 313.307492 
L 629.053195 313.236648 
L 629.061008 313.228113 
L 629.107882 313.290492 
L 629.131319 313.3039 
L 629.42819 313.33075 
L 630.248492 313.334662 
L 630.428177 313.353582 
L 630.732861 313.357992 
L 631.076606 313.363291 
L 631.404727 313.333524 
L 632.287528 313.328937 
L 632.842208 313.301944 
L 633.123454 313.322002 
L 633.256265 313.327422 
L 633.592198 313.326163 
L 635.639046 313.236648 
L 635.670296 313.1737 
L 635.732795 313.296787 
L 635.865606 313.292092 
L 635.990604 313.32979 
L 636.006229 313.300237 
L 636.053103 313.287775 
L 636.334349 313.332564 
L 636.592159 313.32819 
L 636.826531 313.342202 
L 636.920279 313.246251 
L 636.935904 313.196817 
L 637.02184 313.314747 
L 637.271837 313.327016 
L 637.326524 313.251585 
L 637.404648 313.346256 
L 638.264012 313.337792 
L 638.732755 313.337365 
L 639.006189 313.352729 
L 642.326458 313.358704 
L 643.381132 313.327976 
L 643.849876 313.281032 
L 644.607678 313.308345 
L 645.974848 313.211042 
L 646.052972 312.387383 
L 646.092034 313.083012 
L 646.248282 313.283166 
L 646.677964 313.29853 
L 646.756088 312.733064 
L 646.834212 313.121421 
L 646.990459 313.324136 
L 647.107645 313.320295 
L 647.224831 313.316454 
L 647.342017 312.690387 
L 647.381079 313.125689 
L 647.576389 313.275484 
L 647.967009 313.292128 
L 648.162319 313.354863 
L 648.513877 313.2853 
L 648.943559 313.326269 
L 651.873208 313.219222 
L 651.888833 313.25692 
L 651.943519 313.127823 
L 651.966957 313.141693 
L 652.037268 313.241272 
L 652.060705 313.272568 
L 652.123205 313.144894 
L 652.451325 313.081946 
L 652.716947 313.051005 
L 652.748196 313.117154 
L 652.818508 313.0286 
L 652.881007 313.008328 
L 652.904444 313.084079 
L 653.029443 313.220645 
L 653.05288 313.167299 
L 653.146629 313.237715 
L 653.185691 313.306638 
L 653.224753 313.1705 
L 653.24819 313.195039 
L 653.263815 313.1705 
L 653.310689 313.228113 
L 653.349751 313.228113 
L 655.162227 313.119288 
L 655.349725 312.929377 
L 655.490348 312.962451 
L 655.716907 313.070209 
L 656.021591 313.09297 
L 656.170026 311.240545 
L 656.201276 311.00466 
L 656.451273 312.311988 
L 656.505959 312.390228 
L 656.545021 312.249266 
L 656.591896 311.427159 
L 656.623145 308.110472 
L 656.709082 308.858025 
L 657.013765 309.470197 
L 657.084077 309.483043 
L 657.107514 309.534023 
L 657.310636 309.751567 
L 657.45126 311.098548 
L 657.607508 311.230135 
L 657.740318 311.298353 
L 657.888754 311.316555 
L 658.091876 313.225624 
L 658.240312 313.412192 
L 658.271561 313.314747 
L 658.287186 313.261187 
L 658.349685 313.34206 
L 658.373122 313.338219 
L 658.78718 313.444199 
L 658.802804 313.472686 
L 658.841866 313.335303 
L 658.865304 313.343909 
L 659.021551 313.363825 
L 667.724562 313.465111 
L 667.896435 313.517887 
L 669.21673 313.495482 
L 669.294854 311.4613 
L 669.372978 312.660158 
L 669.537038 313.380042 
L 669.779223 313.444377 
L 669.787035 313.426275 
L 669.80266 313.318019 
L 669.896409 313.435024 
L 670.138593 313.486734 
L 671.326077 313.521515 
L 671.427638 313.153429 
L 671.451076 313.156339 
L 671.849508 313.22918 
L 672.013568 313.544916 
L 672.396376 313.495269 
L 672.458875 313.353796 
L 672.583873 298.063678 
L 672.591686 296.911409 
L 672.646372 304.827927 
L 672.654185 304.739017 
L 672.685434 280.672946 
L 672.755746 307.416977 
L 672.896369 312.708525 
L 673.099492 313.134224 
L 673.411987 313.282739 
L 673.61511 313.263997 
L 673.630735 312.021787 
L 673.669797 269.207153 
L 673.740108 308.441216 
L 673.888544 312.489807 
L 674.091666 312.916574 
L 674.607284 313.259054 
L 674.638534 312.42437 
L 674.740095 313.014374 
L 674.911968 313.257987 
L 675.294775 313.368092 
L 675.482273 313.376628 
L 675.482273 313.376628 
" clip-path="url(#p1963c4d407)" style="fill: none; stroke: #1f77b4; stroke-width: 1.5; stroke-linecap: square"/>
   </g>
   <g id="patch_3">
    <path d="M 39.65 327.558125 
L 39.65 22.318125 
" style="fill: none; stroke: #000000; stroke-width: 0.8; stroke-linejoin: miter; stroke-linecap: square"/>
   </g>
   <g id="patch_4">
    <path d="M 705.76 327.558125 
L 705.76 22.318125 
" style="fill: none; stroke: #000000; stroke-width: 0.8; stroke-linejoin: miter; stroke-linecap: square"/>
   </g>
   <g id="patch_5">
    <path d="M 39.65 327.558125 
L 705.76 327.558125 
" style="fill: none; stroke: #000000; stroke-width: 0.8; stroke-linejoin: miter; stroke-linecap: square"/>
   </g>
   <g id="patch_6">
    <path d="M 39.65 22.318125 
L 705.76 22.318125 
" style="fill: none; stroke: #000000; stroke-width: 0.8; stroke-linejoin: miter; stroke-linecap: square"/>
   </g>
   <g id="text_17">
    <!-- training -->
    <g transform="translate(349.461563 16.318125) scale(0.12 -0.12)">
     <defs>
      <path id="DejaVuSans-74" d="M 1172 4494 
L 1172 3500 
L 2356 3500 
L 2356 3053 
L 1172 3053 
L 1172 1153 
Q 1172 725 1289 603 
Q 1406 481 1766 481 
L 2356 481 
L 2356 0 
L 1766 0 
Q 1100 0 847 248 
Q 594 497 594 1153 
L 594 3053 
L 172 3053 
L 172 3500 
L 594 3500 
L 594 4494 
L 1172 4494 
z
" transform="scale(0.015625)"/>
      <path id="DejaVuSans-72" d="M 2631 2963 
Q 2534 3019 2420 3045 
Q 2306 3072 2169 3072 
Q 1681 3072 1420 2755 
Q 1159 2438 1159 1844 
L 1159 0 
L 581 0 
L 581 3500 
L 1159 3500 
L 1159 2956 
Q 1341 3275 1631 3429 
Q 1922 3584 2338 3584 
Q 2397 3584 2469 3576 
Q 2541 3569 2628 3553 
L 2631 2963 
z
" transform="scale(0.015625)"/>
      <path id="DejaVuSans-61" d="M 2194 1759 
Q 1497 1759 1228 1600 
Q 959 1441 959 1056 
Q 959 750 1161 570 
Q 1363 391 1709 391 
Q 2188 391 2477 730 
Q 2766 1069 2766 1631 
L 2766 1759 
L 2194 1759 
z
M 3341 1997 
L 3341 0 
L 2766 0 
L 2766 531 
Q 2569 213 2275 61 
Q 1981 -91 1556 -91 
Q 1019 -91 701 211 
Q 384 513 384 1019 
Q 384 1609 779 1909 
Q 1175 2209 1959 2209 
L 2766 2209 
L 2766 2266 
Q 2766 2663 2505 2880 
Q 2244 3097 1772 3097 
Q 1472 3097 1187 3025 
Q 903 2953 641 2809 
L 641 3341 
Q 956 3463 1253 3523 
Q 1550 3584 1831 3584 
Q 2591 3584 2966 3190 
Q 3341 2797 3341 1997 
z
" transform="scale(0.015625)"/>
      <path id="DejaVuSans-69" d="M 603 3500 
L 1178 3500 
L 1178 0 
L 603 0 
L 603 3500 
z
M 603 4863 
L 1178 4863 
L 1178 4134 
L 603 4134 
L 603 4863 
z
" transform="scale(0.015625)"/>
      <path id="DejaVuSans-6e" d="M 3513 2113 
L 3513 0 
L 2938 0 
L 2938 2094 
Q 2938 2591 2744 2837 
Q 2550 3084 2163 3084 
Q 1697 3084 1428 2787 
Q 1159 2491 1159 1978 
L 1159 0 
L 581 0 
L 581 3500 
L 1159 3500 
L 1159 2956 
Q 1366 3272 1645 3428 
Q 1925 3584 2291 3584 
Q 2894 3584 3203 3211 
Q 3513 2838 3513 2113 
z
" transform="scale(0.015625)"/>
      <path id="DejaVuSans-67" d="M 2906 1791 
Q 2906 2416 2648 2759 
Q 2391 3103 1925 3103 
Q 1463 3103 1205 2759 
Q 947 2416 947 1791 
Q 947 1169 1205 825 
Q 1463 481 1925 481 
Q 2391 481 2648 825 
Q 2906 1169 2906 1791 
z
M 3481 434 
Q 3481 -459 3084 -895 
Q 2688 -1331 1869 -1331 
Q 1566 -1331 1297 -1286 
Q 1028 -1241 775 -1147 
L 775 -588 
Q 1028 -725 1275 -790 
Q 1522 -856 1778 -856 
Q 2344 -856 2625 -561 
Q 2906 -266 2906 331 
L 2906 616 
Q 2728 306 2450 153 
Q 2172 0 1784 0 
Q 1141 0 747 490 
Q 353 981 353 1791 
Q 353 2603 747 3093 
Q 1141 3584 1784 3584 
Q 2172 3584 2450 3431 
Q 2728 3278 2906 2969 
L 2906 3500 
L 3481 3500 
L 3481 434 
z
" transform="scale(0.015625)"/>
     </defs>
     <use xlink:href="#DejaVuSans-74"/>
     <use xlink:href="#DejaVuSans-72" x="39.208984"/>
     <use xlink:href="#DejaVuSans-61" x="80.322266"/>
     <use xlink:href="#DejaVuSans-69" x="141.601562"/>
     <use xlink:href="#DejaVuSans-6e" x="169.384766"/>
     <use xlink:href="#DejaVuSans-69" x="232.763672"/>
     <use xlink:href="#DejaVuSans-6e" x="260.546875"/>
     <use xlink:href="#DejaVuSans-67" x="323.925781"/>
    </g>
   </g>
   <g id="legend_1">
    <g id="patch_7">
     <path d="M 620.399063 44.99625 
L 698.76 44.99625 
Q 700.76 44.99625 700.76 42.99625 
L 700.76 29.318125 
Q 700.76 27.318125 698.76 27.318125 
L 620.399063 27.318125 
Q 618.399063 27.318125 618.399063 29.318125 
L 618.399063 42.99625 
Q 618.399063 44.99625 620.399063 44.99625 
z
" style="fill: #ffffff; opacity: 0.8; stroke: #cccccc; stroke-linejoin: miter"/>
    </g>
    <g id="line2d_18">
     <path d="M 622.399063 35.416563 
L 632.399063 35.416563 
L 642.399063 35.416563 
" style="fill: none; stroke: #1f77b4; stroke-width: 1.5; stroke-linecap: square"/>
    </g>
    <g id="text_18">
     <!-- observed -->
     <g transform="translate(650.399063 38.916563) scale(0.1 -0.1)">
      <defs>
       <path id="DejaVuSans-6f" d="M 1959 3097 
Q 1497 3097 1228 2736 
Q 959 2375 959 1747 
Q 959 1119 1226 758 
Q 1494 397 1959 397 
Q 2419 397 2687 759 
Q 2956 1122 2956 1747 
Q 2956 2369 2687 2733 
Q 2419 3097 1959 3097 
z
M 1959 3584 
Q 2709 3584 3137 3096 
Q 3566 2609 3566 1747 
Q 3566 888 3137 398 
Q 2709 -91 1959 -91 
Q 1206 -91 779 398 
Q 353 888 353 1747 
Q 353 2609 779 3096 
Q 1206 3584 1959 3584 
z
" transform="scale(0.015625)"/>
       <path id="DejaVuSans-62" d="M 3116 1747 
Q 3116 2381 2855 2742 
Q 2594 3103 2138 3103 
Q 1681 3103 1420 2742 
Q 1159 2381 1159 1747 
Q 1159 1113 1420 752 
Q 1681 391 2138 391 
Q 2594 391 2855 752 
Q 3116 1113 3116 1747 
z
M 1159 2969 
Q 1341 3281 1617 3432 
Q 1894 3584 2278 3584 
Q 2916 3584 3314 3078 
Q 3713 2572 3713 1747 
Q 3713 922 3314 415 
Q 2916 -91 2278 -91 
Q 1894 -91 1617 61 
Q 1341 213 1159 525 
L 1159 0 
L 581 0 
L 581 4863 
L 1159 4863 
L 1159 2969 
z
" transform="scale(0.015625)"/>
       <path id="DejaVuSans-73" d="M 2834 3397 
L 2834 2853 
Q 2591 2978 2328 3040 
Q 2066 3103 1784 3103 
Q 1356 3103 1142 2972 
Q 928 2841 928 2578 
Q 928 2378 1081 2264 
Q 1234 2150 1697 2047 
L 1894 2003 
Q 2506 1872 2764 1633 
Q 3022 1394 3022 966 
Q 3022 478 2636 193 
Q 2250 -91 1575 -91 
Q 1294 -91 989 -36 
Q 684 19 347 128 
L 347 722 
Q 666 556 975 473 
Q 1284 391 1588 391 
Q 1994 391 2212 530 
Q 2431 669 2431 922 
Q 2431 1156 2273 1281 
Q 2116 1406 1581 1522 
L 1381 1569 
Q 847 1681 609 1914 
Q 372 2147 372 2553 
Q 372 3047 722 3315 
Q 1072 3584 1716 3584 
Q 2034 3584 2315 3537 
Q 2597 3491 2834 3397 
z
" transform="scale(0.015625)"/>
       <path id="DejaVuSans-65" d="M 3597 1894 
L 3597 1613 
L 953 1613 
Q 991 1019 1311 708 
Q 1631 397 2203 397 
Q 2534 397 2845 478 
Q 3156 559 3463 722 
L 3463 178 
Q 3153 47 2828 -22 
Q 2503 -91 2169 -91 
Q 1331 -91 842 396 
Q 353 884 353 1716 
Q 353 2575 817 3079 
Q 1281 3584 2069 3584 
Q 2775 3584 3186 3129 
Q 3597 2675 3597 1894 
z
M 3022 2063 
Q 3016 2534 2758 2815 
Q 2500 3097 2075 3097 
Q 1594 3097 1305 2825 
Q 1016 2553 972 2059 
L 3022 2063 
z
" transform="scale(0.015625)"/>
       <path id="DejaVuSans-76" d="M 191 3500 
L 800 3500 
L 1894 563 
L 2988 3500 
L 3597 3500 
L 2284 0 
L 1503 0 
L 191 3500 
z
" transform="scale(0.015625)"/>
       <path id="DejaVuSans-64" d="M 2906 2969 
L 2906 4863 
L 3481 4863 
L 3481 0 
L 2906 0 
L 2906 525 
Q 2725 213 2448 61 
Q 2172 -91 1784 -91 
Q 1150 -91 751 415 
Q 353 922 353 1747 
Q 353 2572 751 3078 
Q 1150 3584 1784 3584 
Q 2172 3584 2448 3432 
Q 2725 3281 2906 2969 
z
M 947 1747 
Q 947 1113 1208 752 
Q 1469 391 1925 391 
Q 2381 391 2643 752 
Q 2906 1113 2906 1747 
Q 2906 2381 2643 2742 
Q 2381 3103 1925 3103 
Q 1469 3103 1208 2742 
Q 947 2381 947 1747 
z
" transform="scale(0.015625)"/>
      </defs>
      <use xlink:href="#DejaVuSans-6f"/>
      <use xlink:href="#DejaVuSans-62" x="61.181641"/>
      <use xlink:href="#DejaVuSans-73" x="124.658203"/>
      <use xlink:href="#DejaVuSans-65" x="176.757812"/>
      <use xlink:href="#DejaVuSans-72" x="238.28125"/>
      <use xlink:href="#DejaVuSans-76" x="279.394531"/>
      <use xlink:href="#DejaVuSans-65" x="338.574219"/>
      <use xlink:href="#DejaVuSans-64" x="400.097656"/>
     </g>
    </g>
   </g>
  </g>
 </g>
 <defs>
  <clipPath id="p1963c4d407">
   <rect x="39.65" y="22.318125" width="666.11" height="305.24"/>
  </clipPath>
 </defs>
</svg>
