<?xml version="1.0" encoding="utf-8" standalone="no"?>
<!DOCTYPE svg PUBLIC "-//W3C//DTD SVG 1.1//EN"
  "http://www.w3.org/Graphics/SVG/1.1/DTD/svg11.dtd">
<svg xmlns:xlink="http://www.w3.org/1999/xlink" width="713.0225pt" height="351.43625pt" viewBox="0 0 713.0225 351.43625" xmlns="http://www.w3.org/2000/svg" version="1.1">
 <metadata>
  <rdf:RDF xmlns:dc="http://purl.org/dc/elements/1.1/" xmlns:cc="http://creativecommons.org/ns#" xmlns:rdf="http://www.w3.org/1999/02/22-rdf-syntax-ns#">
   <cc:Work>
    <dc:type rdf:resource="http://purl.org/dc/dcmitype/StillImage"/>
    <dc:date>2024-05-10T21:03:02.230538</dc:date>
    <dc:format>image/svg+xml</dc:format>
    <dc:creator>
     <cc:Agent>
      <dc:title>Matplotlib v3.8.4, https://matplotlib.org/</dc:title>
     </cc:Agent>
    </dc:creator>
   </cc:Work>
  </rdf:RDF>
 </metadata>
 <defs>
  <style type="text/css">*{stroke-linejoin: round; stroke-linecap: butt}</style>
 </defs>
 <g id="figure_1">
  <g id="patch_1">
   <path d="M 0 351.43625 
L 713.0225 351.43625 
L 713.0225 0 
L 0 0 
z
" style="fill: #ffffff"/>
  </g>
  <g id="axes_1">
   <g id="patch_2">
    <path d="M 46.0125 327.558125 
L 705.8225 327.558125 
L 705.8225 22.318125 
L 46.0125 22.318125 
z
" style="fill: #ffffff"/>
   </g>
   <g id="matplotlib.axis_1">
    <g id="xtick_1">
     <g id="line2d_1">
      <defs>
       <path id="meba799ea61" d="M 0 0 
L 0 3.5 
" style="stroke: #000000; stroke-width: 0.8"/>
      </defs>
      <g>
       <use xlink:href="#meba799ea61" x="103.839498" y="327.558125" style="stroke: #000000; stroke-width: 0.8"/>
      </g>
     </g>
     <g id="text_1">
      <!-- 2010 -->
      <g transform="translate(91.114498 342.156563) scale(0.1 -0.1)">
       <defs>
        <path id="DejaVuSans-32" d="M 1228 531 
L 3431 531 
L 3431 0 
L 469 0 
L 469 531 
Q 828 903 1448 1529 
Q 2069 2156 2228 2338 
Q 2531 2678 2651 2914 
Q 2772 3150 2772 3378 
Q 2772 3750 2511 3984 
Q 2250 4219 1831 4219 
Q 1534 4219 1204 4116 
Q 875 4013 500 3803 
L 500 4441 
Q 881 4594 1212 4672 
Q 1544 4750 1819 4750 
Q 2544 4750 2975 4387 
Q 3406 4025 3406 3419 
Q 3406 3131 3298 2873 
Q 3191 2616 2906 2266 
Q 2828 2175 2409 1742 
Q 1991 1309 1228 531 
z
" transform="scale(0.015625)"/>
        <path id="DejaVuSans-30" d="M 2034 4250 
Q 1547 4250 1301 3770 
Q 1056 3291 1056 2328 
Q 1056 1369 1301 889 
Q 1547 409 2034 409 
Q 2525 409 2770 889 
Q 3016 1369 3016 2328 
Q 3016 3291 2770 3770 
Q 2525 4250 2034 4250 
z
M 2034 4750 
Q 2819 4750 3233 4129 
Q 3647 3509 3647 2328 
Q 3647 1150 3233 529 
Q 2819 -91 2034 -91 
Q 1250 -91 836 529 
Q 422 1150 422 2328 
Q 422 3509 836 4129 
Q 1250 4750 2034 4750 
z
" transform="scale(0.015625)"/>
        <path id="DejaVuSans-31" d="M 794 531 
L 1825 531 
L 1825 4091 
L 703 3866 
L 703 4441 
L 1819 4666 
L 2450 4666 
L 2450 531 
L 3481 531 
L 3481 0 
L 794 0 
L 794 531 
z
" transform="scale(0.015625)"/>
       </defs>
       <use xlink:href="#DejaVuSans-32"/>
       <use xlink:href="#DejaVuSans-30" x="63.623047"/>
       <use xlink:href="#DejaVuSans-31" x="127.246094"/>
       <use xlink:href="#DejaVuSans-30" x="190.869141"/>
      </g>
     </g>
    </g>
    <g id="xtick_2">
     <g id="line2d_2">
      <g>
       <use xlink:href="#meba799ea61" x="207.07411" y="327.558125" style="stroke: #000000; stroke-width: 0.8"/>
      </g>
     </g>
     <g id="text_2">
      <!-- 2012 -->
      <g transform="translate(194.34911 342.156563) scale(0.1 -0.1)">
       <use xlink:href="#DejaVuSans-32"/>
       <use xlink:href="#DejaVuSans-30" x="63.623047"/>
       <use xlink:href="#DejaVuSans-31" x="127.246094"/>
       <use xlink:href="#DejaVuSans-32" x="190.869141"/>
      </g>
     </g>
    </g>
    <g id="xtick_3">
     <g id="line2d_3">
      <g>
       <use xlink:href="#meba799ea61" x="310.450139" y="327.558125" style="stroke: #000000; stroke-width: 0.8"/>
      </g>
     </g>
     <g id="text_3">
      <!-- 2014 -->
      <g transform="translate(297.725139 342.156563) scale(0.1 -0.1)">
       <defs>
        <path id="DejaVuSans-34" d="M 2419 4116 
L 825 1625 
L 2419 1625 
L 2419 4116 
z
M 2253 4666 
L 3047 4666 
L 3047 1625 
L 3713 1625 
L 3713 1100 
L 3047 1100 
L 3047 0 
L 2419 0 
L 2419 1100 
L 313 1100 
L 313 1709 
L 2253 4666 
z
" transform="scale(0.015625)"/>
       </defs>
       <use xlink:href="#DejaVuSans-32"/>
       <use xlink:href="#DejaVuSans-30" x="63.623047"/>
       <use xlink:href="#DejaVuSans-31" x="127.246094"/>
       <use xlink:href="#DejaVuSans-34" x="190.869141"/>
      </g>
     </g>
    </g>
    <g id="xtick_4">
     <g id="line2d_4">
      <g>
       <use xlink:href="#meba799ea61" x="413.684752" y="327.558125" style="stroke: #000000; stroke-width: 0.8"/>
      </g>
     </g>
     <g id="text_4">
      <!-- 2016 -->
      <g transform="translate(400.959752 342.156563) scale(0.1 -0.1)">
       <defs>
        <path id="DejaVuSans-36" d="M 2113 2584 
Q 1688 2584 1439 2293 
Q 1191 2003 1191 1497 
Q 1191 994 1439 701 
Q 1688 409 2113 409 
Q 2538 409 2786 701 
Q 3034 994 3034 1497 
Q 3034 2003 2786 2293 
Q 2538 2584 2113 2584 
z
M 3366 4563 
L 3366 3988 
Q 3128 4100 2886 4159 
Q 2644 4219 2406 4219 
Q 1781 4219 1451 3797 
Q 1122 3375 1075 2522 
Q 1259 2794 1537 2939 
Q 1816 3084 2150 3084 
Q 2853 3084 3261 2657 
Q 3669 2231 3669 1497 
Q 3669 778 3244 343 
Q 2819 -91 2113 -91 
Q 1303 -91 875 529 
Q 447 1150 447 2328 
Q 447 3434 972 4092 
Q 1497 4750 2381 4750 
Q 2619 4750 2861 4703 
Q 3103 4656 3366 4563 
z
" transform="scale(0.015625)"/>
       </defs>
       <use xlink:href="#DejaVuSans-32"/>
       <use xlink:href="#DejaVuSans-30" x="63.623047"/>
       <use xlink:href="#DejaVuSans-31" x="127.246094"/>
       <use xlink:href="#DejaVuSans-36" x="190.869141"/>
      </g>
     </g>
    </g>
    <g id="xtick_5">
     <g id="line2d_5">
      <g>
       <use xlink:href="#meba799ea61" x="517.060781" y="327.558125" style="stroke: #000000; stroke-width: 0.8"/>
      </g>
     </g>
     <g id="text_5">
      <!-- 2018 -->
      <g transform="translate(504.335781 342.156563) scale(0.1 -0.1)">
       <defs>
        <path id="DejaVuSans-38" d="M 2034 2216 
Q 1584 2216 1326 1975 
Q 1069 1734 1069 1313 
Q 1069 891 1326 650 
Q 1584 409 2034 409 
Q 2484 409 2743 651 
Q 3003 894 3003 1313 
Q 3003 1734 2745 1975 
Q 2488 2216 2034 2216 
z
M 1403 2484 
Q 997 2584 770 2862 
Q 544 3141 544 3541 
Q 544 4100 942 4425 
Q 1341 4750 2034 4750 
Q 2731 4750 3128 4425 
Q 3525 4100 3525 3541 
Q 3525 3141 3298 2862 
Q 3072 2584 2669 2484 
Q 3125 2378 3379 2068 
Q 3634 1759 3634 1313 
Q 3634 634 3220 271 
Q 2806 -91 2034 -91 
Q 1263 -91 848 271 
Q 434 634 434 1313 
Q 434 1759 690 2068 
Q 947 2378 1403 2484 
z
M 1172 3481 
Q 1172 3119 1398 2916 
Q 1625 2713 2034 2713 
Q 2441 2713 2670 2916 
Q 2900 3119 2900 3481 
Q 2900 3844 2670 4047 
Q 2441 4250 2034 4250 
Q 1625 4250 1398 4047 
Q 1172 3844 1172 3481 
z
" transform="scale(0.015625)"/>
       </defs>
       <use xlink:href="#DejaVuSans-32"/>
       <use xlink:href="#DejaVuSans-30" x="63.623047"/>
       <use xlink:href="#DejaVuSans-31" x="127.246094"/>
       <use xlink:href="#DejaVuSans-38" x="190.869141"/>
      </g>
     </g>
    </g>
    <g id="xtick_6">
     <g id="line2d_6">
      <g>
       <use xlink:href="#meba799ea61" x="620.295393" y="327.558125" style="stroke: #000000; stroke-width: 0.8"/>
      </g>
     </g>
     <g id="text_6">
      <!-- 2020 -->
      <g transform="translate(607.570393 342.156563) scale(0.1 -0.1)">
       <use xlink:href="#DejaVuSans-32"/>
       <use xlink:href="#DejaVuSans-30" x="63.623047"/>
       <use xlink:href="#DejaVuSans-32" x="127.246094"/>
       <use xlink:href="#DejaVuSans-30" x="190.869141"/>
      </g>
     </g>
    </g>
   </g>
   <g id="matplotlib.axis_2">
    <g id="ytick_1">
     <g id="line2d_7">
      <defs>
       <path id="m805103bcd9" d="M 0 0 
L -3.5 0 
" style="stroke: #000000; stroke-width: 0.8"/>
      </defs>
      <g>
       <use xlink:href="#m805103bcd9" x="46.0125" y="313.58594" style="stroke: #000000; stroke-width: 0.8"/>
      </g>
     </g>
     <g id="text_7">
      <!-- 0 -->
      <g transform="translate(32.65 317.385159) scale(0.1 -0.1)">
       <use xlink:href="#DejaVuSans-30"/>
      </g>
     </g>
    </g>
    <g id="ytick_2">
     <g id="line2d_8">
      <g>
       <use xlink:href="#m805103bcd9" x="46.0125" y="272.867662" style="stroke: #000000; stroke-width: 0.8"/>
      </g>
     </g>
     <g id="text_8">
      <!-- 2000 -->
      <g transform="translate(13.5625 276.666881) scale(0.1 -0.1)">
       <use xlink:href="#DejaVuSans-32"/>
       <use xlink:href="#DejaVuSans-30" x="63.623047"/>
       <use xlink:href="#DejaVuSans-30" x="127.246094"/>
       <use xlink:href="#DejaVuSans-30" x="190.869141"/>
      </g>
     </g>
    </g>
    <g id="ytick_3">
     <g id="line2d_9">
      <g>
       <use xlink:href="#m805103bcd9" x="46.0125" y="232.149384" style="stroke: #000000; stroke-width: 0.8"/>
      </g>
     </g>
     <g id="text_9">
      <!-- 4000 -->
      <g transform="translate(13.5625 235.948603) scale(0.1 -0.1)">
       <use xlink:href="#DejaVuSans-34"/>
       <use xlink:href="#DejaVuSans-30" x="63.623047"/>
       <use xlink:href="#DejaVuSans-30" x="127.246094"/>
       <use xlink:href="#DejaVuSans-30" x="190.869141"/>
      </g>
     </g>
    </g>
    <g id="ytick_4">
     <g id="line2d_10">
      <g>
       <use xlink:href="#m805103bcd9" x="46.0125" y="191.431106" style="stroke: #000000; stroke-width: 0.8"/>
      </g>
     </g>
     <g id="text_10">
      <!-- 6000 -->
      <g transform="translate(13.5625 195.230325) scale(0.1 -0.1)">
       <use xlink:href="#DejaVuSans-36"/>
       <use xlink:href="#DejaVuSans-30" x="63.623047"/>
       <use xlink:href="#DejaVuSans-30" x="127.246094"/>
       <use xlink:href="#DejaVuSans-30" x="190.869141"/>
      </g>
     </g>
    </g>
    <g id="ytick_5">
     <g id="line2d_11">
      <g>
       <use xlink:href="#m805103bcd9" x="46.0125" y="150.712828" style="stroke: #000000; stroke-width: 0.8"/>
      </g>
     </g>
     <g id="text_11">
      <!-- 8000 -->
      <g transform="translate(13.5625 154.512046) scale(0.1 -0.1)">
       <use xlink:href="#DejaVuSans-38"/>
       <use xlink:href="#DejaVuSans-30" x="63.623047"/>
       <use xlink:href="#DejaVuSans-30" x="127.246094"/>
       <use xlink:href="#DejaVuSans-30" x="190.869141"/>
      </g>
     </g>
    </g>
    <g id="ytick_6">
     <g id="line2d_12">
      <g>
       <use xlink:href="#m805103bcd9" x="46.0125" y="109.99455" style="stroke: #000000; stroke-width: 0.8"/>
      </g>
     </g>
     <g id="text_12">
      <!-- 10000 -->
      <g transform="translate(7.2 113.793768) scale(0.1 -0.1)">
       <use xlink:href="#DejaVuSans-31"/>
       <use xlink:href="#DejaVuSans-30" x="63.623047"/>
       <use xlink:href="#DejaVuSans-30" x="127.246094"/>
       <use xlink:href="#DejaVuSans-30" x="190.869141"/>
       <use xlink:href="#DejaVuSans-30" x="254.492188"/>
      </g>
     </g>
    </g>
    <g id="ytick_7">
     <g id="line2d_13">
      <g>
       <use xlink:href="#m805103bcd9" x="46.0125" y="69.276271" style="stroke: #000000; stroke-width: 0.8"/>
      </g>
     </g>
     <g id="text_13">
      <!-- 12000 -->
      <g transform="translate(7.2 73.07549) scale(0.1 -0.1)">
       <use xlink:href="#DejaVuSans-31"/>
       <use xlink:href="#DejaVuSans-32" x="63.623047"/>
       <use xlink:href="#DejaVuSans-30" x="127.246094"/>
       <use xlink:href="#DejaVuSans-30" x="190.869141"/>
       <use xlink:href="#DejaVuSans-30" x="254.492188"/>
      </g>
     </g>
    </g>
    <g id="ytick_8">
     <g id="line2d_14">
      <g>
       <use xlink:href="#m805103bcd9" x="46.0125" y="28.557993" style="stroke: #000000; stroke-width: 0.8"/>
      </g>
     </g>
     <g id="text_14">
      <!-- 14000 -->
      <g transform="translate(7.2 32.357212) scale(0.1 -0.1)">
       <use xlink:href="#DejaVuSans-31"/>
       <use xlink:href="#DejaVuSans-34" x="63.623047"/>
       <use xlink:href="#DejaVuSans-30" x="127.246094"/>
       <use xlink:href="#DejaVuSans-30" x="190.869141"/>
       <use xlink:href="#DejaVuSans-30" x="254.492188"/>
      </g>
     </g>
    </g>
   </g>
   <g id="line2d_15">
    <path d="M 76.003864 313.58594 
L 87.3526 313.58594 
L 87.382062 310.776379 
L 87.464555 312.988399 
L 87.617758 313.58594 
L 106.821045 313.58594 
L 106.826938 310.303029 
L 106.850507 36.19267 
L 106.933001 303.859362 
L 106.938893 303.823733 
L 107.009602 294.249848 
L 107.062633 299.359992 
L 107.115665 298.728858 
L 107.268867 303.945888 
L 107.675441 309.758422 
L 107.681334 309.666806 
L 107.716688 308.653939 
L 107.787397 309.600639 
L 107.805074 309.860218 
L 107.834536 308.816812 
L 107.852213 308.735375 
L 107.86989 309.010224 
L 107.946491 309.962013 
L 107.964168 308.86771 
L 107.987738 309.295252 
L 108.376635 311.696612 
L 108.382528 311.64775 
L 108.400205 311.854904 
L 108.476806 311.696612 
L 108.53573 311.885952 
L 108.594654 311.855413 
L 108.618223 311.824875 
L 108.641793 312.063077 
L 108.683039 311.901221 
L 108.75964 312.259033 
L 108.80678 312.134334 
L 108.824457 311.96179 
L 108.924627 312.048825 
L 108.995336 312.300261 
L 109.042475 312.134334 
L 109.160323 311.579038 
L 109.178 311.346435 
L 109.189785 311.446704 
L 109.284063 297.151025 
L 109.313525 299.125862 
L 109.319417 299.17167 
L 109.472619 306.862335 
L 109.478512 306.857245 
L 109.484404 306.989579 
L 109.625821 308.241666 
L 109.661176 308.816812 
L 109.808485 309.758422 
L 109.82027 309.676986 
L 109.890979 309.57519 
L 109.914548 309.738063 
L 110.06775 310.430274 
L 110.21506 311.142844 
L 110.226845 311.041048 
L 110.262199 311.142844 
L 110.350585 310.898534 
L 110.385939 310.97997 
L 110.48611 311.285358 
L 110.509679 311.203921 
L 110.58628 311.264998 
L 110.60985 311.412602 
L 110.704128 311.366794 
L 110.721805 311.45841 
L 110.786621 311.564278 
L 110.745375 311.427871 
L 110.827868 311.47368 
L 110.83376 311.427871 
L 110.916254 311.562242 
L 110.933931 311.696612 
L 110.975178 311.526613 
L 111.028209 311.631463 
L 111.093025 311.488949 
L 111.122487 311.761761 
L 111.146057 311.664037 
L 111.181411 311.745474 
L 111.322829 310.465902 
L 111.35229 309.676986 
L 111.434784 310.185964 
L 111.464246 306.394074 
L 111.576201 308.86771 
L 111.89439 310.654224 
L 112.035807 310.75602 
L 112.071162 310.27249 
L 112.194902 311.122484 
L 112.283288 309.620998 
L 112.318642 308.038075 
L 112.395243 308.944057 
L 112.407028 308.944057 
L 112.572015 310.409915 
L 112.689862 310.450633 
L 112.825387 310.817097 
L 112.95502 310.898534 
L 112.996266 310.817097 
L 113.07876 310.97997 
L 113.137684 311.020689 
L 113.149468 309.956924 
L 113.249639 310.720391 
L 113.261424 309.478484 
L 113.308563 297.98066 
L 113.373379 301.665664 
L 113.497119 305.467734 
L 113.503012 304.577021 
L 113.544258 298.92736 
L 113.614967 301.711472 
L 113.685676 304.968935 
L 113.774061 304.780613 
L 113.779954 304.744984 
L 113.785846 305.040192 
L 113.84477 306.897963 
L 113.921371 306.892873 
L 114.086358 309.269803 
L 114.09225 309.218905 
L 114.127605 309.320701 
L 114.787552 311.761761 
L 114.870045 311.631463 
L 114.899507 311.696612 
L 115.052709 312.063077 
L 115.064494 312.006071 
L 115.15288 312.048825 
L 115.270728 312.287027 
L 115.27662 312.218315 
L 115.311974 312.177088 
L 115.365006 312.339961 
L 115.370898 312.339961 
L 115.506423 312.443793 
L 115.653733 312.53948 
L 115.706764 312.492654 
L 115.765688 312.53948 
L 115.818719 312.633133 
L 115.960137 312.804149 
L 116.060307 312.88355 
L 116.107446 312.842832 
L 116.178155 312.924268 
L 116.354927 312.997561 
L 116.372604 312.93343 
L 116.419743 313.068818 
L 116.443312 313.068818 
L 116.673116 313.170105 
L 116.796856 313.25205 
L 116.802748 313.244925 
L 116.80864 313.223548 
L 116.820425 313.25205 
L 116.902919 313.271901 
L 117.067905 313.355882 
L 116.932381 313.223548 
L 117.097367 313.327379 
L 117.47448 313.43686 
L 117.627682 313.44139 
L 117.633575 313.432331 
L 117.769099 313.423271 
L 119.360044 313.530971 
L 119.560385 313.547665 
L 143.188855 313.540234 
L 143.20064 312.902891 
L 143.235994 313.58594 
L 143.294918 313.58594 
L 155.356633 313.58594 
L 155.37431 312.431068 
L 155.468589 313.034208 
L 155.474481 313.025046 
L 155.503943 313.16247 
L 155.663037 313.58594 
L 155.698392 312.414272 
L 155.7691 313.574743 
L 156.505649 313.523387 
L 156.629389 313.244925 
L 156.764914 313.084596 
L 156.80616 313.034208 
L 156.835622 313.131931 
L 156.876869 313.085105 
L 156.95347 313.060165 
L 157.006501 313.177739 
L 157.10078 313.068818 
L 157.124349 313.147201 
L 157.142026 313.101393 
L 157.159703 313.193009 
L 157.195058 313.200644 
L 157.295228 313.278517 
L 157.253982 313.154835 
L 157.307013 313.25205 
L 157.336475 313.223548 
L 157.377722 313.278517 
L 157.418968 313.25205 
L 157.501462 313.302948 
L 157.536816 313.25205 
L 157.849113 313.16247 
L 157.961068 313.09274 
L 157.902144 313.193009 
L 157.96696 313.131931 
L 158.314611 313.230673 
L 158.326396 313.271901 
L 158.38532 313.193009 
L 158.420674 313.223548 
L 158.479598 313.223548 
L 158.497275 313.290733 
L 158.520845 313.355882 
L 158.556199 313.25205 
L 158.615123 313.327379 
L 158.744755 313.302948 
L 159.05116 313.403522 
L 159.1749 313.423271 
L 160.052865 313.533261 
L 160.223744 313.58594 
L 160.229637 313.578967 
L 160.353377 313.540132 
L 162.80461 313.43686 
L 162.957812 313.355882 
L 163.010843 313.244925 
L 163.222969 312.804149 
L 163.234754 312.82349 
L 163.240646 312.842832 
L 163.293678 312.677923 
L 163.29957 312.677923 
L 163.32314 312.6993 
L 163.458665 312.480439 
L 163.535266 312.53948 
L 163.505804 312.392895 
L 163.54705 312.405619 
L 163.664898 312.020322 
L 163.57062 312.443284 
L 163.682575 312.232057 
L 163.700253 312.339961 
L 163.747392 311.870683 
L 163.906486 310.817097 
L 163.935948 310.837456 
L 163.94184 310.817097 
L 163.947733 310.857816 
L 163.977195 308.267115 
L 164.059688 309.738063 
L 164.08915 310.180874 
L 164.100935 309.10693 
L 164.106827 308.709926 
L 164.195213 309.860218 
L 164.413231 311.305717 
L 164.419124 311.285358 
L 164.46037 311.488949 
L 164.63125 312.063077 
L 164.684281 312.020322 
L 164.772667 312.287027 
L 164.843376 312.392895 
L 164.973008 312.586306 
L 165.361906 312.688611 
L 165.54457 313.068818 
L 166.03953 313.170105 
L 166.175055 313.25205 
L 166.646446 313.355882 
L 166.711262 313.403522 
L 166.728939 313.302948 
L 166.746616 313.302948 
L 166.905711 313.413397 
L 167.035343 313.423271 
L 168.744135 313.525881 
L 168.861983 313.510204 
L 168.991616 313.510204 
L 169.197849 313.547665 
L 169.404083 313.543899 
L 169.498361 313.545782 
L 169.52193 313.498396 
L 169.645671 313.485773 
L 262.568606 313.58594 
L 262.6511 294.000448 
L 262.698239 297.359706 
L 262.75127 304.556662 
L 262.792517 296.779471 
L 262.827871 301.492612 
L 262.992858 310.430274 
L 263.181415 312.5746 
L 263.676375 313.327379 
L 270.953472 313.58594 
L 340.872531 313.58594 
L 340.937347 312.515558 
L 340.978594 313.565276 
L 341.096442 313.58594 
L 342.168856 313.58594 
L 342.210103 303.42673 
L 342.286704 309.860218 
L 342.434013 313.321271 
L 342.652032 313.540132 
L 343.088068 313.554384 
L 343.200024 299.120772 
L 343.211809 300.683336 
L 343.28841 309.066211 
L 344.001388 300.209986 
L 344.113344 225.227277 
L 344.095666 304.790792 
L 344.136913 267.930571 
L 345.380207 313.58594 
L 345.433238 313.58594 
L 345.450915 312.218315 
L 345.539301 313.571994 
L 345.816243 313.580443 
L 345.845705 313.580443 
L 345.886952 312.621426 
L 345.957661 313.423271 
L 345.969445 312.56442 
L 345.987123 312.893729 
L 345.998907 266.709023 
L 346.099078 300.454296 
L 346.116755 301.187225 
L 347.360049 313.58594 
L 348.674051 313.498192 
L 348.774221 310.857816 
L 348.791899 311.158113 
L 348.803683 311.264998 
L 348.974563 313.485773 
L 366.39835 313.58594 
L 366.433704 309.600639 
L 366.52209 312.005053 
L 366.628153 313.015884 
L 370.611406 313.45727 
L 370.776393 270.78085 
L 370.788178 273.325743 
L 371.129936 305.966532 
L 371.135828 305.930904 
L 371.153505 306.399164 
L 373.245303 313.485773 
L 388.382844 313.515192 
L 388.388736 313.320661 
L 388.400521 313.58594 
L 391.900598 313.58594 
L 391.95363 313.165524 
L 392.006661 313.58594 
L 397.604429 313.58594 
L 397.610321 312.613282 
L 397.710492 313.58594 
L 401.522866 313.58594 
L 401.53465 311.214101 
L 401.628929 313.58594 
L 403.443784 313.58594 
L 403.461461 310.066354 
L 403.473246 286.610081 
L 403.53217 307.539276 
L 407.774688 313.58594 
L 414.645211 313.58594 
L 414.768951 300.316871 
L 414.804305 303.060265 
L 414.928045 309.269803 
L 414.969292 308.572502 
L 415.228557 312.804149 
L 415.275696 312.842832 
L 418.080472 313.583141 
L 418.19832 313.58594 
L 418.327952 313.58594 
L 418.4458 312.313494 
L 418.457585 312.366428 
L 418.469369 312.339961 
L 418.498831 312.64433 
L 418.516508 312.709988 
L 418.575432 312.456008 
L 418.581325 312.456008 
L 418.616679 312.443793 
L 418.640249 312.5746 
L 418.705065 312.960915 
L 418.769881 312.773611 
L 418.84059 312.893729 
L 418.805235 312.731365 
L 418.881836 312.79397 
L 418.917191 312.53948 
L 418.952545 312.804149 
L 419.005577 312.655528 
L 419.017361 312.688611 
L 419.046823 312.431068 
L 419.058608 312.443793 
L 419.076285 312.492145 
L 419.164671 312.853011 
L 419.194133 312.633133 
L 419.200025 312.598013 
L 419.270734 312.81382 
L 419.276626 312.80364 
L 419.282519 312.813311 
L 419.300196 312.731365 
L 419.323765 312.405619 
L 419.394474 312.81382 
L 419.400366 312.81382 
L 419.512322 312.903909 
L 419.524107 312.893729 
L 419.559461 312.843341 
L 419.541784 312.903909 
L 419.624277 312.914089 
L 419.712663 313.124297 
L 419.765694 313.101393 
L 419.771587 313.076962 
L 419.85408 313.193009 
L 420.325471 313.302948 
L 420.472781 313.398229 
L 420.484566 313.382349 
L 420.908817 313.492085 
L 421.062019 313.498396 
L 443.582721 313.497632 
L 443.588613 311.530685 
L 443.653429 313.58594 
L 443.688784 313.58594 
L 444.065897 313.58594 
L 444.077681 312.781754 
L 444.177852 313.392936 
L 444.325162 313.58594 
L 444.51961 313.58594 
L 444.531395 312.428014 
L 444.54318 313.184865 
L 450.871603 313.58594 
L 464.371061 313.58594 
L 464.471231 311.592781 
L 464.512478 311.696612 
L 464.51837 311.839635 
L 464.536047 309.712614 
L 464.577294 307.661431 
L 464.64211 309.620998 
L 464.783528 311.729187 
L 465.031008 313.58594 
L 465.054577 313.58594 
L 465.078147 310.939252 
L 465.172425 312.120082 
L 465.302058 312.88355 
L 465.349197 312.804149 
L 465.378659 312.88355 
L 465.472937 313.068818 
L 465.561323 295.720796 
L 465.596677 304.215646 
L 465.661493 303.90517 
L 465.743987 308.297654 
L 465.779341 309.157827 
L 468.289498 309.646447 
L 468.29539 309.788961 
L 468.307175 308.39436 
L 468.31896 308.989865 
L 468.354314 240.191244 
L 468.454484 283.708904 
L 468.460377 283.352619 
L 468.489839 288.035221 
L 468.660718 301.53333 
L 468.672503 301.53333 
L 468.725534 301.716562 
L 468.772673 289.154973 
L 468.843382 297.095038 
L 469.992397 310.918893 
L 470.015967 309.931475 
L 470.033644 309.626088 
L 470.09846 310.730571 
L 470.163277 311.64775 
L 470.210416 310.76111 
L 470.263447 311.427871 
L 470.345941 311.061407 
L 470.351833 311.041048 
L 470.387187 311.244639 
L 470.463788 311.581074 
L 470.487358 311.137754 
L 470.505035 311.041048 
L 470.528604 311.249729 
L 470.61699 311.696612 
L 470.64056 311.346435 
L 470.646452 311.285358 
L 470.675914 311.824875 
L 470.711268 311.745474 
L 470.717161 311.712899 
L 470.78787 311.93176 
L 470.923394 312.120082 
L 470.805547 311.824875 
L 470.952856 312.063077 
L 470.994103 312.162836 
L 471.064812 312.177088 
L 471.070704 312.148585 
L 471.106058 311.824875 
L 471.164982 312.177088 
L 471.182659 312.063077 
L 471.235691 312.148585 
L 471.377108 312.287027 
L 471.836714 312.19083 
L 471.919208 312.063077 
L 471.942777 312.148585 
L 472.042948 312.339961 
L 472.07241 312.287027 
L 472.555585 312.392895 
L 472.643971 303.18242 
L 472.708788 306.26683 
L 472.779496 308.429988 
L 472.932698 310.491351 
L 472.96216 310.572788 
L 473.168394 311.564278 
L 473.250887 311.631463 
L 473.409982 312.063077 
L 473.457121 312.162836 
L 473.616215 312.287027 
L 473.698708 310.684763 
L 473.710493 309.544651 
L 473.75174 187.868256 
L 473.828341 278.873608 
L 473.981543 299.894419 
L 474.087606 304.790792 
L 475.761044 312.970076 
L 475.766936 312.946663 
L 475.772829 312.932412 
L 475.82586 313.088159 
L 476.709718 313.566497 
L 477.658392 313.58594 
L 546.640561 313.58594 
L 546.652346 313.280248 
L 546.746624 313.58594 
L 554.129785 313.490201 
L 554.135677 313.44536 
L 554.159247 313.58594 
L 554.224063 313.58594 
L 570.787561 313.58594 
L 570.811131 309.544651 
L 570.828808 254.849824 
L 570.923086 294.478888 
L 570.976118 304.770433 
L 573.291826 313.58594 
L 573.509844 313.58594 
L 573.539306 307.44766 
L 573.633584 312.492145 
L 573.792679 313.58594 
L 573.822141 313.58594 
L 573.833925 297.329168 
L 573.934096 306.892873 
L 574.069621 312.142477 
L 575.047757 312.977711 
L 575.077219 313.278517 
L 575.094896 227.619476 
L 575.189174 299.701007 
L 575.371838 312.287027 
L 575.389515 312.366428 
L 575.483794 312.804149 
L 576.073032 312.730856 
L 576.220342 311.249729 
L 576.238019 311.041048 
L 576.291051 311.461973 
L 576.408898 312.586306 
L 576.420683 312.338943 
L 576.444253 311.562242 
L 576.526746 312.392895 
L 576.544423 312.492654 
L 576.550316 312.40511 
L 576.597455 310.694942 
L 576.662271 311.93176 
L 576.679948 312.120082 
L 576.68584 311.053772 
L 576.703518 306.129406 
L 576.797796 309.671896 
L 576.803688 309.763512 
L 576.809581 308.374001 
L 576.821365 297.293539 
L 576.921536 304.785702 
L 576.933321 305.574619 
L 576.939213 300.10819 
L 576.992245 294.417811 
L 577.045276 301.670754 
L 577.086523 304.821331 
L 577.092415 301.686023 
L 577.098307 291.750764 
L 577.198478 302.103386 
L 577.245617 305.32522 
L 577.257402 297.619285 
L 577.310433 302.775237 
L 577.387034 306.668923 
L 577.398819 302.729429 
L 577.404712 302.057578 
L 577.481313 305.824018 
L 577.646299 309.936565 
L 577.858425 311.427871 
L 577.881995 311.488949 
L 577.988058 311.885952 
L 578.01752 311.824875 
L 578.094121 311.885952 
L 578.129475 311.94703 
L 578.200184 311.885952 
L 578.235538 311.991311 
L 578.253215 312.006071 
L 578.777638 311.568859 
L 578.901378 287.119059 
L 578.942624 294.931879 
L 579.101719 307.630892 
L 579.296168 310.328478 
L 579.366876 310.97997 
L 580.062178 312.374571 
L 580.291981 312.229004 
L 580.33912 312.107867 
L 580.398044 312.21068 
L 580.509999 312.354212 
L 580.521784 312.352176 
L 580.616062 312.227986 
L 580.651417 312.166908 
L 580.686771 312.27074 
L 580.722125 312.264632 
L 581.034422 312.372536 
L 581.040314 312.423433 
L 581.075668 312.313494 
L 581.146377 312.406637 
L 581.340826 312.381697 
L 583.69778 312.331308 
L 583.709565 312.480439 
L 587.37463 313.58594 
L 615.693439 313.497582 
L 617.649712 312.394422 
L 617.673281 312.445828 
L 617.797021 312.545588 
L 617.962008 312.641276 
L 618.132887 312.855047 
L 618.221273 312.936484 
L 618.345013 313.048459 
L 618.604278 313.148219 
L 618.751588 313.288188 
L 618.92836 313.321271 
L 619.234764 313.360463 
L 619.246548 312.859119 
L 619.346719 313.214386 
L 619.352611 313.193009 
L 619.370289 278.008345 
L 619.476351 298.428561 
L 619.659015 308.190768 
L 619.676693 308.282384 
L 619.723832 309.10184 
L 619.847572 310.063809 
L 619.853464 310.023091 
L 619.91828 308.333282 
L 619.983097 309.595549 
L 620.024343 310.124887 
L 630.359589 286.202898 
L 630.424406 283.861597 
L 630.377267 287.882527 
L 630.45976 286.915468 
L 630.471545 287.882527 
L 630.512791 282.589151 
L 630.542253 242.328953 
L 630.559931 127.299818 
L 630.648316 294.748647 
L 630.73081 299.319274 
L 630.736702 295.878579 
L 630.742595 286.915468 
L 630.842765 297.619285 
L 631.072568 307.544366 
L 631.390757 290.228918 
L 631.426111 259.481528 
L 631.514497 269.101221 
L 631.52039 268.541345 
L 631.555744 274.394598 
L 631.679484 298.438741 
L 631.708946 298.331855 
L 632.268723 309.839859 
L 632.581019 311.448231 
L 632.628158 311.422782 
L 632.645835 311.616194 
L 632.669405 311.624846 
L 632.687082 311.526613 
L 632.692974 311.499128 
L 632.728329 311.791282 
L 632.799037 312.36032 
L 639.999534 313.58594 
L 675.831136 313.58594 
L 675.831136 313.58594 
" clip-path="url(#p6f531c5852)" style="fill: none; stroke: #1f77b4; stroke-width: 1.5; stroke-linecap: square"/>
   </g>
   <g id="line2d_16">
    <path d="M 76.003864 313.58594 
L 77.123417 313.498255 
L 77.146987 313.196692 
L 77.241265 313.286006 
L 77.25305 313.304862 
L 77.258942 313.226285 
L 77.276619 313.062696 
L 77.370897 313.187591 
L 77.765687 313.450391 
L 77.812826 313.497537 
L 77.842288 311.067404 
L 77.954244 311.751676 
L 77.960136 311.797311 
L 77.977813 311.612875 
L 77.983706 311.633994 
L 78.11923 308.25049 
L 78.349033 310.753723 
L 78.679007 312.435606 
L 79.014873 313.126177 
L 79.391986 313.421756 
L 79.509834 313.467785 
L 79.515726 313.452282 
L 79.545188 312.937866 
L 79.639466 313.086901 
L 80.010686 313.40484 
L 80.476185 313.564085 
L 80.523324 312.731507 
L 80.599925 312.89689 
L 80.641172 312.980061 
L 80.647064 312.899091 
L 80.676526 311.507772 
L 80.782589 312.046312 
L 81.065424 312.794186 
L 81.088993 312.13518 
L 81.183271 312.401617 
L 81.336473 312.743527 
L 81.342366 312.662229 
L 81.365935 310.459716 
L 81.460214 311.21005 
L 81.790187 312.620948 
L 82.131946 313.20641 
L 82.526736 313.456794 
L 82.892064 313.550886 
L 82.915633 313.228463 
L 83.015804 313.321557 
L 83.463625 313.508104 
L 83.8702 313.570351 
L 83.876092 313.487537 
L 83.988047 312.179267 
L 84.070541 312.471518 
L 84.406407 313.14053 
L 84.789412 313.42942 
L 85.366866 313.553596 
L 85.702732 313.543042 
L 85.743979 311.127744 
L 85.861826 311.811917 
L 86.1918 312.865402 
L 86.539451 313.307033 
L 86.557128 313.309125 
L 86.580697 312.841495 
L 86.674976 313.019804 
L 86.786931 313.043758 
L 86.728007 312.939723 
L 86.792823 313.021263 
L 86.810501 312.98017 
L 86.881209 313.088984 
L 87.211183 313.387868 
L 87.217075 313.359882 
L 87.270107 313.033773 
L 87.293676 311.501945 
L 87.387954 311.986716 
L 87.717928 312.936399 
L 88.071471 313.338566 
L 88.430907 313.447001 
L 89.043715 313.559872 
L 90.988203 313.585811 
L 91.765998 313.486531 
L 91.783675 313.340895 
L 91.883845 313.402703 
L 92.41416 313.542874 
L 93.728162 313.584749 
L 97.010222 313.515357 
L 97.033791 312.969704 
L 97.128069 313.121349 
L 97.505182 313.420032 
L 98.064959 313.549961 
L 99.331822 313.58858 
L 99.355391 313.491033 
L 99.455562 313.516009 
L 100.380667 313.582201 
L 100.398344 313.281494 
L 100.480837 306.834199 
L 100.504407 304.286559 
L 100.592793 306.084261 
L 100.922766 310.539056 
L 101.217386 312.059861 
L 101.246848 312.174447 
L 101.25274 311.968747 
L 101.282202 310.618143 
L 101.37648 311.308373 
L 101.706454 312.660883 
L 102.048212 313.222116 
L 102.448894 313.464115 
L 102.53728 313.500386 
L 102.543173 313.418262 
L 102.572635 312.697452 
L 102.68459 312.925155 
L 103.038133 313.334284 
L 103.497739 313.514197 
L 104.416952 313.58011 
L 106.343762 313.526591 
L 106.567673 309.082583 
L 106.691413 310.310212 
L 106.70909 310.477031 
L 106.726767 309.71965 
L 106.885861 300.223722 
L 106.938893 301.69851 
L 107.268867 308.567462 
L 107.422069 308.72638 
L 107.752042 311.61218 
L 108.082016 312.784277 
L 108.429667 313.275679 
L 108.853919 313.488526 
L 109.066045 313.522728 
L 109.166215 310.051143 
L 109.260493 310.791471 
L 109.519758 311.922624 
L 109.596359 312.22546 
L 109.614036 311.898221 
L 109.619929 311.825376 
L 109.69653 312.167476 
L 110.032396 313.019012 
L 110.397724 313.376866 
L 110.892684 313.531822 
L 110.998747 313.550976 
L 111.00464 313.503109 
L 111.146057 313.084246 
L 111.240335 313.20655 
L 111.25212 313.078937 
L 111.322829 312.011387 
L 111.422999 312.373528 
L 111.758865 313.101366 
L 112.077054 313.381534 
L 112.082946 313.376884 
L 112.200794 310.643081 
L 112.253826 310.937865 
L 112.583799 312.510484 
L 112.919665 313.156104 
L 113.05519 313.300168 
L 113.061083 313.185513 
L 113.208392 309.418039 
L 113.226069 309.607867 
L 113.396949 310.956039 
L 113.432303 310.645768 
L 113.444088 310.55859 
L 113.497119 310.87289 
L 113.756384 311.968469 
L 114.086358 312.928987 
L 114.439901 313.335744 
L 114.899507 313.514613 
L 115.824612 313.580236 
L 118.293522 313.51484 
L 118.405477 313.517915 
L 119.360044 313.58092 
L 119.495569 313.486111 
L 119.530923 313.082685 
L 119.625201 313.198694 
L 119.67234 313.25029 
L 119.684125 313.217273 
L 119.719479 311.442998 
L 119.84322 312.048201 
L 120.179086 312.97134 
L 120.538521 313.355609 
L 121.015804 313.523371 
L 122.023403 313.581945 
L 126.843375 313.601274 
L 126.872837 313.108071 
L 126.967115 313.21616 
L 127.367797 313.46212 
L 128.021852 313.565183 
L 130.367022 313.585906 
L 130.83252 313.602276 
L 130.891444 313.134553 
L 130.956261 313.210269 
L 131.009292 313.24982 
L 131.032862 312.785886 
L 131.12714 312.976826 
L 131.427651 313.327875 
L 131.451221 313.084274 
L 131.545499 313.204272 
L 131.669239 313.322697 
L 131.681024 313.270599 
L 131.704594 312.25329 
L 131.798872 312.579043 
L 132.093491 313.064146 
L 132.464711 313.396582 
L 132.547205 313.469796 
L 132.665053 311.765031 
L 132.688622 311.770853 
L 132.706299 311.555967 
L 132.7829 311.929909 
L 133.112874 312.913326 
L 133.407493 313.328641 
L 133.431063 312.05918 
L 133.531233 312.287266 
L 133.584265 312.427577 
L 133.672651 312.679167 
L 133.702113 312.449114 
L 133.772821 312.615228 
L 133.790498 310.750781 
L 133.908346 309.017746 
L 133.914239 309.056543 
L 133.9437 309.278763 
L 134.032086 310.189425 
L 134.049763 309.472973 
L 134.061548 309.153487 
L 134.144042 309.908122 
L 134.474015 312.092156 
L 134.73328 312.914454 
L 134.803989 307.129514 
L 134.892375 308.375537 
L 135.222348 311.469681 
L 135.552322 312.7264 
L 135.89408 313.247884 
L 136.306547 313.476328 
L 136.919356 313.575432 
L 136.942925 313.316401 
L 137.043096 313.386941 
L 137.549841 313.536061 
L 137.62055 313.523668 
L 137.626442 313.446081 
L 137.703043 312.156122 
L 137.72072 310.484938 
L 137.820891 311.261602 
L 138.150864 312.641886 
L 138.492623 313.214645 
L 138.893305 313.461613 
L 139.117216 313.523757 
L 139.123108 313.477601 
L 139.146678 313.282149 
L 139.240956 313.352372 
L 139.712347 313.521462 
L 140.702268 313.58162 
L 142.55837 313.616334 
L 142.581939 312.732774 
L 142.68211 312.939521 
L 142.699787 312.976585 
L 142.717464 312.856963 
L 142.888343 310.839444 
L 142.935482 311.189459 
L 143.006191 311.693889 
L 143.118146 306.108186 
L 143.159393 306.289278 
L 143.171178 306.275038 
L 143.188855 306.404707 
L 143.230102 306.971257 
L 143.265456 305.978114 
L 143.271348 305.908988 
L 143.312595 306.71104 
L 143.642569 310.793628 
L 143.972542 312.451814 
L 144.308408 313.132655 
L 144.685521 313.424069 
L 144.821046 313.502052 
L 144.938894 310.469665 
L 144.991925 310.905219 
L 145.192266 312.053573 
L 145.209944 311.752343 
L 145.215836 311.662174 
L 145.304222 311.94425 
L 145.321899 312.026383 
L 145.345468 311.705483 
L 145.363146 311.377182 
L 145.451531 311.690614 
L 145.52224 312.034546 
L 145.54581 311.63584 
L 145.551702 311.62114 
L 145.610626 311.7529 
L 145.946492 312.853277 
L 146.294143 313.302384 
L 146.730179 313.49973 
L 147.543329 313.57658 
L 149.735296 313.534977 
L 149.782436 312.461022 
L 149.811897 311.891291 
L 149.900283 312.148785 
L 150.236149 313.011541 
L 150.595585 313.370675 
L 151.084653 313.529315 
L 152.16296 313.58296 
L 153.264836 313.541993 
L 153.30019 311.951674 
L 153.341437 310.454586 
L 153.42393 311.076121 
L 153.700873 312.205044 
L 154.013169 313.000933 
L 154.019061 312.971052 
L 154.060308 312.086625 
L 154.154586 312.41396 
L 154.172263 312.472457 
L 154.189941 312.338044 
L 154.248865 307.296984 
L 154.390282 309.293348 
L 154.720255 311.84246 
L 155.050229 312.877807 
L 155.12683 313.015928 
L 155.138615 312.879278 
L 155.256463 310.121477 
L 155.315386 310.522328 
L 155.64536 312.341621 
L 155.981226 313.088613 
L 156.352447 313.405461 
L 156.888654 313.544199 
L 158.232118 313.584858 
L 162.451067 313.496377 
L 162.50999 310.081992 
L 162.55713 307.675665 
L 162.627838 308.312079 
L 162.674977 308.681261 
L 163.004951 311.593535 
L 163.334925 312.776704 
L 163.552943 313.165222 
L 163.588297 311.498379 
L 163.69436 312.034896 
L 164.024334 312.955967 
L 164.383769 313.349848 
L 164.743205 313.501233 
L 164.749097 313.471436 
L 164.766774 313.40913 
L 164.866945 313.453706 
L 165.49743 313.562299 
L 166.711262 313.595314 
L 166.799648 312.001781 
L 166.899818 312.352594 
L 167.235684 313.092999 
L 167.606905 313.407053 
L 168.143112 313.544568 
L 169.080001 313.559071 
L 169.103571 313.40047 
L 169.197849 313.444249 
L 169.345159 313.493768 
L 169.356944 313.401839 
L 169.409975 312.002419 
L 169.516038 312.327784 
L 169.851904 313.083083 
L 170.223124 313.403454 
L 170.753439 313.543051 
L 172.073334 313.584773 
L 173.835157 313.606877 
L 173.864619 312.897798 
L 173.958897 313.054117 
L 174.324225 313.389812 
L 174.836863 313.537565 
L 174.942926 313.528286 
L 174.948818 313.452004 
L 175.019527 312.15723 
L 175.12559 312.513306 
L 175.461456 313.157232 
L 175.844461 313.43529 
L 176.4337 313.555795 
L 178.160169 313.58567 
L 181.465798 313.68358 
L 181.489367 310.99611 
L 181.589538 311.571247 
L 181.795772 312.106014 
L 181.819341 312.100876 
L 181.848803 312.218417 
L 182.143422 313.005638 
L 182.208239 312.143714 
L 182.267163 312.342678 
L 182.326086 312.528707 
L 182.337871 312.334683 
L 182.502858 308.217459 
L 182.591244 308.819049 
L 182.921217 311.649828 
L 183.251191 312.799568 
L 183.598842 313.312716 
L 183.757936 307.715782 
L 183.81686 308.61479 
L 184.146834 311.566856 
L 184.476807 312.765868 
L 184.824458 313.268555 
L 185.018907 313.40559 
L 185.030692 313.315771 
L 185.042477 313.254527 
L 185.136755 313.333528 
L 185.154432 313.348234 
L 185.172109 313.232045 
L 185.183894 313.181594 
L 185.27228 313.270009 
L 185.319419 313.328956 
L 185.454944 311.387779 
L 185.466728 311.218211 
L 185.543329 311.642936 
L 185.873303 312.796769 
L 186.220954 313.280514 
L 186.645206 313.490044 
L 187.405324 313.573906 
L 188.094733 313.540873 
L 188.118302 312.959388 
L 188.218473 313.122911 
L 188.595586 313.42059 
L 189.043407 313.499751 
L 189.084654 313.529273 
L 189.108223 312.236402 
L 189.208394 312.587427 
L 189.550152 313.193227 
L 189.944942 313.452308 
L 190.528288 313.584815 
L 190.563643 312.660416 
L 190.657921 312.879249 
L 190.928971 313.251116 
L 190.934863 313.209939 
L 190.958433 312.31906 
L 191.052711 312.622615 
L 191.111635 312.700921 
L 191.117527 312.524985 
L 191.152881 311.63858 
L 191.24716 311.982731 
L 191.49464 312.705706 
L 191.506425 312.644831 
L 191.535887 311.04279 
L 191.583026 304.546114 
L 191.665519 305.646464 
L 192.13691 311.341824 
L 192.466884 312.674469 
L 192.808642 313.22746 
L 193.215217 313.46782 
L 193.333064 313.510379 
L 193.338957 313.428521 
L 193.356634 313.255402 
L 193.456805 313.34054 
L 193.922303 313.517097 
L 194.069613 313.549955 
L 194.075505 313.467466 
L 194.205138 310.81415 
L 194.33477 311.665373 
L 194.434941 312.134038 
L 194.476187 311.863104 
L 194.48208 311.840125 
L 194.535111 312.043279 
L 194.617605 312.364726 
L 194.641174 312.018309 
L 194.658851 311.856885 
L 194.735452 312.188459 
L 194.800269 312.418959 
L 194.823838 312.208228 
L 194.8533 309.617746 
L 194.947578 310.500251 
L 195.277552 312.332656 
L 195.613418 313.08503 
L 195.984638 313.404161 
L 196.514953 313.543217 
L 197.599152 313.587499 
L 197.717 313.331625 
L 197.752354 313.357006 
L 198.229638 313.523751 
L 199.013325 313.584916 
L 199.060464 312.584738 
L 199.095818 311.194278 
L 199.178312 311.682898 
L 199.337406 312.317032 
L 199.355083 312.188787 
L 199.425792 310.354068 
L 199.478824 310.798343 
L 199.808797 312.453729 
L 200.144663 313.13342 
L 200.191802 313.190419 
L 200.203587 313.104869 
L 200.250726 312.260426 
L 200.350897 312.566995 
L 200.692655 313.18519 
L 201.081553 313.447362 
L 201.694361 313.559939 
L 202.784452 313.611848 
L 202.878731 311.924997 
L 202.931762 312.144318 
L 203.04961 312.255693 
L 202.990686 312.113468 
L 203.055502 312.224818 
L 203.096749 311.830877 
L 203.120318 310.962 
L 203.214597 311.498109 
L 203.54457 312.737946 
L 203.886329 313.252425 
L 204.298796 313.4778 
L 204.369504 313.500762 
L 204.387182 313.405952 
L 204.428428 311.318556 
L 204.58163 309.103438 
L 205.029452 312.261688 
L 205.141407 312.6206 
L 205.159084 312.450558 
L 205.259255 309.523912 
L 205.341748 310.311895 
L 205.671722 312.256153 
L 206.007588 313.054454 
L 206.372916 313.389936 
L 206.885553 313.537596 
L 208.093493 313.584154 
L 210.049765 313.597159 
L 210.073335 313.012166 
L 210.173505 313.163059 
L 210.356169 313.335421 
L 210.367954 313.247824 
L 210.379739 313.188732 
L 210.468125 313.277802 
L 210.892376 313.489192 
L 211.652494 313.573799 
L 213.337717 313.615187 
L 213.373071 311.858959 
L 213.473242 312.277252 
L 213.809108 313.062886 
L 214.174436 313.393046 
L 214.692966 313.539122 
L 215.329343 313.52727 
L 215.376482 313.083587 
L 215.476653 313.206306 
L 215.871443 313.456759 
L 216.507821 313.563213 
L 217.980917 313.592362 
L 218.010379 312.687345 
L 218.057518 306.033978 
L 218.157689 307.197546 
L 218.216613 306.889197 
L 218.87656 312.479103 
L 219.212426 313.143562 
L 219.595431 313.430486 
L 220.172885 313.553817 
L 221.46921 313.589881 
L 221.504564 313.196539 
L 221.61652 313.30058 
L 221.822753 313.435185 
L 221.917032 311.90737 
L 221.952386 312.066534 
L 222.288252 312.978668 
L 222.647687 313.358356 
L 223.124971 313.524117 
L 223.561007 313.542619 
L 223.5669 313.48955 
L 223.619931 312.075939 
L 223.737779 312.478108 
L 224.073645 313.143164 
L 224.45665 313.430346 
L 225.034104 313.553788 
L 226.67808 313.585579 
L 233.365939 313.574848 
L 233.389508 313.090655 
L 233.489679 313.218384 
L 233.890361 313.462865 
L 234.344075 313.554056 
L 234.349967 313.523416 
L 234.367644 313.458661 
L 234.467815 313.490985 
L 234.485492 313.516557 
L 234.514954 311.330556 
L 234.650479 311.445104 
L 234.70351 311.70885 
L 234.738865 311.555606 
L 234.82725 302.310825 
L 234.956883 305.235862 
L 235.015807 305.131683 
L 235.227933 308.872626 
L 235.557906 311.671579 
L 235.805387 312.620341 
L 235.817171 312.453973 
L 235.834849 312.29452 
L 235.91145 312.546535 
L 235.917342 312.534936 
L 235.923234 312.656912 
L 235.940912 311.029866 
L 235.946804 310.518488 
L 236.046974 311.271796 
L 236.270885 311.97125 
L 236.600859 312.930117 
L 236.930832 313.322651 
L 236.94851 312.911342 
L 236.966187 312.228979 
L 237.066357 312.553446 
L 237.408116 313.179862 
L 237.797013 313.445519 
L 238.403929 313.559166 
L 238.863535 313.592967 
L 238.892997 313.038465 
L 238.993168 313.170017 
L 239.010845 313.221624 
L 239.034414 312.432813 
L 239.128693 312.713709 
L 239.440989 313.218147 
L 239.446882 313.19183 
L 239.476343 312.912644 
L 239.488128 312.042162 
L 242.180949 311.760036 
L 242.186841 311.493384 
L 242.281119 311.977998 
L 242.5286 312.782524 
L 242.534492 312.668314 
L 242.558062 312.290666 
L 242.599308 312.429977 
L 245.893152 312.553105 
L 246.234911 313.179727 
L 246.623808 313.445473 
L 247.230724 313.559157 
L 247.342679 313.476854 
L 247.484097 312.6979 
L 247.572483 312.8906 
L 247.926026 313.321124 
L 248.373847 313.507977 
L 249.24592 313.578734 
L 251.479135 313.550248 
L 251.549843 313.187963 
L 251.644122 313.218932 
L 252.563334 313.410872 
L 254.97332 313.585203 
L 256.310892 313.50323 
L 256.334461 312.475848 
L 256.375708 311.003759 
L 256.458201 311.432879 
L 256.464094 311.481599 
L 256.493556 310.960795 
L 256.564264 310.389567 
L 256.611404 310.720536 
L 256.929592 312.340017 
L 257.006193 312.592227 
L 257.017978 312.371216 
L 257.053332 310.626801 
L 257.147611 311.305968 
L 257.477584 312.659906 
L 257.819343 313.222183 
L 257.831128 313.239552 
L 257.848805 313.131395 
L 257.854697 313.098838 
L 257.943083 313.207183 
L 258.243595 313.425504 
L 258.249487 313.37615 
L 258.267164 313.2732 
L 258.361442 313.348016 
L 258.685524 313.497796 
L 258.779802 312.769822 
L 258.838726 312.892393 
L 259.192269 313.321807 
L 259.64009 313.508178 
L 260.512163 313.578752 
L 262.23274 313.514781 
L 262.344696 313.424029 
L 262.362373 313.434399 
L 262.38005 313.449449 
L 262.385942 313.370208 
L 262.497898 306.571632 
L 262.62753 307.762262 
L 262.656992 306.720451 
L 262.757163 307.597057 
L 263.057674 310.672303 
L 263.387648 312.402536 
L 263.611559 312.947554 
L 263.635128 312.866347 
L 263.658698 312.753699 
L 263.676375 312.795049 
L 268.820428 312.912554 
L 269.173972 313.329485 
L 269.627685 313.511643 
L 270.523328 313.579501 
L 272.685834 313.512757 
L 272.780112 312.964354 
L 272.833144 313.055153 
L 273.198472 313.390194 
L 273.711109 313.537659 
L 274.919048 313.584156 
L 276.792827 313.543046 
L 276.816397 313.343514 
L 276.910675 313.39981 
L 277.435098 313.541485 
L 278.719638 313.584608 
L 284.42936 313.514847 
L 284.541316 313.51792 
L 284.712195 313.565913 
L 284.735764 312.982867 
L 284.835935 313.140772 
L 285.106985 313.37734 
L 285.11877 313.326628 
L 285.130554 313.29296 
L 285.21894 313.35812 
L 285.260187 313.388674 
L 285.277864 313.27349 
L 285.283756 313.238665 
L 285.378035 313.32132 
L 285.825856 313.508034 
L 285.955488 313.537545 
L 285.967273 313.443548 
L 285.979058 313.378257 
L 286.079229 313.431537 
L 286.096906 313.449055 
L 286.102798 313.368177 
L 286.120475 313.197901 
L 286.214753 313.292109 
L 286.544727 313.470911 
L 286.55062 313.430137 
L 286.580081 312.843995 
L 286.680252 313.026301 
L 286.703822 313.073695 
L 286.715606 312.898857 
L 286.727391 312.781016 
L 286.821669 312.887535 
L 287.057365 313.098086 
L 287.240029 313.295965 
L 287.257706 313.185128 
L 287.310737 312.301037 
L 287.31663 312.182059 
L 287.4168 312.284268 
L 287.528756 312.665543 
L 287.552325 309.768981 
L 287.646603 310.7051 
L 287.882299 312.122123 
L 287.888191 311.719105 
L 287.976577 299.625726 
L 288.112102 301.828211 
L 288.241734 305.179416 
L 288.259412 303.434502 
L 288.265304 302.911771 
L 288.347797 305.132714 
L 288.654202 309.640922 
L 288.984175 311.98363 
L 289.314149 312.935145 
L 289.644122 313.325385 
L 289.667692 313.244243 
L 289.756078 313.319851 
L 290.203899 313.507602 
L 290.852062 313.573828 
L 290.857954 313.545938 
L 290.881524 312.956697 
L 290.981694 313.117588 
L 291.21739 313.343132 
L 291.229174 313.273621 
L 291.270421 312.437667 
L 291.370592 312.714139 
L 291.494332 312.976943 
L 291.506117 312.808679 
L 291.529686 312.633461 
L 291.61218 312.828507 
L 291.83609 313.18125 
L 291.853767 313.07584 
L 291.85966 313.04417 
L 291.942153 313.16117 
L 291.95983 313.106498 
L 292.042324 313.190003 
L 292.065893 313.117299 
L 292.154279 313.225932 
L 292.166064 313.113305 
L 292.35462 308.94958 
L 292.37819 309.228438 
L 292.490145 309.818504 
L 292.407652 308.911774 
L 292.496038 309.662467 
L 292.519607 303.376789 
L 300.598069 303.486092 
L 300.880904 308.929481 
L 301.210877 311.694671 
L 301.540851 312.817782 
L 301.888502 313.288646 
L 302.312754 313.489545 
L 303.072871 313.573844 
L 303.962622 313.517995 
L 303.986191 313.19221 
L 304.080469 313.283764 
L 304.510614 313.492578 
L 304.811125 313.549008 
L 304.82291 313.497949 
L 304.858265 312.005135 
L 305.017359 305.341689 
L 305.771584 312.285191 
L 306.10745 313.066059 
L 306.478671 313.397276 
L 306.561164 313.439996 
L 306.572949 313.398931 
L 306.614196 312.631824 
L 306.708474 312.850525 
L 307.056125 313.301319 
L 307.492161 313.499406 
L 308.305311 313.576545 
L 308.770809 313.507093 
L 308.823841 312.213308 
L 308.935796 312.564767 
L 309.277554 313.184314 
L 309.666452 313.447059 
L 310.27926 313.559882 
L 312.223748 313.585811 
L 314.810505 313.494753 
L 314.84586 313.203662 
L 314.934245 313.287821 
L 315.36439 313.493832 
L 316.148077 313.575102 
L 318.805543 313.5437 
L 318.858575 311.560091 
L 318.982315 309.536948 
L 319.005885 309.76904 
L 319.335858 312.035657 
L 319.665832 312.956276 
L 320.025267 313.349964 
L 320.496658 313.520798 
L 321.474795 313.581433 
L 325.746775 313.532275 
L 325.864623 313.51792 
L 326.77205 313.586034 
L 326.801512 312.678706 
L 326.830974 311.503653 
L 326.91936 311.934718 
L 327.249333 312.915279 
L 327.602877 313.330523 
L 328.05659 313.511944 
L 328.958125 313.579629 
L 335.822756 313.58594 
L 336.724291 313.604153 
L 336.74786 309.368235 
L 336.848031 310.469082 
L 336.901063 310.169813 
L 337.066049 311.436158 
L 337.095511 310.584345 
L 337.207467 310.920094 
L 337.419593 312.097155 
L 337.460839 312.001146 
L 337.484409 311.750088 
L 337.566902 312.071827 
L 337.902768 312.980783 
L 338.014724 313.142937 
L 338.038293 313.003022 
L 338.044186 312.992166 
L 338.109002 313.090302 
L 338.138464 313.131353 
L 338.144356 313.081166 
L 338.167926 311.859013 
L 338.262204 312.255496 
L 338.59807 313.054191 
L 338.963398 313.38984 
L 339.405327 313.530862 
L 339.434789 313.133849 
L 339.546744 313.246693 
L 339.552636 313.304462 
L 339.570314 312.499301 
L 339.605668 310.145952 
L 339.711731 311.057761 
L 339.752978 310.629376 
L 339.970996 311.959265 
L 340.000458 312.094534 
L 340.024027 311.721732 
L 340.041705 311.223562 
L 340.13009 311.731235 
L 340.430602 312.776192 
L 340.436494 312.735415 
L 340.471849 312.470724 
L 340.554342 312.696523 
L 340.572019 312.757638 
L 340.583804 312.497279 
L 340.595589 312.322355 
L 340.683975 312.604994 
L 340.725221 312.712925 
L 340.737006 312.563693 
L 340.890208 311.198278 
L 340.913778 311.316588 
L 341.243751 312.664186 
L 341.58551 313.223416 
L 341.850667 313.403518 
L 341.880129 312.3381 
L 341.9803 312.64381 
L 341.992084 312.675424 
L 342.015654 311.760249 
L 342.115825 312.064259 
L 342.127609 312.119293 
L 342.133502 312.050085 
L 342.20421 302.141684 
L 342.333843 305.357101 
L 342.663817 310.243712 
L 342.970221 312.154526 
L 343.064499 307.702124 
L 343.11753 303.285291 
L 343.205916 305.172299 
L 343.28841 306.783981 
L 344.007281 306.99939 
L 344.072097 308.22242 
L 344.077989 307.013094 
L 344.113344 301.957497 
L 344.136913 302.721802 
L 345.274144 302.895583 
L 345.415561 305.211983 
L 345.427346 304.593813 
L 345.445023 303.667082 
L 345.521624 305.499677 
L 345.863382 310.428921 
L 345.869275 310.19642 
L 345.898737 308.385116 
L 345.987123 309.346224 
L 345.993015 309.358284 
L 346.016584 306.290255 
L 346.110863 308.013115 
L 346.116755 308.102061 
L 347.259878 308.275716 
L 347.589852 311.429138 
L 347.919825 312.709933 
L 348.261584 313.241408 
L 348.591557 313.464737 
L 348.621019 310.360866 
L 348.644589 303.210458 
L 348.738867 305.556 
L 349.068841 310.324497 
L 349.227935 311.473686 
L 350.52426 311.605344 
L 350.854234 312.7815 
L 351.201885 313.274605 
L 351.626136 313.488188 
L 352.380362 313.573474 
L 353.664902 313.51345 
L 353.694364 313.406518 
L 353.800427 313.453873 
L 354.430912 313.562328 
L 356.534494 313.585865 
L 357.978129 313.515066 
L 358.207932 306.048666 
L 358.231502 304.473596 
L 358.313995 306.263932 
L 358.643969 310.612031 
L 358.973943 312.378056 
L 359.309809 313.103176 
L 359.433549 313.269656 
L 359.516042 311.631131 
L 359.574966 311.906877 
L 359.90494 312.903971 
L 360.258483 313.326216 
L 360.712197 313.510696 
L 361.601947 313.579313 
L 362.026199 313.527868 
L 362.055661 312.749313 
L 362.149939 312.860482 
L 362.49759 313.305172 
L 362.939519 313.50194 
L 363.452156 313.580974 
L 363.499295 312.049677 
L 363.617143 312.363167 
L 363.681959 311.459899 
L 363.652497 312.397363 
L 363.835161 311.767977 
L 363.841054 311.789473 
L 363.870516 311.48259 
L 363.876408 311.47619 
L 363.899978 311.61235 
L 364.229951 312.784357 
L 364.577602 313.27571 
L 364.984177 313.484795 
L 365.013639 313.152744 
L 365.160948 313.300984 
L 365.596985 313.499304 
L 365.773757 313.541528 
L 365.779649 313.463914 
L 365.838573 312.165168 
L 365.944636 312.523539 
L 366.174439 313.024092 
L 366.186224 312.921525 
L 366.298179 310.023782 
L 366.315856 309.518424 
L 366.39835 310.196384 
L 366.628153 311.504963 
L 370.605514 311.352933 
L 370.640868 310.996212 
L 370.688007 307.339687 
L 370.7705 308.077497 
L 371.100474 311.348626 
L 371.153505 311.650236 
L 373.151025 311.770889 
L 373.480998 312.848738 
L 373.828649 313.300627 
L 374.264686 313.499196 
L 375.077835 313.576522 
L 378.318648 313.558545 
L 378.359894 313.150689 
L 378.477742 311.354676 
L 378.489527 311.434369 
L 378.807716 312.683783 
L 379.149474 313.231123 
L 379.561941 313.473553 
L 379.60908 313.071491 
L 379.750497 313.14917 
L 380.115825 313.424945 
L 380.186534 313.49972 
L 380.221888 311.536299 
L 380.316167 312.022039 
L 380.64614 312.950745 
L 380.923082 313.304095 
L 380.946652 312.899667 
L 381.046822 312.994428 
L 381.052715 313.00099 
L 381.058607 312.985441 
L 381.211809 309.203457 
L 381.300195 310.111655 
L 381.630169 312.174823 
L 381.966035 313.021948 
L 382.331363 313.377949 
L 382.832216 313.532961 
L 383.963554 313.583528 
L 385.407189 313.497474 
L 385.413081 313.474999 
L 385.519144 313.505123 
L 386.367648 313.577973 
L 387.381138 313.551817 
L 387.404708 311.851102 
L 387.504878 312.295334 
L 387.516663 312.289293 
L 387.522555 312.414146 
L 387.569694 301.606378 
L 387.646295 303.933572 
L 387.970377 309.504121 
L 388.30035 311.928067 
L 388.388736 312.148209 
L 388.400521 311.234796 
L 390.66909 310.983496 
L 390.674982 310.641845 
L 390.76926 311.347036 
L 391.099234 312.676586 
L 391.440992 313.228293 
L 391.847567 313.468094 
L 392.065585 313.599742 
L 392.089155 311.404482 
L 392.189325 311.947881 
L 392.519299 312.920625 
L 392.861057 313.327558 
L 392.86695 313.316188 
L 392.872842 313.378317 
L 392.914089 311.061277 
L 393.008367 311.652562 
L 393.338341 312.800679 
L 393.479758 313.064793 
L 393.491543 312.890237 
L 393.668314 310.544955 
L 393.750808 308.679692 
L 393.809732 309.399815 
L 394.139705 311.885702 
L 394.469679 312.895371 
L 394.823222 313.322941 
L 395.271044 313.508963 
L 395.300506 313.396007 
L 395.306398 313.359227 
L 395.406568 313.417255 
L 395.565663 313.48675 
L 395.571555 313.40527 
L 395.589232 313.233247 
L 395.689403 313.323686 
L 395.836713 313.533997 
L 395.860282 310.253472 
L 395.960453 311.109506 
L 396.24918 312.472216 
L 396.255072 312.388801 
L 396.284534 312.02475 
L 396.367027 312.343511 
L 396.702894 313.089369 
L 397.074114 313.405735 
L 397.244993 313.506374 
L 397.28624 312.436502 
L 397.368733 312.670567 
L 397.404088 312.773048 
L 397.40998 312.619784 
L 397.433549 311.880652 
L 397.527828 312.273965 
L 397.863694 313.061573 
L 397.875478 313.078178 
L 398.676843 313.193422 
L 399.071633 313.452375 
L 399.531239 313.563144 
L 399.578378 312.914178 
L 399.660872 313.05141 
L 400.0262 313.388814 
L 400.538837 313.537319 
L 401.210569 313.542503 
L 401.234139 313.180701 
L 401.328417 313.277775 
L 401.357879 313.309245 
L 401.369664 313.240025 
L 401.528758 309.550027 
L 401.58179 310.047386 
L 401.911763 312.148719 
L 402.247629 313.011515 
L 402.607065 313.370665 
L 402.919361 313.490807 
L 403.054886 308.047774 
L 403.13738 308.836539 
L 403.426107 311.484649 
L 403.496815 309.178091 
L 403.53217 309.60531 
L 407.650948 309.731371 
L 407.980921 312.020367 
L 408.310895 312.950067 
L 408.664438 313.343771 
L 409.129937 313.518004 
L 410.084503 313.580927 
L 410.885868 313.605314 
L 410.91533 312.803442 
L 411.0155 312.993094 
L 411.204057 313.236989 
L 411.215842 313.117771 
L 411.239411 312.719302 
L 411.333689 312.836163 
L 411.68134 313.295766 
L 412.058453 313.49489 
L 412.082022 313.175957 
L 412.176301 313.27668 
L 412.382534 313.413882 
L 412.400211 313.319607 
L 412.417888 313.243995 
L 412.506274 313.319823 
L 412.954096 313.507594 
L 413.820276 313.578581 
L 414.191497 313.493827 
L 414.285775 313.369127 
L 414.321129 313.391781 
L 414.391838 313.413766 
L 414.651103 308.5097 
L 414.674672 308.762869 
L 414.963399 311.049184 
L 415.275696 312.504658 
L 417.721036 312.619831 
L 418.062795 313.206258 
L 418.07458 313.222006 
L 418.086364 313.165842 
L 418.121719 310.886944 
L 418.239566 311.464956 
L 418.56954 312.724481 
L 418.911298 313.247129 
L 419.323765 313.476083 
L 420.024959 313.569748 
L 422.924014 313.585934 
L 423.024184 313.623365 
L 423.059539 312.365011 
L 423.147924 312.634099 
L 423.489683 313.211582 
L 423.890365 313.460587 
L 424.538528 313.564585 
L 426.830666 313.585899 
L 427.602569 313.568107 
L 427.667385 310.029473 
L 427.673277 309.502628 
L 427.773448 310.384054 
L 427.956112 311.474758 
L 427.991466 311.343045 
L 427.997358 311.334606 
L 428.162345 311.417038 
L 428.233054 311.890433 
L 428.256623 309.241356 
L 428.356794 310.199911 
L 428.686768 312.210669 
L 429.022634 313.036275 
L 429.387962 313.383232 
L 429.894707 313.535131 
L 430.065586 313.565327 
L 430.071479 313.476967 
L 430.112725 312.854603 
L 430.230573 313.058688 
L 430.401452 313.258043 
L 430.419129 313.146104 
L 430.525192 312.474936 
L 430.601793 312.68701 
L 430.631255 312.775377 
L 430.64304 312.514456 
L 430.654825 312.338988 
L 430.743211 312.61761 
L 430.760888 312.687075 
L 430.76678 312.501963 
L 430.843381 309.880959 
L 430.925875 310.57928 
L 431.509221 312.966382 
L 431.668315 313.209832 
L 431.691885 312.58406 
L 431.786163 312.826793 
L 431.839194 312.939191 
L 431.856872 312.770477 
L 431.886334 312.784579 
L 431.909903 311.358045 
L 431.92758 310.431369 
L 432.021858 311.122313 
L 432.351832 312.585312 
L 432.693591 313.192395 
L 433.08838 313.452025 
L 433.159089 313.480833 
L 433.164981 313.435271 
L 433.206228 313.166463 
L 433.288722 313.253416 
L 433.701189 313.478121 
L 434.408275 313.570302 
L 436.623812 313.590505 
L 436.653274 313.281796 
L 436.76523 313.36458 
L 437.248405 313.526768 
L 438.29725 313.582565 
L 439.122184 313.637783 
L 439.151646 311.31454 
L 439.251817 311.851091 
L 439.499297 312.498396 
L 439.522867 312.468801 
L 439.570006 312.606342 
L 439.628929 312.78668 
L 439.634822 312.488576 
L 439.658391 311.215928 
L 439.75267 311.762396 
L 440.082643 312.845289 
L 440.430294 313.299292 
L 440.866331 313.49879 
L 441.673588 313.576325 
L 441.909283 313.538935 
L 441.979992 311.856436 
L 442.109624 312.329583 
L 442.380674 312.858955 
L 442.533876 313.149417 
L 442.557446 312.015555 
L 442.657616 312.365327 
L 442.934558 313.017602 
L 442.946343 312.989961 
L 442.993482 312.392637 
L 443.075976 312.639051 
L 443.417734 313.21353 
L 443.541474 313.326593 
L 443.559151 313.214334 
L 443.565044 313.180454 
L 443.659322 313.276321 
L 443.824309 313.394904 
L 443.836093 313.305424 
L 443.847878 313.244507 
L 443.930372 313.275556 
L 443.936264 313.477518 
L 443.953941 310.395538 
L 444.030542 307.04989 
L 444.077681 307.741778 
L 444.348731 310.27929 
L 444.507826 311.348421 
L 444.513718 311.322848 
L 444.51961 311.587691 
L 444.531395 308.482285 
L 444.54318 306.076745 
L 449.504569 306.251975 
L 449.822758 310.510958 
L 450.152732 312.337005 
L 450.488598 313.086768 
L 450.859818 313.404792 
L 450.936419 313.441863 
L 450.948204 313.364213 
L 450.989451 311.884903 
L 451.03659 307.424571 
L 451.130868 308.806072 
L 451.366563 310.429074 
L 451.696537 312.303746 
L 451.991156 312.927163 
L 452.138466 313.022241 
L 452.144358 313.000061 
L 452.19739 312.613628 
L 452.303453 312.867767 
L 452.415408 313.106792 
L 452.438978 311.688855 
L 452.539148 312.146841 
L 452.875014 313.010764 
L 453.23445 313.370384 
L 453.517285 313.506688 
L 453.540854 310.697167 
L 453.552639 308.956062 
L 453.652809 310.13996 
L 453.982783 312.18632 
L 454.318649 313.026543 
L 454.683977 313.379643 
L 455.18483 313.533393 
L 455.85067 313.595661 
L 455.880132 312.63968 
L 455.986195 312.883686 
L 456.339738 313.318491 
L 456.787559 313.507201 
L 457.217703 313.577957 
L 457.294304 312.983976 
L 457.347336 313.066551 
L 457.706771 313.384926 
L 458.213517 313.535555 
L 459.386102 313.58389 
L 459.645367 313.524853 
L 459.75143 308.848328 
L 459.8516 309.846527 
L 460.181574 312.067139 
L 460.51744 312.978909 
L 460.635287 313.162277 
L 460.64118 313.034061 
L 460.658857 312.766694 
L 460.753135 312.962553 
L 460.800274 312.855423 
L 460.988831 313.150698 
L 461.371836 313.432993 
L 461.955182 313.554839 
L 463.239722 313.593544 
L 463.263292 312.458503 
L 463.363462 311.068384 
L 463.387032 311.21367 
L 463.717006 312.622413 
L 464.017517 313.192437 
L 464.153042 305.142809 
L 464.27089 307.071043 
L 464.424092 309.189274 
L 464.441769 308.15504 
L 464.494801 307.026023 
L 464.553725 307.768555 
L 464.883698 311.223148 
L 465.213672 312.626268 
L 465.30795 312.838677 
L 465.313842 312.617591 
L 465.349197 309.969441 
L 465.443475 310.787725 
L 465.67917 311.735813 
L 465.779341 312.183423 
L 468.289498 312.116041 
L 468.389668 308.902035 
L 468.425023 309.318937 
L 468.643041 311.125825 
L 468.660718 310.844813 
L 468.707857 309.626563 
L 468.796243 310.112962 
L 468.843382 310.532411 
L 469.980613 310.676299 
L 470.310586 312.404159 
L 470.646452 313.113609 
L 471.023565 313.417268 
L 471.40657 313.53127 
L 471.412462 313.48817 
L 471.559772 312.227032 
L 471.595126 312.339998 
L 471.930992 313.087964 
L 472.290428 313.402926 
L 472.337567 312.703214 
L 472.420061 311.738709 
L 472.496662 312.055527 
L 472.526124 312.009566 
L 472.750034 312.720698 
L 473.091793 313.245642 
L 473.50426 313.4756 
L 473.622107 313.510294 
L 473.628 313.468794 
L 473.681031 310.432004 
L 473.739955 306.31944 
L 473.828341 307.655468 
L 474.087606 310.664228 
L 475.625519 310.801905 
L 475.955493 312.455175 
L 476.291359 313.133999 
L 476.668471 313.424549 
L 476.910059 313.509882 
L 476.915952 313.440641 
L 476.974875 309.565481 
L 477.1104 310.785438 
L 477.440374 312.448487 
L 477.734993 313.004588 
L 478.094429 313.368069 
L 478.153353 313.403777 
L 478.159245 313.368719 
L 478.200492 312.415794 
L 478.300662 312.699126 
L 478.601174 313.230781 
L 478.624744 312.344017 
L 478.719022 312.647368 
L 479.06078 313.216801 
L 479.461462 313.462335 
L 480.115517 313.565219 
L 481.694677 313.585658 
L 483.668626 313.492948 
L 483.692196 311.361174 
L 483.792367 311.909324 
L 484.12234 312.904965 
L 484.475883 313.326595 
L 484.929597 313.510806 
L 485.819348 313.579322 
L 486.644282 313.616676 
L 486.667851 312.803241 
L 486.768022 312.996612 
L 486.773914 313.066392 
L 486.791591 312.144831 
L 486.797484 311.865266 
L 486.897654 312.305712 
L 487.23352 313.074262 
L 487.604741 313.400253 
L 488.129163 313.541591 
L 489.413703 313.584611 
L 492.177233 313.494722 
L 492.19491 313.431319 
L 492.29508 313.470586 
L 492.342219 313.537569 
L 492.365789 312.074624 
L 492.46596 312.452581 
L 492.719332 313.109917 
L 492.748794 308.808055 
L 492.848965 309.945579 
L 493.149476 312.143702 
L 493.173046 305.924388 
L 493.273217 307.827872 
L 493.567836 310.788099 
L 493.703361 308.544742 
L 493.7505 304.555581 
L 493.821208 306.133454 
L 494.139397 310.613436 
L 494.162967 306.838499 
L 494.257245 308.463514 
L 494.557757 311.232029 
L 494.563649 311.217685 
L 494.581326 311.216446 
L 494.599004 311.332924 
L 494.928977 312.670815 
L 494.999686 312.917455 
L 495.064502 308.025182 
L 495.141103 308.982035 
L 495.15878 309.31229 
L 495.164673 308.128905 
L 495.18235 304.987634 
L 495.276628 306.686752 
L 495.57714 310.384112 
L 495.606602 306.041459 
L 495.70088 307.715609 
L 495.995499 310.636209 
L 496.036746 311.072818 
L 496.060315 307.990901 
L 496.154594 309.283423 
L 496.484567 311.838428 
L 496.814541 312.87617 
L 496.855788 312.952036 
L 496.86168 312.894104 
L 496.885249 310.734808 
L 496.979528 311.405362 
L 497.091483 311.989784 
L 497.126837 311.942548 
L 497.156299 309.667355 
L 497.250577 310.569882 
L 497.52752 311.920687 
L 497.857493 312.909581 
L 498.211036 313.328353 
L 498.66475 313.511315 
L 498.735459 313.534403 
L 498.741351 313.452505 
L 498.853307 313.123898 
L 498.876876 313.157324 
L 499.230419 313.426505 
L 499.277558 313.263362 
L 499.360052 313.33081 
L 499.666456 313.526976 
L 499.690025 312.19976 
L 499.790196 312.562425 
L 500.131954 313.183393 
L 500.520852 313.447076 
L 500.544422 313.414324 
L 500.656377 312.557088 
L 500.691731 312.669778 
L 500.980458 313.094199 
L 500.998135 313.136497 
L 501.004028 312.979383 
L 501.045274 311.424999 
L 501.139553 311.919841 
L 501.216154 312.269498 
L 501.222046 311.999788 
L 501.239723 311.442651 
L 501.334001 311.95058 
L 501.610944 312.74792 
L 501.616836 312.742857 
L 501.640405 312.472827 
L 501.728791 312.717117 
L 502.07055 313.244233 
L 502.483017 313.475144 
L 503.184211 313.569609 
L 506.065588 313.585934 
L 523.159401 313.521133 
L 523.265464 313.046135 
L 523.300818 313.09872 
L 523.412774 313.241638 
L 523.418666 313.120442 
L 523.45402 312.649463 
L 523.542406 312.677541 
L 523.919519 313.26124 
L 524.202354 313.363402 
L 524.685529 313.526756 
L 524.714991 313.414229 
L 524.732668 313.289023 
L 524.826946 313.360413 
L 525.262983 313.511924 
L 525.369046 312.474943 
L 525.416185 312.610773 
L 525.757944 313.202408 
L 526.152733 313.455433 
L 526.783219 313.56281 
L 526.806788 313.483828 
L 526.912851 311.772864 
L 527.030699 312.263695 
L 527.366565 313.057468 
L 527.50209 313.223688 
L 527.519767 313.113368 
L 527.531552 313.066675 
L 527.619938 313.179731 
L 527.849741 313.372012 
L 527.861526 313.297579 
L 527.890987 313.034953 
L 527.979373 313.154934 
L 528.362378 313.434482 
L 528.757168 313.476491 
L 529.458362 313.569808 
L 532.369201 313.585935 
L 534.195841 313.602712 
L 534.325474 311.171467 
L 534.384397 311.514978 
L 534.714371 312.744797 
L 535.05613 313.25512 
L 535.468597 313.478674 
L 536.181575 313.57063 
L 539.227939 313.585936 
L 540.642112 313.540648 
L 540.671574 313.106679 
L 540.771744 313.22348 
L 541.172427 313.464571 
L 541.832374 313.565918 
L 543.494027 313.5941 
L 543.523489 313.193011 
L 543.629552 313.274393 
L 543.635444 313.371515 
L 543.653121 311.937658 
L 543.659014 311.502155 
L 543.759184 312.047119 
L 543.770969 312.128606 
L 543.776862 311.861134 
L 543.794539 311.31099 
L 543.888817 311.719513 
L 543.941848 311.996269 
L 543.959526 311.57326 
L 543.965418 311.446138 
L 544.047911 311.888164 
L 544.053804 311.940651 
L 544.071481 311.256751 
L 544.083266 310.989253 
L 544.171651 311.553567 
L 544.336638 312.284908 
L 544.371993 308.25832 
L 544.460378 309.42765 
L 544.607688 309.983195 
L 544.507518 308.91669 
L 544.61358 309.928162 
L 544.63715 308.862636 
L 544.719643 309.817294 
L 544.766783 310.281537 
L 544.790352 298.130562 
L 544.890523 300.831991 
L 544.937662 299.780299 
L 545.143895 305.694512 
L 545.185142 306.460057 
L 545.202819 304.818864 
L 545.208712 304.470328 
L 545.285313 306.238631 
L 545.597609 310.272039 
L 545.927583 312.239965 
L 546.163278 312.913955 
L 546.186848 312.046938 
L 546.281126 312.417716 
L 546.34005 312.686887 
L 546.363619 310.275906 
L 546.457897 311.08545 
L 546.510929 311.038639 
L 546.699485 311.975757 
L 547.029459 312.931948 
L 547.153199 313.362111 
L 547.176769 307.11106 
L 547.276939 308.72887 
L 547.565666 311.079752 
L 547.89564 312.568026 
L 548.237398 313.185596 
L 548.319892 313.367727 
L 548.343461 310.122062 
L 548.443632 310.908133 
L 548.526125 311.531186 
L 548.532018 310.87871 
L 548.549695 309.516849 
L 548.643973 310.491016 
L 548.897345 311.679541 
L 549.03287 312.293238 
L 549.038763 311.861847 
L 549.05644 310.952658 
L 549.150718 311.528645 
L 549.20375 311.80404 
L 549.227319 311.451187 
L 549.280351 311.668569 
L 549.292135 311.64288 
L 549.32749 311.805099 
L 549.586755 312.701115 
L 549.592647 312.670317 
L 549.616217 309.37115 
L 549.710495 310.340568 
L 550.040468 312.267799 
L 550.134747 312.570769 
L 550.181886 312.377314 
L 550.223132 312.491511 
L 550.276164 312.679169 
L 550.305626 309.597972 
L 550.417581 310.635094 
L 550.547214 311.487869 
L 550.582568 311.074376 
L 550.600245 311.080836 
L 550.61203 311.164595 
L 550.936111 312.586681 
L 551.27787 313.192933 
L 551.67266 313.452208 
L 551.843539 313.507485 
L 551.849431 313.438676 
L 552.008526 310.52731 
L 552.226544 311.91145 
L 552.556518 312.905829 
L 552.910061 313.326924 
L 553.363774 313.510901 
L 554.253525 313.579331 
L 555.844469 313.53616 
L 555.885716 312.30215 
L 555.974102 310.211707 
L 556.027133 310.615246 
L 556.357107 312.379363 
L 556.551556 312.958043 
L 556.692973 308.866517 
L 557.093655 312.001745 
L 557.158471 312.26832 
L 557.176149 312.141709 
L 557.217395 310.972606 
L 557.293996 311.473438 
L 557.482553 312.328175 
L 557.494337 312.215391 
L 557.523799 311.228811 
L 557.612185 311.741615 
L 557.889127 312.726678 
L 557.900912 312.661755 
L 557.942159 312.454175 
L 558.012867 312.656926 
L 558.354626 313.22056 
L 558.755308 313.463594 
L 558.890833 313.510937 
L 558.896725 313.431699 
L 558.955649 312.395028 
L 559.061712 312.700506 
L 559.403471 313.2377 
L 559.810045 313.471194 
L 560.493562 313.568191 
L 563.174598 313.585928 
L 564.170411 313.505059 
L 564.193981 311.584347 
L 564.205766 310.949406 
L 564.305936 311.396352 
L 564.63591 312.696623 
L 564.977668 313.236173 
L 565.124978 313.35605 
L 565.142655 313.2645 
L 565.160332 313.191484 
L 565.248718 313.278573 
L 565.67297 313.489434 
L 566.433088 313.57383 
L 568.63684 313.599987 
L 568.672195 312.430531 
L 568.78415 312.72743 
L 569.125908 313.248289 
L 569.408743 313.431326 
L 569.414635 313.413998 
L 569.473559 311.592315 
L 569.597299 312.078597 
L 569.933165 312.983489 
L 570.292601 313.360162 
L 570.422234 313.437056 
L 570.457588 310.78439 
L 570.604898 311.716028 
L 570.699176 312.15767 
L 570.716853 311.746994 
L 570.828808 306.473323 
L 570.923086 307.858699 
L 570.976118 308.630782 
L 573.185763 308.787695 
L 573.374319 310.695734 
L 573.391996 310.251222 
L 573.427351 307.28029 
L 573.515736 308.609401 
L 573.769109 310.829525 
L 573.775001 310.725984 
L 573.822141 309.589347 
L 573.898742 310.298937 
L 574.069621 311.518819 
L 575.041865 311.56991 
L 575.077219 310.29511 
L 575.165605 310.964998 
L 575.472009 312.362279 
L 575.483794 312.409876 
L 576.078925 312.273797 
L 576.120171 311.808408 
L 576.208557 311.910235 
L 576.556208 312.937098 
L 576.909751 313.338833 
L 577.269187 313.512192 
L 577.292756 313.029877 
L 577.392927 313.174267 
L 577.781824 313.443585 
L 578.082336 313.527501 
L 578.094121 313.477883 
L 578.11769 313.284429 
L 578.211969 313.356862 
L 578.253215 313.387807 
L 578.777638 313.315571 
L 578.818884 311.837305 
L 578.90727 312.202923 
L 579.243136 313.033179 
L 579.366876 313.191665 
L 580.073963 313.309199 
L 580.515892 313.503145 
L 581.340826 313.577236 
L 587.209643 313.565109 
L 587.239105 313.103914 
L 587.333383 313.2175 
L 587.356952 313.143082 
L 587.439446 313.234776 
L 587.734065 313.36299 
L 588.217241 313.526342 
L 588.329196 313.472853 
L 588.500075 312.750987 
L 588.51186 312.780409 
L 588.80648 313.234467 
L 588.835941 311.870987 
L 588.965574 312.331899 
L 589.30144 313.084728 
L 589.401611 313.20743 
L 589.419288 313.097877 
L 589.431073 313.051674 
L 589.519458 313.167947 
L 589.849432 313.41994 
L 589.855324 313.39144 
L 589.873002 313.332904 
L 589.96728 313.392636 
L 590.48581 313.539022 
L 590.58598 313.564729 
L 590.615442 312.70324 
L 590.721505 312.931861 
L 591.075048 313.336838 
L 591.534655 313.514925 
L 592.459759 313.580261 
L 596.083577 313.602304 
L 596.130716 313.122807 
L 596.207317 313.212686 
L 596.607999 313.460957 
L 597.256162 313.564648 
L 597.415256 313.501746 
L 597.444718 313.155537 
L 597.538996 313.255348 
L 597.863078 313.397172 
L 597.927894 313.448017 
L 597.963248 311.715002 
L 598.081096 312.261388 
L 598.363931 312.988539 
L 598.393392 312.171587 
L 598.493563 312.517092 
L 598.505348 312.554395 
L 598.540702 312.40836 
L 598.587841 312.012569 
L 598.65855 312.295326 
L 598.970846 313.039593 
L 598.976739 313.017165 
L 599.059232 313.102185 
L 599.071017 312.563347 
L 599.100479 312.032512 
L 599.182972 312.314132 
L 599.518838 313.077627 
L 599.642578 313.217979 
L 599.67204 312.188472 
L 599.772211 312.510392 
L 600.108077 313.156068 
L 600.467513 313.405633 
L 600.991935 313.540013 
L 603.189795 313.595021 
L 603.219257 312.977605 
L 603.331212 313.143186 
L 603.637616 313.397203 
L 603.643509 313.372489 
L 603.672971 312.612665 
L 603.678863 312.389599 
L 603.779034 312.698489 
L 604.014729 313.319765 
L 604.055976 305.826661 
L 604.144362 307.511498 
L 604.474335 311.118743 
L 604.804309 312.583862 
L 605.034112 313.063472 
L 605.040004 312.967982 
L 605.057682 312.77143 
L 605.146067 312.953877 
L 605.258023 313.139216 
L 605.263915 312.990603 
L 605.364086 312.180547 
L 605.405332 312.315062 
L 605.741198 313.077999 
L 606.112419 313.401609 
L 606.271513 313.509529 
L 606.295083 311.633595 
L 606.395253 312.142461 
L 606.619164 312.809955 
L 606.625056 312.730324 
L 606.713442 309.39607 
L 606.772366 309.929165 
L 607.10234 312.100703 
L 607.438206 312.992324 
L 607.797641 313.363473 
L 608.280817 313.526472 
L 609.323769 313.582493 
L 612.452627 313.540227 
L 612.493873 312.873513 
L 612.511551 311.57389 
L 612.611721 312.07821 
L 612.947587 312.983334 
L 613.307023 313.360104 
L 613.790198 313.525571 
L 614.397114 313.584794 
L 614.461931 310.861586 
L 614.520854 308.844426 
L 614.60924 309.703967 
L 614.615133 309.730347 
L 614.621025 309.262743 
L 614.638702 307.960141 
L 614.73298 308.98905 
L 615.062954 311.718866 
L 615.392928 312.827609 
L 615.605054 313.164612 
L 615.622731 313.119303 
L 615.687547 310.836355 
L 615.693439 309.842957 
L 617.602573 309.08772 
L 617.614357 308.232339 
L 617.708636 309.474281 
L 618.038609 311.915947 
L 618.368583 312.907655 
L 618.722126 313.327619 
L 619.17584 313.515996 
L 619.228871 312.74868 
L 619.334934 307.220453 
L 619.376181 307.833697 
L 620.024343 312.445762 
L 630.389051 312.458501 
L 630.536361 309.064401 
L 630.542253 309.128648 
L 630.601177 309.519171 
L 630.612962 309.037467 
L 630.624747 308.637233 
L 630.70724 309.393694 
L 631.072568 312.03207 
L 631.414327 312.152178 
L 631.708946 312.944583 
L 632.215691 313.065631 
L 632.586912 313.397121 
L 632.799037 313.480138 
L 648.254767 313.565596 
L 648.26066 313.658084 
L 648.266552 312.93888 
L 648.290122 308.069489 
L 648.3844 309.378671 
L 648.684912 311.733963 
L 648.75562 311.983626 
L 649.079701 312.902959 
L 649.120948 312.992053 
L 649.126841 312.866554 
L 649.144518 312.60708 
L 649.238796 312.785553 
L 649.250581 312.769019 
L 649.29772 312.870301 
L 649.403783 313.052281 
L 649.42146 312.917595 
L 649.445029 311.987508 
L 649.474491 310.155158 
L 649.562877 310.900395 
L 649.881066 312.422671 
L 650.193363 313.039848 
L 650.517444 313.321196 
L 650.965265 313.506734 
L 651.825554 313.578379 
L 653.96449 313.514816 
L 654.076445 313.515672 
L 654.477128 313.567928 
L 654.48302 313.516301 
L 654.500697 313.406747 
L 654.600868 313.453403 
L 654.659792 313.489343 
L 654.706931 312.875894 
L 654.789424 313.020468 
L 655.154752 313.377403 
L 655.64382 313.528372 
L 656.710342 313.582811 
L 657.747402 313.51259 
L 657.765079 313.33551 
L 657.86525 313.401477 
L 658.395565 313.542586 
L 659.703674 313.584722 
L 664.452938 313.512775 
L 664.612032 312.658857 
L 664.62971 312.705365 
L 664.97736 313.245117 
L 665.389827 313.47543 
L 666.091021 313.569652 
L 668.978291 313.585934 
L 669.031322 313.543978 
L 669.054892 313.344388 
L 669.14917 313.400486 
L 669.673592 313.541646 
L 670.964025 313.584634 
L 674.705691 313.532398 
L 674.741045 312.047741 
L 674.841215 312.283676 
L 675.14762 313.027129 
L 675.153512 312.988896 
L 675.377423 310.137704 
L 675.454024 310.795606 
L 675.813459 312.296426 
L 675.831136 312.357191 
L 675.831136 312.357191 
" clip-path="url(#p6f531c5852)" style="fill: none; stroke: #ff7f0e; stroke-width: 1.5; stroke-linecap: square"/>
   </g>
   <g id="patch_3">
    <path d="M 46.0125 327.558125 
L 46.0125 22.318125 
" style="fill: none; stroke: #000000; stroke-width: 0.8; stroke-linejoin: miter; stroke-linecap: square"/>
   </g>
   <g id="patch_4">
    <path d="M 705.8225 327.558125 
L 705.8225 22.318125 
" style="fill: none; stroke: #000000; stroke-width: 0.8; stroke-linejoin: miter; stroke-linecap: square"/>
   </g>
   <g id="patch_5">
    <path d="M 46.0125 327.558125 
L 705.8225 327.558125 
" style="fill: none; stroke: #000000; stroke-width: 0.8; stroke-linejoin: miter; stroke-linecap: square"/>
   </g>
   <g id="patch_6">
    <path d="M 46.0125 22.318125 
L 705.8225 22.318125 
" style="fill: none; stroke: #000000; stroke-width: 0.8; stroke-linejoin: miter; stroke-linecap: square"/>
   </g>
   <g id="text_15">
    <!-- training -->
    <g transform="translate(352.674062 16.318125) scale(0.12 -0.12)">
     <defs>
      <path id="DejaVuSans-74" d="M 1172 4494 
L 1172 3500 
L 2356 3500 
L 2356 3053 
L 1172 3053 
L 1172 1153 
Q 1172 725 1289 603 
Q 1406 481 1766 481 
L 2356 481 
L 2356 0 
L 1766 0 
Q 1100 0 847 248 
Q 594 497 594 1153 
L 594 3053 
L 172 3053 
L 172 3500 
L 594 3500 
L 594 4494 
L 1172 4494 
z
" transform="scale(0.015625)"/>
      <path id="DejaVuSans-72" d="M 2631 2963 
Q 2534 3019 2420 3045 
Q 2306 3072 2169 3072 
Q 1681 3072 1420 2755 
Q 1159 2438 1159 1844 
L 1159 0 
L 581 0 
L 581 3500 
L 1159 3500 
L 1159 2956 
Q 1341 3275 1631 3429 
Q 1922 3584 2338 3584 
Q 2397 3584 2469 3576 
Q 2541 3569 2628 3553 
L 2631 2963 
z
" transform="scale(0.015625)"/>
      <path id="DejaVuSans-61" d="M 2194 1759 
Q 1497 1759 1228 1600 
Q 959 1441 959 1056 
Q 959 750 1161 570 
Q 1363 391 1709 391 
Q 2188 391 2477 730 
Q 2766 1069 2766 1631 
L 2766 1759 
L 2194 1759 
z
M 3341 1997 
L 3341 0 
L 2766 0 
L 2766 531 
Q 2569 213 2275 61 
Q 1981 -91 1556 -91 
Q 1019 -91 701 211 
Q 384 513 384 1019 
Q 384 1609 779 1909 
Q 1175 2209 1959 2209 
L 2766 2209 
L 2766 2266 
Q 2766 2663 2505 2880 
Q 2244 3097 1772 3097 
Q 1472 3097 1187 3025 
Q 903 2953 641 2809 
L 641 3341 
Q 956 3463 1253 3523 
Q 1550 3584 1831 3584 
Q 2591 3584 2966 3190 
Q 3341 2797 3341 1997 
z
" transform="scale(0.015625)"/>
      <path id="DejaVuSans-69" d="M 603 3500 
L 1178 3500 
L 1178 0 
L 603 0 
L 603 3500 
z
M 603 4863 
L 1178 4863 
L 1178 4134 
L 603 4134 
L 603 4863 
z
" transform="scale(0.015625)"/>
      <path id="DejaVuSans-6e" d="M 3513 2113 
L 3513 0 
L 2938 0 
L 2938 2094 
Q 2938 2591 2744 2837 
Q 2550 3084 2163 3084 
Q 1697 3084 1428 2787 
Q 1159 2491 1159 1978 
L 1159 0 
L 581 0 
L 581 3500 
L 1159 3500 
L 1159 2956 
Q 1366 3272 1645 3428 
Q 1925 3584 2291 3584 
Q 2894 3584 3203 3211 
Q 3513 2838 3513 2113 
z
" transform="scale(0.015625)"/>
      <path id="DejaVuSans-67" d="M 2906 1791 
Q 2906 2416 2648 2759 
Q 2391 3103 1925 3103 
Q 1463 3103 1205 2759 
Q 947 2416 947 1791 
Q 947 1169 1205 825 
Q 1463 481 1925 481 
Q 2391 481 2648 825 
Q 2906 1169 2906 1791 
z
M 3481 434 
Q 3481 -459 3084 -895 
Q 2688 -1331 1869 -1331 
Q 1566 -1331 1297 -1286 
Q 1028 -1241 775 -1147 
L 775 -588 
Q 1028 -725 1275 -790 
Q 1522 -856 1778 -856 
Q 2344 -856 2625 -561 
Q 2906 -266 2906 331 
L 2906 616 
Q 2728 306 2450 153 
Q 2172 0 1784 0 
Q 1141 0 747 490 
Q 353 981 353 1791 
Q 353 2603 747 3093 
Q 1141 3584 1784 3584 
Q 2172 3584 2450 3431 
Q 2728 3278 2906 2969 
L 2906 3500 
L 3481 3500 
L 3481 434 
z
" transform="scale(0.015625)"/>
     </defs>
     <use xlink:href="#DejaVuSans-74"/>
     <use xlink:href="#DejaVuSans-72" x="39.208984"/>
     <use xlink:href="#DejaVuSans-61" x="80.322266"/>
     <use xlink:href="#DejaVuSans-69" x="141.601562"/>
     <use xlink:href="#DejaVuSans-6e" x="169.384766"/>
     <use xlink:href="#DejaVuSans-69" x="232.763672"/>
     <use xlink:href="#DejaVuSans-6e" x="260.546875"/>
     <use xlink:href="#DejaVuSans-67" x="323.925781"/>
    </g>
   </g>
   <g id="legend_1">
    <g id="patch_7">
     <path d="M 617.42875 59.674375 
L 698.8225 59.674375 
Q 700.8225 59.674375 700.8225 57.674375 
L 700.8225 29.318125 
Q 700.8225 27.318125 698.8225 27.318125 
L 617.42875 27.318125 
Q 615.42875 27.318125 615.42875 29.318125 
L 615.42875 57.674375 
Q 615.42875 59.674375 617.42875 59.674375 
z
" style="fill: #ffffff; opacity: 0.8; stroke: #cccccc; stroke-linejoin: miter"/>
    </g>
    <g id="line2d_17">
     <path d="M 619.42875 35.416562 
L 629.42875 35.416562 
L 639.42875 35.416562 
" style="fill: none; stroke: #1f77b4; stroke-width: 1.5; stroke-linecap: square"/>
    </g>
    <g id="text_16">
     <!-- observed -->
     <g transform="translate(647.42875 38.916562) scale(0.1 -0.1)">
      <defs>
       <path id="DejaVuSans-6f" d="M 1959 3097 
Q 1497 3097 1228 2736 
Q 959 2375 959 1747 
Q 959 1119 1226 758 
Q 1494 397 1959 397 
Q 2419 397 2687 759 
Q 2956 1122 2956 1747 
Q 2956 2369 2687 2733 
Q 2419 3097 1959 3097 
z
M 1959 3584 
Q 2709 3584 3137 3096 
Q 3566 2609 3566 1747 
Q 3566 888 3137 398 
Q 2709 -91 1959 -91 
Q 1206 -91 779 398 
Q 353 888 353 1747 
Q 353 2609 779 3096 
Q 1206 3584 1959 3584 
z
" transform="scale(0.015625)"/>
       <path id="DejaVuSans-62" d="M 3116 1747 
Q 3116 2381 2855 2742 
Q 2594 3103 2138 3103 
Q 1681 3103 1420 2742 
Q 1159 2381 1159 1747 
Q 1159 1113 1420 752 
Q 1681 391 2138 391 
Q 2594 391 2855 752 
Q 3116 1113 3116 1747 
z
M 1159 2969 
Q 1341 3281 1617 3432 
Q 1894 3584 2278 3584 
Q 2916 3584 3314 3078 
Q 3713 2572 3713 1747 
Q 3713 922 3314 415 
Q 2916 -91 2278 -91 
Q 1894 -91 1617 61 
Q 1341 213 1159 525 
L 1159 0 
L 581 0 
L 581 4863 
L 1159 4863 
L 1159 2969 
z
" transform="scale(0.015625)"/>
       <path id="DejaVuSans-73" d="M 2834 3397 
L 2834 2853 
Q 2591 2978 2328 3040 
Q 2066 3103 1784 3103 
Q 1356 3103 1142 2972 
Q 928 2841 928 2578 
Q 928 2378 1081 2264 
Q 1234 2150 1697 2047 
L 1894 2003 
Q 2506 1872 2764 1633 
Q 3022 1394 3022 966 
Q 3022 478 2636 193 
Q 2250 -91 1575 -91 
Q 1294 -91 989 -36 
Q 684 19 347 128 
L 347 722 
Q 666 556 975 473 
Q 1284 391 1588 391 
Q 1994 391 2212 530 
Q 2431 669 2431 922 
Q 2431 1156 2273 1281 
Q 2116 1406 1581 1522 
L 1381 1569 
Q 847 1681 609 1914 
Q 372 2147 372 2553 
Q 372 3047 722 3315 
Q 1072 3584 1716 3584 
Q 2034 3584 2315 3537 
Q 2597 3491 2834 3397 
z
" transform="scale(0.015625)"/>
       <path id="DejaVuSans-65" d="M 3597 1894 
L 3597 1613 
L 953 1613 
Q 991 1019 1311 708 
Q 1631 397 2203 397 
Q 2534 397 2845 478 
Q 3156 559 3463 722 
L 3463 178 
Q 3153 47 2828 -22 
Q 2503 -91 2169 -91 
Q 1331 -91 842 396 
Q 353 884 353 1716 
Q 353 2575 817 3079 
Q 1281 3584 2069 3584 
Q 2775 3584 3186 3129 
Q 3597 2675 3597 1894 
z
M 3022 2063 
Q 3016 2534 2758 2815 
Q 2500 3097 2075 3097 
Q 1594 3097 1305 2825 
Q 1016 2553 972 2059 
L 3022 2063 
z
" transform="scale(0.015625)"/>
       <path id="DejaVuSans-76" d="M 191 3500 
L 800 3500 
L 1894 563 
L 2988 3500 
L 3597 3500 
L 2284 0 
L 1503 0 
L 191 3500 
z
" transform="scale(0.015625)"/>
       <path id="DejaVuSans-64" d="M 2906 2969 
L 2906 4863 
L 3481 4863 
L 3481 0 
L 2906 0 
L 2906 525 
Q 2725 213 2448 61 
Q 2172 -91 1784 -91 
Q 1150 -91 751 415 
Q 353 922 353 1747 
Q 353 2572 751 3078 
Q 1150 3584 1784 3584 
Q 2172 3584 2448 3432 
Q 2725 3281 2906 2969 
z
M 947 1747 
Q 947 1113 1208 752 
Q 1469 391 1925 391 
Q 2381 391 2643 752 
Q 2906 1113 2906 1747 
Q 2906 2381 2643 2742 
Q 2381 3103 1925 3103 
Q 1469 3103 1208 2742 
Q 947 2381 947 1747 
z
" transform="scale(0.015625)"/>
      </defs>
      <use xlink:href="#DejaVuSans-6f"/>
      <use xlink:href="#DejaVuSans-62" x="61.181641"/>
      <use xlink:href="#DejaVuSans-73" x="124.658203"/>
      <use xlink:href="#DejaVuSans-65" x="176.757812"/>
      <use xlink:href="#DejaVuSans-72" x="238.28125"/>
      <use xlink:href="#DejaVuSans-76" x="279.394531"/>
      <use xlink:href="#DejaVuSans-65" x="338.574219"/>
      <use xlink:href="#DejaVuSans-64" x="400.097656"/>
     </g>
    </g>
    <g id="line2d_18">
     <path d="M 619.42875 50.094688 
L 629.42875 50.094688 
L 639.42875 50.094688 
" style="fill: none; stroke: #ff7f0e; stroke-width: 1.5; stroke-linecap: square"/>
    </g>
    <g id="text_17">
     <!-- simulated -->
     <g transform="translate(647.42875 53.594688) scale(0.1 -0.1)">
      <defs>
       <path id="DejaVuSans-6d" d="M 3328 2828 
Q 3544 3216 3844 3400 
Q 4144 3584 4550 3584 
Q 5097 3584 5394 3201 
Q 5691 2819 5691 2113 
L 5691 0 
L 5113 0 
L 5113 2094 
Q 5113 2597 4934 2840 
Q 4756 3084 4391 3084 
Q 3944 3084 3684 2787 
Q 3425 2491 3425 1978 
L 3425 0 
L 2847 0 
L 2847 2094 
Q 2847 2600 2669 2842 
Q 2491 3084 2119 3084 
Q 1678 3084 1418 2786 
Q 1159 2488 1159 1978 
L 1159 0 
L 581 0 
L 581 3500 
L 1159 3500 
L 1159 2956 
Q 1356 3278 1631 3431 
Q 1906 3584 2284 3584 
Q 2666 3584 2933 3390 
Q 3200 3197 3328 2828 
z
" transform="scale(0.015625)"/>
       <path id="DejaVuSans-75" d="M 544 1381 
L 544 3500 
L 1119 3500 
L 1119 1403 
Q 1119 906 1312 657 
Q 1506 409 1894 409 
Q 2359 409 2629 706 
Q 2900 1003 2900 1516 
L 2900 3500 
L 3475 3500 
L 3475 0 
L 2900 0 
L 2900 538 
Q 2691 219 2414 64 
Q 2138 -91 1772 -91 
Q 1169 -91 856 284 
Q 544 659 544 1381 
z
M 1991 3584 
L 1991 3584 
z
" transform="scale(0.015625)"/>
       <path id="DejaVuSans-6c" d="M 603 4863 
L 1178 4863 
L 1178 0 
L 603 0 
L 603 4863 
z
" transform="scale(0.015625)"/>
      </defs>
      <use xlink:href="#DejaVuSans-73"/>
      <use xlink:href="#DejaVuSans-69" x="52.099609"/>
      <use xlink:href="#DejaVuSans-6d" x="79.882812"/>
      <use xlink:href="#DejaVuSans-75" x="177.294922"/>
      <use xlink:href="#DejaVuSans-6c" x="240.673828"/>
      <use xlink:href="#DejaVuSans-61" x="268.457031"/>
      <use xlink:href="#DejaVuSans-74" x="329.736328"/>
      <use xlink:href="#DejaVuSans-65" x="368.945312"/>
      <use xlink:href="#DejaVuSans-64" x="430.46875"/>
     </g>
    </g>
   </g>
  </g>
 </g>
 <defs>
  <clipPath id="p6f531c5852">
   <rect x="46.0125" y="22.318125" width="659.81" height="305.24"/>
  </clipPath>
 </defs>
</svg>
