<?xml version="1.0" encoding="utf-8" standalone="no"?>
<!DOCTYPE svg PUBLIC "-//W3C//DTD SVG 1.1//EN"
  "http://www.w3.org/Graphics/SVG/1.1/DTD/svg11.dtd">
<svg xmlns:xlink="http://www.w3.org/1999/xlink" width="720pt" height="360pt" viewBox="0 0 720 360" xmlns="http://www.w3.org/2000/svg" version="1.1">
 <metadata>
  <rdf:RDF xmlns:dc="http://purl.org/dc/elements/1.1/" xmlns:cc="http://creativecommons.org/ns#" xmlns:rdf="http://www.w3.org/1999/02/22-rdf-syntax-ns#">
   <cc:Work>
    <dc:type rdf:resource="http://purl.org/dc/dcmitype/StillImage"/>
    <dc:date>2023-10-23T10:52:54.174286</dc:date>
    <dc:format>image/svg+xml</dc:format>
    <dc:creator>
     <cc:Agent>
      <dc:title>Matplotlib v3.7.1, https://matplotlib.org/</dc:title>
     </cc:Agent>
    </dc:creator>
   </cc:Work>
  </rdf:RDF>
 </metadata>
 <defs>
  <style type="text/css">*{stroke-linejoin: round; stroke-linecap: butt}</style>
 </defs>
 <g id="figure_1">
  <g id="patch_1">
   <path d="M 0 360 
L 720 360 
L 720 0 
L 0 0 
z
" style="fill: #ffffff"/>
  </g>
  <g id="axes_1">
   <g id="patch_2">
    <path d="M 90 288 
L 648 288 
L 648 43.2 
L 90 43.2 
z
" style="fill: #ffffff"/>
   </g>
   <g id="matplotlib.axis_1">
    <g id="xtick_1">
     <g id="line2d_1">
      <defs>
       <path id="md969bc2afa" d="M 0 0 
L 0 3.5 
" style="stroke: #000000; stroke-width: 0.8"/>
      </defs>
      <g>
       <use xlink:href="#md969bc2afa" x="149.370747" y="288" style="stroke: #000000; stroke-width: 0.8"/>
      </g>
     </g>
     <g id="text_1">
      <!-- 2023-08-15 -->
      <g transform="translate(87.727405 337.765903) rotate(-30) scale(0.12 -0.12)">
       <defs>
        <path id="DejaVuSans-32" d="M 1228 531 
L 3431 531 
L 3431 0 
L 469 0 
L 469 531 
Q 828 903 1448 1529 
Q 2069 2156 2228 2338 
Q 2531 2678 2651 2914 
Q 2772 3150 2772 3378 
Q 2772 3750 2511 3984 
Q 2250 4219 1831 4219 
Q 1534 4219 1204 4116 
Q 875 4013 500 3803 
L 500 4441 
Q 881 4594 1212 4672 
Q 1544 4750 1819 4750 
Q 2544 4750 2975 4387 
Q 3406 4025 3406 3419 
Q 3406 3131 3298 2873 
Q 3191 2616 2906 2266 
Q 2828 2175 2409 1742 
Q 1991 1309 1228 531 
z
" transform="scale(0.015625)"/>
        <path id="DejaVuSans-30" d="M 2034 4250 
Q 1547 4250 1301 3770 
Q 1056 3291 1056 2328 
Q 1056 1369 1301 889 
Q 1547 409 2034 409 
Q 2525 409 2770 889 
Q 3016 1369 3016 2328 
Q 3016 3291 2770 3770 
Q 2525 4250 2034 4250 
z
M 2034 4750 
Q 2819 4750 3233 4129 
Q 3647 3509 3647 2328 
Q 3647 1150 3233 529 
Q 2819 -91 2034 -91 
Q 1250 -91 836 529 
Q 422 1150 422 2328 
Q 422 3509 836 4129 
Q 1250 4750 2034 4750 
z
" transform="scale(0.015625)"/>
        <path id="DejaVuSans-33" d="M 2597 2516 
Q 3050 2419 3304 2112 
Q 3559 1806 3559 1356 
Q 3559 666 3084 287 
Q 2609 -91 1734 -91 
Q 1441 -91 1130 -33 
Q 819 25 488 141 
L 488 750 
Q 750 597 1062 519 
Q 1375 441 1716 441 
Q 2309 441 2620 675 
Q 2931 909 2931 1356 
Q 2931 1769 2642 2001 
Q 2353 2234 1838 2234 
L 1294 2234 
L 1294 2753 
L 1863 2753 
Q 2328 2753 2575 2939 
Q 2822 3125 2822 3475 
Q 2822 3834 2567 4026 
Q 2313 4219 1838 4219 
Q 1578 4219 1281 4162 
Q 984 4106 628 3988 
L 628 4550 
Q 988 4650 1302 4700 
Q 1616 4750 1894 4750 
Q 2613 4750 3031 4423 
Q 3450 4097 3450 3541 
Q 3450 3153 3228 2886 
Q 3006 2619 2597 2516 
z
" transform="scale(0.015625)"/>
        <path id="DejaVuSans-2d" d="M 313 2009 
L 1997 2009 
L 1997 1497 
L 313 1497 
L 313 2009 
z
" transform="scale(0.015625)"/>
        <path id="DejaVuSans-38" d="M 2034 2216 
Q 1584 2216 1326 1975 
Q 1069 1734 1069 1313 
Q 1069 891 1326 650 
Q 1584 409 2034 409 
Q 2484 409 2743 651 
Q 3003 894 3003 1313 
Q 3003 1734 2745 1975 
Q 2488 2216 2034 2216 
z
M 1403 2484 
Q 997 2584 770 2862 
Q 544 3141 544 3541 
Q 544 4100 942 4425 
Q 1341 4750 2034 4750 
Q 2731 4750 3128 4425 
Q 3525 4100 3525 3541 
Q 3525 3141 3298 2862 
Q 3072 2584 2669 2484 
Q 3125 2378 3379 2068 
Q 3634 1759 3634 1313 
Q 3634 634 3220 271 
Q 2806 -91 2034 -91 
Q 1263 -91 848 271 
Q 434 634 434 1313 
Q 434 1759 690 2068 
Q 947 2378 1403 2484 
z
M 1172 3481 
Q 1172 3119 1398 2916 
Q 1625 2713 2034 2713 
Q 2441 2713 2670 2916 
Q 2900 3119 2900 3481 
Q 2900 3844 2670 4047 
Q 2441 4250 2034 4250 
Q 1625 4250 1398 4047 
Q 1172 3844 1172 3481 
z
" transform="scale(0.015625)"/>
        <path id="DejaVuSans-31" d="M 794 531 
L 1825 531 
L 1825 4091 
L 703 3866 
L 703 4441 
L 1819 4666 
L 2450 4666 
L 2450 531 
L 3481 531 
L 3481 0 
L 794 0 
L 794 531 
z
" transform="scale(0.015625)"/>
        <path id="DejaVuSans-35" d="M 691 4666 
L 3169 4666 
L 3169 4134 
L 1269 4134 
L 1269 2991 
Q 1406 3038 1543 3061 
Q 1681 3084 1819 3084 
Q 2600 3084 3056 2656 
Q 3513 2228 3513 1497 
Q 3513 744 3044 326 
Q 2575 -91 1722 -91 
Q 1428 -91 1123 -41 
Q 819 9 494 109 
L 494 744 
Q 775 591 1075 516 
Q 1375 441 1709 441 
Q 2250 441 2565 725 
Q 2881 1009 2881 1497 
Q 2881 1984 2565 2268 
Q 2250 2553 1709 2553 
Q 1456 2553 1204 2497 
Q 953 2441 691 2322 
L 691 4666 
z
" transform="scale(0.015625)"/>
       </defs>
       <use xlink:href="#DejaVuSans-32"/>
       <use xlink:href="#DejaVuSans-30" x="63.623047"/>
       <use xlink:href="#DejaVuSans-32" x="127.246094"/>
       <use xlink:href="#DejaVuSans-33" x="190.869141"/>
       <use xlink:href="#DejaVuSans-2d" x="254.492188"/>
       <use xlink:href="#DejaVuSans-30" x="290.576172"/>
       <use xlink:href="#DejaVuSans-38" x="354.199219"/>
       <use xlink:href="#DejaVuSans-2d" x="417.822266"/>
       <use xlink:href="#DejaVuSans-31" x="453.90625"/>
       <use xlink:href="#DejaVuSans-35" x="517.529297"/>
      </g>
     </g>
    </g>
    <g id="xtick_2">
     <g id="line2d_2">
      <g>
       <use xlink:href="#md969bc2afa" x="264.994921" y="288" style="stroke: #000000; stroke-width: 0.8"/>
      </g>
     </g>
     <g id="text_2">
      <!-- 2023-09-01 -->
      <g transform="translate(203.35158 337.765903) rotate(-30) scale(0.12 -0.12)">
       <defs>
        <path id="DejaVuSans-39" d="M 703 97 
L 703 672 
Q 941 559 1184 500 
Q 1428 441 1663 441 
Q 2288 441 2617 861 
Q 2947 1281 2994 2138 
Q 2813 1869 2534 1725 
Q 2256 1581 1919 1581 
Q 1219 1581 811 2004 
Q 403 2428 403 3163 
Q 403 3881 828 4315 
Q 1253 4750 1959 4750 
Q 2769 4750 3195 4129 
Q 3622 3509 3622 2328 
Q 3622 1225 3098 567 
Q 2575 -91 1691 -91 
Q 1453 -91 1209 -44 
Q 966 3 703 97 
z
M 1959 2075 
Q 2384 2075 2632 2365 
Q 2881 2656 2881 3163 
Q 2881 3666 2632 3958 
Q 2384 4250 1959 4250 
Q 1534 4250 1286 3958 
Q 1038 3666 1038 3163 
Q 1038 2656 1286 2365 
Q 1534 2075 1959 2075 
z
" transform="scale(0.015625)"/>
       </defs>
       <use xlink:href="#DejaVuSans-32"/>
       <use xlink:href="#DejaVuSans-30" x="63.623047"/>
       <use xlink:href="#DejaVuSans-32" x="127.246094"/>
       <use xlink:href="#DejaVuSans-33" x="190.869141"/>
       <use xlink:href="#DejaVuSans-2d" x="254.492188"/>
       <use xlink:href="#DejaVuSans-30" x="290.576172"/>
       <use xlink:href="#DejaVuSans-39" x="354.199219"/>
       <use xlink:href="#DejaVuSans-2d" x="417.822266"/>
       <use xlink:href="#DejaVuSans-30" x="453.90625"/>
       <use xlink:href="#DejaVuSans-31" x="517.529297"/>
      </g>
     </g>
    </g>
    <g id="xtick_3">
     <g id="line2d_3">
      <g>
       <use xlink:href="#md969bc2afa" x="360.21483" y="288" style="stroke: #000000; stroke-width: 0.8"/>
      </g>
     </g>
     <g id="text_3">
      <!-- 2023-09-15 -->
      <g transform="translate(298.571488 337.765903) rotate(-30) scale(0.12 -0.12)">
       <use xlink:href="#DejaVuSans-32"/>
       <use xlink:href="#DejaVuSans-30" x="63.623047"/>
       <use xlink:href="#DejaVuSans-32" x="127.246094"/>
       <use xlink:href="#DejaVuSans-33" x="190.869141"/>
       <use xlink:href="#DejaVuSans-2d" x="254.492188"/>
       <use xlink:href="#DejaVuSans-30" x="290.576172"/>
       <use xlink:href="#DejaVuSans-39" x="354.199219"/>
       <use xlink:href="#DejaVuSans-2d" x="417.822266"/>
       <use xlink:href="#DejaVuSans-31" x="453.90625"/>
       <use xlink:href="#DejaVuSans-35" x="517.529297"/>
      </g>
     </g>
    </g>
    <g id="xtick_4">
     <g id="line2d_4">
      <g>
       <use xlink:href="#md969bc2afa" x="469.037583" y="288" style="stroke: #000000; stroke-width: 0.8"/>
      </g>
     </g>
     <g id="text_4">
      <!-- 2023-10-01 -->
      <g transform="translate(407.394241 337.765903) rotate(-30) scale(0.12 -0.12)">
       <use xlink:href="#DejaVuSans-32"/>
       <use xlink:href="#DejaVuSans-30" x="63.623047"/>
       <use xlink:href="#DejaVuSans-32" x="127.246094"/>
       <use xlink:href="#DejaVuSans-33" x="190.869141"/>
       <use xlink:href="#DejaVuSans-2d" x="254.492188"/>
       <use xlink:href="#DejaVuSans-31" x="290.576172"/>
       <use xlink:href="#DejaVuSans-30" x="354.199219"/>
       <use xlink:href="#DejaVuSans-2d" x="417.822266"/>
       <use xlink:href="#DejaVuSans-30" x="453.90625"/>
       <use xlink:href="#DejaVuSans-31" x="517.529297"/>
      </g>
     </g>
    </g>
    <g id="xtick_5">
     <g id="line2d_5">
      <g>
       <use xlink:href="#md969bc2afa" x="564.257491" y="288" style="stroke: #000000; stroke-width: 0.8"/>
      </g>
     </g>
     <g id="text_5">
      <!-- 2023-10-15 -->
      <g transform="translate(502.614149 337.765903) rotate(-30) scale(0.12 -0.12)">
       <use xlink:href="#DejaVuSans-32"/>
       <use xlink:href="#DejaVuSans-30" x="63.623047"/>
       <use xlink:href="#DejaVuSans-32" x="127.246094"/>
       <use xlink:href="#DejaVuSans-33" x="190.869141"/>
       <use xlink:href="#DejaVuSans-2d" x="254.492188"/>
       <use xlink:href="#DejaVuSans-31" x="290.576172"/>
       <use xlink:href="#DejaVuSans-30" x="354.199219"/>
       <use xlink:href="#DejaVuSans-2d" x="417.822266"/>
       <use xlink:href="#DejaVuSans-31" x="453.90625"/>
       <use xlink:href="#DejaVuSans-35" x="517.529297"/>
      </g>
     </g>
    </g>
   </g>
   <g id="matplotlib.axis_2">
    <g id="ytick_1">
     <g id="line2d_6">
      <defs>
       <path id="mddfd8c7c4b" d="M 0 0 
L -3.5 0 
" style="stroke: #000000; stroke-width: 0.8"/>
      </defs>
      <g>
       <use xlink:href="#mddfd8c7c4b" x="90" y="262.26072" style="stroke: #000000; stroke-width: 0.8"/>
      </g>
     </g>
     <g id="text_6">
      <!-- 0.0 -->
      <g transform="translate(63.91625 266.819782) scale(0.12 -0.12)">
       <defs>
        <path id="DejaVuSans-2e" d="M 684 794 
L 1344 794 
L 1344 0 
L 684 0 
L 684 794 
z
" transform="scale(0.015625)"/>
       </defs>
       <use xlink:href="#DejaVuSans-30"/>
       <use xlink:href="#DejaVuSans-2e" x="63.623047"/>
       <use xlink:href="#DejaVuSans-30" x="95.410156"/>
      </g>
     </g>
    </g>
    <g id="ytick_2">
     <g id="line2d_7">
      <g>
       <use xlink:href="#mddfd8c7c4b" x="90" y="214.172053" style="stroke: #000000; stroke-width: 0.8"/>
      </g>
     </g>
     <g id="text_7">
      <!-- 0.5 -->
      <g transform="translate(63.91625 218.731115) scale(0.12 -0.12)">
       <use xlink:href="#DejaVuSans-30"/>
       <use xlink:href="#DejaVuSans-2e" x="63.623047"/>
       <use xlink:href="#DejaVuSans-35" x="95.410156"/>
      </g>
     </g>
    </g>
    <g id="ytick_3">
     <g id="line2d_8">
      <g>
       <use xlink:href="#mddfd8c7c4b" x="90" y="166.083385" style="stroke: #000000; stroke-width: 0.8"/>
      </g>
     </g>
     <g id="text_8">
      <!-- 1.0 -->
      <g transform="translate(63.91625 170.642448) scale(0.12 -0.12)">
       <use xlink:href="#DejaVuSans-31"/>
       <use xlink:href="#DejaVuSans-2e" x="63.623047"/>
       <use xlink:href="#DejaVuSans-30" x="95.410156"/>
      </g>
     </g>
    </g>
    <g id="ytick_4">
     <g id="line2d_9">
      <g>
       <use xlink:href="#mddfd8c7c4b" x="90" y="117.994718" style="stroke: #000000; stroke-width: 0.8"/>
      </g>
     </g>
     <g id="text_9">
      <!-- 1.5 -->
      <g transform="translate(63.91625 122.553781) scale(0.12 -0.12)">
       <use xlink:href="#DejaVuSans-31"/>
       <use xlink:href="#DejaVuSans-2e" x="63.623047"/>
       <use xlink:href="#DejaVuSans-35" x="95.410156"/>
      </g>
     </g>
    </g>
    <g id="ytick_5">
     <g id="line2d_10">
      <g>
       <use xlink:href="#mddfd8c7c4b" x="90" y="69.906051" style="stroke: #000000; stroke-width: 0.8"/>
      </g>
     </g>
     <g id="text_10">
      <!-- 2.0 -->
      <g transform="translate(63.91625 74.465113) scale(0.12 -0.12)">
       <use xlink:href="#DejaVuSans-32"/>
       <use xlink:href="#DejaVuSans-2e" x="63.623047"/>
       <use xlink:href="#DejaVuSans-30" x="95.410156"/>
      </g>
     </g>
    </g>
    <g id="text_11">
     <!-- Meters -->
     <g transform="translate(57.836562 182.6875) rotate(-90) scale(0.1 -0.1)">
      <defs>
       <path id="DejaVuSans-4d" d="M 628 4666 
L 1569 4666 
L 2759 1491 
L 3956 4666 
L 4897 4666 
L 4897 0 
L 4281 0 
L 4281 4097 
L 3078 897 
L 2444 897 
L 1241 4097 
L 1241 0 
L 628 0 
L 628 4666 
z
" transform="scale(0.015625)"/>
       <path id="DejaVuSans-65" d="M 3597 1894 
L 3597 1613 
L 953 1613 
Q 991 1019 1311 708 
Q 1631 397 2203 397 
Q 2534 397 2845 478 
Q 3156 559 3463 722 
L 3463 178 
Q 3153 47 2828 -22 
Q 2503 -91 2169 -91 
Q 1331 -91 842 396 
Q 353 884 353 1716 
Q 353 2575 817 3079 
Q 1281 3584 2069 3584 
Q 2775 3584 3186 3129 
Q 3597 2675 3597 1894 
z
M 3022 2063 
Q 3016 2534 2758 2815 
Q 2500 3097 2075 3097 
Q 1594 3097 1305 2825 
Q 1016 2553 972 2059 
L 3022 2063 
z
" transform="scale(0.015625)"/>
       <path id="DejaVuSans-74" d="M 1172 4494 
L 1172 3500 
L 2356 3500 
L 2356 3053 
L 1172 3053 
L 1172 1153 
Q 1172 725 1289 603 
Q 1406 481 1766 481 
L 2356 481 
L 2356 0 
L 1766 0 
Q 1100 0 847 248 
Q 594 497 594 1153 
L 594 3053 
L 172 3053 
L 172 3500 
L 594 3500 
L 594 4494 
L 1172 4494 
z
" transform="scale(0.015625)"/>
       <path id="DejaVuSans-72" d="M 2631 2963 
Q 2534 3019 2420 3045 
Q 2306 3072 2169 3072 
Q 1681 3072 1420 2755 
Q 1159 2438 1159 1844 
L 1159 0 
L 581 0 
L 581 3500 
L 1159 3500 
L 1159 2956 
Q 1341 3275 1631 3429 
Q 1922 3584 2338 3584 
Q 2397 3584 2469 3576 
Q 2541 3569 2628 3553 
L 2631 2963 
z
" transform="scale(0.015625)"/>
       <path id="DejaVuSans-73" d="M 2834 3397 
L 2834 2853 
Q 2591 2978 2328 3040 
Q 2066 3103 1784 3103 
Q 1356 3103 1142 2972 
Q 928 2841 928 2578 
Q 928 2378 1081 2264 
Q 1234 2150 1697 2047 
L 1894 2003 
Q 2506 1872 2764 1633 
Q 3022 1394 3022 966 
Q 3022 478 2636 193 
Q 2250 -91 1575 -91 
Q 1294 -91 989 -36 
Q 684 19 347 128 
L 347 722 
Q 666 556 975 473 
Q 1284 391 1588 391 
Q 1994 391 2212 530 
Q 2431 669 2431 922 
Q 2431 1156 2273 1281 
Q 2116 1406 1581 1522 
L 1381 1569 
Q 847 1681 609 1914 
Q 372 2147 372 2553 
Q 372 3047 722 3315 
Q 1072 3584 1716 3584 
Q 2034 3584 2315 3537 
Q 2597 3491 2834 3397 
z
" transform="scale(0.015625)"/>
      </defs>
      <use xlink:href="#DejaVuSans-4d"/>
      <use xlink:href="#DejaVuSans-65" x="86.279297"/>
      <use xlink:href="#DejaVuSans-74" x="147.802734"/>
      <use xlink:href="#DejaVuSans-65" x="187.011719"/>
      <use xlink:href="#DejaVuSans-72" x="248.535156"/>
      <use xlink:href="#DejaVuSans-73" x="289.648438"/>
     </g>
    </g>
   </g>
   <g id="line2d_11">
    <path d="M 115.363636 273.859942 
L 115.647029 274.356731 
L 116.497207 273.699688 
L 116.780599 273.651611 
L 117.063992 273.76379 
L 117.347384 273.074695 
L 117.630777 273.202899 
L 117.91417 273.202899 
L 118.197562 273.779815 
L 118.480955 273.042644 
L 118.764347 272.802262 
L 119.04774 273.924044 
L 119.331133 274.1484 
L 119.614525 274.1484 
L 120.464703 273.827891 
L 120.748095 273.859942 
L 121.314881 274.276604 
L 121.598273 273.170848 
L 121.881666 273.283026 
L 122.165058 273.170848 
L 122.448451 273.331102 
L 123.015236 272.850339 
L 123.298629 274.308655 
L 123.582021 275.013775 
L 123.865414 274.725317 
L 124.148807 274.020197 
L 124.432199 274.004171 
L 124.715592 274.164426 
L 124.998984 274.132375 
L 125.282377 273.154822 
L 125.565769 273.891993 
L 126.132555 276.456066 
L 126.415947 276.311836 
L 126.69934 276.456066 
L 126.982732 275.654793 
L 127.83291 274.805444 
L 128.116303 274.67724 
L 128.399695 273.106746 
L 128.96648 273.23495 
L 129.533266 272.625982 
L 129.816658 252.994804 
L 130.100051 201.344771 
L 130.666836 153.81328 
L 130.950229 130.207789 
L 131.233621 122.932234 
L 131.517014 125.191822 
L 131.800406 134.214152 
L 132.933977 185.960337 
L 133.784154 205.303058 
L 134.067547 208.588275 
L 134.917725 221.520815 
L 135.201117 222.482343 
L 137.468258 245.623096 
L 138.601828 253.427491 
L 138.885221 254.308891 
L 140.018791 262.914558 
L 140.302184 263.924162 
L 140.585576 263.86006 
L 140.868969 264.549155 
L 141.152362 266.183751 
L 141.719147 267.225405 
L 142.002539 267.305532 
L 142.569325 267.994627 
L 142.852717 267.962576 
L 143.13611 268.571543 
L 143.419502 268.747823 
L 144.26968 268.811925 
L 144.553073 268.924103 
L 144.836465 269.565121 
L 145.119858 269.565121 
L 145.40325 269.436917 
L 146.253428 270.350368 
L 146.536821 270.654852 
L 146.820213 271.712532 
L 147.103606 272.113168 
L 147.386998 271.920863 
L 147.670391 272.145219 
L 147.953784 272.065092 
L 148.237176 272.577906 
L 148.520569 272.081117 
L 148.803961 271.972144 
L 149.087354 271.600354 
L 149.370747 270.991386 
L 149.654139 266.231827 
L 150.787709 256.648607 
L 151.071102 255.462723 
L 151.354495 256.520403 
L 151.637887 256.680658 
L 151.92128 256.167843 
L 153.338243 243.684016 
L 153.621635 242.834667 
L 153.905028 242.770565 
L 154.188421 243.363507 
L 154.755206 245.671172 
L 156.738954 256.199894 
L 157.022346 258.138974 
L 157.305739 258.283203 
L 157.872524 262.09726 
L 159.006094 265.606834 
L 159.289487 265.831191 
L 159.57288 266.311954 
L 159.856272 268.459365 
L 160.139665 269.53307 
L 160.423057 269.949732 
L 160.989843 269.88563 
L 161.273235 270.254216 
L 161.556628 271.504201 
L 162.123413 272.273422 
L 162.406805 271.055488 
L 162.690198 270.478572 
L 162.973591 271.231768 
L 163.256983 272.321499 
L 163.540376 271.343946 
L 163.823768 271.071514 
L 164.390554 269.693325 
L 164.673946 270.045885 
L 164.957339 270.638826 
L 165.807517 270.654852 
L 166.374302 271.231768 
L 166.657694 272.225346 
L 166.941087 272.674059 
L 167.224479 273.379179 
L 167.507872 272.385601 
L 167.791265 272.401626 
L 168.35805 263.571602 
L 168.641442 256.07169 
L 168.924835 243.507736 
L 169.49162 229.99828 
L 169.775013 226.424604 
L 170.058405 224.613728 
L 170.341798 224.485524 
L 170.62519 224.565651 
L 171.191976 226.408578 
L 171.475368 228.780345 
L 171.758761 229.581618 
L 173.175724 240.094314 
L 173.742509 244.72567 
L 176.00965 260.542791 
L 176.293042 262.033159 
L 176.859827 265.863242 
L 177.14322 266.696565 
L 177.426612 266.904896 
L 177.710005 267.610016 
L 178.27679 267.73822 
L 178.843575 269.164485 
L 179.126968 269.228587 
L 179.410361 269.645248 
L 179.693753 269.645248 
L 179.977146 269.164485 
L 180.543931 272.52983 
L 180.827324 272.674059 
L 181.110716 272.337524 
L 181.394109 271.808684 
L 181.677501 272.395216 
L 181.960894 273.250975 
L 182.527679 273.363153 
L 182.811072 272.113168 
L 183.094464 272.049066 
L 183.377857 272.17727 
L 183.661249 272.802262 
L 184.79482 271.872786 
L 185.078212 271.936888 
L 185.644997 271.712532 
L 186.211783 271.888812 
L 186.495175 270.815106 
L 186.778568 271.359972 
L 187.06196 272.866364 
L 187.628746 274.196477 
L 187.912138 274.484935 
L 188.195531 273.475331 
L 188.478923 272.946491 
L 188.762316 273.859942 
L 189.045708 274.164426 
L 190.179279 272.674059 
L 190.462671 273.010593 
L 190.746064 272.257397 
L 191.029457 272.433677 
L 191.312849 271.375997 
L 191.596242 271.488175 
L 191.879634 272.337524 
L 192.163027 272.513804 
L 192.44642 272.962517 
L 192.729812 272.321499 
L 193.013205 272.561881 
L 193.296597 272.35355 
L 193.57999 272.35355 
L 193.863382 273.218924 
L 194.146775 272.930466 
L 194.430168 273.731739 
L 194.71356 273.956095 
L 194.996953 273.507382 
L 195.280345 273.747764 
L 195.563738 274.356731 
L 196.130523 273.779815 
L 196.413916 273.363153 
L 196.697308 273.875968 
L 196.980701 273.683662 
L 197.264093 273.138797 
L 197.547486 273.218924 
L 198.114271 273.042644 
L 198.397664 273.250975 
L 198.964449 272.978542 
L 199.814627 272.962517 
L 200.098019 272.577906 
L 200.381412 273.074695 
L 200.948197 273.555459 
L 201.514982 275.350309 
L 201.798375 274.981724 
L 202.081767 275.093902 
L 202.648553 276.119531 
L 202.931945 276.215684 
L 203.215338 275.013775 
L 203.49873 274.661215 
L 203.782123 274.789418 
L 204.348908 273.170848 
L 204.632301 273.459306 
L 204.915693 273.138797 
L 205.482478 273.379179 
L 206.332656 273.106746 
L 206.616049 273.347128 
L 206.899441 272.722135 
L 207.182834 273.090721 
L 207.466227 273.138797 
L 207.749619 271.167666 
L 208.599797 193.989089 
L 208.883189 171.729735 
L 209.449975 149.438331 
L 209.733367 146.649903 
L 210.01676 147.178743 
L 210.300152 148.765262 
L 210.583545 151.233182 
L 211.15033 159.614494 
L 212.000508 179.229647 
L 212.2839 167.819525 
L 212.850686 158.95745 
L 213.134078 156.072869 
L 213.417471 156.697861 
L 214.267649 165.111224 
L 215.117826 178.027738 
L 216.534789 201.040288 
L 217.66836 215.142685 
L 218.235145 96.746645 
L 218.518537 76.939186 
L 219.085322 60.993861 
L 219.368715 56.058022 
L 219.652108 54.327273 
L 219.9355 55.320851 
L 220.502285 61.923337 
L 221.352463 75.993684 
L 221.919248 88.221104 
L 222.486034 107.355494 
L 223.619604 160.704224 
L 224.186389 174.630342 
L 225.319959 191.457067 
L 226.45353 206.376763 
L 228.437278 223.79643 
L 229.854241 234.341177 
L 230.421026 236.616791 
L 231.554596 242.770565 
L 232.971559 248.748059 
L 233.254952 249.260873 
L 233.821737 251.424309 
L 234.10513 251.905073 
L 234.388522 252.658269 
L 234.671915 254.757603 
L 235.522092 257.706286 
L 235.805485 257.818465 
L 236.088878 258.475508 
L 236.655663 261.119708 
L 236.939055 261.312013 
L 237.222448 260.542791 
L 237.789233 261.328039 
L 238.072626 262.417769 
L 238.356018 262.177388 
L 238.639411 262.177388 
L 238.922803 262.754304 
L 239.206196 263.010711 
L 239.489589 263.715831 
L 239.772981 263.453014 
L 240.623159 263.747882 
L 241.189944 263.619678 
L 241.473337 265.911318 
L 241.756729 266.263878 
L 242.040122 266.952972 
L 242.323514 266.872845 
L 242.606907 266.344005 
L 242.8903 266.648489 
L 243.457085 269.388841 
L 243.740477 269.914476 
L 244.02387 268.12283 
L 244.307263 268.82795 
L 244.590655 269.853579 
L 244.874048 268.924103 
L 245.440833 268.267059 
L 245.724225 268.619619 
L 246.007618 268.635645 
L 246.291011 268.411289 
L 246.574403 268.795899 
L 246.857796 268.411289 
L 247.141188 268.715772 
L 247.424581 268.555518 
L 247.707974 268.908078 
L 247.991366 267.754245 
L 248.274759 269.468968 
L 248.841544 270.302292 
L 249.124937 270.254216 
L 249.408329 269.613197 
L 249.691722 269.965757 
L 249.975114 270.574725 
L 250.541899 270.206139 
L 250.825292 269.549096 
L 251.108685 269.260637 
L 251.392077 269.629223 
L 251.67547 269.148459 
L 251.958862 269.228587 
L 252.525648 269.132434 
L 252.80904 268.795899 
L 253.092433 268.972179 
L 253.659218 269.036281 
L 254.226003 269.677299 
L 254.509396 269.70935 
L 255.076181 270.013834 
L 255.359573 270.382419 
L 255.642966 270.254216 
L 255.926359 270.751005 
L 256.209751 270.734979 
L 256.493144 270.270241 
L 256.776536 270.622801 
L 257.059929 271.247794 
L 257.343321 270.959335 
L 257.910107 270.863183 
L 258.193499 271.808684 
L 258.476892 271.808684 
L 258.760284 271.552277 
L 259.043677 271.023437 
L 259.32707 270.158063 
L 259.893855 271.536252 
L 260.177247 271.760608 
L 260.46064 271.375997 
L 260.744033 271.488175 
L 261.027425 272.449702 
L 261.310818 271.199717 
L 261.59421 270.542674 
L 261.877603 272.70611 
L 262.160995 273.779815 
L 262.727781 274.196477 
L 263.011173 272.914441 
L 263.294566 272.914441 
L 263.577958 274.125965 
L 263.861351 274.388782 
L 264.144744 274.420833 
L 264.428136 273.186873 
L 264.711529 273.331102 
L 264.994921 273.811866 
L 265.561706 272.834313 
L 265.845099 272.513804 
L 266.128492 272.609957 
L 266.411884 272.257397 
L 266.978669 272.145219 
L 267.262062 271.888812 
L 267.828847 271.968939 
L 268.11224 271.744583 
L 268.395632 270.734979 
L 268.679025 273.443281 
L 269.24581 274.565062 
L 269.529203 274.340706 
L 269.812595 273.539433 
L 270.095988 273.26059 
L 270.37938 274.276604 
L 270.662773 274.818264 
L 270.946166 274.428846 
L 271.229558 273.779815 
L 271.512951 273.699688 
L 271.796343 272.994568 
L 272.079736 272.850339 
L 272.363128 273.154822 
L 272.929914 273.074695 
L 273.213306 272.545855 
L 273.496699 272.577906 
L 273.780091 272.433677 
L 274.346877 273.250975 
L 274.630269 272.834313 
L 274.913662 272.722135 
L 275.197054 271.311895 
L 275.480447 272.850339 
L 275.76384 272.738161 
L 276.047232 273.299051 
L 276.330625 273.539433 
L 276.89741 273.05867 
L 277.180802 274.244553 
L 277.464195 273.539433 
L 277.747588 273.186873 
L 278.314373 272.930466 
L 278.881158 273.571484 
L 279.164551 273.491357 
L 279.447943 273.106746 
L 279.731336 273.138797 
L 280.014728 272.994568 
L 280.581513 272.433677 
L 280.864906 271.968939 
L 281.148299 272.593932 
L 281.715084 271.440099 
L 282.565262 273.318282 
L 282.848654 273.715713 
L 283.132047 273.667637 
L 283.415439 273.908019 
L 283.698832 273.443281 
L 283.982224 273.41123 
L 284.265617 274.581088 
L 284.54901 274.629164 
L 284.832402 273.908019 
L 285.399187 273.715713 
L 285.68258 273.218924 
L 285.965973 273.603535 
L 286.249365 272.994568 
L 286.532758 273.379179 
L 286.81615 273.26059 
L 287.382936 272.305473 
L 287.666328 272.866364 
L 287.949721 272.52983 
L 288.233113 272.914441 
L 288.516506 272.70611 
L 288.799898 272.642008 
L 289.083291 273.956095 
L 289.366684 274.468909 
L 289.650076 274.388782 
L 289.933469 274.50096 
L 290.216861 273.23495 
L 290.500254 273.283026 
L 291.067039 275.478513 
L 291.633824 273.988146 
L 292.200609 274.85352 
L 292.484002 274.100324 
L 292.767395 273.956095 
L 293.050787 273.379179 
L 293.617572 273.010593 
L 293.900965 272.609957 
L 294.184358 272.786237 
L 294.751143 272.898415 
L 295.034535 273.106746 
L 295.60132 272.497779 
L 295.884713 274.67724 
L 296.168106 275.38236 
L 296.451498 274.821469 
L 296.734891 275.542615 
L 297.018283 274.436859 
L 297.301676 274.32468 
L 297.585069 274.565062 
L 297.868461 274.32468 
L 298.151854 274.244553 
L 298.435246 273.667637 
L 299.002031 274.180451 
L 299.285424 273.122771 
L 299.568817 273.699688 
L 299.852209 273.41123 
L 300.135602 273.571484 
L 300.418994 274.100324 
L 300.702387 273.747764 
L 300.98578 272.577906 
L 301.552565 273.379179 
L 301.835957 272.898415 
L 302.402743 272.88239 
L 302.686135 273.956095 
L 302.969528 273.891993 
L 303.25292 273.042644 
L 303.536313 271.728557 
L 303.819705 266.231827 
L 304.103098 268.186932 
L 306.370239 250.767266 
L 306.653631 251.007647 
L 307.220416 252.065327 
L 307.787202 254.244789 
L 308.353987 258.844094 
L 308.637379 259.901773 
L 308.920772 261.953031 
L 310.054342 265.79914 
L 310.337735 266.440158 
L 310.621127 267.674118 
L 310.90452 268.12283 
L 311.187913 268.331161 
L 311.471305 267.834372 
L 311.754698 267.802321 
L 312.321483 269.228587 
L 312.604876 269.18051 
L 312.888268 269.517045 
L 313.171661 269.549096 
L 314.305231 270.302292 
L 314.588624 269.917681 
L 315.155409 270.510623 
L 315.438801 270.270241 
L 315.722194 270.526648 
L 316.005587 270.574725 
L 316.288979 271.087539 
L 316.572372 271.215743 
L 316.855764 271.536252 
L 317.139157 271.584328 
L 317.705942 272.00099 
L 317.989335 272.289448 
L 318.839512 271.584328 
L 319.122905 271.792659 
L 319.406298 271.488175 
L 320.256475 271.632404 
L 320.539868 271.440099 
L 320.823261 271.408048 
L 321.106653 271.632404 
L 321.390046 271.696506 
L 321.673438 271.936888 
L 322.523616 272.00099 
L 322.807009 272.449702 
L 323.373794 274.484935 
L 323.940579 273.299051 
L 324.223972 273.299051 
L 324.507364 272.930466 
L 324.790757 272.770212 
L 325.074149 273.154822 
L 325.357542 272.866364 
L 325.640934 272.946491 
L 326.20772 272.481753 
L 326.774505 272.161244 
L 327.057897 273.23495 
L 327.34129 273.106746 
L 327.624683 273.170848 
L 327.908075 273.459306 
L 328.191468 272.17727 
L 328.47486 272.465728 
L 328.758253 272.145219 
L 329.041646 272.465728 
L 329.891823 272.52983 
L 330.175216 274.244553 
L 330.458608 274.757368 
L 330.742001 274.1484 
L 331.025394 274.164426 
L 331.308786 274.693266 
L 331.592179 274.484935 
L 331.875571 273.908019 
L 332.158964 274.068273 
L 332.442357 273.891993 
L 332.725749 273.491357 
L 333.009142 274.036222 
L 333.292534 273.94007 
L 333.575927 273.571484 
L 333.859319 273.443281 
L 334.142712 273.539433 
L 334.426105 273.459306 
L 335.276282 273.651611 
L 335.559675 273.843917 
L 336.409853 272.52983 
L 336.976638 275.366335 
L 337.26003 275.430437 
L 337.543423 275.991327 
L 338.110208 275.141978 
L 338.393601 274.725317 
L 338.676993 274.581088 
L 339.527171 273.443281 
L 339.810564 273.218924 
L 343.77806 234.677712 
L 344.061453 233.507854 
L 344.344845 233.668108 
L 344.628238 234.549508 
L 344.91163 235.84757 
L 346.611986 248.924339 
L 347.178771 254.004407 
L 347.462164 255.975538 
L 347.745556 257.12937 
L 348.028949 259.677417 
L 348.312341 260.767148 
L 348.879126 264.276722 
L 349.162519 264.420951 
L 349.445912 265.879267 
L 350.012697 266.552336 
L 350.296089 268.427314 
L 350.579482 269.324739 
L 350.862875 269.164485 
L 351.146267 268.843976 
L 351.42966 269.549096 
L 351.713052 269.629223 
L 351.996445 269.917681 
L 352.279837 269.917681 
L 352.56323 270.606775 
L 352.846623 270.222165 
L 353.413408 271.440099 
L 353.980193 270.815106 
L 354.263586 271.263819 
L 354.546978 270.606775 
L 354.830371 271.183692 
L 355.113763 270.254216 
L 355.680549 271.375997 
L 355.963941 270.991386 
L 356.247334 271.408048 
L 356.530726 271.359972 
L 356.814119 271.039463 
L 357.380904 274.052248 
L 357.947689 274.31827 
L 358.231082 273.459306 
L 358.797867 273.283026 
L 359.08126 273.539433 
L 359.364652 273.186873 
L 359.648045 273.074695 
L 359.931437 273.58751 
L 360.21483 273.61956 
L 360.498222 272.722135 
L 360.781615 271.263819 
L 361.065008 272.449702 
L 361.3484 272.946491 
L 361.915185 272.449702 
L 362.481971 272.786237 
L 362.765363 272.625982 
L 363.332148 272.625982 
L 363.615541 271.82471 
L 363.898933 274.068273 
L 364.182326 275.20608 
L 364.465719 275.462487 
L 364.749111 275.286208 
L 365.032504 274.196477 
L 365.315896 274.084299 
L 365.599289 274.100324 
L 365.882682 275.782997 
L 366.166074 275.350309 
L 366.449467 274.084299 
L 366.732859 273.699688 
L 367.016252 273.779815 
L 367.299644 273.363153 
L 367.86643 273.651611 
L 368.149822 273.010593 
L 368.433215 273.635586 
L 368.716607 272.866364 
L 369 272.978542 
L 369.566785 273.811866 
L 369.850178 273.299051 
L 370.13357 273.347128 
L 370.416963 272.946491 
L 370.983748 275.270182 
L 371.550533 275.398386 
L 371.833926 275.045826 
L 372.400711 275.045826 
L 373.250889 274.004171 
L 373.534281 274.565062 
L 373.817674 274.084299 
L 374.101067 273.331102 
L 374.384459 273.042644 
L 374.667852 272.946491 
L 374.951244 272.497779 
L 375.234637 272.914441 
L 375.518029 272.914441 
L 375.801422 273.218924 
L 376.084815 272.88239 
L 376.368207 272.786237 
L 376.6516 273.459306 
L 376.934992 273.090721 
L 377.218385 272.225346 
L 377.78517 273.283026 
L 378.068563 274.004171 
L 378.635348 274.533011 
L 378.91874 274.661215 
L 379.768918 273.603535 
L 380.052311 273.042644 
L 380.902489 272.690084 
L 381.185881 273.010593 
L 381.469274 273.042644 
L 381.752666 273.283026 
L 382.036059 273.699688 
L 382.319451 272.738161 
L 382.602844 273.363153 
L 382.886237 272.738161 
L 383.169629 273.427255 
L 383.453022 272.609957 
L 384.019807 272.609957 
L 384.869985 274.693266 
L 385.153377 273.956095 
L 385.43677 274.100324 
L 385.720163 273.76379 
L 386.286948 274.629164 
L 386.853733 273.779815 
L 387.137125 274.1484 
L 387.420518 274.949673 
L 387.987303 274.292629 
L 388.837481 273.956095 
L 389.120874 272.738161 
L 389.404266 272.978542 
L 389.687659 273.395204 
L 389.971051 274.196477 
L 390.254444 274.100324 
L 390.537836 274.276604 
L 390.821229 273.154822 
L 391.104622 274.997749 
L 391.388014 275.38236 
L 391.671407 275.125953 
L 391.954799 275.125953 
L 392.238192 274.228528 
L 392.521585 274.212502 
L 393.08837 274.436859 
L 393.371762 274.068273 
L 393.938547 274.260579 
L 394.22194 274.516986 
L 395.072118 273.651611 
L 395.35551 273.667637 
L 395.638903 272.930466 
L 395.922296 273.218924 
L 396.205688 273.05867 
L 396.489081 272.593932 
L 396.772473 272.88239 
L 397.055866 273.41123 
L 397.339259 272.834313 
L 397.622651 272.52983 
L 397.906044 272.52983 
L 398.472829 274.244553 
L 399.606399 274.741342 
L 399.889792 275.241336 
L 400.173184 276.215684 
L 400.456577 274.516986 
L 400.73997 274.597113 
L 401.023362 275.398386 
L 401.590147 274.1484 
L 402.723718 273.186873 
L 403.00711 273.539433 
L 403.290503 273.61956 
L 403.573895 273.539433 
L 403.857288 273.731739 
L 404.424073 273.074695 
L 404.990858 274.933648 
L 405.274251 275.190055 
L 405.557643 275.093902 
L 405.841036 275.141978 
L 406.124429 275.0298 
L 406.407821 275.238131 
L 406.691214 276.872727 
L 406.974606 275.959276 
L 407.257999 275.943251 
L 407.541392 275.109928 
L 407.824784 275.061851 
L 408.108177 274.837495 
L 408.391569 274.164426 
L 408.958354 273.699688 
L 409.808532 273.747764 
L 410.375317 273.507382 
L 410.65871 273.379179 
L 410.942103 272.850339 
L 411.225495 272.738161 
L 411.508888 273.23495 
L 411.79228 274.741342 
L 412.925851 275.109928 
L 413.209243 274.789418 
L 413.492636 275.782997 
L 413.776028 276.247735 
L 414.059421 275.270182 
L 414.342814 274.997749 
L 414.909599 274.004171 
L 415.759777 274.837495 
L 416.043169 274.597113 
L 416.326562 274.020197 
L 416.609954 273.875968 
L 416.893347 274.084299 
L 417.176739 273.363153 
L 417.460132 273.76379 
L 417.743525 273.875968 
L 418.026917 273.41123 
L 418.31031 274.629164 
L 418.877095 275.9112 
L 419.160488 275.654793 
L 419.44388 274.949673 
L 419.727273 274.67724 
L 420.010665 274.645189 
L 420.294058 275.9112 
L 420.57745 276.247735 
L 420.860843 274.901597 
L 421.427628 274.164426 
L 421.994413 273.956095 
L 422.561199 274.981724 
L 423.127984 274.757368 
L 423.411376 274.372757 
L 423.694769 273.731739 
L 424.261554 273.61956 
L 424.544947 273.331102 
L 424.828339 273.218924 
L 425.111732 274.725317 
L 425.395124 275.510564 
L 425.678517 275.350309 
L 426.245302 274.484935 
L 426.528695 274.613139 
L 426.812087 274.452884 
L 427.09548 275.318258 
L 427.378873 275.0298 
L 427.662265 274.32468 
L 427.945658 274.020197 
L 428.512443 274.116349 
L 429.079228 273.507382 
L 429.646013 273.539433 
L 430.212798 273.827891 
L 430.496191 274.244553 
L 430.779584 273.154822 
L 431.062976 272.674059 
L 431.913154 272.065092 
L 432.196546 272.289448 
L 432.479939 271.904837 
L 432.763332 272.257397 
L 433.046724 272.385601 
L 433.330117 273.042644 
L 433.613509 273.283026 
L 434.180295 273.427255 
L 434.463687 273.05867 
L 435.030472 271.904837 
L 435.313865 271.968939 
L 435.597257 271.488175 
L 435.88065 272.35355 
L 436.164043 272.674059 
L 436.447435 272.625982 
L 436.730828 271.504201 
L 437.01422 271.792659 
L 437.864398 271.696506 
L 438.147791 270.41447 
L 438.714576 270.430495 
L 438.997969 269.164485 
L 439.564754 265.914523 
L 439.848146 264.997867 
L 440.981717 259.693443 
L 441.265109 258.828068 
L 441.548502 258.844094 
L 441.831894 259.180628 
L 442.965465 263.122889 
L 443.815642 265.638885 
L 444.099035 266.395287 
L 444.382428 266.728616 
L 444.66582 267.449761 
L 445.515998 268.47539 
L 445.799391 268.619619 
L 446.082783 269.18051 
L 446.366176 269.324739 
L 446.649568 269.789477 
L 446.932961 269.88563 
L 447.216353 270.158063 
L 447.499746 270.142037 
L 447.783139 270.302292 
L 448.066531 270.654852 
L 448.349924 270.670877 
L 448.633316 270.334343 
L 449.200102 266.50426 
L 450.617064 236.921275 
L 451.18385 232.14569 
L 452.034027 227.930996 
L 452.31742 226.889342 
L 452.884205 225.895764 
L 453.167598 225.927815 
L 453.45099 227.00152 
L 454.017776 231.136087 
L 454.584561 236.007824 
L 455.718131 246.296164 
L 457.135094 257.033217 
L 458.268664 262.529948 
L 458.552057 263.68378 
L 459.402235 265.895293 
L 459.96902 267.754245 
L 460.819198 269.148459 
L 461.10259 269.404867 
L 461.669375 269.036281 
L 462.23616 269.036281 
L 462.519553 269.581147 
L 462.802946 269.70935 
L 463.369731 269.468968 
L 463.653123 270.190114 
L 464.219909 270.013834 
L 465.070086 270.430495 
L 465.353479 270.23819 
L 465.636872 269.821528 
L 466.203657 272.802262 
L 466.487049 272.962517 
L 466.770442 273.571484 
L 467.053834 272.433677 
L 467.337227 272.401626 
L 467.62062 272.161244 
L 467.904012 273.76379 
L 468.187405 274.004171 
L 468.470797 273.363153 
L 468.75419 273.154822 
L 469.037583 272.241372 
L 469.604368 271.728557 
L 469.88776 271.856761 
L 470.454545 271.456124 
L 470.737938 271.760608 
L 471.021331 271.552277 
L 471.304723 271.776633 
L 471.588116 271.247794 
L 471.871508 271.776633 
L 472.154901 271.920863 
L 472.438294 271.343946 
L 473.288471 273.667637 
L 473.855256 274.180451 
L 474.138649 273.379179 
L 474.422042 273.299051 
L 474.988827 275.334284 
L 476.122397 272.834313 
L 476.40579 273.090721 
L 476.689182 272.52983 
L 476.972575 272.754186 
L 477.255967 272.449702 
L 477.53936 272.754186 
L 477.822753 272.625982 
L 478.106145 272.770212 
L 478.389538 272.722135 
L 478.67293 272.88239 
L 478.956323 272.818288 
L 479.239716 272.481753 
L 479.806501 275.254157 
L 480.089893 275.366335 
L 480.373286 275.318258 
L 480.656679 275.430437 
L 480.940071 275.125953 
L 481.223464 274.1484 
L 481.790249 276.728498 
L 482.357034 275.013775 
L 482.640427 274.036222 
L 483.207212 273.299051 
L 483.490604 273.122771 
L 483.773997 273.475331 
L 484.05739 273.202899 
L 484.340782 273.106746 
L 484.624175 273.715713 
L 484.907567 273.138797 
L 485.19096 273.267001 
L 485.474352 273.154822 
L 485.757745 273.507382 
L 486.041138 272.898415 
L 486.607923 276.08748 
L 486.891315 275.750946 
L 487.174708 276.183633 
L 487.741493 274.933648 
L 488.024886 274.741342 
L 488.308278 275.895175 
L 488.591671 276.007353 
L 488.875063 275.991327 
L 489.158456 275.109928 
L 489.441849 274.661215 
L 489.725241 273.827891 
L 490.008634 273.667637 
L 490.292026 273.76379 
L 490.858812 273.299051 
L 491.142204 273.507382 
L 491.425597 273.347128 
L 491.992382 273.491357 
L 492.275775 273.154822 
L 492.559167 273.76379 
L 492.84256 272.914441 
L 493.125952 273.138797 
L 493.692737 275.398386 
L 493.97613 275.638767 
L 494.259523 274.533011 
L 494.542915 274.420833 
L 494.826308 274.965698 
L 495.1097 274.709291 
L 495.393093 274.164426 
L 495.676486 274.372757 
L 495.959878 275.430437 
L 496.243271 274.533011 
L 496.526663 274.244553 
L 496.810056 273.779815 
L 497.093448 273.843917 
L 497.376841 274.068273 
L 497.943626 273.443281 
L 498.227019 273.779815 
L 498.793804 273.074695 
L 499.077197 272.545855 
L 499.360589 272.305473 
L 499.643982 272.35355 
L 500.210767 272.834313 
L 500.494159 273.250975 
L 500.777552 273.074695 
L 501.060945 273.074695 
L 501.344337 272.962517 
L 501.62773 272.513804 
L 501.911122 272.593932 
L 502.194515 271.776633 
L 502.7613 263.619678 
L 503.044693 253.587745 
L 503.611478 229.773923 
L 504.178263 220.911848 
L 504.461656 218.107394 
L 504.745048 217.001638 
L 505.028441 216.649078 
L 505.311833 217.225994 
L 505.595226 218.652259 
L 506.445404 226.2964 
L 507.295582 236.216155 
L 507.862367 241.184045 
L 508.429152 245.975655 
L 508.995937 251.600589 
L 509.562722 254.98196 
L 509.846115 257.145396 
L 510.4129 259.42101 
L 510.696293 261.295988 
L 511.263078 262.578024 
L 511.54647 263.956213 
L 511.829863 263.972238 
L 512.396648 265.2703 
L 512.680041 265.478631 
L 512.963433 266.664514 
L 513.246826 265.879267 
L 513.813611 267.706169 
L 514.097004 267.337583 
L 514.380396 267.850398 
L 514.947181 268.106805 
L 515.230574 268.82795 
L 515.513966 268.876027 
L 515.797359 269.517045 
L 516.080752 268.82795 
L 516.364144 269.292688 
L 524.865922 271.47215 
L 525.149314 271.680481 
L 525.999492 271.520226 
L 526.282885 271.776633 
L 526.566277 271.872786 
L 527.133062 271.231768 
L 527.416455 271.520226 
L 527.699848 272.465728 
L 527.98324 272.081117 
L 528.550025 272.577906 
L 528.833418 272.481753 
L 529.116811 272.52983 
L 529.400203 272.754186 
L 530.250381 272.113168 
L 530.533773 272.113168 
L 530.817166 272.305473 
L 531.100559 272.193295 
L 531.383951 272.321499 
L 531.667344 272.161244 
L 531.950736 272.385601 
L 532.234129 272.914441 
L 532.517522 272.369575 
L 532.800914 272.35355 
L 533.084307 272.962517 
L 533.367699 271.984964 
L 533.651092 272.497779 
L 533.934485 272.113168 
L 534.217877 272.513804 
L 535.351447 273.170848 
L 535.918233 272.786237 
L 536.201625 273.010593 
L 536.485018 272.866364 
L 536.76841 271.968939 
L 537.051803 273.363153 
L 537.335196 272.35355 
L 537.618588 272.241372 
L 537.901981 272.289448 
L 538.185373 272.738161 
L 538.468766 272.481753 
L 538.752158 272.946491 
L 539.035551 272.642008 
L 539.602336 272.754186 
L 539.885729 272.561881 
L 540.169121 272.850339 
L 541.019299 272.449702 
L 541.302692 272.593932 
L 541.586084 272.52983 
L 542.436262 273.507382 
L 542.719655 273.010593 
L 543.003047 273.170848 
L 543.28644 272.802262 
L 543.569832 272.770212 
L 543.853225 272.930466 
L 544.136618 272.642008 
L 544.42001 273.571484 
L 544.703403 274.068273 
L 544.986795 273.122771 
L 545.270188 273.379179 
L 545.55358 272.914441 
L 545.836973 272.866364 
L 546.120366 272.978542 
L 546.687151 272.866364 
L 546.970543 272.914441 
L 547.537329 271.872786 
L 547.820721 272.834313 
L 548.104114 273.202899 
L 548.387506 274.164426 
L 548.670899 274.404808 
L 548.954292 274.452884 
L 549.237684 274.228528 
L 549.521077 274.67724 
L 550.371254 273.443281 
L 550.654647 272.930466 
L 550.93804 273.202899 
L 551.221432 272.930466 
L 551.504825 273.106746 
L 551.788217 272.802262 
L 552.07161 273.315077 
L 552.355003 272.818288 
L 552.638395 272.818288 
L 552.921788 273.202899 
L 553.20518 272.946491 
L 553.488573 272.88239 
L 553.771965 273.170848 
L 554.338751 272.802262 
L 554.622143 272.690084 
L 555.188928 273.05867 
L 555.472321 273.042644 
L 555.755714 273.23495 
L 556.322499 273.267001 
L 556.605891 273.459306 
L 556.889284 273.283026 
L 557.172676 273.891993 
L 557.456069 272.770212 
L 558.022854 272.690084 
L 558.306247 272.273422 
L 558.589639 272.513804 
L 558.873032 272.00099 
L 559.439817 272.305473 
L 560.006602 271.872786 
L 560.85678 271.424074 
L 561.140173 270.734979 
L 561.423565 267.145278 
L 561.706958 264.997867 
L 561.99035 260.670995 
L 562.557136 240.382773 
L 563.407313 226.664986 
L 563.974099 222.610546 
L 564.257491 221.825299 
L 564.540884 221.985554 
L 564.824276 222.882979 
L 566.241239 230.270712 
L 569.075165 251.087775 
L 569.925343 256.263996 
L 570.775521 259.869723 
L 571.342306 261.888929 
L 571.909091 263.86006 
L 572.192483 264.148518 
L 572.475876 265.077994 
L 572.759269 265.606834 
L 573.042661 267.0331 
L 573.326054 266.840794 
L 574.176232 268.315136 
L 574.743017 268.683721 
L 575.026409 269.228587 
L 575.309802 269.388841 
L 575.593195 270.06191 
L 575.876587 269.818323 
L 576.15998 270.318317 
L 576.443372 270.41447 
L 576.726765 270.222165 
L 577.010157 270.831132 
L 577.29355 270.045885 
L 577.576943 270.41447 
L 578.143728 270.029859 
L 578.42712 270.126012 
L 578.710513 270.686903 
L 578.993906 270.41447 
L 579.277298 270.41447 
L 579.560691 270.222165 
L 579.844083 270.41447 
L 580.127476 270.093961 
L 580.410868 270.59075 
L 580.694261 270.478572 
L 581.261046 270.959335 
L 582.111224 271.311895 
L 582.394617 271.792659 
L 582.678009 271.702916 
L 582.961402 271.82471 
L 583.244794 271.808684 
L 583.528187 272.049066 
L 583.811579 271.488175 
L 584.094972 271.808684 
L 584.378365 271.536252 
L 584.661757 272.417652 
L 584.94515 271.64843 
L 585.228542 271.359972 
L 585.511935 271.616379 
L 586.07872 272.70611 
L 586.645505 271.760608 
L 586.928898 271.584328 
L 587.212291 271.856761 
L 587.495683 271.424074 
L 587.779076 272.321499 
L 588.062468 271.64843 
L 588.345861 271.488175 
L 588.629253 272.930466 
L 588.912646 273.042644 
L 589.196039 273.571484 
L 589.479431 273.267001 
L 589.762824 273.94007 
L 590.046216 272.994568 
L 590.329609 272.962517 
L 590.613002 272.481753 
L 591.179787 272.465728 
L 591.463179 272.850339 
L 591.746572 271.632404 
L 592.029964 271.552277 
L 592.313357 271.616379 
L 592.59675 272.305473 
L 592.880142 272.033041 
L 593.163535 272.88239 
L 593.446927 272.513804 
L 593.73032 271.776633 
L 594.013713 271.488175 
L 594.297105 271.392023 
L 594.580498 271.920863 
L 594.86389 271.279844 
L 595.430675 272.00099 
L 595.714068 273.267001 
L 595.997461 273.475331 
L 596.280853 273.186873 
L 596.847638 271.920863 
L 597.131031 272.193295 
L 597.697816 271.087539 
L 597.981209 270.318317 
L 598.831386 266.920921 
L 599.398172 262.722253 
L 599.681564 262.401744 
L 599.964957 261.856879 
L 600.248349 261.616497 
L 600.531742 261.600471 
L 600.815135 261.199835 
L 601.098527 261.263937 
L 601.38192 260.799199 
L 601.665312 261.087657 
L 601.948705 260.703046 
L 603.082275 262.193413 
L 603.365668 262.578024 
L 603.64906 261.7447 
L 603.932453 261.552395 
L 604.215846 262.081235 
L 605.066023 259.453061 
L 605.349416 259.212679 
L 606.199594 257.770388 
L 606.766379 258.379355 
L 607.049771 258.603712 
L 607.616557 259.24473 
L 607.899949 260.174206 
L 608.183342 260.526766 
L 608.466734 261.119708 
L 608.750127 262.289566 
L 609.03352 262.706228 
L 609.316912 263.715831 
L 609.600305 264.132493 
L 609.883697 264.997867 
L 610.16709 266.712591 
L 610.450482 266.616438 
L 610.733875 266.985023 
L 611.30066 267.914499 
L 611.584053 267.658092 
L 611.867445 267.834372 
L 612.150838 268.587568 
L 612.434231 268.603594 
L 612.717623 269.052307 
L 613.001016 268.940128 
L 613.567801 269.420892 
L 613.851193 269.308714 
L 614.134586 269.501019 
L 614.417979 269.484994 
L 614.701371 269.789477 
L 615.268156 269.837554 
L 615.834942 271.055488 
L 616.401727 270.959335 
L 616.685119 271.552277 
L 616.968512 271.792659 
L 617.251905 271.696506 
L 617.535297 272.273422 
L 617.81869 272.577906 
L 618.102082 272.577906 
L 618.385475 272.962517 
L 619.802438 271.408048 
L 620.08583 272.257397 
L 620.369223 271.888812 
L 620.652616 271.984964 
L 621.219401 272.513804 
L 621.502793 272.289448 
L 621.786186 273.090721 
L 622.069578 271.488175 
L 622.636364 272.690084 
L 622.636364 272.690084 
" clip-path="url(#p5faee6e0bf)" style="fill: none; stroke: #1f77b4; stroke-width: 1.5; stroke-linecap: square"/>
   </g>
   <g id="line2d_12">
    <path d="M 115.363636 273.240023 
L 115.930422 273.277063 
L 116.213814 274.116349 
L 120.464703 274.352293 
L 121.031488 272.84733 
L 121.314881 272.925585 
L 121.598273 273.137913 
L 122.165058 270.239995 
L 122.448451 270.509189 
L 122.731844 270.494384 
L 123.015236 273.074695 
L 128.399695 273.378905 
L 128.96648 272.087617 
L 129.249873 272.25799 
L 129.533266 271.367787 
L 129.816658 272.625982 
L 130.100051 272.723992 
L 130.383443 272.560307 
L 130.666836 272.267632 
L 131.233621 272.235075 
L 132.367191 272.271872 
L 132.650584 272.641398 
L 133.217369 268.281768 
L 133.500762 268.308241 
L 133.784154 268.733091 
L 134.35094 260.364626 
L 134.634332 260.768523 
L 134.917725 260.347231 
L 135.48451 260.704538 
L 136.334688 261.121189 
L 136.61808 234.26105 
L 139.452006 238.003302 
L 142.285932 241.403389 
L 143.13611 242.361447 
L 143.419502 268.571543 
L 147.386998 269.762134 
L 148.803961 270.170768 
L 149.370747 269.717473 
L 149.937532 268.477843 
L 150.220924 263.715831 
L 151.354495 256.484444 
L 151.92128 251.28263 
L 152.488065 242.866321 
L 152.771458 238.138928 
L 153.05485 238.558188 
L 153.338243 237.230903 
L 153.621635 234.303543 
L 154.755206 214.977536 
L 155.888776 199.952572 
L 156.455561 194.139697 
L 156.738954 193.365503 
L 157.022346 256.199894 
L 157.305739 256.003416 
L 157.872524 256.356559 
L 161.273235 259.29245 
L 163.540376 260.995822 
L 163.823768 271.343946 
L 168.074657 271.89315 
L 168.35805 271.527379 
L 168.924835 269.076891 
L 169.208228 268.979853 
L 169.49162 268.013662 
L 170.058405 263.175615 
L 170.341798 262.844661 
L 170.62519 224.485524 
L 173.459116 229.121579 
L 176.293042 233.333747 
L 177.14322 234.520629 
L 177.426612 266.696565 
L 182.527679 268.042971 
L 183.944642 268.37754 
L 184.228035 272.593932 
L 190.746064 273.107739 
L 191.029457 272.257397 
L 197.547486 272.837809 
L 197.830879 273.218924 
L 204.348908 273.609037 
L 204.632301 273.170848 
L 210.01676 273.769716 
L 211.15033 273.877532 
L 211.433723 273.765728 
L 212.567293 269.308528 
L 212.850686 265.427389 
L 213.417471 253.600052 
L 213.700863 250.699892 
L 213.984256 249.806291 
L 214.267649 249.758909 
L 214.834434 250.334418 
L 216.251397 252.118189 
L 216.534789 251.051289 
L 216.818182 251.119758 
L 217.384967 254.039713 
L 217.66836 254.590309 
L 217.951752 250.854733 
L 218.518537 239.671664 
L 218.80193 237.450519 
L 219.085322 236.966065 
L 219.368715 237.166754 
L 220.218893 238.608276 
L 223.052819 243.656591 
L 225.603352 247.716252 
L 228.153885 251.334847 
L 230.704418 254.542761 
L 233.254952 257.371735 
L 235.805485 259.854231 
L 238.356018 262.02272 
L 239.489589 262.546376 
L 243.740477 264.240182 
L 245.15744 264.752769 
L 245.440833 268.587568 
L 250.258507 269.588729 
L 250.541899 269.604164 
L 250.825292 269.799354 
L 251.392077 268.050247 
L 251.67547 268.186432 
L 251.958862 268.485445 
L 252.242255 269.228587 
L 252.525648 267.594544 
L 252.80904 266.978178 
L 253.375825 267.196388 
L 256.493144 268.001 
L 258.760284 268.531845 
L 259.043677 271.552277 
L 264.144744 272.371037 
L 270.095988 273.096408 
L 276.89741 273.699825 
L 285.115795 274.201859 
L 287.382936 274.307734 
L 287.666328 272.305473 
L 292.200609 273.041394 
L 292.767395 273.119278 
L 293.050787 273.956095 
L 297.868461 274.305243 
L 298.435246 274.097615 
L 299.002031 274.149184 
L 299.285424 274.066399 
L 299.568817 274.300262 
L 300.135602 271.276569 
L 300.418994 271.13831 
L 300.702387 270.715314 
L 301.269172 267.885583 
L 301.552565 267.257629 
L 301.835957 267.082713 
L 302.402743 267.1937 
L 303.819705 267.80338 
L 304.103098 268.099443 
L 304.669883 266.561634 
L 304.953276 266.128309 
L 305.236668 265.287087 
L 305.520061 264.992972 
L 306.086846 263.731681 
L 306.370239 263.436089 
L 306.653631 263.429452 
L 307.503809 263.889221 
L 310.90452 266.011192 
L 313.738446 267.49584 
L 316.855764 268.865698 
L 319.973083 270.000807 
L 323.373794 271.015056 
L 327.34129 271.956454 
L 331.592179 272.735061 
L 336.693245 273.429223 
L 339.810564 273.753915 
L 343.494667 249.303211 
L 343.77806 248.607819 
L 344.061453 248.549456 
L 344.628238 249.118674 
L 349.162519 254.952625 
L 350.579482 256.540955 
L 350.862875 267.337583 
L 353.980193 268.734314 
L 356.247334 269.597788 
L 356.530726 270.670877 
L 360.21483 271.623341 
L 363.048756 272.220029 
L 363.332148 272.88239 
L 368.433215 273.535395 
L 369.850178 273.681823 
L 370.13357 274.132375 
L 376.6516 274.500965 
L 376.934992 273.138797 
L 379.485526 273.463953 
L 379.768918 273.3918 
L 380.052311 273.183802 
L 380.335703 273.115137 
L 380.619096 273.167147 
L 380.902489 273.033772 
L 381.752666 272.335031 
L 382.319451 272.167272 
L 383.169629 272.016073 
L 383.453022 272.041232 
L 383.736414 273.427255 
L 388.837481 274.018971 
L 390.254444 274.147336 
L 390.537836 273.843917 
L 396.205688 274.345416 
L 397.055866 274.403898 
L 397.339259 273.042644 
L 401.87354 273.690092 
L 403.857288 273.911453 
L 404.140681 273.555459 
L 409.241747 274.107342 
L 411.79228 274.313644 
L 412.075673 273.010593 
L 416.609954 273.667211 
L 422.277806 274.239253 
L 429.079228 274.659829 
L 431.062976 274.747087 
L 431.346369 273.427255 
L 435.597257 273.704412 
L 436.164043 273.417896 
L 436.447435 273.057215 
L 437.01422 271.966861 
L 437.581006 271.523532 
L 439.564754 271.002677 
L 440.414931 270.734978 
L 441.831894 270.439315 
L 442.965465 270.599017 
L 445.515998 270.97655 
L 446.082783 270.986211 
L 446.366176 268.523467 
L 447.499746 268.757985 
L 447.783139 270.286266 
L 450.900457 270.936105 
L 451.467242 270.218457 
L 451.750635 232.434148 
L 452.034027 232.272713 
L 452.600813 231.701244 
L 453.167598 231.491096 
L 453.45099 231.643707 
L 454.017776 232.432175 
L 459.402235 241.800287 
L 461.952768 245.526967 
L 464.503301 248.838898 
L 465.070086 249.523307 
L 465.353479 270.126012 
L 470.171153 271.15688 
L 471.871508 271.469233 
L 472.154901 271.311895 
L 475.555612 272.200869 
L 478.67293 272.842222 
L 479.239716 272.838718 
L 483.490604 273.506978 
L 485.474352 273.753528 
L 485.757745 273.395204 
L 490.575419 273.970036 
L 492.275775 274.128329 
L 492.559167 273.363153 
L 497.376841 273.947657 
L 499.077197 274.104838 
L 499.360589 273.299051 
L 501.62773 273.576934 
L 501.911122 273.177891 
L 502.477908 270.389405 
L 503.328085 264.524584 
L 503.89487 255.971672 
L 504.178263 252.289248 
L 504.461656 250.91015 
L 505.311833 242.641319 
L 505.595226 241.92995 
L 505.878619 241.996949 
L 506.162011 218.235598 
L 511.263078 232.507015 
L 511.54647 232.61465 
L 511.829863 232.87137 
L 512.113255 232.533454 
L 512.396648 231.747712 
L 512.680041 231.675282 
L 512.963433 265.126071 
L 514.947181 266.486477 
L 515.797359 266.878481 
L 516.364144 267.165715 
L 525.7161 271.171456 
L 529.116811 272.091307 
L 532.800914 272.860278 
L 533.084307 272.911224 
L 533.367699 272.241372 
L 535.918233 272.711624 
L 536.485018 272.604753 
L 536.76841 272.677212 
L 537.618588 272.276181 
L 538.185373 272.254665 
L 539.035551 272.244897 
L 539.885729 272.409153 
L 540.169121 272.722135 
L 544.42001 273.421414 
L 546.687151 273.731404 
L 546.970543 273.074695 
L 547.253936 273.023792 
L 547.820721 272.597076 
L 548.387506 272.504064 
L 548.954292 272.314708 
L 549.804469 272.395867 
L 550.654647 272.442242 
L 550.93804 272.279047 
L 552.921788 272.375827 
L 553.20518 271.633913 
L 553.488573 270.356333 
L 553.771965 273.042644 
L 554.055358 272.674912 
L 554.338751 271.899996 
L 554.905536 269.947508 
L 555.188928 269.573877 
L 555.472321 269.477614 
L 556.039106 269.5891 
L 557.739462 270.292347 
L 558.306247 269.653892 
L 558.589639 269.883124 
L 558.873032 269.167188 
L 559.156425 268.006189 
L 559.439817 267.651821 
L 559.72321 267.52677 
L 560.289995 266.396853 
L 560.573388 272.017015 
L 561.140173 268.244535 
L 561.706958 262.72635 
L 562.557136 258.222334 
L 563.123921 255.49267 
L 563.690706 254.304982 
L 564.257491 253.514485 
L 564.540884 253.430365 
L 564.824276 253.58979 
L 565.674454 254.626036 
L 567.091417 256.517868 
L 567.37481 233.844388 
L 569.925343 238.046938 
L 570.775521 239.279261 
L 573.326054 241.70852 
L 573.892839 242.478407 
L 574.176232 267.241431 
L 578.143728 268.590335 
L 580.694261 269.335521 
L 580.977654 270.318317 
L 585.795328 271.310768 
L 587.495683 271.61148 
L 587.779076 271.856761 
L 593.446927 272.647722 
L 594.297105 272.748669 
L 594.580498 271.343946 
L 595.430675 271.287776 
L 595.714068 270.968862 
L 595.997461 270.412794 
L 596.280853 269.577213 
L 597.697816 263.547127 
L 598.831386 260.868842 
L 599.964957 256.234172 
L 600.248349 255.954914 
L 600.531742 255.940447 
L 601.098527 256.257238 
L 601.38192 261.151759 
L 606.199594 263.958719 
L 607.899949 264.815561 
L 608.183342 259.292806 
L 611.30066 261.438672 
L 614.417979 263.298238 
L 614.701371 263.454368 
L 614.984764 268.876027 
L 618.102082 270.185857 
L 621.219401 271.237061 
L 621.502793 271.321379 
L 621.786186 272.241372 
L 622.636364 272.428671 
L 622.636364 272.428671 
" clip-path="url(#p5faee6e0bf)" style="fill: none; stroke: #ff7f0e; stroke-width: 1.5; stroke-linecap: square"/>
   </g>
   <g id="patch_3">
    <path d="M 90 288 
L 90 43.2 
" style="fill: none; stroke: #000000; stroke-width: 0.8; stroke-linejoin: miter; stroke-linecap: square"/>
   </g>
   <g id="patch_4">
    <path d="M 648 288 
L 648 43.2 
" style="fill: none; stroke: #000000; stroke-width: 0.8; stroke-linejoin: miter; stroke-linecap: square"/>
   </g>
   <g id="patch_5">
    <path d="M 90 288 
L 648 288 
" style="fill: none; stroke: #000000; stroke-width: 0.8; stroke-linejoin: miter; stroke-linecap: square"/>
   </g>
   <g id="patch_6">
    <path d="M 90 43.2 
L 648 43.2 
" style="fill: none; stroke: #000000; stroke-width: 0.8; stroke-linejoin: miter; stroke-linecap: square"/>
   </g>
   <g id="text_12">
    <!-- DET011 -->
    <g transform="translate(345.471563 37.2) scale(0.12 -0.12)">
     <defs>
      <path id="DejaVuSans-44" d="M 1259 4147 
L 1259 519 
L 2022 519 
Q 2988 519 3436 956 
Q 3884 1394 3884 2338 
Q 3884 3275 3436 3711 
Q 2988 4147 2022 4147 
L 1259 4147 
z
M 628 4666 
L 1925 4666 
Q 3281 4666 3915 4102 
Q 4550 3538 4550 2338 
Q 4550 1131 3912 565 
Q 3275 0 1925 0 
L 628 0 
L 628 4666 
z
" transform="scale(0.015625)"/>
      <path id="DejaVuSans-45" d="M 628 4666 
L 3578 4666 
L 3578 4134 
L 1259 4134 
L 1259 2753 
L 3481 2753 
L 3481 2222 
L 1259 2222 
L 1259 531 
L 3634 531 
L 3634 0 
L 628 0 
L 628 4666 
z
" transform="scale(0.015625)"/>
      <path id="DejaVuSans-54" d="M -19 4666 
L 3928 4666 
L 3928 4134 
L 2272 4134 
L 2272 0 
L 1638 0 
L 1638 4134 
L -19 4134 
L -19 4666 
z
" transform="scale(0.015625)"/>
     </defs>
     <use xlink:href="#DejaVuSans-44"/>
     <use xlink:href="#DejaVuSans-45" x="77.001953"/>
     <use xlink:href="#DejaVuSans-54" x="140.185547"/>
     <use xlink:href="#DejaVuSans-30" x="201.269531"/>
     <use xlink:href="#DejaVuSans-31" x="264.892578"/>
     <use xlink:href="#DejaVuSans-31" x="328.515625"/>
    </g>
   </g>
   <g id="legend_1">
    <g id="patch_7">
     <path d="M 559.04375 80.55625 
L 641 80.55625 
Q 643 80.55625 643 78.55625 
L 643 50.2 
Q 643 48.2 641 48.2 
L 559.04375 48.2 
Q 557.04375 48.2 557.04375 50.2 
L 557.04375 78.55625 
Q 557.04375 80.55625 559.04375 80.55625 
z
" style="fill: #ffffff; opacity: 0.8; stroke: #cccccc; stroke-linejoin: miter"/>
    </g>
    <g id="line2d_13">
     <path d="M 561.04375 56.298437 
L 571.04375 56.298437 
L 581.04375 56.298437 
" style="fill: none; stroke: #1f77b4; stroke-width: 1.5; stroke-linecap: square"/>
    </g>
    <g id="text_13">
     <!-- measured -->
     <g transform="translate(589.04375 59.798437) scale(0.1 -0.1)">
      <defs>
       <path id="DejaVuSans-6d" d="M 3328 2828 
Q 3544 3216 3844 3400 
Q 4144 3584 4550 3584 
Q 5097 3584 5394 3201 
Q 5691 2819 5691 2113 
L 5691 0 
L 5113 0 
L 5113 2094 
Q 5113 2597 4934 2840 
Q 4756 3084 4391 3084 
Q 3944 3084 3684 2787 
Q 3425 2491 3425 1978 
L 3425 0 
L 2847 0 
L 2847 2094 
Q 2847 2600 2669 2842 
Q 2491 3084 2119 3084 
Q 1678 3084 1418 2786 
Q 1159 2488 1159 1978 
L 1159 0 
L 581 0 
L 581 3500 
L 1159 3500 
L 1159 2956 
Q 1356 3278 1631 3431 
Q 1906 3584 2284 3584 
Q 2666 3584 2933 3390 
Q 3200 3197 3328 2828 
z
" transform="scale(0.015625)"/>
       <path id="DejaVuSans-61" d="M 2194 1759 
Q 1497 1759 1228 1600 
Q 959 1441 959 1056 
Q 959 750 1161 570 
Q 1363 391 1709 391 
Q 2188 391 2477 730 
Q 2766 1069 2766 1631 
L 2766 1759 
L 2194 1759 
z
M 3341 1997 
L 3341 0 
L 2766 0 
L 2766 531 
Q 2569 213 2275 61 
Q 1981 -91 1556 -91 
Q 1019 -91 701 211 
Q 384 513 384 1019 
Q 384 1609 779 1909 
Q 1175 2209 1959 2209 
L 2766 2209 
L 2766 2266 
Q 2766 2663 2505 2880 
Q 2244 3097 1772 3097 
Q 1472 3097 1187 3025 
Q 903 2953 641 2809 
L 641 3341 
Q 956 3463 1253 3523 
Q 1550 3584 1831 3584 
Q 2591 3584 2966 3190 
Q 3341 2797 3341 1997 
z
" transform="scale(0.015625)"/>
       <path id="DejaVuSans-75" d="M 544 1381 
L 544 3500 
L 1119 3500 
L 1119 1403 
Q 1119 906 1312 657 
Q 1506 409 1894 409 
Q 2359 409 2629 706 
Q 2900 1003 2900 1516 
L 2900 3500 
L 3475 3500 
L 3475 0 
L 2900 0 
L 2900 538 
Q 2691 219 2414 64 
Q 2138 -91 1772 -91 
Q 1169 -91 856 284 
Q 544 659 544 1381 
z
M 1991 3584 
L 1991 3584 
z
" transform="scale(0.015625)"/>
       <path id="DejaVuSans-64" d="M 2906 2969 
L 2906 4863 
L 3481 4863 
L 3481 0 
L 2906 0 
L 2906 525 
Q 2725 213 2448 61 
Q 2172 -91 1784 -91 
Q 1150 -91 751 415 
Q 353 922 353 1747 
Q 353 2572 751 3078 
Q 1150 3584 1784 3584 
Q 2172 3584 2448 3432 
Q 2725 3281 2906 2969 
z
M 947 1747 
Q 947 1113 1208 752 
Q 1469 391 1925 391 
Q 2381 391 2643 752 
Q 2906 1113 2906 1747 
Q 2906 2381 2643 2742 
Q 2381 3103 1925 3103 
Q 1469 3103 1208 2742 
Q 947 2381 947 1747 
z
" transform="scale(0.015625)"/>
      </defs>
      <use xlink:href="#DejaVuSans-6d"/>
      <use xlink:href="#DejaVuSans-65" x="97.412109"/>
      <use xlink:href="#DejaVuSans-61" x="158.935547"/>
      <use xlink:href="#DejaVuSans-73" x="220.214844"/>
      <use xlink:href="#DejaVuSans-75" x="272.314453"/>
      <use xlink:href="#DejaVuSans-72" x="335.693359"/>
      <use xlink:href="#DejaVuSans-65" x="374.556641"/>
      <use xlink:href="#DejaVuSans-64" x="436.080078"/>
     </g>
    </g>
    <g id="line2d_14">
     <path d="M 561.04375 70.976562 
L 571.04375 70.976562 
L 581.04375 70.976562 
" style="fill: none; stroke: #ff7f0e; stroke-width: 1.5; stroke-linecap: square"/>
    </g>
    <g id="text_14">
     <!-- predicted -->
     <g transform="translate(589.04375 74.476562) scale(0.1 -0.1)">
      <defs>
       <path id="DejaVuSans-70" d="M 1159 525 
L 1159 -1331 
L 581 -1331 
L 581 3500 
L 1159 3500 
L 1159 2969 
Q 1341 3281 1617 3432 
Q 1894 3584 2278 3584 
Q 2916 3584 3314 3078 
Q 3713 2572 3713 1747 
Q 3713 922 3314 415 
Q 2916 -91 2278 -91 
Q 1894 -91 1617 61 
Q 1341 213 1159 525 
z
M 3116 1747 
Q 3116 2381 2855 2742 
Q 2594 3103 2138 3103 
Q 1681 3103 1420 2742 
Q 1159 2381 1159 1747 
Q 1159 1113 1420 752 
Q 1681 391 2138 391 
Q 2594 391 2855 752 
Q 3116 1113 3116 1747 
z
" transform="scale(0.015625)"/>
       <path id="DejaVuSans-69" d="M 603 3500 
L 1178 3500 
L 1178 0 
L 603 0 
L 603 3500 
z
M 603 4863 
L 1178 4863 
L 1178 4134 
L 603 4134 
L 603 4863 
z
" transform="scale(0.015625)"/>
       <path id="DejaVuSans-63" d="M 3122 3366 
L 3122 2828 
Q 2878 2963 2633 3030 
Q 2388 3097 2138 3097 
Q 1578 3097 1268 2742 
Q 959 2388 959 1747 
Q 959 1106 1268 751 
Q 1578 397 2138 397 
Q 2388 397 2633 464 
Q 2878 531 3122 666 
L 3122 134 
Q 2881 22 2623 -34 
Q 2366 -91 2075 -91 
Q 1284 -91 818 406 
Q 353 903 353 1747 
Q 353 2603 823 3093 
Q 1294 3584 2113 3584 
Q 2378 3584 2631 3529 
Q 2884 3475 3122 3366 
z
" transform="scale(0.015625)"/>
      </defs>
      <use xlink:href="#DejaVuSans-70"/>
      <use xlink:href="#DejaVuSans-72" x="63.476562"/>
      <use xlink:href="#DejaVuSans-65" x="102.339844"/>
      <use xlink:href="#DejaVuSans-64" x="163.863281"/>
      <use xlink:href="#DejaVuSans-69" x="227.339844"/>
      <use xlink:href="#DejaVuSans-63" x="255.123047"/>
      <use xlink:href="#DejaVuSans-74" x="310.103516"/>
      <use xlink:href="#DejaVuSans-65" x="349.3125"/>
      <use xlink:href="#DejaVuSans-64" x="410.835938"/>
     </g>
    </g>
   </g>
  </g>
 </g>
 <defs>
  <clipPath id="p5faee6e0bf">
   <rect x="90" y="43.2" width="558" height="244.8"/>
  </clipPath>
 </defs>
</svg>
