<?xml version="1.0" encoding="utf-8" standalone="no"?>
<!DOCTYPE svg PUBLIC "-//W3C//DTD SVG 1.1//EN"
  "http://www.w3.org/Graphics/SVG/1.1/DTD/svg11.dtd">
<svg xmlns:xlink="http://www.w3.org/1999/xlink" width="712.96pt" height="351.43625pt" viewBox="0 0 712.96 351.43625" xmlns="http://www.w3.org/2000/svg" version="1.1">
 <metadata>
  <rdf:RDF xmlns:dc="http://purl.org/dc/elements/1.1/" xmlns:cc="http://creativecommons.org/ns#" xmlns:rdf="http://www.w3.org/1999/02/22-rdf-syntax-ns#">
   <cc:Work>
    <dc:type rdf:resource="http://purl.org/dc/dcmitype/StillImage"/>
    <dc:date>2024-05-10T17:06:13.876009</dc:date>
    <dc:format>image/svg+xml</dc:format>
    <dc:creator>
     <cc:Agent>
      <dc:title>Matplotlib v3.8.4, https://matplotlib.org/</dc:title>
     </cc:Agent>
    </dc:creator>
   </cc:Work>
  </rdf:RDF>
 </metadata>
 <defs>
  <style type="text/css">*{stroke-linejoin: round; stroke-linecap: butt}</style>
 </defs>
 <g id="figure_1">
  <g id="patch_1">
   <path d="M 0 351.43625 
L 712.96 351.43625 
L 712.96 0 
L 0 0 
z
" style="fill: #ffffff"/>
  </g>
  <g id="axes_1">
   <g id="patch_2">
    <path d="M 39.65 327.558125 
L 705.76 327.558125 
L 705.76 22.318125 
L 39.65 22.318125 
z
" style="fill: #ffffff"/>
   </g>
   <g id="matplotlib.axis_1">
    <g id="xtick_1">
     <g id="line2d_1">
      <defs>
       <path id="m85a205e171" d="M 0 0 
L 0 3.5 
" style="stroke: #000000; stroke-width: 0.8"/>
      </defs>
      <g>
       <use xlink:href="#m85a205e171" x="83.567354" y="327.558125" style="stroke: #000000; stroke-width: 0.8"/>
      </g>
     </g>
     <g id="text_1">
      <!-- 2017 -->
      <g transform="translate(70.842354 342.156563) scale(0.1 -0.1)">
       <defs>
        <path id="DejaVuSans-32" d="M 1228 531 
L 3431 531 
L 3431 0 
L 469 0 
L 469 531 
Q 828 903 1448 1529 
Q 2069 2156 2228 2338 
Q 2531 2678 2651 2914 
Q 2772 3150 2772 3378 
Q 2772 3750 2511 3984 
Q 2250 4219 1831 4219 
Q 1534 4219 1204 4116 
Q 875 4013 500 3803 
L 500 4441 
Q 881 4594 1212 4672 
Q 1544 4750 1819 4750 
Q 2544 4750 2975 4387 
Q 3406 4025 3406 3419 
Q 3406 3131 3298 2873 
Q 3191 2616 2906 2266 
Q 2828 2175 2409 1742 
Q 1991 1309 1228 531 
z
" transform="scale(0.015625)"/>
        <path id="DejaVuSans-30" d="M 2034 4250 
Q 1547 4250 1301 3770 
Q 1056 3291 1056 2328 
Q 1056 1369 1301 889 
Q 1547 409 2034 409 
Q 2525 409 2770 889 
Q 3016 1369 3016 2328 
Q 3016 3291 2770 3770 
Q 2525 4250 2034 4250 
z
M 2034 4750 
Q 2819 4750 3233 4129 
Q 3647 3509 3647 2328 
Q 3647 1150 3233 529 
Q 2819 -91 2034 -91 
Q 1250 -91 836 529 
Q 422 1150 422 2328 
Q 422 3509 836 4129 
Q 1250 4750 2034 4750 
z
" transform="scale(0.015625)"/>
        <path id="DejaVuSans-31" d="M 794 531 
L 1825 531 
L 1825 4091 
L 703 3866 
L 703 4441 
L 1819 4666 
L 2450 4666 
L 2450 531 
L 3481 531 
L 3481 0 
L 794 0 
L 794 531 
z
" transform="scale(0.015625)"/>
        <path id="DejaVuSans-37" d="M 525 4666 
L 3525 4666 
L 3525 4397 
L 1831 0 
L 1172 0 
L 2766 4134 
L 525 4134 
L 525 4666 
z
" transform="scale(0.015625)"/>
       </defs>
       <use xlink:href="#DejaVuSans-32"/>
       <use xlink:href="#DejaVuSans-30" x="63.623047"/>
       <use xlink:href="#DejaVuSans-31" x="127.246094"/>
       <use xlink:href="#DejaVuSans-37" x="190.869141"/>
      </g>
     </g>
    </g>
    <g id="xtick_2">
     <g id="line2d_2">
      <g>
       <use xlink:href="#m85a205e171" x="192.78411" y="327.558125" style="stroke: #000000; stroke-width: 0.8"/>
      </g>
     </g>
     <g id="text_2">
      <!-- 2018 -->
      <g transform="translate(180.05911 342.156563) scale(0.1 -0.1)">
       <defs>
        <path id="DejaVuSans-38" d="M 2034 2216 
Q 1584 2216 1326 1975 
Q 1069 1734 1069 1313 
Q 1069 891 1326 650 
Q 1584 409 2034 409 
Q 2484 409 2743 651 
Q 3003 894 3003 1313 
Q 3003 1734 2745 1975 
Q 2488 2216 2034 2216 
z
M 1403 2484 
Q 997 2584 770 2862 
Q 544 3141 544 3541 
Q 544 4100 942 4425 
Q 1341 4750 2034 4750 
Q 2731 4750 3128 4425 
Q 3525 4100 3525 3541 
Q 3525 3141 3298 2862 
Q 3072 2584 2669 2484 
Q 3125 2378 3379 2068 
Q 3634 1759 3634 1313 
Q 3634 634 3220 271 
Q 2806 -91 2034 -91 
Q 1263 -91 848 271 
Q 434 634 434 1313 
Q 434 1759 690 2068 
Q 947 2378 1403 2484 
z
M 1172 3481 
Q 1172 3119 1398 2916 
Q 1625 2713 2034 2713 
Q 2441 2713 2670 2916 
Q 2900 3119 2900 3481 
Q 2900 3844 2670 4047 
Q 2441 4250 2034 4250 
Q 1625 4250 1398 4047 
Q 1172 3844 1172 3481 
z
" transform="scale(0.015625)"/>
       </defs>
       <use xlink:href="#DejaVuSans-32"/>
       <use xlink:href="#DejaVuSans-30" x="63.623047"/>
       <use xlink:href="#DejaVuSans-31" x="127.246094"/>
       <use xlink:href="#DejaVuSans-38" x="190.869141"/>
      </g>
     </g>
    </g>
    <g id="xtick_3">
     <g id="line2d_3">
      <g>
       <use xlink:href="#m85a205e171" x="302.000865" y="327.558125" style="stroke: #000000; stroke-width: 0.8"/>
      </g>
     </g>
     <g id="text_3">
      <!-- 2019 -->
      <g transform="translate(289.275865 342.156563) scale(0.1 -0.1)">
       <defs>
        <path id="DejaVuSans-39" d="M 703 97 
L 703 672 
Q 941 559 1184 500 
Q 1428 441 1663 441 
Q 2288 441 2617 861 
Q 2947 1281 2994 2138 
Q 2813 1869 2534 1725 
Q 2256 1581 1919 1581 
Q 1219 1581 811 2004 
Q 403 2428 403 3163 
Q 403 3881 828 4315 
Q 1253 4750 1959 4750 
Q 2769 4750 3195 4129 
Q 3622 3509 3622 2328 
Q 3622 1225 3098 567 
Q 2575 -91 1691 -91 
Q 1453 -91 1209 -44 
Q 966 3 703 97 
z
M 1959 2075 
Q 2384 2075 2632 2365 
Q 2881 2656 2881 3163 
Q 2881 3666 2632 3958 
Q 2384 4250 1959 4250 
Q 1534 4250 1286 3958 
Q 1038 3666 1038 3163 
Q 1038 2656 1286 2365 
Q 1534 2075 1959 2075 
z
" transform="scale(0.015625)"/>
       </defs>
       <use xlink:href="#DejaVuSans-32"/>
       <use xlink:href="#DejaVuSans-30" x="63.623047"/>
       <use xlink:href="#DejaVuSans-31" x="127.246094"/>
       <use xlink:href="#DejaVuSans-39" x="190.869141"/>
      </g>
     </g>
    </g>
    <g id="xtick_4">
     <g id="line2d_4">
      <g>
       <use xlink:href="#m85a205e171" x="411.217621" y="327.558125" style="stroke: #000000; stroke-width: 0.8"/>
      </g>
     </g>
     <g id="text_4">
      <!-- 2020 -->
      <g transform="translate(398.492621 342.156563) scale(0.1 -0.1)">
       <use xlink:href="#DejaVuSans-32"/>
       <use xlink:href="#DejaVuSans-30" x="63.623047"/>
       <use xlink:href="#DejaVuSans-32" x="127.246094"/>
       <use xlink:href="#DejaVuSans-30" x="190.869141"/>
      </g>
     </g>
    </g>
    <g id="xtick_5">
     <g id="line2d_5">
      <g>
       <use xlink:href="#m85a205e171" x="520.7336" y="327.558125" style="stroke: #000000; stroke-width: 0.8"/>
      </g>
     </g>
     <g id="text_5">
      <!-- 2021 -->
      <g transform="translate(508.0086 342.156563) scale(0.1 -0.1)">
       <use xlink:href="#DejaVuSans-32"/>
       <use xlink:href="#DejaVuSans-30" x="63.623047"/>
       <use xlink:href="#DejaVuSans-32" x="127.246094"/>
       <use xlink:href="#DejaVuSans-31" x="190.869141"/>
      </g>
     </g>
    </g>
    <g id="xtick_6">
     <g id="line2d_6">
      <g>
       <use xlink:href="#m85a205e171" x="629.950356" y="327.558125" style="stroke: #000000; stroke-width: 0.8"/>
      </g>
     </g>
     <g id="text_6">
      <!-- 2022 -->
      <g transform="translate(617.225356 342.156563) scale(0.1 -0.1)">
       <use xlink:href="#DejaVuSans-32"/>
       <use xlink:href="#DejaVuSans-30" x="63.623047"/>
       <use xlink:href="#DejaVuSans-32" x="127.246094"/>
       <use xlink:href="#DejaVuSans-32" x="190.869141"/>
      </g>
     </g>
    </g>
   </g>
   <g id="matplotlib.axis_2">
    <g id="ytick_1">
     <g id="line2d_7">
      <defs>
       <path id="m4f88d54d25" d="M 0 0 
L -3.5 0 
" style="stroke: #000000; stroke-width: 0.8"/>
      </defs>
      <g>
       <use xlink:href="#m4f88d54d25" x="39.65" y="313.668036" style="stroke: #000000; stroke-width: 0.8"/>
      </g>
     </g>
     <g id="text_7">
      <!-- 0 -->
      <g transform="translate(26.2875 317.467255) scale(0.1 -0.1)">
       <use xlink:href="#DejaVuSans-30"/>
      </g>
     </g>
    </g>
    <g id="ytick_2">
     <g id="line2d_8">
      <g>
       <use xlink:href="#m4f88d54d25" x="39.65" y="262.264671" style="stroke: #000000; stroke-width: 0.8"/>
      </g>
     </g>
     <g id="text_8">
      <!-- 1000 -->
      <g transform="translate(7.2 266.06389) scale(0.1 -0.1)">
       <use xlink:href="#DejaVuSans-31"/>
       <use xlink:href="#DejaVuSans-30" x="63.623047"/>
       <use xlink:href="#DejaVuSans-30" x="127.246094"/>
       <use xlink:href="#DejaVuSans-30" x="190.869141"/>
      </g>
     </g>
    </g>
    <g id="ytick_3">
     <g id="line2d_9">
      <g>
       <use xlink:href="#m4f88d54d25" x="39.65" y="210.861306" style="stroke: #000000; stroke-width: 0.8"/>
      </g>
     </g>
     <g id="text_9">
      <!-- 2000 -->
      <g transform="translate(7.2 214.660525) scale(0.1 -0.1)">
       <use xlink:href="#DejaVuSans-32"/>
       <use xlink:href="#DejaVuSans-30" x="63.623047"/>
       <use xlink:href="#DejaVuSans-30" x="127.246094"/>
       <use xlink:href="#DejaVuSans-30" x="190.869141"/>
      </g>
     </g>
    </g>
    <g id="ytick_4">
     <g id="line2d_10">
      <g>
       <use xlink:href="#m4f88d54d25" x="39.65" y="159.45794" style="stroke: #000000; stroke-width: 0.8"/>
      </g>
     </g>
     <g id="text_10">
      <!-- 3000 -->
      <g transform="translate(7.2 163.257159) scale(0.1 -0.1)">
       <defs>
        <path id="DejaVuSans-33" d="M 2597 2516 
Q 3050 2419 3304 2112 
Q 3559 1806 3559 1356 
Q 3559 666 3084 287 
Q 2609 -91 1734 -91 
Q 1441 -91 1130 -33 
Q 819 25 488 141 
L 488 750 
Q 750 597 1062 519 
Q 1375 441 1716 441 
Q 2309 441 2620 675 
Q 2931 909 2931 1356 
Q 2931 1769 2642 2001 
Q 2353 2234 1838 2234 
L 1294 2234 
L 1294 2753 
L 1863 2753 
Q 2328 2753 2575 2939 
Q 2822 3125 2822 3475 
Q 2822 3834 2567 4026 
Q 2313 4219 1838 4219 
Q 1578 4219 1281 4162 
Q 984 4106 628 3988 
L 628 4550 
Q 988 4650 1302 4700 
Q 1616 4750 1894 4750 
Q 2613 4750 3031 4423 
Q 3450 4097 3450 3541 
Q 3450 3153 3228 2886 
Q 3006 2619 2597 2516 
z
" transform="scale(0.015625)"/>
       </defs>
       <use xlink:href="#DejaVuSans-33"/>
       <use xlink:href="#DejaVuSans-30" x="63.623047"/>
       <use xlink:href="#DejaVuSans-30" x="127.246094"/>
       <use xlink:href="#DejaVuSans-30" x="190.869141"/>
      </g>
     </g>
    </g>
    <g id="ytick_5">
     <g id="line2d_11">
      <g>
       <use xlink:href="#m4f88d54d25" x="39.65" y="108.054575" style="stroke: #000000; stroke-width: 0.8"/>
      </g>
     </g>
     <g id="text_11">
      <!-- 4000 -->
      <g transform="translate(7.2 111.853794) scale(0.1 -0.1)">
       <defs>
        <path id="DejaVuSans-34" d="M 2419 4116 
L 825 1625 
L 2419 1625 
L 2419 4116 
z
M 2253 4666 
L 3047 4666 
L 3047 1625 
L 3713 1625 
L 3713 1100 
L 3047 1100 
L 3047 0 
L 2419 0 
L 2419 1100 
L 313 1100 
L 313 1709 
L 2253 4666 
z
" transform="scale(0.015625)"/>
       </defs>
       <use xlink:href="#DejaVuSans-34"/>
       <use xlink:href="#DejaVuSans-30" x="63.623047"/>
       <use xlink:href="#DejaVuSans-30" x="127.246094"/>
       <use xlink:href="#DejaVuSans-30" x="190.869141"/>
      </g>
     </g>
    </g>
    <g id="ytick_6">
     <g id="line2d_12">
      <g>
       <use xlink:href="#m4f88d54d25" x="39.65" y="56.65121" style="stroke: #000000; stroke-width: 0.8"/>
      </g>
     </g>
     <g id="text_12">
      <!-- 5000 -->
      <g transform="translate(7.2 60.450429) scale(0.1 -0.1)">
       <defs>
        <path id="DejaVuSans-35" d="M 691 4666 
L 3169 4666 
L 3169 4134 
L 1269 4134 
L 1269 2991 
Q 1406 3038 1543 3061 
Q 1681 3084 1819 3084 
Q 2600 3084 3056 2656 
Q 3513 2228 3513 1497 
Q 3513 744 3044 326 
Q 2575 -91 1722 -91 
Q 1428 -91 1123 -41 
Q 819 9 494 109 
L 494 744 
Q 775 591 1075 516 
Q 1375 441 1709 441 
Q 2250 441 2565 725 
Q 2881 1009 2881 1497 
Q 2881 1984 2565 2268 
Q 2250 2553 1709 2553 
Q 1456 2553 1204 2497 
Q 953 2441 691 2322 
L 691 4666 
z
" transform="scale(0.015625)"/>
       </defs>
       <use xlink:href="#DejaVuSans-35"/>
       <use xlink:href="#DejaVuSans-30" x="63.623047"/>
       <use xlink:href="#DejaVuSans-30" x="127.246094"/>
       <use xlink:href="#DejaVuSans-30" x="190.869141"/>
      </g>
     </g>
    </g>
   </g>
   <g id="line2d_13">
    <path d="M 69.927727 313.554178 
L 70.039936 313.54621 
L 70.862802 313.612264 
L 80.936676 313.601726 
L 80.961612 312.282716 
L 80.986547 306.278803 
L 81.073821 308.193578 
L 81.111224 310.429624 
L 81.148627 306.869941 
L 81.173562 307.705246 
L 81.373045 311.550218 
L 81.672269 312.850723 
L 81.971493 313.477073 
L 81.98396 313.42734 
L 82.008896 313.375551 
L 82.096169 313.418602 
L 82.208378 313.495321 
L 82.270717 313.564716 
L 82.295652 313.479772 
L 82.30812 313.432095 
L 82.395393 313.534388 
L 83.791772 313.521922 
L 83.866578 309.174097 
L 83.966319 303.93995 
L 84.01619 305.353542 
L 84.278011 312.092523 
L 84.39022 312.634829 
L 84.726847 313.409349 
L 84.863991 313.436079 
L 85.051006 313.477073 
L 85.711793 313.572683 
L 86.035952 313.563174 
L 86.385047 313.595044 
L 86.709206 313.605067 
L 91.434451 313.556363 
L 91.459387 313.173922 
L 91.54666 313.475788 
L 92.020432 313.416931 
L 92.095238 313.094889 
L 92.132641 313.244344 
L 92.170044 313.595815 
L 92.269785 313.515754 
L 92.307188 313.249999 
L 92.394462 312.868714 
L 92.431865 313.030635 
L 92.469268 313.601855 
L 92.569009 313.570113 
L 92.593944 313.368483 
L 92.643815 312.722214 
L 92.718621 312.912407 
L 92.731089 312.879851 
L 92.768492 313.607766 
L 92.868233 313.560603 
L 93.154989 313.550066 
L 93.36694 313.555977 
L 93.541487 313.561117 
L 94.252144 313.608794 
L 94.376821 313.507786 
L 94.414224 312.065537 
L 94.501497 312.187619 
L 94.563836 312.251874 
L 94.588771 312.174769 
L 94.651109 311.57849 
L 94.738383 311.680011 
L 94.788254 311.620897 
L 94.825657 311.745551 
L 94.875527 311.682581 
L 95.000204 310.988636 
L 95.050075 311.083732 
L 95.386702 311.957589 
L 95.424105 311.569494 
L 95.511378 309.862902 
L 95.573717 310.080082 
L 95.710861 311.073452 
L 95.760732 310.705917 
L 95.848005 310.383361 
L 95.897876 310.601826 
L 96.122294 311.88948 
L 96.147229 311.829081 
L 96.321777 312.1979 
L 96.57113 312.765907 
L 96.870354 313.114165 
L 97.206981 313.34985 
L 97.306722 313.390972 
L 97.618414 313.496349 
L 97.74309 313.526677 
L 97.967508 313.588875 
L 98.952454 313.638737 
L 99.825191 313.616248 
L 99.887529 313.228024 
L 99.949867 313.282383 
L 100.111947 313.361544 
L 100.398703 313.479001 
L 100.648057 313.561117 
L 101.620535 313.620231 
L 101.682873 304.299773 
L 101.80755 307.396826 
L 101.907291 309.270479 
L 101.944694 308.602235 
L 102.007032 307.358273 
L 102.056903 308.336222 
L 102.281321 311.020763 
L 102.368595 311.396008 
L 102.405998 311.303482 
L 102.443401 311.133851 
L 102.505739 311.27521 
L 102.730157 312.100234 
L 102.954575 312.335404 
L 103.016913 312.444636 
L 103.166525 312.742776 
L 103.316137 312.96124 
L 103.328605 312.95353 
L 104.513033 313.5678 
L 104.737451 313.594658 
L 109.537503 313.633982 
L 109.936468 313.633982 
L 111.195702 313.639765 
L 119.561506 313.544283 
L 119.661248 313.516396 
L 119.686183 313.543383 
L 119.997875 313.570884 
L 120.484114 313.578081 
L 130.844744 313.65737 
L 130.869679 313.26709 
L 130.956953 313.609308 
L 131.156436 313.653129 
L 132.029172 313.667522 
L 139.796528 313.668036 
L 139.821464 303.284557 
L 139.908737 312.904696 
L 140.058349 313.598256 
L 140.133155 313.641692 
L 140.158091 310.582549 
L 140.245364 313.367327 
L 140.394976 313.620103 
L 140.419912 313.608923 
L 140.444847 300.318582 
L 140.457315 292.438447 
L 140.519653 311.173688 
L 140.544588 307.024151 
L 140.681733 313.31421 
L 140.769006 313.475017 
L 140.818877 313.458825 
L 140.968489 313.584249 
L 140.993424 311.524516 
L 141.080698 312.593706 
L 141.105633 312.737636 
L 141.130569 312.27886 
L 141.180439 312.535877 
L 141.205375 312.559009 
L 141.217842 312.436926 
L 141.23031 312.358536 
L 141.292648 312.639969 
L 141.492131 313.221341 
L 141.504599 313.207719 
L 141.853693 313.5669 
L 142.14045 313.616633 
L 142.277594 313.588618 
L 142.302529 313.234449 
L 142.389803 313.458825 
L 142.464609 313.54454 
L 142.502012 313.558804 
L 142.539415 295.908174 
L 142.614221 311.142846 
L 142.701495 312.927828 
L 142.738898 312.033409 
L 142.950848 313.303073 
L 143.200201 313.550451 
L 143.275007 313.59967 
L 143.299943 301.948069 
L 143.399684 302.012323 
L 143.412152 302.076578 
L 143.424619 301.742456 
L 143.437087 300.958554 
L 143.47449 304.826658 
L 143.624102 309.929727 
L 143.798649 311.642744 
L 143.823585 309.123979 
L 143.898391 311.442271 
L 143.910858 311.58877 
L 143.935794 310.699492 
L 143.948261 310.535001 
L 143.985664 311.266214 
L 144.035535 311.875344 
L 144.06047 311.42428 
L 144.147744 303.168899 
L 144.197615 308.995471 
L 144.322291 311.370306 
L 144.334759 311.324043 
L 144.347227 311.264929 
L 144.422033 303.104645 
L 144.471903 309.102132 
L 144.633983 311.694147 
L 144.683854 312.151637 
L 144.696321 312.104089 
L 144.820998 296.92339 
L 144.833466 295.933875 
L 144.870869 301.009958 
L 144.895804 304.711 
L 144.958142 298.362684 
L 144.97061 297.578783 
L 145.032948 300.213206 
L 145.070351 302.552059 
L 145.145157 300.675836 
L 145.269834 304.685298 
L 145.294769 302.282191 
L 145.332172 298.645403 
L 145.382043 304.659597 
L 145.531655 310.943658 
L 145.768541 312.487044 
L 145.781008 312.502465 
L 145.843347 233.06756 
L 145.918153 277.055989 
L 146.055297 305.147929 
L 146.167506 309.586609 
L 146.105168 304.518237 
L 146.179974 309.338588 
L 146.229844 290.999152 
L 146.30465 298.838166 
L 146.529068 310.881974 
L 146.603874 310.535001 
L 146.653745 297.925756 
L 146.753486 302.050876 
L 146.765954 302.153683 
L 146.790889 301.948069 
L 146.878163 287.195303 
L 146.940501 297.321766 
L 147.065178 306.227399 
L 147.090113 308.678055 
L 147.115048 299.647769 
L 147.127516 297.810098 
L 147.164919 306.407311 
L 147.302063 310.310112 
L 147.514014 312.778758 
L 147.626223 313.082038 
L 147.750899 309.984985 
L 147.80077 310.020968 
L 147.950382 310.568413 
L 148.162332 311.385727 
L 148.187268 311.205815 
L 148.199735 311.100438 
L 148.249606 311.525801 
L 148.54883 312.88028 
L 148.623636 312.989512 
L 148.636104 313.022924 
L 148.673507 307.294019 
L 148.76078 311.484678 
L 148.810651 312.291711 
L 148.835586 311.051605 
L 148.848054 310.651944 
L 148.910392 311.649169 
L 149.08494 312.871284 
L 149.222084 313.097459 
L 149.271955 312.971521 
L 149.284422 312.899556 
L 149.371696 313.022924 
L 149.533776 313.214659 
L 149.558711 312.971521 
L 149.683388 312.064251 
L 149.708323 312.078387 
L 149.770661 312.165773 
L 150.231965 313.29125 
L 150.281836 313.150533 
L 150.306771 310.989921 
L 150.394045 312.79932 
L 150.556124 313.419244 
L 150.743139 313.541584 
L 150.768075 307.499633 
L 150.855348 309.548057 
L 151.092234 312.497325 
L 151.179508 312.819881 
L 151.191975 311.407573 
L 151.291717 243.887968 
L 151.32912 270.206491 
L 151.453796 311.632463 
L 151.615876 312.936824 
L 151.815359 313.308984 
L 152.276662 313.579623 
L 152.638225 313.595558 
L 153.211737 313.55662 
L 153.236673 311.219951 
L 153.323946 312.727355 
L 153.62317 313.522308 
L 154.134345 313.662382 
L 154.32136 313.565872 
L 154.346295 313.541327 
L 154.421101 313.601726 
L 154.657987 313.6264 
L 154.95721 313.66431 
L 155.094355 313.66598 
L 155.11929 313.20078 
L 155.206564 313.564202 
L 155.642932 313.63668 
L 157.488147 313.529633 
L 157.513082 313.472061 
L 157.587888 313.556234 
L 157.837241 313.630383 
L 158.685043 313.63668 
L 159.02167 313.608923 
L 159.158814 313.610722 
L 159.196217 307.576738 
L 159.308426 310.923097 
L 159.620118 312.994652 
L 160.380645 313.512798 
L 160.418048 311.73013 
L 160.505322 312.773618 
L 160.704805 313.315024 
L 161.565074 313.599156 
L 162.038845 313.472961 
L 162.412875 313.580137 
L 164.283025 313.570884 
L 164.30796 305.32784 
L 164.395234 312.844297 
L 164.557313 313.545696 
L 164.869005 313.625372 
L 165.155761 313.553535 
L 165.305373 313.577566 
L 165.96616 313.498791 
L 166.003563 313.283796 
L 166.078369 313.363214 
L 166.315254 313.489153 
L 167.050847 313.594016 
L 168.908529 313.578723 
L 169.020738 313.382619 
L 169.033206 313.397655 
L 169.419703 313.359873 
L 170.155296 313.609608 
L 170.591664 313.627813 
L 174.531446 313.560475 
L 174.668591 313.552636 
L 174.705994 313.57988 
L 174.718461 313.633082 
L 174.855606 313.665209 
L 179.880075 313.666494 
L 179.992284 313.66598 
L 207.308941 313.592216 
L 207.408682 313.516396 
L 207.433617 313.529761 
L 207.869986 313.622801 
L 243.352964 313.610336 
L 243.377899 313.03963 
L 243.465173 313.266705 
L 243.652188 313.528733 
L 243.976347 313.643363 
L 244.574795 313.667522 
L 245.061034 313.659555 
L 245.073502 313.548781 
L 245.160775 313.667008 
L 247.168069 313.643363 
L 247.42989 313.668036 
L 249.985762 313.587719 
L 250.0481 313.475017 
L 250.097971 313.519095 
L 250.222648 313.566515 
L 250.247583 311.919037 
L 250.334857 313.409735 
L 250.347324 313.40498 
L 250.459533 305.520603 
L 250.472001 306.39446 
L 250.621613 312.127221 
L 250.783693 306.034637 
L 250.808628 306.677179 
L 250.858499 309.586609 
L 250.908369 307.949412 
L 250.983175 287.002541 
L 251.057981 249.285321 
L 251.095384 264.487867 
L 251.232529 295.574052 
L 251.244996 295.805367 
L 251.282399 294.700195 
L 251.33227 292.721165 
L 251.369673 294.224713 
L 251.54422 305.841874 
L 251.594091 308.06507 
L 251.619026 306.265952 
L 251.668897 291.757352 
L 251.768638 294.545985 
L 251.930718 297.141854 
L 251.943186 296.859136 
L 252.005524 285.550396 
L 252.117733 291.57744 
L 252.205007 293.2609 
L 252.167604 288.737404 
L 252.24241 292.541253 
L 252.254877 292.682613 
L 252.354619 302.346445 
L 252.429425 301.768157 
L 252.479295 300.984256 
L 252.541634 288.943018 
L 252.61644 296.602119 
L 252.678778 292.502701 
L 252.815922 266.5183 
L 252.853325 275.578143 
L 252.953067 301.305527 
L 253.015405 297.707291 
L 253.177485 308.334937 
L 253.20242 307.833754 
L 253.339564 304.222668 
L 253.401903 305.366393 
L 253.688659 312.088668 
L 253.726062 312.259584 
L 253.738529 311.924177 
L 253.750997 311.258504 
L 253.838271 312.462628 
L 254.062689 313.423485 
L 254.224768 313.475017 
L 254.262171 313.457925 
L 254.287107 313.28521 
L 254.37438 313.331858 
L 254.424251 313.348565 
L 254.461654 313.390201 
L 254.686072 313.486583 
L 254.922958 313.525521 
L 255.109973 313.5669 
L 255.695953 313.570499 
L 255.733356 311.647884 
L 255.808162 312.651535 
L 256.03258 313.35409 
L 256.269466 313.535159 
L 256.481416 313.584249 
L 256.655963 313.616633 
L 259.02482 313.605581 
L 259.112094 311.778192 
L 259.137029 301.266975 
L 259.224303 304.646746 
L 259.461188 311.809805 
L 259.548462 312.512746 
L 259.56093 312.510176 
L 259.585865 310.466892 
L 259.673139 312.107944 
L 259.860154 313.082038 
L 259.910024 313.186901 
L 259.93496 312.971521 
L 259.997298 312.512746 
L 260.059636 312.705508 
L 260.159378 312.954815 
L 260.259119 302.282191 
L 260.30899 255.196708 
L 260.371328 290.754986 
L 260.446134 300.27746 
L 260.508472 299.943338 
L 260.633149 305.01942 
L 260.944841 312.050115 
L 261.343806 313.437107 
L 261.605627 313.556106 
L 261.630562 313.505088 
L 261.792642 313.501361 
L 262.091866 313.597614 
L 262.154204 310.685356 
L 262.22901 312.149067 
L 262.378622 312.972806 
L 262.465896 296.936241 
L 262.515766 309.698412 
L 262.565637 311.97044 
L 262.590572 307.486782 
L 262.60304 307.216914 
L 262.640443 308.76544 
L 262.864861 312.34697 
L 263.014473 313.065332 
L 263.039408 313.03192 
L 263.13915 312.990797 
L 263.164085 313.015214 
L 263.413438 313.369897 
L 263.525647 313.441605 
L 263.675259 313.471162 
L 263.775001 313.301659 
L 263.812404 307.962263 
L 263.912145 310.97707 
L 264.061757 312.304562 
L 264.161498 310.022253 
L 264.198901 311.7327 
L 264.348513 313.158629 
L 264.535528 313.508686 
L 264.797349 313.597614 
L 264.897091 313.663539 
L 265.109041 310.113494 
L 265.158912 309.778087 
L 265.196315 310.076226 
L 265.420733 313.291121 
L 265.682554 313.55315 
L 265.695021 313.550451 
L 265.744892 276.233536 
L 265.819698 304.518237 
L 265.857101 306.857091 
L 265.869569 303.413065 
L 265.981778 298.259878 
L 265.994245 299.043779 
L 266.330872 309.607171 
L 266.34334 309.664999 
L 266.380743 309.449105 
L 266.580226 308.129324 
L 266.729838 310.750895 
L 266.916853 312.663101 
L 267.016594 312.605272 
L 266.954256 312.695228 
L 267.041529 312.628403 
L 267.078932 312.674666 
L 267.141271 312.58214 
L 267.178674 312.475478 
L 267.25348 312.570575 
L 267.278415 312.547443 
L 267.328286 312.663101 
L 267.390624 312.768478 
L 267.552704 312.972806 
L 267.652445 312.88028 
L 267.689848 312.936824 
L 267.889331 313.234706 
L 267.901798 313.20078 
L 267.989072 313.28521 
L 268.575052 313.441605 
L 269.485192 313.643363 
L 274.023422 313.538371 
L 274.185502 313.553407 
L 274.372517 313.595558 
L 274.808885 313.623315 
L 275.344995 313.629484 
L 275.444736 304.505387 
L 275.494607 307.037002 
L 275.719025 311.826511 
L 275.943443 313.03963 
L 275.955911 313.03192 
L 276.392279 313.496478 
L 276.404747 313.478744 
L 276.417214 313.453042 
L 276.44215 301.883815 
L 276.666568 160.871533 
L 276.679035 159.843466 
L 276.691503 162.670651 
L 276.753841 228.723975 
L 276.903453 299.583514 
L 276.940856 298.953823 
L 277.053065 301.215571 
L 277.177742 307.191212 
L 277.364757 310.344809 
L 277.713852 312.385522 
L 278.225026 313.20078 
L 278.237493 313.172765 
L 278.262429 313.241388 
L 278.324767 313.241388 
L 278.337235 313.234706 
L 278.349702 312.919089 
L 278.436976 313.26709 
L 278.623991 313.158629 
L 278.686329 313.142951 
L 278.723732 313.214402 
L 278.860877 313.27313 
L 278.873344 313.234449 
L 278.960618 312.8096 
L 279.022956 312.830162 
L 279.060359 312.890561 
L 279.085295 312.73378 
L 279.135165 308.863107 
L 279.334648 236.048955 
L 279.384519 250.955931 
L 279.559066 301.266975 
L 279.795952 310.570984 
L 280.095176 312.570575 
L 280.145046 312.488329 
L 280.182449 312.570575 
L 280.356997 312.998508 
L 280.593882 313.260665 
L 280.706091 313.314895 
L 280.893106 313.385189 
L 281.19233 313.486454 
L 281.267136 313.46268 
L 281.454151 308.599665 
L 281.466619 308.613801 
L 281.628699 311.843217 
L 281.653634 311.812375 
L 281.853117 312.628403 
L 282.202211 313.29125 
L 282.401694 313.395213 
L 282.775724 313.547496 
L 283.037545 313.593502 
L 283.212092 313.609437 
L 283.511316 313.577309 
L 283.536252 313.110695 
L 283.635993 313.165697 
L 283.798073 313.541584 
L 283.81054 313.481442 
L 283.847943 313.27313 
L 283.922749 313.400225 
L 284.072361 313.519095 
L 284.246909 312.96381 
L 284.284312 313.056336 
L 284.483794 313.390201 
L 284.683277 313.454712 
L 284.857824 313.497763 
L 285.107178 313.574996 
L 285.63082 313.482342 
L 285.767964 313.414232 
L 286.241735 313.35409 
L 286.665636 313.423485 
L 287.588243 313.547496 
L 287.650581 313.558804 
L 287.700452 313.512284 
L 287.850064 313.505088 
L 287.862532 313.531946 
L 288.024611 313.541584 
L 288.174223 313.564202 
L 288.249029 313.574225 
L 288.261497 313.514597 
L 288.348771 313.423742 
L 288.373706 313.454455 
L 288.523318 313.577309 
L 288.548253 313.482085 
L 288.573189 313.380049 
L 288.647995 313.486583 
L 288.760204 313.528733 
L 288.785139 313.41873 
L 288.797607 313.380049 
L 288.872413 313.454712 
L 288.88488 313.450343 
L 288.984622 313.538114 
L 289.009557 313.462423 
L 289.034492 313.409735 
L 289.121766 313.454712 
L 289.196572 313.462937 
L 289.233975 313.419244 
L 289.670343 313.515497 
L 289.720214 313.558804 
L 289.732682 313.496992 
L 289.757617 313.40498 
L 289.844891 313.445974 
L 289.9571 313.497763 
L 290.019438 313.537857 
L 290.031906 313.444689 
L 290.106712 313.482727 
L 290.156582 313.385061 
L 291.478155 313.508686 
L 291.515558 313.531946 
L 291.540493 313.427854 
L 291.652702 313.400225 
L 291.702573 313.528733 
L 291.814782 313.569599 
L 291.82725 313.558033 
L 291.864653 313.369383 
L 291.951926 313.409735 
L 292.026732 313.508686 
L 292.114006 313.591188 
L 292.138941 313.524878 
L 292.238683 313.462937 
L 292.25115 313.47476 
L 292.338424 313.535159 
L 292.350892 313.478487 
L 292.375827 313.369897 
L 292.463101 313.471162 
L 292.612713 313.574996 
L 292.637648 313.586562 
L 292.675051 313.501361 
L 292.78726 313.511899 
L 292.799728 313.522308 
L 293.049081 313.574996 
L 293.460514 313.595558 
L 293.921818 313.635267 
L 294.595071 313.643363 
L 295.480276 313.644776 
L 296.564963 313.656728 
L 304.382189 313.592859 
L 304.419592 313.155802 
L 304.494398 313.43338 
L 304.731284 313.548524 
L 304.756219 313.483498 
L 304.880896 313.38172 
L 304.918299 313.409477 
L 305.01804 313.480029 
L 305.055443 313.414618 
L 305.092846 313.457154 
L 305.18012 312.729925 
L 305.229991 312.88799 
L 305.292329 311.924177 
L 305.317264 310.992491 
L 305.39207 312.285286 
L 305.429473 312.598846 
L 305.441941 312.339259 
L 305.516747 312.380382 
L 305.579085 310.97707 
L 305.591553 310.914101 
L 305.616488 311.336894 
L 305.828439 312.866144 
L 305.92818 312.492184 
L 305.953115 312.690087 
L 305.978051 312.537162 
L 306.015454 310.002976 
L 306.102727 311.542507 
L 306.264807 312.674666 
L 306.314678 312.017988 
L 306.389484 312.524312 
L 306.51416 312.706793 
L 306.526628 312.684947 
L 306.775981 313.260665 
L 307.150011 313.482727 
L 307.249753 313.494036 
L 307.26222 313.50149 
L 307.548977 313.556106 
L 307.58638 313.19384 
L 307.723524 313.337256 
L 307.885604 313.579623 
L 319.168842 313.629484 
L 319.330921 304.826658 
L 319.368324 307.294019 
L 319.405727 309.062295 
L 319.44313 305.17363 
L 319.505468 303.991353 
L 319.555339 305.01942 
L 319.60521 304.466834 
L 319.617677 304.878061 
L 319.842095 311.584915 
L 319.854563 311.484678 
L 319.879498 312.017988 
L 319.891966 312.017988 
L 319.941837 311.680011 
L 319.916901 312.033409 
L 319.97924 312.047545 
L 319.991707 312.077102 
L 320.004175 311.826511 
L 320.041578 311.28035 
L 320.116384 311.795669 
L 320.340802 312.778758 
L 320.615091 293.595022 
L 320.702364 298.594 
L 320.77717 301.177019 
L 320.802106 300.251758 
L 320.876912 291.461783 
L 320.926782 296.062384 
L 321.163668 306.163145 
L 321.188603 306.39446 
L 321.238474 305.661962 
L 321.263409 305.289288 
L 321.31328 306.08604 
L 321.637439 310.224011 
L 321.68731 310.036389 
L 321.699778 310.023538 
L 321.724713 310.155901 
L 321.737181 310.141766 
L 321.999002 311.525801 
L 322.011469 311.511665 
L 322.023937 311.584915 
L 322.161081 311.863778 
L 322.22342 311.971725 
L 322.397967 312.478049 
L 322.535111 312.80446 
L 322.734594 313.089749 
L 323.096156 313.260279 
L 323.258236 313.120462 
L 323.270704 313.128173 
L 323.295639 307.679544 
L 323.382913 310.752181 
L 323.420316 310.344809 
L 323.520057 311.295771 
L 323.532525 311.340749 
L 323.594863 296.036682 
L 323.669669 299.532111 
L 323.881619 306.163145 
L 324.218246 309.966994 
L 324.280585 309.348869 
L 324.342923 309.103418 
L 324.392794 309.28847 
L 324.430197 309.226786 
L 324.455132 309.389991 
L 324.505003 309.626447 
L 324.529938 309.204939 
L 324.629679 306.368759 
L 324.67955 307.011301 
L 324.779291 308.142175 
L 324.804227 307.7695 
L 324.866565 306.163145 
L 324.928903 306.959897 
L 325.302933 309.722828 
L 325.851511 311.160837 
L 325.888914 311.145416 
L 325.976187 311.205815 
L 326.113332 311.456407 
L 326.125799 311.428135 
L 326.163202 311.568209 
L 326.287879 311.695432 
L 326.325282 311.795669 
L 326.499829 312.181194 
L 326.537232 312.04883 
L 326.5497 312.064251 
L 326.574635 311.924177 
L 326.724247 311.677441 
L 326.76165 311.695432 
L 326.861392 311.642744 
L 326.873859 311.728844 
L 326.886327 311.660735 
L 326.936198 311.745551 
L 326.973601 311.745551 
L 327.073342 312.047545 
L 327.123213 311.907471 
L 327.13568 311.858638 
L 327.185551 311.985861 
L 327.198019 311.971725 
L 327.347631 312.345685 
L 327.360098 312.304562 
L 327.484775 312.385522 
L 327.522178 312.50118 
L 327.596984 312.385522 
L 327.783999 312.210751 
L 327.821402 312.277575 
L 327.896208 312.196615 
L 328.020884 312.181194 
L 328.245302 312.142642 
L 328.357511 311.847072 
L 328.382447 311.874059 
L 328.394914 311.888195 
L 328.432317 311.782818 
L 328.46972 311.622182 
L 328.581929 311.755831 
L 328.594397 311.785388 
L 328.619332 311.646599 
L 328.756477 311.50524 
L 328.918556 311.399863 
L 328.806347 311.554073 
L 328.943492 311.428135 
L 329.105571 311.695432 
L 329.230248 311.611902 
L 329.329989 311.940883 
L 329.37986 311.827796 
L 329.604278 312.151637 
L 329.417263 311.762257 
L 329.666616 312.033409 
L 329.728955 311.922892 
L 329.766358 312.04883 
L 329.878567 312.151637 
L 330.028179 312.318698 
L 330.29 312.747916 
L 330.314935 312.706793 
L 330.414676 312.651535 
L 330.427144 312.684947 
L 330.639094 312.927828 
L 331.474428 313.395213 
L 332.284826 313.601726 
L 334.092638 313.504317 
L 334.204847 313.308984 
L 334.229782 313.331858 
L 334.329524 313.228024 
L 334.366927 313.247171 
L 334.479136 313.308727 
L 334.491603 313.302687 
L 334.628748 313.228024 
L 335.326937 313.482727 
L 336.86046 313.593502 
L 337.059942 313.616633 
L 337.28436 313.522308 
L 337.421505 313.462937 
L 338.1945 313.605581 
L 338.543595 313.613035 
L 339.204381 313.629484 
L 341.298949 313.535159 
L 341.323884 310.897395 
L 341.411158 312.58214 
L 341.623108 313.228024 
L 342.022074 313.508686 
L 342.071944 313.364371 
L 342.196621 313.375037 
L 342.533248 313.515882 
L 342.745198 313.564202 
L 343.156631 313.5669 
L 343.306243 313.478615 
L 343.455855 313.494036 
L 344.166512 313.591188 
L 345.151458 313.66174 
L 346.148871 313.603525 
L 346.298483 313.505088 
L 346.310951 313.515882 
L 346.448095 313.541584 
L 346.784722 313.564202 
L 346.946802 313.574996 
L 350.362942 313.66341 
L 350.37541 309.431114 
L 350.475151 312.789039 
L 350.687102 313.544283 
L 350.861649 313.643363 
L 356.260148 313.668036 
L 356.285084 308.322086 
L 356.372357 311.969155 
L 356.546905 313.35409 
L 356.808726 313.581936 
L 357.85601 313.664181 
L 357.993154 313.658013 
L 358.267443 313.66688 
L 363.740748 313.668036 
L 363.765683 305.225034 
L 363.852957 311.955019 
L 364.002569 313.314381 
L 364.251922 313.609437 
L 364.563614 313.662382 
L 365.585963 313.668036 
L 365.610898 299.891935 
L 365.698172 310.567128 
L 365.872719 313.228024 
L 366.047266 313.522308 
L 366.147008 313.528348 
L 366.171943 312.927828 
L 366.259217 313.364371 
L 366.408829 313.547496 
L 366.433764 313.511899 
L 366.521038 313.432738 
L 366.558441 313.470905 
L 366.820262 313.5669 
L 368.154302 313.661354 
L 368.191705 313.179704 
L 368.266511 313.380178 
L 368.453526 313.572298 
L 368.465994 313.499048 
L 368.503397 313.35409 
L 368.578203 313.414489 
L 368.765217 313.588875 
L 369.002103 313.659812 
L 369.039506 309.062295 
L 369.12678 311.174973 
L 369.251456 312.840442 
L 369.263924 312.078387 
L 369.301327 308.552116 
L 369.363665 311.922892 
L 369.525745 313.214145 
L 369.71276 313.528733 
L 369.962113 313.637194 
L 371.109139 313.668036 
L 373.764752 313.668036 
L 373.852025 309.524925 
L 373.901896 312.160633 
L 374.03904 313.445845 
L 374.275926 313.584249 
L 374.562682 313.659683 
L 375.273339 313.665852 
L 376.158544 313.668036 
L 379.412604 313.668036 
L 379.43754 312.021844 
L 379.524813 313.599541 
L 379.686893 313.667008 
L 381.494705 313.668036 
L 381.532108 287.683635 
L 381.719123 197.753448 
L 381.756526 187.318564 
L 381.793929 202.508259 
L 381.968476 300.200355 
L 382.018347 298.940972 
L 382.093153 296.139489 
L 382.143023 298.388386 
L 382.317571 311.597766 
L 382.504586 312.727355 
L 383.103034 313.50149 
L 383.526934 313.619974 
L 383.751352 313.592473 
L 384.29993 313.657242 
L 386.257353 313.667008 
L 391.693256 313.668036 
L 394.785237 313.666109 
L 394.810172 305.803322 
L 394.897446 311.556643 
L 394.909913 311.875344 
L 394.922381 310.28441 
L 394.934849 309.605885 
L 394.997187 311.566924 
L 395.009655 311.470543 
L 395.047058 311.826511 
L 395.071993 311.04518 
L 395.109396 308.851541 
L 395.19667 308.978764 
L 395.259008 307.808053 
L 395.308879 308.322086 
L 395.545764 312.954815 
L 396.131745 313.616633 
L 399.024243 313.637194 
L 399.061646 309.843626 
L 399.123985 310.308826 
L 399.198791 281.528082 
L 399.223726 268.474198 
L 399.286064 293.723531 
L 399.435676 300.547327 
L 399.473079 301.099914 
L 399.535418 300.611582 
L 399.560353 300.354565 
L 399.585288 300.688687 
L 399.884512 311.858638 
L 400.133866 312.936824 
L 400.27101 313.172251 
L 400.682443 313.494036 
L 401.268423 313.564202 
L 401.418035 313.574996 
L 401.505309 313.586562 
L 401.517776 313.573069 
L 401.555179 310.962934 
L 401.717259 302.140832 
L 401.754662 300.650134 
L 401.804533 302.397849 
L 401.866871 304.492536 
L 401.941677 304.196966 
L 402.053886 307.165511 
L 402.278304 312.017988 
L 402.56506 312.997223 
L 402.689737 312.768478 
L 402.714672 312.850723 
L 402.864284 313.291121 
L 402.901687 313.418987 
L 402.988961 313.337384 
L 403.001429 313.369897 
L 403.038832 313.214402 
L 403.051299 313.172765 
L 403.126105 313.308984 
L 403.288185 313.409735 
L 403.300653 313.319907 
L 403.387926 313.089749 
L 403.425329 313.11288 
L 403.63728 313.40498 
L 403.811827 313.482727 
L 403.824295 313.467049 
L 403.874165 313.414489 
L 403.948971 313.482727 
L 404.210792 313.475017 
L 404.260663 313.320293 
L 404.410275 306.24025 
L 404.460146 303.271706 
L 404.522484 305.572006 
L 404.59729 307.92371 
L 404.784305 311.989717 
L 405.071061 313.133441 
L 405.120932 312.789039 
L 405.195738 312.925258 
L 405.769251 313.509457 
L 406.442505 313.607637 
L 406.754196 313.62383 
L 407.876286 313.651587 
L 410.768785 313.54107 
L 410.993203 313.553407 
L 411.304894 313.596457 
L 412.028019 313.613806 
L 412.751144 313.618818 
L 413.611413 313.624858 
L 414.097652 313.617918 
L 416.915344 313.577052 
L 416.94028 313.42734 
L 417.015086 313.581679 
L 417.202101 313.603782 
L 417.551195 313.495835 
L 417.576131 308.391481 
L 417.675872 308.666489 
L 417.68834 308.693476 
L 417.875355 311.097868 
L 417.887822 310.926952 
L 417.937693 311.680011 
L 418.062369 312.222317 
L 418.27432 312.912407 
L 418.299255 312.814741 
L 418.810429 313.454198 
L 418.922638 313.490438 
L 419.134589 313.54197 
L 419.346539 313.520509 
L 419.483683 313.500204 
L 419.633295 313.399197 
L 419.670698 313.432095 
L 419.832778 313.519095 
L 420.044728 313.523079 
L 420.219276 313.495835 
L 420.35642 313.536829 
L 420.493564 313.546596 
L 421.141883 313.587847 
L 424.159058 313.536829 
L 424.183994 312.81217 
L 424.208929 310.002976 
L 424.296203 311.81109 
L 424.495685 312.778758 
L 424.558024 312.88028 
L 424.582959 312.372672 
L 424.657765 312.8096 
L 424.869715 313.28521 
L 424.882183 313.27917 
L 424.981924 313.385061 
L 425.00686 313.353062 
L 425.031795 313.247814 
L 425.106601 313.375037 
L 425.355954 313.508686 
L 425.518034 313.538371 
L 427.188701 313.558804 
L 427.226104 306.24025 
L 427.313378 312.061681 
L 427.350781 312.474193 
L 427.363248 311.772537 
L 427.51286 300.673266 
L 427.562731 301.832412 
L 427.699875 305.083674 
L 427.724811 304.672447 
L 427.787149 303.605828 
L 427.83702 304.543939 
L 428.186114 310.781737 
L 428.373129 311.534797 
L 428.909239 313.148605 
L 428.921707 313.138582 
L 428.95911 313.215687 
L 429.183528 313.522308 
L 429.320672 313.553407 
L 430.417827 313.641821 
L 432.474992 313.641949 
L 432.562265 310.694352 
L 432.624604 306.728582 
L 432.674474 307.92371 
L 432.861489 311.826511 
L 432.986166 312.616838 
L 432.998634 312.605272 
L 433.085907 310.239432 
L 433.135778 311.252078 
L 433.260455 312.881565 
L 433.28539 312.727355 
L 433.297858 312.651535 
L 433.310325 312.661816 
L 433.360196 305.096525 
L 433.44747 307.037002 
L 433.671888 309.873183 
L 434.008515 312.237738 
L 434.320206 313.10517 
L 434.519689 313.364371 
L 435.305152 313.593502 
L 435.504634 313.597614 
L 435.57944 305.661962 
L 435.679182 307.859456 
L 436.003341 310.960364 
L 436.364903 312.616838 
L 436.726466 313.297161 
L 437.636605 313.609437 
L 438.097909 313.64619 
L 438.484407 313.649017 
L 438.534277 313.558547 
L 438.596616 313.593245 
L 438.821034 313.66431 
L 442.287045 313.615733 
L 442.361851 313.189343 
L 442.424189 301.269545 
L 442.486528 306.163145 
L 442.498995 306.265952 
L 442.548866 303.914248 
L 442.598737 306.163145 
L 442.785751 311.326613 
L 442.985234 312.475478 
L 443.184717 313.082038 
L 443.608617 313.437107 
L 444.71824 313.558804 
L 445.042399 313.584249 
L 445.653315 313.579623 
L 445.927603 313.522308 
L 446.114618 313.531946 
L 446.301633 313.574996 
L 446.663196 313.609437 
L 447.17437 313.641821 
L 447.785286 313.607509 
L 448.047107 313.597614 
L 448.29646 313.629484 
L 448.533346 313.654929 
L 449.219067 313.64619 
L 449.705306 313.593502 
L 450.179078 313.611236 
L 450.353625 313.6264 
L 450.91467 313.593502 
L 451.12662 313.601726 
L 451.538053 313.643363 
L 452.198839 313.636552 
L 452.211307 313.597485 
L 452.298581 313.653129 
L 469.553831 313.668036 
L 469.566298 313.355118 
L 469.578766 305.969097 
L 469.678507 312.65796 
L 469.828119 313.609437 
L 470.052537 313.664053 
L 473.755434 313.60828 
L 473.78037 301.115335 
L 473.867643 307.139809 
L 474.042191 312.900841 
L 474.254141 313.475017 
L 474.503494 313.605581 
L 474.690509 313.623315 
L 477.919635 313.648246 
L 477.932102 313.493059 
L 478.019376 313.633339 
L 478.218859 313.667008 
L 490.000803 313.580522 
L 490.025739 313.541584 
L 490.075609 313.654672 
L 490.275092 313.668036 
L 500.772867 313.647989 
L 500.797802 313.138171 
L 500.885076 313.548524 
L 501.059623 313.66174 
L 502.480937 313.668036 
L 545.855948 313.557005 
L 545.880883 313.169424 
L 545.968157 313.367327 
L 546.092833 313.53336 
L 546.130236 313.328774 
L 546.142704 313.299988 
L 546.180107 313.361415 
L 546.21751 313.366813 
L 546.441928 313.596072 
L 574.593918 313.667779 
L 574.618853 309.837201 
L 574.693659 313.470262 
L 574.830804 313.656728 
L 575.179898 313.622801 
L 575.229769 313.207719 
L 575.304575 313.241388 
L 575.516525 313.556106 
L 575.65367 313.629484 
L 575.666137 313.585534 
L 575.691073 313.482599 
L 575.753411 313.653129 
L 575.765879 313.653129 
L 577.498884 313.667008 
L 578.433959 313.575639 
L 578.446427 313.528733 
L 578.496298 313.660711 
L 578.521233 313.664695 
L 579.693194 313.654029 
L 579.718129 313.647604 
L 579.743064 304.518237 
L 579.830338 311.924177 
L 579.855273 310.696922 
L 579.892676 295.512368 
L 579.967482 304.980868 
L 579.992418 304.40258 
L 580.029821 306.54867 
L 580.104627 311.524516 
L 580.179433 311.250793 
L 580.304109 312.371387 
L 580.341512 304.158414 
L 580.416318 310.567128 
L 580.578398 312.79932 
L 580.615801 312.474193 
L 580.715542 313.006218 
L 580.927493 313.348565 
L 581.014766 302.629164 
L 581.039702 299.146586 
L 581.10204 307.435378 
L 581.226717 311.267499 
L 581.326458 309.721543 
L 581.388796 310.275414 
L 581.488538 311.191679 
L 581.550876 306.188847 
L 581.600747 310.146906 
L 581.663085 308.552116 
L 581.737891 311.660735 
L 581.837632 306.794121 
L 582.06205 199.16704 
L 582.086986 217.158218 
L 582.186727 294.597388 
L 582.22413 277.98125 
L 582.311404 197.624939 
L 582.361274 227.952925 
L 582.461015 287.336663 
L 582.510886 278.700897 
L 582.573224 260.234238 
L 582.685433 127.202329 
L 582.785175 36.19267 
L 582.835045 45.470978 
L 583.408558 276.194983 
L 583.470896 238.233598 
L 583.495832 231.679669 
L 583.545702 250.570405 
L 583.657911 281.875055 
L 583.682847 273.740472 
L 583.745185 240.418241 
L 583.782588 271.478724 
L 583.857394 298.979525 
L 583.894797 285.15202 
L 583.919732 277.621426 
L 583.957135 286.475656 
L 583.994538 284.291013 
L 584.181553 305.392095 
L 584.194021 305.443498 
L 584.281295 300.328863 
L 584.381036 302.205086 
L 584.443374 302.346445 
L 584.480777 302.166533 
L 584.493245 302.205086 
L 584.530648 302.410699 
L 584.555583 302.127981 
L 584.642857 299.005226 
L 584.705195 274.935601 
L 584.767534 288.313326 
L 584.904678 307.833754 
L 584.942081 307.640992 
L 585.091693 305.829023 
L 585.129096 306.24025 
L 585.191434 308.000815 
L 585.403385 311.097868 
L 585.615335 312.093808 
L 585.752479 312.639969 
L 585.764947 312.628403 
L 585.80235 311.160837 
L 585.877156 311.938313 
L 586.026768 312.840442 
L 586.051703 312.819881 
L 586.089106 312.96381 
L 586.101574 312.918832 
L 586.151445 312.345685 
L 586.226251 312.605272 
L 586.238718 312.58214 
L 586.301057 312.696513 
L 586.837166 313.369897 
L 586.961843 313.390201 
L 587.13639 313.395213 
L 587.248599 313.353576 
L 587.373276 313.241388 
L 587.385744 313.214402 
L 587.448082 313.297161 
L 587.46055 313.297161 
L 587.647565 313.42824 
L 587.6725 307.808053 
L 587.772241 311.297056 
L 587.996659 312.981801 
L 588.108868 313.158629 
L 588.121336 313.097459 
L 588.270948 311.520661 
L 588.295883 306.188847 
L 588.383157 309.497938 
L 588.445495 307.319721 
L 588.495366 308.514849 
L 588.707316 312.078387 
L 588.719784 312.04883 
L 588.807058 311.858638 
L 588.856928 311.939598 
L 588.906799 312.136216 
L 588.931734 312.015418 
L 589.093814 285.550396 
L 589.131217 256.353284 
L 589.181088 300.148951 
L 589.268361 303.9528 
L 589.293297 303.348811 
L 589.355635 290.189549 
L 589.580053 245.173052 
L 589.592521 245.558577 
L 589.679794 260.851079 
L 589.954083 310.975785 
L 590.29071 312.990797 
L 590.45279 313.214659 
L 590.914093 313.553407 
L 591.076173 313.504959 
L 591.46267 313.614834 
L 591.923974 313.66174 
L 591.961377 309.559622 
L 592.036183 313.163384 
L 592.185795 313.634881 
L 592.235666 313.649017 
L 592.248133 313.393799 
L 592.322939 302.56491 
L 592.385278 304.453983 
L 592.572293 292.746867 
L 592.597228 296.563567 
L 592.74684 311.712138 
L 592.95879 312.981801 
L 593.083467 313.234449 
L 593.095935 313.192812 
L 593.12087 312.8096 
L 593.208144 313.172765 
L 593.432562 313.474246 
L 593.4949 313.089749 
L 593.582174 313.179833 
L 593.607109 313.221084 
L 593.619577 313.157472 
L 593.819059 305.636261 
L 593.86893 308.717892 
L 593.968671 310.834426 
L 594.006074 310.224011 
L 594.230492 311.555358 
L 594.429975 312.840442 
L 594.99102 313.553407 
L 595.190503 313.595172 
L 595.477259 313.5669 
L 596.000901 313.577309 
L 596.225319 313.561503 
L 596.437269 313.577309 
L 596.611817 313.541327 
L 596.624284 313.558804 
L 596.935976 313.629869 
L 597.434683 313.655828 
L 598.132872 313.666751 
L 601.087709 313.640793 
L 601.112644 311.608047 
L 601.249788 305.212183 
L 601.212385 312.11951 
L 601.262256 306.098891 
L 601.337062 309.231926 
L 601.3994 308.955633 
L 601.611351 311.97044 
L 601.673689 312.424075 
L 601.686157 312.289141 
L 601.711092 311.694147 
L 601.785898 312.449777 
L 601.810833 312.559009 
L 601.835769 312.546158 
L 601.860704 311.760972 
L 601.93551 312.758197 
L 601.960445 312.899556 
L 601.985381 312.57957 
L 602.035251 310.076226 
L 602.110057 311.827796 
L 602.322008 313.030635 
L 602.359411 313.082038 
L 602.409281 310.991206 
L 602.484087 311.907471 
L 602.571361 312.593706 
L 602.583829 312.331549 
L 602.646167 310.912816 
L 602.708505 311.470543 
L 602.920456 312.927828 
L 603.020197 313.128173 
L 603.331889 313.471162 
L 603.444098 313.528733 
L 603.930337 313.450343 
L 603.96774 311.996142 
L 604.055013 293.620724 
L 604.167222 215.487609 
L 604.204625 240.803766 
L 604.266964 290.600776 
L 604.329302 274.691435 
L 604.404108 259.95152 
L 604.453979 267.764831 
L 604.753203 310.618532 
L 604.940218 311.213526 
L 605.08983 311.487249 
L 605.339183 312.556439 
L 605.850357 313.271202 
L 606.174517 313.437621 
L 606.872706 313.566772 
L 609.179224 313.54711 
L 609.229095 313.312325 
L 609.303901 313.35756 
L 609.478448 313.465379 
L 609.665463 313.527705 
L 610.076896 313.601212 
L 614.415644 313.618432 
L 614.477982 313.409863 
L 614.540321 313.433123 
L 614.789674 313.5385 
L 614.926818 313.567029 
L 615.275913 313.605838 
L 615.487863 313.623315 
L 616.073843 313.6548 
L 616.934112 313.658784 
L 619.72687 313.548781 
L 619.913885 313.536444 
L 620.225576 313.5678 
L 620.512333 313.56523 
L 628.279689 313.594273 
L 628.317092 312.426645 
L 628.404365 312.911122 
L 628.616316 313.293434 
L 628.815798 313.406907 
L 629.040216 313.502903 
L 629.314505 313.53336 
L 629.526455 313.554049 
L 663.962149 313.664824 
L 667.565305 313.665466 
L 669.946629 313.59016 
L 669.971564 313.465507 
L 670.058838 313.587976 
L 670.158579 313.556877 
L 670.171047 313.517296 
L 670.270788 313.393028 
L 670.295724 313.416802 
L 670.432868 313.476816 
L 670.682221 313.563045 
L 670.806898 313.585791 
L 675.482273 313.665209 
L 675.482273 313.665209 
" clip-path="url(#pec3e784ac8)" style="fill: none; stroke: #1f77b4; stroke-width: 1.5; stroke-linecap: square"/>
   </g>
   <g id="line2d_14">
    <path d="M 69.927727 313.548909 
L 71.448783 313.514105 
L 71.598395 313.205086 
L 71.610862 313.21067 
L 71.673201 313.099852 
L 71.685668 312.970806 
L 71.78541 312.998756 
L 75.226485 313.314866 
L 78.966785 313.500967 
L 79.091462 313.359917 
L 79.253542 313.313938 
L 80.699791 313.412302 
L 80.999015 309.561295 
L 81.123691 309.6837 
L 82.607344 310.643521 
L 84.253076 311.440221 
L 86.123226 312.094065 
L 87.831296 312.531102 
L 87.856231 312.382888 
L 87.955973 312.413931 
L 87.993376 312.336517 
L 88.055714 312.357304 
L 90.486909 312.834109 
L 90.549247 312.753924 
L 90.711327 312.419051 
L 90.723794 312.432409 
L 91.247436 312.544936 
L 93.803308 312.964591 
L 96.483856 313.245836 
L 96.608533 313.171591 
L 96.870354 313.154967 
L 100.860007 313.423528 
L 106.956696 313.589256 
L 119.411894 313.660246 
L 124.660782 313.68358 
L 124.685717 313.37098 
L 124.785458 313.385446 
L 124.797926 313.429434 
L 124.810394 313.14064 
L 124.822861 312.852735 
L 124.922603 312.901304 
L 128.126793 313.24524 
L 132.57775 313.483096 
L 139.796528 313.619661 
L 140.457315 313.551698 
L 140.569524 313.478598 
L 140.581991 313.495087 
L 140.594459 313.388322 
L 140.606927 313.281886 
L 140.706668 313.301419 
L 145.519187 313.518088 
L 153.722912 313.635372 
L 159.8196 313.582329 
L 159.931809 313.509943 
L 160.418048 313.499873 
L 168.060728 313.62738 
L 188.033929 313.666965 
L 271.20573 313.661849 
L 271.392745 311.445455 
L 271.480018 311.505373 
L 273.375104 312.147155 
L 275.619284 312.665647 
L 276.566826 312.8132 
L 276.591762 312.652459 
L 276.691503 312.677916 
L 277.102936 312.676977 
L 277.227613 312.619249 
L 278.449444 312.824459 
L 281.491554 313.188646 
L 285.618352 313.444291 
L 292.051668 313.600316 
L 302.150477 313.622944 
L 302.262686 313.587803 
L 302.275154 313.597618 
L 302.287622 313.533482 
L 302.399831 313.480654 
L 309.543803 313.618336 
L 315.428542 313.667031 
L 315.665427 312.166855 
L 315.777636 312.174175 
L 318.046752 312.688006 
L 320.851976 313.086046 
L 324.567341 313.376185 
L 330.065582 313.562945 
L 340.239197 313.65315 
L 340.2766 313.549241 
L 340.289068 313.432805 
L 340.388809 313.450141 
L 340.60076 313.452882 
L 340.65063 313.004587 
L 340.737904 313.028144 
L 340.999725 311.232813 
L 341.049596 311.271642 
L 342.745198 311.919226 
L 344.839766 312.482938 
L 347.38317 312.92919 
L 350.649699 313.265308 
L 355.225332 313.495908 
L 362.755802 313.625545 
L 382.080685 313.666864 
L 526.231841 313.593038 
L 526.431324 312.052742 
L 526.468727 311.421958 
L 526.556 311.433725 
L 526.71808 311.381672 
L 526.855224 311.375227 
L 527.09211 311.407203 
L 527.104578 311.377267 
L 527.366399 311.26383 
L 527.690558 311.313763 
L 527.914976 311.263942 
L 528.064588 311.172107 
L 528.575762 310.649056 
L 529.460967 310.979877 
L 529.473434 310.948748 
L 529.49837 310.854849 
L 529.585643 310.895317 
L 529.598111 310.913473 
L 529.623046 310.76022 
L 529.635514 310.771962 
L 530.533186 311.215344 
L 530.882281 311.335012 
L 530.894748 311.28185 
L 530.944619 311.254719 
L 531.006957 311.282797 
L 531.779953 311.584197 
L 533.463087 312.11688 
L 533.737376 312.074512 
L 533.924391 312.10057 
L 534.011665 311.839994 
L 534.061535 311.864579 
L 534.136341 311.658509 
L 534.186212 311.672541 
L 534.19868 311.690236 
L 534.211147 311.606116 
L 534.335824 311.49037 
L 534.448033 311.550624 
L 534.460501 311.457676 
L 534.472968 311.365018 
L 534.57271 311.409306 
L 534.647516 311.27387 
L 534.884401 310.876305 
L 534.896869 310.90417 
L 534.909337 310.755088 
L 534.921804 310.598395 
L 535.021546 310.666882 
L 536.555069 311.389361 
L 537.552482 311.69764 
L 537.764432 311.767782 
L 539.522373 312.289093 
L 539.709388 312.225389 
L 540.794075 312.436012 
L 541.006026 312.389873 
L 541.168105 312.230621 
L 542.065777 312.383564 
L 542.227857 312.151024 
L 542.389936 311.14392 
L 542.514613 311.170023 
L 542.63929 311.181909 
L 543.01332 311.309449 
L 543.275141 311.074308 
L 544.983211 311.648344 
L 545.107888 311.469784 
L 545.132823 311.480215 
L 545.170226 311.475596 
L 545.182694 311.424602 
L 545.407112 310.096026 
L 545.594127 306.107006 
L 545.731271 303.724785 
L 545.743739 303.601264 
L 545.831012 303.758243 
L 546.030495 303.997061 
L 546.05543 303.96544 
L 546.080366 303.958445 
L 546.142704 304.033403 
L 546.180107 304.046998 
L 546.192575 303.958281 
L 546.242445 303.802772 
L 546.304784 303.879517 
L 547.426874 305.666319 
L 548.636237 307.263241 
L 549.932874 308.634267 
L 551.104835 309.578044 
L 552.526149 310.517565 
L 552.738099 310.523927 
L 552.763035 310.447129 
L 552.962517 309.776991 
L 553.112129 309.814665 
L 553.261741 309.828118 
L 554.49604 310.577473 
L 554.670588 310.664316 
L 555.593195 311.070403 
L 555.855016 310.008244 
L 555.979693 309.909994 
L 556.15424 308.01592 
L 556.204111 307.041984 
L 556.291384 307.068806 
L 556.615544 307.461015 
L 557.450877 308.343513 
L 557.463345 308.308061 
L 557.637892 307.853702 
L 557.750101 307.938294 
L 559.084141 309.196003 
L 560.143893 309.9311 
L 561.540272 310.748905 
L 561.939237 310.84403 
L 562.450411 310.865353 
L 562.774571 311.021519 
L 562.787038 310.958995 
L 562.961586 310.14939 
L 563.186004 310.125425 
L 564.844203 311.064553 
L 565.854084 311.509819 
L 565.866552 311.472519 
L 565.991228 311.42609 
L 566.190711 311.5014 
L 567.350204 311.791089 
L 567.375139 311.389293 
L 567.474881 311.452194 
L 567.487348 311.470579 
L 567.499816 311.387135 
L 567.512284 311.303952 
L 567.612025 311.357633 
L 569.45724 312.028138 
L 570.940892 312.367234 
L 570.978295 312.284989 
L 570.990763 312.191265 
L 571.090504 312.228719 
L 571.302454 312.207314 
L 571.564275 312.288576 
L 571.576743 312.190942 
L 571.589211 312.09361 
L 571.688952 312.134163 
L 572.773639 312.363846 
L 572.960654 311.980499 
L 573.085331 311.262386 
L 573.234943 311.342535 
L 574.032873 311.472966 
L 574.082744 311.125049 
L 574.170018 311.168631 
L 574.182485 311.179135 
L 574.194953 311.141374 
L 574.319629 310.884266 
L 574.394435 310.911405 
L 574.406903 310.827187 
L 574.456774 310.710039 
L 574.519112 310.747041 
L 574.768465 310.781971 
L 574.793401 310.600696 
L 574.893142 310.666814 
L 575.466655 310.95724 
L 575.553928 310.355117 
L 575.603799 310.387592 
L 575.778346 310.380086 
L 576.052635 307.93066 
L 576.23965 307.819845 
L 576.414197 307.049023 
L 576.426665 307.111486 
L 576.439133 306.858113 
L 576.551342 306.513795 
L 576.563809 306.652332 
L 576.576277 305.865734 
L 576.588745 305.082186 
L 576.688486 305.332955 
L 576.975242 305.734776 
L 577.000178 305.363833 
L 577.087451 305.516644 
L 577.099919 305.536957 
L 577.112387 305.481278 
L 577.137322 304.292286 
L 577.237063 304.523053 
L 577.586158 305.104316 
L 577.623561 304.357186 
L 577.710835 304.475423 
L 577.723302 304.569538 
L 577.73577 304.089621 
L 577.748238 303.610714 
L 577.847979 303.853591 
L 578.471362 304.925158 
L 578.48383 304.783035 
L 578.496298 304.651522 
L 578.583571 304.778154 
L 578.608507 304.853964 
L 578.633442 303.936388 
L 578.733183 304.041302 
L 578.745651 304.071065 
L 578.783054 303.877113 
L 578.795522 303.888969 
L 578.807989 303.829897 
L 578.832925 303.736514 
L 578.920198 303.828025 
L 578.957601 303.504242 
L 579.119681 301.268719 
L 579.132149 301.295671 
L 579.244358 300.163619 
L 579.269293 300.232285 
L 579.306696 300.097498 
L 579.680726 300.969163 
L 579.97995 297.684401 
L 580.054756 297.872537 
L 580.104627 297.722242 
L 580.117094 297.684381 
L 580.166965 297.839541 
L 580.216836 297.994156 
L 580.254239 297.86528 
L 580.441254 295.834211 
L 580.491124 295.981301 
L 580.540995 296.118508 
L 580.578398 295.910353 
L 580.590866 295.890825 
L 580.628269 295.990928 
L 580.678139 296.133025 
L 580.703075 295.993916 
L 580.72801 295.833604 
L 580.802816 296.046101 
L 580.89009 296.314644 
L 580.915025 296.085513 
L 580.93996 295.966068 
L 581.014766 296.180844 
L 581.027234 296.260846 
L 581.039702 296.021232 
L 581.164378 295.073013 
L 581.176846 295.170139 
L 581.201781 294.784695 
L 581.226717 294.893451 
L 581.376329 295.016774 
L 581.388796 294.978089 
L 581.401264 295.134754 
L 581.413732 294.471224 
L 581.575811 290.85309 
L 581.588279 290.860671 
L 581.600747 290.937236 
L 581.613214 290.53857 
L 581.825165 282.88584 
L 582.086986 263.053689 
L 582.099453 263.001144 
L 582.136856 263.301626 
L 582.199195 263.551373 
L 582.211662 263.307536 
L 582.236598 262.182403 
L 582.323871 262.849257 
L 582.361274 262.0388 
L 582.448548 262.575781 
L 582.461015 262.684804 
L 582.473483 262.563546 
L 582.498418 260.88516 
L 582.585692 261.731627 
L 582.959722 264.378665 
L 582.97219 264.36307 
L 583.18414 265.961371 
L 583.508299 268.303959 
L 583.533235 268.106399 
L 583.55817 266.890862 
L 583.657911 267.273412 
L 583.670379 267.51626 
L 583.695314 263.505384 
L 583.795056 264.668007 
L 583.869862 264.477325 
L 583.969603 265.197446 
L 584.007006 263.280031 
L 584.131683 264.308902 
L 584.717663 269.032116 
L 584.742598 267.349631 
L 584.84234 267.978836 
L 584.854807 268.141947 
L 584.879743 267.542936 
L 584.917146 267.658707 
L 584.929613 267.451788 
L 585.004419 268.017957 
L 586.039236 275.859283 
L 586.936908 281.225043 
L 587.036649 281.724398 
L 587.08652 281.629978 
L 587.29847 273.758564 
L 587.310938 273.840728 
L 587.934321 277.358702 
L 587.946789 277.339763 
L 587.971724 276.671441 
L 588.04653 277.205403 
L 588.058998 277.328762 
L 588.083933 276.627277 
L 588.283416 273.115749 
L 588.295883 272.289726 
L 588.383157 273.023107 
L 588.657446 275.06072 
L 588.694849 274.656501 
L 588.707316 274.374226 
L 588.782122 274.844394 
L 588.79459 275.035256 
L 588.819525 273.908068 
L 588.831993 273.94946 
L 588.844461 273.851026 
L 588.906799 274.134951 
L 588.919267 274.126957 
L 589.106282 274.584919 
L 589.118749 274.344356 
L 589.131217 274.185693 
L 589.193555 274.642284 
L 589.604988 276.700893 
L 589.642391 276.660589 
L 589.654859 276.581989 
L 589.729665 276.80531 
L 590.477725 281.567455 
L 590.864222 283.466932 
L 590.889158 282.97023 
L 590.963964 283.406308 
L 591.899039 288.244905 
L 591.923974 287.381134 
L 592.023715 287.548675 
L 592.036183 287.741047 
L 592.048651 286.422155 
L 592.123457 284.574672 
L 592.173327 284.811176 
L 592.260601 285.193345 
L 592.273069 284.992392 
L 592.285536 284.741228 
L 592.37281 285.188701 
L 592.397745 285.395831 
L 592.422681 283.976571 
L 592.522422 284.523857 
L 592.933855 286.397812 
L 592.946323 286.325707 
L 592.95879 286.243499 
L 593.021129 286.554277 
L 593.469965 288.247105 
L 593.519835 288.319347 
L 593.557238 287.990339 
L 593.819059 280.145626 
L 593.956204 280.870026 
L 594.978552 286.45112 
L 596.125578 291.674369 
L 597.272603 295.895214 
L 598.432096 299.339255 
L 598.905867 300.295086 
L 598.980673 299.433303 
L 599.055479 299.465623 
L 599.067947 299.455119 
L 599.092882 299.147691 
L 599.180156 299.346164 
L 600.352116 302.142839 
L 600.850823 303.171452 
L 600.888226 303.084799 
L 601.100176 300.389798 
L 601.112644 300.395821 
L 601.125112 300.404119 
L 601.137579 300.337465 
L 601.199918 299.441736 
L 601.34953 296.774399 
L 601.361997 296.834939 
L 601.386933 296.846058 
L 601.3994 296.580474 
L 601.549012 293.937975 
L 601.586415 294.087205 
L 601.611351 293.714005 
L 601.623818 293.727763 
L 601.636286 293.695415 
L 601.648754 293.71925 
L 601.835769 288.859888 
L 601.923042 288.583245 
L 601.960445 288.152885 
L 602.035251 288.49217 
L 602.172396 289.038538 
L 602.184863 288.817692 
L 602.346943 285.210699 
L 602.52149 277.025882 
L 602.583829 275.762076 
L 602.658635 275.841949 
L 602.720973 275.799848 
L 602.745908 275.922146 
L 603.818128 282.707381 
L 603.867998 282.133075 
L 603.96774 281.05803 
L 604.129819 275.523524 
L 604.17969 275.765125 
L 604.254496 276.13299 
L 605.276845 282.554717 
L 605.438924 283.305731 
L 605.825422 285.37669 
L 605.875293 285.078744 
L 605.962566 285.360213 
L 605.987502 285.127556 
L 606.012437 284.72766 
L 606.087243 285.081661 
L 607.159462 290.245044 
L 608.269084 294.572762 
L 609.428577 298.273069 
L 610.051961 299.945979 
L 610.076896 299.839161 
L 610.101831 299.770769 
L 610.16417 299.910745 
L 610.21404 299.847747 
L 611.635354 303.026892 
L 612.83225 305.148352 
L 613.966808 306.735376 
L 615.226042 308.175993 
L 616.57255 309.391437 
L 618.018799 310.399027 
L 618.60478 310.736132 
L 618.617247 310.693537 
L 618.679586 309.616288 
L 618.879068 305.576757 
L 618.953874 305.718365 
L 620.275447 307.435955 
L 621.385069 308.550855 
L 622.756513 309.702174 
L 623.280155 310.05768 
L 623.454702 310.171831 
L 623.46717 310.089893 
L 623.691587 307.856579 
L 623.716523 307.879687 
L 623.89107 308.056718 
L 624.713936 308.843481 
L 624.726404 308.788832 
L 624.751339 308.734826 
L 624.826145 308.7875 
L 624.975757 308.817414 
L 625.162772 308.266503 
L 625.187707 308.297552 
L 626.110315 309.102283 
L 627.382017 310.035007 
L 627.581499 309.721988 
L 627.731111 308.168369 
L 627.992932 301.640758 
L 628.030335 301.650899 
L 628.329559 301.978607 
L 628.952943 303.079069 
L 629.115022 303.024417 
L 629.302037 302.301649 
L 629.513988 302.560122 
L 629.925421 303.229381 
L 629.937888 303.202692 
L 629.962824 302.951606 
L 630.187242 298.205592 
L 630.336854 297.112909 
L 630.41166 297.331867 
L 631.197123 299.549831 
L 631.359202 299.712386 
L 631.7457 300.405681 
L 632.431421 301.849559 
L 632.581033 302.012659 
L 633.29169 303.287204 
L 633.603382 303.757104 
L 633.8278 303.893882 
L 634.538457 304.96271 
L 634.688069 305.16202 
L 635.124437 305.714143 
L 635.311452 305.709222 
L 635.510935 303.848122 
L 635.523403 303.636187 
L 635.623144 303.812658 
L 636.346269 304.914769 
L 636.421075 305.004225 
L 636.695363 305.234291 
L 636.807572 305.308332 
L 637.19407 305.760289 
L 637.40602 305.905456 
L 637.505762 305.952023 
L 637.605503 305.461631 
L 637.655374 305.519329 
L 637.667841 305.546193 
L 637.692777 305.480899 
L 637.717712 304.948509 
L 637.817453 305.125523 
L 638.515643 306.024344 
L 639.587862 307.353086 
L 639.712539 307.38403 
L 639.725006 307.365033 
L 639.799812 307.009555 
L 639.974359 306.129717 
L 639.986827 306.102319 
L 640.049165 306.193023 
L 640.759822 307.071824 
L 641.657494 307.311793 
L 641.669962 307.326498 
L 642.206072 307.442919 
L 643.515177 308.7868 
L 644.001416 309.154639 
L 644.013883 309.118177 
L 644.225834 307.58613 
L 644.275704 305.879107 
L 644.35051 305.9778 
L 645.63468 307.609917 
L 646.033645 307.992449 
L 646.058581 307.950877 
L 646.095984 307.524483 
L 646.332869 304.560485 
L 646.494949 304.789889 
L 647.567168 306.393711 
L 648.776532 307.845657 
L 648.83887 307.885295 
L 648.888741 307.805036 
L 649.100691 307.698917 
L 649.113159 307.714305 
L 649.163029 307.748264 
L 649.225368 307.677663 
L 649.37498 307.36547 
L 649.387447 307.309908 
L 649.474721 307.377944 
L 649.873686 307.661941 
L 649.898622 307.594745 
L 649.973428 307.667003 
L 650.559408 308.253071 
L 650.571876 308.229727 
L 650.771358 306.001431 
L 650.833697 305.82534 
L 650.883567 305.892574 
L 652.142802 307.514393 
L 652.429558 307.837408 
L 652.466961 307.726588 
L 652.491896 307.685514 
L 652.566702 307.769934 
L 652.604105 307.658558 
L 652.629041 307.487808 
L 652.716314 307.591105 
L 653.651389 308.482227 
L 653.70126 308.49966 
L 653.726195 308.431055 
L 653.91321 307.892242 
L 653.938146 307.904162 
L 653.963081 307.832954 
L 653.975549 307.829446 
L 654.000484 307.808502 
L 654.062822 307.875064 
L 655.284654 309.025947 
L 656.10752 309.657142 
L 656.119987 309.632721 
L 656.518952 305.295838 
L 656.581291 305.323439 
L 656.618694 305.370407 
L 656.656097 305.285495 
L 656.668564 305.249348 
L 656.74337 305.331138 
L 656.855579 305.507554 
L 656.868047 305.475812 
L 656.980256 304.853247 
L 657.017659 304.90284 
L 657.06753 304.980596 
L 657.104933 304.842466 
L 657.1174 304.808162 
L 657.179739 304.909158 
L 658.002605 306.154351 
L 658.040008 306.129462 
L 658.052475 306.110212 
L 658.114814 306.19459 
L 659.236904 307.563247 
L 660.159511 308.441944 
L 661.39381 309.486203 
L 662.852527 310.478861 
L 664.460856 311.302556 
L 666.168926 311.931085 
L 668.064011 312.425959 
L 670.545077 312.884647 
L 672.714451 313.112337 
L 672.839128 312.928553 
L 672.851595 312.931746 
L 673.076013 312.913115 
L 675.482273 313.182261 
L 675.482273 313.182261 
" clip-path="url(#pec3e784ac8)" style="fill: none; stroke: #ff7f0e; stroke-width: 1.5; stroke-linecap: square"/>
   </g>
   <g id="patch_3">
    <path d="M 39.65 327.558125 
L 39.65 22.318125 
" style="fill: none; stroke: #000000; stroke-width: 0.8; stroke-linejoin: miter; stroke-linecap: square"/>
   </g>
   <g id="patch_4">
    <path d="M 705.76 327.558125 
L 705.76 22.318125 
" style="fill: none; stroke: #000000; stroke-width: 0.8; stroke-linejoin: miter; stroke-linecap: square"/>
   </g>
   <g id="patch_5">
    <path d="M 39.65 327.558125 
L 705.76 327.558125 
" style="fill: none; stroke: #000000; stroke-width: 0.8; stroke-linejoin: miter; stroke-linecap: square"/>
   </g>
   <g id="patch_6">
    <path d="M 39.65 22.318125 
L 705.76 22.318125 
" style="fill: none; stroke: #000000; stroke-width: 0.8; stroke-linejoin: miter; stroke-linecap: square"/>
   </g>
   <g id="text_13">
    <!-- training -->
    <g transform="translate(349.461563 16.318125) scale(0.12 -0.12)">
     <defs>
      <path id="DejaVuSans-74" d="M 1172 4494 
L 1172 3500 
L 2356 3500 
L 2356 3053 
L 1172 3053 
L 1172 1153 
Q 1172 725 1289 603 
Q 1406 481 1766 481 
L 2356 481 
L 2356 0 
L 1766 0 
Q 1100 0 847 248 
Q 594 497 594 1153 
L 594 3053 
L 172 3053 
L 172 3500 
L 594 3500 
L 594 4494 
L 1172 4494 
z
" transform="scale(0.015625)"/>
      <path id="DejaVuSans-72" d="M 2631 2963 
Q 2534 3019 2420 3045 
Q 2306 3072 2169 3072 
Q 1681 3072 1420 2755 
Q 1159 2438 1159 1844 
L 1159 0 
L 581 0 
L 581 3500 
L 1159 3500 
L 1159 2956 
Q 1341 3275 1631 3429 
Q 1922 3584 2338 3584 
Q 2397 3584 2469 3576 
Q 2541 3569 2628 3553 
L 2631 2963 
z
" transform="scale(0.015625)"/>
      <path id="DejaVuSans-61" d="M 2194 1759 
Q 1497 1759 1228 1600 
Q 959 1441 959 1056 
Q 959 750 1161 570 
Q 1363 391 1709 391 
Q 2188 391 2477 730 
Q 2766 1069 2766 1631 
L 2766 1759 
L 2194 1759 
z
M 3341 1997 
L 3341 0 
L 2766 0 
L 2766 531 
Q 2569 213 2275 61 
Q 1981 -91 1556 -91 
Q 1019 -91 701 211 
Q 384 513 384 1019 
Q 384 1609 779 1909 
Q 1175 2209 1959 2209 
L 2766 2209 
L 2766 2266 
Q 2766 2663 2505 2880 
Q 2244 3097 1772 3097 
Q 1472 3097 1187 3025 
Q 903 2953 641 2809 
L 641 3341 
Q 956 3463 1253 3523 
Q 1550 3584 1831 3584 
Q 2591 3584 2966 3190 
Q 3341 2797 3341 1997 
z
" transform="scale(0.015625)"/>
      <path id="DejaVuSans-69" d="M 603 3500 
L 1178 3500 
L 1178 0 
L 603 0 
L 603 3500 
z
M 603 4863 
L 1178 4863 
L 1178 4134 
L 603 4134 
L 603 4863 
z
" transform="scale(0.015625)"/>
      <path id="DejaVuSans-6e" d="M 3513 2113 
L 3513 0 
L 2938 0 
L 2938 2094 
Q 2938 2591 2744 2837 
Q 2550 3084 2163 3084 
Q 1697 3084 1428 2787 
Q 1159 2491 1159 1978 
L 1159 0 
L 581 0 
L 581 3500 
L 1159 3500 
L 1159 2956 
Q 1366 3272 1645 3428 
Q 1925 3584 2291 3584 
Q 2894 3584 3203 3211 
Q 3513 2838 3513 2113 
z
" transform="scale(0.015625)"/>
      <path id="DejaVuSans-67" d="M 2906 1791 
Q 2906 2416 2648 2759 
Q 2391 3103 1925 3103 
Q 1463 3103 1205 2759 
Q 947 2416 947 1791 
Q 947 1169 1205 825 
Q 1463 481 1925 481 
Q 2391 481 2648 825 
Q 2906 1169 2906 1791 
z
M 3481 434 
Q 3481 -459 3084 -895 
Q 2688 -1331 1869 -1331 
Q 1566 -1331 1297 -1286 
Q 1028 -1241 775 -1147 
L 775 -588 
Q 1028 -725 1275 -790 
Q 1522 -856 1778 -856 
Q 2344 -856 2625 -561 
Q 2906 -266 2906 331 
L 2906 616 
Q 2728 306 2450 153 
Q 2172 0 1784 0 
Q 1141 0 747 490 
Q 353 981 353 1791 
Q 353 2603 747 3093 
Q 1141 3584 1784 3584 
Q 2172 3584 2450 3431 
Q 2728 3278 2906 2969 
L 2906 3500 
L 3481 3500 
L 3481 434 
z
" transform="scale(0.015625)"/>
     </defs>
     <use xlink:href="#DejaVuSans-74"/>
     <use xlink:href="#DejaVuSans-72" x="39.208984"/>
     <use xlink:href="#DejaVuSans-61" x="80.322266"/>
     <use xlink:href="#DejaVuSans-69" x="141.601562"/>
     <use xlink:href="#DejaVuSans-6e" x="169.384766"/>
     <use xlink:href="#DejaVuSans-69" x="232.763672"/>
     <use xlink:href="#DejaVuSans-6e" x="260.546875"/>
     <use xlink:href="#DejaVuSans-67" x="323.925781"/>
    </g>
   </g>
   <g id="legend_1">
    <g id="patch_7">
     <path d="M 617.36625 59.674375 
L 698.76 59.674375 
Q 700.76 59.674375 700.76 57.674375 
L 700.76 29.318125 
Q 700.76 27.318125 698.76 27.318125 
L 617.36625 27.318125 
Q 615.36625 27.318125 615.36625 29.318125 
L 615.36625 57.674375 
Q 615.36625 59.674375 617.36625 59.674375 
z
" style="fill: #ffffff; opacity: 0.8; stroke: #cccccc; stroke-linejoin: miter"/>
    </g>
    <g id="line2d_15">
     <path d="M 619.36625 35.416562 
L 629.36625 35.416562 
L 639.36625 35.416562 
" style="fill: none; stroke: #1f77b4; stroke-width: 1.5; stroke-linecap: square"/>
    </g>
    <g id="text_14">
     <!-- observed -->
     <g transform="translate(647.36625 38.916562) scale(0.1 -0.1)">
      <defs>
       <path id="DejaVuSans-6f" d="M 1959 3097 
Q 1497 3097 1228 2736 
Q 959 2375 959 1747 
Q 959 1119 1226 758 
Q 1494 397 1959 397 
Q 2419 397 2687 759 
Q 2956 1122 2956 1747 
Q 2956 2369 2687 2733 
Q 2419 3097 1959 3097 
z
M 1959 3584 
Q 2709 3584 3137 3096 
Q 3566 2609 3566 1747 
Q 3566 888 3137 398 
Q 2709 -91 1959 -91 
Q 1206 -91 779 398 
Q 353 888 353 1747 
Q 353 2609 779 3096 
Q 1206 3584 1959 3584 
z
" transform="scale(0.015625)"/>
       <path id="DejaVuSans-62" d="M 3116 1747 
Q 3116 2381 2855 2742 
Q 2594 3103 2138 3103 
Q 1681 3103 1420 2742 
Q 1159 2381 1159 1747 
Q 1159 1113 1420 752 
Q 1681 391 2138 391 
Q 2594 391 2855 752 
Q 3116 1113 3116 1747 
z
M 1159 2969 
Q 1341 3281 1617 3432 
Q 1894 3584 2278 3584 
Q 2916 3584 3314 3078 
Q 3713 2572 3713 1747 
Q 3713 922 3314 415 
Q 2916 -91 2278 -91 
Q 1894 -91 1617 61 
Q 1341 213 1159 525 
L 1159 0 
L 581 0 
L 581 4863 
L 1159 4863 
L 1159 2969 
z
" transform="scale(0.015625)"/>
       <path id="DejaVuSans-73" d="M 2834 3397 
L 2834 2853 
Q 2591 2978 2328 3040 
Q 2066 3103 1784 3103 
Q 1356 3103 1142 2972 
Q 928 2841 928 2578 
Q 928 2378 1081 2264 
Q 1234 2150 1697 2047 
L 1894 2003 
Q 2506 1872 2764 1633 
Q 3022 1394 3022 966 
Q 3022 478 2636 193 
Q 2250 -91 1575 -91 
Q 1294 -91 989 -36 
Q 684 19 347 128 
L 347 722 
Q 666 556 975 473 
Q 1284 391 1588 391 
Q 1994 391 2212 530 
Q 2431 669 2431 922 
Q 2431 1156 2273 1281 
Q 2116 1406 1581 1522 
L 1381 1569 
Q 847 1681 609 1914 
Q 372 2147 372 2553 
Q 372 3047 722 3315 
Q 1072 3584 1716 3584 
Q 2034 3584 2315 3537 
Q 2597 3491 2834 3397 
z
" transform="scale(0.015625)"/>
       <path id="DejaVuSans-65" d="M 3597 1894 
L 3597 1613 
L 953 1613 
Q 991 1019 1311 708 
Q 1631 397 2203 397 
Q 2534 397 2845 478 
Q 3156 559 3463 722 
L 3463 178 
Q 3153 47 2828 -22 
Q 2503 -91 2169 -91 
Q 1331 -91 842 396 
Q 353 884 353 1716 
Q 353 2575 817 3079 
Q 1281 3584 2069 3584 
Q 2775 3584 3186 3129 
Q 3597 2675 3597 1894 
z
M 3022 2063 
Q 3016 2534 2758 2815 
Q 2500 3097 2075 3097 
Q 1594 3097 1305 2825 
Q 1016 2553 972 2059 
L 3022 2063 
z
" transform="scale(0.015625)"/>
       <path id="DejaVuSans-76" d="M 191 3500 
L 800 3500 
L 1894 563 
L 2988 3500 
L 3597 3500 
L 2284 0 
L 1503 0 
L 191 3500 
z
" transform="scale(0.015625)"/>
       <path id="DejaVuSans-64" d="M 2906 2969 
L 2906 4863 
L 3481 4863 
L 3481 0 
L 2906 0 
L 2906 525 
Q 2725 213 2448 61 
Q 2172 -91 1784 -91 
Q 1150 -91 751 415 
Q 353 922 353 1747 
Q 353 2572 751 3078 
Q 1150 3584 1784 3584 
Q 2172 3584 2448 3432 
Q 2725 3281 2906 2969 
z
M 947 1747 
Q 947 1113 1208 752 
Q 1469 391 1925 391 
Q 2381 391 2643 752 
Q 2906 1113 2906 1747 
Q 2906 2381 2643 2742 
Q 2381 3103 1925 3103 
Q 1469 3103 1208 2742 
Q 947 2381 947 1747 
z
" transform="scale(0.015625)"/>
      </defs>
      <use xlink:href="#DejaVuSans-6f"/>
      <use xlink:href="#DejaVuSans-62" x="61.181641"/>
      <use xlink:href="#DejaVuSans-73" x="124.658203"/>
      <use xlink:href="#DejaVuSans-65" x="176.757812"/>
      <use xlink:href="#DejaVuSans-72" x="238.28125"/>
      <use xlink:href="#DejaVuSans-76" x="279.394531"/>
      <use xlink:href="#DejaVuSans-65" x="338.574219"/>
      <use xlink:href="#DejaVuSans-64" x="400.097656"/>
     </g>
    </g>
    <g id="line2d_16">
     <path d="M 619.36625 50.094688 
L 629.36625 50.094688 
L 639.36625 50.094688 
" style="fill: none; stroke: #ff7f0e; stroke-width: 1.5; stroke-linecap: square"/>
    </g>
    <g id="text_15">
     <!-- simulated -->
     <g transform="translate(647.36625 53.594688) scale(0.1 -0.1)">
      <defs>
       <path id="DejaVuSans-6d" d="M 3328 2828 
Q 3544 3216 3844 3400 
Q 4144 3584 4550 3584 
Q 5097 3584 5394 3201 
Q 5691 2819 5691 2113 
L 5691 0 
L 5113 0 
L 5113 2094 
Q 5113 2597 4934 2840 
Q 4756 3084 4391 3084 
Q 3944 3084 3684 2787 
Q 3425 2491 3425 1978 
L 3425 0 
L 2847 0 
L 2847 2094 
Q 2847 2600 2669 2842 
Q 2491 3084 2119 3084 
Q 1678 3084 1418 2786 
Q 1159 2488 1159 1978 
L 1159 0 
L 581 0 
L 581 3500 
L 1159 3500 
L 1159 2956 
Q 1356 3278 1631 3431 
Q 1906 3584 2284 3584 
Q 2666 3584 2933 3390 
Q 3200 3197 3328 2828 
z
" transform="scale(0.015625)"/>
       <path id="DejaVuSans-75" d="M 544 1381 
L 544 3500 
L 1119 3500 
L 1119 1403 
Q 1119 906 1312 657 
Q 1506 409 1894 409 
Q 2359 409 2629 706 
Q 2900 1003 2900 1516 
L 2900 3500 
L 3475 3500 
L 3475 0 
L 2900 0 
L 2900 538 
Q 2691 219 2414 64 
Q 2138 -91 1772 -91 
Q 1169 -91 856 284 
Q 544 659 544 1381 
z
M 1991 3584 
L 1991 3584 
z
" transform="scale(0.015625)"/>
       <path id="DejaVuSans-6c" d="M 603 4863 
L 1178 4863 
L 1178 0 
L 603 0 
L 603 4863 
z
" transform="scale(0.015625)"/>
      </defs>
      <use xlink:href="#DejaVuSans-73"/>
      <use xlink:href="#DejaVuSans-69" x="52.099609"/>
      <use xlink:href="#DejaVuSans-6d" x="79.882812"/>
      <use xlink:href="#DejaVuSans-75" x="177.294922"/>
      <use xlink:href="#DejaVuSans-6c" x="240.673828"/>
      <use xlink:href="#DejaVuSans-61" x="268.457031"/>
      <use xlink:href="#DejaVuSans-74" x="329.736328"/>
      <use xlink:href="#DejaVuSans-65" x="368.945312"/>
      <use xlink:href="#DejaVuSans-64" x="430.46875"/>
     </g>
    </g>
   </g>
  </g>
 </g>
 <defs>
  <clipPath id="pec3e784ac8">
   <rect x="39.65" y="22.318125" width="666.11" height="305.24"/>
  </clipPath>
 </defs>
</svg>
