<?xml version="1.0" encoding="utf-8" standalone="no"?>
<!DOCTYPE svg PUBLIC "-//W3C//DTD SVG 1.1//EN"
  "http://www.w3.org/Graphics/SVG/1.1/DTD/svg11.dtd">
<svg xmlns:xlink="http://www.w3.org/1999/xlink" width="711.904653pt" height="351.43625pt" viewBox="0 0 711.904653 351.43625" xmlns="http://www.w3.org/2000/svg" version="1.1">
 <metadata>
  <rdf:RDF xmlns:dc="http://purl.org/dc/elements/1.1/" xmlns:cc="http://creativecommons.org/ns#" xmlns:rdf="http://www.w3.org/1999/02/22-rdf-syntax-ns#">
   <cc:Work>
    <dc:type rdf:resource="http://purl.org/dc/dcmitype/StillImage"/>
    <dc:date>2023-12-07T07:30:07.820955</dc:date>
    <dc:format>image/svg+xml</dc:format>
    <dc:creator>
     <cc:Agent>
      <dc:title>Matplotlib v3.7.1, https://matplotlib.org/</dc:title>
     </cc:Agent>
    </dc:creator>
   </cc:Work>
  </rdf:RDF>
 </metadata>
 <defs>
  <style type="text/css">*{stroke-linejoin: round; stroke-linecap: butt}</style>
 </defs>
 <g id="figure_1">
  <g id="patch_1">
   <path d="M 0 351.43625 
L 711.904653 351.43625 
L 711.904653 0 
L 0 0 
z
" style="fill: #ffffff"/>
  </g>
  <g id="axes_1">
   <g id="patch_2">
    <path d="M 46.0125 327.558125 
L 700.131374 327.558125 
L 700.131374 22.318125 
L 46.0125 22.318125 
z
" style="fill: #ffffff"/>
   </g>
   <g id="matplotlib.axis_1">
    <g id="xtick_1">
     <g id="line2d_1">
      <defs>
       <path id="m873eca6a7f" d="M 0 0 
L 0 3.5 
" style="stroke: #000000; stroke-width: 0.8"/>
      </defs>
      <g>
       <use xlink:href="#m873eca6a7f" x="121.174769" y="327.558125" style="stroke: #000000; stroke-width: 0.8"/>
      </g>
     </g>
     <g id="text_1">
      <!-- 2011 -->
      <g transform="translate(108.449769 342.156563) scale(0.1 -0.1)">
       <defs>
        <path id="DejaVuSans-32" d="M 1228 531 
L 3431 531 
L 3431 0 
L 469 0 
L 469 531 
Q 828 903 1448 1529 
Q 2069 2156 2228 2338 
Q 2531 2678 2651 2914 
Q 2772 3150 2772 3378 
Q 2772 3750 2511 3984 
Q 2250 4219 1831 4219 
Q 1534 4219 1204 4116 
Q 875 4013 500 3803 
L 500 4441 
Q 881 4594 1212 4672 
Q 1544 4750 1819 4750 
Q 2544 4750 2975 4387 
Q 3406 4025 3406 3419 
Q 3406 3131 3298 2873 
Q 3191 2616 2906 2266 
Q 2828 2175 2409 1742 
Q 1991 1309 1228 531 
z
" transform="scale(0.015625)"/>
        <path id="DejaVuSans-30" d="M 2034 4250 
Q 1547 4250 1301 3770 
Q 1056 3291 1056 2328 
Q 1056 1369 1301 889 
Q 1547 409 2034 409 
Q 2525 409 2770 889 
Q 3016 1369 3016 2328 
Q 3016 3291 2770 3770 
Q 2525 4250 2034 4250 
z
M 2034 4750 
Q 2819 4750 3233 4129 
Q 3647 3509 3647 2328 
Q 3647 1150 3233 529 
Q 2819 -91 2034 -91 
Q 1250 -91 836 529 
Q 422 1150 422 2328 
Q 422 3509 836 4129 
Q 1250 4750 2034 4750 
z
" transform="scale(0.015625)"/>
        <path id="DejaVuSans-31" d="M 794 531 
L 1825 531 
L 1825 4091 
L 703 3866 
L 703 4441 
L 1819 4666 
L 2450 4666 
L 2450 531 
L 3481 531 
L 3481 0 
L 794 0 
L 794 531 
z
" transform="scale(0.015625)"/>
       </defs>
       <use xlink:href="#DejaVuSans-32"/>
       <use xlink:href="#DejaVuSans-30" x="63.623047"/>
       <use xlink:href="#DejaVuSans-31" x="127.246094"/>
       <use xlink:href="#DejaVuSans-31" x="190.869141"/>
      </g>
     </g>
    </g>
    <g id="xtick_2">
     <g id="line2d_2">
      <g>
       <use xlink:href="#m873eca6a7f" x="216.222116" y="327.558125" style="stroke: #000000; stroke-width: 0.8"/>
      </g>
     </g>
     <g id="text_2">
      <!-- 2012 -->
      <g transform="translate(203.497116 342.156563) scale(0.1 -0.1)">
       <use xlink:href="#DejaVuSans-32"/>
       <use xlink:href="#DejaVuSans-30" x="63.623047"/>
       <use xlink:href="#DejaVuSans-31" x="127.246094"/>
       <use xlink:href="#DejaVuSans-32" x="190.869141"/>
      </g>
     </g>
    </g>
    <g id="xtick_3">
     <g id="line2d_3">
      <g>
       <use xlink:href="#m873eca6a7f" x="311.529865" y="327.558125" style="stroke: #000000; stroke-width: 0.8"/>
      </g>
     </g>
     <g id="text_3">
      <!-- 2013 -->
      <g transform="translate(298.804865 342.156563) scale(0.1 -0.1)">
       <defs>
        <path id="DejaVuSans-33" d="M 2597 2516 
Q 3050 2419 3304 2112 
Q 3559 1806 3559 1356 
Q 3559 666 3084 287 
Q 2609 -91 1734 -91 
Q 1441 -91 1130 -33 
Q 819 25 488 141 
L 488 750 
Q 750 597 1062 519 
Q 1375 441 1716 441 
Q 2309 441 2620 675 
Q 2931 909 2931 1356 
Q 2931 1769 2642 2001 
Q 2353 2234 1838 2234 
L 1294 2234 
L 1294 2753 
L 1863 2753 
Q 2328 2753 2575 2939 
Q 2822 3125 2822 3475 
Q 2822 3834 2567 4026 
Q 2313 4219 1838 4219 
Q 1578 4219 1281 4162 
Q 984 4106 628 3988 
L 628 4550 
Q 988 4650 1302 4700 
Q 1616 4750 1894 4750 
Q 2613 4750 3031 4423 
Q 3450 4097 3450 3541 
Q 3450 3153 3228 2886 
Q 3006 2619 2597 2516 
z
" transform="scale(0.015625)"/>
       </defs>
       <use xlink:href="#DejaVuSans-32"/>
       <use xlink:href="#DejaVuSans-30" x="63.623047"/>
       <use xlink:href="#DejaVuSans-31" x="127.246094"/>
       <use xlink:href="#DejaVuSans-33" x="190.869141"/>
      </g>
     </g>
    </g>
    <g id="xtick_4">
     <g id="line2d_4">
      <g>
       <use xlink:href="#m873eca6a7f" x="406.577211" y="327.558125" style="stroke: #000000; stroke-width: 0.8"/>
      </g>
     </g>
     <g id="text_4">
      <!-- 2014 -->
      <g transform="translate(393.852211 342.156563) scale(0.1 -0.1)">
       <defs>
        <path id="DejaVuSans-34" d="M 2419 4116 
L 825 1625 
L 2419 1625 
L 2419 4116 
z
M 2253 4666 
L 3047 4666 
L 3047 1625 
L 3713 1625 
L 3713 1100 
L 3047 1100 
L 3047 0 
L 2419 0 
L 2419 1100 
L 313 1100 
L 313 1709 
L 2253 4666 
z
" transform="scale(0.015625)"/>
       </defs>
       <use xlink:href="#DejaVuSans-32"/>
       <use xlink:href="#DejaVuSans-30" x="63.623047"/>
       <use xlink:href="#DejaVuSans-31" x="127.246094"/>
       <use xlink:href="#DejaVuSans-34" x="190.869141"/>
      </g>
     </g>
    </g>
    <g id="xtick_5">
     <g id="line2d_5">
      <g>
       <use xlink:href="#m873eca6a7f" x="501.624557" y="327.558125" style="stroke: #000000; stroke-width: 0.8"/>
      </g>
     </g>
     <g id="text_5">
      <!-- 2015 -->
      <g transform="translate(488.899557 342.156563) scale(0.1 -0.1)">
       <defs>
        <path id="DejaVuSans-35" d="M 691 4666 
L 3169 4666 
L 3169 4134 
L 1269 4134 
L 1269 2991 
Q 1406 3038 1543 3061 
Q 1681 3084 1819 3084 
Q 2600 3084 3056 2656 
Q 3513 2228 3513 1497 
Q 3513 744 3044 326 
Q 2575 -91 1722 -91 
Q 1428 -91 1123 -41 
Q 819 9 494 109 
L 494 744 
Q 775 591 1075 516 
Q 1375 441 1709 441 
Q 2250 441 2565 725 
Q 2881 1009 2881 1497 
Q 2881 1984 2565 2268 
Q 2250 2553 1709 2553 
Q 1456 2553 1204 2497 
Q 953 2441 691 2322 
L 691 4666 
z
" transform="scale(0.015625)"/>
       </defs>
       <use xlink:href="#DejaVuSans-32"/>
       <use xlink:href="#DejaVuSans-30" x="63.623047"/>
       <use xlink:href="#DejaVuSans-31" x="127.246094"/>
       <use xlink:href="#DejaVuSans-35" x="190.869141"/>
      </g>
     </g>
    </g>
    <g id="xtick_6">
     <g id="line2d_6">
      <g>
       <use xlink:href="#m873eca6a7f" x="596.671903" y="327.558125" style="stroke: #000000; stroke-width: 0.8"/>
      </g>
     </g>
     <g id="text_6">
      <!-- 2016 -->
      <g transform="translate(583.946903 342.156563) scale(0.1 -0.1)">
       <defs>
        <path id="DejaVuSans-36" d="M 2113 2584 
Q 1688 2584 1439 2293 
Q 1191 2003 1191 1497 
Q 1191 994 1439 701 
Q 1688 409 2113 409 
Q 2538 409 2786 701 
Q 3034 994 3034 1497 
Q 3034 2003 2786 2293 
Q 2538 2584 2113 2584 
z
M 3366 4563 
L 3366 3988 
Q 3128 4100 2886 4159 
Q 2644 4219 2406 4219 
Q 1781 4219 1451 3797 
Q 1122 3375 1075 2522 
Q 1259 2794 1537 2939 
Q 1816 3084 2150 3084 
Q 2853 3084 3261 2657 
Q 3669 2231 3669 1497 
Q 3669 778 3244 343 
Q 2819 -91 2113 -91 
Q 1303 -91 875 529 
Q 447 1150 447 2328 
Q 447 3434 972 4092 
Q 1497 4750 2381 4750 
Q 2619 4750 2861 4703 
Q 3103 4656 3366 4563 
z
" transform="scale(0.015625)"/>
       </defs>
       <use xlink:href="#DejaVuSans-32"/>
       <use xlink:href="#DejaVuSans-30" x="63.623047"/>
       <use xlink:href="#DejaVuSans-31" x="127.246094"/>
       <use xlink:href="#DejaVuSans-36" x="190.869141"/>
      </g>
     </g>
    </g>
    <g id="xtick_7">
     <g id="line2d_7">
      <g>
       <use xlink:href="#m873eca6a7f" x="691.979653" y="327.558125" style="stroke: #000000; stroke-width: 0.8"/>
      </g>
     </g>
     <g id="text_7">
      <!-- 2017 -->
      <g transform="translate(679.254653 342.156563) scale(0.1 -0.1)">
       <defs>
        <path id="DejaVuSans-37" d="M 525 4666 
L 3525 4666 
L 3525 4397 
L 1831 0 
L 1172 0 
L 2766 4134 
L 525 4134 
L 525 4666 
z
" transform="scale(0.015625)"/>
       </defs>
       <use xlink:href="#DejaVuSans-32"/>
       <use xlink:href="#DejaVuSans-30" x="63.623047"/>
       <use xlink:href="#DejaVuSans-31" x="127.246094"/>
       <use xlink:href="#DejaVuSans-37" x="190.869141"/>
      </g>
     </g>
    </g>
   </g>
   <g id="matplotlib.axis_2">
    <g id="ytick_1">
     <g id="line2d_8">
      <defs>
       <path id="mec2b0a47e8" d="M 0 0 
L -3.5 0 
" style="stroke: #000000; stroke-width: 0.8"/>
      </defs>
      <g>
       <use xlink:href="#mec2b0a47e8" x="46.0125" y="313.661612" style="stroke: #000000; stroke-width: 0.8"/>
      </g>
     </g>
     <g id="text_8">
      <!-- 0 -->
      <g transform="translate(32.65 317.460831) scale(0.1 -0.1)">
       <use xlink:href="#DejaVuSans-30"/>
      </g>
     </g>
    </g>
    <g id="ytick_2">
     <g id="line2d_9">
      <g>
       <use xlink:href="#mec2b0a47e8" x="46.0125" y="272.056532" style="stroke: #000000; stroke-width: 0.8"/>
      </g>
     </g>
     <g id="text_9">
      <!-- 2500 -->
      <g transform="translate(13.5625 275.85575) scale(0.1 -0.1)">
       <use xlink:href="#DejaVuSans-32"/>
       <use xlink:href="#DejaVuSans-35" x="63.623047"/>
       <use xlink:href="#DejaVuSans-30" x="127.246094"/>
       <use xlink:href="#DejaVuSans-30" x="190.869141"/>
      </g>
     </g>
    </g>
    <g id="ytick_3">
     <g id="line2d_10">
      <g>
       <use xlink:href="#mec2b0a47e8" x="46.0125" y="230.451451" style="stroke: #000000; stroke-width: 0.8"/>
      </g>
     </g>
     <g id="text_10">
      <!-- 5000 -->
      <g transform="translate(13.5625 234.25067) scale(0.1 -0.1)">
       <use xlink:href="#DejaVuSans-35"/>
       <use xlink:href="#DejaVuSans-30" x="63.623047"/>
       <use xlink:href="#DejaVuSans-30" x="127.246094"/>
       <use xlink:href="#DejaVuSans-30" x="190.869141"/>
      </g>
     </g>
    </g>
    <g id="ytick_4">
     <g id="line2d_11">
      <g>
       <use xlink:href="#mec2b0a47e8" x="46.0125" y="188.846371" style="stroke: #000000; stroke-width: 0.8"/>
      </g>
     </g>
     <g id="text_11">
      <!-- 7500 -->
      <g transform="translate(13.5625 192.645589) scale(0.1 -0.1)">
       <use xlink:href="#DejaVuSans-37"/>
       <use xlink:href="#DejaVuSans-35" x="63.623047"/>
       <use xlink:href="#DejaVuSans-30" x="127.246094"/>
       <use xlink:href="#DejaVuSans-30" x="190.869141"/>
      </g>
     </g>
    </g>
    <g id="ytick_5">
     <g id="line2d_12">
      <g>
       <use xlink:href="#mec2b0a47e8" x="46.0125" y="147.24129" style="stroke: #000000; stroke-width: 0.8"/>
      </g>
     </g>
     <g id="text_12">
      <!-- 10000 -->
      <g transform="translate(7.2 151.040509) scale(0.1 -0.1)">
       <use xlink:href="#DejaVuSans-31"/>
       <use xlink:href="#DejaVuSans-30" x="63.623047"/>
       <use xlink:href="#DejaVuSans-30" x="127.246094"/>
       <use xlink:href="#DejaVuSans-30" x="190.869141"/>
       <use xlink:href="#DejaVuSans-30" x="254.492188"/>
      </g>
     </g>
    </g>
    <g id="ytick_6">
     <g id="line2d_13">
      <g>
       <use xlink:href="#mec2b0a47e8" x="46.0125" y="105.63621" style="stroke: #000000; stroke-width: 0.8"/>
      </g>
     </g>
     <g id="text_13">
      <!-- 12500 -->
      <g transform="translate(7.2 109.435428) scale(0.1 -0.1)">
       <use xlink:href="#DejaVuSans-31"/>
       <use xlink:href="#DejaVuSans-32" x="63.623047"/>
       <use xlink:href="#DejaVuSans-35" x="127.246094"/>
       <use xlink:href="#DejaVuSans-30" x="190.869141"/>
       <use xlink:href="#DejaVuSans-30" x="254.492188"/>
      </g>
     </g>
    </g>
    <g id="ytick_7">
     <g id="line2d_14">
      <g>
       <use xlink:href="#mec2b0a47e8" x="46.0125" y="64.031129" style="stroke: #000000; stroke-width: 0.8"/>
      </g>
     </g>
     <g id="text_14">
      <!-- 15000 -->
      <g transform="translate(7.2 67.830348) scale(0.1 -0.1)">
       <use xlink:href="#DejaVuSans-31"/>
       <use xlink:href="#DejaVuSans-35" x="63.623047"/>
       <use xlink:href="#DejaVuSans-30" x="127.246094"/>
       <use xlink:href="#DejaVuSans-30" x="190.869141"/>
       <use xlink:href="#DejaVuSans-30" x="254.492188"/>
      </g>
     </g>
    </g>
    <g id="ytick_8">
     <g id="line2d_15">
      <g>
       <use xlink:href="#mec2b0a47e8" x="46.0125" y="22.426049" style="stroke: #000000; stroke-width: 0.8"/>
      </g>
     </g>
     <g id="text_15">
      <!-- 17500 -->
      <g transform="translate(7.2 26.225267) scale(0.1 -0.1)">
       <use xlink:href="#DejaVuSans-31"/>
       <use xlink:href="#DejaVuSans-37" x="63.623047"/>
       <use xlink:href="#DejaVuSans-35" x="127.246094"/>
       <use xlink:href="#DejaVuSans-30" x="190.869141"/>
       <use xlink:href="#DejaVuSans-30" x="254.492188"/>
      </g>
     </g>
    </g>
   </g>
   <g id="line2d_16">
    <path d="M 75.745176 312.42669 
L 76.092381 312.899324 
L 76.103231 312.748713 
L 76.179182 311.92202 
L 76.255133 311.967786 
L 76.69999 309.221851 
L 77.296748 303.771585 
L 77.383549 303.962969 
L 77.42695 304.012895 
L 77.502901 303.97545 
L 77.589702 304.125228 
L 77.730754 305.157034 
L 78.468565 310.956783 
L 78.794069 312.126717 
L 79.314877 312.88809 
L 79.596981 312.972965 
L 79.803134 313.07781 
L 80.128638 313.227172 
L 81.029201 313.4223 
L 81.604259 313.314126 
L 81.68021 312.909309 
L 81.908063 310.149644 
L 81.962314 310.257817 
L 82.645874 312.679649 
L 83.11243 313.185567 
L 83.144981 313.124823 
L 83.231782 313.174333 
L 83.340284 313.18307 
L 83.361984 313.125239 
L 83.437935 312.13171 
L 83.741739 306.625694 
L 83.76344 306.625694 
L 83.79599 306.683941 
L 83.958742 307.582611 
L 84.50125 311.880415 
L 84.826755 312.7017 
L 85.022057 312.763275 
L 85.18481 312.660095 
L 85.315012 312.46247 
L 85.89007 312.155841 
L 85.966021 311.826329 
L 86.117923 310.36183 
L 86.204724 310.253657 
L 86.248125 310.303583 
L 86.920834 312.017712 
L 87.051036 312.114236 
L 87.419941 312.591862 
L 87.582694 312.713349 
L 87.777996 311.18145 
L 88.0167 310.403435 
L 88.092651 310.653065 
L 88.277104 311.073277 
L 88.309654 310.990067 
L 88.374755 309.696149 
L 88.71111 301.940962 
L 89.221067 299.594435 
L 89.307868 299.694287 
L 89.481471 300.476463 
L 90.067379 305.53148 
L 90.479685 308.647701 
L 91.271746 312.037267 
L 91.684052 312.7354 
L 92.703966 313.157691 
L 92.96437 313.094036 
L 94.092786 313.45392 
L 97.098278 313.344082 
L 97.282731 313.118583 
L 97.402083 311.901218 
L 97.705887 309.313382 
L 97.90119 308.839084 
L 97.92289 308.872368 
L 98.085642 309.500605 
L 98.465398 311.352031 
L 98.866854 312.351801 
L 99.192358 312.615161 
L 99.528713 312.716677 
L 100.375025 313.34741 
L 101.047734 313.455168 
L 101.514291 313.500517 
L 111.084127 313.611353 
L 112.418695 313.598039 
L 115.142084 313.500517 
L 116.107748 313.503013 
L 116.444102 313.504262 
L 117.539968 313.519656 
L 118.169277 313.487204 
L 118.690084 313.379862 
L 119.004739 313.294156 
L 119.623197 313.372374 
L 119.764249 313.369461 
L 120.046353 313.406906 
L 120.675662 313.443934 
L 120.903516 313.432285 
L 121.793228 313.427292 
L 123.040996 312.885594 
L 123.35565 312.608504 
L 123.757106 312.710437 
L 124.093461 312.860631 
L 124.364715 312.885594 
L 125.189326 312.992935 
L 125.547381 313.041197 
L 127.033852 312.809873 
L 127.446158 312.909725 
L 127.739112 312.812785 
L 127.934415 312.366779 
L 128.108018 311.456044 
L 128.769877 308.938936 
L 128.845828 309.030467 
L 129.594489 311.218895 
L 130.126146 311.110721 
L 130.234648 310.76956 
L 130.462501 308.963899 
L 131.319663 300.343327 
L 131.449865 300.418216 
L 131.916422 302.639927 
L 132.437229 304.520477 
L 133.782648 309.242653 
L 133.93455 309.488123 
L 134.249205 309.937458 
L 134.357706 310.03731 
L 134.672361 310.490806 
L 134.867663 310.511608 
L 135.084666 310.470003 
L 135.952679 311.314586 
L 136.147982 311.035832 
L 136.397535 310.777881 
L 136.581988 310.673868 
L 136.72304 310.561534 
L 137.081095 310.149644 
L 137.330648 309.700309 
L 137.525951 309.521407 
L 137.536801 309.529728 
L 137.894856 309.937458 
L 138.209511 310.237015 
L 138.437364 310.053952 
L 138.491615 310.145483 
L 138.556716 310.307743 
L 138.795419 310.752918 
L 138.84967 310.794523 
L 138.86052 310.682189 
L 139.001572 310.19957 
L 139.641731 304.736823 
L 139.945535 302.556717 
L 139.999786 302.631606 
L 140.129988 303.534436 
L 140.498893 306.409347 
L 140.824398 307.90297 
L 141.377756 309.596296 
L 142.017915 311.006709 
L 143.602037 312.660095 
L 143.916692 312.653438 
L 144.014343 312.332663 
L 144.394098 309.924977 
L 144.806404 300.563833 
L 145.034257 298.704086 
L 145.066808 298.645839 
L 145.142759 298.712407 
L 145.24041 299.06189 
L 145.544215 302.040814 
L 145.858869 304.79507 
L 145.92397 304.861638 
L 145.967371 304.811712 
L 146.065022 304.362377 
L 146.412227 302.282123 
L 146.531579 302.390296 
L 146.705181 302.856273 
L 147.095787 305.548122 
L 147.410441 307.104152 
L 147.735946 308.780837 
L 148.01805 309.962421 
L 149.027114 312.355545 
L 149.949377 313.151451 
L 150.220631 313.18099 
L 150.383383 313.287499 
L 151.034392 313.467233 
L 152.434062 313.518407 
L 153.69268 313.482211 
L 154.647493 313.58872 
L 156.687322 313.641974 
L 172.441745 313.542871 
L 172.571947 313.557516 
L 172.702149 313.457248 
L 173.060204 313.496773 
L 173.765464 313.626497 
L 174.069269 313.511335 
L 174.286272 312.846901 
L 174.481574 312.026033 
L 174.514125 312.067222 
L 174.828779 312.860631 
L 174.980681 313.114422 
L 175.013232 313.166012 
L 175.056633 313.033708 
L 175.186834 312.608504 
L 175.512339 311.768082 
L 175.523189 311.772242 
L 175.675091 312.105915 
L 176.130798 313.027051 
L 176.716706 313.495525 
L 177.324315 313.590467 
L 179.14714 313.627912 
L 179.450945 313.608358 
L 179.591997 313.515495 
L 179.689648 313.136057 
L 179.884951 312.481193 
L 179.906651 312.488682 
L 180.069404 312.855222 
L 180.210456 313.043693 
L 180.253856 313.012906 
L 180.373208 313.031212 
L 180.384058 313.043693 
L 180.969966 313.517159 
L 181.566725 313.608358 
L 183.357 313.620673 
L 189.888793 313.518324 
L 190.008144 313.552107 
L 190.355349 313.502181 
L 190.507251 311.980268 
L 190.604903 311.572538 
L 190.648303 311.713995 
L 191.10401 313.04619 
L 191.494615 313.292492 
L 194.402457 313.626497 
L 195.129417 313.582313 
L 195.161967 313.19472 
L 195.541723 304.412303 
L 195.606824 304.620329 
L 196.605038 311.447723 
L 196.984793 312.366779 
L 197.136695 312.222409 
L 197.49475 311.460204 
L 197.624952 311.493488 
L 198.004708 312.305203 
L 198.579766 312.967972 
L 199.230775 313.284171 
L 200.087937 313.432285 
L 202.008414 313.542081 
L 202.724524 313.555769 
L 205.23091 313.445182 
L 205.838518 313.483459 
L 206.359326 313.490948 
L 207.607094 313.458912 
L 208.160451 313.360724 
L 208.312353 313.330768 
L 208.713809 313.394008 
L 209.256317 313.445182 
L 210.070078 313.427292 
L 222.743058 313.319119 
L 223.155364 313.30747 
L 224.218679 313.418555 
L 224.652685 313.45392 
L 229.177199 313.354483 
L 229.264 312.860631 
L 229.632905 309.317542 
L 229.698006 309.255135 
L 229.741407 309.330024 
L 229.915009 310.207891 
L 230.175413 311.322907 
L 230.609419 312.297714 
L 230.858973 312.469959 
L 231.227878 312.495754 
L 231.36893 312.071799 
L 231.802936 309.70447 
L 231.835487 309.750235 
L 231.965688 310.062273 
L 232.399695 311.18145 
L 232.540747 311.439402 
L 232.562447 311.26466 
L 232.681799 306.034902 
L 233.235156 265.935925 
L 233.256857 265.561479 
L 233.321958 266.476791 
L 233.397909 268.51544 
L 233.972967 286.904886 
L 234.406973 300.543031 
L 234.87353 305.186158 
L 235.394337 307.707426 
L 235.828343 308.822442 
L 236.023646 309.097035 
L 236.631255 310.411756 
L 237.553518 311.634945 
L 238.052625 311.535093 
L 238.226227 311.077437 
L 238.616833 308.918134 
L 238.725334 308.772516 
L 238.747035 308.789158 
L 238.833836 308.843244 
L 239.050839 309.479802 
L 239.419744 310.965104 
L 239.799499 311.67239 
L 240.689212 312.274832 
L 240.732613 312.164162 
L 240.808564 312.197446 
L 242.034631 313.000424 
L 244.291463 313.405658 
L 245.398179 313.30747 
L 245.853885 312.795311 
L 246.016637 312.726663 
L 246.21194 312.833172 
L 246.667647 313.159772 
L 247.079953 313.269193 
L 247.221005 313.334097 
L 247.546509 313.405658 
L 249.510387 313.530431 
L 249.69484 313.508838 
L 249.966093 313.408154 
L 250.237347 313.284171 
L 250.367549 313.24423 
L 250.552002 313.219267 
L 251.333213 313.374038 
L 251.593616 313.382359 
L 251.886571 313.432285 
L 252.808834 313.324112 
L 253.090938 313.314126 
L 253.633445 313.423548 
L 254.327855 313.548613 
L 256.411085 313.450175 
L 256.606387 313.329104 
L 257.5178 313.49386 
L 258.711317 313.292492 
L 258.852369 313.122743 
L 258.92832 312.663423 
L 259.188724 310.008187 
L 259.64443 307.474437 
L 259.872284 307.582611 
L 260.035036 308.219168 
L 260.241189 309.442358 
L 260.610094 311.659908 
L 261.0007 312.732487 
L 261.326204 313.124823 
L 262.129116 313.340338 
L 262.378669 312.01272 
L 262.769275 307.104152 
L 262.877776 306.800435 
L 262.910327 306.825398 
L 263.094779 307.520203 
L 264.092993 312.638044 
L 264.440198 313.096116 
L 264.635501 313.205953 
L 264.657201 313.168093 
L 264.906755 312.774925 
L 264.982706 312.564403 
L 265.395012 309.912495 
L 265.492663 309.421555 
L 265.536064 309.496444 
L 265.709666 310.598979 
L 266.024321 312.080536 
L 266.436627 312.7691 
L 266.70788 312.909725 
L 266.762131 312.795311 
L 266.870633 312.355545 
L 266.935734 312.441668 
L 267.217838 312.749962 
L 267.847147 313.18099 
L 268.324553 313.310798 
L 268.335404 313.28001 
L 268.530706 312.017712 
L 268.660908 312.378012 
L 268.747709 312.473704 
L 268.78026 312.419201 
L 269.127465 311.26466 
L 269.214266 311.385315 
L 270.255881 313.14937 
L 270.971991 313.437277 
L 271.167294 313.355732 
L 271.807453 313.272521 
L 272.566963 313.378614 
L 272.957569 313.452671 
L 273.098621 313.448927 
L 273.500077 313.427292 
L 273.662829 313.285835 
L 273.999184 312.501995 
L 274.682743 307.124955 
L 274.802095 307.645018 
L 275.420554 310.757078 
L 275.680958 311.439402 
L 276.256016 312.308948 
L 276.418768 312.321429 
L 276.429618 312.305203 
L 277.015526 311.680711 
L 277.438682 311.59334 
L 277.449533 311.622464 
L 277.633985 311.863773 
L 277.677386 311.743119 
L 277.720786 311.34787 
L 277.905239 307.674142 
L 277.95949 307.682463 
L 278.067991 307.486919 
L 278.719001 304.87412 
L 278.936004 303.56356 
L 278.957704 303.605165 
L 279.098756 304.204278 
L 279.467661 305.319294 
L 279.489362 305.28601 
L 279.521912 305.194479 
L 279.630414 303.846474 
L 279.793166 298.583432 
L 280.140371 286.61365 
L 280.194621 286.572045 
L 280.216322 286.738465 
L 280.346524 288.569089 
L 280.997533 303.101743 
L 281.225386 304.670255 
L 281.366438 305.211121 
L 281.388138 305.181997 
L 281.843845 302.731458 
L 281.887245 302.806347 
L 282.017447 303.347213 
L 282.364652 305.157034 
L 282.494854 305.190318 
L 282.635906 305.664616 
L 283.579869 310.128841 
L 284.035576 311.168968 
L 284.469582 311.456044 
L 284.512983 311.397796 
L 284.729986 310.998388 
L 285.587148 307.482758 
L 285.652249 307.520203 
L 286.021154 308.822442 
L 286.628763 311.106561 
L 287.648677 312.470375 
L 287.85483 312.425442 
L 287.995882 312.017712 
L 288.375637 311.202253 
L 288.636041 311.310426 
L 289.124298 311.551735 
L 289.308751 311.651587 
L 289.634255 311.867934 
L 289.775307 311.967786 
L 290.241864 312.337655 
L 291.37028 312.984614 
L 292.531246 313.096116 
L 292.997803 313.204289 
L 293.345008 313.277514 
L 293.713913 313.332433 
L 294.636176 313.439358 
L 294.961681 313.469729 
L 297.587418 313.578444 
L 297.978023 313.585974 
L 298.46628 313.587597 
L 299.008788 313.595585 
L 300.690562 313.58431 
L 301.211369 313.588429 
L 302.621889 313.580191 
L 303.663504 313.525896 
L 304.10836 313.514247 
L 304.726819 313.508006 
L 307.146403 313.399417 
L 307.905914 312.992935 
L 308.090367 313.012906 
L 308.882428 312.903068 
L 309.251333 312.783246 
L 310.010844 312.500331 
L 310.119345 312.422114 
L 310.238697 312.286897 
L 310.640153 311.2605 
L 310.868006 310.68635 
L 311.226061 310.790362 
L 311.508165 310.952622 
L 311.703468 310.85277 
L 311.920471 310.711313 
L 312.734232 311.202253 
L 313.124838 311.310426 
L 313.526294 311.576698 
L 313.721596 311.75144 
L 313.873498 311.859613 
L 315.967578 312.550257 
L 316.152031 312.562323 
L 316.347333 312.503659 
L 316.510086 312.467047 
L 317.052593 312.733736 
L 317.074294 312.692963 
L 317.117694 312.665087 
L 317.171945 312.724998 
L 317.4866 312.903068 
L 317.812104 312.992935 
L 318.593315 313.100276 
L 318.973071 313.128984 
L 320.047236 313.017898 
L 320.524643 312.81653 
L 320.860997 312.925951 
L 321.533707 313.00292 
L 321.804961 312.60684 
L 321.956863 312.152097 
L 322.694673 309.883371 
L 322.792325 309.612938 
L 322.900826 308.789158 
L 323.215481 304.212599 
L 323.378233 296.76529 
L 323.812239 271.802241 
L 324.029242 266.809632 
L 324.126894 266.351976 
L 324.148594 266.518396 
L 324.408998 269.305936 
L 324.6043 273.882495 
L 325.418062 298.970359 
L 325.439762 298.962038 
L 325.450612 298.97868 
L 325.483163 298.882988 
L 325.504863 298.878828 
L 325.569964 298.483579 
L 325.743567 292.604782 
L 325.96057 283.90932 
L 326.069071 272.509528 
L 326.253524 232.40223 
L 326.882833 36.19267 
L 326.893683 36.608721 
L 327.208337 100.264494 
L 327.512142 191.2132 
L 328.022099 260.319239 
L 328.271652 271.927057 
L 329.313267 297.027402 
L 329.714723 301.083897 
L 330.289781 303.23904 
L 330.702087 303.688375 
L 331.125243 304.63281 
L 331.309695 305.003096 
L 331.6135 305.564764 
L 331.743702 305.489875 
L 331.787102 305.477393 
L 331.819653 305.427467 
L 332.036656 305.194479 
L 332.166858 305.086306 
L 332.253659 304.940688 
L 332.37301 304.636971 
L 332.807017 302.756421 
L 332.926368 300.672007 
L 333.05657 291.106999 
L 333.316974 274.173731 
L 333.675029 265.020613 
L 333.707579 265.187034 
L 334.098185 270.88693 
L 334.846845 287.362541 
L 335.345953 297.867824 
L 335.790809 302.806347 
L 335.953561 303.172472 
L 335.964411 303.164151 
L 336.235665 303.064299 
L 336.637121 301.258638 
L 336.702222 301.400096 
L 336.810723 302.057456 
L 337.233879 304.22092 
L 337.711286 305.335936 
L 338.210393 306.284532 
L 338.590148 307.586771 
L 338.655249 306.879485 
L 339.197757 297.081488 
L 339.41476 295.558742 
L 339.566662 295.392322 
L 339.577512 295.392322 
L 339.729415 295.891583 
L 339.827066 295.808373 
L 339.978968 294.851456 
L 340.250222 292.896017 
L 340.402124 292.979227 
L 340.81443 294.976271 
L 340.977182 297.019081 
L 341.378638 301.217033 
L 342.083898 305.585567 
L 342.420253 307.607574 
L 342.626406 307.957056 
L 342.745757 308.065229 
L 343.223164 309.105356 
L 343.277415 309.038788 
L 343.331666 308.843244 
L 343.874173 305.086306 
L 344.622834 271.344585 
L 344.720485 272.010267 
L 344.731335 272.010267 
L 344.937488 274.589782 
L 345.252143 281.038569 
L 346.272057 305.585567 
L 346.586712 308.140119 
L 347.074969 310.320225 
L 347.498125 311.268821 
L 347.704278 311.555896 
L 347.715128 311.414438 
L 347.758528 311.235537 
L 347.823629 311.34371 
L 348.018932 311.643266 
L 348.57229 312.149184 
L 348.58314 312.13171 
L 348.735042 312.089273 
L 349.136498 312.00107 
L 349.689856 310.619781 
L 349.700706 310.623942 
L 349.809207 310.694671 
L 349.98281 310.956783 
L 350.796571 312.278992 
L 351.642883 312.913053 
L 352.09859 312.923455 
L 352.413244 311.818008 
L 352.500045 309.762717 
L 352.977452 291.77268 
L 353.161905 290.898973 
L 353.292107 290.732553 
L 353.313807 290.774158 
L 353.54166 291.731075 
L 353.617611 291.647865 
L 353.693562 290.399712 
L 353.964816 284.07574 
L 353.975666 284.117345 
L 354.170969 287.612172 
L 354.897929 306.667299 
L 355.299385 310.008187 
L 355.787642 311.734798 
L 356.416951 312.51198 
L 356.677355 312.403807 
L 356.709905 312.317685 
L 356.872657 311.385315 
L 356.926908 311.460204 
L 357.122211 311.730637 
L 357.143911 311.697353 
L 357.263263 311.759761 
L 357.284963 311.651587 
L 357.75152 306.109791 
L 358.055324 300.834266 
L 358.847385 282.286722 
L 358.869086 282.411537 
L 358.901636 282.494747 
L 359.118639 284.991052 
L 359.335642 286.239204 
L 359.411593 285.074262 
L 359.520095 278.001398 
L 360.051752 231.070868 
L 360.084303 231.320498 
L 360.192804 227.201595 
L 360.442358 210.101907 
L 360.507459 210.601168 
L 360.746162 221.210463 
L 360.984866 235.897057 
L 361.375471 255.285024 
L 361.614175 261.400971 
L 361.798627 259.071087 
L 361.874578 258.3638 
L 361.950529 258.072565 
L 361.98308 258.11417 
L 362.460487 265.270244 
L 362.503887 265.81111 
L 362.73174 267.350498 
L 362.742591 267.308893 
L 362.764291 267.516918 
L 362.818542 267.267288 
L 362.840242 267.267288 
L 362.883643 267.267288 
L 362.927043 266.976052 
L 362.970444 267.308893 
L 363.274248 272.010267 
L 364.554566 298.97868 
L 364.630517 299.240792 
L 364.663068 298.953717 
L 364.79327 298.387888 
L 364.858371 298.554308 
L 365.042823 299.153421 
L 365.075374 299.128458 
L 365.162175 298.945396 
L 365.324927 298.595913 
L 365.346627 298.670802 
L 365.487679 299.644361 
L 366.312291 307.399548 
L 366.344842 307.16656 
L 366.540144 305.523159 
L 366.561845 305.535641 
L 366.887349 306.109791 
L 367.082652 304.79507 
L 367.310505 302.714816 
L 367.560059 299.977202 
L 367.744511 298.870507 
L 367.787912 298.970359 
L 367.874713 299.398891 
L 368.221918 303.068459 
L 368.612524 306.642336 
L 369.05738 308.739232 
L 369.122481 308.830763 
L 369.285233 309.459 
L 369.545637 310.203731 
L 369.968793 310.653065 
L 370.294297 311.659908 
L 370.554701 312.278992 
L 370.782554 312.47204 
L 370.858505 312.495338 
L 370.869356 312.444164 
L 371.118909 306.966855 
L 371.238261 299.661003 
L 371.628866 269.721987 
L 371.672267 267.974574 
L 371.726518 265.187034 
L 372.062873 245.549436 
L 372.312426 242.262634 
L 372.323276 242.47066 
L 372.399227 242.096214 
L 372.410077 242.221029 
L 372.60538 238.934228 
L 372.61623 238.601387 
L 372.681331 239.391884 
L 375.155166 302.972768 
L 376.424634 308.739232 
L 376.880341 310.049792 
L 377.401148 311.048314 
L 377.683252 311.435241 
L 378.800818 312.432099 
L 379.223974 312.678401 
L 379.321625 312.571892 
L 379.451827 312.458726 
L 379.484378 312.482025 
L 380.026885 312.836916 
L 380.710445 312.925951 
L 380.981699 312.347224 
L 381.0468 312.435427 
L 381.307203 312.637212 
L 383.791889 313.189311 
L 385.191558 313.082802 
L 385.473662 313.069489 
L 386.102971 313.304141 
L 387.871546 313.463905 
L 391.159143 313.371957 
L 391.365296 313.040781 
L 391.386996 313.049102 
L 393.274923 313.304141 
L 393.546177 313.230916 
L 393.79573 313.24631 
L 394.229736 312.954659 
L 394.945847 312.849814 
L 395.16285 312.828179 
L 396.888024 312.936768 
L 397.32203 313.360724 
L 397.430532 313.282507 
L 397.549883 312.768268 
L 398.168342 305.385862 
L 398.233443 305.419146 
L 398.244293 305.444109 
L 398.374495 305.968333 
L 399.036355 310.220373 
L 399.220807 310.432559 
L 399.535462 310.436719 
L 399.709064 310.544892 
L 400.13222 311.368673 
L 400.349223 311.634945 
L 400.403474 311.585019 
L 400.522826 311.518451 
L 400.674728 311.472686 
L 400.81578 311.451883 
L 401.108734 311.235537 
L 401.260636 310.341027 
L 401.705492 307.441153 
L 401.738043 307.486919 
L 402.030997 308.88485 
L 402.117798 309.3009 
L 402.182899 309.159443 
L 402.25885 308.39391 
L 402.660306 304.453908 
L 402.98581 305.144553 
L 403.495768 308.223329 
L 403.745321 309.063751 
L 404.016575 309.687828 
L 404.38548 310.053952 
L 404.559083 309.9541 
L 404.862887 309.37579 
L 405.025639 309.421555 
L 405.850251 310.253657 
L 405.871951 310.228694 
L 405.915352 310.020668 
L 405.991303 309.117838 
L 406.522961 300.867551 
L 406.642312 300.343327 
L 406.696563 300.36829 
L 406.935266 301.150465 
L 407.000367 300.975724 
L 407.17397 299.028606 
L 407.846679 292.563176 
L 407.87923 292.604782 
L 408.128783 294.22738 
L 408.139633 294.22738 
L 408.62789 300.035449 
L 409.018496 303.139188 
L 409.387401 304.312451 
L 409.409101 304.245883 
L 409.561004 303.630128 
L 409.788857 302.83131 
L 409.897358 302.490149 
L 410.830472 297.772133 
L 410.873872 297.817898 
L 411.090875 298.575111 
L 412.262692 306.326137 
L 412.913701 308.181724 
L 413.651512 309.608778 
L 413.977016 309.746075 
L 414.194019 308.72259 
L 414.454423 307.90713 
L 414.693126 307.74071 
L 414.834178 307.640858 
L 415.398386 306.833719 
L 415.561139 306.733867 
L 415.908343 306.891966 
L 416.157897 306.575768 
L 416.320649 306.475915 
L 416.461701 306.392705 
L 416.602753 306.500878 
L 417.08016 307.324659 
L 417.611818 307.940414 
L 417.698619 308.019464 
L 417.742019 307.940414 
L 417.861371 307.33298 
L 418.121775 304.470551 
L 418.534081 299.893992 
L 419.293591 295.142691 
L 419.315292 295.225902 
L 419.358692 295.225902 
L 419.564845 296.723685 
L 419.662497 297.50586 
L 420.215854 301.616442 
L 420.291806 301.554034 
L 420.497958 301.150465 
L 421.062166 301.250317 
L 421.27917 301.483306 
L 421.32257 301.483306 
L 421.365971 301.416738 
L 421.452772 301.217033 
L 421.789127 300.310042 
L 421.843378 300.359969 
L 422.233983 301.529071 
L 423.264748 306.118112 
L 423.384099 306.43015 
L 423.4275 306.276211 
L 423.503451 305.660456 
L 424.219561 296.8485 
L 424.382313 296.224424 
L 424.414864 296.141213 
L 424.534216 296.058003 
L 424.686118 296.557264 
L 425.380528 298.787297 
L 425.467329 298.970359 
L 425.738583 300.12698 
L 426.096638 302.307086 
L 426.140038 302.124024 
L 426.215989 299.860708 
L 426.704246 270.720509 
L 427.051451 252.996745 
L 427.192503 252.247853 
L 427.214204 252.455879 
L 427.235904 252.414274 
L 427.366106 254.452923 
L 427.463757 256.741202 
L 428.483672 284.658211 
L 429.199782 300.900835 
L 429.492736 302.315407 
L 429.677188 302.398618 
L 429.970143 301.749578 
L 430.176296 301.258638 
L 430.197996 301.266959 
L 430.447549 301.325206 
L 430.545201 301.217033 
L 430.675403 301.158786 
L 430.686253 301.183749 
L 430.805604 301.51659 
L 431.651916 306.609052 
L 431.782118 306.804596 
L 431.792968 306.721385 
L 431.847219 305.186158 
L 432.031672 289.692426 
L 432.671831 232.40223 
L 432.802033 230.530001 
L 432.834583 230.946052 
L 433.214339 249.585128 
L 433.659195 272.925578 
L 433.952149 279.415971 
L 434.071501 280.081652 
L 434.104051 279.915232 
L 434.679109 272.176687 
L 434.787611 265.311849 
L 435.026314 224.497265 
L 435.297568 183.474655 
L 435.557972 166.458177 
L 435.590522 166.707808 
L 435.840076 189.965048 
L 436.599587 267.891364 
L 437.641201 296.598869 
L 437.934155 299.477941 
L 438.010106 299.769176 
L 438.053507 299.565312 
L 438.28136 298.329641 
L 438.29221 298.354604 
L 438.444113 298.608395 
L 438.628565 298.770654 
L 438.95407 298.013442 
L 439.030021 298.121615 
L 439.171073 298.704086 
L 439.64848 302.082419 
L 440.38629 307.886328 
L 440.711795 309.205209 
L 440.733495 309.13448 
L 440.841997 308.439675 
L 440.885397 308.63938 
L 441.210902 309.970742 
L 441.493006 310.449201 
L 441.514706 310.407596 
L 441.634058 308.826602 
L 442.057214 297.443452 
L 442.393569 293.062437 
L 442.415269 292.979227 
L 442.49122 292.896017 
L 442.50207 292.979227 
L 442.773324 295.891583 
L 443.109679 299.444657 
L 443.348382 301.283601 
L 444.270645 310.045631 
L 444.335746 310.270299 
L 444.346596 310.03731 
L 444.368297 309.816803 
L 444.455098 310.012347 
L 444.813153 310.890214 
L 444.910804 310.736276 
L 445.084407 310.12052 
L 445.149508 310.257817 
L 445.529263 311.073277 
L 445.757116 311.285463 
L 445.909018 311.381154 
L 446.180272 311.668229 
L 447.178486 312.650109 
L 447.384639 312.75121 
L 447.40634 312.7017 
L 447.623343 312.347224 
L 448.089899 312.249036 
L 448.285202 312.162914 
L 448.404554 312.132542 
L 448.697508 312.234891 
L 449.109814 312.590198 
L 449.391918 312.771596 
L 449.57637 312.881434 
L 450.22738 313.11359 
L 450.346731 312.949666 
L 450.455233 312.905565 
L 450.487783 312.931776 
L 450.932639 313.214274 
L 451.583649 313.105269 
L 451.724701 313.084466 
L 452.310609 312.609336 
L 452.581863 311.826329 
L 452.657814 311.897057 
L 453.211172 312.895579 
L 453.721129 313.220515 
L 455.598206 313.468897 
L 457.204028 313.367381 
L 457.475282 313.197632 
L 457.703135 313.304141 
L 458.180542 313.438942 
L 462.564004 313.337425 
L 462.759307 313.262536 
L 464.36513 313.438526 
L 464.495332 313.101108 
L 464.538732 313.136889 
L 464.896787 313.334097 
L 465.146341 313.305805 
L 466.936616 313.537629 
L 471.960237 313.432701 
L 472.296592 313.35906 
L 472.578696 313.47389 
L 474.010916 313.476386 
L 474.466623 313.386935 
L 475.019981 313.463905 
L 477.331063 313.382359 
L 477.461265 312.593526 
L 477.938672 307.640858 
L 477.949522 307.6575 
L 478.036323 307.973698 
L 478.318427 309.941619 
L 478.459479 310.328546 
L 478.48118 310.286941 
L 478.589681 310.12052 
L 478.643932 310.261978 
L 478.817534 310.827807 
L 479.696397 312.871448 
L 480.249755 313.235077 
L 481.269669 313.508838 
L 481.725376 313.482211 
L 482.213633 313.533635 
L 486.217339 313.644221 
L 487.389156 313.649463 
L 489.244532 313.539501 
L 489.515786 313.330768 
L 489.895541 313.224676 
L 490.253596 313.302477 
L 490.687603 313.320783 
L 491.631566 313.214274 
L 491.740067 312.928863 
L 491.94622 311.67239 
L 492.141523 307.482758 
L 492.59723 296.973315 
L 492.738282 296.723685 
L 492.770832 296.76529 
L 493.758196 306.887806 
L 494.0186 307.749031 
L 494.387505 308.868208 
L 494.637058 310.12052 
L 494.940863 310.93598 
L 495.125315 311.069116 
L 495.374869 311.173129 
L 496.329682 312.104251 
L 496.709438 312.307283 
L 498.922869 312.876441 
L 499.063921 312.692963 
L 499.313475 311.863773 
L 499.519628 310.727955 
L 499.617279 304.924046 
L 499.997034 261.359366 
L 500.344239 203.916618 
L 500.539542 194.957658 
L 500.789096 208.354494 
L 501.548606 268.099389 
L 502.275567 282.286722 
L 502.709573 286.488835 
L 502.742123 286.44723 
L 502.752973 286.488835 
L 502.763824 286.405625 
L 502.796374 286.405625 
L 503.056778 284.07574 
L 503.078478 284.07574 
L 503.295481 282.744377 
L 503.306331 282.744377 
L 503.479934 281.912276 
L 503.501634 281.870671 
L 503.642686 281.413015 
L 503.707787 281.37141 
L 503.837989 281.080174 
L 503.89224 281.163384 
L 504.304545 285.157472 
L 504.6192 290.399712 
L 504.706001 289.692426 
L 504.879603 287.570567 
L 504.933854 287.903407 
L 505.36786 290.399712 
L 505.465512 290.399712 
L 505.476362 290.524528 
L 505.574013 290.399712 
L 505.639114 290.358107 
L 505.671665 290.233292 
L 505.747616 290.358107 
L 505.812717 290.399712 
L 506.008019 291.398234 
L 506.04057 291.439839 
L 506.257573 292.687992 
L 506.474576 293.936144 
L 506.702429 295.392322 
L 506.713279 295.392322 
L 506.908582 296.723685 
L 506.919432 296.723685 
L 507.114735 298.063368 
L 507.48364 299.852387 
L 507.548741 299.361447 
L 507.678943 292.812807 
L 507.950197 282.702772 
L 508.796509 263.481225 
L 508.87246 263.938881 
L 509.273916 271.802241 
L 509.523469 277.294112 
L 510.348081 293.728119 
L 510.543384 295.059481 
L 510.575934 295.142691 
L 510.814638 296.224424 
L 510.923139 295.392322 
L 511.161842 293.395278 
L 511.172693 293.395278 
L 511.400546 291.60626 
L 511.780301 288.485879 
L 511.867102 287.736987 
L 512.170907 285.490313 
L 512.290258 285.407103 
L 512.333659 285.448708 
L 512.550662 286.280809 
L 512.561512 286.280809 
L 512.745965 287.196121 
L 512.984668 288.444274 
L 513.494626 294.56022 
L 513.906931 298.030084 
L 514.026283 298.421172 
L 514.058833 298.362925 
L 514.123934 298.204825 
L 514.633892 296.058003 
L 514.666442 296.016398 
L 514.785794 295.849978 
L 514.905145 295.891583 
L 514.981097 295.974793 
L 515.284901 296.723685 
L 515.295751 296.723685 
L 515.447653 297.368563 
L 515.751457 298.970359 
L 516.001011 299.844066 
L 516.142063 299.935597 
L 516.163763 299.902313 
L 516.228864 299.581954 
L 516.326516 295.142691 
L 516.684571 279.832022 
L 516.999225 267.059262 
L 517.33558 250.292415 
L 517.389831 249.501918 
L 517.454932 250.084389 
L 517.628534 254.411318 
L 517.932338 264.854193 
L 518.214442 270.845324 
L 519.47306 288.444274 
L 520.113219 294.56022 
L 520.275972 295.600347 
L 520.547225 296.890105 
L 520.579776 296.973315 
L 520.764228 297.609873 
L 521.306736 298.874667 
L 521.762443 301.167107 
L 521.805843 301.300243 
L 522.055397 302.148987 
L 522.337501 302.798026 
L 522.413452 302.889557 
L 522.728106 303.455387 
L 522.749807 303.397139 
L 522.814907 303.32225 
L 523.238063 301.27528 
L 523.509317 299.219989 
L 523.780571 296.890105 
L 524.138626 293.603303 
L 524.160327 293.686514 
L 524.344779 294.809851 
L 524.659434 298.034245 
L 525.006639 301.391775 
L 526.156755 307.782315 
L 526.449709 308.72259 
L 526.916266 310.087236 
L 527.317721 310.898535 
L 527.491324 311.231376 
L 528.142333 312.135455 
L 528.174883 312.082616 
L 528.229134 311.926181 
L 528.326786 310.257817 
L 528.511238 303.913042 
L 528.739091 298.720728 
L 528.966945 293.728119 
L 529.390101 284.117345 
L 529.509452 283.285244 
L 529.748156 281.745856 
L 529.791556 281.829066 
L 529.932608 282.286722 
L 530.095361 281.413015 
L 530.106211 281.413015 
L 530.171312 281.20499 
L 530.225562 281.246595 
L 530.420865 282.411537 
L 530.572767 284.408581 
L 531.006774 288.236248 
L 531.039324 288.277853 
L 531.332278 291.356629 
L 532.124339 301.866072 
L 532.265391 302.332049 
L 532.308792 302.265481 
L 532.438994 301.707973 
L 532.666847 301.079736 
L 532.86215 299.893992 
L 533.231055 297.896948 
L 533.448058 297.489218 
L 533.469758 297.514181 
L 533.838664 297.58907 
L 534.27267 300.501426 
L 534.652425 305.394183 
L 534.945379 308.323181 
L 535.498737 311.060795 
L 536.4427 312.637212 
L 537.10456 313.07781 
L 538.938236 313.524648 
L 539.806248 313.490532 
L 540.023251 313.386935 
L 540.131753 313.268777 
L 540.337906 311.34371 
L 540.403007 311.576698 
L 540.587459 312.628475 
L 540.65256 312.571892 
L 540.891263 312.609336 
L 541.661624 313.329104 
L 541.694175 313.334097 
L 541.715875 313.243398 
L 541.856927 311.609982 
L 542.008829 310.944301 
L 542.128181 310.016508 
L 542.486236 303.979611 
L 542.583887 304.162673 
L 542.659839 304.478872 
L 543.538701 310.861091 
L 543.571251 310.27862 
L 543.701453 307.640858 
L 543.766554 308.040266 
L 544.17886 310.736276 
L 544.319912 310.752918 
L 544.428414 310.644744 
L 544.547765 310.370151 
L 544.602016 310.457522 
L 544.786469 311.2605 
L 545.090273 312.220745 
L 545.57853 313.079474 
L 546.066787 313.34741 
L 546.674395 313.505926 
L 546.815447 313.519656 
L 547.043301 313.475554 
L 547.282004 313.195552 
L 547.347105 313.105269 
L 547.520707 312.640124 
L 547.542408 312.659262 
L 547.650909 312.762859 
L 547.68346 312.665503 
L 547.759411 312.251949 
L 548.074065 310.536571 
L 548.139166 310.628102 
L 548.301918 310.919338 
L 548.367019 310.881893 
L 548.497221 310.61146 
L 548.746775 309.438197 
L 548.790175 309.513086 
L 549.560536 311.776403 
L 549.84264 312.227402 
L 549.983692 312.217833 
L 549.994542 312.166242 
L 550.135594 311.905378 
L 550.244096 311.306265 
L 550.569601 308.897331 
L 550.623851 308.951418 
L 552.066922 312.51198 
L 552.468377 313.03038 
L 553.694445 313.412314 
L 553.835497 313.334097 
L 554.432255 313.402329 
L 554.681809 313.205953 
L 554.887962 312.686722 
L 555.137515 311.784724 
L 555.180916 311.855452 
L 555.560671 312.774509 
L 555.755974 312.898076 
L 555.766824 312.887258 
L 555.907876 312.488682 
L 556.135729 312.135871 
L 556.417833 311.609982 
L 556.580586 310.174607 
L 556.85184 305.144553 
L 556.938641 305.61053 
L 557.253295 307.790636 
L 557.340096 307.932093 
L 557.56795 308.589453 
L 557.633051 308.427194 
L 557.752402 308.110995 
L 557.817503 308.177563 
L 558.001956 308.439675 
L 558.034506 308.402231 
L 558.088757 308.348144 
L 558.338311 306.929411 
L 558.425112 305.972494 
L 558.479363 306.242927 
L 559.043571 309.567173 
L 559.108671 309.696149 
L 559.347375 310.370151 
L 559.72713 311.934502 
L 560.38899 312.968804 
L 560.812146 313.267529 
L 561.452305 313.374038 
L 561.593357 313.265865 
L 561.962262 312.017712 
L 562.081614 312.107579 
L 562.580721 312.918046 
L 562.895375 313.197632 
L 563.177479 313.277514 
L 563.437883 313.385687 
L 564.034641 313.541457 
L 564.6531 313.4897 
L 564.967754 313.465153 
L 565.184758 313.40649 
L 565.423461 312.475368 
L 565.618764 311.135684 
L 565.792366 308.988862 
L 565.835767 309.126159 
L 565.922568 309.762717 
L 565.976819 309.338345 
L 566.09617 309.250974 
L 566.161271 309.13032 
L 566.204672 309.246814 
L 566.73633 311.322907 
L 566.80143 311.285463 
L 567.159486 311.526772 
L 567.691143 312.320597 
L 568.092599 312.00107 
L 568.222801 312.053492 
L 568.472354 312.269007 
L 568.754458 312.37926 
L 569.025712 312.565235 
L 569.036562 312.541936 
L 569.427168 311.401957 
L 569.448868 311.418599 
L 569.796073 311.551735 
L 570.110727 311.647427 
L 571.141492 313.03246 
L 571.781651 313.277514 
L 572.703914 313.170589 
L 572.953468 312.945089 
L 573.007718 309.558852 
L 573.235572 293.228858 
L 573.333223 292.396756 
L 573.365773 292.646387 
L 573.593627 297.734688 
L 574.016783 306.634015 
L 574.363988 309.176085 
L 574.689492 310.736276 
L 575.286251 312.030194 
L 575.633456 312.28232 
L 575.774508 312.245708 
L 575.785358 312.255693 
L 576.034911 312.442084 
L 576.501468 312.839829 
L 576.64252 312.944673 
L 576.870373 312.972965 
L 577.152477 313.081138 
L 578.736599 313.45392 
L 581.883144 313.362388 
L 582.045896 312.844405 
L 582.121847 311.435241 
L 582.349701 308.119316 
L 582.393101 308.07355 
L 582.447352 308.14844 
L 582.620954 309.126159 
L 582.848808 310.424238 
L 582.870508 310.370151 
L 582.957309 309.538049 
L 583.358765 298.932914 
L 583.630019 295.225902 
L 583.69512 295.225902 
L 583.933823 297.189661 
L 584.42208 301.68301 
L 585.387744 308.252452 
L 585.82175 309.754396 
L 586.223205 309.945779 
L 586.375108 309.854248 
L 586.971866 309.758556 
L 587.23227 309.471481 
L 587.492673 309.808482 
L 587.785628 310.311904 
L 588.078582 310.782041 
L 588.870643 311.585019 
L 588.881493 311.572538 
L 588.935744 311.435241 
L 589.000845 311.564217 
L 589.217848 311.75144 
L 589.554203 311.647427 
L 589.695255 311.239697 
L 589.879707 310.224533 
L 590.639218 305.252726 
L 590.736869 305.344257 
L 590.964723 306.384384 
L 591.550631 309.113678 
L 592.071438 310.536571 
L 592.939451 311.135684 
L 592.950301 311.09824 
L 593.243255 307.861365 
L 593.709812 302.565038 
L 593.959365 302.00753 
L 593.991916 302.032493 
L 594.046166 302.124024 
L 594.176368 302.698174 
L 594.816527 305.960012 
L 595.445836 306.559126 
L 595.456686 306.542484 
L 595.803891 306.392705 
L 595.977494 306.475915 
L 596.237897 306.159717 
L 596.42235 305.252726 
L 596.780405 301.732936 
L 597.14931 293.686514 
L 597.420564 289.23477 
L 597.659267 287.570567 
L 597.670118 287.653777 
L 597.735219 287.528962 
L 597.767769 287.570567 
L 597.800319 287.528962 
L 597.82202 287.612172 
L 597.85457 287.612172 
L 598.158375 290.774158 
L 598.603231 298.466937 
L 598.874485 299.860708 
L 598.961286 300.010486 
L 599.015537 299.948078 
L 599.536344 298.629197 
L 599.590595 298.679123 
L 599.905249 299.652682 
L 600.447757 303.139188 
L 600.567109 302.648248 
L 600.827512 299.05773 
L 601.131317 289.526006 
L 601.511072 280.123257 
L 601.804026 277.086087 
L 601.814876 277.169297 
L 601.912528 276.919666 
L 601.934228 277.044481 
L 602.05358 277.751768 
L 602.335684 281.745856 
L 602.628638 283.90932 
L 602.672038 283.82611 
L 602.834791 283.410059 
L 602.856491 283.368454 
L 603.030094 282.869193 
L 603.073494 282.744377 
L 603.127745 282.827588 
L 603.268797 283.077218 
L 603.47495 284.24216 
L 604.342962 295.891583 
L 604.353812 295.891583 
L 604.484014 296.474054 
L 604.505714 296.390844 
L 604.549115 296.307634 
L 604.88547 294.56022 
L 604.89632 294.56022 
L 605.178424 296.557264 
L 605.57988 299.353126 
L 605.61243 299.128458 
L 605.644981 298.56679 
L 605.742632 291.897495 
L 605.948785 261.650602 
L 606.371941 93.468998 
L 606.458742 99.848444 
L 607.402705 259.570348 
L 607.652259 271.05335 
L 608.194767 282.744377 
L 608.715574 291.398234 
L 608.845776 291.065394 
L 608.856626 291.065394 
L 609.985042 275.421883 
L 610.126094 276.29559 
L 610.950706 292.729597 
L 611.178559 294.22738 
L 611.308761 294.060959 
L 611.471513 294.14417 
L 611.612565 294.3938 
L 611.655966 294.47701 
L 611.666816 294.56022 
L 611.721067 294.31059 
L 611.851268 290.607738 
L 612.165923 282.453142 
L 612.252724 282.411537 
L 612.263574 282.453142 
L 612.65418 288.153038 
L 613.196687 298.084171 
L 613.457091 299.136779 
L 613.543892 299.215829 
L 613.587293 299.161742 
L 613.923648 298.138257 
L 614.411905 296.224424 
L 614.552957 296.224424 
L 614.80251 297.838701 
L 615.605422 303.938005 
L 615.670523 303.879758 
L 615.876675 303.363855 
L 615.974327 303.397139 
L 616.408333 304.670255 
L 616.777238 305.6979 
L 616.788088 305.69374 
L 616.89659 305.593888 
L 617.287195 304.037858 
L 617.525899 302.706495 
L 617.818853 301.458343 
L 618.144358 300.310042 
L 618.404761 300.201869 
L 618.545813 300.035449 
L 618.610914 300.018807 
L 618.632614 300.085375 
L 618.708566 300.484784 
L 619.077471 302.681532 
L 619.185972 302.481828 
L 619.261923 302.015851 
L 619.468076 296.474054 
L 620.336089 266.06074 
L 620.357789 266.227161 
L 620.498841 268.140994 
L 620.661593 270.470879 
L 620.694144 269.513962 
L 620.759245 268.182599 
L 620.867746 259.445532 
L 621.019648 232.776676 
L 621.290902 190.79715 
L 621.507905 174.904009 
L 621.616407 180.89514 
L 622.506119 270.88693 
L 622.668872 276.12917 
L 623.634535 299.074372 
L 623.905789 301.100539 
L 623.927489 301.175428 
L 623.94919 301.088057 
L 624.307245 294.102564 
L 624.773801 285.240682 
L 624.969104 277.169297 
L 625.207808 269.763592 
L 625.240358 270.054828 
L 625.468211 275.172253 
L 626.010719 293.478488 
L 626.314523 299.461299 
L 626.596627 301.658047 
L 626.79193 302.598322 
L 627.779294 307.99034 
L 628.104799 309.009665 
L 628.321802 309.471481 
L 628.343502 309.434037 
L 628.484554 308.839084 
L 628.799208 308.056908 
L 628.88601 308.135958 
L 628.994511 308.289897 
L 629.027062 308.244131 
L 629.222364 308.110995 
L 629.233215 308.119316 
L 629.341716 308.065229 
L 629.764872 306.908608 
L 629.808273 306.975176 
L 629.895074 307.116634 
L 630.274829 308.822442 
L 630.491832 309.346666 
L 630.719686 309.3009 
L 630.795637 309.434037 
L 630.947539 309.941619 
L 631.424946 311.493488 
L 632.206157 312.498667 
L 632.401459 312.668416 
L 632.683563 312.777421 
L 632.987368 312.498667 
L 633.085019 311.826329 
L 633.345423 309.034628 
L 633.443074 308.755874 
L 633.551576 308.556169 
L 633.594976 308.63938 
L 633.714328 309.259295 
L 634.007282 310.6073 
L 634.170035 310.628102 
L 634.278536 310.836128 
L 634.799343 312.100506 
L 635.103148 312.428354 
L 635.819258 312.964644 
L 637.012775 313.305805 
L 637.761435 313.210114 
L 637.869937 312.879353 
L 637.935038 311.189771 
L 638.173741 305.910086 
L 638.466695 303.114225 
L 638.629448 302.698174 
L 638.640298 302.706495 
L 638.737949 303.347213 
L 639.356408 309.583815 
L 639.725313 311.468525 
L 640.072518 312.180804 
L 640.354622 312.584373 
L 640.593325 312.736648 
L 640.88628 312.618489 
L 640.89713 312.634299 
L 641.222634 312.839829 
L 641.678341 312.94717 
L 642.155748 312.104251 
L 642.231699 312.207431 
L 642.459552 312.662175 
L 642.795907 313.03454 
L 642.958659 313.07781 
L 642.969509 313.047438 
L 643.078011 313.07781 
L 643.75072 313.290412 
L 644.054525 311.788884 
L 644.152176 311.551735 
L 644.206427 311.643266 
L 644.531931 312.468711 
L 644.662133 312.508652 
L 644.683833 312.458726 
L 644.955087 311.951144 
L 645.12869 312.053492 
L 646.148604 313.279178 
L 646.712812 313.418971 
L 647.99313 313.528809 
L 648.622439 313.555686 
L 649.023895 313.563757 
L 649.523002 313.570747 
L 656.998758 313.466401 
L 657.302562 313.385687 
L 657.530415 313.300813 
L 657.953571 312.255693 
L 658.062073 312.357626 
L 658.300776 312.871448 
L 658.58288 313.138969 
L 658.669681 313.089043 
L 658.680532 313.057839 
L 658.875834 312.551921 
L 658.940935 312.603512 
L 659.754697 313.164348 
L 660.101902 313.349075 
L 660.232104 313.374038 
L 660.470807 313.369045 
L 660.546758 313.203873 
L 660.66611 312.745385 
L 660.861413 309.479802 
L 661.013315 303.284806 
L 661.36052 288.943534 
L 661.599223 286.904886 
L 661.631773 286.946491 
L 661.740275 288.485879 
L 662.054929 299.869029 
L 662.380434 307.045905 
L 662.83614 309.966582 
L 664.051358 312.488682 
L 664.463664 312.822354 
L 664.800018 312.881434 
L 665.331676 312.991271 
L 665.971835 313.11775 
L 666.796447 313.228836 
L 668.673523 313.477218 
L 669.433034 313.367381 
L 669.606636 313.262536 
L 669.932141 313.162268 
L 670.398698 312.541936 
L 670.398698 312.541936 
" clip-path="url(#pd5e79c0b46)" style="fill: none; stroke: #1f77b4; stroke-width: 1.5; stroke-linecap: square"/>
   </g>
   <g id="line2d_17">
    <path d="M 75.745176 312.407968 
L 670.398698 312.407968 
L 670.398698 312.407968 
" clip-path="url(#pd5e79c0b46)" style="fill: none; stroke: #ff7f0e; stroke-width: 1.5; stroke-linecap: square"/>
   </g>
   <g id="patch_3">
    <path d="M 46.0125 327.558125 
L 46.0125 22.318125 
" style="fill: none; stroke: #000000; stroke-width: 0.8; stroke-linejoin: miter; stroke-linecap: square"/>
   </g>
   <g id="patch_4">
    <path d="M 700.131374 327.558125 
L 700.131374 22.318125 
" style="fill: none; stroke: #000000; stroke-width: 0.8; stroke-linejoin: miter; stroke-linecap: square"/>
   </g>
   <g id="patch_5">
    <path d="M 46.0125 327.558125 
L 700.131374 327.558125 
" style="fill: none; stroke: #000000; stroke-width: 0.8; stroke-linejoin: miter; stroke-linecap: square"/>
   </g>
   <g id="patch_6">
    <path d="M 46.0125 22.318125 
L 700.131374 22.318125 
" style="fill: none; stroke: #000000; stroke-width: 0.8; stroke-linejoin: miter; stroke-linecap: square"/>
   </g>
   <g id="text_16">
    <!-- training -->
    <g transform="translate(349.828499 16.318125) scale(0.12 -0.12)">
     <defs>
      <path id="DejaVuSans-74" d="M 1172 4494 
L 1172 3500 
L 2356 3500 
L 2356 3053 
L 1172 3053 
L 1172 1153 
Q 1172 725 1289 603 
Q 1406 481 1766 481 
L 2356 481 
L 2356 0 
L 1766 0 
Q 1100 0 847 248 
Q 594 497 594 1153 
L 594 3053 
L 172 3053 
L 172 3500 
L 594 3500 
L 594 4494 
L 1172 4494 
z
" transform="scale(0.015625)"/>
      <path id="DejaVuSans-72" d="M 2631 2963 
Q 2534 3019 2420 3045 
Q 2306 3072 2169 3072 
Q 1681 3072 1420 2755 
Q 1159 2438 1159 1844 
L 1159 0 
L 581 0 
L 581 3500 
L 1159 3500 
L 1159 2956 
Q 1341 3275 1631 3429 
Q 1922 3584 2338 3584 
Q 2397 3584 2469 3576 
Q 2541 3569 2628 3553 
L 2631 2963 
z
" transform="scale(0.015625)"/>
      <path id="DejaVuSans-61" d="M 2194 1759 
Q 1497 1759 1228 1600 
Q 959 1441 959 1056 
Q 959 750 1161 570 
Q 1363 391 1709 391 
Q 2188 391 2477 730 
Q 2766 1069 2766 1631 
L 2766 1759 
L 2194 1759 
z
M 3341 1997 
L 3341 0 
L 2766 0 
L 2766 531 
Q 2569 213 2275 61 
Q 1981 -91 1556 -91 
Q 1019 -91 701 211 
Q 384 513 384 1019 
Q 384 1609 779 1909 
Q 1175 2209 1959 2209 
L 2766 2209 
L 2766 2266 
Q 2766 2663 2505 2880 
Q 2244 3097 1772 3097 
Q 1472 3097 1187 3025 
Q 903 2953 641 2809 
L 641 3341 
Q 956 3463 1253 3523 
Q 1550 3584 1831 3584 
Q 2591 3584 2966 3190 
Q 3341 2797 3341 1997 
z
" transform="scale(0.015625)"/>
      <path id="DejaVuSans-69" d="M 603 3500 
L 1178 3500 
L 1178 0 
L 603 0 
L 603 3500 
z
M 603 4863 
L 1178 4863 
L 1178 4134 
L 603 4134 
L 603 4863 
z
" transform="scale(0.015625)"/>
      <path id="DejaVuSans-6e" d="M 3513 2113 
L 3513 0 
L 2938 0 
L 2938 2094 
Q 2938 2591 2744 2837 
Q 2550 3084 2163 3084 
Q 1697 3084 1428 2787 
Q 1159 2491 1159 1978 
L 1159 0 
L 581 0 
L 581 3500 
L 1159 3500 
L 1159 2956 
Q 1366 3272 1645 3428 
Q 1925 3584 2291 3584 
Q 2894 3584 3203 3211 
Q 3513 2838 3513 2113 
z
" transform="scale(0.015625)"/>
      <path id="DejaVuSans-67" d="M 2906 1791 
Q 2906 2416 2648 2759 
Q 2391 3103 1925 3103 
Q 1463 3103 1205 2759 
Q 947 2416 947 1791 
Q 947 1169 1205 825 
Q 1463 481 1925 481 
Q 2391 481 2648 825 
Q 2906 1169 2906 1791 
z
M 3481 434 
Q 3481 -459 3084 -895 
Q 2688 -1331 1869 -1331 
Q 1566 -1331 1297 -1286 
Q 1028 -1241 775 -1147 
L 775 -588 
Q 1028 -725 1275 -790 
Q 1522 -856 1778 -856 
Q 2344 -856 2625 -561 
Q 2906 -266 2906 331 
L 2906 616 
Q 2728 306 2450 153 
Q 2172 0 1784 0 
Q 1141 0 747 490 
Q 353 981 353 1791 
Q 353 2603 747 3093 
Q 1141 3584 1784 3584 
Q 2172 3584 2450 3431 
Q 2728 3278 2906 2969 
L 2906 3500 
L 3481 3500 
L 3481 434 
z
" transform="scale(0.015625)"/>
     </defs>
     <use xlink:href="#DejaVuSans-74"/>
     <use xlink:href="#DejaVuSans-72" x="39.208984"/>
     <use xlink:href="#DejaVuSans-61" x="80.322266"/>
     <use xlink:href="#DejaVuSans-69" x="141.601562"/>
     <use xlink:href="#DejaVuSans-6e" x="169.384766"/>
     <use xlink:href="#DejaVuSans-69" x="232.763672"/>
     <use xlink:href="#DejaVuSans-6e" x="260.546875"/>
     <use xlink:href="#DejaVuSans-67" x="323.925781"/>
    </g>
   </g>
   <g id="legend_1">
    <g id="patch_7">
     <path d="M 611.737624 59.674375 
L 693.131374 59.674375 
Q 695.131374 59.674375 695.131374 57.674375 
L 695.131374 29.318125 
Q 695.131374 27.318125 693.131374 27.318125 
L 611.737624 27.318125 
Q 609.737624 27.318125 609.737624 29.318125 
L 609.737624 57.674375 
Q 609.737624 59.674375 611.737624 59.674375 
z
" style="fill: #ffffff; opacity: 0.8; stroke: #cccccc; stroke-linejoin: miter"/>
    </g>
    <g id="line2d_18">
     <path d="M 613.737624 35.416562 
L 623.737624 35.416562 
L 633.737624 35.416562 
" style="fill: none; stroke: #1f77b4; stroke-width: 1.5; stroke-linecap: square"/>
    </g>
    <g id="text_17">
     <!-- observed -->
     <g transform="translate(641.737624 38.916562) scale(0.1 -0.1)">
      <defs>
       <path id="DejaVuSans-6f" d="M 1959 3097 
Q 1497 3097 1228 2736 
Q 959 2375 959 1747 
Q 959 1119 1226 758 
Q 1494 397 1959 397 
Q 2419 397 2687 759 
Q 2956 1122 2956 1747 
Q 2956 2369 2687 2733 
Q 2419 3097 1959 3097 
z
M 1959 3584 
Q 2709 3584 3137 3096 
Q 3566 2609 3566 1747 
Q 3566 888 3137 398 
Q 2709 -91 1959 -91 
Q 1206 -91 779 398 
Q 353 888 353 1747 
Q 353 2609 779 3096 
Q 1206 3584 1959 3584 
z
" transform="scale(0.015625)"/>
       <path id="DejaVuSans-62" d="M 3116 1747 
Q 3116 2381 2855 2742 
Q 2594 3103 2138 3103 
Q 1681 3103 1420 2742 
Q 1159 2381 1159 1747 
Q 1159 1113 1420 752 
Q 1681 391 2138 391 
Q 2594 391 2855 752 
Q 3116 1113 3116 1747 
z
M 1159 2969 
Q 1341 3281 1617 3432 
Q 1894 3584 2278 3584 
Q 2916 3584 3314 3078 
Q 3713 2572 3713 1747 
Q 3713 922 3314 415 
Q 2916 -91 2278 -91 
Q 1894 -91 1617 61 
Q 1341 213 1159 525 
L 1159 0 
L 581 0 
L 581 4863 
L 1159 4863 
L 1159 2969 
z
" transform="scale(0.015625)"/>
       <path id="DejaVuSans-73" d="M 2834 3397 
L 2834 2853 
Q 2591 2978 2328 3040 
Q 2066 3103 1784 3103 
Q 1356 3103 1142 2972 
Q 928 2841 928 2578 
Q 928 2378 1081 2264 
Q 1234 2150 1697 2047 
L 1894 2003 
Q 2506 1872 2764 1633 
Q 3022 1394 3022 966 
Q 3022 478 2636 193 
Q 2250 -91 1575 -91 
Q 1294 -91 989 -36 
Q 684 19 347 128 
L 347 722 
Q 666 556 975 473 
Q 1284 391 1588 391 
Q 1994 391 2212 530 
Q 2431 669 2431 922 
Q 2431 1156 2273 1281 
Q 2116 1406 1581 1522 
L 1381 1569 
Q 847 1681 609 1914 
Q 372 2147 372 2553 
Q 372 3047 722 3315 
Q 1072 3584 1716 3584 
Q 2034 3584 2315 3537 
Q 2597 3491 2834 3397 
z
" transform="scale(0.015625)"/>
       <path id="DejaVuSans-65" d="M 3597 1894 
L 3597 1613 
L 953 1613 
Q 991 1019 1311 708 
Q 1631 397 2203 397 
Q 2534 397 2845 478 
Q 3156 559 3463 722 
L 3463 178 
Q 3153 47 2828 -22 
Q 2503 -91 2169 -91 
Q 1331 -91 842 396 
Q 353 884 353 1716 
Q 353 2575 817 3079 
Q 1281 3584 2069 3584 
Q 2775 3584 3186 3129 
Q 3597 2675 3597 1894 
z
M 3022 2063 
Q 3016 2534 2758 2815 
Q 2500 3097 2075 3097 
Q 1594 3097 1305 2825 
Q 1016 2553 972 2059 
L 3022 2063 
z
" transform="scale(0.015625)"/>
       <path id="DejaVuSans-76" d="M 191 3500 
L 800 3500 
L 1894 563 
L 2988 3500 
L 3597 3500 
L 2284 0 
L 1503 0 
L 191 3500 
z
" transform="scale(0.015625)"/>
       <path id="DejaVuSans-64" d="M 2906 2969 
L 2906 4863 
L 3481 4863 
L 3481 0 
L 2906 0 
L 2906 525 
Q 2725 213 2448 61 
Q 2172 -91 1784 -91 
Q 1150 -91 751 415 
Q 353 922 353 1747 
Q 353 2572 751 3078 
Q 1150 3584 1784 3584 
Q 2172 3584 2448 3432 
Q 2725 3281 2906 2969 
z
M 947 1747 
Q 947 1113 1208 752 
Q 1469 391 1925 391 
Q 2381 391 2643 752 
Q 2906 1113 2906 1747 
Q 2906 2381 2643 2742 
Q 2381 3103 1925 3103 
Q 1469 3103 1208 2742 
Q 947 2381 947 1747 
z
" transform="scale(0.015625)"/>
      </defs>
      <use xlink:href="#DejaVuSans-6f"/>
      <use xlink:href="#DejaVuSans-62" x="61.181641"/>
      <use xlink:href="#DejaVuSans-73" x="124.658203"/>
      <use xlink:href="#DejaVuSans-65" x="176.757812"/>
      <use xlink:href="#DejaVuSans-72" x="238.28125"/>
      <use xlink:href="#DejaVuSans-76" x="279.394531"/>
      <use xlink:href="#DejaVuSans-65" x="338.574219"/>
      <use xlink:href="#DejaVuSans-64" x="400.097656"/>
     </g>
    </g>
    <g id="line2d_19">
     <path d="M 613.737624 50.094688 
L 623.737624 50.094688 
L 633.737624 50.094688 
" style="fill: none; stroke: #ff7f0e; stroke-width: 1.5; stroke-linecap: square"/>
    </g>
    <g id="text_18">
     <!-- simulated -->
     <g transform="translate(641.737624 53.594688) scale(0.1 -0.1)">
      <defs>
       <path id="DejaVuSans-6d" d="M 3328 2828 
Q 3544 3216 3844 3400 
Q 4144 3584 4550 3584 
Q 5097 3584 5394 3201 
Q 5691 2819 5691 2113 
L 5691 0 
L 5113 0 
L 5113 2094 
Q 5113 2597 4934 2840 
Q 4756 3084 4391 3084 
Q 3944 3084 3684 2787 
Q 3425 2491 3425 1978 
L 3425 0 
L 2847 0 
L 2847 2094 
Q 2847 2600 2669 2842 
Q 2491 3084 2119 3084 
Q 1678 3084 1418 2786 
Q 1159 2488 1159 1978 
L 1159 0 
L 581 0 
L 581 3500 
L 1159 3500 
L 1159 2956 
Q 1356 3278 1631 3431 
Q 1906 3584 2284 3584 
Q 2666 3584 2933 3390 
Q 3200 3197 3328 2828 
z
" transform="scale(0.015625)"/>
       <path id="DejaVuSans-75" d="M 544 1381 
L 544 3500 
L 1119 3500 
L 1119 1403 
Q 1119 906 1312 657 
Q 1506 409 1894 409 
Q 2359 409 2629 706 
Q 2900 1003 2900 1516 
L 2900 3500 
L 3475 3500 
L 3475 0 
L 2900 0 
L 2900 538 
Q 2691 219 2414 64 
Q 2138 -91 1772 -91 
Q 1169 -91 856 284 
Q 544 659 544 1381 
z
M 1991 3584 
L 1991 3584 
z
" transform="scale(0.015625)"/>
       <path id="DejaVuSans-6c" d="M 603 4863 
L 1178 4863 
L 1178 0 
L 603 0 
L 603 4863 
z
" transform="scale(0.015625)"/>
      </defs>
      <use xlink:href="#DejaVuSans-73"/>
      <use xlink:href="#DejaVuSans-69" x="52.099609"/>
      <use xlink:href="#DejaVuSans-6d" x="79.882812"/>
      <use xlink:href="#DejaVuSans-75" x="177.294922"/>
      <use xlink:href="#DejaVuSans-6c" x="240.673828"/>
      <use xlink:href="#DejaVuSans-61" x="268.457031"/>
      <use xlink:href="#DejaVuSans-74" x="329.736328"/>
      <use xlink:href="#DejaVuSans-65" x="368.945312"/>
      <use xlink:href="#DejaVuSans-64" x="430.46875"/>
     </g>
    </g>
   </g>
  </g>
 </g>
 <defs>
  <clipPath id="pd5e79c0b46">
   <rect x="46.0125" y="22.318125" width="654.118874" height="305.24"/>
  </clipPath>
 </defs>
</svg>
