<?xml version="1.0" encoding="utf-8" standalone="no"?>
<!DOCTYPE svg PUBLIC "-//W3C//DTD SVG 1.1//EN"
  "http://www.w3.org/Graphics/SVG/1.1/DTD/svg11.dtd">
<svg xmlns:xlink="http://www.w3.org/1999/xlink" width="713.0225pt" height="351.43625pt" viewBox="0 0 713.0225 351.43625" xmlns="http://www.w3.org/2000/svg" version="1.1">
 <metadata>
  <rdf:RDF xmlns:dc="http://purl.org/dc/elements/1.1/" xmlns:cc="http://creativecommons.org/ns#" xmlns:rdf="http://www.w3.org/1999/02/22-rdf-syntax-ns#">
   <cc:Work>
    <dc:type rdf:resource="http://purl.org/dc/dcmitype/StillImage"/>
    <dc:date>2023-12-04T09:50:17.635364</dc:date>
    <dc:format>image/svg+xml</dc:format>
    <dc:creator>
     <cc:Agent>
      <dc:title>Matplotlib v3.7.1, https://matplotlib.org/</dc:title>
     </cc:Agent>
    </dc:creator>
   </cc:Work>
  </rdf:RDF>
 </metadata>
 <defs>
  <style type="text/css">*{stroke-linejoin: round; stroke-linecap: butt}</style>
 </defs>
 <g id="figure_1">
  <g id="patch_1">
   <path d="M 0 351.43625 
L 713.0225 351.43625 
L 713.0225 0 
L 0 0 
z
" style="fill: #ffffff"/>
  </g>
  <g id="axes_1">
   <g id="patch_2">
    <path d="M 46.0125 327.558125 
L 705.8225 327.558125 
L 705.8225 22.318125 
L 46.0125 22.318125 
z
" style="fill: #ffffff"/>
   </g>
   <g id="matplotlib.axis_1">
    <g id="xtick_1">
     <g id="line2d_1">
      <defs>
       <path id="m79532883eb" d="M 0 0 
L 0 3.5 
" style="stroke: #000000; stroke-width: 0.8"/>
      </defs>
      <g>
       <use xlink:href="#m79532883eb" x="94.434553" y="327.558125" style="stroke: #000000; stroke-width: 0.8"/>
      </g>
     </g>
     <g id="text_1">
      <!-- 2010 -->
      <g transform="translate(81.709553 342.156563) scale(0.1 -0.1)">
       <defs>
        <path id="DejaVuSans-32" d="M 1228 531 
L 3431 531 
L 3431 0 
L 469 0 
L 469 531 
Q 828 903 1448 1529 
Q 2069 2156 2228 2338 
Q 2531 2678 2651 2914 
Q 2772 3150 2772 3378 
Q 2772 3750 2511 3984 
Q 2250 4219 1831 4219 
Q 1534 4219 1204 4116 
Q 875 4013 500 3803 
L 500 4441 
Q 881 4594 1212 4672 
Q 1544 4750 1819 4750 
Q 2544 4750 2975 4387 
Q 3406 4025 3406 3419 
Q 3406 3131 3298 2873 
Q 3191 2616 2906 2266 
Q 2828 2175 2409 1742 
Q 1991 1309 1228 531 
z
" transform="scale(0.015625)"/>
        <path id="DejaVuSans-30" d="M 2034 4250 
Q 1547 4250 1301 3770 
Q 1056 3291 1056 2328 
Q 1056 1369 1301 889 
Q 1547 409 2034 409 
Q 2525 409 2770 889 
Q 3016 1369 3016 2328 
Q 3016 3291 2770 3770 
Q 2525 4250 2034 4250 
z
M 2034 4750 
Q 2819 4750 3233 4129 
Q 3647 3509 3647 2328 
Q 3647 1150 3233 529 
Q 2819 -91 2034 -91 
Q 1250 -91 836 529 
Q 422 1150 422 2328 
Q 422 3509 836 4129 
Q 1250 4750 2034 4750 
z
" transform="scale(0.015625)"/>
        <path id="DejaVuSans-31" d="M 794 531 
L 1825 531 
L 1825 4091 
L 703 3866 
L 703 4441 
L 1819 4666 
L 2450 4666 
L 2450 531 
L 3481 531 
L 3481 0 
L 794 0 
L 794 531 
z
" transform="scale(0.015625)"/>
       </defs>
       <use xlink:href="#DejaVuSans-32"/>
       <use xlink:href="#DejaVuSans-30" x="63.623047"/>
       <use xlink:href="#DejaVuSans-31" x="127.246094"/>
       <use xlink:href="#DejaVuSans-30" x="190.869141"/>
      </g>
     </g>
    </g>
    <g id="xtick_2">
     <g id="line2d_2">
      <g>
       <use xlink:href="#m79532883eb" x="178.964836" y="327.558125" style="stroke: #000000; stroke-width: 0.8"/>
      </g>
     </g>
     <g id="text_2">
      <!-- 2011 -->
      <g transform="translate(166.239836 342.156563) scale(0.1 -0.1)">
       <use xlink:href="#DejaVuSans-32"/>
       <use xlink:href="#DejaVuSans-30" x="63.623047"/>
       <use xlink:href="#DejaVuSans-31" x="127.246094"/>
       <use xlink:href="#DejaVuSans-31" x="190.869141"/>
      </g>
     </g>
    </g>
    <g id="xtick_3">
     <g id="line2d_3">
      <g>
       <use xlink:href="#m79532883eb" x="263.495119" y="327.558125" style="stroke: #000000; stroke-width: 0.8"/>
      </g>
     </g>
     <g id="text_3">
      <!-- 2012 -->
      <g transform="translate(250.770119 342.156563) scale(0.1 -0.1)">
       <use xlink:href="#DejaVuSans-32"/>
       <use xlink:href="#DejaVuSans-30" x="63.623047"/>
       <use xlink:href="#DejaVuSans-31" x="127.246094"/>
       <use xlink:href="#DejaVuSans-32" x="190.869141"/>
      </g>
     </g>
    </g>
    <g id="xtick_4">
     <g id="line2d_4">
      <g>
       <use xlink:href="#m79532883eb" x="348.256991" y="327.558125" style="stroke: #000000; stroke-width: 0.8"/>
      </g>
     </g>
     <g id="text_4">
      <!-- 2013 -->
      <g transform="translate(335.531991 342.156563) scale(0.1 -0.1)">
       <defs>
        <path id="DejaVuSans-33" d="M 2597 2516 
Q 3050 2419 3304 2112 
Q 3559 1806 3559 1356 
Q 3559 666 3084 287 
Q 2609 -91 1734 -91 
Q 1441 -91 1130 -33 
Q 819 25 488 141 
L 488 750 
Q 750 597 1062 519 
Q 1375 441 1716 441 
Q 2309 441 2620 675 
Q 2931 909 2931 1356 
Q 2931 1769 2642 2001 
Q 2353 2234 1838 2234 
L 1294 2234 
L 1294 2753 
L 1863 2753 
Q 2328 2753 2575 2939 
Q 2822 3125 2822 3475 
Q 2822 3834 2567 4026 
Q 2313 4219 1838 4219 
Q 1578 4219 1281 4162 
Q 984 4106 628 3988 
L 628 4550 
Q 988 4650 1302 4700 
Q 1616 4750 1894 4750 
Q 2613 4750 3031 4423 
Q 3450 4097 3450 3541 
Q 3450 3153 3228 2886 
Q 3006 2619 2597 2516 
z
" transform="scale(0.015625)"/>
       </defs>
       <use xlink:href="#DejaVuSans-32"/>
       <use xlink:href="#DejaVuSans-30" x="63.623047"/>
       <use xlink:href="#DejaVuSans-31" x="127.246094"/>
       <use xlink:href="#DejaVuSans-33" x="190.869141"/>
      </g>
     </g>
    </g>
    <g id="xtick_5">
     <g id="line2d_5">
      <g>
       <use xlink:href="#m79532883eb" x="432.787274" y="327.558125" style="stroke: #000000; stroke-width: 0.8"/>
      </g>
     </g>
     <g id="text_5">
      <!-- 2014 -->
      <g transform="translate(420.062274 342.156563) scale(0.1 -0.1)">
       <defs>
        <path id="DejaVuSans-34" d="M 2419 4116 
L 825 1625 
L 2419 1625 
L 2419 4116 
z
M 2253 4666 
L 3047 4666 
L 3047 1625 
L 3713 1625 
L 3713 1100 
L 3047 1100 
L 3047 0 
L 2419 0 
L 2419 1100 
L 313 1100 
L 313 1709 
L 2253 4666 
z
" transform="scale(0.015625)"/>
       </defs>
       <use xlink:href="#DejaVuSans-32"/>
       <use xlink:href="#DejaVuSans-30" x="63.623047"/>
       <use xlink:href="#DejaVuSans-31" x="127.246094"/>
       <use xlink:href="#DejaVuSans-34" x="190.869141"/>
      </g>
     </g>
    </g>
    <g id="xtick_6">
     <g id="line2d_6">
      <g>
       <use xlink:href="#m79532883eb" x="517.317557" y="327.558125" style="stroke: #000000; stroke-width: 0.8"/>
      </g>
     </g>
     <g id="text_6">
      <!-- 2015 -->
      <g transform="translate(504.592557 342.156563) scale(0.1 -0.1)">
       <defs>
        <path id="DejaVuSans-35" d="M 691 4666 
L 3169 4666 
L 3169 4134 
L 1269 4134 
L 1269 2991 
Q 1406 3038 1543 3061 
Q 1681 3084 1819 3084 
Q 2600 3084 3056 2656 
Q 3513 2228 3513 1497 
Q 3513 744 3044 326 
Q 2575 -91 1722 -91 
Q 1428 -91 1123 -41 
Q 819 9 494 109 
L 494 744 
Q 775 591 1075 516 
Q 1375 441 1709 441 
Q 2250 441 2565 725 
Q 2881 1009 2881 1497 
Q 2881 1984 2565 2268 
Q 2250 2553 1709 2553 
Q 1456 2553 1204 2497 
Q 953 2441 691 2322 
L 691 4666 
z
" transform="scale(0.015625)"/>
       </defs>
       <use xlink:href="#DejaVuSans-32"/>
       <use xlink:href="#DejaVuSans-30" x="63.623047"/>
       <use xlink:href="#DejaVuSans-31" x="127.246094"/>
       <use xlink:href="#DejaVuSans-35" x="190.869141"/>
      </g>
     </g>
    </g>
    <g id="xtick_7">
     <g id="line2d_7">
      <g>
       <use xlink:href="#m79532883eb" x="601.84784" y="327.558125" style="stroke: #000000; stroke-width: 0.8"/>
      </g>
     </g>
     <g id="text_7">
      <!-- 2016 -->
      <g transform="translate(589.12284 342.156563) scale(0.1 -0.1)">
       <defs>
        <path id="DejaVuSans-36" d="M 2113 2584 
Q 1688 2584 1439 2293 
Q 1191 2003 1191 1497 
Q 1191 994 1439 701 
Q 1688 409 2113 409 
Q 2538 409 2786 701 
Q 3034 994 3034 1497 
Q 3034 2003 2786 2293 
Q 2538 2584 2113 2584 
z
M 3366 4563 
L 3366 3988 
Q 3128 4100 2886 4159 
Q 2644 4219 2406 4219 
Q 1781 4219 1451 3797 
Q 1122 3375 1075 2522 
Q 1259 2794 1537 2939 
Q 1816 3084 2150 3084 
Q 2853 3084 3261 2657 
Q 3669 2231 3669 1497 
Q 3669 778 3244 343 
Q 2819 -91 2113 -91 
Q 1303 -91 875 529 
Q 447 1150 447 2328 
Q 447 3434 972 4092 
Q 1497 4750 2381 4750 
Q 2619 4750 2861 4703 
Q 3103 4656 3366 4563 
z
" transform="scale(0.015625)"/>
       </defs>
       <use xlink:href="#DejaVuSans-32"/>
       <use xlink:href="#DejaVuSans-30" x="63.623047"/>
       <use xlink:href="#DejaVuSans-31" x="127.246094"/>
       <use xlink:href="#DejaVuSans-36" x="190.869141"/>
      </g>
     </g>
    </g>
    <g id="xtick_8">
     <g id="line2d_8">
      <g>
       <use xlink:href="#m79532883eb" x="686.609712" y="327.558125" style="stroke: #000000; stroke-width: 0.8"/>
      </g>
     </g>
     <g id="text_8">
      <!-- 2017 -->
      <g transform="translate(673.884712 342.156563) scale(0.1 -0.1)">
       <defs>
        <path id="DejaVuSans-37" d="M 525 4666 
L 3525 4666 
L 3525 4397 
L 1831 0 
L 1172 0 
L 2766 4134 
L 525 4134 
L 525 4666 
z
" transform="scale(0.015625)"/>
       </defs>
       <use xlink:href="#DejaVuSans-32"/>
       <use xlink:href="#DejaVuSans-30" x="63.623047"/>
       <use xlink:href="#DejaVuSans-31" x="127.246094"/>
       <use xlink:href="#DejaVuSans-37" x="190.869141"/>
      </g>
     </g>
    </g>
   </g>
   <g id="matplotlib.axis_2">
    <g id="ytick_1">
     <g id="line2d_9">
      <defs>
       <path id="mbc8f94b077" d="M 0 0 
L -3.5 0 
" style="stroke: #000000; stroke-width: 0.8"/>
      </defs>
      <g>
       <use xlink:href="#mbc8f94b077" x="46.0125" y="312.810574" style="stroke: #000000; stroke-width: 0.8"/>
      </g>
     </g>
     <g id="text_9">
      <!-- 0 -->
      <g transform="translate(32.65 316.609792) scale(0.1 -0.1)">
       <use xlink:href="#DejaVuSans-30"/>
      </g>
     </g>
    </g>
    <g id="ytick_2">
     <g id="line2d_10">
      <g>
       <use xlink:href="#mbc8f94b077" x="46.0125" y="271.708604" style="stroke: #000000; stroke-width: 0.8"/>
      </g>
     </g>
     <g id="text_10">
      <!-- 2500 -->
      <g transform="translate(13.5625 275.507822) scale(0.1 -0.1)">
       <use xlink:href="#DejaVuSans-32"/>
       <use xlink:href="#DejaVuSans-35" x="63.623047"/>
       <use xlink:href="#DejaVuSans-30" x="127.246094"/>
       <use xlink:href="#DejaVuSans-30" x="190.869141"/>
      </g>
     </g>
    </g>
    <g id="ytick_3">
     <g id="line2d_11">
      <g>
       <use xlink:href="#mbc8f94b077" x="46.0125" y="230.606633" style="stroke: #000000; stroke-width: 0.8"/>
      </g>
     </g>
     <g id="text_11">
      <!-- 5000 -->
      <g transform="translate(13.5625 234.405852) scale(0.1 -0.1)">
       <use xlink:href="#DejaVuSans-35"/>
       <use xlink:href="#DejaVuSans-30" x="63.623047"/>
       <use xlink:href="#DejaVuSans-30" x="127.246094"/>
       <use xlink:href="#DejaVuSans-30" x="190.869141"/>
      </g>
     </g>
    </g>
    <g id="ytick_4">
     <g id="line2d_12">
      <g>
       <use xlink:href="#mbc8f94b077" x="46.0125" y="189.504663" style="stroke: #000000; stroke-width: 0.8"/>
      </g>
     </g>
     <g id="text_12">
      <!-- 7500 -->
      <g transform="translate(13.5625 193.303882) scale(0.1 -0.1)">
       <use xlink:href="#DejaVuSans-37"/>
       <use xlink:href="#DejaVuSans-35" x="63.623047"/>
       <use xlink:href="#DejaVuSans-30" x="127.246094"/>
       <use xlink:href="#DejaVuSans-30" x="190.869141"/>
      </g>
     </g>
    </g>
    <g id="ytick_5">
     <g id="line2d_13">
      <g>
       <use xlink:href="#mbc8f94b077" x="46.0125" y="148.402693" style="stroke: #000000; stroke-width: 0.8"/>
      </g>
     </g>
     <g id="text_13">
      <!-- 10000 -->
      <g transform="translate(7.2 152.201912) scale(0.1 -0.1)">
       <use xlink:href="#DejaVuSans-31"/>
       <use xlink:href="#DejaVuSans-30" x="63.623047"/>
       <use xlink:href="#DejaVuSans-30" x="127.246094"/>
       <use xlink:href="#DejaVuSans-30" x="190.869141"/>
       <use xlink:href="#DejaVuSans-30" x="254.492188"/>
      </g>
     </g>
    </g>
    <g id="ytick_6">
     <g id="line2d_14">
      <g>
       <use xlink:href="#mbc8f94b077" x="46.0125" y="107.300723" style="stroke: #000000; stroke-width: 0.8"/>
      </g>
     </g>
     <g id="text_14">
      <!-- 12500 -->
      <g transform="translate(7.2 111.099942) scale(0.1 -0.1)">
       <use xlink:href="#DejaVuSans-31"/>
       <use xlink:href="#DejaVuSans-32" x="63.623047"/>
       <use xlink:href="#DejaVuSans-35" x="127.246094"/>
       <use xlink:href="#DejaVuSans-30" x="190.869141"/>
       <use xlink:href="#DejaVuSans-30" x="254.492188"/>
      </g>
     </g>
    </g>
    <g id="ytick_7">
     <g id="line2d_15">
      <g>
       <use xlink:href="#mbc8f94b077" x="46.0125" y="66.198753" style="stroke: #000000; stroke-width: 0.8"/>
      </g>
     </g>
     <g id="text_15">
      <!-- 15000 -->
      <g transform="translate(7.2 69.997971) scale(0.1 -0.1)">
       <use xlink:href="#DejaVuSans-31"/>
       <use xlink:href="#DejaVuSans-35" x="63.623047"/>
       <use xlink:href="#DejaVuSans-30" x="127.246094"/>
       <use xlink:href="#DejaVuSans-30" x="190.869141"/>
       <use xlink:href="#DejaVuSans-30" x="254.492188"/>
      </g>
     </g>
    </g>
    <g id="ytick_8">
     <g id="line2d_16">
      <g>
       <use xlink:href="#mbc8f94b077" x="46.0125" y="25.096783" style="stroke: #000000; stroke-width: 0.8"/>
      </g>
     </g>
     <g id="text_16">
      <!-- 17500 -->
      <g transform="translate(7.2 28.896001) scale(0.1 -0.1)">
       <use xlink:href="#DejaVuSans-31"/>
       <use xlink:href="#DejaVuSans-37" x="63.623047"/>
       <use xlink:href="#DejaVuSans-35" x="127.246094"/>
       <use xlink:href="#DejaVuSans-30" x="190.869141"/>
       <use xlink:href="#DejaVuSans-30" x="254.492188"/>
      </g>
     </g>
    </g>
   </g>
   <g id="line2d_17">
    <path d="M 76.003864 296.285938 
L 76.158257 296.861365 
L 76.351248 297.601201 
L 76.438095 297.958788 
L 76.660035 299.717952 
L 76.708283 299.47134 
L 76.862676 299.224728 
L 76.872325 299.274051 
L 76.968821 299.569985 
L 77.499548 301.727838 
L 78.030275 302.430682 
L 78.483805 301.678516 
L 78.763642 300.655077 
L 78.889087 300.050878 
L 79.361916 297.107977 
L 79.805796 292.79227 
L 79.854044 292.833372 
L 79.882993 292.668964 
L 80.114583 292.668964 
L 80.259327 293.162188 
L 80.433019 294.354145 
L 81.031293 300.593424 
L 81.272532 301.473006 
L 81.851506 300.161853 
L 82.594524 294.847369 
L 83.009456 285.722731 
L 83.269994 283.133307 
L 83.308592 283.051103 
L 83.414738 282.640084 
L 83.472635 282.722287 
L 83.762122 284.284162 
L 83.771772 284.284162 
L 84.2639 289.216399 
L 84.27355 289.216399 
L 84.49549 291.148191 
L 84.72708 291.682517 
L 84.765678 291.641415 
L 84.910422 291.189293 
L 84.929721 291.107089 
L 85.277106 289.051991 
L 85.296405 288.969787 
L 85.566593 285.722731 
L 85.836781 279.310824 
L 86.454354 253.539889 
L 86.483303 253.745399 
L 86.628046 255.636089 
L 86.946482 264.473013 
L 87.380713 276.968012 
L 87.6895 281.818044 
L 87.699149 281.612534 
L 87.757047 281.160413 
L 87.814944 281.365922 
L 87.969337 281.982452 
L 88.017585 282.064656 
L 88.027235 282.14686 
L 88.085132 281.982452 
L 88.114081 281.982452 
L 88.239526 281.119311 
L 88.432517 279.187518 
L 88.451816 279.187518 
L 88.635158 278.201071 
L 88.664107 278.118867 
L 88.905346 276.92691 
L 88.914996 277.009114 
L 88.953594 276.7214 
L 88.982543 276.7214 
L 89.136936 276.351482 
L 89.194834 276.31038 
L 89.416774 275.365035 
L 89.426423 275.365035 
L 89.436073 275.241729 
L 89.474671 275.406137 
L 89.532569 275.406137 
L 89.658013 275.323933 
L 89.928201 273.762058 
L 90.111543 269.035331 
L 90.468578 249.100876 
L 90.526475 247.086879 
L 90.738766 226.6592 
L 91.076501 216.959135 
L 91.211595 215.726076 
L 91.221244 215.80828 
L 91.230894 215.972688 
L 91.279142 215.315056 
L 91.288791 215.39726 
L 91.481783 206.519235 
L 91.655475 202.573446 
L 92.118655 188.187756 
L 92.620433 143.057793 
L 92.630083 143.057793 
L 92.813424 149.223088 
L 93.073963 156.950259 
L 93.083613 156.950259 
L 93.691536 176.268185 
L 93.701185 176.268185 
L 93.82663 179.063119 
L 93.903826 177.83006 
L 93.942425 176.555899 
L 94.154715 147.990029 
L 94.463502 118.396611 
L 94.482801 119.21865 
L 94.5021 118.396611 
L 94.839835 138.536576 
L 95.216169 172.527905 
L 95.737246 202.820057 
L 95.746895 202.65565 
L 95.795143 203.724301 
L 95.949537 205.286176 
L 95.968836 205.203972 
L 96.007434 205.614991 
L 96.354819 215.315056 
L 97.348725 253.128869 
L 98.101392 265.623868 
L 98.13999 264.719625 
L 98.419828 260.979345 
L 98.429477 261.020447 
L 98.458426 260.732733 
L 98.59352 258.677635 
L 98.82511 248.730958 
L 100.040957 154.073121 
L 100.19535 132.371281 
L 100.513786 123.328847 
L 100.619931 123.328847 
L 100.745376 120.862729 
L 101.025213 113.464374 
L 101.063812 113.464374 
L 101.247154 120.04069 
L 101.266453 120.04069 
L 101.517342 134.837399 
L 101.710333 149.716312 
L 101.922624 155.92271 
L 101.941923 154.812956 
L 102.105966 146.34595 
L 102.125265 146.34595 
L 102.675291 108.532138 
L 102.68494 109.354177 
L 102.733188 104.832961 
L 102.887581 98.667665 
L 103.032325 101.955823 
L 103.041975 101.955823 
L 103.225317 111.820296 
L 103.524453 129.083123 
L 103.852539 147.990029 
L 103.871838 147.990029 
L 104.045531 156.703647 
L 104.373616 169.07534 
L 104.392915 168.952034 
L 104.50871 171.829172 
L 104.817497 179.433036 
L 104.952591 182.515684 
L 105.155232 186.461473 
L 105.164881 186.214862 
L 105.242078 187.078003 
L 105.251727 187.078003 
L 105.444719 183.502132 
L 105.618411 179.063119 
L 105.628061 179.063119 
L 105.685958 178.816507 
L 105.695608 179.309731 
L 105.714907 179.063119 
L 105.994745 188.88649 
L 106.448275 211.204859 
L 106.525471 214.164201 
L 106.78601 221.973576 
L 106.824608 222.877819 
L 107.046549 230.604989 
L 107.596574 241.908031 
L 108.436087 251.772504 
L 108.455387 251.48479 
L 108.629079 252.10132 
L 108.648378 252.060218 
L 108.667677 252.183524 
L 108.696626 252.10132 
L 108.82207 252.471237 
L 109.2949 255.677191 
L 109.304549 255.594987 
L 109.343148 256.088211 
L 109.545789 257.650086 
L 109.835276 259.951796 
L 110.057216 261.267059 
L 110.211609 262.089098 
L 110.327404 262.911138 
L 110.491447 264.185299 
L 110.587943 264.555217 
L 110.597592 264.349707 
L 110.819533 256.828046 
L 110.848481 256.992454 
L 110.88708 257.197964 
L 110.944977 256.992454 
L 111.031823 255.348375 
L 111.282712 250.909363 
L 111.292362 250.909363 
L 111.948533 241.209298 
L 112.276619 222.549003 
L 112.488909 215.19175 
L 112.537157 214.575221 
L 112.604704 214.904037 
L 113.338072 224.35749 
L 113.415268 223.864266 
L 113.424918 223.864266 
L 113.59861 222.05578 
L 113.61791 221.973576 
L 113.666157 221.315944 
L 113.743354 221.480352 
L 113.753004 221.480352 
L 114.110038 229.289726 
L 114.717961 248.443244 
L 115.335534 261.431467 
L 116.686475 277.296827 
L 117.140005 280.708291 
L 117.149654 280.502781 
L 117.265449 279.63964 
L 117.284748 279.680742 
L 117.497039 280.667189 
L 117.506689 280.626087 
L 117.574236 280.667189 
L 117.593535 280.584985 
L 118.037415 277.707847 
L 118.056714 277.625643 
L 118.240056 277.13242 
L 118.259355 277.214623 
L 118.297954 277.296827 
L 118.654988 280.461679 
L 119.436604 288.024442 
L 119.629595 289.421909 
L 119.851535 290.860478 
L 120.305066 292.340148 
L 120.314715 292.340148 
L 120.459459 292.99778 
L 120.488407 292.99778 
L 120.642801 293.655412 
L 120.65245 293.655412 
L 120.826143 294.477451 
L 121.704254 297.765609 
L 121.762151 297.814931 
L 121.887596 297.601201 
L 121.897245 297.601201 
L 122.041989 297.107977 
L 122.099887 297.025773 
L 122.234981 296.779161 
L 122.273579 296.696957 
L 122.399023 296.614753 
L 122.640263 296.532549 
L 122.756058 296.450345 
L 122.910451 296.368142 
L 123.064844 295.957122 
L 123.074494 295.957122 
L 123.248186 294.806267 
L 123.267485 294.806267 
L 123.798212 286.668077 
L 124.271041 276.351482 
L 124.309639 276.392584 
L 124.319289 276.392584 
L 125.303546 291.271497 
L 125.573734 292.668964 
L 125.602683 292.710066 
L 125.718477 292.833372 
L 125.863221 292.833372 
L 126.017614 292.175741 
L 126.056213 292.175741 
L 126.191307 291.846925 
L 126.384298 291.929129 
L 126.403597 291.888027 
L 126.509743 292.011333 
L 126.529042 292.011333 
L 126.750982 293.449902 
L 127.831735 301.822373 
L 127.851034 301.744279 
L 127.92823 301.875806 
L 128.584401 303.482893 
L 129.057231 303.914463 
L 129.568658 303.803488 
L 129.684453 303.482893 
L 129.906393 302.755388 
L 130.244128 301.103089 
L 130.302026 301.070207 
L 130.350274 301.103089 
L 130.716958 302.122417 
L 130.726607 302.110087 
L 131.054693 301.534659 
L 131.324881 300.08787 
L 132.231941 293.984227 
L 132.25124 293.943125 
L 132.309138 293.819819 
L 132.347736 293.984227 
L 132.357386 293.984227 
L 132.376685 293.984227 
L 132.994257 302.656743 
L 133.360941 305.542101 
L 133.939916 306.96834 
L 133.997813 306.906687 
L 134.258352 306.536769 
L 134.335549 306.520328 
L 134.354848 306.475116 
L 134.480292 305.953121 
L 134.557489 306.257276 
L 134.808378 306.98067 
L 134.914523 307.029993 
L 134.933822 307.017662 
L 135.155762 307.062874 
L 135.310156 305.706509 
L 135.4356 305.237947 
L 135.493498 305.348922 
L 135.65754 305.72706 
L 135.734737 305.081759 
L 135.782985 305.250277 
L 136.178617 306.701177 
L 136.79619 309.076871 
L 136.854088 308.86314 
L 137.288319 305.558542 
L 137.326917 305.422906 
L 137.548857 304.699511 
L 137.780447 304.391246 
L 137.857644 304.46523 
L 137.983088 304.785825 
L 138.39802 306.799822 
L 138.668208 307.860252 
L 138.85155 307.860252 
L 138.870849 307.584869 
L 138.938396 308.00822 
L 139.08314 308.64941 
L 139.121738 308.189068 
L 139.160336 308.287713 
L 139.30508 309.241279 
L 139.324379 308.698733 
L 139.372627 308.123305 
L 139.440174 308.567206 
L 139.729661 309.783825 
L 140.231439 310.457897 
L 140.241089 310.441456 
L 140.376183 309.997555 
L 140.598123 309.224838 
L 140.762166 309.159075 
L 140.771815 309.191956 
L 140.839363 309.093312 
L 140.858662 309.093312 
L 141.273593 308.057542 
L 142.228901 307.005331 
L 142.363995 307.342368 
L 143.135962 310.211285 
L 143.145611 310.194844 
L 143.232457 310.277048 
L 143.40615 310.503109 
L 143.502645 310.605864 
L 143.830731 310.984002 
L 143.869329 310.901798 
L 144.014073 311.000443 
L 144.158817 311.230614 
L 144.168466 311.131969 
L 144.178116 310.860696 
L 144.274611 311.14841 
L 144.448304 311.230614 
L 144.795689 311.164851 
L 144.959731 310.671627 
L 144.97903 310.786713 
L 145.017629 310.704509 
L 145.181672 310.425015 
L 145.413261 310.52777 
L 145.500108 310.540101 
L 145.519407 310.503109 
L 145.66415 310.145522 
L 146.108031 308.961785 
L 146.11768 308.978226 
L 146.272074 309.06043 
L 146.416817 309.191956 
L 146.465065 309.142634 
L 146.532612 309.159075 
L 146.609809 309.208397 
L 146.658057 309.159075 
L 146.735253 309.093312 
L 146.793151 308.497333 
L 146.860698 308.879581 
L 146.937894 309.109752 
L 146.947544 308.830259 
L 146.957193 308.406909 
L 147.04404 309.06043 
L 147.343177 309.68518 
L 147.651963 309.997555 
L 147.680912 309.977004 
L 147.835305 309.405686 
L 147.902852 309.323483 
L 147.9511 309.418017 
L 148.144091 309.866029 
L 148.153741 309.545433 
L 148.192339 309.356364 
L 148.259886 309.602976 
L 148.443228 309.866029 
L 148.597621 309.389246 
L 148.63622 309.142634 
L 148.800262 305.949011 
L 149.205545 303.281493 
L 149.31169 302.80471 
L 149.446784 302.007332 
L 150.257348 299.03977 
L 150.431041 299.409687 
L 150.720528 301.96623 
L 151.376699 306.869695 
L 151.994272 308.797377 
L 152.312708 309.48789 
L 153.152221 310.704509 
L 153.239067 310.605864 
L 153.422409 309.372805 
L 153.470657 309.537213 
L 153.702247 310.178404 
L 153.731196 310.277048 
L 154.117179 310.72095 
L 154.261922 310.811374 
L 154.493512 311.099088 
L 154.599657 311.197732 
L 154.7637 311.36214 
L 155.44882 311.263496 
L 155.564615 311.230614 
L 155.583914 311.247055 
L 155.805854 311.345699 
L 155.969897 311.411463 
L 156.085692 311.493667 
L 156.220786 311.55943 
L 156.413778 311.674515 
L 156.548872 311.756719 
L 156.664667 311.806042 
L 156.857658 311.740278 
L 157.021701 310.490779 
L 157.060299 310.392134 
L 157.243641 310.161963 
L 157.301539 309.89891 
L 157.552428 308.632969 
L 157.648923 308.715173 
L 157.793667 308.896022 
L 157.812966 308.879581 
L 157.899812 308.961785 
L 157.94806 308.912463 
L 157.95771 308.896022 
L 157.996308 308.961785 
L 158.034906 308.961785 
L 158.17965 309.093312 
L 158.218248 309.06043 
L 158.440189 309.011108 
L 158.575283 308.764496 
L 158.604231 308.764496 
L 158.739325 308.419239 
L 158.748975 308.43979 
L 158.806872 308.353476 
L 158.816522 308.353476 
L 159.569189 307.268384 
L 159.578838 307.301266 
L 159.665685 307.202621 
L 160.138514 307.975338 
L 160.321856 308.337035 
L 160.389403 308.43979 
L 160.572745 308.748055 
L 161.122771 309.47145 
L 161.171018 309.553654 
L 161.325412 309.800265 
L 161.450856 309.866029 
L 161.58595 310.046877 
L 162.000882 310.540101 
L 162.097378 310.630525 
L 162.27107 310.770272 
L 162.512309 310.967561 
L 162.589506 311.016884 
L 162.705301 311.099088 
L 162.782498 311.197732 
L 162.96584 311.296377 
L 163.17813 311.386801 
L 163.332523 311.477226 
L 163.457968 311.55943 
L 163.583412 311.658074 
L 163.593062 311.641634 
L 163.805353 311.542989 
L 163.940447 311.510107 
L 163.950096 311.542989 
L 163.998344 311.477226 
L 164.036942 311.477226 
L 164.162387 311.411463 
L 164.258883 311.477226 
L 164.278182 311.427903 
L 164.413276 311.411463 
L 164.519421 311.312818 
L 164.654515 311.296377 
L 165.165943 311.214173 
L 165.310686 311.099088 
L 165.339635 311.099088 
L 176.841929 306.232614 
L 177.295459 306.643634 
L 177.5174 306.738169 
L 177.584947 306.76283 
L 177.604246 306.717618 
L 177.73934 306.520328 
L 177.855135 306.487447 
L 178.202519 306.216174 
L 178.289366 306.187402 
L 178.308665 306.162741 
L 178.492007 306.092868 
L 178.607802 306.084647 
L 179.302571 306.175072 
L 179.428016 306.207953 
L 179.56311 306.232614 
L 180.045588 306.125749 
L 180.277178 305.821595 
L 180.441221 305.71473 
L 180.817554 305.529771 
L 180.971948 305.550322 
L 181.222837 305.213286 
L 181.444777 304.798156 
L 182.158845 304.013108 
L 182.178145 304.037769 
L 182.187794 304.06243 
L 182.255341 303.976116 
L 182.264991 303.976116 
L 182.448333 303.778827 
L 182.50623 303.766496 
L 182.51588 303.717174 
L 182.535179 303.717174 
L 182.892213 303.63086 
L 183.027307 303.462342 
L 183.19135 303.351366 
L 183.355393 303.00611 
L 183.538735 302.5992 
L 183.770325 302.147079 
L 183.86682 302.073095 
L 183.992265 301.941569 
L 184.001914 301.953899 
L 184.474744 302.060764 
L 184.687034 302.241613 
L 184.880026 301.440125 
L 185.034419 301.189403 
L 185.082667 301.189403 
L 185.121265 301.12775 
L 185.198462 301.033215 
L 185.46865 300.642746 
L 185.729188 300.531771 
L 185.854633 300.470118 
L 186.327462 300.556432 
L 186.443257 300.71673 
L 186.472206 300.692069 
L 186.59765 300.803044 
L 186.713445 300.914019 
L 186.732744 300.901689 
L 186.83889 300.955121 
L 186.867838 300.901689 
L 186.916086 300.482449 
L 187.186274 298.558877 
L 187.359967 296.532549 
L 187.881044 291.148191 
L 188.315275 284.284162 
L 189.289882 262.212404 
L 189.849557 256.458129 
L 189.946053 256.252619 
L 189.975002 256.375925 
L 190.003951 256.417027 
L 190.746968 267.267947 
L 190.804865 267.96668 
L 191.441737 274.296384 
L 191.83737 281.612534 
L 191.875968 282.14686 
L 192.339148 288.147748 
L 192.676883 290.531662 
L 192.725131 290.49056 
L 193.111114 291.682517 
L 193.140063 291.764721 
L 193.265507 291.888027 
L 193.275157 291.846925 
L 193.313755 292.011333 
L 193.342704 292.011333 
L 193.371652 292.052435 
L 193.535695 292.504556 
L 193.583943 292.545658 
L 193.719037 292.874474 
L 193.931328 293.326596 
L 193.979576 293.367698 
L 194.143618 293.819819 
L 194.172567 293.902023 
L 194.33661 294.148635 
L 194.365559 294.230839 
L 194.481354 294.313043 
L 194.693644 294.230839 
L 194.838388 293.326596 
L 194.876986 293.326596 
L 195.01208 292.99778 
L 195.195422 292.668964 
L 195.282268 292.58676 
L 195.407713 292.504556 
L 195.427012 292.422352 
L 195.552457 292.340148 
L 195.648952 292.340148 
L 195.764747 292.175741 
L 195.832294 292.093537 
L 195.957739 292.011333 
L 196.044585 291.970231 
L 196.170029 291.846925 
L 196.247226 291.888027 
L 196.37267 292.011333 
L 196.498115 292.052435 
L 196.61391 292.175741 
L 196.864799 292.134639 
L 196.980594 292.011333 
L 197.009542 291.970231 
L 197.134987 291.846925 
L 197.221833 291.805823 
L 197.347278 291.682517 
L 197.74291 291.600313 
L 197.858705 291.518109 
L 197.916603 291.559211 
L 197.96485 291.518109 
L 198.321885 291.559211 
L 198.466628 291.846925 
L 198.514876 291.846925 
L 198.65962 292.340148 
L 198.997355 293.326596 
L 199.190347 293.285494 
L 199.33509 292.833372 
L 199.34474 292.833372 
L 201.091313 264.884032 
L 201.110612 264.801828 
L 201.236057 264.514115 
L 202.413305 269.117535 
L 202.432604 269.076433 
L 202.451903 269.199739 
L 202.480852 269.199739 
L 202.635245 269.816269 
L 202.673843 269.898473 
L 202.905433 271.29594 
L 203.127373 273.18663 
L 203.831792 283.544327 
L 204.169528 288.394359 
L 204.816049 295.29949 
L 204.825699 295.29949 
L 205.076588 297.740947 
L 205.491519 300.71673 
L 206.215238 304.650189 
L 206.736315 306.244945 
L 206.910007 306.709397 
L 207.016152 306.943678 
L 207.74952 307.712285 
L 208.058307 307.613641 
L 208.89782 305.965452 
L 209.389948 304.514552 
L 209.496093 304.600866 
L 209.718034 305.883248 
L 210.268059 308.419239 
L 210.71194 309.159075 
L 210.827735 309.257719 
L 211.078624 309.47145 
L 211.252316 309.553654 
L 211.358461 309.586535 
L 211.368111 309.553654 
L 211.561103 309.434458 
L 211.638299 309.422127 
L 211.647949 309.405686 
L 211.773393 309.290601 
L 211.792692 309.307042 
L 211.821641 309.339923 
L 211.908487 309.290601 
L 212.06288 309.422127 
L 212.197975 309.504331 
L 212.362017 309.668739 
L 212.497111 309.767384 
L 212.786599 310.046877 
L 212.883094 310.145522 
L 213.047137 310.30993 
L 213.162932 310.375693 
L 213.298026 310.490779 
L 213.404171 310.589423 
L 213.606813 310.72095 
L 213.712958 310.811374 
L 213.88665 310.967561 
L 214.002445 311.033325 
L 214.147189 311.214173 
L 214.262984 311.230614 
L 214.388428 311.312818 
L 214.513873 311.36214 
L 214.735813 311.477226 
L 215.26654 311.460785 
L 215.276189 311.210063 
L 215.372685 311.36214 
L 215.449882 311.263496 
L 215.536728 311.247055 
L 215.556027 311.263496 
L 215.681471 311.296377 
L 215.787617 311.386801 
L 215.94201 311.477226 
L 216.1736 311.674515 
L 216.183249 311.641634 
L 216.250796 311.789601 
L 216.453437 311.921127 
L 216.559583 312.023882 
L 216.675378 312.085535 
L 216.704326 312.036213 
L 216.810472 312.138968 
L 217.042062 312.266384 
L 217.331549 312.365028 
L 217.437694 312.455453 
L 217.495592 312.151298 
L 217.563139 312.217061 
L 217.881575 312.328037 
L 217.97807 312.365028 
L 218.007019 312.315706 
L 218.142113 312.407774 
L 218.277207 312.467372 
L 218.354404 312.455453 
L 218.383353 312.503131 
L 219.232515 312.526148 
L 219.251814 312.315706 
L 219.338661 312.549165 
L 219.608849 312.650687 
L 219.666746 312.68398 
L 219.714994 312.628492 
L 219.946584 312.726726 
L 219.965883 312.68398 
L 220.04308 312.799887 
L 220.129926 312.767828 
L 220.139575 312.747277 
L 220.284319 312.68398 
L 220.602755 312.595199 
L 220.641353 312.163629 
L 220.737849 312.467372 
L 220.843994 312.560674 
L 220.853644 312.537657 
L 220.901892 312.503131 
L 220.94049 312.572182 
L 220.95014 312.560674 
L 221.027336 312.549165 
L 221.046635 312.503131 
L 222.07914 312.397088 
L 222.137037 312.365028 
L 222.165986 312.455453 
L 222.175636 312.455453 
L 222.233533 312.525737 
L 222.243183 312.278714 
L 222.30108 312.549165 
L 222.339679 312.503131 
L 222.590568 312.63959 
L 222.851106 312.737001 
L 222.9862 312.767828 
L 223.237089 312.850032 
L 223.333585 312.891134 
L 223.352884 312.880858 
L 223.44938 312.891134 
L 223.468679 312.860307 
L 223.603773 312.810574 
L 223.632722 312.840167 
L 223.835363 312.900998 
L 223.999406 312.891134 
L 224.095901 312.840167 
L 224.105551 312.747688 
L 224.153799 312.850032 
L 224.202047 312.850032 
L 224.308192 312.767828 
L 224.375739 312.68398 
L 224.423987 312.726726 
L 224.694175 312.617394 
L 224.80997 312.616983 
L 224.819619 312.63959 
L 225.04156 312.737001 
L 225.176654 312.767828 
L 225.977569 312.68398 
L 226.286355 311.98689 
L 226.334603 311.896466 
L 226.460047 311.806042 
L 226.469697 311.855364 
L 226.604791 311.871805 
L 226.681988 311.970449 
L 226.797783 312.036213 
L 226.817082 311.98689 
L 226.84603 311.76494 
L 226.932877 311.575871 
L 226.961825 311.674515 
L 227.000424 311.77316 
L 227.193415 312.036213 
L 227.328509 312.126637 
L 227.357458 312.101976 
L 227.598697 312.51464 
L 227.77239 312.617394 
L 227.936432 312.68398 
L 227.946082 312.672882 
L 228.061877 312.63959 
L 228.389962 312.747277 
L 228.505757 312.767828 
L 228.515407 312.757552 
L 228.824193 312.860307 
L 228.930339 312.900998 
L 228.949638 312.891134 
L 229.084732 312.891134 
L 229.181228 312.891134 
L 229.200527 312.860307 
L 229.306672 312.891134 
L 229.393518 312.920727 
L 229.412818 312.900998 
L 229.432117 312.716039 
L 229.528612 312.726726 
L 229.769852 312.830303 
L 229.866348 312.799887 
L 229.875997 312.789201 
L 230.059339 312.63959 
L 230.146185 312.560674 
L 230.27163 312.503131 
L 231.043596 312.51464 
L 231.053245 312.333791 
L 231.130442 312.537657 
L 231.149741 312.503131 
L 231.284835 312.63959 
L 231.304134 312.549165 
L 231.313784 312.479292 
L 231.352382 312.595199 
L 231.40063 312.595199 
L 231.535724 312.491211 
L 231.719066 312.175959 
L 231.728716 312.20062 
L 231.85416 312.151298 
L 231.989254 312.151298 
L 232.114699 312.069094 
L 232.240143 312.036213 
L 232.925263 312.138968 
L 233.282297 312.455453 
L 233.369144 312.386401 
L 233.388443 312.467372 
L 233.513887 312.526148 
L 233.523537 312.51464 
L 233.735827 312.595199 
L 234.034964 312.694666 
L 234.170058 312.767828 
L 234.324452 312.870583 
L 234.478845 312.940045 
L 234.768332 313.05102 
L 234.999922 313.120072 
L 235.135016 313.11144 
L 235.144665 313.128703 
L 235.385905 313.203509 
L 235.858734 313.305441 
L 236.022777 313.35723 
L 236.360512 313.258585 
L 236.370162 313.161996 
L 236.476307 313.211729 
L 236.804392 313.305441 
L 236.949136 313.371616 
L 237.518461 313.473137 
L 237.653555 313.479714 
L 238.45447 313.584113 
L 238.589564 313.577947 
L 238.724658 313.617816 
L 241.011607 313.596443 
L 241.030907 313.219127 
L 241.127402 313.499443 
L 241.474787 313.392578 
L 241.966915 313.162407 
L 242.073061 313.137334 
L 242.179206 313.102809 
L 242.198505 313.11144 
L 242.526591 313.006219 
L 243.144164 312.266384 
L 243.298557 312.036213 
L 243.424001 311.937568 
L 243.559095 311.921127 
L 243.819634 312.023882 
L 244.157369 312.278714 
L 244.244215 312.278714 
L 244.186318 312.303375 
L 244.253865 312.315706 
L 244.398609 312.365028 
L 244.427557 312.303375 
L 244.504754 312.365028 
L 244.890737 312.455453 
L 245.04513 312.549165 
L 245.73025 312.650687 
L 245.865344 312.68398 
L 246.425019 312.595199 
L 246.656609 312.175959 
L 246.936447 311.164851 
L 247.148738 310.441456 
L 247.370678 309.866029 
L 247.534721 309.602976 
L 247.756661 309.701621 
L 247.968952 310.046877 
L 248.046148 310.129081 
L 248.190892 310.30993 
L 248.509328 310.211285 
L 248.528627 310.244167 
L 248.654071 310.178404 
L 249.165499 310.277048 
L 249.319892 310.425015 
L 249.416388 310.51544 
L 249.638328 310.786713 
L 249.754123 310.885357 
L 250.082209 311.230614 
L 250.255901 311.329259 
L 250.468192 311.493667 
L 250.477841 311.477226 
L 250.49714 311.542989 
L 250.564687 311.542989 
L 251.568243 311.98689 
L 252.494602 311.884135 
L 252.687594 311.806042 
L 253.083227 311.723838 
L 253.131474 311.542989 
L 253.208671 311.608752 
L 253.324466 311.674515 
L 253.343765 311.658074 
L 253.45956 311.592311 
L 253.46921 311.608752 
L 254.511364 311.526548 
L 254.704355 311.230614 
L 254.791202 311.230614 
L 254.800851 311.214173 
L 254.964894 311.033325 
L 255.04209 310.951121 
L 255.206133 310.688068 
L 255.466672 310.178404 
L 255.524569 310.0962 
L 255.669313 309.915351 
L 255.987749 309.586535 
L 256.122843 309.602976 
L 256.846561 309.68518 
L 256.856211 309.718061 
L 256.87551 309.668739 
L 256.952706 309.668739 
L 257.579929 309.570094 
L 257.888715 309.208397 
L 257.908014 309.224838 
L 257.917664 309.241279 
L 257.965912 309.159075 
L 257.994861 309.159075 
L 258.139604 308.961785 
L 258.255399 308.86314 
L 258.400143 308.682292 
L 258.593134 308.567206 
L 259.133511 308.64941 
L 259.268605 308.764496 
L 259.3651 308.86314 
L 259.509844 308.961785 
L 259.60634 309.043989 
L 259.751083 309.159075 
L 259.876528 309.257719 
L 260.05987 309.356364 
L 260.320408 309.446788 
L 260.407255 309.47145 
L 260.436203 309.446788 
L 260.561648 309.446788 
L 260.716041 309.356364 
L 260.96693 309.142634 
L 261.073075 309.043989 
L 261.285366 308.896022 
L 261.951187 308.994667 
L 262.066982 309.043989 
L 262.076631 309.027548 
L 262.240674 309.093312 
L 262.916144 309.011108 
L 263.080187 308.8467 
L 263.215281 308.764496 
L 263.369674 308.632969 
L 263.504768 308.534325 
L 263.668811 308.353476 
L 263.803905 308.263052 
L 263.987247 308.057542 
L 263.996897 308.073983 
L 264.296034 307.778048 
L 264.37323 307.687624 
L 264.59517 307.416351 
L 264.60482 307.432792 
L 264.662717 307.342368 
L 264.884658 307.079315 
L 265.000453 306.96834 
L 265.328538 306.725838 
L 265.675923 306.824483 
L 265.859265 307.087535 
L 265.917162 307.169739 
L 266.139102 307.547877 
L 266.235598 307.646522 
L 266.65053 308.135636 
L 266.911069 308.320594 
L 266.930368 308.287713 
L 266.988265 308.353476 
L 267.017214 308.353476 
L 268.358505 308.295933 
L 268.368154 308.22195 
L 268.435701 308.353476 
L 268.455001 308.353476 
L 269.680497 308.263052 
L 269.815591 308.205509 
L 269.912087 308.106864 
L 270.433164 307.432792 
L 270.500711 307.330037 
L 271.272677 306.499777 
L 271.378822 306.462785 
L 271.687608 306.569651 
L 271.861301 306.725838 
L 271.967446 306.824483 
L 272.141139 306.993001 
L 272.150788 306.98067 
L 272.208686 307.054654 
L 272.227985 307.054654 
L 273.839464 308.287713 
L 274.582481 308.369917 
L 274.707926 308.43979 
L 274.746524 308.419239 
L 274.785122 308.501443 
L 274.804421 308.480892 
L 274.83337 308.501443 
L 274.862319 308.419239 
L 274.871968 308.419239 
L 275.045661 307.991779 
L 275.634285 307.202621 
L 275.798328 307.112197 
L 275.952721 307.005331 
L 276.068516 306.898466 
L 276.280807 306.725838 
L 276.290456 306.738169 
L 276.811533 305.92846 
L 276.965926 305.566762 
L 277.815089 303.680182 
L 277.921234 303.569207 
L 278.114226 302.422462 
L 278.384414 299.853589 
L 278.596705 299.335704 
L 279.069534 298.904133 
L 279.223927 298.793158 
L 279.783602 298.456122 
L 279.957295 298.349257 
L 280.362577 297.601201 
L 280.372227 297.601201 
L 280.51697 296.943569 
L 280.536269 296.943569 
L 280.671363 296.614753 
L 280.816107 296.285938 
L 280.845056 296.285938 
L 280.960851 296.12153 
L 281.163492 296.162632 
L 281.288936 296.450345 
L 281.337184 296.368142 
L 281.385432 296.285938 
L 281.404731 296.450345 
L 281.43368 296.450345 
L 281.462629 296.491447 
L 281.617022 297.107977 
L 281.636321 297.107977 
L 281.829313 298.530105 
L 282.398637 302.562208 
L 282.408287 302.553988 
L 282.437236 302.480005 
L 282.485484 302.648523 
L 282.707424 303.454121 
L 282.736373 303.314375 
L 282.746022 303.306154 
L 282.78462 303.388358 
L 282.871467 303.519884 
L 282.900415 303.43768 
L 282.967962 303.174628 
L 283.083757 302.073095 
L 283.450441 298.176628 
L 283.498689 298.119085 
L 283.556587 298.201289 
L 283.749578 298.978117 
L 284.637339 302.969118 
L 284.733835 303.256832 
L 285.380356 305.759942 
L 286.055827 306.956009 
L 286.258468 307.054654 
L 287.011135 308.123305 
L 287.088331 308.22195 
L 287.281323 308.369917 
L 287.290972 308.353476 
L 287.387468 308.43979 
L 287.512913 308.632969 
L 287.773451 308.896022 
L 287.783101 308.86314 
L 287.850648 308.961785 
L 287.869947 308.961785 
L 288.149785 309.224838 
L 288.24628 309.323483 
L 288.535768 309.602976 
L 288.622614 309.68518 
L 288.757708 309.800265 
L 288.873503 309.89891 
L 289.095443 310.063318 
L 289.182289 310.046877 
L 289.201588 310.079759 
L 289.38493 310.178404 
L 289.684067 310.277048 
L 289.857759 310.375693 
L 289.896358 310.359252 
L 289.877059 310.392134 
L 289.954255 310.425015 
L 290.118298 310.51544 
L 290.243742 310.540101 
L 291.720128 310.642856 
L 292.164008 311.033325 
L 292.250854 311.115528 
L 292.395598 311.230614 
L 292.472794 311.312818 
L 292.636837 311.477226 
L 292.916675 311.740278 
L 293.119316 311.822482 
L 293.186863 311.884135 
L 293.196513 311.871805 
L 293.215812 311.608752 
L 293.302658 311.806042 
L 293.389504 311.723838 
L 293.611444 311.164851 
L 293.746538 311.247055 
L 293.92988 311.608752 
L 294.016727 311.690956 
L 294.180769 311.871805 
L 294.277265 311.970449 
L 294.450957 312.069094 
L 294.489556 312.052653 
L 294.557103 312.101976 
L 294.692197 312.101976 
L 295.232573 312.20062 
L 295.367667 312.266384 
L 295.53171 312.18829 
L 295.99489 310.852476 
L 296.110684 310.951121 
L 296.20718 310.967561 
L 296.226479 310.951121 
L 296.458069 310.540101 
L 296.544915 310.441456 
L 296.680009 310.425015 
L 297.451976 310.52777 
L 297.837959 310.885357 
L 297.915155 310.852476 
L 297.886206 310.93468 
L 297.944104 310.918239 
L 298.079198 311.14841 
L 298.25289 310.490779 
L 298.320437 310.425015 
L 298.571326 309.434458 
L 298.870463 309.224838 
L 298.976608 309.142634 
L 299.488036 307.054654 
L 299.603831 307.268384 
L 299.787173 307.662963 
L 299.835421 307.572539 
L 299.84507 307.543767 
L 299.893318 307.712285 
L 300.08631 307.827371 
L 300.192455 307.728726 
L 300.395096 307.5972 
L 300.491592 307.687624 
L 300.819677 308.238391 
L 301.051267 308.189068 
L 301.060917 308.102754 
L 301.099515 308.287713 
L 301.147763 308.287713 
L 301.321455 307.214951 
L 301.697789 304.724172 
L 301.861832 303.322595 
L 302.508353 298.275273 
L 302.884687 296.409244 
L 303.241721 294.313043 
L 303.26102 294.230839 
L 303.531208 292.833372 
L 303.589106 292.79227 
L 303.71455 292.504556 
L 303.994388 295.751612 
L 304.467217 306.594312 
L 304.747055 307.905465 
L 305.094439 308.797377 
L 305.480422 309.734502 
L 305.53832 309.800265 
L 305.712012 310.11264 
L 305.798858 310.211285 
L 305.876055 310.30993 
L 305.905004 310.178404 
L 305.933953 310.260607 
L 306.088346 310.490779 
L 306.300636 310.556542 
L 306.44538 310.770272 
L 306.512927 310.786713 
L 306.532226 310.836035 
L 306.648021 310.93468 
L 306.841013 311.066206 
L 306.966457 311.033325 
L 306.976107 311.033325 
L 306.985756 310.659297 
L 307.053303 311.099088 
L 307.082252 311.099088 
L 307.410338 311.033325 
L 307.448936 310.967561 
L 307.516483 311.033325 
L 307.641927 310.951121 
L 308.056859 309.931792 
L 308.124406 310.009885 
L 308.404244 310.655186 
L 308.462141 310.73739 
L 308.606885 310.918239 
L 308.761278 310.967561 
L 308.963919 310.490779 
L 309.012167 310.392134 
L 309.205159 310.11264 
L 309.465697 310.178404 
L 309.591142 310.30993 
L 309.86133 310.375693 
L 309.996424 310.490779 
L 310.07362 310.425015 
L 310.112219 310.490779 
L 310.208715 310.671627 
L 310.247313 310.605864 
L 310.324509 310.688068 
L 310.517501 310.967561 
L 310.575398 311.033325 
L 310.720142 311.214173 
L 311.241219 311.884135 
L 311.559655 312.114306 
L 312.051783 311.542989 
L 312.090382 311.608752 
L 312.215826 311.690956 
L 312.418467 311.98689 
L 312.534262 312.085535 
L 312.659707 312.151298 
L 312.669356 312.138968 
L 312.765852 312.101976 
L 312.785151 312.114306 
L 312.920245 312.20062 
L 313.064989 312.291045 
L 313.229032 312.455453 
L 313.248331 312.011551 
L 313.344827 312.20062 
L 313.460622 312.266384 
L 313.576416 312.365028 
L 313.586066 312.352698 
L 313.653613 312.328037 
L 313.682562 312.386401 
L 313.856254 312.595199 
L 313.865904 312.526148 
L 313.875553 312.503131 
L 313.923801 312.595199 
L 313.95275 312.595199 
L 314.203639 312.716039 
L 314.39663 312.767828 
L 314.512425 311.999221 
L 314.522075 312.011551 
L 314.763314 312.151298 
L 314.85981 312.114306 
L 314.908058 311.871805 
L 314.975605 311.98689 
L 315.08175 311.98689 
L 315.0914 311.719727 
L 315.197545 311.740278 
L 315.400186 311.115528 
L 315.660725 310.474338 
L 315.911614 309.750943 
L 316.837973 308.369917 
L 316.847623 308.402798 
L 316.876571 308.353476 
L 316.944118 308.353476 
L 317.088862 308.287713 
L 317.098512 308.320594 
L 317.175708 308.250721 
L 317.185358 308.250721 
L 317.474845 308.353476 
L 317.841529 308.764496 
L 317.957324 308.813818 
L 317.995922 308.896022 
L 318.063469 308.830259 
L 318.700341 307.054654 
L 318.748589 306.956009 
L 319.124922 306.294267 
L 319.260017 306.364141 
L 319.453008 305.72295 
L 319.520555 305.550322 
L 319.742495 302.311486 
L 319.771444 302.38547 
L 319.954786 303.149967 
L 320.292521 304.798156 
L 320.582008 305.71473 
L 320.678504 305.772272 
L 320.967991 305.665407 
L 321.122385 305.410575 
L 321.518017 304.309042 
L 321.595214 304.198067 
L 321.759257 303.988447 
L 322.12594 303.667851 
L 322.502274 304.933792 
L 322.946154 306.199733 
L 323.26459 307.317706 
L 323.592676 308.419239 
L 323.640924 308.517884 
L 323.776018 308.830259 
L 325.011164 310.72095 
L 325.049762 310.811374 
L 325.252403 311.033325 
L 325.368198 311.115528 
L 325.512942 311.230614 
L 325.648036 311.329259 
L 325.792779 311.36214 
L 326.371754 311.444344 
L 326.497198 311.477226 
L 326.777036 311.374471 
L 326.805985 311.329259 
L 326.863882 311.411463 
L 326.998976 311.56765 
L 327.105122 311.641634 
L 327.288463 311.752609 
L 327.433207 311.826593 
L 327.626199 311.904686 
L 327.770942 311.921127 
L 328.755199 311.838923 
L 328.899943 311.641634 
L 328.977139 311.551209 
L 329.150832 311.411463 
L 329.353473 311.312818 
L 329.585062 311.131969 
L 330.221934 311.234724 
L 330.463174 311.411463 
L 330.472823 311.386801 
L 330.54037 311.411463 
L 330.501772 311.411463 
L 330.55967 311.427903 
L 330.694764 311.575871 
L 330.829858 311.653964 
L 330.964952 311.740278 
L 331.157943 311.851254 
L 331.206191 311.801931 
L 331.350935 311.921127 
L 331.563225 312.019772 
L 331.707969 312.101976 
L 332.093952 312.212951 
L 332.209747 312.249943 
L 332.615029 312.348588 
L 332.692226 312.373249 
L 332.730824 312.348588 
L 332.914166 312.407363 
L 333.309799 312.513406 
L 333.50279 312.568894 
L 333.801927 312.672882 
L 333.96597 312.708641 
L 334.438799 312.811807 
L 334.612491 312.845099 
L 335.587099 312.953609 
L 335.731842 312.974982 
L 335.741492 312.964295 
L 336.870492 312.856197 
L 337.063484 312.800709 
L 337.439817 312.708641 
L 337.584561 312.568894 
L 337.758253 312.469016 
L 337.951245 312.299265 
L 338.790758 312.18829 
L 339.022347 312.069094 
L 339.19604 311.958119 
L 339.360083 311.76494 
L 339.620621 311.399132 
L 339.630271 311.411463 
L 339.688168 311.325148 
L 339.697818 311.337479 
L 339.852211 311.247055 
L 341.270699 311.34981 
L 341.434741 311.386801 
L 341.540887 311.399132 
L 341.454041 311.411463 
L 341.550536 311.411463 
L 342.052314 311.312818 
L 342.283904 311.131969 
L 342.486545 311.020994 
L 342.727785 310.885357 
L 343.73134 310.786713 
L 343.866434 310.712729 
L 343.982229 310.73739 
L 344.117323 310.73739 
L 344.619101 310.655186 
L 344.734896 310.622305 
L 344.86999 310.638746 
L 345.062982 310.52366 
L 345.304221 310.425015 
L 346.047239 309.356364 
L 346.056888 309.368695 
L 346.114786 309.27416 
L 346.288478 309.06454 
L 346.375324 308.953565 
L 346.770957 308.238391 
L 346.809555 308.160297 
L 347.012196 307.478004 
L 347.021846 307.502665 
L 347.089393 307.379359 
L 347.108692 307.39169 
L 347.137641 307.305376 
L 347.427128 306.392912 
L 347.658718 305.50511 
L 347.899957 304.67074 
L 348.035051 304.226838 
L 348.334188 303.495223 
L 348.614026 303.117085 
L 348.951761 302.336148 
L 349.000009 302.229283 
L 349.241248 301.612753 
L 349.578983 300.655077 
L 350.215855 299.541214 
L 350.350949 299.652189 
L 350.910625 302.221062 
L 351.46065 304.831037 
L 351.769437 305.747611 
L 351.865933 305.961341 
L 352.184369 306.479226 
L 352.251916 306.590202 
L 352.879138 307.219062 
L 353.004583 307.317706 
L 353.158976 307.441012 
L 353.168625 307.428682 
L 353.236172 307.514996 
L 353.245822 307.490335 
L 353.535309 307.687624 
L 353.622155 307.712285 
L 353.564258 307.712285 
L 353.631805 307.724616 
L 353.766899 307.81093 
L 353.795848 307.773938 
L 353.824797 307.81093 
L 353.901993 307.81093 
L 355.088891 307.921905 
L 355.214335 307.958897 
L 355.223985 307.946567 
L 355.243284 307.847922 
L 355.33013 307.958897 
L 355.33978 307.934236 
L 355.416977 308.00822 
L 355.426626 308.00822 
L 355.629267 308.098644 
L 355.774011 308.172627 
L 356.642473 308.086313 
L 356.845114 307.81093 
L 356.92231 307.712285 
L 357.211798 305.673628 
L 357.520584 303.552766 
L 358.051311 299.726173 
L 358.29255 294.395247 
L 358.610986 285.352814 
L 358.98732 277.091318 
L 359.402251 254.896254 
L 359.836482 228.344381 
L 360.212816 222.549003 
L 360.222465 222.713411 
L 360.280363 222.302391 
L 360.299662 222.425697 
L 360.386508 221.973576 
L 360.425106 222.137983 
L 360.579499 223.617654 
L 360.637397 223.453246 
L 360.666346 221.809168 
L 360.859337 211.040452 
L 360.878636 210.958248 
L 360.917235 211.451471 
L 361.129525 214.081997 
L 361.148824 213.670978 
L 361.351466 207.25907 
L 362.596261 111.820296 
L 362.663808 114.286414 
L 362.885748 128.261084 
L 363.889304 204.299728 
L 364.333184 227.029118 
L 364.728817 239.441913 
L 364.786714 240.83938 
L 365.037603 247.004675 
L 366.282399 271.172634 
L 366.851724 275.077321 
L 367.073664 275.570545 
L 367.189459 275.241729 
L 367.199108 275.323933 
L 367.257006 275.406137 
L 367.218408 275.282831 
L 367.285955 275.282831 
L 367.61404 269.816269 
L 367.971074 255.964905 
L 368.434254 217.205747 
L 368.723741 192.462361 
L 368.839536 190.900486 
L 368.878135 191.475914 
L 369.235169 196.901374 
L 369.273767 196.654762 
L 369.293066 196.983578 
L 369.331665 196.901374 
L 369.746596 210.300616 
L 370.074682 225.426141 
L 370.634357 237.92114 
L 370.672956 237.880038 
L 370.721204 238.003344 
L 370.692255 237.838936 
L 370.750152 237.880038 
L 370.923845 236.811387 
L 371.058939 235.783838 
L 371.136135 235.496124 
L 371.184383 235.578328 
L 371.194033 235.61943 
L 371.232631 235.372818 
L 371.280879 235.578328 
L 371.290528 235.537226 
L 371.329127 235.82494 
L 371.338776 235.783838 
L 371.734409 240.099544 
L 372.014247 245.237291 
L 372.081794 246.67586 
L 372.332683 250.703853 
L 372.342332 250.210629 
L 372.487076 249.018672 
L 372.496725 249.100876 
L 372.554623 248.730958 
L 372.573922 248.895366 
L 372.660768 248.730958 
L 372.670418 248.854264 
L 372.728315 248.936468 
L 372.689717 248.77206 
L 372.776563 248.895366 
L 372.921307 247.744511 
L 373.162546 246.429248 
L 373.172196 246.67586 
L 373.181845 246.388146 
L 373.268691 246.388146 
L 373.278341 246.305942 
L 373.345888 246.47035 
L 373.355538 246.429248 
L 373.548529 247.662307 
L 373.587127 247.333491 
L 373.645025 247.703409 
L 373.905563 250.703853 
L 374.098555 254.033112 
L 374.735427 265.336154 
L 374.802974 266.07599 
L 375.024914 268.542108 
L 376.211812 279.598538 
L 376.646043 283.790939 
L 376.655693 283.790939 
L 376.732889 283.996449 
L 376.771487 283.955347 
L 376.810086 283.873143 
L 377.717146 275.282831 
L 378.257522 265.25395 
L 378.286471 265.336154 
L 378.325069 265.377256 
L 378.575958 268.459904 
L 378.826847 270.843818 
L 378.846146 270.720512 
L 378.894394 271.008226 
L 378.952292 270.967124 
L 379.415471 266.07599 
L 379.579514 262.828934 
L 380.013745 239.811831 
L 380.264634 229.536338 
L 380.669916 242.565663 
L 381.277839 265.911582 
L 381.654173 278.365479 
L 382.348942 295.792714 
L 382.879669 299.397357 
L 383.516541 301.407243 
L 383.680584 301.793602 
L 383.950772 302.549878 
L 385.639447 285.27061 
L 386.025431 274.748505 
L 386.26667 264.267503 
L 386.758798 229.002012 
L 387.028986 203.724301 
L 387.144781 196.243742 
L 387.202679 193.407706 
L 387.260576 195.133989 
L 387.328123 197.970025 
L 387.926397 227.152424 
L 388.273782 239.236403 
L 388.283431 238.208854 
L 388.293081 237.838936 
L 388.350978 239.606321 
L 388.611517 246.182636 
L 388.621166 246.141534 
L 388.659765 246.388146 
L 388.688713 246.552554 
L 388.746611 246.388146 
L 388.862406 246.223738 
L 388.785209 246.429248 
L 388.872055 246.26484 
L 388.881705 246.26484 
L 389.605423 233.317719 
L 389.711568 233.934249 
L 390.36774 248.032225 
L 390.396688 248.073327 
L 390.406338 248.155531 
L 390.464235 247.785613 
L 390.570381 246.552554 
L 390.705475 242.524561 
L 390.908116 236.235959 
L 391.2748 199.696308 
L 391.612535 153.744305 
L 391.622184 153.908713 
L 391.680082 152.757858 
L 391.737979 153.785407 
L 391.892373 158.306624 
L 391.911672 158.471032 
L 391.95992 157.895604 
L 391.979219 158.42993 
L 392.191509 151.278187 
L 392.895928 189.790733 
L 392.905578 189.790733 
L 392.934527 190.242855 
L 392.924877 189.585223 
L 392.992424 189.585223 
L 393.117869 181.036013 
L 393.291561 158.01891 
L 393.648595 68.663227 
L 393.880185 37.42573 
L 393.947732 36.19267 
L 393.976681 38.658789 
L 394.188972 64.55303 
L 394.43986 107.299079 
L 394.758296 142.646773 
L 395.009185 162.663433 
L 395.018835 161.512577 
L 395.076732 167.801179 
L 395.289023 178.446589 
L 395.298673 178.323283 
L 395.317972 179.309731 
L 395.36622 181.036013 
L 395.636408 197.312393 
L 395.974143 215.232852 
L 395.983793 213.136652 
L 396.070639 217.370155 
L 396.524169 229.043114 
L 396.562767 229.330828 
L 396.71716 231.509233 
L 396.890853 233.317719 
L 396.919801 232.207966 
L 396.996998 233.317719 
L 397.025947 233.728739 
L 397.373331 240.551666 
L 397.392631 240.469462 
L 397.469827 240.305054 
L 397.489126 240.510564 
L 397.508426 240.510564 
L 397.672468 241.455909 
L 397.701417 241.455909 
L 397.894409 243.716518 
L 397.933007 244.333047 
L 398.174246 251.731402 
L 398.463734 260.897141 
L 398.676024 264.801828 
L 398.917264 266.528111 
L 398.99446 266.733621 
L 399.033058 266.569213 
L 399.129554 265.911582 
L 399.312896 263.650973 
L 399.390093 262.870036 
L 399.650631 260.609428 
L 399.718178 260.897141 
L 399.988366 264.966236 
L 400.239255 271.131532 
L 400.654187 281.612534 
L 401.011222 284.941794 
L 401.127016 283.092205 
L 401.310358 276.885808 
L 401.918282 243.511008 
L 402.41041 195.503907 
L 402.574453 182.762296 
L 402.584102 183.008908 
L 403.027983 200.025124 
L 403.240273 203.888709 
L 403.336769 203.477689 
L 403.346419 203.477689 
L 403.935043 186.461473 
L 403.944693 186.831391 
L 403.954342 186.584779 
L 404.021889 187.694532 
L 404.031539 187.694532 
L 406.106197 262.993342 
L 407.997514 293.326596 
L 408.132608 294.313043 
L 408.354549 295.792714 
L 408.373848 295.874918 
L 408.885275 299.286381 
L 409.213361 300.70851 
L 409.367754 301.172962 
L 409.68619 301.958009 
L 409.90813 302.319707 
L 409.937079 302.303266 
L 410.023925 302.221062 
L 410.525703 300.889358 
L 410.59325 300.692069 
L 410.805541 300.182404 
L 410.998532 300.108421 
L 411.133626 300.133082 
L 411.365216 299.808376 
L 411.625755 299.228839 
L 411.770498 299.05621 
L 411.905592 298.998668 
L 412.252977 299.080872 
L 412.561764 299.968674 
L 412.571413 299.902911 
L 412.581063 299.845368 
L 412.63896 300.1002 
L 413.845157 303.824039 
L 414.067097 304.420018 
L 414.375884 305.168073 
L 414.655721 305.685958 
L 414.819764 305.903799 
L 414.90661 305.998333 
L 415.215397 306.491557 
L 415.553132 307.083425 
L 415.736474 307.367029 
L 415.83297 307.465673 
L 416.103158 307.860252 
L 416.228602 307.958897 
L 416.402295 308.123305 
L 416.537389 308.123305 
L 416.826876 308.189068 
L 416.952321 308.287713 
L 417.077765 308.374027 
L 417.251457 308.550766 
L 417.347953 308.600088 
L 417.473398 308.702843 
L 417.733936 308.86314 
L 417.955876 308.953565 
L 418.10062 309.027548 
L 418.129569 309.126193 
L 418.32256 309.241279 
L 418.515552 309.344034 
L 418.78574 309.520772 
L 418.891885 309.467339 
L 419.065578 308.953565 
L 419.133125 308.86314 
L 419.876142 307.268384 
L 420.011236 307.367029 
L 420.194578 307.551988 
L 420.580561 307.453343 
L 420.898997 306.935458 
L 421.497271 306.244945 
L 421.535869 306.281937 
L 421.613066 306.35592 
L 421.670963 306.331259 
L 421.931502 306.442234 
L 422.269237 307.021772 
L 422.336784 307.132748 
L 422.520126 307.416351 
L 422.65522 307.514996 
L 422.790314 307.638302 
L 422.935057 307.761608 
L 423.041203 307.872583 
L 423.407887 308.172627 
L 423.504382 308.189068 
L 423.620177 308.250721 
L 423.629827 308.238391 
L 423.861417 308.172627 
L 423.986861 308.02466 
L 423.996511 308.057542 
L 424.131605 307.971228 
L 424.150904 308.00822 
L 424.218451 307.921905 
L 424.614084 307.317706 
L 424.787776 305.961341 
L 424.903571 305.377693 
L 425.685186 299.093202 
L 425.887828 298.571207 
L 425.897477 298.583538 
L 425.993973 298.813709 
L 426.302759 300.609865 
L 426.708041 301.382582 
L 426.717691 301.366141 
L 427.229119 300.798934 
L 428.049333 297.79027 
L 428.32917 297.436793 
L 428.406367 297.518997 
L 428.541461 297.625862 
L 428.715153 297.724507 
L 428.744102 297.749168 
L 429.294128 296.861365 
L 429.873102 292.833372 
L 429.892401 292.79227 
L 430.027496 292.175741 
L 430.249436 291.682517 
L 430.316983 291.600313 
L 430.345932 291.682517 
L 430.432778 291.518109 
L 430.645068 291.600313 
L 430.809111 291.846925 
L 430.847709 291.929129 
L 430.905607 291.888027 
L 430.982804 292.175741 
L 431.031051 292.257945 
L 431.224043 292.99778 
L 431.233692 292.99778 
L 431.378436 293.491004 
L 431.417034 293.573208 
L 431.552128 293.819819 
L 431.909163 293.737615 
L 432.063556 293.326596 
L 432.082855 293.285494 
L 432.314445 291.682517 
L 432.333744 291.600313 
L 432.526736 290.90158 
L 433.202206 287.57232 
L 433.501343 285.928241 
L 433.510992 285.928241 
L 433.713633 284.325264 
L 433.79083 283.626531 
L 434.765437 265.25395 
L 435.797942 233.358821 
L 435.807591 233.441025 
L 436.145326 239.071995 
L 436.579557 252.923359 
L 436.849746 259.705184 
L 437.226079 264.226401 
L 437.399771 264.966236 
L 437.41907 264.925134 
L 437.515566 264.884032 
L 437.679609 264.185299 
L 437.718207 264.103095 
L 438.200686 253.99201 
L 438.692814 239.894035 
L 438.750712 240.469462 
L 438.982302 246.223738 
L 439.821815 271.09043 
L 440.61308 279.84515 
L 440.84467 279.762946 
L 441.153456 278.858702 
L 441.192055 278.899804 
L 441.249952 278.8176 
L 441.259602 278.858702 
L 441.356097 278.735396 
L 441.375397 278.776498 
L 441.413995 278.735396 
L 441.491191 278.858702 
L 441.510491 278.8176 
L 441.597337 278.858702 
L 441.655234 278.899804 
L 441.713132 278.982008 
L 441.74208 278.858702 
L 441.76138 278.899804 
L 441.771029 278.899804 
L 441.886824 279.146416 
L 441.896474 279.105314 
L 442.089465 279.84515 
L 442.118414 279.886252 
L 442.321055 280.667189 
L 442.350004 280.708291 
L 442.504397 281.365922 
L 442.523696 281.448126 
L 442.600893 281.694738 
L 442.639491 281.489228 
L 443.015824 275.529443 
L 531.724373 197.394597 
L 531.917365 189.708529 
L 532.274399 169.69187 
L 532.341946 169.157544 
L 532.380545 169.445258 
L 532.805126 189.790733 
L 533.152511 208.985353 
L 533.62534 227.974463 
L 533.634989 227.810055 
L 533.663938 228.878707 
L 533.895528 234.550778 
L 534.445554 247.703409 
L 535.092075 259.170859 
L 535.256118 260.321714 
L 535.275417 260.44502 
L 535.294716 260.116204 
L 535.342964 260.157306 
L 535.43946 259.910694 
L 535.468409 260.034 
L 535.507007 259.992898 
L 535.555255 260.116204 
L 535.613152 260.198408 
L 535.642101 260.157306 
L 535.728947 260.403918 
L 535.748246 260.321714 
L 535.767546 260.486122 
L 535.825443 260.44502 
L 535.950888 260.609428 
L 536.11493 260.527224 
L 536.298272 259.869592 
L 536.307922 259.951796 
L 536.35617 259.705184 
L 536.385118 259.746286 
L 536.626358 258.020003 
L 536.693905 257.362372 
L 537.157085 251.361484 
L 537.224632 250.662751 
L 537.504469 248.402142 
L 537.514119 248.484346 
L 537.562367 247.950021 
L 537.572016 247.950021 
L 537.71676 247.333491 
L 537.726409 247.415695 
L 537.793957 247.045777 
L 538.054495 246.182636 
L 537.813256 247.086879 
L 538.064145 246.305942 
L 538.073794 246.388146 
L 538.102743 246.05933 
L 538.141341 246.141534 
L 538.257136 245.566106 
L 538.266786 245.771616 
L 538.286085 245.64831 
L 538.469427 246.716962 
L 538.479076 246.593656 
L 538.536974 247.251287 
L 539.241393 257.362372 
L 539.665974 261.431467 
L 539.685273 261.513671 
L 540.785325 278.365479 
L 541.605539 284.736284 
L 541.624838 284.612978 
L 541.653787 284.65408 
L 541.81783 285.106202 
L 541.866077 285.023998 
L 542.03012 282.681185 
L 542.213462 275.241729 
L 542.48365 267.55566 
L 543.072274 255.759395 
L 543.236317 253.745399 
L 543.274915 253.745399 
L 543.39071 253.375481 
L 543.40036 253.416583 
L 543.516155 254.320826 
L 545.079386 243.634314 
L 545.233779 244.826271 
L 545.243429 244.744067 
L 545.282027 245.155087 
L 545.301326 245.155087 
L 545.706609 247.662307 
L 545.725908 247.744511 
L 545.764506 248.032225 
L 545.841703 247.826715 
L 545.861002 247.908919 
L 545.8996 247.826715 
L 545.976797 248.073327 
L 545.986446 247.908919 
L 546.073292 248.278836 
L 546.198737 249.18308 
L 546.748763 263.075546 
L 547.03825 271.542552 
L 548.032156 286.585873 
L 549.344499 300.231727 
L 549.643635 301.666186 
L 550.965627 306.294267 
L 552.113927 308.928904 
L 552.133226 308.978226 
L 552.27797 308.978226 
L 552.470961 308.879581 
L 552.760448 308.600088 
L 552.895542 308.501443 
L 553.213978 307.39169 
L 553.41662 306.183292 
L 553.590312 305.747611 
L 553.686808 305.673628 
L 554.188586 303.322595 
L 554.246483 303.359587 
L 554.32368 303.404799 
L 554.342979 303.347256 
L 554.526321 302.977338 
L 554.613167 302.784159 
L 554.757911 302.492335 
L 555.288637 301.908687 
L 555.510577 301.037325 
L 555.742167 299.602867 
L 555.925509 298.863031 
L 555.935159 298.875362 
L 556.022005 298.768497 
L 556.070253 298.801378 
L 556.436937 300.038547 
L 556.726424 301.583982 
L 557.315048 305.735281 
L 557.614185 307.60131 
L 557.865074 308.489113 
L 558.038766 308.776826 
L 558.048416 308.632969 
L 558.058065 308.275382 
L 558.154561 308.452121 
L 558.212459 308.678182 
L 558.434399 309.570094 
L 559.167767 310.334591 
L 559.399356 310.437346 
L 559.804639 310.786713 
L 559.939733 310.762052 
L 559.949382 310.774382 
L 560.084476 310.671627 
L 560.354664 310.034547 
L 560.383613 310.046877 
L 560.393263 310.059208 
L 560.431861 309.960563 
L 560.441511 309.960563 
L 560.653801 309.47145 
L 560.750297 309.381025 
L 560.933639 309.216617 
L 560.943289 309.228948 
L 560.981887 309.142634 
L 561.001186 309.142634 
L 561.155579 308.85081 
L 561.435417 307.860252 
L 561.802101 306.207953 
L 561.937195 305.558542 
L 562.381075 304.526883 
L 562.390725 304.539213 
L 562.487221 304.646078 
L 562.670563 305.065318 
L 562.680212 305.020106 
L 562.689862 304.757054 
L 562.776708 305.324261 
L 562.873204 305.759942 
L 563.789913 310.638746 
L 563.799563 310.622305 
L 563.85746 310.72506 
L 564.040802 311.008663 
L 564.523281 311.477226 
L 564.54258 311.181292 
L 564.696973 311.263496 
L 564.861016 311.551209 
L 564.967162 311.653964 
L 565.266298 311.875915 
L 565.275948 311.838923 
L 565.304897 311.888245 
L 565.372444 311.896466 
L 565.710179 311.98278 
L 565.825974 312.093755 
L 565.845273 312.085535 
L 566.028615 312.18829 
L 566.211957 312.249943 
L 566.3567 312.274604 
L 566.36635 311.641634 
L 566.472495 311.690956 
L 566.607589 311.653964 
L 566.752333 311.119639 
L 566.906726 310.548321 
L 566.945325 310.572982 
L 567.176914 310.462007 
L 567.302359 309.557764 
L 567.369906 309.241279 
L 567.418154 309.438568 
L 567.852385 311.008663 
L 567.862034 310.996333 
L 567.881333 311.033325 
L 567.910282 310.910019 
L 567.96818 310.971672 
L 568.093624 310.93468 
L 568.248017 311.033325 
L 568.547154 311.131969 
L 568.691898 311.164851 
L 568.981385 311.057986 
L 569.203325 310.786713 
L 569.357719 310.73739 
L 569.502462 310.873027 
L 569.763001 310.774382 
L 569.878796 310.72506 
L 569.888445 310.73739 
L 570.187582 310.848366 
L 570.293727 310.897688 
L 570.313026 310.885357 
L 570.46742 310.984002 
L 570.544616 311.082647 
L 570.563915 311.045655 
L 570.631462 310.799043 
L 570.68936 310.860696 
L 570.824454 310.749721 
L 570.969198 310.655186 
L 571.104292 310.73739 
L 571.432377 310.848366 
L 571.60607 310.93468 
L 571.615719 310.910019 
L 571.81836 310.688068 
L 572.040301 310.786713 
L 572.213993 310.93468 
L 572.609626 310.836035 
L 572.619275 310.683958 
L 572.715771 310.836035 
L 573.014908 310.94701 
L 573.17895 310.984002 
L 573.362292 310.873027 
L 573.545634 310.688068 
L 573.661429 310.585313 
L 573.844771 310.52366 
L 573.989515 310.474338 
L 574.018464 309.968783 
L 574.10531 310.437346 
L 574.211455 310.52366 
L 574.346549 310.622305 
L 574.520241 310.72506 
L 574.636036 310.762052 
L 574.664985 310.73739 
L 574.713233 310.671627 
L 574.848327 310.425015 
L 575.070267 309.833147 
L 575.128165 309.722172 
L 576.189618 307.268384 
L 577.144926 309.405686 
L 577.347567 309.582425 
L 577.366866 309.570094 
L 577.907243 309.467339 
L 578.051986 309.381025 
L 578.216029 309.344034 
L 578.389721 309.405686 
L 578.447619 309.405686 
L 578.486217 309.438568 
L 578.630961 309.594756 
L 578.775704 309.69751 
L 579.364328 310.272938 
L 579.393277 310.260607 
L 579.441525 310.346922 
L 579.451175 310.334591 
L 579.576619 310.437346 
L 579.615217 310.392134 
L 579.740662 310.474338 
L 579.914354 310.375693 
L 580.049448 309.997555 
L 580.271389 308.86314 
L 580.609124 307.132748 
L 581.622329 302.529327 
L 581.641628 302.541657 
L 581.699526 302.459454 
L 581.960064 301.522329 
L 582.355697 299.565875 
L 582.712731 299.228839 
L 582.73203 299.2535 
L 582.74168 299.286381 
L 582.780278 299.093202 
L 582.838176 299.228839 
L 583.118013 299.578205 
L 583.137313 299.541214 
L 583.793484 297.436793 
L 583.841732 297.354589 
L 583.976826 297.107977 
L 584.073321 297.025773 
L 584.169817 296.943569 
L 584.189116 296.984671 
L 584.198766 297.107977 
L 584.237364 296.943569 
L 584.304911 297.066875 
L 584.440005 297.107977 
L 584.584749 297.436793 
L 584.594398 297.395691 
L 584.671595 297.477895 
L 584.816339 297.917686 
L 585.289168 300.157743 
L 585.569006 301.267496 
L 585.91639 301.793602 
L 585.92604 301.785381 
L 586.012886 301.851144 
L 586.398869 302.706065 
L 586.765553 304.937902 
L 587.083989 306.528549 
L 587.305929 307.120417 
L 587.576117 307.625971 
L 587.74981 307.872583 
L 587.894553 307.983558 
L 587.933152 308.00822 
L 587.952451 307.724616 
L 588.048947 307.761608 
L 588.164741 307.662963 
L 588.20334 307.157409 
L 588.328784 306.392912 
L 588.348083 306.331259 
L 588.454229 304.744723 
L 589.322691 287.36681 
L 589.949913 268.007782 
L 589.988511 268.17219 
L 590.277999 271.29594 
L 590.287648 271.29594 
L 590.46134 272.446795 
L 590.509588 272.528999 
L 590.683281 273.104426 
L 590.721879 273.104426 
L 590.856973 273.762058 
L 591.011366 274.419689 
L 591.15611 274.419689 
L 591.271905 274.584097 
L 591.320153 274.542995 
L 591.435948 274.419689 
L 591.493845 274.419689 
L 591.638589 273.926466 
L 591.686837 273.885364 
L 592.661444 262.74673 
L 592.680743 262.705628 
L 592.825487 262.253506 
L 592.883384 262.253506 
L 592.999179 262.089098 
L 593.269367 262.089098 
L 593.42376 262.74673 
L 593.452709 262.828934 
L 594.205376 268.336598 
L 594.215025 268.336598 
L 594.350119 268.665414 
L 594.475564 268.665414 
L 594.591359 268.501006 
L 594.755402 268.501006 
L 594.938744 269.487453 
L 594.948393 269.487453 
L 595.064188 270.4739 
L 595.083487 270.309492 
L 595.151034 270.309492 
L 595.334376 271.29594 
L 595.450171 271.213736 
L 596.173889 265.706072 
L 596.183539 265.829378 
L 596.37653 267.062437 
L 596.60812 268.624312 
L 597.0713 273.474344 
L 597.409035 278.324377 
L 597.717821 281.776942 
L 598.103804 283.790939 
L 598.248548 284.366366 
L 598.42224 284.941794 
L 598.44154 284.941794 
L 598.586283 285.435017 
L 598.624881 285.435017 
L 598.673129 285.599425 
L 598.692429 285.106202 
L 598.721377 285.229508 
L 599.145959 286.585873 
L 599.155608 286.585873 
L 599.271403 286.750281 
L 599.290702 286.832484 
L 599.406497 286.914688 
L 599.445095 286.95579 
L 599.56089 287.079096 
L 599.705634 286.996892 
L 599.917925 286.092649 
L 599.927574 286.092649 
L 600.072318 285.517221 
L 600.815335 278.242173 
L 601.278515 271.09043 
L 601.519754 266.651417 
L 602.07943 252.758951 
L 602.272421 234.139759 
L 602.388216 189.749631 
L 602.639105 105.655 
L 602.74525 104.010921 
L 602.764549 104.832961 
L 602.812797 106.888059 
L 603.275977 145.934931 
L 603.66196 153.744305 
L 603.681259 153.456591 
L 603.970746 154.89516 
L 603.980396 154.607446 
L 604.057593 155.51169 
L 604.424276 175.816063 
L 604.762012 205.286176 
L 605.379584 235.61943 
L 605.726969 242.853376 
L 605.823465 244.497455 
L 606.190149 251.07377 
L 606.305944 252.923359 
L 606.643679 257.773392 
L 606.84632 259.746286 
L 606.85597 259.664082 
L 606.884918 258.513227 
L 606.981414 258.759839 
L 607.135807 259.376368 
L 607.145457 259.294164 
L 607.213004 259.540776 
L 607.232303 259.376368 
L 607.357747 259.664082 
L 607.463893 259.540776 
L 607.425294 259.705184 
L 607.473542 259.581878 
L 607.52179 259.540776 
L 607.627936 259.951796 
L 607.714782 260.034 
L 607.888474 260.897141 
L 607.917423 260.979345 
L 608.110414 262.089098 
L 608.120064 262.047996 
L 608.177961 262.253506 
L 608.187611 262.1302 
L 608.255158 262.500118 
L 608.303406 262.253506 
L 608.322705 262.33571 
L 608.727987 259.992898 
L 608.959577 258.389921 
L 609.152569 258.020003 
L 609.181517 258.102207 
L 609.692945 260.362816 
L 609.721894 260.034 
L 609.79909 256.828046 
L 610.078928 238.085548 
L 610.223671 224.521898 
L 610.70615 165.293959 
L 610.821945 159.745193 
L 610.985988 154.073121 
L 610.995637 154.073121 
L 611.063185 153.908713 
L 611.352672 158.306624 
L 611.371971 158.306624 
L 611.767604 170.801623 
L 612.510621 221.973576 
L 612.780809 230.851601 
L 612.964151 234.345269 
L 613.620322 243.716518 
L 613.639621 243.593212 
L 613.822963 244.209741 
L 613.861561 244.127537 
L 613.90016 244.291945 
L 613.909809 244.291945 
L 613.929108 244.250843 
L 614.392288 249.306386 
L 614.623878 252.923359 
L 614.894066 255.800497 
L 614.903716 255.759395 
L 614.932664 256.047109 
L 615.173904 257.32127 
L 615.193203 257.156862 
L 615.241451 257.444576 
L 615.280049 257.362372 
L 615.289699 257.485678 
L 615.337947 257.239066 
L 615.357246 257.280168 
L 615.540588 255.389477 
L 615.772177 252.512339 
L 615.94587 251.238178 
L 615.955519 251.320382 
L 616.013417 250.991567 
L 616.023066 251.114872 
L 616.071314 250.868261 
L 616.138861 250.991567 
L 616.148511 250.991567 
L 616.351152 252.430135 
L 616.360802 252.389033 
L 616.370451 252.389033 
L 616.457297 253.128869 
L 616.486246 252.635645 
L 616.524844 252.471237 
L 616.582742 252.676747 
L 616.602041 252.717849 
L 616.901178 254.320826 
L 616.910827 254.279724 
L 616.939776 254.526336 
L 616.949426 254.526336 
L 617.248563 256.170415 
L 617.267862 256.252619 
L 617.53805 258.348819 
L 617.702093 259.458572 
L 617.856486 260.075102 
L 617.904734 259.992898 
L 617.914383 260.157306 
L 617.962631 260.075102 
L 617.972281 260.23951 
L 618.059127 259.910694 
L 618.068776 259.951796 
L 618.126674 259.746286 
L 618.657401 256.170415 
L 618.686349 256.293721 
L 618.744247 256.047109 
L 618.753896 256.088211 
L 618.831093 256.088211 
L 619.004785 256.91025 
L 619.535512 260.486122 
L 619.545162 260.403918 
L 619.612709 260.732733 
L 619.622358 260.650529 
L 619.718854 261.143753 
L 619.728503 260.650529 
L 619.738153 260.609428 
L 619.757452 260.897141 
L 619.767102 260.814937 
L 619.911845 261.431467 
L 619.940794 261.472569 
L 621.098743 276.885808 
L 622.787419 268.17219 
L 622.99006 266.528111 
L 623.038308 266.445907 
L 623.076906 266.528111 
L 623.202351 265.336154 
L 623.356744 263.075546 
L 623.424291 262.787832 
L 623.472539 262.870036 
L 623.771676 264.596319 
L 623.935718 265.418358 
L 623.945368 265.377256 
L 624.012915 265.541664 
L 624.022565 265.45946 
L 624.070813 265.500562 
L 624.099761 265.377256 
L 624.167308 264.719625 
L 624.717334 251.566994 
L 625.132266 244.867373 
L 625.286659 240.42836 
L 625.4893 220.535007 
L 625.788437 190.57167 
L 625.798087 190.489466 
L 625.817386 190.98269 
L 625.836685 190.818282 
L 626.000728 200.189531 
L 626.290215 223.905368 
L 626.541104 238.33216 
L 626.801642 249.265284 
L 627.284121 263.609871 
L 628.432421 281.32482 
L 628.499968 281.982452 
L 628.741207 284.44857 
L 629.889507 293.326596 
L 629.899156 293.326596 
L 630.072849 294.313043 
L 630.101797 293.819819 
L 630.188643 294.189737 
L 630.314088 294.477451 
L 630.343037 294.477451 
L 630.362336 294.230839 
L 630.458832 294.313043 
L 630.468481 294.313043 
L 630.835165 289.915132 
L 631.105353 289.051991 
L 631.115003 289.134195 
L 631.491336 293.285494 
L 632.07996 299.409687 
L 632.601037 301.867585 
L 633.00632 302.5992 
L 633.411602 303.084203 
L 633.421251 303.067763 
L 633.479149 303.174628 
L 633.594944 303.404799 
L 633.710739 303.700733 
L 633.739687 303.573317 
L 633.836183 302.344368 
L 634.202867 300.387914 
L 634.35726 297.761498 
L 634.58885 296.450345 
L 634.5985 296.450345 
L 634.82044 294.477451 
L 634.887987 293.860921 
L 635.206423 289.380807 
L 635.293269 289.421909 
L 635.659953 293.491004 
L 636.007338 296.614753 
L 636.036286 296.696957 
L 636.229278 297.436793 
L 636.277526 297.518997 
L 636.393321 297.605311 
L 636.480167 295.587204 
L 637.107389 180.172872 
L 637.194235 187.571227 
L 637.676714 252.635645 
L 637.966201 264.966236 
L 638.274988 272.611203 
L 638.284637 272.611203 
L 638.332885 273.18663 
L 638.390783 272.487897 
L 638.419732 271.706959 
L 638.574125 264.925134 
L 638.882911 252.553441 
L 639.239945 238.989791 
L 639.249595 239.030893 
L 639.452236 241.620317 
L 640.175954 265.130644 
L 640.648783 274.378588 
L 641.044416 280.831597 
L 641.285655 284.736284 
L 641.961126 294.765165 
L 642.192716 297.395691 
L 642.289211 298.283493 
L 642.955032 303.281493 
L 643.070827 303.877472 
L 643.524357 306.1463 
L 643.534007 306.088757 
L 643.572605 305.31193 
L 643.649802 305.599644 
L 643.717349 306.059986 
L 643.794545 305.854476 
L 643.891041 305.579093 
L 644.064733 304.119973 
L 644.305973 302.862253 
L 644.325272 302.899245 
L 644.421768 303.199289 
L 644.730554 305.529771 
L 644.971793 306.479226 
L 645.155135 306.76283 
L 645.232332 306.664185 
L 646.149042 304.551544 
L 646.158691 304.576205 
L 646.342033 304.974894 
L 647.017503 307.897244 
L 647.027153 307.884914 
L 647.065751 307.958897 
L 647.0947 307.958897 
L 647.181546 308.041101 
L 647.200845 307.934236 
L 647.258743 307.81093 
L 647.306991 307.921905 
L 647.702623 309.204287 
L 647.857017 309.594756 
L 647.866666 309.582425 
L 647.876316 309.594756 
L 647.885965 309.516662 
L 648.01141 309.126193 
L 648.46494 307.231392 
L 648.725478 305.899688 
L 648.899171 305.51744 
L 649.217607 305.057098 
L 649.275504 305.192735 
L 649.536043 305.792823 
L 649.806231 305.180404 
L 649.902727 305.262608 
L 651.002778 310.334591 
L 651.533505 310.885357 
L 651.552804 310.860696 
L 651.6493 310.971672 
L 652.257223 311.575871 
L 652.517762 310.984002 
L 652.681804 310.885357 
L 653.183582 309.228948 
L 653.212531 309.27416 
L 653.337975 309.257719 
L 653.347625 309.290601 
L 653.405523 309.228948 
L 653.434471 309.228948 
L 653.627463 309.142634 
L 654.486275 311.033325 
L 654.920506 311.411463 
L 655.132797 311.501887 
L 655.27754 311.575871 
L 655.325788 311.522438 
L 655.335438 311.374471 
L 655.422284 311.592311 
L 655.431933 311.592311 
L 655.480181 311.641634 
L 655.538079 311.56354 
L 655.663523 311.386801 
L 655.692472 311.411463 
L 655.74072 311.477226 
L 655.895113 311.727948 
L 656.001258 311.76494 
L 656.203899 311.863584 
L 656.290746 311.863584 
L 656.310045 311.888245 
L 656.445139 312.044433 
L 656.454788 312.019772 
L 656.580233 311.904686 
L 656.734626 311.896466 
L 657.931174 312.007441 
L 658.182062 312.151298 
L 658.635593 312.163629 
L 658.789986 311.34981 
L 658.799635 311.36214 
L 658.896131 310.823704 
L 659.127721 307.773938 
L 660.102328 294.477451 
L 660.208473 293.61431 
L 660.372516 292.710066 
L 660.382166 292.751168 
L 660.469012 292.833372 
L 660.671653 294.477451 
L 660.72955 295.135082 
L 661.183081 299.553544 
L 661.260277 299.730283 
L 661.289226 299.602867 
L 661.395371 298.900023 
L 661.8682 294.313043 
L 661.983995 294.148635 
L 661.993645 294.189737 
L 662.505072 299.496001 
L 663.074397 304.621417 
L 664.174449 309.241279 
L 666.471048 311.386801 
L 666.586843 311.386801 
L 666.692988 311.386801 
L 666.702638 311.411463 
L 666.847381 311.36214 
L 666.953527 309.47967 
L 667.928134 251.320382 
L 667.937783 251.48479 
L 668.02463 253.005563 
L 668.314117 260.075102 
L 668.487809 260.609428 
L 668.622903 261.636977 
L 668.912391 270.103983 
L 669.549263 292.627862 
L 669.8291 297.025773 
L 670.543169 302.163519 
L 671.006349 303.955565 
L 671.20899 304.769384 
L 671.546725 305.92846 
L 671.845862 306.824483 
L 672.144998 307.564318 
L 672.154648 307.551988 
L 672.202896 307.650632 
L 672.482734 308.172627 
L 672.666076 308.538435 
L 672.675725 308.526104 
L 672.733623 308.616529 
L 672.916965 308.86314 
L 672.994161 308.953565 
L 673.187153 309.142634 
L 673.322247 309.241279 
L 673.659982 309.619417 
L 673.727529 309.619417 
L 673.737178 309.68518 
L 673.756478 309.652298 
L 673.901221 309.771494 
L 673.988067 309.833147 
L 674.113512 309.948232 
L 674.335452 310.059208 
L 674.451247 310.120861 
L 674.460897 310.10853 
L 674.972324 310.211285 
L 675.107418 310.260607 
L 675.560948 310.359252 
L 675.696042 310.425015 
L 675.715341 310.408575 
L 675.802188 310.359252 
L 675.831136 310.425015 
" clip-path="url(#p5938a6d7e3)" style="fill: none; stroke: #1f77b4; stroke-width: 1.5; stroke-linecap: square"/>
   </g>
   <g id="patch_3">
    <path d="M 46.0125 327.558125 
L 46.0125 22.318125 
" style="fill: none; stroke: #000000; stroke-width: 0.8; stroke-linejoin: miter; stroke-linecap: square"/>
   </g>
   <g id="patch_4">
    <path d="M 705.8225 327.558125 
L 705.8225 22.318125 
" style="fill: none; stroke: #000000; stroke-width: 0.8; stroke-linejoin: miter; stroke-linecap: square"/>
   </g>
   <g id="patch_5">
    <path d="M 46.0125 327.558125 
L 705.8225 327.558125 
" style="fill: none; stroke: #000000; stroke-width: 0.8; stroke-linejoin: miter; stroke-linecap: square"/>
   </g>
   <g id="patch_6">
    <path d="M 46.0125 22.318125 
L 705.8225 22.318125 
" style="fill: none; stroke: #000000; stroke-width: 0.8; stroke-linejoin: miter; stroke-linecap: square"/>
   </g>
   <g id="text_17">
    <!-- training -->
    <g transform="translate(352.674062 16.318125) scale(0.12 -0.12)">
     <defs>
      <path id="DejaVuSans-74" d="M 1172 4494 
L 1172 3500 
L 2356 3500 
L 2356 3053 
L 1172 3053 
L 1172 1153 
Q 1172 725 1289 603 
Q 1406 481 1766 481 
L 2356 481 
L 2356 0 
L 1766 0 
Q 1100 0 847 248 
Q 594 497 594 1153 
L 594 3053 
L 172 3053 
L 172 3500 
L 594 3500 
L 594 4494 
L 1172 4494 
z
" transform="scale(0.015625)"/>
      <path id="DejaVuSans-72" d="M 2631 2963 
Q 2534 3019 2420 3045 
Q 2306 3072 2169 3072 
Q 1681 3072 1420 2755 
Q 1159 2438 1159 1844 
L 1159 0 
L 581 0 
L 581 3500 
L 1159 3500 
L 1159 2956 
Q 1341 3275 1631 3429 
Q 1922 3584 2338 3584 
Q 2397 3584 2469 3576 
Q 2541 3569 2628 3553 
L 2631 2963 
z
" transform="scale(0.015625)"/>
      <path id="DejaVuSans-61" d="M 2194 1759 
Q 1497 1759 1228 1600 
Q 959 1441 959 1056 
Q 959 750 1161 570 
Q 1363 391 1709 391 
Q 2188 391 2477 730 
Q 2766 1069 2766 1631 
L 2766 1759 
L 2194 1759 
z
M 3341 1997 
L 3341 0 
L 2766 0 
L 2766 531 
Q 2569 213 2275 61 
Q 1981 -91 1556 -91 
Q 1019 -91 701 211 
Q 384 513 384 1019 
Q 384 1609 779 1909 
Q 1175 2209 1959 2209 
L 2766 2209 
L 2766 2266 
Q 2766 2663 2505 2880 
Q 2244 3097 1772 3097 
Q 1472 3097 1187 3025 
Q 903 2953 641 2809 
L 641 3341 
Q 956 3463 1253 3523 
Q 1550 3584 1831 3584 
Q 2591 3584 2966 3190 
Q 3341 2797 3341 1997 
z
" transform="scale(0.015625)"/>
      <path id="DejaVuSans-69" d="M 603 3500 
L 1178 3500 
L 1178 0 
L 603 0 
L 603 3500 
z
M 603 4863 
L 1178 4863 
L 1178 4134 
L 603 4134 
L 603 4863 
z
" transform="scale(0.015625)"/>
      <path id="DejaVuSans-6e" d="M 3513 2113 
L 3513 0 
L 2938 0 
L 2938 2094 
Q 2938 2591 2744 2837 
Q 2550 3084 2163 3084 
Q 1697 3084 1428 2787 
Q 1159 2491 1159 1978 
L 1159 0 
L 581 0 
L 581 3500 
L 1159 3500 
L 1159 2956 
Q 1366 3272 1645 3428 
Q 1925 3584 2291 3584 
Q 2894 3584 3203 3211 
Q 3513 2838 3513 2113 
z
" transform="scale(0.015625)"/>
      <path id="DejaVuSans-67" d="M 2906 1791 
Q 2906 2416 2648 2759 
Q 2391 3103 1925 3103 
Q 1463 3103 1205 2759 
Q 947 2416 947 1791 
Q 947 1169 1205 825 
Q 1463 481 1925 481 
Q 2391 481 2648 825 
Q 2906 1169 2906 1791 
z
M 3481 434 
Q 3481 -459 3084 -895 
Q 2688 -1331 1869 -1331 
Q 1566 -1331 1297 -1286 
Q 1028 -1241 775 -1147 
L 775 -588 
Q 1028 -725 1275 -790 
Q 1522 -856 1778 -856 
Q 2344 -856 2625 -561 
Q 2906 -266 2906 331 
L 2906 616 
Q 2728 306 2450 153 
Q 2172 0 1784 0 
Q 1141 0 747 490 
Q 353 981 353 1791 
Q 353 2603 747 3093 
Q 1141 3584 1784 3584 
Q 2172 3584 2450 3431 
Q 2728 3278 2906 2969 
L 2906 3500 
L 3481 3500 
L 3481 434 
z
" transform="scale(0.015625)"/>
     </defs>
     <use xlink:href="#DejaVuSans-74"/>
     <use xlink:href="#DejaVuSans-72" x="39.208984"/>
     <use xlink:href="#DejaVuSans-61" x="80.322266"/>
     <use xlink:href="#DejaVuSans-69" x="141.601562"/>
     <use xlink:href="#DejaVuSans-6e" x="169.384766"/>
     <use xlink:href="#DejaVuSans-69" x="232.763672"/>
     <use xlink:href="#DejaVuSans-6e" x="260.546875"/>
     <use xlink:href="#DejaVuSans-67" x="323.925781"/>
    </g>
   </g>
   <g id="legend_1">
    <g id="patch_7">
     <path d="M 620.461563 44.99625 
L 698.8225 44.99625 
Q 700.8225 44.99625 700.8225 42.99625 
L 700.8225 29.318125 
Q 700.8225 27.318125 698.8225 27.318125 
L 620.461563 27.318125 
Q 618.461563 27.318125 618.461563 29.318125 
L 618.461563 42.99625 
Q 618.461563 44.99625 620.461563 44.99625 
z
" style="fill: #ffffff; opacity: 0.8; stroke: #cccccc; stroke-linejoin: miter"/>
    </g>
    <g id="line2d_18">
     <path d="M 622.461563 35.416563 
L 632.461563 35.416563 
L 642.461563 35.416563 
" style="fill: none; stroke: #1f77b4; stroke-width: 1.5; stroke-linecap: square"/>
    </g>
    <g id="text_18">
     <!-- observed -->
     <g transform="translate(650.461563 38.916563) scale(0.1 -0.1)">
      <defs>
       <path id="DejaVuSans-6f" d="M 1959 3097 
Q 1497 3097 1228 2736 
Q 959 2375 959 1747 
Q 959 1119 1226 758 
Q 1494 397 1959 397 
Q 2419 397 2687 759 
Q 2956 1122 2956 1747 
Q 2956 2369 2687 2733 
Q 2419 3097 1959 3097 
z
M 1959 3584 
Q 2709 3584 3137 3096 
Q 3566 2609 3566 1747 
Q 3566 888 3137 398 
Q 2709 -91 1959 -91 
Q 1206 -91 779 398 
Q 353 888 353 1747 
Q 353 2609 779 3096 
Q 1206 3584 1959 3584 
z
" transform="scale(0.015625)"/>
       <path id="DejaVuSans-62" d="M 3116 1747 
Q 3116 2381 2855 2742 
Q 2594 3103 2138 3103 
Q 1681 3103 1420 2742 
Q 1159 2381 1159 1747 
Q 1159 1113 1420 752 
Q 1681 391 2138 391 
Q 2594 391 2855 752 
Q 3116 1113 3116 1747 
z
M 1159 2969 
Q 1341 3281 1617 3432 
Q 1894 3584 2278 3584 
Q 2916 3584 3314 3078 
Q 3713 2572 3713 1747 
Q 3713 922 3314 415 
Q 2916 -91 2278 -91 
Q 1894 -91 1617 61 
Q 1341 213 1159 525 
L 1159 0 
L 581 0 
L 581 4863 
L 1159 4863 
L 1159 2969 
z
" transform="scale(0.015625)"/>
       <path id="DejaVuSans-73" d="M 2834 3397 
L 2834 2853 
Q 2591 2978 2328 3040 
Q 2066 3103 1784 3103 
Q 1356 3103 1142 2972 
Q 928 2841 928 2578 
Q 928 2378 1081 2264 
Q 1234 2150 1697 2047 
L 1894 2003 
Q 2506 1872 2764 1633 
Q 3022 1394 3022 966 
Q 3022 478 2636 193 
Q 2250 -91 1575 -91 
Q 1294 -91 989 -36 
Q 684 19 347 128 
L 347 722 
Q 666 556 975 473 
Q 1284 391 1588 391 
Q 1994 391 2212 530 
Q 2431 669 2431 922 
Q 2431 1156 2273 1281 
Q 2116 1406 1581 1522 
L 1381 1569 
Q 847 1681 609 1914 
Q 372 2147 372 2553 
Q 372 3047 722 3315 
Q 1072 3584 1716 3584 
Q 2034 3584 2315 3537 
Q 2597 3491 2834 3397 
z
" transform="scale(0.015625)"/>
       <path id="DejaVuSans-65" d="M 3597 1894 
L 3597 1613 
L 953 1613 
Q 991 1019 1311 708 
Q 1631 397 2203 397 
Q 2534 397 2845 478 
Q 3156 559 3463 722 
L 3463 178 
Q 3153 47 2828 -22 
Q 2503 -91 2169 -91 
Q 1331 -91 842 396 
Q 353 884 353 1716 
Q 353 2575 817 3079 
Q 1281 3584 2069 3584 
Q 2775 3584 3186 3129 
Q 3597 2675 3597 1894 
z
M 3022 2063 
Q 3016 2534 2758 2815 
Q 2500 3097 2075 3097 
Q 1594 3097 1305 2825 
Q 1016 2553 972 2059 
L 3022 2063 
z
" transform="scale(0.015625)"/>
       <path id="DejaVuSans-76" d="M 191 3500 
L 800 3500 
L 1894 563 
L 2988 3500 
L 3597 3500 
L 2284 0 
L 1503 0 
L 191 3500 
z
" transform="scale(0.015625)"/>
       <path id="DejaVuSans-64" d="M 2906 2969 
L 2906 4863 
L 3481 4863 
L 3481 0 
L 2906 0 
L 2906 525 
Q 2725 213 2448 61 
Q 2172 -91 1784 -91 
Q 1150 -91 751 415 
Q 353 922 353 1747 
Q 353 2572 751 3078 
Q 1150 3584 1784 3584 
Q 2172 3584 2448 3432 
Q 2725 3281 2906 2969 
z
M 947 1747 
Q 947 1113 1208 752 
Q 1469 391 1925 391 
Q 2381 391 2643 752 
Q 2906 1113 2906 1747 
Q 2906 2381 2643 2742 
Q 2381 3103 1925 3103 
Q 1469 3103 1208 2742 
Q 947 2381 947 1747 
z
" transform="scale(0.015625)"/>
      </defs>
      <use xlink:href="#DejaVuSans-6f"/>
      <use xlink:href="#DejaVuSans-62" x="61.181641"/>
      <use xlink:href="#DejaVuSans-73" x="124.658203"/>
      <use xlink:href="#DejaVuSans-65" x="176.757812"/>
      <use xlink:href="#DejaVuSans-72" x="238.28125"/>
      <use xlink:href="#DejaVuSans-76" x="279.394531"/>
      <use xlink:href="#DejaVuSans-65" x="338.574219"/>
      <use xlink:href="#DejaVuSans-64" x="400.097656"/>
     </g>
    </g>
   </g>
  </g>
 </g>
 <defs>
  <clipPath id="p5938a6d7e3">
   <rect x="46.0125" y="22.318125" width="659.81" height="305.24"/>
  </clipPath>
 </defs>
</svg>
