<?xml version="1.0" encoding="utf-8" standalone="no"?>
<!DOCTYPE svg PUBLIC "-//W3C//DTD SVG 1.1//EN"
  "http://www.w3.org/Graphics/SVG/1.1/DTD/svg11.dtd">
<svg xmlns:xlink="http://www.w3.org/1999/xlink" width="712.7725pt" height="351.43625pt" viewBox="0 0 712.7725 351.43625" xmlns="http://www.w3.org/2000/svg" version="1.1">
 <metadata>
  <rdf:RDF xmlns:dc="http://purl.org/dc/elements/1.1/" xmlns:cc="http://creativecommons.org/ns#" xmlns:rdf="http://www.w3.org/1999/02/22-rdf-syntax-ns#">
   <cc:Work>
    <dc:type rdf:resource="http://purl.org/dc/dcmitype/StillImage"/>
    <dc:date>2024-05-10T12:38:12.219428</dc:date>
    <dc:format>image/svg+xml</dc:format>
    <dc:creator>
     <cc:Agent>
      <dc:title>Matplotlib v3.8.4, https://matplotlib.org/</dc:title>
     </cc:Agent>
    </dc:creator>
   </cc:Work>
  </rdf:RDF>
 </metadata>
 <defs>
  <style type="text/css">*{stroke-linejoin: round; stroke-linecap: butt}</style>
 </defs>
 <g id="figure_1">
  <g id="patch_1">
   <path d="M 0 351.43625 
L 712.7725 351.43625 
L 712.7725 0 
L 0 0 
z
" style="fill: #ffffff"/>
  </g>
  <g id="axes_1">
   <g id="patch_2">
    <path d="M 20.5625 327.558125 
L 705.5725 327.558125 
L 705.5725 22.318125 
L 20.5625 22.318125 
z
" style="fill: #ffffff"/>
   </g>
   <g id="matplotlib.axis_1">
    <g id="xtick_1">
     <g id="line2d_1">
      <defs>
       <path id="mbbbdd1e710" d="M 0 0 
L 0 3.5 
" style="stroke: #000000; stroke-width: 0.8"/>
      </defs>
      <g>
       <use xlink:href="#mbbbdd1e710" x="76.227671" y="327.558125" style="stroke: #000000; stroke-width: 0.8"/>
      </g>
     </g>
     <g id="text_1">
      <!-- 2022-09 -->
      <g transform="translate(55.336265 342.156563) scale(0.1 -0.1)">
       <defs>
        <path id="DejaVuSans-32" d="M 1228 531 
L 3431 531 
L 3431 0 
L 469 0 
L 469 531 
Q 828 903 1448 1529 
Q 2069 2156 2228 2338 
Q 2531 2678 2651 2914 
Q 2772 3150 2772 3378 
Q 2772 3750 2511 3984 
Q 2250 4219 1831 4219 
Q 1534 4219 1204 4116 
Q 875 4013 500 3803 
L 500 4441 
Q 881 4594 1212 4672 
Q 1544 4750 1819 4750 
Q 2544 4750 2975 4387 
Q 3406 4025 3406 3419 
Q 3406 3131 3298 2873 
Q 3191 2616 2906 2266 
Q 2828 2175 2409 1742 
Q 1991 1309 1228 531 
z
" transform="scale(0.015625)"/>
        <path id="DejaVuSans-30" d="M 2034 4250 
Q 1547 4250 1301 3770 
Q 1056 3291 1056 2328 
Q 1056 1369 1301 889 
Q 1547 409 2034 409 
Q 2525 409 2770 889 
Q 3016 1369 3016 2328 
Q 3016 3291 2770 3770 
Q 2525 4250 2034 4250 
z
M 2034 4750 
Q 2819 4750 3233 4129 
Q 3647 3509 3647 2328 
Q 3647 1150 3233 529 
Q 2819 -91 2034 -91 
Q 1250 -91 836 529 
Q 422 1150 422 2328 
Q 422 3509 836 4129 
Q 1250 4750 2034 4750 
z
" transform="scale(0.015625)"/>
        <path id="DejaVuSans-2d" d="M 313 2009 
L 1997 2009 
L 1997 1497 
L 313 1497 
L 313 2009 
z
" transform="scale(0.015625)"/>
        <path id="DejaVuSans-39" d="M 703 97 
L 703 672 
Q 941 559 1184 500 
Q 1428 441 1663 441 
Q 2288 441 2617 861 
Q 2947 1281 2994 2138 
Q 2813 1869 2534 1725 
Q 2256 1581 1919 1581 
Q 1219 1581 811 2004 
Q 403 2428 403 3163 
Q 403 3881 828 4315 
Q 1253 4750 1959 4750 
Q 2769 4750 3195 4129 
Q 3622 3509 3622 2328 
Q 3622 1225 3098 567 
Q 2575 -91 1691 -91 
Q 1453 -91 1209 -44 
Q 966 3 703 97 
z
M 1959 2075 
Q 2384 2075 2632 2365 
Q 2881 2656 2881 3163 
Q 2881 3666 2632 3958 
Q 2384 4250 1959 4250 
Q 1534 4250 1286 3958 
Q 1038 3666 1038 3163 
Q 1038 2656 1286 2365 
Q 1534 2075 1959 2075 
z
" transform="scale(0.015625)"/>
       </defs>
       <use xlink:href="#DejaVuSans-32"/>
       <use xlink:href="#DejaVuSans-30" x="63.623047"/>
       <use xlink:href="#DejaVuSans-32" x="127.246094"/>
       <use xlink:href="#DejaVuSans-32" x="190.869141"/>
       <use xlink:href="#DejaVuSans-2d" x="254.492188"/>
       <use xlink:href="#DejaVuSans-30" x="290.576172"/>
       <use xlink:href="#DejaVuSans-39" x="354.199219"/>
      </g>
     </g>
    </g>
    <g id="xtick_2">
     <g id="line2d_2">
      <g>
       <use xlink:href="#mbbbdd1e710" x="149.204589" y="327.558125" style="stroke: #000000; stroke-width: 0.8"/>
      </g>
     </g>
     <g id="text_2">
      <!-- 2022-10 -->
      <g transform="translate(128.313182 342.156563) scale(0.1 -0.1)">
       <defs>
        <path id="DejaVuSans-31" d="M 794 531 
L 1825 531 
L 1825 4091 
L 703 3866 
L 703 4441 
L 1819 4666 
L 2450 4666 
L 2450 531 
L 3481 531 
L 3481 0 
L 794 0 
L 794 531 
z
" transform="scale(0.015625)"/>
       </defs>
       <use xlink:href="#DejaVuSans-32"/>
       <use xlink:href="#DejaVuSans-30" x="63.623047"/>
       <use xlink:href="#DejaVuSans-32" x="127.246094"/>
       <use xlink:href="#DejaVuSans-32" x="190.869141"/>
       <use xlink:href="#DejaVuSans-2d" x="254.492188"/>
       <use xlink:href="#DejaVuSans-31" x="290.576172"/>
       <use xlink:href="#DejaVuSans-30" x="354.199219"/>
      </g>
     </g>
    </g>
    <g id="xtick_3">
     <g id="line2d_3">
      <g>
       <use xlink:href="#mbbbdd1e710" x="224.61407" y="327.558125" style="stroke: #000000; stroke-width: 0.8"/>
      </g>
     </g>
     <g id="text_3">
      <!-- 2022-11 -->
      <g transform="translate(203.722664 342.156563) scale(0.1 -0.1)">
       <use xlink:href="#DejaVuSans-32"/>
       <use xlink:href="#DejaVuSans-30" x="63.623047"/>
       <use xlink:href="#DejaVuSans-32" x="127.246094"/>
       <use xlink:href="#DejaVuSans-32" x="190.869141"/>
       <use xlink:href="#DejaVuSans-2d" x="254.492188"/>
       <use xlink:href="#DejaVuSans-31" x="290.576172"/>
       <use xlink:href="#DejaVuSans-31" x="354.199219"/>
      </g>
     </g>
    </g>
    <g id="xtick_4">
     <g id="line2d_4">
      <g>
       <use xlink:href="#mbbbdd1e710" x="297.590988" y="327.558125" style="stroke: #000000; stroke-width: 0.8"/>
      </g>
     </g>
     <g id="text_4">
      <!-- 2022-12 -->
      <g transform="translate(276.699582 342.156563) scale(0.1 -0.1)">
       <use xlink:href="#DejaVuSans-32"/>
       <use xlink:href="#DejaVuSans-30" x="63.623047"/>
       <use xlink:href="#DejaVuSans-32" x="127.246094"/>
       <use xlink:href="#DejaVuSans-32" x="190.869141"/>
       <use xlink:href="#DejaVuSans-2d" x="254.492188"/>
       <use xlink:href="#DejaVuSans-31" x="290.576172"/>
       <use xlink:href="#DejaVuSans-32" x="354.199219"/>
      </g>
     </g>
    </g>
    <g id="xtick_5">
     <g id="line2d_5">
      <g>
       <use xlink:href="#mbbbdd1e710" x="373.000469" y="327.558125" style="stroke: #000000; stroke-width: 0.8"/>
      </g>
     </g>
     <g id="text_5">
      <!-- 2023-01 -->
      <g transform="translate(352.109063 342.156563) scale(0.1 -0.1)">
       <defs>
        <path id="DejaVuSans-33" d="M 2597 2516 
Q 3050 2419 3304 2112 
Q 3559 1806 3559 1356 
Q 3559 666 3084 287 
Q 2609 -91 1734 -91 
Q 1441 -91 1130 -33 
Q 819 25 488 141 
L 488 750 
Q 750 597 1062 519 
Q 1375 441 1716 441 
Q 2309 441 2620 675 
Q 2931 909 2931 1356 
Q 2931 1769 2642 2001 
Q 2353 2234 1838 2234 
L 1294 2234 
L 1294 2753 
L 1863 2753 
Q 2328 2753 2575 2939 
Q 2822 3125 2822 3475 
Q 2822 3834 2567 4026 
Q 2313 4219 1838 4219 
Q 1578 4219 1281 4162 
Q 984 4106 628 3988 
L 628 4550 
Q 988 4650 1302 4700 
Q 1616 4750 1894 4750 
Q 2613 4750 3031 4423 
Q 3450 4097 3450 3541 
Q 3450 3153 3228 2886 
Q 3006 2619 2597 2516 
z
" transform="scale(0.015625)"/>
       </defs>
       <use xlink:href="#DejaVuSans-32"/>
       <use xlink:href="#DejaVuSans-30" x="63.623047"/>
       <use xlink:href="#DejaVuSans-32" x="127.246094"/>
       <use xlink:href="#DejaVuSans-33" x="190.869141"/>
       <use xlink:href="#DejaVuSans-2d" x="254.492188"/>
       <use xlink:href="#DejaVuSans-30" x="290.576172"/>
       <use xlink:href="#DejaVuSans-31" x="354.199219"/>
      </g>
     </g>
    </g>
    <g id="xtick_6">
     <g id="line2d_6">
      <g>
       <use xlink:href="#mbbbdd1e710" x="448.409951" y="327.558125" style="stroke: #000000; stroke-width: 0.8"/>
      </g>
     </g>
     <g id="text_6">
      <!-- 2023-02 -->
      <g transform="translate(427.518545 342.156563) scale(0.1 -0.1)">
       <use xlink:href="#DejaVuSans-32"/>
       <use xlink:href="#DejaVuSans-30" x="63.623047"/>
       <use xlink:href="#DejaVuSans-32" x="127.246094"/>
       <use xlink:href="#DejaVuSans-33" x="190.869141"/>
       <use xlink:href="#DejaVuSans-2d" x="254.492188"/>
       <use xlink:href="#DejaVuSans-30" x="290.576172"/>
       <use xlink:href="#DejaVuSans-32" x="354.199219"/>
      </g>
     </g>
    </g>
    <g id="xtick_7">
     <g id="line2d_7">
      <g>
       <use xlink:href="#mbbbdd1e710" x="516.521741" y="327.558125" style="stroke: #000000; stroke-width: 0.8"/>
      </g>
     </g>
     <g id="text_7">
      <!-- 2023-03 -->
      <g transform="translate(495.630334 342.156563) scale(0.1 -0.1)">
       <use xlink:href="#DejaVuSans-32"/>
       <use xlink:href="#DejaVuSans-30" x="63.623047"/>
       <use xlink:href="#DejaVuSans-32" x="127.246094"/>
       <use xlink:href="#DejaVuSans-33" x="190.869141"/>
       <use xlink:href="#DejaVuSans-2d" x="254.492188"/>
       <use xlink:href="#DejaVuSans-30" x="290.576172"/>
       <use xlink:href="#DejaVuSans-33" x="354.199219"/>
      </g>
     </g>
    </g>
    <g id="xtick_8">
     <g id="line2d_8">
      <g>
       <use xlink:href="#mbbbdd1e710" x="591.931222" y="327.558125" style="stroke: #000000; stroke-width: 0.8"/>
      </g>
     </g>
     <g id="text_8">
      <!-- 2023-04 -->
      <g transform="translate(571.039816 342.156563) scale(0.1 -0.1)">
       <defs>
        <path id="DejaVuSans-34" d="M 2419 4116 
L 825 1625 
L 2419 1625 
L 2419 4116 
z
M 2253 4666 
L 3047 4666 
L 3047 1625 
L 3713 1625 
L 3713 1100 
L 3047 1100 
L 3047 0 
L 2419 0 
L 2419 1100 
L 313 1100 
L 313 1709 
L 2253 4666 
z
" transform="scale(0.015625)"/>
       </defs>
       <use xlink:href="#DejaVuSans-32"/>
       <use xlink:href="#DejaVuSans-30" x="63.623047"/>
       <use xlink:href="#DejaVuSans-32" x="127.246094"/>
       <use xlink:href="#DejaVuSans-33" x="190.869141"/>
       <use xlink:href="#DejaVuSans-2d" x="254.492188"/>
       <use xlink:href="#DejaVuSans-30" x="290.576172"/>
       <use xlink:href="#DejaVuSans-34" x="354.199219"/>
      </g>
     </g>
    </g>
    <g id="xtick_9">
     <g id="line2d_9">
      <g>
       <use xlink:href="#mbbbdd1e710" x="664.90814" y="327.558125" style="stroke: #000000; stroke-width: 0.8"/>
      </g>
     </g>
     <g id="text_9">
      <!-- 2023-05 -->
      <g transform="translate(644.016734 342.156563) scale(0.1 -0.1)">
       <defs>
        <path id="DejaVuSans-35" d="M 691 4666 
L 3169 4666 
L 3169 4134 
L 1269 4134 
L 1269 2991 
Q 1406 3038 1543 3061 
Q 1681 3084 1819 3084 
Q 2600 3084 3056 2656 
Q 3513 2228 3513 1497 
Q 3513 744 3044 326 
Q 2575 -91 1722 -91 
Q 1428 -91 1123 -41 
Q 819 9 494 109 
L 494 744 
Q 775 591 1075 516 
Q 1375 441 1709 441 
Q 2250 441 2565 725 
Q 2881 1009 2881 1497 
Q 2881 1984 2565 2268 
Q 2250 2553 1709 2553 
Q 1456 2553 1204 2497 
Q 953 2441 691 2322 
L 691 4666 
z
" transform="scale(0.015625)"/>
       </defs>
       <use xlink:href="#DejaVuSans-32"/>
       <use xlink:href="#DejaVuSans-30" x="63.623047"/>
       <use xlink:href="#DejaVuSans-32" x="127.246094"/>
       <use xlink:href="#DejaVuSans-33" x="190.869141"/>
       <use xlink:href="#DejaVuSans-2d" x="254.492188"/>
       <use xlink:href="#DejaVuSans-30" x="290.576172"/>
       <use xlink:href="#DejaVuSans-35" x="354.199219"/>
      </g>
     </g>
    </g>
   </g>
   <g id="matplotlib.axis_2">
    <g id="ytick_1">
     <g id="line2d_10">
      <defs>
       <path id="m83a0d65d82" d="M 0 0 
L -3.5 0 
" style="stroke: #000000; stroke-width: 0.8"/>
      </defs>
      <g>
       <use xlink:href="#m83a0d65d82" x="20.5625" y="305.500006" style="stroke: #000000; stroke-width: 0.8"/>
      </g>
     </g>
     <g id="text_10">
      <!-- 0 -->
      <g transform="translate(7.2 309.299224) scale(0.1 -0.1)">
       <use xlink:href="#DejaVuSans-30"/>
      </g>
     </g>
    </g>
    <g id="ytick_2">
     <g id="line2d_11">
      <g>
       <use xlink:href="#m83a0d65d82" x="20.5625" y="258.276523" style="stroke: #000000; stroke-width: 0.8"/>
      </g>
     </g>
     <g id="text_11">
      <!-- 1 -->
      <g transform="translate(7.2 262.075742) scale(0.1 -0.1)">
       <use xlink:href="#DejaVuSans-31"/>
      </g>
     </g>
    </g>
    <g id="ytick_3">
     <g id="line2d_12">
      <g>
       <use xlink:href="#m83a0d65d82" x="20.5625" y="211.053041" style="stroke: #000000; stroke-width: 0.8"/>
      </g>
     </g>
     <g id="text_12">
      <!-- 2 -->
      <g transform="translate(7.2 214.852259) scale(0.1 -0.1)">
       <use xlink:href="#DejaVuSans-32"/>
      </g>
     </g>
    </g>
    <g id="ytick_4">
     <g id="line2d_13">
      <g>
       <use xlink:href="#m83a0d65d82" x="20.5625" y="163.829558" style="stroke: #000000; stroke-width: 0.8"/>
      </g>
     </g>
     <g id="text_13">
      <!-- 3 -->
      <g transform="translate(7.2 167.628777) scale(0.1 -0.1)">
       <use xlink:href="#DejaVuSans-33"/>
      </g>
     </g>
    </g>
    <g id="ytick_5">
     <g id="line2d_14">
      <g>
       <use xlink:href="#m83a0d65d82" x="20.5625" y="116.606076" style="stroke: #000000; stroke-width: 0.8"/>
      </g>
     </g>
     <g id="text_14">
      <!-- 4 -->
      <g transform="translate(7.2 120.405294) scale(0.1 -0.1)">
       <use xlink:href="#DejaVuSans-34"/>
      </g>
     </g>
    </g>
    <g id="ytick_6">
     <g id="line2d_15">
      <g>
       <use xlink:href="#m83a0d65d82" x="20.5625" y="69.382593" style="stroke: #000000; stroke-width: 0.8"/>
      </g>
     </g>
     <g id="text_15">
      <!-- 5 -->
      <g transform="translate(7.2 73.181812) scale(0.1 -0.1)">
       <use xlink:href="#DejaVuSans-35"/>
      </g>
     </g>
    </g>
   </g>
   <g id="line2d_16">
    <path d="M 51.699318 298.142587 
L 51.800675 299.252654 
L 52.003389 297.755354 
L 52.307459 297.806985 
L 52.408816 298.658897 
L 52.510173 298.607266 
L 52.61153 298.400742 
L 52.712886 298.581451 
L 52.814243 298.426558 
L 53.016957 298.658897 
L 53.219671 300.36272 
L 53.321027 300.182012 
L 53.523741 299.459178 
L 53.625098 300.027119 
L 53.726455 299.381731 
L 53.827812 300.724137 
L 53.929168 300.620875 
L 54.131882 301.421156 
L 54.233239 302.763562 
L 54.638666 301.11137 
L 54.740023 301.266263 
L 54.942737 301.730942 
L 55.14545 302.324699 
L 55.246807 301.911651 
L 55.348164 302.092359 
L 55.449521 301.705127 
L 55.652235 302.505407 
L 55.753591 301.782573 
L 55.854948 302.014913 
L 55.956305 301.62768 
L 56.564446 303.899444 
L 56.665803 305.267666 
L 56.969873 302.866824 
L 57.07123 302.918455 
L 57.273944 303.512212 
L 57.375301 303.357319 
L 57.578014 303.847813 
L 57.780728 303.744551 
L 57.882085 303.951075 
L 57.983442 304.648094 
L 58.084798 304.493201 
L 58.186155 304.777171 
L 58.388869 304.028522 
L 58.591583 305.629083 
L 58.794296 306.661703 
L 58.99701 307.358722 
L 59.098367 308.830206 
L 59.402437 306.351917 
L 59.503794 306.197024 
L 59.605151 306.326102 
L 59.807865 306.661703 
L 60.010578 306.919858 
L 60.111935 306.842412 
L 60.213292 306.50681 
L 60.314649 306.584257 
L 60.517362 306.016316 
L 60.618719 305.835607 
L 60.821433 305.913054 
L 60.92279 307.126382 
L 61.125503 305.964685 
L 61.22686 305.964685 
L 61.328217 305.783976 
L 61.429574 305.345113 
L 61.530931 305.370928 
L 61.632288 305.396744 
L 61.733644 305.887238 
L 61.936358 305.422559 
L 62.037715 305.396744 
L 62.139072 305.629083 
L 62.443142 305.396744 
L 62.544499 305.164404 
L 62.645856 305.216035 
L 62.848569 304.570647 
L 62.949926 304.72554 
L 63.051283 305.887238 
L 63.15264 305.783976 
L 63.253997 305.783976 
L 63.355354 305.577452 
L 63.659424 306.351917 
L 63.760781 306.119578 
L 63.963495 306.971489 
L 64.267565 304.364123 
L 64.368922 304.157599 
L 64.470279 304.493201 
L 64.571636 304.20923 
L 64.672992 304.596463 
L 64.875706 304.415754 
L 65.07842 304.493201 
L 65.179777 304.260861 
L 65.38249 304.932065 
L 65.686561 304.131784 
L 65.889274 305.293482 
L 65.990631 305.035327 
L 66.193345 305.035327 
L 66.294702 306.042131 
L 66.497415 304.673909 
L 66.598772 304.570647 
L 66.700129 304.648094 
L 66.801486 303.744551 
L 67.105556 305.112773 
L 67.61234 305.887238 
L 67.713697 305.70653 
L 67.815054 307.152198 
L 68.119125 305.370928 
L 68.220481 305.70653 
L 68.321838 305.835607 
L 68.524552 307.074751 
L 68.625909 306.584257 
L 68.727266 307.02312 
L 68.929979 306.22284 
L 69.031336 306.480995 
L 69.335407 299.536624 
L 69.436763 196.274609 
L 69.53812 296.567841 
L 69.639477 295.612668 
L 69.842191 291.404741 
L 70.146261 279.684502 
L 70.754402 241.529187 
L 70.855759 239.050899 
L 71.15983 225.26542 
L 71.362543 218.888991 
L 72.173398 187.006843 
L 72.477468 179.830133 
L 72.984252 175.751284 
L 73.491037 178.668436 
L 73.795107 181.921189 
L 73.896464 181.895374 
L 74.200534 184.606002 
L 75.518173 209.233992 
L 76.329028 227.950232 
L 77.342596 246.150162 
L 77.646667 250.848584 
L 78.558878 264.040307 
L 78.761592 263.007686 
L 79.268376 266.131362 
L 79.47109 267.861001 
L 79.572446 268.144972 
L 79.77516 270.029503 
L 80.180587 272.998286 
L 80.281944 273.127364 
L 80.586015 275.812176 
L 80.788728 277.180398 
L 80.890085 277.464369 
L 80.991442 278.496989 
L 81.194156 278.083941 
L 81.396869 278.961668 
L 82.207724 282.240237 
L 82.309081 281.801373 
L 82.511795 283.634274 
L 82.613151 283.94406 
L 82.714508 283.866613 
L 83.221292 287.016105 
L 83.322649 287.738939 
L 83.424006 287.713124 
L 83.62672 286.293271 
L 83.728076 286.680503 
L 83.829433 286.422348 
L 84.032147 287.454968 
L 84.234861 288.590851 
L 84.336217 288.410142 
L 84.437574 288.565035 
L 84.944358 290.552829 
L 85.045715 290.320489 
L 85.248429 291.198217 
L 85.349786 291.224032 
L 85.653856 291.63708 
L 85.755213 291.533818 
L 85.85657 291.766158 
L 85.957927 291.585449 
L 86.16064 291.946866 
L 86.363354 292.6697 
L 86.464711 292.38573 
L 86.566068 292.437361 
L 86.870138 293.366719 
L 86.971495 293.392534 
L 87.174209 293.082748 
L 87.275566 293.41835 
L 87.376922 293.211826 
L 87.78235 294.399339 
L 87.883706 294.192815 
L 87.985063 294.270261 
L 88.289134 293.676505 
L 88.694561 293.960475 
L 89.505416 295.018911 
L 89.910843 294.786572 
L 90.31627 296.567841 
L 90.417627 296.619472 
L 90.518984 295.767561 
L 90.721698 299.278469 
L 91.025768 295.819192 
L 91.127125 295.561037 
L 91.228482 295.612668 
L 91.431196 296.077347 
L 91.532552 296.051531 
L 91.735266 296.387133 
L 91.836623 296.412948 
L 91.93798 296.103162 
L 92.140693 298.090956 
L 92.444764 296.335502 
L 92.647478 297.78117 
L 92.748834 297.54883 
L 92.850191 297.910247 
L 93.154262 300.749953 
L 93.356975 297.78117 
L 93.458332 297.523015 
L 93.559689 297.574646 
L 93.762403 298.065141 
L 93.863759 298.168403 
L 94.066473 298.478189 
L 94.16783 298.478189 
L 94.269187 298.607266 
L 94.370544 298.504004 
L 94.573257 300.156196 
L 94.674614 299.794779 
L 94.877328 298.52982 
L 95.080041 300.104565 
L 95.181398 300.311089 
L 95.485469 302.14399 
L 95.586826 303.17661 
L 95.789539 300.207827 
L 95.992253 299.743148 
L 96.194967 300.36272 
L 96.296323 300.336905 
L 96.499037 300.698322 
L 96.600394 300.724137 
L 96.701751 300.491798 
L 96.803108 300.724137 
L 97.107178 302.89264 
L 97.208535 300.853215 
L 97.309892 301.008108 
L 97.715319 303.021717 
L 97.816676 303.150795 
L 98.01939 305.551637 
L 98.222103 301.834204 
L 98.32346 301.86002 
L 98.424817 301.756758 
L 98.62753 302.040728 
L 98.728887 301.601865 
L 98.830244 302.14399 
L 98.931601 302.040728 
L 99.134315 302.37633 
L 99.235671 302.273068 
L 99.337028 301.834204 
L 99.539742 303.17661 
L 99.641099 302.350514 
L 99.742456 302.6603 
L 99.843812 303.69292 
L 99.945169 303.486396 
L 100.451953 307.281275 
L 100.654667 303.899444 
L 100.857381 303.047533 
L 101.060094 303.92526 
L 101.161451 304.028522 
L 101.364165 304.570647 
L 101.566879 304.183415 
L 101.769592 304.622278 
L 102.073663 304.95788 
L 102.276376 304.389939 
L 102.377733 304.802987 
L 102.783161 298.400742 
L 102.884517 298.090956 
L 103.087231 294.812387 
L 103.188588 294.580048 
L 103.492658 291.998497 
L 103.796729 286.628872 
L 104.303513 271.13957 
L 104.810297 258.025294 
L 105.013011 257.225014 
L 105.519795 259.445147 
L 105.925222 261.768542 
L 106.026579 261.89762 
L 106.127936 262.775347 
L 106.229293 262.749531 
L 106.33065 262.852793 
L 106.533363 262.284852 
L 106.63472 262.388114 
L 106.837434 262.956055 
L 107.141504 265.150373 
L 107.445575 267.215614 
L 107.749645 271.449356 
L 107.851002 270.726522 
L 107.952359 271.087939 
L 108.256429 274.108353 
L 108.357786 170.794707 
L 108.661857 277.412738 
L 108.965927 279.116561 
L 109.067284 279.916841 
L 109.168641 279.142376 
L 109.675425 283.117964 
L 109.878139 284.641079 
L 109.979495 284.176399 
L 110.182209 286.396533 
L 110.384923 284.718525 
L 110.993064 288.100356 
L 111.094421 287.893832 
L 111.398491 288.82319 
L 111.499848 288.771559 
L 111.702562 289.700917 
L 111.803918 289.752548 
L 112.006632 290.656091 
L 112.513416 293.005302 
L 112.614773 293.263457 
L 112.817487 292.592254 
L 112.918844 292.179206 
L 113.0202 292.618069 
L 113.121557 292.540623 
L 113.324271 293.031117 
L 113.425628 292.979486 
L 113.526984 293.056933 
L 113.628341 293.366719 
L 113.729698 293.315088 
L 113.932412 293.779767 
L 114.033769 294.760756 
L 114.236482 294.089553 
L 114.337839 294.425154 
L 114.64191 296.283871 
L 114.743266 296.077347 
L 114.94598 297.910247 
L 115.047337 297.600461 
L 115.250051 295.845007 
L 115.554121 295.896638 
L 115.655478 296.051531 
L 115.756835 295.845007 
L 115.858192 296.283871 
L 115.959548 296.025716 
L 116.060905 296.283871 
L 116.364976 295.819192 
L 116.466333 296.025716 
L 116.87176 297.961879 
L 116.973117 297.755354 
L 117.17583 298.942868 
L 117.479901 297.497199 
L 117.682615 298.400742 
L 117.986685 296.903443 
L 118.088042 296.154793 
L 118.290756 298.065141 
L 118.493469 296.258055 
L 118.696183 296.206424 
L 118.898896 297.316491 
L 119.10161 296.645288 
L 119.405681 298.400742 
L 119.507037 298.374927 
L 119.709751 299.691517 
L 119.811108 299.614071 
L 120.216535 297.058336 
L 120.317892 297.058336 
L 120.621963 297.626277 
L 120.723319 297.626277 
L 120.824676 297.806985 
L 120.926033 297.290675 
L 121.128747 297.987694 
L 121.33146 300.207827 
L 121.432817 300.156196 
L 121.635531 299.175207 
L 122.040958 301.214632 
L 122.142315 301.472787 
L 122.345029 303.951075 
L 122.547742 299.949672 
L 122.649099 299.872226 
L 122.851813 300.182012 
L 123.054527 300.543429 
L 123.155883 301.033923 
L 123.25724 300.414351 
L 123.358597 300.827399 
L 123.561311 300.233643 
L 123.662667 300.388536 
L 123.865381 299.665702 
L 124.068095 299.588255 
L 124.169452 298.994499 
L 124.270808 299.355916 
L 124.473522 301.989097 
L 124.574879 299.768964 
L 124.777593 300.569244 
L 124.878949 299.484993 
L 125.081663 299.84641 
L 125.284377 299.536624 
L 125.892518 297.677908 
L 125.993875 297.729539 
L 126.095231 296.955074 
L 126.297945 297.910247 
L 126.399302 297.858616 
L 126.602016 297.626277 
L 126.804729 298.220034 
L 126.906086 297.987694 
L 127.007443 298.271665 
L 127.1088 299.3301 
L 127.311513 296.696919 
L 127.716941 294.941465 
L 127.919654 294.554232 
L 128.122368 293.444165 
L 128.426439 292.721331 
L 128.527795 293.005302 
L 128.629152 292.179206 
L 128.831866 292.540623 
L 128.933223 291.456372 
L 129.237293 293.547427 
L 129.33865 293.082748 
L 129.541364 294.812387 
L 129.64272 294.528417 
L 129.744077 292.411545 
L 130.048148 292.953671 
L 130.149505 292.850409 
L 130.453575 293.728136 
L 130.554932 293.70232 
L 130.859002 294.399339 
L 131.061716 297.161598 
L 131.26443 295.251251 
L 131.365787 295.48359 
L 131.5685 297.03252 
L 131.669857 297.109967 
L 131.973928 296.258055 
L 132.176641 296.722734 
L 132.379355 296.490395 
L 132.582069 296.696919 
L 132.784782 297.26486 
L 133.088853 298.116772 
L 133.291566 298.271665 
L 133.392923 298.787975 
L 133.49428 298.710528 
L 133.595637 298.220034 
L 133.79835 298.658897 
L 133.899707 298.710528 
L 134.102421 298.633082 
L 134.305135 299.355916 
L 134.507848 299.123576 
L 134.609205 299.123576 
L 134.811919 298.736344 
L 135.115989 298.555635 
L 135.217346 298.374927 
L 135.318703 298.52982 
L 135.72413 298.168403 
L 135.926844 298.245849 
L 136.028201 298.762159 
L 136.230914 298.039325 
L 136.433628 298.581451 
L 136.636342 299.691517 
L 136.839055 298.607266 
L 137.041769 297.884432 
L 137.143126 298.116772 
L 137.447196 295.664299 
L 137.548553 295.767561 
L 137.751267 295.354513 
L 137.852624 295.096358 
L 137.953981 295.173804 
L 138.156694 294.838203 
L 138.258051 295.690114 
L 138.460765 294.786572 
L 138.562122 294.889834 
L 138.663478 295.406144 
L 138.764835 294.502601 
L 138.866192 294.709125 
L 139.068906 293.624874 
L 139.170262 294.21863 
L 139.271619 293.93466 
L 139.372976 293.237641 
L 139.474333 293.70232 
L 139.57569 293.289272 
L 139.677047 293.573243 
L 139.778403 294.296077 
L 139.87976 293.728136 
L 140.183831 295.018911 
L 140.487901 293.986291 
L 140.589258 294.270261 
L 140.791972 297.342306 
L 140.994685 296.903443 
L 141.096042 296.825996 
L 141.197399 296.490395 
L 141.298756 297.316491 
L 141.400113 297.135782 
L 141.602826 295.9999 
L 141.80554 295.664299 
L 141.906897 295.664299 
L 142.008254 295.896638 
L 142.109611 295.767561 
L 142.312324 295.845007 
L 142.515038 296.051531 
L 143.021822 294.96728 
L 143.123179 295.690114 
L 143.224536 297.471384 
L 143.528606 294.476785 
L 144.136747 292.308283 
L 144.238104 292.359914 
L 144.339461 291.998497 
L 144.542174 292.179206 
L 144.846245 292.308283 
L 145.048959 293.056933 
L 145.150315 292.90204 
L 145.454386 293.444165 
L 145.6571 296.077347 
L 145.859813 295.251251 
L 146.366597 297.213229 
L 146.569311 298.374927 
L 146.873382 295.690114 
L 147.076095 295.819192 
L 147.380166 296.077347 
L 147.481523 296.387133 
L 147.684236 296.180609 
L 147.785593 296.309686 
L 147.88695 296.23224 
L 148.089664 298.52982 
L 148.292377 296.980889 
L 148.900518 300.465982 
L 149.001875 301.163001 
L 149.407302 297.884432 
L 149.508659 298.01351 
L 149.610016 297.961879 
L 149.914086 298.400742 
L 150.015443 298.349111 
L 150.1168 298.452373 
L 150.319514 298.220034 
L 150.522227 301.292078 
L 150.724941 298.865421 
L 150.826298 299.252654 
L 151.130368 301.240447 
L 151.434439 304.880434 
L 151.535796 303.563843 
L 151.738509 299.923857 
L 152.34665 299.175207 
L 152.448007 298.555635 
L 152.954791 303.099164 
L 153.056148 302.531223 
L 153.258862 301.317894 
L 153.562932 303.279872 
L 153.664289 303.615474 
L 153.867003 306.248655 
L 153.96836 305.319297 
L 154.171073 302.273068 
L 154.373787 302.118175 
L 154.475144 301.885835 
L 154.576501 302.195621 
L 154.677857 301.937466 
L 154.880571 302.686116 
L 154.981928 302.298883 
L 155.083285 302.427961 
L 155.184642 302.014913 
L 155.387355 304.828802 
L 155.590069 302.505407 
L 156.096853 305.345113 
L 156.299567 308.391342 
L 156.603637 303.150795 
L 156.806351 303.486396 
L 156.907708 303.331503 
L 157.110421 303.563843 
L 157.211778 303.331503 
L 157.313135 303.460581 
L 157.414492 303.228241 
L 157.515849 303.305688 
L 157.617206 302.995902 
L 157.819919 305.216035 
L 158.022633 303.047533 
L 158.12399 303.486396 
L 158.42806 305.551637 
L 158.529417 305.654899 
L 158.732131 307.152198 
L 159.137558 303.512212 
L 159.238915 303.538027 
L 159.340272 303.69292 
L 159.644342 303.460581 
L 160.049769 302.815193 
L 160.151126 302.789378 
L 160.35384 303.021717 
L 160.455197 302.557038 
L 161.063338 306.713334 
L 161.266051 305.035327 
L 161.468765 303.357319 
L 161.570122 303.254057 
L 161.671479 303.357319 
L 161.772836 303.667105 
L 161.975549 302.918455 
L 162.178263 303.047533 
L 162.380977 302.866824 
L 162.685047 303.40895 
L 162.786404 302.066544 
L 163.293188 305.009511 
L 163.394545 303.099164 
L 163.495902 303.279872 
L 163.799972 302.582854 
L 163.901329 302.737747 
L 164.002686 302.686116 
L 164.2054 302.298883 
L 164.408113 302.6603 
L 164.610827 302.531223 
L 164.712184 302.789378 
L 164.914897 302.686116 
L 165.016254 302.815193 
L 165.117611 304.338308 
L 165.421681 303.228241 
L 165.523038 303.538027 
L 165.624395 303.331503 
L 165.827109 304.364123 
L 165.928466 304.105968 
L 166.029822 306.042131 
L 166.232536 303.383134 
L 166.333893 302.298883 
L 166.536607 302.970086 
L 166.637963 303.563843 
L 166.73932 303.434765 
L 166.942034 302.608669 
L 167.043391 302.6603 
L 167.144748 302.557038 
L 167.246104 302.737747 
L 167.347461 302.608669 
L 167.550175 301.524418 
L 167.752889 302.89264 
L 167.854245 302.918455 
L 168.056959 303.563843 
L 168.158316 303.486396 
L 168.462386 305.525821 
L 168.6651 301.911651 
L 168.867814 301.266263 
L 169.070527 301.756758 
L 169.171884 303.124979 
L 169.475955 301.653496 
L 169.577311 301.292078 
L 169.678668 301.343709 
L 169.881382 301.937466 
L 169.982739 304.544832 
L 170.185452 302.092359 
L 170.286809 302.402145 
L 170.388166 303.228241 
L 170.59088 301.756758 
L 170.692237 301.989097 
L 170.793593 301.369525 
L 170.996307 301.756758 
L 171.300378 300.982292 
L 171.503091 301.550234 
L 171.604448 301.653496 
L 171.807162 301.421156 
L 171.908519 301.730942 
L 172.009875 301.498603 
L 172.111232 301.730942 
L 172.313946 301.11137 
L 172.51666 301.576049 
L 172.618016 301.292078 
L 172.82073 302.014913 
L 172.922087 302.169806 
L 173.124801 303.434765 
L 173.327514 306.429364 
L 173.530228 302.195621 
L 173.732942 301.498603 
L 173.935655 301.214632 
L 174.239726 301.421156 
L 174.442439 301.163001 
L 174.543796 300.801584 
L 174.74651 301.11137 
L 174.847867 302.505407 
L 175.05058 300.59506 
L 175.151937 300.853215 
L 175.253294 301.911651 
L 175.354651 301.11137 
L 175.456008 301.911651 
L 175.557364 301.601865 
L 175.760078 300.233643 
L 175.861435 300.36272 
L 176.064149 299.149392 
L 176.165505 298.994499 
L 176.469576 294.915649 
L 176.97636 293.624874 
L 177.888572 284.666894 
L 179.408924 258.980468 
L 181.436061 206.342656 
L 183.05777 174.305616 
L 183.463197 167.774293 
L 183.969981 161.242971 
L 184.274052 160.416875 
L 184.476766 160.649214 
L 184.578122 161.681834 
L 184.679479 161.165524 
L 184.780836 161.242971 
L 184.882193 162.327222 
L 184.98355 162.043251 
L 185.388977 163.592181 
L 185.591691 162.327222 
L 185.693047 161.759281 
L 185.794404 161.965805 
L 186.098475 163.204949 
L 186.199832 163.514735 
L 186.605259 166.896566 
L 186.706616 166.896566 
L 186.909329 168.497127 
L 187.010686 168.497127 
L 187.2134 170.304212 
L 187.618827 174.667033 
L 188.328325 181.095093 
L 188.429682 183.108702 
L 188.531039 182.798916 
L 189.13918 188.297619 
L 189.44325 190.517752 
L 189.645964 190.156335 
L 189.747321 190.285412 
L 190.051391 189.536763 
L 190.355462 184.941603 
L 191.470387 160.804107 
L 191.977171 156.36384 
L 192.281241 155.305405 
L 192.483955 154.840726 
L 192.585312 154.556755 
L 192.686669 154.608386 
L 192.889382 154.350231 
L 192.990739 154.350231 
L 193.700237 156.518733 
L 194.207021 159.668225 
L 194.308378 160.468506 
L 194.511092 162.766085 
L 195.119233 168.238972 
L 195.423303 171.440095 
L 195.82873 175.31242 
L 197.146369 189.38187 
L 197.551797 196.506949 
L 197.957224 197.849355 
L 199.072149 206.058685 
L 199.274863 209.388885 
L 199.37622 209.156546 
L 199.883004 214.810141 
L 199.98436 215.455529 
L 200.085717 214.810141 
L 200.187074 215.352266 
L 200.288431 216.617226 
L 200.491145 215.352266 
L 200.795215 218.579204 
L 200.896572 218.60502 
L 201.403356 222.580608 
L 201.504713 222.632239 
L 201.707427 224.387693 
L 201.808783 223.20018 
L 202.112854 225.833361 
L 202.214211 226.375487 
L 202.416924 228.414911 
L 202.518281 228.569804 
L 202.619638 228.492358 
L 202.923709 227.666262 
L 203.227779 229.654056 
L 203.329136 230.247812 
L 203.430493 230.221997 
L 203.633206 230.712491 
L 203.734563 230.8932 
L 203.937277 230.170366 
L 204.139991 232.803547 
L 204.241347 232.029082 
L 204.849488 234.972049 
L 205.052202 234.636448 
L 205.153559 235.02368 
L 205.254916 234.765525 
L 205.356272 234.972049 
L 205.660343 237.166367 
L 205.863057 236.727504 
L 206.06577 237.011474 
L 206.268484 238.534589 
L 206.471198 239.283238 
L 206.572554 239.309054 
L 206.876625 240.703091 
L 206.977982 240.780538 
L 207.079339 241.090324 
L 207.180695 240.961246 
L 207.383409 241.219401 
L 207.484766 240.8838 
L 207.788836 241.40011 
L 207.890193 241.606634 
L 207.99155 242.20039 
L 208.092907 241.942235 
L 208.599691 244.136553 
L 208.802405 244.420524 
L 209.309189 246.537395 
L 209.511903 245.375697 
L 209.613259 245.453144 
L 209.815973 244.420524 
L 210.120044 239.954442 
L 210.525471 236.443533 
L 210.626828 234.688079 
L 211.133612 214.629432 
L 211.437682 191.163139 
L 211.84311 159.823118 
L 212.248537 140.822907 
L 212.653964 132.071451 
L 213.059392 125.411051 
L 213.667533 120.660999 
L 213.870246 120.583552 
L 213.971603 120.19632 
L 214.275674 122.106667 
L 214.37703 121.848512 
L 214.681101 122.493899 
L 214.782458 122.519715 
L 214.883815 122.674608 
L 215.289242 125.462682 
L 215.593312 128.276572 
L 216.201453 135.195127 
L 217.924519 158.919575 
L 218.53266 166.560964 
L 219.546229 182.024451 
L 219.647586 182.076082 
L 219.748942 182.308422 
L 219.951656 183.573381 
L 220.661154 190.311228 
L 221.167938 193.951214 
L 221.370652 195.680853 
L 221.573365 198.133325 
L 221.674722 198.494743 
L 221.978793 201.721681 
L 222.38422 203.012456 
L 222.992361 205.981239 
L 223.296431 207.401091 
L 223.499145 208.795129 
L 223.600502 208.61442 
L 223.904572 210.39569 
L 224.005929 210.731291 
L 224.208643 212.202775 
L 224.411357 213.054687 
L 224.512713 212.69327 
L 224.715427 214.75851 
L 225.019498 214.474539 
L 225.222211 215.326451 
L 225.323568 214.965034 
L 225.424925 215.04248 
L 225.830352 217.107721 
L 226.134423 218.062894 
L 226.742564 223.277626 
L 226.84392 221.986851 
L 226.945277 222.709685 
L 227.046634 222.348268 
L 227.147991 222.477346 
L 227.249348 222.425715 
L 228.161559 225.291235 
L 228.262916 225.213789 
L 228.364273 225.420313 
L 228.46563 224.929818 
L 228.566987 225.084711 
L 228.668343 225.859177 
L 228.871057 228.285834 
L 229.276484 231.151355 
L 229.580555 229.834764 
L 229.681912 229.886395 
L 229.783269 229.370085 
L 229.884625 229.938026 
L 229.985982 229.550794 
L 230.188696 231.073908 
L 230.290053 230.8932 
L 230.492766 231.125539 
L 230.594123 231.977451 
L 230.69548 231.92582 
L 230.796837 230.8932 
L 230.898194 232.080713 
L 230.99955 231.641849 
L 231.404978 234.920418 
L 231.709048 236.159563 
L 231.911762 233.500566 
L 232.013119 234.197584 
L 232.215832 233.965245 
L 232.418546 234.455739 
L 232.519903 234.404108 
L 232.62126 234.249215 
L 233.128044 235.565806 
L 233.330758 236.340271 
L 233.432114 236.237009 
L 233.533471 237.140552 
L 233.736185 236.908212 
L 233.837542 237.03729 
L 234.040255 236.262825 
L 234.141612 236.495164 
L 234.242969 236.314456 
L 234.445683 235.514175 
L 234.648396 236.572611 
L 234.85111 236.572611 
L 234.952467 236.959843 
L 235.053824 236.882397 
L 235.155181 237.398707 
L 235.357894 235.126942 
L 235.560608 234.171769 
L 235.763321 233.47475 
L 236.168749 231.564403 
L 236.270106 230.738307 
L 236.371462 231.564403 
L 236.472819 230.867384 
L 237.385031 214.939218 
L 237.790458 206.445918 
L 238.094529 201.721681 
L 238.398599 197.849355 
L 238.499956 198.33985 
L 239.310811 190.440305 
L 239.412167 190.18215 
L 239.614881 190.362859 
L 239.716238 190.285412 
L 239.817595 189.820733 
L 240.020308 190.18215 
L 240.121665 190.027257 
L 240.425736 190.337043 
L 240.527093 190.646829 
L 240.93252 194.261 
L 241.135233 194.906388 
L 241.337947 196.997443 
L 241.540661 196.119716 
L 241.743374 197.255598 
L 242.047445 199.527363 
L 242.148802 200.146935 
L 242.351515 201.902389 
L 242.554229 203.554581 
L 242.655586 203.425504 
L 243.061013 206.83315 
L 243.16237 207.375276 
L 243.669154 212.796532 
L 243.973225 214.500355 
L 244.277295 216.281625 
L 244.378652 216.049285 
L 244.986793 220.463736 
L 245.08815 220.67026 
L 245.290864 221.857773 
L 245.39222 221.367279 
L 245.797648 224.594217 
L 246.000361 224.490955 
L 246.507145 226.427118 
L 246.608502 226.143147 
L 246.811216 226.81435 
L 246.912573 226.659457 
L 247.115286 229.060299 
L 247.216643 229.524978 
L 247.419357 229.060299 
L 247.622071 229.808949 
L 247.723427 229.757318 
L 247.824784 228.905406 
L 247.926141 228.931221 
L 248.027498 228.982852 
L 248.331568 232.726101 
L 248.432925 232.648654 
L 248.635639 232.906809 
L 248.736996 231.977451 
L 248.939709 232.829363 
L 249.041066 230.919015 
L 249.142423 231.874189 
L 249.24378 231.254617 
L 249.446494 232.829363 
L 249.54785 233.061702 
L 249.649207 233.758721 
L 249.750564 232.700285 
L 249.851921 233.70709 
L 249.953278 231.977451 
L 250.054635 233.603828 
L 250.155991 233.061702 
L 250.257348 233.216595 
L 250.460062 234.481555 
L 250.561419 234.404108 
L 250.764132 235.25602 
L 250.865489 235.02368 
L 251.068203 235.927223 
L 251.270916 235.875592 
L 251.372273 235.953038 
L 251.574987 235.643252 
L 251.777701 236.211194 
L 251.879057 236.391902 
L 251.980414 236.314456 
L 252.588555 237.940832 
L 252.689912 237.863386 
L 253.196696 239.283238 
L 253.298053 239.438131 
L 253.500767 240.522383 
L 253.602124 239.541394 
L 253.70348 239.593025 
L 253.804837 240.13515 
L 253.906194 239.799549 
L 254.210265 240.909615 
L 254.412978 240.703091 
L 254.717049 241.787342 
L 254.818406 241.709896 
L 255.122476 242.535992 
L 255.32519 243.284642 
L 255.527903 243.955845 
L 255.62926 244.265631 
L 255.730617 244.007476 
L 256.034687 244.394708 
L 256.237401 244.885203 
L 256.541472 245.53059 
L 256.642828 245.453144 
L 256.744185 245.608037 
L 256.946899 246.227609 
L 257.250969 246.614842 
L 257.55504 246.743919 
L 258.061824 248.473558 
L 258.163181 248.215403 
L 258.365895 248.396111 
L 258.467251 248.421927 
L 258.669965 248.834975 
L 258.771322 248.834975 
L 259.075392 249.84178 
L 259.278106 249.686886 
L 259.48082 249.170576 
L 259.886247 249.712702 
L 259.987604 249.84178 
L 260.088961 250.487167 
L 260.291674 249.996673 
L 260.494388 250.280643 
L 260.595745 249.970857 
L 260.697102 250.048304 
L 260.899815 249.506178 
L 261.102529 249.273838 
L 261.203886 249.428731 
L 261.305243 249.118945 
L 261.507956 249.273838 
L 261.609313 248.912421 
L 261.913384 249.170576 
L 262.116097 248.964052 
L 262.217454 249.041499 
L 262.420168 248.267034 
L 262.622881 248.705897 
L 262.724238 248.292849 
L 262.825595 249.041499 
L 263.028309 248.628451 
L 263.433736 246.821366 
L 263.535093 246.872997 
L 263.737807 246.382502 
L 263.839163 246.408318 
L 263.94052 245.685483 
L 264.244591 245.814561 
L 264.751375 243.955845 
L 264.852732 242.923225 
L 265.055445 243.516981 
L 265.359516 241.709896 
L 265.460873 241.374294 
L 265.56223 241.68408 
L 265.764943 239.696287 
L 266.879868 235.075311 
L 267.183939 234.249215 
L 267.386652 233.397304 
L 267.994793 231.461141 
L 268.09615 231.461141 
L 268.400221 230.531783 
L 268.501578 230.841569 
L 268.907005 229.989657 
L 269.008362 229.989657 
L 269.109719 229.808949 
L 269.413789 228.750513 
L 269.515146 229.034483 
L 269.616503 228.414911 
L 269.71786 228.440727 
L 269.819216 229.318454 
L 269.920573 228.853775 
L 270.02193 229.576609 
L 270.224644 228.208387 
L 270.326001 228.414911 
L 270.427357 228.337465 
L 270.528714 227.84697 
L 270.630071 228.105125 
L 270.731428 227.511369 
L 270.832785 227.537184 
L 271.035498 227.537184 
L 271.238212 227.149952 
L 271.542282 229.679871 
L 271.846353 231.900004 
L 272.150423 232.906809 
L 272.353137 233.578012 
L 272.657208 230.402705 
L 273.163992 225.291235 
L 273.569419 222.787132 
L 273.670776 223.019471 
L 273.772133 221.005862 
L 274.17756 227.640446 
L 274.481631 230.8932 
L 274.785701 233.345673 
L 274.887058 233.268226 
L 275.292485 226.117332 
L 275.495199 222.322453 
L 275.697913 220.541183 
L 276.001983 217.05609 
L 276.10334 216.746304 
L 276.204697 216.849566 
L 276.40741 215.894392 
L 276.508767 215.868577 
L 276.812838 214.965034 
L 276.914194 215.094111 
L 277.116908 214.293831 
L 277.420979 214.990849 
L 277.522335 215.687868 
L 277.725049 214.732694 
L 278.02912 213.674259 
L 278.130476 213.906598 
L 278.231833 213.364473 
L 278.33319 213.674259 
L 278.434547 213.596812 
L 278.535904 213.984045 
L 278.637261 213.777521 
L 278.941331 214.164753 
L 279.245402 213.700074 
L 279.448115 213.028871 
L 279.650829 211.815542 
L 279.752186 212.047882 
L 279.954899 213.751705 
L 280.056256 213.080502 
L 280.157613 213.338657 
L 280.25897 212.538377 
L 280.360327 214.216384 
L 280.664397 211.71228 
L 280.765754 211.583203 
L 280.968468 211.144339 
L 281.171181 211.273417 
L 281.475252 211.273417 
L 281.880679 209.724487 
L 282.083393 207.943217 
L 282.286106 209.182361 
L 282.894247 205.929608 
L 282.995604 205.697268 
L 283.401032 203.812736 
L 283.502388 203.73529 
L 284.110529 198.391481 
L 284.313243 195.396882 
L 284.617314 191.550372 
L 284.820027 190.104704 
L 285.225455 183.960614 
L 285.326811 183.960614 
L 285.732239 180.604598 
L 286.137666 178.926591 
L 286.239023 178.229572 
L 286.34038 178.797513 
L 286.441737 178.616805 
L 286.543093 176.603195 
L 286.847164 177.713262 
L 287.049877 179.15893 
L 287.455305 181.508141 
L 287.658018 180.449705 
L 287.759375 180.630414 
L 287.962089 182.773101 
L 288.063446 182.385868 
L 289.583798 189.743287 
L 290.49601 195.061281 
L 290.597367 195.241989 
L 291.104151 199.269208 
L 291.408221 200.430905 
L 291.813648 201.928205 
L 292.320433 205.361667 
L 292.523146 206.291025 
L 292.624503 207.633431 
L 292.72586 207.530169 
L 292.827217 207.452722 
L 292.928574 207.710877 
L 293.739428 211.996251 
L 294.65164 216.049285 
L 294.752997 217.469138 
L 294.95571 216.901197 
L 295.259781 217.34006 
L 295.361138 217.159352 
L 295.462494 217.882186 
L 295.563851 217.598215 
L 295.665208 220.024873 
L 295.766565 219.947426 
L 295.969279 219.534378 
L 296.273349 220.618629 
L 296.476063 220.15395 
L 296.678776 220.721891 
L 296.88149 220.437921 
L 296.982847 220.360474 
L 297.18556 220.541183 
L 297.286917 220.128135 
L 297.388274 220.257212 
L 297.489631 220.102319 
L 297.692345 221.057493 
L 297.793701 220.928415 
L 297.895058 221.212386 
L 297.996415 220.618629 
L 298.097772 221.031677 
L 298.199129 220.825153 
L 298.300486 221.160755 
L 298.401842 221.109124 
L 298.503199 221.212386 
L 298.908627 222.528977 
L 299.212697 223.20018 
L 299.415411 225.110527 
L 299.516768 224.929818 
L 299.618124 225.187973 
L 299.820838 224.336062 
L 299.922195 224.904003 
L 300.023552 224.310246 
L 300.631693 226.504564 
L 300.834406 227.020874 
L 301.543904 229.912211 
L 301.645261 229.938026 
L 301.847975 230.583414 
L 301.949331 230.738307 
L 302.152045 231.796742 
L 302.354759 231.641849 
L 302.456116 231.306248 
L 302.658829 233.552197 
L 302.760186 234.145953 
L 302.9629 233.087518 
L 303.165613 233.887798 
L 303.26697 233.913614 
L 303.368327 234.713894 
L 303.571041 232.984256 
L 303.773754 233.784536 
L 303.875111 233.294042 
L 304.280539 234.042691 
L 304.584609 233.500566 
L 304.88868 232.855178 
L 304.990036 232.777732 
L 305.19275 233.010071 
L 305.395464 233.47475 
L 305.598177 231.951635 
L 305.800891 232.597023 
L 306.003605 232.545392 
L 306.104962 231.357879 
L 306.409032 233.836167 
L 306.510389 233.810352 
L 306.713103 235.823961 
L 306.915816 234.197584 
L 307.11853 233.319857 
L 307.321243 232.20979 
L 307.4226 232.287237 
L 307.625314 232.777732 
L 307.726671 233.113333 
L 307.828028 232.95844 
L 308.030741 233.035887 
L 308.132098 232.932625 
L 308.334812 233.061702 
L 308.537525 234.791341 
L 308.638882 233.913614 
L 308.740239 234.275031 
L 308.841596 233.861983 
L 309.145666 235.565806 
L 309.34838 235.669068 
L 309.551094 235.77233 
L 309.956521 236.934028 
L 310.159235 236.572611 
L 310.260592 236.748156 
L 310.361948 236.650057 
L 310.564662 237.372891 
L 310.970089 237.811755 
L 311.071446 238.198987 
L 311.172803 237.966648 
L 311.27416 238.018279 
L 311.476874 239.050899 
L 311.57823 239.10253 
L 311.679587 239.463947 
L 311.780944 239.283238 
L 311.983658 239.567209 
L 312.085015 239.696287 
L 312.186371 239.463947 
L 312.389085 239.876995 
L 312.591799 239.696287 
L 312.895869 240.212597 
L 312.997226 241.322663 
L 313.098583 240.935431 
L 313.19994 240.987062 
L 313.402653 240.599829 
L 313.50401 240.780538 
L 313.706724 239.928626 
L 314.010794 242.045497 
L 314.213508 241.838973 
L 314.416222 241.761527 
L 314.517578 241.606634 
L 315.024363 242.355283 
L 315.125719 242.665069 
L 315.328433 242.665069 
L 315.42979 242.845778 
L 315.531147 242.768331 
L 315.73386 243.052302 
L 315.835217 242.819962 
L 316.139288 243.594428 
L 316.342001 243.904214 
L 316.443358 243.904214 
L 316.544715 244.214 
L 316.747429 244.059107 
L 317.254213 244.472155 
L 317.35557 244.73031 
L 317.456926 244.601232 
L 317.558283 245.01428 
L 317.65964 244.885203 
L 317.760997 244.523786 
L 317.963711 244.936834 
L 318.166424 244.911018 
L 318.369138 245.143358 
L 318.571852 245.814561 
L 318.673208 245.866192 
L 319.078636 246.640657 
L 319.281349 246.201793 
L 319.484063 246.434133 
L 319.788134 246.614842 
L 319.990847 246.769735 
L 320.294918 247.234414 
L 320.598988 247.518384 
L 320.801702 247.673277 
L 321.105772 248.137956 
L 321.5112 248.680082 
L 321.713913 248.525189 
L 321.916627 248.705897 
L 322.119341 248.809159 
L 322.626125 249.428731 
L 322.930195 249.60944 
L 323.031552 249.583624 
L 323.234266 249.815964 
L 323.436979 249.738517 
L 323.639693 250.074119 
L 323.74105 250.022488 
L 323.943764 250.151566 
L 324.04512 250.229012 
L 324.247834 250.487167 
L 324.551905 250.35809 
L 324.653261 250.461352 
L 324.754618 250.332274 
L 325.058689 250.435536 
L 325.565473 250.590429 
L 325.66683 250.719507 
L 325.768187 250.667876 
L 326.072257 251.184186 
L 326.173614 251.106739 
L 326.274971 251.210001 
L 326.376328 251.080924 
L 326.579041 251.080924 
L 326.680398 251.029293 
L 326.781755 251.184186 
L 326.984469 251.055108 
L 327.187182 251.210001 
L 327.491253 251.210001 
L 327.592609 251.235817 
L 327.795323 251.442341 
L 327.89668 251.468156 
L 327.998037 251.364894 
L 328.20075 251.571418 
L 328.504821 252.010282 
L 328.606178 252.552407 
L 328.808891 252.165175 
L 329.011605 252.010282 
L 329.417032 252.629854 
L 329.518389 252.500776 
L 329.721103 252.294252 
L 329.923817 252.578223 
L 330.12653 252.578223 
L 330.227887 252.784747 
L 330.329244 252.552407 
L 330.430601 252.629854 
L 330.734671 253.404319 
L 330.836028 252.862193 
L 330.937385 253.042902 
L 331.038742 252.888009 
L 331.140099 253.507581 
L 331.241455 253.378504 
L 331.444169 253.636659 
L 331.545526 253.404319 
L 331.849596 254.023891 
L 331.950953 254.2046 
L 332.153667 253.920629 
L 332.356381 252.913824 
L 332.457737 252.19099 
L 332.863165 246.79555 
L 333.065878 244.859387 
L 333.369949 240.315859 
L 335.093015 206.420102 
L 335.599799 203.890183 
L 335.701156 203.890183 
L 336.106583 202.315437 
L 336.20794 202.134729 
L 336.613367 200.276012 
L 336.917438 199.527363 
L 337.018795 199.320839 
L 337.424222 199.604809 
L 337.525579 199.501547 
L 337.829649 200.043673 
L 338.43779 201.463525 
L 338.640504 201.644234 
L 338.944574 201.902389 
L 339.654072 209.388885 
L 340.0595 210.653845 
L 340.36357 210.137535 
L 340.667641 208.201372 
L 341.478495 202.212175 
L 341.579852 202.057282 
L 341.985279 202.935009 
L 342.390707 204.871172 
L 343.100204 211.092708 
L 343.201561 210.705476 
L 343.606989 204.53557 
L 344.012416 199.191761 
L 344.21513 197.849355 
L 344.316486 197.87517 
L 344.417843 198.10751 
L 345.431412 204.070891 
L 345.532768 203.890183 
L 345.634125 202.70267 
L 345.735482 202.831747 
L 346.039553 201.824943 
L 346.140909 201.95402 
L 346.343623 203.709474 
L 346.44498 203.167349 
L 346.546337 203.528766 
L 346.74905 209.053284 
L 346.850407 208.666051 
L 347.053121 209.698671 
L 347.357191 207.814139 
L 347.559905 206.471733 
L 347.661262 206.31684 
L 347.762619 207.34946 
L 348.269403 218.011263 
L 348.472116 217.185167 
L 348.776187 215.558791 
L 349.080257 215.197373 
L 349.181614 215.094111 
L 349.384328 215.429713 
L 349.485685 215.249004 
L 350.195183 211.815542 
L 350.397896 208.020663 
L 350.803324 199.217577 
L 350.90468 199.578994 
L 351.107394 195.448513 
L 351.310108 193.873767 
L 351.411465 194.338446 
L 351.715535 191.860158 
L 351.816892 193.925398 
L 352.120962 188.220172 
L 352.323676 187.755493 
L 352.425033 190.259597 
L 352.52639 189.226977 
L 352.83046 196.04227 
L 353.539958 210.369874 
L 353.742672 211.118524 
L 353.844028 211.71228 
L 354.148099 214.577801 
L 354.249456 214.138938 
L 354.350813 214.164753 
L 354.452169 216.075101 
L 354.553526 215.016665 
L 354.958954 221.806142 
L 355.06031 215.403898 
L 355.161667 222.193375 
L 355.263024 221.857773 
L 355.364381 222.580608 
L 355.465738 221.831958 
L 355.567095 222.96784 
L 355.668451 231.848373 
L 355.769808 230.789938 
L 356.073879 220.515367 
L 356.68202 215.455529 
L 356.98609 211.802635 
L 357.087447 258.619051 
L 357.188804 245.608037 
L 357.391518 240.728907 
L 357.594231 205.903792 
L 358.709156 191.266401 
L 359.013227 191.116672 
L 359.114584 227.098321 
L 359.722725 188.813929 
L 359.824081 188.34925 
L 360.026795 192.015051 
L 360.330866 268.144972 
L 360.634936 274.882818 
L 361.040363 189.691656 
L 361.547148 243.646059 
L 361.952575 190.982431 
L 362.459359 194.622417 
L 362.76343 197.694462 
L 362.864786 197.333045 
L 363.168857 195.29362 
L 363.270214 195.241989 
L 363.472927 195.396882 
L 363.574284 195.732484 
L 363.675641 195.655037 
L 363.776998 195.267805 
L 363.979711 195.835746 
L 364.182425 196.429502 
L 364.385139 196.274609 
L 364.486496 196.093901 
L 364.587852 196.145532 
L 364.891923 197.900986 
L 365.195993 200.611614 
L 365.29735 205.335851 
L 365.500064 199.217577 
L 365.702778 200.456721 
L 365.804134 208.149741 
L 365.905491 195.758299 
L 366.006848 200.559983 
L 366.209562 197.694462 
L 366.310919 196.068085 
L 366.412275 200.508352 
L 366.513632 200.224381 
L 366.614989 198.985237 
L 366.817703 201.308632 
L 366.91906 200.559983 
L 367.020416 201.566787 
L 367.121773 204.354862 
L 367.527201 198.468927 
L 368.033985 180.062473 
L 368.338055 157.680431 
L 368.946196 104.913541 
L 369.351623 85.551914 
L 369.757051 74.193092 
L 370.263835 67.19709 
L 370.365192 67.042197 
L 370.466549 66.551703 
L 371.07469 61.724204 
L 371.277403 61.027185 
L 371.480117 61.182078 
L 371.784187 61.853281 
L 371.986901 62.601931 
L 372.392328 65.8805 
L 373.000469 72.411822 
L 374.014038 87.281552 
L 374.723535 96.65258 
L 375.331676 104.035814 
L 378.271025 130.70323 
L 378.980522 135.58236 
L 379.588663 137.595969 
L 379.69002 137.621785 
L 379.892734 136.821504 
L 380.196804 133.026625 
L 381.007659 119.731641 
L 381.413086 110.851107 
L 381.717157 108.630974 
L 381.91987 108.088848 
L 382.021227 108.321188 
L 382.122584 108.063033 
L 382.223941 108.347003 
L 382.325298 108.19211 
L 382.528011 107.6758 
L 382.629368 107.39183 
L 382.832082 107.340199 
L 383.034796 107.598354 
L 383.237509 107.882324 
L 383.947007 110.644583 
L 384.757862 116.478887 
L 385.061932 117.924555 
L 385.872787 122.984394 
L 386.784998 127.347214 
L 387.190426 129.43827 
L 387.393139 130.315997 
L 388.812135 138.654405 
L 389.622989 144.979203 
L 389.825703 146.140901 
L 389.92706 146.60558 
L 392.15691 163.927783 
L 393.981333 175.622206 
L 394.285404 178.797513 
L 394.589474 180.010842 
L 394.690831 180.036657 
L 394.792188 180.759491 
L 394.994901 181.17254 
L 396.515254 188.529958 
L 396.819324 189.949811 
L 397.93425 193.460719 
L 398.035606 193.563981 
L 398.643747 195.990639 
L 398.947818 196.919997 
L 399.353245 198.494743 
L 400.1641 201.179555 
L 400.366813 200.740691 
L 400.670884 201.876574 
L 400.772241 201.95402 
L 401.177668 202.960825 
L 401.177668 202.960825 
L 401.380382 203.838552 
L 401.380382 203.838552 
L 402.292593 205.955423 
L 402.495307 206.239394 
L 402.799377 207.839955 
L 402.900734 207.5818 
L 403.711589 210.318243 
L 404.117016 212.280222 
L 404.31973 212.512561 
L 405.231941 215.27482 
L 405.536012 216.53978 
L 405.637369 216.591411 
L 405.738725 216.797935 
L 406.042796 218.295234 
L 406.54958 220.412105 
L 406.650937 220.15395 
L 406.752294 220.437921 
L 406.853651 220.38629 
L 407.360435 221.651249 
L 407.563148 222.322453 
L 407.664505 222.064297 
L 408.069933 223.458335 
L 408.47536 224.878187 
L 408.77943 226.685273 
L 408.982144 227.124136 
L 409.083501 227.098321 
L 409.286214 226.81435 
L 409.590285 226.865981 
L 409.792999 227.408107 
L 409.894355 227.356476 
L 410.70521 228.724697 
L 410.806567 228.957037 
L 410.907924 228.87959 
L 411.211994 229.370085 
L 411.313351 229.370085 
L 411.516065 228.311649 
L 411.820135 225.03308 
L 412.124206 220.38629 
L 412.428276 211.221786 
L 412.428276 211.221786 
L 412.833704 190.595198 
L 413.543201 155.382851 
L 414.049985 141.855527 
L 415.266267 121.099862 
L 415.874408 116.969382 
L 416.178479 116.241384 
L 416.279836 116.246548 
L 416.279836 116.246548 
L 416.482549 115.988393 
L 416.482549 115.988393 
L 416.78662 116.737042 
L 418.104259 125.256158 
L 418.408329 126.288779 
L 418.611043 126.443672 
L 418.7124 126.10807 
L 419.827325 117.640585 
L 419.928682 117.511507 
L 420.232752 116.685411 
L 420.334109 116.607965 
L 420.536823 116.298179 
L 420.739536 116.272363 
L 420.840893 116.453072 
L 421.043607 117.046828 
L 421.144964 116.995197 
L 421.651748 118.131079 
L 422.766673 126.882535 
L 425.40195 154.634202 
L 426.516876 164.211754 
L 427.935871 172.188744 
L 428.138585 173.066471 
L 428.645369 175.286605 
L 429.152153 178.12631 
L 429.25351 179.081484 
L 429.354867 178.771698 
L 429.456224 178.978222 
L 431.077933 188.323434 
L 432.496929 194.699863 
L 432.902356 196.119716 
L 433.003713 196.093901 
L 433.307783 196.739288 
L 433.510497 196.894181 
L 433.713211 196.739288 
L 433.915924 196.739288 
L 434.118638 196.945812 
L 434.219995 196.790919 
L 434.321352 197.023259 
L 434.524065 196.945812 
L 434.625422 197.35886 
L 434.828136 196.919997 
L 434.929492 197.023259 
L 435.030849 196.868366 
L 435.33492 197.487938 
L 435.436277 197.229783 
L 435.537633 197.539569 
L 435.63899 198.365665 
L 435.740347 198.133325 
L 435.841704 198.572189 
L 436.348488 198.030063 
L 436.855272 198.546374 
L 436.956629 198.288219 
L 437.767484 200.043673 
L 437.970197 200.792322 
L 438.071554 200.069488 
L 438.274268 200.379274 
L 438.476982 198.881975 
L 438.983766 201.024662 
L 439.085123 201.231186 
L 439.186479 200.947215 
L 439.389193 201.411894 
L 439.49055 201.463525 
L 439.591907 201.257001 
L 439.895977 201.773312 
L 440.098691 202.676854 
L 440.402761 204.587201 
L 440.605475 205.258405 
L 440.706832 205.206774 
L 440.808189 205.568191 
L 440.909545 205.439113 
L 441.213616 206.161947 
L 441.619043 207.86577 
L 442.024471 212.641639 
L 442.733968 220.283028 
L 442.835325 219.86998 
L 443.443466 211.531572 
L 443.95025 207.5818 
L 444.051607 208.304634 
L 444.355678 215.455529 
L 444.761105 223.148549 
L 445.065175 225.988254 
L 445.166532 225.368682 
L 445.267889 225.497759 
L 445.774673 215.79113 
L 446.382814 206.704073 
L 447.295026 197.797724 
L 447.396383 197.771908 
L 447.497739 197.900986 
L 447.599096 198.572189 
L 447.903167 204.01926 
L 448.004524 203.21898 
L 448.308594 205.000249 
L 448.409951 173.57367 
L 448.409951 173.57367 
L 448.511308 179.193351 
L 448.511308 179.193351 
L 448.612665 209.543778 
L 448.714021 208.304634 
L 449.018092 212.435115 
L 449.220806 214.551986 
L 449.930303 221.547987 
L 450.133017 222.580608 
L 450.234374 221.93522 
L 451.045228 204.096707 
L 451.754726 198.030063 
L 452.058797 196.068085 
L 452.160154 196.093901 
L 452.565581 197.617015 
L 452.666938 197.694462 
L 452.768295 197.152336 
L 452.971008 197.617015 
L 453.579149 204.045076 
L 453.781863 204.793725 
L 453.88322 204.716279 
L 453.984577 204.458124 
L 454.18729 203.451319 
L 454.288647 203.580397 
L 454.592718 205.335851 
L 454.795431 208.459527 
L 455.200858 217.107721 
L 455.302215 216.901197 
L 455.403572 218.734097 
L 455.504929 217.081905 
L 455.606286 217.210983 
L 455.808999 218.682466 
L 456.214427 222.96784 
L 456.41714 223.897198 
L 456.518497 223.923014 
L 457.025281 225.626837 
L 457.227995 227.356476 
L 457.532066 229.292639 
L 458.03885 225.78173 
L 458.241563 226.762719 
L 458.34292 226.840166 
L 458.545634 222.141744 
L 458.646991 222.812947 
L 459.356489 217.908001 
L 459.457845 218.501758 
L 459.761916 221.883589 
L 460.065986 223.071102 
L 460.57277 221.005862 
L 460.674127 220.954231 
L 460.876841 220.334659 
L 461.180911 219.069699 
L 461.484982 218.501758 
L 461.890409 218.398496 
L 461.991766 218.914806 
L 462.19448 218.888991 
L 462.397193 219.456932 
L 462.599907 218.475942 
L 462.701264 218.243603 
L 463.309405 214.810141 
L 463.613475 213.751705 
L 463.714832 214.061491 
L 463.917546 213.20958 
L 464.221616 214.2422 
L 464.728401 209.595409 
L 465.032471 201.153739 
L 465.437898 180.139919 
L 465.944682 145.882746 
L 466.248753 136.873135 
L 466.552823 133.542935 
L 466.65418 133.104072 
L 466.856894 131.761665 
L 466.958251 131.322802 
L 467.160964 131.916558 
L 467.262321 131.658403 
L 467.363678 132.148898 
L 467.667749 130.341813 
L 467.769105 130.935569 
L 468.174533 130.238551 
L 468.27589 130.393444 
L 468.478603 130.006211 
L 468.782674 130.393444 
L 469.188101 128.999406 
L 469.390815 126.030624 
L 469.796242 112.838901 
L 470.404383 80.053211 
L 470.708453 75.328974 
L 471.113881 72.411822 
L 471.215238 72.127852 
L 471.722022 68.720205 
L 472.127449 66.500072 
L 472.330163 65.028588 
L 472.73559 62.911717 
L 473.039661 63.531289 
L 473.343731 64.873695 
L 473.546445 65.983762 
L 473.951872 70.165873 
L 474.053229 71.27594 
L 474.255943 74.347985 
L 474.458656 77.626554 
L 474.96544 85.216312 
L 475.066797 85.11305 
L 475.472224 90.74083 
L 476.384436 104.732833 
L 476.485793 105.920346 
L 476.688506 109.379624 
L 476.89122 112.942163 
L 477.398004 120.686814 
L 477.499361 120.609368 
L 477.803432 123.165103 
L 478.107502 126.34041 
L 478.512929 131.090462 
L 479.830568 145.263174 
L 479.931925 144.566155 
L 480.540066 148.541743 
L 480.945493 151.742865 
L 481.350921 154.789095 
L 481.756348 158.454896 
L 482.364489 162.482115 
L 482.465846 162.404668 
L 482.668559 163.463104 
L 482.871273 164.2892 
L 483.2767 166.767488 
L 483.378057 166.560964 
L 483.479414 166.044654 
L 483.580771 166.096285 
L 483.783485 167.361245 
L 483.884841 167.257983 
L 484.188912 165.063665 
L 484.391626 163.02424 
L 484.999767 153.136902 
L 485.405194 150.323013 
L 485.607907 149.729256 
L 486.114692 147.741462 
L 486.216048 147.560754 
L 486.418762 147.741462 
L 486.520119 147.844724 
L 486.722833 147.483307 
L 486.824189 147.922171 
L 487.12826 147.302599 
L 487.330974 147.586569 
L 487.635044 149.006422 
L 488.648612 155.021434 
L 488.952683 158.067664 
L 489.966251 163.824521 
L 490.067608 164.702248 
L 490.168965 164.495724 
L 490.675749 170.43329 
L 491.081176 173.427888 
L 491.182533 174.79611 
L 491.28389 174.408878 
L 491.486604 175.31242 
L 491.689317 176.938797 
L 491.790674 177.429291 
L 491.993388 179.442901 
L 492.094745 179.029853 
L 492.196101 179.804318 
L 492.500172 177.635816 
L 492.702886 176.241778 
L 492.905599 175.957808 
L 493.311027 174.202354 
L 493.412383 174.357247 
L 493.51374 174.2798 
L 493.615097 174.04746 
L 493.716454 174.821926 
L 494.324595 171.672434 
L 494.425952 169.994426 
L 495.034093 150.142304 
L 495.338163 145.314805 
L 495.844947 142.578361 
L 495.946304 142.552546 
L 496.047661 142.371837 
L 496.149018 142.423468 
L 496.250375 142.604177 
L 496.351731 143.120487 
L 496.453088 142.939778 
L 496.554445 143.249565 
L 496.757159 142.346022 
L 496.959872 142.113682 
L 497.061229 142.681623 
L 497.263943 142.165313 
L 497.3653 142.01042 
L 497.66937 143.223749 
L 497.872084 144.591971 
L 498.074798 146.166716 
L 499.493793 156.544549 
L 501.723643 175.493129 
L 501.825 175.777099 
L 502.737212 182.101898 
L 502.939925 183.186149 
L 503.243996 185.173943 
L 503.953494 188.529958 
L 504.054851 188.426696 
L 504.156207 188.788113 
L 504.257564 188.091095 
L 504.358921 188.220172 
L 504.460278 188.142726 
L 504.561635 188.220172 
L 504.662992 187.678046 
L 504.764348 187.755493 
L 504.967062 187.497338 
L 505.068419 187.6006 
L 505.271133 188.297619 
L 505.372489 188.34925 
L 505.575203 189.949811 
L 505.777917 192.221575 
L 505.98063 193.125118 
L 506.081987 192.763701 
L 506.183344 193.305826 
L 506.284701 192.815332 
L 506.386058 193.796321 
L 506.487414 193.641428 
L 506.690128 192.066682 
L 506.994199 193.357457 
L 507.298269 194.570786 
L 507.399626 194.338446 
L 507.500983 194.674048 
L 507.703696 193.770505 
L 507.805053 193.718874 
L 507.90641 194.261 
L 508.007767 194.131922 
L 508.210481 194.493339 
L 509.122692 198.030063 
L 509.426763 199.14013 
L 509.528119 198.468927 
L 509.933547 200.9214 
L 510.13626 201.411894 
L 510.237617 201.540972 
L 510.541688 203.73529 
L 510.643045 205.000249 
L 510.744401 204.380677 
L 510.845758 204.716279 
L 511.048472 205.723084 
L 511.149829 205.723084 
L 511.251185 206.110316 
L 511.453899 208.872575 
L 511.656613 203.967629 
L 511.960683 203.21898 
L 512.06204 203.296426 
L 512.264754 202.18636 
L 512.366111 201.411894 
L 512.670181 201.721681 
L 512.771538 202.031467 
L 512.974252 201.463525 
L 513.176965 198.907791 
L 513.379679 189.691656 
L 513.683749 160.855738 
L 514.190534 103.132272 
L 514.494604 91.566926 
L 515.001388 80.362997 
L 515.406816 74.60614 
L 515.710886 72.360191 
L 515.9136 71.017785 
L 516.21767 67.119644 
L 516.521741 58.110033 
L 516.927168 46.544687 
L 517.028525 45.641145 
L 517.332595 47.68057 
L 517.636666 49.952334 
L 518.042093 51.320556 
L 518.14345 51.088216 
L 518.244807 51.243109 
L 518.548877 50.77843 
L 518.650234 50.959139 
L 518.751591 52.017574 
L 518.852948 51.81105 
L 518.954305 50.726799 
L 519.055661 51.01077 
L 519.157018 50.907508 
L 519.562446 52.998563 
L 519.663802 52.895301 
L 520.06923 57.490461 
L 521.690939 72.902317 
L 522.197723 76.955351 
L 523.616719 92.057421 
L 525.035714 106.385025 
L 525.238428 110.954369 
L 525.339785 110.567137 
L 526.353353 118.828098 
L 526.556067 120.222135 
L 527.366921 127.631185 
L 527.468278 128.483096 
L 527.670992 132.691023 
L 527.772349 132.200529 
L 527.873706 132.407053 
L 528.481847 139.325608 
L 528.887274 137.595969 
L 529.191344 140.048442 
L 529.596772 142.371837 
L 529.698129 141.674819 
L 530.407626 143.249565 
L 530.711697 142.036236 
L 531.319838 136.589165 
L 531.421195 136.356825 
L 531.623908 135.014419 
L 531.826622 134.446478 
L 532.130692 134.136692 
L 532.232049 133.826906 
L 532.333406 134.059245 
L 532.434763 136.640796 
L 532.53612 136.460087 
L 532.738833 134.988603 
L 533.346974 138.835113 
L 533.448331 138.757667 
L 533.651045 138.473696 
L 533.752402 138.473696 
L 534.76597 144.566155 
L 535.070041 147.225152 
L 535.576825 151.975205 
L 535.779538 154.505124 
L 535.880895 154.272785 
L 536.69175 159.074468 
L 537.097177 161.836727 
L 537.299891 163.075871 
L 537.806675 167.33543 
L 538.61753 170.691445 
L 538.718886 171.827327 
L 538.820243 171.620803 
L 539.124314 172.627608 
L 539.225671 172.756685 
L 539.327027 172.575977 
L 539.428384 172.653423 
L 539.732455 173.350442 
L 539.833812 173.556966 
L 540.340596 175.802915 
L 540.644666 174.615402 
L 541.252807 170.459105 
L 541.556878 166.147916 
L 542.063662 158.89376 
L 542.165019 160.778292 
L 542.266375 159.978011 
L 542.469089 157.886955 
L 542.671803 158.454896 
L 542.874516 157.86114 
L 542.975873 157.577169 
L 543.07723 157.757878 
L 543.279944 156.647811 
L 543.381301 156.776888 
L 543.482657 156.570364 
L 543.685371 156.07987 
L 543.989442 156.518733 
L 544.090798 156.338025 
L 544.192155 156.415471 
L 544.698939 158.248372 
L 544.901653 159.642409 
L 545.104367 160.545952 
L 545.509794 162.456299 
L 545.712508 163.230764 
L 546.117935 165.166927 
L 546.320649 165.502529 
L 546.726076 167.025643 
L 547.638287 169.633009 
L 547.739644 169.68464 
L 547.942358 169.891164 
L 548.043715 169.91698 
L 548.145072 169.710456 
L 548.246428 169.865349 
L 548.347785 170.381659 
L 548.449142 170.252581 
L 548.550499 170.304212 
L 548.651856 170.484921 
L 548.854569 170.304212 
L 549.259997 170.304212 
L 549.361354 170.459105 
L 549.46271 170.975416 
L 549.564067 172.756685 
L 549.766781 172.395268 
L 550.374922 176.654826 
L 550.476279 176.654826 
L 550.678992 173.608597 
L 551.08442 172.188744 
L 551.591204 168.832729 
L 551.692561 168.316419 
L 551.996631 171.156124 
L 552.097988 170.794707 
L 552.199345 170.897969 
L 552.402058 172.472715 
L 552.604772 173.53115 
L 552.807486 173.118102 
L 552.908843 172.705054 
L 553.010199 172.782501 
L 553.111556 173.221364 
L 553.212913 172.963209 
L 553.719697 173.892567 
L 553.821054 173.892567 
L 554.023768 175.054265 
L 554.429195 176.706457 
L 554.530552 176.551564 
L 554.631909 177.351845 
L 554.834622 177.09369 
L 554.935979 177.635816 
L 555.24005 176.164332 
L 555.442763 175.183343 
L 555.746834 170.794707 
L 555.949548 165.347636 
L 556.253618 146.476502 
L 556.861759 96.678396 
L 557.267186 80.466259 
L 557.571257 75.251528 
L 558.686182 66.009577 
L 558.787539 65.699791 
L 558.888896 64.951142 
L 558.990252 65.028588 
L 559.091609 64.641356 
L 559.192966 64.692987 
L 559.801107 68.797652 
L 560.814675 82.247529 
L 562.639098 112.864717 
L 562.740455 111.909543 
L 562.943169 114.000599 
L 564.362164 129.283377 
L 564.564878 130.780676 
L 564.970305 133.930168 
L 565.173019 132.820101 
L 565.274376 133.155703 
L 565.578446 134.782079 
L 565.983874 136.047039 
L 566.186587 135.169312 
L 566.287944 135.117681 
L 566.389301 135.375836 
L 566.490658 134.807895 
L 566.693372 135.58236 
L 566.896085 135.608175 
L 566.997442 136.305194 
L 567.098799 136.227747 
L 567.301512 135.427467 
L 567.504226 136.382641 
L 567.605583 135.840515 
L 568.416438 138.886744 
L 569.835433 147.767278 
L 570.240861 149.909964 
L 571.153072 155.408667 
L 571.457143 156.338025 
L 572.16664 159.874749 
L 572.369354 162.585377 
L 572.572068 159.590778 
L 572.673424 159.513332 
L 572.774781 159.797302 
L 572.876138 159.616594 
L 572.977495 160.107088 
L 573.078852 160.081273 
L 573.281565 160.416875 
L 573.382922 160.545952 
L 573.78835 161.733465 
L 573.991063 162.869347 
L 574.09242 163.204949 
L 574.396491 164.702248 
L 574.801918 166.509333 
L 575.207345 168.238972 
L 575.612773 170.510736 
L 575.714129 170.278397 
L 575.815486 169.891164 
L 576.0182 167.154721 
L 576.32227 153.833921 
L 576.727698 121.487095 
L 577.133125 99.105053 
L 577.639909 85.913331 
L 578.450764 73.547704 
L 578.552121 73.444442 
L 578.653477 73.599335 
L 579.261618 67.068013 
L 579.565689 66.190286 
L 579.768403 66.551703 
L 579.869759 66.784042 
L 580.579257 71.947143 
L 580.984685 76.67138 
L 581.086041 78.68499 
L 581.187398 78.530097 
L 581.288755 78.401019 
L 581.390112 78.891514 
L 582.09961 90.069627 
L 582.200967 88.933745 
L 582.302323 89.295162 
L 583.417248 102.228729 
L 583.619962 105.868715 
L 583.822676 107.882324 
L 584.532174 119.034622 
L 584.734887 118.776467 
L 585.748456 129.489901 
L 586.25524 135.272574 
L 586.457953 137.208737 
L 586.964738 143.636797 
L 587.167451 142.52673 
L 587.572878 145.598775 
L 587.876949 147.818909 
L 588.181019 149.316208 
L 588.48509 153.549951 
L 588.586447 153.575766 
L 588.687804 153.937183 
L 589.194588 157.654616 
L 589.295945 158.170926 
L 589.397301 159.461701 
L 589.600015 159.255177 
L 590.208156 162.714454 
L 590.41087 163.02424 
L 590.512227 162.817716 
L 590.816297 156.389656 
L 591.120368 145.85693 
L 591.829865 115.859315 
L 591.931222 123.053235 
L 591.931222 123.053235 
L 592.133936 107.495092 
L 592.64072 84.674187 
L 593.147504 57.722801 
L 593.552931 52.508069 
L 593.654288 51.656157 
L 593.958359 47.474046 
L 594.769213 36.786427 
L 594.87057 36.19267 
L 594.971927 36.244301 
L 595.073284 36.528272 
L 595.580068 40.090812 
L 595.782782 42.930517 
L 595.985495 44.402001 
L 597.505848 65.519083 
L 597.809918 71.224309 
L 598.316702 79.562717 
L 598.823487 86.868504 
L 599.431628 93.270749 
L 600.343839 103.777659 
L 601.053337 109.895934 
L 601.154694 109.895934 
L 601.357407 110.696214 
L 601.458764 110.541321 
L 601.560121 110.773661 
L 601.661478 110.592952 
L 601.762835 110.928554 
L 602.675046 106.230132 
L 602.776403 106.694811 
L 603.384544 101.041216 
L 604.094042 86.66198 
L 604.195399 86.14567 
L 604.296755 86.197301 
L 604.499469 86.300563 
L 604.600826 86.223117 
L 604.702183 86.481272 
L 604.904896 86.481272 
L 605.006253 86.507087 
L 605.10761 86.37801 
L 605.208967 86.429641 
L 605.411681 87.307368 
L 605.614394 86.094039 
L 605.715751 86.119855 
L 605.918465 85.964962 
L 606.323892 88.004386 
L 606.425249 89.243531 
L 606.627963 87.41063 
L 606.830676 89.114453 
L 607.33746 94.303369 
L 608.857813 116.401441 
L 608.95917 116.143286 
L 609.060526 116.453072 
L 609.668667 122.442268 
L 609.770024 122.726239 
L 610.175452 126.546934 
L 610.884949 133.594566 
L 611.290377 137.36363 
L 611.49309 137.079659 
L 611.594447 136.873135 
L 611.695804 137.079659 
L 611.797161 137.673416 
L 611.898518 137.621785 
L 612.101231 138.267172 
L 612.202588 138.241357 
L 612.810729 141.106878 
L 612.912086 140.538937 
L 613.013443 140.745461 
L 613.317513 142.191129 
L 613.41887 142.294391 
L 613.824297 143.817506 
L 614.027011 142.836516 
L 614.128368 142.991409 
L 614.229725 142.836516 
L 614.635152 143.378642 
L 614.736509 143.352827 
L 614.837866 143.50772 
L 614.939223 143.430273 
L 615.141936 145.082465 
L 615.547364 147.044444 
L 615.64872 148.128695 
L 615.750077 147.767278 
L 615.952791 149.032237 
L 616.155505 150.503721 
L 616.256861 150.245566 
L 616.358218 150.323013 
L 616.560932 150.142304 
L 616.763646 150.658614 
L 616.865002 148.954791 
L 617.169073 152.207544 
L 617.473143 154.2986 
L 617.675857 155.873346 
L 617.878571 156.389656 
L 618.588068 161.113893 
L 618.689425 161.19134 
L 618.790782 162.22396 
L 618.892139 162.120698 
L 619.094853 163.308211 
L 619.196209 163.54055 
L 619.297566 163.101687 
L 619.398923 163.127502 
L 619.601637 165.115296 
L 619.702994 165.55416 
L 620.108421 170.407474 
L 620.209778 170.355843 
L 620.311135 170.9496 
L 620.412491 170.872154 
L 620.817919 174.873557 
L 621.020632 176.835535 
L 621.223346 175.699653 
L 621.324703 175.725468 
L 621.42606 175.931992 
L 621.73013 178.539358 
L 621.932844 180.552967 
L 622.034201 180.062473 
L 622.338271 183.831536 
L 622.540985 185.870961 
L 622.743699 185.251389 
L 623.149126 189.769102 
L 623.250483 189.640025 
L 623.554553 193.021856 
L 623.65591 192.47973 
L 623.757267 192.350653 
L 624.061337 193.099302 
L 624.365408 194.803126 
L 624.669478 196.274609 
L 624.770835 197.307229 
L 624.872192 197.178152 
L 625.074906 198.133325 
L 625.176262 197.978432 
L 625.683047 201.282817 
L 625.784403 201.979836 
L 625.987117 204.483939 
L 626.088474 202.883378 
L 626.189831 203.012456 
L 626.291188 202.935009 
L 626.493901 203.348057 
L 626.595258 203.915998 
L 626.696615 203.761105 
L 626.797972 203.838552 
L 627.000685 204.613017 
L 627.203399 205.361667 
L 627.304756 205.258405 
L 627.50747 206.988043 
L 627.608826 206.652442 
L 627.710183 206.729888 
L 627.81154 207.788324 
L 627.912897 207.736693 
L 628.014254 208.511158 
L 628.11561 208.459527 
L 628.419681 210.266612 
L 628.622395 208.950022 
L 628.723751 209.182361 
L 628.825108 209.104915 
L 629.027822 208.046479 
L 629.230536 207.86577 
L 629.331892 207.994848 
L 629.534606 208.61442 
L 629.635963 208.743498 
L 629.73732 208.536974 
L 629.838677 208.588605 
L 630.04139 209.414701 
L 630.142747 209.156546 
L 630.244104 210.344059 
L 630.750888 208.201372 
L 631.359029 200.146935 
L 631.764456 193.021856 
L 632.271241 184.528555 
L 633.791593 164.392462 
L 634.501091 157.267383 
L 634.906518 154.995619 
L 635.007875 154.711648 
L 635.109232 153.730659 
L 635.210589 154.169523 
L 635.311945 154.092076 
L 635.413302 153.575766 
L 635.514659 153.937183 
L 635.616016 154.918172 
L 635.81873 152.775485 
L 636.1228 153.240164 
L 636.325514 153.885552 
L 636.426871 153.833921 
L 637.541796 164.366647 
L 637.947223 169.297408 
L 638.04858 168.935991 
L 638.149937 168.161526 
L 639.467575 130.212735 
L 640.177073 125.127081 
L 640.481144 126.598565 
L 640.785214 122.571346 
L 641.291998 117.304983 
L 641.596069 107.753247 
L 642.102853 91.825081 
L 642.710994 86.816873 
L 642.913708 85.939146 
L 643.217778 81.963559 
L 643.825919 78.246126 
L 644.028633 78.194495 
L 644.12999 78.246126 
L 644.231346 78.555912 
L 644.940844 84.674187 
L 646.66391 111.599757 
L 646.967981 115.8335 
L 647.170695 118.569943 
L 647.474765 123.733044 
L 648.386977 134.627186 
L 649.096474 144.979203 
L 649.197831 146.734658 
L 649.299188 146.708842 
L 649.400545 147.018628 
L 649.907329 153.162718 
L 650.211399 157.448092 
L 650.312756 156.983413 
L 650.920897 160.855738 
L 651.224968 163.979414 
L 651.326325 164.185938 
L 651.833109 167.541954 
L 652.339893 172.162929 
L 652.44125 172.085482 
L 652.643963 175.467313 
L 652.846677 174.04746 
L 653.049391 174.667033 
L 653.860245 179.468716 
L 654.062959 182.256791 
L 654.164316 182.48913 
L 654.265673 181.766296 
L 655.076527 188.11691 
L 655.279241 187.574784 
L 655.380598 187.858755 
L 655.684668 189.226977 
L 655.988739 190.41449 
L 656.090096 190.621014 
L 656.292809 192.092498 
L 656.495523 193.254195 
L 656.59688 193.073487 
L 657.509091 198.675451 
L 657.610448 198.649636 
L 657.711805 198.804529 
L 657.813162 198.159141 
L 657.914519 198.468927 
L 658.117232 198.184956 
L 658.319946 198.933606 
L 658.52266 199.191761 
L 658.624016 199.14013 
L 658.82673 199.966226 
L 659.434871 202.263806 
L 660.043012 203.73529 
L 660.144369 203.632028 
L 660.651153 205.335851 
L 660.75251 204.76791 
L 660.853867 204.974434 
L 661.05658 206.600811 
L 661.157937 206.445918 
L 661.360651 208.072294 
L 661.563364 207.736693 
L 661.766078 207.762508 
L 661.968792 209.672856 
L 662.070149 208.898391 
L 662.171505 207.039674 
L 662.272862 207.246198 
L 662.374219 207.06549 
L 662.475576 207.323645 
L 662.67829 206.471733 
L 662.779646 206.471733 
L 662.881003 206.007054 
L 662.98236 206.110316 
L 663.590501 204.354862 
L 663.793215 204.896987 
L 663.894571 204.638832 
L 663.995928 205.671453 
L 664.198642 204.638832 
L 664.401356 206.136132 
L 664.604069 204.793725 
L 664.806783 204.122522 
L 665.009497 203.528766 
L 665.110853 203.141533 
L 665.313567 203.50295 
L 665.414924 202.960825 
L 665.516281 203.115718 
L 665.617638 203.012456 
L 665.718994 203.270611 
L 665.820351 202.960825 
L 665.921708 203.683659 
L 666.023065 203.528766 
L 666.124422 203.167349 
L 666.327135 203.683659 
L 666.631206 203.73529 
L 666.732563 203.373873 
L 666.83392 203.50295 
L 667.442061 200.792322 
L 667.644774 199.914595 
L 667.847488 198.804529 
L 668.455629 194.209369 
L 670.178695 182.824732 
L 670.280052 182.644023 
L 670.584122 181.792112 
L 670.888193 181.68885 
L 671.192263 182.824732 
L 671.29362 182.876363 
L 671.496334 183.470119 
L 672.003118 187.032659 
L 672.104475 188.375065 
L 672.307188 187.445707 
L 673.422114 193.434904 
L 673.827541 197.203967 
L 673.928898 197.565384 
L 674.131611 199.785518 
L 674.232968 200.017857 
L 674.435682 201.644234 
L 674.435682 201.644234 
" clip-path="url(#pc2147fea4c)" style="fill: none; stroke: #1f77b4; stroke-width: 1.5; stroke-linecap: square"/>
   </g>
   <g id="line2d_17">
    <path d="M 51.699318 297.497199 
L 51.902032 297.468274 
L 52.003389 297.401243 
L 52.61153 295.834152 
L 55.348164 295.909938 
L 61.125503 296.040255 
L 61.22686 295.931593 
L 61.530931 295.082915 
L 62.139072 292.956342 
L 62.443142 292.872795 
L 68.929979 292.956933 
L 69.031336 292.880544 
L 69.436763 289.807803 
L 69.53812 289.560125 
L 69.740834 313.68358 
L 70.146261 305.184624 
L 70.348975 301.586808 
L 70.754402 301.565272 
L 70.855759 301.565388 
L 71.15983 301.259642 
L 71.4639 301.157979 
L 71.666614 299.290747 
L 72.274755 299.307446 
L 83.62672 299.554181 
L 83.93079 298.953296 
L 84.640288 298.920855 
L 84.843002 298.182974 
L 85.349786 298.212053 
L 85.755213 298.138313 
L 102.377733 298.478295 
L 102.47909 297.23829 
L 102.681804 288.315992 
L 102.783161 287.952534 
L 102.884517 288.136403 
L 102.985874 287.621614 
L 103.087231 284.993911 
L 103.188588 285.009004 
L 103.999442 269.754884 
L 105.317081 269.90432 
L 106.432006 269.9229 
L 106.837434 269.980848 
L 107.141504 270.019165 
L 107.242861 269.864577 
L 107.445575 268.57824 
L 107.749645 266.893307 
L 107.952359 266.738769 
L 108.155073 266.672184 
L 115.047337 267.47641 
L 118.392112 267.779513 
L 118.79754 267.636532 
L 118.898896 267.727707 
L 119.10161 266.395295 
L 119.304324 266.49228 
L 120.926033 266.697719 
L 121.128747 266.741854 
L 121.432817 266.332977 
L 124.574879 266.56562 
L 124.980306 266.118652 
L 125.081663 266.212323 
L 125.284377 265.120268 
L 125.48709 265.204784 
L 125.689804 265.183005 
L 125.892518 265.064988 
L 128.730509 265.414779 
L 133.696994 265.91027 
L 134.001064 265.421822 
L 134.305135 264.239993 
L 134.406491 264.033806 
L 134.811919 262.040774 
L 135.318703 262.084204 
L 135.825487 262.124538 
L 136.028201 261.678982 
L 136.230914 261.073277 
L 136.534985 261.097931 
L 136.636342 261.051928 
L 136.940412 259.836493 
L 137.244483 259.525299 
L 137.548553 259.538575 
L 137.64991 259.322213 
L 137.953981 257.180042 
L 138.055337 257.261453 
L 138.562122 257.323384 
L 138.663478 257.360069 
L 139.474333 256.162255 
L 139.87976 254.689212 
L 140.082474 253.813387 
L 140.893329 253.777785 
L 141.197399 253.739839 
L 141.400113 253.690209 
L 142.210967 253.428708 
L 142.413681 253.190891 
L 143.325893 253.349838 
L 143.934033 253.405318 
L 163.394545 256.393922 
L 163.901329 256.504849 
L 164.2054 255.527521 
L 164.408113 255.470498 
L 167.144748 255.882395 
L 176.165505 257.171936 
L 176.368219 255.168486 
L 176.469576 255.286546 
L 176.570933 255.084272 
L 176.773646 253.790726 
L 177.077717 245.800243 
L 177.787215 240.201996 
L 177.888572 240.034039 
L 178.091285 238.879109 
L 178.395356 239.915821 
L 178.496713 239.588325 
L 178.90214 233.022434 
L 179.104854 233.119632 
L 179.20621 233.121237 
L 179.307567 233.235174 
L 179.611638 231.676288 
L 180.118422 231.647138 
L 180.422492 231.735405 
L 181.030633 231.160578 
L 181.13199 231.090311 
L 181.334704 230.305178 
L 181.537417 229.181711 
L 181.638774 229.131533 
L 181.841488 228.948523 
L 182.044202 228.612561 
L 182.348272 228.66682 
L 182.449629 228.456193 
L 182.753699 227.237808 
L 182.956413 227.220601 
L 184.071338 227.509777 
L 184.172695 227.223053 
L 184.578122 224.694448 
L 184.780836 224.72577 
L 185.084906 224.769234 
L 187.821541 225.433202 
L 188.125611 225.294124 
L 188.429682 224.313258 
L 188.632396 223.087331 
L 188.936466 222.229462 
L 189.13918 221.972573 
L 189.848677 219.475746 
L 189.950034 219.427045 
L 190.051391 218.921698 
L 190.254105 216.431332 
L 190.558175 216.039309 
L 190.760889 216.004357 
L 190.862246 216.056942 
L 191.166316 215.747763 
L 191.36903 215.751012 
L 192.281241 215.907172 
L 192.889382 214.851103 
L 193.29481 213.518385 
L 193.700237 211.80902 
L 194.004308 210.803208 
L 194.308378 210.371319 
L 195.017876 210.370059 
L 197.45044 211.098536 
L 197.855867 210.840989 
L 206.167127 213.295884 
L 206.369841 212.622251 
L 206.673911 211.494527 
L 206.775268 211.488179 
L 206.977982 211.16201 
L 207.180695 211.188675 
L 207.383409 211.201435 
L 209.815973 211.850247 
L 210.424114 209.120251 
L 211.032255 201.129659 
L 211.234969 200.620647 
L 211.437682 199.335244 
L 212.045823 194.857907 
L 212.248537 194.681927 
L 215.491955 195.797823 
L 227.958846 199.936057 
L 234.040255 201.847059 
L 234.242969 200.784265 
L 234.344326 201.220416 
L 234.54704 202.645995 
L 234.648396 202.034396 
L 235.053824 194.5739 
L 235.256537 194.756629 
L 235.459251 194.877886 
L 235.661965 195.575412 
L 235.763321 195.408702 
L 236.067392 192.155504 
L 236.270106 190.61831 
L 236.472819 190.317536 
L 236.878247 190.107003 
L 237.182317 188.911494 
L 237.283674 188.942205 
L 240.93252 190.258427 
L 252.993983 194.518981 
L 253.298053 194.455987 
L 253.500767 194.334497 
L 253.70348 194.100934 
L 254.007551 194.115282 
L 254.311621 193.761535 
L 255.223833 194.046216 
L 261.102529 195.970776 
L 261.406599 195.983131 
L 261.812027 195.299338 
L 262.01474 195.209681 
L 263.231022 195.51354 
L 263.839163 195.73769 
L 264.143234 195.393915 
L 265.055445 195.624214 
L 265.258159 195.614405 
L 268.602934 196.749182 
L 270.528714 197.299992 
L 270.731428 197.314867 
L 272.049067 197.623781 
L 272.657208 197.698273 
L 278.839974 199.748517 
L 283.198318 201.069876 
L 283.299675 201.001459 
L 283.907816 199.713623 
L 285.124098 200.102752 
L 290.191939 201.716247 
L 290.394653 201.599876 
L 290.597367 201.004971 
L 290.80008 200.482411 
L 291.306864 200.624763 
L 295.462494 201.984465 
L 295.665208 204.230188 
L 295.969279 203.269394 
L 296.273349 197.525966 
L 296.374706 197.609783 
L 296.982847 197.797039 
L 303.571041 199.916244 
L 303.672398 199.731719 
L 303.875111 198.882447 
L 303.976468 198.956622 
L 304.077825 198.807637 
L 304.280539 197.954294 
L 304.787323 198.14176 
L 312.389085 200.614685 
L 312.591799 200.459501 
L 312.997226 199.810082 
L 313.808081 200.044112 
L 322.524768 202.817639 
L 322.727482 202.723083 
L 323.538336 202.936897 
L 323.74105 202.953947 
L 329.82246 204.869094 
L 332.761808 205.82178 
L 332.964521 206.005041 
L 333.167235 206.005114 
L 333.471306 204.571651 
L 333.775376 204.632179 
L 334.28216 204.76874 
L 334.484874 204.552713 
L 334.687588 204.599618 
L 334.788944 204.422408 
L 334.890301 203.837806 
L 335.093015 201.693348 
L 335.90387 201.790269 
L 351.107394 206.568622 
L 356.073879 207.987822 
L 357.594231 208.171375 
L 362.76343 208.801136 
L 368.236698 210.345305 
L 368.540769 210.317712 
L 369.351623 210.607343 
L 369.45298 210.429923 
L 369.757051 209.325342 
L 370.162478 209.473492 
L 374.014038 210.534488 
L 374.216751 210.486926 
L 374.520822 210.214045 
L 374.622179 210.263354 
L 374.723535 210.121089 
L 375.027606 208.636344 
L 375.737104 208.828679 
L 379.38595 209.881262 
L 379.487306 209.820584 
L 379.892734 208.310597 
L 380.196804 206.348719 
L 380.602232 205.791969 
L 380.804945 205.621953 
L 381.007659 203.306358 
L 381.109016 203.316449 
L 381.413086 203.382072 
L 381.514443 203.305216 
L 381.6158 203.41167 
L 381.818514 202.605643 
L 381.91987 202.656241 
L 383.84565 202.98185 
L 384.149721 202.891298 
L 384.453791 202.945894 
L 385.366003 202.652377 
L 385.77143 202.243748 
L 386.278214 202.360329 
L 388.203994 202.893399 
L 388.406708 202.910476 
L 399.353245 206.075835 
L 399.657316 205.985394 
L 400.569527 206.235374 
L 401.279025 206.546782 
L 401.380382 206.640007 
L 401.785809 206.857179 
L 401.887166 206.950101 
L 412.022849 210.08809 
L 412.124206 209.638306 
L 412.63099 204.664108 
L 412.833704 204.608242 
L 413.036417 204.190963 
L 413.441845 202.295855 
L 413.745915 201.65298 
L 413.847272 201.690499 
L 414.455413 199.569778 
L 414.658126 199.471774 
L 415.164911 198.756966 
L 415.773052 198.817281 
L 416.583906 199.186212 
L 416.685263 199.286636 
L 418.002902 199.639639 
L 418.509686 197.012975 
L 418.7124 195.859874 
L 419.01647 195.368278 
L 420.030038 195.256806 
L 420.232752 195.140388 
L 420.94225 195.303425 
L 421.24632 195.360212 
L 425.908735 196.886206 
L 426.111448 196.811283 
L 426.719589 196.972946 
L 427.02366 197.009276 
L 427.733158 197.232511 
L 429.963008 197.879 
L 430.368435 197.854231 
L 436.956629 199.806332 
L 437.159343 199.682042 
L 437.362056 199.675691 
L 439.287836 200.227302 
L 439.693263 199.970886 
L 447.396383 202.372347 
L 448.409951 202.299887 
L 448.409951 202.329949 
L 448.511308 202.55742 
L 463.714832 207.298019 
L 464.42433 207.479013 
L 464.728401 206.349412 
L 464.829757 206.4158 
L 466.046039 206.781147 
L 469.492172 207.923505 
L 469.593528 208.8541 
L 469.694885 208.664567 
L 469.897599 207.288728 
L 470.404383 198.598369 
L 470.50574 198.54849 
L 470.708453 197.68585 
L 470.911167 196.462381 
L 471.215238 196.518516 
L 471.316594 196.551226 
L 471.519308 196.240599 
L 471.722022 195.977948 
L 472.634233 196.29988 
L 482.97263 199.731285 
L 483.2767 199.149475 
L 483.378057 199.09144 
L 483.580771 198.736594 
L 483.682128 198.772042 
L 483.884841 197.359878 
L 484.290269 194.339601 
L 484.594339 193.804238 
L 484.797053 193.821758 
L 493.817811 196.911124 
L 503.142639 199.965553 
L 503.345353 199.882849 
L 503.548066 199.474836 
L 504.358921 199.589704 
L 504.662992 199.594235 
L 505.169776 199.544736 
L 508.615908 200.623646 
L 508.818622 200.642172 
L 513.481036 201.997706 
L 513.582393 201.632116 
L 513.683749 201.812616 
L 513.886463 202.760582 
L 513.98782 202.886931 
L 514.089177 202.179712 
L 514.393247 197.659064 
L 514.697318 197.715053 
L 514.900031 197.629892 
L 515.102745 197.207043 
L 515.609529 197.353845 
L 524.326217 200.204946 
L 524.630287 200.265436 
L 526.860137 201.003574 
L 526.961494 200.920202 
L 527.265565 200.41076 
L 529.191344 201.042233 
L 529.596772 201.135396 
L 529.799485 200.931298 
L 530.103556 200.94561 
L 530.204913 200.103339 
L 530.407626 197.220889 
L 530.61034 197.079488 
L 531.927979 197.547812 
L 532.130692 197.230585 
L 532.637477 197.423779 
L 540.543309 199.996607 
L 540.746023 200.015539 
L 546.016578 201.535546 
L 546.320649 201.530209 
L 555.54412 204.229896 
L 555.645477 204.143249 
L 555.949548 201.785816 
L 556.659045 195.528416 
L 557.165829 189.166897 
L 557.368543 189.035256 
L 559.69975 189.842351 
L 560.003821 189.913075 
L 560.510605 190.01483 
L 560.814675 190.086676 
L 561.017389 190.12872 
L 561.220103 189.856329 
L 561.9296 190.1276 
L 571.761213 193.622586 
L 572.065283 192.743422 
L 574.09242 193.457455 
L 576.220914 194.109122 
L 576.423627 194.082607 
L 576.727698 194.285518 
L 577.133125 192.271338 
L 577.437195 191.744817 
L 577.741266 191.064893 
L 577.94398 191.07528 
L 580.275187 191.858598 
L 580.376544 191.75295 
L 581.086041 189.636257 
L 581.187398 189.696687 
L 583.113178 190.384779 
L 589.397301 192.545411 
L 590.208156 192.671375 
L 590.309513 192.557718 
L 590.41087 192.64473 
L 590.512227 192.991152 
L 590.613583 192.709959 
L 590.816297 191.362585 
L 590.917654 190.911157 
L 591.221724 186.189328 
L 591.424438 181.975682 
L 592.235293 179.248733 
L 592.33665 180.049795 
L 592.539363 184.498223 
L 592.64072 183.474939 
L 593.046147 173.33927 
L 593.147504 173.525259 
L 593.451575 173.611222 
L 594.161072 173.845864 
L 594.363786 173.617592 
L 596.49228 174.465556 
L 599.634341 175.718408 
L 600.343839 174.421583 
L 600.546553 173.469246 
L 600.850623 173.076337 
L 601.154694 173.163665 
L 601.762835 173.363018 
L 602.066905 172.324507 
L 602.269619 170.782873 
L 602.370976 171.537009 
L 602.573689 173.457664 
L 602.675046 173.721277 
L 603.080473 164.177972 
L 603.18183 163.665063 
L 603.283187 162.49098 
L 603.485901 158.019378 
L 603.891328 156.898596 
L 604.094042 155.934569 
L 604.296755 155.926079 
L 604.499469 155.950843 
L 608.857813 157.990583 
L 621.527417 163.762508 
L 629.534606 167.295127 
L 629.940033 165.740332 
L 630.04139 165.802759 
L 630.548174 166.044572 
L 630.649531 166.164581 
L 630.750888 166.066387 
L 630.852245 165.674868 
L 631.156315 162.362401 
L 631.96717 162.555532 
L 632.271241 161.757063 
L 632.575311 160.602895 
L 632.676668 160.496077 
L 633.082095 160.727428 
L 633.183452 160.619789 
L 633.487522 160.047181 
L 633.690236 159.88392 
L 634.095663 159.641759 
L 634.501091 159.67922 
L 636.021443 160.382728 
L 638.04858 161.367627 
L 638.149937 160.510189 
L 638.454007 182.443256 
L 638.555364 182.25831 
L 638.656721 180.838847 
L 638.960791 169.200388 
L 639.163505 169.25268 
L 639.366219 169.136444 
L 640.27843 169.511538 
L 640.582501 169.636634 
L 640.683857 169.469726 
L 640.886571 168.432518 
L 641.089285 168.533654 
L 641.190642 168.480441 
L 641.494712 164.642098 
L 641.798783 164.833503 
L 644.028633 165.725751 
L 644.231346 165.633932 
L 645.447628 166.134488 
L 646.157126 166.404032 
L 651.731752 168.827988 
L 651.934466 168.552573 
L 652.238536 168.067977 
L 652.74532 168.22118 
L 662.67829 172.405949 
L 662.881003 171.030801 
L 663.083717 171.188378 
L 663.590501 171.424346 
L 663.793215 171.212653 
L 663.995928 171.302804 
L 665.110853 170.869345 
L 666.428492 171.339651 
L 666.529849 171.183726 
L 667.036633 169.244892 
L 667.340704 169.042436 
L 667.543417 168.277103 
L 668.759699 162.18649 
L 669.165127 161.543643 
L 669.469197 161.140549 
L 669.671911 161.071152 
L 670.077338 161.175719 
L 670.381409 161.28737 
L 670.584122 161.1432 
L 671.597691 161.613748 
L 674.435682 162.894032 
L 674.435682 162.894032 
" clip-path="url(#pc2147fea4c)" style="fill: none; stroke: #ff7f0e; stroke-width: 1.5; stroke-linecap: square"/>
   </g>
   <g id="patch_3">
    <path d="M 20.5625 327.558125 
L 20.5625 22.318125 
" style="fill: none; stroke: #000000; stroke-width: 0.8; stroke-linejoin: miter; stroke-linecap: square"/>
   </g>
   <g id="patch_4">
    <path d="M 705.5725 327.558125 
L 705.5725 22.318125 
" style="fill: none; stroke: #000000; stroke-width: 0.8; stroke-linejoin: miter; stroke-linecap: square"/>
   </g>
   <g id="patch_5">
    <path d="M 20.5625 327.558125 
L 705.5725 327.558125 
" style="fill: none; stroke: #000000; stroke-width: 0.8; stroke-linejoin: miter; stroke-linecap: square"/>
   </g>
   <g id="patch_6">
    <path d="M 20.5625 22.318125 
L 705.5725 22.318125 
" style="fill: none; stroke: #000000; stroke-width: 0.8; stroke-linejoin: miter; stroke-linecap: square"/>
   </g>
   <g id="text_16">
    <!-- training -->
    <g transform="translate(339.824062 16.318125) scale(0.12 -0.12)">
     <defs>
      <path id="DejaVuSans-74" d="M 1172 4494 
L 1172 3500 
L 2356 3500 
L 2356 3053 
L 1172 3053 
L 1172 1153 
Q 1172 725 1289 603 
Q 1406 481 1766 481 
L 2356 481 
L 2356 0 
L 1766 0 
Q 1100 0 847 248 
Q 594 497 594 1153 
L 594 3053 
L 172 3053 
L 172 3500 
L 594 3500 
L 594 4494 
L 1172 4494 
z
" transform="scale(0.015625)"/>
      <path id="DejaVuSans-72" d="M 2631 2963 
Q 2534 3019 2420 3045 
Q 2306 3072 2169 3072 
Q 1681 3072 1420 2755 
Q 1159 2438 1159 1844 
L 1159 0 
L 581 0 
L 581 3500 
L 1159 3500 
L 1159 2956 
Q 1341 3275 1631 3429 
Q 1922 3584 2338 3584 
Q 2397 3584 2469 3576 
Q 2541 3569 2628 3553 
L 2631 2963 
z
" transform="scale(0.015625)"/>
      <path id="DejaVuSans-61" d="M 2194 1759 
Q 1497 1759 1228 1600 
Q 959 1441 959 1056 
Q 959 750 1161 570 
Q 1363 391 1709 391 
Q 2188 391 2477 730 
Q 2766 1069 2766 1631 
L 2766 1759 
L 2194 1759 
z
M 3341 1997 
L 3341 0 
L 2766 0 
L 2766 531 
Q 2569 213 2275 61 
Q 1981 -91 1556 -91 
Q 1019 -91 701 211 
Q 384 513 384 1019 
Q 384 1609 779 1909 
Q 1175 2209 1959 2209 
L 2766 2209 
L 2766 2266 
Q 2766 2663 2505 2880 
Q 2244 3097 1772 3097 
Q 1472 3097 1187 3025 
Q 903 2953 641 2809 
L 641 3341 
Q 956 3463 1253 3523 
Q 1550 3584 1831 3584 
Q 2591 3584 2966 3190 
Q 3341 2797 3341 1997 
z
" transform="scale(0.015625)"/>
      <path id="DejaVuSans-69" d="M 603 3500 
L 1178 3500 
L 1178 0 
L 603 0 
L 603 3500 
z
M 603 4863 
L 1178 4863 
L 1178 4134 
L 603 4134 
L 603 4863 
z
" transform="scale(0.015625)"/>
      <path id="DejaVuSans-6e" d="M 3513 2113 
L 3513 0 
L 2938 0 
L 2938 2094 
Q 2938 2591 2744 2837 
Q 2550 3084 2163 3084 
Q 1697 3084 1428 2787 
Q 1159 2491 1159 1978 
L 1159 0 
L 581 0 
L 581 3500 
L 1159 3500 
L 1159 2956 
Q 1366 3272 1645 3428 
Q 1925 3584 2291 3584 
Q 2894 3584 3203 3211 
Q 3513 2838 3513 2113 
z
" transform="scale(0.015625)"/>
      <path id="DejaVuSans-67" d="M 2906 1791 
Q 2906 2416 2648 2759 
Q 2391 3103 1925 3103 
Q 1463 3103 1205 2759 
Q 947 2416 947 1791 
Q 947 1169 1205 825 
Q 1463 481 1925 481 
Q 2391 481 2648 825 
Q 2906 1169 2906 1791 
z
M 3481 434 
Q 3481 -459 3084 -895 
Q 2688 -1331 1869 -1331 
Q 1566 -1331 1297 -1286 
Q 1028 -1241 775 -1147 
L 775 -588 
Q 1028 -725 1275 -790 
Q 1522 -856 1778 -856 
Q 2344 -856 2625 -561 
Q 2906 -266 2906 331 
L 2906 616 
Q 2728 306 2450 153 
Q 2172 0 1784 0 
Q 1141 0 747 490 
Q 353 981 353 1791 
Q 353 2603 747 3093 
Q 1141 3584 1784 3584 
Q 2172 3584 2450 3431 
Q 2728 3278 2906 2969 
L 2906 3500 
L 3481 3500 
L 3481 434 
z
" transform="scale(0.015625)"/>
     </defs>
     <use xlink:href="#DejaVuSans-74"/>
     <use xlink:href="#DejaVuSans-72" x="39.208984"/>
     <use xlink:href="#DejaVuSans-61" x="80.322266"/>
     <use xlink:href="#DejaVuSans-69" x="141.601562"/>
     <use xlink:href="#DejaVuSans-6e" x="169.384766"/>
     <use xlink:href="#DejaVuSans-69" x="232.763672"/>
     <use xlink:href="#DejaVuSans-6e" x="260.546875"/>
     <use xlink:href="#DejaVuSans-67" x="323.925781"/>
    </g>
   </g>
   <g id="legend_1">
    <g id="patch_7">
     <path d="M 617.17875 59.674375 
L 698.5725 59.674375 
Q 700.5725 59.674375 700.5725 57.674375 
L 700.5725 29.318125 
Q 700.5725 27.318125 698.5725 27.318125 
L 617.17875 27.318125 
Q 615.17875 27.318125 615.17875 29.318125 
L 615.17875 57.674375 
Q 615.17875 59.674375 617.17875 59.674375 
z
" style="fill: #ffffff; opacity: 0.8; stroke: #cccccc; stroke-linejoin: miter"/>
    </g>
    <g id="line2d_18">
     <path d="M 619.17875 35.416562 
L 629.17875 35.416562 
L 639.17875 35.416562 
" style="fill: none; stroke: #1f77b4; stroke-width: 1.5; stroke-linecap: square"/>
    </g>
    <g id="text_17">
     <!-- observed -->
     <g transform="translate(647.17875 38.916562) scale(0.1 -0.1)">
      <defs>
       <path id="DejaVuSans-6f" d="M 1959 3097 
Q 1497 3097 1228 2736 
Q 959 2375 959 1747 
Q 959 1119 1226 758 
Q 1494 397 1959 397 
Q 2419 397 2687 759 
Q 2956 1122 2956 1747 
Q 2956 2369 2687 2733 
Q 2419 3097 1959 3097 
z
M 1959 3584 
Q 2709 3584 3137 3096 
Q 3566 2609 3566 1747 
Q 3566 888 3137 398 
Q 2709 -91 1959 -91 
Q 1206 -91 779 398 
Q 353 888 353 1747 
Q 353 2609 779 3096 
Q 1206 3584 1959 3584 
z
" transform="scale(0.015625)"/>
       <path id="DejaVuSans-62" d="M 3116 1747 
Q 3116 2381 2855 2742 
Q 2594 3103 2138 3103 
Q 1681 3103 1420 2742 
Q 1159 2381 1159 1747 
Q 1159 1113 1420 752 
Q 1681 391 2138 391 
Q 2594 391 2855 752 
Q 3116 1113 3116 1747 
z
M 1159 2969 
Q 1341 3281 1617 3432 
Q 1894 3584 2278 3584 
Q 2916 3584 3314 3078 
Q 3713 2572 3713 1747 
Q 3713 922 3314 415 
Q 2916 -91 2278 -91 
Q 1894 -91 1617 61 
Q 1341 213 1159 525 
L 1159 0 
L 581 0 
L 581 4863 
L 1159 4863 
L 1159 2969 
z
" transform="scale(0.015625)"/>
       <path id="DejaVuSans-73" d="M 2834 3397 
L 2834 2853 
Q 2591 2978 2328 3040 
Q 2066 3103 1784 3103 
Q 1356 3103 1142 2972 
Q 928 2841 928 2578 
Q 928 2378 1081 2264 
Q 1234 2150 1697 2047 
L 1894 2003 
Q 2506 1872 2764 1633 
Q 3022 1394 3022 966 
Q 3022 478 2636 193 
Q 2250 -91 1575 -91 
Q 1294 -91 989 -36 
Q 684 19 347 128 
L 347 722 
Q 666 556 975 473 
Q 1284 391 1588 391 
Q 1994 391 2212 530 
Q 2431 669 2431 922 
Q 2431 1156 2273 1281 
Q 2116 1406 1581 1522 
L 1381 1569 
Q 847 1681 609 1914 
Q 372 2147 372 2553 
Q 372 3047 722 3315 
Q 1072 3584 1716 3584 
Q 2034 3584 2315 3537 
Q 2597 3491 2834 3397 
z
" transform="scale(0.015625)"/>
       <path id="DejaVuSans-65" d="M 3597 1894 
L 3597 1613 
L 953 1613 
Q 991 1019 1311 708 
Q 1631 397 2203 397 
Q 2534 397 2845 478 
Q 3156 559 3463 722 
L 3463 178 
Q 3153 47 2828 -22 
Q 2503 -91 2169 -91 
Q 1331 -91 842 396 
Q 353 884 353 1716 
Q 353 2575 817 3079 
Q 1281 3584 2069 3584 
Q 2775 3584 3186 3129 
Q 3597 2675 3597 1894 
z
M 3022 2063 
Q 3016 2534 2758 2815 
Q 2500 3097 2075 3097 
Q 1594 3097 1305 2825 
Q 1016 2553 972 2059 
L 3022 2063 
z
" transform="scale(0.015625)"/>
       <path id="DejaVuSans-76" d="M 191 3500 
L 800 3500 
L 1894 563 
L 2988 3500 
L 3597 3500 
L 2284 0 
L 1503 0 
L 191 3500 
z
" transform="scale(0.015625)"/>
       <path id="DejaVuSans-64" d="M 2906 2969 
L 2906 4863 
L 3481 4863 
L 3481 0 
L 2906 0 
L 2906 525 
Q 2725 213 2448 61 
Q 2172 -91 1784 -91 
Q 1150 -91 751 415 
Q 353 922 353 1747 
Q 353 2572 751 3078 
Q 1150 3584 1784 3584 
Q 2172 3584 2448 3432 
Q 2725 3281 2906 2969 
z
M 947 1747 
Q 947 1113 1208 752 
Q 1469 391 1925 391 
Q 2381 391 2643 752 
Q 2906 1113 2906 1747 
Q 2906 2381 2643 2742 
Q 2381 3103 1925 3103 
Q 1469 3103 1208 2742 
Q 947 2381 947 1747 
z
" transform="scale(0.015625)"/>
      </defs>
      <use xlink:href="#DejaVuSans-6f"/>
      <use xlink:href="#DejaVuSans-62" x="61.181641"/>
      <use xlink:href="#DejaVuSans-73" x="124.658203"/>
      <use xlink:href="#DejaVuSans-65" x="176.757812"/>
      <use xlink:href="#DejaVuSans-72" x="238.28125"/>
      <use xlink:href="#DejaVuSans-76" x="279.394531"/>
      <use xlink:href="#DejaVuSans-65" x="338.574219"/>
      <use xlink:href="#DejaVuSans-64" x="400.097656"/>
     </g>
    </g>
    <g id="line2d_19">
     <path d="M 619.17875 50.094688 
L 629.17875 50.094688 
L 639.17875 50.094688 
" style="fill: none; stroke: #ff7f0e; stroke-width: 1.5; stroke-linecap: square"/>
    </g>
    <g id="text_18">
     <!-- simulated -->
     <g transform="translate(647.17875 53.594688) scale(0.1 -0.1)">
      <defs>
       <path id="DejaVuSans-6d" d="M 3328 2828 
Q 3544 3216 3844 3400 
Q 4144 3584 4550 3584 
Q 5097 3584 5394 3201 
Q 5691 2819 5691 2113 
L 5691 0 
L 5113 0 
L 5113 2094 
Q 5113 2597 4934 2840 
Q 4756 3084 4391 3084 
Q 3944 3084 3684 2787 
Q 3425 2491 3425 1978 
L 3425 0 
L 2847 0 
L 2847 2094 
Q 2847 2600 2669 2842 
Q 2491 3084 2119 3084 
Q 1678 3084 1418 2786 
Q 1159 2488 1159 1978 
L 1159 0 
L 581 0 
L 581 3500 
L 1159 3500 
L 1159 2956 
Q 1356 3278 1631 3431 
Q 1906 3584 2284 3584 
Q 2666 3584 2933 3390 
Q 3200 3197 3328 2828 
z
" transform="scale(0.015625)"/>
       <path id="DejaVuSans-75" d="M 544 1381 
L 544 3500 
L 1119 3500 
L 1119 1403 
Q 1119 906 1312 657 
Q 1506 409 1894 409 
Q 2359 409 2629 706 
Q 2900 1003 2900 1516 
L 2900 3500 
L 3475 3500 
L 3475 0 
L 2900 0 
L 2900 538 
Q 2691 219 2414 64 
Q 2138 -91 1772 -91 
Q 1169 -91 856 284 
Q 544 659 544 1381 
z
M 1991 3584 
L 1991 3584 
z
" transform="scale(0.015625)"/>
       <path id="DejaVuSans-6c" d="M 603 4863 
L 1178 4863 
L 1178 0 
L 603 0 
L 603 4863 
z
" transform="scale(0.015625)"/>
      </defs>
      <use xlink:href="#DejaVuSans-73"/>
      <use xlink:href="#DejaVuSans-69" x="52.099609"/>
      <use xlink:href="#DejaVuSans-6d" x="79.882812"/>
      <use xlink:href="#DejaVuSans-75" x="177.294922"/>
      <use xlink:href="#DejaVuSans-6c" x="240.673828"/>
      <use xlink:href="#DejaVuSans-61" x="268.457031"/>
      <use xlink:href="#DejaVuSans-74" x="329.736328"/>
      <use xlink:href="#DejaVuSans-65" x="368.945312"/>
      <use xlink:href="#DejaVuSans-64" x="430.46875"/>
     </g>
    </g>
   </g>
  </g>
 </g>
 <defs>
  <clipPath id="pc2147fea4c">
   <rect x="20.5625" y="22.318125" width="685.01" height="305.24"/>
  </clipPath>
 </defs>
</svg>
