<?xml version="1.0" encoding="utf-8" standalone="no"?>
<!DOCTYPE svg PUBLIC "-//W3C//DTD SVG 1.1//EN"
  "http://www.w3.org/Graphics/SVG/1.1/DTD/svg11.dtd">
<svg xmlns:xlink="http://www.w3.org/1999/xlink" width="712.90712pt" height="351.43625pt" viewBox="0 0 712.90712 351.43625" xmlns="http://www.w3.org/2000/svg" version="1.1">
 <metadata>
  <rdf:RDF xmlns:dc="http://purl.org/dc/elements/1.1/" xmlns:cc="http://creativecommons.org/ns#" xmlns:rdf="http://www.w3.org/1999/02/22-rdf-syntax-ns#">
   <cc:Work>
    <dc:type rdf:resource="http://purl.org/dc/dcmitype/StillImage"/>
    <dc:date>2024-05-12T08:16:56.489646</dc:date>
    <dc:format>image/svg+xml</dc:format>
    <dc:creator>
     <cc:Agent>
      <dc:title>Matplotlib v3.8.4, https://matplotlib.org/</dc:title>
     </cc:Agent>
    </dc:creator>
   </cc:Work>
  </rdf:RDF>
 </metadata>
 <defs>
  <style type="text/css">*{stroke-linejoin: round; stroke-linecap: butt}</style>
 </defs>
 <g id="figure_1">
  <g id="patch_1">
   <path d="M 0 351.43625 
L 712.90712 351.43625 
L 712.90712 0 
L 0 0 
z
" style="fill: #ffffff"/>
  </g>
  <g id="axes_1">
   <g id="patch_2">
    <path d="M 46.0125 327.558125 
L 694.701534 327.558125 
L 694.701534 22.318125 
L 46.0125 22.318125 
z
" style="fill: #ffffff"/>
   </g>
   <g id="matplotlib.axis_1">
    <g id="xtick_1">
     <g id="line2d_1">
      <defs>
       <path id="m5b3cb905d2" d="M 0 0 
L 0 3.5 
" style="stroke: #000000; stroke-width: 0.8"/>
      </defs>
      <g>
       <use xlink:href="#m5b3cb905d2" x="109.087243" y="327.558125" style="stroke: #000000; stroke-width: 0.8"/>
      </g>
     </g>
     <g id="text_1">
      <!-- 2010 -->
      <g transform="translate(96.362243 342.156563) scale(0.1 -0.1)">
       <defs>
        <path id="DejaVuSans-32" d="M 1228 531 
L 3431 531 
L 3431 0 
L 469 0 
L 469 531 
Q 828 903 1448 1529 
Q 2069 2156 2228 2338 
Q 2531 2678 2651 2914 
Q 2772 3150 2772 3378 
Q 2772 3750 2511 3984 
Q 2250 4219 1831 4219 
Q 1534 4219 1204 4116 
Q 875 4013 500 3803 
L 500 4441 
Q 881 4594 1212 4672 
Q 1544 4750 1819 4750 
Q 2544 4750 2975 4387 
Q 3406 4025 3406 3419 
Q 3406 3131 3298 2873 
Q 3191 2616 2906 2266 
Q 2828 2175 2409 1742 
Q 1991 1309 1228 531 
z
" transform="scale(0.015625)"/>
        <path id="DejaVuSans-30" d="M 2034 4250 
Q 1547 4250 1301 3770 
Q 1056 3291 1056 2328 
Q 1056 1369 1301 889 
Q 1547 409 2034 409 
Q 2525 409 2770 889 
Q 3016 1369 3016 2328 
Q 3016 3291 2770 3770 
Q 2525 4250 2034 4250 
z
M 2034 4750 
Q 2819 4750 3233 4129 
Q 3647 3509 3647 2328 
Q 3647 1150 3233 529 
Q 2819 -91 2034 -91 
Q 1250 -91 836 529 
Q 422 1150 422 2328 
Q 422 3509 836 4129 
Q 1250 4750 2034 4750 
z
" transform="scale(0.015625)"/>
        <path id="DejaVuSans-31" d="M 794 531 
L 1825 531 
L 1825 4091 
L 703 3866 
L 703 4441 
L 1819 4666 
L 2450 4666 
L 2450 531 
L 3481 531 
L 3481 0 
L 794 0 
L 794 531 
z
" transform="scale(0.015625)"/>
       </defs>
       <use xlink:href="#DejaVuSans-32"/>
       <use xlink:href="#DejaVuSans-30" x="63.623047"/>
       <use xlink:href="#DejaVuSans-31" x="127.246094"/>
       <use xlink:href="#DejaVuSans-30" x="190.869141"/>
      </g>
     </g>
    </g>
    <g id="xtick_2">
     <g id="line2d_2">
      <g>
       <use xlink:href="#m5b3cb905d2" x="225.802265" y="327.558125" style="stroke: #000000; stroke-width: 0.8"/>
      </g>
     </g>
     <g id="text_2">
      <!-- 2012 -->
      <g transform="translate(213.077265 342.156563) scale(0.1 -0.1)">
       <use xlink:href="#DejaVuSans-32"/>
       <use xlink:href="#DejaVuSans-30" x="63.623047"/>
       <use xlink:href="#DejaVuSans-31" x="127.246094"/>
       <use xlink:href="#DejaVuSans-32" x="190.869141"/>
      </g>
     </g>
    </g>
    <g id="xtick_3">
     <g id="line2d_3">
      <g>
       <use xlink:href="#m5b3cb905d2" x="342.67717" y="327.558125" style="stroke: #000000; stroke-width: 0.8"/>
      </g>
     </g>
     <g id="text_3">
      <!-- 2014 -->
      <g transform="translate(329.95217 342.156563) scale(0.1 -0.1)">
       <defs>
        <path id="DejaVuSans-34" d="M 2419 4116 
L 825 1625 
L 2419 1625 
L 2419 4116 
z
M 2253 4666 
L 3047 4666 
L 3047 1625 
L 3713 1625 
L 3713 1100 
L 3047 1100 
L 3047 0 
L 2419 0 
L 2419 1100 
L 313 1100 
L 313 1709 
L 2253 4666 
z
" transform="scale(0.015625)"/>
       </defs>
       <use xlink:href="#DejaVuSans-32"/>
       <use xlink:href="#DejaVuSans-30" x="63.623047"/>
       <use xlink:href="#DejaVuSans-31" x="127.246094"/>
       <use xlink:href="#DejaVuSans-34" x="190.869141"/>
      </g>
     </g>
    </g>
    <g id="xtick_4">
     <g id="line2d_4">
      <g>
       <use xlink:href="#m5b3cb905d2" x="459.392192" y="327.558125" style="stroke: #000000; stroke-width: 0.8"/>
      </g>
     </g>
     <g id="text_4">
      <!-- 2016 -->
      <g transform="translate(446.667192 342.156563) scale(0.1 -0.1)">
       <defs>
        <path id="DejaVuSans-36" d="M 2113 2584 
Q 1688 2584 1439 2293 
Q 1191 2003 1191 1497 
Q 1191 994 1439 701 
Q 1688 409 2113 409 
Q 2538 409 2786 701 
Q 3034 994 3034 1497 
Q 3034 2003 2786 2293 
Q 2538 2584 2113 2584 
z
M 3366 4563 
L 3366 3988 
Q 3128 4100 2886 4159 
Q 2644 4219 2406 4219 
Q 1781 4219 1451 3797 
Q 1122 3375 1075 2522 
Q 1259 2794 1537 2939 
Q 1816 3084 2150 3084 
Q 2853 3084 3261 2657 
Q 3669 2231 3669 1497 
Q 3669 778 3244 343 
Q 2819 -91 2113 -91 
Q 1303 -91 875 529 
Q 447 1150 447 2328 
Q 447 3434 972 4092 
Q 1497 4750 2381 4750 
Q 2619 4750 2861 4703 
Q 3103 4656 3366 4563 
z
" transform="scale(0.015625)"/>
       </defs>
       <use xlink:href="#DejaVuSans-32"/>
       <use xlink:href="#DejaVuSans-30" x="63.623047"/>
       <use xlink:href="#DejaVuSans-31" x="127.246094"/>
       <use xlink:href="#DejaVuSans-36" x="190.869141"/>
      </g>
     </g>
    </g>
    <g id="xtick_5">
     <g id="line2d_5">
      <g>
       <use xlink:href="#m5b3cb905d2" x="576.267098" y="327.558125" style="stroke: #000000; stroke-width: 0.8"/>
      </g>
     </g>
     <g id="text_5">
      <!-- 2018 -->
      <g transform="translate(563.542098 342.156563) scale(0.1 -0.1)">
       <defs>
        <path id="DejaVuSans-38" d="M 2034 2216 
Q 1584 2216 1326 1975 
Q 1069 1734 1069 1313 
Q 1069 891 1326 650 
Q 1584 409 2034 409 
Q 2484 409 2743 651 
Q 3003 894 3003 1313 
Q 3003 1734 2745 1975 
Q 2488 2216 2034 2216 
z
M 1403 2484 
Q 997 2584 770 2862 
Q 544 3141 544 3541 
Q 544 4100 942 4425 
Q 1341 4750 2034 4750 
Q 2731 4750 3128 4425 
Q 3525 4100 3525 3541 
Q 3525 3141 3298 2862 
Q 3072 2584 2669 2484 
Q 3125 2378 3379 2068 
Q 3634 1759 3634 1313 
Q 3634 634 3220 271 
Q 2806 -91 2034 -91 
Q 1263 -91 848 271 
Q 434 634 434 1313 
Q 434 1759 690 2068 
Q 947 2378 1403 2484 
z
M 1172 3481 
Q 1172 3119 1398 2916 
Q 1625 2713 2034 2713 
Q 2441 2713 2670 2916 
Q 2900 3119 2900 3481 
Q 2900 3844 2670 4047 
Q 2441 4250 2034 4250 
Q 1625 4250 1398 4047 
Q 1172 3844 1172 3481 
z
" transform="scale(0.015625)"/>
       </defs>
       <use xlink:href="#DejaVuSans-32"/>
       <use xlink:href="#DejaVuSans-30" x="63.623047"/>
       <use xlink:href="#DejaVuSans-31" x="127.246094"/>
       <use xlink:href="#DejaVuSans-38" x="190.869141"/>
      </g>
     </g>
    </g>
    <g id="xtick_6">
     <g id="line2d_6">
      <g>
       <use xlink:href="#m5b3cb905d2" x="692.98212" y="327.558125" style="stroke: #000000; stroke-width: 0.8"/>
      </g>
     </g>
     <g id="text_6">
      <!-- 2020 -->
      <g transform="translate(680.25712 342.156563) scale(0.1 -0.1)">
       <use xlink:href="#DejaVuSans-32"/>
       <use xlink:href="#DejaVuSans-30" x="63.623047"/>
       <use xlink:href="#DejaVuSans-32" x="127.246094"/>
       <use xlink:href="#DejaVuSans-30" x="190.869141"/>
      </g>
     </g>
    </g>
   </g>
   <g id="matplotlib.axis_2">
    <g id="ytick_1">
     <g id="line2d_7">
      <defs>
       <path id="ma6412bc186" d="M 0 0 
L -3.5 0 
" style="stroke: #000000; stroke-width: 0.8"/>
      </defs>
      <g>
       <use xlink:href="#ma6412bc186" x="46.0125" y="313.614876" style="stroke: #000000; stroke-width: 0.8"/>
      </g>
     </g>
     <g id="text_7">
      <!-- 0 -->
      <g transform="translate(32.65 317.414095) scale(0.1 -0.1)">
       <use xlink:href="#DejaVuSans-30"/>
      </g>
     </g>
    </g>
    <g id="ytick_2">
     <g id="line2d_8">
      <g>
       <use xlink:href="#ma6412bc186" x="46.0125" y="254.642013" style="stroke: #000000; stroke-width: 0.8"/>
      </g>
     </g>
     <g id="text_8">
      <!-- 5000 -->
      <g transform="translate(13.5625 258.441232) scale(0.1 -0.1)">
       <defs>
        <path id="DejaVuSans-35" d="M 691 4666 
L 3169 4666 
L 3169 4134 
L 1269 4134 
L 1269 2991 
Q 1406 3038 1543 3061 
Q 1681 3084 1819 3084 
Q 2600 3084 3056 2656 
Q 3513 2228 3513 1497 
Q 3513 744 3044 326 
Q 2575 -91 1722 -91 
Q 1428 -91 1123 -41 
Q 819 9 494 109 
L 494 744 
Q 775 591 1075 516 
Q 1375 441 1709 441 
Q 2250 441 2565 725 
Q 2881 1009 2881 1497 
Q 2881 1984 2565 2268 
Q 2250 2553 1709 2553 
Q 1456 2553 1204 2497 
Q 953 2441 691 2322 
L 691 4666 
z
" transform="scale(0.015625)"/>
       </defs>
       <use xlink:href="#DejaVuSans-35"/>
       <use xlink:href="#DejaVuSans-30" x="63.623047"/>
       <use xlink:href="#DejaVuSans-30" x="127.246094"/>
       <use xlink:href="#DejaVuSans-30" x="190.869141"/>
      </g>
     </g>
    </g>
    <g id="ytick_3">
     <g id="line2d_9">
      <g>
       <use xlink:href="#ma6412bc186" x="46.0125" y="195.66915" style="stroke: #000000; stroke-width: 0.8"/>
      </g>
     </g>
     <g id="text_9">
      <!-- 10000 -->
      <g transform="translate(7.2 199.468369) scale(0.1 -0.1)">
       <use xlink:href="#DejaVuSans-31"/>
       <use xlink:href="#DejaVuSans-30" x="63.623047"/>
       <use xlink:href="#DejaVuSans-30" x="127.246094"/>
       <use xlink:href="#DejaVuSans-30" x="190.869141"/>
       <use xlink:href="#DejaVuSans-30" x="254.492188"/>
      </g>
     </g>
    </g>
    <g id="ytick_4">
     <g id="line2d_10">
      <g>
       <use xlink:href="#ma6412bc186" x="46.0125" y="136.696287" style="stroke: #000000; stroke-width: 0.8"/>
      </g>
     </g>
     <g id="text_10">
      <!-- 15000 -->
      <g transform="translate(7.2 140.495506) scale(0.1 -0.1)">
       <use xlink:href="#DejaVuSans-31"/>
       <use xlink:href="#DejaVuSans-35" x="63.623047"/>
       <use xlink:href="#DejaVuSans-30" x="127.246094"/>
       <use xlink:href="#DejaVuSans-30" x="190.869141"/>
       <use xlink:href="#DejaVuSans-30" x="254.492188"/>
      </g>
     </g>
    </g>
    <g id="ytick_5">
     <g id="line2d_11">
      <g>
       <use xlink:href="#ma6412bc186" x="46.0125" y="77.723425" style="stroke: #000000; stroke-width: 0.8"/>
      </g>
     </g>
     <g id="text_11">
      <!-- 20000 -->
      <g transform="translate(7.2 81.522643) scale(0.1 -0.1)">
       <use xlink:href="#DejaVuSans-32"/>
       <use xlink:href="#DejaVuSans-30" x="63.623047"/>
       <use xlink:href="#DejaVuSans-30" x="127.246094"/>
       <use xlink:href="#DejaVuSans-30" x="190.869141"/>
       <use xlink:href="#DejaVuSans-30" x="254.492188"/>
      </g>
     </g>
    </g>
   </g>
   <g id="line2d_12">
    <path d="M 75.498365 308.965751 
L 75.724867 310.72609 
L 75.7715 310.826344 
L 76.057958 311.619529 
L 76.071281 311.5753 
L 76.277798 311.908496 
L 76.291121 311.746321 
L 76.297783 311.672605 
L 76.32443 302.528863 
L 76.417696 309.558428 
L 76.477652 310.277897 
L 76.517623 309.461123 
L 76.570918 310.068543 
L 76.857376 311.469149 
L 76.923994 311.551711 
L 77.063892 311.808243 
L 77.137172 311.926188 
L 77.143834 311.790551 
L 77.170481 311.802345 
L 77.190467 311.646067 
L 77.20379 302.900392 
L 77.237099 219.509815 
L 77.317041 291.633626 
L 77.323703 291.692599 
L 77.383659 223.549456 
L 77.463601 273.823822 
L 77.596837 302.343098 
L 77.836663 307.432456 
L 78.269681 310.157002 
L 78.322975 310.251359 
L 78.656066 311.156592 
L 78.662728 311.138901 
L 78.709361 311.31287 
L 78.869244 311.581197 
L 79.009142 311.710937 
L 79.562073 312.262334 
L 80.048386 312.551301 
L 80.148313 312.548352 
L 80.154975 312.551301 
L 80.201608 312.592582 
L 80.234917 312.456944 
L 80.268226 312.542455 
L 80.561346 312.657452 
L 80.787847 312.763603 
L 80.90776 312.7695 
L 81.234189 312.793089 
L 81.354102 312.83437 
L 81.434044 312.725271 
L 81.474014 312.271179 
L 81.487338 310.87942 
L 81.580604 312.527711 
L 81.767134 312.763603 
L 81.867062 312.669246 
L 81.900371 312.545403 
L 81.966989 312.70463 
L 82.200152 312.822576 
L 82.206814 312.798987 
L 82.253447 312.46579 
L 82.320065 312.734116 
L 82.459963 312.83437 
L 82.719774 312.94347 
L 82.892981 312.958213 
L 83.032879 312.881549 
L 83.07285 312.940521 
L 83.58581 313.058467 
L 83.645767 312.9877 
L 83.712385 313.034878 
L 84.165388 312.949367 
L 84.185374 312.766552 
L 84.271977 312.990648 
L 84.39189 313.058467 
L 84.398552 313.046673 
L 84.531788 313.07439 
L 84.665024 313.126286 
L 84.678348 313.11862 
L 85.904122 313.22595 
L 86.07733 313.258975 
L 87.316427 313.229489 
L 87.343075 313.040775 
L 87.423016 313.222117 
L 87.689489 313.24836 
L 87.756107 312.810781 
L 87.816064 313.031929 
L 87.962624 313.200002 
L 88.175802 313.26959 
L 90.247627 313.176708 
L 90.280936 312.74886 
L 90.294259 309.667528 
L 90.387525 312.893343 
L 90.467466 313.086774 
L 90.507437 312.940521 
L 90.520761 312.949367 
L 90.527423 312.855011 
L 90.534085 312.810781 
L 90.607365 313.058467 
L 90.820543 313.210617 
L 90.967103 313.11803 
L 90.973765 313.067313 
L 91.06703 313.184964 
L 91.186943 313.241283 
L 92.119597 313.348024 
L 92.299466 313.368664 
L 92.53263 313.368664 
L 92.672528 313.280795 
L 92.699175 309.697014 
L 92.705837 307.512069 
L 92.799102 311.746321 
L 92.939 312.554249 
L 92.945662 312.480533 
L 93.01228 311.808243 
L 93.078898 312.285923 
L 93.3054 312.807833 
L 93.358695 311.713886 
L 93.445298 306.14095 
L 93.491931 309.673425 
L 93.6718 311.94388 
L 93.711771 311.855421 
L 94.384614 312.981802 
L 95.144062 313.196464 
L 95.28396 313.106235 
L 95.303945 313.034878 
L 95.383887 313.149285 
L 95.563756 313.046673 
L 95.590403 313.064364 
L 95.610389 312.686938 
L 95.623712 311.876061 
L 95.72364 220.158516 
L 95.790258 259.404957 
L 95.936818 303.72896 
L 96.13001 308.582427 
L 96.383159 310.269051 
L 96.476425 310.537377 
L 96.503072 310.328024 
L 96.516396 309.254718 
L 96.609661 310.31328 
L 96.622985 310.369305 
L 96.636308 310.298537 
L 96.656294 308.190257 
L 96.669617 303.652296 
L 96.762883 307.916034 
L 97.016032 310.210078 
L 97.049341 310.375202 
L 97.355785 311.318768 
L 97.602272 311.867215 
L 97.688875 311.961572 
L 97.81545 312.114901 
L 97.835435 312.055929 
L 97.928701 310.932495 
L 97.955348 309.387406 
L 98.048613 310.443021 
L 98.248468 311.271589 
L 98.335072 311.445559 
L 98.355057 311.286333 
L 98.421675 310.389945 
L 98.528264 310.646477 
L 98.62153 310.746731 
L 98.648177 310.637631 
L 98.734781 309.189847 
L 98.834708 309.823806 
L 98.941297 310.304435 
L 98.95462 310.080338 
L 98.974606 294.995079 
L 99.067871 131.433844 
L 99.141151 197.48345 
L 99.281049 300.626988 
L 99.46758 306.571452 
L 99.694082 308.821267 
L 100.220366 310.469559 
L 100.500162 310.997366 
L 100.653384 311.280435 
L 100.693355 311.371843 
L 100.899871 311.696194 
L 101.732598 312.374382 
L 101.73926 312.303615 
L 101.805878 310.885317 
L 101.825863 302.107207 
L 101.939114 305.698654 
L 101.985747 306.748371 
L 102.025718 305.955186 
L 102.085674 300.214178 
L 102.152292 302.366687 
L 102.265543 305.218025 
L 102.51203 308.523454 
L 102.785165 309.753038 
L 103.504641 311.380689 
L 103.511303 311.374792 
L 103.677848 311.551711 
L 103.844394 311.755167 
L 103.990954 311.849524 
L 104.137514 312.061826 
L 104.157499 312.044134 
L 104.49059 312.215155 
L 104.497252 312.203361 
L 104.503913 312.191566 
L 104.56387 312.277077 
L 104.577193 312.268231 
L 104.71043 312.395022 
L 105.030197 312.480533 
L 105.096815 312.533609 
L 105.15011 312.515917 
L 105.349964 312.57489 
L 105.356626 312.551301 
L 105.376611 312.471687 
L 105.423244 312.203361 
L 105.496524 312.338998 
L 105.683055 312.57489 
L 105.696379 312.566044 
L 105.982837 312.675144 
L 106.042793 312.663349 
L 106.049455 312.610273 
L 106.14272 311.368895 
L 106.262633 311.53107 
L 106.295942 311.545813 
L 106.309266 311.613632 
L 106.315927 311.619529 
L 106.848873 312.35669 
L 106.922153 312.333101 
L 106.962124 312.350793 
L 107.055389 312.327204 
L 107.082036 312.380279 
L 107.281891 312.545403 
L 107.288553 312.521814 
L 107.888116 312.415663 
L 107.921425 312.456944 
L 107.968058 312.179772 
L 108.041338 309.956495 
L 108.141265 310.66122 
L 108.361105 311.424919 
L 108.907374 312.179772 
L 109.013963 312.203361 
L 109.020625 312.215155 
L 109.300421 312.507071 
L 109.307083 312.489379 
L 109.353716 312.57489 
L 109.393687 312.545403 
L 109.506938 312.604376 
L 109.520261 312.598479 
L 109.606865 312.619119 
L 109.533585 312.616171 
L 109.613527 312.633863 
L 109.666821 312.707579 
L 109.726777 312.63976 
L 109.813381 312.751808 
L 109.853352 312.70463 
L 109.893323 312.681041 
L 109.953279 312.745911 
L 109.986588 312.751808 
L 110.033221 312.698733 
L 110.053206 312.698733 
L 110.186443 312.707579 
L 110.193105 312.716425 
L 110.372974 312.772449 
L 110.792668 312.846165 
L 110.865948 312.816678 
L 110.912581 312.857959 
L 111.105773 312.902189 
L 111.232348 312.846165 
L 111.305628 312.843216 
L 111.332275 312.801935 
L 111.412217 312.781295 
L 111.445526 312.807833 
L 111.645381 312.790141 
L 111.658704 312.716425 
L 111.75197 312.781295 
L 111.945162 312.816678 
L 112.151679 312.837319 
L 112.15834 312.793089 
L 112.264929 312.580787 
L 112.291577 312.616171 
L 112.351533 312.625017 
L 112.331548 312.57489 
L 112.364857 312.551301 
L 112.391504 311.525173 
L 112.424813 305.583657 
L 112.504755 309.352023 
L 112.657977 310.528531 
L 112.737918 310.817498 
L 112.757904 310.646477 
L 112.771228 310.065594 
L 112.837846 273.057174 
L 112.904464 294.051513 
L 113.064347 307.007851 
L 113.250878 309.307793 
L 113.630602 310.740834 
L 114.323431 311.766962 
L 114.330093 311.761064 
L 114.496638 311.861318 
L 114.609889 311.896702 
L 114.616551 311.890805 
L 114.64986 311.920291 
L 114.696492 311.784653 
L 114.703154 311.790551 
L 114.803081 310.92365 
L 114.8697 309.207539 
L 114.929656 309.584966 
L 115.102863 310.157002 
L 115.269409 310.443021 
L 115.282732 310.434175 
L 115.529219 310.894163 
L 115.729074 311.318768 
L 115.782368 311.306973 
L 115.855648 311.40133 
L 116.028856 311.548762 
L 116.075488 311.584146 
L 116.042179 311.5753 
L 116.102136 311.631324 
L 116.44855 311.710937 
L 116.588448 311.890805 
L 116.695037 311.991058 
L 116.861583 312.126696 
L 117.128055 312.221053 
L 117.294601 312.020545 
L 117.307924 312.038237 
L 117.314586 312.044134 
L 117.334572 311.967469 
L 117.407852 310.572761 
L 117.427837 308.591273 
L 117.521103 309.761884 
L 117.62103 310.286743 
L 117.787575 310.98852 
L 117.820884 311.091722 
L 118.327182 311.94388 
L 118.333844 311.932086 
L 118.413786 312.014648 
L 118.547022 312.120799 
L 118.713568 312.265282 
L 118.83348 312.333101 
L 119.159909 312.515917 
L 119.173233 312.46579 
L 119.259837 312.563095 
L 119.366426 312.586684 
L 119.373087 312.59553 
L 119.526309 312.645657 
L 119.632898 312.568992 
L 119.572942 312.669246 
L 119.646222 312.627965 
L 119.766135 312.701681 
L 119.772796 312.68399 
L 119.852738 312.333101 
L 119.899371 312.256436 
L 119.972651 312.285923 
L 120.105887 312.309512 
L 120.232462 312.179772 
L 120.312404 312.274128 
L 120.805378 312.374382 
L 120.965262 312.471687 
L 120.971923 312.462841 
L 121.078512 312.480533 
L 121.085174 312.48643 
L 121.238396 312.480533 
L 121.245058 312.492328 
L 121.831298 312.389125 
L 121.977858 311.383638 
L 122.091109 311.525173 
L 122.377567 311.867215 
L 122.384228 311.837729 
L 122.46417 311.528121 
L 122.490818 309.101388 
L 122.504141 305.964032 
L 122.597407 308.768191 
L 122.75729 310.130465 
L 122.83057 310.407637 
L 122.863879 310.121619 
L 122.883865 309.850343 
L 122.970468 310.157002 
L 123.150337 310.793909 
L 123.216955 310.929547 
L 123.403486 311.301076 
L 123.410148 311.289281 
L 123.463443 311.362997 
L 123.470105 311.383638 
L 123.736577 311.802345 
L 123.776548 311.837729 
L 123.803195 311.365946 
L 123.823181 307.786293 
L 123.849828 275.710953 
L 123.936432 302.01285 
L 124.102977 307.839369 
L 124.449392 309.81496 
L 124.575966 310.121619 
L 124.729188 310.652374 
L 124.815791 310.876471 
L 125.255471 311.59594 
L 125.275457 311.551711 
L 125.322089 311.678502 
L 125.348737 311.678502 
L 125.615209 311.932086 
L 125.708475 312.026442 
L 125.821726 312.103107 
L 125.835049 312.085415 
L 125.974947 312.173874 
L 126.174802 312.280025 
L 126.348009 312.389125 
L 126.354671 312.380279 
L 126.361333 312.35669 
L 126.434613 312.46579 
L 126.447936 312.451047 
L 126.587835 312.515917 
L 126.707747 312.515917 
L 126.714409 312.545403 
L 126.741056 312.492328 
L 126.860969 312.527711 
L 127.054162 312.109004 
L 127.094133 312.297717 
L 127.220707 312.42156 
L 127.280663 312.321306 
L 127.34062 311.295179 
L 127.407238 311.734526 
L 127.693696 312.265282 
L 127.953507 312.515917 
L 128.080081 312.533609 
L 128.126714 312.604376 
L 128.199994 312.560147 
L 128.29326 312.456944 
L 128.319907 312.197463 
L 128.419834 312.265282 
L 128.47979 312.285923 
L 128.519761 312.232847 
L 128.546409 312.221053 
L 128.606365 312.285923 
L 128.84619 312.489379 
L 128.852852 312.477584 
L 128.872838 312.542455 
L 128.926132 312.566044 
L 129.192605 312.669246 
L 129.345827 312.692835 
L 129.425768 312.742962 
L 129.43243 312.760654 
L 129.678917 312.846165 
L 129.845463 312.610273 
L 129.878772 312.663349 
L 130.078626 312.819627 
L 130.118597 312.318358 
L 130.138583 311.690297 
L 130.225186 312.412714 
L 130.258495 312.483482 
L 130.365084 311.410176 
L 130.471673 297.737317 
L 130.418379 311.604786 
L 130.538292 305.940443 
L 130.571601 307.349894 
L 130.598248 304.899572 
L 130.60491 302.944621 
L 130.698175 306.418123 
L 130.784779 307.677193 
L 130.798102 307.052081 
L 130.818088 296.705292 
L 130.911353 305.389046 
L 131.164502 309.136772 
L 131.324386 309.965341 
L 131.344371 309.475866 
L 131.357695 305.271101 
L 131.404328 256.220422 
L 131.477608 290.572115 
L 131.624168 305.032261 
L 131.837346 308.585376 
L 131.923949 309.110234 
L 132.117142 310.148156 
L 132.943207 312.067723 
L 132.949869 312.061826 
L 133.089767 312.167977 
L 133.522785 312.409766 
L 133.549433 312.433355 
L 133.57608 312.203361 
L 133.596065 311.734526 
L 133.689331 312.120799 
L 133.862538 312.456944 
L 134.002436 312.548352 
L 134.009098 312.542455 
L 134.45544 312.728219 
L 134.462101 312.698733 
L 134.488749 311.51043 
L 134.562029 282.84667 
L 134.608661 306.002364 
L 134.761883 310.844036 
L 134.93509 311.802345 
L 134.941752 311.681451 
L 134.975061 308.210898 
L 135.061665 310.260205 
L 135.328138 311.94388 
L 135.567963 312.29182 
L 135.581287 312.259385 
L 135.59461 311.973367 
L 135.687876 312.285923 
L 135.841097 312.468739 
L 135.88773 312.474636 
L 135.854421 312.480533 
L 135.927701 312.515917 
L 136.134217 312.710527 
L 136.18085 312.607325 
L 136.214159 312.598479 
L 136.25413 312.678092 
L 136.380705 312.757706 
L 136.394028 312.645657 
L 136.453985 312.810781 
L 136.480632 312.810781 
L 136.573897 312.539506 
L 136.580559 312.474636 
L 136.660501 312.775397 
L 136.733781 312.810781 
L 136.747104 312.843216 
L 136.873679 312.89924 
L 137.140152 312.990648 
L 137.366653 313.005392 
L 137.49989 313.031929 
L 137.599817 312.816678 
L 137.686421 312.999494 
L 137.826319 313.064364 
L 138.072806 313.16167 
L 138.079468 313.149285 
L 138.292646 313.149285 
L 138.405897 313.181131 
L 138.425882 313.165798 
L 138.965489 313.070557 
L 138.978813 312.975905 
L 139.058755 313.169631 
L 139.065417 313.169631 
L 139.305242 313.106235 
L 139.365198 310.820447 
L 139.378522 310.947239 
L 139.391846 293.432298 
L 139.485111 311.937983 
L 139.651656 312.801935 
L 139.758245 312.89924 
L 139.771569 311.554659 
L 139.784893 293.25538 
L 139.878158 311.649016 
L 139.944776 312.215155 
L 139.951438 311.840678 
L 139.9581 310.1629 
L 140.058027 312.014648 
L 140.291191 312.840268 
L 140.297853 312.828473 
L 140.830798 313.082646 
L 140.844121 313.026032 
L 140.884092 312.453995 
L 140.964034 312.852062 
L 141.103932 313.061416 
L 141.117256 313.058467 
L 141.250492 312.970008 
L 141.39039 312.521814 
L 141.397052 312.613222 
L 141.543612 312.970008 
L 141.550274 312.952316 
L 141.603569 313.005392 
L 141.643539 312.999494 
L 142.156499 313.133952 
L 142.229779 312.492328 
L 142.303059 312.843216 
L 142.48959 313.031929 
L 142.616165 313.07439 
L 142.676121 313.040775 
L 142.682783 313.058467 
L 142.696106 311.799397 
L 142.789372 312.863857 
L 143.322317 313.188797 
L 143.715364 313.079697 
L 143.728688 312.887446 
L 143.821953 313.149285 
L 144.261633 313.255437 
L 144.381546 313.241283 
L 145.121008 313.137786 
L 145.180964 313.011289 
L 145.227597 313.149285 
L 145.454098 313.255437 
L 145.653953 313.26959 
L 145.920425 313.299076 
L 145.980382 313.26959 
L 146.040338 313.31323 
L 146.213545 313.262513 
L 146.26684 312.259385 
L 146.333458 312.949367 
L 146.48668 313.188797 
L 146.713182 313.284923 
L 146.793123 313.26959 
L 146.826433 313.284923 
L 147.012963 313.327383 
L 148.005574 313.266347 
L 148.125487 311.902599 
L 148.172119 312.48643 
L 148.272047 312.911035 
L 148.312018 312.740014 
L 148.338665 312.622068 
L 148.411945 312.837319 
L 148.771683 313.141914 
L 148.87161 313.149285 
L 148.878272 313.165208 
L 149.011508 313.196464 
L 149.271319 313.133952 
L 149.38457 311.578248 
L 149.404555 305.521735 
L 149.504483 310.360459 
L 149.577763 311.625427 
L 149.597748 311.224411 
L 149.611072 304.448429 
L 149.704337 310.298537 
L 149.924177 311.985161 
L 149.977472 312.16208 
L 150.183988 312.607325 
L 150.19065 312.598479 
L 150.250606 312.692835 
L 150.33721 312.757706 
L 150.350533 312.716425 
L 150.423813 311.743372 
L 150.490431 312.150285 
L 151.043362 312.905138 
L 151.309835 313.002443 
L 151.343144 313.031929 
L 151.396439 312.94347 
L 151.429748 312.913984 
L 151.489704 312.993597 
L 152.115915 313.102107 
L 152.28246 313.137786 
L 152.508962 313.130119 
L 152.782096 313.181131 
L 152.788758 313.165798 
L 154.787303 313.255437 
L 154.860583 313.299076 
L 154.907216 313.284923 
L 161.262588 313.177003 
L 161.289236 313.118325 
L 161.355854 313.262808 
L 161.409148 313.309692 
L 161.462443 313.237155 
L 161.569032 312.085415 
L 161.622327 306.512479 
L 161.70893 308.05462 
L 161.908785 311.407227 
L 162.095316 312.203361 
L 162.155272 312.303615 
L 162.315155 312.527711 
L 162.428406 312.627965 
L 162.601614 312.810781 
L 162.608275 312.807833 
L 162.788144 312.911035 
L 162.95469 312.981802 
L 163.10125 312.999494 
L 163.447664 313.110363 
L 163.607548 313.133952 
L 164.600158 313.241283 
L 164.726733 313.251898 
L 164.986544 313.233617 
L 165.159751 313.277551 
L 165.299649 313.288461 
L 165.452871 313.299076 
L 165.599431 313.299076 
L 167.398121 313.19263 
L 167.564667 312.740014 
L 167.65127 312.849114 
L 167.897758 312.999494 
L 168.23751 313.106235 
L 168.397394 313.137786 
L 168.583925 313.153414 
L 168.930339 313.244821 
L 169.143517 313.255437 
L 171.681669 313.365126 
L 171.894847 313.354511 
L 172.501073 313.262808 
L 172.547705 313.188797 
L 172.594338 313.244821 
L 173.107298 313.341537 
L 174.439661 313.241283 
L 174.486294 313.046673 
L 174.659501 311.130055 
L 174.672825 311.047493 
L 174.746105 311.306973 
L 174.779414 311.430816 
L 174.812723 311.100568 
L 174.846032 310.72609 
L 174.925974 311.006212 
L 174.959283 310.811601 
L 174.979268 310.708399 
L 175.039225 310.970828 
L 175.299035 312.091312 
L 175.392301 312.321306 
L 175.412286 312.07362 
L 175.438934 309.558428 
L 175.445595 308.317049 
L 175.538861 310.731988 
L 175.798672 311.991058 
L 176.118439 312.568992 
L 176.125101 312.557198 
L 176.191719 312.533609 
L 176.218366 310.72609 
L 176.238352 263.709976 
L 176.331617 304.171257 
L 176.498162 308.703321 
L 176.74465 310.157002 
L 176.757973 309.927008 
L 176.791282 306.819138 
L 176.904533 308.995237 
L 177.157682 310.322126 
L 177.237624 310.611093 
L 177.457464 311.250949 
L 177.51742 311.386587 
L 177.530744 311.165438 
L 177.557391 306.497736 
L 177.577377 299.418044 
L 177.66398 306.9017 
L 177.897144 309.57612 
L 178.083675 310.245462 
L 178.110322 309.947649 
L 178.163616 306.135053 
L 178.183602 301.157743 
L 178.270206 306.807344 
L 178.496707 309.540736 
L 178.83646 310.752628 
L 178.956373 311.138901 
L 178.989682 311.100568 
L 179.016329 310.552121 
L 179.029653 304.557529 
L 179.049638 263.562543 
L 179.136242 297.000157 
L 179.296125 306.712987 
L 179.475994 308.541146 
L 179.529289 308.830113 
L 179.855718 310.260205 
L 179.902351 310.425329 
L 179.922336 310.130465 
L 179.962307 309.237026 
L 180.055572 309.708809 
L 180.435296 310.776217 
L 180.481929 310.870574 
L 180.768387 311.702091 
L 180.775048 311.684399 
L 180.968241 311.843626 
L 180.974903 311.781705 
L 181.028197 309.092542 
L 181.161434 310.086235 
L 181.36795 310.72609 
L 181.601114 311.215565 
L 181.994161 311.710937 
L 182.280619 311.908496 
L 182.880182 312.303615 
L 182.886844 312.280025 
L 182.966786 312.350793 
L 182.986771 312.333101 
L 183.113346 312.374382 
L 183.293215 312.480533 
L 183.49307 312.277077 
L 183.553026 311.761064 
L 183.632968 311.902599 
L 184.11928 312.303615 
L 184.125942 312.285923 
L 184.159251 311.103517 
L 184.179237 309.378561 
L 184.272502 310.192386 
L 184.439047 310.94429 
L 184.63224 311.419022 
L 185.178509 312.238744 
L 185.185171 312.191566 
L 185.251789 309.234077 
L 185.265113 302.018747 
L 185.358378 308.511659 
L 185.418334 309.22818 
L 185.43832 308.446789 
L 185.524924 299.300098 
L 185.618189 301.894904 
L 185.811382 291.574653 
L 185.891323 228.562149 
L 185.937956 269.518803 
L 186.077854 299.565476 
L 186.124487 300.744933 
L 186.164458 298.975748 
L 186.197767 287.033743 
L 186.264385 300.214178 
L 186.444254 305.754678 
L 186.770683 308.638451 
L 186.790669 308.479224 
L 186.817316 307.128746 
L 186.877272 293.609217 
L 186.937229 302.363739 
L 187.097112 306.960673 
L 187.330276 308.965751 
L 187.543454 309.369715 
L 187.590087 309.57612 
L 187.663367 309.806114 
L 187.67669 309.475866 
L 187.709999 307.24964 
L 187.803265 309.004083 
L 188.009781 309.985981 
L 188.016443 309.974186 
L 188.063076 310.086235 
L 188.209635 310.472507 
L 188.509417 311.194925 
L 188.516079 311.186079 
L 188.562712 311.31287 
L 188.576035 310.953136 
L 188.596021 308.364227 
L 188.609344 303.811522 
L 188.682624 308.482173 
L 188.70261 306.842727 
L 188.835846 309.237026 
L 189.162275 310.664169 
L 189.58197 311.475046 
L 189.601955 311.345306 
L 189.621941 309.590863 
L 189.641926 265.744539 
L 189.735191 305.506992 
L 189.808471 307.585786 
L 189.828457 306.627476 
L 189.84178 301.039798 
L 189.941708 305.66327 
L 190.248151 309.584966 
L 190.268137 308.824216 
L 190.274799 306.182231 
L 190.374726 309.567274 
L 190.514624 310.363407 
L 190.527948 310.171746 
L 190.567918 307.500275 
L 190.581242 307.72732 
L 190.667846 276.330168 
L 190.714478 298.179614 
L 190.881024 306.606836 
L 191.027584 308.252179 
L 191.060893 307.57694 
L 191.067555 307.373483 
L 191.147496 308.308203 
L 191.294056 309.343177 
L 191.513896 310.354561 
L 192.346623 312.002853 
L 192.359947 311.967469 
L 192.379932 312.055929 
L 192.513169 312.138491 
L 192.693038 312.238744 
L 192.819612 312.297717 
L 192.826274 312.29182 
L 193.006143 312.386177 
L 193.152703 312.451047 
L 193.159365 312.439252 
L 193.245969 312.297717 
L 193.279278 312.35669 
L 193.592383 312.521814 
L 193.612369 312.392074 
L 193.625692 305.147258 
L 193.725619 311.643118 
L 193.872179 312.268231 
L 193.885503 312.265282 
L 193.998754 312.42156 
L 194.145314 312.533609 
L 194.245241 312.551301 
L 194.258565 312.504122 
L 194.271888 312.445149 
L 194.35183 312.560147 
L 194.358492 312.557198 
L 194.365154 312.560147 
L 194.378477 312.459893 
L 194.42511 312.309512 
L 194.485066 312.480533 
L 194.49839 312.501174 
L 194.505052 312.347844 
L 194.518376 307.668348 
L 194.525037 293.904081 
L 194.624965 310.496096 
L 194.798172 312.038237 
L 194.838143 312.126696 
L 194.851466 311.961572 
L 194.878114 310.997366 
L 194.958055 311.94388 
L 195.144586 312.338998 
L 195.251175 312.433355 
L 195.37775 312.51002 
L 195.417721 312.480533 
L 195.477677 312.551301 
L 195.737488 312.645657 
L 195.804106 312.681041 
L 195.830753 312.613222 
L 195.870724 312.00875 
L 195.950666 312.445149 
L 196.070579 312.551301 
L 196.430317 312.745911 
L 196.436979 312.734116 
L 196.51692 312.728219 
L 196.55023 312.74886 
L 196.670142 312.781295 
L 196.676804 312.772449 
L 196.836688 312.810781 
L 196.843349 312.781295 
L 196.876659 310.64058 
L 196.9566 312.409766 
L 197.163117 312.740014 
L 197.369633 312.778346 
L 197.382957 312.424509 
L 197.476222 312.728219 
L 197.509531 312.745911 
L 197.522855 312.669246 
L 197.569487 312.678092 
L 197.662753 312.787192 
L 197.869269 312.896292 
L 197.875931 312.887446 
L 197.962535 312.887446 
L 197.989182 312.92283 
L 198.109095 312.940521 
L 198.268978 312.984751 
L 198.328934 313.017186 
L 198.375567 312.630914 
L 198.388891 312.309512 
L 198.482156 312.775397 
L 198.64204 312.934624 
L 198.748629 312.92283 
L 198.755291 312.940521 
L 198.928498 312.984751 
L 199.368178 313.058467 
L 200.227552 313.046673 
L 200.240876 312.344896 
L 200.340803 312.990648 
L 200.593952 313.16167 
L 200.66057 313.11862 
L 200.700541 313.173464 
L 200.867086 313.196169 
L 201.086926 313.196464 
L 201.166868 313.090607 
L 201.213501 312.881549 
L 201.280119 313.067313 
L 201.433341 313.141619 
L 201.440003 313.133952 
L 201.606548 313.16167 
L 201.893006 313.200002 
L 201.932977 310.905958 
L 202.019581 312.663349 
L 202.079537 312.865823 
L 202.099523 312.716425 
L 202.112846 309.437533 
L 202.206112 312.474636 
L 202.485908 313.031929 
L 202.499231 313.023083 
L 202.605821 312.622068 
L 202.63913 312.678092 
L 202.82566 313.05257 
L 202.832322 313.014238 
L 202.93225 313.078518 
L 203.232031 313.149285 
L 203.291988 312.592582 
L 203.365268 312.964111 
L 203.85158 313.137786 
L 203.864904 313.082646 
L 203.92486 312.863857 
L 203.984817 313.005392 
L 203.99814 312.993597 
L 204.21798 313.133952 
L 204.264613 313.141619 
L 204.317907 311.631324 
L 204.404511 312.504122 
L 204.444482 312.622068 
L 204.497776 312.40092 
L 204.517762 312.315409 
L 204.564395 312.527711 
L 204.784234 312.822576 
L 204.80422 312.793089 
L 204.8775 312.890395 
L 204.95078 312.70463 
L 204.897485 312.916932 
L 205.02406 312.869754 
L 205.856787 313.153414 
L 205.863449 313.133952 
L 205.930067 313.110363 
L 205.9767 313.149285 
L 206.103274 313.137786 
L 206.23651 313.173169 
L 206.363085 313.20354 
L 206.489659 313.22595 
L 206.709499 313.22595 
L 208.501528 313.137786 
L 208.561484 313.102402 
L 208.594793 313.188797 
L 208.794648 313.258975 
L 209.214342 313.068787 
L 209.267637 312.678092 
L 209.327593 312.961162 
L 209.487477 313.173169 
L 209.674008 313.22595 
L 209.820568 313.126286 
L 209.827229 313.110363 
L 209.887186 313.19263 
L 209.907171 313.200002 
L 210.027084 313.229783 
L 211.246196 313.33446 
L 211.372771 313.327383 
L 211.379433 313.320307 
L 211.399418 313.33446 
L 211.492684 313.327383 
L 211.685876 313.323845 
L 211.6992 313.299076 
L 211.725847 313.341537 
L 211.792465 313.341537 
L 212.904989 313.244821 
L 212.938298 313.149285 
L 213.018239 313.23745 
L 213.13149 313.244821 
L 213.144814 313.258975 
L 213.331345 313.299076 
L 213.537861 313.299076 
L 213.651112 313.320307 
L 213.657774 313.31323 
L 213.810996 313.327383 
L 213.850966 313.20354 
L 213.904261 312.504122 
L 213.977541 312.928727 
L 214.197381 313.22595 
L 214.204043 313.218284 
L 214.37725 313.266347 
L 214.497163 313.277257 
L 216.455737 313.196169 
L 216.489046 313.086774 
L 216.568988 313.184964 
L 216.695562 313.255437 
L 216.882093 313.28109 
L 217.068624 313.210912 
L 217.121918 312.852062 
L 217.155227 312.397971 
L 217.241831 312.713476 
L 217.381729 312.462841 
L 217.401715 312.483482 
L 217.56826 312.781295 
L 217.574922 312.775397 
L 217.808085 313.002443 
L 217.821409 312.993597 
L 217.914674 313.071441 
L 218.074558 313.126286 
L 218.194471 313.137786 
L 218.201133 313.145452 
L 218.5209 313.218284 
L 218.687445 313.24836 
L 218.967241 313.273423 
L 219.193743 313.058467 
L 219.247038 311.973367 
L 219.320318 312.557198 
L 219.413583 312.772449 
L 219.433569 312.613222 
L 219.466878 311.398381 
L 219.520172 305.90211 
L 219.580129 309.325485 
L 219.786645 311.991058 
L 220.059779 312.551301 
L 220.193016 312.616171 
L 220.199677 312.586684 
L 220.252972 312.480533 
L 220.332914 312.57489 
L 220.479474 312.698733 
L 220.486136 312.686938 
L 220.532768 312.740014 
L 220.579401 312.740014 
L 220.785917 312.881549 
L 221.312201 313.017186 
L 221.438775 312.875651 
L 221.458761 312.887446 
L 221.838484 312.9877 
L 221.85847 312.975905 
L 221.985044 313.026032 
L 222.118281 313.026032 
L 222.55796 313.106235 
L 222.664549 313.11862 
L 222.677873 313.133952 
L 222.784462 313.153414 
L 222.697859 313.122158 
L 222.791124 313.145747 
L 222.811109 313.157542 
L 223.090906 312.507071 
L 223.150862 310.112773 
L 223.244127 311.339408 
L 223.417335 312.114901 
L 223.637175 312.445149 
L 223.790396 312.598479 
L 223.890324 312.51002 
L 223.956942 311.480943 
L 223.990251 310.90006 
L 224.070193 311.212617 
L 224.310018 312.067723 
L 224.589814 312.451047 
L 224.75636 312.610273 
L 225.022832 312.521814 
L 225.149407 311.932086 
L 225.242672 312.085415 
L 225.349261 312.173874 
L 225.48916 312.327204 
L 226.26193 312.881549 
L 226.381843 312.863857 
L 226.62833 312.937573 
L 226.861494 312.955265 
L 227.134628 313.058467 
L 227.301174 313.046673 
L 227.427748 313.046673 
L 227.43441 313.040775 
L 227.667574 313.05257 
L 227.894075 313.110363 
L 229.646133 313.21445 
L 229.726075 313.22595 
L 229.74606 313.173464 
L 229.9659 311.581197 
L 230.079151 311.849524 
L 230.272344 312.209258 
L 230.592111 312.554249 
L 230.732009 312.610273 
L 231.125056 312.810781 
L 231.264954 312.710527 
L 231.291602 311.501584 
L 231.311587 305.90211 
L 231.404852 309.744192 
L 231.851194 311.979264 
L 231.857856 311.967469 
L 231.891165 312.038237 
L 231.931136 312.055929 
L 232.777187 312.663349 
L 232.963718 312.63976 
L 232.983703 312.627965 
L 233.070307 312.610273 
L 233.096954 312.539506 
L 233.136925 311.59594 
L 233.15691 309.929957 
L 233.256837 310.569812 
L 233.45003 311.539916 
L 233.456692 311.525173 
L 233.763135 312.120799 
L 234.389346 312.527711 
L 234.555892 312.616171 
L 234.702452 312.740014 
L 235.088837 312.837319 
L 235.215411 312.905138 
L 235.222073 312.881549 
L 235.335324 312.751808 
L 235.415266 312.843216 
L 235.555164 312.875651 
L 235.768342 312.896292 
L 235.941549 312.981802 
L 235.954873 312.970008 
L 236.108095 313.005392 
L 236.234669 313.055519 
L 236.241331 313.046673 
L 236.381229 313.070262 
L 237.147338 312.961162 
L 237.200633 312.672195 
L 237.307222 312.7695 
L 237.427134 312.810781 
L 237.753563 312.902189 
L 237.760225 312.925778 
L 237.773549 312.819627 
L 237.780211 312.583736 
L 237.806858 176.548084 
L 237.893462 302.452198 
L 238.066669 309.281255 
L 238.073331 309.263563 
L 238.10664 308.343587 
L 238.173258 309.369715 
L 238.346465 310.785063 
L 238.579629 311.649016 
L 238.599614 311.554659 
L 238.832778 306.329664 
L 238.899396 307.753858 
L 239.039294 309.07485 
L 239.065941 309.033569 
L 239.345738 310.796858 
L 239.445665 311.18313 
L 239.638857 311.66081 
L 239.805403 311.937983 
L 239.812065 311.896702 
L 239.838712 311.831832 
L 239.911992 311.955675 
L 240.111846 312.173874 
L 240.764704 312.604376 
L 240.997868 312.51002 
L 241.044501 312.197463 
L 241.057824 309.602657 
L 241.15109 311.74927 
L 241.37093 312.232847 
L 241.490842 312.333101 
L 241.66405 312.489379 
L 241.790624 312.527711 
L 241.797286 312.548352 
L 242.083744 312.675144 
L 242.090406 312.580787 
L 242.190333 312.675144 
L 242.370202 312.533609 
L 242.550071 308.107695 
L 242.556733 305.79301 
L 242.649998 310.560966 
L 242.736602 311.368895 
L 242.743264 311.091722 
L 242.776573 300.626988 
L 242.889824 307.237846 
L 243.103002 310.050851 
L 243.6093 312.144388 
L 243.68258 312.253488 
L 244.142245 312.681041 
L 244.322114 312.719373 
L 245.26143 313.017186 
L 245.348034 313.078518 
L 245.507918 313.141619 
L 245.641154 313.149285 
L 245.92095 313.19263 
L 245.954259 313.222117 
L 246.047525 313.210617 
L 246.267365 313.22595 
L 246.274027 313.210617 
L 246.280688 313.240988 
L 246.373954 313.255437 
L 246.560485 313.292 
L 246.733692 313.309692 
L 246.860266 313.327383 
L 247.060121 313.337704 
L 247.206681 313.361588 
L 247.359903 313.351267 
L 247.499801 313.368664 
L 247.772935 313.395792 
L 247.89951 313.422919 
L 248.112688 313.412599 
L 248.245924 313.429407 
L 248.405808 313.43265 
L 248.505735 313.46479 
L 248.512397 313.473636 
L 248.652295 313.458598 
L 249.658229 313.511674 
L 249.691538 310.796858 
L 249.778142 313.086479 
L 249.924702 313.361588 
L 250.031291 313.251603 
L 250.077924 313.169631 
L 250.124556 313.302615 
L 250.444324 313.483367 
L 250.770753 313.439137 
L 250.970607 313.480123 
L 252.729327 313.372203 
L 252.755974 313.011289 
L 252.829254 313.405522 
L 253.335552 313.542045 
L 253.462126 313.511379 
L 253.468788 313.527301 
L 253.648657 313.539096 
L 256.020264 313.442381 
L 256.026926 313.419086 
L 256.106867 313.511379 
L 256.113529 313.511379 
L 256.213456 313.442086 
L 256.273413 313.102107 
L 256.326707 313.341242 
L 256.473267 313.47688 
L 256.626489 313.505481 
L 256.966242 313.544993 
L 256.986227 313.301435 
L 257.006213 312.341947 
L 257.092816 313.395792 
L 257.2527 313.480123 
L 257.39926 313.48661 
L 260.437048 313.382818 
L 260.44371 313.372203 
L 260.497004 313.467444 
L 260.51699 313.461252 
L 260.616917 313.461842 
L 260.636902 313.499584 
L 261.023288 313.550891 
L 261.269775 313.562685 
L 264.740581 313.464495 
L 264.813861 313.133952 
L 264.873818 313.251898 
L 264.953759 313.334165 
L 265.080334 313.514622 
L 265.973017 313.435894 
L 265.986341 313.368664 
L 266.066283 313.514622 
L 266.226166 313.556788 
L 266.625875 313.61753 
L 266.892348 313.629325 
L 267.138835 313.609569 
L 267.365337 313.559737 
L 271.728827 313.499289 
L 271.795445 313.102402 
L 271.848739 313.31323 
L 272.088565 313.48661 
L 272.301743 313.499584 
L 272.321728 313.412304 
L 272.414994 313.455355 
L 272.601525 313.48661 
L 272.821365 313.502533 
L 273.20775 313.404343 
L 273.267706 313.295538 
L 273.314339 313.435894 
L 274.573422 313.542045 
L 274.733306 313.544993 
L 274.893189 313.550891 
L 275.179648 313.556788 
L 276.312156 313.458303 
L 276.39876 313.295538 
L 276.445393 313.395792 
L 276.698542 313.493097 
L 276.818454 313.50843 
L 277.044956 313.524353 
L 277.371385 313.550891 
L 277.564578 313.527301 
L 279.942846 313.458598 
L 279.95617 313.386061 
L 280.042773 313.50843 
L 280.422497 313.556788 
L 280.728941 313.539096 
L 280.928795 313.571531 
L 282.434365 313.538801 
L 282.48766 312.949367 
L 282.554278 313.299076 
L 282.727485 313.467739 
L 282.734147 313.46479 
L 282.874045 313.496341 
L 284.959194 313.606915 
L 285.23899 313.601018 
L 288.936298 313.526122 
L 288.976269 310.761474 
L 288.996255 306.22941 
L 289.08952 309.894573 
L 289.282713 311.707989 
L 289.655774 312.740014 
L 289.74904 312.840268 
L 289.908923 312.972957 
L 290.008851 313.023083 
L 290.355265 313.196169 
L 290.428545 313.07439 
L 290.475178 313.126286 
L 290.66837 313.24836 
L 290.794945 313.157542 
L 290.894872 312.533609 
L 291.001461 312.695784 
L 291.374523 312.740014 
L 291.501097 312.592582 
L 291.514421 312.604376 
L 291.707614 312.810781 
L 292.120646 313.040775 
L 292.193926 312.94347 
L 292.247221 313.017186 
L 292.533679 313.125991 
L 292.633606 312.89924 
L 292.693563 313.011289 
L 292.893417 313.145452 
L 293.053301 313.125991 
L 293.126581 313.023083 
L 293.313112 311.047493 
L 293.346421 297.177075 
L 293.446348 304.766883 
L 293.619555 309.201642 
L 294.199133 311.702091 
L 294.219119 311.702091 
L 294.259089 311.784653 
L 294.379002 311.937983 
L 294.405649 311.914394 
L 294.485591 311.643118 
L 294.545548 311.743372 
L 294.745402 312.09721 
L 294.752064 312.085415 
L 294.758726 312.07362 
L 294.81202 312.203361 
L 294.838667 312.215155 
L 294.878638 312.29182 
L 294.8853 312.282974 
L 295.085155 312.468739 
L 295.125126 312.42156 
L 295.265024 312.327204 
L 295.298333 311.843626 
L 295.32498 306.922341 
L 295.338304 303.873444 
L 295.431569 308.039877 
L 295.658071 310.389945 
L 295.957853 311.637221 
L 296.024471 311.72568 
L 296.244311 312.103107 
L 296.330914 312.22695 
L 296.3509 312.055929 
L 296.384209 311.147746 
L 296.49746 248.436004 
L 296.544092 280.635187 
L 296.697314 305.689808 
L 296.903831 308.440892 
L 297.456761 310.434175 
L 297.503394 310.501994 
L 297.596659 310.174694 
L 297.629969 310.277897 
L 297.703248 310.501994 
L 297.863132 311.171336 
L 298.196223 311.610683 
L 298.269503 311.70504 
L 298.302812 311.587094 
L 298.356106 310.817498 
L 298.36943 309.298947 
L 298.469357 310.00957 
L 298.496005 310.059697 
L 298.542637 309.912265 
L 298.595932 309.779576 
L 298.655888 309.868035 
L 299.208819 311.619529 
L 299.255452 311.699143 
L 299.415335 312.002853 
L 299.475292 312.044134 
L 299.455306 312.050031 
L 299.488615 312.061826 
L 299.648499 312.221053 
L 299.83503 312.374382 
L 299.841692 312.35669 
L 299.901648 312.209258 
L 299.954942 312.315409 
L 300.094841 312.477584 
L 300.101502 312.474636 
L 300.221415 312.539506 
L 300.254724 312.560147 
L 300.281371 312.477584 
L 300.294695 312.159131 
L 300.321342 281.755672 
L 300.427931 306.630425 
L 300.641109 309.378561 
L 301.393895 311.949777 
L 301.407218 311.937983 
L 301.473837 312.026442 
L 301.493822 311.967469 
L 301.527131 309.104337 
L 301.547116 298.503965 
L 301.640382 304.696115 
L 301.873545 309.066004 
L 302.299902 310.779166 
L 302.306564 310.776217 
L 302.339873 310.012519 
L 302.419814 307.019646 
L 302.479771 307.927828 
L 302.746243 309.868035 
L 302.792876 310.00957 
L 302.859494 309.850343 
L 302.892803 309.178053 
L 303.046025 305.035209 
L 303.059349 305.46866 
L 303.279189 308.305254 
L 303.698883 310.233667 
L 303.738854 310.339818 
L 303.878752 310.746731 
L 303.905399 310.490199 
L 303.998665 307.77155 
L 304.125239 308.830113 
L 304.285123 309.629195 
L 304.31177 309.558428 
L 304.338418 308.33769 
L 304.438345 309.145618 
L 304.811406 310.425329 
L 304.964628 310.74968 
L 304.977952 310.723142 
L 304.991276 306.777857 
L 305.084541 310.440072 
L 305.277734 311.433765 
L 305.284395 311.427868 
L 305.444279 311.831832 
L 306.423566 312.619119 
L 306.430228 312.566044 
L 306.43689 312.504122 
L 306.530155 312.663349 
L 306.590111 312.734116 
L 306.596773 312.633863 
L 306.736671 306.600939 
L 306.783304 310.213027 
L 306.963173 311.979264 
L 307.216322 312.610273 
L 307.362882 312.790141 
L 307.489457 312.83437 
L 307.642678 312.857959 
L 307.64934 312.8786 
L 307.7959 312.932658 
L 307.849195 312.701681 
L 307.929137 312.722322 
L 308.08902 312.934624 
L 308.095682 312.928727 
L 308.142315 313.005392 
L 308.148976 313.00834 
L 308.188947 313.064364 
L 308.262227 313.017186 
L 308.30886 312.955265 
L 308.355493 310.903009 
L 308.448758 312.209258 
L 308.475405 312.344896 
L 308.482067 312.268231 
L 308.508715 303.428199 
L 308.628627 308.83601 
L 308.855129 310.903009 
L 309.128263 311.973367 
L 309.241514 312.185669 
L 309.274823 312.07362 
L 309.308133 311.867215 
L 309.381412 312.109004 
L 309.394736 312.109004 
L 309.434707 312.209258 
L 309.747812 312.625017 
L 309.834416 312.678092 
L 309.841078 312.648606 
L 309.887711 312.014648 
L 309.960991 312.309512 
L 310.200816 312.633863 
L 310.240787 312.725271 
L 310.380685 312.866805 
L 310.40067 312.893343 
L 310.480612 312.905138 
L 310.740423 313.07439 
L 310.880321 313.07439 
L 310.946939 313.090313 
L 310.98691 310.849933 
L 311.093499 312.282974 
L 311.253383 312.686938 
L 311.300016 312.757706 
L 311.439914 312.949367 
L 311.486546 312.981802 
L 311.49987 313.026032 
L 311.64643 313.110363 
L 312.046139 313.24836 
L 312.052801 313.23745 
L 312.079448 313.222412 
L 312.152728 313.280795 
L 312.292626 313.291705 
L 312.30595 313.316768 
L 312.552437 313.327383 
L 312.679012 313.351562 
L 312.912175 313.351267 
L 313.012102 313.412599 
L 313.045411 313.395792 
L 313.211957 313.415843 
L 313.351855 313.395792 
L 313.758226 313.480123 
L 313.858153 313.448868 
L 313.891462 313.483367 
L 314.064669 313.499584 
L 314.191244 313.480123 
L 314.211229 312.872703 
L 314.297833 313.422625 
L 314.737513 313.514622 
L 314.770822 313.448868 
L 314.810793 313.122453 
L 314.884073 313.402574 
L 315.070604 313.48661 
L 315.123898 313.467739 
L 315.183855 313.499584 
L 316.48957 313.432355 
L 316.52288 312.978854 
L 316.59616 313.448868 
L 316.849309 313.399035 
L 316.875956 313.173464 
L 316.955898 313.439137 
L 317.355607 313.524353 
L 317.395578 313.358049 
L 317.495505 313.461842 
L 317.921861 313.533199 
L 318.048436 313.277551 
L 318.188334 313.442381 
L 318.414835 313.527301 
L 318.421497 313.517866 
L 318.594704 313.461842 
L 318.641337 311.637221 
L 318.727941 312.916932 
L 318.801221 313.026032 
L 318.814544 313.058467 
L 318.827868 312.869754 
L 318.954443 312.165028 
L 319.087679 305.256357 
L 319.207592 308.169617 
L 319.147635 304.766883 
L 319.214253 306.72773 
L 319.247562 78.653132 
L 319.340828 223.107159 
L 319.427431 300.36161 
L 319.454079 234.34149 
L 319.587315 302.219255 
L 319.613962 278.866001 
L 319.620624 274.885333 
L 319.693904 295.054052 
L 319.840464 304.183051 
L 320.020333 308.128336 
L 320.093613 308.670886 
L 320.106937 308.529351 
L 320.126922 304.64304 
L 320.220188 308.125387 
L 320.499984 310.392894 
L 320.506646 310.369305 
L 320.546617 310.581607 
L 320.553278 310.569812 
L 321.012944 311.790551 
L 321.019606 311.784653 
L 321.0729 311.884907 
L 321.319387 312.238744 
L 321.545889 312.451047 
L 321.685787 312.563095 
L 321.692449 312.560147 
L 323.118078 313.070262 
L 323.671008 313.181131 
L 323.917496 313.196464 
L 325.609597 313.10653 
L 325.636244 312.916932 
L 325.72951 313.040775 
L 325.916041 313.067313 
L 326.049277 312.846165 
L 326.062601 312.890395 
L 326.229146 313.023083 
L 326.24247 313.028981 
L 326.255793 312.919881 
L 326.309088 312.527711 
L 326.369044 312.784243 
L 326.508942 313.122453 
L 326.668826 313.177298 
L 326.848695 313.218284 
L 326.888666 313.114197 
L 326.968608 313.026032 
L 327.008578 313.064364 
L 327.201771 313.157247 
L 327.321684 313.229783 
L 327.648113 313.14958 
L 327.694746 312.978854 
L 327.761364 313.141619 
L 327.927909 313.210617 
L 328.141087 313.114491 
L 328.247676 313.07439 
L 328.261 313.086479 
L 328.307633 313.173169 
L 328.434207 313.255437 
L 331.578584 313.365126 
L 331.898352 313.412304 
L 332.164824 313.395792 
L 332.397988 313.395792 
L 332.657799 312.913984 
L 332.731079 313.094441 
L 332.764388 313.145452 
L 332.804359 313.031929 
L 332.824344 313.040775 
L 332.944257 312.952316 
L 332.95758 312.896292 
L 333.037522 313.026032 
L 333.463878 313.258975 
L 333.710366 313.241283 
L 333.770322 313.255437 
L 333.790307 313.203246 
L 333.850264 312.816678 
L 333.923544 312.94347 
L 334.096751 313.122453 
L 334.443165 313.229783 
L 334.616373 313.262513 
L 334.962787 313.323845 
L 339.552779 313.43265 
L 339.626059 313.412304 
L 339.63272 313.361588 
L 339.772619 313.188797 
L 340.572036 313.082646 
L 340.678626 313.098274 
L 340.605346 313.114197 
L 340.691949 313.110363 
L 340.945098 313.086774 
L 340.958422 313.10653 
L 340.978407 313.005392 
L 341.104982 310.826344 
L 341.204909 311.607735 
L 341.458058 312.51002 
L 342.250814 313.070262 
L 342.404036 313.122158 
L 342.543934 313.169631 
L 342.857039 313.222117 
L 342.877025 313.210617 
L 344.229374 313.207079 
L 344.269345 312.11785 
L 344.315977 303.40461 
L 344.389257 308.095901 
L 344.58245 310.572761 
L 344.942188 311.902599 
L 345.488457 312.666298 
L 345.521766 312.63976 
L 345.588384 312.686938 
L 345.768253 312.793089 
L 345.894828 312.822576 
L 346.068035 312.911035 
L 346.227919 312.94347 
L 347.506987 313.130119 
L 348.79938 313.23745 
L 348.965925 313.207079 
L 349.159118 313.229783 
L 349.332325 313.295538 
L 349.35231 313.218284 
L 349.365634 313.165798 
L 349.445576 313.292 
L 349.452238 313.284923 
L 349.492209 313.299076 
L 349.512194 313.218579 
L 349.525518 313.16167 
L 349.57215 313.241283 
L 349.585474 313.23745 
L 350.644703 313.31323 
L 352.669895 313.419381 
L 352.716528 313.358049 
L 352.776484 313.375446 
L 352.916382 313.375446 
L 352.989662 313.395792 
L 353.036295 313.368664 
L 353.176193 313.358049 
L 353.396033 313.358049 
L 353.589226 313.408766 
L 353.755771 313.395792 
L 353.908993 313.292 
L 353.995596 313.299076 
L 354.022244 313.316768 
L 354.142156 313.33446 
L 354.148818 313.330922 
L 354.308702 313.34478 
L 354.421953 313.341537 
L 354.428614 313.348024 
L 354.648454 313.122453 
L 354.768367 313.130119 
L 354.861632 312.981802 
L 355.021516 312.592582 
L 355.074811 312.586684 
L 355.101458 312.669246 
L 355.201385 312.7695 
L 355.40124 312.905138 
L 355.614418 313.011289 
L 355.760978 313.086774 
L 355.76764 313.082646 
L 355.947509 313.149285 
L 355.95417 313.133952 
L 356.287261 313.200002 
L 356.453807 313.177298 
L 357.366475 313.284923 
L 357.499712 313.262513 
L 357.513035 307.220154 
L 357.526359 290.041359 
L 357.619624 309.290101 
L 357.799493 311.784653 
L 357.999348 312.344896 
L 358.07929 312.439252 
L 358.125922 312.344896 
L 358.29913 312.079518 
L 358.305792 312.103107 
L 358.59225 312.386177 
L 358.718824 312.477584 
L 358.865384 312.604376 
L 358.872046 312.592582 
L 359.051915 312.686938 
L 359.225122 312.613222 
L 359.378344 312.775397 
L 359.558213 312.869754 
L 359.611508 312.869754 
L 359.664802 312.905138 
L 360.257704 313.005392 
L 360.344307 313.026032 
L 360.370955 312.984751 
L 360.550824 313.026032 
L 360.697384 313.058467 
L 360.704045 313.05257 
L 360.823958 313.034878 
L 360.890576 313.002443 
L 360.990504 312.350793 
L 361.030474 312.415663 
L 361.276962 312.571941 
L 361.283623 312.51002 
L 361.350242 312.539506 
L 361.410198 311.72568 
L 361.470154 307.644758 
L 361.530111 309.021775 
L 361.716641 311.159541 
L 362.176307 312.386177 
L 362.469427 312.598479 
L 362.489412 312.586684 
L 362.542707 312.669246 
L 362.55603 312.669246 
L 363.115623 312.905138 
L 363.128947 312.801935 
L 363.162256 312.294769 
L 363.168917 309.472917 
L 363.268845 311.53107 
L 363.482023 312.262334 
L 363.535317 312.327204 
L 363.541979 312.350793 
L 363.688539 312.515917 
L 363.781805 312.592582 
L 363.815114 312.501174 
L 363.848423 312.403868 
L 363.921703 312.504122 
L 364.074924 312.598479 
L 364.208161 312.586684 
L 364.614532 312.798987 
L 365.04755 312.908086 
L 365.300699 312.9877 
L 366.006851 312.937573 
L 366.033498 308.729859 
L 366.046822 297.79629 
L 366.133426 310.165848 
L 366.33328 311.961572 
L 366.926182 312.801935 
L 366.972815 312.798987 
L 366.959491 312.83437 
L 367.019447 312.852062 
L 367.332553 312.984751 
L 367.372524 312.890395 
L 367.419156 312.303615 
L 367.492436 312.778346 
L 367.758909 312.949367 
L 367.912131 312.905138 
L 367.938778 312.8786 
L 368.012058 312.952316 
L 368.258545 312.8786 
L 368.285192 312.18272 
L 368.291854 310.752628 
L 368.391781 312.16208 
L 368.418429 312.144388 
L 368.558327 312.557198 
L 368.624945 312.698733 
L 368.698225 312.74886 
L 368.731534 312.681041 
L 368.758181 312.675144 
L 368.764843 312.610273 
L 368.771505 312.563095 
L 368.851447 312.740014 
L 368.858109 312.734116 
L 369.484319 313.145452 
L 369.857381 313.251898 
L 369.977294 313.262513 
L 371.902559 313.368664 
L 372.069104 313.389305 
L 372.255635 313.415843 
L 372.375548 313.399035 
L 372.542093 313.408766 
L 372.768595 313.435894 
L 372.775257 313.412599 
L 372.808566 313.19263 
L 372.888507 313.337999 
L 373.041729 313.405522 
L 373.308202 313.415843 
L 373.441438 313.435894 
L 373.721234 313.34478 
L 373.727896 313.320307 
L 373.781191 313.368664 
L 373.821162 313.375741 
L 374.007693 313.467444 
L 374.160914 313.473931 
L 374.347445 313.499584 
L 376.112827 313.606915 
L 376.27271 313.609274 
L 376.405946 313.556788 
L 376.412608 313.562685 
L 376.619125 313.589223 
L 376.652434 313.562685 
L 376.739037 313.612517 
L 377.598412 313.495751 
L 377.685015 313.309692 
L 377.718324 313.395792 
L 377.898193 313.559737 
L 378.17799 313.461252 
L 378.277917 312.710527 
L 378.32455 313.078518 
L 378.477771 313.361588 
L 378.65764 313.48661 
L 379.02404 313.547942 
L 379.217233 313.327383 
L 379.263866 313.408766 
L 379.803473 313.57448 
L 379.876753 313.547942 
L 379.923385 313.580377 
L 380.04996 313.568582 
L 381.355676 313.517571 
L 381.395647 313.133952 
L 381.468927 313.48661 
L 381.595501 313.580377 
L 381.608825 313.50843 
L 381.742061 313.299076 
L 381.755385 313.31323 
L 381.762047 313.316768 
L 381.768709 313.273423 
L 381.782032 313.177298 
L 381.861974 313.399035 
L 382.015196 313.511379 
L 382.021858 313.50843 
L 382.43489 313.571531 
L 386.631835 313.483367 
L 386.665144 313.341537 
L 386.751747 313.402279 
L 386.938278 313.620479 
L 387.098162 313.659401 
L 387.411267 313.634337 
L 387.637769 313.68358 
L 387.731034 313.576544 
L 387.884256 313.034878 
L 387.917565 312.840268 
L 387.977521 313.090607 
L 388.1907 313.382818 
L 388.330598 313.448868 
L 388.350583 313.337704 
L 388.417201 313.330922 
L 388.463834 313.365126 
L 388.870205 313.468034 
L 389.016765 313.514622 
L 389.822845 313.623132 
L 390.009375 313.63994 
L 391.854699 313.536147 
L 391.93464 313.435894 
L 391.987935 313.48661 
L 392.474247 313.601018 
L 392.707411 313.61753 
L 394.985752 313.533199 
L 395.079018 313.05257 
L 395.152298 313.20354 
L 395.358814 313.395792 
L 395.751861 313.517866 
L 395.758523 313.489854 
L 395.765185 313.46479 
L 395.851788 313.536147 
L 395.85845 313.521109 
L 396.038319 313.583326 
L 396.184879 313.62903 
L 396.324777 313.670311 
L 396.59125 313.68358 
L 396.791104 313.583326 
L 396.904355 312.448098 
L 396.937664 311.778756 
L 397.010944 312.392074 
L 397.384006 313.082646 
L 397.523904 313.19263 
L 397.777053 313.31323 
L 398.190086 313.415548 
L 398.31666 313.448868 
L 398.369955 313.442381 
L 398.383278 313.361588 
L 398.496529 313.316768 
L 398.509853 313.327383 
L 400.834827 313.435894 
L 401.02802 313.473636 
L 401.427729 313.372203 
L 401.487685 312.993892 
L 401.520994 312.468739 
L 401.607598 312.563095 
L 401.65423 312.651554 
L 401.834099 312.949367 
L 402.027292 313.094441 
L 402.766754 313.348024 
L 402.840034 313.137786 
L 402.873343 312.365536 
L 402.979932 312.8786 
L 403.333008 313.165798 
L 403.679422 313.273423 
L 403.965881 313.31323 
L 404.55212 313.415548 
L 404.678695 313.442381 
L 404.685357 313.435894 
L 404.84524 313.439137 
L 405.098389 313.442381 
L 405.231626 313.46479 
L 405.637996 313.524353 
L 406.051029 313.445034 
L 406.150956 312.374382 
L 406.257545 312.527711 
L 406.497371 312.863857 
L 406.623945 312.958213 
L 406.777167 313.102107 
L 406.790491 313.086774 
L 407.003669 313.165798 
L 407.396716 313.273423 
L 407.549938 313.327383 
L 407.936323 313.435894 
L 408.242767 313.461842 
L 410.474475 313.351267 
L 410.641021 313.392548 
L 410.907493 313.399035 
L 411.020744 313.149285 
L 411.147319 312.828473 
L 411.193951 312.89924 
L 411.367158 313.058467 
L 411.253908 312.822576 
L 411.400468 312.934624 
L 411.420453 312.881549 
L 411.507057 312.949367 
L 411.626969 312.893343 
L 411.760206 312.801935 
L 411.766867 312.810781 
L 412.006693 312.604376 
L 412.053326 311.855421 
L 412.186562 312.079518 
L 412.306475 312.327204 
L 412.466358 312.445149 
L 412.552962 312.380279 
L 412.579609 311.83478 
L 412.606256 305.453917 
L 412.712845 308.847805 
L 412.979318 311.159541 
L 413.012627 311.256846 
L 413.412336 312.144388 
L 413.525587 312.250539 
L 413.665485 312.362587 
L 413.891987 312.551301 
L 414.005238 312.616171 
L 414.218416 312.751808 
L 414.245063 312.686938 
L 414.331667 312.527711 
L 414.478227 311.681451 
L 414.518198 304.227281 
L 414.631448 308.178463 
L 414.85795 310.737885 
L 414.971201 311.248 
L 415.211027 311.87901 
L 415.390896 312.185669 
L 415.677354 312.483482 
L 415.704001 312.285923 
L 415.790605 312.433355 
L 415.843899 312.333101 
L 415.863885 312.209258 
L 415.937164 312.395022 
L 416.170328 312.619119 
L 416.183652 312.607325 
L 416.476772 312.728219 
L 416.536728 312.716425 
L 416.576699 312.763603 
L 416.849833 312.775397 
L 416.876481 312.619119 
L 416.969746 312.734116 
L 417.342808 312.916932 
L 417.709208 313.026032 
L 417.849106 313.028981 
L 418.082269 313.094441 
L 418.262138 313.11862 
L 419.288058 313.22595 
L 419.481251 313.210617 
L 420.24736 313.316768 
L 420.39392 313.341537 
L 421.433163 313.284333 
L 421.493119 313.011289 
L 421.546414 313.19263 
L 421.566399 313.23745 
L 421.619694 313.110363 
L 421.633017 313.055519 
L 421.646341 311.327614 
L 421.746268 312.533609 
L 421.859519 312.70463 
L 421.89949 312.627965 
L 421.926137 312.409766 
L 421.959446 312.29182 
L 422.006079 312.515917 
L 422.19261 312.840268 
L 422.878777 313.028981 
L 422.918748 313.031929 
L 422.972043 313.094441 
L 423.085293 313.133952 
L 423.091955 313.149285 
L 423.425046 313.229783 
L 423.571606 313.273423 
L 423.751475 313.31323 
L 424.630835 313.207079 
L 424.824027 313.090607 
L 424.844013 313.133952 
L 424.850675 313.157542 
L 424.857337 313.133658 
L 424.897307 300.901212 
L 425.010558 307.806934 
L 425.023882 307.385278 
L 425.083838 309.178053 
L 425.336987 311.40133 
L 425.856609 312.563095 
L 425.863271 312.495276 
L 425.916565 312.209258 
L 425.983183 312.42156 
L 426.129743 312.619119 
L 426.33626 312.816678 
L 426.349583 312.778346 
L 426.416202 312.622068 
L 426.462834 312.740014 
L 426.656027 312.946419 
L 426.929161 313.046673 
L 427.055736 313.090607 
L 427.06906 313.07439 
L 427.222281 313.064364 
L 427.228943 313.07439 
L 427.248929 313.110363 
L 427.288899 313.049621 
L 427.302223 312.790141 
L 427.40215 312.990648 
L 427.602005 313.145452 
L 427.635314 313.11862 
L 427.708594 312.672195 
L 427.721918 312.831422 
L 427.795198 307.170027 
L 427.848492 310.811601 
L 427.975067 311.884907 
L 428.008376 311.766962 
L 428.028361 309.782525 
L 428.114965 285.176098 
L 428.128288 223.372537 
L 428.221554 298.474478 
L 428.401423 307.544505 
L 428.627925 310.086235 
L 429.080928 311.902599 
L 429.194179 312.109004 
L 429.207503 311.937983 
L 429.247473 311.666708 
L 429.320753 311.890805 
L 429.620535 312.386177 
L 429.82039 312.586684 
L 429.96695 312.669246 
L 430.053553 312.589633 
L 430.086862 311.309922 
L 430.180128 299.005234 
L 430.220099 300.833393 
L 430.439939 310.130465 
L 430.513219 310.599299 
L 430.706411 311.413124 
L 430.713073 311.398381 
L 430.753044 311.528121 
L 430.899604 311.902599 
L 430.939575 312.002853 
L 430.966222 312.07362 
L 430.992869 311.837729 
L 431.052826 309.540736 
L 431.072811 309.744192 
L 431.139429 302.511171 
L 431.206047 304.548683 
L 431.246018 306.889906 
L 431.259342 299.53599 
L 431.272666 279.927513 
L 431.365931 306.191077 
L 431.425887 307.29387 
L 431.445873 306.494788 
L 431.47252 292.223355 
L 431.572447 301.128257 
L 431.745655 308.243333 
L 431.958833 309.965341 
L 432.145364 310.823396 
L 432.152025 310.799807 
L 432.20532 311.018006 
L 432.378527 311.460303 
L 433.098003 312.374382 
L 433.111327 312.309512 
L 433.204592 311.74927 
L 433.177945 312.344896 
L 433.244563 312.114901 
L 433.397785 312.389125 
L 433.890759 312.681041 
L 434.010672 312.787192 
L 434.210527 312.822576 
L 434.270483 312.843216 
L 434.303792 312.881549 
L 434.543617 312.946419 
L 434.650207 312.999494 
L 435.656141 312.981802 
L 435.709435 312.527711 
L 435.769392 312.831422 
L 435.935937 313.005392 
L 436.368955 313.114491 
L 436.408926 313.122453 
L 436.435573 313.046673 
L 436.448897 311.955675 
L 436.468882 301.717986 
L 436.56881 307.77155 
L 436.708708 312.42156 
L 436.815297 312.657452 
L 437.075108 312.975905 
L 437.301609 313.082646 
L 437.521449 313.177298 
L 437.761275 313.165798 
L 437.787922 313.102402 
L 437.821231 312.893343 
L 437.901173 313.05257 
L 437.914497 313.034878 
L 437.987777 313.11862 
L 438.274235 313.22595 
L 438.400809 313.23745 
L 438.44078 313.146632 
L 438.480751 309.127926 
L 438.554031 312.362587 
L 438.740562 312.893343 
L 438.920431 313.064364 
L 439.213551 313.177298 
L 439.480023 313.21445 
L 439.526656 313.19263 
L 439.586612 313.241283 
L 440.23947 313.351267 
L 440.499281 313.354511 
L 443.230626 313.461842 
L 443.3572 313.461842 
L 443.363862 313.455355 
L 443.550393 313.48661 
L 448.979773 313.382523 
L 449.019744 313.327383 
L 449.086362 313.389305 
L 449.366159 313.511379 
L 450.418726 313.408766 
L 450.478682 313.098274 
L 450.492006 312.940521 
L 450.571948 313.295538 
L 450.745155 313.448868 
L 452.144136 313.375741 
L 452.30402 312.16208 
L 452.317343 292.662703 
L 452.363976 165.638105 
L 452.430594 235.226083 
L 452.583816 305.866727 
L 452.790332 309.584966 
L 452.976863 310.602247 
L 453.196703 311.519275 
L 453.349925 311.896702 
L 453.849561 312.362587 
L 453.862885 312.209258 
L 453.896194 309.947649 
L 453.942827 292.577192 
L 454.022768 301.157743 
L 454.229285 308.137182 
L 454.24927 308.29346 
L 454.289241 307.969109 
L 454.329212 307.523864 
L 454.389168 308.084106 
L 454.582361 309.584966 
L 454.875481 311.035698 
L 455.408426 312.138491 
L 455.475044 312.244642 
L 455.774826 312.551301 
L 455.914724 312.657452 
L 456.101255 312.763603 
L 456.41436 312.872703 
L 456.434346 312.869754 
L 456.467655 312.775397 
L 456.514288 312.675144 
L 456.547597 310.463661 
L 456.567582 305.017517 
L 456.660848 308.137182 
L 456.900673 310.457764 
L 456.92732 310.398791 
L 456.940644 310.478404 
L 457.107189 311.280435 
L 457.22044 311.607735 
L 457.473589 312.09721 
L 457.566855 312.191566 
L 457.713415 312.268231 
L 457.839989 312.362587 
L 457.986549 312.480533 
L 458.02652 312.430406 
L 458.086476 310.407637 
L 458.199727 311.354151 
L 458.506171 312.00875 
L 458.532818 311.961572 
L 458.546142 311.719783 
L 458.559465 296.737727 
L 458.646069 140.279773 
L 458.68604 172.714848 
L 458.719349 146.471924 
L 458.752658 195.979642 
L 458.779305 207.243459 
L 458.8326 173.894305 
L 458.852585 36.19267 
L 458.932527 187.752928 
L 459.072425 294.139973 
L 459.285603 303.873444 
L 459.5654 307.786293 
L 460.158301 310.35751 
L 460.26489 310.590453 
L 460.271552 310.572761 
L 460.41145 310.911855 
L 460.55801 311.020955 
L 460.70457 311.318768 
L 460.871116 310.646477 
L 460.917748 310.911855 
L 461.190883 311.377741 
L 461.197545 311.362997 
L 461.21753 311.345306 
L 461.264163 311.436713 
L 461.270825 311.430816 
L 461.537297 311.684399 
L 461.723828 311.666708 
L 461.863726 311.772859 
L 462.210141 312.256436 
L 462.236788 312.221053 
L 462.24345 312.209258 
L 462.310068 312.268231 
L 462.336715 312.268231 
L 462.503261 312.338998 
L 462.789719 312.456944 
L 462.876322 312.480533 
L 462.889646 312.492328 
L 463.049529 312.551301 
L 463.549166 312.651554 
L 463.682402 312.70463 
L 464.768278 312.810781 
L 464.934824 312.893343 
L 465.041413 312.928727 
L 465.048074 312.940521 
L 466.140612 313.046673 
L 466.35379 313.090607 
L 466.620263 313.061416 
L 466.813456 313.034878 
L 466.86675 312.796038 
L 466.946692 312.42156 
L 467.019972 312.480533 
L 467.179856 312.586684 
L 467.346401 312.657452 
L 467.606212 312.740014 
L 467.846037 312.846165 
L 467.992597 312.881549 
L 468.065877 312.825524 
L 468.205775 312.554249 
L 468.40563 312.586684 
L 468.865295 312.692835 
L 469.031841 312.763603 
L 469.511491 312.869754 
L 469.698022 312.940521 
L 470.284262 312.831422 
L 470.437484 312.716425 
L 470.504102 312.610273 
L 470.550735 312.459893 
L 470.604029 311.81414 
L 470.71728 311.890805 
L 470.917135 312.020545 
L 471.110327 311.967469 
L 471.15696 310.221872 
L 471.23024 311.690297 
L 471.430094 312.079518 
L 472.40272 312.793089 
L 472.715825 312.68399 
L 472.762458 312.580787 
L 472.822414 312.698733 
L 473.115534 312.810781 
L 473.461948 312.916932 
L 473.621832 312.975905 
L 473.748406 312.919881 
L 473.881643 312.09721 
L 473.90829 312.203361 
L 474.761003 312.810781 
L 475.034137 312.810781 
L 475.347242 312.94347 
L 475.567082 312.837319 
L 475.59373 309.310742 
L 475.66701 304.993928 
L 475.70698 307.851163 
L 475.88685 311.047493 
L 476.139999 311.861318 
L 476.652958 312.551301 
L 476.832827 312.651554 
L 476.986049 312.70463 
L 477.405744 312.810781 
L 477.718849 312.940521 
L 478.105234 312.840268 
L 478.118558 312.798987 
L 478.151867 312.881549 
L 478.205162 312.881549 
L 478.41834 312.981802 
L 478.558238 313.023083 
L 478.591547 312.919881 
L 478.678151 311.855421 
L 478.744769 312.191566 
L 478.951285 312.716425 
L 479.091183 312.816678 
L 479.251067 312.940521 
L 479.550849 313.040775 
L 479.677423 313.070262 
L 480.683357 313.181131 
L 481.009786 313.241283 
L 481.282921 313.141914 
L 481.482775 312.138491 
L 481.549393 312.221053 
L 481.576041 312.150285 
L 481.655982 312.232847 
L 482.029044 312.669246 
L 482.535342 312.975905 
L 482.595299 312.451047 
L 482.655255 312.675144 
L 482.861771 312.763603 
L 482.868433 312.740014 
L 482.955037 311.929137 
L 483.014993 300.951338 
L 483.11492 308.181411 
L 483.214847 309.77073 
L 483.221509 308.939213 
L 483.241495 300.332123 
L 483.33476 307.568094 
L 483.494644 310.215975 
L 483.687836 311.100568 
L 483.867705 311.590043 
L 483.881029 311.395432 
L 483.960971 311.728629 
L 483.967633 311.728629 
L 483.99428 311.637221 
L 484.060898 311.81414 
L 484.174149 311.914394 
L 484.473931 312.221053 
L 485.213392 312.728219 
L 485.31332 312.787192 
L 485.479865 312.857959 
L 486.08609 312.952316 
L 486.212665 312.975905 
L 486.718963 313.086774 
L 486.89217 313.11862 
L 487.11201 313.11862 
L 487.878119 313.020135 
L 487.891443 312.875651 
L 487.978046 313.11862 
L 488.757479 313.011289 
L 488.804111 312.474636 
L 488.87073 312.952316 
L 488.917362 313.023083 
L 488.977319 312.946419 
L 489.003966 312.846165 
L 489.070584 311.135952 
L 489.123879 312.16208 
L 489.310409 312.893343 
L 489.516926 313.034878 
L 489.536911 313.031929 
L 489.670147 309.278307 
L 489.676809 296.784906 
L 489.776737 311.48684 
L 489.949944 312.527711 
L 490.089842 312.633863 
L 490.369638 312.905138 
L 490.542845 312.804884 
L 490.582816 312.498225 
L 490.649434 312.766552 
L 490.88926 313.034878 
L 491.202365 313.145452 
L 491.32894 313.165798 
L 492.008445 313.273423 
L 492.24827 313.284923 
L 492.441463 313.184964 
L 492.461449 313.078518 
L 492.548052 313.184964 
L 492.914452 313.26959 
L 493.520677 313.169631 
L 493.573972 313.064364 
L 493.627266 313.196464 
L 494.240153 313.299076 
L 494.246815 313.309692 
L 494.293448 313.181131 
L 494.320095 313.11862 
L 494.37339 313.241283 
L 494.386713 313.241283 
L 494.88635 313.341537 
L 495.006262 313.341537 
L 495.352677 313.312345 
L 495.366 311.200822 
L 495.465928 312.92283 
L 495.592502 313.133952 
L 495.632473 313.078518 
L 495.672444 313.034878 
L 495.745724 313.098274 
L 496.012197 313.196464 
L 496.158757 313.255437 
L 496.958175 313.365126 
L 497.071425 313.34478 
L 497.078087 313.316768 
L 497.111396 313.28109 
L 497.191338 313.31323 
L 497.544414 313.37928 
L 497.704298 313.368664 
L 498.230581 313.340947 
L 498.243905 312.021724 
L 498.250567 309.932905 
L 498.350494 313.21445 
L 498.55701 313.351267 
L 498.943396 313.419381 
L 499.176559 313.419381 
L 499.449694 313.442381 
L 499.58293 313.461842 
L 499.636225 313.435894 
L 499.669534 313.210617 
L 499.756137 313.316768 
L 499.995963 313.299076 
L 500.135861 313.361588 
L 500.329054 313.408766 
L 500.861999 313.306153 
L 500.948603 312.881549 
L 500.968588 312.061826 
L 500.981912 305.442122 
L 501.081839 308.196155 
L 501.221737 312.456944 
L 501.581475 312.9877 
L 502.394217 313.241283 
L 502.447511 312.949367 
L 502.507468 313.086774 
L 502.640704 313.21445 
L 502.654027 313.210617 
L 503.060398 313.316768 
L 503.293562 313.316768 
L 503.586682 313.348024 
L 503.779874 313.31323 
L 506.238085 313.25927 
L 506.291379 311.545813 
L 506.377983 312.807833 
L 506.544528 313.058467 
L 506.797677 313.210617 
L 507.437212 313.316768 
L 507.610419 313.341537 
L 510.101938 313.448868 
L 510.261822 313.452111 
L 510.534956 313.439137 
L 510.801429 313.445624 
L 510.928003 313.455355 
L 511.067902 313.46479 
L 511.361021 313.473636 
L 517.016903 313.37751 
L 517.090183 313.304974 
L 517.130154 313.371023 
L 517.669761 313.511379 
L 520.061354 313.406407 
L 520.507695 312.934624 
L 520.534342 312.961162 
L 521.287128 313.174054 
L 522.039913 313.284923 
L 522.339695 313.320307 
L 522.539549 313.33446 
L 522.806022 313.352447 
L 525.051054 313.544993 
L 525.18429 313.544993 
L 525.464087 313.547942 
L 526.150254 313.439137 
L 526.276828 313.499584 
L 526.603257 313.524353 
L 528.348653 313.461252 
L 528.421933 313.284923 
L 528.475228 313.345075 
L 528.628449 313.402869 
L 528.801657 313.358049 
L 530.200638 313.46479 
L 530.340536 313.473636 
L 530.533729 313.448868 
L 531.193249 313.424984 
L 531.339809 311.047493 
L 531.399765 311.896702 
L 531.592958 312.403868 
L 531.659576 312.480533 
L 531.85943 312.70463 
L 531.992667 312.601428 
L 532.025976 311.271589 
L 532.045961 310.667118 
L 532.132565 311.342357 
L 532.339081 312.088364 
L 532.425685 312.244642 
L 532.59223 312.427458 
L 532.73879 312.439252 
L 532.745452 312.415663 
L 532.758775 312.371433 
L 532.845379 312.456944 
L 532.951968 312.524763 
L 532.95863 312.512968 
L 532.978615 311.604786 
L 532.991939 295.054052 
L 533.091866 307.308613 
L 533.10519 306.701193 
L 533.171808 309.127926 
L 533.384986 310.994417 
L 533.791357 312.026442 
L 534.777306 312.754757 
L 535.216986 312.863857 
L 535.41684 312.893343 
L 535.570062 312.822576 
L 535.736607 309.679322 
L 535.776578 305.144309 
L 535.85652 307.907188 
L 536.07636 310.493148 
L 536.329509 311.513378 
L 536.349494 311.536967 
L 536.356156 311.424919 
L 536.416113 309.396252 
L 536.44276 296.233509 
L 536.536025 302.160282 
L 536.695909 307.75091 
L 536.715894 307.588734 
L 536.742542 306.842727 
L 536.795836 307.762704 
L 536.815822 308.033979 
L 536.835807 307.155284 
L 536.909087 235.285056 
L 536.995691 71.045632 
L 537.062309 144.407874 
L 537.235516 295.024566 
L 537.455356 305.3802 
L 537.482003 305.710448 
L 537.501989 304.790472 
L 537.608578 272.467446 
L 537.661872 212.462558 
L 537.72849 239.324697 
L 537.881712 298.62191 
L 538.088228 305.521735 
L 538.31473 308.266922 
L 538.701116 310.012519 
L 538.707777 309.98893 
L 538.767734 302.593733 
L 538.774396 296.204023 
L 538.867661 307.686039 
L 539.160781 309.962392 
L 539.353974 310.670066 
L 540.173377 311.996956 
L 540.200024 309.281255 
L 540.22001 305.769421 
L 540.306613 309.847395 
L 540.526453 311.371843 
L 540.826235 311.861318 
L 541.086046 312.07362 
L 541.165988 312.156182 
L 541.21262 312.135542 
L 541.385828 312.22695 
L 541.405813 312.103107 
L 541.439122 310.319178 
L 541.445784 310.333921 
L 541.479093 302.337201 
L 541.559035 309.281255 
L 541.718918 310.788012 
L 541.865478 311.236206 
L 541.87214 311.230308 
L 541.898787 311.348254 
L 541.905449 311.342357 
L 542.058671 311.672605 
L 542.358453 312.079518 
L 542.485027 312.221053 
L 542.538322 312.079518 
L 542.611602 311.590043 
L 542.591616 312.135542 
L 542.651573 311.979264 
L 542.718191 312.197463 
L 542.724853 312.082466 
L 542.744838 306.562606 
L 542.838104 310.953136 
L 542.984663 311.743372 
L 543.304431 312.280025 
L 543.470976 312.386177 
L 543.890671 312.610273 
L 544.283718 312.716425 
L 544.337012 312.751808 
L 544.363659 312.627965 
L 544.410292 312.427458 
L 544.470249 312.663349 
L 544.656779 312.787192 
L 544.663441 312.745911 
L 544.723398 312.256436 
L 544.790016 312.527711 
L 545.043165 312.751808 
L 545.263005 312.860908 
L 545.462859 312.893343 
L 545.562786 312.881549 
L 545.582772 312.905138 
L 546.38219 313.014238 
L 546.522088 313.017186 
L 546.728604 313.055519 
L 546.801884 312.716425 
L 546.881826 312.919881 
L 547.088342 313.011289 
L 547.541346 312.916932 
L 547.614626 308.349484 
L 547.674582 295.113025 
L 547.721215 308.703321 
L 547.867775 311.908496 
L 548.174218 312.681041 
L 548.680516 312.9877 
L 548.753796 312.9877 
L 548.793767 313.011289 
L 548.953651 313.046673 
L 548.960313 313.034878 
L 548.973636 312.925778 
L 549.073564 313.002443 
L 549.266756 313.07498 
L 550.052851 313.185849 
L 550.219396 313.207079 
L 551.105418 313.109479 
L 551.132065 313.058467 
L 551.198683 313.164618 
L 551.205345 313.164618 
L 551.405199 313.221232 
L 552.597664 313.11685 
L 552.677606 312.468739 
L 552.777533 312.74886 
L 552.950741 313.049621 
L 553.170581 313.164618 
L 553.343788 313.130709 
L 553.370435 310.363407 
L 553.463701 312.710527 
L 554.036617 313.07498 
L 554.383031 312.967059 
L 554.442988 311.669656 
L 554.529591 312.557198 
L 554.689475 312.775397 
L 554.716122 312.810781 
L 554.762755 312.692835 
L 554.776078 312.57489 
L 554.862682 312.819627 
L 555.062536 312.999494 
L 555.235744 313.069967 
L 555.242406 313.031929 
L 555.309024 312.857959 
L 555.355656 313.002443 
L 555.615467 313.164618 
L 555.782013 313.194105 
L 555.915249 313.222412 
L 556.934507 313.323845 
L 557.067743 313.33446 
L 561.224717 313.438252 
L 561.344629 313.438252 
L 561.351291 313.431765 
L 561.557807 313.450047 
L 561.711029 313.447098 
L 562.150709 313.350678 
L 562.197342 313.058467 
L 562.270622 313.293179 
L 562.517109 313.39933 
L 563.84281 313.386356 
L 563.902767 312.866805 
L 563.956061 313.200592 
L 564.129268 313.40051 
L 564.475683 313.451226 
L 564.728832 313.447983 
L 564.968657 313.450932 
L 565.075246 313.353921 
L 565.08857 313.360408 
L 565.215145 313.387536 
L 569.971681 313.496636 
L 570.231492 313.490738 
L 570.504627 313.490738 
L 574.888102 313.381049 
L 574.948058 313.367485 
L 574.988029 313.429407 
L 575.500989 313.536147 
L 577.379621 313.444739 
L 577.432916 312.860908 
L 577.519519 313.271949 
L 577.752683 313.438252 
L 578.378894 313.539096 
L 578.498806 313.536147 
L 579.664624 313.435304 
L 579.737904 312.825524 
L 579.79786 313.138375 
L 579.997715 313.384292 
L 580.577293 313.488969 
L 580.717191 313.512558 
L 584.221306 313.406997 
L 584.441146 312.315409 
L 584.481117 304.038568 
L 584.561059 309.528941 
L 584.587706 309.281255 
L 584.740928 311.451457 
L 584.920797 311.849524 
L 584.934121 311.778756 
L 584.954106 311.144798 
L 584.96743 288.979847 
L 585.054034 206.978081 
L 585.080681 255.955044 
L 585.267212 305.365457 
L 585.493713 309.573171 
L 585.873437 311.374792 
L 585.906746 311.501584 
L 586.059968 311.855421 
L 586.366411 312.315409 
L 586.379735 312.256436 
L 586.43303 310.737885 
L 586.559604 311.451457 
L 587.265757 312.480533 
L 587.485596 312.586684 
L 587.665466 312.760654 
L 588.245044 312.940521 
L 588.251705 312.919881 
L 588.258367 312.893343 
L 588.285014 312.937573 
L 588.351633 312.952316 
L 588.624767 313.017186 
L 588.638091 312.970008 
L 588.724694 312.625017 
L 588.74468 312.507071 
L 588.831283 312.657452 
L 588.971182 312.763603 
L 589.344243 312.952316 
L 589.55076 312.978854 
L 589.817232 313.067313 
L 589.897174 313.020135 
L 589.917159 311.398381 
L 590.003763 259.758794 
L 590.050396 271.789258 
L 590.203618 303.092053 
L 590.276898 305.179693 
L 590.296883 304.050362 
L 590.316868 296.911697 
L 590.410134 300.77442 
L 590.61665 307.146438 
L 590.796519 308.871394 
L 590.843152 308.729859 
L 590.849814 308.721013 
L 590.863137 308.809472 
L 591.023021 309.428687 
L 591.029683 309.419842 
L 591.189566 309.806114 
L 591.442715 310.566864 
L 591.502672 310.681861 
L 591.662555 311.130055 
L 592.455311 312.002853 
L 592.74177 312.044134 
L 592.755093 311.592992 
L 592.788402 288.036281 
L 592.875006 304.595861 
L 593.061537 308.774089 
L 593.461246 310.699553 
L 593.874278 311.761064 
L 594.067471 311.808243 
L 594.220693 311.607735 
L 594.667034 311.961572 
L 594.693682 311.87901 
L 594.793609 311.926188 
L 595.020111 312.103107 
L 595.506423 312.386177 
L 595.8595 312.309512 
L 595.946103 311.734526 
L 596.012721 311.87901 
L 596.032707 311.884907 
L 596.066016 311.949777 
L 596.086001 311.955675 
L 596.225899 312.138491 
L 596.419092 312.256436 
L 596.792154 312.445149 
L 596.858772 312.397971 
L 596.898743 312.445149 
L 597.07195 312.527711 
L 597.405041 312.627965 
L 597.538277 312.669246 
L 597.738132 312.586684 
L 597.758117 312.492328 
L 597.831397 312.627965 
L 597.838059 312.627965 
L 597.991281 312.678092 
L 598.144503 312.507071 
L 598.164488 312.032339 
L 598.271077 312.132593 
L 598.31771 312.091312 
L 598.377666 312.16208 
L 598.457608 312.091312 
L 598.557535 311.772859 
L 598.590844 311.808243 
L 598.644139 311.678502 
L 598.657462 311.690297 
L 598.677448 308.199103 
L 598.704095 299.565476 
L 598.790699 304.551632 
L 598.957244 309.042415 
L 599.183746 310.528531 
L 599.296997 310.929547 
L 599.483528 311.525173 
L 599.490189 311.522224 
L 599.503513 306.323766 
L 599.596779 310.997366 
L 599.769986 311.772859 
L 600.322917 312.471687 
L 600.329578 312.439252 
L 600.376211 312.144388 
L 600.436167 312.424509 
L 600.582727 312.610273 
L 600.662669 312.6604 
L 600.669331 312.625017 
L 600.742611 312.288871 
L 600.755935 307.556299 
L 600.8492 311.802345 
L 601.029069 312.483482 
L 601.035731 312.480533 
L 601.235585 312.707579 
L 601.621971 312.905138 
L 601.72856 312.949367 
L 601.841811 312.952316 
L 602.088298 313.026032 
L 602.3148 313.034878 
L 602.441374 313.070262 
L 604.080181 313.181131 
L 604.326668 313.196464 
L 604.493214 313.00834 
L 604.593141 310.634683 
L 604.619788 311.610683 
L 604.759686 312.763603 
L 605.046144 313.046673 
L 605.305955 313.133952 
L 605.50581 313.141619 
L 605.865548 313.22595 
L 606.065402 313.23745 
L 606.285242 313.23745 
L 607.477707 313.157542 
L 607.531002 313.017186 
L 607.584296 313.169631 
L 607.777489 313.284923 
L 610.795292 313.395792 
L 610.981823 313.426163 
L 612.454084 313.408766 
L 612.540688 312.557198 
L 612.58732 312.893343 
L 612.747204 313.284923 
L 613.226855 313.207374 
L 613.273487 312.757706 
L 613.340106 313.090313 
L 613.493327 313.229783 
L 613.679858 313.337999 
L 613.913022 313.354511 
L 613.959655 313.255437 
L 614.032935 313.299076 
L 614.485938 313.408766 
L 614.659145 313.439137 
L 614.719102 313.329448 
L 614.759072 311.551711 
L 614.799043 303.929468 
L 614.872323 310.667118 
L 615.07884 312.439252 
L 615.398607 312.978854 
L 615.55849 313.086774 
L 616.098098 313.273423 
L 616.257981 313.11685 
L 616.304614 312.032339 
L 616.391217 312.625017 
L 616.564425 312.916932 
L 617.090708 313.23745 
L 617.183974 313.241283 
L 617.203959 313.262513 
L 617.39049 313.299076 
L 617.570359 313.327383 
L 619.662169 313.435894 
L 619.941966 313.448868 
L 620.481573 313.415843 
L 620.541529 312.875651 
L 620.601485 313.130119 
L 620.641456 313.110363 
L 620.708074 313.165798 
L 620.887944 313.061416 
L 620.914591 312.905138 
L 620.994533 313.058467 
L 621.267667 312.846165 
L 621.274329 312.863857 
L 621.367594 312.92283 
L 621.380918 312.884497 
L 621.467522 309.352023 
L 621.480845 305.884418 
L 621.567449 311.191976 
L 621.740656 312.215155 
L 621.953834 312.563095 
L 622.147027 312.681041 
L 622.593368 312.775397 
L 622.759914 312.916932 
L 623.079681 313.023083 
L 623.239565 313.086774 
L 623.879099 313.196464 
L 624.085615 313.184964 
L 624.258823 313.210617 
L 624.558604 313.255437 
L 624.891695 313.181131 
L 625.044917 311.616581 
L 625.051579 311.536967 
L 625.124859 311.873113 
L 625.13152 311.873113 
L 625.531229 312.374382 
L 625.537891 312.368485 
L 625.651142 312.156182 
L 625.691113 311.041595 
L 625.811026 311.631324 
L 626.064175 312.262334 
L 626.130793 312.362587 
L 626.170764 312.344896 
L 626.290677 312.480533 
L 626.383942 312.586684 
L 626.590458 312.728219 
L 626.74368 312.810781 
L 626.770327 312.745911 
L 626.823622 312.778346 
L 626.850269 312.822576 
L 627.030138 312.916932 
L 628.529047 312.840268 
L 628.589003 311.360049 
L 628.708916 311.890805 
L 628.995374 312.285923 
L 629.228538 312.598479 
L 629.614923 312.793089 
L 629.71485 312.751808 
L 629.748159 310.83519 
L 629.761483 306.683501 
L 629.854748 310.106875 
L 630.114559 311.637221 
L 630.334399 312.120799 
L 630.341061 312.114901 
L 630.367708 312.185669 
L 630.387694 312.203361 
L 630.600872 312.456944 
L 630.714123 312.563095 
L 631.187112 312.83437 
L 631.680086 312.934624 
L 631.753366 312.731168 
L 631.80666 311.887856 
L 631.826646 310.973776 
L 631.919911 311.22736 
L 631.95322 310.33687 
L 632.013177 305.509941 
L 632.106442 307.550402 
L 632.426209 310.440072 
L 632.739315 311.354151 
L 632.745977 311.324665 
L 632.83258 311.436713 
L 632.919184 311.590043 
L 633.218966 312.07362 
L 633.865162 312.563095 
L 633.878485 312.515917 
L 633.918456 311.867215 
L 633.945103 310.148156 
L 634.038369 310.829293 
L 634.504696 312.055929 
L 634.544667 311.890805 
L 634.571314 311.301076 
L 634.604623 308.311152 
L 634.691227 310.015467 
L 634.991009 311.377741 
L 635.024318 311.477994 
L 635.590572 312.259385 
L 636.256754 312.70463 
L 636.363343 312.616171 
L 636.496579 312.527711 
L 636.576521 312.433355 
L 636.703095 312.315409 
L 636.723081 312.321306 
L 636.842994 312.362587 
L 636.849655 312.350793 
L 637.002877 312.35669 
L 637.12279 312.285923 
L 637.016201 312.362587 
L 637.136114 312.29182 
L 637.329306 312.00875 
L 637.382601 312.061826 
L 637.542484 312.120799 
L 637.649073 312.091312 
L 637.675721 312.150285 
L 637.729015 312.253488 
L 637.942193 312.468739 
L 638.175357 312.368485 
L 638.202004 312.173874 
L 638.255299 310.711347 
L 638.36855 311.324665 
L 638.708302 312.050031 
L 638.714964 312.044134 
L 639.367822 312.716425 
L 639.381146 312.571941 
L 639.401131 312.480533 
L 639.474411 312.669246 
L 639.481073 312.669246 
L 640.267167 312.775397 
L 640.413727 312.81373 
L 640.420389 312.763603 
L 640.600258 308.72691 
L 640.640229 297.619372 
L 640.733494 305.203282 
L 640.75348 305.931597 
L 640.933349 309.7265 
L 641.11988 310.546223 
L 641.219807 310.737885 
L 641.253116 310.622888 
L 641.326396 309.195745 
L 641.399676 305.999416 
L 641.466294 306.429917 
L 641.686134 309.325485 
L 641.786061 309.717655 
L 641.792723 309.711757 
L 642.059196 310.681861 
L 642.345654 311.289281 
L 642.618788 311.790551 
L 642.62545 311.746321 
L 642.805319 309.891624 
L 642.898585 310.233667 
L 642.931894 310.29264 
L 642.985188 310.189437 
L 643.005174 310.204181 
L 643.085115 310.31328 
L 643.125086 310.198283 
L 643.278308 309.667528 
L 643.304955 309.711757 
L 643.704664 311.106465 
L 643.931166 311.507481 
L 643.984461 311.525173 
L 644.011108 311.581197 
L 644.350861 311.961572 
L 644.364184 311.955675 
L 644.370846 311.991058 
L 644.424141 312.032339 
L 644.623995 312.344896 
L 644.64398 312.262334 
L 644.657304 312.126696 
L 644.75057 312.321306 
L 644.957086 312.48643 
L 644.817188 312.238744 
L 644.983733 312.386177 
L 645.08366 312.439252 
L 645.283515 312.468739 
L 645.416751 312.403868 
L 645.436737 311.05339 
L 645.463384 296.705292 
L 645.549988 306.48889 
L 645.556649 306.252999 
L 645.609944 308.072312 
L 645.796475 310.115721 
L 645.956358 310.720193 
L 645.983006 310.395842 
L 646.016315 307.125797 
L 646.029638 302.711678 
L 646.129566 306.306074 
L 646.156213 300.803906 
L 646.262802 304.150616 
L 646.436009 308.591273 
L 646.755776 310.263153 
L 647.082205 311.112363 
L 647.375325 311.584146 
L 647.381987 311.572351 
L 647.435282 311.702091 
L 647.441943 311.690297 
L 647.595165 311.884907 
L 647.735063 312.00875 
L 647.788358 311.914394 
L 647.921594 311.389535 
L 647.948241 309.747141 
L 648.034845 311.144798 
L 648.361274 311.996956 
L 648.547805 311.949777 
L 648.581114 311.047493 
L 648.614423 307.470788 
L 648.701027 308.77114 
L 648.71435 308.81537 
L 648.734336 308.520505 
L 648.820939 302.823727 
L 648.900881 305.568914 
L 649.100736 308.912675 
L 649.540415 310.743782 
L 649.580386 310.478404 
L 649.633681 309.994827 
L 649.713623 310.180591 
L 650.166626 311.071082 
L 650.213259 311.171336 
L 650.69291 311.802345 
L 650.806161 311.902599 
L 651.085957 312.221053 
L 651.099281 312.203361 
L 651.192546 310.628785 
L 651.212531 309.873933 
L 651.299135 310.507891 
L 651.479004 311.130055 
L 651.752139 311.637221 
L 651.885375 308.482173 
L 651.918684 309.284204 
L 652.1252 310.829293 
L 652.471615 311.66081 
L 652.484938 311.643118 
L 652.538233 311.740424 
L 652.544895 311.743372 
L 652.691455 311.908496 
L 652.738087 311.766962 
L 652.744749 311.746321 
L 652.818029 311.837729 
L 652.831353 311.837729 
L 652.964589 311.728629 
L 653.00456 309.558428 
L 653.131134 310.737885 
L 653.330989 311.242103 
L 653.764007 311.94388 
L 653.790654 311.890805 
L 653.837287 309.794319 
L 653.890582 240.238776 
L 653.9572 274.295604 
L 654.090436 302.160282 
L 654.290291 306.547863 
L 654.303614 306.117361 
L 654.3236 303.021286 
L 654.423527 305.675065 
L 654.743294 309.024723 
L 654.956472 310.059697 
L 654.989781 310.050851 
L 654.996443 310.033159 
L 655.043076 310.192386 
L 655.202959 310.398791 
L 655.209621 310.389945 
L 655.249592 310.519685 
L 655.476094 311.121209 
L 655.482756 311.056339 
L 655.569359 309.437533 
L 655.635977 309.868035 
L 655.955745 310.98852 
L 656.202232 311.345306 
L 656.368777 311.536967 
L 656.675221 311.849524 
L 656.681883 311.778756 
L 656.695206 311.66081 
L 656.775148 311.831832 
L 656.788472 311.831832 
L 656.955017 312.07362 
L 656.968341 312.067723 
L 657.021635 312.132593 
L 657.034959 312.103107 
L 657.161533 305.430327 
L 657.188181 287.358094 
L 657.274784 300.892366 
L 657.388035 307.05503 
L 657.421344 303.888187 
L 657.44133 302.46989 
L 657.454653 299.418044 
L 657.541257 305.100079 
L 657.77442 308.809472 
L 657.99426 310.239564 
L 658.06754 310.440072 
L 658.953562 311.973367 
L 659.066813 312.00875 
L 659.246682 312.173874 
L 659.339947 312.179772 
L 659.346609 312.138491 
L 659.413227 310.673015 
L 659.426551 305.83724 
L 659.519816 310.708399 
L 659.719671 311.731578 
L 659.846245 311.961572 
L 659.872893 310.622888 
L 659.966158 311.569402 
L 660.299249 312.350793 
L 660.572383 312.613222 
L 661.225241 312.512968 
L 661.285198 312.103107 
L 661.345154 312.362587 
L 661.538347 312.480533 
L 661.798158 312.586684 
L 662.084616 312.716425 
L 662.157896 312.477584 
L 662.21119 312.563095 
L 662.404383 312.471687 
L 662.464339 312.09721 
L 662.564266 312.191566 
L 662.664194 312.29182 
L 662.970637 312.610273 
L 663.217124 312.716425 
L 663.390332 312.801935 
L 663.643481 312.8786 
L 664.009881 312.89924 
L 664.023204 312.492328 
L 664.11647 312.804884 
L 664.309662 312.893343 
L 664.322986 312.846165 
L 664.369619 312.663349 
L 664.436237 312.798987 
L 664.762666 312.94347 
L 665.215669 312.999494 
L 665.215669 312.999494 
" clip-path="url(#pc6e77a97c7)" style="fill: none; stroke: #1f77b4; stroke-width: 1.5; stroke-linecap: square"/>
   </g>
   <g id="patch_3">
    <path d="M 46.0125 327.558125 
L 46.0125 22.318125 
" style="fill: none; stroke: #000000; stroke-width: 0.8; stroke-linejoin: miter; stroke-linecap: square"/>
   </g>
   <g id="patch_4">
    <path d="M 694.701534 327.558125 
L 694.701534 22.318125 
" style="fill: none; stroke: #000000; stroke-width: 0.8; stroke-linejoin: miter; stroke-linecap: square"/>
   </g>
   <g id="patch_5">
    <path d="M 46.0125 327.558125 
L 694.701534 327.558125 
" style="fill: none; stroke: #000000; stroke-width: 0.8; stroke-linejoin: miter; stroke-linecap: square"/>
   </g>
   <g id="patch_6">
    <path d="M 46.0125 22.318125 
L 694.701534 22.318125 
" style="fill: none; stroke: #000000; stroke-width: 0.8; stroke-linejoin: miter; stroke-linecap: square"/>
   </g>
   <g id="text_12">
    <!-- training -->
    <g transform="translate(347.11358 16.318125) scale(0.12 -0.12)">
     <defs>
      <path id="DejaVuSans-74" d="M 1172 4494 
L 1172 3500 
L 2356 3500 
L 2356 3053 
L 1172 3053 
L 1172 1153 
Q 1172 725 1289 603 
Q 1406 481 1766 481 
L 2356 481 
L 2356 0 
L 1766 0 
Q 1100 0 847 248 
Q 594 497 594 1153 
L 594 3053 
L 172 3053 
L 172 3500 
L 594 3500 
L 594 4494 
L 1172 4494 
z
" transform="scale(0.015625)"/>
      <path id="DejaVuSans-72" d="M 2631 2963 
Q 2534 3019 2420 3045 
Q 2306 3072 2169 3072 
Q 1681 3072 1420 2755 
Q 1159 2438 1159 1844 
L 1159 0 
L 581 0 
L 581 3500 
L 1159 3500 
L 1159 2956 
Q 1341 3275 1631 3429 
Q 1922 3584 2338 3584 
Q 2397 3584 2469 3576 
Q 2541 3569 2628 3553 
L 2631 2963 
z
" transform="scale(0.015625)"/>
      <path id="DejaVuSans-61" d="M 2194 1759 
Q 1497 1759 1228 1600 
Q 959 1441 959 1056 
Q 959 750 1161 570 
Q 1363 391 1709 391 
Q 2188 391 2477 730 
Q 2766 1069 2766 1631 
L 2766 1759 
L 2194 1759 
z
M 3341 1997 
L 3341 0 
L 2766 0 
L 2766 531 
Q 2569 213 2275 61 
Q 1981 -91 1556 -91 
Q 1019 -91 701 211 
Q 384 513 384 1019 
Q 384 1609 779 1909 
Q 1175 2209 1959 2209 
L 2766 2209 
L 2766 2266 
Q 2766 2663 2505 2880 
Q 2244 3097 1772 3097 
Q 1472 3097 1187 3025 
Q 903 2953 641 2809 
L 641 3341 
Q 956 3463 1253 3523 
Q 1550 3584 1831 3584 
Q 2591 3584 2966 3190 
Q 3341 2797 3341 1997 
z
" transform="scale(0.015625)"/>
      <path id="DejaVuSans-69" d="M 603 3500 
L 1178 3500 
L 1178 0 
L 603 0 
L 603 3500 
z
M 603 4863 
L 1178 4863 
L 1178 4134 
L 603 4134 
L 603 4863 
z
" transform="scale(0.015625)"/>
      <path id="DejaVuSans-6e" d="M 3513 2113 
L 3513 0 
L 2938 0 
L 2938 2094 
Q 2938 2591 2744 2837 
Q 2550 3084 2163 3084 
Q 1697 3084 1428 2787 
Q 1159 2491 1159 1978 
L 1159 0 
L 581 0 
L 581 3500 
L 1159 3500 
L 1159 2956 
Q 1366 3272 1645 3428 
Q 1925 3584 2291 3584 
Q 2894 3584 3203 3211 
Q 3513 2838 3513 2113 
z
" transform="scale(0.015625)"/>
      <path id="DejaVuSans-67" d="M 2906 1791 
Q 2906 2416 2648 2759 
Q 2391 3103 1925 3103 
Q 1463 3103 1205 2759 
Q 947 2416 947 1791 
Q 947 1169 1205 825 
Q 1463 481 1925 481 
Q 2391 481 2648 825 
Q 2906 1169 2906 1791 
z
M 3481 434 
Q 3481 -459 3084 -895 
Q 2688 -1331 1869 -1331 
Q 1566 -1331 1297 -1286 
Q 1028 -1241 775 -1147 
L 775 -588 
Q 1028 -725 1275 -790 
Q 1522 -856 1778 -856 
Q 2344 -856 2625 -561 
Q 2906 -266 2906 331 
L 2906 616 
Q 2728 306 2450 153 
Q 2172 0 1784 0 
Q 1141 0 747 490 
Q 353 981 353 1791 
Q 353 2603 747 3093 
Q 1141 3584 1784 3584 
Q 2172 3584 2450 3431 
Q 2728 3278 2906 2969 
L 2906 3500 
L 3481 3500 
L 3481 434 
z
" transform="scale(0.015625)"/>
     </defs>
     <use xlink:href="#DejaVuSans-74"/>
     <use xlink:href="#DejaVuSans-72" x="39.208984"/>
     <use xlink:href="#DejaVuSans-61" x="80.322266"/>
     <use xlink:href="#DejaVuSans-69" x="141.601562"/>
     <use xlink:href="#DejaVuSans-6e" x="169.384766"/>
     <use xlink:href="#DejaVuSans-69" x="232.763672"/>
     <use xlink:href="#DejaVuSans-6e" x="260.546875"/>
     <use xlink:href="#DejaVuSans-67" x="323.925781"/>
    </g>
   </g>
   <g id="legend_1">
    <g id="patch_7">
     <path d="M 609.340597 44.99625 
L 687.701534 44.99625 
Q 689.701534 44.99625 689.701534 42.99625 
L 689.701534 29.318125 
Q 689.701534 27.318125 687.701534 27.318125 
L 609.340597 27.318125 
Q 607.340597 27.318125 607.340597 29.318125 
L 607.340597 42.99625 
Q 607.340597 44.99625 609.340597 44.99625 
z
" style="fill: #ffffff; opacity: 0.8; stroke: #cccccc; stroke-linejoin: miter"/>
    </g>
    <g id="line2d_13">
     <path d="M 611.340597 35.416563 
L 621.340597 35.416563 
L 631.340597 35.416563 
" style="fill: none; stroke: #1f77b4; stroke-width: 1.5; stroke-linecap: square"/>
    </g>
    <g id="text_13">
     <!-- observed -->
     <g transform="translate(639.340597 38.916563) scale(0.1 -0.1)">
      <defs>
       <path id="DejaVuSans-6f" d="M 1959 3097 
Q 1497 3097 1228 2736 
Q 959 2375 959 1747 
Q 959 1119 1226 758 
Q 1494 397 1959 397 
Q 2419 397 2687 759 
Q 2956 1122 2956 1747 
Q 2956 2369 2687 2733 
Q 2419 3097 1959 3097 
z
M 1959 3584 
Q 2709 3584 3137 3096 
Q 3566 2609 3566 1747 
Q 3566 888 3137 398 
Q 2709 -91 1959 -91 
Q 1206 -91 779 398 
Q 353 888 353 1747 
Q 353 2609 779 3096 
Q 1206 3584 1959 3584 
z
" transform="scale(0.015625)"/>
       <path id="DejaVuSans-62" d="M 3116 1747 
Q 3116 2381 2855 2742 
Q 2594 3103 2138 3103 
Q 1681 3103 1420 2742 
Q 1159 2381 1159 1747 
Q 1159 1113 1420 752 
Q 1681 391 2138 391 
Q 2594 391 2855 752 
Q 3116 1113 3116 1747 
z
M 1159 2969 
Q 1341 3281 1617 3432 
Q 1894 3584 2278 3584 
Q 2916 3584 3314 3078 
Q 3713 2572 3713 1747 
Q 3713 922 3314 415 
Q 2916 -91 2278 -91 
Q 1894 -91 1617 61 
Q 1341 213 1159 525 
L 1159 0 
L 581 0 
L 581 4863 
L 1159 4863 
L 1159 2969 
z
" transform="scale(0.015625)"/>
       <path id="DejaVuSans-73" d="M 2834 3397 
L 2834 2853 
Q 2591 2978 2328 3040 
Q 2066 3103 1784 3103 
Q 1356 3103 1142 2972 
Q 928 2841 928 2578 
Q 928 2378 1081 2264 
Q 1234 2150 1697 2047 
L 1894 2003 
Q 2506 1872 2764 1633 
Q 3022 1394 3022 966 
Q 3022 478 2636 193 
Q 2250 -91 1575 -91 
Q 1294 -91 989 -36 
Q 684 19 347 128 
L 347 722 
Q 666 556 975 473 
Q 1284 391 1588 391 
Q 1994 391 2212 530 
Q 2431 669 2431 922 
Q 2431 1156 2273 1281 
Q 2116 1406 1581 1522 
L 1381 1569 
Q 847 1681 609 1914 
Q 372 2147 372 2553 
Q 372 3047 722 3315 
Q 1072 3584 1716 3584 
Q 2034 3584 2315 3537 
Q 2597 3491 2834 3397 
z
" transform="scale(0.015625)"/>
       <path id="DejaVuSans-65" d="M 3597 1894 
L 3597 1613 
L 953 1613 
Q 991 1019 1311 708 
Q 1631 397 2203 397 
Q 2534 397 2845 478 
Q 3156 559 3463 722 
L 3463 178 
Q 3153 47 2828 -22 
Q 2503 -91 2169 -91 
Q 1331 -91 842 396 
Q 353 884 353 1716 
Q 353 2575 817 3079 
Q 1281 3584 2069 3584 
Q 2775 3584 3186 3129 
Q 3597 2675 3597 1894 
z
M 3022 2063 
Q 3016 2534 2758 2815 
Q 2500 3097 2075 3097 
Q 1594 3097 1305 2825 
Q 1016 2553 972 2059 
L 3022 2063 
z
" transform="scale(0.015625)"/>
       <path id="DejaVuSans-76" d="M 191 3500 
L 800 3500 
L 1894 563 
L 2988 3500 
L 3597 3500 
L 2284 0 
L 1503 0 
L 191 3500 
z
" transform="scale(0.015625)"/>
       <path id="DejaVuSans-64" d="M 2906 2969 
L 2906 4863 
L 3481 4863 
L 3481 0 
L 2906 0 
L 2906 525 
Q 2725 213 2448 61 
Q 2172 -91 1784 -91 
Q 1150 -91 751 415 
Q 353 922 353 1747 
Q 353 2572 751 3078 
Q 1150 3584 1784 3584 
Q 2172 3584 2448 3432 
Q 2725 3281 2906 2969 
z
M 947 1747 
Q 947 1113 1208 752 
Q 1469 391 1925 391 
Q 2381 391 2643 752 
Q 2906 1113 2906 1747 
Q 2906 2381 2643 2742 
Q 2381 3103 1925 3103 
Q 1469 3103 1208 2742 
Q 947 2381 947 1747 
z
" transform="scale(0.015625)"/>
      </defs>
      <use xlink:href="#DejaVuSans-6f"/>
      <use xlink:href="#DejaVuSans-62" x="61.181641"/>
      <use xlink:href="#DejaVuSans-73" x="124.658203"/>
      <use xlink:href="#DejaVuSans-65" x="176.757812"/>
      <use xlink:href="#DejaVuSans-72" x="238.28125"/>
      <use xlink:href="#DejaVuSans-76" x="279.394531"/>
      <use xlink:href="#DejaVuSans-65" x="338.574219"/>
      <use xlink:href="#DejaVuSans-64" x="400.097656"/>
     </g>
    </g>
   </g>
  </g>
 </g>
 <defs>
  <clipPath id="pc6e77a97c7">
   <rect x="46.0125" y="22.318125" width="648.689034" height="305.24"/>
  </clipPath>
 </defs>
</svg>
