<?xml version="1.0" encoding="utf-8" standalone="no"?>
<!DOCTYPE svg PUBLIC "-//W3C//DTD SVG 1.1//EN"
  "http://www.w3.org/Graphics/SVG/1.1/DTD/svg11.dtd">
<svg xmlns:xlink="http://www.w3.org/1999/xlink" width="720pt" height="360pt" viewBox="0 0 720 360" xmlns="http://www.w3.org/2000/svg" version="1.1">
 <metadata>
  <rdf:RDF xmlns:dc="http://purl.org/dc/elements/1.1/" xmlns:cc="http://creativecommons.org/ns#" xmlns:rdf="http://www.w3.org/1999/02/22-rdf-syntax-ns#">
   <cc:Work>
    <dc:type rdf:resource="http://purl.org/dc/dcmitype/StillImage"/>
    <dc:date>2023-10-23T10:54:06.307053</dc:date>
    <dc:format>image/svg+xml</dc:format>
    <dc:creator>
     <cc:Agent>
      <dc:title>Matplotlib v3.7.1, https://matplotlib.org/</dc:title>
     </cc:Agent>
    </dc:creator>
   </cc:Work>
  </rdf:RDF>
 </metadata>
 <defs>
  <style type="text/css">*{stroke-linejoin: round; stroke-linecap: butt}</style>
 </defs>
 <g id="figure_1">
  <g id="patch_1">
   <path d="M 0 360 
L 720 360 
L 720 0 
L 0 0 
z
" style="fill: #ffffff"/>
  </g>
  <g id="axes_1">
   <g id="patch_2">
    <path d="M 90 288 
L 648 288 
L 648 43.2 
L 90 43.2 
z
" style="fill: #ffffff"/>
   </g>
   <g id="matplotlib.axis_1">
    <g id="xtick_1">
     <g id="line2d_1">
      <defs>
       <path id="m4fcf4da066" d="M 0 0 
L 0 3.5 
" style="stroke: #000000; stroke-width: 0.8"/>
      </defs>
      <g>
       <use xlink:href="#m4fcf4da066" x="149.370747" y="288" style="stroke: #000000; stroke-width: 0.8"/>
      </g>
     </g>
     <g id="text_1">
      <!-- 2023-08-15 -->
      <g transform="translate(87.727405 337.765903) rotate(-30) scale(0.12 -0.12)">
       <defs>
        <path id="DejaVuSans-32" d="M 1228 531 
L 3431 531 
L 3431 0 
L 469 0 
L 469 531 
Q 828 903 1448 1529 
Q 2069 2156 2228 2338 
Q 2531 2678 2651 2914 
Q 2772 3150 2772 3378 
Q 2772 3750 2511 3984 
Q 2250 4219 1831 4219 
Q 1534 4219 1204 4116 
Q 875 4013 500 3803 
L 500 4441 
Q 881 4594 1212 4672 
Q 1544 4750 1819 4750 
Q 2544 4750 2975 4387 
Q 3406 4025 3406 3419 
Q 3406 3131 3298 2873 
Q 3191 2616 2906 2266 
Q 2828 2175 2409 1742 
Q 1991 1309 1228 531 
z
" transform="scale(0.015625)"/>
        <path id="DejaVuSans-30" d="M 2034 4250 
Q 1547 4250 1301 3770 
Q 1056 3291 1056 2328 
Q 1056 1369 1301 889 
Q 1547 409 2034 409 
Q 2525 409 2770 889 
Q 3016 1369 3016 2328 
Q 3016 3291 2770 3770 
Q 2525 4250 2034 4250 
z
M 2034 4750 
Q 2819 4750 3233 4129 
Q 3647 3509 3647 2328 
Q 3647 1150 3233 529 
Q 2819 -91 2034 -91 
Q 1250 -91 836 529 
Q 422 1150 422 2328 
Q 422 3509 836 4129 
Q 1250 4750 2034 4750 
z
" transform="scale(0.015625)"/>
        <path id="DejaVuSans-33" d="M 2597 2516 
Q 3050 2419 3304 2112 
Q 3559 1806 3559 1356 
Q 3559 666 3084 287 
Q 2609 -91 1734 -91 
Q 1441 -91 1130 -33 
Q 819 25 488 141 
L 488 750 
Q 750 597 1062 519 
Q 1375 441 1716 441 
Q 2309 441 2620 675 
Q 2931 909 2931 1356 
Q 2931 1769 2642 2001 
Q 2353 2234 1838 2234 
L 1294 2234 
L 1294 2753 
L 1863 2753 
Q 2328 2753 2575 2939 
Q 2822 3125 2822 3475 
Q 2822 3834 2567 4026 
Q 2313 4219 1838 4219 
Q 1578 4219 1281 4162 
Q 984 4106 628 3988 
L 628 4550 
Q 988 4650 1302 4700 
Q 1616 4750 1894 4750 
Q 2613 4750 3031 4423 
Q 3450 4097 3450 3541 
Q 3450 3153 3228 2886 
Q 3006 2619 2597 2516 
z
" transform="scale(0.015625)"/>
        <path id="DejaVuSans-2d" d="M 313 2009 
L 1997 2009 
L 1997 1497 
L 313 1497 
L 313 2009 
z
" transform="scale(0.015625)"/>
        <path id="DejaVuSans-38" d="M 2034 2216 
Q 1584 2216 1326 1975 
Q 1069 1734 1069 1313 
Q 1069 891 1326 650 
Q 1584 409 2034 409 
Q 2484 409 2743 651 
Q 3003 894 3003 1313 
Q 3003 1734 2745 1975 
Q 2488 2216 2034 2216 
z
M 1403 2484 
Q 997 2584 770 2862 
Q 544 3141 544 3541 
Q 544 4100 942 4425 
Q 1341 4750 2034 4750 
Q 2731 4750 3128 4425 
Q 3525 4100 3525 3541 
Q 3525 3141 3298 2862 
Q 3072 2584 2669 2484 
Q 3125 2378 3379 2068 
Q 3634 1759 3634 1313 
Q 3634 634 3220 271 
Q 2806 -91 2034 -91 
Q 1263 -91 848 271 
Q 434 634 434 1313 
Q 434 1759 690 2068 
Q 947 2378 1403 2484 
z
M 1172 3481 
Q 1172 3119 1398 2916 
Q 1625 2713 2034 2713 
Q 2441 2713 2670 2916 
Q 2900 3119 2900 3481 
Q 2900 3844 2670 4047 
Q 2441 4250 2034 4250 
Q 1625 4250 1398 4047 
Q 1172 3844 1172 3481 
z
" transform="scale(0.015625)"/>
        <path id="DejaVuSans-31" d="M 794 531 
L 1825 531 
L 1825 4091 
L 703 3866 
L 703 4441 
L 1819 4666 
L 2450 4666 
L 2450 531 
L 3481 531 
L 3481 0 
L 794 0 
L 794 531 
z
" transform="scale(0.015625)"/>
        <path id="DejaVuSans-35" d="M 691 4666 
L 3169 4666 
L 3169 4134 
L 1269 4134 
L 1269 2991 
Q 1406 3038 1543 3061 
Q 1681 3084 1819 3084 
Q 2600 3084 3056 2656 
Q 3513 2228 3513 1497 
Q 3513 744 3044 326 
Q 2575 -91 1722 -91 
Q 1428 -91 1123 -41 
Q 819 9 494 109 
L 494 744 
Q 775 591 1075 516 
Q 1375 441 1709 441 
Q 2250 441 2565 725 
Q 2881 1009 2881 1497 
Q 2881 1984 2565 2268 
Q 2250 2553 1709 2553 
Q 1456 2553 1204 2497 
Q 953 2441 691 2322 
L 691 4666 
z
" transform="scale(0.015625)"/>
       </defs>
       <use xlink:href="#DejaVuSans-32"/>
       <use xlink:href="#DejaVuSans-30" x="63.623047"/>
       <use xlink:href="#DejaVuSans-32" x="127.246094"/>
       <use xlink:href="#DejaVuSans-33" x="190.869141"/>
       <use xlink:href="#DejaVuSans-2d" x="254.492188"/>
       <use xlink:href="#DejaVuSans-30" x="290.576172"/>
       <use xlink:href="#DejaVuSans-38" x="354.199219"/>
       <use xlink:href="#DejaVuSans-2d" x="417.822266"/>
       <use xlink:href="#DejaVuSans-31" x="453.90625"/>
       <use xlink:href="#DejaVuSans-35" x="517.529297"/>
      </g>
     </g>
    </g>
    <g id="xtick_2">
     <g id="line2d_2">
      <g>
       <use xlink:href="#m4fcf4da066" x="264.994921" y="288" style="stroke: #000000; stroke-width: 0.8"/>
      </g>
     </g>
     <g id="text_2">
      <!-- 2023-09-01 -->
      <g transform="translate(203.35158 337.765903) rotate(-30) scale(0.12 -0.12)">
       <defs>
        <path id="DejaVuSans-39" d="M 703 97 
L 703 672 
Q 941 559 1184 500 
Q 1428 441 1663 441 
Q 2288 441 2617 861 
Q 2947 1281 2994 2138 
Q 2813 1869 2534 1725 
Q 2256 1581 1919 1581 
Q 1219 1581 811 2004 
Q 403 2428 403 3163 
Q 403 3881 828 4315 
Q 1253 4750 1959 4750 
Q 2769 4750 3195 4129 
Q 3622 3509 3622 2328 
Q 3622 1225 3098 567 
Q 2575 -91 1691 -91 
Q 1453 -91 1209 -44 
Q 966 3 703 97 
z
M 1959 2075 
Q 2384 2075 2632 2365 
Q 2881 2656 2881 3163 
Q 2881 3666 2632 3958 
Q 2384 4250 1959 4250 
Q 1534 4250 1286 3958 
Q 1038 3666 1038 3163 
Q 1038 2656 1286 2365 
Q 1534 2075 1959 2075 
z
" transform="scale(0.015625)"/>
       </defs>
       <use xlink:href="#DejaVuSans-32"/>
       <use xlink:href="#DejaVuSans-30" x="63.623047"/>
       <use xlink:href="#DejaVuSans-32" x="127.246094"/>
       <use xlink:href="#DejaVuSans-33" x="190.869141"/>
       <use xlink:href="#DejaVuSans-2d" x="254.492188"/>
       <use xlink:href="#DejaVuSans-30" x="290.576172"/>
       <use xlink:href="#DejaVuSans-39" x="354.199219"/>
       <use xlink:href="#DejaVuSans-2d" x="417.822266"/>
       <use xlink:href="#DejaVuSans-30" x="453.90625"/>
       <use xlink:href="#DejaVuSans-31" x="517.529297"/>
      </g>
     </g>
    </g>
    <g id="xtick_3">
     <g id="line2d_3">
      <g>
       <use xlink:href="#m4fcf4da066" x="360.21483" y="288" style="stroke: #000000; stroke-width: 0.8"/>
      </g>
     </g>
     <g id="text_3">
      <!-- 2023-09-15 -->
      <g transform="translate(298.571488 337.765903) rotate(-30) scale(0.12 -0.12)">
       <use xlink:href="#DejaVuSans-32"/>
       <use xlink:href="#DejaVuSans-30" x="63.623047"/>
       <use xlink:href="#DejaVuSans-32" x="127.246094"/>
       <use xlink:href="#DejaVuSans-33" x="190.869141"/>
       <use xlink:href="#DejaVuSans-2d" x="254.492188"/>
       <use xlink:href="#DejaVuSans-30" x="290.576172"/>
       <use xlink:href="#DejaVuSans-39" x="354.199219"/>
       <use xlink:href="#DejaVuSans-2d" x="417.822266"/>
       <use xlink:href="#DejaVuSans-31" x="453.90625"/>
       <use xlink:href="#DejaVuSans-35" x="517.529297"/>
      </g>
     </g>
    </g>
    <g id="xtick_4">
     <g id="line2d_4">
      <g>
       <use xlink:href="#m4fcf4da066" x="469.037583" y="288" style="stroke: #000000; stroke-width: 0.8"/>
      </g>
     </g>
     <g id="text_4">
      <!-- 2023-10-01 -->
      <g transform="translate(407.394241 337.765903) rotate(-30) scale(0.12 -0.12)">
       <use xlink:href="#DejaVuSans-32"/>
       <use xlink:href="#DejaVuSans-30" x="63.623047"/>
       <use xlink:href="#DejaVuSans-32" x="127.246094"/>
       <use xlink:href="#DejaVuSans-33" x="190.869141"/>
       <use xlink:href="#DejaVuSans-2d" x="254.492188"/>
       <use xlink:href="#DejaVuSans-31" x="290.576172"/>
       <use xlink:href="#DejaVuSans-30" x="354.199219"/>
       <use xlink:href="#DejaVuSans-2d" x="417.822266"/>
       <use xlink:href="#DejaVuSans-30" x="453.90625"/>
       <use xlink:href="#DejaVuSans-31" x="517.529297"/>
      </g>
     </g>
    </g>
    <g id="xtick_5">
     <g id="line2d_5">
      <g>
       <use xlink:href="#m4fcf4da066" x="564.257491" y="288" style="stroke: #000000; stroke-width: 0.8"/>
      </g>
     </g>
     <g id="text_5">
      <!-- 2023-10-15 -->
      <g transform="translate(502.614149 337.765903) rotate(-30) scale(0.12 -0.12)">
       <use xlink:href="#DejaVuSans-32"/>
       <use xlink:href="#DejaVuSans-30" x="63.623047"/>
       <use xlink:href="#DejaVuSans-32" x="127.246094"/>
       <use xlink:href="#DejaVuSans-33" x="190.869141"/>
       <use xlink:href="#DejaVuSans-2d" x="254.492188"/>
       <use xlink:href="#DejaVuSans-31" x="290.576172"/>
       <use xlink:href="#DejaVuSans-30" x="354.199219"/>
       <use xlink:href="#DejaVuSans-2d" x="417.822266"/>
       <use xlink:href="#DejaVuSans-31" x="453.90625"/>
       <use xlink:href="#DejaVuSans-35" x="517.529297"/>
      </g>
     </g>
    </g>
   </g>
   <g id="matplotlib.axis_2">
    <g id="ytick_1">
     <g id="line2d_6">
      <defs>
       <path id="m00d2e31a82" d="M 0 0 
L -3.5 0 
" style="stroke: #000000; stroke-width: 0.8"/>
      </defs>
      <g>
       <use xlink:href="#m00d2e31a82" x="90" y="284.095232" style="stroke: #000000; stroke-width: 0.8"/>
      </g>
     </g>
     <g id="text_6">
      <!-- 0.5 -->
      <g transform="translate(63.91625 288.654294) scale(0.12 -0.12)">
       <defs>
        <path id="DejaVuSans-2e" d="M 684 794 
L 1344 794 
L 1344 0 
L 684 0 
L 684 794 
z
" transform="scale(0.015625)"/>
       </defs>
       <use xlink:href="#DejaVuSans-30"/>
       <use xlink:href="#DejaVuSans-2e" x="63.623047"/>
       <use xlink:href="#DejaVuSans-35" x="95.410156"/>
      </g>
     </g>
    </g>
    <g id="ytick_2">
     <g id="line2d_7">
      <g>
       <use xlink:href="#m00d2e31a82" x="90" y="245.298548" style="stroke: #000000; stroke-width: 0.8"/>
      </g>
     </g>
     <g id="text_7">
      <!-- 1.0 -->
      <g transform="translate(63.91625 249.85761) scale(0.12 -0.12)">
       <use xlink:href="#DejaVuSans-31"/>
       <use xlink:href="#DejaVuSans-2e" x="63.623047"/>
       <use xlink:href="#DejaVuSans-30" x="95.410156"/>
      </g>
     </g>
    </g>
    <g id="ytick_3">
     <g id="line2d_8">
      <g>
       <use xlink:href="#m00d2e31a82" x="90" y="206.501864" style="stroke: #000000; stroke-width: 0.8"/>
      </g>
     </g>
     <g id="text_8">
      <!-- 1.5 -->
      <g transform="translate(63.91625 211.060926) scale(0.12 -0.12)">
       <use xlink:href="#DejaVuSans-31"/>
       <use xlink:href="#DejaVuSans-2e" x="63.623047"/>
       <use xlink:href="#DejaVuSans-35" x="95.410156"/>
      </g>
     </g>
    </g>
    <g id="ytick_4">
     <g id="line2d_9">
      <g>
       <use xlink:href="#m00d2e31a82" x="90" y="167.70518" style="stroke: #000000; stroke-width: 0.8"/>
      </g>
     </g>
     <g id="text_9">
      <!-- 2.0 -->
      <g transform="translate(63.91625 172.264242) scale(0.12 -0.12)">
       <use xlink:href="#DejaVuSans-32"/>
       <use xlink:href="#DejaVuSans-2e" x="63.623047"/>
       <use xlink:href="#DejaVuSans-30" x="95.410156"/>
      </g>
     </g>
    </g>
    <g id="ytick_5">
     <g id="line2d_10">
      <g>
       <use xlink:href="#m00d2e31a82" x="90" y="128.908496" style="stroke: #000000; stroke-width: 0.8"/>
      </g>
     </g>
     <g id="text_10">
      <!-- 2.5 -->
      <g transform="translate(63.91625 133.467558) scale(0.12 -0.12)">
       <use xlink:href="#DejaVuSans-32"/>
       <use xlink:href="#DejaVuSans-2e" x="63.623047"/>
       <use xlink:href="#DejaVuSans-35" x="95.410156"/>
      </g>
     </g>
    </g>
    <g id="ytick_6">
     <g id="line2d_11">
      <g>
       <use xlink:href="#m00d2e31a82" x="90" y="90.111812" style="stroke: #000000; stroke-width: 0.8"/>
      </g>
     </g>
     <g id="text_11">
      <!-- 3.0 -->
      <g transform="translate(63.91625 94.670874) scale(0.12 -0.12)">
       <use xlink:href="#DejaVuSans-33"/>
       <use xlink:href="#DejaVuSans-2e" x="63.623047"/>
       <use xlink:href="#DejaVuSans-30" x="95.410156"/>
      </g>
     </g>
    </g>
    <g id="ytick_7">
     <g id="line2d_12">
      <g>
       <use xlink:href="#m00d2e31a82" x="90" y="51.315127" style="stroke: #000000; stroke-width: 0.8"/>
      </g>
     </g>
     <g id="text_12">
      <!-- 3.5 -->
      <g transform="translate(63.91625 55.87419) scale(0.12 -0.12)">
       <use xlink:href="#DejaVuSans-33"/>
       <use xlink:href="#DejaVuSans-2e" x="63.623047"/>
       <use xlink:href="#DejaVuSans-35" x="95.410156"/>
      </g>
     </g>
    </g>
    <g id="text_13">
     <!-- Meters -->
     <g transform="translate(57.836562 182.6875) rotate(-90) scale(0.1 -0.1)">
      <defs>
       <path id="DejaVuSans-4d" d="M 628 4666 
L 1569 4666 
L 2759 1491 
L 3956 4666 
L 4897 4666 
L 4897 0 
L 4281 0 
L 4281 4097 
L 3078 897 
L 2444 897 
L 1241 4097 
L 1241 0 
L 628 0 
L 628 4666 
z
" transform="scale(0.015625)"/>
       <path id="DejaVuSans-65" d="M 3597 1894 
L 3597 1613 
L 953 1613 
Q 991 1019 1311 708 
Q 1631 397 2203 397 
Q 2534 397 2845 478 
Q 3156 559 3463 722 
L 3463 178 
Q 3153 47 2828 -22 
Q 2503 -91 2169 -91 
Q 1331 -91 842 396 
Q 353 884 353 1716 
Q 353 2575 817 3079 
Q 1281 3584 2069 3584 
Q 2775 3584 3186 3129 
Q 3597 2675 3597 1894 
z
M 3022 2063 
Q 3016 2534 2758 2815 
Q 2500 3097 2075 3097 
Q 1594 3097 1305 2825 
Q 1016 2553 972 2059 
L 3022 2063 
z
" transform="scale(0.015625)"/>
       <path id="DejaVuSans-74" d="M 1172 4494 
L 1172 3500 
L 2356 3500 
L 2356 3053 
L 1172 3053 
L 1172 1153 
Q 1172 725 1289 603 
Q 1406 481 1766 481 
L 2356 481 
L 2356 0 
L 1766 0 
Q 1100 0 847 248 
Q 594 497 594 1153 
L 594 3053 
L 172 3053 
L 172 3500 
L 594 3500 
L 594 4494 
L 1172 4494 
z
" transform="scale(0.015625)"/>
       <path id="DejaVuSans-72" d="M 2631 2963 
Q 2534 3019 2420 3045 
Q 2306 3072 2169 3072 
Q 1681 3072 1420 2755 
Q 1159 2438 1159 1844 
L 1159 0 
L 581 0 
L 581 3500 
L 1159 3500 
L 1159 2956 
Q 1341 3275 1631 3429 
Q 1922 3584 2338 3584 
Q 2397 3584 2469 3576 
Q 2541 3569 2628 3553 
L 2631 2963 
z
" transform="scale(0.015625)"/>
       <path id="DejaVuSans-73" d="M 2834 3397 
L 2834 2853 
Q 2591 2978 2328 3040 
Q 2066 3103 1784 3103 
Q 1356 3103 1142 2972 
Q 928 2841 928 2578 
Q 928 2378 1081 2264 
Q 1234 2150 1697 2047 
L 1894 2003 
Q 2506 1872 2764 1633 
Q 3022 1394 3022 966 
Q 3022 478 2636 193 
Q 2250 -91 1575 -91 
Q 1294 -91 989 -36 
Q 684 19 347 128 
L 347 722 
Q 666 556 975 473 
Q 1284 391 1588 391 
Q 1994 391 2212 530 
Q 2431 669 2431 922 
Q 2431 1156 2273 1281 
Q 2116 1406 1581 1522 
L 1381 1569 
Q 847 1681 609 1914 
Q 372 2147 372 2553 
Q 372 3047 722 3315 
Q 1072 3584 1716 3584 
Q 2034 3584 2315 3537 
Q 2597 3491 2834 3397 
z
" transform="scale(0.015625)"/>
      </defs>
      <use xlink:href="#DejaVuSans-4d"/>
      <use xlink:href="#DejaVuSans-65" x="86.279297"/>
      <use xlink:href="#DejaVuSans-74" x="147.802734"/>
      <use xlink:href="#DejaVuSans-65" x="187.011719"/>
      <use xlink:href="#DejaVuSans-72" x="248.535156"/>
      <use xlink:href="#DejaVuSans-73" x="289.648438"/>
     </g>
    </g>
   </g>
   <g id="line2d_13">
    <path d="M 115.363636 131.05264 
L 115.930422 132.521365 
L 116.497207 133.400531 
L 117.630777 135.831168 
L 117.91417 135.960457 
L 119.614525 139.877919 
L 119.897918 140.93809 
L 120.18131 140.679512 
L 120.748095 142.308555 
L 121.031488 141.597465 
L 121.598273 142.825712 
L 122.165058 144.144462 
L 123.582021 147.415478 
L 124.148807 148.411004 
L 124.715592 150.104693 
L 125.282377 150.996788 
L 125.849162 153.608429 
L 126.415947 155.185757 
L 128.116303 158.650707 
L 128.399695 157.642251 
L 128.96648 158.327484 
L 130.100051 160.305608 
L 130.383443 161.262348 
L 132.083799 164.58508 
L 132.933977 167.4553 
L 133.217369 168.321537 
L 133.500762 194.929249 
L 133.784154 169.498069 
L 134.067547 170.131586 
L 134.917725 171.023681 
L 136.901473 175.716878 
L 137.184865 175.936669 
L 138.885221 179.233543 
L 139.735399 182.103763 
L 140.868969 184.353395 
L 141.152362 184.637831 
L 143.702895 190.533417 
L 144.553073 192.77012 
L 145.970036 195.976491 
L 146.253428 196.661724 
L 146.820213 198.484701 
L 147.386998 200.178389 
L 147.670391 200.281821 
L 147.953784 201.135129 
L 148.237176 201.419566 
L 148.803961 202.91932 
L 149.087354 203.164969 
L 149.370747 204.031207 
L 149.654139 203.914847 
L 149.937532 204.289785 
L 150.504317 205.608535 
L 150.787709 206.009331 
L 151.071102 206.112763 
L 151.354495 206.707493 
L 151.637887 206.578204 
L 151.92128 207.147076 
L 152.204672 206.397199 
L 152.488065 206.203265 
L 152.771458 154.035083 
L 153.05485 204.703511 
L 153.338243 203.798486 
L 154.188421 198.61399 
L 154.471813 198.032189 
L 155.605383 191.684091 
L 156.738954 184.249963 
L 157.872524 173.014734 
L 160.139665 149.367744 
L 161.273235 140.433862 
L 161.84002 136.089746 
L 162.406805 133.516892 
L 162.690198 132.598938 
L 162.973591 132.34036 
L 163.823768 129.638216 
L 164.107161 129.689932 
L 164.390554 129.314993 
L 164.673946 129.289136 
L 165.524124 129.793363 
L 166.090909 130.840606 
L 166.374302 131.62927 
L 166.657694 132.805801 
L 167.224479 133.956475 
L 167.507872 134.383129 
L 167.791265 134.00819 
L 168.074657 132.844588 
L 168.35805 132.637725 
L 168.641442 132.676512 
L 169.208228 133.103166 
L 169.49162 132.081782 
L 169.775013 132.120568 
L 170.058405 132.392076 
L 170.341798 132.430863 
L 170.62519 132.779943 
L 170.908583 132.844588 
L 171.475368 132.650654 
L 172.608939 130.582027 
L 172.892331 129.870937 
L 173.459116 129.289136 
L 174.025901 127.841097 
L 174.309294 127.479087 
L 175.726257 124.621796 
L 176.00965 124.492507 
L 176.293042 124.608868 
L 176.576435 125.048451 
L 177.710005 125.307029 
L 177.993398 125.513892 
L 179.410361 127.414443 
L 179.693753 128.28068 
L 179.977146 128.64269 
L 180.260538 129.870937 
L 181.960894 133.801328 
L 182.244286 134.021119 
L 182.527679 134.408987 
L 183.094464 135.947528 
L 183.377857 137.12406 
L 184.79482 140.136497 
L 185.361605 141.519891 
L 186.211783 143.4463 
L 186.495175 143.743665 
L 187.06196 145.747647 
L 187.628746 147.518909 
L 188.195531 149.445318 
L 189.612494 152.793907 
L 190.179279 155.612411 
L 190.462671 155.754629 
L 191.312849 159.581589 
L 191.596242 160.538329 
L 191.879634 161.973439 
L 192.163027 162.684529 
L 192.729812 164.921232 
L 193.296597 166.692494 
L 193.57999 167.894883 
L 194.146775 170.79096 
L 196.980701 180.720369 
L 198.681056 186.31859 
L 199.247842 187.714913 
L 200.948197 192.472755 
L 201.23159 193.571713 
L 201.798375 195.110254 
L 202.081767 196.247999 
L 202.36516 196.493648 
L 202.648553 196.984947 
L 203.215338 198.329554 
L 203.782123 200.29475 
L 204.065515 200.617973 
L 205.482478 203.901918 
L 206.899441 206.474772 
L 207.182834 207.547872 
L 207.466227 276.872727 
L 207.749619 203.371832 
L 208.316404 194.256945 
L 208.883189 186.111727 
L 209.733367 175.070432 
L 210.300152 158.61192 
L 211.717115 109.145882 
L 212.2839 95.635164 
L 213.134078 81.568502 
L 213.984256 72.518259 
L 214.834434 66.687318 
L 215.684611 62.886216 
L 216.534789 60.429722 
L 217.101574 59.485911 
L 217.384967 56.447615 
L 217.66836 54.689282 
L 217.951752 54.327273 
L 218.235145 54.391917 
L 218.518537 54.611709 
L 221.069071 58.205948 
L 222.202641 60.494366 
L 223.336211 62.679353 
L 223.619604 62.912074 
L 224.186389 63.726596 
L 224.469782 63.532662 
L 224.753174 63.700738 
L 225.036567 63.610235 
L 225.603352 63.700738 
L 225.886745 63.881743 
L 226.45353 63.972245 
L 226.736922 64.114463 
L 227.303707 64.735051 
L 228.437278 67.73456 
L 230.137633 74.89718 
L 235.2387 102.642637 
L 237.505841 109.779399 
L 237.789233 111.111078 
L 238.922803 113.787364 
L 239.489589 115.26126 
L 240.056374 116.450721 
L 240.339766 117.2911 
L 241.189944 118.881357 
L 241.473337 119.68295 
L 241.756729 120.846553 
L 242.323514 121.906724 
L 242.606907 122.165302 
L 243.173692 122.928108 
L 243.457085 122.953966 
L 243.740477 123.406478 
L 244.590655 125.669039 
L 244.874048 125.940546 
L 246.007618 127.80231 
L 247.707974 130.801819 
L 247.991366 131.021611 
L 248.841544 133.348816 
L 249.408329 133.594465 
L 249.691722 134.150409 
L 249.975114 134.434845 
L 250.541899 135.546732 
L 250.825292 135.650163 
L 251.108685 134.046977 
L 251.67547 134.215053 
L 251.958862 134.693423 
L 252.242255 134.926144 
L 253.092433 136.102675 
L 253.375825 136.244893 
L 253.94261 136.99477 
L 254.226003 137.111131 
L 255.359573 138.54624 
L 255.926359 139.050468 
L 256.209751 139.580554 
L 256.776536 139.735701 
L 257.343321 139.567625 
L 257.910107 140.395076 
L 258.193499 140.912232 
L 258.476892 140.808801 
L 258.760284 140.860517 
L 259.893855 141.89483 
L 260.177247 141.868972 
L 260.744033 142.437845 
L 261.027425 142.554205 
L 261.310818 142.955001 
L 261.59421 142.929143 
L 262.160995 144.609903 
L 263.011173 145.657145 
L 263.294566 145.812292 
L 263.861351 145.489069 
L 264.144744 145.799363 
L 264.428136 146.613885 
L 264.711529 147.001752 
L 265.278314 148.34636 
L 265.561706 148.630796 
L 265.845099 149.147953 
L 266.411884 150.570134 
L 268.395632 155.082326 
L 268.679025 156.129568 
L 268.962417 156.69844 
L 269.24581 157.823256 
L 270.095988 159.659162 
L 270.37938 159.840167 
L 270.662773 160.305608 
L 270.946166 161.184775 
L 271.229558 161.624358 
L 271.512951 162.43888 
L 271.796343 163.731771 
L 272.363128 165.06345 
L 272.646521 165.477175 
L 273.496699 167.791451 
L 273.780091 168.5284 
L 274.063484 168.877481 
L 274.346877 168.670618 
L 276.047232 173.699967 
L 276.330625 173.997332 
L 276.89741 175.005787 
L 277.747588 176.466755 
L 278.03098 177.12613 
L 278.314373 178.186301 
L 280.298121 181.961545 
L 280.581513 182.220123 
L 281.148299 183.21565 
L 281.715084 183.474228 
L 281.998476 184.133603 
L 282.565262 186.021225 
L 283.415439 187.365832 
L 283.698832 187.39169 
L 284.832402 188.438933 
L 285.399187 189.951616 
L 285.68258 189.473246 
L 286.249365 191.179863 
L 286.532758 190.585133 
L 287.666328 193.24849 
L 287.949721 192.88648 
L 288.516506 194.024225 
L 288.799898 193.985438 
L 289.366684 195.640339 
L 289.933469 196.894444 
L 290.783647 197.696037 
L 291.350432 197.993402 
L 291.633824 198.355412 
L 291.917217 199.725877 
L 292.200609 200.307679 
L 292.484002 200.359394 
L 293.050787 201.018769 
L 293.33418 201.535926 
L 293.617572 201.807433 
L 295.034535 204.186354 
L 295.884713 204.975018 
L 296.168106 206.125691 
L 296.734891 207.017787 
L 297.018283 207.315152 
L 297.301676 207.793522 
L 297.585069 207.832309 
L 298.151854 208.465826 
L 298.435246 208.944195 
L 298.718639 210.056082 
L 299.002031 210.56031 
L 299.568817 210.262945 
L 299.852209 211.40069 
L 300.135602 212.034207 
L 300.418994 212.279856 
L 300.702387 212.70651 
L 300.98578 212.822871 
L 301.269172 213.844255 
L 302.11935 214.529488 
L 302.402743 214.361412 
L 302.686135 215.589659 
L 302.969528 215.874095 
L 303.25292 216.352465 
L 303.536313 216.546399 
L 303.819705 217.102342 
L 304.103098 216.675688 
L 304.386491 217.205774 
L 304.669883 217.283347 
L 304.953276 218.046153 
L 305.236668 217.878077 
L 305.803454 219.183898 
L 306.086846 219.287329 
L 306.370239 219.067538 
L 307.220416 220.140638 
L 307.503809 220.282856 
L 307.787202 220.748297 
L 308.070594 220.696581 
L 308.353987 220.800013 
L 308.637379 221.265454 
L 309.204165 221.472316 
L 309.487557 221.601606 
L 309.77095 222.079975 
L 310.621127 222.648848 
L 311.187913 223.618517 
L 311.471305 223.709019 
L 311.754698 223.372867 
L 312.03809 223.734877 
L 312.321483 223.566801 
L 312.604876 223.166005 
L 313.455053 223.010858 
L 314.021838 223.075502 
L 316.005587 222.338554 
L 316.288979 222.377341 
L 316.572372 222.054118 
L 316.855764 222.364412 
L 317.139157 222.248051 
L 317.42255 222.338554 
L 317.705942 222.131691 
L 317.989335 222.118762 
L 318.55612 221.562819 
L 318.839512 221.110307 
L 319.122905 221.097378 
L 319.406298 220.942231 
L 319.68969 220.929302 
L 319.973083 221.174951 
L 321.106653 221.110307 
L 321.673438 221.162022 
L 321.956831 221.084449 
L 322.240223 220.670724 
L 323.090401 220.929302 
L 323.657186 221.821397 
L 323.940579 222.041189 
L 324.223972 221.989473 
L 324.790757 222.286838 
L 325.074149 222.299767 
L 325.357542 222.118762 
L 325.924327 222.325625 
L 326.20772 222.584203 
L 326.491112 223.127218 
L 326.774505 223.230649 
L 327.34129 223.81245 
L 327.624683 223.890024 
L 328.191468 224.264963 
L 328.47486 224.497683 
L 328.758253 224.303749 
L 329.041646 224.626972 
L 329.325038 224.614043 
L 329.608431 224.730404 
L 329.891823 225.221702 
L 330.742001 225.868148 
L 331.592179 226.695599 
L 332.158964 226.605097 
L 332.442357 226.850746 
L 332.725749 227.445476 
L 333.009142 227.716983 
L 333.859319 227.885059 
L 334.142712 228.078993 
L 334.426105 228.71251 
L 334.709497 228.803013 
L 334.99289 229.242596 
L 335.843068 229.850255 
L 336.12646 229.927828 
L 336.693245 229.66925 
L 336.976638 230.082975 
L 337.26003 231.246578 
L 337.543423 231.479298 
L 337.826816 231.233649 
L 338.960386 230.936284 
L 339.527171 230.302767 
L 339.810564 230.173478 
L 343.77806 228.803013 
L 345.478415 229.436529 
L 346.045201 228.376358 
L 346.611986 228.389287 
L 346.895378 228.027277 
L 347.178771 228.415145 
L 347.745556 228.156567 
L 348.028949 228.182424 
L 348.312341 227.923846 
L 348.595734 227.923846 
L 349.445912 227.652339 
L 349.729304 227.742841 
L 350.012697 227.63941 
L 350.862875 228.996946 
L 351.146267 229.035733 
L 351.42966 229.320169 
L 351.996445 228.815941 
L 352.279837 228.156567 
L 352.56323 228.247069 
L 352.846623 228.11778 
L 353.413408 228.971088 
L 353.6968 228.686652 
L 353.980193 228.622008 
L 354.263586 228.208282 
L 355.113763 228.971088 
L 355.397156 228.932302 
L 355.963941 229.410672 
L 356.247334 229.397743 
L 356.530726 229.501174 
L 356.814119 229.281382 
L 357.097511 229.397743 
L 357.380904 230.897497 
L 357.664297 231.543943 
L 357.947689 231.69909 
L 358.231082 231.531014 
L 359.08126 230.082975 
L 359.648045 230.548416 
L 359.931437 231.621517 
L 360.21483 231.647374 
L 360.498222 231.440512 
L 360.781615 231.492227 
L 361.065008 231.724948 
L 361.3484 231.763735 
L 361.915185 232.151602 
L 363.332148 232.836835 
L 363.615541 232.681688 
L 363.898933 232.77219 
L 364.182326 233.185916 
L 364.749111 234.582239 
L 365.315896 234.659812 
L 365.599289 234.68567 
L 365.882682 234.478807 
L 366.166074 234.427092 
L 366.732859 235.52605 
L 367.299644 235.189898 
L 367.583037 235.39676 
L 367.86643 235.422618 
L 368.716607 235.900988 
L 369.566785 236.431074 
L 370.13357 236.780155 
L 370.416963 236.612079 
L 370.700356 236.301785 
L 370.983748 237.478316 
L 371.267141 237.90497 
L 372.117318 238.241122 
L 372.684104 237.943757 
L 372.967496 238.021331 
L 373.534281 238.577274 
L 373.817674 238.74535 
L 374.101067 238.616061 
L 374.384459 238.344554 
L 374.667852 238.318696 
L 375.518029 238.926355 
L 376.368207 239.353009 
L 376.6516 239.70209 
L 376.934992 239.45644 
L 377.218385 239.740877 
L 377.501778 239.740877 
L 378.351955 240.568327 
L 378.635348 240.736403 
L 378.91874 241.305276 
L 380.052311 241.602641 
L 380.619096 242.09394 
L 380.902489 241.563854 
L 381.185881 241.305276 
L 381.752666 241.835361 
L 382.036059 241.861219 
L 382.602844 242.378376 
L 382.886237 242.300802 
L 383.169629 242.055153 
L 383.453022 242.184442 
L 384.586592 243.179969 
L 384.869985 244.072064 
L 385.153377 244.395287 
L 385.43677 244.3565 
L 385.720163 244.524576 
L 386.003555 244.097922 
L 386.57034 243.903988 
L 386.853733 244.201353 
L 387.137125 244.886586 
L 387.420518 245.106377 
L 387.703911 244.899515 
L 387.987303 244.860728 
L 388.554088 245.106377 
L 388.837481 245.158093 
L 389.120874 245.041733 
L 389.404266 245.352027 
L 389.971051 245.468387 
L 390.254444 245.442529 
L 390.537836 245.558889 
L 390.821229 245.067591 
L 391.104622 245.701108 
L 391.388014 247.485298 
L 391.671407 247.640445 
L 392.521585 246.929355 
L 393.08837 246.037259 
L 393.371762 246.037259 
L 393.655155 246.295838 
L 393.938547 247.032786 
L 394.505333 246.593203 
L 394.788725 246.593203 
L 395.072118 246.929355 
L 395.35551 247.084502 
L 395.638903 247.084502 
L 395.922296 246.903497 
L 396.205688 247.006928 
L 396.489081 246.825923 
L 397.622651 246.98107 
L 397.906044 246.657847 
L 398.189436 247.11036 
L 398.472829 247.213791 
L 398.756221 247.743876 
L 399.606399 247.756805 
L 399.889792 247.511156 
L 400.456577 247.795592 
L 400.73997 247.70509 
L 401.306755 247.34308 
L 401.590147 247.640445 
L 402.440325 248.105886 
L 402.723718 247.950739 
L 403.00711 248.067099 
L 403.290503 247.93781 
L 403.573895 247.963668 
L 404.140681 248.467896 
L 404.707466 248.144673 
L 405.274251 250.045224 
L 405.557643 250.187442 
L 406.124429 249.747859 
L 406.691214 248.855763 
L 407.257999 249.722001 
L 407.824784 249.631498 
L 408.108177 249.476351 
L 408.674962 249.877148 
L 408.958354 250.08401 
L 409.241747 250.135726 
L 409.52514 250.471878 
L 409.808532 250.588238 
L 410.375317 250.549452 
L 411.225495 250.976106 
L 411.508888 250.937319 
L 412.075673 252.527576 
L 412.359066 252.889586 
L 412.642458 252.827527 
L 413.209243 251.389831 
L 413.492636 251.694954 
L 413.776028 250.898532 
L 414.059421 250.769243 
L 414.342814 250.963177 
L 414.626206 250.976106 
L 415.192991 251.2864 
L 415.476384 251.260542 
L 416.326562 252.217282 
L 416.609954 252.204353 
L 417.176739 252.579292 
L 417.743525 252.786154 
L 418.026917 252.450002 
L 418.31031 252.346571 
L 418.593702 253.691178 
L 418.877095 254.38934 
L 420.294058 253.342098 
L 420.57745 253.31624 
L 420.860843 253.109377 
L 421.144236 253.975615 
L 421.427628 253.729965 
L 421.711021 253.975615 
L 421.994413 253.898041 
L 422.277806 254.285909 
L 422.561199 253.962686 
L 423.127984 254.376411 
L 423.411376 254.634989 
L 423.694769 254.583274 
L 423.978162 254.738421 
L 424.828339 254.660847 
L 425.111732 254.143691 
L 425.395124 255.34608 
L 425.96191 256.018384 
L 426.245302 255.46244 
L 427.09548 255.139217 
L 427.378873 255.34608 
L 427.662265 255.190933 
L 427.945658 255.798592 
L 428.22905 255.656374 
L 428.512443 255.811521 
L 428.795835 255.203862 
L 429.362621 255.113359 
L 429.929406 255.695161 
L 430.212798 255.565871 
L 430.496191 255.682232 
L 430.779584 255.643445 
L 431.062976 255.320222 
L 431.629761 255.746876 
L 432.196546 256.703616 
L 432.479939 256.651901 
L 432.763332 257.065626 
L 433.046724 257.156128 
L 433.330117 256.954437 
L 433.613509 257.039768 
L 433.896902 256.677758 
L 434.463687 256.587256 
L 435.030472 256.276962 
L 435.597257 256.470896 
L 436.164043 256.858763 
L 436.447435 256.638972 
L 436.730828 257.026839 
L 437.297613 257.078555 
L 437.581006 257.01391 
L 437.864398 256.742403 
L 438.147791 256.690687 
L 438.431183 256.794119 
L 438.997969 257.298346 
L 439.564754 257.350062 
L 439.848146 257.181986 
L 440.131539 257.285417 
L 440.414931 257.621569 
L 440.698324 257.311275 
L 440.981717 257.169057 
L 441.265109 257.181986 
L 441.831894 256.923408 
L 442.115287 256.89755 
L 442.965465 256.30282 
L 443.248857 256.367464 
L 443.53225 256.134744 
L 443.815642 256.289891 
L 444.949213 254.893568 
L 445.232605 254.854781 
L 445.515998 254.932355 
L 445.799391 254.634989 
L 446.082783 254.996999 
L 446.366176 254.971141 
L 446.649568 255.152146 
L 446.932961 254.363482 
L 447.216353 254.298838 
L 448.066531 253.536031 
L 448.349924 253.497245 
L 448.916709 253.005946 
L 449.200102 253.005946 
L 449.766887 253.587747 
L 450.333672 252.95423 
L 450.617064 252.618078 
L 450.900457 252.488789 
L 451.18385 252.501718 
L 452.600813 252.023348 
L 452.884205 252.191424 
L 453.167598 252.695652 
L 453.45099 252.579292 
L 453.734383 252.773225 
L 454.017776 252.424145 
L 454.301168 252.773225 
L 454.867953 252.256069 
L 455.151346 251.790628 
L 455.718131 251.661338 
L 456.001524 251.622552 
L 456.284916 251.790628 
L 456.568309 251.738912 
L 456.851701 251.532049 
L 457.985272 251.583765 
L 459.118842 251.51912 
L 459.96902 252.191424 
L 460.252412 252.450002 
L 460.535805 252.527576 
L 461.669375 251.958704 
L 461.952768 251.919917 
L 462.519553 252.204353 
L 462.802946 252.553434 
L 463.369731 252.643936 
L 463.653123 252.83787 
L 464.219909 252.915443 
L 465.353479 253.31624 
L 465.920264 253.523103 
L 466.487049 256.05717 
L 466.770442 255.397796 
L 467.053834 255.048715 
L 467.904012 253.057661 
L 468.187405 253.083519 
L 468.470797 254.053188 
L 468.75419 254.208335 
L 469.037583 254.195406 
L 469.320975 254.066117 
L 469.604368 254.130762 
L 469.88776 254.066117 
L 470.737938 254.466913 
L 471.304723 254.402269 
L 471.871508 254.764279 
L 472.154901 254.75135 
L 472.438294 254.86771 
L 472.721686 254.5057 
L 473.005079 255.048715 
L 473.288471 254.996999 
L 473.571864 255.371938 
L 473.855256 256.225246 
L 474.138649 256.134744 
L 474.705434 254.98407 
L 474.988827 255.268506 
L 475.272219 256.031312 
L 475.555612 256.160602 
L 476.122397 256.005455 
L 476.40579 256.083028 
L 476.689182 256.315749 
L 477.53936 256.432109 
L 477.822753 256.858763 
L 478.389538 256.845834 
L 478.67293 257.052697 
L 479.239716 257.039768 
L 479.523108 256.819976 
L 479.806501 257.85429 
L 480.089893 258.306802 
L 480.373286 258.319731 
L 480.940071 258.099939 
L 481.506856 256.677758 
L 481.790249 256.871692 
L 482.073641 258.022366 
L 482.357034 258.2163 
L 482.640427 257.867219 
L 482.923819 257.763787 
L 483.207212 257.931863 
L 483.490604 257.85429 
L 484.340782 258.33266 
L 484.624175 258.293873 
L 484.907567 258.500736 
L 485.474352 258.539522 
L 486.32453 258.720527 
L 486.607923 259.935846 
L 486.891315 260.168566 
L 487.174708 260.078064 
L 488.308278 257.916349 
L 488.591671 258.125797 
L 488.875063 259.547978 
L 489.158456 259.483333 
L 489.725241 258.772243 
L 490.008634 258.56538 
L 490.575419 258.81103 
L 490.858812 258.733456 
L 491.425597 257.944792 
L 491.708989 258.772243 
L 491.992382 259.198897 
L 492.84256 258.591238 
L 493.125952 258.061153 
L 493.409345 259.224755 
L 493.692737 259.457476 
L 493.97613 259.276471 
L 494.259523 258.81103 
L 494.542915 258.759314 
L 494.826308 258.345589 
L 495.1097 258.642954 
L 495.393093 258.345589 
L 495.676486 258.746385 
L 495.959878 259.535049 
L 496.243271 258.862745 
L 496.526663 257.647427 
L 497.093448 258.371447 
L 497.376841 258.668812 
L 498.227019 258.759314 
L 498.510411 259.547978 
L 498.793804 259.573836 
L 499.077197 259.16011 
L 499.360589 258.526594 
L 499.643982 259.418689 
L 500.494159 258.888603 
L 501.344337 258.681741 
L 501.62773 258.720527 
L 502.194515 258.461949 
L 502.7613 257.673285 
L 503.611478 256.975123 
L 504.461656 257.104413 
L 505.311833 256.962195 
L 505.878619 257.039768 
L 506.162011 257.169057 
L 506.445404 257.026839 
L 506.728796 257.531067 
L 507.295582 258.914461 
L 507.578974 258.630025 
L 507.862367 257.686214 
L 508.995937 256.406251 
L 509.562722 256.432109 
L 509.846115 255.798592 
L 510.979685 254.453985 
L 511.54647 254.182477 
L 512.396648 252.618078 
L 512.963433 252.333642 
L 513.246826 251.984561 
L 513.530218 252.139708 
L 514.097004 252.075064 
L 514.663789 251.932846 
L 515.230574 251.919917 
L 515.513966 250.989035 
L 515.797359 251.182968 
L 516.080752 250.795101 
L 516.364144 250.601167 
L 525.7161 246.192406 
L 525.999492 246.295838 
L 526.282885 246.076046 
L 526.566277 246.218264 
L 526.84967 245.972615 
L 527.416455 247.032786 
L 527.98324 247.653374 
L 528.550025 247.368938 
L 528.833418 246.787137 
L 529.116811 246.903497 
L 529.966988 246.593203 
L 530.533773 246.593203 
L 530.817166 246.98107 
L 531.100559 247.045715 
L 531.383951 246.86471 
L 532.234129 247.019857 
L 532.517522 247.097431 
L 532.800914 247.058644 
L 533.084307 247.304293 
L 533.367699 247.084502 
L 533.651092 247.252578 
L 534.217877 247.950739 
L 534.784662 248.29982 
L 535.351447 248.29982 
L 536.485018 247.82145 
L 537.901981 247.93781 
L 538.185373 248.248104 
L 538.752158 248.248104 
L 539.318944 248.390322 
L 540.169121 248.429109 
L 541.302692 249.101413 
L 541.586084 250.058153 
L 541.869477 249.786645 
L 542.152869 249.01091 
L 542.719655 249.01091 
L 543.003047 248.829906 
L 543.28644 249.049697 
L 543.569832 249.088484 
L 544.136618 248.739403 
L 544.42001 249.1402 
L 545.270188 249.696143 
L 545.55358 250.109868 
L 546.403758 250.277944 
L 546.970543 250.497736 
L 547.253936 250.394305 
L 547.537329 250.135726 
L 548.104114 252.075064 
L 548.387506 252.204353 
L 548.954292 252.036277 
L 549.237684 251.506191 
L 549.521077 251.415689 
L 549.804469 251.687196 
L 550.087862 251.609623 
L 550.371254 251.932846 
L 550.654647 251.415689 
L 550.93804 251.609623 
L 552.07161 251.751841 
L 552.355003 252.049206 
L 552.921788 252.023348 
L 554.338751 252.3595 
L 554.622143 252.307784 
L 555.188928 252.605149 
L 555.472321 252.643936 
L 556.039106 252.437073 
L 556.322499 252.83787 
L 557.172676 252.100922 
L 557.456069 252.294855 
L 557.739462 251.919917 
L 558.022854 251.945775 
L 558.306247 251.532049 
L 559.439817 250.846817 
L 560.006602 249.915935 
L 560.289995 249.73493 
L 560.85678 249.696143 
L 561.423565 249.1402 
L 561.99035 249.437565 
L 562.273743 249.812503 
L 562.557136 249.722001 
L 563.407313 248.907479 
L 563.974099 247.899023 
L 564.257491 247.860237 
L 564.824276 247.045715 
L 565.391061 246.567345 
L 566.241239 246.218264 
L 566.524632 246.373411 
L 566.808024 246.011402 
L 567.091417 245.895041 
L 567.37481 246.063117 
L 567.658202 245.688179 
L 567.941595 246.114833 
L 568.50838 246.15362 
L 569.358558 246.5027 
L 571.058913 245.106377 
L 571.342306 245.209809 
L 571.625698 245.183951 
L 572.759269 244.136709 
L 573.326054 243.710054 
L 573.609446 243.710054 
L 573.892839 243.451476 
L 574.743017 243.154111 
L 575.593195 242.611096 
L 576.443372 242.016366 
L 577.010157 241.48628 
L 577.29355 241.240631 
L 577.576943 241.344062 
L 577.860335 241.61557 
L 578.42712 241.124271 
L 578.993906 240.503683 
L 579.277298 240.361465 
L 579.560691 239.779663 
L 580.410868 239.766734 
L 580.694261 239.766734 
L 580.977654 239.598659 
L 581.261046 239.650374 
L 581.544439 239.508156 
L 582.394617 240.025313 
L 582.678009 239.857237 
L 582.961402 239.534014 
L 583.811579 239.236649 
L 584.094972 239.676232 
L 584.378365 239.831379 
L 584.94515 239.003928 
L 585.228542 238.74535 
L 585.511935 238.913426 
L 585.795328 239.689161 
L 586.645505 239.094431 
L 587.212291 239.120289 
L 587.495683 239.805521 
L 588.062468 239.70209 
L 588.345861 239.404725 
L 588.629253 240.65883 
L 588.912646 241.033768 
L 589.196039 241.020839 
L 590.046216 240.232175 
L 590.329609 240.167531 
L 590.896394 240.283891 
L 591.179787 240.102886 
L 591.463179 240.206318 
L 591.746572 240.154602 
L 592.59675 240.620043 
L 592.880142 240.516612 
L 593.446927 240.671759 
L 594.297105 241.124271 
L 596.847638 241.887077 
L 597.414424 241.36992 
L 597.697816 241.305276 
L 597.981209 241.033768 
L 598.264601 240.917408 
L 598.547994 240.671759 
L 598.831386 239.999455 
L 599.114779 239.727948 
L 599.681564 238.163549 
L 600.248349 237.478316 
L 601.38192 236.637936 
L 602.232098 235.939775 
L 602.798883 235.267471 
L 604.499238 232.810977 
L 604.782631 232.629972 
L 605.916201 230.949213 
L 606.482986 229.966615 
L 608.183342 227.005893 
L 608.466734 226.747315 
L 608.750127 226.294803 
L 609.03352 226.2043 
L 611.30066 223.450441 
L 612.150838 221.795539 
L 614.984764 218.485736 
L 615.834942 218.059082 
L 616.118334 218.253016 
L 616.685119 217.981509 
L 616.968512 217.231631 
L 617.251905 215.835308 
L 617.535297 215.175934 
L 617.81869 214.904426 
L 618.102082 215.34401 
L 618.385475 215.292294 
L 618.668867 214.61999 
L 620.652616 212.797013 
L 620.936008 213.06852 
L 621.502793 212.70651 
L 621.786186 212.95216 
L 622.069578 212.965089 
L 622.352971 213.236596 
L 622.636364 214.25798 
L 622.636364 214.25798 
" clip-path="url(#pdf3a6161eb)" style="fill: none; stroke: #1f77b4; stroke-width: 1.5; stroke-linecap: square"/>
   </g>
   <g id="line2d_14">
    <path d="M 115.363636 113.502927 
L 115.930422 113.502927 
L 116.213814 132.521365 
L 117.347384 134.253903 
L 119.04774 136.533025 
L 119.331133 137.046545 
L 119.614525 137.290468 
L 120.18131 136.720282 
L 120.748095 136.882791 
L 121.031488 136.897217 
L 122.165058 136.170023 
L 122.731844 135.922711 
L 123.015236 145.708861 
L 128.116303 148.604132 
L 128.399695 148.558879 
L 128.683088 148.20272 
L 129.249873 146.237223 
L 129.533266 145.817764 
L 129.816658 159.310082 
L 130.100051 158.471585 
L 130.666836 157.910309 
L 131.233621 156.906524 
L 131.800406 155.878679 
L 132.083799 155.618303 
L 132.650584 154.353864 
L 134.917725 148.521912 
L 136.334688 143.913154 
L 136.61808 174.449844 
L 138.035043 173.598033 
L 138.885221 173.29802 
L 139.452006 173.588628 
L 141.719147 175.431441 
L 142.852717 176.622648 
L 143.13611 176.943276 
L 143.419502 189.007805 
L 148.803961 196.832073 
L 149.937532 196.835566 
L 150.220924 204.289785 
L 150.787709 203.90983 
L 151.071102 203.954161 
L 151.354495 203.823125 
L 153.338243 201.035696 
L 153.905028 199.6217 
L 154.471813 197.835917 
L 155.605383 192.369438 
L 157.589132 180.994514 
L 159.289487 171.992061 
L 159.856272 170.589315 
L 160.423057 169.823606 
L 160.989843 169.483487 
L 161.556628 169.468546 
L 162.123413 169.715419 
L 162.690198 170.177611 
L 163.540376 171.188958 
L 163.823768 130.31052 
L 164.957339 132.20088 
L 166.941087 136.04938 
L 167.224479 136.646379 
L 167.507872 136.856552 
L 167.791265 136.656696 
L 168.35805 135.173624 
L 168.641442 135.182254 
L 169.208228 135.61168 
L 169.775013 135.575972 
L 170.341798 135.661834 
L 170.62519 132.430863 
L 171.191976 132.019366 
L 171.758761 131.240323 
L 173.175724 128.619032 
L 173.459116 127.919334 
L 174.592687 123.736934 
L 175.159472 122.77228 
L 175.726257 122.30656 
L 176.293042 122.255849 
L 176.859827 122.483007 
L 177.14322 122.695879 
L 177.426612 125.138953 
L 178.27679 126.206333 
L 179.410361 128.02144 
L 181.110716 131.240805 
L 183.944642 137.053418 
L 184.228035 138.145444 
L 186.211783 141.97612 
L 187.628746 144.256094 
L 189.045708 146.072618 
L 190.462671 147.49623 
L 190.746064 147.744572 
L 191.029457 157.189739 
L 193.013205 158.547259 
L 196.413916 160.529077 
L 197.547486 161.166308 
L 197.830879 182.685564 
L 204.348908 185.438755 
L 204.632301 201.316134 
L 205.199086 199.458914 
L 205.482478 199.240064 
L 206.049264 199.019602 
L 206.616049 198.509539 
L 206.899441 197.937563 
L 207.749619 194.737505 
L 208.033012 194.27102 
L 208.316404 193.410286 
L 209.449975 187.590602 
L 213.700863 176.886272 
L 214.834434 174.863194 
L 215.684611 173.808591 
L 216.251397 173.243745 
L 216.534789 173.038165 
L 217.101574 170.570967 
L 218.235145 168.595782 
L 219.9355 165.715358 
L 220.785678 164.850866 
L 221.919248 164.113317 
L 223.052819 162.456082 
L 223.619604 162.261343 
L 224.186389 162.340873 
L 225.603352 162.985111 
L 226.736922 163.942166 
L 229.004063 166.254391 
L 231.554596 169.209404 
L 234.388522 172.464333 
L 236.088878 174.029203 
L 237.789233 175.235236 
L 238.356018 175.571986 
L 238.639411 112.326396 
L 241.756729 120.530459 
L 244.874048 128.098301 
L 245.15744 128.755974 
L 245.440833 126.3672 
L 249.408329 132.180726 
L 250.258507 132.9646 
L 250.541899 133.650176 
L 250.825292 133.324059 
L 251.108685 132.272895 
L 251.392077 131.980959 
L 251.958862 131.801326 
L 252.242255 134.693423 
L 253.659218 134.390185 
L 255.359573 134.170418 
L 255.642966 133.754137 
L 256.209751 132.169066 
L 256.776536 127.373502 
L 257.059929 126.475222 
L 257.343321 126.157216 
L 257.910107 126.096499 
L 258.760284 126.326889 
L 259.043677 140.860517 
L 259.893855 141.055434 
L 261.027425 141.586473 
L 262.160995 142.37404 
L 263.577958 143.643186 
L 265.278314 145.477136 
L 267.545455 148.269147 
L 271.512951 153.590596 
L 276.614017 160.399302 
L 285.115795 170.04698 
L 287.382936 172.304605 
L 287.666328 192.88648 
L 290.783647 195.55699 
L 292.767395 197.10851 
L 293.050787 200.643831 
L 296.168106 202.826531 
L 297.868461 203.9162 
L 298.151854 203.982376 
L 298.718639 203.354825 
L 299.002031 203.420405 
L 300.98578 202.735652 
L 301.269172 202.72197 
L 302.11935 203.02535 
L 305.236668 203.155824 
L 307.503809 203.560039 
L 310.621127 204.360037 
L 325.357542 208.46229 
L 329.891823 209.362412 
L 334.709497 210.084765 
L 339.527171 210.58365 
L 339.810564 210.606549 
L 343.494667 228.872829 
L 345.195023 222.469029 
L 346.895378 217.788952 
L 347.745556 215.78463 
L 348.879126 213.807559 
L 349.729304 212.738784 
L 350.579482 212.000862 
L 350.862875 228.066064 
L 352.846623 228.573495 
L 356.247334 229.493082 
L 356.530726 229.431358 
L 358.514474 231.041263 
L 361.065008 233.424916 
L 363.048756 235.408733 
L 363.332148 232.565327 
L 369.850178 237.676566 
L 370.13357 236.412973 
L 374.101067 240.058478 
L 375.801422 241.539948 
L 376.368207 242.991374 
L 376.6516 242.917462 
L 376.934992 239.329737 
L 377.501778 237.73449 
L 378.068563 236.042481 
L 379.202133 234.787342 
L 380.902489 233.42554 
L 381.469274 233.191847 
L 383.453022 231.865667 
L 383.736414 242.060324 
L 384.3032 241.833697 
L 384.869985 241.87149 
L 386.003555 242.235373 
L 387.137125 242.647734 
L 389.404266 243.538301 
L 390.254444 243.918171 
L 390.537836 245.473559 
L 391.671407 245.424105 
L 392.521585 245.720172 
L 396.489081 247.537693 
L 397.055866 247.807892 
L 397.339259 246.854367 
L 403.857288 249.679399 
L 404.140681 247.955911 
L 409.808532 250.265452 
L 412.075673 251.105544 
L 412.359066 251.570836 
L 417.460132 253.20258 
L 417.743525 253.289875 
L 418.026917 252.579292 
L 423.127984 254.030127 
L 428.22905 255.258954 
L 431.062976 255.850449 
L 431.346369 255.643445 
L 434.463687 256.170145 
L 435.030472 255.989721 
L 437.864398 256.575752 
L 438.147791 257.000981 
L 438.431183 256.922488 
L 438.714576 257.01749 
L 439.281361 255.690052 
L 443.53225 255.379688 
L 444.382428 254.933834 
L 445.232605 252.106916 
L 445.799391 251.580879 
L 446.082783 251.49296 
L 446.366176 254.634989 
L 447.216353 254.14662 
L 447.783139 253.939689 
L 448.066531 254.402269 
L 450.050279 253.868691 
L 451.467242 253.604136 
L 451.750635 252.501718 
L 453.734383 252.246468 
L 456.568309 252.137281 
L 460.252412 252.241704 
L 465.070086 252.625394 
L 465.353479 253.238666 
L 466.487049 253.234417 
L 469.320975 253.545089 
L 471.871508 253.96521 
L 472.154901 254.518629 
L 478.67293 255.598516 
L 478.956323 256.845834 
L 485.474352 257.816744 
L 485.757745 258.397304 
L 498.510411 260.135176 
L 498.793804 260.490442 
L 499.360589 261.515741 
L 499.643982 259.716054 
L 499.927374 259.825973 
L 500.210767 259.813681 
L 500.494159 259.678374 
L 500.777552 259.749837 
L 501.060945 260.212926 
L 501.62773 262.919043 
L 501.911122 263.24788 
L 502.194515 262.892477 
L 502.477908 263.444536 
L 502.7613 265.052473 
L 503.044693 265.398223 
L 503.89487 262.751456 
L 504.745048 257.756602 
L 505.878619 249.81373 
L 506.162011 256.962195 
L 507.578974 246.621768 
L 508.712544 239.549589 
L 509.562722 235.632063 
L 510.4129 232.690907 
L 511.263078 230.487746 
L 512.113255 228.862356 
L 512.680041 228.048496 
L 512.963433 252.695652 
L 513.813611 251.669135 
L 514.663789 251.007163 
L 514.947181 250.793123 
L 515.513966 250.698923 
L 516.080752 250.309415 
L 516.364144 250.142578 
L 524.865922 254.15978 
L 527.133062 257.36835 
L 530.817166 263.058857 
L 533.084307 266.637053 
L 533.367699 247.032786 
L 535.918233 251.409533 
L 536.76841 252.43759 
L 537.335196 253.639342 
L 537.901981 255.081974 
L 539.885729 258.480729 
L 540.169121 248.312749 
L 542.436262 251.024508 
L 543.003047 251.217074 
L 543.569832 251.241769 
L 544.136618 251.712634 
L 546.403758 254.576274 
L 546.687151 254.937825 
L 546.970543 250.252086 
L 550.93804 255.158217 
L 553.488573 258.071752 
L 553.771965 252.152637 
L 554.622143 252.914522 
L 557.739462 256.218822 
L 558.589639 256.522926 
L 558.873032 256.501014 
L 559.439817 256.00667 
L 560.573388 255.872499 
L 560.85678 250.096939 
L 563.407313 243.941192 
L 564.824276 240.935729 
L 565.674454 239.525249 
L 566.241239 238.907587 
L 567.091417 238.202078 
L 567.37481 246.063117 
L 567.941595 245.883792 
L 568.791772 245.923555 
L 569.358558 246.08172 
L 569.925343 246.354992 
L 570.492128 246.57439 
L 572.192483 247.773046 
L 573.892839 248.587622 
L 574.176232 243.774699 
L 576.443372 241.987924 
L 577.576943 241.267878 
L 578.710513 240.825353 
L 579.844083 240.610137 
L 580.694261 240.561096 
L 580.977654 239.779663 
L 582.678009 239.924969 
L 585.228542 240.412819 
L 587.495683 240.970351 
L 587.779076 239.081502 
L 592.880142 240.356207 
L 593.163535 240.106103 
L 593.446927 240.035218 
L 594.297105 240.430038 
L 594.580498 240.982053 
L 595.997461 241.456312 
L 597.697816 241.872376 
L 598.547994 241.677128 
L 599.114779 241.76262 
L 599.681564 241.85793 
L 600.248349 241.861374 
L 600.815135 241.511412 
L 601.098527 241.310792 
L 601.38192 237.103377 
L 601.948705 236.68825 
L 602.51549 236.218457 
L 603.082275 236.088195 
L 603.64906 235.979646 
L 604.782631 235.229103 
L 605.349416 235.21437 
L 606.766379 235.631835 
L 607.899949 236.039261 
L 608.183342 227.988491 
L 609.600305 226.99139 
L 611.30066 226.025343 
L 611.584053 225.632558 
L 612.717623 222.968263 
L 613.851193 221.778053 
L 614.701371 220.871926 
L 614.984764 219.300258 
L 616.118334 219.400253 
L 617.81869 219.889409 
L 620.652616 220.950233 
L 621.502793 221.298827 
L 621.786186 213.094378 
L 622.636364 213.496841 
L 622.636364 213.496841 
" clip-path="url(#pdf3a6161eb)" style="fill: none; stroke: #ff7f0e; stroke-width: 1.5; stroke-linecap: square"/>
   </g>
   <g id="patch_3">
    <path d="M 90 288 
L 90 43.2 
" style="fill: none; stroke: #000000; stroke-width: 0.8; stroke-linejoin: miter; stroke-linecap: square"/>
   </g>
   <g id="patch_4">
    <path d="M 648 288 
L 648 43.2 
" style="fill: none; stroke: #000000; stroke-width: 0.8; stroke-linejoin: miter; stroke-linecap: square"/>
   </g>
   <g id="patch_5">
    <path d="M 90 288 
L 648 288 
" style="fill: none; stroke: #000000; stroke-width: 0.8; stroke-linejoin: miter; stroke-linecap: square"/>
   </g>
   <g id="patch_6">
    <path d="M 90 43.2 
L 648 43.2 
" style="fill: none; stroke: #000000; stroke-width: 0.8; stroke-linejoin: miter; stroke-linecap: square"/>
   </g>
   <g id="text_14">
    <!-- MDOT10428 -->
    <g transform="translate(331.727813 37.2) scale(0.12 -0.12)">
     <defs>
      <path id="DejaVuSans-44" d="M 1259 4147 
L 1259 519 
L 2022 519 
Q 2988 519 3436 956 
Q 3884 1394 3884 2338 
Q 3884 3275 3436 3711 
Q 2988 4147 2022 4147 
L 1259 4147 
z
M 628 4666 
L 1925 4666 
Q 3281 4666 3915 4102 
Q 4550 3538 4550 2338 
Q 4550 1131 3912 565 
Q 3275 0 1925 0 
L 628 0 
L 628 4666 
z
" transform="scale(0.015625)"/>
      <path id="DejaVuSans-4f" d="M 2522 4238 
Q 1834 4238 1429 3725 
Q 1025 3213 1025 2328 
Q 1025 1447 1429 934 
Q 1834 422 2522 422 
Q 3209 422 3611 934 
Q 4013 1447 4013 2328 
Q 4013 3213 3611 3725 
Q 3209 4238 2522 4238 
z
M 2522 4750 
Q 3503 4750 4090 4092 
Q 4678 3434 4678 2328 
Q 4678 1225 4090 567 
Q 3503 -91 2522 -91 
Q 1538 -91 948 565 
Q 359 1222 359 2328 
Q 359 3434 948 4092 
Q 1538 4750 2522 4750 
z
" transform="scale(0.015625)"/>
      <path id="DejaVuSans-54" d="M -19 4666 
L 3928 4666 
L 3928 4134 
L 2272 4134 
L 2272 0 
L 1638 0 
L 1638 4134 
L -19 4134 
L -19 4666 
z
" transform="scale(0.015625)"/>
      <path id="DejaVuSans-34" d="M 2419 4116 
L 825 1625 
L 2419 1625 
L 2419 4116 
z
M 2253 4666 
L 3047 4666 
L 3047 1625 
L 3713 1625 
L 3713 1100 
L 3047 1100 
L 3047 0 
L 2419 0 
L 2419 1100 
L 313 1100 
L 313 1709 
L 2253 4666 
z
" transform="scale(0.015625)"/>
     </defs>
     <use xlink:href="#DejaVuSans-4d"/>
     <use xlink:href="#DejaVuSans-44" x="86.279297"/>
     <use xlink:href="#DejaVuSans-4f" x="163.28125"/>
     <use xlink:href="#DejaVuSans-54" x="241.992188"/>
     <use xlink:href="#DejaVuSans-31" x="303.076172"/>
     <use xlink:href="#DejaVuSans-30" x="366.699219"/>
     <use xlink:href="#DejaVuSans-34" x="430.322266"/>
     <use xlink:href="#DejaVuSans-32" x="493.945312"/>
     <use xlink:href="#DejaVuSans-38" x="557.568359"/>
    </g>
   </g>
   <g id="legend_1">
    <g id="patch_7">
     <path d="M 559.04375 80.55625 
L 641 80.55625 
Q 643 80.55625 643 78.55625 
L 643 50.2 
Q 643 48.2 641 48.2 
L 559.04375 48.2 
Q 557.04375 48.2 557.04375 50.2 
L 557.04375 78.55625 
Q 557.04375 80.55625 559.04375 80.55625 
z
" style="fill: #ffffff; opacity: 0.8; stroke: #cccccc; stroke-linejoin: miter"/>
    </g>
    <g id="line2d_15">
     <path d="M 561.04375 56.298437 
L 571.04375 56.298437 
L 581.04375 56.298437 
" style="fill: none; stroke: #1f77b4; stroke-width: 1.5; stroke-linecap: square"/>
    </g>
    <g id="text_15">
     <!-- measured -->
     <g transform="translate(589.04375 59.798437) scale(0.1 -0.1)">
      <defs>
       <path id="DejaVuSans-6d" d="M 3328 2828 
Q 3544 3216 3844 3400 
Q 4144 3584 4550 3584 
Q 5097 3584 5394 3201 
Q 5691 2819 5691 2113 
L 5691 0 
L 5113 0 
L 5113 2094 
Q 5113 2597 4934 2840 
Q 4756 3084 4391 3084 
Q 3944 3084 3684 2787 
Q 3425 2491 3425 1978 
L 3425 0 
L 2847 0 
L 2847 2094 
Q 2847 2600 2669 2842 
Q 2491 3084 2119 3084 
Q 1678 3084 1418 2786 
Q 1159 2488 1159 1978 
L 1159 0 
L 581 0 
L 581 3500 
L 1159 3500 
L 1159 2956 
Q 1356 3278 1631 3431 
Q 1906 3584 2284 3584 
Q 2666 3584 2933 3390 
Q 3200 3197 3328 2828 
z
" transform="scale(0.015625)"/>
       <path id="DejaVuSans-61" d="M 2194 1759 
Q 1497 1759 1228 1600 
Q 959 1441 959 1056 
Q 959 750 1161 570 
Q 1363 391 1709 391 
Q 2188 391 2477 730 
Q 2766 1069 2766 1631 
L 2766 1759 
L 2194 1759 
z
M 3341 1997 
L 3341 0 
L 2766 0 
L 2766 531 
Q 2569 213 2275 61 
Q 1981 -91 1556 -91 
Q 1019 -91 701 211 
Q 384 513 384 1019 
Q 384 1609 779 1909 
Q 1175 2209 1959 2209 
L 2766 2209 
L 2766 2266 
Q 2766 2663 2505 2880 
Q 2244 3097 1772 3097 
Q 1472 3097 1187 3025 
Q 903 2953 641 2809 
L 641 3341 
Q 956 3463 1253 3523 
Q 1550 3584 1831 3584 
Q 2591 3584 2966 3190 
Q 3341 2797 3341 1997 
z
" transform="scale(0.015625)"/>
       <path id="DejaVuSans-75" d="M 544 1381 
L 544 3500 
L 1119 3500 
L 1119 1403 
Q 1119 906 1312 657 
Q 1506 409 1894 409 
Q 2359 409 2629 706 
Q 2900 1003 2900 1516 
L 2900 3500 
L 3475 3500 
L 3475 0 
L 2900 0 
L 2900 538 
Q 2691 219 2414 64 
Q 2138 -91 1772 -91 
Q 1169 -91 856 284 
Q 544 659 544 1381 
z
M 1991 3584 
L 1991 3584 
z
" transform="scale(0.015625)"/>
       <path id="DejaVuSans-64" d="M 2906 2969 
L 2906 4863 
L 3481 4863 
L 3481 0 
L 2906 0 
L 2906 525 
Q 2725 213 2448 61 
Q 2172 -91 1784 -91 
Q 1150 -91 751 415 
Q 353 922 353 1747 
Q 353 2572 751 3078 
Q 1150 3584 1784 3584 
Q 2172 3584 2448 3432 
Q 2725 3281 2906 2969 
z
M 947 1747 
Q 947 1113 1208 752 
Q 1469 391 1925 391 
Q 2381 391 2643 752 
Q 2906 1113 2906 1747 
Q 2906 2381 2643 2742 
Q 2381 3103 1925 3103 
Q 1469 3103 1208 2742 
Q 947 2381 947 1747 
z
" transform="scale(0.015625)"/>
      </defs>
      <use xlink:href="#DejaVuSans-6d"/>
      <use xlink:href="#DejaVuSans-65" x="97.412109"/>
      <use xlink:href="#DejaVuSans-61" x="158.935547"/>
      <use xlink:href="#DejaVuSans-73" x="220.214844"/>
      <use xlink:href="#DejaVuSans-75" x="272.314453"/>
      <use xlink:href="#DejaVuSans-72" x="335.693359"/>
      <use xlink:href="#DejaVuSans-65" x="374.556641"/>
      <use xlink:href="#DejaVuSans-64" x="436.080078"/>
     </g>
    </g>
    <g id="line2d_16">
     <path d="M 561.04375 70.976562 
L 571.04375 70.976562 
L 581.04375 70.976562 
" style="fill: none; stroke: #ff7f0e; stroke-width: 1.5; stroke-linecap: square"/>
    </g>
    <g id="text_16">
     <!-- predicted -->
     <g transform="translate(589.04375 74.476562) scale(0.1 -0.1)">
      <defs>
       <path id="DejaVuSans-70" d="M 1159 525 
L 1159 -1331 
L 581 -1331 
L 581 3500 
L 1159 3500 
L 1159 2969 
Q 1341 3281 1617 3432 
Q 1894 3584 2278 3584 
Q 2916 3584 3314 3078 
Q 3713 2572 3713 1747 
Q 3713 922 3314 415 
Q 2916 -91 2278 -91 
Q 1894 -91 1617 61 
Q 1341 213 1159 525 
z
M 3116 1747 
Q 3116 2381 2855 2742 
Q 2594 3103 2138 3103 
Q 1681 3103 1420 2742 
Q 1159 2381 1159 1747 
Q 1159 1113 1420 752 
Q 1681 391 2138 391 
Q 2594 391 2855 752 
Q 3116 1113 3116 1747 
z
" transform="scale(0.015625)"/>
       <path id="DejaVuSans-69" d="M 603 3500 
L 1178 3500 
L 1178 0 
L 603 0 
L 603 3500 
z
M 603 4863 
L 1178 4863 
L 1178 4134 
L 603 4134 
L 603 4863 
z
" transform="scale(0.015625)"/>
       <path id="DejaVuSans-63" d="M 3122 3366 
L 3122 2828 
Q 2878 2963 2633 3030 
Q 2388 3097 2138 3097 
Q 1578 3097 1268 2742 
Q 959 2388 959 1747 
Q 959 1106 1268 751 
Q 1578 397 2138 397 
Q 2388 397 2633 464 
Q 2878 531 3122 666 
L 3122 134 
Q 2881 22 2623 -34 
Q 2366 -91 2075 -91 
Q 1284 -91 818 406 
Q 353 903 353 1747 
Q 353 2603 823 3093 
Q 1294 3584 2113 3584 
Q 2378 3584 2631 3529 
Q 2884 3475 3122 3366 
z
" transform="scale(0.015625)"/>
      </defs>
      <use xlink:href="#DejaVuSans-70"/>
      <use xlink:href="#DejaVuSans-72" x="63.476562"/>
      <use xlink:href="#DejaVuSans-65" x="102.339844"/>
      <use xlink:href="#DejaVuSans-64" x="163.863281"/>
      <use xlink:href="#DejaVuSans-69" x="227.339844"/>
      <use xlink:href="#DejaVuSans-63" x="255.123047"/>
      <use xlink:href="#DejaVuSans-74" x="310.103516"/>
      <use xlink:href="#DejaVuSans-65" x="349.3125"/>
      <use xlink:href="#DejaVuSans-64" x="410.835938"/>
     </g>
    </g>
   </g>
  </g>
 </g>
 <defs>
  <clipPath id="pdf3a6161eb">
   <rect x="90" y="43.2" width="558" height="244.8"/>
  </clipPath>
 </defs>
</svg>
