<?xml version="1.0" encoding="utf-8" standalone="no"?>
<!DOCTYPE svg PUBLIC "-//W3C//DTD SVG 1.1//EN"
  "http://www.w3.org/Graphics/SVG/1.1/DTD/svg11.dtd">
<svg xmlns:xlink="http://www.w3.org/1999/xlink" width="720pt" height="360pt" viewBox="0 0 720 360" xmlns="http://www.w3.org/2000/svg" version="1.1">
 <metadata>
  <rdf:RDF xmlns:dc="http://purl.org/dc/elements/1.1/" xmlns:cc="http://creativecommons.org/ns#" xmlns:rdf="http://www.w3.org/1999/02/22-rdf-syntax-ns#">
   <cc:Work>
    <dc:type rdf:resource="http://purl.org/dc/dcmitype/StillImage"/>
    <dc:date>2023-10-23T10:54:53.021821</dc:date>
    <dc:format>image/svg+xml</dc:format>
    <dc:creator>
     <cc:Agent>
      <dc:title>Matplotlib v3.7.1, https://matplotlib.org/</dc:title>
     </cc:Agent>
    </dc:creator>
   </cc:Work>
  </rdf:RDF>
 </metadata>
 <defs>
  <style type="text/css">*{stroke-linejoin: round; stroke-linecap: butt}</style>
 </defs>
 <g id="figure_1">
  <g id="patch_1">
   <path d="M 0 360 
L 720 360 
L 720 0 
L 0 0 
z
" style="fill: #ffffff"/>
  </g>
  <g id="axes_1">
   <g id="patch_2">
    <path d="M 90 288 
L 648 288 
L 648 43.2 
L 90 43.2 
z
" style="fill: #ffffff"/>
   </g>
   <g id="matplotlib.axis_1">
    <g id="xtick_1">
     <g id="line2d_1">
      <defs>
       <path id="m5c335bc34f" d="M 0 0 
L 0 3.5 
" style="stroke: #000000; stroke-width: 0.8"/>
      </defs>
      <g>
       <use xlink:href="#m5c335bc34f" x="122.764922" y="288" style="stroke: #000000; stroke-width: 0.8"/>
      </g>
     </g>
     <g id="text_1">
      <!-- 2023-09-17 -->
      <g transform="translate(61.12158 337.765903) rotate(-30) scale(0.12 -0.12)">
       <defs>
        <path id="DejaVuSans-32" d="M 1228 531 
L 3431 531 
L 3431 0 
L 469 0 
L 469 531 
Q 828 903 1448 1529 
Q 2069 2156 2228 2338 
Q 2531 2678 2651 2914 
Q 2772 3150 2772 3378 
Q 2772 3750 2511 3984 
Q 2250 4219 1831 4219 
Q 1534 4219 1204 4116 
Q 875 4013 500 3803 
L 500 4441 
Q 881 4594 1212 4672 
Q 1544 4750 1819 4750 
Q 2544 4750 2975 4387 
Q 3406 4025 3406 3419 
Q 3406 3131 3298 2873 
Q 3191 2616 2906 2266 
Q 2828 2175 2409 1742 
Q 1991 1309 1228 531 
z
" transform="scale(0.015625)"/>
        <path id="DejaVuSans-30" d="M 2034 4250 
Q 1547 4250 1301 3770 
Q 1056 3291 1056 2328 
Q 1056 1369 1301 889 
Q 1547 409 2034 409 
Q 2525 409 2770 889 
Q 3016 1369 3016 2328 
Q 3016 3291 2770 3770 
Q 2525 4250 2034 4250 
z
M 2034 4750 
Q 2819 4750 3233 4129 
Q 3647 3509 3647 2328 
Q 3647 1150 3233 529 
Q 2819 -91 2034 -91 
Q 1250 -91 836 529 
Q 422 1150 422 2328 
Q 422 3509 836 4129 
Q 1250 4750 2034 4750 
z
" transform="scale(0.015625)"/>
        <path id="DejaVuSans-33" d="M 2597 2516 
Q 3050 2419 3304 2112 
Q 3559 1806 3559 1356 
Q 3559 666 3084 287 
Q 2609 -91 1734 -91 
Q 1441 -91 1130 -33 
Q 819 25 488 141 
L 488 750 
Q 750 597 1062 519 
Q 1375 441 1716 441 
Q 2309 441 2620 675 
Q 2931 909 2931 1356 
Q 2931 1769 2642 2001 
Q 2353 2234 1838 2234 
L 1294 2234 
L 1294 2753 
L 1863 2753 
Q 2328 2753 2575 2939 
Q 2822 3125 2822 3475 
Q 2822 3834 2567 4026 
Q 2313 4219 1838 4219 
Q 1578 4219 1281 4162 
Q 984 4106 628 3988 
L 628 4550 
Q 988 4650 1302 4700 
Q 1616 4750 1894 4750 
Q 2613 4750 3031 4423 
Q 3450 4097 3450 3541 
Q 3450 3153 3228 2886 
Q 3006 2619 2597 2516 
z
" transform="scale(0.015625)"/>
        <path id="DejaVuSans-2d" d="M 313 2009 
L 1997 2009 
L 1997 1497 
L 313 1497 
L 313 2009 
z
" transform="scale(0.015625)"/>
        <path id="DejaVuSans-39" d="M 703 97 
L 703 672 
Q 941 559 1184 500 
Q 1428 441 1663 441 
Q 2288 441 2617 861 
Q 2947 1281 2994 2138 
Q 2813 1869 2534 1725 
Q 2256 1581 1919 1581 
Q 1219 1581 811 2004 
Q 403 2428 403 3163 
Q 403 3881 828 4315 
Q 1253 4750 1959 4750 
Q 2769 4750 3195 4129 
Q 3622 3509 3622 2328 
Q 3622 1225 3098 567 
Q 2575 -91 1691 -91 
Q 1453 -91 1209 -44 
Q 966 3 703 97 
z
M 1959 2075 
Q 2384 2075 2632 2365 
Q 2881 2656 2881 3163 
Q 2881 3666 2632 3958 
Q 2384 4250 1959 4250 
Q 1534 4250 1286 3958 
Q 1038 3666 1038 3163 
Q 1038 2656 1286 2365 
Q 1534 2075 1959 2075 
z
" transform="scale(0.015625)"/>
        <path id="DejaVuSans-31" d="M 794 531 
L 1825 531 
L 1825 4091 
L 703 3866 
L 703 4441 
L 1819 4666 
L 2450 4666 
L 2450 531 
L 3481 531 
L 3481 0 
L 794 0 
L 794 531 
z
" transform="scale(0.015625)"/>
        <path id="DejaVuSans-37" d="M 525 4666 
L 3525 4666 
L 3525 4397 
L 1831 0 
L 1172 0 
L 2766 4134 
L 525 4134 
L 525 4666 
z
" transform="scale(0.015625)"/>
       </defs>
       <use xlink:href="#DejaVuSans-32"/>
       <use xlink:href="#DejaVuSans-30" x="63.623047"/>
       <use xlink:href="#DejaVuSans-32" x="127.246094"/>
       <use xlink:href="#DejaVuSans-33" x="190.869141"/>
       <use xlink:href="#DejaVuSans-2d" x="254.492188"/>
       <use xlink:href="#DejaVuSans-30" x="290.576172"/>
       <use xlink:href="#DejaVuSans-39" x="354.199219"/>
       <use xlink:href="#DejaVuSans-2d" x="417.822266"/>
       <use xlink:href="#DejaVuSans-31" x="453.90625"/>
       <use xlink:href="#DejaVuSans-37" x="517.529297"/>
      </g>
     </g>
    </g>
    <g id="xtick_2">
     <g id="line2d_2">
      <g>
       <use xlink:href="#m5c335bc34f" x="177.420569" y="288" style="stroke: #000000; stroke-width: 0.8"/>
      </g>
     </g>
     <g id="text_2">
      <!-- 2023-09-21 -->
      <g transform="translate(115.777228 337.765903) rotate(-30) scale(0.12 -0.12)">
       <use xlink:href="#DejaVuSans-32"/>
       <use xlink:href="#DejaVuSans-30" x="63.623047"/>
       <use xlink:href="#DejaVuSans-32" x="127.246094"/>
       <use xlink:href="#DejaVuSans-33" x="190.869141"/>
       <use xlink:href="#DejaVuSans-2d" x="254.492188"/>
       <use xlink:href="#DejaVuSans-30" x="290.576172"/>
       <use xlink:href="#DejaVuSans-39" x="354.199219"/>
       <use xlink:href="#DejaVuSans-2d" x="417.822266"/>
       <use xlink:href="#DejaVuSans-32" x="453.90625"/>
       <use xlink:href="#DejaVuSans-31" x="517.529297"/>
      </g>
     </g>
    </g>
    <g id="xtick_3">
     <g id="line2d_3">
      <g>
       <use xlink:href="#m5c335bc34f" x="232.076217" y="288" style="stroke: #000000; stroke-width: 0.8"/>
      </g>
     </g>
     <g id="text_3">
      <!-- 2023-09-25 -->
      <g transform="translate(170.432875 337.765903) rotate(-30) scale(0.12 -0.12)">
       <defs>
        <path id="DejaVuSans-35" d="M 691 4666 
L 3169 4666 
L 3169 4134 
L 1269 4134 
L 1269 2991 
Q 1406 3038 1543 3061 
Q 1681 3084 1819 3084 
Q 2600 3084 3056 2656 
Q 3513 2228 3513 1497 
Q 3513 744 3044 326 
Q 2575 -91 1722 -91 
Q 1428 -91 1123 -41 
Q 819 9 494 109 
L 494 744 
Q 775 591 1075 516 
Q 1375 441 1709 441 
Q 2250 441 2565 725 
Q 2881 1009 2881 1497 
Q 2881 1984 2565 2268 
Q 2250 2553 1709 2553 
Q 1456 2553 1204 2497 
Q 953 2441 691 2322 
L 691 4666 
z
" transform="scale(0.015625)"/>
       </defs>
       <use xlink:href="#DejaVuSans-32"/>
       <use xlink:href="#DejaVuSans-30" x="63.623047"/>
       <use xlink:href="#DejaVuSans-32" x="127.246094"/>
       <use xlink:href="#DejaVuSans-33" x="190.869141"/>
       <use xlink:href="#DejaVuSans-2d" x="254.492188"/>
       <use xlink:href="#DejaVuSans-30" x="290.576172"/>
       <use xlink:href="#DejaVuSans-39" x="354.199219"/>
       <use xlink:href="#DejaVuSans-2d" x="417.822266"/>
       <use xlink:href="#DejaVuSans-32" x="453.90625"/>
       <use xlink:href="#DejaVuSans-35" x="517.529297"/>
      </g>
     </g>
    </g>
    <g id="xtick_4">
     <g id="line2d_4">
      <g>
       <use xlink:href="#m5c335bc34f" x="286.731864" y="288" style="stroke: #000000; stroke-width: 0.8"/>
      </g>
     </g>
     <g id="text_4">
      <!-- 2023-09-29 -->
      <g transform="translate(225.088522 337.765903) rotate(-30) scale(0.12 -0.12)">
       <use xlink:href="#DejaVuSans-32"/>
       <use xlink:href="#DejaVuSans-30" x="63.623047"/>
       <use xlink:href="#DejaVuSans-32" x="127.246094"/>
       <use xlink:href="#DejaVuSans-33" x="190.869141"/>
       <use xlink:href="#DejaVuSans-2d" x="254.492188"/>
       <use xlink:href="#DejaVuSans-30" x="290.576172"/>
       <use xlink:href="#DejaVuSans-39" x="354.199219"/>
       <use xlink:href="#DejaVuSans-2d" x="417.822266"/>
       <use xlink:href="#DejaVuSans-32" x="453.90625"/>
       <use xlink:href="#DejaVuSans-39" x="517.529297"/>
      </g>
     </g>
    </g>
    <g id="xtick_5">
     <g id="line2d_5">
      <g>
       <use xlink:href="#m5c335bc34f" x="314.059688" y="288" style="stroke: #000000; stroke-width: 0.8"/>
      </g>
     </g>
     <g id="text_5">
      <!-- 2023-10-01 -->
      <g transform="translate(252.416346 337.765903) rotate(-30) scale(0.12 -0.12)">
       <use xlink:href="#DejaVuSans-32"/>
       <use xlink:href="#DejaVuSans-30" x="63.623047"/>
       <use xlink:href="#DejaVuSans-32" x="127.246094"/>
       <use xlink:href="#DejaVuSans-33" x="190.869141"/>
       <use xlink:href="#DejaVuSans-2d" x="254.492188"/>
       <use xlink:href="#DejaVuSans-31" x="290.576172"/>
       <use xlink:href="#DejaVuSans-30" x="354.199219"/>
       <use xlink:href="#DejaVuSans-2d" x="417.822266"/>
       <use xlink:href="#DejaVuSans-30" x="453.90625"/>
       <use xlink:href="#DejaVuSans-31" x="517.529297"/>
      </g>
     </g>
    </g>
    <g id="xtick_6">
     <g id="line2d_6">
      <g>
       <use xlink:href="#m5c335bc34f" x="368.715335" y="288" style="stroke: #000000; stroke-width: 0.8"/>
      </g>
     </g>
     <g id="text_6">
      <!-- 2023-10-05 -->
      <g transform="translate(307.071994 337.765903) rotate(-30) scale(0.12 -0.12)">
       <use xlink:href="#DejaVuSans-32"/>
       <use xlink:href="#DejaVuSans-30" x="63.623047"/>
       <use xlink:href="#DejaVuSans-32" x="127.246094"/>
       <use xlink:href="#DejaVuSans-33" x="190.869141"/>
       <use xlink:href="#DejaVuSans-2d" x="254.492188"/>
       <use xlink:href="#DejaVuSans-31" x="290.576172"/>
       <use xlink:href="#DejaVuSans-30" x="354.199219"/>
       <use xlink:href="#DejaVuSans-2d" x="417.822266"/>
       <use xlink:href="#DejaVuSans-30" x="453.90625"/>
       <use xlink:href="#DejaVuSans-35" x="517.529297"/>
      </g>
     </g>
    </g>
    <g id="xtick_7">
     <g id="line2d_7">
      <g>
       <use xlink:href="#m5c335bc34f" x="423.370983" y="288" style="stroke: #000000; stroke-width: 0.8"/>
      </g>
     </g>
     <g id="text_7">
      <!-- 2023-10-09 -->
      <g transform="translate(361.727641 337.765903) rotate(-30) scale(0.12 -0.12)">
       <use xlink:href="#DejaVuSans-32"/>
       <use xlink:href="#DejaVuSans-30" x="63.623047"/>
       <use xlink:href="#DejaVuSans-32" x="127.246094"/>
       <use xlink:href="#DejaVuSans-33" x="190.869141"/>
       <use xlink:href="#DejaVuSans-2d" x="254.492188"/>
       <use xlink:href="#DejaVuSans-31" x="290.576172"/>
       <use xlink:href="#DejaVuSans-30" x="354.199219"/>
       <use xlink:href="#DejaVuSans-2d" x="417.822266"/>
       <use xlink:href="#DejaVuSans-30" x="453.90625"/>
       <use xlink:href="#DejaVuSans-39" x="517.529297"/>
      </g>
     </g>
    </g>
    <g id="xtick_8">
     <g id="line2d_8">
      <g>
       <use xlink:href="#m5c335bc34f" x="478.02663" y="288" style="stroke: #000000; stroke-width: 0.8"/>
      </g>
     </g>
     <g id="text_8">
      <!-- 2023-10-13 -->
      <g transform="translate(416.383288 337.765903) rotate(-30) scale(0.12 -0.12)">
       <use xlink:href="#DejaVuSans-32"/>
       <use xlink:href="#DejaVuSans-30" x="63.623047"/>
       <use xlink:href="#DejaVuSans-32" x="127.246094"/>
       <use xlink:href="#DejaVuSans-33" x="190.869141"/>
       <use xlink:href="#DejaVuSans-2d" x="254.492188"/>
       <use xlink:href="#DejaVuSans-31" x="290.576172"/>
       <use xlink:href="#DejaVuSans-30" x="354.199219"/>
       <use xlink:href="#DejaVuSans-2d" x="417.822266"/>
       <use xlink:href="#DejaVuSans-31" x="453.90625"/>
       <use xlink:href="#DejaVuSans-33" x="517.529297"/>
      </g>
     </g>
    </g>
    <g id="xtick_9">
     <g id="line2d_9">
      <g>
       <use xlink:href="#m5c335bc34f" x="532.682277" y="288" style="stroke: #000000; stroke-width: 0.8"/>
      </g>
     </g>
     <g id="text_9">
      <!-- 2023-10-17 -->
      <g transform="translate(471.038936 337.765903) rotate(-30) scale(0.12 -0.12)">
       <use xlink:href="#DejaVuSans-32"/>
       <use xlink:href="#DejaVuSans-30" x="63.623047"/>
       <use xlink:href="#DejaVuSans-32" x="127.246094"/>
       <use xlink:href="#DejaVuSans-33" x="190.869141"/>
       <use xlink:href="#DejaVuSans-2d" x="254.492188"/>
       <use xlink:href="#DejaVuSans-31" x="290.576172"/>
       <use xlink:href="#DejaVuSans-30" x="354.199219"/>
       <use xlink:href="#DejaVuSans-2d" x="417.822266"/>
       <use xlink:href="#DejaVuSans-31" x="453.90625"/>
       <use xlink:href="#DejaVuSans-37" x="517.529297"/>
      </g>
     </g>
    </g>
    <g id="xtick_10">
     <g id="line2d_10">
      <g>
       <use xlink:href="#m5c335bc34f" x="587.337925" y="288" style="stroke: #000000; stroke-width: 0.8"/>
      </g>
     </g>
     <g id="text_10">
      <!-- 2023-10-21 -->
      <g transform="translate(525.694583 337.765903) rotate(-30) scale(0.12 -0.12)">
       <use xlink:href="#DejaVuSans-32"/>
       <use xlink:href="#DejaVuSans-30" x="63.623047"/>
       <use xlink:href="#DejaVuSans-32" x="127.246094"/>
       <use xlink:href="#DejaVuSans-33" x="190.869141"/>
       <use xlink:href="#DejaVuSans-2d" x="254.492188"/>
       <use xlink:href="#DejaVuSans-31" x="290.576172"/>
       <use xlink:href="#DejaVuSans-30" x="354.199219"/>
       <use xlink:href="#DejaVuSans-2d" x="417.822266"/>
       <use xlink:href="#DejaVuSans-32" x="453.90625"/>
       <use xlink:href="#DejaVuSans-31" x="517.529297"/>
      </g>
     </g>
    </g>
    <g id="xtick_11">
     <g id="line2d_11">
      <g>
       <use xlink:href="#m5c335bc34f" x="641.993572" y="288" style="stroke: #000000; stroke-width: 0.8"/>
      </g>
     </g>
     <g id="text_11">
      <!-- 2023-10-25 -->
      <g transform="translate(580.35023 337.765903) rotate(-30) scale(0.12 -0.12)">
       <use xlink:href="#DejaVuSans-32"/>
       <use xlink:href="#DejaVuSans-30" x="63.623047"/>
       <use xlink:href="#DejaVuSans-32" x="127.246094"/>
       <use xlink:href="#DejaVuSans-33" x="190.869141"/>
       <use xlink:href="#DejaVuSans-2d" x="254.492188"/>
       <use xlink:href="#DejaVuSans-31" x="290.576172"/>
       <use xlink:href="#DejaVuSans-30" x="354.199219"/>
       <use xlink:href="#DejaVuSans-2d" x="417.822266"/>
       <use xlink:href="#DejaVuSans-32" x="453.90625"/>
       <use xlink:href="#DejaVuSans-35" x="517.529297"/>
      </g>
     </g>
    </g>
   </g>
   <g id="matplotlib.axis_2">
    <g id="ytick_1">
     <g id="line2d_12">
      <defs>
       <path id="me361833a0e" d="M 0 0 
L -3.5 0 
" style="stroke: #000000; stroke-width: 0.8"/>
      </defs>
      <g>
       <use xlink:href="#me361833a0e" x="90" y="263.7593" style="stroke: #000000; stroke-width: 0.8"/>
      </g>
     </g>
     <g id="text_12">
      <!-- 0.18 -->
      <g transform="translate(56.28125 268.318362) scale(0.12 -0.12)">
       <defs>
        <path id="DejaVuSans-2e" d="M 684 794 
L 1344 794 
L 1344 0 
L 684 0 
L 684 794 
z
" transform="scale(0.015625)"/>
        <path id="DejaVuSans-38" d="M 2034 2216 
Q 1584 2216 1326 1975 
Q 1069 1734 1069 1313 
Q 1069 891 1326 650 
Q 1584 409 2034 409 
Q 2484 409 2743 651 
Q 3003 894 3003 1313 
Q 3003 1734 2745 1975 
Q 2488 2216 2034 2216 
z
M 1403 2484 
Q 997 2584 770 2862 
Q 544 3141 544 3541 
Q 544 4100 942 4425 
Q 1341 4750 2034 4750 
Q 2731 4750 3128 4425 
Q 3525 4100 3525 3541 
Q 3525 3141 3298 2862 
Q 3072 2584 2669 2484 
Q 3125 2378 3379 2068 
Q 3634 1759 3634 1313 
Q 3634 634 3220 271 
Q 2806 -91 2034 -91 
Q 1263 -91 848 271 
Q 434 634 434 1313 
Q 434 1759 690 2068 
Q 947 2378 1403 2484 
z
M 1172 3481 
Q 1172 3119 1398 2916 
Q 1625 2713 2034 2713 
Q 2441 2713 2670 2916 
Q 2900 3119 2900 3481 
Q 2900 3844 2670 4047 
Q 2441 4250 2034 4250 
Q 1625 4250 1398 4047 
Q 1172 3844 1172 3481 
z
" transform="scale(0.015625)"/>
       </defs>
       <use xlink:href="#DejaVuSans-30"/>
       <use xlink:href="#DejaVuSans-2e" x="63.623047"/>
       <use xlink:href="#DejaVuSans-31" x="95.410156"/>
       <use xlink:href="#DejaVuSans-38" x="159.033203"/>
      </g>
     </g>
    </g>
    <g id="ytick_2">
     <g id="line2d_13">
      <g>
       <use xlink:href="#me361833a0e" x="90" y="212.781642" style="stroke: #000000; stroke-width: 0.8"/>
      </g>
     </g>
     <g id="text_13">
      <!-- 0.20 -->
      <g transform="translate(56.28125 217.340704) scale(0.12 -0.12)">
       <use xlink:href="#DejaVuSans-30"/>
       <use xlink:href="#DejaVuSans-2e" x="63.623047"/>
       <use xlink:href="#DejaVuSans-32" x="95.410156"/>
       <use xlink:href="#DejaVuSans-30" x="159.033203"/>
      </g>
     </g>
    </g>
    <g id="ytick_3">
     <g id="line2d_14">
      <g>
       <use xlink:href="#me361833a0e" x="90" y="161.803983" style="stroke: #000000; stroke-width: 0.8"/>
      </g>
     </g>
     <g id="text_14">
      <!-- 0.22 -->
      <g transform="translate(56.28125 166.363046) scale(0.12 -0.12)">
       <use xlink:href="#DejaVuSans-30"/>
       <use xlink:href="#DejaVuSans-2e" x="63.623047"/>
       <use xlink:href="#DejaVuSans-32" x="95.410156"/>
       <use xlink:href="#DejaVuSans-32" x="159.033203"/>
      </g>
     </g>
    </g>
    <g id="ytick_4">
     <g id="line2d_15">
      <g>
       <use xlink:href="#me361833a0e" x="90" y="110.826325" style="stroke: #000000; stroke-width: 0.8"/>
      </g>
     </g>
     <g id="text_15">
      <!-- 0.24 -->
      <g transform="translate(56.28125 115.385388) scale(0.12 -0.12)">
       <defs>
        <path id="DejaVuSans-34" d="M 2419 4116 
L 825 1625 
L 2419 1625 
L 2419 4116 
z
M 2253 4666 
L 3047 4666 
L 3047 1625 
L 3713 1625 
L 3713 1100 
L 3047 1100 
L 3047 0 
L 2419 0 
L 2419 1100 
L 313 1100 
L 313 1709 
L 2253 4666 
z
" transform="scale(0.015625)"/>
       </defs>
       <use xlink:href="#DejaVuSans-30"/>
       <use xlink:href="#DejaVuSans-2e" x="63.623047"/>
       <use xlink:href="#DejaVuSans-32" x="95.410156"/>
       <use xlink:href="#DejaVuSans-34" x="159.033203"/>
      </g>
     </g>
    </g>
    <g id="ytick_5">
     <g id="line2d_16">
      <g>
       <use xlink:href="#me361833a0e" x="90" y="59.848667" style="stroke: #000000; stroke-width: 0.8"/>
      </g>
     </g>
     <g id="text_16">
      <!-- 0.26 -->
      <g transform="translate(56.28125 64.407729) scale(0.12 -0.12)">
       <defs>
        <path id="DejaVuSans-36" d="M 2113 2584 
Q 1688 2584 1439 2293 
Q 1191 2003 1191 1497 
Q 1191 994 1439 701 
Q 1688 409 2113 409 
Q 2538 409 2786 701 
Q 3034 994 3034 1497 
Q 3034 2003 2786 2293 
Q 2538 2584 2113 2584 
z
M 3366 4563 
L 3366 3988 
Q 3128 4100 2886 4159 
Q 2644 4219 2406 4219 
Q 1781 4219 1451 3797 
Q 1122 3375 1075 2522 
Q 1259 2794 1537 2939 
Q 1816 3084 2150 3084 
Q 2853 3084 3261 2657 
Q 3669 2231 3669 1497 
Q 3669 778 3244 343 
Q 2819 -91 2113 -91 
Q 1303 -91 875 529 
Q 447 1150 447 2328 
Q 447 3434 972 4092 
Q 1497 4750 2381 4750 
Q 2619 4750 2861 4703 
Q 3103 4656 3366 4563 
z
" transform="scale(0.015625)"/>
       </defs>
       <use xlink:href="#DejaVuSans-30"/>
       <use xlink:href="#DejaVuSans-2e" x="63.623047"/>
       <use xlink:href="#DejaVuSans-32" x="95.410156"/>
       <use xlink:href="#DejaVuSans-36" x="159.033203"/>
      </g>
     </g>
    </g>
    <g id="text_17">
     <!-- Meters -->
     <g transform="translate(50.201562 182.6875) rotate(-90) scale(0.1 -0.1)">
      <defs>
       <path id="DejaVuSans-4d" d="M 628 4666 
L 1569 4666 
L 2759 1491 
L 3956 4666 
L 4897 4666 
L 4897 0 
L 4281 0 
L 4281 4097 
L 3078 897 
L 2444 897 
L 1241 4097 
L 1241 0 
L 628 0 
L 628 4666 
z
" transform="scale(0.015625)"/>
       <path id="DejaVuSans-65" d="M 3597 1894 
L 3597 1613 
L 953 1613 
Q 991 1019 1311 708 
Q 1631 397 2203 397 
Q 2534 397 2845 478 
Q 3156 559 3463 722 
L 3463 178 
Q 3153 47 2828 -22 
Q 2503 -91 2169 -91 
Q 1331 -91 842 396 
Q 353 884 353 1716 
Q 353 2575 817 3079 
Q 1281 3584 2069 3584 
Q 2775 3584 3186 3129 
Q 3597 2675 3597 1894 
z
M 3022 2063 
Q 3016 2534 2758 2815 
Q 2500 3097 2075 3097 
Q 1594 3097 1305 2825 
Q 1016 2553 972 2059 
L 3022 2063 
z
" transform="scale(0.015625)"/>
       <path id="DejaVuSans-74" d="M 1172 4494 
L 1172 3500 
L 2356 3500 
L 2356 3053 
L 1172 3053 
L 1172 1153 
Q 1172 725 1289 603 
Q 1406 481 1766 481 
L 2356 481 
L 2356 0 
L 1766 0 
Q 1100 0 847 248 
Q 594 497 594 1153 
L 594 3053 
L 172 3053 
L 172 3500 
L 594 3500 
L 594 4494 
L 1172 4494 
z
" transform="scale(0.015625)"/>
       <path id="DejaVuSans-72" d="M 2631 2963 
Q 2534 3019 2420 3045 
Q 2306 3072 2169 3072 
Q 1681 3072 1420 2755 
Q 1159 2438 1159 1844 
L 1159 0 
L 581 0 
L 581 3500 
L 1159 3500 
L 1159 2956 
Q 1341 3275 1631 3429 
Q 1922 3584 2338 3584 
Q 2397 3584 2469 3576 
Q 2541 3569 2628 3553 
L 2631 2963 
z
" transform="scale(0.015625)"/>
       <path id="DejaVuSans-73" d="M 2834 3397 
L 2834 2853 
Q 2591 2978 2328 3040 
Q 2066 3103 1784 3103 
Q 1356 3103 1142 2972 
Q 928 2841 928 2578 
Q 928 2378 1081 2264 
Q 1234 2150 1697 2047 
L 1894 2003 
Q 2506 1872 2764 1633 
Q 3022 1394 3022 966 
Q 3022 478 2636 193 
Q 2250 -91 1575 -91 
Q 1294 -91 989 -36 
Q 684 19 347 128 
L 347 722 
Q 666 556 975 473 
Q 1284 391 1588 391 
Q 1994 391 2212 530 
Q 2431 669 2431 922 
Q 2431 1156 2273 1281 
Q 2116 1406 1581 1522 
L 1381 1569 
Q 847 1681 609 1914 
Q 372 2147 372 2553 
Q 372 3047 722 3315 
Q 1072 3584 1716 3584 
Q 2034 3584 2315 3537 
Q 2597 3491 2834 3397 
z
" transform="scale(0.015625)"/>
      </defs>
      <use xlink:href="#DejaVuSans-4d"/>
      <use xlink:href="#DejaVuSans-65" x="86.279297"/>
      <use xlink:href="#DejaVuSans-74" x="147.802734"/>
      <use xlink:href="#DejaVuSans-65" x="187.011719"/>
      <use xlink:href="#DejaVuSans-72" x="248.535156"/>
      <use xlink:href="#DejaVuSans-73" x="289.648438"/>
     </g>
    </g>
   </g>
   <g id="line2d_17">
    <path d="M 115.363636 149.036502 
L 115.932966 143.090632 
L 116.502296 143.515337 
L 117.071625 146.063567 
L 117.640955 147.337682 
L 118.210285 153.283553 
L 118.779614 153.708258 
L 119.918274 137.144761 
L 120.487603 146.063567 
L 121.056933 121.005968 
L 121.626263 106.565996 
L 122.195592 105.716586 
L 122.764922 105.291881 
L 123.334252 89.577793 
L 123.903581 90.002498 
L 125.042241 98.071895 
L 126.1809 109.114226 
L 127.319559 117.608328 
L 127.888889 118.882443 
L 128.458219 124.403609 
L 129.027548 125.677724 
L 129.596878 132.89771 
L 130.166208 129.075364 
L 130.735537 129.924774 
L 131.304867 138.418876 
L 131.874197 137.569466 
L 132.443526 137.569466 
L 133.012856 142.665926 
L 133.582185 146.488272 
L 134.151515 143.940042 
L 134.720845 146.912977 
L 135.290174 156.256489 
L 135.859504 162.202359 
L 136.428834 165.6 
L 137.567493 171.121166 
L 138.136823 171.121166 
L 138.706152 172.819986 
L 139.275482 176.217627 
L 139.844812 180.889382 
L 140.414141 182.588203 
L 140.983471 182.588203 
L 142.12213 189.383484 
L 142.69146 189.808189 
L 143.26079 191.082304 
L 143.830119 202.974046 
L 144.399449 200.425815 
L 144.968779 203.398751 
L 145.538108 214.016378 
L 146.107438 211.892852 
L 146.676768 212.742262 
L 147.246097 207.221096 
L 147.815427 205.946981 
L 148.384757 211.892852 
L 148.954086 208.919917 
L 149.523416 217.414018 
L 150.092746 214.441083 
L 150.662075 216.139903 
L 151.231405 212.742262 
L 151.800735 211.468147 
L 152.370064 212.317557 
L 152.939394 216.139903 
L 153.508724 222.510479 
L 154.647383 217.414018 
L 155.216713 217.838723 
L 156.355372 222.510479 
L 156.924702 216.139903 
L 157.494031 201.699931 
L 158.063361 194.479944 
L 158.632691 208.919917 
L 159.20202 203.823456 
L 159.77135 207.221096 
L 160.34068 201.275226 
L 161.479339 185.136433 
L 162.617998 177.916447 
L 163.187328 174.094101 
L 163.756657 159.654129 
L 164.895317 144.364747 
L 166.033976 150.310618 
L 167.172635 136.29535 
L 167.741965 131.19889 
L 168.311295 119.731853 
L 168.880624 119.307148 
L 170.019284 102.318945 
L 170.588613 87.029563 
L 171.157943 88.728383 
L 171.727273 93.400139 
L 172.296602 93.400139 
L 172.865932 101.04483 
L 173.435262 96.373074 
L 174.004591 90.427203 
L 174.573921 85.755448 
L 175.143251 89.153088 
L 175.71258 82.782512 
L 176.28191 83.207217 
L 176.85124 78.960167 
L 177.420569 73.439001 
L 177.989899 70.466065 
L 178.559229 70.89077 
L 179.128558 67.917835 
L 179.697888 68.34254 
L 180.267218 69.19195 
L 180.836547 67.917835 
L 181.405877 70.04136 
L 181.975207 70.04136 
L 182.544536 72.164885 
L 183.113866 75.137821 
L 183.683196 72.589591 
L 184.252525 66.64372 
L 184.821855 62.821374 
L 185.391185 55.176683 
L 186.529844 85.755448 
L 187.668503 75.562526 
L 188.807163 66.219015 
L 189.376492 66.64372 
L 189.945822 69.956419 
L 190.515152 71.74018 
L 191.084481 63.246079 
L 191.653811 61.971964 
L 192.22314 62.396669 
L 192.79247 59.848439 
L 193.3618 62.396669 
L 193.931129 63.246079 
L 194.500459 64.944899 
L 195.069789 63.246079 
L 195.639118 61.122554 
L 196.208448 57.724913 
L 197.347107 61.971964 
L 197.916437 58.999028 
L 199.055096 62.396669 
L 199.624426 65.79431 
L 200.193756 68.34254 
L 200.763085 81.083692 
L 201.332415 71.995003 
L 201.901745 67.49313 
L 202.471074 64.520194 
L 203.040404 67.068425 
L 203.609734 68.34254 
L 204.179063 67.068425 
L 204.748393 61.971964 
L 205.317723 61.547259 
L 205.887052 66.64372 
L 206.456382 57.724913 
L 207.025712 66.64372 
L 207.595041 70.466065 
L 208.164371 66.64372 
L 208.733701 70.04136 
L 209.30303 70.04136 
L 209.87236 71.74018 
L 210.44169 73.863706 
L 211.011019 73.863706 
L 212.149679 54.327273 
L 213.288338 81.083692 
L 213.857668 89.153088 
L 214.426997 85.755448 
L 214.996327 86.180153 
L 215.565657 85.755448 
L 216.134986 77.686051 
L 216.704316 81.933102 
L 217.273646 87.878973 
L 217.842975 87.454268 
L 218.412305 85.755448 
L 218.981635 85.755448 
L 219.550964 86.180153 
L 220.120294 89.153088 
L 220.689624 90.427203 
L 221.258953 89.153088 
L 221.828283 94.249549 
L 222.397612 101.469535 
L 222.966942 106.990701 
L 223.536272 114.635392 
L 224.105601 109.114226 
L 224.674931 116.758917 
L 225.244261 106.565996 
L 225.81359 100.620125 
L 226.38292 110.813046 
L 226.95225 126.951839 
L 227.521579 135.44594 
L 228.090909 122.280083 
L 228.660239 123.978904 
L 229.229568 123.554198 
L 229.798898 124.828314 
L 230.368228 130.34948 
L 230.937557 137.994171 
L 231.506887 139.268286 
L 232.076217 138.418876 
L 232.645546 140.967106 
L 233.214876 142.241221 
L 233.784206 141.391811 
L 234.353535 147.337682 
L 234.922865 143.090632 
L 235.492195 146.063567 
L 236.061524 150.735323 
L 236.630854 150.310618 
L 237.200184 148.611797 
L 237.769513 147.762387 
L 238.338843 150.310618 
L 238.908173 137.569466 
L 239.477502 140.117696 
L 240.046832 140.967106 
L 240.616162 152.858848 
L 241.185491 160.928244 
L 242.89348 147.762387 
L 243.46281 140.967106 
L 244.03214 139.692991 
L 244.601469 153.283553 
L 245.170799 152.434143 
L 246.309458 149.036502 
L 246.878788 149.461207 
L 247.448118 148.187092 
L 248.017447 150.310618 
L 248.586777 149.461207 
L 249.156107 150.310618 
L 249.725436 154.132963 
L 250.294766 151.584733 
L 250.864096 146.488272 
L 251.433425 154.982373 
L 252.002755 152.858848 
L 252.572084 157.530604 
L 253.141414 155.407078 
L 253.710744 156.681194 
L 254.280073 155.831783 
L 254.849403 159.654129 
L 255.418733 160.503539 
L 255.988062 160.928244 
L 256.557392 148.611797 
L 257.126722 155.831783 
L 257.696051 155.831783 
L 258.265381 139.692991 
L 259.40404 132.0483 
L 259.97337 137.994171 
L 260.5427 135.44594 
L 261.112029 135.44594 
L 261.681359 135.021235 
L 262.250689 131.19889 
L 262.820018 135.021235 
L 263.958678 124.403609 
L 264.528007 125.253019 
L 265.097337 121.005968 
L 265.666667 121.005968 
L 266.235996 120.156558 
L 266.805326 123.129493 
L 267.374656 123.978904 
L 267.943985 131.623595 
L 268.513315 119.307148 
L 269.082645 126.527134 
L 269.651974 127.376544 
L 270.221304 121.005968 
L 270.790634 120.156558 
L 271.359963 122.704788 
L 271.929293 119.307148 
L 272.498623 118.033033 
L 273.067952 117.183622 
L 273.637282 119.731853 
L 274.206612 118.457738 
L 274.775941 119.731853 
L 275.345271 116.758917 
L 275.914601 123.978904 
L 276.48393 124.828314 
L 277.05326 126.102429 
L 277.62259 123.129493 
L 278.191919 124.403609 
L 278.761249 126.527134 
L 279.330579 123.129493 
L 279.899908 118.457738 
L 280.469238 120.156558 
L 281.038567 131.623595 
L 281.607897 136.29535 
L 282.177227 152.009438 
L 282.746556 150.735323 
L 283.315886 152.434143 
L 283.885216 160.503539 
L 284.454545 157.955309 
L 285.023875 162.627065 
L 285.593205 166.024705 
L 286.162534 167.29882 
L 286.731864 163.90118 
L 287.301194 171.545871 
L 287.870523 172.819986 
L 288.439853 176.642332 
L 289.009183 178.765857 
L 289.578512 181.738793 
L 290.147842 182.588203 
L 290.717172 191.082304 
L 291.286501 194.055239 
L 291.855831 196.178765 
L 292.425161 202.549341 
L 292.99449 207.221096 
L 293.56382 208.919917 
L 294.13315 212.317557 
L 294.702479 207.221096 
L 295.271809 209.769327 
L 295.841139 216.139903 
L 296.979798 221.236364 
L 297.549128 220.386954 
L 298.118457 216.139903 
L 298.687787 210.194032 
L 299.257117 207.221096 
L 299.826446 205.522276 
L 300.395776 203.398751 
L 300.965106 203.823456 
L 301.534435 202.549341 
L 302.103765 203.823456 
L 302.673095 200.85052 
L 303.242424 205.522276 
L 303.811754 207.221096 
L 304.381084 207.221096 
L 304.950413 206.796391 
L 306.658402 198.726995 
L 307.227732 192.356419 
L 308.366391 173.244691 
L 308.935721 180.464677 
L 309.505051 180.039972 
L 310.07438 171.545871 
L 310.64371 171.545871 
L 311.782369 162.627065 
L 312.351699 154.982373 
L 312.921028 150.735323 
L 313.490358 144.789452 
L 314.059688 142.241221 
L 314.629017 142.241221 
L 315.198347 142.665926 
L 315.767677 143.515337 
L 316.337006 138.843581 
L 316.906336 138.843581 
L 317.475666 141.816516 
L 318.044995 140.542401 
L 318.614325 140.967106 
L 319.183655 142.665926 
L 319.752984 140.967106 
L 320.322314 140.117696 
L 320.891644 134.59653 
L 321.460973 138.418876 
L 322.030303 132.89771 
L 322.599633 115.060097 
L 323.168962 114.210687 
L 323.738292 113.785982 
L 324.307622 112.087162 
L 326.015611 124.403609 
L 326.58494 125.677724 
L 327.15427 126.527134 
L 328.292929 133.74712 
L 328.862259 137.144761 
L 330.000918 148.611797 
L 331.139578 158.804719 
L 331.708907 165.175295 
L 332.847567 174.094101 
L 333.416896 177.067037 
L 333.986226 182.163498 
L 334.555556 184.711728 
L 335.694215 184.711728 
L 336.263545 197.45288 
L 336.832874 202.549341 
L 337.402204 200.85052 
L 337.971534 203.398751 
L 338.540863 208.070507 
L 339.110193 206.796391 
L 339.679522 210.618737 
L 340.248852 240.348092 
L 340.818182 235.676336 
L 341.387511 217.414018 
L 341.956841 224.209299 
L 342.526171 234.402221 
L 343.0955 231.85399 
L 343.66483 233.128105 
L 344.23416 242.471617 
L 344.803489 249.691603 
L 345.372819 254.363359 
L 345.942149 254.363359 
L 346.511478 257.760999 
L 347.080808 262.00805 
L 347.650138 267.104511 
L 348.219467 263.70687 
L 348.788797 255.637474 
L 349.358127 249.266898 
L 350.496786 274.749202 
L 351.066116 259.884525 
L 351.635445 254.788064 
L 352.204775 251.390423 
L 352.774105 253.089244 
L 353.343434 252.239833 
L 353.912764 252.239833 
L 354.482094 253.089244 
L 355.051423 237.799861 
L 355.620753 233.552811 
L 356.190083 233.977516 
L 356.759412 225.483414 
L 357.328742 221.236364 
L 357.898072 219.112838 
L 358.467401 216.139903 
L 359.036731 214.441083 
L 359.606061 217.414018 
L 360.74472 204.248161 
L 361.31405 203.823456 
L 361.883379 202.124636 
L 362.452709 190.657599 
L 363.022039 190.657599 
L 363.591368 193.630534 
L 364.160698 182.588203 
L 364.730028 174.094101 
L 365.299357 177.491742 
L 365.868687 167.723525 
L 366.438017 164.75059 
L 367.007346 152.434143 
L 367.576676 153.283553 
L 368.146006 144.364747 
L 369.284665 132.0483 
L 369.853994 127.376544 
L 370.423324 126.527134 
L 370.992654 120.156558 
L 371.561983 111.237752 
L 372.131313 115.909507 
L 372.700643 104.442471 
L 373.269972 96.373074 
L 373.839302 93.400139 
L 374.408632 86.604858 
L 374.977961 83.631922 
L 375.547291 88.303678 
L 376.68595 75.137821 
L 377.25528 75.562526 
L 377.82461 86.604858 
L 378.393939 84.056627 
L 378.963269 79.384872 
L 379.532599 85.755448 
L 380.101928 86.180153 
L 380.671258 95.948369 
L 381.240588 97.647189 
L 381.809917 98.071895 
L 382.379247 100.19542 
L 383.517906 105.716586 
L 384.087236 111.237752 
L 384.656566 118.033033 
L 385.795225 122.704788 
L 386.364555 121.855378 
L 386.933884 128.225954 
L 388.641873 142.665926 
L 389.211203 144.789452 
L 389.780533 139.692991 
L 390.349862 139.692991 
L 390.919192 140.542401 
L 391.488522 156.256489 
L 392.057851 129.924774 
L 392.627181 137.569466 
L 393.196511 141.816516 
L 393.76584 157.530604 
L 394.33517 151.584733 
L 394.9045 169.422346 
L 395.473829 174.094101 
L 396.612489 179.615267 
L 397.181818 183.862318 
L 397.751148 185.561138 
L 398.320478 195.75406 
L 398.889807 194.055239 
L 399.459137 196.60347 
L 400.028466 194.055239 
L 400.597796 195.329355 
L 401.167126 199.576405 
L 401.736455 196.178765 
L 402.305785 201.699931 
L 402.875115 201.699931 
L 403.444444 198.726995 
L 404.013774 205.946981 
L 405.152433 200.425815 
L 406.291093 206.371686 
L 406.860422 200.00111 
L 407.429752 202.124636 
L 407.999082 206.796391 
L 408.568411 198.726995 
L 409.137741 197.877585 
L 426.217631 164.75059 
L 426.786961 162.627065 
L 427.35629 162.627065 
L 427.92562 162.202359 
L 428.494949 163.90118 
L 429.064279 157.105899 
L 429.633609 161.352949 
L 430.202938 162.627065 
L 430.772268 150.310618 
L 431.341598 148.611797 
L 431.910927 150.310618 
L 432.480257 158.380014 
L 433.049587 144.789452 
L 433.618916 163.90118 
L 434.188246 160.928244 
L 434.757576 161.777654 
L 435.326905 168.14823 
L 435.896235 164.75059 
L 437.034894 153.708258 
L 437.604224 164.325885 
L 438.173554 155.407078 
L 438.742883 161.352949 
L 439.312213 161.777654 
L 439.881543 162.627065 
L 440.450872 168.572935 
L 441.020202 166.874115 
L 441.589532 169.847051 
L 442.728191 170.696461 
L 443.297521 171.545871 
L 443.86685 178.765857 
L 444.43618 179.615267 
L 445.00551 182.588203 
L 445.574839 178.765857 
L 446.713499 188.958779 
L 447.282828 191.082304 
L 447.852158 185.561138 
L 448.421488 189.808189 
L 448.990817 188.109368 
L 449.560147 194.055239 
L 450.129477 194.055239 
L 450.698806 193.205829 
L 451.268136 199.576405 
L 451.837466 201.275226 
L 452.406795 200.00111 
L 453.545455 204.672866 
L 454.114784 208.070507 
L 454.684114 208.070507 
L 455.253444 209.344622 
L 455.822773 214.865788 
L 456.392103 216.564608 
L 456.961433 220.811659 
L 457.530762 216.564608 
L 458.100092 206.371686 
L 458.669421 203.823456 
L 459.238751 214.441083 
L 459.808081 211.043442 
L 460.37741 217.414018 
L 460.94674 206.796391 
L 461.51607 202.124636 
L 462.085399 192.356419 
L 462.654729 195.329355 
L 463.224059 191.082304 
L 463.793388 189.383484 
L 464.362718 190.657599 
L 464.932048 195.329355 
L 465.501377 196.60347 
L 466.070707 197.028175 
L 466.640037 199.1517 
L 467.209366 199.576405 
L 467.778696 197.028175 
L 468.917355 202.549341 
L 469.486685 201.699931 
L 470.056015 199.576405 
L 470.625344 198.30229 
L 471.194674 189.383484 
L 471.764004 186.410548 
L 472.333333 196.178765 
L 472.902663 200.425815 
L 473.471993 192.356419 
L 474.041322 189.808189 
L 474.610652 193.205829 
L 475.179982 192.356419 
L 475.749311 195.329355 
L 476.318641 194.90465 
L 476.887971 202.549341 
L 477.4573 200.00111 
L 478.02663 199.1517 
L 478.59596 197.877585 
L 480.303949 205.946981 
L 480.873278 205.946981 
L 481.442608 202.974046 
L 482.011938 207.645802 
L 482.581267 203.398751 
L 483.150597 213.166967 
L 483.719927 205.097571 
L 484.289256 209.769327 
L 484.858586 211.468147 
L 485.427916 207.221096 
L 485.997245 209.344622 
L 486.566575 217.414018 
L 487.135904 221.661069 
L 487.705234 233.128105 
L 488.274564 233.977516 
L 488.843893 236.101041 
L 489.413223 232.278695 
L 490.551882 234.826926 
L 491.121212 233.552811 
L 491.690542 237.375156 
L 492.829201 231.85399 
L 493.96786 238.224566 
L 494.53719 237.799861 
L 495.10652 237.799861 
L 495.675849 238.649271 
L 496.245179 243.321027 
L 496.814509 236.525746 
L 497.383838 243.745732 
L 497.953168 231.429285 
L 498.522498 248.417488 
L 499.661157 249.266898 
L 500.230487 247.992783 
L 500.799816 232.7034 
L 501.369146 247.992783 
L 501.938476 232.7034 
L 502.507805 241.197502 
L 503.077135 243.321027 
L 503.646465 240.348092 
L 504.215794 243.745732 
L 504.785124 242.471617 
L 505.354454 237.799861 
L 505.923783 239.498681 
L 506.493113 236.950451 
L 507.631772 236.101041 
L 508.201102 237.375156 
L 508.770432 239.923387 
L 509.339761 238.224566 
L 509.909091 240.348092 
L 510.478421 240.348092 
L 511.04775 237.799861 
L 511.61708 239.923387 
L 512.18641 239.923387 
L 512.755739 242.046912 
L 513.325069 238.649271 
L 513.894399 242.471617 
L 514.463728 241.622207 
L 515.602388 232.278695 
L 516.171717 229.30576 
L 516.741047 222.935184 
L 517.879706 213.166967 
L 518.449036 205.097571 
L 519.018365 201.275226 
L 519.587695 201.275226 
L 520.157025 200.85052 
L 520.726354 195.75406 
L 521.295684 194.479944 
L 521.865014 190.657599 
L 522.434343 194.055239 
L 523.573003 187.259958 
L 524.142332 186.835253 
L 524.711662 185.561138 
L 525.280992 186.410548 
L 526.419651 181.738793 
L 526.988981 183.437613 
L 527.55831 186.835253 
L 528.12764 184.711728 
L 529.266299 179.190562 
L 529.835629 174.943511 
L 530.404959 175.792922 
L 530.974288 184.711728 
L 531.543618 200.85052 
L 532.112948 195.75406 
L 532.682277 197.45288 
L 533.251607 201.275226 
L 534.959596 219.537543 
L 535.528926 224.634004 
L 536.667585 238.224566 
L 537.236915 243.745732 
L 537.806244 245.444552 
L 538.375574 251.815128 
L 538.944904 256.486884 
L 539.514233 263.282165 
L 540.083563 261.583345 
L 540.652893 262.00805 
L 541.791552 270.926856 
L 542.360882 271.351561 
L 542.930211 271.351561 
L 543.499541 276.872727 
L 544.6382 270.502151 
L 545.20753 270.926856 
L 545.77686 265.830396 
L 546.346189 264.55628 
L 546.915519 267.953921 
L 547.484848 269.228036 
L 548.054178 267.104511 
L 548.623508 265.830396 
L 549.192837 265.40569 
L 549.762167 263.70687 
L 550.331497 265.830396 
L 550.900826 264.980985 
L 551.470156 262.00805 
L 552.608815 262.00805 
L 553.178145 264.980985 
L 553.747475 259.45982 
L 554.316804 259.45982 
L 554.886134 268.803331 
L 555.455464 256.486884 
L 556.024793 250.541013 
L 557.163453 249.691603 
L 557.732782 242.046912 
L 558.302112 240.348092 
L 558.871442 236.525746 
L 559.440771 229.30576 
L 560.010101 224.209299 
L 560.579431 223.784594 
L 561.14876 219.112838 
L 561.71809 217.414018 
L 562.28742 217.414018 
L 562.856749 213.166967 
L 563.426079 211.043442 
L 563.995409 207.645802 
L 564.564738 207.645802 
L 565.134068 206.796391 
L 566.842057 200.00111 
L 567.411387 196.178765 
L 567.980716 196.178765 
L 569.119376 191.507009 
L 569.688705 194.055239 
L 570.258035 191.507009 
L 570.827365 190.657599 
L 571.396694 188.958779 
L 571.966024 185.985843 
L 572.535354 179.615267 
L 573.104683 175.792922 
L 574.243343 163.05177 
L 574.812672 160.503539 
L 575.382002 159.229424 
L 575.951331 157.105899 
L 576.520661 155.831783 
L 577.65932 146.488272 
L 578.22865 146.912977 
L 578.79798 146.063567 
L 579.367309 144.789452 
L 579.936639 141.816516 
L 580.505969 142.665926 
L 581.075298 138.843581 
L 581.644628 140.117696 
L 582.213958 141.816516 
L 582.783287 140.542401 
L 583.352617 143.515337 
L 583.921947 141.816516 
L 584.491276 148.611797 
L 585.060606 149.885913 
L 585.629936 152.858848 
L 586.199265 151.584733 
L 586.768595 153.283553 
L 587.337925 153.708258 
L 587.907254 151.160028 
L 588.476584 157.955309 
L 589.045914 153.708258 
L 589.615243 156.681194 
L 590.184573 154.557668 
L 590.753903 155.831783 
L 591.892562 160.503539 
L 592.461892 161.352949 
L 593.031221 160.928244 
L 593.600551 162.202359 
L 594.169881 164.325885 
L 594.73921 168.14823 
L 595.30854 170.696461 
L 595.87787 171.970576 
L 596.447199 171.545871 
L 597.016529 174.518806 
L 597.585859 181.314087 
L 598.155188 178.341152 
L 598.724518 183.012908 
L 599.293848 184.287023 
L 599.863177 183.862318 
L 600.432507 185.985843 
L 601.001837 194.055239 
L 601.571166 194.90465 
L 602.140496 192.356419 
L 602.709826 192.781124 
L 603.279155 193.630534 
L 604.417815 197.028175 
L 604.987144 198.30229 
L 605.556474 205.522276 
L 606.125803 205.522276 
L 606.695133 208.919917 
L 607.264463 214.441083 
L 607.833792 213.166967 
L 608.403122 211.043442 
L 608.972452 214.016378 
L 609.541781 223.359889 
L 610.680441 208.495212 
L 611.24977 211.468147 
L 611.8191 207.221096 
L 612.38843 205.522276 
L 612.957759 218.688133 
L 613.527089 226.757529 
L 614.096419 216.139903 
L 614.665748 213.591672 
L 615.235078 215.715198 
L 615.804408 216.139903 
L 616.373737 217.414018 
L 617.512397 217.414018 
L 618.081726 219.112838 
L 618.651056 217.414018 
L 619.220386 221.661069 
L 619.789715 217.838723 
L 620.359045 220.811659 
L 620.928375 220.386954 
L 621.497704 221.661069 
L 622.067034 218.263428 
L 622.636364 222.085774 
L 622.636364 222.085774 
" clip-path="url(#p93fea0267e)" style="fill: none; stroke: #1f77b4; stroke-width: 1.5; stroke-linecap: square"/>
   </g>
   <g id="line2d_18">
    <path d="M 115.363636 155.407078 
L 118.779614 155.75783 
L 121.056933 156.012919 
L 122.195592 155.443018 
L 123.903581 155.755048 
L 129.027548 156.679268 
L 129.596878 118.882443 
L 130.166208 118.300523 
L 131.304867 116.956692 
L 131.874197 116.655644 
L 132.443526 116.711237 
L 133.012856 117.179247 
L 133.582185 118.012227 
L 136.428834 123.178682 
L 136.998163 123.788786 
L 137.567493 124.204013 
L 138.136823 124.448516 
L 139.275482 124.55576 
L 140.414141 124.3619 
L 142.12213 123.889332 
L 142.69146 185.985843 
L 145.538108 185.042174 
L 146.676768 184.97966 
L 147.246097 185.045746 
L 147.815427 185.528727 
L 148.384757 186.696386 
L 149.523416 189.388523 
L 150.092746 190.071669 
L 151.800735 190.71648 
L 153.508724 190.782971 
L 154.078053 190.674567 
L 155.786042 189.811196 
L 156.355372 217.838723 
L 170.019284 213.787712 
L 170.588613 119.307148 
L 180.836547 120.915163 
L 181.405877 121.146499 
L 181.975207 121.658501 
L 182.544536 122.624524 
L 183.683196 125.465713 
L 184.252525 71.995003 
L 184.821855 72.776256 
L 185.391185 73.019364 
L 186.529844 72.902858 
L 187.668503 73.142396 
L 189.376492 73.8771 
L 191.084481 75.211791 
L 195.069789 77.209373 
L 199.624426 79.401793 
L 200.193756 57.724913 
L 201.901745 58.96929 
L 202.471074 57.755825 
L 203.040404 57.074403 
L 203.609734 58.861279 
L 204.179063 61.146943 
L 204.748393 62.803016 
L 205.887052 63.825135 
L 208.733701 65.587743 
L 211.011019 66.924269 
L 211.580349 66.881772 
L 212.149679 71.74018 
L 212.719008 71.608096 
L 213.288338 71.716358 
L 214.426997 72.283618 
L 214.996327 72.749006 
L 215.565657 73.653841 
L 216.134986 75.36421 
L 217.273646 80.89051 
L 218.412305 86.683689 
L 218.981635 88.985097 
L 219.550964 90.610905 
L 220.120294 91.558326 
L 220.689624 92.050976 
L 221.828283 92.558994 
L 229.229568 95.119975 
L 234.922865 96.97181 
L 238.338843 97.787104 
L 238.908173 145.638862 
L 251.433425 142.34989 
L 252.002755 145.638862 
L 252.572084 145.667154 
L 253.141414 145.894965 
L 253.710744 146.259627 
L 254.280073 146.444327 
L 255.418733 146.29369 
L 257.696051 145.715273 
L 258.834711 146.84741 
L 259.97337 146.853609 
L 260.5427 146.668406 
L 261.112029 146.621443 
L 262.250689 146.997813 
L 263.389348 147.626971 
L 264.528007 147.899064 
L 266.805326 147.728673 
L 267.374656 148.635713 
L 267.943985 150.535503 
L 268.513315 123.978904 
L 271.359963 124.034038 
L 271.929293 130.34948 
L 274.206612 130.60615 
L 278.761249 130.997559 
L 279.330579 126.527134 
L 305.519743 129.339825 
L 306.089073 129.393625 
L 306.658402 206.796391 
L 307.797062 206.344655 
L 308.935721 206.144606 
L 309.505051 206.175575 
L 310.07438 206.391089 
L 310.64371 206.836019 
L 312.351699 208.580236 
L 312.921028 208.833382 
L 314.059688 208.837501 
L 318.044995 208.060123 
L 319.752984 207.813745 
L 320.322314 207.843345 
L 320.891644 144.364747 
L 322.599633 144.319461 
L 323.168962 144.568459 
L 324.307622 142.128586 
L 325.446281 143.736352 
L 326.015611 144.357058 
L 326.58494 144.551589 
L 330.570248 144.972962 
L 331.708907 144.820014 
L 332.278237 144.991002 
L 332.847567 143.816288 
L 333.416896 141.420173 
L 333.986226 172.395281 
L 334.555556 171.192782 
L 335.124885 170.929662 
L 335.694215 171.709373 
L 336.263545 173.404334 
L 339.110193 184.472633 
L 339.679522 185.655382 
L 340.248852 186.390226 
L 340.818182 186.746612 
L 341.387511 186.806404 
L 341.956841 186.648906 
L 343.0955 185.943327 
L 347.650138 182.468769 
L 348.219467 259.035115 
L 348.788797 259.272057 
L 349.358127 259.293387 
L 349.927456 260.099635 
L 350.496786 262.240563 
L 351.066116 263.59733 
L 352.204775 263.885191 
L 358.467401 264.220087 
L 361.31405 264.394036 
L 361.883379 204.248161 
L 369.853994 205.426571 
L 370.423324 205.028376 
L 370.992654 203.455148 
L 372.131313 193.853826 
L 372.700643 191.207549 
L 373.269972 190.34909 
L 373.839302 190.569031 
L 374.977961 190.743801 
L 375.547291 85.755448 
L 376.116621 88.224946 
L 376.68595 89.825359 
L 377.25528 91.829068 
L 377.82461 92.24892 
L 378.393939 92.191534 
L 378.963269 92.613118 
L 379.532599 92.725136 
L 380.671258 88.527695 
L 381.240588 88.656877 
L 382.379247 88.599298 
L 382.948577 88.172931 
L 383.517906 88.074932 
L 384.087236 88.640129 
L 384.656566 90.502377 
L 385.225895 94.167147 
L 386.933884 107.515799 
L 388.072544 115.083102 
L 388.641873 117.731416 
L 389.211203 134.171825 
L 389.780533 138.323691 
L 390.349862 139.893142 
L 390.919192 138.974962 
L 391.488522 137.598928 
L 393.196511 132.523809 
L 394.9045 122.466683 
L 395.473829 120.530869 
L 396.043159 119.520825 
L 396.612489 119.026143 
L 397.751148 118.588863 
L 398.320478 118.451115 
L 398.889807 118.472624 
L 400.028466 119.1458 
L 400.597796 119.835471 
L 401.736455 118.936521 
L 402.305785 119.803527 
L 402.875115 195.329355 
L 405.152433 184.682566 
L 405.721763 183.782484 
L 406.291093 183.965069 
L 406.860422 185.20812 
L 407.429752 186.938893 
L 407.999082 188.088031 
L 408.568411 188.76506 
L 409.137741 189.144036 
L 426.217631 184.456822 
L 428.494949 180.383655 
L 429.064279 179.762498 
L 429.633609 180.009102 
L 430.202938 180.491755 
L 430.772268 181.248186 
L 431.910927 184.626658 
L 432.480257 185.969987 
L 433.618916 190.981987 
L 434.188246 192.716616 
L 434.757576 193.848568 
L 435.326905 194.080294 
L 437.034894 193.060351 
L 438.173554 192.693516 
L 439.881543 192.421426 
L 442.158861 191.829711 
L 443.297521 191.625596 
L 443.86685 167.29882 
L 444.43618 166.163277 
L 445.00551 163.735035 
L 446.713499 153.51965 
L 447.282828 151.084085 
L 447.852158 150.085491 
L 448.421488 151.047232 
L 448.990817 153.634523 
L 451.268136 167.224673 
L 451.837466 169.29906 
L 452.406795 170.624958 
L 452.976125 171.292672 
L 453.545455 171.312551 
L 454.114784 170.868185 
L 454.684114 170.114273 
L 455.253444 169.11456 
L 455.822773 167.47549 
L 456.392103 164.544073 
L 456.961433 211.892852 
L 458.100092 203.831206 
L 458.669421 201.387476 
L 459.238751 200.626502 
L 459.808081 201.58749 
L 460.37741 203.884715 
L 460.94674 207.042926 
L 461.51607 209.300085 
L 462.085399 210.9776 
L 463.224059 217.077659 
L 463.793388 221.332558 
L 464.362718 226.618993 
L 464.932048 230.642134 
L 465.501377 232.561694 
L 466.070707 233.021905 
L 466.640037 232.922299 
L 467.209366 232.242301 
L 469.486685 227.377006 
L 470.056015 226.564666 
L 470.625344 224.828666 
L 471.194674 199.1517 
L 472.333333 196.20165 
L 472.902663 195.340896 
L 473.471993 195.147899 
L 474.041322 195.593252 
L 474.610652 196.558268 
L 475.179982 197.995364 
L 477.4573 205.226449 
L 478.02663 206.128108 
L 478.59596 206.617684 
L 479.165289 206.811111 
L 480.303949 206.754465 
L 483.719927 206.108652 
L 484.289256 213.166967 
L 492.259871 210.892358 
L 493.96786 210.718792 
L 494.53719 210.803175 
L 495.675849 209.347736 
L 496.245179 209.380072 
L 497.953168 209.122644 
L 498.522498 245.019847 
L 501.369146 244.640846 
L 503.646465 244.515 
L 504.215794 244.129605 
L 505.354454 242.777211 
L 505.923783 242.326004 
L 506.493113 242.116273 
L 507.062443 242.173178 
L 507.631772 242.46943 
L 510.478421 244.798414 
L 511.04775 245.043296 
L 512.755739 237.53161 
L 513.325069 236.06192 
L 513.894399 235.579972 
L 514.463728 236.199458 
L 517.879706 242.47983 
L 518.449036 243.245674 
L 519.018365 243.710977 
L 519.587695 243.878525 
L 520.157025 243.803835 
L 520.726354 243.532497 
L 522.434343 242.116697 
L 523.573003 241.87376 
L 524.142332 241.193612 
L 524.711662 239.547225 
L 525.280992 236.877016 
L 525.850321 187.684663 
L 526.419651 190.259439 
L 526.988981 191.778877 
L 527.55831 192.435748 
L 528.12764 192.702075 
L 528.69697 192.65122 
L 529.266299 192.10854 
L 529.835629 190.966708 
L 531.543618 186.326127 
L 532.112948 185.435124 
L 532.682277 184.940839 
L 533.820937 184.450521 
L 537.806244 183.162797 
L 538.944904 182.818597 
L 539.514233 255.212769 
L 552.608815 252.676323 
L 553.178145 262.85746 
L 558.871442 261.725543 
L 562.28742 260.330925 
L 562.856749 260.097471 
L 565.134068 259.563166 
L 565.703398 259.286961 
L 566.272727 258.619241 
L 566.842057 205.522276 
L 567.411387 204.308195 
L 567.980716 203.607212 
L 569.119376 203.555089 
L 571.966024 203.863428 
L 572.535354 204.100677 
L 573.104683 204.022835 
L 573.674013 202.440745 
L 574.243343 199.79167 
L 574.812672 195.770779 
L 575.382002 189.862694 
L 576.520661 175.752139 
L 577.089991 172.048744 
L 577.65932 171.32601 
L 578.22865 172.603812 
L 578.79798 176.161909 
L 579.936639 188.327528 
L 580.505969 146.912977 
L 581.075298 152.540284 
L 581.644628 157.026448 
L 582.213958 159.950098 
L 582.783287 160.927476 
L 583.352617 160.109509 
L 583.921947 157.726769 
L 584.491276 154.274484 
L 585.060606 149.202949 
L 586.768595 130.09897 
L 587.337925 124.966082 
L 587.907254 121.25105 
L 588.476584 119.854704 
L 589.045914 120.745471 
L 589.615243 123.422862 
L 592.461892 143.265272 
L 593.031221 148.659163 
L 593.600551 162.202359 
L 594.169881 163.844533 
L 594.73921 164.54328 
L 595.30854 164.778069 
L 597.016529 164.936515 
L 607.264463 165.553255 
L 607.833792 202.974046 
L 608.403122 202.498991 
L 608.972452 201.79151 
L 610.111111 199.753666 
L 610.680441 198.590861 
L 611.24977 197.113847 
L 611.8191 195.027915 
L 614.096419 184.649296 
L 614.665748 183.21399 
L 615.235078 182.420769 
L 615.804408 182.083756 
L 616.943067 181.986683 
L 620.928375 182.185529 
L 621.497704 220.811659 
L 622.636364 220.812073 
L 622.636364 220.812073 
" clip-path="url(#p93fea0267e)" style="fill: none; stroke: #ff7f0e; stroke-width: 1.5; stroke-linecap: square"/>
   </g>
   <g id="patch_3">
    <path d="M 90 288 
L 90 43.2 
" style="fill: none; stroke: #000000; stroke-width: 0.8; stroke-linejoin: miter; stroke-linecap: square"/>
   </g>
   <g id="patch_4">
    <path d="M 648 288 
L 648 43.2 
" style="fill: none; stroke: #000000; stroke-width: 0.8; stroke-linejoin: miter; stroke-linecap: square"/>
   </g>
   <g id="patch_5">
    <path d="M 90 288 
L 648 288 
" style="fill: none; stroke: #000000; stroke-width: 0.8; stroke-linejoin: miter; stroke-linecap: square"/>
   </g>
   <g id="patch_6">
    <path d="M 90 43.2 
L 648 43.2 
" style="fill: none; stroke: #000000; stroke-width: 0.8; stroke-linejoin: miter; stroke-linecap: square"/>
   </g>
   <g id="text_18">
    <!-- MDOT335 -->
    <g transform="translate(339.362813 37.2) scale(0.12 -0.12)">
     <defs>
      <path id="DejaVuSans-44" d="M 1259 4147 
L 1259 519 
L 2022 519 
Q 2988 519 3436 956 
Q 3884 1394 3884 2338 
Q 3884 3275 3436 3711 
Q 2988 4147 2022 4147 
L 1259 4147 
z
M 628 4666 
L 1925 4666 
Q 3281 4666 3915 4102 
Q 4550 3538 4550 2338 
Q 4550 1131 3912 565 
Q 3275 0 1925 0 
L 628 0 
L 628 4666 
z
" transform="scale(0.015625)"/>
      <path id="DejaVuSans-4f" d="M 2522 4238 
Q 1834 4238 1429 3725 
Q 1025 3213 1025 2328 
Q 1025 1447 1429 934 
Q 1834 422 2522 422 
Q 3209 422 3611 934 
Q 4013 1447 4013 2328 
Q 4013 3213 3611 3725 
Q 3209 4238 2522 4238 
z
M 2522 4750 
Q 3503 4750 4090 4092 
Q 4678 3434 4678 2328 
Q 4678 1225 4090 567 
Q 3503 -91 2522 -91 
Q 1538 -91 948 565 
Q 359 1222 359 2328 
Q 359 3434 948 4092 
Q 1538 4750 2522 4750 
z
" transform="scale(0.015625)"/>
      <path id="DejaVuSans-54" d="M -19 4666 
L 3928 4666 
L 3928 4134 
L 2272 4134 
L 2272 0 
L 1638 0 
L 1638 4134 
L -19 4134 
L -19 4666 
z
" transform="scale(0.015625)"/>
     </defs>
     <use xlink:href="#DejaVuSans-4d"/>
     <use xlink:href="#DejaVuSans-44" x="86.279297"/>
     <use xlink:href="#DejaVuSans-4f" x="163.28125"/>
     <use xlink:href="#DejaVuSans-54" x="241.992188"/>
     <use xlink:href="#DejaVuSans-33" x="303.076172"/>
     <use xlink:href="#DejaVuSans-33" x="366.699219"/>
     <use xlink:href="#DejaVuSans-35" x="430.322266"/>
    </g>
   </g>
   <g id="legend_1">
    <g id="patch_7">
     <path d="M 559.04375 80.55625 
L 641 80.55625 
Q 643 80.55625 643 78.55625 
L 643 50.2 
Q 643 48.2 641 48.2 
L 559.04375 48.2 
Q 557.04375 48.2 557.04375 50.2 
L 557.04375 78.55625 
Q 557.04375 80.55625 559.04375 80.55625 
z
" style="fill: #ffffff; opacity: 0.8; stroke: #cccccc; stroke-linejoin: miter"/>
    </g>
    <g id="line2d_19">
     <path d="M 561.04375 56.298437 
L 571.04375 56.298437 
L 581.04375 56.298437 
" style="fill: none; stroke: #1f77b4; stroke-width: 1.5; stroke-linecap: square"/>
    </g>
    <g id="text_19">
     <!-- measured -->
     <g transform="translate(589.04375 59.798437) scale(0.1 -0.1)">
      <defs>
       <path id="DejaVuSans-6d" d="M 3328 2828 
Q 3544 3216 3844 3400 
Q 4144 3584 4550 3584 
Q 5097 3584 5394 3201 
Q 5691 2819 5691 2113 
L 5691 0 
L 5113 0 
L 5113 2094 
Q 5113 2597 4934 2840 
Q 4756 3084 4391 3084 
Q 3944 3084 3684 2787 
Q 3425 2491 3425 1978 
L 3425 0 
L 2847 0 
L 2847 2094 
Q 2847 2600 2669 2842 
Q 2491 3084 2119 3084 
Q 1678 3084 1418 2786 
Q 1159 2488 1159 1978 
L 1159 0 
L 581 0 
L 581 3500 
L 1159 3500 
L 1159 2956 
Q 1356 3278 1631 3431 
Q 1906 3584 2284 3584 
Q 2666 3584 2933 3390 
Q 3200 3197 3328 2828 
z
" transform="scale(0.015625)"/>
       <path id="DejaVuSans-61" d="M 2194 1759 
Q 1497 1759 1228 1600 
Q 959 1441 959 1056 
Q 959 750 1161 570 
Q 1363 391 1709 391 
Q 2188 391 2477 730 
Q 2766 1069 2766 1631 
L 2766 1759 
L 2194 1759 
z
M 3341 1997 
L 3341 0 
L 2766 0 
L 2766 531 
Q 2569 213 2275 61 
Q 1981 -91 1556 -91 
Q 1019 -91 701 211 
Q 384 513 384 1019 
Q 384 1609 779 1909 
Q 1175 2209 1959 2209 
L 2766 2209 
L 2766 2266 
Q 2766 2663 2505 2880 
Q 2244 3097 1772 3097 
Q 1472 3097 1187 3025 
Q 903 2953 641 2809 
L 641 3341 
Q 956 3463 1253 3523 
Q 1550 3584 1831 3584 
Q 2591 3584 2966 3190 
Q 3341 2797 3341 1997 
z
" transform="scale(0.015625)"/>
       <path id="DejaVuSans-75" d="M 544 1381 
L 544 3500 
L 1119 3500 
L 1119 1403 
Q 1119 906 1312 657 
Q 1506 409 1894 409 
Q 2359 409 2629 706 
Q 2900 1003 2900 1516 
L 2900 3500 
L 3475 3500 
L 3475 0 
L 2900 0 
L 2900 538 
Q 2691 219 2414 64 
Q 2138 -91 1772 -91 
Q 1169 -91 856 284 
Q 544 659 544 1381 
z
M 1991 3584 
L 1991 3584 
z
" transform="scale(0.015625)"/>
       <path id="DejaVuSans-64" d="M 2906 2969 
L 2906 4863 
L 3481 4863 
L 3481 0 
L 2906 0 
L 2906 525 
Q 2725 213 2448 61 
Q 2172 -91 1784 -91 
Q 1150 -91 751 415 
Q 353 922 353 1747 
Q 353 2572 751 3078 
Q 1150 3584 1784 3584 
Q 2172 3584 2448 3432 
Q 2725 3281 2906 2969 
z
M 947 1747 
Q 947 1113 1208 752 
Q 1469 391 1925 391 
Q 2381 391 2643 752 
Q 2906 1113 2906 1747 
Q 2906 2381 2643 2742 
Q 2381 3103 1925 3103 
Q 1469 3103 1208 2742 
Q 947 2381 947 1747 
z
" transform="scale(0.015625)"/>
      </defs>
      <use xlink:href="#DejaVuSans-6d"/>
      <use xlink:href="#DejaVuSans-65" x="97.412109"/>
      <use xlink:href="#DejaVuSans-61" x="158.935547"/>
      <use xlink:href="#DejaVuSans-73" x="220.214844"/>
      <use xlink:href="#DejaVuSans-75" x="272.314453"/>
      <use xlink:href="#DejaVuSans-72" x="335.693359"/>
      <use xlink:href="#DejaVuSans-65" x="374.556641"/>
      <use xlink:href="#DejaVuSans-64" x="436.080078"/>
     </g>
    </g>
    <g id="line2d_20">
     <path d="M 561.04375 70.976562 
L 571.04375 70.976562 
L 581.04375 70.976562 
" style="fill: none; stroke: #ff7f0e; stroke-width: 1.5; stroke-linecap: square"/>
    </g>
    <g id="text_20">
     <!-- predicted -->
     <g transform="translate(589.04375 74.476562) scale(0.1 -0.1)">
      <defs>
       <path id="DejaVuSans-70" d="M 1159 525 
L 1159 -1331 
L 581 -1331 
L 581 3500 
L 1159 3500 
L 1159 2969 
Q 1341 3281 1617 3432 
Q 1894 3584 2278 3584 
Q 2916 3584 3314 3078 
Q 3713 2572 3713 1747 
Q 3713 922 3314 415 
Q 2916 -91 2278 -91 
Q 1894 -91 1617 61 
Q 1341 213 1159 525 
z
M 3116 1747 
Q 3116 2381 2855 2742 
Q 2594 3103 2138 3103 
Q 1681 3103 1420 2742 
Q 1159 2381 1159 1747 
Q 1159 1113 1420 752 
Q 1681 391 2138 391 
Q 2594 391 2855 752 
Q 3116 1113 3116 1747 
z
" transform="scale(0.015625)"/>
       <path id="DejaVuSans-69" d="M 603 3500 
L 1178 3500 
L 1178 0 
L 603 0 
L 603 3500 
z
M 603 4863 
L 1178 4863 
L 1178 4134 
L 603 4134 
L 603 4863 
z
" transform="scale(0.015625)"/>
       <path id="DejaVuSans-63" d="M 3122 3366 
L 3122 2828 
Q 2878 2963 2633 3030 
Q 2388 3097 2138 3097 
Q 1578 3097 1268 2742 
Q 959 2388 959 1747 
Q 959 1106 1268 751 
Q 1578 397 2138 397 
Q 2388 397 2633 464 
Q 2878 531 3122 666 
L 3122 134 
Q 2881 22 2623 -34 
Q 2366 -91 2075 -91 
Q 1284 -91 818 406 
Q 353 903 353 1747 
Q 353 2603 823 3093 
Q 1294 3584 2113 3584 
Q 2378 3584 2631 3529 
Q 2884 3475 3122 3366 
z
" transform="scale(0.015625)"/>
      </defs>
      <use xlink:href="#DejaVuSans-70"/>
      <use xlink:href="#DejaVuSans-72" x="63.476562"/>
      <use xlink:href="#DejaVuSans-65" x="102.339844"/>
      <use xlink:href="#DejaVuSans-64" x="163.863281"/>
      <use xlink:href="#DejaVuSans-69" x="227.339844"/>
      <use xlink:href="#DejaVuSans-63" x="255.123047"/>
      <use xlink:href="#DejaVuSans-74" x="310.103516"/>
      <use xlink:href="#DejaVuSans-65" x="349.3125"/>
      <use xlink:href="#DejaVuSans-64" x="410.835938"/>
     </g>
    </g>
   </g>
  </g>
 </g>
 <defs>
  <clipPath id="p93fea0267e">
   <rect x="90" y="43.2" width="558" height="244.8"/>
  </clipPath>
 </defs>
</svg>
