<?xml version="1.0" encoding="utf-8" standalone="no"?>
<!DOCTYPE svg PUBLIC "-//W3C//DTD SVG 1.1//EN"
  "http://www.w3.org/Graphics/SVG/1.1/DTD/svg11.dtd">
<svg xmlns:xlink="http://www.w3.org/1999/xlink" width="711.942836pt" height="351.43625pt" viewBox="0 0 711.942836 351.43625" xmlns="http://www.w3.org/2000/svg" version="1.1">
 <metadata>
  <rdf:RDF xmlns:dc="http://purl.org/dc/elements/1.1/" xmlns:cc="http://creativecommons.org/ns#" xmlns:rdf="http://www.w3.org/1999/02/22-rdf-syntax-ns#">
   <cc:Work>
    <dc:type rdf:resource="http://purl.org/dc/dcmitype/StillImage"/>
    <dc:date>2023-08-13T15:13:18.334399</dc:date>
    <dc:format>image/svg+xml</dc:format>
    <dc:creator>
     <cc:Agent>
      <dc:title>Matplotlib v3.7.1, https://matplotlib.org/</dc:title>
     </cc:Agent>
    </dc:creator>
   </cc:Work>
  </rdf:RDF>
 </metadata>
 <defs>
  <style type="text/css">*{stroke-linejoin: round; stroke-linecap: butt}</style>
 </defs>
 <g id="figure_1">
  <g id="patch_1">
   <path d="M 0 351.43625 
L 711.942836 351.43625 
L 711.942836 0 
L 0 0 
z
" style="fill: #ffffff"/>
  </g>
  <g id="axes_1">
   <g id="patch_2">
    <path d="M 46.0125 327.558125 
L 699.636933 327.558125 
L 699.636933 22.318125 
L 46.0125 22.318125 
z
" style="fill: #ffffff"/>
   </g>
   <g id="matplotlib.axis_1">
    <g id="xtick_1">
     <g id="line2d_1">
      <defs>
       <path id="mfa61b30c10" d="M 0 0 
L 0 3.5 
" style="stroke: #000000; stroke-width: 0.8"/>
      </defs>
      <g>
       <use xlink:href="#mfa61b30c10" x="107.692574" y="327.558125" style="stroke: #000000; stroke-width: 0.8"/>
      </g>
     </g>
     <g id="text_1">
      <!-- 2010 -->
      <g transform="translate(94.967574 342.156563) scale(0.1 -0.1)">
       <defs>
        <path id="DejaVuSans-32" d="M 1228 531 
L 3431 531 
L 3431 0 
L 469 0 
L 469 531 
Q 828 903 1448 1529 
Q 2069 2156 2228 2338 
Q 2531 2678 2651 2914 
Q 2772 3150 2772 3378 
Q 2772 3750 2511 3984 
Q 2250 4219 1831 4219 
Q 1534 4219 1204 4116 
Q 875 4013 500 3803 
L 500 4441 
Q 881 4594 1212 4672 
Q 1544 4750 1819 4750 
Q 2544 4750 2975 4387 
Q 3406 4025 3406 3419 
Q 3406 3131 3298 2873 
Q 3191 2616 2906 2266 
Q 2828 2175 2409 1742 
Q 1991 1309 1228 531 
z
" transform="scale(0.015625)"/>
        <path id="DejaVuSans-30" d="M 2034 4250 
Q 1547 4250 1301 3770 
Q 1056 3291 1056 2328 
Q 1056 1369 1301 889 
Q 1547 409 2034 409 
Q 2525 409 2770 889 
Q 3016 1369 3016 2328 
Q 3016 3291 2770 3770 
Q 2525 4250 2034 4250 
z
M 2034 4750 
Q 2819 4750 3233 4129 
Q 3647 3509 3647 2328 
Q 3647 1150 3233 529 
Q 2819 -91 2034 -91 
Q 1250 -91 836 529 
Q 422 1150 422 2328 
Q 422 3509 836 4129 
Q 1250 4750 2034 4750 
z
" transform="scale(0.015625)"/>
        <path id="DejaVuSans-31" d="M 794 531 
L 1825 531 
L 1825 4091 
L 703 3866 
L 703 4441 
L 1819 4666 
L 2450 4666 
L 2450 531 
L 3481 531 
L 3481 0 
L 794 0 
L 794 531 
z
" transform="scale(0.015625)"/>
       </defs>
       <use xlink:href="#DejaVuSans-32"/>
       <use xlink:href="#DejaVuSans-30" x="63.623047"/>
       <use xlink:href="#DejaVuSans-31" x="127.246094"/>
       <use xlink:href="#DejaVuSans-30" x="190.869141"/>
      </g>
     </g>
    </g>
    <g id="xtick_2">
     <g id="line2d_2">
      <g>
       <use xlink:href="#mfa61b30c10" x="205.035669" y="327.558125" style="stroke: #000000; stroke-width: 0.8"/>
      </g>
     </g>
     <g id="text_2">
      <!-- 2011 -->
      <g transform="translate(192.310669 342.156563) scale(0.1 -0.1)">
       <use xlink:href="#DejaVuSans-32"/>
       <use xlink:href="#DejaVuSans-30" x="63.623047"/>
       <use xlink:href="#DejaVuSans-31" x="127.246094"/>
       <use xlink:href="#DejaVuSans-31" x="190.869141"/>
      </g>
     </g>
    </g>
    <g id="xtick_3">
     <g id="line2d_3">
      <g>
       <use xlink:href="#mfa61b30c10" x="302.378763" y="327.558125" style="stroke: #000000; stroke-width: 0.8"/>
      </g>
     </g>
     <g id="text_3">
      <!-- 2012 -->
      <g transform="translate(289.653763 342.156563) scale(0.1 -0.1)">
       <use xlink:href="#DejaVuSans-32"/>
       <use xlink:href="#DejaVuSans-30" x="63.623047"/>
       <use xlink:href="#DejaVuSans-31" x="127.246094"/>
       <use xlink:href="#DejaVuSans-32" x="190.869141"/>
      </g>
     </g>
    </g>
    <g id="xtick_4">
     <g id="line2d_4">
      <g>
       <use xlink:href="#mfa61b30c10" x="399.988552" y="327.558125" style="stroke: #000000; stroke-width: 0.8"/>
      </g>
     </g>
     <g id="text_4">
      <!-- 2013 -->
      <g transform="translate(387.263552 342.156563) scale(0.1 -0.1)">
       <defs>
        <path id="DejaVuSans-33" d="M 2597 2516 
Q 3050 2419 3304 2112 
Q 3559 1806 3559 1356 
Q 3559 666 3084 287 
Q 2609 -91 1734 -91 
Q 1441 -91 1130 -33 
Q 819 25 488 141 
L 488 750 
Q 750 597 1062 519 
Q 1375 441 1716 441 
Q 2309 441 2620 675 
Q 2931 909 2931 1356 
Q 2931 1769 2642 2001 
Q 2353 2234 1838 2234 
L 1294 2234 
L 1294 2753 
L 1863 2753 
Q 2328 2753 2575 2939 
Q 2822 3125 2822 3475 
Q 2822 3834 2567 4026 
Q 2313 4219 1838 4219 
Q 1578 4219 1281 4162 
Q 984 4106 628 3988 
L 628 4550 
Q 988 4650 1302 4700 
Q 1616 4750 1894 4750 
Q 2613 4750 3031 4423 
Q 3450 4097 3450 3541 
Q 3450 3153 3228 2886 
Q 3006 2619 2597 2516 
z
" transform="scale(0.015625)"/>
       </defs>
       <use xlink:href="#DejaVuSans-32"/>
       <use xlink:href="#DejaVuSans-30" x="63.623047"/>
       <use xlink:href="#DejaVuSans-31" x="127.246094"/>
       <use xlink:href="#DejaVuSans-33" x="190.869141"/>
      </g>
     </g>
    </g>
    <g id="xtick_5">
     <g id="line2d_5">
      <g>
       <use xlink:href="#mfa61b30c10" x="497.331646" y="327.558125" style="stroke: #000000; stroke-width: 0.8"/>
      </g>
     </g>
     <g id="text_5">
      <!-- 2014 -->
      <g transform="translate(484.606646 342.156563) scale(0.1 -0.1)">
       <defs>
        <path id="DejaVuSans-34" d="M 2419 4116 
L 825 1625 
L 2419 1625 
L 2419 4116 
z
M 2253 4666 
L 3047 4666 
L 3047 1625 
L 3713 1625 
L 3713 1100 
L 3047 1100 
L 3047 0 
L 2419 0 
L 2419 1100 
L 313 1100 
L 313 1709 
L 2253 4666 
z
" transform="scale(0.015625)"/>
       </defs>
       <use xlink:href="#DejaVuSans-32"/>
       <use xlink:href="#DejaVuSans-30" x="63.623047"/>
       <use xlink:href="#DejaVuSans-31" x="127.246094"/>
       <use xlink:href="#DejaVuSans-34" x="190.869141"/>
      </g>
     </g>
    </g>
    <g id="xtick_6">
     <g id="line2d_6">
      <g>
       <use xlink:href="#mfa61b30c10" x="594.674741" y="327.558125" style="stroke: #000000; stroke-width: 0.8"/>
      </g>
     </g>
     <g id="text_6">
      <!-- 2015 -->
      <g transform="translate(581.949741 342.156563) scale(0.1 -0.1)">
       <defs>
        <path id="DejaVuSans-35" d="M 691 4666 
L 3169 4666 
L 3169 4134 
L 1269 4134 
L 1269 2991 
Q 1406 3038 1543 3061 
Q 1681 3084 1819 3084 
Q 2600 3084 3056 2656 
Q 3513 2228 3513 1497 
Q 3513 744 3044 326 
Q 2575 -91 1722 -91 
Q 1428 -91 1123 -41 
Q 819 9 494 109 
L 494 744 
Q 775 591 1075 516 
Q 1375 441 1709 441 
Q 2250 441 2565 725 
Q 2881 1009 2881 1497 
Q 2881 1984 2565 2268 
Q 2250 2553 1709 2553 
Q 1456 2553 1204 2497 
Q 953 2441 691 2322 
L 691 4666 
z
" transform="scale(0.015625)"/>
       </defs>
       <use xlink:href="#DejaVuSans-32"/>
       <use xlink:href="#DejaVuSans-30" x="63.623047"/>
       <use xlink:href="#DejaVuSans-31" x="127.246094"/>
       <use xlink:href="#DejaVuSans-35" x="190.869141"/>
      </g>
     </g>
    </g>
    <g id="xtick_7">
     <g id="line2d_7">
      <g>
       <use xlink:href="#mfa61b30c10" x="692.017836" y="327.558125" style="stroke: #000000; stroke-width: 0.8"/>
      </g>
     </g>
     <g id="text_7">
      <!-- 2016 -->
      <g transform="translate(679.292836 342.156563) scale(0.1 -0.1)">
       <defs>
        <path id="DejaVuSans-36" d="M 2113 2584 
Q 1688 2584 1439 2293 
Q 1191 2003 1191 1497 
Q 1191 994 1439 701 
Q 1688 409 2113 409 
Q 2538 409 2786 701 
Q 3034 994 3034 1497 
Q 3034 2003 2786 2293 
Q 2538 2584 2113 2584 
z
M 3366 4563 
L 3366 3988 
Q 3128 4100 2886 4159 
Q 2644 4219 2406 4219 
Q 1781 4219 1451 3797 
Q 1122 3375 1075 2522 
Q 1259 2794 1537 2939 
Q 1816 3084 2150 3084 
Q 2853 3084 3261 2657 
Q 3669 2231 3669 1497 
Q 3669 778 3244 343 
Q 2819 -91 2113 -91 
Q 1303 -91 875 529 
Q 447 1150 447 2328 
Q 447 3434 972 4092 
Q 1497 4750 2381 4750 
Q 2619 4750 2861 4703 
Q 3103 4656 3366 4563 
z
" transform="scale(0.015625)"/>
       </defs>
       <use xlink:href="#DejaVuSans-32"/>
       <use xlink:href="#DejaVuSans-30" x="63.623047"/>
       <use xlink:href="#DejaVuSans-31" x="127.246094"/>
       <use xlink:href="#DejaVuSans-36" x="190.869141"/>
      </g>
     </g>
    </g>
   </g>
   <g id="matplotlib.axis_2">
    <g id="ytick_1">
     <g id="line2d_8">
      <defs>
       <path id="m4a53fe7ead" d="M 0 0 
L -3.5 0 
" style="stroke: #000000; stroke-width: 0.8"/>
      </defs>
      <g>
       <use xlink:href="#m4a53fe7ead" x="46.0125" y="313.682149" style="stroke: #000000; stroke-width: 0.8"/>
      </g>
     </g>
     <g id="text_8">
      <!-- 0 -->
      <g transform="translate(32.65 317.481367) scale(0.1 -0.1)">
       <use xlink:href="#DejaVuSans-30"/>
      </g>
     </g>
    </g>
    <g id="ytick_2">
     <g id="line2d_9">
      <g>
       <use xlink:href="#m4a53fe7ead" x="46.0125" y="272.79951" style="stroke: #000000; stroke-width: 0.8"/>
      </g>
     </g>
     <g id="text_9">
      <!-- 2000 -->
      <g transform="translate(13.5625 276.598729) scale(0.1 -0.1)">
       <use xlink:href="#DejaVuSans-32"/>
       <use xlink:href="#DejaVuSans-30" x="63.623047"/>
       <use xlink:href="#DejaVuSans-30" x="127.246094"/>
       <use xlink:href="#DejaVuSans-30" x="190.869141"/>
      </g>
     </g>
    </g>
    <g id="ytick_3">
     <g id="line2d_10">
      <g>
       <use xlink:href="#m4a53fe7ead" x="46.0125" y="231.916872" style="stroke: #000000; stroke-width: 0.8"/>
      </g>
     </g>
     <g id="text_10">
      <!-- 4000 -->
      <g transform="translate(13.5625 235.71609) scale(0.1 -0.1)">
       <use xlink:href="#DejaVuSans-34"/>
       <use xlink:href="#DejaVuSans-30" x="63.623047"/>
       <use xlink:href="#DejaVuSans-30" x="127.246094"/>
       <use xlink:href="#DejaVuSans-30" x="190.869141"/>
      </g>
     </g>
    </g>
    <g id="ytick_4">
     <g id="line2d_11">
      <g>
       <use xlink:href="#m4a53fe7ead" x="46.0125" y="191.034233" style="stroke: #000000; stroke-width: 0.8"/>
      </g>
     </g>
     <g id="text_11">
      <!-- 6000 -->
      <g transform="translate(13.5625 194.833452) scale(0.1 -0.1)">
       <use xlink:href="#DejaVuSans-36"/>
       <use xlink:href="#DejaVuSans-30" x="63.623047"/>
       <use xlink:href="#DejaVuSans-30" x="127.246094"/>
       <use xlink:href="#DejaVuSans-30" x="190.869141"/>
      </g>
     </g>
    </g>
    <g id="ytick_5">
     <g id="line2d_12">
      <g>
       <use xlink:href="#m4a53fe7ead" x="46.0125" y="150.151594" style="stroke: #000000; stroke-width: 0.8"/>
      </g>
     </g>
     <g id="text_12">
      <!-- 8000 -->
      <g transform="translate(13.5625 153.950813) scale(0.1 -0.1)">
       <defs>
        <path id="DejaVuSans-38" d="M 2034 2216 
Q 1584 2216 1326 1975 
Q 1069 1734 1069 1313 
Q 1069 891 1326 650 
Q 1584 409 2034 409 
Q 2484 409 2743 651 
Q 3003 894 3003 1313 
Q 3003 1734 2745 1975 
Q 2488 2216 2034 2216 
z
M 1403 2484 
Q 997 2584 770 2862 
Q 544 3141 544 3541 
Q 544 4100 942 4425 
Q 1341 4750 2034 4750 
Q 2731 4750 3128 4425 
Q 3525 4100 3525 3541 
Q 3525 3141 3298 2862 
Q 3072 2584 2669 2484 
Q 3125 2378 3379 2068 
Q 3634 1759 3634 1313 
Q 3634 634 3220 271 
Q 2806 -91 2034 -91 
Q 1263 -91 848 271 
Q 434 634 434 1313 
Q 434 1759 690 2068 
Q 947 2378 1403 2484 
z
M 1172 3481 
Q 1172 3119 1398 2916 
Q 1625 2713 2034 2713 
Q 2441 2713 2670 2916 
Q 2900 3119 2900 3481 
Q 2900 3844 2670 4047 
Q 2441 4250 2034 4250 
Q 1625 4250 1398 4047 
Q 1172 3844 1172 3481 
z
" transform="scale(0.015625)"/>
       </defs>
       <use xlink:href="#DejaVuSans-38"/>
       <use xlink:href="#DejaVuSans-30" x="63.623047"/>
       <use xlink:href="#DejaVuSans-30" x="127.246094"/>
       <use xlink:href="#DejaVuSans-30" x="190.869141"/>
      </g>
     </g>
    </g>
    <g id="ytick_6">
     <g id="line2d_13">
      <g>
       <use xlink:href="#m4a53fe7ead" x="46.0125" y="109.268956" style="stroke: #000000; stroke-width: 0.8"/>
      </g>
     </g>
     <g id="text_13">
      <!-- 10000 -->
      <g transform="translate(7.2 113.068175) scale(0.1 -0.1)">
       <use xlink:href="#DejaVuSans-31"/>
       <use xlink:href="#DejaVuSans-30" x="63.623047"/>
       <use xlink:href="#DejaVuSans-30" x="127.246094"/>
       <use xlink:href="#DejaVuSans-30" x="190.869141"/>
       <use xlink:href="#DejaVuSans-30" x="254.492188"/>
      </g>
     </g>
    </g>
    <g id="ytick_7">
     <g id="line2d_14">
      <g>
       <use xlink:href="#m4a53fe7ead" x="46.0125" y="68.386317" style="stroke: #000000; stroke-width: 0.8"/>
      </g>
     </g>
     <g id="text_14">
      <!-- 12000 -->
      <g transform="translate(7.2 72.185536) scale(0.1 -0.1)">
       <use xlink:href="#DejaVuSans-31"/>
       <use xlink:href="#DejaVuSans-32" x="63.623047"/>
       <use xlink:href="#DejaVuSans-30" x="127.246094"/>
       <use xlink:href="#DejaVuSans-30" x="190.869141"/>
       <use xlink:href="#DejaVuSans-30" x="254.492188"/>
      </g>
     </g>
    </g>
    <g id="ytick_8">
     <g id="line2d_15">
      <g>
       <use xlink:href="#m4a53fe7ead" x="46.0125" y="27.503679" style="stroke: #000000; stroke-width: 0.8"/>
      </g>
     </g>
     <g id="text_15">
      <!-- 14000 -->
      <g transform="translate(7.2 31.302898) scale(0.1 -0.1)">
       <use xlink:href="#DejaVuSans-31"/>
       <use xlink:href="#DejaVuSans-34" x="63.623047"/>
       <use xlink:href="#DejaVuSans-30" x="127.246094"/>
       <use xlink:href="#DejaVuSans-30" x="190.869141"/>
       <use xlink:href="#DejaVuSans-30" x="254.492188"/>
      </g>
     </g>
    </g>
   </g>
   <g id="line2d_16">
    <path d="M 75.722701 313.536606 
L 75.76715 313.537697 
L 76.011619 313.082605 
L 76.211639 313.074428 
L 76.478333 313.152105 
L 76.500557 313.072384 
L 76.678353 312.38249 
L 76.800587 312.559307 
L 77.21174 313.043255 
L 77.734014 313.319724 
L 78.089606 313.348853 
L 78.934135 313.504207 
L 79.856449 313.486525 
L 80.345387 313.398764 
L 80.65653 312.896589 
L 80.900999 312.757588 
L 81.001009 311.549506 
L 81.245478 299.027154 
L 81.278814 299.272449 
L 81.378824 300.938417 
L 81.389936 300.376281 
L 81.423273 298.536562 
L 81.501059 298.570631 
L 81.523283 298.628548 
L 81.534395 298.388362 
L 81.767752 289.2051 
L 81.845538 290.124959 
L 82.05667 294.550505 
L 82.612281 307.127026 
L 82.978985 310.694037 
L 83.334576 312.150992 
L 83.534596 312.494917 
L 83.55682 312.473453 
L 83.667943 311.97196 
L 83.734616 310.765581 
L 83.879075 308.782773 
L 83.912412 308.808325 
L 84.001309 309.155827 
L 84.568033 311.77896 
L 84.668043 311.997852 
L 84.690267 311.83364 
L 84.734716 308.154203 
L 84.934736 299.538187 
L 84.956961 299.446201 
L 85.00141 299.671055 
L 85.156981 302.476626 
L 85.290328 304.873371 
L 85.312552 303.580457 
L 85.468123 266.804821 
L 85.534797 239.890417 
L 85.60147 241.116896 
L 85.623694 240.963586 
L 85.645919 241.525723 
L 85.768153 254.250444 
L 85.868163 263.602347 
L 86.734917 297.907991 
L 86.790478 296.507761 
L 86.946049 294.877566 
L 86.968274 294.872455 
L 86.990498 294.146789 
L 87.212743 262.273662 
L 87.246079 263.500141 
L 87.735017 282.766084 
L 89.157382 310.208555 
L 89.179606 310.188114 
L 89.290729 309.799729 
L 89.612983 308.26663 
L 89.701881 308.455712 
L 89.990799 309.861053 
L 90.224156 310.673595 
L 90.301941 310.801354 
L 90.335278 310.724699 
L 90.357502 309.769067 
L 90.524186 274.845073 
L 90.635308 278.371201 
L 90.957563 285.372352 
L 91.090909 287.467588 
L 91.113134 287.876414 
L 91.14647 286.905451 
L 91.368715 232.122716 
L 91.468725 233.962434 
L 91.568735 245.409573 
L 91.790979 265.799789 
L 92.013224 277.757961 
L 93.035549 304.229469 
L 93.546711 308.103099 
L 93.857853 309.66686 
L 94.19122 310.520285 
L 94.202332 310.515175 
L 94.846841 311.470807 
L 95.402453 311.907229 
L 95.824717 312.023744 
L 95.946952 311.814221 
L 96.13586 311.552572 
L 96.480339 311.266394 
L 96.647022 311.353269 
L 96.93594 311.755963 
L 97.73602 312.208738 
L 98.347192 312.341607 
L 99.23617 312.493895 
L 99.536201 312.187275 
L 99.68066 312.0217 
L 99.98069 311.05687 
L 100.125149 308.016224 
L 100.325169 305.670582 
L 100.391842 305.915878 
L 101.18081 310.320983 
L 101.491952 310.821795 
L 101.525289 310.688926 
L 101.547513 310.162562 
L 101.58085 285.576766 
L 101.647523 235.188914 
L 101.714197 242.036756 
L 101.858656 250.059973 
L 101.88088 253.023965 
L 104.158886 308.511926 
L 104.347794 308.859428 
L 104.42558 308.716339 
L 104.72561 307.755597 
L 104.770059 307.822031 
L 104.947854 308.241078 
L 105.692373 310.315872 
L 105.703486 310.295431 
L 105.759047 310.418079 
L 105.892394 310.469182 
L 105.903506 310.428299 
L 105.959067 309.380682 
L 106.247985 299.517745 
L 106.259097 299.527966 
L 106.42578 301.250147 
L 106.92583 307.750487 
L 107.225861 309.406233 
L 107.503666 310.096128 
L 107.637013 310.162562 
L 107.659237 310.137011 
L 107.825921 310.12679 
L 107.992604 310.234107 
L 108.1704 310.489623 
L 108.181512 310.469182 
L 108.248185 310.571389 
L 108.392644 310.847346 
L 108.548215 311.067091 
L 110.792885 312.480097 
L 110.815109 312.413152 
L 110.826222 312.361537 
L 110.892895 312.507182 
L 110.926232 312.641072 
L 111.004017 312.581792 
L 111.104027 312.443302 
L 111.137364 312.454034 
L 111.159588 312.490829 
L 111.270711 312.491851 
L 112.081903 312.292037 
L 112.11524 311.850504 
L 112.21525 303.181852 
L 112.381933 294.673153 
L 112.404158 294.78558 
L 112.559729 296.226693 
L 112.748637 299.972565 
L 112.893096 303.089866 
L 112.91532 302.451075 
L 113.182013 276.071552 
L 113.237575 268.048334 
L 113.337585 239.6349 
L 113.393146 240.145933 
L 113.437595 242.496685 
L 113.882084 276.889205 
L 116.193426 309.304027 
L 116.46012 309.677081 
L 116.504569 309.544212 
L 116.893497 307.612508 
L 116.971282 307.709604 
L 117.037956 307.8067 
L 117.115741 307.929348 
L 117.137966 307.868024 
L 117.182415 306.304263 
L 117.471332 278.780027 
L 117.593567 280.670849 
L 119.193727 308.072437 
L 119.627104 309.247813 
L 119.749339 309.457337 
L 119.8049 309.365351 
L 120.093818 309.247813 
L 120.182715 309.35002 
L 120.738327 310.228997 
L 120.816112 310.039914 
L 121.449509 308.062217 
L 121.482846 308.128651 
L 121.649529 308.307513 
L 121.860661 308.389278 
L 122.171804 309.130276 
L 122.249589 309.421564 
L 122.427385 309.947928 
L 122.760752 310.658264 
L 123.138567 311.138635 
L 123.238577 311.189739 
L 123.594169 311.496358 
L 123.74974 311.598565 
L 123.938648 311.777427 
L 123.94976 311.757496 
L 124.071994 311.775893 
L 125.827726 312.389644 
L 126.005522 312.404464 
L 126.205542 312.422861 
L 126.350001 312.152525 
L 126.538908 311.317497 
L 126.594469 309.840612 
L 126.805602 294.468739 
L 126.872275 294.831573 
L 126.950061 295.373268 
L 128.683568 310.883119 
L 128.961373 311.21018 
L 128.972486 311.199959 
L 129.016935 310.663375 
L 129.050271 298.582555 
L 129.205842 270.484258 
L 129.239179 270.654602 
L 129.339189 274.589556 
L 130.283728 298.66432 
L 130.294841 298.557003 
L 130.472636 300.621577 
L 130.783778 304.39811 
L 130.806003 304.316345 
L 130.950462 302.548171 
L 131.150482 301.561877 
L 131.161594 301.60276 
L 131.294941 302.512399 
L 131.783879 307.438757 
L 132.261704 309.830391 
L 132.350602 310.065466 
L 132.383939 309.937708 
L 132.683969 306.524007 
L 132.761755 306.743752 
L 132.906214 307.741969 
L 133.272917 309.649826 
L 133.584059 310.576499 
L 133.595171 310.540727 
L 133.617396 309.743515 
L 133.706294 264.471103 
L 133.872977 269.888053 
L 135.362015 308.297292 
L 135.695382 310.152342 
L 136.239881 311.332828 
L 136.962176 312.142815 
L 137.295543 312.338541 
L 137.828929 312.518424 
L 138.051174 312.461189 
L 138.073398 311.849993 
L 138.351204 270.450189 
L 138.406765 273.363077 
L 139.406865 306.907282 
L 139.773569 309.963259 
L 139.795793 309.958149 
L 139.82913 305.691024 
L 140.340292 36.19267 
L 140.440302 55.100891 
L 140.540312 87.807002 
L 143.329481 311.245952 
L 143.562838 311.659889 
L 143.585062 311.62582 
L 143.696184 311.394152 
L 143.729521 311.448662 
L 143.851756 311.578124 
L 143.885092 310.678706 
L 144.018439 278.320097 
L 144.107337 280.704918 
L 145.051876 305.711465 
L 145.0741 305.650141 
L 145.129661 305.021571 
L 145.251896 301.718594 
L 145.307457 302.001366 
L 146.107537 310.3789 
L 146.51869 311.663977 
L 147.007628 312.341607 
L 147.152087 312.455056 
L 147.174311 312.364092 
L 147.31877 312.054406 
L 147.563239 312.233779 
L 147.941055 312.613988 
L 148.785584 312.845485 
L 149.085614 312.738169 
L 149.196736 311.989505 
L 149.352307 310.828609 
L 149.385644 310.893339 
L 149.96348 312.829643 
L 150.26351 313.01106 
L 150.274622 312.998114 
L 150.374632 312.905276 
L 150.419081 312.627785 
L 150.430193 312.210782 
L 150.496866 164.530087 
L 150.596876 180.610591 
L 150.674662 180.201765 
L 150.741335 191.29118 
L 151.030253 268.610471 
L 151.196937 284.09477 
L 151.96368 308.680567 
L 151.985905 305.088005 
L 152.130364 290.380476 
L 152.197037 283.839253 
L 152.252598 286.598832 
L 152.385945 292.629021 
L 152.397057 292.424608 
L 152.597077 281.795121 
L 152.619301 281.590708 
L 152.652638 282.408361 
L 153.463831 308.246189 
L 153.797197 310.821795 
L 154.130564 311.881166 
L 154.630614 312.662536 
L 154.841747 312.787739 
L 155.319572 313.058075 
L 156.264111 313.289062 
L 159.486657 313.375597 
L 159.942258 313.351408 
L 160.575655 313.468946 
L 163.675966 313.361118 
L 164.153791 313.322279 
L 165.209453 313.548769 
L 166.076206 313.536095 
L 169.054283 313.44646 
L 169.209854 312.98142 
L 169.265415 313.043255 
L 169.48766 313.375427 
L 169.798802 313.48351 
L 170.08772 313.503083 
L 173.288041 313.613466 
L 174.499273 313.635747 
L 195.1569 313.525773 
L 195.45693 313.397401 
L 195.512492 312.137705 
L 195.601389 310.234107 
L 195.668063 310.372086 
L 196.523704 313.081072 
L 196.568153 312.934405 
L 196.634826 308.210416 
L 196.812622 301.955373 
L 196.823734 302.026917 
L 196.912632 303.62645 
L 197.357121 311.297056 
L 197.646039 312.38249 
L 197.957181 312.875125 
L 199.135077 313.409666 
L 199.312873 313.426019 
L 200.024055 313.374916 
L 200.990819 313.159771 
L 201.379747 311.71508 
L 201.401971 311.733478 
L 201.601991 312.08098 
L 201.924246 312.581792 
L 202.313174 312.934405 
L 203.157703 313.274753 
L 203.913334 313.314614 
L 204.202252 313.350386 
L 204.635629 313.236426 
L 204.99122 310.460665 
L 205.046781 310.484513 
L 205.113454 310.612271 
L 205.135679 310.423189 
L 205.169015 304.209028 
L 205.313474 285.065733 
L 205.335699 285.372352 
L 205.357923 285.883385 
L 206.324687 310.525396 
L 206.59138 311.619006 
L 206.858074 312.142815 
L 207.169216 312.47652 
L 207.580368 312.818912 
L 209.413886 313.211385 
L 209.991721 313.101513 
L 210.491771 312.925207 
L 210.63623 312.933383 
L 211.091832 313.036612 
L 211.291852 313.062163 
L 211.714116 312.956891 
L 211.858575 312.562884 
L 212.147493 311.673176 
L 212.436411 310.995546 
L 212.725329 310.719588 
L 212.747553 310.753657 
L 213.503185 311.919494 
L 213.547633 311.845905 
L 213.58097 311.05176 
L 213.814327 298.761416 
L 213.892112 299.619952 
L 214.114357 304.832488 
L 214.414387 309.436895 
L 214.603295 310.101238 
L 215.081121 310.913781 
L 215.125569 310.847346 
L 215.158906 310.724699 
L 215.381151 310.014363 
L 215.514497 309.942818 
L 215.536722 309.97859 
L 215.647844 310.137011 
L 215.758966 310.336314 
L 216.536822 311.598565 
L 216.559046 311.557682 
L 216.759067 310.992139 
L 217.081321 306.161174 
L 217.159107 306.488235 
L 217.748055 310.54243 
L 218.136983 311.414593 
L 218.214768 311.5168 
L 218.881502 312.174329 
L 218.914838 312.049807 
L 219.003736 311.005767 
L 219.181532 310.27499 
L 219.27043 310.331203 
L 219.548235 311.026208 
L 219.57046 310.949553 
L 219.603796 307.285447 
L 219.737143 232.940368 
L 219.892714 160.986925 
L 220.003836 167.936973 
L 220.026061 169.623382 
L 220.603897 262.92097 
L 220.648345 257.112228 
L 220.748355 225.581493 
L 220.826141 229.669757 
L 221.959588 302.507288 
L 221.981813 301.270588 
L 222.226281 251.593072 
L 222.259618 252.410725 
L 222.426302 262.835798 
L 222.970801 286.803245 
L 222.981913 283.174911 
L 223.115259 201.000807 
L 223.193045 209.126231 
L 223.226382 211.528086 
L 224.404278 298.485459 
L 224.426502 298.296376 
L 224.682083 287.314278 
L 224.770981 288.13193 
L 224.893216 290.278269 
L 225.41549 303.738878 
L 225.748857 308.159313 
L 226.082224 310.014363 
L 226.471152 310.939332 
L 226.848967 311.557682 
L 226.904528 311.5168 
L 226.937865 311.588344 
L 226.960089 311.537241 
L 227.26012 311.5168 
L 227.337905 311.619006 
L 227.549037 311.713036 
L 227.704609 311.619006 
L 227.815731 310.75025 
L 228.015751 309.605536 
L 228.026863 309.622571 
L 228.082424 309.707743 
L 228.582474 310.985325 
L 228.649148 310.816685 
L 228.782494 308.685677 
L 228.938066 307.704494 
L 228.96029 307.714714 
L 229.026963 307.8067 
L 229.226983 308.823656 
L 229.627024 310.571389 
L 230.015951 311.404372 
L 230.027064 311.291945 
L 230.049288 310.530506 
L 230.149298 246.738259 
L 232.027264 214.185458 
L 232.138387 167.017114 
L 232.182835 170.900964 
L 232.282845 186.589677 
L 232.994028 279.44437 
L 233.00514 279.29106 
L 233.038477 279.955403 
L 233.060701 280.517539 
L 233.10515 278.933337 
L 233.116262 278.780027 
L 233.138487 279.29106 
L 233.827445 299.43598 
L 234.060802 304.576972 
L 234.160812 305.966982 
L 234.171924 305.547934 
L 234.283046 289.818339 
L 234.383056 291.913575 
L 234.771984 301.383016 
L 234.805321 299.885689 
L 234.916443 292.424608 
L 234.960892 292.833434 
L 234.972004 292.884537 
L 235.005341 292.629021 
L 235.038677 292.475711 
L 235.072014 292.782331 
L 235.138687 293.569321 
L 235.1498 293.528439 
L 235.283146 294.356312 
L 235.305371 291.555851 
L 235.538728 141.261052 
L 235.64985 145.144902 
L 235.672074 145.553729 
L 235.694299 144.497594 
L 235.772084 140.852225 
L 235.816533 142.896357 
L 235.983217 161.140234 
L 236.016553 164.870775 
L 236.04989 155.110045 
L 236.172124 107.226255 
L 236.24991 113.205341 
L 236.283247 116.731468 
L 237.094439 257.418848 
L 237.116664 258.594224 
L 237.172225 256.141266 
L 237.305571 249.446734 
L 237.472255 219.040271 
L 237.483367 219.295788 
L 237.505591 219.909027 
L 237.516704 215.92297 
L 237.794509 112.489895 
L 238.172325 150.357439 
L 238.283447 189.604772 
L 238.472355 248.577978 
L 238.861283 271.676668 
L 239.628026 304.924474 
L 239.972505 308.491484 
L 240.328097 310.177893 
L 240.59479 310.617382 
L 240.672576 310.714478 
L 241.950482 312.292037 
L 242.806123 312.87717 
L 242.828347 312.850085 
L 242.850572 312.900677 
L 242.895021 312.918563 
L 243.072816 312.941049 
L 243.395071 312.73408 
L 243.583979 311.537241 
L 243.683989 311.087532 
L 243.717325 311.128415 
L 243.728438 311.148856 
L 243.73955 310.964884 
L 243.906233 308.225747 
L 244.017356 307.678942 
L 244.050692 307.837362 
L 244.13959 308.655015 
L 244.472957 311.5168 
L 244.850772 312.494917 
L 245.295261 312.882791 
L 245.384159 312.935427 
L 245.728638 313.132175 
L 246.006444 313.21854 
L 246.173127 313.246817 
L 246.473157 313.329945 
L 248.640041 313.42142 
L 248.973408 312.98142 
L 249.017857 313.01106 
L 249.573468 313.289062 
L 249.895723 313.170502 
L 250.017957 312.62983 
L 250.295763 310.203445 
L 250.384661 309.850832 
L 250.484671 308.149092 
L 250.551344 308.557919 
L 250.82915 310.910374 
L 250.862486 310.663375 
L 250.918048 306.774414 
L 251.051394 296.385113 
L 251.140292 298.935168 
L 251.540332 309.528881 
L 251.784801 311.21529 
L 252.062607 312.016079 
L 252.140392 310.382306 
L 252.362637 306.891951 
L 252.418198 306.585331 
L 252.473759 306.805076 
L 252.807126 309.104724 
L 252.851575 308.946304 
L 252.896024 308.844097 
L 252.951585 308.976966 
L 253.651655 312.231735 
L 254.029471 312.758099 
L 254.618419 313.130642 
L 254.851775 313.02077 
L 255.285152 313.106623 
L 255.296264 313.037634 
L 255.485172 312.686554 
L 255.618519 312.65487 
L 256.085232 313.184811 
L 256.651956 313.399445 
L 256.840864 313.300816 
L 256.896425 311.788158 
L 256.963098 312.12033 
L 257.229792 312.987042 
L 257.618719 313.403533 
L 258.385463 313.570743 
L 258.629932 313.581986 
L 259.207768 313.597522 
L 259.81894 313.607078 
L 260.685694 313.617452 
L 261.196856 313.629461 
L 262.697006 313.615306 
L 267.175233 313.505536 
L 267.519712 313.472012 
L 267.897528 313.546469 
L 268.686496 313.623533 
L 268.864292 313.6243 
L 276.565064 313.517341 
L 276.676186 312.959957 
L 276.965104 311.435034 
L 276.987328 311.460586 
L 277.731847 313.198609 
L 278.131888 313.480035 
L 281.421106 313.656801 
L 287.499494 313.548871 
L 287.977319 313.531343 
L 289.321899 313.456681 
L 290.066418 313.394335 
L 290.17754 313.056031 
L 290.233101 311.954244 
L 290.344223 296.49243 
L 290.422009 289.767236 
L 290.47757 291.913575 
L 290.810937 306.529118 
L 291.033181 309.942818 
L 291.288762 311.251063 
L 291.322099 311.291945 
L 291.344324 311.153966 
L 291.37766 307.014599 
L 291.611017 240.299243 
L 291.711027 245.35847 
L 291.888823 230.48741 
L 291.944384 233.706918 
L 292.033282 241.883446 
L 293.244514 307.658501 
L 293.300075 307.157688 
L 293.344524 304.576972 
L 293.433422 276.275965 
L 293.611218 250.059973 
L 293.633442 249.293424 
L 295.12248 310.085907 
L 295.155817 310.203445 
L 295.178041 310.106349 
L 295.233602 306.493345 
L 295.278051 292.654572 
L 295.52252 158.482863 
L 295.533633 159.556032 
L 295.544745 159.556032 
L 295.755877 176.982257 
L 295.766989 178.055426 
L 297.756078 311.291945 
L 297.96721 311.52191 
L 297.989434 311.450365 
L 298.044996 310.228997 
L 298.311689 302.323316 
L 298.345026 302.369309 
L 298.56727 305.17488 
L 298.845076 308.517036 
L 299.278453 310.59183 
L 299.500697 311.010877 
L 299.522922 310.990436 
L 299.545146 310.89845 
L 299.789615 294.243885 
L 299.845176 294.622049 
L 299.889625 295.041096 
L 299.900737 295.153524 
L 299.934074 294.63738 
L 300.111869 284.24808 
L 300.145206 284.861319 
L 300.645256 298.82274 
L 300.956399 306.529118 
L 301.123082 308.460822 
L 301.156419 307.980451 
L 301.245316 299.890799 
L 301.400888 287.518691 
L 301.423112 287.723104 
L 301.467561 288.43855 
L 301.589795 290.533785 
L 301.61202 290.891509 
L 303.089946 311.387338 
L 303.912251 312.074337 
L 304.034485 312.087113 
L 304.234505 312.178417 
L 304.401188 312.285904 
L 304.945688 312.108065 
L 305.090146 312.074337 
L 305.134595 311.975707 
L 305.167932 311.266394 
L 305.412401 296.318679 
L 305.501299 297.361186 
L 306.35694 310.12679 
L 306.601409 310.75025 
L 306.612521 310.74003 
L 306.823654 310.985325 
L 306.845878 310.949553 
L 307.123684 306.810186 
L 307.145908 306.753972 
L 307.201469 306.968606 
L 307.723744 310.366975 
L 307.779305 310.530506 
L 307.845978 310.418079 
L 307.901539 309.947928 
L 308.034886 304.837599 
L 308.112672 305.231094 
L 308.30158 306.917503 
L 308.312692 306.615993 
L 308.346028 291.647837 
L 308.490487 260.944976 
L 308.534936 260.127323 
L 308.568273 260.638356 
L 309.290568 292.986744 
L 309.30168 292.526814 
L 309.390578 271.472255 
L 309.535037 260.944976 
L 309.546149 261.098286 
L 309.635047 265.595376 
L 311.112973 309.953039 
L 311.379666 310.729809 
L 311.635247 311.05687 
L 311.646359 311.041539 
L 311.824155 310.111459 
L 312.001951 309.298917 
L 312.013063 309.304027 
L 313.057612 311.435034 
L 313.557662 311.894964 
L 313.668784 311.876567 
L 313.924366 312.093245 
L 314.213284 312.170922 
L 315.068925 311.629227 
L 315.180047 311.598565 
L 315.502302 311.70486 
L 315.869005 311.9522 
L 315.957903 311.988483 
L 316.146811 312.097333 
L 316.246821 312.104999 
L 316.257933 312.118797 
L 316.457953 312.164278 
L 317.146911 312.395776 
L 317.346931 312.534777 
L 317.980328 312.70904 
L 318.324807 312.612454 
L 318.358144 309.273365 
L 318.535939 284.196976 
L 318.5915 286.649935 
L 318.935979 298.490569 
L 318.99154 299.313332 
L 319.391581 306.40136 
L 319.513815 307.760707 
L 319.880518 310.361865 
L 320.113875 311.087532 
L 320.391681 311.619006 
L 320.413905 311.547462 
L 320.447242 310.770692 
L 320.480579 294.540284 
L 320.569476 208.921818 
L 320.63615 210.914847 
L 320.813945 221.356954 
L 320.83617 225.325977 
L 322.302984 307.275226 
L 322.33632 307.551184 
L 322.347433 307.454087 
L 322.591901 295.526578 
L 322.73636 292.424608 
L 322.758585 292.629021 
L 322.958605 296.814381 
L 323.336421 304.944916 
L 323.803134 309.385792 
L 324.114276 310.688926 
L 324.392082 311.05176 
L 324.414306 311.026208 
L 324.547653 311.046649 
L 324.636551 311.087532 
L 324.78101 311.251063 
L 324.792122 311.235732 
L 325.925569 312.130039 
L 326.136701 312.236845 
L 326.470068 312.384023 
L 326.658976 312.442791 
L 327.259036 312.629319 
L 327.42572 312.688087 
L 327.803535 312.79336 
L 327.992443 312.861839 
L 328.559167 312.970178 
L 328.914758 313.081072 
L 329.070329 313.096914 
L 329.737062 313.207297 
L 329.970419 313.226716 
L 330.381571 313.242558 
L 331.47057 313.28804 
L 331.937283 313.150061 
L 332.415109 313.277819 
L 332.704027 313.264533 
L 333.092955 313.291106 
L 333.47077 313.334033 
L 336.282163 313.231315 
L 336.371061 312.659469 
L 336.448847 312.773941 
L 336.704428 313.037634 
L 336.793326 313.114289 
L 337.004458 313.294683 
L 337.693416 313.519845 
L 338.737965 313.486679 
L 340.204779 313.421931 
L 340.271452 311.950667 
L 340.349238 312.366648 
L 340.582594 313.048877 
L 341.593807 313.569466 
L 342.216092 313.597522 
L 342.916162 313.486679 
L 343.227304 313.52521 
L 345.894238 313.598339 
L 346.149819 313.290084 
L 346.294278 312.906809 
L 346.316503 312.925207 
L 346.472074 313.084649 
L 346.627645 313.09487 
L 346.805441 313.158749 
L 347.261042 313.50063 
L 347.805541 313.590572 
L 348.538948 313.594047 
L 363.584901 313.506302 
L 363.696023 313.391269 
L 363.740472 313.419887 
L 364.473879 313.509573 
L 364.607226 313.54417 
L 367.129701 313.668197 
L 367.940893 313.673512 
L 368.740974 313.667789 
L 368.87432 313.471501 
L 369.052116 313.434195 
L 371.141214 313.534154 
L 371.474581 313.582702 
L 372.674701 313.522911 
L 372.91917 313.480802 
L 373.819261 313.52751 
L 374.041505 313.534358 
L 374.352647 313.561851 
L 374.752688 313.560574 
L 374.897147 313.449526 
L 375.208289 313.334033 
L 375.56388 313.369805 
L 375.66389 313.251757 
L 376.075042 312.32832 
L 376.097267 312.342629 
L 376.319511 312.661514 
L 376.686215 313.150061 
L 377.286275 313.435218 
L 377.497407 313.447993 
L 379.053119 313.517545 
L 379.419822 313.520611 
L 379.586506 313.490818 
L 379.886536 313.409666 
L 380.419923 313.134219 
L 380.553269 313.134219 
L 380.742177 312.997262 
L 381.186666 313.101513 
L 381.320013 313.156705 
L 381.775614 313.26351 
L 384.675905 313.420909 
L 384.964823 313.43624 
L 385.19818 313.451571 
L 385.942699 313.492453 
L 386.820564 313.509624 
L 388.642969 313.477122 
L 390.709843 313.548207 
L 390.820966 313.219562 
L 390.920976 313.266577 
L 391.198781 313.31291 
L 391.587709 313.43624 
L 392.098871 313.319724 
L 393.976838 313.210874 
L 394.065735 312.755033 
L 394.18797 311.21529 
L 394.410214 300.948638 
L 394.443551 301.178602 
L 395.099172 311.718658 
L 395.365866 312.441258 
L 395.68812 312.829643 
L 396.632659 313.185833 
L 396.999363 313.14444 
L 397.210495 311.271504 
L 397.288281 310.806464 
L 397.354954 310.883119 
L 397.577199 311.496358 
L 397.877229 312.276195 
L 398.388391 312.85264 
L 398.466177 312.863883 
L 398.477289 312.824022 
L 398.510626 312.289482 
L 398.721758 290.993715 
L 398.843992 295.301723 
L 399.244032 307.091254 
L 401.310906 312.399865 
L 402.5777 312.97631 
L 402.711047 312.885857 
L 402.755496 312.625741 
L 402.855506 302.290951 
L 402.97774 290.176062 
L 403.055526 292.066884 
L 403.288882 299.793703 
L 403.311107 297.139738 
L 403.522239 187.151813 
L 403.622249 193.028693 
L 403.766708 201.869563 
L 403.77782 203.709282 
L 405.755797 311.841817 
L 405.766909 311.83841 
L 406.055827 312.346717 
L 406.133612 312.425927 
L 406.366969 312.604278 
L 406.82257 312.681955 
L 407.22261 312.737146 
L 407.433743 312.65487 
L 407.611538 312.331386 
L 407.811558 311.189739 
L 407.844895 304.408331 
L 408.033803 257.827675 
L 408.044915 257.776571 
L 410.034003 310.719588 
L 410.111789 310.862677 
L 410.222911 311.026208 
L 410.245136 310.949553 
L 410.811859 308.179754 
L 410.834084 308.297292 
L 410.922981 307.760707 
L 410.96743 307.413205 
L 411.022991 307.862914 
L 411.056328 307.934459 
L 411.089665 307.714714 
L 411.234124 306.937944 
L 411.26746 307.02482 
L 412.145326 310.90867 
L 412.689825 311.891898 
L 413.100978 312.247066 
L 413.256549 311.251063 
L 413.478793 310.167673 
L 413.501018 310.12679 
L 413.578803 310.188114 
L 413.856609 310.806464 
L 413.889946 310.050135 
L 413.91217 307.33144 
L 414.990056 307.02993 
L 415.001168 307.121916 
L 415.045617 307.362102 
L 415.078954 306.907282 
L 415.278974 296.461768 
L 415.401208 294.94911 
L 415.423433 295.0922 
L 415.545667 296.630409 
L 416.134615 307.193461 
L 416.868022 309.779288 
L 417.134715 310.111459 
L 417.168052 310.050135 
L 417.323623 309.35513 
L 417.390297 309.375572 
L 417.723663 310.140418 
L 417.779224 310.254548 
L 418.434846 311.251063 
L 418.45707 311.039836 
L 418.479295 309.109834 
L 418.534856 240.810276 
L 418.568192 228.443278 
L 418.65709 229.874171 
L 418.668202 229.925274 
L 418.701539 229.874171 
L 420.179465 305.997643 
L 420.235026 306.227608 
L 420.279475 306.079409 
L 420.368373 305.01646 
L 420.412822 293.201378 
L 420.568393 257.163332 
L 420.579505 257.469952 
L 420.590617 257.469952 
L 420.60173 257.061125 
L 420.635066 259.15636 
L 420.835086 272.136598 
L 422.046319 307.18324 
L 422.079656 307.193461 
L 422.112992 307.147468 
L 422.279676 305.614369 
L 422.457471 304.771164 
L 422.490808 304.817157 
L 422.768614 306.597256 
L 423.079756 308.501705 
L 423.324225 309.380682 
L 423.479796 309.493109 
L 423.624255 309.411344 
L 423.757602 308.997407 
L 423.802051 305.118667 
L 423.968734 293.497777 
L 423.990958 293.426232 
L 424.035407 293.661307 
L 424.179866 295.56746 
L 424.313213 299.7426 
L 424.591019 305.813672 
L 424.979947 308.976966 
L 424.991059 308.946304 
L 425.024395 309.084283 
L 425.24664 309.830391 
L 425.468884 310.2801 
L 425.635568 310.637823 
L 425.702241 310.719588 
L 425.913373 311.087532 
L 426.302301 311.578124 
L 426.602331 311.835684 
L 426.757903 311.966509 
L 426.780127 311.936358 
L 426.824576 311.629738 
L 426.880137 309.65664 
L 426.935698 290.176062 
L 427.069045 266.821855 
L 427.091269 266.924062 
L 427.14683 268.150541 
L 427.235728 273.618594 
L 428.713654 309.487999 
L 428.835889 309.881494 
L 429.913775 304.408331 
L 429.947111 304.812047 
L 430.247141 307.556294 
L 430.258254 307.474529 
L 430.29159 304.566751 
L 430.458274 292.015781 
L 430.636069 294.586277 
L 430.813865 300.299626 
L 431.058334 304.628075 
L 431.102783 304.914254 
L 431.136119 304.469655 
L 431.202793 298.858513 
L 431.447262 251.337556 
L 431.469486 251.610107 
L 431.502823 253.534998 
L 432.714055 305.466169 
L 432.902963 306.753972 
L 432.914075 306.707979 
L 432.947412 305.338411 
L 433.102983 290.073856 
L 434.558685 306.636435 
L 434.569797 306.498456 
L 434.669807 276.531482 
L 434.83649 238.663938 
L 434.914276 243.212131 
L 434.969837 249.651147 
L 437.492312 311.719169 
L 437.625659 311.860725 
L 437.670108 311.831596 
L 437.970138 311.619006 
L 438.247944 311.847949 
L 438.914677 312.757588 
L 439.014687 312.775474 
L 439.025799 312.797448 
L 439.392503 313.046321 
L 439.648084 313.141885 
L 439.948114 313.256867 
L 440.181471 313.189411 
L 440.381491 312.529156 
L 440.42594 306.156064 
L 440.537062 261.507112 
L 440.648184 266.259719 
L 440.837092 278.115684 
L 444.715259 312.125951 
L 444.981952 312.362559 
L 446.126511 313.130642 
L 446.137624 313.07545 
L 446.182073 312.444325 
L 446.259858 312.621142 
L 446.437654 312.835265 
L 448.582313 313.315636 
L 448.637874 313.244602 
L 448.837894 312.861327 
L 448.971241 312.877681 
L 449.204598 313.023836 
L 449.360169 313.09487 
L 449.537965 313.060119 
L 449.61575 312.942071 
L 449.637975 312.923674 
L 450.715861 306.994158 
L 450.738085 307.408095 
L 451.015891 310.648044 
L 451.293696 311.795824 
L 451.682624 312.564928 
L 451.827083 312.715172 
L 452.182674 313.056031 
L 452.349358 313.120421 
L 452.827183 313.261466 
L 453.849508 313.293661 
L 454.049528 299.987896 
L 454.182875 290.993715 
L 454.238436 292.833434 
L 454.549578 305.920989 
L 455.116302 311.629227 
L 455.371883 312.320144 
L 456.238637 313.046321 
L 456.483106 313.052965 
L 457.827685 313.310525 
L 458.349959 313.325345 
L 458.716663 313.318191 
L 458.783336 312.761165 
L 458.961132 306.641545 
L 459.261162 296.855263 
L 459.35006 299.006712 
L 459.727875 308.522146 
L 459.95012 309.922377 
L 459.983457 309.901935 
L 460.094579 310.065466 
L 460.316823 310.852457 
L 460.883547 312.316566 
L 461.061342 312.534777 
L 461.094679 310.561168 
L 461.228026 304.403221 
L 461.261363 304.70473 
L 461.828086 311.475917 
L 461.839198 311.455476 
L 462.128116 306.71309 
L 462.150341 306.851069 
L 462.661503 311.547462 
L 462.761513 311.409483 
L 462.99487 311.619006 
L 463.528257 312.781095 
L 463.639379 312.865416 
L 463.817174 312.974777 
L 464.106092 313.121443 
L 464.328337 313.182767 
L 464.717265 313.235915 
L 464.861724 313.298772 
L 464.872836 313.277819 
L 464.939509 312.40753 
L 465.050631 311.669599 
L 465.083968 311.705371 
L 466.006283 312.808691 
L 466.028507 312.797959 
L 466.084068 312.876147 
L 466.395211 313.098447 
L 466.528557 313.158749 
L 466.795251 313.258911 
L 466.93971 313.305415 
L 468.228728 313.437262 
L 468.417636 313.447482 
L 468.773227 313.463835 
L 469.53997 313.468946 
L 469.773327 313.457703 
L 470.251153 313.26351 
L 470.28449 313.021281 
L 470.417836 308.43016 
L 470.517846 308.833877 
L 471.240141 312.482652 
L 471.595732 312.930317 
L 471.840201 313.09487 
L 472.640281 313.248179 
L 472.78474 313.229782 
L 473.006985 313.264533 
L 473.295903 313.253801 
L 473.495923 313.272709 
L 473.629269 313.247157 
L 473.795953 313.127065 
L 473.818177 313.149039 
L 473.973748 313.171013 
L 474.207105 313.241025 
L 474.218217 313.204742 
L 474.251554 311.50709 
L 474.407125 287.569794 
L 474.440462 287.927517 
L 476.418438 312.801026 
L 476.42955 312.794893 
L 477.996374 313.2584 
L 478.440863 313.289062 
L 480.641084 313.38718 
L 480.763318 313.399445 
L 481.107797 313.111223 
L 481.363378 311.632293 
L 481.485613 311.276614 
L 481.507837 311.291945 
L 482.263469 312.768319 
L 482.407927 312.8925 
L 482.61906 313.007483 
L 483.352467 312.91703 
L 483.474701 312.854684 
L 483.941415 312.913964 
L 484.008088 312.908854 
L 484.052537 312.941049 
L 484.152547 312.992663 
L 484.185884 312.958424 
L 484.730383 313.123998 
L 484.752607 313.097425 
L 484.841505 313.146484 
L 484.985964 313.13984 
L 485.130423 313.086693 
L 485.486014 313.156705 
L 485.574912 312.782117 
L 485.641585 297.126111 
L 485.752707 278.626717 
L 485.797156 280.466436 
L 486.430553 307.121916 
L 486.708359 310.152342 
L 486.986164 310.924001 
L 487.075062 311.005767 
L 487.219521 311.199959 
L 487.241746 311.174408 
L 488.575213 312.254731 
L 488.786345 312.392199 
L 489.175273 312.534777 
L 489.308619 312.54091 
L 489.319732 312.567995 
L 489.464191 312.630341 
L 489.475303 312.62012 
L 489.597537 312.612454 
L 489.819782 312.604789 
L 489.964241 312.628807 
L 490.264271 312.780584 
L 490.330944 312.826066 
L 490.386505 312.769342 
L 490.486515 312.754011 
L 490.497628 312.74379 
L 490.642087 312.62523 
L 490.80877 311.599587 
L 490.986566 310.648044 
L 491.00879 310.668485 
L 491.086576 310.699147 
L 491.1088 310.612271 
L 491.142137 310.54243 
L 491.197698 310.157452 
L 491.542177 305.731906 
L 491.60885 305.94143 
L 492.264471 310.44363 
L 492.620063 311.128415 
L 492.653399 311.067091 
L 492.697848 310.448741 
L 492.853419 302.502178 
L 494.064652 310.949553 
L 494.464692 311.414593 
L 494.486917 311.394152 
L 494.509141 310.290321 
L 494.575814 266.106409 
L 494.720273 209.483955 
L 496.6538 308.281961 
L 496.698249 308.128651 
L 496.887157 307.270116 
L 496.998279 307.121916 
L 497.031616 307.229233 
L 497.164963 307.704494 
L 497.587227 309.431785 
L 497.876145 310.080797 
L 498.087278 310.469182 
L 498.287298 310.842236 
L 498.59844 311.113084 
L 498.654001 310.796243 
L 498.909582 303.943291 
L 498.965143 304.301014 
L 499.365183 309.758846 
L 499.387408 309.651529 
L 499.409632 309.528881 
L 499.465194 309.794619 
L 499.69855 310.801354 
L 499.987468 310.980215 
L 500.009693 310.954663 
L 500.043029 310.878008 
L 500.065254 309.763957 
L 500.120815 278.575614 
L 500.176376 261.404906 
L 500.254162 261.762629 
L 500.276386 262.222558 
L 500.320835 264.26669 
L 503.64339 311.37371 
L 503.654503 311.312387 
L 503.721176 311.107973 
L 503.776737 311.220401 
L 503.998981 311.636381 
L 504.010094 311.609467 
L 504.287899 311.821375 
L 504.632378 312.188297 
L 504.710164 312.341266 
L 504.765725 312.196985 
L 504.865735 312.248599 
L 505.443571 312.584859 
L 505.799162 312.609388 
L 506.021407 312.336497 
L 506.176978 309.411344 
L 506.399222 295.265951 
L 506.465896 296.129597 
L 506.643691 301.025293 
L 506.665916 297.918212 
L 506.721477 217.813792 
L 508.966146 309.130276 
L 508.977258 309.114945 
L 509.055044 309.324468 
L 509.099493 309.242703 
L 509.33285 307.970231 
L 509.610655 294.386974 
L 509.655104 294.821352 
L 512.988772 309.743515 
L 513.488822 310.59183 
L 513.533271 310.382306 
L 513.555495 309.186489 
L 513.666618 269.479227 
L 513.822189 273.363077 
L 514.733391 295.695219 
L 514.900075 292.577917 
L 515.100095 274.436247 
L 515.188992 269.019297 
L 515.3779 254.148237 
L 515.389013 254.403754 
L 515.511247 259.15636 
L 517.244754 307.970231 
L 517.311428 308.062217 
L 517.333652 307.944679 
L 517.644794 305.466169 
L 517.678131 305.563265 
L 517.767029 305.997643 
L 518.244854 308.716339 
L 518.600446 309.840612 
L 518.700456 309.993921 
L 519.400526 311.087532 
L 519.411638 311.077311 
L 519.511648 311.138635 
L 520.233943 311.705371 
L 520.256167 311.673176 
L 520.378402 311.562793 
L 520.445075 310.975105 
L 520.645095 306.810186 
L 520.76733 272.937216 
L 520.845115 274.64066 
L 521.923001 304.745613 
L 521.934113 303.657112 
L 522.011899 257.367745 
L 522.156358 261.149389 
L 522.211919 263.091314 
L 522.234143 261.967042 
L 522.323041 218.222619 
L 522.434163 225.121564 
L 522.445276 225.83701 
L 524.856629 308.297292 
L 524.923302 306.840848 
L 525.134434 283.021601 
L 525.201108 275.509416 
L 525.267781 276.275965 
L 525.278893 276.224862 
L 525.323342 276.531482 
L 525.378903 277.757961 
L 527.379104 310.116569 
L 527.545787 310.387417 
L 527.701358 310.668485 
L 527.856929 310.842236 
L 527.868042 310.816685 
L 528.079174 310.464072 
L 528.123623 310.549244 
L 528.623673 311.266394 
L 528.645897 311.097753 
L 528.668122 308.149092 
L 528.868142 264.26669 
L 528.901479 264.011174 
L 528.95704 264.777723 
L 529.112611 271.523359 
L 531.101699 310.816685 
L 531.223934 311.026208 
L 531.25727 310.857567 
L 531.312832 310.780912 
L 531.35728 310.878008 
L 531.735096 311.737566 
L 531.779545 311.786625 
L 531.812882 311.705371 
L 531.846218 310.336314 
L 531.90178 296.006949 
L 531.990677 283.430427 
L 532.035126 283.992563 
L 532.179585 285.065733 
L 532.479615 292.526814 
L 532.824094 306.907282 
L 532.935216 308.435271 
L 532.968553 307.566515 
L 533.068563 304.990909 
L 533.235247 283.839253 
L 533.257471 284.043667 
L 533.568613 295.30002 
L 533.879756 305.701244 
L 534.157561 308.976966 
L 534.435367 310.249438 
L 535.113213 311.537241 
L 535.157662 311.642514 
L 535.168774 311.547462 
L 535.346569 310.58672 
L 535.357682 310.59183 
L 535.413243 310.617382 
L 535.435467 310.673595 
L 535.702161 311.547462 
L 536.057752 312.087113 
L 536.457792 312.343651 
L 536.657812 312.507182 
L 536.680036 312.467321 
L 536.757822 312.536311 
L 537.013403 312.659469 
L 537.669025 312.873592 
L 537.913493 312.864905 
L 538.124626 312.896078 
L 538.135738 312.900677 
L 538.169075 312.812779 
L 538.357982 312.485718 
L 538.369095 312.491851 
L 538.480217 312.577193 
L 538.680237 312.717727 
L 538.713574 311.773338 
L 538.84692 295.593012 
L 538.913594 291.402542 
L 538.969155 292.475711 
L 539.191399 301.541436 
L 539.446981 309.009331 
L 539.735898 311.220401 
L 540.013704 311.915405 
L 540.047041 311.963954 
L 540.102602 311.845905 
L 540.424856 310.90356 
L 540.547091 311.067091 
L 540.658213 311.245952 
L 540.702662 311.220401 
L 540.780448 311.220401 
L 540.79156 311.281725 
L 541.380508 312.590991 
L 541.59164 312.742257 
L 541.758323 312.790294 
L 543.102903 313.229782 
L 543.558504 313.340165 
L 543.691851 313.245624 
L 543.858534 312.19954 
L 543.980769 312.405997 
L 544.014105 312.346717 
L 544.569717 313.076472 
L 544.869747 313.273731 
L 547.514456 313.47191 
L 547.636691 312.850085 
L 547.670027 312.881258 
L 547.714476 312.929295 
L 547.770037 312.842419 
L 547.870047 312.597123 
L 547.98117 312.304302 
L 548.047843 312.361026 
L 548.114516 312.365114 
L 548.136741 312.305835 
L 548.170078 312.297147 
L 548.203414 312.384023 
L 548.325649 312.666113 
L 548.714577 313.19912 
L 549.125729 313.434195 
L 549.925809 313.470479 
L 550.225839 313.538191 
L 550.837012 313.584439 
L 551.037032 313.618985 
L 551.22594 313.635542 
L 551.448184 313.606005 
L 551.592643 313.632476 
L 551.826 313.641828 
L 551.992683 313.646887 
L 552.348274 313.656188 
L 554.281802 313.65905 
L 554.448485 313.671724 
L 556.026421 313.616379 
L 556.27089 313.597522 
L 556.348675 313.509931 
L 556.57092 313.060119 
L 556.693154 313.003906 
L 556.726491 313.028435 
L 557.47101 313.418864 
L 557.504347 313.393313 
L 557.57102 313.442883 
L 558.059958 313.587965 
L 558.671131 313.52751 
L 559.071171 313.310525 
L 559.21563 313.364695 
L 559.926812 313.410688 
L 559.993485 312.538866 
L 560.237954 310.801354 
L 560.282403 310.90867 
L 560.393526 311.511689 
L 560.682443 312.675823 
L 561.204718 313.309503 
L 561.326952 313.28804 
L 561.426962 311.578124 
L 561.549197 311.939935 
L 561.938125 313.027924 
L 562.21593 313.266577 
L 562.427063 313.159771 
L 562.671532 312.563395 
L 562.76043 312.660492 
L 563.227143 313.225183 
L 563.949438 313.531087 
L 564.349478 313.57013 
L 568.616572 313.681127 
L 572.728096 313.660328 
L 572.95034 312.884324 
L 572.961452 312.88739 
L 573.561513 312.957402 
L 573.639298 312.574638 
L 573.661523 311.518844 
L 573.861543 282.612774 
L 573.961553 285.781179 
L 574.583837 309.477778 
L 574.839419 311.686463 
L 575.095 312.482652 
L 576.350681 313.381048 
L 576.917405 313.475078 
L 578.006403 313.368783 
L 578.617575 313.204231 
L 579.23986 313.248179 
L 580.228848 313.138818 
L 580.528878 312.990108 
L 580.684449 313.014467 
L 580.84002 313.142907 
L 580.94003 313.191625 
L 581.128938 313.29315 
L 583.151363 313.185833 
L 583.573628 313.029457 
L 584.118127 313.113267 
L 584.218137 313.163348 
L 584.240361 313.152616 
L 584.451494 313.201164 
L 584.595952 313.136774 
L 584.662626 313.021792 
L 584.995993 311.06198 
L 585.096003 311.281725 
L 585.507155 312.100399 
L 585.596053 312.219981 
L 586.185001 312.797959 
L 586.840622 313.037634 
L 586.851734 313.009016 
L 586.873959 313.054498 
L 586.940632 313.066252 
L 587.751824 312.977843 
L 587.796273 312.69933 
L 587.862947 310.494734 
L 588.040742 285.678972 
L 588.151865 288.694067 
L 588.840823 310.208555 
L 589.118628 311.593455 
L 589.374209 312.030388 
L 589.729801 312.448924 
L 590.752125 312.754522 
L 590.952145 312.812779 
L 591.407747 312.997262 
L 591.618879 313.029457 
L 592.030031 313.082605 
L 592.507857 312.973755 
L 592.57453 312.507182 
L 592.996795 307.019709 
L 593.07458 307.392764 
L 593.574631 310.975105 
L 593.596855 310.90867 
L 593.685753 307.535853 
L 593.874661 302.604385 
L 593.91911 302.941666 
L 594.685853 311.138635 
L 594.985883 311.751875 
L 595.452597 312.107554 
L 595.574831 311.982862 
L 595.730402 311.394152 
L 595.91931 310.428299 
L 595.974871 310.479403 
L 596.386024 311.455476 
L 596.941635 312.27875 
L 597.252777 312.408552 
L 597.263889 312.371247 
L 597.275002 312.336497 
L 597.352787 312.449946 
L 597.519471 312.558285 
L 597.76394 312.616543 
L 597.930623 312.525579 
L 598.319551 312.083024 
L 598.719591 312.240422 
L 599.553008 312.430527 
L 599.786365 312.435126 
L 600.308639 312.606322 
L 600.430874 312.656403 
L 600.842026 312.760654 
L 601.264291 312.708018 
L 601.419862 312.504626 
L 601.542096 311.05176 
L 601.753229 308.72656 
L 601.80879 308.87987 
L 602.597758 311.728367 
L 602.764441 311.950156 
L 603.120032 312.261886 
L 603.131144 312.24911 
L 603.186706 312.042142 
L 603.231155 310.663375 
L 603.486736 289.153996 
L 603.586746 291.300335 
L 604.175694 309.058731 
L 604.420163 310.571389 
L 604.642407 311.194849 
L 604.864652 311.537241 
L 605.131345 311.802978 
L 605.475824 312.047763 
L 605.764742 312.265463 
L 606.620383 312.596101 
L 608.35389 312.710573 
L 608.442788 311.718658 
L 608.487237 296.865484 
L 608.698369 223.997291 
L 608.809492 219.244685 
L 608.842828 220.522267 
L 608.987287 241.423516 
L 609.242868 264.215587 
L 609.754031 292.015781 
L 610.231857 305.578596 
L 610.531887 309.166048 
L 610.609672 309.50844 
L 610.654121 309.390902 
L 610.720794 307.530742 
L 611.29863 282.255051 
L 611.376416 230.589617 
L 611.543099 179.435215 
L 611.554211 179.639628 
L 611.79868 202.27839 
L 612.143159 256.601195 
L 612.265394 263.602347 
L 612.309843 262.682488 
L 612.320955 262.580281 
L 612.365404 263.193521 
L 612.487638 266.872958 
L 612.532087 264.675517 
L 612.709883 258.083191 
L 612.765444 255.528026 
L 612.965464 223.997291 
L 613.04325 207.184306 
L 613.121035 210.301607 
L 613.309943 230.538513 
L 613.587749 259.718497 
L 613.787769 271.012326 
L 613.809993 270.075432 
L 613.921115 256.192369 
L 614.076687 233.758021 
L 614.165584 237.079736 
L 615.065675 291.504748 
L 615.476827 302.660598 
L 615.765745 307.310998 
L 616.04355 309.426675 
L 616.321356 310.2801 
L 616.965865 311.240842 
L 617.0881 311.337938 
L 617.232559 311.358379 
L 617.332569 311.194849 
L 617.643711 310.74003 
L 617.810394 310.837126 
L 618.099312 311.230621 
L 618.110424 311.189739 
L 618.18821 311.317497 
L 618.477128 311.552572 
L 618.510464 311.530427 
L 618.566026 311.608786 
L 618.754933 311.713036 
L 618.943841 311.83364 
L 618.954953 311.815243 
L 619.077188 311.886277 
L 619.210535 307.443867 
L 619.377218 286.241108 
L 619.421667 261.711525 
L 619.510565 264.215587 
L 619.566126 264.26669 
L 619.699473 266.600407 
L 620.077288 286.803245 
L 620.399543 300.565363 
L 620.655124 304.571861 
L 620.799583 305.404845 
L 621.288521 309.094503 
L 621.355194 309.288696 
L 621.577439 309.881494 
L 621.599663 309.845722 
L 621.610775 309.835501 
L 621.644112 309.922377 
L 622.021928 310.913781 
L 622.044152 310.89845 
L 622.088601 311.021098 
L 622.210836 311.046649 
L 622.221948 311.026208 
L 622.255284 310.714478 
L 622.299733 304.69962 
L 622.466417 278.933337 
L 622.477529 278.98444 
L 622.788671 284.861319 
L 622.799783 283.992563 
L 622.966467 260.38284 
L 622.999804 259.582221 
L 623.055365 260.740563 
L 623.622088 289.153996 
L 623.655425 285.13387 
L 623.911006 226.194733 
L 623.922118 226.245836 
L 623.977679 228.289968 
L 624.966667 294.305209 
L 625.311146 303.033652 
L 625.333371 303.599195 
L 625.355595 303.033652 
L 625.444493 295.526578 
L 625.511166 296.318679 
L 625.711187 301.020182 
L 626.033441 307.551184 
L 626.266798 309.564654 
L 626.600165 310.683816 
L 627.266898 311.68033 
L 627.966968 312.188808 
L 628.011417 312.060539 
L 628.078091 312.132083 
L 628.400345 312.399354 
L 628.655926 312.508204 
L 628.889283 312.61041 
L 629.355996 312.720793 
L 629.689363 312.778029 
L 630.700576 312.949225 
L 630.900596 312.114708 
L 630.945045 303.008101 
L 631.089504 278.115684 
L 631.289524 284.452493 
L 631.345085 282.510568 
L 631.445095 282.203948 
L 631.7229 289.256203 
L 632.045155 304.38789 
L 632.456307 309.375572 
L 632.723001 310.709368 
L 633.200826 311.876567 
L 633.234163 311.845905 
L 633.300837 311.189739 
L 633.545305 307.438757 
L 633.600867 307.663611 
L 634.000907 310.055245 
L 634.078692 310.264769 
L 634.76765 311.845394 
L 635.078793 312.190852 
L 635.089905 312.098355 
L 635.223252 311.919494 
L 635.334374 311.972641 
L 635.645516 312.330364 
L 635.856648 312.479075 
L 636.534494 312.812779 
L 636.678953 312.867971 
L 637.034544 312.941049 
L 637.234564 312.949736 
L 637.990196 313.06063 
L 638.401348 313.148017 
L 639.023633 313.2584 
L 639.290326 313.219562 
L 639.41256 313.117866 
L 639.634805 312.675823 
L 639.701478 312.72386 
L 640.068182 313.075961 
L 640.101518 313.036612 
L 640.334875 312.784161 
L 640.612681 312.894545 
L 641.179404 313.266577 
L 641.623893 313.372871 
L 641.812801 313.371849 
L 641.968372 313.116333 
L 642.290627 313.219562 
L 642.668443 313.369805 
L 643.179605 313.338121 
L 643.346288 313.329945 
L 643.546308 313.070851 
L 643.735216 307.627839 
L 643.979685 279.955403 
L 644.079695 284.5547 
L 644.524184 299.461532 
L 644.679755 306.707979 
L 644.70198 305.409956 
L 644.868663 288.13193 
L 644.924224 285.270146 
L 644.990898 286.496625 
L 645.179805 289.460616 
L 645.235367 289.000687 
L 645.257591 288.949583 
L 645.335377 289.971649 
L 645.546509 294.356312 
L 646.079896 309.733295 
L 646.391038 311.676242 
L 646.735517 312.40753 
L 647.680056 313.04581 
L 647.980086 313.146995 
L 648.168994 313.190944 
L 648.380126 313.10509 
L 648.4468 312.814312 
L 648.691269 311.583234 
L 648.735718 311.663977 
L 649.002411 312.387089 
L 649.04686 312.151503 
L 649.135758 311.694639 
L 649.191319 311.76414 
L 649.791379 312.735102 
L 650.024736 312.903232 
L 650.213644 312.992663 
L 650.24698 312.836798 
L 650.391439 312.494917 
L 650.458113 312.252176 
L 650.64702 308.455712 
L 650.713694 308.838987 
L 650.991499 310.964884 
L 651.380427 312.497983 
L 651.713794 312.91703 
L 652.002712 313.09487 
L 652.347191 313.215473 
L 652.536099 313.150061 
L 652.569435 312.920607 
L 652.747231 311.897008 
L 652.825017 311.768228 
L 652.869465 311.823419 
L 653.025037 312.170922 
L 653.080598 312.034987 
L 653.136159 311.956288 
L 653.19172 312.025278 
L 653.569536 312.716705 
L 654.880778 313.315636 
L 655.558624 313.42653 
L 655.703083 313.367761 
L 655.958664 313.298772 
L 656.714295 313.306437 
L 656.892091 313.233871 
L 657.43659 313.452593 
L 661.114737 313.679696 
L 662.025939 313.639273 
L 662.18151 313.248179 
L 662.303745 313.266577 
L 662.914917 313.604369 
L 663.503865 313.677243 
L 669.926731 313.662116 
L 669.926731 313.662116 
" clip-path="url(#pa635c2d114)" style="fill: none; stroke: #1f77b4; stroke-width: 1.5; stroke-linecap: square"/>
   </g>
   <g id="patch_3">
    <path d="M 46.0125 327.558125 
L 46.0125 22.318125 
" style="fill: none; stroke: #000000; stroke-width: 0.8; stroke-linejoin: miter; stroke-linecap: square"/>
   </g>
   <g id="patch_4">
    <path d="M 699.636933 327.558125 
L 699.636933 22.318125 
" style="fill: none; stroke: #000000; stroke-width: 0.8; stroke-linejoin: miter; stroke-linecap: square"/>
   </g>
   <g id="patch_5">
    <path d="M 46.0125 327.558125 
L 699.636933 327.558125 
" style="fill: none; stroke: #000000; stroke-width: 0.8; stroke-linejoin: miter; stroke-linecap: square"/>
   </g>
   <g id="patch_6">
    <path d="M 46.0125 22.318125 
L 699.636933 22.318125 
" style="fill: none; stroke: #000000; stroke-width: 0.8; stroke-linejoin: miter; stroke-linecap: square"/>
   </g>
   <g id="text_16">
    <!-- training -->
    <g transform="translate(349.581279 16.318125) scale(0.12 -0.12)">
     <defs>
      <path id="DejaVuSans-74" d="M 1172 4494 
L 1172 3500 
L 2356 3500 
L 2356 3053 
L 1172 3053 
L 1172 1153 
Q 1172 725 1289 603 
Q 1406 481 1766 481 
L 2356 481 
L 2356 0 
L 1766 0 
Q 1100 0 847 248 
Q 594 497 594 1153 
L 594 3053 
L 172 3053 
L 172 3500 
L 594 3500 
L 594 4494 
L 1172 4494 
z
" transform="scale(0.015625)"/>
      <path id="DejaVuSans-72" d="M 2631 2963 
Q 2534 3019 2420 3045 
Q 2306 3072 2169 3072 
Q 1681 3072 1420 2755 
Q 1159 2438 1159 1844 
L 1159 0 
L 581 0 
L 581 3500 
L 1159 3500 
L 1159 2956 
Q 1341 3275 1631 3429 
Q 1922 3584 2338 3584 
Q 2397 3584 2469 3576 
Q 2541 3569 2628 3553 
L 2631 2963 
z
" transform="scale(0.015625)"/>
      <path id="DejaVuSans-61" d="M 2194 1759 
Q 1497 1759 1228 1600 
Q 959 1441 959 1056 
Q 959 750 1161 570 
Q 1363 391 1709 391 
Q 2188 391 2477 730 
Q 2766 1069 2766 1631 
L 2766 1759 
L 2194 1759 
z
M 3341 1997 
L 3341 0 
L 2766 0 
L 2766 531 
Q 2569 213 2275 61 
Q 1981 -91 1556 -91 
Q 1019 -91 701 211 
Q 384 513 384 1019 
Q 384 1609 779 1909 
Q 1175 2209 1959 2209 
L 2766 2209 
L 2766 2266 
Q 2766 2663 2505 2880 
Q 2244 3097 1772 3097 
Q 1472 3097 1187 3025 
Q 903 2953 641 2809 
L 641 3341 
Q 956 3463 1253 3523 
Q 1550 3584 1831 3584 
Q 2591 3584 2966 3190 
Q 3341 2797 3341 1997 
z
" transform="scale(0.015625)"/>
      <path id="DejaVuSans-69" d="M 603 3500 
L 1178 3500 
L 1178 0 
L 603 0 
L 603 3500 
z
M 603 4863 
L 1178 4863 
L 1178 4134 
L 603 4134 
L 603 4863 
z
" transform="scale(0.015625)"/>
      <path id="DejaVuSans-6e" d="M 3513 2113 
L 3513 0 
L 2938 0 
L 2938 2094 
Q 2938 2591 2744 2837 
Q 2550 3084 2163 3084 
Q 1697 3084 1428 2787 
Q 1159 2491 1159 1978 
L 1159 0 
L 581 0 
L 581 3500 
L 1159 3500 
L 1159 2956 
Q 1366 3272 1645 3428 
Q 1925 3584 2291 3584 
Q 2894 3584 3203 3211 
Q 3513 2838 3513 2113 
z
" transform="scale(0.015625)"/>
      <path id="DejaVuSans-67" d="M 2906 1791 
Q 2906 2416 2648 2759 
Q 2391 3103 1925 3103 
Q 1463 3103 1205 2759 
Q 947 2416 947 1791 
Q 947 1169 1205 825 
Q 1463 481 1925 481 
Q 2391 481 2648 825 
Q 2906 1169 2906 1791 
z
M 3481 434 
Q 3481 -459 3084 -895 
Q 2688 -1331 1869 -1331 
Q 1566 -1331 1297 -1286 
Q 1028 -1241 775 -1147 
L 775 -588 
Q 1028 -725 1275 -790 
Q 1522 -856 1778 -856 
Q 2344 -856 2625 -561 
Q 2906 -266 2906 331 
L 2906 616 
Q 2728 306 2450 153 
Q 2172 0 1784 0 
Q 1141 0 747 490 
Q 353 981 353 1791 
Q 353 2603 747 3093 
Q 1141 3584 1784 3584 
Q 2172 3584 2450 3431 
Q 2728 3278 2906 2969 
L 2906 3500 
L 3481 3500 
L 3481 434 
z
" transform="scale(0.015625)"/>
     </defs>
     <use xlink:href="#DejaVuSans-74"/>
     <use xlink:href="#DejaVuSans-72" x="39.208984"/>
     <use xlink:href="#DejaVuSans-61" x="80.322266"/>
     <use xlink:href="#DejaVuSans-69" x="141.601562"/>
     <use xlink:href="#DejaVuSans-6e" x="169.384766"/>
     <use xlink:href="#DejaVuSans-69" x="232.763672"/>
     <use xlink:href="#DejaVuSans-6e" x="260.546875"/>
     <use xlink:href="#DejaVuSans-67" x="323.925781"/>
    </g>
   </g>
   <g id="legend_1">
    <g id="patch_7">
     <path d="M 614.275995 44.99625 
L 692.636933 44.99625 
Q 694.636933 44.99625 694.636933 42.99625 
L 694.636933 29.318125 
Q 694.636933 27.318125 692.636933 27.318125 
L 614.275995 27.318125 
Q 612.275995 27.318125 612.275995 29.318125 
L 612.275995 42.99625 
Q 612.275995 44.99625 614.275995 44.99625 
z
" style="fill: #ffffff; opacity: 0.8; stroke: #cccccc; stroke-linejoin: miter"/>
    </g>
    <g id="line2d_17">
     <path d="M 616.275995 35.416563 
L 626.275995 35.416563 
L 636.275995 35.416563 
" style="fill: none; stroke: #1f77b4; stroke-width: 1.5; stroke-linecap: square"/>
    </g>
    <g id="text_17">
     <!-- observed -->
     <g transform="translate(644.275995 38.916563) scale(0.1 -0.1)">
      <defs>
       <path id="DejaVuSans-6f" d="M 1959 3097 
Q 1497 3097 1228 2736 
Q 959 2375 959 1747 
Q 959 1119 1226 758 
Q 1494 397 1959 397 
Q 2419 397 2687 759 
Q 2956 1122 2956 1747 
Q 2956 2369 2687 2733 
Q 2419 3097 1959 3097 
z
M 1959 3584 
Q 2709 3584 3137 3096 
Q 3566 2609 3566 1747 
Q 3566 888 3137 398 
Q 2709 -91 1959 -91 
Q 1206 -91 779 398 
Q 353 888 353 1747 
Q 353 2609 779 3096 
Q 1206 3584 1959 3584 
z
" transform="scale(0.015625)"/>
       <path id="DejaVuSans-62" d="M 3116 1747 
Q 3116 2381 2855 2742 
Q 2594 3103 2138 3103 
Q 1681 3103 1420 2742 
Q 1159 2381 1159 1747 
Q 1159 1113 1420 752 
Q 1681 391 2138 391 
Q 2594 391 2855 752 
Q 3116 1113 3116 1747 
z
M 1159 2969 
Q 1341 3281 1617 3432 
Q 1894 3584 2278 3584 
Q 2916 3584 3314 3078 
Q 3713 2572 3713 1747 
Q 3713 922 3314 415 
Q 2916 -91 2278 -91 
Q 1894 -91 1617 61 
Q 1341 213 1159 525 
L 1159 0 
L 581 0 
L 581 4863 
L 1159 4863 
L 1159 2969 
z
" transform="scale(0.015625)"/>
       <path id="DejaVuSans-73" d="M 2834 3397 
L 2834 2853 
Q 2591 2978 2328 3040 
Q 2066 3103 1784 3103 
Q 1356 3103 1142 2972 
Q 928 2841 928 2578 
Q 928 2378 1081 2264 
Q 1234 2150 1697 2047 
L 1894 2003 
Q 2506 1872 2764 1633 
Q 3022 1394 3022 966 
Q 3022 478 2636 193 
Q 2250 -91 1575 -91 
Q 1294 -91 989 -36 
Q 684 19 347 128 
L 347 722 
Q 666 556 975 473 
Q 1284 391 1588 391 
Q 1994 391 2212 530 
Q 2431 669 2431 922 
Q 2431 1156 2273 1281 
Q 2116 1406 1581 1522 
L 1381 1569 
Q 847 1681 609 1914 
Q 372 2147 372 2553 
Q 372 3047 722 3315 
Q 1072 3584 1716 3584 
Q 2034 3584 2315 3537 
Q 2597 3491 2834 3397 
z
" transform="scale(0.015625)"/>
       <path id="DejaVuSans-65" d="M 3597 1894 
L 3597 1613 
L 953 1613 
Q 991 1019 1311 708 
Q 1631 397 2203 397 
Q 2534 397 2845 478 
Q 3156 559 3463 722 
L 3463 178 
Q 3153 47 2828 -22 
Q 2503 -91 2169 -91 
Q 1331 -91 842 396 
Q 353 884 353 1716 
Q 353 2575 817 3079 
Q 1281 3584 2069 3584 
Q 2775 3584 3186 3129 
Q 3597 2675 3597 1894 
z
M 3022 2063 
Q 3016 2534 2758 2815 
Q 2500 3097 2075 3097 
Q 1594 3097 1305 2825 
Q 1016 2553 972 2059 
L 3022 2063 
z
" transform="scale(0.015625)"/>
       <path id="DejaVuSans-76" d="M 191 3500 
L 800 3500 
L 1894 563 
L 2988 3500 
L 3597 3500 
L 2284 0 
L 1503 0 
L 191 3500 
z
" transform="scale(0.015625)"/>
       <path id="DejaVuSans-64" d="M 2906 2969 
L 2906 4863 
L 3481 4863 
L 3481 0 
L 2906 0 
L 2906 525 
Q 2725 213 2448 61 
Q 2172 -91 1784 -91 
Q 1150 -91 751 415 
Q 353 922 353 1747 
Q 353 2572 751 3078 
Q 1150 3584 1784 3584 
Q 2172 3584 2448 3432 
Q 2725 3281 2906 2969 
z
M 947 1747 
Q 947 1113 1208 752 
Q 1469 391 1925 391 
Q 2381 391 2643 752 
Q 2906 1113 2906 1747 
Q 2906 2381 2643 2742 
Q 2381 3103 1925 3103 
Q 1469 3103 1208 2742 
Q 947 2381 947 1747 
z
" transform="scale(0.015625)"/>
      </defs>
      <use xlink:href="#DejaVuSans-6f"/>
      <use xlink:href="#DejaVuSans-62" x="61.181641"/>
      <use xlink:href="#DejaVuSans-73" x="124.658203"/>
      <use xlink:href="#DejaVuSans-65" x="176.757812"/>
      <use xlink:href="#DejaVuSans-72" x="238.28125"/>
      <use xlink:href="#DejaVuSans-76" x="279.394531"/>
      <use xlink:href="#DejaVuSans-65" x="338.574219"/>
      <use xlink:href="#DejaVuSans-64" x="400.097656"/>
     </g>
    </g>
   </g>
  </g>
 </g>
 <defs>
  <clipPath id="pa635c2d114">
   <rect x="46.0125" y="22.318125" width="653.624433" height="305.24"/>
  </clipPath>
 </defs>
</svg>
