<?xml version="1.0" encoding="utf-8" standalone="no"?>
<!DOCTYPE svg PUBLIC "-//W3C//DTD SVG 1.1//EN"
  "http://www.w3.org/Graphics/SVG/1.1/DTD/svg11.dtd">
<svg xmlns:xlink="http://www.w3.org/1999/xlink" width="712.835pt" height="351.43625pt" viewBox="0 0 712.835 351.43625" xmlns="http://www.w3.org/2000/svg" version="1.1">
 <metadata>
  <rdf:RDF xmlns:dc="http://purl.org/dc/elements/1.1/" xmlns:cc="http://creativecommons.org/ns#" xmlns:rdf="http://www.w3.org/1999/02/22-rdf-syntax-ns#">
   <cc:Work>
    <dc:type rdf:resource="http://purl.org/dc/dcmitype/StillImage"/>
    <dc:date>2024-05-04T00:36:31.374499</dc:date>
    <dc:format>image/svg+xml</dc:format>
    <dc:creator>
     <cc:Agent>
      <dc:title>Matplotlib v3.7.1, https://matplotlib.org/</dc:title>
     </cc:Agent>
    </dc:creator>
   </cc:Work>
  </rdf:RDF>
 </metadata>
 <defs>
  <style type="text/css">*{stroke-linejoin: round; stroke-linecap: butt}</style>
 </defs>
 <g id="figure_1">
  <g id="patch_1">
   <path d="M 0 351.43625 
L 712.835 351.43625 
L 712.835 0 
L 0 0 
z
" style="fill: #ffffff"/>
  </g>
  <g id="axes_1">
   <g id="patch_2">
    <path d="M 26.925 327.558125 
L 705.635 327.558125 
L 705.635 22.318125 
L 26.925 22.318125 
z
" style="fill: #ffffff"/>
   </g>
   <g id="matplotlib.axis_1">
    <g id="xtick_1">
     <g id="line2d_1">
      <defs>
       <path id="me83302c727" d="M 0 0 
L 0 3.5 
" style="stroke: #000000; stroke-width: 0.8"/>
      </defs>
      <g>
       <use xlink:href="#me83302c727" x="59.462193" y="327.558125" style="stroke: #000000; stroke-width: 0.8"/>
      </g>
     </g>
     <g id="text_1">
      <!-- 2020-09 -->
      <g transform="translate(38.570787 342.156563) scale(0.1 -0.1)">
       <defs>
        <path id="DejaVuSans-32" d="M 1228 531 
L 3431 531 
L 3431 0 
L 469 0 
L 469 531 
Q 828 903 1448 1529 
Q 2069 2156 2228 2338 
Q 2531 2678 2651 2914 
Q 2772 3150 2772 3378 
Q 2772 3750 2511 3984 
Q 2250 4219 1831 4219 
Q 1534 4219 1204 4116 
Q 875 4013 500 3803 
L 500 4441 
Q 881 4594 1212 4672 
Q 1544 4750 1819 4750 
Q 2544 4750 2975 4387 
Q 3406 4025 3406 3419 
Q 3406 3131 3298 2873 
Q 3191 2616 2906 2266 
Q 2828 2175 2409 1742 
Q 1991 1309 1228 531 
z
" transform="scale(0.015625)"/>
        <path id="DejaVuSans-30" d="M 2034 4250 
Q 1547 4250 1301 3770 
Q 1056 3291 1056 2328 
Q 1056 1369 1301 889 
Q 1547 409 2034 409 
Q 2525 409 2770 889 
Q 3016 1369 3016 2328 
Q 3016 3291 2770 3770 
Q 2525 4250 2034 4250 
z
M 2034 4750 
Q 2819 4750 3233 4129 
Q 3647 3509 3647 2328 
Q 3647 1150 3233 529 
Q 2819 -91 2034 -91 
Q 1250 -91 836 529 
Q 422 1150 422 2328 
Q 422 3509 836 4129 
Q 1250 4750 2034 4750 
z
" transform="scale(0.015625)"/>
        <path id="DejaVuSans-2d" d="M 313 2009 
L 1997 2009 
L 1997 1497 
L 313 1497 
L 313 2009 
z
" transform="scale(0.015625)"/>
        <path id="DejaVuSans-39" d="M 703 97 
L 703 672 
Q 941 559 1184 500 
Q 1428 441 1663 441 
Q 2288 441 2617 861 
Q 2947 1281 2994 2138 
Q 2813 1869 2534 1725 
Q 2256 1581 1919 1581 
Q 1219 1581 811 2004 
Q 403 2428 403 3163 
Q 403 3881 828 4315 
Q 1253 4750 1959 4750 
Q 2769 4750 3195 4129 
Q 3622 3509 3622 2328 
Q 3622 1225 3098 567 
Q 2575 -91 1691 -91 
Q 1453 -91 1209 -44 
Q 966 3 703 97 
z
M 1959 2075 
Q 2384 2075 2632 2365 
Q 2881 2656 2881 3163 
Q 2881 3666 2632 3958 
Q 2384 4250 1959 4250 
Q 1534 4250 1286 3958 
Q 1038 3666 1038 3163 
Q 1038 2656 1286 2365 
Q 1534 2075 1959 2075 
z
" transform="scale(0.015625)"/>
       </defs>
       <use xlink:href="#DejaVuSans-32"/>
       <use xlink:href="#DejaVuSans-30" x="63.623047"/>
       <use xlink:href="#DejaVuSans-32" x="127.246094"/>
       <use xlink:href="#DejaVuSans-30" x="190.869141"/>
       <use xlink:href="#DejaVuSans-2d" x="254.492188"/>
       <use xlink:href="#DejaVuSans-30" x="290.576172"/>
       <use xlink:href="#DejaVuSans-39" x="354.199219"/>
      </g>
     </g>
    </g>
    <g id="xtick_2">
     <g id="line2d_2">
      <g>
       <use xlink:href="#me83302c727" x="121.196837" y="327.558125" style="stroke: #000000; stroke-width: 0.8"/>
      </g>
     </g>
     <g id="text_2">
      <!-- 2020-11 -->
      <g transform="translate(100.305431 342.156563) scale(0.1 -0.1)">
       <defs>
        <path id="DejaVuSans-31" d="M 794 531 
L 1825 531 
L 1825 4091 
L 703 3866 
L 703 4441 
L 1819 4666 
L 2450 4666 
L 2450 531 
L 3481 531 
L 3481 0 
L 794 0 
L 794 531 
z
" transform="scale(0.015625)"/>
       </defs>
       <use xlink:href="#DejaVuSans-32"/>
       <use xlink:href="#DejaVuSans-30" x="63.623047"/>
       <use xlink:href="#DejaVuSans-32" x="127.246094"/>
       <use xlink:href="#DejaVuSans-30" x="190.869141"/>
       <use xlink:href="#DejaVuSans-2d" x="254.492188"/>
       <use xlink:href="#DejaVuSans-31" x="290.576172"/>
       <use xlink:href="#DejaVuSans-31" x="354.199219"/>
      </g>
     </g>
    </g>
    <g id="xtick_3">
     <g id="line2d_3">
      <g>
       <use xlink:href="#me83302c727" x="182.931481" y="327.558125" style="stroke: #000000; stroke-width: 0.8"/>
      </g>
     </g>
     <g id="text_3">
      <!-- 2021-01 -->
      <g transform="translate(162.040075 342.156563) scale(0.1 -0.1)">
       <use xlink:href="#DejaVuSans-32"/>
       <use xlink:href="#DejaVuSans-30" x="63.623047"/>
       <use xlink:href="#DejaVuSans-32" x="127.246094"/>
       <use xlink:href="#DejaVuSans-31" x="190.869141"/>
       <use xlink:href="#DejaVuSans-2d" x="254.492188"/>
       <use xlink:href="#DejaVuSans-30" x="290.576172"/>
       <use xlink:href="#DejaVuSans-31" x="354.199219"/>
      </g>
     </g>
    </g>
    <g id="xtick_4">
     <g id="line2d_4">
      <g>
       <use xlink:href="#me83302c727" x="242.642038" y="327.558125" style="stroke: #000000; stroke-width: 0.8"/>
      </g>
     </g>
     <g id="text_4">
      <!-- 2021-03 -->
      <g transform="translate(221.750632 342.156563) scale(0.1 -0.1)">
       <defs>
        <path id="DejaVuSans-33" d="M 2597 2516 
Q 3050 2419 3304 2112 
Q 3559 1806 3559 1356 
Q 3559 666 3084 287 
Q 2609 -91 1734 -91 
Q 1441 -91 1130 -33 
Q 819 25 488 141 
L 488 750 
Q 750 597 1062 519 
Q 1375 441 1716 441 
Q 2309 441 2620 675 
Q 2931 909 2931 1356 
Q 2931 1769 2642 2001 
Q 2353 2234 1838 2234 
L 1294 2234 
L 1294 2753 
L 1863 2753 
Q 2328 2753 2575 2939 
Q 2822 3125 2822 3475 
Q 2822 3834 2567 4026 
Q 2313 4219 1838 4219 
Q 1578 4219 1281 4162 
Q 984 4106 628 3988 
L 628 4550 
Q 988 4650 1302 4700 
Q 1616 4750 1894 4750 
Q 2613 4750 3031 4423 
Q 3450 4097 3450 3541 
Q 3450 3153 3228 2886 
Q 3006 2619 2597 2516 
z
" transform="scale(0.015625)"/>
       </defs>
       <use xlink:href="#DejaVuSans-32"/>
       <use xlink:href="#DejaVuSans-30" x="63.623047"/>
       <use xlink:href="#DejaVuSans-32" x="127.246094"/>
       <use xlink:href="#DejaVuSans-31" x="190.869141"/>
       <use xlink:href="#DejaVuSans-2d" x="254.492188"/>
       <use xlink:href="#DejaVuSans-30" x="290.576172"/>
       <use xlink:href="#DejaVuSans-33" x="354.199219"/>
      </g>
     </g>
    </g>
    <g id="xtick_5">
     <g id="line2d_5">
      <g>
       <use xlink:href="#me83302c727" x="304.376682" y="327.558125" style="stroke: #000000; stroke-width: 0.8"/>
      </g>
     </g>
     <g id="text_5">
      <!-- 2021-05 -->
      <g transform="translate(283.485276 342.156563) scale(0.1 -0.1)">
       <defs>
        <path id="DejaVuSans-35" d="M 691 4666 
L 3169 4666 
L 3169 4134 
L 1269 4134 
L 1269 2991 
Q 1406 3038 1543 3061 
Q 1681 3084 1819 3084 
Q 2600 3084 3056 2656 
Q 3513 2228 3513 1497 
Q 3513 744 3044 326 
Q 2575 -91 1722 -91 
Q 1428 -91 1123 -41 
Q 819 9 494 109 
L 494 744 
Q 775 591 1075 516 
Q 1375 441 1709 441 
Q 2250 441 2565 725 
Q 2881 1009 2881 1497 
Q 2881 1984 2565 2268 
Q 2250 2553 1709 2553 
Q 1456 2553 1204 2497 
Q 953 2441 691 2322 
L 691 4666 
z
" transform="scale(0.015625)"/>
       </defs>
       <use xlink:href="#DejaVuSans-32"/>
       <use xlink:href="#DejaVuSans-30" x="63.623047"/>
       <use xlink:href="#DejaVuSans-32" x="127.246094"/>
       <use xlink:href="#DejaVuSans-31" x="190.869141"/>
       <use xlink:href="#DejaVuSans-2d" x="254.492188"/>
       <use xlink:href="#DejaVuSans-30" x="290.576172"/>
       <use xlink:href="#DejaVuSans-35" x="354.199219"/>
      </g>
     </g>
    </g>
    <g id="xtick_6">
     <g id="line2d_6">
      <g>
       <use xlink:href="#me83302c727" x="366.111326" y="327.558125" style="stroke: #000000; stroke-width: 0.8"/>
      </g>
     </g>
     <g id="text_6">
      <!-- 2021-07 -->
      <g transform="translate(345.21992 342.156563) scale(0.1 -0.1)">
       <defs>
        <path id="DejaVuSans-37" d="M 525 4666 
L 3525 4666 
L 3525 4397 
L 1831 0 
L 1172 0 
L 2766 4134 
L 525 4134 
L 525 4666 
z
" transform="scale(0.015625)"/>
       </defs>
       <use xlink:href="#DejaVuSans-32"/>
       <use xlink:href="#DejaVuSans-30" x="63.623047"/>
       <use xlink:href="#DejaVuSans-32" x="127.246094"/>
       <use xlink:href="#DejaVuSans-31" x="190.869141"/>
       <use xlink:href="#DejaVuSans-2d" x="254.492188"/>
       <use xlink:href="#DejaVuSans-30" x="290.576172"/>
       <use xlink:href="#DejaVuSans-37" x="354.199219"/>
      </g>
     </g>
    </g>
    <g id="xtick_7">
     <g id="line2d_7">
      <g>
       <use xlink:href="#me83302c727" x="428.858013" y="327.558125" style="stroke: #000000; stroke-width: 0.8"/>
      </g>
     </g>
     <g id="text_7">
      <!-- 2021-09 -->
      <g transform="translate(407.966607 342.156563) scale(0.1 -0.1)">
       <use xlink:href="#DejaVuSans-32"/>
       <use xlink:href="#DejaVuSans-30" x="63.623047"/>
       <use xlink:href="#DejaVuSans-32" x="127.246094"/>
       <use xlink:href="#DejaVuSans-31" x="190.869141"/>
       <use xlink:href="#DejaVuSans-2d" x="254.492188"/>
       <use xlink:href="#DejaVuSans-30" x="290.576172"/>
       <use xlink:href="#DejaVuSans-39" x="354.199219"/>
      </g>
     </g>
    </g>
    <g id="xtick_8">
     <g id="line2d_8">
      <g>
       <use xlink:href="#me83302c727" x="490.592657" y="327.558125" style="stroke: #000000; stroke-width: 0.8"/>
      </g>
     </g>
     <g id="text_8">
      <!-- 2021-11 -->
      <g transform="translate(469.701251 342.156563) scale(0.1 -0.1)">
       <use xlink:href="#DejaVuSans-32"/>
       <use xlink:href="#DejaVuSans-30" x="63.623047"/>
       <use xlink:href="#DejaVuSans-32" x="127.246094"/>
       <use xlink:href="#DejaVuSans-31" x="190.869141"/>
       <use xlink:href="#DejaVuSans-2d" x="254.492188"/>
       <use xlink:href="#DejaVuSans-31" x="290.576172"/>
       <use xlink:href="#DejaVuSans-31" x="354.199219"/>
      </g>
     </g>
    </g>
    <g id="xtick_9">
     <g id="line2d_9">
      <g>
       <use xlink:href="#me83302c727" x="552.327301" y="327.558125" style="stroke: #000000; stroke-width: 0.8"/>
      </g>
     </g>
     <g id="text_9">
      <!-- 2022-01 -->
      <g transform="translate(531.435895 342.156563) scale(0.1 -0.1)">
       <use xlink:href="#DejaVuSans-32"/>
       <use xlink:href="#DejaVuSans-30" x="63.623047"/>
       <use xlink:href="#DejaVuSans-32" x="127.246094"/>
       <use xlink:href="#DejaVuSans-32" x="190.869141"/>
       <use xlink:href="#DejaVuSans-2d" x="254.492188"/>
       <use xlink:href="#DejaVuSans-30" x="290.576172"/>
       <use xlink:href="#DejaVuSans-31" x="354.199219"/>
      </g>
     </g>
    </g>
    <g id="xtick_10">
     <g id="line2d_10">
      <g>
       <use xlink:href="#me83302c727" x="612.037858" y="327.558125" style="stroke: #000000; stroke-width: 0.8"/>
      </g>
     </g>
     <g id="text_10">
      <!-- 2022-03 -->
      <g transform="translate(591.146452 342.156563) scale(0.1 -0.1)">
       <use xlink:href="#DejaVuSans-32"/>
       <use xlink:href="#DejaVuSans-30" x="63.623047"/>
       <use xlink:href="#DejaVuSans-32" x="127.246094"/>
       <use xlink:href="#DejaVuSans-32" x="190.869141"/>
       <use xlink:href="#DejaVuSans-2d" x="254.492188"/>
       <use xlink:href="#DejaVuSans-30" x="290.576172"/>
       <use xlink:href="#DejaVuSans-33" x="354.199219"/>
      </g>
     </g>
    </g>
    <g id="xtick_11">
     <g id="line2d_11">
      <g>
       <use xlink:href="#me83302c727" x="673.772502" y="327.558125" style="stroke: #000000; stroke-width: 0.8"/>
      </g>
     </g>
     <g id="text_11">
      <!-- 2022-05 -->
      <g transform="translate(652.881096 342.156563) scale(0.1 -0.1)">
       <use xlink:href="#DejaVuSans-32"/>
       <use xlink:href="#DejaVuSans-30" x="63.623047"/>
       <use xlink:href="#DejaVuSans-32" x="127.246094"/>
       <use xlink:href="#DejaVuSans-32" x="190.869141"/>
       <use xlink:href="#DejaVuSans-2d" x="254.492188"/>
       <use xlink:href="#DejaVuSans-30" x="290.576172"/>
       <use xlink:href="#DejaVuSans-35" x="354.199219"/>
      </g>
     </g>
    </g>
   </g>
   <g id="matplotlib.axis_2">
    <g id="ytick_1">
     <g id="line2d_12">
      <defs>
       <path id="mc37175e3be" d="M 0 0 
L -3.5 0 
" style="stroke: #000000; stroke-width: 0.8"/>
      </defs>
      <g>
       <use xlink:href="#mc37175e3be" x="26.925" y="312.154056" style="stroke: #000000; stroke-width: 0.8"/>
      </g>
     </g>
     <g id="text_12">
      <!-- 0 -->
      <g transform="translate(13.5625 315.953275) scale(0.1 -0.1)">
       <use xlink:href="#DejaVuSans-30"/>
      </g>
     </g>
    </g>
    <g id="ytick_2">
     <g id="line2d_13">
      <g>
       <use xlink:href="#mc37175e3be" x="26.925" y="265.091786" style="stroke: #000000; stroke-width: 0.8"/>
      </g>
     </g>
     <g id="text_13">
      <!-- 2 -->
      <g transform="translate(13.5625 268.891005) scale(0.1 -0.1)">
       <use xlink:href="#DejaVuSans-32"/>
      </g>
     </g>
    </g>
    <g id="ytick_3">
     <g id="line2d_14">
      <g>
       <use xlink:href="#mc37175e3be" x="26.925" y="218.029516" style="stroke: #000000; stroke-width: 0.8"/>
      </g>
     </g>
     <g id="text_14">
      <!-- 4 -->
      <g transform="translate(13.5625 221.828735) scale(0.1 -0.1)">
       <defs>
        <path id="DejaVuSans-34" d="M 2419 4116 
L 825 1625 
L 2419 1625 
L 2419 4116 
z
M 2253 4666 
L 3047 4666 
L 3047 1625 
L 3713 1625 
L 3713 1100 
L 3047 1100 
L 3047 0 
L 2419 0 
L 2419 1100 
L 313 1100 
L 313 1709 
L 2253 4666 
z
" transform="scale(0.015625)"/>
       </defs>
       <use xlink:href="#DejaVuSans-34"/>
      </g>
     </g>
    </g>
    <g id="ytick_4">
     <g id="line2d_15">
      <g>
       <use xlink:href="#mc37175e3be" x="26.925" y="170.967246" style="stroke: #000000; stroke-width: 0.8"/>
      </g>
     </g>
     <g id="text_15">
      <!-- 6 -->
      <g transform="translate(13.5625 174.766465) scale(0.1 -0.1)">
       <defs>
        <path id="DejaVuSans-36" d="M 2113 2584 
Q 1688 2584 1439 2293 
Q 1191 2003 1191 1497 
Q 1191 994 1439 701 
Q 1688 409 2113 409 
Q 2538 409 2786 701 
Q 3034 994 3034 1497 
Q 3034 2003 2786 2293 
Q 2538 2584 2113 2584 
z
M 3366 4563 
L 3366 3988 
Q 3128 4100 2886 4159 
Q 2644 4219 2406 4219 
Q 1781 4219 1451 3797 
Q 1122 3375 1075 2522 
Q 1259 2794 1537 2939 
Q 1816 3084 2150 3084 
Q 2853 3084 3261 2657 
Q 3669 2231 3669 1497 
Q 3669 778 3244 343 
Q 2819 -91 2113 -91 
Q 1303 -91 875 529 
Q 447 1150 447 2328 
Q 447 3434 972 4092 
Q 1497 4750 2381 4750 
Q 2619 4750 2861 4703 
Q 3103 4656 3366 4563 
z
" transform="scale(0.015625)"/>
       </defs>
       <use xlink:href="#DejaVuSans-36"/>
      </g>
     </g>
    </g>
    <g id="ytick_5">
     <g id="line2d_16">
      <g>
       <use xlink:href="#mc37175e3be" x="26.925" y="123.904976" style="stroke: #000000; stroke-width: 0.8"/>
      </g>
     </g>
     <g id="text_16">
      <!-- 8 -->
      <g transform="translate(13.5625 127.704195) scale(0.1 -0.1)">
       <defs>
        <path id="DejaVuSans-38" d="M 2034 2216 
Q 1584 2216 1326 1975 
Q 1069 1734 1069 1313 
Q 1069 891 1326 650 
Q 1584 409 2034 409 
Q 2484 409 2743 651 
Q 3003 894 3003 1313 
Q 3003 1734 2745 1975 
Q 2488 2216 2034 2216 
z
M 1403 2484 
Q 997 2584 770 2862 
Q 544 3141 544 3541 
Q 544 4100 942 4425 
Q 1341 4750 2034 4750 
Q 2731 4750 3128 4425 
Q 3525 4100 3525 3541 
Q 3525 3141 3298 2862 
Q 3072 2584 2669 2484 
Q 3125 2378 3379 2068 
Q 3634 1759 3634 1313 
Q 3634 634 3220 271 
Q 2806 -91 2034 -91 
Q 1263 -91 848 271 
Q 434 634 434 1313 
Q 434 1759 690 2068 
Q 947 2378 1403 2484 
z
M 1172 3481 
Q 1172 3119 1398 2916 
Q 1625 2713 2034 2713 
Q 2441 2713 2670 2916 
Q 2900 3119 2900 3481 
Q 2900 3844 2670 4047 
Q 2441 4250 2034 4250 
Q 1625 4250 1398 4047 
Q 1172 3844 1172 3481 
z
" transform="scale(0.015625)"/>
       </defs>
       <use xlink:href="#DejaVuSans-38"/>
      </g>
     </g>
    </g>
    <g id="ytick_6">
     <g id="line2d_17">
      <g>
       <use xlink:href="#mc37175e3be" x="26.925" y="76.842706" style="stroke: #000000; stroke-width: 0.8"/>
      </g>
     </g>
     <g id="text_17">
      <!-- 10 -->
      <g transform="translate(7.2 80.641925) scale(0.1 -0.1)">
       <use xlink:href="#DejaVuSans-31"/>
       <use xlink:href="#DejaVuSans-30" x="63.623047"/>
      </g>
     </g>
    </g>
    <g id="ytick_7">
     <g id="line2d_18">
      <g>
       <use xlink:href="#mc37175e3be" x="26.925" y="29.780436" style="stroke: #000000; stroke-width: 0.8"/>
      </g>
     </g>
     <g id="text_18">
      <!-- 12 -->
      <g transform="translate(7.2 33.579655) scale(0.1 -0.1)">
       <use xlink:href="#DejaVuSans-31"/>
       <use xlink:href="#DejaVuSans-32" x="63.623047"/>
      </g>
     </g>
    </g>
   </g>
   <g id="line2d_19">
    <path d="M 57.775455 305.682994 
L 57.90196 305.565338 
L 58.070634 306.094789 
L 58.154971 306.035961 
L 58.197139 306.094789 
L 58.239308 306.212444 
L 58.281476 306.094789 
L 58.323645 306.035961 
L 58.407982 303.32988 
L 58.45015 304.15347 
L 58.660992 305.682994 
L 59.335688 306.624239 
L 59.377857 306.565411 
L 59.54653 304.388781 
L 59.630867 304.918232 
L 59.883878 306.388928 
L 60.010384 306.741895 
L 60.094721 306.683067 
L 60.347731 306.977206 
L 60.3899 306.624239 
L 60.474237 299.035448 
L 60.642911 284.975595 
L 60.811585 287.034569 
L 61.106764 297.741236 
L 61.612786 303.388708 
L 62.371818 307.212517 
L 62.498323 307.212517 
L 62.540492 307.212517 
L 62.709166 307.447829 
L 62.751334 307.447829 
L 62.920008 307.68314 
L 63.004345 307.68314 
L 63.679041 308.624386 
L 63.763378 308.624386 
L 63.805546 308.742041 
L 63.847715 308.624386 
L 63.97422 308.624386 
L 64.142894 308.859697 
L 64.185062 308.859697 
L 64.648916 310.193128 
L 65.492285 310.859843 
L 65.703127 310.742188 
L 65.745296 310.742188 
L 66.082644 311.055936 
L 67.389866 311.918744 
L 67.432035 312.0364 
L 67.516372 311.977572 
L 67.55854 311.977572 
L 67.685046 312.154056 
L 67.853719 312.095228 
L 67.895888 312.095228 
L 68.064562 311.918744 
L 68.528415 312.389367 
L 69.203111 312.330539 
L 69.329616 312.212884 
L 69.540458 312.154056 
L 69.835638 311.801089 
L 69.919975 311.918744 
L 70.257322 311.918744 
L 70.383828 312.154056 
L 70.425996 312.095228 
L 70.636839 312.212884 
L 70.763344 311.918744 
L 71.185029 311.918744 
L 71.353703 312.154056 
L 71.901893 312.154056 
L 72.070567 311.683433 
L 72.197072 311.918744 
L 72.239241 311.801089 
L 72.281409 311.859917 
L 72.53442 312.448195 
L 72.618757 312.330539 
L 72.745262 311.918744 
L 72.871768 311.918744 
L 72.956105 312.389367 
L 72.998273 312.330539 
L 73.040442 312.389367 
L 73.08261 312.271711 
L 73.209116 312.271711 
L 73.293452 312.389367 
L 73.335621 312.330539 
L 73.377789 312.271711 
L 73.419958 312.330539 
L 73.546463 312.624678 
L 73.588632 312.624678 
L 73.672969 312.742334 
L 73.715137 312.624678 
L 73.757306 312.742334 
L 73.799474 312.742334 
L 73.92598 312.624678 
L 74.263327 312.683506 
L 74.389833 312.918818 
L 74.432001 312.85999 
L 74.685012 312.918818 
L 74.769349 313.095301 
L 74.811517 312.977645 
L 74.853686 312.918818 
L 74.980191 313.095301 
L 75.191034 313.095301 
L 75.233202 312.977645 
L 75.275371 313.095301 
L 75.359708 313.154129 
L 75.401876 313.271785 
L 75.444045 313.154129 
L 75.612718 313.095301 
L 75.781392 313.095301 
L 75.865729 312.85999 
L 75.907898 313.036473 
L 75.992235 312.977645 
L 76.11874 312.977645 
L 76.203077 312.85999 
L 76.245246 312.918818 
L 76.498256 312.683506 
L 76.66693 312.85999 
L 76.751267 312.742334 
L 76.877773 312.85999 
L 77.130783 312.801162 
L 77.425963 312.448195 
L 77.468131 312.507023 
L 77.5103 312.507023 
L 77.636805 312.624678 
L 77.847647 312.624678 
L 77.974153 312.85999 
L 78.100658 312.624678 
L 78.353669 312.683506 
L 78.395838 312.85999 
L 78.480175 312.801162 
L 78.564512 312.801162 
L 78.691017 312.683506 
L 79.450049 312.624678 
L 79.534386 312.565851 
L 79.576555 312.624678 
L 79.70306 312.624678 
L 79.745229 312.507023 
L 79.787397 312.565851 
L 79.956071 312.624678 
L 79.99824 312.624678 
L 80.166913 312.85999 
L 80.209082 312.742334 
L 80.25125 312.801162 
L 80.630767 313.271785 
L 80.672935 313.212957 
L 80.757272 313.212957 
L 80.925946 313.448268 
L 80.968114 313.38944 
L 81.052451 313.565924 
L 81.09462 313.448268 
L 81.136788 313.448268 
L 81.221125 313.565924 
L 81.263294 313.507096 
L 81.474136 313.68358 
L 81.558473 313.565924 
L 81.600642 313.624752 
L 82.191 313.565924 
L 82.317506 313.565924 
L 82.907864 313.507096 
L 83.371717 312.683506 
L 83.540391 311.801089 
L 83.709065 309.447975 
L 83.751234 307.212517 
L 84.088581 242.619552 
L 84.257255 220.91208 
L 84.552435 190.203949 
L 84.594603 189.733326 
L 84.636772 190.380432 
L 84.763277 199.086952 
L 85.353636 255.091053 
L 85.733152 268.562628 
L 86.407847 282.975448 
L 86.745195 288.799404 
L 86.913869 290.446584 
L 87.124711 292.505558 
L 87.419891 295.623433 
L 87.546396 295.564606 
L 87.71507 296.623507 
L 87.757239 296.388195 
L 87.883744 294.858672 
L 87.925912 294.917499 
L 88.178923 292.976181 
L 88.305429 292.387902 
L 98.636704 310.624532 
L 98.76321 310.68336 
L 98.889715 310.801016 
L 99.100558 309.977426 
L 99.437905 305.330027 
L 99.564411 304.388781 
L 99.901759 301.212078 
L 100.070433 271.680504 
L 100.95597 131.670251 
L 101.040307 133.493914 
L 101.208981 147.436111 
L 101.925845 224.324095 
L 102.34753 243.619625 
L 102.89572 257.679478 
L 103.781258 270.739258 
L 104.708965 281.269441 
L 105.299323 284.152005 
L 105.510166 285.093251 
L 106.564377 290.093617 
L 106.648714 290.034789 
L 107.112567 292.034935 
L 107.239073 291.858452 
L 107.365578 291.91728 
L 107.618589 292.387902 
L 107.8716 293.740943 
L 108.082442 294.917499 
L 108.335453 296.505851 
L 108.714969 298.035375 
L 108.757138 297.917719 
L 108.883643 298.270686 
L 109.094486 298.741309 
L 109.684844 300.447316 
L 109.769181 300.388488 
L 109.81135 300.32966 
L 109.853518 300.388488 
L 110.022192 300.741455 
L 110.064361 300.506144 
L 110.233034 300.506144 
L 110.275203 300.32966 
L 110.317371 300.506144 
L 110.528214 301.035595 
L 110.570382 300.859111 
L 110.612551 300.917939 
L 111.160741 302.212151 
L 111.202909 301.97684 
L 111.245078 302.035668 
L 111.371583 302.329807 
L 111.413752 302.270979 
L 111.45592 302.270979 
L 111.793268 303.212224 
L 112.088447 303.565192 
L 112.214953 303.447536 
L 112.5523 303.506364 
L 112.84748 304.094642 
L 112.889648 303.976986 
L 112.931817 304.15347 
L 113.016154 304.212298 
L 113.226996 304.565265 
L 113.269164 304.506437 
L 113.311333 304.565265 
L 113.39567 304.624093 
L 113.564344 303.506364 
L 113.648681 303.624019 
L 113.859523 303.506364 
L 113.901692 303.682847 
L 113.986029 303.565192 
L 114.196871 303.212224 
L 114.239039 303.212224 
L 114.534219 301.741529 
L 114.787229 299.682554 
L 115.04024 299.917866 
L 115.377588 299.329587 
L 115.504094 299.447243 
L 116.305294 301.918012 
L 116.600474 302.976913 
L 116.684811 302.976913 
L 116.811316 303.212224 
L 116.895653 303.212224 
L 117.064327 303.447536 
L 117.233001 303.682847 
L 117.359506 303.682847 
L 117.486012 303.918159 
L 117.52818 303.918159 
L 117.781191 302.388635 
L 117.992033 299.270759 
L 118.287213 297.564752 
L 118.455887 295.682261 
L 118.540224 281.151785 
L 118.961908 142.02395 
L 119.299256 111.492302 
L 119.678772 96.550032 
L 119.847446 93.843951 
L 119.931783 96.079409 
L 120.058289 110.374573 
L 120.690816 227.383142 
L 121.070332 241.148856 
L 121.618522 254.032152 
L 122.419723 264.621163 
L 122.757071 267.680211 
L 123.347429 272.386438 
L 123.853451 275.739624 
L 124.865494 280.798818 
L 124.992 281.092958 
L 125.371516 282.681309 
L 125.413685 282.740137 
L 125.751032 284.387317 
L 125.835369 284.446144 
L 125.877538 284.210833 
L 126.046212 285.093251 
L 126.257054 285.563873 
L 126.299223 285.681529 
L 126.341391 285.446218 
L 126.383559 285.740357 
L 126.594402 286.74043 
L 126.720907 286.975741 
L 126.889581 287.740503 
L 126.973918 287.799331 
L 127.226929 288.858232 
L 127.311266 288.622921 
L 127.353434 288.740576 
L 127.522108 289.093544 
L 128.070298 290.976034 
L 128.154635 290.976034 
L 128.323309 291.270173 
L 128.618488 291.858452 
L 128.829331 292.623214 
L 128.871499 292.623214 
L 129.082342 292.917353 
L 129.546195 293.740943 
L 130.136554 295.093983 
L 130.178722 295.093983 
L 130.684744 296.211712 
L 130.811249 296.564679 
L 131.148597 297.211785 
L 131.275102 297.094129 
L 131.359439 297.329441 
L 131.401608 297.270613 
L 131.654619 297.035302 
L 131.696787 297.270613 
L 131.738955 297.035302 
L 131.949798 289.975961 
L 132.118472 288.328782 
L 132.202809 261.679771 
L 132.497988 150.201019 
L 132.793167 119.551716 
L 133.088347 107.256698 
L 133.130515 107.19787 
L 133.172684 106.903731 
L 133.25702 109.727467 
L 133.425694 133.023291 
L 133.931716 215.794058 
L 134.269064 231.265779 
L 134.817254 246.266878 
L 135.449781 256.032299 
L 136.419656 264.503507 
L 137.220857 270.856914 
L 137.431699 272.268782 
L 137.600373 273.033544 
L 137.895552 274.621896 
L 138.2329 276.622042 
L 138.275069 276.504386 
L 139.202775 281.092958 
L 139.877471 283.563727 
L 139.919639 283.563727 
L 140.425661 285.210906 
L 140.805177 286.505119 
L 140.973851 287.152225 
L 141.016019 287.152225 
L 141.26903 287.799331 
L 141.606378 288.328782 
L 141.648547 288.269954 
L 141.690715 288.152298 
L 141.732883 288.328782 
L 141.859389 288.681749 
L 141.901557 288.622921 
L 142.1124 289.211199 
L 142.407579 289.799478 
L 142.449748 289.74065 
L 142.576253 290.152445 
L 142.618421 290.034789 
L 142.66059 290.211272 
L 143.546128 292.740869 
L 143.588296 292.623214 
L 143.841307 293.152664 
L 143.967813 293.329148 
L 144.558171 294.270393 
L 144.769013 294.329221 
L 144.85335 294.446877 
L 144.979856 294.741016 
L 145.022024 294.741016 
L 145.275035 295.152811 
L 145.317204 295.093983 
L 145.359372 295.211639 
L 145.907562 296.152884 
L 146.160573 296.741162 
L 146.202742 296.682335 
L 146.455752 295.329294 
L 146.582258 295.44695 
L 146.666595 295.152811 
L 146.877437 294.329221 
L 146.919606 294.564532 
L 147.003943 294.505705 
L 148.100323 295.564606 
L 148.142491 295.505778 
L 148.18466 294.505705 
L 148.268997 295.035155 
L 148.479839 295.799917 
L 148.522008 295.741089 
L 148.564176 295.799917 
L 148.606345 295.858745 
L 148.648513 295.741089 
L 148.690681 295.682261 
L 148.73285 295.799917 
L 148.817187 295.858745 
L 148.985861 296.447023 
L 149.196703 297.564752 
L 149.323209 297.917719 
L 149.449714 298.211858 
L 149.491882 298.094203 
L 149.787062 297.035302 
L 149.82923 296.917646 
L 149.913567 296.976474 
L 150.293083 297.388269 
L 150.503926 297.094129 
L 150.756937 294.329221 
L 151.262958 281.56358 
L 151.473801 279.916401 
L 151.558138 278.798672 
L 151.853317 274.327756 
L 151.979822 273.739478 
L 152.148496 274.445412 
L 152.401507 275.739624 
L 152.781023 280.445851 
L 152.991866 282.445998 
L 153.16054 283.857866 
L 153.41355 285.328562 
L 153.919572 288.211126 
L 154.003909 288.446437 
L 154.25692 289.211199 
L 154.341257 288.740576 
L 154.383425 288.91706 
L 154.552099 289.446511 
L 154.80511 290.034789 
L 154.847278 289.975961 
L 154.889447 290.034789 
L 155.015952 291.211346 
L 155.142458 291.034862 
L 155.184626 291.09369 
L 155.437637 288.446437 
L 156.070164 281.622408 
L 156.323175 280.387024 
L 156.365343 280.445851 
L 156.534017 280.739991 
L 156.618354 280.328196 
L 156.829197 281.210613 
L 156.913534 281.328269 
L 157.672566 285.91684 
L 157.883408 286.269807 
L 157.925577 286.152152 
L 158.009914 285.505045 
L 158.052082 285.681529 
L 158.094251 285.505045 
L 158.136419 285.799185 
L 158.178588 285.720747 
L 158.262925 285.210906 
L 158.305093 285.269734 
L 158.347262 285.269734 
L 158.558104 285.975668 
L 158.895452 287.152225 
L 159.064126 287.56402 
L 159.106294 287.56402 
L 159.190631 288.269954 
L 159.2328 288.211126 
L 159.317137 288.505265 
L 159.48581 289.093544 
L 159.654484 289.505338 
L 159.78099 290.681895 
L 159.823158 290.623067 
L 159.991832 291.152518 
L 160.244843 291.740796 
L 160.287011 291.681968 
L 160.32918 291.329001 
L 160.455685 292.387902 
L 160.497854 291.799624 
L 160.540022 292.093763 
L 160.708696 292.564386 
L 160.793033 292.034935 
L 160.87737 292.093763 
L 161.003875 292.682042 
L 161.214718 291.387829 
L 161.299055 291.623141 
L 161.341223 291.603531 
L 161.509897 293.211492 
L 162.311098 295.211639 
L 162.395435 295.270466 
L 162.52194 294.741016 
L 162.564109 294.976327 
L 163.238804 296.564679 
L 163.36531 296.564679 
L 163.449647 296.623507 
L 163.660489 295.564606 
L 164.082174 294.976327 
L 164.124342 295.035155 
L 164.799038 295.799917 
L 164.883375 295.329294 
L 164.967712 292.623214 
L 165.052049 275.916108 
L 165.473734 139.02373 
L 165.811081 108.492083 
L 166.148429 96.373548 
L 166.274935 94.491057 
L 166.317103 94.785197 
L 166.40144 97.255966 
L 166.527945 110.256918 
L 167.244809 218.147172 
L 167.49782 224.206439 
L 167.582157 224.265267 
L 167.666494 224.794717 
L 167.750831 224.618234 
L 167.877336 224.618234 
L 168.088179 225.912446 
L 168.299021 228.089076 
L 168.509864 232.030541 
L 169.100222 244.443215 
L 169.690581 251.855522 
L 170.660456 261.738599 
L 170.702624 261.797427 
L 171.039972 264.15054 
L 171.208646 264.856474 
L 171.503825 266.209515 
L 171.545994 266.268343 
L 171.883341 267.915522 
L 172.094184 268.79794 
L 172.768879 272.739405 
L 173.401406 274.798379 
L 173.86526 277.21032 
L 174.076102 278.681016 
L 174.202607 278.622188 
L 175.088145 280.916474 
L 175.172482 280.445851 
L 175.214651 279.210467 
L 175.298988 263.385779 
L 175.720672 151.965854 
L 176.05802 120.728273 
L 176.268863 114.257211 
L 176.311031 114.492522 
L 176.395368 117.55157 
L 176.564042 137.553034 
L 177.112232 209.852447 
L 177.491748 225.500651 
L 178.039938 238.32512 
L 178.798971 248.502336 
L 179.136319 252.149662 
L 179.684509 257.032372 
L 180.064025 259.738453 
L 180.443541 261.797427 
L 180.527878 262.091566 
L 180.654384 262.973984 
L 181.244742 267.091932 
L 181.371248 268.033178 
L 181.835101 271.092225 
L 182.214617 272.209954 
L 182.889313 274.386584 
L 183.184492 275.210174 
L 183.22666 275.210174 
L 183.268829 275.03369 
L 183.437503 270.327463 
L 183.564008 263.385779 
L 183.817019 225.735963 
L 184.238704 141.318016 
L 184.449546 129.78776 
L 184.491715 129.964243 
L 184.576052 133.552741 
L 184.786894 159.084023 
L 185.16641 203.616696 
L 185.630263 222.676915 
L 186.895318 247.149295 
L 187.401339 252.326145 
L 187.65435 254.326292 
L 189.04591 265.150614 
L 189.762774 268.562628 
L 190.14229 269.562701 
L 190.521806 264.209368 
L 190.901323 256.973544 
L 191.196502 247.325779 
L 191.23867 247.502262 
L 191.491681 252.561456 
L 191.913366 259.209002 
L 192.292882 262.973984 
L 192.672398 266.091859 
L 193.220588 269.268562 
L 193.473599 269.798013 
L 193.895284 271.268709 
L 194.2748 270.798086 
L 194.316969 270.915742 
L 194.359137 270.739258 
L 194.485643 270.798086 
L 194.738654 269.915669 
L 194.949496 269.562701 
L 195.076001 269.562701 
L 195.413349 271.151053 
L 195.624191 271.915815 
L 195.877202 273.033544 
L 195.919371 273.033544 
L 196.678403 274.916035 
L 196.76274 274.916035 
L 197.015751 275.504313 
L 197.268762 275.563141 
L 197.901289 276.622042 
L 198.112131 277.269148 
L 198.280805 277.680943 
L 198.322974 277.622115 
L 198.491648 278.210394 
L 198.786827 278.798672 
L 201.654283 286.505119 
L 201.907294 287.034569 
L 202.328979 287.916987 
L 202.413316 287.858159 
L 202.497652 287.681675 
L 202.539821 287.799331 
L 202.581989 287.740503 
L 203.088011 289.387683 
L 203.298853 289.858305 
L 203.341022 290.093617 
L 203.425359 290.034789 
L 203.509696 290.152445 
L 203.551864 290.093617 
L 203.636201 289.917133 
L 204.100054 287.799331 
L 204.268728 287.56402 
L 204.310897 287.681675 
L 204.521739 287.622848 
L 205.027761 286.975741 
L 205.069929 287.034569 
L 205.112098 287.034569 
L 205.32294 287.446364 
L 205.618119 287.505192 
L 205.828962 287.916987 
L 206.124141 288.975888 
L 206.250647 288.91706 
L 206.841005 291.034862 
L 206.883174 291.034862 
L 207.178353 291.91728 
L 207.220521 291.91728 
L 207.515701 292.505558 
L 207.600038 291.858452 
L 207.642206 291.152518 
L 208.401239 236.854424 
L 208.612081 196.263216 
L 208.865092 149.671569 
L 209.20244 131.317284 
L 209.244608 131.434939 
L 209.328945 134.788126 
L 209.497619 153.43655 
L 210.003641 214.852813 
L 210.383157 230.14805 
L 210.889179 241.207684 
L 211.648211 253.032079 
L 212.280738 258.856035 
L 213.587961 265.680064 
L 213.925309 264.44468 
L 214.43133 261.44446 
L 214.600004 255.914643 
L 214.642173 256.032299 
L 214.937352 260.150247 
L 216.792765 272.32761 
L 217.76264 275.916108 
L 218.437335 277.563287 
L 218.563841 277.50446 
L 218.606009 277.680943 
L 218.690346 277.563287 
L 218.774683 277.680943 
L 218.816851 277.622115 
L 218.943357 277.622115 
L 219.449378 278.739844 
L 219.491547 278.739844 
L 219.533715 278.563361 
L 219.618052 278.622188 
L 219.660221 278.622188 
L 220.377085 281.151785 
L 220.419253 281.151785 
L 220.461422 281.328269 
L 220.545759 281.269441 
L 220.672264 280.916474 
L 220.756601 280.092884 
L 221.220454 272.445266 
L 221.726476 266.915449 
L 221.89515 265.974203 
L 222.190329 269.268562 
L 222.569845 273.210027 
L 223.919237 278.504533 
L 223.961405 278.445705 
L 224.38309 279.857573 
L 224.425258 279.857573 
L 224.593932 280.21054 
L 224.889111 281.269441 
L 224.93128 281.210613 
L 225.184291 280.739991 
L 225.268628 279.739917 
L 225.816818 262.444533 
L 226.238503 250.620138 
L 226.407176 248.914131 
L 226.57585 250.796621 
L 226.786693 253.326218 
L 226.828861 253.267391 
L 226.955367 252.267317 
L 227.166209 246.913984 
L 227.377051 233.089442 
L 227.756568 211.38197 
L 227.798736 210.793692 
L 227.840904 211.146659 
L 227.96741 215.088124 
L 228.557769 238.207464 
L 228.979453 245.38446 
L 229.274633 247.855229 
L 229.316801 247.502262 
L 229.780654 226.147757 
L 230.244507 203.910835 
L 230.286676 203.969663 
L 230.371013 205.734498 
L 230.666192 219.55904 
L 231.045708 233.030614 
L 231.509562 241.32534 
L 231.720404 243.090175 
L 231.804741 238.913398 
L 232.479436 107.256698 
L 232.816784 93.079189 
L 233.154132 85.372743 
L 233.238469 86.313988 
L 233.364974 91.314354 
L 233.575817 113.786588 
L 234.166175 194.733692 
L 234.503523 208.381751 
L 235.599903 233.207098 
L 235.642072 233.089442 
L 235.68424 233.324754 
L 235.810746 236.442629 
L 235.895083 236.207318 
L 236.105925 239.266365 
L 236.148094 238.501603 
L 236.569778 230.618673 
L 236.696284 230.265706 
L 236.738452 230.44219 
L 236.780621 230.383362 
L 237.033632 227.794937 
L 237.0758 227.912593 
L 237.244474 231.618746 
L 237.666159 241.678307 
L 238.003506 246.20805 
L 238.045675 245.502116 
L 238.087843 245.737427 
L 238.298686 248.737647 
L 238.593865 251.679039 
L 239.901088 260.032592 
L 239.943256 260.150247 
L 240.196267 257.326511 
L 240.407109 246.561017 
L 240.617952 217.088271 
L 241.20831 117.845709 
L 241.545658 101.138603 
L 241.672164 98.785489 
L 241.714332 98.961973 
L 241.798669 101.020947 
L 241.925174 111.080507 
L 242.684207 199.792886 
L 242.895049 206.322776 
L 242.937218 206.263948 
L 243.021555 195.851421 
L 243.316734 155.08373 
L 243.654082 127.493474 
L 243.907093 120.25765 
L 243.949261 120.551789 
L 244.075766 126.493401 
L 244.370946 160.084096 
L 244.708294 191.498161 
L 245.08781 205.969809 
L 245.636 218.558966 
L 247.196233 243.266658 
L 247.322739 244.384387 
L 248.081771 251.737867 
L 250.190195 265.719283 
L 250.401037 266.680137 
L 250.864891 269.150907 
L 250.907059 269.209734 
L 251.16007 270.503947 
L 251.202238 270.445119 
L 251.244407 270.503947 
L 251.455249 271.209881 
L 251.497418 271.033397 
L 251.539586 271.131444 
L 251.581755 271.327537 
L 251.70826 272.445266 
L 251.750428 272.445266 
L 252.25645 274.092445 
L 252.298619 274.092445 
L 253.057651 276.504386 
L 253.310662 277.092665 
L 253.394999 277.151493 
L 253.690178 277.916254 
L 254.322705 279.445778 
L 254.364874 279.38695 
L 254.533548 279.739917 
L 255.208243 281.328269 
L 255.376917 281.387097 
L 255.84077 282.210687 
L 256.178118 285.093251 
L 256.220287 284.916767 
L 256.431129 283.622555 
L 256.473297 283.622555 
L 256.726308 284.034349 
L 256.768477 283.916694 
L 256.979319 284.504972 
L 257.23233 285.152078 
L 257.274498 285.093251 
L 257.316667 285.210906 
L 257.443172 285.269734 
L 257.611846 285.740357 
L 257.822689 285.858012 
L 257.907025 285.799185 
L 257.949194 285.622701 
L 258.033531 285.740357 
L 258.075699 285.740357 
L 258.160036 284.740284 
L 258.202205 283.328415 
L 258.32871 249.20827 
L 258.708226 132.258529 
L 259.003406 109.256845 
L 259.382922 97.314794 
L 259.509427 96.197065 
L 259.551596 96.432376 
L 259.72027 103.903511 
L 259.804607 100.66798 
L 261.111829 40.54593 
L 261.36484 36.545637 
L 261.449177 36.19267 
L 261.66002 39.604685 
L 261.91303 50.193696 
L 262.334715 81.313622 
L 262.629894 115.845562 
L 263.220253 193.733619 
L 263.85278 215.911714 
L 264.443139 227.97142 
L 264.527476 229.324461 
L 265.708193 244.325559 
L 266.045541 247.149295 
L 266.087709 247.208123 
L 266.425057 249.20827 
L 266.635899 250.384826 
L 266.973247 252.620284 
L 267.310595 254.796914 
L 267.394932 254.91457 
L 267.4371 254.796914 
L 267.479269 254.738086 
L 267.521437 253.149735 
L 268.153964 111.433475 
L 268.575649 89.196552 
L 268.870828 80.313549 
L 269.123839 75.313182 
L 269.292513 74.01897 
L 269.37685 74.195453 
L 269.461187 75.019043 
L 269.672029 82.72549 
L 269.882872 100.373841 
L 270.304556 161.025341 
L 270.431062 171.437869 
L 270.641904 153.848345 
L 270.810578 145.200653 
L 271.232263 120.904756 
L 271.400937 118.022192 
L 271.485274 119.081093 
L 271.611779 126.316917 
L 272.497317 201.204754 
L 273.045507 216.264681 
L 273.382855 221.088563 
L 273.425023 212.735011 
L 273.635866 112.610031 
L 273.931045 90.196625 
L 274.605741 59.312011 
L 274.647909 59.312011 
L 274.816583 58.135454 
L 274.943088 58.723732 
L 275.027425 58.723732 
L 275.153931 60.1356 
L 275.364773 66.724318 
L 275.659952 85.666882 
L 275.828626 102.138676 
L 276.461153 189.027392 
L 276.629827 197.008369 
L 277.262354 214.617501 
L 277.304523 214.793985 
L 277.810545 226.030102 
L 278.443072 236.383801 
L 279.244273 245.207977 
L 281.394865 259.620797 
L 281.437033 259.679625 
L 281.647876 260.385559 
L 281.732212 260.679698 
L 282.449076 263.268123 
L 282.702087 263.797573 
L 282.955098 265.091786 
L 283.208109 265.974203 
L 283.334614 265.209442 
L 283.629794 260.562042 
L 283.714131 261.032665 
L 284.093647 262.973984 
L 284.220152 262.973984 
L 284.515332 263.974057 
L 284.5575 263.915229 
L 284.937016 262.032738 
L 284.979185 262.26805 
L 285.232196 264.209368 
L 285.822554 268.268489 
L 286.623755 272.209954 
L 287.129777 273.857134 
L 287.382788 274.857207 
L 287.804473 276.151419 
L 287.846641 276.151419 
L 288.057483 276.857353 
L 288.099652 276.857353 
L 288.774347 278.445705 
L 289.153864 279.151639 
L 289.364706 279.563434 
L 289.449043 279.504606 
L 289.659885 280.328196 
L 289.828559 280.681163 
L 290.250244 282.034203 
L 290.292412 282.034203 
L 290.418918 282.269514 
L 290.503255 282.38717 
L 290.545423 282.269514 
L 290.62976 282.328342 
L 290.924939 283.093104 
L 291.47313 284.328489 
L 291.599635 284.387317 
L 291.768309 284.622628 
L 291.810477 284.622628 
L 292.063488 285.328562 
L 292.147825 285.38739 
L 292.443004 285.799185 
L 292.653847 286.505119 
L 292.949026 287.034569 
L 293.159869 287.446364 
L 294.424923 289.328855 
L 294.50926 289.622994 
L 294.551428 289.446511 
L 294.677934 289.328855 
L 295.015281 290.623067 
L 295.352629 291.387829 
L 295.394798 291.270173 
L 295.900819 294.270393 
L 295.985156 294.152738 
L 296.406841 292.917353 
L 296.491178 293.035009 
L 296.617683 293.27032 
L 296.659852 293.329148 
L 296.70202 293.211492 
L 296.955031 292.505558 
L 297.208042 293.329148 
L 297.376716 293.387976 
L 297.418884 293.329148 
L 297.54539 293.505631 
L 297.714064 293.446803 
L 297.882737 289.564166 
L 298.135748 279.151639 
L 298.894781 244.678526 
L 298.936949 245.38446 
L 299.18996 255.679332 
L 299.569476 266.268343 
L 300.03333 273.915961 
L 300.665857 280.504679 
L 301.087541 282.740137 
L 301.635732 285.269734 
L 301.6779 285.210906 
L 302.310427 287.387536 
L 302.436933 287.681675 
L 302.647775 288.152298 
L 302.732112 288.211126 
L 303.744155 290.917206 
L 303.786324 290.858379 
L 303.828492 290.740723 
L 303.870661 290.917206 
L 303.912829 290.858379 
L 303.954998 290.976034 
L 303.997166 290.976034 
L 304.123671 291.09369 
L 304.16584 291.09369 
L 304.334514 291.446657 
L 304.756198 291.505485 
L 304.967041 291.91728 
L 305.009209 291.799624 
L 305.220052 292.623214 
L 305.599568 293.976254 
L 305.768242 294.446877 
L 305.81041 294.388049 
L 305.894747 294.505705 
L 305.936916 294.446877 
L 306.527274 295.388122 
L 306.822454 297.035302 
L 306.906791 297.447096 
L 306.948959 297.329441 
L 307.075464 297.329441 
L 307.286307 296.917646 
L 307.497149 296.035228 
L 307.75016 295.152811 
L 308.003171 292.564386 
L 308.467024 248.267024 
L 308.888709 136.552961 
L 309.226057 114.139555 
L 309.352562 111.668786 
L 309.39473 111.727614 
L 309.479067 113.374793 
L 309.605573 123.728493 
L 310.406774 225.382996 
L 310.912795 240.442922 
L 311.418817 250.031859 
L 312.515197 265.444753 
L 312.936882 268.033178 
L 313.147725 269.798013 
L 313.569409 272.562921 
L 314.033262 268.386145 
L 314.37061 266.738965 
L 314.539284 261.209149 
L 314.707958 256.855889 
L 314.750126 256.973544 
L 314.876632 259.150174 
L 315.340485 268.268489 
L 315.973012 273.562994 
L 316.015181 273.621822 
L 316.563371 276.798525 
L 316.605539 276.857353 
L 316.816382 277.798599 
L 317.40674 280.739991 
L 317.786257 282.328342 
L 318.840468 285.563873 
L 319.093479 286.210979 
L 319.177816 286.387463 
L 319.515164 287.681675 
L 320.105523 289.152371 
L 320.147691 289.093544 
L 320.400702 289.74065 
L 320.485039 289.799478 
L 320.527207 289.858305 
L 320.695881 288.740576 
L 320.73805 288.91706 
L 321.370577 291.858452 
L 321.83443 293.387976 
L 322.003104 294.152738 
L 322.045272 293.976254 
L 322.213946 294.270393 
L 322.298283 294.152738 
L 322.340452 294.211565 
L 322.38262 294.152738 
L 322.424789 294.270393 
L 322.635631 294.682188 
L 322.677799 294.62336 
L 322.846473 295.093983 
L 322.93081 294.917499 
L 322.972979 294.976327 
L 323.268158 295.564606 
L 323.394663 295.917573 
L 323.479 295.858745 
L 323.521169 295.858745 
L 324.111527 297.211785 
L 324.153696 297.152957 
L 324.195864 297.211785 
L 324.280201 297.388269 
L 324.406707 297.211785 
L 324.448875 297.211785 
L 324.87056 298.564825 
L 324.954897 298.623653 
L 325.123571 299.094276 
L 325.460919 299.741382 
L 325.671761 299.623726 
L 325.96694 300.212005 
L 326.009109 300.388488 
L 326.051277 300.32966 
L 326.135614 300.153177 
L 326.26212 301.15325 
L 326.430793 302.50629 
L 326.472962 302.50629 
L 326.683804 301.741529 
L 326.725973 301.741529 
L 326.852478 301.447389 
L 326.894647 301.565045 
L 326.936815 301.388562 
L 326.978984 301.506217 
L 327.189826 300.506144 
L 327.231994 300.564972 
L 327.442837 301.388562 
L 327.569342 301.565045 
L 327.611511 301.506217 
L 327.653679 301.447389 
L 327.695848 301.623873 
L 327.780185 301.506217 
L 328.244038 302.329807 
L 328.370543 302.50629 
L 328.45488 302.447463 
L 328.623554 302.212151 
L 328.918733 302.682774 
L 329.00307 302.918085 
L 329.045239 302.859257 
L 329.256081 303.212224 
L 329.382586 303.212224 
L 329.424755 303.32988 
L 329.466923 303.212224 
L 329.509092 303.153397 
L 329.55126 303.271052 
L 329.804271 303.800503 
L 330.057282 304.271126 
L 330.099451 304.271126 
L 330.39463 304.859404 
L 330.563304 304.624093 
L 330.647641 304.624093 
L 330.689809 304.506437 
L 330.731978 304.565265 
L 331.069325 304.859404 
L 331.280168 304.918232 
L 331.448842 305.094715 
L 331.49101 305.035887 
L 331.533179 305.035887 
L 331.575347 304.918232 
L 331.617516 305.035887 
L 332.460885 306.035961 
L 332.545222 306.094789 
L 332.671727 304.97706 
L 332.756064 305.212371 
L 333.051244 306.035961 
L 333.472928 306.035961 
L 333.599434 305.859477 
L 333.810276 306.153616 
L 333.852445 306.094789 
L 333.97895 306.271272 
L 334.063287 306.271272 
L 334.189792 306.506583 
L 334.231961 306.447756 
L 334.316298 306.506583 
L 334.52714 306.624239 
L 334.569309 306.565411 
L 334.611477 306.741895 
L 334.695814 306.683067 
L 334.780151 306.741895 
L 334.822319 306.565411 
L 334.864488 306.741895 
L 335.117499 307.859624 
L 335.244004 307.800796 
L 335.328341 307.565484 
L 335.37051 307.918451 
L 335.412678 307.624312 
L 335.454847 307.506657 
L 335.497015 307.624312 
L 335.539183 307.624312 
L 335.62352 307.389001 
L 335.665689 307.447829 
L 335.707857 307.447829 
L 335.876531 307.212517 
L 336.087374 307.506657 
L 336.129542 307.447829 
L 336.256048 307.800796 
L 336.298216 307.741968 
L 336.340384 307.918451 
L 336.424721 307.859624 
L 336.635564 307.036034 
L 336.762069 307.330173 
L 336.972912 307.212517 
L 337.141585 307.741968 
L 337.268091 307.447829 
L 337.352428 307.506657 
L 337.394596 307.447829 
L 337.605439 307.506657 
L 337.731944 307.624312 
L 337.900618 307.094862 
L 337.984955 304.97706 
L 338.153629 302.270979 
L 338.364471 301.800356 
L 338.448808 301.035595 
L 338.786156 298.623653 
L 338.912661 297.858891 
L 339.039167 295.858745 
L 339.292178 285.38739 
L 339.50302 272.680577 
L 339.545188 272.915888 
L 339.671694 276.622042 
L 340.093379 290.917206 
L 340.557232 297.388269 
L 340.936748 299.80021 
L 340.978916 299.80021 
L 341.653612 302.153323 
L 341.69578 302.153323 
L 341.906623 302.682774 
L 341.948791 302.623946 
L 342.201802 292.387902 
L 342.328308 293.211492 
L 342.412645 293.740943 
L 342.454813 293.564459 
L 342.53915 292.858525 
L 342.707824 291.211346 
L 342.834329 291.799624 
L 343.045172 293.035009 
L 343.171677 293.387976 
L 343.382519 293.740943 
L 343.424688 293.682115 
L 344.774079 300.682627 
L 344.816247 300.682627 
L 344.942753 301.15325 
L 344.984921 301.15325 
L 345.406606 302.035668 
L 345.490943 301.918012 
L 345.533111 301.97684 
L 345.617448 301.918012 
L 345.786122 302.212151 
L 346.039133 301.800356 
L 346.081302 301.859184 
L 346.12347 301.800356 
L 346.165639 301.741529 
L 346.207807 301.800356 
L 346.545155 302.212151 
L 346.629492 301.97684 
L 346.67166 302.153323 
L 346.755997 302.153323 
L 346.96684 302.565118 
L 347.051176 302.50629 
L 347.21985 302.80043 
L 347.262019 302.80043 
L 347.599367 303.506364 
L 347.641535 303.447536 
L 347.810209 303.918159 
L 347.936714 303.918159 
L 347.978883 304.094642 
L 348.021051 303.918159 
L 348.06322 303.859331 
L 348.274062 304.271126 
L 348.442736 304.506437 
L 348.527073 304.565265 
L 349.117432 305.271199 
L 349.201769 305.212371 
L 349.328274 302.80043 
L 349.370442 303.094569 
L 349.70779 306.035961 
L 349.792127 306.212444 
L 349.876464 306.035961 
L 349.918633 306.153616 
L 350.045138 306.506583 
L 350.171643 306.506583 
L 350.25598 306.624239 
L 350.382486 306.388928 
L 350.55116 306.800723 
L 350.593328 306.741895 
L 350.635497 306.800723 
L 350.804171 306.977206 
L 350.930676 306.741895 
L 350.972844 306.800723 
L 351.015013 306.741895 
L 351.057181 306.800723 
L 351.268024 306.918378 
L 351.310192 306.918378 
L 351.436698 306.683067 
L 351.478866 306.741895 
L 351.605372 306.85955 
L 351.64754 306.741895 
L 351.689708 306.800723 
L 351.858382 307.036034 
L 351.984888 306.918378 
L 352.74392 307.918451 
L 352.912594 307.68314 
L 353.081268 307.918451 
L 353.755964 307.977279 
L 353.882469 308.153763 
L 354.051143 307.918451 
L 355.105355 307.859624 
L 355.274029 306.741895 
L 355.316197 306.85955 
L 355.864387 305.624166 
L 355.990893 305.624166 
L 356.07523 305.859477 
L 356.117398 305.741821 
L 356.201735 305.859477 
L 356.707757 303.447536 
L 357.129441 296.505851 
L 357.213778 296.917646 
L 357.340284 298.211858 
L 357.466789 291.740796 
L 357.7198 266.915449 
L 357.804137 268.268489 
L 358.394496 290.093617 
L 358.900517 296.27054 
L 359.280034 298.97662 
L 359.448707 300.153177 
L 359.701718 301.741529 
L 360.123403 303.035741 
L 361.008941 305.271199 
L 361.051109 305.153543 
L 361.135446 305.212371 
L 361.219783 305.153543 
L 361.472794 305.741821 
L 362.063153 306.683067 
L 362.105321 306.447756 
L 362.189658 306.271272 
L 362.484837 307.094862 
L 362.611343 307.036034 
L 362.69568 307.271345 
L 362.737848 307.15369 
L 362.822185 307.212517 
L 362.990859 307.036034 
L 363.075196 306.977206 
L 363.117365 307.036034 
L 363.581218 307.565484 
L 363.665555 307.447829 
L 363.707723 307.506657 
L 363.960734 307.68314 
L 364.171576 307.624312 
L 364.34025 307.447829 
L 364.508924 307.506657 
L 364.930609 307.918451 
L 365.816147 307.977279 
L 365.984821 308.153763 
L 366.026989 308.153763 
L 366.195663 307.918451 
L 367.545054 307.859624 
L 368.051076 306.506583 
L 368.093244 306.683067 
L 368.135413 306.506583 
L 368.346255 306.3301 
L 368.76794 307.036034 
L 368.810108 307.212517 
L 368.894445 307.094862 
L 368.978782 307.036034 
L 369.147456 306.683067 
L 369.400467 306.035961 
L 369.526972 306.094789 
L 369.737815 306.506583 
L 370.075163 307.918451 
L 370.201668 307.918451 
L 370.876364 307.918451 
L 371.045037 308.153763 
L 371.340217 307.918451 
L 372.014912 307.977279 
L 372.099249 308.094935 
L 372.141418 307.977279 
L 372.310092 307.918451 
L 375.557064 307.918451 
L 375.599232 307.447829 
L 375.852243 279.916401 
L 375.93658 282.504826 
L 376.400433 299.564899 
L 376.695613 303.271052 
L 377.075129 305.565338 
L 377.201634 306.3301 
L 377.243803 306.094789 
L 377.412477 304.97706 
L 377.581151 305.330027 
L 377.749825 305.565338 
L 377.87633 304.97706 
L 378.002835 302.565118 
L 378.382352 295.741089 
L 378.42452 295.682261 
L 378.466689 295.799917 
L 378.677531 296.27054 
L 378.846205 295.741089 
L 378.888373 295.917573 
L 379.099216 297.094129 
L 379.352227 299.270759 
L 379.731743 301.15325 
L 379.773911 301.15325 
L 379.900417 301.270906 
L 380.026922 300.976767 
L 380.069091 301.035595 
L 380.322101 301.506217 
L 380.532944 302.270979 
L 380.575112 302.212151 
L 380.617281 302.329807 
L 380.870292 303.565192 
L 380.996797 303.741675 
L 381.123302 303.212224 
L 381.165471 303.388708 
L 381.291976 303.918159 
L 381.502819 305.153543 
L 381.924503 306.035961 
L 381.966672 306.094789 
L 382.00884 305.565338 
L 382.135346 300.976767 
L 382.177514 301.270906 
L 382.472693 304.447609 
L 382.514862 304.329953 
L 382.599199 302.565118 
L 383.020884 289.446511 
L 383.147389 290.623067 
L 383.189558 289.74065 
L 383.231726 289.917133 
L 383.526905 295.093983 
L 384.328106 302.329807 
L 384.370275 302.094496 
L 384.412443 300.564972 
L 384.454612 301.035595 
L 384.707623 303.035741 
L 384.960633 304.035814 
L 385.129307 304.329953 
L 385.171476 304.212298 
L 385.382318 302.50629 
L 385.508824 298.97662 
L 385.761834 285.38739 
L 385.804003 285.799185 
L 385.930508 287.681675 
L 385.972677 287.387536 
L 386.057014 280.387024 
L 386.267856 257.855962 
L 386.394361 262.26805 
L 386.605204 270.327463 
L 386.647372 269.033251 
L 386.773878 263.738746 
L 386.816046 264.091713 
L 387.069057 273.739478 
L 387.448573 283.21076 
L 387.785921 288.09347 
L 387.870258 288.387609 
L 387.954595 286.387463 
L 388.165437 279.975229 
L 388.207606 280.092884 
L 388.334111 281.622408 
L 388.755796 287.093397 
L 389.008807 289.093544 
L 389.388323 292.976181 
L 389.810008 295.623433 
L 390.400366 298.329514 
L 391.032893 300.506144 
L 391.075062 300.564972 
L 391.11723 300.094349 
L 391.159399 300.564972 
L 391.201567 300.6238 
L 391.328073 301.094422 
L 391.370241 301.035595 
L 391.538915 301.447389 
L 391.581084 301.329734 
L 391.66542 301.035595 
L 392.213611 298.094203 
L 392.255779 298.15303 
L 392.424453 298.094203 
L 392.888306 299.682554 
L 392.930475 299.682554 
L 393.05698 299.976693 
L 393.099149 299.859038 
L 393.183486 299.917866 
L 393.309991 299.859038 
L 393.352159 300.035521 
L 393.436496 299.976693 
L 393.689507 300.153177 
L 393.731676 300.035521 
L 393.773844 300.094349 
L 394.15336 300.976767 
L 394.195529 300.917939 
L 394.743719 302.80043 
L 394.912393 303.212224 
L 395.207572 304.15347 
L 395.291909 304.094642 
L 395.334078 304.15347 
L 395.924436 305.565338 
L 396.008773 305.565338 
L 396.346121 306.271272 
L 396.809974 306.3301 
L 396.852143 306.506583 
L 396.93648 306.388928 
L 397.062985 306.447756 
L 397.273827 306.741895 
L 397.569007 306.977206 
L 397.611175 306.977206 
L 397.948523 307.918451 
L 398.328039 307.977279 
L 398.412376 308.153763 
L 398.538882 307.918451 
L 398.918398 307.918451 
L 398.960566 307.447829 
L 399.002735 307.859624 
L 399.171409 307.918451 
L 399.255746 307.918451 
L 399.297914 308.036107 
L 399.340083 307.977279 
L 399.508756 307.918451 
L 400.309957 307.918451 
L 400.394294 308.094935 
L 400.5208 307.918451 
L 402.291876 307.918451 
L 402.334044 308.153763 
L 402.376213 308.094935 
L 402.502718 307.918451 
L 403.388256 307.918451 
L 403.430424 308.036107 
L 403.472593 307.918451 
L 405.032826 307.918451 
L 405.243669 304.388781 
L 405.285837 304.447609 
L 405.581016 305.800649 
L 405.623185 305.741821 
L 405.74969 305.741821 
L 406.04487 306.271272 
L 406.213544 306.741895 
L 406.29788 306.741895 
L 406.424386 306.506583 
L 406.550891 306.683067 
L 406.719565 306.741895 
L 406.888239 306.977206 
L 406.930408 306.85955 
L 406.972576 306.565411 
L 407.056913 306.741895 
L 407.099081 306.741895 
L 407.267755 307.624312 
L 407.309924 307.565484 
L 407.394261 307.859624 
L 407.520766 308.153763 
L 407.68944 307.918451 
L 408.279799 307.918451 
L 408.364136 308.094935 
L 408.490641 307.918451 
L 408.78582 307.918451 
L 408.827989 307.800796 
L 409.038831 306.3301 
L 409.376179 306.035961 
L 409.62919 306.506583 
L 409.671358 306.447756 
L 409.797864 306.741895 
L 410.261717 306.800723 
L 410.430391 307.036034 
L 410.472559 306.977206 
L 410.514728 307.036034 
L 410.641233 307.624312 
L 410.809907 307.506657 
L 410.894244 307.624312 
L 410.936412 307.565484 
L 410.978581 307.447829 
L 411.020749 307.506657 
L 411.105086 307.565484 
L 411.147255 307.506657 
L 411.56894 307.565484 
L 411.864119 307.918451 
L 411.948456 307.506657 
L 411.990624 307.741968 
L 412.243635 307.918451 
L 412.454477 307.977279 
L 412.538814 308.153763 
L 412.749657 307.330173 
L 412.833994 281.328269 
L 413.340015 134.435159 
L 413.719532 120.434134 
L 413.803869 120.610617 
L 413.888206 122.375452 
L 414.014711 133.846881 
L 414.30989 190.498088 
L 414.394227 186.144828 
L 414.520733 171.261385 
L 414.85808 129.140654 
L 415.15326 113.72776 
L 415.279765 112.021753 
L 415.364102 114.257211 
L 415.490608 127.964097 
L 415.954461 207.322849 
L 415.996629 206.087465 
L 416.165303 196.086733 
L 416.671325 122.551936 
L 416.882167 115.786734 
L 416.924336 116.022046 
L 417.008673 119.257577 
L 417.177346 138.788419 
L 417.725537 210.02893 
L 418.147221 229.500944 
L 418.568906 240.50175 
L 418.864085 245.031493 
L 418.906254 244.796182 
L 419.159265 241.795962 
L 419.28577 242.501896 
L 419.370107 239.736988 
L 419.538781 222.382776 
L 419.876129 169.261239 
L 419.918297 169.849517 
L 420.086971 185.791861 
L 420.466487 221.500358 
L 420.803835 235.3249 
L 421.309857 247.796402 
L 421.815878 256.679405 
L 422.026721 259.679625 
L 422.659248 267.739039 
L 424.388155 281.328269 
L 424.936345 284.387317 
L 425.526704 287.211053 
L 425.653209 287.56402 
L 426.876095 292.329075 
L 426.960432 292.387902 
L 427.171274 293.152664 
L 427.213443 293.152664 
L 427.382117 293.623287 
L 427.424285 293.623287 
L 427.635128 294.270393 
L 427.677296 294.329221 
L 427.719465 294.270393 
L 428.014644 293.564459 
L 428.141149 290.623067 
L 428.39416 282.622481 
L 428.562834 267.033104 
L 428.731508 212.382044 
L 428.984519 131.846734 
L 429.448372 97.608933 
L 429.78572 89.549519 
L 429.827888 89.608347 
L 429.954394 92.549739 
L 430.123067 106.844903 
L 430.460415 176.614718 
L 430.755595 214.323362 
L 431.219448 233.207098 
L 431.894143 250.208343 
L 433.074861 265.209442 
L 433.91823 272.386438 
L 433.960399 272.680577 
L 434.002567 272.621749 
L 434.086904 272.209954 
L 434.129072 272.386438 
L 434.171241 272.739405 
L 434.213409 272.151126 
L 434.297746 260.562042 
L 434.339915 261.267976 
L 434.508589 267.327244 
L 434.761599 272.915888 
L 434.803768 273.1512 
L 434.845936 270.915742 
L 435.098947 215.73523 
L 435.141116 216.382336 
L 435.478464 241.384167 
L 435.815811 255.267537 
L 436.195328 262.444533 
L 436.701349 268.739112 
L 437.207371 272.915888 
L 437.249539 272.85706 
L 437.460382 271.680504 
L 437.544719 272.092298 
L 437.713393 273.621822 
L 438.092909 277.445632 
L 438.472425 280.151712 
L 439.189289 284.446144 
L 439.315795 285.093251 
L 439.610974 286.387463 
L 440.580849 290.211272 
L 440.623017 290.093617 
L 440.665186 290.211272 
L 441.129039 292.682042 
L 441.171207 292.505558 
L 441.213376 292.623214 
L 441.508555 293.917426 
L 441.719397 294.388049 
L 441.888071 294.682188 
L 441.93024 294.62336 
L 442.141082 295.211639 
L 442.225419 295.152811 
L 442.436261 295.799917 
L 442.857946 296.682335 
L 442.900115 296.682335 
L 443.068789 296.858818 
L 443.195294 297.211785 
L 443.532642 298.388342 
L 443.743484 298.035375 
L 443.785653 298.094203 
L 443.912158 297.858891 
L 443.954327 297.800063 
L 444.038663 298.035375 
L 444.080832 297.917719 
L 444.291674 297.62358 
L 444.376011 296.035228 
L 444.629022 269.32739 
L 444.713359 271.50402 
L 445.135044 287.211053 
L 445.430223 291.329001 
L 446.020582 295.44695 
L 446.06275 295.388122 
L 446.400098 296.682335 
L 446.821783 297.741236 
L 446.90612 296.976474 
L 446.948288 297.152957 
L 447.074793 297.505924 
L 447.327804 298.505997 
L 447.412141 298.741309 
L 447.45431 298.97662 
L 447.496478 298.917792 
L 447.665152 298.270686 
L 447.707321 297.976547 
L 447.833826 284.210833 
L 447.918163 243.619625 
L 448.171174 124.728566 
L 448.424185 108.139116 
L 448.55069 106.844903 
L 448.592858 107.080215 
L 448.635027 107.315526 
L 448.803701 110.904024 
L 448.845869 110.256918 
L 448.930206 109.609812 
L 448.972375 109.845123 
L 449.014543 109.845123 
L 449.056712 109.727467 
L 449.267554 105.138896 
L 450.068755 83.902047 
L 450.743451 75.195527 
L 450.869956 76.901534 
L 451.03863 83.960874 
L 451.291641 103.609372 
L 451.58682 147.377283 
L 452.008505 203.793179 
L 452.388021 220.735596 
L 453.020548 237.383874 
L 454.454276 257.797134 
L 455.128972 263.444606 
L 455.297646 264.856474 
L 455.592825 267.327244 
L 455.761499 268.5038 
L 456.267521 272.092298 
L 456.309689 272.151126 
L 456.604868 274.386584 
L 457.448238 278.328049 
L 457.743417 279.622262 
L 457.869922 280.092884 
L 457.954259 280.034057 
L 457.996428 280.034057 
L 459.345819 285.269734 
L 459.387987 285.269734 
L 459.978346 287.328708 
L 460.020515 287.328708 
L 460.231357 287.916987 
L 460.273525 287.740503 
L 460.315694 287.858159 
L 460.610873 289.152371 
L 460.737379 289.446511 
L 460.948221 289.328855 
L 461.159063 289.917133 
L 461.2434 290.093617 
L 461.622917 291.858452 
L 461.918096 290.446584 
L 462.255444 285.681529 
L 462.297612 285.563873 
L 462.508454 284.269661 
L 462.930139 282.034203 
L 463.225318 276.151419 
L 463.309655 276.857353 
L 463.73134 283.975522 
L 464.27953 287.740503 
L 464.82772 290.093617 
L 464.869889 289.917133 
L 465.375911 283.622555 
L 465.544584 268.327317 
L 465.924101 213.911567 
L 466.134943 183.791715 
L 466.177112 183.674059 
L 466.261449 186.90959 
L 466.851807 223.853472 
L 466.893976 223.441677 
L 467.062649 213.735084 
L 467.189155 207.911128 
L 467.231323 208.146439 
L 467.357829 214.558673 
L 467.821682 240.795889 
L 468.15903 248.972958 
L 468.875894 260.267903 
L 469.466252 266.091859 
L 469.930106 270.209808 
L 470.225285 272.445266 
L 470.984317 276.975009 
L 471.574676 279.68109 
L 472.797562 284.387317 
L 472.924067 284.740284 
L 473.556594 286.269807 
L 473.598763 286.210979 
L 473.893942 287.034569 
L 474.020447 287.093397 
L 474.189121 287.740503 
L 474.399964 288.858232 
L 474.442132 288.799404 
L 474.652975 289.328855 
L 474.77948 287.799331 
L 474.905985 288.034642 
L 475.158996 288.446437 
L 475.201165 288.211126 
L 475.243333 288.446437 
L 475.622849 289.799478 
L 476.044534 291.681968 
L 476.086703 291.505485 
L 476.128871 291.623141 
L 476.634893 292.505558 
L 476.972241 293.976254 
L 477.014409 293.976254 
L 477.351757 294.976327 
L 477.857778 295.799917 
L 478.026452 296.388195 
L 478.068621 296.27054 
L 478.110789 296.447023 
L 478.237295 296.623507 
L 478.405969 296.858818 
L 478.448137 296.741162 
L 478.490306 296.858818 
L 478.574643 296.858818 
L 478.701148 297.152957 
L 478.827653 297.035302 
L 479.038496 297.447096 
L 479.333675 298.035375 
L 479.502349 298.211858 
L 479.628854 298.270686 
L 479.839697 298.564825 
L 479.881865 298.564825 
L 479.966202 298.741309 
L 480.008371 298.623653 
L 480.050539 298.741309 
L 480.092708 298.682481 
L 480.134876 298.623653 
L 480.345718 299.094276 
L 480.387887 299.035448 
L 480.430055 299.211932 
L 480.514392 294.62336 
L 480.598729 294.917499 
L 480.85174 295.9764 
L 480.893908 295.9764 
L 481.062582 295.505778 
L 481.146919 295.741089 
L 481.610773 297.917719 
L 481.737278 297.917719 
L 481.94812 298.113812 
L 482.201131 297.035302 
L 482.2433 297.094129 
L 482.49631 297.564752 
L 482.960164 299.094276 
L 483.044501 299.329587 
L 483.33968 300.153177 
L 483.381848 300.153177 
L 483.466185 300.270833 
L 483.508354 300.153177 
L 483.634859 300.388488 
L 484.056544 301.15325 
L 484.309555 301.859184 
L 484.351723 301.800356 
L 484.393892 301.859184 
L 484.562566 302.153323 
L 484.604734 302.153323 
L 484.815576 302.682774 
L 484.857745 302.50629 
L 484.899913 302.741602 
L 485.068587 302.80043 
L 485.321598 303.212224 
L 485.53244 303.271052 
L 485.743283 303.506364 
L 485.82762 303.565192 
L 485.869788 303.32988 
L 485.911957 303.447536 
L 485.954125 303.388708 
L 485.996294 303.32988 
L 486.038462 303.388708 
L 486.207136 303.565192 
L 486.544484 303.976986 
L 486.586652 303.741675 
L 486.628821 303.976986 
L 486.670989 303.918159 
L 486.881832 304.565265 
L 486.924 304.506437 
L 487.050505 304.68292 
L 487.092674 304.624093 
L 487.387853 303.918159 
L 487.430022 304.035814 
L 487.76737 302.388635 
L 487.809538 302.447463 
L 487.851706 302.329807 
L 488.104717 301.918012 
L 488.357728 300.447316 
L 488.442065 300.035521 
L 488.652907 297.741236 
L 488.948087 294.035082 
L 489.369771 295.799917 
L 490.297478 299.211932 
L 490.381815 299.270759 
L 490.676994 299.682554 
L 490.845668 300.212005 
L 491.942048 301.859184 
L 492.152891 302.388635 
L 492.195059 302.270979 
L 492.237228 302.50629 
L 492.321565 302.388635 
L 492.490238 302.623946 
L 492.743249 303.035741 
L 492.827586 303.212224 
L 492.869755 302.976913 
L 492.911923 303.153397 
L 493.122766 303.447536 
L 493.164934 303.271052 
L 493.207102 303.565192 
L 493.249271 303.447536 
L 493.291439 303.624019 
L 493.375776 303.682847 
L 493.713124 304.15347 
L 493.966135 304.094642 
L 494.008303 304.15347 
L 494.134809 303.741675 
L 494.176977 303.800503 
L 494.303483 303.506364 
L 494.345651 303.682847 
L 494.472157 303.624019 
L 494.556494 303.682847 
L 494.598662 303.624019 
L 494.809504 303.388708 
L 494.93601 303.624019 
L 495.020347 303.447536 
L 495.062515 303.506364 
L 495.146852 303.624019 
L 495.189021 303.565192 
L 495.948053 302.50629 
L 496.116727 302.741602 
L 496.158896 302.682774 
L 496.327569 302.918085 
L 496.411906 302.976913 
L 496.538412 303.32988 
L 496.58058 303.447536 
L 496.622749 303.32988 
L 496.664917 303.32988 
L 496.791423 303.624019 
L 496.833591 303.565192 
L 497.086602 303.859331 
L 497.12877 303.741675 
L 497.170939 303.859331 
L 497.255276 303.859331 
L 497.339613 303.682847 
L 497.381781 303.800503 
L 497.592624 304.447609 
L 497.676961 304.388781 
L 497.845634 304.212298 
L 497.887803 304.329953 
L 497.929971 304.15347 
L 497.97214 304.271126 
L 498.014308 304.329953 
L 498.056477 304.212298 
L 498.098645 304.212298 
L 498.182982 304.388781 
L 498.225151 304.329953 
L 498.267319 304.271126 
L 498.435993 304.624093 
L 498.646835 304.918232 
L 498.857678 305.035887 
L 498.899846 304.918232 
L 499.026352 305.330027 
L 499.06852 305.212371 
L 499.110689 305.330027 
L 499.279363 305.50651 
L 499.321531 305.447682 
L 499.490205 305.153543 
L 499.658879 305.330027 
L 500.1649 305.330027 
L 500.333574 305.565338 
L 500.755259 305.624166 
L 500.881765 305.741821 
L 500.966101 305.682994 
L 501.00827 305.565338 
L 501.050438 305.624166 
L 501.261281 305.859477 
L 501.303449 305.800649 
L 501.345618 305.800649 
L 501.472123 305.565338 
L 501.598629 305.565338 
L 501.851639 303.859331 
L 502.020313 303.918159 
L 502.441998 302.976913 
L 502.821514 302.918085 
L 502.94802 302.388635 
L 503.327536 298.917792 
L 503.707052 300.270833 
L 504.0444 301.329734 
L 504.086568 301.329734 
L 504.213074 301.565045 
L 504.297411 301.800356 
L 504.59259 302.623946 
L 504.634759 302.623946 
L 505.098612 303.624019 
L 505.182949 303.682847 
L 505.43596 304.212298 
L 505.478128 304.15347 
L 505.520296 304.271126 
L 505.68897 304.329953 
L 505.98415 304.741748 
L 506.026318 304.68292 
L 506.110655 304.624093 
L 506.152824 304.68292 
L 506.363666 304.859404 
L 506.490171 304.859404 
L 506.53234 304.97706 
L 506.574508 304.918232 
L 506.616677 304.859404 
L 506.827519 305.094715 
L 506.954025 305.153543 
L 506.996193 305.271199 
L 507.038361 305.212371 
L 507.291372 304.97706 
L 507.333541 305.094715 
L 507.417878 305.016278 
L 507.881731 305.153543 
L 507.923899 305.094715 
L 507.966068 305.212371 
L 508.134742 305.388854 
L 508.17691 305.388854 
L 508.345584 305.565338 
L 508.429921 305.565338 
L 508.556427 305.447682 
L 508.767269 305.50651 
L 509.02028 305.741821 
L 509.062448 305.624166 
L 509.104617 305.800649 
L 509.146785 305.682994 
L 509.357627 305.800649 
L 509.484133 305.741821 
L 509.779312 306.035961 
L 509.863649 305.50651 
L 509.905818 305.741821 
L 510.243165 306.035961 
L 510.369671 306.094789 
L 510.496176 306.3301 
L 510.538345 306.271272 
L 510.580513 306.3301 
L 510.707019 306.388928 
L 510.833524 306.3301 
L 510.960029 306.388928 
L 511.002198 306.3301 
L 511.044366 306.388928 
L 511.128703 306.506583 
L 511.170872 306.447756 
L 511.339546 306.271272 
L 511.634725 306.506583 
L 511.845567 306.506583 
L 512.098578 305.565338 
L 512.140747 305.565338 
L 512.646768 302.80043 
L 512.688937 302.682774 
L 512.731105 302.741602 
L 512.941948 303.32988 
L 513.068453 303.506364 
L 513.279295 303.094569 
L 513.363632 301.918012 
L 513.532306 294.152738 
L 513.70098 290.446584 
L 513.827486 292.152591 
L 514.24917 297.682408 
L 514.881697 299.917866 
L 515.008203 300.153177 
L 515.176877 300.6238 
L 515.219045 300.6238 
L 515.429888 301.212078 
L 515.935909 301.859184 
L 515.978078 301.741529 
L 516.062415 301.800356 
L 516.231089 301.859184 
L 516.441931 302.035668 
L 516.568436 301.918012 
L 516.610605 301.97684 
L 516.652773 302.035668 
L 516.694942 301.97684 
L 516.821447 301.918012 
L 516.863616 302.035668 
L 516.947953 301.97684 
L 517.622648 302.976913 
L 517.706985 302.859257 
L 517.917827 303.035741 
L 518.002164 302.859257 
L 518.12867 303.212224 
L 518.170838 303.094569 
L 518.213007 303.094569 
L 518.423849 303.624019 
L 518.466018 303.624019 
L 518.508186 303.506364 
L 518.550355 303.624019 
L 518.67686 303.859331 
L 518.803365 304.15347 
L 518.887702 304.15347 
L 518.929871 304.271126 
L 519.014208 304.212298 
L 519.182882 304.035814 
L 519.22505 304.094642 
L 519.520229 304.329953 
L 519.688903 304.388781 
L 520.237093 304.97706 
L 520.279262 304.97706 
L 520.447936 305.153543 
L 520.574441 305.094715 
L 520.658778 305.330027 
L 520.700947 305.271199 
L 520.743115 305.271199 
L 520.785284 305.153543 
L 520.827452 305.330027 
L 520.953957 305.330027 
L 521.249137 305.388854 
L 521.459979 305.50651 
L 521.628653 305.565338 
L 522.429854 306.035961 
L 522.598528 305.918305 
L 522.725033 306.035961 
L 522.80937 305.977133 
L 522.893707 304.035814 
L 522.935876 304.094642 
L 523.188887 305.977133 
L 523.35756 306.388928 
L 523.399729 306.3301 
L 523.441897 306.3301 
L 523.568403 306.035961 
L 523.610571 305.977133 
L 523.65274 305.643775 
L 523.737077 305.859477 
L 523.947919 306.271272 
L 523.990087 306.153616 
L 524.032256 306.271272 
L 524.074424 306.388928 
L 524.158761 306.3301 
L 524.369604 305.800649 
L 524.453941 305.800649 
L 524.664783 306.271272 
L 524.706952 306.212444 
L 524.74912 306.271272 
L 525.002131 306.506583 
L 525.128636 306.506583 
L 525.381647 306.741895 
L 525.508152 306.683067 
L 525.718995 305.918305 
L 525.8455 306.035961 
L 525.887669 306.035961 
L 525.929837 305.918305 
L 525.972006 305.977133 
L 526.098511 306.035961 
L 526.14068 305.918305 
L 526.309353 306.506583 
L 526.604533 306.506583 
L 526.815375 305.447682 
L 527.068386 305.094715 
L 527.700913 303.153397 
L 527.827418 301.329734 
L 528.206935 293.976254 
L 528.33344 293.79977 
L 528.755125 296.701944 
L 529.134641 299.153104 
L 530.104516 301.623873 
L 530.146684 301.623873 
L 530.315358 301.97684 
L 530.610538 302.270979 
L 530.694875 302.153323 
L 530.737043 302.270979 
L 530.990054 302.741602 
L 531.032222 302.741602 
L 531.158728 302.918085 
L 531.200896 302.859257 
L 531.36957 303.153397 
L 531.411739 303.153397 
L 531.453907 303.035741 
L 531.496076 303.212224 
L 531.538244 303.212224 
L 531.580413 303.094569 
L 531.622581 303.212224 
L 531.664749 303.212224 
L 531.706918 302.976913 
L 531.959929 298.15303 
L 532.255108 293.858598 
L 532.592456 285.38739 
L 532.718961 278.03391 
L 532.971972 259.385486 
L 533.098478 261.797427 
L 533.646668 276.445558 
L 534.237026 282.622481 
L 535.375575 288.387609 
L 535.417744 288.387609 
L 535.965934 290.917206 
L 536.008102 290.917206 
L 536.218945 291.505485 
L 536.598461 292.799697 
L 536.767135 293.211492 
L 536.977977 293.623287 
L 537.104482 293.858598 
L 537.273156 293.917426 
L 537.315325 293.917426 
L 537.483999 293.446803 
L 537.526167 293.446803 
L 537.905683 289.328855 
L 538.243031 288.269954 
L 538.496042 289.446511 
L 538.538211 289.387683 
L 538.580379 289.446511 
L 538.664716 287.505192 
L 539.044232 267.268416 
L 539.423748 246.913984 
L 539.718928 228.442043 
L 539.803265 229.559772 
L 540.646634 259.561969 
L 541.152656 267.091932 
L 542.164699 274.798379 
L 542.206868 274.798379 
L 542.41771 276.033764 
L 542.544215 276.327903 
L 543.303248 280.034057 
L 543.429753 280.387024 
L 543.682764 281.740064 
L 543.851438 282.445998 
L 544.441797 285.210906 
L 544.483965 285.152078 
L 544.526134 285.485436 
L 544.568302 285.152078 
L 544.610471 284.916767 
L 544.652639 285.093251 
L 545.242998 287.858159 
L 545.664682 288.740576 
L 545.917693 289.211199 
L 546.128536 289.681822 
L 546.381546 290.152445 
L 546.55022 290.505412 
L 546.592389 290.505412 
L 546.718894 290.740723 
L 546.8454 290.799551 
L 547.267084 292.093763 
L 547.351421 291.976108 
L 547.39359 291.976108 
L 547.562264 292.623214 
L 547.604432 292.564386 
L 547.646601 292.564386 
L 547.815274 293.093836 
L 547.899611 293.152664 
L 548.110454 293.623287 
L 548.152622 293.564459 
L 548.236959 293.035009 
L 548.279128 293.152664 
L 548.321296 293.152664 
L 548.405633 290.034789 
L 548.532139 280.857646 
L 548.574307 281.151785 
L 548.953823 294.211565 
L 549.122497 294.858672 
L 549.33334 295.211639 
L 549.502013 295.917573 
L 549.58635 295.329294 
L 549.670687 293.093836 
L 549.839361 271.209881 
L 550.050204 237.795669 
L 550.303214 206.911055 
L 550.42972 191.027539 
L 550.724899 140.435598 
L 551.230921 105.962486 
L 551.441763 101.020947 
L 551.483932 101.079775 
L 551.568269 102.962266 
L 551.694774 114.021899 
L 552.411638 210.264241 
L 552.875491 224.853545 
L 553.339344 235.442556 
L 553.423681 234.677794 
L 553.46585 233.560065 
L 553.845366 163.672594 
L 554.182714 125.610983 
L 554.646567 101.079775 
L 554.899578 94.726369 
L 555.11042 93.549812 
L 555.363431 94.255746 
L 555.447768 94.020435 
L 555.532105 94.255746 
L 555.65861 93.726295 
L 555.785116 94.726369 
L 555.911621 98.550178 
L 556.080295 112.433548 
L 556.881496 199.96937 
L 557.345349 212.793838 
L 558.188719 229.147977 
L 558.357393 228.324387 
L 558.568235 226.794864 
L 558.779077 225.912446 
L 558.905583 225.618307 
L 558.947751 225.324168 
L 559.032088 225.441823 
L 559.158594 226.912519 
L 559.791121 240.50175 
L 559.833289 240.50175 
L 560.212805 246.149222 
L 560.63449 250.56131 
L 560.676659 250.502482 
L 560.887501 252.267317 
L 561.056175 253.208563 
L 561.140512 253.914497 
L 561.18268 253.855669 
L 561.309186 252.032006 
L 561.604365 236.67794 
L 562.152555 182.673986 
L 562.194724 183.08578 
L 562.279061 185.380066 
L 562.995925 226.147757 
L 564.134473 246.031567 
L 564.176642 245.737427 
L 564.387484 246.561017 
L 564.809169 251.267244 
L 564.851337 251.090761 
L 565.020011 251.620211 
L 565.06218 251.208416 
L 565.104348 251.502555 
L 565.357359 254.032152 
L 565.989886 257.032372 
L 566.242897 258.914863 
L 566.411571 259.738453 
L 566.580245 260.856182 
L 566.622413 260.797354 
L 566.875424 263.150467 
L 566.917593 263.032812 
L 567.086266 264.209368 
L 567.212772 265.209442 
L 567.25494 265.091786 
L 567.297109 265.150614 
L 567.507951 266.444826 
L 567.634457 266.856621 
L 567.718794 266.444826 
L 567.760962 266.62131 
L 567.80313 266.680137 
L 567.845299 266.562482 
L 568.056141 260.562042 
L 568.182647 247.149295 
L 568.393489 190.43926 
L 568.6465 132.787979 
L 568.983848 106.138969 
L 569.363364 93.079189 
L 569.489869 92.373255 
L 569.658543 98.256039 
L 569.827217 119.198749 
L 570.333239 199.028124 
L 570.628418 212.323216 
L 570.923597 220.559113 
L 571.345282 228.79501 
L 572.23082 237.619186 
L 572.272989 237.619186 
L 572.483831 240.678233 
L 572.568168 240.560578 
L 572.77901 241.737134 
L 572.821179 241.501823 
L 572.863347 241.795962 
L 573.453706 246.384534 
L 573.62238 247.914057 
L 573.664548 247.972885 
L 573.959727 250.384826 
L 574.297075 252.620284 
L 574.592255 254.855742 
L 574.634423 254.502775 
L 574.803097 255.73816 
L 574.929602 256.326438 
L 574.971771 256.208782 
L 575.26695 258.385412 
L 575.309119 258.44424 
L 575.519961 259.620797 
L 575.562129 259.620797 
L 575.604298 259.79728 
L 575.646466 260.562042 
L 575.688635 260.09142 
L 575.730803 260.032592 
L 575.81514 261.032665 
L 575.857309 260.738526 
L 575.899477 260.679698 
L 576.447667 263.62109 
L 576.489836 263.385779 
L 576.574173 263.385779 
L 576.65851 264.15054 
L 576.700678 263.915229 
L 576.911521 265.268269 
L 576.995858 265.738892 
L 577.038026 265.327097 
L 577.080194 265.856548 
L 577.2067 266.503654 
L 577.248868 266.268343 
L 577.291037 266.444826 
L 577.333205 266.562482 
L 577.501879 267.797866 
L 577.586216 267.621383 
L 577.75489 268.739112 
L 577.965732 269.621529 
L 578.345249 271.50402 
L 578.387417 271.50402 
L 578.682596 273.327683 
L 578.724765 273.033544 
L 578.893439 274.268928 
L 578.935607 274.210101 
L 578.977776 274.268928 
L 579.14645 275.445485 
L 579.188618 275.504313 
L 579.315124 275.798452 
L 579.357292 275.85728 
L 579.568134 277.327976 
L 579.610303 276.975009 
L 579.863314 277.857427 
L 579.905482 277.680943 
L 579.947651 277.563287 
L 579.989819 277.680943 
L 580.116324 278.563361 
L 580.158493 278.504533 
L 580.200661 278.210394 
L 580.24283 278.975155 
L 580.327167 278.739844 
L 580.580178 279.739917 
L 580.664515 279.38695 
L 580.706683 279.739917 
L 580.79102 279.563434 
L 580.875357 279.68109 
L 581.001862 280.328196 
L 580.959694 279.563434 
L 581.044031 280.269368 
L 581.33921 280.739991 
L 581.423547 281.445925 
L 581.465716 281.387097 
L 581.507884 281.151785 
L 581.676558 281.975375 
L 581.718726 282.151859 
L 581.760895 281.975375 
L 581.803063 281.681236 
L 581.8874 282.563654 
L 581.929569 282.38717 
L 581.971737 281.975375 
L 582.013906 282.38717 
L 582.224748 283.446071 
L 582.309085 283.093104 
L 582.477759 284.034349 
L 582.519927 283.681382 
L 582.604264 284.269661 
L 582.688601 284.152005 
L 582.772938 284.210833 
L 582.941612 284.857939 
L 582.983781 284.504972 
L 583.025949 284.622628 
L 583.068118 285.034423 
L 583.110286 284.857939 
L 583.152455 284.681456 
L 583.194623 284.799111 
L 583.236791 284.857939 
L 583.447634 285.740357 
L 583.489802 285.799185 
L 583.531971 285.740357 
L 583.616308 286.210979 
L 583.658476 286.034496 
L 583.742813 286.348244 
L 583.784982 286.328635 
L 583.82715 286.034496 
L 583.911487 286.210979 
L 584.333172 287.328708 
L 584.37534 287.152225 
L 584.459677 287.681675 
L 584.501846 287.622848 
L 584.839193 288.740576 
L 585.007867 285.328562 
L 585.134373 280.975302 
L 585.176541 281.56358 
L 585.598226 289.799478 
L 585.851237 287.858159 
L 585.935574 284.210833 
L 586.104248 256.738233 
L 586.610269 139.376697 
L 586.989786 107.786149 
L 587.41147 96.961827 
L 587.580144 95.432303 
L 587.664481 95.314647 
L 588.001829 103.844683 
L 588.170503 121.140068 
L 588.80303 202.087172 
L 589.224715 217.970688 
L 590.194589 237.325047 
L 591.080127 248.208197 
L 591.248801 250.031859 
L 592.050002 258.267757 
L 592.092171 258.150101 
L 592.303013 259.914936 
L 592.809035 263.503434 
L 592.851203 263.091639 
L 592.893372 263.62109 
L 592.93554 263.444606 
L 593.062046 264.091713 
L 593.104214 263.856401 
L 593.357225 265.621236 
L 593.399393 265.503581 
L 593.610236 267.033104 
L 593.652404 266.680137 
L 593.821078 267.856694 
L 593.863247 267.444899 
L 593.905415 268.033178 
L 594.03192 269.150907 
L 594.074089 268.562628 
L 594.116257 268.915595 
L 594.158426 268.974423 
L 594.369268 270.386291 
L 594.411437 270.268636 
L 594.622279 271.151053 
L 594.664448 271.209881 
L 594.833121 271.798159 
L 595.001795 272.209954 
L 595.170469 271.562848 
L 595.549985 274.268928 
L 595.592154 274.50424 
L 595.634322 274.033617 
L 595.676491 274.50424 
L 595.802996 275.210174 
L 595.845165 275.210174 
L 596.098176 276.386731 
L 596.140344 276.327903 
L 596.224681 276.210247 
L 596.51986 277.739771 
L 596.562029 277.680943 
L 596.857208 279.151639 
L 597.06805 279.622262 
L 597.110219 279.563434 
L 597.236724 280.328196 
L 597.278893 279.975229 
L 597.321061 280.092884 
L 597.489735 281.03413 
L 597.574072 281.269441 
L 597.616241 281.56358 
L 597.658409 281.269441 
L 597.700578 281.269441 
L 597.869251 282.093031 
L 597.91142 282.093031 
L 598.080094 283.151932 
L 598.164431 282.740137 
L 598.290936 283.446071 
L 598.417442 283.034276 
L 598.501779 284.034349 
L 598.586115 283.916694 
L 598.796958 284.504972 
L 598.881295 285.034423 
L 598.923463 284.799111 
L 598.965632 284.622628 
L 599.218643 286.269807 
L 599.260811 286.210979 
L 599.30298 286.387463 
L 599.345148 286.093324 
L 599.471653 285.622701 
L 599.513822 285.740357 
L 599.682496 286.328635 
L 599.724664 286.210979 
L 599.85117 286.622774 
L 599.893338 286.328635 
L 599.935507 286.74043 
L 600.019844 286.799258 
L 600.315023 287.622848 
L 600.39936 287.505192 
L 600.441528 287.56402 
L 600.568034 287.446364 
L 600.778876 288.211126 
L 600.905381 286.387463 
L 600.989718 258.679552 
L 601.327066 151.730543 
L 601.664414 122.257797 
L 601.917425 114.021899 
L 602.04393 117.904537 
L 602.212604 144.024096 
L 602.676457 220.206146 
L 603.055974 233.795376 
L 603.688501 248.031713 
L 604.236691 254.855742 
L 604.363196 255.855815 
L 604.616207 258.679552 
L 604.658376 258.738379 
L 604.784881 259.973764 
L 604.827049 259.738453 
L 604.869218 259.620797 
L 605.037892 260.856182 
L 605.08006 260.326731 
L 606.092104 239.560504 
L 606.134272 239.560504 
L 606.176441 239.67816 
L 606.218609 234.971933 
L 606.640294 104.844757 
L 607.188484 74.724904 
L 607.525832 66.194868 
L 607.694506 64.900655 
L 607.736674 64.959483 
L 607.821011 64.547688 
L 607.863179 64.606516 
L 607.905348 64.547688 
L 607.947516 64.606516 
L 607.989685 64.724172 
L 608.158359 69.195087 
L 608.369201 80.490032 
L 608.622212 106.962559 
L 609.170402 177.908931 
L 609.423413 186.674279 
L 609.929435 208.205267 
L 610.182445 213.499772 
L 610.224614 213.323289 
L 610.308951 214.441018 
L 610.435456 209.911274 
L 611.320994 123.493181 
L 611.489668 120.081167 
L 611.531837 120.375306 
L 611.70051 129.140654 
L 612.54388 199.96937 
L 612.965565 212.20556 
L 613.007733 212.382044 
L 613.260744 218.970761 
L 613.93544 233.14827 
L 614.146282 235.736695 
L 614.441461 239.560504 
L 614.48363 239.325193 
L 614.73664 242.443068 
L 614.905314 245.031493 
L 614.989651 244.85501 
L 615.03182 246.384534 
L 615.116157 246.090394 
L 615.453505 249.561237 
L 615.495673 249.620065 
L 616.212537 255.73816 
L 616.339042 256.26761 
L 617.393254 262.856328 
L 617.51976 263.326951 
L 617.561928 263.974057 
L 617.646265 263.758355 
L 617.899276 264.97413 
L 617.983613 265.150614 
L 618.363129 267.209588 
L 618.447466 267.444899 
L 618.489635 267.091932 
L 618.531803 267.327244 
L 618.61614 267.444899 
L 618.826982 268.444973 
L 618.953488 267.680211 
L 618.995656 267.856694 
L 619.122162 268.444973 
L 619.16433 268.092006 
L 619.206499 268.327317 
L 619.375172 268.739112 
L 619.417341 268.327317 
L 619.459509 268.739112 
L 619.501678 268.856767 
L 619.543846 268.739112 
L 619.628183 268.680284 
L 619.754689 268.974423 
L 619.839026 268.739112 
L 619.923363 269.150907 
L 619.965531 269.033251 
L 620.0077 268.974423 
L 620.092037 269.621529 
L 620.134205 269.503874 
L 620.176373 269.092079 
L 620.218542 269.209734 
L 620.302879 257.679478 
L 620.851069 115.37494 
L 621.230585 94.314574 
L 621.525765 85.72571 
L 621.694438 83.725563 
L 621.736607 83.843219 
L 621.820944 85.196259 
L 621.989618 94.785197 
L 622.20046 129.434793 
L 622.664313 202.910762 
L 623.001661 216.852959 
L 623.423346 225.030029 
L 623.718525 210.558381 
L 624.182378 189.733326 
L 624.308884 188.439114 
L 624.393221 191.027539 
L 624.519726 198.439846 
L 624.899242 220.970908 
L 625.23659 229.500944 
L 625.616106 235.972006 
L 625.658275 235.972006 
L 625.953454 239.266365 
L 626.037791 239.501677 
L 626.33297 242.67838 
L 626.62815 245.855083 
L 626.670318 245.796255 
L 626.965498 248.619991 
L 627.049834 249.031786 
L 627.092003 248.972958 
L 627.302845 250.678966 
L 627.345014 250.620138 
L 627.429351 251.208416 
L 627.471519 250.737794 
L 627.513688 250.208343 
L 627.640193 237.266219 
L 627.893204 171.261385 
L 628.146215 131.434939 
L 628.483563 107.492009 
L 628.863079 97.020654 
L 628.905247 97.255966 
L 628.989584 99.020801 
L 629.11609 107.844976 
L 629.495606 169.49655 
L 629.790785 198.028051 
L 629.875122 201.793033 
L 629.917291 201.028271 
L 630.296807 196.380872 
L 630.465481 195.204315 
L 630.507649 195.557282 
L 630.549818 194.79252 
L 630.634155 194.969004 
L 630.718492 194.969004 
L 630.802829 196.322044 
L 631.393187 218.911933 
L 631.899209 230.677501 
L 633.375105 247.914057 
L 633.628116 249.267098 
L 634.134138 253.738013 
L 634.176306 253.855669 
L 634.34498 255.032226 
L 634.471486 255.326365 
L 634.555823 251.561383 
L 634.682328 220.206146 
L 634.977507 133.846881 
L 635.441361 96.432376 
L 635.863045 82.549006 
L 636.073888 80.901827 
L 636.242562 84.137358 
L 636.411235 96.197065 
L 636.664246 140.435598 
L 637.043762 198.145707 
L 637.38111 211.793765 
L 638.22448 232.442336 
L 638.561828 237.678014 
L 639.110018 245.207977 
L 639.152186 245.38446 
L 639.363028 247.737574 
L 640.41724 256.973544 
L 641.850968 264.6996 
L 641.893137 264.44468 
L 641.935305 264.856474 
L 641.977474 264.621163 
L 642.019642 264.97413 
L 642.061811 264.797647 
L 642.103979 264.915302 
L 642.314822 266.209515 
L 642.399159 265.915376 
L 642.525664 266.738965 
L 642.567832 266.503654 
L 642.610001 266.856621 
L 642.652169 266.503654 
L 642.694338 265.79772 
L 643.158191 231.854058 
L 643.537707 198.381018 
L 643.622044 200.49882 
L 644.29674 244.913838 
L 644.84493 254.679259 
L 645.182278 258.914863 
L 645.224446 258.914863 
L 645.308783 259.444313 
L 645.730468 262.326877 
L 645.772636 262.326877 
L 646.152153 264.44468 
L 646.194321 264.385852 
L 646.995522 268.150833 
L 647.03769 268.033178 
L 647.206364 269.562701 
L 647.417207 271.033397 
L 647.459375 270.798086 
L 647.501544 271.151053 
L 647.585881 271.680504 
L 647.628049 271.151053 
L 647.670218 271.327537 
L 647.712386 271.739331 
L 647.796723 271.621676 
L 647.838891 271.562848 
L 648.007565 272.32761 
L 648.134071 270.327463 
L 648.513587 258.914863 
L 648.724429 248.502336 
L 649.103946 229.736256 
L 649.188283 231.912886 
L 649.862978 252.973251 
L 649.947315 252.796768 
L 650.115989 253.404655 
L 650.242494 249.090614 
L 650.411168 245.207977 
L 650.706348 250.678966 
L 650.832853 248.678819 
L 650.875021 249.090614 
L 651.254538 258.561896 
L 651.46538 259.856108 
L 651.634054 261.091493 
L 651.676222 261.150321 
L 651.718391 261.797427 
L 651.802728 261.562116 
L 652.01357 262.856328 
L 652.055739 262.562189 
L 652.266581 264.032885 
L 652.30875 264.15054 
L 652.519592 265.444753 
L 652.899108 267.503727 
L 652.941277 267.993959 
L 653.025614 267.739039 
L 653.194287 268.327317 
L 653.447298 269.562701 
L 653.489467 269.445046 
L 653.531635 269.621529 
L 653.573804 269.562701 
L 653.658141 269.680357 
L 653.784646 270.798086 
L 653.826815 270.68043 
L 653.95332 270.817695 
L 654.121994 272.151126 
L 654.206331 272.268782 
L 654.543679 274.445412 
L 654.585847 274.445412 
L 654.670184 274.974863 
L 654.712353 274.680723 
L 654.754521 274.798379 
L 654.796689 275.504313 
L 654.881026 275.151346 
L 654.965363 275.680797 
L 655.007532 275.445485 
L 655.0497 275.32783 
L 655.218374 276.386731 
L 655.260543 275.916108 
L 655.302711 276.327903 
L 655.34488 276.327903 
L 655.59789 277.563287 
L 655.640059 277.151493 
L 655.682227 276.916181 
L 655.724396 277.151493 
L 656.694271 279.739917 
L 656.778608 279.328122 
L 656.905113 271.268709 
L 657.200292 243.972592 
L 657.453303 217.029443 
L 657.706314 207.616989 
L 657.790651 208.793545 
L 658.08583 230.030395 
L 658.465347 247.502262 
L 658.844863 255.444021 
L 658.887031 255.973471 
L 658.9292 255.208709 
L 659.224379 213.617428 
L 659.519558 180.320872 
L 659.814738 173.555671 
L 659.941243 178.967832 
L 660.531602 222.794571 
L 661.079792 238.207464 
L 661.41714 243.149002 
L 663.230384 262.150394 
L 663.525563 264.44468 
L 663.567732 264.327024 
L 664.242427 267.797866 
L 664.284596 267.680211 
L 664.45327 268.562628 
L 665.085797 271.386364 
L 665.170134 271.268709 
L 665.212302 271.033397 
L 665.254471 271.327537 
L 665.718324 273.445339 
L 665.802661 273.68065 
L 666.013503 274.857207 
L 666.055672 274.680723 
L 666.308682 275.916108 
L 666.350851 275.85728 
L 666.435188 275.916108 
L 666.688199 277.151493 
L 667.405063 278.975155 
L 667.447231 278.916328 
L 667.615905 279.68109 
L 667.700242 279.739917 
L 667.826747 280.269368 
L 668.03759 280.504679 
L 668.079758 280.504679 
L 668.248432 281.03413 
L 668.332769 280.975302 
L 668.796622 282.975448 
L 668.838791 282.916621 
L 668.923128 283.093104 
L 669.049633 283.622555 
L 669.260476 281.445925 
L 669.344812 281.03413 
L 669.386981 281.210613 
L 669.597823 281.681236 
L 669.639992 281.504752 
L 669.68216 281.740064 
L 669.724329 281.622408 
L 669.766497 281.56358 
L 669.808666 281.622408 
L 669.893003 282.093031 
L 670.019508 283.093104 
L 670.061677 283.034276 
L 670.103845 282.916621 
L 670.188182 283.21076 
L 670.23035 283.034276 
L 670.356856 282.798965 
L 670.52553 283.446071 
L 670.652035 283.975522 
L 670.862878 285.034423 
L 670.905046 284.975595 
L 671.200225 286.210979 
L 671.242394 286.034496 
L 671.284562 286.328635 
L 671.368899 286.446291 
L 671.411068 286.210979 
L 671.579742 286.975741 
L 672.254437 288.564093 
L 672.296606 288.269954 
L 672.338774 288.681749 
L 672.380943 288.681749 
L 672.423111 288.505265 
L 672.549616 288.858232 
L 672.591785 288.740576 
L 672.760459 289.387683 
L 672.802627 289.152371 
L 672.844796 289.505338 
L 673.055638 289.956352 
L 673.097807 290.034789 
L 673.139975 289.799478 
L 673.224312 289.858305 
L 673.26648 289.975961 
L 673.350817 289.917133 
L 673.435154 289.975961 
L 673.519491 290.093617 
L 673.56166 290.564239 
L 673.603828 290.426974 
L 673.645997 290.152445 
L 673.772502 290.858379 
L 673.941176 291.034862 
L 673.983344 290.917206 
L 674.10985 291.681968 
L 674.152018 291.564313 
L 674.194187 291.681968 
L 674.278524 291.858452 
L 674.320692 291.799624 
L 674.362861 291.505485 
L 674.405029 291.799624 
L 674.447198 291.799624 
L 674.531535 292.270247 
L 674.573703 292.034935 
L 674.615872 291.858452 
L 674.700209 292.309465 
L 674.742377 292.093763 
L 674.784545 292.387902 
L 674.784545 292.387902 
" clip-path="url(#p87d0a7d532)" style="fill: none; stroke: #1f77b4; stroke-width: 1.5; stroke-linecap: square"/>
   </g>
   <g id="line2d_20">
    <path d="M 57.775455 305.624166 
L 674.784545 305.624166 
L 674.784545 305.624166 
" clip-path="url(#p87d0a7d532)" style="fill: none; stroke: #ff7f0e; stroke-width: 1.5; stroke-linecap: square"/>
   </g>
   <g id="patch_3">
    <path d="M 26.925 327.558125 
L 26.925 22.318125 
" style="fill: none; stroke: #000000; stroke-width: 0.8; stroke-linejoin: miter; stroke-linecap: square"/>
   </g>
   <g id="patch_4">
    <path d="M 705.635 327.558125 
L 705.635 22.318125 
" style="fill: none; stroke: #000000; stroke-width: 0.8; stroke-linejoin: miter; stroke-linecap: square"/>
   </g>
   <g id="patch_5">
    <path d="M 26.925 327.558125 
L 705.635 327.558125 
" style="fill: none; stroke: #000000; stroke-width: 0.8; stroke-linejoin: miter; stroke-linecap: square"/>
   </g>
   <g id="patch_6">
    <path d="M 26.925 22.318125 
L 705.635 22.318125 
" style="fill: none; stroke: #000000; stroke-width: 0.8; stroke-linejoin: miter; stroke-linecap: square"/>
   </g>
   <g id="text_19">
    <!-- training -->
    <g transform="translate(343.036562 16.318125) scale(0.12 -0.12)">
     <defs>
      <path id="DejaVuSans-74" d="M 1172 4494 
L 1172 3500 
L 2356 3500 
L 2356 3053 
L 1172 3053 
L 1172 1153 
Q 1172 725 1289 603 
Q 1406 481 1766 481 
L 2356 481 
L 2356 0 
L 1766 0 
Q 1100 0 847 248 
Q 594 497 594 1153 
L 594 3053 
L 172 3053 
L 172 3500 
L 594 3500 
L 594 4494 
L 1172 4494 
z
" transform="scale(0.015625)"/>
      <path id="DejaVuSans-72" d="M 2631 2963 
Q 2534 3019 2420 3045 
Q 2306 3072 2169 3072 
Q 1681 3072 1420 2755 
Q 1159 2438 1159 1844 
L 1159 0 
L 581 0 
L 581 3500 
L 1159 3500 
L 1159 2956 
Q 1341 3275 1631 3429 
Q 1922 3584 2338 3584 
Q 2397 3584 2469 3576 
Q 2541 3569 2628 3553 
L 2631 2963 
z
" transform="scale(0.015625)"/>
      <path id="DejaVuSans-61" d="M 2194 1759 
Q 1497 1759 1228 1600 
Q 959 1441 959 1056 
Q 959 750 1161 570 
Q 1363 391 1709 391 
Q 2188 391 2477 730 
Q 2766 1069 2766 1631 
L 2766 1759 
L 2194 1759 
z
M 3341 1997 
L 3341 0 
L 2766 0 
L 2766 531 
Q 2569 213 2275 61 
Q 1981 -91 1556 -91 
Q 1019 -91 701 211 
Q 384 513 384 1019 
Q 384 1609 779 1909 
Q 1175 2209 1959 2209 
L 2766 2209 
L 2766 2266 
Q 2766 2663 2505 2880 
Q 2244 3097 1772 3097 
Q 1472 3097 1187 3025 
Q 903 2953 641 2809 
L 641 3341 
Q 956 3463 1253 3523 
Q 1550 3584 1831 3584 
Q 2591 3584 2966 3190 
Q 3341 2797 3341 1997 
z
" transform="scale(0.015625)"/>
      <path id="DejaVuSans-69" d="M 603 3500 
L 1178 3500 
L 1178 0 
L 603 0 
L 603 3500 
z
M 603 4863 
L 1178 4863 
L 1178 4134 
L 603 4134 
L 603 4863 
z
" transform="scale(0.015625)"/>
      <path id="DejaVuSans-6e" d="M 3513 2113 
L 3513 0 
L 2938 0 
L 2938 2094 
Q 2938 2591 2744 2837 
Q 2550 3084 2163 3084 
Q 1697 3084 1428 2787 
Q 1159 2491 1159 1978 
L 1159 0 
L 581 0 
L 581 3500 
L 1159 3500 
L 1159 2956 
Q 1366 3272 1645 3428 
Q 1925 3584 2291 3584 
Q 2894 3584 3203 3211 
Q 3513 2838 3513 2113 
z
" transform="scale(0.015625)"/>
      <path id="DejaVuSans-67" d="M 2906 1791 
Q 2906 2416 2648 2759 
Q 2391 3103 1925 3103 
Q 1463 3103 1205 2759 
Q 947 2416 947 1791 
Q 947 1169 1205 825 
Q 1463 481 1925 481 
Q 2391 481 2648 825 
Q 2906 1169 2906 1791 
z
M 3481 434 
Q 3481 -459 3084 -895 
Q 2688 -1331 1869 -1331 
Q 1566 -1331 1297 -1286 
Q 1028 -1241 775 -1147 
L 775 -588 
Q 1028 -725 1275 -790 
Q 1522 -856 1778 -856 
Q 2344 -856 2625 -561 
Q 2906 -266 2906 331 
L 2906 616 
Q 2728 306 2450 153 
Q 2172 0 1784 0 
Q 1141 0 747 490 
Q 353 981 353 1791 
Q 353 2603 747 3093 
Q 1141 3584 1784 3584 
Q 2172 3584 2450 3431 
Q 2728 3278 2906 2969 
L 2906 3500 
L 3481 3500 
L 3481 434 
z
" transform="scale(0.015625)"/>
     </defs>
     <use xlink:href="#DejaVuSans-74"/>
     <use xlink:href="#DejaVuSans-72" x="39.208984"/>
     <use xlink:href="#DejaVuSans-61" x="80.322266"/>
     <use xlink:href="#DejaVuSans-69" x="141.601562"/>
     <use xlink:href="#DejaVuSans-6e" x="169.384766"/>
     <use xlink:href="#DejaVuSans-69" x="232.763672"/>
     <use xlink:href="#DejaVuSans-6e" x="260.546875"/>
     <use xlink:href="#DejaVuSans-67" x="323.925781"/>
    </g>
   </g>
   <g id="legend_1">
    <g id="patch_7">
     <path d="M 617.24125 59.674375 
L 698.635 59.674375 
Q 700.635 59.674375 700.635 57.674375 
L 700.635 29.318125 
Q 700.635 27.318125 698.635 27.318125 
L 617.24125 27.318125 
Q 615.24125 27.318125 615.24125 29.318125 
L 615.24125 57.674375 
Q 615.24125 59.674375 617.24125 59.674375 
z
" style="fill: #ffffff; opacity: 0.8; stroke: #cccccc; stroke-linejoin: miter"/>
    </g>
    <g id="line2d_21">
     <path d="M 619.24125 35.416562 
L 629.24125 35.416562 
L 639.24125 35.416562 
" style="fill: none; stroke: #1f77b4; stroke-width: 1.5; stroke-linecap: square"/>
    </g>
    <g id="text_20">
     <!-- observed -->
     <g transform="translate(647.24125 38.916562) scale(0.1 -0.1)">
      <defs>
       <path id="DejaVuSans-6f" d="M 1959 3097 
Q 1497 3097 1228 2736 
Q 959 2375 959 1747 
Q 959 1119 1226 758 
Q 1494 397 1959 397 
Q 2419 397 2687 759 
Q 2956 1122 2956 1747 
Q 2956 2369 2687 2733 
Q 2419 3097 1959 3097 
z
M 1959 3584 
Q 2709 3584 3137 3096 
Q 3566 2609 3566 1747 
Q 3566 888 3137 398 
Q 2709 -91 1959 -91 
Q 1206 -91 779 398 
Q 353 888 353 1747 
Q 353 2609 779 3096 
Q 1206 3584 1959 3584 
z
" transform="scale(0.015625)"/>
       <path id="DejaVuSans-62" d="M 3116 1747 
Q 3116 2381 2855 2742 
Q 2594 3103 2138 3103 
Q 1681 3103 1420 2742 
Q 1159 2381 1159 1747 
Q 1159 1113 1420 752 
Q 1681 391 2138 391 
Q 2594 391 2855 752 
Q 3116 1113 3116 1747 
z
M 1159 2969 
Q 1341 3281 1617 3432 
Q 1894 3584 2278 3584 
Q 2916 3584 3314 3078 
Q 3713 2572 3713 1747 
Q 3713 922 3314 415 
Q 2916 -91 2278 -91 
Q 1894 -91 1617 61 
Q 1341 213 1159 525 
L 1159 0 
L 581 0 
L 581 4863 
L 1159 4863 
L 1159 2969 
z
" transform="scale(0.015625)"/>
       <path id="DejaVuSans-73" d="M 2834 3397 
L 2834 2853 
Q 2591 2978 2328 3040 
Q 2066 3103 1784 3103 
Q 1356 3103 1142 2972 
Q 928 2841 928 2578 
Q 928 2378 1081 2264 
Q 1234 2150 1697 2047 
L 1894 2003 
Q 2506 1872 2764 1633 
Q 3022 1394 3022 966 
Q 3022 478 2636 193 
Q 2250 -91 1575 -91 
Q 1294 -91 989 -36 
Q 684 19 347 128 
L 347 722 
Q 666 556 975 473 
Q 1284 391 1588 391 
Q 1994 391 2212 530 
Q 2431 669 2431 922 
Q 2431 1156 2273 1281 
Q 2116 1406 1581 1522 
L 1381 1569 
Q 847 1681 609 1914 
Q 372 2147 372 2553 
Q 372 3047 722 3315 
Q 1072 3584 1716 3584 
Q 2034 3584 2315 3537 
Q 2597 3491 2834 3397 
z
" transform="scale(0.015625)"/>
       <path id="DejaVuSans-65" d="M 3597 1894 
L 3597 1613 
L 953 1613 
Q 991 1019 1311 708 
Q 1631 397 2203 397 
Q 2534 397 2845 478 
Q 3156 559 3463 722 
L 3463 178 
Q 3153 47 2828 -22 
Q 2503 -91 2169 -91 
Q 1331 -91 842 396 
Q 353 884 353 1716 
Q 353 2575 817 3079 
Q 1281 3584 2069 3584 
Q 2775 3584 3186 3129 
Q 3597 2675 3597 1894 
z
M 3022 2063 
Q 3016 2534 2758 2815 
Q 2500 3097 2075 3097 
Q 1594 3097 1305 2825 
Q 1016 2553 972 2059 
L 3022 2063 
z
" transform="scale(0.015625)"/>
       <path id="DejaVuSans-76" d="M 191 3500 
L 800 3500 
L 1894 563 
L 2988 3500 
L 3597 3500 
L 2284 0 
L 1503 0 
L 191 3500 
z
" transform="scale(0.015625)"/>
       <path id="DejaVuSans-64" d="M 2906 2969 
L 2906 4863 
L 3481 4863 
L 3481 0 
L 2906 0 
L 2906 525 
Q 2725 213 2448 61 
Q 2172 -91 1784 -91 
Q 1150 -91 751 415 
Q 353 922 353 1747 
Q 353 2572 751 3078 
Q 1150 3584 1784 3584 
Q 2172 3584 2448 3432 
Q 2725 3281 2906 2969 
z
M 947 1747 
Q 947 1113 1208 752 
Q 1469 391 1925 391 
Q 2381 391 2643 752 
Q 2906 1113 2906 1747 
Q 2906 2381 2643 2742 
Q 2381 3103 1925 3103 
Q 1469 3103 1208 2742 
Q 947 2381 947 1747 
z
" transform="scale(0.015625)"/>
      </defs>
      <use xlink:href="#DejaVuSans-6f"/>
      <use xlink:href="#DejaVuSans-62" x="61.181641"/>
      <use xlink:href="#DejaVuSans-73" x="124.658203"/>
      <use xlink:href="#DejaVuSans-65" x="176.757812"/>
      <use xlink:href="#DejaVuSans-72" x="238.28125"/>
      <use xlink:href="#DejaVuSans-76" x="279.394531"/>
      <use xlink:href="#DejaVuSans-65" x="338.574219"/>
      <use xlink:href="#DejaVuSans-64" x="400.097656"/>
     </g>
    </g>
    <g id="line2d_22">
     <path d="M 619.24125 50.094688 
L 629.24125 50.094688 
L 639.24125 50.094688 
" style="fill: none; stroke: #ff7f0e; stroke-width: 1.5; stroke-linecap: square"/>
    </g>
    <g id="text_21">
     <!-- simulated -->
     <g transform="translate(647.24125 53.594688) scale(0.1 -0.1)">
      <defs>
       <path id="DejaVuSans-6d" d="M 3328 2828 
Q 3544 3216 3844 3400 
Q 4144 3584 4550 3584 
Q 5097 3584 5394 3201 
Q 5691 2819 5691 2113 
L 5691 0 
L 5113 0 
L 5113 2094 
Q 5113 2597 4934 2840 
Q 4756 3084 4391 3084 
Q 3944 3084 3684 2787 
Q 3425 2491 3425 1978 
L 3425 0 
L 2847 0 
L 2847 2094 
Q 2847 2600 2669 2842 
Q 2491 3084 2119 3084 
Q 1678 3084 1418 2786 
Q 1159 2488 1159 1978 
L 1159 0 
L 581 0 
L 581 3500 
L 1159 3500 
L 1159 2956 
Q 1356 3278 1631 3431 
Q 1906 3584 2284 3584 
Q 2666 3584 2933 3390 
Q 3200 3197 3328 2828 
z
" transform="scale(0.015625)"/>
       <path id="DejaVuSans-75" d="M 544 1381 
L 544 3500 
L 1119 3500 
L 1119 1403 
Q 1119 906 1312 657 
Q 1506 409 1894 409 
Q 2359 409 2629 706 
Q 2900 1003 2900 1516 
L 2900 3500 
L 3475 3500 
L 3475 0 
L 2900 0 
L 2900 538 
Q 2691 219 2414 64 
Q 2138 -91 1772 -91 
Q 1169 -91 856 284 
Q 544 659 544 1381 
z
M 1991 3584 
L 1991 3584 
z
" transform="scale(0.015625)"/>
       <path id="DejaVuSans-6c" d="M 603 4863 
L 1178 4863 
L 1178 0 
L 603 0 
L 603 4863 
z
" transform="scale(0.015625)"/>
      </defs>
      <use xlink:href="#DejaVuSans-73"/>
      <use xlink:href="#DejaVuSans-69" x="52.099609"/>
      <use xlink:href="#DejaVuSans-6d" x="79.882812"/>
      <use xlink:href="#DejaVuSans-75" x="177.294922"/>
      <use xlink:href="#DejaVuSans-6c" x="240.673828"/>
      <use xlink:href="#DejaVuSans-61" x="268.457031"/>
      <use xlink:href="#DejaVuSans-74" x="329.736328"/>
      <use xlink:href="#DejaVuSans-65" x="368.945312"/>
      <use xlink:href="#DejaVuSans-64" x="430.46875"/>
     </g>
    </g>
   </g>
  </g>
 </g>
 <defs>
  <clipPath id="p87d0a7d532">
   <rect x="26.925" y="22.318125" width="678.71" height="305.24"/>
  </clipPath>
 </defs>
</svg>
