<?xml version="1.0" encoding="utf-8" standalone="no"?>
<!DOCTYPE svg PUBLIC "-//W3C//DTD SVG 1.1//EN"
  "http://www.w3.org/Graphics/SVG/1.1/DTD/svg11.dtd">
<svg xmlns:xlink="http://www.w3.org/1999/xlink" width="710.68634pt" height="351.43625pt" viewBox="0 0 710.68634 351.43625" xmlns="http://www.w3.org/2000/svg" version="1.1">
 <metadata>
  <rdf:RDF xmlns:dc="http://purl.org/dc/elements/1.1/" xmlns:cc="http://creativecommons.org/ns#" xmlns:rdf="http://www.w3.org/1999/02/22-rdf-syntax-ns#">
   <cc:Work>
    <dc:type rdf:resource="http://purl.org/dc/dcmitype/StillImage"/>
    <dc:date>2023-08-15T22:44:34.022963</dc:date>
    <dc:format>image/svg+xml</dc:format>
    <dc:creator>
     <cc:Agent>
      <dc:title>Matplotlib v3.7.1, https://matplotlib.org/</dc:title>
     </cc:Agent>
    </dc:creator>
   </cc:Work>
  </rdf:RDF>
 </metadata>
 <defs>
  <style type="text/css">*{stroke-linejoin: round; stroke-linecap: butt}</style>
 </defs>
 <g id="figure_1">
  <g id="patch_1">
   <path d="M 0 351.43625 
L 710.68634 351.43625 
L 710.68634 0 
L 0 0 
z
" style="fill: #ffffff"/>
  </g>
  <g id="axes_1">
   <g id="patch_2">
    <path d="M 39.65 327.558125 
L 698.933658 327.558125 
L 698.933658 22.318125 
L 39.65 22.318125 
z
" style="fill: #ffffff"/>
   </g>
   <g id="matplotlib.axis_1">
    <g id="xtick_1">
     <g id="line2d_1">
      <defs>
       <path id="md1a7189e8f" d="M 0 0 
L 0 3.5 
" style="stroke: #000000; stroke-width: 0.8"/>
      </defs>
      <g>
       <use xlink:href="#md1a7189e8f" x="79.863558" y="327.558125" style="stroke: #000000; stroke-width: 0.8"/>
      </g>
     </g>
     <g id="text_1">
      <!-- 2019-01 -->
      <g transform="translate(58.972151 342.156563) scale(0.1 -0.1)">
       <defs>
        <path id="DejaVuSans-32" d="M 1228 531 
L 3431 531 
L 3431 0 
L 469 0 
L 469 531 
Q 828 903 1448 1529 
Q 2069 2156 2228 2338 
Q 2531 2678 2651 2914 
Q 2772 3150 2772 3378 
Q 2772 3750 2511 3984 
Q 2250 4219 1831 4219 
Q 1534 4219 1204 4116 
Q 875 4013 500 3803 
L 500 4441 
Q 881 4594 1212 4672 
Q 1544 4750 1819 4750 
Q 2544 4750 2975 4387 
Q 3406 4025 3406 3419 
Q 3406 3131 3298 2873 
Q 3191 2616 2906 2266 
Q 2828 2175 2409 1742 
Q 1991 1309 1228 531 
z
" transform="scale(0.015625)"/>
        <path id="DejaVuSans-30" d="M 2034 4250 
Q 1547 4250 1301 3770 
Q 1056 3291 1056 2328 
Q 1056 1369 1301 889 
Q 1547 409 2034 409 
Q 2525 409 2770 889 
Q 3016 1369 3016 2328 
Q 3016 3291 2770 3770 
Q 2525 4250 2034 4250 
z
M 2034 4750 
Q 2819 4750 3233 4129 
Q 3647 3509 3647 2328 
Q 3647 1150 3233 529 
Q 2819 -91 2034 -91 
Q 1250 -91 836 529 
Q 422 1150 422 2328 
Q 422 3509 836 4129 
Q 1250 4750 2034 4750 
z
" transform="scale(0.015625)"/>
        <path id="DejaVuSans-31" d="M 794 531 
L 1825 531 
L 1825 4091 
L 703 3866 
L 703 4441 
L 1819 4666 
L 2450 4666 
L 2450 531 
L 3481 531 
L 3481 0 
L 794 0 
L 794 531 
z
" transform="scale(0.015625)"/>
        <path id="DejaVuSans-39" d="M 703 97 
L 703 672 
Q 941 559 1184 500 
Q 1428 441 1663 441 
Q 2288 441 2617 861 
Q 2947 1281 2994 2138 
Q 2813 1869 2534 1725 
Q 2256 1581 1919 1581 
Q 1219 1581 811 2004 
Q 403 2428 403 3163 
Q 403 3881 828 4315 
Q 1253 4750 1959 4750 
Q 2769 4750 3195 4129 
Q 3622 3509 3622 2328 
Q 3622 1225 3098 567 
Q 2575 -91 1691 -91 
Q 1453 -91 1209 -44 
Q 966 3 703 97 
z
M 1959 2075 
Q 2384 2075 2632 2365 
Q 2881 2656 2881 3163 
Q 2881 3666 2632 3958 
Q 2384 4250 1959 4250 
Q 1534 4250 1286 3958 
Q 1038 3666 1038 3163 
Q 1038 2656 1286 2365 
Q 1534 2075 1959 2075 
z
" transform="scale(0.015625)"/>
        <path id="DejaVuSans-2d" d="M 313 2009 
L 1997 2009 
L 1997 1497 
L 313 1497 
L 313 2009 
z
" transform="scale(0.015625)"/>
       </defs>
       <use xlink:href="#DejaVuSans-32"/>
       <use xlink:href="#DejaVuSans-30" x="63.623047"/>
       <use xlink:href="#DejaVuSans-31" x="127.246094"/>
       <use xlink:href="#DejaVuSans-39" x="190.869141"/>
       <use xlink:href="#DejaVuSans-2d" x="254.492188"/>
       <use xlink:href="#DejaVuSans-30" x="290.576172"/>
       <use xlink:href="#DejaVuSans-31" x="354.199219"/>
      </g>
     </g>
    </g>
    <g id="xtick_2">
     <g id="line2d_2">
      <g>
       <use xlink:href="#md1a7189e8f" x="165.293768" y="327.558125" style="stroke: #000000; stroke-width: 0.8"/>
      </g>
     </g>
     <g id="text_2">
      <!-- 2019-07 -->
      <g transform="translate(144.402362 342.156563) scale(0.1 -0.1)">
       <defs>
        <path id="DejaVuSans-37" d="M 525 4666 
L 3525 4666 
L 3525 4397 
L 1831 0 
L 1172 0 
L 2766 4134 
L 525 4134 
L 525 4666 
z
" transform="scale(0.015625)"/>
       </defs>
       <use xlink:href="#DejaVuSans-32"/>
       <use xlink:href="#DejaVuSans-30" x="63.623047"/>
       <use xlink:href="#DejaVuSans-31" x="127.246094"/>
       <use xlink:href="#DejaVuSans-39" x="190.869141"/>
       <use xlink:href="#DejaVuSans-2d" x="254.492188"/>
       <use xlink:href="#DejaVuSans-30" x="290.576172"/>
       <use xlink:href="#DejaVuSans-37" x="354.199219"/>
      </g>
     </g>
    </g>
    <g id="xtick_3">
     <g id="line2d_3">
      <g>
       <use xlink:href="#md1a7189e8f" x="252.139949" y="327.558125" style="stroke: #000000; stroke-width: 0.8"/>
      </g>
     </g>
     <g id="text_3">
      <!-- 2020-01 -->
      <g transform="translate(231.248543 342.156563) scale(0.1 -0.1)">
       <use xlink:href="#DejaVuSans-32"/>
       <use xlink:href="#DejaVuSans-30" x="63.623047"/>
       <use xlink:href="#DejaVuSans-32" x="127.246094"/>
       <use xlink:href="#DejaVuSans-30" x="190.869141"/>
       <use xlink:href="#DejaVuSans-2d" x="254.492188"/>
       <use xlink:href="#DejaVuSans-30" x="290.576172"/>
       <use xlink:href="#DejaVuSans-31" x="354.199219"/>
      </g>
     </g>
    </g>
    <g id="xtick_4">
     <g id="line2d_4">
      <g>
       <use xlink:href="#md1a7189e8f" x="338.04215" y="327.558125" style="stroke: #000000; stroke-width: 0.8"/>
      </g>
     </g>
     <g id="text_4">
      <!-- 2020-07 -->
      <g transform="translate(317.150744 342.156563) scale(0.1 -0.1)">
       <use xlink:href="#DejaVuSans-32"/>
       <use xlink:href="#DejaVuSans-30" x="63.623047"/>
       <use xlink:href="#DejaVuSans-32" x="127.246094"/>
       <use xlink:href="#DejaVuSans-30" x="190.869141"/>
       <use xlink:href="#DejaVuSans-2d" x="254.492188"/>
       <use xlink:href="#DejaVuSans-30" x="290.576172"/>
       <use xlink:href="#DejaVuSans-37" x="354.199219"/>
      </g>
     </g>
    </g>
    <g id="xtick_5">
     <g id="line2d_5">
      <g>
       <use xlink:href="#md1a7189e8f" x="424.888331" y="327.558125" style="stroke: #000000; stroke-width: 0.8"/>
      </g>
     </g>
     <g id="text_5">
      <!-- 2021-01 -->
      <g transform="translate(403.996925 342.156563) scale(0.1 -0.1)">
       <use xlink:href="#DejaVuSans-32"/>
       <use xlink:href="#DejaVuSans-30" x="63.623047"/>
       <use xlink:href="#DejaVuSans-32" x="127.246094"/>
       <use xlink:href="#DejaVuSans-31" x="190.869141"/>
       <use xlink:href="#DejaVuSans-2d" x="254.492188"/>
       <use xlink:href="#DejaVuSans-30" x="290.576172"/>
       <use xlink:href="#DejaVuSans-31" x="354.199219"/>
      </g>
     </g>
    </g>
    <g id="xtick_6">
     <g id="line2d_6">
      <g>
       <use xlink:href="#md1a7189e8f" x="510.318542" y="327.558125" style="stroke: #000000; stroke-width: 0.8"/>
      </g>
     </g>
     <g id="text_6">
      <!-- 2021-07 -->
      <g transform="translate(489.427136 342.156563) scale(0.1 -0.1)">
       <use xlink:href="#DejaVuSans-32"/>
       <use xlink:href="#DejaVuSans-30" x="63.623047"/>
       <use xlink:href="#DejaVuSans-32" x="127.246094"/>
       <use xlink:href="#DejaVuSans-31" x="190.869141"/>
       <use xlink:href="#DejaVuSans-2d" x="254.492188"/>
       <use xlink:href="#DejaVuSans-30" x="290.576172"/>
       <use xlink:href="#DejaVuSans-37" x="354.199219"/>
      </g>
     </g>
    </g>
    <g id="xtick_7">
     <g id="line2d_7">
      <g>
       <use xlink:href="#md1a7189e8f" x="597.164723" y="327.558125" style="stroke: #000000; stroke-width: 0.8"/>
      </g>
     </g>
     <g id="text_7">
      <!-- 2022-01 -->
      <g transform="translate(576.273317 342.156563) scale(0.1 -0.1)">
       <use xlink:href="#DejaVuSans-32"/>
       <use xlink:href="#DejaVuSans-30" x="63.623047"/>
       <use xlink:href="#DejaVuSans-32" x="127.246094"/>
       <use xlink:href="#DejaVuSans-32" x="190.869141"/>
       <use xlink:href="#DejaVuSans-2d" x="254.492188"/>
       <use xlink:href="#DejaVuSans-30" x="290.576172"/>
       <use xlink:href="#DejaVuSans-31" x="354.199219"/>
      </g>
     </g>
    </g>
    <g id="xtick_8">
     <g id="line2d_8">
      <g>
       <use xlink:href="#md1a7189e8f" x="682.594934" y="327.558125" style="stroke: #000000; stroke-width: 0.8"/>
      </g>
     </g>
     <g id="text_8">
      <!-- 2022-07 -->
      <g transform="translate(661.703527 342.156563) scale(0.1 -0.1)">
       <use xlink:href="#DejaVuSans-32"/>
       <use xlink:href="#DejaVuSans-30" x="63.623047"/>
       <use xlink:href="#DejaVuSans-32" x="127.246094"/>
       <use xlink:href="#DejaVuSans-32" x="190.869141"/>
       <use xlink:href="#DejaVuSans-2d" x="254.492188"/>
       <use xlink:href="#DejaVuSans-30" x="290.576172"/>
       <use xlink:href="#DejaVuSans-37" x="354.199219"/>
      </g>
     </g>
    </g>
   </g>
   <g id="matplotlib.axis_2">
    <g id="ytick_1">
     <g id="line2d_9">
      <defs>
       <path id="mc9842b9c48" d="M 0 0 
L -3.5 0 
" style="stroke: #000000; stroke-width: 0.8"/>
      </defs>
      <g>
       <use xlink:href="#mc9842b9c48" x="39.65" y="311.057311" style="stroke: #000000; stroke-width: 0.8"/>
      </g>
     </g>
     <g id="text_9">
      <!-- 0 -->
      <g transform="translate(26.2875 314.856529) scale(0.1 -0.1)">
       <use xlink:href="#DejaVuSans-30"/>
      </g>
     </g>
    </g>
    <g id="ytick_2">
     <g id="line2d_10">
      <g>
       <use xlink:href="#mc9842b9c48" x="39.65" y="267.467787" style="stroke: #000000; stroke-width: 0.8"/>
      </g>
     </g>
     <g id="text_10">
      <!-- 1000 -->
      <g transform="translate(7.2 271.267006) scale(0.1 -0.1)">
       <use xlink:href="#DejaVuSans-31"/>
       <use xlink:href="#DejaVuSans-30" x="63.623047"/>
       <use xlink:href="#DejaVuSans-30" x="127.246094"/>
       <use xlink:href="#DejaVuSans-30" x="190.869141"/>
      </g>
     </g>
    </g>
    <g id="ytick_3">
     <g id="line2d_11">
      <g>
       <use xlink:href="#mc9842b9c48" x="39.65" y="223.878263" style="stroke: #000000; stroke-width: 0.8"/>
      </g>
     </g>
     <g id="text_11">
      <!-- 2000 -->
      <g transform="translate(7.2 227.677482) scale(0.1 -0.1)">
       <use xlink:href="#DejaVuSans-32"/>
       <use xlink:href="#DejaVuSans-30" x="63.623047"/>
       <use xlink:href="#DejaVuSans-30" x="127.246094"/>
       <use xlink:href="#DejaVuSans-30" x="190.869141"/>
      </g>
     </g>
    </g>
    <g id="ytick_4">
     <g id="line2d_12">
      <g>
       <use xlink:href="#mc9842b9c48" x="39.65" y="180.288739" style="stroke: #000000; stroke-width: 0.8"/>
      </g>
     </g>
     <g id="text_12">
      <!-- 3000 -->
      <g transform="translate(7.2 184.087958) scale(0.1 -0.1)">
       <defs>
        <path id="DejaVuSans-33" d="M 2597 2516 
Q 3050 2419 3304 2112 
Q 3559 1806 3559 1356 
Q 3559 666 3084 287 
Q 2609 -91 1734 -91 
Q 1441 -91 1130 -33 
Q 819 25 488 141 
L 488 750 
Q 750 597 1062 519 
Q 1375 441 1716 441 
Q 2309 441 2620 675 
Q 2931 909 2931 1356 
Q 2931 1769 2642 2001 
Q 2353 2234 1838 2234 
L 1294 2234 
L 1294 2753 
L 1863 2753 
Q 2328 2753 2575 2939 
Q 2822 3125 2822 3475 
Q 2822 3834 2567 4026 
Q 2313 4219 1838 4219 
Q 1578 4219 1281 4162 
Q 984 4106 628 3988 
L 628 4550 
Q 988 4650 1302 4700 
Q 1616 4750 1894 4750 
Q 2613 4750 3031 4423 
Q 3450 4097 3450 3541 
Q 3450 3153 3228 2886 
Q 3006 2619 2597 2516 
z
" transform="scale(0.015625)"/>
       </defs>
       <use xlink:href="#DejaVuSans-33"/>
       <use xlink:href="#DejaVuSans-30" x="63.623047"/>
       <use xlink:href="#DejaVuSans-30" x="127.246094"/>
       <use xlink:href="#DejaVuSans-30" x="190.869141"/>
      </g>
     </g>
    </g>
    <g id="ytick_5">
     <g id="line2d_13">
      <g>
       <use xlink:href="#mc9842b9c48" x="39.65" y="136.699215" style="stroke: #000000; stroke-width: 0.8"/>
      </g>
     </g>
     <g id="text_13">
      <!-- 4000 -->
      <g transform="translate(7.2 140.498434) scale(0.1 -0.1)">
       <defs>
        <path id="DejaVuSans-34" d="M 2419 4116 
L 825 1625 
L 2419 1625 
L 2419 4116 
z
M 2253 4666 
L 3047 4666 
L 3047 1625 
L 3713 1625 
L 3713 1100 
L 3047 1100 
L 3047 0 
L 2419 0 
L 2419 1100 
L 313 1100 
L 313 1709 
L 2253 4666 
z
" transform="scale(0.015625)"/>
       </defs>
       <use xlink:href="#DejaVuSans-34"/>
       <use xlink:href="#DejaVuSans-30" x="63.623047"/>
       <use xlink:href="#DejaVuSans-30" x="127.246094"/>
       <use xlink:href="#DejaVuSans-30" x="190.869141"/>
      </g>
     </g>
    </g>
    <g id="ytick_6">
     <g id="line2d_14">
      <g>
       <use xlink:href="#mc9842b9c48" x="39.65" y="93.109691" style="stroke: #000000; stroke-width: 0.8"/>
      </g>
     </g>
     <g id="text_14">
      <!-- 5000 -->
      <g transform="translate(7.2 96.90891) scale(0.1 -0.1)">
       <defs>
        <path id="DejaVuSans-35" d="M 691 4666 
L 3169 4666 
L 3169 4134 
L 1269 4134 
L 1269 2991 
Q 1406 3038 1543 3061 
Q 1681 3084 1819 3084 
Q 2600 3084 3056 2656 
Q 3513 2228 3513 1497 
Q 3513 744 3044 326 
Q 2575 -91 1722 -91 
Q 1428 -91 1123 -41 
Q 819 9 494 109 
L 494 744 
Q 775 591 1075 516 
Q 1375 441 1709 441 
Q 2250 441 2565 725 
Q 2881 1009 2881 1497 
Q 2881 1984 2565 2268 
Q 2250 2553 1709 2553 
Q 1456 2553 1204 2497 
Q 953 2441 691 2322 
L 691 4666 
z
" transform="scale(0.015625)"/>
       </defs>
       <use xlink:href="#DejaVuSans-35"/>
       <use xlink:href="#DejaVuSans-30" x="63.623047"/>
       <use xlink:href="#DejaVuSans-30" x="127.246094"/>
       <use xlink:href="#DejaVuSans-30" x="190.869141"/>
      </g>
     </g>
    </g>
    <g id="ytick_7">
     <g id="line2d_15">
      <g>
       <use xlink:href="#mc9842b9c48" x="39.65" y="49.520167" style="stroke: #000000; stroke-width: 0.8"/>
      </g>
     </g>
     <g id="text_15">
      <!-- 6000 -->
      <g transform="translate(7.2 53.319386) scale(0.1 -0.1)">
       <defs>
        <path id="DejaVuSans-36" d="M 2113 2584 
Q 1688 2584 1439 2293 
Q 1191 2003 1191 1497 
Q 1191 994 1439 701 
Q 1688 409 2113 409 
Q 2538 409 2786 701 
Q 3034 994 3034 1497 
Q 3034 2003 2786 2293 
Q 2538 2584 2113 2584 
z
M 3366 4563 
L 3366 3988 
Q 3128 4100 2886 4159 
Q 2644 4219 2406 4219 
Q 1781 4219 1451 3797 
Q 1122 3375 1075 2522 
Q 1259 2794 1537 2939 
Q 1816 3084 2150 3084 
Q 2853 3084 3261 2657 
Q 3669 2231 3669 1497 
Q 3669 778 3244 343 
Q 2819 -91 2113 -91 
Q 1303 -91 875 529 
Q 447 1150 447 2328 
Q 447 3434 972 4092 
Q 1497 4750 2381 4750 
Q 2619 4750 2861 4703 
Q 3103 4656 3366 4563 
z
" transform="scale(0.015625)"/>
       </defs>
       <use xlink:href="#DejaVuSans-36"/>
       <use xlink:href="#DejaVuSans-30" x="63.623047"/>
       <use xlink:href="#DejaVuSans-30" x="127.246094"/>
       <use xlink:href="#DejaVuSans-30" x="190.869141"/>
      </g>
     </g>
    </g>
   </g>
   <g id="line2d_16">
    <path d="M 69.617439 305.074649 
L 69.794435 305.935542 
L 69.833768 305.761184 
L 69.991098 304.671445 
L 70.03043 304.954777 
L 70.266425 305.826568 
L 70.286092 305.761184 
L 70.443422 304.638753 
L 70.325424 305.848363 
L 70.561419 304.911188 
L 71.938057 307.036177 
L 71.957723 306.98169 
L 72.016722 307.057972 
L 72.193718 308.115018 
L 72.233051 307.602841 
L 72.331382 306.970793 
L 72.351048 307.036177 
L 72.390381 307.18874 
L 72.469046 307.166946 
L 72.528045 307.047075 
L 72.587043 306.850922 
L 72.626376 306.927203 
L 72.783706 307.319509 
L 72.980369 307.319509 
L 73.295029 307.602841 
L 73.314695 307.548354 
L 73.354027 307.373996 
L 73.432692 307.472072 
L 73.570356 308.518221 
L 73.609689 308.1913 
L 73.747353 307.23233 
L 73.826018 307.254125 
L 73.845684 307.297714 
L 73.885016 307.330406 
L 73.904683 307.27592 
L 73.963681 307.145151 
L 74.003014 307.221433 
L 74.140678 307.428483 
L 74.160344 307.417585 
L 74.317674 307.395791 
L 74.671666 306.861819 
L 74.927328 306.404129 
L 74.946994 306.415026 
L 75.025659 306.404129 
L 75.045325 306.458616 
L 75.359985 306.927203 
L 75.43865 306.992588 
L 75.615647 307.123356 
L 75.890974 307.286817 
L 76.008972 307.308612 
L 76.166302 307.395791 
L 76.303966 307.373996 
L 76.421963 307.864378 
L 76.461296 308.322068 
L 76.520294 307.766302 
L 76.716957 308.365658 
L 76.775956 308.180402 
L 76.854621 307.766302 
L 76.874287 307.875275 
L 76.91362 308.35476 
L 76.972618 307.831686 
L 77.267612 306.948998 
L 77.483941 307.515662 
L 77.54294 307.809891 
L 77.582272 307.591944 
L 77.739602 307.210535 
L 77.759268 307.23233 
L 77.837933 307.156048 
L 77.995264 306.153489 
L 78.093595 303.788758 
L 78.250925 292.553558 
L 78.506586 276.937611 
L 78.526252 276.948508 
L 78.545919 276.872227 
L 78.585251 277.101072 
L 78.683582 279.215164 
L 78.821246 285.808079 
L 79.096574 296.509307 
L 79.312903 299.146473 
L 79.4309 298.754168 
L 79.568564 298.187504 
L 79.627563 298.241991 
L 80.197884 301.9471 
L 80.276549 301.849024 
L 80.315882 301.914408 
L 80.630542 303.886834 
L 80.650208 303.788758 
L 81.043533 300.726594 
L 81.122198 300.497749 
L 81.141864 300.628517 
L 81.377859 303.897731 
L 81.515523 304.170166 
L 81.790851 305.456057 
L 81.830183 305.368878 
L 81.849849 305.325288 
L 81.869516 305.412467 
L 81.908848 305.412467 
L 82.026846 305.60862 
L 82.085845 306.033618 
L 82.16451 305.979131 
L 82.184176 305.913747 
L 82.243175 306.06631 
L 82.282507 305.935542 
L 82.341506 305.772081 
L 82.400505 305.837465 
L 82.695498 306.284258 
L 82.774163 305.990029 
L 82.872495 306.131695 
L 82.911827 306.218874 
L 82.970826 306.186181 
L 83.010158 306.327847 
L 83.088824 306.284258 
L 83.128156 306.229771 
L 83.187155 306.262463 
L 83.206821 306.306053 
L 83.285486 306.218874 
L 83.403484 306.27336 
L 83.42315 306.240668 
L 83.541147 306.175284 
L 83.560814 306.284258 
L 83.757476 306.796435 
L 83.89514 307.265022 
L 83.954139 307.373996 
L 83.973805 307.395791 
L 83.993471 307.308612 
L 84.072136 307.134254 
L 84.091803 307.166946 
L 84.229466 307.570149 
L 84.249133 307.493867 
L 84.445795 307.23233 
L 86.294423 307.156048 
L 86.412421 307.27592 
L 86.432087 307.265022 
L 86.589417 307.352201 
L 86.707414 307.297714 
L 86.904077 307.384893 
L 87.002408 307.352201 
L 87.022074 307.373996 
L 87.199071 307.711815 
L 87.435066 308.888732 
L 87.749726 309.237448 
L 88.300381 309.97847 
L 88.536376 310.283597 
L 88.851036 310.370776 
L 89.165696 310.806671 
L 89.480356 310.89385 
L 89.873681 311.460514 
L 90.109676 311.939999 
L 90.188341 311.896409 
L 90.503002 311.80923 
L 90.738997 312.027178 
L 91.053657 312.419483 
L 92.941617 313.378453 
L 93.256277 313.422042 
L 93.570937 313.63999 
L 94.121592 313.63999 
L 94.436253 313.291274 
L 94.672248 313.378453 
L 95.222903 313.5964 
L 95.380233 313.552811 
L 95.537563 313.334863 
L 95.694893 312.550252 
L 96.166883 309.10668 
L 96.324213 308.757963 
L 96.402878 308.801553 
L 96.638873 308.278479 
L 96.717538 308.322068 
L 96.796203 308.583605 
L 96.874868 308.409247 
L 97.582853 310.89385 
L 97.661518 310.806671 
L 98.133508 312.114357 
L 98.212173 312.332304 
L 98.290838 312.245125 
L 98.448168 312.201536 
L 98.841494 311.85282 
L 99.234819 311.80923 
L 99.628144 311.329745 
L 100.100134 311.983588 
L 101.044114 312.070767 
L 101.201444 312.506662 
L 101.280109 312.68102 
L 101.358774 312.593841 
L 101.437439 312.332304 
L 101.516104 312.375894 
L 101.988094 312.288715 
L 102.302754 312.070767 
L 102.460084 312.157946 
L 102.774745 312.245125 
L 103.01074 312.332304 
L 103.16807 312.593841 
L 103.246735 312.288715 
L 103.3254 312.332304 
L 103.48273 312.419483 
L 103.876055 312.550252 
L 104.033385 312.550252 
L 104.190715 312.637431 
L 104.42671 312.593841 
L 104.58404 312.68102 
L 104.74137 312.72461 
L 104.8987 312.506662 
L 105.05603 312.332304 
L 105.37069 311.939999 
L 105.52802 311.939999 
L 105.68535 311.76564 
L 105.764015 311.722051 
L 105.921345 312.637431 
L 106.00001 312.593841 
L 106.472 310.763081 
L 106.707995 311.547693 
L 106.943991 310.763081 
L 107.022656 310.85026 
L 107.179986 310.93744 
L 107.415981 310.719492 
L 107.651976 311.198977 
L 107.730641 311.068208 
L 107.887971 310.85026 
L 108.123966 311.242566 
L 108.438626 310.545134 
L 108.517291 310.632313 
L 108.674621 310.89385 
L 108.831951 310.545134 
L 108.910616 310.588723 
L 108.989281 310.763081 
L 109.067946 310.675902 
L 109.146611 310.370776 
L 109.225276 310.414365 
L 109.461271 310.675902 
L 109.697266 310.501544 
L 109.933261 310.632313 
L 110.090591 310.89385 
L 110.562581 310.675902 
L 110.877241 310.065649 
L 111.034572 310.152828 
L 111.191902 309.629754 
L 111.506562 309.97847 
L 111.978552 310.152828 
L 112.135882 310.109239 
L 112.371877 309.891291 
L 112.529207 310.02206 
L 112.686537 310.588723 
L 112.843867 310.283597 
L 113.001197 310.501544 
L 113.079862 310.501544 
L 113.158527 310.675902 
L 113.237192 310.370776 
L 113.394522 308.932321 
L 113.473187 309.0195 
L 113.630517 307.755404 
L 114.102507 298.775962 
L 114.574497 277.406198 
L 114.77116 252.069788 
L 114.987489 228.204523 
L 115.144819 217.743037 
L 115.164485 219.922514 
L 115.184151 222.319937 
L 115.262816 219.486618 
L 115.282483 219.377645 
L 115.479145 208.807185 
L 115.498811 209.352054 
L 115.616809 214.582797 
L 115.911803 233.108345 
L 116.462458 269.941492 
L 116.560789 273.864549 
L 116.600122 273.101733 
L 116.796784 266.781252 
L 116.836117 266.999199 
L 116.855783 267.217147 
L 116.875449 266.781252 
L 116.895115 266.890226 
L 117.386772 259.806928 
L 117.406438 260.133849 
L 117.465437 260.242823 
L 117.524436 260.678718 
L 117.544102 260.024876 
L 117.563768 260.024876 
L 117.701432 251.85184 
L 118.232421 206.736683 
L 118.370085 194.64059 
L 118.409417 194.858537 
L 118.429083 195.076485 
L 118.507748 192.679061 
L 118.547081 194.531616 
L 118.645412 195.948276 
L 118.665078 195.621354 
L 118.704411 195.51238 
L 118.979738 201.723887 
L 119.215734 196.057249 
L 119.019071 201.832861 
L 119.2354 198.018778 
L 119.314065 202.159783 
L 119.471395 210.223845 
L 119.530394 210.005897 
L 119.687724 214.146902 
L 120.159714 242.371118 
L 120.317044 246.512123 
L 120.33671 245.967254 
L 120.612038 237.576271 
L 121.064361 200.852097 
L 121.12336 205.320023 
L 122.185338 281.035026 
L 122.205004 280.827976 
L 122.264003 280.402978 
L 122.303335 280.653618 
L 122.755659 287.96576 
L 123.286648 291.354846 
L 123.365313 291.387538 
L 123.38498 291.529204 
L 123.463645 291.333051 
L 123.69964 288.902935 
L 123.778305 289.33883 
L 123.896302 290.450363 
L 123.935635 290.918951 
L 124.0143 290.831772 
L 124.073298 290.395876 
L 124.132297 290.428569 
L 124.702619 294.220857 
L 124.722285 294.16637 
L 124.840282 294.231755 
L 124.879615 294.111883 
L 124.899281 294.220857 
L 125.135276 290.286903 
L 125.292606 280.457465 
L 125.508935 267.653042 
L 125.607266 267.217147 
L 125.626933 267.435095 
L 125.666265 267.762016 
L 125.882594 271.685073 
L 126.118589 267.544069 
L 126.157921 267.87099 
L 126.177588 267.653042 
L 126.21692 268.197911 
L 126.236586 267.979964 
L 126.452915 271.03123 
L 126.570913 273.537628 
L 127.239565 289.044601 
L 127.652557 293.795859 
L 127.790221 294.37342 
L 127.809887 294.144575 
L 127.868886 294.634958 
L 127.888552 294.602265 
L 128.026216 294.983674 
L 128.104881 295.190724 
L 128.222878 295.593927 
L 128.262211 295.53944 
L 128.557205 296.324052 
L 128.596537 296.138796 
L 128.63587 296.334949 
L 128.773533 296.759947 
L 128.891531 296.49841 
L 128.832532 296.792639 
L 128.911197 296.520205 
L 128.989862 295.899054 
L 129.619182 281.056821 
L 129.953509 267.653042 
L 130.032174 267.979964 
L 130.071506 267.87099 
L 130.189504 268.960728 
L 130.248502 268.524833 
L 130.464831 254.467211 
L 130.799158 208.480264 
L 130.956488 174.262487 
L 130.976154 175.570173 
L 131.113818 201.723887 
L 131.408811 240.736511 
L 131.723472 266.345357 
L 132.116797 278.953626 
L 132.234794 281.819638 
L 132.333125 286.995894 
L 132.392124 286.135 
L 132.451123 285.502952 
L 132.510122 285.873463 
L 132.56912 286.342051 
L 132.746117 286.88692 
L 132.765783 286.777946 
L 132.864114 286.17859 
L 132.903447 285.633721 
L 133.198441 280.010672 
L 133.257439 280.097851 
L 134.103088 289.208062 
L 134.122755 289.240754 
L 134.35875 291.158693 
L 134.791407 293.686885 
L 134.929071 294.395215 
L 135.519059 296.607384 
L 135.538725 296.563794 
L 135.578057 296.716357 
L 135.715721 297.184945 
L 135.735387 297.086868 
L 135.93205 297.555456 
L 135.951716 297.457379 
L 135.991049 297.66443 
L 136.010715 297.631737 
L 136.128713 298.013146 
L 136.187711 297.991351 
L 136.286043 298.133017 
L 136.463039 298.394554 
L 136.522038 298.459938 
L 136.56137 298.361862 
L 136.640035 298.481733 
L 136.659701 298.361862 
L 136.699034 298.459938 
L 136.895697 298.154812 
L 136.915363 298.176606 
L 136.935029 298.067633 
L 136.954695 298.12212 
L 137.053027 297.925967 
L 137.072693 297.980454 
L 137.171024 298.143914 
L 137.19069 298.100325 
L 137.34802 298.438144 
L 137.367687 298.394554 
L 137.387353 298.503528 
L 137.446352 298.449041 
L 137.721679 299.026602 
L 137.839677 299.309934 
L 137.859343 299.20096 
L 137.879009 299.386216 
L 137.938008 299.364421 
L 137.977341 299.364421 
L 137.997007 299.440703 
L 138.193669 299.811214 
L 138.213336 299.789419 
L 138.233002 299.876598 
L 138.272334 299.8657 
L 138.350999 299.974674 
L 138.449331 299.941982 
L 138.468997 299.974674 
L 138.626327 300.290698 
L 139.098317 300.639415 
L 139.235981 300.955439 
L 139.29498 300.879157 
L 139.353978 300.900952 
L 139.648972 301.533 
L 139.688305 301.511205 
L 140.120962 302.066971 
L 140.140629 301.936203 
L 140.219294 301.03172 
L 140.376624 295.83367 
L 140.927279 266.018435 
L 140.966611 266.781252 
L 141.123941 270.595335 
L 141.576265 287.682429 
L 141.674596 289.273446 
L 142.146587 294.362523 
L 142.677575 297.195842 
L 142.697242 297.184945 
L 142.933237 298.307375 
L 142.952903 298.263785 
L 142.992236 298.28558 
L 143.011902 298.32917 
L 143.188898 298.95032 
L 143.267563 298.852244 
L 143.287229 298.797757 
L 143.326562 298.928526 
L 143.365894 298.830449 
L 143.542891 299.091986 
L 143.562557 299.015705 
L 143.621556 299.168268 
L 144.014881 299.691342 
L 144.172211 299.386216 
L 144.191877 299.375318 
L 144.211543 299.49519 
L 144.250876 299.342626 
L 144.309875 299.418908 
L 144.565536 299.822111 
L 144.683533 300.11634 
L 144.7032 300.094545 
L 144.722866 300.061853 
L 144.762198 300.181725 
L 144.781865 300.138135 
L 144.86053 300.279801 
L 144.880196 300.170827 
L 144.958861 299.70224 
L 145.17519 294.62406 
L 145.312854 284.587572 
L 145.96184 232.12758 
L 146.079838 227.332733 
L 146.138836 229.076314 
L 146.315833 246.512123 
L 146.571494 263.947933 
L 146.728824 270.268414 
L 146.846821 269.505597 
L 146.886154 269.287649 
L 146.90582 269.396623 
L 147.299145 277.471583 
L 147.574473 283.715782 
L 148.341457 290.984335 
L 148.636451 293.054837 
L 148.675783 293.152914 
L 148.990443 294.4606 
L 149.108441 296.389436 
L 149.147773 295.768285 
L 149.836092 275.935052 
L 149.855758 275.935052 
L 150.642409 291.071514 
L 151.0554 294.275344 
L 151.271729 295.158032 
L 151.311061 295.212519 
L 151.409393 295.386877 
L 151.429059 295.37598 
L 151.665054 295.092648 
L 151.68472 295.114442 
L 151.704386 294.994571 
L 151.802718 294.83111 
L 151.84205 294.885597 
L 151.940381 295.212519 
L 152.274708 297.097766 
L 152.530369 298.100325 
L 152.805697 299.4516 
L 152.94336 299.222755 
L 152.963027 299.277242 
L 153.356352 299.582369 
L 153.612013 299.996469 
L 153.631679 300.007366 
L 153.749677 300.236211 
L 155.067316 302.274022 
L 155.086982 302.24133 
L 155.126315 302.317611 
L 155.145981 302.306714 
L 155.303311 302.568251 
L 155.322977 302.513764 
L 155.657304 302.437482 
L 156.050629 302.753506 
L 156.207959 302.938762 
L 156.365289 302.742609 
L 156.404621 302.797096 
L 156.46362 302.720814 
L 156.915944 302.818891 
L 157.505932 303.592605 
L 157.643595 303.429144 
L 157.663262 303.450939 
L 157.87959 302.230432 
L 157.899257 302.219535 
L 158.095919 301.456718 
L 158.233583 301.620179 
L 158.921902 303.52722 
L 159.275894 303.843245 
L 159.374226 303.679784 
L 159.413558 303.712476 
L 159.708552 303.930424 
L 159.728218 303.865039 
L 159.787217 304.006705 
L 159.806883 303.974013 
L 159.885548 304.0285 
L 159.905215 303.98491 
L 159.98388 303.690681 
L 160.042878 303.734271 
L 160.180542 304.104782 
L 160.219875 304.093884 
L 160.259207 304.137474 
L 160.45587 304.409908 
L 160.475536 304.388114 
L 160.495202 304.355421 
L 160.514868 304.431703 
L 160.554201 304.4426 
L 160.986859 304.769522 
L 161.203187 304.878496 
L 161.360517 304.998367 
L 161.419516 304.932983 
L 161.458849 304.976572 
L 161.616179 305.129135 
L 162.225833 305.052854 
L 162.560159 304.257345 
L 162.65849 304.311832 
L 162.894485 304.638753 
L 162.953484 304.682343 
L 162.97315 304.758625 
L 163.071482 304.704138 
L 163.209145 304.595164 
L 163.228812 304.475293 
L 163.28781 304.704138 
L 163.307477 304.584266 
L 163.543472 305.183622 
L 163.582804 305.259904 
L 163.622137 305.249007 
L 163.700802 305.292596 
L 163.720468 305.249007 
L 163.877798 304.344524 
L 164.074461 303.57081 
L 164.133459 303.429144 
L 164.192458 303.538118 
L 164.212124 303.538118 
L 164.428453 304.377216 
L 164.664448 304.715035 
L 165.038107 305.249007 
L 165.057773 305.15093 
L 165.274102 303.505426 
L 165.608428 300.672107 
L 165.628095 300.802875 
L 165.805091 301.434923 
L 166.080419 297.860582 
L 166.316414 295.212519 
L 166.355746 295.561235 
L 166.690072 300.508646 
L 167.063731 302.61184 
L 167.12273 302.688122 
L 167.142396 302.459277 
L 167.221061 302.775301 
L 167.28006 302.851583 
L 167.299726 302.753506 
L 167.378391 301.23877 
L 167.59472 294.242652 
L 167.653719 295.572132 
L 167.929047 301.794537 
L 168.401037 303.734271 
L 168.420703 303.701579 
L 169.463014 305.238109 
L 169.777674 304.747727 
L 169.974337 304.300935 
L 170.072668 304.453498 
L 170.229998 304.649651 
L 170.741321 305.35798 
L 170.918317 305.565031 
L 171.016649 305.597723 
L 171.704967 306.229771 
L 171.803299 306.207976 
L 171.822965 306.262463 
L 172.078626 306.000926 
L 172.21629 305.140033 
L 172.412953 303.243889 
L 172.491618 303.385555 
L 172.629281 303.52722 
L 172.825944 302.481072 
L 172.924275 302.764404 
L 173.16027 303.941321 
L 173.238935 304.104782 
L 173.494597 304.627856 
L 173.514263 304.562472 
L 173.592928 304.649651 
L 173.769924 304.932983 
L 174.123917 305.368878 
L 174.202582 305.412467 
L 174.300913 304.507985 
L 174.399244 301.173386 
L 174.851568 268.088938 
L 174.969566 271.576099 
L 175.500555 290.559337 
L 176.778861 301.641974 
L 176.818194 301.794537 
L 177.250851 303.232991 
L 177.526179 303.723373 
L 177.585178 303.712476 
L 177.604844 303.788758 
L 177.762174 303.952218 
L 177.78184 303.941321 
L 177.821173 304.0285 
L 177.958836 304.366319 
L 177.978503 304.300935 
L 178.076834 304.355421 
L 178.312829 304.834906 
L 178.332495 304.791317 
L 178.371828 304.867598 
L 178.41116 304.867598 
L 178.430827 304.911188 
L 178.489825 304.824009 
L 178.627489 304.464395 
L 178.804485 303.243889 
L 178.88315 303.494528 
L 179.060147 304.137474 
L 179.099479 304.23555 
L 179.532137 305.15093 
L 179.571469 305.216315 
L 179.787798 305.597723 
L 179.807464 305.554133 
L 179.964794 305.630415 
L 180.023793 305.706697 
L 180.20079 305.913747 
L 180.35812 305.238109 
L 180.456451 305.532339 
L 181.282434 306.284258 
L 181.656092 306.371437 
L 181.754424 306.099002 
L 181.970752 305.085546 
L 182.029751 305.303494 
L 182.265746 306.338745 
L 182.285413 306.295155 
L 182.305079 306.36054 
L 182.364078 306.371437 
L 182.482075 306.349642 
L 182.777069 305.804773 
L 182.836068 305.913747 
L 183.091729 306.371437 
L 183.111395 306.36054 
L 183.19006 306.393232 
L 183.327724 306.469513 
L 183.642384 306.741948 
L 183.81938 306.883614 
L 184.212705 307.156048 
L 184.389702 307.221433 
L 184.547032 307.330406 
L 184.625697 307.286817 
L 184.783027 307.057972 
L 185.176352 306.763743 
L 185.333682 306.927203 
L 185.353348 306.894511 
L 185.432013 306.959895 
L 185.746673 307.014382 
L 185.884337 307.079767 
L 186.022001 307.18874 
L 186.375994 306.883614 
L 186.55299 306.578487 
L 186.690654 306.545795 
L 186.71032 306.589385 
L 186.887316 307.090664 
L 187.064312 307.254125 
L 187.103645 307.199638 
L 187.162644 307.254125 
L 187.18231 307.27592 
L 187.477304 305.44516 
L 187.614968 305.031059 
L 187.673966 305.161828 
L 188.086958 306.741948 
L 188.59828 305.336186 
L 188.696612 305.674005 
L 188.952273 306.469513 
L 189.306265 306.883614 
L 189.719257 306.502205 
L 189.758589 306.545795 
L 190.958231 307.711815 
L 191.076228 307.809891 
L 191.233558 307.89707 
L 191.33189 307.886173 
L 191.351556 307.918865 
L 191.548219 308.027839 
L 191.705549 308.049634 
L 192.138206 308.10412 
L 192.315202 306.959895 
L 192.374201 306.622077 
L 192.59053 303.11312 
L 192.629863 303.15671 
L 192.74786 304.300935 
L 193.121519 308.496426 
L 193.180518 308.56181 
L 193.200184 308.507324 
L 193.298515 307.613738 
L 193.455845 307.23233 
L 193.632842 307.123356 
L 193.790172 307.134254 
L 193.908169 307.308612 
L 194.281828 307.73361 
L 194.380159 307.820789 
L 194.557155 307.918865 
L 195.560134 307.89707 
L 196.11079 302.502867 
L 196.209121 302.993249 
L 196.74011 305.630415 
L 196.759776 305.597723 
L 196.779442 305.663107 
L 196.838441 305.674005 
L 197.015437 305.695799 
L 197.566092 306.469513 
L 197.821754 306.850922 
L 197.979084 307.014382 
L 197.99875 306.992588 
L 198.31341 307.23233 
L 198.333076 307.199638 
L 198.62807 307.308612 
L 198.667403 307.363099 
L 198.687069 307.221433 
L 198.864065 306.927203 
L 198.94273 306.883614 
L 199.10006 306.763743 
L 199.473719 307.068869 
L 200.319368 295.08175 
L 200.437366 289.491394 
L 200.634028 283.944627 
L 200.673361 283.89014 
L 200.791358 285.938848 
L 201.224016 296.127899 
L 201.597675 298.372759 
L 201.637007 298.154812 
L 201.735338 297.697122 
L 201.794337 297.849685 
L 202.561321 301.870819 
L 202.62032 301.9471 
L 202.915314 302.69902 
L 203.052978 302.884275 
L 203.367638 303.222094 
L 203.387304 303.211196 
L 203.40697 303.298375 
L 203.426636 303.298375 
L 203.603633 303.657989 
L 203.800295 303.98491 
L 204.016624 304.257345 
L 204.19362 304.464395 
L 204.331284 304.595164 
L 204.527947 304.595164 
L 205.098268 305.020162 
L 205.334263 305.347083 
L 205.432594 305.40157 
L 205.629257 305.641312 
L 205.884918 305.554133 
L 205.943917 304.715035 
L 206.002916 304.802214 
L 206.061915 304.780419 
L 206.258577 304.093884 
L 206.278243 304.115679 
L 206.317576 304.017603 
L 206.376575 304.126576 
L 206.435573 304.268242 
L 206.7699 305.456057 
L 206.789566 305.423365 
L 206.809232 305.532339 
L 206.828898 305.532339 
L 207.163225 305.881055 
L 207.340221 305.990029 
L 207.910542 306.458616 
L 208.067873 306.338745 
L 208.382533 305.183622 
L 208.579195 304.497087 
L 208.854523 303.091325 
L 208.992186 303.265683 
L 209.011853 303.287478 
L 209.070851 303.189402 
L 209.110184 303.11312 
L 209.739504 294.940084 
L 210.132829 287.05038 
L 210.231161 287.867684 
L 210.526154 293.490733 
L 210.821148 297.751609 
L 210.840814 297.686224 
L 210.899813 297.402892 
L 210.998144 295.866362 
L 211.450468 280.620926 
L 211.529133 281.078616 
L 211.647131 283.824756 
L 212.060122 293.567014 
L 212.374782 296.727255 
L 212.394449 296.738152 
L 212.768107 298.939423 
L 213.181099 300.606722 
L 213.397428 301.162489 
L 213.476093 301.195181 
L 213.495759 301.097105 
L 213.790753 300.247109 
L 213.967749 299.429805 
L 213.987415 299.516984 
L 214.026748 299.40801 
L 214.06608 299.516984 
L 214.321742 300.421467 
L 214.341408 300.36698 
L 214.38074 300.541338 
L 214.400407 300.530441 
L 214.597069 300.922746 
L 214.774065 300.639415 
L 214.793732 300.672107 
L 214.833064 300.606722 
L 214.970728 300.356083 
L 215.01006 300.388775 
L 215.16739 300.465056 
L 215.285388 300.595825 
L 215.305054 300.530441 
L 215.383719 300.606722 
L 215.482051 300.715696 
L 215.501717 300.584928 
L 215.639381 300.203519 
L 215.855709 299.299037 
L 215.954041 298.74327 
L 216.032706 298.775962 
L 216.052372 298.732373 
L 216.072038 298.884936 
L 216.091704 298.841347 
L 216.249034 299.190063 
L 216.268701 299.146473 
L 216.308033 299.288139 
L 216.721025 300.138135 
L 216.937353 300.835567 
L 217.704337 301.925305 
L 217.822335 301.968895 
L 217.999331 302.219535 
L 218.117329 302.186843 
L 218.353324 302.44838 
L 218.431989 302.012485 
L 218.549986 299.135576 
L 218.785981 279.117087 
L 219.139974 243.787778 
L 219.415301 232.236554 
L 219.454634 231.691685 
L 219.4743 231.909633 
L 219.729962 248.037757 
L 220.10362 275.063261 
L 220.595277 285.884361 
L 221.204931 292.477276 
L 221.224597 292.466379 
L 221.499925 294.242652 
L 221.932582 296.04072 
L 222.129245 296.672768 
L 222.20791 296.858023 
L 222.463571 297.686224 
L 222.502903 297.762506 
L 222.52257 297.729814 
L 223.073225 298.95032 
L 223.112557 298.895834 
L 223.132224 299.004807 
L 223.564881 299.636855 
L 223.584548 299.538779 
L 223.663213 299.604163 
L 223.820543 299.691342 
L 223.840209 299.691342 
L 223.977873 299.854803 
L 224.174535 300.018264 
L 224.194201 299.941982 
L 224.233534 300.050956 
L 224.2532 300.040059 
L 224.469529 300.279801 
L 224.587526 300.36698 
L 224.626859 300.334288 
L 224.705524 300.41057 
L 224.764523 300.465056 
L 224.803855 300.432364 
L 224.961185 300.595825 
L 225.03985 300.584928 
L 225.059517 300.650312 
L 225.295512 300.846465 
L 225.334844 300.802875 
L 225.374177 300.890054 
L 225.531507 301.097105 
L 225.551173 301.07531 
L 225.570839 301.064412 
L 225.590505 301.118899 
L 225.708503 301.249668 
L 225.728169 301.216976 
L 226.023163 301.69646 
L 226.042829 301.631076 
L 226.082162 301.74005 
L 226.121494 301.750947 
L 226.691816 302.546456 
L 226.967143 304.061192 
L 227.045808 302.688122 
L 227.104807 303.636194 
L 227.124473 303.745168 
L 227.183472 303.450939 
L 227.262137 303.200299 
L 227.380135 301.718255 
L 227.4588 301.9471 
L 227.61613 301.925305 
L 227.852125 302.339406 
L 227.970122 302.350303 
L 228.127452 302.590046 
L 228.186451 302.65543 
L 228.501111 303.418247 
L 228.520777 303.341965 
L 228.56011 303.222094 
L 228.579776 303.298375 
L 228.678107 304.213755 
L 228.71744 304.0285 
L 228.737106 304.017603 
L 228.835438 305.161828 
L 228.894436 304.638753 
L 228.933769 304.257345 
L 228.973101 303.886834 
L 229.0321 304.268242 
L 229.110765 303.625297 
L 229.327094 302.393893 
L 229.405759 302.993249 
L 229.523756 302.960557 
L 229.582755 302.775301 
L 229.641754 302.916967 
L 229.779418 303.102223 
L 230.035079 303.440041 
L 230.153077 303.341965 
L 230.074412 303.472734 
L 230.172743 303.396452 
L 230.959393 303.712476 
L 231.057724 303.657989 
L 231.274053 303.298375 
L 231.411717 303.36376 
L 231.608379 303.189402 
L 231.726377 303.167607 
L 231.824708 303.211196 
L 231.785376 303.145812 
L 231.844375 303.189402 
L 232.021371 303.287478 
L 232.041037 303.222094 
L 232.119702 303.298375 
L 232.650691 303.200299 
L 233.063682 301.227873 
L 233.319344 297.675327 
L 233.437341 296.378539 
L 233.476674 296.487512 
L 233.575005 297.41379 
L 233.869999 299.582369 
L 234.066661 300.61762 
L 234.302656 301.500308 
L 234.322323 301.467615 
L 234.361655 301.587487 
L 234.558318 302.121458 
L 234.577984 302.110561 
L 234.735314 302.361201 
L 234.75498 302.328509 
L 234.774646 302.263124 
L 234.833645 302.437482 
L 234.91231 302.437482 
L 234.931977 302.470175 
L 235.06964 302.568251 
L 235.108973 302.524661 
L 235.305635 302.69902 
L 235.443299 302.666327 
L 235.462965 302.688122 
L 235.620295 302.786199 
L 235.69896 302.775301 
L 235.895623 302.088766 
L 235.915289 302.132356 
L 236.131618 302.459277 
L 236.151284 302.382995 
L 236.190617 302.546456 
L 236.465944 303.32017 
L 236.485611 303.232991 
L 236.662607 302.895172 
L 236.721606 302.938762 
L 236.819937 303.091325 
L 236.859269 303.025941 
L 236.996933 302.982351 
L 237.0166 303.004146 
L 237.213262 303.058633 
L 237.704918 302.165048 
L 237.724585 302.175945 
L 237.921247 302.252227 
L 238.078577 302.579148 
L 238.235907 302.960557 
L 238.334239 303.995808 
L 238.373571 303.559913 
L 238.393237 303.352862 
L 238.471902 303.549015 
L 238.609566 303.886834 
L 238.648899 303.723373 
L 238.707897 303.6144 
L 238.74723 303.723373 
L 238.766896 303.854142 
L 238.786562 303.745168 
L 238.845561 302.426585 
L 238.943892 302.829788 
L 239.042224 302.818891 
L 239.140555 301.968895 
L 239.21922 302.252227 
L 239.415883 303.102223 
L 239.435549 303.025941 
L 239.474881 302.895172 
L 239.553546 302.927865 
L 239.907539 303.36376 
L 239.927205 303.341965 
L 239.946871 303.352862 
L 239.986204 303.254786 
L 240.025536 303.254786 
L 240.064869 303.331068 
L 240.497527 303.712476 
L 240.517193 303.668886 
L 240.595858 303.734271 
L 240.772854 304.148371 
L 240.812187 304.104782 
L 241.028515 303.505426 
L 241.087514 303.668886 
L 241.166179 303.6144 
L 241.461173 303.77786 
L 241.795499 303.483631 
L 242.110159 304.813111 
L 242.149492 304.660548 
L 242.208491 304.409908 
L 242.247823 304.573369 
L 242.503485 305.866525 
L 249.544004 303.854142 
L 249.583336 304.017603 
L 249.662001 303.930424 
L 249.740666 303.592605 
L 249.799665 303.603502 
L 250.055326 303.908629 
L 250.428985 304.23555 
L 250.50765 304.922085 
L 250.605982 304.606061 
L 250.684647 304.322729 
L 250.723979 304.191961 
L 250.763312 304.399011 
L 250.782978 304.420806 
L 250.802644 304.388114 
L 251.117304 301.663768 
L 251.648293 295.114442 
L 251.707292 294.983674 
L 251.746624 295.114442 
L 251.844956 295.866362 
L 252.041618 297.838788 
L 252.080951 297.566353 
L 252.120283 297.762506 
L 252.277613 299.048397 
L 252.513608 300.61762 
L 252.533275 300.486851 
L 252.9266 298.165709 
L 252.946266 298.252888 
L 253.005265 298.100325 
L 253.044597 298.198401 
L 253.064263 298.198401 
L 253.24126 298.699681 
L 253.260926 298.699681 
L 253.732916 301.206078 
L 253.752582 301.173386 
L 253.791915 301.28236 
L 253.811581 301.260565 
L 254.02791 301.838126 
L 254.067242 301.750947 
L 254.086909 301.870819 
L 254.126241 301.838126 
L 254.283571 302.110561 
L 254.303237 302.099664 
L 254.381902 302.165048 
L 254.519566 302.350303 
L 254.539232 302.306714 
L 254.558899 302.535559 
L 254.65723 302.481072 
L 254.794894 302.775301 
L 254.912891 303.298375 
L 254.932558 303.265683 
L 254.991556 302.993249 
L 255.030889 302.851583 
L 255.070221 303.015044 
L 255.148886 303.549015 
L 255.207885 303.385555 
L 255.365215 302.644533 
L 255.404548 302.840685 
L 255.719208 304.856701 
L 255.75854 304.69324 
L 255.896204 304.507985 
L 255.91587 304.497087 
L 256.014202 304.954777 
L 256.053534 304.90029 
L 283.192966 304.649651 
L 283.310963 304.366319 
L 283.330629 304.453498 
L 283.409294 304.388114 
L 283.428961 304.409908 
L 283.566625 304.878496 
L 283.605957 304.769522 
L 283.80262 304.23555 
L 283.861618 304.093884 
L 284.27461 301.315052 
L 284.43194 297.87148 
L 284.7466 290.668311 
L 284.785932 290.820874 
L 284.805599 290.777285 
L 284.825265 290.853566 
L 285.37592 295.964438 
L 285.454585 296.389436 
L 285.513584 296.236873 
L 285.651248 295.942643 
L 285.69058 296.106104 
L 285.729913 295.877259 
L 285.749579 295.964438 
L 285.788911 295.986233 
L 286.044573 293.730475 
L 286.398565 288.074734 
L 286.614894 283.105529 
L 286.654227 283.18181 
L 286.850889 285.611926 
L 287.145883 289.17537 
L 287.42121 292.346508 
L 287.480209 292.259329 
L 287.499875 292.215739 
L 287.775203 294.602265 
L 287.794869 294.569573 
L 287.814536 294.613163 
L 287.952199 295.092648 
L 287.991532 295.016366 
L 288.050531 295.299698 
L 288.306192 296.738152 
L 288.325858 296.694563 
L 288.365191 297.141355 
L 288.443856 297.108663 
L 288.483188 297.065074 
L 288.640518 297.642635 
L 288.699517 297.729814 
L 288.837181 297.152253 
L 288.89618 297.348405 
L 288.935512 297.184945 
L 289.014177 297.010587 
L 288.974845 297.315713 
L 289.033843 297.075971 
L 289.05351 297.20674 
L 289.073176 297.065074 
L 289.092842 297.086868 
L 289.230506 296.672768 
L 289.36817 296.160591 
L 289.545166 293.50163 
L 289.68283 289.284344 
L 289.99749 277.89658 
L 290.036822 278.060041 
L 290.213819 283.279887 
L 290.548145 290.483055 
L 290.567811 290.450363 
L 290.882471 292.520866 
L 290.980803 292.880479 
L 291.177465 293.872141 
L 291.197131 293.675988 
L 291.275796 293.95932 
L 291.315129 293.872141 
L 291.374128 294.100986 
L 291.492125 293.795859 
L 291.511791 294.024704 
L 291.590456 293.730475 
L 291.610123 293.828551 
L 291.649455 293.556117 
L 291.688788 293.414451 
L 291.72812 293.54522 
L 291.924783 292.08497 
L 292.082113 290.602927 
L 292.554103 279.182471 
L 292.809764 270.595335 
L 292.829431 270.377388 
L 292.868763 270.813283 
L 292.947428 272.883785 
L 293.321087 281.80874 
L 293.517749 283.966422 
L 293.537416 283.857448 
L 293.596414 284.042703 
L 293.616081 283.999114 
L 293.655413 284.162574 
L 293.675079 283.868345 
L 293.773411 282.070277 
L 293.930741 273.210707 
L 294.638726 203.576442 
L 294.737057 207.281552 
L 295.209047 258.826164 
L 295.681037 280.566439 
L 295.740036 280.381183 
L 295.759702 280.370286 
L 295.976031 283.574116 
L 296.271025 287.072175 
L 296.310358 287.30102 
L 296.50702 288.390758 
L 296.526686 288.368964 
L 296.66435 288.957422 
L 296.703683 288.892038 
L 297.116674 290.156134 
L 297.13634 290.134339 
L 297.274004 290.25421 
L 297.29367 290.112545 
L 297.352669 290.265108 
L 297.509999 290.842669 
L 297.529665 290.788182 
L 297.568998 290.940745 
L 297.726328 291.67087 
L 298.060654 293.229195 
L 298.099987 293.305477 
L 298.316316 293.861244 
L 298.984968 295.12534 
L 299.24063 296.138796 
L 299.260296 296.117001 
L 299.279962 296.24777 
L 299.476625 296.868921 
L 299.515957 296.868921 
L 299.535623 296.945202 
L 299.732286 297.609943 
L 299.751952 297.511866 
L 299.810951 297.718916 
L 299.830617 297.708019 
L 299.850283 297.762506 
L 300.164944 298.634296 
L 300.243609 298.568912 
L 300.282941 298.634296 
L 300.459937 298.895834 
L 300.617267 299.113781 
L 300.636934 299.004807 
L 300.735265 298.710578 
L 300.833596 298.775962 
L 300.853262 298.841347 
L 300.892595 298.74327 
L 300.912261 298.754168 
L 300.951594 298.656091 
L 301.030259 298.732373 
L 301.167923 298.852244 
L 301.226921 298.754168 
L 301.266254 298.863141 
L 301.462916 298.972115 
L 301.561248 298.99391 
L 301.580914 298.939423 
L 301.639913 299.048397 
L 301.816909 299.233652 
L 302.052904 299.691342 
L 302.07257 299.65865 
L 302.111903 299.745829 
L 302.131569 299.745829 
L 302.426563 300.399672 
L 302.446229 300.377877 
L 302.465895 300.432364 
L 302.54456 300.508646 
L 302.583893 300.454159 
L 303.252546 299.418908 
L 303.272212 299.440703 
L 303.488541 299.789419 
L 303.685203 300.127238 
L 303.940864 300.737491 
L 303.980197 300.726594 
L 303.999863 300.813773 
L 304.196526 301.03172 
L 304.393188 301.533 
L 304.471853 301.576589 
L 304.511186 301.511205 
L 304.943843 302.077869 
L 304.96351 302.056074 
L 305.75016 302.61184 
L 305.848491 302.720814 
L 305.868157 302.69902 
L 305.986155 302.731712 
L 306.182817 302.851583 
L 306.340148 302.807993 
L 306.37948 302.65543 
L 306.458145 302.677225 
L 306.635141 302.895172 
L 306.772805 303.047736 
L 306.949801 302.884275 
L 306.989134 302.949659 
L 307.205463 303.232991 
L 307.579122 303.440041 
L 307.598788 303.396452 
L 307.756118 303.091325 
L 308.188775 301.9471 
L 308.287107 300.029161 
L 308.503436 290.232416 
L 308.739431 280.751694 
L 308.759097 280.773489 
L 308.778763 280.610028 
L 308.818096 280.849771 
L 308.916427 283.258092 
L 309.211421 292.259329 
L 309.978405 299.288139 
L 310.017737 299.309934 
L 310.037403 299.353524 
L 310.37173 300.475954 
L 311.00105 302.350303 
L 311.040382 302.317611 
L 311.119047 302.426585 
L 311.669703 303.200299 
L 311.15838 302.393893 
L 311.689369 303.178504 
L 311.748368 303.331068 
L 312.082694 303.930424 
L 312.279356 304.148371 
L 312.41702 304.453498 
L 312.633349 304.540677 
L 312.869344 305.020162 
L 313.04634 304.998367 
L 313.223337 305.227212 
L 313.714993 304.780419 
L 313.734659 304.824009 
L 314.068986 304.747727 
L 314.324647 304.889393 
L 314.363979 304.791317 
L 314.52131 304.769522 
L 314.776971 305.259904 
L 314.796637 305.216315 
L 315.111297 305.15093 
L 315.248961 305.347083 
L 315.386625 305.35798 
L 315.77995 305.259904 
L 315.897947 305.096443 
L 315.93728 305.161828 
L 316.035611 305.172725 
L 316.192941 305.259904 
L 316.291272 305.140033 
L 316.330605 305.183622 
L 316.468269 305.281699 
L 316.743596 305.60862 
L 316.763263 305.575928 
L 316.999258 305.40157 
L 317.136921 304.148371 
L 317.235253 301.729153 
L 317.687577 285.230518 
L 317.746575 285.873463 
L 317.785908 286.015129 
L 318.159567 294.046499 
L 318.493893 299.309934 
L 318.592224 299.95288 
L 318.808553 301.227873 
L 319.280543 303.025941 
L 319.536204 303.581707 
L 319.555871 303.57081 
L 319.595203 303.668886 
L 319.732867 303.908629 
L 319.752533 303.843245 
L 320.008195 304.061192 
L 320.027861 303.98491 
L 320.145858 303.82145 
L 320.440852 303.712476 
L 320.460518 303.756065 
L 320.696514 303.974013 
L 320.853844 304.137474 
L 320.991507 302.230432 
L 321.168504 300.813773 
L 321.227502 300.61762 
L 321.286501 300.661209 
L 321.365166 300.791978 
L 321.443831 301.053515 
L 321.483164 300.879157 
L 321.50283 300.86826 
L 321.620827 299.4516 
L 321.738825 294.91829 
L 322.014153 265.800488 
L 322.269814 252.941578 
L 322.348479 255.230028 
L 322.938467 284.456804 
L 323.174462 291.736254 
L 323.70545 297.708019 
L 324.157774 299.604163 
L 324.334771 300.105443 
L 324.708429 300.846465 
L 324.767428 300.82467 
L 324.885426 300.181725 
L 324.924758 300.225314 
L 324.944425 300.236211 
L 325.101755 299.647753 
L 325.141087 299.538779 
L 325.18042 299.625958 
L 325.200086 299.560574 
L 325.239418 299.724035 
L 325.436081 300.715696 
L 325.49508 300.890054 
L 325.731075 301.641974 
L 325.868739 302.034279 
L 325.888405 302.012485 
L 326.045735 301.184284 
L 326.242397 299.593266 
L 326.321062 299.8657 
L 326.832385 302.633635 
L 326.91105 302.797096 
L 327.186378 303.15671 
L 328.071359 304.159269 
L 328.110692 304.07209 
L 328.504017 302.470175 
L 328.523683 302.470175 
L 328.582682 302.284919 
L 328.622014 302.481072 
L 328.64168 302.470175 
L 328.661347 302.535559 
L 329.408664 304.300935 
L 329.447997 304.257345 
L 329.467663 304.355421 
L 329.506996 304.322729 
L 329.723324 304.649651 
L 329.801989 304.725932 
L 330.037985 304.932983 
L 330.057651 304.911188 
L 330.096983 305.009264 
L 330.11665 304.976572 
L 330.27398 305.216315 
L 330.293646 305.205417 
L 330.470642 305.303494 
L 330.529641 305.325288 
L 330.549307 305.379775 
L 330.647638 305.477852 
L 330.824635 305.706697 
L 330.883633 305.663107 
L 330.922966 305.739389 
L 331.355624 305.913747 
L 331.453955 305.870157 
L 331.473621 305.90285 
L 331.53262 305.968234 
L 331.571952 305.946439 
L 331.748949 306.229771 
L 331.807947 306.120797 
L 331.886612 306.164387 
L 331.984944 306.164387 
L 332.00461 306.197079 
L 332.220939 306.425924 
L 332.279938 306.338745 
L 332.397935 306.327847 
L 332.417601 306.404129 
L 332.515933 306.36054 
L 332.771594 306.044515 
L 332.889591 305.990029 
L 332.909258 305.924644 
L 332.968256 306.088105 
L 332.987923 306.022721 
L 333.086254 306.099002 
L 333.10592 306.06631 
L 333.223918 306.142592 
L 333.440247 305.728491 
L 333.479579 305.65221 
L 333.558244 305.717594 
L 333.676242 305.60862 
L 333.715574 305.695799 
L 333.73524 305.674005 
L 334.128566 297.784301 
L 334.187564 298.383657 
L 334.462892 303.636194 
L 334.659554 304.48619 
L 334.738219 304.627856 
L 334.934882 305.227212 
L 335.170877 305.586825 
L 335.190543 305.521441 
L 335.249542 305.60862 
L 335.485537 306.022721 
L 335.505203 305.990029 
L 335.583868 305.979131 
L 335.603535 306.088105 
L 335.701866 306.011823 
L 335.83953 306.164387 
L 335.977193 306.349642 
L 336.232855 306.306053 
L 336.46885 306.524 
L 336.508182 306.534898 
L 336.586847 306.415026 
L 336.685179 306.513103 
L 336.704845 306.480411 
L 337.019505 306.785537 
L 337.058837 306.720153 
L 337.137502 306.622077 
L 337.314499 295.615722 
L 337.648825 199.326464 
L 337.786489 36.19267 
L 337.825821 45.237497 
L 337.943819 81.307828 
L 338.337144 202.37773 
L 338.730469 247.928783 
L 339.163127 278.735679 
L 339.458121 286.570896 
L 339.713782 290.243313 
L 340.61843 296.422128 
L 340.913423 297.544558 
L 341.149418 298.296478 
L 341.169085 298.274683 
L 341.188751 298.416349 
L 341.365747 298.765065 
L 341.523077 299.135576 
L 341.700074 299.418908 
L 341.71974 299.386216 
L 341.798405 299.4516 
L 341.995067 299.767624 
L 342.0344 299.691342 
L 342.211396 297.947761 
L 342.231062 297.958659 
L 342.250729 297.882377 
L 342.408059 296.683665 
L 342.486724 297.054176 
L 342.82105 299.724035 
L 343.273374 301.260565 
L 344.138689 302.949659 
L 344.197688 303.036838 
L 344.315685 303.189402 
L 344.335352 303.167607 
L 344.846674 289.317036 
L 344.945006 290.75549 
L 345.357997 298.296478 
L 345.849653 301.511205 
L 346.223312 302.524661 
L 346.262645 302.263124 
L 346.380642 301.729153 
L 346.754301 297.086868 
L 346.773967 297.108663 
L 346.852632 296.313154 
L 346.950964 293.163811 
L 347.088627 287.900376 
L 347.12796 288.107426 
L 347.147626 288.118324 
L 347.363955 290.79908 
L 347.658949 294.395215 
L 347.776946 295.038161 
L 347.835945 294.8747 
L 347.894944 294.613163 
L 348.032608 292.891377 
L 348.406266 284.042703 
L 348.465265 284.772828 
L 348.996254 294.297139 
L 349.133918 295.397774 
L 349.586242 298.274683 
L 349.664907 298.601604 
L 349.841903 299.222755 
L 349.959901 299.4516 
L 349.979567 299.353524 
L 350.058232 298.95032 
L 350.156563 297.795198 
L 350.294227 294.144575 
L 350.687552 282.669633 
L 350.707218 282.549762 
L 350.746551 282.680531 
L 351.257873 287.736915 
L 351.27754 287.671531 
L 351.336538 287.867684 
L 351.670865 289.513189 
L 352.260852 296.792639 
L 352.595179 298.830449 
L 352.929505 300.138135 
L 352.968838 300.279801 
L 353.086835 300.530441 
L 353.283498 300.999028 
L 353.381829 301.260565 
L 353.578491 301.631076 
L 353.814487 302.088766 
L 353.853819 302.165048 
L 354.030815 302.415688 
L 354.188145 302.61184 
L 354.483139 303.047736 
L 354.522472 303.036838 
L 354.561804 303.091325 
L 354.758467 303.309273 
L 355.092793 303.690681 
L 355.171458 303.701579 
L 355.368121 303.98491 
L 355.387787 303.930424 
L 355.466452 304.039397 
L 355.958108 304.213755 
L 355.977775 304.170166 
L 356.036773 304.290037 
L 356.05644 304.257345 
L 356.21377 304.23555 
L 356.469431 304.420806 
L 356.489097 304.399011 
L 356.567762 304.409908 
L 356.587428 304.4426 
L 356.784091 304.497087 
L 356.980754 304.475293 
L 357.079085 304.551574 
L 357.098751 304.52978 
L 357.197082 304.518882 
L 357.216749 304.540677 
L 357.649406 304.889393 
L 357.826402 305.052854 
L 357.924734 305.052854 
L 358.062398 305.172725 
L 358.082064 305.161828 
L 358.318059 305.390673 
L 358.337725 305.314391 
L 358.495055 305.009264 
L 358.691718 304.606061 
L 358.750716 304.388114 
L 359.085043 302.786199 
L 359.262039 302.851583 
L 359.301372 302.960557 
L 359.321038 302.916967 
L 359.340704 302.622738 
L 359.439035 302.688122 
L 359.596365 302.873378 
L 359.753695 302.600943 
L 359.773362 302.644533 
L 359.83236 302.840685 
L 359.852027 302.90607 
L 359.871693 302.797096 
L 359.891359 302.590046 
L 359.970024 302.720814 
L 359.989691 302.797096 
L 360.088022 302.753506 
L 360.107688 302.807993 
L 360.166687 302.677225 
L 360.284684 302.829788 
L 360.540346 304.0285 
L 360.756674 304.616959 
L 360.815673 304.725932 
L 361.032002 305.172725 
L 361.051668 305.15093 
L 361.366328 305.630415 
L 361.543325 305.881055 
L 361.661322 305.90285 
L 361.838318 306.033618 
L 362.09398 306.1099 
L 362.25131 306.218874 
L 362.664301 306.338745 
L 362.703634 306.393232 
L 362.998627 305.826568 
L 363.254289 304.627856 
L 363.293621 304.682343 
L 363.804944 305.554133 
L 364.099938 305.674005 
L 364.13927 305.532339 
L 364.217935 305.597723 
L 364.394932 305.597723 
L 364.61126 305.434262 
L 364.630927 305.499646 
L 364.827589 305.750286 
L 364.906254 305.826568 
L 365.08325 306.000926 
L 365.633906 306.27336 
L 365.909233 305.259904 
L 366.027231 305.140033 
L 366.066563 305.205417 
L 366.125562 305.270801 
L 366.479555 306.077208 
L 366.951545 306.513103 
L 366.971211 306.469513 
L 367.049876 306.371437 
L 367.089208 306.306053 
L 367.266205 305.456057 
L 367.521866 304.181063 
L 367.541532 304.27914 
L 367.993856 305.60862 
L 368.269184 305.85926 
L 369.272163 306.81823 
L 369.409827 306.905409 
L 369.586823 306.992588 
L 369.724487 307.003485 
L 369.86215 307.003485 
L 369.999814 307.101561 
L 370.01948 307.090664 
L 370.452138 307.177843 
L 370.589802 307.254125 
L 370.609468 307.23233 
L 370.747132 307.18874 
L 370.904462 307.341304 
L 370.924128 307.319509 
L 371.140457 307.286817 
L 371.297787 307.352201 
L 371.474783 307.330406 
L 372.084437 307.101561 
L 372.2811 307.23233 
L 372.497429 307.23233 
L 372.615426 307.134254 
L 372.851421 306.643871 
L 372.969419 306.251566 
L 373.126749 306.011823 
L 373.146415 306.044515 
L 373.69707 306.502205 
L 373.775735 306.56759 
L 375.958689 307.668225 
L 376.057021 307.69002 
L 376.214351 307.744507 
L 376.352014 307.700917 
L 376.450346 307.635533 
L 376.509345 307.69002 
L 376.666675 307.766302 
L 376.686341 307.722712 
L 376.90267 307.722712 
L 377.06 307.831686 
L 377.177997 307.875275 
L 377.197663 307.853481 
L 377.453325 307.722712 
L 377.551656 307.777199 
L 377.571322 307.744507 
L 377.767985 307.755404 
L 377.866316 307.711815 
L 377.885982 307.722712 
L 378.397305 307.635533 
L 378.672633 307.286817 
L 378.770964 307.199638 
L 378.928294 307.101561 
L 379.026625 307.199638 
L 379.085624 307.145151 
L 379.223288 307.156048 
L 379.321619 307.210535 
L 379.636279 307.27592 
L 379.832942 307.057972 
L 380.108269 306.676564 
L 380.2066 306.643871 
L 380.36393 306.534898 
L 380.737589 306.447719 
L 380.953918 306.556692 
L 381.307911 306.632974 
L 382.133893 305.881055 
L 382.291223 306.033618 
L 382.31089 306.011823 
L 382.487886 306.120797 
L 382.900877 306.600282 
L 383.077874 306.709256 
L 383.25487 306.872716 
L 383.56953 306.959895 
L 383.687527 307.014382 
L 383.707194 307.003485 
L 383.72686 307.02528 
L 383.805525 306.948998 
L 383.962855 306.938101 
L 384.257849 307.014382 
L 384.336514 306.970793 
L 384.375846 307.003485 
L 384.51351 307.003485 
L 384.847837 307.090664 
L 385.024833 307.210535 
L 385.14283 307.243227 
L 385.280494 307.27592 
L 385.30016 307.221433 
L 385.398492 307.265022 
L 386.342472 307.352201 
L 386.499802 307.472072 
L 386.814462 307.341304 
L 387.070123 305.499646 
L 387.306118 303.679784 
L 387.384783 303.919526 
L 387.640445 304.922085 
L 387.915772 305.456057 
L 387.994437 305.532339 
L 389.174413 306.676564 
L 389.312076 306.632974 
L 389.331743 306.676564 
L 389.410408 306.622077 
L 389.843065 306.73105 
L 390.787045 307.156048 
L 391.042707 306.632974 
L 391.180371 306.545795 
L 391.318034 306.502205 
L 391.652361 306.393232 
L 392.380012 304.518882 
L 392.675006 303.974013 
L 392.891335 304.497087 
L 393.146996 305.140033 
L 393.186329 305.15093 
L 393.205995 305.205417 
L 393.835315 306.044515 
L 393.894314 306.06631 
L 394.051644 306.349642 
L 394.169641 306.349642 
L 394.307305 306.524 
L 394.326971 306.491308 
L 394.5433 306.589385 
L 394.720296 306.513103 
L 394.759629 306.56759 
L 394.798961 306.491308 
L 395.074289 306.240668 
L 395.192287 306.131695 
L 395.270952 306.1099 
L 395.290618 306.153489 
L 395.408615 306.27336 
L 395.428282 306.153489 
L 395.506947 306.251566 
L 395.64461 306.284258 
L 395.900272 306.31695 
L 396.155933 306.27336 
L 396.175599 306.306053 
L 396.254264 306.229771 
L 396.411594 306.120797 
L 396.667256 306.338745 
L 397.43424 306.654769 
L 397.493238 306.56759 
L 397.571903 306.632974 
L 398.260222 306.73105 
L 398.437219 306.763743 
L 398.633881 306.752845 
L 398.810877 306.829127 
L 398.830544 306.807332 
L 399.223869 306.534898 
L 399.361533 306.491308 
L 399.538529 306.436821 
L 399.853189 306.491308 
L 400.285847 306.415026 
L 400.816835 302.557354 
L 401.131495 302.481072 
L 401.347824 303.025941 
L 401.623152 303.745168 
L 402.114808 304.889393 
L 402.134474 304.867598 
L 402.193473 304.965675 
L 402.665463 305.565031 
L 402.940791 305.456057 
L 403.294783 304.769522 
L 403.530779 305.096443 
L 403.648776 305.249007 
L 403.983102 305.85926 
L 404.160099 306.175284 
L 404.317429 306.393232 
L 404.396094 306.469513 
L 404.435426 306.349642 
L 404.533758 306.088105 
L 404.57309 306.142592 
L 404.691088 306.088105 
L 404.966415 306.011823 
L 405.104079 305.870157 
L 405.123745 305.891952 
L 405.399073 305.837465 
L 405.51707 305.881055 
L 405.536737 305.837465 
L 405.595735 305.924644 
L 405.615402 305.924644 
L 405.792398 306.120797 
L 405.949728 306.229771 
L 406.107058 306.284258 
L 406.244722 306.458616 
L 406.264388 306.447719 
L 406.362719 306.447719 
L 406.480717 306.480411 
L 406.834709 306.556692 
L 407.129703 306.665666 
L 407.287033 306.720153 
L 407.464029 306.752845 
L 408.09335 306.665666 
L 408.172015 306.622077 
L 408.191681 306.698358 
L 408.368677 306.698358 
L 408.486675 306.698358 
L 408.585006 306.741948 
L 408.703004 306.785537 
L 408.72267 306.763743 
L 408.899666 306.861819 
L 409.19466 307.057972 
L 409.273325 306.970793 
L 409.312657 307.003485 
L 409.587985 307.145151 
L 409.686316 307.112459 
L 409.784648 307.101561 
L 409.804314 307.123356 
L 410.118974 307.23233 
L 410.433634 307.504765 
L 410.472966 308.016941 
L 440.306675 307.798994 
L 440.38534 307.363099 
L 440.54267 307.668225 
L 440.778665 307.668225 
L 440.935995 307.973352 
L 441.01466 307.973352 
L 441.17199 308.14771 
L 441.250655 308.14771 
L 441.48665 308.365658 
L 441.64398 308.452837 
L 441.95864 308.540016 
L 442.194635 308.757963 
L 442.666626 309.368217 
L 443.059951 309.281038 
L 443.295946 309.237448 
L 443.689271 308.060531 
L 444.003931 307.842583 
L 444.318591 307.973352 
L 445.262571 307.057972 
L 445.577231 307.057972 
L 445.734561 306.927203 
L 445.813226 306.927203 
L 445.970556 306.752845 
L 446.285216 306.752845 
L 446.521211 307.014382 
L 446.835872 307.23233 
L 446.993202 307.363099 
L 447.307862 307.450278 
L 447.858517 307.668225 
L 448.251842 307.537457 
L 448.487837 307.450278 
L 448.723832 307.101561 
L 449.038492 305.837465 
L 449.195822 305.575928 
L 449.431817 304.791317 
L 449.667812 303.875937 
L 449.982472 301.827229 
L 450.297132 299.211858 
L 450.769122 297.511866 
L 451.005118 297.337508 
L 451.162448 297.16315 
L 451.634438 297.16315 
L 451.791768 297.337508 
L 452.342423 297.337508 
L 453.758393 301.522102 
L 454.269716 305.314391 
L 454.309048 305.270801 
L 454.348381 305.390673 
L 454.368047 305.379775 
L 454.387713 305.44516 
L 454.525377 305.695799 
L 454.545043 305.663107 
L 454.623708 305.35798 
L 454.781038 304.889393 
L 454.800705 304.922085 
L 454.840037 304.976572 
L 454.918702 305.793876 
L 454.977701 305.183622 
L 455.017034 305.19452 
L 455.076032 304.649651 
L 455.154697 304.769522 
L 455.233362 304.94388 
L 455.331694 304.845804 
L 455.410359 305.891952 
L 455.449691 305.19452 
L 455.548022 304.573369 
L 455.587355 304.889393 
L 455.607021 304.932983 
L 455.626687 304.791317 
L 455.803684 304.257345 
L 455.902015 304.878496 
L 455.961014 304.562472 
L 456.216675 299.048397 
L 456.472336 292.324713 
L 456.551001 292.477276 
L 456.570668 292.346508 
L 456.727998 288.390758 
L 456.885328 282.01579 
L 456.944326 282.778607 
L 457.08199 285.241415 
L 457.121323 284.478599 
L 457.219654 277.144661 
L 457.475315 264.16588 
L 457.593313 262.967168 
L 457.770309 256.755661 
L 458.084969 248.691599 
L 458.143968 248.800573 
L 458.183301 248.473652 
L 458.537293 258.499242 
L 459.422275 288.804859 
L 459.579605 292.477276 
L 459.65827 295.779183 
L 459.717268 294.842008 
L 459.795933 294.264447 
L 459.854932 294.525984 
L 460.248257 297.20674 
L 460.523585 298.416349 
L 460.739914 298.961218 
L 460.897244 298.754168 
L 460.975909 298.568912 
L 461.054574 298.688783 
L 461.880556 300.661209 
L 462.411545 301.358642 
L 462.49021 301.413129 
L 462.627874 301.543897 
L 462.844203 301.195181 
L 463.001533 300.726594 
L 463.11953 300.704799 
L 463.296527 300.606722 
L 463.316193 300.639415 
L 463.335859 300.563133 
L 463.375192 300.563133 
L 463.414524 300.541338 
L 463.453857 300.606722 
L 463.512856 300.639415 
L 463.552188 300.584928 
L 463.768517 298.841347 
L 464.004512 289.349728 
L 464.201174 275.281209 
L 464.378171 268.197911 
L 464.397837 268.74278 
L 464.417503 268.74278 
L 464.614166 273.537628 
L 465.302485 293.011248 
L 465.636811 295.212519 
L 465.656477 295.190724 
L 465.676144 295.267006 
L 465.715476 295.12534 
L 465.931805 294.471497 
L 466.030136 294.427907 
L 466.049802 294.449702 
L 466.187466 294.940084 
L 466.679123 297.522764 
L 466.974116 298.863141 
L 467.288776 300.301596 
L 467.308443 300.290698 
L 467.328109 300.334288 
L 468.075427 302.459277 
L 468.429419 302.851583 
L 468.468752 302.840685 
L 468.488418 302.90607 
L 468.508084 302.884275 
L 468.665414 303.080428 
L 468.783412 303.047736 
L 468.940742 303.178504 
L 469.137404 303.440041 
L 469.216069 303.331068 
L 469.393066 303.407349 
L 469.609395 303.625297 
L 469.786391 303.494528 
L 469.84539 303.450939 
L 470.042052 303.124017 
L 470.120717 302.873378 
L 470.356712 301.543897 
L 470.494376 298.416349 
L 470.592707 291.638178 
L 470.809036 277.569659 
L 470.868035 277.101072 
L 470.907367 277.351711 
L 471.497355 288.270887 
L 471.556354 288.456143 
L 471.615353 288.347169 
L 471.969345 286.603588 
L 472.814994 294.406113 
L 473.031323 294.896495 
L 473.050989 294.863803 
L 473.109988 292.008689 
L 473.14932 290.777285 
L 473.188653 293.577912 
L 473.267318 297.751609 
L 473.326317 296.66187 
L 473.46398 295.811875 
L 473.483647 295.822772 
L 473.503313 295.811875 
L 473.699976 296.476615 
L 474.624289 299.353524 
L 474.840618 299.843906 
L 474.860285 299.822111 
L 474.899617 299.90929 
L 475.076613 300.268904 
L 475.548603 301.249668 
L 475.666601 301.74005 
L 475.686267 301.729153 
L 475.981261 301.805434 
L 476.19759 302.121458 
L 476.315587 302.15415 
L 476.453251 302.306714 
L 477.2989 303.538118 
L 477.338233 303.494528 
L 477.397231 303.581707 
L 477.515229 303.766963 
L 477.61356 303.886834 
L 477.652893 303.799655 
L 477.77089 303.690681 
L 477.849555 303.712476 
L 477.869222 303.756065 
L 477.987219 303.865039 
L 478.124883 304.07209 
L 478.282213 303.930424 
L 478.478875 304.050295 
L 478.852534 304.137474 
L 479.029531 304.311832 
L 479.206527 304.202858 
L 479.344191 304.4426 
L 479.737516 303.309273 
L 479.87518 302.938762 
L 479.894846 302.960557 
L 480.229172 302.873378 
L 480.524166 302.034279 
L 480.720828 301.151591 
L 480.779827 301.020823 
L 480.838826 301.118899 
L 481.487812 303.265683 
L 481.527145 303.243889 
L 481.546811 303.287478 
L 481.782806 303.854142 
L 481.999135 303.941321 
L 482.038468 303.930424 
L 482.097466 303.995808 
L 482.766119 304.595164 
L 482.825118 304.649651 
L 482.884116 304.573369 
L 483.297108 305.063751 
L 483.375773 304.976572 
L 483.474104 304.998367 
L 483.769098 305.510544 
L 483.788764 305.477852 
L 483.926428 305.423365 
L 483.946094 305.466954 
L 484.103424 305.65221 
L 484.221422 305.793876 
L 484.260754 305.772081 
L 485.303066 306.27336 
L 485.401397 306.251566 
L 485.421063 306.27336 
L 485.499728 306.349642 
L 485.637392 306.502205 
L 485.676725 306.458616 
L 485.814388 306.393232 
L 486.109382 306.77464 
L 486.148715 306.741948 
L 486.601039 306.98169 
L 486.640371 306.905409 
L 486.738702 306.709256 
L 486.797701 306.796435 
L 487.033696 307.145151 
L 487.132028 307.036177 
L 487.250025 306.970793 
L 487.466354 307.210535 
L 487.525353 307.243227 
L 487.545019 307.18874 
L 487.702349 307.123356 
L 488.213672 307.297714 
L 488.312003 307.341304 
L 488.43 307.341304 
L 488.705328 307.068869 
L 488.783993 307.003485 
L 488.862658 306.970793 
L 488.882324 307.02528 
L 488.980655 307.134254 
L 489.019988 307.090664 
L 489.177318 307.177843 
L 489.255983 307.243227 
L 489.550977 307.319509 
L 489.590309 307.286817 
L 489.649308 307.330406 
L 490.003301 307.581046 
L 490.160631 307.570149 
L 490.416292 307.461175 
L 490.53429 307.395791 
L 490.553956 307.406688 
L 490.671953 307.297714 
L 491.025946 305.009264 
L 491.104611 303.712476 
L 491.281607 297.010587 
L 491.47827 283.966422 
L 491.753597 261.986404 
L 491.773264 262.095378 
L 491.79293 261.986404 
L 492.42225 291.561896 
L 492.481249 291.997791 
L 492.520581 291.62728 
L 492.618913 290.657414 
L 492.677911 290.842669 
L 492.815575 294.00291 
L 493.071236 297.925967 
L 493.562893 300.661209 
L 493.582559 300.606722 
L 493.621892 300.813773 
L 493.897219 302.208637 
L 494.113548 302.938762 
L 494.15288 302.818891 
L 494.290544 301.750947 
L 494.683869 294.711239 
L 494.801867 295.212519 
L 495.391855 301.707358 
L 495.804846 303.080428 
L 495.922843 303.243889 
L 496.080173 303.36376 
L 496.139172 303.341965 
L 496.178505 303.385555 
L 497.338814 305.129135 
L 497.476478 305.227212 
L 497.633808 305.303494 
L 497.771471 305.35798 
L 497.909135 305.543236 
L 498.027133 305.488749 
L 498.184463 305.663107 
L 498.243461 305.750286 
L 498.440124 305.990029 
L 498.518789 306.044515 
L 498.872782 306.436821 
L 498.892448 306.415026 
L 498.951447 306.480411 
L 499.187442 306.741948 
L 499.266107 306.741948 
L 499.285773 306.763743 
L 499.698764 307.079767 
L 499.718431 307.047075 
L 499.797096 307.123356 
L 500.210087 307.23233 
L 500.328084 306.796435 
L 500.426416 307.014382 
L 500.662411 307.363099 
L 501.055736 307.679123 
L 501.1934 307.722712 
L 502.943696 308.801553 
L 503.101026 308.899629 
L 503.219024 308.877835 
L 503.671348 309.030398 
L 503.828678 309.0195 
L 503.966342 309.084885 
L 504.281002 309.161166 
L 504.359667 309.161166 
L 504.379333 309.193859 
L 504.556329 309.215653 
L 505.421644 309.586164 
L 505.539642 309.259243 
L 505.559308 309.281038 
L 505.716638 308.550913 
L 505.873968 307.864378 
L 505.991966 307.23233 
L 506.031298 307.308612 
L 506.542621 308.888732 
L 506.975279 309.27014 
L 507.07361 309.226551 
L 507.093276 309.248345 
L 507.23094 309.281038 
L 507.368604 309.281038 
L 507.5456 309.31373 
L 507.820928 309.379114 
L 507.840594 309.302832 
L 507.879926 309.400909 
L 507.919259 309.400909 
L 508.115921 309.455396 
L 508.233919 309.553472 
L 508.312584 309.586164 
L 508.33225 309.509883 
L 508.391249 307.94066 
L 508.528913 306.622077 
L 508.686243 307.254125 
L 508.745242 307.101561 
L 508.80424 307.156048 
L 509.217232 308.496426 
L 509.374562 308.594503 
L 509.453227 308.659887 
L 509.826886 308.757963 
L 509.944883 308.747066 
L 509.964549 308.790655 
L 510.436539 309.161166 
L 510.731533 309.455396 
L 510.849531 309.455396 
L 511.22319 309.760522 
L 511.242856 309.72783 
L 511.38052 309.716933 
L 511.400186 309.760522 
L 511.773845 309.847701 
L 511.950841 309.945778 
L 512.108171 310.011162 
L 512.206502 309.956675 
L 512.344166 309.97847 
L 512.63916 310.18552 
L 512.658826 310.163725 
L 512.835822 310.18552 
L 512.973486 310.316289 
L 512.993153 310.305391 
L 513.091484 310.261802 
L 513.229148 309.804112 
L 513.602806 309.041295 
L 513.937133 309.335525 
L 514.153462 309.488088 
L 515.274438 310.22911 
L 515.490767 310.327186 
L 515.667763 310.327186 
L 515.844759 310.501544 
L 515.903758 310.447057 
L 516.15942 310.425263 
L 516.415081 310.545134 
L 516.552745 310.501544 
L 516.867405 310.425263 
L 517.26073 309.172064 
L 517.339395 308.954116 
L 517.398394 309.073987 
L 517.870384 310.065649 
L 517.968715 310.109239 
L 518.421039 310.447057 
L 519.227355 310.795774 
L 519.424018 310.741287 
L 520.033672 310.85026 
L 520.171336 310.89385 
L 520.191002 310.872055 
L 520.721991 310.763081 
L 520.977652 310.447057 
L 521.036651 310.545134 
L 521.233313 310.6868 
L 521.449642 310.447057 
L 521.646305 309.27014 
L 521.764302 306.534898 
L 521.823301 305.554133 
L 521.8823 305.739389 
L 522.137961 307.23233 
L 522.373956 307.984249 
L 522.609951 308.180402 
L 522.747615 308.256684 
L 522.767281 308.180402 
L 522.786947 308.115018 
L 522.845946 308.256684 
L 523.062275 308.670784 
L 523.573598 309.291935 
L 523.711261 308.659887 
L 523.947256 307.352201 
L 524.025921 306.741948 
L 524.08492 306.970793 
L 524.39958 308.550913 
L 524.812572 309.226551 
L 524.989568 309.335525 
L 525.18623 309.56437 
L 525.835217 310.131033 
L 526.012213 310.131033 
L 526.34654 310.370776 
L 526.464537 310.316289 
L 526.81853 310.545134 
L 526.97586 310.556031 
L 527.192188 310.719492 
L 527.349519 310.632313 
L 527.487182 310.22911 
L 527.526515 310.250905 
L 527.703511 310.043854 
L 527.860841 309.684241 
L 527.959172 309.825907 
L 528.018171 309.902188 
L 528.07717 309.825907 
L 528.273832 309.302832 
L 528.568826 307.515662 
L 528.745823 305.205417 
L 528.981818 299.604163 
L 529.060483 300.050956 
L 529.316144 302.066971 
L 529.552139 304.780419 
L 530.555118 308.234889 
L 530.987776 308.932321 
L 531.440099 309.488088 
L 532.305415 310.087444 
L 532.462745 310.163725 
L 532.659407 310.174623 
L 532.875736 310.414365 
L 532.895402 310.370776 
L 533.682053 310.468852 
L 533.878715 310.599621 
L 534.11471 310.577826 
L 534.449036 310.654108 
L 534.665365 310.632313 
L 534.862028 310.763081 
L 535.039024 310.773979 
L 535.334018 310.93744 
L 535.471682 310.839363 
L 535.570013 310.806671 
L 535.589679 310.85026 
L 535.904339 310.741287 
L 536.022337 310.566929 
L 536.513993 308.14771 
L 536.612324 308.431042 
L 536.946651 309.422704 
L 537.143313 309.662446 
L 537.300643 308.801553 
L 537.733301 305.728491 
L 537.870965 305.031059 
L 537.929964 305.205417 
L 538.185625 306.785537 
L 538.224957 306.120797 
L 538.441286 305.238109 
L 538.618282 303.418247 
L 538.73628 301.729153 
L 538.795279 301.987057 
L 539.188604 306.022721 
L 539.83759 308.213094 
L 539.857257 308.169505 
L 539.896589 308.336598 
L 540.073585 308.510956 
L 540.62424 308.986808 
L 540.722572 308.899629 
L 540.938901 308.016941 
L 541.017566 307.766302 
L 541.253561 306.872716 
L 541.292893 307.047075 
L 541.882881 308.387452 
L 542.079543 308.616297 
L 542.767862 309.237448 
L 542.964525 309.237448 
L 543.338184 309.52078 
L 543.51518 309.455396 
L 543.751175 309.618856 
L 543.770841 309.597062 
L 543.928171 309.56437 
L 544.419828 309.716933 
L 544.596824 309.815009 
L 544.734488 309.836804 
L 544.813153 309.618856 
L 544.872151 309.760522 
L 545.068814 309.945778 
L 545.285143 310.02206 
L 545.658802 310.152828 
L 545.855464 309.509883 
L 546.071793 307.48297 
L 546.248789 303.810552 
L 546.307788 304.268242 
L 546.701113 308.180402 
L 546.996107 308.899629 
L 547.094438 308.965014 
L 547.114105 308.943219 
L 547.232102 308.910527 
L 547.468097 309.008603 
L 547.625427 309.226551 
L 547.66476 309.204756 
L 547.841756 309.204756 
L 548.058085 309.400909 
L 548.195749 309.411806 
L 548.353079 309.498985 
L 548.45141 309.56437 
L 548.471076 309.542575 
L 548.687405 309.542575 
L 548.962732 309.684241 
L 549.159395 308.757963 
L 549.277393 308.943219 
L 549.316725 308.910527 
L 549.651051 308.39835 
L 549.828048 308.583605 
L 550.005044 308.757963 
L 550.909692 309.597062 
L 551.086688 309.586164 
L 551.165353 309.640651 
L 551.263684 309.749625 
L 551.303017 309.716933 
L 552.404327 309.804112 
L 552.561657 309.902188 
L 552.718987 309.956675 
L 552.738653 309.93488 
L 553.131978 310.043854 
L 553.249976 310.043854 
L 553.38764 310.02206 
L 553.564636 310.065649 
L 553.839964 310.032957 
L 554.095625 310.141931 
L 554.213623 310.131033 
L 554.272621 310.141931 
L 554.292288 310.076546 
L 554.823276 308.692579 
L 554.901941 308.757963 
L 555.039605 309.06309 
L 555.098604 309.030398 
L 555.216601 308.932321 
L 555.236268 308.943219 
L 555.550928 309.281038 
L 555.609927 309.193859 
L 555.649259 309.117577 
L 555.708258 309.193859 
L 556.160582 309.586164 
L 556.180248 309.553472 
L 556.612906 309.673343 
L 556.966898 309.77142 
L 557.104562 309.804112 
L 557.320891 309.586164 
L 557.478221 309.27014 
L 557.69455 308.038736 
L 557.832213 307.43938 
L 557.871546 307.559251 
L 558.402535 308.725271 
L 558.658196 308.975911 
L 558.894191 309.248345 
L 559.071187 309.281038 
L 559.464513 309.379114 
L 559.621843 309.379114 
L 559.798839 309.586164 
L 559.838171 309.542575 
L 559.956169 309.498985 
L 560.074166 309.488088 
L 560.270829 309.695138 
L 560.467492 309.695138 
L 560.880483 309.804112 
L 561.627801 309.913086 
L 561.706466 309.93488 
L 561.726132 309.913086 
L 561.922794 309.847701 
L 562.257121 309.913086 
L 562.414451 309.847701 
L 562.434117 309.880394 
L 562.670112 309.891291 
L 562.807776 309.891291 
L 563.240433 309.782317 
L 563.515761 309.498985 
L 563.594426 309.444498 
L 563.791089 309.052193 
L 563.88942 309.117577 
L 564.086082 309.31373 
L 564.105749 309.281038 
L 564.20408 309.291935 
L 564.223746 309.31373 
L 564.794068 309.509883 
L 564.951398 309.575267 
L 565.089061 309.673343 
L 565.384055 309.607959 
L 565.502053 309.716933 
L 565.521719 309.684241 
L 566.387034 309.575267 
L 566.878691 309.193859 
L 566.996688 309.0195 
L 567.213017 308.790655 
L 567.626008 308.877835 
L 567.842337 309.052193 
L 568.176663 309.150269 
L 568.35366 309.259243 
L 568.471657 309.291935 
L 568.66832 309.390011 
L 568.805984 309.455396 
L 569.14031 309.379114 
L 569.415637 309.422704 
L 569.553301 309.411806 
L 569.848295 309.455396 
L 571.087269 309.542575 
L 571.106935 309.586164 
L 571.1856 309.498985 
L 572.463907 309.597062 
L 572.621237 309.629754 
L 572.758901 309.586164 
L 572.97523 309.586164 
L 573.112893 309.575267 
L 573.28989 308.932321 
L 573.565217 306.186181 
L 573.781546 303.723373 
L 573.820878 303.788758 
L 573.899544 304.170166 
L 574.23387 305.674005 
L 574.666527 306.73105 
L 575.433511 307.853481 
L 575.453178 307.820789 
L 575.49251 307.89707 
L 575.531843 307.89707 
L 575.787504 308.006044 
L 576.298827 308.169505 
L 576.928147 307.94066 
L 577.734463 308.267581 
L 577.832794 308.169505 
L 577.852461 308.202197 
L 578.049123 308.332965 
L 578.245786 308.278479 
L 578.403116 308.300273 
L 578.481781 308.278479 
L 578.501447 308.322068 
L 578.521113 308.598135 
L 607.194513 310.02206 
L 611.757084 310.109239 
L 611.993079 310.152828 
L 615.375675 310.240007 
L 632.229655 308.81245 
L 632.603314 307.515662 
L 632.78031 305.434262 
L 633.016305 298.220196 
L 633.645625 273.428654 
L 633.763623 274.082497 
L 633.783289 273.755576 
L 633.861954 272.229942 
L 634.019284 269.614571 
L 634.215947 271.903021 
L 634.255279 271.140204 
L 634.294612 270.486361 
L 634.432276 267.217147 
L 634.471608 267.653042 
L 634.550273 269.614571 
L 634.628938 270.704309 
L 634.668271 270.050466 
L 634.805935 266.018435 
L 634.923932 264.928697 
L 634.943598 265.037671 
L 635.140261 267.544069 
L 635.179593 266.999199 
L 635.454921 260.242823 
L 635.474587 260.242823 
L 635.631917 257.409504 
L 635.966244 246.948018 
L 636.261237 255.883871 
L 636.61523 277.536967 
L 637.067554 289.044601 
L 637.126553 289.894597 
L 637.972202 298.514425 
L 638.070533 298.961218 
L 638.247529 299.538779 
L 638.34586 299.789419 
L 638.522857 300.36698 
L 638.896515 301.184284 
L 638.935848 300.922746 
L 639.388172 297.806095 
L 639.565168 296.356744 
L 639.643833 296.640076 
L 639.742164 297.511866 
L 640.076491 300.094545 
L 640.13549 300.301596 
L 640.332152 300.879157 
L 640.351818 300.890054 
L 640.371485 300.802875 
L 640.430483 300.606722 
L 640.804142 298.176606 
L 640.92214 298.002248 
L 640.941806 297.958659 
L 640.961472 298.056735 
L 641.197467 298.765065 
L 641.217134 298.645194 
L 641.256466 298.830449 
L 641.276132 298.819552 
L 641.295799 298.906731 
L 641.315465 298.775962 
L 641.374464 298.797757 
L 641.512127 297.642635 
L 641.787455 293.098427 
L 642.043116 283.770269 
L 642.082449 283.802961 
L 642.259445 285.383081 
L 642.279111 285.099749 
L 642.33811 284.162574 
L 642.731435 272.44789 
L 642.770768 272.556864 
L 643.813079 293.29458 
L 644.619396 298.089427 
L 644.639062 298.013146 
L 644.678394 298.28558 
L 644.717727 298.394554 
L 644.835724 298.699681 
L 644.855391 298.688783 
L 645.327381 300.072751 
L 645.347047 299.941982 
L 645.524043 298.972115 
L 645.661707 297.130458 
L 645.819037 291.659973 
L 646.055032 284.55488 
L 646.074698 284.663854 
L 646.133697 285.252313 
L 646.468024 291.224077 
L 646.920347 296.618281 
L 646.940014 296.672768 
L 647.097344 297.729814 
L 647.74633 300.432364 
L 647.785663 300.530441 
L 647.805329 300.486851 
L 648.021658 300.933644 
L 648.041324 300.879157 
L 648.119989 300.944541 
L 648.316652 301.206078 
L 648.355984 301.108002 
L 648.414983 301.206078 
L 648.454315 301.28236 
L 648.513314 301.23877 
L 648.611645 301.140694 
L 648.631312 301.184284 
L 648.768975 301.369539 
L 648.985304 301.76911 
L 649.024637 301.631076 
L 649.201633 301.009925 
L 649.299964 300.497749 
L 649.693289 296.836229 
L 650.007949 298.808655 
L 650.047282 298.830449 
L 650.32261 299.778521 
L 650.538938 299.95288 
L 650.63727 299.800316 
L 650.656936 299.854803 
L 650.735601 299.724035 
L 650.774933 299.767624 
L 650.814266 299.745829 
L 650.892931 299.767624 
L 650.912597 299.734932 
L 650.932263 299.811214 
L 650.971596 299.789419 
L 651.089593 299.931085 
L 651.10926 299.887495 
L 651.148592 299.931085 
L 651.305922 300.345185 
L 651.502585 301.053515 
L 652.269569 303.058633 
L 652.308901 303.015044 
L 652.3679 303.058633 
L 652.426899 302.993249 
L 652.603895 303.549015 
L 652.623561 303.494528 
L 652.702226 303.6144 
L 652.859556 303.832347 
L 652.879223 303.766963 
L 652.957888 303.832347 
L 653.193883 304.115679 
L 653.488877 304.104782 
L 653.803537 302.40479 
L 654.491856 295.953541 
L 654.649186 295.474056 
L 654.668852 295.637517 
L 654.944179 297.304816 
L 655.376837 300.236211 
L 656.104488 302.720814 
L 656.124155 302.709917 
L 656.694476 303.472734 
L 656.930471 303.974013 
L 656.950137 303.963116 
L 656.969804 303.897731 
L 657.009136 304.061192 
L 657.028802 304.050295 
L 657.048469 304.0285 
L 657.107467 304.093884 
L 657.1468 304.039397 
L 657.323796 304.431703 
L 657.343462 304.355421 
L 657.363129 304.475293 
L 657.402461 304.453498 
L 657.540125 304.649651 
L 657.559791 304.638753 
L 657.579458 304.616959 
L 657.61879 304.715035 
L 657.638456 304.671445 
L 657.795786 304.856701 
L 657.815453 304.813111 
L 657.972783 304.911188 
L 657.992449 304.856701 
L 658.031781 304.747727 
L 658.287443 298.252888 
L 658.56277 290.646516 
L 658.602103 290.592029 
L 658.621769 290.679208 
L 659.03476 298.863141 
L 659.133092 295.877259 
L 659.34942 274.845314 
L 659.703413 251.960814 
L 659.801744 249.672364 
L 659.841077 249.890311 
L 659.978741 254.903107 
L 660.490063 290.635619 
L 660.863722 296.029822 
L 661.257047 298.906731 
L 661.473376 299.822111 
L 661.807702 301.162489 
L 661.827369 301.053515 
L 661.886367 301.260565 
L 661.906034 301.249668 
L 661.9257 301.315052 
L 662.378024 302.077869 
L 662.456689 302.208637 
L 662.673017 302.524661 
L 662.71235 302.459277 
L 662.889346 301.315052 
L 663.125341 298.732373 
L 663.243339 299.211858 
L 663.518666 300.32339 
L 663.675996 301.086207 
L 664.108654 302.938762 
L 664.12832 302.916967 
L 664.167653 303.004146 
L 664.403648 303.57081 
L 664.423314 303.450939 
L 664.44298 303.265683 
L 664.521645 303.450939 
L 664.659309 303.52722 
L 664.757641 303.603502 
L 664.973969 303.98491 
L 664.993636 303.974013 
L 665.013302 303.952218 
L 665.052634 304.0285 
L 665.072301 304.0285 
L 665.327962 304.148371 
L 665.347628 304.07209 
L 665.485292 303.091325 
L 665.91795 297.697122 
L 666.016281 297.762506 
L 666.23261 298.133017 
L 666.743932 301.227873 
L 666.940595 302.001587 
L 667.255255 302.731712 
L 667.80591 303.690681 
L 667.943574 303.886834 
L 668.966219 305.521441 
L 668.966219 305.521441 
" clip-path="url(#pac3e9ff0e3)" style="fill: none; stroke: #1f77b4; stroke-width: 1.5; stroke-linecap: square"/>
   </g>
   <g id="patch_3">
    <path d="M 39.65 327.558125 
L 39.65 22.318125 
" style="fill: none; stroke: #000000; stroke-width: 0.8; stroke-linejoin: miter; stroke-linecap: square"/>
   </g>
   <g id="patch_4">
    <path d="M 698.933658 327.558125 
L 698.933658 22.318125 
" style="fill: none; stroke: #000000; stroke-width: 0.8; stroke-linejoin: miter; stroke-linecap: square"/>
   </g>
   <g id="patch_5">
    <path d="M 39.65 327.558125 
L 698.933658 327.558125 
" style="fill: none; stroke: #000000; stroke-width: 0.8; stroke-linejoin: miter; stroke-linecap: square"/>
   </g>
   <g id="patch_6">
    <path d="M 39.65 22.318125 
L 698.933658 22.318125 
" style="fill: none; stroke: #000000; stroke-width: 0.8; stroke-linejoin: miter; stroke-linecap: square"/>
   </g>
   <g id="text_16">
    <!-- training -->
    <g transform="translate(346.048392 16.318125) scale(0.12 -0.12)">
     <defs>
      <path id="DejaVuSans-74" d="M 1172 4494 
L 1172 3500 
L 2356 3500 
L 2356 3053 
L 1172 3053 
L 1172 1153 
Q 1172 725 1289 603 
Q 1406 481 1766 481 
L 2356 481 
L 2356 0 
L 1766 0 
Q 1100 0 847 248 
Q 594 497 594 1153 
L 594 3053 
L 172 3053 
L 172 3500 
L 594 3500 
L 594 4494 
L 1172 4494 
z
" transform="scale(0.015625)"/>
      <path id="DejaVuSans-72" d="M 2631 2963 
Q 2534 3019 2420 3045 
Q 2306 3072 2169 3072 
Q 1681 3072 1420 2755 
Q 1159 2438 1159 1844 
L 1159 0 
L 581 0 
L 581 3500 
L 1159 3500 
L 1159 2956 
Q 1341 3275 1631 3429 
Q 1922 3584 2338 3584 
Q 2397 3584 2469 3576 
Q 2541 3569 2628 3553 
L 2631 2963 
z
" transform="scale(0.015625)"/>
      <path id="DejaVuSans-61" d="M 2194 1759 
Q 1497 1759 1228 1600 
Q 959 1441 959 1056 
Q 959 750 1161 570 
Q 1363 391 1709 391 
Q 2188 391 2477 730 
Q 2766 1069 2766 1631 
L 2766 1759 
L 2194 1759 
z
M 3341 1997 
L 3341 0 
L 2766 0 
L 2766 531 
Q 2569 213 2275 61 
Q 1981 -91 1556 -91 
Q 1019 -91 701 211 
Q 384 513 384 1019 
Q 384 1609 779 1909 
Q 1175 2209 1959 2209 
L 2766 2209 
L 2766 2266 
Q 2766 2663 2505 2880 
Q 2244 3097 1772 3097 
Q 1472 3097 1187 3025 
Q 903 2953 641 2809 
L 641 3341 
Q 956 3463 1253 3523 
Q 1550 3584 1831 3584 
Q 2591 3584 2966 3190 
Q 3341 2797 3341 1997 
z
" transform="scale(0.015625)"/>
      <path id="DejaVuSans-69" d="M 603 3500 
L 1178 3500 
L 1178 0 
L 603 0 
L 603 3500 
z
M 603 4863 
L 1178 4863 
L 1178 4134 
L 603 4134 
L 603 4863 
z
" transform="scale(0.015625)"/>
      <path id="DejaVuSans-6e" d="M 3513 2113 
L 3513 0 
L 2938 0 
L 2938 2094 
Q 2938 2591 2744 2837 
Q 2550 3084 2163 3084 
Q 1697 3084 1428 2787 
Q 1159 2491 1159 1978 
L 1159 0 
L 581 0 
L 581 3500 
L 1159 3500 
L 1159 2956 
Q 1366 3272 1645 3428 
Q 1925 3584 2291 3584 
Q 2894 3584 3203 3211 
Q 3513 2838 3513 2113 
z
" transform="scale(0.015625)"/>
      <path id="DejaVuSans-67" d="M 2906 1791 
Q 2906 2416 2648 2759 
Q 2391 3103 1925 3103 
Q 1463 3103 1205 2759 
Q 947 2416 947 1791 
Q 947 1169 1205 825 
Q 1463 481 1925 481 
Q 2391 481 2648 825 
Q 2906 1169 2906 1791 
z
M 3481 434 
Q 3481 -459 3084 -895 
Q 2688 -1331 1869 -1331 
Q 1566 -1331 1297 -1286 
Q 1028 -1241 775 -1147 
L 775 -588 
Q 1028 -725 1275 -790 
Q 1522 -856 1778 -856 
Q 2344 -856 2625 -561 
Q 2906 -266 2906 331 
L 2906 616 
Q 2728 306 2450 153 
Q 2172 0 1784 0 
Q 1141 0 747 490 
Q 353 981 353 1791 
Q 353 2603 747 3093 
Q 1141 3584 1784 3584 
Q 2172 3584 2450 3431 
Q 2728 3278 2906 2969 
L 2906 3500 
L 3481 3500 
L 3481 434 
z
" transform="scale(0.015625)"/>
     </defs>
     <use xlink:href="#DejaVuSans-74"/>
     <use xlink:href="#DejaVuSans-72" x="39.208984"/>
     <use xlink:href="#DejaVuSans-61" x="80.322266"/>
     <use xlink:href="#DejaVuSans-69" x="141.601562"/>
     <use xlink:href="#DejaVuSans-6e" x="169.384766"/>
     <use xlink:href="#DejaVuSans-69" x="232.763672"/>
     <use xlink:href="#DejaVuSans-6e" x="260.546875"/>
     <use xlink:href="#DejaVuSans-67" x="323.925781"/>
    </g>
   </g>
   <g id="legend_1">
    <g id="patch_7">
     <path d="M 613.572721 44.99625 
L 691.933658 44.99625 
Q 693.933658 44.99625 693.933658 42.99625 
L 693.933658 29.318125 
Q 693.933658 27.318125 691.933658 27.318125 
L 613.572721 27.318125 
Q 611.572721 27.318125 611.572721 29.318125 
L 611.572721 42.99625 
Q 611.572721 44.99625 613.572721 44.99625 
z
" style="fill: #ffffff; opacity: 0.8; stroke: #cccccc; stroke-linejoin: miter"/>
    </g>
    <g id="line2d_17">
     <path d="M 615.572721 35.416563 
L 625.572721 35.416563 
L 635.572721 35.416563 
" style="fill: none; stroke: #1f77b4; stroke-width: 1.5; stroke-linecap: square"/>
    </g>
    <g id="text_17">
     <!-- observed -->
     <g transform="translate(643.572721 38.916563) scale(0.1 -0.1)">
      <defs>
       <path id="DejaVuSans-6f" d="M 1959 3097 
Q 1497 3097 1228 2736 
Q 959 2375 959 1747 
Q 959 1119 1226 758 
Q 1494 397 1959 397 
Q 2419 397 2687 759 
Q 2956 1122 2956 1747 
Q 2956 2369 2687 2733 
Q 2419 3097 1959 3097 
z
M 1959 3584 
Q 2709 3584 3137 3096 
Q 3566 2609 3566 1747 
Q 3566 888 3137 398 
Q 2709 -91 1959 -91 
Q 1206 -91 779 398 
Q 353 888 353 1747 
Q 353 2609 779 3096 
Q 1206 3584 1959 3584 
z
" transform="scale(0.015625)"/>
       <path id="DejaVuSans-62" d="M 3116 1747 
Q 3116 2381 2855 2742 
Q 2594 3103 2138 3103 
Q 1681 3103 1420 2742 
Q 1159 2381 1159 1747 
Q 1159 1113 1420 752 
Q 1681 391 2138 391 
Q 2594 391 2855 752 
Q 3116 1113 3116 1747 
z
M 1159 2969 
Q 1341 3281 1617 3432 
Q 1894 3584 2278 3584 
Q 2916 3584 3314 3078 
Q 3713 2572 3713 1747 
Q 3713 922 3314 415 
Q 2916 -91 2278 -91 
Q 1894 -91 1617 61 
Q 1341 213 1159 525 
L 1159 0 
L 581 0 
L 581 4863 
L 1159 4863 
L 1159 2969 
z
" transform="scale(0.015625)"/>
       <path id="DejaVuSans-73" d="M 2834 3397 
L 2834 2853 
Q 2591 2978 2328 3040 
Q 2066 3103 1784 3103 
Q 1356 3103 1142 2972 
Q 928 2841 928 2578 
Q 928 2378 1081 2264 
Q 1234 2150 1697 2047 
L 1894 2003 
Q 2506 1872 2764 1633 
Q 3022 1394 3022 966 
Q 3022 478 2636 193 
Q 2250 -91 1575 -91 
Q 1294 -91 989 -36 
Q 684 19 347 128 
L 347 722 
Q 666 556 975 473 
Q 1284 391 1588 391 
Q 1994 391 2212 530 
Q 2431 669 2431 922 
Q 2431 1156 2273 1281 
Q 2116 1406 1581 1522 
L 1381 1569 
Q 847 1681 609 1914 
Q 372 2147 372 2553 
Q 372 3047 722 3315 
Q 1072 3584 1716 3584 
Q 2034 3584 2315 3537 
Q 2597 3491 2834 3397 
z
" transform="scale(0.015625)"/>
       <path id="DejaVuSans-65" d="M 3597 1894 
L 3597 1613 
L 953 1613 
Q 991 1019 1311 708 
Q 1631 397 2203 397 
Q 2534 397 2845 478 
Q 3156 559 3463 722 
L 3463 178 
Q 3153 47 2828 -22 
Q 2503 -91 2169 -91 
Q 1331 -91 842 396 
Q 353 884 353 1716 
Q 353 2575 817 3079 
Q 1281 3584 2069 3584 
Q 2775 3584 3186 3129 
Q 3597 2675 3597 1894 
z
M 3022 2063 
Q 3016 2534 2758 2815 
Q 2500 3097 2075 3097 
Q 1594 3097 1305 2825 
Q 1016 2553 972 2059 
L 3022 2063 
z
" transform="scale(0.015625)"/>
       <path id="DejaVuSans-76" d="M 191 3500 
L 800 3500 
L 1894 563 
L 2988 3500 
L 3597 3500 
L 2284 0 
L 1503 0 
L 191 3500 
z
" transform="scale(0.015625)"/>
       <path id="DejaVuSans-64" d="M 2906 2969 
L 2906 4863 
L 3481 4863 
L 3481 0 
L 2906 0 
L 2906 525 
Q 2725 213 2448 61 
Q 2172 -91 1784 -91 
Q 1150 -91 751 415 
Q 353 922 353 1747 
Q 353 2572 751 3078 
Q 1150 3584 1784 3584 
Q 2172 3584 2448 3432 
Q 2725 3281 2906 2969 
z
M 947 1747 
Q 947 1113 1208 752 
Q 1469 391 1925 391 
Q 2381 391 2643 752 
Q 2906 1113 2906 1747 
Q 2906 2381 2643 2742 
Q 2381 3103 1925 3103 
Q 1469 3103 1208 2742 
Q 947 2381 947 1747 
z
" transform="scale(0.015625)"/>
      </defs>
      <use xlink:href="#DejaVuSans-6f"/>
      <use xlink:href="#DejaVuSans-62" x="61.181641"/>
      <use xlink:href="#DejaVuSans-73" x="124.658203"/>
      <use xlink:href="#DejaVuSans-65" x="176.757812"/>
      <use xlink:href="#DejaVuSans-72" x="238.28125"/>
      <use xlink:href="#DejaVuSans-76" x="279.394531"/>
      <use xlink:href="#DejaVuSans-65" x="338.574219"/>
      <use xlink:href="#DejaVuSans-64" x="400.097656"/>
     </g>
    </g>
   </g>
  </g>
 </g>
 <defs>
  <clipPath id="pac3e9ff0e3">
   <rect x="39.65" y="22.318125" width="659.283658" height="305.24"/>
  </clipPath>
 </defs>
</svg>
