<?xml version="1.0" encoding="utf-8" standalone="no"?>
<!DOCTYPE svg PUBLIC "-//W3C//DTD SVG 1.1//EN"
  "http://www.w3.org/Graphics/SVG/1.1/DTD/svg11.dtd">
<svg xmlns:xlink="http://www.w3.org/1999/xlink" width="710.132103pt" height="351.43625pt" viewBox="0 0 710.132103 351.43625" xmlns="http://www.w3.org/2000/svg" version="1.1">
 <metadata>
  <rdf:RDF xmlns:dc="http://purl.org/dc/elements/1.1/" xmlns:cc="http://creativecommons.org/ns#" xmlns:rdf="http://www.w3.org/1999/02/22-rdf-syntax-ns#">
   <cc:Work>
    <dc:type rdf:resource="http://purl.org/dc/dcmitype/StillImage"/>
    <dc:date>2023-10-21T23:00:36.817257</dc:date>
    <dc:format>image/svg+xml</dc:format>
    <dc:creator>
     <cc:Agent>
      <dc:title>Matplotlib v3.7.1, https://matplotlib.org/</dc:title>
     </cc:Agent>
    </dc:creator>
   </cc:Work>
  </rdf:RDF>
 </metadata>
 <defs>
  <style type="text/css">*{stroke-linejoin: round; stroke-linecap: butt}</style>
 </defs>
 <g id="figure_1">
  <g id="patch_1">
   <path d="M 0 351.43625 
L 710.132103 351.43625 
L 710.132103 0 
L 0 0 
z
" style="fill: #ffffff"/>
  </g>
  <g id="axes_1">
   <g id="patch_2">
    <path d="M 30.103125 327.558125 
L 692.793606 327.558125 
L 692.793606 22.318125 
L 30.103125 22.318125 
z
" style="fill: #ffffff"/>
   </g>
   <g id="matplotlib.axis_1">
    <g id="xtick_1">
     <g id="line2d_1">
      <defs>
       <path id="maa8419bea0" d="M 0 0 
L 0 3.5 
" style="stroke: #000000; stroke-width: 0.8"/>
      </defs>
      <g>
       <use xlink:href="#maa8419bea0" x="97.721103" y="327.558125" style="stroke: #000000; stroke-width: 0.8"/>
      </g>
     </g>
     <g id="text_1">
      <!-- 2022-09-01 -->
      <g transform="translate(68.663291 342.156563) scale(0.1 -0.1)">
       <defs>
        <path id="DejaVuSans-32" d="M 1228 531 
L 3431 531 
L 3431 0 
L 469 0 
L 469 531 
Q 828 903 1448 1529 
Q 2069 2156 2228 2338 
Q 2531 2678 2651 2914 
Q 2772 3150 2772 3378 
Q 2772 3750 2511 3984 
Q 2250 4219 1831 4219 
Q 1534 4219 1204 4116 
Q 875 4013 500 3803 
L 500 4441 
Q 881 4594 1212 4672 
Q 1544 4750 1819 4750 
Q 2544 4750 2975 4387 
Q 3406 4025 3406 3419 
Q 3406 3131 3298 2873 
Q 3191 2616 2906 2266 
Q 2828 2175 2409 1742 
Q 1991 1309 1228 531 
z
" transform="scale(0.015625)"/>
        <path id="DejaVuSans-30" d="M 2034 4250 
Q 1547 4250 1301 3770 
Q 1056 3291 1056 2328 
Q 1056 1369 1301 889 
Q 1547 409 2034 409 
Q 2525 409 2770 889 
Q 3016 1369 3016 2328 
Q 3016 3291 2770 3770 
Q 2525 4250 2034 4250 
z
M 2034 4750 
Q 2819 4750 3233 4129 
Q 3647 3509 3647 2328 
Q 3647 1150 3233 529 
Q 2819 -91 2034 -91 
Q 1250 -91 836 529 
Q 422 1150 422 2328 
Q 422 3509 836 4129 
Q 1250 4750 2034 4750 
z
" transform="scale(0.015625)"/>
        <path id="DejaVuSans-2d" d="M 313 2009 
L 1997 2009 
L 1997 1497 
L 313 1497 
L 313 2009 
z
" transform="scale(0.015625)"/>
        <path id="DejaVuSans-39" d="M 703 97 
L 703 672 
Q 941 559 1184 500 
Q 1428 441 1663 441 
Q 2288 441 2617 861 
Q 2947 1281 2994 2138 
Q 2813 1869 2534 1725 
Q 2256 1581 1919 1581 
Q 1219 1581 811 2004 
Q 403 2428 403 3163 
Q 403 3881 828 4315 
Q 1253 4750 1959 4750 
Q 2769 4750 3195 4129 
Q 3622 3509 3622 2328 
Q 3622 1225 3098 567 
Q 2575 -91 1691 -91 
Q 1453 -91 1209 -44 
Q 966 3 703 97 
z
M 1959 2075 
Q 2384 2075 2632 2365 
Q 2881 2656 2881 3163 
Q 2881 3666 2632 3958 
Q 2384 4250 1959 4250 
Q 1534 4250 1286 3958 
Q 1038 3666 1038 3163 
Q 1038 2656 1286 2365 
Q 1534 2075 1959 2075 
z
" transform="scale(0.015625)"/>
        <path id="DejaVuSans-31" d="M 794 531 
L 1825 531 
L 1825 4091 
L 703 3866 
L 703 4441 
L 1819 4666 
L 2450 4666 
L 2450 531 
L 3481 531 
L 3481 0 
L 794 0 
L 794 531 
z
" transform="scale(0.015625)"/>
       </defs>
       <use xlink:href="#DejaVuSans-32"/>
       <use xlink:href="#DejaVuSans-30" x="63.623047"/>
       <use xlink:href="#DejaVuSans-32" x="127.246094"/>
       <use xlink:href="#DejaVuSans-32" x="190.869141"/>
       <use xlink:href="#DejaVuSans-2d" x="254.492188"/>
       <use xlink:href="#DejaVuSans-30" x="290.576172"/>
       <use xlink:href="#DejaVuSans-39" x="354.199219"/>
       <use xlink:href="#DejaVuSans-2d" x="417.822266"/>
       <use xlink:href="#DejaVuSans-30" x="453.90625"/>
       <use xlink:href="#DejaVuSans-31" x="517.529297"/>
      </g>
     </g>
    </g>
    <g id="xtick_2">
     <g id="line2d_2">
      <g>
       <use xlink:href="#maa8419bea0" x="174.541528" y="327.558125" style="stroke: #000000; stroke-width: 0.8"/>
      </g>
     </g>
     <g id="text_2">
      <!-- 2022-09-15 -->
      <g transform="translate(145.483716 342.156563) scale(0.1 -0.1)">
       <defs>
        <path id="DejaVuSans-35" d="M 691 4666 
L 3169 4666 
L 3169 4134 
L 1269 4134 
L 1269 2991 
Q 1406 3038 1543 3061 
Q 1681 3084 1819 3084 
Q 2600 3084 3056 2656 
Q 3513 2228 3513 1497 
Q 3513 744 3044 326 
Q 2575 -91 1722 -91 
Q 1428 -91 1123 -41 
Q 819 9 494 109 
L 494 744 
Q 775 591 1075 516 
Q 1375 441 1709 441 
Q 2250 441 2565 725 
Q 2881 1009 2881 1497 
Q 2881 1984 2565 2268 
Q 2250 2553 1709 2553 
Q 1456 2553 1204 2497 
Q 953 2441 691 2322 
L 691 4666 
z
" transform="scale(0.015625)"/>
       </defs>
       <use xlink:href="#DejaVuSans-32"/>
       <use xlink:href="#DejaVuSans-30" x="63.623047"/>
       <use xlink:href="#DejaVuSans-32" x="127.246094"/>
       <use xlink:href="#DejaVuSans-32" x="190.869141"/>
       <use xlink:href="#DejaVuSans-2d" x="254.492188"/>
       <use xlink:href="#DejaVuSans-30" x="290.576172"/>
       <use xlink:href="#DejaVuSans-39" x="354.199219"/>
       <use xlink:href="#DejaVuSans-2d" x="417.822266"/>
       <use xlink:href="#DejaVuSans-31" x="453.90625"/>
       <use xlink:href="#DejaVuSans-35" x="517.529297"/>
      </g>
     </g>
    </g>
    <g id="xtick_3">
     <g id="line2d_3">
      <g>
       <use xlink:href="#maa8419bea0" x="262.3363" y="327.558125" style="stroke: #000000; stroke-width: 0.8"/>
      </g>
     </g>
     <g id="text_3">
      <!-- 2022-10-01 -->
      <g transform="translate(233.278487 342.156563) scale(0.1 -0.1)">
       <use xlink:href="#DejaVuSans-32"/>
       <use xlink:href="#DejaVuSans-30" x="63.623047"/>
       <use xlink:href="#DejaVuSans-32" x="127.246094"/>
       <use xlink:href="#DejaVuSans-32" x="190.869141"/>
       <use xlink:href="#DejaVuSans-2d" x="254.492188"/>
       <use xlink:href="#DejaVuSans-31" x="290.576172"/>
       <use xlink:href="#DejaVuSans-30" x="354.199219"/>
       <use xlink:href="#DejaVuSans-2d" x="417.822266"/>
       <use xlink:href="#DejaVuSans-30" x="453.90625"/>
       <use xlink:href="#DejaVuSans-31" x="517.529297"/>
      </g>
     </g>
    </g>
    <g id="xtick_4">
     <g id="line2d_4">
      <g>
       <use xlink:href="#maa8419bea0" x="339.156724" y="327.558125" style="stroke: #000000; stroke-width: 0.8"/>
      </g>
     </g>
     <g id="text_4">
      <!-- 2022-10-15 -->
      <g transform="translate(310.098912 342.156563) scale(0.1 -0.1)">
       <use xlink:href="#DejaVuSans-32"/>
       <use xlink:href="#DejaVuSans-30" x="63.623047"/>
       <use xlink:href="#DejaVuSans-32" x="127.246094"/>
       <use xlink:href="#DejaVuSans-32" x="190.869141"/>
       <use xlink:href="#DejaVuSans-2d" x="254.492188"/>
       <use xlink:href="#DejaVuSans-31" x="290.576172"/>
       <use xlink:href="#DejaVuSans-30" x="354.199219"/>
       <use xlink:href="#DejaVuSans-2d" x="417.822266"/>
       <use xlink:href="#DejaVuSans-31" x="453.90625"/>
       <use xlink:href="#DejaVuSans-35" x="517.529297"/>
      </g>
     </g>
    </g>
    <g id="xtick_5">
     <g id="line2d_5">
      <g>
       <use xlink:href="#maa8419bea0" x="432.438669" y="327.558125" style="stroke: #000000; stroke-width: 0.8"/>
      </g>
     </g>
     <g id="text_5">
      <!-- 2022-11-01 -->
      <g transform="translate(403.380857 342.156563) scale(0.1 -0.1)">
       <use xlink:href="#DejaVuSans-32"/>
       <use xlink:href="#DejaVuSans-30" x="63.623047"/>
       <use xlink:href="#DejaVuSans-32" x="127.246094"/>
       <use xlink:href="#DejaVuSans-32" x="190.869141"/>
       <use xlink:href="#DejaVuSans-2d" x="254.492188"/>
       <use xlink:href="#DejaVuSans-31" x="290.576172"/>
       <use xlink:href="#DejaVuSans-31" x="354.199219"/>
       <use xlink:href="#DejaVuSans-2d" x="417.822266"/>
       <use xlink:href="#DejaVuSans-30" x="453.90625"/>
       <use xlink:href="#DejaVuSans-31" x="517.529297"/>
      </g>
     </g>
    </g>
    <g id="xtick_6">
     <g id="line2d_6">
      <g>
       <use xlink:href="#maa8419bea0" x="509.259094" y="327.558125" style="stroke: #000000; stroke-width: 0.8"/>
      </g>
     </g>
     <g id="text_6">
      <!-- 2022-11-15 -->
      <g transform="translate(480.201282 342.156563) scale(0.1 -0.1)">
       <use xlink:href="#DejaVuSans-32"/>
       <use xlink:href="#DejaVuSans-30" x="63.623047"/>
       <use xlink:href="#DejaVuSans-32" x="127.246094"/>
       <use xlink:href="#DejaVuSans-32" x="190.869141"/>
       <use xlink:href="#DejaVuSans-2d" x="254.492188"/>
       <use xlink:href="#DejaVuSans-31" x="290.576172"/>
       <use xlink:href="#DejaVuSans-31" x="354.199219"/>
       <use xlink:href="#DejaVuSans-2d" x="417.822266"/>
       <use xlink:href="#DejaVuSans-31" x="453.90625"/>
       <use xlink:href="#DejaVuSans-35" x="517.529297"/>
      </g>
     </g>
    </g>
    <g id="xtick_7">
     <g id="line2d_7">
      <g>
       <use xlink:href="#maa8419bea0" x="597.053865" y="327.558125" style="stroke: #000000; stroke-width: 0.8"/>
      </g>
     </g>
     <g id="text_7">
      <!-- 2022-12-01 -->
      <g transform="translate(567.996053 342.156563) scale(0.1 -0.1)">
       <use xlink:href="#DejaVuSans-32"/>
       <use xlink:href="#DejaVuSans-30" x="63.623047"/>
       <use xlink:href="#DejaVuSans-32" x="127.246094"/>
       <use xlink:href="#DejaVuSans-32" x="190.869141"/>
       <use xlink:href="#DejaVuSans-2d" x="254.492188"/>
       <use xlink:href="#DejaVuSans-31" x="290.576172"/>
       <use xlink:href="#DejaVuSans-32" x="354.199219"/>
       <use xlink:href="#DejaVuSans-2d" x="417.822266"/>
       <use xlink:href="#DejaVuSans-30" x="453.90625"/>
       <use xlink:href="#DejaVuSans-31" x="517.529297"/>
      </g>
     </g>
    </g>
    <g id="xtick_8">
     <g id="line2d_8">
      <g>
       <use xlink:href="#maa8419bea0" x="673.87429" y="327.558125" style="stroke: #000000; stroke-width: 0.8"/>
      </g>
     </g>
     <g id="text_8">
      <!-- 2022-12-15 -->
      <g transform="translate(644.816478 342.156563) scale(0.1 -0.1)">
       <use xlink:href="#DejaVuSans-32"/>
       <use xlink:href="#DejaVuSans-30" x="63.623047"/>
       <use xlink:href="#DejaVuSans-32" x="127.246094"/>
       <use xlink:href="#DejaVuSans-32" x="190.869141"/>
       <use xlink:href="#DejaVuSans-2d" x="254.492188"/>
       <use xlink:href="#DejaVuSans-31" x="290.576172"/>
       <use xlink:href="#DejaVuSans-32" x="354.199219"/>
       <use xlink:href="#DejaVuSans-2d" x="417.822266"/>
       <use xlink:href="#DejaVuSans-31" x="453.90625"/>
       <use xlink:href="#DejaVuSans-35" x="517.529297"/>
      </g>
     </g>
    </g>
   </g>
   <g id="matplotlib.axis_2">
    <g id="ytick_1">
     <g id="line2d_9">
      <defs>
       <path id="m5e480ddbc5" d="M 0 0 
L -3.5 0 
" style="stroke: #000000; stroke-width: 0.8"/>
      </defs>
      <g>
       <use xlink:href="#m5e480ddbc5" x="30.103125" y="307.607136" style="stroke: #000000; stroke-width: 0.8"/>
      </g>
     </g>
     <g id="text_9">
      <!-- 0.0 -->
      <g transform="translate(7.2 311.406355) scale(0.1 -0.1)">
       <defs>
        <path id="DejaVuSans-2e" d="M 684 794 
L 1344 794 
L 1344 0 
L 684 0 
L 684 794 
z
" transform="scale(0.015625)"/>
       </defs>
       <use xlink:href="#DejaVuSans-30"/>
       <use xlink:href="#DejaVuSans-2e" x="63.623047"/>
       <use xlink:href="#DejaVuSans-30" x="95.410156"/>
      </g>
     </g>
    </g>
    <g id="ytick_2">
     <g id="line2d_10">
      <g>
       <use xlink:href="#m5e480ddbc5" x="30.103125" y="270.555653" style="stroke: #000000; stroke-width: 0.8"/>
      </g>
     </g>
     <g id="text_10">
      <!-- 0.2 -->
      <g transform="translate(7.2 274.354872) scale(0.1 -0.1)">
       <use xlink:href="#DejaVuSans-30"/>
       <use xlink:href="#DejaVuSans-2e" x="63.623047"/>
       <use xlink:href="#DejaVuSans-32" x="95.410156"/>
      </g>
     </g>
    </g>
    <g id="ytick_3">
     <g id="line2d_11">
      <g>
       <use xlink:href="#m5e480ddbc5" x="30.103125" y="233.50417" style="stroke: #000000; stroke-width: 0.8"/>
      </g>
     </g>
     <g id="text_11">
      <!-- 0.4 -->
      <g transform="translate(7.2 237.303388) scale(0.1 -0.1)">
       <defs>
        <path id="DejaVuSans-34" d="M 2419 4116 
L 825 1625 
L 2419 1625 
L 2419 4116 
z
M 2253 4666 
L 3047 4666 
L 3047 1625 
L 3713 1625 
L 3713 1100 
L 3047 1100 
L 3047 0 
L 2419 0 
L 2419 1100 
L 313 1100 
L 313 1709 
L 2253 4666 
z
" transform="scale(0.015625)"/>
       </defs>
       <use xlink:href="#DejaVuSans-30"/>
       <use xlink:href="#DejaVuSans-2e" x="63.623047"/>
       <use xlink:href="#DejaVuSans-34" x="95.410156"/>
      </g>
     </g>
    </g>
    <g id="ytick_4">
     <g id="line2d_12">
      <g>
       <use xlink:href="#m5e480ddbc5" x="30.103125" y="196.452686" style="stroke: #000000; stroke-width: 0.8"/>
      </g>
     </g>
     <g id="text_12">
      <!-- 0.6 -->
      <g transform="translate(7.2 200.251905) scale(0.1 -0.1)">
       <defs>
        <path id="DejaVuSans-36" d="M 2113 2584 
Q 1688 2584 1439 2293 
Q 1191 2003 1191 1497 
Q 1191 994 1439 701 
Q 1688 409 2113 409 
Q 2538 409 2786 701 
Q 3034 994 3034 1497 
Q 3034 2003 2786 2293 
Q 2538 2584 2113 2584 
z
M 3366 4563 
L 3366 3988 
Q 3128 4100 2886 4159 
Q 2644 4219 2406 4219 
Q 1781 4219 1451 3797 
Q 1122 3375 1075 2522 
Q 1259 2794 1537 2939 
Q 1816 3084 2150 3084 
Q 2853 3084 3261 2657 
Q 3669 2231 3669 1497 
Q 3669 778 3244 343 
Q 2819 -91 2113 -91 
Q 1303 -91 875 529 
Q 447 1150 447 2328 
Q 447 3434 972 4092 
Q 1497 4750 2381 4750 
Q 2619 4750 2861 4703 
Q 3103 4656 3366 4563 
z
" transform="scale(0.015625)"/>
       </defs>
       <use xlink:href="#DejaVuSans-30"/>
       <use xlink:href="#DejaVuSans-2e" x="63.623047"/>
       <use xlink:href="#DejaVuSans-36" x="95.410156"/>
      </g>
     </g>
    </g>
    <g id="ytick_5">
     <g id="line2d_13">
      <g>
       <use xlink:href="#m5e480ddbc5" x="30.103125" y="159.401203" style="stroke: #000000; stroke-width: 0.8"/>
      </g>
     </g>
     <g id="text_13">
      <!-- 0.8 -->
      <g transform="translate(7.2 163.200422) scale(0.1 -0.1)">
       <defs>
        <path id="DejaVuSans-38" d="M 2034 2216 
Q 1584 2216 1326 1975 
Q 1069 1734 1069 1313 
Q 1069 891 1326 650 
Q 1584 409 2034 409 
Q 2484 409 2743 651 
Q 3003 894 3003 1313 
Q 3003 1734 2745 1975 
Q 2488 2216 2034 2216 
z
M 1403 2484 
Q 997 2584 770 2862 
Q 544 3141 544 3541 
Q 544 4100 942 4425 
Q 1341 4750 2034 4750 
Q 2731 4750 3128 4425 
Q 3525 4100 3525 3541 
Q 3525 3141 3298 2862 
Q 3072 2584 2669 2484 
Q 3125 2378 3379 2068 
Q 3634 1759 3634 1313 
Q 3634 634 3220 271 
Q 2806 -91 2034 -91 
Q 1263 -91 848 271 
Q 434 634 434 1313 
Q 434 1759 690 2068 
Q 947 2378 1403 2484 
z
M 1172 3481 
Q 1172 3119 1398 2916 
Q 1625 2713 2034 2713 
Q 2441 2713 2670 2916 
Q 2900 3119 2900 3481 
Q 2900 3844 2670 4047 
Q 2441 4250 2034 4250 
Q 1625 4250 1398 4047 
Q 1172 3844 1172 3481 
z
" transform="scale(0.015625)"/>
       </defs>
       <use xlink:href="#DejaVuSans-30"/>
       <use xlink:href="#DejaVuSans-2e" x="63.623047"/>
       <use xlink:href="#DejaVuSans-38" x="95.410156"/>
      </g>
     </g>
    </g>
    <g id="ytick_6">
     <g id="line2d_14">
      <g>
       <use xlink:href="#m5e480ddbc5" x="30.103125" y="122.34972" style="stroke: #000000; stroke-width: 0.8"/>
      </g>
     </g>
     <g id="text_14">
      <!-- 1.0 -->
      <g transform="translate(7.2 126.148938) scale(0.1 -0.1)">
       <use xlink:href="#DejaVuSans-31"/>
       <use xlink:href="#DejaVuSans-2e" x="63.623047"/>
       <use xlink:href="#DejaVuSans-30" x="95.410156"/>
      </g>
     </g>
    </g>
    <g id="ytick_7">
     <g id="line2d_15">
      <g>
       <use xlink:href="#m5e480ddbc5" x="30.103125" y="85.298236" style="stroke: #000000; stroke-width: 0.8"/>
      </g>
     </g>
     <g id="text_15">
      <!-- 1.2 -->
      <g transform="translate(7.2 89.097455) scale(0.1 -0.1)">
       <use xlink:href="#DejaVuSans-31"/>
       <use xlink:href="#DejaVuSans-2e" x="63.623047"/>
       <use xlink:href="#DejaVuSans-32" x="95.410156"/>
      </g>
     </g>
    </g>
    <g id="ytick_8">
     <g id="line2d_16">
      <g>
       <use xlink:href="#m5e480ddbc5" x="30.103125" y="48.246753" style="stroke: #000000; stroke-width: 0.8"/>
      </g>
     </g>
     <g id="text_16">
      <!-- 1.4 -->
      <g transform="translate(7.2 52.045972) scale(0.1 -0.1)">
       <use xlink:href="#DejaVuSans-31"/>
       <use xlink:href="#DejaVuSans-2e" x="63.623047"/>
       <use xlink:href="#DejaVuSans-34" x="95.410156"/>
      </g>
     </g>
    </g>
   </g>
   <g id="line2d_17">
    <path d="M 60.22542 294.238961 
L 60.454052 293.428769 
L 60.682684 293.530043 
L 60.911316 292.71985 
L 61.139948 292.618576 
L 61.368581 290.289273 
L 62.28311 287.453599 
L 62.511742 286.947229 
L 62.740374 285.326844 
L 62.969006 284.7192 
L 63.197638 284.617926 
L 63.426271 284.314104 
L 63.654903 284.7192 
L 63.883535 284.516652 
L 64.112167 283.909008 
L 64.569432 285.428118 
L 64.798064 284.010282 
L 65.026696 283.605185 
L 65.255328 283.605185 
L 65.483961 283.909008 
L 65.712593 284.921748 
L 65.941225 285.023022 
L 66.627122 282.997541 
L 66.855754 282.288623 
L 67.084386 283.200089 
L 67.313018 283.503911 
L 67.541651 284.314104 
L 67.770283 284.314104 
L 68.227547 290.086725 
L 68.456179 289.580355 
L 68.684812 289.985451 
L 68.913444 165.114542 
L 69.142076 293.631317 
L 69.370708 296.061894 
L 69.599341 206.636904 
L 70.056605 300.821775 
L 70.285237 292.618576 
L 70.513869 290.896917 
L 70.742502 291.302014 
L 71.199766 292.71985 
L 71.428398 291.70711 
L 71.65703 293.732591 
L 71.885663 293.935139 
L 72.114295 293.124946 
L 72.342927 294.036413 
L 72.571559 293.732591 
L 72.800192 293.935139 
L 73.028824 297.378457 
L 73.257456 292.821124 
L 73.486088 296.163168 
L 73.71472 295.656798 
L 73.943353 254.134436 
L 74.171985 252.210229 
L 74.400617 126.529127 
L 74.629249 169.469326 
L 74.857881 296.568264 
L 75.086514 252.00768 
L 75.315146 295.656798 
L 75.543778 301.024323 
L 76.229675 295.150428 
L 76.915571 280.668238 
L 77.144204 276.414728 
L 77.372836 275.807083 
L 77.601468 277.933838 
L 78.058733 277.123646 
L 78.287365 277.022372 
L 78.515997 278.642757 
L 78.744629 277.933838 
L 78.973261 280.668238 
L 79.201894 281.377156 
L 79.430526 239.652246 
L 79.659158 280.46569 
L 79.88779 281.377156 
L 80.116422 283.200089 
L 80.345055 282.997541 
L 80.573687 197.826061 
L 81.030951 278.338935 
L 81.488216 276.516002 
L 81.716848 272.059943 
L 81.94548 270.338284 
L 82.402745 273.47778 
L 82.631377 265.274582 
L 83.317274 226.385345 
L 83.545906 224.461138 
L 83.774538 224.76496 
L 84.460435 233.879625 
L 84.689067 236.107654 
L 84.917699 236.917846 
L 85.146331 236.310202 
L 85.603596 154.07567 
L 85.832228 73.765345 
L 86.06086 235.297461 
L 86.289492 234.993639 
L 86.746757 230.233759 
L 88.347182 213.726088 
L 88.575815 214.333732 
L 88.804447 213.219718 
L 89.033079 215.042651 
L 89.261711 215.245199 
L 89.490343 214.941376 
L 89.718976 215.346473 
L 89.947608 219.802531 
L 90.404872 221.422916 
L 90.633504 221.422916 
L 91.319401 228.00573 
L 91.548033 228.208278 
L 91.776666 229.221018 
L 92.005298 233.677077 
L 92.23393 234.993639 
L 92.462562 234.487269 
L 92.691194 233.677077 
L 92.919827 236.917846 
L 93.148459 237.221668 
L 93.377091 238.842053 
L 93.605723 239.145875 
L 93.834356 239.145875 
L 94.062988 240.25989 
L 94.29162 240.057342 
L 94.520252 240.664986 
L 94.748884 240.158616 
L 94.977517 239.348424 
L 95.206149 239.449698 
L 95.434781 245.323593 
L 95.663413 246.032511 
L 95.892045 124.503646 
L 96.34931 248.361814 
L 96.577942 249.779651 
L 96.806574 253.425517 
L 97.035207 209.472578 
L 97.263839 249.779651 
L 97.492471 214.333732 
L 97.721103 255.856094 
L 98.178368 253.324243 
L 98.407 254.944628 
L 98.635632 257.577753 
L 98.864264 258.793042 
L 99.092897 258.48922 
L 99.321529 260.413427 
L 99.550161 259.299412 
L 99.778793 259.805783 
L 100.236058 261.223619 
L 100.46469 259.704509 
L 100.693322 259.50196 
L 100.921954 264.869485 
L 101.150586 265.274582 
L 101.379219 264.768211 
L 101.607851 223.245849 
L 101.836483 264.666937 
L 102.065115 225.170056 
L 102.293748 226.992989 
L 102.52238 265.780952 
L 102.751012 265.578404 
L 102.979644 235.398735 
L 103.208276 270.844655 
L 103.665541 269.021722 
L 104.122805 270.844655 
L 104.351438 270.338284 
L 104.58007 271.047203 
L 104.808702 271.249751 
L 105.037334 272.262491 
L 105.265966 272.161217 
L 105.723231 273.98415 
L 105.951863 271.756121 
L 106.180495 271.249751 
L 106.409127 273.173958 
L 106.63776 232.461788 
L 106.866392 273.98415 
L 107.095024 273.579054 
L 107.323656 274.794343 
L 107.552289 234.892365 
L 107.780921 234.892365 
L 108.009553 276.414728 
L 108.238185 278.541483 
L 108.466817 238.234409 
L 108.69545 278.541483 
L 108.924082 277.022372 
L 109.152714 276.71855 
L 109.381346 277.22492 
L 109.609978 277.22492 
L 109.838611 277.022372 
L 110.067243 277.22492 
L 110.295875 277.22492 
L 110.981772 277.73129 
L 111.210404 276.110905 
L 111.439036 275.807083 
L 111.667668 276.110905 
L 111.896301 236.614024 
L 112.124933 278.338935 
L 112.353565 278.440209 
L 112.582197 278.014858 
L 112.81083 236.208928 
L 112.81083 236.208928 
L 113.039462 280.566964 
L 113.268094 281.782252 
L 113.496726 238.639505 
L 113.725358 279.250401 
L 113.953991 280.364416 
L 114.182623 278.845305 
L 114.411255 279.959319 
L 114.639887 279.047853 
L 114.868519 279.756771 
L 115.097152 279.554223 
L 115.554416 280.668238 
L 115.783048 281.782252 
L 116.011681 281.782252 
L 116.240313 282.187349 
L 116.468945 282.086075 
L 116.926209 284.617926 
L 117.154842 284.820474 
L 117.383474 283.909008 
L 118.069371 287.048503 
L 118.298003 287.352325 
L 118.526635 288.263792 
L 118.755267 287.048503 
L 118.983899 288.263792 
L 119.212532 288.263792 
L 119.441164 289.073984 
L 119.669796 288.263792 
L 119.898428 291.200739 
L 120.12706 289.884177 
L 120.355693 291.504562 
L 121.041589 286.845955 
L 121.041589 286.845955 
L 121.270222 286.845955 
L 121.270222 286.845955 
L 121.498854 287.757422 
L 121.498854 287.757422 
L 121.727486 287.656148 
L 121.727486 287.656148 
L 121.956118 288.263792 
L 121.956118 288.263792 
L 122.18475 287.656148 
L 122.18475 287.656148 
L 122.413383 287.554874 
L 122.413383 287.554874 
L 122.870647 288.97271 
L 123.099279 287.95997 
L 123.327912 289.276532 
L 123.556544 289.782903 
L 123.785176 289.681629 
L 124.013808 289.782903 
L 124.24244 290.593095 
L 124.471073 290.593095 
L 124.699705 290.896917 
L 124.928337 293.023672 
L 125.156969 293.935139 
L 125.385601 292.010932 
L 125.614234 292.517302 
L 125.842866 291.302014 
L 126.071498 292.517302 
L 126.30013 292.618576 
L 126.528763 292.314754 
L 126.757395 292.71985 
L 126.986027 291.605836 
L 127.214659 292.010932 
L 127.443291 292.71985 
L 127.671924 291.302014 
L 127.900556 290.694369 
L 128.129188 291.808384 
L 128.586453 298.087375 
L 128.815085 296.365716 
L 129.043717 214.02991 
L 129.272349 298.593745 
L 129.500981 301.125597 
L 129.729614 302.340885 
L 129.958246 299.302664 
L 130.186878 212.915895 
L 130.644142 297.074635 
L 130.872775 296.872087 
L 131.558671 298.087375 
L 131.787304 298.188649 
L 132.015936 297.581005 
L 132.244568 298.289923 
L 132.4732 299.505212 
L 132.701832 298.998842 
L 132.930465 299.505212 
L 133.159097 299.302664 
L 133.387729 296.973361 
L 133.616361 291.909658 
L 133.844994 300.821775 
L 134.073626 263.046552 
L 134.302258 302.847256 
L 134.53089 301.834515 
L 134.759522 303.049804 
L 134.988155 305.277833 
L 135.216787 309.024973 
L 135.445419 259.096864 
L 135.674051 259.299412 
L 135.902683 307.70841 
L 136.131316 303.049804 
L 136.359948 300.821775 
L 136.58858 301.935789 
L 136.817212 300.821775 
L 137.274477 300.112856 
L 137.503109 301.226871 
L 137.731741 301.328145 
L 137.960373 300.923049 
L 138.189006 301.125597 
L 138.417638 300.21413 
L 138.64627 301.631967 
L 138.874902 299.505212 
L 139.103535 295.859346 
L 139.332167 302.138337 
L 139.560799 302.847256 
L 139.789431 303.151078 
L 140.018063 302.44216 
L 140.246696 260.919797 
L 140.475328 305.986751 
L 140.70396 306.69567 
L 140.932592 302.239611 
L 141.161224 301.125597 
L 141.389857 308.113507 
L 141.618489 304.265092 
L 141.847121 302.543434 
L 142.075753 302.847256 
L 142.304386 301.935789 
L 142.76165 302.543434 
L 143.218914 303.049804 
L 143.676179 303.353626 
L 143.904811 302.644708 
L 144.133443 302.745982 
L 144.362075 301.328145 
L 144.590708 298.593745 
L 144.81934 302.644708 
L 145.276604 301.125597 
L 145.505237 301.328145 
L 146.191133 306.391848 
L 146.419765 302.037063 
L 146.648398 300.416678 
L 146.87703 310.240262 
L 147.105662 305.581655 
L 147.334294 303.556174 
L 147.562927 304.163818 
L 147.791559 302.847256 
L 148.020191 302.340885 
L 148.477455 301.834515 
L 148.706088 300.923049 
L 148.93472 302.644708 
L 149.163352 303.049804 
L 149.391984 302.94853 
L 149.620616 301.935789 
L 150.077881 295.96062 
L 150.306513 260.109605 
L 150.535145 302.644708 
L 150.763778 258.48922 
L 150.99241 299.606486 
L 151.221042 301.631967 
L 151.449674 215.346473 
L 151.678306 41.762743 
L 151.906939 299.403938 
L 152.135571 257.273931 
L 152.364203 305.885477 
L 152.592835 301.429419 
L 152.821468 300.315404 
L 153.0501 300.821775 
L 153.278732 298.796294 
L 153.507364 300.315404 
L 153.735996 298.391197 
L 153.964629 299.910308 
L 154.193261 299.505212 
L 154.421893 297.682279 
L 154.650525 297.884827 
L 154.879157 300.416678 
L 155.10779 296.061894 
L 155.336422 295.96062 
L 155.565054 296.46699 
L 155.793686 297.783553 
L 156.250951 297.884827 
L 156.479583 297.986101 
L 156.708215 297.175909 
L 156.936847 297.884827 
L 157.16548 298.188649 
L 157.394112 296.46699 
L 157.622744 296.365716 
L 157.851376 294.745331 
L 158.080009 294.745331 
L 158.308641 293.833865 
L 158.537273 291.504562 
L 158.765905 291.200739 
L 159.22317 289.681629 
L 159.451802 289.377806 
L 159.909066 290.187999 
L 160.137698 288.365066 
L 160.823595 262.945278 
L 161.052227 263.755471 
L 161.509492 268.819173 
L 161.738124 269.22427 
L 162.195388 273.98415 
L 162.424021 273.98415 
L 162.652653 274.895617 
L 162.881285 273.98415 
L 163.109917 272.262491 
L 163.33855 275.098165 
L 163.795814 270.135736 
L 164.024446 268.008981 
L 164.253078 267.907707 
L 164.710343 266.591144 
L 164.938975 267.907707 
L 165.167607 267.806433 
L 165.396239 266.99624 
L 165.624872 264.363115 
L 165.853504 265.578404 
L 166.082136 265.375856 
L 166.310768 264.970759 
L 166.539401 266.084774 
L 166.996665 266.287322 
L 167.225297 268.616625 
L 167.453929 268.717899 
L 167.682562 269.325544 
L 167.911194 273.882876 
L 168.139826 274.996891 
L 168.368458 231.145225 
L 168.597091 271.756121 
L 168.825723 274.085424 
L 169.054355 272.262491 
L 169.282987 272.667588 
L 169.511619 270.945929 
L 169.740252 271.958669 
L 169.968884 271.249751 
L 170.426148 272.667588 
L 170.65478 272.566313 
L 170.883413 272.870136 
L 171.112045 272.667588 
L 171.340677 272.97141 
L 171.797942 268.008981 
L 172.026574 269.73064 
L 172.255206 270.540832 
L 172.483838 274.186698 
L 172.71247 275.098165 
L 172.941103 234.385995 
L 173.169735 276.313453 
L 173.626999 280.769512 
L 173.855632 235.196187 
L 174.084264 275.199439 
L 174.312896 278.744031 
L 174.541528 273.98415 
L 174.77016 276.110905 
L 174.998793 275.300713 
L 175.227425 273.173958 
L 175.684689 275.098165 
L 175.913321 276.212179 
L 176.370586 273.781602 
L 176.82785 276.71855 
L 177.285115 275.199439 
L 177.513747 272.465039 
L 177.742379 277.22492 
L 178.428276 275.705809 
L 178.656908 276.921098 
L 178.88554 277.326194 
L 179.114172 277.123646 
L 179.342805 276.009631 
L 179.571437 276.71855 
L 179.800069 278.541483 
L 180.028701 278.744031 
L 180.257334 278.338935 
L 180.485966 278.642757 
L 180.94323 279.655497 
L 181.171862 279.047853 
L 181.629127 279.554223 
L 181.857759 279.351675 
L 182.086391 279.351675 
L 182.315024 278.845305 
L 182.543656 278.845305 
L 182.772288 279.149127 
L 183.229552 281.073334 
L 183.458185 279.959319 
L 183.686817 197.522239 
L 183.915449 280.769512 
L 184.144081 280.161868 
L 184.372713 281.377156 
L 184.601346 283.200089 
L 184.829978 239.956068 
L 185.05861 282.693719 
L 185.287242 284.820474 
L 185.744507 283.098815 
L 185.973139 283.402637 
L 186.201771 283.301363 
L 186.430403 283.909008 
L 186.659036 283.807733 
L 187.1163 283.909008 
L 187.573565 285.428118 
L 187.802197 286.440859 
L 188.030829 285.529392 
L 188.259461 283.909008 
L 188.488093 283.402637 
L 188.716726 286.744681 
L 188.945358 287.251051 
L 189.17399 285.731941 
L 189.402622 288.46634 
L 189.631254 288.46634 
L 190.088519 288.97271 
L 190.317151 290.491821 
L 190.545783 286.643407 
L 190.774416 290.086725 
L 191.003048 289.580355 
L 191.23168 288.263792 
L 191.460312 287.858696 
L 191.917577 288.365066 
L 192.146209 289.681629 
L 192.374841 290.187999 
L 192.832106 289.479081 
L 193.060738 289.479081 
L 193.28937 289.884177 
L 193.518002 289.377806 
L 193.746634 289.479081 
L 193.975267 287.757422 
L 194.203899 289.884177 
L 194.432531 290.390547 
L 194.661163 250.893666 
L 194.889795 292.517302 
L 195.118428 250.286021 
L 195.34706 36.19267 
L 195.575692 36.597767 
L 195.804324 206.636904 
L 196.032957 290.896917 
L 196.261589 211.599333 
L 196.490221 292.71985 
L 196.718853 252.00768 
L 196.947485 293.530043 
L 197.176118 293.023672 
L 197.40475 294.542783 
L 197.633382 294.644057 
L 198.090647 293.226221 
L 198.319279 293.023672 
L 198.547911 293.732591 
L 198.776543 295.150428 
L 199.005175 294.137687 
L 199.233808 292.010932 
L 199.46244 292.21348 
L 199.691072 296.770812 
L 200.148336 299.505212 
L 200.376969 257.780302 
L 200.605601 301.024323 
L 200.834233 302.745982 
L 201.062865 302.340885 
L 201.291498 256.463739 
L 201.52013 297.277183 
L 201.748762 302.239611 
L 201.977394 301.429419 
L 202.206026 299.20139 
L 202.434659 298.695019 
L 202.663291 297.682279 
L 203.120555 295.049154 
L 203.349188 294.238961 
L 203.57782 292.112206 
L 203.806452 292.010932 
L 204.035084 292.21348 
L 204.263716 292.21348 
L 204.492349 291.605836 
L 204.720981 288.365066 
L 204.949613 286.947229 
L 205.406877 285.934489 
L 205.63551 284.820474 
L 205.864142 206.434356 
L 206.092774 289.377806 
L 206.321406 208.763659 
L 206.550039 288.770162 
L 206.778671 287.149777 
L 207.007303 239.611736 
L 207.235935 289.782903 
L 207.235935 289.782903 
L 207.464567 287.251051 
L 207.464567 287.251051 
L 207.6932 287.048503 
L 207.6932 287.048503 
L 207.921832 285.529392 
L 207.921832 285.529392 
L 208.150464 286.137037 
L 208.150464 286.137037 
L 208.379096 288.162518 
L 208.379096 288.162518 
L 208.607729 287.048503 
L 208.607729 287.048503 
L 208.836361 287.453599 
L 208.836361 287.453599 
L 209.293625 287.656148 
L 209.293625 287.656148 
L 209.75089 285.630666 
L 209.75089 285.630666 
L 209.979522 285.630666 
L 209.979522 285.630666 
L 210.208154 281.377156 
L 210.208154 281.377156 
L 210.436786 258.387946 
L 210.436786 258.387946 
L 210.665418 249.577103 
L 210.665418 249.577103 
L 210.894051 208.966207 
L 211.122683 253.324243 
L 211.351315 257.780302 
L 211.579947 220.713998 
L 211.80858 265.882226 
L 212.037212 269.22427 
L 212.265844 270.439558 
L 212.494476 193.471277 
L 212.723108 272.363765 
L 212.951741 272.465039 
L 213.180373 272.768862 
L 213.409005 271.351025 
L 213.637637 271.553573 
L 213.866269 272.363765 
L 214.094902 272.059943 
L 214.323534 272.363765 
L 214.552166 271.249751 
L 214.780798 271.857395 
L 215.009431 273.275232 
L 215.466695 272.768862 
L 215.695327 271.756121 
L 215.923959 272.97141 
L 216.152592 279.149127 
L 216.381224 276.71855 
L 216.609856 277.022372 
L 217.067121 280.364416 
L 217.295753 284.111556 
L 217.524385 285.326844 
L 217.753017 280.364416 
L 217.981649 279.149127 
L 218.210282 279.655497 
L 218.438914 281.883526 
L 218.667546 282.288623 
L 218.896178 283.503911 
L 219.12481 280.46569 
L 219.353443 281.984801 
L 219.810707 283.098815 
L 220.267972 285.833215 
L 220.496604 287.048503 
L 220.953868 286.339585 
L 221.1825 284.7192 
L 221.411133 281.174608 
L 221.639765 292.21348 
L 221.868397 294.340235 
L 222.097029 292.314754 
L 222.325662 291.808384 
L 222.782926 296.872087 
L 223.011558 294.644057 
L 223.24019 290.896917 
L 223.468823 290.998191 
L 223.697455 291.302014 
L 223.926087 289.276532 
L 224.154719 290.289273 
L 224.383351 289.073984 
L 224.611984 288.770162 
L 225.069248 290.086725 
L 225.755145 287.95997 
L 226.212409 288.46634 
L 226.441041 288.668888 
L 226.669674 287.554874 
L 226.898306 287.554874 
L 227.35557 288.162518 
L 227.584203 286.744681 
L 227.812835 287.251051 
L 228.041467 287.453599 
L 228.270099 288.567614 
L 228.498731 287.95997 
L 228.727364 286.947229 
L 228.955996 286.947229 
L 229.184628 285.833215 
L 229.41326 285.326844 
L 229.641892 285.731941 
L 229.870525 285.428118 
L 230.099157 285.731941 
L 230.327789 286.238311 
L 230.556421 285.731941 
L 231.013686 286.035763 
L 231.242318 285.326844 
L 231.47095 285.630666 
L 231.699582 285.529392 
L 231.928215 285.22557 
L 232.156847 284.617926 
L 232.385479 284.516652 
L 232.614111 285.22557 
L 232.842744 286.744681 
L 233.071376 289.175258 
L 233.300008 287.251051 
L 233.52864 286.744681 
L 233.757272 288.871436 
L 233.985905 288.668888 
L 234.214537 286.440859 
L 234.443169 287.554874 
L 234.671801 286.440859 
L 234.900433 286.137037 
L 235.357698 287.858696 
L 235.58633 288.668888 
L 235.814962 287.95997 
L 236.043595 286.845955 
L 236.272227 287.554874 
L 236.500859 286.643407 
L 236.729491 287.656148 
L 236.958123 286.845955 
L 237.186756 284.314104 
L 237.415388 283.605185 
L 237.872652 282.997541 
L 238.101285 282.997541 
L 238.329917 283.807733 
L 238.558549 285.630666 
L 238.787181 283.605185 
L 239.015813 283.503911 
L 239.244446 284.111556 
L 239.70171 284.516652 
L 240.158974 282.389897 
L 240.616239 281.47843 
L 240.844871 281.275882 
L 241.073503 281.377156 
L 241.302136 282.187349 
L 241.7594 281.782252 
L 242.216664 282.086075 
L 242.445297 281.579704 
L 242.673929 281.377156 
L 242.902561 281.47843 
L 243.131193 280.769512 
L 243.359826 280.668238 
L 243.588458 280.870786 
L 243.81709 281.782252 
L 244.045722 281.377156 
L 244.274354 282.693719 
L 244.502987 279.351675 
L 244.731619 279.554223 
L 244.960251 282.187349 
L 245.188883 278.642757 
L 245.646148 275.503261 
L 245.87478 274.693069 
L 246.103412 273.173958 
L 246.332044 272.768862 
L 246.560677 271.553573 
L 246.789309 272.059943 
L 247.246573 270.74338 
L 247.475205 271.553573 
L 247.703838 270.338284 
L 247.93247 270.945929 
L 248.161102 269.933188 
L 248.389734 269.528092 
L 248.618366 268.008981 
L 248.846999 268.616625 
L 249.075631 268.211529 
L 249.304263 269.933188 
L 249.761528 270.23701 
L 250.447424 269.22427 
L 250.904689 268.515351 
L 251.133321 269.426818 
L 251.361953 269.426818 
L 251.590585 269.122996 
L 251.819218 269.933188 
L 252.04785 270.034462 
L 252.505114 273.680328 
L 252.733746 274.591795 
L 252.962379 274.389246 
L 253.419643 274.895617 
L 253.648275 274.693069 
L 253.876907 274.693069 
L 254.10554 273.882876 
L 254.334172 272.059943 
L 254.562804 279.959319 
L 254.791436 282.997541 
L 255.020069 282.187349 
L 255.248701 280.870786 
L 255.477333 282.491171 
L 255.934597 287.149777 
L 256.16323 278.136386 
L 256.849126 280.060593 
L 257.306391 278.440209 
L 257.535023 279.047853 
L 257.763655 278.744031 
L 257.992287 279.858045 
L 258.22092 278.541483 
L 258.449552 279.756771 
L 258.678184 279.250401 
L 258.906816 279.655497 
L 259.364081 279.756771 
L 259.592713 277.73129 
L 259.821345 277.022372 
L 260.049977 283.807733 
L 260.27861 284.516652 
L 260.507242 284.111556 
L 260.735874 282.389897 
L 260.964506 283.098815 
L 261.421771 287.95997 
L 261.650403 279.250401 
L 261.879035 281.47843 
L 262.3363 279.554223 
L 262.564932 279.250401 
L 263.022196 279.149127 
L 263.250828 279.858045 
L 263.479461 278.744031 
L 263.708093 279.554223 
L 263.936725 279.047853 
L 264.165357 278.845305 
L 264.393989 279.149127 
L 264.622622 280.060593 
L 264.851254 280.060593 
L 265.308518 278.035112 
L 265.537151 283.605185 
L 265.765783 283.301363 
L 266.223047 283.200089 
L 266.680312 287.757422 
L 266.908944 287.656148 
L 267.137576 280.566964 
L 267.366208 282.491171 
L 267.594841 282.693719 
L 267.823473 281.680978 
L 268.052105 282.288623 
L 268.280737 281.782252 
L 268.509369 280.060593 
L 268.738002 279.351675 
L 269.195266 282.693719 
L 269.423898 281.984801 
L 269.881163 283.301363 
L 270.338427 281.984801 
L 270.567059 280.364416 
L 270.795692 284.111556 
L 271.024324 290.593095 
L 271.481588 290.289273 
L 271.71022 290.998191 
L 271.938853 293.833865 
L 272.167485 255.450998 
L 272.396117 255.856094 
L 272.624749 288.061244 
L 272.853382 289.681629 
L 273.082014 293.124946 
L 273.310646 289.681629 
L 273.76791 291.605836 
L 273.996543 290.491821 
L 274.453807 291.70711 
L 274.682439 290.896917 
L 274.911071 291.403288 
L 275.139704 290.694369 
L 275.368336 290.795643 
L 275.8256 291.504562 
L 276.054233 290.593095 
L 276.282865 291.099465 
L 276.511497 296.061894 
L 276.740129 297.986101 
L 276.968761 297.682279 
L 277.197394 296.669538 
L 277.426026 298.087375 
L 277.654658 260.210879 
L 277.88329 298.695019 
L 278.111923 294.340235 
L 278.340555 295.859346 
L 279.026451 293.226221 
L 279.255084 293.226221 
L 279.712348 292.922398 
L 279.94098 291.909658 
L 280.398245 294.441509 
L 280.626877 294.542783 
L 280.855509 293.226221 
L 281.084141 292.71985 
L 281.312774 292.821124 
L 281.541406 291.909658 
L 281.770038 292.010932 
L 281.99867 296.46699 
L 282.227302 295.251702 
L 282.455935 294.846605 
L 282.684567 296.669538 
L 282.913199 295.555524 
L 283.141831 298.593745 
L 283.370463 257.679027 
L 283.599096 292.618576 
L 283.827728 252.817873 
L 284.05636 295.150428 
L 284.742257 291.808384 
L 284.970889 291.909658 
L 285.199521 292.517302 
L 285.428153 292.112206 
L 286.342682 292.21348 
L 286.571315 292.71985 
L 287.028579 291.200739 
L 287.257211 291.808384 
L 287.485843 294.846605 
L 287.714476 293.732591 
L 288.17174 290.086725 
L 288.400372 293.226221 
L 288.629004 293.732591 
L 288.857637 293.732591 
L 289.086269 294.340235 
L 289.543533 297.479731 
L 289.772166 295.555524 
L 290.000798 295.656798 
L 290.22943 295.251702 
L 290.458062 293.428769 
L 290.686694 295.96062 
L 291.143959 294.644057 
L 291.372591 294.542783 
L 291.601223 295.859346 
L 291.829856 295.758072 
L 292.058488 294.846605 
L 292.28712 297.378457 
L 292.515752 296.061894 
L 292.744384 295.96062 
L 292.973017 296.46699 
L 293.201649 295.352976 
L 293.430281 296.061894 
L 293.658913 294.542783 
L 293.887545 297.378457 
L 294.116178 297.277183 
L 294.34481 295.758072 
L 294.802074 294.947879 
L 295.030707 293.732591 
L 295.259339 295.45425 
L 295.487971 296.264442 
L 295.945235 295.150428 
L 296.173868 296.568264 
L 296.631132 296.973361 
L 296.859764 298.391197 
L 297.088397 298.087375 
L 297.317029 298.998842 
L 297.545661 297.986101 
L 297.774293 299.20139 
L 298.002925 298.695019 
L 298.46019 306.290574 
L 298.688822 305.986751 
L 298.917454 304.771463 
L 299.146086 304.974011 
L 299.374719 306.796944 
L 299.831983 308.113507 
L 300.060615 302.543434 
L 300.289248 300.821775 
L 300.51788 302.138337 
L 300.746512 302.543434 
L 300.975144 302.239611 
L 301.203776 304.163818 
L 301.432409 302.543434 
L 301.889673 303.252352 
L 302.118305 304.163818 
L 302.57557 301.935789 
L 302.804202 302.745982 
L 303.032834 301.328145 
L 303.261466 302.138337 
L 303.490099 300.517952 
L 303.718731 300.720501 
L 303.947363 302.138337 
L 304.175995 302.847256 
L 304.404627 302.94853 
L 304.63326 305.986751 
L 305.090524 309.531343 
L 305.319156 309.430069 
L 305.547789 302.239611 
L 305.776421 302.94853 
L 306.233685 305.075285 
L 306.462317 305.581655 
L 306.69095 304.062544 
L 307.148214 304.366367 
L 307.376846 304.062544 
L 307.605479 303.96127 
L 307.834111 305.075285 
L 308.062743 304.366367 
L 308.291375 302.745982 
L 308.520007 301.935789 
L 308.74864 302.239611 
L 308.977272 301.834515 
L 309.205904 300.720501 
L 309.434536 300.923049 
L 309.663168 301.935789 
L 309.891801 303.4549 
L 310.349065 310.037714 
L 310.577697 271.047203 
L 310.80633 307.404588 
L 311.034962 304.670189 
L 311.263594 306.391848 
L 311.492226 306.391848 
L 311.720858 303.4549 
L 311.949491 302.239611 
L 312.178123 305.277833 
L 312.406755 305.885477 
L 312.635387 305.885477 
L 312.86402 305.581655 
L 313.092652 304.265092 
L 313.321284 305.885477 
L 313.549916 305.784203 
L 313.778548 307.100766 
L 314.007181 305.682929 
L 314.235813 305.784203 
L 314.464445 304.670189 
L 314.921709 312.772113 
L 315.150342 312.468291 
L 315.378974 310.94918 
L 315.607606 311.050454 
L 315.836238 311.45555 
L 316.064871 313.68358 
L 316.293503 312.468291 
L 316.522135 305.480381 
L 316.750767 304.467641 
L 317.436664 287.656148 
L 317.665296 285.326844 
L 318.122561 284.415378 
L 318.351193 285.023022 
L 318.579825 284.516652 
L 318.808457 284.415378 
L 319.265722 286.947229 
L 319.494354 287.352325 
L 319.722986 289.479081 
L 319.951618 288.365066 
L 320.18025 288.668888 
L 320.637515 294.137687 
L 320.866147 293.124946 
L 321.094779 253.324243 
L 321.323412 295.859346 
L 321.552044 256.868835 
L 321.780676 297.175909 
L 322.009308 293.124946 
L 322.23794 293.124946 
L 322.466573 294.745331 
L 322.695205 292.821124 
L 322.923837 292.922398 
L 323.381101 295.758072 
L 323.609734 295.555524 
L 323.838366 295.150428 
L 324.29563 291.70711 
L 324.524263 290.289273 
L 324.752895 290.187999 
L 324.981527 288.365066 
L 325.210159 287.453599 
L 325.667424 287.858696 
L 325.896056 288.871436 
L 326.35332 289.377806 
L 326.581953 290.086725 
L 326.810585 291.403288 
L 327.267849 290.694369 
L 327.496481 294.036413 
L 327.725114 291.909658 
L 328.182378 282.997541 
L 328.41101 282.794993 
L 328.639642 282.288623 
L 329.096907 277.832564 
L 329.325539 278.440209 
L 329.554171 280.46569 
L 329.782804 279.554223 
L 330.011436 279.655497 
L 330.4687 277.832564 
L 330.697332 277.832564 
L 331.154597 276.71855 
L 331.383229 279.351675 
L 331.611861 278.136386 
L 331.840494 279.351675 
L 332.069126 278.338935 
L 332.297758 276.009631 
L 332.52639 276.414728 
L 332.755022 277.73129 
L 332.983655 275.300713 
L 333.212287 275.098165 
L 333.440919 272.161217 
L 333.669551 273.680328 
L 333.898183 269.325544 
L 334.355448 267.198789 
L 334.58408 264.464389 
L 334.812712 264.261841 
L 335.041345 262.135086 
L 335.269977 262.033812 
L 335.498609 261.426167 
L 335.955873 258.793042 
L 336.184506 259.50196 
L 336.413138 257.273931 
L 336.64177 257.071383 
L 336.870402 256.261191 
L 337.099035 256.565013 
L 337.327667 257.98285 
L 337.556299 258.48922 
L 337.784931 258.387946 
L 338.242196 256.970109 
L 338.69946 257.071383 
L 338.928092 256.970109 
L 339.156724 256.666287 
L 339.613989 255.045902 
L 339.842621 254.539532 
L 340.299886 260.210879 
L 340.528518 257.375205 
L 340.75715 257.375205 
L 340.985782 257.679027 
L 341.214414 257.476479 
L 341.443047 255.957369 
L 341.671679 256.463739 
L 341.900311 256.463739 
L 342.357576 260.919797 
L 342.586208 261.021071 
L 342.81484 260.717249 
L 343.043472 261.72999 
L 343.272104 262.23636 
L 343.272104 262.23636 
L 343.500737 262.135086 
L 343.500737 262.135086 
L 343.729369 261.72999 
L 343.729369 261.72999 
L 344.415265 263.755471 
L 344.415265 263.755471 
L 344.643898 263.451649 
L 344.87253 264.768211 
L 344.87253 264.768211 
L 345.101162 264.768211 
L 345.101162 264.768211 
L 345.329794 263.451649 
L 345.329794 263.451649 
L 345.558427 264.565663 
L 345.558427 264.565663 
L 345.787059 263.654197 
L 345.787059 263.654197 
L 346.015691 264.059293 
L 346.015691 264.059293 
L 346.244323 265.072033 
L 346.244323 265.072033 
L 346.472955 264.565663 
L 346.472955 264.565663 
L 346.701588 265.578404 
L 346.701588 265.578404 
L 346.93022 267.198789 
L 347.158852 267.198789 
L 347.158852 267.198789 
L 347.387484 268.008981 
L 347.387484 268.008981 
L 347.844749 275.604535 
L 347.844749 275.604535 
L 348.302013 271.047203 
L 348.302013 271.047203 
L 348.530645 271.857395 
L 348.759278 271.756121 
L 348.759278 271.756121 
L 348.98791 270.945929 
L 348.98791 270.945929 
L 349.216542 270.844655 
L 349.216542 270.844655 
L 349.445174 270.945929 
L 349.445174 270.945929 
L 349.673806 272.97141 
L 349.673806 272.97141 
L 349.902439 271.351025 
L 350.131071 272.262491 
L 350.131071 272.262491 
L 350.359703 271.654847 
L 350.359703 271.654847 
L 350.816968 271.756121 
L 350.816968 271.756121 
L 351.0456 272.262491 
L 351.0456 272.262491 
L 351.502864 272.161217 
L 351.502864 272.161217 
L 351.731496 273.47778 
L 351.731496 273.47778 
L 351.960129 272.161217 
L 351.960129 272.161217 
L 352.417393 273.47778 
L 352.417393 273.47778 
L 352.646025 273.98415 
L 352.646025 273.98415 
L 352.874658 273.882876 
L 352.874658 273.882876 
L 353.10329 274.895617 
L 353.10329 274.895617 
L 353.331922 278.541483 
L 353.331922 278.541483 
L 353.789186 270.844655 
L 353.789186 270.844655 
L 354.017819 270.23701 
L 354.017819 270.23701 
L 354.246451 268.515351 
L 354.246451 268.515351 
L 354.703715 269.22427 
L 354.932347 269.325544 
L 355.16098 270.135736 
L 355.389612 269.528092 
L 355.618244 270.034462 
L 355.846876 271.047203 
L 356.304141 271.148477 
L 356.761405 270.439558 
L 356.990037 269.831914 
L 357.447302 269.831914 
L 357.675934 269.629366 
L 358.133198 268.616625 
L 358.361831 268.414077 
L 358.590463 268.515351 
L 358.819095 269.22427 
L 359.047727 268.616625 
L 359.27636 269.264779 
L 359.504992 269.528092 
L 359.504992 269.528092 
L 359.733624 270.135736 
L 359.733624 270.135736 
L 359.962256 269.831914 
L 360.648153 265.882226 
L 360.876785 265.9835 
L 361.105417 265.47713 
L 361.33405 266.186048 
L 361.562682 266.48987 
L 361.791314 266.48987 
L 362.019946 266.99624 
L 362.248578 266.894966 
L 362.477211 267.198789 
L 362.705843 267.300063 
L 362.934475 267.705159 
L 363.163107 267.401337 
L 363.391739 267.401337 
L 363.620372 266.48987 
L 364.306268 266.48987 
L 364.763533 267.603885 
L 364.992165 268.819173 
L 365.220797 267.300063 
L 365.449429 267.806433 
L 365.678062 267.705159 
L 365.906694 268.110255 
L 366.135326 268.211529 
L 366.592591 270.945929 
L 367.049855 266.793692 
L 367.507119 269.73064 
L 367.735752 269.325544 
L 368.193016 270.23701 
L 368.421648 269.831914 
L 368.65028 268.920447 
L 368.878913 269.426818 
L 369.107545 268.819173 
L 369.336177 269.426818 
L 369.564809 270.844655 
L 369.793442 270.034462 
L 370.022074 270.74338 
L 370.250706 270.540832 
L 370.479338 271.351025 
L 370.936603 275.604535 
L 371.165235 275.705809 
L 371.393867 272.667588 
L 371.622499 274.693069 
L 371.851132 275.300713 
L 372.079764 274.733578 
L 372.308396 274.794343 
L 372.308396 274.794343 
L 372.537028 273.376506 
L 372.537028 273.376506 
L 372.76566 272.870136 
L 372.76566 272.870136 
L 372.994293 274.591795 
L 372.994293 274.591795 
L 373.451557 274.085424 
L 373.451557 274.085424 
L 373.680189 274.389246 
L 374.137454 274.287972 
L 374.137454 274.287972 
L 374.366086 274.996891 
L 374.366086 274.996891 
L 374.594718 274.085424 
L 374.594718 274.085424 
L 374.82335 273.98415 
L 374.82335 273.98415 
L 375.051983 277.123646 
L 375.051983 277.123646 
L 375.280615 282.794993 
L 375.280615 282.794993 
L 375.737879 277.427468 
L 375.966511 277.022372 
L 376.195144 278.744031 
L 376.423776 279.452949 
L 376.652408 278.035112 
L 376.88104 274.693069 
L 377.338305 277.022372 
L 377.566937 279.452949 
L 378.252834 274.085424 
L 378.481466 276.819824 
L 378.710098 275.705809 
L 378.93873 277.22492 
L 379.167362 276.617276 
L 379.395995 277.427468 
L 379.624627 277.73129 
L 380.081891 277.427468 
L 380.310524 277.630016 
L 380.539156 281.47843 
L 380.767788 280.161868 
L 381.225052 280.97206 
L 381.453685 239.145875 
L 381.682317 279.554223 
L 381.910949 241.576453 
L 382.139581 281.47843 
L 382.368214 276.414728 
L 382.596846 244.918497 
L 382.825478 284.21283 
L 383.282742 280.364416 
L 383.511375 280.870786 
L 383.740007 280.161868 
L 384.197271 280.060593 
L 384.654536 279.149127 
L 384.883168 279.452949 
L 385.1118 280.161868 
L 385.340432 280.263142 
L 385.569065 280.060593 
L 385.797697 278.744031 
L 386.026329 283.605185 
L 386.254961 283.706459 
L 386.712226 279.756771 
L 386.940858 278.440209 
L 387.16949 279.858045 
L 387.398122 239.145875 
L 387.626755 239.956068 
L 387.855387 277.630016 
L 388.084019 241.880275 
L 388.312651 283.301363 
L 388.541283 277.326194 
L 388.769916 280.668238 
L 389.22718 277.22492 
L 389.455812 277.022372 
L 389.913077 280.668238 
L 390.141709 280.870786 
L 390.598973 278.946579 
L 390.827606 279.149127 
L 391.056238 277.933838 
L 391.28487 277.73129 
L 391.513502 277.933838 
L 391.742134 279.452949 
L 391.970767 279.858045 
L 392.199399 239.24715 
L 392.428031 279.554223 
L 392.656663 280.566964 
L 392.885295 279.250401 
L 393.113928 277.123646 
L 393.34256 196.509499 
L 393.571192 276.71855 
L 393.799824 281.275882 
L 394.028457 279.655497 
L 394.257089 279.858045 
L 394.485721 276.617276 
L 394.714353 282.896267 
L 395.171618 279.351675 
L 395.40025 280.364416 
L 395.628882 280.769512 
L 395.857514 280.769512 
L 396.314779 278.035112 
L 396.543411 277.933838 
L 396.772043 279.250401 
L 397.000675 284.617926 
L 397.229308 284.21283 
L 397.45794 278.035112 
L 397.686572 278.845305 
L 397.915204 278.237661 
L 398.143836 276.313453 
L 398.372469 275.401987 
L 398.601101 239.348424 
L 398.829733 277.22492 
L 399.058365 279.250401 
L 399.744262 276.110905 
L 399.972894 274.287972 
L 400.430159 274.996891 
L 400.658791 274.591795 
L 400.887423 275.705809 
L 401.116055 275.807083 
L 401.344688 279.756771 
L 401.57332 278.035112 
L 401.801952 280.060593 
L 402.030584 279.452949 
L 402.259216 276.414728 
L 403.173745 258.99559 
L 403.402377 257.98285 
L 403.859642 259.198138 
L 404.088274 260.919797 
L 404.316906 261.324893 
L 404.774171 262.844004 
L 405.002803 261.72999 
L 405.460067 264.869485 
L 405.6887 263.350375 
L 405.917332 263.552923 
L 406.145964 262.540182 
L 406.374596 260.312153 
L 406.603229 260.008331 
L 407.060493 258.590494 
L 407.289125 258.691768 
L 407.517757 259.198138 
L 407.74639 258.894316 
L 408.203654 269.325544 
L 408.432286 267.198789 
L 408.660918 263.552923 
L 408.889551 263.451649 
L 409.346815 272.059943 
L 409.80408 262.823749 
L 410.032712 263.350375 
L 410.032712 263.350375 
L 410.261344 261.932538 
L 410.261344 261.932538 
L 410.489976 262.033812 
L 410.489976 262.033812 
L 410.718608 261.831264 
L 410.718608 261.831264 
L 410.947241 262.844004 
L 410.947241 262.844004 
L 411.175873 263.147826 
L 411.404505 262.641456 
L 411.404505 262.641456 
L 411.86177 262.844004 
L 411.86177 262.844004 
L 412.090402 263.552923 
L 412.090402 263.552923 
L 412.319034 262.844004 
L 412.319034 262.844004 
L 412.547666 262.74273 
L 412.547666 262.74273 
L 412.776298 262.945278 
L 412.776298 262.945278 
L 413.004931 262.74273 
L 413.004931 262.74273 
L 413.233563 263.147826 
L 413.233563 263.147826 
L 413.690827 270.135736 
L 413.690827 270.135736 
L 413.919459 267.198789 
L 413.919459 267.198789 
L 414.148092 267.907707 
L 414.376724 270.439558 
L 414.605356 271.553573 
L 414.833988 268.616625 
L 415.062621 271.452299 
L 415.291253 268.717899 
L 415.519885 270.844655 
L 415.748517 268.920447 
L 415.977149 268.312803 
L 416.205782 269.122996 
L 416.434414 268.211529 
L 416.663046 268.717899 
L 416.891678 268.920447 
L 417.120311 270.23701 
L 417.348943 269.528092 
L 417.577575 269.325544 
L 417.806207 268.515351 
L 418.034839 269.831914 
L 418.263472 269.325544 
L 418.492104 270.135736 
L 418.720736 270.338284 
L 418.949368 271.958669 
L 419.178 278.035112 
L 419.406633 277.73129 
L 419.635265 275.604535 
L 419.863897 276.110905 
L 420.092529 275.807083 
L 420.321162 281.377156 
L 420.549794 280.668238 
L 420.778426 275.807083 
L 421.007058 275.199439 
L 421.23569 277.630016 
L 421.464323 276.212179 
L 421.692955 273.47778 
L 421.921587 273.579054 
L 422.150219 273.882876 
L 422.378852 273.781602 
L 422.607484 273.47778 
L 422.836116 272.262491 
L 423.064748 274.591795 
L 423.29338 274.085424 
L 423.522013 274.389246 
L 423.750645 272.667588 
L 423.979277 273.882876 
L 424.207909 272.566313 
L 424.436541 273.275232 
L 424.893806 272.059943 
L 425.122438 273.275232 
L 425.35107 273.275232 
L 425.808335 280.263142 
L 426.036967 280.060593 
L 426.265599 277.528742 
L 426.494231 276.819824 
L 426.722864 275.199439 
L 426.951496 274.976636 
L 427.180128 276.313453 
L 427.637392 273.98415 
L 428.094657 273.882876 
L 428.323289 273.781602 
L 428.551921 275.199439 
L 428.780554 274.591795 
L 429.009186 274.49052 
L 429.237818 274.186698 
L 429.46645 274.895617 
L 429.695082 274.287972 
L 429.923715 272.97141 
L 430.152347 278.744031 
L 430.380979 281.275882 
L 430.609611 277.427468 
L 430.838244 277.022372 
L 431.066876 279.554223 
L 431.295508 242.99429 
L 431.52414 242.589193 
L 431.752772 277.326194 
L 431.981405 280.161868 
L 432.438669 277.528742 
L 432.667301 278.035112 
L 432.895933 277.832564 
L 433.124566 277.427468 
L 433.353198 276.414728 
L 433.58183 276.819824 
L 434.039095 278.338935 
L 434.267727 277.630016 
L 434.724991 277.326194 
L 434.953623 278.744031 
L 435.182256 278.744031 
L 435.63952 286.744681 
L 436.096785 280.870786 
L 436.325417 281.680978 
L 436.554049 282.997541 
L 436.782681 286.137037 
L 437.011313 284.617926 
L 437.239946 206.738178 
L 437.468578 285.833215 
L 437.925842 281.377156 
L 438.383107 279.554223 
L 438.611739 280.263142 
L 438.840371 280.263142 
L 439.297636 279.655497 
L 439.526268 280.870786 
L 439.7549 280.97206 
L 439.983532 279.351675 
L 440.212164 280.263142 
L 440.669429 279.959319 
L 441.126693 288.871436 
L 441.583958 283.706459 
L 442.041222 285.22557 
L 442.269854 288.871436 
L 442.498487 286.643407 
L 442.727119 287.251051 
L 442.955751 288.770162 
L 443.184383 285.22557 
L 443.413015 283.807733 
L 443.641648 283.098815 
L 444.098912 282.592445 
L 444.327544 282.288623 
L 444.556177 282.491171 
L 444.784809 283.503911 
L 445.013441 282.592445 
L 445.242073 282.997541 
L 445.470705 282.086075 
L 445.699338 283.402637 
L 446.613867 278.440209 
L 446.842499 280.364416 
L 447.071131 284.091301 
L 447.299763 244.918497 
L 447.528395 284.314104 
L 447.757028 287.048503 
L 447.98566 204.206327 
L 448.214292 284.111556 
L 448.442924 287.757422 
L 449.128821 279.858045 
L 449.357453 276.313453 
L 449.586085 277.326194 
L 449.814718 280.161868 
L 450.500614 284.111556 
L 450.729246 282.794993 
L 450.957879 282.288623 
L 451.186511 280.060593 
L 451.415143 279.149127 
L 451.643775 279.858045 
L 451.872408 278.744031 
L 452.10104 274.794343 
L 452.329672 277.427468 
L 452.558304 278.136386 
L 452.786936 280.263142 
L 453.015569 280.263142 
L 453.244201 278.541483 
L 453.472833 278.946579 
L 453.701465 280.364416 
L 453.930097 277.123646 
L 454.15873 275.604535 
L 454.615994 265.780952 
L 455.301891 261.831264 
L 455.759155 262.033812 
L 455.987787 260.413427 
L 456.21642 259.907057 
L 456.445052 257.476479 
L 456.673684 259.198138 
L 457.130949 255.147176 
L 457.359581 256.463739 
L 457.588213 256.970109 
L 457.816845 252.210229 
L 458.045477 252.412777 
L 458.502742 250.589844 
L 458.731374 249.070733 
L 458.960006 248.564363 
L 459.188638 250.083473 
L 459.417271 247.349074 
L 459.645903 248.26054 
L 459.874535 247.2478 
L 460.103167 247.146526 
L 460.3318 247.652896 
L 460.560432 246.640156 
L 460.789064 246.640156 
L 461.017696 246.842704 
L 461.474961 248.159266 
L 462.160857 250.286021 
L 462.389489 249.779651 
L 462.618122 247.855444 
L 463.075386 248.766911 
L 463.761283 252.210229 
L 463.989915 251.805132 
L 464.218547 251.805132 
L 464.675812 254.640806 
L 464.904444 253.729339 
L 465.133076 254.438258 
L 465.361708 256.970109 
L 465.590341 257.577753 
L 465.818973 256.767561 
L 466.047605 257.881576 
L 466.276237 257.071383 
L 466.504869 252.514051 
L 466.733502 258.286672 
L 466.962134 256.565013 
L 467.419398 257.577753 
L 467.64803 258.691768 
L 467.876663 258.894316 
L 468.105295 261.324893 
L 468.333927 260.109605 
L 468.562559 266.186048 
L 468.791192 268.414077 
L 469.019824 268.819173 
L 469.248456 270.23701 
L 469.70572 275.705809 
L 469.934353 273.882876 
L 470.162985 268.312803 
L 470.391617 268.717899 
L 470.848882 267.401337 
L 471.077514 267.806433 
L 471.306146 266.692418 
L 471.534778 267.300063 
L 471.76341 270.540832 
L 471.992043 270.23701 
L 472.220675 269.629366 
L 472.449307 269.426818 
L 472.677939 269.831914 
L 472.906571 271.452299 
L 473.135204 269.933188 
L 473.363836 270.642106 
L 473.592468 269.629366 
L 473.8211 269.933188 
L 474.049733 272.566313 
L 474.278365 272.262491 
L 474.506997 271.047203 
L 474.735629 272.059943 
L 474.964261 273.98415 
L 475.192894 277.832564 
L 475.421526 276.313453 
L 475.650158 273.072684 
L 476.107423 272.161217 
L 476.336055 272.465039 
L 476.564687 274.186698 
L 476.793319 273.275232 
L 477.021951 274.693069 
L 477.250584 273.072684 
L 477.479216 274.186698 
L 477.707848 273.47778 
L 477.93648 273.680328 
L 478.393745 272.465039 
L 478.622377 273.275232 
L 478.851009 274.794343 
L 479.079641 273.781602 
L 479.308274 273.882876 
L 479.536906 278.946579 
L 479.765538 279.756771 
L 480.451435 273.680328 
L 480.680067 273.47778 
L 480.908699 272.465039 
L 481.137331 272.566313 
L 481.365964 274.591795 
L 481.594596 272.97141 
L 481.823228 273.275232 
L 482.05186 271.452299 
L 482.509125 275.908357 
L 482.966389 276.009631 
L 483.195021 275.199439 
L 483.423653 274.996891 
L 483.652286 275.807083 
L 484.338182 274.996891 
L 484.566815 274.794343 
L 484.795447 273.680328 
L 485.024079 273.98415 
L 485.252711 273.47778 
L 485.481343 275.401987 
L 485.709976 234.791091 
L 485.938608 276.212179 
L 486.16724 276.819824 
L 486.395872 276.313453 
L 486.853137 203.699956 
L 487.081769 277.123646 
L 487.310401 230.942677 
L 487.539033 270.74338 
L 487.996298 276.617276 
L 488.22493 272.465039 
L 488.453562 277.73129 
L 488.682194 273.579054 
L 488.910827 275.503261 
L 489.139459 278.845305 
L 489.596723 277.832564 
L 489.825356 279.452949 
L 490.28262 276.819824 
L 490.511252 275.098165 
L 490.739884 274.895617 
L 490.968517 276.516002 
L 491.197149 276.71855 
L 491.425781 276.71855 
L 491.883046 278.237661 
L 492.111678 277.630016 
L 492.34031 277.528742 
L 492.568942 277.022372 
L 492.797574 279.351675 
L 493.483471 278.136386 
L 493.712103 278.541483 
L 493.940735 278.440209 
L 494.169368 277.528742 
L 494.398 277.427468 
L 494.855264 279.250401 
L 495.083897 280.668238 
L 495.312529 280.566964 
L 495.769793 277.123646 
L 495.998425 279.756771 
L 496.45569 280.97206 
L 496.684322 279.959319 
L 496.912954 280.566964 
L 497.370219 279.351675 
L 497.598851 280.161868 
L 497.827483 279.149127 
L 498.056115 279.047853 
L 498.284748 279.250401 
L 498.742012 280.46569 
L 498.970644 280.364416 
L 499.199276 280.46569 
L 499.427909 280.263142 
L 499.656541 279.554223 
L 500.113805 280.97206 
L 500.342438 281.275882 
L 500.57107 279.858045 
L 500.799702 281.174608 
L 501.256966 280.060593 
L 501.714231 281.883526 
L 501.942863 284.21283 
L 502.400127 285.326844 
L 502.62876 282.288623 
L 502.857392 282.389897 
L 503.314656 281.782252 
L 503.543289 282.491171 
L 503.771921 282.288623 
L 504.000553 284.21283 
L 504.229185 284.516652 
L 504.457817 283.807733 
L 504.915082 285.023022 
L 505.372346 283.098815 
L 505.600979 285.630666 
L 505.829611 286.035763 
L 506.058243 285.22557 
L 506.286875 284.921748 
L 506.74414 282.592445 
L 506.972772 284.111556 
L 507.658668 292.112206 
L 507.887301 293.631317 
L 508.115933 287.95997 
L 508.344565 285.731941 
L 508.573197 285.124296 
L 508.80183 286.643407 
L 509.030462 286.440859 
L 509.259094 285.22557 
L 509.487726 285.22557 
L 509.716358 285.731941 
L 510.173623 285.124296 
L 510.402255 285.731941 
L 510.630887 283.969772 
L 510.85952 283.402637 
L 510.85952 283.402637 
L 511.088152 283.301363 
L 511.088152 283.301363 
L 511.316784 282.389897 
L 511.316784 282.389897 
L 511.545416 282.086075 
L 511.774048 282.187349 
L 511.774048 282.187349 
L 512.002681 283.402637 
L 512.002681 283.402637 
L 512.231313 282.896267 
L 512.231313 282.896267 
L 512.459945 282.693719 
L 512.459945 282.693719 
L 512.688577 283.301363 
L 512.688577 283.301363 
L 512.917209 284.415378 
L 512.917209 284.415378 
L 513.145842 283.706459 
L 513.145842 283.706459 
L 513.374474 283.503911 
L 513.374474 283.503911 
L 513.603106 283.503911 
L 513.603106 283.503911 
L 513.831738 281.984801 
L 513.831738 281.984801 
L 514.060371 282.491171 
L 514.060371 282.491171 
L 514.974899 279.655497 
L 515.203532 279.149127 
L 515.660796 278.845305 
L 515.889428 278.946579 
L 516.346693 278.744031 
L 516.575325 279.149127 
L 516.803957 278.338935 
L 517.032589 278.440209 
L 517.261222 278.845305 
L 517.489854 278.237661 
L 517.718486 278.541483 
L 518.404383 284.7192 
L 518.633015 283.200089 
L 518.861647 282.997541 
L 519.090279 282.491171 
L 519.318912 282.288623 
L 520.004808 278.541483 
L 520.462073 278.946579 
L 520.690705 279.655497 
L 520.919337 279.047853 
L 521.147969 281.073334 
L 521.376602 280.97206 
L 522.062498 279.756771 
L 522.29113 280.870786 
L 522.519763 281.073334 
L 522.748395 280.668238 
L 522.977027 280.668238 
L 523.205659 280.97206 
L 523.434291 280.364416 
L 523.891556 282.086075 
L 524.120188 279.858045 
L 524.577453 278.338935 
L 524.806085 278.541483 
L 525.034717 279.351675 
L 525.263349 279.250401 
L 525.491981 278.946579 
L 525.720614 279.452949 
L 526.177878 279.655497 
L 526.40651 278.845305 
L 526.635143 279.756771 
L 526.863775 279.351675 
L 527.092407 279.858045 
L 527.321039 278.440209 
L 527.549671 278.136386 
L 527.778304 279.047853 
L 528.006936 278.845305 
L 528.235568 278.338935 
L 528.692832 279.351675 
L 528.921465 280.870786 
L 529.150097 281.174608 
L 529.378729 280.060593 
L 529.607361 279.655497 
L 530.064626 279.858045 
L 530.293258 278.946579 
L 530.52189 279.858045 
L 530.750522 277.832564 
L 531.207787 278.744031 
L 531.436419 278.845305 
L 531.665051 279.554223 
L 531.893683 279.351675 
L 532.122316 278.845305 
L 532.350948 279.554223 
L 532.57958 279.149127 
L 533.036845 280.870786 
L 533.265477 278.642757 
L 533.494109 280.566964 
L 533.722741 279.047853 
L 533.951373 279.858045 
L 534.180006 279.959319 
L 534.408638 281.275882 
L 534.865902 280.364416 
L 535.094535 280.870786 
L 535.323167 281.883526 
L 535.551799 281.47843 
L 535.780431 281.883526 
L 536.009063 280.668238 
L 536.237696 280.060593 
L 536.466328 280.060593 
L 536.69496 280.870786 
L 537.380857 278.744031 
L 538.066753 280.769512 
L 538.295386 279.250401 
L 538.524018 280.364416 
L 538.75265 280.161868 
L 539.209914 281.275882 
L 539.438547 280.060593 
L 539.667179 280.769512 
L 539.895811 282.491171 
L 540.124443 285.326844 
L 540.353076 286.521878 
L 540.581708 285.934489 
L 540.81034 284.921748 
L 541.267604 292.010932 
L 543.096662 282.389897 
L 543.325294 283.098815 
L 543.782559 282.187349 
L 544.011191 282.187349 
L 544.239823 281.47843 
L 544.468455 283.301363 
L 544.697088 282.693719 
L 544.92572 281.275882 
L 545.154352 280.97206 
L 545.382984 283.706459 
L 545.611617 289.782903 
L 545.840249 290.896917 
L 546.297513 288.46634 
L 546.526145 289.782903 
L 546.754778 288.871436 
L 546.98341 284.516652 
L 547.440674 283.402637 
L 547.669306 283.503911 
L 547.897939 284.010282 
L 548.355203 283.098815 
L 549.0411 284.617926 
L 549.498364 283.909008 
L 549.955629 284.617926 
L 550.412893 283.402637 
L 550.641525 283.301363 
L 550.870158 283.706459 
L 551.556054 289.377806 
L 551.784686 289.073984 
L 552.013319 290.187999 
L 552.470583 285.326844 
L 552.699215 284.7192 
L 552.927847 284.516652 
L 553.15648 282.794993 
L 553.385112 284.111556 
L 553.613744 284.21283 
L 554.299641 283.200089 
L 554.528273 283.200089 
L 555.21417 284.516652 
L 555.442802 284.516652 
L 555.900066 283.605185 
L 556.128699 283.402637 
L 556.357331 285.731941 
L 556.585963 291.70711 
L 556.814595 292.618576 
L 557.27186 289.681629 
L 557.500492 291.099465 
L 557.729124 294.644057 
L 557.957756 288.871436 
L 558.186388 288.061244 
L 558.643653 282.896267 
L 558.872285 283.098815 
L 559.100917 283.503911 
L 559.32955 283.200089 
L 559.558182 282.491171 
L 559.786814 282.997541 
L 560.015446 282.389897 
L 560.244078 283.098815 
L 560.472711 282.288623 
L 560.701343 282.086075 
L 560.929975 283.402637 
L 561.158607 282.389897 
L 561.38724 282.491171 
L 561.615872 282.896267 
L 561.844504 284.921748 
L 562.073136 291.099465 
L 562.301768 290.694369 
L 562.530401 289.276532 
L 562.759033 285.326844 
L 562.987665 284.820474 
L 563.216297 281.782252 
L 563.444929 284.415378 
L 563.673562 283.706459 
L 563.902194 279.655497 
L 564.130826 281.377156 
L 564.359458 281.782252 
L 564.588091 279.858045 
L 564.816723 279.351675 
L 565.045355 278.035112 
L 565.502619 277.427468 
L 565.731252 278.338935 
L 565.959884 277.832564 
L 566.188516 277.73129 
L 566.417148 277.832564 
L 566.64578 277.73129 
L 566.874413 277.123646 
L 567.103045 276.921098 
L 567.331677 277.528742 
L 567.560309 279.351675 
L 567.788942 279.858045 
L 568.017574 282.389897 
L 568.246206 280.870786 
L 568.474838 284.010282 
L 568.70347 284.516652 
L 568.932103 279.452949 
L 569.160735 281.984801 
L 569.846632 276.819824 
L 570.075264 276.71855 
L 570.532528 277.22492 
L 570.76116 276.71855 
L 570.989793 276.921098 
L 571.218425 276.921098 
L 571.447057 276.212179 
L 571.675689 274.693069 
L 571.904321 274.996891 
L 572.132954 275.503261 
L 572.590218 274.085424 
L 572.81885 275.705809 
L 573.276115 282.389897 
L 573.733379 279.959319 
L 573.962011 282.896267 
L 574.190644 283.807733 
L 574.419276 276.009631 
L 574.647908 276.414728 
L 574.87654 275.503261 
L 575.105173 275.908357 
L 575.333805 276.921098 
L 575.562437 277.022372 
L 575.791069 277.427468 
L 576.019701 274.186698 
L 576.248334 275.503261 
L 576.476966 273.579054 
L 576.705598 273.47778 
L 576.93423 272.161217 
L 577.162862 271.958669 
L 577.391495 272.768862 
L 577.848759 272.465039 
L 578.077391 271.857395 
L 578.306024 272.161217 
L 578.763288 270.945929 
L 579.220552 272.566313 
L 579.449185 273.47778 
L 579.677817 272.768862 
L 579.906449 273.98415 
L 580.592346 271.958669 
L 581.04961 270.945929 
L 581.278242 271.553573 
L 581.964139 272.161217 
L 582.421403 273.47778 
L 582.650036 273.579054 
L 583.1073 272.566313 
L 583.335932 272.566313 
L 583.564565 272.262491 
L 583.793197 274.591795 
L 584.021829 282.997541 
L 584.250461 284.314104 
L 584.707726 277.73129 
L 584.936358 283.098815 
L 585.16499 282.491171 
L 585.393622 276.617276 
L 585.622255 275.503261 
L 586.308151 273.882876 
L 586.536783 274.794343 
L 586.765416 277.22492 
L 586.994048 272.059943 
L 587.679944 274.085424 
L 587.908577 274.085424 
L 588.137209 273.882876 
L 588.365841 273.376506 
L 588.823106 273.781602 
L 589.509002 273.376506 
L 589.966267 275.098165 
L 590.652163 275.199439 
L 590.880796 274.895617 
L 591.109428 274.389246 
L 591.33806 274.49052 
L 591.566692 273.680328 
L 592.023957 274.996891 
L 592.252589 274.186698 
L 592.481221 271.654847 
L 592.709853 274.49052 
L 592.938485 274.186698 
L 593.167118 272.363765 
L 593.624382 277.022372 
L 593.853014 276.313453 
L 594.081647 276.212179 
L 594.310279 276.71855 
L 594.767543 276.212179 
L 594.996175 276.516002 
L 595.224808 277.22492 
L 595.45344 276.819824 
L 595.682072 276.921098 
L 595.910704 276.313453 
L 596.139337 276.313453 
L 596.367969 275.503261 
L 596.596601 276.009631 
L 596.825233 275.300713 
L 597.053865 274.996891 
L 597.282498 275.503261 
L 597.51113 274.895617 
L 597.739762 275.604535 
L 598.197026 275.908357 
L 598.654291 276.516002 
L 598.882923 276.110905 
L 599.111555 276.921098 
L 599.340188 276.617276 
L 599.56882 276.819824 
L 600.026084 277.427468 
L 600.254716 277.123646 
L 600.483349 278.136386 
L 600.711981 279.655497 
L 600.940613 282.693719 
L 601.169245 281.174608 
L 601.397877 281.782252 
L 601.62651 279.756771 
L 601.855142 279.452949 
L 602.083774 279.959319 
L 602.312406 280.97206 
L 602.541039 280.97206 
L 602.769671 278.642757 
L 602.998303 278.946579 
L 603.226935 280.161868 
L 603.455567 280.060593 
L 603.6842 278.440209 
L 603.912832 278.035112 
L 604.141464 279.149127 
L 604.370096 279.149127 
L 604.598729 279.756771 
L 604.827361 279.250401 
L 605.055993 279.554223 
L 605.284625 279.250401 
L 605.513257 278.440209 
L 605.74189 278.642757 
L 605.970522 279.149127 
L 606.427786 279.554223 
L 606.656418 280.263142 
L 606.885051 280.46569 
L 607.342315 279.756771 
L 607.570947 278.338935 
L 607.79958 277.933838 
L 608.028212 278.237661 
L 608.256844 278.946579 
L 608.485476 278.541483 
L 608.714108 278.440209 
L 609.171373 279.452949 
L 609.400005 279.149127 
L 609.628637 277.933838 
L 610.085902 278.541483 
L 610.314534 278.237661 
L 610.543166 282.491171 
L 610.771798 280.263142 
L 611.000431 279.554223 
L 611.229063 277.933838 
L 611.457695 278.744031 
L 611.686327 278.642757 
L 611.914959 279.250401 
L 612.143592 278.642757 
L 612.372224 278.642757 
L 612.600856 278.845305 
L 612.829488 279.250401 
L 613.058121 278.845305 
L 613.286753 279.047853 
L 613.515385 279.554223 
L 613.744017 279.452949 
L 614.201282 278.845305 
L 614.429914 280.263142 
L 614.658546 282.491171 
L 614.887178 281.174608 
L 615.344443 279.554223 
L 615.573075 280.870786 
L 615.801707 279.047853 
L 616.030339 280.870786 
L 616.258972 281.579704 
L 616.487604 278.946579 
L 616.716236 279.858045 
L 616.944868 285.22557 
L 617.402133 288.46634 
L 617.859397 285.124296 
L 618.088029 288.770162 
L 618.316662 283.098815 
L 618.545294 283.605185 
L 618.773926 279.655497 
L 619.002558 279.149127 
L 619.459823 279.250401 
L 619.688455 279.858045 
L 619.917087 279.655497 
L 620.145719 279.756771 
L 620.374352 280.161868 
L 620.602984 280.263142 
L 620.831616 280.566964 
L 621.060248 281.073334 
L 621.28888 280.263142 
L 621.517513 280.060593 
L 621.746145 280.870786 
L 621.974777 279.655497 
L 622.203409 280.870786 
L 622.432041 280.46569 
L 622.660674 282.086075 
L 622.889306 281.984801 
L 623.117938 281.377156 
L 623.34657 281.296137 
L 623.575203 281.782252 
L 623.803835 281.174608 
L 624.489731 282.592445 
L 624.718364 282.693719 
L 624.946996 282.086075 
L 625.175628 280.97206 
L 625.40426 281.47843 
L 625.632893 281.377156 
L 625.861525 281.579704 
L 626.090157 281.296137 
L 626.318789 281.680978 
L 626.776054 280.46569 
L 627.004686 280.46569 
L 627.46195 280.97206 
L 627.690582 281.053079 
L 628.605111 282.592445 
L 628.605111 282.592445 
L 628.833744 282.592445 
L 628.833744 282.592445 
L 629.062376 282.389897 
L 629.062376 282.389897 
L 629.291008 283.807733 
L 629.291008 283.807733 
L 629.51964 284.010282 
L 629.51964 284.010282 
L 629.748272 280.668238 
L 629.748272 280.668238 
L 629.976905 281.275882 
L 629.976905 281.275882 
L 630.434169 278.845305 
L 630.434169 278.845305 
L 630.662801 278.338935 
L 630.662801 278.338935 
L 630.891434 277.528742 
L 630.891434 277.528742 
L 631.120066 277.326194 
L 631.120066 277.326194 
L 631.348698 277.73129 
L 631.57733 276.921098 
L 631.805962 277.427468 
L 632.263227 276.617276 
L 632.491859 277.528742 
L 632.720491 277.326194 
L 632.949123 276.313453 
L 633.177756 276.313453 
L 633.406388 277.933838 
L 633.863652 284.921748 
L 634.092285 280.364416 
L 634.549549 276.819824 
L 634.778181 276.414728 
L 635.006813 276.313453 
L 635.464078 274.895617 
L 635.69271 274.895617 
L 635.921342 274.389246 
L 636.149974 275.098165 
L 636.378607 276.313453 
L 636.607239 276.516002 
L 636.835871 276.009631 
L 637.293136 275.503261 
L 637.521768 275.604535 
L 637.7504 276.516002 
L 637.979032 276.414728 
L 638.436297 275.300713 
L 638.664929 276.414728 
L 638.893561 276.516002 
L 639.122193 277.22492 
L 639.350826 277.528742 
L 639.579458 276.921098 
L 639.80809 278.136386 
L 640.036722 276.71855 
L 640.265354 276.212179 
L 640.493987 275.401987 
L 640.722619 276.009631 
L 640.951251 275.908357 
L 641.179883 276.414728 
L 641.408515 276.516002 
L 641.637148 275.705809 
L 641.86578 276.009631 
L 642.094412 277.933838 
L 642.323044 276.921098 
L 642.551677 277.022372 
L 643.008941 276.313453 
L 643.237573 276.819824 
L 643.466205 276.313453 
L 644.152102 276.212179 
L 644.380734 276.516002 
L 644.609367 276.516002 
L 644.837999 276.819824 
L 645.066631 276.516002 
L 645.752528 277.022372 
L 645.98116 276.819824 
L 646.438424 277.022372 
L 646.667056 276.819824 
L 646.895689 276.921098 
L 647.124321 277.427468 
L 647.581585 277.22492 
L 647.810218 277.326194 
L 648.03885 277.630016 
L 648.267482 277.427468 
L 648.724746 278.237661 
L 648.953379 278.237661 
L 649.182011 278.541483 
L 649.410643 278.642757 
L 649.867908 279.250401 
L 650.09654 279.351675 
L 650.325172 279.149127 
L 650.553804 279.452949 
L 651.011069 279.351675 
L 651.239701 279.149127 
L 651.468333 279.959319 
L 651.696965 279.655497 
L 651.925597 278.845305 
L 652.15423 279.452949 
L 652.382862 279.250401 
L 652.611494 279.351675 
L 652.840126 278.946579 
L 653.068759 279.554223 
L 653.526023 278.946579 
L 653.754655 279.655497 
L 653.983287 279.250401 
L 654.21192 279.149127 
L 654.440552 279.655497 
L 654.669184 282.086075 
L 654.897816 281.782252 
L 655.126449 279.452949 
L 655.355081 282.491171 
L 655.583713 287.757422 
L 655.812345 288.567614 
L 656.040977 288.668888 
L 656.26961 285.124296 
L 656.498242 287.656148 
L 656.726874 282.693719 
L 657.184138 279.250401 
L 657.412771 278.642757 
L 657.641403 278.946579 
L 657.870035 278.136386 
L 658.3273 279.047853 
L 658.784564 278.237661 
L 659.241828 278.338935 
L 659.470461 278.338935 
L 659.699093 278.136386 
L 659.927725 278.237661 
L 660.156357 278.642757 
L 660.38499 278.744031 
L 660.613622 278.642757 
L 661.299518 280.060593 
L 661.528151 279.959319 
L 661.756783 280.263142 
L 661.985415 280.263142 
L 662.214047 279.959319 
L 662.442679 279.149127 
L 662.671312 278.845305 
L 662.671312 278.845305 
" clip-path="url(#pb176f35460)" style="fill: none; stroke: #1f77b4; stroke-width: 1.5; stroke-linecap: square"/>
   </g>
   <g id="line2d_18">
    <path d="M 60.22542 293.023672 
L 60.682684 293.301942 
L 61.139948 294.030992 
L 61.597213 294.178389 
L 62.511742 293.990979 
L 63.197638 293.489098 
L 63.426271 293.221472 
L 63.654903 293.144454 
L 64.112167 293.648628 
L 64.569432 293.136052 
L 64.798064 293.283394 
L 65.026696 293.799125 
L 65.483961 293.918862 
L 65.712593 294.105718 
L 66.169857 295.282898 
L 66.627122 295.7472 
L 66.855754 295.911317 
L 67.313018 295.794848 
L 67.770283 295.849753 
L 68.913444 295.59565 
L 75.086514 293.795973 
L 81.488216 291.733911 
L 81.716848 291.591915 
L 81.94548 291.739207 
L 82.174112 290.074233 
L 82.631377 285.923342 
L 82.860009 284.858623 
L 83.088641 284.464407 
L 83.545906 284.476966 
L 83.774538 284.641904 
L 84.00317 285.076644 
L 84.231802 285.200422 
L 84.460435 285.043361 
L 85.146331 285.23118 
L 86.06086 285.135427 
L 86.289492 285.180181 
L 86.746757 285.735754 
L 86.975389 285.788319 
L 87.432653 286.204952 
L 87.661286 286.224245 
L 87.889918 286.491756 
L 88.347182 286.569373 
L 89.261711 286.276558 
L 91.776666 285.249451 
L 92.005298 285.317557 
L 102.293748 280.985232 
L 112.81083 276.143841 
L 112.81083 276.044162 
L 113.496726 273.185308 
L 113.725358 271.248389 
L 113.953991 272.411099 
L 114.182623 272.677244 
L 114.411255 270.532449 
L 114.639887 266.369129 
L 114.868519 267.743735 
L 115.097152 267.579447 
L 115.554416 269.490232 
L 115.783048 269.942923 
L 116.011681 270.116595 
L 116.468945 270.105042 
L 117.612106 269.627042 
L 120.812957 268.060936 
L 120.812957 267.95738 
L 121.270222 267.647457 
L 121.270222 267.544405 
L 121.727486 267.236039 
L 121.727486 267.13352 
L 122.18475 266.8268 
L 122.18475 266.724844 
L 133.616361 261.753732 
L 140.932592 258.914084 
L 148.020191 256.404151 
L 152.592835 254.895769 
L 152.821468 254.927526 
L 153.278732 253.414396 
L 153.507364 253.450688 
L 153.964629 253.348402 
L 154.879157 253.212648 
L 156.936847 252.619359 
L 157.394112 252.2201 
L 158.080009 250.258905 
L 158.308641 249.923649 
L 158.537273 249.382947 
L 158.994537 246.848143 
L 159.680434 247.120062 
L 159.909066 247.395837 
L 160.366331 246.031773 
L 160.823595 243.611351 
L 161.052227 243.910133 
L 161.28086 244.526608 
L 161.509492 244.597092 
L 161.738124 243.45112 
L 162.195388 243.936501 
L 162.652653 245.622011 
L 163.109917 246.333567 
L 163.567182 246.455825 
L 164.710343 246.336442 
L 168.368458 245.821244 
L 168.597091 246.194015 
L 168.825723 246.245627 
L 169.054355 246.104146 
L 169.511619 246.38409 
L 170.197516 246.427141 
L 173.855632 245.929278 
L 182.543656 244.873121 
L 190.774416 244.06303 
L 191.003048 244.201467 
L 191.460312 244.11711 
L 191.688944 244.273248 
L 192.832106 244.260433 
L 193.28937 244.159053 
L 193.518002 244.200082 
L 193.746634 244.647153 
L 193.975267 244.773771 
L 194.203899 244.667086 
L 194.432531 245.055381 
L 194.661163 245.219061 
L 194.889795 245.217518 
L 195.34706 245.441844 
L 196.261589 245.547552 
L 197.176118 246.016195 
L 197.40475 246.049593 
L 197.862014 246.285261 
L 198.090647 246.368441 
L 198.547911 245.09628 
L 198.776543 245.232947 
L 199.005175 245.553119 
L 199.233808 246.591331 
L 199.691072 247.056427 
L 200.148336 248.225118 
L 200.605601 248.545585 
L 201.291498 248.521104 
L 207.235935 247.453207 
L 207.235935 247.414493 
L 208.150464 247.148998 
L 208.150464 247.111848 
L 209.064993 246.857133 
L 209.064993 246.821499 
L 209.979522 246.574141 
L 209.979522 246.554353 
L 210.208154 246.431464 
L 210.208154 246.28119 
L 210.436786 242.291158 
L 210.436786 227.984662 
L 210.894051 219.198593 
L 211.122683 198.5022 
L 211.351315 223.388611 
L 211.579947 225.060048 
L 211.80858 223.421799 
L 212.037212 224.232923 
L 212.494476 226.329779 
L 212.951741 227.025616 
L 213.409005 227.413752 
L 214.780798 228.076035 
L 215.238063 227.974546 
L 216.838488 228.688353 
L 220.496604 230.050811 
L 224.840616 231.443938 
L 226.669674 231.98917 
L 227.584203 231.435347 
L 227.812835 231.516246 
L 228.041467 231.958287 
L 228.270099 232.751118 
L 228.498731 233.052197 
L 228.727364 233.110501 
L 229.870525 234.79486 
L 230.327789 234.936219 
L 230.556421 235.48502 
L 230.785054 235.646361 
L 231.013686 235.602668 
L 231.47095 235.857586 
L 231.928215 236.152699 
L 232.156847 236.884066 
L 232.385479 237.084296 
L 232.614111 236.992635 
L 233.071376 237.633944 
L 233.52864 237.905802 
L 233.985905 237.78677 
L 234.443169 237.783627 
L 235.814962 237.95619 
L 236.043595 237.798037 
L 236.500859 237.324363 
L 237.186756 233.713452 
L 237.415388 233.50055 
L 237.872652 234.602692 
L 238.101285 234.118925 
L 238.558549 234.446625 
L 239.244446 235.891254 
L 239.70171 235.906815 
L 239.930342 236.43623 
L 240.158974 236.371482 
L 240.387607 236.516704 
L 240.616239 236.83212 
L 240.844871 236.940085 
L 241.302136 238.442325 
L 241.7594 238.743951 
L 242.216664 239.146278 
L 242.902561 238.648388 
L 243.359826 237.826977 
L 243.81709 237.798157 
L 244.274354 236.537939 
L 244.502987 235.918684 
L 244.960251 235.673758 
L 245.417515 233.616032 
L 245.646148 233.33563 
L 245.87478 233.701147 
L 246.332044 235.266284 
L 247.246573 236.475779 
L 247.703838 236.665834 
L 248.161102 236.62575 
L 248.389734 236.563512 
L 248.618366 236.706012 
L 249.075631 237.234999 
L 249.532895 237.667584 
L 249.761528 237.750121 
L 250.218792 238.2032 
L 250.904689 238.413168 
L 253.648275 238.606381 
L 265.308518 239.209211 
L 279.483716 239.712288 
L 293.430281 240.111177 
L 293.658913 239.408487 
L 294.116178 236.752068 
L 294.573442 235.102021 
L 294.802074 236.651535 
L 295.030707 236.921101 
L 295.487971 234.885237 
L 295.945235 235.658232 
L 296.173868 236.05145 
L 296.631132 237.180208 
L 297.088397 237.635898 
L 297.774293 237.82073 
L 300.746512 238.076382 
L 311.034962 238.758357 
L 323.152469 239.334962 
L 323.609734 239.227205 
L 324.066998 237.054909 
L 324.29563 237.094737 
L 324.524263 237.435816 
L 324.752895 237.457132 
L 324.981527 238.159553 
L 325.210159 238.368019 
L 325.438791 237.724017 
L 325.667424 237.80865 
L 326.581953 239.537221 
L 327.039217 239.742849 
L 327.267849 239.990535 
L 327.496481 239.816537 
L 328.182378 238.505051 
L 328.41101 238.96076 
L 328.639642 239.736558 
L 329.096907 240.18145 
L 329.325539 240.342551 
L 330.240068 241.723634 
L 330.925965 241.854647 
L 332.069126 241.867524 
L 333.212287 240.921365 
L 333.669551 241.089017 
L 333.898183 241.61143 
L 334.126816 241.753834 
L 334.355448 241.689399 
L 335.041345 242.253248 
L 335.727241 242.330989 
L 340.071253 242.162286 
L 340.528518 242.168058 
L 340.75715 241.926678 
L 341.214414 241.167348 
L 341.443047 241.156287 
L 341.671679 241.540239 
L 341.900311 242.299143 
L 342.128943 242.429923 
L 342.357576 242.417386 
L 342.81484 243.238635 
L 343.272104 243.544201 
L 344.186633 243.464922 
L 344.186633 243.448166 
L 346.015691 243.207447 
L 346.015691 243.192143 
L 348.073381 242.945446 
L 348.073381 242.931699 
L 349.673806 242.7434 
L 349.673806 242.711323 
L 349.902439 242.523149 
L 349.902439 242.154232 
L 350.131071 242.187133 
L 350.131071 242.319776 
L 350.359703 242.908561 
L 350.588335 242.836461 
L 350.588335 242.953382 
L 350.816968 243.535811 
L 351.0456 243.545243 
L 351.0456 243.514662 
L 351.274232 243.37638 
L 351.274232 243.184858 
L 351.731496 243.2787 
L 351.731496 243.393786 
L 351.960129 243.502774 
L 351.960129 243.644853 
L 352.874658 243.764561 
L 352.874658 243.712908 
L 353.10329 243.314726 
L 353.10329 242.471419 
L 353.331922 241.521058 
L 353.331922 240.509159 
L 353.560554 240.131324 
L 353.560554 239.776963 
L 353.789186 239.824498 
L 353.789186 239.612443 
L 354.017819 238.810382 
L 354.017819 237.664061 
L 354.246451 236.829506 
L 354.475083 237.095864 
L 355.618244 239.312249 
L 356.304141 239.850714 
L 357.447302 240.206 
L 358.133198 240.237343 
L 358.819095 239.709103 
L 359.047727 239.4913 
L 359.504992 239.647936 
L 359.504992 239.501277 
L 359.733624 239.763532 
L 359.733624 239.934888 
L 359.962256 239.879111 
L 360.419521 240.093945 
L 361.105417 240.80758 
L 361.33405 240.911448 
L 361.791314 241.262368 
L 362.248578 241.304852 
L 362.705843 241.295844 
L 363.163107 241.748919 
L 363.849004 241.568846 
L 364.306268 241.690308 
L 364.763533 242.101913 
L 365.449429 242.050915 
L 366.363958 242.184851 
L 368.65028 242.122326 
L 369.564809 241.985669 
L 370.479338 241.22507 
L 371.622499 242.156597 
L 372.308396 242.626946 
L 372.308396 242.681328 
L 373.222925 242.652732 
L 373.222925 242.640839 
L 390.827606 241.828963 
L 391.056238 241.844143 
L 391.513502 241.537068 
L 392.199399 241.483934 
L 392.656663 241.431187 
L 399.058365 241.347571 
L 399.51563 241.142656 
L 399.744262 240.92663 
L 399.972894 240.372427 
L 400.430159 238.388832 
L 400.887423 238.037951 
L 401.116055 238.216073 
L 401.344688 237.721364 
L 401.57332 236.869577 
L 401.801952 236.80888 
L 402.030584 237.587758 
L 402.259216 235.398861 
L 402.487849 231.843322 
L 402.945113 228.514414 
L 403.63101 220.103121 
L 404.088274 217.637289 
L 404.316906 217.428569 
L 404.545539 217.74244 
L 405.460067 220.335419 
L 406.145964 221.072226 
L 407.975022 222.347929 
L 410.261344 223.9131 
L 410.261344 224.047261 
L 410.489976 224.180139 
L 410.489976 224.311751 
L 410.718608 224.442111 
L 410.718608 224.571234 
L 411.175873 224.951334 
L 411.175873 225.075658 
L 411.633137 225.4417 
L 411.633137 225.56145 
L 412.090402 225.914087 
L 412.090402 226.029472 
L 412.547666 226.369317 
L 412.547666 226.480536 
L 413.004931 226.808168 
L 413.004931 226.915408 
L 413.462195 227.23137 
L 413.462195 227.334807 
L 413.919459 227.639615 
L 413.919459 227.739416 
L 417.806207 229.308283 
L 422.150219 230.810749 
L 426.722864 232.155793 
L 434.267727 234.087877 
L 440.212164 235.190249 
L 446.842499 236.191883 
L 453.472833 237.014463 
L 453.701465 236.930076 
L 453.930097 236.588163 
L 454.615994 231.18433 
L 454.844626 230.471169 
L 455.301891 230.261242 
L 455.530523 230.178341 
L 456.673684 231.397988 
L 456.902316 230.963334 
L 457.130949 230.257114 
L 457.359581 230.073034 
L 457.588213 230.300317 
L 457.816845 231.244801 
L 458.27411 231.705298 
L 459.188638 233.496168 
L 459.417271 233.085621 
L 459.645903 232.438575 
L 459.874535 232.589299 
L 460.3318 233.842277 
L 461.017696 234.626845 
L 461.474961 235.159882 
L 469.019824 236.348747 
L 476.793319 237.249272 
L 485.709976 238.047748 
L 495.998425 238.736836 
L 496.684322 238.692963 
L 497.141586 238.57563 
L 502.171495 238.950321 
L 502.857392 238.85006 
L 512.917209 239.412498 
L 512.917209 239.421018 
L 514.060371 239.475416 
L 514.289003 239.759216 
L 514.289003 239.982118 
L 514.517635 239.918092 
L 514.517635 239.974461 
L 514.974899 240.28016 
L 515.660796 240.379756 
L 519.090279 240.422532 
L 519.318912 240.380723 
L 519.776176 239.937659 
L 520.23344 239.765262 
L 520.690705 239.761505 
L 522.977027 239.885249 
L 523.434291 239.83333 
L 523.891556 239.782505 
L 524.806085 239.75434 
L 525.263349 239.708715 
L 526.40651 239.692479 
L 526.863775 239.645816 
L 530.979155 239.673315 
L 531.207787 239.557586 
L 532.57958 239.653751 
L 533.265477 239.543658 
L 536.009063 239.575297 
L 536.466328 240.294095 
L 536.69496 240.142901 
L 536.923592 240.243612 
L 537.380857 240.734839 
L 537.838121 240.883636 
L 538.75265 240.7833 
L 543.096662 240.784145 
L 544.011191 240.466076 
L 544.92572 240.086896 
L 546.068881 239.628447 
L 546.754778 239.166429 
L 547.440674 238.472399 
L 547.897939 237.954299 
L 548.355203 237.843493 
L 548.812468 238.158982 
L 549.498364 239.233387 
L 550.641525 241.680853 
L 552.699215 246.234111 
L 553.385112 247.358456 
L 553.842376 247.837314 
L 554.071009 247.932426 
L 554.756905 247.75681 
L 554.985537 247.922036 
L 555.442802 248.897254 
L 556.128699 251.586049 
L 557.043227 255.299247 
L 557.500492 256.145575 
L 557.729124 256.135205 
L 557.957756 255.81604 
L 558.186388 255.122027 
L 558.415021 254.001709 
L 559.100917 249.296893 
L 559.558182 247.838641 
L 560.015446 247.168582 
L 560.244078 247.144629 
L 560.472711 247.38851 
L 560.929975 248.626437 
L 562.073136 253.063411 
L 562.301768 253.506045 
L 562.530401 253.588484 
L 562.759033 253.231403 
L 563.216297 251.033618 
L 563.673562 248.904797 
L 564.130826 247.564226 
L 564.588091 246.814193 
L 564.816723 246.755184 
L 565.045355 246.538154 
L 565.502619 245.587001 
L 565.731252 245.495254 
L 566.188516 244.636873 
L 566.64578 244.643897 
L 567.103045 244.849839 
L 568.70347 246.057704 
L 569.617999 246.001813 
L 579.677817 244.632108 
L 579.906449 244.472102 
L 580.363714 243.622276 
L 580.820978 244.196323 
L 581.278242 244.904422 
L 581.506875 244.986942 
L 582.421403 245.882693 
L 583.1073 245.918214 
L 587.908577 245.320245 
L 591.795324 244.759624 
L 592.481221 244.497097 
L 592.709853 244.566288 
L 593.167118 243.723323 
L 593.624382 244.100735 
L 593.853014 244.353504 
L 594.310279 244.331122 
L 594.767543 244.576746 
L 595.45344 244.596524 
L 605.74189 243.675569 
L 609.85727 243.253192 
L 611.229063 242.519773 
L 611.686327 243.819331 
L 612.143592 244.064741 
L 612.600856 245.060579 
L 613.058121 245.376077 
L 613.744017 245.391201 
L 625.175628 244.192786 
L 625.40426 244.109415 
L 626.090157 243.462099 
L 626.776054 243.638152 
L 627.919215 243.623564 
L 627.919215 243.607086 
L 629.062376 243.44825 
L 629.291008 243.32015 
L 629.291008 243.083928 
L 629.51964 242.774796 
L 629.51964 242.388524 
L 629.748272 241.907503 
L 629.748272 241.343973 
L 630.205537 241.150502 
L 630.205537 241.292512 
L 630.434169 241.741581 
L 630.662801 241.649943 
L 630.662801 241.527058 
L 630.891434 241.659297 
L 630.891434 242.063163 
L 631.120066 242.554119 
L 631.120066 242.947019 
L 631.805962 243.605253 
L 632.263227 243.739449 
L 633.406388 243.696227 
L 645.523895 242.867182 
L 653.526023 242.350501 
L 653.983287 242.087353 
L 654.440552 242.023549 
L 654.897816 241.962622 
L 661.985415 241.770967 
L 662.671312 241.751266 
L 662.671312 241.751266 
" clip-path="url(#pb176f35460)" style="fill: none; stroke: #ff7f0e; stroke-width: 1.5; stroke-linecap: square"/>
   </g>
   <g id="patch_3">
    <path d="M 30.103125 327.558125 
L 30.103125 22.318125 
" style="fill: none; stroke: #000000; stroke-width: 0.8; stroke-linejoin: miter; stroke-linecap: square"/>
   </g>
   <g id="patch_4">
    <path d="M 692.793606 327.558125 
L 692.793606 22.318125 
" style="fill: none; stroke: #000000; stroke-width: 0.8; stroke-linejoin: miter; stroke-linecap: square"/>
   </g>
   <g id="patch_5">
    <path d="M 30.103125 327.558125 
L 692.793606 327.558125 
" style="fill: none; stroke: #000000; stroke-width: 0.8; stroke-linejoin: miter; stroke-linecap: square"/>
   </g>
   <g id="patch_6">
    <path d="M 30.103125 22.318125 
L 692.793606 22.318125 
" style="fill: none; stroke: #000000; stroke-width: 0.8; stroke-linejoin: miter; stroke-linecap: square"/>
   </g>
   <g id="text_17">
    <!-- training -->
    <g transform="translate(338.204928 16.318125) scale(0.12 -0.12)">
     <defs>
      <path id="DejaVuSans-74" d="M 1172 4494 
L 1172 3500 
L 2356 3500 
L 2356 3053 
L 1172 3053 
L 1172 1153 
Q 1172 725 1289 603 
Q 1406 481 1766 481 
L 2356 481 
L 2356 0 
L 1766 0 
Q 1100 0 847 248 
Q 594 497 594 1153 
L 594 3053 
L 172 3053 
L 172 3500 
L 594 3500 
L 594 4494 
L 1172 4494 
z
" transform="scale(0.015625)"/>
      <path id="DejaVuSans-72" d="M 2631 2963 
Q 2534 3019 2420 3045 
Q 2306 3072 2169 3072 
Q 1681 3072 1420 2755 
Q 1159 2438 1159 1844 
L 1159 0 
L 581 0 
L 581 3500 
L 1159 3500 
L 1159 2956 
Q 1341 3275 1631 3429 
Q 1922 3584 2338 3584 
Q 2397 3584 2469 3576 
Q 2541 3569 2628 3553 
L 2631 2963 
z
" transform="scale(0.015625)"/>
      <path id="DejaVuSans-61" d="M 2194 1759 
Q 1497 1759 1228 1600 
Q 959 1441 959 1056 
Q 959 750 1161 570 
Q 1363 391 1709 391 
Q 2188 391 2477 730 
Q 2766 1069 2766 1631 
L 2766 1759 
L 2194 1759 
z
M 3341 1997 
L 3341 0 
L 2766 0 
L 2766 531 
Q 2569 213 2275 61 
Q 1981 -91 1556 -91 
Q 1019 -91 701 211 
Q 384 513 384 1019 
Q 384 1609 779 1909 
Q 1175 2209 1959 2209 
L 2766 2209 
L 2766 2266 
Q 2766 2663 2505 2880 
Q 2244 3097 1772 3097 
Q 1472 3097 1187 3025 
Q 903 2953 641 2809 
L 641 3341 
Q 956 3463 1253 3523 
Q 1550 3584 1831 3584 
Q 2591 3584 2966 3190 
Q 3341 2797 3341 1997 
z
" transform="scale(0.015625)"/>
      <path id="DejaVuSans-69" d="M 603 3500 
L 1178 3500 
L 1178 0 
L 603 0 
L 603 3500 
z
M 603 4863 
L 1178 4863 
L 1178 4134 
L 603 4134 
L 603 4863 
z
" transform="scale(0.015625)"/>
      <path id="DejaVuSans-6e" d="M 3513 2113 
L 3513 0 
L 2938 0 
L 2938 2094 
Q 2938 2591 2744 2837 
Q 2550 3084 2163 3084 
Q 1697 3084 1428 2787 
Q 1159 2491 1159 1978 
L 1159 0 
L 581 0 
L 581 3500 
L 1159 3500 
L 1159 2956 
Q 1366 3272 1645 3428 
Q 1925 3584 2291 3584 
Q 2894 3584 3203 3211 
Q 3513 2838 3513 2113 
z
" transform="scale(0.015625)"/>
      <path id="DejaVuSans-67" d="M 2906 1791 
Q 2906 2416 2648 2759 
Q 2391 3103 1925 3103 
Q 1463 3103 1205 2759 
Q 947 2416 947 1791 
Q 947 1169 1205 825 
Q 1463 481 1925 481 
Q 2391 481 2648 825 
Q 2906 1169 2906 1791 
z
M 3481 434 
Q 3481 -459 3084 -895 
Q 2688 -1331 1869 -1331 
Q 1566 -1331 1297 -1286 
Q 1028 -1241 775 -1147 
L 775 -588 
Q 1028 -725 1275 -790 
Q 1522 -856 1778 -856 
Q 2344 -856 2625 -561 
Q 2906 -266 2906 331 
L 2906 616 
Q 2728 306 2450 153 
Q 2172 0 1784 0 
Q 1141 0 747 490 
Q 353 981 353 1791 
Q 353 2603 747 3093 
Q 1141 3584 1784 3584 
Q 2172 3584 2450 3431 
Q 2728 3278 2906 2969 
L 2906 3500 
L 3481 3500 
L 3481 434 
z
" transform="scale(0.015625)"/>
     </defs>
     <use xlink:href="#DejaVuSans-74"/>
     <use xlink:href="#DejaVuSans-72" x="39.208984"/>
     <use xlink:href="#DejaVuSans-61" x="80.322266"/>
     <use xlink:href="#DejaVuSans-69" x="141.601562"/>
     <use xlink:href="#DejaVuSans-6e" x="169.384766"/>
     <use xlink:href="#DejaVuSans-69" x="232.763672"/>
     <use xlink:href="#DejaVuSans-6e" x="260.546875"/>
     <use xlink:href="#DejaVuSans-67" x="323.925781"/>
    </g>
   </g>
   <g id="legend_1">
    <g id="patch_7">
     <path d="M 604.399856 59.674375 
L 685.793606 59.674375 
Q 687.793606 59.674375 687.793606 57.674375 
L 687.793606 29.318125 
Q 687.793606 27.318125 685.793606 27.318125 
L 604.399856 27.318125 
Q 602.399856 27.318125 602.399856 29.318125 
L 602.399856 57.674375 
Q 602.399856 59.674375 604.399856 59.674375 
z
" style="fill: #ffffff; opacity: 0.8; stroke: #cccccc; stroke-linejoin: miter"/>
    </g>
    <g id="line2d_19">
     <path d="M 606.399856 35.416562 
L 616.399856 35.416562 
L 626.399856 35.416562 
" style="fill: none; stroke: #1f77b4; stroke-width: 1.5; stroke-linecap: square"/>
    </g>
    <g id="text_18">
     <!-- observed -->
     <g transform="translate(634.399856 38.916562) scale(0.1 -0.1)">
      <defs>
       <path id="DejaVuSans-6f" d="M 1959 3097 
Q 1497 3097 1228 2736 
Q 959 2375 959 1747 
Q 959 1119 1226 758 
Q 1494 397 1959 397 
Q 2419 397 2687 759 
Q 2956 1122 2956 1747 
Q 2956 2369 2687 2733 
Q 2419 3097 1959 3097 
z
M 1959 3584 
Q 2709 3584 3137 3096 
Q 3566 2609 3566 1747 
Q 3566 888 3137 398 
Q 2709 -91 1959 -91 
Q 1206 -91 779 398 
Q 353 888 353 1747 
Q 353 2609 779 3096 
Q 1206 3584 1959 3584 
z
" transform="scale(0.015625)"/>
       <path id="DejaVuSans-62" d="M 3116 1747 
Q 3116 2381 2855 2742 
Q 2594 3103 2138 3103 
Q 1681 3103 1420 2742 
Q 1159 2381 1159 1747 
Q 1159 1113 1420 752 
Q 1681 391 2138 391 
Q 2594 391 2855 752 
Q 3116 1113 3116 1747 
z
M 1159 2969 
Q 1341 3281 1617 3432 
Q 1894 3584 2278 3584 
Q 2916 3584 3314 3078 
Q 3713 2572 3713 1747 
Q 3713 922 3314 415 
Q 2916 -91 2278 -91 
Q 1894 -91 1617 61 
Q 1341 213 1159 525 
L 1159 0 
L 581 0 
L 581 4863 
L 1159 4863 
L 1159 2969 
z
" transform="scale(0.015625)"/>
       <path id="DejaVuSans-73" d="M 2834 3397 
L 2834 2853 
Q 2591 2978 2328 3040 
Q 2066 3103 1784 3103 
Q 1356 3103 1142 2972 
Q 928 2841 928 2578 
Q 928 2378 1081 2264 
Q 1234 2150 1697 2047 
L 1894 2003 
Q 2506 1872 2764 1633 
Q 3022 1394 3022 966 
Q 3022 478 2636 193 
Q 2250 -91 1575 -91 
Q 1294 -91 989 -36 
Q 684 19 347 128 
L 347 722 
Q 666 556 975 473 
Q 1284 391 1588 391 
Q 1994 391 2212 530 
Q 2431 669 2431 922 
Q 2431 1156 2273 1281 
Q 2116 1406 1581 1522 
L 1381 1569 
Q 847 1681 609 1914 
Q 372 2147 372 2553 
Q 372 3047 722 3315 
Q 1072 3584 1716 3584 
Q 2034 3584 2315 3537 
Q 2597 3491 2834 3397 
z
" transform="scale(0.015625)"/>
       <path id="DejaVuSans-65" d="M 3597 1894 
L 3597 1613 
L 953 1613 
Q 991 1019 1311 708 
Q 1631 397 2203 397 
Q 2534 397 2845 478 
Q 3156 559 3463 722 
L 3463 178 
Q 3153 47 2828 -22 
Q 2503 -91 2169 -91 
Q 1331 -91 842 396 
Q 353 884 353 1716 
Q 353 2575 817 3079 
Q 1281 3584 2069 3584 
Q 2775 3584 3186 3129 
Q 3597 2675 3597 1894 
z
M 3022 2063 
Q 3016 2534 2758 2815 
Q 2500 3097 2075 3097 
Q 1594 3097 1305 2825 
Q 1016 2553 972 2059 
L 3022 2063 
z
" transform="scale(0.015625)"/>
       <path id="DejaVuSans-76" d="M 191 3500 
L 800 3500 
L 1894 563 
L 2988 3500 
L 3597 3500 
L 2284 0 
L 1503 0 
L 191 3500 
z
" transform="scale(0.015625)"/>
       <path id="DejaVuSans-64" d="M 2906 2969 
L 2906 4863 
L 3481 4863 
L 3481 0 
L 2906 0 
L 2906 525 
Q 2725 213 2448 61 
Q 2172 -91 1784 -91 
Q 1150 -91 751 415 
Q 353 922 353 1747 
Q 353 2572 751 3078 
Q 1150 3584 1784 3584 
Q 2172 3584 2448 3432 
Q 2725 3281 2906 2969 
z
M 947 1747 
Q 947 1113 1208 752 
Q 1469 391 1925 391 
Q 2381 391 2643 752 
Q 2906 1113 2906 1747 
Q 2906 2381 2643 2742 
Q 2381 3103 1925 3103 
Q 1469 3103 1208 2742 
Q 947 2381 947 1747 
z
" transform="scale(0.015625)"/>
      </defs>
      <use xlink:href="#DejaVuSans-6f"/>
      <use xlink:href="#DejaVuSans-62" x="61.181641"/>
      <use xlink:href="#DejaVuSans-73" x="124.658203"/>
      <use xlink:href="#DejaVuSans-65" x="176.757812"/>
      <use xlink:href="#DejaVuSans-72" x="238.28125"/>
      <use xlink:href="#DejaVuSans-76" x="279.394531"/>
      <use xlink:href="#DejaVuSans-65" x="338.574219"/>
      <use xlink:href="#DejaVuSans-64" x="400.097656"/>
     </g>
    </g>
    <g id="line2d_20">
     <path d="M 606.399856 50.094688 
L 616.399856 50.094688 
L 626.399856 50.094688 
" style="fill: none; stroke: #ff7f0e; stroke-width: 1.5; stroke-linecap: square"/>
    </g>
    <g id="text_19">
     <!-- simulated -->
     <g transform="translate(634.399856 53.594688) scale(0.1 -0.1)">
      <defs>
       <path id="DejaVuSans-6d" d="M 3328 2828 
Q 3544 3216 3844 3400 
Q 4144 3584 4550 3584 
Q 5097 3584 5394 3201 
Q 5691 2819 5691 2113 
L 5691 0 
L 5113 0 
L 5113 2094 
Q 5113 2597 4934 2840 
Q 4756 3084 4391 3084 
Q 3944 3084 3684 2787 
Q 3425 2491 3425 1978 
L 3425 0 
L 2847 0 
L 2847 2094 
Q 2847 2600 2669 2842 
Q 2491 3084 2119 3084 
Q 1678 3084 1418 2786 
Q 1159 2488 1159 1978 
L 1159 0 
L 581 0 
L 581 3500 
L 1159 3500 
L 1159 2956 
Q 1356 3278 1631 3431 
Q 1906 3584 2284 3584 
Q 2666 3584 2933 3390 
Q 3200 3197 3328 2828 
z
" transform="scale(0.015625)"/>
       <path id="DejaVuSans-75" d="M 544 1381 
L 544 3500 
L 1119 3500 
L 1119 1403 
Q 1119 906 1312 657 
Q 1506 409 1894 409 
Q 2359 409 2629 706 
Q 2900 1003 2900 1516 
L 2900 3500 
L 3475 3500 
L 3475 0 
L 2900 0 
L 2900 538 
Q 2691 219 2414 64 
Q 2138 -91 1772 -91 
Q 1169 -91 856 284 
Q 544 659 544 1381 
z
M 1991 3584 
L 1991 3584 
z
" transform="scale(0.015625)"/>
       <path id="DejaVuSans-6c" d="M 603 4863 
L 1178 4863 
L 1178 0 
L 603 0 
L 603 4863 
z
" transform="scale(0.015625)"/>
      </defs>
      <use xlink:href="#DejaVuSans-73"/>
      <use xlink:href="#DejaVuSans-69" x="52.099609"/>
      <use xlink:href="#DejaVuSans-6d" x="79.882812"/>
      <use xlink:href="#DejaVuSans-75" x="177.294922"/>
      <use xlink:href="#DejaVuSans-6c" x="240.673828"/>
      <use xlink:href="#DejaVuSans-61" x="268.457031"/>
      <use xlink:href="#DejaVuSans-74" x="329.736328"/>
      <use xlink:href="#DejaVuSans-65" x="368.945312"/>
      <use xlink:href="#DejaVuSans-64" x="430.46875"/>
     </g>
    </g>
   </g>
  </g>
 </g>
 <defs>
  <clipPath id="pb176f35460">
   <rect x="30.103125" y="22.318125" width="662.690481" height="305.24"/>
  </clipPath>
 </defs>
</svg>
