<?xml version="1.0" encoding="utf-8" standalone="no"?>
<!DOCTYPE svg PUBLIC "-//W3C//DTD SVG 1.1//EN"
  "http://www.w3.org/Graphics/SVG/1.1/DTD/svg11.dtd">
<svg xmlns:xlink="http://www.w3.org/1999/xlink" width="720pt" height="360pt" viewBox="0 0 720 360" xmlns="http://www.w3.org/2000/svg" version="1.1">
 <metadata>
  <rdf:RDF xmlns:dc="http://purl.org/dc/elements/1.1/" xmlns:cc="http://creativecommons.org/ns#" xmlns:rdf="http://www.w3.org/1999/02/22-rdf-syntax-ns#">
   <cc:Work>
    <dc:type rdf:resource="http://purl.org/dc/dcmitype/StillImage"/>
    <dc:date>2023-10-23T10:53:35.667073</dc:date>
    <dc:format>image/svg+xml</dc:format>
    <dc:creator>
     <cc:Agent>
      <dc:title>Matplotlib v3.7.1, https://matplotlib.org/</dc:title>
     </cc:Agent>
    </dc:creator>
   </cc:Work>
  </rdf:RDF>
 </metadata>
 <defs>
  <style type="text/css">*{stroke-linejoin: round; stroke-linecap: butt}</style>
 </defs>
 <g id="figure_1">
  <g id="patch_1">
   <path d="M 0 360 
L 720 360 
L 720 0 
L 0 0 
z
" style="fill: #ffffff"/>
  </g>
  <g id="axes_1">
   <g id="patch_2">
    <path d="M 90 288 
L 648 288 
L 648 43.2 
L 90 43.2 
z
" style="fill: #ffffff"/>
   </g>
   <g id="matplotlib.axis_1">
    <g id="xtick_1">
     <g id="line2d_1">
      <defs>
       <path id="mf6892b4460" d="M 0 0 
L 0 3.5 
" style="stroke: #000000; stroke-width: 0.8"/>
      </defs>
      <g>
       <use xlink:href="#mf6892b4460" x="149.370747" y="288" style="stroke: #000000; stroke-width: 0.8"/>
      </g>
     </g>
     <g id="text_1">
      <!-- 2023-08-15 -->
      <g transform="translate(87.727405 337.765903) rotate(-30) scale(0.12 -0.12)">
       <defs>
        <path id="DejaVuSans-32" d="M 1228 531 
L 3431 531 
L 3431 0 
L 469 0 
L 469 531 
Q 828 903 1448 1529 
Q 2069 2156 2228 2338 
Q 2531 2678 2651 2914 
Q 2772 3150 2772 3378 
Q 2772 3750 2511 3984 
Q 2250 4219 1831 4219 
Q 1534 4219 1204 4116 
Q 875 4013 500 3803 
L 500 4441 
Q 881 4594 1212 4672 
Q 1544 4750 1819 4750 
Q 2544 4750 2975 4387 
Q 3406 4025 3406 3419 
Q 3406 3131 3298 2873 
Q 3191 2616 2906 2266 
Q 2828 2175 2409 1742 
Q 1991 1309 1228 531 
z
" transform="scale(0.015625)"/>
        <path id="DejaVuSans-30" d="M 2034 4250 
Q 1547 4250 1301 3770 
Q 1056 3291 1056 2328 
Q 1056 1369 1301 889 
Q 1547 409 2034 409 
Q 2525 409 2770 889 
Q 3016 1369 3016 2328 
Q 3016 3291 2770 3770 
Q 2525 4250 2034 4250 
z
M 2034 4750 
Q 2819 4750 3233 4129 
Q 3647 3509 3647 2328 
Q 3647 1150 3233 529 
Q 2819 -91 2034 -91 
Q 1250 -91 836 529 
Q 422 1150 422 2328 
Q 422 3509 836 4129 
Q 1250 4750 2034 4750 
z
" transform="scale(0.015625)"/>
        <path id="DejaVuSans-33" d="M 2597 2516 
Q 3050 2419 3304 2112 
Q 3559 1806 3559 1356 
Q 3559 666 3084 287 
Q 2609 -91 1734 -91 
Q 1441 -91 1130 -33 
Q 819 25 488 141 
L 488 750 
Q 750 597 1062 519 
Q 1375 441 1716 441 
Q 2309 441 2620 675 
Q 2931 909 2931 1356 
Q 2931 1769 2642 2001 
Q 2353 2234 1838 2234 
L 1294 2234 
L 1294 2753 
L 1863 2753 
Q 2328 2753 2575 2939 
Q 2822 3125 2822 3475 
Q 2822 3834 2567 4026 
Q 2313 4219 1838 4219 
Q 1578 4219 1281 4162 
Q 984 4106 628 3988 
L 628 4550 
Q 988 4650 1302 4700 
Q 1616 4750 1894 4750 
Q 2613 4750 3031 4423 
Q 3450 4097 3450 3541 
Q 3450 3153 3228 2886 
Q 3006 2619 2597 2516 
z
" transform="scale(0.015625)"/>
        <path id="DejaVuSans-2d" d="M 313 2009 
L 1997 2009 
L 1997 1497 
L 313 1497 
L 313 2009 
z
" transform="scale(0.015625)"/>
        <path id="DejaVuSans-38" d="M 2034 2216 
Q 1584 2216 1326 1975 
Q 1069 1734 1069 1313 
Q 1069 891 1326 650 
Q 1584 409 2034 409 
Q 2484 409 2743 651 
Q 3003 894 3003 1313 
Q 3003 1734 2745 1975 
Q 2488 2216 2034 2216 
z
M 1403 2484 
Q 997 2584 770 2862 
Q 544 3141 544 3541 
Q 544 4100 942 4425 
Q 1341 4750 2034 4750 
Q 2731 4750 3128 4425 
Q 3525 4100 3525 3541 
Q 3525 3141 3298 2862 
Q 3072 2584 2669 2484 
Q 3125 2378 3379 2068 
Q 3634 1759 3634 1313 
Q 3634 634 3220 271 
Q 2806 -91 2034 -91 
Q 1263 -91 848 271 
Q 434 634 434 1313 
Q 434 1759 690 2068 
Q 947 2378 1403 2484 
z
M 1172 3481 
Q 1172 3119 1398 2916 
Q 1625 2713 2034 2713 
Q 2441 2713 2670 2916 
Q 2900 3119 2900 3481 
Q 2900 3844 2670 4047 
Q 2441 4250 2034 4250 
Q 1625 4250 1398 4047 
Q 1172 3844 1172 3481 
z
" transform="scale(0.015625)"/>
        <path id="DejaVuSans-31" d="M 794 531 
L 1825 531 
L 1825 4091 
L 703 3866 
L 703 4441 
L 1819 4666 
L 2450 4666 
L 2450 531 
L 3481 531 
L 3481 0 
L 794 0 
L 794 531 
z
" transform="scale(0.015625)"/>
        <path id="DejaVuSans-35" d="M 691 4666 
L 3169 4666 
L 3169 4134 
L 1269 4134 
L 1269 2991 
Q 1406 3038 1543 3061 
Q 1681 3084 1819 3084 
Q 2600 3084 3056 2656 
Q 3513 2228 3513 1497 
Q 3513 744 3044 326 
Q 2575 -91 1722 -91 
Q 1428 -91 1123 -41 
Q 819 9 494 109 
L 494 744 
Q 775 591 1075 516 
Q 1375 441 1709 441 
Q 2250 441 2565 725 
Q 2881 1009 2881 1497 
Q 2881 1984 2565 2268 
Q 2250 2553 1709 2553 
Q 1456 2553 1204 2497 
Q 953 2441 691 2322 
L 691 4666 
z
" transform="scale(0.015625)"/>
       </defs>
       <use xlink:href="#DejaVuSans-32"/>
       <use xlink:href="#DejaVuSans-30" x="63.623047"/>
       <use xlink:href="#DejaVuSans-32" x="127.246094"/>
       <use xlink:href="#DejaVuSans-33" x="190.869141"/>
       <use xlink:href="#DejaVuSans-2d" x="254.492188"/>
       <use xlink:href="#DejaVuSans-30" x="290.576172"/>
       <use xlink:href="#DejaVuSans-38" x="354.199219"/>
       <use xlink:href="#DejaVuSans-2d" x="417.822266"/>
       <use xlink:href="#DejaVuSans-31" x="453.90625"/>
       <use xlink:href="#DejaVuSans-35" x="517.529297"/>
      </g>
     </g>
    </g>
    <g id="xtick_2">
     <g id="line2d_2">
      <g>
       <use xlink:href="#mf6892b4460" x="264.994921" y="288" style="stroke: #000000; stroke-width: 0.8"/>
      </g>
     </g>
     <g id="text_2">
      <!-- 2023-09-01 -->
      <g transform="translate(203.35158 337.765903) rotate(-30) scale(0.12 -0.12)">
       <defs>
        <path id="DejaVuSans-39" d="M 703 97 
L 703 672 
Q 941 559 1184 500 
Q 1428 441 1663 441 
Q 2288 441 2617 861 
Q 2947 1281 2994 2138 
Q 2813 1869 2534 1725 
Q 2256 1581 1919 1581 
Q 1219 1581 811 2004 
Q 403 2428 403 3163 
Q 403 3881 828 4315 
Q 1253 4750 1959 4750 
Q 2769 4750 3195 4129 
Q 3622 3509 3622 2328 
Q 3622 1225 3098 567 
Q 2575 -91 1691 -91 
Q 1453 -91 1209 -44 
Q 966 3 703 97 
z
M 1959 2075 
Q 2384 2075 2632 2365 
Q 2881 2656 2881 3163 
Q 2881 3666 2632 3958 
Q 2384 4250 1959 4250 
Q 1534 4250 1286 3958 
Q 1038 3666 1038 3163 
Q 1038 2656 1286 2365 
Q 1534 2075 1959 2075 
z
" transform="scale(0.015625)"/>
       </defs>
       <use xlink:href="#DejaVuSans-32"/>
       <use xlink:href="#DejaVuSans-30" x="63.623047"/>
       <use xlink:href="#DejaVuSans-32" x="127.246094"/>
       <use xlink:href="#DejaVuSans-33" x="190.869141"/>
       <use xlink:href="#DejaVuSans-2d" x="254.492188"/>
       <use xlink:href="#DejaVuSans-30" x="290.576172"/>
       <use xlink:href="#DejaVuSans-39" x="354.199219"/>
       <use xlink:href="#DejaVuSans-2d" x="417.822266"/>
       <use xlink:href="#DejaVuSans-30" x="453.90625"/>
       <use xlink:href="#DejaVuSans-31" x="517.529297"/>
      </g>
     </g>
    </g>
    <g id="xtick_3">
     <g id="line2d_3">
      <g>
       <use xlink:href="#mf6892b4460" x="360.21483" y="288" style="stroke: #000000; stroke-width: 0.8"/>
      </g>
     </g>
     <g id="text_3">
      <!-- 2023-09-15 -->
      <g transform="translate(298.571488 337.765903) rotate(-30) scale(0.12 -0.12)">
       <use xlink:href="#DejaVuSans-32"/>
       <use xlink:href="#DejaVuSans-30" x="63.623047"/>
       <use xlink:href="#DejaVuSans-32" x="127.246094"/>
       <use xlink:href="#DejaVuSans-33" x="190.869141"/>
       <use xlink:href="#DejaVuSans-2d" x="254.492188"/>
       <use xlink:href="#DejaVuSans-30" x="290.576172"/>
       <use xlink:href="#DejaVuSans-39" x="354.199219"/>
       <use xlink:href="#DejaVuSans-2d" x="417.822266"/>
       <use xlink:href="#DejaVuSans-31" x="453.90625"/>
       <use xlink:href="#DejaVuSans-35" x="517.529297"/>
      </g>
     </g>
    </g>
    <g id="xtick_4">
     <g id="line2d_4">
      <g>
       <use xlink:href="#mf6892b4460" x="469.037583" y="288" style="stroke: #000000; stroke-width: 0.8"/>
      </g>
     </g>
     <g id="text_4">
      <!-- 2023-10-01 -->
      <g transform="translate(407.394241 337.765903) rotate(-30) scale(0.12 -0.12)">
       <use xlink:href="#DejaVuSans-32"/>
       <use xlink:href="#DejaVuSans-30" x="63.623047"/>
       <use xlink:href="#DejaVuSans-32" x="127.246094"/>
       <use xlink:href="#DejaVuSans-33" x="190.869141"/>
       <use xlink:href="#DejaVuSans-2d" x="254.492188"/>
       <use xlink:href="#DejaVuSans-31" x="290.576172"/>
       <use xlink:href="#DejaVuSans-30" x="354.199219"/>
       <use xlink:href="#DejaVuSans-2d" x="417.822266"/>
       <use xlink:href="#DejaVuSans-30" x="453.90625"/>
       <use xlink:href="#DejaVuSans-31" x="517.529297"/>
      </g>
     </g>
    </g>
    <g id="xtick_5">
     <g id="line2d_5">
      <g>
       <use xlink:href="#mf6892b4460" x="564.257491" y="288" style="stroke: #000000; stroke-width: 0.8"/>
      </g>
     </g>
     <g id="text_5">
      <!-- 2023-10-15 -->
      <g transform="translate(502.614149 337.765903) rotate(-30) scale(0.12 -0.12)">
       <use xlink:href="#DejaVuSans-32"/>
       <use xlink:href="#DejaVuSans-30" x="63.623047"/>
       <use xlink:href="#DejaVuSans-32" x="127.246094"/>
       <use xlink:href="#DejaVuSans-33" x="190.869141"/>
       <use xlink:href="#DejaVuSans-2d" x="254.492188"/>
       <use xlink:href="#DejaVuSans-31" x="290.576172"/>
       <use xlink:href="#DejaVuSans-30" x="354.199219"/>
       <use xlink:href="#DejaVuSans-2d" x="417.822266"/>
       <use xlink:href="#DejaVuSans-31" x="453.90625"/>
       <use xlink:href="#DejaVuSans-35" x="517.529297"/>
      </g>
     </g>
    </g>
   </g>
   <g id="matplotlib.axis_2">
    <g id="ytick_1">
     <g id="line2d_6">
      <defs>
       <path id="mbaad41b151" d="M 0 0 
L -3.5 0 
" style="stroke: #000000; stroke-width: 0.8"/>
      </defs>
      <g>
       <use xlink:href="#mbaad41b151" x="90" y="276.420167" style="stroke: #000000; stroke-width: 0.8"/>
      </g>
     </g>
     <g id="text_6">
      <!-- 0.60 -->
      <g transform="translate(56.28125 280.979229) scale(0.12 -0.12)">
       <defs>
        <path id="DejaVuSans-2e" d="M 684 794 
L 1344 794 
L 1344 0 
L 684 0 
L 684 794 
z
" transform="scale(0.015625)"/>
        <path id="DejaVuSans-36" d="M 2113 2584 
Q 1688 2584 1439 2293 
Q 1191 2003 1191 1497 
Q 1191 994 1439 701 
Q 1688 409 2113 409 
Q 2538 409 2786 701 
Q 3034 994 3034 1497 
Q 3034 2003 2786 2293 
Q 2538 2584 2113 2584 
z
M 3366 4563 
L 3366 3988 
Q 3128 4100 2886 4159 
Q 2644 4219 2406 4219 
Q 1781 4219 1451 3797 
Q 1122 3375 1075 2522 
Q 1259 2794 1537 2939 
Q 1816 3084 2150 3084 
Q 2853 3084 3261 2657 
Q 3669 2231 3669 1497 
Q 3669 778 3244 343 
Q 2819 -91 2113 -91 
Q 1303 -91 875 529 
Q 447 1150 447 2328 
Q 447 3434 972 4092 
Q 1497 4750 2381 4750 
Q 2619 4750 2861 4703 
Q 3103 4656 3366 4563 
z
" transform="scale(0.015625)"/>
       </defs>
       <use xlink:href="#DejaVuSans-30"/>
       <use xlink:href="#DejaVuSans-2e" x="63.623047"/>
       <use xlink:href="#DejaVuSans-36" x="95.410156"/>
       <use xlink:href="#DejaVuSans-30" x="159.033203"/>
      </g>
     </g>
    </g>
    <g id="ytick_2">
     <g id="line2d_7">
      <g>
       <use xlink:href="#mbaad41b151" x="90" y="246.387457" style="stroke: #000000; stroke-width: 0.8"/>
      </g>
     </g>
     <g id="text_7">
      <!-- 0.65 -->
      <g transform="translate(56.28125 250.94652) scale(0.12 -0.12)">
       <use xlink:href="#DejaVuSans-30"/>
       <use xlink:href="#DejaVuSans-2e" x="63.623047"/>
       <use xlink:href="#DejaVuSans-36" x="95.410156"/>
       <use xlink:href="#DejaVuSans-35" x="159.033203"/>
      </g>
     </g>
    </g>
    <g id="ytick_3">
     <g id="line2d_8">
      <g>
       <use xlink:href="#mbaad41b151" x="90" y="216.354748" style="stroke: #000000; stroke-width: 0.8"/>
      </g>
     </g>
     <g id="text_8">
      <!-- 0.70 -->
      <g transform="translate(56.28125 220.913811) scale(0.12 -0.12)">
       <defs>
        <path id="DejaVuSans-37" d="M 525 4666 
L 3525 4666 
L 3525 4397 
L 1831 0 
L 1172 0 
L 2766 4134 
L 525 4134 
L 525 4666 
z
" transform="scale(0.015625)"/>
       </defs>
       <use xlink:href="#DejaVuSans-30"/>
       <use xlink:href="#DejaVuSans-2e" x="63.623047"/>
       <use xlink:href="#DejaVuSans-37" x="95.410156"/>
       <use xlink:href="#DejaVuSans-30" x="159.033203"/>
      </g>
     </g>
    </g>
    <g id="ytick_4">
     <g id="line2d_9">
      <g>
       <use xlink:href="#mbaad41b151" x="90" y="186.322039" style="stroke: #000000; stroke-width: 0.8"/>
      </g>
     </g>
     <g id="text_9">
      <!-- 0.75 -->
      <g transform="translate(56.28125 190.881101) scale(0.12 -0.12)">
       <use xlink:href="#DejaVuSans-30"/>
       <use xlink:href="#DejaVuSans-2e" x="63.623047"/>
       <use xlink:href="#DejaVuSans-37" x="95.410156"/>
       <use xlink:href="#DejaVuSans-35" x="159.033203"/>
      </g>
     </g>
    </g>
    <g id="ytick_5">
     <g id="line2d_10">
      <g>
       <use xlink:href="#mbaad41b151" x="90" y="156.28933" style="stroke: #000000; stroke-width: 0.8"/>
      </g>
     </g>
     <g id="text_10">
      <!-- 0.80 -->
      <g transform="translate(56.28125 160.848392) scale(0.12 -0.12)">
       <use xlink:href="#DejaVuSans-30"/>
       <use xlink:href="#DejaVuSans-2e" x="63.623047"/>
       <use xlink:href="#DejaVuSans-38" x="95.410156"/>
       <use xlink:href="#DejaVuSans-30" x="159.033203"/>
      </g>
     </g>
    </g>
    <g id="ytick_6">
     <g id="line2d_11">
      <g>
       <use xlink:href="#mbaad41b151" x="90" y="126.25662" style="stroke: #000000; stroke-width: 0.8"/>
      </g>
     </g>
     <g id="text_11">
      <!-- 0.85 -->
      <g transform="translate(56.28125 130.815683) scale(0.12 -0.12)">
       <use xlink:href="#DejaVuSans-30"/>
       <use xlink:href="#DejaVuSans-2e" x="63.623047"/>
       <use xlink:href="#DejaVuSans-38" x="95.410156"/>
       <use xlink:href="#DejaVuSans-35" x="159.033203"/>
      </g>
     </g>
    </g>
    <g id="ytick_7">
     <g id="line2d_12">
      <g>
       <use xlink:href="#mbaad41b151" x="90" y="96.223911" style="stroke: #000000; stroke-width: 0.8"/>
      </g>
     </g>
     <g id="text_12">
      <!-- 0.90 -->
      <g transform="translate(56.28125 100.782974) scale(0.12 -0.12)">
       <use xlink:href="#DejaVuSans-30"/>
       <use xlink:href="#DejaVuSans-2e" x="63.623047"/>
       <use xlink:href="#DejaVuSans-39" x="95.410156"/>
       <use xlink:href="#DejaVuSans-30" x="159.033203"/>
      </g>
     </g>
    </g>
    <g id="ytick_8">
     <g id="line2d_13">
      <g>
       <use xlink:href="#mbaad41b151" x="90" y="66.191202" style="stroke: #000000; stroke-width: 0.8"/>
      </g>
     </g>
     <g id="text_13">
      <!-- 0.95 -->
      <g transform="translate(56.28125 70.750264) scale(0.12 -0.12)">
       <use xlink:href="#DejaVuSans-30"/>
       <use xlink:href="#DejaVuSans-2e" x="63.623047"/>
       <use xlink:href="#DejaVuSans-39" x="95.410156"/>
       <use xlink:href="#DejaVuSans-35" x="159.033203"/>
      </g>
     </g>
    </g>
    <g id="text_14">
     <!-- Meters -->
     <g transform="translate(50.201562 182.6875) rotate(-90) scale(0.1 -0.1)">
      <defs>
       <path id="DejaVuSans-4d" d="M 628 4666 
L 1569 4666 
L 2759 1491 
L 3956 4666 
L 4897 4666 
L 4897 0 
L 4281 0 
L 4281 4097 
L 3078 897 
L 2444 897 
L 1241 4097 
L 1241 0 
L 628 0 
L 628 4666 
z
" transform="scale(0.015625)"/>
       <path id="DejaVuSans-65" d="M 3597 1894 
L 3597 1613 
L 953 1613 
Q 991 1019 1311 708 
Q 1631 397 2203 397 
Q 2534 397 2845 478 
Q 3156 559 3463 722 
L 3463 178 
Q 3153 47 2828 -22 
Q 2503 -91 2169 -91 
Q 1331 -91 842 396 
Q 353 884 353 1716 
Q 353 2575 817 3079 
Q 1281 3584 2069 3584 
Q 2775 3584 3186 3129 
Q 3597 2675 3597 1894 
z
M 3022 2063 
Q 3016 2534 2758 2815 
Q 2500 3097 2075 3097 
Q 1594 3097 1305 2825 
Q 1016 2553 972 2059 
L 3022 2063 
z
" transform="scale(0.015625)"/>
       <path id="DejaVuSans-74" d="M 1172 4494 
L 1172 3500 
L 2356 3500 
L 2356 3053 
L 1172 3053 
L 1172 1153 
Q 1172 725 1289 603 
Q 1406 481 1766 481 
L 2356 481 
L 2356 0 
L 1766 0 
Q 1100 0 847 248 
Q 594 497 594 1153 
L 594 3053 
L 172 3053 
L 172 3500 
L 594 3500 
L 594 4494 
L 1172 4494 
z
" transform="scale(0.015625)"/>
       <path id="DejaVuSans-72" d="M 2631 2963 
Q 2534 3019 2420 3045 
Q 2306 3072 2169 3072 
Q 1681 3072 1420 2755 
Q 1159 2438 1159 1844 
L 1159 0 
L 581 0 
L 581 3500 
L 1159 3500 
L 1159 2956 
Q 1341 3275 1631 3429 
Q 1922 3584 2338 3584 
Q 2397 3584 2469 3576 
Q 2541 3569 2628 3553 
L 2631 2963 
z
" transform="scale(0.015625)"/>
       <path id="DejaVuSans-73" d="M 2834 3397 
L 2834 2853 
Q 2591 2978 2328 3040 
Q 2066 3103 1784 3103 
Q 1356 3103 1142 2972 
Q 928 2841 928 2578 
Q 928 2378 1081 2264 
Q 1234 2150 1697 2047 
L 1894 2003 
Q 2506 1872 2764 1633 
Q 3022 1394 3022 966 
Q 3022 478 2636 193 
Q 2250 -91 1575 -91 
Q 1294 -91 989 -36 
Q 684 19 347 128 
L 347 722 
Q 666 556 975 473 
Q 1284 391 1588 391 
Q 1994 391 2212 530 
Q 2431 669 2431 922 
Q 2431 1156 2273 1281 
Q 2116 1406 1581 1522 
L 1381 1569 
Q 847 1681 609 1914 
Q 372 2147 372 2553 
Q 372 3047 722 3315 
Q 1072 3584 1716 3584 
Q 2034 3584 2315 3537 
Q 2597 3491 2834 3397 
z
" transform="scale(0.015625)"/>
      </defs>
      <use xlink:href="#DejaVuSans-4d"/>
      <use xlink:href="#DejaVuSans-65" x="86.279297"/>
      <use xlink:href="#DejaVuSans-74" x="147.802734"/>
      <use xlink:href="#DejaVuSans-65" x="187.011719"/>
      <use xlink:href="#DejaVuSans-72" x="248.535156"/>
      <use xlink:href="#DejaVuSans-73" x="289.648438"/>
     </g>
    </g>
   </g>
   <g id="line2d_14">
    <path d="M 115.363636 258.857715 
L 115.647029 260.398999 
L 115.930422 260.599166 
L 116.213814 260.198832 
L 116.497207 259.498249 
L 116.780599 257.19633 
L 117.063992 257.296414 
L 117.347384 256.695913 
L 117.630777 257.296414 
L 117.91417 256.095413 
L 118.197562 256.795997 
L 118.480955 257.096247 
L 118.764347 262.600834 
L 119.04774 262.500751 
L 119.331133 260.098749 
L 119.614525 259.298082 
L 119.897918 259.197998 
L 120.18131 258.397331 
L 120.464703 259.298082 
L 120.748095 257.096247 
L 121.031488 257.296414 
L 121.314881 256.89608 
L 121.598273 257.996997 
L 121.881666 262.100417 
L 122.165058 263.301418 
L 122.448451 263.701751 
L 123.015236 263.501585 
L 123.298629 263.201334 
L 123.582021 261.399833 
L 123.865414 260.9995 
L 124.148807 260.9995 
L 124.432199 260.599166 
L 124.715592 260.699249 
L 124.998984 262.000334 
L 125.282377 264.702585 
L 125.565769 271.508257 
L 125.849162 274.210509 
L 126.132555 273.509925 
L 126.415947 272.108757 
L 126.69934 269.406505 
L 126.982732 265.503253 
L 127.266125 264.902752 
L 128.116303 261.199666 
L 128.399695 262.300584 
L 128.683088 266.103753 
L 128.96648 265.002836 
L 129.249873 264.702585 
L 129.533266 247.78849 
L 129.816658 220.165471 
L 130.100051 215.861885 
L 130.383443 209.656714 
L 131.233621 201.449875 
L 131.517014 199.348123 
L 131.800406 199.84854 
L 132.367191 206.754295 
L 132.650584 206.854379 
L 132.933977 205.453211 
L 133.500762 200.749291 
L 134.067547 188.93945 
L 134.35094 187.238032 
L 134.634332 187.238032 
L 134.917725 186.837698 
L 135.201117 188.038699 
L 135.48451 193.643369 
L 135.767902 194.644204 
L 136.051295 192.742619 
L 136.334688 191.841868 
L 136.61808 192.142118 
L 136.901473 190.941118 
L 137.184865 187.438198 
L 137.751651 185.236364 
L 138.035043 185.236364 
L 138.318436 184.53578 
L 138.601828 185.736781 
L 138.885221 188.338949 
L 139.452006 191.441535 
L 139.735399 191.441535 
L 140.585576 187.438198 
L 140.868969 187.037865 
L 141.152362 186.137114 
L 141.435754 186.737615 
L 141.719147 186.437364 
L 142.285932 187.538282 
L 142.569325 186.037031 
L 142.852717 185.736781 
L 143.13611 185.236364 
L 143.702895 186.037031 
L 143.986287 185.43653 
L 144.26968 185.13628 
L 144.836465 185.236364 
L 145.119858 185.13628 
L 146.820213 191.441535 
L 147.103606 191.141284 
L 147.386998 190.640867 
L 147.670391 189.53995 
L 147.953784 189.339783 
L 148.803961 189.53995 
L 149.087354 189.53995 
L 149.370747 186.737615 
L 149.654139 185.13628 
L 149.937532 185.43653 
L 150.220924 185.336447 
L 150.504317 184.335613 
L 150.787709 184.635863 
L 151.071102 184.035363 
L 151.637887 175.928607 
L 152.204672 170.824354 
L 152.488065 170.72427 
L 152.771458 169.623353 
L 153.05485 167.521601 
L 153.338243 166.821018 
L 153.621635 166.420684 
L 153.905028 166.921101 
L 154.471813 167.221351 
L 154.755206 167.421518 
L 155.038598 166.320601 
L 155.321991 166.120434 
L 155.605383 166.921101 
L 155.888776 169.122936 
L 156.172169 167.321435 
L 156.455561 167.421518 
L 156.738954 167.721768 
L 157.305739 167.621685 
L 157.589132 167.721768 
L 157.872524 168.822686 
L 158.722702 170.223853 
L 159.006094 171.124604 
L 159.289487 174.127106 
L 159.57288 181.032861 
L 159.856272 183.134612 
L 160.139665 180.632527 
L 160.423057 179.631693 
L 160.70645 180.13211 
L 160.989843 180.332277 
L 161.273235 180.732611 
L 161.556628 178.730942 
L 161.84002 178.430692 
L 162.123413 179.331443 
L 162.406805 181.132944 
L 162.690198 186.637531 
L 162.973591 186.937781 
L 163.256983 187.538282 
L 163.540376 187.037865 
L 163.823768 187.238032 
L 164.107161 186.837698 
L 164.390554 185.636697 
L 164.673946 186.637531 
L 164.957339 187.037865 
L 165.240731 188.038699 
L 165.524124 188.138782 
L 165.807517 190.040367 
L 166.090909 193.243036 
L 166.374302 198.247206 
L 166.657694 199.948624 
L 167.224479 201.349791 
L 167.507872 200.749291 
L 167.791265 197.946956 
L 168.074657 192.542452 
L 168.35805 189.8402 
L 168.641442 189.640033 
L 168.924835 190.440701 
L 169.208228 192.742619 
L 169.49162 196.745955 
L 170.058405 194.143786 
L 170.341798 194.043703 
L 170.908583 196.045371 
L 171.191976 196.545788 
L 171.475368 197.446539 
L 171.758761 196.846038 
L 172.325546 198.747623 
L 172.608939 200.649208 
L 172.892331 204.452377 
L 173.175724 212.158799 
L 173.459116 214.160467 
L 173.742509 213.9603 
L 174.025901 214.460717 
L 174.309294 213.259716 
L 174.592687 210.157131 
L 174.876079 209.956964 
L 175.159472 209.156297 
L 175.442864 208.856047 
L 175.726257 209.25638 
L 176.00965 210.857715 
L 176.293042 214.060384 
L 176.576435 215.161301 
L 176.859827 213.159633 
L 177.14322 213.259716 
L 177.426612 212.859383 
L 177.710005 213.760133 
L 177.993398 218.96447 
L 178.560183 222.567473 
L 179.126968 223.968641 
L 179.410361 224.168807 
L 179.693753 221.966972 
L 180.260538 230.173812 
L 180.543931 230.574145 
L 180.827324 230.173812 
L 181.110716 231.274729 
L 181.394109 233.976981 
L 181.960894 229.072894 
L 182.244286 228.872727 
L 182.527679 229.072894 
L 182.811072 230.273895 
L 183.094464 232.17548 
L 183.377857 232.275563 
L 184.228035 229.873561 
L 184.511427 230.874395 
L 184.79482 234.677565 
L 185.078212 234.977815 
L 185.361605 235.478232 
L 185.644997 235.378148 
L 186.211783 234.677565 
L 186.495175 231.775146 
L 187.06196 238.280567 
L 187.345353 237.579983 
L 187.628746 238.0804 
L 187.912138 238.0804 
L 188.195531 240.382319 
L 188.478923 239.481568 
L 188.762316 237.579983 
L 189.045708 236.879399 
L 189.329101 235.378148 
L 189.612494 235.978649 
L 189.895886 237.4799 
L 190.179279 237.379817 
L 190.746064 235.778482 
L 191.312849 235.478232 
L 191.596242 239.881902 
L 191.879634 242.283903 
L 192.163027 243.384821 
L 192.44642 243.885238 
L 192.729812 244.685905 
L 193.013205 244.585822 
L 193.296597 242.48407 
L 193.57999 243.384821 
L 193.863382 245.386489 
L 194.430168 247.388157 
L 194.71356 248.188824 
L 194.996953 251.391493 
L 195.280345 251.091243 
L 195.563738 251.191326 
L 195.847131 250.490742 
L 196.130523 248.889408 
L 196.413916 249.189658 
L 196.697308 249.690075 
L 196.980701 249.690075 
L 197.264093 249.890242 
L 197.547486 251.091243 
L 197.830879 251.29141 
L 198.114271 252.792661 
L 198.397664 256.495746 
L 198.681056 257.896914 
L 198.964449 257.796831 
L 199.247842 258.897748 
L 199.531234 259.097915 
L 200.098019 256.795997 
L 200.381412 257.996997 
L 200.948197 259.298082 
L 201.514982 260.9995 
L 201.798375 261.29975 
L 202.36516 263.501585 
L 202.931945 259.998666 
L 203.49873 262.2005 
L 204.065515 257.096247 
L 204.348908 256.395663 
L 204.632301 256.095413 
L 204.915693 256.395663 
L 205.199086 257.396497 
L 205.765871 258.497415 
L 206.049264 258.197164 
L 206.332656 258.597498 
L 206.899441 255.494912 
L 207.182834 255.394829 
L 207.466227 255.094579 
L 207.749619 255.394829 
L 208.033012 254.694245 
L 208.316404 254.293912 
L 208.883189 255.294746 
L 209.166582 254.293912 
L 209.449975 252.592494 
L 209.733367 251.59166 
L 210.01676 252.092077 
L 210.300152 252.092077 
L 210.583545 250.690909 
L 210.866938 250.090409 
L 211.15033 249.890242 
L 211.433723 249.189658 
L 211.717115 249.890242 
L 212.000508 244.785988 
L 212.567293 194.944454 
L 213.134078 186.337281 
L 214.834434 169.423186 
L 215.117826 167.321435 
L 215.401219 166.520767 
L 216.251397 161.816847 
L 216.534789 160.515763 
L 217.384967 159.414846 
L 217.66836 157.613344 
L 217.951752 129.489908 
L 218.235145 113.476564 
L 219.368715 97.463219 
L 219.9355 91.958632 
L 221.635856 79.448207 
L 223.619604 66.737615 
L 223.902996 65.836864 
L 224.186389 64.53578 
L 224.753174 61.333111 
L 225.319959 58.730942 
L 225.603352 58.030359 
L 225.886745 56.929441 
L 226.45353 55.72844 
L 226.736922 55.928607 
L 227.5871 54.327273 
L 227.870493 54.627523 
L 228.153885 56.128774 
L 228.72067 57.429858 
L 229.004063 58.730942 
L 229.287456 59.131276 
L 229.570848 58.831026 
L 229.854241 59.631693 
L 230.421026 61.933611 
L 230.704418 62.033695 
L 230.987811 62.434028 
L 231.271204 63.334779 
L 231.837989 64.23553 
L 232.121381 65.13628 
L 232.404774 65.236364 
L 232.688167 66.137114 
L 233.254952 67.238032 
L 233.538344 67.938616 
L 233.821737 68.338949 
L 234.10513 69.439867 
L 234.388522 73.042869 
L 234.671915 73.443203 
L 234.955307 73.643369 
L 235.2387 73.643369 
L 235.522092 74.143786 
L 235.805485 73.743453 
L 236.088878 74.84437 
L 236.37227 73.743453 
L 236.939055 75.745121 
L 237.789233 78.047039 
L 238.072626 78.347289 
L 238.356018 78.847706 
L 238.639411 78.547456 
L 238.922803 79.648374 
L 240.056374 81.950292 
L 240.339766 82.350626 
L 240.906552 84.652544 
L 241.189944 90.457381 
L 241.473337 91.658382 
L 241.756729 90.257214 
L 242.040122 90.557465 
L 242.323514 89.556631 
L 242.606907 89.456547 
L 242.8903 89.856881 
L 243.173692 89.956964 
L 243.457085 90.257214 
L 243.740477 90.357298 
L 244.02387 91.858549 
L 244.307263 94.460717 
L 244.590655 95.161301 
L 244.874048 94.760967 
L 245.15744 95.661718 
L 245.440833 96.162135 
L 245.724225 96.362302 
L 246.574403 99.564971 
L 247.424581 101.766806 
L 247.707974 103.167973 
L 247.991366 106.871059 
L 248.558151 108.172143 
L 248.841544 108.472394 
L 249.124937 107.871893 
L 249.408329 107.671726 
L 249.975114 106.770976 
L 250.258507 105.870225 
L 250.541899 105.970309 
L 250.825292 104.969475 
L 251.108685 105.269725 
L 251.392077 105.770142 
L 251.67547 103.167973 
L 251.958862 102.567473 
L 252.242255 102.367306 
L 252.525648 103.06789 
L 253.092433 106.270559 
L 253.375825 106.570809 
L 253.94261 108.37231 
L 254.226003 108.472394 
L 254.509396 107.571643 
L 255.359573 109.673394 
L 255.642966 110.173812 
L 256.209751 113.37648 
L 256.493144 114.477398 
L 256.776536 114.977815 
L 257.059929 114.177148 
L 257.626714 113.476564 
L 257.910107 114.477398 
L 258.193499 115.978649 
L 258.476892 115.778482 
L 258.760284 116.278899 
L 259.043677 116.278899 
L 259.32707 116.879399 
L 259.610462 117.880234 
L 259.893855 120.482402 
L 260.177247 121.88357 
L 261.027425 123.685071 
L 261.310818 123.785154 
L 261.59421 129.890242 
L 261.877603 129.690075 
L 262.160995 127.988657 
L 262.444388 128.589158 
L 262.727781 128.288907 
L 263.011173 129.790158 
L 263.294566 129.189658 
L 263.577958 129.089575 
L 263.861351 128.489074 
L 264.144744 127.388157 
L 264.428136 128.188824 
L 264.711529 130.690909 
L 264.994921 130.490742 
L 265.278314 129.790158 
L 265.845099 129.389825 
L 266.128492 130.490742 
L 266.411884 133.192994 
L 266.978669 134.594162 
L 267.545455 136.29558 
L 267.828847 136.495746 
L 268.11224 136.29558 
L 268.395632 140.198832 
L 268.679025 140.198832 
L 268.962417 139.197998 
L 269.24581 139.598332 
L 269.529203 139.398165 
L 269.812595 140.799333 
L 270.095988 140.799333 
L 270.37938 140.9995 
L 270.662773 140.899416 
L 270.946166 139.598332 
L 271.229558 139.898582 
L 271.796343 143.301418 
L 272.079736 142.100417 
L 272.363128 142.000334 
L 272.646521 143.101251 
L 272.929914 143.401501 
L 273.213306 145.203003 
L 273.496699 145.603336 
L 273.780091 146.30392 
L 274.346877 148.505755 
L 274.630269 148.705922 
L 274.913662 148.105421 
L 275.480447 153.009508 
L 275.76384 149.906922 
L 276.047232 150.407339 
L 276.330625 150.507423 
L 276.614017 153.309758 
L 276.89741 153.109591 
L 277.180802 153.610008 
L 277.747588 152.308924 
L 278.03098 152.208841 
L 278.314373 152.509091 
L 278.597765 153.710092 
L 278.881158 154.410676 
L 279.164551 154.110425 
L 279.447943 154.410676 
L 279.731336 154.510759 
L 280.014728 157.213011 
L 281.148299 159.815179 
L 281.431691 160.015346 
L 281.715084 157.913595 
L 281.998476 158.113761 
L 282.281869 162.917765 
L 282.565262 163.718432 
L 282.848654 162.217181 
L 283.132047 163.818515 
L 283.415439 164.719266 
L 283.982224 163.418182 
L 284.265617 162.917765 
L 284.54901 136.695913 
L 284.832402 161.716764 
L 285.115795 163.218015 
L 285.399187 163.418182 
L 285.68258 161.216347 
L 285.965973 162.517431 
L 286.249365 159.615013 
L 286.81615 164.118766 
L 287.099543 164.619183 
L 287.382936 166.720934 
L 287.666328 167.221351 
L 287.949721 168.322269 
L 288.233113 168.422352 
L 288.516506 167.421518 
L 288.799898 169.323103 
L 289.083291 173.026188 
L 289.366684 173.126272 
L 289.933469 172.425688 
L 290.216861 172.725938 
L 290.500254 173.726772 
L 290.783647 145.803503 
L 291.067039 173.026188 
L 291.350432 172.125438 
L 291.633824 173.026188 
L 291.917217 176.028691 
L 292.200609 175.828524 
L 292.484002 175.027857 
L 292.767395 174.727606 
L 293.33418 175.12794 
L 293.617572 177.129608 
L 294.751143 180.632527 
L 295.034535 180.932777 
L 295.317928 179.83186 
L 295.884713 186.237198 
L 296.451498 184.635863 
L 296.734891 184.435696 
L 297.018283 184.735947 
L 297.301676 184.635863 
L 297.585069 184.735947 
L 297.868461 184.035363 
L 298.151854 182.834362 
L 298.718639 185.036197 
L 299.002031 183.935279 
L 299.568817 181.333111 
L 299.852209 181.733445 
L 300.135602 182.534112 
L 300.702387 185.43653 
L 300.98578 185.636697 
L 301.269172 186.837698 
L 301.552565 186.637531 
L 301.835957 187.638365 
L 302.11935 186.237198 
L 302.402743 188.338949 
L 302.686135 188.038699 
L 302.969528 188.038699 
L 303.536313 189.8402 
L 303.819705 189.740117 
L 304.103098 190.740951 
L 304.386491 190.841034 
L 304.669883 190.640867 
L 304.953276 190.841034 
L 305.236668 191.241368 
L 305.520061 192.642535 
L 305.803454 192.642535 
L 306.086846 191.841868 
L 306.370239 192.242202 
L 306.653631 194.343953 
L 306.937024 194.54412 
L 307.220416 196.345621 
L 307.503809 196.345621 
L 307.787202 197.746789 
L 308.070594 197.646706 
L 308.353987 199.84854 
L 308.637379 199.648374 
L 308.920772 198.64754 
L 309.204165 198.64754 
L 309.487557 199.948624 
L 309.77095 200.148791 
L 310.054342 200.849374 
L 310.621127 204.55246 
L 311.187913 206.554128 
L 311.471305 206.954462 
L 311.754698 205.553294 
L 312.321483 206.854379 
L 312.604876 206.654212 
L 312.888268 206.954462 
L 313.738446 209.556631 
L 314.021838 211.758465 
L 314.305231 212.459049 
L 314.872016 215.261384 
L 315.155409 215.561635 
L 315.438801 215.261384 
L 315.722194 214.660884 
L 316.288979 215.561635 
L 316.855764 217.162969 
L 317.139157 217.76347 
L 317.42255 220.866055 
L 317.989335 222.167139 
L 318.272727 221.966972 
L 318.55612 220.465721 
L 318.839512 220.365638 
L 319.406298 220.866055 
L 319.68969 220.665888 
L 319.973083 221.466555 
L 320.256475 221.166305 
L 320.539868 221.366472 
L 321.106653 225.369808 
L 321.390046 226.270559 
L 321.673438 226.670892 
L 321.956831 227.671726 
L 322.240223 227.271393 
L 322.523616 227.071226 
L 322.807009 232.575813 
L 323.090401 233.07623 
L 323.373794 231.775146 
L 323.657186 231.775146 
L 323.940579 232.876063 
L 324.223972 235.177982 
L 324.507364 235.378148 
L 324.790757 235.378148 
L 325.074149 234.777648 
L 325.357542 233.176314 
L 325.640934 232.876063 
L 325.924327 232.876063 
L 326.20772 233.07623 
L 326.491112 233.976981 
L 326.774505 233.876897 
L 327.057897 234.477398 
L 327.34129 234.477398 
L 327.624683 237.980317 
L 328.47486 240.682569 
L 329.325038 238.480734 
L 329.608431 238.580817 
L 329.891823 239.881902 
L 330.458608 245.586656 
L 330.742001 244.785988 
L 331.025394 246.387323 
L 331.592179 245.986989 
L 331.875571 244.385655 
L 332.158964 241.983653 
L 332.442357 241.383153 
L 332.725749 242.283903 
L 333.009142 241.283069 
L 333.292534 241.88357 
L 333.575927 241.383153 
L 333.859319 240.382319 
L 334.142712 240.382319 
L 334.426105 242.78432 
L 334.709497 243.484904 
L 334.99289 243.685071 
L 335.559675 243.685071 
L 335.843068 243.484904 
L 336.12646 241.283069 
L 336.409853 244.585822 
L 336.693245 245.886906 
L 336.976638 244.285571 
L 337.26003 245.086239 
L 337.543423 246.387323 
L 337.826816 247.087907 
L 338.110208 245.686739 
L 338.676993 244.385655 
L 338.960386 242.584153 
L 339.243779 242.18382 
L 339.527171 241.082902 
L 339.810564 240.782652 
L 343.211275 218.66422 
L 343.494667 218.36397 
L 343.77806 218.36397 
L 344.061453 218.764304 
L 344.628238 222.367306 
L 344.91163 222.167139 
L 345.478415 220.966138 
L 345.761808 219.364804 
L 346.328593 218.464053 
L 346.611986 217.463219 
L 346.895378 217.563303 
L 347.178771 216.462385 
L 347.462164 216.662552 
L 347.745556 216.462385 
L 348.028949 218.163803 
L 348.312341 217.863553 
L 348.595734 218.163803 
L 349.162519 219.364804 
L 349.729304 217.963636 
L 350.012697 222.667556 
L 350.296089 225.269725 
L 350.579482 225.670058 
L 350.862875 223.968641 
L 351.146267 223.968641 
L 351.42966 227.571643 
L 351.713052 227.371476 
L 352.279837 227.971977 
L 352.56323 226.070392 
L 352.846623 226.470726 
L 353.130015 227.77181 
L 353.413408 227.971977 
L 353.6968 228.472394 
L 353.980193 228.67256 
L 354.263586 229.573311 
L 354.546978 229.973645 
L 354.830371 232.17548 
L 355.397156 234.677565 
L 355.680549 236.479066 
L 355.963941 236.679233 
L 356.247334 238.180484 
L 356.530726 236.479066 
L 356.814119 241.683403 
L 357.097511 243.484904 
L 357.380904 242.283903 
L 357.664297 241.683403 
L 357.947689 240.182152 
L 358.231082 241.283069 
L 358.514474 240.182152 
L 358.797867 239.681735 
L 359.364652 234.777648 
L 359.648045 234.377314 
L 359.931437 236.078732 
L 360.498222 232.976147 
L 360.781615 232.675897 
L 361.065008 232.575813 
L 361.3484 232.275563 
L 361.631793 234.677565 
L 361.915185 235.278065 
L 362.765363 235.578315 
L 363.048756 235.978649 
L 363.332148 232.675897 
L 363.898933 239.481568 
L 364.465719 237.17965 
L 364.749111 235.778482 
L 365.315896 236.879399 
L 365.599289 235.978649 
L 365.882682 236.178816 
L 366.166074 234.177148 
L 366.449467 234.077064 
L 366.732859 235.278065 
L 367.016252 233.276397 
L 367.86643 231.274729 
L 368.149822 231.875229 
L 368.433215 233.876897 
L 369 234.277231 
L 369.283393 234.277231 
L 369.566785 234.577481 
L 369.850178 234.277231 
L 370.13357 232.575813 
L 370.416963 236.879399 
L 370.700356 238.180484 
L 371.267141 234.977815 
L 371.550533 235.678399 
L 371.833926 237.17965 
L 372.400711 236.679233 
L 372.684104 236.178816 
L 372.967496 233.07623 
L 373.250889 232.976147 
L 373.534281 232.675897 
L 374.101067 231.174646 
L 374.667852 229.473228 
L 374.951244 229.873561 
L 375.234637 231.975313 
L 375.518029 232.275563 
L 375.801422 232.275563 
L 376.084815 233.776814 
L 376.368207 233.876897 
L 376.6516 233.07623 
L 376.934992 230.874395 
L 377.218385 229.573311 
L 377.501778 230.674229 
L 377.78517 232.976147 
L 378.068563 232.47573 
L 378.351955 232.575813 
L 378.91874 234.577481 
L 379.202133 234.277231 
L 379.485526 233.276397 
L 379.768918 231.374812 
L 380.052311 230.373978 
L 380.335703 230.974479 
L 380.902489 230.874395 
L 381.185881 230.574145 
L 381.469274 230.574145 
L 381.752666 231.074562 
L 382.036059 233.276397 
L 382.319451 233.07623 
L 382.602844 233.976981 
L 383.169629 233.37648 
L 383.453022 233.276397 
L 383.736414 231.574979 
L 384.019807 232.275563 
L 384.3032 232.575813 
L 384.586592 234.677565 
L 384.869985 233.976981 
L 385.153377 234.277231 
L 385.43677 235.878565 
L 385.720163 236.479066 
L 386.003555 236.679233 
L 386.57034 233.07623 
L 386.853733 234.277231 
L 387.420518 234.477398 
L 387.703911 234.277231 
L 387.987303 233.876897 
L 388.270696 233.976981 
L 388.554088 233.676731 
L 388.837481 235.278065 
L 389.120874 235.278065 
L 389.404266 237.279733 
L 389.687659 237.980317 
L 389.971051 238.0804 
L 390.537836 236.879399 
L 391.104622 245.986989 
L 391.388014 242.684237 
L 391.954799 241.583319 
L 392.238192 243.484904 
L 392.521585 243.08457 
L 392.804977 244.085405 
L 393.08837 243.584987 
L 393.371762 242.48407 
L 393.655155 242.884404 
L 393.938547 243.985321 
L 394.22194 243.584987 
L 394.505333 244.785988 
L 394.788725 245.086239 
L 395.072118 244.585822 
L 395.35551 244.485738 
L 395.638903 247.388157 
L 395.922296 248.489074 
L 396.489081 249.589992 
L 396.772473 251.091243 
L 397.055866 251.391493 
L 397.339259 248.288907 
L 397.622651 247.588324 
L 397.906044 248.388991 
L 398.472829 252.892744 
L 398.756221 252.49241 
L 399.039614 253.192994 
L 399.323007 253.393161 
L 399.606399 251.29141 
L 399.889792 250.190492 
L 400.173184 246.487406 
L 400.456577 246.58749 
L 400.73997 247.688407 
L 401.306755 244.685905 
L 401.87354 242.283903 
L 402.156932 242.18382 
L 402.440325 244.285571 
L 402.723718 243.785154 
L 403.290503 243.284737 
L 403.857288 242.083736 
L 404.140681 238.981151 
L 404.707466 241.88357 
L 405.274251 238.780984 
L 405.841036 241.082902 
L 406.407821 238.0804 
L 406.974606 233.876897 
L 407.257999 235.077898 
L 407.541392 234.177148 
L 408.108177 231.775146 
L 408.674962 229.973645 
L 408.958354 230.073728 
L 409.241747 231.374812 
L 409.52514 231.174646 
L 409.808532 231.374812 
L 410.091925 230.574145 
L 410.375317 230.474062 
L 411.225495 225.269725 
L 411.508888 225.169641 
L 411.79228 226.871059 
L 412.075673 229.673394 
L 412.359066 230.574145 
L 412.925851 227.871893 
L 413.209243 227.47156 
L 413.776028 224.769308 
L 414.059421 224.368974 
L 414.342814 224.469058 
L 414.626206 226.170475 
L 414.909599 224.268891 
L 415.192991 223.36814 
L 415.476384 224.268891 
L 415.759777 224.168807 
L 416.043169 225.970309 
L 416.609954 225.069558 
L 416.893347 226.370642 
L 417.176739 225.369808 
L 417.460132 224.969475 
L 417.743525 223.568307 
L 418.31031 226.871059 
L 418.593702 225.770142 
L 418.877095 224.168807 
L 419.160488 225.770142 
L 419.44388 225.970309 
L 419.727273 224.969475 
L 420.010665 225.269725 
L 420.294058 223.868557 
L 420.860843 222.467389 
L 421.144236 222.467389 
L 421.711021 221.066222 
L 421.994413 221.466555 
L 422.277806 220.765972 
L 422.561199 221.766806 
L 422.844591 223.868557 
L 423.127984 224.368974 
L 423.411376 223.868557 
L 423.694769 224.068724 
L 424.261554 222.76764 
L 424.544947 221.166305 
L 424.828339 222.567473 
L 425.111732 224.769308 
L 425.678517 223.568307 
L 425.96191 223.968641 
L 426.245302 225.069558 
L 426.528695 223.768474 
L 426.812087 223.268057 
L 427.378873 220.866055 
L 427.662265 220.765972 
L 428.22905 219.965304 
L 428.512443 220.265555 
L 428.795835 219.865221 
L 429.079228 219.264721 
L 429.646013 220.966138 
L 429.929406 220.866055 
L 430.496191 222.367306 
L 430.779584 222.667556 
L 431.062976 221.866889 
L 431.346369 218.564137 
L 431.629761 217.663386 
L 431.913154 217.863553 
L 432.196546 218.36397 
L 432.479939 218.564137 
L 433.046724 220.365638 
L 433.330117 220.765972 
L 433.613509 220.966138 
L 433.896902 220.065388 
L 434.180295 218.66422 
L 434.463687 218.564137 
L 434.74708 217.863553 
L 435.313865 217.363136 
L 435.597257 216.962802 
L 435.88065 217.162969 
L 436.447435 219.564971 
L 436.730828 219.164637 
L 437.297613 219.665054 
L 437.581006 219.464887 
L 438.147791 216.862719 
L 438.431183 216.562469 
L 438.714576 215.761802 
L 438.997969 215.661718 
L 439.281361 215.761802 
L 439.848146 217.963636 
L 440.131539 220.765972 
L 440.698324 218.464053 
L 441.265109 216.862719 
L 441.548502 216.762636 
L 441.831894 216.962802 
L 442.115287 217.363136 
L 442.39868 216.462385 
L 442.682072 216.562469 
L 442.965465 217.162969 
L 443.248857 218.764304 
L 443.53225 219.464887 
L 443.815642 219.665054 
L 444.382428 220.665888 
L 444.66582 220.565805 
L 444.949213 220.265555 
L 445.515998 220.765972 
L 445.799391 221.566639 
L 446.082783 221.866889 
L 446.932961 225.369808 
L 447.499746 225.069558 
L 447.783139 224.268891 
L 448.066531 223.868557 
L 448.349924 224.168807 
L 448.633316 223.768474 
L 449.200102 219.064554 
L 449.483494 218.864387 
L 450.050279 216.262219 
L 450.333672 216.362302 
L 450.900457 213.459883 
L 451.18385 213.159633 
L 452.034027 211.758465 
L 452.31742 211.758465 
L 452.600813 211.958632 
L 453.167598 213.860217 
L 453.45099 215.361468 
L 453.734383 215.861885 
L 454.017776 215.861885 
L 454.301168 214.360634 
L 454.584561 213.860217 
L 454.867953 213.9603 
L 455.718131 213.66005 
L 456.284916 213.760133 
L 456.568309 214.760967 
L 456.851701 216.262219 
L 457.418487 216.962802 
L 457.985272 218.764304 
L 458.552057 218.06372 
L 459.118842 218.163803 
L 459.402235 217.863553 
L 459.685627 218.263887 
L 459.96902 219.464887 
L 460.535805 220.665888 
L 460.819198 219.965304 
L 461.10259 218.764304 
L 461.669375 217.563303 
L 462.519553 216.962802 
L 462.802946 216.062052 
L 463.086338 216.762636 
L 463.369731 216.962802 
L 463.936516 216.962802 
L 464.219909 217.463219 
L 464.503301 217.563303 
L 464.786694 217.463219 
L 465.070086 216.962802 
L 465.353479 217.162969 
L 465.636872 217.663386 
L 465.920264 221.466555 
L 466.203657 220.966138 
L 466.487049 219.464887 
L 466.770442 218.96447 
L 467.053834 219.064554 
L 467.337227 218.96447 
L 467.904012 216.162135 
L 468.187405 214.961134 
L 468.470797 216.762636 
L 468.75419 217.263053 
L 469.037583 215.861885 
L 469.88776 214.560801 
L 470.171153 214.660884 
L 470.454545 215.661718 
L 470.737938 215.661718 
L 471.021331 215.361468 
L 471.304723 215.461551 
L 471.588116 215.261384 
L 471.871508 215.461551 
L 472.154901 214.26055 
L 472.438294 215.661718 
L 472.721686 216.162135 
L 473.005079 217.263053 
L 473.288471 217.463219 
L 473.571864 217.963636 
L 473.855256 217.062886 
L 474.138649 215.661718 
L 474.422042 214.861051 
L 474.705434 213.559967 
L 474.988827 213.259716 
L 475.272219 215.661718 
L 475.555612 215.161301 
L 476.122397 212.859383 
L 476.689182 212.358966 
L 476.972575 213.259716 
L 477.255967 213.159633 
L 477.822753 213.860217 
L 478.106145 213.760133 
L 478.389538 214.360634 
L 478.956323 213.760133 
L 479.239716 215.061218 
L 479.523108 217.963636 
L 479.806501 217.76347 
L 480.373286 216.562469 
L 480.656679 216.762636 
L 481.506856 212.559133 
L 481.790249 212.959466 
L 482.073641 214.460717 
L 482.357034 214.360634 
L 482.640427 212.959466 
L 483.207212 211.558299 
L 484.624175 212.659216 
L 484.907567 212.358966 
L 485.19096 212.959466 
L 485.757745 211.858549 
L 486.32453 216.362302 
L 486.607923 216.362302 
L 486.891315 215.161301 
L 487.174708 214.560801 
L 487.458101 215.261384 
L 488.308278 212.659216 
L 488.591671 212.759299 
L 488.875063 215.661718 
L 489.158456 215.361468 
L 489.441849 214.160467 
L 489.725241 213.66005 
L 490.008634 213.459883 
L 490.292026 212.959466 
L 490.575419 213.159633 
L 490.858812 215.161301 
L 491.425597 215.061218 
L 491.708989 215.861885 
L 491.992382 216.262219 
L 492.275775 215.661718 
L 492.559167 216.162135 
L 492.84256 216.262219 
L 493.125952 219.464887 
L 493.409345 220.665888 
L 493.692737 218.36397 
L 493.97613 218.764304 
L 494.826308 218.66422 
L 495.1097 218.06372 
L 495.393093 217.76347 
L 495.676486 218.66422 
L 495.959878 220.565805 
L 496.243271 218.96447 
L 496.526663 216.262219 
L 496.810056 217.76347 
L 497.093448 218.564137 
L 497.376841 218.464053 
L 497.660234 219.665054 
L 497.943626 218.66422 
L 498.227019 219.765138 
L 498.510411 219.364804 
L 498.793804 220.165471 
L 499.077197 219.865221 
L 499.360589 220.165471 
L 499.643982 219.965304 
L 499.927374 220.465721 
L 500.210767 220.465721 
L 500.494159 218.96447 
L 500.777552 218.864387 
L 501.060945 218.96447 
L 501.62773 217.863553 
L 502.194515 212.158799 
L 502.477908 207.955296 
L 502.7613 205.653378 
L 503.328085 203.551626 
L 503.611478 202.851043 
L 503.89487 202.750959 
L 504.178263 202.250542 
L 504.461656 202.050375 
L 504.745048 202.050375 
L 505.028441 201.650042 
L 505.311833 201.049541 
L 505.595226 201.149625 
L 505.878619 201.049541 
L 506.162011 200.549124 
L 506.445404 201.049541 
L 506.728796 203.65171 
L 507.012189 205.152961 
L 507.295582 204.952794 
L 507.578974 204.052043 
L 507.862367 204.152127 
L 508.429152 202.450709 
L 508.995937 203.65171 
L 509.27933 203.551626 
L 509.562722 203.751793 
L 509.846115 203.35146 
L 510.129507 202.550792 
L 510.4129 202.450709 
L 510.696293 203.35146 
L 511.263078 203.65171 
L 511.54647 203.151293 
L 511.829863 203.551626 
L 512.113255 203.35146 
L 512.396648 203.35146 
L 512.680041 204.452377 
L 512.963433 204.452377 
L 513.246826 205.152961 
L 513.813611 207.454879 
L 514.380396 208.155463 
L 514.663789 208.856047 
L 514.947181 208.555796 
L 515.230574 209.956964 
L 515.513966 209.25638 
L 515.797359 209.156297 
L 516.080752 209.976981 
L 524.582529 221.266389 
L 524.865922 221.266389 
L 525.149314 221.666722 
L 525.432707 222.367306 
L 525.7161 222.76764 
L 525.999492 221.666722 
L 526.282885 221.766806 
L 526.566277 222.367306 
L 526.84967 222.167139 
L 527.133062 225.069558 
L 527.416455 224.969475 
L 527.699848 224.068724 
L 527.98324 224.168807 
L 528.266633 226.170475 
L 528.550025 226.470726 
L 528.833418 225.970309 
L 529.116811 225.770142 
L 529.400203 225.970309 
L 529.683596 226.770976 
L 529.966988 228.972811 
L 530.250381 229.072894 
L 530.533773 229.673394 
L 531.100559 232.075396 
L 531.383951 232.375646 
L 531.667344 233.176314 
L 531.950736 233.37648 
L 532.517522 234.277231 
L 532.800914 233.676731 
L 533.084307 233.37648 
L 533.367699 233.576647 
L 533.651092 233.476564 
L 534.217877 234.077064 
L 534.784662 236.278899 
L 535.068055 237.78015 
L 535.351447 237.980317 
L 535.63484 238.981151 
L 536.201625 237.680067 
L 536.485018 237.4799 
L 536.76841 237.579983 
L 537.051803 237.980317 
L 537.335196 237.579983 
L 538.185373 239.681735 
L 538.468766 241.182986 
L 539.318944 243.08457 
L 539.602336 242.48407 
L 540.452514 242.383987 
L 541.019299 243.985321 
L 541.302692 243.584987 
L 541.586084 244.085405 
L 541.869477 246.58749 
L 542.152869 247.18799 
L 542.436262 248.288907 
L 543.003047 245.786822 
L 543.28644 245.986989 
L 543.569832 246.487406 
L 543.853225 245.986989 
L 544.136618 246.087073 
L 544.42001 247.18799 
L 544.986795 247.78849 
L 545.270188 249.189658 
L 545.55358 249.189658 
L 546.120366 250.991159 
L 546.403758 249.189658 
L 546.687151 249.289741 
L 546.970543 248.989491 
L 547.253936 248.188824 
L 547.537329 248.188824 
L 547.820721 250.090409 
L 548.104114 253.092911 
L 548.387506 254.293912 
L 548.670899 256.29558 
L 549.237684 255.795163 
L 549.521077 255.895246 
L 549.804469 256.395663 
L 550.087862 255.494912 
L 550.371254 254.093745 
L 550.654647 254.494078 
L 550.93804 254.694245 
L 551.788217 254.594162 
L 552.355003 255.394829 
L 552.638395 257.296414 
L 553.488573 259.197998 
L 553.771965 257.796831 
L 554.055358 257.896914 
L 554.338751 257.796831 
L 554.622143 258.397331 
L 554.905536 258.397331 
L 555.472321 259.097915 
L 555.755714 260.198832 
L 556.039106 262.901084 
L 556.605891 263.401501 
L 557.172676 262.000334 
L 557.739462 262.2005 
L 558.022854 261.29975 
L 558.306247 261.499917 
L 558.589639 261.199666 
L 558.873032 262.600834 
L 559.156425 263.201334 
L 559.439817 264.302252 
L 559.72321 263.901918 
L 560.006602 263.801835 
L 560.289995 264.402335 
L 560.573388 261.199666 
L 560.85678 261.099583 
L 561.140173 259.398165 
L 561.423565 256.795997 
L 562.273743 245.486572 
L 562.557136 244.385655 
L 562.840528 246.287239 
L 563.123921 246.58749 
L 563.407313 245.986989 
L 563.690706 244.986155 
L 563.974099 242.684237 
L 564.257491 241.88357 
L 564.540884 241.683403 
L 564.824276 241.783486 
L 565.107669 241.082902 
L 565.391061 241.583319 
L 565.674454 242.984487 
L 565.957847 243.284737 
L 566.241239 243.384821 
L 566.524632 241.182986 
L 566.808024 240.782652 
L 567.091417 240.682569 
L 567.37481 240.882736 
L 567.658202 241.483236 
L 568.224987 247.688407 
L 568.50838 247.588324 
L 568.791772 245.986989 
L 569.075165 246.787656 
L 569.358558 246.287239 
L 569.64195 246.88774 
L 569.925343 245.286405 
L 570.208735 244.886072 
L 570.492128 244.085405 
L 570.775521 243.985321 
L 571.625698 242.083736 
L 571.909091 242.48407 
L 572.192483 243.384821 
L 572.475876 244.785988 
L 572.759269 245.586656 
L 573.042661 245.986989 
L 573.609446 243.985321 
L 574.176232 244.085405 
L 574.459624 244.085405 
L 574.743017 245.386489 
L 575.309802 244.886072 
L 576.443372 249.990325 
L 576.726765 248.989491 
L 577.010157 248.689241 
L 577.29355 248.789324 
L 577.576943 248.689241 
L 578.143728 252.292244 
L 578.710513 252.992827 
L 578.993906 253.493244 
L 579.277298 254.293912 
L 579.560691 254.494078 
L 579.844083 255.695079 
L 580.410868 252.892744 
L 581.261046 253.393161 
L 581.544439 253.192994 
L 581.827831 253.493244 
L 582.111224 254.193828 
L 582.394617 255.695079 
L 582.678009 258.197164 
L 582.961402 259.197998 
L 583.244794 258.897748 
L 583.528187 257.296414 
L 583.811579 256.795997 
L 584.378365 257.296414 
L 584.661757 256.89608 
L 584.94515 255.995329 
L 585.228542 255.995329 
L 586.07872 260.899416 
L 586.362113 260.799333 
L 586.645505 261.099583 
L 586.928898 258.797665 
L 587.212291 257.696747 
L 587.779076 259.298082 
L 588.062468 259.097915 
L 588.345861 261.399833 
L 588.629253 266.404003 
L 588.912646 267.004504 
L 589.196039 265.603336 
L 590.046216 265.102919 
L 590.613002 262.600834 
L 590.896394 262.2005 
L 591.179787 262.2005 
L 591.463179 263.401501 
L 591.746572 262.000334 
L 592.029964 261.700083 
L 592.313357 261.90025 
L 593.163535 266.404003 
L 593.446927 266.504087 
L 593.73032 265.803503 
L 594.013713 264.202168 
L 594.297105 263.501585 
L 594.580498 264.402335 
L 594.86389 264.102085 
L 595.714068 265.102919 
L 596.280853 267.905254 
L 596.564246 268.005338 
L 596.847638 267.404837 
L 597.414424 264.002002 
L 598.547994 260.298916 
L 598.831386 259.898582 
L 599.114779 259.698415 
L 599.398172 260.398999 
L 599.681564 262.300584 
L 600.248349 262.901084 
L 600.815135 260.398999 
L 601.098527 260.198832 
L 601.38192 260.398999 
L 601.665312 260.198832 
L 602.232098 260.298916 
L 602.51549 259.998666 
L 602.798883 262.100417 
L 603.365668 263.001168 
L 603.64906 263.301418 
L 604.215846 259.898582 
L 605.066023 259.298082 
L 605.349416 259.598332 
L 605.632809 259.598332 
L 605.916201 259.998666 
L 606.199594 261.099583 
L 606.482986 262.700917 
L 607.049771 264.002002 
L 607.333164 263.101251 
L 607.616557 261.499917 
L 607.899949 261.90025 
L 608.466734 261.499917 
L 608.750127 262.300584 
L 609.316912 262.000334 
L 609.883697 267.605004 
L 610.16709 267.504921 
L 610.450482 266.804337 
L 610.733875 265.70342 
L 611.017268 265.203003 
L 611.30066 264.402335 
L 611.584053 264.802669 
L 611.867445 265.403169 
L 612.717623 265.70342 
L 613.001016 266.804337 
L 613.284408 268.806005 
L 613.851193 269.806839 
L 614.417979 266.704254 
L 614.701371 266.804337 
L 615.551549 268.305588 
L 616.118334 268.605838 
L 616.685119 273.509925 
L 616.968512 273.509925 
L 617.251905 272.809341 
L 617.535297 270.70759 
L 617.81869 269.806839 
L 618.385475 273.509925 
L 618.668867 272.709258 
L 618.95226 272.308924 
L 619.235653 272.409008 
L 619.519045 272.208841 
L 619.802438 273.910259 
L 620.08583 274.710926 
L 620.369223 275.011176 
L 620.652616 275.811843 
L 621.219401 273.610008 
L 621.502793 273.509925 
L 621.786186 274.210509 
L 622.069578 274.210509 
L 622.352971 274.410676 
L 622.636364 276.872727 
L 622.636364 276.872727 
" clip-path="url(#p1ad77dd23c)" style="fill: none; stroke: #1f77b4; stroke-width: 1.5; stroke-linecap: square"/>
   </g>
   <g id="line2d_15">
    <path d="M 115.363636 257.491865 
L 115.930422 257.732502 
L 116.213814 260.599166 
L 121.598273 262.775668 
L 122.165058 262.87056 
L 122.731844 263.079493 
L 123.015236 263.601668 
L 128.116303 265.678039 
L 128.399695 265.860419 
L 128.683088 265.533809 
L 129.249873 263.874471 
L 129.533266 261.811834 
L 129.816658 247.78849 
L 130.383443 247.861137 
L 132.083799 248.559645 
L 136.334688 250.419161 
L 136.61808 191.841868 
L 143.13611 195.224547 
L 143.419502 185.236364 
L 149.370747 188.428082 
L 149.654139 188.455345 
L 149.937532 188.355651 
L 150.220924 185.43653 
L 150.787709 185.352213 
L 151.071102 184.470798 
L 151.637887 181.10026 
L 151.92128 180.301687 
L 152.204672 179.903648 
L 153.621635 178.953293 
L 154.188421 179.036079 
L 155.038598 179.2924 
L 155.605383 178.916619 
L 156.172169 179.068122 
L 156.738954 179.358287 
L 157.022346 167.721768 
L 162.690198 171.041114 
L 163.540376 171.536459 
L 163.823768 187.037865 
L 167.791265 189.225015 
L 168.074657 189.225026 
L 169.208228 186.523241 
L 169.775013 185.997276 
L 170.341798 186.064346 
L 170.62519 194.043703 
L 172.042153 194.729141 
L 177.14322 197.40605 
L 177.426612 213.259716 
L 183.944642 216.327202 
L 184.228035 230.774312 
L 190.746064 233.439714 
L 191.029457 235.778482 
L 197.547486 238.351673 
L 197.830879 251.091243 
L 204.348908 253.382344 
L 204.632301 256.395663 
L 204.915693 255.736866 
L 205.482478 255.242652 
L 206.049264 255.23582 
L 207.749619 255.4875 
L 208.883189 255.768741 
L 209.166582 255.850842 
L 210.01676 255.75408 
L 211.15033 256.072183 
L 211.717115 256.217046 
L 212.2839 256.306641 
L 215.968004 257.306602 
L 216.534789 256.595755 
L 217.101574 256.512216 
L 217.951752 256.704056 
L 218.518537 256.82088 
L 219.085322 256.715733 
L 220.218893 257.000134 
L 231.271204 260.765836 
L 238.356018 263.122978 
L 238.639411 78.847706 
L 245.15744 84.453474 
L 245.440833 95.661718 
L 250.258507 99.524968 
L 250.825292 99.476687 
L 251.108685 98.520912 
L 251.392077 97.065276 
L 251.67547 96.504735 
L 251.958862 96.309953 
L 252.242255 102.567473 
L 252.80904 102.690008 
L 253.94261 103.469818 
L 258.760284 107.2676 
L 259.043677 116.278899 
L 270.37938 124.739174 
L 281.715084 132.923537 
L 287.382936 136.915074 
L 287.666328 166.720934 
L 292.767395 169.815762 
L 293.050787 174.727606 
L 299.002031 178.123738 
L 299.568817 178.221662 
L 300.98578 178.955748 
L 304.103098 180.794719 
L 304.669883 179.987755 
L 305.236668 179.046118 
L 305.803454 178.972306 
L 306.653631 179.31615 
L 310.054342 181.232639 
L 322.523616 188.197285 
L 335.276282 195.062299 
L 339.810564 197.442136 
L 343.211275 221.746789 
L 343.494667 221.466597 
L 344.061453 221.389984 
L 345.761808 221.689909 
L 347.462164 222.394251 
L 350.579482 223.78415 
L 350.862875 225.349791 
L 356.247334 227.699073 
L 356.530726 236.398999 
L 363.048756 239.029514 
L 363.332148 235.438198 
L 369.850178 238.395239 
L 370.13357 234.597498 
L 376.6516 237.560419 
L 376.934992 233.996997 
L 379.768918 235.045153 
L 380.335703 234.767754 
L 380.902489 234.846662 
L 383.169629 235.724338 
L 383.453022 235.837246 
L 383.736414 233.396497 
L 390.254444 236.01357 
L 390.537836 238.0804 
L 397.055866 241.594923 
L 397.339259 250.931109 
L 403.857288 254.274627 
L 404.140681 242.884404 
L 411.79228 245.992246 
L 412.075673 225.229691 
L 417.743525 227.848539 
L 418.026917 225.469892 
L 431.062976 231.415116 
L 431.346369 222.58749 
L 434.180295 223.853236 
L 434.74708 223.907677 
L 435.313865 223.822051 
L 436.164043 224.03697 
L 437.864398 224.756027 
L 438.147791 219.464887 
L 438.714576 219.706051 
L 440.414931 219.856448 
L 441.548502 220.249766 
L 444.949213 221.723325 
L 445.515998 221.662724 
L 446.082783 221.805877 
L 446.366176 220.785988 
L 447.499746 221.199103 
L 447.783139 225.229691 
L 450.050279 226.213274 
L 451.467242 226.795022 
L 451.750635 213.099583 
L 452.884205 213.543279 
L 457.135094 215.631616 
L 465.070086 219.519838 
L 465.353479 217.423186 
L 471.871508 220.588126 
L 472.154901 215.261384 
L 478.67293 218.469871 
L 478.956323 214.420684 
L 485.474352 217.646105 
L 485.757745 213.099583 
L 492.275775 216.351616 
L 492.559167 216.102085 
L 499.077197 219.293695 
L 499.360589 220.065388 
L 499.927374 220.293831 
L 500.777552 219.81632 
L 501.911122 218.032113 
L 503.044693 214.94729 
L 503.89487 213.652163 
L 504.461656 213.391222 
L 505.028441 213.337304 
L 505.878619 213.491384 
L 506.162011 201.089575 
L 507.295582 201.557419 
L 510.4129 203.132269 
L 510.979685 203.074231 
L 511.263078 203.179334 
L 511.54647 202.994793 
L 512.113255 201.871605 
L 512.680041 201.575182 
L 512.963433 203.251376 
L 516.080752 204.443016 
L 533.084307 213.143278 
L 533.367699 233.756797 
L 536.201625 234.941958 
L 539.602336 236.019233 
L 539.885729 236.138225 
L 540.169121 242.524103 
L 542.719655 243.508849 
L 546.687151 245.150913 
L 546.970543 249.129608 
L 552.921788 251.444317 
L 553.488573 251.579745 
L 553.771965 258.737615 
L 556.889284 260.317837 
L 557.172676 260.068394 
L 557.456069 259.408646 
L 557.739462 259.106146 
L 558.306247 259.005703 
L 558.589639 258.493674 
L 558.873032 257.10257 
L 559.439817 253.799115 
L 559.72321 253.669825 
L 560.289995 253.183351 
L 560.573388 263.541618 
L 561.140173 262.319116 
L 561.99035 260.016804 
L 563.690706 252.368728 
L 564.257491 251.572615 
L 564.824276 251.051524 
L 565.674454 250.631395 
L 566.524632 250.516769 
L 567.091417 250.556153 
L 567.37481 240.722602 
L 573.892839 243.465169 
L 574.176232 243.965304 
L 580.694261 247.402251 
L 580.977654 252.972811 
L 587.495683 256.282585 
L 587.779076 257.656714 
L 594.297105 260.887016 
L 594.580498 264.022018 
L 594.86389 263.997988 
L 595.430675 263.547001 
L 596.564246 261.94627 
L 596.847638 261.83057 
L 597.414424 261.859583 
L 597.697816 261.673708 
L 597.981209 261.152798 
L 598.547994 258.296063 
L 598.831386 257.794434 
L 599.398172 257.465373 
L 600.248349 257.278826 
L 601.098527 257.312414 
L 601.38192 260.419016 
L 602.798883 260.819823 
L 603.365668 260.953334 
L 604.499238 260.453301 
L 605.349416 259.759555 
L 605.916201 259.481087 
L 606.766379 259.520493 
L 607.899949 259.829192 
L 608.183342 261.499917 
L 611.30066 262.55072 
L 614.701371 263.757627 
L 614.984764 266.78432 
L 621.502793 269.832259 
L 621.786186 273.630025 
L 622.636364 274.01588 
L 622.636364 274.01588 
" clip-path="url(#p1ad77dd23c)" style="fill: none; stroke: #ff7f0e; stroke-width: 1.5; stroke-linecap: square"/>
   </g>
   <g id="patch_3">
    <path d="M 90 288 
L 90 43.2 
" style="fill: none; stroke: #000000; stroke-width: 0.8; stroke-linejoin: miter; stroke-linecap: square"/>
   </g>
   <g id="patch_4">
    <path d="M 648 288 
L 648 43.2 
" style="fill: none; stroke: #000000; stroke-width: 0.8; stroke-linejoin: miter; stroke-linecap: square"/>
   </g>
   <g id="patch_5">
    <path d="M 90 288 
L 648 288 
" style="fill: none; stroke: #000000; stroke-width: 0.8; stroke-linejoin: miter; stroke-linecap: square"/>
   </g>
   <g id="patch_6">
    <path d="M 90 43.2 
L 648 43.2 
" style="fill: none; stroke: #000000; stroke-width: 0.8; stroke-linejoin: miter; stroke-linecap: square"/>
   </g>
   <g id="text_15">
    <!-- ARB034 -->
    <g transform="translate(345.1575 37.2) scale(0.12 -0.12)">
     <defs>
      <path id="DejaVuSans-41" d="M 2188 4044 
L 1331 1722 
L 3047 1722 
L 2188 4044 
z
M 1831 4666 
L 2547 4666 
L 4325 0 
L 3669 0 
L 3244 1197 
L 1141 1197 
L 716 0 
L 50 0 
L 1831 4666 
z
" transform="scale(0.015625)"/>
      <path id="DejaVuSans-52" d="M 2841 2188 
Q 3044 2119 3236 1894 
Q 3428 1669 3622 1275 
L 4263 0 
L 3584 0 
L 2988 1197 
Q 2756 1666 2539 1819 
Q 2322 1972 1947 1972 
L 1259 1972 
L 1259 0 
L 628 0 
L 628 4666 
L 2053 4666 
Q 2853 4666 3247 4331 
Q 3641 3997 3641 3322 
Q 3641 2881 3436 2590 
Q 3231 2300 2841 2188 
z
M 1259 4147 
L 1259 2491 
L 2053 2491 
Q 2509 2491 2742 2702 
Q 2975 2913 2975 3322 
Q 2975 3731 2742 3939 
Q 2509 4147 2053 4147 
L 1259 4147 
z
" transform="scale(0.015625)"/>
      <path id="DejaVuSans-42" d="M 1259 2228 
L 1259 519 
L 2272 519 
Q 2781 519 3026 730 
Q 3272 941 3272 1375 
Q 3272 1813 3026 2020 
Q 2781 2228 2272 2228 
L 1259 2228 
z
M 1259 4147 
L 1259 2741 
L 2194 2741 
Q 2656 2741 2882 2914 
Q 3109 3088 3109 3444 
Q 3109 3797 2882 3972 
Q 2656 4147 2194 4147 
L 1259 4147 
z
M 628 4666 
L 2241 4666 
Q 2963 4666 3353 4366 
Q 3744 4066 3744 3513 
Q 3744 3084 3544 2831 
Q 3344 2578 2956 2516 
Q 3422 2416 3680 2098 
Q 3938 1781 3938 1306 
Q 3938 681 3513 340 
Q 3088 0 2303 0 
L 628 0 
L 628 4666 
z
" transform="scale(0.015625)"/>
      <path id="DejaVuSans-34" d="M 2419 4116 
L 825 1625 
L 2419 1625 
L 2419 4116 
z
M 2253 4666 
L 3047 4666 
L 3047 1625 
L 3713 1625 
L 3713 1100 
L 3047 1100 
L 3047 0 
L 2419 0 
L 2419 1100 
L 313 1100 
L 313 1709 
L 2253 4666 
z
" transform="scale(0.015625)"/>
     </defs>
     <use xlink:href="#DejaVuSans-41"/>
     <use xlink:href="#DejaVuSans-52" x="68.408203"/>
     <use xlink:href="#DejaVuSans-42" x="137.890625"/>
     <use xlink:href="#DejaVuSans-30" x="206.494141"/>
     <use xlink:href="#DejaVuSans-33" x="270.117188"/>
     <use xlink:href="#DejaVuSans-34" x="333.740234"/>
    </g>
   </g>
   <g id="legend_1">
    <g id="patch_7">
     <path d="M 559.04375 80.55625 
L 641 80.55625 
Q 643 80.55625 643 78.55625 
L 643 50.2 
Q 643 48.2 641 48.2 
L 559.04375 48.2 
Q 557.04375 48.2 557.04375 50.2 
L 557.04375 78.55625 
Q 557.04375 80.55625 559.04375 80.55625 
z
" style="fill: #ffffff; opacity: 0.8; stroke: #cccccc; stroke-linejoin: miter"/>
    </g>
    <g id="line2d_16">
     <path d="M 561.04375 56.298437 
L 571.04375 56.298437 
L 581.04375 56.298437 
" style="fill: none; stroke: #1f77b4; stroke-width: 1.5; stroke-linecap: square"/>
    </g>
    <g id="text_16">
     <!-- measured -->
     <g transform="translate(589.04375 59.798437) scale(0.1 -0.1)">
      <defs>
       <path id="DejaVuSans-6d" d="M 3328 2828 
Q 3544 3216 3844 3400 
Q 4144 3584 4550 3584 
Q 5097 3584 5394 3201 
Q 5691 2819 5691 2113 
L 5691 0 
L 5113 0 
L 5113 2094 
Q 5113 2597 4934 2840 
Q 4756 3084 4391 3084 
Q 3944 3084 3684 2787 
Q 3425 2491 3425 1978 
L 3425 0 
L 2847 0 
L 2847 2094 
Q 2847 2600 2669 2842 
Q 2491 3084 2119 3084 
Q 1678 3084 1418 2786 
Q 1159 2488 1159 1978 
L 1159 0 
L 581 0 
L 581 3500 
L 1159 3500 
L 1159 2956 
Q 1356 3278 1631 3431 
Q 1906 3584 2284 3584 
Q 2666 3584 2933 3390 
Q 3200 3197 3328 2828 
z
" transform="scale(0.015625)"/>
       <path id="DejaVuSans-61" d="M 2194 1759 
Q 1497 1759 1228 1600 
Q 959 1441 959 1056 
Q 959 750 1161 570 
Q 1363 391 1709 391 
Q 2188 391 2477 730 
Q 2766 1069 2766 1631 
L 2766 1759 
L 2194 1759 
z
M 3341 1997 
L 3341 0 
L 2766 0 
L 2766 531 
Q 2569 213 2275 61 
Q 1981 -91 1556 -91 
Q 1019 -91 701 211 
Q 384 513 384 1019 
Q 384 1609 779 1909 
Q 1175 2209 1959 2209 
L 2766 2209 
L 2766 2266 
Q 2766 2663 2505 2880 
Q 2244 3097 1772 3097 
Q 1472 3097 1187 3025 
Q 903 2953 641 2809 
L 641 3341 
Q 956 3463 1253 3523 
Q 1550 3584 1831 3584 
Q 2591 3584 2966 3190 
Q 3341 2797 3341 1997 
z
" transform="scale(0.015625)"/>
       <path id="DejaVuSans-75" d="M 544 1381 
L 544 3500 
L 1119 3500 
L 1119 1403 
Q 1119 906 1312 657 
Q 1506 409 1894 409 
Q 2359 409 2629 706 
Q 2900 1003 2900 1516 
L 2900 3500 
L 3475 3500 
L 3475 0 
L 2900 0 
L 2900 538 
Q 2691 219 2414 64 
Q 2138 -91 1772 -91 
Q 1169 -91 856 284 
Q 544 659 544 1381 
z
M 1991 3584 
L 1991 3584 
z
" transform="scale(0.015625)"/>
       <path id="DejaVuSans-64" d="M 2906 2969 
L 2906 4863 
L 3481 4863 
L 3481 0 
L 2906 0 
L 2906 525 
Q 2725 213 2448 61 
Q 2172 -91 1784 -91 
Q 1150 -91 751 415 
Q 353 922 353 1747 
Q 353 2572 751 3078 
Q 1150 3584 1784 3584 
Q 2172 3584 2448 3432 
Q 2725 3281 2906 2969 
z
M 947 1747 
Q 947 1113 1208 752 
Q 1469 391 1925 391 
Q 2381 391 2643 752 
Q 2906 1113 2906 1747 
Q 2906 2381 2643 2742 
Q 2381 3103 1925 3103 
Q 1469 3103 1208 2742 
Q 947 2381 947 1747 
z
" transform="scale(0.015625)"/>
      </defs>
      <use xlink:href="#DejaVuSans-6d"/>
      <use xlink:href="#DejaVuSans-65" x="97.412109"/>
      <use xlink:href="#DejaVuSans-61" x="158.935547"/>
      <use xlink:href="#DejaVuSans-73" x="220.214844"/>
      <use xlink:href="#DejaVuSans-75" x="272.314453"/>
      <use xlink:href="#DejaVuSans-72" x="335.693359"/>
      <use xlink:href="#DejaVuSans-65" x="374.556641"/>
      <use xlink:href="#DejaVuSans-64" x="436.080078"/>
     </g>
    </g>
    <g id="line2d_17">
     <path d="M 561.04375 70.976562 
L 571.04375 70.976562 
L 581.04375 70.976562 
" style="fill: none; stroke: #ff7f0e; stroke-width: 1.5; stroke-linecap: square"/>
    </g>
    <g id="text_17">
     <!-- predicted -->
     <g transform="translate(589.04375 74.476562) scale(0.1 -0.1)">
      <defs>
       <path id="DejaVuSans-70" d="M 1159 525 
L 1159 -1331 
L 581 -1331 
L 581 3500 
L 1159 3500 
L 1159 2969 
Q 1341 3281 1617 3432 
Q 1894 3584 2278 3584 
Q 2916 3584 3314 3078 
Q 3713 2572 3713 1747 
Q 3713 922 3314 415 
Q 2916 -91 2278 -91 
Q 1894 -91 1617 61 
Q 1341 213 1159 525 
z
M 3116 1747 
Q 3116 2381 2855 2742 
Q 2594 3103 2138 3103 
Q 1681 3103 1420 2742 
Q 1159 2381 1159 1747 
Q 1159 1113 1420 752 
Q 1681 391 2138 391 
Q 2594 391 2855 752 
Q 3116 1113 3116 1747 
z
" transform="scale(0.015625)"/>
       <path id="DejaVuSans-69" d="M 603 3500 
L 1178 3500 
L 1178 0 
L 603 0 
L 603 3500 
z
M 603 4863 
L 1178 4863 
L 1178 4134 
L 603 4134 
L 603 4863 
z
" transform="scale(0.015625)"/>
       <path id="DejaVuSans-63" d="M 3122 3366 
L 3122 2828 
Q 2878 2963 2633 3030 
Q 2388 3097 2138 3097 
Q 1578 3097 1268 2742 
Q 959 2388 959 1747 
Q 959 1106 1268 751 
Q 1578 397 2138 397 
Q 2388 397 2633 464 
Q 2878 531 3122 666 
L 3122 134 
Q 2881 22 2623 -34 
Q 2366 -91 2075 -91 
Q 1284 -91 818 406 
Q 353 903 353 1747 
Q 353 2603 823 3093 
Q 1294 3584 2113 3584 
Q 2378 3584 2631 3529 
Q 2884 3475 3122 3366 
z
" transform="scale(0.015625)"/>
      </defs>
      <use xlink:href="#DejaVuSans-70"/>
      <use xlink:href="#DejaVuSans-72" x="63.476562"/>
      <use xlink:href="#DejaVuSans-65" x="102.339844"/>
      <use xlink:href="#DejaVuSans-64" x="163.863281"/>
      <use xlink:href="#DejaVuSans-69" x="227.339844"/>
      <use xlink:href="#DejaVuSans-63" x="255.123047"/>
      <use xlink:href="#DejaVuSans-74" x="310.103516"/>
      <use xlink:href="#DejaVuSans-65" x="349.3125"/>
      <use xlink:href="#DejaVuSans-64" x="410.835938"/>
     </g>
    </g>
   </g>
  </g>
 </g>
 <defs>
  <clipPath id="p1ad77dd23c">
   <rect x="90" y="43.2" width="558" height="244.8"/>
  </clipPath>
 </defs>
</svg>
