<?xml version="1.0" encoding="utf-8" standalone="no"?>
<!DOCTYPE svg PUBLIC "-//W3C//DTD SVG 1.1//EN"
  "http://www.w3.org/Graphics/SVG/1.1/DTD/svg11.dtd">
<svg xmlns:xlink="http://www.w3.org/1999/xlink" width="713.0225pt" height="351.43625pt" viewBox="0 0 713.0225 351.43625" xmlns="http://www.w3.org/2000/svg" version="1.1">
 <metadata>
  <rdf:RDF xmlns:dc="http://purl.org/dc/elements/1.1/" xmlns:cc="http://creativecommons.org/ns#" xmlns:rdf="http://www.w3.org/1999/02/22-rdf-syntax-ns#">
   <cc:Work>
    <dc:type rdf:resource="http://purl.org/dc/dcmitype/StillImage"/>
    <dc:date>2024-05-10T04:17:24.588471</dc:date>
    <dc:format>image/svg+xml</dc:format>
    <dc:creator>
     <cc:Agent>
      <dc:title>Matplotlib v3.8.4, https://matplotlib.org/</dc:title>
     </cc:Agent>
    </dc:creator>
   </cc:Work>
  </rdf:RDF>
 </metadata>
 <defs>
  <style type="text/css">*{stroke-linejoin: round; stroke-linecap: butt}</style>
 </defs>
 <g id="figure_1">
  <g id="patch_1">
   <path d="M 0 351.43625 
L 713.0225 351.43625 
L 713.0225 0 
L 0 0 
z
" style="fill: #ffffff"/>
  </g>
  <g id="axes_1">
   <g id="patch_2">
    <path d="M 46.0125 327.558125 
L 705.8225 327.558125 
L 705.8225 22.318125 
L 46.0125 22.318125 
z
" style="fill: #ffffff"/>
   </g>
   <g id="matplotlib.axis_1">
    <g id="xtick_1">
     <g id="line2d_1">
      <defs>
       <path id="mf6eaca6bfb" d="M 0 0 
L 0 3.5 
" style="stroke: #000000; stroke-width: 0.8"/>
      </defs>
      <g>
       <use xlink:href="#mf6eaca6bfb" x="106.145257" y="327.558125" style="stroke: #000000; stroke-width: 0.8"/>
      </g>
     </g>
     <g id="text_1">
      <!-- 2010 -->
      <g transform="translate(93.420257 342.156563) scale(0.1 -0.1)">
       <defs>
        <path id="DejaVuSans-32" d="M 1228 531 
L 3431 531 
L 3431 0 
L 469 0 
L 469 531 
Q 828 903 1448 1529 
Q 2069 2156 2228 2338 
Q 2531 2678 2651 2914 
Q 2772 3150 2772 3378 
Q 2772 3750 2511 3984 
Q 2250 4219 1831 4219 
Q 1534 4219 1204 4116 
Q 875 4013 500 3803 
L 500 4441 
Q 881 4594 1212 4672 
Q 1544 4750 1819 4750 
Q 2544 4750 2975 4387 
Q 3406 4025 3406 3419 
Q 3406 3131 3298 2873 
Q 3191 2616 2906 2266 
Q 2828 2175 2409 1742 
Q 1991 1309 1228 531 
z
" transform="scale(0.015625)"/>
        <path id="DejaVuSans-30" d="M 2034 4250 
Q 1547 4250 1301 3770 
Q 1056 3291 1056 2328 
Q 1056 1369 1301 889 
Q 1547 409 2034 409 
Q 2525 409 2770 889 
Q 3016 1369 3016 2328 
Q 3016 3291 2770 3770 
Q 2525 4250 2034 4250 
z
M 2034 4750 
Q 2819 4750 3233 4129 
Q 3647 3509 3647 2328 
Q 3647 1150 3233 529 
Q 2819 -91 2034 -91 
Q 1250 -91 836 529 
Q 422 1150 422 2328 
Q 422 3509 836 4129 
Q 1250 4750 2034 4750 
z
" transform="scale(0.015625)"/>
        <path id="DejaVuSans-31" d="M 794 531 
L 1825 531 
L 1825 4091 
L 703 3866 
L 703 4441 
L 1819 4666 
L 2450 4666 
L 2450 531 
L 3481 531 
L 3481 0 
L 794 0 
L 794 531 
z
" transform="scale(0.015625)"/>
       </defs>
       <use xlink:href="#DejaVuSans-32"/>
       <use xlink:href="#DejaVuSans-30" x="63.623047"/>
       <use xlink:href="#DejaVuSans-31" x="127.246094"/>
       <use xlink:href="#DejaVuSans-30" x="190.869141"/>
      </g>
     </g>
    </g>
    <g id="xtick_2">
     <g id="line2d_2">
      <g>
       <use xlink:href="#mf6eaca6bfb" x="219.199679" y="327.558125" style="stroke: #000000; stroke-width: 0.8"/>
      </g>
     </g>
     <g id="text_2">
      <!-- 2012 -->
      <g transform="translate(206.474679 342.156563) scale(0.1 -0.1)">
       <use xlink:href="#DejaVuSans-32"/>
       <use xlink:href="#DejaVuSans-30" x="63.623047"/>
       <use xlink:href="#DejaVuSans-31" x="127.246094"/>
       <use xlink:href="#DejaVuSans-32" x="190.869141"/>
      </g>
     </g>
    </g>
    <g id="xtick_3">
     <g id="line2d_3">
      <g>
       <use xlink:href="#mf6eaca6bfb" x="332.40897" y="327.558125" style="stroke: #000000; stroke-width: 0.8"/>
      </g>
     </g>
     <g id="text_3">
      <!-- 2014 -->
      <g transform="translate(319.68397 342.156563) scale(0.1 -0.1)">
       <defs>
        <path id="DejaVuSans-34" d="M 2419 4116 
L 825 1625 
L 2419 1625 
L 2419 4116 
z
M 2253 4666 
L 3047 4666 
L 3047 1625 
L 3713 1625 
L 3713 1100 
L 3047 1100 
L 3047 0 
L 2419 0 
L 2419 1100 
L 313 1100 
L 313 1709 
L 2253 4666 
z
" transform="scale(0.015625)"/>
       </defs>
       <use xlink:href="#DejaVuSans-32"/>
       <use xlink:href="#DejaVuSans-30" x="63.623047"/>
       <use xlink:href="#DejaVuSans-31" x="127.246094"/>
       <use xlink:href="#DejaVuSans-34" x="190.869141"/>
      </g>
     </g>
    </g>
    <g id="xtick_4">
     <g id="line2d_4">
      <g>
       <use xlink:href="#mf6eaca6bfb" x="445.463392" y="327.558125" style="stroke: #000000; stroke-width: 0.8"/>
      </g>
     </g>
     <g id="text_4">
      <!-- 2016 -->
      <g transform="translate(432.738392 342.156563) scale(0.1 -0.1)">
       <defs>
        <path id="DejaVuSans-36" d="M 2113 2584 
Q 1688 2584 1439 2293 
Q 1191 2003 1191 1497 
Q 1191 994 1439 701 
Q 1688 409 2113 409 
Q 2538 409 2786 701 
Q 3034 994 3034 1497 
Q 3034 2003 2786 2293 
Q 2538 2584 2113 2584 
z
M 3366 4563 
L 3366 3988 
Q 3128 4100 2886 4159 
Q 2644 4219 2406 4219 
Q 1781 4219 1451 3797 
Q 1122 3375 1075 2522 
Q 1259 2794 1537 2939 
Q 1816 3084 2150 3084 
Q 2853 3084 3261 2657 
Q 3669 2231 3669 1497 
Q 3669 778 3244 343 
Q 2819 -91 2113 -91 
Q 1303 -91 875 529 
Q 447 1150 447 2328 
Q 447 3434 972 4092 
Q 1497 4750 2381 4750 
Q 2619 4750 2861 4703 
Q 3103 4656 3366 4563 
z
" transform="scale(0.015625)"/>
       </defs>
       <use xlink:href="#DejaVuSans-32"/>
       <use xlink:href="#DejaVuSans-30" x="63.623047"/>
       <use xlink:href="#DejaVuSans-31" x="127.246094"/>
       <use xlink:href="#DejaVuSans-36" x="190.869141"/>
      </g>
     </g>
    </g>
    <g id="xtick_5">
     <g id="line2d_5">
      <g>
       <use xlink:href="#mf6eaca6bfb" x="558.672684" y="327.558125" style="stroke: #000000; stroke-width: 0.8"/>
      </g>
     </g>
     <g id="text_5">
      <!-- 2018 -->
      <g transform="translate(545.947684 342.156563) scale(0.1 -0.1)">
       <defs>
        <path id="DejaVuSans-38" d="M 2034 2216 
Q 1584 2216 1326 1975 
Q 1069 1734 1069 1313 
Q 1069 891 1326 650 
Q 1584 409 2034 409 
Q 2484 409 2743 651 
Q 3003 894 3003 1313 
Q 3003 1734 2745 1975 
Q 2488 2216 2034 2216 
z
M 1403 2484 
Q 997 2584 770 2862 
Q 544 3141 544 3541 
Q 544 4100 942 4425 
Q 1341 4750 2034 4750 
Q 2731 4750 3128 4425 
Q 3525 4100 3525 3541 
Q 3525 3141 3298 2862 
Q 3072 2584 2669 2484 
Q 3125 2378 3379 2068 
Q 3634 1759 3634 1313 
Q 3634 634 3220 271 
Q 2806 -91 2034 -91 
Q 1263 -91 848 271 
Q 434 634 434 1313 
Q 434 1759 690 2068 
Q 947 2378 1403 2484 
z
M 1172 3481 
Q 1172 3119 1398 2916 
Q 1625 2713 2034 2713 
Q 2441 2713 2670 2916 
Q 2900 3119 2900 3481 
Q 2900 3844 2670 4047 
Q 2441 4250 2034 4250 
Q 1625 4250 1398 4047 
Q 1172 3844 1172 3481 
z
" transform="scale(0.015625)"/>
       </defs>
       <use xlink:href="#DejaVuSans-32"/>
       <use xlink:href="#DejaVuSans-30" x="63.623047"/>
       <use xlink:href="#DejaVuSans-31" x="127.246094"/>
       <use xlink:href="#DejaVuSans-38" x="190.869141"/>
      </g>
     </g>
    </g>
    <g id="xtick_6">
     <g id="line2d_6">
      <g>
       <use xlink:href="#mf6eaca6bfb" x="671.727106" y="327.558125" style="stroke: #000000; stroke-width: 0.8"/>
      </g>
     </g>
     <g id="text_6">
      <!-- 2020 -->
      <g transform="translate(659.002106 342.156563) scale(0.1 -0.1)">
       <use xlink:href="#DejaVuSans-32"/>
       <use xlink:href="#DejaVuSans-30" x="63.623047"/>
       <use xlink:href="#DejaVuSans-32" x="127.246094"/>
       <use xlink:href="#DejaVuSans-30" x="190.869141"/>
      </g>
     </g>
    </g>
   </g>
   <g id="matplotlib.axis_2">
    <g id="ytick_1">
     <g id="line2d_7">
      <defs>
       <path id="m0b5a8e717a" d="M 0 0 
L -3.5 0 
" style="stroke: #000000; stroke-width: 0.8"/>
      </defs>
      <g>
       <use xlink:href="#m0b5a8e717a" x="46.0125" y="313.68358" style="stroke: #000000; stroke-width: 0.8"/>
      </g>
     </g>
     <g id="text_7">
      <!-- 0 -->
      <g transform="translate(32.65 317.482798) scale(0.1 -0.1)">
       <use xlink:href="#DejaVuSans-30"/>
      </g>
     </g>
    </g>
    <g id="ytick_2">
     <g id="line2d_8">
      <g>
       <use xlink:href="#m0b5a8e717a" x="46.0125" y="266.410852" style="stroke: #000000; stroke-width: 0.8"/>
      </g>
     </g>
     <g id="text_8">
      <!-- 5000 -->
      <g transform="translate(13.5625 270.210071) scale(0.1 -0.1)">
       <defs>
        <path id="DejaVuSans-35" d="M 691 4666 
L 3169 4666 
L 3169 4134 
L 1269 4134 
L 1269 2991 
Q 1406 3038 1543 3061 
Q 1681 3084 1819 3084 
Q 2600 3084 3056 2656 
Q 3513 2228 3513 1497 
Q 3513 744 3044 326 
Q 2575 -91 1722 -91 
Q 1428 -91 1123 -41 
Q 819 9 494 109 
L 494 744 
Q 775 591 1075 516 
Q 1375 441 1709 441 
Q 2250 441 2565 725 
Q 2881 1009 2881 1497 
Q 2881 1984 2565 2268 
Q 2250 2553 1709 2553 
Q 1456 2553 1204 2497 
Q 953 2441 691 2322 
L 691 4666 
z
" transform="scale(0.015625)"/>
       </defs>
       <use xlink:href="#DejaVuSans-35"/>
       <use xlink:href="#DejaVuSans-30" x="63.623047"/>
       <use xlink:href="#DejaVuSans-30" x="127.246094"/>
       <use xlink:href="#DejaVuSans-30" x="190.869141"/>
      </g>
     </g>
    </g>
    <g id="ytick_3">
     <g id="line2d_9">
      <g>
       <use xlink:href="#m0b5a8e717a" x="46.0125" y="219.138125" style="stroke: #000000; stroke-width: 0.8"/>
      </g>
     </g>
     <g id="text_9">
      <!-- 10000 -->
      <g transform="translate(7.2 222.937344) scale(0.1 -0.1)">
       <use xlink:href="#DejaVuSans-31"/>
       <use xlink:href="#DejaVuSans-30" x="63.623047"/>
       <use xlink:href="#DejaVuSans-30" x="127.246094"/>
       <use xlink:href="#DejaVuSans-30" x="190.869141"/>
       <use xlink:href="#DejaVuSans-30" x="254.492188"/>
      </g>
     </g>
    </g>
    <g id="ytick_4">
     <g id="line2d_10">
      <g>
       <use xlink:href="#m0b5a8e717a" x="46.0125" y="171.865398" style="stroke: #000000; stroke-width: 0.8"/>
      </g>
     </g>
     <g id="text_10">
      <!-- 15000 -->
      <g transform="translate(7.2 175.664616) scale(0.1 -0.1)">
       <use xlink:href="#DejaVuSans-31"/>
       <use xlink:href="#DejaVuSans-35" x="63.623047"/>
       <use xlink:href="#DejaVuSans-30" x="127.246094"/>
       <use xlink:href="#DejaVuSans-30" x="190.869141"/>
       <use xlink:href="#DejaVuSans-30" x="254.492188"/>
      </g>
     </g>
    </g>
    <g id="ytick_5">
     <g id="line2d_11">
      <g>
       <use xlink:href="#m0b5a8e717a" x="46.0125" y="124.59267" style="stroke: #000000; stroke-width: 0.8"/>
      </g>
     </g>
     <g id="text_11">
      <!-- 20000 -->
      <g transform="translate(7.2 128.391889) scale(0.1 -0.1)">
       <use xlink:href="#DejaVuSans-32"/>
       <use xlink:href="#DejaVuSans-30" x="63.623047"/>
       <use xlink:href="#DejaVuSans-30" x="127.246094"/>
       <use xlink:href="#DejaVuSans-30" x="190.869141"/>
       <use xlink:href="#DejaVuSans-30" x="254.492188"/>
      </g>
     </g>
    </g>
    <g id="ytick_6">
     <g id="line2d_12">
      <g>
       <use xlink:href="#m0b5a8e717a" x="46.0125" y="77.319943" style="stroke: #000000; stroke-width: 0.8"/>
      </g>
     </g>
     <g id="text_12">
      <!-- 25000 -->
      <g transform="translate(7.2 81.119162) scale(0.1 -0.1)">
       <use xlink:href="#DejaVuSans-32"/>
       <use xlink:href="#DejaVuSans-35" x="63.623047"/>
       <use xlink:href="#DejaVuSans-30" x="127.246094"/>
       <use xlink:href="#DejaVuSans-30" x="190.869141"/>
       <use xlink:href="#DejaVuSans-30" x="254.492188"/>
      </g>
     </g>
    </g>
    <g id="ytick_7">
     <g id="line2d_13">
      <g>
       <use xlink:href="#m0b5a8e717a" x="46.0125" y="30.047216" style="stroke: #000000; stroke-width: 0.8"/>
      </g>
     </g>
     <g id="text_13">
      <!-- 30000 -->
      <g transform="translate(7.2 33.846435) scale(0.1 -0.1)">
       <defs>
        <path id="DejaVuSans-33" d="M 2597 2516 
Q 3050 2419 3304 2112 
Q 3559 1806 3559 1356 
Q 3559 666 3084 287 
Q 2609 -91 1734 -91 
Q 1441 -91 1130 -33 
Q 819 25 488 141 
L 488 750 
Q 750 597 1062 519 
Q 1375 441 1716 441 
Q 2309 441 2620 675 
Q 2931 909 2931 1356 
Q 2931 1769 2642 2001 
Q 2353 2234 1838 2234 
L 1294 2234 
L 1294 2753 
L 1863 2753 
Q 2328 2753 2575 2939 
Q 2822 3125 2822 3475 
Q 2822 3834 2567 4026 
Q 2313 4219 1838 4219 
Q 1578 4219 1281 4162 
Q 984 4106 628 3988 
L 628 4550 
Q 988 4650 1302 4700 
Q 1616 4750 1894 4750 
Q 2613 4750 3031 4423 
Q 3450 4097 3450 3541 
Q 3450 3153 3228 2886 
Q 3006 2619 2597 2516 
z
" transform="scale(0.015625)"/>
       </defs>
       <use xlink:href="#DejaVuSans-33"/>
       <use xlink:href="#DejaVuSans-30" x="63.623047"/>
       <use xlink:href="#DejaVuSans-30" x="127.246094"/>
       <use xlink:href="#DejaVuSans-30" x="190.869141"/>
       <use xlink:href="#DejaVuSans-30" x="254.492188"/>
      </g>
     </g>
    </g>
   </g>
   <g id="line2d_14">
    <path d="M 76.003864 313.68358 
L 81.527527 313.68358 
L 81.617867 284.75267 
L 81.637226 265.394489 
L 81.708208 310.646307 
L 81.740472 311.981761 
L 81.746925 310.398125 
L 81.766284 302.716307 
L 81.856624 310.625034 
L 81.972776 312.958889 
L 82.011493 312.817543 
L 82.140551 313.50867 
L 82.147003 313.483616 
L 82.159909 309.53067 
L 82.256702 311.665034 
L 82.405119 313.35267 
L 82.605158 313.608841 
L 82.927802 313.678096 
L 85.050799 313.68358 
L 87.012473 313.683107 
L 87.025379 307.994307 
L 87.122172 313.296652 
L 87.167343 313.208961 
L 87.270589 313.575089 
L 87.470628 313.669681 
L 88.374031 313.68358 
L 123.380894 313.68358 
L 123.3938 302.314489 
L 123.490593 313.258598 
L 123.600292 313.624843 
L 123.639009 313.588845 
L 123.826142 313.672234 
L 126.213707 313.68358 
L 134.731506 313.68358 
L 134.744412 313.066198 
L 134.841205 313.617563 
L 135.028339 313.682918 
L 135.280001 313.600781 
L 135.286454 313.559347 
L 135.350982 313.680081 
L 135.376794 313.682114 
L 141.507028 313.68358 
L 141.519934 308.103034 
L 141.616727 313.478889 
L 141.771596 313.66798 
L 142.216845 313.68358 
L 142.545941 313.682705 
L 142.558847 312.663434 
L 142.65564 313.679207 
L 142.758886 313.683036 
L 142.771792 313.398761 
L 142.868585 313.615696 
L 143.146059 313.68228 
L 146.553179 313.68358 
L 147.288807 313.68339 
L 147.301712 311.341216 
L 147.398506 313.549561 
L 147.559828 313.678569 
L 148.553571 313.68358 
L 195.265954 313.68358 
L 195.27886 300.778125 
L 195.375653 313.391434 
L 195.52407 313.659541 
L 195.943507 313.683201 
L 195.956412 313.517652 
L 196.053206 313.657792 
L 196.472643 313.68358 
L 198.266543 313.68358 
L 198.279448 313.387889 
L 198.376242 313.68339 
L 208.500807 313.68358 
L 261.195009 313.596669 
L 261.240179 306.160125 
L 261.304708 312.751598 
L 261.453124 313.616641 
L 261.653163 313.682161 
L 271.893881 313.68358 
L 300.351072 313.68358 
L 300.376884 196.61267 
L 300.460771 312.984416 
L 300.61564 313.650489 
L 300.918926 313.682681 
L 306.094134 313.683154 
L 306.119945 297.965398 
L 306.203833 313.408689 
L 306.339343 313.669303 
L 306.855573 313.68358 
L 306.939461 313.68358 
L 306.984631 294.561761 
L 307.04916 312.400125 
L 307.216935 313.599978 
L 307.42988 313.668169 
L 307.694448 313.680767 
L 307.758976 282.885398 
L 307.804146 311.095398 
L 307.952563 313.474161 
L 308.12679 313.64848 
L 308.294565 313.667412 
L 308.313924 307.308852 
L 308.410717 312.553761 
L 308.572039 313.568234 
L 308.584945 313.593832 
L 308.591398 313.545189 
L 308.604303 312.89507 
L 308.701097 313.497325 
L 308.720455 313.539634 
L 308.733361 305.90958 
L 308.830154 313.423107 
L 308.920494 313.57107 
L 308.9334 313.427834 
L 308.972117 313.21038 
L 309.043099 313.439652 
L 309.185062 313.602223 
L 309.197968 313.58953 
L 309.217327 113.956307 
L 309.320573 278.914489 
L 309.443177 311.825761 
L 309.623858 313.412707 
L 309.78518 313.549325 
L 309.791633 313.52498 
L 309.823897 306.599761 
L 309.907785 312.388307 
L 309.959408 312.863161 
L 309.972313 311.68867 
L 309.998125 312.797925 
L 310.07556 263.479943 
L 310.107824 309.306125 
L 310.25624 313.185561 
L 310.501449 313.592627 
L 310.753112 313.622527 
L 310.791829 309.147761 
L 310.875716 312.426125 
L 310.946698 313.052252 
L 310.959604 312.341034 
L 311.011227 312.922961 
L 311.191907 313.515289 
L 311.456475 313.6087 
L 311.527457 313.621463 
L 313.489132 313.680081 
L 315.857338 313.679065 
L 315.88315 310.130325 
L 315.902508 262.321761 
L 315.986396 312.627034 
L 315.992849 312.582125 
L 315.999302 311.676852 
L 316.050925 312.907125 
L 316.096095 312.841889 
L 316.270322 313.592083 
L 316.39938 313.64179 
L 316.476814 309.852125 
L 316.528438 312.815416 
L 316.683307 313.603216 
L 316.928516 313.668334 
L 320.742167 313.682918 
L 361.872811 313.68358 
L 361.898623 256.459943 
L 361.98251 313.316743 
L 362.130926 313.642854 
L 362.447117 313.676394 
L 362.685874 313.680964 
L 362.711685 246.650852 
L 362.795573 312.414307 
L 362.950442 313.53798 
L 363.227915 313.640278 
L 363.595729 313.66675 
L 364.641096 313.677718 
L 364.699172 310.54467 
L 364.757248 312.949198 
L 364.912117 313.624158 
L 364.957287 313.64179 
L 365.00891 272.86358 
L 365.021816 255.11267 
L 365.09925 312.97307 
L 365.260572 313.543652 
L 365.512234 313.637158 
L 367.919158 313.675827 
L 371.294013 313.66564 
L 371.300466 313.54767 
L 371.403712 313.675307 
L 371.790885 313.672077 
L 371.797337 313.128834 
L 371.855413 313.66363 
L 371.932848 258.161761 
L 371.965112 305.595216 
L 372.09417 312.723943 
L 372.307115 313.48787 
L 372.778175 313.637158 
L 376.075596 313.676394 
L 376.094954 312.007761 
L 376.10786 313.126707 
L 376.191747 260.57267 
L 376.217559 303.926489 
L 376.340164 312.85867 
L 376.520844 313.497561 
L 377.211302 313.657107 
L 410.379095 313.63652 
L 410.456529 312.400125 
L 410.5017 313.198561 
L 410.643663 313.650938 
L 410.908231 313.662 
L 410.921137 313.599103 
L 411.01793 313.634274 
L 411.811634 313.678852 
L 411.876163 313.678569 
L 411.889068 312.846852 
L 411.992314 313.352907 
L 412.089108 313.531598 
L 412.09556 313.346998 
L 412.102013 312.515943 
L 412.198806 313.55358 
L 412.205259 313.256943 
L 412.282694 312.770743 
L 412.269788 313.38978 
L 412.321411 312.979925 
L 412.514997 313.533252 
L 412.76666 313.640278 
L 413.386136 313.672825 
L 413.579722 313.67422 
L 413.592628 313.04327 
L 413.689421 313.391434 
L 413.921725 313.572016 
L 413.934631 313.547198 
L 414.024971 313.601183 
L 414.102405 313.602743 
L 414.115311 313.233307 
L 414.212104 313.572016 
L 414.379879 313.637158 
L 414.392785 313.220307 
L 414.489578 313.53727 
L 414.579918 313.617516 
L 414.586371 313.595085 
L 414.592824 310.554125 
L 414.69607 313.238034 
L 414.870298 313.611063 
L 415.263923 313.664174 
L 416.322195 313.680932 
L 418.451645 313.6815 
L 418.471004 292.694489 
L 418.561344 312.990089 
L 418.722666 313.583361 
L 418.729119 313.582652 
L 418.75493 313.510798 
L 418.838818 313.583834 
L 419.225991 313.657107 
L 420.019695 313.67299 
L 420.41332 313.677245 
L 420.426226 312.166125 
L 420.523019 313.166889 
L 420.729511 313.588089 
L 420.813399 313.617965 
L 420.826304 313.509143 
L 420.832757 313.504652 
L 420.852116 313.59856 
L 420.871474 313.60818 
L 420.936003 313.631249 
L 420.961815 313.39498 
L 421.045702 313.543652 
L 421.510309 313.672329 
L 421.678084 313.664694 
L 421.69099 312.367034 
L 421.787783 313.649992 
L 422.213673 313.667554 
L 422.226579 313.367561 
L 422.29756 313.670154 
L 422.323372 313.662354 
L 422.594393 313.652167 
L 423.420361 313.675827 
L 423.43972 313.469907 
L 423.452626 310.695943 
L 423.549419 313.187216 
L 423.730099 313.602223 
L 423.82044 313.637961 
L 423.86561 297.75267 
L 423.930139 311.854125 
L 423.962403 311.596489 
L 424.078555 313.27467 
L 424.259235 313.599623 
L 424.523803 313.643209 
L 424.536709 308.708125 
L 424.633502 312.897907 
L 424.814183 313.535616 
L 425.014222 313.596409 
L 425.36913 313.651245 
L 430.034561 313.680932 
L 430.092637 295.48358 
L 430.14426 311.08358 
L 430.202336 312.83007 
L 430.208789 309.982598 
L 430.221695 298.650852 
L 430.312035 312.341034 
L 430.466904 313.230234 
L 430.70566 313.593194 
L 431.021852 313.649354 
L 432.351144 313.67422 
L 434.867767 313.67422 
L 435.945397 313.675354 
L 474.165794 313.68358 
L 474.178699 310.64158 
L 474.275493 313.315325 
L 474.430362 313.658903 
L 474.836893 313.682823 
L 478.069785 313.68358 
L 478.082691 313.353852 
L 478.179484 313.645312 
L 478.334353 313.679892 
L 478.347259 307.876125 
L 478.444052 313.390961 
L 478.586015 313.657083 
L 478.973188 313.681594 
L 479.437795 313.681783 
L 479.450701 312.471034 
L 479.547494 313.362125 
L 479.624928 313.540816 
L 479.69591 313.492598 
L 479.734627 313.502052 
L 479.74108 313.49118 
L 479.753986 312.229943 
L 479.850779 313.423107 
L 480.018554 313.657107 
L 480.521879 313.679703 
L 480.534784 313.191943 
L 480.631577 313.514343 
L 480.799352 313.66259 
L 481.567245 313.682067 
L 482.038305 313.682918 
L 483.438579 312.36467 
L 483.586996 313.56067 
L 483.799941 313.657887 
L 484.613003 313.677245 
L 529.512128 313.68358 
L 529.518581 312.345761 
L 529.621827 313.46518 
L 529.686356 313.572961 
L 529.699262 310.906307 
L 529.796055 313.118434 
L 529.970282 313.560434 
L 530.454248 313.653325 
L 532.209431 313.68358 
L 532.570792 313.591681 
L 532.596604 313.615932 
L 532.603057 312.712763 
L 532.712756 307.741398 
L 532.69985 313.229052 
L 532.725661 310.31067 
L 532.861172 313.499925 
L 533.061211 313.6347 
L 533.796839 313.682729 
L 534.248541 313.679632 
L 534.261446 313.477943 
L 534.35824 313.671005 
L 534.396957 313.677954 
L 534.409863 313.436343 
L 534.506656 313.594021 
L 534.706695 313.66363 
L 534.726054 36.19267 
L 534.816394 307.299398 
L 534.835752 309.450307 
L 534.87447 303.36158 
L 534.893828 289.290852 
L 534.971263 311.764307 
L 535.126132 313.227398 
L 535.313265 313.519307 
L 535.319718 313.51647 
L 535.797231 313.620801 
L 535.990818 313.615341 
L 536.003723 312.318816 
L 536.035988 301.179943 
L 536.113422 311.572852 
L 536.268291 313.263325 
L 536.281197 313.296416 
L 536.294103 304.536307 
L 536.300556 298.414489 
L 536.397349 311.225398 
L 536.558671 313.172798 
L 536.797427 313.445325 
L 536.881315 313.460452 
L 536.894221 313.388361 
L 536.907126 313.234489 
L 536.965202 313.476289 
L 536.991014 313.477943 
L 537.010372 313.450525 
L 537.023278 298.60358 
L 537.120071 312.728907 
L 537.1846 313.171616 
L 537.191053 312.430143 
L 537.197506 311.86358 
L 537.287846 313.23638 
L 537.481432 313.481725 
L 537.552414 313.50678 
L 537.558867 313.446507 
L 537.571773 312.952507 
L 537.668566 313.255525 
L 537.913775 313.492834 
L 538.920424 313.601514 
L 542.463054 313.59804 
L 542.52113 290.094489 
L 542.534036 284.894489 
L 542.592112 311.48067 
L 542.746981 313.182252 
L 542.940567 313.464234 
L 543.256758 313.578634 
L 543.379363 313.500161 
L 543.476156 312.532489 
L 543.50842 313.020816 
L 543.585855 313.350543 
L 543.618119 307.230852 
L 543.695554 312.480489 
L 543.869782 313.355034 
L 544.056915 313.51647 
L 544.069821 313.49638 
L 544.392465 313.404907 
L 544.405371 312.664852 
L 544.502164 313.041852 
L 544.747373 313.420743 
L 545.102281 313.544125 
L 547.754414 313.627136 
L 585.819941 313.681972 
L 585.832847 312.523034 
L 585.92964 313.578161 
L 586.136132 313.677434 
L 590.311144 313.682563 
L 590.32405 313.361652 
L 590.420843 313.681169 
L 592.466406 313.682634 
L 594.137701 313.68339 
L 594.15706 313.23378 
L 594.169966 309.147761 
L 594.266759 313.131907 
L 594.286117 313.286725 
L 594.29257 313.255998 
L 594.331287 297.161761 
L 594.402269 312.664852 
L 594.550685 313.406561 
L 594.750725 313.570834 
L 594.757177 313.573907 
L 594.76363 313.51198 
L 594.802348 311.639034 
L 594.8088 311.969943 
L 594.828159 308.344125 
L 594.912046 312.549034 
L 595.066916 313.435161 
L 595.286313 313.59128 
L 596.067112 313.652569 
L 638.88841 313.682965 
L 638.894863 313.112312 
L 638.901316 301.889034 
L 639.004562 313.328089 
L 639.152978 313.628247 
L 639.553056 313.680081 
L 640.617781 313.588372 
L 640.624234 313.406325 
L 640.662951 313.621841 
L 640.72748 313.600238 
L 641.19854 313.681594 
L 646.341484 313.68358 
L 654.439846 313.68358 
L 654.452752 311.310489 
L 654.555998 313.38718 
L 654.736678 313.656587 
L 655.117398 313.68358 
L 675.831136 313.682161 
L 675.831136 313.682161 
" clip-path="url(#p01b45ff5d9)" style="fill: none; stroke: #1f77b4; stroke-width: 1.5; stroke-linecap: square"/>
   </g>
   <g id="patch_3">
    <path d="M 46.0125 327.558125 
L 46.0125 22.318125 
" style="fill: none; stroke: #000000; stroke-width: 0.8; stroke-linejoin: miter; stroke-linecap: square"/>
   </g>
   <g id="patch_4">
    <path d="M 705.8225 327.558125 
L 705.8225 22.318125 
" style="fill: none; stroke: #000000; stroke-width: 0.8; stroke-linejoin: miter; stroke-linecap: square"/>
   </g>
   <g id="patch_5">
    <path d="M 46.0125 327.558125 
L 705.8225 327.558125 
" style="fill: none; stroke: #000000; stroke-width: 0.8; stroke-linejoin: miter; stroke-linecap: square"/>
   </g>
   <g id="patch_6">
    <path d="M 46.0125 22.318125 
L 705.8225 22.318125 
" style="fill: none; stroke: #000000; stroke-width: 0.8; stroke-linejoin: miter; stroke-linecap: square"/>
   </g>
   <g id="text_14">
    <!-- training -->
    <g transform="translate(352.674062 16.318125) scale(0.12 -0.12)">
     <defs>
      <path id="DejaVuSans-74" d="M 1172 4494 
L 1172 3500 
L 2356 3500 
L 2356 3053 
L 1172 3053 
L 1172 1153 
Q 1172 725 1289 603 
Q 1406 481 1766 481 
L 2356 481 
L 2356 0 
L 1766 0 
Q 1100 0 847 248 
Q 594 497 594 1153 
L 594 3053 
L 172 3053 
L 172 3500 
L 594 3500 
L 594 4494 
L 1172 4494 
z
" transform="scale(0.015625)"/>
      <path id="DejaVuSans-72" d="M 2631 2963 
Q 2534 3019 2420 3045 
Q 2306 3072 2169 3072 
Q 1681 3072 1420 2755 
Q 1159 2438 1159 1844 
L 1159 0 
L 581 0 
L 581 3500 
L 1159 3500 
L 1159 2956 
Q 1341 3275 1631 3429 
Q 1922 3584 2338 3584 
Q 2397 3584 2469 3576 
Q 2541 3569 2628 3553 
L 2631 2963 
z
" transform="scale(0.015625)"/>
      <path id="DejaVuSans-61" d="M 2194 1759 
Q 1497 1759 1228 1600 
Q 959 1441 959 1056 
Q 959 750 1161 570 
Q 1363 391 1709 391 
Q 2188 391 2477 730 
Q 2766 1069 2766 1631 
L 2766 1759 
L 2194 1759 
z
M 3341 1997 
L 3341 0 
L 2766 0 
L 2766 531 
Q 2569 213 2275 61 
Q 1981 -91 1556 -91 
Q 1019 -91 701 211 
Q 384 513 384 1019 
Q 384 1609 779 1909 
Q 1175 2209 1959 2209 
L 2766 2209 
L 2766 2266 
Q 2766 2663 2505 2880 
Q 2244 3097 1772 3097 
Q 1472 3097 1187 3025 
Q 903 2953 641 2809 
L 641 3341 
Q 956 3463 1253 3523 
Q 1550 3584 1831 3584 
Q 2591 3584 2966 3190 
Q 3341 2797 3341 1997 
z
" transform="scale(0.015625)"/>
      <path id="DejaVuSans-69" d="M 603 3500 
L 1178 3500 
L 1178 0 
L 603 0 
L 603 3500 
z
M 603 4863 
L 1178 4863 
L 1178 4134 
L 603 4134 
L 603 4863 
z
" transform="scale(0.015625)"/>
      <path id="DejaVuSans-6e" d="M 3513 2113 
L 3513 0 
L 2938 0 
L 2938 2094 
Q 2938 2591 2744 2837 
Q 2550 3084 2163 3084 
Q 1697 3084 1428 2787 
Q 1159 2491 1159 1978 
L 1159 0 
L 581 0 
L 581 3500 
L 1159 3500 
L 1159 2956 
Q 1366 3272 1645 3428 
Q 1925 3584 2291 3584 
Q 2894 3584 3203 3211 
Q 3513 2838 3513 2113 
z
" transform="scale(0.015625)"/>
      <path id="DejaVuSans-67" d="M 2906 1791 
Q 2906 2416 2648 2759 
Q 2391 3103 1925 3103 
Q 1463 3103 1205 2759 
Q 947 2416 947 1791 
Q 947 1169 1205 825 
Q 1463 481 1925 481 
Q 2391 481 2648 825 
Q 2906 1169 2906 1791 
z
M 3481 434 
Q 3481 -459 3084 -895 
Q 2688 -1331 1869 -1331 
Q 1566 -1331 1297 -1286 
Q 1028 -1241 775 -1147 
L 775 -588 
Q 1028 -725 1275 -790 
Q 1522 -856 1778 -856 
Q 2344 -856 2625 -561 
Q 2906 -266 2906 331 
L 2906 616 
Q 2728 306 2450 153 
Q 2172 0 1784 0 
Q 1141 0 747 490 
Q 353 981 353 1791 
Q 353 2603 747 3093 
Q 1141 3584 1784 3584 
Q 2172 3584 2450 3431 
Q 2728 3278 2906 2969 
L 2906 3500 
L 3481 3500 
L 3481 434 
z
" transform="scale(0.015625)"/>
     </defs>
     <use xlink:href="#DejaVuSans-74"/>
     <use xlink:href="#DejaVuSans-72" x="39.208984"/>
     <use xlink:href="#DejaVuSans-61" x="80.322266"/>
     <use xlink:href="#DejaVuSans-69" x="141.601562"/>
     <use xlink:href="#DejaVuSans-6e" x="169.384766"/>
     <use xlink:href="#DejaVuSans-69" x="232.763672"/>
     <use xlink:href="#DejaVuSans-6e" x="260.546875"/>
     <use xlink:href="#DejaVuSans-67" x="323.925781"/>
    </g>
   </g>
   <g id="legend_1">
    <g id="patch_7">
     <path d="M 620.461563 44.99625 
L 698.8225 44.99625 
Q 700.8225 44.99625 700.8225 42.99625 
L 700.8225 29.318125 
Q 700.8225 27.318125 698.8225 27.318125 
L 620.461563 27.318125 
Q 618.461563 27.318125 618.461563 29.318125 
L 618.461563 42.99625 
Q 618.461563 44.99625 620.461563 44.99625 
z
" style="fill: #ffffff; opacity: 0.8; stroke: #cccccc; stroke-linejoin: miter"/>
    </g>
    <g id="line2d_15">
     <path d="M 622.461563 35.416563 
L 632.461563 35.416563 
L 642.461563 35.416563 
" style="fill: none; stroke: #1f77b4; stroke-width: 1.5; stroke-linecap: square"/>
    </g>
    <g id="text_15">
     <!-- observed -->
     <g transform="translate(650.461563 38.916563) scale(0.1 -0.1)">
      <defs>
       <path id="DejaVuSans-6f" d="M 1959 3097 
Q 1497 3097 1228 2736 
Q 959 2375 959 1747 
Q 959 1119 1226 758 
Q 1494 397 1959 397 
Q 2419 397 2687 759 
Q 2956 1122 2956 1747 
Q 2956 2369 2687 2733 
Q 2419 3097 1959 3097 
z
M 1959 3584 
Q 2709 3584 3137 3096 
Q 3566 2609 3566 1747 
Q 3566 888 3137 398 
Q 2709 -91 1959 -91 
Q 1206 -91 779 398 
Q 353 888 353 1747 
Q 353 2609 779 3096 
Q 1206 3584 1959 3584 
z
" transform="scale(0.015625)"/>
       <path id="DejaVuSans-62" d="M 3116 1747 
Q 3116 2381 2855 2742 
Q 2594 3103 2138 3103 
Q 1681 3103 1420 2742 
Q 1159 2381 1159 1747 
Q 1159 1113 1420 752 
Q 1681 391 2138 391 
Q 2594 391 2855 752 
Q 3116 1113 3116 1747 
z
M 1159 2969 
Q 1341 3281 1617 3432 
Q 1894 3584 2278 3584 
Q 2916 3584 3314 3078 
Q 3713 2572 3713 1747 
Q 3713 922 3314 415 
Q 2916 -91 2278 -91 
Q 1894 -91 1617 61 
Q 1341 213 1159 525 
L 1159 0 
L 581 0 
L 581 4863 
L 1159 4863 
L 1159 2969 
z
" transform="scale(0.015625)"/>
       <path id="DejaVuSans-73" d="M 2834 3397 
L 2834 2853 
Q 2591 2978 2328 3040 
Q 2066 3103 1784 3103 
Q 1356 3103 1142 2972 
Q 928 2841 928 2578 
Q 928 2378 1081 2264 
Q 1234 2150 1697 2047 
L 1894 2003 
Q 2506 1872 2764 1633 
Q 3022 1394 3022 966 
Q 3022 478 2636 193 
Q 2250 -91 1575 -91 
Q 1294 -91 989 -36 
Q 684 19 347 128 
L 347 722 
Q 666 556 975 473 
Q 1284 391 1588 391 
Q 1994 391 2212 530 
Q 2431 669 2431 922 
Q 2431 1156 2273 1281 
Q 2116 1406 1581 1522 
L 1381 1569 
Q 847 1681 609 1914 
Q 372 2147 372 2553 
Q 372 3047 722 3315 
Q 1072 3584 1716 3584 
Q 2034 3584 2315 3537 
Q 2597 3491 2834 3397 
z
" transform="scale(0.015625)"/>
       <path id="DejaVuSans-65" d="M 3597 1894 
L 3597 1613 
L 953 1613 
Q 991 1019 1311 708 
Q 1631 397 2203 397 
Q 2534 397 2845 478 
Q 3156 559 3463 722 
L 3463 178 
Q 3153 47 2828 -22 
Q 2503 -91 2169 -91 
Q 1331 -91 842 396 
Q 353 884 353 1716 
Q 353 2575 817 3079 
Q 1281 3584 2069 3584 
Q 2775 3584 3186 3129 
Q 3597 2675 3597 1894 
z
M 3022 2063 
Q 3016 2534 2758 2815 
Q 2500 3097 2075 3097 
Q 1594 3097 1305 2825 
Q 1016 2553 972 2059 
L 3022 2063 
z
" transform="scale(0.015625)"/>
       <path id="DejaVuSans-76" d="M 191 3500 
L 800 3500 
L 1894 563 
L 2988 3500 
L 3597 3500 
L 2284 0 
L 1503 0 
L 191 3500 
z
" transform="scale(0.015625)"/>
       <path id="DejaVuSans-64" d="M 2906 2969 
L 2906 4863 
L 3481 4863 
L 3481 0 
L 2906 0 
L 2906 525 
Q 2725 213 2448 61 
Q 2172 -91 1784 -91 
Q 1150 -91 751 415 
Q 353 922 353 1747 
Q 353 2572 751 3078 
Q 1150 3584 1784 3584 
Q 2172 3584 2448 3432 
Q 2725 3281 2906 2969 
z
M 947 1747 
Q 947 1113 1208 752 
Q 1469 391 1925 391 
Q 2381 391 2643 752 
Q 2906 1113 2906 1747 
Q 2906 2381 2643 2742 
Q 2381 3103 1925 3103 
Q 1469 3103 1208 2742 
Q 947 2381 947 1747 
z
" transform="scale(0.015625)"/>
      </defs>
      <use xlink:href="#DejaVuSans-6f"/>
      <use xlink:href="#DejaVuSans-62" x="61.181641"/>
      <use xlink:href="#DejaVuSans-73" x="124.658203"/>
      <use xlink:href="#DejaVuSans-65" x="176.757812"/>
      <use xlink:href="#DejaVuSans-72" x="238.28125"/>
      <use xlink:href="#DejaVuSans-76" x="279.394531"/>
      <use xlink:href="#DejaVuSans-65" x="338.574219"/>
      <use xlink:href="#DejaVuSans-64" x="400.097656"/>
     </g>
    </g>
   </g>
  </g>
 </g>
 <defs>
  <clipPath id="p01b45ff5d9">
   <rect x="46.0125" y="22.318125" width="659.81" height="305.24"/>
  </clipPath>
 </defs>
</svg>
