<?xml version="1.0" encoding="utf-8" standalone="no"?>
<!DOCTYPE svg PUBLIC "-//W3C//DTD SVG 1.1//EN"
  "http://www.w3.org/Graphics/SVG/1.1/DTD/svg11.dtd">
<svg xmlns:xlink="http://www.w3.org/1999/xlink" width="720pt" height="360pt" viewBox="0 0 720 360" xmlns="http://www.w3.org/2000/svg" version="1.1">
 <metadata>
  <rdf:RDF xmlns:dc="http://purl.org/dc/elements/1.1/" xmlns:cc="http://creativecommons.org/ns#" xmlns:rdf="http://www.w3.org/1999/02/22-rdf-syntax-ns#">
   <cc:Work>
    <dc:type rdf:resource="http://purl.org/dc/dcmitype/StillImage"/>
    <dc:date>2023-10-23T10:53:52.385031</dc:date>
    <dc:format>image/svg+xml</dc:format>
    <dc:creator>
     <cc:Agent>
      <dc:title>Matplotlib v3.7.1, https://matplotlib.org/</dc:title>
     </cc:Agent>
    </dc:creator>
   </cc:Work>
  </rdf:RDF>
 </metadata>
 <defs>
  <style type="text/css">*{stroke-linejoin: round; stroke-linecap: butt}</style>
 </defs>
 <g id="figure_1">
  <g id="patch_1">
   <path d="M 0 360 
L 720 360 
L 720 0 
L 0 0 
z
" style="fill: #ffffff"/>
  </g>
  <g id="axes_1">
   <g id="patch_2">
    <path d="M 90 288 
L 648 288 
L 648 43.2 
L 90 43.2 
z
" style="fill: #ffffff"/>
   </g>
   <g id="matplotlib.axis_1">
    <g id="xtick_1">
     <g id="line2d_1">
      <defs>
       <path id="m5e53d05d38" d="M 0 0 
L 0 3.5 
" style="stroke: #000000; stroke-width: 0.8"/>
      </defs>
      <g>
       <use xlink:href="#m5e53d05d38" x="149.370747" y="288" style="stroke: #000000; stroke-width: 0.8"/>
      </g>
     </g>
     <g id="text_1">
      <!-- 2023-08-15 -->
      <g transform="translate(87.727405 337.765903) rotate(-30) scale(0.12 -0.12)">
       <defs>
        <path id="DejaVuSans-32" d="M 1228 531 
L 3431 531 
L 3431 0 
L 469 0 
L 469 531 
Q 828 903 1448 1529 
Q 2069 2156 2228 2338 
Q 2531 2678 2651 2914 
Q 2772 3150 2772 3378 
Q 2772 3750 2511 3984 
Q 2250 4219 1831 4219 
Q 1534 4219 1204 4116 
Q 875 4013 500 3803 
L 500 4441 
Q 881 4594 1212 4672 
Q 1544 4750 1819 4750 
Q 2544 4750 2975 4387 
Q 3406 4025 3406 3419 
Q 3406 3131 3298 2873 
Q 3191 2616 2906 2266 
Q 2828 2175 2409 1742 
Q 1991 1309 1228 531 
z
" transform="scale(0.015625)"/>
        <path id="DejaVuSans-30" d="M 2034 4250 
Q 1547 4250 1301 3770 
Q 1056 3291 1056 2328 
Q 1056 1369 1301 889 
Q 1547 409 2034 409 
Q 2525 409 2770 889 
Q 3016 1369 3016 2328 
Q 3016 3291 2770 3770 
Q 2525 4250 2034 4250 
z
M 2034 4750 
Q 2819 4750 3233 4129 
Q 3647 3509 3647 2328 
Q 3647 1150 3233 529 
Q 2819 -91 2034 -91 
Q 1250 -91 836 529 
Q 422 1150 422 2328 
Q 422 3509 836 4129 
Q 1250 4750 2034 4750 
z
" transform="scale(0.015625)"/>
        <path id="DejaVuSans-33" d="M 2597 2516 
Q 3050 2419 3304 2112 
Q 3559 1806 3559 1356 
Q 3559 666 3084 287 
Q 2609 -91 1734 -91 
Q 1441 -91 1130 -33 
Q 819 25 488 141 
L 488 750 
Q 750 597 1062 519 
Q 1375 441 1716 441 
Q 2309 441 2620 675 
Q 2931 909 2931 1356 
Q 2931 1769 2642 2001 
Q 2353 2234 1838 2234 
L 1294 2234 
L 1294 2753 
L 1863 2753 
Q 2328 2753 2575 2939 
Q 2822 3125 2822 3475 
Q 2822 3834 2567 4026 
Q 2313 4219 1838 4219 
Q 1578 4219 1281 4162 
Q 984 4106 628 3988 
L 628 4550 
Q 988 4650 1302 4700 
Q 1616 4750 1894 4750 
Q 2613 4750 3031 4423 
Q 3450 4097 3450 3541 
Q 3450 3153 3228 2886 
Q 3006 2619 2597 2516 
z
" transform="scale(0.015625)"/>
        <path id="DejaVuSans-2d" d="M 313 2009 
L 1997 2009 
L 1997 1497 
L 313 1497 
L 313 2009 
z
" transform="scale(0.015625)"/>
        <path id="DejaVuSans-38" d="M 2034 2216 
Q 1584 2216 1326 1975 
Q 1069 1734 1069 1313 
Q 1069 891 1326 650 
Q 1584 409 2034 409 
Q 2484 409 2743 651 
Q 3003 894 3003 1313 
Q 3003 1734 2745 1975 
Q 2488 2216 2034 2216 
z
M 1403 2484 
Q 997 2584 770 2862 
Q 544 3141 544 3541 
Q 544 4100 942 4425 
Q 1341 4750 2034 4750 
Q 2731 4750 3128 4425 
Q 3525 4100 3525 3541 
Q 3525 3141 3298 2862 
Q 3072 2584 2669 2484 
Q 3125 2378 3379 2068 
Q 3634 1759 3634 1313 
Q 3634 634 3220 271 
Q 2806 -91 2034 -91 
Q 1263 -91 848 271 
Q 434 634 434 1313 
Q 434 1759 690 2068 
Q 947 2378 1403 2484 
z
M 1172 3481 
Q 1172 3119 1398 2916 
Q 1625 2713 2034 2713 
Q 2441 2713 2670 2916 
Q 2900 3119 2900 3481 
Q 2900 3844 2670 4047 
Q 2441 4250 2034 4250 
Q 1625 4250 1398 4047 
Q 1172 3844 1172 3481 
z
" transform="scale(0.015625)"/>
        <path id="DejaVuSans-31" d="M 794 531 
L 1825 531 
L 1825 4091 
L 703 3866 
L 703 4441 
L 1819 4666 
L 2450 4666 
L 2450 531 
L 3481 531 
L 3481 0 
L 794 0 
L 794 531 
z
" transform="scale(0.015625)"/>
        <path id="DejaVuSans-35" d="M 691 4666 
L 3169 4666 
L 3169 4134 
L 1269 4134 
L 1269 2991 
Q 1406 3038 1543 3061 
Q 1681 3084 1819 3084 
Q 2600 3084 3056 2656 
Q 3513 2228 3513 1497 
Q 3513 744 3044 326 
Q 2575 -91 1722 -91 
Q 1428 -91 1123 -41 
Q 819 9 494 109 
L 494 744 
Q 775 591 1075 516 
Q 1375 441 1709 441 
Q 2250 441 2565 725 
Q 2881 1009 2881 1497 
Q 2881 1984 2565 2268 
Q 2250 2553 1709 2553 
Q 1456 2553 1204 2497 
Q 953 2441 691 2322 
L 691 4666 
z
" transform="scale(0.015625)"/>
       </defs>
       <use xlink:href="#DejaVuSans-32"/>
       <use xlink:href="#DejaVuSans-30" x="63.623047"/>
       <use xlink:href="#DejaVuSans-32" x="127.246094"/>
       <use xlink:href="#DejaVuSans-33" x="190.869141"/>
       <use xlink:href="#DejaVuSans-2d" x="254.492188"/>
       <use xlink:href="#DejaVuSans-30" x="290.576172"/>
       <use xlink:href="#DejaVuSans-38" x="354.199219"/>
       <use xlink:href="#DejaVuSans-2d" x="417.822266"/>
       <use xlink:href="#DejaVuSans-31" x="453.90625"/>
       <use xlink:href="#DejaVuSans-35" x="517.529297"/>
      </g>
     </g>
    </g>
    <g id="xtick_2">
     <g id="line2d_2">
      <g>
       <use xlink:href="#m5e53d05d38" x="264.994921" y="288" style="stroke: #000000; stroke-width: 0.8"/>
      </g>
     </g>
     <g id="text_2">
      <!-- 2023-09-01 -->
      <g transform="translate(203.35158 337.765903) rotate(-30) scale(0.12 -0.12)">
       <defs>
        <path id="DejaVuSans-39" d="M 703 97 
L 703 672 
Q 941 559 1184 500 
Q 1428 441 1663 441 
Q 2288 441 2617 861 
Q 2947 1281 2994 2138 
Q 2813 1869 2534 1725 
Q 2256 1581 1919 1581 
Q 1219 1581 811 2004 
Q 403 2428 403 3163 
Q 403 3881 828 4315 
Q 1253 4750 1959 4750 
Q 2769 4750 3195 4129 
Q 3622 3509 3622 2328 
Q 3622 1225 3098 567 
Q 2575 -91 1691 -91 
Q 1453 -91 1209 -44 
Q 966 3 703 97 
z
M 1959 2075 
Q 2384 2075 2632 2365 
Q 2881 2656 2881 3163 
Q 2881 3666 2632 3958 
Q 2384 4250 1959 4250 
Q 1534 4250 1286 3958 
Q 1038 3666 1038 3163 
Q 1038 2656 1286 2365 
Q 1534 2075 1959 2075 
z
" transform="scale(0.015625)"/>
       </defs>
       <use xlink:href="#DejaVuSans-32"/>
       <use xlink:href="#DejaVuSans-30" x="63.623047"/>
       <use xlink:href="#DejaVuSans-32" x="127.246094"/>
       <use xlink:href="#DejaVuSans-33" x="190.869141"/>
       <use xlink:href="#DejaVuSans-2d" x="254.492188"/>
       <use xlink:href="#DejaVuSans-30" x="290.576172"/>
       <use xlink:href="#DejaVuSans-39" x="354.199219"/>
       <use xlink:href="#DejaVuSans-2d" x="417.822266"/>
       <use xlink:href="#DejaVuSans-30" x="453.90625"/>
       <use xlink:href="#DejaVuSans-31" x="517.529297"/>
      </g>
     </g>
    </g>
    <g id="xtick_3">
     <g id="line2d_3">
      <g>
       <use xlink:href="#m5e53d05d38" x="360.21483" y="288" style="stroke: #000000; stroke-width: 0.8"/>
      </g>
     </g>
     <g id="text_3">
      <!-- 2023-09-15 -->
      <g transform="translate(298.571488 337.765903) rotate(-30) scale(0.12 -0.12)">
       <use xlink:href="#DejaVuSans-32"/>
       <use xlink:href="#DejaVuSans-30" x="63.623047"/>
       <use xlink:href="#DejaVuSans-32" x="127.246094"/>
       <use xlink:href="#DejaVuSans-33" x="190.869141"/>
       <use xlink:href="#DejaVuSans-2d" x="254.492188"/>
       <use xlink:href="#DejaVuSans-30" x="290.576172"/>
       <use xlink:href="#DejaVuSans-39" x="354.199219"/>
       <use xlink:href="#DejaVuSans-2d" x="417.822266"/>
       <use xlink:href="#DejaVuSans-31" x="453.90625"/>
       <use xlink:href="#DejaVuSans-35" x="517.529297"/>
      </g>
     </g>
    </g>
    <g id="xtick_4">
     <g id="line2d_4">
      <g>
       <use xlink:href="#m5e53d05d38" x="469.037583" y="288" style="stroke: #000000; stroke-width: 0.8"/>
      </g>
     </g>
     <g id="text_4">
      <!-- 2023-10-01 -->
      <g transform="translate(407.394241 337.765903) rotate(-30) scale(0.12 -0.12)">
       <use xlink:href="#DejaVuSans-32"/>
       <use xlink:href="#DejaVuSans-30" x="63.623047"/>
       <use xlink:href="#DejaVuSans-32" x="127.246094"/>
       <use xlink:href="#DejaVuSans-33" x="190.869141"/>
       <use xlink:href="#DejaVuSans-2d" x="254.492188"/>
       <use xlink:href="#DejaVuSans-31" x="290.576172"/>
       <use xlink:href="#DejaVuSans-30" x="354.199219"/>
       <use xlink:href="#DejaVuSans-2d" x="417.822266"/>
       <use xlink:href="#DejaVuSans-30" x="453.90625"/>
       <use xlink:href="#DejaVuSans-31" x="517.529297"/>
      </g>
     </g>
    </g>
    <g id="xtick_5">
     <g id="line2d_5">
      <g>
       <use xlink:href="#m5e53d05d38" x="564.257491" y="288" style="stroke: #000000; stroke-width: 0.8"/>
      </g>
     </g>
     <g id="text_5">
      <!-- 2023-10-15 -->
      <g transform="translate(502.614149 337.765903) rotate(-30) scale(0.12 -0.12)">
       <use xlink:href="#DejaVuSans-32"/>
       <use xlink:href="#DejaVuSans-30" x="63.623047"/>
       <use xlink:href="#DejaVuSans-32" x="127.246094"/>
       <use xlink:href="#DejaVuSans-33" x="190.869141"/>
       <use xlink:href="#DejaVuSans-2d" x="254.492188"/>
       <use xlink:href="#DejaVuSans-31" x="290.576172"/>
       <use xlink:href="#DejaVuSans-30" x="354.199219"/>
       <use xlink:href="#DejaVuSans-2d" x="417.822266"/>
       <use xlink:href="#DejaVuSans-31" x="453.90625"/>
       <use xlink:href="#DejaVuSans-35" x="517.529297"/>
      </g>
     </g>
    </g>
   </g>
   <g id="matplotlib.axis_2">
    <g id="ytick_1">
     <g id="line2d_6">
      <defs>
       <path id="md5221eeb61" d="M 0 0 
L -3.5 0 
" style="stroke: #000000; stroke-width: 0.8"/>
      </defs>
      <g>
       <use xlink:href="#md5221eeb61" x="90" y="262.787531" style="stroke: #000000; stroke-width: 0.8"/>
      </g>
     </g>
     <g id="text_6">
      <!-- 0.2 -->
      <g transform="translate(63.91625 267.346594) scale(0.12 -0.12)">
       <defs>
        <path id="DejaVuSans-2e" d="M 684 794 
L 1344 794 
L 1344 0 
L 684 0 
L 684 794 
z
" transform="scale(0.015625)"/>
       </defs>
       <use xlink:href="#DejaVuSans-30"/>
       <use xlink:href="#DejaVuSans-2e" x="63.623047"/>
       <use xlink:href="#DejaVuSans-32" x="95.410156"/>
      </g>
     </g>
    </g>
    <g id="ytick_2">
     <g id="line2d_7">
      <g>
       <use xlink:href="#md5221eeb61" x="90" y="211.634156" style="stroke: #000000; stroke-width: 0.8"/>
      </g>
     </g>
     <g id="text_7">
      <!-- 0.4 -->
      <g transform="translate(63.91625 216.193218) scale(0.12 -0.12)">
       <defs>
        <path id="DejaVuSans-34" d="M 2419 4116 
L 825 1625 
L 2419 1625 
L 2419 4116 
z
M 2253 4666 
L 3047 4666 
L 3047 1625 
L 3713 1625 
L 3713 1100 
L 3047 1100 
L 3047 0 
L 2419 0 
L 2419 1100 
L 313 1100 
L 313 1709 
L 2253 4666 
z
" transform="scale(0.015625)"/>
       </defs>
       <use xlink:href="#DejaVuSans-30"/>
       <use xlink:href="#DejaVuSans-2e" x="63.623047"/>
       <use xlink:href="#DejaVuSans-34" x="95.410156"/>
      </g>
     </g>
    </g>
    <g id="ytick_3">
     <g id="line2d_8">
      <g>
       <use xlink:href="#md5221eeb61" x="90" y="160.48078" style="stroke: #000000; stroke-width: 0.8"/>
      </g>
     </g>
     <g id="text_8">
      <!-- 0.6 -->
      <g transform="translate(63.91625 165.039842) scale(0.12 -0.12)">
       <defs>
        <path id="DejaVuSans-36" d="M 2113 2584 
Q 1688 2584 1439 2293 
Q 1191 2003 1191 1497 
Q 1191 994 1439 701 
Q 1688 409 2113 409 
Q 2538 409 2786 701 
Q 3034 994 3034 1497 
Q 3034 2003 2786 2293 
Q 2538 2584 2113 2584 
z
M 3366 4563 
L 3366 3988 
Q 3128 4100 2886 4159 
Q 2644 4219 2406 4219 
Q 1781 4219 1451 3797 
Q 1122 3375 1075 2522 
Q 1259 2794 1537 2939 
Q 1816 3084 2150 3084 
Q 2853 3084 3261 2657 
Q 3669 2231 3669 1497 
Q 3669 778 3244 343 
Q 2819 -91 2113 -91 
Q 1303 -91 875 529 
Q 447 1150 447 2328 
Q 447 3434 972 4092 
Q 1497 4750 2381 4750 
Q 2619 4750 2861 4703 
Q 3103 4656 3366 4563 
z
" transform="scale(0.015625)"/>
       </defs>
       <use xlink:href="#DejaVuSans-30"/>
       <use xlink:href="#DejaVuSans-2e" x="63.623047"/>
       <use xlink:href="#DejaVuSans-36" x="95.410156"/>
      </g>
     </g>
    </g>
    <g id="ytick_4">
     <g id="line2d_9">
      <g>
       <use xlink:href="#md5221eeb61" x="90" y="109.327404" style="stroke: #000000; stroke-width: 0.8"/>
      </g>
     </g>
     <g id="text_9">
      <!-- 0.8 -->
      <g transform="translate(63.91625 113.886466) scale(0.12 -0.12)">
       <use xlink:href="#DejaVuSans-30"/>
       <use xlink:href="#DejaVuSans-2e" x="63.623047"/>
       <use xlink:href="#DejaVuSans-38" x="95.410156"/>
      </g>
     </g>
    </g>
    <g id="ytick_5">
     <g id="line2d_10">
      <g>
       <use xlink:href="#md5221eeb61" x="90" y="58.174028" style="stroke: #000000; stroke-width: 0.8"/>
      </g>
     </g>
     <g id="text_10">
      <!-- 1.0 -->
      <g transform="translate(63.91625 62.73309) scale(0.12 -0.12)">
       <use xlink:href="#DejaVuSans-31"/>
       <use xlink:href="#DejaVuSans-2e" x="63.623047"/>
       <use xlink:href="#DejaVuSans-30" x="95.410156"/>
      </g>
     </g>
    </g>
    <g id="text_11">
     <!-- Meters -->
     <g transform="translate(57.836562 182.6875) rotate(-90) scale(0.1 -0.1)">
      <defs>
       <path id="DejaVuSans-4d" d="M 628 4666 
L 1569 4666 
L 2759 1491 
L 3956 4666 
L 4897 4666 
L 4897 0 
L 4281 0 
L 4281 4097 
L 3078 897 
L 2444 897 
L 1241 4097 
L 1241 0 
L 628 0 
L 628 4666 
z
" transform="scale(0.015625)"/>
       <path id="DejaVuSans-65" d="M 3597 1894 
L 3597 1613 
L 953 1613 
Q 991 1019 1311 708 
Q 1631 397 2203 397 
Q 2534 397 2845 478 
Q 3156 559 3463 722 
L 3463 178 
Q 3153 47 2828 -22 
Q 2503 -91 2169 -91 
Q 1331 -91 842 396 
Q 353 884 353 1716 
Q 353 2575 817 3079 
Q 1281 3584 2069 3584 
Q 2775 3584 3186 3129 
Q 3597 2675 3597 1894 
z
M 3022 2063 
Q 3016 2534 2758 2815 
Q 2500 3097 2075 3097 
Q 1594 3097 1305 2825 
Q 1016 2553 972 2059 
L 3022 2063 
z
" transform="scale(0.015625)"/>
       <path id="DejaVuSans-74" d="M 1172 4494 
L 1172 3500 
L 2356 3500 
L 2356 3053 
L 1172 3053 
L 1172 1153 
Q 1172 725 1289 603 
Q 1406 481 1766 481 
L 2356 481 
L 2356 0 
L 1766 0 
Q 1100 0 847 248 
Q 594 497 594 1153 
L 594 3053 
L 172 3053 
L 172 3500 
L 594 3500 
L 594 4494 
L 1172 4494 
z
" transform="scale(0.015625)"/>
       <path id="DejaVuSans-72" d="M 2631 2963 
Q 2534 3019 2420 3045 
Q 2306 3072 2169 3072 
Q 1681 3072 1420 2755 
Q 1159 2438 1159 1844 
L 1159 0 
L 581 0 
L 581 3500 
L 1159 3500 
L 1159 2956 
Q 1341 3275 1631 3429 
Q 1922 3584 2338 3584 
Q 2397 3584 2469 3576 
Q 2541 3569 2628 3553 
L 2631 2963 
z
" transform="scale(0.015625)"/>
       <path id="DejaVuSans-73" d="M 2834 3397 
L 2834 2853 
Q 2591 2978 2328 3040 
Q 2066 3103 1784 3103 
Q 1356 3103 1142 2972 
Q 928 2841 928 2578 
Q 928 2378 1081 2264 
Q 1234 2150 1697 2047 
L 1894 2003 
Q 2506 1872 2764 1633 
Q 3022 1394 3022 966 
Q 3022 478 2636 193 
Q 2250 -91 1575 -91 
Q 1294 -91 989 -36 
Q 684 19 347 128 
L 347 722 
Q 666 556 975 473 
Q 1284 391 1588 391 
Q 1994 391 2212 530 
Q 2431 669 2431 922 
Q 2431 1156 2273 1281 
Q 2116 1406 1581 1522 
L 1381 1569 
Q 847 1681 609 1914 
Q 372 2147 372 2553 
Q 372 3047 722 3315 
Q 1072 3584 1716 3584 
Q 2034 3584 2315 3537 
Q 2597 3491 2834 3397 
z
" transform="scale(0.015625)"/>
      </defs>
      <use xlink:href="#DejaVuSans-4d"/>
      <use xlink:href="#DejaVuSans-65" x="86.279297"/>
      <use xlink:href="#DejaVuSans-74" x="147.802734"/>
      <use xlink:href="#DejaVuSans-65" x="187.011719"/>
      <use xlink:href="#DejaVuSans-72" x="248.535156"/>
      <use xlink:href="#DejaVuSans-73" x="289.648438"/>
     </g>
    </g>
   </g>
   <g id="line2d_11">
    <path d="M 115.363636 257.96787 
L 115.647029 256.587083 
L 115.930422 257.482038 
L 116.213814 255.990446 
L 116.497207 252.325393 
L 116.780599 252.879412 
L 117.063992 254.669322 
L 117.630777 255.223342 
L 117.91417 254.797173 
L 118.197562 255.010257 
L 118.480955 255.777362 
L 119.04774 267.454392 
L 119.331133 267.62486 
L 119.614525 266.38897 
L 119.897918 264.513826 
L 120.18131 263.661488 
L 120.464703 263.448404 
L 120.748095 264.04504 
L 121.031488 259.740733 
L 121.314881 245.76239 
L 121.598273 245.847624 
L 121.881666 251.004269 
L 122.165058 253.518666 
L 122.448451 254.541471 
L 122.731844 256.501849 
L 123.015236 259.655499 
L 123.298629 259.22933 
L 123.582021 256.033063 
L 123.865414 259.314564 
L 124.148807 260.635688 
L 124.432199 259.10148 
L 124.715592 261.147091 
L 125.282377 260.33737 
L 125.565769 266.985606 
L 125.849162 268.30673 
L 126.132555 268.605049 
L 126.415947 264.641677 
L 126.982732 263.491021 
L 127.549518 254.200536 
L 127.83291 258.249142 
L 128.116303 181.879656 
L 128.399695 223.047582 
L 128.683088 243.247993 
L 128.96648 248.276787 
L 129.249873 249.001274 
L 129.533266 248.830807 
L 129.816658 249.171742 
L 130.100051 245.464072 
L 130.383443 245.975474 
L 130.666836 246.103325 
L 130.950229 245.378838 
L 131.233621 246.31641 
L 131.517014 242.438272 
L 131.800406 243.461077 
L 132.083799 242.097336 
L 132.367191 248.362021 
L 132.650584 248.830807 
L 132.933977 250.365015 
L 133.500762 247.637534 
L 133.784154 244.015097 
L 134.067547 246.44426 
L 134.35094 247.594917 
L 134.634332 251.132119 
L 135.201117 249.043891 
L 135.48451 249.299593 
L 136.051295 247.381832 
L 136.61808 240.776213 
L 137.184865 229.525351 
L 137.468258 228.886097 
L 137.751651 227.47974 
L 138.035043 227.181421 
L 138.318436 226.584785 
L 138.885221 227.650207 
L 139.168614 229.269649 
L 139.452006 232.465917 
L 139.735399 233.019937 
L 140.018791 234.085359 
L 140.302184 236.642373 
L 140.585576 234.383677 
L 140.868969 236.599756 
L 141.152362 240.350044 
L 141.435754 241.074531 
L 141.719147 240.435277 
L 142.285932 238.4749 
L 142.569325 238.048731 
L 142.852717 238.901069 
L 143.419502 233.957508 
L 143.986287 233.147787 
L 144.26968 233.190404 
L 144.553073 233.403489 
L 144.836465 233.019937 
L 145.119858 235.321249 
L 145.686643 237.068542 
L 145.970036 239.071537 
L 146.253428 238.901069 
L 146.536821 240.435277 
L 147.103606 245.421455 
L 147.670391 246.103325 
L 148.237176 245.805007 
L 148.520569 244.995286 
L 148.803961 241.372849 
L 149.087354 239.923875 
L 149.370747 221.300289 
L 149.654139 223.090199 
L 149.937532 227.564973 
L 150.220924 215.760092 
L 150.504317 211.455785 
L 150.787709 224.752258 
L 151.071102 201.014644 
L 151.354495 209.069239 
L 151.637887 227.394506 
L 151.92128 229.866286 
L 152.204672 227.053571 
L 152.488065 227.522356 
L 152.771458 226.670018 
L 153.05485 224.709641 
L 153.338243 224.539173 
L 153.621635 226.073382 
L 154.188421 232.380683 
L 154.755206 234.76723 
L 155.321991 238.730601 
L 155.605383 239.369855 
L 155.888776 238.687984 
L 156.455561 230.07937 
L 156.738954 229.781052 
L 157.022346 228.16161 
L 157.305739 224.624407 
L 157.589132 223.473751 
L 157.872524 224.113004 
L 158.155917 225.093193 
L 158.439309 224.965342 
L 158.722702 224.198238 
L 159.006094 224.027771 
L 159.289487 224.155621 
L 159.57288 232.039748 
L 159.856272 236.642373 
L 160.423057 234.255827 
L 160.70645 231.656196 
L 160.989843 231.357878 
L 161.556628 234.596762 
L 161.84002 234.468911 
L 162.973591 227.564973 
L 163.256983 230.803858 
L 163.540376 226.92572 
L 163.823768 229.908903 
L 164.107161 227.692824 
L 164.390554 228.118993 
L 164.673946 226.329083 
L 164.957339 226.797869 
L 165.240731 226.158616 
L 165.524124 226.158616 
L 165.807517 225.561979 
L 166.090909 226.627402 
L 166.374302 229.823669 
L 166.657694 235.406483 
L 166.941087 236.429289 
L 167.507872 233.446106 
L 167.791265 230.249838 
L 168.074657 192.874816 
L 168.35805 189.763783 
L 168.641442 199.608287 
L 168.924835 201.270346 
L 169.208228 203.912594 
L 169.775013 222.493562 
L 170.058405 225.050576 
L 170.341798 226.286466 
L 170.62519 225.093193 
L 170.908583 226.030765 
L 171.191976 225.988148 
L 171.475368 225.604596 
L 171.758761 222.706647 
L 172.042153 221.087204 
L 172.325546 220.405334 
L 172.608939 220.149633 
L 172.892331 223.175433 
L 173.175724 228.800863 
L 173.459116 231.997131 
L 173.742509 233.829658 
L 174.592687 218.956359 
L 174.876079 221.257672 
L 175.442864 231.826663 
L 176.00965 227.991142 
L 176.293042 222.578796 
L 176.576435 107.8541 
L 176.859827 221.641224 
L 177.14322 220.149633 
L 177.426612 220.405334 
L 177.710005 219.552996 
L 177.993398 219.851314 
L 178.27679 219.339912 
L 178.560183 219.552996 
L 178.843575 219.382528 
L 179.126968 219.467762 
L 179.410361 218.572807 
L 179.693753 218.274489 
L 179.977146 223.857303 
L 180.260538 231.656196 
L 180.543931 232.551151 
L 180.827324 232.508534 
L 181.394109 228.630396 
L 181.960894 226.414317 
L 182.244286 225.434128 
L 182.811072 222.195244 
L 183.094464 221.896926 
L 183.377857 222.919731 
L 184.228035 211.11485 
L 184.511427 210.347746 
L 184.79482 208.728303 
L 185.078212 209.452791 
L 185.361605 208.600453 
L 185.644997 208.259517 
L 185.92839 207.449796 
L 186.211783 208.216901 
L 186.495175 207.662881 
L 187.06196 216.399345 
L 187.345353 217.592619 
L 187.628746 217.336917 
L 188.195531 213.117844 
L 188.478923 215.802709 
L 188.762316 216.484579 
L 189.329101 211.881954 
L 189.612494 212.052422 
L 190.179279 214.225883 
L 190.462671 212.052422 
L 190.746064 211.029616 
L 191.312849 209.87896 
L 191.596242 207.662881 
L 191.879634 207.023627 
L 192.163027 207.620264 
L 192.44642 210.347746 
L 192.729812 209.708492 
L 193.296597 207.407179 
L 193.57999 209.538024 
L 194.146775 215.504391 
L 194.430168 216.228878 
L 194.996953 214.865137 
L 195.280345 216.441962 
L 195.847131 214.609436 
L 196.130523 211.626253 
L 196.413916 210.944382 
L 196.697308 210.646064 
L 196.980701 211.839337 
L 197.264093 210.688681 
L 197.547486 207.279329 
L 197.830879 206.29914 
L 198.114271 206.512225 
L 198.397664 205.915588 
L 198.681056 204.978016 
L 199.247842 205.318951 
L 199.531234 204.807548 
L 199.814627 205.659886 
L 200.098019 203.912594 
L 200.381412 203.614275 
L 200.664804 204.296146 
L 200.948197 207.321946 
L 201.514982 215.291306 
L 201.798375 212.691675 
L 202.081767 212.691675 
L 202.36516 213.927565 
L 202.648553 213.927565 
L 202.931945 215.163455 
L 203.215338 212.308123 
L 203.49873 210.688681 
L 203.782123 209.836343 
L 204.065515 206.554841 
L 204.348908 206.256523 
L 204.632301 204.935399 
L 204.915693 204.807548 
L 205.199086 205.233717 
L 205.482478 206.597458 
L 205.765871 209.87896 
L 206.049264 209.069239 
L 206.332656 207.875965 
L 206.616049 210.00681 
L 206.899441 209.538024 
L 207.182834 209.87896 
L 207.466227 210.00681 
L 207.749619 211.79672 
L 208.033012 211.157467 
L 208.316404 211.711486 
L 208.599797 211.583636 
L 208.883189 211.157467 
L 209.166582 212.563824 
L 209.449975 212.734292 
L 210.583545 203.95521 
L 210.866938 204.637081 
L 211.15033 206.384374 
L 211.717115 205.361568 
L 212.000508 206.29914 
L 212.2839 206.256523 
L 212.567293 146.592862 
L 212.850686 54.327273 
L 213.134078 79.172926 
L 213.417471 92.980802 
L 213.984256 178.427687 
L 214.267649 193.300985 
L 214.551041 197.605292 
L 214.834434 206.597458 
L 215.117826 225.68983 
L 215.401219 220.447951 
L 215.684611 205.830354 
L 215.968004 199.650904 
L 216.251397 197.605292 
L 216.534789 145.143888 
L 216.818182 194.835194 
L 217.101574 195.815382 
L 217.384967 197.349591 
L 217.66836 196.284168 
L 217.951752 183.158163 
L 218.235145 145.442206 
L 218.518537 181.368253 
L 219.085322 189.593315 
L 219.652108 192.065095 
L 219.9355 192.704349 
L 220.502285 194.281174 
L 220.785678 194.920428 
L 221.069071 195.090895 
L 221.635856 198.074078 
L 222.202641 202.889788 
L 222.486034 202.378385 
L 222.769426 203.188106 
L 223.052819 203.315957 
L 223.336211 202.761937 
L 223.619604 199.395202 
L 224.186389 195.602298 
L 224.469782 195.133512 
L 224.753174 192.150329 
L 225.036567 192.150329 
L 225.319959 190.829205 
L 225.603352 192.150329 
L 226.170137 191.297991 
L 226.45353 191.681543 
L 226.736922 191.681543 
L 227.020315 191.425842 
L 227.303707 191.809394 
L 227.870493 198.500247 
L 228.437278 192.448647 
L 228.72067 191.553692 
L 229.004063 192.107712 
L 229.287456 194.664726 
L 229.570848 195.30398 
L 229.854241 193.51407 
L 230.137633 195.474447 
L 230.421026 196.156318 
L 230.987811 193.173135 
L 231.271204 193.51407 
L 231.554596 195.389213 
L 231.837989 196.113701 
L 232.121381 194.835194 
L 232.404774 194.19594 
L 232.688167 194.963044 
L 232.971559 193.641921 
L 233.254952 195.176129 
L 233.538344 197.988844 
L 234.10513 193.471453 
L 234.388522 194.281174 
L 234.671915 196.241551 
L 234.955307 196.838188 
L 235.522092 193.855005 
L 235.805485 193.471453 
L 236.088878 195.133512 
L 236.37227 194.877811 
L 236.655663 192.576498 
L 237.222448 189.678549 
L 237.505841 190.232569 
L 237.789233 192.320797 
L 238.639411 187.846022 
L 238.922803 188.400042 
L 239.206196 188.314808 
L 239.489589 189.081912 
L 239.772981 188.954061 
L 240.056374 189.25238 
L 240.339766 187.803405 
L 240.623159 187.931256 
L 240.906552 185.11854 
L 241.189944 186.439664 
L 241.473337 192.96005 
L 242.040122 186.269197 
L 242.606907 186.695366 
L 242.8903 187.931256 
L 243.173692 185.075924 
L 244.02387 163.937941 
L 244.307263 161.849713 
L 244.590655 157.886341 
L 245.15744 145.186505 
L 245.440833 132.401434 
L 245.724225 127.116939 
L 246.574403 137.089294 
L 246.857796 136.322189 
L 247.141188 136.748358 
L 247.424581 136.876209 
L 247.707974 135.853403 
L 247.991366 136.833592 
L 248.274759 138.708736 
L 248.558151 134.148727 
L 248.841544 141.81977 
L 249.124937 163.170837 
L 249.691722 142.459023 
L 249.975114 126.733387 
L 250.258507 129.333018 
L 250.541899 141.478834 
L 250.825292 144.078465 
L 251.108685 140.967431 
L 251.392077 141.308367 
L 251.67547 127.969277 
L 251.958862 121.235807 
L 252.242255 130.696758 
L 252.525648 130.909843 
L 252.80904 134.191344 
L 253.092433 138.879203 
L 253.375825 139.092288 
L 253.659218 139.816775 
L 253.94261 141.137899 
L 254.226003 141.393601 
L 254.509396 142.885192 
L 254.792788 143.567062 
L 255.076181 150.428383 
L 255.359573 153.795119 
L 255.642966 153.028014 
L 255.926359 144.802953 
L 256.209751 140.924815 
L 256.493144 139.390606 
L 256.776536 143.567062 
L 257.059929 144.675102 
L 257.343321 146.976414 
L 257.626714 147.104265 
L 257.910107 146.635479 
L 258.193499 147.487817 
L 258.476892 146.805947 
L 258.760284 145.825758 
L 259.043677 146.635479 
L 259.32707 145.910992 
L 259.610462 145.655291 
L 259.893855 146.124076 
L 260.46064 148.510623 
L 260.744033 147.956603 
L 261.027425 146.422395 
L 261.310818 145.697907 
L 261.59421 148.936792 
L 261.877603 156.181665 
L 262.160995 155.798113 
L 262.444388 150.854552 
L 262.727781 151.323338 
L 263.011173 152.644462 
L 263.577958 150.428383 
L 263.861351 151.536423 
L 264.144744 156.096431 
L 264.428136 158.610828 
L 264.711529 167.475144 
L 264.994921 172.503938 
L 265.278314 170.41571 
L 265.561706 170.074775 
L 265.845099 170.160008 
L 266.128492 171.353282 
L 266.411884 170.330476 
L 266.695277 170.671411 
L 266.978669 171.225431 
L 267.262062 171.395898 
L 267.828847 167.304676 
L 268.11224 166.196637 
L 268.679025 169.265053 
L 268.962417 172.759639 
L 269.24581 173.100574 
L 269.529203 171.182814 
L 269.812595 170.41571 
L 270.095988 170.628794 
L 270.37938 169.648606 
L 270.662773 166.494955 
L 270.946166 165.003363 
L 271.229558 164.619811 
L 271.512951 165.386915 
L 271.796343 164.491961 
L 272.079736 165.131214 
L 272.363128 164.449344 
L 272.929914 163.511772 
L 273.213306 163.852707 
L 273.496699 163.682239 
L 273.780091 161.89233 
L 274.063484 161.039992 
L 274.346877 164.023175 
L 274.630269 164.875513 
L 274.913662 164.36411 
L 275.197054 166.026169 
L 275.480447 170.41571 
L 275.76384 172.376087 
L 276.047232 171.608983 
L 276.330625 169.563372 
L 276.614017 168.838884 
L 276.89741 170.287859 
L 277.180802 170.628794 
L 277.747588 162.702051 
L 278.03098 158.86653 
L 278.881158 137.984248 
L 279.164551 132.87022 
L 279.731336 127.841426 
L 280.298121 125.45488 
L 280.581513 124.048522 
L 280.864906 125.199178 
L 281.148299 123.878054 
L 281.431691 124.34684 
L 281.715084 124.21899 
L 281.998476 124.517308 
L 282.281869 126.861237 
L 282.565262 130.739375 
L 282.848654 131.463863 
L 283.132047 132.827603 
L 283.415439 135.384618 
L 283.698832 140.02986 
L 283.982224 140.370795 
L 284.54901 138.23995 
L 285.399187 172.120386 
L 285.965973 177.916284 
L 286.249365 189.081912 
L 286.532758 190.530887 
L 286.81615 190.616121 
L 287.099543 190.403036 
L 287.666328 188.527892 
L 287.949721 188.272191 
L 288.233113 189.294997 
L 288.799898 185.246391 
L 289.083291 190.403036 
L 289.366684 192.192946 
L 289.650076 189.593315 
L 290.216861 188.570509 
L 290.500254 191.553692 
L 290.783647 191.297991 
L 291.350432 185.757794 
L 291.633824 185.757794 
L 291.917217 186.013495 
L 292.200609 188.229574 
L 292.484002 187.078918 
L 292.767395 184.053118 
L 293.33418 182.51891 
L 293.617572 182.604143 
L 293.900965 182.51891 
L 294.184358 183.158163 
L 294.46775 182.433676 
L 295.034535 187.292002 
L 295.317928 183.712183 
L 295.60132 182.348442 
L 295.884713 188.272191 
L 296.168106 190.232569 
L 296.451498 190.147335 
L 296.734891 188.783594 
L 297.018283 188.272191 
L 297.301676 187.334619 
L 297.585069 185.075924 
L 297.868461 181.837039 
L 298.151854 181.922273 
L 298.435246 184.905456 
L 298.718639 184.862839 
L 299.002031 170.287859 
L 299.285424 175.955907 
L 299.568817 175.870673 
L 300.135602 181.325636 
L 300.418994 180.899467 
L 300.702387 180.089746 
L 300.98578 181.453487 
L 301.269172 181.240402 
L 301.552565 183.840033 
L 301.835957 184.692371 
L 302.11935 184.308819 
L 302.402743 184.820222 
L 302.686135 186.098729 
L 302.969528 183.030312 
L 303.25292 183.626949 
L 303.536313 173.100574 
L 303.819705 171.09758 
L 304.103098 175.785439 
L 304.386491 177.404881 
L 304.669883 178.214603 
L 305.236668 178.38507 
L 305.520061 179.450493 
L 305.803454 179.322642 
L 306.086846 181.197786 
L 306.370239 177.660583 
L 306.937024 181.709188 
L 307.220416 182.007507 
L 307.787202 183.20078 
L 308.070594 182.177974 
L 308.353987 182.689377 
L 308.637379 182.348442 
L 308.920772 181.453487 
L 309.204165 180.984701 
L 309.487557 182.902462 
L 310.054342 183.712183 
L 310.337735 181.325636 
L 310.621127 181.069935 
L 311.187913 182.604143 
L 311.471305 182.774611 
L 311.754698 185.757794 
L 312.03809 186.90845 
L 312.321483 183.7548 
L 312.604876 183.072929 
L 312.888268 183.115546 
L 313.171661 184.479287 
L 313.455053 182.774611 
L 313.738446 182.817228 
L 314.021838 183.072929 
L 314.305231 186.056112 
L 314.588624 185.885645 
L 314.872016 186.482281 
L 315.155409 183.925267 
L 315.722194 185.416859 
L 316.005587 185.928262 
L 316.288979 189.508081 
L 316.572372 188.954061 
L 316.855764 187.078918 
L 317.139157 185.970878 
L 317.42255 186.269197 
L 317.705942 189.593315 
L 318.272727 188.740977 
L 318.55612 187.803405 
L 318.839512 187.888639 
L 319.406298 185.843028 
L 319.68969 189.167146 
L 319.973083 189.721166 
L 320.256475 189.550698 
L 320.539868 189.806399 
L 320.823261 189.124529 
L 321.106653 186.823216 
L 321.390046 189.806399 
L 321.673438 191.297991 
L 321.956831 191.084907 
L 322.240223 190.062101 
L 322.807009 186.22658 
L 323.373794 193.215752 
L 323.657186 193.641921 
L 323.940579 194.74996 
L 324.507364 190.573504 
L 324.790757 191.425842 
L 325.074149 193.002667 
L 325.357542 193.300985 
L 325.640934 193.343602 
L 325.924327 193.599304 
L 326.20772 193.684537 
L 326.491112 192.533881 
L 326.774505 193.599304 
L 327.057897 195.176129 
L 327.34129 195.133512 
L 327.624683 195.644915 
L 327.908075 201.824365 
L 328.191468 213.501396 
L 328.47486 218.40234 
L 329.325038 217.422151 
L 329.608431 215.419157 
L 329.891823 220.3201 
L 330.458608 209.836343 
L 330.742001 209.410174 
L 331.025394 209.282323 
L 331.308786 210.688681 
L 331.592179 210.773915 
L 331.875571 209.069239 
L 332.158964 211.11485 
L 332.442357 211.413168 
L 332.725749 211.924571 
L 333.009142 211.668869 
L 333.292534 209.452791 
L 333.575927 209.708492 
L 333.859319 209.026622 
L 334.142712 208.856154 
L 334.426105 209.708492 
L 334.709497 209.921577 
L 334.99289 210.518213 
L 335.559675 206.895777 
L 335.843068 207.279329 
L 336.409853 206.469608 
L 336.693245 208.856154 
L 336.976638 208.856154 
L 337.543423 210.859148 
L 337.826816 210.305129 
L 338.110208 211.285317 
L 338.676993 209.026622 
L 338.960386 209.836343 
L 339.243779 209.495408 
L 339.527171 210.347746 
L 339.810564 208.685686 
L 343.211275 201.057261 
L 343.494667 201.312963 
L 343.77806 200.673709 
L 344.061453 202.932405 
L 344.344845 203.230723 
L 344.628238 205.020633 
L 344.91163 205.361568 
L 345.478415 203.315957 
L 346.045201 206.256523 
L 346.895378 207.449796 
L 347.178771 206.767926 
L 347.462164 204.637081 
L 347.745556 201.185112 
L 348.028949 201.398196 
L 348.312341 202.250534 
L 348.595734 201.057261 
L 348.879126 200.545858 
L 349.162519 200.418008 
L 349.445912 200.418008 
L 349.729304 199.991839 
L 350.012697 197.77576 
L 350.579482 206.086055 
L 350.862875 204.679698 
L 351.146267 204.551847 
L 351.42966 204.892782 
L 351.713052 205.489419 
L 351.996445 205.020633 
L 352.279837 204.892782 
L 352.56323 205.105867 
L 352.846623 206.597458 
L 353.130015 206.895777 
L 353.413408 207.961199 
L 353.6968 206.384374 
L 354.263586 205.532036 
L 354.830371 202.889788 
L 355.113763 202.080067 
L 355.680549 203.017639 
L 355.963941 203.102872 
L 356.247334 201.35558 
L 356.814119 202.165301 
L 357.097511 207.705498 
L 357.380904 210.731298 
L 357.664297 210.134661 
L 357.947689 208.344751 
L 358.231082 211.072233 
L 358.514474 208.302134 
L 358.797867 207.364563 
L 359.08126 205.830354 
L 359.364652 206.000822 
L 359.648045 206.98101 
L 359.931437 206.341757 
L 360.498222 204.338763 
L 360.781615 205.659886 
L 361.065008 205.915588 
L 361.3484 205.574653 
L 361.631793 205.020633 
L 361.915185 204.978016 
L 362.198578 205.872971 
L 362.481971 205.702503 
L 362.765363 206.043439 
L 363.048756 206.043439 
L 363.332148 205.318951 
L 363.615541 205.659886 
L 363.898933 211.2427 
L 364.182326 213.373545 
L 364.465719 211.583636 
L 364.749111 211.370551 
L 365.032504 210.901765 
L 365.315896 213.884948 
L 365.599289 212.862143 
L 365.882682 210.603447 
L 366.166074 209.410174 
L 366.732859 208.302134 
L 367.016252 209.410174 
L 367.299644 206.725309 
L 367.86643 205.191101 
L 368.149822 204.807548 
L 368.433215 204.168295 
L 368.716607 204.083061 
L 369 203.571658 
L 369.283393 204.040444 
L 369.566785 205.020633 
L 369.850178 207.492413 
L 370.13357 207.790732 
L 370.416963 207.449796 
L 370.700356 212.137655 
L 370.983748 214.737286 
L 371.267141 214.098033 
L 371.550533 213.884948 
L 371.833926 213.842331 
L 372.117318 211.967188 
L 372.400711 211.79672 
L 373.250889 208.898771 
L 373.534281 208.003816 
L 373.817674 208.08905 
L 374.101067 207.023627 
L 374.384459 206.640075 
L 374.951244 203.443808 
L 375.234637 203.315957 
L 375.518029 205.233717 
L 375.801422 205.61727 
L 376.084815 206.256523 
L 377.218385 205.659886 
L 377.501778 207.321946 
L 377.78517 208.174284 
L 378.068563 211.029616 
L 378.635348 210.688681 
L 378.91874 211.626253 
L 379.202133 212.052422 
L 379.485526 211.455785 
L 379.768918 207.875965 
L 380.052311 207.194095 
L 380.335703 204.551847 
L 380.619096 204.807548 
L 380.902489 205.276334 
L 381.185881 204.210912 
L 381.469274 204.551847 
L 381.752666 206.767926 
L 382.036059 206.554841 
L 382.319451 207.236712 
L 382.886237 209.964193 
L 383.169629 210.219895 
L 383.453022 209.665875 
L 383.736414 210.432979 
L 384.019807 210.816531 
L 384.3032 213.884948 
L 384.586592 215.163455 
L 385.153377 211.711486 
L 385.43677 208.515219 
L 385.720163 207.662881 
L 386.003555 209.111855 
L 386.286948 211.455785 
L 386.57034 212.691675 
L 386.853733 212.052422 
L 387.137125 212.862143 
L 387.420518 213.245695 
L 387.703911 211.967188 
L 387.987303 211.327934 
L 388.270696 211.072233 
L 388.554088 211.327934 
L 388.837481 209.836343 
L 389.120874 209.708492 
L 389.687659 211.498402 
L 390.821229 208.429985 
L 391.388014 218.743275 
L 391.954799 216.186261 
L 392.238192 215.547007 
L 392.521585 216.101027 
L 393.08837 216.569813 
L 393.371762 215.802709 
L 393.655155 214.694669 
L 394.22194 213.842331 
L 394.505333 212.691675 
L 395.072118 212.009805 
L 396.489081 208.472602 
L 396.772473 210.56083 
L 397.622651 224.155621 
L 397.906044 226.712635 
L 398.472829 236.983308 
L 398.756221 236.344055 
L 399.606399 231.144793 
L 399.889792 230.249838 
L 400.173184 230.462923 
L 400.456577 228.587779 
L 400.73997 225.68983 
L 401.023362 224.922726 
L 401.306755 224.624407 
L 401.590147 223.3459 
L 402.440325 222.280478 
L 402.723718 222.493562 
L 403.573895 221.385523 
L 403.857288 221.300289 
L 404.140681 224.070388 
L 404.424073 224.539173 
L 404.990858 231.102176 
L 405.274251 231.613579 
L 405.557643 231.485728 
L 405.841036 232.97732 
L 407.257999 225.050576 
L 407.541392 227.60759 
L 408.674962 222.450945 
L 409.241747 221.342906 
L 409.52514 219.893931 
L 409.808532 219.595613 
L 410.091925 219.467762 
L 410.65871 219.936548 
L 410.942103 221.044588 
L 411.225495 220.916737 
L 411.508888 222.536179 
L 412.075673 228.417311 
L 412.359066 229.312266 
L 412.642458 229.610585 
L 412.925851 228.374694 
L 413.209243 228.246844 
L 413.492636 227.351889 
L 413.776028 227.266655 
L 414.059421 228.204227 
L 414.342814 225.902914 
L 414.626206 225.306278 
L 414.909599 225.561979 
L 415.192991 223.857303 
L 415.476384 223.090199 
L 415.759777 224.240855 
L 416.043169 223.3459 
L 416.326562 223.21805 
L 416.609954 222.024776 
L 416.893347 222.749264 
L 417.176739 221.129821 
L 417.743525 221.811692 
L 418.026917 220.575802 
L 418.31031 225.519362 
L 419.44388 234.298444 
L 419.727273 233.019937 
L 420.860843 225.775064 
L 421.144236 227.650207 
L 421.427628 227.692824 
L 421.711021 225.647213 
L 422.277806 223.985154 
L 422.844591 221.001971 
L 423.127984 223.772069 
L 423.411376 223.857303 
L 423.694769 223.004965 
L 424.544947 225.263661 
L 424.828339 225.68983 
L 425.111732 230.846475 
L 425.395124 233.318255 
L 425.678517 231.315261 
L 425.96191 231.272644 
L 426.245302 231.102176 
L 426.528695 230.420306 
L 426.812087 228.971331 
L 427.09548 226.797869 
L 427.378873 227.096187 
L 427.662265 228.033759 
L 427.945658 227.47974 
L 428.22905 224.880109 
L 429.079228 226.883103 
L 429.362621 226.073382 
L 429.646013 225.775064 
L 429.929406 223.89992 
L 430.212798 223.175433 
L 430.496191 224.326089 
L 430.779584 225.988148 
L 431.062976 224.880109 
L 431.346369 225.348895 
L 431.913154 227.735441 
L 432.196546 226.797869 
L 432.479939 229.013948 
L 433.046724 231.059559 
L 433.330117 231.698813 
L 433.613509 231.230027 
L 433.896902 230.420306 
L 434.180295 229.994137 
L 434.463687 228.417311 
L 434.74708 227.650207 
L 435.030472 228.118993 
L 435.313865 227.991142 
L 435.597257 228.417311 
L 435.88065 226.073382 
L 436.164043 224.794875 
L 436.447435 225.519362 
L 436.730828 227.053571 
L 437.01422 227.351889 
L 437.297613 227.266655 
L 437.581006 227.053571 
L 437.864398 227.010954 
L 438.147791 225.860297 
L 438.431183 226.073382 
L 438.714576 224.837492 
L 438.997969 228.587779 
L 439.281361 227.437123 
L 439.564754 224.027771 
L 439.848146 217.763086 
L 440.131539 218.572807 
L 440.414931 218.871126 
L 440.981717 220.362717 
L 441.265109 222.024776 
L 441.548502 222.749264 
L 441.831894 225.093193 
L 442.115287 226.3717 
L 442.682072 230.164604 
L 442.965465 230.761241 
L 443.248857 231.698813 
L 443.53225 232.167599 
L 443.815642 232.338066 
L 444.099035 232.295449 
L 444.382428 232.679001 
L 444.66582 231.74143 
L 444.949213 230.164604 
L 445.232605 227.650207 
L 445.515998 227.991142 
L 445.799391 227.60759 
L 446.366176 228.16161 
L 446.932961 227.181421 
L 447.499746 228.886097 
L 447.783139 231.144793 
L 448.349924 227.309272 
L 448.633316 223.601602 
L 448.916709 221.982159 
L 449.200102 218.743275 
L 450.050279 190.189952 
L 450.333672 192.448647 
L 450.617064 184.734988 
L 450.900457 188.442659 
L 451.18385 190.189952 
L 451.750635 204.210912 
L 452.034027 205.74512 
L 452.31742 209.623258 
L 452.884205 219.595613 
L 453.167598 219.766081 
L 453.45099 222.195244 
L 453.734383 223.473751 
L 454.017776 223.473751 
L 454.301168 223.985154 
L 454.584561 226.115999 
L 454.867953 226.456934 
L 455.151346 225.902914 
L 455.718131 220.149633 
L 456.001524 219.723464 
L 456.284916 219.893931 
L 456.568309 218.828509 
L 457.135094 217.890937 
L 457.418487 218.061405 
L 457.701879 218.487574 
L 457.985272 217.550002 
L 458.268664 217.464768 
L 458.552057 217.763086 
L 458.835449 217.635236 
L 459.402235 218.700658 
L 459.685627 218.444957 
L 459.96902 218.53019 
L 460.252412 217.379534 
L 460.535805 217.081216 
L 460.819198 218.061405 
L 461.10259 216.527196 
L 461.385983 216.868131 
L 461.669375 217.805703 
L 461.952768 218.018788 
L 462.519553 215.717475 
L 462.802946 215.248689 
L 463.086338 215.973176 
L 463.369731 216.271495 
L 463.653123 218.615424 
L 464.219909 218.785892 
L 464.503301 220.3201 
L 464.786694 220.959354 
L 465.353479 221.257672 
L 465.636872 220.618419 
L 465.920264 220.916737 
L 466.203657 223.004965 
L 466.487049 223.942537 
L 466.770442 222.962348 
L 467.053834 223.558985 
L 468.187405 217.2943 
L 468.75419 219.510379 
L 469.037583 217.763086 
L 469.320975 219.041593 
L 469.604368 218.274489 
L 469.88776 218.146638 
L 470.454545 217.422151 
L 470.737938 217.592619 
L 471.304723 217.2943 
L 471.588116 216.05841 
L 471.871508 217.379534 
L 472.154901 217.464768 
L 472.438294 217.209067 
L 472.721686 218.572807 
L 473.005079 223.558985 
L 473.288471 224.070388 
L 473.571864 222.450945 
L 473.855256 223.857303 
L 474.705434 220.916737 
L 474.988827 221.470757 
L 475.272219 221.598607 
L 475.555612 222.408328 
L 475.839005 221.215055 
L 476.122397 221.087204 
L 476.40579 219.254678 
L 476.972575 218.700658 
L 477.255967 218.018788 
L 477.822753 218.53019 
L 478.106145 217.805703 
L 478.389538 216.441962 
L 478.67293 216.995982 
L 478.956323 218.615424 
L 479.239716 217.464768 
L 479.523108 219.851314 
L 479.806501 223.942537 
L 480.089893 224.496557 
L 480.373286 224.45394 
L 480.656679 222.195244 
L 480.940071 222.280478 
L 481.223464 222.024776 
L 481.506856 220.277483 
L 481.790249 222.66403 
L 482.073641 224.070388 
L 482.640427 220.87412 
L 482.923819 220.746269 
L 483.490604 219.808697 
L 484.05739 220.703652 
L 484.340782 220.3201 
L 484.624175 218.615424 
L 484.907567 218.998976 
L 485.19096 218.658041 
L 485.474352 217.464768 
L 485.757745 218.444957 
L 486.041138 217.677852 
L 486.607923 224.027771 
L 486.891315 225.391511 
L 487.174708 225.902914 
L 487.458101 225.561979 
L 487.741493 223.558985 
L 488.024886 222.621413 
L 488.308278 222.450945 
L 488.591671 220.788886 
L 488.875063 223.644219 
L 489.158456 223.942537 
L 489.441849 223.090199 
L 489.725241 220.959354 
L 490.008634 221.257672 
L 490.292026 220.703652 
L 490.575419 220.746269 
L 490.858812 221.939542 
L 491.142204 222.152627 
L 491.425597 222.578796 
L 491.708989 222.408328 
L 491.992382 223.21805 
L 492.275775 224.709641 
L 492.559167 224.965342 
L 492.84256 223.89992 
L 493.125952 223.303283 
L 493.409345 228.971331 
L 493.97613 224.027771 
L 494.259523 224.027771 
L 494.542915 224.752258 
L 494.826308 224.027771 
L 495.393093 219.936548 
L 495.676486 223.388517 
L 495.959878 225.178427 
L 496.243271 224.45394 
L 496.810056 221.726458 
L 497.376841 222.877114 
L 498.227019 227.181421 
L 498.510411 228.118993 
L 498.793804 227.010954 
L 499.077197 227.010954 
L 499.360589 226.158616 
L 499.643982 223.558985 
L 499.927374 222.578796 
L 500.210767 222.919731 
L 500.494159 221.726458 
L 500.777552 221.641224 
L 501.060945 220.362717 
L 501.344337 210.262512 
L 501.62773 205.148484 
L 501.911122 189.422847 
L 502.194515 193.940239 
L 502.477908 184.692371 
L 502.7613 184.394053 
L 503.044693 193.087901 
L 503.328085 195.644915 
L 503.89487 206.554841 
L 504.178263 208.856154 
L 504.461656 209.751109 
L 504.745048 211.370551 
L 505.028441 210.731298 
L 505.311833 213.075227 
L 505.595226 213.416162 
L 505.878619 213.501396 
L 506.162011 214.396351 
L 506.445404 214.2685 
L 506.728796 216.143644 
L 507.012189 222.493562 
L 507.295582 223.516368 
L 507.862367 223.303283 
L 508.145759 221.641224 
L 508.712544 210.134661 
L 508.995937 206.98101 
L 509.27933 206.341757 
L 509.562722 211.967188 
L 510.4129 214.481585 
L 510.696293 215.93056 
L 510.979685 214.907754 
L 511.54647 207.833348 
L 512.113255 207.620264 
L 512.396648 208.941388 
L 512.680041 213.970182 
L 512.963433 215.37654 
L 513.813611 222.66403 
L 514.097004 218.274489 
L 514.380396 211.881954 
L 514.663789 211.327934 
L 514.947181 215.248689 
L 515.230574 221.598607 
L 515.797359 221.513373 
L 516.080752 219.63823 
L 524.299137 219.510379 
L 524.582529 219.63823 
L 525.149314 218.956359 
L 525.432707 218.231872 
L 525.7161 215.120838 
L 526.282885 213.757098 
L 526.566277 212.052422 
L 526.84967 212.308123 
L 527.133062 214.694669 
L 527.416455 223.303283 
L 527.699848 223.132816 
L 527.98324 223.814686 
L 528.266633 223.985154 
L 529.116811 216.015793 
L 529.400203 217.379534 
L 529.683596 219.425145 
L 529.966988 219.382528 
L 530.250381 219.979165 
L 530.533773 219.680847 
L 530.817166 218.231872 
L 531.100559 217.890937 
L 531.667344 214.055416 
L 531.950736 214.865137 
L 532.234129 214.950371 
L 532.517522 215.802709 
L 532.800914 215.547007 
L 533.367699 214.396351 
L 533.651092 215.078222 
L 534.50127 223.132816 
L 534.784662 219.254678 
L 535.068055 218.359723 
L 535.63484 211.754103 
L 535.918233 215.37654 
L 536.201625 216.143644 
L 536.485018 154.73269 
L 536.76841 159.846718 
L 537.051803 252.964646 
L 537.335196 276.574409 
L 537.618588 276.872727 
L 537.901981 274.528798 
L 538.185373 235.108165 
L 538.468766 218.743275 
L 538.752158 215.717475 
L 539.035551 215.333923 
L 539.318944 213.160461 
L 539.602336 213.58663 
L 540.169121 213.03261 
L 540.452514 213.842331 
L 541.019299 211.754103 
L 541.302692 212.052422 
L 541.869477 215.206072 
L 542.436262 194.366408 
L 543.003047 218.743275 
L 543.853225 219.851314 
L 544.136618 218.743275 
L 544.42001 218.828509 
L 544.703403 217.84832 
L 545.270188 212.137655 
L 545.55358 211.413168 
L 545.836973 213.58663 
L 546.120366 216.740281 
L 546.403758 216.825514 
L 546.687151 213.117844 
L 546.970543 211.79672 
L 547.253936 215.887943 
L 547.537329 218.061405 
L 547.820721 216.05841 
L 548.104114 212.90476 
L 548.387506 213.416162 
L 548.954292 217.976171 
L 549.237684 214.865137 
L 549.521077 214.098033 
L 549.804469 217.507385 
L 550.087862 217.720469 
L 550.654647 213.075227 
L 550.93804 211.668869 
L 551.221432 213.458779 
L 551.788217 209.154472 
L 552.07161 208.941388 
L 552.355003 207.875965 
L 552.638395 207.53503 
L 552.921788 207.748115 
L 553.20518 207.151478 
L 553.488573 207.833348 
L 553.771965 206.554841 
L 554.055358 207.108861 
L 554.622143 210.518213 
L 555.188928 213.117844 
L 555.472321 215.419157 
L 556.039106 217.805703 
L 556.322499 219.297295 
L 556.889284 209.32494 
L 557.172676 208.429985 
L 557.456069 207.023627 
L 557.739462 207.194095 
L 558.306247 212.819526 
L 558.589639 213.884948 
L 558.873032 213.629247 
L 559.156425 214.438968 
L 559.439817 211.79672 
L 559.72321 205.872971 
L 560.006602 204.935399 
L 560.289995 204.935399 
L 560.85678 210.816531 
L 561.140173 213.03261 
L 561.99035 203.401191 
L 562.557136 201.781749 
L 562.840528 194.281174 
L 563.407313 200.418008 
L 563.690706 200.119689 
L 563.974099 200.119689 
L 564.257491 200.503242 
L 564.540884 200.588475 
L 564.824276 201.952216 
L 565.107669 199.267351 
L 565.391061 193.045284 
L 565.957847 186.354431 
L 566.241239 185.970878 
L 566.524632 186.652749 
L 566.808024 187.632938 
L 567.091417 187.675554 
L 567.37481 190.701354 
L 567.658202 192.27818 
L 567.941595 195.048278 
L 568.224987 199.949222 
L 568.791772 197.434825 
L 569.358558 189.976867 
L 569.64195 188.01649 
L 569.925343 190.616121 
L 570.208735 194.323791 
L 570.775521 195.261363 
L 571.058913 194.664726 
L 571.625698 187.547704 
L 571.909091 186.141346 
L 572.192483 186.311814 
L 572.475876 186.311814 
L 572.759269 187.036301 
L 573.326054 191.681543 
L 573.609446 194.153323 
L 573.892839 194.920428 
L 574.176232 195.218746 
L 574.459624 193.982856 
L 574.743017 190.275185 
L 575.026409 189.678549 
L 575.309802 189.508081 
L 575.593195 188.655743 
L 575.876587 188.69836 
L 576.15998 189.465464 
L 576.443372 194.238557 
L 576.726765 196.582487 
L 577.010157 197.903611 
L 577.29355 197.562675 
L 577.576943 198.159312 
L 578.143728 190.743971 
L 578.42712 190.403036 
L 578.710513 190.573504 
L 579.277298 188.911445 
L 579.844083 189.891633 
L 580.127476 192.150329 
L 580.694261 193.51407 
L 580.977654 195.090895 
L 581.544439 196.241551 
L 581.827831 195.772766 
L 582.111224 194.238557 
L 582.678009 197.434825 
L 582.961402 197.77576 
L 583.244794 198.969033 
L 583.811579 195.644915 
L 584.094972 195.602298 
L 584.378365 193.386219 
L 584.661757 192.917433 
L 584.94515 194.110706 
L 585.228542 195.900616 
L 585.511935 196.156318 
L 585.795328 194.920428 
L 586.362113 194.06809 
L 586.645505 194.153323 
L 586.928898 192.40603 
L 587.212291 191.681543 
L 587.495683 194.110706 
L 587.779076 194.835194 
L 588.062468 196.752954 
L 588.629253 199.182118 
L 588.912646 198.500247 
L 589.196039 196.241551 
L 589.479431 196.838188 
L 589.762824 192.832199 
L 590.329609 188.527892 
L 590.613002 190.573504 
L 591.179787 201.099878 
L 591.463179 199.778754 
L 591.746572 199.480436 
L 592.313357 198.45763 
L 592.59675 198.32978 
L 592.880142 199.309968 
L 593.163535 197.22174 
L 593.73032 196.326785 
L 594.013713 195.090895 
L 594.297105 195.048278 
L 594.580498 193.855005 
L 594.86389 193.684537 
L 595.147283 193.769771 
L 595.430675 195.133512 
L 595.997461 196.795571 
L 596.280853 196.838188 
L 596.847638 196.369402 
L 597.131031 194.06809 
L 597.697816 178.598155 
L 597.981209 182.902462 
L 598.264601 183.840033 
L 599.398172 190.786588 
L 599.681564 193.002667 
L 599.964957 193.343602 
L 600.248349 193.982856 
L 600.531742 193.855005 
L 600.815135 192.96005 
L 601.098527 191.084907 
L 601.665312 190.616121 
L 601.948705 191.553692 
L 602.232098 191.809394 
L 602.51549 192.27818 
L 602.798883 194.536875 
L 603.365668 193.002667 
L 603.64906 192.235563 
L 603.932453 191.809394 
L 604.215846 186.865833 
L 604.499238 189.93425 
L 604.782631 189.849016 
L 605.066023 188.954061 
L 605.349416 188.740977 
L 605.632809 189.891633 
L 605.916201 191.638926 
L 606.199594 194.281174 
L 606.482986 194.451642 
L 606.766379 191.638926 
L 607.049771 190.104718 
L 607.333164 190.275185 
L 607.899949 193.002667 
L 608.183342 195.517064 
L 608.466734 195.517064 
L 608.750127 194.409025 
L 609.03352 196.198935 
L 609.600305 192.363414 
L 609.883697 193.300985 
L 610.16709 193.599304 
L 610.450482 193.300985 
L 610.733875 192.619115 
L 611.017268 191.425842 
L 611.30066 189.38023 
L 611.584053 189.976867 
L 611.867445 191.809394 
L 612.434231 192.746966 
L 612.717623 192.150329 
L 613.001016 192.150329 
L 613.284408 192.27818 
L 614.134586 195.644915 
L 614.417979 195.389213 
L 614.701371 195.43183 
L 614.984764 195.815382 
L 615.268156 195.857999 
L 615.551549 195.687532 
L 615.834942 196.838188 
L 616.401727 193.471453 
L 616.685119 194.025473 
L 616.968512 197.733143 
L 617.251905 199.736137 
L 617.535297 200.290157 
L 617.81869 199.778754 
L 618.102082 197.733143 
L 618.385475 198.585481 
L 618.668867 195.815382 
L 618.95226 195.602298 
L 619.235653 195.559681 
L 619.802438 194.920428 
L 620.08583 195.602298 
L 620.369223 197.051273 
L 620.652616 196.582487 
L 620.936008 197.264357 
L 621.219401 196.923422 
L 621.502793 196.326785 
L 621.786186 196.923422 
L 622.069578 197.988844 
L 622.352971 197.818377 
L 622.636364 199.054267 
L 622.636364 199.054267 
" clip-path="url(#pf12a8cff38)" style="fill: none; stroke: #1f77b4; stroke-width: 1.5; stroke-linecap: square"/>
   </g>
   <g id="line2d_12">
    <path d="M 115.363636 251.502227 
L 115.930422 251.541614 
L 116.213814 257.482038 
L 119.614525 257.7145 
L 119.897918 256.908016 
L 120.18131 255.608547 
L 120.464703 255.313144 
L 120.748095 255.696139 
L 121.881666 258.745925 
L 122.165058 259.145045 
L 122.731844 259.401243 
L 123.015236 256.501849 
L 124.998984 256.643615 
L 127.549518 256.738978 
L 127.83291 256.963399 
L 128.116303 255.905266 
L 128.399695 254.399419 
L 128.96648 249.396009 
L 129.249873 249.505263 
L 129.533266 246.739588 
L 130.100051 250.310073 
L 130.666836 252.255491 
L 130.950229 252.709059 
L 131.517014 253.005334 
L 132.650584 253.114761 
L 132.933977 253.079906 
L 133.500762 252.05874 
L 133.784154 252.332475 
L 134.067547 252.346491 
L 134.35094 252.662836 
L 134.917725 253.748532 
L 135.767902 254.458142 
L 136.334688 254.623421 
L 136.61808 244.569117 
L 137.184865 244.789377 
L 139.735399 245.032624 
L 143.13611 245.326739 
L 143.419502 236.727607 
L 148.237176 237.342039 
L 148.520569 237.571933 
L 148.803961 237.120944 
L 149.087354 235.444175 
L 149.370747 235.024335 
L 149.937532 227.614706 
L 150.220924 227.564973 
L 150.504317 228.821654 
L 150.787709 219.805145 
L 151.071102 206.860557 
L 151.354495 203.49354 
L 151.637887 205.359316 
L 151.92128 210.087936 
L 152.204672 219.561684 
L 152.488065 222.404223 
L 152.771458 223.175545 
L 153.05485 224.411468 
L 153.621635 224.463046 
L 153.905028 224.946287 
L 154.471813 224.151121 
L 154.755206 223.552839 
L 155.321991 221.315831 
L 155.888776 219.983732 
L 156.738954 219.805433 
L 157.022346 229.781052 
L 157.589132 229.787056 
L 160.70645 230.499423 
L 163.540376 231.153748 
L 163.823768 226.92572 
L 167.507872 227.780616 
L 167.791265 227.442335 
L 168.074657 226.133602 
L 168.641442 216.245497 
L 169.208228 217.699735 
L 169.49162 218.709394 
L 169.775013 220.571908 
L 170.058405 221.073278 
L 170.341798 221.039249 
L 170.62519 226.286466 
L 171.191976 226.311965 
L 174.309294 227.079206 
L 177.14322 227.781746 
L 177.426612 220.149633 
L 183.944642 221.973314 
L 184.228035 214.183267 
L 190.746064 215.336576 
L 191.029457 211.029616 
L 197.547486 212.240904 
L 197.830879 207.279329 
L 204.348908 208.559565 
L 204.632301 206.256523 
L 204.915693 205.41465 
L 205.482478 206.325602 
L 206.049264 206.560043 
L 206.332656 206.449098 
L 206.616049 207.086311 
L 206.899441 205.085577 
L 207.466227 198.039794 
L 208.033012 203.627274 
L 208.599797 205.036322 
L 209.166582 206.963977 
L 210.01676 207.065647 
L 210.866938 207.356746 
L 211.15033 207.270459 
L 211.433723 207.884543 
L 211.717115 205.77159 
L 212.000508 202.208385 
L 212.567293 204.534425 
L 213.134078 174.885672 
L 213.700863 179.74147 
L 213.984256 184.595992 
L 214.267649 199.476272 
L 214.551041 199.76787 
L 215.117826 201.759697 
L 215.401219 202.207889 
L 215.684611 202.047827 
L 215.968004 202.120673 
L 216.534789 197.513832 
L 216.818182 198.454865 
L 217.384967 194.042731 
L 217.951752 198.14796 
L 218.235145 199.213031 
L 218.80193 200.482259 
L 219.368715 201.799178 
L 219.9355 202.133362 
L 222.486034 202.646332 
L 229.004063 203.894178 
L 238.356018 205.61772 
L 238.639411 189.849016 
L 245.15744 191.449703 
L 245.440833 145.186505 
L 249.975114 146.685554 
L 250.258507 146.515091 
L 250.825292 145.150723 
L 251.108685 142.787011 
L 251.392077 136.277068 
L 251.67547 134.332342 
L 251.958862 137.442117 
L 252.242255 121.235807 
L 252.525648 118.064062 
L 253.092433 119.692163 
L 253.375825 119.550315 
L 253.659218 119.645744 
L 254.792788 119.4983 
L 258.760284 119.051287 
L 259.043677 145.825758 
L 281.431691 147.607916 
L 287.382936 148.120733 
L 287.666328 189.38023 
L 292.767395 190.578153 
L 293.050787 184.053118 
L 297.585069 185.234396 
L 297.868461 184.255293 
L 298.435246 180.34175 
L 298.718639 180.756245 
L 299.002031 182.069692 
L 299.852209 183.928951 
L 300.135602 183.901896 
L 301.269172 184.919567 
L 302.686135 185.358289 
L 303.819705 185.588795 
L 304.103098 185.864097 
L 304.669883 182.932062 
L 305.236668 183.055741 
L 305.520061 183.755874 
L 306.086846 183.283252 
L 306.370239 184.206411 
L 306.653631 184.620184 
L 307.503809 184.786364 
L 322.807009 188.325259 
L 339.810564 192.097049 
L 343.211275 201.419505 
L 343.77806 206.664099 
L 344.344845 209.280661 
L 344.91163 210.335672 
L 345.195023 210.594086 
L 345.478415 210.636335 
L 346.611986 211.263742 
L 348.595734 211.659002 
L 350.579482 211.984137 
L 350.862875 200.52455 
L 356.247334 201.850711 
L 356.530726 202.634087 
L 363.048756 204.238255 
L 363.332148 205.191101 
L 369.850178 206.796308 
L 370.13357 203.976519 
L 376.6516 205.582044 
L 376.934992 204.423996 
L 377.78517 204.653215 
L 378.068563 204.640032 
L 378.351955 204.462267 
L 378.635348 204.147308 
L 379.202133 202.635101 
L 379.485526 202.329625 
L 379.768918 201.682369 
L 380.052311 200.595946 
L 380.335703 199.955988 
L 380.619096 199.593371 
L 380.902489 199.670783 
L 381.469274 201.859946 
L 382.036059 203.487779 
L 382.602844 204.202593 
L 383.169629 204.571132 
L 383.453022 204.681114 
L 383.736414 207.172786 
L 386.003555 207.626616 
L 390.254444 208.376673 
L 390.537836 209.282323 
L 395.35551 210.105717 
L 395.922296 209.332447 
L 396.772473 210.465446 
L 397.055866 210.57685 
L 397.339259 210.432979 
L 397.622651 210.758294 
L 397.906044 210.767103 
L 398.472829 210.447133 
L 399.039614 210.44718 
L 403.857288 211.707485 
L 404.140681 222.323095 
L 411.79228 224.198212 
L 412.075673 219.574305 
L 412.642458 219.644163 
L 417.743525 220.912481 
L 418.026917 221.236364 
L 431.062976 224.441444 
L 431.346369 224.240855 
L 433.330117 224.692027 
L 433.613509 224.465396 
L 434.180295 223.350096 
L 434.74708 221.890315 
L 435.030472 221.48034 
L 435.313865 221.9843 
L 435.597257 223.008551 
L 437.01422 225.135707 
L 437.297613 225.275389 
L 437.864398 224.889747 
L 438.147791 226.797869 
L 438.431183 226.867495 
L 439.564754 226.096076 
L 439.848146 225.36431 
L 440.131539 224.950704 
L 440.698324 225.520721 
L 440.981717 225.75 
L 441.548502 226.004051 
L 442.682072 227.747639 
L 443.815642 227.994857 
L 444.099035 227.874697 
L 444.66582 226.327154 
L 444.949213 225.61977 
L 445.232605 225.761818 
L 445.799391 227.163135 
L 446.082783 227.665631 
L 446.366176 231.911897 
L 447.216353 231.977382 
L 447.499746 231.935919 
L 447.783139 226.861795 
L 448.633316 227.033859 
L 448.916709 226.603894 
L 449.200102 224.879019 
L 449.483494 224.199997 
L 450.050279 227.298659 
L 450.333672 227.731445 
L 450.617064 226.550747 
L 451.18385 222.61458 
L 451.467242 223.45661 
L 451.750635 194.132015 
L 452.31742 195.857287 
L 452.884205 197.69574 
L 453.45099 198.744772 
L 456.001524 199.81258 
L 460.819198 200.754795 
L 465.070086 201.561256 
L 465.353479 218.67935 
L 471.871508 219.620402 
L 472.154901 217.464768 
L 478.67293 218.425606 
L 478.956323 218.040096 
L 485.474352 218.951134 
L 485.757745 220.277483 
L 492.275775 221.153622 
L 492.559167 222.323095 
L 499.077197 223.158452 
L 499.360589 225.902914 
L 499.643982 225.899871 
L 499.927374 225.657567 
L 500.494159 224.105659 
L 500.777552 223.132046 
L 501.344337 220.876077 
L 501.62773 220.201632 
L 501.911122 218.061912 
L 502.477908 210.643526 
L 502.7613 209.722894 
L 503.328085 211.439579 
L 503.611478 209.776146 
L 503.89487 209.502934 
L 504.745048 220.277289 
L 505.311833 223.254742 
L 505.595226 224.288663 
L 505.878619 224.401966 
L 506.162011 211.903262 
L 510.4129 212.526303 
L 510.696293 212.214377 
L 510.979685 212.146571 
L 511.263078 212.637431 
L 511.54647 211.031868 
L 511.829863 207.440935 
L 512.113255 206.804689 
L 512.680041 210.773089 
L 512.963433 207.81204 
L 513.813611 208.17269 
L 514.663789 208.289502 
L 515.230574 208.110535 
L 515.797359 207.364347 
L 516.080752 207.785307 
L 525.432707 210.104978 
L 533.084307 211.371858 
L 533.367699 214.524202 
L 535.068055 214.987741 
L 535.918233 214.544019 
L 536.201625 214.563359 
L 536.485018 214.722709 
L 537.051803 214.261578 
L 537.901981 215.223382 
L 538.185373 215.304943 
L 539.035551 215.966251 
L 539.885729 216.191461 
L 540.169121 215.738783 
L 546.120366 216.654983 
L 546.403758 216.581415 
L 546.687151 216.335416 
L 546.970543 211.39186 
L 548.104114 211.639776 
L 550.93804 212.050102 
L 551.504825 211.752442 
L 552.07161 211.314022 
L 552.355003 211.206201 
L 553.20518 210.336563 
L 553.488573 210.815879 
L 553.771965 208.323443 
L 554.338751 208.886802 
L 554.905536 209.175699 
L 555.188928 209.149616 
L 555.472321 208.886555 
L 556.039106 207.313589 
L 556.322499 207.440169 
L 556.889284 208.465704 
L 557.172676 208.521434 
L 557.456069 207.904556 
L 557.739462 207.925662 
L 558.306247 207.662059 
L 558.589639 205.772452 
L 559.156425 197.220815 
L 559.439817 198.106202 
L 560.006602 204.684858 
L 560.573388 206.227946 
L 560.85678 214.14065 
L 561.140173 214.908757 
L 561.423565 212.92602 
L 561.706958 209.707736 
L 561.99035 208.428168 
L 562.273743 209.456514 
L 562.557136 211.07908 
L 562.840528 211.800856 
L 563.123921 210.624817 
L 563.407313 208.763056 
L 563.690706 208.875472 
L 564.824276 218.450189 
L 565.107669 218.874114 
L 565.674454 219.132375 
L 567.091417 219.350118 
L 567.37481 186.524898 
L 570.775521 187.251552 
L 571.058913 187.060674 
L 571.625698 186.155679 
L 571.909091 185.93368 
L 572.192483 185.976822 
L 573.892839 187.42602 
L 574.176232 186.972376 
L 580.694261 188.371511 
L 580.977654 189.465464 
L 587.495683 190.822219 
L 587.779076 194.451642 
L 594.297105 195.754709 
L 594.580498 197.392208 
L 594.86389 196.904732 
L 595.714068 192.225523 
L 595.997461 191.777757 
L 596.564246 193.141519 
L 597.131031 195.29761 
L 597.414424 195.578894 
L 597.697816 193.000751 
L 598.264601 185.550942 
L 598.547994 185.570176 
L 599.114779 192.356123 
L 599.398172 194.046059 
L 599.681564 194.792827 
L 600.248349 195.185932 
L 601.098527 195.461303 
L 601.38192 193.428836 
L 601.948705 193.461635 
L 602.232098 193.592908 
L 602.51549 193.558411 
L 602.798883 193.2768 
L 603.082275 193.191361 
L 603.64906 189.963672 
L 603.932453 189.687225 
L 604.215846 189.074948 
L 604.499238 188.938652 
L 604.782631 189.712978 
L 605.632809 193.249013 
L 606.199594 193.832381 
L 607.049771 194.079185 
L 607.899949 194.24955 
L 608.183342 191.766777 
L 610.16709 192.164149 
L 610.450482 192.089967 
L 610.733875 191.542505 
L 611.017268 190.475795 
L 611.30066 188.460333 
L 611.584053 187.556645 
L 612.150838 190.034866 
L 612.434231 189.472975 
L 612.717623 188.10654 
L 613.001016 188.00669 
L 613.567801 189.733292 
L 613.851193 190.75193 
L 614.134586 191.19556 
L 614.701371 191.484697 
L 614.984764 192.789583 
L 621.502793 194.495337 
L 621.786186 196.880805 
L 622.636364 197.043784 
L 622.636364 197.043784 
" clip-path="url(#pf12a8cff38)" style="fill: none; stroke: #ff7f0e; stroke-width: 1.5; stroke-linecap: square"/>
   </g>
   <g id="patch_3">
    <path d="M 90 288 
L 90 43.2 
" style="fill: none; stroke: #000000; stroke-width: 0.8; stroke-linejoin: miter; stroke-linecap: square"/>
   </g>
   <g id="patch_4">
    <path d="M 648 288 
L 648 43.2 
" style="fill: none; stroke: #000000; stroke-width: 0.8; stroke-linejoin: miter; stroke-linecap: square"/>
   </g>
   <g id="patch_5">
    <path d="M 90 288 
L 648 288 
" style="fill: none; stroke: #000000; stroke-width: 0.8; stroke-linejoin: miter; stroke-linecap: square"/>
   </g>
   <g id="patch_6">
    <path d="M 90 43.2 
L 648 43.2 
" style="fill: none; stroke: #000000; stroke-width: 0.8; stroke-linejoin: miter; stroke-linecap: square"/>
   </g>
   <g id="text_12">
    <!-- ARB025 -->
    <g transform="translate(345.1575 37.2) scale(0.12 -0.12)">
     <defs>
      <path id="DejaVuSans-41" d="M 2188 4044 
L 1331 1722 
L 3047 1722 
L 2188 4044 
z
M 1831 4666 
L 2547 4666 
L 4325 0 
L 3669 0 
L 3244 1197 
L 1141 1197 
L 716 0 
L 50 0 
L 1831 4666 
z
" transform="scale(0.015625)"/>
      <path id="DejaVuSans-52" d="M 2841 2188 
Q 3044 2119 3236 1894 
Q 3428 1669 3622 1275 
L 4263 0 
L 3584 0 
L 2988 1197 
Q 2756 1666 2539 1819 
Q 2322 1972 1947 1972 
L 1259 1972 
L 1259 0 
L 628 0 
L 628 4666 
L 2053 4666 
Q 2853 4666 3247 4331 
Q 3641 3997 3641 3322 
Q 3641 2881 3436 2590 
Q 3231 2300 2841 2188 
z
M 1259 4147 
L 1259 2491 
L 2053 2491 
Q 2509 2491 2742 2702 
Q 2975 2913 2975 3322 
Q 2975 3731 2742 3939 
Q 2509 4147 2053 4147 
L 1259 4147 
z
" transform="scale(0.015625)"/>
      <path id="DejaVuSans-42" d="M 1259 2228 
L 1259 519 
L 2272 519 
Q 2781 519 3026 730 
Q 3272 941 3272 1375 
Q 3272 1813 3026 2020 
Q 2781 2228 2272 2228 
L 1259 2228 
z
M 1259 4147 
L 1259 2741 
L 2194 2741 
Q 2656 2741 2882 2914 
Q 3109 3088 3109 3444 
Q 3109 3797 2882 3972 
Q 2656 4147 2194 4147 
L 1259 4147 
z
M 628 4666 
L 2241 4666 
Q 2963 4666 3353 4366 
Q 3744 4066 3744 3513 
Q 3744 3084 3544 2831 
Q 3344 2578 2956 2516 
Q 3422 2416 3680 2098 
Q 3938 1781 3938 1306 
Q 3938 681 3513 340 
Q 3088 0 2303 0 
L 628 0 
L 628 4666 
z
" transform="scale(0.015625)"/>
     </defs>
     <use xlink:href="#DejaVuSans-41"/>
     <use xlink:href="#DejaVuSans-52" x="68.408203"/>
     <use xlink:href="#DejaVuSans-42" x="137.890625"/>
     <use xlink:href="#DejaVuSans-30" x="206.494141"/>
     <use xlink:href="#DejaVuSans-32" x="270.117188"/>
     <use xlink:href="#DejaVuSans-35" x="333.740234"/>
    </g>
   </g>
   <g id="legend_1">
    <g id="patch_7">
     <path d="M 559.04375 80.55625 
L 641 80.55625 
Q 643 80.55625 643 78.55625 
L 643 50.2 
Q 643 48.2 641 48.2 
L 559.04375 48.2 
Q 557.04375 48.2 557.04375 50.2 
L 557.04375 78.55625 
Q 557.04375 80.55625 559.04375 80.55625 
z
" style="fill: #ffffff; opacity: 0.8; stroke: #cccccc; stroke-linejoin: miter"/>
    </g>
    <g id="line2d_13">
     <path d="M 561.04375 56.298437 
L 571.04375 56.298437 
L 581.04375 56.298437 
" style="fill: none; stroke: #1f77b4; stroke-width: 1.5; stroke-linecap: square"/>
    </g>
    <g id="text_13">
     <!-- measured -->
     <g transform="translate(589.04375 59.798437) scale(0.1 -0.1)">
      <defs>
       <path id="DejaVuSans-6d" d="M 3328 2828 
Q 3544 3216 3844 3400 
Q 4144 3584 4550 3584 
Q 5097 3584 5394 3201 
Q 5691 2819 5691 2113 
L 5691 0 
L 5113 0 
L 5113 2094 
Q 5113 2597 4934 2840 
Q 4756 3084 4391 3084 
Q 3944 3084 3684 2787 
Q 3425 2491 3425 1978 
L 3425 0 
L 2847 0 
L 2847 2094 
Q 2847 2600 2669 2842 
Q 2491 3084 2119 3084 
Q 1678 3084 1418 2786 
Q 1159 2488 1159 1978 
L 1159 0 
L 581 0 
L 581 3500 
L 1159 3500 
L 1159 2956 
Q 1356 3278 1631 3431 
Q 1906 3584 2284 3584 
Q 2666 3584 2933 3390 
Q 3200 3197 3328 2828 
z
" transform="scale(0.015625)"/>
       <path id="DejaVuSans-61" d="M 2194 1759 
Q 1497 1759 1228 1600 
Q 959 1441 959 1056 
Q 959 750 1161 570 
Q 1363 391 1709 391 
Q 2188 391 2477 730 
Q 2766 1069 2766 1631 
L 2766 1759 
L 2194 1759 
z
M 3341 1997 
L 3341 0 
L 2766 0 
L 2766 531 
Q 2569 213 2275 61 
Q 1981 -91 1556 -91 
Q 1019 -91 701 211 
Q 384 513 384 1019 
Q 384 1609 779 1909 
Q 1175 2209 1959 2209 
L 2766 2209 
L 2766 2266 
Q 2766 2663 2505 2880 
Q 2244 3097 1772 3097 
Q 1472 3097 1187 3025 
Q 903 2953 641 2809 
L 641 3341 
Q 956 3463 1253 3523 
Q 1550 3584 1831 3584 
Q 2591 3584 2966 3190 
Q 3341 2797 3341 1997 
z
" transform="scale(0.015625)"/>
       <path id="DejaVuSans-75" d="M 544 1381 
L 544 3500 
L 1119 3500 
L 1119 1403 
Q 1119 906 1312 657 
Q 1506 409 1894 409 
Q 2359 409 2629 706 
Q 2900 1003 2900 1516 
L 2900 3500 
L 3475 3500 
L 3475 0 
L 2900 0 
L 2900 538 
Q 2691 219 2414 64 
Q 2138 -91 1772 -91 
Q 1169 -91 856 284 
Q 544 659 544 1381 
z
M 1991 3584 
L 1991 3584 
z
" transform="scale(0.015625)"/>
       <path id="DejaVuSans-64" d="M 2906 2969 
L 2906 4863 
L 3481 4863 
L 3481 0 
L 2906 0 
L 2906 525 
Q 2725 213 2448 61 
Q 2172 -91 1784 -91 
Q 1150 -91 751 415 
Q 353 922 353 1747 
Q 353 2572 751 3078 
Q 1150 3584 1784 3584 
Q 2172 3584 2448 3432 
Q 2725 3281 2906 2969 
z
M 947 1747 
Q 947 1113 1208 752 
Q 1469 391 1925 391 
Q 2381 391 2643 752 
Q 2906 1113 2906 1747 
Q 2906 2381 2643 2742 
Q 2381 3103 1925 3103 
Q 1469 3103 1208 2742 
Q 947 2381 947 1747 
z
" transform="scale(0.015625)"/>
      </defs>
      <use xlink:href="#DejaVuSans-6d"/>
      <use xlink:href="#DejaVuSans-65" x="97.412109"/>
      <use xlink:href="#DejaVuSans-61" x="158.935547"/>
      <use xlink:href="#DejaVuSans-73" x="220.214844"/>
      <use xlink:href="#DejaVuSans-75" x="272.314453"/>
      <use xlink:href="#DejaVuSans-72" x="335.693359"/>
      <use xlink:href="#DejaVuSans-65" x="374.556641"/>
      <use xlink:href="#DejaVuSans-64" x="436.080078"/>
     </g>
    </g>
    <g id="line2d_14">
     <path d="M 561.04375 70.976562 
L 571.04375 70.976562 
L 581.04375 70.976562 
" style="fill: none; stroke: #ff7f0e; stroke-width: 1.5; stroke-linecap: square"/>
    </g>
    <g id="text_14">
     <!-- predicted -->
     <g transform="translate(589.04375 74.476562) scale(0.1 -0.1)">
      <defs>
       <path id="DejaVuSans-70" d="M 1159 525 
L 1159 -1331 
L 581 -1331 
L 581 3500 
L 1159 3500 
L 1159 2969 
Q 1341 3281 1617 3432 
Q 1894 3584 2278 3584 
Q 2916 3584 3314 3078 
Q 3713 2572 3713 1747 
Q 3713 922 3314 415 
Q 2916 -91 2278 -91 
Q 1894 -91 1617 61 
Q 1341 213 1159 525 
z
M 3116 1747 
Q 3116 2381 2855 2742 
Q 2594 3103 2138 3103 
Q 1681 3103 1420 2742 
Q 1159 2381 1159 1747 
Q 1159 1113 1420 752 
Q 1681 391 2138 391 
Q 2594 391 2855 752 
Q 3116 1113 3116 1747 
z
" transform="scale(0.015625)"/>
       <path id="DejaVuSans-69" d="M 603 3500 
L 1178 3500 
L 1178 0 
L 603 0 
L 603 3500 
z
M 603 4863 
L 1178 4863 
L 1178 4134 
L 603 4134 
L 603 4863 
z
" transform="scale(0.015625)"/>
       <path id="DejaVuSans-63" d="M 3122 3366 
L 3122 2828 
Q 2878 2963 2633 3030 
Q 2388 3097 2138 3097 
Q 1578 3097 1268 2742 
Q 959 2388 959 1747 
Q 959 1106 1268 751 
Q 1578 397 2138 397 
Q 2388 397 2633 464 
Q 2878 531 3122 666 
L 3122 134 
Q 2881 22 2623 -34 
Q 2366 -91 2075 -91 
Q 1284 -91 818 406 
Q 353 903 353 1747 
Q 353 2603 823 3093 
Q 1294 3584 2113 3584 
Q 2378 3584 2631 3529 
Q 2884 3475 3122 3366 
z
" transform="scale(0.015625)"/>
      </defs>
      <use xlink:href="#DejaVuSans-70"/>
      <use xlink:href="#DejaVuSans-72" x="63.476562"/>
      <use xlink:href="#DejaVuSans-65" x="102.339844"/>
      <use xlink:href="#DejaVuSans-64" x="163.863281"/>
      <use xlink:href="#DejaVuSans-69" x="227.339844"/>
      <use xlink:href="#DejaVuSans-63" x="255.123047"/>
      <use xlink:href="#DejaVuSans-74" x="310.103516"/>
      <use xlink:href="#DejaVuSans-65" x="349.3125"/>
      <use xlink:href="#DejaVuSans-64" x="410.835938"/>
     </g>
    </g>
   </g>
  </g>
 </g>
 <defs>
  <clipPath id="pf12a8cff38">
   <rect x="90" y="43.2" width="558" height="244.8"/>
  </clipPath>
 </defs>
</svg>
