<?xml version="1.0" encoding="utf-8" standalone="no"?>
<!DOCTYPE svg PUBLIC "-//W3C//DTD SVG 1.1//EN"
  "http://www.w3.org/Graphics/SVG/1.1/DTD/svg11.dtd">
<svg xmlns:xlink="http://www.w3.org/1999/xlink" width="720pt" height="360pt" viewBox="0 0 720 360" xmlns="http://www.w3.org/2000/svg" version="1.1">
 <metadata>
  <rdf:RDF xmlns:dc="http://purl.org/dc/elements/1.1/" xmlns:cc="http://creativecommons.org/ns#" xmlns:rdf="http://www.w3.org/1999/02/22-rdf-syntax-ns#">
   <cc:Work>
    <dc:type rdf:resource="http://purl.org/dc/dcmitype/StillImage"/>
    <dc:date>2023-10-23T10:54:28.322093</dc:date>
    <dc:format>image/svg+xml</dc:format>
    <dc:creator>
     <cc:Agent>
      <dc:title>Matplotlib v3.7.1, https://matplotlib.org/</dc:title>
     </cc:Agent>
    </dc:creator>
   </cc:Work>
  </rdf:RDF>
 </metadata>
 <defs>
  <style type="text/css">*{stroke-linejoin: round; stroke-linecap: butt}</style>
 </defs>
 <g id="figure_1">
  <g id="patch_1">
   <path d="M 0 360 
L 720 360 
L 720 0 
L 0 0 
z
" style="fill: #ffffff"/>
  </g>
  <g id="axes_1">
   <g id="patch_2">
    <path d="M 90 288 
L 648 288 
L 648 43.2 
L 90 43.2 
z
" style="fill: #ffffff"/>
   </g>
   <g id="matplotlib.axis_1">
    <g id="xtick_1">
     <g id="line2d_1">
      <defs>
       <path id="m32ac89ade1" d="M 0 0 
L 0 3.5 
" style="stroke: #000000; stroke-width: 0.8"/>
      </defs>
      <g>
       <use xlink:href="#m32ac89ade1" x="149.370747" y="288" style="stroke: #000000; stroke-width: 0.8"/>
      </g>
     </g>
     <g id="text_1">
      <!-- 2023-08-15 -->
      <g transform="translate(87.727405 337.765903) rotate(-30) scale(0.12 -0.12)">
       <defs>
        <path id="DejaVuSans-32" d="M 1228 531 
L 3431 531 
L 3431 0 
L 469 0 
L 469 531 
Q 828 903 1448 1529 
Q 2069 2156 2228 2338 
Q 2531 2678 2651 2914 
Q 2772 3150 2772 3378 
Q 2772 3750 2511 3984 
Q 2250 4219 1831 4219 
Q 1534 4219 1204 4116 
Q 875 4013 500 3803 
L 500 4441 
Q 881 4594 1212 4672 
Q 1544 4750 1819 4750 
Q 2544 4750 2975 4387 
Q 3406 4025 3406 3419 
Q 3406 3131 3298 2873 
Q 3191 2616 2906 2266 
Q 2828 2175 2409 1742 
Q 1991 1309 1228 531 
z
" transform="scale(0.015625)"/>
        <path id="DejaVuSans-30" d="M 2034 4250 
Q 1547 4250 1301 3770 
Q 1056 3291 1056 2328 
Q 1056 1369 1301 889 
Q 1547 409 2034 409 
Q 2525 409 2770 889 
Q 3016 1369 3016 2328 
Q 3016 3291 2770 3770 
Q 2525 4250 2034 4250 
z
M 2034 4750 
Q 2819 4750 3233 4129 
Q 3647 3509 3647 2328 
Q 3647 1150 3233 529 
Q 2819 -91 2034 -91 
Q 1250 -91 836 529 
Q 422 1150 422 2328 
Q 422 3509 836 4129 
Q 1250 4750 2034 4750 
z
" transform="scale(0.015625)"/>
        <path id="DejaVuSans-33" d="M 2597 2516 
Q 3050 2419 3304 2112 
Q 3559 1806 3559 1356 
Q 3559 666 3084 287 
Q 2609 -91 1734 -91 
Q 1441 -91 1130 -33 
Q 819 25 488 141 
L 488 750 
Q 750 597 1062 519 
Q 1375 441 1716 441 
Q 2309 441 2620 675 
Q 2931 909 2931 1356 
Q 2931 1769 2642 2001 
Q 2353 2234 1838 2234 
L 1294 2234 
L 1294 2753 
L 1863 2753 
Q 2328 2753 2575 2939 
Q 2822 3125 2822 3475 
Q 2822 3834 2567 4026 
Q 2313 4219 1838 4219 
Q 1578 4219 1281 4162 
Q 984 4106 628 3988 
L 628 4550 
Q 988 4650 1302 4700 
Q 1616 4750 1894 4750 
Q 2613 4750 3031 4423 
Q 3450 4097 3450 3541 
Q 3450 3153 3228 2886 
Q 3006 2619 2597 2516 
z
" transform="scale(0.015625)"/>
        <path id="DejaVuSans-2d" d="M 313 2009 
L 1997 2009 
L 1997 1497 
L 313 1497 
L 313 2009 
z
" transform="scale(0.015625)"/>
        <path id="DejaVuSans-38" d="M 2034 2216 
Q 1584 2216 1326 1975 
Q 1069 1734 1069 1313 
Q 1069 891 1326 650 
Q 1584 409 2034 409 
Q 2484 409 2743 651 
Q 3003 894 3003 1313 
Q 3003 1734 2745 1975 
Q 2488 2216 2034 2216 
z
M 1403 2484 
Q 997 2584 770 2862 
Q 544 3141 544 3541 
Q 544 4100 942 4425 
Q 1341 4750 2034 4750 
Q 2731 4750 3128 4425 
Q 3525 4100 3525 3541 
Q 3525 3141 3298 2862 
Q 3072 2584 2669 2484 
Q 3125 2378 3379 2068 
Q 3634 1759 3634 1313 
Q 3634 634 3220 271 
Q 2806 -91 2034 -91 
Q 1263 -91 848 271 
Q 434 634 434 1313 
Q 434 1759 690 2068 
Q 947 2378 1403 2484 
z
M 1172 3481 
Q 1172 3119 1398 2916 
Q 1625 2713 2034 2713 
Q 2441 2713 2670 2916 
Q 2900 3119 2900 3481 
Q 2900 3844 2670 4047 
Q 2441 4250 2034 4250 
Q 1625 4250 1398 4047 
Q 1172 3844 1172 3481 
z
" transform="scale(0.015625)"/>
        <path id="DejaVuSans-31" d="M 794 531 
L 1825 531 
L 1825 4091 
L 703 3866 
L 703 4441 
L 1819 4666 
L 2450 4666 
L 2450 531 
L 3481 531 
L 3481 0 
L 794 0 
L 794 531 
z
" transform="scale(0.015625)"/>
        <path id="DejaVuSans-35" d="M 691 4666 
L 3169 4666 
L 3169 4134 
L 1269 4134 
L 1269 2991 
Q 1406 3038 1543 3061 
Q 1681 3084 1819 3084 
Q 2600 3084 3056 2656 
Q 3513 2228 3513 1497 
Q 3513 744 3044 326 
Q 2575 -91 1722 -91 
Q 1428 -91 1123 -41 
Q 819 9 494 109 
L 494 744 
Q 775 591 1075 516 
Q 1375 441 1709 441 
Q 2250 441 2565 725 
Q 2881 1009 2881 1497 
Q 2881 1984 2565 2268 
Q 2250 2553 1709 2553 
Q 1456 2553 1204 2497 
Q 953 2441 691 2322 
L 691 4666 
z
" transform="scale(0.015625)"/>
       </defs>
       <use xlink:href="#DejaVuSans-32"/>
       <use xlink:href="#DejaVuSans-30" x="63.623047"/>
       <use xlink:href="#DejaVuSans-32" x="127.246094"/>
       <use xlink:href="#DejaVuSans-33" x="190.869141"/>
       <use xlink:href="#DejaVuSans-2d" x="254.492188"/>
       <use xlink:href="#DejaVuSans-30" x="290.576172"/>
       <use xlink:href="#DejaVuSans-38" x="354.199219"/>
       <use xlink:href="#DejaVuSans-2d" x="417.822266"/>
       <use xlink:href="#DejaVuSans-31" x="453.90625"/>
       <use xlink:href="#DejaVuSans-35" x="517.529297"/>
      </g>
     </g>
    </g>
    <g id="xtick_2">
     <g id="line2d_2">
      <g>
       <use xlink:href="#m32ac89ade1" x="264.994921" y="288" style="stroke: #000000; stroke-width: 0.8"/>
      </g>
     </g>
     <g id="text_2">
      <!-- 2023-09-01 -->
      <g transform="translate(203.35158 337.765903) rotate(-30) scale(0.12 -0.12)">
       <defs>
        <path id="DejaVuSans-39" d="M 703 97 
L 703 672 
Q 941 559 1184 500 
Q 1428 441 1663 441 
Q 2288 441 2617 861 
Q 2947 1281 2994 2138 
Q 2813 1869 2534 1725 
Q 2256 1581 1919 1581 
Q 1219 1581 811 2004 
Q 403 2428 403 3163 
Q 403 3881 828 4315 
Q 1253 4750 1959 4750 
Q 2769 4750 3195 4129 
Q 3622 3509 3622 2328 
Q 3622 1225 3098 567 
Q 2575 -91 1691 -91 
Q 1453 -91 1209 -44 
Q 966 3 703 97 
z
M 1959 2075 
Q 2384 2075 2632 2365 
Q 2881 2656 2881 3163 
Q 2881 3666 2632 3958 
Q 2384 4250 1959 4250 
Q 1534 4250 1286 3958 
Q 1038 3666 1038 3163 
Q 1038 2656 1286 2365 
Q 1534 2075 1959 2075 
z
" transform="scale(0.015625)"/>
       </defs>
       <use xlink:href="#DejaVuSans-32"/>
       <use xlink:href="#DejaVuSans-30" x="63.623047"/>
       <use xlink:href="#DejaVuSans-32" x="127.246094"/>
       <use xlink:href="#DejaVuSans-33" x="190.869141"/>
       <use xlink:href="#DejaVuSans-2d" x="254.492188"/>
       <use xlink:href="#DejaVuSans-30" x="290.576172"/>
       <use xlink:href="#DejaVuSans-39" x="354.199219"/>
       <use xlink:href="#DejaVuSans-2d" x="417.822266"/>
       <use xlink:href="#DejaVuSans-30" x="453.90625"/>
       <use xlink:href="#DejaVuSans-31" x="517.529297"/>
      </g>
     </g>
    </g>
    <g id="xtick_3">
     <g id="line2d_3">
      <g>
       <use xlink:href="#m32ac89ade1" x="360.21483" y="288" style="stroke: #000000; stroke-width: 0.8"/>
      </g>
     </g>
     <g id="text_3">
      <!-- 2023-09-15 -->
      <g transform="translate(298.571488 337.765903) rotate(-30) scale(0.12 -0.12)">
       <use xlink:href="#DejaVuSans-32"/>
       <use xlink:href="#DejaVuSans-30" x="63.623047"/>
       <use xlink:href="#DejaVuSans-32" x="127.246094"/>
       <use xlink:href="#DejaVuSans-33" x="190.869141"/>
       <use xlink:href="#DejaVuSans-2d" x="254.492188"/>
       <use xlink:href="#DejaVuSans-30" x="290.576172"/>
       <use xlink:href="#DejaVuSans-39" x="354.199219"/>
       <use xlink:href="#DejaVuSans-2d" x="417.822266"/>
       <use xlink:href="#DejaVuSans-31" x="453.90625"/>
       <use xlink:href="#DejaVuSans-35" x="517.529297"/>
      </g>
     </g>
    </g>
    <g id="xtick_4">
     <g id="line2d_4">
      <g>
       <use xlink:href="#m32ac89ade1" x="469.037583" y="288" style="stroke: #000000; stroke-width: 0.8"/>
      </g>
     </g>
     <g id="text_4">
      <!-- 2023-10-01 -->
      <g transform="translate(407.394241 337.765903) rotate(-30) scale(0.12 -0.12)">
       <use xlink:href="#DejaVuSans-32"/>
       <use xlink:href="#DejaVuSans-30" x="63.623047"/>
       <use xlink:href="#DejaVuSans-32" x="127.246094"/>
       <use xlink:href="#DejaVuSans-33" x="190.869141"/>
       <use xlink:href="#DejaVuSans-2d" x="254.492188"/>
       <use xlink:href="#DejaVuSans-31" x="290.576172"/>
       <use xlink:href="#DejaVuSans-30" x="354.199219"/>
       <use xlink:href="#DejaVuSans-2d" x="417.822266"/>
       <use xlink:href="#DejaVuSans-30" x="453.90625"/>
       <use xlink:href="#DejaVuSans-31" x="517.529297"/>
      </g>
     </g>
    </g>
    <g id="xtick_5">
     <g id="line2d_5">
      <g>
       <use xlink:href="#m32ac89ade1" x="564.257491" y="288" style="stroke: #000000; stroke-width: 0.8"/>
      </g>
     </g>
     <g id="text_5">
      <!-- 2023-10-15 -->
      <g transform="translate(502.614149 337.765903) rotate(-30) scale(0.12 -0.12)">
       <use xlink:href="#DejaVuSans-32"/>
       <use xlink:href="#DejaVuSans-30" x="63.623047"/>
       <use xlink:href="#DejaVuSans-32" x="127.246094"/>
       <use xlink:href="#DejaVuSans-33" x="190.869141"/>
       <use xlink:href="#DejaVuSans-2d" x="254.492188"/>
       <use xlink:href="#DejaVuSans-31" x="290.576172"/>
       <use xlink:href="#DejaVuSans-30" x="354.199219"/>
       <use xlink:href="#DejaVuSans-2d" x="417.822266"/>
       <use xlink:href="#DejaVuSans-31" x="453.90625"/>
       <use xlink:href="#DejaVuSans-35" x="517.529297"/>
      </g>
     </g>
    </g>
   </g>
   <g id="matplotlib.axis_2">
    <g id="ytick_1">
     <g id="line2d_6">
      <defs>
       <path id="md18c999754" d="M 0 0 
L -3.5 0 
" style="stroke: #000000; stroke-width: 0.8"/>
      </defs>
      <g>
       <use xlink:href="#md18c999754" x="90" y="282.646579" style="stroke: #000000; stroke-width: 0.8"/>
      </g>
     </g>
     <g id="text_6">
      <!-- 0.3 -->
      <g transform="translate(63.91625 287.205642) scale(0.12 -0.12)">
       <defs>
        <path id="DejaVuSans-2e" d="M 684 794 
L 1344 794 
L 1344 0 
L 684 0 
L 684 794 
z
" transform="scale(0.015625)"/>
       </defs>
       <use xlink:href="#DejaVuSans-30"/>
       <use xlink:href="#DejaVuSans-2e" x="63.623047"/>
       <use xlink:href="#DejaVuSans-33" x="95.410156"/>
      </g>
     </g>
    </g>
    <g id="ytick_2">
     <g id="line2d_7">
      <g>
       <use xlink:href="#md18c999754" x="90" y="244.288893" style="stroke: #000000; stroke-width: 0.8"/>
      </g>
     </g>
     <g id="text_7">
      <!-- 0.4 -->
      <g transform="translate(63.91625 248.847955) scale(0.12 -0.12)">
       <defs>
        <path id="DejaVuSans-34" d="M 2419 4116 
L 825 1625 
L 2419 1625 
L 2419 4116 
z
M 2253 4666 
L 3047 4666 
L 3047 1625 
L 3713 1625 
L 3713 1100 
L 3047 1100 
L 3047 0 
L 2419 0 
L 2419 1100 
L 313 1100 
L 313 1709 
L 2253 4666 
z
" transform="scale(0.015625)"/>
       </defs>
       <use xlink:href="#DejaVuSans-30"/>
       <use xlink:href="#DejaVuSans-2e" x="63.623047"/>
       <use xlink:href="#DejaVuSans-34" x="95.410156"/>
      </g>
     </g>
    </g>
    <g id="ytick_3">
     <g id="line2d_8">
      <g>
       <use xlink:href="#md18c999754" x="90" y="205.931206" style="stroke: #000000; stroke-width: 0.8"/>
      </g>
     </g>
     <g id="text_8">
      <!-- 0.5 -->
      <g transform="translate(63.91625 210.490269) scale(0.12 -0.12)">
       <use xlink:href="#DejaVuSans-30"/>
       <use xlink:href="#DejaVuSans-2e" x="63.623047"/>
       <use xlink:href="#DejaVuSans-35" x="95.410156"/>
      </g>
     </g>
    </g>
    <g id="ytick_4">
     <g id="line2d_9">
      <g>
       <use xlink:href="#md18c999754" x="90" y="167.57352" style="stroke: #000000; stroke-width: 0.8"/>
      </g>
     </g>
     <g id="text_9">
      <!-- 0.6 -->
      <g transform="translate(63.91625 172.132582) scale(0.12 -0.12)">
       <defs>
        <path id="DejaVuSans-36" d="M 2113 2584 
Q 1688 2584 1439 2293 
Q 1191 2003 1191 1497 
Q 1191 994 1439 701 
Q 1688 409 2113 409 
Q 2538 409 2786 701 
Q 3034 994 3034 1497 
Q 3034 2003 2786 2293 
Q 2538 2584 2113 2584 
z
M 3366 4563 
L 3366 3988 
Q 3128 4100 2886 4159 
Q 2644 4219 2406 4219 
Q 1781 4219 1451 3797 
Q 1122 3375 1075 2522 
Q 1259 2794 1537 2939 
Q 1816 3084 2150 3084 
Q 2853 3084 3261 2657 
Q 3669 2231 3669 1497 
Q 3669 778 3244 343 
Q 2819 -91 2113 -91 
Q 1303 -91 875 529 
Q 447 1150 447 2328 
Q 447 3434 972 4092 
Q 1497 4750 2381 4750 
Q 2619 4750 2861 4703 
Q 3103 4656 3366 4563 
z
" transform="scale(0.015625)"/>
       </defs>
       <use xlink:href="#DejaVuSans-30"/>
       <use xlink:href="#DejaVuSans-2e" x="63.623047"/>
       <use xlink:href="#DejaVuSans-36" x="95.410156"/>
      </g>
     </g>
    </g>
    <g id="ytick_5">
     <g id="line2d_10">
      <g>
       <use xlink:href="#md18c999754" x="90" y="129.215833" style="stroke: #000000; stroke-width: 0.8"/>
      </g>
     </g>
     <g id="text_10">
      <!-- 0.7 -->
      <g transform="translate(63.91625 133.774896) scale(0.12 -0.12)">
       <defs>
        <path id="DejaVuSans-37" d="M 525 4666 
L 3525 4666 
L 3525 4397 
L 1831 0 
L 1172 0 
L 2766 4134 
L 525 4134 
L 525 4666 
z
" transform="scale(0.015625)"/>
       </defs>
       <use xlink:href="#DejaVuSans-30"/>
       <use xlink:href="#DejaVuSans-2e" x="63.623047"/>
       <use xlink:href="#DejaVuSans-37" x="95.410156"/>
      </g>
     </g>
    </g>
    <g id="ytick_6">
     <g id="line2d_11">
      <g>
       <use xlink:href="#md18c999754" x="90" y="90.858147" style="stroke: #000000; stroke-width: 0.8"/>
      </g>
     </g>
     <g id="text_11">
      <!-- 0.8 -->
      <g transform="translate(63.91625 95.417209) scale(0.12 -0.12)">
       <use xlink:href="#DejaVuSans-30"/>
       <use xlink:href="#DejaVuSans-2e" x="63.623047"/>
       <use xlink:href="#DejaVuSans-38" x="95.410156"/>
      </g>
     </g>
    </g>
    <g id="ytick_7">
     <g id="line2d_12">
      <g>
       <use xlink:href="#md18c999754" x="90" y="52.50046" style="stroke: #000000; stroke-width: 0.8"/>
      </g>
     </g>
     <g id="text_12">
      <!-- 0.9 -->
      <g transform="translate(63.91625 57.059522) scale(0.12 -0.12)">
       <use xlink:href="#DejaVuSans-30"/>
       <use xlink:href="#DejaVuSans-2e" x="63.623047"/>
       <use xlink:href="#DejaVuSans-39" x="95.410156"/>
      </g>
     </g>
    </g>
    <g id="text_13">
     <!-- Meters -->
     <g transform="translate(57.836562 182.6875) rotate(-90) scale(0.1 -0.1)">
      <defs>
       <path id="DejaVuSans-4d" d="M 628 4666 
L 1569 4666 
L 2759 1491 
L 3956 4666 
L 4897 4666 
L 4897 0 
L 4281 0 
L 4281 4097 
L 3078 897 
L 2444 897 
L 1241 4097 
L 1241 0 
L 628 0 
L 628 4666 
z
" transform="scale(0.015625)"/>
       <path id="DejaVuSans-65" d="M 3597 1894 
L 3597 1613 
L 953 1613 
Q 991 1019 1311 708 
Q 1631 397 2203 397 
Q 2534 397 2845 478 
Q 3156 559 3463 722 
L 3463 178 
Q 3153 47 2828 -22 
Q 2503 -91 2169 -91 
Q 1331 -91 842 396 
Q 353 884 353 1716 
Q 353 2575 817 3079 
Q 1281 3584 2069 3584 
Q 2775 3584 3186 3129 
Q 3597 2675 3597 1894 
z
M 3022 2063 
Q 3016 2534 2758 2815 
Q 2500 3097 2075 3097 
Q 1594 3097 1305 2825 
Q 1016 2553 972 2059 
L 3022 2063 
z
" transform="scale(0.015625)"/>
       <path id="DejaVuSans-74" d="M 1172 4494 
L 1172 3500 
L 2356 3500 
L 2356 3053 
L 1172 3053 
L 1172 1153 
Q 1172 725 1289 603 
Q 1406 481 1766 481 
L 2356 481 
L 2356 0 
L 1766 0 
Q 1100 0 847 248 
Q 594 497 594 1153 
L 594 3053 
L 172 3053 
L 172 3500 
L 594 3500 
L 594 4494 
L 1172 4494 
z
" transform="scale(0.015625)"/>
       <path id="DejaVuSans-72" d="M 2631 2963 
Q 2534 3019 2420 3045 
Q 2306 3072 2169 3072 
Q 1681 3072 1420 2755 
Q 1159 2438 1159 1844 
L 1159 0 
L 581 0 
L 581 3500 
L 1159 3500 
L 1159 2956 
Q 1341 3275 1631 3429 
Q 1922 3584 2338 3584 
Q 2397 3584 2469 3576 
Q 2541 3569 2628 3553 
L 2631 2963 
z
" transform="scale(0.015625)"/>
       <path id="DejaVuSans-73" d="M 2834 3397 
L 2834 2853 
Q 2591 2978 2328 3040 
Q 2066 3103 1784 3103 
Q 1356 3103 1142 2972 
Q 928 2841 928 2578 
Q 928 2378 1081 2264 
Q 1234 2150 1697 2047 
L 1894 2003 
Q 2506 1872 2764 1633 
Q 3022 1394 3022 966 
Q 3022 478 2636 193 
Q 2250 -91 1575 -91 
Q 1294 -91 989 -36 
Q 684 19 347 128 
L 347 722 
Q 666 556 975 473 
Q 1284 391 1588 391 
Q 1994 391 2212 530 
Q 2431 669 2431 922 
Q 2431 1156 2273 1281 
Q 2116 1406 1581 1522 
L 1381 1569 
Q 847 1681 609 1914 
Q 372 2147 372 2553 
Q 372 3047 722 3315 
Q 1072 3584 1716 3584 
Q 2034 3584 2315 3537 
Q 2597 3491 2834 3397 
z
" transform="scale(0.015625)"/>
      </defs>
      <use xlink:href="#DejaVuSans-4d"/>
      <use xlink:href="#DejaVuSans-65" x="86.279297"/>
      <use xlink:href="#DejaVuSans-74" x="147.802734"/>
      <use xlink:href="#DejaVuSans-65" x="187.011719"/>
      <use xlink:href="#DejaVuSans-72" x="248.535156"/>
      <use xlink:href="#DejaVuSans-73" x="289.648438"/>
     </g>
    </g>
   </g>
   <g id="line2d_13">
    <path d="M 115.363636 272.705592 
L 115.647029 273.357506 
L 115.930422 272.462723 
L 116.213814 272.718375 
L 116.497207 273.421419 
L 117.063992 275.850117 
L 117.347384 275.402726 
L 117.91417 272.20707 
L 118.480955 273.804898 
L 118.764347 271.248373 
L 119.04774 271.3762 
L 119.614525 273.549245 
L 119.897918 273.165767 
L 120.18131 272.270983 
L 120.464703 274.06055 
L 120.748095 273.485332 
L 121.031488 272.079244 
L 121.314881 272.782288 
L 121.598273 272.334896 
L 121.881666 272.270983 
L 122.165058 272.974027 
L 122.448451 274.188377 
L 122.731844 274.699681 
L 123.015236 275.786204 
L 123.582021 275.594465 
L 123.865414 276.297509 
L 124.432199 276.425335 
L 124.715592 276.872727 
L 124.998984 276.744901 
L 125.565769 274.444029 
L 125.849162 273.677072 
L 126.132555 273.740985 
L 126.415947 272.718375 
L 126.69934 273.101854 
L 126.982732 271.887505 
L 127.83291 269.522719 
L 128.96648 265.62402 
L 130.100051 262.044885 
L 130.383443 261.53358 
L 130.666836 262.811843 
L 130.950229 260.830536 
L 131.233621 261.405754 
L 131.517014 260.319231 
L 131.800406 260.638797 
L 132.083799 260.255318 
L 132.367191 260.127492 
L 132.650584 259.6801 
L 132.933977 259.87184 
L 133.217369 260.510971 
L 133.500762 260.063579 
L 133.784154 260.255318 
L 134.067547 260.127492 
L 134.35094 259.744013 
L 134.634332 260.510971 
L 134.917725 260.447058 
L 135.201117 259.616187 
L 136.334688 258.529664 
L 136.61808 258.146186 
L 136.901473 258.337925 
L 137.468258 257.634881 
L 138.318436 258.337925 
L 138.601828 260.70271 
L 138.885221 259.040969 
L 139.168614 258.65749 
L 139.452006 259.744013 
L 140.018791 260.958362 
L 140.302184 262.172712 
L 140.585576 262.044885 
L 141.152362 262.74793 
L 141.435754 262.300538 
L 141.719147 263.962279 
L 142.285932 263.323148 
L 142.852717 266.838369 
L 143.13611 265.943585 
L 143.419502 266.007498 
L 143.986287 266.710543 
L 144.26968 266.902282 
L 144.553073 266.838369 
L 144.836465 266.135325 
L 145.119858 266.135325 
L 145.40325 265.43228 
L 145.686643 265.304454 
L 146.253428 261.789233 
L 146.536821 261.853146 
L 147.386998 263.5788 
L 147.670391 263.195321 
L 147.953784 263.770539 
L 148.237176 263.195321 
L 148.520569 262.875756 
L 149.087354 263.514887 
L 149.370747 264.090105 
L 149.654139 266.774456 
L 149.937532 266.199238 
L 150.220924 266.518803 
L 150.504317 266.327064 
L 150.787709 267.030108 
L 151.071102 267.221847 
L 151.354495 267.221847 
L 151.637887 267.349674 
L 152.204672 268.180544 
L 152.488065 267.349674 
L 152.771458 265.43228 
L 153.05485 262.108798 
L 153.621635 265.112715 
L 153.905028 268.052718 
L 154.471813 266.45489 
L 154.755206 266.071411 
L 155.038598 265.943585 
L 155.321991 267.413587 
L 155.605383 266.646629 
L 155.888776 268.755762 
L 156.172169 268.755762 
L 156.455561 267.4775 
L 156.738954 267.4775 
L 157.022346 267.669239 
L 157.305739 266.135325 
L 157.589132 265.943585 
L 157.872524 264.857062 
L 158.439309 266.327064 
L 158.722702 265.943585 
L 159.006094 266.710543 
L 159.289487 263.962279 
L 159.57288 263.5788 
L 159.856272 263.514887 
L 160.139665 264.409671 
L 160.423057 263.387061 
L 160.70645 263.323148 
L 160.989843 263.450974 
L 161.273235 263.706626 
L 161.556628 263.706626 
L 162.123413 263.323148 
L 162.406805 263.514887 
L 162.690198 262.811843 
L 162.973591 262.875756 
L 163.256983 262.811843 
L 163.823768 262.492277 
L 164.107161 262.811843 
L 164.390554 263.5788 
L 164.673946 262.55619 
L 166.374302 208.805263 
L 166.941087 197.620469 
L 167.224479 195.703076 
L 167.507872 195.447423 
L 167.791265 195.575249 
L 168.074657 196.725685 
L 168.35805 198.579166 
L 169.208228 201.902647 
L 169.49162 204.331346 
L 169.775013 204.523085 
L 170.341798 207.91048 
L 170.62519 208.93309 
L 170.908583 211.937006 
L 171.191976 213.598747 
L 171.475368 213.982225 
L 171.758761 214.877009 
L 172.325546 217.113968 
L 172.892331 219.350927 
L 173.459116 216.794402 
L 174.025901 222.035278 
L 174.309294 225.294846 
L 175.442864 230.280069 
L 175.726257 232.836593 
L 176.00965 233.411811 
L 176.293042 237.69399 
L 176.576435 239.291818 
L 176.859827 239.867036 
L 177.14322 239.930949 
L 177.426612 240.889645 
L 177.710005 242.551386 
L 177.993398 243.062691 
L 178.560183 245.171824 
L 178.843575 245.171824 
L 179.126968 245.363563 
L 179.410361 245.938781 
L 179.693753 246.002694 
L 179.977146 244.085301 
L 180.260538 240.57008 
L 180.543931 241.59269 
L 180.827324 243.190517 
L 181.110716 245.491389 
L 181.394109 245.747042 
L 181.677501 245.810955 
L 181.960894 245.491389 
L 182.244286 245.555303 
L 182.527679 245.810955 
L 182.811072 245.874868 
L 183.661249 246.513999 
L 183.944642 246.705739 
L 184.228035 247.280957 
L 184.511427 248.36748 
L 185.078212 249.390089 
L 185.361605 250.732265 
L 185.644997 250.668352 
L 185.92839 250.284873 
L 186.211783 250.157047 
L 186.495175 246.769652 
L 186.778568 247.664435 
L 187.06196 247.856175 
L 187.345353 248.303566 
L 187.628746 249.006611 
L 188.195531 249.390089 
L 188.478923 249.326176 
L 188.762316 249.134437 
L 189.329101 251.179656 
L 189.612494 251.05183 
L 189.895886 250.668352 
L 190.179279 250.987917 
L 190.462671 250.796178 
L 190.746064 249.965307 
L 191.029457 252.777484 
L 191.312849 253.736181 
L 191.596242 252.649658 
L 192.163027 252.841397 
L 193.013205 252.330092 
L 193.296597 252.649658 
L 193.57999 252.521832 
L 193.863382 253.09705 
L 194.146775 253.92792 
L 194.430168 254.055746 
L 194.71356 255.142269 
L 194.996953 255.653574 
L 195.280345 255.397922 
L 195.563738 255.334009 
L 195.847131 254.758791 
L 196.130523 254.567051 
L 196.413916 255.014443 
L 196.697308 254.758791 
L 196.980701 256.548358 
L 197.264093 257.187489 
L 197.547486 257.379228 
L 197.830879 256.548358 
L 198.114271 256.420532 
L 198.397664 256.99575 
L 198.681056 257.059663 
L 198.964449 257.315315 
L 199.247842 257.251402 
L 199.531234 257.634881 
L 200.098019 255.334009 
L 200.381412 255.014443 
L 201.514982 247.089217 
L 202.648553 239.036165 
L 202.931945 238.460947 
L 203.49873 237.054859 
L 203.782123 237.566164 
L 204.632301 238.205295 
L 204.915693 239.036165 
L 205.199086 239.227905 
L 205.482478 238.972252 
L 205.765871 239.355731 
L 206.616049 242.295734 
L 206.899441 242.359647 
L 207.466227 241.720516 
L 207.749619 240.761819 
L 208.033012 240.633993 
L 208.599797 239.419644 
L 209.166582 238.908339 
L 209.449975 238.588773 
L 210.300152 238.460947 
L 210.583545 238.7166 
L 210.866938 238.52486 
L 211.15033 238.652687 
L 211.433723 238.588773 
L 211.717115 238.844426 
L 212.000508 238.780513 
L 212.2839 238.52486 
L 212.850686 238.588773 
L 213.134078 238.780513 
L 213.417471 238.780513 
L 213.700863 238.588773 
L 213.984256 238.7166 
L 214.267649 238.52486 
L 214.551041 238.844426 
L 214.834434 238.205295 
L 215.117826 238.460947 
L 215.401219 237.949642 
L 215.684611 237.885729 
L 215.968004 237.566164 
L 216.251397 237.757903 
L 216.818182 238.972252 
L 217.101574 238.972252 
L 217.384967 239.611383 
L 217.66836 239.611383 
L 218.235145 240.250514 
L 218.518537 240.825732 
L 219.085322 242.295734 
L 219.368715 242.359647 
L 220.502285 243.254431 
L 221.069071 244.085301 
L 221.352463 243.637909 
L 221.635856 244.021388 
L 221.919248 245.619216 
L 222.202641 245.683129 
L 222.486034 246.002694 
L 222.769426 245.107911 
L 223.052819 248.750958 
L 223.902996 232.96442 
L 225.036567 217.944838 
L 225.319959 215.963532 
L 225.886745 216.986142 
L 226.170137 217.113968 
L 227.020315 220.629189 
L 227.870493 222.802235 
L 228.153885 222.418756 
L 228.437278 222.29093 
L 228.72067 222.866148 
L 229.004063 222.482669 
L 229.854241 222.802235 
L 230.137633 223.249627 
L 230.421026 222.738322 
L 232.121381 230.663548 
L 232.404774 231.686157 
L 232.688167 232.197462 
L 232.971559 233.411811 
L 233.538344 234.945726 
L 233.821737 237.054859 
L 234.388522 239.227905 
L 234.955307 235.137465 
L 235.2387 236.287901 
L 235.522092 240.825732 
L 235.805485 242.040081 
L 236.088878 242.231821 
L 236.37227 240.825732 
L 236.655663 240.889645 
L 236.939055 241.464863 
L 237.222448 239.419644 
L 237.505841 240.314427 
L 237.789233 242.231821 
L 238.356018 242.42356 
L 238.639411 243.062691 
L 238.922803 243.254431 
L 239.206196 244.340953 
L 239.489589 244.404867 
L 239.772981 244.27704 
L 240.056374 243.829649 
L 240.339766 244.085301 
L 240.623159 245.171824 
L 240.906552 244.596606 
L 241.189944 244.532693 
L 241.473337 240.889645 
L 241.756729 239.675296 
L 242.040122 239.930949 
L 242.323514 244.404867 
L 242.606907 244.660519 
L 242.8903 245.363563 
L 243.173692 245.107911 
L 243.457085 246.386173 
L 244.02387 245.363563 
L 244.590655 246.258347 
L 244.874048 246.258347 
L 245.15744 245.491389 
L 245.440833 245.810955 
L 245.724225 245.938781 
L 246.291011 244.532693 
L 246.574403 245.043998 
L 246.857796 245.235737 
L 247.141188 245.043998 
L 247.424581 245.171824 
L 247.991366 242.167908 
L 248.274759 241.145298 
L 248.558151 241.59269 
L 248.841544 239.739209 
L 249.124937 238.780513 
L 249.975114 233.156159 
L 250.541899 229.001807 
L 250.825292 228.426589 
L 251.67547 224.080497 
L 252.242255 223.31354 
L 252.525648 224.080497 
L 253.092433 226.828761 
L 253.375825 226.637022 
L 254.509396 229.960503 
L 254.792788 230.855287 
L 255.076181 226.892674 
L 255.359573 227.276153 
L 255.642966 228.490502 
L 255.926359 230.9192 
L 256.493144 232.197462 
L 257.059929 232.580941 
L 257.343321 233.092246 
L 257.626714 232.708767 
L 258.476892 237.374424 
L 258.760284 237.246598 
L 259.32707 238.397034 
L 259.610462 238.588773 
L 259.893855 238.972252 
L 260.177247 239.54747 
L 260.46064 239.675296 
L 261.027425 241.209211 
L 261.310818 241.273124 
L 261.59421 241.081385 
L 261.877603 237.374424 
L 262.160995 235.776597 
L 263.011173 243.190517 
L 263.294566 244.340953 
L 263.861351 243.957475 
L 264.144744 244.213127 
L 264.428136 243.382257 
L 264.711529 246.194434 
L 264.994921 247.536609 
L 265.278314 246.386173 
L 265.561706 246.386173 
L 266.128492 247.280957 
L 266.411884 245.555303 
L 266.695277 246.897478 
L 266.978669 247.089217 
L 267.262062 245.683129 
L 267.545455 247.280957 
L 267.828847 247.600522 
L 268.11224 247.15313 
L 268.395632 247.217043 
L 268.679025 245.555303 
L 268.962417 245.29965 
L 269.812595 248.814871 
L 270.095988 248.495306 
L 270.37938 249.134437 
L 270.662773 249.326176 
L 271.229558 248.687045 
L 271.512951 249.006611 
L 271.796343 249.070524 
L 272.079736 248.111827 
L 272.363128 247.792262 
L 272.929914 248.687045 
L 273.213306 248.303566 
L 273.496699 249.134437 
L 273.780091 249.006611 
L 274.063484 249.262263 
L 274.630269 251.115743 
L 274.913662 250.412699 
L 275.197054 250.476612 
L 275.480447 251.754874 
L 275.76384 251.307483 
L 276.330625 253.352702 
L 276.614017 252.841397 
L 276.89741 253.160963 
L 277.180802 253.033137 
L 277.464195 254.11966 
L 277.747588 253.672268 
L 278.03098 252.07444 
L 278.314373 253.352702 
L 278.597765 253.480528 
L 278.881158 253.92792 
L 279.164551 253.033137 
L 279.447943 252.521832 
L 279.731336 253.736181 
L 280.014728 254.11966 
L 280.298121 253.672268 
L 280.581513 253.544442 
L 280.864906 253.800094 
L 281.148299 253.288789 
L 281.431691 254.503138 
L 281.715084 253.544442 
L 281.998476 254.886617 
L 282.281869 254.439225 
L 282.565262 255.397922 
L 282.848654 254.886617 
L 283.132047 255.845314 
L 283.415439 258.018359 
L 283.698832 256.80401 
L 283.982224 257.890533 
L 284.265617 257.634881 
L 284.54901 256.99575 
L 284.832402 257.443141 
L 285.115795 259.104882 
L 285.399187 259.040969 
L 285.68258 258.337925 
L 285.965973 257.251402 
L 286.249365 257.123576 
L 286.532758 258.210099 
L 286.81615 257.82662 
L 287.949721 261.277928 
L 288.233113 261.341841 
L 288.516506 261.917059 
L 288.799898 262.236625 
L 289.083291 260.127492 
L 289.366684 259.744013 
L 289.650076 259.999666 
L 289.933469 262.55619 
L 290.216861 261.53358 
L 290.500254 262.684017 
L 290.783647 262.044885 
L 291.067039 262.044885 
L 291.350432 261.72532 
L 291.633824 261.150102 
L 291.917217 261.022276 
L 292.484002 261.022276 
L 292.767395 260.127492 
L 293.050787 261.72532 
L 293.617572 262.875756 
L 293.900965 263.195321 
L 294.184358 263.834453 
L 294.46775 264.090105 
L 294.751143 263.898366 
L 295.317928 262.172712 
L 295.60132 262.108798 
L 295.884713 260.063579 
L 296.168106 259.935753 
L 296.451498 260.063579 
L 297.018283 263.259235 
L 297.301676 262.236625 
L 297.585069 261.917059 
L 297.868461 262.108798 
L 298.151854 260.894449 
L 298.435246 260.958362 
L 298.718639 260.191405 
L 299.002031 259.999666 
L 299.285424 259.424448 
L 299.852209 259.232708 
L 300.135602 259.6801 
L 300.418994 261.277928 
L 300.702387 261.150102 
L 300.98578 261.53358 
L 301.269172 262.55619 
L 301.835957 263.770539 
L 302.11935 255.97314 
L 302.686135 248.623132 
L 302.969528 243.893562 
L 303.536313 220.43745 
L 304.103098 187.969589 
L 304.669883 156.013033 
L 305.236668 138.245188 
L 305.520061 133.835184 
L 305.803454 131.726051 
L 306.086846 131.598225 
L 306.653631 135.305185 
L 307.220416 144.316934 
L 308.920772 173.716965 
L 310.054342 186.116109 
L 310.337735 187.77785 
L 310.90452 192.379594 
L 312.03809 199.601775 
L 312.604876 202.094387 
L 312.888268 202.925257 
L 315.722194 219.159188 
L 316.005587 220.117884 
L 316.288979 216.091358 
L 316.572372 217.177881 
L 316.855764 218.711796 
L 317.139157 221.332233 
L 317.42255 222.866148 
L 317.705942 222.546582 
L 317.989335 223.185714 
L 318.272727 223.31354 
L 318.55612 222.546582 
L 319.122905 223.633105 
L 319.406298 227.0205 
L 319.68969 227.276153 
L 320.539868 229.449198 
L 320.823261 229.768764 
L 321.390046 232.453115 
L 321.673438 232.836593 
L 322.240223 235.776597 
L 322.523616 236.927033 
L 322.807009 236.863119 
L 323.090401 233.220072 
L 323.373794 231.686157 
L 323.657186 233.475725 
L 323.940579 237.054859 
L 324.223972 236.927033 
L 324.790757 236.223988 
L 325.074149 235.904423 
L 325.357542 234.498334 
L 325.924327 238.780513 
L 326.20772 239.483557 
L 326.491112 238.908339 
L 326.774505 238.844426 
L 327.057897 239.419644 
L 327.34129 239.611383 
L 327.624683 238.972252 
L 327.908075 240.058775 
L 328.191468 239.483557 
L 328.47486 239.739209 
L 328.758253 240.378341 
L 329.608431 243.062691 
L 329.891823 243.126604 
L 330.175216 243.829649 
L 330.458608 243.510083 
L 330.742001 243.382257 
L 331.025394 243.44617 
L 331.308786 242.487473 
L 331.592179 240.889645 
L 331.875571 240.186601 
L 332.158964 240.122688 
L 332.725749 237.821816 
L 333.292534 238.460947 
L 333.575927 238.077469 
L 333.859319 237.438337 
L 334.142712 237.374424 
L 334.426105 238.013555 
L 334.709497 238.269208 
L 334.99289 238.077469 
L 335.559675 239.611383 
L 336.12646 240.825732 
L 336.409853 239.483557 
L 338.110208 224.975281 
L 338.676993 219.798319 
L 338.960386 218.967448 
L 339.527171 216.986142 
L 339.810564 216.986142 
L 343.494667 224.655715 
L 343.77806 224.975281 
L 344.061453 225.678325 
L 344.344845 227.21224 
L 344.628238 227.403979 
L 344.91163 227.915284 
L 345.195023 227.787458 
L 345.478415 228.490502 
L 345.761808 228.107023 
L 346.045201 228.234849 
L 346.611986 227.915284 
L 346.895378 227.979197 
L 347.178771 228.746154 
L 347.745556 231.558331 
L 348.028949 232.580941 
L 348.312341 232.77268 
L 348.595734 232.261375 
L 348.879126 234.050943 
L 349.445912 236.415728 
L 349.729304 239.227905 
L 350.012697 238.7166 
L 350.296089 234.562247 
L 350.579482 234.306595 
L 350.862875 235.265292 
L 351.146267 237.502251 
L 351.42966 238.652687 
L 351.996445 239.483557 
L 352.279837 238.908339 
L 352.56323 238.588773 
L 352.846623 238.7166 
L 353.130015 240.122688 
L 353.413408 242.231821 
L 353.6968 241.784429 
L 354.546978 243.318344 
L 354.830371 241.528777 
L 355.113763 241.337037 
L 355.963941 243.637909 
L 356.530726 244.596606 
L 356.814119 244.788345 
L 357.097511 242.934865 
L 357.380904 242.679213 
L 357.664297 242.998778 
L 357.947689 245.363563 
L 358.231082 246.066607 
L 358.797867 245.107911 
L 359.08126 245.29965 
L 359.364652 243.637909 
L 359.648045 243.637909 
L 360.21483 246.641825 
L 360.498222 246.769652 
L 360.781615 246.641825 
L 361.065008 245.810955 
L 362.198578 248.878784 
L 362.765363 248.942698 
L 363.048756 248.942698 
L 363.332148 250.924004 
L 363.898933 248.239653 
L 364.182326 247.536609 
L 364.749111 248.495306 
L 365.032504 248.431393 
L 365.599289 249.517916 
L 365.882682 247.920088 
L 366.166074 248.431393 
L 366.449467 247.856175 
L 366.732859 247.920088 
L 367.016252 248.17574 
L 367.299644 248.239653 
L 367.86643 249.645742 
L 368.149822 249.965307 
L 368.716607 252.649658 
L 369 253.160963 
L 369.283393 255.206182 
L 369.566785 255.717487 
L 369.850178 256.612271 
L 370.13357 257.890533 
L 370.416963 256.484445 
L 370.700356 252.457919 
L 370.983748 251.690961 
L 371.267141 251.882701 
L 371.550533 255.014443 
L 371.833926 254.822704 
L 372.117318 255.525748 
L 372.400711 255.397922 
L 372.684104 255.461835 
L 372.967496 254.183573 
L 373.250889 254.567051 
L 373.534281 254.567051 
L 373.817674 255.206182 
L 374.101067 256.740097 
L 374.384459 257.251402 
L 374.667852 257.187489 
L 374.951244 256.867923 
L 375.234637 256.867923 
L 375.518029 257.123576 
L 375.801422 256.292705 
L 376.084815 257.123576 
L 376.368207 257.251402 
L 376.6516 257.187489 
L 376.934992 256.867923 
L 377.501778 251.179656 
L 377.78517 253.09705 
L 378.351955 255.078356 
L 378.635348 254.183573 
L 378.91874 254.247486 
L 379.202133 252.713571 
L 379.485526 252.713571 
L 379.768918 252.457919 
L 380.335703 251.371396 
L 380.902489 250.604438 
L 381.185881 250.604438 
L 381.469274 250.476612 
L 381.752666 251.115743 
L 382.036059 251.179656 
L 382.319451 251.946614 
L 382.602844 251.818788 
L 382.886237 252.07444 
L 383.169629 252.649658 
L 383.453022 254.630964 
L 383.736414 254.95053 
L 384.019807 254.183573 
L 384.3032 250.732265 
L 384.586592 250.476612 
L 384.869985 250.668352 
L 385.43677 253.991833 
L 385.720163 253.160963 
L 386.003555 252.777484 
L 386.286948 253.033137 
L 386.853733 251.882701 
L 387.137125 254.375312 
L 387.420518 255.717487 
L 387.703911 255.653574 
L 387.987303 256.164879 
L 388.270696 256.164879 
L 388.554088 256.867923 
L 389.120874 256.740097 
L 389.404266 256.867923 
L 389.687659 257.251402 
L 389.971051 258.018359 
L 390.254444 257.379228 
L 390.537836 257.443141 
L 390.821229 255.909227 
L 391.388014 249.517916 
L 391.671407 250.668352 
L 391.954799 254.439225 
L 392.238192 255.589661 
L 392.804977 254.247486 
L 393.08837 253.92792 
L 393.371762 254.11966 
L 393.655155 253.544442 
L 394.22194 256.420532 
L 394.505333 255.142269 
L 394.788725 254.567051 
L 395.072118 255.206182 
L 395.35551 255.014443 
L 395.638903 255.270096 
L 395.922296 253.480528 
L 396.489081 255.334009 
L 396.772473 255.334009 
L 397.055866 255.142269 
L 397.339259 255.334009 
L 397.622651 253.672268 
L 397.906044 253.033137 
L 398.189436 251.563135 
L 398.472829 253.288789 
L 398.756221 252.90531 
L 399.039614 253.864007 
L 399.323007 254.055746 
L 399.889792 253.800094 
L 400.456577 253.736181 
L 400.73997 253.608355 
L 401.023362 254.055746 
L 401.306755 253.09705 
L 401.590147 253.544442 
L 401.87354 253.544442 
L 402.156932 253.160963 
L 403.00711 254.11966 
L 403.573895 254.247486 
L 403.857288 254.055746 
L 404.140681 254.311399 
L 404.424073 254.11966 
L 404.707466 254.11966 
L 404.990858 253.92792 
L 405.274251 252.457919 
L 405.557643 251.946614 
L 405.841036 253.224876 
L 406.124429 253.480528 
L 406.407821 251.818788 
L 406.691214 251.179656 
L 406.974606 251.499222 
L 407.541392 255.142269 
L 407.824784 255.334009 
L 408.108177 255.142269 
L 408.391569 254.503138 
L 408.958354 255.461835 
L 409.241747 255.525748 
L 409.52514 255.078356 
L 409.808532 255.014443 
L 410.091925 254.694878 
L 410.375317 254.95053 
L 410.65871 255.589661 
L 410.942103 255.7814 
L 411.225495 255.397922 
L 411.508888 254.694878 
L 411.79228 252.521832 
L 412.075673 251.754874 
L 412.642458 255.909227 
L 413.209243 254.886617 
L 413.492636 254.11966 
L 413.776028 253.864007 
L 414.059421 256.676184 
L 414.342814 257.507054 
L 414.909599 254.886617 
L 415.192991 254.630964 
L 415.476384 255.589661 
L 415.759777 255.97314 
L 416.043169 255.97314 
L 416.326562 256.100966 
L 416.609954 256.037053 
L 416.893347 254.95053 
L 417.460132 255.7814 
L 417.743525 256.548358 
L 418.026917 256.931836 
L 418.31031 256.484445 
L 418.593702 256.612271 
L 418.877095 256.037053 
L 419.160488 256.100966 
L 419.44388 255.589661 
L 419.727273 254.567051 
L 420.010665 254.567051 
L 420.294058 254.183573 
L 420.57745 254.694878 
L 420.860843 256.100966 
L 421.144236 260.830536 
L 421.711021 258.082272 
L 421.994413 257.634881 
L 422.277806 256.612271 
L 422.561199 258.082272 
L 422.844591 258.210099 
L 423.127984 257.954446 
L 423.411376 258.210099 
L 423.694769 259.040969 
L 423.978162 258.274012 
L 424.261554 258.274012 
L 424.544947 256.484445 
L 424.828339 255.653574 
L 425.111732 255.525748 
L 425.395124 254.95053 
L 425.678517 255.142269 
L 425.96191 258.082272 
L 426.245302 258.401838 
L 426.528695 258.210099 
L 427.09548 256.228792 
L 427.662265 256.99575 
L 427.945658 260.70271 
L 428.22905 259.999666 
L 428.795835 261.086189 
L 429.079228 262.044885 
L 429.362621 262.55619 
L 429.646013 261.086189 
L 430.212798 261.980972 
L 430.496191 261.917059 
L 430.779584 262.300538 
L 431.062976 262.236625 
L 431.346369 263.067495 
L 431.629761 262.300538 
L 432.196546 257.187489 
L 432.479939 257.315315 
L 432.763332 259.488361 
L 433.046724 260.063579 
L 433.330117 259.807926 
L 433.613509 259.360535 
L 433.896902 259.552274 
L 434.463687 263.003582 
L 434.74708 262.684017 
L 435.030472 262.55619 
L 435.313865 262.236625 
L 435.597257 262.236625 
L 436.164043 262.55619 
L 436.447435 262.74793 
L 436.730828 263.259235 
L 437.01422 263.514887 
L 437.297613 263.450974 
L 437.581006 263.067495 
L 437.864398 263.450974 
L 438.147791 262.811843 
L 438.431183 262.492277 
L 438.714576 258.593577 
L 438.997969 257.315315 
L 439.281361 257.443141 
L 439.564754 259.6801 
L 439.848146 260.319231 
L 440.414931 258.785317 
L 440.981717 258.913143 
L 441.265109 258.593577 
L 441.548502 260.127492 
L 441.831894 259.87184 
L 442.115287 258.913143 
L 442.682072 257.954446 
L 442.965465 258.082272 
L 443.248857 258.529664 
L 443.53225 259.232708 
L 443.815642 258.721404 
L 444.099035 259.552274 
L 444.382428 260.830536 
L 444.949213 261.150102 
L 445.232605 258.401838 
L 445.515998 257.059663 
L 445.799391 257.123576 
L 446.082783 257.507054 
L 446.649568 259.296622 
L 446.932961 258.018359 
L 447.216353 257.890533 
L 447.783139 256.037053 
L 448.066531 256.867923 
L 448.349924 256.80401 
L 448.633316 258.274012 
L 448.916709 260.574884 
L 449.200102 260.191405 
L 449.483494 259.424448 
L 449.766887 259.87184 
L 450.050279 258.977056 
L 450.333672 258.913143 
L 450.617064 258.018359 
L 450.900457 258.337925 
L 451.18385 258.465751 
L 451.467242 258.84923 
L 451.750635 259.744013 
L 452.034027 259.552274 
L 452.31742 257.570968 
L 452.600813 256.867923 
L 452.884205 256.80401 
L 453.167598 259.296622 
L 453.45099 259.6801 
L 453.734383 259.232708 
L 454.017776 259.104882 
L 454.301168 257.443141 
L 454.584561 257.315315 
L 454.867953 258.082272 
L 455.151346 262.300538 
L 455.434738 260.638797 
L 455.718131 260.127492 
L 456.568309 260.958362 
L 456.851701 260.574884 
L 457.135094 261.214015 
L 457.701879 259.168795 
L 458.268664 258.593577 
L 458.552057 257.187489 
L 458.835449 254.886617 
L 459.402235 247.472696 
L 459.685627 246.705739 
L 459.96902 248.239653 
L 460.252412 248.111827 
L 460.535805 249.006611 
L 460.819198 247.984001 
L 461.10259 248.111827 
L 461.385983 249.581829 
L 461.669375 250.22096 
L 462.519553 248.814871 
L 463.086338 249.517916 
L 463.369731 250.668352 
L 463.936516 251.690961 
L 464.219909 250.924004 
L 464.503301 248.111827 
L 464.786694 247.408783 
L 465.070086 247.217043 
L 465.353479 245.874868 
L 466.203657 239.675296 
L 467.053834 231.94181 
L 467.62062 229.06572 
L 467.904012 229.001807 
L 468.470797 228.682241 
L 468.75419 228.618328 
L 469.037583 227.467892 
L 469.320975 227.340066 
L 469.604368 226.956587 
L 470.171153 226.700935 
L 471.304723 221.204407 
L 471.588116 220.757015 
L 471.871508 221.26832 
L 473.005079 221.971364 
L 473.571864 220.181797 
L 473.855256 206.376565 
L 474.705434 141.313018 
L 475.272219 118.304297 
L 475.839005 103.220803 
L 476.40579 95.103838 
L 476.972575 92.866879 
L 477.255967 92.355574 
L 477.53936 92.227748 
L 477.822753 92.419487 
L 478.67293 101.559062 
L 479.523108 106.03298 
L 479.806501 106.86385 
L 480.089893 108.461678 
L 482.923819 140.482147 
L 483.207212 142.527367 
L 484.624175 156.332599 
L 484.907567 157.738687 
L 485.757745 163.426954 
L 486.041138 164.57739 
L 486.607923 163.938259 
L 486.891315 166.366957 
L 487.174708 170.393483 
L 487.741493 174.356096 
L 488.591671 178.510449 
L 489.158456 182.600888 
L 489.441849 183.240019 
L 490.292026 188.80046 
L 491.142204 192.060028 
L 491.425597 192.699159 
L 491.708989 193.018725 
L 492.275775 195.511336 
L 492.559167 194.808292 
L 492.84256 196.725685 
L 493.692737 199.537862 
L 493.97613 201.391342 
L 494.542915 200.368733 
L 494.826308 200.496559 
L 495.1097 200.943951 
L 495.676486 202.669605 
L 495.959878 202.861344 
L 496.526663 204.075693 
L 497.093448 206.823957 
L 497.660234 206.440478 
L 497.943626 208.549611 
L 498.227019 209.444395 
L 498.510411 212.320485 
L 498.793804 212.192658 
L 499.077197 212.64005 
L 499.643982 215.196575 
L 499.927374 213.918312 
L 500.210767 213.66266 
L 500.494159 214.557443 
L 500.777552 218.520056 
L 501.060945 218.711796 
L 501.344337 218.456143 
L 501.62773 217.36962 
L 501.911122 216.794402 
L 502.194515 217.305707 
L 502.477908 217.433533 
L 502.7613 218.39223 
L 503.044693 219.862232 
L 503.328085 219.798319 
L 503.611478 220.373537 
L 503.89487 219.606579 
L 504.461656 222.738322 
L 504.745048 222.866148 
L 505.028441 223.952671 
L 505.311833 224.33615 
L 505.595226 224.975281 
L 505.878619 225.230933 
L 506.162011 224.719628 
L 506.728796 222.035278 
L 507.012189 221.907451 
L 507.578974 224.655715 
L 507.862367 224.016584 
L 508.145759 225.422672 
L 508.429152 221.971364 
L 508.712544 220.565276 
L 509.562722 214.68527 
L 510.4129 202.797431 
L 511.829863 179.277406 
L 512.396648 161.637387 
L 513.530218 123.161694 
L 514.097004 108.90907 
L 514.380396 103.540369 
L 514.947181 97.979928 
L 515.230574 95.934708 
L 515.513966 95.55123 
L 515.797359 93.889489 
L 516.080752 93.467662 
L 524.865922 126.140045 
L 525.149314 127.699525 
L 526.566277 138.309101 
L 526.84967 140.226495 
L 527.133062 141.376931 
L 527.416455 143.038672 
L 527.699848 143.486063 
L 527.98324 143.486063 
L 528.266633 144.316934 
L 528.550025 143.102585 
L 528.833418 140.865626 
L 529.400203 131.91779 
L 529.966988 118.55995 
L 531.100559 87.370351 
L 531.667344 78.422516 
L 532.234129 72.734249 
L 532.800914 69.410767 
L 533.367699 66.406851 
L 534.784662 59.887713 
L 535.068055 59.312495 
L 535.351447 58.034233 
L 535.63484 57.586841 
L 535.918233 56.692058 
L 536.201625 56.819884 
L 536.76841 54.455099 
L 537.051803 54.327273 
L 537.335196 54.646838 
L 537.618588 54.582925 
L 538.468766 55.605535 
L 538.752158 56.308579 
L 539.035551 56.500319 
L 539.318944 57.395102 
L 539.602336 57.842494 
L 540.169121 60.718584 
L 540.735907 60.84641 
L 541.019299 61.86902 
L 541.586084 65.000762 
L 541.869477 67.493374 
L 542.152869 68.707723 
L 542.436262 69.091202 
L 543.003047 71.200334 
L 543.28644 72.031205 
L 543.569832 74.140337 
L 543.853225 74.907295 
L 544.42001 78.486429 
L 545.270188 82.512955 
L 545.55358 83.727304 
L 546.687151 90.310355 
L 546.970543 91.205138 
L 547.253936 93.697749 
L 547.537329 94.592533 
L 547.820721 94.209054 
L 548.104114 94.592533 
L 548.670899 100.856018 
L 550.371254 111.465594 
L 551.221432 118.304297 
L 552.355003 124.31213 
L 552.921788 127.699525 
L 553.20518 129.297353 
L 553.488573 131.662138 
L 554.338751 134.857793 
L 554.622143 133.96301 
L 554.905536 135.049533 
L 555.472321 139.139972 
L 556.039106 142.143888 
L 556.605891 143.805629 
L 556.889284 145.850849 
L 557.172676 146.48998 
L 557.456069 147.704329 
L 557.739462 149.685635 
L 558.022854 148.215634 
L 558.306247 148.34346 
L 558.589639 149.238243 
L 558.873032 152.369986 
L 559.156425 152.689551 
L 559.72321 155.565641 
L 560.289995 157.163469 
L 560.573388 157.99434 
L 560.85678 156.907817 
L 561.140173 158.697384 
L 561.706958 163.490867 
L 561.99035 163.938259 
L 562.273743 164.641303 
L 562.557136 164.513477 
L 563.123921 165.727826 
L 563.407313 165.536087 
L 563.690706 166.047392 
L 563.974099 166.047392 
L 564.824276 167.133915 
L 565.107669 167.325654 
L 565.391061 168.220438 
L 565.957847 168.923482 
L 566.241239 169.051308 
L 566.524632 169.370874 
L 566.808024 170.585223 
L 567.091417 170.457396 
L 568.224987 173.972618 
L 568.50838 173.972618 
L 568.791772 174.611749 
L 569.075165 174.867401 
L 569.358558 175.890011 
L 569.64195 176.145663 
L 569.925343 176.848708 
L 570.208735 177.168273 
L 570.492128 177.679578 
L 570.775521 177.487839 
L 571.058913 178.063057 
L 571.342306 178.254796 
L 572.192483 180.044363 
L 572.475876 179.852624 
L 572.759269 180.939147 
L 573.042661 181.258712 
L 573.892839 184.390455 
L 574.176232 184.773933 
L 575.593195 188.289155 
L 575.876587 188.992199 
L 576.15998 188.736546 
L 576.726765 190.590027 
L 577.010157 190.845679 
L 577.29355 190.781766 
L 577.576943 190.270461 
L 578.143728 190.590027 
L 578.993906 192.699159 
L 579.277298 195.38351 
L 579.560691 196.661772 
L 579.844083 196.725685 
L 580.127476 195.127858 
L 580.410868 194.616553 
L 580.694261 194.424813 
L 580.977654 195.127858 
L 581.261046 195.447423 
L 581.544439 195.958728 
L 581.827831 196.21438 
L 582.111224 197.364816 
L 582.678009 196.661772 
L 583.528187 196.917425 
L 583.811579 197.940034 
L 584.094972 199.729602 
L 584.378365 198.962644 
L 584.661757 199.537862 
L 584.94515 202.222213 
L 585.228542 202.413952 
L 585.511935 201.96656 
L 585.795328 201.199603 
L 586.07872 201.071777 
L 586.645505 202.350039 
L 586.928898 202.222213 
L 587.212291 202.733518 
L 587.495683 202.413952 
L 587.779076 201.455256 
L 588.062468 202.1583 
L 588.345861 201.519169 
L 588.629253 199.154384 
L 588.912646 198.898731 
L 589.479431 200.560472 
L 589.762824 202.413952 
L 590.046216 202.413952 
L 590.329609 202.797431 
L 590.613002 203.436562 
L 590.896394 203.756128 
L 591.179787 204.586998 
L 591.463179 204.139606 
L 592.029964 204.906564 
L 594.297105 194.041335 
L 594.86389 192.315681 
L 595.147283 190.206548 
L 595.997461 187.074805 
L 596.564246 187.713937 
L 596.847638 187.905676 
L 597.131031 188.289155 
L 597.414424 187.77785 
L 597.697816 188.736546 
L 597.981209 188.544807 
L 598.264601 187.969589 
L 598.547994 187.713937 
L 598.831386 187.202632 
L 599.398172 187.458284 
L 599.964957 187.330458 
L 600.248349 186.946979 
L 600.531742 186.883066 
L 600.815135 186.946979 
L 601.098527 186.75524 
L 601.665312 185.860456 
L 602.232098 184.71002 
L 603.082275 180.427842 
L 603.64906 178.95784 
L 603.932453 178.766101 
L 604.215846 178.063057 
L 604.499238 177.679578 
L 605.349416 173.3974 
L 605.632809 172.694355 
L 605.916201 172.630442 
L 606.199594 171.735659 
L 606.482986 170.393483 
L 607.049771 169.690439 
L 607.333164 168.731742 
L 607.616557 168.220438 
L 607.899949 167.070002 
L 608.466734 166.366957 
L 608.750127 166.43087 
L 609.03352 166.686523 
L 609.883697 167.900872 
L 610.16709 167.517393 
L 610.450482 167.900872 
L 610.733875 168.092611 
L 611.017268 168.47609 
L 611.584053 170.137831 
L 611.867445 169.946092 
L 613.001016 172.310877 
L 613.284408 173.141747 
L 613.851193 176.145663 
L 614.134586 175.442619 
L 614.701371 177.999144 
L 614.984764 179.213493 
L 615.551549 180.172189 
L 616.118334 182.345235 
L 616.401727 182.600888 
L 616.685119 183.367845 
L 616.968512 184.90176 
L 617.251905 184.582194 
L 617.535297 185.093499 
L 617.81869 184.965673 
L 618.102082 188.097415 
L 618.385475 189.375678 
L 618.668867 189.503504 
L 618.95226 189.823069 
L 619.235653 190.717853 
L 619.519045 190.909592 
L 619.802438 190.845679 
L 620.08583 191.868289 
L 620.652616 192.571333 
L 620.936008 193.33829 
L 621.786186 196.533946 
L 622.069578 196.917425 
L 622.352971 196.470033 
L 622.636364 196.239946 
L 622.636364 196.239946 
" clip-path="url(#peb12aa1703)" style="fill: none; stroke: #1f77b4; stroke-width: 1.5; stroke-linecap: square"/>
   </g>
   <g id="line2d_14">
    <path d="M 115.363636 254.501917 
L 115.930422 246.623435 
L 116.213814 272.462723 
L 116.780599 271.952666 
L 117.630777 271.535809 
L 118.480955 271.37804 
L 119.614525 271.19969 
L 120.18131 270.515245 
L 121.314881 268.985944 
L 122.165058 268.35831 
L 122.731844 268.143258 
L 123.015236 274.699681 
L 124.148807 274.562141 
L 126.132555 274.633843 
L 126.415947 274.684425 
L 126.69934 274.533035 
L 126.982732 274.156993 
L 127.266125 272.911833 
L 127.83291 267.366229 
L 128.399695 260.354074 
L 129.533266 244.108155 
L 129.816658 263.834453 
L 130.383443 259.607537 
L 130.950229 256.767168 
L 131.517014 254.942344 
L 132.083799 253.813757 
L 132.650584 253.144642 
L 134.35094 251.989595 
L 135.201117 251.60456 
L 136.051295 251.459503 
L 136.334688 251.449712 
L 136.61808 258.529664 
L 137.751651 258.490459 
L 139.735399 258.689868 
L 143.13611 259.215252 
L 143.419502 265.943585 
L 147.953784 266.353684 
L 150.220924 266.199238 
L 150.787709 265.583332 
L 151.637887 265.068248 
L 152.488065 264.853914 
L 153.621635 264.801606 
L 155.888776 264.975662 
L 156.738954 265.068886 
L 157.022346 267.4775 
L 159.856272 267.70857 
L 162.123413 267.136653 
L 163.540376 267.106503 
L 163.823768 262.620103 
L 164.673946 262.719868 
L 164.957339 262.55619 
L 166.941087 240.880543 
L 168.074657 232.966581 
L 168.924835 227.855988 
L 169.49162 225.525763 
L 170.058405 224.006655 
L 170.341798 223.485494 
L 170.62519 207.91048 
L 171.191976 207.469069 
L 171.758761 207.301512 
L 172.608939 207.359555 
L 173.742509 207.73205 
L 176.00965 208.80793 
L 177.14322 209.386049 
L 177.426612 239.930949 
L 183.944642 241.828277 
L 184.228035 246.705739 
L 195.563738 249.432822 
L 197.547486 249.86279 
L 197.830879 257.379228 
L 200.098019 257.72772 
L 200.381412 257.595226 
L 200.664804 256.868906 
L 201.23159 252.920069 
L 202.36516 244.444497 
L 202.931945 241.68087 
L 203.49873 239.853942 
L 204.065515 238.713289 
L 204.632301 237.821816 
L 205.765871 234.181956 
L 206.049264 233.061455 
L 206.616049 228.466806 
L 207.749619 218.847364 
L 208.316404 215.731032 
L 208.883189 213.698142 
L 209.449975 212.460232 
L 210.01676 211.767949 
L 210.583545 211.436058 
L 211.15033 211.336295 
L 212.000508 211.44377 
L 213.417471 211.946 
L 216.534789 213.40941 
L 226.170137 217.957848 
L 234.955307 221.844193 
L 238.356018 223.284124 
L 238.639411 242.42356 
L 240.623159 242.824365 
L 244.590655 243.861333 
L 244.874048 243.98422 
L 245.15744 243.696384 
L 245.440833 245.491389 
L 245.724225 245.432262 
L 246.007618 244.118438 
L 246.574403 238.557021 
L 247.424581 229.306772 
L 247.707974 226.792498 
L 247.991366 243.573996 
L 248.841544 236.688555 
L 250.258507 227.325781 
L 251.392077 221.234161 
L 251.958862 218.993044 
L 252.242255 223.697018 
L 252.80904 222.469563 
L 253.375825 221.742809 
L 253.94261 221.362772 
L 254.509396 221.212671 
L 255.359573 221.247864 
L 256.493144 221.543601 
L 258.760284 222.414806 
L 259.043677 237.246598 
L 270.662773 240.790922 
L 281.431691 243.826054 
L 287.382936 245.405576 
L 287.666328 259.87184 
L 292.767395 260.653979 
L 293.050787 260.127492 
L 301.269172 261.338246 
L 301.552565 261.17549 
L 301.835957 260.701878 
L 304.669883 253.494468 
L 304.953276 251.979087 
L 305.520061 245.805282 
L 306.653631 232.405886 
L 307.220416 227.912467 
L 307.787202 224.907993 
L 308.353987 223.010069 
L 308.920772 221.876638 
L 309.487557 221.250317 
L 310.054342 220.951687 
L 310.90452 220.867938 
L 312.03809 221.099451 
L 314.021838 221.829552 
L 331.592179 228.884752 
L 339.810564 231.902865 
L 343.494667 223.85041 
L 350.579482 229.178783 
L 350.862875 234.741204 
L 352.56323 233.748819 
L 353.413408 233.726575 
L 354.263586 233.963008 
L 355.680549 234.657575 
L 356.247334 234.987514 
L 356.530726 243.561214 
L 363.048756 247.00787 
L 363.332148 248.853219 
L 369.850178 250.350283 
L 370.13357 255.602444 
L 376.6516 256.791612 
L 376.934992 257.28975 
L 377.501778 257.316405 
L 377.78517 257.252888 
L 378.068563 256.972195 
L 378.635348 255.824768 
L 379.485526 253.441571 
L 380.335703 251.023325 
L 380.902489 249.857338 
L 381.469274 249.081875 
L 382.036059 248.609833 
L 382.886237 248.280043 
L 383.453022 248.217233 
L 383.736414 252.534614 
L 385.153377 253.052635 
L 390.254444 255.304727 
L 390.537836 257.980011 
L 397.055866 260.420891 
L 397.339259 255.295661 
L 403.573895 257.877853 
L 403.857288 257.989567 
L 404.140681 254.221921 
L 406.124429 255.031539 
L 406.691214 254.991748 
L 407.541392 254.89261 
L 407.824784 254.282546 
L 408.391569 250.915762 
L 409.241747 245.523763 
L 409.808532 243.184232 
L 410.375317 241.782501 
L 410.942103 241.053771 
L 411.508888 240.76397 
L 412.075673 240.744812 
L 412.359066 254.835486 
L 417.743525 257.106836 
L 418.026917 255.832531 
L 429.929406 258.152994 
L 431.062976 258.36255 
L 431.346369 262.274973 
L 437.864398 263.16685 
L 438.147791 262.965234 
L 446.082783 264.00571 
L 446.366176 257.136358 
L 448.633316 258.001022 
L 454.867953 258.960175 
L 465.070086 260.579938 
L 465.353479 247.472696 
L 467.053834 247.781535 
L 469.604368 247.85259 
L 471.871508 248.256279 
L 472.154901 220.782581 
L 472.721686 218.559923 
L 473.288471 217.426214 
L 473.855256 216.93217 
L 474.422042 216.796469 
L 475.272219 216.926535 
L 476.689182 217.471094 
L 478.67293 218.378926 
L 478.956323 98.606276 
L 484.907567 107.187669 
L 485.474352 107.983906 
L 485.757745 159.656081 
L 492.275775 165.897819 
L 492.559167 166.162285 
L 492.84256 194.322552 
L 494.542915 196.183886 
L 494.826308 196.209761 
L 495.1097 195.750969 
L 496.526663 192.626245 
L 497.093448 192.161732 
L 497.660234 192.099966 
L 498.227019 192.308958 
L 499.077197 192.91838 
L 499.360589 193.168167 
L 499.643982 212.115963 
L 500.210767 211.653892 
L 500.777552 211.442092 
L 501.344337 211.485015 
L 502.194515 211.685775 
L 502.477908 211.095008 
L 503.044693 208.925365 
L 503.89487 205.704115 
L 504.461656 204.438746 
L 505.028441 203.820541 
L 505.595226 203.661305 
L 505.878619 203.701245 
L 506.162011 224.92415 
L 507.012189 225.278484 
L 507.862367 225.828945 
L 508.145759 225.548718 
L 508.429152 224.580545 
L 508.995937 220.541663 
L 510.129507 211.527858 
L 510.979685 206.99968 
L 512.680041 199.780503 
L 512.963433 162.493823 
L 513.813611 156.247608 
L 514.663789 151.485685 
L 515.230574 149.447847 
L 515.797359 148.340333 
L 516.080752 148.063936 
L 525.149314 153.65961 
L 527.133062 155.577566 
L 527.416455 155.530379 
L 527.699848 155.324833 
L 527.98324 154.907741 
L 528.550025 153.437355 
L 529.400203 150.83672 
L 529.966988 149.789965 
L 530.533773 149.351068 
L 531.100559 149.360179 
L 531.667344 149.664824 
L 532.517522 150.441468 
L 533.367699 151.411641 
L 533.651092 69.615289 
L 535.63484 71.988247 
L 535.918233 72.013574 
L 537.335196 71.545754 
L 537.901981 71.717757 
L 538.468766 72.126981 
L 539.318944 73.03227 
L 539.885729 73.749999 
L 540.169121 57.72745 
L 543.28644 62.950746 
L 544.986795 65.362928 
L 546.970543 68.639595 
L 547.253936 89.01931 
L 553.488573 98.468488 
L 553.771965 128.977787 
L 559.72321 136.133651 
L 560.573388 137.128058 
L 560.85678 156.511556 
L 567.091417 162.165784 
L 567.37481 170.546875 
L 569.075165 171.839055 
L 570.208735 172.112577 
L 571.058913 172.397972 
L 572.192483 173.068377 
L 574.176232 174.556945 
L 574.459624 183.048279 
L 580.977654 187.688095 
L 581.261046 194.55264 
L 587.495683 198.480314 
L 587.779076 202.682387 
L 592.880142 205.826146 
L 593.163535 205.781112 
L 593.446927 205.274749 
L 593.73032 204.181709 
L 594.580498 199.072409 
L 594.86389 195.242901 
L 595.430675 194.590586 
L 595.997461 194.238538 
L 596.564246 193.371106 
L 598.264601 189.749137 
L 598.831386 189.255262 
L 599.114779 189.043714 
L 599.398172 188.634945 
L 599.681564 187.806303 
L 601.098527 181.166502 
L 601.38192 186.959762 
L 601.948705 185.415917 
L 602.51549 184.502269 
L 603.082275 184.142368 
L 603.64906 184.174083 
L 604.215846 184.457909 
L 605.066023 185.151201 
L 606.766379 186.921945 
L 607.899949 188.182244 
L 608.183342 168.399394 
L 611.30066 172.148315 
L 616.118334 177.852457 
L 621.786186 184.502438 
L 622.069578 194.322552 
L 622.636364 194.937652 
L 622.636364 194.937652 
" clip-path="url(#peb12aa1703)" style="fill: none; stroke: #ff7f0e; stroke-width: 1.5; stroke-linecap: square"/>
   </g>
   <g id="patch_3">
    <path d="M 90 288 
L 90 43.2 
" style="fill: none; stroke: #000000; stroke-width: 0.8; stroke-linejoin: miter; stroke-linecap: square"/>
   </g>
   <g id="patch_4">
    <path d="M 648 288 
L 648 43.2 
" style="fill: none; stroke: #000000; stroke-width: 0.8; stroke-linejoin: miter; stroke-linecap: square"/>
   </g>
   <g id="patch_5">
    <path d="M 90 288 
L 648 288 
" style="fill: none; stroke: #000000; stroke-width: 0.8; stroke-linejoin: miter; stroke-linecap: square"/>
   </g>
   <g id="patch_6">
    <path d="M 90 43.2 
L 648 43.2 
" style="fill: none; stroke: #000000; stroke-width: 0.8; stroke-linejoin: miter; stroke-linecap: square"/>
   </g>
   <g id="text_14">
    <!-- MDOT9682 -->
    <g transform="translate(335.545313 37.2) scale(0.12 -0.12)">
     <defs>
      <path id="DejaVuSans-44" d="M 1259 4147 
L 1259 519 
L 2022 519 
Q 2988 519 3436 956 
Q 3884 1394 3884 2338 
Q 3884 3275 3436 3711 
Q 2988 4147 2022 4147 
L 1259 4147 
z
M 628 4666 
L 1925 4666 
Q 3281 4666 3915 4102 
Q 4550 3538 4550 2338 
Q 4550 1131 3912 565 
Q 3275 0 1925 0 
L 628 0 
L 628 4666 
z
" transform="scale(0.015625)"/>
      <path id="DejaVuSans-4f" d="M 2522 4238 
Q 1834 4238 1429 3725 
Q 1025 3213 1025 2328 
Q 1025 1447 1429 934 
Q 1834 422 2522 422 
Q 3209 422 3611 934 
Q 4013 1447 4013 2328 
Q 4013 3213 3611 3725 
Q 3209 4238 2522 4238 
z
M 2522 4750 
Q 3503 4750 4090 4092 
Q 4678 3434 4678 2328 
Q 4678 1225 4090 567 
Q 3503 -91 2522 -91 
Q 1538 -91 948 565 
Q 359 1222 359 2328 
Q 359 3434 948 4092 
Q 1538 4750 2522 4750 
z
" transform="scale(0.015625)"/>
      <path id="DejaVuSans-54" d="M -19 4666 
L 3928 4666 
L 3928 4134 
L 2272 4134 
L 2272 0 
L 1638 0 
L 1638 4134 
L -19 4134 
L -19 4666 
z
" transform="scale(0.015625)"/>
     </defs>
     <use xlink:href="#DejaVuSans-4d"/>
     <use xlink:href="#DejaVuSans-44" x="86.279297"/>
     <use xlink:href="#DejaVuSans-4f" x="163.28125"/>
     <use xlink:href="#DejaVuSans-54" x="241.992188"/>
     <use xlink:href="#DejaVuSans-39" x="303.076172"/>
     <use xlink:href="#DejaVuSans-36" x="366.699219"/>
     <use xlink:href="#DejaVuSans-38" x="430.322266"/>
     <use xlink:href="#DejaVuSans-32" x="493.945312"/>
    </g>
   </g>
   <g id="legend_1">
    <g id="patch_7">
     <path d="M 559.04375 80.55625 
L 641 80.55625 
Q 643 80.55625 643 78.55625 
L 643 50.2 
Q 643 48.2 641 48.2 
L 559.04375 48.2 
Q 557.04375 48.2 557.04375 50.2 
L 557.04375 78.55625 
Q 557.04375 80.55625 559.04375 80.55625 
z
" style="fill: #ffffff; opacity: 0.8; stroke: #cccccc; stroke-linejoin: miter"/>
    </g>
    <g id="line2d_15">
     <path d="M 561.04375 56.298437 
L 571.04375 56.298437 
L 581.04375 56.298437 
" style="fill: none; stroke: #1f77b4; stroke-width: 1.5; stroke-linecap: square"/>
    </g>
    <g id="text_15">
     <!-- measured -->
     <g transform="translate(589.04375 59.798437) scale(0.1 -0.1)">
      <defs>
       <path id="DejaVuSans-6d" d="M 3328 2828 
Q 3544 3216 3844 3400 
Q 4144 3584 4550 3584 
Q 5097 3584 5394 3201 
Q 5691 2819 5691 2113 
L 5691 0 
L 5113 0 
L 5113 2094 
Q 5113 2597 4934 2840 
Q 4756 3084 4391 3084 
Q 3944 3084 3684 2787 
Q 3425 2491 3425 1978 
L 3425 0 
L 2847 0 
L 2847 2094 
Q 2847 2600 2669 2842 
Q 2491 3084 2119 3084 
Q 1678 3084 1418 2786 
Q 1159 2488 1159 1978 
L 1159 0 
L 581 0 
L 581 3500 
L 1159 3500 
L 1159 2956 
Q 1356 3278 1631 3431 
Q 1906 3584 2284 3584 
Q 2666 3584 2933 3390 
Q 3200 3197 3328 2828 
z
" transform="scale(0.015625)"/>
       <path id="DejaVuSans-61" d="M 2194 1759 
Q 1497 1759 1228 1600 
Q 959 1441 959 1056 
Q 959 750 1161 570 
Q 1363 391 1709 391 
Q 2188 391 2477 730 
Q 2766 1069 2766 1631 
L 2766 1759 
L 2194 1759 
z
M 3341 1997 
L 3341 0 
L 2766 0 
L 2766 531 
Q 2569 213 2275 61 
Q 1981 -91 1556 -91 
Q 1019 -91 701 211 
Q 384 513 384 1019 
Q 384 1609 779 1909 
Q 1175 2209 1959 2209 
L 2766 2209 
L 2766 2266 
Q 2766 2663 2505 2880 
Q 2244 3097 1772 3097 
Q 1472 3097 1187 3025 
Q 903 2953 641 2809 
L 641 3341 
Q 956 3463 1253 3523 
Q 1550 3584 1831 3584 
Q 2591 3584 2966 3190 
Q 3341 2797 3341 1997 
z
" transform="scale(0.015625)"/>
       <path id="DejaVuSans-75" d="M 544 1381 
L 544 3500 
L 1119 3500 
L 1119 1403 
Q 1119 906 1312 657 
Q 1506 409 1894 409 
Q 2359 409 2629 706 
Q 2900 1003 2900 1516 
L 2900 3500 
L 3475 3500 
L 3475 0 
L 2900 0 
L 2900 538 
Q 2691 219 2414 64 
Q 2138 -91 1772 -91 
Q 1169 -91 856 284 
Q 544 659 544 1381 
z
M 1991 3584 
L 1991 3584 
z
" transform="scale(0.015625)"/>
       <path id="DejaVuSans-64" d="M 2906 2969 
L 2906 4863 
L 3481 4863 
L 3481 0 
L 2906 0 
L 2906 525 
Q 2725 213 2448 61 
Q 2172 -91 1784 -91 
Q 1150 -91 751 415 
Q 353 922 353 1747 
Q 353 2572 751 3078 
Q 1150 3584 1784 3584 
Q 2172 3584 2448 3432 
Q 2725 3281 2906 2969 
z
M 947 1747 
Q 947 1113 1208 752 
Q 1469 391 1925 391 
Q 2381 391 2643 752 
Q 2906 1113 2906 1747 
Q 2906 2381 2643 2742 
Q 2381 3103 1925 3103 
Q 1469 3103 1208 2742 
Q 947 2381 947 1747 
z
" transform="scale(0.015625)"/>
      </defs>
      <use xlink:href="#DejaVuSans-6d"/>
      <use xlink:href="#DejaVuSans-65" x="97.412109"/>
      <use xlink:href="#DejaVuSans-61" x="158.935547"/>
      <use xlink:href="#DejaVuSans-73" x="220.214844"/>
      <use xlink:href="#DejaVuSans-75" x="272.314453"/>
      <use xlink:href="#DejaVuSans-72" x="335.693359"/>
      <use xlink:href="#DejaVuSans-65" x="374.556641"/>
      <use xlink:href="#DejaVuSans-64" x="436.080078"/>
     </g>
    </g>
    <g id="line2d_16">
     <path d="M 561.04375 70.976562 
L 571.04375 70.976562 
L 581.04375 70.976562 
" style="fill: none; stroke: #ff7f0e; stroke-width: 1.5; stroke-linecap: square"/>
    </g>
    <g id="text_16">
     <!-- predicted -->
     <g transform="translate(589.04375 74.476562) scale(0.1 -0.1)">
      <defs>
       <path id="DejaVuSans-70" d="M 1159 525 
L 1159 -1331 
L 581 -1331 
L 581 3500 
L 1159 3500 
L 1159 2969 
Q 1341 3281 1617 3432 
Q 1894 3584 2278 3584 
Q 2916 3584 3314 3078 
Q 3713 2572 3713 1747 
Q 3713 922 3314 415 
Q 2916 -91 2278 -91 
Q 1894 -91 1617 61 
Q 1341 213 1159 525 
z
M 3116 1747 
Q 3116 2381 2855 2742 
Q 2594 3103 2138 3103 
Q 1681 3103 1420 2742 
Q 1159 2381 1159 1747 
Q 1159 1113 1420 752 
Q 1681 391 2138 391 
Q 2594 391 2855 752 
Q 3116 1113 3116 1747 
z
" transform="scale(0.015625)"/>
       <path id="DejaVuSans-69" d="M 603 3500 
L 1178 3500 
L 1178 0 
L 603 0 
L 603 3500 
z
M 603 4863 
L 1178 4863 
L 1178 4134 
L 603 4134 
L 603 4863 
z
" transform="scale(0.015625)"/>
       <path id="DejaVuSans-63" d="M 3122 3366 
L 3122 2828 
Q 2878 2963 2633 3030 
Q 2388 3097 2138 3097 
Q 1578 3097 1268 2742 
Q 959 2388 959 1747 
Q 959 1106 1268 751 
Q 1578 397 2138 397 
Q 2388 397 2633 464 
Q 2878 531 3122 666 
L 3122 134 
Q 2881 22 2623 -34 
Q 2366 -91 2075 -91 
Q 1284 -91 818 406 
Q 353 903 353 1747 
Q 353 2603 823 3093 
Q 1294 3584 2113 3584 
Q 2378 3584 2631 3529 
Q 2884 3475 3122 3366 
z
" transform="scale(0.015625)"/>
      </defs>
      <use xlink:href="#DejaVuSans-70"/>
      <use xlink:href="#DejaVuSans-72" x="63.476562"/>
      <use xlink:href="#DejaVuSans-65" x="102.339844"/>
      <use xlink:href="#DejaVuSans-64" x="163.863281"/>
      <use xlink:href="#DejaVuSans-69" x="227.339844"/>
      <use xlink:href="#DejaVuSans-63" x="255.123047"/>
      <use xlink:href="#DejaVuSans-74" x="310.103516"/>
      <use xlink:href="#DejaVuSans-65" x="349.3125"/>
      <use xlink:href="#DejaVuSans-64" x="410.835938"/>
     </g>
    </g>
   </g>
  </g>
 </g>
 <defs>
  <clipPath id="peb12aa1703">
   <rect x="90" y="43.2" width="558" height="244.8"/>
  </clipPath>
 </defs>
</svg>
