<?xml version="1.0" encoding="utf-8" standalone="no"?>
<!DOCTYPE svg PUBLIC "-//W3C//DTD SVG 1.1//EN"
  "http://www.w3.org/Graphics/SVG/1.1/DTD/svg11.dtd">
<svg xmlns:xlink="http://www.w3.org/1999/xlink" width="712.962812pt" height="351.43625pt" viewBox="0 0 712.962812 351.43625" xmlns="http://www.w3.org/2000/svg" version="1.1">
 <metadata>
  <rdf:RDF xmlns:dc="http://purl.org/dc/elements/1.1/" xmlns:cc="http://creativecommons.org/ns#" xmlns:rdf="http://www.w3.org/1999/02/22-rdf-syntax-ns#">
   <cc:Work>
    <dc:type rdf:resource="http://purl.org/dc/dcmitype/StillImage"/>
    <dc:date>2024-05-09T08:10:17.955189</dc:date>
    <dc:format>image/svg+xml</dc:format>
    <dc:creator>
     <cc:Agent>
      <dc:title>Matplotlib v3.8.4, https://matplotlib.org/</dc:title>
     </cc:Agent>
    </dc:creator>
   </cc:Work>
  </rdf:RDF>
 </metadata>
 <defs>
  <style type="text/css">*{stroke-linejoin: round; stroke-linecap: butt}</style>
 </defs>
 <g id="figure_1">
  <g id="patch_1">
   <path d="M -0 351.43625 
L 712.962812 351.43625 
L 712.962812 0 
L -0 0 
z
" style="fill: #ffffff"/>
  </g>
  <g id="axes_1">
   <g id="patch_2">
    <path d="M 38.482813 327.558125 
L 705.762812 327.558125 
L 705.762812 22.318125 
L 38.482813 22.318125 
z
" style="fill: #ffffff"/>
   </g>
   <g id="matplotlib.axis_1">
    <g id="xtick_1">
     <g id="line2d_1">
      <defs>
       <path id="m71c8c528ee" d="M 0 0 
L 0 3.5 
" style="stroke: #000000; stroke-width: 0.8"/>
      </defs>
      <g>
       <use xlink:href="#m71c8c528ee" x="80.155692" y="327.558125" style="stroke: #000000; stroke-width: 0.8"/>
      </g>
     </g>
     <g id="text_1">
      <!-- 2022-08 -->
      <g transform="translate(59.264285 342.156563) scale(0.1 -0.1)">
       <defs>
        <path id="DejaVuSans-32" d="M 1228 531 
L 3431 531 
L 3431 0 
L 469 0 
L 469 531 
Q 828 903 1448 1529 
Q 2069 2156 2228 2338 
Q 2531 2678 2651 2914 
Q 2772 3150 2772 3378 
Q 2772 3750 2511 3984 
Q 2250 4219 1831 4219 
Q 1534 4219 1204 4116 
Q 875 4013 500 3803 
L 500 4441 
Q 881 4594 1212 4672 
Q 1544 4750 1819 4750 
Q 2544 4750 2975 4387 
Q 3406 4025 3406 3419 
Q 3406 3131 3298 2873 
Q 3191 2616 2906 2266 
Q 2828 2175 2409 1742 
Q 1991 1309 1228 531 
z
" transform="scale(0.015625)"/>
        <path id="DejaVuSans-30" d="M 2034 4250 
Q 1547 4250 1301 3770 
Q 1056 3291 1056 2328 
Q 1056 1369 1301 889 
Q 1547 409 2034 409 
Q 2525 409 2770 889 
Q 3016 1369 3016 2328 
Q 3016 3291 2770 3770 
Q 2525 4250 2034 4250 
z
M 2034 4750 
Q 2819 4750 3233 4129 
Q 3647 3509 3647 2328 
Q 3647 1150 3233 529 
Q 2819 -91 2034 -91 
Q 1250 -91 836 529 
Q 422 1150 422 2328 
Q 422 3509 836 4129 
Q 1250 4750 2034 4750 
z
" transform="scale(0.015625)"/>
        <path id="DejaVuSans-2d" d="M 313 2009 
L 1997 2009 
L 1997 1497 
L 313 1497 
L 313 2009 
z
" transform="scale(0.015625)"/>
        <path id="DejaVuSans-38" d="M 2034 2216 
Q 1584 2216 1326 1975 
Q 1069 1734 1069 1313 
Q 1069 891 1326 650 
Q 1584 409 2034 409 
Q 2484 409 2743 651 
Q 3003 894 3003 1313 
Q 3003 1734 2745 1975 
Q 2488 2216 2034 2216 
z
M 1403 2484 
Q 997 2584 770 2862 
Q 544 3141 544 3541 
Q 544 4100 942 4425 
Q 1341 4750 2034 4750 
Q 2731 4750 3128 4425 
Q 3525 4100 3525 3541 
Q 3525 3141 3298 2862 
Q 3072 2584 2669 2484 
Q 3125 2378 3379 2068 
Q 3634 1759 3634 1313 
Q 3634 634 3220 271 
Q 2806 -91 2034 -91 
Q 1263 -91 848 271 
Q 434 634 434 1313 
Q 434 1759 690 2068 
Q 947 2378 1403 2484 
z
M 1172 3481 
Q 1172 3119 1398 2916 
Q 1625 2713 2034 2713 
Q 2441 2713 2670 2916 
Q 2900 3119 2900 3481 
Q 2900 3844 2670 4047 
Q 2441 4250 2034 4250 
Q 1625 4250 1398 4047 
Q 1172 3844 1172 3481 
z
" transform="scale(0.015625)"/>
       </defs>
       <use xlink:href="#DejaVuSans-32"/>
       <use xlink:href="#DejaVuSans-30" x="63.623047"/>
       <use xlink:href="#DejaVuSans-32" x="127.246094"/>
       <use xlink:href="#DejaVuSans-32" x="190.869141"/>
       <use xlink:href="#DejaVuSans-2d" x="254.492188"/>
       <use xlink:href="#DejaVuSans-30" x="290.576172"/>
       <use xlink:href="#DejaVuSans-38" x="354.199219"/>
      </g>
     </g>
    </g>
    <g id="xtick_2">
     <g id="line2d_2">
      <g>
       <use xlink:href="#m71c8c528ee" x="212.006094" y="327.558125" style="stroke: #000000; stroke-width: 0.8"/>
      </g>
     </g>
     <g id="text_2">
      <!-- 2022-09 -->
      <g transform="translate(191.114688 342.156563) scale(0.1 -0.1)">
       <defs>
        <path id="DejaVuSans-39" d="M 703 97 
L 703 672 
Q 941 559 1184 500 
Q 1428 441 1663 441 
Q 2288 441 2617 861 
Q 2947 1281 2994 2138 
Q 2813 1869 2534 1725 
Q 2256 1581 1919 1581 
Q 1219 1581 811 2004 
Q 403 2428 403 3163 
Q 403 3881 828 4315 
Q 1253 4750 1959 4750 
Q 2769 4750 3195 4129 
Q 3622 3509 3622 2328 
Q 3622 1225 3098 567 
Q 2575 -91 1691 -91 
Q 1453 -91 1209 -44 
Q 966 3 703 97 
z
M 1959 2075 
Q 2384 2075 2632 2365 
Q 2881 2656 2881 3163 
Q 2881 3666 2632 3958 
Q 2384 4250 1959 4250 
Q 1534 4250 1286 3958 
Q 1038 3666 1038 3163 
Q 1038 2656 1286 2365 
Q 1534 2075 1959 2075 
z
" transform="scale(0.015625)"/>
       </defs>
       <use xlink:href="#DejaVuSans-32"/>
       <use xlink:href="#DejaVuSans-30" x="63.623047"/>
       <use xlink:href="#DejaVuSans-32" x="127.246094"/>
       <use xlink:href="#DejaVuSans-32" x="190.869141"/>
       <use xlink:href="#DejaVuSans-2d" x="254.492188"/>
       <use xlink:href="#DejaVuSans-30" x="290.576172"/>
       <use xlink:href="#DejaVuSans-39" x="354.199219"/>
      </g>
     </g>
    </g>
    <g id="xtick_3">
     <g id="line2d_3">
      <g>
       <use xlink:href="#m71c8c528ee" x="339.603258" y="327.558125" style="stroke: #000000; stroke-width: 0.8"/>
      </g>
     </g>
     <g id="text_3">
      <!-- 2022-10 -->
      <g transform="translate(318.711851 342.156563) scale(0.1 -0.1)">
       <defs>
        <path id="DejaVuSans-31" d="M 794 531 
L 1825 531 
L 1825 4091 
L 703 3866 
L 703 4441 
L 1819 4666 
L 2450 4666 
L 2450 531 
L 3481 531 
L 3481 0 
L 794 0 
L 794 531 
z
" transform="scale(0.015625)"/>
       </defs>
       <use xlink:href="#DejaVuSans-32"/>
       <use xlink:href="#DejaVuSans-30" x="63.623047"/>
       <use xlink:href="#DejaVuSans-32" x="127.246094"/>
       <use xlink:href="#DejaVuSans-32" x="190.869141"/>
       <use xlink:href="#DejaVuSans-2d" x="254.492188"/>
       <use xlink:href="#DejaVuSans-31" x="290.576172"/>
       <use xlink:href="#DejaVuSans-30" x="354.199219"/>
      </g>
     </g>
    </g>
    <g id="xtick_4">
     <g id="line2d_4">
      <g>
       <use xlink:href="#m71c8c528ee" x="471.45366" y="327.558125" style="stroke: #000000; stroke-width: 0.8"/>
      </g>
     </g>
     <g id="text_4">
      <!-- 2022-11 -->
      <g transform="translate(450.562254 342.156563) scale(0.1 -0.1)">
       <use xlink:href="#DejaVuSans-32"/>
       <use xlink:href="#DejaVuSans-30" x="63.623047"/>
       <use xlink:href="#DejaVuSans-32" x="127.246094"/>
       <use xlink:href="#DejaVuSans-32" x="190.869141"/>
       <use xlink:href="#DejaVuSans-2d" x="254.492188"/>
       <use xlink:href="#DejaVuSans-31" x="290.576172"/>
       <use xlink:href="#DejaVuSans-31" x="354.199219"/>
      </g>
     </g>
    </g>
    <g id="xtick_5">
     <g id="line2d_5">
      <g>
       <use xlink:href="#m71c8c528ee" x="599.050824" y="327.558125" style="stroke: #000000; stroke-width: 0.8"/>
      </g>
     </g>
     <g id="text_5">
      <!-- 2022-12 -->
      <g transform="translate(578.159417 342.156563) scale(0.1 -0.1)">
       <use xlink:href="#DejaVuSans-32"/>
       <use xlink:href="#DejaVuSans-30" x="63.623047"/>
       <use xlink:href="#DejaVuSans-32" x="127.246094"/>
       <use xlink:href="#DejaVuSans-32" x="190.869141"/>
       <use xlink:href="#DejaVuSans-2d" x="254.492188"/>
       <use xlink:href="#DejaVuSans-31" x="290.576172"/>
       <use xlink:href="#DejaVuSans-32" x="354.199219"/>
      </g>
     </g>
    </g>
   </g>
   <g id="matplotlib.axis_2">
    <g id="ytick_1">
     <g id="line2d_6">
      <defs>
       <path id="m205520f369" d="M 0 0 
L -3.5 0 
" style="stroke: #000000; stroke-width: 0.8"/>
      </defs>
      <g>
       <use xlink:href="#m205520f369" x="38.482813" y="307.377806" style="stroke: #000000; stroke-width: 0.8"/>
      </g>
     </g>
     <g id="text_6">
      <!-- −0.5 -->
      <g transform="translate(7.2 311.177025) scale(0.1 -0.1)">
       <defs>
        <path id="DejaVuSans-2212" d="M 678 2272 
L 4684 2272 
L 4684 1741 
L 678 1741 
L 678 2272 
z
" transform="scale(0.015625)"/>
        <path id="DejaVuSans-2e" d="M 684 794 
L 1344 794 
L 1344 0 
L 684 0 
L 684 794 
z
" transform="scale(0.015625)"/>
        <path id="DejaVuSans-35" d="M 691 4666 
L 3169 4666 
L 3169 4134 
L 1269 4134 
L 1269 2991 
Q 1406 3038 1543 3061 
Q 1681 3084 1819 3084 
Q 2600 3084 3056 2656 
Q 3513 2228 3513 1497 
Q 3513 744 3044 326 
Q 2575 -91 1722 -91 
Q 1428 -91 1123 -41 
Q 819 9 494 109 
L 494 744 
Q 775 591 1075 516 
Q 1375 441 1709 441 
Q 2250 441 2565 725 
Q 2881 1009 2881 1497 
Q 2881 1984 2565 2268 
Q 2250 2553 1709 2553 
Q 1456 2553 1204 2497 
Q 953 2441 691 2322 
L 691 4666 
z
" transform="scale(0.015625)"/>
       </defs>
       <use xlink:href="#DejaVuSans-2212"/>
       <use xlink:href="#DejaVuSans-30" x="83.789062"/>
       <use xlink:href="#DejaVuSans-2e" x="147.412109"/>
       <use xlink:href="#DejaVuSans-35" x="179.199219"/>
      </g>
     </g>
    </g>
    <g id="ytick_2">
     <g id="line2d_7">
      <g>
       <use xlink:href="#m205520f369" x="38.482813" y="270.015424" style="stroke: #000000; stroke-width: 0.8"/>
      </g>
     </g>
     <g id="text_7">
      <!-- 0.0 -->
      <g transform="translate(15.579688 273.814643) scale(0.1 -0.1)">
       <use xlink:href="#DejaVuSans-30"/>
       <use xlink:href="#DejaVuSans-2e" x="63.623047"/>
       <use xlink:href="#DejaVuSans-30" x="95.410156"/>
      </g>
     </g>
    </g>
    <g id="ytick_3">
     <g id="line2d_8">
      <g>
       <use xlink:href="#m205520f369" x="38.482813" y="232.653042" style="stroke: #000000; stroke-width: 0.8"/>
      </g>
     </g>
     <g id="text_8">
      <!-- 0.5 -->
      <g transform="translate(15.579688 236.452261) scale(0.1 -0.1)">
       <use xlink:href="#DejaVuSans-30"/>
       <use xlink:href="#DejaVuSans-2e" x="63.623047"/>
       <use xlink:href="#DejaVuSans-35" x="95.410156"/>
      </g>
     </g>
    </g>
    <g id="ytick_4">
     <g id="line2d_9">
      <g>
       <use xlink:href="#m205520f369" x="38.482813" y="195.29066" style="stroke: #000000; stroke-width: 0.8"/>
      </g>
     </g>
     <g id="text_9">
      <!-- 1.0 -->
      <g transform="translate(15.579688 199.089879) scale(0.1 -0.1)">
       <use xlink:href="#DejaVuSans-31"/>
       <use xlink:href="#DejaVuSans-2e" x="63.623047"/>
       <use xlink:href="#DejaVuSans-30" x="95.410156"/>
      </g>
     </g>
    </g>
    <g id="ytick_5">
     <g id="line2d_10">
      <g>
       <use xlink:href="#m205520f369" x="38.482813" y="157.928278" style="stroke: #000000; stroke-width: 0.8"/>
      </g>
     </g>
     <g id="text_10">
      <!-- 1.5 -->
      <g transform="translate(15.579688 161.727497) scale(0.1 -0.1)">
       <use xlink:href="#DejaVuSans-31"/>
       <use xlink:href="#DejaVuSans-2e" x="63.623047"/>
       <use xlink:href="#DejaVuSans-35" x="95.410156"/>
      </g>
     </g>
    </g>
    <g id="ytick_6">
     <g id="line2d_11">
      <g>
       <use xlink:href="#m205520f369" x="38.482813" y="120.565896" style="stroke: #000000; stroke-width: 0.8"/>
      </g>
     </g>
     <g id="text_11">
      <!-- 2.0 -->
      <g transform="translate(15.579688 124.365115) scale(0.1 -0.1)">
       <use xlink:href="#DejaVuSans-32"/>
       <use xlink:href="#DejaVuSans-2e" x="63.623047"/>
       <use xlink:href="#DejaVuSans-30" x="95.410156"/>
      </g>
     </g>
    </g>
    <g id="ytick_7">
     <g id="line2d_12">
      <g>
       <use xlink:href="#m205520f369" x="38.482813" y="83.203514" style="stroke: #000000; stroke-width: 0.8"/>
      </g>
     </g>
     <g id="text_12">
      <!-- 2.5 -->
      <g transform="translate(15.579688 87.002733) scale(0.1 -0.1)">
       <use xlink:href="#DejaVuSans-32"/>
       <use xlink:href="#DejaVuSans-2e" x="63.623047"/>
       <use xlink:href="#DejaVuSans-35" x="95.410156"/>
      </g>
     </g>
    </g>
    <g id="ytick_8">
     <g id="line2d_13">
      <g>
       <use xlink:href="#m205520f369" x="38.482813" y="45.841132" style="stroke: #000000; stroke-width: 0.8"/>
      </g>
     </g>
     <g id="text_13">
      <!-- 3.0 -->
      <g transform="translate(15.579688 49.640351) scale(0.1 -0.1)">
       <defs>
        <path id="DejaVuSans-33" d="M 2597 2516 
Q 3050 2419 3304 2112 
Q 3559 1806 3559 1356 
Q 3559 666 3084 287 
Q 2609 -91 1734 -91 
Q 1441 -91 1130 -33 
Q 819 25 488 141 
L 488 750 
Q 750 597 1062 519 
Q 1375 441 1716 441 
Q 2309 441 2620 675 
Q 2931 909 2931 1356 
Q 2931 1769 2642 2001 
Q 2353 2234 1838 2234 
L 1294 2234 
L 1294 2753 
L 1863 2753 
Q 2328 2753 2575 2939 
Q 2822 3125 2822 3475 
Q 2822 3834 2567 4026 
Q 2313 4219 1838 4219 
Q 1578 4219 1281 4162 
Q 984 4106 628 3988 
L 628 4550 
Q 988 4650 1302 4700 
Q 1616 4750 1894 4750 
Q 2613 4750 3031 4423 
Q 3450 4097 3450 3541 
Q 3450 3153 3228 2886 
Q 3006 2619 2597 2516 
z
" transform="scale(0.015625)"/>
       </defs>
       <use xlink:href="#DejaVuSans-33"/>
       <use xlink:href="#DejaVuSans-2e" x="63.623047"/>
       <use xlink:href="#DejaVuSans-30" x="95.410156"/>
      </g>
     </g>
    </g>
   </g>
   <g id="line2d_14">
    <path d="M 68.813722 256.085731 
L 69.168158 249.876602 
L 69.345376 250.856991 
L 69.522595 250.489345 
L 69.699813 250.693593 
L 69.877031 251.224637 
L 70.05425 252.776919 
L 70.231468 252.899468 
L 70.585904 254.819396 
L 70.763123 254.45175 
L 70.940341 256.494227 
L 71.117559 257.06612 
L 71.649214 260.374933 
L 71.826432 259.476243 
L 72.003651 257.025271 
L 72.358087 255.799785 
L 72.535306 256.780174 
L 72.712524 255.922333 
L 72.889742 251.755681 
L 73.06696 251.142937 
L 73.244179 249.468106 
L 73.421397 249.99915 
L 73.598615 249.263859 
L 73.953052 246.281842 
L 74.13027 248.365169 
L 74.307488 252.69522 
L 74.484707 252.981167 
L 74.661925 252.041627 
L 74.839143 252.940317 
L 75.016361 252.409273 
L 75.548016 255.963183 
L 75.725235 258.740951 
L 76.079671 258.332456 
L 76.434108 252.858618 
L 76.611326 252.327574 
L 76.788544 252.899468 
L 76.965763 253.022016 
L 77.142981 253.389662 
L 77.320199 249.468106 
L 77.497417 249.263859 
L 77.674636 251.224637 
L 77.851854 250.816141 
L 78.029072 248.732815 
L 78.206291 249.018761 
L 78.737945 253.920706 
L 78.915164 252.940317 
L 79.2696 254.941944 
L 79.446819 255.881484 
L 79.624037 255.718086 
L 79.801255 255.268741 
L 79.978473 258.209907 
L 80.155692 259.271995 
L 80.510128 254.002405 
L 80.687347 254.574299 
L 81.041783 251.755681 
L 81.219001 246.812886 
L 81.39622 246.976285 
L 82.282311 242.237738 
L 82.459529 241.870092 
L 82.636748 242.482835 
L 82.991184 244.443613 
L 83.522839 246.812886 
L 84.054494 250.89784 
L 84.231712 250.489345 
L 84.40893 253.675609 
L 84.763367 250.448495 
L 84.940585 250.530194 
L 85.117804 249.590655 
L 85.47224 250.734442 
L 85.826677 249.917451 
L 86.003895 250.448495 
L 86.358332 249.713204 
L 86.712768 247.38478 
L 86.889986 250.816141 
L 87.067205 251.755681 
L 87.244423 252.000778 
L 87.421641 252.613521 
L 87.59886 252.205025 
L 87.776078 253.961556 
L 87.953296 252.000778 
L 88.130514 254.043255 
L 88.484951 248.324319 
L 88.662169 248.446868 
L 88.839388 247.915824 
L 89.193824 244.72956 
L 89.371042 244.647861 
L 89.725479 243.626623 
L 89.902697 243.708322 
L 90.079916 243.299826 
L 90.257134 244.075967 
L 90.434352 245.464852 
L 90.61157 245.219754 
L 90.788789 245.464852 
L 90.966007 244.525312 
L 91.497662 249.18216 
L 91.67488 249.835752 
L 91.852098 251.306336 
L 92.029317 251.469734 
L 92.206535 251.79653 
L 92.383753 250.366796 
L 92.560971 251.224637 
L 92.73819 252.776919 
L 92.915408 253.103715 
L 93.092626 249.794903 
L 93.269845 249.958301 
L 93.624281 249.917451 
L 93.978718 251.592282 
L 94.687591 252.490972 
L 94.864809 252.082477 
L 95.042027 250.203398 
L 95.219246 249.590655 
L 95.573682 256.330829 
L 95.928119 255.513838 
L 96.459774 257.842262 
L 97.168647 265.767072 
L 97.523083 259.067748 
L 97.700302 258.8635 
L 97.87752 259.476243 
L 98.054738 259.353695 
L 98.231957 259.598792 
L 98.586393 261.069375 
L 98.763611 263.887993 
L 98.94083 263.602046 
L 99.295266 257.801412 
L 99.472485 258.046509 
L 99.826921 262.948454 
L 100.004139 263.193551 
L 100.181358 263.724595 
L 100.358576 263.479498 
L 100.535794 264.255639 
L 100.713012 265.767072 
L 100.890231 266.216417 
L 101.067449 267.687 
L 101.244667 267.687 
L 101.421886 270.709866 
L 101.599104 269.606928 
L 101.776322 264.868382 
L 101.95354 264.745833 
L 102.130759 264.909232 
L 102.307977 265.481125 
L 102.485195 265.113479 
L 102.662414 264.459887 
L 102.839632 266.216417 
L 103.194068 264.745833 
L 103.371287 262.825905 
L 103.725723 262.37656 
L 103.902942 263.438648 
L 104.08016 263.071002 
L 104.434596 264.623285 
L 104.611815 264.296489 
L 104.789033 265.481125 
L 104.966251 265.889621 
L 105.320688 265.767072 
L 105.675124 266.951709 
L 105.852343 267.196806 
L 106.029561 266.665762 
L 106.206779 267.646151 
L 106.383998 267.809549 
L 106.561216 266.338965 
L 106.738434 266.093868 
L 107.092871 266.584063 
L 107.270089 266.747461 
L 107.624526 259.639641 
L 107.801744 257.923961 
L 107.978962 258.087359 
L 108.510617 261.232773 
L 108.687835 261.600419 
L 109.042272 262.744206 
L 109.21949 264.990931 
L 109.396708 265.562824 
L 109.751145 264.378188 
L 109.928363 264.051391 
L 110.105581 263.234401 
L 110.2828 263.683745 
L 110.460018 262.785056 
L 110.637236 262.744206 
L 110.814455 262.049764 
L 110.991673 261.968065 
L 111.168891 259.026898 
L 111.523328 257.883111 
L 111.700546 257.515465 
L 111.877764 256.616775 
L 112.054983 256.861873 
L 112.409419 259.231146 
L 112.586637 258.700102 
L 112.763856 257.025271 
L 112.941074 256.494227 
L 114.004384 266.543213 
L 114.181602 269.688628 
L 114.35882 265.726222 
L 114.536039 265.481125 
L 114.890475 263.071002 
L 115.067693 263.438648 
L 115.599348 265.276877 
L 115.953785 248.24262 
L 116.308221 245.873347 
L 116.48544 244.239366 
L 116.839876 251.83738 
L 117.017094 251.755681 
L 117.371531 250.93869 
L 117.725968 253.798157 
L 117.903186 254.165803 
L 118.080404 255.513838 
L 118.434841 260.170685 
L 118.789277 253.226264 
L 119.143714 251.347185 
L 119.320932 251.633132 
L 119.49815 251.673981 
L 119.675369 251.919079 
L 119.852587 251.510583 
L 120.029805 251.469734 
L 120.207024 251.673981 
L 120.384242 251.592282 
L 120.56146 250.571044 
L 120.915897 252.981167 
L 121.093115 255.840634 
L 121.447552 257.597164 
L 121.62477 257.515465 
L 121.801988 259.231146 
L 121.979206 259.394544 
L 122.333643 260.987676 
L 122.510861 262.539958 
L 122.68808 266.093868 
L 123.042516 259.72134 
L 123.219734 259.190296 
L 123.574171 259.843889 
L 123.928608 261.682118 
L 124.105826 260.865127 
L 124.283044 261.314472 
L 124.460262 260.415782 
L 124.637481 260.170685 
L 124.814699 258.822651 
L 124.991917 259.966438 
L 125.169136 262.008914 
L 125.346354 265.644523 
L 125.523572 265.767072 
L 125.70079 265.399426 
L 125.878009 265.767072 
L 126.409663 269.606928 
L 126.7641 274.018679 
L 126.941318 278.26703 
L 127.295755 268.667389 
L 127.472973 267.278505 
L 127.650191 266.951709 
L 128.004628 267.319354 
L 128.181846 268.136345 
L 128.359065 270.750716 
L 128.536283 275.570961 
L 128.713501 276.183704 
L 128.890719 275.121616 
L 129.245156 270.873264 
L 129.422374 272.384697 
L 129.599593 275.65266 
L 129.776811 275.366713 
L 129.954029 276.224554 
L 130.131247 276.020306 
L 130.485684 276.265403 
L 130.662902 277.041544 
L 130.840121 276.755598 
L 131.017339 278.30788 
L 131.548994 270.056273 
L 131.726212 269.892875 
L 131.90343 270.097123 
L 132.080649 267.809549 
L 132.257867 267.237655 
L 132.612303 267.809549 
L 132.96674 260.579181 
L 133.143958 260.579181 
L 133.321177 260.129836 
L 133.498395 260.62003 
L 134.03005 262.825905 
L 134.384486 263.928843 
L 134.561704 264.17394 
L 134.738923 265.399426 
L 134.916141 265.195178 
L 135.270578 265.481125 
L 135.447796 266.461514 
L 135.625014 266.379815 
L 135.802232 266.543213 
L 136.511106 263.3161 
L 136.688324 259.312845 
L 137.574415 255.268741 
L 137.928852 256.167431 
L 138.10607 257.188669 
L 138.283288 257.352067 
L 138.460507 258.291607 
L 138.637725 258.250757 
L 138.814943 258.986049 
L 138.992162 260.905977 
L 139.16938 260.538331 
L 139.346598 261.845516 
L 139.523816 264.990931 
L 139.701035 264.582435 
L 139.878253 262.335711 
L 140.055471 261.55957 
L 140.23269 258.90435 
L 140.409908 258.128208 
L 140.764344 259.843889 
L 140.941563 259.394544 
L 141.118781 257.719713 
L 141.473218 246.976285 
L 141.650436 245.546551 
L 141.827654 245.791648 
L 142.004872 246.52694 
L 142.182091 248.610266 
L 142.359309 252.245875 
L 142.536527 251.755681 
L 142.713745 251.79653 
L 142.890964 253.226264 
L 143.2454 251.592282 
L 143.422619 251.755681 
L 143.599837 250.162549 
L 143.777055 249.590655 
L 143.954273 253.062866 
L 144.30871 251.510583 
L 144.485928 251.633132 
L 144.663147 251.224637 
L 144.840365 251.102088 
L 145.37202 248.610266 
L 145.726456 243.912569 
L 145.903675 243.912569 
L 146.080893 243.667472 
L 146.258111 243.708322 
L 146.435329 245.383153 
L 146.612548 249.345558 
L 146.966984 248.406018 
L 147.675857 254.002405 
L 148.207512 261.314472 
L 148.561949 253.103715 
L 148.739167 252.082477 
L 148.916385 252.123326 
L 149.093604 251.510583 
L 149.270822 251.919079 
L 149.44804 251.183787 
L 149.625259 251.306336 
L 149.979695 249.549805 
L 150.156913 250.162549 
L 150.51135 249.100461 
L 151.397441 252.981167 
L 151.57466 251.061238 
L 151.751878 252.409273 
L 152.283533 260.374933 
L 152.460751 258.455005 
L 152.637969 254.982794 
L 152.815188 255.30959 
L 153.169624 254.370051 
L 153.346842 254.901095 
L 153.701279 253.798157 
L 154.055716 250.530194 
L 154.232934 250.611893 
L 154.58737 249.18216 
L 154.764589 247.098833 
L 155.119025 252.613521 
L 155.296244 252.736069 
L 155.827898 255.146192 
L 156.359553 266.78831 
L 156.536772 266.870009 
L 156.71399 267.687 
L 157.068426 264.051391 
L 157.422863 263.683745 
L 157.600081 263.969692 
L 157.7773 263.397799 
L 157.954518 263.479498 
L 158.131736 263.193551 
L 158.308954 262.131463 
L 158.486173 262.499109 
L 159.017828 261.55957 
L 159.372264 266.053019 
L 159.549482 265.726222 
L 159.726701 265.03178 
L 159.903919 265.195178 
L 160.081137 268.258894 
L 160.258355 268.381442 
L 160.612792 271.853653 
L 160.79001 270.301371 
L 160.967229 265.562824 
L 161.144447 266.134718 
L 161.321665 265.276877 
L 161.498883 265.07263 
L 161.85332 265.07263 
L 162.207757 264.255639 
L 162.384975 263.27525 
L 162.562193 263.27525 
L 162.91663 260.742579 
L 163.271066 259.435394 
L 163.625503 260.824278 
L 163.802721 262.049764 
L 163.979939 260.579181 
L 164.157158 261.151074 
L 164.334376 262.621658 
L 164.866031 259.680491 
L 165.043249 259.884738 
L 165.220467 260.293234 
L 165.574904 263.234401 
L 166.106559 260.334083 
L 166.283777 261.55957 
L 166.460995 260.374933 
L 166.99265 262.499109 
L 167.169869 262.37656 
L 167.347087 262.090614 
L 167.524305 261.314472 
L 167.878742 265.807921 
L 168.05596 265.195178 
L 168.233178 265.726222 
L 168.410396 267.72785 
L 168.587615 267.646151 
L 168.942051 268.708239 
L 169.11927 269.320982 
L 169.473706 275.203315 
L 169.650924 269.075884 
L 169.828143 267.319354 
L 170.537016 265.317727 
L 170.891452 265.195178 
L 171.245889 263.193551 
L 171.423107 261.355322 
L 171.600326 260.987676 
L 171.777544 260.293234 
L 172.309199 264.786683 
L 172.486417 264.745833 
L 172.663635 265.154329 
L 173.372508 271.24091 
L 173.549727 276.347102 
L 173.726945 275.203315 
L 174.081382 266.461514 
L 174.790255 260.987676 
L 175.499128 255.881484 
L 175.676346 255.758935 
L 175.853564 255.35044 
L 176.030783 255.391289 
L 176.385219 259.76219 
L 176.739656 258.414155 
L 176.916874 258.209907 
L 177.094092 258.373306 
L 177.625747 261.51872 
L 177.802965 267.196806 
L 177.980184 266.665762 
L 178.33462 258.414155 
L 178.689057 256.371678 
L 178.866275 256.453377 
L 179.043493 257.10697 
L 179.575148 252.286724 
L 179.752367 252.286724 
L 180.284021 251.388035 
L 180.46124 252.817768 
L 180.638458 255.187042 
L 180.815676 254.4926 
L 180.992895 256.616775 
L 181.170113 252.490972 
L 181.347331 251.919079 
L 181.524549 253.348812 
L 181.701768 253.062866 
L 181.878986 251.347185 
L 182.056204 248.446868 
L 182.233423 248.201771 
L 182.410641 248.365169 
L 182.765077 245.955046 
L 183.119514 240.685456 
L 183.473951 227.450206 
L 183.828387 217.646317 
L 184.182824 209.844055 
L 184.360042 208.087525 
L 184.891697 199.182326 
L 185.068915 199.386573 
L 185.246133 200.857157 
L 185.60057 207.107136 
L 185.955006 209.844055 
L 186.132225 210.701895 
L 186.486661 215.317893 
L 186.66388 214.051557 
L 186.841098 213.888159 
L 187.195534 214.582601 
L 187.372753 215.685539 
L 187.549971 215.031946 
L 187.727189 217.237821 
L 187.904408 217.033574 
L 188.436062 222.180615 
L 188.790499 223.5695 
L 188.967717 226.224719 
L 189.144936 226.878312 
L 189.499372 225.938773 
L 190.031027 229.002488 
L 190.385464 233.741034 
L 190.562682 237.866838 
L 190.7399 235.783511 
L 190.917118 231.45346 
L 191.094337 230.799868 
L 191.271555 230.718169 
L 191.448773 230.840717 
L 192.157646 234.190379 
L 192.512083 232.515548 
L 192.689301 233.046592 
L 192.86652 232.678946 
L 193.220956 235.824361 
L 193.398174 234.353777 
L 193.575393 234.067831 
L 193.929829 232.433849 
L 194.284266 233.495937 
L 194.638702 236.518803 
L 195.170357 231.984504 
L 195.347575 231.412611 
L 195.524794 231.249213 
L 195.702012 230.63647 
L 195.87923 232.147902 
L 196.233667 243.749171 
L 196.410885 244.811259 
L 196.588103 243.749171 
L 196.94254 236.723051 
L 197.119758 235.701812 
L 197.296977 235.334166 
L 197.474195 235.334166 
L 197.651413 235.620113 
L 197.828631 235.129919 
L 198.00585 236.232856 
L 198.183068 236.273706 
L 198.360286 237.580891 
L 198.714723 237.866838 
L 198.891941 237.131546 
L 199.069159 236.886449 
L 199.246378 237.090696 
L 199.778033 236.641352 
L 200.309687 232.474699 
L 200.664124 233.822733 
L 200.841342 234.312928 
L 201.195779 233.087442 
L 201.372997 231.167514 
L 201.550215 232.35215 
L 201.904652 237.376643 
L 202.613525 238.316183 
L 202.790743 237.213245 
L 202.967962 237.090696 
L 203.14518 236.600502 
L 203.322398 236.559653 
L 203.499616 237.254095 
L 203.676835 237.213245 
L 203.854053 236.968148 
L 204.031271 237.131546 
L 204.20849 236.723051 
L 204.740144 233.291689 
L 205.094581 230.881567 
L 205.271799 230.55477 
L 205.449018 230.718169 
L 205.803454 231.657708 
L 206.157891 234.517176 
L 206.335109 233.986132 
L 206.512327 234.272078 
L 207.043982 236.192007 
L 207.398419 238.683828 
L 207.752855 241.992641 
L 207.930074 238.52043 
L 208.107292 237.948537 
L 208.461728 238.111935 
L 208.638947 237.66259 
L 208.816165 237.825988 
L 208.993383 238.888076 
L 209.170602 239.133173 
L 209.34782 238.888076 
L 209.525038 235.620113 
L 209.702256 236.110308 
L 209.879475 238.683828 
L 210.056693 239.255722 
L 210.411129 242.97303 
L 210.765566 241.257349 
L 210.942784 241.17565 
L 211.120003 241.543296 
L 211.651657 245.791648 
L 212.006094 250.244248 
L 212.183312 246.445241 
L 212.360531 245.750798 
L 212.537749 245.995896 
L 212.892185 246.812886 
L 213.246622 246.935435 
L 213.42384 247.42563 
L 213.601059 247.098833 
L 213.778277 247.262231 
L 213.955495 247.180532 
L 214.309932 246.036745 
L 214.664368 251.714831 
L 214.841587 252.205025 
L 215.018805 250.979539 
L 215.196023 251.469734 
L 215.727678 254.370051 
L 215.904896 256.371678 
L 216.082115 260.293234 
L 216.613769 252.409273 
L 217.145424 252.613521 
L 217.322643 252.940317 
L 217.499861 251.265486 
L 217.677079 251.428884 
L 218.031516 248.855363 
L 218.385952 248.038373 
L 218.563171 248.160921 
L 218.917607 254.206653 
L 219.094825 254.247502 
L 219.272044 254.778546 
L 219.449262 254.860245 
L 219.62648 255.30959 
L 219.980917 257.188669 
L 220.158135 257.515465 
L 220.335353 252.981167 
L 220.512572 253.144565 
L 221.221445 255.064493 
L 221.398663 254.533449 
L 221.575881 254.737697 
L 221.7531 254.4109 
L 222.107536 254.941944 
L 222.461973 253.185414 
L 222.639191 253.430512 
L 223.170846 255.922333 
L 223.348064 257.597164 
L 223.525282 257.147819 
L 223.879719 259.435394 
L 224.056937 259.76219 
L 224.588592 263.111852 
L 224.76581 259.557942 
L 224.943029 258.986049 
L 225.297465 257.025271 
L 225.651902 257.719713 
L 225.82912 256.902722 
L 226.006338 258.618403 
L 226.183557 258.046509 
L 226.715212 261.314472 
L 227.069648 257.147819 
L 227.601303 263.969692 
L 227.955739 263.561197 
L 228.132958 264.17394 
L 228.664613 268.013796 
L 228.841831 272.302998 
L 229.196267 263.642896 
L 229.373486 262.008914 
L 229.550704 261.600419 
L 229.727922 261.600419 
L 230.082359 262.41741 
L 230.259577 263.642896 
L 230.436795 263.642896 
L 230.614014 264.419037 
L 230.791232 263.887993 
L 231.145669 262.131463 
L 231.322887 262.621658 
L 231.500105 264.17394 
L 231.677323 267.972947 
L 231.854542 267.891248 
L 232.03176 267.441903 
L 232.208978 267.401053 
L 232.563415 270.301371 
L 232.740633 271.24091 
L 232.917851 273.160838 
L 233.09507 277.531739 
L 233.449506 268.503991 
L 233.626725 267.033408 
L 233.803943 266.747461 
L 233.981161 266.82916 
L 234.158379 266.216417 
L 234.335598 266.624912 
L 234.512816 267.360204 
L 234.690034 266.461514 
L 234.867253 266.461514 
L 235.044471 265.889621 
L 235.221689 266.012169 
L 235.576126 264.255639 
L 235.930562 270.464769 
L 236.284999 268.054646 
L 236.462217 268.136345 
L 237.17109 274.917368 
L 237.348308 278.021933 
L 237.702745 270.260521 
L 238.2344 267.278505 
L 238.411618 267.401053 
L 238.588836 267.155956 
L 238.766055 268.013796 
L 239.474928 269.035035 
L 239.652146 268.422292 
L 239.829364 267.115107 
L 240.006583 269.075884 
L 240.183801 273.160838 
L 240.361019 273.242537 
L 240.538238 273.89613 
L 240.715456 273.89613 
L 241.069892 275.407563 
L 241.247111 275.69351 
L 241.424329 276.428801 
L 241.601547 279.696764 
L 242.133202 272.017051 
L 242.487639 271.20006 
L 242.842075 269.525229 
L 243.196512 268.258894 
L 243.550948 266.502364 
L 243.728167 266.175567 
L 243.905385 265.317727 
L 244.082603 263.642896 
L 244.259822 264.051391 
L 244.43704 267.482752 
L 244.614258 268.136345 
L 244.791476 268.136345 
L 245.145913 271.281759 
L 245.500349 272.1396 
L 245.677568 271.649405 
L 245.854786 269.320982 
L 246.032004 271.036662 
L 246.209223 270.750716 
L 246.386441 268.177195 
L 246.563659 268.463141 
L 246.740877 267.074257 
L 246.918096 267.687 
L 247.095314 264.704984 
L 247.272532 264.745833 
L 247.804187 263.3161 
L 247.981405 263.561197 
L 248.335842 262.37656 
L 248.51306 262.172313 
L 248.690279 262.621658 
L 248.867497 264.623285 
L 249.221933 262.499109 
L 249.399152 263.642896 
L 249.57637 263.152702 
L 249.930807 258.495854 
L 250.285243 253.471361 
L 250.462461 249.754053 
L 250.63968 248.855363 
L 251.171335 242.319437 
L 251.348553 241.910942 
L 251.880208 243.013879 
L 252.234644 243.912569 
L 252.411863 244.198516 
L 252.943517 246.077595 
L 253.297954 247.956674 
L 253.475172 248.201771 
L 253.65239 248.24262 
L 253.829609 248.487717 
L 254.006827 248.201771 
L 254.184045 248.814514 
L 254.361264 248.201771 
L 254.538482 248.406018 
L 254.7157 248.079222 
L 255.070137 246.404391 
L 255.247355 246.567789 
L 255.424573 247.262231 
L 256.133446 245.750798 
L 256.487883 243.790021 
L 256.665101 244.443613 
L 256.84232 244.198516 
L 257.019538 243.708322 
L 257.373974 246.853736 
L 257.905629 249.958301 
L 258.437284 251.714831 
L 258.791721 251.510583 
L 259.146157 249.100461 
L 259.323376 248.896213 
L 259.677812 251.183787 
L 259.85503 250.856991 
L 260.032249 249.754053 
L 260.209467 250.162549 
L 260.386685 250.162549 
L 260.741122 252.000778 
L 260.91834 251.878229 
L 261.095558 250.489345 
L 261.272777 251.755681 
L 261.449995 255.146192 
L 261.627213 255.595537 
L 261.804431 254.778546 
L 262.158868 256.330829 
L 262.513305 259.598792 
L 262.690523 260.538331 
L 262.867741 264.868382 
L 263.222178 259.353695 
L 263.576614 258.046509 
L 263.753833 258.495854 
L 264.108269 257.760563 
L 264.285487 257.556315 
L 264.462706 257.556315 
L 264.639924 257.883111 
L 264.994361 259.557942 
L 265.171579 258.577553 
L 265.526015 258.332456 
L 265.703234 261.641269 
L 266.05767 263.030153 
L 266.234889 263.193551 
L 266.412107 265.562824 
L 266.589325 265.685373 
L 266.943762 267.360204 
L 267.12098 267.237655 
L 267.475417 263.438648 
L 267.652635 262.335711 
L 267.829853 262.335711 
L 268.007071 262.703357 
L 268.18429 262.335711 
L 268.361508 262.785056 
L 268.538726 263.887993 
L 268.893163 262.41741 
L 269.070381 262.499109 
L 269.424818 262.41741 
L 269.602036 262.866755 
L 270.133691 268.054646 
L 270.310909 267.319354 
L 270.665346 268.830787 
L 270.842564 268.953336 
L 271.197 266.951709 
L 271.374219 268.58569 
L 271.905874 265.440276 
L 272.437528 265.399426 
L 272.614747 264.786683 
L 272.791965 264.909232 
L 272.969183 264.541586 
L 273.500838 265.97132 
L 273.678056 266.257266 
L 273.855275 266.134718 
L 274.209711 267.401053 
L 274.564148 268.994185 
L 274.741366 269.157584 
L 274.918584 270.015424 
L 275.095803 269.606928 
L 275.273021 269.688628 
L 275.450239 270.34222 
L 275.804676 268.912486 
L 275.981894 267.155956 
L 276.159112 267.074257 
L 276.513549 266.257266 
L 276.867986 267.401053 
L 277.045204 268.503991 
L 277.222422 267.932097 
L 277.39964 267.768699 
L 278.285732 264.541586 
L 278.640168 268.789938 
L 279.349041 264.010542 
L 279.52626 263.438648 
L 279.703478 263.602046 
L 279.880696 263.561197 
L 280.412351 262.335711 
L 280.589569 262.458259 
L 281.298443 261.314472 
L 281.475661 260.62003 
L 281.652879 257.392917 
L 281.830097 247.752426 
L 282.007316 255.554688 
L 282.184534 253.675609 
L 282.538971 245.5874 
L 282.893407 243.177278 
L 283.247844 245.056356 
L 283.425062 246.48609 
L 283.60228 249.100461 
L 283.779499 247.057984 
L 283.956717 246.976285 
L 284.311153 249.754053 
L 284.66559 249.14131 
L 285.020027 251.061238 
L 285.197245 251.142937 
L 285.551681 248.732815 
L 285.906118 246.48609 
L 286.083336 246.363542 
L 286.437773 247.34393 
L 286.969428 248.937062 
L 287.146646 249.059611 
L 287.323864 248.773664 
L 287.501082 249.304708 
L 287.678301 248.814514 
L 287.855519 248.855363 
L 288.032737 250.04 
L 288.387174 249.304708 
L 288.564392 249.18216 
L 288.918829 250.407646 
L 289.096047 249.958301 
L 289.273265 250.162549 
L 289.450484 250.652743 
L 289.80492 249.508956 
L 289.982138 249.508956 
L 290.159357 251.020389 
L 290.513793 252.082477 
L 290.86823 250.856991 
L 291.045448 250.734442 
L 291.222666 255.268741 
L 291.399885 255.881484 
L 291.577103 256.085731 
L 291.754321 256.575926 
L 292.285976 261.355322 
L 292.463194 260.946826 
L 293.172068 256.167431 
L 293.349286 255.963183 
L 293.526504 255.554688 
L 293.703722 255.963183 
L 294.058159 254.941944 
L 294.235377 255.472988 
L 294.589814 253.961556 
L 294.94425 255.963183 
L 295.121469 254.043255 
L 295.298687 255.840634 
L 295.475905 259.803039 
L 295.830342 259.271995 
L 296.00756 259.108597 
L 296.184778 259.517093 
L 296.539215 263.234401 
L 296.716433 266.420665 
L 296.893651 267.278505 
L 297.248088 259.353695 
L 297.425306 258.250757 
L 297.602525 258.046509 
L 297.956961 256.861873 
L 298.134179 255.636387 
L 298.311398 257.311218 
L 298.488616 257.352067 
L 298.665834 257.025271 
L 298.843053 257.760563 
L 299.020271 256.902722 
L 299.197489 257.270368 
L 299.374707 257.229519 
L 299.551926 258.659252 
L 299.729144 261.47787 
L 300.083581 260.824278 
L 300.438017 259.557942 
L 300.615235 259.598792 
L 300.969672 261.069375 
L 301.14689 260.048137 
L 301.324109 259.803039 
L 301.501327 259.76219 
L 301.678545 259.312845 
L 302.032982 257.311218 
L 302.2102 257.883111 
L 302.564637 255.677236 
L 302.741855 254.819396 
L 302.919073 254.615148 
L 303.627946 252.817768 
L 303.805165 254.247502 
L 303.982383 256.780174 
L 304.159601 257.556315 
L 304.336819 257.719713 
L 304.514038 256.943572 
L 305.222911 261.927215 
L 305.400129 262.458259 
L 305.754566 255.554688 
L 305.931784 255.432139 
L 306.109002 254.615148 
L 306.28622 254.533449 
L 306.463439 255.227891 
L 306.640657 254.574299 
L 306.817875 255.187042 
L 306.995094 254.941944 
L 307.172312 254.901095 
L 307.34953 255.391289 
L 308.058403 254.4109 
L 308.235622 258.087359 
L 308.590058 260.211535 
L 308.767276 259.76219 
L 308.944495 258.90435 
L 309.121713 259.108597 
L 309.47615 257.883111 
L 309.653368 257.678863 
L 309.830586 257.229519 
L 310.007804 257.270368 
L 310.185023 256.494227 
L 310.362241 256.575926 
L 310.539459 256.453377 
L 310.716678 256.494227 
L 310.893896 256.330829 
L 311.602769 254.533449 
L 311.779987 253.307963 
L 312.134424 252.736069 
L 312.311642 253.185414 
L 312.48886 253.022016 
L 312.666079 252.450123 
L 312.843297 252.450123 
L 313.197733 251.061238 
L 314.083825 248.365169 
L 314.61548 248.120072 
L 314.792698 248.160921 
L 315.856008 246.200143 
L 316.033226 246.52694 
L 316.210444 247.303081 
L 316.387663 246.772037 
L 316.742099 248.079222 
L 317.096536 247.303081 
L 317.273754 248.487717 
L 317.450972 248.732815 
L 317.628191 249.468106 
L 317.805409 251.551433 
L 317.982627 247.670727 
L 318.337064 245.505701 
L 318.6915 244.525312 
L 319.223155 242.687083 
L 319.400373 241.951791 
L 319.577592 241.706694 
L 319.932028 240.848854 
L 320.109247 240.685456 
L 320.463683 240.726305 
L 320.81812 241.2165 
L 320.995338 242.278588 
L 321.172556 242.482835 
L 321.349774 242.11519 
L 321.526993 243.177278 
L 321.704211 242.237738 
L 321.881429 241.992641 
L 322.058648 242.033491 
L 322.235866 242.196889 
L 322.767521 240.562907 
L 322.944739 240.35866 
L 323.299176 240.562907 
L 323.476394 240.154412 
L 323.83083 240.113562 
L 324.008049 240.236111 
L 324.185267 240.113562 
L 324.362485 240.154412 
L 324.539704 240.399509 
L 324.716922 240.440359 
L 324.89414 240.808004 
L 325.071358 240.481208 
L 325.248577 240.971403 
L 325.603013 241.134801 
L 325.780232 241.910942 
L 325.95745 241.829243 
L 326.134668 241.012252 
L 326.311886 241.012252 
L 326.489105 241.339048 
L 326.843541 243.136428 
L 327.02076 242.156039 
L 327.197978 242.156039 
L 327.375196 241.257349 
L 327.552414 241.584146 
L 327.906851 240.930553 
L 328.084069 241.134801 
L 328.261288 242.237738 
L 328.438506 242.401136 
L 328.792942 242.156039 
L 328.970161 241.543296 
L 329.324597 242.850481 
L 329.501816 246.036745 
L 329.679034 246.812886 
L 329.856252 245.750798 
L 330.03347 246.036745 
L 330.210689 247.262231 
L 330.742343 252.817768 
L 331.273998 244.933808 
L 331.451217 244.484463 
L 331.628435 243.544923 
L 331.805653 243.953419 
L 331.982871 243.054729 
L 332.16009 243.299826 
L 332.337308 243.790021 
L 332.514526 243.463224 
L 332.868963 244.77041 
L 333.046181 244.443613 
L 333.223399 244.892958 
L 333.400618 243.463224 
L 333.577836 243.299826 
L 333.755054 248.528567 
L 333.932273 249.059611 
L 334.109491 249.100461 
L 334.286709 249.263859 
L 334.641146 251.265486 
L 334.818364 252.041627 
L 334.995582 254.288352 
L 335.172801 253.839007 
L 335.350019 248.855363 
L 335.527237 247.057984 
L 335.704455 247.098833 
L 335.881674 246.894586 
L 336.058892 245.5874 
L 336.413329 245.750798 
L 336.767765 245.791648 
L 336.944983 245.546551 
L 337.29942 245.995896 
L 337.476638 245.750798 
L 337.653857 244.892958 
L 337.831075 245.873347 
L 338.008293 249.99915 
L 338.185511 251.020389 
L 338.36273 250.285097 
L 338.539948 250.04 
L 338.717166 251.142937 
L 338.894384 251.388035 
L 339.071603 252.286724 
L 339.248821 255.35044 
L 339.426039 253.675609 
L 339.780476 248.977912 
L 339.957694 248.120072 
L 340.134912 247.834125 
L 340.312131 248.160921 
L 340.666567 247.507329 
L 341.021004 247.752426 
L 341.198222 248.160921 
L 341.37544 247.548178 
L 341.552659 247.793275 
L 341.907095 247.262231 
L 342.084314 246.48609 
L 342.43875 251.469734 
L 342.793187 251.142937 
L 343.147623 253.634759 
L 343.324842 251.714831 
L 343.50206 252.327574 
L 343.679278 250.775292 
L 343.856496 250.856991 
L 344.033715 250.285097 
L 344.210933 249.018761 
L 344.56537 248.773664 
L 344.742588 248.896213 
L 345.097024 248.120072 
L 345.274243 248.446868 
L 345.451461 248.160921 
L 345.805898 248.487717 
L 345.983116 246.690338 
L 346.160334 246.48609 
L 346.337552 247.098833 
L 346.691989 250.775292 
L 346.869207 250.611893 
L 347.57808 254.002405 
L 347.755299 253.798157 
L 347.932517 253.022016 
L 348.286953 249.631505 
L 348.464172 249.468106 
L 348.64139 248.977912 
L 348.818608 249.549805 
L 348.995827 249.427257 
L 349.173045 249.14131 
L 349.350263 248.610266 
L 349.527481 248.855363 
L 349.7047 248.446868 
L 349.881918 248.324319 
L 350.413573 249.713204 
L 350.768009 251.673981 
L 350.945228 253.348812 
L 351.122446 252.286724 
L 351.299664 252.572671 
L 351.476883 251.306336 
L 351.654101 252.613521 
L 351.831319 251.510583 
L 352.008537 251.224637 
L 352.185756 253.103715 
L 352.540192 248.937062 
L 352.717411 247.997523 
L 352.894629 247.711576 
L 353.603502 250.571044 
L 353.78072 250.571044 
L 353.957939 250.979539 
L 354.135157 250.448495 
L 354.312375 250.366796 
L 354.489593 250.530194 
L 354.666812 249.631505 
L 354.84403 250.571044 
L 355.198466 254.165803 
L 355.375685 255.636387 
L 355.730121 256.943572 
L 355.90734 256.126581 
L 356.084558 257.025271 
L 356.261776 257.311218 
L 356.438994 256.616775 
L 356.793431 254.084104 
L 356.970649 253.920706 
L 357.147868 253.062866 
L 357.325086 253.512211 
L 357.679522 251.020389 
L 357.856741 251.142937 
L 358.033959 250.93869 
L 358.211177 250.04 
L 358.388396 250.489345 
L 358.565614 250.285097 
L 358.742832 248.528567 
L 358.92005 248.569417 
L 359.097269 249.223009 
L 359.274487 251.224637 
L 359.806142 252.572671 
L 359.98336 252.368424 
L 360.160578 251.265486 
L 360.337797 250.979539 
L 360.692233 253.879856 
L 361.223888 251.183787 
L 361.401106 251.347185 
L 361.578325 249.427257 
L 361.755543 250.611893 
L 361.932761 249.508956 
L 362.10998 247.057984 
L 362.464416 249.672354 
L 362.818853 249.18216 
L 363.173289 249.263859 
L 363.527726 250.693593 
L 363.704944 252.327574 
L 364.059381 252.858618 
L 364.236599 251.83738 
L 364.413817 251.959928 
L 365.12269 247.629877 
L 365.477127 244.525312 
L 365.654345 242.891331 
L 366.008782 242.033491 
L 366.186 241.829243 
L 366.363218 242.441986 
L 366.717655 240.889703 
L 366.894873 241.339048 
L 367.072091 240.930553 
L 367.24931 240.154412 
L 367.426528 240.35866 
L 367.603746 240.808004 
L 367.780965 242.768782 
L 367.958183 243.013879 
L 368.489838 240.603757 
L 368.667056 240.767155 
L 369.375929 238.928926 
L 369.553147 239.092324 
L 369.730366 238.765528 
L 369.907584 237.540041 
L 370.084802 237.172396 
L 370.262021 237.825988 
L 370.616457 237.376643 
L 370.793675 237.948537 
L 370.970894 237.70344 
L 371.148112 237.66259 
L 371.32533 238.357032 
L 371.502549 238.071085 
L 371.679767 236.314555 
L 372.034203 240.930553 
L 372.211422 241.2165 
L 372.38864 239.827616 
L 372.565858 240.644606 
L 372.743076 242.033491 
L 372.920295 242.11519 
L 373.274731 240.767155 
L 373.45195 241.951791 
L 373.629168 241.093951 
L 373.806386 239.582518 
L 373.983604 239.45997 
L 374.160823 240.31781 
L 374.515259 239.45997 
L 374.692478 238.030236 
L 374.869696 237.948537 
L 375.046914 237.335794 
L 375.401351 237.213245 
L 375.578569 237.825988 
L 375.755787 237.948537 
L 375.933006 237.294944 
L 376.110224 238.683828 
L 376.287442 242.360287 
L 376.46466 242.482835 
L 376.641879 241.665845 
L 376.819097 241.992641 
L 377.350752 244.280215 
L 377.52797 242.93218 
L 377.705188 242.809632 
L 378.236843 239.41912 
L 378.414062 238.152784 
L 378.59128 238.316183 
L 378.768498 238.030236 
L 378.945716 238.602129 
L 379.122935 237.907687 
L 379.300153 238.152784 
L 379.477371 237.785139 
L 379.831808 237.866838 
L 380.009026 237.417493 
L 380.186244 237.458342 
L 380.363463 236.600502 
L 380.895117 240.685456 
L 381.072336 241.543296 
L 381.603991 245.138055 
L 381.781209 248.406018 
L 381.958427 246.894586 
L 382.312864 241.257349 
L 382.844519 237.744289 
L 383.021737 237.62174 
L 383.198955 236.192007 
L 383.553392 236.477953 
L 383.73061 237.254095 
L 383.907828 236.7639 
L 384.085047 237.049847 
L 384.262265 238.642979 
L 384.439483 235.701812 
L 384.616701 235.415865 
L 384.79392 240.562907 
L 384.971138 240.440359 
L 385.148356 240.154412 
L 385.325575 240.113562 
L 385.680011 241.747544 
L 385.857229 241.134801 
L 386.034448 241.665845 
L 386.211666 238.765528 
L 386.388884 237.744289 
L 386.566103 238.111935 
L 386.743321 236.151157 
L 386.920539 235.742662 
L 387.097757 235.701812 
L 387.274976 234.598875 
L 387.452194 234.762273 
L 387.629412 234.435477 
L 387.806631 234.353777 
L 387.983849 234.10868 
L 388.161067 234.639724 
L 388.338285 236.192007 
L 388.515504 233.005743 
L 388.86994 230.432222 
L 389.401595 224.549888 
L 389.578813 223.651199 
L 389.756032 224.141393 
L 389.93325 223.52865 
L 390.110468 224.38649 
L 390.464905 221.363625 
L 390.642123 222.180615 
L 390.819341 221.649571 
L 390.99656 220.628333 
L 391.173778 220.669182 
L 391.350996 220.301537 
L 391.705433 221.935518 
L 392.237088 219.566245 
L 392.591524 219.852192 
L 392.768742 219.770493 
L 393.123179 221.404474 
L 393.654834 219.361997 
L 393.832052 219.852192 
L 394.186489 218.871803 
L 394.363707 216.42083 
L 394.540925 217.033574 
L 394.718144 216.584229 
L 395.07258 215.031946 
L 395.249798 214.827698 
L 395.604235 215.60384 
L 395.781453 215.481291 
L 395.958672 214.868548 
L 396.13589 215.154495 
L 396.313108 214.70515 
L 396.490326 213.397965 
L 396.667545 213.357115 
L 397.021981 212.785222 
L 397.376418 213.969858 
L 397.730854 215.56299 
L 397.908073 215.60384 
L 398.262509 217.196972 
L 398.439727 216.951874 
L 398.616946 216.46168 
L 398.794164 216.788476 
L 398.971382 216.584229 
L 399.325819 215.399592 
L 399.503037 216.134884 
L 399.680255 215.767238 
L 400.034692 216.339131 
L 400.21191 215.848937 
L 400.389129 215.767238 
L 400.743565 216.788476 
L 400.920783 216.379981 
L 401.452438 218.299909 
L 401.629657 218.25906 
L 401.806875 218.545006 
L 401.984093 218.585856 
L 402.161311 218.830953 
L 402.33853 218.340759 
L 402.515748 218.626705 
L 402.870185 217.564618 
L 403.047403 217.156122 
L 403.224621 217.074423 
L 403.579058 217.074423 
L 403.756276 216.625078 
L 404.110713 217.033574 
L 404.287931 217.36037 
L 405.174022 209.803205 
L 405.528459 204.533615 
L 406.237332 196.527106 
L 406.768987 182.474865 
L 407.655078 153.798489 
L 408.186733 140.890035 
L 408.718388 133.782216 
L 409.072824 131.494642 
L 409.427261 130.555102 
L 409.604479 130.841049 
L 409.781698 130.8002 
L 409.958916 130.881899 
L 410.136134 130.636801 
L 410.490571 131.412943 
L 411.022226 135.293649 
L 411.376662 137.295276 
L 412.794408 143.218459 
L 413.326063 146.854068 
L 413.857718 151.429216 
L 415.098246 164.460219 
L 416.693211 170.832746 
L 416.870429 170.751047 
L 417.047647 170.342552 
L 417.402084 170.301702 
L 417.579302 170.424251 
L 417.75652 170.996145 
L 418.642612 178.675858 
L 418.997048 182.229767 
L 419.528703 185.007536 
L 419.88314 186.968314 
L 420.060358 186.764066 
L 420.414795 180.473237 
L 420.592013 179.084353 
L 420.769231 179.737946 
L 420.946449 181.453626 
L 421.123668 181.290228 
L 421.478104 179.247751 
L 421.655323 179.451999 
L 421.832541 180.105592 
L 422.186977 182.801661 
L 422.364196 183.046758 
L 422.541414 184.925837 
L 422.718632 184.394793 
L 423.073069 191.380064 
L 423.250287 191.012418 
L 423.427505 189.582684 
L 423.781942 190.930719 
L 423.95916 191.134967 
L 424.136378 191.543462 
L 424.313597 192.237904 
L 424.668033 187.703606 
L 424.845252 186.192173 
L 425.02247 185.987925 
L 425.731343 182.434015 
L 425.908561 182.760811 
L 426.08578 183.496103 
L 426.262998 183.169307 
L 426.440216 183.904599 
L 426.617434 185.906226 
L 426.794653 186.028774 
L 426.971871 186.641518 
L 427.503526 192.197055 
L 427.680744 192.278754 
L 428.212399 194.974823 
L 428.566836 197.425795 
L 428.744054 197.344096 
L 429.09849 192.687249 
L 429.275709 192.156205 
L 429.452927 192.60555 
L 429.630145 192.401302 
L 430.1618 190.767321 
L 430.516237 193.136594 
L 430.693455 192.850647 
L 430.870673 192.809798 
L 431.047892 193.381691 
L 431.22511 193.545089 
L 431.402328 194.40293 
L 431.579546 198.937228 
L 431.933983 197.344096 
L 432.111201 197.670893 
L 432.465638 199.754219 
L 432.642856 200.693758 
L 432.820074 203.512377 
L 432.997293 202.613687 
L 433.528947 196.11861 
L 433.706166 199.917617 
L 434.060602 200.081015 
L 434.237821 200.407812 
L 434.415039 197.91599 
L 434.769475 201.347351 
L 434.946694 201.633298 
L 435.123912 201.551599 
L 435.30113 200.979705 
L 435.478349 198.896379 
L 435.655567 199.876768 
L 435.832785 203.348978 
L 436.010003 204.370217 
L 436.187222 203.022182 
L 436.36444 202.981333 
L 436.718877 204.819562 
L 436.896095 204.533615 
L 437.42775 201.020555 
L 437.604968 201.061404 
L 437.782186 200.121865 
L 437.959405 201.020555 
L 438.136623 200.775458 
L 438.668278 202.246041 
L 438.845496 202.36859 
L 439.199933 204.206819 
L 439.377151 203.716624 
L 439.554369 203.839173 
L 439.908806 204.411066 
L 440.086024 204.574465 
L 440.263242 204.901261 
L 440.44046 204.778712 
L 440.617679 205.391455 
L 440.794897 204.98296 
L 440.972115 205.064659 
L 441.149334 204.98296 
L 441.326552 204.574465 
L 441.50377 204.697013 
L 441.680988 205.514004 
L 441.858207 204.451916 
L 442.212643 204.165969 
L 442.389862 203.594076 
L 442.744298 200.366962 
L 443.098735 192.809798 
L 443.63039 180.881733 
L 443.807608 179.247751 
L 444.339263 171.036994 
L 444.693699 170.015756 
L 446.288664 176.837628 
L 446.465882 176.67423 
L 446.997537 177.736318 
L 447.70641 179.942193 
L 448.415283 181.943821 
L 448.76972 183.455254 
L 449.124156 185.293483 
L 449.301375 186.314721 
L 449.655811 183.496103 
L 449.833029 182.107219 
L 450.187466 181.535325 
L 451.073557 188.765693 
L 451.250776 188.806543 
L 451.782431 192.5647 
L 452.136867 193.299992 
L 452.491304 195.26077 
L 452.84574 198.487883 
L 453.554613 201.510749 
L 453.731832 201.674147 
L 454.263487 202.981333 
L 454.440705 202.777085 
L 454.617923 202.28689 
L 454.795141 202.36859 
L 454.97236 202.205191 
L 455.149578 203.471527 
L 455.326796 203.22643 
L 455.504015 204.206819 
L 455.681233 204.533615 
L 455.858451 204.615314 
L 456.035669 205.146358 
L 456.212888 204.98296 
L 456.390106 205.187208 
L 456.567324 204.574465 
L 456.744543 204.94211 
L 457.276197 209.149613 
L 457.453416 208.250923 
L 457.630634 207.964976 
L 457.98507 210.783594 
L 458.162289 211.723134 
L 458.339507 211.682284 
L 458.516725 212.417576 
L 458.871162 208.291772 
L 459.04838 209.272161 
L 459.225598 209.027064 
L 459.580035 211.682284 
L 459.757253 211.886532 
L 460.11169 213.438814 
L 460.288908 214.051557 
L 460.466126 212.94862 
L 460.643345 212.662673 
L 460.997781 211.763983 
L 461.175 213.193717 
L 461.529436 217.646317 
L 461.706654 217.687166 
L 461.883873 217.442069 
L 462.415528 220.546634 
L 462.769964 221.322775 
L 463.124401 216.706777 
L 463.301619 215.971486 
L 463.656056 210.579347 
L 463.833274 210.497648 
L 464.010492 209.884904 
L 464.364929 212.213328 
L 464.719365 215.481291 
L 465.073802 217.074423 
L 465.25102 216.788476 
L 465.428238 217.646317 
L 465.605457 221.118527 
L 465.782675 222.262314 
L 465.959893 220.791731 
L 466.137111 221.486173 
L 466.668766 224.958384 
L 466.845985 226.14302 
L 467.023203 225.448578 
L 467.377639 222.017217 
L 467.554858 221.853819 
L 467.732076 222.303164 
L 468.086513 223.692048 
L 468.263731 224.100544 
L 468.440949 224.223092 
L 468.618167 224.549888 
L 468.795386 225.448578 
L 468.972604 225.448578 
L 469.149822 224.876685 
L 469.504259 224.713287 
L 469.858695 232.515548 
L 470.035914 228.512294 
L 470.213132 227.450206 
L 470.39035 227.695303 
L 471.099223 236.192007 
L 471.45366 230.840717 
L 471.630878 229.329284 
L 471.808097 229.656081 
L 472.339751 227.98125 
L 472.694188 230.187125 
L 472.871406 230.432222 
L 473.048625 230.391372 
L 473.580279 228.675692 
L 473.757498 228.675692 
L 474.111934 234.476326 
L 474.289152 235.129919 
L 474.466371 232.842345 
L 474.643589 232.188752 
L 474.998026 235.783511 
L 475.175244 240.031863 
L 475.352462 240.031863 
L 475.706899 234.190379 
L 476.061335 231.739407 
L 476.415772 231.208363 
L 476.770208 231.780257 
L 476.947427 232.35215 
L 477.124645 231.861956 
L 477.301863 232.556398 
L 477.479082 234.476326 
L 477.6563 235.00737 
L 477.833518 234.517176 
L 478.010736 232.229602 
L 478.365173 236.927298 
L 478.542391 236.437104 
L 478.71961 235.129919 
L 478.896828 235.415865 
L 479.251264 237.335794 
L 479.428483 237.131546 
L 479.605701 237.499192 
L 479.782919 236.723051 
L 479.960138 234.067831 
L 480.314574 234.884821 
L 480.669011 235.211618 
L 480.846229 235.456715 
L 481.023447 234.598875 
L 481.200666 234.639724 
L 481.377884 234.558025 
L 481.909539 235.701812 
L 482.086757 236.355405 
L 482.263975 235.293317 
L 482.441194 236.314555 
L 482.618412 239.092324 
L 482.79563 239.337421 
L 483.150067 236.600502 
L 483.327285 237.948537 
L 483.504503 238.438731 
L 484.036158 235.497565 
L 484.213376 236.069458 
L 484.390595 235.211618 
L 484.745031 235.415865 
L 484.922249 235.946909 
L 485.099468 235.701812 
L 485.276686 234.272078 
L 485.453904 233.904433 
L 485.808341 227.777002 
L 485.985559 218.095662 
L 486.339996 183.414404 
L 486.871651 161.886698 
L 487.226087 148.038704 
L 487.403305 146.69067 
L 487.757742 147.54851 
L 488.289397 150.612225 
L 488.821052 154.370383 
L 488.99827 154.860577 
L 489.175488 156.249462 
L 489.352707 156.126913 
L 489.529925 156.494559 
L 489.707143 157.515797 
L 489.884361 157.148151 
L 490.238798 158.741283 
L 490.416016 159.190628 
L 491.124889 163.643228 
L 491.302108 163.561529 
L 491.479326 161.478202 
L 491.656544 157.066452 
L 492.365417 123.610681 
L 492.897072 92.76928 
L 493.428727 74.18274 
L 493.783164 66.217081 
L 494.669255 59.272659 
L 495.023692 58.700766 
L 495.378128 59.967101 
L 496.087001 69.239946 
L 496.441438 75.775872 
L 496.618656 76.511164 
L 496.973093 80.963764 
L 497.681966 91.380396 
L 498.213621 99.468604 
L 499.099712 111.151572 
L 501.049113 134.517508 
L 501.580768 137.989718 
L 502.998514 149.795235 
L 503.175733 150.040332 
L 503.707387 155.105674 
L 503.884606 157.189001 
L 504.061824 157.31155 
L 504.770697 162.090945 
L 504.947915 163.765776 
L 505.125134 163.234732 
L 505.302352 163.357281 
L 505.656789 165.23636 
L 506.365662 168.545172 
L 506.54288 169.362163 
L 506.720098 169.525561 
L 507.60619 159.149779 
L 508.137845 153.389994 
L 508.492281 149.754385 
L 508.669499 149.590987 
L 509.023936 151.633464 
L 509.201154 151.919411 
L 509.378372 153.022348 
L 509.555591 153.104047 
L 509.732809 154.166135 
L 509.910027 154.370383 
L 510.087246 154.206985 
L 510.441682 150.571376 
L 510.973337 143.708653 
L 512.036647 130.922748 
L 512.391083 128.10413 
L 512.568302 122.752841 
L 513.986048 55.63705 
L 514.517703 43.708985 
L 515.049358 37.377307 
L 515.226576 36.19267 
L 515.403794 36.437768 
L 515.581012 36.23352 
L 515.758231 36.315219 
L 515.935449 37.050511 
L 516.467104 42.646897 
L 516.998759 49.754717 
L 518.239287 71.119025 
L 519.657033 90.277458 
L 520.543124 101.919576 
L 521.429216 115.359074 
L 521.606434 117.932595 
L 521.783652 118.831285 
L 521.960871 118.831285 
L 522.492525 120.873762 
L 523.378617 127.164591 
L 523.910272 131.61719 
L 524.08749 132.393332 
L 524.619145 136.437436 
L 525.682454 144.321397 
L 525.859673 145.138387 
L 526.036891 144.93414 
L 526.214109 145.914529 
L 526.391328 145.669431 
L 526.922982 148.528899 
L 527.100201 148.120404 
L 527.454637 150.367128 
L 527.631856 151.143269 
L 527.809074 153.389994 
L 528.16351 154.697179 
L 528.340729 156.453709 
L 528.517947 156.984753 
L 528.695165 156.984753 
L 528.872384 157.31155 
L 529.049602 158.046841 
L 529.935693 164.541918 
L 531.176221 167.646483 
L 531.707876 170.628499 
L 531.885094 171.036994 
L 532.062313 171.772286 
L 532.239531 171.976534 
L 532.416749 173.365418 
L 532.593968 173.16117 
L 532.771186 173.528816 
L 533.125622 174.590904 
L 533.302841 174.876851 
L 534.011714 178.103964 
L 534.188932 178.51246 
L 534.543369 179.533698 
L 534.897805 178.961804 
L 535.252242 178.961804 
L 535.42946 179.32945 
L 535.606678 179.247751 
L 536.138333 180.718335 
L 536.315551 181.08598 
L 536.669988 182.638263 
L 536.847206 182.88336 
L 537.024425 182.719962 
L 537.201643 183.046758 
L 537.556079 183.986298 
L 537.733298 183.945448 
L 538.264953 187.785305 
L 538.442171 188.112101 
L 538.619389 187.581057 
L 538.796607 187.581057 
L 539.328262 186.478119 
L 539.682699 187.254261 
L 540.037135 187.050013 
L 540.214354 187.213411 
L 540.746009 188.765693 
L 540.923227 189.09249 
L 541.100445 188.806543 
L 541.277663 190.440525 
L 541.454882 190.80817 
L 541.6321 190.399675 
L 541.986537 191.788559 
L 542.163755 192.973196 
L 542.340973 193.340842 
L 542.518191 195.097372 
L 542.69541 194.811425 
L 542.872628 195.21992 
L 543.049846 195.138221 
L 543.227064 195.383319 
L 543.404283 194.198682 
L 543.581501 193.912735 
L 544.113156 192.074506 
L 544.467592 192.523851 
L 545.176466 194.933974 
L 545.353684 194.729726 
L 545.530902 194.729726 
L 545.70812 195.056522 
L 545.885339 195.791814 
L 546.239775 196.11861 
L 546.594212 191.911108 
L 546.77143 190.80817 
L 547.303085 196.894751 
L 547.480303 197.221548 
L 547.657522 197.303247 
L 547.83474 196.894751 
L 548.011958 196.853902 
L 548.189176 196.608805 
L 548.543613 197.997689 
L 548.89805 198.77383 
L 549.075268 199.141476 
L 549.252486 199.059777 
L 549.429704 199.876768 
L 549.606923 199.795069 
L 549.784141 200.081015 
L 550.138578 200.244414 
L 550.315796 199.754219 
L 550.670232 201.4699 
L 551.379105 202.28689 
L 551.733542 200.612059 
L 552.087979 201.183953 
L 552.442415 200.57121 
L 552.619633 201.102254 
L 552.796852 201.020555 
L 552.97407 200.53036 
L 553.151288 200.53036 
L 553.328507 200.407812 
L 553.505725 200.734608 
L 553.682943 200.612059 
L 553.860161 200.898006 
L 554.03738 200.857157 
L 554.391816 203.553226 
L 554.569035 202.123492 
L 554.746253 203.389828 
L 554.923471 206.126747 
L 555.100689 206.126747 
L 555.455126 203.348978 
L 555.809563 205.432305 
L 555.986781 205.023809 
L 556.163999 205.350606 
L 556.518436 202.164342 
L 556.695654 202.450289 
L 556.872872 201.674147 
L 557.050091 202.531988 
L 557.227309 202.736235 
L 557.758964 204.451916 
L 557.936182 203.716624 
L 558.1134 204.206819 
L 558.290619 204.329367 
L 558.467837 204.737863 
L 558.645055 204.411066 
L 558.822273 203.389828 
L 558.999492 204.451916 
L 559.17671 206.412694 
L 559.353928 206.494393 
L 559.531146 208.005826 
L 559.885583 208.618569 
L 560.062801 209.39471 
L 560.24002 209.639807 
L 560.594456 207.842428 
L 560.948893 209.476409 
L 561.126111 208.904516 
L 561.303329 209.108763 
L 561.480548 207.229684 
L 561.657766 208.373472 
L 562.012202 205.922499 
L 562.189421 206.290145 
L 562.366639 207.229684 
L 562.543857 209.027064 
L 562.721076 209.313011 
L 562.898294 209.190462 
L 563.075512 209.884904 
L 563.25273 210.048303 
L 563.429949 210.415948 
L 563.607167 207.59733 
L 563.784385 207.63818 
L 563.961604 206.698641 
L 564.138822 204.94211 
L 564.31604 200.775458 
L 564.493258 209.149613 
L 564.670477 205.595703 
L 565.202132 210.538497 
L 565.37935 208.128374 
L 565.556568 211.355488 
L 565.733786 207.147985 
L 565.911005 207.924127 
L 566.088223 205.391455 
L 566.265441 205.595703 
L 566.619878 205.105509 
L 566.797096 205.88165 
L 566.974314 205.759101 
L 567.151533 205.268907 
L 567.328751 205.514004 
L 567.683188 214.70515 
L 568.037624 205.799951 
L 568.214842 206.698641 
L 568.746497 213.397965 
L 569.100934 205.554853 
L 569.45537 204.615314 
L 569.809807 204.98296 
L 569.987025 204.411066 
L 570.164243 204.370217 
L 570.341462 205.228057 
L 570.51868 204.656164 
L 570.695898 204.697013 
L 571.050335 206.290145 
L 571.227553 207.107136 
L 571.404771 206.78034 
L 571.58199 206.208446 
L 571.759208 204.533615 
L 571.936426 205.187208 
L 572.290863 207.883277 
L 572.468081 208.087525 
L 572.645299 206.862039 
L 572.822518 206.984587 
L 572.999736 206.330995 
L 573.176954 208.332622 
L 573.354173 208.455171 
L 573.531391 206.535242 
L 573.708609 206.698641 
L 573.885827 206.453543 
L 574.063046 206.535242 
L 574.240264 204.533615 
L 574.417482 204.819562 
L 574.594701 203.063032 
L 574.771919 202.613687 
L 574.949137 202.531988 
L 575.126355 201.878395 
L 575.480792 202.736235 
L 575.65801 204.574465 
L 575.835229 203.716624 
L 576.189665 212.376726 
L 576.544102 208.332622 
L 576.72132 207.63818 
L 577.075756 209.844055 
L 577.252975 211.069541 
L 577.607411 204.288518 
L 577.78463 203.553226 
L 577.961848 203.961721 
L 578.139066 203.512377 
L 578.493503 204.165969 
L 578.670721 204.206819 
L 578.847939 204.492765 
L 579.202376 205.350606 
L 579.379594 205.023809 
L 579.556812 203.920872 
L 579.734031 204.737863 
L 580.088467 204.656164 
L 580.442904 209.558108 
L 580.620122 209.639807 
L 580.79734 208.005826 
L 580.974559 207.679029 
L 581.151777 208.863666 
L 581.328995 210.824444 
L 581.86065 205.268907 
L 582.215087 198.855529 
L 582.569523 196.772203 
L 582.92396 192.197055 
L 583.101178 192.278754 
L 583.278396 191.70686 
L 583.455615 191.625161 
L 583.810051 194.40293 
L 583.98727 192.360453 
L 584.164488 193.381691 
L 584.341706 193.177444 
L 584.518924 192.278754 
L 584.696143 196.772203 
L 584.873361 196.731353 
L 585.050579 195.30162 
L 585.227797 195.30162 
L 585.405016 195.424168 
L 585.582234 195.097372 
L 585.759452 195.097372 
L 585.936671 195.546717 
L 586.291107 194.198682 
L 586.99998 195.30162 
L 587.177199 195.30162 
L 587.354417 195.546717 
L 587.531635 194.852275 
L 587.708853 195.138221 
L 588.06329 196.15946 
L 588.240508 195.587566 
L 588.417727 196.11861 
L 588.594945 196.11861 
L 588.772163 196.976451 
L 588.949381 198.81468 
L 589.1266 197.752592 
L 589.481036 198.855529 
L 589.658255 198.81468 
L 589.835473 198.896379 
L 590.012691 198.855529 
L 590.189909 198.651282 
L 590.544346 198.692131 
L 590.898783 198.242786 
L 591.430437 200.203564 
L 591.607656 200.040166 
L 591.784874 200.121865 
L 591.962092 200.040166 
L 592.139311 200.081015 
L 592.316529 200.652909 
L 592.493747 200.612059 
L 593.379839 202.082643 
L 593.557057 202.000944 
L 593.734275 201.714997 
L 594.088712 200.857157 
L 594.26593 200.693758 
L 594.443148 200.857157 
L 594.974803 198.120238 
L 595.152021 198.365335 
L 595.32924 198.978078 
L 595.506458 199.059777 
L 595.683676 198.978078 
L 595.860894 199.304874 
L 596.392549 198.732981 
L 596.569768 198.161087 
L 596.746986 198.610432 
L 596.924204 198.324485 
L 597.101422 198.937228 
L 597.455859 199.264025 
L 597.987514 200.734608 
L 598.164732 200.612059 
L 598.34195 199.67252 
L 598.519169 199.835918 
L 598.696387 199.427423 
L 598.873605 199.345724 
L 599.050824 199.590821 
L 599.228042 199.182326 
L 599.40526 200.081015 
L 599.759697 200.326113 
L 599.936915 200.612059 
L 600.114133 201.224802 
L 600.645788 201.960094 
L 600.823006 202.28689 
L 601.000225 203.839173 
L 601.177443 203.389828 
L 601.354661 203.308129 
L 601.53188 202.613687 
L 601.886316 203.920872 
L 602.063534 203.757474 
L 602.240753 203.798323 
L 602.417971 204.247668 
L 602.772407 206.167597 
L 602.949626 205.514004 
L 603.126844 206.616941 
L 603.481281 205.350606 
L 604.012935 206.249296 
L 604.190154 206.78034 
L 604.367372 206.73949 
L 604.54459 206.576092 
L 604.899027 207.474782 
L 605.076245 206.984587 
L 605.253463 207.59733 
L 605.430682 207.63818 
L 605.785118 208.005826 
L 605.962337 207.964976 
L 606.139555 208.128374 
L 606.316773 204.778712 
L 606.848428 155.963515 
L 607.380083 182.515714 
L 608.088956 199.509122 
L 608.443393 203.961721 
L 608.797829 207.964976 
L 608.975047 207.679029 
L 609.152266 207.107136 
L 609.329484 207.025437 
L 609.506702 208.250923 
L 609.683921 207.842428 
L 609.861139 207.719879 
L 610.038357 209.108763 
L 610.215575 209.313011 
L 610.392794 211.641435 
L 610.570012 212.295027 
L 610.74723 210.865293 
L 610.924448 211.478036 
L 611.101667 212.94862 
L 611.456103 209.639807 
L 611.633322 208.945365 
L 611.81054 209.803205 
L 611.987758 209.39471 
L 612.164976 210.375099 
L 612.342195 209.884904 
L 612.519413 210.211701 
L 612.696631 211.518886 
L 612.87385 210.906143 
L 613.051068 211.314638 
L 613.228286 210.865293 
L 613.582723 212.295027 
L 613.759941 211.927381 
L 613.937159 211.845682 
L 614.114378 212.785222 
L 614.468814 219.607094 
L 614.646032 219.484546 
L 614.823251 216.175733 
L 615.000469 216.012335 
L 615.177687 216.094034 
L 615.532124 213.602212 
L 615.88656 212.703523 
L 616.063779 212.785222 
L 616.240997 213.275416 
L 616.595434 213.030319 
L 616.772652 213.275416 
L 617.304307 215.072796 
L 617.481525 214.337504 
L 617.658743 216.175733 
L 618.01318 212.90777 
L 618.190398 217.115273 
L 618.367616 216.829326 
L 618.544835 214.460053 
L 618.722053 214.991097 
L 618.899271 217.442069 
L 619.253708 218.013962 
L 619.430926 218.054812 
L 619.785363 217.115273 
L 619.962581 216.788476 
L 620.139799 216.747627 
L 620.317017 216.935535 
L 620.494236 218.871803 
L 620.494236 218.871803 
L 620.848672 216.175733 
L 620.848672 216.175733 
L 621.203109 217.401219 
L 621.380327 217.646317 
L 621.557545 216.951874 
L 622.266419 218.896312 
L 622.798073 223.242703 
L 622.798073 223.242703 
L 622.975292 219.647944 
L 622.975292 219.647944 
L 623.506947 222.548261 
L 623.684165 222.384863 
L 623.861383 221.281925 
L 624.038601 221.077678 
L 624.21582 220.587483 
L 624.393038 220.464935 
L 624.570256 221.363625 
L 624.747475 220.505784 
L 624.924693 221.159377 
L 625.101911 221.322775 
L 625.279129 222.221465 
L 625.633566 219.321148 
L 625.988003 221.690421 
L 626.165221 221.281925 
L 626.342439 221.608722 
L 626.696876 221.486173 
L 626.874094 221.935518 
L 627.228531 223.773747 
L 627.582967 216.134884 
L 627.937404 229.73778 
L 628.29184 219.582585 
L 628.646277 220.710032 
L 628.823495 228.062949 
L 629.000713 226.18387 
L 629.35515 228.267196 
L 629.532368 228.144648 
L 629.709586 234.884821 
L 629.886805 223.242703 
L 630.064023 229.982877 
L 630.241241 219.647944 
L 630.41846 223.937145 
L 630.595678 223.4878 
L 630.772896 220.750881 
L 630.950114 221.200226 
L 631.127333 223.038456 
L 631.304551 227.654453 
L 631.658988 223.814597 
L 631.836206 221.298265 
L 632.013424 221.322775 
L 632.367861 224.263942 
L 632.545079 229.533532 
L 632.722297 224.590738 
L 632.899516 223.222278 
L 633.962825 224.631588 
L 634.140044 225.775375 
L 634.317262 225.28518 
L 634.49448 225.652826 
L 634.671698 225.530277 
L 635.026135 226.020472 
L 635.203353 225.857074 
L 635.380572 224.100544 
L 635.735008 225.652826 
L 635.912226 229.002488 
L 636.089445 229.982877 
L 636.266663 230.023726 
L 636.443881 231.49431 
L 636.621099 231.861956 
L 636.798318 233.659335 
L 637.507191 226.878312 
L 638.216064 229.125037 
L 638.393282 228.961639 
L 638.747719 229.125037 
L 638.924937 229.574382 
L 639.102155 229.656081 
L 639.279374 229.860328 
L 639.456592 230.473071 
L 639.63381 230.391372 
L 639.811029 230.59562 
L 639.988247 231.004115 
L 640.165465 232.188752 
L 640.342683 232.474699 
L 640.519902 234.435477 
L 640.69712 234.190379 
L 640.874338 233.414238 
L 641.051557 234.729593 
L 641.228775 286.200011 
L 641.405993 221.592382 
L 641.583211 274.222926 
L 641.76043 262.37656 
L 642.469303 247.629877 
L 642.646521 313.68358 
L 643.178176 220.587483 
L 643.532613 234.517176 
L 643.709831 233.332539 
L 644.241486 243.095579 
L 644.418704 242.93218 
L 644.595922 238.52043 
L 644.77314 238.438731 
L 645.127577 236.7639 
L 645.304795 236.600502 
L 646.013668 234.190379 
L 646.190887 234.14953 
L 646.545323 233.781884 
L 647.076978 234.435477 
L 647.431415 234.353777 
L 647.608633 234.14953 
L 647.785851 234.394627 
L 648.140288 235.456715 
L 648.494724 235.375016 
L 648.849161 236.232856 
L 649.026379 236.641352 
L 649.203598 236.723051 
L 649.735252 234.925671 
L 650.621344 234.231229 
L 650.97578 234.394627 
L 651.152999 234.476326 
L 651.507435 234.353777 
L 651.684654 234.721423 
L 651.861872 234.762273 
L 652.03909 234.680574 
L 652.570745 234.067831 
L 652.747963 234.231229 
L 652.925182 234.884821 
L 653.1024 234.966521 
L 653.279618 235.660963 
L 653.456836 235.129919 
L 653.634055 235.90606 
L 653.988491 235.00737 
L 654.165709 232.515548 
L 654.342928 234.476326 
L 654.520146 233.700185 
L 654.697364 234.394627 
L 654.874583 233.822733 
L 655.051801 233.700185 
L 655.229019 233.945282 
L 655.406237 233.822733 
L 655.937892 230.391372 
L 656.292329 235.701812 
L 656.469547 232.393 
L 656.646765 232.678946 
L 656.823984 233.414238 
L 657.001202 231.780257 
L 657.532857 231.290062 
L 657.710075 230.922416 
L 658.24173 228.961639 
L 658.950603 227.899551 
L 659.127821 227.98125 
L 659.482258 227.164259 
L 659.659476 226.551516 
L 659.836695 226.388118 
L 660.013913 225.734525 
L 660.368349 225.652826 
L 660.545568 225.121782 
L 660.900004 223.4878 
L 661.254441 222.589111 
L 661.431659 223.120155 
L 661.786096 225.32603 
L 661.963314 225.244331 
L 662.494969 223.242703 
L 662.672187 223.161004 
L 663.026624 222.589111 
L 663.38106 222.303164 
L 663.912715 222.548261 
L 664.089933 222.262314 
L 664.44437 222.303164 
L 664.976025 221.281925 
L 665.153243 221.486173 
L 665.330461 221.363625 
L 665.862116 223.406101 
L 666.039334 223.610349 
L 666.748208 221.486173 
L 666.925426 221.322775 
L 667.102644 221.608722 
L 667.279862 222.344013 
L 667.457081 221.322775 
L 667.634299 221.281925 
L 668.165954 222.834208 
L 668.52039 226.061321 
L 668.697609 225.652826 
L 668.874827 224.509039 
L 669.229264 221.118527 
L 669.406482 219.443696 
L 669.5837 219.770493 
L 669.760918 219.729643 
L 669.938137 220.546634 
L 670.115355 220.505784 
L 670.292573 220.301537 
L 670.469791 220.750881 
L 670.824228 225.775375 
L 671.178665 221.281925 
L 671.355883 221.118527 
L 671.533101 221.241076 
L 671.710319 219.361997 
L 672.241974 222.956756 
L 672.419193 222.997606 
L 672.773629 221.322775 
L 673.128066 222.466562 
L 673.482502 222.058067 
L 674.014157 223.773747 
L 674.368594 225.775375 
L 674.545812 225.652826 
L 674.72303 225.938773 
L 675.077467 224.509039 
L 675.254685 224.182243 
L 675.431903 224.223092 
L 675.431903 224.223092 
" clip-path="url(#p8cc5289a25)" style="fill: none; stroke: #1f77b4; stroke-width: 1.5; stroke-linecap: square"/>
   </g>
   <g id="line2d_15">
    <path d="M 68.813722 256.535076 
L 73.421397 257.804908 
L 78.560727 259.133309 
L 80.33291 259.469545 
L 80.864565 257.953778 
L 81.219001 255.986866 
L 81.39622 254.009185 
L 81.927875 245.794892 
L 82.813966 240.139402 
L 83.345621 239.580755 
L 84.231712 239.278973 
L 85.117804 239.512534 
L 87.244423 240.578109 
L 88.130514 241.059211 
L 88.307733 240.968666 
L 88.839388 239.772675 
L 90.434352 229.628506 
L 90.966007 228.515995 
L 91.497662 227.41021 
L 91.852098 226.699189 
L 92.206535 226.393501 
L 92.560971 226.271453 
L 93.092626 226.435263 
L 94.510373 227.30253 
L 104.434596 233.739152 
L 104.789033 233.941994 
L 105.14347 233.624017 
L 105.320688 233.711742 
L 105.497906 233.666329 
L 105.675124 232.879621 
L 106.206779 228.225721 
L 106.738434 215.543167 
L 107.270089 199.561471 
L 107.978962 186.890162 
L 108.333399 185.635548 
L 108.865053 185.163164 
L 109.396708 185.023474 
L 110.460018 185.018892 
L 110.637236 184.942924 
L 110.991673 183.733882 
L 111.346109 181.669797 
L 111.700546 177.280736 
L 112.232201 169.052756 
L 112.941074 162.785341 
L 113.295511 161.960023 
L 113.649947 161.825165 
L 114.181602 161.997187 
L 114.890475 162.553418 
L 115.953785 163.77961 
L 117.903186 166.498476 
L 123.042516 173.755468 
L 126.941318 178.836805 
L 130.485684 183.143021 
L 131.017339 183.717175 
L 131.194557 183.606774 
L 131.371775 183.214547 
L 131.726212 183.095034 
L 132.080649 180.828714 
L 132.789522 175.657281 
L 133.143958 172.66258 
L 133.498395 171.219387 
L 133.852831 170.404746 
L 134.207268 170.200611 
L 134.561704 170.405835 
L 135.625014 171.485947 
L 142.713745 180.086923 
L 143.422619 180.300533 
L 143.777055 179.556126 
L 143.954273 179.553005 
L 144.131492 179.415405 
L 144.840365 176.401657 
L 145.194801 176.288939 
L 145.37202 176.137842 
L 145.549238 176.139865 
L 146.080893 176.721591 
L 147.853076 178.803643 
L 148.916385 179.988205 
L 151.043005 182.407992 
L 151.220223 182.437479 
L 151.929096 181.869794 
L 152.283533 180.901877 
L 152.637969 180.534744 
L 153.169624 179.671 
L 153.524061 179.796195 
L 154.055716 180.19412 
L 156.005117 182.383778 
L 156.536772 182.28854 
L 156.71399 182.083559 
L 157.245645 180.349148 
L 157.7773 179.989751 
L 158.131736 179.929702 
L 158.663391 180.448342 
L 160.435574 182.373583 
L 160.79001 182.574382 
L 160.967229 182.519454 
L 162.384975 180.846076 
L 162.739411 180.867787 
L 163.271066 181.213239 
L 164.157158 182.1302 
L 164.334376 182.351607 
L 164.688813 182.25543 
L 164.866031 182.435296 
L 165.043249 182.423396 
L 165.574904 180.91304 
L 165.752122 180.848197 
L 166.106559 180.897578 
L 166.283777 180.86456 
L 166.638214 181.116293 
L 176.562437 192.336867 
L 178.689057 194.467117 
L 179.752367 195.354624 
L 181.701768 197.107596 
L 181.878986 197.138433 
L 182.233423 196.615172 
L 182.410641 196.601175 
L 182.587859 196.409995 
L 183.473951 192.973807 
L 184.005605 190.343989 
L 184.714479 189.001167 
L 184.891697 188.917559 
L 185.246133 189.049735 
L 185.955006 189.607407 
L 189.67659 193.466414 
L 193.220956 197.090717 
L 193.575393 197.13445 
L 193.929829 197.366372 
L 194.461484 196.642987 
L 195.170357 196.774369 
L 195.702012 197.183632 
L 196.233667 197.569173 
L 196.410885 197.478408 
L 196.765322 197.546079 
L 196.94254 197.212964 
L 197.296977 195.841674 
L 197.651413 195.196018 
L 198.360286 191.685126 
L 198.714723 188.654656 
L 199.069159 185.732845 
L 199.778033 183.312262 
L 199.955251 183.131909 
L 200.309687 183.136989 
L 201.372997 183.445214 
L 201.727434 182.938087 
L 201.904652 182.878791 
L 202.613525 183.199744 
L 203.14518 183.714134 
L 204.20849 184.714469 
L 204.385708 184.662858 
L 204.740144 184.949008 
L 204.917363 184.865482 
L 205.271799 184.456391 
L 205.626236 184.558853 
L 206.335109 184.905825 
L 210.233911 189.258928 
L 215.196023 194.543253 
L 219.62648 198.980921 
L 219.980917 199.090254 
L 220.335353 197.499514 
L 220.512572 197.466921 
L 220.68979 196.184047 
L 221.7531 179.581288 
L 222.107536 176.4656 
L 222.461973 175.144398 
L 222.639191 174.988526 
L 222.993628 175.162991 
L 224.056937 176.123361 
L 225.82912 178.12599 
L 234.335598 188.136903 
L 239.120491 193.306368 
L 244.259822 198.532024 
L 248.335842 202.398937 
L 249.044715 202.929168 
L 249.753588 202.522579 
L 250.108025 201.133283 
L 250.63968 197.232942 
L 251.702989 186.610317 
L 252.234644 183.913824 
L 252.766299 182.129689 
L 253.297954 181.265395 
L 253.65239 180.591138 
L 254.006827 179.849327 
L 254.7157 179.260699 
L 255.070137 179.205073 
L 255.601792 179.517642 
L 256.487883 180.406284 
L 260.209467 184.487988 
L 260.741122 184.940598 
L 261.804431 185.925576 
L 264.994361 189.47513 
L 269.956473 194.747986 
L 272.614747 197.459553 
L 273.32362 197.535954 
L 274.209711 196.587474 
L 274.564148 196.447248 
L 275.095803 196.549869 
L 275.627458 197.007445 
L 276.867986 198.150463 
L 277.222422 198.033964 
L 277.39964 198.042964 
L 277.754077 197.593847 
L 278.46295 195.97984 
L 278.817387 195.682233 
L 279.703478 195.319692 
L 280.235133 194.110681 
L 280.589569 192.363735 
L 281.475661 183.110014 
L 282.184534 165.253786 
L 283.070625 151.22401 
L 283.60228 149.31718 
L 284.133935 148.470078 
L 284.488372 148.10571 
L 285.020027 147.261183 
L 285.197245 147.177187 
L 286.260555 145.635526 
L 286.969428 144.263784 
L 287.323864 144.165391 
L 288.209956 144.279412 
L 288.74161 144.751516 
L 289.273265 145.458531 
L 290.513793 147.778643 
L 294.412596 155.177039 
L 297.07087 159.696998 
L 297.248088 159.738692 
L 297.425306 159.329976 
L 297.602525 159.282579 
L 297.779743 159.515745 
L 297.956961 159.029828 
L 298.488616 155.65281 
L 298.843053 155.405057 
L 299.197489 154.709049 
L 299.374707 154.798735 
L 300.260799 156.281952 
L 301.14689 157.659371 
L 301.678545 158.210328 
L 302.387418 157.813466 
L 302.919073 157.926557 
L 303.627946 158.58219 
L 304.159601 159.109241 
L 304.514038 159.218994 
L 305.045692 159.703707 
L 305.754566 160.635757 
L 310.716678 168.251894 
L 311.071114 168.604413 
L 311.602769 168.831104 
L 311.779987 168.622777 
L 312.311642 167.545303 
L 312.666079 167.300174 
L 313.020515 167.210973 
L 313.906607 167.298333 
L 314.969916 166.657692 
L 315.501571 166.806556 
L 315.856008 166.955214 
L 316.564881 167.525363 
L 316.919317 167.590408 
L 317.273754 167.792462 
L 317.982627 166.831924 
L 318.337064 165.55274 
L 318.6915 164.354518 
L 319.045937 163.688746 
L 319.577592 162.476212 
L 320.109247 161.916386 
L 320.463683 161.755939 
L 320.81812 161.763816 
L 321.526993 161.345779 
L 322.235866 160.193919 
L 322.767521 159.041817 
L 323.476394 157.41257 
L 324.008049 157.136446 
L 324.362485 157.340842 
L 325.071358 158.197899 
L 327.552414 161.76618 
L 331.451217 167.765445 
L 334.995582 172.807266 
L 338.539948 177.478972 
L 348.818608 189.558939 
L 353.249065 194.248742 
L 353.957939 194.768202 
L 354.312375 194.865528 
L 354.666812 194.943481 
L 355.021248 194.880832 
L 355.730121 195.357152 
L 356.616213 196.210301 
L 360.160578 199.669494 
L 360.692233 199.960805 
L 361.401106 199.82396 
L 361.932761 199.389651 
L 362.464416 199.30566 
L 362.996071 199.412359 
L 363.704944 199.201028 
L 364.059381 198.950568 
L 365.12269 197.222534 
L 365.477127 196.834883 
L 366.008782 196.622408 
L 366.540437 196.721641 
L 367.24931 196.944097 
L 369.021493 196.868757 
L 369.730366 197.351005 
L 371.679767 199.228554 
L 377.705188 204.940082 
L 383.553392 210.172384 
L 388.161067 214.08835 
L 388.338285 214.165898 
L 388.692722 213.837519 
L 388.86994 213.839377 
L 389.047159 213.362811 
L 389.93325 208.900486 
L 390.287686 207.47291 
L 390.642123 206.88805 
L 390.99656 206.619254 
L 393.832052 207.450598 
L 394.540925 206.934966 
L 394.895362 206.474986 
L 395.604235 205.316683 
L 396.313108 204.633141 
L 397.021981 204.51546 
L 397.730854 204.808995 
L 401.27522 207.327731 
L 402.33853 208.139401 
L 402.692966 208.110886 
L 403.224621 207.978597 
L 403.579058 207.723498 
L 404.642367 207.715544 
L 405.351241 207.854927 
L 405.882895 207.718191 
L 406.237332 207.48418 
L 406.946205 206.499282 
L 407.655078 204.870994 
L 408.009515 203.727516 
L 409.072824 199.315188 
L 409.427261 198.642097 
L 409.958916 198.37252 
L 410.313352 198.539279 
L 412.971627 200.514029 
L 414.212155 200.501854 
L 415.629901 200.479883 
L 417.933739 201.051573 
L 419.351485 201.725962 
L 420.237576 202.384882 
L 426.262998 207.781377 
L 432.288419 213.008771 
L 438.136623 217.811417 
L 439.022714 218.320817 
L 439.199933 218.272093 
L 440.263242 217.005092 
L 440.617679 216.99471 
L 441.680988 217.089922 
L 441.858207 216.978847 
L 442.212643 216.233613 
L 442.56708 214.604637 
L 443.984826 207.271181 
L 444.516481 206.506255 
L 444.870918 206.493573 
L 445.579791 206.941055 
L 446.6431 207.734517 
L 449.655811 210.319128 
L 456.212888 215.836481 
L 462.415528 220.760697 
L 467.023203 224.237021 
L 467.554858 224.498113 
L 473.757498 228.930298 
L 474.289152 229.170536 
L 474.643589 229.292198 
L 474.998026 229.356179 
L 476.59299 230.278638 
L 482.79563 234.340695 
L 484.922249 235.582646 
L 485.099468 235.62442 
L 485.276686 235.427155 
L 485.808341 232.452793 
L 485.985559 229.99708 
L 486.694432 210.613914 
L 487.048869 204.617116 
L 487.403305 198.285203 
L 487.757742 196.54161 
L 488.112179 195.884935 
L 488.466615 195.664113 
L 488.99827 195.651079 
L 489.529925 195.856521 
L 490.770453 196.687895 
L 491.124889 196.908566 
L 491.302108 196.871813 
L 491.656544 196.430166 
L 491.833762 196.105471 
L 492.010981 195.24999 
L 492.719854 188.328458 
L 493.428727 180.252646 
L 493.960382 176.54304 
L 494.314818 175.702167 
L 494.669255 175.461504 
L 496.441438 175.345087 
L 497.150311 175.816583 
L 499.27693 178.130446 
L 506.011225 186.131186 
L 506.188443 186.03037 
L 506.365662 185.801145 
L 506.720098 185.887515 
L 507.60619 181.720773 
L 507.960626 178.525363 
L 508.846718 174.835601 
L 509.201154 173.063752 
L 509.378372 172.25682 
L 510.441682 162.840962 
L 511.150555 149.85696 
L 513.986048 74.961823 
L 514.694921 55.014894 
L 515.049358 49.91907 
L 515.403794 47.303005 
L 515.581012 46.561731 
L 515.758231 46.390137 
L 515.935449 46.662045 
L 516.289886 47.921378 
L 516.82154 50.839939 
L 517.88485 58.500358 
L 520.720343 79.723732 
L 522.315307 89.762356 
L 523.910272 98.241787 
L 526.214109 108.52512 
L 527.986292 115.544621 
L 529.935693 122.339862 
L 531.707876 127.800175 
L 533.834496 133.767125 
L 535.42946 137.716443 
L 537.024425 140.820113 
L 539.328262 145.62035 
L 544.113156 154.964276 
L 547.125867 160.212021 
L 550.315796 165.315781 
L 553.151288 169.467775 
L 555.632344 172.833322 
L 558.467837 175.962998 
L 562.543857 181.112756 
L 566.974314 186.335543 
L 571.58199 191.425806 
L 573.531391 193.393326 
L 575.126355 194.630232 
L 581.86065 201.31741 
L 587.531635 206.592764 
L 593.379839 211.734913 
L 599.582478 216.888902 
L 602.595189 219.183121 
L 602.772407 219.200794 
L 603.126844 219.403222 
L 603.658499 218.708183 
L 604.367372 218.848664 
L 604.899027 219.190424 
L 610.924448 223.772783 
L 615.000469 226.711685 
L 618.899271 229.439603 
L 619.430926 229.682229 
L 620.671454 230.643784 
L 620.671454 230.762972 
L 622.443637 232.059252 
L 622.443637 232.175752 
L 622.798073 232.523904 
L 622.798073 232.639506 
L 630.950114 237.81909 
L 632.899516 238.95937 
L 633.962825 239.163754 
L 639.988247 242.499904 
L 641.76043 243.431442 
L 642.646521 243.615046 
L 645.83645 245.139408 
L 651.684654 247.91451 
L 657.710075 250.524235 
L 658.950603 250.924765 
L 659.482258 250.949972 
L 661.608877 251.63834 
L 662.140532 251.2639 
L 662.31775 251.219888 
L 663.026624 250.460562 
L 664.089933 250.409456 
L 671.533101 253.303809 
L 675.431903 254.679361 
L 675.431903 254.679361 
" clip-path="url(#p8cc5289a25)" style="fill: none; stroke: #ff7f0e; stroke-width: 1.5; stroke-linecap: square"/>
   </g>
   <g id="patch_3">
    <path d="M 38.482813 327.558125 
L 38.482813 22.318125 
" style="fill: none; stroke: #000000; stroke-width: 0.8; stroke-linejoin: miter; stroke-linecap: square"/>
   </g>
   <g id="patch_4">
    <path d="M 705.762812 327.558125 
L 705.762812 22.318125 
" style="fill: none; stroke: #000000; stroke-width: 0.8; stroke-linejoin: miter; stroke-linecap: square"/>
   </g>
   <g id="patch_5">
    <path d="M 38.482813 327.558125 
L 705.762813 327.558125 
" style="fill: none; stroke: #000000; stroke-width: 0.8; stroke-linejoin: miter; stroke-linecap: square"/>
   </g>
   <g id="patch_6">
    <path d="M 38.482813 22.318125 
L 705.762813 22.318125 
" style="fill: none; stroke: #000000; stroke-width: 0.8; stroke-linejoin: miter; stroke-linecap: square"/>
   </g>
   <g id="text_14">
    <!-- training -->
    <g transform="translate(348.879375 16.318125) scale(0.12 -0.12)">
     <defs>
      <path id="DejaVuSans-74" d="M 1172 4494 
L 1172 3500 
L 2356 3500 
L 2356 3053 
L 1172 3053 
L 1172 1153 
Q 1172 725 1289 603 
Q 1406 481 1766 481 
L 2356 481 
L 2356 0 
L 1766 0 
Q 1100 0 847 248 
Q 594 497 594 1153 
L 594 3053 
L 172 3053 
L 172 3500 
L 594 3500 
L 594 4494 
L 1172 4494 
z
" transform="scale(0.015625)"/>
      <path id="DejaVuSans-72" d="M 2631 2963 
Q 2534 3019 2420 3045 
Q 2306 3072 2169 3072 
Q 1681 3072 1420 2755 
Q 1159 2438 1159 1844 
L 1159 0 
L 581 0 
L 581 3500 
L 1159 3500 
L 1159 2956 
Q 1341 3275 1631 3429 
Q 1922 3584 2338 3584 
Q 2397 3584 2469 3576 
Q 2541 3569 2628 3553 
L 2631 2963 
z
" transform="scale(0.015625)"/>
      <path id="DejaVuSans-61" d="M 2194 1759 
Q 1497 1759 1228 1600 
Q 959 1441 959 1056 
Q 959 750 1161 570 
Q 1363 391 1709 391 
Q 2188 391 2477 730 
Q 2766 1069 2766 1631 
L 2766 1759 
L 2194 1759 
z
M 3341 1997 
L 3341 0 
L 2766 0 
L 2766 531 
Q 2569 213 2275 61 
Q 1981 -91 1556 -91 
Q 1019 -91 701 211 
Q 384 513 384 1019 
Q 384 1609 779 1909 
Q 1175 2209 1959 2209 
L 2766 2209 
L 2766 2266 
Q 2766 2663 2505 2880 
Q 2244 3097 1772 3097 
Q 1472 3097 1187 3025 
Q 903 2953 641 2809 
L 641 3341 
Q 956 3463 1253 3523 
Q 1550 3584 1831 3584 
Q 2591 3584 2966 3190 
Q 3341 2797 3341 1997 
z
" transform="scale(0.015625)"/>
      <path id="DejaVuSans-69" d="M 603 3500 
L 1178 3500 
L 1178 0 
L 603 0 
L 603 3500 
z
M 603 4863 
L 1178 4863 
L 1178 4134 
L 603 4134 
L 603 4863 
z
" transform="scale(0.015625)"/>
      <path id="DejaVuSans-6e" d="M 3513 2113 
L 3513 0 
L 2938 0 
L 2938 2094 
Q 2938 2591 2744 2837 
Q 2550 3084 2163 3084 
Q 1697 3084 1428 2787 
Q 1159 2491 1159 1978 
L 1159 0 
L 581 0 
L 581 3500 
L 1159 3500 
L 1159 2956 
Q 1366 3272 1645 3428 
Q 1925 3584 2291 3584 
Q 2894 3584 3203 3211 
Q 3513 2838 3513 2113 
z
" transform="scale(0.015625)"/>
      <path id="DejaVuSans-67" d="M 2906 1791 
Q 2906 2416 2648 2759 
Q 2391 3103 1925 3103 
Q 1463 3103 1205 2759 
Q 947 2416 947 1791 
Q 947 1169 1205 825 
Q 1463 481 1925 481 
Q 2391 481 2648 825 
Q 2906 1169 2906 1791 
z
M 3481 434 
Q 3481 -459 3084 -895 
Q 2688 -1331 1869 -1331 
Q 1566 -1331 1297 -1286 
Q 1028 -1241 775 -1147 
L 775 -588 
Q 1028 -725 1275 -790 
Q 1522 -856 1778 -856 
Q 2344 -856 2625 -561 
Q 2906 -266 2906 331 
L 2906 616 
Q 2728 306 2450 153 
Q 2172 0 1784 0 
Q 1141 0 747 490 
Q 353 981 353 1791 
Q 353 2603 747 3093 
Q 1141 3584 1784 3584 
Q 2172 3584 2450 3431 
Q 2728 3278 2906 2969 
L 2906 3500 
L 3481 3500 
L 3481 434 
z
" transform="scale(0.015625)"/>
     </defs>
     <use xlink:href="#DejaVuSans-74"/>
     <use xlink:href="#DejaVuSans-72" x="39.208984"/>
     <use xlink:href="#DejaVuSans-61" x="80.322266"/>
     <use xlink:href="#DejaVuSans-69" x="141.601562"/>
     <use xlink:href="#DejaVuSans-6e" x="169.384766"/>
     <use xlink:href="#DejaVuSans-69" x="232.763672"/>
     <use xlink:href="#DejaVuSans-6e" x="260.546875"/>
     <use xlink:href="#DejaVuSans-67" x="323.925781"/>
    </g>
   </g>
   <g id="legend_1">
    <g id="patch_7">
     <path d="M 617.369062 59.674375 
L 698.762812 59.674375 
Q 700.762812 59.674375 700.762812 57.674375 
L 700.762812 29.318125 
Q 700.762812 27.318125 698.762812 27.318125 
L 617.369062 27.318125 
Q 615.369062 27.318125 615.369062 29.318125 
L 615.369062 57.674375 
Q 615.369062 59.674375 617.369062 59.674375 
z
" style="fill: #ffffff; opacity: 0.8; stroke: #cccccc; stroke-linejoin: miter"/>
    </g>
    <g id="line2d_16">
     <path d="M 619.369062 35.416562 
L 629.369062 35.416562 
L 639.369062 35.416562 
" style="fill: none; stroke: #1f77b4; stroke-width: 1.5; stroke-linecap: square"/>
    </g>
    <g id="text_15">
     <!-- observed -->
     <g transform="translate(647.369062 38.916562) scale(0.1 -0.1)">
      <defs>
       <path id="DejaVuSans-6f" d="M 1959 3097 
Q 1497 3097 1228 2736 
Q 959 2375 959 1747 
Q 959 1119 1226 758 
Q 1494 397 1959 397 
Q 2419 397 2687 759 
Q 2956 1122 2956 1747 
Q 2956 2369 2687 2733 
Q 2419 3097 1959 3097 
z
M 1959 3584 
Q 2709 3584 3137 3096 
Q 3566 2609 3566 1747 
Q 3566 888 3137 398 
Q 2709 -91 1959 -91 
Q 1206 -91 779 398 
Q 353 888 353 1747 
Q 353 2609 779 3096 
Q 1206 3584 1959 3584 
z
" transform="scale(0.015625)"/>
       <path id="DejaVuSans-62" d="M 3116 1747 
Q 3116 2381 2855 2742 
Q 2594 3103 2138 3103 
Q 1681 3103 1420 2742 
Q 1159 2381 1159 1747 
Q 1159 1113 1420 752 
Q 1681 391 2138 391 
Q 2594 391 2855 752 
Q 3116 1113 3116 1747 
z
M 1159 2969 
Q 1341 3281 1617 3432 
Q 1894 3584 2278 3584 
Q 2916 3584 3314 3078 
Q 3713 2572 3713 1747 
Q 3713 922 3314 415 
Q 2916 -91 2278 -91 
Q 1894 -91 1617 61 
Q 1341 213 1159 525 
L 1159 0 
L 581 0 
L 581 4863 
L 1159 4863 
L 1159 2969 
z
" transform="scale(0.015625)"/>
       <path id="DejaVuSans-73" d="M 2834 3397 
L 2834 2853 
Q 2591 2978 2328 3040 
Q 2066 3103 1784 3103 
Q 1356 3103 1142 2972 
Q 928 2841 928 2578 
Q 928 2378 1081 2264 
Q 1234 2150 1697 2047 
L 1894 2003 
Q 2506 1872 2764 1633 
Q 3022 1394 3022 966 
Q 3022 478 2636 193 
Q 2250 -91 1575 -91 
Q 1294 -91 989 -36 
Q 684 19 347 128 
L 347 722 
Q 666 556 975 473 
Q 1284 391 1588 391 
Q 1994 391 2212 530 
Q 2431 669 2431 922 
Q 2431 1156 2273 1281 
Q 2116 1406 1581 1522 
L 1381 1569 
Q 847 1681 609 1914 
Q 372 2147 372 2553 
Q 372 3047 722 3315 
Q 1072 3584 1716 3584 
Q 2034 3584 2315 3537 
Q 2597 3491 2834 3397 
z
" transform="scale(0.015625)"/>
       <path id="DejaVuSans-65" d="M 3597 1894 
L 3597 1613 
L 953 1613 
Q 991 1019 1311 708 
Q 1631 397 2203 397 
Q 2534 397 2845 478 
Q 3156 559 3463 722 
L 3463 178 
Q 3153 47 2828 -22 
Q 2503 -91 2169 -91 
Q 1331 -91 842 396 
Q 353 884 353 1716 
Q 353 2575 817 3079 
Q 1281 3584 2069 3584 
Q 2775 3584 3186 3129 
Q 3597 2675 3597 1894 
z
M 3022 2063 
Q 3016 2534 2758 2815 
Q 2500 3097 2075 3097 
Q 1594 3097 1305 2825 
Q 1016 2553 972 2059 
L 3022 2063 
z
" transform="scale(0.015625)"/>
       <path id="DejaVuSans-76" d="M 191 3500 
L 800 3500 
L 1894 563 
L 2988 3500 
L 3597 3500 
L 2284 0 
L 1503 0 
L 191 3500 
z
" transform="scale(0.015625)"/>
       <path id="DejaVuSans-64" d="M 2906 2969 
L 2906 4863 
L 3481 4863 
L 3481 0 
L 2906 0 
L 2906 525 
Q 2725 213 2448 61 
Q 2172 -91 1784 -91 
Q 1150 -91 751 415 
Q 353 922 353 1747 
Q 353 2572 751 3078 
Q 1150 3584 1784 3584 
Q 2172 3584 2448 3432 
Q 2725 3281 2906 2969 
z
M 947 1747 
Q 947 1113 1208 752 
Q 1469 391 1925 391 
Q 2381 391 2643 752 
Q 2906 1113 2906 1747 
Q 2906 2381 2643 2742 
Q 2381 3103 1925 3103 
Q 1469 3103 1208 2742 
Q 947 2381 947 1747 
z
" transform="scale(0.015625)"/>
      </defs>
      <use xlink:href="#DejaVuSans-6f"/>
      <use xlink:href="#DejaVuSans-62" x="61.181641"/>
      <use xlink:href="#DejaVuSans-73" x="124.658203"/>
      <use xlink:href="#DejaVuSans-65" x="176.757812"/>
      <use xlink:href="#DejaVuSans-72" x="238.28125"/>
      <use xlink:href="#DejaVuSans-76" x="279.394531"/>
      <use xlink:href="#DejaVuSans-65" x="338.574219"/>
      <use xlink:href="#DejaVuSans-64" x="400.097656"/>
     </g>
    </g>
    <g id="line2d_17">
     <path d="M 619.369062 50.094688 
L 629.369062 50.094688 
L 639.369062 50.094688 
" style="fill: none; stroke: #ff7f0e; stroke-width: 1.5; stroke-linecap: square"/>
    </g>
    <g id="text_16">
     <!-- simulated -->
     <g transform="translate(647.369062 53.594688) scale(0.1 -0.1)">
      <defs>
       <path id="DejaVuSans-6d" d="M 3328 2828 
Q 3544 3216 3844 3400 
Q 4144 3584 4550 3584 
Q 5097 3584 5394 3201 
Q 5691 2819 5691 2113 
L 5691 0 
L 5113 0 
L 5113 2094 
Q 5113 2597 4934 2840 
Q 4756 3084 4391 3084 
Q 3944 3084 3684 2787 
Q 3425 2491 3425 1978 
L 3425 0 
L 2847 0 
L 2847 2094 
Q 2847 2600 2669 2842 
Q 2491 3084 2119 3084 
Q 1678 3084 1418 2786 
Q 1159 2488 1159 1978 
L 1159 0 
L 581 0 
L 581 3500 
L 1159 3500 
L 1159 2956 
Q 1356 3278 1631 3431 
Q 1906 3584 2284 3584 
Q 2666 3584 2933 3390 
Q 3200 3197 3328 2828 
z
" transform="scale(0.015625)"/>
       <path id="DejaVuSans-75" d="M 544 1381 
L 544 3500 
L 1119 3500 
L 1119 1403 
Q 1119 906 1312 657 
Q 1506 409 1894 409 
Q 2359 409 2629 706 
Q 2900 1003 2900 1516 
L 2900 3500 
L 3475 3500 
L 3475 0 
L 2900 0 
L 2900 538 
Q 2691 219 2414 64 
Q 2138 -91 1772 -91 
Q 1169 -91 856 284 
Q 544 659 544 1381 
z
M 1991 3584 
L 1991 3584 
z
" transform="scale(0.015625)"/>
       <path id="DejaVuSans-6c" d="M 603 4863 
L 1178 4863 
L 1178 0 
L 603 0 
L 603 4863 
z
" transform="scale(0.015625)"/>
      </defs>
      <use xlink:href="#DejaVuSans-73"/>
      <use xlink:href="#DejaVuSans-69" x="52.099609"/>
      <use xlink:href="#DejaVuSans-6d" x="79.882812"/>
      <use xlink:href="#DejaVuSans-75" x="177.294922"/>
      <use xlink:href="#DejaVuSans-6c" x="240.673828"/>
      <use xlink:href="#DejaVuSans-61" x="268.457031"/>
      <use xlink:href="#DejaVuSans-74" x="329.736328"/>
      <use xlink:href="#DejaVuSans-65" x="368.945312"/>
      <use xlink:href="#DejaVuSans-64" x="430.46875"/>
     </g>
    </g>
   </g>
  </g>
 </g>
 <defs>
  <clipPath id="p8cc5289a25">
   <rect x="38.482813" y="22.318125" width="667.28" height="305.24"/>
  </clipPath>
 </defs>
</svg>
