<?xml version="1.0" encoding="utf-8" standalone="no"?>
<!DOCTYPE svg PUBLIC "-//W3C//DTD SVG 1.1//EN"
  "http://www.w3.org/Graphics/SVG/1.1/DTD/svg11.dtd">
<svg xmlns:xlink="http://www.w3.org/1999/xlink" width="720pt" height="360pt" viewBox="0 0 720 360" xmlns="http://www.w3.org/2000/svg" version="1.1">
 <metadata>
  <rdf:RDF xmlns:dc="http://purl.org/dc/elements/1.1/" xmlns:cc="http://creativecommons.org/ns#" xmlns:rdf="http://www.w3.org/1999/02/22-rdf-syntax-ns#">
   <cc:Work>
    <dc:type rdf:resource="http://purl.org/dc/dcmitype/StillImage"/>
    <dc:date>2023-10-23T10:53:15.923735</dc:date>
    <dc:format>image/svg+xml</dc:format>
    <dc:creator>
     <cc:Agent>
      <dc:title>Matplotlib v3.7.1, https://matplotlib.org/</dc:title>
     </cc:Agent>
    </dc:creator>
   </cc:Work>
  </rdf:RDF>
 </metadata>
 <defs>
  <style type="text/css">*{stroke-linejoin: round; stroke-linecap: butt}</style>
 </defs>
 <g id="figure_1">
  <g id="patch_1">
   <path d="M 0 360 
L 720 360 
L 720 0 
L 0 0 
z
" style="fill: #ffffff"/>
  </g>
  <g id="axes_1">
   <g id="patch_2">
    <path d="M 90 288 
L 648 288 
L 648 43.2 
L 90 43.2 
z
" style="fill: #ffffff"/>
   </g>
   <g id="matplotlib.axis_1">
    <g id="xtick_1">
     <g id="line2d_1">
      <defs>
       <path id="m80ebb912c3" d="M 0 0 
L 0 3.5 
" style="stroke: #000000; stroke-width: 0.8"/>
      </defs>
      <g>
       <use xlink:href="#m80ebb912c3" x="149.370747" y="288" style="stroke: #000000; stroke-width: 0.8"/>
      </g>
     </g>
     <g id="text_1">
      <!-- 2023-08-15 -->
      <g transform="translate(87.727405 337.765903) rotate(-30) scale(0.12 -0.12)">
       <defs>
        <path id="DejaVuSans-32" d="M 1228 531 
L 3431 531 
L 3431 0 
L 469 0 
L 469 531 
Q 828 903 1448 1529 
Q 2069 2156 2228 2338 
Q 2531 2678 2651 2914 
Q 2772 3150 2772 3378 
Q 2772 3750 2511 3984 
Q 2250 4219 1831 4219 
Q 1534 4219 1204 4116 
Q 875 4013 500 3803 
L 500 4441 
Q 881 4594 1212 4672 
Q 1544 4750 1819 4750 
Q 2544 4750 2975 4387 
Q 3406 4025 3406 3419 
Q 3406 3131 3298 2873 
Q 3191 2616 2906 2266 
Q 2828 2175 2409 1742 
Q 1991 1309 1228 531 
z
" transform="scale(0.015625)"/>
        <path id="DejaVuSans-30" d="M 2034 4250 
Q 1547 4250 1301 3770 
Q 1056 3291 1056 2328 
Q 1056 1369 1301 889 
Q 1547 409 2034 409 
Q 2525 409 2770 889 
Q 3016 1369 3016 2328 
Q 3016 3291 2770 3770 
Q 2525 4250 2034 4250 
z
M 2034 4750 
Q 2819 4750 3233 4129 
Q 3647 3509 3647 2328 
Q 3647 1150 3233 529 
Q 2819 -91 2034 -91 
Q 1250 -91 836 529 
Q 422 1150 422 2328 
Q 422 3509 836 4129 
Q 1250 4750 2034 4750 
z
" transform="scale(0.015625)"/>
        <path id="DejaVuSans-33" d="M 2597 2516 
Q 3050 2419 3304 2112 
Q 3559 1806 3559 1356 
Q 3559 666 3084 287 
Q 2609 -91 1734 -91 
Q 1441 -91 1130 -33 
Q 819 25 488 141 
L 488 750 
Q 750 597 1062 519 
Q 1375 441 1716 441 
Q 2309 441 2620 675 
Q 2931 909 2931 1356 
Q 2931 1769 2642 2001 
Q 2353 2234 1838 2234 
L 1294 2234 
L 1294 2753 
L 1863 2753 
Q 2328 2753 2575 2939 
Q 2822 3125 2822 3475 
Q 2822 3834 2567 4026 
Q 2313 4219 1838 4219 
Q 1578 4219 1281 4162 
Q 984 4106 628 3988 
L 628 4550 
Q 988 4650 1302 4700 
Q 1616 4750 1894 4750 
Q 2613 4750 3031 4423 
Q 3450 4097 3450 3541 
Q 3450 3153 3228 2886 
Q 3006 2619 2597 2516 
z
" transform="scale(0.015625)"/>
        <path id="DejaVuSans-2d" d="M 313 2009 
L 1997 2009 
L 1997 1497 
L 313 1497 
L 313 2009 
z
" transform="scale(0.015625)"/>
        <path id="DejaVuSans-38" d="M 2034 2216 
Q 1584 2216 1326 1975 
Q 1069 1734 1069 1313 
Q 1069 891 1326 650 
Q 1584 409 2034 409 
Q 2484 409 2743 651 
Q 3003 894 3003 1313 
Q 3003 1734 2745 1975 
Q 2488 2216 2034 2216 
z
M 1403 2484 
Q 997 2584 770 2862 
Q 544 3141 544 3541 
Q 544 4100 942 4425 
Q 1341 4750 2034 4750 
Q 2731 4750 3128 4425 
Q 3525 4100 3525 3541 
Q 3525 3141 3298 2862 
Q 3072 2584 2669 2484 
Q 3125 2378 3379 2068 
Q 3634 1759 3634 1313 
Q 3634 634 3220 271 
Q 2806 -91 2034 -91 
Q 1263 -91 848 271 
Q 434 634 434 1313 
Q 434 1759 690 2068 
Q 947 2378 1403 2484 
z
M 1172 3481 
Q 1172 3119 1398 2916 
Q 1625 2713 2034 2713 
Q 2441 2713 2670 2916 
Q 2900 3119 2900 3481 
Q 2900 3844 2670 4047 
Q 2441 4250 2034 4250 
Q 1625 4250 1398 4047 
Q 1172 3844 1172 3481 
z
" transform="scale(0.015625)"/>
        <path id="DejaVuSans-31" d="M 794 531 
L 1825 531 
L 1825 4091 
L 703 3866 
L 703 4441 
L 1819 4666 
L 2450 4666 
L 2450 531 
L 3481 531 
L 3481 0 
L 794 0 
L 794 531 
z
" transform="scale(0.015625)"/>
        <path id="DejaVuSans-35" d="M 691 4666 
L 3169 4666 
L 3169 4134 
L 1269 4134 
L 1269 2991 
Q 1406 3038 1543 3061 
Q 1681 3084 1819 3084 
Q 2600 3084 3056 2656 
Q 3513 2228 3513 1497 
Q 3513 744 3044 326 
Q 2575 -91 1722 -91 
Q 1428 -91 1123 -41 
Q 819 9 494 109 
L 494 744 
Q 775 591 1075 516 
Q 1375 441 1709 441 
Q 2250 441 2565 725 
Q 2881 1009 2881 1497 
Q 2881 1984 2565 2268 
Q 2250 2553 1709 2553 
Q 1456 2553 1204 2497 
Q 953 2441 691 2322 
L 691 4666 
z
" transform="scale(0.015625)"/>
       </defs>
       <use xlink:href="#DejaVuSans-32"/>
       <use xlink:href="#DejaVuSans-30" x="63.623047"/>
       <use xlink:href="#DejaVuSans-32" x="127.246094"/>
       <use xlink:href="#DejaVuSans-33" x="190.869141"/>
       <use xlink:href="#DejaVuSans-2d" x="254.492188"/>
       <use xlink:href="#DejaVuSans-30" x="290.576172"/>
       <use xlink:href="#DejaVuSans-38" x="354.199219"/>
       <use xlink:href="#DejaVuSans-2d" x="417.822266"/>
       <use xlink:href="#DejaVuSans-31" x="453.90625"/>
       <use xlink:href="#DejaVuSans-35" x="517.529297"/>
      </g>
     </g>
    </g>
    <g id="xtick_2">
     <g id="line2d_2">
      <g>
       <use xlink:href="#m80ebb912c3" x="264.994921" y="288" style="stroke: #000000; stroke-width: 0.8"/>
      </g>
     </g>
     <g id="text_2">
      <!-- 2023-09-01 -->
      <g transform="translate(203.35158 337.765903) rotate(-30) scale(0.12 -0.12)">
       <defs>
        <path id="DejaVuSans-39" d="M 703 97 
L 703 672 
Q 941 559 1184 500 
Q 1428 441 1663 441 
Q 2288 441 2617 861 
Q 2947 1281 2994 2138 
Q 2813 1869 2534 1725 
Q 2256 1581 1919 1581 
Q 1219 1581 811 2004 
Q 403 2428 403 3163 
Q 403 3881 828 4315 
Q 1253 4750 1959 4750 
Q 2769 4750 3195 4129 
Q 3622 3509 3622 2328 
Q 3622 1225 3098 567 
Q 2575 -91 1691 -91 
Q 1453 -91 1209 -44 
Q 966 3 703 97 
z
M 1959 2075 
Q 2384 2075 2632 2365 
Q 2881 2656 2881 3163 
Q 2881 3666 2632 3958 
Q 2384 4250 1959 4250 
Q 1534 4250 1286 3958 
Q 1038 3666 1038 3163 
Q 1038 2656 1286 2365 
Q 1534 2075 1959 2075 
z
" transform="scale(0.015625)"/>
       </defs>
       <use xlink:href="#DejaVuSans-32"/>
       <use xlink:href="#DejaVuSans-30" x="63.623047"/>
       <use xlink:href="#DejaVuSans-32" x="127.246094"/>
       <use xlink:href="#DejaVuSans-33" x="190.869141"/>
       <use xlink:href="#DejaVuSans-2d" x="254.492188"/>
       <use xlink:href="#DejaVuSans-30" x="290.576172"/>
       <use xlink:href="#DejaVuSans-39" x="354.199219"/>
       <use xlink:href="#DejaVuSans-2d" x="417.822266"/>
       <use xlink:href="#DejaVuSans-30" x="453.90625"/>
       <use xlink:href="#DejaVuSans-31" x="517.529297"/>
      </g>
     </g>
    </g>
    <g id="xtick_3">
     <g id="line2d_3">
      <g>
       <use xlink:href="#m80ebb912c3" x="360.21483" y="288" style="stroke: #000000; stroke-width: 0.8"/>
      </g>
     </g>
     <g id="text_3">
      <!-- 2023-09-15 -->
      <g transform="translate(298.571488 337.765903) rotate(-30) scale(0.12 -0.12)">
       <use xlink:href="#DejaVuSans-32"/>
       <use xlink:href="#DejaVuSans-30" x="63.623047"/>
       <use xlink:href="#DejaVuSans-32" x="127.246094"/>
       <use xlink:href="#DejaVuSans-33" x="190.869141"/>
       <use xlink:href="#DejaVuSans-2d" x="254.492188"/>
       <use xlink:href="#DejaVuSans-30" x="290.576172"/>
       <use xlink:href="#DejaVuSans-39" x="354.199219"/>
       <use xlink:href="#DejaVuSans-2d" x="417.822266"/>
       <use xlink:href="#DejaVuSans-31" x="453.90625"/>
       <use xlink:href="#DejaVuSans-35" x="517.529297"/>
      </g>
     </g>
    </g>
    <g id="xtick_4">
     <g id="line2d_4">
      <g>
       <use xlink:href="#m80ebb912c3" x="469.037583" y="288" style="stroke: #000000; stroke-width: 0.8"/>
      </g>
     </g>
     <g id="text_4">
      <!-- 2023-10-01 -->
      <g transform="translate(407.394241 337.765903) rotate(-30) scale(0.12 -0.12)">
       <use xlink:href="#DejaVuSans-32"/>
       <use xlink:href="#DejaVuSans-30" x="63.623047"/>
       <use xlink:href="#DejaVuSans-32" x="127.246094"/>
       <use xlink:href="#DejaVuSans-33" x="190.869141"/>
       <use xlink:href="#DejaVuSans-2d" x="254.492188"/>
       <use xlink:href="#DejaVuSans-31" x="290.576172"/>
       <use xlink:href="#DejaVuSans-30" x="354.199219"/>
       <use xlink:href="#DejaVuSans-2d" x="417.822266"/>
       <use xlink:href="#DejaVuSans-30" x="453.90625"/>
       <use xlink:href="#DejaVuSans-31" x="517.529297"/>
      </g>
     </g>
    </g>
    <g id="xtick_5">
     <g id="line2d_5">
      <g>
       <use xlink:href="#m80ebb912c3" x="564.257491" y="288" style="stroke: #000000; stroke-width: 0.8"/>
      </g>
     </g>
     <g id="text_5">
      <!-- 2023-10-15 -->
      <g transform="translate(502.614149 337.765903) rotate(-30) scale(0.12 -0.12)">
       <use xlink:href="#DejaVuSans-32"/>
       <use xlink:href="#DejaVuSans-30" x="63.623047"/>
       <use xlink:href="#DejaVuSans-32" x="127.246094"/>
       <use xlink:href="#DejaVuSans-33" x="190.869141"/>
       <use xlink:href="#DejaVuSans-2d" x="254.492188"/>
       <use xlink:href="#DejaVuSans-31" x="290.576172"/>
       <use xlink:href="#DejaVuSans-30" x="354.199219"/>
       <use xlink:href="#DejaVuSans-2d" x="417.822266"/>
       <use xlink:href="#DejaVuSans-31" x="453.90625"/>
       <use xlink:href="#DejaVuSans-35" x="517.529297"/>
      </g>
     </g>
    </g>
   </g>
   <g id="matplotlib.axis_2">
    <g id="ytick_1">
     <g id="line2d_6">
      <defs>
       <path id="m98b3a38d88" d="M 0 0 
L -3.5 0 
" style="stroke: #000000; stroke-width: 0.8"/>
      </defs>
      <g>
       <use xlink:href="#m98b3a38d88" x="90" y="241.844361" style="stroke: #000000; stroke-width: 0.8"/>
      </g>
     </g>
     <g id="text_6">
      <!-- 0.6 -->
      <g transform="translate(63.91625 246.403423) scale(0.12 -0.12)">
       <defs>
        <path id="DejaVuSans-2e" d="M 684 794 
L 1344 794 
L 1344 0 
L 684 0 
L 684 794 
z
" transform="scale(0.015625)"/>
        <path id="DejaVuSans-36" d="M 2113 2584 
Q 1688 2584 1439 2293 
Q 1191 2003 1191 1497 
Q 1191 994 1439 701 
Q 1688 409 2113 409 
Q 2538 409 2786 701 
Q 3034 994 3034 1497 
Q 3034 2003 2786 2293 
Q 2538 2584 2113 2584 
z
M 3366 4563 
L 3366 3988 
Q 3128 4100 2886 4159 
Q 2644 4219 2406 4219 
Q 1781 4219 1451 3797 
Q 1122 3375 1075 2522 
Q 1259 2794 1537 2939 
Q 1816 3084 2150 3084 
Q 2853 3084 3261 2657 
Q 3669 2231 3669 1497 
Q 3669 778 3244 343 
Q 2819 -91 2113 -91 
Q 1303 -91 875 529 
Q 447 1150 447 2328 
Q 447 3434 972 4092 
Q 1497 4750 2381 4750 
Q 2619 4750 2861 4703 
Q 3103 4656 3366 4563 
z
" transform="scale(0.015625)"/>
       </defs>
       <use xlink:href="#DejaVuSans-30"/>
       <use xlink:href="#DejaVuSans-2e" x="63.623047"/>
       <use xlink:href="#DejaVuSans-36" x="95.410156"/>
      </g>
     </g>
    </g>
    <g id="ytick_2">
     <g id="line2d_7">
      <g>
       <use xlink:href="#m98b3a38d88" x="90" y="190.435021" style="stroke: #000000; stroke-width: 0.8"/>
      </g>
     </g>
     <g id="text_7">
      <!-- 0.7 -->
      <g transform="translate(63.91625 194.994084) scale(0.12 -0.12)">
       <defs>
        <path id="DejaVuSans-37" d="M 525 4666 
L 3525 4666 
L 3525 4397 
L 1831 0 
L 1172 0 
L 2766 4134 
L 525 4134 
L 525 4666 
z
" transform="scale(0.015625)"/>
       </defs>
       <use xlink:href="#DejaVuSans-30"/>
       <use xlink:href="#DejaVuSans-2e" x="63.623047"/>
       <use xlink:href="#DejaVuSans-37" x="95.410156"/>
      </g>
     </g>
    </g>
    <g id="ytick_3">
     <g id="line2d_8">
      <g>
       <use xlink:href="#m98b3a38d88" x="90" y="139.025682" style="stroke: #000000; stroke-width: 0.8"/>
      </g>
     </g>
     <g id="text_8">
      <!-- 0.8 -->
      <g transform="translate(63.91625 143.584744) scale(0.12 -0.12)">
       <use xlink:href="#DejaVuSans-30"/>
       <use xlink:href="#DejaVuSans-2e" x="63.623047"/>
       <use xlink:href="#DejaVuSans-38" x="95.410156"/>
      </g>
     </g>
    </g>
    <g id="ytick_4">
     <g id="line2d_9">
      <g>
       <use xlink:href="#m98b3a38d88" x="90" y="87.616342" style="stroke: #000000; stroke-width: 0.8"/>
      </g>
     </g>
     <g id="text_9">
      <!-- 0.9 -->
      <g transform="translate(63.91625 92.175404) scale(0.12 -0.12)">
       <use xlink:href="#DejaVuSans-30"/>
       <use xlink:href="#DejaVuSans-2e" x="63.623047"/>
       <use xlink:href="#DejaVuSans-39" x="95.410156"/>
      </g>
     </g>
    </g>
    <g id="text_10">
     <!-- Meters -->
     <g transform="translate(57.836562 182.6875) rotate(-90) scale(0.1 -0.1)">
      <defs>
       <path id="DejaVuSans-4d" d="M 628 4666 
L 1569 4666 
L 2759 1491 
L 3956 4666 
L 4897 4666 
L 4897 0 
L 4281 0 
L 4281 4097 
L 3078 897 
L 2444 897 
L 1241 4097 
L 1241 0 
L 628 0 
L 628 4666 
z
" transform="scale(0.015625)"/>
       <path id="DejaVuSans-65" d="M 3597 1894 
L 3597 1613 
L 953 1613 
Q 991 1019 1311 708 
Q 1631 397 2203 397 
Q 2534 397 2845 478 
Q 3156 559 3463 722 
L 3463 178 
Q 3153 47 2828 -22 
Q 2503 -91 2169 -91 
Q 1331 -91 842 396 
Q 353 884 353 1716 
Q 353 2575 817 3079 
Q 1281 3584 2069 3584 
Q 2775 3584 3186 3129 
Q 3597 2675 3597 1894 
z
M 3022 2063 
Q 3016 2534 2758 2815 
Q 2500 3097 2075 3097 
Q 1594 3097 1305 2825 
Q 1016 2553 972 2059 
L 3022 2063 
z
" transform="scale(0.015625)"/>
       <path id="DejaVuSans-74" d="M 1172 4494 
L 1172 3500 
L 2356 3500 
L 2356 3053 
L 1172 3053 
L 1172 1153 
Q 1172 725 1289 603 
Q 1406 481 1766 481 
L 2356 481 
L 2356 0 
L 1766 0 
Q 1100 0 847 248 
Q 594 497 594 1153 
L 594 3053 
L 172 3053 
L 172 3500 
L 594 3500 
L 594 4494 
L 1172 4494 
z
" transform="scale(0.015625)"/>
       <path id="DejaVuSans-72" d="M 2631 2963 
Q 2534 3019 2420 3045 
Q 2306 3072 2169 3072 
Q 1681 3072 1420 2755 
Q 1159 2438 1159 1844 
L 1159 0 
L 581 0 
L 581 3500 
L 1159 3500 
L 1159 2956 
Q 1341 3275 1631 3429 
Q 1922 3584 2338 3584 
Q 2397 3584 2469 3576 
Q 2541 3569 2628 3553 
L 2631 2963 
z
" transform="scale(0.015625)"/>
       <path id="DejaVuSans-73" d="M 2834 3397 
L 2834 2853 
Q 2591 2978 2328 3040 
Q 2066 3103 1784 3103 
Q 1356 3103 1142 2972 
Q 928 2841 928 2578 
Q 928 2378 1081 2264 
Q 1234 2150 1697 2047 
L 1894 2003 
Q 2506 1872 2764 1633 
Q 3022 1394 3022 966 
Q 3022 478 2636 193 
Q 2250 -91 1575 -91 
Q 1294 -91 989 -36 
Q 684 19 347 128 
L 347 722 
Q 666 556 975 473 
Q 1284 391 1588 391 
Q 1994 391 2212 530 
Q 2431 669 2431 922 
Q 2431 1156 2273 1281 
Q 2116 1406 1581 1522 
L 1381 1569 
Q 847 1681 609 1914 
Q 372 2147 372 2553 
Q 372 3047 722 3315 
Q 1072 3584 1716 3584 
Q 2034 3584 2315 3537 
Q 2597 3491 2834 3397 
z
" transform="scale(0.015625)"/>
      </defs>
      <use xlink:href="#DejaVuSans-4d"/>
      <use xlink:href="#DejaVuSans-65" x="86.279297"/>
      <use xlink:href="#DejaVuSans-74" x="147.802734"/>
      <use xlink:href="#DejaVuSans-65" x="187.011719"/>
      <use xlink:href="#DejaVuSans-72" x="248.535156"/>
      <use xlink:href="#DejaVuSans-73" x="289.648438"/>
     </g>
    </g>
   </g>
   <g id="line2d_10">
    <path d="M 115.363636 242.848457 
L 115.647029 242.437287 
L 115.930422 242.608608 
L 116.497207 242.522948 
L 116.780599 241.580684 
L 117.063992 240.21012 
L 117.91417 238.753895 
L 118.197562 239.353517 
L 118.480955 237.29767 
L 118.764347 239.010875 
L 119.04774 238.668234 
L 119.331133 239.096536 
L 119.614525 244.750115 
L 120.464703 248.86181 
L 121.031488 248.776149 
L 121.314881 241.323704 
L 121.598273 226.07617 
L 121.881666 222.564098 
L 122.448451 236.526727 
L 123.582021 244.921436 
L 123.865414 245.007096 
L 124.148807 244.493135 
L 124.432199 243.636532 
L 124.715592 243.636532 
L 124.998984 241.923326 
L 125.282377 241.238043 
L 125.565769 241.580684 
L 125.849162 240.124459 
L 126.132555 241.323704 
L 126.415947 245.007096 
L 126.69934 245.521058 
L 126.982732 245.692379 
L 127.266125 244.064833 
L 127.549518 247.062944 
L 127.83291 247.748226 
L 128.116303 226.932773 
L 128.399695 155.063783 
L 128.683088 133.90569 
L 128.96648 126.196263 
L 129.249873 129.108713 
L 130.100051 154.378501 
L 130.666836 168.42679 
L 131.233621 176.478858 
L 131.800406 183.503002 
L 132.083799 185.558849 
L 132.367191 190.355826 
L 132.650584 191.212429 
L 133.500762 202.519588 
L 133.784154 201.748646 
L 134.634332 209.629393 
L 134.917725 210.057695 
L 135.201117 211.68524 
L 135.48451 211.770901 
L 135.767902 213.484107 
L 136.051295 213.655427 
L 136.334688 214.255049 
L 136.61808 216.139576 
L 136.901473 215.968255 
L 137.184865 217.25316 
L 138.035043 215.197313 
L 138.318436 213.398446 
L 138.601828 213.998068 
L 138.885221 213.741088 
L 139.168614 214.34071 
L 139.452006 213.826748 
L 139.735399 215.368633 
L 140.018791 221.707495 
L 140.302184 224.619945 
L 140.585576 224.448625 
L 140.868969 225.219567 
L 141.152362 224.791266 
L 141.435754 226.590132 
L 142.002539 228.303338 
L 142.285932 229.074281 
L 142.569325 229.159941 
L 142.852717 228.8173 
L 143.13611 229.074281 
L 143.419502 229.588243 
L 143.702895 229.673903 
L 143.986287 229.331262 
L 144.26968 228.217678 
L 144.553073 228.046357 
L 144.836465 227.275415 
L 145.119858 225.90485 
L 145.40325 226.07617 
L 145.686643 225.733529 
L 145.970036 225.81919 
L 146.536821 227.618056 
L 146.820213 229.588243 
L 147.103606 229.074281 
L 147.386998 231.64409 
L 147.670391 230.958807 
L 148.237176 233.699937 
L 148.520569 234.727861 
L 148.803961 235.327483 
L 149.087354 236.269746 
L 149.370747 228.645979 
L 149.654139 210.999958 
L 149.937532 207.744867 
L 150.220924 209.201092 
L 150.504317 206.459962 
L 150.787709 198.322234 
L 151.071102 196.095066 
L 151.637887 180.162251 
L 151.92128 173.566408 
L 152.204672 171.596221 
L 152.488065 172.624144 
L 152.771458 176.050556 
L 153.05485 178.106404 
L 153.905028 191.46941 
L 154.471813 195.409784 
L 154.755206 194.810162 
L 155.321991 191.212429 
L 155.888776 193.782238 
L 156.455561 197.29431 
L 156.738954 199.264497 
L 157.022346 202.262608 
L 158.155917 208.001848 
L 158.439309 209.029771 
L 158.722702 209.629393 
L 159.006094 210.657317 
L 159.289487 211.171279 
L 159.57288 213.741088 
L 159.856272 212.113542 
L 160.139665 213.484107 
L 160.423057 221.022213 
L 160.70645 223.934663 
L 160.989843 225.219567 
L 161.556628 226.247491 
L 161.84002 227.446735 
L 162.123413 227.875037 
L 162.406805 228.560319 
L 162.973591 226.161831 
L 163.256983 224.448625 
L 163.540376 224.534285 
L 163.823768 223.249381 
L 164.107161 224.448625 
L 164.390554 224.020323 
L 164.673946 224.105984 
L 164.957339 224.619945 
L 165.240731 224.791266 
L 165.524124 224.705606 
L 165.807517 224.448625 
L 166.090909 224.448625 
L 166.374302 225.90485 
L 166.657694 224.191644 
L 166.941087 223.677682 
L 167.224479 226.932773 
L 167.507872 225.476548 
L 167.791265 221.621835 
L 168.074657 209.029771 
L 168.35805 155.663405 
L 168.641442 127.823809 
L 168.924835 124.654377 
L 169.208228 122.941172 
L 169.775013 132.620785 
L 170.341798 147.183036 
L 171.191976 169.711694 
L 171.758761 176.907159 
L 172.042153 179.048667 
L 172.325546 180.07659 
L 172.608939 183.503002 
L 172.892331 184.873567 
L 173.175724 187.100735 
L 173.459116 186.415452 
L 173.742509 188.985261 
L 174.025901 195.238463 
L 176.00965 211.68524 
L 176.293042 211.342599 
L 176.576435 212.027882 
L 176.859827 210.914298 
L 177.14322 213.141465 
L 177.426612 213.912408 
L 177.710005 213.912408 
L 177.993398 215.197313 
L 178.27679 215.282973 
L 178.560183 215.796935 
L 179.410361 219.052026 
L 179.693753 218.795045 
L 179.977146 219.394667 
L 180.260538 218.281083 
L 180.543931 219.480328 
L 180.827324 227.875037 
L 181.110716 229.673903 
L 181.394109 226.761453 
L 181.677501 229.502582 
L 182.244286 230.701827 
L 182.811072 232.243712 
L 183.377857 229.588243 
L 183.944642 228.645979 
L 184.228035 229.245602 
L 184.511427 230.187865 
L 184.79482 230.273525 
L 185.078212 230.102204 
L 185.361605 230.187865 
L 185.644997 229.074281 
L 185.92839 229.502582 
L 186.211783 231.044468 
L 186.495175 230.273525 
L 186.778568 232.329372 
L 187.06196 231.55843 
L 187.345353 232.329372 
L 187.628746 239.524837 
L 187.912138 241.752005 
L 188.195531 240.981062 
L 188.478923 243.20823 
L 188.762316 242.865589 
L 189.045708 241.837665 
L 189.329101 243.979173 
L 190.179279 239.353517 
L 190.462671 238.668234 
L 190.746064 238.411253 
L 191.029457 238.325593 
L 191.312849 238.668234 
L 191.596242 238.411253 
L 191.879634 237.897292 
L 192.44642 239.010875 
L 192.729812 238.582574 
L 193.013205 239.010875 
L 193.57999 238.496914 
L 193.863382 238.068612 
L 194.146775 239.439177 
L 194.430168 243.807852 
L 194.71356 246.03502 
L 194.996953 244.750115 
L 195.280345 244.493135 
L 195.563738 245.863699 
L 195.847131 246.03502 
L 196.130523 246.03502 
L 196.413916 246.206341 
L 196.697308 245.435398 
L 197.264093 245.007096 
L 197.547486 244.407474 
L 197.830879 244.236154 
L 198.114271 244.578795 
L 198.397664 246.805963 
L 198.681056 246.03502 
L 198.964449 246.891623 
L 199.247842 246.03502 
L 199.531234 246.805963 
L 199.814627 246.805963 
L 200.098019 244.493135 
L 200.664804 242.779929 
L 200.948197 243.636532 
L 201.23159 243.979173 
L 201.514982 247.234264 
L 201.798375 246.12068 
L 202.081767 246.206341 
L 202.36516 247.833886 
L 202.648553 248.519169 
L 202.931945 249.632752 
L 203.215338 251.260298 
L 203.49873 250.318035 
L 203.782123 250.318035 
L 204.065515 248.262188 
L 204.348908 248.94747 
L 204.915693 249.718413 
L 205.199086 249.718413 
L 205.482478 250.403695 
L 206.049264 246.206341 
L 206.616049 244.835776 
L 206.899441 243.29389 
L 207.182834 243.465211 
L 207.466227 244.150493 
L 207.749619 243.893512 
L 208.316404 247.748226 
L 208.599797 246.206341 
L 208.883189 248.433508 
L 209.166582 248.433508 
L 209.449975 251.345958 
L 209.733367 250.660676 
L 210.01676 252.630863 
L 210.300152 251.260298 
L 210.583545 251.431619 
L 210.866938 251.088978 
L 211.15033 251.6886 
L 211.433723 251.517279 
L 211.717115 251.003317 
L 212.000508 250.232375 
L 212.2839 248.262188 
L 212.567293 249.547092 
L 212.850686 247.062944 
L 213.134078 236.955028 
L 213.700863 70.260088 
L 213.984256 56.46878 
L 214.267649 54.327273 
L 214.551041 61.265757 
L 215.401219 99.64157 
L 215.968004 132.278144 
L 216.534789 157.976233 
L 217.101574 173.480747 
L 217.66836 181.618476 
L 217.951752 184.873567 
L 218.235145 158.318875 
L 218.518537 107.950619 
L 219.085322 86.535545 
L 219.368715 84.907999 
L 219.9355 97.328742 
L 221.352463 140.672853 
L 221.919248 151.20907 
L 223.619604 174.851312 
L 223.902996 176.307537 
L 224.186389 176.907159 
L 224.753174 179.733949 
L 225.036567 181.789796 
L 225.603352 183.845644 
L 225.886745 184.188285 
L 226.170137 185.130548 
L 226.45353 184.873567 
L 227.303707 187.786017 
L 227.5871 187.957338 
L 228.153885 191.46941 
L 228.437278 192.497334 
L 228.72067 194.895822 
L 229.287456 201.834306 
L 229.570848 202.176947 
L 229.854241 204.232794 
L 230.137633 207.573546 
L 230.421026 209.201092 
L 230.704418 208.68713 
L 231.271204 210.657317 
L 231.554596 211.856561 
L 231.837989 212.541843 
L 232.121381 213.826748 
L 232.404774 216.053916 
L 232.688167 215.454294 
L 232.971559 215.454294 
L 233.254952 216.053916 
L 233.821737 214.42637 
L 234.10513 215.454294 
L 234.388522 212.884485 
L 234.671915 213.227126 
L 234.955307 215.197313 
L 235.2387 221.707495 
L 235.522092 223.763342 
L 235.805485 224.105984 
L 236.37227 227.532396 
L 237.222448 233.528616 
L 237.505841 233.271636 
L 237.789233 233.528616 
L 238.072626 232.158052 
L 238.356018 232.500693 
L 238.639411 234.6422 
L 238.922803 235.498803 
L 239.206196 235.670124 
L 239.489589 236.355406 
L 239.772981 235.241822 
L 240.056374 234.727861 
L 240.339766 234.55654 
L 240.623159 233.357296 
L 240.906552 233.014655 
L 241.473337 228.474659 
L 241.756729 231.044468 
L 242.040122 237.811631 
L 242.323514 239.867478 
L 242.606907 240.638421 
L 242.8903 239.953139 
L 243.457085 240.724081 
L 243.740477 242.951249 
L 244.02387 243.03691 
L 244.307263 240.29578 
L 244.874048 237.725971 
L 245.440833 236.441067 
L 245.724225 236.184086 
L 246.007618 236.612387 
L 246.291011 236.012765 
L 246.574403 235.755784 
L 247.141188 232.586353 
L 247.424581 231.55843 
L 248.274759 226.333151 
L 248.558151 227.960697 
L 248.841544 235.156162 
L 249.124937 237.897292 
L 249.408329 238.496914 
L 249.691722 236.869368 
L 249.975114 239.353517 
L 250.258507 237.640311 
L 250.541899 240.467101 
L 250.825292 236.441067 
L 251.108685 237.126349 
L 251.392077 236.869368 
L 251.67547 233.956918 
L 251.958862 220.07995 
L 252.242255 200.549402 
L 252.525648 201.491665 
L 252.80904 200.03544 
L 253.092433 201.063363 
L 253.375825 204.746756 
L 253.94261 208.258828 
L 254.509396 213.998068 
L 255.076181 218.452404 
L 255.642966 223.763342 
L 255.926359 227.532396 
L 256.209751 229.673903 
L 256.493144 230.016544 
L 256.776536 231.81541 
L 257.059929 232.329372 
L 257.343321 234.385219 
L 257.626714 234.813521 
L 257.910107 235.584464 
L 258.193499 237.640311 
L 258.476892 236.698047 
L 258.760284 237.29767 
L 259.043677 237.55465 
L 259.32707 238.925215 
L 259.610462 239.353517 
L 259.893855 238.411253 
L 260.177247 238.839555 
L 260.46064 237.46899 
L 260.744033 236.955028 
L 261.310818 234.727861 
L 261.59421 231.72975 
L 261.877603 229.930884 
L 262.160995 230.958807 
L 262.444388 238.068612 
L 263.011173 240.895402 
L 263.294566 241.238043 
L 263.577958 242.522948 
L 264.428136 249.204451 
L 264.711529 248.776149 
L 264.994921 247.748226 
L 265.561706 248.433508 
L 265.845099 248.262188 
L 266.128492 248.86181 
L 266.411884 247.662566 
L 266.695277 249.632752 
L 266.978669 249.975394 
L 267.828847 251.6886 
L 268.11224 250.746336 
L 268.395632 248.604829 
L 268.679025 243.893512 
L 268.962417 245.349738 
L 269.24581 254.001428 
L 269.529203 255.200672 
L 269.812595 257.085198 
L 270.095988 255.628973 
L 270.37938 255.714634 
L 270.662773 255.457653 
L 270.946166 257.59916 
L 271.229558 256.656897 
L 271.512951 253.230485 
L 272.079736 250.831997 
L 272.363128 251.85992 
L 272.646521 251.517279 
L 272.929914 251.6886 
L 273.213306 251.431619 
L 273.780091 252.373882 
L 274.063484 251.431619 
L 274.346877 251.174638 
L 274.630269 251.517279 
L 274.913662 250.831997 
L 275.480447 247.148604 
L 275.76384 249.889733 
L 276.047232 257.68482 
L 276.330625 258.370103 
L 276.614017 259.398026 
L 276.89741 259.226706 
L 277.180802 258.455763 
L 277.464195 253.830107 
L 278.03098 255.800294 
L 278.314373 255.115012 
L 278.597765 255.371992 
L 278.881158 253.144825 
L 279.164551 252.630863 
L 279.447943 253.401806 
L 280.014728 252.973504 
L 280.581513 253.830107 
L 280.864906 253.573126 
L 281.148299 252.630863 
L 281.431691 252.202561 
L 281.715084 252.716523 
L 281.998476 251.174638 
L 282.281869 250.660676 
L 282.565262 252.202561 
L 282.848654 259.740668 
L 283.132047 261.111232 
L 283.698832 262.139156 
L 283.982224 260.939912 
L 284.265617 260.42595 
L 284.54901 261.025572 
L 284.832402 260.083309 
L 285.115795 259.997649 
L 285.399187 258.798404 
L 285.68258 256.228595 
L 285.965973 255.371992 
L 286.81615 255.885954 
L 287.099543 255.885954 
L 287.666328 252.630863 
L 288.233113 251.174638 
L 288.516506 250.403695 
L 289.083291 246.548982 
L 289.366684 248.176527 
L 289.650076 255.543313 
L 290.216861 260.597271 
L 290.500254 261.625194 
L 290.783647 260.254629 
L 291.067039 260.939912 
L 291.350432 263.081419 
L 291.633824 262.910099 
L 291.917217 261.882175 
L 292.484002 258.627084 
L 292.767395 258.284443 
L 293.33418 258.712744 
L 293.617572 258.370103 
L 293.900965 258.455763 
L 294.184358 258.712744 
L 294.46775 258.370103 
L 294.751143 258.969725 
L 295.317928 258.541423 
L 295.60132 258.627084 
L 295.884713 257.170859 
L 296.168106 258.884065 
L 296.451498 263.509721 
L 296.734891 265.308587 
L 297.018283 265.308587 
L 297.301676 264.965946 
L 297.585069 264.965946 
L 297.868461 264.195003 
L 298.151854 265.479908 
L 298.435246 265.137266 
L 299.002031 259.826328 
L 299.285424 253.230485 
L 299.568817 240.638421 
L 299.852209 238.325593 
L 300.135602 233.528616 
L 300.418994 235.498803 
L 300.702387 235.156162 
L 302.11935 249.718413 
L 302.402743 250.232375 
L 302.686135 252.031241 
L 303.25292 253.573126 
L 303.536313 252.545203 
L 303.819705 254.344069 
L 304.103098 248.519169 
L 304.669883 244.493135 
L 304.953276 241.752005 
L 305.236668 246.12068 
L 305.520061 246.03502 
L 305.803454 245.778039 
L 306.653631 251.77426 
L 306.937024 251.345958 
L 307.220416 251.431619 
L 307.503809 253.573126 
L 307.787202 254.429729 
L 308.353987 254.515389 
L 308.637379 253.316145 
L 308.920772 253.230485 
L 310.054342 255.714634 
L 310.337735 256.913878 
L 310.621127 261.368213 
L 311.187913 258.969725 
L 311.471305 259.569347 
L 311.754698 258.370103 
L 312.03809 258.027462 
L 312.321483 257.085198 
L 312.604876 256.828218 
L 312.888268 256.742557 
L 313.171661 257.085198 
L 313.455053 256.913878 
L 314.021838 257.256519 
L 314.305231 256.999538 
L 314.588624 257.770481 
L 314.872016 258.113122 
L 315.155409 257.941801 
L 315.438801 257.085198 
L 315.722194 258.284443 
L 316.005587 257.856141 
L 316.288979 257.856141 
L 316.572372 258.541423 
L 316.855764 259.826328 
L 317.139157 260.168969 
L 317.42255 261.539534 
L 317.989335 261.111232 
L 318.272727 260.854252 
L 318.55612 260.768591 
L 318.839512 260.168969 
L 319.122905 259.997649 
L 319.406298 259.483687 
L 320.256475 259.398026 
L 320.539868 259.911988 
L 320.823261 259.997649 
L 321.106653 259.740668 
L 321.390046 260.254629 
L 321.673438 260.42595 
L 321.956831 259.997649 
L 322.240223 260.083309 
L 322.523616 259.826328 
L 322.807009 260.254629 
L 323.657186 262.910099 
L 323.940579 266.507831 
L 324.223972 266.593491 
L 324.507364 267.193114 
L 324.790757 266.764812 
L 325.074149 266.07953 
L 325.357542 266.07953 
L 325.924327 263.852362 
L 326.20772 262.824438 
L 326.774505 262.738778 
L 327.057897 264.109343 
L 327.34129 263.25274 
L 327.624683 263.938022 
L 328.191468 262.396137 
L 328.47486 263.595381 
L 328.758253 263.42406 
L 329.041646 264.708965 
L 329.325038 263.595381 
L 329.891823 259.826328 
L 330.175216 261.710855 
L 330.458608 267.193114 
L 330.742001 269.334621 
L 331.025394 269.505942 
L 331.308786 269.1633 
L 331.592179 269.248961 
L 332.158964 270.019903 
L 332.442357 269.07764 
L 333.292534 264.708965 
L 333.575927 264.623305 
L 333.859319 265.137266 
L 334.142712 264.280663 
L 334.426105 264.708965 
L 334.99289 264.880286 
L 335.276282 264.537644 
L 335.559675 265.222927 
L 335.843068 264.880286 
L 336.12646 264.195003 
L 336.409853 262.139156 
L 336.693245 262.053496 
L 336.976638 263.25274 
L 337.26003 257.085198 
L 337.543423 239.267856 
L 337.826816 238.839555 
L 338.110208 243.722192 
L 338.393601 258.284443 
L 338.676993 264.537644 
L 338.960386 264.708965 
L 339.243779 264.023683 
L 339.810564 263.681041 
L 343.211275 215.368633 
L 344.91163 242.522948 
L 345.478415 245.863699 
L 345.761808 248.433508 
L 346.328593 246.548982 
L 346.895378 247.833886 
L 347.178771 249.461432 
L 347.462164 249.718413 
L 347.745556 250.489355 
L 348.028949 252.288222 
L 348.312341 252.459542 
L 348.595734 253.230485 
L 348.879126 253.230485 
L 349.445912 255.286332 
L 349.729304 254.515389 
L 350.012697 253.316145 
L 350.296089 252.630863 
L 350.579482 253.487466 
L 351.146267 261.368213 
L 351.996445 262.567457 
L 352.56323 261.625194 
L 353.130015 259.312366 
L 353.413408 260.597271 
L 353.6968 260.083309 
L 353.980193 259.312366 
L 354.263586 259.655007 
L 354.546978 260.254629 
L 354.830371 260.42595 
L 355.113763 260.083309 
L 355.963941 260.939912 
L 356.247334 260.939912 
L 356.530726 260.34029 
L 356.814119 258.370103 
L 357.097511 255.543313 
L 357.380904 256.742557 
L 357.664297 266.850472 
L 357.947689 268.563678 
L 358.231082 267.621415 
L 358.514474 267.450094 
L 358.797867 264.195003 
L 359.08126 266.936133 
L 359.364652 267.021793 
L 359.648045 265.822549 
L 359.931437 263.681041 
L 360.498222 261.882175 
L 360.781615 262.224816 
L 361.065008 261.625194 
L 361.3484 262.567457 
L 361.915185 262.224816 
L 362.198578 262.567457 
L 362.765363 262.224816 
L 363.048756 261.710855 
L 363.332148 262.224816 
L 363.898933 257.42784 
L 364.182326 258.884065 
L 364.465719 265.993869 
L 364.749111 268.306697 
L 365.032504 267.792736 
L 365.315896 266.422171 
L 365.599289 268.90632 
L 366.166074 268.049717 
L 366.449467 265.908209 
L 366.732859 265.565568 
L 367.016252 263.509721 
L 367.299644 262.396137 
L 367.583037 262.653118 
L 367.86643 263.25274 
L 368.149822 263.25274 
L 368.433215 263.42406 
L 369 264.109343 
L 369.566785 263.766702 
L 369.850178 263.938022 
L 370.13357 263.081419 
L 370.416963 261.710855 
L 370.700356 259.312366 
L 370.983748 261.111232 
L 371.267141 264.965946 
L 371.833926 269.505942 
L 372.117318 269.505942 
L 374.384459 262.310477 
L 374.667852 262.310477 
L 374.951244 262.567457 
L 375.234637 262.995759 
L 375.518029 262.567457 
L 375.801422 262.396137 
L 376.084815 263.081419 
L 376.368207 260.083309 
L 376.6516 252.802183 
L 376.934992 249.632752 
L 377.218385 248.690489 
L 377.501778 246.977283 
L 377.78517 248.690489 
L 378.068563 254.344069 
L 378.351955 255.714634 
L 378.635348 258.541423 
L 378.91874 262.910099 
L 379.202133 263.938022 
L 379.485526 263.766702 
L 379.768918 263.766702 
L 380.052311 263.16708 
L 380.335703 264.195003 
L 380.619096 264.109343 
L 380.902489 262.995759 
L 381.185881 262.738778 
L 381.469274 263.595381 
L 381.752666 264.965946 
L 382.036059 264.366324 
L 382.319451 264.965946 
L 382.602844 264.366324 
L 382.886237 264.537644 
L 383.169629 263.938022 
L 383.453022 261.796515 
L 383.736414 263.766702 
L 384.019807 263.509721 
L 384.3032 263.509721 
L 384.586592 265.822549 
L 384.869985 270.105564 
L 385.153377 270.019903 
L 385.720163 269.334621 
L 386.003555 267.621415 
L 386.286948 267.621415 
L 386.57034 269.1633 
L 386.853733 268.135377 
L 387.137125 266.593491 
L 387.420518 265.822549 
L 387.703911 264.708965 
L 387.987303 265.651228 
L 388.270696 265.736889 
L 388.554088 264.623305 
L 388.837481 264.708965 
L 389.687659 266.593491 
L 389.971051 265.736889 
L 390.254444 266.593491 
L 390.537836 266.422171 
L 391.104622 261.710855 
L 391.388014 264.366324 
L 391.671407 273.874617 
L 391.954799 274.81688 
L 392.238192 273.360655 
L 392.521585 270.705186 
L 392.804977 269.934243 
L 393.08837 269.505942 
L 393.938547 267.193114 
L 394.22194 266.593491 
L 394.505333 266.422171 
L 394.788725 265.479908 
L 395.072118 265.308587 
L 395.35551 265.479908 
L 395.638903 265.822549 
L 395.922296 264.965946 
L 396.205688 264.880286 
L 396.489081 264.451984 
L 396.772473 264.708965 
L 397.055866 263.766702 
L 397.339259 264.366324 
L 397.622651 263.25274 
L 397.906044 262.824438 
L 398.472829 266.593491 
L 398.756221 266.336511 
L 399.039614 266.422171 
L 399.323007 270.876506 
L 399.606399 272.504052 
L 399.889792 272.675373 
L 400.173184 271.133487 
L 400.456577 271.90443 
L 400.73997 268.563678 
L 401.023362 267.021793 
L 401.306755 266.593491 
L 401.590147 266.850472 
L 402.156932 266.16519 
L 402.440325 266.679152 
L 402.723718 266.593491 
L 403.00711 266.07953 
L 403.290503 266.07953 
L 403.573895 266.936133 
L 403.857288 266.507831 
L 404.140681 266.507831 
L 404.424073 265.137266 
L 404.707466 263.081419 
L 404.990858 266.422171 
L 405.274251 273.788957 
L 405.557643 273.874617 
L 405.841036 276.872727 
L 406.124429 275.759143 
L 406.407821 272.761033 
L 406.691214 274.302918 
L 406.974606 273.018014 
L 407.257999 270.790846 
L 407.824784 268.306697 
L 408.674962 267.193114 
L 408.958354 267.450094 
L 409.241747 267.107453 
L 409.52514 267.278774 
L 409.808532 267.193114 
L 410.091925 267.450094 
L 410.375317 267.193114 
L 410.942103 267.107453 
L 411.508888 264.023683 
L 411.79228 266.336511 
L 412.359066 274.559899 
L 413.209243 273.103674 
L 413.492636 272.161411 
L 413.776028 271.90443 
L 414.059421 273.446315 
L 414.342814 271.133487 
L 414.626206 271.99009 
L 414.909599 271.133487 
L 415.192991 271.733109 
L 415.476384 271.133487 
L 415.759777 271.647449 
L 416.043169 271.047827 
L 416.326562 270.105564 
L 416.609954 269.848583 
L 416.893347 269.848583 
L 417.176739 269.248961 
L 417.460132 269.848583 
L 417.743525 269.420281 
L 418.026917 268.049717 
L 418.31031 264.623305 
L 418.593702 267.278774 
L 418.877095 271.81877 
L 419.160488 272.504052 
L 419.44388 273.960277 
L 419.727273 272.932354 
L 420.010665 272.846693 
L 420.294058 271.561789 
L 420.860843 270.448205 
L 421.144236 272.846693 
L 421.711021 270.619526 
L 421.994413 269.591602 
L 422.277806 269.420281 
L 422.561199 269.677262 
L 422.844591 269.420281 
L 423.127984 269.591602 
L 423.411376 267.964056 
L 423.694769 269.677262 
L 424.261554 268.563678 
L 424.544947 268.306697 
L 425.111732 263.681041 
L 425.395124 265.822549 
L 425.678517 271.733109 
L 425.96191 273.018014 
L 426.245302 273.274995 
L 426.528695 272.846693 
L 426.812087 271.476128 
L 427.09548 270.790846 
L 427.378873 269.505942 
L 427.662265 270.705186 
L 427.945658 268.90632 
L 428.22905 268.90632 
L 428.512443 266.422171 
L 428.795835 267.707075 
L 429.079228 268.221037 
L 429.362621 268.392358 
L 430.212798 267.450094 
L 430.779584 267.278774 
L 431.346369 265.822549 
L 431.913154 265.822549 
L 432.196546 265.222927 
L 432.479939 266.25085 
L 433.046724 267.107453 
L 433.330117 267.535755 
L 433.896902 266.936133 
L 434.180295 267.450094 
L 434.463687 266.593491 
L 434.74708 267.193114 
L 435.030472 266.593491 
L 435.313865 266.679152 
L 435.597257 266.25085 
L 435.88065 266.850472 
L 436.164043 265.908209 
L 436.447435 265.565568 
L 436.730828 265.822549 
L 437.581006 265.908209 
L 438.147791 266.507831 
L 438.431183 265.394247 
L 438.714576 265.222927 
L 438.997969 265.565568 
L 439.281361 267.535755 
L 439.564754 268.221037 
L 439.848146 265.736889 
L 440.131539 264.623305 
L 440.414931 262.481797 
L 440.698324 263.081419 
L 440.981717 264.537644 
L 441.265109 264.794625 
L 441.548502 264.280663 
L 441.831894 264.280663 
L 442.115287 263.852362 
L 442.39868 263.081419 
L 442.682072 262.995759 
L 442.965465 263.16708 
L 443.53225 263.681041 
L 443.815642 263.081419 
L 444.099035 263.509721 
L 444.66582 262.139156 
L 444.949213 262.310477 
L 445.232605 262.139156 
L 446.082783 263.595381 
L 446.366176 265.222927 
L 446.649568 263.509721 
L 446.932961 262.824438 
L 447.216353 262.910099 
L 448.066531 260.597271 
L 448.349924 260.254629 
L 448.633316 259.141046 
L 448.916709 252.459542 
L 449.766887 239.953139 
L 450.333672 198.579215 
L 450.617064 193.011295 
L 451.18385 174.33735 
L 451.467242 170.568297 
L 451.750635 170.825278 
L 452.31742 181.275835 
L 453.45099 205.175058 
L 454.017776 214.34071 
L 454.867953 222.649759 
L 455.434738 226.418812 
L 456.001524 229.159941 
L 456.568309 232.243712 
L 457.135094 234.213899 
L 458.835449 238.582574 
L 459.402235 239.953139 
L 459.96902 242.608608 
L 460.252412 242.351627 
L 460.535805 243.979173 
L 460.819198 244.321814 
L 461.10259 244.407474 
L 461.385983 245.007096 
L 461.669375 244.236154 
L 461.952768 243.893512 
L 462.23616 243.03691 
L 462.519553 243.20823 
L 462.802946 243.03691 
L 463.086338 244.407474 
L 463.369731 244.407474 
L 463.653123 244.150493 
L 464.219909 244.664455 
L 464.503301 244.150493 
L 464.786694 243.979173 
L 465.070086 244.236154 
L 465.353479 243.29389 
L 465.920264 243.722192 
L 466.203657 245.692379 
L 466.487049 250.831997 
L 466.770442 252.716523 
L 467.053834 251.345958 
L 467.337227 251.088978 
L 467.62062 250.660676 
L 467.904012 251.945581 
L 468.470797 248.604829 
L 468.75419 246.805963 
L 469.320975 245.264077 
L 469.604368 245.863699 
L 469.88776 245.606718 
L 470.171153 246.206341 
L 471.304723 246.292001 
L 471.588116 245.606718 
L 471.871508 245.863699 
L 472.154901 245.692379 
L 472.438294 244.921436 
L 472.721686 242.951249 
L 473.005079 243.807852 
L 473.288471 252.116901 
L 473.571864 250.746336 
L 473.855256 251.260298 
L 474.138649 252.630863 
L 474.422042 252.116901 
L 474.705434 252.545203 
L 474.988827 249.889733 
L 475.272219 250.489355 
L 475.555612 248.176527 
L 476.122397 246.634642 
L 476.40579 246.463321 
L 477.255967 247.576905 
L 477.53936 247.234264 
L 477.822753 247.662566 
L 478.106145 247.148604 
L 478.389538 246.891623 
L 478.67293 247.662566 
L 478.956323 246.463321 
L 479.239716 245.863699 
L 479.523108 243.29389 
L 479.806501 246.12068 
L 480.089893 255.286332 
L 480.656679 256.999538 
L 480.940071 254.344069 
L 481.223464 254.344069 
L 481.506856 255.628973 
L 481.790249 252.716523 
L 482.073641 252.887844 
L 482.640427 249.375772 
L 482.923819 248.776149 
L 483.207212 248.94747 
L 483.490604 248.94747 
L 483.773997 248.690489 
L 484.05739 248.94747 
L 484.340782 248.262188 
L 484.624175 248.776149 
L 484.907567 248.347848 
L 485.19096 248.347848 
L 485.474352 249.03313 
L 485.757745 250.318035 
L 486.041138 248.776149 
L 486.32453 245.778039 
L 486.607923 247.576905 
L 486.891315 255.543313 
L 487.174708 258.627084 
L 487.458101 257.770481 
L 487.741493 257.59916 
L 488.024886 257.170859 
L 488.308278 257.941801 
L 488.591671 255.714634 
L 488.875063 254.943691 
L 489.441849 250.660676 
L 489.725241 250.318035 
L 490.008634 249.290111 
L 490.292026 247.662566 
L 490.575419 249.804073 
L 490.858812 250.489355 
L 491.142204 249.975394 
L 491.425597 251.088978 
L 491.708989 251.003317 
L 491.992382 250.403695 
L 492.275775 250.917657 
L 492.559167 250.575016 
L 492.84256 248.94747 
L 493.125952 245.264077 
L 493.692737 253.487466 
L 493.97613 252.373882 
L 494.259523 254.001428 
L 494.542915 256.314256 
L 494.826308 253.573126 
L 495.1097 253.744447 
L 495.393093 252.373882 
L 495.676486 254.172748 
L 496.243271 249.718413 
L 496.526663 249.547092 
L 496.810056 250.146714 
L 497.093448 249.975394 
L 497.376841 249.547092 
L 497.943626 249.804073 
L 498.510411 250.489355 
L 498.793804 249.204451 
L 499.643982 242.779929 
L 499.927374 241.752005 
L 500.210767 241.495024 
L 500.494159 241.666345 
L 500.777552 242.694268 
L 501.060945 239.353517 
L 501.344337 234.6422 
L 501.911122 215.711274 
L 502.194515 198.065253 
L 502.7613 142.300399 
L 503.044693 132.363804 
L 503.328085 132.363804 
L 503.611478 136.646819 
L 504.178263 152.579635 
L 504.745048 169.540374 
L 505.595226 188.55696 
L 506.162011 196.951669 
L 506.728796 201.748646 
L 507.578974 218.366744 
L 508.145759 219.651648 
L 508.429152 218.281083 
L 508.712544 219.737308 
L 508.995937 218.709385 
L 509.27933 218.366744 
L 509.562722 219.737308 
L 509.846115 218.623725 
L 510.129507 218.195423 
L 510.4129 217.25316 
L 510.696293 217.938442 
L 510.979685 219.394667 
L 511.263078 219.822969 
L 511.54647 219.565988 
L 511.829863 219.737308 
L 512.113255 219.565988 
L 512.680041 220.850892 
L 512.963433 221.964476 
L 513.246826 222.135797 
L 513.530218 220.936553 
L 513.813611 222.821079 
L 514.097004 226.161831 
L 514.380396 227.361075 
L 514.663789 225.733529 
L 515.230574 225.219567 
L 515.513966 225.133907 
L 515.797359 224.876926 
L 516.080752 224.876926 
L 516.364144 223.16372 
L 524.299137 224.448625 
L 524.582529 225.305228 
L 524.865922 224.962587 
L 525.149314 226.333151 
L 525.432707 227.018434 
L 526.282885 224.876926 
L 526.566277 225.476548 
L 526.84967 222.9924 
L 527.133062 223.16372 
L 527.416455 225.90485 
L 527.699848 229.759563 
L 527.98324 229.845224 
L 528.266633 231.215788 
L 528.550025 231.215788 
L 529.116811 230.102204 
L 529.400203 227.875037 
L 529.966988 227.018434 
L 530.250381 227.275415 
L 530.533773 227.789376 
L 530.817166 227.189754 
L 531.100559 225.647869 
L 531.383951 227.018434 
L 531.667344 226.333151 
L 532.234129 228.90296 
L 532.517522 228.988621 
L 533.084307 226.761453 
L 533.367699 226.675793 
L 533.651092 226.07617 
L 533.934485 226.161831 
L 534.217877 226.675793 
L 534.50127 226.675793 
L 534.784662 227.189754 
L 535.068055 228.132018 
L 535.351447 228.132018 
L 535.918233 227.189754 
L 536.201625 227.018434 
L 536.76841 226.161831 
L 537.051803 226.07617 
L 537.335196 225.647869 
L 537.618588 226.333151 
L 537.901981 226.418812 
L 538.185373 225.99051 
L 539.035551 227.532396 
L 539.318944 226.847113 
L 539.602336 227.275415 
L 539.885729 227.018434 
L 540.169121 227.532396 
L 540.452514 227.018434 
L 540.735907 226.932773 
L 541.019299 227.703716 
L 541.302692 228.988621 
L 541.869477 234.6422 
L 542.436262 232.843334 
L 542.719655 230.187865 
L 543.003047 230.530506 
L 543.28644 232.329372 
L 543.853225 230.958807 
L 544.136618 231.044468 
L 544.42001 231.72975 
L 544.703403 231.215788 
L 544.986795 230.958807 
L 545.270188 231.301449 
L 545.55358 231.130128 
L 545.836973 232.329372 
L 546.120366 232.243712 
L 546.403758 232.329372 
L 546.687151 231.130128 
L 546.970543 231.215788 
L 547.253936 230.444846 
L 547.537329 230.359185 
L 548.104114 232.415033 
L 548.670899 233.956918 
L 548.954292 233.785597 
L 549.237684 234.727861 
L 549.521077 234.55654 
L 549.804469 234.727861 
L 550.087862 235.156162 
L 550.371254 235.927105 
L 550.93804 232.586353 
L 551.221432 233.785597 
L 551.504825 234.042578 
L 551.788217 233.956918 
L 552.07161 234.55654 
L 552.355003 234.55654 
L 552.638395 234.128239 
L 552.921788 234.128239 
L 553.20518 234.385219 
L 554.055358 234.727861 
L 554.338751 234.47088 
L 554.622143 234.813521 
L 555.188928 236.012765 
L 555.472321 235.841444 
L 555.755714 237.982952 
L 556.322499 232.415033 
L 556.605891 231.472769 
L 556.889284 231.986731 
L 557.172676 232.158052 
L 557.456069 233.528616 
L 557.739462 233.785597 
L 558.022854 233.785597 
L 558.306247 233.528616 
L 558.589639 233.528616 
L 559.156425 230.958807 
L 559.439817 230.616166 
L 559.72321 229.673903 
L 560.006602 226.847113 
L 560.289995 221.793156 
L 560.85678 217.938442 
L 561.140173 216.482217 
L 561.423565 214.42637 
L 561.706958 213.312786 
L 562.273743 205.089397 
L 563.407313 186.929414 
L 564.257491 190.869788 
L 564.540884 192.668654 
L 565.674454 203.461852 
L 566.241239 205.86034 
L 566.524632 206.202981 
L 567.091417 206.117321 
L 567.37481 206.545623 
L 567.658202 205.77468 
L 567.941595 204.489775 
L 568.224987 207.487886 
L 568.50838 212.284862 
L 568.791772 210.400336 
L 569.075165 211.342599 
L 569.358558 210.314676 
L 570.492128 216.310896 
L 570.775521 216.739198 
L 571.058913 217.510141 
L 571.342306 217.42448 
L 571.625698 218.366744 
L 571.909091 218.623725 
L 572.192483 218.538064 
L 572.475876 219.223347 
L 572.759269 219.565988 
L 573.042661 219.565988 
L 573.326054 218.623725 
L 573.892839 215.882595 
L 574.176232 216.653538 
L 574.459624 215.539954 
L 574.743017 215.368633 
L 575.026409 215.625614 
L 575.309802 216.396557 
L 575.593195 215.539954 
L 575.876587 217.510141 
L 576.15998 217.852782 
L 576.443372 219.565988 
L 576.726765 219.651648 
L 577.29355 221.793156 
L 577.576943 222.050136 
L 578.42712 224.619945 
L 578.710513 225.647869 
L 578.993906 226.07617 
L 579.277298 225.647869 
L 580.410868 228.217678 
L 580.977654 228.046357 
L 581.261046 228.645979 
L 581.544439 228.560319 
L 581.827831 229.159941 
L 582.111224 230.359185 
L 582.678009 231.81541 
L 582.961402 231.64409 
L 583.244794 232.243712 
L 583.528187 232.329372 
L 583.811579 232.072391 
L 584.094972 232.072391 
L 584.378365 230.359185 
L 584.661757 230.787487 
L 584.94515 230.616166 
L 585.228542 233.100315 
L 585.511935 233.442956 
L 585.795328 233.014655 
L 586.07872 234.128239 
L 586.645505 231.55843 
L 586.928898 228.388999 
L 587.495683 233.271636 
L 587.779076 234.042578 
L 588.062468 233.271636 
L 588.345861 231.472769 
L 588.629253 234.47088 
L 588.912646 240.552761 
L 589.196039 240.29578 
L 589.479431 240.981062 
L 589.762824 239.953139 
L 590.046216 238.239933 
L 590.329609 239.353517 
L 590.613002 239.267856 
L 590.896394 241.580684 
L 591.179787 242.180307 
L 591.463179 239.610498 
L 591.746572 241.752005 
L 592.029964 242.351627 
L 592.59675 244.493135 
L 592.880142 241.923326 
L 593.163535 241.837665 
L 593.446927 239.610498 
L 593.73032 240.124459 
L 594.013713 238.411253 
L 594.297105 237.55465 
L 594.580498 240.38144 
L 594.86389 240.724081 
L 595.147283 240.124459 
L 595.430675 239.953139 
L 596.280853 237.982952 
L 596.564246 237.126349 
L 597.414424 229.845224 
L 597.697816 226.761453 
L 598.264601 210.229015 
L 598.547994 209.201092 
L 598.831386 209.029771 
L 599.114779 205.77468 
L 599.398172 198.836196 
L 599.681564 197.636952 
L 600.815135 202.519588 
L 601.38192 205.86034 
L 601.665312 207.744867 
L 601.948705 208.68713 
L 602.232098 208.77279 
L 602.51549 209.029771 
L 602.798883 209.972034 
L 603.082275 210.314676 
L 603.365668 209.115431 
L 603.64906 209.029771 
L 603.932453 206.973924 
L 604.215846 203.119211 
L 604.499238 202.005627 
L 604.782631 204.147134 
L 605.349416 205.86034 
L 605.632809 204.832417 
L 605.916201 204.661096 
L 606.199594 204.918077 
L 606.482986 205.346378 
L 606.766379 206.288642 
L 607.616557 210.400336 
L 607.899949 210.914298 
L 608.466734 213.998068 
L 608.750127 212.627504 
L 609.03352 215.711274 
L 609.316912 215.539954 
L 609.600305 215.968255 
L 609.883697 219.052026 
L 610.16709 217.681461 
L 610.450482 217.510141 
L 610.733875 217.767122 
L 611.30066 216.482217 
L 611.584053 214.255049 
L 611.867445 213.912408 
L 612.434231 213.998068 
L 612.717623 214.51203 
L 613.001016 214.683351 
L 613.284408 214.083729 
L 613.567801 213.998068 
L 613.851193 214.083729 
L 614.417979 214.683351 
L 614.701371 215.111652 
L 614.984764 216.053916 
L 615.268156 214.51203 
L 615.551549 215.111652 
L 615.834942 216.996179 
L 616.118334 217.681461 
L 616.401727 219.052026 
L 616.968512 223.677682 
L 617.251905 223.763342 
L 617.81869 219.565988 
L 618.102082 220.593911 
L 618.385475 222.564098 
L 618.668867 221.707495 
L 618.95226 221.279194 
L 619.235653 222.478438 
L 619.519045 221.707495 
L 619.802438 221.964476 
L 620.08583 221.279194 
L 620.369223 222.906739 
L 620.652616 222.307117 
L 620.936008 222.906739 
L 621.219401 223.16372 
L 621.502793 222.392778 
L 621.786186 223.763342 
L 622.069578 224.448625 
L 622.636364 220.336931 
L 622.636364 220.336931 
" clip-path="url(#p0a590ecc13)" style="fill: none; stroke: #1f77b4; stroke-width: 1.5; stroke-linecap: square"/>
   </g>
   <g id="line2d_11">
    <path d="M 115.363636 240.11786 
L 115.930422 240.671836 
L 116.213814 242.608608 
L 119.614525 245.67349 
L 119.897918 244.946967 
L 120.464703 241.751542 
L 120.748095 240.972848 
L 121.031488 240.962664 
L 121.598273 241.40506 
L 122.731844 242.457839 
L 123.015236 238.582574 
L 126.415947 241.917664 
L 128.399695 243.829182 
L 128.683088 240.307754 
L 129.533266 220.99337 
L 129.816658 138.531346 
L 130.100051 139.159019 
L 131.233621 143.318065 
L 132.933977 149.664639 
L 133.217369 149.716404 
L 133.784154 148.066919 
L 134.067547 147.927058 
L 134.634332 148.659251 
L 135.201117 150.092675 
L 136.334688 154.002961 
L 136.61808 214.255049 
L 139.735399 219.404082 
L 142.852717 224.114176 
L 143.13611 224.521849 
L 143.419502 229.074281 
L 146.536821 233.067301 
L 148.520569 235.615347 
L 148.803961 234.100903 
L 149.370747 224.823116 
L 149.654139 215.333978 
L 149.937532 201.694786 
L 150.220924 207.744867 
L 150.504317 206.92751 
L 150.787709 190.480471 
L 151.637887 99.406124 
L 151.92128 92.216568 
L 152.204672 90.548065 
L 152.488065 90.787003 
L 153.05485 93.08854 
L 153.905028 96.893732 
L 154.188421 96.452526 
L 154.471813 96.44708 
L 154.755206 95.518677 
L 155.888776 86.41867 
L 156.172169 85.798223 
L 156.455561 86.237633 
L 156.738954 87.305773 
L 157.022346 199.264497 
L 161.273235 208.041039 
L 163.540376 212.316765 
L 163.823768 224.534285 
L 166.941087 228.919627 
L 167.791265 230.12385 
L 168.074657 228.990819 
L 168.35805 219.874913 
L 168.924835 191.310091 
L 169.208228 183.632469 
L 169.49162 180.800259 
L 169.775013 180.101415 
L 170.058405 180.353992 
L 170.341798 180.910117 
L 170.62519 147.183036 
L 174.309294 159.986149 
L 177.14322 168.998235 
L 177.426612 213.141465 
L 180.543931 218.511763 
L 183.661249 223.419241 
L 183.944642 223.843786 
L 184.228035 228.645979 
L 187.345353 232.676205 
L 190.462671 236.356155 
L 190.746064 236.674374 
L 191.029457 238.411253 
L 194.430168 241.866327 
L 197.547486 244.744548 
L 197.830879 244.407474 
L 201.23159 247.292854 
L 204.348908 249.695722 
L 204.632301 248.94747 
L 208.316404 251.593749 
L 211.433723 253.651141 
L 211.717115 253.674008 
L 212.000508 253.880507 
L 212.2839 246.010928 
L 212.567293 234.056615 
L 212.850686 213.628554 
L 213.417471 163.435745 
L 213.700863 153.962751 
L 213.984256 152.053415 
L 214.267649 152.100477 
L 214.834434 153.705832 
L 219.085322 167.624274 
L 221.919248 176.053622 
L 224.753174 183.836795 
L 227.5871 191.020466 
L 230.421026 197.648374 
L 233.254952 203.761438 
L 236.37227 209.93671 
L 238.356018 213.587924 
L 238.639411 232.500693 
L 241.756729 236.195913 
L 244.874048 239.569302 
L 245.15744 239.860981 
L 245.440833 237.040689 
L 248.558151 240.340398 
L 250.541899 242.390565 
L 251.108685 241.522946 
L 251.392077 234.697765 
L 251.958862 214.104455 
L 252.242255 220.07995 
L 252.525648 218.614088 
L 252.80904 218.43874 
L 253.375825 219.079571 
L 258.760284 227.17426 
L 259.043677 237.29767 
L 262.444388 240.752469 
L 265.845099 243.8862 
L 269.24581 246.728705 
L 272.929914 249.510774 
L 276.614017 252.013874 
L 280.581513 254.42956 
L 284.54901 256.585424 
L 287.382936 257.981856 
L 287.666328 254.344069 
L 291.633824 256.496628 
L 292.767395 257.068238 
L 293.050787 258.284443 
L 297.018283 260.041398 
L 297.301676 260.084145 
L 297.585069 260.478462 
L 297.868461 258.445962 
L 298.718639 240.207368 
L 299.002031 237.713847 
L 299.285424 237.000973 
L 299.568817 237.037968 
L 300.418994 237.856776 
L 303.819705 241.258907 
L 307.220416 244.345573 
L 310.621127 247.145387 
L 314.305231 249.885674 
L 317.989335 252.351181 
L 321.956831 254.730588 
L 325.924327 256.854074 
L 330.175216 258.876459 
L 334.709497 260.778484 
L 339.527171 262.545913 
L 339.810564 262.642469 
L 343.211275 228.560319 
L 343.494667 224.41925 
L 343.77806 223.055189 
L 344.061453 222.833196 
L 344.344845 223.040457 
L 345.478415 224.618153 
L 348.595734 228.996401 
L 350.579482 231.583591 
L 350.862875 255.286332 
L 354.830371 257.423398 
L 356.247334 258.127804 
L 356.530726 260.939912 
L 361.065008 262.65113 
L 363.048756 263.330291 
L 363.332148 264.537644 
L 368.716607 266.012657 
L 369.850178 266.29419 
L 370.13357 264.537644 
L 375.518029 266.012657 
L 376.6516 266.29419 
L 376.934992 264.023683 
L 378.068563 264.403093 
L 378.351955 264.139328 
L 378.635348 263.095254 
L 379.485526 254.978629 
L 379.768918 254.002404 
L 380.052311 251.790592 
L 380.619096 244.805573 
L 380.902489 242.497483 
L 381.185881 241.20645 
L 381.469274 240.864154 
L 381.752666 240.848192 
L 382.319451 241.267577 
L 383.453022 242.345585 
L 383.736414 264.023683 
L 388.837481 265.49913 
L 390.254444 265.870786 
L 390.537836 267.107453 
L 395.35551 268.189714 
L 396.205688 266.129326 
L 396.489081 265.911673 
L 397.055866 265.918341 
L 397.339259 264.537644 
L 402.723718 266.012657 
L 403.857288 266.29419 
L 404.140681 264.537644 
L 409.52514 266.012657 
L 411.79228 266.566378 
L 412.075673 267.878396 
L 417.743525 268.905693 
L 418.026917 270.448205 
L 426.245302 271.325185 
L 431.062976 271.747639 
L 431.346369 267.364434 
L 433.613509 267.848128 
L 433.896902 267.724063 
L 434.463687 266.877278 
L 435.313865 264.80023 
L 435.597257 264.614216 
L 436.164043 264.597353 
L 437.864398 265.058848 
L 438.147791 265.822549 
L 439.281361 266.104485 
L 439.564754 266.04182 
L 439.848146 265.22624 
L 440.414931 262.157989 
L 440.981717 260.18993 
L 441.265109 259.507741 
L 441.548502 259.263091 
L 442.115287 259.387586 
L 444.099035 260.086575 
L 444.382428 259.280113 
L 444.66582 257.053365 
L 445.232605 251.157083 
L 445.515998 249.739171 
L 445.799391 249.358661 
L 446.082783 249.411721 
L 446.366176 261.967835 
L 447.499746 262.347946 
L 447.783139 263.766702 
L 448.633316 264.127841 
L 448.916709 263.327817 
L 449.483494 256.133973 
L 449.766887 254.467954 
L 450.333672 252.871646 
L 450.617064 250.105984 
L 451.18385 235.635307 
L 451.467242 228.195343 
L 451.750635 187.186395 
L 452.034027 183.57788 
L 452.31742 181.523104 
L 452.600813 180.859272 
L 452.884205 180.982914 
L 453.45099 182.006235 
L 454.017776 182.649495 
L 454.867953 184.611823 
L 458.552057 193.744469 
L 461.385983 200.161022 
L 464.219909 206.078388 
L 465.070086 207.761882 
L 465.353479 244.236154 
L 468.75419 247.137837 
L 471.871508 249.554304 
L 472.154901 246.548982 
L 475.555612 249.230437 
L 478.67293 251.463225 
L 478.956323 246.548982 
L 482.357034 249.230437 
L 485.474352 251.463225 
L 485.757745 248.604829 
L 489.441849 251.286377 
L 492.275775 253.159644 
L 492.559167 251.431619 
L 496.243271 253.821999 
L 499.077197 255.492233 
L 499.360589 250.403695 
L 500.210767 251.018254 
L 500.494159 251.068919 
L 501.060945 250.162269 
L 501.344337 250.131585 
L 501.62773 249.964115 
L 501.911122 247.94945 
L 502.477908 236.15037 
L 503.044693 226.39796 
L 503.328085 223.352336 
L 504.178263 207.040258 
L 504.461656 205.168991 
L 504.745048 204.768872 
L 505.028441 205.006959 
L 505.878619 206.545414 
L 506.162011 181.018854 
L 508.995937 188.314673 
L 511.829863 195.041077 
L 512.680041 196.954656 
L 512.963433 220.336931 
L 513.530218 221.060472 
L 516.364144 225.199409 
L 526.282885 235.808629 
L 529.683596 239.380802 
L 533.084307 242.622955 
L 533.367699 228.560319 
L 536.485018 232.478088 
L 536.76841 232.655059 
L 537.051803 232.366007 
L 537.335196 231.843081 
L 537.618588 231.575875 
L 537.901981 231.681459 
L 539.035551 232.961623 
L 539.885729 233.955402 
L 540.169121 227.018434 
L 543.28644 231.053358 
L 546.403758 234.745213 
L 546.687151 235.064853 
L 546.970543 232.415033 
L 550.087862 235.991597 
L 550.93804 236.839765 
L 551.221432 236.802269 
L 551.504825 236.387581 
L 552.07161 234.453258 
L 552.638395 231.819274 
L 553.20518 227.856492 
L 553.488573 226.871186 
L 553.771965 234.213899 
L 554.338751 234.690218 
L 555.188928 235.484997 
L 555.472321 235.083555 
L 555.755714 233.314392 
L 556.322499 227.718442 
L 556.605891 226.692125 
L 556.889284 226.708292 
L 557.456069 227.345461 
L 557.739462 227.796785 
L 558.022854 227.600974 
L 558.306247 226.572031 
L 558.589639 223.243116 
L 559.72321 194.077278 
L 560.006602 193.491467 
L 560.289995 193.835934 
L 560.573388 229.588243 
L 561.140173 219.868497 
L 561.423565 212.027291 
L 561.99035 179.97566 
L 562.557136 148.176274 
L 563.407313 116.188677 
L 563.974099 88.583543 
L 564.257491 80.065896 
L 564.540884 76.545896 
L 564.824276 76.342617 
L 565.391061 78.956957 
L 567.091417 88.18062 
L 567.37481 206.202981 
L 570.492128 212.008375 
L 571.342306 213.375118 
L 571.625698 213.009643 
L 572.192483 209.623301 
L 572.475876 208.006465 
L 572.759269 207.291219 
L 573.042661 207.345709 
L 573.609446 208.268143 
L 573.892839 208.78919 
L 574.176232 219.052026 
L 574.459624 219.418002 
L 574.743017 219.96882 
L 575.026409 219.864579 
L 575.309802 219.10727 
L 575.593195 218.754102 
L 575.876587 218.821067 
L 576.443372 219.447527 
L 580.694261 225.882484 
L 580.977654 226.761453 
L 584.094972 230.955193 
L 587.212291 234.784817 
L 587.495683 235.115996 
L 587.779076 229.074281 
L 590.896394 233.06732 
L 594.013713 236.713234 
L 594.297105 237.028507 
L 594.580498 239.867478 
L 594.86389 239.535024 
L 595.147283 237.70108 
L 595.714068 229.971652 
L 596.280853 222.178598 
L 596.564246 219.555951 
L 596.847638 218.363375 
L 597.131031 217.81865 
L 597.414424 217.621418 
L 597.697816 213.290984 
L 598.831386 179.019325 
L 599.114779 177.278774 
L 599.398172 177.07152 
L 599.964957 178.21185 
L 601.098527 181.274541 
L 601.38192 199.778459 
L 601.665312 200.779336 
L 601.948705 200.400011 
L 602.51549 198.295344 
L 602.798883 197.243307 
L 603.082275 195.529322 
L 603.64906 186.689847 
L 603.932453 184.578931 
L 604.215846 183.776077 
L 604.499238 183.986832 
L 605.066023 185.200697 
L 607.899949 192.246237 
L 608.183342 209.029771 
L 610.16709 212.638928 
L 610.450482 212.98854 
L 610.733875 212.666542 
L 611.017268 210.725084 
L 611.30066 205.265827 
L 611.867445 188.809422 
L 612.150838 184.444885 
L 612.434231 183.076886 
L 612.717623 183.109666 
L 613.284408 184.363981 
L 614.701371 187.921211 
L 614.984764 214.169389 
L 618.385475 219.901153 
L 621.502793 224.68866 
L 621.786186 223.677682 
L 622.636364 224.934619 
L 622.636364 224.934619 
" clip-path="url(#p0a590ecc13)" style="fill: none; stroke: #ff7f0e; stroke-width: 1.5; stroke-linecap: square"/>
   </g>
   <g id="patch_3">
    <path d="M 90 288 
L 90 43.2 
" style="fill: none; stroke: #000000; stroke-width: 0.8; stroke-linejoin: miter; stroke-linecap: square"/>
   </g>
   <g id="patch_4">
    <path d="M 648 288 
L 648 43.2 
" style="fill: none; stroke: #000000; stroke-width: 0.8; stroke-linejoin: miter; stroke-linecap: square"/>
   </g>
   <g id="patch_5">
    <path d="M 90 288 
L 648 288 
" style="fill: none; stroke: #000000; stroke-width: 0.8; stroke-linejoin: miter; stroke-linecap: square"/>
   </g>
   <g id="patch_6">
    <path d="M 90 43.2 
L 648 43.2 
" style="fill: none; stroke: #000000; stroke-width: 0.8; stroke-linejoin: miter; stroke-linecap: square"/>
   </g>
   <g id="text_11">
    <!-- ARB048 -->
    <g transform="translate(345.1575 37.2) scale(0.12 -0.12)">
     <defs>
      <path id="DejaVuSans-41" d="M 2188 4044 
L 1331 1722 
L 3047 1722 
L 2188 4044 
z
M 1831 4666 
L 2547 4666 
L 4325 0 
L 3669 0 
L 3244 1197 
L 1141 1197 
L 716 0 
L 50 0 
L 1831 4666 
z
" transform="scale(0.015625)"/>
      <path id="DejaVuSans-52" d="M 2841 2188 
Q 3044 2119 3236 1894 
Q 3428 1669 3622 1275 
L 4263 0 
L 3584 0 
L 2988 1197 
Q 2756 1666 2539 1819 
Q 2322 1972 1947 1972 
L 1259 1972 
L 1259 0 
L 628 0 
L 628 4666 
L 2053 4666 
Q 2853 4666 3247 4331 
Q 3641 3997 3641 3322 
Q 3641 2881 3436 2590 
Q 3231 2300 2841 2188 
z
M 1259 4147 
L 1259 2491 
L 2053 2491 
Q 2509 2491 2742 2702 
Q 2975 2913 2975 3322 
Q 2975 3731 2742 3939 
Q 2509 4147 2053 4147 
L 1259 4147 
z
" transform="scale(0.015625)"/>
      <path id="DejaVuSans-42" d="M 1259 2228 
L 1259 519 
L 2272 519 
Q 2781 519 3026 730 
Q 3272 941 3272 1375 
Q 3272 1813 3026 2020 
Q 2781 2228 2272 2228 
L 1259 2228 
z
M 1259 4147 
L 1259 2741 
L 2194 2741 
Q 2656 2741 2882 2914 
Q 3109 3088 3109 3444 
Q 3109 3797 2882 3972 
Q 2656 4147 2194 4147 
L 1259 4147 
z
M 628 4666 
L 2241 4666 
Q 2963 4666 3353 4366 
Q 3744 4066 3744 3513 
Q 3744 3084 3544 2831 
Q 3344 2578 2956 2516 
Q 3422 2416 3680 2098 
Q 3938 1781 3938 1306 
Q 3938 681 3513 340 
Q 3088 0 2303 0 
L 628 0 
L 628 4666 
z
" transform="scale(0.015625)"/>
      <path id="DejaVuSans-34" d="M 2419 4116 
L 825 1625 
L 2419 1625 
L 2419 4116 
z
M 2253 4666 
L 3047 4666 
L 3047 1625 
L 3713 1625 
L 3713 1100 
L 3047 1100 
L 3047 0 
L 2419 0 
L 2419 1100 
L 313 1100 
L 313 1709 
L 2253 4666 
z
" transform="scale(0.015625)"/>
     </defs>
     <use xlink:href="#DejaVuSans-41"/>
     <use xlink:href="#DejaVuSans-52" x="68.408203"/>
     <use xlink:href="#DejaVuSans-42" x="137.890625"/>
     <use xlink:href="#DejaVuSans-30" x="206.494141"/>
     <use xlink:href="#DejaVuSans-34" x="270.117188"/>
     <use xlink:href="#DejaVuSans-38" x="333.740234"/>
    </g>
   </g>
   <g id="legend_1">
    <g id="patch_7">
     <path d="M 97 80.55625 
L 178.95625 80.55625 
Q 180.95625 80.55625 180.95625 78.55625 
L 180.95625 50.2 
Q 180.95625 48.2 178.95625 48.2 
L 97 48.2 
Q 95 48.2 95 50.2 
L 95 78.55625 
Q 95 80.55625 97 80.55625 
z
" style="fill: #ffffff; opacity: 0.8; stroke: #cccccc; stroke-linejoin: miter"/>
    </g>
    <g id="line2d_12">
     <path d="M 99 56.298437 
L 109 56.298437 
L 119 56.298437 
" style="fill: none; stroke: #1f77b4; stroke-width: 1.5; stroke-linecap: square"/>
    </g>
    <g id="text_12">
     <!-- measured -->
     <g transform="translate(127 59.798437) scale(0.1 -0.1)">
      <defs>
       <path id="DejaVuSans-6d" d="M 3328 2828 
Q 3544 3216 3844 3400 
Q 4144 3584 4550 3584 
Q 5097 3584 5394 3201 
Q 5691 2819 5691 2113 
L 5691 0 
L 5113 0 
L 5113 2094 
Q 5113 2597 4934 2840 
Q 4756 3084 4391 3084 
Q 3944 3084 3684 2787 
Q 3425 2491 3425 1978 
L 3425 0 
L 2847 0 
L 2847 2094 
Q 2847 2600 2669 2842 
Q 2491 3084 2119 3084 
Q 1678 3084 1418 2786 
Q 1159 2488 1159 1978 
L 1159 0 
L 581 0 
L 581 3500 
L 1159 3500 
L 1159 2956 
Q 1356 3278 1631 3431 
Q 1906 3584 2284 3584 
Q 2666 3584 2933 3390 
Q 3200 3197 3328 2828 
z
" transform="scale(0.015625)"/>
       <path id="DejaVuSans-61" d="M 2194 1759 
Q 1497 1759 1228 1600 
Q 959 1441 959 1056 
Q 959 750 1161 570 
Q 1363 391 1709 391 
Q 2188 391 2477 730 
Q 2766 1069 2766 1631 
L 2766 1759 
L 2194 1759 
z
M 3341 1997 
L 3341 0 
L 2766 0 
L 2766 531 
Q 2569 213 2275 61 
Q 1981 -91 1556 -91 
Q 1019 -91 701 211 
Q 384 513 384 1019 
Q 384 1609 779 1909 
Q 1175 2209 1959 2209 
L 2766 2209 
L 2766 2266 
Q 2766 2663 2505 2880 
Q 2244 3097 1772 3097 
Q 1472 3097 1187 3025 
Q 903 2953 641 2809 
L 641 3341 
Q 956 3463 1253 3523 
Q 1550 3584 1831 3584 
Q 2591 3584 2966 3190 
Q 3341 2797 3341 1997 
z
" transform="scale(0.015625)"/>
       <path id="DejaVuSans-75" d="M 544 1381 
L 544 3500 
L 1119 3500 
L 1119 1403 
Q 1119 906 1312 657 
Q 1506 409 1894 409 
Q 2359 409 2629 706 
Q 2900 1003 2900 1516 
L 2900 3500 
L 3475 3500 
L 3475 0 
L 2900 0 
L 2900 538 
Q 2691 219 2414 64 
Q 2138 -91 1772 -91 
Q 1169 -91 856 284 
Q 544 659 544 1381 
z
M 1991 3584 
L 1991 3584 
z
" transform="scale(0.015625)"/>
       <path id="DejaVuSans-64" d="M 2906 2969 
L 2906 4863 
L 3481 4863 
L 3481 0 
L 2906 0 
L 2906 525 
Q 2725 213 2448 61 
Q 2172 -91 1784 -91 
Q 1150 -91 751 415 
Q 353 922 353 1747 
Q 353 2572 751 3078 
Q 1150 3584 1784 3584 
Q 2172 3584 2448 3432 
Q 2725 3281 2906 2969 
z
M 947 1747 
Q 947 1113 1208 752 
Q 1469 391 1925 391 
Q 2381 391 2643 752 
Q 2906 1113 2906 1747 
Q 2906 2381 2643 2742 
Q 2381 3103 1925 3103 
Q 1469 3103 1208 2742 
Q 947 2381 947 1747 
z
" transform="scale(0.015625)"/>
      </defs>
      <use xlink:href="#DejaVuSans-6d"/>
      <use xlink:href="#DejaVuSans-65" x="97.412109"/>
      <use xlink:href="#DejaVuSans-61" x="158.935547"/>
      <use xlink:href="#DejaVuSans-73" x="220.214844"/>
      <use xlink:href="#DejaVuSans-75" x="272.314453"/>
      <use xlink:href="#DejaVuSans-72" x="335.693359"/>
      <use xlink:href="#DejaVuSans-65" x="374.556641"/>
      <use xlink:href="#DejaVuSans-64" x="436.080078"/>
     </g>
    </g>
    <g id="line2d_13">
     <path d="M 99 70.976562 
L 109 70.976562 
L 119 70.976562 
" style="fill: none; stroke: #ff7f0e; stroke-width: 1.5; stroke-linecap: square"/>
    </g>
    <g id="text_13">
     <!-- predicted -->
     <g transform="translate(127 74.476562) scale(0.1 -0.1)">
      <defs>
       <path id="DejaVuSans-70" d="M 1159 525 
L 1159 -1331 
L 581 -1331 
L 581 3500 
L 1159 3500 
L 1159 2969 
Q 1341 3281 1617 3432 
Q 1894 3584 2278 3584 
Q 2916 3584 3314 3078 
Q 3713 2572 3713 1747 
Q 3713 922 3314 415 
Q 2916 -91 2278 -91 
Q 1894 -91 1617 61 
Q 1341 213 1159 525 
z
M 3116 1747 
Q 3116 2381 2855 2742 
Q 2594 3103 2138 3103 
Q 1681 3103 1420 2742 
Q 1159 2381 1159 1747 
Q 1159 1113 1420 752 
Q 1681 391 2138 391 
Q 2594 391 2855 752 
Q 3116 1113 3116 1747 
z
" transform="scale(0.015625)"/>
       <path id="DejaVuSans-69" d="M 603 3500 
L 1178 3500 
L 1178 0 
L 603 0 
L 603 3500 
z
M 603 4863 
L 1178 4863 
L 1178 4134 
L 603 4134 
L 603 4863 
z
" transform="scale(0.015625)"/>
       <path id="DejaVuSans-63" d="M 3122 3366 
L 3122 2828 
Q 2878 2963 2633 3030 
Q 2388 3097 2138 3097 
Q 1578 3097 1268 2742 
Q 959 2388 959 1747 
Q 959 1106 1268 751 
Q 1578 397 2138 397 
Q 2388 397 2633 464 
Q 2878 531 3122 666 
L 3122 134 
Q 2881 22 2623 -34 
Q 2366 -91 2075 -91 
Q 1284 -91 818 406 
Q 353 903 353 1747 
Q 353 2603 823 3093 
Q 1294 3584 2113 3584 
Q 2378 3584 2631 3529 
Q 2884 3475 3122 3366 
z
" transform="scale(0.015625)"/>
      </defs>
      <use xlink:href="#DejaVuSans-70"/>
      <use xlink:href="#DejaVuSans-72" x="63.476562"/>
      <use xlink:href="#DejaVuSans-65" x="102.339844"/>
      <use xlink:href="#DejaVuSans-64" x="163.863281"/>
      <use xlink:href="#DejaVuSans-69" x="227.339844"/>
      <use xlink:href="#DejaVuSans-63" x="255.123047"/>
      <use xlink:href="#DejaVuSans-74" x="310.103516"/>
      <use xlink:href="#DejaVuSans-65" x="349.3125"/>
      <use xlink:href="#DejaVuSans-64" x="410.835938"/>
     </g>
    </g>
   </g>
  </g>
 </g>
 <defs>
  <clipPath id="p0a590ecc13">
   <rect x="90" y="43.2" width="558" height="244.8"/>
  </clipPath>
 </defs>
</svg>
