<?xml version="1.0" encoding="utf-8" standalone="no"?>
<!DOCTYPE svg PUBLIC "-//W3C//DTD SVG 1.1//EN"
  "http://www.w3.org/Graphics/SVG/1.1/DTD/svg11.dtd">
<svg xmlns:xlink="http://www.w3.org/1999/xlink" width="720pt" height="360pt" viewBox="0 0 720 360" xmlns="http://www.w3.org/2000/svg" version="1.1">
 <metadata>
  <rdf:RDF xmlns:dc="http://purl.org/dc/elements/1.1/" xmlns:cc="http://creativecommons.org/ns#" xmlns:rdf="http://www.w3.org/1999/02/22-rdf-syntax-ns#">
   <cc:Work>
    <dc:type rdf:resource="http://purl.org/dc/dcmitype/StillImage"/>
    <dc:date>2023-10-23T10:53:09.914116</dc:date>
    <dc:format>image/svg+xml</dc:format>
    <dc:creator>
     <cc:Agent>
      <dc:title>Matplotlib v3.7.1, https://matplotlib.org/</dc:title>
     </cc:Agent>
    </dc:creator>
   </cc:Work>
  </rdf:RDF>
 </metadata>
 <defs>
  <style type="text/css">*{stroke-linejoin: round; stroke-linecap: butt}</style>
 </defs>
 <g id="figure_1">
  <g id="patch_1">
   <path d="M 0 360 
L 720 360 
L 720 0 
L 0 0 
z
" style="fill: #ffffff"/>
  </g>
  <g id="axes_1">
   <g id="patch_2">
    <path d="M 90 288 
L 648 288 
L 648 43.2 
L 90 43.2 
z
" style="fill: #ffffff"/>
   </g>
   <g id="matplotlib.axis_1">
    <g id="xtick_1">
     <g id="line2d_1">
      <defs>
       <path id="m92690a8f0a" d="M 0 0 
L 0 3.5 
" style="stroke: #000000; stroke-width: 0.8"/>
      </defs>
      <g>
       <use xlink:href="#m92690a8f0a" x="149.370747" y="288" style="stroke: #000000; stroke-width: 0.8"/>
      </g>
     </g>
     <g id="text_1">
      <!-- 2023-08-15 -->
      <g transform="translate(87.727405 337.765903) rotate(-30) scale(0.12 -0.12)">
       <defs>
        <path id="DejaVuSans-32" d="M 1228 531 
L 3431 531 
L 3431 0 
L 469 0 
L 469 531 
Q 828 903 1448 1529 
Q 2069 2156 2228 2338 
Q 2531 2678 2651 2914 
Q 2772 3150 2772 3378 
Q 2772 3750 2511 3984 
Q 2250 4219 1831 4219 
Q 1534 4219 1204 4116 
Q 875 4013 500 3803 
L 500 4441 
Q 881 4594 1212 4672 
Q 1544 4750 1819 4750 
Q 2544 4750 2975 4387 
Q 3406 4025 3406 3419 
Q 3406 3131 3298 2873 
Q 3191 2616 2906 2266 
Q 2828 2175 2409 1742 
Q 1991 1309 1228 531 
z
" transform="scale(0.015625)"/>
        <path id="DejaVuSans-30" d="M 2034 4250 
Q 1547 4250 1301 3770 
Q 1056 3291 1056 2328 
Q 1056 1369 1301 889 
Q 1547 409 2034 409 
Q 2525 409 2770 889 
Q 3016 1369 3016 2328 
Q 3016 3291 2770 3770 
Q 2525 4250 2034 4250 
z
M 2034 4750 
Q 2819 4750 3233 4129 
Q 3647 3509 3647 2328 
Q 3647 1150 3233 529 
Q 2819 -91 2034 -91 
Q 1250 -91 836 529 
Q 422 1150 422 2328 
Q 422 3509 836 4129 
Q 1250 4750 2034 4750 
z
" transform="scale(0.015625)"/>
        <path id="DejaVuSans-33" d="M 2597 2516 
Q 3050 2419 3304 2112 
Q 3559 1806 3559 1356 
Q 3559 666 3084 287 
Q 2609 -91 1734 -91 
Q 1441 -91 1130 -33 
Q 819 25 488 141 
L 488 750 
Q 750 597 1062 519 
Q 1375 441 1716 441 
Q 2309 441 2620 675 
Q 2931 909 2931 1356 
Q 2931 1769 2642 2001 
Q 2353 2234 1838 2234 
L 1294 2234 
L 1294 2753 
L 1863 2753 
Q 2328 2753 2575 2939 
Q 2822 3125 2822 3475 
Q 2822 3834 2567 4026 
Q 2313 4219 1838 4219 
Q 1578 4219 1281 4162 
Q 984 4106 628 3988 
L 628 4550 
Q 988 4650 1302 4700 
Q 1616 4750 1894 4750 
Q 2613 4750 3031 4423 
Q 3450 4097 3450 3541 
Q 3450 3153 3228 2886 
Q 3006 2619 2597 2516 
z
" transform="scale(0.015625)"/>
        <path id="DejaVuSans-2d" d="M 313 2009 
L 1997 2009 
L 1997 1497 
L 313 1497 
L 313 2009 
z
" transform="scale(0.015625)"/>
        <path id="DejaVuSans-38" d="M 2034 2216 
Q 1584 2216 1326 1975 
Q 1069 1734 1069 1313 
Q 1069 891 1326 650 
Q 1584 409 2034 409 
Q 2484 409 2743 651 
Q 3003 894 3003 1313 
Q 3003 1734 2745 1975 
Q 2488 2216 2034 2216 
z
M 1403 2484 
Q 997 2584 770 2862 
Q 544 3141 544 3541 
Q 544 4100 942 4425 
Q 1341 4750 2034 4750 
Q 2731 4750 3128 4425 
Q 3525 4100 3525 3541 
Q 3525 3141 3298 2862 
Q 3072 2584 2669 2484 
Q 3125 2378 3379 2068 
Q 3634 1759 3634 1313 
Q 3634 634 3220 271 
Q 2806 -91 2034 -91 
Q 1263 -91 848 271 
Q 434 634 434 1313 
Q 434 1759 690 2068 
Q 947 2378 1403 2484 
z
M 1172 3481 
Q 1172 3119 1398 2916 
Q 1625 2713 2034 2713 
Q 2441 2713 2670 2916 
Q 2900 3119 2900 3481 
Q 2900 3844 2670 4047 
Q 2441 4250 2034 4250 
Q 1625 4250 1398 4047 
Q 1172 3844 1172 3481 
z
" transform="scale(0.015625)"/>
        <path id="DejaVuSans-31" d="M 794 531 
L 1825 531 
L 1825 4091 
L 703 3866 
L 703 4441 
L 1819 4666 
L 2450 4666 
L 2450 531 
L 3481 531 
L 3481 0 
L 794 0 
L 794 531 
z
" transform="scale(0.015625)"/>
        <path id="DejaVuSans-35" d="M 691 4666 
L 3169 4666 
L 3169 4134 
L 1269 4134 
L 1269 2991 
Q 1406 3038 1543 3061 
Q 1681 3084 1819 3084 
Q 2600 3084 3056 2656 
Q 3513 2228 3513 1497 
Q 3513 744 3044 326 
Q 2575 -91 1722 -91 
Q 1428 -91 1123 -41 
Q 819 9 494 109 
L 494 744 
Q 775 591 1075 516 
Q 1375 441 1709 441 
Q 2250 441 2565 725 
Q 2881 1009 2881 1497 
Q 2881 1984 2565 2268 
Q 2250 2553 1709 2553 
Q 1456 2553 1204 2497 
Q 953 2441 691 2322 
L 691 4666 
z
" transform="scale(0.015625)"/>
       </defs>
       <use xlink:href="#DejaVuSans-32"/>
       <use xlink:href="#DejaVuSans-30" x="63.623047"/>
       <use xlink:href="#DejaVuSans-32" x="127.246094"/>
       <use xlink:href="#DejaVuSans-33" x="190.869141"/>
       <use xlink:href="#DejaVuSans-2d" x="254.492188"/>
       <use xlink:href="#DejaVuSans-30" x="290.576172"/>
       <use xlink:href="#DejaVuSans-38" x="354.199219"/>
       <use xlink:href="#DejaVuSans-2d" x="417.822266"/>
       <use xlink:href="#DejaVuSans-31" x="453.90625"/>
       <use xlink:href="#DejaVuSans-35" x="517.529297"/>
      </g>
     </g>
    </g>
    <g id="xtick_2">
     <g id="line2d_2">
      <g>
       <use xlink:href="#m92690a8f0a" x="264.994921" y="288" style="stroke: #000000; stroke-width: 0.8"/>
      </g>
     </g>
     <g id="text_2">
      <!-- 2023-09-01 -->
      <g transform="translate(203.35158 337.765903) rotate(-30) scale(0.12 -0.12)">
       <defs>
        <path id="DejaVuSans-39" d="M 703 97 
L 703 672 
Q 941 559 1184 500 
Q 1428 441 1663 441 
Q 2288 441 2617 861 
Q 2947 1281 2994 2138 
Q 2813 1869 2534 1725 
Q 2256 1581 1919 1581 
Q 1219 1581 811 2004 
Q 403 2428 403 3163 
Q 403 3881 828 4315 
Q 1253 4750 1959 4750 
Q 2769 4750 3195 4129 
Q 3622 3509 3622 2328 
Q 3622 1225 3098 567 
Q 2575 -91 1691 -91 
Q 1453 -91 1209 -44 
Q 966 3 703 97 
z
M 1959 2075 
Q 2384 2075 2632 2365 
Q 2881 2656 2881 3163 
Q 2881 3666 2632 3958 
Q 2384 4250 1959 4250 
Q 1534 4250 1286 3958 
Q 1038 3666 1038 3163 
Q 1038 2656 1286 2365 
Q 1534 2075 1959 2075 
z
" transform="scale(0.015625)"/>
       </defs>
       <use xlink:href="#DejaVuSans-32"/>
       <use xlink:href="#DejaVuSans-30" x="63.623047"/>
       <use xlink:href="#DejaVuSans-32" x="127.246094"/>
       <use xlink:href="#DejaVuSans-33" x="190.869141"/>
       <use xlink:href="#DejaVuSans-2d" x="254.492188"/>
       <use xlink:href="#DejaVuSans-30" x="290.576172"/>
       <use xlink:href="#DejaVuSans-39" x="354.199219"/>
       <use xlink:href="#DejaVuSans-2d" x="417.822266"/>
       <use xlink:href="#DejaVuSans-30" x="453.90625"/>
       <use xlink:href="#DejaVuSans-31" x="517.529297"/>
      </g>
     </g>
    </g>
    <g id="xtick_3">
     <g id="line2d_3">
      <g>
       <use xlink:href="#m92690a8f0a" x="360.21483" y="288" style="stroke: #000000; stroke-width: 0.8"/>
      </g>
     </g>
     <g id="text_3">
      <!-- 2023-09-15 -->
      <g transform="translate(298.571488 337.765903) rotate(-30) scale(0.12 -0.12)">
       <use xlink:href="#DejaVuSans-32"/>
       <use xlink:href="#DejaVuSans-30" x="63.623047"/>
       <use xlink:href="#DejaVuSans-32" x="127.246094"/>
       <use xlink:href="#DejaVuSans-33" x="190.869141"/>
       <use xlink:href="#DejaVuSans-2d" x="254.492188"/>
       <use xlink:href="#DejaVuSans-30" x="290.576172"/>
       <use xlink:href="#DejaVuSans-39" x="354.199219"/>
       <use xlink:href="#DejaVuSans-2d" x="417.822266"/>
       <use xlink:href="#DejaVuSans-31" x="453.90625"/>
       <use xlink:href="#DejaVuSans-35" x="517.529297"/>
      </g>
     </g>
    </g>
    <g id="xtick_4">
     <g id="line2d_4">
      <g>
       <use xlink:href="#m92690a8f0a" x="469.037583" y="288" style="stroke: #000000; stroke-width: 0.8"/>
      </g>
     </g>
     <g id="text_4">
      <!-- 2023-10-01 -->
      <g transform="translate(407.394241 337.765903) rotate(-30) scale(0.12 -0.12)">
       <use xlink:href="#DejaVuSans-32"/>
       <use xlink:href="#DejaVuSans-30" x="63.623047"/>
       <use xlink:href="#DejaVuSans-32" x="127.246094"/>
       <use xlink:href="#DejaVuSans-33" x="190.869141"/>
       <use xlink:href="#DejaVuSans-2d" x="254.492188"/>
       <use xlink:href="#DejaVuSans-31" x="290.576172"/>
       <use xlink:href="#DejaVuSans-30" x="354.199219"/>
       <use xlink:href="#DejaVuSans-2d" x="417.822266"/>
       <use xlink:href="#DejaVuSans-30" x="453.90625"/>
       <use xlink:href="#DejaVuSans-31" x="517.529297"/>
      </g>
     </g>
    </g>
    <g id="xtick_5">
     <g id="line2d_5">
      <g>
       <use xlink:href="#m92690a8f0a" x="564.257491" y="288" style="stroke: #000000; stroke-width: 0.8"/>
      </g>
     </g>
     <g id="text_5">
      <!-- 2023-10-15 -->
      <g transform="translate(502.614149 337.765903) rotate(-30) scale(0.12 -0.12)">
       <use xlink:href="#DejaVuSans-32"/>
       <use xlink:href="#DejaVuSans-30" x="63.623047"/>
       <use xlink:href="#DejaVuSans-32" x="127.246094"/>
       <use xlink:href="#DejaVuSans-33" x="190.869141"/>
       <use xlink:href="#DejaVuSans-2d" x="254.492188"/>
       <use xlink:href="#DejaVuSans-31" x="290.576172"/>
       <use xlink:href="#DejaVuSans-30" x="354.199219"/>
       <use xlink:href="#DejaVuSans-2d" x="417.822266"/>
       <use xlink:href="#DejaVuSans-31" x="453.90625"/>
       <use xlink:href="#DejaVuSans-35" x="517.529297"/>
      </g>
     </g>
    </g>
   </g>
   <g id="matplotlib.axis_2">
    <g id="ytick_1">
     <g id="line2d_6">
      <defs>
       <path id="mde3e9db5e8" d="M 0 0 
L -3.5 0 
" style="stroke: #000000; stroke-width: 0.8"/>
      </defs>
      <g>
       <use xlink:href="#mde3e9db5e8" x="90" y="266.491034" style="stroke: #000000; stroke-width: 0.8"/>
      </g>
     </g>
     <g id="text_6">
      <!-- 0.0 -->
      <g transform="translate(63.91625 271.050097) scale(0.12 -0.12)">
       <defs>
        <path id="DejaVuSans-2e" d="M 684 794 
L 1344 794 
L 1344 0 
L 684 0 
L 684 794 
z
" transform="scale(0.015625)"/>
       </defs>
       <use xlink:href="#DejaVuSans-30"/>
       <use xlink:href="#DejaVuSans-2e" x="63.623047"/>
       <use xlink:href="#DejaVuSans-30" x="95.410156"/>
      </g>
     </g>
    </g>
    <g id="ytick_2">
     <g id="line2d_7">
      <g>
       <use xlink:href="#mde3e9db5e8" x="90" y="234.241496" style="stroke: #000000; stroke-width: 0.8"/>
      </g>
     </g>
     <g id="text_7">
      <!-- 0.2 -->
      <g transform="translate(63.91625 238.800558) scale(0.12 -0.12)">
       <use xlink:href="#DejaVuSans-30"/>
       <use xlink:href="#DejaVuSans-2e" x="63.623047"/>
       <use xlink:href="#DejaVuSans-32" x="95.410156"/>
      </g>
     </g>
    </g>
    <g id="ytick_3">
     <g id="line2d_8">
      <g>
       <use xlink:href="#mde3e9db5e8" x="90" y="201.991957" style="stroke: #000000; stroke-width: 0.8"/>
      </g>
     </g>
     <g id="text_8">
      <!-- 0.4 -->
      <g transform="translate(63.91625 206.551019) scale(0.12 -0.12)">
       <defs>
        <path id="DejaVuSans-34" d="M 2419 4116 
L 825 1625 
L 2419 1625 
L 2419 4116 
z
M 2253 4666 
L 3047 4666 
L 3047 1625 
L 3713 1625 
L 3713 1100 
L 3047 1100 
L 3047 0 
L 2419 0 
L 2419 1100 
L 313 1100 
L 313 1709 
L 2253 4666 
z
" transform="scale(0.015625)"/>
       </defs>
       <use xlink:href="#DejaVuSans-30"/>
       <use xlink:href="#DejaVuSans-2e" x="63.623047"/>
       <use xlink:href="#DejaVuSans-34" x="95.410156"/>
      </g>
     </g>
    </g>
    <g id="ytick_4">
     <g id="line2d_9">
      <g>
       <use xlink:href="#mde3e9db5e8" x="90" y="169.742418" style="stroke: #000000; stroke-width: 0.8"/>
      </g>
     </g>
     <g id="text_9">
      <!-- 0.6 -->
      <g transform="translate(63.91625 174.301481) scale(0.12 -0.12)">
       <defs>
        <path id="DejaVuSans-36" d="M 2113 2584 
Q 1688 2584 1439 2293 
Q 1191 2003 1191 1497 
Q 1191 994 1439 701 
Q 1688 409 2113 409 
Q 2538 409 2786 701 
Q 3034 994 3034 1497 
Q 3034 2003 2786 2293 
Q 2538 2584 2113 2584 
z
M 3366 4563 
L 3366 3988 
Q 3128 4100 2886 4159 
Q 2644 4219 2406 4219 
Q 1781 4219 1451 3797 
Q 1122 3375 1075 2522 
Q 1259 2794 1537 2939 
Q 1816 3084 2150 3084 
Q 2853 3084 3261 2657 
Q 3669 2231 3669 1497 
Q 3669 778 3244 343 
Q 2819 -91 2113 -91 
Q 1303 -91 875 529 
Q 447 1150 447 2328 
Q 447 3434 972 4092 
Q 1497 4750 2381 4750 
Q 2619 4750 2861 4703 
Q 3103 4656 3366 4563 
z
" transform="scale(0.015625)"/>
       </defs>
       <use xlink:href="#DejaVuSans-30"/>
       <use xlink:href="#DejaVuSans-2e" x="63.623047"/>
       <use xlink:href="#DejaVuSans-36" x="95.410156"/>
      </g>
     </g>
    </g>
    <g id="ytick_5">
     <g id="line2d_10">
      <g>
       <use xlink:href="#mde3e9db5e8" x="90" y="137.492879" style="stroke: #000000; stroke-width: 0.8"/>
      </g>
     </g>
     <g id="text_10">
      <!-- 0.8 -->
      <g transform="translate(63.91625 142.051942) scale(0.12 -0.12)">
       <use xlink:href="#DejaVuSans-30"/>
       <use xlink:href="#DejaVuSans-2e" x="63.623047"/>
       <use xlink:href="#DejaVuSans-38" x="95.410156"/>
      </g>
     </g>
    </g>
    <g id="ytick_6">
     <g id="line2d_11">
      <g>
       <use xlink:href="#mde3e9db5e8" x="90" y="105.243341" style="stroke: #000000; stroke-width: 0.8"/>
      </g>
     </g>
     <g id="text_11">
      <!-- 1.0 -->
      <g transform="translate(63.91625 109.802403) scale(0.12 -0.12)">
       <use xlink:href="#DejaVuSans-31"/>
       <use xlink:href="#DejaVuSans-2e" x="63.623047"/>
       <use xlink:href="#DejaVuSans-30" x="95.410156"/>
      </g>
     </g>
    </g>
    <g id="ytick_7">
     <g id="line2d_12">
      <g>
       <use xlink:href="#mde3e9db5e8" x="90" y="72.993802" style="stroke: #000000; stroke-width: 0.8"/>
      </g>
     </g>
     <g id="text_12">
      <!-- 1.2 -->
      <g transform="translate(63.91625 77.552865) scale(0.12 -0.12)">
       <use xlink:href="#DejaVuSans-31"/>
       <use xlink:href="#DejaVuSans-2e" x="63.623047"/>
       <use xlink:href="#DejaVuSans-32" x="95.410156"/>
      </g>
     </g>
    </g>
    <g id="text_13">
     <!-- Meters -->
     <g transform="translate(57.836562 182.6875) rotate(-90) scale(0.1 -0.1)">
      <defs>
       <path id="DejaVuSans-4d" d="M 628 4666 
L 1569 4666 
L 2759 1491 
L 3956 4666 
L 4897 4666 
L 4897 0 
L 4281 0 
L 4281 4097 
L 3078 897 
L 2444 897 
L 1241 4097 
L 1241 0 
L 628 0 
L 628 4666 
z
" transform="scale(0.015625)"/>
       <path id="DejaVuSans-65" d="M 3597 1894 
L 3597 1613 
L 953 1613 
Q 991 1019 1311 708 
Q 1631 397 2203 397 
Q 2534 397 2845 478 
Q 3156 559 3463 722 
L 3463 178 
Q 3153 47 2828 -22 
Q 2503 -91 2169 -91 
Q 1331 -91 842 396 
Q 353 884 353 1716 
Q 353 2575 817 3079 
Q 1281 3584 2069 3584 
Q 2775 3584 3186 3129 
Q 3597 2675 3597 1894 
z
M 3022 2063 
Q 3016 2534 2758 2815 
Q 2500 3097 2075 3097 
Q 1594 3097 1305 2825 
Q 1016 2553 972 2059 
L 3022 2063 
z
" transform="scale(0.015625)"/>
       <path id="DejaVuSans-74" d="M 1172 4494 
L 1172 3500 
L 2356 3500 
L 2356 3053 
L 1172 3053 
L 1172 1153 
Q 1172 725 1289 603 
Q 1406 481 1766 481 
L 2356 481 
L 2356 0 
L 1766 0 
Q 1100 0 847 248 
Q 594 497 594 1153 
L 594 3053 
L 172 3053 
L 172 3500 
L 594 3500 
L 594 4494 
L 1172 4494 
z
" transform="scale(0.015625)"/>
       <path id="DejaVuSans-72" d="M 2631 2963 
Q 2534 3019 2420 3045 
Q 2306 3072 2169 3072 
Q 1681 3072 1420 2755 
Q 1159 2438 1159 1844 
L 1159 0 
L 581 0 
L 581 3500 
L 1159 3500 
L 1159 2956 
Q 1341 3275 1631 3429 
Q 1922 3584 2338 3584 
Q 2397 3584 2469 3576 
Q 2541 3569 2628 3553 
L 2631 2963 
z
" transform="scale(0.015625)"/>
       <path id="DejaVuSans-73" d="M 2834 3397 
L 2834 2853 
Q 2591 2978 2328 3040 
Q 2066 3103 1784 3103 
Q 1356 3103 1142 2972 
Q 928 2841 928 2578 
Q 928 2378 1081 2264 
Q 1234 2150 1697 2047 
L 1894 2003 
Q 2506 1872 2764 1633 
Q 3022 1394 3022 966 
Q 3022 478 2636 193 
Q 2250 -91 1575 -91 
Q 1294 -91 989 -36 
Q 684 19 347 128 
L 347 722 
Q 666 556 975 473 
Q 1284 391 1588 391 
Q 1994 391 2212 530 
Q 2431 669 2431 922 
Q 2431 1156 2273 1281 
Q 2116 1406 1581 1522 
L 1381 1569 
Q 847 1681 609 1914 
Q 372 2147 372 2553 
Q 372 3047 722 3315 
Q 1072 3584 1716 3584 
Q 2034 3584 2315 3537 
Q 2597 3491 2834 3397 
z
" transform="scale(0.015625)"/>
      </defs>
      <use xlink:href="#DejaVuSans-4d"/>
      <use xlink:href="#DejaVuSans-65" x="86.279297"/>
      <use xlink:href="#DejaVuSans-74" x="147.802734"/>
      <use xlink:href="#DejaVuSans-65" x="187.011719"/>
      <use xlink:href="#DejaVuSans-72" x="248.535156"/>
      <use xlink:href="#DejaVuSans-73" x="289.648438"/>
     </g>
    </g>
   </g>
   <g id="line2d_13">
    <path d="M 115.363636 269.473353 
L 115.647029 269.349761 
L 115.930422 269.699042 
L 116.780599 269.161687 
L 117.063992 269.269158 
L 117.347384 269.564703 
L 117.630777 269.537835 
L 117.91417 269.779645 
L 118.197562 269.645306 
L 118.480955 269.72591 
L 118.764347 269.403497 
L 119.331133 269.967719 
L 119.614525 270.585677 
L 119.897918 270.263264 
L 120.18131 270.639413 
L 120.464703 270.102058 
L 121.031488 271.391709 
L 121.314881 269.134819 
L 121.598273 239.338501 
L 121.881666 269.994587 
L 122.448451 268.839274 
L 122.731844 268.812407 
L 123.015236 251.402114 
L 123.298629 251.482717 
L 123.582021 268.812407 
L 123.865414 268.678068 
L 124.998984 269.161687 
L 125.282377 268.597465 
L 125.565769 268.678068 
L 125.849162 269.537835 
L 126.132555 269.994587 
L 126.415947 270.693148 
L 126.69934 270.746884 
L 126.982732 270.639413 
L 127.266125 270.290132 
L 127.549518 270.451338 
L 127.83291 264.728511 
L 128.116303 245.061328 
L 128.399695 247.801837 
L 129.249873 252.611162 
L 130.100051 259.059419 
L 130.666836 263.573198 
L 130.950229 264.889717 
L 131.800406 266.662988 
L 132.367191 266.743591 
L 132.933977 267.952639 
L 133.217369 268.275052 
L 133.500762 243.744809 
L 133.784154 242.482026 
L 134.067547 267.710829 
L 134.917725 269.000481 
L 135.201117 268.919878 
L 135.48451 269.215423 
L 135.767902 269.322894 
L 136.051295 268.489994 
L 136.334688 268.516861 
L 137.468258 268.140713 
L 137.751651 268.194449 
L 138.035043 268.436258 
L 138.318436 268.167581 
L 138.601828 268.30192 
L 138.885221 267.845168 
L 139.168614 268.140713 
L 140.018791 270.961825 
L 140.302184 270.854354 
L 140.585576 270.397603 
L 140.868969 270.854354 
L 141.435754 271.311106 
L 141.719147 270.66628 
L 142.002539 270.505074 
L 142.569325 269.376629 
L 142.852717 269.403497 
L 143.13611 269.134819 
L 143.986287 269.107952 
L 144.26968 268.89301 
L 144.553073 269.376629 
L 145.119858 269.430364 
L 145.970036 269.537835 
L 146.253428 269.833381 
L 146.536821 244.040354 
L 146.820213 162.765454 
L 147.103606 188.101729 
L 147.386998 244.201561 
L 147.670391 270.934958 
L 147.953784 270.558809 
L 148.237176 270.720016 
L 148.803961 270.693148 
L 149.087354 269.833381 
L 149.370747 266.501781 
L 149.654139 266.04503 
L 149.937532 266.448046 
L 150.220924 265.427072 
L 150.504317 91.565954 
L 150.787709 234.556044 
L 151.071102 263.116447 
L 151.637887 206.586731 
L 151.92128 235.577018 
L 152.204672 237.108478 
L 152.488065 180.336953 
L 152.771458 152.340772 
L 153.05485 266.286839 
L 153.338243 154.597662 
L 153.621635 182.889388 
L 153.905028 232.272286 
L 154.188421 236.97414 
L 154.471813 264.755378 
L 154.755206 264.997188 
L 155.038598 265.480807 
L 155.605383 209.058562 
L 155.888776 266.797326 
L 156.172169 266.743591 
L 156.455561 266.421178 
L 156.738954 266.609252 
L 157.022346 266.098765 
L 157.305739 265.991294 
L 157.872524 266.931665 
L 158.155917 266.770459 
L 159.006094 267.737697 
L 159.289487 267.710829 
L 159.57288 267.415284 
L 159.856272 267.898904 
L 160.139665 239.257897 
L 160.423057 269.134819 
L 160.70645 269.322894 
L 160.989843 269.376629 
L 161.556628 270.317 
L 161.84002 270.182661 
L 162.123413 270.290132 
L 162.690198 270.961825 
L 162.973591 269.887116 
L 163.256983 260.69835 
L 163.540376 216.850206 
L 163.823768 268.489994 
L 164.107161 268.678068 
L 164.390554 268.6512 
L 164.673946 268.973613 
L 165.240731 269.081084 
L 166.374302 269.161687 
L 166.657694 268.946745 
L 166.941087 269.564703 
L 167.224479 269.833381 
L 167.507872 269.591571 
L 167.791265 266.206236 
L 168.074657 251.778262 
L 168.35805 244.92699 
L 168.641442 247.157012 
L 168.924835 252.315617 
L 170.058405 260.94016 
L 170.62519 264.594172 
L 170.908583 258.92508 
L 171.191976 266.018162 
L 171.475368 265.991294 
L 172.042153 266.662988 
L 172.325546 265.588278 
L 172.608939 266.448046 
L 173.175724 266.904797 
L 174.309294 269.403497 
L 174.592687 269.161687 
L 174.876079 269.134819 
L 175.159472 269.457232 
L 175.442864 270.236397 
L 176.00965 270.773751 
L 176.293042 271.49918 
L 176.859827 269.376629 
L 177.426612 268.033242 
L 178.27679 268.248184 
L 178.560183 268.624332 
L 178.843575 268.678068 
L 179.126968 268.248184 
L 179.410361 254.679978 
L 179.693753 226.7644 
L 180.260538 268.570597 
L 180.827324 270.720016 
L 181.110716 270.961825 
L 181.677501 270.854354 
L 182.811072 271.284238 
L 183.094464 271.176767 
L 183.661249 270.290132 
L 184.228035 269.699042 
L 184.79482 269.376629 
L 185.078212 269.24229 
L 185.361605 266.313707 
L 185.644997 269.296026 
L 185.92839 269.296026 
L 186.211783 269.618439 
L 186.778568 269.672174 
L 187.06196 260.94016 
L 187.345353 270.021455 
L 187.912138 271.230503 
L 188.195531 271.284238 
L 188.478923 271.176767 
L 188.762316 271.337974 
L 189.329101 271.821593 
L 189.895886 272.117138 
L 190.179279 271.069296 
L 191.029457 269.940851 
L 191.596242 270.317 
L 192.163027 270.182661 
L 192.44642 270.451338 
L 193.013205 270.693148 
L 193.296597 270.451338 
L 194.146775 270.370735 
L 194.430168 271.660387 
L 195.563738 272.788831 
L 195.847131 272.735096 
L 196.413916 272.170874 
L 196.980701 272.170874 
L 197.830879 270.827487 
L 198.114271 270.988693 
L 198.397664 271.526048 
L 198.681056 271.49918 
L 198.964449 271.123032 
L 199.814627 270.961825 
L 200.098019 270.800619 
L 200.381412 270.827487 
L 200.664804 271.123032 
L 200.948197 271.633519 
L 201.23159 271.875328 
L 201.514982 273.084377 
L 201.798375 273.191847 
L 202.081767 273.138112 
L 202.931945 273.729202 
L 203.215338 274.481499 
L 203.49873 274.159086 
L 203.782123 271.660387 
L 204.065515 271.472312 
L 204.632301 270.854354 
L 204.915693 271.391709 
L 205.199086 271.364841 
L 205.482478 271.74099 
L 205.765871 271.606651 
L 206.616049 270.128926 
L 207.182834 270.66628 
L 207.466227 270.128926 
L 207.749619 270.531942 
L 208.033012 270.424471 
L 208.316404 270.773751 
L 208.599797 270.800619 
L 209.166582 271.902196 
L 209.733367 271.660387 
L 210.01676 271.606651 
L 210.300152 271.069296 
L 210.583545 270.07519 
L 210.866938 270.317 
L 211.15033 243.691074 
L 211.433723 270.558809 
L 212.000508 269.833381 
L 212.2839 270.102058 
L 212.567293 271.069296 
L 212.850686 270.558809 
L 213.134078 257.098074 
L 213.417471 234.905324 
L 213.700863 236.087505 
L 214.551041 241.998406 
L 215.401219 248.097382 
L 215.968004 252.557426 
L 216.251397 254.626242 
L 218.518537 63.704112 
L 218.80193 63.489171 
L 220.502285 63.919054 
L 220.785678 63.865319 
L 221.352463 63.327964 
L 221.635856 63.005551 
L 221.919248 62.978684 
L 222.202641 62.736874 
L 222.486034 96.751427 
L 222.769426 96.563353 
L 223.336211 165.720905 
L 223.902996 96.294676 
L 224.186389 164.270047 
L 224.469782 61.850239 
L 224.753174 62.360726 
L 225.036567 61.742768 
L 225.603352 62.871213 
L 226.170137 63.032419 
L 227.303707 63.462303 
L 227.5871 63.542906 
L 228.153885 62.683139 
L 228.437278 96.429015 
L 228.72067 199.493649 
L 229.004063 200.138474 
L 229.287456 235.012795 
L 229.570848 236.060637 
L 229.854241 235.30834 
L 230.137633 269.913984 
L 230.421026 235.89943 
L 230.704418 270.07519 
L 230.987811 200.675829 
L 231.271204 199.977268 
L 231.554596 234.153028 
L 231.837989 199.869797 
L 232.404774 62.978684 
L 232.688167 97.261914 
L 232.971559 62.710006 
L 233.254952 62.065181 
L 233.538344 63.005551 
L 234.10513 63.542906 
L 234.388522 63.569774 
L 234.671915 63.462303 
L 234.955307 62.710006 
L 235.2387 166.177656 
L 235.522092 165.77464 
L 235.805485 131.679484 
L 236.088878 131.786955 
L 236.37227 201.37439 
L 236.655663 201.562464 
L 237.222448 272.466419 
L 237.505841 272.197741 
L 237.789233 270.397603 
L 238.072626 234.878456 
L 238.356018 234.582911 
L 238.639411 268.731803 
L 238.922803 200.084739 
L 239.206196 200.031003 
L 239.489589 233.642541 
L 239.772981 164.888005 
L 240.056374 62.951816 
L 240.623159 63.623509 
L 241.189944 63.97279 
L 241.473337 63.704112 
L 241.756729 166.392598 
L 242.040122 201.025109 
L 242.323514 270.720016 
L 242.606907 130.282361 
L 242.8903 236.087505 
L 243.173692 271.284238 
L 244.02387 272.735096 
L 244.307263 272.761964 
L 244.590655 270.961825 
L 244.874048 269.994587 
L 245.15744 269.672174 
L 245.440833 269.779645 
L 245.724225 234.71725 
L 246.007618 166.338863 
L 246.291011 63.327964 
L 246.574403 63.569774 
L 247.424581 63.838451 
L 247.991366 63.73098 
L 248.274759 131.813822 
L 248.558151 80.281505 
L 248.841544 178.509947 
L 249.124937 166.338863 
L 249.408329 270.209529 
L 249.691722 131.894426 
L 249.975114 236.786066 
L 250.258507 201.240051 
L 250.541899 63.623509 
L 250.825292 64.187732 
L 251.108685 63.811583 
L 251.392077 63.623509 
L 251.67547 69.641882 
L 251.958862 64.107129 
L 252.525648 64.590748 
L 252.80904 64.913161 
L 253.092433 64.913161 
L 253.94261 63.704112 
L 254.226003 69.346337 
L 254.509396 63.3817 
L 254.792788 131.49141 
L 255.076181 233.830615 
L 255.359573 268.328787 
L 255.642966 234.314234 
L 255.926359 235.147134 
L 256.209751 269.699042 
L 257.059929 270.639413 
L 257.343321 271.257371 
L 257.626714 271.230503 
L 257.910107 271.418577 
L 258.193499 269.215423 
L 258.476892 268.355655 
L 258.760284 268.839274 
L 259.32707 268.678068 
L 259.610462 268.597465 
L 259.893855 268.30192 
L 260.177247 268.516861 
L 260.46064 234.636647 
L 260.744033 64.348938 
L 261.310818 65.074367 
L 261.59421 65.208706 
L 261.877603 64.966896 
L 262.160995 98.14855 
L 262.444388 235.469547 
L 262.727781 269.994587 
L 263.011173 201.454993 
L 263.294566 270.746884 
L 263.577958 271.230503 
L 263.861351 272.547022 
L 264.144744 272.92317 
L 264.428136 273.594864 
L 264.711529 273.030641 
L 264.994921 271.311106 
L 265.845099 269.4841 
L 266.411884 269.645306 
L 266.695277 269.349761 
L 267.545455 269.913984 
L 268.395632 269.457232 
L 268.679025 132.807929 
L 269.24581 270.639413 
L 269.529203 224.722452 
L 269.812595 259.247493 
L 270.095988 271.337974 
L 270.37938 272.278344 
L 270.662773 237.672701 
L 270.946166 272.33208 
L 271.229558 271.848461 
L 271.512951 271.848461 
L 271.796343 271.526048 
L 272.079736 270.961825 
L 272.363128 270.934958 
L 273.780091 269.940851 
L 274.063484 270.209529 
L 274.630269 270.263264 
L 274.913662 270.102058 
L 275.480447 245.061328 
L 276.047232 98.014211 
L 276.330625 97.90674 
L 276.614017 167.359837 
L 276.89741 167.870324 
L 277.180802 239.204162 
L 277.464195 209.139166 
L 277.747588 276.872727 
L 278.03098 238.98922 
L 278.314373 272.063403 
L 278.881158 270.800619 
L 279.447943 271.606651 
L 279.731336 270.531942 
L 280.014728 270.612545 
L 280.298121 272.950038 
L 280.581513 270.612545 
L 280.864906 270.693148 
L 281.148299 270.639413 
L 281.431691 270.370735 
L 281.715084 270.343868 
L 281.998476 269.967719 
L 282.281869 270.209529 
L 282.565262 235.738224 
L 284.832402 274.024747 
L 285.115795 274.10535 
L 285.68258 272.197741 
L 286.532758 271.633519 
L 286.81615 271.687254 
L 287.099543 236.571124 
L 287.382936 271.284238 
L 287.666328 271.337974 
L 287.949721 258.898212 
L 288.233113 271.015561 
L 288.516506 271.203635 
L 288.799898 271.176767 
L 289.083291 270.263264 
L 289.366684 270.988693 
L 289.650076 236.812933 
L 289.933469 272.439551 
L 290.216861 259.865451 
L 290.500254 271.687254 
L 290.783647 275.609944 
L 291.067039 240.359474 
L 291.350432 169.428652 
L 291.917217 99.787481 
L 292.200609 99.276995 
L 292.484002 272.439551 
L 292.767395 168.058398 
L 293.050787 271.848461 
L 293.33418 168.004662 
L 293.617572 271.687254 
L 293.900965 236.947272 
L 294.184358 236.97414 
L 294.46775 236.221843 
L 294.751143 270.773751 
L 295.034535 270.209529 
L 295.317928 264.835982 
L 295.884713 201.884877 
L 298.718639 195.194811 
L 299.002031 119.803945 
L 299.285424 151.507873 
L 299.568817 237.833907 
L 299.852209 240.252004 
L 300.135602 266.63612 
L 300.418994 208.306266 
L 300.702387 236.786066 
L 300.98578 146.214929 
L 301.552565 206.452392 
L 301.835957 175.688835 
L 302.11935 237.56523 
L 302.402743 241.084903 
L 302.686135 111.743624 
L 302.969528 149.546528 
L 303.536313 105.537177 
L 303.819705 196.591933 
L 304.103098 181.68034 
L 304.669883 213.00812 
L 304.953276 149.439057 
L 305.236668 197.290494 
L 305.520061 54.327273 
L 305.803454 149.51966 
L 306.086846 152.045227 
L 306.653631 105.080425 
L 306.937024 199.332442 
L 307.220416 175.178348 
L 307.503809 198.069659 
L 307.787202 198.714484 
L 308.070594 210.50942 
L 308.353987 268.06011 
L 308.637379 232.621567 
L 308.920772 56.100543 
L 309.204165 54.327273 
L 309.77095 54.434744 
L 310.054342 72.033111 
L 310.337735 136.085792 
L 310.621127 142.775859 
L 310.90452 88.261223 
L 311.187913 88.476165 
L 311.471305 88.261223 
L 311.754698 193.394673 
L 312.03809 211.58413 
L 312.321483 200.19221 
L 312.604876 245.679286 
L 312.888268 213.115591 
L 313.171661 200.19221 
L 313.455053 179.826466 
L 313.738446 179.987672 
L 314.021838 180.820572 
L 314.305231 202.905851 
L 314.588624 234.045557 
L 314.872016 149.868941 
L 315.155409 199.574252 
L 315.438801 200.998242 
L 315.722194 201.213184 
L 316.005587 234.260499 
L 316.288979 210.993039 
L 316.572372 210.670627 
L 316.855764 198.961667 
L 317.139157 234.179895 
L 317.42255 223.029785 
L 317.705942 199.70859 
L 318.272727 223.728346 
L 318.55612 257.930974 
L 318.839512 269.913984 
L 319.122905 269.806513 
L 319.406298 269.860248 
L 319.68969 269.672174 
L 319.973083 258.065312 
L 320.256475 200.971374 
L 320.539868 200.971374 
L 320.823261 201.347522 
L 321.106653 200.19221 
L 321.390046 200.648961 
L 321.673438 200.031003 
L 321.956831 234.287366 
L 322.240223 246.431583 
L 322.523616 200.54149 
L 323.090401 200.138474 
L 323.373794 211.422923 
L 323.940579 258.575799 
L 324.223972 237.914511 
L 324.507364 260.080392 
L 324.790757 271.311106 
L 325.074149 271.418577 
L 325.357542 271.096164 
L 325.640934 270.505074 
L 326.20772 202.583438 
L 326.491112 203.308867 
L 326.774505 202.825248 
L 327.057897 247.452557 
L 327.34129 202.825248 
L 327.624683 201.669935 
L 327.908075 211.530394 
L 328.191468 269.672174 
L 328.47486 269.645306 
L 328.758253 269.376629 
L 329.041646 269.376629 
L 329.325038 269.699042 
L 329.608431 269.430364 
L 329.891823 269.457232 
L 330.175216 247.157012 
L 330.458608 211.879675 
L 330.742001 270.773751 
L 331.025394 271.687254 
L 331.308786 271.929064 
L 331.592179 271.821593 
L 331.875571 272.170874 
L 332.442357 273.16498 
L 332.725749 260.617747 
L 333.009142 130.524171 
L 333.292534 201.347522 
L 333.575927 212.685707 
L 333.859319 268.731803 
L 334.142712 269.537835 
L 334.426105 234.206763 
L 334.709497 269.940851 
L 334.99289 269.860248 
L 335.276282 269.134819 
L 335.559675 257.366751 
L 335.843068 268.06011 
L 336.12646 269.027348 
L 336.409853 269.510968 
L 336.693245 270.424471 
L 337.26003 126.547746 
L 337.543423 80.22777 
L 337.826816 162.980396 
L 338.110208 54.622818 
L 338.393601 90.383774 
L 338.676993 54.327273 
L 338.960386 54.327273 
L 339.243779 54.488479 
L 339.527171 54.327273 
L 339.810564 54.327273 
L 343.211275 89.013519 
L 343.494667 151.77655 
L 343.77806 150.94365 
L 344.344845 234.341102 
L 344.628238 256.292042 
L 344.91163 257.796635 
L 345.195023 268.30192 
L 345.478415 268.248184 
L 345.761808 268.409391 
L 346.328593 249.064621 
L 346.611986 207.90325 
L 346.895378 216.877074 
L 347.178771 216.285983 
L 347.462164 257.420487 
L 347.745556 267.549623 
L 348.595734 268.221316 
L 348.879126 268.06011 
L 349.162519 113.436291 
L 349.445912 237.538362 
L 349.729304 268.382523 
L 350.296089 209.031695 
L 350.579482 258.011577 
L 350.862875 212.954384 
L 351.146267 216.742735 
L 351.42966 269.457232 
L 351.713052 269.457232 
L 351.996445 269.887116 
L 352.279837 270.773751 
L 352.56323 270.693148 
L 352.846623 271.337974 
L 353.413408 208.360001 
L 353.6968 206.532995 
L 353.980193 216.957677 
L 354.263586 205.64636 
L 354.546978 257.232412 
L 354.830371 268.812407 
L 355.113763 268.946745 
L 355.397156 268.839274 
L 355.680549 269.054216 
L 356.247334 268.89301 
L 356.530726 206.747937 
L 357.097511 268.436258 
L 357.380904 258.548932 
L 357.664297 217.253222 
L 357.947689 260.34907 
L 358.231082 242.320819 
L 358.514474 260.832689 
L 358.797867 213.733548 
L 359.08126 211.288585 
L 359.364652 223.56714 
L 359.648045 252.261881 
L 359.931437 222.73424 
L 360.21483 211.852807 
L 360.498222 109.244924 
L 360.781615 59.942629 
L 361.065008 60.614323 
L 361.631793 257.554825 
L 361.915185 249.037753 
L 362.198578 269.510968 
L 363.048756 269.618439 
L 363.332148 269.430364 
L 363.615541 237.968246 
L 363.898933 144.253584 
L 364.182326 268.758671 
L 364.465719 237.914511 
L 364.749111 270.639413 
L 365.032504 240.789358 
L 365.315896 231.03637 
L 365.599289 186.892681 
L 365.882682 186.865813 
L 366.166074 213.841019 
L 366.449467 213.760416 
L 366.732859 160.374225 
L 367.016252 54.327273 
L 367.299644 54.998966 
L 367.86643 57.121517 
L 368.149822 58.599243 
L 368.433215 61.366619 
L 368.716607 269.618439 
L 369 269.752777 
L 369.283393 269.430364 
L 369.850178 269.510968 
L 370.13357 238.236923 
L 370.416963 83.559369 
L 370.983748 269.564703 
L 371.267141 249.037753 
L 371.550533 270.90809 
L 371.833926 223.540272 
L 372.117318 223.217859 
L 372.400711 243.422396 
L 372.684104 213.679813 
L 372.967496 223.32533 
L 373.250889 213.572342 
L 373.534281 211.34232 
L 373.817674 55.67066 
L 374.101067 54.918363 
L 374.384459 54.649686 
L 374.667852 106.961167 
L 374.951244 107.095506 
L 375.518029 54.327273 
L 377.501778 54.407876 
L 378.068563 270.531942 
L 378.351955 251.160304 
L 378.635348 252.449956 
L 378.91874 220.638557 
L 379.202133 213.276797 
L 379.485526 212.658839 
L 379.768918 212.981252 
L 380.052311 213.00812 
L 380.335703 242.42829 
L 380.619096 228.752613 
L 380.902489 106.074532 
L 381.185881 54.327273 
L 381.752666 54.35414 
L 382.319451 230.606486 
L 382.602844 240.278871 
L 382.886237 255.00239 
L 383.169629 228.833216 
L 383.453022 239.929591 
L 383.736414 230.606486 
L 384.019807 230.418412 
L 384.3032 208.521208 
L 384.586592 260.644615 
L 384.869985 250.327404 
L 385.43677 271.660387 
L 385.720163 271.821593 
L 386.286948 239.768384 
L 386.57034 206.909144 
L 386.853733 208.225663 
L 387.137125 212.793178 
L 387.703911 231.600593 
L 387.987303 211.691601 
L 388.270696 211.34232 
L 388.554088 210.590023 
L 388.837481 211.127378 
L 389.404266 209.192901 
L 389.687659 240.037062 
L 389.971051 208.386869 
L 390.254444 208.628679 
L 390.537836 210.133272 
L 390.821229 208.73615 
L 391.104622 208.440605 
L 391.388014 206.398657 
L 391.671407 261.074499 
L 391.954799 253.551533 
L 392.238192 252.933575 
L 392.521585 213.00812 
L 392.804977 212.739442 
L 393.08837 210.885568 
L 393.371762 210.294478 
L 393.655155 211.960278 
L 394.22194 213.733548 
L 394.505333 213.115591 
L 394.788725 211.557262 
L 395.072118 211.879675 
L 395.35551 211.530394 
L 395.638903 211.93341 
L 395.922296 209.08543 
L 396.205688 207.876382 
L 396.489081 202.046083 
L 396.772473 206.425524 
L 397.055866 203.308867 
L 397.339259 208.628679 
L 397.622651 228.994422 
L 397.906044 207.876382 
L 398.189436 80.174034 
L 398.472829 54.381008 
L 398.756221 54.407876 
L 399.039614 161.233993 
L 399.323007 215.265009 
L 399.606399 212.685707 
L 399.889792 245.27627 
L 400.173184 234.12616 
L 400.456577 244.335899 
L 400.73997 218.650344 
L 401.023362 182.51324 
L 401.306755 56.557295 
L 401.590147 56.557295 
L 401.87354 56.879708 
L 402.156932 57.470798 
L 402.440325 58.760449 
L 402.723718 227.731639 
L 403.00711 246.055434 
L 403.290503 271.875328 
L 403.573895 262.229811 
L 403.857288 224.480643 
L 404.140681 242.508893 
L 404.707466 261.558118 
L 404.990858 240.493813 
L 405.274251 242.858174 
L 405.557643 227.274887 
L 405.841036 218.46227 
L 406.974606 108.573231 
L 407.257999 197.371097 
L 407.541392 187.698713 
L 407.824784 214.512713 
L 408.391569 54.327273 
L 408.674962 80.872596 
L 408.958354 54.327273 
L 410.091925 54.391755 
L 410.375317 55.831866 
L 410.65871 55.455718 
L 410.942103 55.67066 
L 411.225495 56.154279 
L 411.508888 54.972098 
L 411.79228 168.300207 
L 412.075673 128.025472 
L 412.359066 55.455718 
L 412.642458 127.918001 
L 412.925851 107.095506 
L 413.209243 191.191518 
L 413.492636 158.547219 
L 413.776028 154.140911 
L 414.059421 54.327273 
L 414.626206 236.033769 
L 415.192991 54.327273 
L 415.476384 54.327273 
L 416.043169 217.145751 
L 416.326562 162.496777 
L 416.609954 54.327273 
L 416.893347 54.515347 
L 417.176739 55.966205 
L 417.460132 58.948523 
L 417.743525 214.270903 
L 418.026917 205.431418 
L 418.31031 208.25253 
L 418.593702 183.587949 
L 418.877095 192.293095 
L 419.160488 256.802529 
L 419.44388 232.11108 
L 419.727273 223.164124 
L 420.294058 275.905489 
L 420.57745 245.464344 
L 420.860843 250.515479 
L 421.144236 266.743591 
L 421.427628 274.696441 
L 421.711021 54.327273 
L 423.411376 54.407876 
L 424.544947 58.303698 
L 424.828339 58.27683 
L 425.111732 58.061888 
L 425.395124 91.351012 
L 425.678517 265.964427 
L 425.96191 275.099457 
L 426.245302 274.965118 
L 426.528695 274.481499 
L 426.812087 275.52934 
L 427.378873 276.60405 
L 427.662265 276.442844 
L 428.22905 54.327273 
L 428.512443 91.0286 
L 428.795835 54.327273 
L 430.496191 54.327273 
L 431.062976 55.831866 
L 431.346369 55.697527 
L 431.629761 54.784024 
L 431.913154 90.894261 
L 432.196546 164.108841 
L 432.479939 273.863541 
L 433.046724 274.320292 
L 433.330117 237.32342 
L 433.613509 237.753304 
L 433.896902 274.293425 
L 434.180295 274.615837 
L 434.463687 274.159086 
L 434.74708 274.239689 
L 435.597257 274.10535 
L 435.88065 274.051615 
L 436.164043 273.863541 
L 436.730828 274.078483 
L 437.581006 274.051615 
L 437.864398 266.286839 
L 438.147791 274.024747 
L 438.431183 273.971012 
L 438.714576 274.132218 
L 438.997969 238.451865 
L 439.281361 90.947996 
L 439.564754 91.082335 
L 440.131539 273.944144 
L 440.698324 274.481499 
L 440.981717 274.34716 
L 441.265109 274.777044 
L 441.548502 273.863541 
L 441.831894 274.132218 
L 442.39868 274.132218 
L 442.682072 265.695749 
L 442.965465 273.836673 
L 443.248857 273.944144 
L 443.53225 273.917276 
L 443.815642 274.078483 
L 444.099035 201.347522 
L 444.382428 200.622093 
L 444.66582 272.251477 
L 444.949213 274.10535 
L 445.232605 273.944144 
L 445.515998 273.99788 
L 445.799391 256.641322 
L 446.082783 257.769767 
L 446.366176 274.58897 
L 446.649568 256.802529 
L 446.932961 273.51426 
L 447.216353 273.541128 
L 447.499746 274.078483 
L 448.066531 273.594864 
L 448.349924 263.815008 
L 448.633316 272.251477 
L 449.200102 270.720016 
L 449.483494 258.575799 
L 449.766887 261.289441 
L 450.050279 253.417194 
L 450.333672 254.06202 
L 450.617064 238.263791 
L 450.900457 252.503691 
L 451.467242 254.465036 
L 452.31742 260.94016 
L 452.600813 263.707537 
L 453.167598 265.991294 
L 453.45099 266.609252 
L 453.734383 263.922479 
L 454.017776 267.200342 
L 454.301168 267.119739 
L 454.867953 267.630226 
L 455.151346 268.06011 
L 455.434738 268.086978 
L 455.718131 257.50109 
L 456.001524 268.006375 
L 456.284916 268.06011 
L 456.851701 268.597465 
L 457.135094 268.167581 
L 457.701879 268.194449 
L 458.268664 268.704936 
L 458.552057 268.6512 
L 458.835449 257.286148 
L 459.118842 268.436258 
L 459.402235 268.30192 
L 459.96902 269.4841 
L 460.252412 262.579092 
L 460.535805 270.021455 
L 460.819198 270.478206 
L 461.10259 270.209529 
L 461.385983 263.707537 
L 461.669375 270.182661 
L 462.23616 269.322894 
L 462.802946 269.24229 
L 463.086338 269.72591 
L 463.369731 269.72591 
L 463.653123 269.457232 
L 465.070086 269.349761 
L 465.353479 269.296026 
L 465.636872 269.591571 
L 465.920264 269.618439 
L 466.203657 269.510968 
L 466.487049 269.860248 
L 467.053834 270.90809 
L 467.337227 270.585677 
L 467.62062 271.821593 
L 468.187405 272.815699 
L 468.470797 272.896302 
L 468.75419 271.418577 
L 469.037583 270.558809 
L 469.320975 270.505074 
L 469.88776 269.779645 
L 470.171153 269.833381 
L 470.454545 269.537835 
L 471.304723 269.994587 
L 471.588116 269.645306 
L 471.871508 269.752777 
L 472.154901 269.672174 
L 472.438294 269.913984 
L 472.721686 237.699569 
L 473.005079 269.4841 
L 473.288471 270.128926 
L 473.571864 263.358256 
L 473.855256 271.579783 
L 474.138649 272.009667 
L 474.422042 265.050924 
L 474.705434 272.788831 
L 475.272219 273.272451 
L 475.555612 269.027348 
L 475.839005 271.526048 
L 476.40579 270.988693 
L 476.689182 254.975523 
L 476.972575 270.639413 
L 477.255967 270.693148 
L 477.53936 248.392927 
L 477.822753 252.879839 
L 478.106145 270.773751 
L 478.389538 270.639413 
L 478.956323 270.988693 
L 479.239716 270.693148 
L 479.523108 270.155793 
L 479.806501 270.021455 
L 480.089893 270.370735 
L 480.373286 271.606651 
L 480.940071 272.278344 
L 481.506856 273.299318 
L 481.790249 273.621731 
L 482.073641 274.212821 
L 482.923819 270.988693 
L 483.207212 271.445445 
L 483.490604 271.49918 
L 483.773997 271.176767 
L 484.340782 271.257371 
L 484.624175 270.961825 
L 484.907567 223.110388 
L 485.19096 208.091324 
L 485.757745 263.976214 
L 486.041138 271.096164 
L 486.32453 270.773751 
L 486.607923 270.800619 
L 486.891315 247.345086 
L 487.174708 263.223918 
L 487.458101 272.520154 
L 487.741493 264.137421 
L 488.024886 273.003773 
L 488.308278 273.406789 
L 488.591671 273.594864 
L 488.875063 273.944144 
L 489.441849 272.466419 
L 490.008634 271.929064 
L 490.575419 271.526048 
L 490.858812 271.74099 
L 491.142204 271.714122 
L 491.425597 271.337974 
L 491.992382 269.618439 
L 492.275775 269.752777 
L 492.559167 270.693148 
L 492.84256 271.176767 
L 493.125952 270.639413 
L 493.409345 271.526048 
L 493.97613 272.063403 
L 494.259523 272.57389 
L 494.542915 272.708228 
L 494.826308 272.627625 
L 495.676486 273.99788 
L 495.959878 265.024056 
L 496.243271 264.835982 
L 496.526663 272.278344 
L 496.810056 272.385815 
L 497.093448 272.251477 
L 498.227019 272.412683 
L 498.510411 272.547022 
L 498.793804 272.385815 
L 499.360589 272.385815 
L 499.643982 272.681361 
L 499.927374 272.627625 
L 500.210767 272.224609 
L 500.494159 272.09027 
L 500.777552 272.224609 
L 501.060945 263.250785 
L 501.344337 268.919878 
L 501.911122 258.226519 
L 502.194515 204.276105 
L 502.477908 200.675829 
L 502.7613 221.444589 
L 503.044693 200.595226 
L 503.328085 246.297244 
L 503.611478 226.522591 
L 503.89487 250.515479 
L 504.178263 252.181278 
L 504.461656 255.190465 
L 504.745048 256.560719 
L 505.311833 261.961134 
L 505.595226 251.778262 
L 505.878619 265.158395 
L 506.162011 265.991294 
L 506.445404 257.151809 
L 506.728796 260.993895 
L 507.012189 266.421178 
L 507.295582 260.913292 
L 507.578974 241.219242 
L 507.862367 234.341102 
L 508.145759 199.413045 
L 508.429152 198.660749 
L 508.995937 268.89301 
L 509.27933 268.89301 
L 509.562722 252.799236 
L 509.846115 268.543729 
L 510.129507 260.456541 
L 510.4129 260.537144 
L 510.696293 267.657094 
L 510.979685 233.696276 
L 511.263078 267.522755 
L 511.54647 263.411992 
L 511.829863 186.973284 
L 512.113255 263.976214 
L 512.396648 228.537671 
L 512.963433 193.045392 
L 513.246826 232.218551 
L 513.530218 157.257568 
L 513.813611 178.268137 
L 514.097004 248.151118 
L 514.380396 267.791433 
L 514.947181 197.720378 
L 515.230574 252.718633 
L 515.513966 234.421705 
L 515.797359 270.746884 
L 516.080752 269.618439 
L 516.364144 269.054216 
L 524.865922 268.167581 
L 525.149314 269.403497 
L 525.7161 267.334681 
L 525.999492 263.19705 
L 526.282885 264.862849 
L 526.566277 269.537835 
L 526.84967 269.645306 
L 527.416455 234.045557 
L 527.699848 255.83529 
L 527.98324 234.609779 
L 528.266633 198.123394 
L 528.550025 234.770985 
L 529.116811 170.395891 
L 529.400203 235.120266 
L 529.683596 271.633519 
L 529.966988 270.370735 
L 530.250381 270.800619 
L 530.533773 270.397603 
L 530.817166 270.478206 
L 531.100559 270.317 
L 531.667344 270.343868 
L 531.950736 270.531942 
L 532.234129 270.290132 
L 532.517522 270.451338 
L 532.800914 247.237615 
L 533.084307 270.209529 
L 533.367699 270.531942 
L 533.651092 263.54633 
L 533.934485 269.860248 
L 534.217877 270.263264 
L 534.50127 234.582911 
L 534.784662 270.451338 
L 535.068055 270.424471 
L 535.63484 270.773751 
L 535.918233 270.07519 
L 536.201625 270.558809 
L 536.485018 270.558809 
L 537.335196 269.779645 
L 537.618588 269.672174 
L 537.901981 267.146607 
L 538.185373 269.752777 
L 538.468766 270.155793 
L 539.318944 270.155793 
L 539.602336 270.236397 
L 539.885729 270.182661 
L 540.169121 270.290132 
L 540.452514 270.128926 
L 540.735907 270.209529 
L 541.019299 263.035843 
L 541.302692 270.343868 
L 541.869477 271.472312 
L 542.152869 271.203635 
L 542.436262 271.337974 
L 542.719655 271.284238 
L 543.28644 273.003773 
L 543.569832 272.170874 
L 543.853225 272.036535 
L 544.136618 271.311106 
L 544.42001 271.418577 
L 544.703403 267.254078 
L 544.986795 270.827487 
L 545.270188 270.827487 
L 545.55358 270.988693 
L 545.836973 252.100675 
L 546.120366 260.402805 
L 546.403758 246.485318 
L 546.687151 245.733022 
L 546.970543 252.423088 
L 547.253936 270.90809 
L 547.537329 261.155102 
L 547.820721 271.364841 
L 548.104114 271.633519 
L 548.387506 271.472312 
L 548.670899 270.800619 
L 549.237684 272.09027 
L 549.521077 271.794725 
L 549.804469 271.848461 
L 550.087862 270.90809 
L 550.371254 271.875328 
L 550.654647 253.712739 
L 551.221432 271.284238 
L 552.07161 271.472312 
L 552.355003 263.761272 
L 552.638395 271.257371 
L 552.921788 271.364841 
L 553.488573 271.284238 
L 554.055358 271.418577 
L 554.338751 271.203635 
L 554.622143 265.158395 
L 554.905536 271.391709 
L 555.188928 271.902196 
L 555.472321 268.328787 
L 555.755714 272.305212 
L 556.039106 264.352362 
L 556.322499 271.633519 
L 556.605891 271.982799 
L 556.889284 271.955932 
L 557.172676 266.662988 
L 557.456069 271.472312 
L 557.739462 267.415284 
L 558.306247 270.478206 
L 558.873032 249.655711 
L 559.156425 255.647216 
L 559.439817 240.762491 
L 559.72321 241.138639 
L 560.006602 261.934266 
L 560.289995 248.12425 
L 560.573388 269.269158 
L 560.85678 269.054216 
L 561.140173 269.027348 
L 561.706958 267.549623 
L 561.99035 266.448046 
L 562.273743 265.964427 
L 562.840528 263.062711 
L 563.123921 264.191156 
L 563.407313 246.834599 
L 563.690706 265.534543 
L 563.974099 230.015396 
L 564.257491 262.982108 
L 564.540884 260.375938 
L 564.824276 260.510276 
L 565.107669 263.680669 
L 565.391061 250.864759 
L 565.674454 263.976214 
L 565.957847 265.104659 
L 566.241239 268.086978 
L 566.524632 262.068605 
L 566.808024 249.172092 
L 567.091417 217.333825 
L 567.37481 268.6512 
L 567.658202 268.6512 
L 567.941595 268.516861 
L 568.224987 268.597465 
L 568.50838 269.349761 
L 568.791772 269.645306 
L 569.075165 270.290132 
L 569.358558 263.653801 
L 569.64195 265.642014 
L 569.925343 270.424471 
L 570.208735 269.887116 
L 570.492128 270.182661 
L 570.775521 270.236397 
L 571.058913 269.699042 
L 571.342306 269.699042 
L 571.625698 260.94016 
L 571.909091 269.537835 
L 572.759269 269.699042 
L 573.609446 269.510968 
L 573.892839 269.699042 
L 574.176232 269.564703 
L 574.459624 269.806513 
L 574.743017 269.672174 
L 575.026409 270.07519 
L 575.309802 270.236397 
L 575.593195 256.050232 
L 575.876587 263.170182 
L 576.15998 262.632827 
L 576.443372 270.505074 
L 576.726765 270.693148 
L 577.010157 270.693148 
L 577.29355 270.558809 
L 577.576943 270.209529 
L 578.143728 270.155793 
L 578.993906 270.209529 
L 579.560691 270.102058 
L 579.844083 270.263264 
L 580.127476 270.102058 
L 580.694261 270.263264 
L 581.544439 269.940851 
L 581.827831 259.354964 
L 582.111224 270.693148 
L 582.394617 270.236397 
L 582.678009 270.827487 
L 582.961402 266.313707 
L 583.244794 264.486701 
L 583.528187 264.755378 
L 583.811579 258.468328 
L 584.094972 272.224609 
L 584.378365 270.934958 
L 584.661757 270.746884 
L 584.94515 270.773751 
L 585.228542 271.364841 
L 585.511935 270.693148 
L 586.07872 270.693148 
L 586.362113 270.209529 
L 587.212291 270.90809 
L 587.495683 270.827487 
L 587.779076 270.881222 
L 588.062468 263.250785 
L 588.345861 270.558809 
L 588.629253 264.003082 
L 588.912646 270.827487 
L 589.196039 271.526048 
L 589.479431 271.794725 
L 589.762824 271.794725 
L 590.046216 271.552916 
L 590.329609 271.982799 
L 590.613002 271.902196 
L 590.896394 272.09027 
L 591.463179 240.493813 
L 591.746572 271.042429 
L 592.029964 271.042429 
L 592.313357 258.575799 
L 592.59675 271.445445 
L 592.880142 239.875855 
L 593.163535 271.069296 
L 593.73032 271.364841 
L 594.013713 271.284238 
L 594.297105 271.472312 
L 594.580498 271.1499 
L 594.86389 271.230503 
L 595.147283 271.096164 
L 595.714068 271.257371 
L 595.997461 271.1499 
L 596.564246 270.693148 
L 596.847638 269.887116 
L 597.131031 265.668881 
L 597.414424 268.866142 
L 597.697816 260.778954 
L 597.981209 265.695749 
L 598.264601 266.125633 
L 598.547994 262.95524 
L 598.831386 254.65311 
L 599.114779 263.707537 
L 599.681564 265.45394 
L 599.964957 260.644615 
L 600.248349 261.719324 
L 600.531742 240.493813 
L 600.815135 258.763873 
L 601.098527 267.254078 
L 601.38192 267.576491 
L 601.665312 267.630226 
L 601.948705 267.495888 
L 602.232098 259.328096 
L 602.51549 268.275052 
L 602.798883 268.30192 
L 603.082275 256.050232 
L 603.365668 255.996497 
L 603.64906 261.316308 
L 603.932453 259.086286 
L 604.215846 265.427072 
L 604.499238 266.179368 
L 604.782631 260.510276 
L 605.066023 248.043647 
L 605.349416 196.108314 
L 605.632809 255.082994 
L 605.916201 267.630226 
L 606.199594 267.388417 
L 606.482986 267.791433 
L 606.766379 267.979507 
L 607.049771 268.006375 
L 607.333164 220.23554 
L 607.616557 254.841184 
L 608.183342 268.436258 
L 608.466734 232.809641 
L 608.750127 268.275052 
L 609.03352 262.229811 
L 609.316912 249.521372 
L 609.600305 261.799928 
L 609.883697 248.392927 
L 610.16709 268.89301 
L 610.450482 262.202944 
L 610.733875 250.918495 
L 611.017268 267.415284 
L 611.30066 253.5784 
L 611.584053 228.672009 
L 611.867445 266.904797 
L 612.434231 267.254078 
L 612.717623 246.915202 
L 613.001016 257.823503 
L 613.284408 258.656402 
L 613.567801 267.979507 
L 613.851193 268.328787 
L 614.134586 268.221316 
L 614.417979 264.916585 
L 614.701371 264.97032 
L 614.984764 258.710138 
L 615.268156 248.769076 
L 615.551549 252.423088 
L 615.834942 240.010194 
L 616.118334 262.874637 
L 616.401727 262.041737 
L 616.685119 264.191156 
L 616.968512 269.806513 
L 617.535297 230.042264 
L 617.81869 229.101893 
L 618.102082 236.356182 
L 618.385475 222.116282 
L 618.668867 227.677903 
L 618.95226 255.862158 
L 619.235653 261.584986 
L 619.519045 235.093398 
L 619.802438 269.188555 
L 620.08583 269.000481 
L 620.369223 269.269158 
L 620.936008 258.414593 
L 621.219401 269.188555 
L 621.502793 269.107952 
L 621.786186 268.167581 
L 622.069578 269.24229 
L 622.636364 250.676685 
L 622.636364 250.676685 
" clip-path="url(#p428326f828)" style="fill: none; stroke: #1f77b4; stroke-width: 1.5; stroke-linecap: square"/>
   </g>
   <g id="line2d_14">
    <path d="M 115.363636 269.882743 
L 115.930422 269.957314 
L 116.213814 269.699042 
L 119.614525 269.640088 
L 120.18131 268.954082 
L 120.748095 268.97288 
L 122.165058 269.043394 
L 122.448451 269.366359 
L 122.731844 269.517294 
L 123.015236 268.812407 
L 128.399695 268.605065 
L 128.96648 266.98767 
L 129.249873 266.94543 
L 129.533266 266.305168 
L 129.816658 254.599374 
L 132.933977 253.134619 
L 133.500762 252.169321 
L 133.784154 252.07984 
L 135.48451 250.894262 
L 136.334688 250.37916 
L 136.61808 268.516861 
L 142.002539 268.122892 
L 142.285932 268.534459 
L 142.569325 268.491089 
L 142.852717 268.604068 
L 143.13611 269.076069 
L 145.40325 269.432899 
L 148.803961 269.862499 
L 149.370747 269.459028 
L 149.937532 267.057604 
L 150.220924 266.448046 
L 150.504317 267.220646 
L 151.071102 257.160812 
L 151.354495 259.244382 
L 151.637887 262.763199 
L 151.92128 263.412491 
L 153.621635 263.847396 
L 153.905028 263.776591 
L 154.188421 263.357158 
L 154.755206 263.173616 
L 155.038598 262.576893 
L 155.605383 262.38972 
L 155.888776 262.144284 
L 156.455561 262.881954 
L 156.738954 262.978262 
L 157.022346 266.609252 
L 162.690198 266.144801 
L 162.973591 266.28132 
L 163.540376 267.171923 
L 163.823768 216.850206 
L 164.390554 216.741041 
L 164.673946 216.669372 
L 164.957339 215.329605 
L 165.240731 221.606827 
L 165.807517 221.459892 
L 166.090909 221.053531 
L 166.374302 220.98672 
L 166.657694 220.211895 
L 167.224479 219.730348 
L 167.791265 219.319942 
L 168.074657 218.698136 
L 168.641442 215.881478 
L 168.924835 215.01737 
L 169.208228 214.662249 
L 169.49162 213.491384 
L 169.775013 213.181768 
L 170.341798 212.010327 
L 170.62519 263.19705 
L 177.14322 264.292881 
L 177.426612 268.678068 
L 183.944642 269.663592 
L 184.228035 269.967719 
L 190.746064 270.807143 
L 191.029457 270.290132 
L 197.547486 271.117346 
L 197.830879 271.284238 
L 204.348908 272.073806 
L 204.632301 271.123032 
L 212.000508 271.954673 
L 212.567293 262.545955 
L 213.134078 268.701267 
L 213.417471 268.571206 
L 213.984256 268.696818 
L 216.251397 269.008272 
L 218.518537 267.731982 
L 219.085322 267.865991 
L 227.020315 268.982489 
L 238.356018 270.485834 
L 238.639411 234.582911 
L 241.189944 231.115786 
L 243.740477 227.234429 
L 245.15744 224.88304 
L 245.440833 269.672174 
L 250.541899 269.535637 
L 251.108685 269.215427 
L 251.67547 267.182584 
L 251.958862 267.019032 
L 252.242255 64.107129 
L 253.092433 78.655852 
L 253.94261 89.041023 
L 254.792788 96.833082 
L 255.642966 102.886618 
L 256.776536 109.106216 
L 257.910107 113.854819 
L 258.760284 116.720901 
L 259.043677 268.839274 
L 265.278314 268.52898 
L 266.128492 269.975967 
L 266.411884 269.872238 
L 267.828847 269.853063 
L 287.099543 269.213962 
L 287.382936 269.202614 
L 287.666328 271.284238 
L 292.767395 271.951181 
L 293.050787 168.058398 
L 295.60132 161.821627 
L 295.884713 161.170677 
L 299.002031 152.83078 
L 300.702387 150.007907 
L 302.402743 147.5535 
L 304.103098 145.42093 
L 304.386491 145.218966 
L 304.953276 143.482373 
L 305.236668 143.525225 
L 305.520061 142.50687 
L 306.086846 140.035978 
L 306.370239 140.14572 
L 306.937024 139.777839 
L 308.637379 138.929984 
L 310.90452 138.039274 
L 311.754698 137.696818 
L 312.888268 139.066222 
L 313.455053 138.8965 
L 316.005587 137.919711 
L 318.55612 137.141514 
L 318.839512 137.449311 
L 319.122905 137.975034 
L 319.68969 138.480485 
L 320.256475 136.075671 
L 320.539868 136.364155 
L 320.823261 136.134186 
L 321.673438 136.082172 
L 325.924327 135.755907 
L 332.158964 135.509448 
L 339.810564 135.384823 
L 343.211275 57.873814 
L 344.061453 74.349806 
L 344.91163 85.903099 
L 345.761808 94.445366 
L 346.611986 101.012829 
L 347.462164 106.206565 
L 348.595734 111.62437 
L 349.729304 115.815301 
L 350.579482 118.367183 
L 350.862875 93.661638 
L 353.413408 104.180387 
L 355.963941 113.746105 
L 356.247334 114.755705 
L 356.530726 269.215423 
L 363.048756 270.083336 
L 363.332148 269.699042 
L 369.850178 270.629594 
L 370.13357 269.215423 
L 376.6516 268.937344 
L 376.934992 54.327273 
L 377.78517 72.017442 
L 378.635348 83.917273 
L 379.768918 94.57594 
L 380.902489 101.668072 
L 382.036059 108.125879 
L 383.169629 113.097323 
L 383.453022 114.154858 
L 383.736414 270.505074 
L 390.254444 270.401429 
L 390.537836 209.246637 
L 393.08837 203.424561 
L 393.655155 202.850143 
L 395.35551 201.963642 
L 395.638903 201.523104 
L 397.055866 197.88843 
L 397.339259 203.604412 
L 400.456577 195.462819 
L 403.857288 186.046682 
L 404.140681 271.955932 
L 411.79228 272.034026 
L 412.075673 55.536321 
L 412.925851 72.847473 
L 413.776028 84.836256 
L 414.626206 93.651795 
L 415.476384 100.402742 
L 416.326562 105.725942 
L 417.460132 111.264595 
L 417.743525 112.434843 
L 418.026917 57.632004 
L 418.877095 74.252653 
L 419.727273 85.847714 
L 420.57745 94.414814 
L 421.427628 100.997744 
L 422.277806 106.20145 
L 423.411376 111.62744 
L 424.544947 115.823044 
L 425.678517 119.136694 
L 426.812087 121.79639 
L 427.945658 123.958258 
L 429.362621 126.126409 
L 430.779584 127.841483 
L 431.062976 128.140211 
L 431.346369 54.327273 
L 432.196546 72.042524 
L 433.046724 84.259811 
L 433.896902 93.176357 
L 434.74708 99.732339 
L 435.88065 106.610885 
L 437.01422 111.940682 
L 437.864398 115.12817 
L 438.147791 274.051615 
L 439.564754 274.040756 
L 440.131539 273.575277 
L 440.414931 273.575429 
L 440.981717 273.331648 
L 443.248857 273.414652 
L 444.099035 273.371305 
L 445.232605 272.246124 
L 446.082783 272.265188 
L 446.366176 274.132218 
L 447.499746 274.258202 
L 447.783139 273.971012 
L 448.916709 274.098556 
L 449.200102 273.847111 
L 449.483494 273.771828 
L 449.766887 274.13468 
L 450.050279 274.268547 
L 450.333672 274.116768 
L 450.617064 273.568347 
L 451.18385 271.770607 
L 451.467242 271.269555 
L 451.750635 253.739607 
L 452.034027 253.681689 
L 452.31742 253.742859 
L 452.884205 254.274842 
L 453.45099 254.388337 
L 454.017776 254.381623 
L 454.867953 254.670525 
L 465.070086 256.884709 
L 465.353479 269.457232 
L 471.871508 270.407019 
L 472.154901 269.860248 
L 479.523108 270.825418 
L 485.474352 271.628129 
L 485.757745 209.08543 
L 492.275775 212.255103 
L 492.559167 267.442152 
L 499.077197 268.502501 
L 499.360589 272.358948 
L 501.344337 272.500881 
L 501.911122 272.466163 
L 502.194515 272.214665 
L 503.044693 271.114812 
L 503.611478 270.562783 
L 504.461656 269.617107 
L 505.028441 269.632574 
L 505.878619 269.757058 
L 506.162011 226.012104 
L 512.680041 228.535742 
L 512.963433 246.243509 
L 515.230574 244.47957 
L 515.797359 244.573712 
L 516.080752 244.846037 
L 516.364144 243.748763 
L 525.149314 235.040753 
L 525.432707 234.638436 
L 525.7161 234.55205 
L 526.282885 235.015566 
L 526.566277 234.925003 
L 531.950736 227.148915 
L 533.084307 225.270394 
L 533.367699 223.594007 
L 537.335196 226.327624 
L 537.901981 226.612965 
L 539.885729 227.934546 
L 540.169121 270.263264 
L 546.687151 271.097982 
L 546.970543 245.840493 
L 550.93804 246.880067 
L 552.355003 246.788463 
L 552.921788 246.458057 
L 553.488573 246.939481 
L 553.771965 271.391709 
L 555.188928 271.302714 
L 555.472321 271.103669 
L 556.039106 270.252279 
L 556.605891 270.287645 
L 557.739462 270.319226 
L 558.022854 269.985748 
L 558.306247 269.842633 
L 558.589639 269.123877 
L 558.873032 268.083862 
L 559.156425 267.54997 
L 559.439817 267.466289 
L 559.72321 267.054986 
L 560.289995 264.934575 
L 560.573388 248.097382 
L 561.140173 247.711137 
L 561.423565 246.996206 
L 561.99035 244.520557 
L 562.840528 243.677273 
L 563.974099 241.036498 
L 564.540884 240.628207 
L 564.824276 240.650699 
L 567.091417 241.707799 
L 567.37481 255.996497 
L 571.342306 256.7677 
L 571.909091 256.263666 
L 572.192483 256.256218 
L 573.042661 256.77906 
L 573.892839 256.95278 
L 574.176232 269.134819 
L 575.026409 269.103491 
L 575.309802 268.854735 
L 575.593195 268.892419 
L 576.15998 269.19842 
L 580.694261 269.809808 
L 580.977654 270.263264 
L 587.495683 270.122212 
L 587.779076 270.90809 
L 594.013713 271.615584 
L 594.297105 271.253177 
L 594.580498 271.1499 
L 595.147283 271.161524 
L 595.430675 271.023216 
L 596.564246 269.959875 
L 597.131031 269.731757 
L 597.414424 269.73776 
L 597.697816 269.407558 
L 598.264601 268.088946 
L 599.114779 267.265203 
L 599.398172 267.213052 
L 601.098527 267.509771 
L 601.38192 267.361549 
L 601.665312 267.453516 
L 602.798883 266.35151 
L 603.082275 265.939143 
L 603.64906 264.533783 
L 604.215846 264.480403 
L 607.899949 263.900369 
L 608.183342 248.258589 
L 610.733875 249.177828 
L 611.017268 249.152596 
L 611.584053 248.328995 
L 612.150838 247.779241 
L 612.434231 247.75361 
L 613.001016 247.490516 
L 613.851193 247.849003 
L 614.701371 248.165847 
L 614.984764 268.006375 
L 621.502793 269.035337 
L 621.786186 269.296026 
L 622.636364 269.26241 
L 622.636364 269.26241 
" clip-path="url(#p428326f828)" style="fill: none; stroke: #ff7f0e; stroke-width: 1.5; stroke-linecap: square"/>
   </g>
   <g id="patch_3">
    <path d="M 90 288 
L 90 43.2 
" style="fill: none; stroke: #000000; stroke-width: 0.8; stroke-linejoin: miter; stroke-linecap: square"/>
   </g>
   <g id="patch_4">
    <path d="M 648 288 
L 648 43.2 
" style="fill: none; stroke: #000000; stroke-width: 0.8; stroke-linejoin: miter; stroke-linecap: square"/>
   </g>
   <g id="patch_5">
    <path d="M 90 288 
L 648 288 
" style="fill: none; stroke: #000000; stroke-width: 0.8; stroke-linejoin: miter; stroke-linecap: square"/>
   </g>
   <g id="patch_6">
    <path d="M 90 43.2 
L 648 43.2 
" style="fill: none; stroke: #000000; stroke-width: 0.8; stroke-linejoin: miter; stroke-linecap: square"/>
   </g>
   <g id="text_14">
    <!-- ARB056 -->
    <g transform="translate(345.1575 37.2) scale(0.12 -0.12)">
     <defs>
      <path id="DejaVuSans-41" d="M 2188 4044 
L 1331 1722 
L 3047 1722 
L 2188 4044 
z
M 1831 4666 
L 2547 4666 
L 4325 0 
L 3669 0 
L 3244 1197 
L 1141 1197 
L 716 0 
L 50 0 
L 1831 4666 
z
" transform="scale(0.015625)"/>
      <path id="DejaVuSans-52" d="M 2841 2188 
Q 3044 2119 3236 1894 
Q 3428 1669 3622 1275 
L 4263 0 
L 3584 0 
L 2988 1197 
Q 2756 1666 2539 1819 
Q 2322 1972 1947 1972 
L 1259 1972 
L 1259 0 
L 628 0 
L 628 4666 
L 2053 4666 
Q 2853 4666 3247 4331 
Q 3641 3997 3641 3322 
Q 3641 2881 3436 2590 
Q 3231 2300 2841 2188 
z
M 1259 4147 
L 1259 2491 
L 2053 2491 
Q 2509 2491 2742 2702 
Q 2975 2913 2975 3322 
Q 2975 3731 2742 3939 
Q 2509 4147 2053 4147 
L 1259 4147 
z
" transform="scale(0.015625)"/>
      <path id="DejaVuSans-42" d="M 1259 2228 
L 1259 519 
L 2272 519 
Q 2781 519 3026 730 
Q 3272 941 3272 1375 
Q 3272 1813 3026 2020 
Q 2781 2228 2272 2228 
L 1259 2228 
z
M 1259 4147 
L 1259 2741 
L 2194 2741 
Q 2656 2741 2882 2914 
Q 3109 3088 3109 3444 
Q 3109 3797 2882 3972 
Q 2656 4147 2194 4147 
L 1259 4147 
z
M 628 4666 
L 2241 4666 
Q 2963 4666 3353 4366 
Q 3744 4066 3744 3513 
Q 3744 3084 3544 2831 
Q 3344 2578 2956 2516 
Q 3422 2416 3680 2098 
Q 3938 1781 3938 1306 
Q 3938 681 3513 340 
Q 3088 0 2303 0 
L 628 0 
L 628 4666 
z
" transform="scale(0.015625)"/>
     </defs>
     <use xlink:href="#DejaVuSans-41"/>
     <use xlink:href="#DejaVuSans-52" x="68.408203"/>
     <use xlink:href="#DejaVuSans-42" x="137.890625"/>
     <use xlink:href="#DejaVuSans-30" x="206.494141"/>
     <use xlink:href="#DejaVuSans-35" x="270.117188"/>
     <use xlink:href="#DejaVuSans-36" x="333.740234"/>
    </g>
   </g>
   <g id="legend_1">
    <g id="patch_7">
     <path d="M 559.04375 80.55625 
L 641 80.55625 
Q 643 80.55625 643 78.55625 
L 643 50.2 
Q 643 48.2 641 48.2 
L 559.04375 48.2 
Q 557.04375 48.2 557.04375 50.2 
L 557.04375 78.55625 
Q 557.04375 80.55625 559.04375 80.55625 
z
" style="fill: #ffffff; opacity: 0.8; stroke: #cccccc; stroke-linejoin: miter"/>
    </g>
    <g id="line2d_15">
     <path d="M 561.04375 56.298437 
L 571.04375 56.298437 
L 581.04375 56.298437 
" style="fill: none; stroke: #1f77b4; stroke-width: 1.5; stroke-linecap: square"/>
    </g>
    <g id="text_15">
     <!-- measured -->
     <g transform="translate(589.04375 59.798437) scale(0.1 -0.1)">
      <defs>
       <path id="DejaVuSans-6d" d="M 3328 2828 
Q 3544 3216 3844 3400 
Q 4144 3584 4550 3584 
Q 5097 3584 5394 3201 
Q 5691 2819 5691 2113 
L 5691 0 
L 5113 0 
L 5113 2094 
Q 5113 2597 4934 2840 
Q 4756 3084 4391 3084 
Q 3944 3084 3684 2787 
Q 3425 2491 3425 1978 
L 3425 0 
L 2847 0 
L 2847 2094 
Q 2847 2600 2669 2842 
Q 2491 3084 2119 3084 
Q 1678 3084 1418 2786 
Q 1159 2488 1159 1978 
L 1159 0 
L 581 0 
L 581 3500 
L 1159 3500 
L 1159 2956 
Q 1356 3278 1631 3431 
Q 1906 3584 2284 3584 
Q 2666 3584 2933 3390 
Q 3200 3197 3328 2828 
z
" transform="scale(0.015625)"/>
       <path id="DejaVuSans-61" d="M 2194 1759 
Q 1497 1759 1228 1600 
Q 959 1441 959 1056 
Q 959 750 1161 570 
Q 1363 391 1709 391 
Q 2188 391 2477 730 
Q 2766 1069 2766 1631 
L 2766 1759 
L 2194 1759 
z
M 3341 1997 
L 3341 0 
L 2766 0 
L 2766 531 
Q 2569 213 2275 61 
Q 1981 -91 1556 -91 
Q 1019 -91 701 211 
Q 384 513 384 1019 
Q 384 1609 779 1909 
Q 1175 2209 1959 2209 
L 2766 2209 
L 2766 2266 
Q 2766 2663 2505 2880 
Q 2244 3097 1772 3097 
Q 1472 3097 1187 3025 
Q 903 2953 641 2809 
L 641 3341 
Q 956 3463 1253 3523 
Q 1550 3584 1831 3584 
Q 2591 3584 2966 3190 
Q 3341 2797 3341 1997 
z
" transform="scale(0.015625)"/>
       <path id="DejaVuSans-75" d="M 544 1381 
L 544 3500 
L 1119 3500 
L 1119 1403 
Q 1119 906 1312 657 
Q 1506 409 1894 409 
Q 2359 409 2629 706 
Q 2900 1003 2900 1516 
L 2900 3500 
L 3475 3500 
L 3475 0 
L 2900 0 
L 2900 538 
Q 2691 219 2414 64 
Q 2138 -91 1772 -91 
Q 1169 -91 856 284 
Q 544 659 544 1381 
z
M 1991 3584 
L 1991 3584 
z
" transform="scale(0.015625)"/>
       <path id="DejaVuSans-64" d="M 2906 2969 
L 2906 4863 
L 3481 4863 
L 3481 0 
L 2906 0 
L 2906 525 
Q 2725 213 2448 61 
Q 2172 -91 1784 -91 
Q 1150 -91 751 415 
Q 353 922 353 1747 
Q 353 2572 751 3078 
Q 1150 3584 1784 3584 
Q 2172 3584 2448 3432 
Q 2725 3281 2906 2969 
z
M 947 1747 
Q 947 1113 1208 752 
Q 1469 391 1925 391 
Q 2381 391 2643 752 
Q 2906 1113 2906 1747 
Q 2906 2381 2643 2742 
Q 2381 3103 1925 3103 
Q 1469 3103 1208 2742 
Q 947 2381 947 1747 
z
" transform="scale(0.015625)"/>
      </defs>
      <use xlink:href="#DejaVuSans-6d"/>
      <use xlink:href="#DejaVuSans-65" x="97.412109"/>
      <use xlink:href="#DejaVuSans-61" x="158.935547"/>
      <use xlink:href="#DejaVuSans-73" x="220.214844"/>
      <use xlink:href="#DejaVuSans-75" x="272.314453"/>
      <use xlink:href="#DejaVuSans-72" x="335.693359"/>
      <use xlink:href="#DejaVuSans-65" x="374.556641"/>
      <use xlink:href="#DejaVuSans-64" x="436.080078"/>
     </g>
    </g>
    <g id="line2d_16">
     <path d="M 561.04375 70.976562 
L 571.04375 70.976562 
L 581.04375 70.976562 
" style="fill: none; stroke: #ff7f0e; stroke-width: 1.5; stroke-linecap: square"/>
    </g>
    <g id="text_16">
     <!-- predicted -->
     <g transform="translate(589.04375 74.476562) scale(0.1 -0.1)">
      <defs>
       <path id="DejaVuSans-70" d="M 1159 525 
L 1159 -1331 
L 581 -1331 
L 581 3500 
L 1159 3500 
L 1159 2969 
Q 1341 3281 1617 3432 
Q 1894 3584 2278 3584 
Q 2916 3584 3314 3078 
Q 3713 2572 3713 1747 
Q 3713 922 3314 415 
Q 2916 -91 2278 -91 
Q 1894 -91 1617 61 
Q 1341 213 1159 525 
z
M 3116 1747 
Q 3116 2381 2855 2742 
Q 2594 3103 2138 3103 
Q 1681 3103 1420 2742 
Q 1159 2381 1159 1747 
Q 1159 1113 1420 752 
Q 1681 391 2138 391 
Q 2594 391 2855 752 
Q 3116 1113 3116 1747 
z
" transform="scale(0.015625)"/>
       <path id="DejaVuSans-69" d="M 603 3500 
L 1178 3500 
L 1178 0 
L 603 0 
L 603 3500 
z
M 603 4863 
L 1178 4863 
L 1178 4134 
L 603 4134 
L 603 4863 
z
" transform="scale(0.015625)"/>
       <path id="DejaVuSans-63" d="M 3122 3366 
L 3122 2828 
Q 2878 2963 2633 3030 
Q 2388 3097 2138 3097 
Q 1578 3097 1268 2742 
Q 959 2388 959 1747 
Q 959 1106 1268 751 
Q 1578 397 2138 397 
Q 2388 397 2633 464 
Q 2878 531 3122 666 
L 3122 134 
Q 2881 22 2623 -34 
Q 2366 -91 2075 -91 
Q 1284 -91 818 406 
Q 353 903 353 1747 
Q 353 2603 823 3093 
Q 1294 3584 2113 3584 
Q 2378 3584 2631 3529 
Q 2884 3475 3122 3366 
z
" transform="scale(0.015625)"/>
      </defs>
      <use xlink:href="#DejaVuSans-70"/>
      <use xlink:href="#DejaVuSans-72" x="63.476562"/>
      <use xlink:href="#DejaVuSans-65" x="102.339844"/>
      <use xlink:href="#DejaVuSans-64" x="163.863281"/>
      <use xlink:href="#DejaVuSans-69" x="227.339844"/>
      <use xlink:href="#DejaVuSans-63" x="255.123047"/>
      <use xlink:href="#DejaVuSans-74" x="310.103516"/>
      <use xlink:href="#DejaVuSans-65" x="349.3125"/>
      <use xlink:href="#DejaVuSans-64" x="410.835938"/>
     </g>
    </g>
   </g>
  </g>
 </g>
 <defs>
  <clipPath id="p428326f828">
   <rect x="90" y="43.2" width="558" height="244.8"/>
  </clipPath>
 </defs>
</svg>
