<?xml version="1.0" encoding="utf-8" standalone="no"?>
<!DOCTYPE svg PUBLIC "-//W3C//DTD SVG 1.1//EN"
  "http://www.w3.org/Graphics/SVG/1.1/DTD/svg11.dtd">
<svg xmlns:xlink="http://www.w3.org/1999/xlink" width="710.278552pt" height="351.43625pt" viewBox="0 0 710.278552 351.43625" xmlns="http://www.w3.org/2000/svg" version="1.1">
 <metadata>
  <rdf:RDF xmlns:dc="http://purl.org/dc/elements/1.1/" xmlns:cc="http://creativecommons.org/ns#" xmlns:rdf="http://www.w3.org/1999/02/22-rdf-syntax-ns#">
   <cc:Work>
    <dc:type rdf:resource="http://purl.org/dc/dcmitype/StillImage"/>
    <dc:date>2024-05-03T12:28:00.746473</dc:date>
    <dc:format>image/svg+xml</dc:format>
    <dc:creator>
     <cc:Agent>
      <dc:title>Matplotlib v3.7.1, https://matplotlib.org/</dc:title>
     </cc:Agent>
    </dc:creator>
   </cc:Work>
  </rdf:RDF>
 </metadata>
 <defs>
  <style type="text/css">*{stroke-linejoin: round; stroke-linecap: butt}</style>
 </defs>
 <g id="figure_1">
  <g id="patch_1">
   <path d="M 0 351.43625 
L 710.278552 351.43625 
L 710.278552 0 
L 0 0 
z
" style="fill: #ffffff"/>
  </g>
  <g id="axes_1">
   <g id="patch_2">
    <path d="M 20.5625 327.558125 
L 697.705023 327.558125 
L 697.705023 22.318125 
L 20.5625 22.318125 
z
" style="fill: #ffffff"/>
   </g>
   <g id="matplotlib.axis_1">
    <g id="xtick_1">
     <g id="line2d_1">
      <defs>
       <path id="m37f5711297" d="M 0 0 
L 0 3.5 
" style="stroke: #000000; stroke-width: 0.8"/>
      </defs>
      <g>
       <use xlink:href="#m37f5711297" x="110.676699" y="327.558125" style="stroke: #000000; stroke-width: 0.8"/>
      </g>
     </g>
     <g id="text_1">
      <!-- 2021-09 -->
      <g transform="translate(89.785293 342.156563) scale(0.1 -0.1)">
       <defs>
        <path id="DejaVuSans-32" d="M 1228 531 
L 3431 531 
L 3431 0 
L 469 0 
L 469 531 
Q 828 903 1448 1529 
Q 2069 2156 2228 2338 
Q 2531 2678 2651 2914 
Q 2772 3150 2772 3378 
Q 2772 3750 2511 3984 
Q 2250 4219 1831 4219 
Q 1534 4219 1204 4116 
Q 875 4013 500 3803 
L 500 4441 
Q 881 4594 1212 4672 
Q 1544 4750 1819 4750 
Q 2544 4750 2975 4387 
Q 3406 4025 3406 3419 
Q 3406 3131 3298 2873 
Q 3191 2616 2906 2266 
Q 2828 2175 2409 1742 
Q 1991 1309 1228 531 
z
" transform="scale(0.015625)"/>
        <path id="DejaVuSans-30" d="M 2034 4250 
Q 1547 4250 1301 3770 
Q 1056 3291 1056 2328 
Q 1056 1369 1301 889 
Q 1547 409 2034 409 
Q 2525 409 2770 889 
Q 3016 1369 3016 2328 
Q 3016 3291 2770 3770 
Q 2525 4250 2034 4250 
z
M 2034 4750 
Q 2819 4750 3233 4129 
Q 3647 3509 3647 2328 
Q 3647 1150 3233 529 
Q 2819 -91 2034 -91 
Q 1250 -91 836 529 
Q 422 1150 422 2328 
Q 422 3509 836 4129 
Q 1250 4750 2034 4750 
z
" transform="scale(0.015625)"/>
        <path id="DejaVuSans-31" d="M 794 531 
L 1825 531 
L 1825 4091 
L 703 3866 
L 703 4441 
L 1819 4666 
L 2450 4666 
L 2450 531 
L 3481 531 
L 3481 0 
L 794 0 
L 794 531 
z
" transform="scale(0.015625)"/>
        <path id="DejaVuSans-2d" d="M 313 2009 
L 1997 2009 
L 1997 1497 
L 313 1497 
L 313 2009 
z
" transform="scale(0.015625)"/>
        <path id="DejaVuSans-39" d="M 703 97 
L 703 672 
Q 941 559 1184 500 
Q 1428 441 1663 441 
Q 2288 441 2617 861 
Q 2947 1281 2994 2138 
Q 2813 1869 2534 1725 
Q 2256 1581 1919 1581 
Q 1219 1581 811 2004 
Q 403 2428 403 3163 
Q 403 3881 828 4315 
Q 1253 4750 1959 4750 
Q 2769 4750 3195 4129 
Q 3622 3509 3622 2328 
Q 3622 1225 3098 567 
Q 2575 -91 1691 -91 
Q 1453 -91 1209 -44 
Q 966 3 703 97 
z
M 1959 2075 
Q 2384 2075 2632 2365 
Q 2881 2656 2881 3163 
Q 2881 3666 2632 3958 
Q 2384 4250 1959 4250 
Q 1534 4250 1286 3958 
Q 1038 3666 1038 3163 
Q 1038 2656 1286 2365 
Q 1534 2075 1959 2075 
z
" transform="scale(0.015625)"/>
       </defs>
       <use xlink:href="#DejaVuSans-32"/>
       <use xlink:href="#DejaVuSans-30" x="63.623047"/>
       <use xlink:href="#DejaVuSans-32" x="127.246094"/>
       <use xlink:href="#DejaVuSans-31" x="190.869141"/>
       <use xlink:href="#DejaVuSans-2d" x="254.492188"/>
       <use xlink:href="#DejaVuSans-30" x="290.576172"/>
       <use xlink:href="#DejaVuSans-39" x="354.199219"/>
      </g>
     </g>
    </g>
    <g id="xtick_2">
     <g id="line2d_2">
      <g>
       <use xlink:href="#m37f5711297" x="205.402187" y="327.558125" style="stroke: #000000; stroke-width: 0.8"/>
      </g>
     </g>
     <g id="text_2">
      <!-- 2021-10 -->
      <g transform="translate(184.510781 342.156563) scale(0.1 -0.1)">
       <use xlink:href="#DejaVuSans-32"/>
       <use xlink:href="#DejaVuSans-30" x="63.623047"/>
       <use xlink:href="#DejaVuSans-32" x="127.246094"/>
       <use xlink:href="#DejaVuSans-31" x="190.869141"/>
       <use xlink:href="#DejaVuSans-2d" x="254.492188"/>
       <use xlink:href="#DejaVuSans-31" x="290.576172"/>
       <use xlink:href="#DejaVuSans-30" x="354.199219"/>
      </g>
     </g>
    </g>
    <g id="xtick_3">
     <g id="line2d_3">
      <g>
       <use xlink:href="#m37f5711297" x="303.285192" y="327.558125" style="stroke: #000000; stroke-width: 0.8"/>
      </g>
     </g>
     <g id="text_3">
      <!-- 2021-11 -->
      <g transform="translate(282.393786 342.156563) scale(0.1 -0.1)">
       <use xlink:href="#DejaVuSans-32"/>
       <use xlink:href="#DejaVuSans-30" x="63.623047"/>
       <use xlink:href="#DejaVuSans-32" x="127.246094"/>
       <use xlink:href="#DejaVuSans-31" x="190.869141"/>
       <use xlink:href="#DejaVuSans-2d" x="254.492188"/>
       <use xlink:href="#DejaVuSans-31" x="290.576172"/>
       <use xlink:href="#DejaVuSans-31" x="354.199219"/>
      </g>
     </g>
    </g>
    <g id="xtick_4">
     <g id="line2d_4">
      <g>
       <use xlink:href="#m37f5711297" x="398.01068" y="327.558125" style="stroke: #000000; stroke-width: 0.8"/>
      </g>
     </g>
     <g id="text_4">
      <!-- 2021-12 -->
      <g transform="translate(377.119274 342.156563) scale(0.1 -0.1)">
       <use xlink:href="#DejaVuSans-32"/>
       <use xlink:href="#DejaVuSans-30" x="63.623047"/>
       <use xlink:href="#DejaVuSans-32" x="127.246094"/>
       <use xlink:href="#DejaVuSans-31" x="190.869141"/>
       <use xlink:href="#DejaVuSans-2d" x="254.492188"/>
       <use xlink:href="#DejaVuSans-31" x="290.576172"/>
       <use xlink:href="#DejaVuSans-32" x="354.199219"/>
      </g>
     </g>
    </g>
    <g id="xtick_5">
     <g id="line2d_5">
      <g>
       <use xlink:href="#m37f5711297" x="495.893685" y="327.558125" style="stroke: #000000; stroke-width: 0.8"/>
      </g>
     </g>
     <g id="text_5">
      <!-- 2022-01 -->
      <g transform="translate(475.002279 342.156563) scale(0.1 -0.1)">
       <use xlink:href="#DejaVuSans-32"/>
       <use xlink:href="#DejaVuSans-30" x="63.623047"/>
       <use xlink:href="#DejaVuSans-32" x="127.246094"/>
       <use xlink:href="#DejaVuSans-32" x="190.869141"/>
       <use xlink:href="#DejaVuSans-2d" x="254.492188"/>
       <use xlink:href="#DejaVuSans-30" x="290.576172"/>
       <use xlink:href="#DejaVuSans-31" x="354.199219"/>
      </g>
     </g>
    </g>
    <g id="xtick_6">
     <g id="line2d_6">
      <g>
       <use xlink:href="#m37f5711297" x="593.77669" y="327.558125" style="stroke: #000000; stroke-width: 0.8"/>
      </g>
     </g>
     <g id="text_6">
      <!-- 2022-02 -->
      <g transform="translate(572.885284 342.156563) scale(0.1 -0.1)">
       <use xlink:href="#DejaVuSans-32"/>
       <use xlink:href="#DejaVuSans-30" x="63.623047"/>
       <use xlink:href="#DejaVuSans-32" x="127.246094"/>
       <use xlink:href="#DejaVuSans-32" x="190.869141"/>
       <use xlink:href="#DejaVuSans-2d" x="254.492188"/>
       <use xlink:href="#DejaVuSans-30" x="290.576172"/>
       <use xlink:href="#DejaVuSans-32" x="354.199219"/>
      </g>
     </g>
    </g>
    <g id="xtick_7">
     <g id="line2d_7">
      <g>
       <use xlink:href="#m37f5711297" x="682.187146" y="327.558125" style="stroke: #000000; stroke-width: 0.8"/>
      </g>
     </g>
     <g id="text_7">
      <!-- 2022-03 -->
      <g transform="translate(661.295739 342.156563) scale(0.1 -0.1)">
       <defs>
        <path id="DejaVuSans-33" d="M 2597 2516 
Q 3050 2419 3304 2112 
Q 3559 1806 3559 1356 
Q 3559 666 3084 287 
Q 2609 -91 1734 -91 
Q 1441 -91 1130 -33 
Q 819 25 488 141 
L 488 750 
Q 750 597 1062 519 
Q 1375 441 1716 441 
Q 2309 441 2620 675 
Q 2931 909 2931 1356 
Q 2931 1769 2642 2001 
Q 2353 2234 1838 2234 
L 1294 2234 
L 1294 2753 
L 1863 2753 
Q 2328 2753 2575 2939 
Q 2822 3125 2822 3475 
Q 2822 3834 2567 4026 
Q 2313 4219 1838 4219 
Q 1578 4219 1281 4162 
Q 984 4106 628 3988 
L 628 4550 
Q 988 4650 1302 4700 
Q 1616 4750 1894 4750 
Q 2613 4750 3031 4423 
Q 3450 4097 3450 3541 
Q 3450 3153 3228 2886 
Q 3006 2619 2597 2516 
z
" transform="scale(0.015625)"/>
       </defs>
       <use xlink:href="#DejaVuSans-32"/>
       <use xlink:href="#DejaVuSans-30" x="63.623047"/>
       <use xlink:href="#DejaVuSans-32" x="127.246094"/>
       <use xlink:href="#DejaVuSans-32" x="190.869141"/>
       <use xlink:href="#DejaVuSans-2d" x="254.492188"/>
       <use xlink:href="#DejaVuSans-30" x="290.576172"/>
       <use xlink:href="#DejaVuSans-33" x="354.199219"/>
      </g>
     </g>
    </g>
   </g>
   <g id="matplotlib.axis_2">
    <g id="ytick_1">
     <g id="line2d_8">
      <defs>
       <path id="md12ce0daf2" d="M 0 0 
L -3.5 0 
" style="stroke: #000000; stroke-width: 0.8"/>
      </defs>
      <g>
       <use xlink:href="#md12ce0daf2" x="20.5625" y="322.927486" style="stroke: #000000; stroke-width: 0.8"/>
      </g>
     </g>
     <g id="text_8">
      <!-- 0 -->
      <g transform="translate(7.2 326.726705) scale(0.1 -0.1)">
       <use xlink:href="#DejaVuSans-30"/>
      </g>
     </g>
    </g>
    <g id="ytick_2">
     <g id="line2d_9">
      <g>
       <use xlink:href="#md12ce0daf2" x="20.5625" y="259.822162" style="stroke: #000000; stroke-width: 0.8"/>
      </g>
     </g>
     <g id="text_9">
      <!-- 2 -->
      <g transform="translate(7.2 263.621381) scale(0.1 -0.1)">
       <use xlink:href="#DejaVuSans-32"/>
      </g>
     </g>
    </g>
    <g id="ytick_3">
     <g id="line2d_10">
      <g>
       <use xlink:href="#md12ce0daf2" x="20.5625" y="196.716838" style="stroke: #000000; stroke-width: 0.8"/>
      </g>
     </g>
     <g id="text_10">
      <!-- 4 -->
      <g transform="translate(7.2 200.516057) scale(0.1 -0.1)">
       <defs>
        <path id="DejaVuSans-34" d="M 2419 4116 
L 825 1625 
L 2419 1625 
L 2419 4116 
z
M 2253 4666 
L 3047 4666 
L 3047 1625 
L 3713 1625 
L 3713 1100 
L 3047 1100 
L 3047 0 
L 2419 0 
L 2419 1100 
L 313 1100 
L 313 1709 
L 2253 4666 
z
" transform="scale(0.015625)"/>
       </defs>
       <use xlink:href="#DejaVuSans-34"/>
      </g>
     </g>
    </g>
    <g id="ytick_4">
     <g id="line2d_11">
      <g>
       <use xlink:href="#md12ce0daf2" x="20.5625" y="133.611514" style="stroke: #000000; stroke-width: 0.8"/>
      </g>
     </g>
     <g id="text_11">
      <!-- 6 -->
      <g transform="translate(7.2 137.410733) scale(0.1 -0.1)">
       <defs>
        <path id="DejaVuSans-36" d="M 2113 2584 
Q 1688 2584 1439 2293 
Q 1191 2003 1191 1497 
Q 1191 994 1439 701 
Q 1688 409 2113 409 
Q 2538 409 2786 701 
Q 3034 994 3034 1497 
Q 3034 2003 2786 2293 
Q 2538 2584 2113 2584 
z
M 3366 4563 
L 3366 3988 
Q 3128 4100 2886 4159 
Q 2644 4219 2406 4219 
Q 1781 4219 1451 3797 
Q 1122 3375 1075 2522 
Q 1259 2794 1537 2939 
Q 1816 3084 2150 3084 
Q 2853 3084 3261 2657 
Q 3669 2231 3669 1497 
Q 3669 778 3244 343 
Q 2819 -91 2113 -91 
Q 1303 -91 875 529 
Q 447 1150 447 2328 
Q 447 3434 972 4092 
Q 1497 4750 2381 4750 
Q 2619 4750 2861 4703 
Q 3103 4656 3366 4563 
z
" transform="scale(0.015625)"/>
       </defs>
       <use xlink:href="#DejaVuSans-36"/>
      </g>
     </g>
    </g>
    <g id="ytick_5">
     <g id="line2d_12">
      <g>
       <use xlink:href="#md12ce0daf2" x="20.5625" y="70.50619" style="stroke: #000000; stroke-width: 0.8"/>
      </g>
     </g>
     <g id="text_12">
      <!-- 8 -->
      <g transform="translate(7.2 74.305409) scale(0.1 -0.1)">
       <defs>
        <path id="DejaVuSans-38" d="M 2034 2216 
Q 1584 2216 1326 1975 
Q 1069 1734 1069 1313 
Q 1069 891 1326 650 
Q 1584 409 2034 409 
Q 2484 409 2743 651 
Q 3003 894 3003 1313 
Q 3003 1734 2745 1975 
Q 2488 2216 2034 2216 
z
M 1403 2484 
Q 997 2584 770 2862 
Q 544 3141 544 3541 
Q 544 4100 942 4425 
Q 1341 4750 2034 4750 
Q 2731 4750 3128 4425 
Q 3525 4100 3525 3541 
Q 3525 3141 3298 2862 
Q 3072 2584 2669 2484 
Q 3125 2378 3379 2068 
Q 3634 1759 3634 1313 
Q 3634 634 3220 271 
Q 2806 -91 2034 -91 
Q 1263 -91 848 271 
Q 434 634 434 1313 
Q 434 1759 690 2068 
Q 947 2378 1403 2484 
z
M 1172 3481 
Q 1172 3119 1398 2916 
Q 1625 2713 2034 2713 
Q 2441 2713 2670 2916 
Q 2900 3119 2900 3481 
Q 2900 3844 2670 4047 
Q 2441 4250 2034 4250 
Q 1625 4250 1398 4047 
Q 1172 3844 1172 3481 
z
" transform="scale(0.015625)"/>
       </defs>
       <use xlink:href="#DejaVuSans-38"/>
      </g>
     </g>
    </g>
   </g>
   <g id="line2d_13">
    <path d="M 51.341706 220.696861 
L 52.525774 214.859619 
L 52.788901 214.386329 
L 53.052027 214.070802 
L 53.18359 214.070802 
L 53.315153 213.597512 
L 53.57828 212.493169 
L 53.841406 212.256524 
L 53.972969 212.493169 
L 54.104532 212.493169 
L 55.157038 214.307447 
L 55.420164 214.544092 
L 57.525175 217.147187 
L 57.656738 216.989424 
L 57.788301 216.595015 
L 58.182991 216.595015 
L 58.446117 216.910542 
L 58.57768 216.910542 
L 59.235496 217.541595 
L 59.498623 217.620477 
L 59.630186 217.857122 
L 59.893312 217.936003 
L 60.024875 218.172648 
L 60.419565 218.172648 
L 60.551128 217.936003 
L 61.47207 217.936003 
L 61.603633 218.172648 
L 61.998323 218.172648 
L 62.393013 218.488175 
L 62.524576 218.488175 
L 62.787702 218.961465 
L 63.840208 220.381335 
L 65.418966 223.378838 
L 65.813655 224.246536 
L 66.471471 225.271997 
L 67.523977 226.37634 
L 67.787103 226.297459 
L 67.918666 226.060814 
L 68.181792 226.060814 
L 68.576482 225.508642 
L 68.839608 225.429761 
L 69.102735 225.429761 
L 69.365861 225.114234 
L 69.628987 225.429761 
L 69.892114 225.508642 
L 70.418366 226.297459 
L 70.54993 226.37634 
L 70.944619 227.086275 
L 71.997125 229.137198 
L 72.786504 230.793713 
L 73.839009 232.765755 
L 74.365262 234.027861 
L 75.023078 235.368849 
L 75.680894 236.788719 
L 75.812457 236.315429 
L 76.338709 237.025364 
L 76.733399 237.735299 
L 76.996525 238.050825 
L 77.259652 238.050825 
L 78.575283 235.842139 
L 79.627789 234.737796 
L 79.890915 234.501151 
L 80.285605 233.948979 
L 80.417168 233.948979 
L 80.548731 233.633453 
L 80.680294 233.633453 
L 81.074984 233.317926 
L 82.127489 233.396808 
L 82.653742 233.633453 
L 82.785305 233.633453 
L 83.574684 234.422269 
L 83.837811 234.501151 
L 84.62719 235.053323 
L 84.890316 235.211086 
L 85.285006 235.289967 
L 85.416569 235.526612 
L 85.548132 235.526612 
L 85.942821 236.157666 
L 86.074385 236.157666 
L 86.469074 236.788719 
L 86.995327 237.104246 
L 87.258453 237.419772 
L 89.495027 240.259512 
L 89.889717 240.890565 
L 90.02128 240.890565 
L 90.942222 242.389316 
L 91.336912 242.783725 
L 91.600038 242.783725 
L 92.52098 243.730305 
L 92.784107 243.809186 
L 92.91567 244.045831 
L 93.047233 244.045831 
L 93.178796 244.361358 
L 93.310359 244.361358 
L 93.441923 244.676884 
L 93.573486 244.676884 
L 93.968175 245.229056 
L 94.757554 246.254518 
L 94.889118 246.570044 
L 95.020681 246.570044 
L 95.152244 246.885571 
L 95.283807 246.885571 
L 95.41537 247.201097 
L 95.678497 247.279979 
L 95.81006 247.516624 
L 96.994128 247.516624 
L 97.257255 247.832151 
L 97.388818 247.753269 
L 97.651944 244.676884 
L 97.915071 244.282476 
L 98.178197 244.519121 
L 98.70445 245.307938 
L 99.099139 245.623464 
L 99.756955 245.623464 
L 100.414771 244.676884 
L 100.809461 240.732802 
L 101.072587 239.943985 
L 101.335713 240.022867 
L 102.519782 242.07379 
L 102.651345 242.152671 
L 102.914471 242.468198 
L 104.230103 243.888068 
L 104.361666 241.206092 
L 104.887919 221.09127 
L 105.151046 223.063311 
L 105.677298 227.086275 
L 105.940425 228.2695 
L 106.335114 229.058317 
L 106.861367 229.531607 
L 106.99293 229.531607 
L 107.124493 229.294962 
L 107.256056 229.294962 
L 107.519183 228.979435 
L 107.782309 228.900553 
L 107.913872 228.900553 
L 108.308562 229.21608 
L 108.703251 229.21608 
L 109.097941 229.531607 
L 109.361067 229.531607 
L 109.49263 229.847133 
L 109.624194 229.847133 
L 109.88732 230.241542 
L 110.018883 230.478187 
L 110.282009 230.557068 
L 110.808262 231.424766 
L 110.939825 231.424766 
L 111.202952 231.740293 
L 111.334515 231.819175 
L 111.466078 232.05582 
L 111.597641 232.05582 
L 111.729204 232.371346 
L 111.860768 232.371346 
L 112.123894 232.765755 
L 113.176399 234.816678 
L 113.307963 234.580033 
L 113.571089 230.478187 
L 113.834215 229.531607 
L 114.097342 229.926015 
L 115.544537 233.948979 
L 115.6761 234.027861 
L 115.807663 233.396808 
L 116.070789 228.348382 
L 116.333916 226.612985 
L 116.728605 225.745287 
L 117.123295 223.378838 
L 118.1758 214.070802 
L 119.228306 208.627968 
L 119.754558 202.790726 
L 120.017685 202.396317 
L 120.280811 202.080791 
L 120.543937 202.396317 
L 120.807064 202.159672 
L 120.938627 202.001909 
L 121.333316 200.503158 
L 121.728006 198.294471 
L 122.648948 192.930519 
L 123.175201 190.327424 
L 124.096143 185.83117 
L 124.622396 184.332418 
L 125.543338 182.833667 
L 127.122096 182.833667 
L 127.385223 183.149194 
L 127.648349 183.228075 
L 128.043039 183.780247 
L 128.174602 183.859128 
L 128.437728 184.174655 
L 128.569291 183.780247 
L 129.095544 184.490182 
L 129.490234 185.278998 
L 129.621797 185.35788 
L 129.884923 185.752288 
L 130.279613 186.30446 
L 130.411176 186.30446 
L 130.805865 186.856631 
L 130.937428 186.935513 
L 131.068992 187.25104 
L 131.200555 187.25104 
L 132.121497 189.223081 
L 132.384623 188.828673 
L 132.779313 189.380844 
L 133.042439 189.459726 
L 133.174002 189.459726 
L 133.568692 188.670909 
L 135.279013 182.754785 
L 135.936829 181.729324 
L 136.726208 180.940507 
L 137.120898 180.624981 
L 137.384024 180.940507 
L 137.647151 180.940507 
L 138.699656 182.912549 
L 140.278414 187.960975 
L 141.33092 192.141702 
L 141.988735 194.90256 
L 143.567494 200.976448 
L 145.146252 207.208098 
L 145.277815 207.602507 
L 145.409378 207.523625 
L 145.672504 206.81369 
L 146.33032 203.185134 
L 147.119699 201.134211 
L 147.251263 200.818684 
L 148.040642 200.818684 
L 148.303768 201.134211 
L 148.961584 202.080791 
L 149.6194 203.816187 
L 150.277216 206.103755 
L 151.066595 209.18014 
L 151.198158 206.892572 
L 151.461284 199.398814 
L 151.592847 198.925525 
L 151.855974 199.872104 
L 152.776916 203.895069 
L 153.171606 204.605004 
L 153.303169 204.605004 
L 153.434732 204.92053 
L 154.487237 204.92053 
L 154.750364 204.526122 
L 155.276616 199.793223 
L 155.671306 198.057826 
L 156.329122 196.716838 
L 157.51319 194.744797 
L 157.90788 186.146696 
L 158.171006 185.121235 
L 158.434133 184.963472 
L 158.697259 185.042353 
L 158.828822 185.35788 
L 158.960385 185.35788 
L 159.355075 185.988933 
L 159.486638 185.988933 
L 159.618201 186.30446 
L 159.881328 186.383341 
L 160.012891 186.619986 
L 160.40758 186.698868 
L 160.539144 186.935513 
L 161.460086 187.014395 
L 161.723212 187.172158 
L 162.249465 186.935513 
L 162.381028 186.935513 
L 162.644154 187.25104 
L 163.433534 187.25104 
L 163.828223 185.594525 
L 164.354476 182.675904 
L 164.749165 181.098271 
L 164.880728 179.599519 
L 165.406981 166.189638 
L 165.670108 164.533123 
L 165.801671 164.612005 
L 166.064797 165.637466 
L 167.117303 171.316945 
L 167.775118 174.077803 
L 168.564497 176.680898 
L 168.827624 177.075306 
L 169.48544 178.810703 
L 169.880129 180.309454 
L 170.011692 180.388336 
L 170.143256 180.624981 
L 170.406382 176.365371 
L 170.669508 175.261028 
L 170.932635 176.128726 
L 171.327324 178.574058 
L 171.98514 183.228075 
L 172.906082 188.592028 
L 173.300772 190.169661 
L 173.432335 189.775253 
L 173.563898 188.434264 
L 173.827025 183.780247 
L 174.353277 179.047348 
L 174.747967 177.469714 
L 175.011093 177.154188 
L 175.537346 177.233069 
L 175.800472 177.548596 
L 176.063599 178.021886 
L 176.326725 178.574058 
L 176.458288 178.495176 
L 177.510794 155.225088 
L 177.77392 153.331928 
L 178.168609 152.306467 
L 178.826425 151.359887 
L 179.615804 149.230082 
L 180.27362 145.601526 
L 180.66831 141.657443 
L 180.931436 138.344414 
L 181.457689 127.853153 
L 181.983942 111.524651 
L 183.299573 63.012433 
L 183.957389 49.208144 
L 184.483642 43.213138 
L 184.878332 40.373398 
L 185.667711 37.375895 
L 186.193963 36.587079 
L 186.720216 36.19267 
L 186.983342 36.350434 
L 187.509595 36.744842 
L 188.562101 38.795765 
L 189.483043 41.87215 
L 190.272422 45.185179 
L 190.798675 47.788274 
L 191.85118 54.019924 
L 192.772122 60.093812 
L 193.035249 53.941043 
L 193.298375 52.126765 
L 193.693065 50.94354 
L 193.956191 50.94354 
L 194.74557 52.994463 
L 195.403386 57.096309 
L 195.929639 61.513682 
L 197.113707 73.81922 
L 198.560902 94.32845 
L 200.797476 126.433284 
L 202.113108 141.02639 
L 202.639361 145.601526 
L 206.060003 175.103265 
L 208.428141 196.79572 
L 209.21752 202.159672 
L 210.006899 206.734808 
L 210.927841 211.231063 
L 212.506599 217.383832 
L 214.874736 224.167654 
L 216.716621 228.506145 
L 216.848184 228.585027 
L 217.11131 228.2695 
L 217.637563 228.585027 
L 217.900689 228.979435 
L 218.426942 229.847133 
L 218.558505 229.926015 
L 218.953195 230.714831 
L 220.0057 232.05582 
L 220.40039 232.844636 
L 220.926642 233.633453 
L 221.189769 233.948979 
L 221.321332 234.027861 
L 221.452895 234.264506 
L 221.716022 234.264506 
L 222.110711 234.816678 
L 224.610411 237.735299 
L 224.873538 237.735299 
L 225.005101 238.050825 
L 225.399791 238.050825 
L 225.531354 238.366352 
L 225.662917 238.366352 
L 225.79448 238.681879 
L 226.057606 238.76076 
L 226.715422 239.786222 
L 227.241675 240.259512 
L 227.504801 240.338393 
L 227.636365 240.575038 
L 228.031054 240.575038 
L 228.29418 240.890565 
L 228.557307 240.890565 
L 228.820433 240.417275 
L 229.609812 239.628459 
L 229.872939 239.628459 
L 230.530754 240.417275 
L 230.662318 240.338393 
L 230.793881 240.575038 
L 231.057007 240.65392 
L 231.451697 241.206092 
L 231.714823 241.284973 
L 231.846386 241.521618 
L 232.372639 241.6005 
L 232.635765 241.837145 
L 232.898892 240.890565 
L 233.162018 241.284973 
L 233.293581 241.521618 
L 233.425144 241.521618 
L 233.688271 241.916026 
L 233.819834 242.152671 
L 233.951397 242.152671 
L 234.214523 242.468198 
L 234.47765 242.468198 
L 234.609213 242.783725 
L 234.872339 242.783725 
L 236.056408 244.045831 
L 236.187971 244.124713 
L 236.582661 244.676884 
L 236.714224 244.755766 
L 236.845787 244.992411 
L 236.97735 244.992411 
L 237.108913 245.307938 
L 238.161419 245.307938 
L 238.292982 245.623464 
L 238.556108 245.623464 
L 238.819235 245.938991 
L 238.950798 245.938991 
L 239.082361 246.254518 
L 239.213924 246.254518 
L 239.477051 246.570044 
L 239.608614 246.648926 
L 239.740177 246.885571 
L 240.003303 246.964452 
L 240.134866 247.201097 
L 240.397993 247.201097 
L 240.792682 247.516624 
L 240.924246 247.516624 
L 241.055809 247.832151 
L 241.450498 247.832151 
L 241.713625 248.147677 
L 242.108314 248.147677 
L 242.76613 248.77873 
L 243.029256 248.77873 
L 243.292383 249.094257 
L 243.555509 249.094257 
L 243.687072 249.25202 
L 243.950199 249.094257 
L 244.476451 249.094257 
L 244.608015 249.409784 
L 244.871141 249.409784 
L 245.002704 249.72531 
L 245.134267 249.72531 
L 245.528957 250.040837 
L 245.66052 250.040837 
L 246.186773 250.593009 
L 246.449899 249.567547 
L 246.713025 249.72531 
L 246.844589 249.72531 
L 250.923047 254.773736 
L 251.317737 255.404789 
L 251.4493 255.483671 
L 251.843989 256.035843 
L 251.975553 256.114724 
L 252.370242 256.666896 
L 252.501805 256.745778 
L 253.685874 258.717819 
L 256.185574 261.873085 
L 257.23808 263.608482 
L 257.632769 263.924008 
L 257.764332 263.924008 
L 258.027459 264.239535 
L 258.290585 264.239535 
L 258.685275 264.555061 
L 258.816838 264.555061 
L 259.079964 264.870588 
L 259.211527 264.94947 
L 259.606217 265.501641 
L 265.000307 271.812174 
L 265.13187 271.812174 
L 265.52656 272.1277 
L 265.658123 272.1277 
L 265.921249 272.522109 
L 266.052813 272.758754 
L 266.315939 272.837635 
L 266.447502 273.07428 
L 266.579065 273.07428 
L 266.842192 273.389807 
L 266.973755 273.389807 
L 267.236881 273.705333 
L 267.500008 273.784215 
L 267.894697 274.336387 
L 268.157823 274.415268 
L 268.289387 274.651913 
L 268.552513 274.651913 
L 268.684076 274.96744 
L 268.815639 274.96744 
L 269.078766 275.282967 
L 269.210329 275.361848 
L 269.341892 275.598493 
L 269.473455 275.598493 
L 269.868145 275.91402 
L 269.999708 275.992901 
L 270.131271 276.229546 
L 270.394398 276.229546 
L 271.052213 276.8606 
L 271.183777 276.8606 
L 271.578466 277.176126 
L 271.710029 277.255008 
L 271.841592 277.491653 
L 272.104719 277.570535 
L 272.236282 277.807179 
L 272.499408 277.886061 
L 272.630972 278.122706 
L 272.762535 278.122706 
L 273.157224 278.438233 
L 273.420351 278.517114 
L 273.551914 278.753759 
L 274.078166 278.753759 
L 274.472856 279.069286 
L 274.735982 279.148168 
L 274.867546 279.384813 
L 275.130672 279.384813 
L 275.393798 279.700339 
L 275.656925 279.700339 
L 275.788488 280.015866 
L 276.051614 280.015866 
L 276.446304 280.331392 
L 276.70943 280.331392 
L 276.972556 280.646919 
L 277.630372 280.646919 
L 277.893499 280.962446 
L 278.551315 280.962446 
L 278.814441 281.277972 
L 279.077567 281.277972 
L 279.340694 281.593499 
L 280.130073 281.672381 
L 280.261636 281.909026 
L 282.761336 281.909026 
L 282.892899 282.145671 
L 283.156026 281.909026 
L 283.287589 282.224552 
L 283.419152 281.356854 
L 283.550715 281.593499 
L 283.813842 281.672381 
L 283.945405 281.909026 
L 284.076968 281.909026 
L 284.340094 282.224552 
L 284.603221 282.224552 
L 284.99791 282.540079 
L 285.918853 282.540079 
L 286.050416 282.855605 
L 286.313542 282.697842 
L 286.445105 282.776724 
L 286.576668 282.540079 
L 286.971358 282.540079 
L 287.102921 282.855605 
L 287.366048 282.855605 
L 287.497611 283.171132 
L 287.760737 283.171132 
L 288.023863 283.486659 
L 288.418553 283.486659 
L 288.550116 283.802185 
L 289.076369 283.802185 
L 289.471058 284.117712 
L 289.997311 284.117712 
L 290.392001 284.433238 
L 290.523564 284.51212 
L 290.655127 284.748765 
L 290.918253 284.748765 
L 291.312943 285.064292 
L 291.970759 285.143173 
L 292.102322 285.379818 
L 292.233885 285.379818 
L 292.497011 284.51212 
L 292.628575 284.748765 
L 293.023264 284.748765 
L 293.154827 283.723304 
L 293.417954 279.936984 
L 293.549517 278.280469 
L 293.68108 278.517114 
L 294.602022 278.438233 
L 294.733585 278.201588 
L 295.391401 276.150665 
L 295.786091 275.598493 
L 296.838596 275.598493 
L 297.233286 275.91402 
L 297.364849 275.835138 
L 297.496412 275.598493 
L 297.627975 275.598493 
L 297.891102 275.204085 
L 298.022665 275.125203 
L 298.417354 271.969937 
L 299.206734 272.758754 
L 299.338297 272.837635 
L 299.732986 273.389807 
L 299.996113 273.389807 
L 300.653929 274.02086 
L 300.917055 274.02086 
L 301.180181 274.336387 
L 301.443308 274.415268 
L 301.574871 274.651913 
L 301.96956 274.730795 
L 302.101123 274.96744 
L 302.36425 274.96744 
L 302.627376 275.282967 
L 302.758939 275.282967 
L 303.022066 275.598493 
L 303.153629 275.598493 
L 303.285192 275.91402 
L 303.548318 275.992901 
L 303.679882 276.229546 
L 303.943008 276.308428 
L 304.074571 276.545073 
L 304.206134 276.545073 
L 304.86395 277.176126 
L 304.995513 277.176126 
L 305.127077 277.491653 
L 305.390203 277.491653 
L 305.653329 277.807179 
L 305.784892 277.807179 
L 306.048019 278.122706 
L 306.179582 278.201588 
L 306.574272 278.753759 
L 306.837398 278.832641 
L 306.968961 279.069286 
L 307.100524 279.069286 
L 307.75834 279.700339 
L 307.889903 279.779221 
L 308.021467 280.015866 
L 308.547719 280.015866 
L 308.679282 280.331392 
L 309.073972 280.331392 
L 309.205535 280.646919 
L 309.600225 280.646919 
L 309.863351 280.962446 
L 310.258041 280.962446 
L 310.65273 281.277972 
L 310.784293 281.277972 
L 311.178983 281.593499 
L 311.705236 281.593499 
L 311.968362 281.909026 
L 312.231488 281.909026 
L 312.363051 282.224552 
L 312.757741 282.303434 
L 312.889304 282.540079 
L 313.15243 282.540079 
L 313.283994 282.855605 
L 313.54712 282.934487 
L 313.678683 283.171132 
L 313.94181 283.250014 
L 314.073373 283.486659 
L 314.336499 283.486659 
L 314.731189 283.802185 
L 315.389004 283.802185 
L 315.652131 284.117712 
L 316.178384 284.117712 
L 316.309947 284.354357 
L 316.44151 284.275475 
L 316.573073 284.433238 
L 316.704636 284.117712 
L 317.099326 280.725801 
L 317.362452 280.252511 
L 317.757142 272.758754 
L 318.414958 266.684866 
L 318.678084 265.580523 
L 318.94121 265.028351 
L 319.072773 264.633943 
L 319.204337 263.766245 
L 319.862153 235.684376 
L 320.914658 226.612985 
L 321.309348 224.640944 
L 321.572474 223.931009 
L 321.8356 223.852128 
L 322.23029 223.852128 
L 323.940611 225.745287 
L 324.203737 225.745287 
L 324.335301 226.060814 
L 324.466864 226.060814 
L 324.598427 226.37634 
L 324.72999 226.37634 
L 325.256243 227.165157 
L 325.782496 227.953974 
L 327.755943 231.345885 
L 329.466265 233.239044 
L 329.597828 233.317926 
L 329.860954 233.633453 
L 331.308149 235.526612 
L 331.702839 236.078784 
L 331.965965 236.157666 
L 332.097528 236.473192 
L 332.229091 236.473192 
L 333.939413 238.681879 
L 334.334102 239.312932 
L 334.465665 239.391814 
L 334.597229 239.628459 
L 334.728792 239.628459 
L 334.860355 239.943985 
L 335.123481 239.943985 
L 335.255044 240.259512 
L 335.518171 240.338393 
L 335.649734 240.575038 
L 335.781297 240.575038 
L 335.91286 240.890565 
L 336.044423 240.890565 
L 336.439113 241.442737 
L 336.702239 241.6005 
L 337.228492 242.389316 
L 337.886308 242.783725 
L 338.017871 243.099251 
L 338.412561 243.178133 
L 338.544124 243.414778 
L 338.80725 243.414778 
L 339.20194 243.730305 
L 339.333503 243.730305 
L 339.465066 243.96695 
L 339.728192 243.730305 
L 340.122882 243.730305 
L 340.517572 244.045831 
L 340.780698 244.045831 
L 340.912261 244.361358 
L 341.438514 244.361358 
L 341.570077 244.676884 
L 341.964767 244.755766 
L 342.09633 244.992411 
L 342.885709 245.071293 
L 343.017272 245.307938 
L 343.280398 245.307938 
L 343.411961 245.465701 
L 343.675088 245.307938 
L 344.069777 245.307938 
L 344.201341 245.623464 
L 344.859156 245.623464 
L 345.122283 245.938991 
L 345.780099 245.938991 
L 346.043225 246.254518 
L 346.306351 246.254518 
L 346.437915 246.570044 
L 346.832604 246.570044 
L 347.227294 246.885571 
L 347.49042 246.964452 
L 347.621983 247.201097 
L 347.88511 247.279979 
L 348.016673 247.516624 
L 348.279799 247.516624 
L 348.542925 247.832151 
L 348.674489 247.832151 
L 349.069178 248.147677 
L 349.200741 248.147677 
L 349.595431 248.463204 
L 349.726994 248.463204 
L 349.858557 248.77873 
L 350.253247 248.77873 
L 350.38481 249.094257 
L 350.779499 249.173139 
L 350.911063 249.409784 
L 351.174189 249.409784 
L 351.305752 249.72531 
L 351.437315 249.72531 
L 351.568879 250.040837 
L 351.700442 250.040837 
L 352.358258 250.67189 
L 352.489821 250.750772 
L 352.621384 250.987417 
L 352.752947 250.987417 
L 353.147637 251.61847 
L 353.2792 251.697352 
L 353.410763 251.933997 
L 353.673889 251.933997 
L 353.805453 252.249523 
L 354.068579 252.249523 
L 356.042027 254.773736 
L 356.436716 255.404789 
L 356.568279 255.404789 
L 356.962969 255.720316 
L 357.226095 255.799198 
L 357.357658 256.035843 
L 357.489222 256.035843 
L 357.752348 256.430251 
L 357.883911 256.666896 
L 358.015474 256.666896 
L 358.147037 256.982423 
L 358.278601 256.982423 
L 358.67329 257.534594 
L 358.936417 257.771239 
L 359.462669 258.244529 
L 359.594232 258.244529 
L 359.857359 258.560056 
L 360.383611 258.560056 
L 361.041427 259.191109 
L 361.304554 259.191109 
L 361.56768 259.506636 
L 362.093933 259.506636 
L 362.357059 259.822162 
L 362.751749 259.901044 
L 362.883312 260.137689 
L 363.014875 260.137689 
L 363.278001 260.453215 
L 363.409565 260.453215 
L 363.541128 260.768742 
L 363.672691 260.768742 
L 364.593633 261.715322 
L 364.725196 261.794204 
L 364.85676 262.030848 
L 364.988323 262.030848 
L 365.119886 262.346375 
L 365.383012 262.346375 
L 365.646139 262.661902 
L 365.777702 262.661902 
L 366.172391 262.977428 
L 366.96177 262.977428 
L 367.093334 263.292955 
L 367.224897 263.292955 
L 368.145839 264.239535 
L 368.277402 264.239535 
L 368.408965 264.555061 
L 368.672092 264.555061 
L 368.803655 264.870588 
L 369.461471 264.870588 
L 369.724597 265.186115 
L 370.119287 265.186115 
L 370.25085 265.501641 
L 370.382413 265.501641 
L 371.303355 266.448221 
L 371.698045 266.448221 
L 371.829608 266.763748 
L 372.355861 266.763748 
L 373.276803 267.710328 
L 373.408366 267.710328 
L 373.803056 268.025854 
L 373.934619 268.025854 
L 374.066182 268.341381 
L 374.197745 268.341381 
L 374.460872 268.656908 
L 374.592435 268.656908 
L 374.723998 268.972434 
L 374.987124 269.051316 
L 375.118687 269.287961 
L 375.250251 269.287961 
L 376.697446 270.865594 
L 376.829009 270.865594 
L 376.960572 271.18112 
L 377.092135 271.18112 
L 377.749951 271.812174 
L 378.013077 271.812174 
L 378.144641 272.1277 
L 378.276204 272.1277 
L 378.93402 272.758754 
L 379.197146 272.758754 
L 379.460272 273.07428 
L 379.591836 273.07428 
L 380.249651 273.705333 
L 380.381215 273.705333 
L 380.644341 274.02086 
L 380.775904 274.02086 
L 381.03903 274.336387 
L 381.302157 274.336387 
L 381.565283 274.651913 
L 381.82841 274.730795 
L 381.959973 274.96744 
L 382.223099 275.046322 
L 382.354662 275.282967 
L 382.617789 275.282967 
L 382.880915 275.598493 
L 383.012478 275.677375 
L 383.144041 275.91402 
L 383.538731 275.91402 
L 383.801857 276.229546 
L 384.064984 276.229546 
L 384.459673 276.545073 
L 384.854363 276.623955 
L 384.985926 276.8606 
L 385.249052 276.8606 
L 385.906868 277.491653 
L 386.038431 277.491653 
L 386.301558 277.807179 
L 386.564684 277.807179 
L 386.82781 278.122706 
L 387.354063 278.201588 
L 387.485626 278.438233 
L 387.748753 278.438233 
L 387.880316 278.280469 
L 388.932821 279.384813 
L 389.064384 279.384813 
L 389.327511 279.700339 
L 389.590637 279.779221 
L 389.7222 280.015866 
L 390.248453 280.015866 
L 390.380016 280.331392 
L 391.169395 280.331392 
L 391.300958 280.646919 
L 391.564085 280.646919 
L 391.827211 280.962446 
L 391.958774 280.962446 
L 392.221901 281.277972 
L 392.485027 281.277972 
L 392.61659 281.593499 
L 393.01128 281.277972 
L 393.274406 281.593499 
L 393.800659 281.593499 
L 394.063785 281.909026 
L 394.853164 281.987907 
L 394.984727 282.224552 
L 395.116291 282.224552 
L 395.379417 282.540079 
L 395.642543 282.540079 
L 395.90567 282.855605 
L 396.168796 282.934487 
L 396.300359 283.171132 
L 396.563486 283.171132 
L 396.695049 283.486659 
L 397.484428 283.486659 
L 397.879117 283.802185 
L 398.142244 283.802185 
L 398.273807 284.117712 
L 398.668496 284.117712 
L 398.80006 284.433238 
L 399.326312 284.433238 
L 399.457875 284.748765 
L 400.378818 284.748765 
L 400.773507 285.064292 
L 401.694449 285.064292 
L 402.089139 285.379818 
L 402.615392 285.4587 
L 402.746955 285.695345 
L 403.931024 285.774227 
L 404.062587 286.010872 
L 404.457276 286.010872 
L 404.588839 286.326398 
L 405.246655 286.40528 
L 405.378218 286.641925 
L 406.167598 286.720806 
L 406.299161 286.957451 
L 407.220103 286.957451 
L 407.614793 287.272978 
L 407.877919 287.272978 
L 408.141045 287.588505 
L 408.930424 287.588505 
L 409.325114 287.904031 
L 410.114493 287.982913 
L 410.246056 288.219558 
L 411.298562 288.219558 
L 411.430125 288.535085 
L 413.140446 288.613966 
L 413.272009 288.850611 
L 415.245457 288.850611 
L 415.508583 289.166138 
L 417.087341 289.166138 
L 417.350468 289.481664 
L 419.455479 289.560546 
L 419.587042 289.797191 
L 420.376421 289.797191 
L 420.507984 290.112718 
L 421.692053 290.112718 
L 422.086742 290.428244 
L 423.139248 290.428244 
L 423.270811 290.743771 
L 424.718006 290.743771 
L 424.981132 291.059298 
L 425.375822 290.743771 
L 425.507385 290.743771 
L 425.902074 291.059298 
L 426.033637 290.822653 
L 426.296764 291.059298 
L 426.95458 290.980416 
L 427.480832 290.112718 
L 427.612396 290.112718 
L 427.875522 290.428244 
L 428.270212 290.428244 
L 428.533338 290.743771 
L 428.664901 290.507126 
L 428.796464 290.743771 
L 429.980533 290.743771 
L 430.112096 291.059298 
L 432.480233 291.138179 
L 432.611796 291.374824 
L 433.269612 291.374824 
L 433.401175 291.690351 
L 434.058991 291.690351 
L 434.453681 292.005877 
L 436.032439 292.005877 
L 436.164002 292.321404 
L 438.532139 292.321404 
L 438.795266 292.636931 
L 439.189955 292.715812 
L 439.321518 292.952457 
L 439.979334 292.952457 
L 440.242461 293.267984 
L 441.689656 293.267984 
L 441.821219 293.58351 
L 442.610598 293.58351 
L 442.873724 293.899037 
L 444.715609 293.899037 
L 444.847172 294.214564 
L 445.373425 294.214564 
L 445.504988 294.53009 
L 447.609999 294.608972 
L 447.741562 294.845617 
L 449.583446 294.845617 
L 449.71501 294.608972 
L 450.241262 294.845617 
L 450.899078 294.845617 
L 451.293768 295.161144 
L 451.556894 295.161144 
L 451.82002 295.47667 
L 452.740963 295.47667 
L 452.872526 295.161144 
L 454.056594 295.161144 
L 454.451284 295.47667 
L 457.740363 295.555552 
L 457.871927 295.792197 
L 458.529743 295.792197 
L 458.792869 296.107723 
L 462.476638 296.028842 
L 462.739764 292.558049 
L 463.002891 293.58351 
L 463.266017 293.267984 
L 463.39758 293.478335 
L 463.923833 294.53009 
L 464.055396 294.451209 
L 464.186959 294.214564 
L 465.897281 294.135682 
L 466.028844 293.899037 
L 466.29197 293.899037 
L 466.555096 293.58351 
L 468.133855 293.58351 
L 468.265418 293.899037 
L 469.975739 293.899037 
L 470.370429 293.58351 
L 470.633555 293.662392 
L 470.765118 293.899037 
L 472.607003 293.820155 
L 472.738566 293.58351 
L 473.133255 293.899037 
L 474.317324 293.899037 
L 474.58045 294.214564 
L 476.422335 294.214564 
L 476.553898 294.53009 
L 476.685461 294.53009 
L 476.817024 294.372327 
L 477.080151 294.53009 
L 477.737967 294.53009 
L 477.86953 294.845617 
L 479.185162 294.845617 
L 479.579851 295.161144 
L 480.237667 295.161144 
L 480.500793 295.47667 
L 481.290172 295.555552 
L 481.421736 295.792197 
L 482.342678 295.792197 
L 482.605804 296.107723 
L 483.395183 296.107723 
L 483.789873 296.42325 
L 484.447689 296.42325 
L 484.842378 296.738777 
L 485.631757 296.738777 
L 486.026447 297.054303 
L 486.5527 297.133185 
L 486.684263 297.36983 
L 488.131458 297.448712 
L 488.263021 297.685357 
L 488.394584 297.606475 
L 488.526147 297.685357 
L 488.65771 297.527593 
L 488.789274 297.685357 
L 488.920837 297.606475 
L 489.0524 297.685357 
L 489.183963 297.527593 
L 489.447089 297.685357 
L 489.841779 297.685357 
L 490.104905 298.000883 
L 492.999295 298.079765 
L 493.130858 298.31641 
L 494.972743 298.31641 
L 495.104306 298.158646 
L 495.367432 298.31641 
L 496.025248 298.395291 
L 496.156812 298.631936 
L 499.051201 298.631936 
L 499.445891 298.947463 
L 499.577454 298.868581 
L 499.709017 298.631936 
L 500.498396 298.710818 
L 500.62996 298.947463 
L 501.024649 298.868581 
L 501.287775 298.7897 
L 501.419339 298.7897 
L 501.550902 298.631936 
L 501.682465 298.710818 
L 501.945591 298.631936 
L 502.340281 298.947463 
L 503.52435 298.947463 
L 503.655913 298.631936 
L 504.313729 298.631936 
L 504.445292 298.7897 
L 504.708418 298.553055 
L 504.971544 298.631936 
L 505.103108 298.631936 
L 505.497797 298.947463 
L 505.892487 298.947463 
L 506.287176 299.26299 
L 506.944992 299.26299 
L 507.339682 298.947463 
L 508.392187 298.947463 
L 508.786877 299.26299 
L 511.81283 299.26299 
L 512.075956 299.578516 
L 513.523151 299.578516 
L 513.654714 299.815161 
L 514.838783 299.894043 
L 515.233472 300.209569 
L 517.864736 300.209569 
L 517.996299 300.525096 
L 518.785678 300.525096 
L 519.180368 300.840623 
L 519.969747 300.840623 
L 520.10131 300.682859 
L 520.496 300.840623 
L 521.285379 300.840623 
L 521.416942 301.156149 
L 523.521953 301.156149 
L 523.653516 301.392794 
L 523.785079 301.313913 
L 524.048205 301.471676 
L 524.574458 301.550558 
L 524.706021 301.787203 
L 529.836985 301.708321 
L 530.100112 301.471676 
L 531.28418 301.471676 
L 531.415743 301.156149 
L 532.205122 301.156149 
L 532.468249 300.840623 
L 533.783881 300.919504 
L 533.915444 301.156149 
L 535.494202 301.156149 
L 535.888891 301.471676 
L 537.07296 301.471676 
L 537.336086 301.787203 
L 538.388592 301.787203 
L 538.520155 302.102729 
L 540.362039 302.102729 
L 540.493603 302.418256 
L 541.546108 302.418256 
L 541.940798 302.733782 
L 543.256429 302.812664 
L 543.387993 303.049309 
L 544.703624 303.049309 
L 544.835188 302.733782 
L 544.966751 302.023848 
L 545.229877 298.158646 
L 545.493003 296.028842 
L 545.75613 295.555552 
L 545.887693 295.555552 
L 546.150819 295.713315 
L 546.282382 295.47667 
L 546.677072 295.397789 
L 547.203325 295.161144 
L 547.598014 295.240025 
L 547.861141 294.372327 
L 548.387393 292.084759 
L 548.518957 292.005877 
L 548.913646 292.321404 
L 549.176772 292.873576 
L 549.571462 293.977919 
L 550.097715 295.082262 
L 550.492404 295.47667 
L 550.755531 295.555552 
L 550.887094 295.792197 
L 551.15022 295.792197 
L 551.54491 295.47667 
L 552.597415 295.47667 
L 552.728978 295.792197 
L 553.255231 295.792197 
L 553.64992 296.107723 
L 555.623368 296.107723 
L 555.754931 296.42325 
L 559.4387 296.42325 
L 559.701827 296.738777 
L 561.938401 296.738777 
L 562.201527 297.054303 
L 563.911848 297.133185 
L 564.043412 297.36983 
L 565.490607 297.36983 
L 565.885296 297.685357 
L 566.806238 297.685357 
L 567.069365 298.000883 
L 567.595617 298.079765 
L 567.727181 298.31641 
L 569.174376 298.395291 
L 569.305939 298.631936 
L 570.226881 298.631936 
L 570.490007 298.947463 
L 570.753134 298.868581 
L 572.068765 298.947463 
L 572.463455 299.26299 
L 574.042213 299.26299 
L 574.305339 299.578516 
L 574.436903 299.499635 
L 574.568466 299.26299 
L 578.383798 299.26299 
L 578.515361 298.947463 
L 579.567867 298.947463 
L 579.962556 298.631936 
L 581.936004 298.631936 
L 582.19913 298.947463 
L 584.698831 298.947463 
L 584.961957 299.26299 
L 585.09352 299.184108 
L 585.356646 299.26299 
L 586.409152 299.26299 
L 586.672278 299.420753 
L 586.803841 299.499635 
L 586.935405 299.26299 
L 587.198531 299.341871 
L 587.461657 299.499635 
L 587.59322 299.578516 
L 587.724784 299.894043 
L 587.856347 299.894043 
L 588.119473 300.209569 
L 588.645726 300.288451 
L 588.777289 300.525096 
L 589.566668 300.525096 
L 589.698231 300.840623 
L 589.961358 300.682859 
L 590.224484 300.840623 
L 590.48761 300.603978 
L 590.619174 300.840623 
L 591.540116 300.919504 
L 591.671679 301.156149 
L 594.829195 301.156149 
L 594.960758 301.471676 
L 595.881701 301.471676 
L 596.144827 301.156149 
L 596.27639 301.471676 
L 596.407953 301.235031 
L 596.934206 301.471676 
L 598.907654 301.550558 
L 599.433907 301.787203 
L 600.223286 301.787203 
L 600.617975 302.102729 
L 600.749538 301.787203 
L 602.45986 301.787203 
L 602.591423 302.023848 
L 602.722986 301.787203 
L 603.380802 302.102729 
L 603.643928 302.023848 
L 603.775491 301.787203 
L 604.301744 301.787203 
L 604.56487 301.471676 
L 605.091123 301.471676 
L 605.617376 300.919504 
L 607.722387 300.840623 
L 607.985513 301.156149 
L 610.35365 301.156149 
L 610.485214 300.840623 
L 611.800845 300.840623 
L 612.195535 300.525096 
L 612.458661 300.446214 
L 612.590224 300.209569 
L 614.037419 300.209569 
L 614.168983 299.894043 
L 615.089925 299.894043 
L 615.221488 299.578516 
L 615.353051 299.578516 
L 615.879304 298.947463 
L 616.273993 299.26299 
L 617.326499 299.26299 
L 617.458062 298.947463 
L 618.379004 298.868581 
L 619.299946 296.344368 
L 619.957762 295.318907 
L 621.010268 294.214564 
L 621.141831 294.135682 
L 621.93121 292.873576 
L 622.194336 292.952457 
L 623.246842 292.952457 
L 623.641531 293.267984 
L 625.220289 293.267984 
L 625.351853 293.58351 
L 626.667484 293.662392 
L 626.799048 293.899037 
L 627.851553 293.977919 
L 627.983116 294.214564 
L 628.246243 294.293445 
L 628.377806 294.53009 
L 628.772495 294.53009 
L 628.904058 294.845617 
L 629.298748 294.924499 
L 629.430311 295.161144 
L 630.877506 295.161144 
L 631.009069 295.47667 
L 631.272196 295.47667 
L 631.666885 295.792197 
L 631.798448 295.871078 
L 631.930012 296.107723 
L 633.11408 296.107723 
L 633.771896 295.47667 
L 634.429712 295.397789 
L 634.824401 295.240025 
L 634.955965 295.47667 
L 635.219091 295.47667 
L 635.350654 295.792197 
L 635.745344 295.792197 
L 636.00847 296.107723 
L 637.060976 296.186605 
L 637.587228 296.42325 
L 638.113481 296.42325 
L 638.245044 296.738777 
L 638.771297 296.738777 
L 638.90286 297.054303 
L 639.429113 297.054303 
L 639.692239 297.36983 
L 639.955365 297.36983 
L 640.218492 297.685357 
L 640.350055 297.606475 
L 640.481618 297.685357 
L 640.613181 297.606475 
L 641.007871 298.000883 
L 642.060376 298.000883 
L 642.191939 297.685357 
L 643.244445 297.685357 
L 643.639134 298.000883 
L 643.902261 298.000883 
L 644.29695 298.31641 
L 644.823203 298.31641 
L 644.954766 298.553055 
L 646.007272 298.631936 
L 646.138835 298.710818 
L 646.270398 298.631936 
L 646.928214 298.947463 
L 647.717593 298.947463 
L 647.980719 299.26299 
L 648.506972 299.26299 
L 648.901662 299.578516 
L 650.611983 299.578516 
L 650.875109 299.894043 
L 652.98012 299.972925 
L 653.111683 300.209569 
L 653.901062 300.209569 
L 654.295752 301.156149 
L 654.427315 301.156149 
L 654.822005 301.471676 
L 656.137636 301.471676 
L 656.2692 301.787203 
L 656.663889 301.866084 
L 656.795452 302.102729 
L 657.979521 302.102729 
L 658.242647 302.418256 
L 659.426716 302.418256 
L 659.689842 302.733782 
L 662.057979 302.733782 
L 662.321106 303.049309 
L 663.505174 303.049309 
L 663.636738 303.364836 
L 664.294553 303.285954 
L 664.426117 303.049309 
L 665.347059 303.049309 
L 665.741748 303.364836 
L 666.925817 303.364836 
L 666.925817 303.364836 
" clip-path="url(#p53126f0475)" style="fill: none; stroke: #1f77b4; stroke-width: 1.5; stroke-linecap: square"/>
   </g>
   <g id="line2d_14">
    <path d="M 51.341706 221.249033 
L 51.999521 220.97537 
L 53.052027 220.650111 
L 53.18359 220.465756 
L 53.841406 217.504166 
L 54.236095 216.854731 
L 55.025475 216.241793 
L 56.341106 215.509479 
L 56.604233 214.302578 
L 56.867359 213.09945 
L 57.262049 212.610375 
L 57.393612 212.516608 
L 57.525175 212.196383 
L 57.788301 210.604906 
L 58.051428 209.010287 
L 58.314554 208.636251 
L 59.367059 207.834776 
L 59.630186 207.051722 
L 60.156439 205.086455 
L 60.551128 204.372942 
L 61.077381 203.608479 
L 61.735197 203.209167 
L 62.919265 202.548021 
L 63.708644 202.607982 
L 65.024276 203.315796 
L 67.523977 205.012249 
L 69.234298 206.510148 
L 69.497424 206.459131 
L 69.892114 206.647697 
L 70.15524 206.221251 
L 70.418366 206.391114 
L 71.470872 207.684324 
L 72.391814 208.721264 
L 72.65494 208.831922 
L 73.44432 209.926015 
L 75.286204 212.627039 
L 75.54933 212.755479 
L 75.812457 212.811476 
L 76.338709 212.183002 
L 76.864962 212.615322 
L 77.522778 213.151627 
L 77.785904 213.331345 
L 78.44372 213.869507 
L 78.706847 213.663777 
L 79.101536 213.939151 
L 79.496226 214.353374 
L 81.995926 217.351379 
L 82.259052 217.34901 
L 82.653742 217.773737 
L 84.2325 220.143638 
L 84.62719 220.347489 
L 85.153442 221.070782 
L 85.416569 220.713432 
L 85.679695 220.929677 
L 86.995327 222.895292 
L 88.047832 224.36505 
L 88.968775 225.045033 
L 89.231901 225.192173 
L 90.02128 226.401563 
L 91.336912 228.484057 
L 91.731601 227.341488 
L 91.994728 227.591167 
L 93.441923 229.761561 
L 94.362865 231.01184 
L 94.757554 230.967353 
L 95.546933 232.086491 
L 97.257255 234.649669 
L 97.388818 234.228237 
L 97.783508 230.896354 
L 98.046634 230.18203 
L 98.30976 230.090609 
L 98.967576 230.310107 
L 100.151645 230.917994 
L 100.414771 230.994889 
L 100.546334 230.569484 
L 101.072587 225.023437 
L 101.467277 223.955398 
L 101.993529 223.349571 
L 102.651345 223.140462 
L 103.835414 222.925552 
L 104.230103 222.598498 
L 104.887919 219.922125 
L 105.545735 218.56302 
L 106.59824 217.010471 
L 107.256056 216.029708 
L 107.913872 215.255306 
L 108.966378 214.498406 
L 110.018883 213.96168 
L 110.939825 213.840436 
L 111.992331 213.94805 
L 113.176399 214.16853 
L 113.571089 213.633969 
L 114.360468 212.37315 
L 114.886721 211.693826 
L 116.070789 208.69728 
L 116.597042 206.344611 
L 117.649547 203.303084 
L 118.1758 202.293415 
L 118.57049 201.509341 
L 118.833616 200.178995 
L 119.228306 198.73661 
L 119.622995 197.120745 
L 120.017685 195.220701 
L 120.412374 194.045624 
L 121.46488 191.825006 
L 122.912075 189.088597 
L 123.833017 187.79261 
L 124.622396 187.225571 
L 126.069591 186.546303 
L 126.727407 186.509586 
L 127.648349 186.704374 
L 128.437728 186.92682 
L 129.227107 186.858214 
L 129.884923 187.032316 
L 130.937428 187.69162 
L 131.989934 188.399396 
L 132.910876 188.614542 
L 133.700255 189.202422 
L 134.094945 189.108878 
L 134.358071 189.192206 
L 136.726208 190.743981 
L 138.304966 192.65633 
L 139.094346 193.503231 
L 141.33092 197.238214 
L 144.488436 203.176154 
L 145.146252 204.371512 
L 145.540941 203.03636 
L 145.672504 203.015347 
L 146.067194 203.47815 
L 148.172205 206.558694 
L 148.698458 203.609277 
L 148.961584 203.764813 
L 149.487837 204.458627 
L 150.935032 206.562393 
L 151.066595 206.584849 
L 151.198158 206.275179 
L 151.329721 205.388321 
L 151.724411 199.998673 
L 151.987537 198.947803 
L 152.51379 198.204027 
L 153.040042 197.670161 
L 154.224111 196.673999 
L 154.355674 196.378803 
L 155.276616 191.781203 
L 155.671306 191.013151 
L 156.723811 189.841674 
L 157.381627 189.292632 
L 157.644754 188.595181 
L 158.039443 187.525438 
L 159.223512 185.519643 
L 160.40758 183.87573 
L 161.065396 181.317619 
L 161.460086 180.864444 
L 163.433534 179.447125 
L 164.091349 176.870775 
L 165.012292 174.38245 
L 165.406981 172.963998 
L 166.19636 171.424889 
L 166.59105 170.552689 
L 167.906682 167.389943 
L 170.143256 164.897968 
L 170.406382 163.65109 
L 170.669508 162.335838 
L 171.195761 161.277665 
L 172.248266 159.7532 
L 174.616404 157.304934 
L 175.668909 156.853576 
L 176.063599 156.724773 
L 176.458288 155.008835 
L 176.721415 152.479923 
L 177.116104 147.460297 
L 177.37923 146.181267 
L 177.905483 144.960099 
L 179.615804 141.850554 
L 180.010494 141.204056 
L 180.405184 139.93756 
L 180.931436 139.495151 
L 181.589252 139.208838 
L 183.299573 138.902965 
L 184.352079 139.391851 
L 185.273021 140.187299 
L 186.193963 140.988557 
L 186.45709 141.204056 
L 188.167411 143.486696 
L 189.483043 145.517244 
L 190.009296 146.473327 
L 192.24587 151.230227 
L 192.640559 151.880423 
L 193.166812 150.954314 
L 194.087754 149.552667 
L 195.008696 148.578679 
L 195.798075 148.054918 
L 196.587454 147.795263 
L 197.376834 147.779311 
L 198.166213 147.987948 
L 199.087155 148.4914 
L 200.008097 149.24976 
L 201.060603 150.397248 
L 202.244671 152.006173 
L 203.691866 154.369021 
L 205.533751 157.872597 
L 209.875335 167.094585 
L 213.164415 175.580838 
L 218.558505 190.303671 
L 221.452895 198.076366 
L 221.584458 198.227744 
L 221.847585 198.118182 
L 222.242274 198.993276 
L 226.846985 210.607025 
L 226.978549 210.642576 
L 227.110112 210.272438 
L 227.504801 207.778665 
L 227.636365 207.643179 
L 227.899491 207.984896 
L 229.346686 211.185191 
L 229.741375 211.942138 
L 230.004502 210.996416 
L 230.399191 211.288905 
L 230.793881 211.710307 
L 231.714823 213.459572 
L 232.767328 215.278383 
L 232.898892 215.15404 
L 233.293581 214.27189 
L 233.556708 214.355112 
L 234.346087 215.337698 
L 236.582661 218.503151 
L 241.713625 226.320189 
L 242.503004 227.417796 
L 243.029256 228.048463 
L 243.423946 228.406879 
L 246.186773 232.55573 
L 246.844589 232.702067 
L 248.028657 233.695275 
L 250.396794 235.914717 
L 253.028058 238.952689 
L 257.764332 245.060654 
L 263.553112 253.390976 
L 270.525961 263.324865 
L 275.130672 269.498674 
L 277.761935 272.752028 
L 279.077567 274.33169 
L 281.314141 276.943634 
L 281.445704 277.010296 
L 281.840394 276.603852 
L 282.366647 276.881976 
L 282.629773 276.527444 
L 283.156026 275.814398 
L 283.419152 275.594482 
L 283.682279 275.216374 
L 283.945405 275.250647 
L 284.866347 275.876631 
L 289.734185 279.958931 
L 291.839196 281.730329 
L 292.233885 281.283078 
L 292.365448 281.264116 
L 292.760138 280.48732 
L 293.023264 280.421534 
L 293.286391 280.085969 
L 294.207333 276.923951 
L 294.865149 276.302959 
L 296.18078 275.365098 
L 297.891102 274.394224 
L 298.285791 273.537864 
L 298.812044 272.206102 
L 299.601423 271.033738 
L 302.495813 268.080728 
L 303.679882 267.583067 
L 304.995513 267.283216 
L 306.311145 267.213417 
L 307.75834 267.367748 
L 310.521167 267.976319 
L 312.363051 268.858124 
L 314.468062 270.111407 
L 315.783694 270.850418 
L 315.915257 270.85889 
L 316.836199 268.758725 
L 317.099326 266.476249 
L 317.888705 256.876053 
L 318.414958 254.18454 
L 319.204337 251.303018 
L 319.467463 245.456811 
L 319.862153 236.468997 
L 320.256842 233.343566 
L 321.440911 226.982974 
L 322.361853 222.915246 
L 322.756542 221.37719 
L 323.151232 220.886309 
L 324.861553 215.36941 
L 325.782496 213.083658 
L 326.835001 211.107429 
L 327.887506 209.585717 
L 328.940012 208.474664 
L 329.860954 207.80789 
L 330.781896 207.400237 
L 331.702839 207.228832 
L 332.623781 207.272476 
L 333.676286 207.560553 
L 334.728792 208.076896 
L 335.91286 208.899917 
L 336.702239 209.481297 
L 337.096929 209.539112 
L 337.623182 209.980626 
L 338.017871 210.233666 
L 338.412561 210.040088 
L 338.80725 210.310796 
L 339.859756 211.281388 
L 339.991319 211.069471 
L 340.254445 210.043895 
L 340.517572 209.997925 
L 341.175387 210.594098 
L 342.754146 212.358141 
L 343.806651 213.622916 
L 344.201341 213.656893 
L 344.59603 214.064367 
L 346.437915 216.613409 
L 348.937615 220.476151 
L 352.095131 225.796389 
L 357.226095 234.943655 
L 358.804853 237.601347 
L 358.936417 237.673171 
L 359.06798 237.505284 
L 359.988922 233.208079 
L 360.252048 231.546231 
L 360.383611 231.437828 
L 360.646738 231.619132 
L 361.56768 232.744643 
L 364.988323 237.951294 
L 366.303955 239.822115 
L 366.96177 240.732533 
L 369.329908 244.261741 
L 369.593034 244.227106 
L 369.987724 244.63129 
L 371.040229 246.1066 
L 376.171193 253.756109 
L 381.696846 261.917678 
L 386.169994 268.129797 
L 390.248453 273.411591 
L 392.879717 276.525345 
L 393.274406 276.735175 
L 395.379417 278.983574 
L 399.721002 283.430642 
L 403.010081 286.517846 
L 407.220103 290.249333 
L 411.298562 293.557897 
L 415.37702 296.573257 
L 419.455479 299.3095 
L 423.533937 301.783906 
L 427.217706 303.778633 
L 431.953981 306.038265 
L 436.164002 307.814793 
L 439.058392 308.888189 
L 440.242461 309.211807 
L 442.084345 309.760625 
L 442.479035 309.824056 
L 447.741562 311.384802 
L 449.583446 311.669393 
L 454.582847 312.945139 
L 455.240663 312.837607 
L 456.293168 313.001704 
L 456.687858 312.935343 
L 457.345674 312.92842 
L 458.529743 313.048101 
L 462.081948 313.63671 
L 462.476638 313.065624 
L 462.608201 312.556351 
L 463.134454 308.015118 
L 463.39758 307.405385 
L 464.055396 307.070062 
L 466.028844 305.445044 
L 467.607602 304.597778 
L 469.317923 303.927234 
L 471.159808 303.447234 
L 473.133255 303.166726 
L 475.238266 303.087153 
L 477.606403 303.215444 
L 480.36923 303.590557 
L 483.65831 304.267082 
L 487.868331 305.369752 
L 494.578053 307.391198 
L 503.392786 310.037049 
L 503.655913 309.923134 
L 503.919039 309.533015 
L 504.313729 309.476835 
L 506.813429 309.714431 
L 512.996898 310.563615 
L 515.101909 310.952494 
L 515.233472 310.789725 
L 515.628162 309.112131 
L 516.022851 307.60277 
L 516.285978 307.451355 
L 517.20692 307.478221 
L 520.364436 307.811187 
L 526.811032 308.724754 
L 526.942595 308.44488 
L 527.337285 305.689536 
L 527.600411 305.434728 
L 528.258227 305.39453 
L 530.757927 305.519573 
L 533.783881 305.901722 
L 534.836386 306.050063 
L 535.099512 305.799085 
L 535.625765 304.585438 
L 536.152018 304.585593 
L 539.046408 305.044909 
L 542.86174 305.882079 
L 544.440498 306.263482 
L 544.572061 306.071995 
L 544.966751 304.751722 
L 545.75613 299.315549 
L 546.282382 297.984434 
L 547.466451 295.55998 
L 548.913646 293.129294 
L 550.360841 291.160487 
L 551.676473 289.724078 
L 552.992105 288.585139 
L 554.4393 287.635445 
L 555.886494 286.964201 
L 557.333689 286.535428 
L 560.491206 285.954144 
L 562.596217 286.132871 
L 564.306538 286.364034 
L 564.569664 286.123335 
L 565.095917 286.196212 
L 567.200928 286.85951 
L 569.832191 287.932024 
L 572.989708 289.471456 
L 574.173776 289.975896 
L 574.436903 289.888785 
L 574.700029 288.996819 
L 575.094719 287.859824 
L 575.357845 287.643796 
L 576.015661 286.102889 
L 576.673477 285.652417 
L 576.936603 285.245451 
L 577.331293 285.251501 
L 581.015062 286.132127 
L 583.646325 287.271315 
L 587.330094 289.137498 
L 592.066369 291.863819 
L 606.143629 300.102083 
L 608.117076 301.070889 
L 608.906455 301.42148 
L 614.563672 304.217381 
L 618.115878 305.824563 
L 618.247441 305.79572 
L 618.510567 305.302118 
L 618.642131 304.88605 
L 619.299946 300.733191 
L 620.484015 297.15053 
L 620.878705 296.612349 
L 622.194336 295.445461 
L 623.641531 294.448597 
L 625.088726 293.708515 
L 626.667484 293.155714 
L 628.246243 292.832147 
L 629.956564 292.702132 
L 632.324701 292.778053 
L 632.850954 292.804818 
L 633.245643 291.987882 
L 633.640333 290.918201 
L 634.298149 290.083746 
L 635.087528 289.847293 
L 636.140033 289.756569 
L 637.981918 289.818388 
L 639.955365 290.113399 
L 642.191939 290.67724 
L 644.823203 291.580274 
L 647.980719 292.90793 
L 654.953568 296.192107 
L 666.925817 302.304497 
L 666.925817 302.304497 
" clip-path="url(#p53126f0475)" style="fill: none; stroke: #ff7f0e; stroke-width: 1.5; stroke-linecap: square"/>
   </g>
   <g id="patch_3">
    <path d="M 20.5625 327.558125 
L 20.5625 22.318125 
" style="fill: none; stroke: #000000; stroke-width: 0.8; stroke-linejoin: miter; stroke-linecap: square"/>
   </g>
   <g id="patch_4">
    <path d="M 697.705023 327.558125 
L 697.705023 22.318125 
" style="fill: none; stroke: #000000; stroke-width: 0.8; stroke-linejoin: miter; stroke-linecap: square"/>
   </g>
   <g id="patch_5">
    <path d="M 20.5625 327.558125 
L 697.705023 327.558125 
" style="fill: none; stroke: #000000; stroke-width: 0.8; stroke-linejoin: miter; stroke-linecap: square"/>
   </g>
   <g id="patch_6">
    <path d="M 20.5625 22.318125 
L 697.705023 22.318125 
" style="fill: none; stroke: #000000; stroke-width: 0.8; stroke-linejoin: miter; stroke-linecap: square"/>
   </g>
   <g id="text_13">
    <!-- training -->
    <g transform="translate(335.890324 16.318125) scale(0.12 -0.12)">
     <defs>
      <path id="DejaVuSans-74" d="M 1172 4494 
L 1172 3500 
L 2356 3500 
L 2356 3053 
L 1172 3053 
L 1172 1153 
Q 1172 725 1289 603 
Q 1406 481 1766 481 
L 2356 481 
L 2356 0 
L 1766 0 
Q 1100 0 847 248 
Q 594 497 594 1153 
L 594 3053 
L 172 3053 
L 172 3500 
L 594 3500 
L 594 4494 
L 1172 4494 
z
" transform="scale(0.015625)"/>
      <path id="DejaVuSans-72" d="M 2631 2963 
Q 2534 3019 2420 3045 
Q 2306 3072 2169 3072 
Q 1681 3072 1420 2755 
Q 1159 2438 1159 1844 
L 1159 0 
L 581 0 
L 581 3500 
L 1159 3500 
L 1159 2956 
Q 1341 3275 1631 3429 
Q 1922 3584 2338 3584 
Q 2397 3584 2469 3576 
Q 2541 3569 2628 3553 
L 2631 2963 
z
" transform="scale(0.015625)"/>
      <path id="DejaVuSans-61" d="M 2194 1759 
Q 1497 1759 1228 1600 
Q 959 1441 959 1056 
Q 959 750 1161 570 
Q 1363 391 1709 391 
Q 2188 391 2477 730 
Q 2766 1069 2766 1631 
L 2766 1759 
L 2194 1759 
z
M 3341 1997 
L 3341 0 
L 2766 0 
L 2766 531 
Q 2569 213 2275 61 
Q 1981 -91 1556 -91 
Q 1019 -91 701 211 
Q 384 513 384 1019 
Q 384 1609 779 1909 
Q 1175 2209 1959 2209 
L 2766 2209 
L 2766 2266 
Q 2766 2663 2505 2880 
Q 2244 3097 1772 3097 
Q 1472 3097 1187 3025 
Q 903 2953 641 2809 
L 641 3341 
Q 956 3463 1253 3523 
Q 1550 3584 1831 3584 
Q 2591 3584 2966 3190 
Q 3341 2797 3341 1997 
z
" transform="scale(0.015625)"/>
      <path id="DejaVuSans-69" d="M 603 3500 
L 1178 3500 
L 1178 0 
L 603 0 
L 603 3500 
z
M 603 4863 
L 1178 4863 
L 1178 4134 
L 603 4134 
L 603 4863 
z
" transform="scale(0.015625)"/>
      <path id="DejaVuSans-6e" d="M 3513 2113 
L 3513 0 
L 2938 0 
L 2938 2094 
Q 2938 2591 2744 2837 
Q 2550 3084 2163 3084 
Q 1697 3084 1428 2787 
Q 1159 2491 1159 1978 
L 1159 0 
L 581 0 
L 581 3500 
L 1159 3500 
L 1159 2956 
Q 1366 3272 1645 3428 
Q 1925 3584 2291 3584 
Q 2894 3584 3203 3211 
Q 3513 2838 3513 2113 
z
" transform="scale(0.015625)"/>
      <path id="DejaVuSans-67" d="M 2906 1791 
Q 2906 2416 2648 2759 
Q 2391 3103 1925 3103 
Q 1463 3103 1205 2759 
Q 947 2416 947 1791 
Q 947 1169 1205 825 
Q 1463 481 1925 481 
Q 2391 481 2648 825 
Q 2906 1169 2906 1791 
z
M 3481 434 
Q 3481 -459 3084 -895 
Q 2688 -1331 1869 -1331 
Q 1566 -1331 1297 -1286 
Q 1028 -1241 775 -1147 
L 775 -588 
Q 1028 -725 1275 -790 
Q 1522 -856 1778 -856 
Q 2344 -856 2625 -561 
Q 2906 -266 2906 331 
L 2906 616 
Q 2728 306 2450 153 
Q 2172 0 1784 0 
Q 1141 0 747 490 
Q 353 981 353 1791 
Q 353 2603 747 3093 
Q 1141 3584 1784 3584 
Q 2172 3584 2450 3431 
Q 2728 3278 2906 2969 
L 2906 3500 
L 3481 3500 
L 3481 434 
z
" transform="scale(0.015625)"/>
     </defs>
     <use xlink:href="#DejaVuSans-74"/>
     <use xlink:href="#DejaVuSans-72" x="39.208984"/>
     <use xlink:href="#DejaVuSans-61" x="80.322266"/>
     <use xlink:href="#DejaVuSans-69" x="141.601562"/>
     <use xlink:href="#DejaVuSans-6e" x="169.384766"/>
     <use xlink:href="#DejaVuSans-69" x="232.763672"/>
     <use xlink:href="#DejaVuSans-6e" x="260.546875"/>
     <use xlink:href="#DejaVuSans-67" x="323.925781"/>
    </g>
   </g>
   <g id="legend_1">
    <g id="patch_7">
     <path d="M 609.311273 59.674375 
L 690.705023 59.674375 
Q 692.705023 59.674375 692.705023 57.674375 
L 692.705023 29.318125 
Q 692.705023 27.318125 690.705023 27.318125 
L 609.311273 27.318125 
Q 607.311273 27.318125 607.311273 29.318125 
L 607.311273 57.674375 
Q 607.311273 59.674375 609.311273 59.674375 
z
" style="fill: #ffffff; opacity: 0.8; stroke: #cccccc; stroke-linejoin: miter"/>
    </g>
    <g id="line2d_15">
     <path d="M 611.311273 35.416562 
L 621.311273 35.416562 
L 631.311273 35.416562 
" style="fill: none; stroke: #1f77b4; stroke-width: 1.5; stroke-linecap: square"/>
    </g>
    <g id="text_14">
     <!-- observed -->
     <g transform="translate(639.311273 38.916562) scale(0.1 -0.1)">
      <defs>
       <path id="DejaVuSans-6f" d="M 1959 3097 
Q 1497 3097 1228 2736 
Q 959 2375 959 1747 
Q 959 1119 1226 758 
Q 1494 397 1959 397 
Q 2419 397 2687 759 
Q 2956 1122 2956 1747 
Q 2956 2369 2687 2733 
Q 2419 3097 1959 3097 
z
M 1959 3584 
Q 2709 3584 3137 3096 
Q 3566 2609 3566 1747 
Q 3566 888 3137 398 
Q 2709 -91 1959 -91 
Q 1206 -91 779 398 
Q 353 888 353 1747 
Q 353 2609 779 3096 
Q 1206 3584 1959 3584 
z
" transform="scale(0.015625)"/>
       <path id="DejaVuSans-62" d="M 3116 1747 
Q 3116 2381 2855 2742 
Q 2594 3103 2138 3103 
Q 1681 3103 1420 2742 
Q 1159 2381 1159 1747 
Q 1159 1113 1420 752 
Q 1681 391 2138 391 
Q 2594 391 2855 752 
Q 3116 1113 3116 1747 
z
M 1159 2969 
Q 1341 3281 1617 3432 
Q 1894 3584 2278 3584 
Q 2916 3584 3314 3078 
Q 3713 2572 3713 1747 
Q 3713 922 3314 415 
Q 2916 -91 2278 -91 
Q 1894 -91 1617 61 
Q 1341 213 1159 525 
L 1159 0 
L 581 0 
L 581 4863 
L 1159 4863 
L 1159 2969 
z
" transform="scale(0.015625)"/>
       <path id="DejaVuSans-73" d="M 2834 3397 
L 2834 2853 
Q 2591 2978 2328 3040 
Q 2066 3103 1784 3103 
Q 1356 3103 1142 2972 
Q 928 2841 928 2578 
Q 928 2378 1081 2264 
Q 1234 2150 1697 2047 
L 1894 2003 
Q 2506 1872 2764 1633 
Q 3022 1394 3022 966 
Q 3022 478 2636 193 
Q 2250 -91 1575 -91 
Q 1294 -91 989 -36 
Q 684 19 347 128 
L 347 722 
Q 666 556 975 473 
Q 1284 391 1588 391 
Q 1994 391 2212 530 
Q 2431 669 2431 922 
Q 2431 1156 2273 1281 
Q 2116 1406 1581 1522 
L 1381 1569 
Q 847 1681 609 1914 
Q 372 2147 372 2553 
Q 372 3047 722 3315 
Q 1072 3584 1716 3584 
Q 2034 3584 2315 3537 
Q 2597 3491 2834 3397 
z
" transform="scale(0.015625)"/>
       <path id="DejaVuSans-65" d="M 3597 1894 
L 3597 1613 
L 953 1613 
Q 991 1019 1311 708 
Q 1631 397 2203 397 
Q 2534 397 2845 478 
Q 3156 559 3463 722 
L 3463 178 
Q 3153 47 2828 -22 
Q 2503 -91 2169 -91 
Q 1331 -91 842 396 
Q 353 884 353 1716 
Q 353 2575 817 3079 
Q 1281 3584 2069 3584 
Q 2775 3584 3186 3129 
Q 3597 2675 3597 1894 
z
M 3022 2063 
Q 3016 2534 2758 2815 
Q 2500 3097 2075 3097 
Q 1594 3097 1305 2825 
Q 1016 2553 972 2059 
L 3022 2063 
z
" transform="scale(0.015625)"/>
       <path id="DejaVuSans-76" d="M 191 3500 
L 800 3500 
L 1894 563 
L 2988 3500 
L 3597 3500 
L 2284 0 
L 1503 0 
L 191 3500 
z
" transform="scale(0.015625)"/>
       <path id="DejaVuSans-64" d="M 2906 2969 
L 2906 4863 
L 3481 4863 
L 3481 0 
L 2906 0 
L 2906 525 
Q 2725 213 2448 61 
Q 2172 -91 1784 -91 
Q 1150 -91 751 415 
Q 353 922 353 1747 
Q 353 2572 751 3078 
Q 1150 3584 1784 3584 
Q 2172 3584 2448 3432 
Q 2725 3281 2906 2969 
z
M 947 1747 
Q 947 1113 1208 752 
Q 1469 391 1925 391 
Q 2381 391 2643 752 
Q 2906 1113 2906 1747 
Q 2906 2381 2643 2742 
Q 2381 3103 1925 3103 
Q 1469 3103 1208 2742 
Q 947 2381 947 1747 
z
" transform="scale(0.015625)"/>
      </defs>
      <use xlink:href="#DejaVuSans-6f"/>
      <use xlink:href="#DejaVuSans-62" x="61.181641"/>
      <use xlink:href="#DejaVuSans-73" x="124.658203"/>
      <use xlink:href="#DejaVuSans-65" x="176.757812"/>
      <use xlink:href="#DejaVuSans-72" x="238.28125"/>
      <use xlink:href="#DejaVuSans-76" x="279.394531"/>
      <use xlink:href="#DejaVuSans-65" x="338.574219"/>
      <use xlink:href="#DejaVuSans-64" x="400.097656"/>
     </g>
    </g>
    <g id="line2d_16">
     <path d="M 611.311273 50.094688 
L 621.311273 50.094688 
L 631.311273 50.094688 
" style="fill: none; stroke: #ff7f0e; stroke-width: 1.5; stroke-linecap: square"/>
    </g>
    <g id="text_15">
     <!-- simulated -->
     <g transform="translate(639.311273 53.594688) scale(0.1 -0.1)">
      <defs>
       <path id="DejaVuSans-6d" d="M 3328 2828 
Q 3544 3216 3844 3400 
Q 4144 3584 4550 3584 
Q 5097 3584 5394 3201 
Q 5691 2819 5691 2113 
L 5691 0 
L 5113 0 
L 5113 2094 
Q 5113 2597 4934 2840 
Q 4756 3084 4391 3084 
Q 3944 3084 3684 2787 
Q 3425 2491 3425 1978 
L 3425 0 
L 2847 0 
L 2847 2094 
Q 2847 2600 2669 2842 
Q 2491 3084 2119 3084 
Q 1678 3084 1418 2786 
Q 1159 2488 1159 1978 
L 1159 0 
L 581 0 
L 581 3500 
L 1159 3500 
L 1159 2956 
Q 1356 3278 1631 3431 
Q 1906 3584 2284 3584 
Q 2666 3584 2933 3390 
Q 3200 3197 3328 2828 
z
" transform="scale(0.015625)"/>
       <path id="DejaVuSans-75" d="M 544 1381 
L 544 3500 
L 1119 3500 
L 1119 1403 
Q 1119 906 1312 657 
Q 1506 409 1894 409 
Q 2359 409 2629 706 
Q 2900 1003 2900 1516 
L 2900 3500 
L 3475 3500 
L 3475 0 
L 2900 0 
L 2900 538 
Q 2691 219 2414 64 
Q 2138 -91 1772 -91 
Q 1169 -91 856 284 
Q 544 659 544 1381 
z
M 1991 3584 
L 1991 3584 
z
" transform="scale(0.015625)"/>
       <path id="DejaVuSans-6c" d="M 603 4863 
L 1178 4863 
L 1178 0 
L 603 0 
L 603 4863 
z
" transform="scale(0.015625)"/>
      </defs>
      <use xlink:href="#DejaVuSans-73"/>
      <use xlink:href="#DejaVuSans-69" x="52.099609"/>
      <use xlink:href="#DejaVuSans-6d" x="79.882812"/>
      <use xlink:href="#DejaVuSans-75" x="177.294922"/>
      <use xlink:href="#DejaVuSans-6c" x="240.673828"/>
      <use xlink:href="#DejaVuSans-61" x="268.457031"/>
      <use xlink:href="#DejaVuSans-74" x="329.736328"/>
      <use xlink:href="#DejaVuSans-65" x="368.945312"/>
      <use xlink:href="#DejaVuSans-64" x="430.46875"/>
     </g>
    </g>
   </g>
  </g>
 </g>
 <defs>
  <clipPath id="p53126f0475">
   <rect x="20.5625" y="22.318125" width="677.142523" height="305.24"/>
  </clipPath>
 </defs>
</svg>
