<?xml version="1.0" encoding="utf-8" standalone="no"?>
<!DOCTYPE svg PUBLIC "-//W3C//DTD SVG 1.1//EN"
  "http://www.w3.org/Graphics/SVG/1.1/DTD/svg11.dtd">
<svg xmlns:xlink="http://www.w3.org/1999/xlink" width="720pt" height="360pt" viewBox="0 0 720 360" xmlns="http://www.w3.org/2000/svg" version="1.1">
 <metadata>
  <rdf:RDF xmlns:dc="http://purl.org/dc/elements/1.1/" xmlns:cc="http://creativecommons.org/ns#" xmlns:rdf="http://www.w3.org/1999/02/22-rdf-syntax-ns#">
   <cc:Work>
    <dc:type rdf:resource="http://purl.org/dc/dcmitype/StillImage"/>
    <dc:date>2023-10-23T10:54:00.685008</dc:date>
    <dc:format>image/svg+xml</dc:format>
    <dc:creator>
     <cc:Agent>
      <dc:title>Matplotlib v3.7.1, https://matplotlib.org/</dc:title>
     </cc:Agent>
    </dc:creator>
   </cc:Work>
  </rdf:RDF>
 </metadata>
 <defs>
  <style type="text/css">*{stroke-linejoin: round; stroke-linecap: butt}</style>
 </defs>
 <g id="figure_1">
  <g id="patch_1">
   <path d="M 0 360 
L 720 360 
L 720 0 
L 0 0 
z
" style="fill: #ffffff"/>
  </g>
  <g id="axes_1">
   <g id="patch_2">
    <path d="M 90 288 
L 648 288 
L 648 43.2 
L 90 43.2 
z
" style="fill: #ffffff"/>
   </g>
   <g id="matplotlib.axis_1">
    <g id="xtick_1">
     <g id="line2d_1">
      <defs>
       <path id="mce6a869a19" d="M 0 0 
L 0 3.5 
" style="stroke: #000000; stroke-width: 0.8"/>
      </defs>
      <g>
       <use xlink:href="#mce6a869a19" x="149.370747" y="288" style="stroke: #000000; stroke-width: 0.8"/>
      </g>
     </g>
     <g id="text_1">
      <!-- 2023-08-15 -->
      <g transform="translate(87.727405 337.765903) rotate(-30) scale(0.12 -0.12)">
       <defs>
        <path id="DejaVuSans-32" d="M 1228 531 
L 3431 531 
L 3431 0 
L 469 0 
L 469 531 
Q 828 903 1448 1529 
Q 2069 2156 2228 2338 
Q 2531 2678 2651 2914 
Q 2772 3150 2772 3378 
Q 2772 3750 2511 3984 
Q 2250 4219 1831 4219 
Q 1534 4219 1204 4116 
Q 875 4013 500 3803 
L 500 4441 
Q 881 4594 1212 4672 
Q 1544 4750 1819 4750 
Q 2544 4750 2975 4387 
Q 3406 4025 3406 3419 
Q 3406 3131 3298 2873 
Q 3191 2616 2906 2266 
Q 2828 2175 2409 1742 
Q 1991 1309 1228 531 
z
" transform="scale(0.015625)"/>
        <path id="DejaVuSans-30" d="M 2034 4250 
Q 1547 4250 1301 3770 
Q 1056 3291 1056 2328 
Q 1056 1369 1301 889 
Q 1547 409 2034 409 
Q 2525 409 2770 889 
Q 3016 1369 3016 2328 
Q 3016 3291 2770 3770 
Q 2525 4250 2034 4250 
z
M 2034 4750 
Q 2819 4750 3233 4129 
Q 3647 3509 3647 2328 
Q 3647 1150 3233 529 
Q 2819 -91 2034 -91 
Q 1250 -91 836 529 
Q 422 1150 422 2328 
Q 422 3509 836 4129 
Q 1250 4750 2034 4750 
z
" transform="scale(0.015625)"/>
        <path id="DejaVuSans-33" d="M 2597 2516 
Q 3050 2419 3304 2112 
Q 3559 1806 3559 1356 
Q 3559 666 3084 287 
Q 2609 -91 1734 -91 
Q 1441 -91 1130 -33 
Q 819 25 488 141 
L 488 750 
Q 750 597 1062 519 
Q 1375 441 1716 441 
Q 2309 441 2620 675 
Q 2931 909 2931 1356 
Q 2931 1769 2642 2001 
Q 2353 2234 1838 2234 
L 1294 2234 
L 1294 2753 
L 1863 2753 
Q 2328 2753 2575 2939 
Q 2822 3125 2822 3475 
Q 2822 3834 2567 4026 
Q 2313 4219 1838 4219 
Q 1578 4219 1281 4162 
Q 984 4106 628 3988 
L 628 4550 
Q 988 4650 1302 4700 
Q 1616 4750 1894 4750 
Q 2613 4750 3031 4423 
Q 3450 4097 3450 3541 
Q 3450 3153 3228 2886 
Q 3006 2619 2597 2516 
z
" transform="scale(0.015625)"/>
        <path id="DejaVuSans-2d" d="M 313 2009 
L 1997 2009 
L 1997 1497 
L 313 1497 
L 313 2009 
z
" transform="scale(0.015625)"/>
        <path id="DejaVuSans-38" d="M 2034 2216 
Q 1584 2216 1326 1975 
Q 1069 1734 1069 1313 
Q 1069 891 1326 650 
Q 1584 409 2034 409 
Q 2484 409 2743 651 
Q 3003 894 3003 1313 
Q 3003 1734 2745 1975 
Q 2488 2216 2034 2216 
z
M 1403 2484 
Q 997 2584 770 2862 
Q 544 3141 544 3541 
Q 544 4100 942 4425 
Q 1341 4750 2034 4750 
Q 2731 4750 3128 4425 
Q 3525 4100 3525 3541 
Q 3525 3141 3298 2862 
Q 3072 2584 2669 2484 
Q 3125 2378 3379 2068 
Q 3634 1759 3634 1313 
Q 3634 634 3220 271 
Q 2806 -91 2034 -91 
Q 1263 -91 848 271 
Q 434 634 434 1313 
Q 434 1759 690 2068 
Q 947 2378 1403 2484 
z
M 1172 3481 
Q 1172 3119 1398 2916 
Q 1625 2713 2034 2713 
Q 2441 2713 2670 2916 
Q 2900 3119 2900 3481 
Q 2900 3844 2670 4047 
Q 2441 4250 2034 4250 
Q 1625 4250 1398 4047 
Q 1172 3844 1172 3481 
z
" transform="scale(0.015625)"/>
        <path id="DejaVuSans-31" d="M 794 531 
L 1825 531 
L 1825 4091 
L 703 3866 
L 703 4441 
L 1819 4666 
L 2450 4666 
L 2450 531 
L 3481 531 
L 3481 0 
L 794 0 
L 794 531 
z
" transform="scale(0.015625)"/>
        <path id="DejaVuSans-35" d="M 691 4666 
L 3169 4666 
L 3169 4134 
L 1269 4134 
L 1269 2991 
Q 1406 3038 1543 3061 
Q 1681 3084 1819 3084 
Q 2600 3084 3056 2656 
Q 3513 2228 3513 1497 
Q 3513 744 3044 326 
Q 2575 -91 1722 -91 
Q 1428 -91 1123 -41 
Q 819 9 494 109 
L 494 744 
Q 775 591 1075 516 
Q 1375 441 1709 441 
Q 2250 441 2565 725 
Q 2881 1009 2881 1497 
Q 2881 1984 2565 2268 
Q 2250 2553 1709 2553 
Q 1456 2553 1204 2497 
Q 953 2441 691 2322 
L 691 4666 
z
" transform="scale(0.015625)"/>
       </defs>
       <use xlink:href="#DejaVuSans-32"/>
       <use xlink:href="#DejaVuSans-30" x="63.623047"/>
       <use xlink:href="#DejaVuSans-32" x="127.246094"/>
       <use xlink:href="#DejaVuSans-33" x="190.869141"/>
       <use xlink:href="#DejaVuSans-2d" x="254.492188"/>
       <use xlink:href="#DejaVuSans-30" x="290.576172"/>
       <use xlink:href="#DejaVuSans-38" x="354.199219"/>
       <use xlink:href="#DejaVuSans-2d" x="417.822266"/>
       <use xlink:href="#DejaVuSans-31" x="453.90625"/>
       <use xlink:href="#DejaVuSans-35" x="517.529297"/>
      </g>
     </g>
    </g>
    <g id="xtick_2">
     <g id="line2d_2">
      <g>
       <use xlink:href="#mce6a869a19" x="264.994921" y="288" style="stroke: #000000; stroke-width: 0.8"/>
      </g>
     </g>
     <g id="text_2">
      <!-- 2023-09-01 -->
      <g transform="translate(203.35158 337.765903) rotate(-30) scale(0.12 -0.12)">
       <defs>
        <path id="DejaVuSans-39" d="M 703 97 
L 703 672 
Q 941 559 1184 500 
Q 1428 441 1663 441 
Q 2288 441 2617 861 
Q 2947 1281 2994 2138 
Q 2813 1869 2534 1725 
Q 2256 1581 1919 1581 
Q 1219 1581 811 2004 
Q 403 2428 403 3163 
Q 403 3881 828 4315 
Q 1253 4750 1959 4750 
Q 2769 4750 3195 4129 
Q 3622 3509 3622 2328 
Q 3622 1225 3098 567 
Q 2575 -91 1691 -91 
Q 1453 -91 1209 -44 
Q 966 3 703 97 
z
M 1959 2075 
Q 2384 2075 2632 2365 
Q 2881 2656 2881 3163 
Q 2881 3666 2632 3958 
Q 2384 4250 1959 4250 
Q 1534 4250 1286 3958 
Q 1038 3666 1038 3163 
Q 1038 2656 1286 2365 
Q 1534 2075 1959 2075 
z
" transform="scale(0.015625)"/>
       </defs>
       <use xlink:href="#DejaVuSans-32"/>
       <use xlink:href="#DejaVuSans-30" x="63.623047"/>
       <use xlink:href="#DejaVuSans-32" x="127.246094"/>
       <use xlink:href="#DejaVuSans-33" x="190.869141"/>
       <use xlink:href="#DejaVuSans-2d" x="254.492188"/>
       <use xlink:href="#DejaVuSans-30" x="290.576172"/>
       <use xlink:href="#DejaVuSans-39" x="354.199219"/>
       <use xlink:href="#DejaVuSans-2d" x="417.822266"/>
       <use xlink:href="#DejaVuSans-30" x="453.90625"/>
       <use xlink:href="#DejaVuSans-31" x="517.529297"/>
      </g>
     </g>
    </g>
    <g id="xtick_3">
     <g id="line2d_3">
      <g>
       <use xlink:href="#mce6a869a19" x="360.21483" y="288" style="stroke: #000000; stroke-width: 0.8"/>
      </g>
     </g>
     <g id="text_3">
      <!-- 2023-09-15 -->
      <g transform="translate(298.571488 337.765903) rotate(-30) scale(0.12 -0.12)">
       <use xlink:href="#DejaVuSans-32"/>
       <use xlink:href="#DejaVuSans-30" x="63.623047"/>
       <use xlink:href="#DejaVuSans-32" x="127.246094"/>
       <use xlink:href="#DejaVuSans-33" x="190.869141"/>
       <use xlink:href="#DejaVuSans-2d" x="254.492188"/>
       <use xlink:href="#DejaVuSans-30" x="290.576172"/>
       <use xlink:href="#DejaVuSans-39" x="354.199219"/>
       <use xlink:href="#DejaVuSans-2d" x="417.822266"/>
       <use xlink:href="#DejaVuSans-31" x="453.90625"/>
       <use xlink:href="#DejaVuSans-35" x="517.529297"/>
      </g>
     </g>
    </g>
    <g id="xtick_4">
     <g id="line2d_4">
      <g>
       <use xlink:href="#mce6a869a19" x="469.037583" y="288" style="stroke: #000000; stroke-width: 0.8"/>
      </g>
     </g>
     <g id="text_4">
      <!-- 2023-10-01 -->
      <g transform="translate(407.394241 337.765903) rotate(-30) scale(0.12 -0.12)">
       <use xlink:href="#DejaVuSans-32"/>
       <use xlink:href="#DejaVuSans-30" x="63.623047"/>
       <use xlink:href="#DejaVuSans-32" x="127.246094"/>
       <use xlink:href="#DejaVuSans-33" x="190.869141"/>
       <use xlink:href="#DejaVuSans-2d" x="254.492188"/>
       <use xlink:href="#DejaVuSans-31" x="290.576172"/>
       <use xlink:href="#DejaVuSans-30" x="354.199219"/>
       <use xlink:href="#DejaVuSans-2d" x="417.822266"/>
       <use xlink:href="#DejaVuSans-30" x="453.90625"/>
       <use xlink:href="#DejaVuSans-31" x="517.529297"/>
      </g>
     </g>
    </g>
    <g id="xtick_5">
     <g id="line2d_5">
      <g>
       <use xlink:href="#mce6a869a19" x="564.257491" y="288" style="stroke: #000000; stroke-width: 0.8"/>
      </g>
     </g>
     <g id="text_5">
      <!-- 2023-10-15 -->
      <g transform="translate(502.614149 337.765903) rotate(-30) scale(0.12 -0.12)">
       <use xlink:href="#DejaVuSans-32"/>
       <use xlink:href="#DejaVuSans-30" x="63.623047"/>
       <use xlink:href="#DejaVuSans-32" x="127.246094"/>
       <use xlink:href="#DejaVuSans-33" x="190.869141"/>
       <use xlink:href="#DejaVuSans-2d" x="254.492188"/>
       <use xlink:href="#DejaVuSans-31" x="290.576172"/>
       <use xlink:href="#DejaVuSans-30" x="354.199219"/>
       <use xlink:href="#DejaVuSans-2d" x="417.822266"/>
       <use xlink:href="#DejaVuSans-31" x="453.90625"/>
       <use xlink:href="#DejaVuSans-35" x="517.529297"/>
      </g>
     </g>
    </g>
   </g>
   <g id="matplotlib.axis_2">
    <g id="ytick_1">
     <g id="line2d_6">
      <defs>
       <path id="m243840b4d0" d="M 0 0 
L -3.5 0 
" style="stroke: #000000; stroke-width: 0.8"/>
      </defs>
      <g>
       <use xlink:href="#m243840b4d0" x="90" y="267.455549" style="stroke: #000000; stroke-width: 0.8"/>
      </g>
     </g>
     <g id="text_6">
      <!-- 1 -->
      <g transform="translate(75.365 272.014612) scale(0.12 -0.12)">
       <use xlink:href="#DejaVuSans-31"/>
      </g>
     </g>
    </g>
    <g id="ytick_2">
     <g id="line2d_7">
      <g>
       <use xlink:href="#m243840b4d0" x="90" y="223.03527" style="stroke: #000000; stroke-width: 0.8"/>
      </g>
     </g>
     <g id="text_7">
      <!-- 2 -->
      <g transform="translate(75.365 227.594332) scale(0.12 -0.12)">
       <use xlink:href="#DejaVuSans-32"/>
      </g>
     </g>
    </g>
    <g id="ytick_3">
     <g id="line2d_8">
      <g>
       <use xlink:href="#m243840b4d0" x="90" y="178.614991" style="stroke: #000000; stroke-width: 0.8"/>
      </g>
     </g>
     <g id="text_8">
      <!-- 3 -->
      <g transform="translate(75.365 183.174053) scale(0.12 -0.12)">
       <use xlink:href="#DejaVuSans-33"/>
      </g>
     </g>
    </g>
    <g id="ytick_4">
     <g id="line2d_9">
      <g>
       <use xlink:href="#m243840b4d0" x="90" y="134.194711" style="stroke: #000000; stroke-width: 0.8"/>
      </g>
     </g>
     <g id="text_9">
      <!-- 4 -->
      <g transform="translate(75.365 138.753774) scale(0.12 -0.12)">
       <defs>
        <path id="DejaVuSans-34" d="M 2419 4116 
L 825 1625 
L 2419 1625 
L 2419 4116 
z
M 2253 4666 
L 3047 4666 
L 3047 1625 
L 3713 1625 
L 3713 1100 
L 3047 1100 
L 3047 0 
L 2419 0 
L 2419 1100 
L 313 1100 
L 313 1709 
L 2253 4666 
z
" transform="scale(0.015625)"/>
       </defs>
       <use xlink:href="#DejaVuSans-34"/>
      </g>
     </g>
    </g>
    <g id="ytick_5">
     <g id="line2d_10">
      <g>
       <use xlink:href="#m243840b4d0" x="90" y="89.774432" style="stroke: #000000; stroke-width: 0.8"/>
      </g>
     </g>
     <g id="text_10">
      <!-- 5 -->
      <g transform="translate(75.365 94.333495) scale(0.12 -0.12)">
       <use xlink:href="#DejaVuSans-35"/>
      </g>
     </g>
    </g>
    <g id="ytick_6">
     <g id="line2d_11">
      <g>
       <use xlink:href="#m243840b4d0" x="90" y="45.354153" style="stroke: #000000; stroke-width: 0.8"/>
      </g>
     </g>
     <g id="text_11">
      <!-- 6 -->
      <g transform="translate(75.365 49.913215) scale(0.12 -0.12)">
       <defs>
        <path id="DejaVuSans-36" d="M 2113 2584 
Q 1688 2584 1439 2293 
Q 1191 2003 1191 1497 
Q 1191 994 1439 701 
Q 1688 409 2113 409 
Q 2538 409 2786 701 
Q 3034 994 3034 1497 
Q 3034 2003 2786 2293 
Q 2538 2584 2113 2584 
z
M 3366 4563 
L 3366 3988 
Q 3128 4100 2886 4159 
Q 2644 4219 2406 4219 
Q 1781 4219 1451 3797 
Q 1122 3375 1075 2522 
Q 1259 2794 1537 2939 
Q 1816 3084 2150 3084 
Q 2853 3084 3261 2657 
Q 3669 2231 3669 1497 
Q 3669 778 3244 343 
Q 2819 -91 2113 -91 
Q 1303 -91 875 529 
Q 447 1150 447 2328 
Q 447 3434 972 4092 
Q 1497 4750 2381 4750 
Q 2619 4750 2861 4703 
Q 3103 4656 3366 4563 
z
" transform="scale(0.015625)"/>
       </defs>
       <use xlink:href="#DejaVuSans-36"/>
      </g>
     </g>
    </g>
    <g id="text_12">
     <!-- Meters -->
     <g transform="translate(69.285312 182.6875) rotate(-90) scale(0.1 -0.1)">
      <defs>
       <path id="DejaVuSans-4d" d="M 628 4666 
L 1569 4666 
L 2759 1491 
L 3956 4666 
L 4897 4666 
L 4897 0 
L 4281 0 
L 4281 4097 
L 3078 897 
L 2444 897 
L 1241 4097 
L 1241 0 
L 628 0 
L 628 4666 
z
" transform="scale(0.015625)"/>
       <path id="DejaVuSans-65" d="M 3597 1894 
L 3597 1613 
L 953 1613 
Q 991 1019 1311 708 
Q 1631 397 2203 397 
Q 2534 397 2845 478 
Q 3156 559 3463 722 
L 3463 178 
Q 3153 47 2828 -22 
Q 2503 -91 2169 -91 
Q 1331 -91 842 396 
Q 353 884 353 1716 
Q 353 2575 817 3079 
Q 1281 3584 2069 3584 
Q 2775 3584 3186 3129 
Q 3597 2675 3597 1894 
z
M 3022 2063 
Q 3016 2534 2758 2815 
Q 2500 3097 2075 3097 
Q 1594 3097 1305 2825 
Q 1016 2553 972 2059 
L 3022 2063 
z
" transform="scale(0.015625)"/>
       <path id="DejaVuSans-74" d="M 1172 4494 
L 1172 3500 
L 2356 3500 
L 2356 3053 
L 1172 3053 
L 1172 1153 
Q 1172 725 1289 603 
Q 1406 481 1766 481 
L 2356 481 
L 2356 0 
L 1766 0 
Q 1100 0 847 248 
Q 594 497 594 1153 
L 594 3053 
L 172 3053 
L 172 3500 
L 594 3500 
L 594 4494 
L 1172 4494 
z
" transform="scale(0.015625)"/>
       <path id="DejaVuSans-72" d="M 2631 2963 
Q 2534 3019 2420 3045 
Q 2306 3072 2169 3072 
Q 1681 3072 1420 2755 
Q 1159 2438 1159 1844 
L 1159 0 
L 581 0 
L 581 3500 
L 1159 3500 
L 1159 2956 
Q 1341 3275 1631 3429 
Q 1922 3584 2338 3584 
Q 2397 3584 2469 3576 
Q 2541 3569 2628 3553 
L 2631 2963 
z
" transform="scale(0.015625)"/>
       <path id="DejaVuSans-73" d="M 2834 3397 
L 2834 2853 
Q 2591 2978 2328 3040 
Q 2066 3103 1784 3103 
Q 1356 3103 1142 2972 
Q 928 2841 928 2578 
Q 928 2378 1081 2264 
Q 1234 2150 1697 2047 
L 1894 2003 
Q 2506 1872 2764 1633 
Q 3022 1394 3022 966 
Q 3022 478 2636 193 
Q 2250 -91 1575 -91 
Q 1294 -91 989 -36 
Q 684 19 347 128 
L 347 722 
Q 666 556 975 473 
Q 1284 391 1588 391 
Q 1994 391 2212 530 
Q 2431 669 2431 922 
Q 2431 1156 2273 1281 
Q 2116 1406 1581 1522 
L 1381 1569 
Q 847 1681 609 1914 
Q 372 2147 372 2553 
Q 372 3047 722 3315 
Q 1072 3584 1716 3584 
Q 2034 3584 2315 3537 
Q 2597 3491 2834 3397 
z
" transform="scale(0.015625)"/>
      </defs>
      <use xlink:href="#DejaVuSans-4d"/>
      <use xlink:href="#DejaVuSans-65" x="86.279297"/>
      <use xlink:href="#DejaVuSans-74" x="147.802734"/>
      <use xlink:href="#DejaVuSans-65" x="187.011719"/>
      <use xlink:href="#DejaVuSans-72" x="248.535156"/>
      <use xlink:href="#DejaVuSans-73" x="289.648438"/>
     </g>
    </g>
   </g>
   <g id="line2d_12">
    <path d="M 115.363636 274.985349 
L 115.647029 275.088969 
L 116.780599 274.866925 
L 117.347384 274.763304 
L 118.197562 274.807713 
L 118.480955 274.659683 
L 118.764347 274.711494 
L 119.04774 275.014955 
L 119.331133 275.784709 
L 119.614525 275.266605 
L 119.897918 275.051962 
L 120.18131 275.199992 
L 120.464703 274.94094 
L 120.748095 274.970546 
L 121.314881 275.555263 
L 121.598273 275.829118 
L 121.881666 276.510055 
L 122.165058 275.947542 
L 122.448451 275.762505 
L 123.015236 275.673687 
L 123.865414 275.607073 
L 124.998984 275.614475 
L 125.282377 275.481248 
L 125.565769 275.103772 
L 125.849162 276.798712 
L 126.132555 276.872727 
L 126.415947 275.895731 
L 126.69934 275.903133 
L 126.982732 275.525657 
L 127.266125 275.695891 
L 127.83291 275.570066 
L 128.116303 274.711494 
L 128.399695 274.7411 
L 128.683088 274.59307 
L 129.249873 274.704092 
L 130.666836 273.719695 
L 130.950229 273.053561 
L 131.517014 273.39403 
L 131.800406 273.164583 
L 132.367191 273.134978 
L 132.650584 273.912133 
L 132.933977 273.882527 
L 133.500762 273.201591 
L 134.067547 273.171985 
L 134.35094 273.253401 
L 134.634332 273.660483 
L 134.917725 273.719695 
L 135.201117 274.141579 
L 135.48451 274.807713 
L 136.051295 273.867725 
L 136.334688 273.882527 
L 136.61808 273.482847 
L 137.184865 273.357022 
L 137.468258 273.09797 
L 138.035043 272.957342 
L 138.318436 273.083167 
L 138.601828 273.038758 
L 138.885221 272.735297 
L 139.168614 272.838918 
L 139.452006 273.941739 
L 139.735399 273.823316 
L 140.018791 273.312613 
L 140.585576 273.275606 
L 140.868969 273.564264 
L 141.152362 273.527256 
L 141.435754 273.608673 
L 142.002539 273.912133 
L 142.569325 273.638278 
L 142.852717 273.741899 
L 143.419502 273.734498 
L 143.986287 274.119375 
L 144.26968 274.326617 
L 144.553073 274.104572 
L 144.836465 274.304412 
L 145.970036 274.208193 
L 146.253428 274.44504 
L 146.536821 274.84472 
L 146.820213 274.578267 
L 147.103606 274.474646 
L 148.237176 274.726297 
L 148.520569 274.563464 
L 148.803961 274.637479 
L 149.370747 274.037959 
L 150.220924 273.69749 
L 150.787709 273.756702 
L 151.92128 273.431037 
L 152.204672 273.164583 
L 152.488065 273.083167 
L 152.771458 272.801911 
L 153.621635 272.565063 
L 153.905028 272.624275 
L 154.188421 272.261602 
L 154.471813 272.091368 
L 155.321991 272.320814 
L 155.888776 273.99355 
L 156.455561 272.964743 
L 157.305739 272.801911 
L 157.589132 272.861123 
L 157.872524 273.060963 
L 158.155917 272.794509 
L 158.439309 273.090569 
L 159.006094 273.186788 
L 159.289487 272.883327 
L 159.57288 273.038758 
L 159.856272 274.141579 
L 160.139665 273.756702 
L 160.423057 272.772305 
L 160.70645 272.594669 
L 161.273235 272.565063 
L 161.84002 272.727896 
L 162.123413 273.164583 
L 162.690198 274.556063 
L 163.256983 273.268204 
L 163.540376 273.127576 
L 163.823768 273.246 
L 164.107161 273.157182 
L 165.240731 273.29781 
L 165.807517 273.512453 
L 166.090909 273.260803 
L 166.657694 274.111974 
L 166.941087 273.801111 
L 167.507872 272.772305 
L 168.074657 272.89813 
L 168.35805 272.735297 
L 168.641442 272.7501 
L 168.924835 272.172785 
L 169.208228 272.424435 
L 169.775013 271.758301 
L 170.058405 235.180164 
L 170.341798 271.329015 
L 170.62519 271.358621 
L 171.758761 270.840517 
L 172.042153 270.692488 
L 173.175724 271.180986 
L 173.459116 271.484446 
L 173.742509 271.062562 
L 174.025901 270.426034 
L 174.309294 270.196588 
L 175.442864 268.694087 
L 175.726257 268.671882 
L 176.00965 269.049358 
L 176.293042 269.893127 
L 176.859827 268.235195 
L 177.14322 268.316611 
L 177.426612 268.21299 
L 177.710005 268.427633 
L 177.993398 268.287005 
L 178.27679 268.671882 
L 178.560183 268.731094 
L 178.843575 268.938336 
L 179.126968 268.901328 
L 179.410361 269.234395 
L 179.977146 269.145577 
L 180.260538 270.181785 
L 180.543931 270.10481 
L 180.827324 269.463841 
L 182.244286 270.278004 
L 182.527679 270.818313 
L 183.094464 272.520654 
L 183.661249 271.625075 
L 183.944642 271.60287 
L 184.79482 271.817513 
L 185.361605 271.869324 
L 186.211783 272.306011 
L 186.778568 272.276405 
L 187.06196 272.372625 
L 187.345353 272.616874 
L 187.912138 272.387428 
L 188.195531 272.106171 
L 188.478923 272.039558 
L 188.762316 272.187588 
L 189.045708 272.135777 
L 189.612494 273.312613 
L 190.179279 272.972145 
L 191.029457 273.268204 
L 191.312849 273.556862 
L 191.596242 273.571665 
L 191.879634 273.468044 
L 192.163027 273.571665 
L 192.729812 273.431037 
L 193.296597 273.416234 
L 193.57999 273.630877 
L 193.863382 274.119375 
L 194.146775 273.912133 
L 194.430168 273.882527 
L 194.996953 274.237799 
L 195.280345 274.074966 
L 195.847131 274.252602 
L 196.130523 274.267405 
L 196.697308 274.578267 
L 197.264093 274.326617 
L 198.114271 274.230397 
L 198.397664 274.297011 
L 198.681056 274.111974 
L 199.247842 274.222996 
L 199.531234 274.126776 
L 199.814627 274.215594 
L 200.098019 274.119375 
L 200.381412 274.319215 
L 200.948197 274.015754 
L 201.23159 274.171185 
L 201.514982 274.526457 
L 202.081767 274.600471 
L 202.36516 274.430237 
L 202.931945 274.815115 
L 203.215338 275.533059 
L 203.49873 275.236999 
L 203.782123 274.548661 
L 204.065515 274.556063 
L 205.482478 274.052762 
L 206.332656 273.838119 
L 206.616049 273.764104 
L 206.899441 274.089769 
L 207.466227 273.194189 
L 208.599797 272.261602 
L 209.733367 269.093767 
L 210.01676 268.938336 
L 210.583545 269.204789 
L 211.15033 269.338016 
L 212.2839 269.56006 
L 212.850686 269.841317 
L 213.700863 269.870923 
L 213.984256 269.663681 
L 214.267649 269.752499 
L 214.834434 269.352819 
L 215.117826 269.152979 
L 215.401219 268.7607 
L 215.968004 268.368421 
L 216.251397 267.976143 
L 217.384967 268.01315 
L 218.518537 268.272202 
L 219.368715 268.671882 
L 219.9355 269.234395 
L 220.218893 269.338016 
L 220.785678 269.197388 
L 221.069071 269.264001 
L 221.352463 269.545258 
L 221.919248 270.337216 
L 222.202641 270.574064 
L 222.486034 270.40383 
L 223.336211 271.010751 
L 223.902996 272.883327 
L 224.186389 271.713893 
L 224.469782 271.255 
L 224.753174 271.032956 
L 225.319959 270.877525 
L 225.603352 271.292008 
L 225.886745 271.15138 
L 226.170137 271.329015 
L 226.45353 271.299409 
L 227.020315 271.913733 
L 227.303707 271.425235 
L 227.5871 271.447439 
L 228.437278 272.091368 
L 229.287456 272.387428 
L 230.137633 272.491048 
L 230.421026 273.038758 
L 230.704418 274.104572 
L 230.987811 273.260803 
L 231.271204 273.023955 
L 232.688167 273.090569 
L 232.971559 273.105372 
L 233.254952 272.94994 
L 233.821737 273.157182 
L 234.10513 273.105372 
L 234.388522 274.030557 
L 234.671915 274.274806 
L 234.955307 272.94994 
L 235.522092 272.920334 
L 235.805485 273.083167 
L 236.088878 273.053561 
L 236.37227 273.260803 
L 236.655663 273.194189 
L 236.939055 273.371825 
L 237.505841 275.866125 
L 238.072626 274.023156 
L 238.639411 273.867725 
L 239.206196 273.875126 
L 239.772981 273.882527 
L 240.056374 273.838119 
L 240.339766 273.986148 
L 240.906552 273.956542 
L 241.189944 274.64488 
L 241.473337 274.64488 
L 241.756729 273.64568 
L 242.040122 273.379227 
L 242.323514 273.334818 
L 243.740477 273.912133 
L 244.307263 275.68849 
L 244.590655 274.637479 
L 245.15744 274.015754 
L 246.291011 274.163784 
L 246.574403 273.860323 
L 246.857796 274.185988 
L 247.424581 274.185988 
L 247.707974 274.089769 
L 247.991366 273.838119 
L 248.274759 273.778907 
L 248.558151 273.875126 
L 248.841544 273.852922 
L 249.124937 273.505052 
L 249.975114 273.246 
L 250.258507 273.59387 
L 250.541899 272.905532 
L 250.825292 272.772305 
L 251.67547 272.853721 
L 251.958862 272.639078 
L 252.242255 272.283807 
L 253.659218 271.617673 
L 253.94261 271.40303 
L 254.226003 270.981146 
L 255.076181 270.914532 
L 256.776536 268.886525 
L 257.343321 268.153778 
L 257.626714 269.167782 
L 257.910107 270.670283 
L 258.193499 268.745897 
L 258.476892 267.865121 
L 258.760284 267.517251 
L 259.610462 267.61347 
L 259.893855 267.739295 
L 260.177247 267.643076 
L 260.46064 267.857719 
L 260.744033 267.709689 
L 261.027425 267.909529 
L 261.310818 267.709689 
L 261.59421 268.834715 
L 261.877603 268.279604 
L 262.160995 267.317411 
L 263.294566 268.079764 
L 263.861351 268.583065 
L 264.144744 268.70889 
L 264.711529 271.913733 
L 264.994921 270.389027 
L 265.278314 269.900529 
L 265.561706 270.041157 
L 265.845099 270.048558 
L 266.128492 270.418633 
L 266.978669 270.80351 
L 267.545455 271.314212 
L 268.11224 271.373424 
L 268.395632 272.491048 
L 268.679025 272.394829 
L 268.962417 271.225395 
L 269.24581 271.166183 
L 269.529203 271.284606 
L 269.812595 271.573264 
L 270.095988 271.454841 
L 270.946166 271.861922 
L 271.229558 272.816714 
L 271.512951 274.237799 
L 271.796343 273.068364 
L 272.079736 272.69829 
L 272.646521 272.365223 
L 272.929914 272.024755 
L 273.496699 272.20239 
L 274.063484 272.335617 
L 274.630269 272.409632 
L 275.480447 272.565063 
L 275.76384 272.291208 
L 276.047232 272.587268 
L 276.330625 272.409632 
L 276.614017 272.653881 
L 276.89741 272.417034 
L 277.180802 272.594669 
L 277.747588 272.49845 
L 278.03098 273.127576 
L 278.314373 274.297011 
L 278.597765 273.231197 
L 278.881158 273.364424 
L 279.447943 272.935137 
L 279.731336 272.912933 
L 280.014728 273.053561 
L 280.864906 273.053561 
L 281.715084 272.683487 
L 281.998476 273.623476 
L 282.281869 273.320015 
L 282.565262 272.779706 
L 282.848654 273.009152 
L 283.132047 272.668684 
L 283.698832 273.120175 
L 283.982224 273.208992 
L 284.265617 273.112773 
L 284.54901 273.453241 
L 284.832402 273.260803 
L 285.115795 273.468044 
L 285.399187 273.438438 
L 285.68258 273.068364 
L 285.965973 273.320015 
L 286.249365 273.238598 
L 286.532758 273.527256 
L 286.81615 272.994349 
L 287.099543 273.001751 
L 287.666328 273.667884 
L 287.949721 273.401431 
L 288.516506 273.349621 
L 288.799898 274.385828 
L 289.366684 272.927736 
L 289.650076 272.89813 
L 289.933469 272.602071 
L 290.500254 272.64648 
L 291.067039 273.083167 
L 291.350432 273.186788 
L 291.633824 273.904732 
L 291.917217 275.577467 
L 292.200609 274.385828 
L 292.484002 274.037959 
L 293.33418 273.690089 
L 294.184358 273.756702 
L 294.751143 273.830717 
L 295.317928 273.675286 
L 295.60132 274.326617 
L 295.884713 273.408832 
L 296.168106 273.179386 
L 296.451498 273.112773 
L 296.734891 273.327416 
L 297.585069 273.312613 
L 297.868461 273.312613 
L 298.151854 273.482847 
L 298.435246 274.030557 
L 298.718639 275.162984 
L 299.002031 274.326617 
L 299.568817 273.357022 
L 299.852209 273.727096 
L 300.135602 273.712293 
L 300.418994 273.408832 
L 300.702387 273.889929 
L 301.835957 273.749301 
L 302.11935 273.519855 
L 302.402743 274.415434 
L 302.686135 274.156382 
L 303.536313 273.919535 
L 303.819705 274.074966 
L 304.386491 273.527256 
L 304.669883 273.556862 
L 304.953276 273.734498 
L 305.520061 274.459843 
L 305.803454 273.904732 
L 306.086846 273.79371 
L 306.653631 273.830717 
L 306.937024 273.801111 
L 307.220416 273.926936 
L 307.503809 273.89733 
L 307.787202 273.749301 
L 308.353987 273.84552 
L 308.637379 273.764104 
L 308.920772 273.838119 
L 309.204165 273.771505 
L 309.487557 273.823316 
L 310.054342 274.430237 
L 310.621127 274.326617 
L 312.321483 273.889929 
L 312.888268 273.238598 
L 313.738446 271.343818 
L 314.588624 269.197388 
L 315.155409 268.531254 
L 316.005587 268.671882 
L 316.572372 268.953139 
L 317.989335 269.486046 
L 318.272727 269.375023 
L 318.55612 269.412031 
L 318.839512 269.722893 
L 319.122905 271.314212 
L 319.406298 270.433436 
L 319.68969 270.092967 
L 320.539868 270.292807 
L 320.823261 270.485246 
L 321.673438 270.699889 
L 322.240223 271.129175 
L 322.523616 271.047759 
L 322.807009 272.032156 
L 323.090401 271.062562 
L 323.373794 270.722094 
L 324.223972 271.780506 
L 324.790757 272.046959 
L 325.074149 271.958141 
L 325.640934 272.357822 
L 325.924327 273.741899 
L 326.20772 272.838918 
L 326.491112 272.579866 
L 326.774505 272.491048 
L 329.041646 273.016554 
L 329.325038 273.216394 
L 329.608431 273.99355 
L 329.891823 272.609472 
L 330.175216 272.239398 
L 330.458608 272.343019 
L 330.742001 272.742699 
L 332.442357 273.482847 
L 333.292534 273.068364 
L 333.859319 273.216394 
L 334.142712 273.016554 
L 334.426105 273.164583 
L 334.99289 273.142379 
L 335.276282 273.275606 
L 335.559675 273.112773 
L 335.843068 273.231197 
L 336.12646 273.171985 
L 336.409853 273.238598 
L 336.976638 273.120175 
L 337.826816 273.357022 
L 338.110208 273.79371 
L 339.810564 273.053561 
L 343.494667 271.95074 
L 344.344845 271.314212 
L 344.628238 271.255 
L 345.195023 270.396428 
L 346.328593 270.396428 
L 346.895378 269.515652 
L 347.178771 269.212191 
L 347.462164 268.198187 
L 348.028949 266.932533 
L 348.312341 266.769701 
L 348.879126 265.496645 
L 349.162519 265.089564 
L 349.445912 265.096965 
L 349.729304 264.897125 
L 350.012697 265.504047 
L 350.296089 264.62327 
L 350.862875 264.860118 
L 351.42966 265.207988 
L 351.713052 265.126571 
L 351.996445 265.267199 
L 352.279837 265.629872 
L 352.56323 265.696486 
L 352.846623 265.948136 
L 353.130015 267.080563 
L 353.413408 266.636474 
L 353.6968 266.436634 
L 354.263586 266.488444 
L 355.397156 267.450637 
L 355.680549 267.398827 
L 355.963941 267.776303 
L 356.530726 268.057559 
L 356.814119 268.797708 
L 357.097511 267.739295 
L 357.380904 267.598667 
L 358.231082 268.901328 
L 358.514474 269.367622 
L 358.797867 269.352819 
L 359.08126 269.589666 
L 359.364652 269.537856 
L 359.648045 269.974544 
L 359.931437 270.899729 
L 360.781615 270.544458 
L 361.065008 270.596268 
L 361.915185 271.188387 
L 362.198578 271.195789 
L 362.481971 271.343818 
L 362.765363 271.299409 
L 363.332148 271.632476 
L 363.615541 271.543658 
L 363.898933 270.80351 
L 364.182326 271.010751 
L 364.465719 270.862722 
L 364.749111 271.136577 
L 365.032504 271.610272 
L 365.599289 271.662082 
L 365.882682 271.906331 
L 366.166074 271.95074 
L 366.732859 272.824115 
L 367.583037 272.409632 
L 369.850178 272.868524 
L 370.416963 272.757502 
L 370.700356 272.15058 
L 370.983748 272.29861 
L 371.267141 272.64648 
L 371.833926 272.683487 
L 372.117318 272.920334 
L 372.400711 272.661283 
L 372.967496 273.031357 
L 373.250889 273.001751 
L 373.534281 273.09797 
L 374.101067 272.868524 
L 374.384459 272.661283 
L 375.801422 272.690888 
L 376.084815 272.994349 
L 377.78517 273.09797 
L 378.351955 272.927736 
L 379.202133 273.44584 
L 379.485526 273.438438 
L 379.768918 273.246 
L 380.052311 273.482847 
L 380.335703 273.904732 
L 380.619096 273.505052 
L 380.902489 273.39403 
L 381.185881 273.482847 
L 382.319451 273.453241 
L 382.886237 273.556862 
L 383.169629 273.29781 
L 383.736414 273.556862 
L 384.019807 273.379227 
L 384.3032 272.972145 
L 384.869985 273.364424 
L 385.43677 273.801111 
L 386.286948 273.815914 
L 386.57034 273.801111 
L 386.853733 273.919535 
L 387.137125 273.84552 
L 387.420518 274.060163 
L 387.703911 273.941739 
L 387.987303 274.097171 
L 388.554088 273.986148 
L 390.537836 274.148981 
L 391.388014 272.994349 
L 391.954799 273.49765 
L 392.521585 273.59387 
L 392.804977 273.815914 
L 393.08837 273.749301 
L 393.655155 274.111974 
L 394.22194 274.519055 
L 395.072118 273.882527 
L 395.638903 274.215594 
L 395.922296 274.230397 
L 396.489081 273.875126 
L 397.055866 273.786308 
L 397.339259 273.84552 
L 397.622651 273.756702 
L 397.906044 273.379227 
L 398.189436 273.194189 
L 398.472829 273.749301 
L 398.756221 273.815914 
L 399.039614 274.04536 
L 399.606399 273.875126 
L 399.889792 273.860323 
L 400.73997 274.34142 
L 401.306755 273.978747 
L 401.590147 273.978747 
L 401.87354 273.808513 
L 402.723718 274.060163 
L 403.857288 274.082368 
L 404.424073 273.749301 
L 404.707466 273.157182 
L 405.274251 273.134978 
L 406.691214 273.64568 
L 407.257999 274.134178 
L 407.824784 273.653081 
L 408.391569 273.090569 
L 408.958354 272.720494 
L 409.241747 272.831517 
L 409.52514 272.624275 
L 409.808532 272.861123 
L 410.942103 272.735297 
L 411.225495 272.594669 
L 411.508888 272.076565 
L 411.79228 271.832316 
L 412.359066 272.394829 
L 413.776028 272.858162 
L 414.059421 272.920334 
L 414.342814 273.682687 
L 414.909599 273.305212 
L 415.192991 273.408832 
L 415.476384 273.29781 
L 415.759777 273.408832 
L 416.043169 273.39403 
L 416.326562 273.608673 
L 416.609954 273.608673 
L 417.176739 273.79371 
L 417.743525 273.949141 
L 418.026917 273.512453 
L 418.31031 272.84632 
L 418.593702 272.779706 
L 419.160488 273.290409 
L 420.294058 273.764104 
L 420.860843 273.801111 
L 421.427628 273.926936 
L 422.277806 273.926936 
L 423.127984 274.163784 
L 424.544947 274.200791 
L 424.828339 273.84552 
L 425.111732 272.927736 
L 425.395124 272.942539 
L 425.96191 273.601271 
L 426.245302 273.49765 
L 426.528695 273.734498 
L 427.378873 273.956542 
L 427.662265 274.000951 
L 427.945658 274.19339 
L 428.795835 274.171185 
L 429.362621 273.904732 
L 429.646013 273.830717 
L 430.496191 274.052762 
L 430.779584 273.830717 
L 431.346369 273.934338 
L 431.629761 273.786308 
L 431.913154 273.305212 
L 432.196546 273.364424 
L 432.479939 273.704892 
L 433.330117 274.089769 
L 434.180295 274.297011 
L 434.463687 274.163784 
L 434.74708 273.84552 
L 435.030472 273.719695 
L 435.313865 273.727096 
L 435.88065 273.986148 
L 436.164043 273.956542 
L 436.447435 274.134178 
L 438.147791 273.667884 
L 438.431183 273.44584 
L 439.281361 273.608673 
L 439.848146 273.571665 
L 440.131539 273.756702 
L 440.414931 273.571665 
L 440.698324 273.69749 
L 440.981717 273.482847 
L 441.265109 273.549461 
L 441.831894 273.416234 
L 442.115287 273.453241 
L 442.39868 273.164583 
L 442.682072 273.083167 
L 443.248857 273.371825 
L 443.53225 273.09797 
L 443.815642 273.253401 
L 445.515998 273.357022 
L 445.799391 273.549461 
L 446.649568 273.719695 
L 446.932961 273.815914 
L 448.916709 273.364424 
L 449.200102 273.171985 
L 449.483494 273.134978 
L 450.333672 273.815914 
L 450.900457 273.401431 
L 451.18385 273.246 
L 452.31742 273.312613 
L 452.600813 273.09797 
L 452.884205 273.216394 
L 453.167598 273.482847 
L 453.45099 273.334818 
L 454.017776 273.889929 
L 454.301168 273.69749 
L 454.584561 273.808513 
L 456.851701 273.401431 
L 458.268664 273.505052 
L 459.402235 273.401431 
L 459.685627 273.623476 
L 459.96902 273.653081 
L 460.535805 273.912133 
L 461.385983 273.949141 
L 461.669375 273.978747 
L 461.952768 273.838119 
L 464.786694 274.104572 
L 465.353479 274.19339 
L 465.920264 273.764104 
L 466.203657 273.090569 
L 466.487049 273.216394 
L 466.770442 273.556862 
L 467.337227 273.608673 
L 468.187405 273.882527 
L 468.470797 274.334018 
L 469.320975 273.815914 
L 470.171153 273.830717 
L 470.454545 273.630877 
L 472.154901 273.919535 
L 472.438294 273.734498 
L 472.721686 273.371825 
L 473.288471 273.334818 
L 473.571864 273.505052 
L 473.855256 273.830717 
L 474.138649 273.601271 
L 474.422042 273.778907 
L 474.705434 273.712293 
L 474.988827 274.19339 
L 475.272219 274.208193 
L 475.555612 274.356223 
L 476.122397 273.89733 
L 476.972575 274.04536 
L 478.106145 274.230397 
L 479.239716 274.178587 
L 479.523108 273.431037 
L 480.089893 273.186788 
L 480.373286 273.379227 
L 480.656679 273.734498 
L 481.223464 273.867725 
L 481.506856 273.675286 
L 481.790249 273.949141 
L 482.073641 274.437639 
L 482.357034 274.689289 
L 482.640427 274.578267 
L 482.923819 274.311814 
L 483.490604 274.171185 
L 484.05739 274.260003 
L 484.624175 274.400631 
L 484.907567 274.363624 
L 485.19096 274.452442 
L 485.474352 274.39323 
L 485.757745 274.519055 
L 486.041138 274.356223 
L 486.32453 273.660483 
L 486.607923 273.342219 
L 487.741493 273.764104 
L 488.024886 273.69749 
L 488.591671 274.104572 
L 488.875063 274.733698 
L 489.158456 274.933538 
L 489.725241 274.348821 
L 490.008634 274.334018 
L 490.292026 274.097171 
L 490.575419 273.667884 
L 491.142204 274.371025 
L 491.425597 274.171185 
L 491.708989 273.79371 
L 491.992382 274.282208 
L 492.275775 274.089769 
L 492.559167 274.297011 
L 492.84256 274.141579 
L 493.125952 273.408832 
L 493.409345 273.653081 
L 493.692737 274.156382 
L 493.97613 274.274806 
L 494.542915 274.134178 
L 494.826308 274.274806 
L 495.1097 274.074966 
L 495.676486 274.452442 
L 496.526663 273.830717 
L 496.810056 273.756702 
L 497.376841 273.882527 
L 497.660234 274.252602 
L 497.943626 274.252602 
L 498.227019 274.008353 
L 499.927374 273.712293 
L 500.777552 273.712293 
L 501.060945 273.527256 
L 501.911122 273.564264 
L 503.044693 273.112773 
L 503.89487 272.979546 
L 504.178263 273.268204 
L 504.745048 272.986948 
L 505.311833 273.208992 
L 506.445404 273.357022 
L 506.728796 273.016554 
L 507.295582 273.016554 
L 507.578974 273.460643 
L 507.862367 273.608673 
L 508.145759 273.59387 
L 508.429152 273.756702 
L 508.995937 273.357022 
L 509.562722 273.549461 
L 509.846115 273.201591 
L 510.129507 273.268204 
L 511.54647 272.801911 
L 511.829863 272.853721 
L 512.396648 272.557662 
L 513.246826 272.720494 
L 513.530218 272.616874 
L 513.813611 272.661283 
L 514.097004 273.023955 
L 514.380396 272.875926 
L 514.663789 273.090569 
L 514.947181 272.861123 
L 515.513966 273.194189 
L 516.080752 273.305212 
L 516.364144 273.308912 
L 525.149314 273.867725 
L 525.432707 273.734498 
L 525.7161 273.808513 
L 525.999492 273.756702 
L 526.282885 273.49765 
L 526.84967 273.608673 
L 527.133062 273.601271 
L 527.416455 273.357022 
L 527.699848 273.342219 
L 527.98324 273.741899 
L 528.833418 273.934338 
L 529.116811 273.882527 
L 529.400203 273.986148 
L 530.250381 273.949141 
L 530.533773 273.586468 
L 531.950736 273.653081 
L 532.234129 273.630877 
L 532.800914 274.000951 
L 533.651092 273.823316 
L 534.50127 273.949141 
L 535.068055 274.267405 
L 535.63484 274.156382 
L 536.201625 273.949141 
L 537.051803 273.749301 
L 537.335196 273.89733 
L 538.468766 273.823316 
L 540.452514 273.734498 
L 541.586084 273.675286 
L 542.152869 273.926936 
L 542.436262 273.852922 
L 542.719655 273.912133 
L 543.003047 274.282208 
L 543.28644 273.867725 
L 543.853225 273.912133 
L 544.136618 274.104572 
L 544.42001 274.089769 
L 544.703403 273.889929 
L 545.270188 274.082368 
L 546.120366 274.097171 
L 546.687151 274.185988 
L 546.970543 274.260003 
L 547.253936 273.912133 
L 547.537329 273.112773 
L 547.820721 273.001751 
L 548.387506 273.690089 
L 549.521077 274.023156 
L 549.804469 273.99355 
L 550.087862 274.148981 
L 550.654647 274.089769 
L 550.93804 274.111974 
L 551.504825 273.867725 
L 552.07161 273.949141 
L 552.921788 274.030557 
L 553.20518 273.956542 
L 553.771965 274.134178 
L 554.055358 273.919535 
L 554.905536 273.749301 
L 555.755714 274.148981 
L 556.039106 273.956542 
L 556.322499 237.378405 
L 556.605891 273.815914 
L 556.889284 237.126755 
L 557.172676 237.015733 
L 557.456069 163.896466 
L 557.739462 236.926915 
L 558.022854 236.778885 
L 558.306247 163.81505 
L 558.589639 163.644816 
L 558.873032 163.659619 
L 559.156425 272.794509 
L 559.439817 163.496786 
L 559.72321 199.815871 
L 560.006602 54.339691 
L 560.289995 163.311749 
L 560.573388 163.304347 
L 560.85678 90.606966 
L 561.140173 271.95074 
L 561.423565 199.371782 
L 561.706958 271.928536 
L 561.99035 271.758301 
L 562.273743 199.201548 
L 562.557136 271.773104 
L 563.407313 271.588067 
L 563.690706 271.60287 
L 563.974099 271.499249 
L 564.257491 271.543658 
L 564.540884 271.232796 
L 564.824276 271.417833 
L 565.674454 270.80351 
L 565.957847 270.374224 
L 566.241239 270.240997 
L 566.524632 270.344618 
L 567.37481 269.937536 
L 567.658202 270.011551 
L 568.224987 269.90793 
L 568.50838 270.026354 
L 569.358558 270.05596 
L 569.64195 270.411231 
L 569.925343 270.248399 
L 570.208735 270.344618 
L 571.058913 270.30761 
L 571.342306 270.366822 
L 571.625698 252.447828 
L 571.909091 270.611071 
L 572.475876 270.788707 
L 573.042661 271.00335 
L 575.876587 272.306011 
L 576.15998 272.172785 
L 576.443372 272.180186 
L 576.726765 272.328216 
L 577.010157 272.29861 
L 577.576943 272.957342 
L 577.860335 272.912933 
L 578.143728 272.735297 
L 579.844083 273.031357 
L 580.977654 272.683487 
L 581.261046 272.661283 
L 582.394617 272.935137 
L 584.094972 273.349621 
L 584.378365 273.431037 
L 584.661757 272.979546 
L 585.511935 273.001751 
L 585.795328 272.912933 
L 586.362113 272.935137 
L 586.645505 272.861123 
L 587.212291 273.201591 
L 587.495683 273.571665 
L 587.779076 273.675286 
L 588.062468 236.897309 
L 588.345861 272.713093 
L 589.479431 273.534658 
L 589.762824 273.616074 
L 590.046216 273.342219 
L 590.329609 273.320015 
L 590.896394 273.468044 
L 591.179787 273.408832 
L 591.463179 272.935137 
L 591.746572 273.134978 
L 592.029964 273.009152 
L 592.313357 273.171985 
L 592.880142 273.038758 
L 594.297105 273.075766 
L 594.580498 273.208992 
L 595.430675 273.246 
L 595.714068 273.371825 
L 596.280853 273.334818 
L 596.564246 273.505052 
L 596.847638 273.512453 
L 597.131031 273.268204 
L 597.414424 273.268204 
L 598.264601 272.779706 
L 598.831386 272.542859 
L 599.114779 90.651375 
L 599.398172 54.339691 
L 601.948705 54.339691 
L 602.232098 126.733612 
L 602.51549 235.380005 
L 602.798883 271.676885 
L 603.082275 271.528855 
L 603.365668 271.676885 
L 603.64906 271.691688 
L 603.932453 271.55106 
L 604.215846 271.787907 
L 604.499238 271.80271 
L 604.782631 235.50583 
L 605.066023 271.654681 
L 605.916201 271.565863 
L 606.199594 235.239376 
L 606.482986 235.135756 
L 606.766379 271.173584 
L 608.466734 270.544458 
L 609.316912 270.648079 
L 609.600305 270.551859 
L 609.883697 270.833116 
L 610.16709 270.692488 
L 611.30066 270.877525 
L 611.584053 271.00335 
L 612.150838 271.047759 
L 612.434231 271.136577 
L 612.717623 271.099569 
L 613.567801 271.432636 
L 613.851193 271.440038 
L 614.134586 271.180986 
L 614.417979 271.217993 
L 614.701371 271.491848 
L 615.551549 271.617673 
L 615.834942 271.861922 
L 616.968512 271.617673 
L 617.251905 271.876725 
L 617.81869 271.958141 
L 618.102082 272.661283 
L 618.385475 272.713093 
L 618.668867 272.49845 
L 618.95226 272.720494 
L 620.08583 272.94994 
L 620.652616 272.764903 
L 620.936008 272.764903 
L 621.502793 272.94994 
L 622.352971 272.609472 
L 622.636364 272.320814 
L 622.636364 272.320814 
" clip-path="url(#pe6b19457a6)" style="fill: none; stroke: #1f77b4; stroke-width: 1.5; stroke-linecap: square"/>
   </g>
   <g id="line2d_13">
    <path d="M 115.363636 274.245628 
L 115.930422 274.247229 
L 116.213814 275.051962 
L 118.764347 274.975569 
L 119.897918 274.916606 
L 122.731844 274.912086 
L 123.015236 275.755103 
L 129.249873 275.661471 
L 129.533266 275.615588 
L 129.816658 274.489449 
L 130.666836 274.40279 
L 134.634332 274.298773 
L 135.201117 274.072545 
L 136.334688 273.152535 
L 136.61808 273.882527 
L 138.885221 273.812462 
L 147.386998 273.727612 
L 148.520569 273.560339 
L 149.937532 273.198926 
L 150.220924 273.830717 
L 150.787709 273.737768 
L 151.637887 273.522186 
L 153.338243 273.446896 
L 154.755206 273.402099 
L 156.455561 272.630345 
L 156.738954 272.364459 
L 157.022346 272.875926 
L 157.589132 272.716225 
L 159.006094 272.667917 
L 163.540376 272.705749 
L 163.823768 273.127576 
L 166.941087 273.086552 
L 168.074657 272.829555 
L 170.341798 272.82922 
L 170.62519 271.329015 
L 172.892331 271.295027 
L 173.459116 270.900778 
L 174.025901 270.423448 
L 174.592687 270.261886 
L 177.14322 270.139633 
L 177.426612 268.316611 
L 183.944642 268.438837 
L 184.228035 271.60287 
L 185.078212 271.472201 
L 190.179279 271.501911 
L 190.746064 271.255061 
L 191.029457 273.112773 
L 193.863382 273.126326 
L 197.547486 273.167657 
L 197.830879 274.274806 
L 204.348908 274.310337 
L 204.632301 274.44504 
L 206.332656 274.414717 
L 206.616049 274.338483 
L 206.899441 273.748284 
L 207.182834 272.792845 
L 207.749619 272.674936 
L 211.433723 272.492735 
L 212.000508 272.505264 
L 212.850686 272.121998 
L 213.134078 272.439356 
L 213.417471 272.098827 
L 213.984256 271.947127 
L 215.684611 271.822192 
L 220.502285 271.827448 
L 238.356018 272.088857 
L 238.639411 273.912133 
L 249.124937 273.908385 
L 251.958862 273.595929 
L 252.242255 272.639078 
L 258.760284 272.583198 
L 259.043677 267.517251 
L 277.747588 267.995678 
L 280.298121 268.058325 
L 287.382936 268.26732 
L 287.666328 273.379227 
L 292.767395 273.403239 
L 293.050787 273.912133 
L 339.810564 274.035452 
L 344.061453 271.887069 
L 345.761808 271.848055 
L 350.579482 271.838268 
L 350.862875 264.837913 
L 356.247334 264.972783 
L 356.530726 267.835515 
L 363.048756 267.952082 
L 363.332148 271.143978 
L 369.850178 271.267228 
L 370.13357 272.720494 
L 376.6516 272.760627 
L 376.934992 273.053561 
L 378.068563 272.992075 
L 378.91874 272.954134 
L 383.453022 272.97999 
L 383.736414 273.231197 
L 390.254444 273.26355 
L 390.537836 274.185988 
L 397.055866 274.206832 
L 397.339259 273.808513 
L 399.889792 273.805442 
L 403.857288 273.833745 
L 404.140681 274.230397 
L 412.075673 274.255386 
L 412.359066 272.269004 
L 417.743525 272.344774 
L 418.026917 273.875126 
L 431.062976 273.965856 
L 431.346369 273.808513 
L 437.864398 273.856756 
L 438.431183 273.990202 
L 440.131539 273.763478 
L 440.698324 273.679146 
L 442.965465 273.437284 
L 443.53225 273.354785 
L 447.499746 273.375163 
L 447.783139 273.741899 
L 451.467242 273.770344 
L 451.750635 273.220095 
L 465.070086 273.295002 
L 465.353479 274.119375 
L 471.871508 274.158102 
L 472.154901 273.952842 
L 478.67293 273.974203 
L 478.956323 274.241499 
L 485.474352 274.276524 
L 485.757745 274.452442 
L 492.275775 274.481006 
L 492.559167 274.285908 
L 499.077197 274.276894 
L 499.360589 273.875126 
L 505.878619 273.844466 
L 506.162011 273.242299 
L 512.680041 273.306821 
L 512.963433 272.487348 
L 533.084307 272.556287 
L 533.367699 273.941739 
L 539.885729 273.985804 
L 540.169121 273.741899 
L 546.687151 273.7919 
L 546.970543 274.208193 
L 553.488573 274.244228 
L 553.771965 273.930637 
L 555.755714 273.858815 
L 558.873032 273.051964 
L 559.439817 272.87754 
L 560.289995 272.762805 
L 560.573388 272.709513 
L 560.85678 54.339691 
L 561.423565 54.408835 
L 566.241239 56.93613 
L 567.091417 57.378166 
L 567.37481 270.289107 
L 570.492128 270.207111 
L 573.892839 270.237032 
L 574.176232 271.232796 
L 580.694261 271.295593 
L 580.977654 272.953641 
L 599.114779 272.950981 
L 601.098527 272.6211 
L 601.38192 54.339691 
L 602.51549 54.797314 
L 602.798883 54.804903 
L 607.899949 57.463896 
L 608.183342 270.899729 
L 609.883697 270.781102 
L 611.867445 270.664629 
L 614.701371 270.663893 
L 614.984764 271.121774 
L 621.502793 271.18512 
L 621.786186 272.920334 
L 622.636364 272.925099 
L 622.636364 272.925099 
" clip-path="url(#pe6b19457a6)" style="fill: none; stroke: #ff7f0e; stroke-width: 1.5; stroke-linecap: square"/>
   </g>
   <g id="patch_3">
    <path d="M 90 288 
L 90 43.2 
" style="fill: none; stroke: #000000; stroke-width: 0.8; stroke-linejoin: miter; stroke-linecap: square"/>
   </g>
   <g id="patch_4">
    <path d="M 648 288 
L 648 43.2 
" style="fill: none; stroke: #000000; stroke-width: 0.8; stroke-linejoin: miter; stroke-linecap: square"/>
   </g>
   <g id="patch_5">
    <path d="M 90 288 
L 648 288 
" style="fill: none; stroke: #000000; stroke-width: 0.8; stroke-linejoin: miter; stroke-linecap: square"/>
   </g>
   <g id="patch_6">
    <path d="M 90 43.2 
L 648 43.2 
" style="fill: none; stroke: #000000; stroke-width: 0.8; stroke-linejoin: miter; stroke-linecap: square"/>
   </g>
   <g id="text_13">
    <!-- MDOT390 -->
    <g transform="translate(339.362813 37.2) scale(0.12 -0.12)">
     <defs>
      <path id="DejaVuSans-44" d="M 1259 4147 
L 1259 519 
L 2022 519 
Q 2988 519 3436 956 
Q 3884 1394 3884 2338 
Q 3884 3275 3436 3711 
Q 2988 4147 2022 4147 
L 1259 4147 
z
M 628 4666 
L 1925 4666 
Q 3281 4666 3915 4102 
Q 4550 3538 4550 2338 
Q 4550 1131 3912 565 
Q 3275 0 1925 0 
L 628 0 
L 628 4666 
z
" transform="scale(0.015625)"/>
      <path id="DejaVuSans-4f" d="M 2522 4238 
Q 1834 4238 1429 3725 
Q 1025 3213 1025 2328 
Q 1025 1447 1429 934 
Q 1834 422 2522 422 
Q 3209 422 3611 934 
Q 4013 1447 4013 2328 
Q 4013 3213 3611 3725 
Q 3209 4238 2522 4238 
z
M 2522 4750 
Q 3503 4750 4090 4092 
Q 4678 3434 4678 2328 
Q 4678 1225 4090 567 
Q 3503 -91 2522 -91 
Q 1538 -91 948 565 
Q 359 1222 359 2328 
Q 359 3434 948 4092 
Q 1538 4750 2522 4750 
z
" transform="scale(0.015625)"/>
      <path id="DejaVuSans-54" d="M -19 4666 
L 3928 4666 
L 3928 4134 
L 2272 4134 
L 2272 0 
L 1638 0 
L 1638 4134 
L -19 4134 
L -19 4666 
z
" transform="scale(0.015625)"/>
     </defs>
     <use xlink:href="#DejaVuSans-4d"/>
     <use xlink:href="#DejaVuSans-44" x="86.279297"/>
     <use xlink:href="#DejaVuSans-4f" x="163.28125"/>
     <use xlink:href="#DejaVuSans-54" x="241.992188"/>
     <use xlink:href="#DejaVuSans-33" x="303.076172"/>
     <use xlink:href="#DejaVuSans-39" x="366.699219"/>
     <use xlink:href="#DejaVuSans-30" x="430.322266"/>
    </g>
   </g>
   <g id="legend_1">
    <g id="patch_7">
     <path d="M 97 80.55625 
L 178.95625 80.55625 
Q 180.95625 80.55625 180.95625 78.55625 
L 180.95625 50.2 
Q 180.95625 48.2 178.95625 48.2 
L 97 48.2 
Q 95 48.2 95 50.2 
L 95 78.55625 
Q 95 80.55625 97 80.55625 
z
" style="fill: #ffffff; opacity: 0.8; stroke: #cccccc; stroke-linejoin: miter"/>
    </g>
    <g id="line2d_14">
     <path d="M 99 56.298437 
L 109 56.298437 
L 119 56.298437 
" style="fill: none; stroke: #1f77b4; stroke-width: 1.5; stroke-linecap: square"/>
    </g>
    <g id="text_14">
     <!-- measured -->
     <g transform="translate(127 59.798437) scale(0.1 -0.1)">
      <defs>
       <path id="DejaVuSans-6d" d="M 3328 2828 
Q 3544 3216 3844 3400 
Q 4144 3584 4550 3584 
Q 5097 3584 5394 3201 
Q 5691 2819 5691 2113 
L 5691 0 
L 5113 0 
L 5113 2094 
Q 5113 2597 4934 2840 
Q 4756 3084 4391 3084 
Q 3944 3084 3684 2787 
Q 3425 2491 3425 1978 
L 3425 0 
L 2847 0 
L 2847 2094 
Q 2847 2600 2669 2842 
Q 2491 3084 2119 3084 
Q 1678 3084 1418 2786 
Q 1159 2488 1159 1978 
L 1159 0 
L 581 0 
L 581 3500 
L 1159 3500 
L 1159 2956 
Q 1356 3278 1631 3431 
Q 1906 3584 2284 3584 
Q 2666 3584 2933 3390 
Q 3200 3197 3328 2828 
z
" transform="scale(0.015625)"/>
       <path id="DejaVuSans-61" d="M 2194 1759 
Q 1497 1759 1228 1600 
Q 959 1441 959 1056 
Q 959 750 1161 570 
Q 1363 391 1709 391 
Q 2188 391 2477 730 
Q 2766 1069 2766 1631 
L 2766 1759 
L 2194 1759 
z
M 3341 1997 
L 3341 0 
L 2766 0 
L 2766 531 
Q 2569 213 2275 61 
Q 1981 -91 1556 -91 
Q 1019 -91 701 211 
Q 384 513 384 1019 
Q 384 1609 779 1909 
Q 1175 2209 1959 2209 
L 2766 2209 
L 2766 2266 
Q 2766 2663 2505 2880 
Q 2244 3097 1772 3097 
Q 1472 3097 1187 3025 
Q 903 2953 641 2809 
L 641 3341 
Q 956 3463 1253 3523 
Q 1550 3584 1831 3584 
Q 2591 3584 2966 3190 
Q 3341 2797 3341 1997 
z
" transform="scale(0.015625)"/>
       <path id="DejaVuSans-75" d="M 544 1381 
L 544 3500 
L 1119 3500 
L 1119 1403 
Q 1119 906 1312 657 
Q 1506 409 1894 409 
Q 2359 409 2629 706 
Q 2900 1003 2900 1516 
L 2900 3500 
L 3475 3500 
L 3475 0 
L 2900 0 
L 2900 538 
Q 2691 219 2414 64 
Q 2138 -91 1772 -91 
Q 1169 -91 856 284 
Q 544 659 544 1381 
z
M 1991 3584 
L 1991 3584 
z
" transform="scale(0.015625)"/>
       <path id="DejaVuSans-64" d="M 2906 2969 
L 2906 4863 
L 3481 4863 
L 3481 0 
L 2906 0 
L 2906 525 
Q 2725 213 2448 61 
Q 2172 -91 1784 -91 
Q 1150 -91 751 415 
Q 353 922 353 1747 
Q 353 2572 751 3078 
Q 1150 3584 1784 3584 
Q 2172 3584 2448 3432 
Q 2725 3281 2906 2969 
z
M 947 1747 
Q 947 1113 1208 752 
Q 1469 391 1925 391 
Q 2381 391 2643 752 
Q 2906 1113 2906 1747 
Q 2906 2381 2643 2742 
Q 2381 3103 1925 3103 
Q 1469 3103 1208 2742 
Q 947 2381 947 1747 
z
" transform="scale(0.015625)"/>
      </defs>
      <use xlink:href="#DejaVuSans-6d"/>
      <use xlink:href="#DejaVuSans-65" x="97.412109"/>
      <use xlink:href="#DejaVuSans-61" x="158.935547"/>
      <use xlink:href="#DejaVuSans-73" x="220.214844"/>
      <use xlink:href="#DejaVuSans-75" x="272.314453"/>
      <use xlink:href="#DejaVuSans-72" x="335.693359"/>
      <use xlink:href="#DejaVuSans-65" x="374.556641"/>
      <use xlink:href="#DejaVuSans-64" x="436.080078"/>
     </g>
    </g>
    <g id="line2d_15">
     <path d="M 99 70.976562 
L 109 70.976562 
L 119 70.976562 
" style="fill: none; stroke: #ff7f0e; stroke-width: 1.5; stroke-linecap: square"/>
    </g>
    <g id="text_15">
     <!-- predicted -->
     <g transform="translate(127 74.476562) scale(0.1 -0.1)">
      <defs>
       <path id="DejaVuSans-70" d="M 1159 525 
L 1159 -1331 
L 581 -1331 
L 581 3500 
L 1159 3500 
L 1159 2969 
Q 1341 3281 1617 3432 
Q 1894 3584 2278 3584 
Q 2916 3584 3314 3078 
Q 3713 2572 3713 1747 
Q 3713 922 3314 415 
Q 2916 -91 2278 -91 
Q 1894 -91 1617 61 
Q 1341 213 1159 525 
z
M 3116 1747 
Q 3116 2381 2855 2742 
Q 2594 3103 2138 3103 
Q 1681 3103 1420 2742 
Q 1159 2381 1159 1747 
Q 1159 1113 1420 752 
Q 1681 391 2138 391 
Q 2594 391 2855 752 
Q 3116 1113 3116 1747 
z
" transform="scale(0.015625)"/>
       <path id="DejaVuSans-69" d="M 603 3500 
L 1178 3500 
L 1178 0 
L 603 0 
L 603 3500 
z
M 603 4863 
L 1178 4863 
L 1178 4134 
L 603 4134 
L 603 4863 
z
" transform="scale(0.015625)"/>
       <path id="DejaVuSans-63" d="M 3122 3366 
L 3122 2828 
Q 2878 2963 2633 3030 
Q 2388 3097 2138 3097 
Q 1578 3097 1268 2742 
Q 959 2388 959 1747 
Q 959 1106 1268 751 
Q 1578 397 2138 397 
Q 2388 397 2633 464 
Q 2878 531 3122 666 
L 3122 134 
Q 2881 22 2623 -34 
Q 2366 -91 2075 -91 
Q 1284 -91 818 406 
Q 353 903 353 1747 
Q 353 2603 823 3093 
Q 1294 3584 2113 3584 
Q 2378 3584 2631 3529 
Q 2884 3475 3122 3366 
z
" transform="scale(0.015625)"/>
      </defs>
      <use xlink:href="#DejaVuSans-70"/>
      <use xlink:href="#DejaVuSans-72" x="63.476562"/>
      <use xlink:href="#DejaVuSans-65" x="102.339844"/>
      <use xlink:href="#DejaVuSans-64" x="163.863281"/>
      <use xlink:href="#DejaVuSans-69" x="227.339844"/>
      <use xlink:href="#DejaVuSans-63" x="255.123047"/>
      <use xlink:href="#DejaVuSans-74" x="310.103516"/>
      <use xlink:href="#DejaVuSans-65" x="349.3125"/>
      <use xlink:href="#DejaVuSans-64" x="410.835938"/>
     </g>
    </g>
   </g>
  </g>
 </g>
 <defs>
  <clipPath id="pe6b19457a6">
   <rect x="90" y="43.2" width="558" height="244.8"/>
  </clipPath>
 </defs>
</svg>
