<?xml version="1.0" encoding="utf-8" standalone="no"?>
<!DOCTYPE svg PUBLIC "-//W3C//DTD SVG 1.1//EN"
  "http://www.w3.org/Graphics/SVG/1.1/DTD/svg11.dtd">
<svg xmlns:xlink="http://www.w3.org/1999/xlink" width="711.452988pt" height="351.43625pt" viewBox="0 0 711.452988 351.43625" xmlns="http://www.w3.org/2000/svg" version="1.1">
 <metadata>
  <rdf:RDF xmlns:dc="http://purl.org/dc/elements/1.1/" xmlns:cc="http://creativecommons.org/ns#" xmlns:rdf="http://www.w3.org/1999/02/22-rdf-syntax-ns#">
   <cc:Work>
    <dc:type rdf:resource="http://purl.org/dc/dcmitype/StillImage"/>
    <dc:date>2024-05-09T06:54:31.968155</dc:date>
    <dc:format>image/svg+xml</dc:format>
    <dc:creator>
     <cc:Agent>
      <dc:title>Matplotlib v3.8.4, https://matplotlib.org/</dc:title>
     </cc:Agent>
    </dc:creator>
   </cc:Work>
  </rdf:RDF>
 </metadata>
 <defs>
  <style type="text/css">*{stroke-linejoin: round; stroke-linecap: butt}</style>
 </defs>
 <g id="figure_1">
  <g id="patch_1">
   <path d="M 0 351.43625 
L 711.452988 351.43625 
L 711.452988 0 
L 0 0 
z
" style="fill: #ffffff"/>
  </g>
  <g id="axes_1">
   <g id="patch_2">
    <path d="M 46.0125 327.558125 
L 702.794465 327.558125 
L 702.794465 22.318125 
L 46.0125 22.318125 
z
" style="fill: #ffffff"/>
   </g>
   <g id="matplotlib.axis_1">
    <g id="xtick_1">
     <g id="line2d_1">
      <defs>
       <path id="m384155267d" d="M 0 0 
L 0 3.5 
" style="stroke: #000000; stroke-width: 0.8"/>
      </defs>
      <g>
       <use xlink:href="#m384155267d" x="106.560215" y="327.558125" style="stroke: #000000; stroke-width: 0.8"/>
      </g>
     </g>
     <g id="text_1">
      <!-- 2010 -->
      <g transform="translate(93.835215 342.156563) scale(0.1 -0.1)">
       <defs>
        <path id="DejaVuSans-32" d="M 1228 531 
L 3431 531 
L 3431 0 
L 469 0 
L 469 531 
Q 828 903 1448 1529 
Q 2069 2156 2228 2338 
Q 2531 2678 2651 2914 
Q 2772 3150 2772 3378 
Q 2772 3750 2511 3984 
Q 2250 4219 1831 4219 
Q 1534 4219 1204 4116 
Q 875 4013 500 3803 
L 500 4441 
Q 881 4594 1212 4672 
Q 1544 4750 1819 4750 
Q 2544 4750 2975 4387 
Q 3406 4025 3406 3419 
Q 3406 3131 3298 2873 
Q 3191 2616 2906 2266 
Q 2828 2175 2409 1742 
Q 1991 1309 1228 531 
z
" transform="scale(0.015625)"/>
        <path id="DejaVuSans-30" d="M 2034 4250 
Q 1547 4250 1301 3770 
Q 1056 3291 1056 2328 
Q 1056 1369 1301 889 
Q 1547 409 2034 409 
Q 2525 409 2770 889 
Q 3016 1369 3016 2328 
Q 3016 3291 2770 3770 
Q 2525 4250 2034 4250 
z
M 2034 4750 
Q 2819 4750 3233 4129 
Q 3647 3509 3647 2328 
Q 3647 1150 3233 529 
Q 2819 -91 2034 -91 
Q 1250 -91 836 529 
Q 422 1150 422 2328 
Q 422 3509 836 4129 
Q 1250 4750 2034 4750 
z
" transform="scale(0.015625)"/>
        <path id="DejaVuSans-31" d="M 794 531 
L 1825 531 
L 1825 4091 
L 703 3866 
L 703 4441 
L 1819 4666 
L 2450 4666 
L 2450 531 
L 3481 531 
L 3481 0 
L 794 0 
L 794 531 
z
" transform="scale(0.015625)"/>
       </defs>
       <use xlink:href="#DejaVuSans-32"/>
       <use xlink:href="#DejaVuSans-30" x="63.623047"/>
       <use xlink:href="#DejaVuSans-31" x="127.246094"/>
       <use xlink:href="#DejaVuSans-30" x="190.869141"/>
      </g>
     </g>
    </g>
    <g id="xtick_2">
     <g id="line2d_2">
      <g>
       <use xlink:href="#m384155267d" x="223.489699" y="327.558125" style="stroke: #000000; stroke-width: 0.8"/>
      </g>
     </g>
     <g id="text_2">
      <!-- 2012 -->
      <g transform="translate(210.764699 342.156563) scale(0.1 -0.1)">
       <use xlink:href="#DejaVuSans-32"/>
       <use xlink:href="#DejaVuSans-30" x="63.623047"/>
       <use xlink:href="#DejaVuSans-31" x="127.246094"/>
       <use xlink:href="#DejaVuSans-32" x="190.869141"/>
      </g>
     </g>
    </g>
    <g id="xtick_3">
     <g id="line2d_3">
      <g>
       <use xlink:href="#m384155267d" x="340.57936" y="327.558125" style="stroke: #000000; stroke-width: 0.8"/>
      </g>
     </g>
     <g id="text_3">
      <!-- 2014 -->
      <g transform="translate(327.85436 342.156563) scale(0.1 -0.1)">
       <defs>
        <path id="DejaVuSans-34" d="M 2419 4116 
L 825 1625 
L 2419 1625 
L 2419 4116 
z
M 2253 4666 
L 3047 4666 
L 3047 1625 
L 3713 1625 
L 3713 1100 
L 3047 1100 
L 3047 0 
L 2419 0 
L 2419 1100 
L 313 1100 
L 313 1709 
L 2253 4666 
z
" transform="scale(0.015625)"/>
       </defs>
       <use xlink:href="#DejaVuSans-32"/>
       <use xlink:href="#DejaVuSans-30" x="63.623047"/>
       <use xlink:href="#DejaVuSans-31" x="127.246094"/>
       <use xlink:href="#DejaVuSans-34" x="190.869141"/>
      </g>
     </g>
    </g>
    <g id="xtick_4">
     <g id="line2d_4">
      <g>
       <use xlink:href="#m384155267d" x="457.508844" y="327.558125" style="stroke: #000000; stroke-width: 0.8"/>
      </g>
     </g>
     <g id="text_4">
      <!-- 2016 -->
      <g transform="translate(444.783844 342.156563) scale(0.1 -0.1)">
       <defs>
        <path id="DejaVuSans-36" d="M 2113 2584 
Q 1688 2584 1439 2293 
Q 1191 2003 1191 1497 
Q 1191 994 1439 701 
Q 1688 409 2113 409 
Q 2538 409 2786 701 
Q 3034 994 3034 1497 
Q 3034 2003 2786 2293 
Q 2538 2584 2113 2584 
z
M 3366 4563 
L 3366 3988 
Q 3128 4100 2886 4159 
Q 2644 4219 2406 4219 
Q 1781 4219 1451 3797 
Q 1122 3375 1075 2522 
Q 1259 2794 1537 2939 
Q 1816 3084 2150 3084 
Q 2853 3084 3261 2657 
Q 3669 2231 3669 1497 
Q 3669 778 3244 343 
Q 2819 -91 2113 -91 
Q 1303 -91 875 529 
Q 447 1150 447 2328 
Q 447 3434 972 4092 
Q 1497 4750 2381 4750 
Q 2619 4750 2861 4703 
Q 3103 4656 3366 4563 
z
" transform="scale(0.015625)"/>
       </defs>
       <use xlink:href="#DejaVuSans-32"/>
       <use xlink:href="#DejaVuSans-30" x="63.623047"/>
       <use xlink:href="#DejaVuSans-31" x="127.246094"/>
       <use xlink:href="#DejaVuSans-36" x="190.869141"/>
      </g>
     </g>
    </g>
    <g id="xtick_5">
     <g id="line2d_5">
      <g>
       <use xlink:href="#m384155267d" x="574.598505" y="327.558125" style="stroke: #000000; stroke-width: 0.8"/>
      </g>
     </g>
     <g id="text_5">
      <!-- 2018 -->
      <g transform="translate(561.873505 342.156563) scale(0.1 -0.1)">
       <defs>
        <path id="DejaVuSans-38" d="M 2034 2216 
Q 1584 2216 1326 1975 
Q 1069 1734 1069 1313 
Q 1069 891 1326 650 
Q 1584 409 2034 409 
Q 2484 409 2743 651 
Q 3003 894 3003 1313 
Q 3003 1734 2745 1975 
Q 2488 2216 2034 2216 
z
M 1403 2484 
Q 997 2584 770 2862 
Q 544 3141 544 3541 
Q 544 4100 942 4425 
Q 1341 4750 2034 4750 
Q 2731 4750 3128 4425 
Q 3525 4100 3525 3541 
Q 3525 3141 3298 2862 
Q 3072 2584 2669 2484 
Q 3125 2378 3379 2068 
Q 3634 1759 3634 1313 
Q 3634 634 3220 271 
Q 2806 -91 2034 -91 
Q 1263 -91 848 271 
Q 434 634 434 1313 
Q 434 1759 690 2068 
Q 947 2378 1403 2484 
z
M 1172 3481 
Q 1172 3119 1398 2916 
Q 1625 2713 2034 2713 
Q 2441 2713 2670 2916 
Q 2900 3119 2900 3481 
Q 2900 3844 2670 4047 
Q 2441 4250 2034 4250 
Q 1625 4250 1398 4047 
Q 1172 3844 1172 3481 
z
" transform="scale(0.015625)"/>
       </defs>
       <use xlink:href="#DejaVuSans-32"/>
       <use xlink:href="#DejaVuSans-30" x="63.623047"/>
       <use xlink:href="#DejaVuSans-31" x="127.246094"/>
       <use xlink:href="#DejaVuSans-38" x="190.869141"/>
      </g>
     </g>
    </g>
    <g id="xtick_6">
     <g id="line2d_6">
      <g>
       <use xlink:href="#m384155267d" x="691.527988" y="327.558125" style="stroke: #000000; stroke-width: 0.8"/>
      </g>
     </g>
     <g id="text_6">
      <!-- 2020 -->
      <g transform="translate(678.802988 342.156563) scale(0.1 -0.1)">
       <use xlink:href="#DejaVuSans-32"/>
       <use xlink:href="#DejaVuSans-30" x="63.623047"/>
       <use xlink:href="#DejaVuSans-32" x="127.246094"/>
       <use xlink:href="#DejaVuSans-30" x="190.869141"/>
      </g>
     </g>
    </g>
   </g>
   <g id="matplotlib.axis_2">
    <g id="ytick_1">
     <g id="line2d_7">
      <defs>
       <path id="m5d9ce91075" d="M 0 0 
L -3.5 0 
" style="stroke: #000000; stroke-width: 0.8"/>
      </defs>
      <g>
       <use xlink:href="#m5d9ce91075" x="46.0125" y="313.68358" style="stroke: #000000; stroke-width: 0.8"/>
      </g>
     </g>
     <g id="text_7">
      <!-- 0 -->
      <g transform="translate(32.65 317.482798) scale(0.1 -0.1)">
       <use xlink:href="#DejaVuSans-30"/>
      </g>
     </g>
    </g>
    <g id="ytick_2">
     <g id="line2d_8">
      <g>
       <use xlink:href="#m5d9ce91075" x="46.0125" y="270.778143" style="stroke: #000000; stroke-width: 0.8"/>
      </g>
     </g>
     <g id="text_8">
      <!-- 10000 -->
      <g transform="translate(7.2 274.577362) scale(0.1 -0.1)">
       <use xlink:href="#DejaVuSans-31"/>
       <use xlink:href="#DejaVuSans-30" x="63.623047"/>
       <use xlink:href="#DejaVuSans-30" x="127.246094"/>
       <use xlink:href="#DejaVuSans-30" x="190.869141"/>
       <use xlink:href="#DejaVuSans-30" x="254.492188"/>
      </g>
     </g>
    </g>
    <g id="ytick_3">
     <g id="line2d_9">
      <g>
       <use xlink:href="#m5d9ce91075" x="46.0125" y="227.872707" style="stroke: #000000; stroke-width: 0.8"/>
      </g>
     </g>
     <g id="text_9">
      <!-- 20000 -->
      <g transform="translate(7.2 231.671926) scale(0.1 -0.1)">
       <use xlink:href="#DejaVuSans-32"/>
       <use xlink:href="#DejaVuSans-30" x="63.623047"/>
       <use xlink:href="#DejaVuSans-30" x="127.246094"/>
       <use xlink:href="#DejaVuSans-30" x="190.869141"/>
       <use xlink:href="#DejaVuSans-30" x="254.492188"/>
      </g>
     </g>
    </g>
    <g id="ytick_4">
     <g id="line2d_10">
      <g>
       <use xlink:href="#m5d9ce91075" x="46.0125" y="184.967271" style="stroke: #000000; stroke-width: 0.8"/>
      </g>
     </g>
     <g id="text_10">
      <!-- 30000 -->
      <g transform="translate(7.2 188.766489) scale(0.1 -0.1)">
       <defs>
        <path id="DejaVuSans-33" d="M 2597 2516 
Q 3050 2419 3304 2112 
Q 3559 1806 3559 1356 
Q 3559 666 3084 287 
Q 2609 -91 1734 -91 
Q 1441 -91 1130 -33 
Q 819 25 488 141 
L 488 750 
Q 750 597 1062 519 
Q 1375 441 1716 441 
Q 2309 441 2620 675 
Q 2931 909 2931 1356 
Q 2931 1769 2642 2001 
Q 2353 2234 1838 2234 
L 1294 2234 
L 1294 2753 
L 1863 2753 
Q 2328 2753 2575 2939 
Q 2822 3125 2822 3475 
Q 2822 3834 2567 4026 
Q 2313 4219 1838 4219 
Q 1578 4219 1281 4162 
Q 984 4106 628 3988 
L 628 4550 
Q 988 4650 1302 4700 
Q 1616 4750 1894 4750 
Q 2613 4750 3031 4423 
Q 3450 4097 3450 3541 
Q 3450 3153 3228 2886 
Q 3006 2619 2597 2516 
z
" transform="scale(0.015625)"/>
       </defs>
       <use xlink:href="#DejaVuSans-33"/>
       <use xlink:href="#DejaVuSans-30" x="63.623047"/>
       <use xlink:href="#DejaVuSans-30" x="127.246094"/>
       <use xlink:href="#DejaVuSans-30" x="190.869141"/>
       <use xlink:href="#DejaVuSans-30" x="254.492188"/>
      </g>
     </g>
    </g>
    <g id="ytick_5">
     <g id="line2d_11">
      <g>
       <use xlink:href="#m5d9ce91075" x="46.0125" y="142.061834" style="stroke: #000000; stroke-width: 0.8"/>
      </g>
     </g>
     <g id="text_11">
      <!-- 40000 -->
      <g transform="translate(7.2 145.861053) scale(0.1 -0.1)">
       <use xlink:href="#DejaVuSans-34"/>
       <use xlink:href="#DejaVuSans-30" x="63.623047"/>
       <use xlink:href="#DejaVuSans-30" x="127.246094"/>
       <use xlink:href="#DejaVuSans-30" x="190.869141"/>
       <use xlink:href="#DejaVuSans-30" x="254.492188"/>
      </g>
     </g>
    </g>
    <g id="ytick_6">
     <g id="line2d_12">
      <g>
       <use xlink:href="#m5d9ce91075" x="46.0125" y="99.156398" style="stroke: #000000; stroke-width: 0.8"/>
      </g>
     </g>
     <g id="text_12">
      <!-- 50000 -->
      <g transform="translate(7.2 102.955617) scale(0.1 -0.1)">
       <defs>
        <path id="DejaVuSans-35" d="M 691 4666 
L 3169 4666 
L 3169 4134 
L 1269 4134 
L 1269 2991 
Q 1406 3038 1543 3061 
Q 1681 3084 1819 3084 
Q 2600 3084 3056 2656 
Q 3513 2228 3513 1497 
Q 3513 744 3044 326 
Q 2575 -91 1722 -91 
Q 1428 -91 1123 -41 
Q 819 9 494 109 
L 494 744 
Q 775 591 1075 516 
Q 1375 441 1709 441 
Q 2250 441 2565 725 
Q 2881 1009 2881 1497 
Q 2881 1984 2565 2268 
Q 2250 2553 1709 2553 
Q 1456 2553 1204 2497 
Q 953 2441 691 2322 
L 691 4666 
z
" transform="scale(0.015625)"/>
       </defs>
       <use xlink:href="#DejaVuSans-35"/>
       <use xlink:href="#DejaVuSans-30" x="63.623047"/>
       <use xlink:href="#DejaVuSans-30" x="127.246094"/>
       <use xlink:href="#DejaVuSans-30" x="190.869141"/>
       <use xlink:href="#DejaVuSans-30" x="254.492188"/>
      </g>
     </g>
    </g>
    <g id="ytick_7">
     <g id="line2d_13">
      <g>
       <use xlink:href="#m5d9ce91075" x="46.0125" y="56.250962" style="stroke: #000000; stroke-width: 0.8"/>
      </g>
     </g>
     <g id="text_13">
      <!-- 60000 -->
      <g transform="translate(7.2 60.050181) scale(0.1 -0.1)">
       <use xlink:href="#DejaVuSans-36"/>
       <use xlink:href="#DejaVuSans-30" x="63.623047"/>
       <use xlink:href="#DejaVuSans-30" x="127.246094"/>
       <use xlink:href="#DejaVuSans-30" x="190.869141"/>
       <use xlink:href="#DejaVuSans-30" x="254.492188"/>
      </g>
     </g>
    </g>
   </g>
   <g id="line2d_14">
    <path d="M 75.866226 313.682464 
L 81.686004 313.606993 
L 81.719374 311.987742 
L 81.806137 313.272545 
L 81.812811 313.326606 
L 81.839507 312.944533 
L 81.859529 303.922593 
L 81.946292 312.098224 
L 82.126491 313.555614 
L 82.13984 313.008248 
L 82.159862 299.342437 
L 82.253298 311.583358 
L 82.426824 313.486215 
L 82.613698 313.646874 
L 84.068642 313.680576 
L 85.310017 313.61064 
L 85.330039 304.823607 
L 85.423476 312.362092 
L 85.603675 313.570953 
L 85.783875 313.648869 
L 86.791657 313.678356 
L 89.040815 313.630956 
L 89.060837 312.933807 
L 89.080859 312.100369 
L 89.167622 312.923081 
L 89.21434 313.210547 
L 89.221014 312.928444 
L 89.327799 280.088623 
L 89.367844 303.493538 
L 89.507999 312.339567 
L 89.554717 312.578765 
L 89.568065 312.417869 
L 89.614784 308.492022 
L 89.654828 268.311081 
L 89.741591 288.755521 
L 89.88842 311.116762 
L 90.075294 312.798655 
L 90.308886 313.418638 
L 90.408996 313.533303 
L 90.442367 313.495439 
L 90.475737 307.387207 
L 90.569174 311.963072 
L 90.769396 313.267611 
L 90.956269 313.510027 
L 91.243254 313.620938 
L 92.22434 313.666546 
L 92.364495 313.610962 
L 92.377843 313.25785 
L 92.391192 306.38751 
L 92.417888 234.52305 
L 92.497976 306.593456 
L 92.65148 312.122894 
L 92.764939 312.665648 
L 92.771613 312.566966 
L 92.845027 272.794699 
L 92.918442 297.701305 
L 93.058597 311.252987 
L 93.158708 312.182962 
L 93.165382 311.927675 
L 93.185404 200.305964 
L 93.205426 90.682575 
L 93.285515 289.763799 
L 93.412322 310.562209 
L 93.592522 312.321332 
L 93.632566 312.336349 
L 93.645914 312.253756 
L 93.679285 303.321917 
L 93.692633 299.138637 
L 93.772721 308.953255 
L 93.81944 310.520376 
L 93.832788 309.788839 
L 93.866158 251.899751 
L 93.946247 302.710514 
L 94.09975 310.760647 
L 94.353364 312.590564 
L 94.700415 313.344627 
L 95.007422 313.540061 
L 95.02077 313.574171 
L 95.074163 313.51303 
L 95.114207 313.511529 
L 95.207644 313.517536 
L 95.214318 313.498872 
L 95.227666 312.578765 
L 95.26771 253.830496 
L 95.341125 295.920729 
L 95.48128 311.333434 
L 95.668154 312.716062 
L 95.861701 313.127954 
L 95.875049 312.989584 
L 95.901746 190.759505 
L 95.988508 287.135841 
L 95.995182 285.913036 
L 96.028553 296.703753 
L 96.088619 291.447837 
L 96.168708 308.08442 
L 96.342233 311.79574 
L 96.442344 312.152928 
L 96.449018 312.114313 
L 96.462366 305.681716 
L 96.482389 282.169537 
L 96.569151 309.049792 
L 96.729329 312.014558 
L 97.002965 312.926299 
L 97.083054 313.121518 
L 97.203187 313.200893 
L 97.256579 313.373695 
L 97.35669 313.313413 
L 97.757134 313.456073 
L 97.903963 313.472056 
L 98.104185 313.497477 
L 98.417865 313.534698 
L 98.764916 313.562801 
L 99.212078 313.485785 
L 99.292167 310.008729 
L 99.372255 312.040301 
L 99.559129 313.19553 
L 99.786047 313.438053 
L 99.90618 313.473879 
L 99.919528 313.406303 
L 99.932876 312.045665 
L 99.959572 272.354918 
L 100.046335 306.561277 
L 100.199839 311.756053 
L 100.446779 313.005674 
L 100.486823 312.923081 
L 101.214295 313.477526 
L 101.527976 313.494259 
L 101.681479 313.49265 
L 101.828309 313.387854 
L 101.861679 312.940243 
L 101.881701 296.092351 
L 101.975138 309.793129 
L 102.141989 312.427523 
L 102.348885 313.108647 
L 102.609173 313.294642 
L 102.876136 313.105429 
L 102.956224 312.041374 
L 103.029639 312.521915 
L 103.263231 313.304081 
L 103.37669 313.355353 
L 103.663674 313.326928 
L 103.770459 313.335831 
L 103.777133 313.351062 
L 103.897266 313.367581 
L 104.938419 313.570953 
L 105.312166 313.477419 
L 105.332189 313.164209 
L 105.352211 302.849957 
L 105.378907 256.404822 
L 105.458996 302.87141 
L 105.612499 311.665951 
L 105.819395 312.650631 
L 106.133075 313.220201 
L 106.279905 313.216983 
L 106.293253 313.182659 
L 106.339971 312.817962 
L 106.42006 311.71422 
L 106.486801 312.087497 
L 106.580237 312.482227 
L 106.620282 312.290226 
L 106.680348 311.825774 
L 106.733741 312.236594 
L 106.980681 313.018545 
L 107.387798 313.418638 
L 107.714827 313.326928 
L 107.734849 313.427649 
L 107.754871 313.595194 
L 107.828286 313.363505 
L 107.841634 313.383671 
L 107.888353 313.537272 
L 107.948419 313.596589 
L 107.975115 313.498014 
L 108.01516 313.387532 
L 108.075226 313.595838 
L 108.135293 313.533732 
L 108.182011 313.443738 
L 108.235404 313.58243 
L 108.288796 313.600665 
L 108.302144 313.490398 
L 108.382233 313.473879 
L 108.32884 313.541563 
L 108.415603 313.533303 
L 108.47567 313.531909 
L 108.448973 313.470232 
L 108.515714 313.499086 
L 108.742632 313.472056 
L 109.062987 313.361467 
L 109.129727 313.0164 
L 109.203142 310.912961 
L 109.303253 312.08857 
L 109.503474 313.034635 
L 109.656978 313.209474 
L 109.690348 309.753442 
L 109.790459 310.974101 
L 109.803807 290.503918 
L 109.897244 310.255435 
L 109.95731 311.347379 
L 110.13751 312.653849 
L 110.277665 312.91879 
L 110.297687 312.830834 
L 110.337732 312.679592 
L 110.424494 312.784711 
L 110.81159 313.383671 
L 111.018485 313.414562 
L 111.031834 313.385923 
L 111.051856 313.324461 
L 111.071878 310.870056 
L 111.111922 185.181798 
L 111.205359 276.35585 
L 111.365536 310.416331 
L 111.532388 312.040301 
L 111.919483 312.913427 
L 112.072986 313.082903 
L 112.093009 313.013182 
L 112.119705 312.291298 
L 112.139727 291.061688 
L 112.159749 260.373575 
L 112.239838 306.164402 
L 112.400015 311.480385 
L 112.613585 312.603435 
L 112.693674 312.688173 
L 112.707022 312.625961 
L 112.727044 311.627337 
L 112.767088 233.879468 
L 112.793785 191.081295 
L 112.847177 288.31574 
L 112.980658 310.651238 
L 113.100791 312.179744 
L 113.167532 312.156146 
L 113.247621 312.34493 
L 113.294339 312.246247 
L 113.42782 311.004135 
L 113.467864 304.501816 
L 113.487887 302.560345 
L 113.554627 308.095146 
L 113.601346 309.35013 
L 113.64139 307.666092 
L 113.648064 307.269217 
L 113.70813 309.967969 
L 113.88833 312.216214 
L 114.108574 312.834052 
L 114.589106 313.272545 
L 114.84272 313.21162 
L 114.896113 311.611247 
L 114.916135 307.84844 
L 115.002898 311.476095 
L 115.196445 312.768621 
L 115.403341 313.205184 
L 115.590215 313.320171 
L 115.630259 313.216983 
L 115.703674 311.741036 
L 115.717022 311.388139 
L 115.803784 312.075698 
L 116.117465 313.163351 
L 116.170858 312.586273 
L 116.204228 308.524201 
L 116.311013 311.611247 
L 116.497886 312.814744 
L 116.884982 313.320171 
L 117.085203 313.404587 
L 117.252055 313.422285 
L 117.258729 313.406732 
L 117.312121 313.108647 
L 117.338818 290.943698 
L 117.42558 308.888897 
L 117.592432 312.22694 
L 117.60578 311.516855 
L 117.632476 307.37648 
L 117.712565 310.988046 
L 117.88609 312.674229 
L 118.113008 313.176223 
L 118.366622 313.369619 
L 119.174183 313.43033 
L 119.180857 313.383885 
L 119.20088 312.574474 
L 119.220902 307.708998 
L 119.314339 311.684186 
L 119.354383 311.897641 
L 119.387753 311.281948 
L 119.441146 307.580281 
L 119.51456 310.458163 
L 119.674738 312.528351 
L 119.688086 312.436104 
L 119.734804 312.778275 
L 119.861611 313.124736 
L 119.868285 312.999238 
L 119.881633 311.007353 
L 119.90833 257.477458 
L 119.988418 307.537376 
L 120.148596 312.075698 
L 120.488973 313.240474 
L 120.508995 313.233072 
L 120.642476 313.338191 
L 120.916112 313.452319 
L 123.812653 313.566877 
L 123.912764 312.550876 
L 123.952808 312.824398 
L 124.146356 313.505522 
L 124.413318 313.601416 
L 124.873828 313.545424 
L 124.900525 313.468516 
L 124.987287 313.545424 
L 125.361035 313.635525 
L 127.34323 313.574385 
L 127.363252 313.289279 
L 127.450014 313.550573 
L 127.610192 313.628661 
L 128.070702 313.638529 
L 128.090724 311.041677 
L 128.184161 312.982076 
L 128.351012 313.569773 
L 128.551234 313.632522 
L 128.931655 313.640567 
L 128.985048 312.649559 
L 128.998396 310.538611 
L 129.091833 312.937025 
L 129.258684 313.577067 
L 129.705846 313.658051 
L 130.767021 313.642455 
L 130.787043 313.1183 
L 130.88048 313.527726 
L 131.027309 313.637242 
L 133.42997 313.680737 
L 135.392143 313.632844 
L 135.438861 311.764634 
L 135.512276 313.34216 
L 135.652431 313.636062 
L 135.972786 313.669507 
L 137.00059 313.638872 
L 137.027287 313.484498 
L 137.114049 313.561621 
L 137.21416 313.611713 
L 137.234182 312.529423 
L 137.327619 313.495868 
L 137.487797 313.647539 
L 138.221943 313.680662 
L 146.751388 313.565482 
L 146.791432 305.188303 
L 146.871521 312.351366 
L 146.884869 312.166872 
L 146.898217 310.146026 
L 146.98498 312.999238 
L 147.138483 313.643055 
L 147.705778 313.680726 
L 147.732475 313.514532 
L 147.859282 313.674913 
L 149.380967 313.68358 
L 154.012762 313.575029 
L 154.039459 312.950969 
L 154.126221 313.493508 
L 154.326443 313.642723 
L 155.267485 313.682207 
L 155.627884 313.586399 
L 155.667929 313.377235 
L 155.734669 311.257277 
L 155.781388 312.382472 
L 155.941565 313.490076 
L 156.181831 313.62437 
L 157.016088 313.6734 
L 160.566687 313.676114 
L 164.611165 313.58715 
L 164.637862 313.140075 
L 164.704602 308.610012 
L 164.764669 312.154001 
L 164.924846 313.392359 
L 165.11172 313.544351 
L 165.118394 313.534805 
L 165.138416 313.464655 
L 165.225179 313.549286 
L 165.545533 313.634667 
L 166.786908 313.616433 
L 166.80693 313.590797 
L 166.880345 313.650886 
L 166.887019 313.651687 
L 167.507706 313.551002 
L 167.574447 313.106501 
L 167.587795 312.984221 
L 167.674558 313.179441 
L 168.048305 313.576745 
L 170.991564 313.489218 
L 171.091675 313.272116 
L 171.138393 313.348703 
L 171.358637 313.569344 
L 171.365311 313.561728 
L 172.066087 313.629519 
L 172.786886 313.648354 
L 173.801342 313.641586 
L 173.81469 313.535878 
L 173.834713 307.912798 
L 173.928149 312.825471 
L 174.088327 313.509383 
L 174.388659 313.609246 
L 181.810211 313.502626 
L 181.883626 313.483962 
L 181.92367 313.536307 
L 182.123892 313.642734 
L 182.591076 313.676811 
L 183.418659 313.606007 
L 183.445355 253.401442 
L 183.532118 308.974708 
L 183.618881 312.403925 
L 183.632229 310.495706 
L 183.645577 308.095146 
L 183.73234 312.72357 
L 183.899191 313.411988 
L 184.052694 313.533411 
L 184.252916 313.58715 
L 184.43979 313.538881 
L 184.47316 289.9676 
L 184.566597 252.328806 
L 184.593293 275.52992 
L 184.733448 311.808612 
L 184.9003 313.131172 
L 185.153914 313.486644 
L 185.601076 313.594658 
L 186.021541 313.506273 
L 186.041563 311.467514 
L 186.06826 301.584247 
L 186.148348 311.528654 
L 186.295178 313.208402 
L 186.462029 313.493508 
L 186.635554 313.576209 
L 187.436441 313.615896 
L 187.449789 313.436766 
L 187.463138 297.636946 
L 187.476486 273.963872 
L 187.563248 309.721263 
L 187.710078 312.999238 
L 187.830211 313.31116 
L 187.863581 313.279089 
L 187.890277 312.179744 
L 187.983714 313.105429 
L 188.103847 313.413919 
L 188.130543 313.356104 
L 188.143891 312.993875 
L 188.163914 295.41659 
L 188.250676 311.630554 
L 188.40418 313.286275 
L 188.597727 313.523006 
L 189.63888 313.644482 
L 190.03265 313.65494 
L 190.126086 313.550573 
L 190.146109 313.541133 
L 190.219523 313.602274 
L 190.573248 313.655476 
L 192.268459 313.680405 
L 194.671119 313.683472 
L 219.038103 313.653446 
L 219.138213 313.427863 
L 219.278369 310.104194 
L 219.298391 305.510094 
L 219.37848 312.30417 
L 219.545331 313.443845 
L 219.752227 313.582108 
L 220.272803 313.634131 
L 220.906839 313.453928 
L 220.940209 313.125809 
L 221.000275 312.38569 
L 221.026972 311.45786 
L 221.10706 312.559457 
L 221.313956 313.485785 
L 221.627637 313.53695 
L 221.640985 313.057482 
L 221.654333 309.610781 
L 221.74777 312.687101 
L 221.927969 313.44288 
L 222.161561 313.573527 
L 223.269455 313.640878 
L 223.910164 313.650886 
L 224.884577 313.542206 
L 224.904599 313.151659 
L 225.031406 304.330194 
L 225.058102 295.867097 
L 225.131517 309.432723 
L 225.291694 312.887684 
L 225.53196 313.473021 
L 225.772226 313.553147 
L 227.374 313.606457 
L 227.400696 313.527404 
L 227.427393 296.886101 
L 227.467437 126.294087 
L 227.534178 295.802739 
L 227.654311 311.230461 
L 227.660985 311.225098 
L 227.701029 311.907294 
L 227.86788 313.087194 
L 228.161539 313.448887 
L 228.662093 313.545746 
L 228.962426 313.497584 
L 228.975774 312.845207 
L 228.995796 291.362026 
L 229.082559 311.230461 
L 229.24941 313.148334 
L 229.46298 313.43859 
L 230.183778 313.55615 
L 230.450741 313.5746 
L 231.391783 313.481817 
L 231.431827 312.661358 
L 231.445175 311.603739 
L 231.538612 312.881248 
L 231.725486 313.341194 
L 231.738834 313.341194 
L 231.752182 313.258172 
L 231.778878 313.116155 
L 231.858967 313.181586 
L 231.965752 313.418317 
L 231.992448 313.407698 
L 232.619809 313.586935 
L 233.207126 313.598627 
L 233.380652 313.61654 
L 234.161516 313.630377 
L 234.31502 313.585469 
L 234.335042 310.790681 
L 234.435153 313.006746 
L 234.468523 312.785783 
L 234.515241 313.126882 
L 234.702115 313.491792 
L 234.762182 313.435014 
L 234.795552 312.166872 
L 234.922359 312.448976 
L 235.115907 313.312555 
L 235.262736 313.469374 
L 235.603113 313.559797 
L 235.723246 313.57317 
L 236.177082 313.559011 
L 236.250496 138.6294 
L 236.310563 246.858363 
L 236.43737 310.582947 
L 236.630918 312.733224 
L 236.884532 313.228782 
L 237.064731 313.428614 
L 237.405108 313.54521 
L 238.52635 313.588616 
L 238.553046 296.56431 
L 238.639809 311.412809 
L 238.786638 313.249162 
L 239.02023 313.568271 
L 239.454044 313.60163 
L 239.761051 313.619436 
L 239.967946 313.634989 
L 240.695419 313.640095 
L 244.639786 313.598198 
L 244.653135 313.120767 
L 244.673157 300.98357 
L 244.766593 312.575547 
L 244.940119 313.496083 
L 245.300518 313.634989 
L 245.674265 313.658609 
L 246.848899 313.679364 
L 249.098057 313.566877 
L 249.198168 313.603883 
L 249.371693 313.647324 
L 249.685374 313.657836 
L 249.698722 306.411108 
L 249.792159 313.034635 
L 249.965684 313.5746 
L 250.232646 313.650886 
L 250.346105 313.651712 
L 251.360562 313.681649 
L 253.803267 313.593821 
L 253.816615 313.244871 
L 253.910052 313.587471 
L 253.970118 313.623512 
L 253.983467 310.59117 
L 254.076903 313.485571 
L 254.096926 313.363398 
L 254.177014 313.587364 
L 254.457325 313.657064 
L 256.239298 313.683344 
L 283.569563 313.596589 
L 283.636303 311.098527 
L 283.69637 312.859795 
L 283.863221 313.542528 
L 284.01005 313.622118 
L 284.016724 313.606028 
L 284.043421 313.07754 
L 284.050095 313.192312 
L 284.070117 307.580281 
L 284.15688 312.747168 
L 284.317057 313.553791 
L 284.737523 313.652956 
L 287.654086 313.671695 
L 288.208032 313.661054 
L 288.608476 313.63781 
L 288.64852 312.402852 
L 288.68189 311.520073 
L 288.748631 313.03678 
L 288.915482 313.560441 
L 288.982223 313.567091 
L 289.002245 313.496726 
L 289.055638 312.645268 
L 289.068986 312.451121 
L 289.1424 313.121518 
L 289.329274 313.548535 
L 289.84985 313.6381 
L 290.263642 313.652945 
L 293.066746 313.666804 
L 293.126813 313.552932 
L 293.140161 309.942226 
L 293.233598 313.07325 
L 293.393775 313.552503 
L 293.640715 313.630377 
L 296.390427 313.573956 
L 296.483863 312.335276 
L 296.503886 302.152744 
L 296.590648 311.928747 
L 296.7575 313.316524 
L 296.977744 313.543064 
L 297.264728 313.568808 
L 297.658497 313.563981 
L 297.778631 313.578354 
L 297.785305 313.585219 
L 298.192422 313.550251 
L 298.225792 313.496083 
L 298.305881 313.541026 
L 299.420449 313.551645 
L 299.447145 312.542295 
L 299.533908 313.203039 
L 299.694085 313.554971 
L 299.981069 313.622654 
L 300.741912 313.656549 
L 303.825326 313.571167 
L 303.845349 313.15477 
L 303.878719 247.394681 
L 303.958808 310.675908 
L 304.112311 312.99602 
L 304.359251 313.393539 
L 304.632887 313.477741 
L 304.666258 313.508525 
L 304.679606 313.414777 
L 304.699628 309.134531 
L 304.726324 292.048513 
L 304.806413 311.215444 
L 304.96659 313.076468 
L 305.046679 313.31116 
L 305.053353 313.17161 
L 305.066701 312.846924 
L 305.153464 313.36565 
L 305.353686 313.519252 
L 305.493841 313.552503 
L 306.147898 313.630377 
L 306.38149 313.63338 
L 307.309184 313.580392 
L 307.322532 313.476775 
L 307.415969 313.58479 
L 307.662909 313.636995 
L 307.669583 313.620401 
L 307.682932 278.436764 
L 307.776368 312.397489 
L 307.783042 312.34922 
L 307.816413 312.912354 
L 307.989938 313.487716 
L 308.003286 313.482353 
L 308.130093 313.60635 
L 308.136767 313.60045 
L 308.236878 313.621796 
L 308.243552 313.625657 
L 308.577255 313.654672 
L 308.730759 313.641779 
L 308.750781 299.535512 
L 308.844218 312.745023 
L 308.944328 313.375089 
L 308.984373 313.261712 
L 308.997721 301.798774 
L 309.091158 312.497244 
L 309.258009 313.362861 
L 309.458231 313.576101 
L 309.958785 313.666289 
L 311.166789 313.682936 
L 313.562776 313.643248 
L 313.582798 313.508525 
L 313.676235 313.618471 
L 315.564993 313.667597 
L 315.705148 313.6641 
L 316.586124 313.682593 
L 325.148939 313.68358 
L 330.13446 313.655584 
L 330.167831 313.177295 
L 330.247919 313.490076 
L 330.481511 313.649534 
L 330.80854 313.668734 
L 331.636123 313.466049 
L 331.72956 312.797582 
L 331.756256 312.926299 
L 332.043241 313.606886 
L 332.390292 313.663285 
L 334.399183 313.531265 
L 334.459249 312.251611 
L 334.552686 313.087194 
L 334.77293 313.547891 
L 334.819648 313.437624 
L 334.839671 313.011037 
L 334.859693 312.350293 
L 334.946456 313.018545 
L 335.160025 313.564731 
L 335.460358 313.643828 
L 336.341334 313.672177 
L 336.474815 313.60753 
L 336.494837 312.453266 
L 336.541555 307.762629 
L 336.608296 311.065275 
L 336.775147 313.133317 
L 336.815192 313.230927 
L 336.962021 313.49855 
L 336.968695 313.486536 
L 337.015413 313.339692 
L 337.068806 313.018545 
L 337.14222 313.089339 
L 337.222309 313.190167 
L 337.309072 313.394397 
L 337.329094 313.254525 
L 337.382486 313.080758 
L 337.435879 313.208402 
L 337.455901 313.277694 
L 337.489271 312.960623 
L 337.50262 312.872667 
L 337.576034 313.166569 
L 337.662797 313.402334 
L 337.682819 313.235647 
L 337.802952 313.1183 
L 337.84967 312.896265 
L 337.916411 313.083976 
L 338.216744 313.557974 
L 338.91752 313.541241 
L 338.937542 312.622743 
L 338.98426 291.072415 
L 339.051001 309.36622 
L 339.204504 312.853359 
L 339.4114 313.425503 
L 339.62497 313.531909 
L 339.83854 313.57889 
L 340.559338 313.639816 
L 342.181134 313.564088 
L 342.214504 312.810454 
L 342.307941 313.319312 
L 342.481466 313.571811 
L 343.235635 313.652087 
L 352.445834 313.622278 
L 352.485878 312.377109 
L 352.499226 307.859167 
L 352.592663 312.586273 
L 352.786211 313.439769 
L 352.973084 313.570416 
L 353.17998 313.617612 
L 353.480313 313.644171 
L 354.494769 313.656528 
L 354.608228 313.03678 
L 354.668295 313.397937 
L 354.835146 313.609997 
L 355.362397 313.647668 
L 355.682752 313.537379 
L 355.6961 313.511529 
L 355.776188 313.593156 
L 355.94304 313.536843 
L 356.036477 312.531569 
L 356.123239 313.038925 
L 356.40355 313.571596 
L 356.603771 313.623083 
L 357.117674 313.578676 
L 357.191089 312.469356 
L 357.257829 312.935952 
L 357.458051 313.520003 
L 357.464725 313.518501 
L 357.798428 313.613 
L 358.372397 313.612786 
L 358.432463 312.872667 
L 358.505878 313.227709 
L 358.792862 313.607744 
L 359.527009 313.671695 
L 361.048694 313.564656 
L 361.102086 139.702035 
L 361.168827 300.790496 
L 361.302308 311.721728 
L 361.469159 312.866231 
L 361.709425 313.21591 
L 361.742796 313.098993 
L 361.762818 313.019618 
L 361.849581 313.102211 
L 361.976388 313.148334 
L 362.650467 313.547998 
L 363.131 313.616862 
L 363.591509 313.640524 
L 364.799514 313.658609 
L 365.460245 313.668734 
L 366.140999 313.575994 
L 366.17437 312.769694 
L 366.181044 312.400707 
L 366.27448 313.293247 
L 366.42131 313.579427 
L 366.608183 313.631417 
L 366.621531 313.556365 
L 366.63488 313.07754 
L 366.674924 309.832817 
L 366.741664 312.831907 
L 366.901842 313.535556 
L 367.155456 313.637671 
L 368.316742 313.675792 
L 369.74499 313.679171 
L 372.22774 313.652334 
L 372.254436 313.336689 
L 372.314502 304.995229 
L 372.374569 311.519 
L 372.521398 313.374017 
L 372.701598 313.586935 
L 373.268893 313.66276 
L 373.85621 313.676532 
L 374.476897 313.666299 
L 374.570334 313.381096 
L 374.603704 313.459613 
L 374.783904 313.600558 
L 375.998582 313.679718 
L 376.01193 308.758035 
L 376.112041 313.405552 
L 376.285566 313.626086 
L 376.659314 313.672553 
L 377.266653 313.545102 
L 377.280001 313.524508 
L 377.353416 313.620938 
L 377.540289 313.666053 
L 381.244391 313.638883 
L 381.39122 289.045133 
L 381.411242 271.239377 
L 381.484657 309.263247 
L 381.624812 313.183731 
L 381.778316 313.510134 
L 382.158737 313.639816 
L 382.325588 313.612357 
L 382.378981 313.167642 
L 382.439047 313.461758 
L 382.625921 313.613 
L 383.046386 313.662223 
L 384.494657 313.667876 
L 385.976298 313.615253 
L 386.002994 308.3204 
L 386.089757 312.529423 
L 386.249934 313.406518 
L 386.283304 313.456932 
L 386.296652 313.393539 
L 386.303326 313.295178 
L 386.336697 264.985909 
L 386.416785 308.599285 
L 386.563615 312.909136 
L 386.757162 313.406625 
L 387.037473 313.556794 
L 387.718227 313.618471 
L 388.759379 313.645608 
L 390.140909 313.606886 
L 390.574723 313.641275 
L 391.789402 313.658845 
L 395.086386 313.664594 
L 396.374479 313.505307 
L 396.401175 311.837573 
L 396.427871 304.694891 
L 396.50796 312.105732 
L 396.668137 313.327035 
L 396.814967 313.468302 
L 396.841663 313.411881 
L 396.875033 312.805091 
L 396.915078 310.420621 
L 396.988492 312.173308 
L 397.168692 313.216983 
L 397.382262 313.430545 
L 397.649224 313.493508 
L 397.729312 313.451783 
L 397.742661 312.895192 
L 397.776031 310.394878 
L 397.849446 312.431813 
L 398.009623 313.2763 
L 398.216519 313.486644 
L 398.336652 313.506058 
L 398.450111 313.484069 
L 398.663681 313.501875 
L 398.770465 313.566448 
L 398.790488 313.542528 
L 398.970687 313.586613 
L 398.977361 313.579319 
L 399.204279 313.390321 
L 399.237649 310.113847 
L 399.27102 300.608148 
L 399.351108 309.071245 
L 399.357782 309.081972 
L 399.364457 308.985434 
L 399.391153 306.218034 
L 399.457893 283.832122 
L 399.504612 301.369719 
L 399.651441 312.222649 
L 399.891707 313.2763 
L 400.519068 313.539846 
L 400.745986 313.465191 
L 400.779357 311.646644 
L 400.826075 308.652917 
L 400.892816 311.173612 
L 401.066341 312.981003 
L 401.21317 313.284774 
L 401.473459 313.448887 
L 401.880576 313.553898 
L 401.987361 313.58361 
L 402.000709 313.565161 
L 402.514612 313.55615 
L 402.534634 312.725716 
L 402.574678 305.552999 
L 402.654767 310.832513 
L 402.834966 313.019618 
L 402.981796 313.328323 
L 403.182017 313.494367 
L 403.395587 313.536199 
L 404.116385 313.5052 
L 404.129733 311.056694 
L 404.149756 298.151812 
L 404.236518 310.86791 
L 404.410044 313.107574 
L 404.65031 313.428721 
L 404.950642 313.55068 
L 405.150864 313.561728 
L 405.484567 313.588759 
L 406.632505 313.575672 
L 406.846075 313.588866 
L 407.126385 313.638486 
L 407.493458 313.571918 
L 407.533503 313.363827 
L 407.553525 304.426732 
L 407.580221 289.399103 
L 407.66031 308.309674 
L 407.827161 312.078916 
L 407.840509 312.193688 
L 407.87388 311.510419 
L 408.034057 303.225379 
L 408.087449 307.601734 
L 408.247627 312.546585 
L 408.414478 313.204111 
L 408.521263 313.110792 
L 408.561307 311.874043 
L 408.674766 301.165919 
L 408.728159 306.625635 
L 408.89501 310.932268 
L 408.955077 311.568342 
L 408.981773 310.682344 
L 409.155299 278.586933 
L 409.188669 291.093867 
L 409.268758 306.754352 
L 409.315476 298.548687 
L 409.328824 295.974361 
L 409.388891 306.325297 
L 409.455631 310.15568 
L 409.53572 310.128864 
L 409.715919 312.612016 
L 409.862749 313.071104 
L 409.889445 312.998165 
L 409.909467 311.807539 
L 409.942837 292.906622 
L 409.969534 269.276453 
L 410.042948 304.169299 
L 410.2098 311.487894 
L 410.410021 312.849069 
L 410.436718 312.926299 
L 410.516806 312.831907 
L 410.556851 310.738121 
L 410.576873 309.277191 
L 410.596895 293.282045 
L 410.683658 309.017613 
L 410.857183 312.271991 
L 410.863857 312.269845 
L 410.877205 312.343857 
L 411.070753 313.05716 
L 411.277649 313.319312 
L 411.351063 313.384421 
L 411.357737 313.256563 
L 411.371086 310.258653 
L 411.471196 312.454339 
L 411.504567 312.665648 
L 411.517915 312.177599 
L 411.584655 296.56431 
L 411.618026 165.445297 
L 411.69144 290.847161 
L 411.824921 308.824539 
L 411.90501 310.727395 
L 411.931706 309.544278 
L 411.965077 298.988468 
L 412.045165 308.470569 
L 412.218691 312.282717 
L 412.412239 313.059305 
L 412.592438 313.296036 
L 412.599112 313.287455 
L 412.632482 311.999541 
L 412.732593 312.874812 
L 412.906119 313.35428 
L 413.046274 313.450818 
L 414.020686 313.560441 
L 414.214234 313.553683 
L 414.354389 313.021763 
L 414.361063 312.97993 
L 414.434478 313.188022 
L 414.688092 313.476775 
L 414.794877 313.499515 
L 414.88164 313.533518 
L 414.908336 313.507989 
L 414.961728 313.371657 
L 415.028469 313.44953 
L 415.208669 313.565268 
L 415.215343 313.560441 
L 415.368846 313.576209 
L 415.488979 313.575136 
L 415.495653 313.547462 
L 415.529023 308.610012 
L 415.535697 309.605418 
L 415.549045 296.00654 
L 415.642482 311.438553 
L 415.795986 312.952042 
L 415.662504 311.413882 
L 415.80266 312.620597 
L 415.816008 311.769997 
L 415.909445 312.909136 
L 416.036252 313.317489 
L 416.076296 313.264393 
L 416.26317 313.418424 
L 416.383303 313.491792 
L 416.403325 313.450818 
L 416.443369 313.413061 
L 416.456717 310.121356 
L 416.556828 312.766476 
L 416.803768 313.506058 
L 416.810442 313.499408 
L 417.064056 313.521504 
L 417.104101 313.511636 
L 417.110775 313.514747 
L 417.257604 284.175366 
L 417.310997 272.64453 
L 417.357715 291.533648 
L 417.524566 311.45786 
L 417.704766 313.081831 
L 417.838247 313.242726 
L 417.858269 313.221273 
L 417.878291 312.536932 
L 417.89164 310.279033 
L 417.99175 311.383848 
L 417.998424 311.29911 
L 418.038469 312.077844 
L 418.218668 313.214838 
L 418.225342 313.201966 
L 418.365498 313.427434 
L 418.405542 313.388819 
L 418.592416 313.505093 
L 418.779289 313.547998 
L 419.099644 313.536092 
L 419.199755 313.452534 
L 419.219777 313.469052 
L 419.299866 313.502411 
L 419.313214 313.444704 
L 419.346584 312.993875 
L 419.466717 278.983808 
L 419.493413 295.620391 
L 419.580176 310.535393 
L 419.606872 298.741761 
L 419.700309 310.523594 
L 419.706983 298.519726 
L 419.720331 279.380683 
L 419.807094 309.678357 
L 419.820442 310.095612 
L 419.827116 309.756659 
L 419.853812 275.583552 
L 419.947249 302.077659 
L 420.120775 312.343857 
L 420.300974 313.157988 
L 420.334345 313.192312 
L 420.354367 313.089339 
L 420.367715 310.669473 
L 420.394411 299.846576 
L 420.4745 309.361929 
L 420.628003 312.343857 
L 420.641351 312.273063 
L 420.681396 311.945909 
L 420.728114 312.362092 
L 420.881617 313.049652 
L 420.888291 312.941315 
L 420.928336 252.221542 
L 420.941684 236.668321 
L 421.008424 301.123013 
L 421.155254 311.466441 
L 421.302083 312.793292 
L 421.368823 313.061451 
L 421.382172 312.505825 
L 421.415542 199.555119 
L 421.49563 303.557897 
L 421.535675 308.427664 
L 421.562371 295.631117 
L 421.575719 288.894964 
L 421.655808 307.033237 
L 421.802637 311.964144 
L 421.809311 311.897641 
L 422.049577 294.440491 
L 422.089622 210.496005 
L 422.156362 296.542858 
L 422.256473 309.356566 
L 422.269821 307.319273 
L 422.296517 209.208842 
L 422.376606 303.418454 
L 422.536783 311.272294 
L 422.543457 311.128561 
L 422.603524 312.152928 
L 422.823768 313.056088 
L 422.837116 312.867304 
L 422.850464 301.594973 
L 422.950575 306.196581 
L 423.017316 310.948358 
L 423.037338 304.383826 
L 423.064034 289.281113 
L 423.1241 307.269217 
L 423.257582 312.19047 
L 424.205298 313.55851 
L 424.772593 313.608066 
L 425.226429 313.632093 
L 425.693613 313.623512 
L 425.787049 313.528155 
L 425.813746 312.541222 
L 425.893834 313.263643 
L 425.907182 312.32455 
L 425.940553 259.515466 
L 426.027315 294.805188 
L 426.094056 308.652917 
L 426.140774 296.907554 
L 426.294278 311.86868 
L 426.300952 311.825774 
L 426.320974 295.041167 
L 426.407737 310.926905 
L 426.52787 312.78042 
L 426.534544 312.772912 
L 426.56124 187.756124 
L 426.567914 177.566083 
L 426.614632 261.231684 
L 426.754788 310.217893 
L 426.948335 312.787929 
L 427.208624 313.32961 
L 427.442216 313.483211 
L 427.876029 313.588759 
L 427.996162 313.593049 
L 428.00951 311.235824 
L 428.109621 313.214838 
L 428.309843 313.561085 
L 428.490043 313.565804 
L 428.61685 313.575672 
L 428.937204 313.629411 
L 430.926073 313.678216 
L 446.369842 313.593693 
L 446.443257 312.56053 
L 446.456605 308.242098 
L 446.469953 304.340921 
L 446.523345 310.551483 
L 446.570064 306.389655 
L 446.743589 313.041071 
L 446.903767 313.357927 
L 447.103988 313.59734 
L 447.604543 313.645008 
L 447.617891 313.602488 
L 447.644587 307.204859 
L 447.76472 311.361323 
L 447.931571 313.316738 
L 448.004986 313.403085 
L 448.025008 313.302043 
L 448.04503 313.188022 
L 448.125119 313.389999 
L 448.372059 313.601416 
L 448.558933 313.569987 
L 448.572281 312.62167 
L 448.605651 300.736864 
L 448.68574 311.544744 
L 448.845917 313.361145 
L 448.852591 313.340229 
L 449.079509 313.570953 
L 449.980507 313.659928 
L 450.220773 313.586184 
L 450.287514 312.867304 
L 450.407647 284.743863 
L 450.434343 213.284859 
L 450.514432 306.303845 
L 450.667935 312.389981 
L 450.854809 313.288206 
L 451.121771 313.511529 
L 451.635673 313.61654 
L 451.929332 313.571596 
L 451.94268 291.748175 
L 452.022769 37.37257 
L 452.062813 182.500208 
L 452.162924 212.212223 
L 452.109531 102.052515 
L 452.182946 211.675905 
L 452.329775 307.623187 
L 452.349797 300.232725 
L 452.376494 269.920035 
L 452.456582 300.533063 
L 452.630108 310.467817 
L 452.843678 312.555167 
L 452.910418 312.722498 
L 453.170706 313.243799 
L 453.197403 313.226637 
L 453.437669 313.374982 
L 453.57115 313.42915 
L 454.131771 313.529335 
L 454.271926 313.535019 
L 454.412081 313.538988 
L 454.458799 313.531158 
L 454.465474 313.276192 
L 454.585607 199.984173 
L 454.605629 230.876088 
L 454.752458 309.739497 
L 454.946006 312.490808 
L 454.98605 312.117531 
L 455.046116 312.497244 
L 455.226316 313.117228 
L 455.366471 313.280805 
L 455.373145 313.182659 
L 455.379819 313.00031 
L 455.473256 313.379595 
L 455.840329 313.495225 
L 456.167358 313.499515 
L 456.214077 308.996161 
L 456.300839 312.458629 
L 456.474365 313.288206 
L 456.674586 313.462938 
L 456.768023 313.466585 
L 456.774697 313.450067 
L 456.781371 313.375519 
L 456.881482 115.889518 
L 456.954897 210.710532 
L 457.014963 287.63998 
L 457.148445 310.007656 
L 457.362014 312.36531 
L 457.709065 313.121518 
L 458.449886 313.480208 
L 458.5233 313.140826 
L 458.576693 307.633913 
L 458.583367 306.078591 
L 458.67013 310.68878 
L 458.830307 312.623815 
L 458.91707 312.84156 
L 458.957114 312.797582 
L 458.977136 312.77613 
L 458.970462 312.831907 
L 459.023855 312.883393 
L 459.511061 313.401691 
L 460.33197 313.511421 
L 460.505495 313.534054 
L 460.75911 313.541455 
L 460.845872 313.527404 
L 460.85922 313.508204 
L 460.892591 313.024981 
L 460.912613 303.922593 
L 461.00605 311.525436 
L 461.179575 313.047506 
L 461.680129 313.443631 
L 462.834741 313.572454 
L 463.141748 313.585755 
L 463.368666 313.544459 
L 463.495473 313.001383 
L 463.568888 313.323281 
L 463.749087 313.51539 
L 463.86922 313.554863 
L 464.069442 313.591547 
L 464.196249 313.583717 
L 464.770218 313.592835 
L 464.803588 313.550144 
L 464.843633 312.486518 
L 464.930395 313.177295 
L 465.097247 313.502948 
L 465.53106 313.589617 
L 466.078333 313.484927 
L 466.091681 313.378736 
L 466.118378 303.397001 
L 466.158422 279.305599 
L 466.225162 303.965498 
L 466.405362 311.806467 
L 466.605584 312.853359 
L 466.999353 313.13439 
L 468.113921 313.385172 
L 468.234054 313.370477 
L 468.240728 313.383992 
L 468.347513 313.378093 
L 468.354187 313.348202 
L 468.374209 310.497136 
L 468.514364 193.119304 
L 468.54106 239.242648 
L 468.641171 305.906969 
L 468.674541 294.966083 
L 468.681216 294.290322 
L 468.72126 301.015749 
L 468.848067 309.769531 
L 468.881437 309.619362 
L 468.948178 309.575384 
L 468.901459 309.656904 
L 468.954852 309.624725 
L 469.228488 312.430741 
L 469.235162 312.397489 
L 469.515473 313.095775 
L 469.522147 313.091485 
L 469.528821 313.048579 
L 469.622258 313.164424 
L 469.769087 313.26686 
L 469.775761 313.243513 
L 469.842502 313.185876 
L 469.849176 313.162278 
L 469.92259 313.104356 
L 469.962635 313.147262 
L 469.975983 313.115083 
L 470.529929 313.3841 
L 470.990439 313.282736 
L 471.037158 313.123664 
L 471.103898 313.29904 
L 471.324142 313.408663 
L 471.611127 313.460471 
L 473.299663 313.560012 
L 473.419796 313.563015 
L 474.000439 313.455323 
L 474.147268 313.295393 
L 474.193987 307.065416 
L 474.28075 311.485749 
L 474.447601 313.039998 
L 474.627801 313.338298 
L 474.767956 313.385494 
L 474.794652 312.441467 
L 474.908111 242.031501 
L 474.941481 283.263625 
L 475.074962 310.397023 
L 475.175073 311.820411 
L 475.195095 291.340574 
L 475.228466 228.194498 
L 475.295206 302.549619 
L 475.442036 311.192919 
L 475.648931 312.76004 
L 475.842479 313.065741 
L 476.269619 313.367259 
L 476.302989 312.883393 
L 476.309663 312.418942 
L 476.329685 283.649774 
L 476.416448 309.68372 
L 476.589973 312.795437 
L 476.696758 313.13296 
L 476.703432 313.064669 
L 476.716781 308.410501 
L 476.743477 158.044109 
L 476.763499 52.818527 
L 476.836914 282.877476 
L 476.970395 310.133155 
L 477.123898 312.280572 
L 477.150594 312.130403 
L 477.170616 310.528957 
L 477.197313 307.977157 
L 477.277401 310.862547 
L 477.464275 312.737515 
L 477.764608 313.235218 
L 478.145029 313.448887 
L 478.258488 313.351491 
L 478.27851 312.717135 
L 478.378621 304.587627 
L 478.425339 309.330823 
L 478.565494 312.897337 
L 478.759042 313.364149 
L 478.979286 313.487287 
L 479.90698 313.542313 
L 480.053809 313.537808 
L 480.554363 313.421749 
L 480.621104 312.367455 
L 480.687845 313.083976 
L 480.854696 313.483747 
L 480.968155 313.519681 
L 481.248465 313.556579 
L 481.615539 313.53931 
L 481.628887 258.410651 
L 481.642235 210.92506 
L 481.728998 308.266768 
L 481.842457 312.078916 
L 481.849131 308.933948 
L 481.902523 295.53458 
L 481.955915 306.100044 
L 481.982612 301.509162 
L 482.129441 311.91373 
L 482.162811 312.310606 
L 482.182833 311.096382 
L 482.189507 311.214372 
L 482.262922 295.727654 
L 482.322989 307.526649 
L 482.48984 312.735369 
L 482.710084 313.476668 
L 483.077157 313.601416 
L 484.892501 313.666342 
L 485.339663 313.673282 
L 486.254008 313.674612 
L 494.856868 313.588705 
L 494.870216 313.223419 
L 494.963653 313.566448 
L 495.430837 313.657804 
L 495.691125 313.664744 
L 496.799019 313.553791 
L 496.805693 313.536092 
L 496.852411 313.595302 
L 496.892456 313.605706 
L 497.219485 313.670901 
L 497.679994 313.678903 
L 498.420815 313.681434 
L 518.603164 313.617612 
L 518.62986 313.041929 
L 518.643208 308.374032 
L 518.736645 312.932734 
L 518.890149 313.484713 
L 518.896823 313.477848 
L 518.943541 313.393968 
L 518.976911 305.649537 
L 519.063674 311.964144 
L 519.223851 313.357498 
L 519.437421 313.518179 
L 519.444095 313.512494 
L 519.924627 313.603132 
L 520.712166 313.638754 
L 521.239417 313.646273 
L 521.559771 313.645994 
L 521.973563 313.64312 
L 523.328397 313.488896 
L 523.341745 313.396757 
L 523.355093 308.127326 
L 523.44853 312.314896 
L 523.595359 313.381525 
L 523.862321 313.555721 
L 524.269439 313.506273 
L 524.356201 312.757895 
L 524.362875 312.665648 
L 524.429616 313.199821 
L 524.596468 313.485249 
L 524.756645 313.554434 
L 524.996911 313.594765 
L 529.788884 313.540919 
L 529.828928 306.614909 
L 529.902343 312.28379 
L 530.06252 313.442987 
L 530.282764 313.133317 
L 530.329483 313.29668 
L 530.503008 313.513138 
L 530.743274 313.586399 
L 530.830037 313.57696 
L 530.836711 313.508418 
L 530.843385 313.342696 
L 530.876755 285.398171 
L 530.956844 307.977157 
L 531.123696 312.95526 
L 531.203784 313.290137 
L 531.237155 313.108647 
L 531.303895 312.451121 
L 531.350613 312.993875 
L 531.530813 313.45543 
L 532.124804 313.584468 
L 532.178197 308.352579 
L 532.251611 304.877239 
L 532.284982 307.708998 
L 532.458507 313.041071 
L 532.558618 313.289279 
L 532.698773 313.44524 
L 533.092542 313.577389 
L 533.21935 313.45425 
L 533.279416 301.316088 
L 533.346157 308.781633 
L 533.506334 313.124736 
L 533.719904 313.495761 
L 533.726578 313.476775 
L 533.826689 313.524079 
L 533.980192 313.574063 
L 534.327243 313.602274 
L 535.114782 313.616325 
L 535.401766 313.563337 
L 535.428462 313.470769 
L 535.508551 313.555292 
L 536.002431 313.628661 
L 537.163717 313.640299 
L 537.18374 311.834355 
L 537.270502 313.416171 
L 537.524116 313.599056 
L 539.546356 313.651057 
L 539.840014 313.518072 
L 539.880059 313.47034 
L 539.946799 313.525688 
L 540.193739 313.620938 
L 540.580835 313.61064 
L 540.600857 313.431403 
L 540.694294 313.50992 
L 540.727664 313.529656 
L 540.75436 313.450067 
L 540.781056 299.36389 
L 540.881167 310.834659 
L 540.941234 312.688173 
L 540.987952 312.120749 
L 541.0013 310.128864 
L 541.094737 312.649559 
L 541.101411 312.798655 
L 541.128107 311.901931 
L 541.141456 309.506735 
L 541.234892 312.309533 
L 541.39507 313.457039 
L 541.601965 313.588329 
L 543.263806 313.664873 
L 543.277154 313.038818 
L 543.317198 293.636014 
L 543.390613 308.985434 
L 543.557464 313.259781 
L 543.777708 313.570631 
L 544.164803 313.492114 
L 544.184826 311.486821 
L 544.271588 313.304403 
L 544.425092 313.547998 
L 545.172586 313.62673 
L 545.266023 313.522041 
L 545.292719 313.372944 
L 545.379482 313.466156 
L 545.479593 313.544995 
L 545.499615 313.448887 
L 545.506289 313.318883 
L 545.553007 196.551739 
L 545.626422 300.962118 
L 545.686489 308.695823 
L 545.746555 305.338472 
L 545.839992 310.995554 
L 545.85334 306.375354 
L 545.88671 169.735841 
L 545.960125 304.598353 
L 546.120302 311.209009 
L 546.300502 313.062523 
L 546.373916 313.269113 
L 546.38059 313.239401 
L 546.407287 302.75342 
L 546.507398 310.062361 
L 546.520746 310.561136 
L 546.534094 307.033237 
L 546.587486 299.385343 
L 546.567464 308.266768 
L 546.640879 307.086869 
L 546.847775 313.177295 
L 547.141433 313.504557 
L 548.890036 313.606028 
L 548.916732 313.082903 
L 549.003495 313.414133 
L 549.197043 313.570738 
L 550.318284 313.52676 
L 550.344981 312.327768 
L 550.431743 313.35235 
L 550.618617 313.555292 
L 550.999038 313.595302 
L 551.005712 313.567163 
L 551.025734 313.474737 
L 551.145867 299.042099 
L 551.152541 299.728586 
L 551.23263 296.188888 
L 551.292697 307.537376 
L 551.466222 313.027126 
L 551.619725 313.410057 
L 551.893362 313.553147 
L 552.060213 313.572454 
L 552.066887 313.558939 
L 552.080235 296.4785 
L 552.126954 36.19267 
L 552.18702 285.108559 
L 552.267109 307.279943 
L 552.313827 302.699788 
L 552.534071 312.260192 
L 552.714271 313.1183 
L 552.740967 313.071104 
L 552.747641 313.046434 
L 552.767663 283.821396 
L 552.867774 309.060519 
L 553.034626 312.586273 
L 553.114714 312.960623 
L 553.141411 312.660285 
L 553.154759 312.458629 
L 553.221499 313.074322 
L 553.375003 313.359751 
L 553.595246 313.490612 
L 553.655313 313.509062 
L 553.668661 313.443309 
L 553.688683 313.346986 
L 553.775446 313.476132 
L 554.542963 313.606886 
L 555.397242 313.632093 
L 557.07243 313.662084 
L 558.520701 313.672038 
L 562.224802 313.68137 
L 563.292652 313.649834 
L 563.326022 313.502733 
L 563.346044 312.66243 
L 563.439481 313.298074 
L 563.61968 313.597661 
L 563.993428 313.672381 
L 564.894425 313.676886 
L 571.141343 313.67753 
L 572.656354 313.571811 
L 572.723095 305.370651 
L 572.816531 309.999075 
L 572.990057 313.089339 
L 573.116864 313.362432 
L 573.136886 313.280268 
L 573.163582 311.761416 
L 573.203627 298.57014 
L 573.277041 308.620738 
L 573.443893 312.850141 
L 573.63744 313.366294 
L 574.124647 313.570846 
L 575.699724 313.637134 
L 577.248105 313.647582 
L 577.681919 313.64445 
L 578.008948 313.581894 
L 578.02897 308.052241 
L 578.129081 312.513334 
L 578.295932 313.396328 
L 578.622961 313.580606 
L 578.976686 313.503806 
L 579.176908 313.522899 
L 579.430522 313.597661 
L 580.291476 313.6381 
L 580.565112 313.540812 
L 580.625178 310.653383 
L 580.718615 312.732151 
L 580.885467 313.389034 
L 581.145755 313.553576 
L 581.265888 313.560119 
L 581.452762 313.605599 
L 581.679679 313.320921 
L 581.739746 313.198748 
L 581.799813 313.291102 
L 582.100145 313.523006 
L 582.2403 313.384636 
L 582.280345 307.537376 
L 582.367107 311.338797 
L 582.527285 313.023908 
L 582.707484 313.218056 
L 582.720832 313.015327 
L 582.774225 303.493538 
L 582.794247 229.374397 
L 582.807595 158.902218 
L 582.901032 234.201259 
L 583.027839 305.145398 
L 583.041187 305.467188 
L 583.194691 219.184356 
L 583.221387 270.509984 
L 583.348194 305.467188 
L 583.354868 304.72707 
L 583.381564 205.454617 
L 583.394912 126.079559 
L 583.475001 303.933319 
L 583.635178 310.265089 
L 583.862096 312.517624 
L 583.962207 312.710699 
L 583.968881 312.645268 
L 584.04897 307.37219 
L 584.102362 140.989199 
L 584.11571 78.454525 
L 584.189125 293.829089 
L 584.322606 310.209312 
L 584.522828 312.568038 
L 584.529502 312.522987 
L 584.803138 313.119373 
L 585.143515 313.423894 
L 585.310367 313.45897 
L 585.724158 313.497048 
L 585.850965 313.505951 
L 588.427151 313.450496 
L 588.4405 312.086425 
L 588.487218 274.789802 
L 588.553959 304.190752 
L 588.714136 311.700276 
L 588.907684 313.112937 
L 589.174646 313.417244 
L 589.768637 313.53459 
L 589.915466 313.547248 
L 590.13571 313.458862 
L 590.175754 313.423894 
L 590.235821 313.504449 
L 590.389324 313.55068 
L 590.536154 313.558081 
L 590.856508 313.588544 
L 590.989989 313.600987 
L 591.130145 313.585541 
L 591.143493 308.335417 
L 591.156841 298.924109 
L 591.250278 311.692767 
L 591.410455 313.321887 
L 591.423803 313.318776 
L 591.73081 313.552932 
L 594.407107 313.443953 
L 594.487195 312.947215 
L 594.500544 310.695216 
L 594.59398 312.948824 
L 594.77418 313.495117 
L 595.114557 313.612786 
L 596.149036 313.517536 
L 596.18908 307.373263 
L 596.202428 299.514059 
L 596.295865 311.448206 
L 596.449368 313.363612 
L 596.64959 313.580714 
L 596.89653 313.628232 
L 597.830898 313.522255 
L 597.844246 313.48364 
L 597.917661 313.608817 
L 598.131231 313.651218 
L 598.718548 313.66439 
L 599.145687 313.670751 
L 599.913204 313.641639 
L 599.926552 295.738381 
L 600.019989 312.93488 
L 600.173492 313.570202 
L 600.347018 313.642219 
L 600.760809 313.66277 
L 601.027772 313.670408 
L 616.024378 313.634925 
L 616.0444 313.371335 
L 616.131163 313.606242 
L 616.358081 313.667404 
L 616.958746 313.649309 
L 617.118924 93.578691 
L 617.138946 194.19194 
L 617.279101 309.626871 
L 617.452627 312.948824 
L 617.632826 313.458433 
L 617.6395 313.44524 
L 617.67287 312.973495 
L 617.719589 309.367293 
L 617.706241 312.991729 
L 617.793003 312.56482 
L 617.959855 313.472914 
L 618.173425 313.615789 
L 618.707349 313.670847 
L 619.368081 313.682346 
L 619.488214 312.018849 
L 619.521584 312.450048 
L 619.534932 312.527278 
L 619.708458 313.537701 
L 619.721806 313.549286 
L 619.755176 313.442558 
L 619.768524 313.439984 
L 619.781873 291.362026 
L 619.875309 311.225098 
L 620.035487 313.308801 
L 620.18899 313.57106 
L 620.229034 313.559583 
L 620.235708 313.425611 
L 620.269079 288.937869 
L 620.349167 310.418476 
L 620.362516 310.933341 
L 620.375864 309.538914 
L 620.409234 160.082118 
L 620.489323 304.898691 
L 620.589433 310.956939 
L 620.61613 307.859167 
L 620.636152 308.095146 
L 620.656174 303.761697 
L 620.722915 233.557677 
L 620.782981 294.526302 
L 620.809677 302.592524 
L 620.843048 272.022401 
L 620.869744 239.564438 
L 620.936484 300.715411 
L 621.096662 311.158595 
L 621.296884 312.895192 
L 621.310232 312.958478 
L 621.350276 312.646341 
L 621.363624 311.306618 
L 621.410343 286.0203 
L 621.477083 307.033237 
L 621.650609 312.602363 
L 621.844156 313.264393 
L 622.084422 313.469052 
L 622.251274 313.473236 
L 622.257948 313.459828 
L 622.284644 313.412417 
L 622.304666 311.453569 
L 622.404777 312.665648 
L 622.618347 313.3841 
L 622.958724 313.571918 
L 623.259056 313.477955 
L 623.272405 305.145398 
L 623.312449 218.004457 
L 623.379189 299.278079 
L 623.519345 311.246551 
L 623.712892 313.038925 
L 623.859722 313.181586 
L 623.87307 313.152625 
L 623.973181 313.022836 
L 623.999877 313.091485 
L 624.200098 313.397829 
L 624.300209 313.441164 
L 624.306883 313.424109 
L 624.326906 311.131779 
L 624.346928 274.328568 
L 624.43369 307.751903 
L 624.600542 312.541222 
L 624.840808 313.273833 
L 624.960941 313.376806 
L 625.014333 313.420569 
L 625.021008 313.36801 
L 625.134467 312.683883 
L 625.181185 297.486777 
L 625.2546 308.08442 
L 625.428125 312.702118 
L 625.648369 313.298932 
L 625.655043 313.290458 
L 625.81522 313.378951 
L 626.02879 313.469052 
L 626.756262 313.531265 
L 626.929788 313.568164 
L 627.176728 313.561943 
L 629.259034 313.455966 
L 629.28573 312.943461 
L 629.385841 292.649189 
L 629.412537 269.598244 
L 629.485952 302.75342 
L 629.659477 312.033866 
L 629.879721 313.024981 
L 630.079943 313.218056 
L 630.086617 313.152625 
L 630.193402 309.330823 
L 630.226772 297.840747 
L 630.320209 300.221999 
L 630.713978 312.943461 
L 631.107748 313.2763 
L 631.207859 313.150479 
L 631.281273 311.674532 
L 631.348014 312.558384 
L 631.594954 313.336046 
L 631.601628 313.333042 
L 631.721761 313.376698 
L 631.86859 313.433441 
L 632.275708 313.366079 
L 632.289056 312.408215 
L 632.315752 149.784813 
L 632.322426 125.006924 
L 632.395841 260.802629 
L 632.529322 308.813813 
L 632.702847 312.34493 
L 632.943114 312.940243 
L 632.976484 312.293443 
L 633.023202 294.987536 
L 633.096617 305.960601 
L 633.270142 312.189398 
L 633.323535 312.481155 
L 633.343557 312.292371 
L 633.363579 306.035686 
L 633.396949 278.672744 
L 633.477038 302.088385 
L 633.510408 282.062273 
L 633.537105 240.744338 
L 633.610519 297.958737 
L 633.784045 310.255435 
L 633.970918 312.509043 
L 633.977592 312.502607 
L 633.984266 312.486518 
L 634.037659 312.630251 
L 634.271251 312.956332 
L 634.444776 313.192312 
L 634.571584 313.273833 
L 634.858568 313.359751 
L 634.998723 313.035707 
L 635.065464 313.1183 
L 635.30573 313.348917 
L 635.599388 313.403836 
L 636.627193 313.314164 
L 636.653889 312.408215 
L 636.673912 310.416331 
L 636.760674 312.458629 
L 636.940874 313.209474 
L 637.187814 313.396113 
L 637.361339 313.460579 
L 637.875242 313.517106 
L 639.069898 313.454143 
L 639.190031 311.920166 
L 639.196705 312.040301 
L 639.350209 313.2896 
L 639.503712 313.454572 
L 639.51706 313.422285 
L 639.617171 312.691391 
L 639.650541 311.477167 
L 639.737304 289.795978 
L 639.844089 295.008988 
L 639.877459 300.77977 
L 640.050985 312.096078 
L 640.231184 313.035707 
L 641.032071 313.480637 
L 641.038745 313.454572 
L 641.058767 312.755392 
L 641.118834 286.245553 
L 641.1789 303.203927 
L 641.352426 312.248393 
L 641.365774 312.309533 
L 641.39247 312.022067 
L 641.412492 311.603739 
L 641.492581 312.280572 
L 641.499255 312.276281 
L 641.505929 312.335276 
L 641.586018 312.531569 
L 641.626062 312.4833 
L 641.646084 312.335276 
L 641.732847 310.763865 
L 641.766217 311.776433 
L 641.933069 313.121518 
L 642.166661 313.396113 
L 642.293468 313.386781 
L 642.600474 313.440735 
L 642.940851 313.451354 
L 643.074333 313.363505 
L 643.087681 313.380453 
L 643.274554 313.489647 
L 643.287902 313.457897 
L 643.408035 313.499193 
L 643.548191 313.510778 
L 643.801805 313.488574 
L 643.868545 313.512601 
L 643.881893 313.443953 
L 643.888567 313.229211 
L 643.921938 259.729993 
L 644.002026 305.87479 
L 644.168878 312.397489 
L 644.175552 312.411433 
L 644.202248 312.279499 
L 644.322381 310.458163 
L 644.355752 311.428899 
L 644.489233 312.440395 
L 644.509255 312.453266 
L 644.515929 312.356729 
L 644.529277 311.382776 
L 644.569321 262.62611 
L 644.64941 304.458911 
L 644.816261 312.306315 
L 645.029831 313.210547 
L 645.056528 313.242726 
L 645.123268 313.263964 
L 645.557082 313.459077 
L 646.398013 313.502626 
L 646.418035 313.200035 
L 646.431383 290.782803 
L 646.52482 311.127488 
L 646.671649 313.169787 
L 646.725042 313.271258 
L 646.992004 313.490505 
L 647.172204 313.528798 
L 648.413578 313.480959 
L 648.453623 313.063596 
L 648.480319 312.096078 
L 648.560408 312.988511 
L 648.760629 313.436659 
L 649.101006 313.59144 
L 649.521472 313.562157 
L 649.601561 241.70971 
L 649.648279 275.29394 
L 649.788434 310.269379 
L 649.975308 312.937025 
L 650.195552 313.286382 
L 650.24227 313.165496 
L 650.282314 274.543095 
L 650.369077 304.641259 
L 650.542603 312.574474 
L 650.742824 313.237363 
L 651.230031 313.499086 
L 651.256727 313.436551 
L 651.296771 313.037853 
L 651.370186 284.48643 
L 651.436926 300.919212 
L 651.630474 312.640977 
L 651.830696 313.31041 
L 652.097658 313.511207 
L 652.231139 313.532981 
L 652.384642 313.563873 
L 652.444709 313.314056 
L 652.464731 309.242867 
L 652.51145 250.719852 
L 652.57819 294.901725 
L 652.725019 311.389211 
L 652.978634 313.138681 
L 653.225574 313.449638 
L 653.492536 313.502304 
L 653.49921 313.471734 
L 653.519232 313.105751 
L 653.552602 282.705855 
L 653.565951 267.882026 
L 653.646039 305.617358 
L 653.812891 312.373891 
L 653.939698 313.043216 
L 653.953046 312.852287 
L 653.973068 304.201478 
L 654.019786 228.730816 
L 654.086527 301.283908 
L 654.246704 311.703494 
L 654.426904 313.078613 
L 654.680518 313.445133 
L 654.687192 313.4417 
L 654.800651 313.503055 
L 654.954154 313.549822 
L 655.09431 313.571167 
L 655.141028 313.544709 
L 655.147702 313.496083 
L 655.181072 218.218984 
L 655.261161 304.265836 
L 655.414664 312.273063 
L 655.574842 313.117228 
L 655.581516 313.114367 
L 655.62156 306.003506 
L 655.721671 311.582286 
L 655.888522 313.185876 
L 656.055374 313.446312 
L 656.222225 313.554005 
L 656.369055 313.570095 
L 656.522558 313.581465 
L 656.909653 313.52912 
L 656.936349 290.600455 
L 656.963046 95.93849 
L 657.043134 299.986019 
L 657.18329 311.766779 
L 657.376837 313.17086 
L 657.443578 313.289493 
L 657.583733 313.400404 
L 657.737236 313.517321 
L 657.750584 313.45307 
L 657.837347 312.647413 
L 657.89074 313.063596 
L 658.070939 313.510778 
L 658.237791 313.562372 
L 658.311205 311.75069 
L 658.357924 312.738587 
L 658.524775 313.445025 
L 658.718323 313.584897 
L 659.806194 313.552289 
L 659.812868 312.897337 
L 659.846238 241.924237 
L 659.926327 307.891346 
L 660.086505 312.834052 
L 660.193289 313.266324 
L 660.206638 313.226637 
L 660.300074 303.200351 
L 660.326771 202.88029 
L 660.340119 117.069418 
L 660.426881 302.431629 
L 660.573711 312.116458 
L 660.760584 313.231571 
L 660.927436 313.477419 
L 660.93411 313.472807 
L 660.940784 313.399438 
L 660.960806 291.050962 
L 660.987502 183.251053 
L 661.067591 308.781633 
L 661.21442 312.827616 
L 661.434664 313.417566 
L 661.728323 313.577603 
L 662.195507 313.630162 
L 662.262247 309.731989 
L 662.268921 309.081972 
L 662.335662 312.792219 
L 662.495839 313.545746 
L 662.696061 313.61965 
L 665.245551 313.673132 
L 666.473577 313.676511 
L 667.207724 313.675696 
L 671.285573 313.532552 
L 671.298921 313.310517 
L 671.385684 313.637671 
L 671.732735 313.670965 
L 671.926282 313.601201 
L 671.93963 313.520968 
L 672.026393 313.644825 
L 672.573666 313.673068 
L 672.940739 313.676146 
L 672.940739 313.676146 
" clip-path="url(#p693aefb8ad)" style="fill: none; stroke: #1f77b4; stroke-width: 1.5; stroke-linecap: square"/>
   </g>
   <g id="patch_3">
    <path d="M 46.0125 327.558125 
L 46.0125 22.318125 
" style="fill: none; stroke: #000000; stroke-width: 0.8; stroke-linejoin: miter; stroke-linecap: square"/>
   </g>
   <g id="patch_4">
    <path d="M 702.794465 327.558125 
L 702.794465 22.318125 
" style="fill: none; stroke: #000000; stroke-width: 0.8; stroke-linejoin: miter; stroke-linecap: square"/>
   </g>
   <g id="patch_5">
    <path d="M 46.0125 327.558125 
L 702.794465 327.558125 
" style="fill: none; stroke: #000000; stroke-width: 0.8; stroke-linejoin: miter; stroke-linecap: square"/>
   </g>
   <g id="patch_6">
    <path d="M 46.0125 22.318125 
L 702.794465 22.318125 
" style="fill: none; stroke: #000000; stroke-width: 0.8; stroke-linejoin: miter; stroke-linecap: square"/>
   </g>
   <g id="text_14">
    <!-- training -->
    <g transform="translate(351.160045 16.318125) scale(0.12 -0.12)">
     <defs>
      <path id="DejaVuSans-74" d="M 1172 4494 
L 1172 3500 
L 2356 3500 
L 2356 3053 
L 1172 3053 
L 1172 1153 
Q 1172 725 1289 603 
Q 1406 481 1766 481 
L 2356 481 
L 2356 0 
L 1766 0 
Q 1100 0 847 248 
Q 594 497 594 1153 
L 594 3053 
L 172 3053 
L 172 3500 
L 594 3500 
L 594 4494 
L 1172 4494 
z
" transform="scale(0.015625)"/>
      <path id="DejaVuSans-72" d="M 2631 2963 
Q 2534 3019 2420 3045 
Q 2306 3072 2169 3072 
Q 1681 3072 1420 2755 
Q 1159 2438 1159 1844 
L 1159 0 
L 581 0 
L 581 3500 
L 1159 3500 
L 1159 2956 
Q 1341 3275 1631 3429 
Q 1922 3584 2338 3584 
Q 2397 3584 2469 3576 
Q 2541 3569 2628 3553 
L 2631 2963 
z
" transform="scale(0.015625)"/>
      <path id="DejaVuSans-61" d="M 2194 1759 
Q 1497 1759 1228 1600 
Q 959 1441 959 1056 
Q 959 750 1161 570 
Q 1363 391 1709 391 
Q 2188 391 2477 730 
Q 2766 1069 2766 1631 
L 2766 1759 
L 2194 1759 
z
M 3341 1997 
L 3341 0 
L 2766 0 
L 2766 531 
Q 2569 213 2275 61 
Q 1981 -91 1556 -91 
Q 1019 -91 701 211 
Q 384 513 384 1019 
Q 384 1609 779 1909 
Q 1175 2209 1959 2209 
L 2766 2209 
L 2766 2266 
Q 2766 2663 2505 2880 
Q 2244 3097 1772 3097 
Q 1472 3097 1187 3025 
Q 903 2953 641 2809 
L 641 3341 
Q 956 3463 1253 3523 
Q 1550 3584 1831 3584 
Q 2591 3584 2966 3190 
Q 3341 2797 3341 1997 
z
" transform="scale(0.015625)"/>
      <path id="DejaVuSans-69" d="M 603 3500 
L 1178 3500 
L 1178 0 
L 603 0 
L 603 3500 
z
M 603 4863 
L 1178 4863 
L 1178 4134 
L 603 4134 
L 603 4863 
z
" transform="scale(0.015625)"/>
      <path id="DejaVuSans-6e" d="M 3513 2113 
L 3513 0 
L 2938 0 
L 2938 2094 
Q 2938 2591 2744 2837 
Q 2550 3084 2163 3084 
Q 1697 3084 1428 2787 
Q 1159 2491 1159 1978 
L 1159 0 
L 581 0 
L 581 3500 
L 1159 3500 
L 1159 2956 
Q 1366 3272 1645 3428 
Q 1925 3584 2291 3584 
Q 2894 3584 3203 3211 
Q 3513 2838 3513 2113 
z
" transform="scale(0.015625)"/>
      <path id="DejaVuSans-67" d="M 2906 1791 
Q 2906 2416 2648 2759 
Q 2391 3103 1925 3103 
Q 1463 3103 1205 2759 
Q 947 2416 947 1791 
Q 947 1169 1205 825 
Q 1463 481 1925 481 
Q 2391 481 2648 825 
Q 2906 1169 2906 1791 
z
M 3481 434 
Q 3481 -459 3084 -895 
Q 2688 -1331 1869 -1331 
Q 1566 -1331 1297 -1286 
Q 1028 -1241 775 -1147 
L 775 -588 
Q 1028 -725 1275 -790 
Q 1522 -856 1778 -856 
Q 2344 -856 2625 -561 
Q 2906 -266 2906 331 
L 2906 616 
Q 2728 306 2450 153 
Q 2172 0 1784 0 
Q 1141 0 747 490 
Q 353 981 353 1791 
Q 353 2603 747 3093 
Q 1141 3584 1784 3584 
Q 2172 3584 2450 3431 
Q 2728 3278 2906 2969 
L 2906 3500 
L 3481 3500 
L 3481 434 
z
" transform="scale(0.015625)"/>
     </defs>
     <use xlink:href="#DejaVuSans-74"/>
     <use xlink:href="#DejaVuSans-72" x="39.208984"/>
     <use xlink:href="#DejaVuSans-61" x="80.322266"/>
     <use xlink:href="#DejaVuSans-69" x="141.601562"/>
     <use xlink:href="#DejaVuSans-6e" x="169.384766"/>
     <use xlink:href="#DejaVuSans-69" x="232.763672"/>
     <use xlink:href="#DejaVuSans-6e" x="260.546875"/>
     <use xlink:href="#DejaVuSans-67" x="323.925781"/>
    </g>
   </g>
   <g id="legend_1">
    <g id="patch_7">
     <path d="M 617.433527 44.99625 
L 695.794465 44.99625 
Q 697.794465 44.99625 697.794465 42.99625 
L 697.794465 29.318125 
Q 697.794465 27.318125 695.794465 27.318125 
L 617.433527 27.318125 
Q 615.433527 27.318125 615.433527 29.318125 
L 615.433527 42.99625 
Q 615.433527 44.99625 617.433527 44.99625 
z
" style="fill: #ffffff; opacity: 0.8; stroke: #cccccc; stroke-linejoin: miter"/>
    </g>
    <g id="line2d_15">
     <path d="M 619.433527 35.416563 
L 629.433527 35.416563 
L 639.433527 35.416563 
" style="fill: none; stroke: #1f77b4; stroke-width: 1.5; stroke-linecap: square"/>
    </g>
    <g id="text_15">
     <!-- observed -->
     <g transform="translate(647.433527 38.916563) scale(0.1 -0.1)">
      <defs>
       <path id="DejaVuSans-6f" d="M 1959 3097 
Q 1497 3097 1228 2736 
Q 959 2375 959 1747 
Q 959 1119 1226 758 
Q 1494 397 1959 397 
Q 2419 397 2687 759 
Q 2956 1122 2956 1747 
Q 2956 2369 2687 2733 
Q 2419 3097 1959 3097 
z
M 1959 3584 
Q 2709 3584 3137 3096 
Q 3566 2609 3566 1747 
Q 3566 888 3137 398 
Q 2709 -91 1959 -91 
Q 1206 -91 779 398 
Q 353 888 353 1747 
Q 353 2609 779 3096 
Q 1206 3584 1959 3584 
z
" transform="scale(0.015625)"/>
       <path id="DejaVuSans-62" d="M 3116 1747 
Q 3116 2381 2855 2742 
Q 2594 3103 2138 3103 
Q 1681 3103 1420 2742 
Q 1159 2381 1159 1747 
Q 1159 1113 1420 752 
Q 1681 391 2138 391 
Q 2594 391 2855 752 
Q 3116 1113 3116 1747 
z
M 1159 2969 
Q 1341 3281 1617 3432 
Q 1894 3584 2278 3584 
Q 2916 3584 3314 3078 
Q 3713 2572 3713 1747 
Q 3713 922 3314 415 
Q 2916 -91 2278 -91 
Q 1894 -91 1617 61 
Q 1341 213 1159 525 
L 1159 0 
L 581 0 
L 581 4863 
L 1159 4863 
L 1159 2969 
z
" transform="scale(0.015625)"/>
       <path id="DejaVuSans-73" d="M 2834 3397 
L 2834 2853 
Q 2591 2978 2328 3040 
Q 2066 3103 1784 3103 
Q 1356 3103 1142 2972 
Q 928 2841 928 2578 
Q 928 2378 1081 2264 
Q 1234 2150 1697 2047 
L 1894 2003 
Q 2506 1872 2764 1633 
Q 3022 1394 3022 966 
Q 3022 478 2636 193 
Q 2250 -91 1575 -91 
Q 1294 -91 989 -36 
Q 684 19 347 128 
L 347 722 
Q 666 556 975 473 
Q 1284 391 1588 391 
Q 1994 391 2212 530 
Q 2431 669 2431 922 
Q 2431 1156 2273 1281 
Q 2116 1406 1581 1522 
L 1381 1569 
Q 847 1681 609 1914 
Q 372 2147 372 2553 
Q 372 3047 722 3315 
Q 1072 3584 1716 3584 
Q 2034 3584 2315 3537 
Q 2597 3491 2834 3397 
z
" transform="scale(0.015625)"/>
       <path id="DejaVuSans-65" d="M 3597 1894 
L 3597 1613 
L 953 1613 
Q 991 1019 1311 708 
Q 1631 397 2203 397 
Q 2534 397 2845 478 
Q 3156 559 3463 722 
L 3463 178 
Q 3153 47 2828 -22 
Q 2503 -91 2169 -91 
Q 1331 -91 842 396 
Q 353 884 353 1716 
Q 353 2575 817 3079 
Q 1281 3584 2069 3584 
Q 2775 3584 3186 3129 
Q 3597 2675 3597 1894 
z
M 3022 2063 
Q 3016 2534 2758 2815 
Q 2500 3097 2075 3097 
Q 1594 3097 1305 2825 
Q 1016 2553 972 2059 
L 3022 2063 
z
" transform="scale(0.015625)"/>
       <path id="DejaVuSans-76" d="M 191 3500 
L 800 3500 
L 1894 563 
L 2988 3500 
L 3597 3500 
L 2284 0 
L 1503 0 
L 191 3500 
z
" transform="scale(0.015625)"/>
       <path id="DejaVuSans-64" d="M 2906 2969 
L 2906 4863 
L 3481 4863 
L 3481 0 
L 2906 0 
L 2906 525 
Q 2725 213 2448 61 
Q 2172 -91 1784 -91 
Q 1150 -91 751 415 
Q 353 922 353 1747 
Q 353 2572 751 3078 
Q 1150 3584 1784 3584 
Q 2172 3584 2448 3432 
Q 2725 3281 2906 2969 
z
M 947 1747 
Q 947 1113 1208 752 
Q 1469 391 1925 391 
Q 2381 391 2643 752 
Q 2906 1113 2906 1747 
Q 2906 2381 2643 2742 
Q 2381 3103 1925 3103 
Q 1469 3103 1208 2742 
Q 947 2381 947 1747 
z
" transform="scale(0.015625)"/>
      </defs>
      <use xlink:href="#DejaVuSans-6f"/>
      <use xlink:href="#DejaVuSans-62" x="61.181641"/>
      <use xlink:href="#DejaVuSans-73" x="124.658203"/>
      <use xlink:href="#DejaVuSans-65" x="176.757812"/>
      <use xlink:href="#DejaVuSans-72" x="238.28125"/>
      <use xlink:href="#DejaVuSans-76" x="279.394531"/>
      <use xlink:href="#DejaVuSans-65" x="338.574219"/>
      <use xlink:href="#DejaVuSans-64" x="400.097656"/>
     </g>
    </g>
   </g>
  </g>
 </g>
 <defs>
  <clipPath id="p693aefb8ad">
   <rect x="46.0125" y="22.318125" width="656.781965" height="305.24"/>
  </clipPath>
 </defs>
</svg>
