<?xml version="1.0" encoding="utf-8" standalone="no"?>
<!DOCTYPE svg PUBLIC "-//W3C//DTD SVG 1.1//EN"
  "http://www.w3.org/Graphics/SVG/1.1/DTD/svg11.dtd">
<svg xmlns:xlink="http://www.w3.org/1999/xlink" width="720pt" height="360pt" viewBox="0 0 720 360" xmlns="http://www.w3.org/2000/svg" version="1.1">
 <metadata>
  <rdf:RDF xmlns:dc="http://purl.org/dc/elements/1.1/" xmlns:cc="http://creativecommons.org/ns#" xmlns:rdf="http://www.w3.org/1999/02/22-rdf-syntax-ns#">
   <cc:Work>
    <dc:type rdf:resource="http://purl.org/dc/dcmitype/StillImage"/>
    <dc:date>2023-10-23T10:54:44.556974</dc:date>
    <dc:format>image/svg+xml</dc:format>
    <dc:creator>
     <cc:Agent>
      <dc:title>Matplotlib v3.7.1, https://matplotlib.org/</dc:title>
     </cc:Agent>
    </dc:creator>
   </cc:Work>
  </rdf:RDF>
 </metadata>
 <defs>
  <style type="text/css">*{stroke-linejoin: round; stroke-linecap: butt}</style>
 </defs>
 <g id="figure_1">
  <g id="patch_1">
   <path d="M 0 360 
L 720 360 
L 720 0 
L 0 0 
z
" style="fill: #ffffff"/>
  </g>
  <g id="axes_1">
   <g id="patch_2">
    <path d="M 90 288 
L 648 288 
L 648 43.2 
L 90 43.2 
z
" style="fill: #ffffff"/>
   </g>
   <g id="matplotlib.axis_1">
    <g id="xtick_1">
     <g id="line2d_1">
      <defs>
       <path id="me9585fb725" d="M 0 0 
L 0 3.5 
" style="stroke: #000000; stroke-width: 0.8"/>
      </defs>
      <g>
       <use xlink:href="#me9585fb725" x="149.370747" y="288" style="stroke: #000000; stroke-width: 0.8"/>
      </g>
     </g>
     <g id="text_1">
      <!-- 2023-08-15 -->
      <g transform="translate(87.727405 337.765903) rotate(-30) scale(0.12 -0.12)">
       <defs>
        <path id="DejaVuSans-32" d="M 1228 531 
L 3431 531 
L 3431 0 
L 469 0 
L 469 531 
Q 828 903 1448 1529 
Q 2069 2156 2228 2338 
Q 2531 2678 2651 2914 
Q 2772 3150 2772 3378 
Q 2772 3750 2511 3984 
Q 2250 4219 1831 4219 
Q 1534 4219 1204 4116 
Q 875 4013 500 3803 
L 500 4441 
Q 881 4594 1212 4672 
Q 1544 4750 1819 4750 
Q 2544 4750 2975 4387 
Q 3406 4025 3406 3419 
Q 3406 3131 3298 2873 
Q 3191 2616 2906 2266 
Q 2828 2175 2409 1742 
Q 1991 1309 1228 531 
z
" transform="scale(0.015625)"/>
        <path id="DejaVuSans-30" d="M 2034 4250 
Q 1547 4250 1301 3770 
Q 1056 3291 1056 2328 
Q 1056 1369 1301 889 
Q 1547 409 2034 409 
Q 2525 409 2770 889 
Q 3016 1369 3016 2328 
Q 3016 3291 2770 3770 
Q 2525 4250 2034 4250 
z
M 2034 4750 
Q 2819 4750 3233 4129 
Q 3647 3509 3647 2328 
Q 3647 1150 3233 529 
Q 2819 -91 2034 -91 
Q 1250 -91 836 529 
Q 422 1150 422 2328 
Q 422 3509 836 4129 
Q 1250 4750 2034 4750 
z
" transform="scale(0.015625)"/>
        <path id="DejaVuSans-33" d="M 2597 2516 
Q 3050 2419 3304 2112 
Q 3559 1806 3559 1356 
Q 3559 666 3084 287 
Q 2609 -91 1734 -91 
Q 1441 -91 1130 -33 
Q 819 25 488 141 
L 488 750 
Q 750 597 1062 519 
Q 1375 441 1716 441 
Q 2309 441 2620 675 
Q 2931 909 2931 1356 
Q 2931 1769 2642 2001 
Q 2353 2234 1838 2234 
L 1294 2234 
L 1294 2753 
L 1863 2753 
Q 2328 2753 2575 2939 
Q 2822 3125 2822 3475 
Q 2822 3834 2567 4026 
Q 2313 4219 1838 4219 
Q 1578 4219 1281 4162 
Q 984 4106 628 3988 
L 628 4550 
Q 988 4650 1302 4700 
Q 1616 4750 1894 4750 
Q 2613 4750 3031 4423 
Q 3450 4097 3450 3541 
Q 3450 3153 3228 2886 
Q 3006 2619 2597 2516 
z
" transform="scale(0.015625)"/>
        <path id="DejaVuSans-2d" d="M 313 2009 
L 1997 2009 
L 1997 1497 
L 313 1497 
L 313 2009 
z
" transform="scale(0.015625)"/>
        <path id="DejaVuSans-38" d="M 2034 2216 
Q 1584 2216 1326 1975 
Q 1069 1734 1069 1313 
Q 1069 891 1326 650 
Q 1584 409 2034 409 
Q 2484 409 2743 651 
Q 3003 894 3003 1313 
Q 3003 1734 2745 1975 
Q 2488 2216 2034 2216 
z
M 1403 2484 
Q 997 2584 770 2862 
Q 544 3141 544 3541 
Q 544 4100 942 4425 
Q 1341 4750 2034 4750 
Q 2731 4750 3128 4425 
Q 3525 4100 3525 3541 
Q 3525 3141 3298 2862 
Q 3072 2584 2669 2484 
Q 3125 2378 3379 2068 
Q 3634 1759 3634 1313 
Q 3634 634 3220 271 
Q 2806 -91 2034 -91 
Q 1263 -91 848 271 
Q 434 634 434 1313 
Q 434 1759 690 2068 
Q 947 2378 1403 2484 
z
M 1172 3481 
Q 1172 3119 1398 2916 
Q 1625 2713 2034 2713 
Q 2441 2713 2670 2916 
Q 2900 3119 2900 3481 
Q 2900 3844 2670 4047 
Q 2441 4250 2034 4250 
Q 1625 4250 1398 4047 
Q 1172 3844 1172 3481 
z
" transform="scale(0.015625)"/>
        <path id="DejaVuSans-31" d="M 794 531 
L 1825 531 
L 1825 4091 
L 703 3866 
L 703 4441 
L 1819 4666 
L 2450 4666 
L 2450 531 
L 3481 531 
L 3481 0 
L 794 0 
L 794 531 
z
" transform="scale(0.015625)"/>
        <path id="DejaVuSans-35" d="M 691 4666 
L 3169 4666 
L 3169 4134 
L 1269 4134 
L 1269 2991 
Q 1406 3038 1543 3061 
Q 1681 3084 1819 3084 
Q 2600 3084 3056 2656 
Q 3513 2228 3513 1497 
Q 3513 744 3044 326 
Q 2575 -91 1722 -91 
Q 1428 -91 1123 -41 
Q 819 9 494 109 
L 494 744 
Q 775 591 1075 516 
Q 1375 441 1709 441 
Q 2250 441 2565 725 
Q 2881 1009 2881 1497 
Q 2881 1984 2565 2268 
Q 2250 2553 1709 2553 
Q 1456 2553 1204 2497 
Q 953 2441 691 2322 
L 691 4666 
z
" transform="scale(0.015625)"/>
       </defs>
       <use xlink:href="#DejaVuSans-32"/>
       <use xlink:href="#DejaVuSans-30" x="63.623047"/>
       <use xlink:href="#DejaVuSans-32" x="127.246094"/>
       <use xlink:href="#DejaVuSans-33" x="190.869141"/>
       <use xlink:href="#DejaVuSans-2d" x="254.492188"/>
       <use xlink:href="#DejaVuSans-30" x="290.576172"/>
       <use xlink:href="#DejaVuSans-38" x="354.199219"/>
       <use xlink:href="#DejaVuSans-2d" x="417.822266"/>
       <use xlink:href="#DejaVuSans-31" x="453.90625"/>
       <use xlink:href="#DejaVuSans-35" x="517.529297"/>
      </g>
     </g>
    </g>
    <g id="xtick_2">
     <g id="line2d_2">
      <g>
       <use xlink:href="#me9585fb725" x="264.994921" y="288" style="stroke: #000000; stroke-width: 0.8"/>
      </g>
     </g>
     <g id="text_2">
      <!-- 2023-09-01 -->
      <g transform="translate(203.35158 337.765903) rotate(-30) scale(0.12 -0.12)">
       <defs>
        <path id="DejaVuSans-39" d="M 703 97 
L 703 672 
Q 941 559 1184 500 
Q 1428 441 1663 441 
Q 2288 441 2617 861 
Q 2947 1281 2994 2138 
Q 2813 1869 2534 1725 
Q 2256 1581 1919 1581 
Q 1219 1581 811 2004 
Q 403 2428 403 3163 
Q 403 3881 828 4315 
Q 1253 4750 1959 4750 
Q 2769 4750 3195 4129 
Q 3622 3509 3622 2328 
Q 3622 1225 3098 567 
Q 2575 -91 1691 -91 
Q 1453 -91 1209 -44 
Q 966 3 703 97 
z
M 1959 2075 
Q 2384 2075 2632 2365 
Q 2881 2656 2881 3163 
Q 2881 3666 2632 3958 
Q 2384 4250 1959 4250 
Q 1534 4250 1286 3958 
Q 1038 3666 1038 3163 
Q 1038 2656 1286 2365 
Q 1534 2075 1959 2075 
z
" transform="scale(0.015625)"/>
       </defs>
       <use xlink:href="#DejaVuSans-32"/>
       <use xlink:href="#DejaVuSans-30" x="63.623047"/>
       <use xlink:href="#DejaVuSans-32" x="127.246094"/>
       <use xlink:href="#DejaVuSans-33" x="190.869141"/>
       <use xlink:href="#DejaVuSans-2d" x="254.492188"/>
       <use xlink:href="#DejaVuSans-30" x="290.576172"/>
       <use xlink:href="#DejaVuSans-39" x="354.199219"/>
       <use xlink:href="#DejaVuSans-2d" x="417.822266"/>
       <use xlink:href="#DejaVuSans-30" x="453.90625"/>
       <use xlink:href="#DejaVuSans-31" x="517.529297"/>
      </g>
     </g>
    </g>
    <g id="xtick_3">
     <g id="line2d_3">
      <g>
       <use xlink:href="#me9585fb725" x="360.21483" y="288" style="stroke: #000000; stroke-width: 0.8"/>
      </g>
     </g>
     <g id="text_3">
      <!-- 2023-09-15 -->
      <g transform="translate(298.571488 337.765903) rotate(-30) scale(0.12 -0.12)">
       <use xlink:href="#DejaVuSans-32"/>
       <use xlink:href="#DejaVuSans-30" x="63.623047"/>
       <use xlink:href="#DejaVuSans-32" x="127.246094"/>
       <use xlink:href="#DejaVuSans-33" x="190.869141"/>
       <use xlink:href="#DejaVuSans-2d" x="254.492188"/>
       <use xlink:href="#DejaVuSans-30" x="290.576172"/>
       <use xlink:href="#DejaVuSans-39" x="354.199219"/>
       <use xlink:href="#DejaVuSans-2d" x="417.822266"/>
       <use xlink:href="#DejaVuSans-31" x="453.90625"/>
       <use xlink:href="#DejaVuSans-35" x="517.529297"/>
      </g>
     </g>
    </g>
    <g id="xtick_4">
     <g id="line2d_4">
      <g>
       <use xlink:href="#me9585fb725" x="469.037583" y="288" style="stroke: #000000; stroke-width: 0.8"/>
      </g>
     </g>
     <g id="text_4">
      <!-- 2023-10-01 -->
      <g transform="translate(407.394241 337.765903) rotate(-30) scale(0.12 -0.12)">
       <use xlink:href="#DejaVuSans-32"/>
       <use xlink:href="#DejaVuSans-30" x="63.623047"/>
       <use xlink:href="#DejaVuSans-32" x="127.246094"/>
       <use xlink:href="#DejaVuSans-33" x="190.869141"/>
       <use xlink:href="#DejaVuSans-2d" x="254.492188"/>
       <use xlink:href="#DejaVuSans-31" x="290.576172"/>
       <use xlink:href="#DejaVuSans-30" x="354.199219"/>
       <use xlink:href="#DejaVuSans-2d" x="417.822266"/>
       <use xlink:href="#DejaVuSans-30" x="453.90625"/>
       <use xlink:href="#DejaVuSans-31" x="517.529297"/>
      </g>
     </g>
    </g>
    <g id="xtick_5">
     <g id="line2d_5">
      <g>
       <use xlink:href="#me9585fb725" x="564.257491" y="288" style="stroke: #000000; stroke-width: 0.8"/>
      </g>
     </g>
     <g id="text_5">
      <!-- 2023-10-15 -->
      <g transform="translate(502.614149 337.765903) rotate(-30) scale(0.12 -0.12)">
       <use xlink:href="#DejaVuSans-32"/>
       <use xlink:href="#DejaVuSans-30" x="63.623047"/>
       <use xlink:href="#DejaVuSans-32" x="127.246094"/>
       <use xlink:href="#DejaVuSans-33" x="190.869141"/>
       <use xlink:href="#DejaVuSans-2d" x="254.492188"/>
       <use xlink:href="#DejaVuSans-31" x="290.576172"/>
       <use xlink:href="#DejaVuSans-30" x="354.199219"/>
       <use xlink:href="#DejaVuSans-2d" x="417.822266"/>
       <use xlink:href="#DejaVuSans-31" x="453.90625"/>
       <use xlink:href="#DejaVuSans-35" x="517.529297"/>
      </g>
     </g>
    </g>
   </g>
   <g id="matplotlib.axis_2">
    <g id="ytick_1">
     <g id="line2d_6">
      <defs>
       <path id="m8c0dbbf17b" d="M 0 0 
L -3.5 0 
" style="stroke: #000000; stroke-width: 0.8"/>
      </defs>
      <g>
       <use xlink:href="#m8c0dbbf17b" x="90" y="259.999416" style="stroke: #000000; stroke-width: 0.8"/>
      </g>
     </g>
     <g id="text_6">
      <!-- 0.2 -->
      <g transform="translate(63.91625 264.558479) scale(0.12 -0.12)">
       <defs>
        <path id="DejaVuSans-2e" d="M 684 794 
L 1344 794 
L 1344 0 
L 684 0 
L 684 794 
z
" transform="scale(0.015625)"/>
       </defs>
       <use xlink:href="#DejaVuSans-30"/>
       <use xlink:href="#DejaVuSans-2e" x="63.623047"/>
       <use xlink:href="#DejaVuSans-32" x="95.410156"/>
      </g>
     </g>
    </g>
    <g id="ytick_2">
     <g id="line2d_7">
      <g>
       <use xlink:href="#m8c0dbbf17b" x="90" y="209.900965" style="stroke: #000000; stroke-width: 0.8"/>
      </g>
     </g>
     <g id="text_7">
      <!-- 0.4 -->
      <g transform="translate(63.91625 214.460028) scale(0.12 -0.12)">
       <defs>
        <path id="DejaVuSans-34" d="M 2419 4116 
L 825 1625 
L 2419 1625 
L 2419 4116 
z
M 2253 4666 
L 3047 4666 
L 3047 1625 
L 3713 1625 
L 3713 1100 
L 3047 1100 
L 3047 0 
L 2419 0 
L 2419 1100 
L 313 1100 
L 313 1709 
L 2253 4666 
z
" transform="scale(0.015625)"/>
       </defs>
       <use xlink:href="#DejaVuSans-30"/>
       <use xlink:href="#DejaVuSans-2e" x="63.623047"/>
       <use xlink:href="#DejaVuSans-34" x="95.410156"/>
      </g>
     </g>
    </g>
    <g id="ytick_3">
     <g id="line2d_8">
      <g>
       <use xlink:href="#m8c0dbbf17b" x="90" y="159.802515" style="stroke: #000000; stroke-width: 0.8"/>
      </g>
     </g>
     <g id="text_8">
      <!-- 0.6 -->
      <g transform="translate(63.91625 164.361577) scale(0.12 -0.12)">
       <defs>
        <path id="DejaVuSans-36" d="M 2113 2584 
Q 1688 2584 1439 2293 
Q 1191 2003 1191 1497 
Q 1191 994 1439 701 
Q 1688 409 2113 409 
Q 2538 409 2786 701 
Q 3034 994 3034 1497 
Q 3034 2003 2786 2293 
Q 2538 2584 2113 2584 
z
M 3366 4563 
L 3366 3988 
Q 3128 4100 2886 4159 
Q 2644 4219 2406 4219 
Q 1781 4219 1451 3797 
Q 1122 3375 1075 2522 
Q 1259 2794 1537 2939 
Q 1816 3084 2150 3084 
Q 2853 3084 3261 2657 
Q 3669 2231 3669 1497 
Q 3669 778 3244 343 
Q 2819 -91 2113 -91 
Q 1303 -91 875 529 
Q 447 1150 447 2328 
Q 447 3434 972 4092 
Q 1497 4750 2381 4750 
Q 2619 4750 2861 4703 
Q 3103 4656 3366 4563 
z
" transform="scale(0.015625)"/>
       </defs>
       <use xlink:href="#DejaVuSans-30"/>
       <use xlink:href="#DejaVuSans-2e" x="63.623047"/>
       <use xlink:href="#DejaVuSans-36" x="95.410156"/>
      </g>
     </g>
    </g>
    <g id="ytick_4">
     <g id="line2d_9">
      <g>
       <use xlink:href="#m8c0dbbf17b" x="90" y="109.704064" style="stroke: #000000; stroke-width: 0.8"/>
      </g>
     </g>
     <g id="text_9">
      <!-- 0.8 -->
      <g transform="translate(63.91625 114.263127) scale(0.12 -0.12)">
       <use xlink:href="#DejaVuSans-30"/>
       <use xlink:href="#DejaVuSans-2e" x="63.623047"/>
       <use xlink:href="#DejaVuSans-38" x="95.410156"/>
      </g>
     </g>
    </g>
    <g id="ytick_5">
     <g id="line2d_10">
      <g>
       <use xlink:href="#m8c0dbbf17b" x="90" y="59.605613" style="stroke: #000000; stroke-width: 0.8"/>
      </g>
     </g>
     <g id="text_10">
      <!-- 1.0 -->
      <g transform="translate(63.91625 64.164676) scale(0.12 -0.12)">
       <use xlink:href="#DejaVuSans-31"/>
       <use xlink:href="#DejaVuSans-2e" x="63.623047"/>
       <use xlink:href="#DejaVuSans-30" x="95.410156"/>
      </g>
     </g>
    </g>
    <g id="text_11">
     <!-- Meters -->
     <g transform="translate(57.836562 182.6875) rotate(-90) scale(0.1 -0.1)">
      <defs>
       <path id="DejaVuSans-4d" d="M 628 4666 
L 1569 4666 
L 2759 1491 
L 3956 4666 
L 4897 4666 
L 4897 0 
L 4281 0 
L 4281 4097 
L 3078 897 
L 2444 897 
L 1241 4097 
L 1241 0 
L 628 0 
L 628 4666 
z
" transform="scale(0.015625)"/>
       <path id="DejaVuSans-65" d="M 3597 1894 
L 3597 1613 
L 953 1613 
Q 991 1019 1311 708 
Q 1631 397 2203 397 
Q 2534 397 2845 478 
Q 3156 559 3463 722 
L 3463 178 
Q 3153 47 2828 -22 
Q 2503 -91 2169 -91 
Q 1331 -91 842 396 
Q 353 884 353 1716 
Q 353 2575 817 3079 
Q 1281 3584 2069 3584 
Q 2775 3584 3186 3129 
Q 3597 2675 3597 1894 
z
M 3022 2063 
Q 3016 2534 2758 2815 
Q 2500 3097 2075 3097 
Q 1594 3097 1305 2825 
Q 1016 2553 972 2059 
L 3022 2063 
z
" transform="scale(0.015625)"/>
       <path id="DejaVuSans-74" d="M 1172 4494 
L 1172 3500 
L 2356 3500 
L 2356 3053 
L 1172 3053 
L 1172 1153 
Q 1172 725 1289 603 
Q 1406 481 1766 481 
L 2356 481 
L 2356 0 
L 1766 0 
Q 1100 0 847 248 
Q 594 497 594 1153 
L 594 3053 
L 172 3053 
L 172 3500 
L 594 3500 
L 594 4494 
L 1172 4494 
z
" transform="scale(0.015625)"/>
       <path id="DejaVuSans-72" d="M 2631 2963 
Q 2534 3019 2420 3045 
Q 2306 3072 2169 3072 
Q 1681 3072 1420 2755 
Q 1159 2438 1159 1844 
L 1159 0 
L 581 0 
L 581 3500 
L 1159 3500 
L 1159 2956 
Q 1341 3275 1631 3429 
Q 1922 3584 2338 3584 
Q 2397 3584 2469 3576 
Q 2541 3569 2628 3553 
L 2631 2963 
z
" transform="scale(0.015625)"/>
       <path id="DejaVuSans-73" d="M 2834 3397 
L 2834 2853 
Q 2591 2978 2328 3040 
Q 2066 3103 1784 3103 
Q 1356 3103 1142 2972 
Q 928 2841 928 2578 
Q 928 2378 1081 2264 
Q 1234 2150 1697 2047 
L 1894 2003 
Q 2506 1872 2764 1633 
Q 3022 1394 3022 966 
Q 3022 478 2636 193 
Q 2250 -91 1575 -91 
Q 1294 -91 989 -36 
Q 684 19 347 128 
L 347 722 
Q 666 556 975 473 
Q 1284 391 1588 391 
Q 1994 391 2212 530 
Q 2431 669 2431 922 
Q 2431 1156 2273 1281 
Q 2116 1406 1581 1522 
L 1381 1569 
Q 847 1681 609 1914 
Q 372 2147 372 2553 
Q 372 3047 722 3315 
Q 1072 3584 1716 3584 
Q 2034 3584 2315 3537 
Q 2597 3491 2834 3397 
z
" transform="scale(0.015625)"/>
      </defs>
      <use xlink:href="#DejaVuSans-4d"/>
      <use xlink:href="#DejaVuSans-65" x="86.279297"/>
      <use xlink:href="#DejaVuSans-74" x="147.802734"/>
      <use xlink:href="#DejaVuSans-65" x="187.011719"/>
      <use xlink:href="#DejaVuSans-72" x="248.535156"/>
      <use xlink:href="#DejaVuSans-73" x="289.648438"/>
     </g>
    </g>
   </g>
   <g id="line2d_11">
    <path d="M 115.363636 259.469647 
L 115.647029 258.718363 
L 115.930422 258.676625 
L 116.213814 259.010529 
L 116.497207 258.801839 
L 116.780599 260.179193 
L 117.063992 259.720075 
L 117.347384 259.511385 
L 117.630777 259.720075 
L 118.197562 258.968791 
L 118.480955 259.386171 
L 119.331133 257.29927 
L 119.614525 258.593149 
L 120.18131 262.975641 
L 120.464703 263.351283 
L 120.748095 264.060829 
L 121.031488 263.810401 
L 121.314881 261.013954 
L 121.598273 260.262669 
L 122.165058 262.307832 
L 122.448451 261.890452 
L 122.731844 260.638312 
L 123.298629 261.09743 
L 123.582021 260.847002 
L 123.865414 261.431334 
L 124.148807 262.34957 
L 124.715592 262.599999 
L 125.565769 259.344433 
L 125.849162 258.676625 
L 126.132555 259.594861 
L 126.415947 262.182618 
L 126.69934 262.182618 
L 126.982732 264.519948 
L 127.266125 264.227781 
L 127.549518 259.970503 
L 127.83291 260.262669 
L 128.116303 259.302695 
L 128.399695 260.554836 
L 128.683088 260.429621 
L 128.96648 260.596574 
L 129.249873 257.424484 
L 129.533266 257.09058 
L 129.816658 258.008816 
L 130.100051 257.841864 
L 130.383443 257.883602 
L 130.666836 256.6732 
L 130.950229 256.255819 
L 131.233621 255.254107 
L 131.517014 255.087155 
L 131.800406 255.337583 
L 132.083799 255.087155 
L 132.367191 253.835014 
L 132.650584 253.167206 
L 132.933977 253.375896 
L 133.217369 256.506247 
L 133.500762 255.963653 
L 133.784154 256.88189 
L 134.067547 255.546273 
L 134.35094 256.798414 
L 134.634332 256.464509 
L 134.917725 255.629749 
L 135.201117 256.589724 
L 135.48451 255.963653 
L 135.767902 257.132318 
L 136.051295 257.257532 
L 136.334688 256.297557 
L 136.61808 257.048842 
L 136.901473 256.589724 
L 137.184865 256.798414 
L 137.468258 256.6732 
L 137.751651 255.713225 
L 138.601828 249.535998 
L 138.885221 248.492547 
L 139.168614 248.409071 
L 139.452006 247.908215 
L 139.735399 248.075167 
L 140.018791 249.160356 
L 140.302184 250.788139 
L 140.585576 254.168918 
L 141.152362 255.212369 
L 141.435754 256.214081 
L 142.002539 254.878465 
L 142.285932 255.045417 
L 142.852717 254.836727 
L 143.13611 254.085442 
L 143.702895 254.294132 
L 143.986287 254.878465 
L 144.26968 255.170631 
L 144.553073 255.629749 
L 144.836465 255.003679 
L 146.536821 256.756676 
L 147.386998 258.593149 
L 147.670391 259.010529 
L 147.953784 259.636599 
L 148.237176 259.678337 
L 148.520569 259.219219 
L 148.803961 259.135743 
L 149.087354 259.803551 
L 149.370747 255.713225 
L 149.654139 249.035142 
L 149.937532 247.699525 
L 150.220924 247.824739 
L 150.504317 248.576023 
L 150.787709 247.240407 
L 151.071102 243.943103 
L 151.354495 242.482272 
L 151.92128 242.565748 
L 152.204672 242.231844 
L 152.488065 236.471997 
L 152.771458 228.249607 
L 153.621635 195.526998 
L 153.905028 192.271433 
L 154.188421 192.688813 
L 155.321991 201.370321 
L 155.605383 201.286845 
L 156.172169 197.530424 
L 157.305739 187.47156 
L 157.589132 186.261158 
L 157.872524 185.927254 
L 158.722702 188.264583 
L 160.423057 204.918053 
L 161.273235 220.027217 
L 162.123413 226.246182 
L 162.406805 226.747038 
L 162.973591 228.750463 
L 163.256983 230.545198 
L 163.540376 229.000892 
L 164.673946 233.299908 
L 164.957339 234.51031 
L 165.240731 235.094643 
L 165.524124 235.303333 
L 166.941087 237.6824 
L 167.791265 242.899653 
L 168.074657 240.395371 
L 168.641442 234.176406 
L 168.924835 233.967716 
L 169.775013 239.977991 
L 170.058405 240.144943 
L 170.341798 239.393659 
L 170.62519 240.729275 
L 171.191976 236.764163 
L 171.758761 230.879102 
L 172.042153 230.002604 
L 172.325546 229.960866 
L 172.892331 231.505173 
L 173.175724 231.505173 
L 174.025901 236.847639 
L 174.592687 242.10663 
L 174.876079 243.317033 
L 175.159472 243.150081 
L 175.726257 241.06318 
L 176.859827 231.338221 
L 177.14322 230.253032 
L 177.426612 229.626962 
L 177.710005 230.08608 
L 177.993398 230.962579 
L 178.27679 231.254745 
L 179.126968 235.094643 
L 179.410361 235.345071 
L 179.693753 236.012879 
L 179.977146 235.470285 
L 180.260538 235.219857 
L 180.543931 235.303333 
L 181.110716 240.353633 
L 181.394109 243.984841 
L 181.677501 245.90479 
L 181.960894 246.32217 
L 182.527679 247.949953 
L 182.811072 246.363908 
L 183.377857 247.449097 
L 183.661249 246.280432 
L 183.944642 245.737838 
L 184.228035 246.614336 
L 184.511427 246.489122 
L 184.79482 246.989979 
L 185.078212 246.697813 
L 185.361605 247.991691 
L 186.211783 248.909928 
L 186.495175 247.490835 
L 186.778568 246.697813 
L 187.06196 246.405646 
L 187.628746 247.991691 
L 187.912138 249.786426 
L 188.195531 252.66635 
L 188.478923 253.208944 
L 188.762316 252.833302 
L 189.045708 254.502822 
L 189.612494 252.87504 
L 189.895886 254.085442 
L 190.746064 253.000254 
L 191.029457 252.290707 
L 191.312849 252.499397 
L 191.596242 252.499397 
L 191.879634 252.248969 
L 192.163027 251.455947 
L 192.44642 252.165493 
L 192.729812 253.960228 
L 193.013205 254.210656 
L 193.57999 252.708088 
L 193.863382 253.000254 
L 194.146775 253.000254 
L 194.71356 254.502822 
L 194.996953 257.591436 
L 195.280345 258.426196 
L 195.563738 257.549698 
L 195.847131 257.466222 
L 196.130523 256.255819 
L 196.413916 256.589724 
L 196.980701 258.217506 
L 197.264093 256.631462 
L 197.547486 257.71665 
L 197.830879 257.633174 
L 198.114271 257.424484 
L 198.397664 258.217506 
L 198.681056 258.300982 
L 198.964449 258.634887 
L 199.247842 257.92534 
L 199.531234 257.549698 
L 199.814627 258.509673 
L 200.098019 257.09058 
L 200.381412 256.589724 
L 200.664804 256.631462 
L 200.948197 257.591436 
L 201.23159 258.092292 
L 201.514982 259.010529 
L 201.798375 260.721788 
L 202.081767 261.51481 
L 202.36516 263.184331 
L 202.648553 263.017379 
L 202.931945 261.93219 
L 203.49873 261.222644 
L 203.782123 261.264382 
L 204.065515 259.386171 
L 204.348908 259.260957 
L 204.632301 259.678337 
L 204.915693 260.47136 
L 205.199086 259.761813 
L 205.482478 259.845289 
L 205.765871 260.346145 
L 206.049264 258.509673 
L 206.332656 259.010529 
L 206.616049 260.179193 
L 206.899441 258.927053 
L 207.182834 258.300982 
L 207.466227 259.427909 
L 207.749619 259.010529 
L 208.033012 257.424484 
L 208.316404 257.674912 
L 208.599797 261.222644 
L 208.883189 261.013954 
L 209.166582 261.93219 
L 209.733367 258.927053 
L 210.01676 257.341008 
L 210.300152 258.426196 
L 210.583545 260.262669 
L 210.866938 258.801839 
L 211.15033 258.676625 
L 211.433723 257.29927 
L 211.717115 257.549698 
L 212.000508 257.132318 
L 212.567293 261.013954 
L 213.134078 175.576224 
L 213.417471 176.327509 
L 213.700863 175.617962 
L 213.984256 175.951867 
L 214.267649 174.991892 
L 214.551041 170.525924 
L 215.117826 132.21042 
L 215.401219 113.553525 
L 215.684611 102.785115 
L 215.968004 96.649626 
L 216.251397 93.268847 
L 216.534789 94.896629 
L 217.101574 104.78854 
L 217.951752 124.697576 
L 218.518537 110.381435 
L 218.80193 110.131007 
L 219.085322 108.127582 
L 219.368715 102.409473 
L 219.9355 82.208271 
L 220.502285 63.300947 
L 220.785678 57.33241 
L 221.069071 54.828129 
L 221.352463 54.327273 
L 221.635856 55.370723 
L 222.202641 58.709765 
L 222.486034 61.422736 
L 222.769426 61.965331 
L 223.052819 61.714902 
L 223.336211 61.923593 
L 224.186389 59.461049 
L 224.469782 59.669739 
L 225.319959 66.139133 
L 225.886745 74.111095 
L 226.45353 84.420386 
L 230.137633 161.719201 
L 232.404774 190.351484 
L 233.538344 199.325158 
L 233.821737 201.036417 
L 234.671915 203.582437 
L 235.522092 209.801402 
L 235.805485 214.309108 
L 236.37227 218.733338 
L 236.655663 219.568099 
L 236.939055 221.279358 
L 237.222448 221.23762 
L 237.505841 222.614974 
L 237.789233 223.282783 
L 238.072626 223.282783 
L 238.356018 223.574949 
L 238.922803 225.494898 
L 239.206196 225.995754 
L 240.056374 228.040917 
L 240.339766 228.541773 
L 240.623159 228.625249 
L 240.906552 229.126106 
L 241.473337 227.915703 
L 242.323514 232.506885 
L 242.606907 236.555473 
L 243.173692 239.518873 
L 243.740477 240.896228 
L 244.02387 239.560611 
L 244.307263 239.518873 
L 245.15744 238.809326 
L 245.724225 239.435397 
L 246.007618 239.268445 
L 246.574403 240.771013 
L 246.857796 240.270157 
L 247.141188 240.812752 
L 247.424581 240.937966 
L 247.707974 240.478847 
L 248.274759 238.851065 
L 248.558151 239.351921 
L 248.841544 240.353633 
L 249.124937 242.231844 
L 249.408329 245.362196 
L 249.691722 246.363908 
L 249.975114 245.737838 
L 250.258507 245.529148 
L 250.825292 247.532573 
L 251.108685 244.318745 
L 251.392077 244.527435 
L 251.67547 243.817889 
L 251.958862 244.360483 
L 252.242255 245.320458 
L 252.525648 245.07003 
L 253.092433 245.946528 
L 253.659218 246.11348 
L 253.94261 246.739551 
L 254.226003 247.031717 
L 254.509396 247.115193 
L 255.642966 249.91164 
L 255.926359 250.162068 
L 256.776536 253.125468 
L 257.059929 252.87504 
L 257.626714 251.205519 
L 258.193499 251.706375 
L 258.476892 251.080305 
L 258.760284 251.122043 
L 259.043677 250.412496 
L 259.610462 250.829877 
L 259.893855 251.163781 
L 260.46064 250.454234 
L 261.027425 251.664637 
L 261.310818 251.080305 
L 261.59421 248.993404 
L 261.877603 248.492547 
L 262.160995 248.784714 
L 262.727781 251.706375 
L 263.011173 255.796701 
L 263.294566 257.424484 
L 263.577958 257.466222 
L 263.861351 257.382746 
L 264.144744 257.09058 
L 264.428136 256.088867 
L 264.711529 256.6732 
L 265.845099 253.29242 
L 266.128492 253.91849 
L 266.411884 253.876752 
L 266.695277 253.960228 
L 266.978669 254.628037 
L 267.262062 253.29242 
L 267.545455 253.459372 
L 267.828847 253.91849 
L 268.11224 253.793276 
L 268.395632 251.288995 
L 268.679025 250.078592 
L 269.24581 251.706375 
L 269.529203 254.753251 
L 269.812595 259.344433 
L 270.095988 260.513098 
L 270.37938 261.09743 
L 270.946166 260.88874 
L 271.229558 259.135743 
L 271.512951 258.34272 
L 271.796343 258.426196 
L 272.079736 256.714938 
L 272.363128 256.506247 
L 272.646521 255.754963 
L 272.929914 256.255819 
L 273.213306 256.255819 
L 273.496699 255.713225 
L 273.780091 256.381033 
L 274.630269 256.214081 
L 274.913662 255.504535 
L 275.480447 251.789851 
L 275.76384 252.123755 
L 276.047232 252.833302 
L 276.614017 259.386171 
L 276.89741 258.885315 
L 277.180802 260.346145 
L 277.464195 259.219219 
L 277.747588 258.634887 
L 278.03098 257.674912 
L 278.314373 258.050554 
L 278.597765 258.13403 
L 278.881158 257.215794 
L 279.164551 257.424484 
L 279.447943 258.634887 
L 280.014728 256.088867 
L 280.581513 256.6732 
L 280.864906 256.923628 
L 281.431691 255.921915 
L 281.715084 256.798414 
L 282.281869 254.54456 
L 282.565262 253.960228 
L 282.848654 254.753251 
L 283.415439 258.593149 
L 283.982224 260.095717 
L 284.265617 259.803551 
L 284.832402 258.509673 
L 285.399187 259.302695 
L 285.68258 257.633174 
L 285.965973 258.092292 
L 286.249365 257.382746 
L 286.532758 257.800126 
L 286.81615 257.800126 
L 287.099543 257.50796 
L 288.233113 257.424484 
L 288.516506 257.549698 
L 289.366684 254.711513 
L 289.650076 255.170631 
L 289.933469 256.923628 
L 290.216861 260.053979 
L 290.500254 260.095717 
L 290.783647 260.805264 
L 291.067039 261.013954 
L 291.350432 260.304407 
L 291.633824 259.177481 
L 292.200609 261.09743 
L 292.767395 259.469647 
L 293.33418 258.760101 
L 293.617572 259.094005 
L 293.900965 259.219219 
L 294.184358 258.467934 
L 295.034535 260.053979 
L 295.317928 259.260957 
L 295.60132 257.132318 
L 295.884713 257.007104 
L 296.168106 256.214081 
L 296.451498 257.007104 
L 296.734891 258.927053 
L 297.018283 261.7235 
L 297.301676 261.139168 
L 297.585069 262.224356 
L 297.868461 262.266094 
L 298.151854 261.30612 
L 298.435246 262.433046 
L 298.718639 260.763526 
L 299.002031 261.264382 
L 299.285424 259.761813 
L 299.852209 259.511385 
L 300.135602 257.549698 
L 300.418994 258.426196 
L 300.702387 258.843577 
L 300.98578 259.052267 
L 301.269172 259.010529 
L 301.552565 259.135743 
L 301.835957 259.803551 
L 302.11935 259.302695 
L 302.402743 258.092292 
L 302.686135 258.968791 
L 302.969528 257.382746 
L 303.25292 257.424484 
L 304.103098 258.760101 
L 304.669883 260.972216 
L 304.953276 260.554836 
L 305.236668 260.513098 
L 305.520061 261.556548 
L 305.803454 259.887027 
L 306.086846 249.369046 
L 306.370239 244.903078 
L 306.653631 243.984841 
L 307.503809 251.205519 
L 307.787202 252.958516 
L 308.070594 253.7098 
L 308.353987 253.91849 
L 308.920772 220.194169 
L 309.204165 217.105555 
L 309.487557 218.06553 
L 310.621127 230.002604 
L 310.90452 230.628674 
L 311.187913 233.508598 
L 311.471305 233.425122 
L 312.03809 234.635524 
L 312.321483 235.386809 
L 312.604876 233.091218 
L 313.455053 179.708288 
L 313.738446 170.567662 
L 314.021838 165.976479 
L 314.305231 165.934741 
L 314.588624 167.729476 
L 315.155409 177.496173 
L 316.572372 204.208507 
L 317.42255 215.644725 
L 317.989335 221.655 
L 318.272727 222.364546 
L 318.839512 225.202732 
L 319.68969 228.833939 
L 320.823261 233.132956 
L 321.390046 235.595499 
L 321.673438 235.887665 
L 322.240223 237.6824 
L 323.090401 239.184969 
L 324.790757 246.363908 
L 325.074149 246.405646 
L 325.357542 246.572598 
L 326.20772 245.90479 
L 326.491112 245.779576 
L 327.057897 246.781289 
L 327.34129 247.991691 
L 327.624683 248.659499 
L 328.191468 249.118618 
L 328.758253 249.995116 
L 329.041646 249.327308 
L 329.325038 249.243832 
L 329.891823 247.783001 
L 330.175216 248.576023 
L 331.308786 257.466222 
L 331.875571 255.504535 
L 332.158964 256.631462 
L 332.442357 254.920203 
L 332.725749 254.628037 
L 333.009142 253.751538 
L 333.292534 253.417634 
L 333.575927 252.791564 
L 333.859319 253.208944 
L 334.426105 253.29242 
L 334.709497 253.584586 
L 334.99289 253.584586 
L 335.559675 254.961941 
L 335.843068 254.168918 
L 336.12646 254.419346 
L 336.409853 253.08373 
L 336.693245 253.584586 
L 336.976638 253.751538 
L 337.543423 255.796701 
L 337.826816 259.094005 
L 338.110208 259.970503 
L 338.393601 257.883602 
L 338.676993 257.758388 
L 338.960386 256.6732 
L 339.243779 256.756676 
L 339.810564 255.796701 
L 343.494667 255.045417 
L 343.77806 256.088867 
L 344.061453 256.255819 
L 344.344845 257.841864 
L 344.628238 258.467934 
L 344.91163 259.469647 
L 345.195023 259.260957 
L 345.478415 260.805264 
L 346.328593 258.509673 
L 346.611986 257.215794 
L 346.895378 257.048842 
L 347.462164 256.130605 
L 348.312341 255.629749 
L 348.595734 256.172343 
L 348.879126 256.339295 
L 349.162519 255.588011 
L 349.445912 255.796701 
L 349.729304 256.381033 
L 350.296089 254.586299 
L 350.579482 255.128893 
L 350.862875 256.339295 
L 351.146267 259.469647 
L 351.713052 262.391308 
L 351.996445 262.015666 
L 352.279837 262.34957 
L 352.56323 260.554836 
L 352.846623 259.594861 
L 353.130015 259.594861 
L 353.413408 259.219219 
L 353.6968 258.384458 
L 353.980193 258.092292 
L 354.546978 257.174056 
L 354.830371 257.591436 
L 355.113763 257.132318 
L 355.397156 257.048842 
L 355.680549 256.756676 
L 355.963941 256.88189 
L 356.247334 256.631462 
L 356.530726 255.963653 
L 357.097511 253.000254 
L 357.380904 253.334158 
L 357.664297 254.586299 
L 357.947689 258.509673 
L 358.797867 264.311257 
L 359.08126 261.806976 
L 359.364652 260.847002 
L 359.648045 260.972216 
L 359.931437 260.053979 
L 360.21483 259.845289 
L 360.498222 258.593149 
L 360.781615 258.092292 
L 361.065008 258.551411 
L 361.915185 258.593149 
L 362.198578 258.34272 
L 362.481971 258.718363 
L 362.765363 258.300982 
L 363.048756 258.34272 
L 363.332148 258.760101 
L 363.615541 256.714938 
L 363.898933 255.629749 
L 364.182326 255.671487 
L 365.032504 262.266094 
L 365.315896 264.227781 
L 365.599289 263.017379 
L 365.882682 263.559973 
L 366.166074 262.725213 
L 366.449467 262.641737 
L 367.016252 261.222644 
L 367.299644 261.055692 
L 367.86643 260.053979 
L 368.149822 260.763526 
L 368.433215 260.554836 
L 368.716607 260.513098 
L 369 260.847002 
L 369.283393 260.972216 
L 369.566785 260.805264 
L 369.850178 260.847002 
L 370.13357 260.513098 
L 370.700356 256.464509 
L 370.983748 256.798414 
L 371.550533 261.806976 
L 371.833926 264.227781 
L 372.117318 264.519948 
L 372.400711 263.977353 
L 372.684104 264.144305 
L 373.250889 262.975641 
L 373.534281 262.433046 
L 374.101067 260.220931 
L 374.384459 259.803551 
L 374.667852 260.137455 
L 374.951244 259.636599 
L 375.234637 260.179193 
L 375.518029 260.304407 
L 375.801422 259.928765 
L 376.084815 260.304407 
L 376.368207 259.887027 
L 376.6516 261.09743 
L 376.934992 260.429621 
L 377.501778 257.633174 
L 377.78517 258.092292 
L 378.068563 259.386171 
L 378.351955 262.224356 
L 378.635348 263.476497 
L 378.91874 265.31297 
L 379.202133 263.977353 
L 379.485526 263.810401 
L 379.768918 261.264382 
L 380.052311 260.137455 
L 380.335703 260.262669 
L 380.619096 259.845289 
L 380.902489 260.68005 
L 381.185881 260.805264 
L 381.469274 259.970503 
L 381.752666 259.887027 
L 382.036059 260.304407 
L 382.319451 259.720075 
L 382.886237 260.638312 
L 383.169629 260.513098 
L 383.736414 259.469647 
L 384.019807 259.386171 
L 384.3032 259.594861 
L 384.586592 258.968791 
L 384.869985 259.720075 
L 385.43677 263.977353 
L 386.003555 264.227781 
L 386.57034 262.099142 
L 386.853733 263.476497 
L 387.137125 263.017379 
L 387.420518 262.099142 
L 387.703911 261.973928 
L 387.987303 262.34957 
L 388.270696 262.433046 
L 388.837481 261.180906 
L 389.120874 261.681762 
L 389.404266 261.806976 
L 389.971051 261.264382 
L 390.254444 261.806976 
L 390.537836 261.681762 
L 391.104622 258.175768 
L 391.388014 257.341008 
L 391.671407 258.34272 
L 392.238192 265.187756 
L 392.521585 265.146018 
L 392.804977 263.059117 
L 393.08837 262.182618 
L 393.371762 262.015666 
L 393.655155 262.34957 
L 393.938547 261.890452 
L 394.505333 260.554836 
L 394.788725 259.970503 
L 395.638903 259.720075 
L 396.205688 259.803551 
L 396.772473 260.304407 
L 397.055866 260.053979 
L 397.339259 260.262669 
L 397.906044 258.092292 
L 398.189436 258.760101 
L 398.472829 260.429621 
L 398.756221 261.264382 
L 399.039614 262.558261 
L 399.323007 264.937328 
L 399.606399 265.10428 
L 400.173184 263.810401 
L 400.456577 264.436472 
L 401.590147 260.095717 
L 402.156932 260.972216 
L 402.440325 260.88874 
L 402.723718 261.264382 
L 403.00711 261.180906 
L 403.290503 261.556548 
L 403.573895 260.638312 
L 403.857288 261.681762 
L 404.707466 257.633174 
L 404.990858 257.633174 
L 405.274251 259.052267 
L 405.557643 261.09743 
L 405.841036 264.770376 
L 406.124429 265.062542 
L 406.407821 266.272944 
L 407.257999 263.226069 
L 407.541392 263.226069 
L 408.108177 261.09743 
L 408.391569 260.68005 
L 408.674962 260.596574 
L 408.958354 260.930478 
L 409.241747 260.346145 
L 409.52514 260.346145 
L 409.808532 260.596574 
L 410.091925 259.386171 
L 410.375317 259.636599 
L 410.65871 260.053979 
L 410.942103 260.262669 
L 411.225495 258.593149 
L 411.79228 257.967078 
L 412.359066 260.930478 
L 412.642458 262.474785 
L 412.925851 263.059117 
L 413.209243 262.725213 
L 413.776028 260.88874 
L 414.342814 261.180906 
L 414.909599 260.012241 
L 415.192991 260.513098 
L 415.476384 260.429621 
L 416.043169 258.760101 
L 416.609954 260.179193 
L 416.893347 260.304407 
L 417.176739 259.094005 
L 417.460132 259.344433 
L 417.743525 259.344433 
L 418.31031 256.631462 
L 418.593702 257.048842 
L 418.877095 258.384458 
L 419.44388 262.933903 
L 419.727273 264.561686 
L 420.57745 261.848714 
L 420.860843 261.7235 
L 421.144236 263.100855 
L 421.427628 262.599999 
L 421.994413 260.346145 
L 422.277806 258.718363 
L 422.561199 258.676625 
L 423.127984 260.847002 
L 423.411376 259.636599 
L 423.694769 259.553123 
L 424.261554 260.930478 
L 424.544947 259.887027 
L 425.111732 258.593149 
L 425.678517 259.052267 
L 426.245302 264.102567 
L 426.812087 264.436472 
L 427.09548 264.060829 
L 427.378873 262.808689 
L 427.662265 263.142593 
L 427.945658 262.850427 
L 428.22905 260.847002 
L 428.512443 259.720075 
L 428.795835 259.553123 
L 429.079228 260.220931 
L 429.646013 260.596574 
L 429.929406 260.513098 
L 430.212798 260.805264 
L 430.496191 260.847002 
L 431.062976 260.137455 
L 431.629761 260.304407 
L 431.913154 260.179193 
L 432.196546 260.513098 
L 432.479939 260.387883 
L 432.763332 261.055692 
L 433.046724 261.389596 
L 433.330117 261.055692 
L 433.613509 261.51481 
L 433.896902 261.180906 
L 434.180295 261.139168 
L 434.463687 260.638312 
L 434.74708 260.638312 
L 435.597257 259.594861 
L 435.88065 259.386171 
L 436.164043 259.636599 
L 436.730828 259.219219 
L 437.297613 259.761813 
L 437.581006 259.594861 
L 438.147791 259.803551 
L 438.431183 259.427909 
L 438.714576 258.593149 
L 439.281361 258.593149 
L 439.564754 259.803551 
L 439.848146 258.551411 
L 440.131539 258.593149 
L 440.414931 258.968791 
L 440.698324 258.968791 
L 440.981717 258.34272 
L 441.265109 258.593149 
L 441.548502 257.92534 
L 441.831894 257.841864 
L 442.115287 258.092292 
L 442.682072 258.092292 
L 442.965465 257.591436 
L 443.53225 257.549698 
L 443.815642 257.883602 
L 444.099035 257.633174 
L 444.382428 257.758388 
L 444.66582 257.591436 
L 444.949213 257.633174 
L 445.232605 257.215794 
L 445.515998 257.132318 
L 445.799391 257.215794 
L 446.082783 257.09058 
L 446.366176 258.34272 
L 446.649568 258.217506 
L 446.932961 258.300982 
L 447.216353 257.549698 
L 447.499746 257.174056 
L 447.783139 257.048842 
L 448.066531 256.6732 
L 448.349924 256.547986 
L 448.633316 255.796701 
L 449.200102 253.334158 
L 449.483494 251.622899 
L 449.766887 251.372471 
L 450.050279 250.955091 
L 450.617064 242.440534 
L 450.900457 240.645799 
L 451.467242 239.393659 
L 451.750635 239.268445 
L 452.034027 238.51716 
L 452.31742 229.167844 
L 453.167598 176.410985 
L 453.45099 167.771214 
L 453.734383 163.764364 
L 454.017776 163.263508 
L 454.301168 165.475623 
L 454.867953 173.364109 
L 456.001524 190.768864 
L 456.851701 199.492111 
L 457.418487 202.747676 
L 458.552057 206.545836 
L 459.118842 209.550974 
L 460.252412 218.107268 
L 460.819198 222.781926 
L 461.10259 223.449735 
L 461.385983 224.409709 
L 461.669375 225.912278 
L 462.23616 227.289633 
L 463.369731 233.007742 
L 463.653123 233.04948 
L 463.936516 233.67555 
L 464.503301 235.386809 
L 464.786694 236.054617 
L 465.353479 236.680687 
L 465.920264 237.6824 
L 466.203657 237.515448 
L 466.487049 237.05633 
L 467.053834 246.447384 
L 467.337227 247.240407 
L 467.62062 245.737838 
L 468.187405 244.485697 
L 468.470797 244.819602 
L 468.75419 245.445672 
L 469.320975 243.108343 
L 469.604368 243.734413 
L 470.171153 244.110055 
L 470.454545 244.819602 
L 470.737938 245.111768 
L 471.021331 245.6961 
L 471.304723 245.612624 
L 472.154901 246.447384 
L 472.721686 244.235269 
L 473.005079 243.901365 
L 473.288471 245.153506 
L 473.855256 253.542848 
L 474.138649 252.958516 
L 474.422042 253.334158 
L 474.705434 253.208944 
L 475.272219 252.123755 
L 475.555612 252.082017 
L 475.839005 250.829877 
L 476.689182 249.953378 
L 476.972575 250.203806 
L 477.255967 250.871615 
L 477.53936 250.829877 
L 477.822753 250.370758 
L 478.106145 250.788139 
L 478.389538 250.454234 
L 478.67293 250.495972 
L 478.956323 250.704663 
L 479.239716 250.370758 
L 479.523108 249.786426 
L 479.806501 249.953378 
L 480.089893 248.826452 
L 480.656679 256.923628 
L 480.940071 257.09058 
L 481.223464 258.175768 
L 481.506856 256.798414 
L 481.790249 256.506247 
L 482.640427 254.168918 
L 482.923819 253.208944 
L 483.207212 253.793276 
L 483.490604 253.793276 
L 483.773997 253.542848 
L 484.05739 253.668062 
L 484.340782 254.168918 
L 484.624175 253.626324 
L 484.907567 254.12718 
L 485.474352 253.542848 
L 485.757745 254.085442 
L 486.041138 252.708088 
L 486.32453 250.746401 
L 486.891315 249.828164 
L 487.458101 259.302695 
L 487.741493 258.885315 
L 488.024886 260.429621 
L 488.308278 258.760101 
L 488.875063 257.29927 
L 489.158456 257.382746 
L 489.441849 256.381033 
L 489.725241 255.838439 
L 490.008634 254.836727 
L 490.292026 254.628037 
L 490.575419 254.669775 
L 491.142204 255.546273 
L 491.425597 255.546273 
L 491.708989 255.796701 
L 491.992382 255.713225 
L 492.275775 255.045417 
L 492.559167 255.379321 
L 492.84256 255.170631 
L 493.125952 251.706375 
L 493.409345 251.873327 
L 493.97613 255.838439 
L 494.259523 257.341008 
L 494.542915 260.68005 
L 494.826308 257.633174 
L 495.1097 257.800126 
L 495.393093 258.217506 
L 495.676486 260.638312 
L 496.526663 256.422771 
L 496.810056 258.175768 
L 497.093448 255.921915 
L 497.376841 256.339295 
L 497.660234 257.048842 
L 497.943626 256.840152 
L 498.227019 257.174056 
L 498.510411 257.09058 
L 498.793804 257.382746 
L 499.077197 257.215794 
L 499.360589 257.215794 
L 499.643982 257.007104 
L 499.927374 256.422771 
L 500.210767 256.923628 
L 500.494159 256.798414 
L 500.777552 257.132318 
L 501.060945 259.177481 
L 501.344337 258.13403 
L 502.194515 253.50111 
L 502.7613 250.245544 
L 503.328085 246.238694 
L 503.611478 244.86134 
L 503.89487 242.190106 
L 504.178263 230.169556 
L 504.745048 135.465986 
L 505.028441 110.882291 
L 505.595226 87.216833 
L 505.878619 81.707415 
L 506.162011 79.328347 
L 506.445404 78.368373 
L 506.728796 78.994443 
L 507.012189 81.290034 
L 507.295582 85.129932 
L 507.862367 96.273984 
L 508.145759 101.741665 
L 508.712544 106.708489 
L 509.27933 111.090982 
L 509.562722 114.805665 
L 509.846115 116.475186 
L 510.4129 122.861104 
L 511.54647 140.43281 
L 512.963433 161.927891 
L 513.530218 166.852978 
L 514.663789 183.6734 
L 515.230574 189.141081 
L 516.080752 194.274858 
L 524.582529 224.201019 
L 524.865922 224.117543 
L 525.149314 224.242757 
L 525.432707 223.825377 
L 525.999492 225.954016 
L 526.566277 226.204444 
L 526.84967 226.997466 
L 527.133062 227.039205 
L 527.699848 229.501748 
L 527.98324 232.423409 
L 528.550025 232.966004 
L 528.833418 234.552048 
L 529.116811 233.091218 
L 529.400203 233.550336 
L 529.683596 233.508598 
L 529.966988 234.30162 
L 530.250381 234.009454 
L 530.533773 233.88424 
L 530.817166 232.882527 
L 531.100559 232.590361 
L 531.383951 233.04948 
L 531.667344 233.800764 
L 531.950736 233.383384 
L 532.234129 233.842502 
L 532.517522 234.593786 
L 532.800914 234.593786 
L 533.084307 234.885952 
L 533.367699 234.885952 
L 533.934485 235.762451 
L 534.217877 235.720713 
L 534.50127 236.680687 
L 535.068055 238.934541 
L 535.351447 238.809326 
L 535.63484 238.475422 
L 535.918233 239.560611 
L 536.485018 238.224994 
L 536.76841 238.600636 
L 537.051803 238.600636 
L 537.335196 238.475422 
L 537.618588 238.72585 
L 537.901981 238.684112 
L 538.468766 238.892803 
L 538.752158 238.809326 
L 539.318944 239.018017 
L 539.602336 239.351921 
L 539.885729 239.936253 
L 540.169121 239.769301 
L 540.452514 240.019729 
L 540.735907 239.268445 
L 541.019299 238.851065 
L 541.302692 240.562323 
L 541.586084 244.569173 
L 542.152869 246.697813 
L 542.436262 244.694387 
L 542.719655 244.402221 
L 543.003047 243.650937 
L 543.569832 246.781289 
L 543.853225 243.191819 
L 544.136618 242.440534 
L 544.42001 243.275295 
L 544.703403 242.607486 
L 544.986795 243.108343 
L 545.55358 243.275295 
L 545.836973 243.108343 
L 546.120366 243.358771 
L 546.403758 242.941391 
L 546.687151 243.066605 
L 546.970543 243.525723 
L 547.253936 243.191819 
L 547.820721 243.817889 
L 548.954292 245.111768 
L 549.521077 246.071742 
L 549.804469 246.196956 
L 550.087862 246.196956 
L 550.371254 247.574311 
L 550.654647 246.53086 
L 550.93804 244.110055 
L 551.788217 245.779576 
L 552.638395 246.196956 
L 552.921788 245.90479 
L 553.20518 245.946528 
L 553.771965 246.405646 
L 554.055358 246.405646 
L 554.338751 246.155218 
L 554.905536 246.614336 
L 555.188928 246.989979 
L 555.472321 247.574311 
L 556.039106 248.158643 
L 556.322499 248.116905 
L 556.605891 248.576023 
L 556.889284 248.617761 
L 557.172676 248.033429 
L 557.456069 247.824739 
L 557.739462 247.908215 
L 558.022854 248.116905 
L 558.306247 247.657787 
L 558.873032 247.282145 
L 559.156425 247.574311 
L 559.72321 246.405646 
L 560.006602 246.656074 
L 560.289995 246.656074 
L 560.573388 246.53086 
L 560.85678 246.280432 
L 561.140173 245.863052 
L 561.423565 245.779576 
L 561.706958 245.988266 
L 561.99035 245.779576 
L 562.557136 244.443959 
L 562.840528 244.277007 
L 563.407313 243.275295 
L 563.690706 243.024867 
L 563.974099 242.31532 
L 564.257491 241.104918 
L 564.540884 240.562323 
L 564.824276 238.892803 
L 565.674454 236.638949 
L 565.957847 236.471997 
L 566.524632 234.259882 
L 566.808024 233.759026 
L 567.658202 231.004317 
L 567.941595 228.416559 
L 568.224987 227.247895 
L 568.50838 228.166131 
L 568.791772 230.253032 
L 569.075165 230.127818 
L 569.358558 230.92084 
L 569.64195 230.127818 
L 569.925343 229.793914 
L 570.775521 229.835652 
L 571.058913 229.626962 
L 571.342306 229.126106 
L 571.909091 228.833939 
L 572.192483 229.084368 
L 572.475876 228.750463 
L 572.759269 229.000892 
L 573.042661 229.000892 
L 573.609446 228.416559 
L 574.176232 228.541773 
L 574.459624 227.581799 
L 574.743017 227.832227 
L 575.026409 227.581799 
L 575.309802 228.333083 
L 575.593195 230.169556 
L 575.876587 229.87739 
L 576.15998 230.753888 
L 577.010157 230.962579 
L 577.29355 230.211294 
L 577.576943 230.169556 
L 577.860335 230.378246 
L 578.143728 230.962579 
L 578.42712 231.004317 
L 578.710513 231.588649 
L 578.993906 231.797339 
L 579.277298 231.839077 
L 579.560691 232.214719 
L 579.844083 232.882527 
L 580.127476 232.882527 
L 580.410868 233.174694 
L 580.694261 233.007742 
L 580.977654 233.341646 
L 581.261046 233.341646 
L 582.111224 236.012879 
L 582.394617 235.762451 
L 582.961402 236.805901 
L 583.244794 236.972854 
L 583.528187 237.390234 
L 583.811579 237.515448 
L 584.094972 238.892803 
L 584.378365 239.393659 
L 584.661757 237.724138 
L 584.94515 237.47371 
L 585.228542 239.018017 
L 585.511935 238.642374 
L 585.795328 237.89109 
L 586.07872 238.558898 
L 586.362113 238.72585 
L 586.645505 238.558898 
L 586.928898 237.014592 
L 587.212291 236.096355 
L 587.495683 237.598924 
L 587.779076 238.266732 
L 588.062468 238.350208 
L 588.345861 237.557186 
L 588.629253 238.30847 
L 588.912646 239.560611 
L 589.196039 241.647512 
L 589.479431 242.899653 
L 589.762824 242.023154 
L 590.046216 243.024867 
L 590.329609 242.649224 
L 590.613002 241.981416 
L 590.896394 243.066605 
L 591.179787 242.899653 
L 591.463179 241.89794 
L 591.746572 239.685825 
L 592.029964 241.230132 
L 592.59675 242.064892 
L 592.880142 243.024867 
L 593.163535 242.148368 
L 593.73032 242.816177 
L 594.297105 241.772726 
L 594.580498 240.812752 
L 594.86389 240.604061 
L 595.997461 242.482272 
L 596.280853 241.89794 
L 596.564246 241.856202 
L 596.847638 241.48056 
L 597.131031 241.355346 
L 597.414424 241.021442 
L 597.697816 240.103205 
L 598.264601 239.518873 
L 598.547994 239.310183 
L 599.398172 238.016304 
L 599.964957 237.515448 
L 601.098527 236.346783 
L 601.38192 235.303333 
L 601.665312 233.592074 
L 602.232098 227.456585 
L 602.51549 226.07923 
L 602.798883 223.574949 
L 603.082275 223.867115 
L 603.64906 221.362834 
L 603.932453 221.321096 
L 604.499238 219.735051 
L 604.782631 219.359409 
L 605.916201 219.10898 
L 606.199594 218.858552 
L 606.482986 217.64815 
L 606.766379 217.23077 
L 607.333164 215.352559 
L 607.899949 212.222207 
L 608.750127 204.918053 
L 609.316912 207.380597 
L 609.600305 207.29712 
L 609.883697 208.131881 
L 611.017268 208.298833 
L 611.584053 208.757951 
L 611.867445 209.384022 
L 612.150838 209.008379 
L 612.717623 209.926616 
L 613.567801 210.636162 
L 614.134586 211.262232 
L 614.417979 210.636162 
L 614.701371 210.761376 
L 615.551549 207.130168 
L 615.834942 208.006667 
L 616.118334 209.42576 
L 616.401727 209.63445 
L 616.968512 211.888303 
L 617.251905 211.930041 
L 617.81869 210.343996 
L 618.385475 212.222207 
L 618.668867 212.222207 
L 619.235653 211.596137 
L 619.519045 212.472635 
L 620.369223 212.973491 
L 620.652616 213.683038 
L 620.936008 214.89344 
L 621.219401 214.100418 
L 621.502793 215.018654 
L 621.786186 214.851702 
L 622.069578 215.143868 
L 622.352971 214.26737 
L 622.636364 214.016942 
L 622.636364 214.016942 
" clip-path="url(#p9520895112)" style="fill: none; stroke: #1f77b4; stroke-width: 1.5; stroke-linecap: square"/>
   </g>
   <g id="line2d_12">
    <path d="M 115.363636 246.24776 
L 115.930422 246.36131 
L 116.213814 258.676625 
L 119.897918 261.828291 
L 120.18131 261.899115 
L 121.314881 262.899499 
L 122.731844 264.014997 
L 123.015236 260.638312 
L 126.132555 262.966568 
L 128.399695 264.485166 
L 128.96648 263.542362 
L 129.249873 263.661463 
L 129.533266 263.454021 
L 129.816658 257.09058 
L 132.367191 258.331995 
L 132.933977 258.596724 
L 133.500762 258.464317 
L 134.067547 258.658337 
L 136.334688 258.91743 
L 136.61808 256.297557 
L 137.468258 254.900215 
L 138.318436 254.03605 
L 139.168614 253.558305 
L 140.018791 253.339568 
L 141.152362 253.293731 
L 142.569325 253.490998 
L 143.13611 253.630635 
L 143.419502 254.085442 
L 145.119858 254.734053 
L 147.103606 255.758407 
L 148.520569 256.664229 
L 148.803961 256.616372 
L 149.087354 256.257628 
L 149.370747 256.149785 
L 149.654139 255.43153 
L 149.937532 253.727082 
L 150.220924 247.699525 
L 150.504317 247.619394 
L 150.787709 245.420809 
L 151.354495 237.818789 
L 151.92128 233.033339 
L 152.771458 221.465237 
L 154.755206 189.647326 
L 155.888776 169.460935 
L 156.738954 157.906396 
L 157.022346 192.104481 
L 157.589132 191.890939 
L 158.155917 191.875275 
L 159.006094 192.119721 
L 160.139665 192.775877 
L 161.556628 193.935518 
L 162.973591 195.394235 
L 163.540376 196.063605 
L 163.823768 229.000892 
L 165.240731 231.016205 
L 166.657694 233.431884 
L 168.074657 236.093515 
L 168.641442 234.785475 
L 168.924835 234.721346 
L 169.49162 234.198165 
L 169.775013 234.174308 
L 170.341798 233.790756 
L 170.62519 239.393659 
L 171.191976 239.141417 
L 171.758761 239.237973 
L 172.325546 239.701055 
L 172.892331 240.486922 
L 173.742509 242.138319 
L 174.876079 244.938893 
L 176.576435 249.826725 
L 177.14322 251.548653 
L 177.426612 230.253032 
L 183.944642 250.130261 
L 184.228035 245.737838 
L 187.345353 254.460074 
L 190.179279 261.739103 
L 192.729812 267.64634 
L 194.996953 272.316221 
L 196.980701 275.924877 
L 197.547486 276.872727 
L 197.830879 257.71665 
L 199.814627 260.656675 
L 201.798375 263.163752 
L 203.782123 265.26704 
L 204.348908 265.798969 
L 204.632301 259.260957 
L 206.616049 260.846015 
L 208.599797 262.127225 
L 210.583545 263.14903 
L 211.717115 263.640316 
L 212.567293 263.309639 
L 213.134078 259.267959 
L 213.417471 259.691236 
L 213.700863 259.525804 
L 216.534789 259.40325 
L 216.818182 259.308848 
L 217.101574 258.230935 
L 217.66836 247.242682 
L 218.235145 243.170614 
L 219.9355 228.179568 
L 220.785678 223.487068 
L 221.352463 221.381868 
L 221.919248 219.888655 
L 222.486034 218.851831 
L 223.052819 218.150528 
L 223.619604 217.696797 
L 224.469782 217.351965 
L 225.319959 217.302253 
L 226.170137 217.480312 
L 227.020315 217.85299 
L 228.153885 218.627223 
L 229.287456 219.704122 
L 230.421026 221.072434 
L 231.837989 223.168777 
L 233.254952 225.650655 
L 234.955307 229.049492 
L 237.222448 234.082153 
L 238.356018 236.722218 
L 238.639411 223.574949 
L 245.15744 226.860795 
L 245.440833 238.809326 
L 247.141188 242.078859 
L 248.841544 244.923196 
L 250.541899 247.377197 
L 251.108685 247.962593 
L 251.392077 247.065293 
L 251.67547 245.434933 
L 251.958862 245.172616 
L 252.242255 244.360483 
L 254.226003 246.871911 
L 256.209751 249.030922 
L 258.193499 250.873304 
L 258.760284 251.34786 
L 259.043677 251.122043 
L 261.310818 252.785189 
L 263.861351 254.362557 
L 266.695277 255.856502 
L 270.095988 257.404342 
L 274.063484 258.964661 
L 278.03098 260.295259 
L 281.998476 261.399413 
L 285.965973 262.280483 
L 287.382936 262.543696 
L 287.666328 257.466222 
L 291.917217 258.044454 
L 292.767395 258.136106 
L 293.050787 259.469647 
L 297.585069 259.898921 
L 297.868461 259.476779 
L 298.151854 258.833138 
L 298.435246 258.626329 
L 299.002031 258.581853 
L 299.285424 258.636379 
L 299.568817 258.267333 
L 300.135602 256.818439 
L 301.269172 255.735217 
L 302.402743 254.953935 
L 303.819705 254.272567 
L 305.520061 253.74874 
L 307.503809 253.411535 
L 309.77095 253.287377 
L 312.03809 253.386691 
L 314.588624 253.722485 
L 317.42255 254.318507 
L 321.106653 255.327212 
L 332.725749 258.667181 
L 336.976638 259.565949 
L 339.810564 260.036765 
L 343.494667 254.54456 
L 344.91163 254.165056 
L 346.611986 253.992899 
L 348.595734 254.049187 
L 350.296089 254.295592 
L 350.579482 254.356496 
L 350.862875 254.586299 
L 352.56323 255.047332 
L 354.263586 255.724265 
L 355.963941 256.632378 
L 357.097511 257.40827 
L 363.048756 263.374776 
L 363.332148 258.300982 
L 369.850178 259.017251 
L 370.13357 260.972216 
L 374.667852 264.694694 
L 376.934992 266.449748 
L 377.218385 259.887027 
L 378.351955 260.711598 
L 378.635348 260.797888 
L 379.202133 260.654968 
L 380.052311 260.81796 
L 380.335703 260.569595 
L 380.902489 260.615405 
L 381.752666 260.997057 
L 383.453022 261.86116 
L 383.736414 260.513098 
L 384.586592 260.458074 
L 385.720163 260.616635 
L 387.137125 261.060933 
L 389.120874 261.942834 
L 390.254444 262.51919 
L 390.537836 261.264382 
L 394.505333 263.472519 
L 397.339259 265.519913 
L 397.622651 260.304407 
L 400.456577 260.572107 
L 404.140681 260.89128 
L 404.424073 260.638312 
L 412.075673 261.256375 
L 412.359066 258.217506 
L 417.743525 259.024607 
L 418.026917 259.344433 
L 431.062976 260.410366 
L 431.629761 260.423112 
L 433.330117 260.527202 
L 433.896902 260.282876 
L 434.463687 260.008804 
L 435.313865 259.043805 
L 436.730828 257.758712 
L 437.864398 256.997947 
L 438.147791 259.594861 
L 438.714576 259.541705 
L 439.281361 259.373228 
L 439.848146 259.056068 
L 440.414931 259.145712 
L 441.265109 259.341632 
L 442.682072 259.73965 
L 443.815642 259.633581 
L 444.382428 259.345116 
L 444.949213 258.88945 
L 445.799391 258.792519 
L 446.082783 258.782188 
L 446.366176 257.132318 
L 447.783139 256.830665 
L 448.066531 257.549698 
L 448.916709 257.428408 
L 449.483494 256.070837 
L 449.766887 256.039926 
L 450.333672 255.498461 
L 450.617064 254.545768 
L 451.18385 251.63204 
L 451.467242 250.637575 
L 451.750635 239.977991 
L 452.034027 239.898225 
L 452.600813 239.4825 
L 453.45099 239.367688 
L 454.017776 238.691764 
L 456.284916 234.922775 
L 457.135094 234.050015 
L 457.985272 233.504432 
L 458.835449 233.22747 
L 459.96902 233.160207 
L 461.385983 233.387728 
L 463.369731 234.003675 
L 465.070086 234.639591 
L 465.353479 236.054617 
L 469.037583 237.626971 
L 471.871508 238.878748 
L 472.154901 245.863052 
L 478.67293 247.976861 
L 478.956323 250.454234 
L 485.474352 252.152361 
L 485.757745 253.793276 
L 492.559167 255.237021 
L 492.84256 255.713225 
L 499.360589 256.486608 
L 499.643982 257.382746 
L 501.62773 258.298631 
L 501.911122 258.326406 
L 502.194515 258.062328 
L 502.477908 257.517237 
L 503.044693 255.353524 
L 503.328085 253.698238 
L 505.878619 232.407093 
L 506.162011 87.216833 
L 506.728796 86.323863 
L 507.295582 85.747569 
L 507.862367 85.453623 
L 508.429152 85.408434 
L 508.995937 85.579869 
L 509.846115 86.175855 
L 510.979685 87.340151 
L 511.263078 87.786177 
L 511.54647 87.800668 
L 511.829863 87.415344 
L 512.113255 87.468807 
L 512.963433 88.531166 
L 513.246826 154.039405 
L 514.097004 154.007802 
L 514.947181 154.259535 
L 516.080752 154.841497 
L 527.133062 165.811727 
L 532.234129 170.873456 
L 533.367699 171.955826 
L 533.651092 234.593786 
L 536.76841 235.544392 
L 537.335196 235.544207 
L 539.885729 236.487112 
L 540.169121 239.351921 
L 546.403758 240.89804 
L 546.970543 240.864586 
L 547.253936 242.941391 
L 550.93804 243.795638 
L 551.504825 243.715397 
L 552.07161 243.559088 
L 552.355003 243.490303 
L 552.921788 243.117067 
L 553.488573 243.333559 
L 553.771965 245.946528 
L 555.188928 245.348152 
L 555.472321 245.089551 
L 556.039106 244.109634 
L 556.605891 244.055382 
L 557.739462 243.517975 
L 558.306247 242.796116 
L 558.589639 241.721971 
L 558.873032 239.946016 
L 559.156425 239.598143 
L 560.006602 234.33013 
L 560.573388 232.53837 
L 560.85678 246.656074 
L 562.557136 240.229967 
L 563.407313 237.454024 
L 564.824276 232.037939 
L 565.674454 229.755453 
L 566.524632 228.286205 
L 567.091417 227.660935 
L 567.37481 233.759026 
L 568.224987 233.911272 
L 569.358558 234.365469 
L 571.625698 235.644985 
L 572.759269 236.445922 
L 573.609446 237.283881 
L 574.176232 237.973975 
L 574.459624 228.416559 
L 580.977654 232.002532 
L 581.261046 233.174694 
L 587.779076 236.430909 
L 588.062468 236.096355 
L 594.013713 237.994757 
L 594.580498 238.16139 
L 594.86389 242.273582 
L 595.147283 242.123458 
L 595.430675 241.812648 
L 596.280853 240.108391 
L 596.564246 239.784925 
L 596.847638 239.771415 
L 597.414424 240.178173 
L 597.697816 239.90256 
L 598.264601 237.848337 
L 598.831386 235.650218 
L 599.398172 235.160303 
L 600.531742 234.241417 
L 601.098527 233.10483 
L 601.38192 232.375 
L 601.665312 236.597211 
L 602.51549 235.511822 
L 603.082275 235.081232 
L 604.215846 232.356614 
L 604.499238 231.827261 
L 604.782631 231.58888 
L 605.066023 231.5537 
L 606.482986 231.927983 
L 607.049771 231.717686 
L 607.899949 230.969036 
L 608.183342 213.891728 
L 609.03352 213.933328 
L 611.30066 214.277765 
L 611.584053 214.071125 
L 612.434231 212.007547 
L 613.001016 209.897936 
L 614.134586 209.609486 
L 614.984764 209.584425 
L 615.268156 210.636162 
L 616.118334 210.694609 
L 617.251905 211.019533 
L 618.668867 211.710434 
L 620.652616 212.980646 
L 622.069578 214.100418 
L 622.636364 214.583917 
L 622.636364 214.583917 
" clip-path="url(#p9520895112)" style="fill: none; stroke: #ff7f0e; stroke-width: 1.5; stroke-linecap: square"/>
   </g>
   <g id="patch_3">
    <path d="M 90 288 
L 90 43.2 
" style="fill: none; stroke: #000000; stroke-width: 0.8; stroke-linejoin: miter; stroke-linecap: square"/>
   </g>
   <g id="patch_4">
    <path d="M 648 288 
L 648 43.2 
" style="fill: none; stroke: #000000; stroke-width: 0.8; stroke-linejoin: miter; stroke-linecap: square"/>
   </g>
   <g id="patch_5">
    <path d="M 90 288 
L 648 288 
" style="fill: none; stroke: #000000; stroke-width: 0.8; stroke-linejoin: miter; stroke-linecap: square"/>
   </g>
   <g id="patch_6">
    <path d="M 90 43.2 
L 648 43.2 
" style="fill: none; stroke: #000000; stroke-width: 0.8; stroke-linejoin: miter; stroke-linecap: square"/>
   </g>
   <g id="text_12">
    <!-- MDOT7079 -->
    <g transform="translate(335.545313 37.2) scale(0.12 -0.12)">
     <defs>
      <path id="DejaVuSans-44" d="M 1259 4147 
L 1259 519 
L 2022 519 
Q 2988 519 3436 956 
Q 3884 1394 3884 2338 
Q 3884 3275 3436 3711 
Q 2988 4147 2022 4147 
L 1259 4147 
z
M 628 4666 
L 1925 4666 
Q 3281 4666 3915 4102 
Q 4550 3538 4550 2338 
Q 4550 1131 3912 565 
Q 3275 0 1925 0 
L 628 0 
L 628 4666 
z
" transform="scale(0.015625)"/>
      <path id="DejaVuSans-4f" d="M 2522 4238 
Q 1834 4238 1429 3725 
Q 1025 3213 1025 2328 
Q 1025 1447 1429 934 
Q 1834 422 2522 422 
Q 3209 422 3611 934 
Q 4013 1447 4013 2328 
Q 4013 3213 3611 3725 
Q 3209 4238 2522 4238 
z
M 2522 4750 
Q 3503 4750 4090 4092 
Q 4678 3434 4678 2328 
Q 4678 1225 4090 567 
Q 3503 -91 2522 -91 
Q 1538 -91 948 565 
Q 359 1222 359 2328 
Q 359 3434 948 4092 
Q 1538 4750 2522 4750 
z
" transform="scale(0.015625)"/>
      <path id="DejaVuSans-54" d="M -19 4666 
L 3928 4666 
L 3928 4134 
L 2272 4134 
L 2272 0 
L 1638 0 
L 1638 4134 
L -19 4134 
L -19 4666 
z
" transform="scale(0.015625)"/>
      <path id="DejaVuSans-37" d="M 525 4666 
L 3525 4666 
L 3525 4397 
L 1831 0 
L 1172 0 
L 2766 4134 
L 525 4134 
L 525 4666 
z
" transform="scale(0.015625)"/>
     </defs>
     <use xlink:href="#DejaVuSans-4d"/>
     <use xlink:href="#DejaVuSans-44" x="86.279297"/>
     <use xlink:href="#DejaVuSans-4f" x="163.28125"/>
     <use xlink:href="#DejaVuSans-54" x="241.992188"/>
     <use xlink:href="#DejaVuSans-37" x="303.076172"/>
     <use xlink:href="#DejaVuSans-30" x="366.699219"/>
     <use xlink:href="#DejaVuSans-37" x="430.322266"/>
     <use xlink:href="#DejaVuSans-39" x="493.945312"/>
    </g>
   </g>
   <g id="legend_1">
    <g id="patch_7">
     <path d="M 559.04375 80.55625 
L 641 80.55625 
Q 643 80.55625 643 78.55625 
L 643 50.2 
Q 643 48.2 641 48.2 
L 559.04375 48.2 
Q 557.04375 48.2 557.04375 50.2 
L 557.04375 78.55625 
Q 557.04375 80.55625 559.04375 80.55625 
z
" style="fill: #ffffff; opacity: 0.8; stroke: #cccccc; stroke-linejoin: miter"/>
    </g>
    <g id="line2d_13">
     <path d="M 561.04375 56.298437 
L 571.04375 56.298437 
L 581.04375 56.298437 
" style="fill: none; stroke: #1f77b4; stroke-width: 1.5; stroke-linecap: square"/>
    </g>
    <g id="text_13">
     <!-- measured -->
     <g transform="translate(589.04375 59.798437) scale(0.1 -0.1)">
      <defs>
       <path id="DejaVuSans-6d" d="M 3328 2828 
Q 3544 3216 3844 3400 
Q 4144 3584 4550 3584 
Q 5097 3584 5394 3201 
Q 5691 2819 5691 2113 
L 5691 0 
L 5113 0 
L 5113 2094 
Q 5113 2597 4934 2840 
Q 4756 3084 4391 3084 
Q 3944 3084 3684 2787 
Q 3425 2491 3425 1978 
L 3425 0 
L 2847 0 
L 2847 2094 
Q 2847 2600 2669 2842 
Q 2491 3084 2119 3084 
Q 1678 3084 1418 2786 
Q 1159 2488 1159 1978 
L 1159 0 
L 581 0 
L 581 3500 
L 1159 3500 
L 1159 2956 
Q 1356 3278 1631 3431 
Q 1906 3584 2284 3584 
Q 2666 3584 2933 3390 
Q 3200 3197 3328 2828 
z
" transform="scale(0.015625)"/>
       <path id="DejaVuSans-61" d="M 2194 1759 
Q 1497 1759 1228 1600 
Q 959 1441 959 1056 
Q 959 750 1161 570 
Q 1363 391 1709 391 
Q 2188 391 2477 730 
Q 2766 1069 2766 1631 
L 2766 1759 
L 2194 1759 
z
M 3341 1997 
L 3341 0 
L 2766 0 
L 2766 531 
Q 2569 213 2275 61 
Q 1981 -91 1556 -91 
Q 1019 -91 701 211 
Q 384 513 384 1019 
Q 384 1609 779 1909 
Q 1175 2209 1959 2209 
L 2766 2209 
L 2766 2266 
Q 2766 2663 2505 2880 
Q 2244 3097 1772 3097 
Q 1472 3097 1187 3025 
Q 903 2953 641 2809 
L 641 3341 
Q 956 3463 1253 3523 
Q 1550 3584 1831 3584 
Q 2591 3584 2966 3190 
Q 3341 2797 3341 1997 
z
" transform="scale(0.015625)"/>
       <path id="DejaVuSans-75" d="M 544 1381 
L 544 3500 
L 1119 3500 
L 1119 1403 
Q 1119 906 1312 657 
Q 1506 409 1894 409 
Q 2359 409 2629 706 
Q 2900 1003 2900 1516 
L 2900 3500 
L 3475 3500 
L 3475 0 
L 2900 0 
L 2900 538 
Q 2691 219 2414 64 
Q 2138 -91 1772 -91 
Q 1169 -91 856 284 
Q 544 659 544 1381 
z
M 1991 3584 
L 1991 3584 
z
" transform="scale(0.015625)"/>
       <path id="DejaVuSans-64" d="M 2906 2969 
L 2906 4863 
L 3481 4863 
L 3481 0 
L 2906 0 
L 2906 525 
Q 2725 213 2448 61 
Q 2172 -91 1784 -91 
Q 1150 -91 751 415 
Q 353 922 353 1747 
Q 353 2572 751 3078 
Q 1150 3584 1784 3584 
Q 2172 3584 2448 3432 
Q 2725 3281 2906 2969 
z
M 947 1747 
Q 947 1113 1208 752 
Q 1469 391 1925 391 
Q 2381 391 2643 752 
Q 2906 1113 2906 1747 
Q 2906 2381 2643 2742 
Q 2381 3103 1925 3103 
Q 1469 3103 1208 2742 
Q 947 2381 947 1747 
z
" transform="scale(0.015625)"/>
      </defs>
      <use xlink:href="#DejaVuSans-6d"/>
      <use xlink:href="#DejaVuSans-65" x="97.412109"/>
      <use xlink:href="#DejaVuSans-61" x="158.935547"/>
      <use xlink:href="#DejaVuSans-73" x="220.214844"/>
      <use xlink:href="#DejaVuSans-75" x="272.314453"/>
      <use xlink:href="#DejaVuSans-72" x="335.693359"/>
      <use xlink:href="#DejaVuSans-65" x="374.556641"/>
      <use xlink:href="#DejaVuSans-64" x="436.080078"/>
     </g>
    </g>
    <g id="line2d_14">
     <path d="M 561.04375 70.976562 
L 571.04375 70.976562 
L 581.04375 70.976562 
" style="fill: none; stroke: #ff7f0e; stroke-width: 1.5; stroke-linecap: square"/>
    </g>
    <g id="text_14">
     <!-- predicted -->
     <g transform="translate(589.04375 74.476562) scale(0.1 -0.1)">
      <defs>
       <path id="DejaVuSans-70" d="M 1159 525 
L 1159 -1331 
L 581 -1331 
L 581 3500 
L 1159 3500 
L 1159 2969 
Q 1341 3281 1617 3432 
Q 1894 3584 2278 3584 
Q 2916 3584 3314 3078 
Q 3713 2572 3713 1747 
Q 3713 922 3314 415 
Q 2916 -91 2278 -91 
Q 1894 -91 1617 61 
Q 1341 213 1159 525 
z
M 3116 1747 
Q 3116 2381 2855 2742 
Q 2594 3103 2138 3103 
Q 1681 3103 1420 2742 
Q 1159 2381 1159 1747 
Q 1159 1113 1420 752 
Q 1681 391 2138 391 
Q 2594 391 2855 752 
Q 3116 1113 3116 1747 
z
" transform="scale(0.015625)"/>
       <path id="DejaVuSans-69" d="M 603 3500 
L 1178 3500 
L 1178 0 
L 603 0 
L 603 3500 
z
M 603 4863 
L 1178 4863 
L 1178 4134 
L 603 4134 
L 603 4863 
z
" transform="scale(0.015625)"/>
       <path id="DejaVuSans-63" d="M 3122 3366 
L 3122 2828 
Q 2878 2963 2633 3030 
Q 2388 3097 2138 3097 
Q 1578 3097 1268 2742 
Q 959 2388 959 1747 
Q 959 1106 1268 751 
Q 1578 397 2138 397 
Q 2388 397 2633 464 
Q 2878 531 3122 666 
L 3122 134 
Q 2881 22 2623 -34 
Q 2366 -91 2075 -91 
Q 1284 -91 818 406 
Q 353 903 353 1747 
Q 353 2603 823 3093 
Q 1294 3584 2113 3584 
Q 2378 3584 2631 3529 
Q 2884 3475 3122 3366 
z
" transform="scale(0.015625)"/>
      </defs>
      <use xlink:href="#DejaVuSans-70"/>
      <use xlink:href="#DejaVuSans-72" x="63.476562"/>
      <use xlink:href="#DejaVuSans-65" x="102.339844"/>
      <use xlink:href="#DejaVuSans-64" x="163.863281"/>
      <use xlink:href="#DejaVuSans-69" x="227.339844"/>
      <use xlink:href="#DejaVuSans-63" x="255.123047"/>
      <use xlink:href="#DejaVuSans-74" x="310.103516"/>
      <use xlink:href="#DejaVuSans-65" x="349.3125"/>
      <use xlink:href="#DejaVuSans-64" x="410.835938"/>
     </g>
    </g>
   </g>
  </g>
 </g>
 <defs>
  <clipPath id="p9520895112">
   <rect x="90" y="43.2" width="558" height="244.8"/>
  </clipPath>
 </defs>
</svg>
