<?xml version="1.0" encoding="utf-8" standalone="no"?>
<!DOCTYPE svg PUBLIC "-//W3C//DTD SVG 1.1//EN"
  "http://www.w3.org/Graphics/SVG/1.1/DTD/svg11.dtd">
<svg xmlns:xlink="http://www.w3.org/1999/xlink" width="713.0225pt" height="351.43625pt" viewBox="0 0 713.0225 351.43625" xmlns="http://www.w3.org/2000/svg" version="1.1">
 <metadata>
  <rdf:RDF xmlns:dc="http://purl.org/dc/elements/1.1/" xmlns:cc="http://creativecommons.org/ns#" xmlns:rdf="http://www.w3.org/1999/02/22-rdf-syntax-ns#">
   <cc:Work>
    <dc:type rdf:resource="http://purl.org/dc/dcmitype/StillImage"/>
    <dc:date>2023-08-17T23:37:12.140944</dc:date>
    <dc:format>image/svg+xml</dc:format>
    <dc:creator>
     <cc:Agent>
      <dc:title>Matplotlib v3.7.1, https://matplotlib.org/</dc:title>
     </cc:Agent>
    </dc:creator>
   </cc:Work>
  </rdf:RDF>
 </metadata>
 <defs>
  <style type="text/css">*{stroke-linejoin: round; stroke-linecap: butt}</style>
 </defs>
 <g id="figure_1">
  <g id="patch_1">
   <path d="M 0 351.43625 
L 713.0225 351.43625 
L 713.0225 0 
L 0 0 
z
" style="fill: #ffffff"/>
  </g>
  <g id="axes_1">
   <g id="patch_2">
    <path d="M 46.0125 327.558125 
L 705.8225 327.558125 
L 705.8225 22.318125 
L 46.0125 22.318125 
z
" style="fill: #ffffff"/>
   </g>
   <g id="matplotlib.axis_1">
    <g id="xtick_1">
     <g id="line2d_1">
      <defs>
       <path id="mdb73ca2e59" d="M 0 0 
L 0 3.5 
" style="stroke: #000000; stroke-width: 0.8"/>
      </defs>
      <g>
       <use xlink:href="#mdb73ca2e59" x="140.490148" y="327.558125" style="stroke: #000000; stroke-width: 0.8"/>
      </g>
     </g>
     <g id="text_1">
      <!-- 2010 -->
      <g transform="translate(127.765148 342.156563) scale(0.1 -0.1)">
       <defs>
        <path id="DejaVuSans-32" d="M 1228 531 
L 3431 531 
L 3431 0 
L 469 0 
L 469 531 
Q 828 903 1448 1529 
Q 2069 2156 2228 2338 
Q 2531 2678 2651 2914 
Q 2772 3150 2772 3378 
Q 2772 3750 2511 3984 
Q 2250 4219 1831 4219 
Q 1534 4219 1204 4116 
Q 875 4013 500 3803 
L 500 4441 
Q 881 4594 1212 4672 
Q 1544 4750 1819 4750 
Q 2544 4750 2975 4387 
Q 3406 4025 3406 3419 
Q 3406 3131 3298 2873 
Q 3191 2616 2906 2266 
Q 2828 2175 2409 1742 
Q 1991 1309 1228 531 
z
" transform="scale(0.015625)"/>
        <path id="DejaVuSans-30" d="M 2034 4250 
Q 1547 4250 1301 3770 
Q 1056 3291 1056 2328 
Q 1056 1369 1301 889 
Q 1547 409 2034 409 
Q 2525 409 2770 889 
Q 3016 1369 3016 2328 
Q 3016 3291 2770 3770 
Q 2525 4250 2034 4250 
z
M 2034 4750 
Q 2819 4750 3233 4129 
Q 3647 3509 3647 2328 
Q 3647 1150 3233 529 
Q 2819 -91 2034 -91 
Q 1250 -91 836 529 
Q 422 1150 422 2328 
Q 422 3509 836 4129 
Q 1250 4750 2034 4750 
z
" transform="scale(0.015625)"/>
        <path id="DejaVuSans-31" d="M 794 531 
L 1825 531 
L 1825 4091 
L 703 3866 
L 703 4441 
L 1819 4666 
L 2450 4666 
L 2450 531 
L 3481 531 
L 3481 0 
L 794 0 
L 794 531 
z
" transform="scale(0.015625)"/>
       </defs>
       <use xlink:href="#DejaVuSans-32"/>
       <use xlink:href="#DejaVuSans-30" x="63.623047"/>
       <use xlink:href="#DejaVuSans-31" x="127.246094"/>
       <use xlink:href="#DejaVuSans-30" x="190.869141"/>
      </g>
     </g>
    </g>
    <g id="xtick_2">
     <g id="line2d_2">
      <g>
       <use xlink:href="#mdb73ca2e59" x="253.855562" y="327.558125" style="stroke: #000000; stroke-width: 0.8"/>
      </g>
     </g>
     <g id="text_2">
      <!-- 2011 -->
      <g transform="translate(241.130562 342.156563) scale(0.1 -0.1)">
       <use xlink:href="#DejaVuSans-32"/>
       <use xlink:href="#DejaVuSans-30" x="63.623047"/>
       <use xlink:href="#DejaVuSans-31" x="127.246094"/>
       <use xlink:href="#DejaVuSans-31" x="190.869141"/>
      </g>
     </g>
    </g>
    <g id="xtick_3">
     <g id="line2d_3">
      <g>
       <use xlink:href="#mdb73ca2e59" x="367.220975" y="327.558125" style="stroke: #000000; stroke-width: 0.8"/>
      </g>
     </g>
     <g id="text_3">
      <!-- 2012 -->
      <g transform="translate(354.495975 342.156563) scale(0.1 -0.1)">
       <use xlink:href="#DejaVuSans-32"/>
       <use xlink:href="#DejaVuSans-30" x="63.623047"/>
       <use xlink:href="#DejaVuSans-31" x="127.246094"/>
       <use xlink:href="#DejaVuSans-32" x="190.869141"/>
      </g>
     </g>
    </g>
    <g id="xtick_4">
     <g id="line2d_4">
      <g>
       <use xlink:href="#mdb73ca2e59" x="480.896979" y="327.558125" style="stroke: #000000; stroke-width: 0.8"/>
      </g>
     </g>
     <g id="text_4">
      <!-- 2013 -->
      <g transform="translate(468.171979 342.156563) scale(0.1 -0.1)">
       <defs>
        <path id="DejaVuSans-33" d="M 2597 2516 
Q 3050 2419 3304 2112 
Q 3559 1806 3559 1356 
Q 3559 666 3084 287 
Q 2609 -91 1734 -91 
Q 1441 -91 1130 -33 
Q 819 25 488 141 
L 488 750 
Q 750 597 1062 519 
Q 1375 441 1716 441 
Q 2309 441 2620 675 
Q 2931 909 2931 1356 
Q 2931 1769 2642 2001 
Q 2353 2234 1838 2234 
L 1294 2234 
L 1294 2753 
L 1863 2753 
Q 2328 2753 2575 2939 
Q 2822 3125 2822 3475 
Q 2822 3834 2567 4026 
Q 2313 4219 1838 4219 
Q 1578 4219 1281 4162 
Q 984 4106 628 3988 
L 628 4550 
Q 988 4650 1302 4700 
Q 1616 4750 1894 4750 
Q 2613 4750 3031 4423 
Q 3450 4097 3450 3541 
Q 3450 3153 3228 2886 
Q 3006 2619 2597 2516 
z
" transform="scale(0.015625)"/>
       </defs>
       <use xlink:href="#DejaVuSans-32"/>
       <use xlink:href="#DejaVuSans-30" x="63.623047"/>
       <use xlink:href="#DejaVuSans-31" x="127.246094"/>
       <use xlink:href="#DejaVuSans-33" x="190.869141"/>
      </g>
     </g>
    </g>
    <g id="xtick_5">
     <g id="line2d_5">
      <g>
       <use xlink:href="#mdb73ca2e59" x="594.262392" y="327.558125" style="stroke: #000000; stroke-width: 0.8"/>
      </g>
     </g>
     <g id="text_5">
      <!-- 2014 -->
      <g transform="translate(581.537392 342.156563) scale(0.1 -0.1)">
       <defs>
        <path id="DejaVuSans-34" d="M 2419 4116 
L 825 1625 
L 2419 1625 
L 2419 4116 
z
M 2253 4666 
L 3047 4666 
L 3047 1625 
L 3713 1625 
L 3713 1100 
L 3047 1100 
L 3047 0 
L 2419 0 
L 2419 1100 
L 313 1100 
L 313 1709 
L 2253 4666 
z
" transform="scale(0.015625)"/>
       </defs>
       <use xlink:href="#DejaVuSans-32"/>
       <use xlink:href="#DejaVuSans-30" x="63.623047"/>
       <use xlink:href="#DejaVuSans-31" x="127.246094"/>
       <use xlink:href="#DejaVuSans-34" x="190.869141"/>
      </g>
     </g>
    </g>
   </g>
   <g id="matplotlib.axis_2">
    <g id="ytick_1">
     <g id="line2d_6">
      <defs>
       <path id="m6f94817089" d="M 0 0 
L -3.5 0 
" style="stroke: #000000; stroke-width: 0.8"/>
      </defs>
      <g>
       <use xlink:href="#m6f94817089" x="46.0125" y="313.562149" style="stroke: #000000; stroke-width: 0.8"/>
      </g>
     </g>
     <g id="text_6">
      <!-- 0 -->
      <g transform="translate(32.65 317.361368) scale(0.1 -0.1)">
       <use xlink:href="#DejaVuSans-30"/>
      </g>
     </g>
    </g>
    <g id="ytick_2">
     <g id="line2d_7">
      <g>
       <use xlink:href="#m6f94817089" x="46.0125" y="249.651542" style="stroke: #000000; stroke-width: 0.8"/>
      </g>
     </g>
     <g id="text_7">
      <!-- 5000 -->
      <g transform="translate(13.5625 253.450761) scale(0.1 -0.1)">
       <defs>
        <path id="DejaVuSans-35" d="M 691 4666 
L 3169 4666 
L 3169 4134 
L 1269 4134 
L 1269 2991 
Q 1406 3038 1543 3061 
Q 1681 3084 1819 3084 
Q 2600 3084 3056 2656 
Q 3513 2228 3513 1497 
Q 3513 744 3044 326 
Q 2575 -91 1722 -91 
Q 1428 -91 1123 -41 
Q 819 9 494 109 
L 494 744 
Q 775 591 1075 516 
Q 1375 441 1709 441 
Q 2250 441 2565 725 
Q 2881 1009 2881 1497 
Q 2881 1984 2565 2268 
Q 2250 2553 1709 2553 
Q 1456 2553 1204 2497 
Q 953 2441 691 2322 
L 691 4666 
z
" transform="scale(0.015625)"/>
       </defs>
       <use xlink:href="#DejaVuSans-35"/>
       <use xlink:href="#DejaVuSans-30" x="63.623047"/>
       <use xlink:href="#DejaVuSans-30" x="127.246094"/>
       <use xlink:href="#DejaVuSans-30" x="190.869141"/>
      </g>
     </g>
    </g>
    <g id="ytick_3">
     <g id="line2d_8">
      <g>
       <use xlink:href="#m6f94817089" x="46.0125" y="185.740935" style="stroke: #000000; stroke-width: 0.8"/>
      </g>
     </g>
     <g id="text_8">
      <!-- 10000 -->
      <g transform="translate(7.2 189.540154) scale(0.1 -0.1)">
       <use xlink:href="#DejaVuSans-31"/>
       <use xlink:href="#DejaVuSans-30" x="63.623047"/>
       <use xlink:href="#DejaVuSans-30" x="127.246094"/>
       <use xlink:href="#DejaVuSans-30" x="190.869141"/>
       <use xlink:href="#DejaVuSans-30" x="254.492188"/>
      </g>
     </g>
    </g>
    <g id="ytick_4">
     <g id="line2d_9">
      <g>
       <use xlink:href="#m6f94817089" x="46.0125" y="121.830328" style="stroke: #000000; stroke-width: 0.8"/>
      </g>
     </g>
     <g id="text_9">
      <!-- 15000 -->
      <g transform="translate(7.2 125.629546) scale(0.1 -0.1)">
       <use xlink:href="#DejaVuSans-31"/>
       <use xlink:href="#DejaVuSans-35" x="63.623047"/>
       <use xlink:href="#DejaVuSans-30" x="127.246094"/>
       <use xlink:href="#DejaVuSans-30" x="190.869141"/>
       <use xlink:href="#DejaVuSans-30" x="254.492188"/>
      </g>
     </g>
    </g>
    <g id="ytick_5">
     <g id="line2d_10">
      <g>
       <use xlink:href="#m6f94817089" x="46.0125" y="57.91972" style="stroke: #000000; stroke-width: 0.8"/>
      </g>
     </g>
     <g id="text_10">
      <!-- 20000 -->
      <g transform="translate(7.2 61.718939) scale(0.1 -0.1)">
       <use xlink:href="#DejaVuSans-32"/>
       <use xlink:href="#DejaVuSans-30" x="63.623047"/>
       <use xlink:href="#DejaVuSans-30" x="127.246094"/>
       <use xlink:href="#DejaVuSans-30" x="190.869141"/>
       <use xlink:href="#DejaVuSans-30" x="254.492188"/>
      </g>
     </g>
    </g>
   </g>
   <g id="line2d_11">
    <path d="M 76.003864 313.245153 
L 78.12623 313.348688 
L 78.294466 313.324402 
L 80.9086 313.431772 
L 81.11566 313.431772 
L 85.308628 313.360192 
L 85.463923 313.082181 
L 85.476864 313.126918 
L 85.632159 313.277108 
L 85.709807 313.216393 
L 85.761572 313.078985 
L 85.826278 313.171656 
L 86.279222 313.371696 
L 87.042756 313.293086 
L 87.172169 312.580482 
L 87.223934 312.71789 
L 87.832173 313.320567 
L 87.845114 313.309063 
L 87.974527 313.356357 
L 88.181587 313.398538 
L 88.479236 313.104549 
L 88.569824 312.759432 
L 88.634531 312.874471 
L 88.776885 312.983119 
L 89.009827 313.206806 
L 89.24277 313.309063 
L 89.436889 313.341019 
L 89.566301 313.379365 
L 89.812185 313.402373 
L 90.058069 313.33271 
L 90.252188 312.644393 
L 90.303953 312.513376 
L 90.342777 312.401533 
L 90.394542 312.548527 
L 90.640426 313.002292 
L 90.899251 313.194024 
L 91.171017 313.301394 
L 91.494549 313.371696 
L 91.973375 313.305229 
L 92.219259 312.455857 
L 92.245141 312.401533 
L 92.296906 312.564505 
L 92.348672 312.733868 
L 92.387495 312.494203 
L 92.400437 312.439879 
L 92.452202 312.676348 
L 92.568673 312.938382 
L 92.607497 312.900036 
L 92.633379 312.765823 
L 92.711027 312.919209 
L 92.879263 312.98951 
L 93.008676 313.040639 
L 93.202794 313.126918 
L 93.215736 313.094963 
L 93.332207 312.788192 
L 93.35809 312.83932 
L 93.383972 312.880862 
L 93.422796 312.753041 
L 93.513385 312.20341 
L 93.578091 312.391946 
L 93.707504 312.74665 
L 93.759269 312.727477 
L 93.798092 312.711499 
L 93.836916 312.791387 
L 94.121624 313.117332 
L 94.509861 313.213197 
L 94.665157 313.245153 
L 95.803987 313.340699 
L 95.816928 313.356357 
L 96.45105 313.171656 
L 96.645169 309.017466 
L 96.709875 310.554516 
L 96.891053 312.743455 
L 97.149878 313.16846 
L 97.447527 313.277108 
L 97.589881 313.309063 
L 97.68047 312.80417 
L 97.732235 313.04703 
L 97.913412 313.26177 
L 98.728711 313.187633 
L 98.780476 312.788192 
L 98.845183 313.043834 
L 99.013419 313.213197 
L 99.052243 313.232371 
L 99.091067 313.16846 
L 99.220479 313.053421 
L 99.246362 313.078985 
L 99.324009 313.085376 
L 99.33695 313.040639 
L 99.414598 312.784996 
L 99.466363 312.9256 
L 99.712247 313.16846 
L 100.281662 313.33271 
L 100.424016 313.360192 
L 100.605194 313.387034 
L 100.889901 313.417711 
L 101.808731 313.316733 
L 101.951084 313.19722 
L 101.989908 313.253461 
L 102.158145 313.265604 
L 102.326381 312.797779 
L 102.378146 312.906427 
L 102.572265 313.19722 
L 102.792266 313.293725 
L 103.374623 313.402373 
L 103.646389 313.44711 
L 103.840508 313.324402 
L 103.892273 313.421227 
L 104.073451 313.431772 
L 104.396982 313.37553 
L 104.591101 311.727276 
L 104.616983 311.295879 
L 104.68169 312.056415 
L 104.875809 313.1397 
L 105.09581 313.309063 
L 105.794638 313.402373 
L 106.325229 313.293725 
L 106.558172 313.136505 
L 106.687585 312.152281 
L 107.231117 312.992706 
L 107.619355 313.194024 
L 109.172306 313.336865 
L 111.57938 313.078985 
L 111.954676 313.293725 
L 112.498209 313.184438 
L 112.61468 312.86808 
L 112.627622 312.836125 
L 112.692328 312.95436 
L 112.951153 313.194024 
L 113.184096 313.088572 
L 113.274684 312.906427 
L 113.391156 312.286494 
L 113.468803 312.574091 
L 113.688805 312.947968 
L 114.8794 313.1397 
L 115.060578 313.091767 
L 115.824112 312.992706 
L 115.90176 312.957555 
L 115.940583 313.021466 
L 116.00529 313.098158 
L 116.018231 313.07579 
L 116.21235 305.783589 
L 116.251174 304.272104 
L 116.302939 306.416304 
L 116.471175 310.334025 
L 116.587646 310.928393 
L 116.613529 310.784594 
L 116.678235 309.368974 
L 116.83353 302.009668 
L 116.872354 303.211187 
L 117.027649 308.368773 
L 117.053532 308.311254 
L 117.105297 308.148282 
L 117.157062 308.311254 
L 117.661771 312.139499 
L 118.101773 312.784996 
L 118.282951 312.887253 
L 118.554717 313.002292 
L 118.968838 312.893644 
L 119.072368 312.759432 
L 119.124133 312.797779 
L 119.253545 312.906427 
L 119.874726 313.091767 
L 121.142969 312.983119 
L 121.350029 312.602851 
L 121.531207 307.352595 
L 121.582972 308.272908 
L 121.77709 310.292483 
L 121.932386 310.893242 
L 122.346506 312.318449 
L 122.721802 312.816952 
L 123.097099 313.034248 
L 123.614749 313.16846 
L 124.934757 313.257615 
L 125.038287 313.324402 
L 125.077111 313.301394 
L 125.232406 313.273273 
L 125.245347 313.289571 
L 125.400642 313.309063 
L 126.526532 313.210002 
L 126.772416 312.797779 
L 127.406537 313.277108 
L 128.247719 313.16846 
L 128.558309 313.136505 
L 128.713604 313.19722 
L 128.843017 313.190829 
L 129.748905 313.309063 
L 129.917141 313.324402 
L 130.163025 313.356357 
L 130.784206 313.253461 
L 130.913618 313.005488 
L 130.978324 312.385555 
L 131.004207 312.312058 
L 131.055972 312.462248 
L 131.159502 312.71789 
L 131.198326 312.628415 
L 131.288915 312.187432 
L 131.418327 309.982516 
L 131.521857 310.39474 
L 131.741859 311.583477 
L 132.608923 312.669957 
L 132.932454 312.836125 
L 133.126573 312.740259 
L 133.217162 312.104348 
L 133.424222 308.340014 
L 133.514811 309.170852 
L 133.579517 309.570293 
L 133.618341 309.2795 
L 133.644223 309.19322 
L 133.695988 309.413712 
L 134.33011 311.864684 
L 134.381875 311.941376 
L 134.394816 311.883857 
L 134.485405 309.752438 
L 134.550111 301.274696 
L 134.808937 261.95689 
L 134.84776 260.518902 
L 134.886584 263.618566 
L 135.15835 296.884037 
L 135.197174 295.318227 
L 135.455999 262.084712 
L 135.468941 262.020801 
L 135.481882 262.180578 
L 135.494823 262.180578 
L 135.598353 264.353538 
L 135.637177 263.330969 
L 135.727766 260.87041 
L 135.76659 262.564041 
L 136.219534 291.643368 
L 136.245416 289.438452 
L 136.504241 257.994433 
L 136.543065 256.300802 
L 136.581889 258.441807 
L 136.983068 297.970518 
L 137.371305 309.22198 
L 137.668954 310.433086 
L 138.225428 310.867678 
L 138.264252 309.177243 
L 138.484254 283.111301 
L 138.536019 288.096329 
L 138.730137 307.333422 
L 139.338377 310.286092 
L 139.454848 310.075187 
L 140.076028 310.573689 
L 140.140734 310.167857 
L 140.218382 307.049019 
L 140.373677 298.098339 
L 140.425442 300.431076 
L 140.632502 307.838315 
L 140.81368 308.758628 
L 141.046622 309.563902 
L 141.292506 310.03684 
L 141.784274 310.573689 
L 142.599573 310.861287 
L 142.716045 310.743053 
L 142.76781 310.803768 
L 142.910164 310.893242 
L 143.207812 311.148885 
L 143.38899 311.692125 
L 143.557226 312.222583 
L 143.725463 312.292885 
L 144.01017 312.864885 
L 144.294878 312.938382 
L 145.485474 312.848907 
L 145.640769 311.992505 
L 145.679593 311.813555 
L 145.744299 311.966941 
L 146.093713 312.679544 
L 146.701952 312.83932 
L 146.714893 312.74665 
L 146.740776 312.388751 
L 146.792541 302.751031 
L 146.999601 275.09052 
L 147.038425 279.532307 
L 147.167837 305.716483 
L 147.232543 304.856886 
L 147.361956 303.569087 
L 147.387839 303.748037 
L 147.543134 307.167254 
L 147.776076 309.739656 
L 147.944313 310.09436 
L 148.047843 310.538539 
L 148.280785 311.353399 
L 148.604317 311.858293 
L 149.044319 312.312058 
L 149.367851 312.414315 
L 149.432557 312.433488 
L 149.445498 312.366382 
L 149.549028 310.762226 
L 149.678441 304.233757 
L 149.743147 306.218182 
L 149.911384 308.340014 
L 149.989031 308.493399 
L 150.221974 310.014472 
L 150.49374 311.174449 
L 150.843154 311.749645 
L 151.011391 311.947767 
L 151.153744 312.02446 
L 151.166686 312.011678 
L 151.218451 311.53874 
L 151.283157 307.972528 
L 151.632571 250.580802 
L 151.697277 254.798902 
L 152.007867 288.256105 
L 152.150221 295.669736 
L 152.396105 308.100349 
L 152.667871 310.087969 
L 152.680813 310.097555 
L 152.706695 309.992103 
L 152.784343 309.039835 
L 152.900814 306.467433 
L 152.96552 307.240751 
L 153.198463 309.321041 
L 153.444347 310.21579 
L 153.573759 310.605645 
L 153.625525 310.586472 
L 153.716113 310.263723 
L 153.974938 307.966137 
L 154.039645 308.282494 
L 154.29847 309.704505 
L 154.389059 309.825935 
L 154.492589 310.011276 
L 154.531413 309.873868 
L 154.60906 308.809757 
L 154.71259 306.902025 
L 154.777296 307.362181 
L 155.074945 309.362583 
L 155.527889 310.963544 
L 155.877303 311.545131 
L 156.550249 312.056415 
L 156.705544 311.982918 
L 156.77025 308.82893 
L 157.016134 268.060353 
L 157.054958 271.703258 
L 157.326724 306.972327 
L 157.546725 309.4936 
L 157.870257 310.963544 
L 158.232612 311.462047 
L 158.284377 311.391745 
L 158.400848 311.033846 
L 158.504378 310.75903 
L 158.530261 310.813354 
L 158.853792 311.494002 
L 159.060853 311.679343 
L 159.1385 310.928393 
L 159.216148 305.8475 
L 159.397325 285.859458 
L 159.462032 287.872642 
L 159.772622 300.399121 
L 159.876152 302.274897 
L 160.212624 309.145287 
L 160.510273 310.570494 
L 160.846746 311.289488 
L 161.118512 311.596259 
L 161.247925 311.698516 
L 161.442044 311.800773 
L 161.674987 311.704907 
L 161.869105 311.225578 
L 161.92087 311.251142 
L 162.373814 311.704907 
L 162.554992 311.877466 
L 163.35735 312.337622 
L 163.810294 312.44627 
L 163.862059 312.465443 
L 163.913824 312.401533 
L 164.030295 312.50379 
L 164.172649 312.53255 
L 164.483239 312.5677 
L 165.065596 312.471834 
L 165.246774 312.337622 
L 165.350304 312.228974 
L 165.389127 312.222583 
L 165.427951 312.286494 
L 165.647952 312.414315 
L 166.204427 312.5677 
L 166.489134 312.471834 
L 166.696194 311.941376 
L 166.747959 312.075589 
L 167.032667 312.401533 
L 167.692671 312.606047 
L 168.080909 312.711499 
L 168.313851 312.74665 
L 169.310328 312.657175 
L 169.4268 312.366382 
L 169.478565 311.880661 
L 169.543271 312.152281 
L 169.815037 312.542136 
L 170.513865 312.791387 
L 170.617395 312.797779 
L 170.682102 312.832929 
L 170.720925 312.772214 
L 170.798573 312.455857 
L 170.850338 312.209801 
L 170.927985 312.340818 
L 171.303282 312.778605 
L 171.717402 312.861689 
L 171.89858 312.887253 
L 172.040934 312.874471 
L 173.166823 312.983119 
L 173.451531 313.002292 
L 175.768016 312.906427 
L 175.897428 312.842516 
L 176.078606 312.912818 
L 176.311548 313.015075 
L 176.53155 313.078985 
L 178.136266 312.970337 
L 178.27862 312.714695 
L 178.48568 311.800773 
L 178.511562 311.87427 
L 178.822152 312.823343 
L 178.977447 312.9256 
L 179.223331 313.027857 
L 179.236273 313.021466 
L 179.262155 312.864885 
L 179.339803 313.031052 
L 179.650393 313.130114 
L 180.582163 313.238762 
L 180.840988 313.245153 
L 182.342174 313.181242 
L 182.484528 312.564505 
L 182.665706 312.350404 
L 182.885707 312.286494 
L 182.91159 312.391946 
L 183.144532 312.836125 
L 183.286886 312.938382 
L 183.713948 313.117332 
L 185.008073 313.219589 
L 185.137486 313.194024 
L 187.661031 313.120527 
L 187.699855 312.826538 
L 187.777502 313.059812 
L 187.971621 313.181242 
L 188.152799 313.142896 
L 188.204564 312.542136 
L 188.282211 312.852103 
L 188.450448 313.078985 
L 188.515154 312.995901 
L 188.68339 312.158672 
L 188.761038 311.097756 
L 188.825744 311.672952 
L 188.955157 312.280103 
L 188.968098 312.193823 
L 189.032804 311.200013 
L 189.110452 311.430092 
L 189.537513 312.826538 
L 190.081046 313.091767 
L 190.093987 313.059812 
L 190.184576 313.120527 
L 190.43046 313.16846 
L 192.099882 313.152482 
L 192.255177 311.18084 
L 192.319884 311.954159 
L 192.462237 312.740259 
L 192.48812 312.676348 
L 192.552826 311.839119 
L 192.630474 312.459052 
L 192.682239 312.692326 
L 192.863416 312.98951 
L 193.238713 313.091767 
L 193.394008 313.16846 
L 195.788141 313.277108 
L 196.008142 313.273273 
L 196.046966 313.130114 
L 196.124613 313.178047 
L 196.668146 313.200415 
L 196.719911 313.040639 
L 196.758735 312.471834 
L 196.823441 309.158069 
L 196.888147 310.097555 
L 197.082266 312.299276 
L 197.263444 312.542136 
L 197.690505 312.983119 
L 198.169332 313.16846 
L 198.208156 312.919209 
L 198.298744 312.963946 
L 198.479922 313.091767 
L 198.751688 313.005488 
L 198.790512 312.95436 
L 198.86816 313.002292 
L 199.243456 313.110941 
L 199.657576 313.194024 
L 199.735224 313.085376 
L 199.761107 313.053421 
L 199.825813 313.142896 
L 199.90346 313.16846 
L 199.929343 313.123723 
L 200.00699 312.50379 
L 200.058755 312.318449 
L 200.11052 312.510181 
L 200.330522 312.963946 
L 201.275234 313.309063 
L 201.883473 313.213197 
L 201.999944 312.631611 
L 202.051709 312.762628 
L 202.129357 312.951164 
L 202.194063 312.887253 
L 202.232887 312.737063 
L 202.465829 311.30227 
L 202.478771 311.353399 
L 202.776419 312.855298 
L 203.837603 313.26177 
L 204.497607 313.16846 
L 204.639961 312.784996 
L 204.769373 312.861689 
L 204.950551 313.120527 
L 205.079963 313.162069 
L 205.092905 313.091767 
L 205.274082 312.340818 
L 205.338788 311.775209 
L 205.390553 311.998896 
L 205.636437 312.791387 
L 205.843497 313.040639 
L 206.011734 313.142896 
L 206.17997 313.206806 
L 206.710562 313.312898 
L 206.839974 313.309063 
L 206.852916 313.293725 
L 207.939981 313.247709 
L 208.004687 311.730471 
L 208.095276 312.478225 
L 208.276454 313.040639 
L 208.354101 313.021466 
L 208.367043 312.999097 
L 208.457631 312.80417 
L 208.522338 312.906427 
L 208.729398 313.078985 
L 208.85881 313.043834 
L 208.884693 313.002292 
L 208.949399 313.098158 
L 209.039988 313.1397 
L 209.052929 313.126918 
L 209.117636 312.784996 
L 209.182342 312.877667 
L 209.221166 312.938382 
L 209.247048 312.842516 
L 209.324696 312.20341 
L 209.389402 312.455857 
L 209.467049 312.682739 
L 209.505873 312.519767 
L 209.518815 312.50379 
L 209.544697 312.583678 
L 209.738816 312.999097 
L 209.997641 313.142896 
L 210.101171 313.117332 
L 210.114112 313.078985 
L 210.29529 311.18084 
L 210.334114 309.800371 
L 210.411761 310.401131 
L 210.618821 312.526158 
L 210.787058 312.874471 
L 210.799999 312.781801 
L 210.877647 306.023254 
L 210.968235 309.787589 
L 211.136472 311.954159 
L 211.291767 312.184237 
L 211.550592 312.663566 
L 211.705887 309.717287 
L 211.783535 310.720684 
L 211.951771 311.513175 
L 212.210596 312.44627 
L 212.236479 312.375969 
L 212.275302 311.947767 
L 212.340009 305.550316 
L 212.469421 307.921399 
L 212.676481 310.915611 
L 212.987071 312.273712 
L 213.18119 312.5677 
L 213.194132 312.516572 
L 213.323544 309.001488 
L 213.401192 303.824729 
L 213.452957 305.416103 
L 213.660017 310.554516 
L 213.918842 312.018069 
L 214.345903 312.788192 
L 214.811789 313.002292 
L 214.954143 312.89684 
L 215.057673 312.120326 
L 215.212968 306.825332 
L 215.394145 275.09052 
L 215.407087 275.442029 
L 215.471793 284.932754 
L 215.65297 308.665958 
L 215.937678 311.193622 
L 216.274151 312.241756 
L 216.610623 312.669957 
L 216.947096 312.864885 
L 217.309451 312.995901 
L 217.684748 313.088572 
L 217.81416 313.053421 
L 218.344752 312.947968 
L 218.409458 312.960751 
L 218.435341 313.008684 
L 218.616518 313.078985 
L 219.729466 313.184438 
L 219.884762 313.16846 
L 220.014174 313.194024 
L 220.363588 313.245153 
L 224.427143 313.348688 
L 224.595379 313.324402 
L 226.536568 313.431772 
L 226.691863 313.435606 
L 226.834217 313.439441 
L 226.989512 313.458614 
L 227.002453 313.443276 
L 227.080101 313.371696 
L 227.131866 313.428257 
L 227.313043 313.476509 
L 227.494221 313.462449 
L 228.995407 313.3832 
L 229.073054 313.235566 
L 229.13776 313.316733 
L 229.383644 313.402373 
L 231.454246 313.293725 
L 231.648364 313.293725 
L 234.314263 313.398538 
L 234.430735 313.356357 
L 234.560147 313.406208 
L 234.806031 313.476509 
L 235.41427 313.371696 
L 235.72486 313.091767 
L 235.789567 312.98951 
L 235.841332 313.037443 
L 236.190746 313.171656 
L 236.346041 313.149287 
L 236.358982 313.174851 
L 236.617807 313.402373 
L 236.760161 313.387034 
L 236.928397 313.417711 
L 237.187222 313.387034 
L 237.3684 313.402373 
L 237.510754 313.402373 
L 239.309589 313.293725 
L 239.646061 312.714695 
L 239.697826 312.350404 
L 239.762533 312.535745 
L 240.021358 312.919209 
L 240.267242 313.088572 
L 241.677839 313.324402 
L 241.988429 313.312578 
L 242.143724 312.970337 
L 242.182548 312.95436 
L 242.221372 313.021466 
L 242.493138 313.181242 
L 242.803728 313.107745 
L 242.959023 312.50379 
L 242.984906 312.529354 
L 243.023729 312.535745 
L 243.049612 312.439879 
L 243.075495 312.401533 
L 243.12726 312.516572 
L 243.43785 313.091767 
L 243.74844 313.194024 
L 243.916676 313.181242 
L 244.046089 313.133309 
L 244.227266 312.705108 
L 244.317855 312.08198 
L 244.408444 312.427097 
L 244.602563 312.570896 
L 245.107272 313.027857 
L 245.560216 313.136505 
L 245.819041 313.16846 
L 245.961395 313.117332 
L 246.103749 313.206806 
L 246.259044 313.273273 
L 246.401398 313.293725 
L 247.682582 313.184438 
L 247.824936 313.117332 
L 247.915525 313.024661 
L 247.96729 312.823343 
L 248.044937 312.919209 
L 248.264939 313.123723 
L 248.717883 313.245153 
L 248.743765 313.027857 
L 248.821413 311.353399 
L 248.89906 311.366181 
L 248.950825 311.340617 
L 251.668489 313.356357 
L 253.260264 313.309063 
L 253.363794 312.165064 
L 253.480265 308.624416 
L 253.506148 308.004483 
L 253.557913 309.321041 
L 253.73909 311.813555 
L 253.920268 312.235365 
L 253.933209 312.20341 
L 254.114387 310.835723 
L 254.204976 309.484014 
L 254.256741 309.966539 
L 254.463801 311.270315 
L 254.65792 311.564304 
L 255.201453 311.794382 
L 255.395571 310.369175 
L 255.473219 310.628013 
L 255.79675 311.615432 
L 256.599108 311.966941 
L 256.61205 311.915812 
L 256.844992 309.241153 
L 256.92264 310.129511 
L 257.23323 312.497399 
L 257.453231 312.784996 
L 258.139118 313.002292 
L 258.825005 313.098158 
L 258.9803 313.130114 
L 259.420302 313.069399 
L 259.653245 311.756036 
L 259.730893 312.216192 
L 259.963835 312.810561 
L 260.300308 313.050225 
L 261.309726 313.194024 
L 261.374432 313.043834 
L 261.477962 312.152281 
L 261.672081 309.167656 
L 261.710905 309.407321 
L 262.034436 312.26732 
L 262.293261 312.714695 
L 263.225032 313.053421 
L 263.794447 312.944773 
L 263.988566 312.241756 
L 264.053272 312.462248 
L 264.247391 312.861689 
L 264.532099 313.027857 
L 264.54504 313.002292 
L 264.64857 312.83932 
L 264.7521 312.248147 
L 264.85563 311.110538 
L 264.946219 311.347008 
L 265.166221 312.248147 
L 265.230927 312.094762 
L 265.425046 311.947767 
L 265.696812 312.152281 
L 266.059167 312.44627 
L 266.253286 312.5677 
L 266.266227 312.554918 
L 266.382699 312.44627 
L 266.49917 311.883857 
L 266.550935 311.717689 
L 266.6027 311.839119 
L 266.887408 312.248147 
L 268.24624 312.797779 
L 268.893303 312.903231 
L 269.07448 312.900036 
L 270.730961 313.002292 
L 270.860374 313.027857 
L 271.054493 312.963946 
L 271.209788 312.963946 
L 271.274494 312.877667 
L 271.378024 312.836125 
L 271.390965 312.861689 
L 271.636849 312.963946 
L 271.779203 313.002292 
L 272.762739 313.104549 
L 272.943916 313.130114 
L 273.39686 313.031052 
L 273.487449 312.685935 
L 273.668627 310.663164 
L 273.733333 306.016863 
L 273.91451 276.975883 
L 273.940393 278.062364 
L 274.199218 306.639992 
L 274.62628 310.532148 
L 274.652162 305.166852 
L 274.807457 273.269068 
L 275.130989 242.655887 
L 275.169812 245.08449 
L 275.726287 304.157064 
L 275.907464 308.704304 
L 276.218054 310.618427 
L 276.476879 311.327835 
L 276.502762 311.315052 
L 276.554527 311.391745 
L 276.645116 311.391745 
L 276.658057 311.366181 
L 276.722763 311.212795 
L 276.774528 311.212795 
L 276.800411 311.270315 
L 277.30512 312.030851 
L 277.771005 312.337622 
L 278.728658 312.68913 
L 278.909836 312.721086 
L 279.091013 312.74665 
L 279.336897 312.791387 
L 279.67337 312.842516 
L 279.854548 312.871276 
L 280.579258 312.938382 
L 281.329851 312.848907 
L 281.433381 312.072393 
L 281.549852 310.193421 
L 281.601617 310.621622 
L 281.83456 312.165064 
L 282.158091 312.561309 
L 282.611035 312.759432 
L 282.895743 312.864885 
L 283.038097 312.861689 
L 283.167509 312.74665 
L 283.361628 312.340818 
L 283.452217 312.50379 
L 283.801631 312.836125 
L 284.5134 312.941577 
L 284.746343 312.938382 
L 285.962821 313.040639 
L 286.15694 313.053421 
L 286.713414 312.944773 
L 286.752238 312.912818 
L 286.816944 312.970337 
L 286.920474 312.98951 
L 286.946357 312.963946 
L 287.101652 312.976728 
L 287.321653 313.040639 
L 289.236959 313.142896 
L 289.431078 313.181242 
L 289.728727 313.082181 
L 289.987552 312.62522 
L 290.013434 312.657175 
L 290.362848 313.305229 
L 291.178148 313.431772 
L 292.096977 313.324402 
L 292.32992 313.206806 
L 293.002865 313.417711 
L 296.509946 313.519968 
L 296.639358 313.502073 
L 296.781712 313.519968 
L 302.695867 313.629895 
L 302.83822 313.629895 
L 303.006457 313.523483 
L 303.239399 313.360192 
L 303.278223 313.424742 
L 303.498225 313.548089 
L 303.912345 313.44711 
L 303.951169 313.387034 
L 304.015875 313.476509 
L 304.145287 313.472994 
L 304.417054 313.394704 
L 304.533525 313.435606 
L 304.546466 313.405568 
L 304.624114 309.432885 
L 304.701761 311.532349 
L 304.869998 312.906427 
L 305.051175 313.082181 
L 305.607649 313.356357 
L 306.707656 313.462449 
L 306.888834 313.472994 
L 307.082953 313.49057 
L 307.238248 313.443595 
L 307.36766 313.285416 
L 307.406484 313.142896 
L 307.47119 310.27331 
L 307.574721 311.839119 
L 307.717074 312.171455 
L 307.781781 312.257734 
L 308.157077 312.963946 
L 308.441785 313.190829 
L 309.658263 313.413877 
L 309.722969 313.249307 
L 309.787676 313.341019 
L 309.981794 313.417711 
L 310.162972 313.462449 
L 310.305326 313.462449 
L 314.084173 313.367861 
L 314.317116 312.98951 
L 314.355939 313.040639 
L 314.537117 312.938382 
L 314.705353 312.711499 
L 314.718295 312.753041 
L 314.860648 313.053421 
L 314.886531 313.024661 
L 315.028885 312.030851 
L 315.145356 306.524952 
L 315.18418 307.528349 
L 315.378299 312.155477 
L 315.417122 312.248147 
L 315.455946 312.094762 
L 315.481829 311.992505 
L 315.546535 312.184237 
L 315.637124 312.379164 
L 315.818301 312.86808 
L 315.831243 312.861689 
L 315.960655 312.960751 
L 316.180657 313.194024 
L 316.827719 313.44711 
L 316.853602 313.305229 
L 316.93125 313.450945 
L 317.125368 313.476509 
L 317.319487 313.374572 
L 317.384194 309.800371 
L 317.474782 311.168058 
L 317.487724 311.174449 
L 317.500665 311.129712 
L 317.617136 310.465041 
L 317.668901 310.733466 
L 318.031256 312.663566 
L 318.108904 312.784996 
L 318.17361 312.701913 
L 318.58773 312.98951 
L 318.600672 312.970337 
L 318.807732 312.970337 
L 318.911262 313.072594 
L 318.963027 313.021466 
L 319.092439 312.912818 
L 319.118322 312.938382 
L 319.635972 313.293725 
L 319.881856 313.281262 
L 319.933621 313.235566 
L 319.985386 313.309063 
L 320.140681 313.367861 
L 320.153623 313.348688 
L 320.360683 313.059812 
L 320.399506 313.104549 
L 320.787744 313.33271 
L 321.163041 313.44711 
L 322.224224 313.555119 
L 322.508931 313.59027 
L 326.443074 313.515814 
L 326.494839 313.082181 
L 326.559545 313.352523 
L 326.740723 313.562149 
L 327.12896 313.465005 
L 327.141901 313.439441 
L 327.219549 313.512938 
L 327.581904 313.59027 
L 330.131332 313.480024 
L 330.299568 312.9256 
L 330.51957 310.842114 
L 330.610158 308.039634 
L 330.868984 283.334989 
L 330.959572 285.923368 
L 331.321928 308.691522 
L 331.593694 311.545131 
L 331.930167 312.657175 
L 332.331346 313.053421 
L 332.486641 313.149287 
L 332.641936 313.194024 
L 333.120762 313.293725 
L 333.276057 313.320567 
L 333.418411 313.324402 
L 333.586648 313.341019 
L 334.596066 313.44711 
L 334.738419 313.462449 
L 334.906656 313.431772 
L 335.100775 313.431772 
L 335.294894 313.371696 
L 337.2102 313.480024 
L 337.378436 313.476509 
L 337.986675 313.443276 
L 338.077264 312.826538 
L 338.129029 313.078985 
L 338.167853 313.133309 
L 338.219618 313.040639 
L 338.232559 313.040639 
L 338.336089 313.136505 
L 338.569032 313.371696 
L 339.009034 313.479066 
L 339.164329 313.479066 
L 339.293742 313.491848 
L 339.449037 313.505908 
L 351.10911 313.436885 
L 351.186757 313.078985 
L 351.277346 313.22598 
L 351.497348 313.405249 
L 352.390294 313.532751 
L 353.024416 313.465005 
L 353.153829 312.046829 
L 353.218535 309.436081 
L 353.283241 310.599254 
L 353.47736 312.577287 
L 353.749126 313.104549 
L 354.189129 313.394704 
L 355.082076 313.310022 
L 355.32796 311.986114 
L 355.405607 312.347209 
L 355.664432 313.072594 
L 355.936199 313.283499 
L 356.272672 313.354759 
L 356.389143 313.250266 
L 356.544438 312.420706 
L 356.609144 310.707902 
L 356.686792 311.519566 
L 356.867969 312.407924 
L 357.28209 313.066203 
L 357.631504 313.260491 
L 358.31739 313.365305 
L 358.498568 313.380643 
L 359.236219 313.271995 
L 359.572692 313.194024 
L 360.827994 313.394704 
L 361.203291 313.405249 
L 361.643293 313.415794 
L 361.876236 313.408764 
L 363.86919 313.318011 
L 363.959778 312.995901 
L 364.011543 312.331231 
L 364.089191 312.491008 
L 364.360957 313.066203 
L 364.425664 312.922404 
L 364.503311 312.292885 
L 364.5939 312.443075 
L 364.826843 313.011879 
L 365.253904 313.194024 
L 365.357434 313.104549 
L 365.499788 312.529354 
L 365.52567 312.292885 
L 365.564494 306.850897 
L 365.797437 270.488957 
L 365.862143 265.503929 
L 365.913908 267.421247 
L 366.65156 309.631008 
L 366.910385 311.263924 
L 367.195093 312.101153 
L 367.596272 312.657175 
L 367.751567 312.759432 
L 367.971568 312.900036 
L 368.126863 313.005488 
L 368.385688 313.066203 
L 369.770403 313.16846 
L 369.796285 311.171254 
L 369.860992 305.342606 
L 369.912757 307.013869 
L 370.106876 311.378963 
L 370.132758 311.439678 
L 370.145699 311.231969 
L 370.236288 302.262115 
L 370.417466 286.626385 
L 370.469231 285.891413 
L 370.508054 286.913983 
L 370.857468 301.926584 
L 371.181 310.145488 
L 371.452766 311.53874 
L 371.80218 312.312058 
L 372.436302 312.788192 
L 372.513949 312.059611 
L 372.539832 309.183634 
L 372.746892 268.76337 
L 372.798657 262.372309 
L 372.850422 267.357337 
L 373.148071 303.454048 
L 373.34219 307.994896 
L 373.782193 310.672751 
L 374.144548 311.634605 
L 374.17043 311.609041 
L 374.209254 311.08817 
L 374.299843 306.061601 
L 374.403373 297.906607 
L 374.442197 299.31264 
L 374.649257 307.975723 
L 374.933964 310.449064 
L 375.050436 310.893242 
L 375.063377 310.781399 
L 375.115142 306.007277 
L 375.386908 241.825049 
L 375.425732 245.62773 
L 375.697499 285.507949 
L 375.891617 293.305043 
L 376.189266 308.611634 
L 376.422209 310.433086 
L 376.849271 311.615432 
L 376.991624 311.7816 
L 377.017507 311.666561 
L 377.056331 311.57389 
L 377.095154 311.11693 
L 377.146919 306.422695 
L 377.341038 291.739233 
L 377.379862 292.44225 
L 377.548098 295.893423 
L 377.56104 295.861468 
L 377.586922 295.733646 
L 377.625746 295.893423 
L 377.716335 297.20359 
L 378.130455 308.717086 
L 378.156338 308.602047 
L 378.233985 303.53074 
L 378.272809 302.80216 
L 378.311633 303.88864 
L 378.531634 308.196215 
L 378.8034 310.218986 
L 379.088108 311.212795 
L 381.896361 280.970296 
L 382.142245 300.111523 
L 382.323422 305.8475 
L 382.362246 302.958741 
L 382.646954 239.108848 
L 382.672836 242.144602 
L 383.086957 289.023033 
L 383.565783 309.282695 
L 383.902256 310.78779 
L 384.057551 311.155276 
L 384.368141 311.634605 
L 384.445789 311.775209 
L 384.717555 312.184237 
L 384.821085 312.248147 
L 385.002263 312.363186 
L 385.455207 312.471834 
L 385.558737 312.491008 
L 385.571678 312.452661 
L 385.649325 311.992505 
L 385.714032 312.133108 
L 385.830503 312.14589 
L 385.972857 312.158672 
L 386.270506 312.088371 
L 386.503448 311.206404 
L 386.594037 310.957153 
L 386.632861 310.129511 
L 386.775215 292.953535 
L 386.839921 297.906607 
L 386.995216 306.687924 
L 387.706985 311.487611 
L 388.082282 312.133108 
L 388.185812 312.235365 
L 388.315224 312.299276 
L 388.328166 312.26732 
L 388.405813 312.018069 
L 388.457578 312.088371 
L 388.47052 312.101153 
L 388.483461 312.014874 
L 388.535226 310.573689 
L 388.638756 302.236551 
L 388.716403 298.162249 
L 388.768168 299.79197 
L 388.923464 304.540528 
L 388.936405 304.527746 
L 389.014052 304.451053 
L 389.039935 304.527746 
L 389.104641 305.211589 
L 389.389349 309.499991 
L 389.428173 309.436081 
L 389.531703 308.832125 
L 389.596409 308.208997 
L 389.648174 308.602047 
L 389.894058 310.401131 
L 390.256413 311.442874 
L 391.019947 312.375969 
L 391.188184 312.478225 
L 391.524656 312.657175 
L 391.615245 312.65398 
L 391.641128 312.439879 
L 391.718775 312.682739 
L 392.236425 312.820147 
L 392.275249 312.730672 
L 392.417603 310.167857 
L 392.676428 289.278675 
L 392.754076 287.68091 
L 392.792899 288.256105 
L 392.99996 295.09454 
L 393.064666 294.966719 
L 393.10349 295.062585 
L 393.168196 296.11711 
L 393.297608 303.684126 
L 393.478786 309.110136 
L 393.72467 310.918807 
L 394.13879 312.030851 
L 394.578793 312.491008 
L 394.954089 312.657175 
L 395.096443 312.631611 
L 395.523505 312.733868 
L 395.769389 312.823343 
L 396.067038 312.858494 
L 396.209391 312.823343 
L 396.274098 312.756237 
L 396.338804 312.107544 
L 396.40351 312.455857 
L 396.50704 312.663566 
L 396.519982 312.583678 
L 396.765865 309.215589 
L 396.804689 309.557511 
L 396.998808 310.727075 
L 397.167044 311.174449 
L 397.645871 312.439879 
L 397.995285 312.772214 
L 398.267051 312.874471 
L 398.409405 312.9256 
L 398.87529 313.027857 
L 399.043527 313.040639 
L 399.224704 313.069399 
L 399.470588 313.117332 
L 400.62236 313.015075 
L 400.72589 312.673153 
L 400.777655 312.260929 
L 400.82942 309.720483 
L 400.855303 308.502986 
L 400.920009 309.928192 
L 401.010598 311.187231 
L 401.062363 310.947566 
L 401.165893 310.484215 
L 401.204717 310.60884 
L 401.696484 312.574091 
L 401.981192 312.855298 
L 402.485901 313.098158 
L 402.615314 313.123723 
L 403.081199 313.232371 
L 406.342396 313.247709 
L 406.355337 313.117332 
L 406.420043 313.260491 
L 406.445926 313.260491 
L 407.067106 313.200415 
L 407.092989 311.513175 
L 407.157695 305.639791 
L 407.20946 309.12931 
L 407.364755 312.139499 
L 407.62358 312.797779 
L 407.972994 313.130114 
L 408.555351 313.235566 
L 408.74947 313.245153 
L 410.160067 313.354759 
L 410.328303 313.351244 
L 412.942437 313.46149 
L 413.356557 313.465005 
L 413.511852 313.412279 
L 413.524794 313.43337 
L 413.667147 313.450945 
L 413.809501 313.450945 
L 414.598918 313.383839 
L 414.650683 313.260491 
L 414.715389 313.335906 
L 414.909508 313.408764 
L 416.747167 313.51869 
L 416.88952 313.51869 
L 417.394229 313.408764 
L 417.588348 313.283499 
L 417.60129 313.298838 
L 417.769526 313.306507 
L 418.455413 313.412279 
L 418.63659 313.436885 
L 418.804826 313.43337 
L 419.089534 313.408764 
L 419.115417 313.380643 
L 419.193064 313.44743 
L 419.878951 313.51869 
L 422.557791 313.620947 
L 422.700145 313.611361 
L 422.881322 313.639481 
L 423.217795 313.669519 
L 423.761328 313.645233 
L 423.955447 313.653861 
L 424.253096 313.583879 
L 424.473097 313.645233 
L 424.744864 313.586755 
L 424.796629 312.312058 
L 424.874276 313.23301 
L 425.029571 313.443915 
L 425.262514 313.450945 
L 425.340161 313.264326 
L 425.391926 313.365624 
L 425.547221 313.465005 
L 425.560163 313.45446 
L 426.000165 313.46852 
L 426.038989 313.365305 
L 426.116637 313.450945 
L 426.375462 313.51869 
L 426.543698 313.505908 
L 426.711935 313.401414 
L 426.737817 313.187633 
L 426.828406 313.354759 
L 426.996642 313.401734 
L 427.009584 313.376809 
L 427.164879 313.321846 
L 427.307232 313.253461 
L 427.475469 312.89684 
L 427.656646 312.38236 
L 427.540175 312.951164 
L 427.708411 312.570896 
L 427.773118 312.733868 
L 427.786059 312.698717 
L 427.850765 309.742852 
L 427.876648 308.908818 
L 427.928413 310.445868 
L 428.096649 312.733868 
L 428.290768 313.130114 
L 428.549593 313.136505 
L 428.666064 313.200415 
L 429.351951 313.450945 
L 429.481364 313.27583 
L 429.507246 313.295003 
L 429.584894 313.394704 
L 429.597835 313.357635 
L 429.701365 311.247946 
L 429.791954 306.51217 
L 429.843719 307.819142 
L 429.921366 309.640595 
L 429.986073 309.225176 
L 430.037838 307.704103 
L 430.128427 303.121713 
L 430.180192 305.102941 
L 430.361369 310.771812 
L 430.671959 312.590069 
L 430.98255 313.114136 
L 431.331963 313.310342 
L 431.577847 313.380643 
L 432.315499 313.356677 
L 432.32844 313.146091 
L 432.43197 313.203611 
L 432.483735 313.298838 
L 432.509618 313.200415 
L 432.574324 312.602851 
L 432.63903 312.823343 
L 432.820208 313.181242 
L 433.079033 313.291168 
L 433.907274 313.422824 
L 435.330812 313.336225 
L 435.447283 312.880862 
L 435.499048 313.059812 
L 435.680226 313.351244 
L 436.120229 313.390549 
L 436.275524 310.321242 
L 436.34023 310.848505 
L 436.508466 312.721086 
L 436.534349 312.41751 
L 436.599055 311.615432 
L 436.65082 312.027656 
L 436.85788 312.95436 
L 437.233177 313.241957 
L 437.582591 313.321846 
L 437.724945 313.335906 
L 438.643774 313.241957 
L 438.734363 312.931991 
L 438.799069 310.279701 
L 438.889658 312.037242 
L 439.057894 312.874471 
L 439.070835 312.855298 
L 439.135542 312.32484 
L 439.187307 311.474829 
L 439.252013 311.954159 
L 439.459073 312.708304 
L 439.588486 312.900036 
L 439.614368 312.791387 
L 439.730839 310.867678 
L 439.795546 311.922203 
L 439.976723 312.877667 
L 440.196725 313.098158 
L 440.55908 313.232371 
L 440.960259 313.133309 
L 441.063789 312.733868 
L 441.115554 312.836125 
L 441.322614 313.130114 
L 441.982618 313.181242 
L 442.215561 313.07579 
L 442.319091 312.727477 
L 442.396738 310.222181 
L 442.461445 296.915993 
L 442.590857 217.411197 
L 442.707329 36.19267 
L 442.810859 81.569202 
L 443.056743 221.88494 
L 443.432039 284.00605 
L 443.781453 305.281891 
L 443.988513 307.135299 
L 444.092043 307.311053 
L 444.337927 308.071589 
L 444.36381 308.042829 
L 444.544987 307.211991 
L 444.661458 307.339813 
L 444.764988 307.426092 
L 444.933225 308.062003 
L 445.036755 308.579678 
L 445.075579 308.448662 
L 445.347345 306.764617 
L 445.373228 306.799768 
L 445.593229 307.608237 
L 445.670876 308.030047 
L 446.149703 310.369175 
L 446.447352 312.465443 
L 446.512058 312.631611 
L 446.550882 312.439879 
L 446.667353 311.966941 
L 446.706177 311.992505 
L 446.770883 312.062807 
L 447.016767 312.657175 
L 447.262651 312.765823 
L 447.625006 312.823343 
L 447.909714 312.714695 
L 448.065009 312.669957 
L 448.194422 312.583678 
L 448.414423 311.877466 
L 448.453247 310.570494 
L 448.530894 311.417309 
L 448.647366 312.043633 
L 448.673248 311.992505 
L 448.828543 310.752639 
L 448.932073 310.950762 
L 449.812079 313.040639 
L 451.533266 312.947968 
L 451.688561 312.682739 
L 451.792091 312.68913 
L 451.805032 312.663566 
L 452.050916 311.963745 
L 452.154446 303.300662 
L 452.245035 306.84131 
L 452.257976 307.001086 
L 452.283859 306.422695 
L 452.387389 303.441266 
L 452.426213 304.52455 
L 452.620332 309.707701 
L 452.81445 310.410717 
L 453.137982 310.995499 
L 453.254453 310.928393 
L 453.306218 310.6376 
L 453.370925 310.797377 
L 453.707397 311.353399 
L 453.875634 311.455656 
L 454.341519 311.762427 
L 454.509755 311.871075 
L 454.76858 312.056415 
L 454.885052 312.158672 
L 455.363878 312.769019 
L 455.545056 312.98951 
L 456.218001 313.091767 
L 456.386237 313.104549 
L 456.606239 313.130114 
L 457.874482 313.130114 
L 457.913306 312.008483 
L 457.939188 311.449265 
L 458.016836 312.161868 
L 458.133307 312.68913 
L 458.172131 312.609242 
L 458.379191 312.312058 
L 458.405074 312.337622 
L 458.806253 312.733868 
L 458.896841 312.855298 
L 459.220373 313.142896 
L 460.514499 313.252822 
L 460.7345 313.260491 
L 463.128632 313.162069 
L 463.232163 312.813756 
L 463.361575 312.900036 
L 463.905108 313.142896 
L 464.047462 313.194024 
L 464.836878 313.27583 
L 465.535706 313.178047 
L 465.67806 312.711499 
L 465.729825 312.02446 
L 465.794531 312.299276 
L 466.014533 312.900036 
L 466.441594 313.16846 
L 468.926316 313.27583 
L 469.094552 313.279665 
L 470.013381 313.171656 
L 470.466325 312.478225 
L 470.531032 312.669957 
L 470.776916 313.063008 
L 471.812216 313.206806 
L 472.67928 313.098158 
L 472.821634 312.142695 
L 472.873399 311.609041 
L 472.951047 311.672952 
L 472.976929 311.692125 
L 472.989871 311.72408 
L 473.365167 312.778605 
L 474.21929 313.117332 
L 474.296937 312.120326 
L 474.452233 307.915008 
L 474.516939 309.432885 
L 474.672234 311.161667 
L 474.685175 311.136103 
L 474.775764 310.957153 
L 474.827529 311.065801 
L 475.202825 312.133108 
L 475.306356 312.222583 
L 475.707535 312.77541 
L 476.160479 312.98951 
L 476.302832 312.59646 
L 476.38048 311.075388 
L 476.522834 307.598651 
L 476.561657 307.895835 
L 476.820483 311.18084 
L 477.131073 311.787991 
L 477.247544 311.896639 
L 477.364015 311.922203 
L 477.376957 311.896639 
L 477.493428 311.698516 
L 477.584017 311.826337 
L 478.153432 312.708304 
L 478.373434 312.772214 
L 478.878143 312.698717 
L 478.929908 312.315253 
L 478.994614 308.362382 
L 479.201674 299.632193 
L 479.240498 300.2713 
L 479.486382 305.658964 
L 479.667559 308.765019 
L 479.887561 310.752639 
L 479.900502 310.711097 
L 479.939326 307.729667 
L 480.172268 283.111301 
L 480.275798 276.880017 
L 480.314622 279.30862 
L 480.508741 289.694094 
L 480.560506 289.534317 
L 480.59933 289.78996 
L 480.676977 291.835099 
L 480.80639 303.255925 
L 480.961685 309.07179 
L 481.142863 310.190226 
L 481.168745 310.011276 
L 481.233451 308.352796 
L 481.414629 300.143478 
L 481.479335 301.517556 
L 481.686395 304.681131 
L 481.802867 306.199008 
L 482.152281 310.401131 
L 482.424047 311.225578 
L 482.540518 311.353399 
L 482.579342 311.283097 
L 482.812285 310.851701 
L 482.889932 310.985913 
L 483.355818 311.762427 
L 483.433465 311.589868 
L 483.472289 309.982516 
L 483.89935 258.729405 
L 484.00288 263.330969 
L 484.10641 270.616778 
L 484.158175 268.411862 
L 484.235823 264.033985 
L 484.287588 266.206946 
L 484.882886 304.88245 
L 484.92171 302.441065 
L 485.154652 290.269289 
L 485.167594 290.429066 
L 485.2323 291.259904 
L 485.271124 290.652753 
L 485.478184 281.385715 
L 485.620538 273.109291 
L 485.64642 273.173202 
L 485.672303 273.237113 
L 485.762891 275.665716 
L 486.099364 292.44225 
L 486.254659 300.782584 
L 486.448778 306.997891 
L 486.759368 309.487209 
L 487.238195 310.944371 
L 487.484079 311.263924 
L 487.962905 311.787991 
L 488.105259 311.890248 
L 488.364084 312.075589 
L 489.269972 312.401533 
L 489.955859 312.50379 
L 490.033506 312.500594 
L 490.292331 310.925198 
L 490.331155 311.084974 
L 490.512333 311.545131 
L 490.564098 311.462047 
L 490.654687 311.318248 
L 490.706452 311.378963 
L 491.172337 312.056415 
L 491.327632 312.158672 
L 491.884106 312.554918 
L 492.33705 312.657175 
L 492.479404 312.583678 
L 492.569993 311.800773 
L 492.64764 307.675343 
L 492.712347 305.013467 
L 492.764112 306.467433 
L 492.945289 309.717287 
L 493.178232 310.465041 
L 493.462939 311.532349 
L 493.579411 311.634605 
L 493.605293 311.564304 
L 493.657058 311.05941 
L 493.721765 307.323835 
L 494.032355 275.793537 
L 494.239415 227.796671 
L 494.29118 232.334324 
L 494.511181 265.823482 
L 494.782948 290.780574 
L 495.145303 308.017265 
L 495.494717 309.979321 
L 495.792366 310.691924 
L 496.167662 311.065801 
L 496.219427 310.883656 
L 496.322957 309.832326 
L 496.400605 307.29188 
L 496.465311 308.19941 
L 496.530017 308.889645 
L 496.594724 308.643589 
L 496.646489 308.502986 
L 496.698254 308.618025 
L 497.07355 310.496997 
L 497.138256 310.407522 
L 497.190022 310.113533 
L 497.267669 300.87845 
L 497.422964 289.470407 
L 497.448847 290.045602 
L 497.539435 292.282474 
L 497.591201 291.643368 
L 497.655907 291.132083 
L 497.694731 291.515546 
L 497.785319 295.350183 
L 498.044145 308.22817 
L 498.057086 308.272908 
L 498.09591 308.177042 
L 498.225322 305.444863 
L 498.277087 304.630003 
L 498.328852 305.224372 
L 498.574736 307.694517 
L 498.82062 308.688326 
L 499.312388 310.691924 
L 499.75239 311.23836 
L 499.998274 311.468438 
L 500.218276 311.66017 
L 500.554748 311.839119 
L 500.839456 311.941376 
L 501.098281 312.043633 
L 501.460636 312.14589 
L 501.628873 312.158672 
L 502.457113 312.101153 
L 502.547702 311.276706 
L 502.599467 306.713489 
L 502.690056 300.111523 
L 502.741821 301.198003 
L 502.845351 303.057802 
L 502.897116 302.827724 
L 503.03947 302.150271 
L 503.091235 302.393132 
L 503.194765 305.780394 
L 503.401825 310.311656 
L 503.634768 311.244751 
L 503.984182 311.711298 
L 504.100653 311.813555 
L 504.385361 312.043633 
L 504.514773 312.14589 
L 504.838305 312.312058 
L 505.019482 312.385555 
L 505.032423 312.305667 
L 505.071247 312.158672 
L 505.135953 312.312058 
L 505.265366 312.427097 
L 505.30419 312.401533 
L 505.847723 312.50379 
L 506.015959 312.554918 
L 506.895964 312.660371 
L 507.141848 312.708304 
L 509.044213 312.609242 
L 509.083037 312.548527 
L 509.160684 312.606047 
L 509.328921 312.705108 
L 509.62657 312.695522 
L 509.743041 312.149086 
L 509.83363 309.359388 
L 509.911277 310.963544 
L 509.93716 311.244751 
L 510.014807 310.890047 
L 510.105396 310.519365 
L 510.157161 310.602449 
L 510.726577 312.312058 
L 511.826583 312.733868 
L 512.163056 312.765823 
L 512.175997 312.708304 
L 512.266586 312.602851 
L 512.357175 312.299276 
L 512.395999 311.973332 
L 512.473646 312.235365 
L 512.564235 312.401533 
L 512.616 312.363186 
L 512.771295 312.459052 
L 512.952473 312.599656 
L 513.017179 312.20341 
L 513.120709 297.587054 
L 513.211298 293.081356 
L 513.263063 293.912194 
L 513.314828 295.957334 
L 513.508947 304.987902 
L 513.677183 307.723276 
L 513.936008 310.854896 
L 514.233657 311.768818 
L 514.492482 312.334427 
L 521.092524 312.65398 
L 521.196054 309.011075 
L 521.338408 297.459233 
L 521.390173 300.399121 
L 521.519585 304.91121 
L 521.545468 304.847299 
L 521.648998 304.527746 
L 521.687821 304.642785 
L 521.765469 305.566293 
L 522.089 311.299075 
L 522.334884 312.037242 
L 522.839593 312.491008 
L 523.447832 312.669957 
L 524.314897 312.772214 
L 524.547839 312.810561 
L 524.806664 312.836125 
L 525.039607 310.346807 
L 525.117255 310.93798 
L 525.401962 312.069198 
L 525.68667 312.5677 
L 526.450204 312.823343 
L 528.443158 312.71789 
L 528.663159 310.749444 
L 528.689042 310.560907 
L 528.753748 310.941175 
L 528.999632 312.497399 
L 529.258457 312.781801 
L 529.400811 312.676348 
L 529.426693 312.695522 
L 529.80199 312.836125 
L 530.00905 312.727477 
L 530.11258 312.753041 
L 530.31964 312.871276 
L 530.539641 312.820147 
L 530.694937 312.197019 
L 530.798467 312.433488 
L 531.057292 312.784996 
L 531.251411 312.874471 
L 531.354941 312.797779 
L 531.445529 312.439879 
L 531.497294 312.491008 
L 532.131416 312.963946 
L 533.593778 312.858494 
L 533.645543 312.126717 
L 533.710249 312.529354 
L 533.865545 312.695522 
L 534.059663 312.784996 
L 534.176135 312.86808 
L 534.202017 312.427097 
L 534.253782 310.714293 
L 534.318489 311.858293 
L 534.473784 312.676348 
L 534.784374 312.951164 
L 534.797315 312.944773 
L 534.862021 310.918807 
L 534.965551 312.177846 
L 534.991434 311.982918 
L 535.082023 310.190226 
L 535.146729 310.912416 
L 535.314965 312.222583 
L 535.340848 312.184237 
L 535.379672 311.877466 
L 535.418495 311.107343 
L 535.483202 311.647388 
L 535.664379 312.465443 
L 535.716144 311.871075 
L 535.780851 312.305667 
L 535.974969 312.829734 
L 536.570267 313.015075 
L 536.854975 312.938382 
L 537.062035 312.995901 
L 539.365579 313.011879 
L 539.430285 312.037242 
L 539.494991 312.561309 
L 539.572639 312.877667 
L 539.598521 312.68913 
L 539.663228 311.251142 
L 539.753817 311.954159 
L 540.025583 312.874471 
L 540.129113 312.951164 
L 540.154996 312.916013 
L 540.258526 312.983119 
L 540.452644 313.034248 
L 540.620881 311.532349 
L 540.672646 309.698114 
L 540.737352 311.040237 
L 540.931471 312.535745 
L 541.203237 312.963946 
L 541.397356 312.995901 
L 541.410297 312.944773 
L 541.449121 312.900036 
L 541.513828 312.983119 
L 541.876183 313.040639 
L 544.050314 312.938382 
L 544.231492 312.880862 
L 544.244433 312.900036 
L 544.671494 313.078985 
L 545.499735 312.995901 
L 545.629147 312.308862 
L 545.667971 311.704907 
L 545.732677 312.283298 
L 545.926796 312.810561 
L 546.522094 313.117332 
L 547.078568 313.043834 
L 547.195039 312.810561 
L 547.220922 312.832929 
L 547.285628 312.861689 
L 547.337393 312.823343 
L 547.440923 312.922404 
L 547.647983 313.078985 
L 549.252699 313.181242 
L 549.433877 313.181242 
L 549.472701 313.107745 
L 549.550348 312.871276 
L 549.602113 312.995901 
L 549.925645 313.066203 
L 549.990351 312.733868 
L 550.055057 312.947968 
L 550.18447 312.999097 
L 550.469178 313.078985 
L 550.637414 313.078985 
L 550.663296 313.098158 
L 550.844474 312.113935 
L 550.870357 312.126717 
L 550.896239 311.800773 
L 550.973887 308.030047 
L 551.064475 308.947164 
L 551.11624 308.103544 
L 551.21977 304.502182 
L 551.297418 305.882651 
L 551.504478 309.73646 
L 551.750362 311.954159 
L 551.802127 312.056415 
L 551.815068 312.046829 
L 551.866833 308.669153 
L 551.944481 306.531343 
L 551.983305 307.723276 
L 552.151541 310.899633 
L 552.488014 312.369577 
L 552.902134 312.960751 
L 552.979781 312.810561 
L 553.031546 312.906427 
L 553.329195 313.053421 
L 553.885669 313.155678 
L 554.040965 313.16846 
L 554.157436 313.181242 
L 558.557463 313.291168 
L 559.049231 313.321846 
L 559.437469 313.321846 
L 562.672783 313.245153 
L 562.711607 312.829734 
L 562.905726 306.560103 
L 562.970432 308.531745 
L 563.04808 309.538338 
L 563.099845 309.436081 
L 563.203375 310.167857 
L 563.578671 312.465443 
L 563.902203 312.98951 
L 564.005733 312.986315 
L 564.031615 312.931991 
L 564.135145 313.002292 
L 564.199851 312.887253 
L 564.329264 312.810561 
L 564.342205 312.823343 
L 564.458677 312.9256 
L 564.678678 313.117332 
L 565.015151 313.206806 
L 565.157505 313.245153 
L 571.162248 313.343575 
L 571.39519 313.465005 
L 571.615192 313.419309 
L 572.00343 313.419309 
L 572.288137 313.321846 
L 575.30345 313.257296 
L 575.562275 312.682739 
L 576.157573 313.245153 
L 580.156422 313.155678 
L 580.208187 313.130114 
L 580.259952 313.184438 
L 580.674072 313.194024 
L 581.204663 313.298838 
L 581.424665 313.306507 
L 581.942315 313.24004 
L 582.019963 312.708304 
L 582.09761 312.759432 
L 582.744673 313.245153 
L 583.197617 313.136505 
L 583.32703 312.740259 
L 583.443501 312.08198 
L 583.508207 312.331231 
L 583.598796 312.516572 
L 583.663502 312.491008 
L 583.909386 312.59646 
L 584.918804 313.206806 
L 587.04117 313.107745 
L 587.118818 311.858293 
L 587.222348 302.757422 
L 587.338819 297.938562 
L 587.377643 298.993087 
L 587.610586 309.138896 
L 587.688233 309.368974 
L 587.75294 309.321041 
L 588.425885 310.548125 
L 588.671769 310.790985 
L 588.878829 310.906025 
L 588.969418 310.797377 
L 589.047065 310.484215 
L 589.111772 310.698315 
L 589.383538 311.404527 
L 589.512951 311.615432 
L 589.525892 311.484416 
L 589.538833 311.48122 
L 589.551774 311.557913 
L 589.758835 312.037242 
L 590.470604 312.74665 
L 591.285903 312.663566 
L 591.480022 311.097756 
L 591.570611 311.653779 
L 591.829436 312.299276 
L 592.127085 312.478225 
L 592.502381 312.695522 
L 592.929443 312.784996 
L 593.291798 312.698717 
L 593.537682 312.08198 
L 593.615329 312.184237 
L 594.197686 312.606047 
L 594.637688 312.714695 
L 594.844749 312.663566 
L 594.987102 312.669957 
L 595.349458 312.772214 
L 595.517694 312.784996 
L 597.549471 312.714695 
L 597.601236 312.126717 
L 597.704766 309.273109 
L 597.756531 310.177444 
L 597.95065 311.72408 
L 598.209475 312.299276 
L 598.325947 312.254538 
L 598.455359 311.819946 
L 598.533007 311.941376 
L 598.843597 312.312058 
L 599.128305 312.439879 
L 599.296541 312.535745 
L 599.49066 312.631611 
L 599.814191 312.737063 
L 600.150664 312.784996 
L 601.367142 312.880862 
L 601.509496 312.900036 
L 602.402443 312.861689 
L 609.636606 310.33722 
L 610.08955 310.81655 
L 610.115432 310.69512 
L 610.154256 301.8435 
L 610.40014 196.800026 
L 610.438964 205.172316 
L 610.646024 266.270856 
L 610.71073 263.970075 
L 610.749554 265.535884 
L 611.280145 306.29807 
L 611.526029 307.502785 
L 611.733089 307.934181 
L 611.771913 307.915008 
L 611.823678 307.464438 
L 611.888384 303.824729 
L 612.004856 298.290071 
L 612.043679 299.216774 
L 612.315446 306.767813 
L 612.587212 307.838315 
L 612.97545 308.643589 
L 613.28604 309.014271 
L 613.4931 309.12931 
L 613.518983 309.081377 
L 613.557807 309.04303 
L 613.609572 309.12931 
L 613.738984 309.301868 
L 613.790749 309.234762 
L 613.920162 308.745846 
L 613.984868 308.413511 
L 614.036633 308.688326 
L 614.347223 309.576684 
L 614.61899 309.678941 
L 614.800167 310.145488 
L 615.007227 310.426695 
L 615.44723 311.263924 
L 615.65429 311.545131 
L 616.055469 312.08198 
L 621.115501 312.609242 
L 621.167266 311.283097 
L 621.322561 285.891413 
L 621.439032 274.579235 
L 621.490797 281.577447 
L 621.710799 299.887836 
L 621.775505 300.590853 
L 621.82727 300.207389 
L 621.9308 299.696104 
L 621.956683 299.855881 
L 622.150801 304.364774 
L 622.34492 306.205399 
L 622.616687 306.815746 
L 622.668452 306.911612 
L 623.328456 307.723276 
L 623.47081 306.103142 
L 623.535516 305.192416 
L 623.600222 305.815545 
L 623.846106 307.493198 
L 623.859047 307.521958 
L 623.910812 307.378159 
L 624.169637 306.924394 
L 624.208461 304.313645 
L 624.415521 294.934764 
L 624.428463 294.838898 
L 624.454345 295.09454 
L 624.661405 304.540528 
L 624.726112 303.543523 
L 624.907289 299.983702 
L 624.946113 300.239344 
L 625.450822 307.164059 
L 625.864942 307.828729 
L 626.214356 308.208997 
L 626.292004 308.355991 
L 626.304945 308.346405 
L 627.612012 308.458248 
L 627.922602 309.148483 
L 628.155545 309.666159 
L 628.401429 310.199812 
L 629.527318 312.436684 
L 629.837908 312.542136 
L 629.980262 312.554918 
L 630.549677 312.65398 
L 630.743796 312.695522 
L 632.477925 312.791387 
L 632.620278 312.810561 
L 633.267341 312.727477 
L 633.280283 312.606047 
L 633.370871 312.80417 
L 633.694403 312.973533 
L 633.849698 312.98951 
L 634.263818 312.9256 
L 634.406172 311.637801 
L 634.574408 309.311455 
L 634.58735 309.666159 
L 634.755586 311.347008 
L 634.949705 311.864684 
L 634.962646 311.832728 
L 635.027352 310.96674 
L 635.092059 311.225578 
L 635.117941 310.982717 
L 635.130882 310.845309 
L 635.182647 311.366181 
L 635.31206 312.094762 
L 638.806199 313.040639 
L 640.022678 312.941577 
L 640.177973 309.384952 
L 640.242679 307.311053 
L 640.307385 308.19941 
L 640.397974 309.244349 
L 640.56621 310.27331 
L 640.643858 310.356393 
L 640.682682 310.292483 
L 640.747388 309.762025 
L 640.941507 307.569891 
L 640.980331 307.790382 
L 641.070919 309.177243 
L 641.109743 308.582874 
L 641.148567 307.809556 
L 641.239156 307.857489 
L 641.316803 308.685131 
L 641.472098 309.921801 
L 641.510922 309.710896 
L 641.601511 309.499991 
L 641.627393 309.557511 
L 641.769747 310.439477 
L 641.821512 310.113533 
L 641.925042 304.693914 
L 642.00269 306.055209 
L 642.222691 309.480818 
L 642.326221 309.924997 
L 642.597988 311.148885 
L 643.283874 312.564505 
L 643.490935 312.714695 
L 643.672112 312.784996 
L 644.008585 312.874471 
L 644.125056 313.066203 
L 644.176821 312.967142 
L 644.396823 312.305667 
L 644.422705 312.391946 
L 644.487411 312.612438 
L 644.565059 312.535745 
L 645.005062 313.078985 
L 645.030944 312.98951 
L 645.108592 308.62122 
L 645.19918 295.925378 
L 645.250946 297.970518 
L 645.470947 309.407321 
L 645.716831 310.720684 
L 646.376835 312.491008 
L 646.519189 312.77541 
L 646.687425 312.919209 
L 647.25684 313.078985 
L 647.412135 313.043834 
L 647.515666 312.50379 
L 647.567431 312.740259 
L 647.735667 313.117332 
L 647.826256 313.194024 
L 647.839197 313.165265 
L 647.890962 311.551522 
L 647.96861 312.487812 
L 648.098022 313.091767 
L 648.110963 313.088572 
L 648.188611 309.416907 
L 648.266258 311.90303 
L 648.421554 312.95436 
L 648.835674 313.123723 
L 648.952145 312.999097 
L 649.081558 312.491008 
L 649.094499 312.500594 
L 649.288618 312.765823 
L 649.379207 312.874471 
L 649.392148 312.800974 
L 649.443913 312.101153 
L 649.508619 312.519767 
L 649.702738 312.900036 
L 649.819209 312.983119 
L 649.845092 312.893644 
L 650.000387 312.034047 
L 650.013328 311.992505 
L 650.052152 312.14589 
L 650.285095 313.040639 
L 650.64745 313.245153 
L 651.37216 313.351244 
L 651.708633 313.408764 
L 653.623939 313.328556 
L 653.727469 310.36598 
L 653.766293 308.570092 
L 653.830999 310.54493 
L 654.012177 313.053421 
L 654.245119 313.306507 
L 654.581592 313.405249 
L 654.788652 312.970337 
L 654.840417 313.174851 
L 655.021595 313.394704 
L 655.254537 313.450945 
L 655.940424 313.394704 
L 656.00513 312.516572 
L 656.147484 307.550718 
L 656.199249 309.356192 
L 656.328662 312.165064 
L 656.354544 311.813555 
L 656.471016 307.65617 
L 656.496898 307.330226 
L 656.535722 308.058807 
L 656.781606 312.363186 
L 657.001607 312.983119 
L 657.351021 313.245153 
L 658.334557 313.422824 
L 662.682819 313.532751 
L 662.90282 313.532751 
L 662.967527 313.419309 
L 663.019292 312.864885 
L 663.083998 313.210002 
L 663.265176 313.36179 
L 663.485177 313.306507 
L 663.536942 313.240679 
L 663.601648 311.525957 
L 663.692237 312.647589 
L 663.795767 312.826538 
L 663.82165 312.813756 
L 663.964003 312.561309 
L 664.02871 312.650784 
L 664.365182 313.07579 
L 664.624008 313.232371 
L 664.947539 313.335906 
L 665.245188 313.394704 
L 665.426366 313.384158 
L 665.931075 313.36179 
L 666.50049 313.408764 
L 666.720491 313.408764 
L 666.81108 313.310342 
L 666.836963 313.291168 
L 666.901669 313.365305 
L 667.186377 313.408764 
L 668.027558 313.298838 
L 668.169912 313.245153 
L 668.182853 313.256657 
L 668.441678 313.394704 
L 669.347566 313.302672 
L 669.606392 312.810561 
L 669.632274 312.86808 
L 669.852276 313.187633 
L 670.331102 313.306507 
L 670.356985 313.120527 
L 670.382867 312.554918 
L 670.486397 312.759432 
L 670.51228 312.660371 
L 670.551103 312.286494 
L 670.61581 312.657175 
L 670.82287 313.130114 
L 671.081695 313.241957 
L 671.146401 313.063008 
L 671.249931 310.727075 
L 671.327579 311.618628 
L 671.521698 312.692326 
L 671.806405 313.066203 
L 672.078172 313.194024 
L 672.220526 313.200415 
L 672.764058 313.351244 
L 674.692306 313.260491 
L 674.808777 312.893644 
L 674.951131 308.004483 
L 675.015837 309.905824 
L 675.184074 312.618829 
L 675.391134 312.944773 
L 675.6629 312.976728 
L 675.831136 312.797779 
L 675.831136 312.797779 
" clip-path="url(#p75c5e02600)" style="fill: none; stroke: #1f77b4; stroke-width: 1.5; stroke-linecap: square"/>
   </g>
   <g id="line2d_12">
    <path d="M 76.003864 313.249307 
L 675.831136 313.249307 
L 675.831136 313.249307 
" clip-path="url(#p75c5e02600)" style="fill: none; stroke: #ff7f0e; stroke-width: 1.5; stroke-linecap: square"/>
   </g>
   <g id="patch_3">
    <path d="M 46.0125 327.558125 
L 46.0125 22.318125 
" style="fill: none; stroke: #000000; stroke-width: 0.8; stroke-linejoin: miter; stroke-linecap: square"/>
   </g>
   <g id="patch_4">
    <path d="M 705.8225 327.558125 
L 705.8225 22.318125 
" style="fill: none; stroke: #000000; stroke-width: 0.8; stroke-linejoin: miter; stroke-linecap: square"/>
   </g>
   <g id="patch_5">
    <path d="M 46.0125 327.558125 
L 705.8225 327.558125 
" style="fill: none; stroke: #000000; stroke-width: 0.8; stroke-linejoin: miter; stroke-linecap: square"/>
   </g>
   <g id="patch_6">
    <path d="M 46.0125 22.318125 
L 705.8225 22.318125 
" style="fill: none; stroke: #000000; stroke-width: 0.8; stroke-linejoin: miter; stroke-linecap: square"/>
   </g>
   <g id="text_11">
    <!-- training -->
    <g transform="translate(352.674062 16.318125) scale(0.12 -0.12)">
     <defs>
      <path id="DejaVuSans-74" d="M 1172 4494 
L 1172 3500 
L 2356 3500 
L 2356 3053 
L 1172 3053 
L 1172 1153 
Q 1172 725 1289 603 
Q 1406 481 1766 481 
L 2356 481 
L 2356 0 
L 1766 0 
Q 1100 0 847 248 
Q 594 497 594 1153 
L 594 3053 
L 172 3053 
L 172 3500 
L 594 3500 
L 594 4494 
L 1172 4494 
z
" transform="scale(0.015625)"/>
      <path id="DejaVuSans-72" d="M 2631 2963 
Q 2534 3019 2420 3045 
Q 2306 3072 2169 3072 
Q 1681 3072 1420 2755 
Q 1159 2438 1159 1844 
L 1159 0 
L 581 0 
L 581 3500 
L 1159 3500 
L 1159 2956 
Q 1341 3275 1631 3429 
Q 1922 3584 2338 3584 
Q 2397 3584 2469 3576 
Q 2541 3569 2628 3553 
L 2631 2963 
z
" transform="scale(0.015625)"/>
      <path id="DejaVuSans-61" d="M 2194 1759 
Q 1497 1759 1228 1600 
Q 959 1441 959 1056 
Q 959 750 1161 570 
Q 1363 391 1709 391 
Q 2188 391 2477 730 
Q 2766 1069 2766 1631 
L 2766 1759 
L 2194 1759 
z
M 3341 1997 
L 3341 0 
L 2766 0 
L 2766 531 
Q 2569 213 2275 61 
Q 1981 -91 1556 -91 
Q 1019 -91 701 211 
Q 384 513 384 1019 
Q 384 1609 779 1909 
Q 1175 2209 1959 2209 
L 2766 2209 
L 2766 2266 
Q 2766 2663 2505 2880 
Q 2244 3097 1772 3097 
Q 1472 3097 1187 3025 
Q 903 2953 641 2809 
L 641 3341 
Q 956 3463 1253 3523 
Q 1550 3584 1831 3584 
Q 2591 3584 2966 3190 
Q 3341 2797 3341 1997 
z
" transform="scale(0.015625)"/>
      <path id="DejaVuSans-69" d="M 603 3500 
L 1178 3500 
L 1178 0 
L 603 0 
L 603 3500 
z
M 603 4863 
L 1178 4863 
L 1178 4134 
L 603 4134 
L 603 4863 
z
" transform="scale(0.015625)"/>
      <path id="DejaVuSans-6e" d="M 3513 2113 
L 3513 0 
L 2938 0 
L 2938 2094 
Q 2938 2591 2744 2837 
Q 2550 3084 2163 3084 
Q 1697 3084 1428 2787 
Q 1159 2491 1159 1978 
L 1159 0 
L 581 0 
L 581 3500 
L 1159 3500 
L 1159 2956 
Q 1366 3272 1645 3428 
Q 1925 3584 2291 3584 
Q 2894 3584 3203 3211 
Q 3513 2838 3513 2113 
z
" transform="scale(0.015625)"/>
      <path id="DejaVuSans-67" d="M 2906 1791 
Q 2906 2416 2648 2759 
Q 2391 3103 1925 3103 
Q 1463 3103 1205 2759 
Q 947 2416 947 1791 
Q 947 1169 1205 825 
Q 1463 481 1925 481 
Q 2391 481 2648 825 
Q 2906 1169 2906 1791 
z
M 3481 434 
Q 3481 -459 3084 -895 
Q 2688 -1331 1869 -1331 
Q 1566 -1331 1297 -1286 
Q 1028 -1241 775 -1147 
L 775 -588 
Q 1028 -725 1275 -790 
Q 1522 -856 1778 -856 
Q 2344 -856 2625 -561 
Q 2906 -266 2906 331 
L 2906 616 
Q 2728 306 2450 153 
Q 2172 0 1784 0 
Q 1141 0 747 490 
Q 353 981 353 1791 
Q 353 2603 747 3093 
Q 1141 3584 1784 3584 
Q 2172 3584 2450 3431 
Q 2728 3278 2906 2969 
L 2906 3500 
L 3481 3500 
L 3481 434 
z
" transform="scale(0.015625)"/>
     </defs>
     <use xlink:href="#DejaVuSans-74"/>
     <use xlink:href="#DejaVuSans-72" x="39.208984"/>
     <use xlink:href="#DejaVuSans-61" x="80.322266"/>
     <use xlink:href="#DejaVuSans-69" x="141.601562"/>
     <use xlink:href="#DejaVuSans-6e" x="169.384766"/>
     <use xlink:href="#DejaVuSans-69" x="232.763672"/>
     <use xlink:href="#DejaVuSans-6e" x="260.546875"/>
     <use xlink:href="#DejaVuSans-67" x="323.925781"/>
    </g>
   </g>
   <g id="legend_1">
    <g id="patch_7">
     <path d="M 617.42875 59.674375 
L 698.8225 59.674375 
Q 700.8225 59.674375 700.8225 57.674375 
L 700.8225 29.318125 
Q 700.8225 27.318125 698.8225 27.318125 
L 617.42875 27.318125 
Q 615.42875 27.318125 615.42875 29.318125 
L 615.42875 57.674375 
Q 615.42875 59.674375 617.42875 59.674375 
z
" style="fill: #ffffff; opacity: 0.8; stroke: #cccccc; stroke-linejoin: miter"/>
    </g>
    <g id="line2d_13">
     <path d="M 619.42875 35.416562 
L 629.42875 35.416562 
L 639.42875 35.416562 
" style="fill: none; stroke: #1f77b4; stroke-width: 1.5; stroke-linecap: square"/>
    </g>
    <g id="text_12">
     <!-- observed -->
     <g transform="translate(647.42875 38.916562) scale(0.1 -0.1)">
      <defs>
       <path id="DejaVuSans-6f" d="M 1959 3097 
Q 1497 3097 1228 2736 
Q 959 2375 959 1747 
Q 959 1119 1226 758 
Q 1494 397 1959 397 
Q 2419 397 2687 759 
Q 2956 1122 2956 1747 
Q 2956 2369 2687 2733 
Q 2419 3097 1959 3097 
z
M 1959 3584 
Q 2709 3584 3137 3096 
Q 3566 2609 3566 1747 
Q 3566 888 3137 398 
Q 2709 -91 1959 -91 
Q 1206 -91 779 398 
Q 353 888 353 1747 
Q 353 2609 779 3096 
Q 1206 3584 1959 3584 
z
" transform="scale(0.015625)"/>
       <path id="DejaVuSans-62" d="M 3116 1747 
Q 3116 2381 2855 2742 
Q 2594 3103 2138 3103 
Q 1681 3103 1420 2742 
Q 1159 2381 1159 1747 
Q 1159 1113 1420 752 
Q 1681 391 2138 391 
Q 2594 391 2855 752 
Q 3116 1113 3116 1747 
z
M 1159 2969 
Q 1341 3281 1617 3432 
Q 1894 3584 2278 3584 
Q 2916 3584 3314 3078 
Q 3713 2572 3713 1747 
Q 3713 922 3314 415 
Q 2916 -91 2278 -91 
Q 1894 -91 1617 61 
Q 1341 213 1159 525 
L 1159 0 
L 581 0 
L 581 4863 
L 1159 4863 
L 1159 2969 
z
" transform="scale(0.015625)"/>
       <path id="DejaVuSans-73" d="M 2834 3397 
L 2834 2853 
Q 2591 2978 2328 3040 
Q 2066 3103 1784 3103 
Q 1356 3103 1142 2972 
Q 928 2841 928 2578 
Q 928 2378 1081 2264 
Q 1234 2150 1697 2047 
L 1894 2003 
Q 2506 1872 2764 1633 
Q 3022 1394 3022 966 
Q 3022 478 2636 193 
Q 2250 -91 1575 -91 
Q 1294 -91 989 -36 
Q 684 19 347 128 
L 347 722 
Q 666 556 975 473 
Q 1284 391 1588 391 
Q 1994 391 2212 530 
Q 2431 669 2431 922 
Q 2431 1156 2273 1281 
Q 2116 1406 1581 1522 
L 1381 1569 
Q 847 1681 609 1914 
Q 372 2147 372 2553 
Q 372 3047 722 3315 
Q 1072 3584 1716 3584 
Q 2034 3584 2315 3537 
Q 2597 3491 2834 3397 
z
" transform="scale(0.015625)"/>
       <path id="DejaVuSans-65" d="M 3597 1894 
L 3597 1613 
L 953 1613 
Q 991 1019 1311 708 
Q 1631 397 2203 397 
Q 2534 397 2845 478 
Q 3156 559 3463 722 
L 3463 178 
Q 3153 47 2828 -22 
Q 2503 -91 2169 -91 
Q 1331 -91 842 396 
Q 353 884 353 1716 
Q 353 2575 817 3079 
Q 1281 3584 2069 3584 
Q 2775 3584 3186 3129 
Q 3597 2675 3597 1894 
z
M 3022 2063 
Q 3016 2534 2758 2815 
Q 2500 3097 2075 3097 
Q 1594 3097 1305 2825 
Q 1016 2553 972 2059 
L 3022 2063 
z
" transform="scale(0.015625)"/>
       <path id="DejaVuSans-76" d="M 191 3500 
L 800 3500 
L 1894 563 
L 2988 3500 
L 3597 3500 
L 2284 0 
L 1503 0 
L 191 3500 
z
" transform="scale(0.015625)"/>
       <path id="DejaVuSans-64" d="M 2906 2969 
L 2906 4863 
L 3481 4863 
L 3481 0 
L 2906 0 
L 2906 525 
Q 2725 213 2448 61 
Q 2172 -91 1784 -91 
Q 1150 -91 751 415 
Q 353 922 353 1747 
Q 353 2572 751 3078 
Q 1150 3584 1784 3584 
Q 2172 3584 2448 3432 
Q 2725 3281 2906 2969 
z
M 947 1747 
Q 947 1113 1208 752 
Q 1469 391 1925 391 
Q 2381 391 2643 752 
Q 2906 1113 2906 1747 
Q 2906 2381 2643 2742 
Q 2381 3103 1925 3103 
Q 1469 3103 1208 2742 
Q 947 2381 947 1747 
z
" transform="scale(0.015625)"/>
      </defs>
      <use xlink:href="#DejaVuSans-6f"/>
      <use xlink:href="#DejaVuSans-62" x="61.181641"/>
      <use xlink:href="#DejaVuSans-73" x="124.658203"/>
      <use xlink:href="#DejaVuSans-65" x="176.757812"/>
      <use xlink:href="#DejaVuSans-72" x="238.28125"/>
      <use xlink:href="#DejaVuSans-76" x="279.394531"/>
      <use xlink:href="#DejaVuSans-65" x="338.574219"/>
      <use xlink:href="#DejaVuSans-64" x="400.097656"/>
     </g>
    </g>
    <g id="line2d_14">
     <path d="M 619.42875 50.094688 
L 629.42875 50.094688 
L 639.42875 50.094688 
" style="fill: none; stroke: #ff7f0e; stroke-width: 1.5; stroke-linecap: square"/>
    </g>
    <g id="text_13">
     <!-- simulated -->
     <g transform="translate(647.42875 53.594688) scale(0.1 -0.1)">
      <defs>
       <path id="DejaVuSans-6d" d="M 3328 2828 
Q 3544 3216 3844 3400 
Q 4144 3584 4550 3584 
Q 5097 3584 5394 3201 
Q 5691 2819 5691 2113 
L 5691 0 
L 5113 0 
L 5113 2094 
Q 5113 2597 4934 2840 
Q 4756 3084 4391 3084 
Q 3944 3084 3684 2787 
Q 3425 2491 3425 1978 
L 3425 0 
L 2847 0 
L 2847 2094 
Q 2847 2600 2669 2842 
Q 2491 3084 2119 3084 
Q 1678 3084 1418 2786 
Q 1159 2488 1159 1978 
L 1159 0 
L 581 0 
L 581 3500 
L 1159 3500 
L 1159 2956 
Q 1356 3278 1631 3431 
Q 1906 3584 2284 3584 
Q 2666 3584 2933 3390 
Q 3200 3197 3328 2828 
z
" transform="scale(0.015625)"/>
       <path id="DejaVuSans-75" d="M 544 1381 
L 544 3500 
L 1119 3500 
L 1119 1403 
Q 1119 906 1312 657 
Q 1506 409 1894 409 
Q 2359 409 2629 706 
Q 2900 1003 2900 1516 
L 2900 3500 
L 3475 3500 
L 3475 0 
L 2900 0 
L 2900 538 
Q 2691 219 2414 64 
Q 2138 -91 1772 -91 
Q 1169 -91 856 284 
Q 544 659 544 1381 
z
M 1991 3584 
L 1991 3584 
z
" transform="scale(0.015625)"/>
       <path id="DejaVuSans-6c" d="M 603 4863 
L 1178 4863 
L 1178 0 
L 603 0 
L 603 4863 
z
" transform="scale(0.015625)"/>
      </defs>
      <use xlink:href="#DejaVuSans-73"/>
      <use xlink:href="#DejaVuSans-69" x="52.099609"/>
      <use xlink:href="#DejaVuSans-6d" x="79.882812"/>
      <use xlink:href="#DejaVuSans-75" x="177.294922"/>
      <use xlink:href="#DejaVuSans-6c" x="240.673828"/>
      <use xlink:href="#DejaVuSans-61" x="268.457031"/>
      <use xlink:href="#DejaVuSans-74" x="329.736328"/>
      <use xlink:href="#DejaVuSans-65" x="368.945312"/>
      <use xlink:href="#DejaVuSans-64" x="430.46875"/>
     </g>
    </g>
   </g>
  </g>
 </g>
 <defs>
  <clipPath id="p75c5e02600">
   <rect x="46.0125" y="22.318125" width="659.81" height="305.24"/>
  </clipPath>
 </defs>
</svg>
