<?xml version="1.0" encoding="utf-8" standalone="no"?>
<!DOCTYPE svg PUBLIC "-//W3C//DTD SVG 1.1//EN"
  "http://www.w3.org/Graphics/SVG/1.1/DTD/svg11.dtd">
<svg xmlns:xlink="http://www.w3.org/1999/xlink" width="713.0225pt" height="351.43625pt" viewBox="0 0 713.0225 351.43625" xmlns="http://www.w3.org/2000/svg" version="1.1">
 <metadata>
  <rdf:RDF xmlns:dc="http://purl.org/dc/elements/1.1/" xmlns:cc="http://creativecommons.org/ns#" xmlns:rdf="http://www.w3.org/1999/02/22-rdf-syntax-ns#">
   <cc:Work>
    <dc:type rdf:resource="http://purl.org/dc/dcmitype/StillImage"/>
    <dc:date>2024-05-09T17:59:52.270916</dc:date>
    <dc:format>image/svg+xml</dc:format>
    <dc:creator>
     <cc:Agent>
      <dc:title>Matplotlib v3.8.4, https://matplotlib.org/</dc:title>
     </cc:Agent>
    </dc:creator>
   </cc:Work>
  </rdf:RDF>
 </metadata>
 <defs>
  <style type="text/css">*{stroke-linejoin: round; stroke-linecap: butt}</style>
 </defs>
 <g id="figure_1">
  <g id="patch_1">
   <path d="M 0 351.43625 
L 713.0225 351.43625 
L 713.0225 0 
L 0 0 
z
" style="fill: #ffffff"/>
  </g>
  <g id="axes_1">
   <g id="patch_2">
    <path d="M 46.0125 327.558125 
L 705.8225 327.558125 
L 705.8225 22.318125 
L 46.0125 22.318125 
z
" style="fill: #ffffff"/>
   </g>
   <g id="matplotlib.axis_1">
    <g id="xtick_1">
     <g id="line2d_1">
      <defs>
       <path id="macfd06177b" d="M 0 0 
L 0 3.5 
" style="stroke: #000000; stroke-width: 0.8"/>
      </defs>
      <g>
       <use xlink:href="#macfd06177b" x="100.382057" y="327.558125" style="stroke: #000000; stroke-width: 0.8"/>
      </g>
     </g>
     <g id="text_1">
      <!-- 2010 -->
      <g transform="translate(87.657057 342.156563) scale(0.1 -0.1)">
       <defs>
        <path id="DejaVuSans-32" d="M 1228 531 
L 3431 531 
L 3431 0 
L 469 0 
L 469 531 
Q 828 903 1448 1529 
Q 2069 2156 2228 2338 
Q 2531 2678 2651 2914 
Q 2772 3150 2772 3378 
Q 2772 3750 2511 3984 
Q 2250 4219 1831 4219 
Q 1534 4219 1204 4116 
Q 875 4013 500 3803 
L 500 4441 
Q 881 4594 1212 4672 
Q 1544 4750 1819 4750 
Q 2544 4750 2975 4387 
Q 3406 4025 3406 3419 
Q 3406 3131 3298 2873 
Q 3191 2616 2906 2266 
Q 2828 2175 2409 1742 
Q 1991 1309 1228 531 
z
" transform="scale(0.015625)"/>
        <path id="DejaVuSans-30" d="M 2034 4250 
Q 1547 4250 1301 3770 
Q 1056 3291 1056 2328 
Q 1056 1369 1301 889 
Q 1547 409 2034 409 
Q 2525 409 2770 889 
Q 3016 1369 3016 2328 
Q 3016 3291 2770 3770 
Q 2525 4250 2034 4250 
z
M 2034 4750 
Q 2819 4750 3233 4129 
Q 3647 3509 3647 2328 
Q 3647 1150 3233 529 
Q 2819 -91 2034 -91 
Q 1250 -91 836 529 
Q 422 1150 422 2328 
Q 422 3509 836 4129 
Q 1250 4750 2034 4750 
z
" transform="scale(0.015625)"/>
        <path id="DejaVuSans-31" d="M 794 531 
L 1825 531 
L 1825 4091 
L 703 3866 
L 703 4441 
L 1819 4666 
L 2450 4666 
L 2450 531 
L 3481 531 
L 3481 0 
L 794 0 
L 794 531 
z
" transform="scale(0.015625)"/>
       </defs>
       <use xlink:href="#DejaVuSans-32"/>
       <use xlink:href="#DejaVuSans-30" x="63.623047"/>
       <use xlink:href="#DejaVuSans-31" x="127.246094"/>
       <use xlink:href="#DejaVuSans-30" x="190.869141"/>
      </g>
     </g>
    </g>
    <g id="xtick_2">
     <g id="line2d_2">
      <g>
       <use xlink:href="#macfd06177b" x="193.009675" y="327.558125" style="stroke: #000000; stroke-width: 0.8"/>
      </g>
     </g>
     <g id="text_2">
      <!-- 2012 -->
      <g transform="translate(180.284675 342.156563) scale(0.1 -0.1)">
       <use xlink:href="#DejaVuSans-32"/>
       <use xlink:href="#DejaVuSans-30" x="63.623047"/>
       <use xlink:href="#DejaVuSans-31" x="127.246094"/>
       <use xlink:href="#DejaVuSans-32" x="190.869141"/>
      </g>
     </g>
    </g>
    <g id="xtick_3">
     <g id="line2d_3">
      <g>
       <use xlink:href="#macfd06177b" x="285.764181" y="327.558125" style="stroke: #000000; stroke-width: 0.8"/>
      </g>
     </g>
     <g id="text_3">
      <!-- 2014 -->
      <g transform="translate(273.039181 342.156563) scale(0.1 -0.1)">
       <defs>
        <path id="DejaVuSans-34" d="M 2419 4116 
L 825 1625 
L 2419 1625 
L 2419 4116 
z
M 2253 4666 
L 3047 4666 
L 3047 1625 
L 3713 1625 
L 3713 1100 
L 3047 1100 
L 3047 0 
L 2419 0 
L 2419 1100 
L 313 1100 
L 313 1709 
L 2253 4666 
z
" transform="scale(0.015625)"/>
       </defs>
       <use xlink:href="#DejaVuSans-32"/>
       <use xlink:href="#DejaVuSans-30" x="63.623047"/>
       <use xlink:href="#DejaVuSans-31" x="127.246094"/>
       <use xlink:href="#DejaVuSans-34" x="190.869141"/>
      </g>
     </g>
    </g>
    <g id="xtick_4">
     <g id="line2d_4">
      <g>
       <use xlink:href="#macfd06177b" x="378.391799" y="327.558125" style="stroke: #000000; stroke-width: 0.8"/>
      </g>
     </g>
     <g id="text_4">
      <!-- 2016 -->
      <g transform="translate(365.666799 342.156563) scale(0.1 -0.1)">
       <defs>
        <path id="DejaVuSans-36" d="M 2113 2584 
Q 1688 2584 1439 2293 
Q 1191 2003 1191 1497 
Q 1191 994 1439 701 
Q 1688 409 2113 409 
Q 2538 409 2786 701 
Q 3034 994 3034 1497 
Q 3034 2003 2786 2293 
Q 2538 2584 2113 2584 
z
M 3366 4563 
L 3366 3988 
Q 3128 4100 2886 4159 
Q 2644 4219 2406 4219 
Q 1781 4219 1451 3797 
Q 1122 3375 1075 2522 
Q 1259 2794 1537 2939 
Q 1816 3084 2150 3084 
Q 2853 3084 3261 2657 
Q 3669 2231 3669 1497 
Q 3669 778 3244 343 
Q 2819 -91 2113 -91 
Q 1303 -91 875 529 
Q 447 1150 447 2328 
Q 447 3434 972 4092 
Q 1497 4750 2381 4750 
Q 2619 4750 2861 4703 
Q 3103 4656 3366 4563 
z
" transform="scale(0.015625)"/>
       </defs>
       <use xlink:href="#DejaVuSans-32"/>
       <use xlink:href="#DejaVuSans-30" x="63.623047"/>
       <use xlink:href="#DejaVuSans-31" x="127.246094"/>
       <use xlink:href="#DejaVuSans-36" x="190.869141"/>
      </g>
     </g>
    </g>
    <g id="xtick_5">
     <g id="line2d_5">
      <g>
       <use xlink:href="#macfd06177b" x="471.146305" y="327.558125" style="stroke: #000000; stroke-width: 0.8"/>
      </g>
     </g>
     <g id="text_5">
      <!-- 2018 -->
      <g transform="translate(458.421305 342.156563) scale(0.1 -0.1)">
       <defs>
        <path id="DejaVuSans-38" d="M 2034 2216 
Q 1584 2216 1326 1975 
Q 1069 1734 1069 1313 
Q 1069 891 1326 650 
Q 1584 409 2034 409 
Q 2484 409 2743 651 
Q 3003 894 3003 1313 
Q 3003 1734 2745 1975 
Q 2488 2216 2034 2216 
z
M 1403 2484 
Q 997 2584 770 2862 
Q 544 3141 544 3541 
Q 544 4100 942 4425 
Q 1341 4750 2034 4750 
Q 2731 4750 3128 4425 
Q 3525 4100 3525 3541 
Q 3525 3141 3298 2862 
Q 3072 2584 2669 2484 
Q 3125 2378 3379 2068 
Q 3634 1759 3634 1313 
Q 3634 634 3220 271 
Q 2806 -91 2034 -91 
Q 1263 -91 848 271 
Q 434 634 434 1313 
Q 434 1759 690 2068 
Q 947 2378 1403 2484 
z
M 1172 3481 
Q 1172 3119 1398 2916 
Q 1625 2713 2034 2713 
Q 2441 2713 2670 2916 
Q 2900 3119 2900 3481 
Q 2900 3844 2670 4047 
Q 2441 4250 2034 4250 
Q 1625 4250 1398 4047 
Q 1172 3844 1172 3481 
z
" transform="scale(0.015625)"/>
       </defs>
       <use xlink:href="#DejaVuSans-32"/>
       <use xlink:href="#DejaVuSans-30" x="63.623047"/>
       <use xlink:href="#DejaVuSans-31" x="127.246094"/>
       <use xlink:href="#DejaVuSans-38" x="190.869141"/>
      </g>
     </g>
    </g>
    <g id="xtick_6">
     <g id="line2d_6">
      <g>
       <use xlink:href="#macfd06177b" x="563.773923" y="327.558125" style="stroke: #000000; stroke-width: 0.8"/>
      </g>
     </g>
     <g id="text_6">
      <!-- 2020 -->
      <g transform="translate(551.048923 342.156563) scale(0.1 -0.1)">
       <use xlink:href="#DejaVuSans-32"/>
       <use xlink:href="#DejaVuSans-30" x="63.623047"/>
       <use xlink:href="#DejaVuSans-32" x="127.246094"/>
       <use xlink:href="#DejaVuSans-30" x="190.869141"/>
      </g>
     </g>
    </g>
    <g id="xtick_7">
     <g id="line2d_7">
      <g>
       <use xlink:href="#macfd06177b" x="656.528429" y="327.558125" style="stroke: #000000; stroke-width: 0.8"/>
      </g>
     </g>
     <g id="text_7">
      <!-- 2022 -->
      <g transform="translate(643.803429 342.156563) scale(0.1 -0.1)">
       <use xlink:href="#DejaVuSans-32"/>
       <use xlink:href="#DejaVuSans-30" x="63.623047"/>
       <use xlink:href="#DejaVuSans-32" x="127.246094"/>
       <use xlink:href="#DejaVuSans-32" x="190.869141"/>
      </g>
     </g>
    </g>
   </g>
   <g id="matplotlib.axis_2">
    <g id="ytick_1">
     <g id="line2d_8">
      <defs>
       <path id="mbc57688c10" d="M 0 0 
L -3.5 0 
" style="stroke: #000000; stroke-width: 0.8"/>
      </defs>
      <g>
       <use xlink:href="#mbc57688c10" x="46.0125" y="311.851708" style="stroke: #000000; stroke-width: 0.8"/>
      </g>
     </g>
     <g id="text_8">
      <!-- 0 -->
      <g transform="translate(32.65 315.650927) scale(0.1 -0.1)">
       <use xlink:href="#DejaVuSans-30"/>
      </g>
     </g>
    </g>
    <g id="ytick_2">
     <g id="line2d_9">
      <g>
       <use xlink:href="#mbc57688c10" x="46.0125" y="244.934023" style="stroke: #000000; stroke-width: 0.8"/>
      </g>
     </g>
     <g id="text_9">
      <!-- 20000 -->
      <g transform="translate(7.2 248.733242) scale(0.1 -0.1)">
       <use xlink:href="#DejaVuSans-32"/>
       <use xlink:href="#DejaVuSans-30" x="63.623047"/>
       <use xlink:href="#DejaVuSans-30" x="127.246094"/>
       <use xlink:href="#DejaVuSans-30" x="190.869141"/>
       <use xlink:href="#DejaVuSans-30" x="254.492188"/>
      </g>
     </g>
    </g>
    <g id="ytick_3">
     <g id="line2d_10">
      <g>
       <use xlink:href="#mbc57688c10" x="46.0125" y="178.016338" style="stroke: #000000; stroke-width: 0.8"/>
      </g>
     </g>
     <g id="text_10">
      <!-- 40000 -->
      <g transform="translate(7.2 181.815557) scale(0.1 -0.1)">
       <use xlink:href="#DejaVuSans-34"/>
       <use xlink:href="#DejaVuSans-30" x="63.623047"/>
       <use xlink:href="#DejaVuSans-30" x="127.246094"/>
       <use xlink:href="#DejaVuSans-30" x="190.869141"/>
       <use xlink:href="#DejaVuSans-30" x="254.492188"/>
      </g>
     </g>
    </g>
    <g id="ytick_4">
     <g id="line2d_11">
      <g>
       <use xlink:href="#mbc57688c10" x="46.0125" y="111.098654" style="stroke: #000000; stroke-width: 0.8"/>
      </g>
     </g>
     <g id="text_11">
      <!-- 60000 -->
      <g transform="translate(7.2 114.897873) scale(0.1 -0.1)">
       <use xlink:href="#DejaVuSans-36"/>
       <use xlink:href="#DejaVuSans-30" x="63.623047"/>
       <use xlink:href="#DejaVuSans-30" x="127.246094"/>
       <use xlink:href="#DejaVuSans-30" x="190.869141"/>
       <use xlink:href="#DejaVuSans-30" x="254.492188"/>
      </g>
     </g>
    </g>
    <g id="ytick_5">
     <g id="line2d_12">
      <g>
       <use xlink:href="#mbc57688c10" x="46.0125" y="44.180969" style="stroke: #000000; stroke-width: 0.8"/>
      </g>
     </g>
     <g id="text_12">
      <!-- 80000 -->
      <g transform="translate(7.2 47.980188) scale(0.1 -0.1)">
       <use xlink:href="#DejaVuSans-38"/>
       <use xlink:href="#DejaVuSans-30" x="63.623047"/>
       <use xlink:href="#DejaVuSans-30" x="127.246094"/>
       <use xlink:href="#DejaVuSans-30" x="190.869141"/>
       <use xlink:href="#DejaVuSans-30" x="254.492188"/>
      </g>
     </g>
    </g>
   </g>
   <g id="line2d_13">
    <path d="M 76.003864 283.871751 
L 76.849778 295.515428 
L 77.172283 297.882641 
L 77.584666 299.313007 
L 77.753849 299.773066 
L 78.324841 302.985115 
L 79.096738 302.633797 
L 79.144321 302.315938 
L 79.202477 302.625432 
L 79.646582 306.322634 
L 79.651869 306.356093 
L 79.699452 306.01314 
L 79.778756 303.963786 
L 79.900356 302.349397 
L 79.937365 302.441409 
L 79.9638 302.541785 
L 80.492497 305.176669 
L 80.598236 305.494528 
L 80.661679 305.452704 
L 80.714549 305.176669 
L 81.005332 303.453538 
L 81.14808 296.569382 
L 81.216811 297.606606 
L 81.56575 305.134845 
L 81.597472 304.908998 
L 81.660916 304.448939 
L 81.719072 304.766798 
L 82.205473 306.86634 
L 82.21076 306.849611 
L 82.353508 301.989714 
L 82.364082 302.014808 
L 82.469821 303.369891 
L 82.797613 307.535517 
L 83.209996 309.367389 
L 83.262866 309.216824 
L 83.532501 308.003941 
L 83.659388 307.359858 
L 83.712258 307.460235 
L 84.225093 309.367389 
L 84.521163 309.63506 
L 84.912399 309.743801 
L 85.113304 310.011472 
L 85.134451 309.969648 
L 85.187321 310.111848 
L 85.34593 310.337695 
L 85.504539 310.228954 
L 85.642 309.63506 
L 85.700157 309.701977 
L 85.758313 309.601601 
L 85.869339 309.300471 
L 85.93807 309.367389 
L 86.212992 310.136942 
L 86.40861 310.036566 
L 86.567219 309.701977 
L 86.609514 309.768895 
L 86.672958 309.869272 
L 86.725828 309.827448 
L 86.77341 309.927824 
L 86.921445 303.001844 
L 87.037759 296.736676 
L 87.111776 298.944959 
L 87.286246 303.645927 
L 87.317968 303.612468 
L 87.323255 303.604103 
L 87.360263 303.737939 
L 87.47129 304.775163 
L 87.688055 306.130246 
L 87.851951 306.573576 
L 87.88896 306.481564 
L 87.931256 305.243587 
L 88.042282 301.103055 
L 88.089865 301.496196 
L 88.597413 305.277045 
L 88.872335 306.15534 
L 88.888196 306.130246 
L 89.252997 306.891435 
L 89.416893 307.343129 
L 89.427467 307.292941 
L 89.480336 307.209294 
L 89.765832 305.109751 
L 90.141207 278.518336 
L 90.162355 278.852925 
L 90.167642 278.852925 
L 90.389694 284.33181 
L 90.43199 284.808599 
L 90.754495 290.965026 
L 90.981834 293.566451 
L 91.018843 293.792298 
L 91.309626 296.092593 
L 91.4418 296.853782 
L 91.489383 296.452276 
L 91.922914 270.488214 
L 91.949349 270.822802 
L 91.975783 270.822802 
L 92.113245 272.579392 
L 92.282427 274.503275 
L 92.287714 274.503275 
L 92.377593 275.172452 
L 92.398741 274.754216 
L 92.811124 217.037713 
L 92.980307 182.658753 
L 93.012028 183.32793 
L 93.614742 216.954066 
L 93.889665 240.291609 
L 94.349631 267.978801 
L 94.846605 280.191278 
L 94.862466 280.191278 
L 94.888901 280.525867 
L 94.941771 279.85669 
L 94.962918 279.85669 
L 95.084519 279.187513 
L 95.126814 279.187513 
L 95.264275 280.525867 
L 95.70838 285.795634 
L 96.00445 287.853353 
L 96.670608 291.27452 
L 96.718191 290.722449 
L 96.871513 288.639636 
L 96.934956 288.857119 
L 96.940243 288.840389 
L 96.982539 289.049507 
L 97.289183 290.939931 
L 97.431931 291.316343 
L 97.442505 291.031943 
L 97.675131 285.218469 
L 97.71214 285.419222 
L 97.796731 285.737081 
L 97.981775 287.075435 
L 98.055793 287.602412 
L 98.209115 288.639636 
L 98.214402 288.631271 
L 98.246123 288.748377 
L 99.033881 294.394557 
L 99.261221 296.435546 
L 99.335238 296.987617 
L 99.377534 296.527558 
L 99.409256 293.231862 
L 99.800491 247.317966 
L 100.017256 242.215492 
L 100.366196 235.35643 
L 100.461362 236.945725 
L 101.518754 281.86422 
L 101.931138 291.475273 
L 102.190199 293.875945 
L 102.195486 293.86758 
L 102.216634 294.018145 
L 102.7982 297.740441 
L 102.835209 297.924465 
L 102.86693 297.531323 
L 103.078409 292.462309 
L 103.168287 290.228931 
L 103.226444 290.70572 
L 103.289888 291.358167 
L 103.326896 290.638802 
L 103.850306 278.183748 
L 103.866167 278.267395 
L 104.03535 281.195044 
L 104.045923 281.195044 
L 104.215106 285.092999 
L 104.701507 291.650932 
L 104.812533 291.977156 
L 104.833681 291.818226 
L 104.907699 289.476107 
L 105.150899 281.529632 
L 105.198482 281.529632 
L 105.351804 280.191278 
L 105.510413 280.274925 
L 105.653161 281.86422 
L 106.049683 286.397894 
L 106.731701 291.818226 
L 106.953754 292.85545 
L 106.964328 292.788532 
L 107.085928 292.236462 
L 107.107076 292.28665 
L 107.170519 292.378662 
L 108.190904 298.125218 
L 108.851774 300.735008 
L 109.142557 301.103055 
L 109.248297 292.403756 
L 109.369897 287.259459 
L 109.406905 287.610777 
L 110.099498 297.757171 
L 110.437864 299.195901 
L 110.469585 299.220995 
L 110.559464 298.476536 
L 110.955986 291.634202 
L 111.114595 290.279119 
L 111.178039 290.530061 
L 111.252056 290.772637 
L 111.289065 290.605343 
L 111.341934 289.350636 
L 111.616857 282.867986 
L 111.643291 282.867986 
L 111.759605 282.366103 
L 111.944648 283.537163 
L 111.949935 283.537163 
L 112.08211 285.185011 
L 112.108544 285.101363 
L 112.140266 285.193375 
L 112.171988 284.842057 
L 112.584371 280.358573 
L 112.62138 280.525867 
L 112.679537 280.609514 
L 112.827572 281.86422 
L 112.843432 281.947868 
L 113.012615 283.871751 
L 113.023189 283.871751 
L 113.192372 286.632105 
L 113.641764 293.081297 
L 114.709731 299.722878 
L 114.715018 299.463572 
L 114.905349 280.860455 
L 115.032236 278.518336 
L 115.053384 279.103866 
L 115.275436 284.373634 
L 115.624376 291.960426 
L 115.671958 289.718684 
L 115.957455 278.852925 
L 115.968028 279.103866 
L 116.671195 291.968791 
L 116.813943 293.850851 
L 116.845665 293.466074 
L 116.998987 290.530061 
L 117.057143 291.057037 
L 117.458952 295.866746 
L 117.511822 295.44851 
L 117.70744 293.348968 
L 117.770883 293.566451 
L 117.887197 293.926133 
L 118.061666 295.18084 
L 118.066953 295.130651 
L 118.352449 280.107631 
L 118.357736 280.191278 
L 118.405319 280.191278 
L 118.548067 278.68563 
L 118.558641 278.68563 
L 118.627372 278.518336 
L 118.653806 278.852925 
L 118.66438 278.852925 
L 118.669667 278.852925 
L 118.865285 282.867986 
L 118.870572 282.867986 
L 119.055616 287.6526 
L 119.647756 296.067499 
L 119.896243 297.163276 
L 120.1976 298.0583 
L 120.234609 298.141947 
L 120.73687 302.023173 
L 121.175689 305.14321 
L 121.413602 305.946222 
L 121.529915 306.322634 
L 121.762542 307.092188 
L 121.810124 307.192564 
L 122.053325 307.602435 
L 122.169638 307.702811 
L 122.396977 308.279977 
L 122.402264 308.271612 
L 122.465708 308.380353 
L 122.624317 308.6062 
L 122.650752 308.472365 
L 122.708908 308.162871 
L 122.772352 308.3218 
L 122.804074 308.388718 
L 122.846369 308.330165 
L 122.98383 307.769729 
L 123.073709 307.359858 
L 123.131865 307.535517 
L 123.755727 309.969648 
L 123.930197 310.070025 
L 124.199832 310.555178 
L 124.210406 310.446437 
L 124.316145 310.50499 
L 124.369015 310.412978 
L 124.739103 307.87847 
L 124.74439 307.886835 
L 124.754963 307.552247 
L 124.950581 303.478633 
L 124.961155 303.445174 
L 124.998164 303.579009 
L 125.659034 307.928659 
L 125.743626 307.318035 
L 125.886374 304.658057 
L 125.981539 305.193398 
L 126.568392 308.974247 
L 126.76401 309.534683 
L 126.822167 309.434307 
L 127.297993 308.054129 
L 127.350863 308.129412 
L 127.847838 309.969648 
L 127.853125 309.961283 
L 127.900707 310.086754 
L 128.265508 310.479895 
L 128.381821 310.446437 
L 128.291943 310.50499 
L 128.387108 310.463166 
L 128.445265 310.571907 
L 128.572152 310.64719 
L 128.582726 310.638825 
L 128.630308 310.705743 
L 128.667317 310.697378 
L 128.852361 310.806119 
L 128.857648 310.797754 
L 129.407492 310.906496 
L 129.714136 311.249449 
L 129.72471 311.21599 
L 129.77758 311.182531 
L 129.825162 311.257813 
L 129.883319 311.291272 
L 129.941476 311.241084 
L 130.047215 311.132343 
L 130.174102 311.015237 
L 130.189963 311.031966 
L 130.390868 311.149072 
L 130.49132 311.174166 
L 130.496607 311.182531 
L 130.681651 311.282908 
L 130.782103 311.416743 
L 130.824399 311.374919 
L 130.998869 311.266178 
L 131.051738 311.207625 
L 131.014729 311.282908 
L 131.099321 311.282908 
L 131.157478 311.333096 
L 131.199773 311.241084 
L 131.273791 311.140708 
L 131.300226 311.065425 
L 131.358382 311.174166 
L 131.390104 311.140708 
L 131.495843 311.140708 
L 131.448261 311.115613 
L 131.50113 311.132343 
L 131.654452 311.031966 
L 131.781339 310.839578 
L 131.7972 310.873037 
L 131.865931 310.981778 
L 132.019253 311.383284 
L 132.072122 311.408378 
L 132.103844 311.299637 
L 132.241305 311.257813 
L 132.114418 311.308002 
L 132.246592 311.266178 
L 132.288888 311.282908 
L 132.315323 311.190896 
L 132.325897 311.190896 
L 132.405201 310.605366 
L 132.611393 306.72414 
L 132.759428 303.27788 
L 132.785863 303.336433 
L 133.378003 305.996411 
L 133.420298 305.87094 
L 133.621203 304.775163 
L 133.652925 304.883904 
L 133.705794 305.159939 
L 134.213343 307.669353 
L 134.504126 308.229788 
L 134.5147 308.213059 
L 134.599291 308.296706 
L 134.905935 308.405447 
L 135.196718 308.664753 
L 135.254875 308.76513 
L 135.582667 309.793989 
L 135.799432 310.337695 
L 135.952754 310.454801 
L 136.127224 310.530084 
L 136.132511 310.513354 
L 136.22239 310.563542 
L 136.227676 310.546813 
L 136.354564 310.622095 
L 136.476164 310.714107 
L 136.613625 310.839578 
L 136.735225 310.939954 
L 136.914982 311.140708 
L 137.12646 311.282908 
L 137.152895 311.308002 
L 137.253348 311.282908 
L 137.443678 311.374919 
L 137.607574 311.64259 
L 137.708027 311.634225 
L 137.723887 311.64259 
L 138.125697 311.751331 
L 138.215575 311.793155 
L 138.247297 311.759696 
L 138.379471 311.709508 
L 138.474636 311.709508 
L 138.41648 311.667684 
L 138.490497 311.701143 
L 140.473109 311.80152 
L 140.589422 311.851708 
L 140.599996 311.843343 
L 141.319023 311.742967 
L 141.43005 311.65932 
L 141.440624 311.692778 
L 141.456484 311.676049 
L 141.572798 311.709508 
L 141.683824 311.692778 
L 141.699685 311.709508 
L 141.932311 311.600767 
L 142.053911 311.466931 
L 142.154364 311.115613 
L 142.360555 310.337695 
L 142.392277 310.245683 
L 142.609043 308.229788 
L 142.794086 304.540951 
L 142.868104 305.051198 
L 143.095443 306.949988 
L 143.491966 307.384952 
L 143.497253 307.376588 
L 143.560696 307.460235 
L 143.708731 307.627529 
L 144.004801 308.288341 
L 144.173984 308.656388 
L 144.232141 308.756765 
L 144.781985 310.162036 
L 144.787272 310.136942 
L 144.86129 310.270778 
L 144.866577 310.270778 
L 145.331829 310.806119 
L 145.64376 310.898131 
L 145.760074 310.990143 
L 145.770647 310.981778 
L 146.082578 311.07379 
L 146.214752 311.174166 
L 146.378648 311.241084 
L 146.568979 311.006872 
L 146.664144 310.981778 
L 146.600701 310.973413 
L 146.669431 310.973413 
L 146.838614 310.50499 
L 146.939067 310.279142 
L 146.991936 310.295872 
L 146.997223 310.312601 
L 147.065954 310.254048 
L 147.092389 310.254048 
L 147.277432 310.036566 
L 147.446615 310.136942 
L 147.721537 310.638825 
L 147.726824 310.63046 
L 147.76912 310.705743 
L 147.800842 310.705743 
L 147.927729 310.797754 
L 148.033468 310.781025 
L 147.948877 310.806119 
L 148.038755 310.814484 
L 148.29253 310.923225 
L 148.424704 311.040331 
L 148.435278 311.015237 
L 148.451138 310.973413 
L 148.541017 311.040331 
L 148.837087 311.140708 
L 148.969261 311.199261 
L 148.985122 311.224355 
L 149.080287 311.21599 
L 149.265331 311.308002 
L 149.482097 311.408378 
L 149.608984 311.508755 
L 149.757019 311.475296 
L 150.624081 311.584037 
L 150.66109 311.609131 
L 150.698098 311.525484 
L 150.772116 310.429707 
L 150.856707 309.133177 
L 150.920151 309.367389 
L 151.010029 309.601601 
L 151.099908 309.467765 
L 151.247943 309.300471 
L 151.263804 309.308836 
L 151.898239 309.384118 
L 152.046274 309.701977 
L 152.125579 309.802354 
L 152.241892 309.969648 
L 152.268327 309.952919 
L 152.342344 310.053295 
L 152.527388 310.270778 
L 152.62784 310.162036 
L 152.797023 309.869272 
L 152.834032 309.869272 
L 152.881615 309.802354 
L 152.886902 309.810719 
L 153.003215 309.810719 
L 153.119528 309.894366 
L 153.124815 309.877636 
L 153.256989 309.869272 
L 153.579494 309.768895 
L 153.637651 306.824517 
L 153.732816 290.287484 
L 153.859703 284.599481 
L 153.891425 284.892246 
L 154.113477 288.480707 
L 154.176921 286.883047 
L 154.250939 285.435952 
L 154.303808 286.080035 
L 154.721478 293.265321 
L 154.742626 292.905638 
L 155.197305 286.874682 
L 155.387636 280.525867 
L 155.408784 280.860455 
L 155.429932 280.944102 
L 155.577967 282.784339 
L 155.911045 286.322611 
L 155.921619 286.339341 
L 155.953341 286.113493 
L 156.402733 280.191278 
L 156.40802 280.191278 
L 156.614212 283.202574 
L 156.619499 283.202574 
L 156.926143 289.425919 
L 157.433691 295.44851 
L 157.465413 294.486569 
L 157.581726 290.320943 
L 157.639883 291.048673 
L 157.76677 292.311744 
L 157.824927 292.194638 
L 157.930666 290.195472 
L 158.031118 288.848754 
L 158.073414 289.066236 
L 158.670841 296.90397 
L 158.718424 296.678123 
L 158.734284 296.653029 
L 158.771293 296.786864 
L 159.035641 298.4849 
L 159.442738 300.735008 
L 159.506181 300.24149 
L 159.749382 297.4895 
L 159.966147 294.980087 
L 160.108895 289.191707 
L 160.209348 289.952896 
L 160.272791 290.170378 
L 160.330948 290.053272 
L 160.389104 290.162013 
L 160.500131 291.550555 
L 160.72747 294.988451 
L 160.78034 294.854616 
L 160.944236 293.984686 
L 161.055262 287.568953 
L 161.309036 243.888434 
L 161.694985 36.19267 
L 161.73728 43.888204 
L 161.901176 84.624345 
L 162.012202 92.989055 
L 161.954046 83.871521 
L 162.038637 91.148819 
L 162.287125 76.67787 
L 162.049211 92.821761 
L 162.324133 79.605518 
L 162.334707 78.183518 
L 162.419299 88.472112 
L 162.599056 120.341659 
L 163.222917 193.44923 
L 163.978953 244.473964 
L 164.396623 263.96374 
L 164.465354 265.469388 
L 164.497076 263.796446 
L 164.502363 263.796446 
L 164.512937 263.796446 
L 164.655685 261.788915 
L 164.660972 261.872562 
L 164.666259 261.872562 
L 164.734989 263.294563 
L 164.798433 263.127269 
L 165.205529 258.443031 
L 165.210816 258.443031 
L 165.268973 257.941148 
L 165.327129 258.108442 
L 165.491025 259.781385 
L 165.501599 259.781385 
L 165.824104 266.473153 
L 165.829391 266.473153 
L 166.183617 274.168687 
L 166.194191 274.252334 
L 166.384522 278.100101 
L 167.235723 289.81906 
L 167.246297 289.777237 
L 167.299167 290.111825 
L 167.463063 290.563519 
L 167.526506 290.906473 
L 167.600524 290.722449 
L 167.648107 290.613708 
L 167.806716 291.249426 
L 168.134507 292.261556 
L 168.18209 292.085897 
L 168.282542 291.901873 
L 168.30369 291.968791 
L 168.335412 292.052438 
L 168.890543 294.854616 
L 169.112596 295.373228 
L 169.334648 295.716181 
L 169.339935 295.699452 
L 169.461535 291.190873 
L 169.472109 291.249426 
L 169.551414 292.14445 
L 169.900354 295.18084 
L 170.01138 295.900205 
L 170.238719 296.653029 
L 170.302163 296.552652 
L 170.37618 296.251523 
L 170.439624 296.385358 
L 170.487207 296.485735 
L 170.566511 296.510829 
L 170.714546 288.990954 
L 170.836146 290.84792 
L 171.169225 295.44851 
L 171.232669 295.983852 
L 171.26439 295.406687 
L 171.391278 293.240227 
L 171.43886 293.449345 
L 172.43281 299.028607 
L 172.475105 299.137348 
L 172.74474 300.132748 
L 172.79761 300.233125 
L 173.691107 304.992645 
L 174.029473 307.8952 
L 174.066482 307.995576 
L 174.177508 308.296706 
L 174.240951 308.196329 
L 174.7485 306.958352 
L 174.949405 307.067093 
L 175.118588 307.502058 
L 175.150309 306.832882 
L 175.234901 306.874705 
L 175.293057 306.824517 
L 175.335353 306.916529 
L 175.34064 306.916529 
L 175.684293 308.02067 
L 175.87991 308.522553 
L 175.990937 308.731671 
L 176.022658 308.698212 
L 176.387459 307.794823 
L 176.408607 307.828282 
L 176.662381 308.029035 
L 176.746973 308.137776 
L 176.916155 308.505824 
L 176.958451 308.556012 
L 177.016608 308.472365 
L 177.085338 308.388718 
L 177.132921 308.430541 
L 177.328539 308.940789 
L 177.577026 309.367389 
L 177.651044 309.367389 
L 177.666904 309.417577 
L 177.867809 309.534683 
L 178.17974 309.643424 
L 178.407079 310.187131 
L 178.607984 310.48826 
L 178.613271 310.479895 
L 178.872332 310.371154 
L 179.083811 310.170401 
L 179.104959 310.195495 
L 179.252994 310.262413 
L 179.258281 310.237319 
L 179.295289 310.178766 
L 179.422177 308.840412 
L 179.496194 308.965883 
L 179.686525 309.33393 
L 179.808125 309.250283 
L 180.00903 308.664753 
L 180.07776 308.7484 
L 180.141204 308.840412 
L 180.19936 308.823683 
L 180.431987 308.932424 
L 180.706909 309.434307 
L 180.786213 309.359024 
L 180.997692 308.564377 
L 181.039988 308.455635 
L 181.209171 308.0374 
L 181.235605 308.062494 
L 181.283188 308.162871 
L 181.806598 309.459401 
L 181.95992 309.568142 
L 182.15025 309.810719 
L 182.245416 309.911095 
L 182.430459 310.136942 
L 182.509764 310.245683 
L 182.67366 310.496625 
L 182.678947 310.479895 
L 182.758251 310.563542 
L 182.768825 310.546813 
L 182.890425 310.597001 
L 182.91686 310.571907 
L 182.96973 310.622095 
L 183.001452 310.605366 
L 183.524861 310.714107 
L 183.535435 310.739201 
L 183.577731 310.613731 
L 183.583018 310.613731 
L 183.752201 310.546813 
L 184.021836 310.64719 
L 184.302045 311.165802 
L 184.317906 311.174166 
L 184.418358 311.140708 
L 184.539958 311.174166 
L 184.836028 310.906496 
L 184.841315 310.93159 
L 184.883611 310.873037 
L 184.941768 310.873037 
L 185.454603 310.973413 
L 185.549769 311.07379 
L 185.58149 311.048696 
L 186.274083 311.006872 
L 186.395683 306.322634 
L 186.4697 304.147809 
L 186.527857 304.741704 
L 186.950814 306.757599 
L 186.956101 306.749234 
L 187.040692 307.050364 
L 187.06184 306.765964 
L 187.098849 304.323468 
L 187.331476 287.635871 
L 187.342049 287.585683 
L 187.379058 288.020647 
L 187.611685 296.719946 
L 187.775581 300.542619 
L 187.817876 299.814889 
L 187.987059 294.327639 
L 188.187964 277.179983 
L 188.256694 277.26363 
L 188.399442 278.852925 
L 188.404729 278.852925 
L 188.621495 282.198809 
L 188.626782 282.198809 
L 188.721947 281.529632 
L 188.743095 281.86422 
L 188.758956 281.86422 
L 188.901704 283.537163 
L 189.039165 281.86422 
L 189.092035 282.282456 
L 189.097322 282.282456 
L 189.245357 284.223069 
L 189.403966 286.757576 
L 189.514992 288.555989 
L 189.557288 287.870083 
L 189.969671 264.381975 
L 190.033114 264.54927 
L 190.937185 279.438454 
L 191.005916 278.434689 
L 191.143377 277.179983 
L 191.175099 277.096335 
L 191.196247 276.845394 
L 191.217394 277.179983 
L 191.280838 277.179983 
L 191.301986 277.179983 
L 191.476456 280.191278 
L 191.650926 282.198809 
L 191.682647 282.282456 
L 191.835969 284.298351 
L 192.364666 290.923202 
L 192.380527 290.981755 
L 192.396388 290.747543 
L 192.681884 283.537163 
L 192.734753 283.871751 
L 192.745327 283.871751 
L 192.888075 284.883881 
L 193.041397 286.966694 
L 193.474928 293.114756 
L 194.267973 298.242324 
L 194.32613 297.832453 
L 194.458304 296.126052 
L 194.532321 296.602841 
L 194.632774 297.614971 
L 195.135035 301.328902 
L 195.372949 302.341032 
L 195.452253 302.650526 
L 195.653158 303.369891 
L 195.801193 303.779762 
L 195.80648 303.671021 
L 195.954515 295.716181 
L 196.007384 296.226429 
L 196.107837 297.313841 
L 196.144845 296.719946 
L 196.39862 292.361932 
L 196.414481 292.370297 
L 196.668255 290.362766 
L 196.752846 290.923202 
L 197.122934 295.030275 
L 197.276256 296.117687 
L 197.292117 295.532158 
L 197.561752 280.860455 
L 197.625195 281.529632 
L 197.778517 283.537163 
L 198.566275 294.302545 
L 198.608571 294.553486 
L 198.783041 295.055369 
L 198.814762 295.130651 
L 198.851771 294.971722 
L 199.031528 292.12772 
L 199.137267 292.42885 
L 199.190137 292.495768 
L 199.232433 292.378662 
L 199.280015 292.278285 
L 199.348746 292.378662 
L 200.289826 298.944959 
L 200.622904 300.484066 
L 200.638765 300.467337 
L 200.728644 300.576078 
L 200.929548 301.136514 
L 201.55341 303.98888 
L 201.579845 303.721209 
L 201.775463 290.70572 
L 201.912924 293.181674 
L 202.029237 295.130651 
L 202.097967 294.929898 
L 202.214281 294.662228 
L 202.26715 294.745875 
L 202.409898 294.888075 
L 202.446907 294.837887 
L 202.499777 294.787698 
L 202.531499 294.87971 
L 202.542072 294.87971 
L 202.56322 294.954993 
L 202.600229 294.628769 
L 203.002038 287.251094 
L 203.03376 287.351471 
L 203.181795 289.425919 
L 203.567744 289.701954 
L 203.573031 289.593213 
L 203.80037 285.519599 
L 203.832092 285.586517 
L 204.006562 286.908141 
L 204.471815 291.960426 
L 205.048094 296.376993 
L 205.238424 297.815724 
L 205.830564 302.382856 
L 206.242948 304.783527 
L 206.311678 304.892269 
L 206.470287 305.226857 
L 206.486148 305.118116 
L 206.660618 304.398751 
L 206.665905 304.382021 
L 206.724061 304.482398 
L 206.745209 304.482398 
L 207.495958 306.489928 
L 207.903054 306.59867 
L 207.913628 306.590305 
L 208.177977 307.234388 
L 208.405316 308.154506 
L 208.64323 308.965883 
L 208.701386 309.074624 
L 208.875856 309.367389 
L 209.156065 309.701977 
L 209.171926 309.676883 
L 209.23537 308.371988 
L 209.420413 304.474033 
L 209.452135 304.591139 
L 210.12358 309.057895 
L 210.287475 309.166636 
L 210.694572 310.011472 
L 210.948346 310.689013 
L 210.953633 310.672284 
L 211.038224 310.764296 
L 211.233842 311.140708 
L 211.260277 311.115613 
L 211.265564 311.098884 
L 211.339581 311.174166 
L 211.371303 311.132343 
L 211.714956 311.475296 
L 211.942295 311.575672 
L 212.116765 311.876802 
L 212.185496 311.910261 
L 212.233078 311.860073 
L 212.359966 311.776426 
L 212.37054 311.78479 
L 212.502714 311.843343 
L 212.68247 311.742967 
L 212.904523 309.969648 
L 212.946819 310.078389 
L 213.385637 312.144473 
L 213.427932 312.253214 
L 213.575967 312.420508 
L 213.660559 312.470697 
L 213.67642 312.37032 
L 213.893185 311.709508 
L 214.14696 311.818249 
L 214.363725 312.144473 
L 214.416595 312.244849 
L 214.480038 312.353591 
L 214.532908 312.269943 
L 214.7391 311.977179 
L 214.823691 312.060826 
L 214.9823 312.378685 
L 215.1039 312.487426 
L 215.262509 312.704908 
L 215.585014 313.014403 
L 215.706614 313.114779 
L 215.854649 313.215156 
L 215.981536 313.215156 
L 216.356911 313.315532 
L 216.489085 313.415909 
L 216.70585 313.52465 
L 216.869746 313.68358 
L 217.012494 313.574838 
L 217.186964 313.273709 
L 217.446025 312.67145 
L 217.736809 311.07379 
L 217.789678 311.199261 
L 217.99587 311.793155 
L 218.281366 312.612897 
L 218.41354 312.51252 
L 218.630306 311.868437 
L 218.693749 311.977179 
L 218.889367 312.278308 
L 218.968671 312.219755 
L 218.973958 312.21139 
L 219.016254 312.345226 
L 219.24888 312.914026 
L 219.291176 313.022767 
L 219.30175 313.047862 
L 626.355722 244.808553 
L 626.524905 247.736201 
L 626.535479 247.819848 
L 626.741671 252.755028 
L 626.947862 258.777619 
L 627.344385 272.495745 
L 627.349672 272.495745 
L 627.571724 279.522101 
L 627.746194 282.533397 
L 627.941812 283.871751 
L 628.105708 283.871751 
L 628.296038 286.381164 
L 628.856457 294.754239 
L 628.904039 294.369463 
L 629.015066 292.738344 
L 629.089083 293.039474 
L 629.141953 293.29878 
L 629.258266 293.658462 
L 629.279414 293.599909 
L 629.427449 294.43638 
L 629.453884 294.545122 
L 629.485605 294.210533 
L 629.517327 290.170378 
L 629.681223 278.183748 
L 629.691797 278.267395 
L 629.839832 280.191278 
L 629.855693 280.274925 
L 630.03545 283.537163 
L 630.516563 289.409189 
L 630.74919 290.864649 
L 630.754477 290.839555 
L 630.775625 290.739178 
L 630.854929 290.220566 
L 630.918373 290.354402 
L 631.008251 291.266155 
L 631.404773 297.656794 
L 632.377575 304.524221 
L 632.382862 304.499127 
L 632.446306 304.733339 
L 632.737089 305.394151 
L 632.922132 305.737104 
L 632.953854 305.795657 
L 632.99615 305.686916 
L 633.138898 303.838315 
L 633.218202 304.256551 
L 633.23935 304.356927 
L 633.297507 304.708245 
L 633.376811 304.641327 
L 633.53542 304.139445 
L 633.545994 304.156174 
L 633.667594 304.281645 
L 633.76276 304.181268 
L 633.794481 304.248186 
L 634.027108 305.402516 
L 634.085265 305.695281 
L 634.238586 306.15534 
L 634.24916 306.138611 
L 634.360187 305.419245 
L 634.793718 302.014808 
L 634.867735 302.282479 
L 635.174379 303.98888 
L 635.237823 303.921962 
L 635.66078 304.783527 
L 635.840537 305.979681 
L 636.099598 306.707411 
L 636.152468 306.74087 
L 636.311077 306.381187 
L 636.321651 306.406281 
L 636.390381 306.238987 
L 636.570138 305.553081 
L 636.585999 305.527987 
L 636.633581 305.628363 
L 637.01953 307.058729 
L 637.030104 306.991811 
L 637.093547 307.108917 
L 637.336748 304.340198 
L 637.426626 303.880139 
L 637.479496 304.013974 
L 637.675113 305.277045 
L 637.738557 305.578175 
L 637.90774 306.339364 
L 638.066349 307.209294 
L 638.372993 308.355259 
L 638.410001 308.305071 
L 638.827672 305.85421 
L 638.922837 304.440574 
L 638.980994 304.750069 
L 639.023289 304.917363 
L 639.208333 305.419245 
L 639.224194 305.385787 
L 639.271777 305.553081 
L 639.345794 305.703646 
L 639.351081 305.561446 
L 639.599569 298.953324 
L 639.63129 298.760936 
L 639.705308 298.970054 
L 640.630527 307.995576 
L 640.873727 308.631294 
L 640.884301 308.6062 
L 641.423571 308.714941 
L 641.539884 308.7484 
L 641.545171 308.731671 
L 641.587467 308.706577 
L 641.767224 303.478633 
L 641.825381 303.587374 
L 641.968129 304.800257 
L 642.692443 308.687059 
L 642.840478 308.999342 
L 643.141835 309.601601 
L 643.321592 309.258648 
L 643.379748 309.308836 
L 643.395609 309.33393 
L 643.469627 309.241918 
L 643.474913 309.241918 
L 643.570079 309.133177 
L 643.628235 309.200095 
L 643.797418 309.289318 
L 644.24681 309.835813 
L 644.415993 309.936189 
L 644.558741 310.070025 
L 644.638046 310.170401 
L 644.775507 310.245683 
L 644.949977 309.785624 
L 645.050429 307.159105 
L 645.267194 297.548053 
L 645.367647 298.576912 
L 645.552691 300.124384 
L 645.653143 299.990548 
L 645.65843 299.982184 
L 645.695439 300.09929 
L 646.091961 303.269515 
L 646.239996 303.56228 
L 646.419753 303.888503 
L 646.551927 304.298374 
L 646.66824 305.034469 
L 647.122919 308.313435 
L 647.371406 308.740036 
L 647.43485 308.840412 
L 647.704485 309.325565 
L 647.752068 309.384118 
L 647.831372 309.267012 
L 647.857807 309.33393 
L 647.926538 309.233554 
L 648.127442 304.423845 
L 648.259616 305.017739 
L 648.360069 305.193398 
L 648.386504 305.101386 
L 648.603269 304.515857 
L 648.645565 304.641327 
L 648.730156 304.741704 
L 648.761878 304.708245 
L 648.825322 304.616233 
L 648.872904 304.566045 
L 648.920487 304.691516 
L 648.925774 304.674786 
L 649.570784 307.200929 
L 650.088906 308.62293 
L 650.110054 308.547647 
L 650.115341 308.530918 
L 650.168211 308.673118 
L 650.194645 308.639659 
L 650.252802 308.530918 
L 650.27395 308.438906 
L 650.358541 308.564377 
L 650.543585 308.781859 
L 650.644037 308.781859 
L 650.554159 308.798589 
L 650.649324 308.815318 
L 650.686333 308.798589 
L 650.91896 309.584871 
L 650.955968 309.643424 
L 650.998264 309.267012 
L 651.23089 308.162871 
L 651.320769 308.271612 
L 651.45823 308.438906 
L 651.5111 308.330165 
L 651.521673 308.3218 
L 651.563969 308.438906 
L 651.569256 308.430541 
L 651.939344 309.367389 
L 651.971065 309.33393 
L 652.452179 309.241918 
L 652.542058 309.19173 
L 652.563206 309.216824 
L 652.631936 309.200095 
L 652.579066 309.233554 
L 652.674232 309.241918 
L 652.801119 309.33393 
L 652.93858 309.501224 
L 653.11305 309.685248 
L 653.118337 309.593236 
L 653.224076 309.584871 
L 653.144772 309.668518 
L 653.229363 309.601601 
L 653.245224 309.660154 
L 653.292807 309.451036 
L 653.324528 309.543048 
L 654.064703 306.556846 
L 654.191591 306.481564 
L 654.085851 306.590305 
L 654.202165 306.515023 
L 654.233886 306.498293 
L 654.334339 306.640493 
L 654.3502 306.59867 
L 654.424217 306.72414 
L 654.429504 306.699046 
L 654.445365 306.690681 
L 654.572252 306.966717 
L 654.577539 306.975082 
L 654.582826 306.891435 
L 654.863035 294.637134 
L 655.143244 278.518336 
L 655.333575 273.49951 
L 655.349436 273.583157 
L 655.782967 289.007683 
L 656.07375 292.704885 
L 656.539003 295.515428 
L 656.554864 295.515428 
L 656.576012 292.972556 
L 656.813925 264.047387 
L 656.988395 260.78515 
L 657.141717 262.123503 
L 657.152291 262.123503 
L 657.284465 263.127269 
L 657.289752 263.127269 
L 657.443074 265.803976 
L 657.448361 265.803976 
L 657.527665 267.811507 
L 657.564674 266.640447 
L 657.776153 259.112208 
L 657.818448 259.781385 
L 658.188536 272.161156 
L 658.315423 275.841629 
L 658.468745 279.187513 
L 658.474032 279.103866 
L 658.516328 278.852925 
L 658.56391 279.522101 
L 658.574484 279.522101 
L 658.585058 279.605749 
L 658.907563 286.381164 
L 659.161337 291.592379 
L 659.653025 298.886407 
L 660.012539 301.11142 
L 660.266313 302.499961 
L 660.350904 302.81782 
L 660.572957 303.56228 
L 660.578244 303.528821 
L 660.652261 303.754668 
L 660.657548 303.729574 
L 660.752714 303.863409 
L 660.784435 303.763033 
L 660.789722 303.771397 
L 660.837305 303.679386 
L 661.112227 302.642162 
L 661.360714 302.53342 
L 662.122037 298.752571 
L 662.227777 298.919865 
L 662.476264 299.906901 
L 662.486838 299.890172 
L 662.523847 299.982184 
L 662.576716 298.509995 
L 662.772334 277.765512 
L 663.380335 254.093381 
L 663.385622 254.093381 
L 663.533657 251.751262 
L 663.544231 251.751262 
L 663.697553 250.412909 
L 663.708127 250.412909 
L 663.776857 250.07832 
L 663.819153 250.412909 
L 663.82444 250.329262 
L 663.887884 250.831144 
L 663.89317 250.831144 
L 664.094075 253.758793 
L 664.104649 253.84244 
L 664.316128 258.777619 
L 664.321415 258.777619 
L 664.53818 265.469388 
L 664.760233 271.910215 
L 664.818389 270.822802 
L 665.125033 261.454327 
L 665.273068 261.537974 
L 665.384094 261.872562 
L 665.399955 261.788915 
L 665.436964 261.788915 
L 665.643156 264.800211 
L 665.833486 269.484449 
L 666.103122 277.096335 
L 666.504931 284.591116 
L 666.594809 283.118927 
L 666.737557 281.529632 
L 666.748131 281.445985 
L 667.038914 272.830333 
L 667.049488 272.746686 
L 667.192236 271.241038 
L 667.271541 271.157391 
L 667.287402 271.408332 
L 667.657489 279.020219 
L 667.789663 281.780573 
L 667.816098 280.860455 
L 668.117455 268.815272 
L 668.455821 257.690207 
L 668.550986 258.443031 
L 668.704308 259.781385 
L 668.709595 259.781385 
L 669.412761 278.518336 
L 669.481492 278.936572 
L 669.50264 278.518336 
L 670.16351 243.386552 
L 670.168797 243.470199 
L 670.221667 242.717375 
L 670.232241 242.717375 
L 670.258676 242.717375 
L 670.316832 242.215492 
L 670.369702 242.717375 
L 670.374989 242.633728 
L 670.44372 243.219258 
L 670.449006 243.302905 
L 670.491302 242.299139 
L 670.501876 242.466434 
L 670.63405 241.379021 
L 670.644624 241.462668 
L 670.671059 241.462668 
L 671.019999 249.074555 
L 671.15746 247.067024 
L 671.168034 247.150672 
L 671.189182 247.067024 
L 671.22619 246.89973 
L 671.257912 247.48526 
L 671.268486 247.48526 
L 671.532834 252.420439 
L 671.538121 252.420439 
L 671.702017 255.766323 
L 671.908209 260.78515 
L 672.029809 263.043622 
L 672.056244 261.956209 
L 672.273009 254.42797 
L 672.315305 254.762558 
L 672.320592 254.762558 
L 672.325879 254.929852 
L 672.394609 254.093381 
L 672.41047 254.093381 
L 672.70654 247.736201 
L 672.902158 242.382786 
L 673.023758 241.379021 
L 673.05548 241.71361 
L 673.060767 241.71361 
L 674.41423 281.86422 
L 674.424804 281.362338 
L 674.572839 277.849159 
L 674.625708 278.518336 
L 674.8319 281.86422 
L 674.863622 280.525867 
L 675.027518 277.514571 
L 675.032805 277.598218 
L 675.05924 277.514571 
L 675.201988 276.510806 
L 675.217848 276.510806 
L 675.37117 277.849159 
L 675.376457 277.849159 
L 675.529779 280.525867 
L 675.788841 285.235199 
L 675.831136 286.029846 
L 675.831136 286.029846 
" clip-path="url(#p172a437181)" style="fill: none; stroke: #1f77b4; stroke-width: 1.5; stroke-linecap: square"/>
   </g>
   <g id="line2d_14">
    <path d="M 76.003864 283.871751 
L 675.831136 283.871751 
L 675.831136 283.871751 
" clip-path="url(#p172a437181)" style="fill: none; stroke: #ff7f0e; stroke-width: 1.5; stroke-linecap: square"/>
   </g>
   <g id="patch_3">
    <path d="M 46.0125 327.558125 
L 46.0125 22.318125 
" style="fill: none; stroke: #000000; stroke-width: 0.8; stroke-linejoin: miter; stroke-linecap: square"/>
   </g>
   <g id="patch_4">
    <path d="M 705.8225 327.558125 
L 705.8225 22.318125 
" style="fill: none; stroke: #000000; stroke-width: 0.8; stroke-linejoin: miter; stroke-linecap: square"/>
   </g>
   <g id="patch_5">
    <path d="M 46.0125 327.558125 
L 705.8225 327.558125 
" style="fill: none; stroke: #000000; stroke-width: 0.8; stroke-linejoin: miter; stroke-linecap: square"/>
   </g>
   <g id="patch_6">
    <path d="M 46.0125 22.318125 
L 705.8225 22.318125 
" style="fill: none; stroke: #000000; stroke-width: 0.8; stroke-linejoin: miter; stroke-linecap: square"/>
   </g>
   <g id="text_13">
    <!-- training -->
    <g transform="translate(352.674062 16.318125) scale(0.12 -0.12)">
     <defs>
      <path id="DejaVuSans-74" d="M 1172 4494 
L 1172 3500 
L 2356 3500 
L 2356 3053 
L 1172 3053 
L 1172 1153 
Q 1172 725 1289 603 
Q 1406 481 1766 481 
L 2356 481 
L 2356 0 
L 1766 0 
Q 1100 0 847 248 
Q 594 497 594 1153 
L 594 3053 
L 172 3053 
L 172 3500 
L 594 3500 
L 594 4494 
L 1172 4494 
z
" transform="scale(0.015625)"/>
      <path id="DejaVuSans-72" d="M 2631 2963 
Q 2534 3019 2420 3045 
Q 2306 3072 2169 3072 
Q 1681 3072 1420 2755 
Q 1159 2438 1159 1844 
L 1159 0 
L 581 0 
L 581 3500 
L 1159 3500 
L 1159 2956 
Q 1341 3275 1631 3429 
Q 1922 3584 2338 3584 
Q 2397 3584 2469 3576 
Q 2541 3569 2628 3553 
L 2631 2963 
z
" transform="scale(0.015625)"/>
      <path id="DejaVuSans-61" d="M 2194 1759 
Q 1497 1759 1228 1600 
Q 959 1441 959 1056 
Q 959 750 1161 570 
Q 1363 391 1709 391 
Q 2188 391 2477 730 
Q 2766 1069 2766 1631 
L 2766 1759 
L 2194 1759 
z
M 3341 1997 
L 3341 0 
L 2766 0 
L 2766 531 
Q 2569 213 2275 61 
Q 1981 -91 1556 -91 
Q 1019 -91 701 211 
Q 384 513 384 1019 
Q 384 1609 779 1909 
Q 1175 2209 1959 2209 
L 2766 2209 
L 2766 2266 
Q 2766 2663 2505 2880 
Q 2244 3097 1772 3097 
Q 1472 3097 1187 3025 
Q 903 2953 641 2809 
L 641 3341 
Q 956 3463 1253 3523 
Q 1550 3584 1831 3584 
Q 2591 3584 2966 3190 
Q 3341 2797 3341 1997 
z
" transform="scale(0.015625)"/>
      <path id="DejaVuSans-69" d="M 603 3500 
L 1178 3500 
L 1178 0 
L 603 0 
L 603 3500 
z
M 603 4863 
L 1178 4863 
L 1178 4134 
L 603 4134 
L 603 4863 
z
" transform="scale(0.015625)"/>
      <path id="DejaVuSans-6e" d="M 3513 2113 
L 3513 0 
L 2938 0 
L 2938 2094 
Q 2938 2591 2744 2837 
Q 2550 3084 2163 3084 
Q 1697 3084 1428 2787 
Q 1159 2491 1159 1978 
L 1159 0 
L 581 0 
L 581 3500 
L 1159 3500 
L 1159 2956 
Q 1366 3272 1645 3428 
Q 1925 3584 2291 3584 
Q 2894 3584 3203 3211 
Q 3513 2838 3513 2113 
z
" transform="scale(0.015625)"/>
      <path id="DejaVuSans-67" d="M 2906 1791 
Q 2906 2416 2648 2759 
Q 2391 3103 1925 3103 
Q 1463 3103 1205 2759 
Q 947 2416 947 1791 
Q 947 1169 1205 825 
Q 1463 481 1925 481 
Q 2391 481 2648 825 
Q 2906 1169 2906 1791 
z
M 3481 434 
Q 3481 -459 3084 -895 
Q 2688 -1331 1869 -1331 
Q 1566 -1331 1297 -1286 
Q 1028 -1241 775 -1147 
L 775 -588 
Q 1028 -725 1275 -790 
Q 1522 -856 1778 -856 
Q 2344 -856 2625 -561 
Q 2906 -266 2906 331 
L 2906 616 
Q 2728 306 2450 153 
Q 2172 0 1784 0 
Q 1141 0 747 490 
Q 353 981 353 1791 
Q 353 2603 747 3093 
Q 1141 3584 1784 3584 
Q 2172 3584 2450 3431 
Q 2728 3278 2906 2969 
L 2906 3500 
L 3481 3500 
L 3481 434 
z
" transform="scale(0.015625)"/>
     </defs>
     <use xlink:href="#DejaVuSans-74"/>
     <use xlink:href="#DejaVuSans-72" x="39.208984"/>
     <use xlink:href="#DejaVuSans-61" x="80.322266"/>
     <use xlink:href="#DejaVuSans-69" x="141.601562"/>
     <use xlink:href="#DejaVuSans-6e" x="169.384766"/>
     <use xlink:href="#DejaVuSans-69" x="232.763672"/>
     <use xlink:href="#DejaVuSans-6e" x="260.546875"/>
     <use xlink:href="#DejaVuSans-67" x="323.925781"/>
    </g>
   </g>
   <g id="legend_1">
    <g id="patch_7">
     <path d="M 617.42875 59.674375 
L 698.8225 59.674375 
Q 700.8225 59.674375 700.8225 57.674375 
L 700.8225 29.318125 
Q 700.8225 27.318125 698.8225 27.318125 
L 617.42875 27.318125 
Q 615.42875 27.318125 615.42875 29.318125 
L 615.42875 57.674375 
Q 615.42875 59.674375 617.42875 59.674375 
z
" style="fill: #ffffff; opacity: 0.8; stroke: #cccccc; stroke-linejoin: miter"/>
    </g>
    <g id="line2d_15">
     <path d="M 619.42875 35.416562 
L 629.42875 35.416562 
L 639.42875 35.416562 
" style="fill: none; stroke: #1f77b4; stroke-width: 1.5; stroke-linecap: square"/>
    </g>
    <g id="text_14">
     <!-- observed -->
     <g transform="translate(647.42875 38.916562) scale(0.1 -0.1)">
      <defs>
       <path id="DejaVuSans-6f" d="M 1959 3097 
Q 1497 3097 1228 2736 
Q 959 2375 959 1747 
Q 959 1119 1226 758 
Q 1494 397 1959 397 
Q 2419 397 2687 759 
Q 2956 1122 2956 1747 
Q 2956 2369 2687 2733 
Q 2419 3097 1959 3097 
z
M 1959 3584 
Q 2709 3584 3137 3096 
Q 3566 2609 3566 1747 
Q 3566 888 3137 398 
Q 2709 -91 1959 -91 
Q 1206 -91 779 398 
Q 353 888 353 1747 
Q 353 2609 779 3096 
Q 1206 3584 1959 3584 
z
" transform="scale(0.015625)"/>
       <path id="DejaVuSans-62" d="M 3116 1747 
Q 3116 2381 2855 2742 
Q 2594 3103 2138 3103 
Q 1681 3103 1420 2742 
Q 1159 2381 1159 1747 
Q 1159 1113 1420 752 
Q 1681 391 2138 391 
Q 2594 391 2855 752 
Q 3116 1113 3116 1747 
z
M 1159 2969 
Q 1341 3281 1617 3432 
Q 1894 3584 2278 3584 
Q 2916 3584 3314 3078 
Q 3713 2572 3713 1747 
Q 3713 922 3314 415 
Q 2916 -91 2278 -91 
Q 1894 -91 1617 61 
Q 1341 213 1159 525 
L 1159 0 
L 581 0 
L 581 4863 
L 1159 4863 
L 1159 2969 
z
" transform="scale(0.015625)"/>
       <path id="DejaVuSans-73" d="M 2834 3397 
L 2834 2853 
Q 2591 2978 2328 3040 
Q 2066 3103 1784 3103 
Q 1356 3103 1142 2972 
Q 928 2841 928 2578 
Q 928 2378 1081 2264 
Q 1234 2150 1697 2047 
L 1894 2003 
Q 2506 1872 2764 1633 
Q 3022 1394 3022 966 
Q 3022 478 2636 193 
Q 2250 -91 1575 -91 
Q 1294 -91 989 -36 
Q 684 19 347 128 
L 347 722 
Q 666 556 975 473 
Q 1284 391 1588 391 
Q 1994 391 2212 530 
Q 2431 669 2431 922 
Q 2431 1156 2273 1281 
Q 2116 1406 1581 1522 
L 1381 1569 
Q 847 1681 609 1914 
Q 372 2147 372 2553 
Q 372 3047 722 3315 
Q 1072 3584 1716 3584 
Q 2034 3584 2315 3537 
Q 2597 3491 2834 3397 
z
" transform="scale(0.015625)"/>
       <path id="DejaVuSans-65" d="M 3597 1894 
L 3597 1613 
L 953 1613 
Q 991 1019 1311 708 
Q 1631 397 2203 397 
Q 2534 397 2845 478 
Q 3156 559 3463 722 
L 3463 178 
Q 3153 47 2828 -22 
Q 2503 -91 2169 -91 
Q 1331 -91 842 396 
Q 353 884 353 1716 
Q 353 2575 817 3079 
Q 1281 3584 2069 3584 
Q 2775 3584 3186 3129 
Q 3597 2675 3597 1894 
z
M 3022 2063 
Q 3016 2534 2758 2815 
Q 2500 3097 2075 3097 
Q 1594 3097 1305 2825 
Q 1016 2553 972 2059 
L 3022 2063 
z
" transform="scale(0.015625)"/>
       <path id="DejaVuSans-76" d="M 191 3500 
L 800 3500 
L 1894 563 
L 2988 3500 
L 3597 3500 
L 2284 0 
L 1503 0 
L 191 3500 
z
" transform="scale(0.015625)"/>
       <path id="DejaVuSans-64" d="M 2906 2969 
L 2906 4863 
L 3481 4863 
L 3481 0 
L 2906 0 
L 2906 525 
Q 2725 213 2448 61 
Q 2172 -91 1784 -91 
Q 1150 -91 751 415 
Q 353 922 353 1747 
Q 353 2572 751 3078 
Q 1150 3584 1784 3584 
Q 2172 3584 2448 3432 
Q 2725 3281 2906 2969 
z
M 947 1747 
Q 947 1113 1208 752 
Q 1469 391 1925 391 
Q 2381 391 2643 752 
Q 2906 1113 2906 1747 
Q 2906 2381 2643 2742 
Q 2381 3103 1925 3103 
Q 1469 3103 1208 2742 
Q 947 2381 947 1747 
z
" transform="scale(0.015625)"/>
      </defs>
      <use xlink:href="#DejaVuSans-6f"/>
      <use xlink:href="#DejaVuSans-62" x="61.181641"/>
      <use xlink:href="#DejaVuSans-73" x="124.658203"/>
      <use xlink:href="#DejaVuSans-65" x="176.757812"/>
      <use xlink:href="#DejaVuSans-72" x="238.28125"/>
      <use xlink:href="#DejaVuSans-76" x="279.394531"/>
      <use xlink:href="#DejaVuSans-65" x="338.574219"/>
      <use xlink:href="#DejaVuSans-64" x="400.097656"/>
     </g>
    </g>
    <g id="line2d_16">
     <path d="M 619.42875 50.094688 
L 629.42875 50.094688 
L 639.42875 50.094688 
" style="fill: none; stroke: #ff7f0e; stroke-width: 1.5; stroke-linecap: square"/>
    </g>
    <g id="text_15">
     <!-- simulated -->
     <g transform="translate(647.42875 53.594688) scale(0.1 -0.1)">
      <defs>
       <path id="DejaVuSans-6d" d="M 3328 2828 
Q 3544 3216 3844 3400 
Q 4144 3584 4550 3584 
Q 5097 3584 5394 3201 
Q 5691 2819 5691 2113 
L 5691 0 
L 5113 0 
L 5113 2094 
Q 5113 2597 4934 2840 
Q 4756 3084 4391 3084 
Q 3944 3084 3684 2787 
Q 3425 2491 3425 1978 
L 3425 0 
L 2847 0 
L 2847 2094 
Q 2847 2600 2669 2842 
Q 2491 3084 2119 3084 
Q 1678 3084 1418 2786 
Q 1159 2488 1159 1978 
L 1159 0 
L 581 0 
L 581 3500 
L 1159 3500 
L 1159 2956 
Q 1356 3278 1631 3431 
Q 1906 3584 2284 3584 
Q 2666 3584 2933 3390 
Q 3200 3197 3328 2828 
z
" transform="scale(0.015625)"/>
       <path id="DejaVuSans-75" d="M 544 1381 
L 544 3500 
L 1119 3500 
L 1119 1403 
Q 1119 906 1312 657 
Q 1506 409 1894 409 
Q 2359 409 2629 706 
Q 2900 1003 2900 1516 
L 2900 3500 
L 3475 3500 
L 3475 0 
L 2900 0 
L 2900 538 
Q 2691 219 2414 64 
Q 2138 -91 1772 -91 
Q 1169 -91 856 284 
Q 544 659 544 1381 
z
M 1991 3584 
L 1991 3584 
z
" transform="scale(0.015625)"/>
       <path id="DejaVuSans-6c" d="M 603 4863 
L 1178 4863 
L 1178 0 
L 603 0 
L 603 4863 
z
" transform="scale(0.015625)"/>
      </defs>
      <use xlink:href="#DejaVuSans-73"/>
      <use xlink:href="#DejaVuSans-69" x="52.099609"/>
      <use xlink:href="#DejaVuSans-6d" x="79.882812"/>
      <use xlink:href="#DejaVuSans-75" x="177.294922"/>
      <use xlink:href="#DejaVuSans-6c" x="240.673828"/>
      <use xlink:href="#DejaVuSans-61" x="268.457031"/>
      <use xlink:href="#DejaVuSans-74" x="329.736328"/>
      <use xlink:href="#DejaVuSans-65" x="368.945312"/>
      <use xlink:href="#DejaVuSans-64" x="430.46875"/>
     </g>
    </g>
   </g>
  </g>
 </g>
 <defs>
  <clipPath id="p172a437181">
   <rect x="46.0125" y="22.318125" width="659.81" height="305.24"/>
  </clipPath>
 </defs>
</svg>
