<?xml version="1.0" encoding="utf-8" standalone="no"?>
<!DOCTYPE svg PUBLIC "-//W3C//DTD SVG 1.1//EN"
  "http://www.w3.org/Graphics/SVG/1.1/DTD/svg11.dtd">
<svg xmlns:xlink="http://www.w3.org/1999/xlink" width="720pt" height="360pt" viewBox="0 0 720 360" xmlns="http://www.w3.org/2000/svg" version="1.1">
 <metadata>
  <rdf:RDF xmlns:dc="http://purl.org/dc/elements/1.1/" xmlns:cc="http://creativecommons.org/ns#" xmlns:rdf="http://www.w3.org/1999/02/22-rdf-syntax-ns#">
   <cc:Work>
    <dc:type rdf:resource="http://purl.org/dc/dcmitype/StillImage"/>
    <dc:date>2023-10-23T10:53:06.671651</dc:date>
    <dc:format>image/svg+xml</dc:format>
    <dc:creator>
     <cc:Agent>
      <dc:title>Matplotlib v3.7.1, https://matplotlib.org/</dc:title>
     </cc:Agent>
    </dc:creator>
   </cc:Work>
  </rdf:RDF>
 </metadata>
 <defs>
  <style type="text/css">*{stroke-linejoin: round; stroke-linecap: butt}</style>
 </defs>
 <g id="figure_1">
  <g id="patch_1">
   <path d="M 0 360 
L 720 360 
L 720 0 
L 0 0 
z
" style="fill: #ffffff"/>
  </g>
  <g id="axes_1">
   <g id="patch_2">
    <path d="M 90 288 
L 648 288 
L 648 43.2 
L 90 43.2 
z
" style="fill: #ffffff"/>
   </g>
   <g id="matplotlib.axis_1">
    <g id="xtick_1">
     <g id="line2d_1">
      <defs>
       <path id="mda3e23c1cc" d="M 0 0 
L 0 3.5 
" style="stroke: #000000; stroke-width: 0.8"/>
      </defs>
      <g>
       <use xlink:href="#mda3e23c1cc" x="149.370747" y="288" style="stroke: #000000; stroke-width: 0.8"/>
      </g>
     </g>
     <g id="text_1">
      <!-- 2023-08-15 -->
      <g transform="translate(87.727405 337.765903) rotate(-30) scale(0.12 -0.12)">
       <defs>
        <path id="DejaVuSans-32" d="M 1228 531 
L 3431 531 
L 3431 0 
L 469 0 
L 469 531 
Q 828 903 1448 1529 
Q 2069 2156 2228 2338 
Q 2531 2678 2651 2914 
Q 2772 3150 2772 3378 
Q 2772 3750 2511 3984 
Q 2250 4219 1831 4219 
Q 1534 4219 1204 4116 
Q 875 4013 500 3803 
L 500 4441 
Q 881 4594 1212 4672 
Q 1544 4750 1819 4750 
Q 2544 4750 2975 4387 
Q 3406 4025 3406 3419 
Q 3406 3131 3298 2873 
Q 3191 2616 2906 2266 
Q 2828 2175 2409 1742 
Q 1991 1309 1228 531 
z
" transform="scale(0.015625)"/>
        <path id="DejaVuSans-30" d="M 2034 4250 
Q 1547 4250 1301 3770 
Q 1056 3291 1056 2328 
Q 1056 1369 1301 889 
Q 1547 409 2034 409 
Q 2525 409 2770 889 
Q 3016 1369 3016 2328 
Q 3016 3291 2770 3770 
Q 2525 4250 2034 4250 
z
M 2034 4750 
Q 2819 4750 3233 4129 
Q 3647 3509 3647 2328 
Q 3647 1150 3233 529 
Q 2819 -91 2034 -91 
Q 1250 -91 836 529 
Q 422 1150 422 2328 
Q 422 3509 836 4129 
Q 1250 4750 2034 4750 
z
" transform="scale(0.015625)"/>
        <path id="DejaVuSans-33" d="M 2597 2516 
Q 3050 2419 3304 2112 
Q 3559 1806 3559 1356 
Q 3559 666 3084 287 
Q 2609 -91 1734 -91 
Q 1441 -91 1130 -33 
Q 819 25 488 141 
L 488 750 
Q 750 597 1062 519 
Q 1375 441 1716 441 
Q 2309 441 2620 675 
Q 2931 909 2931 1356 
Q 2931 1769 2642 2001 
Q 2353 2234 1838 2234 
L 1294 2234 
L 1294 2753 
L 1863 2753 
Q 2328 2753 2575 2939 
Q 2822 3125 2822 3475 
Q 2822 3834 2567 4026 
Q 2313 4219 1838 4219 
Q 1578 4219 1281 4162 
Q 984 4106 628 3988 
L 628 4550 
Q 988 4650 1302 4700 
Q 1616 4750 1894 4750 
Q 2613 4750 3031 4423 
Q 3450 4097 3450 3541 
Q 3450 3153 3228 2886 
Q 3006 2619 2597 2516 
z
" transform="scale(0.015625)"/>
        <path id="DejaVuSans-2d" d="M 313 2009 
L 1997 2009 
L 1997 1497 
L 313 1497 
L 313 2009 
z
" transform="scale(0.015625)"/>
        <path id="DejaVuSans-38" d="M 2034 2216 
Q 1584 2216 1326 1975 
Q 1069 1734 1069 1313 
Q 1069 891 1326 650 
Q 1584 409 2034 409 
Q 2484 409 2743 651 
Q 3003 894 3003 1313 
Q 3003 1734 2745 1975 
Q 2488 2216 2034 2216 
z
M 1403 2484 
Q 997 2584 770 2862 
Q 544 3141 544 3541 
Q 544 4100 942 4425 
Q 1341 4750 2034 4750 
Q 2731 4750 3128 4425 
Q 3525 4100 3525 3541 
Q 3525 3141 3298 2862 
Q 3072 2584 2669 2484 
Q 3125 2378 3379 2068 
Q 3634 1759 3634 1313 
Q 3634 634 3220 271 
Q 2806 -91 2034 -91 
Q 1263 -91 848 271 
Q 434 634 434 1313 
Q 434 1759 690 2068 
Q 947 2378 1403 2484 
z
M 1172 3481 
Q 1172 3119 1398 2916 
Q 1625 2713 2034 2713 
Q 2441 2713 2670 2916 
Q 2900 3119 2900 3481 
Q 2900 3844 2670 4047 
Q 2441 4250 2034 4250 
Q 1625 4250 1398 4047 
Q 1172 3844 1172 3481 
z
" transform="scale(0.015625)"/>
        <path id="DejaVuSans-31" d="M 794 531 
L 1825 531 
L 1825 4091 
L 703 3866 
L 703 4441 
L 1819 4666 
L 2450 4666 
L 2450 531 
L 3481 531 
L 3481 0 
L 794 0 
L 794 531 
z
" transform="scale(0.015625)"/>
        <path id="DejaVuSans-35" d="M 691 4666 
L 3169 4666 
L 3169 4134 
L 1269 4134 
L 1269 2991 
Q 1406 3038 1543 3061 
Q 1681 3084 1819 3084 
Q 2600 3084 3056 2656 
Q 3513 2228 3513 1497 
Q 3513 744 3044 326 
Q 2575 -91 1722 -91 
Q 1428 -91 1123 -41 
Q 819 9 494 109 
L 494 744 
Q 775 591 1075 516 
Q 1375 441 1709 441 
Q 2250 441 2565 725 
Q 2881 1009 2881 1497 
Q 2881 1984 2565 2268 
Q 2250 2553 1709 2553 
Q 1456 2553 1204 2497 
Q 953 2441 691 2322 
L 691 4666 
z
" transform="scale(0.015625)"/>
       </defs>
       <use xlink:href="#DejaVuSans-32"/>
       <use xlink:href="#DejaVuSans-30" x="63.623047"/>
       <use xlink:href="#DejaVuSans-32" x="127.246094"/>
       <use xlink:href="#DejaVuSans-33" x="190.869141"/>
       <use xlink:href="#DejaVuSans-2d" x="254.492188"/>
       <use xlink:href="#DejaVuSans-30" x="290.576172"/>
       <use xlink:href="#DejaVuSans-38" x="354.199219"/>
       <use xlink:href="#DejaVuSans-2d" x="417.822266"/>
       <use xlink:href="#DejaVuSans-31" x="453.90625"/>
       <use xlink:href="#DejaVuSans-35" x="517.529297"/>
      </g>
     </g>
    </g>
    <g id="xtick_2">
     <g id="line2d_2">
      <g>
       <use xlink:href="#mda3e23c1cc" x="264.994921" y="288" style="stroke: #000000; stroke-width: 0.8"/>
      </g>
     </g>
     <g id="text_2">
      <!-- 2023-09-01 -->
      <g transform="translate(203.35158 337.765903) rotate(-30) scale(0.12 -0.12)">
       <defs>
        <path id="DejaVuSans-39" d="M 703 97 
L 703 672 
Q 941 559 1184 500 
Q 1428 441 1663 441 
Q 2288 441 2617 861 
Q 2947 1281 2994 2138 
Q 2813 1869 2534 1725 
Q 2256 1581 1919 1581 
Q 1219 1581 811 2004 
Q 403 2428 403 3163 
Q 403 3881 828 4315 
Q 1253 4750 1959 4750 
Q 2769 4750 3195 4129 
Q 3622 3509 3622 2328 
Q 3622 1225 3098 567 
Q 2575 -91 1691 -91 
Q 1453 -91 1209 -44 
Q 966 3 703 97 
z
M 1959 2075 
Q 2384 2075 2632 2365 
Q 2881 2656 2881 3163 
Q 2881 3666 2632 3958 
Q 2384 4250 1959 4250 
Q 1534 4250 1286 3958 
Q 1038 3666 1038 3163 
Q 1038 2656 1286 2365 
Q 1534 2075 1959 2075 
z
" transform="scale(0.015625)"/>
       </defs>
       <use xlink:href="#DejaVuSans-32"/>
       <use xlink:href="#DejaVuSans-30" x="63.623047"/>
       <use xlink:href="#DejaVuSans-32" x="127.246094"/>
       <use xlink:href="#DejaVuSans-33" x="190.869141"/>
       <use xlink:href="#DejaVuSans-2d" x="254.492188"/>
       <use xlink:href="#DejaVuSans-30" x="290.576172"/>
       <use xlink:href="#DejaVuSans-39" x="354.199219"/>
       <use xlink:href="#DejaVuSans-2d" x="417.822266"/>
       <use xlink:href="#DejaVuSans-30" x="453.90625"/>
       <use xlink:href="#DejaVuSans-31" x="517.529297"/>
      </g>
     </g>
    </g>
    <g id="xtick_3">
     <g id="line2d_3">
      <g>
       <use xlink:href="#mda3e23c1cc" x="360.21483" y="288" style="stroke: #000000; stroke-width: 0.8"/>
      </g>
     </g>
     <g id="text_3">
      <!-- 2023-09-15 -->
      <g transform="translate(298.571488 337.765903) rotate(-30) scale(0.12 -0.12)">
       <use xlink:href="#DejaVuSans-32"/>
       <use xlink:href="#DejaVuSans-30" x="63.623047"/>
       <use xlink:href="#DejaVuSans-32" x="127.246094"/>
       <use xlink:href="#DejaVuSans-33" x="190.869141"/>
       <use xlink:href="#DejaVuSans-2d" x="254.492188"/>
       <use xlink:href="#DejaVuSans-30" x="290.576172"/>
       <use xlink:href="#DejaVuSans-39" x="354.199219"/>
       <use xlink:href="#DejaVuSans-2d" x="417.822266"/>
       <use xlink:href="#DejaVuSans-31" x="453.90625"/>
       <use xlink:href="#DejaVuSans-35" x="517.529297"/>
      </g>
     </g>
    </g>
    <g id="xtick_4">
     <g id="line2d_4">
      <g>
       <use xlink:href="#mda3e23c1cc" x="469.037583" y="288" style="stroke: #000000; stroke-width: 0.8"/>
      </g>
     </g>
     <g id="text_4">
      <!-- 2023-10-01 -->
      <g transform="translate(407.394241 337.765903) rotate(-30) scale(0.12 -0.12)">
       <use xlink:href="#DejaVuSans-32"/>
       <use xlink:href="#DejaVuSans-30" x="63.623047"/>
       <use xlink:href="#DejaVuSans-32" x="127.246094"/>
       <use xlink:href="#DejaVuSans-33" x="190.869141"/>
       <use xlink:href="#DejaVuSans-2d" x="254.492188"/>
       <use xlink:href="#DejaVuSans-31" x="290.576172"/>
       <use xlink:href="#DejaVuSans-30" x="354.199219"/>
       <use xlink:href="#DejaVuSans-2d" x="417.822266"/>
       <use xlink:href="#DejaVuSans-30" x="453.90625"/>
       <use xlink:href="#DejaVuSans-31" x="517.529297"/>
      </g>
     </g>
    </g>
    <g id="xtick_5">
     <g id="line2d_5">
      <g>
       <use xlink:href="#mda3e23c1cc" x="564.257491" y="288" style="stroke: #000000; stroke-width: 0.8"/>
      </g>
     </g>
     <g id="text_5">
      <!-- 2023-10-15 -->
      <g transform="translate(502.614149 337.765903) rotate(-30) scale(0.12 -0.12)">
       <use xlink:href="#DejaVuSans-32"/>
       <use xlink:href="#DejaVuSans-30" x="63.623047"/>
       <use xlink:href="#DejaVuSans-32" x="127.246094"/>
       <use xlink:href="#DejaVuSans-33" x="190.869141"/>
       <use xlink:href="#DejaVuSans-2d" x="254.492188"/>
       <use xlink:href="#DejaVuSans-31" x="290.576172"/>
       <use xlink:href="#DejaVuSans-30" x="354.199219"/>
       <use xlink:href="#DejaVuSans-2d" x="417.822266"/>
       <use xlink:href="#DejaVuSans-31" x="453.90625"/>
       <use xlink:href="#DejaVuSans-35" x="517.529297"/>
      </g>
     </g>
    </g>
   </g>
   <g id="matplotlib.axis_2">
    <g id="ytick_1">
     <g id="line2d_6">
      <defs>
       <path id="mc7b5cc34b7" d="M 0 0 
L -3.5 0 
" style="stroke: #000000; stroke-width: 0.8"/>
      </defs>
      <g>
       <use xlink:href="#mc7b5cc34b7" x="90" y="251.533566" style="stroke: #000000; stroke-width: 0.8"/>
      </g>
     </g>
     <g id="text_6">
      <!-- 0.2 -->
      <g transform="translate(63.91625 256.092629) scale(0.12 -0.12)">
       <defs>
        <path id="DejaVuSans-2e" d="M 684 794 
L 1344 794 
L 1344 0 
L 684 0 
L 684 794 
z
" transform="scale(0.015625)"/>
       </defs>
       <use xlink:href="#DejaVuSans-30"/>
       <use xlink:href="#DejaVuSans-2e" x="63.623047"/>
       <use xlink:href="#DejaVuSans-32" x="95.410156"/>
      </g>
     </g>
    </g>
    <g id="ytick_2">
     <g id="line2d_7">
      <g>
       <use xlink:href="#mc7b5cc34b7" x="90" y="214.474336" style="stroke: #000000; stroke-width: 0.8"/>
      </g>
     </g>
     <g id="text_7">
      <!-- 0.4 -->
      <g transform="translate(63.91625 219.033399) scale(0.12 -0.12)">
       <defs>
        <path id="DejaVuSans-34" d="M 2419 4116 
L 825 1625 
L 2419 1625 
L 2419 4116 
z
M 2253 4666 
L 3047 4666 
L 3047 1625 
L 3713 1625 
L 3713 1100 
L 3047 1100 
L 3047 0 
L 2419 0 
L 2419 1100 
L 313 1100 
L 313 1709 
L 2253 4666 
z
" transform="scale(0.015625)"/>
       </defs>
       <use xlink:href="#DejaVuSans-30"/>
       <use xlink:href="#DejaVuSans-2e" x="63.623047"/>
       <use xlink:href="#DejaVuSans-34" x="95.410156"/>
      </g>
     </g>
    </g>
    <g id="ytick_3">
     <g id="line2d_8">
      <g>
       <use xlink:href="#mc7b5cc34b7" x="90" y="177.415106" style="stroke: #000000; stroke-width: 0.8"/>
      </g>
     </g>
     <g id="text_8">
      <!-- 0.6 -->
      <g transform="translate(63.91625 181.974169) scale(0.12 -0.12)">
       <defs>
        <path id="DejaVuSans-36" d="M 2113 2584 
Q 1688 2584 1439 2293 
Q 1191 2003 1191 1497 
Q 1191 994 1439 701 
Q 1688 409 2113 409 
Q 2538 409 2786 701 
Q 3034 994 3034 1497 
Q 3034 2003 2786 2293 
Q 2538 2584 2113 2584 
z
M 3366 4563 
L 3366 3988 
Q 3128 4100 2886 4159 
Q 2644 4219 2406 4219 
Q 1781 4219 1451 3797 
Q 1122 3375 1075 2522 
Q 1259 2794 1537 2939 
Q 1816 3084 2150 3084 
Q 2853 3084 3261 2657 
Q 3669 2231 3669 1497 
Q 3669 778 3244 343 
Q 2819 -91 2113 -91 
Q 1303 -91 875 529 
Q 447 1150 447 2328 
Q 447 3434 972 4092 
Q 1497 4750 2381 4750 
Q 2619 4750 2861 4703 
Q 3103 4656 3366 4563 
z
" transform="scale(0.015625)"/>
       </defs>
       <use xlink:href="#DejaVuSans-30"/>
       <use xlink:href="#DejaVuSans-2e" x="63.623047"/>
       <use xlink:href="#DejaVuSans-36" x="95.410156"/>
      </g>
     </g>
    </g>
    <g id="ytick_4">
     <g id="line2d_9">
      <g>
       <use xlink:href="#mc7b5cc34b7" x="90" y="140.355876" style="stroke: #000000; stroke-width: 0.8"/>
      </g>
     </g>
     <g id="text_9">
      <!-- 0.8 -->
      <g transform="translate(63.91625 144.914939) scale(0.12 -0.12)">
       <use xlink:href="#DejaVuSans-30"/>
       <use xlink:href="#DejaVuSans-2e" x="63.623047"/>
       <use xlink:href="#DejaVuSans-38" x="95.410156"/>
      </g>
     </g>
    </g>
    <g id="ytick_5">
     <g id="line2d_10">
      <g>
       <use xlink:href="#mc7b5cc34b7" x="90" y="103.296647" style="stroke: #000000; stroke-width: 0.8"/>
      </g>
     </g>
     <g id="text_10">
      <!-- 1.0 -->
      <g transform="translate(63.91625 107.855709) scale(0.12 -0.12)">
       <use xlink:href="#DejaVuSans-31"/>
       <use xlink:href="#DejaVuSans-2e" x="63.623047"/>
       <use xlink:href="#DejaVuSans-30" x="95.410156"/>
      </g>
     </g>
    </g>
    <g id="ytick_6">
     <g id="line2d_11">
      <g>
       <use xlink:href="#mc7b5cc34b7" x="90" y="66.237417" style="stroke: #000000; stroke-width: 0.8"/>
      </g>
     </g>
     <g id="text_11">
      <!-- 1.2 -->
      <g transform="translate(63.91625 70.796479) scale(0.12 -0.12)">
       <use xlink:href="#DejaVuSans-31"/>
       <use xlink:href="#DejaVuSans-2e" x="63.623047"/>
       <use xlink:href="#DejaVuSans-32" x="95.410156"/>
      </g>
     </g>
    </g>
    <g id="text_12">
     <!-- Meters -->
     <g transform="translate(57.836562 182.6875) rotate(-90) scale(0.1 -0.1)">
      <defs>
       <path id="DejaVuSans-4d" d="M 628 4666 
L 1569 4666 
L 2759 1491 
L 3956 4666 
L 4897 4666 
L 4897 0 
L 4281 0 
L 4281 4097 
L 3078 897 
L 2444 897 
L 1241 4097 
L 1241 0 
L 628 0 
L 628 4666 
z
" transform="scale(0.015625)"/>
       <path id="DejaVuSans-65" d="M 3597 1894 
L 3597 1613 
L 953 1613 
Q 991 1019 1311 708 
Q 1631 397 2203 397 
Q 2534 397 2845 478 
Q 3156 559 3463 722 
L 3463 178 
Q 3153 47 2828 -22 
Q 2503 -91 2169 -91 
Q 1331 -91 842 396 
Q 353 884 353 1716 
Q 353 2575 817 3079 
Q 1281 3584 2069 3584 
Q 2775 3584 3186 3129 
Q 3597 2675 3597 1894 
z
M 3022 2063 
Q 3016 2534 2758 2815 
Q 2500 3097 2075 3097 
Q 1594 3097 1305 2825 
Q 1016 2553 972 2059 
L 3022 2063 
z
" transform="scale(0.015625)"/>
       <path id="DejaVuSans-74" d="M 1172 4494 
L 1172 3500 
L 2356 3500 
L 2356 3053 
L 1172 3053 
L 1172 1153 
Q 1172 725 1289 603 
Q 1406 481 1766 481 
L 2356 481 
L 2356 0 
L 1766 0 
Q 1100 0 847 248 
Q 594 497 594 1153 
L 594 3053 
L 172 3053 
L 172 3500 
L 594 3500 
L 594 4494 
L 1172 4494 
z
" transform="scale(0.015625)"/>
       <path id="DejaVuSans-72" d="M 2631 2963 
Q 2534 3019 2420 3045 
Q 2306 3072 2169 3072 
Q 1681 3072 1420 2755 
Q 1159 2438 1159 1844 
L 1159 0 
L 581 0 
L 581 3500 
L 1159 3500 
L 1159 2956 
Q 1341 3275 1631 3429 
Q 1922 3584 2338 3584 
Q 2397 3584 2469 3576 
Q 2541 3569 2628 3553 
L 2631 2963 
z
" transform="scale(0.015625)"/>
       <path id="DejaVuSans-73" d="M 2834 3397 
L 2834 2853 
Q 2591 2978 2328 3040 
Q 2066 3103 1784 3103 
Q 1356 3103 1142 2972 
Q 928 2841 928 2578 
Q 928 2378 1081 2264 
Q 1234 2150 1697 2047 
L 1894 2003 
Q 2506 1872 2764 1633 
Q 3022 1394 3022 966 
Q 3022 478 2636 193 
Q 2250 -91 1575 -91 
Q 1294 -91 989 -36 
Q 684 19 347 128 
L 347 722 
Q 666 556 975 473 
Q 1284 391 1588 391 
Q 1994 391 2212 530 
Q 2431 669 2431 922 
Q 2431 1156 2273 1281 
Q 2116 1406 1581 1522 
L 1381 1569 
Q 847 1681 609 1914 
Q 372 2147 372 2553 
Q 372 3047 722 3315 
Q 1072 3584 1716 3584 
Q 2034 3584 2315 3537 
Q 2597 3491 2834 3397 
z
" transform="scale(0.015625)"/>
      </defs>
      <use xlink:href="#DejaVuSans-4d"/>
      <use xlink:href="#DejaVuSans-65" x="86.279297"/>
      <use xlink:href="#DejaVuSans-74" x="147.802734"/>
      <use xlink:href="#DejaVuSans-65" x="187.011719"/>
      <use xlink:href="#DejaVuSans-72" x="248.535156"/>
      <use xlink:href="#DejaVuSans-73" x="289.648438"/>
     </g>
    </g>
   </g>
   <g id="line2d_12">
    <path d="M 115.363636 254.933105 
L 115.647029 253.901887 
L 116.780599 254.88988 
L 117.063992 253.068268 
L 117.347384 252.883019 
L 117.630777 253.006518 
L 118.480955 252.605146 
L 118.764347 252.080274 
L 119.04774 252.080274 
L 119.331133 252.450772 
L 119.897918 254.210635 
L 120.18131 254.11801 
L 120.464703 254.766381 
L 120.748095 254.88988 
L 121.031488 255.6 
L 121.314881 253.315266 
L 121.598273 253.377015 
L 121.881666 253.160892 
L 122.165058 253.099142 
L 122.448451 253.284391 
L 122.731844 253.932762 
L 123.015236 253.809262 
L 123.298629 254.17976 
L 123.582021 253.932762 
L 123.865414 254.303259 
L 124.148807 254.241509 
L 124.432199 254.457633 
L 124.715592 254.210635 
L 124.998984 254.272384 
L 125.565769 253.500515 
L 126.132555 255.6 
L 126.415947 256.680617 
L 126.69934 257.236364 
L 126.982732 256.927616 
L 127.266125 254.272384 
L 127.549518 253.500515 
L 127.83291 254.056261 
L 128.399695 238.402744 
L 128.683088 238.279245 
L 128.96648 242.292967 
L 129.249873 244.021955 
L 129.533266 244.454202 
L 129.816658 242.848714 
L 130.100051 243.064837 
L 130.666836 245.967067 
L 131.233621 247.387307 
L 132.367191 248.776672 
L 132.933977 249.270669 
L 133.217369 250.320412 
L 133.500762 250.690909 
L 133.784154 251.648027 
L 134.067547 251.648027 
L 134.35094 252.358148 
L 134.634332 253.500515 
L 134.917725 253.809262 
L 135.201117 254.365009 
L 135.48451 254.488508 
L 135.767902 254.272384 
L 136.051295 254.88988 
L 136.61808 255.167753 
L 136.901473 255.507376 
L 137.184865 255.507376 
L 137.751651 255.167753 
L 138.035043 255.198628 
L 138.318436 254.766381 
L 138.601828 254.82813 
L 138.885221 254.673756 
L 139.452006 253.901887 
L 139.735399 254.025386 
L 140.585576 256.001372 
L 140.868969 256.37187 
L 141.152362 256.340995 
L 141.435754 255.816123 
L 141.719147 255.908748 
L 142.002539 255.846998 
L 142.285932 256.279245 
L 142.569325 258.316981 
L 142.852717 258.069983 
L 143.13611 255.353002 
L 143.419502 255.846998 
L 143.702895 258.471355 
L 143.986287 258.934477 
L 144.26968 258.841852 
L 144.553073 258.316981 
L 144.836465 258.409605 
L 145.119858 258.008233 
L 145.970036 255.198628 
L 146.253428 254.704631 
L 146.536821 254.920755 
L 146.820213 254.82813 
L 147.386998 255.939623 
L 147.670391 256.340995 
L 147.953784 255.785249 
L 148.237176 253.932762 
L 148.520569 254.334134 
L 149.087354 255.445626 
L 149.654139 251.370154 
L 149.937532 247.356432 
L 150.504317 248.498799 
L 150.787709 248.776672 
L 151.071102 237.383877 
L 151.354495 209.781818 
L 151.637887 211.294683 
L 151.92128 216.018525 
L 152.204672 209.349571 
L 152.488065 207.497084 
L 153.05485 215.524528 
L 153.621635 222.996226 
L 154.471813 228.430189 
L 155.605383 233.586278 
L 156.738954 236.241509 
L 157.589132 237.476501 
L 157.872524 238.155746 
L 159.006094 239.390738 
L 159.289487 240.162607 
L 159.856272 238.927616 
L 160.139665 239.637736 
L 160.70645 242.848714 
L 160.989843 243.40446 
L 161.84002 245.658319 
L 162.123413 245.936192 
L 162.406805 246.831561 
L 162.690198 246.275815 
L 162.973591 246.24494 
L 163.256983 246.461063 
L 163.540376 246.399314 
L 163.823768 246.152316 
L 164.107161 246.214065 
L 164.390554 246.461063 
L 164.673946 246.461063 
L 165.240731 246.800686 
L 165.807517 246.800686 
L 166.374302 246.152316 
L 166.941087 246.553688 
L 167.791265 248.560549 
L 168.074657 244.423328 
L 168.641442 227.195197 
L 168.924835 227.318696 
L 169.208228 227.781818 
L 169.49162 221.02024 
L 169.775013 219.569125 
L 170.62519 225.682333 
L 171.191976 228.275815 
L 171.475368 229.696055 
L 172.608939 232.50566 
L 172.892331 233.030532 
L 173.175724 232.752659 
L 173.742509 233.431904 
L 174.309294 235.809262 
L 174.592687 236.272384 
L 175.159472 238.340995 
L 175.442864 239.236364 
L 175.726257 239.514237 
L 176.859827 241.21235 
L 177.14322 241.582847 
L 177.710005 241.459348 
L 178.27679 241.86072 
L 178.843575 243.033962 
L 179.126968 242.879588 
L 179.410361 242.972213 
L 179.693753 243.527959 
L 180.260538 242.509091 
L 180.543931 242.756089 
L 181.110716 245.040823 
L 181.394109 244.732075 
L 181.677501 245.256947 
L 181.960894 246.275815 
L 182.244286 246.615437 
L 182.527679 247.202058 
L 182.811072 247.294683 
L 183.094464 247.263808 
L 183.661249 247.757804 
L 183.944642 247.541681 
L 184.228035 247.572556 
L 184.511427 247.479931 
L 185.078212 247.541681 
L 185.361605 247.109434 
L 185.644997 247.294683 
L 186.211783 246.831561 
L 186.495175 246.924185 
L 186.778568 246.059691 
L 187.06196 245.812693 
L 187.345353 246.121441 
L 187.628746 246.985935 
L 187.912138 248.251801 
L 188.195531 248.128302 
L 188.478923 248.653173 
L 188.762316 249.579417 
L 189.045708 250.011664 
L 189.329101 250.166038 
L 189.612494 250.474786 
L 189.895886 250.443911 
L 190.179279 250.660034 
L 190.462671 250.598285 
L 191.029457 250.011664 
L 191.312849 250.042539 
L 191.596242 249.517667 
L 191.879634 249.425043 
L 192.163027 249.14717 
L 192.44642 249.610292 
L 192.729812 249.610292 
L 193.296597 249.363293 
L 193.57999 249.08542 
L 193.863382 276.872727 
L 194.146775 248.653173 
L 194.430168 249.178045 
L 194.71356 249.949914 
L 195.847131 251.586278 
L 196.130523 251.27753 
L 196.413916 251.308405 
L 196.697308 251.184906 
L 196.980701 251.740652 
L 197.264093 251.864151 
L 197.547486 252.142024 
L 197.830879 251.98765 
L 198.397664 252.975643 
L 198.681056 252.75952 
L 198.964449 252.852144 
L 199.247842 253.068268 
L 199.531234 252.790395 
L 199.814627 252.69777 
L 200.098019 252.265523 
L 200.381412 252.203774 
L 200.664804 251.709777 
L 200.948197 252.389022 
L 201.23159 252.419897 
L 201.514982 253.438765 
L 201.798375 253.191767 
L 202.081767 253.994511 
L 202.36516 253.778388 
L 202.931945 254.457633 
L 203.215338 255.291252 
L 203.49873 255.569125 
L 203.782123 255.507376 
L 204.348908 254.797256 
L 204.632301 254.920755 
L 204.915693 254.766381 
L 205.482478 254.920755 
L 205.765871 255.353002 
L 206.049264 254.88988 
L 206.616049 254.581132 
L 206.899441 254.11801 
L 207.182834 254.241509 
L 207.466227 253.747513 
L 207.749619 253.994511 
L 208.033012 253.315266 
L 208.316404 253.284391 
L 208.883189 253.531389 
L 209.449975 254.025386 
L 209.733367 253.901887 
L 210.300152 254.95163 
L 210.583545 254.642882 
L 210.866938 254.581132 
L 211.15033 254.920755 
L 211.433723 254.95163 
L 211.717115 254.056261 
L 212.000508 253.685763 
L 212.2839 253.593139 
L 212.567293 224.725214 
L 212.850686 123.980789 
L 213.134078 86.035678 
L 213.417471 81.003087 
L 213.700863 86.467925 
L 213.984256 70.876158 
L 214.551041 54.327273 
L 214.834434 55.753688 
L 215.117826 56.17976 
L 215.401219 54.790395 
L 264.428136 247.696055 
L 264.711529 247.449057 
L 264.994921 247.356432 
L 265.561706 246.553688 
L 265.845099 246.522813 
L 266.128492 247.202058 
L 266.411884 247.232933 
L 266.695277 247.047684 
L 266.978669 246.677187 
L 267.262062 246.615437 
L 267.828847 245.905317 
L 268.395632 244.8247 
L 268.679025 242.879588 
L 269.529203 246.059691 
L 269.812595 246.399314 
L 270.095988 247.263808 
L 270.37938 247.72693 
L 270.662773 248.653173 
L 270.946166 248.313551 
L 271.229558 248.529674 
L 271.512951 248.004803 
L 272.079736 247.757804 
L 272.363128 247.912178 
L 272.646521 247.850429 
L 272.929914 247.943053 
L 273.780091 247.943053 
L 274.063484 247.479931 
L 274.346877 247.449057 
L 274.913662 246.738937 
L 275.197054 246.028816 
L 275.480447 246.430189 
L 275.76384 246.090566 
L 276.047232 246.399314 
L 276.330625 247.943053 
L 276.614017 248.035678 
L 276.89741 248.992796 
L 277.180802 249.301544 
L 277.464195 249.888165 
L 277.747588 250.196913 
L 278.314373 250.042539 
L 278.597765 249.888165 
L 278.881158 249.579417 
L 279.447943 249.363293 
L 279.731336 249.394168 
L 280.298121 248.684048 
L 280.581513 250.135163 
L 280.864906 250.474786 
L 281.431691 249.79554 
L 281.998476 249.054545 
L 282.281869 249.270669 
L 282.565262 248.992796 
L 282.848654 249.733791 
L 283.132047 250.845283 
L 283.415439 250.56741 
L 283.982224 251.555403 
L 284.265617 252.790395 
L 284.54901 252.790395 
L 284.832402 253.778388 
L 285.399187 253.222642 
L 286.532758 252.080274 
L 286.81615 252.358148 
L 287.099543 252.111149 
L 288.799898 249.332419 
L 289.083291 248.622298 
L 289.650076 249.764666 
L 289.933469 250.536535 
L 290.216861 250.382161 
L 290.500254 251.061407 
L 290.783647 251.184906 
L 291.067039 252.142024 
L 291.350432 252.327273 
L 291.633824 252.852144 
L 291.917217 252.75952 
L 292.200609 252.358148 
L 292.484002 252.481647 
L 293.050787 252.419897 
L 293.33418 252.944768 
L 293.617572 252.944768 
L 293.900965 252.69777 
L 294.184358 252.728645 
L 294.46775 252.543396 
L 295.034535 251.123156 
L 295.317928 250.783533 
L 295.60132 249.702916 
L 295.884713 249.425043 
L 296.168106 248.344425 
L 296.451498 249.486792 
L 296.734891 250.166038 
L 297.301676 250.62916 
L 297.585069 251.555403 
L 297.868461 251.555403 
L 298.151854 252.080274 
L 298.435246 253.191767 
L 298.718639 252.69777 
L 299.002031 253.006518 
L 299.852209 252.234648 
L 300.135602 252.481647 
L 300.702387 252.265523 
L 300.98578 252.389022 
L 301.269172 252.636021 
L 301.552565 252.0494 
L 302.11935 251.431904 
L 302.402743 250.536535 
L 302.969528 252.728645 
L 303.25292 252.913894 
L 303.536313 252.852144 
L 304.103098 250.104288 
L 304.386491 249.394168 
L 304.953276 251.370154 
L 305.236668 251.617153 
L 305.520061 251.33928 
L 305.803454 250.258662 
L 306.086846 249.672041 
L 306.370239 250.104288 
L 306.653631 250.073413 
L 306.937024 249.733791 
L 307.220416 249.85729 
L 307.503809 249.764666 
L 308.070594 250.320412 
L 308.637379 249.826415 
L 308.920772 249.08542 
L 309.487557 248.43705 
L 310.337735 248.869297 
L 310.621127 248.931046 
L 310.90452 249.579417 
L 311.187913 249.764666 
L 311.754698 250.690909 
L 312.03809 250.783533 
L 312.321483 250.752659 
L 312.888268 251.555403 
L 313.171661 252.203774 
L 313.455053 252.481647 
L 314.021838 252.265523 
L 314.305231 252.419897 
L 314.588624 252.358148 
L 315.438801 251.833276 
L 316.005587 251.648027 
L 316.288979 251.33928 
L 316.572372 251.925901 
L 317.42255 251.802401 
L 317.705942 252.0494 
L 317.989335 252.481647 
L 318.272727 252.512521 
L 319.122905 253.377015 
L 319.68969 253.685763 
L 319.973083 254.519383 
L 320.256475 254.334134 
L 320.539868 253.901887 
L 320.823261 254.11801 
L 321.106653 254.025386 
L 321.390046 253.716638 
L 321.673438 253.901887 
L 321.956831 252.975643 
L 322.240223 253.222642 
L 322.523616 252.419897 
L 322.807009 252.111149 
L 323.090401 252.203774 
L 323.373794 252.172899 
L 323.940579 253.160892 
L 324.223972 253.099142 
L 324.790757 253.253516 
L 325.074149 253.685763 
L 325.924327 253.871012 
L 326.20772 254.395883 
L 326.491112 253.932762 
L 326.774505 254.457633 
L 327.057897 255.846998 
L 327.34129 255.816123 
L 327.624683 256.433619 
L 327.908075 256.433619 
L 328.47486 256.834991 
L 329.325038 255.383877 
L 329.891823 253.624014 
L 330.175216 254.087136 
L 330.458608 255.044254 
L 330.742001 255.291252 
L 331.592179 255.291252 
L 331.875571 255.816123 
L 332.158964 255.785249 
L 333.009142 256.063122 
L 333.292534 255.846998 
L 333.575927 256.217496 
L 334.142712 257.390738 
L 335.276282 257.73036 
L 335.559675 256.896741 
L 336.12646 256.217496 
L 336.409853 254.704631 
L 336.693245 253.840137 
L 336.976638 254.334134 
L 337.543423 254.642882 
L 337.826816 254.17976 
L 338.110208 254.488508 
L 338.393601 254.056261 
L 338.676993 254.148885 
L 338.960386 254.704631 
L 339.243779 253.963636 
L 339.527171 254.365009 
L 339.810564 254.11801 
L 343.211275 244.176329 
L 343.494667 244.021955 
L 343.77806 243.620583 
L 344.061453 242.817839 
L 344.344845 243.095712 
L 344.91163 244.145455 
L 345.195023 245.47307 
L 346.045201 247.449057 
L 346.328593 247.449057 
L 346.611986 247.973928 
L 346.895378 248.097427 
L 347.462164 248.869297 
L 347.745556 248.776672 
L 348.028949 249.517667 
L 348.312341 249.888165 
L 348.595734 249.919039 
L 348.879126 249.826415 
L 349.162519 249.85729 
L 349.445912 249.548542 
L 349.729304 250.011664 
L 350.296089 249.08542 
L 350.862875 249.641166 
L 351.146267 250.196913 
L 351.42966 250.50566 
L 351.713052 250.474786 
L 351.996445 250.876158 
L 352.279837 251.061407 
L 352.846623 251.833276 
L 353.6968 252.296398 
L 353.980193 252.512521 
L 354.263586 252.543396 
L 354.546978 252.69777 
L 354.830371 253.130017 
L 355.113763 253.099142 
L 355.397156 252.913894 
L 355.680549 253.006518 
L 355.963941 252.265523 
L 356.247334 252.142024 
L 356.530726 252.234648 
L 356.814119 251.462779 
L 357.097511 250.011664 
L 357.380904 250.258662 
L 357.664297 251.678902 
L 357.947689 252.234648 
L 358.231082 251.184906 
L 358.514474 252.080274 
L 359.08126 252.142024 
L 359.364652 253.191767 
L 359.648045 253.654889 
L 360.498222 253.932762 
L 360.781615 254.426758 
L 361.3484 255.013379 
L 362.198578 254.797256 
L 362.481971 254.457633 
L 362.765363 254.365009 
L 363.615541 253.40789 
L 363.898933 252.481647 
L 364.182326 252.419897 
L 364.465719 252.821269 
L 365.032504 253.222642 
L 365.315896 251.431904 
L 365.599289 252.172899 
L 365.882682 252.296398 
L 366.166074 253.40789 
L 366.449467 253.099142 
L 367.299644 253.994511 
L 368.149822 254.519383 
L 368.716607 254.334134 
L 369.283393 254.241509 
L 369.566785 253.932762 
L 369.850178 253.994511 
L 370.13357 253.840137 
L 370.700356 252.265523 
L 370.983748 252.605146 
L 371.550533 253.778388 
L 371.833926 253.40789 
L 372.400711 254.395883 
L 372.684104 254.365009 
L 372.967496 254.642882 
L 373.534281 254.457633 
L 373.817674 254.612007 
L 374.667852 254.025386 
L 375.234637 253.932762 
L 375.518029 254.241509 
L 376.084815 253.932762 
L 376.368207 254.025386 
L 376.6516 253.654889 
L 376.934992 253.46964 
L 377.501778 252.327273 
L 377.78517 252.419897 
L 378.351955 255.723499 
L 378.635348 255.507376 
L 379.485526 255.877873 
L 379.768918 256.279245 
L 380.052311 256.31012 
L 380.335703 256.587993 
L 380.619096 256.680617 
L 380.902489 256.557118 
L 381.185881 256.279245 
L 381.469274 256.557118 
L 382.602844 256.186621 
L 382.886237 256.217496 
L 383.169629 256.495369 
L 383.453022 255.692624 
L 383.736414 255.785249 
L 384.586592 255.507376 
L 384.869985 256.063122 
L 385.720163 254.395883 
L 386.286948 254.148885 
L 386.853733 254.272384 
L 387.137125 254.766381 
L 387.703911 254.272384 
L 388.270696 255.816123 
L 388.554088 255.723499 
L 388.837481 255.908748 
L 389.120874 255.785249 
L 389.687659 256.587993 
L 389.971051 256.340995 
L 390.537836 255.414751 
L 390.821229 254.88988 
L 391.104622 254.11801 
L 391.388014 254.11801 
L 391.954799 255.353002 
L 392.238192 254.673756 
L 392.521585 254.612007 
L 392.804977 254.395883 
L 393.371762 255.136878 
L 393.655155 255.013379 
L 393.938547 255.260377 
L 394.22194 255.198628 
L 394.505333 255.291252 
L 395.072118 255.692624 
L 395.35551 255.66175 
L 395.922296 256.340995 
L 396.489081 256.217496 
L 397.055866 255.6 
L 397.906044 253.500515 
L 398.189436 253.624014 
L 398.472829 253.994511 
L 398.756221 254.056261 
L 399.039614 253.747513 
L 399.323007 253.840137 
L 399.606399 254.735506 
L 399.889792 255.167753 
L 400.173184 255.167753 
L 400.73997 255.476501 
L 401.023362 255.353002 
L 401.306755 255.383877 
L 401.590147 255.6 
L 402.723718 257.143739 
L 403.857288 255.66175 
L 404.140681 255.414751 
L 404.990858 254.210635 
L 405.274251 255.198628 
L 405.557643 255.569125 
L 406.124429 255.167753 
L 406.407821 255.260377 
L 406.691214 256.001372 
L 406.974606 255.445626 
L 407.541392 255.785249 
L 407.824784 255.569125 
L 408.391569 256.001372 
L 408.958354 257.174614 
L 409.241747 257.699485 
L 409.808532 257.73036 
L 410.375317 257.452487 
L 410.65871 257.637736 
L 410.942103 257.483362 
L 411.508888 256.124871 
L 412.075673 255.816123 
L 412.359066 255.877873 
L 412.642458 255.044254 
L 413.209243 255.260377 
L 413.776028 256.124871 
L 414.342814 255.908748 
L 414.626206 256.124871 
L 415.476384 257.514237 
L 415.759777 258.50223 
L 416.043169 258.50223 
L 416.326562 258.687479 
L 416.609954 258.718353 
L 416.893347 258.563979 
L 418.026917 256.804117 
L 418.31031 255.970497 
L 418.593702 255.908748 
L 419.160488 257.02024 
L 419.44388 256.711492 
L 419.727273 257.143739 
L 420.294058 256.804117 
L 420.57745 256.340995 
L 421.427628 257.699485 
L 421.711021 257.328988 
L 421.994413 257.73036 
L 422.277806 257.359863 
L 422.561199 258.162607 
L 422.844591 258.224357 
L 423.127984 258.44048 
L 423.411376 258.162607 
L 423.694769 258.378731 
L 424.261554 258.039108 
L 425.111732 255.044254 
L 425.395124 255.075129 
L 425.678517 255.877873 
L 425.96191 255.6 
L 426.245302 254.88988 
L 426.528695 254.735506 
L 427.09548 255.939623 
L 427.378873 255.445626 
L 427.662265 255.260377 
L 427.945658 255.723499 
L 428.22905 255.322127 
L 428.512443 255.939623 
L 429.079228 256.587993 
L 429.362621 257.545111 
L 429.646013 257.853859 
L 429.929406 257.977358 
L 430.212798 257.884734 
L 430.496191 258.069983 
L 431.629761 255.785249 
L 432.196546 254.488508 
L 432.479939 254.395883 
L 432.763332 254.11801 
L 433.046724 254.148885 
L 433.330117 253.963636 
L 433.613509 254.11801 
L 434.180295 254.581132 
L 434.463687 254.17976 
L 435.313865 254.087136 
L 435.597257 254.519383 
L 436.447435 254.334134 
L 436.730828 254.303259 
L 437.297613 254.519383 
L 437.864398 254.735506 
L 438.431183 254.303259 
L 438.714576 249.85729 
L 438.997969 253.037393 
L 439.281361 254.365009 
L 439.564754 249.733791 
L 439.848146 253.840137 
L 440.131539 254.11801 
L 440.414931 253.871012 
L 440.698324 253.994511 
L 440.981717 254.241509 
L 441.265109 255.013379 
L 441.548502 254.859005 
L 442.115287 254.82813 
L 442.39868 255.136878 
L 442.682072 255.013379 
L 442.965465 255.291252 
L 443.53225 254.82813 
L 443.815642 255.291252 
L 444.099035 255.414751 
L 444.382428 255.322127 
L 444.66582 255.414751 
L 444.949213 255.630875 
L 445.232605 255.260377 
L 445.515998 255.383877 
L 445.799391 255.229503 
L 446.082783 255.414751 
L 446.366176 255.383877 
L 446.649568 255.167753 
L 446.932961 254.735506 
L 447.216353 254.797256 
L 447.499746 254.612007 
L 447.783139 254.17976 
L 448.066531 254.210635 
L 448.349924 254.025386 
L 449.200102 252.419897 
L 449.483494 250.227787 
L 449.766887 246.121441 
L 450.050279 239.236364 
L 450.617064 232.073413 
L 451.467242 224.354717 
L 451.750635 224.385592 
L 452.034027 224.57084 
L 452.31742 224.910463 
L 452.600813 227.411321 
L 453.45099 231.08542 
L 454.017776 233.740652 
L 454.301168 233.895026 
L 454.584561 234.419897 
L 454.867953 236.488508 
L 455.151346 237.136878 
L 455.434738 236.82813 
L 455.718131 238.865866 
L 456.284916 240.131732 
L 456.851701 241.490223 
L 457.135094 242.015094 
L 457.418487 242.262093 
L 457.985272 243.34271 
L 458.552057 244.423328 
L 458.835449 244.639451 
L 460.252412 246.924185 
L 460.535805 246.800686 
L 460.819198 247.325557 
L 461.385983 247.202058 
L 461.669375 247.72693 
L 461.952768 247.510806 
L 462.23616 247.479931 
L 462.519553 247.603431 
L 462.802946 248.035678 
L 463.086338 247.850429 
L 463.369731 248.653173 
L 463.653123 248.529674 
L 463.936516 248.807547 
L 464.219909 248.900172 
L 464.503301 249.301544 
L 464.786694 249.054545 
L 465.070086 249.178045 
L 465.353479 249.08542 
L 465.636872 249.610292 
L 465.920264 248.529674 
L 466.203657 248.467925 
L 467.053834 250.690909 
L 467.337227 250.50566 
L 467.62062 250.56741 
L 467.904012 251.493654 
L 468.75419 252.018525 
L 469.037583 252.327273 
L 469.320975 253.901887 
L 469.604368 253.747513 
L 470.171153 252.018525 
L 470.454545 252.203774 
L 470.737938 253.099142 
L 471.021331 254.365009 
L 471.871508 253.377015 
L 472.154901 253.377015 
L 472.438294 253.006518 
L 472.721686 252.450772 
L 473.288471 253.068268 
L 473.855256 253.654889 
L 474.138649 253.500515 
L 474.422042 254.11801 
L 474.988827 252.75952 
L 476.122397 254.426758 
L 476.689182 254.673756 
L 476.972575 256.37187 
L 477.53936 257.359863 
L 477.822753 256.989365 
L 478.389538 256.989365 
L 478.956323 257.08199 
L 479.239716 256.217496 
L 479.523108 254.673756 
L 479.806501 254.087136 
L 480.089893 254.457633 
L 480.373286 254.612007 
L 480.656679 254.519383 
L 480.940071 254.673756 
L 481.223464 255.013379 
L 481.790249 254.859005 
L 482.073641 255.044254 
L 482.357034 254.82813 
L 482.923819 254.797256 
L 483.207212 255.322127 
L 483.490604 255.507376 
L 484.05739 256.680617 
L 484.340782 256.865866 
L 484.624175 256.680617 
L 484.907567 256.865866 
L 486.041138 254.859005 
L 486.607923 253.438765 
L 486.891315 254.056261 
L 487.174708 254.087136 
L 487.458101 253.624014 
L 487.741493 253.932762 
L 488.024886 253.932762 
L 488.308278 254.859005 
L 488.591671 254.148885 
L 488.875063 254.365009 
L 489.441849 254.519383 
L 489.725241 254.365009 
L 490.008634 255.013379 
L 490.292026 255.198628 
L 490.858812 256.124871 
L 491.142204 256.217496 
L 491.992382 255.291252 
L 492.275775 255.136878 
L 492.559167 255.322127 
L 493.125952 254.087136 
L 493.409345 254.303259 
L 493.692737 254.210635 
L 493.97613 254.704631 
L 494.259523 253.963636 
L 494.826308 254.581132 
L 495.1097 253.284391 
L 495.393093 253.222642 
L 495.959878 254.82813 
L 496.526663 254.704631 
L 496.810056 255.260377 
L 497.093448 255.414751 
L 497.660234 255.291252 
L 497.943626 255.414751 
L 498.227019 255.353002 
L 498.793804 255.013379 
L 499.360589 254.704631 
L 499.643982 254.704631 
L 499.927374 254.395883 
L 500.210767 254.550257 
L 500.494159 254.550257 
L 500.777552 254.982504 
L 501.060945 254.859005 
L 501.344337 254.272384 
L 501.62773 252.944768 
L 501.911122 246.677187 
L 502.194515 233.925901 
L 502.7613 222.131732 
L 503.044693 221.884734 
L 503.328085 219.106003 
L 503.611478 217.840137 
L 503.89487 218.210635 
L 504.178263 219.445626 
L 504.745048 222.965352 
L 505.878619 228.677187 
L 506.728796 231.85729 
L 507.012189 232.62916 
L 507.295582 234.358148 
L 507.578974 235.160892 
L 507.862367 235.624014 
L 508.145759 235.438765 
L 508.429152 236.17976 
L 508.712544 236.457633 
L 508.995937 236.488508 
L 509.27933 236.673756 
L 509.562722 237.785249 
L 509.846115 237.970497 
L 510.129507 237.692624 
L 510.979685 238.680617 
L 511.263078 238.834991 
L 511.829863 239.761235 
L 512.113255 239.946484 
L 512.680041 240.749228 
L 512.963433 240.780103 
L 513.246826 241.243225 
L 513.813611 241.675472 
L 514.380396 242.69434 
L 514.663789 243.435334 
L 514.947181 243.033962 
L 515.230574 243.311835 
L 515.513966 244.145455 
L 515.797359 244.299828 
L 516.080752 244.8247 
L 516.364144 244.732075 
L 524.865922 246.89331 
L 525.149314 246.677187 
L 525.432707 247.078559 
L 525.7161 246.924185 
L 525.999492 247.047684 
L 526.282885 246.862436 
L 526.566277 247.047684 
L 526.84967 246.800686 
L 527.133062 246.18319 
L 527.416455 246.769811 
L 528.266633 247.140309 
L 529.116811 247.140309 
L 529.400203 247.479931 
L 529.683596 247.418182 
L 530.250381 248.282676 
L 530.533773 247.943053 
L 531.383951 248.406175 
L 531.667344 248.591424 
L 531.950736 248.3753 
L 532.234129 248.931046 
L 532.517522 248.684048 
L 532.800914 248.869297 
L 533.084307 248.3753 
L 533.934485 248.159177 
L 534.217877 248.529674 
L 534.50127 248.714923 
L 534.784662 249.208919 
L 535.068055 249.116295 
L 535.351447 248.838422 
L 535.63484 248.931046 
L 535.918233 249.486792 
L 536.201625 249.733791 
L 536.485018 249.610292 
L 536.76841 250.042539 
L 537.051803 249.888165 
L 537.335196 250.073413 
L 537.618588 249.85729 
L 538.185373 249.888165 
L 538.468766 249.764666 
L 538.752158 250.258662 
L 539.035551 250.320412 
L 539.318944 250.104288 
L 539.602336 250.289537 
L 539.885729 250.166038 
L 540.169121 249.919039 
L 540.735907 248.961921 
L 541.869477 249.425043 
L 542.152869 249.394168 
L 542.436262 249.548542 
L 543.003047 250.227787 
L 543.28644 250.752659 
L 543.853225 250.968782 
L 544.42001 251.370154 
L 544.703403 251.21578 
L 544.986795 251.401029 
L 545.270188 251.308405 
L 545.55358 251.030532 
L 546.403758 251.648027 
L 546.687151 251.030532 
L 546.970543 251.061407 
L 547.537329 250.56741 
L 548.104114 250.968782 
L 548.387506 250.999657 
L 548.670899 250.814408 
L 548.954292 251.586278 
L 549.237684 251.092281 
L 549.521077 251.401029 
L 549.804469 251.370154 
L 550.087862 251.555403 
L 550.371254 252.080274 
L 550.93804 251.431904 
L 551.504825 252.111149 
L 552.07161 252.265523 
L 552.355003 251.370154 
L 552.921788 248.498799 
L 553.20518 248.406175 
L 553.488573 248.869297 
L 554.055358 248.961921 
L 554.338751 248.776672 
L 554.622143 249.023671 
L 554.905536 249.054545 
L 555.188928 249.363293 
L 555.472321 249.888165 
L 555.755714 249.949914 
L 556.039106 250.721784 
L 556.322499 250.598285 
L 556.605891 250.876158 
L 556.889284 251.401029 
L 557.172676 251.092281 
L 558.022854 251.617153 
L 558.589639 251.154031 
L 558.873032 251.184906 
L 559.156425 251.401029 
L 559.439817 251.154031 
L 559.72321 251.401029 
L 560.006602 251.123156 
L 560.289995 250.598285 
L 560.85678 250.62916 
L 561.140173 249.486792 
L 561.706958 248.251801 
L 561.99035 247.325557 
L 562.557136 246.985935 
L 563.123921 245.009949 
L 563.690706 239.668611 
L 563.974099 239.884734 
L 564.540884 241.582847 
L 564.824276 240.347856 
L 565.107669 239.79211 
L 565.391061 240.162607 
L 565.957847 241.490223 
L 566.241239 241.92247 
L 567.091417 243.620583 
L 567.37481 244.207204 
L 567.941595 243.435334 
L 568.224987 243.373585 
L 568.50838 243.836707 
L 568.791772 244.515952 
L 569.075165 244.855575 
L 569.358558 244.886449 
L 569.64195 245.442196 
L 569.925343 245.53482 
L 570.208735 245.843568 
L 570.492128 246.553688 
L 570.775521 246.646312 
L 571.058913 246.491938 
L 571.342306 246.553688 
L 571.909091 246.461063 
L 572.192483 246.584563 
L 572.475876 246.430189 
L 572.759269 246.862436 
L 573.326054 247.140309 
L 573.609446 247.140309 
L 573.892839 247.01681 
L 574.176232 247.232933 
L 574.743017 247.294683 
L 575.026409 247.202058 
L 575.309802 247.418182 
L 575.593195 247.819554 
L 575.876587 247.510806 
L 576.15998 247.387307 
L 576.443372 247.479931 
L 577.010157 247.881304 
L 577.29355 247.66518 
L 578.143728 247.973928 
L 578.710513 248.714923 
L 579.277298 248.745798 
L 579.560691 248.745798 
L 580.127476 247.788679 
L 580.410868 248.807547 
L 580.694261 250.50566 
L 581.544439 249.548542 
L 581.827831 249.332419 
L 582.111224 250.258662 
L 582.394617 250.258662 
L 582.678009 250.042539 
L 582.961402 250.104288 
L 583.244794 250.011664 
L 583.528187 249.332419 
L 584.094972 251.061407 
L 584.378365 250.660034 
L 584.661757 250.752659 
L 584.94515 250.011664 
L 585.511935 250.968782 
L 585.795328 250.104288 
L 586.07872 251.648027 
L 586.362113 250.845283 
L 586.645505 251.833276 
L 586.928898 251.678902 
L 587.212291 250.443911 
L 587.495683 250.351286 
L 587.779076 250.783533 
L 588.062468 250.999657 
L 588.345861 250.351286 
L 588.629253 250.413036 
L 588.912646 250.104288 
L 589.479431 251.092281 
L 589.762824 250.845283 
L 590.046216 251.617153 
L 590.329609 250.104288 
L 590.613002 250.042539 
L 591.179787 251.771527 
L 591.746572 251.154031 
L 592.313357 251.154031 
L 592.59675 251.462779 
L 592.880142 251.27753 
L 593.163535 251.246655 
L 593.446927 251.617153 
L 593.73032 251.33928 
L 594.013713 251.709777 
L 594.580498 251.678902 
L 594.86389 251.864151 
L 595.430675 251.493654 
L 595.997461 251.771527 
L 596.280853 251.493654 
L 596.564246 251.401029 
L 597.414424 250.135163 
L 598.547994 245.009949 
L 598.831386 245.164322 
L 599.114779 245.47307 
L 599.681564 245.256947 
L 600.248349 241.613722 
L 601.098527 242.169468 
L 601.38192 242.323842 
L 601.665312 242.169468 
L 601.948705 242.447341 
L 602.232098 242.416467 
L 602.798883 244.145455 
L 603.082275 243.497084 
L 603.365668 243.497084 
L 603.64906 245.009949 
L 603.932453 244.485077 
L 604.215846 242.941338 
L 604.499238 242.725214 
L 604.782631 243.064837 
L 605.349416 243.219211 
L 605.632809 243.558834 
L 605.916201 243.651458 
L 606.199594 244.021955 
L 606.482986 244.021955 
L 606.766379 243.589708 
L 607.049771 242.69434 
L 607.333164 242.57084 
L 607.616557 243.960206 
L 607.899949 244.083705 
L 608.183342 242.817839 
L 608.466734 243.311835 
L 608.750127 242.478216 
L 609.03352 242.478216 
L 609.883697 243.713208 
L 610.733875 244.670326 
L 611.017268 244.577702 
L 611.30066 244.76295 
L 611.867445 244.577702 
L 612.150838 244.979074 
L 612.434231 244.948199 
L 612.717623 244.76295 
L 613.001016 245.287822 
L 613.851193 245.997942 
L 614.134586 246.491938 
L 614.701371 246.461063 
L 615.268156 246.738937 
L 615.551549 245.874443 
L 615.834942 246.121441 
L 616.118334 246.522813 
L 616.401727 246.522813 
L 616.685119 246.708062 
L 616.968512 246.368439 
L 617.535297 246.30669 
L 617.81869 246.430189 
L 618.102082 246.985935 
L 618.385475 247.850429 
L 618.668867 248.035678 
L 618.95226 248.066552 
L 619.235653 248.344425 
L 619.519045 248.406175 
L 619.802438 248.653173 
L 620.08583 249.054545 
L 620.652616 248.961921 
L 620.936008 249.425043 
L 621.219401 249.332419 
L 621.502793 249.363293 
L 621.786186 248.961921 
L 622.069578 248.900172 
L 622.352971 248.529674 
L 622.636364 247.263808 
L 622.636364 247.263808 
" clip-path="url(#pa5c8000527)" style="fill: none; stroke: #1f77b4; stroke-width: 1.5; stroke-linecap: square"/>
   </g>
   <g id="line2d_13">
    <path d="M 115.363636 255.341333 
L 115.930422 255.635652 
L 116.213814 254.17976 
L 118.480955 254.950392 
L 119.614525 255.261459 
L 120.18131 255.189168 
L 121.031488 255.431135 
L 121.598273 255.492257 
L 122.448451 255.26947 
L 122.731844 255.29186 
L 123.015236 253.932762 
L 124.432199 254.069347 
L 127.83291 254.406443 
L 128.116303 254.917748 
L 128.399695 255.796926 
L 128.683088 254.76827 
L 128.96648 252.682548 
L 129.249873 251.819124 
L 129.533266 250.073688 
L 129.816658 244.454202 
L 131.233621 243.92277 
L 132.083799 244.124103 
L 132.933977 244.611043 
L 133.217369 244.441092 
L 133.500762 243.911263 
L 133.784154 243.804255 
L 134.067547 243.912248 
L 134.634332 243.808798 
L 135.767902 244.205489 
L 136.334688 244.440419 
L 136.61808 254.982504 
L 137.184865 255.13396 
L 138.318436 256.009572 
L 140.585576 257.714607 
L 143.13611 259.351194 
L 143.419502 255.353002 
L 145.119858 256.719426 
L 146.820213 257.831207 
L 148.520569 258.747068 
L 148.803961 258.576546 
L 149.370747 256.992377 
L 149.654139 255.646944 
L 149.937532 253.312274 
L 150.220924 247.356432 
L 151.071102 242.355983 
L 151.354495 239.519841 
L 151.637887 239.214593 
L 152.204672 240.444961 
L 152.488065 240.336005 
L 153.05485 238.058778 
L 153.621635 238.153237 
L 153.905028 237.98849 
L 155.038598 238.929355 
L 155.321991 239.059791 
L 156.738954 242.192465 
L 157.022346 236.241509 
L 158.155917 241.607352 
L 159.856272 248.13823 
L 161.556628 253.812707 
L 163.256983 258.691467 
L 163.540376 259.431778 
L 163.823768 246.399314 
L 165.524124 250.500607 
L 167.224479 254.010304 
L 167.507872 254.394365 
L 168.074657 256.742833 
L 168.35805 254.913847 
L 168.641442 251.940415 
L 168.924835 250.230229 
L 169.208228 250.209334 
L 170.058405 251.3528 
L 170.341798 251.799243 
L 170.62519 224.045969 
L 171.475368 225.732324 
L 173.459116 230.313876 
L 175.159472 233.725835 
L 176.859827 236.67941 
L 177.14322 237.130323 
L 177.426612 241.582847 
L 179.126968 244.184257 
L 180.827324 246.42251 
L 182.527679 248.335634 
L 183.944642 249.707726 
L 184.228035 247.541681 
L 185.92839 248.676973 
L 187.912138 249.711624 
L 189.895886 250.502667 
L 190.746064 250.781723 
L 191.029457 250.320412 
L 193.57999 250.966377 
L 196.697308 251.508123 
L 197.547486 251.62111 
L 197.830879 252.142024 
L 200.664804 252.981395 
L 204.065515 253.745095 
L 204.348908 253.798935 
L 204.632301 254.797256 
L 204.915693 254.401209 
L 206.616049 253.966176 
L 207.466227 253.680929 
L 207.749619 253.489502 
L 209.166582 253.16332 
L 209.733367 252.724996 
L 211.433723 252.308359 
L 211.717115 252.036622 
L 212.000508 251.601234 
L 212.567293 245.734297 
L 212.850686 243.02304 
L 213.134078 242.912418 
L 213.984256 241.470693 
L 215.117826 240.114235 
L 215.401219 240.121269 
L 264.144744 64.562282 
L 267.545455 70.594872 
L 271.229558 76.657782 
L 274.913662 82.293807 
L 278.881158 87.958323 
L 283.132047 93.631645 
L 287.382936 98.95461 
L 287.666328 251.678902 
L 292.767395 251.777017 
L 293.050787 252.450772 
L 297.585069 252.573063 
L 297.868461 252.032137 
L 298.435246 250.116124 
L 298.718639 249.727463 
L 299.568817 249.606397 
L 299.852209 249.1586 
L 300.135602 248.371226 
L 300.418994 248.007338 
L 301.835957 247.838262 
L 303.819705 247.829642 
L 304.103098 247.935113 
L 304.953276 246.608968 
L 305.236668 246.294603 
L 305.520061 246.325522 
L 306.086846 245.786716 
L 307.220416 245.327735 
L 307.787202 245.2148 
L 308.637379 245.456214 
L 311.471305 246.320463 
L 314.305231 246.948812 
L 317.705942 247.474538 
L 321.956831 247.902453 
L 327.908075 248.261846 
L 337.543423 248.589765 
L 339.810564 248.647341 
L 343.211275 244.361578 
L 344.344845 240.834295 
L 344.628238 240.323323 
L 344.91163 240.101404 
L 345.761808 240.082465 
L 346.895378 240.429406 
L 347.462164 240.677633 
L 348.028949 241.206198 
L 348.595734 242.12937 
L 350.579482 246.450157 
L 350.862875 249.239794 
L 353.130015 251.360922 
L 354.830371 252.64911 
L 356.247334 253.53504 
L 356.530726 252.574271 
L 358.514474 253.541477 
L 360.781615 254.377894 
L 363.048756 254.994192 
L 363.332148 254.488508 
L 366.732859 254.977973 
L 369.850178 255.265971 
L 370.13357 254.056261 
L 375.518029 254.346178 
L 376.6516 254.386339 
L 376.934992 254.11801 
L 378.351955 254.177445 
L 378.635348 254.029854 
L 379.485526 252.867531 
L 379.768918 253.123327 
L 380.052311 252.849754 
L 380.619096 252.060668 
L 381.185881 251.672726 
L 382.602844 250.385744 
L 383.169629 250.278048 
L 383.453022 250.288243 
L 383.736414 256.402744 
L 385.153377 256.564742 
L 385.720163 256.722843 
L 386.57034 257.251893 
L 387.987303 258.696443 
L 389.971051 260.597409 
L 390.254444 260.839906 
L 390.537836 256.464494 
L 393.371762 258.260404 
L 395.922296 259.623815 
L 397.055866 260.157122 
L 397.339259 255.846998 
L 398.189436 256.136254 
L 398.756221 255.96537 
L 400.173184 255.695537 
L 403.857288 256.500742 
L 404.140681 256.093997 
L 408.108177 256.659819 
L 411.79228 257.025621 
L 412.075673 256.340995 
L 416.609954 256.975663 
L 417.743525 257.097135 
L 418.026917 258.008233 
L 425.96191 258.251736 
L 431.062976 258.330343 
L 431.346369 257.761235 
L 433.330117 257.795633 
L 433.896902 257.982643 
L 434.180295 257.880897 
L 434.74708 257.160592 
L 435.313865 256.499191 
L 435.88065 256.282041 
L 437.01422 256.265949 
L 437.581006 256.421237 
L 437.864398 256.537186 
L 438.147791 254.920755 
L 438.714576 254.770064 
L 439.281361 254.549388 
L 439.564754 254.472163 
L 440.981717 253.514924 
L 441.548502 253.378641 
L 442.39868 253.426498 
L 444.099035 253.604533 
L 444.382428 253.441474 
L 444.949213 252.38641 
L 445.232605 251.900335 
L 445.799391 251.607826 
L 446.082783 251.575528 
L 446.366176 255.414751 
L 447.499746 256.016831 
L 447.783139 254.859005 
L 448.633316 255.190554 
L 448.916709 255.122485 
L 449.766887 253.871763 
L 450.333672 253.823991 
L 450.617064 253.470655 
L 451.467242 250.222626 
L 451.750635 227.009949 
L 452.31742 225.462185 
L 452.600813 225.064808 
L 452.884205 224.942671 
L 454.301168 225.213897 
L 456.001524 226.060708 
L 459.118842 227.51716 
L 462.519553 228.86205 
L 465.070086 229.743685 
L 465.353479 249.116295 
L 469.604368 249.844809 
L 471.871508 250.160117 
L 472.154901 253.809262 
L 478.389538 254.318897 
L 478.67293 254.337692 
L 478.956323 256.958491 
L 485.474352 257.185258 
L 485.757745 256.464494 
L 492.275775 256.643698 
L 492.559167 255.167753 
L 498.793804 255.340301 
L 499.077197 255.626445 
L 499.360589 254.612007 
L 499.927374 254.33614 
L 500.210767 254.114882 
L 500.494159 253.542438 
L 500.777552 251.678284 
L 501.911122 236.793634 
L 502.477908 233.197131 
L 502.7613 230.40721 
L 503.328085 222.812373 
L 503.611478 221.250125 
L 504.178263 219.905 
L 504.461656 219.725072 
L 505.028441 219.76184 
L 505.878619 220.238109 
L 506.162011 227.256947 
L 508.712544 228.901335 
L 510.4129 229.819719 
L 511.263078 229.982766 
L 512.113255 229.209382 
L 512.680041 229.248547 
L 512.963433 240.533105 
L 516.364144 244.899905 
L 525.149314 252.698385 
L 527.416455 253.986699 
L 529.683596 255.036441 
L 532.234129 255.980808 
L 533.084307 256.248323 
L 533.367699 248.992796 
L 535.918233 249.472438 
L 536.76841 249.484777 
L 537.335196 249.256904 
L 538.185373 249.291113 
L 539.885729 249.565837 
L 540.169121 250.166038 
L 545.55358 250.863457 
L 546.687151 250.985273 
L 546.970543 251.709777 
L 547.820721 251.627083 
L 548.387506 251.516638 
L 548.670899 251.284533 
L 548.954292 250.748178 
L 549.521077 249.008573 
L 550.93804 243.080234 
L 551.504825 241.807309 
L 551.788217 241.67668 
L 552.355003 241.668386 
L 552.921788 241.381399 
L 553.488573 241.393724 
L 553.771965 248.251801 
L 554.622143 248.307278 
L 555.472321 248.342067 
L 555.755714 248.166616 
L 556.322499 247.381344 
L 556.889284 247.213763 
L 557.456069 247.08563 
L 557.739462 247.333187 
L 558.022854 247.312233 
L 558.306247 246.963662 
L 558.589639 246.222717 
L 559.439817 240.327805 
L 559.72321 239.816 
L 560.289995 239.49654 
L 560.573388 251.030532 
L 561.140173 248.958494 
L 561.423565 247.072445 
L 562.557136 236.849815 
L 563.123921 233.444191 
L 563.974099 226.613552 
L 564.257491 225.651965 
L 564.540884 225.418293 
L 564.824276 225.559857 
L 565.674454 226.691071 
L 567.091417 228.676442 
L 567.37481 243.188336 
L 569.64195 246.978866 
L 571.342306 249.41429 
L 571.625698 249.560762 
L 572.192483 249.612852 
L 572.759269 250.028837 
L 573.892839 251.292491 
L 574.176232 247.263808 
L 575.026409 247.834067 
L 575.593195 247.839209 
L 576.443372 248.270995 
L 579.844083 250.251041 
L 580.694261 250.678984 
L 580.977654 248.190051 
L 583.811579 249.199934 
L 586.928898 250.050062 
L 587.495683 250.18045 
L 587.779076 250.474786 
L 591.179787 251.148269 
L 594.013713 251.574965 
L 594.297105 251.543181 
L 594.580498 251.833276 
L 594.86389 251.703656 
L 595.147283 251.207821 
L 595.714068 249.41461 
L 596.280853 247.618474 
L 596.847638 246.687136 
L 597.131031 246.506932 
L 597.414424 246.555926 
L 597.697816 246.028138 
L 598.264601 242.223258 
L 598.547994 240.347653 
L 598.831386 239.375756 
L 599.114779 239.067472 
L 599.681564 239.092307 
L 600.531742 239.45543 
L 601.098527 239.829576 
L 601.38192 242.076844 
L 602.798883 242.746916 
L 603.082275 242.696779 
L 603.932453 241.611307 
L 604.499238 241.805144 
L 605.632809 242.734031 
L 607.899949 244.851371 
L 608.183342 243.682333 
L 610.450482 244.758568 
L 610.733875 244.735232 
L 611.017268 244.428036 
L 611.30066 243.511185 
L 611.867445 240.934015 
L 612.150838 240.62756 
L 613.284408 240.755775 
L 614.701371 241.639389 
L 614.984764 246.584563 
L 616.118334 247.681239 
L 618.95226 250.456251 
L 621.219401 252.341061 
L 621.502793 252.554448 
L 621.786186 249.672041 
L 622.636364 249.975927 
L 622.636364 249.975927 
" clip-path="url(#pa5c8000527)" style="fill: none; stroke: #ff7f0e; stroke-width: 1.5; stroke-linecap: square"/>
   </g>
   <g id="patch_3">
    <path d="M 90 288 
L 90 43.2 
" style="fill: none; stroke: #000000; stroke-width: 0.8; stroke-linejoin: miter; stroke-linecap: square"/>
   </g>
   <g id="patch_4">
    <path d="M 648 288 
L 648 43.2 
" style="fill: none; stroke: #000000; stroke-width: 0.8; stroke-linejoin: miter; stroke-linecap: square"/>
   </g>
   <g id="patch_5">
    <path d="M 90 288 
L 648 288 
" style="fill: none; stroke: #000000; stroke-width: 0.8; stroke-linejoin: miter; stroke-linecap: square"/>
   </g>
   <g id="patch_6">
    <path d="M 90 43.2 
L 648 43.2 
" style="fill: none; stroke: #000000; stroke-width: 0.8; stroke-linejoin: miter; stroke-linecap: square"/>
   </g>
   <g id="text_13">
    <!-- ARB063 -->
    <g transform="translate(345.1575 37.2) scale(0.12 -0.12)">
     <defs>
      <path id="DejaVuSans-41" d="M 2188 4044 
L 1331 1722 
L 3047 1722 
L 2188 4044 
z
M 1831 4666 
L 2547 4666 
L 4325 0 
L 3669 0 
L 3244 1197 
L 1141 1197 
L 716 0 
L 50 0 
L 1831 4666 
z
" transform="scale(0.015625)"/>
      <path id="DejaVuSans-52" d="M 2841 2188 
Q 3044 2119 3236 1894 
Q 3428 1669 3622 1275 
L 4263 0 
L 3584 0 
L 2988 1197 
Q 2756 1666 2539 1819 
Q 2322 1972 1947 1972 
L 1259 1972 
L 1259 0 
L 628 0 
L 628 4666 
L 2053 4666 
Q 2853 4666 3247 4331 
Q 3641 3997 3641 3322 
Q 3641 2881 3436 2590 
Q 3231 2300 2841 2188 
z
M 1259 4147 
L 1259 2491 
L 2053 2491 
Q 2509 2491 2742 2702 
Q 2975 2913 2975 3322 
Q 2975 3731 2742 3939 
Q 2509 4147 2053 4147 
L 1259 4147 
z
" transform="scale(0.015625)"/>
      <path id="DejaVuSans-42" d="M 1259 2228 
L 1259 519 
L 2272 519 
Q 2781 519 3026 730 
Q 3272 941 3272 1375 
Q 3272 1813 3026 2020 
Q 2781 2228 2272 2228 
L 1259 2228 
z
M 1259 4147 
L 1259 2741 
L 2194 2741 
Q 2656 2741 2882 2914 
Q 3109 3088 3109 3444 
Q 3109 3797 2882 3972 
Q 2656 4147 2194 4147 
L 1259 4147 
z
M 628 4666 
L 2241 4666 
Q 2963 4666 3353 4366 
Q 3744 4066 3744 3513 
Q 3744 3084 3544 2831 
Q 3344 2578 2956 2516 
Q 3422 2416 3680 2098 
Q 3938 1781 3938 1306 
Q 3938 681 3513 340 
Q 3088 0 2303 0 
L 628 0 
L 628 4666 
z
" transform="scale(0.015625)"/>
     </defs>
     <use xlink:href="#DejaVuSans-41"/>
     <use xlink:href="#DejaVuSans-52" x="68.408203"/>
     <use xlink:href="#DejaVuSans-42" x="137.890625"/>
     <use xlink:href="#DejaVuSans-30" x="206.494141"/>
     <use xlink:href="#DejaVuSans-36" x="270.117188"/>
     <use xlink:href="#DejaVuSans-33" x="333.740234"/>
    </g>
   </g>
   <g id="legend_1">
    <g id="patch_7">
     <path d="M 559.04375 80.55625 
L 641 80.55625 
Q 643 80.55625 643 78.55625 
L 643 50.2 
Q 643 48.2 641 48.2 
L 559.04375 48.2 
Q 557.04375 48.2 557.04375 50.2 
L 557.04375 78.55625 
Q 557.04375 80.55625 559.04375 80.55625 
z
" style="fill: #ffffff; opacity: 0.8; stroke: #cccccc; stroke-linejoin: miter"/>
    </g>
    <g id="line2d_14">
     <path d="M 561.04375 56.298437 
L 571.04375 56.298437 
L 581.04375 56.298437 
" style="fill: none; stroke: #1f77b4; stroke-width: 1.5; stroke-linecap: square"/>
    </g>
    <g id="text_14">
     <!-- measured -->
     <g transform="translate(589.04375 59.798437) scale(0.1 -0.1)">
      <defs>
       <path id="DejaVuSans-6d" d="M 3328 2828 
Q 3544 3216 3844 3400 
Q 4144 3584 4550 3584 
Q 5097 3584 5394 3201 
Q 5691 2819 5691 2113 
L 5691 0 
L 5113 0 
L 5113 2094 
Q 5113 2597 4934 2840 
Q 4756 3084 4391 3084 
Q 3944 3084 3684 2787 
Q 3425 2491 3425 1978 
L 3425 0 
L 2847 0 
L 2847 2094 
Q 2847 2600 2669 2842 
Q 2491 3084 2119 3084 
Q 1678 3084 1418 2786 
Q 1159 2488 1159 1978 
L 1159 0 
L 581 0 
L 581 3500 
L 1159 3500 
L 1159 2956 
Q 1356 3278 1631 3431 
Q 1906 3584 2284 3584 
Q 2666 3584 2933 3390 
Q 3200 3197 3328 2828 
z
" transform="scale(0.015625)"/>
       <path id="DejaVuSans-61" d="M 2194 1759 
Q 1497 1759 1228 1600 
Q 959 1441 959 1056 
Q 959 750 1161 570 
Q 1363 391 1709 391 
Q 2188 391 2477 730 
Q 2766 1069 2766 1631 
L 2766 1759 
L 2194 1759 
z
M 3341 1997 
L 3341 0 
L 2766 0 
L 2766 531 
Q 2569 213 2275 61 
Q 1981 -91 1556 -91 
Q 1019 -91 701 211 
Q 384 513 384 1019 
Q 384 1609 779 1909 
Q 1175 2209 1959 2209 
L 2766 2209 
L 2766 2266 
Q 2766 2663 2505 2880 
Q 2244 3097 1772 3097 
Q 1472 3097 1187 3025 
Q 903 2953 641 2809 
L 641 3341 
Q 956 3463 1253 3523 
Q 1550 3584 1831 3584 
Q 2591 3584 2966 3190 
Q 3341 2797 3341 1997 
z
" transform="scale(0.015625)"/>
       <path id="DejaVuSans-75" d="M 544 1381 
L 544 3500 
L 1119 3500 
L 1119 1403 
Q 1119 906 1312 657 
Q 1506 409 1894 409 
Q 2359 409 2629 706 
Q 2900 1003 2900 1516 
L 2900 3500 
L 3475 3500 
L 3475 0 
L 2900 0 
L 2900 538 
Q 2691 219 2414 64 
Q 2138 -91 1772 -91 
Q 1169 -91 856 284 
Q 544 659 544 1381 
z
M 1991 3584 
L 1991 3584 
z
" transform="scale(0.015625)"/>
       <path id="DejaVuSans-64" d="M 2906 2969 
L 2906 4863 
L 3481 4863 
L 3481 0 
L 2906 0 
L 2906 525 
Q 2725 213 2448 61 
Q 2172 -91 1784 -91 
Q 1150 -91 751 415 
Q 353 922 353 1747 
Q 353 2572 751 3078 
Q 1150 3584 1784 3584 
Q 2172 3584 2448 3432 
Q 2725 3281 2906 2969 
z
M 947 1747 
Q 947 1113 1208 752 
Q 1469 391 1925 391 
Q 2381 391 2643 752 
Q 2906 1113 2906 1747 
Q 2906 2381 2643 2742 
Q 2381 3103 1925 3103 
Q 1469 3103 1208 2742 
Q 947 2381 947 1747 
z
" transform="scale(0.015625)"/>
      </defs>
      <use xlink:href="#DejaVuSans-6d"/>
      <use xlink:href="#DejaVuSans-65" x="97.412109"/>
      <use xlink:href="#DejaVuSans-61" x="158.935547"/>
      <use xlink:href="#DejaVuSans-73" x="220.214844"/>
      <use xlink:href="#DejaVuSans-75" x="272.314453"/>
      <use xlink:href="#DejaVuSans-72" x="335.693359"/>
      <use xlink:href="#DejaVuSans-65" x="374.556641"/>
      <use xlink:href="#DejaVuSans-64" x="436.080078"/>
     </g>
    </g>
    <g id="line2d_15">
     <path d="M 561.04375 70.976562 
L 571.04375 70.976562 
L 581.04375 70.976562 
" style="fill: none; stroke: #ff7f0e; stroke-width: 1.5; stroke-linecap: square"/>
    </g>
    <g id="text_15">
     <!-- predicted -->
     <g transform="translate(589.04375 74.476562) scale(0.1 -0.1)">
      <defs>
       <path id="DejaVuSans-70" d="M 1159 525 
L 1159 -1331 
L 581 -1331 
L 581 3500 
L 1159 3500 
L 1159 2969 
Q 1341 3281 1617 3432 
Q 1894 3584 2278 3584 
Q 2916 3584 3314 3078 
Q 3713 2572 3713 1747 
Q 3713 922 3314 415 
Q 2916 -91 2278 -91 
Q 1894 -91 1617 61 
Q 1341 213 1159 525 
z
M 3116 1747 
Q 3116 2381 2855 2742 
Q 2594 3103 2138 3103 
Q 1681 3103 1420 2742 
Q 1159 2381 1159 1747 
Q 1159 1113 1420 752 
Q 1681 391 2138 391 
Q 2594 391 2855 752 
Q 3116 1113 3116 1747 
z
" transform="scale(0.015625)"/>
       <path id="DejaVuSans-69" d="M 603 3500 
L 1178 3500 
L 1178 0 
L 603 0 
L 603 3500 
z
M 603 4863 
L 1178 4863 
L 1178 4134 
L 603 4134 
L 603 4863 
z
" transform="scale(0.015625)"/>
       <path id="DejaVuSans-63" d="M 3122 3366 
L 3122 2828 
Q 2878 2963 2633 3030 
Q 2388 3097 2138 3097 
Q 1578 3097 1268 2742 
Q 959 2388 959 1747 
Q 959 1106 1268 751 
Q 1578 397 2138 397 
Q 2388 397 2633 464 
Q 2878 531 3122 666 
L 3122 134 
Q 2881 22 2623 -34 
Q 2366 -91 2075 -91 
Q 1284 -91 818 406 
Q 353 903 353 1747 
Q 353 2603 823 3093 
Q 1294 3584 2113 3584 
Q 2378 3584 2631 3529 
Q 2884 3475 3122 3366 
z
" transform="scale(0.015625)"/>
      </defs>
      <use xlink:href="#DejaVuSans-70"/>
      <use xlink:href="#DejaVuSans-72" x="63.476562"/>
      <use xlink:href="#DejaVuSans-65" x="102.339844"/>
      <use xlink:href="#DejaVuSans-64" x="163.863281"/>
      <use xlink:href="#DejaVuSans-69" x="227.339844"/>
      <use xlink:href="#DejaVuSans-63" x="255.123047"/>
      <use xlink:href="#DejaVuSans-74" x="310.103516"/>
      <use xlink:href="#DejaVuSans-65" x="349.3125"/>
      <use xlink:href="#DejaVuSans-64" x="410.835938"/>
     </g>
    </g>
   </g>
  </g>
 </g>
 <defs>
  <clipPath id="pa5c8000527">
   <rect x="90" y="43.2" width="558" height="244.8"/>
  </clipPath>
 </defs>
</svg>
