<?xml version="1.0" encoding="utf-8" standalone="no"?>
<!DOCTYPE svg PUBLIC "-//W3C//DTD SVG 1.1//EN"
  "http://www.w3.org/Graphics/SVG/1.1/DTD/svg11.dtd">
<svg xmlns:xlink="http://www.w3.org/1999/xlink" width="720pt" height="360pt" viewBox="0 0 720 360" xmlns="http://www.w3.org/2000/svg" version="1.1">
 <metadata>
  <rdf:RDF xmlns:dc="http://purl.org/dc/elements/1.1/" xmlns:cc="http://creativecommons.org/ns#" xmlns:rdf="http://www.w3.org/1999/02/22-rdf-syntax-ns#">
   <cc:Work>
    <dc:type rdf:resource="http://purl.org/dc/dcmitype/StillImage"/>
    <dc:date>2023-10-23T10:54:16.935107</dc:date>
    <dc:format>image/svg+xml</dc:format>
    <dc:creator>
     <cc:Agent>
      <dc:title>Matplotlib v3.7.1, https://matplotlib.org/</dc:title>
     </cc:Agent>
    </dc:creator>
   </cc:Work>
  </rdf:RDF>
 </metadata>
 <defs>
  <style type="text/css">*{stroke-linejoin: round; stroke-linecap: butt}</style>
 </defs>
 <g id="figure_1">
  <g id="patch_1">
   <path d="M 0 360 
L 720 360 
L 720 0 
L 0 0 
z
" style="fill: #ffffff"/>
  </g>
  <g id="axes_1">
   <g id="patch_2">
    <path d="M 90 288 
L 648 288 
L 648 43.2 
L 90 43.2 
z
" style="fill: #ffffff"/>
   </g>
   <g id="matplotlib.axis_1">
    <g id="xtick_1">
     <g id="line2d_1">
      <defs>
       <path id="mc9f5dde837" d="M 0 0 
L 0 3.5 
" style="stroke: #000000; stroke-width: 0.8"/>
      </defs>
      <g>
       <use xlink:href="#mc9f5dde837" x="149.370747" y="288" style="stroke: #000000; stroke-width: 0.8"/>
      </g>
     </g>
     <g id="text_1">
      <!-- 2023-08-15 -->
      <g transform="translate(87.727405 337.765903) rotate(-30) scale(0.12 -0.12)">
       <defs>
        <path id="DejaVuSans-32" d="M 1228 531 
L 3431 531 
L 3431 0 
L 469 0 
L 469 531 
Q 828 903 1448 1529 
Q 2069 2156 2228 2338 
Q 2531 2678 2651 2914 
Q 2772 3150 2772 3378 
Q 2772 3750 2511 3984 
Q 2250 4219 1831 4219 
Q 1534 4219 1204 4116 
Q 875 4013 500 3803 
L 500 4441 
Q 881 4594 1212 4672 
Q 1544 4750 1819 4750 
Q 2544 4750 2975 4387 
Q 3406 4025 3406 3419 
Q 3406 3131 3298 2873 
Q 3191 2616 2906 2266 
Q 2828 2175 2409 1742 
Q 1991 1309 1228 531 
z
" transform="scale(0.015625)"/>
        <path id="DejaVuSans-30" d="M 2034 4250 
Q 1547 4250 1301 3770 
Q 1056 3291 1056 2328 
Q 1056 1369 1301 889 
Q 1547 409 2034 409 
Q 2525 409 2770 889 
Q 3016 1369 3016 2328 
Q 3016 3291 2770 3770 
Q 2525 4250 2034 4250 
z
M 2034 4750 
Q 2819 4750 3233 4129 
Q 3647 3509 3647 2328 
Q 3647 1150 3233 529 
Q 2819 -91 2034 -91 
Q 1250 -91 836 529 
Q 422 1150 422 2328 
Q 422 3509 836 4129 
Q 1250 4750 2034 4750 
z
" transform="scale(0.015625)"/>
        <path id="DejaVuSans-33" d="M 2597 2516 
Q 3050 2419 3304 2112 
Q 3559 1806 3559 1356 
Q 3559 666 3084 287 
Q 2609 -91 1734 -91 
Q 1441 -91 1130 -33 
Q 819 25 488 141 
L 488 750 
Q 750 597 1062 519 
Q 1375 441 1716 441 
Q 2309 441 2620 675 
Q 2931 909 2931 1356 
Q 2931 1769 2642 2001 
Q 2353 2234 1838 2234 
L 1294 2234 
L 1294 2753 
L 1863 2753 
Q 2328 2753 2575 2939 
Q 2822 3125 2822 3475 
Q 2822 3834 2567 4026 
Q 2313 4219 1838 4219 
Q 1578 4219 1281 4162 
Q 984 4106 628 3988 
L 628 4550 
Q 988 4650 1302 4700 
Q 1616 4750 1894 4750 
Q 2613 4750 3031 4423 
Q 3450 4097 3450 3541 
Q 3450 3153 3228 2886 
Q 3006 2619 2597 2516 
z
" transform="scale(0.015625)"/>
        <path id="DejaVuSans-2d" d="M 313 2009 
L 1997 2009 
L 1997 1497 
L 313 1497 
L 313 2009 
z
" transform="scale(0.015625)"/>
        <path id="DejaVuSans-38" d="M 2034 2216 
Q 1584 2216 1326 1975 
Q 1069 1734 1069 1313 
Q 1069 891 1326 650 
Q 1584 409 2034 409 
Q 2484 409 2743 651 
Q 3003 894 3003 1313 
Q 3003 1734 2745 1975 
Q 2488 2216 2034 2216 
z
M 1403 2484 
Q 997 2584 770 2862 
Q 544 3141 544 3541 
Q 544 4100 942 4425 
Q 1341 4750 2034 4750 
Q 2731 4750 3128 4425 
Q 3525 4100 3525 3541 
Q 3525 3141 3298 2862 
Q 3072 2584 2669 2484 
Q 3125 2378 3379 2068 
Q 3634 1759 3634 1313 
Q 3634 634 3220 271 
Q 2806 -91 2034 -91 
Q 1263 -91 848 271 
Q 434 634 434 1313 
Q 434 1759 690 2068 
Q 947 2378 1403 2484 
z
M 1172 3481 
Q 1172 3119 1398 2916 
Q 1625 2713 2034 2713 
Q 2441 2713 2670 2916 
Q 2900 3119 2900 3481 
Q 2900 3844 2670 4047 
Q 2441 4250 2034 4250 
Q 1625 4250 1398 4047 
Q 1172 3844 1172 3481 
z
" transform="scale(0.015625)"/>
        <path id="DejaVuSans-31" d="M 794 531 
L 1825 531 
L 1825 4091 
L 703 3866 
L 703 4441 
L 1819 4666 
L 2450 4666 
L 2450 531 
L 3481 531 
L 3481 0 
L 794 0 
L 794 531 
z
" transform="scale(0.015625)"/>
        <path id="DejaVuSans-35" d="M 691 4666 
L 3169 4666 
L 3169 4134 
L 1269 4134 
L 1269 2991 
Q 1406 3038 1543 3061 
Q 1681 3084 1819 3084 
Q 2600 3084 3056 2656 
Q 3513 2228 3513 1497 
Q 3513 744 3044 326 
Q 2575 -91 1722 -91 
Q 1428 -91 1123 -41 
Q 819 9 494 109 
L 494 744 
Q 775 591 1075 516 
Q 1375 441 1709 441 
Q 2250 441 2565 725 
Q 2881 1009 2881 1497 
Q 2881 1984 2565 2268 
Q 2250 2553 1709 2553 
Q 1456 2553 1204 2497 
Q 953 2441 691 2322 
L 691 4666 
z
" transform="scale(0.015625)"/>
       </defs>
       <use xlink:href="#DejaVuSans-32"/>
       <use xlink:href="#DejaVuSans-30" x="63.623047"/>
       <use xlink:href="#DejaVuSans-32" x="127.246094"/>
       <use xlink:href="#DejaVuSans-33" x="190.869141"/>
       <use xlink:href="#DejaVuSans-2d" x="254.492188"/>
       <use xlink:href="#DejaVuSans-30" x="290.576172"/>
       <use xlink:href="#DejaVuSans-38" x="354.199219"/>
       <use xlink:href="#DejaVuSans-2d" x="417.822266"/>
       <use xlink:href="#DejaVuSans-31" x="453.90625"/>
       <use xlink:href="#DejaVuSans-35" x="517.529297"/>
      </g>
     </g>
    </g>
    <g id="xtick_2">
     <g id="line2d_2">
      <g>
       <use xlink:href="#mc9f5dde837" x="264.994921" y="288" style="stroke: #000000; stroke-width: 0.8"/>
      </g>
     </g>
     <g id="text_2">
      <!-- 2023-09-01 -->
      <g transform="translate(203.35158 337.765903) rotate(-30) scale(0.12 -0.12)">
       <defs>
        <path id="DejaVuSans-39" d="M 703 97 
L 703 672 
Q 941 559 1184 500 
Q 1428 441 1663 441 
Q 2288 441 2617 861 
Q 2947 1281 2994 2138 
Q 2813 1869 2534 1725 
Q 2256 1581 1919 1581 
Q 1219 1581 811 2004 
Q 403 2428 403 3163 
Q 403 3881 828 4315 
Q 1253 4750 1959 4750 
Q 2769 4750 3195 4129 
Q 3622 3509 3622 2328 
Q 3622 1225 3098 567 
Q 2575 -91 1691 -91 
Q 1453 -91 1209 -44 
Q 966 3 703 97 
z
M 1959 2075 
Q 2384 2075 2632 2365 
Q 2881 2656 2881 3163 
Q 2881 3666 2632 3958 
Q 2384 4250 1959 4250 
Q 1534 4250 1286 3958 
Q 1038 3666 1038 3163 
Q 1038 2656 1286 2365 
Q 1534 2075 1959 2075 
z
" transform="scale(0.015625)"/>
       </defs>
       <use xlink:href="#DejaVuSans-32"/>
       <use xlink:href="#DejaVuSans-30" x="63.623047"/>
       <use xlink:href="#DejaVuSans-32" x="127.246094"/>
       <use xlink:href="#DejaVuSans-33" x="190.869141"/>
       <use xlink:href="#DejaVuSans-2d" x="254.492188"/>
       <use xlink:href="#DejaVuSans-30" x="290.576172"/>
       <use xlink:href="#DejaVuSans-39" x="354.199219"/>
       <use xlink:href="#DejaVuSans-2d" x="417.822266"/>
       <use xlink:href="#DejaVuSans-30" x="453.90625"/>
       <use xlink:href="#DejaVuSans-31" x="517.529297"/>
      </g>
     </g>
    </g>
    <g id="xtick_3">
     <g id="line2d_3">
      <g>
       <use xlink:href="#mc9f5dde837" x="360.21483" y="288" style="stroke: #000000; stroke-width: 0.8"/>
      </g>
     </g>
     <g id="text_3">
      <!-- 2023-09-15 -->
      <g transform="translate(298.571488 337.765903) rotate(-30) scale(0.12 -0.12)">
       <use xlink:href="#DejaVuSans-32"/>
       <use xlink:href="#DejaVuSans-30" x="63.623047"/>
       <use xlink:href="#DejaVuSans-32" x="127.246094"/>
       <use xlink:href="#DejaVuSans-33" x="190.869141"/>
       <use xlink:href="#DejaVuSans-2d" x="254.492188"/>
       <use xlink:href="#DejaVuSans-30" x="290.576172"/>
       <use xlink:href="#DejaVuSans-39" x="354.199219"/>
       <use xlink:href="#DejaVuSans-2d" x="417.822266"/>
       <use xlink:href="#DejaVuSans-31" x="453.90625"/>
       <use xlink:href="#DejaVuSans-35" x="517.529297"/>
      </g>
     </g>
    </g>
    <g id="xtick_4">
     <g id="line2d_4">
      <g>
       <use xlink:href="#mc9f5dde837" x="469.037583" y="288" style="stroke: #000000; stroke-width: 0.8"/>
      </g>
     </g>
     <g id="text_4">
      <!-- 2023-10-01 -->
      <g transform="translate(407.394241 337.765903) rotate(-30) scale(0.12 -0.12)">
       <use xlink:href="#DejaVuSans-32"/>
       <use xlink:href="#DejaVuSans-30" x="63.623047"/>
       <use xlink:href="#DejaVuSans-32" x="127.246094"/>
       <use xlink:href="#DejaVuSans-33" x="190.869141"/>
       <use xlink:href="#DejaVuSans-2d" x="254.492188"/>
       <use xlink:href="#DejaVuSans-31" x="290.576172"/>
       <use xlink:href="#DejaVuSans-30" x="354.199219"/>
       <use xlink:href="#DejaVuSans-2d" x="417.822266"/>
       <use xlink:href="#DejaVuSans-30" x="453.90625"/>
       <use xlink:href="#DejaVuSans-31" x="517.529297"/>
      </g>
     </g>
    </g>
    <g id="xtick_5">
     <g id="line2d_5">
      <g>
       <use xlink:href="#mc9f5dde837" x="564.257491" y="288" style="stroke: #000000; stroke-width: 0.8"/>
      </g>
     </g>
     <g id="text_5">
      <!-- 2023-10-15 -->
      <g transform="translate(502.614149 337.765903) rotate(-30) scale(0.12 -0.12)">
       <use xlink:href="#DejaVuSans-32"/>
       <use xlink:href="#DejaVuSans-30" x="63.623047"/>
       <use xlink:href="#DejaVuSans-32" x="127.246094"/>
       <use xlink:href="#DejaVuSans-33" x="190.869141"/>
       <use xlink:href="#DejaVuSans-2d" x="254.492188"/>
       <use xlink:href="#DejaVuSans-31" x="290.576172"/>
       <use xlink:href="#DejaVuSans-30" x="354.199219"/>
       <use xlink:href="#DejaVuSans-2d" x="417.822266"/>
       <use xlink:href="#DejaVuSans-31" x="453.90625"/>
       <use xlink:href="#DejaVuSans-35" x="517.529297"/>
      </g>
     </g>
    </g>
   </g>
   <g id="matplotlib.axis_2">
    <g id="ytick_1">
     <g id="line2d_6">
      <defs>
       <path id="m3c29ad999c" d="M 0 0 
L -3.5 0 
" style="stroke: #000000; stroke-width: 0.8"/>
      </defs>
      <g>
       <use xlink:href="#m3c29ad999c" x="90" y="285.905497" style="stroke: #000000; stroke-width: 0.8"/>
      </g>
     </g>
     <g id="text_6">
      <!-- 1.0 -->
      <g transform="translate(63.91625 290.46456) scale(0.12 -0.12)">
       <defs>
        <path id="DejaVuSans-2e" d="M 684 794 
L 1344 794 
L 1344 0 
L 684 0 
L 684 794 
z
" transform="scale(0.015625)"/>
       </defs>
       <use xlink:href="#DejaVuSans-31"/>
       <use xlink:href="#DejaVuSans-2e" x="63.623047"/>
       <use xlink:href="#DejaVuSans-30" x="95.410156"/>
      </g>
     </g>
    </g>
    <g id="ytick_2">
     <g id="line2d_7">
      <g>
       <use xlink:href="#m3c29ad999c" x="90" y="237.356419" style="stroke: #000000; stroke-width: 0.8"/>
      </g>
     </g>
     <g id="text_7">
      <!-- 1.5 -->
      <g transform="translate(63.91625 241.915482) scale(0.12 -0.12)">
       <use xlink:href="#DejaVuSans-31"/>
       <use xlink:href="#DejaVuSans-2e" x="63.623047"/>
       <use xlink:href="#DejaVuSans-35" x="95.410156"/>
      </g>
     </g>
    </g>
    <g id="ytick_3">
     <g id="line2d_8">
      <g>
       <use xlink:href="#m3c29ad999c" x="90" y="188.807341" style="stroke: #000000; stroke-width: 0.8"/>
      </g>
     </g>
     <g id="text_8">
      <!-- 2.0 -->
      <g transform="translate(63.91625 193.366404) scale(0.12 -0.12)">
       <use xlink:href="#DejaVuSans-32"/>
       <use xlink:href="#DejaVuSans-2e" x="63.623047"/>
       <use xlink:href="#DejaVuSans-30" x="95.410156"/>
      </g>
     </g>
    </g>
    <g id="ytick_4">
     <g id="line2d_9">
      <g>
       <use xlink:href="#m3c29ad999c" x="90" y="140.258263" style="stroke: #000000; stroke-width: 0.8"/>
      </g>
     </g>
     <g id="text_9">
      <!-- 2.5 -->
      <g transform="translate(63.91625 144.817326) scale(0.12 -0.12)">
       <use xlink:href="#DejaVuSans-32"/>
       <use xlink:href="#DejaVuSans-2e" x="63.623047"/>
       <use xlink:href="#DejaVuSans-35" x="95.410156"/>
      </g>
     </g>
    </g>
    <g id="ytick_5">
     <g id="line2d_10">
      <g>
       <use xlink:href="#m3c29ad999c" x="90" y="91.709185" style="stroke: #000000; stroke-width: 0.8"/>
      </g>
     </g>
     <g id="text_10">
      <!-- 3.0 -->
      <g transform="translate(63.91625 96.268248) scale(0.12 -0.12)">
       <use xlink:href="#DejaVuSans-33"/>
       <use xlink:href="#DejaVuSans-2e" x="63.623047"/>
       <use xlink:href="#DejaVuSans-30" x="95.410156"/>
      </g>
     </g>
    </g>
    <g id="text_11">
     <!-- Meters -->
     <g transform="translate(57.836562 182.6875) rotate(-90) scale(0.1 -0.1)">
      <defs>
       <path id="DejaVuSans-4d" d="M 628 4666 
L 1569 4666 
L 2759 1491 
L 3956 4666 
L 4897 4666 
L 4897 0 
L 4281 0 
L 4281 4097 
L 3078 897 
L 2444 897 
L 1241 4097 
L 1241 0 
L 628 0 
L 628 4666 
z
" transform="scale(0.015625)"/>
       <path id="DejaVuSans-65" d="M 3597 1894 
L 3597 1613 
L 953 1613 
Q 991 1019 1311 708 
Q 1631 397 2203 397 
Q 2534 397 2845 478 
Q 3156 559 3463 722 
L 3463 178 
Q 3153 47 2828 -22 
Q 2503 -91 2169 -91 
Q 1331 -91 842 396 
Q 353 884 353 1716 
Q 353 2575 817 3079 
Q 1281 3584 2069 3584 
Q 2775 3584 3186 3129 
Q 3597 2675 3597 1894 
z
M 3022 2063 
Q 3016 2534 2758 2815 
Q 2500 3097 2075 3097 
Q 1594 3097 1305 2825 
Q 1016 2553 972 2059 
L 3022 2063 
z
" transform="scale(0.015625)"/>
       <path id="DejaVuSans-74" d="M 1172 4494 
L 1172 3500 
L 2356 3500 
L 2356 3053 
L 1172 3053 
L 1172 1153 
Q 1172 725 1289 603 
Q 1406 481 1766 481 
L 2356 481 
L 2356 0 
L 1766 0 
Q 1100 0 847 248 
Q 594 497 594 1153 
L 594 3053 
L 172 3053 
L 172 3500 
L 594 3500 
L 594 4494 
L 1172 4494 
z
" transform="scale(0.015625)"/>
       <path id="DejaVuSans-72" d="M 2631 2963 
Q 2534 3019 2420 3045 
Q 2306 3072 2169 3072 
Q 1681 3072 1420 2755 
Q 1159 2438 1159 1844 
L 1159 0 
L 581 0 
L 581 3500 
L 1159 3500 
L 1159 2956 
Q 1341 3275 1631 3429 
Q 1922 3584 2338 3584 
Q 2397 3584 2469 3576 
Q 2541 3569 2628 3553 
L 2631 2963 
z
" transform="scale(0.015625)"/>
       <path id="DejaVuSans-73" d="M 2834 3397 
L 2834 2853 
Q 2591 2978 2328 3040 
Q 2066 3103 1784 3103 
Q 1356 3103 1142 2972 
Q 928 2841 928 2578 
Q 928 2378 1081 2264 
Q 1234 2150 1697 2047 
L 1894 2003 
Q 2506 1872 2764 1633 
Q 3022 1394 3022 966 
Q 3022 478 2636 193 
Q 2250 -91 1575 -91 
Q 1294 -91 989 -36 
Q 684 19 347 128 
L 347 722 
Q 666 556 975 473 
Q 1284 391 1588 391 
Q 1994 391 2212 530 
Q 2431 669 2431 922 
Q 2431 1156 2273 1281 
Q 2116 1406 1581 1522 
L 1381 1569 
Q 847 1681 609 1914 
Q 372 2147 372 2553 
Q 372 3047 722 3315 
Q 1072 3584 1716 3584 
Q 2034 3584 2315 3537 
Q 2597 3491 2834 3397 
z
" transform="scale(0.015625)"/>
      </defs>
      <use xlink:href="#DejaVuSans-4d"/>
      <use xlink:href="#DejaVuSans-65" x="86.279297"/>
      <use xlink:href="#DejaVuSans-74" x="147.802734"/>
      <use xlink:href="#DejaVuSans-65" x="187.011719"/>
      <use xlink:href="#DejaVuSans-72" x="248.535156"/>
      <use xlink:href="#DejaVuSans-73" x="289.648438"/>
     </g>
    </g>
   </g>
   <g id="line2d_11">
    <path d="M 115.363636 221.813441 
L 115.930422 221.39279 
L 116.213814 221.732546 
L 116.780599 221.408968 
L 117.063992 221.360432 
L 117.630777 221.586936 
L 117.91417 221.376611 
L 118.480955 220.163194 
L 118.764347 219.952869 
L 119.04774 220.260268 
L 119.331133 220.745634 
L 120.464703 223.965232 
L 121.881666 226.634748 
L 122.165058 226.731821 
L 122.448451 225.388974 
L 122.731844 224.612387 
L 123.582021 224.207915 
L 123.865414 224.628566 
L 124.148807 224.337346 
L 124.432199 224.482956 
L 124.715592 224.191736 
L 125.565769 222.039945 
L 125.849162 222.153197 
L 126.69934 225.356616 
L 126.982732 225.809625 
L 127.549518 225.227185 
L 128.116303 227.281903 
L 128.399695 227.751091 
L 128.683088 228.77036 
L 128.96648 227.848164 
L 129.249873 226.117023 
L 129.533266 225.43751 
L 129.816658 225.550763 
L 130.383443 224.855071 
L 130.666836 225.130112 
L 130.950229 225.00068 
L 131.517014 225.016859 
L 131.800406 225.388974 
L 132.083799 225.372795 
L 132.367191 225.486047 
L 132.933977 226.537674 
L 133.500762 226.60239 
L 133.784154 227.201009 
L 134.35094 228.91597 
L 134.634332 229.271906 
L 135.201117 230.647111 
L 135.48451 231.181014 
L 135.767902 230.711826 
L 136.334688 228.689466 
L 136.901473 228.657108 
L 137.184865 228.640929 
L 137.468258 228.802718 
L 137.751651 228.640929 
L 138.035043 228.964507 
L 138.318436 228.802718 
L 138.601828 229.368979 
L 138.885221 228.786539 
L 139.168614 228.867434 
L 139.452006 229.838167 
L 139.735399 231.294266 
L 140.018791 230.598574 
L 140.302184 230.291175 
L 140.585576 230.339712 
L 140.868969 231.310445 
L 141.152362 231.795811 
L 141.719147 231.197193 
L 142.285932 230.938331 
L 142.852717 230.452964 
L 143.13611 230.274996 
L 143.419502 230.760363 
L 143.702895 230.873615 
L 143.986287 230.66329 
L 144.26968 230.194102 
L 144.553073 230.582395 
L 145.119858 230.550037 
L 145.40325 230.728005 
L 145.686643 230.630932 
L 146.253428 230.954509 
L 146.820213 231.617844 
L 147.386998 231.795811 
L 147.670391 232.281178 
L 148.237176 232.070852 
L 148.520569 232.070852 
L 149.087354 230.711826 
L 149.370747 230.132622 
L 149.937532 227.686375 
L 150.504317 226.117023 
L 151.071102 221.506042 
L 151.354495 243.056314 
L 151.637887 218.77181 
L 152.204672 218.91742 
L 152.771458 218.707095 
L 153.05485 217.881972 
L 153.621635 214.969773 
L 154.188421 211.572207 
L 154.471813 211.345703 
L 155.038598 207.91578 
L 155.321991 207.527487 
L 155.605383 206.039029 
L 155.888776 203.919596 
L 156.172169 200.942681 
L 156.738954 193.354785 
L 158.155917 180.023385 
L 159.289487 175.234436 
L 159.57288 174.328419 
L 159.856272 174.862322 
L 160.139665 176.981755 
L 160.423057 177.693626 
L 161.273235 180.945582 
L 161.556628 181.560379 
L 161.84002 182.450218 
L 162.690198 184.116643 
L 162.973591 182.466397 
L 163.256983 181.511843 
L 163.823768 180.735256 
L 164.107161 181.350054 
L 164.673946 181.350054 
L 164.957339 181.964851 
L 165.240731 181.608916 
L 165.524124 181.916315 
L 165.807517 181.5442 
L 166.090909 181.560379 
L 166.374302 181.382412 
L 166.657694 181.851599 
L 166.941087 181.625095 
L 167.224479 179.198262 
L 167.791265 177.078829 
L 168.074657 175.056468 
L 168.35805 174.215166 
L 169.208228 175.816876 
L 169.775013 174.571102 
L 170.62519 174.425492 
L 170.908583 174.004841 
L 171.191976 172.629636 
L 171.475368 172.322237 
L 172.325546 169.426217 
L 172.608939 169.021745 
L 172.892331 167.93776 
L 173.459116 164.621089 
L 173.742509 164.815235 
L 174.309294 163.0032 
L 174.592687 163.197347 
L 176.293042 169.393859 
L 176.576435 167.549466 
L 176.859827 167.695076 
L 177.993398 173.00175 
L 179.126968 174.862322 
L 179.410361 174.878501 
L 179.693753 175.234436 
L 179.977146 174.927037 
L 180.260538 175.509477 
L 180.543931 176.933219 
L 180.827324 177.175902 
L 181.110716 177.224439 
L 182.244286 179.457124 
L 182.527679 179.505661 
L 182.811072 179.974849 
L 183.094464 181.042655 
L 183.377857 179.861597 
L 183.944642 179.424767 
L 185.92839 181.5442 
L 186.211783 182.223713 
L 186.495175 182.531112 
L 186.778568 182.547291 
L 187.06196 183.307699 
L 187.345353 185.346238 
L 187.628746 185.524206 
L 187.912138 185.103555 
L 188.195531 185.508027 
L 189.045708 187.498029 
L 189.329101 187.643639 
L 189.895886 189.148275 
L 190.179279 187.48185 
L 190.462671 186.608191 
L 191.029457 187.983396 
L 191.312849 188.258437 
L 191.596242 188.857056 
L 191.879634 189.730715 
L 192.163027 189.989577 
L 192.729812 190.895595 
L 193.013205 191.316246 
L 193.57999 191.639823 
L 194.146775 193.419501 
L 194.430168 193.613647 
L 195.563738 195.474219 
L 195.847131 195.490398 
L 196.130523 195.781618 
L 196.413916 195.846333 
L 196.697308 196.18609 
L 196.980701 195.846333 
L 197.547486 195.74926 
L 197.830879 195.538934 
L 198.397664 196.574383 
L 198.681056 196.444952 
L 199.247842 197.350969 
L 199.531234 197.237717 
L 199.814627 197.901051 
L 200.098019 197.77162 
L 200.948197 198.596743 
L 201.23159 199.454224 
L 201.514982 199.826338 
L 202.081767 200.95886 
L 202.36516 200.95886 
L 202.648553 201.670731 
L 204.065515 200.279347 
L 204.348908 200.311705 
L 204.632301 200.699998 
L 205.199086 200.619104 
L 206.332656 202.220813 
L 206.616049 202.997399 
L 207.182834 203.644555 
L 207.466227 203.838701 
L 207.749619 203.741628 
L 208.033012 204.178458 
L 208.316404 203.531303 
L 208.599797 203.401872 
L 208.883189 203.951954 
L 209.166582 203.871059 
L 209.449975 204.680003 
L 210.01676 203.984311 
L 210.300152 205.003581 
L 210.583545 203.434229 
L 211.15033 202.398781 
L 211.433723 202.722358 
L 211.717115 202.770895 
L 213.134078 204.275531 
L 213.417471 204.518214 
L 213.700863 204.534393 
L 214.267649 204.87415 
L 214.834434 204.971223 
L 215.117826 205.294801 
L 215.684611 204.777077 
L 215.968004 205.391874 
L 216.534789 205.941956 
L 216.818182 206.864152 
L 217.101574 207.106836 
L 217.384967 182.951763 
L 217.66836 204.647646 
L 218.235145 203.434229 
L 218.518537 200.166095 
L 218.80193 195.393324 
L 219.085322 192.756166 
L 219.368715 193.516574 
L 219.9355 195.587471 
L 220.218893 196.202269 
L 220.502285 196.444952 
L 220.785678 196.412594 
L 221.069071 195.927227 
L 221.635856 194.487307 
L 221.919248 193.969583 
L 223.902996 185.02266 
L 224.186389 179.538019 
L 224.753174 174.441671 
L 225.319959 171.027926 
L 225.886745 169.96012 
L 226.170137 169.264428 
L 226.45353 169.23207 
L 226.736922 169.636542 
L 227.020315 170.380771 
L 227.5871 173.309149 
L 228.153885 176.852324 
L 228.437278 178.001025 
L 229.004063 178.437855 
L 229.570848 181.608916 
L 229.854241 182.612007 
L 230.137633 183.065015 
L 230.421026 182.256071 
L 230.704418 182.191356 
L 230.987811 181.786884 
L 231.271204 182.045746 
L 231.554596 181.851599 
L 231.837989 182.029567 
L 232.121381 182.547291 
L 232.404774 182.806153 
L 232.971559 181.172086 
L 233.254952 180.994118 
L 233.538344 181.026476 
L 233.821737 180.492573 
L 234.10513 180.702898 
L 234.388522 180.152816 
L 234.955307 182.385502 
L 235.2387 182.450218 
L 235.522092 182.223713 
L 235.805485 183.0003 
L 236.088878 184.456399 
L 236.37227 185.16827 
L 236.655663 185.427132 
L 236.939055 185.362417 
L 237.222448 183.971033 
L 237.505841 185.006481 
L 237.789233 184.213716 
L 238.072626 183.776886 
L 238.639411 183.809244 
L 239.206196 184.213716 
L 239.772981 184.424042 
L 240.056374 185.038839 
L 240.339766 185.103555 
L 240.623159 185.330059 
L 240.906552 185.31388 
L 241.189944 184.537294 
L 241.473337 186.058109 
L 241.756729 188.517299 
L 242.040122 188.954129 
L 242.323514 188.630551 
L 242.606907 188.889413 
L 242.8903 189.795431 
L 243.173692 190.199903 
L 243.457085 191.54275 
L 243.740477 191.97958 
L 244.02387 190.733806 
L 244.307263 190.749985 
L 244.874048 188.565836 
L 245.15744 188.436405 
L 245.440833 188.533478 
L 246.291011 189.196812 
L 247.141188 190.394049 
L 247.707974 192.626735 
L 247.991366 192.464947 
L 248.274759 192.950313 
L 248.841544 194.58438 
L 249.691722 193.953404 
L 249.975114 194.972673 
L 250.258507 194.988852 
L 250.541899 193.694542 
L 250.825292 191.558929 
L 251.108685 192.254621 
L 251.958862 196.072837 
L 252.525648 196.800887 
L 253.092433 196.396415 
L 253.94261 198.386418 
L 255.076181 201.217722 
L 255.359573 202.026666 
L 255.642966 201.994309 
L 255.926359 201.670731 
L 256.493144 203.159188 
L 257.059929 204.469678 
L 257.343321 204.307889 
L 257.626714 203.579839 
L 257.910107 204.502036 
L 258.193499 203.466587 
L 258.476892 202.997399 
L 258.760284 202.835611 
L 259.043677 202.285529 
L 259.32707 202.625285 
L 259.893855 203.596018 
L 260.177247 203.70927 
L 261.310818 204.890329 
L 261.59421 203.70927 
L 261.877603 205.246264 
L 262.160995 207.834885 
L 262.727781 207.009762 
L 263.011173 207.268625 
L 263.294566 208.433504 
L 263.577958 208.740903 
L 263.861351 209.808709 
L 264.144744 209.873425 
L 264.428136 208.724724 
L 264.711529 209.242448 
L 264.994921 208.142284 
L 265.278314 207.851064 
L 265.845099 207.786349 
L 266.411884 207.964317 
L 266.978669 208.579114 
L 267.262062 208.805618 
L 267.545455 208.805618 
L 267.828847 209.371879 
L 268.11224 209.161554 
L 268.395632 208.384968 
L 268.679025 209.274806 
L 268.962417 211.216272 
L 269.529203 209.582205 
L 269.812595 210.116108 
L 270.662773 212.364973 
L 270.946166 212.073753 
L 271.229558 211.24863 
L 271.512951 211.620744 
L 271.796343 210.52058 
L 272.079736 210.067571 
L 273.496699 209.436595 
L 273.780091 210.245539 
L 274.063484 210.099929 
L 274.346877 210.941231 
L 274.630269 210.844158 
L 274.913662 210.261718 
L 275.197054 210.067571 
L 275.480447 210.455865 
L 275.76384 211.086841 
L 276.047232 211.264809 
L 276.330625 212.009037 
L 276.89741 212.737087 
L 277.180802 212.559119 
L 277.464195 212.737087 
L 277.747588 213.238632 
L 278.03098 213.060665 
L 278.314373 213.109201 
L 278.597765 212.83416 
L 278.881158 213.303348 
L 279.447943 213.691641 
L 279.731336 213.610747 
L 280.014728 214.160829 
L 281.148299 214.662374 
L 281.431691 214.549122 
L 281.715084 214.678553 
L 281.998476 214.225544 
L 282.281869 214.905057 
L 282.565262 216.490588 
L 282.848654 215.87579 
L 283.132047 215.73018 
L 283.415439 215.989043 
L 283.698832 216.425872 
L 283.982224 217.18628 
L 284.265617 217.396605 
L 284.54901 217.137743 
L 285.115795 217.655468 
L 285.399187 216.60384 
L 285.965973 215.552213 
L 286.249365 215.422782 
L 286.532758 215.665465 
L 287.099543 215.260993 
L 287.382936 215.228635 
L 287.666328 215.762538 
L 288.233113 215.568392 
L 288.516506 216.247905 
L 288.799898 216.005221 
L 289.083291 216.215547 
L 289.366684 218.011403 
L 289.650076 217.995224 
L 289.933469 218.124655 
L 290.500254 219.694007 
L 291.067039 221.24718 
L 291.917217 221.182464 
L 292.484002 219.807259 
L 292.767395 219.661649 
L 293.050787 219.661649 
L 293.617572 219.289535 
L 293.900965 219.20864 
L 294.184358 219.580755 
L 295.034535 219.839617 
L 295.317928 220.098479 
L 295.60132 219.888153 
L 295.884713 219.952869 
L 296.168106 221.651652 
L 296.451498 221.894335 
L 296.734891 223.059215 
L 297.018283 223.528402 
L 297.301676 223.70637 
L 297.868461 224.563851 
L 298.435246 223.674012 
L 299.002031 222.10466 
L 299.285424 221.408968 
L 299.568817 221.829619 
L 299.852209 221.473684 
L 300.135602 221.781083 
L 300.418994 221.910514 
L 300.98578 221.732546 
L 301.269172 222.10466 
L 301.552565 222.185555 
L 301.835957 222.137018 
L 302.11935 221.667831 
L 302.686135 222.622385 
L 303.25292 222.865068 
L 303.536313 222.751816 
L 303.819705 223.754906 
L 304.103098 224.1432 
L 304.386491 224.887428 
L 304.669883 224.822713 
L 304.953276 225.308079 
L 305.236668 224.790355 
L 305.520061 223.932874 
L 305.803454 223.722549 
L 306.370239 224.240273 
L 306.653631 223.85198 
L 307.220416 221.619294 
L 307.503809 220.680919 
L 307.787202 220.260268 
L 308.070594 220.761813 
L 308.920772 222.800352 
L 309.77095 223.593118 
L 310.054342 224.078484 
L 310.337735 223.900516 
L 310.621127 223.237182 
L 310.90452 223.091572 
L 311.187913 223.690191 
L 311.754698 224.224094 
L 312.03809 224.046126 
L 312.604876 224.596208 
L 312.888268 224.790355 
L 313.171661 224.612387 
L 313.455053 224.58003 
L 313.738446 224.806534 
L 314.305231 224.499135 
L 315.155409 223.253361 
L 315.438801 223.528402 
L 315.722194 223.253361 
L 316.005587 223.334256 
L 316.288979 223.609297 
L 316.572372 224.256452 
L 316.855764 224.28881 
L 317.139157 224.677103 
L 317.42255 225.259543 
L 317.705942 225.469868 
L 318.272727 226.294991 
L 318.55612 226.31117 
L 318.839512 226.553853 
L 319.122905 226.634748 
L 319.406298 227.427513 
L 319.68969 226.990683 
L 320.539868 226.925968 
L 320.823261 226.505317 
L 321.106653 226.375886 
L 321.390046 225.72873 
L 321.673438 226.084666 
L 322.807009 225.809625 
L 323.373794 226.084666 
L 323.657186 227.556944 
L 323.940579 227.654017 
L 324.507364 228.802718 
L 324.790757 229.724914 
L 325.074149 230.032313 
L 325.357542 229.983777 
L 325.640934 230.097029 
L 325.924327 229.870524 
L 326.491112 229.692557 
L 326.774505 229.449873 
L 327.057897 229.757272 
L 327.34129 229.773451 
L 327.908075 230.436785 
L 328.47486 230.274996 
L 328.758253 230.388249 
L 329.608431 230.194102 
L 329.891823 230.469143 
L 330.175216 230.436785 
L 330.458608 231.067762 
L 330.742001 231.197193 
L 331.875571 233.915245 
L 332.442357 232.135568 
L 332.725749 232.038495 
L 333.292534 231.051583 
L 333.575927 230.889794 
L 333.859319 230.51768 
L 334.142712 230.533859 
L 334.426105 230.728005 
L 334.99289 231.536949 
L 335.276282 231.37516 
L 335.559675 231.698738 
L 335.843068 231.650201 
L 336.12646 231.731096 
L 336.693245 231.310445 
L 337.26003 231.795811 
L 337.543423 231.585486 
L 337.826816 231.747275 
L 338.110208 231.585486 
L 338.676993 230.954509 
L 338.960386 230.873615 
L 339.243779 231.100119 
L 339.810564 230.922152 
L 343.494667 231.747275 
L 343.77806 232.038495 
L 344.061453 231.941421 
L 344.344845 232.297357 
L 344.628238 232.329715 
L 344.91163 232.701829 
L 345.195023 232.669471 
L 345.478415 233.009228 
L 345.761808 232.167926 
L 346.045201 231.698738 
L 346.328593 232.669471 
L 346.611986 232.426788 
L 346.895378 232.022316 
L 347.462164 232.10321 
L 347.745556 231.81199 
L 348.312341 231.617844 
L 348.595734 231.617844 
L 348.879126 231.779633 
L 349.729304 231.763454 
L 350.012697 231.52077 
L 350.579482 232.313536 
L 350.862875 233.284269 
L 351.146267 233.834351 
L 351.713052 233.575489 
L 351.996445 233.801993 
L 352.279837 233.769635 
L 352.846623 234.335896 
L 353.130015 234.222644 
L 353.413408 233.882887 
L 353.6968 233.866708 
L 353.980193 233.526952 
L 354.263586 233.688741 
L 354.546978 233.478415 
L 354.830371 233.882887 
L 355.397156 233.931424 
L 355.680549 234.255002 
L 355.963941 234.352075 
L 356.247334 234.303538 
L 356.530726 234.610937 
L 356.814119 233.688741 
L 357.097511 233.26809 
L 357.380904 236.277362 
L 357.664297 236.406793 
L 357.947689 235.630207 
L 358.231082 236.568582 
L 358.514474 236.924517 
L 358.797867 238.461511 
L 359.08126 238.979236 
L 359.648045 236.390614 
L 360.498222 234.772726 
L 360.781615 234.788905 
L 361.065008 234.190286 
L 361.3484 234.594758 
L 361.631793 234.513864 
L 362.765363 234.885978 
L 363.048756 234.675653 
L 363.332148 235.096304 
L 363.615541 234.837441 
L 363.898933 233.85053 
L 364.182326 236.358256 
L 364.749111 236.245004 
L 365.032504 237.086306 
L 365.315896 238.510048 
L 365.599289 238.671837 
L 365.882682 239.011593 
L 366.166074 237.992324 
L 366.449467 237.927608 
L 366.732859 237.523136 
L 367.299644 237.102485 
L 367.583037 237.199558 
L 367.86643 236.859802 
L 368.149822 237.231916 
L 368.433215 237.393705 
L 368.716607 237.377526 
L 369 237.199558 
L 369.283393 237.458421 
L 369.566785 237.393705 
L 369.850178 237.620209 
L 370.13357 237.668746 
L 370.700356 236.520045 
L 371.267141 237.976145 
L 371.550533 238.380617 
L 372.117318 239.610212 
L 372.400711 239.610212 
L 372.684104 239.141024 
L 372.967496 239.707285 
L 373.250889 239.35135 
L 373.817674 237.474599 
L 374.101067 237.005412 
L 374.384459 237.005412 
L 374.667852 237.231916 
L 374.951244 236.989233 
L 375.801422 236.973054 
L 376.6516 238.121755 
L 377.218385 238.348259 
L 378.635348 240.64566 
L 379.202133 241.95615 
L 380.335703 241.406068 
L 380.902489 240.208831 
L 381.185881 240.597124 
L 381.469274 239.804359 
L 382.036059 241.195743 
L 382.319451 241.001596 
L 382.602844 241.017775 
L 383.169629 240.483872 
L 383.453022 240.758913 
L 383.736414 241.51932 
L 384.3032 240.160294 
L 384.586592 242.328264 
L 384.869985 242.409159 
L 385.153377 242.231191 
L 385.720163 242.765094 
L 386.286948 244.253551 
L 386.853733 243.881437 
L 387.137125 242.878346 
L 387.703911 242.279728 
L 388.554088 242.943062 
L 388.837481 242.959241 
L 389.687659 243.396071 
L 389.971051 243.396071 
L 390.254444 243.185745 
L 390.537836 243.41225 
L 390.821229 242.603305 
L 391.104622 242.328264 
L 391.388014 244.99778 
L 391.671407 245.240463 
L 391.954799 245.046317 
L 392.238192 245.046317 
L 392.521585 245.612578 
L 393.371762 245.224284 
L 393.655155 244.722739 
L 393.938547 244.641845 
L 394.22194 244.318267 
L 394.505333 244.41534 
L 394.788725 244.658024 
L 395.072118 244.496235 
L 397.055866 245.175748 
L 397.906044 244.690381 
L 398.756221 245.531683 
L 399.039614 246.146481 
L 399.889792 249.042501 
L 400.73997 247.117214 
L 401.023362 246.728921 
L 401.306755 246.615668 
L 401.590147 246.648026 
L 401.87354 247.052498 
L 402.440325 247.262824 
L 403.00711 247.845263 
L 403.290503 247.861442 
L 403.857288 248.298272 
L 404.140681 248.362988 
L 404.707466 247.796727 
L 404.990858 249.786729 
L 405.557643 249.317542 
L 405.841036 249.469623 
L 406.124429 250.547137 
L 406.691214 250.142665 
L 407.541392 247.990873 
L 408.391569 247.505507 
L 409.52514 248.324158 
L 409.808532 248.557134 
L 410.091925 248.524777 
L 410.375317 248.62185 
L 410.65871 249.010143 
L 410.942103 249.091037 
L 411.225495 249.301363 
L 411.508888 249.139574 
L 411.79228 249.754372 
L 412.075673 251.129577 
L 412.359066 251.000146 
L 412.642458 251.825269 
L 412.925851 253.168116 
L 413.209243 253.896166 
L 413.492636 254.284459 
L 413.776028 252.618034 
L 414.059421 252.165025 
L 414.909599 250.35299 
L 415.476384 250.530958 
L 415.759777 250.692747 
L 416.043169 251.113398 
L 416.326562 251.275187 
L 416.609954 251.614943 
L 416.893347 251.728195 
L 417.176739 251.631122 
L 417.460132 252.10031 
L 417.743525 251.970879 
L 418.026917 251.566407 
L 418.31031 251.485512 
L 418.593702 252.893075 
L 418.877095 252.165025 
L 419.160488 252.715107 
L 419.727273 254.85072 
L 420.294058 255.627306 
L 420.57745 254.009418 
L 420.860843 253.68584 
L 421.144236 254.074134 
L 421.427628 254.025597 
L 421.994413 253.734377 
L 422.277806 253.297547 
L 422.561199 253.588767 
L 423.127984 253.734377 
L 423.411376 254.171207 
L 423.694769 254.300638 
L 423.978162 254.26828 
L 424.261554 254.656573 
L 424.544947 254.041776 
L 424.828339 253.847629 
L 425.111732 253.329905 
L 425.395124 255.206655 
L 425.678517 255.449339 
L 425.96191 255.336086 
L 426.812087 257.714382 
L 427.09548 257.520236 
L 427.378873 256.355356 
L 427.945658 255.708201 
L 428.22905 254.446248 
L 428.512443 254.5595 
L 428.795835 254.41389 
L 429.079228 254.510963 
L 429.362621 254.931614 
L 429.646013 254.947793 
L 429.929406 255.43316 
L 430.496191 255.57877 
L 430.779584 255.255192 
L 431.062976 255.853811 
L 431.346369 255.999421 
L 431.913154 255.093403 
L 432.196546 256.856901 
L 432.763332 256.371535 
L 433.330117 256.72747 
L 433.613509 256.743649 
L 433.896902 256.193567 
L 434.180295 256.047957 
L 434.463687 256.161209 
L 434.74708 256.015599 
L 435.030472 256.242104 
L 435.313865 256.274462 
L 435.597257 256.161209 
L 436.164043 255.061045 
L 436.447435 255.158119 
L 437.297613 256.468608 
L 437.864398 256.646576 
L 438.147791 256.953975 
L 438.431183 256.759828 
L 438.714576 256.87308 
L 438.997969 256.614218 
L 439.281361 256.517145 
L 439.564754 256.937796 
L 439.848146 256.953975 
L 440.131539 256.678934 
L 440.698324 257.115764 
L 440.981717 256.921617 
L 441.831894 255.983242 
L 442.682072 255.934705 
L 442.965465 256.128852 
L 443.248857 255.86999 
L 443.815642 256.128852 
L 444.382428 256.047957 
L 445.232605 256.339177 
L 445.799391 256.549503 
L 446.366176 256.614218 
L 447.499746 257.617309 
L 447.783139 257.212837 
L 448.349924 257.229016 
L 448.633316 257.083406 
L 448.916709 256.695113 
L 449.483494 255.368444 
L 449.766887 255.336086 
L 450.617064 256.808365 
L 450.900457 257.115764 
L 451.750635 255.86999 
L 453.167598 256.630397 
L 453.734383 256.274462 
L 454.301168 255.643485 
L 454.584561 255.999421 
L 454.867953 256.064136 
L 455.151346 256.387714 
L 455.434738 255.934705 
L 456.284916 253.426978 
L 457.135094 252.601855 
L 457.985272 252.601855 
L 458.552057 252.132668 
L 459.118842 250.676568 
L 459.402235 250.805999 
L 459.685627 251.08104 
L 460.819198 253.879987 
L 461.10259 253.960881 
L 461.385983 253.83145 
L 461.669375 253.97706 
L 461.952768 253.782914 
L 462.23616 254.041776 
L 462.519553 253.97706 
L 463.086338 254.53685 
L 463.369731 254.5595 
L 463.653123 254.899257 
L 464.219909 255.109582 
L 465.070086 255.271371 
L 465.636872 255.206655 
L 465.920264 255.239013 
L 466.203657 255.044866 
L 466.487049 255.044866 
L 466.770442 255.481696 
L 467.904012 259.396986 
L 468.470797 255.497875 
L 468.75419 255.416981 
L 469.320975 254.721289 
L 469.604368 254.608037 
L 469.88776 254.688931 
L 470.171153 254.640394 
L 470.454545 254.899257 
L 470.737938 254.769825 
L 472.154901 255.514054 
L 472.438294 255.675843 
L 472.721686 256.274462 
L 473.005079 259.073408 
L 473.288471 259.461702 
L 473.571864 258.393895 
L 474.422042 259.801458 
L 474.705434 261.176663 
L 474.988827 260.64276 
L 475.272219 258.490969 
L 476.122397 257.196658 
L 476.40579 257.01869 
L 476.689182 257.115764 
L 476.972575 257.034869 
L 477.255967 257.293731 
L 477.53936 257.261373 
L 477.822753 257.083406 
L 478.106145 257.245195 
L 478.389538 257.083406 
L 478.67293 257.180479 
L 479.239716 256.58186 
L 479.523108 256.614218 
L 479.806501 259.704385 
L 480.373286 257.957065 
L 481.223464 260.901622 
L 481.506856 261.273737 
L 481.790249 260.400077 
L 482.073641 258.410074 
L 482.923819 257.277552 
L 483.207212 257.471699 
L 483.490604 257.293731 
L 483.773997 257.859992 
L 484.05739 257.698203 
L 484.340782 257.795277 
L 484.624175 258.054139 
L 485.474352 258.280643 
L 485.757745 258.458611 
L 486.041138 258.005602 
L 486.32453 258.070318 
L 486.607923 261.192842 
L 487.174708 259.283734 
L 487.458101 260.044141 
L 487.741493 261.306094 
L 488.024886 261.322273 
L 488.308278 262.115038 
L 488.591671 261.548778 
L 488.875063 260.06032 
L 489.725241 258.733652 
L 490.292026 258.588042 
L 490.575419 258.232106 
L 490.858812 258.18357 
L 491.142204 258.6204 
L 491.708989 258.863083 
L 491.992382 258.749831 
L 492.275775 258.927798 
L 493.125952 257.924708 
L 493.409345 259.219018 
L 493.692737 259.688206 
L 493.97613 259.542596 
L 494.259523 259.947068 
L 494.542915 259.817637 
L 494.826308 260.076499 
L 495.1097 260.756012 
L 495.393093 260.157394 
L 495.676486 260.64276 
L 495.959878 260.222109 
L 496.526663 259.008693 
L 496.810056 258.539505 
L 497.093448 258.668936 
L 497.660234 259.283734 
L 497.943626 259.510238 
L 498.227019 259.526417 
L 498.510411 258.749831 
L 498.793804 259.591133 
L 499.077197 259.121945 
L 499.360589 258.345359 
L 499.643982 258.280643 
L 499.927374 258.6204 
L 500.210767 248.47624 
L 500.494159 257.406983 
L 501.060945 256.177388 
L 501.344337 255.918526 
L 501.911122 253.960881 
L 502.194515 253.232832 
L 502.477908 252.844538 
L 502.7613 252.229741 
L 503.044693 252.019415 
L 503.328085 251.970879 
L 503.89487 251.679659 
L 504.178263 251.825269 
L 504.745048 251.695838 
L 505.028441 252.53714 
L 506.162011 249.689656 
L 506.728796 246.292091 
L 507.012189 245.758188 
L 507.295582 241.875256 
L 507.862367 231.132477 
L 508.145759 227.152472 
L 508.712544 216.361157 
L 508.995937 214.403512 
L 509.27933 215.066846 
L 509.562722 215.293351 
L 510.129507 217.849614 
L 510.4129 218.35116 
L 510.696293 219.192461 
L 510.979685 219.580755 
L 511.54647 222.137018 
L 512.113255 222.590027 
L 512.396648 222.6871 
L 512.680041 222.525311 
L 512.963433 222.735637 
L 513.246826 222.54149 
L 513.530218 223.382792 
L 513.813611 226.01995 
L 514.663789 223.382792 
L 514.947181 223.674012 
L 515.230574 223.350434 
L 515.513966 222.428238 
L 515.797359 222.298807 
L 516.080752 222.444417 
L 524.865922 223.473394 
L 525.7161 226.100845 
L 525.999492 226.942146 
L 526.282885 226.731821 
L 526.566277 227.055399 
L 526.84967 226.909789 
L 527.133062 227.217187 
L 527.416455 229.530768 
L 527.699848 229.951419 
L 527.98324 229.563126 
L 528.550025 231.488413 
L 529.116811 232.475325 
L 529.683596 231.229551 
L 529.966988 231.245729 
L 530.250381 231.617844 
L 530.533773 231.714917 
L 530.817166 232.10321 
L 531.100559 231.844348 
L 531.383951 232.167926 
L 531.667344 232.200283 
L 531.950736 232.637113 
L 532.234129 232.750366 
L 532.800914 233.737277 
L 533.084307 234.141749 
L 533.367699 234.902157 
L 533.934485 235.905248 
L 534.50127 237.005412 
L 534.784662 237.328989 
L 535.068055 237.458421 
L 535.351447 237.717283 
L 535.63484 237.539315 
L 535.918233 237.167201 
L 536.201625 237.021591 
L 536.76841 236.342078 
L 537.051803 236.277362 
L 537.618588 236.681834 
L 538.185373 237.506957 
L 538.468766 238.105576 
L 540.169121 239.901432 
L 540.452514 240.111757 
L 540.735907 240.144115 
L 541.019299 240.305904 
L 541.302692 240.953059 
L 541.869477 244.819812 
L 542.152869 245.677293 
L 542.719655 245.224284 
L 543.28644 243.460786 
L 543.853225 242.490053 
L 544.136618 242.797452 
L 544.42001 242.635663 
L 544.986795 242.716558 
L 545.270188 242.878346 
L 545.55358 242.813631 
L 545.836973 242.926883 
L 546.403758 242.82981 
L 546.970543 242.97542 
L 547.537329 242.700379 
L 548.104114 244.350625 
L 548.387506 244.787455 
L 548.670899 244.933065 
L 548.954292 245.353715 
L 549.237684 245.208106 
L 549.521077 245.272821 
L 549.804469 245.483147 
L 550.087862 245.111032 
L 550.654647 244.884528 
L 551.221432 245.208106 
L 551.788217 245.062496 
L 552.07161 244.771276 
L 552.355003 244.722739 
L 552.638395 244.302088 
L 552.921788 244.237373 
L 553.20518 243.913795 
L 553.488573 243.929974 
L 553.771965 243.8329 
L 554.338751 243.897616 
L 555.188928 244.641845 
L 555.472321 244.512414 
L 555.755714 244.512414 
L 556.039106 244.819812 
L 556.322499 244.738918 
L 556.889284 245.078674 
L 557.456069 244.690381 
L 557.739462 244.625666 
L 558.022854 243.913795 
L 558.589639 243.185745 
L 558.873032 243.12103 
L 559.72321 242.231191 
L 560.289995 242.6842 
L 560.573388 242.554769 
L 560.85678 242.668021 
L 561.140173 242.943062 
L 561.706958 242.409159 
L 561.99035 241.939971 
L 562.273743 241.778182 
L 562.557136 241.81054 
L 563.123921 241.470784 
L 563.690706 240.289725 
L 563.974099 240.241188 
L 564.257491 239.998505 
L 565.107669 238.76891 
L 565.391061 238.47769 
L 565.957847 237.102485 
L 566.241239 236.228825 
L 566.524632 235.953784 
L 566.808024 235.403702 
L 567.37481 235.29045 
L 567.941595 235.921427 
L 569.358558 237.555494 
L 569.64195 238.348259 
L 570.775521 236.762729 
L 571.342306 235.403702 
L 571.909091 234.060855 
L 572.192483 233.4137 
L 572.475876 233.12248 
L 572.759269 233.429879 
L 573.042661 233.429879 
L 573.326054 232.734187 
L 573.892839 233.106301 
L 574.176232 233.203374 
L 574.743017 234.255002 
L 575.593195 235.193377 
L 576.15998 235.43606 
L 576.443372 235.063946 
L 577.010157 233.235732 
L 577.29355 232.750366 
L 577.576943 232.750366 
L 577.860335 233.025407 
L 578.143728 232.97687 
L 578.42712 232.653292 
L 578.710513 233.26809 
L 578.993906 233.284269 
L 579.277298 233.737277 
L 579.844083 233.316626 
L 581.544439 232.54004 
L 581.827831 232.718008 
L 582.394617 234.319717 
L 582.678009 234.271181 
L 583.528187 234.627116 
L 584.094972 236.843623 
L 584.661757 237.652567 
L 584.94515 237.409884 
L 585.228542 236.859802 
L 585.795328 236.131752 
L 586.07872 236.147931 
L 586.645505 236.714192 
L 586.928898 236.60094 
L 587.495683 236.795086 
L 588.062468 236.649476 
L 588.629253 235.274271 
L 588.912646 237.167201 
L 589.196039 237.021591 
L 589.479431 237.328989 
L 589.762824 238.671837 
L 590.046216 238.008503 
L 590.329609 238.639479 
L 590.896394 237.345168 
L 591.179787 237.684925 
L 592.029964 235.791996 
L 592.313357 235.678743 
L 592.59675 235.969963 
L 592.880142 235.597849 
L 593.446927 235.565491 
L 593.73032 235.646386 
L 594.013713 236.050858 
L 594.580498 236.196468 
L 595.430675 237.312811 
L 596.564246 238.865983 
L 597.131031 238.251186 
L 597.697816 236.908338 
L 598.264601 237.021591 
L 598.547994 236.568582 
L 600.248349 237.426063 
L 600.815135 237.701104 
L 601.948705 237.798177 
L 602.232098 237.911429 
L 602.51549 237.814356 
L 602.798883 238.008503 
L 604.215846 236.795086 
L 604.499238 236.0185 
L 605.349416 231.844348 
L 605.916201 230.274996 
L 606.199594 230.032313 
L 606.482986 230.323533 
L 606.766379 229.336621 
L 607.899949 227.168651 
L 608.183342 227.686375 
L 608.466734 226.990683 
L 608.750127 226.748 
L 609.03352 226.845073 
L 609.316912 227.378976 
L 609.600305 227.540765 
L 609.883697 227.18483 
L 610.16709 227.071578 
L 610.733875 226.01995 
L 611.017268 225.647836 
L 611.867445 225.14629 
L 612.150838 225.14629 
L 612.434231 225.2919 
L 612.717623 225.599299 
L 613.001016 225.14629 
L 613.284408 225.340437 
L 613.567801 225.340437 
L 613.851193 226.003771 
L 614.134586 225.955235 
L 614.417979 225.680194 
L 614.984764 226.16556 
L 615.268156 225.761088 
L 615.551549 225.955235 
L 616.118334 226.650927 
L 616.401727 227.411334 
L 616.685119 227.654017 
L 616.968512 228.835076 
L 617.251905 229.174832 
L 617.535297 228.91597 
L 617.81869 226.731821 
L 618.102082 225.696372 
L 618.385475 225.58312 
L 618.95226 225.211006 
L 619.802438 225.955235 
L 620.369223 227.524586 
L 620.652616 227.654017 
L 621.502793 229.385158 
L 621.786186 229.660199 
L 622.069578 229.433694 
L 622.352971 230.064671 
L 622.636364 229.569597 
L 622.636364 229.569597 
" clip-path="url(#p50f3ef742b)" style="fill: none; stroke: #1f77b4; stroke-width: 1.5; stroke-linecap: square"/>
   </g>
   <g id="line2d_12">
    <path d="M 115.363636 222.215505 
L 115.930422 222.317068 
L 116.213814 221.39279 
L 120.748095 224.013528 
L 121.314881 225.576526 
L 121.598273 225.629111 
L 122.731844 226.240155 
L 123.015236 224.612387 
L 127.549518 226.944002 
L 127.83291 226.826742 
L 128.116303 225.522761 
L 128.399695 225.249084 
L 128.96648 223.534203 
L 129.249873 223.542761 
L 129.533266 224.019158 
L 129.816658 225.43751 
L 130.100051 225.361152 
L 130.666836 225.014018 
L 132.083799 224.390912 
L 132.933977 224.209919 
L 134.35094 224.207708 
L 135.201117 224.444693 
L 136.334688 224.990291 
L 136.61808 228.689466 
L 138.318436 229.332166 
L 141.719147 230.939052 
L 143.13611 231.620425 
L 143.419502 230.274996 
L 146.536821 231.751059 
L 146.820213 231.793179 
L 147.103606 232.564487 
L 147.386998 232.878718 
L 147.670391 232.667186 
L 148.237176 233.937814 
L 148.520569 234.291663 
L 148.803961 232.329992 
L 149.087354 217.560904 
L 149.654139 167.336144 
L 149.937532 165.028465 
L 150.220924 227.686375 
L 150.504317 221.377198 
L 150.787709 217.9545 
L 151.071102 216.548464 
L 151.92128 206.857465 
L 152.204672 207.721524 
L 152.488065 210.812255 
L 153.05485 193.422816 
L 154.188421 147.992789 
L 155.605383 89.067477 
L 156.455561 61.770535 
L 156.738954 54.327273 
L 157.022346 193.354785 
L 157.872524 193.407095 
L 159.57288 193.923161 
L 163.540376 195.189923 
L 163.823768 181.091192 
L 166.374302 182.137405 
L 166.657694 181.974038 
L 166.941087 183.044641 
L 167.224479 182.264561 
L 167.507872 182.165891 
L 167.791265 181.786582 
L 168.074657 182.221092 
L 168.641442 181.017205 
L 168.924835 179.865988 
L 169.49162 179.101773 
L 169.775013 178.913827 
L 170.058405 178.457871 
L 170.341798 177.011746 
L 170.62519 174.425492 
L 170.908583 173.405635 
L 171.191976 172.994414 
L 171.475368 172.817843 
L 172.042153 172.892223 
L 174.592687 173.911991 
L 177.14322 174.946431 
L 177.426612 169.037924 
L 183.094464 171.562564 
L 183.377857 171.823167 
L 183.944642 172.042239 
L 184.228035 179.424767 
L 196.413916 183.986072 
L 197.547486 184.398392 
L 197.830879 195.74926 
L 204.348908 197.718328 
L 204.632301 200.311705 
L 206.049264 201.367321 
L 206.332656 201.222807 
L 206.616049 200.307254 
L 207.182834 209.230316 
L 207.466227 209.195529 
L 207.749619 209.529522 
L 208.599797 210.089635 
L 209.733367 211.088755 
L 212.850686 213.091061 
L 213.417471 215.90384 
L 214.267649 216.426122 
L 215.968004 217.457316 
L 216.251397 217.002707 
L 216.534789 215.543672 
L 216.818182 235.542292 
L 217.101574 269.704646 
L 217.384967 276.872727 
L 217.66836 275.350969 
L 217.951752 275.136472 
L 219.085322 271.252267 
L 220.218893 267.37154 
L 221.069071 265.082802 
L 221.919248 263.395471 
L 222.769426 262.23043 
L 223.619604 261.47487 
L 224.469782 261.020614 
L 225.603352 260.731748 
L 227.020315 260.671786 
L 229.287456 260.876508 
L 238.356018 261.965417 
L 238.639411 183.744528 
L 245.15744 188.542593 
L 245.440833 188.436405 
L 248.841544 190.193741 
L 249.124937 190.025491 
L 249.975114 191.254136 
L 250.258507 190.541697 
L 250.541899 191.891697 
L 250.825292 192.383899 
L 251.108685 192.534736 
L 251.392077 194.11033 
L 251.67547 193.691779 
L 251.958862 193.739892 
L 252.242255 196.072837 
L 252.525648 196.113121 
L 252.80904 195.670534 
L 254.226003 191.640207 
L 255.076181 190.044667 
L 255.926359 188.974399 
L 256.776536 188.293829 
L 257.626714 187.902196 
L 258.476892 187.724638 
L 258.760284 187.702958 
L 259.043677 202.835611 
L 260.46064 202.911908 
L 262.160995 203.260001 
L 264.711529 204.052365 
L 269.24581 205.747035 
L 285.399187 211.889527 
L 287.382936 212.601885 
L 287.666328 215.228635 
L 292.767395 216.911171 
L 293.050787 219.661649 
L 298.151854 221.294214 
L 298.718639 219.926478 
L 299.568817 220.829081 
L 300.135602 220.962449 
L 300.702387 220.896348 
L 301.552565 220.518289 
L 302.969528 220.164274 
L 303.819705 220.057065 
L 304.386491 220.779359 
L 304.669883 220.705902 
L 304.953276 220.960276 
L 305.520061 222.742159 
L 305.803454 218.726095 
L 306.086846 211.052164 
L 306.370239 208.336077 
L 306.653631 208.754523 
L 307.503809 208.739787 
L 307.787202 208.802527 
L 308.070594 208.187856 
L 309.487557 200.607004 
L 310.337735 197.603182 
L 311.187913 195.481823 
L 312.03809 194.015477 
L 312.888268 193.035232 
L 313.738446 192.415583 
L 314.588624 192.063282 
L 315.722194 191.892329 
L 316.855764 191.958408 
L 318.272727 192.256857 
L 320.256475 192.911203 
L 323.373794 194.197619 
L 339.810564 201.495084 
L 343.494667 231.617844 
L 344.628238 228.596961 
L 345.195023 227.154295 
L 346.045201 225.96902 
L 346.895378 225.254426 
L 347.745556 224.946194 
L 348.879126 224.849988 
L 350.579482 224.868584 
L 350.862875 231.909064 
L 356.247334 232.946922 
L 356.530726 234.093213 
L 363.048756 235.297466 
L 363.332148 235.161019 
L 369.850178 236.331623 
L 370.13357 237.636388 
L 374.667852 238.367662 
L 375.518029 237.822409 
L 376.6516 238.080486 
L 376.934992 237.539315 
L 377.501778 237.628867 
L 378.068563 237.455426 
L 378.351955 237.484784 
L 379.202133 236.840172 
L 379.485526 236.841229 
L 380.335703 237.240981 
L 380.902489 237.131925 
L 383.453022 237.260582 
L 383.736414 240.402977 
L 390.254444 240.804126 
L 390.537836 243.41225 
L 397.055866 243.723165 
L 397.339259 245.256642 
L 398.189436 245.070986 
L 399.039614 246.94962 
L 399.323007 247.90623 
L 400.456577 248.325048 
L 400.73997 248.53009 
L 401.306755 248.573148 
L 404.707466 247.931475 
L 406.691214 247.948474 
L 411.225495 248.312011 
L 412.075673 248.427118 
L 412.359066 249.163842 
L 417.743525 249.770285 
L 418.026917 252.197383 
L 431.062976 253.671604 
L 431.346369 255.158119 
L 433.613509 255.283154 
L 434.180295 255.143147 
L 434.463687 255.31388 
L 435.030472 256.140919 
L 435.597257 256.373225 
L 437.581006 256.395995 
L 437.864398 256.393474 
L 438.431183 256.554435 
L 440.698324 256.424291 
L 440.981717 255.854366 
L 442.115287 252.720538 
L 442.682072 252.26643 
L 443.248857 251.935124 
L 443.53225 252.35503 
L 443.815642 249.679617 
L 444.382428 247.343461 
L 445.232605 245.479817 
L 445.515998 245.0479 
L 446.082783 243.78739 
L 446.366176 256.565682 
L 447.499746 255.988094 
L 447.783139 255.871595 
L 448.066531 257.148121 
L 449.766887 256.854619 
L 450.050279 256.86148 
L 450.333672 256.730311 
L 450.900457 258.34552 
L 451.18385 258.136752 
L 451.467242 258.205445 
L 452.31742 254.378319 
L 452.600813 253.397509 
L 453.167598 252.467118 
L 454.584561 251.28478 
L 456.001524 249.813062 
L 457.135094 249.045128 
L 458.268664 248.598885 
L 459.685627 248.348819 
L 461.385983 248.314138 
L 463.936516 248.516046 
L 465.070086 248.649294 
L 465.353479 255.177533 
L 471.871508 255.768629 
L 472.154901 255.08046 
L 478.67293 255.711063 
L 478.956323 257.099585 
L 485.474352 257.639589 
L 485.757745 258.147976 
L 497.376841 259.052537 
L 497.660234 258.923836 
L 498.227019 259.021011 
L 498.510411 258.896271 
L 499.077197 258.915289 
L 499.360589 259.092892 
L 499.643982 259.487588 
L 500.210767 256.476332 
L 500.777552 254.92223 
L 501.060945 254.65976 
L 501.344337 254.609927 
L 501.62773 254.437519 
L 502.194515 253.518051 
L 502.477908 252.421943 
L 505.028441 236.416824 
L 505.878619 232.816338 
L 506.162011 250.886894 
L 507.012189 248.60364 
L 507.862367 247.082587 
L 508.712544 246.095364 
L 509.562722 245.477824 
L 511.829863 244.339918 
L 512.396648 245.153793 
L 512.680041 245.069785 
L 512.963433 222.696808 
L 513.246826 222.627245 
L 515.230574 220.562677 
L 516.080752 219.898084 
L 525.149314 217.237888 
L 527.133062 217.422944 
L 529.683596 217.907057 
L 533.084307 218.815516 
L 533.367699 233.724334 
L 535.918233 233.907787 
L 536.201625 234.042014 
L 536.76841 234.510192 
L 537.618588 234.890514 
L 539.885729 235.051831 
L 540.169121 239.41283 
L 540.452514 239.400326 
L 541.302692 239.7204 
L 541.869477 239.595925 
L 546.687151 239.89479 
L 546.970543 242.849224 
L 552.355003 243.063564 
L 552.638395 242.959347 
L 552.921788 242.976881 
L 553.20518 243.300635 
L 553.488573 243.321317 
L 553.771965 243.878201 
L 554.338751 243.165937 
L 554.905536 242.200373 
L 555.188928 242.026541 
L 556.322499 242.321092 
L 556.605891 242.217395 
L 557.172676 241.092719 
L 557.739462 237.908427 
L 558.022854 238.31299 
L 558.306247 238.244131 
L 559.156425 240.656038 
L 560.006602 240.248177 
L 560.289995 239.954111 
L 560.573388 239.442775 
L 560.85678 242.499761 
L 561.423565 240.920979 
L 561.706958 240.451323 
L 561.99035 240.51301 
L 562.557136 241.289789 
L 562.840528 241.515356 
L 563.690706 241.653855 
L 567.091417 241.832174 
L 567.37481 235.452239 
L 568.50838 233.671694 
L 569.64195 232.279064 
L 571.058913 230.911196 
L 571.625698 230.47554 
L 572.192483 229.831927 
L 573.042661 229.291083 
L 573.892839 228.713655 
L 574.176232 233.025407 
L 580.694261 233.446182 
L 580.977654 232.986577 
L 587.495683 233.407777 
L 587.779076 236.83068 
L 590.329609 236.929881 
L 590.896394 236.862788 
L 592.313357 236.982128 
L 592.59675 237.51829 
L 593.163535 238.998935 
L 593.446927 238.926024 
L 594.297105 235.678569 
L 594.580498 236.034679 
L 594.86389 236.067543 
L 595.714068 235.657916 
L 596.280853 235.120083 
L 596.564246 234.528749 
L 596.847638 234.851857 
L 597.131031 234.578183 
L 597.414424 233.926151 
L 597.697816 233.829284 
L 597.981209 233.048612 
L 598.831386 227.816985 
L 599.114779 226.791454 
L 599.398172 226.246956 
L 599.964957 226.003693 
L 600.248349 226.040789 
L 600.531742 225.732495 
L 601.098527 224.139234 
L 601.38192 237.723754 
L 601.665312 237.238055 
L 602.232098 235.058416 
L 602.51549 234.487383 
L 603.082275 234.228983 
L 604.499238 234.272546 
L 607.899949 234.485715 
L 608.183342 227.977595 
L 610.16709 228.197585 
L 610.450482 228.301259 
L 610.733875 228.036514 
L 611.30066 227.227437 
L 611.584053 227.146376 
L 611.867445 227.229468 
L 612.150838 226.92814 
L 613.001016 224.573238 
L 613.284408 224.327919 
L 613.851193 224.238333 
L 614.984764 224.306744 
L 615.268156 225.628421 
L 618.95226 226.328108 
L 621.502793 226.902188 
L 621.786186 228.987157 
L 622.636364 229.187947 
L 622.636364 229.187947 
" clip-path="url(#p50f3ef742b)" style="fill: none; stroke: #ff7f0e; stroke-width: 1.5; stroke-linecap: square"/>
   </g>
   <g id="patch_3">
    <path d="M 90 288 
L 90 43.2 
" style="fill: none; stroke: #000000; stroke-width: 0.8; stroke-linejoin: miter; stroke-linecap: square"/>
   </g>
   <g id="patch_4">
    <path d="M 648 288 
L 648 43.2 
" style="fill: none; stroke: #000000; stroke-width: 0.8; stroke-linejoin: miter; stroke-linecap: square"/>
   </g>
   <g id="patch_5">
    <path d="M 90 288 
L 648 288 
" style="fill: none; stroke: #000000; stroke-width: 0.8; stroke-linejoin: miter; stroke-linecap: square"/>
   </g>
   <g id="patch_6">
    <path d="M 90 43.2 
L 648 43.2 
" style="fill: none; stroke: #000000; stroke-width: 0.8; stroke-linejoin: miter; stroke-linecap: square"/>
   </g>
   <g id="text_12">
    <!-- MDOT4011 -->
    <g transform="translate(335.545313 37.2) scale(0.12 -0.12)">
     <defs>
      <path id="DejaVuSans-44" d="M 1259 4147 
L 1259 519 
L 2022 519 
Q 2988 519 3436 956 
Q 3884 1394 3884 2338 
Q 3884 3275 3436 3711 
Q 2988 4147 2022 4147 
L 1259 4147 
z
M 628 4666 
L 1925 4666 
Q 3281 4666 3915 4102 
Q 4550 3538 4550 2338 
Q 4550 1131 3912 565 
Q 3275 0 1925 0 
L 628 0 
L 628 4666 
z
" transform="scale(0.015625)"/>
      <path id="DejaVuSans-4f" d="M 2522 4238 
Q 1834 4238 1429 3725 
Q 1025 3213 1025 2328 
Q 1025 1447 1429 934 
Q 1834 422 2522 422 
Q 3209 422 3611 934 
Q 4013 1447 4013 2328 
Q 4013 3213 3611 3725 
Q 3209 4238 2522 4238 
z
M 2522 4750 
Q 3503 4750 4090 4092 
Q 4678 3434 4678 2328 
Q 4678 1225 4090 567 
Q 3503 -91 2522 -91 
Q 1538 -91 948 565 
Q 359 1222 359 2328 
Q 359 3434 948 4092 
Q 1538 4750 2522 4750 
z
" transform="scale(0.015625)"/>
      <path id="DejaVuSans-54" d="M -19 4666 
L 3928 4666 
L 3928 4134 
L 2272 4134 
L 2272 0 
L 1638 0 
L 1638 4134 
L -19 4134 
L -19 4666 
z
" transform="scale(0.015625)"/>
      <path id="DejaVuSans-34" d="M 2419 4116 
L 825 1625 
L 2419 1625 
L 2419 4116 
z
M 2253 4666 
L 3047 4666 
L 3047 1625 
L 3713 1625 
L 3713 1100 
L 3047 1100 
L 3047 0 
L 2419 0 
L 2419 1100 
L 313 1100 
L 313 1709 
L 2253 4666 
z
" transform="scale(0.015625)"/>
     </defs>
     <use xlink:href="#DejaVuSans-4d"/>
     <use xlink:href="#DejaVuSans-44" x="86.279297"/>
     <use xlink:href="#DejaVuSans-4f" x="163.28125"/>
     <use xlink:href="#DejaVuSans-54" x="241.992188"/>
     <use xlink:href="#DejaVuSans-34" x="303.076172"/>
     <use xlink:href="#DejaVuSans-30" x="366.699219"/>
     <use xlink:href="#DejaVuSans-31" x="430.322266"/>
     <use xlink:href="#DejaVuSans-31" x="493.945312"/>
    </g>
   </g>
   <g id="legend_1">
    <g id="patch_7">
     <path d="M 559.04375 80.55625 
L 641 80.55625 
Q 643 80.55625 643 78.55625 
L 643 50.2 
Q 643 48.2 641 48.2 
L 559.04375 48.2 
Q 557.04375 48.2 557.04375 50.2 
L 557.04375 78.55625 
Q 557.04375 80.55625 559.04375 80.55625 
z
" style="fill: #ffffff; opacity: 0.8; stroke: #cccccc; stroke-linejoin: miter"/>
    </g>
    <g id="line2d_13">
     <path d="M 561.04375 56.298437 
L 571.04375 56.298437 
L 581.04375 56.298437 
" style="fill: none; stroke: #1f77b4; stroke-width: 1.5; stroke-linecap: square"/>
    </g>
    <g id="text_13">
     <!-- measured -->
     <g transform="translate(589.04375 59.798437) scale(0.1 -0.1)">
      <defs>
       <path id="DejaVuSans-6d" d="M 3328 2828 
Q 3544 3216 3844 3400 
Q 4144 3584 4550 3584 
Q 5097 3584 5394 3201 
Q 5691 2819 5691 2113 
L 5691 0 
L 5113 0 
L 5113 2094 
Q 5113 2597 4934 2840 
Q 4756 3084 4391 3084 
Q 3944 3084 3684 2787 
Q 3425 2491 3425 1978 
L 3425 0 
L 2847 0 
L 2847 2094 
Q 2847 2600 2669 2842 
Q 2491 3084 2119 3084 
Q 1678 3084 1418 2786 
Q 1159 2488 1159 1978 
L 1159 0 
L 581 0 
L 581 3500 
L 1159 3500 
L 1159 2956 
Q 1356 3278 1631 3431 
Q 1906 3584 2284 3584 
Q 2666 3584 2933 3390 
Q 3200 3197 3328 2828 
z
" transform="scale(0.015625)"/>
       <path id="DejaVuSans-61" d="M 2194 1759 
Q 1497 1759 1228 1600 
Q 959 1441 959 1056 
Q 959 750 1161 570 
Q 1363 391 1709 391 
Q 2188 391 2477 730 
Q 2766 1069 2766 1631 
L 2766 1759 
L 2194 1759 
z
M 3341 1997 
L 3341 0 
L 2766 0 
L 2766 531 
Q 2569 213 2275 61 
Q 1981 -91 1556 -91 
Q 1019 -91 701 211 
Q 384 513 384 1019 
Q 384 1609 779 1909 
Q 1175 2209 1959 2209 
L 2766 2209 
L 2766 2266 
Q 2766 2663 2505 2880 
Q 2244 3097 1772 3097 
Q 1472 3097 1187 3025 
Q 903 2953 641 2809 
L 641 3341 
Q 956 3463 1253 3523 
Q 1550 3584 1831 3584 
Q 2591 3584 2966 3190 
Q 3341 2797 3341 1997 
z
" transform="scale(0.015625)"/>
       <path id="DejaVuSans-75" d="M 544 1381 
L 544 3500 
L 1119 3500 
L 1119 1403 
Q 1119 906 1312 657 
Q 1506 409 1894 409 
Q 2359 409 2629 706 
Q 2900 1003 2900 1516 
L 2900 3500 
L 3475 3500 
L 3475 0 
L 2900 0 
L 2900 538 
Q 2691 219 2414 64 
Q 2138 -91 1772 -91 
Q 1169 -91 856 284 
Q 544 659 544 1381 
z
M 1991 3584 
L 1991 3584 
z
" transform="scale(0.015625)"/>
       <path id="DejaVuSans-64" d="M 2906 2969 
L 2906 4863 
L 3481 4863 
L 3481 0 
L 2906 0 
L 2906 525 
Q 2725 213 2448 61 
Q 2172 -91 1784 -91 
Q 1150 -91 751 415 
Q 353 922 353 1747 
Q 353 2572 751 3078 
Q 1150 3584 1784 3584 
Q 2172 3584 2448 3432 
Q 2725 3281 2906 2969 
z
M 947 1747 
Q 947 1113 1208 752 
Q 1469 391 1925 391 
Q 2381 391 2643 752 
Q 2906 1113 2906 1747 
Q 2906 2381 2643 2742 
Q 2381 3103 1925 3103 
Q 1469 3103 1208 2742 
Q 947 2381 947 1747 
z
" transform="scale(0.015625)"/>
      </defs>
      <use xlink:href="#DejaVuSans-6d"/>
      <use xlink:href="#DejaVuSans-65" x="97.412109"/>
      <use xlink:href="#DejaVuSans-61" x="158.935547"/>
      <use xlink:href="#DejaVuSans-73" x="220.214844"/>
      <use xlink:href="#DejaVuSans-75" x="272.314453"/>
      <use xlink:href="#DejaVuSans-72" x="335.693359"/>
      <use xlink:href="#DejaVuSans-65" x="374.556641"/>
      <use xlink:href="#DejaVuSans-64" x="436.080078"/>
     </g>
    </g>
    <g id="line2d_14">
     <path d="M 561.04375 70.976562 
L 571.04375 70.976562 
L 581.04375 70.976562 
" style="fill: none; stroke: #ff7f0e; stroke-width: 1.5; stroke-linecap: square"/>
    </g>
    <g id="text_14">
     <!-- predicted -->
     <g transform="translate(589.04375 74.476562) scale(0.1 -0.1)">
      <defs>
       <path id="DejaVuSans-70" d="M 1159 525 
L 1159 -1331 
L 581 -1331 
L 581 3500 
L 1159 3500 
L 1159 2969 
Q 1341 3281 1617 3432 
Q 1894 3584 2278 3584 
Q 2916 3584 3314 3078 
Q 3713 2572 3713 1747 
Q 3713 922 3314 415 
Q 2916 -91 2278 -91 
Q 1894 -91 1617 61 
Q 1341 213 1159 525 
z
M 3116 1747 
Q 3116 2381 2855 2742 
Q 2594 3103 2138 3103 
Q 1681 3103 1420 2742 
Q 1159 2381 1159 1747 
Q 1159 1113 1420 752 
Q 1681 391 2138 391 
Q 2594 391 2855 752 
Q 3116 1113 3116 1747 
z
" transform="scale(0.015625)"/>
       <path id="DejaVuSans-69" d="M 603 3500 
L 1178 3500 
L 1178 0 
L 603 0 
L 603 3500 
z
M 603 4863 
L 1178 4863 
L 1178 4134 
L 603 4134 
L 603 4863 
z
" transform="scale(0.015625)"/>
       <path id="DejaVuSans-63" d="M 3122 3366 
L 3122 2828 
Q 2878 2963 2633 3030 
Q 2388 3097 2138 3097 
Q 1578 3097 1268 2742 
Q 959 2388 959 1747 
Q 959 1106 1268 751 
Q 1578 397 2138 397 
Q 2388 397 2633 464 
Q 2878 531 3122 666 
L 3122 134 
Q 2881 22 2623 -34 
Q 2366 -91 2075 -91 
Q 1284 -91 818 406 
Q 353 903 353 1747 
Q 353 2603 823 3093 
Q 1294 3584 2113 3584 
Q 2378 3584 2631 3529 
Q 2884 3475 3122 3366 
z
" transform="scale(0.015625)"/>
      </defs>
      <use xlink:href="#DejaVuSans-70"/>
      <use xlink:href="#DejaVuSans-72" x="63.476562"/>
      <use xlink:href="#DejaVuSans-65" x="102.339844"/>
      <use xlink:href="#DejaVuSans-64" x="163.863281"/>
      <use xlink:href="#DejaVuSans-69" x="227.339844"/>
      <use xlink:href="#DejaVuSans-63" x="255.123047"/>
      <use xlink:href="#DejaVuSans-74" x="310.103516"/>
      <use xlink:href="#DejaVuSans-65" x="349.3125"/>
      <use xlink:href="#DejaVuSans-64" x="410.835938"/>
     </g>
    </g>
   </g>
  </g>
 </g>
 <defs>
  <clipPath id="p50f3ef742b">
   <rect x="90" y="43.2" width="558" height="244.8"/>
  </clipPath>
 </defs>
</svg>
