<?xml version="1.0" encoding="utf-8" standalone="no"?>
<!DOCTYPE svg PUBLIC "-//W3C//DTD SVG 1.1//EN"
  "http://www.w3.org/Graphics/SVG/1.1/DTD/svg11.dtd">
<svg xmlns:xlink="http://www.w3.org/1999/xlink" width="713.0225pt" height="351.43625pt" viewBox="0 0 713.0225 351.43625" xmlns="http://www.w3.org/2000/svg" version="1.1">
 <metadata>
  <rdf:RDF xmlns:dc="http://purl.org/dc/elements/1.1/" xmlns:cc="http://creativecommons.org/ns#" xmlns:rdf="http://www.w3.org/1999/02/22-rdf-syntax-ns#">
   <cc:Work>
    <dc:type rdf:resource="http://purl.org/dc/dcmitype/StillImage"/>
    <dc:date>2024-05-10T15:06:08.690723</dc:date>
    <dc:format>image/svg+xml</dc:format>
    <dc:creator>
     <cc:Agent>
      <dc:title>Matplotlib v3.8.4, https://matplotlib.org/</dc:title>
     </cc:Agent>
    </dc:creator>
   </cc:Work>
  </rdf:RDF>
 </metadata>
 <defs>
  <style type="text/css">*{stroke-linejoin: round; stroke-linecap: butt}</style>
 </defs>
 <g id="figure_1">
  <g id="patch_1">
   <path d="M 0 351.43625 
L 713.0225 351.43625 
L 713.0225 0 
L 0 0 
z
" style="fill: #ffffff"/>
  </g>
  <g id="axes_1">
   <g id="patch_2">
    <path d="M 46.0125 327.558125 
L 705.8225 327.558125 
L 705.8225 22.318125 
L 46.0125 22.318125 
z
" style="fill: #ffffff"/>
   </g>
   <g id="matplotlib.axis_1">
    <g id="xtick_1">
     <g id="line2d_1">
      <defs>
       <path id="m2e4663d0ce" d="M 0 0 
L 0 3.5 
" style="stroke: #000000; stroke-width: 0.8"/>
      </defs>
      <g>
       <use xlink:href="#m2e4663d0ce" x="88.461368" y="327.558125" style="stroke: #000000; stroke-width: 0.8"/>
      </g>
     </g>
     <g id="text_1">
      <!-- 2011 -->
      <g transform="translate(75.736368 342.156563) scale(0.1 -0.1)">
       <defs>
        <path id="DejaVuSans-32" d="M 1228 531 
L 3431 531 
L 3431 0 
L 469 0 
L 469 531 
Q 828 903 1448 1529 
Q 2069 2156 2228 2338 
Q 2531 2678 2651 2914 
Q 2772 3150 2772 3378 
Q 2772 3750 2511 3984 
Q 2250 4219 1831 4219 
Q 1534 4219 1204 4116 
Q 875 4013 500 3803 
L 500 4441 
Q 881 4594 1212 4672 
Q 1544 4750 1819 4750 
Q 2544 4750 2975 4387 
Q 3406 4025 3406 3419 
Q 3406 3131 3298 2873 
Q 3191 2616 2906 2266 
Q 2828 2175 2409 1742 
Q 1991 1309 1228 531 
z
" transform="scale(0.015625)"/>
        <path id="DejaVuSans-30" d="M 2034 4250 
Q 1547 4250 1301 3770 
Q 1056 3291 1056 2328 
Q 1056 1369 1301 889 
Q 1547 409 2034 409 
Q 2525 409 2770 889 
Q 3016 1369 3016 2328 
Q 3016 3291 2770 3770 
Q 2525 4250 2034 4250 
z
M 2034 4750 
Q 2819 4750 3233 4129 
Q 3647 3509 3647 2328 
Q 3647 1150 3233 529 
Q 2819 -91 2034 -91 
Q 1250 -91 836 529 
Q 422 1150 422 2328 
Q 422 3509 836 4129 
Q 1250 4750 2034 4750 
z
" transform="scale(0.015625)"/>
        <path id="DejaVuSans-31" d="M 794 531 
L 1825 531 
L 1825 4091 
L 703 3866 
L 703 4441 
L 1819 4666 
L 2450 4666 
L 2450 531 
L 3481 531 
L 3481 0 
L 794 0 
L 794 531 
z
" transform="scale(0.015625)"/>
       </defs>
       <use xlink:href="#DejaVuSans-32"/>
       <use xlink:href="#DejaVuSans-30" x="63.623047"/>
       <use xlink:href="#DejaVuSans-31" x="127.246094"/>
       <use xlink:href="#DejaVuSans-31" x="190.869141"/>
      </g>
     </g>
    </g>
    <g id="xtick_2">
     <g id="line2d_2">
      <g>
       <use xlink:href="#m2e4663d0ce" x="157.181607" y="327.558125" style="stroke: #000000; stroke-width: 0.8"/>
      </g>
     </g>
     <g id="text_2">
      <!-- 2012 -->
      <g transform="translate(144.456607 342.156563) scale(0.1 -0.1)">
       <use xlink:href="#DejaVuSans-32"/>
       <use xlink:href="#DejaVuSans-30" x="63.623047"/>
       <use xlink:href="#DejaVuSans-31" x="127.246094"/>
       <use xlink:href="#DejaVuSans-32" x="190.869141"/>
      </g>
     </g>
    </g>
    <g id="xtick_3">
     <g id="line2d_3">
      <g>
       <use xlink:href="#m2e4663d0ce" x="226.090121" y="327.558125" style="stroke: #000000; stroke-width: 0.8"/>
      </g>
     </g>
     <g id="text_3">
      <!-- 2013 -->
      <g transform="translate(213.365121 342.156563) scale(0.1 -0.1)">
       <defs>
        <path id="DejaVuSans-33" d="M 2597 2516 
Q 3050 2419 3304 2112 
Q 3559 1806 3559 1356 
Q 3559 666 3084 287 
Q 2609 -91 1734 -91 
Q 1441 -91 1130 -33 
Q 819 25 488 141 
L 488 750 
Q 750 597 1062 519 
Q 1375 441 1716 441 
Q 2309 441 2620 675 
Q 2931 909 2931 1356 
Q 2931 1769 2642 2001 
Q 2353 2234 1838 2234 
L 1294 2234 
L 1294 2753 
L 1863 2753 
Q 2328 2753 2575 2939 
Q 2822 3125 2822 3475 
Q 2822 3834 2567 4026 
Q 2313 4219 1838 4219 
Q 1578 4219 1281 4162 
Q 984 4106 628 3988 
L 628 4550 
Q 988 4650 1302 4700 
Q 1616 4750 1894 4750 
Q 2613 4750 3031 4423 
Q 3450 4097 3450 3541 
Q 3450 3153 3228 2886 
Q 3006 2619 2597 2516 
z
" transform="scale(0.015625)"/>
       </defs>
       <use xlink:href="#DejaVuSans-32"/>
       <use xlink:href="#DejaVuSans-30" x="63.623047"/>
       <use xlink:href="#DejaVuSans-31" x="127.246094"/>
       <use xlink:href="#DejaVuSans-33" x="190.869141"/>
      </g>
     </g>
    </g>
    <g id="xtick_4">
     <g id="line2d_4">
      <g>
       <use xlink:href="#m2e4663d0ce" x="294.81036" y="327.558125" style="stroke: #000000; stroke-width: 0.8"/>
      </g>
     </g>
     <g id="text_4">
      <!-- 2014 -->
      <g transform="translate(282.08536 342.156563) scale(0.1 -0.1)">
       <defs>
        <path id="DejaVuSans-34" d="M 2419 4116 
L 825 1625 
L 2419 1625 
L 2419 4116 
z
M 2253 4666 
L 3047 4666 
L 3047 1625 
L 3713 1625 
L 3713 1100 
L 3047 1100 
L 3047 0 
L 2419 0 
L 2419 1100 
L 313 1100 
L 313 1709 
L 2253 4666 
z
" transform="scale(0.015625)"/>
       </defs>
       <use xlink:href="#DejaVuSans-32"/>
       <use xlink:href="#DejaVuSans-30" x="63.623047"/>
       <use xlink:href="#DejaVuSans-31" x="127.246094"/>
       <use xlink:href="#DejaVuSans-34" x="190.869141"/>
      </g>
     </g>
    </g>
    <g id="xtick_5">
     <g id="line2d_5">
      <g>
       <use xlink:href="#m2e4663d0ce" x="363.530598" y="327.558125" style="stroke: #000000; stroke-width: 0.8"/>
      </g>
     </g>
     <g id="text_5">
      <!-- 2015 -->
      <g transform="translate(350.805598 342.156563) scale(0.1 -0.1)">
       <defs>
        <path id="DejaVuSans-35" d="M 691 4666 
L 3169 4666 
L 3169 4134 
L 1269 4134 
L 1269 2991 
Q 1406 3038 1543 3061 
Q 1681 3084 1819 3084 
Q 2600 3084 3056 2656 
Q 3513 2228 3513 1497 
Q 3513 744 3044 326 
Q 2575 -91 1722 -91 
Q 1428 -91 1123 -41 
Q 819 9 494 109 
L 494 744 
Q 775 591 1075 516 
Q 1375 441 1709 441 
Q 2250 441 2565 725 
Q 2881 1009 2881 1497 
Q 2881 1984 2565 2268 
Q 2250 2553 1709 2553 
Q 1456 2553 1204 2497 
Q 953 2441 691 2322 
L 691 4666 
z
" transform="scale(0.015625)"/>
       </defs>
       <use xlink:href="#DejaVuSans-32"/>
       <use xlink:href="#DejaVuSans-30" x="63.623047"/>
       <use xlink:href="#DejaVuSans-31" x="127.246094"/>
       <use xlink:href="#DejaVuSans-35" x="190.869141"/>
      </g>
     </g>
    </g>
    <g id="xtick_6">
     <g id="line2d_6">
      <g>
       <use xlink:href="#m2e4663d0ce" x="432.250837" y="327.558125" style="stroke: #000000; stroke-width: 0.8"/>
      </g>
     </g>
     <g id="text_6">
      <!-- 2016 -->
      <g transform="translate(419.525837 342.156563) scale(0.1 -0.1)">
       <defs>
        <path id="DejaVuSans-36" d="M 2113 2584 
Q 1688 2584 1439 2293 
Q 1191 2003 1191 1497 
Q 1191 994 1439 701 
Q 1688 409 2113 409 
Q 2538 409 2786 701 
Q 3034 994 3034 1497 
Q 3034 2003 2786 2293 
Q 2538 2584 2113 2584 
z
M 3366 4563 
L 3366 3988 
Q 3128 4100 2886 4159 
Q 2644 4219 2406 4219 
Q 1781 4219 1451 3797 
Q 1122 3375 1075 2522 
Q 1259 2794 1537 2939 
Q 1816 3084 2150 3084 
Q 2853 3084 3261 2657 
Q 3669 2231 3669 1497 
Q 3669 778 3244 343 
Q 2819 -91 2113 -91 
Q 1303 -91 875 529 
Q 447 1150 447 2328 
Q 447 3434 972 4092 
Q 1497 4750 2381 4750 
Q 2619 4750 2861 4703 
Q 3103 4656 3366 4563 
z
" transform="scale(0.015625)"/>
       </defs>
       <use xlink:href="#DejaVuSans-32"/>
       <use xlink:href="#DejaVuSans-30" x="63.623047"/>
       <use xlink:href="#DejaVuSans-31" x="127.246094"/>
       <use xlink:href="#DejaVuSans-36" x="190.869141"/>
      </g>
     </g>
    </g>
    <g id="xtick_7">
     <g id="line2d_7">
      <g>
       <use xlink:href="#m2e4663d0ce" x="501.159351" y="327.558125" style="stroke: #000000; stroke-width: 0.8"/>
      </g>
     </g>
     <g id="text_7">
      <!-- 2017 -->
      <g transform="translate(488.434351 342.156563) scale(0.1 -0.1)">
       <defs>
        <path id="DejaVuSans-37" d="M 525 4666 
L 3525 4666 
L 3525 4397 
L 1831 0 
L 1172 0 
L 2766 4134 
L 525 4134 
L 525 4666 
z
" transform="scale(0.015625)"/>
       </defs>
       <use xlink:href="#DejaVuSans-32"/>
       <use xlink:href="#DejaVuSans-30" x="63.623047"/>
       <use xlink:href="#DejaVuSans-31" x="127.246094"/>
       <use xlink:href="#DejaVuSans-37" x="190.869141"/>
      </g>
     </g>
    </g>
    <g id="xtick_8">
     <g id="line2d_8">
      <g>
       <use xlink:href="#m2e4663d0ce" x="569.87959" y="327.558125" style="stroke: #000000; stroke-width: 0.8"/>
      </g>
     </g>
     <g id="text_8">
      <!-- 2018 -->
      <g transform="translate(557.15459 342.156563) scale(0.1 -0.1)">
       <defs>
        <path id="DejaVuSans-38" d="M 2034 2216 
Q 1584 2216 1326 1975 
Q 1069 1734 1069 1313 
Q 1069 891 1326 650 
Q 1584 409 2034 409 
Q 2484 409 2743 651 
Q 3003 894 3003 1313 
Q 3003 1734 2745 1975 
Q 2488 2216 2034 2216 
z
M 1403 2484 
Q 997 2584 770 2862 
Q 544 3141 544 3541 
Q 544 4100 942 4425 
Q 1341 4750 2034 4750 
Q 2731 4750 3128 4425 
Q 3525 4100 3525 3541 
Q 3525 3141 3298 2862 
Q 3072 2584 2669 2484 
Q 3125 2378 3379 2068 
Q 3634 1759 3634 1313 
Q 3634 634 3220 271 
Q 2806 -91 2034 -91 
Q 1263 -91 848 271 
Q 434 634 434 1313 
Q 434 1759 690 2068 
Q 947 2378 1403 2484 
z
M 1172 3481 
Q 1172 3119 1398 2916 
Q 1625 2713 2034 2713 
Q 2441 2713 2670 2916 
Q 2900 3119 2900 3481 
Q 2900 3844 2670 4047 
Q 2441 4250 2034 4250 
Q 1625 4250 1398 4047 
Q 1172 3844 1172 3481 
z
" transform="scale(0.015625)"/>
       </defs>
       <use xlink:href="#DejaVuSans-32"/>
       <use xlink:href="#DejaVuSans-30" x="63.623047"/>
       <use xlink:href="#DejaVuSans-31" x="127.246094"/>
       <use xlink:href="#DejaVuSans-38" x="190.869141"/>
      </g>
     </g>
    </g>
    <g id="xtick_9">
     <g id="line2d_9">
      <g>
       <use xlink:href="#m2e4663d0ce" x="638.599829" y="327.558125" style="stroke: #000000; stroke-width: 0.8"/>
      </g>
     </g>
     <g id="text_9">
      <!-- 2019 -->
      <g transform="translate(625.874829 342.156563) scale(0.1 -0.1)">
       <defs>
        <path id="DejaVuSans-39" d="M 703 97 
L 703 672 
Q 941 559 1184 500 
Q 1428 441 1663 441 
Q 2288 441 2617 861 
Q 2947 1281 2994 2138 
Q 2813 1869 2534 1725 
Q 2256 1581 1919 1581 
Q 1219 1581 811 2004 
Q 403 2428 403 3163 
Q 403 3881 828 4315 
Q 1253 4750 1959 4750 
Q 2769 4750 3195 4129 
Q 3622 3509 3622 2328 
Q 3622 1225 3098 567 
Q 2575 -91 1691 -91 
Q 1453 -91 1209 -44 
Q 966 3 703 97 
z
M 1959 2075 
Q 2384 2075 2632 2365 
Q 2881 2656 2881 3163 
Q 2881 3666 2632 3958 
Q 2384 4250 1959 4250 
Q 1534 4250 1286 3958 
Q 1038 3666 1038 3163 
Q 1038 2656 1286 2365 
Q 1534 2075 1959 2075 
z
" transform="scale(0.015625)"/>
       </defs>
       <use xlink:href="#DejaVuSans-32"/>
       <use xlink:href="#DejaVuSans-30" x="63.623047"/>
       <use xlink:href="#DejaVuSans-31" x="127.246094"/>
       <use xlink:href="#DejaVuSans-39" x="190.869141"/>
      </g>
     </g>
    </g>
   </g>
   <g id="matplotlib.axis_2">
    <g id="ytick_1">
     <g id="line2d_10">
      <defs>
       <path id="m7f8476c641" d="M 0 0 
L -3.5 0 
" style="stroke: #000000; stroke-width: 0.8"/>
      </defs>
      <g>
       <use xlink:href="#m7f8476c641" x="46.0125" y="313.646146" style="stroke: #000000; stroke-width: 0.8"/>
      </g>
     </g>
     <g id="text_10">
      <!-- 0 -->
      <g transform="translate(32.65 317.445365) scale(0.1 -0.1)">
       <use xlink:href="#DejaVuSans-30"/>
      </g>
     </g>
    </g>
    <g id="ytick_2">
     <g id="line2d_11">
      <g>
       <use xlink:href="#m7f8476c641" x="46.0125" y="259.70797" style="stroke: #000000; stroke-width: 0.8"/>
      </g>
     </g>
     <g id="text_11">
      <!-- 5000 -->
      <g transform="translate(13.5625 263.507189) scale(0.1 -0.1)">
       <use xlink:href="#DejaVuSans-35"/>
       <use xlink:href="#DejaVuSans-30" x="63.623047"/>
       <use xlink:href="#DejaVuSans-30" x="127.246094"/>
       <use xlink:href="#DejaVuSans-30" x="190.869141"/>
      </g>
     </g>
    </g>
    <g id="ytick_3">
     <g id="line2d_12">
      <g>
       <use xlink:href="#m7f8476c641" x="46.0125" y="205.769793" style="stroke: #000000; stroke-width: 0.8"/>
      </g>
     </g>
     <g id="text_12">
      <!-- 10000 -->
      <g transform="translate(7.2 209.569012) scale(0.1 -0.1)">
       <use xlink:href="#DejaVuSans-31"/>
       <use xlink:href="#DejaVuSans-30" x="63.623047"/>
       <use xlink:href="#DejaVuSans-30" x="127.246094"/>
       <use xlink:href="#DejaVuSans-30" x="190.869141"/>
       <use xlink:href="#DejaVuSans-30" x="254.492188"/>
      </g>
     </g>
    </g>
    <g id="ytick_4">
     <g id="line2d_13">
      <g>
       <use xlink:href="#m7f8476c641" x="46.0125" y="151.831617" style="stroke: #000000; stroke-width: 0.8"/>
      </g>
     </g>
     <g id="text_13">
      <!-- 15000 -->
      <g transform="translate(7.2 155.630836) scale(0.1 -0.1)">
       <use xlink:href="#DejaVuSans-31"/>
       <use xlink:href="#DejaVuSans-35" x="63.623047"/>
       <use xlink:href="#DejaVuSans-30" x="127.246094"/>
       <use xlink:href="#DejaVuSans-30" x="190.869141"/>
       <use xlink:href="#DejaVuSans-30" x="254.492188"/>
      </g>
     </g>
    </g>
    <g id="ytick_5">
     <g id="line2d_14">
      <g>
       <use xlink:href="#m7f8476c641" x="46.0125" y="97.893441" style="stroke: #000000; stroke-width: 0.8"/>
      </g>
     </g>
     <g id="text_14">
      <!-- 20000 -->
      <g transform="translate(7.2 101.692659) scale(0.1 -0.1)">
       <use xlink:href="#DejaVuSans-32"/>
       <use xlink:href="#DejaVuSans-30" x="63.623047"/>
       <use xlink:href="#DejaVuSans-30" x="127.246094"/>
       <use xlink:href="#DejaVuSans-30" x="190.869141"/>
       <use xlink:href="#DejaVuSans-30" x="254.492188"/>
      </g>
     </g>
    </g>
    <g id="ytick_6">
     <g id="line2d_15">
      <g>
       <use xlink:href="#m7f8476c641" x="46.0125" y="43.955264" style="stroke: #000000; stroke-width: 0.8"/>
      </g>
     </g>
     <g id="text_15">
      <!-- 25000 -->
      <g transform="translate(7.2 47.754483) scale(0.1 -0.1)">
       <use xlink:href="#DejaVuSans-32"/>
       <use xlink:href="#DejaVuSans-35" x="63.623047"/>
       <use xlink:href="#DejaVuSans-30" x="127.246094"/>
       <use xlink:href="#DejaVuSans-30" x="190.869141"/>
       <use xlink:href="#DejaVuSans-30" x="254.492188"/>
      </g>
     </g>
    </g>
   </g>
   <g id="line2d_16">
    <path d="M 76.003864 313.386353 
L 76.247052 313.235057 
L 76.341189 313.15361 
L 76.592222 312.827554 
L 76.906013 312.71752 
L 77.094288 312.723992 
L 77.219804 312.855961 
L 77.227649 312.779549 
L 77.290407 312.232076 
L 77.36101 312.667357 
L 77.431613 312.561099 
L 77.400234 312.70026 
L 77.462992 312.669515 
L 77.533595 312.858838 
L 77.604198 312.834026 
L 77.745404 312.730465 
L 77.87092 312.547615 
L 77.910144 312.596159 
L 78.098419 312.636613 
L 78.882896 312.962399 
L 79.212377 313.201345 
L 79.439876 313.163049 
L 79.549702 313.075939 
L 79.698753 312.98802 
L 79.722288 313.00501 
L 79.941941 312.907382 
L 80.310646 312.582674 
L 80.49892 312.62124 
L 80.781332 312.831869 
L 81.087279 313.071624 
L 82.012962 313.216987 
L 82.836664 312.883649 
L 83.32304 313.006269 
L 83.581917 312.881492 
L 83.762347 312.901719 
L 84.107517 313.017416 
L 84.593894 313.126102 
L 84.821392 313.164937 
L 84.946908 313.183815 
L 85.433285 313.193255 
L 85.582335 313.159274 
L 85.762765 313.157386 
L 86.084401 313.187591 
L 86.249141 313.178152 
L 86.413882 313.170601 
L 87.127756 313.112347 
L 87.33172 313.098054 
L 88.288783 312.754198 
L 88.492747 312.660615 
L 88.939899 312.782246 
L 89.159553 312.741253 
L 89.583171 312.84832 
L 89.81067 312.931115 
L 90.061702 312.933003 
L 90.469631 312.579977 
L 90.477476 312.590765 
L 90.704974 312.399285 
L 91.034455 311.930022 
L 91.042299 311.94081 
L 91.324711 312.002839 
L 91.434538 311.822146 
L 91.795398 310.403572 
L 91.889535 310.090731 
L 92.454359 306.946135 
L 92.524962 307.016255 
L 92.823064 307.539455 
L 92.830908 307.534061 
L 92.972114 307.523273 
L 93.089786 307.436972 
L 93.105476 307.44776 
L 93.191768 307.555636 
L 94.18021 311.768208 
L 94.384174 311.981264 
L 94.407708 311.951598 
L 94.745034 311.45267 
L 95.082359 309.901947 
L 95.207876 309.651135 
L 95.254944 309.696982 
L 95.513822 310.214788 
L 95.702097 310.6409 
L 96.361058 311.56594 
L 96.46304 311.414913 
L 96.64347 311.201857 
L 96.745452 311.301643 
L 97.216138 312.027111 
L 97.529929 312.134988 
L 97.537774 312.116109 
L 98.126132 312.037899 
L 98.322252 311.663028 
L 98.510526 311.838328 
L 98.800783 312.230278 
L 98.816473 312.151169 
L 98.989058 312.15926 
L 98.996902 312.145775 
L 99.561726 310.805411 
L 99.640174 310.880925 
L 99.96181 311.590212 
L 100.463876 311.970476 
L 100.707064 311.344793 
L 100.738443 311.363672 
L 100.879649 311.741239 
L 101.067923 312.040596 
L 101.075768 312.035202 
L 101.240508 312.067565 
L 101.366025 312.05408 
L 101.499386 311.835631 
L 101.750419 311.263886 
L 101.88378 311.479639 
L 102.134813 312.021717 
L 102.276019 312.086443 
L 102.746705 312.294105 
L 102.809464 312.23747 
L 102.872222 312.259045 
L 103.091876 312.345346 
L 103.209547 312.380406 
L 104.652986 312.76067 
L 105.162897 312.860995 
L 105.296258 312.871244 
L 106.378837 312.723992 
L 106.896592 312.619892 
L 107.32021 312.075656 
L 107.430037 312.021717 
L 107.437882 312.040596 
L 107.445726 312.029808 
L 107.50064 312.132291 
L 107.979171 312.889313 
L 107.987016 312.877447 
L 108.02624 312.927339 
L 108.073308 312.942981 
L 108.316497 313.071894 
L 108.661667 313.116393 
L 108.889165 313.127989 
L 109.046061 313.147946 
L 109.516747 313.252047 
L 109.736401 313.324864 
L 109.854073 313.344281 
L 110.010968 313.383656 
L 110.152174 313.392017 
L 110.324759 313.423301 
L 110.418897 313.355339 
L 110.442431 313.368554 
L 110.599326 313.255823 
L 110.716998 313.301131 
L 110.858204 313.234517 
L 111.156305 312.531433 
L 111.211219 312.544918 
L 111.258288 312.488283 
L 111.697595 312.75204 
L 112.183971 313.232899 
L 112.435004 313.255823 
L 112.662503 313.204851 
L 112.803708 313.279016 
L 113.046897 313.389859 
L 113.188103 313.338888 
L 113.46267 313.077827 
L 113.494049 313.108302 
L 113.682323 313.247732 
L 114.082407 313.232899 
L 114.364819 313.075939 
L 114.380508 313.104257 
L 114.560938 313.21483 
L 114.835505 313.383926 
L 114.968867 312.453223 
L 115.102228 311.320521 
L 115.180676 311.398731 
L 115.306192 311.037346 
L 115.408174 310.373906 
L 115.627828 309.564833 
L 115.659207 309.6808 
L 115.784723 310.559993 
L 116.098514 312.388497 
L 116.357392 312.88338 
L 116.569201 313.069466 
L 117.502729 313.45863 
L 118.514706 313.554101 
L 118.891255 313.56381 
L 120.311159 313.599031 
L 122.013476 313.491263 
L 122.233129 313.430583 
L 124.406132 313.617316 
L 126.147673 313.614754 
L 126.900771 313.628293 
L 129.246359 313.646875 
L 130.250491 313.660575 
L 130.995744 313.671093 
L 131.866514 313.679291 
L 133.592365 313.671902 
L 136.628294 313.678482 
L 143.547386 313.567585 
L 144.316174 313.548168 
L 149.807518 313.448382 
L 150.050706 313.180309 
L 150.176222 313.243147 
L 150.427255 313.321358 
L 150.537082 312.981278 
L 150.717512 312.684618 
L 150.725356 312.701069 
L 150.890097 312.684887 
L 151.10975 312.849399 
L 151.30587 312.958084 
L 152.459052 313.084299 
L 152.804222 312.823239 
L 153.094479 312.118806 
L 153.243529 312.223986 
L 153.518097 312.412769 
L 153.91818 312.819463 
L 154.231971 313.084569 
L 154.341798 313.124214 
L 154.663434 313.195412 
L 155.126276 313.016337 
L 155.440067 312.175441 
L 155.753858 311.412216 
L 155.879374 311.209948 
L 156.295147 308.901394 
L 156.781523 307.585302 
L 156.852126 307.690482 
L 156.969798 308.181319 
L 157.644449 311.466154 
L 157.981774 312.245561 
L 158.115135 312.401982 
L 158.295565 312.574584 
L 158.30341 312.566493 
L 158.530909 312.690551 
L 158.695649 312.74314 
L 158.703494 312.698911 
L 158.852544 312.680842 
L 158.923147 312.642006 
L 158.938837 312.617734 
L 159.346765 311.881478 
L 159.723315 310.392784 
L 160.437189 311.271977 
L 160.821583 312.240167 
L 160.829428 312.23747 
L 161.041237 312.126897 
L 161.253046 312.170047 
L 161.402097 312.304893 
L 161.62175 312.46401 
L 161.872783 312.369619 
L 162.037523 311.336703 
L 162.257177 310.546508 
L 162.500365 308.718004 
L 162.743553 307.63115 
L 162.822001 307.741723 
L 163.261309 309.432685 
L 163.520186 310.088034 
L 163.802598 310.783836 
L 163.826132 310.751473 
L 163.998718 310.252545 
L 164.44587 308.828577 
L 164.453715 308.839365 
L 164.508628 308.941847 
L 164.681213 309.626862 
L 165.065607 311.075102 
L 165.073452 311.069709 
L 165.13621 311.093981 
L 165.175434 311.045436 
L 165.512759 310.851259 
L 165.606897 311.031952 
L 165.873619 311.579424 
L 165.889309 311.555152 
L 165.920688 311.185676 
L 166.101118 309.327505 
L 166.258013 308.936454 
L 166.328616 308.299983 
L 166.53258 303.240582 
L 166.587494 303.345762 
L 166.626718 303.370034 
L 166.665941 303.29452 
L 166.869906 302.242726 
L 167.560246 296.255588 
L 167.819124 297.523136 
L 168.838944 310.039489 
L 169.019374 310.387391 
L 169.16058 310.276817 
L 169.254718 310.328059 
L 169.490061 310.948348 
L 169.764628 311.387944 
L 169.858765 311.425701 
L 169.984282 311.563243 
L 169.992126 311.557849 
L 170.086264 309.589106 
L 170.258849 306.455298 
L 170.39221 306.350118 
L 170.509882 305.646225 
L 170.564795 301.595468 
L 170.658932 298.709775 
L 170.706001 298.898559 
L 170.902121 299.437941 
L 170.949189 299.357034 
L 171.051171 298.628868 
L 171.631685 292.07538 
L 171.992544 295.284701 
L 172.141595 297.469197 
L 172.180819 296.79497 
L 172.274956 291.050554 
L 172.85547 290.565111 
L 173.373225 283.49921 
L 173.388915 283.472241 
L 173.443828 283.607086 
L 173.451673 283.607086 
L 173.679171 287.086098 
L 174.667613 308.318862 
L 174.910801 309.206145 
L 174.965715 309.11445 
L 175.075541 308.788124 
L 175.765882 306.714201 
L 175.781571 306.730382 
L 175.946312 307.321005 
L 176.17381 307.85769 
L 176.369929 307.825327 
L 176.550359 308.340437 
L 176.934753 309.885766 
L 176.981822 309.883069 
L 176.997512 309.931613 
L 177.021046 309.931613 
L 177.648628 311.517395 
L 177.821213 311.652241 
L 178.064401 311.762814 
L 178.338968 312.01902 
L 178.715518 312.032505 
L 178.943016 312.143078 
L 179.429392 312.633107 
L 179.547064 312.694866 
L 179.751028 312.810024 
L 179.892234 312.844005 
L 180.449213 312.978311 
L 180.629643 313.012831 
L 180.778694 313.074051 
L 180.896365 313.091311 
L 181.390586 313.10156 
L 181.625929 312.758783 
L 182.277046 310.336149 
L 182.426097 310.338846 
L 182.48101 310.204001 
L 182.888938 308.550796 
L 182.912473 308.548099 
L 182.951697 308.642491 
L 183.5479 311.325915 
L 183.846001 312.356134 
L 184.269619 312.867468 
L 184.606944 312.974805 
L 184.771685 313.058948 
L 185.281595 313.247193 
L 185.501249 313.284949 
L 186.003315 313.324864 
L 186.638741 313.221842 
L 186.86624 313.089424 
L 186.952532 313.091042 
L 187.015291 312.753119 
L 187.070204 312.867468 
L 187.242789 312.674639 
L 187.415374 311.881478 
L 187.493822 312.01902 
L 187.525201 312.029808 
L 187.55658 311.951598 
L 187.768389 311.209948 
L 187.823303 311.255795 
L 188.207697 311.498517 
L 188.45873 311.396035 
L 188.545022 311.307037 
L 188.592091 311.371762 
L 188.701918 311.695391 
L 189.141225 312.922215 
L 189.164759 312.937857 
L 189.235362 312.861804 
L 189.462861 312.706732 
L 189.627601 312.678684 
L 189.988461 312.250955 
L 190.255183 312.68246 
L 190.568974 313.024967 
L 190.961213 313.24989 
L 191.933965 313.468339 
L 193.181285 313.360463 
L 193.314646 313.119359 
L 193.346025 312.591574 
L 193.385249 310.546508 
L 193.455852 312.151169 
L 193.5343 312.762828 
L 193.557834 312.393891 
L 193.620592 310.497964 
L 193.68335 311.57403 
L 193.848091 312.684887 
L 194.106968 312.509858 
L 194.420759 311.38255 
L 194.483518 311.420307 
L 194.624724 311.719664 
L 195.09541 312.956466 
L 195.401356 313.252587 
L 195.44058 313.177343 
L 195.487649 312.748804 
L 195.566097 312.984784 
L 195.746527 313.295198 
L 195.872043 313.276859 
L 196.272127 312.966714 
L 197.943064 313.538459 
L 199.763052 313.431661 
L 200.029774 313.411165 
L 200.445547 313.506635 
L 201.182956 313.547359 
L 201.355541 313.402535 
L 201.76347 312.983435 
L 201.896831 312.981817 
L 202.045882 312.899831 
L 202.100795 312.872862 
L 202.155709 312.934351 
L 202.524413 313.24989 
L 202.79898 313.272813 
L 203.536389 313.411165 
L 204.19535 313.520659 
L 205.066121 313.588082 
L 206.211458 313.477509 
L 206.462491 313.194064 
L 206.6743 313.001235 
L 206.807661 312.840229 
L 207.097918 312.375012 
L 207.113607 312.388497 
L 207.356795 312.686775 
L 208.007912 313.358305 
L 208.470753 313.486678 
L 208.572736 313.361811 
L 208.619804 312.969681 
L 208.659028 309.759011 
L 208.721786 304.971998 
L 208.792389 306.158638 
L 209.043422 308.96612 
L 209.059112 308.958029 
L 209.137559 308.720701 
L 209.270921 307.97096 
L 209.702383 305.754101 
L 209.733762 305.775677 
L 209.820055 306.080427 
L 211.05953 312.683539 
L 211.341941 312.968872 
L 211.679267 313.075669 
L 213.036413 313.185703 
L 213.703219 313.211594 
L 215.123124 313.078906 
L 216.801906 313.315155 
L 217.060783 313.348057 
L 217.492246 313.312997 
L 218.166897 312.976423 
L 218.919995 313.216987 
L 221.940234 313.155228 
L 222.057906 313.095087 
L 222.06575 313.108032 
L 222.206956 313.0665 
L 222.395231 313.027125 
L 223.171864 312.917091 
L 223.462121 312.895516 
L 223.697464 312.931115 
L 224.630992 312.816766 
L 224.87418 312.82243 
L 224.921249 312.46401 
L 225.203661 308.55619 
L 225.305643 308.170532 
L 225.462539 306.625203 
L 225.831243 303.790752 
L 225.94107 303.682875 
L 225.972449 303.726026 
L 226.176413 304.59443 
L 226.686324 308.035686 
L 226.874598 308.032989 
L 226.99227 308.108503 
L 227.094252 308.362012 
L 227.35313 309.508198 
L 227.557094 310.395481 
L 227.588473 310.182426 
L 228.02778 303.423972 
L 228.216055 302.000004 
L 228.671052 297.199506 
L 228.765189 297.199506 
L 229.071136 298.062517 
L 229.251565 299.033404 
L 229.808545 303.631634 
L 230.302765 308.518433 
L 230.577333 309.804858 
L 230.977416 310.317271 
L 230.993106 310.30109 
L 231.18138 310.04758 
L 231.283362 309.958582 
L 231.314742 309.96937 
L 231.628533 310.133881 
L 231.738359 310.031399 
L 231.958013 309.783283 
L 232.287494 309.645741 
L 232.295339 309.664619 
L 232.734646 310.446723 
L 232.875852 310.554599 
L 233.064127 310.694838 
L 233.197488 310.603143 
L 233.62895 308.739579 
L 233.770156 307.326399 
L 233.934897 304.427222 
L 233.942742 304.432616 
L 234.013345 304.459585 
L 234.044724 304.394859 
L 234.138861 303.542636 
L 234.405583 297.98161 
L 234.884115 289.027873 
L 235.025321 288.030016 
L 235.095924 288.299707 
L 235.292043 290.376327 
L 235.770574 298.467054 
L 236.115745 304.982785 
L 236.390312 307.145706 
L 237.268927 310.04758 
L 237.378753 310.079943 
L 237.402288 310.042186 
L 237.629786 309.82104 
L 237.708234 309.904644 
L 237.998491 310.643597 
L 238.367195 311.061618 
L 238.657452 311.15601 
L 238.790813 311.242311 
L 238.994777 311.134434 
L 239.230121 309.578318 
L 239.488998 307.682391 
L 239.818479 305.551833 
L 239.912616 305.630043 
L 240.061667 306.439116 
L 240.806921 309.775192 
L 240.830455 309.729345 
L 240.908903 309.818343 
L 241.277607 310.781139 
L 241.701225 311.191069 
L 241.716915 311.182979 
L 241.787518 311.245008 
L 241.865965 311.298946 
L 241.897345 311.255795 
L 242.093464 310.880925 
L 242.156222 310.967226 
L 242.273894 311.231523 
L 242.438634 311.468851 
L 242.454324 311.493123 
L 242.564151 311.498517 
L 242.74458 311.552455 
L 242.823028 311.444579 
L 242.862252 311.45267 
L 242.979924 311.320521 
L 243.246646 309.230417 
L 243.709488 308.078837 
L 243.725177 308.089624 
L 243.858539 308.310771 
L 244.423362 309.729345 
L 244.86267 310.497964 
L 244.956807 310.390088 
L 245.066634 310.131184 
L 245.22353 309.777889 
L 245.278443 309.810252 
L 245.513786 309.842615 
L 245.654992 309.950491 
L 245.835422 310.576174 
L 246.353177 311.533577 
L 246.368867 311.528183 
L 246.415936 311.595606 
L 246.431625 311.601 
L 246.510073 311.619878 
L 246.541452 311.571334 
L 246.635589 311.266583 
L 246.761106 310.951045 
L 246.792485 311.00768 
L 246.94938 311.231523 
L 246.996449 311.1641 
L 247.184724 310.978014 
L 247.200413 310.986104 
L 247.412222 311.115556 
L 247.47498 311.083193 
L 247.522049 311.110162 
L 247.686789 311.280067 
L 248.071183 312.027111 
L 248.149631 312.097231 
L 248.981177 312.539524 
L 249.279279 312.431648 
L 249.41264 312.016324 
L 249.451864 312.072959 
L 250.055912 312.899291 
L 250.471685 312.976423 
L 250.981595 312.867738 
L 251.664091 311.439185 
L 251.86021 311.787086 
L 252.197536 312.553008 
L 252.393655 312.442435 
L 252.754515 311.754723 
L 252.848652 311.857206 
L 253.09184 312.334559 
L 253.170288 312.129594 
L 253.593906 311.506608 
L 254.221488 310.816199 
L 254.378383 310.86744 
L 254.464676 311.115556 
L 254.747088 312.528736 
L 254.754933 312.504464 
L 254.872604 312.550311 
L 254.888294 312.528736 
L 255.005965 312.178138 
L 255.053034 312.269833 
L 255.241309 312.418163 
L 255.272688 312.345346 
L 255.515876 312.23747 
L 255.743374 312.526039 
L 255.806133 312.466707 
L 256.002252 312.356134 
L 256.010097 312.377709 
L 256.072855 312.229379 
L 256.300354 311.15601 
L 256.355267 311.282764 
L 256.912246 312.339953 
L 258.277237 313.147407 
L 258.449822 313.133923 
L 258.677321 313.257171 
L 259.132318 313.289804 
L 260.144294 313.524974 
L 260.481619 313.525514 
L 261.564198 313.56327 
L 262.921345 313.463755 
L 263.140998 312.490979 
L 263.24298 312.679224 
L 263.4391 312.809215 
L 263.666598 312.59562 
L 263.831339 311.838328 
L 263.886252 311.741239 
L 263.9647 311.509305 
L 264.019613 311.598303 
L 264.14513 311.760117 
L 264.176509 311.689998 
L 264.278491 311.255795 
L 264.505989 310.403572 
L 264.576592 310.497964 
L 264.788401 311.404125 
L 265.219864 312.725341 
L 265.510121 313.117741 
L 265.910204 313.371251 
L 266.42796 313.482363 
L 267.416401 313.574328 
L 268.271482 313.597359 
L 275.574968 313.530908 
L 275.661261 311.048133 
L 275.69264 310.276817 
L 275.755398 311.390641 
L 275.818157 312.153866 
L 275.88876 312.105322 
L 276.084879 312.693787 
L 276.163327 312.493676 
L 276.477118 311.601 
L 276.532031 311.687301 
L 277.026252 312.725071 
L 277.316509 312.615037 
L 277.457715 312.358831 
L 277.46556 312.364225 
L 277.489094 312.375012 
L 277.520473 312.434344 
L 277.700903 312.831869 
L 277.747971 312.756355 
L 278.124521 311.989354 
L 278.257882 312.08914 
L 278.940377 313.242338 
L 279.56796 313.462945 
L 280.187697 313.519041 
L 280.391661 313.429773 
L 280.611315 313.133923 
L 280.791745 313.122596 
L 280.940795 313.068388 
L 281.278121 312.539524 
L 281.976306 312.640928 
L 282.415613 313.039531 
L 282.423458 313.032249 
L 282.596043 313.00555 
L 282.949058 313.114505 
L 283.113798 313.166285 
L 283.129488 313.119359 
L 283.294228 311.719664 
L 283.725691 301.649406 
L 284.055171 290.29542 
L 284.368963 284.631911 
L 284.510168 284.200406 
L 284.533703 284.254344 
L 284.580771 284.36222 
L 284.698443 285.144324 
L 286.02421 310.271424 
L 286.275243 311.315127 
L 286.290933 311.290855 
L 286.573345 311.87069 
L 286.604724 311.843721 
L 286.698861 311.649544 
L 286.800843 311.582121 
L 286.847912 311.633362 
L 286.92636 311.814055 
L 287.240151 312.331862 
L 287.247995 312.30759 
L 287.349977 312.372316 
L 287.381357 312.310287 
L 287.404891 311.970476 
L 287.640234 307.291339 
L 287.96187 304.173713 
L 288.118766 299.977323 
L 288.409022 294.367752 
L 288.675745 290.511173 
L 288.981691 287.059129 
L 289.130742 286.357933 
L 289.217034 286.573686 
L 289.428843 288.785151 
L 289.70341 292.722638 
L 290.417285 303.097646 
L 290.95073 308.618218 
L 291.178228 309.235811 
L 291.405727 309.208841 
L 292.574598 303.030223 
L 292.621667 303.100343 
L 292.747183 303.461729 
L 292.849166 303.825811 
L 292.880545 303.685572 
L 292.927613 299.76157 
L 292.990371 296.012867 
L 293.05313 297.145568 
L 293.23356 299.76157 
L 293.304163 299.788539 
L 293.319852 299.707632 
L 293.38261 299.16825 
L 293.9239 287.976078 
L 294.127864 285.656737 
L 294.25338 285.737644 
L 294.473034 288.003047 
L 294.708377 291.535998 
L 295.814491 308.647884 
L 296.002766 309.152206 
L 296.143971 309.04433 
L 296.622503 308.305377 
L 296.700951 308.461798 
L 296.904915 308.585856 
L 296.951983 308.504948 
L 297.234395 307.668907 
L 297.430515 307.302127 
L 297.454049 307.342581 
L 297.524652 307.44776 
L 297.791374 308.378194 
L 298.042407 309.111753 
L 298.316974 309.41111 
L 298.332664 309.400322 
L 298.481715 309.421897 
L 298.622921 309.648438 
L 299.007315 310.392784 
L 299.093607 310.411663 
L 299.132831 310.363118 
L 299.383864 309.980157 
L 299.399554 309.993642 
L 299.501536 310.193213 
L 299.831016 310.702929 
L 300.207566 310.835077 
L 300.678252 310.08264 
L 300.717476 310.15276 
L 301.227386 310.821593 
L 301.360748 310.659778 
L 301.486264 310.325362 
L 302.082467 307.569121 
L 302.121691 307.587999 
L 302.325655 307.763298 
L 302.474706 307.765995 
L 302.482551 307.752511 
L 302.914013 306.541599 
L 303.070909 306.509236 
L 303.078754 306.520023 
L 303.20427 306.530811 
L 303.376855 306.352815 
L 303.54944 306.228757 
L 303.557285 306.239545 
L 303.722025 306.646778 
L 303.847542 307.296733 
L 304.082885 308.200198 
L 304.373142 308.824981 
L 304.522192 308.612825 
L 304.686933 308.718004 
L 304.890897 309.109056 
L 304.914431 309.068602 
L 304.969345 308.914878 
L 305.267446 308.251439 
L 305.275291 308.256833 
L 306.216664 309.726648 
L 306.412783 310.034096 
L 306.569679 309.980157 
L 306.695195 309.696982 
L 307.016831 308.561583 
L 307.071745 308.591249 
L 307.385536 309.025452 
L 307.448294 308.96612 
L 307.675792 308.3728 
L 308.209237 307.493607 
L 308.217082 307.499001 
L 308.342598 307.655422 
L 308.711303 308.437526 
L 308.781906 308.326952 
L 308.868198 306.573962 
L 308.97018 305.543742 
L 309.017249 305.670497 
L 309.072163 305.764889 
L 309.119231 305.648922 
L 309.213369 305.020542 
L 309.613452 302.938528 
L 309.699745 302.809077 
L 309.738969 302.916953 
L 309.817416 303.089555 
L 310.594049 308.623612 
L 310.641118 308.540008 
L 310.813703 308.254136 
L 310.821548 308.262226 
L 310.876461 308.243348 
L 310.931375 308.283802 
L 311.182407 308.82588 
L 311.229476 308.691035 
L 311.284389 307.830721 
L 311.488354 305.62465 
L 311.59818 305.149994 
L 311.904127 303.699057 
L 311.943351 303.59118 
L 312.061022 303.459032 
L 312.100246 303.515667 
L 312.217918 303.995717 
L 312.900413 309.04433 
L 312.971016 308.726095 
L 313.292652 307.064799 
L 313.73196 305.042117 
L 313.786873 305.114934 
L 314.116354 306.630597 
L 314.163422 306.503842 
L 314.210491 306.04267 
L 314.806694 299.46491 
L 314.979279 299.572786 
L 316.132461 310.357725 
L 316.391339 310.805411 
L 316.88556 311.487729 
L 316.901249 311.468851 
L 316.964007 311.428397 
L 317.011076 311.46076 
L 317.097369 311.360975 
L 317.591589 310.233667 
L 317.615124 310.252545 
L 317.75633 310.794624 
L 318.179948 312.183532 
L 318.454515 312.445132 
L 318.634945 312.544918 
L 318.752616 312.62151 
L 318.768306 312.615037 
L 318.870288 312.515252 
L 319.027183 311.973173 
L 319.490025 308.620915 
L 319.686145 305.322596 
L 319.803816 285.144324 
L 319.882264 287.382758 
L 320.070539 289.863914 
L 320.086228 289.756038 
L 320.219589 286.546717 
L 320.7295 257.393132 
L 320.878551 258.094329 
L 321.051136 265.025384 
L 321.866992 295.31167 
L 322.376903 309.168388 
L 322.463195 309.362565 
L 322.510264 309.287052 
L 322.557333 309.017361 
L 322.81621 305.462835 
L 322.886813 305.522167 
L 322.957416 305.500592 
L 322.980951 305.457441 
L 323.388879 303.852781 
L 323.953703 300.327921 
L 323.969392 300.35489 
L 324.510682 307.059405 
L 324.75387 309.149509 
L 324.863697 309.556743 
L 324.949989 309.486623 
L 325.028437 306.050761 
L 325.169643 303.046405 
L 325.193178 303.078768 
L 325.29516 303.262157 
L 325.334383 303.186644 
L 325.483434 302.107881 
L 325.632485 299.46491 
L 326.079637 293.639587 
L 326.111016 293.53171 
L 326.205154 293.315958 
L 326.228688 293.477772 
L 326.581703 296.660125 
L 326.832736 301.568499 
L 327.279888 309.670013 
L 327.491697 310.368512 
L 327.499542 310.360422 
L 327.640748 310.298393 
L 327.813333 309.823737 
L 327.899625 309.049724 
L 327.962383 309.179175 
L 328.001607 309.020058 
L 328.637034 303.397003 
L 328.723327 303.229795 
L 328.762551 303.291823 
L 328.872378 304.087412 
L 329.413667 309.438079 
L 329.743148 310.781139 
L 330.1903 311.935416 
L 331.178742 312.801663 
L 331.429775 312.90954 
L 331.680807 312.991526 
L 332.120115 312.913855 
L 332.151494 312.062171 
L 332.261321 280.208981 
L 332.394682 287.787295 
L 332.849679 305.665103 
L 333.030109 306.805896 
L 333.155625 307.531364 
L 333.642001 311.846418 
L 334.065619 312.469404 
L 334.191136 312.477495 
L 334.206825 312.450526 
L 334.450013 312.002839 
L 334.489237 312.081049 
L 334.646133 312.34265 
L 334.653978 312.334559 
L 334.685357 312.334559 
L 334.693201 312.309388 
L 334.959924 308.453707 
L 335.540437 305.980642 
L 335.587506 306.110093 
L 335.665954 306.665656 
L 336.066037 309.481229 
L 336.160175 309.907341 
L 336.48181 311.878781 
L 336.826981 312.42086 
L 336.944652 312.517949 
L 337.211375 312.816766 
L 337.462407 312.907922 
L 338.380246 313.012562 
L 338.490073 312.760131 
L 338.537142 312.775234 
L 338.607745 312.792224 
L 338.631279 312.851556 
L 338.999984 313.055173 
L 340.898419 313.334033 
L 340.969022 313.239641 
L 341.023936 313.274701 
L 341.337727 313.315155 
L 341.816258 313.14471 
L 341.949619 312.953769 
L 341.973154 312.963208 
L 342.318324 313.215639 
L 342.412461 313.058409 
L 342.655649 312.627982 
L 342.671339 312.636613 
L 342.836079 312.571887 
L 342.914527 308.534614 
L 342.992975 310.840471 
L 343.16556 312.741253 
L 343.400903 313.034676 
L 343.902969 312.847781 
L 344.028485 311.843721 
L 344.099088 312.275227 
L 344.295207 312.980199 
L 344.522706 313.177073 
L 344.828652 313.211594 
L 345.440545 313.318661 
L 345.840628 313.402535 
L 347.299757 313.300052 
L 347.613548 313.111269 
L 348.562766 312.797888 
L 348.617679 306.285392 
L 348.664748 302.836046 
L 348.727506 305.535652 
L 348.923625 309.694285 
L 348.939315 309.713163 
L 348.970694 309.581015 
L 349.229572 306.911075 
L 349.464915 305.732526 
L 349.519828 305.843099 
L 349.590431 306.290786 
L 350.006204 309.578318 
L 350.265082 310.001733 
L 350.461201 310.549205 
L 350.696545 311.196463 
L 350.916198 311.894963 
L 351.206455 312.767682 
L 351.881106 313.120977 
L 352.924461 313.025237 
L 353.049978 312.396588 
L 353.222563 311.611787 
L 353.418682 311.503911 
L 353.504975 311.280067 
L 353.795231 310.04758 
L 353.803076 310.052974 
L 353.944282 310.352331 
L 354.234539 310.783836 
L 354.516951 310.252545 
L 354.571864 310.336149 
L 354.705225 310.994195 
L 354.979792 312.264439 
L 355.395566 312.653333 
L 355.889787 312.509858 
L 356.007458 312.369619 
L 356.219267 311.315127 
L 356.282025 296.902846 
L 356.336939 290.59208 
L 356.399697 293.127174 
L 356.666419 300.085199 
L 356.791936 300.220044 
L 356.972366 299.46491 
L 357.019434 299.357034 
L 357.144951 299.141281 
L 357.246933 299.249157 
L 357.545034 302.053942 
L 357.717619 304.909969 
L 358.054945 309.508198 
L 358.360891 310.915985 
L 358.698216 311.439185 
L 359.051231 311.64415 
L 359.647434 311.552455 
L 359.749416 311.439185 
L 359.780795 311.45267 
L 360.188724 311.727754 
L 360.400533 311.352884 
L 360.643721 310.613931 
L 360.651566 310.619325 
L 360.6751 310.622022 
L 360.722169 310.697535 
L 360.996736 311.018467 
L 361.271303 310.913288 
L 361.373285 310.460207 
L 361.914575 308.246045 
L 361.993022 308.059958 
L 362.055781 308.162441 
L 362.149918 308.661369 
L 362.487243 310.530327 
L 362.785345 310.942954 
L 362.848103 310.845865 
L 363.28741 309.141419 
L 363.561978 308.124684 
L 363.66396 307.876568 
L 363.711028 307.37764 
L 364.024819 298.008579 
L 364.111112 292.560823 
L 364.166025 293.342927 
L 364.362145 294.934103 
L 364.440593 294.826227 
L 364.613178 293.936247 
L 364.840676 291.805689 
L 364.856366 291.751751 
L 365.076019 290.214513 
L 365.154467 290.160574 
L 365.193691 290.187544 
L 365.22507 290.29542 
L 365.531016 293.23505 
L 365.546706 292.614761 
L 365.664378 287.059129 
L 365.719291 287.706387 
L 365.978169 290.834802 
L 366.080151 291.158431 
L 366.119375 290.969647 
L 366.252736 290.187544 
L 366.652819 286.196118 
L 366.739112 286.303995 
L 366.81756 286.897315 
L 367.374539 296.066805 
L 367.602037 300.462766 
L 367.633416 299.572786 
L 367.743243 281.476528 
L 367.829536 285.225231 
L 368.064879 290.079667 
L 368.143327 289.971791 
L 368.355136 286.654593 
L 368.833667 277.781763 
L 369.045476 279.993228 
L 370.010384 298.440085 
L 370.394778 305.090662 
L 370.64581 306.943438 
L 370.84193 307.472032 
L 371.35184 308.418647 
L 371.610718 308.068049 
L 371.634252 308.08423 
L 371.846061 308.192107 
L 372.05787 308.375497 
L 372.293213 308.596643 
L 372.324593 308.561583 
L 372.724676 307.315611 
L 372.905106 305.613862 
L 373.415016 302.593324 
L 373.438551 302.566355 
L 373.509154 302.647262 
L 373.728807 303.391609 
L 374.019064 303.73142 
L 374.050443 303.6613 
L 374.113201 303.397003 
L 374.317166 303.06798 
L 374.379924 302.960104 
L 374.489751 302.593324 
L 374.764318 300.327921 
L 375.125178 297.738888 
L 375.22716 297.631012 
L 375.235004 297.657981 
L 375.321297 297.415259 
L 375.360521 297.846765 
L 375.493882 297.738888 
L 375.603709 297.307383 
L 375.635088 297.415259 
L 375.682157 297.523136 
L 375.870431 298.062517 
L 376.066551 297.954641 
L 376.184222 295.716207 
L 376.301894 287.868202 
L 376.42741 269.043778 
L 376.560772 269.771944 
L 376.639219 261.438495 
L 376.749046 226.432619 
L 377.023613 156.474804 
L 377.102061 159.711095 
L 377.4943 217.775542 
L 377.713954 234.199716 
L 377.761022 236.707842 
L 377.949297 248.304549 
L 377.957142 248.250611 
L 377.964987 247.873044 
L 378.00421 250.192386 
L 378.372915 264.189342 
L 378.490587 265.106291 
L 378.498431 265.079322 
L 378.584724 266.131117 
L 378.631793 265.861426 
L 379.094634 260.575485 
L 378.647482 265.915364 
L 379.118169 260.683361 
L 379.173082 260.845176 
L 379.220151 260.629423 
L 379.259375 260.521546 
L 379.267219 260.467608 
L 379.322133 260.845176 
L 379.329978 260.737299 
L 379.5967 265.052353 
L 379.902646 272.172193 
L 380.773416 293.073236 
L 381.33824 302.485448 
L 381.35393 302.40454 
L 381.393154 300.435797 
L 381.495136 296.120743 
L 381.542204 296.336496 
L 381.652031 296.228619 
L 381.918754 291.077523 
L 382.303148 284.470097 
L 382.381596 284.119499 
L 382.436509 284.146468 
L 382.483578 284.254344 
L 382.828748 287.382758 
L 383.11116 289.863914 
L 383.197452 289.243625 
L 383.307279 286.223088 
L 383.511243 275.408483 
L 383.691673 253.105047 
L 383.887793 243.773743 
L 384.185894 226.082021 
L 384.303566 227.619259 
L 384.413393 231.179178 
L 384.319255 227.511382 
L 384.421237 230.747673 
L 384.640891 238.757492 
L 384.648736 238.51477 
L 384.695804 239.845245 
L 384.899769 247.522446 
L 385.417524 272.226131 
L 385.464593 269.043778 
L 385.503816 255.208636 
L 385.582264 264.809631 
L 385.762694 276.271494 
L 386.092175 280.910177 
L 386.123554 281.018054 
L 386.225536 281.233806 
L 386.24907 281.206837 
L 386.531482 282.555292 
L 386.962945 288.137893 
L 388.069058 303.884244 
L 388.100437 302.269695 
L 388.257333 293.585649 
L 388.265178 293.612618 
L 388.280867 293.639587 
L 388.312246 293.423834 
L 388.320091 293.423834 
L 388.359315 293.315958 
L 388.54759 290.259461 
L 388.790778 266.814334 
L 389.151637 226.073031 
L 389.206551 225.380824 
L 389.22224 226.540495 
L 389.253619 226.297773 
L 389.40267 229.776786 
L 389.41836 229.381239 
L 389.426205 229.66891 
L 389.520342 223.385112 
L 389.543876 223.789648 
L 389.826288 235.745944 
L 389.975339 239.197987 
L 390.014563 238.649616 
L 390.022407 238.406894 
L 390.085166 239.845245 
L 390.822575 274.815163 
L 390.853954 273.466709 
L 391.120676 272.738543 
L 391.544294 261.519403 
L 392.022825 238.379925 
L 392.04636 238.622647 
L 392.485667 261.222743 
L 392.760234 274.815163 
L 392.956354 279.022341 
L 394.007554 304.915363 
L 394.258587 307.846902 
L 394.470396 308.362012 
L 394.603757 308.453707 
L 394.627291 308.397072 
L 394.964616 307.44776 
L 395.058754 306.773533 
L 395.090133 304.826365 
L 395.325476 286.196118 
L 395.34901 285.440984 
L 395.411769 287.274882 
L 395.670646 293.55868 
L 395.72556 293.774432 
L 395.772628 293.639587 
L 396.141333 290.079667 
L 396.243315 289.863914 
L 396.259005 289.944822 
L 396.408055 290.834802 
L 396.737536 295.338639 
L 397.4671 308.175925 
L 397.576927 308.518433 
L 397.616151 308.440222 
L 397.953476 307.676997 
L 398.330025 305.708254 
L 398.345715 305.727132 
L 398.471231 305.826918 
L 398.730109 306.271908 
L 398.769333 306.33124 
L 398.777178 306.363603 
L 398.871315 306.81129 
L 399.161572 309.564833 
L 399.451828 311.166797 
L 399.616569 311.485033 
L 399.844067 311.805965 
L 399.946049 311.859903 
L 400.495184 312.269833 
L 400.675613 312.377709 
L 400.887422 312.485586 
L 401.13061 312.593462 
L 401.413022 312.65603 
L 401.868019 312.759052 
L 402.01707 312.798427 
L 402.299482 312.904146 
L 402.519136 312.941903 
L 403.225166 313.050858 
L 403.633094 313.12745 
L 404.684294 313.232629 
L 404.84119 313.251508 
L 405.107912 313.268768 
L 405.304031 313.291692 
L 405.69627 313.309491 
L 406.206181 313.329988 
L 406.480748 313.350754 
L 407.265225 313.132574 
L 407.327984 313.025507 
L 407.390742 313.125832 
L 407.445655 313.156037 
L 407.492724 313.079715 
L 407.555482 313.006628 
L 407.61824 313.054633 
L 407.751602 313.110459 
L 407.775136 313.086727 
L 407.908497 312.820542 
L 408.15953 312.593462 
L 408.449787 312.704035 
L 408.951852 313.012292 
L 409.328402 312.876637 
L 410.481584 313.239641 
L 410.662013 313.246114 
L 411.14839 313.311109 
L 411.336664 313.213212 
L 411.470025 313.264183 
L 411.815196 313.328639 
L 412.254503 313.363699 
L 413.690097 313.451079 
L 414.333369 313.474272 
L 414.835434 313.46726 
L 415.235518 313.470227 
L 415.408103 313.454315 
L 419.605058 313.351024 
L 419.824712 313.160892 
L 420.114969 312.781437 
L 420.852378 310.522236 
L 421.158324 308.52113 
L 421.558408 306.342027 
L 421.793751 305.802646 
L 421.82513 305.859281 
L 421.903578 306.091215 
L 421.958491 306.271908 
L 421.982025 306.118184 
L 422.00556 305.007058 
L 422.068318 298.062517 
L 422.138921 300.732457 
L 422.33504 304.017292 
L 422.437022 304.319346 
L 422.476246 304.265408 
L 422.970467 302.377571 
L 423.307793 299.249157 
L 423.590205 298.062517 
L 423.684342 298.170394 
L 423.864772 299.46491 
L 423.91184 299.087343 
L 423.951064 295.446516 
L 424.013822 290.511173 
L 424.076581 292.318101 
L 424.351148 297.954641 
L 424.445285 298.27827 
L 424.468819 298.089486 
L 424.539422 297.496166 
L 424.986575 292.830514 
L 425.033643 292.776576 
L 425.049333 292.884452 
L 425.080712 292.884452 
L 425.394503 295.797114 
L 426.116222 304.729276 
L 426.147602 304.637581 
L 426.273118 303.407791 
L 426.382945 302.782108 
L 426.422169 302.809077 
L 426.571219 303.272945 
L 426.633978 303.165069 
L 426.806563 302.000004 
L 426.971303 300.166106 
L 427.285094 296.660125 
L 427.60673 293.747463 
L 427.842073 292.776576 
L 427.849918 292.830514 
L 428.093106 294.017154 
L 428.501034 299.330064 
L 428.767757 302.809077 
L 428.775602 302.782108 
L 428.830515 301.190932 
L 428.948187 293.963216 
L 429.010945 294.799258 
L 429.120772 295.473485 
L 429.144306 295.257732 
L 429.230599 293.342927 
L 429.379649 284.524035 
L 429.567924 258.822494 
L 429.826802 223.519957 
L 429.834646 223.519957 
L 429.866025 222.710885 
L 429.920939 224.463875 
L 430.909381 282.069848 
L 431.482049 294.826227 
L 431.505584 293.963216 
L 431.615411 279.831414 
L 431.701703 282.231662 
L 431.787996 282.744075 
L 431.819375 282.447415 
L 431.929202 279.561723 
L 432.070408 268.801057 
L 432.17239 244.690692 
L 432.423422 205.288854 
L 432.446957 204.749472 
L 432.87842 244.205248 
L 433.40402 280.047166 
L 433.757034 287.571542 
L 434.157118 292.560823 
L 434.180652 292.6687 
L 434.368927 293.53171 
L 434.400306 293.639587 
L 434.580736 294.610474 
L 434.80039 295.716207 
L 434.96513 296.336496 
L 435.004354 296.444372 
L 435.239697 297.631012 
L 436.141846 304.087412 
L 436.212449 303.604665 
L 436.400724 302.863015 
L 436.565464 302.485448 
L 436.620378 302.377571 
L 436.808652 301.83819 
L 436.847876 301.730313 
L 437.05184 301.406684 
L 437.130288 301.514561 
L 437.342097 302.620293 
L 437.538217 303.531848 
L 439.091482 306.994679 
L 439.146396 307.08098 
L 439.287602 307.232007 
L 439.53079 307.577212 
L 439.601393 307.658119 
L 440.346646 308.952635 
L 440.629058 308.96612 
L 440.840867 308.364709 
L 440.848712 308.370103 
L 441.068366 308.844759 
L 441.28802 309.287052 
L 441.45276 309.343687 
L 441.578276 309.200751 
L 441.625345 309.26278 
L 441.688103 309.268173 
L 441.664569 309.233114 
L 441.727327 309.233114 
L 442.103876 307.957476 
L 442.190169 308.138169 
L 442.32353 308.575068 
L 442.370599 308.469888 
L 442.566718 307.29943 
L 443.068784 304.173713 
L 443.272748 303.95796 
L 443.445333 304.07123 
L 443.657142 303.59118 
L 443.845417 303.278339 
L 443.853261 303.299914 
L 443.868951 303.299914 
L 443.88464 303.348459 
L 443.90033 303.367337 
L 444.394551 306.48766 
L 444.716187 308.583159 
L 444.990754 309.176479 
L 445.037823 309.076693 
L 445.147649 307.876568 
L 445.186873 300.570642 
L 445.359458 280.101105 
L 445.610491 237.705698 
L 445.877214 36.19267 
L 445.955661 47.519688 
L 446.591088 228.077733 
L 446.975482 261.384557 
L 447.41479 281.71925 
L 448.489524 301.730313 
L 448.575817 301.83819 
L 448.732712 302.377571 
L 448.756246 302.485448 
L 449.187709 304.842546 
L 449.203399 304.804789 
L 449.627017 305.225507 
L 450.058479 306.004914 
L 450.262443 306.981195 
L 450.489942 307.830721 
L 450.819423 308.645188 
L 450.999852 308.93106 
L 451.015542 308.898697 
L 451.023387 308.912181 
L 451.070455 308.801608 
L 451.24304 308.602037 
L 451.368557 308.550796 
L 451.392091 308.569674 
L 451.478384 308.6344 
L 451.509763 308.566977 
L 451.690193 308.526524 
L 451.870623 308.763851 
L 451.878467 308.74767 
L 451.94907 308.550796 
L 452.278551 307.226613 
L 452.286396 307.232007 
L 452.466826 307.33449 
L 452.647255 307.558333 
L 452.6551 307.499001 
L 452.710014 304.397556 
L 452.796306 297.09163 
L 452.866909 298.27827 
L 452.984581 299.141281 
L 453.01596 299.033404 
L 453.047339 298.925528 
L 453.078718 297.765857 
L 453.274837 289.270595 
L 453.408199 282.824982 
L 453.627852 261.465465 
L 453.816127 247.657291 
L 453.839661 247.819106 
L 454.059315 256.88072 
L 454.498623 277.296319 
L 454.843793 285.872489 
L 454.851637 285.602799 
L 454.914396 266.859282 
L 454.961464 242.398319 
L 455.032067 249.518158 
L 455.110515 254.885007 
L 455.165429 253.185954 
L 455.243876 233.120953 
L 455.361548 123.842207 
L 455.510599 56.149796 
L 455.534133 58.307323 
L 455.722408 108.200136 
L 456.012664 201.24349 
L 456.3343 245.418857 
L 456.946193 283.661024 
L 457.824808 304.853334 
L 458.162133 307.143009 
L 458.25627 307.318308 
L 458.303339 307.256279 
L 458.397476 307.258976 
L 458.421011 307.294036 
L 458.538682 307.566424 
L 458.570061 307.606878 
L 458.61713 307.488214 
L 458.624975 307.488214 
L 459.040748 306.579355 
L 459.268246 305.945582 
L 459.346694 305.948279 
L 459.370229 305.991429 
L 459.472211 306.306968 
L 459.746778 307.199644 
L 459.880139 307.091768 
L 459.903673 306.897591 
L 459.942897 300.327921 
L 460.005655 292.237194 
L 460.076258 292.264163 
L 460.146861 287.814264 
L 460.217464 289.297564 
L 460.452808 292.452947 
L 460.578324 292.345071 
L 460.845046 290.726925 
L 460.876426 290.619049 
L 461.025476 288.191831 
L 461.103924 284.68585 
L 461.166682 285.791582 
L 461.331423 286.708531 
L 461.354957 285.144324 
L 461.42556 271.65978 
L 461.511852 277.242381 
L 461.60599 279.372939 
L 461.668748 279.076279 
L 461.700127 279.184156 
L 461.888402 279.723537 
L 461.95116 279.831414 
L 462.076676 280.047166 
L 462.28064 281.12593 
L 462.672879 286.277026 
L 463.010205 293.909278 
L 463.308306 301.190932 
L 463.34753 300.543673 
L 463.543649 289.081811 
L 463.802527 276.325432 
L 463.904509 275.947865 
L 463.928043 276.055741 
L 464.092784 278.806588 
L 465.002778 303.380821 
L 465.2695 309.020058 
L 465.551912 310.034096 
L 465.967685 310.762261 
L 466.046133 310.864743 
L 466.352079 311.247705 
L 467.905345 312.188926 
L 468.015172 312.242864 
L 468.226981 312.275227 
L 468.352497 312.205107 
L 468.368187 312.215895 
L 468.509393 312.323771 
L 468.721202 312.472101 
L 469.380163 312.582674 
L 469.631196 312.692708 
L 470.305846 312.897673 
L 470.596103 312.941903 
L 470.784378 312.97912 
L 471.294288 312.899291 
L 471.404115 312.726689 
L 471.435494 312.751771 
L 471.670837 312.892819 
L 471.686527 312.878256 
L 472.219972 312.474798 
L 472.431781 312.582674 
L 472.64359 312.625016 
L 472.886778 312.76067 
L 473.702635 313.160892 
L 473.898754 312.928957 
L 473.945823 313.037913 
L 474.149787 313.195412 
L 474.691076 313.193794 
L 475.193142 312.990986 
L 475.546157 311.886872 
L 475.648139 307.137615 
L 475.79719 307.943991 
L 476.071757 307.37764 
L 476.463996 305.942885 
L 476.495375 305.975248 
L 476.534599 306.002217 
L 476.581667 305.926703 
L 476.785632 305.505986 
L 476.84839 305.597681 
L 477.02882 306.47957 
L 477.068043 306.795108 
L 477.130802 306.503842 
L 477.185715 305.802646 
L 477.248473 306.196394 
L 477.640712 308.958029 
L 477.695626 308.477979 
L 477.954503 306.630597 
L 478.017261 306.406753 
L 478.252605 305.530258 
L 478.276139 305.538349 
L 478.362432 305.721738 
L 478.542861 306.44451 
L 478.723291 308.523827 
L 479.013548 311.26928 
L 479.28027 311.924629 
L 479.507769 311.894963 
L 479.970611 311.185676 
L 480.041214 311.223432 
L 480.056903 311.253098 
L 480.16673 311.633362 
L 480.378539 312.286014 
L 480.590348 312.512555 
L 480.87276 312.648479 
L 481.194396 312.757434 
L 481.492497 312.814069 
L 482.410336 312.897673 
L 482.551542 312.922485 
L 483.116366 312.813799 
L 483.210503 312.712665 
L 483.257572 312.753658 
L 483.398778 312.659806 
L 483.48507 312.199713 
L 483.751793 310.759564 
L 483.783172 310.800018 
L 484.02636 311.549758 
L 484.35584 312.531433 
L 484.559805 312.698372 
L 484.91282 312.884728 
L 485.093249 312.90091 
L 485.312903 313.000695 
L 485.744366 313.100481 
L 486.12876 313.070545 
L 486.646515 312.871783 
L 486.913238 312.7693 
L 487.140736 312.652255 
L 487.297632 312.582674 
L 487.517285 312.461313 
L 487.70556 312.566493 
L 487.972282 312.763907 
L 487.995817 312.723183 
L 488.152712 312.040596 
L 488.293918 311.625272 
L 488.317452 311.64415 
L 488.9215 312.818924 
L 489.305894 312.928957 
L 489.556927 312.94406 
L 489.839339 313.012292 
L 490.215888 313.035755 
L 490.4983 313.050858 
L 491.235709 312.94406 
L 491.416139 312.904146 
L 493.196903 313.012292 
L 493.32242 313.029282 
L 493.730348 312.921136 
L 493.902933 312.709429 
L 493.957846 311.956992 
L 494.1775 309.343687 
L 494.499136 307.350671 
L 494.593273 307.606878 
L 494.758014 308.831274 
L 495.134563 310.864743 
L 495.197321 310.85935 
L 495.2287 310.802715 
L 495.40913 310.554599 
L 495.534646 310.708323 
L 495.644473 311.169494 
L 495.793524 311.689998 
L 495.809214 311.592909 
L 495.864127 310.864743 
L 496.083781 307.973657 
L 496.256366 306.6279 
L 496.538778 303.990323 
L 496.766276 303.154281 
L 496.797655 303.165069 
L 496.915327 303.375428 
L 497.111446 304.427222 
L 498.178336 310.333452 
L 498.319542 310.616628 
L 498.507817 311.231523 
L 498.515661 311.226129 
L 498.798073 311.557849 
L 498.852987 311.598303 
L 498.892211 311.512002 
L 499.056951 310.835077 
L 499.182467 310.619325 
L 499.213846 310.654385 
L 499.676688 311.851812 
L 499.708067 311.830237 
L 499.880652 311.87069 
L 500.006169 311.843721 
L 500.265046 311.733148 
L 500.547458 311.520092 
L 500.649441 311.061618 
L 500.908318 309.869584 
L 500.916163 309.880372 
L 501.324091 310.468298 
L 501.55159 310.597749 
L 501.747709 310.147366 
L 502.194861 309.230417 
L 502.414515 309.19266 
L 502.430205 309.246598 
L 503.097011 311.334006 
L 503.206838 311.487729 
L 503.277441 311.528183 
L 503.316664 311.471548 
L 503.410802 311.099375 
L 503.606921 310.435935 
L 504.101142 311.290855 
L 504.124676 311.266583 
L 504.501226 309.257386 
L 504.579673 307.164585 
L 504.752258 303.726026 
L 504.893464 303.02483 
L 504.964067 302.377571 
L 505.309238 296.228619 
L 505.834838 281.773188 
L 505.874061 281.881064 
L 506.187852 286.250057 
L 506.336903 289.756038 
L 507.003709 305.082571 
L 507.325345 308.246045 
L 507.646981 309.338293 
L 507.725429 309.243901 
L 507.890169 308.914878 
L 508.070599 309.338293 
L 508.164736 309.52438 
L 508.211805 309.486623 
L 508.345166 309.421897 
L 508.494217 309.19266 
L 508.627578 308.904091 
L 508.682491 308.958029 
L 509.043351 309.920825 
L 509.07473 309.815646 
L 509.168867 309.675407 
L 509.215936 309.745526 
L 509.490503 310.325362 
L 509.584641 310.106912 
L 509.655244 309.006573 
L 509.867052 306.881409 
L 510.298515 304.899181 
L 510.392652 304.842546 
L 510.424032 304.89109 
L 510.526014 305.346868 
L 510.643685 306.11279 
L 510.66722 305.810736 
L 510.871184 296.768001 
L 510.965321 297.09163 
L 511.059458 296.983754 
L 511.247733 296.120743 
L 511.279112 296.066805 
L 511.475232 294.853196 
L 511.663506 294.286845 
L 511.773333 294.394721 
L 512.079279 296.444372 
L 512.165572 297.09163 
L 513.004963 307.153797 
L 513.271685 308.394375 
L 513.350133 308.281105 
L 513.357978 308.294589 
L 513.389357 308.178622 
L 513.679614 307.032436 
L 513.695303 307.03783 
L 513.930647 307.175372 
L 513.946336 307.105253 
L 514.16599 306.654869 
L 514.189524 306.665656 
L 514.236593 306.765442 
L 514.409178 307.650028 
L 514.558229 308.095018 
L 514.573918 308.089624 
L 514.707279 308.046474 
L 514.715124 308.051868 
L 514.770038 308.046474 
L 514.817106 308.100412 
L 515.421154 309.610681 
L 515.601584 309.734739 
L 515.695721 309.594499 
L 515.90753 309.260083 
L 516.025202 309.397625 
L 516.425285 310.481782 
L 516.542957 310.592356 
L 516.676318 310.616628 
L 516.692008 310.533024 
L 517.178384 309.497411 
L 517.366658 307.752511 
L 517.656915 305.678588 
L 517.84519 305.376534 
L 517.931482 305.241689 
L 518.20605 304.524311 
L 518.229584 304.564764 
L 518.402169 305.705557 
L 518.441393 305.166175 
L 518.543375 296.552248 
L 518.70027 297.523136 
L 518.786563 297.415259 
L 519.351387 295.797114 
L 519.610264 298.251301 
L 520.088796 307.000073 
L 520.120175 306.695322 
L 520.253536 304.464979 
L 520.324139 304.788608 
L 520.567327 305.705557 
L 520.732067 305.813433 
L 520.888963 306.385178 
L 521.202754 308.159744 
L 521.493011 308.583159 
L 521.540079 308.647884 
L 521.547924 308.672157 
L 522.308867 310.465601 
L 522.332402 310.468298 
L 522.363781 310.522236 
L 522.37947 310.522236 
L 522.403005 310.578871 
L 522.473608 310.487176 
L 522.677572 310.133881 
L 522.787399 310.244454 
L 523.532653 311.638756 
L 523.540497 311.633362 
L 524.066097 309.893856 
L 524.121011 310.050277 
L 524.293596 310.603143 
L 524.324975 310.365815 
L 524.403423 310.144669 
L 524.442647 310.292999 
L 524.615232 311.010377 
L 524.772127 311.053527 
L 524.795661 311.002286 
L 524.944712 310.026005 
L 525.085918 309.597196 
L 525.109453 309.605287 
L 525.20359 309.858796 
L 525.38402 310.473692 
L 525.760569 311.924629 
L 525.776258 311.919235 
L 525.831172 311.371762 
L 525.878241 303.941779 
L 525.948844 299.033404 
L 526.003757 300.112168 
L 526.231255 303.051799 
L 526.474444 302.943922 
L 526.576426 302.927741 
L 526.59996 302.970891 
L 526.709787 303.677481 
L 526.984354 309.370656 
L 527.196163 311.182979 
L 527.423661 311.673816 
L 527.431506 311.657635 
L 527.549178 310.60584 
L 527.596247 310.740686 
L 527.706073 311.018467 
L 527.745297 310.953741 
L 527.808055 309.955885 
L 527.847279 305.945582 
L 527.933572 292.237194 
L 528.004175 293.504741 
L 528.082623 294.502598 
L 528.129691 294.017154 
L 528.710205 285.926428 
L 528.874945 285.225231 
L 528.906324 285.333108 
L 529.016151 286.277026 
L 529.039685 285.575829 
L 529.133823 279.696568 
L 529.21227 281.988941 
L 529.910456 296.120743 
L 530.145799 296.983754 
L 530.334073 297.415259 
L 530.349763 297.307383 
L 530.530193 297.415259 
L 530.671399 297.631012 
L 530.742002 297.738888 
L 531.016569 298.386146 
L 531.024414 298.332208 
L 531.14993 296.821939 
L 531.518635 290.619049 
L 531.550014 290.511173 
L 531.597082 290.29542 
L 531.659841 290.511173 
L 531.69122 290.619049 
L 531.895184 292.749607 
L 532.161906 297.873734 
L 532.5463 305.433169 
L 532.993453 310.554599 
L 533.260175 311.423004 
L 533.573966 311.892266 
L 533.644569 311.94081 
L 533.660258 311.832934 
L 533.824999 311.676513 
L 533.832844 311.684604 
L 533.872067 311.619878 
L 534.028963 310.975317 
L 534.068187 311.053527 
L 534.178014 311.444579 
L 534.287841 311.773602 
L 534.334909 311.695391 
L 534.523184 310.662475 
L 534.946802 308.08423 
L 534.978181 308.148956 
L 535.088008 308.526524 
L 535.229214 309.025452 
L 535.244903 309.001179 
L 535.346885 309.087481 
L 535.778348 311.336703 
L 535.990157 312.016324 
L 536.147053 312.062171 
L 536.758945 310.546508 
L 536.837393 310.667869 
L 536.994288 311.242311 
L 537.088426 311.533577 
L 537.151184 311.441882 
L 537.410061 310.654385 
L 537.62187 308.96612 
L 537.747387 309.225023 
L 538.484796 311.601 
L 538.618157 311.60909 
L 538.633847 311.582121 
L 538.908414 310.986104 
L 538.939793 311.042739 
L 539.04962 311.245008 
L 539.292808 312.000142 
L 539.55953 312.566493 
L 539.708581 307.129525 
L 539.771339 299.141281 
L 539.841942 301.190932 
L 540.218491 308.518433 
L 540.485214 311.816752 
L 540.720557 312.431648 
L 541.034348 312.779549 
L 541.293226 312.910619 
L 541.82667 312.585371 
L 541.928653 311.927326 
L 542.163996 310.961832 
L 542.179685 310.964529 
L 542.344426 310.894409 
L 542.626838 310.986104 
L 543.034766 312.205107 
L 543.089679 312.086443 
L 543.427005 311.31243 
L 543.701572 311.735845 
L 543.834933 312.016324 
L 543.858467 311.983961 
L 544.572342 309.920825 
L 544.690014 309.721254 
L 545.231303 308.246045 
L 545.450957 307.757905 
L 545.827506 306.018398 
L 545.960867 305.821524 
L 545.976557 305.85119 
L 546.133453 306.606324 
L 546.721811 309.556743 
L 546.957154 309.947794 
L 547.945596 312.356134 
L 548.031888 312.46401 
L 548.416282 312.707811 
L 548.635936 312.615037 
L 548.902659 312.82216 
L 549.428259 313.019843 
L 549.671447 313.068657 
L 549.875411 313.115584 
L 556.676832 313.246653 
L 556.825882 313.192176 
L 557.08476 313.205121 
L 557.233811 313.062185 
L 557.633894 312.7693 
L 557.900617 312.885268 
L 558.441906 313.251777 
L 558.457596 313.209166 
L 558.551733 312.879334 
L 558.630181 312.698911 
L 558.685094 312.749343 
L 558.904748 312.758513 
L 558.998885 312.493676 
L 559.249918 312.064868 
L 559.446038 312.170047 
L 559.626467 312.323771 
L 559.744139 312.480192 
L 560.081465 312.766873 
L 560.285429 312.827554 
L 560.505082 312.80436 
L 560.685512 312.601553 
L 561.046372 312.067565 
L 561.062062 312.078352 
L 561.140509 312.161957 
L 561.383697 312.615037 
L 561.391542 312.598856 
L 561.477835 312.674639 
L 561.79947 312.801124 
L 561.807315 312.787639 
L 561.909297 312.816496 
L 561.917142 312.829981 
L 562.230933 312.887964 
L 563.015411 312.937588 
L 565.157035 312.828093 
L 565.917978 312.561099 
L 566.082718 312.520645 
L 566.090563 312.528736 
L 566.349441 312.696754 
L 566.694611 312.814609 
L 566.961333 312.82216 
L 567.110384 312.719408 
L 567.494778 312.043293 
L 567.549691 311.970476 
L 567.667363 311.004983 
L 568.357703 287.03216 
L 568.538133 285.764613 
L 568.616581 285.872489 
L 568.710718 286.573686 
L 569.220629 293.450803 
L 569.495196 298.736744 
L 570.075709 308.48607 
L 570.40519 310.390088 
L 570.554241 310.662475 
L 570.593465 310.619325 
L 570.868032 309.950491 
L 570.962169 310.074549 
L 571.221047 311.080496 
L 571.29165 311.045436 
L 571.299494 311.061618 
L 571.362253 310.961832 
L 571.950611 307.828024 
L 572.16242 306.164031 
L 572.225178 306.234151 
L 572.350694 306.385178 
L 572.405608 306.309664 
L 572.695865 305.462835 
L 572.735088 305.48441 
L 573.025345 307.045921 
L 573.221465 307.331793 
L 573.323447 307.275158 
L 573.346981 307.296733 
L 573.417584 307.374943 
L 573.629393 307.884659 
L 573.637238 307.868478 
L 573.668617 308.008717 
L 573.684306 308.014111 
L 573.801978 308.356618 
L 574.186372 309.518986 
L 574.288354 309.378747 
L 574.42956 309.281658 
L 574.437405 309.292446 
L 574.515853 309.34099 
L 574.806109 310.007126 
L 575.096366 310.225576 
L 575.1199 310.179729 
L 575.166969 310.058368 
L 575.378778 309.788677 
L 575.49645 309.831827 
L 575.943602 310.97262 
L 575.967136 310.969923 
L 576.02205 311.05083 
L 576.18679 311.137131 
L 576.759459 311.428397 
L 576.767303 311.412216 
L 576.861441 311.110162 
L 577.175232 309.653831 
L 577.277214 309.467745 
L 577.40273 308.596643 
L 577.94402 304.017292 
L 578.030312 303.720632 
L 578.485309 301.514561 
L 578.555912 301.730313 
L 578.595136 301.83819 
L 578.948151 303.440153 
L 579.458062 306.06964 
L 579.52082 306.023792 
L 579.638491 305.319899 
L 579.803232 303.866265 
L 579.944438 302.377571 
L 580.422969 290.322389 
L 580.807363 271.632811 
L 581.042706 263.919652 
L 581.066241 263.757837 
L 581.113309 264.135404 
L 581.246671 267.263819 
L 581.458479 272.468853 
L 581.709512 276.837845 
L 581.866408 277.377227 
L 581.882097 277.431165 
L 582.054682 277.107536 
L 582.156665 277.215412 
L 582.282181 278.024485 
L 582.517524 281.584404 
L 583.152951 294.367752 
L 583.600103 302.485448 
L 583.874671 305.387322 
L 584.164927 306.285392 
L 584.172772 306.266514 
L 584.219841 306.420238 
L 584.227685 306.414844 
L 584.306133 306.471479 
L 584.353202 306.420238 
L 584.423805 306.379784 
L 584.470874 306.425632 
L 584.729751 306.687232 
L 584.768975 306.579355 
L 584.886647 306.471479 
L 584.933715 306.536205 
L 585.325954 308.375497 
L 585.459315 308.235257 
L 586.016294 309.783283 
L 586.149656 308.947241 
L 586.204569 306.749261 
L 586.785082 251.352056 
L 587.012581 227.646228 
L 587.067494 227.079877 
L 587.098874 228.050764 
L 587.200856 232.9052 
L 587.985333 279.238094 
L 588.016712 279.64263 
L 588.80119 293.55868 
L 589.083602 297.577074 
L 589.350324 301.190932 
L 589.358169 301.110024 
L 589.405238 300.867302 
L 589.444462 301.190932 
L 589.499375 301.730313 
L 589.67196 302.593324 
L 589.860235 301.784251 
L 590.040665 301.298808 
L 590.134802 301.406684 
L 590.503506 304.702307 
L 590.778074 306.401359 
L 590.801608 306.371693 
L 590.942814 305.743314 
L 591.052641 303.610059 
L 591.42919 296.579217 
L 591.648844 295.392578 
L 591.695912 295.500454 
L 593.17073 309.572924 
L 593.178575 309.589106 
L 593.225644 309.456957 
L 593.288402 308.995786 
L 593.743399 304.669944 
L 593.845381 304.540492 
L 593.89245 304.642975 
L 594.002277 305.465532 
L 594.661238 310.446723 
L 594.669082 310.435935 
L 594.849512 310.991498 
L 595.500629 311.89766 
L 595.6183 311.965082 
L 595.830109 312.129594 
L 595.947781 312.151169 
L 595.955626 312.15926 
L 596.120366 312.248258 
L 596.598897 312.450526 
L 596.732259 312.445132 
L 596.740103 312.453223 
L 596.86562 312.415466 
L 597.116653 312.366922 
L 597.242169 312.356134 
L 597.728545 312.466707 
L 597.91682 312.582674 
L 598.214921 312.688663 
L 598.520868 312.823239 
L 599.281811 313.019304 
L 599.540688 313.0665 
L 599.721118 313.085378 
L 599.987841 313.133923 
L 600.756629 313.17977 
L 601.015506 313.054094 
L 601.439124 313.16197 
L 601.980414 313.267689 
L 602.411877 313.259599 
L 602.553082 313.241529 
L 602.702133 313.192176 
L 603.125751 312.884728 
L 603.133596 312.894437 
L 603.627817 313.235596 
L 603.831781 313.31084 
L 604.718241 313.353451 
L 604.91436 313.325942 
L 605.134014 313.222111 
L 605.526253 312.588068 
L 605.683148 312.60425 
L 605.918491 312.632298 
L 606.044008 312.528736 
L 606.295041 312.345346 
L 606.302885 312.353437 
L 606.420557 312.509858 
L 606.789262 312.65657 
L 606.797106 312.643355 
L 607.173656 312.291408 
L 607.307017 312.329165 
L 607.432533 312.485586 
L 608.169942 313.313537 
L 608.656318 313.423031 
L 609.244677 313.471036 
L 609.942862 313.507175 
L 610.201739 313.519311 
L 610.71165 313.518232 
L 610.8607 313.513647 
L 611.103888 313.538459 
L 611.260784 313.520659 
L 611.676557 313.394714 
L 611.731471 313.231011 
L 611.802074 313.325133 
L 611.990348 313.445416 
L 612.257071 313.346439 
L 612.492414 313.317582 
L 612.61793 313.251508 
L 612.931721 313.027395 
L 613.629906 313.374487 
L 614.084903 313.484521 
L 614.532056 313.523356 
L 617.152211 313.421683 
L 617.426778 312.919249 
L 617.481691 312.98802 
L 617.52876 312.997459 
L 617.567984 312.914394 
L 617.803327 312.550311 
L 617.811172 312.555705 
L 617.858241 312.582674 
L 617.88962 312.488283 
L 617.960223 312.226682 
L 618.015136 312.369619 
L 618.195566 312.651715 
L 618.25048 312.6741 
L 618.297548 312.609643 
L 618.587805 312.453223 
L 618.909441 312.786021 
L 619.482109 313.170601 
L 619.662539 313.193524 
L 619.670384 313.140395 
L 619.937106 311.498517 
L 619.944951 311.501214 
L 620.015554 311.611787 
L 620.243053 311.789783 
L 620.258742 311.768208 
L 620.35288 311.468851 
L 620.564689 310.862047 
L 620.588223 310.891713 
L 620.658826 311.031952 
L 621.239339 312.504464 
L 621.333477 312.172744 
L 621.3727 312.310287 
L 621.576665 312.7871 
L 621.8983 312.940824 
L 622.180712 313.048431 
L 622.45528 313.112347 
L 622.902432 313.219145 
L 622.957345 313.217527 
L 622.988724 313.150643 
L 623.082862 312.180835 
L 623.224068 312.412769 
L 623.380963 312.789797 
L 623.435877 312.746916 
L 623.647686 312.605868 
L 623.718289 312.571887 
L 623.726133 312.539524 
L 623.953632 311.819449 
L 623.977166 311.808662 
L 624.03208 311.903053 
L 624.094838 312.072959 
L 624.173286 311.943507 
L 624.220354 311.323218 
L 624.275268 302.380268 
L 624.330181 298.27827 
L 624.400784 298.817652 
L 624.620438 300.759426 
L 624.683196 300.65155 
L 624.981297 297.900703 
L 625.146038 296.444372 
L 625.263709 296.336496 
L 625.357847 296.228619 
L 625.373536 296.309527 
L 625.797154 297.873734 
L 625.812844 297.657981 
L 625.852068 293.963216 
L 625.914826 288.461522 
L 625.985429 290.187544 
L 626.228617 293.963216 
L 626.267841 294.071092 
L 626.393357 294.286845 
L 626.46396 294.178969 
L 626.683614 293.747463 
L 627.036629 296.848908 
L 627.107232 298.089486 
L 627.138611 297.334352 
L 627.217059 292.911421 
L 627.287662 294.259876 
L 627.538694 298.601899 
L 627.656366 299.060374 
L 627.6799 299.033404 
L 627.719124 298.925528 
L 627.805417 297.415259 
L 627.962312 296.228619 
L 628.087829 296.336496 
L 628.268259 297.09163 
L 628.38593 297.68495 
L 628.409465 297.415259 
L 628.503602 295.365608 
L 628.558515 295.851052 
L 628.691877 296.579217 
L 628.707566 296.309527 
L 628.809548 290.969647 
L 628.966444 291.589936 
L 628.989978 291.48206 
L 629.201787 287.059129 
L 629.61756 256.2874 
L 629.790145 202.322254 
L 629.96273 164.026149 
L 629.970575 164.29584 
L 630.166694 185.331728 
L 630.613847 243.234361 
L 631.060999 277.970547 
L 631.578754 290.565111 
L 632.269094 302.593324 
L 632.920211 306.315058 
L 632.998659 306.417541 
L 633.155554 306.600931 
L 633.29676 306.703413 
L 633.877274 307.682391 
L 634.010635 308.054564 
L 634.026324 307.833418 
L 634.057703 306.630597 
L 634.143996 288.299707 
L 634.222444 274.761225 
L 634.285202 277.512072 
L 634.426408 281.341683 
L 634.457787 280.910177 
L 634.551924 275.78605 
L 634.897094 221.982719 
L 635.014766 226.648372 
L 635.124593 231.610684 
L 635.203041 229.37225 
L 635.226575 228.886806 
L 635.273644 231.179178 
L 635.5639 251.24418 
L 635.979674 268.207737 
L 636.277775 273.790338 
L 636.28562 273.7364 
L 636.324844 273.466709 
L 636.371912 274.221843 
L 636.81122 281.045023 
L 637.164235 283.607086 
L 637.187769 283.714962 
L 637.485871 286.492778 
L 637.689835 289.270595 
L 637.713369 288.893027 
L 637.752593 265.295075 
L 637.799662 247.846075 
L 637.870265 253.806243 
L 637.940868 257.716761 
L 637.987936 255.801956 
L 638.074229 238.21811 
L 638.317417 164.026149 
L 638.419399 166.723058 
L 638.968533 225.596577 
L 639.046981 220.580327 
L 639.070515 219.9061 
L 639.109739 221.95575 
L 639.313703 228.698022 
L 639.345083 228.266517 
L 639.384306 226.972001 
L 639.392151 227.025939 
L 639.643184 206.960937 
L 639.690253 206.097926 
L 639.760856 207.230628 
L 639.7687 207.230628 
L 639.925596 216.184365 
L 640.545333 263.569053 
L 640.914038 278.860526 
L 641.3455 286.600655 
L 642.043686 294.340783 
L 642.145668 293.747463 
L 642.224115 294.394721 
L 642.443769 295.90499 
L 642.467303 296.012867 
L 642.749715 297.118599 
L 642.796784 296.768001 
L 642.906611 289.10878 
L 643.016438 291.212369 
L 643.204712 292.884452 
L 643.212557 292.830514 
L 643.416521 290.726925 
L 643.82445 285.54886 
L 643.918587 285.656737 
L 644.757978 295.446516 
L 645.236509 300.543673 
L 645.260044 300.65155 
L 645.471853 301.730313 
L 645.495387 301.83819 
L 645.683662 302.350602 
L 645.707196 302.188788 
L 646.10728 300.462766 
L 646.585811 294.556536 
L 646.687793 293.639587 
L 646.719172 293.747463 
L 646.852533 293.639587 
L 647.393823 290.268451 
L 647.448736 290.29542 
L 647.511495 290.403296 
L 647.801751 292.884452 
L 648.515626 298.305239 
L 648.594074 297.657981 
L 648.656832 297.415259 
L 648.7039 297.631012 
L 648.727435 297.550105 
L 648.915709 296.444372 
L 648.994157 296.336496 
L 649.198121 295.041979 
L 649.292259 294.367752 
L 649.504068 293.315958 
L 649.543292 293.208081 
L 649.817859 291.913565 
L 650.147339 289.648162 
L 650.319924 289.756038 
L 650.602336 292.129318 
L 650.83768 294.502598 
L 651.614312 301.406684 
L 651.755518 301.514561 
L 651.87319 301.622437 
L 652.061465 301.730313 
L 652.077154 301.757282 
L 652.124223 301.622437 
L 652.139912 301.622437 
L 652.155602 301.54153 
L 652.485083 298.601899 
L 653.191112 288.353646 
L 653.238181 288.461522 
L 653.897142 296.336496 
L 654.297226 302.377571 
L 654.68162 304.346315 
L 654.689465 304.340921 
L 654.814981 304.243832 
L 655.034635 303.941779 
L 655.20722 304.330133 
L 655.458253 305.692072 
L 655.748509 306.358209 
L 656.329023 306.978498 
L 656.415315 307.027042 
L 656.587901 307.269764 
L 656.611435 307.250886 
L 656.697727 307.08098 
L 656.854623 306.075033 
L 657.050742 302.647262 
L 657.184103 299.357034 
L 658.298062 269.798913 
L 658.352975 270.095573 
L 658.384354 270.17648 
L 658.627542 275.003947 
L 658.807972 277.323288 
L 658.823662 277.053598 
L 658.933489 275.300607 
L 659.019781 276.08271 
L 659.419865 279.076279 
L 659.961154 281.314713 
L 660.078826 282.096817 
L 660.165118 281.988941 
L 660.188653 282.096817 
L 660.62796 286.196118 
L 660.667184 285.953397 
L 660.784856 281.557435 
L 661.15356 256.503152 
L 661.239853 257.393132 
L 661.365369 263.434208 
L 661.561489 271.228274 
L 661.577178 271.821594 
L 661.632092 270.257387 
L 661.812521 245.391888 
L 662.142002 164.29584 
L 662.181226 165.644294 
L 662.189071 165.644294 
L 662.291053 180.207602 
L 662.706826 232.689447 
L 662.981393 243.962526 
L 662.989238 243.962526 
L 663.07553 245.661579 
L 663.114754 244.636753 
L 663.193202 240.753205 
L 663.365787 231.934313 
L 663.420701 232.9052 
L 663.640354 241.265617 
L 664.095351 260.575485 
L 664.550348 279.696568 
L 664.589572 280.748363 
L 664.605262 279.480815 
L 665.021035 184.522656 
L 665.083793 190.186164 
L 665.53879 249.733911 
L 666.22913 285.602799 
L 666.982229 303.326883 
L 667.162659 304.14135 
L 667.256796 304.044261 
L 667.311709 303.995717 
L 667.366623 304.07123 
L 667.562742 304.475766 
L 667.601966 304.427222 
L 667.758862 303.855477 
L 668.104032 302.485448 
L 668.111877 302.512417 
L 668.292306 303.237885 
L 669.186611 307.81454 
L 669.633763 308.898697 
L 669.641608 308.877122 
L 669.704366 308.777336 
L 669.75928 308.850153 
L 669.971089 309.740132 
L 670.606515 303.788055 
L 670.841859 302.7012 
L 670.896772 302.809077 
L 671.014444 303.127312 
L 671.069357 303.030223 
L 671.218408 301.595468 
L 671.422372 297.577074 
L 671.610647 293.208081 
L 672.136247 288.893027 
L 672.159781 288.785151 
L 672.638312 285.440984 
L 672.740295 285.54886 
L 672.787363 285.656737 
L 673.030551 286.870346 
L 673.877787 296.741032 
L 674.685799 308.739579 
L 674.928987 309.675407 
L 675.352605 310.187819 
L 675.517345 310.090731 
L 675.611483 309.848009 
L 675.674241 309.939704 
L 675.776223 310.204001 
L 675.831136 310.411663 
L 675.831136 310.411663 
" clip-path="url(#p600833fa7a)" style="fill: none; stroke: #1f77b4; stroke-width: 1.5; stroke-linecap: square"/>
   </g>
   <g id="patch_3">
    <path d="M 46.0125 327.558125 
L 46.0125 22.318125 
" style="fill: none; stroke: #000000; stroke-width: 0.8; stroke-linejoin: miter; stroke-linecap: square"/>
   </g>
   <g id="patch_4">
    <path d="M 705.8225 327.558125 
L 705.8225 22.318125 
" style="fill: none; stroke: #000000; stroke-width: 0.8; stroke-linejoin: miter; stroke-linecap: square"/>
   </g>
   <g id="patch_5">
    <path d="M 46.0125 327.558125 
L 705.8225 327.558125 
" style="fill: none; stroke: #000000; stroke-width: 0.8; stroke-linejoin: miter; stroke-linecap: square"/>
   </g>
   <g id="patch_6">
    <path d="M 46.0125 22.318125 
L 705.8225 22.318125 
" style="fill: none; stroke: #000000; stroke-width: 0.8; stroke-linejoin: miter; stroke-linecap: square"/>
   </g>
   <g id="text_16">
    <!-- training -->
    <g transform="translate(352.674062 16.318125) scale(0.12 -0.12)">
     <defs>
      <path id="DejaVuSans-74" d="M 1172 4494 
L 1172 3500 
L 2356 3500 
L 2356 3053 
L 1172 3053 
L 1172 1153 
Q 1172 725 1289 603 
Q 1406 481 1766 481 
L 2356 481 
L 2356 0 
L 1766 0 
Q 1100 0 847 248 
Q 594 497 594 1153 
L 594 3053 
L 172 3053 
L 172 3500 
L 594 3500 
L 594 4494 
L 1172 4494 
z
" transform="scale(0.015625)"/>
      <path id="DejaVuSans-72" d="M 2631 2963 
Q 2534 3019 2420 3045 
Q 2306 3072 2169 3072 
Q 1681 3072 1420 2755 
Q 1159 2438 1159 1844 
L 1159 0 
L 581 0 
L 581 3500 
L 1159 3500 
L 1159 2956 
Q 1341 3275 1631 3429 
Q 1922 3584 2338 3584 
Q 2397 3584 2469 3576 
Q 2541 3569 2628 3553 
L 2631 2963 
z
" transform="scale(0.015625)"/>
      <path id="DejaVuSans-61" d="M 2194 1759 
Q 1497 1759 1228 1600 
Q 959 1441 959 1056 
Q 959 750 1161 570 
Q 1363 391 1709 391 
Q 2188 391 2477 730 
Q 2766 1069 2766 1631 
L 2766 1759 
L 2194 1759 
z
M 3341 1997 
L 3341 0 
L 2766 0 
L 2766 531 
Q 2569 213 2275 61 
Q 1981 -91 1556 -91 
Q 1019 -91 701 211 
Q 384 513 384 1019 
Q 384 1609 779 1909 
Q 1175 2209 1959 2209 
L 2766 2209 
L 2766 2266 
Q 2766 2663 2505 2880 
Q 2244 3097 1772 3097 
Q 1472 3097 1187 3025 
Q 903 2953 641 2809 
L 641 3341 
Q 956 3463 1253 3523 
Q 1550 3584 1831 3584 
Q 2591 3584 2966 3190 
Q 3341 2797 3341 1997 
z
" transform="scale(0.015625)"/>
      <path id="DejaVuSans-69" d="M 603 3500 
L 1178 3500 
L 1178 0 
L 603 0 
L 603 3500 
z
M 603 4863 
L 1178 4863 
L 1178 4134 
L 603 4134 
L 603 4863 
z
" transform="scale(0.015625)"/>
      <path id="DejaVuSans-6e" d="M 3513 2113 
L 3513 0 
L 2938 0 
L 2938 2094 
Q 2938 2591 2744 2837 
Q 2550 3084 2163 3084 
Q 1697 3084 1428 2787 
Q 1159 2491 1159 1978 
L 1159 0 
L 581 0 
L 581 3500 
L 1159 3500 
L 1159 2956 
Q 1366 3272 1645 3428 
Q 1925 3584 2291 3584 
Q 2894 3584 3203 3211 
Q 3513 2838 3513 2113 
z
" transform="scale(0.015625)"/>
      <path id="DejaVuSans-67" d="M 2906 1791 
Q 2906 2416 2648 2759 
Q 2391 3103 1925 3103 
Q 1463 3103 1205 2759 
Q 947 2416 947 1791 
Q 947 1169 1205 825 
Q 1463 481 1925 481 
Q 2391 481 2648 825 
Q 2906 1169 2906 1791 
z
M 3481 434 
Q 3481 -459 3084 -895 
Q 2688 -1331 1869 -1331 
Q 1566 -1331 1297 -1286 
Q 1028 -1241 775 -1147 
L 775 -588 
Q 1028 -725 1275 -790 
Q 1522 -856 1778 -856 
Q 2344 -856 2625 -561 
Q 2906 -266 2906 331 
L 2906 616 
Q 2728 306 2450 153 
Q 2172 0 1784 0 
Q 1141 0 747 490 
Q 353 981 353 1791 
Q 353 2603 747 3093 
Q 1141 3584 1784 3584 
Q 2172 3584 2450 3431 
Q 2728 3278 2906 2969 
L 2906 3500 
L 3481 3500 
L 3481 434 
z
" transform="scale(0.015625)"/>
     </defs>
     <use xlink:href="#DejaVuSans-74"/>
     <use xlink:href="#DejaVuSans-72" x="39.208984"/>
     <use xlink:href="#DejaVuSans-61" x="80.322266"/>
     <use xlink:href="#DejaVuSans-69" x="141.601562"/>
     <use xlink:href="#DejaVuSans-6e" x="169.384766"/>
     <use xlink:href="#DejaVuSans-69" x="232.763672"/>
     <use xlink:href="#DejaVuSans-6e" x="260.546875"/>
     <use xlink:href="#DejaVuSans-67" x="323.925781"/>
    </g>
   </g>
   <g id="legend_1">
    <g id="patch_7">
     <path d="M 620.461563 44.99625 
L 698.8225 44.99625 
Q 700.8225 44.99625 700.8225 42.99625 
L 700.8225 29.318125 
Q 700.8225 27.318125 698.8225 27.318125 
L 620.461563 27.318125 
Q 618.461563 27.318125 618.461563 29.318125 
L 618.461563 42.99625 
Q 618.461563 44.99625 620.461563 44.99625 
z
" style="fill: #ffffff; opacity: 0.8; stroke: #cccccc; stroke-linejoin: miter"/>
    </g>
    <g id="line2d_17">
     <path d="M 622.461563 35.416563 
L 632.461563 35.416563 
L 642.461563 35.416563 
" style="fill: none; stroke: #1f77b4; stroke-width: 1.5; stroke-linecap: square"/>
    </g>
    <g id="text_17">
     <!-- observed -->
     <g transform="translate(650.461563 38.916563) scale(0.1 -0.1)">
      <defs>
       <path id="DejaVuSans-6f" d="M 1959 3097 
Q 1497 3097 1228 2736 
Q 959 2375 959 1747 
Q 959 1119 1226 758 
Q 1494 397 1959 397 
Q 2419 397 2687 759 
Q 2956 1122 2956 1747 
Q 2956 2369 2687 2733 
Q 2419 3097 1959 3097 
z
M 1959 3584 
Q 2709 3584 3137 3096 
Q 3566 2609 3566 1747 
Q 3566 888 3137 398 
Q 2709 -91 1959 -91 
Q 1206 -91 779 398 
Q 353 888 353 1747 
Q 353 2609 779 3096 
Q 1206 3584 1959 3584 
z
" transform="scale(0.015625)"/>
       <path id="DejaVuSans-62" d="M 3116 1747 
Q 3116 2381 2855 2742 
Q 2594 3103 2138 3103 
Q 1681 3103 1420 2742 
Q 1159 2381 1159 1747 
Q 1159 1113 1420 752 
Q 1681 391 2138 391 
Q 2594 391 2855 752 
Q 3116 1113 3116 1747 
z
M 1159 2969 
Q 1341 3281 1617 3432 
Q 1894 3584 2278 3584 
Q 2916 3584 3314 3078 
Q 3713 2572 3713 1747 
Q 3713 922 3314 415 
Q 2916 -91 2278 -91 
Q 1894 -91 1617 61 
Q 1341 213 1159 525 
L 1159 0 
L 581 0 
L 581 4863 
L 1159 4863 
L 1159 2969 
z
" transform="scale(0.015625)"/>
       <path id="DejaVuSans-73" d="M 2834 3397 
L 2834 2853 
Q 2591 2978 2328 3040 
Q 2066 3103 1784 3103 
Q 1356 3103 1142 2972 
Q 928 2841 928 2578 
Q 928 2378 1081 2264 
Q 1234 2150 1697 2047 
L 1894 2003 
Q 2506 1872 2764 1633 
Q 3022 1394 3022 966 
Q 3022 478 2636 193 
Q 2250 -91 1575 -91 
Q 1294 -91 989 -36 
Q 684 19 347 128 
L 347 722 
Q 666 556 975 473 
Q 1284 391 1588 391 
Q 1994 391 2212 530 
Q 2431 669 2431 922 
Q 2431 1156 2273 1281 
Q 2116 1406 1581 1522 
L 1381 1569 
Q 847 1681 609 1914 
Q 372 2147 372 2553 
Q 372 3047 722 3315 
Q 1072 3584 1716 3584 
Q 2034 3584 2315 3537 
Q 2597 3491 2834 3397 
z
" transform="scale(0.015625)"/>
       <path id="DejaVuSans-65" d="M 3597 1894 
L 3597 1613 
L 953 1613 
Q 991 1019 1311 708 
Q 1631 397 2203 397 
Q 2534 397 2845 478 
Q 3156 559 3463 722 
L 3463 178 
Q 3153 47 2828 -22 
Q 2503 -91 2169 -91 
Q 1331 -91 842 396 
Q 353 884 353 1716 
Q 353 2575 817 3079 
Q 1281 3584 2069 3584 
Q 2775 3584 3186 3129 
Q 3597 2675 3597 1894 
z
M 3022 2063 
Q 3016 2534 2758 2815 
Q 2500 3097 2075 3097 
Q 1594 3097 1305 2825 
Q 1016 2553 972 2059 
L 3022 2063 
z
" transform="scale(0.015625)"/>
       <path id="DejaVuSans-76" d="M 191 3500 
L 800 3500 
L 1894 563 
L 2988 3500 
L 3597 3500 
L 2284 0 
L 1503 0 
L 191 3500 
z
" transform="scale(0.015625)"/>
       <path id="DejaVuSans-64" d="M 2906 2969 
L 2906 4863 
L 3481 4863 
L 3481 0 
L 2906 0 
L 2906 525 
Q 2725 213 2448 61 
Q 2172 -91 1784 -91 
Q 1150 -91 751 415 
Q 353 922 353 1747 
Q 353 2572 751 3078 
Q 1150 3584 1784 3584 
Q 2172 3584 2448 3432 
Q 2725 3281 2906 2969 
z
M 947 1747 
Q 947 1113 1208 752 
Q 1469 391 1925 391 
Q 2381 391 2643 752 
Q 2906 1113 2906 1747 
Q 2906 2381 2643 2742 
Q 2381 3103 1925 3103 
Q 1469 3103 1208 2742 
Q 947 2381 947 1747 
z
" transform="scale(0.015625)"/>
      </defs>
      <use xlink:href="#DejaVuSans-6f"/>
      <use xlink:href="#DejaVuSans-62" x="61.181641"/>
      <use xlink:href="#DejaVuSans-73" x="124.658203"/>
      <use xlink:href="#DejaVuSans-65" x="176.757812"/>
      <use xlink:href="#DejaVuSans-72" x="238.28125"/>
      <use xlink:href="#DejaVuSans-76" x="279.394531"/>
      <use xlink:href="#DejaVuSans-65" x="338.574219"/>
      <use xlink:href="#DejaVuSans-64" x="400.097656"/>
     </g>
    </g>
   </g>
  </g>
 </g>
 <defs>
  <clipPath id="p600833fa7a">
   <rect x="46.0125" y="22.318125" width="659.81" height="305.24"/>
  </clipPath>
 </defs>
</svg>
