<?xml version="1.0" encoding="utf-8" standalone="no"?>
<!DOCTYPE svg PUBLIC "-//W3C//DTD SVG 1.1//EN"
  "http://www.w3.org/Graphics/SVG/1.1/DTD/svg11.dtd">
<svg xmlns:xlink="http://www.w3.org/1999/xlink" width="720pt" height="360pt" viewBox="0 0 720 360" xmlns="http://www.w3.org/2000/svg" version="1.1">
 <metadata>
  <rdf:RDF xmlns:dc="http://purl.org/dc/elements/1.1/" xmlns:cc="http://creativecommons.org/ns#" xmlns:rdf="http://www.w3.org/1999/02/22-rdf-syntax-ns#">
   <cc:Work>
    <dc:type rdf:resource="http://purl.org/dc/dcmitype/StillImage"/>
    <dc:date>2023-10-23T10:53:55.061464</dc:date>
    <dc:format>image/svg+xml</dc:format>
    <dc:creator>
     <cc:Agent>
      <dc:title>Matplotlib v3.7.1, https://matplotlib.org/</dc:title>
     </cc:Agent>
    </dc:creator>
   </cc:Work>
  </rdf:RDF>
 </metadata>
 <defs>
  <style type="text/css">*{stroke-linejoin: round; stroke-linecap: butt}</style>
 </defs>
 <g id="figure_1">
  <g id="patch_1">
   <path d="M 0 360 
L 720 360 
L 720 0 
L 0 0 
z
" style="fill: #ffffff"/>
  </g>
  <g id="axes_1">
   <g id="patch_2">
    <path d="M 90 288 
L 648 288 
L 648 43.2 
L 90 43.2 
z
" style="fill: #ffffff"/>
   </g>
   <g id="matplotlib.axis_1">
    <g id="xtick_1">
     <g id="line2d_1">
      <defs>
       <path id="m740ff329e2" d="M 0 0 
L 0 3.5 
" style="stroke: #000000; stroke-width: 0.8"/>
      </defs>
      <g>
       <use xlink:href="#m740ff329e2" x="149.370747" y="288" style="stroke: #000000; stroke-width: 0.8"/>
      </g>
     </g>
     <g id="text_1">
      <!-- 2023-08-15 -->
      <g transform="translate(87.727405 337.765903) rotate(-30) scale(0.12 -0.12)">
       <defs>
        <path id="DejaVuSans-32" d="M 1228 531 
L 3431 531 
L 3431 0 
L 469 0 
L 469 531 
Q 828 903 1448 1529 
Q 2069 2156 2228 2338 
Q 2531 2678 2651 2914 
Q 2772 3150 2772 3378 
Q 2772 3750 2511 3984 
Q 2250 4219 1831 4219 
Q 1534 4219 1204 4116 
Q 875 4013 500 3803 
L 500 4441 
Q 881 4594 1212 4672 
Q 1544 4750 1819 4750 
Q 2544 4750 2975 4387 
Q 3406 4025 3406 3419 
Q 3406 3131 3298 2873 
Q 3191 2616 2906 2266 
Q 2828 2175 2409 1742 
Q 1991 1309 1228 531 
z
" transform="scale(0.015625)"/>
        <path id="DejaVuSans-30" d="M 2034 4250 
Q 1547 4250 1301 3770 
Q 1056 3291 1056 2328 
Q 1056 1369 1301 889 
Q 1547 409 2034 409 
Q 2525 409 2770 889 
Q 3016 1369 3016 2328 
Q 3016 3291 2770 3770 
Q 2525 4250 2034 4250 
z
M 2034 4750 
Q 2819 4750 3233 4129 
Q 3647 3509 3647 2328 
Q 3647 1150 3233 529 
Q 2819 -91 2034 -91 
Q 1250 -91 836 529 
Q 422 1150 422 2328 
Q 422 3509 836 4129 
Q 1250 4750 2034 4750 
z
" transform="scale(0.015625)"/>
        <path id="DejaVuSans-33" d="M 2597 2516 
Q 3050 2419 3304 2112 
Q 3559 1806 3559 1356 
Q 3559 666 3084 287 
Q 2609 -91 1734 -91 
Q 1441 -91 1130 -33 
Q 819 25 488 141 
L 488 750 
Q 750 597 1062 519 
Q 1375 441 1716 441 
Q 2309 441 2620 675 
Q 2931 909 2931 1356 
Q 2931 1769 2642 2001 
Q 2353 2234 1838 2234 
L 1294 2234 
L 1294 2753 
L 1863 2753 
Q 2328 2753 2575 2939 
Q 2822 3125 2822 3475 
Q 2822 3834 2567 4026 
Q 2313 4219 1838 4219 
Q 1578 4219 1281 4162 
Q 984 4106 628 3988 
L 628 4550 
Q 988 4650 1302 4700 
Q 1616 4750 1894 4750 
Q 2613 4750 3031 4423 
Q 3450 4097 3450 3541 
Q 3450 3153 3228 2886 
Q 3006 2619 2597 2516 
z
" transform="scale(0.015625)"/>
        <path id="DejaVuSans-2d" d="M 313 2009 
L 1997 2009 
L 1997 1497 
L 313 1497 
L 313 2009 
z
" transform="scale(0.015625)"/>
        <path id="DejaVuSans-38" d="M 2034 2216 
Q 1584 2216 1326 1975 
Q 1069 1734 1069 1313 
Q 1069 891 1326 650 
Q 1584 409 2034 409 
Q 2484 409 2743 651 
Q 3003 894 3003 1313 
Q 3003 1734 2745 1975 
Q 2488 2216 2034 2216 
z
M 1403 2484 
Q 997 2584 770 2862 
Q 544 3141 544 3541 
Q 544 4100 942 4425 
Q 1341 4750 2034 4750 
Q 2731 4750 3128 4425 
Q 3525 4100 3525 3541 
Q 3525 3141 3298 2862 
Q 3072 2584 2669 2484 
Q 3125 2378 3379 2068 
Q 3634 1759 3634 1313 
Q 3634 634 3220 271 
Q 2806 -91 2034 -91 
Q 1263 -91 848 271 
Q 434 634 434 1313 
Q 434 1759 690 2068 
Q 947 2378 1403 2484 
z
M 1172 3481 
Q 1172 3119 1398 2916 
Q 1625 2713 2034 2713 
Q 2441 2713 2670 2916 
Q 2900 3119 2900 3481 
Q 2900 3844 2670 4047 
Q 2441 4250 2034 4250 
Q 1625 4250 1398 4047 
Q 1172 3844 1172 3481 
z
" transform="scale(0.015625)"/>
        <path id="DejaVuSans-31" d="M 794 531 
L 1825 531 
L 1825 4091 
L 703 3866 
L 703 4441 
L 1819 4666 
L 2450 4666 
L 2450 531 
L 3481 531 
L 3481 0 
L 794 0 
L 794 531 
z
" transform="scale(0.015625)"/>
        <path id="DejaVuSans-35" d="M 691 4666 
L 3169 4666 
L 3169 4134 
L 1269 4134 
L 1269 2991 
Q 1406 3038 1543 3061 
Q 1681 3084 1819 3084 
Q 2600 3084 3056 2656 
Q 3513 2228 3513 1497 
Q 3513 744 3044 326 
Q 2575 -91 1722 -91 
Q 1428 -91 1123 -41 
Q 819 9 494 109 
L 494 744 
Q 775 591 1075 516 
Q 1375 441 1709 441 
Q 2250 441 2565 725 
Q 2881 1009 2881 1497 
Q 2881 1984 2565 2268 
Q 2250 2553 1709 2553 
Q 1456 2553 1204 2497 
Q 953 2441 691 2322 
L 691 4666 
z
" transform="scale(0.015625)"/>
       </defs>
       <use xlink:href="#DejaVuSans-32"/>
       <use xlink:href="#DejaVuSans-30" x="63.623047"/>
       <use xlink:href="#DejaVuSans-32" x="127.246094"/>
       <use xlink:href="#DejaVuSans-33" x="190.869141"/>
       <use xlink:href="#DejaVuSans-2d" x="254.492188"/>
       <use xlink:href="#DejaVuSans-30" x="290.576172"/>
       <use xlink:href="#DejaVuSans-38" x="354.199219"/>
       <use xlink:href="#DejaVuSans-2d" x="417.822266"/>
       <use xlink:href="#DejaVuSans-31" x="453.90625"/>
       <use xlink:href="#DejaVuSans-35" x="517.529297"/>
      </g>
     </g>
    </g>
    <g id="xtick_2">
     <g id="line2d_2">
      <g>
       <use xlink:href="#m740ff329e2" x="264.994921" y="288" style="stroke: #000000; stroke-width: 0.8"/>
      </g>
     </g>
     <g id="text_2">
      <!-- 2023-09-01 -->
      <g transform="translate(203.35158 337.765903) rotate(-30) scale(0.12 -0.12)">
       <defs>
        <path id="DejaVuSans-39" d="M 703 97 
L 703 672 
Q 941 559 1184 500 
Q 1428 441 1663 441 
Q 2288 441 2617 861 
Q 2947 1281 2994 2138 
Q 2813 1869 2534 1725 
Q 2256 1581 1919 1581 
Q 1219 1581 811 2004 
Q 403 2428 403 3163 
Q 403 3881 828 4315 
Q 1253 4750 1959 4750 
Q 2769 4750 3195 4129 
Q 3622 3509 3622 2328 
Q 3622 1225 3098 567 
Q 2575 -91 1691 -91 
Q 1453 -91 1209 -44 
Q 966 3 703 97 
z
M 1959 2075 
Q 2384 2075 2632 2365 
Q 2881 2656 2881 3163 
Q 2881 3666 2632 3958 
Q 2384 4250 1959 4250 
Q 1534 4250 1286 3958 
Q 1038 3666 1038 3163 
Q 1038 2656 1286 2365 
Q 1534 2075 1959 2075 
z
" transform="scale(0.015625)"/>
       </defs>
       <use xlink:href="#DejaVuSans-32"/>
       <use xlink:href="#DejaVuSans-30" x="63.623047"/>
       <use xlink:href="#DejaVuSans-32" x="127.246094"/>
       <use xlink:href="#DejaVuSans-33" x="190.869141"/>
       <use xlink:href="#DejaVuSans-2d" x="254.492188"/>
       <use xlink:href="#DejaVuSans-30" x="290.576172"/>
       <use xlink:href="#DejaVuSans-39" x="354.199219"/>
       <use xlink:href="#DejaVuSans-2d" x="417.822266"/>
       <use xlink:href="#DejaVuSans-30" x="453.90625"/>
       <use xlink:href="#DejaVuSans-31" x="517.529297"/>
      </g>
     </g>
    </g>
    <g id="xtick_3">
     <g id="line2d_3">
      <g>
       <use xlink:href="#m740ff329e2" x="360.21483" y="288" style="stroke: #000000; stroke-width: 0.8"/>
      </g>
     </g>
     <g id="text_3">
      <!-- 2023-09-15 -->
      <g transform="translate(298.571488 337.765903) rotate(-30) scale(0.12 -0.12)">
       <use xlink:href="#DejaVuSans-32"/>
       <use xlink:href="#DejaVuSans-30" x="63.623047"/>
       <use xlink:href="#DejaVuSans-32" x="127.246094"/>
       <use xlink:href="#DejaVuSans-33" x="190.869141"/>
       <use xlink:href="#DejaVuSans-2d" x="254.492188"/>
       <use xlink:href="#DejaVuSans-30" x="290.576172"/>
       <use xlink:href="#DejaVuSans-39" x="354.199219"/>
       <use xlink:href="#DejaVuSans-2d" x="417.822266"/>
       <use xlink:href="#DejaVuSans-31" x="453.90625"/>
       <use xlink:href="#DejaVuSans-35" x="517.529297"/>
      </g>
     </g>
    </g>
    <g id="xtick_4">
     <g id="line2d_4">
      <g>
       <use xlink:href="#m740ff329e2" x="469.037583" y="288" style="stroke: #000000; stroke-width: 0.8"/>
      </g>
     </g>
     <g id="text_4">
      <!-- 2023-10-01 -->
      <g transform="translate(407.394241 337.765903) rotate(-30) scale(0.12 -0.12)">
       <use xlink:href="#DejaVuSans-32"/>
       <use xlink:href="#DejaVuSans-30" x="63.623047"/>
       <use xlink:href="#DejaVuSans-32" x="127.246094"/>
       <use xlink:href="#DejaVuSans-33" x="190.869141"/>
       <use xlink:href="#DejaVuSans-2d" x="254.492188"/>
       <use xlink:href="#DejaVuSans-31" x="290.576172"/>
       <use xlink:href="#DejaVuSans-30" x="354.199219"/>
       <use xlink:href="#DejaVuSans-2d" x="417.822266"/>
       <use xlink:href="#DejaVuSans-30" x="453.90625"/>
       <use xlink:href="#DejaVuSans-31" x="517.529297"/>
      </g>
     </g>
    </g>
    <g id="xtick_5">
     <g id="line2d_5">
      <g>
       <use xlink:href="#m740ff329e2" x="564.257491" y="288" style="stroke: #000000; stroke-width: 0.8"/>
      </g>
     </g>
     <g id="text_5">
      <!-- 2023-10-15 -->
      <g transform="translate(502.614149 337.765903) rotate(-30) scale(0.12 -0.12)">
       <use xlink:href="#DejaVuSans-32"/>
       <use xlink:href="#DejaVuSans-30" x="63.623047"/>
       <use xlink:href="#DejaVuSans-32" x="127.246094"/>
       <use xlink:href="#DejaVuSans-33" x="190.869141"/>
       <use xlink:href="#DejaVuSans-2d" x="254.492188"/>
       <use xlink:href="#DejaVuSans-31" x="290.576172"/>
       <use xlink:href="#DejaVuSans-30" x="354.199219"/>
       <use xlink:href="#DejaVuSans-2d" x="417.822266"/>
       <use xlink:href="#DejaVuSans-31" x="453.90625"/>
       <use xlink:href="#DejaVuSans-35" x="517.529297"/>
      </g>
     </g>
    </g>
   </g>
   <g id="matplotlib.axis_2">
    <g id="ytick_1">
     <g id="line2d_6">
      <defs>
       <path id="m367152210c" d="M 0 0 
L -3.5 0 
" style="stroke: #000000; stroke-width: 0.8"/>
      </defs>
      <g>
       <use xlink:href="#m367152210c" x="90" y="254.474806" style="stroke: #000000; stroke-width: 0.8"/>
      </g>
     </g>
     <g id="text_6">
      <!-- 0.10 -->
      <g transform="translate(56.28125 259.033868) scale(0.12 -0.12)">
       <defs>
        <path id="DejaVuSans-2e" d="M 684 794 
L 1344 794 
L 1344 0 
L 684 0 
L 684 794 
z
" transform="scale(0.015625)"/>
       </defs>
       <use xlink:href="#DejaVuSans-30"/>
       <use xlink:href="#DejaVuSans-2e" x="63.623047"/>
       <use xlink:href="#DejaVuSans-31" x="95.410156"/>
       <use xlink:href="#DejaVuSans-30" x="159.033203"/>
      </g>
     </g>
    </g>
    <g id="ytick_2">
     <g id="line2d_7">
      <g>
       <use xlink:href="#m367152210c" x="90" y="204.074253" style="stroke: #000000; stroke-width: 0.8"/>
      </g>
     </g>
     <g id="text_7">
      <!-- 0.15 -->
      <g transform="translate(56.28125 208.633315) scale(0.12 -0.12)">
       <use xlink:href="#DejaVuSans-30"/>
       <use xlink:href="#DejaVuSans-2e" x="63.623047"/>
       <use xlink:href="#DejaVuSans-31" x="95.410156"/>
       <use xlink:href="#DejaVuSans-35" x="159.033203"/>
      </g>
     </g>
    </g>
    <g id="ytick_3">
     <g id="line2d_8">
      <g>
       <use xlink:href="#m367152210c" x="90" y="153.6737" style="stroke: #000000; stroke-width: 0.8"/>
      </g>
     </g>
     <g id="text_8">
      <!-- 0.20 -->
      <g transform="translate(56.28125 158.232763) scale(0.12 -0.12)">
       <use xlink:href="#DejaVuSans-30"/>
       <use xlink:href="#DejaVuSans-2e" x="63.623047"/>
       <use xlink:href="#DejaVuSans-32" x="95.410156"/>
       <use xlink:href="#DejaVuSans-30" x="159.033203"/>
      </g>
     </g>
    </g>
    <g id="ytick_4">
     <g id="line2d_9">
      <g>
       <use xlink:href="#m367152210c" x="90" y="103.273148" style="stroke: #000000; stroke-width: 0.8"/>
      </g>
     </g>
     <g id="text_9">
      <!-- 0.25 -->
      <g transform="translate(56.28125 107.83221) scale(0.12 -0.12)">
       <use xlink:href="#DejaVuSans-30"/>
       <use xlink:href="#DejaVuSans-2e" x="63.623047"/>
       <use xlink:href="#DejaVuSans-32" x="95.410156"/>
       <use xlink:href="#DejaVuSans-35" x="159.033203"/>
      </g>
     </g>
    </g>
    <g id="ytick_5">
     <g id="line2d_10">
      <g>
       <use xlink:href="#m367152210c" x="90" y="52.872595" style="stroke: #000000; stroke-width: 0.8"/>
      </g>
     </g>
     <g id="text_10">
      <!-- 0.30 -->
      <g transform="translate(56.28125 57.431658) scale(0.12 -0.12)">
       <use xlink:href="#DejaVuSans-30"/>
       <use xlink:href="#DejaVuSans-2e" x="63.623047"/>
       <use xlink:href="#DejaVuSans-33" x="95.410156"/>
       <use xlink:href="#DejaVuSans-30" x="159.033203"/>
      </g>
     </g>
    </g>
    <g id="text_11">
     <!-- Meters -->
     <g transform="translate(50.201562 182.6875) rotate(-90) scale(0.1 -0.1)">
      <defs>
       <path id="DejaVuSans-4d" d="M 628 4666 
L 1569 4666 
L 2759 1491 
L 3956 4666 
L 4897 4666 
L 4897 0 
L 4281 0 
L 4281 4097 
L 3078 897 
L 2444 897 
L 1241 4097 
L 1241 0 
L 628 0 
L 628 4666 
z
" transform="scale(0.015625)"/>
       <path id="DejaVuSans-65" d="M 3597 1894 
L 3597 1613 
L 953 1613 
Q 991 1019 1311 708 
Q 1631 397 2203 397 
Q 2534 397 2845 478 
Q 3156 559 3463 722 
L 3463 178 
Q 3153 47 2828 -22 
Q 2503 -91 2169 -91 
Q 1331 -91 842 396 
Q 353 884 353 1716 
Q 353 2575 817 3079 
Q 1281 3584 2069 3584 
Q 2775 3584 3186 3129 
Q 3597 2675 3597 1894 
z
M 3022 2063 
Q 3016 2534 2758 2815 
Q 2500 3097 2075 3097 
Q 1594 3097 1305 2825 
Q 1016 2553 972 2059 
L 3022 2063 
z
" transform="scale(0.015625)"/>
       <path id="DejaVuSans-74" d="M 1172 4494 
L 1172 3500 
L 2356 3500 
L 2356 3053 
L 1172 3053 
L 1172 1153 
Q 1172 725 1289 603 
Q 1406 481 1766 481 
L 2356 481 
L 2356 0 
L 1766 0 
Q 1100 0 847 248 
Q 594 497 594 1153 
L 594 3053 
L 172 3053 
L 172 3500 
L 594 3500 
L 594 4494 
L 1172 4494 
z
" transform="scale(0.015625)"/>
       <path id="DejaVuSans-72" d="M 2631 2963 
Q 2534 3019 2420 3045 
Q 2306 3072 2169 3072 
Q 1681 3072 1420 2755 
Q 1159 2438 1159 1844 
L 1159 0 
L 581 0 
L 581 3500 
L 1159 3500 
L 1159 2956 
Q 1341 3275 1631 3429 
Q 1922 3584 2338 3584 
Q 2397 3584 2469 3576 
Q 2541 3569 2628 3553 
L 2631 2963 
z
" transform="scale(0.015625)"/>
       <path id="DejaVuSans-73" d="M 2834 3397 
L 2834 2853 
Q 2591 2978 2328 3040 
Q 2066 3103 1784 3103 
Q 1356 3103 1142 2972 
Q 928 2841 928 2578 
Q 928 2378 1081 2264 
Q 1234 2150 1697 2047 
L 1894 2003 
Q 2506 1872 2764 1633 
Q 3022 1394 3022 966 
Q 3022 478 2636 193 
Q 2250 -91 1575 -91 
Q 1294 -91 989 -36 
Q 684 19 347 128 
L 347 722 
Q 666 556 975 473 
Q 1284 391 1588 391 
Q 1994 391 2212 530 
Q 2431 669 2431 922 
Q 2431 1156 2273 1281 
Q 2116 1406 1581 1522 
L 1381 1569 
Q 847 1681 609 1914 
Q 372 2147 372 2553 
Q 372 3047 722 3315 
Q 1072 3584 1716 3584 
Q 2034 3584 2315 3537 
Q 2597 3491 2834 3397 
z
" transform="scale(0.015625)"/>
      </defs>
      <use xlink:href="#DejaVuSans-4d"/>
      <use xlink:href="#DejaVuSans-65" x="86.279297"/>
      <use xlink:href="#DejaVuSans-74" x="147.802734"/>
      <use xlink:href="#DejaVuSans-65" x="187.011719"/>
      <use xlink:href="#DejaVuSans-72" x="248.535156"/>
      <use xlink:href="#DejaVuSans-73" x="289.648438"/>
     </g>
    </g>
   </g>
   <g id="line2d_11">
    <path d="M 115.363636 254.702161 
L 116.213814 248.487684 
L 116.497207 248.319726 
L 116.780599 246.472178 
L 117.063992 245.968302 
L 117.347384 247.64789 
L 117.630777 247.983808 
L 117.91417 247.311973 
L 118.197562 247.311973 
L 118.764347 244.120755 
L 119.04774 246.640137 
L 119.331133 251.175026 
L 119.614525 252.182779 
L 120.18131 257.389503 
L 120.464703 258.229297 
L 120.748095 263.603979 
L 121.031488 243.616878 
L 121.598273 252.350738 
L 121.881666 246.472178 
L 122.165058 243.616878 
L 122.448451 239.08199 
L 122.731844 237.234443 
L 123.015236 237.402401 
L 123.298629 235.554854 
L 123.865414 238.242196 
L 124.148807 236.898525 
L 124.432199 236.898525 
L 124.715592 237.906278 
L 124.998984 237.738319 
L 125.282377 238.242196 
L 125.565769 236.562607 
L 125.849162 236.898525 
L 126.132555 241.93729 
L 126.415947 252.01482 
L 126.69934 257.221544 
L 126.982732 256.045832 
L 127.266125 257.557461 
L 127.549518 254.702161 
L 127.83291 253.526449 
L 128.116303 251.175026 
L 128.399695 257.053585 
L 128.683088 250.839108 
L 128.96648 247.479931 
L 129.249873 239.417907 
L 129.533266 237.57036 
L 129.816658 237.738319 
L 130.100051 238.578113 
L 130.383443 237.57036 
L 130.666836 235.890772 
L 130.950229 232.699554 
L 131.233621 231.355883 
L 131.517014 232.195678 
L 131.800406 235.050978 
L 132.083799 234.71506 
L 132.367191 230.852007 
L 132.650584 230.34813 
L 133.217369 237.402401 
L 133.784154 246.30422 
L 134.067547 247.144014 
L 134.35094 253.190532 
L 134.634332 254.366244 
L 134.917725 257.221544 
L 135.201117 255.541955 
L 135.48451 247.815849 
L 136.051295 245.128508 
L 136.334688 241.265455 
L 136.901473 238.914031 
L 138.035043 224.805489 
L 138.318436 223.629777 
L 138.601828 224.805489 
L 138.885221 225.477324 
L 139.168614 223.461818 
L 139.735399 229.508336 
L 140.018791 236.562607 
L 140.302184 240.089743 
L 140.585576 237.57036 
L 140.868969 239.753825 
L 141.152362 236.394648 
L 141.435754 236.562607 
L 141.719147 233.203431 
L 142.002539 232.531595 
L 142.285932 230.684048 
L 142.569325 229.844254 
L 142.852717 226.988954 
L 143.13611 225.813242 
L 143.419502 227.324871 
L 145.119858 217.583259 
L 145.40325 217.4153 
L 145.970036 219.934683 
L 147.386998 240.761578 
L 147.670391 242.777084 
L 147.953784 245.800343 
L 148.237176 241.769331 
L 148.520569 241.601372 
L 148.803961 239.753825 
L 149.654139 227.996707 
L 149.937532 227.996707 
L 150.220924 226.485077 
L 150.787709 216.07163 
L 151.071102 213.888165 
L 151.354495 209.857153 
L 151.92128 207.169811 
L 152.488065 199.779623 
L 152.771458 199.275746 
L 153.05485 199.779623 
L 153.338243 198.435952 
L 154.188421 189.702093 
L 154.471813 189.870051 
L 154.755206 189.366175 
L 155.038598 185.503122 
L 155.321991 185.167204 
L 155.605383 184.495369 
L 155.888776 184.999245 
L 156.172169 184.495369 
L 156.455561 185.335163 
L 156.738954 188.526381 
L 157.022346 188.526381 
L 157.305739 189.198216 
L 157.872524 186.342916 
L 158.155917 186.342916 
L 158.439309 188.022504 
L 158.722702 188.526381 
L 159.006094 188.69434 
L 159.57288 195.076775 
L 159.856272 197.092281 
L 160.139665 197.764117 
L 160.70645 213.04837 
L 160.989843 212.376535 
L 161.556628 225.981201 
L 162.123413 231.187925 
L 162.406805 231.523842 
L 162.690198 221.110395 
L 162.973591 216.911424 
L 163.256983 215.903671 
L 163.540376 213.552247 
L 164.107161 211.536741 
L 164.673946 205.658182 
L 164.957339 204.650429 
L 165.807517 210.19307 
L 166.090909 210.528988 
L 166.374302 211.7047 
L 166.657694 212.040617 
L 166.941087 214.727959 
L 167.224479 221.110395 
L 167.507872 224.469571 
L 168.074657 200.283499 
L 168.35805 199.107787 
L 168.641442 199.779623 
L 168.924835 201.795129 
L 169.208228 54.327273 
L 169.49162 182.143945 
L 169.775013 172.066415 
L 170.341798 167.699485 
L 170.62519 163.668473 
L 170.908583 164.17235 
L 171.191976 163.164597 
L 171.475368 159.637461 
L 171.758761 158.293791 
L 172.042153 159.80542 
L 172.325546 161.988885 
L 172.892331 163.668473 
L 173.175724 165.348062 
L 173.459116 169.043156 
L 173.742509 174.753756 
L 174.025901 182.983739 
L 174.309294 187.854545 
L 174.592687 187.518628 
L 175.442864 196.924322 
L 175.726257 198.939828 
L 176.00965 199.443705 
L 176.293042 195.748611 
L 177.14322 193.061269 
L 177.426612 191.213722 
L 177.710005 192.389434 
L 177.993398 192.557393 
L 178.27679 196.924322 
L 178.560183 199.107787 
L 178.843575 199.107787 
L 179.126968 198.435952 
L 179.410361 198.77187 
L 179.693753 200.451458 
L 179.977146 199.275746 
L 180.260538 200.11554 
L 180.543931 203.810635 
L 181.110716 226.988954 
L 181.394109 227.660789 
L 181.677501 234.379142 
L 182.244286 237.402401 
L 182.527679 239.417907 
L 182.811072 238.410154 
L 183.094464 229.844254 
L 183.944642 224.805489 
L 184.228035 224.805489 
L 184.511427 223.797736 
L 184.79482 221.614271 
L 185.078212 222.454065 
L 185.361605 221.110395 
L 186.778568 208.681441 
L 187.06196 207.505729 
L 187.345353 212.544494 
L 187.628746 223.461818 
L 187.912138 224.973448 
L 188.195531 219.094889 
L 189.045708 231.019966 
L 189.329101 232.195678 
L 189.612494 230.34813 
L 190.179279 223.965695 
L 190.462671 223.797736 
L 190.746064 224.133654 
L 191.029457 223.797736 
L 191.312849 222.286106 
L 191.596242 222.622024 
L 192.163027 225.981201 
L 192.44642 227.828748 
L 192.729812 228.500583 
L 193.013205 227.660789 
L 193.296597 227.49283 
L 193.57999 226.14916 
L 193.863382 226.988954 
L 194.146775 228.500583 
L 194.71356 238.410154 
L 194.996953 241.097496 
L 195.563738 252.686655 
L 195.847131 251.007067 
L 196.130523 245.800343 
L 196.413916 244.624631 
L 196.697308 241.769331 
L 196.980701 241.265455 
L 197.264093 239.753825 
L 197.830879 239.417907 
L 198.397664 240.257702 
L 198.681056 238.578113 
L 198.964449 237.57036 
L 199.814627 231.85976 
L 200.381412 227.156913 
L 200.664804 229.00446 
L 200.948197 232.027719 
L 201.514982 241.769331 
L 201.798375 241.433413 
L 202.081767 242.273208 
L 202.36516 245.296467 
L 202.648553 244.960549 
L 203.215338 252.518696 
L 203.49873 244.120755 
L 204.065515 234.547101 
L 204.348908 235.386895 
L 204.632301 232.699554 
L 204.915693 231.691801 
L 205.199086 231.85976 
L 205.482478 233.707307 
L 205.765871 231.187925 
L 206.049264 227.49283 
L 206.332656 227.156913 
L 206.899441 225.309365 
L 207.182834 225.981201 
L 208.033012 232.195678 
L 208.316404 238.578113 
L 208.883189 244.960549 
L 209.166582 243.784837 
L 209.449975 247.311973 
L 209.733367 249.327479 
L 210.01676 249.15952 
L 210.583545 236.058731 
L 211.15033 232.531595 
L 211.433723 232.195678 
L 211.717115 230.684048 
L 212.000508 230.012213 
L 212.2839 230.852007 
L 213.700863 168.203362 
L 213.984256 152.751149 
L 214.551041 141.665866 
L 214.834434 139.65036 
L 215.117826 135.451389 
L 215.401219 133.603842 
L 215.684611 136.963019 
L 215.968004 135.115472 
L 216.251397 134.107719 
L 216.534789 137.298937 
L 216.818182 144.689125 
L 217.101574 140.826072 
L 217.384967 140.658113 
L 217.66836 138.30669 
L 217.951752 138.30669 
L 218.518537 124.030189 
L 218.80193 120.671012 
L 219.368715 110.9294 
L 219.652108 109.585729 
L 220.218893 114.960412 
L 221.069071 117.647753 
L 221.919248 123.190395 
L 222.486034 127.557324 
L 222.769426 128.900995 
L 223.052819 130.916501 
L 223.336211 139.482401 
L 223.902996 130.748542 
L 224.186389 130.748542 
L 224.753174 132.42813 
L 225.036567 132.092213 
L 225.319959 132.42813 
L 225.603352 133.93976 
L 225.886745 136.79506 
L 227.020315 143.177496 
L 227.303707 144.01729 
L 227.5871 144.01729 
L 227.870493 147.208508 
L 228.153885 149.056055 
L 229.004063 159.80542 
L 229.287456 161.988885 
L 229.570848 166.523774 
L 229.854241 172.906209 
L 230.137633 174.585798 
L 230.421026 175.089674 
L 230.704418 172.73825 
L 231.271204 171.898456 
L 231.554596 173.410086 
L 231.837989 173.578045 
L 232.121381 174.081921 
L 232.688167 177.777015 
L 232.971559 176.601304 
L 233.254952 178.280892 
L 233.538344 178.280892 
L 234.10513 179.96048 
L 234.388522 177.609057 
L 234.671915 177.777015 
L 234.955307 177.777015 
L 235.2387 185.503122 
L 235.805485 191.717599 
L 236.088878 201.62717 
L 236.939055 215.231835 
L 237.222448 213.888165 
L 237.505841 201.795129 
L 237.789233 199.947581 
L 238.072626 195.916569 
L 238.639411 193.901063 
L 239.206196 193.901063 
L 239.489589 194.908816 
L 239.772981 195.412693 
L 240.056374 195.412693 
L 240.339766 195.244734 
L 240.623159 196.252487 
L 240.906552 194.740858 
L 241.189944 190.03801 
L 241.473337 189.366175 
L 241.756729 190.03801 
L 242.040122 201.291252 
L 242.323514 208.009605 
L 242.606907 209.353276 
L 243.173692 221.950189 
L 243.457085 226.820995 
L 243.740477 228.668542 
L 244.02387 225.141407 
L 244.307263 216.743465 
L 245.15744 207.673688 
L 245.724225 206.497976 
L 246.007618 205.994099 
L 246.574403 206.497976 
L 246.857796 204.650429 
L 247.141188 204.314511 
L 247.424581 203.306758 
L 247.707974 204.818388 
L 247.991366 204.48247 
L 248.274759 204.48247 
L 248.558151 203.810635 
L 249.124937 216.239588 
L 249.408329 220.2706 
L 249.691722 219.430806 
L 249.975114 220.102642 
L 250.258507 222.118148 
L 250.825292 216.911424 
L 251.108685 216.407547 
L 251.392077 214.224082 
L 251.67547 208.009605 
L 251.958862 207.169811 
L 252.242255 208.009605 
L 252.525648 207.841647 
L 252.80904 208.513482 
L 253.659218 199.947581 
L 253.94261 200.11554 
L 254.226003 199.611664 
L 254.509396 199.947581 
L 255.076181 203.642676 
L 255.926359 213.720206 
L 256.493144 222.789983 
L 256.776536 226.820995 
L 257.059929 228.668542 
L 257.626714 224.133654 
L 257.910107 218.255094 
L 258.193499 218.423053 
L 258.760284 214.392041 
L 259.043677 214.224082 
L 259.610462 212.544494 
L 259.893855 213.384288 
L 260.177247 213.552247 
L 260.46064 214.895918 
L 260.744033 214.895918 
L 261.027425 213.888165 
L 261.310818 213.720206 
L 261.59421 209.521235 
L 261.877603 208.513482 
L 262.160995 210.025111 
L 262.444388 220.774477 
L 263.011173 232.195678 
L 263.294566 243.280961 
L 263.577958 246.976055 
L 264.144744 239.753825 
L 264.428136 233.707307 
L 264.711529 224.973448 
L 265.278314 217.247341 
L 265.561706 215.399794 
L 266.128492 214.727959 
L 266.411884 213.552247 
L 266.695277 213.720206 
L 268.11224 218.255094 
L 268.395632 216.239588 
L 268.679025 210.864906 
L 268.962417 209.521235 
L 269.529203 227.828748 
L 269.812595 234.379142 
L 270.095988 246.30422 
L 270.37938 251.510943 
L 270.662773 254.534202 
L 270.946166 254.87012 
L 271.512951 243.448919 
L 272.079736 236.730566 
L 272.363128 236.394648 
L 272.646521 237.906278 
L 273.213306 234.883019 
L 273.496699 235.050978 
L 273.780091 237.57036 
L 274.063484 238.242196 
L 274.346877 240.761578 
L 274.630269 240.593619 
L 274.913662 240.593619 
L 275.197054 235.890772 
L 275.480447 234.043225 
L 275.76384 236.730566 
L 276.047232 243.952796 
L 276.330625 246.976055 
L 276.89741 260.916638 
L 277.180802 261.252556 
L 277.464195 260.244803 
L 277.747588 259.740926 
L 278.03098 255.541955 
L 278.881158 249.663396 
L 279.164551 249.15952 
L 279.447943 249.327479 
L 280.014728 245.800343 
L 280.298121 245.464425 
L 280.581513 245.800343 
L 280.864906 246.808096 
L 281.431691 245.128508 
L 281.715084 243.113002 
L 281.998476 243.616878 
L 282.281869 240.257702 
L 282.565262 238.410154 
L 282.848654 248.655643 
L 283.132047 254.030326 
L 283.415439 256.549708 
L 283.698832 269.482539 
L 284.265617 276.872727 
L 284.832402 266.291321 
L 285.115795 264.611732 
L 285.399187 261.420515 
L 285.965973 253.022573 
L 286.249365 251.678902 
L 286.81615 251.342985 
L 287.099543 251.510943 
L 287.382936 247.815849 
L 287.666328 250.167273 
L 287.949721 250.671149 
L 288.233113 250.839108 
L 288.516506 249.831355 
L 288.799898 250.167273 
L 289.366684 246.976055 
L 289.933469 259.23705 
L 290.216861 258.397256 
L 290.500254 267.970909 
L 290.783647 273.681509 
L 291.067039 274.017427 
L 291.350432 271.666003 
L 291.917217 262.260309 
L 293.050787 253.694408 
L 293.617572 251.342985 
L 293.900965 249.663396 
L 294.184358 249.663396 
L 294.751143 249.15952 
L 295.034535 251.342985 
L 295.60132 247.64789 
L 295.884713 244.456672 
L 296.168106 245.128508 
L 296.451498 252.350738 
L 296.734891 255.709914 
L 297.018283 257.389503 
L 297.585069 266.123362 
L 297.868461 267.299074 
L 298.151854 266.291321 
L 298.435246 263.100103 
L 298.718639 257.893379 
L 299.002031 243.448919 
L 299.285424 238.914031 
L 299.568817 240.929537 
L 299.852209 240.593619 
L 300.135602 239.921784 
L 300.418994 232.699554 
L 300.702387 221.110395 
L 300.98578 216.239588 
L 301.269172 214.727959 
L 301.552565 214.895918 
L 302.686135 219.934683 
L 302.969528 222.454065 
L 303.25292 226.820995 
L 303.819705 219.094889 
L 304.386491 215.399794 
L 304.669883 206.497976 
L 305.236668 184.999245 
L 305.803454 185.335163 
L 306.086846 187.518628 
L 306.370239 192.221475 
L 306.653631 192.89331 
L 306.937024 189.534134 
L 307.220416 189.198216 
L 307.503809 190.205969 
L 307.787202 190.205969 
L 308.070594 193.565146 
L 308.637379 195.244734 
L 309.204165 202.466964 
L 309.487557 203.978593 
L 309.77095 206.833894 
L 310.337735 215.903671 
L 310.90452 220.438559 
L 311.187913 219.934683 
L 311.471305 221.278353 
L 311.754698 221.110395 
L 312.03809 219.934683 
L 312.321483 217.919177 
L 312.604876 217.751218 
L 313.738446 223.629777 
L 314.021838 223.629777 
L 314.305231 223.293859 
L 314.588624 224.469571 
L 314.872016 226.485077 
L 315.155409 225.813242 
L 315.438801 226.485077 
L 315.722194 226.653036 
L 316.005587 227.156913 
L 316.288979 228.332624 
L 316.572372 228.668542 
L 317.139157 237.57036 
L 317.42255 241.769331 
L 317.705942 243.280961 
L 317.989335 242.777084 
L 318.272727 243.448919 
L 319.122905 239.921784 
L 319.406298 239.417907 
L 319.68969 239.585866 
L 319.973083 239.921784 
L 320.256475 239.753825 
L 320.539868 239.249949 
L 320.823261 240.593619 
L 321.390046 238.242196 
L 321.673438 236.562607 
L 321.956831 235.554854 
L 322.240223 236.730566 
L 322.523616 235.722813 
L 322.807009 236.394648 
L 323.373794 240.761578 
L 323.657186 246.472178 
L 323.940579 248.151767 
L 324.507364 256.549708 
L 324.790757 255.709914 
L 325.074149 254.198285 
L 325.640934 249.663396 
L 325.924327 249.15952 
L 326.20772 248.991561 
L 326.491112 248.487684 
L 326.774505 246.30422 
L 327.34129 246.30422 
L 327.624683 245.296467 
L 327.908075 245.296467 
L 328.47486 244.79259 
L 328.758253 243.784837 
L 329.041646 243.784837 
L 329.325038 244.288714 
L 329.891823 240.761578 
L 330.175216 244.456672 
L 330.458608 251.678902 
L 330.742001 253.862367 
L 331.025394 254.030326 
L 331.308786 262.596226 
L 331.592179 262.932144 
L 331.875571 267.131115 
L 332.158964 265.283568 
L 332.442357 257.053585 
L 332.725749 252.686655 
L 333.009142 252.182779 
L 333.292534 249.999314 
L 333.575927 249.495437 
L 334.142712 246.472178 
L 334.426105 248.487684 
L 334.709497 248.151767 
L 335.276282 246.472178 
L 335.559675 246.30422 
L 335.843068 245.128508 
L 336.409853 241.097496 
L 336.976638 239.921784 
L 337.826816 251.510943 
L 338.110208 252.283554 
L 338.393601 251.175026 
L 338.676993 252.182779 
L 338.960386 250.839108 
L 339.243779 248.823602 
L 339.527171 247.64789 
L 339.810564 247.479931 
L 343.211275 142.841578 
L 343.494667 142.841578 
L 344.344845 149.895849 
L 344.628238 149.391973 
L 344.91163 155.270532 
L 345.195023 156.95012 
L 345.761808 164.17235 
L 346.045201 161.988885 
L 346.328593 163.668473 
L 346.611986 164.340309 
L 347.462164 171.058662 
L 348.028949 173.242127 
L 348.312341 175.089674 
L 348.879126 183.487616 
L 349.162519 184.32741 
L 349.445912 186.846792 
L 349.729304 194.236981 
L 350.012697 195.412693 
L 350.296089 194.908816 
L 350.579482 198.77187 
L 350.862875 205.658182 
L 351.146267 209.521235 
L 351.42966 210.528988 
L 351.713052 216.07163 
L 351.996445 213.720206 
L 352.279837 214.392041 
L 352.56323 215.399794 
L 352.846623 213.04837 
L 353.130015 214.224082 
L 353.413408 216.407547 
L 353.6968 215.231835 
L 354.546978 218.423053 
L 354.830371 218.92693 
L 355.397156 217.583259 
L 355.680549 221.950189 
L 355.963941 222.622024 
L 356.530726 231.187925 
L 356.814119 229.676295 
L 357.097511 225.141407 
L 357.380904 224.805489 
L 357.947689 239.417907 
L 358.231082 241.433413 
L 358.514474 253.526449 
L 358.797867 251.846861 
L 359.08126 254.030326 
L 359.648045 248.319726 
L 360.781615 238.578113 
L 361.065008 238.410154 
L 361.3484 237.234443 
L 361.631793 237.906278 
L 361.915185 236.730566 
L 362.198578 234.883019 
L 362.481971 232.195678 
L 362.765363 231.523842 
L 363.048756 231.187925 
L 363.332148 232.531595 
L 363.615541 231.691801 
L 363.898933 229.172419 
L 364.182326 229.508336 
L 364.749111 246.808096 
L 365.315896 258.397256 
L 365.882682 267.131115 
L 366.449467 261.084597 
L 367.299644 251.007067 
L 367.86643 248.823602 
L 368.149822 249.15952 
L 369 244.288714 
L 369.283393 241.769331 
L 370.13357 240.42566 
L 370.416963 239.417907 
L 370.700356 236.058731 
L 370.983748 237.57036 
L 371.267141 246.136261 
L 372.117318 259.740926 
L 372.400711 260.748679 
L 372.684104 261.252556 
L 373.250889 254.702161 
L 374.384459 244.288714 
L 374.667852 242.441166 
L 374.951244 243.113002 
L 375.234637 241.265455 
L 375.518029 241.265455 
L 376.084815 244.120755 
L 376.368207 243.784837 
L 376.6516 243.113002 
L 376.934992 243.448919 
L 377.218385 241.769331 
L 377.501778 241.433413 
L 377.78517 242.105249 
L 378.068563 246.976055 
L 378.351955 249.495437 
L 378.635348 253.358491 
L 378.91874 255.541955 
L 379.202133 253.862367 
L 379.485526 250.671149 
L 380.052311 248.151767 
L 380.335703 248.991561 
L 380.619096 248.319726 
L 380.902489 244.288714 
L 381.185881 243.448919 
L 381.469274 244.624631 
L 381.752666 244.456672 
L 382.036059 244.960549 
L 382.319451 245.128508 
L 382.602844 242.945043 
L 382.886237 243.616878 
L 383.169629 240.089743 
L 383.736414 244.456672 
L 384.019807 244.288714 
L 384.3032 245.968302 
L 384.586592 246.640137 
L 385.720163 260.244803 
L 386.286948 252.686655 
L 386.57034 252.854614 
L 386.853733 248.823602 
L 387.137125 247.64789 
L 387.703911 243.952796 
L 387.987303 243.784837 
L 388.270696 244.456672 
L 388.554088 242.441166 
L 388.837481 241.769331 
L 389.120874 238.746072 
L 389.404266 239.417907 
L 389.971051 237.906278 
L 390.537836 242.273208 
L 390.821229 241.769331 
L 391.104622 239.249949 
L 391.388014 242.609125 
L 391.671407 252.182779 
L 392.521585 266.45928 
L 392.804977 266.291321 
L 393.08837 264.94765 
L 393.655155 260.58072 
L 393.938547 257.221544 
L 394.22194 256.38175 
L 395.072118 249.999314 
L 395.35551 250.167273 
L 395.638903 249.999314 
L 395.922296 247.144014 
L 396.205688 247.144014 
L 396.772473 244.960549 
L 397.055866 244.624631 
L 397.339259 245.464425 
L 397.622651 245.464425 
L 397.906044 244.288714 
L 398.472829 250.839108 
L 398.756221 251.342985 
L 399.039614 252.182779 
L 399.323007 256.549708 
L 399.889792 243.616878 
L 400.173184 244.120755 
L 400.73997 240.257702 
L 401.023362 239.585866 
L 401.306755 238.242196 
L 401.87354 237.402401 
L 402.156932 237.906278 
L 402.440325 237.738319 
L 402.723718 238.074237 
L 403.00711 237.906278 
L 403.290503 238.242196 
L 403.573895 238.914031 
L 404.140681 243.784837 
L 404.424073 243.616878 
L 404.707466 241.93729 
L 404.990858 244.624631 
L 405.557643 252.01482 
L 405.841036 261.756432 
L 406.124429 267.131115 
L 406.407821 267.634991 
L 406.691214 268.474786 
L 406.974606 267.80295 
L 407.257999 266.291321 
L 407.824784 258.229297 
L 408.391569 256.549708 
L 408.674962 254.702161 
L 408.958354 255.038079 
L 409.52514 254.030326 
L 410.091925 249.15952 
L 410.375317 247.815849 
L 410.942103 247.815849 
L 411.225495 247.64789 
L 411.79228 243.448919 
L 412.075673 244.960549 
L 412.359066 248.991561 
L 412.925851 262.09235 
L 413.209243 257.557461 
L 413.492636 257.72542 
L 413.776028 258.229297 
L 414.059421 255.877873 
L 414.342814 254.87012 
L 414.626206 252.01482 
L 414.909599 251.342985 
L 415.192991 252.01482 
L 415.476384 252.01482 
L 415.759777 251.510943 
L 416.043169 251.342985 
L 416.326562 249.831355 
L 416.609954 250.50319 
L 417.176739 248.319726 
L 417.460132 249.15952 
L 417.743525 248.823602 
L 418.026917 247.64789 
L 418.31031 244.79259 
L 418.593702 244.624631 
L 419.44388 263.603979 
L 419.727273 270.994168 
L 420.010665 270.994168 
L 420.294058 270.154374 
L 420.57745 268.642744 
L 420.860843 268.810703 
L 421.994413 257.389503 
L 422.277806 256.213791 
L 422.561199 255.541955 
L 422.844591 253.358491 
L 423.127984 254.87012 
L 423.411376 255.709914 
L 423.694769 253.526449 
L 423.978162 252.854614 
L 424.828339 249.15952 
L 425.111732 245.632384 
L 425.395124 244.456672 
L 425.678517 246.30422 
L 425.96191 251.007067 
L 426.528695 264.275815 
L 426.812087 259.23705 
L 427.09548 257.72542 
L 427.378873 260.076844 
L 427.662265 259.405009 
L 428.512443 250.50319 
L 428.795835 248.655643 
L 429.079228 251.007067 
L 429.362621 250.335232 
L 429.646013 249.327479 
L 429.929406 247.144014 
L 430.212798 246.472178 
L 431.062976 248.991561 
L 431.346369 248.487684 
L 431.629761 248.487684 
L 431.913154 249.15952 
L 432.196546 250.671149 
L 432.763332 258.061338 
L 433.613509 263.771938 
L 433.896902 263.603979 
L 434.180295 263.100103 
L 434.463687 260.244803 
L 434.74708 258.901132 
L 435.313865 255.206038 
L 435.597257 255.038079 
L 435.88065 254.366244 
L 436.164043 252.686655 
L 436.447435 248.991561 
L 437.01422 245.464425 
L 437.297613 245.128508 
L 437.864398 247.479931 
L 438.147791 248.319726 
L 438.431183 248.655643 
L 438.714576 247.983808 
L 438.997969 249.495437 
L 439.564754 260.244803 
L 439.848146 259.908885 
L 440.131539 258.229297 
L 440.414931 255.038079 
L 440.698324 254.534202 
L 440.981717 255.373997 
L 441.265109 254.534202 
L 441.548502 250.839108 
L 441.831894 249.15952 
L 442.115287 248.991561 
L 442.39868 249.15952 
L 442.682072 248.655643 
L 442.965465 248.487684 
L 443.248857 247.64789 
L 443.53225 245.968302 
L 443.815642 245.968302 
L 444.099035 245.464425 
L 444.382428 245.968302 
L 444.66582 245.800343 
L 444.949213 246.976055 
L 445.232605 246.808096 
L 445.799391 249.15952 
L 446.082783 251.007067 
L 446.366176 254.030326 
L 446.649568 255.373997 
L 447.499746 243.616878 
L 447.783139 242.609125 
L 448.066531 240.257702 
L 448.633316 234.211184 
L 448.916709 233.875266 
L 449.483494 231.85976 
L 449.766887 228.668542 
L 450.333672 211.536741 
L 450.617064 213.888165 
L 450.900457 210.528988 
L 451.467242 194.572899 
L 452.034027 187.18271 
L 452.31742 185.335163 
L 452.600813 184.831286 
L 452.884205 187.350669 
L 453.45099 189.534134 
L 453.734383 191.213722 
L 454.017776 192.053516 
L 454.584561 191.54964 
L 454.867953 189.030257 
L 455.434738 182.81578 
L 456.284916 176.937221 
L 456.568309 177.273139 
L 457.135094 179.96048 
L 457.985272 187.854545 
L 459.118842 213.888165 
L 459.402235 217.079383 
L 459.685627 218.423053 
L 459.96902 218.255094 
L 460.252412 219.598765 
L 460.819198 223.797736 
L 461.10259 223.965695 
L 461.385983 223.797736 
L 461.669375 222.957942 
L 462.23616 220.102642 
L 462.519553 220.774477 
L 462.802946 220.438559 
L 463.086338 223.125901 
L 463.369731 222.789983 
L 463.653123 219.934683 
L 464.219909 218.423053 
L 464.503301 219.262847 
L 464.786694 220.774477 
L 465.070086 224.63753 
L 465.353479 231.523842 
L 465.636872 234.547101 
L 466.203657 241.93729 
L 466.487049 238.242196 
L 466.770442 238.242196 
L 467.053834 246.30422 
L 467.337227 246.30422 
L 467.62062 245.632384 
L 467.904012 245.800343 
L 468.187405 247.983808 
L 469.037583 240.593619 
L 469.320975 240.593619 
L 469.604368 240.42566 
L 469.88776 239.921784 
L 470.454545 236.730566 
L 471.304723 226.317118 
L 471.588116 224.63753 
L 472.438294 228.836501 
L 472.721686 231.691801 
L 473.005079 235.722813 
L 473.288471 237.066484 
L 473.855256 249.495437 
L 474.138649 252.350738 
L 474.422042 246.976055 
L 474.988827 253.022573 
L 475.272219 251.846861 
L 475.839005 248.319726 
L 476.122397 246.30422 
L 476.40579 245.632384 
L 476.689182 245.464425 
L 476.972575 244.79259 
L 477.53936 241.265455 
L 477.822753 240.089743 
L 478.106145 237.906278 
L 478.389538 238.074237 
L 478.67293 238.914031 
L 478.956323 238.578113 
L 479.239716 238.578113 
L 479.523108 236.058731 
L 480.089893 241.433413 
L 480.373286 245.968302 
L 480.656679 252.518696 
L 480.940071 254.87012 
L 481.223464 251.007067 
L 481.506856 255.206038 
L 481.790249 257.221544 
L 482.923819 249.327479 
L 483.207212 248.151767 
L 483.490604 248.487684 
L 483.773997 248.151767 
L 484.05739 246.976055 
L 484.340782 244.960549 
L 484.624175 244.456672 
L 484.907567 244.288714 
L 485.19096 244.288714 
L 485.474352 247.311973 
L 485.757745 247.64789 
L 486.041138 245.128508 
L 486.32453 240.089743 
L 486.607923 237.402401 
L 486.891315 239.753825 
L 487.174708 240.257702 
L 487.741493 258.901132 
L 488.024886 254.030326 
L 488.591671 257.893379 
L 488.875063 257.221544 
L 489.725241 251.007067 
L 490.008634 249.495437 
L 490.292026 247.311973 
L 490.575419 246.808096 
L 490.858812 246.640137 
L 491.142204 245.800343 
L 491.708989 242.105249 
L 491.992382 241.433413 
L 492.275775 241.93729 
L 492.559167 241.433413 
L 492.84256 240.089743 
L 493.125952 240.593619 
L 493.409345 245.632384 
L 493.692737 246.808096 
L 493.97613 250.50319 
L 494.259523 248.823602 
L 494.542915 253.862367 
L 494.826308 249.327479 
L 495.1097 248.991561 
L 495.676486 250.167273 
L 495.959878 248.655643 
L 496.243271 244.456672 
L 496.526663 243.113002 
L 496.810056 244.288714 
L 497.093448 244.624631 
L 497.376841 244.120755 
L 497.943626 244.960549 
L 498.227019 242.945043 
L 498.510411 243.113002 
L 498.793804 243.784837 
L 499.077197 243.952796 
L 499.643982 245.128508 
L 500.210767 247.815849 
L 500.494159 250.167273 
L 500.777552 255.038079 
L 501.060945 257.557461 
L 501.344337 255.038079 
L 501.911122 238.746072 
L 502.477908 201.795129 
L 502.7613 195.244734 
L 503.611478 134.443636 
L 503.89487 128.733036 
L 504.178263 128.22916 
L 504.461656 130.748542 
L 504.745048 129.068954 
L 505.028441 130.580583 
L 505.311833 131.420377 
L 506.162011 144.185249 
L 506.728796 146.200755 
L 507.295582 150.903602 
L 507.578974 147.208508 
L 508.145759 150.903602 
L 508.429152 148.216261 
L 508.995937 152.58319 
L 509.27933 154.262779 
L 509.562722 157.286038 
L 509.846115 156.782161 
L 510.4129 163.164597 
L 510.696293 164.004391 
L 510.979685 166.355815 
L 511.54647 174.753756 
L 511.829863 176.097427 
L 512.113255 175.593551 
L 512.396648 179.288645 
L 512.680041 181.304151 
L 513.246826 191.885557 
L 513.530218 190.03801 
L 513.813611 189.702093 
L 514.097004 188.862298 
L 514.380396 193.901063 
L 514.663789 194.740858 
L 514.947181 198.267993 
L 515.230574 194.40494 
L 515.513966 198.77187 
L 515.797359 199.779623 
L 516.080752 198.77187 
L 516.364144 197.26024 
L 524.865922 217.919177 
L 525.149314 218.255094 
L 525.7161 215.567753 
L 525.999492 218.087136 
L 526.566277 230.180172 
L 526.84967 227.996707 
L 527.133062 222.118148 
L 527.416455 221.446312 
L 527.98324 224.805489 
L 528.266633 230.012213 
L 528.550025 230.180172 
L 528.833418 223.629777 
L 529.116811 222.622024 
L 529.400203 223.125901 
L 529.683596 223.965695 
L 529.966988 223.965695 
L 530.250381 227.324871 
L 530.533773 227.156913 
L 531.100559 224.469571 
L 531.383951 224.301612 
L 531.667344 222.789983 
L 531.950736 225.645283 
L 532.517522 220.774477 
L 532.800914 218.758971 
L 533.084307 218.758971 
L 533.651092 222.454065 
L 534.784662 237.906278 
L 535.068055 239.585866 
L 535.351447 235.722813 
L 535.63484 233.539348 
L 535.918233 233.203431 
L 536.485018 229.172419 
L 536.76841 227.324871 
L 537.051803 224.469571 
L 537.335196 225.309365 
L 537.618588 224.63753 
L 537.901981 224.301612 
L 538.185373 221.110395 
L 538.468766 219.262847 
L 538.752158 219.934683 
L 539.035551 219.598765 
L 539.318944 222.286106 
L 539.602336 222.789983 
L 539.885729 223.797736 
L 540.169121 224.133654 
L 540.452514 222.789983 
L 540.735907 218.92693 
L 541.019299 216.911424 
L 541.302692 217.4153 
L 541.586084 219.766724 
L 541.869477 224.133654 
L 542.152869 226.485077 
L 542.436262 225.309365 
L 542.719655 226.485077 
L 543.003047 226.820995 
L 543.28644 227.828748 
L 543.569832 228.332624 
L 544.42001 227.324871 
L 544.986795 225.309365 
L 545.270188 227.324871 
L 545.55358 227.49283 
L 545.836973 227.828748 
L 546.120366 230.180172 
L 546.403758 231.523842 
L 546.687151 232.195678 
L 546.970543 235.050978 
L 547.537329 238.074237 
L 547.820721 241.93729 
L 548.104114 241.93729 
L 548.387506 245.296467 
L 548.670899 250.50319 
L 548.954292 250.50319 
L 549.521077 247.479931 
L 550.087862 242.273208 
L 550.371254 241.93729 
L 550.93804 236.058731 
L 551.221432 235.890772 
L 551.504825 236.730566 
L 551.788217 235.050978 
L 552.07161 234.71506 
L 552.355003 232.867513 
L 552.638395 233.203431 
L 553.20518 232.363636 
L 553.488573 231.85976 
L 553.771965 231.691801 
L 554.055358 232.195678 
L 554.338751 233.707307 
L 554.622143 236.058731 
L 554.905536 237.234443 
L 555.188928 236.898525 
L 555.755714 234.211184 
L 556.039106 235.722813 
L 556.322499 235.722813 
L 557.172676 230.852007 
L 557.456069 230.516089 
L 557.739462 229.172419 
L 558.589639 222.454065 
L 559.156425 221.278353 
L 559.72321 214.727959 
L 560.006602 212.712453 
L 560.289995 212.880412 
L 560.573388 212.544494 
L 560.85678 210.696947 
L 561.140173 205.154305 
L 561.99035 197.932075 
L 562.273743 187.014751 
L 562.840528 157.621955 
L 563.690706 124.534065 
L 563.974099 118.823465 
L 564.257491 117.815712 
L 564.540884 114.120617 
L 564.824276 112.105111 
L 565.107669 111.433276 
L 565.391061 109.753688 
L 565.674454 106.56247 
L 565.957847 107.234305 
L 566.241239 109.41777 
L 566.524632 110.593482 
L 566.808024 110.761441 
L 567.37481 113.952659 
L 567.658202 113.112864 
L 567.941595 113.952659 
L 568.224987 117.311835 
L 568.50838 123.86223 
L 568.791772 127.221407 
L 569.075165 127.893242 
L 569.358558 127.389365 
L 569.64195 128.22916 
L 569.925343 130.076707 
L 570.208735 130.748542 
L 570.492128 133.099966 
L 570.775521 133.771801 
L 571.342306 138.30669 
L 571.625698 140.658113 
L 572.192483 142.673619 
L 572.759269 143.849331 
L 573.326054 147.712384 
L 573.609446 148.048302 
L 573.892839 148.720137 
L 575.026409 167.195609 
L 575.309802 176.097427 
L 575.593195 180.632316 
L 575.876587 180.968233 
L 576.726765 173.410086 
L 577.010157 171.226621 
L 577.29355 170.890703 
L 577.576943 170.890703 
L 578.143728 171.730497 
L 578.42712 172.234374 
L 578.710513 172.066415 
L 578.993906 172.570292 
L 579.560691 176.097427 
L 580.410868 185.839039 
L 580.977654 185.839039 
L 581.261046 188.022504 
L 581.827831 195.076775 
L 582.111224 195.244734 
L 582.394617 196.084528 
L 582.961402 194.40494 
L 583.244794 194.40494 
L 583.528187 193.901063 
L 583.811579 192.557393 
L 584.094972 193.733105 
L 584.378365 190.205969 
L 584.661757 188.69434 
L 584.94515 188.022504 
L 585.228542 191.045763 
L 585.511935 191.885557 
L 585.795328 190.03801 
L 586.07872 190.03801 
L 586.362113 190.373928 
L 586.645505 191.381681 
L 586.928898 191.717599 
L 587.495683 194.908816 
L 587.779076 194.069022 
L 588.062468 196.924322 
L 588.345861 195.580652 
L 588.629253 195.244734 
L 588.912646 198.267993 
L 589.196039 203.138799 
L 589.479431 211.872659 
L 589.762824 209.521235 
L 590.329609 202.97084 
L 590.613002 202.131046 
L 590.896394 202.131046 
L 591.179787 199.779623 
L 591.463179 195.748611 
L 591.746572 195.244734 
L 592.029964 194.069022 
L 592.313357 194.572899 
L 592.59675 196.420446 
L 592.880142 194.40494 
L 593.446927 193.565146 
L 594.297105 201.459211 
L 594.86389 199.107787 
L 595.147283 198.77187 
L 595.714068 201.963087 
L 595.997461 204.314511 
L 596.847638 197.596158 
L 597.414424 192.389434 
L 598.264601 181.975986 
L 598.547994 179.456604 
L 599.398172 168.875197 
L 599.681564 167.195609 
L 600.531742 157.789914 
L 600.815135 157.118079 
L 601.098527 160.141338 
L 601.38192 158.629708 
L 601.665312 155.270532 
L 601.948705 158.797667 
L 602.232098 164.676226 
L 602.51549 167.531527 
L 602.798883 166.859691 
L 604.215846 137.970772 
L 604.499238 133.93976 
L 604.782631 131.588336 
L 605.066023 128.22916 
L 605.349416 127.389365 
L 605.632809 127.893242 
L 606.199594 129.908748 
L 606.482986 128.900995 
L 606.766379 129.908748 
L 607.049771 129.068954 
L 607.333164 130.748542 
L 607.899949 138.810566 
L 608.183342 135.619348 
L 608.466734 125.037942 
L 608.750127 122.3506 
L 609.316912 128.900995 
L 609.883697 136.291184 
L 610.450482 132.596089 
L 610.733875 133.771801 
L 611.017268 133.93976 
L 611.30066 134.947513 
L 611.584053 134.611595 
L 611.867445 135.115472 
L 612.150838 137.130978 
L 612.434231 137.634854 
L 612.717623 137.466895 
L 613.284408 140.658113 
L 613.851193 142.50566 
L 614.417979 149.224014 
L 614.984764 161.149091 
L 615.268156 162.492762 
L 615.551549 159.80542 
L 615.834942 160.645214 
L 616.118334 165.012144 
L 616.401727 167.02765 
L 616.685119 168.035403 
L 617.251905 160.813173 
L 618.102082 161.652967 
L 618.385475 165.348062 
L 619.235653 161.988885 
L 619.519045 163.332556 
L 619.802438 162.828679 
L 620.08583 159.973379 
L 620.369223 162.156844 
L 620.652616 162.324803 
L 620.936008 163.836432 
L 621.219401 167.867444 
L 621.786186 188.358422 
L 622.069578 192.389434 
L 622.352971 190.205969 
L 622.636364 184.159451 
L 622.636364 184.159451 
" clip-path="url(#p8e39262911)" style="fill: none; stroke: #1f77b4; stroke-width: 1.5; stroke-linecap: square"/>
   </g>
   <g id="line2d_12">
    <path d="M 115.363636 245.391818 
L 115.930422 245.852023 
L 116.213814 249.831355 
L 119.614525 249.867963 
L 120.18131 248.437061 
L 120.464703 248.544856 
L 121.031488 248.409746 
L 121.598273 247.374817 
L 122.165058 247.214321 
L 122.731844 247.201733 
L 123.015236 237.234443 
L 125.565769 237.259921 
L 128.399695 237.362288 
L 128.96648 235.810442 
L 129.249873 235.509716 
L 129.533266 234.340865 
L 129.816658 237.57036 
L 130.100051 236.163918 
L 130.666836 234.96646 
L 130.950229 234.755022 
L 131.800406 234.717144 
L 132.933977 234.857508 
L 133.500762 233.459242 
L 133.784154 233.596394 
L 134.067547 233.501398 
L 134.35094 233.192647 
L 134.917725 232.114939 
L 136.051295 231.659601 
L 136.334688 231.653222 
L 136.61808 241.265455 
L 137.184865 241.093755 
L 138.601828 241.037137 
L 143.13611 241.094308 
L 143.419502 225.813242 
L 148.520569 227.257999 
L 148.803961 226.189558 
L 149.370747 219.975007 
L 149.937532 211.180576 
L 150.220924 227.996707 
L 150.504317 227.981521 
L 152.204672 205.564444 
L 152.771458 200.967938 
L 153.338243 199.075012 
L 154.188421 198.028118 
L 154.471813 197.857857 
L 154.755206 197.475586 
L 156.738954 192.700532 
L 157.022346 188.526381 
L 157.589132 188.10209 
L 158.155917 188.023219 
L 159.57288 188.179652 
L 163.540376 188.794567 
L 163.823768 213.552247 
L 167.791265 213.910367 
L 168.074657 213.69702 
L 170.058405 202.734206 
L 170.341798 201.831355 
L 170.62519 167.699485 
L 171.191976 167.276838 
L 171.758761 167.225071 
L 173.175724 167.460596 
L 177.14322 168.29687 
L 177.426612 193.061269 
L 183.944642 193.986564 
L 184.228035 224.805489 
L 190.746064 225.175607 
L 191.029457 224.133654 
L 197.547486 224.515521 
L 197.830879 239.585866 
L 204.348908 239.697489 
L 204.632301 235.386895 
L 212.000508 236.450159 
L 212.2839 236.272473 
L 212.567293 235.82801 
L 212.850686 230.250903 
L 213.134078 231.288269 
L 213.417471 228.393241 
L 214.267649 216.136228 
L 214.834434 212.549547 
L 215.117826 211.70593 
L 215.401219 211.223093 
L 215.968004 210.86256 
L 216.534789 210.880001 
L 216.818182 210.419034 
L 217.951752 196.190304 
L 218.518537 193.682845 
L 218.80193 193.154641 
L 219.085322 192.892224 
L 219.652108 192.809206 
L 220.502285 193.139767 
L 222.769426 194.493263 
L 229.570848 198.549049 
L 236.088878 202.180533 
L 238.356018 203.386679 
L 238.639411 194.740858 
L 245.15744 198.618527 
L 245.440833 207.673688 
L 250.541899 208.783901 
L 251.108685 208.49458 
L 251.958862 202.829306 
L 252.242255 207.169811 
L 252.80904 205.546004 
L 253.375825 204.827066 
L 253.94261 204.587347 
L 254.792788 204.588821 
L 256.776536 204.973626 
L 258.760284 205.415259 
L 259.043677 214.392041 
L 276.047232 217.377338 
L 287.382936 219.244164 
L 287.666328 247.815849 
L 292.767395 248.318533 
L 293.050787 255.038079 
L 297.301676 254.980728 
L 297.585069 255.218616 
L 297.868461 254.011948 
L 298.718639 244.999513 
L 299.285424 242.306799 
L 299.852209 241.205649 
L 300.418994 240.826911 
L 300.98578 240.745499 
L 302.11935 240.864778 
L 326.491112 244.95842 
L 337.543423 246.414418 
L 339.810564 246.686323 
L 343.211275 166.624549 
L 343.77806 161.724685 
L 344.344845 159.543984 
L 344.628238 159.108499 
L 344.91163 158.931326 
L 345.478415 159.022488 
L 346.328593 159.640345 
L 348.595734 161.820688 
L 350.579482 163.764076 
L 350.862875 194.438532 
L 356.247334 198.239776 
L 356.530726 222.454065 
L 363.048756 225.149234 
L 363.332148 231.523842 
L 369.850178 233.522718 
L 370.13357 241.399822 
L 376.6516 242.590002 
L 376.934992 243.818429 
L 378.068563 244.012327 
L 378.351955 243.871113 
L 378.635348 243.207186 
L 379.202133 239.311288 
L 379.768918 236.282203 
L 380.052311 234.62568 
L 380.902489 227.467035 
L 381.469274 225.043411 
L 382.036059 224.160551 
L 382.602844 223.944181 
L 383.453022 224.073144 
L 383.736414 240.392069 
L 386.286948 240.861265 
L 390.254444 241.625699 
L 390.537836 237.771911 
L 395.35551 239.120474 
L 395.638903 238.79029 
L 396.205688 237.658366 
L 396.772473 237.272858 
L 397.055866 237.218435 
L 397.339259 245.229283 
L 403.857288 246.290274 
L 404.140681 238.779664 
L 411.79228 239.17767 
L 412.075673 247.64789 
L 412.359066 244.624631 
L 417.743525 244.811447 
L 418.026917 249.15952 
L 431.062976 249.431681 
L 431.346369 248.151767 
L 433.896902 248.382373 
L 434.463687 247.731189 
L 435.597257 245.498399 
L 436.164043 245.172977 
L 437.01422 245.106803 
L 437.864398 245.198899 
L 438.147791 246.136261 
L 439.281361 246.322224 
L 439.564754 246.211294 
L 441.265109 241.834462 
L 441.831894 241.420978 
L 442.39868 241.330543 
L 443.53225 241.461362 
L 443.815642 241.531527 
L 444.099035 241.431915 
L 444.382428 240.665351 
L 445.232605 235.927174 
L 445.799391 234.546598 
L 446.082783 234.239088 
L 446.366176 248.151767 
L 447.216353 247.90231 
L 447.499746 247.872671 
L 447.783139 248.151767 
L 448.633316 248.274362 
L 448.916709 247.85978 
L 450.050279 240.850128 
L 450.333672 239.861594 
L 450.617064 237.944718 
L 451.18385 230.027815 
L 451.467242 226.012993 
L 451.750635 206.330017 
L 452.31742 200.732886 
L 452.884205 198.002995 
L 453.45099 196.954234 
L 454.017776 196.172579 
L 454.301168 196.03957 
L 454.867953 196.106768 
L 455.718131 196.577752 
L 458.268664 198.462545 
L 464.503301 203.015625 
L 465.070086 203.415111 
L 465.353479 219.934683 
L 471.588116 223.019257 
L 471.871508 223.153853 
L 472.154901 225.477324 
L 478.67293 226.413206 
L 478.956323 237.57036 
L 485.474352 237.933539 
L 485.757745 243.616878 
L 492.275775 243.862269 
L 492.559167 242.105249 
L 499.077197 242.380178 
L 499.360589 243.616878 
L 500.494159 243.764026 
L 501.62773 242.373183 
L 501.911122 241.161882 
L 502.477908 234.39556 
L 503.044693 228.014228 
L 503.611478 221.706874 
L 504.178263 214.579563 
L 504.745048 211.148866 
L 505.028441 210.273602 
L 505.311833 209.759692 
L 505.595226 209.490586 
L 505.878619 209.382536 
L 506.162011 135.787307 
L 506.445404 135.785533 
L 507.012189 136.113392 
L 507.862367 136.966122 
L 510.979685 140.644471 
L 511.263078 141.101205 
L 511.54647 140.651848 
L 512.396648 134.967503 
L 512.680041 134.14178 
L 512.963433 177.10518 
L 514.663789 177.665706 
L 515.513966 177.92082 
L 516.080752 177.907211 
L 516.364144 177.940734 
L 527.133062 181.390374 
L 533.084307 183.474086 
L 533.367699 218.423053 
L 535.068055 218.741915 
L 536.485018 218.244766 
L 537.051803 217.941234 
L 538.752158 217.812112 
L 539.885729 217.968494 
L 540.169121 222.454065 
L 546.120366 225.242077 
L 546.403758 225.171307 
L 546.687151 224.787663 
L 546.970543 231.019966 
L 550.654647 232.367131 
L 550.93804 232.367893 
L 551.221432 232.17659 
L 551.504825 231.759325 
L 552.355003 229.440752 
L 553.20518 225.533784 
L 553.488573 224.841777 
L 553.771965 232.027719 
L 554.338751 231.663851 
L 555.188928 231.504479 
L 555.472321 230.971488 
L 556.322499 226.547685 
L 556.889284 225.387208 
L 557.456069 225.03356 
L 557.739462 225.13235 
L 558.306247 223.742241 
L 558.589639 221.63995 
L 559.439817 210.678835 
L 560.006602 207.327275 
L 560.289995 206.481249 
L 560.573388 205.990943 
L 560.85678 212.880412 
L 561.423565 210.095963 
L 561.99035 206.899913 
L 562.840528 201.354466 
L 563.407313 197.16201 
L 563.974099 195.35379 
L 564.257491 194.985153 
L 564.540884 194.825999 
L 565.107669 194.872087 
L 565.957847 195.338985 
L 567.091417 196.166563 
L 567.37481 110.089605 
L 571.058913 111.582775 
L 571.625698 111.400817 
L 572.192483 111.009022 
L 573.042661 110.384927 
L 573.609446 110.272823 
L 573.892839 110.299891 
L 574.176232 147.880343 
L 580.694261 155.272234 
L 580.977654 185.671081 
L 587.212291 190.982855 
L 587.495683 191.217047 
L 587.779076 193.733105 
L 593.73032 198.364088 
L 594.297105 198.797318 
L 594.580498 197.764117 
L 594.86389 197.58292 
L 595.147283 196.505237 
L 595.714068 191.573081 
L 596.564246 183.767432 
L 597.131031 181.074157 
L 597.414424 180.27747 
L 597.697816 178.04857 
L 598.831386 161.607959 
L 599.398172 157.997498 
L 599.681564 157.096806 
L 599.964957 156.604596 
L 600.248349 156.393572 
L 600.531742 156.369303 
L 601.098527 156.644247 
L 601.38192 156.446244 
L 602.798883 157.903435 
L 603.082275 158.381347 
L 603.365668 157.753526 
L 603.932453 154.05756 
L 604.782631 146.169261 
L 605.066023 144.520784 
L 605.349416 143.544679 
L 605.632809 142.999412 
L 605.916201 142.761677 
L 606.199594 142.72715 
L 606.766379 143.010234 
L 607.616557 143.819417 
L 607.899949 144.129085 
L 608.183342 133.267925 
L 609.883697 134.181814 
L 610.733875 134.397597 
L 611.30066 134.355135 
L 611.584053 133.934216 
L 612.150838 131.295538 
L 612.434231 129.380449 
L 613.001016 122.788228 
L 614.134586 113.738397 
L 614.701371 111.732861 
L 614.984764 147.880343 
L 617.81869 151.06419 
L 621.502793 155.206322 
L 621.786186 164.508268 
L 622.636364 165.396239 
L 622.636364 165.396239 
" clip-path="url(#p8e39262911)" style="fill: none; stroke: #ff7f0e; stroke-width: 1.5; stroke-linecap: square"/>
   </g>
   <g id="patch_3">
    <path d="M 90 288 
L 90 43.2 
" style="fill: none; stroke: #000000; stroke-width: 0.8; stroke-linejoin: miter; stroke-linecap: square"/>
   </g>
   <g id="patch_4">
    <path d="M 648 288 
L 648 43.2 
" style="fill: none; stroke: #000000; stroke-width: 0.8; stroke-linejoin: miter; stroke-linecap: square"/>
   </g>
   <g id="patch_5">
    <path d="M 90 288 
L 648 288 
" style="fill: none; stroke: #000000; stroke-width: 0.8; stroke-linejoin: miter; stroke-linecap: square"/>
   </g>
   <g id="patch_6">
    <path d="M 90 43.2 
L 648 43.2 
" style="fill: none; stroke: #000000; stroke-width: 0.8; stroke-linejoin: miter; stroke-linecap: square"/>
   </g>
   <g id="text_12">
    <!-- ARB083 -->
    <g transform="translate(345.1575 37.2) scale(0.12 -0.12)">
     <defs>
      <path id="DejaVuSans-41" d="M 2188 4044 
L 1331 1722 
L 3047 1722 
L 2188 4044 
z
M 1831 4666 
L 2547 4666 
L 4325 0 
L 3669 0 
L 3244 1197 
L 1141 1197 
L 716 0 
L 50 0 
L 1831 4666 
z
" transform="scale(0.015625)"/>
      <path id="DejaVuSans-52" d="M 2841 2188 
Q 3044 2119 3236 1894 
Q 3428 1669 3622 1275 
L 4263 0 
L 3584 0 
L 2988 1197 
Q 2756 1666 2539 1819 
Q 2322 1972 1947 1972 
L 1259 1972 
L 1259 0 
L 628 0 
L 628 4666 
L 2053 4666 
Q 2853 4666 3247 4331 
Q 3641 3997 3641 3322 
Q 3641 2881 3436 2590 
Q 3231 2300 2841 2188 
z
M 1259 4147 
L 1259 2491 
L 2053 2491 
Q 2509 2491 2742 2702 
Q 2975 2913 2975 3322 
Q 2975 3731 2742 3939 
Q 2509 4147 2053 4147 
L 1259 4147 
z
" transform="scale(0.015625)"/>
      <path id="DejaVuSans-42" d="M 1259 2228 
L 1259 519 
L 2272 519 
Q 2781 519 3026 730 
Q 3272 941 3272 1375 
Q 3272 1813 3026 2020 
Q 2781 2228 2272 2228 
L 1259 2228 
z
M 1259 4147 
L 1259 2741 
L 2194 2741 
Q 2656 2741 2882 2914 
Q 3109 3088 3109 3444 
Q 3109 3797 2882 3972 
Q 2656 4147 2194 4147 
L 1259 4147 
z
M 628 4666 
L 2241 4666 
Q 2963 4666 3353 4366 
Q 3744 4066 3744 3513 
Q 3744 3084 3544 2831 
Q 3344 2578 2956 2516 
Q 3422 2416 3680 2098 
Q 3938 1781 3938 1306 
Q 3938 681 3513 340 
Q 3088 0 2303 0 
L 628 0 
L 628 4666 
z
" transform="scale(0.015625)"/>
     </defs>
     <use xlink:href="#DejaVuSans-41"/>
     <use xlink:href="#DejaVuSans-52" x="68.408203"/>
     <use xlink:href="#DejaVuSans-42" x="137.890625"/>
     <use xlink:href="#DejaVuSans-30" x="206.494141"/>
     <use xlink:href="#DejaVuSans-38" x="270.117188"/>
     <use xlink:href="#DejaVuSans-33" x="333.740234"/>
    </g>
   </g>
   <g id="legend_1">
    <g id="patch_7">
     <path d="M 559.04375 80.55625 
L 641 80.55625 
Q 643 80.55625 643 78.55625 
L 643 50.2 
Q 643 48.2 641 48.2 
L 559.04375 48.2 
Q 557.04375 48.2 557.04375 50.2 
L 557.04375 78.55625 
Q 557.04375 80.55625 559.04375 80.55625 
z
" style="fill: #ffffff; opacity: 0.8; stroke: #cccccc; stroke-linejoin: miter"/>
    </g>
    <g id="line2d_13">
     <path d="M 561.04375 56.298437 
L 571.04375 56.298437 
L 581.04375 56.298437 
" style="fill: none; stroke: #1f77b4; stroke-width: 1.5; stroke-linecap: square"/>
    </g>
    <g id="text_13">
     <!-- measured -->
     <g transform="translate(589.04375 59.798437) scale(0.1 -0.1)">
      <defs>
       <path id="DejaVuSans-6d" d="M 3328 2828 
Q 3544 3216 3844 3400 
Q 4144 3584 4550 3584 
Q 5097 3584 5394 3201 
Q 5691 2819 5691 2113 
L 5691 0 
L 5113 0 
L 5113 2094 
Q 5113 2597 4934 2840 
Q 4756 3084 4391 3084 
Q 3944 3084 3684 2787 
Q 3425 2491 3425 1978 
L 3425 0 
L 2847 0 
L 2847 2094 
Q 2847 2600 2669 2842 
Q 2491 3084 2119 3084 
Q 1678 3084 1418 2786 
Q 1159 2488 1159 1978 
L 1159 0 
L 581 0 
L 581 3500 
L 1159 3500 
L 1159 2956 
Q 1356 3278 1631 3431 
Q 1906 3584 2284 3584 
Q 2666 3584 2933 3390 
Q 3200 3197 3328 2828 
z
" transform="scale(0.015625)"/>
       <path id="DejaVuSans-61" d="M 2194 1759 
Q 1497 1759 1228 1600 
Q 959 1441 959 1056 
Q 959 750 1161 570 
Q 1363 391 1709 391 
Q 2188 391 2477 730 
Q 2766 1069 2766 1631 
L 2766 1759 
L 2194 1759 
z
M 3341 1997 
L 3341 0 
L 2766 0 
L 2766 531 
Q 2569 213 2275 61 
Q 1981 -91 1556 -91 
Q 1019 -91 701 211 
Q 384 513 384 1019 
Q 384 1609 779 1909 
Q 1175 2209 1959 2209 
L 2766 2209 
L 2766 2266 
Q 2766 2663 2505 2880 
Q 2244 3097 1772 3097 
Q 1472 3097 1187 3025 
Q 903 2953 641 2809 
L 641 3341 
Q 956 3463 1253 3523 
Q 1550 3584 1831 3584 
Q 2591 3584 2966 3190 
Q 3341 2797 3341 1997 
z
" transform="scale(0.015625)"/>
       <path id="DejaVuSans-75" d="M 544 1381 
L 544 3500 
L 1119 3500 
L 1119 1403 
Q 1119 906 1312 657 
Q 1506 409 1894 409 
Q 2359 409 2629 706 
Q 2900 1003 2900 1516 
L 2900 3500 
L 3475 3500 
L 3475 0 
L 2900 0 
L 2900 538 
Q 2691 219 2414 64 
Q 2138 -91 1772 -91 
Q 1169 -91 856 284 
Q 544 659 544 1381 
z
M 1991 3584 
L 1991 3584 
z
" transform="scale(0.015625)"/>
       <path id="DejaVuSans-64" d="M 2906 2969 
L 2906 4863 
L 3481 4863 
L 3481 0 
L 2906 0 
L 2906 525 
Q 2725 213 2448 61 
Q 2172 -91 1784 -91 
Q 1150 -91 751 415 
Q 353 922 353 1747 
Q 353 2572 751 3078 
Q 1150 3584 1784 3584 
Q 2172 3584 2448 3432 
Q 2725 3281 2906 2969 
z
M 947 1747 
Q 947 1113 1208 752 
Q 1469 391 1925 391 
Q 2381 391 2643 752 
Q 2906 1113 2906 1747 
Q 2906 2381 2643 2742 
Q 2381 3103 1925 3103 
Q 1469 3103 1208 2742 
Q 947 2381 947 1747 
z
" transform="scale(0.015625)"/>
      </defs>
      <use xlink:href="#DejaVuSans-6d"/>
      <use xlink:href="#DejaVuSans-65" x="97.412109"/>
      <use xlink:href="#DejaVuSans-61" x="158.935547"/>
      <use xlink:href="#DejaVuSans-73" x="220.214844"/>
      <use xlink:href="#DejaVuSans-75" x="272.314453"/>
      <use xlink:href="#DejaVuSans-72" x="335.693359"/>
      <use xlink:href="#DejaVuSans-65" x="374.556641"/>
      <use xlink:href="#DejaVuSans-64" x="436.080078"/>
     </g>
    </g>
    <g id="line2d_14">
     <path d="M 561.04375 70.976562 
L 571.04375 70.976562 
L 581.04375 70.976562 
" style="fill: none; stroke: #ff7f0e; stroke-width: 1.5; stroke-linecap: square"/>
    </g>
    <g id="text_14">
     <!-- predicted -->
     <g transform="translate(589.04375 74.476562) scale(0.1 -0.1)">
      <defs>
       <path id="DejaVuSans-70" d="M 1159 525 
L 1159 -1331 
L 581 -1331 
L 581 3500 
L 1159 3500 
L 1159 2969 
Q 1341 3281 1617 3432 
Q 1894 3584 2278 3584 
Q 2916 3584 3314 3078 
Q 3713 2572 3713 1747 
Q 3713 922 3314 415 
Q 2916 -91 2278 -91 
Q 1894 -91 1617 61 
Q 1341 213 1159 525 
z
M 3116 1747 
Q 3116 2381 2855 2742 
Q 2594 3103 2138 3103 
Q 1681 3103 1420 2742 
Q 1159 2381 1159 1747 
Q 1159 1113 1420 752 
Q 1681 391 2138 391 
Q 2594 391 2855 752 
Q 3116 1113 3116 1747 
z
" transform="scale(0.015625)"/>
       <path id="DejaVuSans-69" d="M 603 3500 
L 1178 3500 
L 1178 0 
L 603 0 
L 603 3500 
z
M 603 4863 
L 1178 4863 
L 1178 4134 
L 603 4134 
L 603 4863 
z
" transform="scale(0.015625)"/>
       <path id="DejaVuSans-63" d="M 3122 3366 
L 3122 2828 
Q 2878 2963 2633 3030 
Q 2388 3097 2138 3097 
Q 1578 3097 1268 2742 
Q 959 2388 959 1747 
Q 959 1106 1268 751 
Q 1578 397 2138 397 
Q 2388 397 2633 464 
Q 2878 531 3122 666 
L 3122 134 
Q 2881 22 2623 -34 
Q 2366 -91 2075 -91 
Q 1284 -91 818 406 
Q 353 903 353 1747 
Q 353 2603 823 3093 
Q 1294 3584 2113 3584 
Q 2378 3584 2631 3529 
Q 2884 3475 3122 3366 
z
" transform="scale(0.015625)"/>
      </defs>
      <use xlink:href="#DejaVuSans-70"/>
      <use xlink:href="#DejaVuSans-72" x="63.476562"/>
      <use xlink:href="#DejaVuSans-65" x="102.339844"/>
      <use xlink:href="#DejaVuSans-64" x="163.863281"/>
      <use xlink:href="#DejaVuSans-69" x="227.339844"/>
      <use xlink:href="#DejaVuSans-63" x="255.123047"/>
      <use xlink:href="#DejaVuSans-74" x="310.103516"/>
      <use xlink:href="#DejaVuSans-65" x="349.3125"/>
      <use xlink:href="#DejaVuSans-64" x="410.835938"/>
     </g>
    </g>
   </g>
  </g>
 </g>
 <defs>
  <clipPath id="p8e39262911">
   <rect x="90" y="43.2" width="558" height="244.8"/>
  </clipPath>
 </defs>
</svg>
