<?xml version="1.0" encoding="utf-8" standalone="no"?>
<!DOCTYPE svg PUBLIC "-//W3C//DTD SVG 1.1//EN"
  "http://www.w3.org/Graphics/SVG/1.1/DTD/svg11.dtd">
<svg xmlns:xlink="http://www.w3.org/1999/xlink" width="712.96pt" height="351.43625pt" viewBox="0 0 712.96 351.43625" xmlns="http://www.w3.org/2000/svg" version="1.1">
 <metadata>
  <rdf:RDF xmlns:dc="http://purl.org/dc/elements/1.1/" xmlns:cc="http://creativecommons.org/ns#" xmlns:rdf="http://www.w3.org/1999/02/22-rdf-syntax-ns#">
   <cc:Work>
    <dc:type rdf:resource="http://purl.org/dc/dcmitype/StillImage"/>
    <dc:date>2023-08-17T16:44:03.280347</dc:date>
    <dc:format>image/svg+xml</dc:format>
    <dc:creator>
     <cc:Agent>
      <dc:title>Matplotlib v3.7.1, https://matplotlib.org/</dc:title>
     </cc:Agent>
    </dc:creator>
   </cc:Work>
  </rdf:RDF>
 </metadata>
 <defs>
  <style type="text/css">*{stroke-linejoin: round; stroke-linecap: butt}</style>
 </defs>
 <g id="figure_1">
  <g id="patch_1">
   <path d="M 0 351.43625 
L 712.96 351.43625 
L 712.96 0 
L 0 0 
z
" style="fill: #ffffff"/>
  </g>
  <g id="axes_1">
   <g id="patch_2">
    <path d="M 39.65 327.558125 
L 705.76 327.558125 
L 705.76 22.318125 
L 39.65 22.318125 
z
" style="fill: #ffffff"/>
   </g>
   <g id="matplotlib.axis_1">
    <g id="xtick_1">
     <g id="line2d_1">
      <defs>
       <path id="m10fab65c94" d="M 0 0 
L 0 3.5 
" style="stroke: #000000; stroke-width: 0.8"/>
      </defs>
      <g>
       <use xlink:href="#m10fab65c94" x="100.77427" y="327.558125" style="stroke: #000000; stroke-width: 0.8"/>
      </g>
     </g>
     <g id="text_1">
      <!-- 2015 -->
      <g transform="translate(88.04927 342.156563) scale(0.1 -0.1)">
       <defs>
        <path id="DejaVuSans-32" d="M 1228 531 
L 3431 531 
L 3431 0 
L 469 0 
L 469 531 
Q 828 903 1448 1529 
Q 2069 2156 2228 2338 
Q 2531 2678 2651 2914 
Q 2772 3150 2772 3378 
Q 2772 3750 2511 3984 
Q 2250 4219 1831 4219 
Q 1534 4219 1204 4116 
Q 875 4013 500 3803 
L 500 4441 
Q 881 4594 1212 4672 
Q 1544 4750 1819 4750 
Q 2544 4750 2975 4387 
Q 3406 4025 3406 3419 
Q 3406 3131 3298 2873 
Q 3191 2616 2906 2266 
Q 2828 2175 2409 1742 
Q 1991 1309 1228 531 
z
" transform="scale(0.015625)"/>
        <path id="DejaVuSans-30" d="M 2034 4250 
Q 1547 4250 1301 3770 
Q 1056 3291 1056 2328 
Q 1056 1369 1301 889 
Q 1547 409 2034 409 
Q 2525 409 2770 889 
Q 3016 1369 3016 2328 
Q 3016 3291 2770 3770 
Q 2525 4250 2034 4250 
z
M 2034 4750 
Q 2819 4750 3233 4129 
Q 3647 3509 3647 2328 
Q 3647 1150 3233 529 
Q 2819 -91 2034 -91 
Q 1250 -91 836 529 
Q 422 1150 422 2328 
Q 422 3509 836 4129 
Q 1250 4750 2034 4750 
z
" transform="scale(0.015625)"/>
        <path id="DejaVuSans-31" d="M 794 531 
L 1825 531 
L 1825 4091 
L 703 3866 
L 703 4441 
L 1819 4666 
L 2450 4666 
L 2450 531 
L 3481 531 
L 3481 0 
L 794 0 
L 794 531 
z
" transform="scale(0.015625)"/>
        <path id="DejaVuSans-35" d="M 691 4666 
L 3169 4666 
L 3169 4134 
L 1269 4134 
L 1269 2991 
Q 1406 3038 1543 3061 
Q 1681 3084 1819 3084 
Q 2600 3084 3056 2656 
Q 3513 2228 3513 1497 
Q 3513 744 3044 326 
Q 2575 -91 1722 -91 
Q 1428 -91 1123 -41 
Q 819 9 494 109 
L 494 744 
Q 775 591 1075 516 
Q 1375 441 1709 441 
Q 2250 441 2565 725 
Q 2881 1009 2881 1497 
Q 2881 1984 2565 2268 
Q 2250 2553 1709 2553 
Q 1456 2553 1204 2497 
Q 953 2441 691 2322 
L 691 4666 
z
" transform="scale(0.015625)"/>
       </defs>
       <use xlink:href="#DejaVuSans-32"/>
       <use xlink:href="#DejaVuSans-30" x="63.623047"/>
       <use xlink:href="#DejaVuSans-31" x="127.246094"/>
       <use xlink:href="#DejaVuSans-35" x="190.869141"/>
      </g>
     </g>
    </g>
    <g id="xtick_2">
     <g id="line2d_2">
      <g>
       <use xlink:href="#m10fab65c94" x="216.251071" y="327.558125" style="stroke: #000000; stroke-width: 0.8"/>
      </g>
     </g>
     <g id="text_2">
      <!-- 2016 -->
      <g transform="translate(203.526071 342.156563) scale(0.1 -0.1)">
       <defs>
        <path id="DejaVuSans-36" d="M 2113 2584 
Q 1688 2584 1439 2293 
Q 1191 2003 1191 1497 
Q 1191 994 1439 701 
Q 1688 409 2113 409 
Q 2538 409 2786 701 
Q 3034 994 3034 1497 
Q 3034 2003 2786 2293 
Q 2538 2584 2113 2584 
z
M 3366 4563 
L 3366 3988 
Q 3128 4100 2886 4159 
Q 2644 4219 2406 4219 
Q 1781 4219 1451 3797 
Q 1122 3375 1075 2522 
Q 1259 2794 1537 2939 
Q 1816 3084 2150 3084 
Q 2853 3084 3261 2657 
Q 3669 2231 3669 1497 
Q 3669 778 3244 343 
Q 2819 -91 2113 -91 
Q 1303 -91 875 529 
Q 447 1150 447 2328 
Q 447 3434 972 4092 
Q 1497 4750 2381 4750 
Q 2619 4750 2861 4703 
Q 3103 4656 3366 4563 
z
" transform="scale(0.015625)"/>
       </defs>
       <use xlink:href="#DejaVuSans-32"/>
       <use xlink:href="#DejaVuSans-30" x="63.623047"/>
       <use xlink:href="#DejaVuSans-31" x="127.246094"/>
       <use xlink:href="#DejaVuSans-36" x="190.869141"/>
      </g>
     </g>
    </g>
    <g id="xtick_3">
     <g id="line2d_3">
      <g>
       <use xlink:href="#m10fab65c94" x="332.044247" y="327.558125" style="stroke: #000000; stroke-width: 0.8"/>
      </g>
     </g>
     <g id="text_3">
      <!-- 2017 -->
      <g transform="translate(319.319247 342.156563) scale(0.1 -0.1)">
       <defs>
        <path id="DejaVuSans-37" d="M 525 4666 
L 3525 4666 
L 3525 4397 
L 1831 0 
L 1172 0 
L 2766 4134 
L 525 4134 
L 525 4666 
z
" transform="scale(0.015625)"/>
       </defs>
       <use xlink:href="#DejaVuSans-32"/>
       <use xlink:href="#DejaVuSans-30" x="63.623047"/>
       <use xlink:href="#DejaVuSans-31" x="127.246094"/>
       <use xlink:href="#DejaVuSans-37" x="190.869141"/>
      </g>
     </g>
    </g>
    <g id="xtick_4">
     <g id="line2d_4">
      <g>
       <use xlink:href="#m10fab65c94" x="447.521049" y="327.558125" style="stroke: #000000; stroke-width: 0.8"/>
      </g>
     </g>
     <g id="text_4">
      <!-- 2018 -->
      <g transform="translate(434.796049 342.156563) scale(0.1 -0.1)">
       <defs>
        <path id="DejaVuSans-38" d="M 2034 2216 
Q 1584 2216 1326 1975 
Q 1069 1734 1069 1313 
Q 1069 891 1326 650 
Q 1584 409 2034 409 
Q 2484 409 2743 651 
Q 3003 894 3003 1313 
Q 3003 1734 2745 1975 
Q 2488 2216 2034 2216 
z
M 1403 2484 
Q 997 2584 770 2862 
Q 544 3141 544 3541 
Q 544 4100 942 4425 
Q 1341 4750 2034 4750 
Q 2731 4750 3128 4425 
Q 3525 4100 3525 3541 
Q 3525 3141 3298 2862 
Q 3072 2584 2669 2484 
Q 3125 2378 3379 2068 
Q 3634 1759 3634 1313 
Q 3634 634 3220 271 
Q 2806 -91 2034 -91 
Q 1263 -91 848 271 
Q 434 634 434 1313 
Q 434 1759 690 2068 
Q 947 2378 1403 2484 
z
M 1172 3481 
Q 1172 3119 1398 2916 
Q 1625 2713 2034 2713 
Q 2441 2713 2670 2916 
Q 2900 3119 2900 3481 
Q 2900 3844 2670 4047 
Q 2441 4250 2034 4250 
Q 1625 4250 1398 4047 
Q 1172 3844 1172 3481 
z
" transform="scale(0.015625)"/>
       </defs>
       <use xlink:href="#DejaVuSans-32"/>
       <use xlink:href="#DejaVuSans-30" x="63.623047"/>
       <use xlink:href="#DejaVuSans-31" x="127.246094"/>
       <use xlink:href="#DejaVuSans-38" x="190.869141"/>
      </g>
     </g>
    </g>
    <g id="xtick_5">
     <g id="line2d_5">
      <g>
       <use xlink:href="#m10fab65c94" x="562.99785" y="327.558125" style="stroke: #000000; stroke-width: 0.8"/>
      </g>
     </g>
     <g id="text_5">
      <!-- 2019 -->
      <g transform="translate(550.27285 342.156563) scale(0.1 -0.1)">
       <defs>
        <path id="DejaVuSans-39" d="M 703 97 
L 703 672 
Q 941 559 1184 500 
Q 1428 441 1663 441 
Q 2288 441 2617 861 
Q 2947 1281 2994 2138 
Q 2813 1869 2534 1725 
Q 2256 1581 1919 1581 
Q 1219 1581 811 2004 
Q 403 2428 403 3163 
Q 403 3881 828 4315 
Q 1253 4750 1959 4750 
Q 2769 4750 3195 4129 
Q 3622 3509 3622 2328 
Q 3622 1225 3098 567 
Q 2575 -91 1691 -91 
Q 1453 -91 1209 -44 
Q 966 3 703 97 
z
M 1959 2075 
Q 2384 2075 2632 2365 
Q 2881 2656 2881 3163 
Q 2881 3666 2632 3958 
Q 2384 4250 1959 4250 
Q 1534 4250 1286 3958 
Q 1038 3666 1038 3163 
Q 1038 2656 1286 2365 
Q 1534 2075 1959 2075 
z
" transform="scale(0.015625)"/>
       </defs>
       <use xlink:href="#DejaVuSans-32"/>
       <use xlink:href="#DejaVuSans-30" x="63.623047"/>
       <use xlink:href="#DejaVuSans-31" x="127.246094"/>
       <use xlink:href="#DejaVuSans-39" x="190.869141"/>
      </g>
     </g>
    </g>
    <g id="xtick_6">
     <g id="line2d_6">
      <g>
       <use xlink:href="#m10fab65c94" x="678.474651" y="327.558125" style="stroke: #000000; stroke-width: 0.8"/>
      </g>
     </g>
     <g id="text_6">
      <!-- 2020 -->
      <g transform="translate(665.749651 342.156563) scale(0.1 -0.1)">
       <use xlink:href="#DejaVuSans-32"/>
       <use xlink:href="#DejaVuSans-30" x="63.623047"/>
       <use xlink:href="#DejaVuSans-32" x="127.246094"/>
       <use xlink:href="#DejaVuSans-30" x="190.869141"/>
      </g>
     </g>
    </g>
   </g>
   <g id="matplotlib.axis_2">
    <g id="ytick_1">
     <g id="line2d_7">
      <defs>
       <path id="mb7378d78aa" d="M 0 0 
L -3.5 0 
" style="stroke: #000000; stroke-width: 0.8"/>
      </defs>
      <g>
       <use xlink:href="#mb7378d78aa" x="39.65" y="313.646941" style="stroke: #000000; stroke-width: 0.8"/>
      </g>
     </g>
     <g id="text_7">
      <!-- 0 -->
      <g transform="translate(26.2875 317.44616) scale(0.1 -0.1)">
       <use xlink:href="#DejaVuSans-30"/>
      </g>
     </g>
    </g>
    <g id="ytick_2">
     <g id="line2d_8">
      <g>
       <use xlink:href="#mb7378d78aa" x="39.65" y="266.674294" style="stroke: #000000; stroke-width: 0.8"/>
      </g>
     </g>
     <g id="text_8">
      <!-- 1000 -->
      <g transform="translate(7.2 270.473513) scale(0.1 -0.1)">
       <use xlink:href="#DejaVuSans-31"/>
       <use xlink:href="#DejaVuSans-30" x="63.623047"/>
       <use xlink:href="#DejaVuSans-30" x="127.246094"/>
       <use xlink:href="#DejaVuSans-30" x="190.869141"/>
      </g>
     </g>
    </g>
    <g id="ytick_3">
     <g id="line2d_9">
      <g>
       <use xlink:href="#mb7378d78aa" x="39.65" y="219.701648" style="stroke: #000000; stroke-width: 0.8"/>
      </g>
     </g>
     <g id="text_9">
      <!-- 2000 -->
      <g transform="translate(7.2 223.500867) scale(0.1 -0.1)">
       <use xlink:href="#DejaVuSans-32"/>
       <use xlink:href="#DejaVuSans-30" x="63.623047"/>
       <use xlink:href="#DejaVuSans-30" x="127.246094"/>
       <use xlink:href="#DejaVuSans-30" x="190.869141"/>
      </g>
     </g>
    </g>
    <g id="ytick_4">
     <g id="line2d_10">
      <g>
       <use xlink:href="#mb7378d78aa" x="39.65" y="172.729001" style="stroke: #000000; stroke-width: 0.8"/>
      </g>
     </g>
     <g id="text_10">
      <!-- 3000 -->
      <g transform="translate(7.2 176.52822) scale(0.1 -0.1)">
       <defs>
        <path id="DejaVuSans-33" d="M 2597 2516 
Q 3050 2419 3304 2112 
Q 3559 1806 3559 1356 
Q 3559 666 3084 287 
Q 2609 -91 1734 -91 
Q 1441 -91 1130 -33 
Q 819 25 488 141 
L 488 750 
Q 750 597 1062 519 
Q 1375 441 1716 441 
Q 2309 441 2620 675 
Q 2931 909 2931 1356 
Q 2931 1769 2642 2001 
Q 2353 2234 1838 2234 
L 1294 2234 
L 1294 2753 
L 1863 2753 
Q 2328 2753 2575 2939 
Q 2822 3125 2822 3475 
Q 2822 3834 2567 4026 
Q 2313 4219 1838 4219 
Q 1578 4219 1281 4162 
Q 984 4106 628 3988 
L 628 4550 
Q 988 4650 1302 4700 
Q 1616 4750 1894 4750 
Q 2613 4750 3031 4423 
Q 3450 4097 3450 3541 
Q 3450 3153 3228 2886 
Q 3006 2619 2597 2516 
z
" transform="scale(0.015625)"/>
       </defs>
       <use xlink:href="#DejaVuSans-33"/>
       <use xlink:href="#DejaVuSans-30" x="63.623047"/>
       <use xlink:href="#DejaVuSans-30" x="127.246094"/>
       <use xlink:href="#DejaVuSans-30" x="190.869141"/>
      </g>
     </g>
    </g>
    <g id="ytick_5">
     <g id="line2d_11">
      <g>
       <use xlink:href="#mb7378d78aa" x="39.65" y="125.756355" style="stroke: #000000; stroke-width: 0.8"/>
      </g>
     </g>
     <g id="text_11">
      <!-- 4000 -->
      <g transform="translate(7.2 129.555574) scale(0.1 -0.1)">
       <defs>
        <path id="DejaVuSans-34" d="M 2419 4116 
L 825 1625 
L 2419 1625 
L 2419 4116 
z
M 2253 4666 
L 3047 4666 
L 3047 1625 
L 3713 1625 
L 3713 1100 
L 3047 1100 
L 3047 0 
L 2419 0 
L 2419 1100 
L 313 1100 
L 313 1709 
L 2253 4666 
z
" transform="scale(0.015625)"/>
       </defs>
       <use xlink:href="#DejaVuSans-34"/>
       <use xlink:href="#DejaVuSans-30" x="63.623047"/>
       <use xlink:href="#DejaVuSans-30" x="127.246094"/>
       <use xlink:href="#DejaVuSans-30" x="190.869141"/>
      </g>
     </g>
    </g>
    <g id="ytick_6">
     <g id="line2d_12">
      <g>
       <use xlink:href="#mb7378d78aa" x="39.65" y="78.783708" style="stroke: #000000; stroke-width: 0.8"/>
      </g>
     </g>
     <g id="text_12">
      <!-- 5000 -->
      <g transform="translate(7.2 82.582927) scale(0.1 -0.1)">
       <use xlink:href="#DejaVuSans-35"/>
       <use xlink:href="#DejaVuSans-30" x="63.623047"/>
       <use xlink:href="#DejaVuSans-30" x="127.246094"/>
       <use xlink:href="#DejaVuSans-30" x="190.869141"/>
      </g>
     </g>
    </g>
    <g id="ytick_7">
     <g id="line2d_13">
      <g>
       <use xlink:href="#mb7378d78aa" x="39.65" y="31.811062" style="stroke: #000000; stroke-width: 0.8"/>
      </g>
     </g>
     <g id="text_13">
      <!-- 6000 -->
      <g transform="translate(7.2 35.610281) scale(0.1 -0.1)">
       <use xlink:href="#DejaVuSans-36"/>
       <use xlink:href="#DejaVuSans-30" x="63.623047"/>
       <use xlink:href="#DejaVuSans-30" x="127.246094"/>
       <use xlink:href="#DejaVuSans-30" x="190.869141"/>
      </g>
     </g>
    </g>
   </g>
   <g id="line2d_14">
    <path d="M 69.927727 313.613121 
L 72.36645 313.531623 
L 72.405997 313.412195 
L 72.471908 313.505906 
L 72.616913 313.577891 
L 72.94647 313.636607 
L 73.104658 313.636607 
L 73.57922 313.630031 
L 74.528344 313.549825 
L 74.554709 312.515605 
L 74.581073 307.729797 
L 74.660167 312.639612 
L 74.686532 312.809888 
L 74.699714 312.623172 
L 74.752443 307.060436 
L 74.818354 311.21869 
L 75.016089 313.358059 
L 75.240187 313.577891 
L 75.437922 313.602787 
L 75.701567 313.60537 
L 75.727932 313.539726 
L 75.741114 313.425817 
L 75.820208 307.788512 
L 75.859755 310.042025 
L 76.017942 313.205398 
L 76.17613 313.422412 
L 76.202494 313.390353 
L 76.268406 313.466096 
L 76.532051 313.591043 
L 80.407642 313.525282 
L 80.420825 313.464687 
L 80.526283 313.492871 
L 80.697653 313.56286 
L 82.767271 313.460225 
L 82.859547 313.068238 
L 82.978188 313.141045 
L 83.16274 313.436034 
L 83.373656 313.482537 
L 84.652338 313.54548 
L 84.66552 313.171578 
L 84.757796 313.508372 
L 84.876436 313.584467 
L 84.902801 313.570375 
L 85.034624 313.56286 
L 85.205994 313.591043 
L 85.812379 313.583998 
L 85.838743 313.353479 
L 85.917837 313.558515 
L 86.089207 313.602787 
L 86.300123 313.56286 
L 88.699299 313.468562 
L 88.738845 313.190367 
L 88.804757 301.012708 
L 88.883851 310.341476 
L 89.042038 313.124605 
L 89.279319 313.40879 
L 89.885704 313.514008 
L 90.043892 313.570375 
L 90.26799 313.574133 
L 90.492089 313.56286 
L 90.623912 313.577891 
L 90.637094 313.552878 
L 90.663459 313.497803 
L 90.742553 313.587755 
L 90.913922 313.591043 
L 91.032563 313.602787 
L 91.177568 313.615352 
L 92.28488 313.525282 
L 92.429885 313.54043 
L 92.508978 313.298169 
L 92.522161 313.163005 
L 92.588072 304.441711 
L 92.653984 309.075563 
L 92.825353 312.942586 
L 93.088999 313.32283 
L 93.893118 313.492871 
L 95.039977 313.596915 
L 95.554086 313.591043 
L 95.646362 313.502735 
L 95.830914 313.366397 
L 95.857278 312.85921 
L 95.936372 313.251314 
L 96.147289 313.492871 
L 96.437299 313.535381 
L 96.67458 313.48512 
L 97.175507 313.574133 
L 97.346876 313.570375 
L 98.17736 313.466096 
L 98.34873 313.229471 
L 98.401459 313.264114 
L 98.46737 313.185669 
L 98.506917 313.119908 
L 98.572829 313.215732 
L 98.691469 313.318132 
L 98.941933 313.482537 
L 99.508771 313.405149 
L 99.5615 313.094073 
L 99.601047 309.969218 
L 99.614229 305.545569 
L 99.706505 311.186983 
L 99.864693 312.957852 
L 100.062427 313.195064 
L 100.523807 313.422412 
L 101.538842 313.340914 
L 101.578389 312.917925 
L 101.631118 280.473918 
L 101.723394 302.269226 
L 101.894764 308.540075 
L 102.303415 312.2744 
L 102.61979 312.928494 
L 102.73843 313.044752 
L 104.386216 313.293707 
L 104.531221 312.711246 
L 104.570768 312.93554 
L 104.794866 313.336452 
L 105.098059 313.40879 
L 108.617729 313.33105 
L 108.644093 311.868087 
L 108.696822 294.448281 
L 108.775916 305.275476 
L 108.947286 310.131273 
L 109.237296 312.260308 
L 109.43503 312.826329 
L 109.804134 313.115211 
L 110.726894 313.345376 
L 110.766441 313.219607 
L 110.792805 312.559759 
L 110.898264 295.270302 
L 110.950993 303.713635 
L 111.135545 308.939342 
L 111.465102 311.555719 
L 111.636471 312.099427 
L 111.834206 312.626695 
L 112.163763 313.079981 
L 112.440591 313.195064 
L 112.585596 313.195064 
L 113.24471 313.289009 
L 113.41608 313.358059 
L 114.127923 313.466096 
L 114.483845 313.502735 
L 115.393422 313.566618 
L 117.304853 295.070668 
L 117.449858 301.975647 
L 117.476223 301.564637 
L 117.528952 300.131971 
L 117.568499 301.952161 
L 117.726686 305.933093 
L 117.739869 305.733459 
L 117.753051 305.604284 
L 117.766233 305.803918 
L 117.779415 305.674743 
L 117.937603 308.85714 
L 118.069426 309.545289 
L 118.122155 309.413766 
L 118.135337 309.413766 
L 118.188066 308.845397 
L 118.227613 309.315123 
L 118.346254 310.864046 
L 118.372618 310.838211 
L 118.425347 310.524669 
L 118.451712 310.894579 
L 118.478076 310.838211 
L 118.504441 310.799459 
L 118.543988 310.902799 
L 118.89991 312.383612 
L 118.913092 312.328419 
L 118.939456 312.084161 
L 118.979003 312.560933 
L 119.005368 312.444676 
L 119.01855 312.455245 
L 119.031732 312.400052 
L 119.044915 312.23095 
L 119.110826 312.420015 
L 119.137191 312.396529 
L 119.30856 312.664273 
L 119.321743 312.645484 
L 119.532659 312.537447 
L 119.598571 312.58442 
L 119.638117 312.537447 
L 119.690847 312.383612 
L 119.756758 310.993221 
L 119.809487 308.739709 
L 119.875398 309.507711 
L 120.007221 311.019056 
L 120.033586 310.562247 
L 120.086315 301.447205 
L 120.178591 306.074011 
L 120.257685 307.177868 
L 120.284049 306.837316 
L 120.323596 297.548475 
L 120.442237 219.503423 
L 120.481784 140.119651 
L 120.547695 215.980475 
L 120.560877 215.510748 
L 120.600424 197.073985 
L 120.639971 218.798834 
L 120.798158 295.599111 
L 121.022257 300.190687 
L 121.233174 303.349597 
L 121.246356 303.267395 
L 121.259538 302.832898 
L 121.312267 304.359509 
L 121.523184 306.837316 
L 121.549548 306.520251 
L 121.655007 302.598035 
L 121.694554 298.487928 
L 121.760465 301.987391 
L 121.865923 304.359509 
L 121.892288 303.87804 
L 121.971382 289.786246 
L 122.07684 294.401308 
L 122.182298 301.599866 
L 122.208663 301.235828 
L 122.248209 298.253065 
L 122.300939 301.7995 
L 122.340485 302.785926 
L 122.36685 302.128309 
L 122.419579 282.22365 
L 122.498673 187.796887 
L 122.525037 253.793455 
L 122.65686 298.86371 
L 122.973235 304.747034 
L 123.263245 306.719885 
L 123.342339 306.943005 
L 123.395068 306.825573 
L 123.421433 305.181531 
L 123.57962 185.800549 
L 123.619167 234.064944 
L 123.724625 287.226236 
L 123.764172 284.93632 
L 123.935542 299.004628 
L 124.159641 303.114734 
L 124.199187 303.983728 
L 124.410104 306.625939 
L 124.423286 306.625939 
L 124.607838 307.635851 
L 124.726479 308.070348 
L 124.911031 308.845397 
L 125.767879 312.889742 
L 125.860155 312.982513 
L 126.150165 313.238161 
L 126.308353 313.293941 
L 126.492905 313.345376 
L 127.283842 313.4513 
L 127.402482 313.485472 
L 127.428847 313.157486 
L 127.468394 300.6839 
L 127.481576 293.168276 
L 127.56067 304.077673 
L 127.745222 310.287457 
L 127.982503 312.127611 
L 128.02205 312.2744 
L 128.193419 312.834549 
L 128.457065 313.119908 
L 128.575705 313.162183 
L 128.89208 313.268341 
L 129.06345 313.336452 
L 129.683017 313.318132 
L 129.6962 312.847701 
L 129.735746 263.305416 
L 129.81484 303.267395 
L 129.828022 302.903357 
L 129.841205 297.313612 
L 129.920298 305.533825 
L 130.038939 308.446129 
L 130.052121 306.543737 
L 130.091668 128.963647 
L 130.157579 284.431364 
L 130.170762 284.114299 
L 130.342131 302.198767 
L 130.645324 307.177868 
L 130.671688 307.283556 
L 130.90897 308.340441 
L 130.961699 308.504845 
L 131.053975 308.798424 
L 131.067157 308.751452 
L 131.080339 307.541906 
L 131.119886 269.987275 
L 131.185798 302.081336 
L 131.343985 306.520251 
L 131.357167 306.531994 
L 131.699907 309.831823 
L 132.134922 311.869261 
L 132.148104 311.81994 
L 132.174469 309.942208 
L 132.200833 304.817493 
L 132.279927 309.897584 
L 132.438114 312.037188 
L 132.728125 312.654879 
L 132.978588 312.748824 
L 133.176322 312.842769 
L 133.281781 312.889742 
L 133.294963 312.789925 
L 133.347692 267.039742 
L 133.374057 222.439214 
L 133.426786 287.825138 
L 133.45315 278.80639 
L 133.505879 174.409683 
L 133.558608 283.30402 
L 133.703614 300.131971 
L 133.927712 302.821155 
L 133.954077 303.149964 
L 134.244087 306.837316 
L 135.048207 311.067203 
L 135.061389 310.933331 
L 135.087753 309.066168 
L 135.1273 303.678406 
L 135.193212 307.999889 
L 135.206394 307.858971 
L 135.351399 292.205337 
L 135.311852 307.976403 
L 135.377764 297.196181 
L 135.535951 307.400988 
L 135.773232 310.01619 
L 135.905055 310.596302 
L 135.931419 310.421329 
L 135.970966 310.000924 
L 136.036878 310.393146 
L 136.129154 310.98735 
L 136.142336 310.938028 
L 136.155518 309.983309 
L 136.247794 310.812377 
L 136.537805 312.357777 
L 136.906908 312.842769 
L 137.038731 312.850989 
L 137.170554 312.896788 
L 138.040585 313.238396 
L 138.910615 313.40879 
L 141.07251 313.519645 
L 141.270244 313.500269 
L 141.283426 312.139354 
L 141.375702 313.283607 
L 141.599801 313.471733 
L 141.902994 313.495689 
L 141.955723 313.156312 
L 142.021634 313.386478 
L 142.074363 313.422412 
L 142.087546 313.354536 
L 142.153457 312.730035 
L 142.179822 311.157625 
L 142.258915 313.062366 
L 142.430285 313.425817 
L 143.010306 313.525282 
L 143.155311 313.525282 
L 143.537597 313.454353 
L 143.550779 312.050106 
L 143.643055 313.251314 
L 143.708967 313.374617 
L 143.735331 313.289009 
L 143.761696 312.606732 
L 143.78806 303.514002 
L 143.867154 311.125919 
L 144.025341 312.821631 
L 144.078071 306.449792 
L 144.143982 310.784193 
L 144.157164 311.219864 
L 144.170347 310.834689 
L 144.223076 298.006459 
L 144.288987 306.203186 
L 144.302169 305.803918 
L 144.341716 307.74154 
L 144.486721 309.881144 
L 144.53945 308.939342 
L 144.59218 310.081952 
L 144.644909 310.678504 
L 144.684456 309.796593 
L 144.724002 310.113658 
L 144.921737 311.324378 
L 144.974466 311.516966 
L 144.987648 311.336122 
L 145.066742 306.10924 
L 145.119471 308.774938 
L 145.304023 311.367828 
L 145.659945 312.701851 
L 146.200418 313.32283 
L 146.2136 313.313435 
L 146.371788 313.366397 
L 146.477246 313.32283 
L 146.622251 313.234051 
L 146.833168 313.349604 
L 147.057267 313.394228 
L 147.347277 313.429223 
L 147.861386 313.448247 
L 148.151396 313.474199 
L 148.164578 313.288774 
L 148.256854 313.412195 
L 148.586411 313.463278 
L 149.021427 313.482537 
L 152.066534 313.581179 
L 152.211539 313.581179 
L 152.422456 313.591043 
L 153.674773 313.558515 
L 153.780231 311.68137 
L 153.819778 312.896788 
L 153.977965 313.454353 
L 153.991148 312.805191 
L 154.083424 313.382367 
L 154.267975 313.497803 
L 154.373434 313.396929 
L 154.505257 312.973588 
L 154.531621 268.460664 
L 154.623897 299.955824 
L 154.782085 308.935819 
L 155.138006 310.955643 
L 155.256647 311.293846 
L 155.441199 312.189849 
L 155.454381 312.175758 
L 155.612568 312.396529 
L 155.757573 312.495172 
L 155.902579 312.692457 
L 156.126677 312.793448 
L 156.298047 312.86743 
L 156.403505 312.842769 
L 156.416688 312.86743 
L 156.640786 312.903834 
L 156.680333 312.85921 
L 156.759427 312.912054 
L 156.864885 312.912054 
L 156.878068 312.93554 
L 157.00989 312.996605 
L 157.088984 312.957852 
L 157.128531 312.988384 
L 158.433577 313.03066 
L 158.446759 311.006139 
L 158.486306 195.664805 
L 158.552218 302.668494 
L 158.723587 309.001581 
L 158.789499 309.432555 
L 158.802681 309.357399 
L 158.829045 305.686486 
L 158.908139 309.182426 
L 158.947686 309.636886 
L 158.974051 238.997072 
L 159.053144 303.255652 
L 159.224514 305.616028 
L 159.369519 306.849059 
L 159.593618 309.582868 
L 159.804534 310.465953 
L 160.028633 310.871092 
L 160.054998 310.48944 
L 160.094545 210.108894 
L 160.160456 301.7995 
L 160.186821 303.584461 
L 160.213185 302.527576 
L 160.23955 273.850775 
L 160.318643 301.388489 
L 160.476831 303.502258 
L 160.582289 304.476941 
L 160.608654 304.723547 
L 160.648201 304.406482 
L 160.661383 303.971985 
L 160.687747 215.745612 
L 160.70093 170.651871 
L 160.753659 292.416714 
L 160.766841 288.001285 
L 160.780023 284.959806 
L 160.81957 298.570131 
L 160.964575 304.06593 
L 161.254586 306.802087 
L 161.557778 309.271674 
L 161.795059 309.946906 
L 161.979611 310.569293 
L 162.085069 310.667936 
L 162.414627 311.600343 
L 162.506903 311.83638 
L 162.876006 312.946109 
L 163.047376 313.101119 
L 163.429662 313.430397 
L 164.022865 313.539843 
L 164.154688 313.574133 
L 164.16787 313.193068 
L 164.207417 237.705324 
L 164.286511 305.569055 
L 164.418334 310.195861 
L 164.431516 308.234753 
L 164.444698 300.613441 
L 164.536974 309.834171 
L 164.721526 312.485777 
L 164.998354 313.040054 
L 165.011536 312.153446 
L 165.051083 220.795171 
L 165.116995 303.39657 
L 165.275182 308.305212 
L 166.000208 312.711246 
L 166.13203 312.934366 
L 166.145213 311.950289 
L 166.18476 285.182926 
L 166.250671 308.011632 
L 166.422041 311.266837 
L 166.896603 312.876824 
L 167.081155 313.071761 
L 167.160248 313.129302 
L 167.173431 313.138697 
L 167.186613 313.013045 
L 167.22616 309.056774 
L 167.292071 312.632567 
L 167.437076 313.185669 
L 168.491659 313.444959 
L 169.295778 313.380958 
L 169.322143 313.102293 
L 169.348508 312.33429 
L 169.427601 312.981338 
L 169.849434 313.460929 
L 171.009475 313.475021 
L 171.114933 312.913228 
L 171.15448 312.946109 
L 171.299485 313.027137 
L 171.444491 313.421237 
L 171.721318 313.465274 
L 171.747683 313.397046 
L 171.826777 313.460225 
L 172.156334 313.493575 
L 172.380433 313.516944 
L 172.499073 313.517766 
L 172.630896 313.538904 
L 186.419564 313.568849 
L 186.432747 313.242741 
L 186.525023 313.584467 
L 186.577752 313.607954 
L 186.630481 313.532797 
L 186.670028 313.439087 
L 186.749121 313.495337 
L 187.184137 313.613121 
L 193.709367 313.622045 
L 193.722549 313.347843 
L 193.814825 313.602787 
L 194.078471 313.630031 
L 195.462611 313.535381 
L 195.660345 313.318132 
L 195.884444 313.445193 
L 196.187636 313.577891 
L 198.613176 313.523168 
L 198.679088 313.205398 
L 198.731817 313.419006 
L 198.86364 313.487704 
L 199.509572 313.622045 
L 199.852311 313.622045 
L 202.106481 313.552878 
L 202.132846 313.405619 
L 202.146028 312.165189 
L 202.185575 214.453864 
L 202.251486 301.928675 
L 202.396492 308.434386 
L 202.409674 308.140807 
L 202.436038 274.719769 
L 202.462403 154.328876 
L 202.541497 297.23141 
L 202.699684 304.171619 
L 203.437892 313.242741 
L 203.661991 313.497803 
L 205.072495 313.65199 
L 205.547057 313.574251 
L 205.573422 313.313787 
L 205.626151 302.879871 
L 205.718427 275.588763 
L 205.757974 284.196501 
L 205.797521 277.43244 
L 205.823885 285.476505 
L 205.96889 304.042444 
L 206.113895 307.354015 
L 206.153442 306.943005 
L 206.179807 304.805749 
L 206.258901 307.03695 
L 206.548911 310.719606 
L 207.287119 313.278675 
L 207.748499 313.378727 
L 207.972597 313.436034 
L 210.160856 313.52904 
L 210.279497 313.534676 
L 210.543143 313.530331 
L 210.595872 313.599264 
L 210.635419 313.490287 
L 210.674965 313.447307 
L 210.767241 312.572676 
L 210.819971 313.074109 
L 211.004523 313.422412 
L 211.9141 313.54548 
L 213.311422 313.44214 
L 213.430063 313.471733 
L 213.627797 313.527278 
L 213.640979 313.365927 
L 213.667344 277.315008 
L 213.706891 185.565686 
L 213.75962 288.189176 
L 213.904625 303.302625 
L 214.234182 308.85714 
L 214.497828 311.309112 
L 214.524192 308.653983 
L 214.603286 245.808105 
L 214.656015 281.9653 
L 214.80102 303.643176 
L 214.814202 303.760608 
L 214.827385 300.930506 
L 214.866932 76.471715 
L 214.946025 250.035644 
L 215.051484 284.854118 
L 215.077848 258.302829 
L 215.117395 113.345242 
L 215.183306 268.96562 
L 215.209671 182.395033 
L 215.236035 76.471715 
L 215.301947 268.07314 
L 215.460134 294.647915 
L 215.671051 300.155457 
L 216.01379 302.233997 
L 216.171978 302.962073 
L 216.949732 308.469616 
L 217.22656 310.256925 
L 217.239743 310.241659 
L 217.279289 310.363788 
L 217.635211 312.288492 
L 217.846128 312.537447 
L 217.85931 312.526878 
L 218.267961 312.63609 
L 218.399783 312.664273 
L 218.637065 312.572676 
L 218.729341 312.537447 
L 218.768887 312.560933 
L 218.927075 312.626695 
L 218.966622 312.456419 
L 219.019351 311.570985 
L 219.045715 299.192518 
L 219.085262 200.831796 
L 219.164356 275.072064 
L 219.296179 301.470691 
L 219.480731 304.441711 
L 219.849835 307.494933 
L 220.218939 309.214132 
L 220.693501 310.955643 
L 221.023058 311.542801 
L 221.220792 311.987867 
L 221.313068 312.068895 
L 221.734901 313.144568 
L 221.866724 313.200231 
L 221.879906 313.17557 
L 221.893089 313.135174 
L 221.932635 313.195064 
L 221.985365 313.200231 
L 222.354468 313.233816 
L 222.473109 313.234051 
L 222.486291 313.278675 
L 222.552203 313.195064 
L 222.565385 313.195064 
L 224.107712 313.124605 
L 224.160441 312.283795 
L 224.292264 309.182426 
L 224.318629 309.672116 
L 224.529545 312.084161 
L 224.727279 312.809888 
L 225.004107 312.982513 
L 225.149112 312.988384 
L 225.42594 313.134 
L 226.098237 313.233464 
L 226.111419 313.260121 
L 226.124601 313.205281 
L 226.190513 313.195064 
L 226.69144 313.091724 
L 226.796898 312.777007 
L 226.849627 312.850989 
L 227.337372 313.289009 
L 228.536959 313.397634 
L 228.906063 313.386478 
L 229.077433 313.405149 
L 229.248803 313.40879 
L 230.817494 313.308738 
L 230.962499 313.268341 
L 231.015229 313.233582 
L 231.028411 313.195534 
L 231.067958 312.632567 
L 231.107505 305.052356 
L 231.120687 303.373084 
L 231.186598 307.905944 
L 231.37115 311.130616 
L 231.687525 312.316676 
L 232.148905 313.044752 
L 232.570738 313.115211 
L 232.676196 313.170873 
L 232.702561 313.151614 
L 233.21667 313.251431 
L 233.322128 313.264114 
L 233.33531 313.229237 
L 233.374857 312.726512 
L 233.401222 305.498596 
L 233.440769 260.604489 
L 233.519862 288.435782 
L 233.546227 285.969718 
L 233.585774 290.87836 
L 233.770326 305.604284 
L 233.994425 308.493102 
L 234.416258 310.43777 
L 234.969914 311.851646 
L 235.022643 311.938546 
L 235.246741 312.408272 
L 235.259924 312.396529 
L 235.299471 312.443502 
L 235.312653 312.431759 
L 235.510387 307.823742 
L 235.549934 309.19182 
L 235.734486 311.792931 
L 236.024496 312.2744 
L 236.050861 312.188675 
L 236.169501 310.719606 
L 236.261777 311.516966 
L 236.472694 312.232125 
L 236.999985 313.115211 
L 237.856834 313.318132 
L 237.89638 313.200231 
L 237.988656 313.283842 
L 238.028203 313.298874 
L 238.041386 313.247321 
L 238.06775 311.386617 
L 238.107297 175.114272 
L 238.199573 282.235393 
L 238.252302 267.086714 
L 238.291849 286.05192 
L 238.305031 289.386978 
L 238.331396 270.33957 
L 238.370943 193.903331 
L 238.423672 278.853362 
L 238.568677 298.018202 
L 238.858687 303.525745 
L 239.043239 305.040613 
L 239.069604 305.052356 
L 239.10915 302.316199 
L 239.16188 288.964224 
L 239.227791 298.417469 
L 239.399161 304.758777 
L 239.438708 305.040613 
L 239.45189 304.864465 
L 239.478254 302.233997 
L 239.530984 238.997072 
L 239.596895 292.545889 
L 239.755082 304.51217 
L 240.03191 307.530163 
L 241.099675 312.692457 
L 241.547873 312.87565 
L 241.864248 312.982513 
L 242.0488 313.195064 
L 242.496997 313.274213 
L 242.576091 313.247086 
L 242.602456 313.273508 
L 242.668367 313.325531 
L 242.681549 312.994726 
L 242.734278 277.408953 
L 242.813372 304.676575 
L 242.971559 310.665587 
L 243.248387 312.396529 
L 243.643856 312.87565 
L 243.736132 312.848641 
L 243.815226 310.874615 
L 243.881137 312.469337 
L 244.039324 312.834549 
L 244.724803 313.229471 
L 244.737985 313.180737 
L 244.751168 312.526878 
L 244.790715 206.93824 
L 244.817079 158.321551 
L 244.869808 253.323729 
L 244.93572 294.424794 
L 244.962084 261.567428 
L 244.988449 184.039075 
L 245.05436 293.003872 
L 245.212548 301.259315 
L 245.660745 307.025207 
L 246.082578 309.245839 
L 246.201219 310.177071 
L 246.464864 311.452379 
L 246.72851 312.037188 
L 246.860333 312.216859 
L 246.913062 312.114693 
L 246.939427 312.084161 
L 246.978974 312.175758 
L 247.005338 312.175758 
L 247.110796 312.2744 
L 247.545812 312.614952 
L 247.572176 312.560933 
L 247.624905 312.594988 
L 247.783093 312.936714 
L 247.928098 313.016568 
L 248.455389 312.94376 
L 248.57403 312.084161 
L 248.626759 312.560933 
L 248.771764 312.905008 
L 248.798129 312.882696 
L 249.022227 313.044752 
L 249.457243 313.151614 
L 249.865894 313.215732 
L 250.70956 313.318132 
L 250.933659 313.353832 
L 251.105028 313.370507 
L 251.447768 313.316723 
L 251.513679 312.950806 
L 251.57959 313.074109 
L 251.711413 313.292767 
L 251.737778 313.171578 
L 251.777325 313.037706 
L 251.843236 313.151614 
L 252.330981 313.40879 
L 253.293287 313.316723 
L 253.346016 312.672493 
L 253.438292 312.897962 
L 253.477839 303.701892 
L 253.556933 309.864703 
L 253.609662 309.170683 
L 253.794214 312.572676 
L 254.031495 313.200231 
L 254.150136 313.289009 
L 254.202865 313.242741 
L 254.334688 313.151614 
L 254.34787 312.944935 
L 254.374234 285.241642 
L 254.400599 232.655764 
L 254.479693 299.30995 
L 254.664245 307.70631 
L 254.967437 310.638578 
L 255.151989 311.100084 
L 255.204718 311.462948 
L 255.376088 312.730035 
L 255.626551 312.920274 
L 255.745192 312.94376 
L 255.995655 313.048275 
L 256.127478 313.074109 
L 256.997509 313.176275 
L 257.155696 313.195064 
L 257.472071 313.139871 
L 257.485253 312.906182 
L 257.511618 295.035439 
L 257.5248 278.06657 
L 257.603894 307.248327 
L 257.775264 311.022579 
L 257.827993 311.339644 
L 257.841175 311.088341 
L 257.86754 308.528332 
L 257.946633 310.899276 
L 258.091638 312.604383 
L 258.104821 312.396529 
L 258.144367 287.273209 
L 258.223461 307.26007 
L 258.236643 307.342272 
L 258.27619 242.402589 
L 258.355284 300.049769 
L 258.539836 307.917687 
L 258.803482 311.083644 
L 259.278044 313.204459 
L 259.647148 313.330228 
L 259.713059 313.129302 
L 259.844882 307.671081 
L 260.016252 311.410103 
L 260.029434 311.095387 
L 260.095345 312.066546 
L 260.279897 312.993082 
L 260.596272 313.281024 
L 261.031287 313.36123 
L 261.084017 313.418302 
L 261.149928 313.393289 
L 261.426756 313.448129 
L 261.545397 313.458111 
L 262.336334 313.424995 
L 262.362698 304.347766 
L 262.468156 311.279754 
L 262.626344 312.537447 
L 262.679073 312.605557 
L 262.705437 295.258559 
L 262.731802 247.804443 
L 262.810896 302.891614 
L 262.982265 309.281068 
L 263.153635 310.78067 
L 263.417281 312.240345 
L 263.575468 312.997779 
L 264.208218 313.427109 
L 264.445499 313.427579 
L 264.735509 313.414309 
L 264.761874 312.141702 
L 264.840967 312.894439 
L 264.893696 313.153963 
L 264.906879 312.980164 
L 264.933243 307.847228 
L 265.012337 312.82398 
L 265.170524 313.308973 
L 265.275983 313.367101 
L 265.302347 313.280789 
L 265.381441 312.845118 
L 265.447352 313.064715 
L 265.579175 313.222191 
L 265.60554 313.157486 
L 265.631904 310.411935 
L 265.72418 311.715426 
L 265.935097 312.42941 
L 266.330565 313.460459 
L 266.726034 313.521759 
L 266.871039 313.527513 
L 267.029226 313.560981 
L 267.213778 313.557106 
L 267.622429 313.577891 
L 268.993387 313.608071 
L 269.019751 312.67402 
L 269.046116 301.811243 
L 269.125209 311.736563 
L 269.322944 313.359938 
L 269.612954 313.552526 
L 274.951779 313.553348 
L 274.964961 313.415131 
L 274.991325 247.452148 
L 275.01769 132.486596 
L 275.083601 299.920594 
L 275.215424 305.768689 
L 275.241789 231.129153 
L 275.320883 301.517664 
L 275.518617 306.543737 
L 275.637257 308.223009 
L 275.65044 308.18778 
L 275.676804 301.411976 
L 275.689986 281.507317 
L 275.782262 304.453455 
L 275.834992 306.10924 
L 275.861356 304.183362 
L 275.874538 302.785926 
L 275.94045 306.989977 
L 275.953632 307.354015 
L 275.966814 306.402819 
L 276.006361 275.776654 
L 276.072273 304.265564 
L 276.243642 308.246496 
L 276.335918 309.07204 
L 276.349101 308.803122 
L 276.388647 121.91775 
L 276.454559 296.585536 
L 276.612746 305.510339 
L 276.836845 307.905944 
L 277.298225 311.363131 
L 277.311407 310.577513 
L 277.32459 309.643932 
L 277.403683 311.695462 
L 277.654147 312.758218 
L 277.970521 313.016568 
L 278.19462 313.074109 
L 278.36599 313.419006 
L 279.446937 313.587755 
L 279.473302 313.487704 
L 279.552395 313.599851 
L 279.789677 313.602434 
L 279.855588 312.612603 
L 279.934682 313.382367 
L 280.132416 313.607601 
L 280.448791 313.621576 
L 280.67289 313.635667 
L 280.712436 313.024788 
L 280.79153 313.483241 
L 281.055176 313.619227 
L 281.477009 313.633319 
L 281.661561 313.604665 
L 281.687925 313.30087 
L 281.767019 313.61359 
L 281.964753 313.646823 
L 282.373404 313.651521 
L 282.399769 310.835863 
L 282.426133 262.718258 
L 282.505227 305.604284 
L 282.663414 309.99153 
L 283.09843 312.833375 
L 283.493898 313.357942 
L 283.902549 313.258242 
L 283.942096 305.122815 
L 284.008007 312.658402 
L 284.153012 313.411138 
L 284.469387 313.581297 
L 284.495752 313.566383 
L 284.522116 302.72721 
L 284.60121 312.479905 
L 284.680304 313.170403 
L 284.733033 313.164532 
L 284.930767 313.350309 
L 285.18123 313.558985 
L 285.207595 312.013702 
L 285.220777 303.995471 
L 285.313053 311.884527 
L 285.444876 313.247673 
L 285.458058 313.253075 
L 285.471241 312.793448 
L 285.497605 299.251234 
L 285.576699 309.522977 
L 285.734886 312.324896 
L 285.98535 313.137523 
L 286.183084 313.348665 
L 286.407183 313.521172 
L 286.56537 313.602787 
L 287.395854 313.577304 
L 287.409036 313.402096 
L 287.48813 313.633789 
L 287.501312 313.633789 
L 287.580406 313.637194 
L 287.593588 313.593509 
L 287.606771 310.198209 
L 287.699046 313.519645 
L 287.844052 313.624864 
L 288.041786 313.628152 
L 288.081333 312.99179 
L 288.186791 274.003436 
L 288.213156 295.728285 
L 288.358161 311.197552 
L 288.371343 311.194029 
L 288.503166 296.385902 
L 288.608624 309.182426 
L 288.714082 308.223009 
L 288.819541 311.533407 
L 288.832723 311.400709 
L 288.845905 307.254199 
L 288.885452 218.798834 
L 288.964546 281.836125 
L 288.99091 292.780752 
L 289.122733 307.177868 
L 289.320467 309.27872 
L 289.715936 311.940894 
L 289.7423 311.363131 
L 289.768665 299.767933 
L 289.860941 307.119152 
L 289.887306 303.643176 
L 289.966399 307.2953 
L 290.150951 309.996227 
L 290.638696 312.877999 
L 291.020982 313.185669 
L 291.917377 313.393758 
L 292.022835 313.165002 
L 292.036018 313.141045 
L 292.088747 313.269281 
L 292.365575 313.424291 
L 293.538798 313.535146 
L 298.613977 313.585994 
L 298.653524 313.482302 
L 298.732618 313.530449 
L 299.259909 313.608071 
L 299.813565 313.615939 
L 301.144975 313.615234 
L 301.276798 313.204459 
L 301.659084 313.22818 
L 301.80409 313.282785 
L 302.041371 313.497568 
L 305.495129 313.607601 
L 305.73241 313.610302 
L 306.391524 313.619932 
L 306.615623 313.623102 
L 307.683388 313.600908 
L 307.709752 313.157486 
L 307.788846 313.541605 
L 307.960216 313.613943 
L 308.724788 313.595976 
L 312.046724 313.502383 
L 312.059906 313.146917 
L 312.152182 313.589634 
L 312.402645 313.637546 
L 312.639926 313.639425 
L 313.826332 313.617583 
L 314.076795 313.615469 
L 319.811088 313.508606 
L 320.074734 313.42476 
L 320.087916 313.449656 
L 320.377927 313.557693 
L 321.511603 313.463513 
L 321.55115 313.203989 
L 321.590697 306.943005 
L 321.630244 301.047938 
L 321.682973 307.718053 
L 321.854342 313.15044 
L 322.052077 313.433215 
L 322.328905 313.541722 
L 322.513457 313.571667 
L 323.937143 313.505201 
L 323.97669 313.283842 
L 324.029419 308.4109 
L 324.108513 311.757701 
L 324.2667 313.297934 
L 324.464434 313.471263 
L 324.793992 313.54501 
L 327.562271 313.510368 
L 327.588636 313.167585 
L 327.615 276.657391 
L 327.641365 177.228042 
L 327.720458 294.718374 
L 327.865464 304.653088 
L 328.142291 309.897584 
L 328.432302 311.527535 
L 328.445484 311.500526 
L 328.485031 311.654361 
L 328.840953 312.43763 
L 329.025504 313.208804 
L 329.262786 313.346081 
L 329.526431 313.353597 
L 329.565978 312.997779 
L 329.658254 308.117321 
L 329.724165 310.155934 
L 329.9219 312.710071 
L 330.132816 313.138697 
L 330.317368 313.235695 
L 330.343733 313.272804 
L 330.38328 313.107225 
L 330.422826 302.797669 
L 330.436009 300.42555 
L 330.462373 238.762208 
L 330.541467 298.722792 
L 330.726019 307.659338 
L 331.016029 310.733697 
L 331.358769 311.917408 
L 331.569685 312.335465 
L 331.727873 312.621998 
L 331.820149 312.659576 
L 331.899242 312.974293 
L 331.991518 312.92732 
L 332.46608 313.035357 
L 332.650632 313.058843 
L 332.716544 312.982513 
L 332.861549 311.964381 
L 332.940643 312.350731 
L 333.177924 312.986036 
L 333.375658 313.105816 
L 333.823856 313.204693 
L 333.863402 313.185669 
L 333.942496 313.204576 
L 334.02159 313.21949 
L 335.194813 313.248613 
L 335.326636 313.180972 
L 335.511188 313.259651 
L 335.629828 313.204576 
L 335.708922 313.302749 
L 335.735287 313.255424 
L 335.972568 313.095247 
L 336.051661 309.101398 
L 336.143937 311.314984 
L 336.328489 312.744127 
L 336.354854 312.667796 
L 336.381219 310.753661 
L 336.420765 281.178508 
L 336.499859 304.406482 
L 336.684411 309.343307 
L 336.948057 311.11535 
L 337.093062 311.670802 
L 337.119426 311.568636 
L 337.172156 310.137145 
L 337.224885 302.785926 
L 337.290796 307.365759 
L 337.48853 310.588082 
L 337.857634 312.335465 
L 337.883999 312.307281 
L 337.910363 312.485777 
L 337.936728 312.423538 
L 337.976275 311.513443 
L 338.002639 305.017126 
L 338.094915 308.469616 
L 338.134462 308.528332 
L 338.147644 308.446129 
L 338.187191 307.988146 
L 338.226738 308.680993 
L 338.543113 311.554544 
L 339.123133 312.929669 
L 339.518602 313.204459 
L 339.79543 313.214793 
L 340.032711 313.284664 
L 340.072258 313.242037 
L 340.138169 313.273508 
L 340.283174 313.291828 
L 340.454544 313.291945 
L 340.71819 313.296055 
L 340.902742 313.3004 
L 341.153205 313.294646 
L 341.271846 313.313905 
L 343.816026 313.375909 
L 343.881938 313.436621 
L 343.908302 313.300165 
L 343.974214 313.102293 
L 344.000578 311.770619 
L 344.013761 309.029765 
L 344.106036 312.203941 
L 344.264224 313.087027 
L 344.751968 313.302631 
L 345.556088 313.394111 
L 345.674728 313.408437 
L 345.68791 313.39047 
L 347.546612 313.282903 
L 347.625706 313.102293 
L 347.717982 313.16688 
L 348.021175 313.329876 
L 348.45619 313.363226 
L 350.59172 313.288774 
L 350.631267 312.673668 
L 350.71036 313.056495 
L 350.76309 313.176275 
L 350.802636 313.101119 
L 350.894912 281.225481 
L 350.934459 300.965736 
L 351.105829 309.23527 
L 351.356292 311.161148 
L 351.92313 312.739429 
L 352.173594 313.016568 
L 352.358146 313.124605 
L 352.569062 312.97077 
L 352.621791 312.74765 
L 352.740432 307.641723 
L 352.819526 210.226326 
L 352.859073 275.036835 
L 352.990895 301.658582 
L 353.294088 306.837316 
L 353.439093 307.753283 
L 353.584098 308.37567 
L 353.59728 308.316955 
L 353.623645 283.069157 
L 353.715921 305.322448 
L 353.900473 308.880626 
L 354.388217 311.465296 
L 354.585952 311.886876 
L 354.69141 312.084161 
L 354.730957 311.938546 
L 354.875962 311.721297 
L 354.902326 311.757701 
L 355.100061 312.420015 
L 355.113243 312.417667 
L 355.126425 312.36952 
L 355.139608 312.491649 
L 355.205519 312.469337 
L 355.403253 312.738255 
L 355.429618 312.683062 
L 355.535076 312.701851 
L 355.798722 312.920274 
L 355.811904 312.903834 
L 356.260102 312.956678 
L 356.36556 313.114036 
L 356.378742 313.091724 
L 356.497383 313.068238 
L 358.184715 313.165706 
L 358.250626 313.190132 
L 358.303356 313.129302 
L 358.408814 313.190836 
L 358.448361 313.068238 
L 358.527454 312.692457 
L 358.567001 312.2744 
L 358.632913 312.58442 
L 358.672459 312.701851 
L 358.698824 312.537447 
L 358.725189 308.868883 
L 358.817465 311.309112 
L 359.028381 312.594988 
L 359.08111 312.664273 
L 359.120657 312.537447 
L 359.173386 312.081812 
L 359.199751 308.735011 
L 359.226115 294.96498 
L 359.305209 307.635851 
L 359.476579 310.379054 
L 359.779771 311.659058 
L 360.135693 312.54919 
L 360.201604 306.696398 
L 360.280698 309.881144 
L 360.438885 311.654361 
L 361.427557 313.014219 
L 361.480286 312.936714 
L 361.533015 312.87565 
L 361.585744 312.936714 
L 361.836207 313.151614 
L 361.84939 313.115211 
L 361.875754 312.232125 
L 361.96803 312.692457 
L 362.218494 313.097596 
L 362.930337 313.293941 
L 363.207165 313.308738 
L 363.325805 313.386478 
L 363.338988 313.376848 
L 363.431264 313.340679 
L 363.457628 313.357355 
L 363.64218 313.353832 
L 363.839915 313.247086 
L 363.853097 313.205398 
L 363.945373 313.268341 
L 364.340841 313.36123 
L 364.367206 313.15044 
L 364.4463 313.358059 
L 364.657216 313.362287 
L 364.828586 313.359938 
L 364.841768 313.259886 
L 364.934044 313.366397 
L 365.184507 313.424878 
L 365.19769 313.401274 
L 365.500882 313.419006 
L 365.514064 312.357777 
L 365.566794 111.231473 
L 365.632705 292.769009 
L 365.790892 304.911438 
L 365.830439 305.228503 
L 365.883168 304.805749 
L 365.896351 304.782263 
L 365.909533 304.805749 
L 366.278637 308.751452 
L 366.674105 311.050763 
L 366.805928 311.423021 
L 366.819111 311.264488 
L 366.832293 311.144708 
L 366.845475 289.140372 
L 366.937751 306.379333 
L 366.950933 306.402819 
L 366.99048 303.467029 
L 367.069574 305.545569 
L 367.135485 307.92943 
L 367.148668 307.647594 
L 367.306855 247.56958 
L 367.33322 283.515397 
L 367.372766 297.184437 
L 367.412313 275.882342 
L 367.45186 290.479092 
L 367.596865 305.240246 
L 367.873693 308.66925 
L 368.506443 311.922105 
L 368.690995 312.288492 
L 368.730542 312.408272 
L 368.743724 312.314327 
L 368.770088 303.373084 
L 368.822818 183.921644 
L 368.875547 286.49816 
L 369.020552 303.314368 
L 369.29738 308.15255 
L 369.732395 310.610394 
L 369.75876 308.354533 
L 369.8774 203.415292 
L 369.930129 44.647747 
L 369.982859 225.727299 
L 370.114681 289.28129 
L 370.259686 298.746278 
L 370.931983 306.062268 
L 370.97153 306.179699 
L 371.011077 305.92135 
L 371.103353 305.111072 
L 371.156082 290.643496 
L 371.182446 284.020353 
L 371.235175 300.131971 
L 371.26154 301.435462 
L 371.287905 299.321693 
L 371.419727 250.035644 
L 371.459274 257.78613 
L 371.617462 302.50409 
L 371.802014 305.345935 
L 372.01293 307.048693 
L 372.289758 308.563561 
L 372.843414 310.920414 
L 373.027966 311.353736 
L 373.054331 311.339644 
L 373.51571 311.954986 
L 373.528893 311.750655 
L 373.542075 311.464122 
L 373.56844 245.455811 
L 373.647533 303.185193 
L 373.832085 306.36759 
L 374.016637 308.516588 
L 374.135278 309.298683 
L 374.412106 311.034322 
L 374.702116 311.922105 
L 374.965762 312.504566 
L 374.978944 312.492823 
L 375.018491 312.602034 
L 375.031673 312.58442 
L 375.176678 312.730035 
L 375.308501 312.948458 
L 375.440324 312.964898 
L 375.796245 313.068238 
L 375.928068 313.079981 
L 376.639912 313.176275 
L 376.784917 313.200231 
L 377.022198 313.224892 
L 377.074927 313.220312 
L 377.088109 313.177567 
L 377.101291 312.882696 
L 377.193567 313.068238 
L 377.747223 313.195064 
L 378.155874 313.303336 
L 378.287697 313.268341 
L 378.524978 313.085853 
L 378.551343 279.158684 
L 378.643619 296.820399 
L 378.656801 296.52682 
L 378.801806 307.858971 
L 379.276368 311.465296 
L 379.566378 312.431759 
L 379.592743 311.781187 
L 379.685019 312.246217 
L 380.027758 312.99543 
L 380.344133 313.091724 
L 380.370498 312.710071 
L 380.449591 313.108165 
L 380.568232 313.134 
L 380.581414 313.096421 
L 380.700055 312.87565 
L 380.976883 312.912054 
L 381.01643 312.907357 
L 381.042794 303.889783 
L 381.121888 311.731866 
L 381.187799 312.645484 
L 381.200982 312.626695 
L 381.227346 226.784184 
L 381.30644 302.386658 
L 381.530539 307.459704 
L 381.76782 309.116664 
L 381.899643 310.302723 
L 382.2292 312.344859 
L 382.479663 312.880347 
L 382.677397 313.105816 
L 383.046501 313.117559 
L 383.507881 313.091724 
L 383.586975 313.099944 
L 383.639704 311.277406 
L 383.705615 311.305589 
L 383.745162 311.711903 
L 383.890167 313.016568 
L 384.404276 313.044752 
L 384.430641 312.916751 
L 384.522917 312.974293 
L 384.667922 312.955504 
L 385.366583 312.80754 
L 385.419312 305.557312 
L 385.485224 308.46257 
L 385.511588 189.44093 
L 385.590682 297.513246 
L 385.748869 301.036194 
L 385.788416 302.210511 
L 385.972968 305.944836 
L 386.460713 310.655018 
L 386.487077 309.305729 
L 386.579353 309.479528 
L 386.658447 309.780153 
L 386.842999 311.59682 
L 386.948457 311.960858 
L 386.961639 311.736563 
L 386.974822 308.180734 
L 387.001186 195.899668 
L 387.08028 298.34701 
L 387.278014 306.015295 
L 387.765759 311.100084 
L 387.976675 311.471168 
L 388.00304 311.781187 
L 388.148045 312.777007 
L 388.793977 313.054146 
L 390.046294 313.15866 
L 390.13857 313.170403 
L 390.151752 313.104642 
L 390.191299 288.858536 
L 390.270392 309.476005 
L 390.389033 311.140011 
L 390.402215 310.343824 
L 390.415398 307.307043 
L 390.507674 310.653844 
L 390.692225 312.108822 
L 390.705408 312.149923 
L 390.731772 311.990216 
L 390.837231 300.965736 
L 390.876777 305.463366 
L 390.995418 310.491788 
L 391.0086 309.831823 
L 391.048147 306.860803 
L 391.114059 310.17942 
L 391.127241 310.572816 
L 391.140423 308.382716 
L 391.166788 297.090492 
L 391.245881 308.598791 
L 391.417251 311.541627 
L 391.483162 311.883353 
L 391.654532 312.545667 
L 391.667714 312.468162 
L 391.680897 312.412969 
L 391.746808 312.565631 
L 392.208188 313.290888 
L 392.735479 313.394228 
L 392.893667 313.444959 
L 394.515088 313.551117 
L 394.805098 313.56333 
L 396.966992 313.507667 
L 396.993357 312.038363 
L 397.085633 313.342323 
L 397.191091 313.505553 
L 397.204273 313.310264 
L 397.296549 313.537495 
L 401.106229 313.440261 
L 401.145776 313.327527 
L 401.211688 313.450478 
L 401.409422 313.574603 
L 408.96287 313.527513 
L 409.068328 313.290888 
L 409.107875 313.356767 
L 409.305609 313.584937 
L 410.320645 313.594332 
L 410.386557 313.087027 
L 410.439286 313.404092 
L 410.452468 313.367454 
L 410.505197 313.517884 
L 410.702931 313.602787 
L 410.887483 313.610302 
L 416.503136 313.5025 
L 416.555865 313.376966 
L 416.569047 313.481245 
L 416.595412 310.232264 
L 416.674506 313.246029 
L 416.859058 313.56333 
L 417.069974 313.602787 
L 420.761014 313.526456 
L 420.774196 313.482184 
L 420.80056 313.521994 
L 420.826925 309.878795 
L 420.906019 313.157486 
L 421.077388 313.551117 
L 421.420128 313.597385 
L 421.446492 311.963206 
L 421.472857 301.141883 
L 421.551951 310.810028 
L 421.565133 311.659058 
L 421.578315 310.932157 
L 421.60468 289.997623 
L 421.683773 309.916373 
L 421.828779 313.367336 
L 422.092424 313.584937 
L 425.335266 313.570023 
L 425.374813 313.066359 
L 425.41436 309.413766 
L 425.480271 312.248565 
L 425.638458 313.482184 
L 425.796646 313.56333 
L 426.403031 313.584937 
L 426.732588 313.574603 
L 426.903958 313.525869 
L 426.996234 313.444959 
L 427.022598 313.482184 
L 427.536707 313.56333 
L 428.947211 313.547359 
L 428.973576 313.400804 
L 428.986758 309.231747 
L 429.079034 311.915059 
L 429.250404 313.349721 
L 429.527232 313.5409 
L 429.711784 313.551117 
L 429.830424 313.537495 
L 429.856789 312.841595 
L 429.896336 303.87804 
L 429.962247 310.333256 
L 430.120435 313.15866 
L 430.133617 313.163123 
L 430.159982 312.730035 
L 430.212711 298.147377 
L 430.291804 307.905944 
L 430.489539 312.319024 
L 430.687273 313.303571 
L 430.885007 313.420533 
L 431.280476 313.525869 
L 431.517757 313.537495 
L 432.86235 313.45952 
L 432.98099 313.381076 
L 432.994172 313.387652 
L 433.402823 313.487234 
L 433.547828 313.487234 
L 433.851021 313.395872 
L 433.877385 313.092194 
L 433.930115 305.792175 
L 434.009208 310.271017 
L 434.246489 313.15866 
L 434.48377 313.394228 
L 434.918786 313.487234 
L 436.698394 313.533619 
L 437.08068 313.533619 
L 439.058023 313.495219 
L 439.203028 310.92746 
L 439.255757 312.303758 
L 439.413944 313.278206 
L 439.769866 313.467036 
L 439.993965 313.500973 
L 440.31034 313.505553 
L 444.647311 313.432276 
L 444.70004 313.145743 
L 444.726405 309.073214 
L 444.765951 229.367679 
L 444.845045 287.097062 
L 445.016415 305.780432 
L 445.214149 309.000407 
L 445.504159 310.700816 
L 445.609617 311.751829 
L 445.820534 313.068238 
L 446.136909 313.353205 
L 449.775219 313.461516 
L 449.854313 313.192481 
L 449.933406 307.400988 
L 450.025682 309.950428 
L 450.276146 312.955504 
L 450.460698 313.176275 
L 450.869349 313.08233 
L 450.895713 313.104642 
L 450.961624 312.977816 
L 450.987989 310.595128 
L 451.067083 283.515397 
L 451.10663 297.137465 
L 451.277999 309.432555 
L 451.713015 311.698985 
L 451.739379 311.435938 
L 451.831655 311.084818 
L 451.844837 311.318507 
L 451.989843 312.556236 
L 452.213941 312.809888 
L 452.227124 312.781705 
L 453.795815 313.023614 
L 453.901274 311.492306 
L 453.99355 305.627771 
L 454.099008 299.803163 
L 454.138555 301.529407 
L 454.296742 308.211266 
L 454.309924 307.659338 
L 454.362654 273.921234 
L 454.428565 300.296375 
L 454.599935 308.516588 
L 454.929492 311.70016 
L 455.193137 312.535098 
L 455.522694 312.85921 
L 455.588606 312.87565 
L 455.61497 312.908531 
L 455.6677 312.924971 
L 455.694064 313.054146 
L 455.799522 313.023614 
L 455.931345 313.02244 
L 455.970892 312.536273 
L 456.036804 308.680993 
L 456.102715 311.000267 
L 456.287267 312.63609 
L 456.485001 312.87565 
L 457.025475 313.08233 
L 459.161005 313.180972 
L 459.240098 313.196943 
L 459.266463 313.135174 
L 459.30601 312.923797 
L 459.358739 311.927977 
L 459.385103 310.733697 
L 459.464197 312.37774 
L 459.635567 312.933192 
L 459.991489 313.03066 
L 460.426504 312.924971 
L 460.51878 312.986036 
L 460.63742 313.023614 
L 460.650603 312.993082 
L 460.716514 312.63609 
L 460.729696 312.424713 
L 460.80879 312.785228 
L 460.993342 313.099944 
L 461.73155 313.005999 
L 461.837008 312.785228 
L 461.90292 312.842769 
L 462.074289 313.104642 
L 462.113836 313.015394 
L 462.245659 312.89209 
L 462.272024 312.16284 
L 462.337935 306.954748 
L 462.390664 309.998575 
L 462.562034 312.459942 
L 462.588398 312.213336 
L 462.614763 305.991809 
L 462.641127 286.709537 
L 462.720221 303.490515 
L 462.904773 309.534721 
L 463.207966 311.976124 
L 463.392518 312.556236 
L 463.629799 312.908531 
L 463.735257 312.977816 
L 463.748439 312.89209 
L 463.761622 312.777007 
L 463.787986 304.862117 
L 463.827533 284.595768 
L 463.893444 294.92975 
L 463.919809 295.258559 
L 463.932991 294.70663 
L 464.025267 284.079069 
L 464.077996 226.784184 
L 464.130725 282.681633 
L 464.288913 301.869959 
L 464.341642 303.748865 
L 464.354824 301.024451 
L 464.4471 136.479271 
L 464.499829 209.05201 
L 464.658017 296.503334 
L 464.750293 299.380409 
L 464.78984 298.781507 
L 464.842569 290.514322 
L 464.882116 255.237864 
L 464.961209 90.328646 
L 465.000756 213.749274 
L 465.132579 294.542226 
L 465.343496 301.212342 
L 465.949881 306.508508 
L 466.00261 306.719885 
L 466.028974 306.578967 
L 466.068521 303.549231 
L 466.108068 302.034363 
L 466.160797 304.054187 
L 466.358531 306.449792 
L 466.384896 306.625939 
L 466.41126 306.320617 
L 466.450807 302.562805 
L 466.516719 306.261901 
L 466.754 309.170683 
L 467.162651 311.217516 
L 467.50539 311.945592 
L 467.584484 312.048931 
L 467.597666 311.960858 
L 467.637213 311.103607 
L 467.755853 304.864465 
L 467.782218 306.402819 
L 467.953588 309.976263 
L 468.309509 311.59682 
L 468.322692 311.575682 
L 468.375421 311.70016 
L 468.625884 312.295538 
L 468.691795 312.232125 
L 468.823618 312.330767 
L 469.087264 312.58442 
L 469.403639 312.673668 
L 469.561826 312.725338 
L 469.614555 305.498596 
L 469.654102 281.883098 
L 469.733196 301.529407 
L 469.970477 308.328698 
L 470.352763 311.001441 
L 470.669138 311.884527 
L 470.721867 311.976124 
L 471.1437 312.681888 
L 471.301888 312.706548 
L 471.328252 311.323204 
L 471.354617 289.046426 
L 471.43371 306.943005 
L 471.631445 310.701991 
L 471.815997 311.565113 
L 471.908273 311.753004 
L 472.040095 311.930326 
L 472.053278 311.915059 
L 472.119189 312.020748 
L 472.132371 311.898619 
L 472.198283 309.348004 
L 472.277376 310.78067 
L 472.422382 311.942069 
L 472.461928 311.802325 
L 472.541022 311.494654 
L 472.606934 311.70016 
L 472.804668 312.513961 
L 472.81785 312.422364 
L 472.976038 312.556236 
L 473.160589 312.706548 
L 473.780157 312.596163 
L 473.806521 311.940894 
L 473.819704 306.931262 
L 473.91198 310.90045 
L 474.122896 312.330767 
L 474.333813 312.625521 
L 474.439271 312.37774 
L 474.492 312.482254 
L 474.689734 312.697154 
L 474.716099 312.456419 
L 474.755646 303.17345 
L 474.78201 284.26696 
L 474.887469 285.817057 
L 475.12475 306.038781 
L 475.137932 305.897863 
L 475.164297 306.426306 
L 475.322484 308.293468 
L 475.335666 308.093835 
L 475.375213 292.757266 
L 475.388395 284.302189 
L 475.467489 301.952161 
L 475.638859 307.694567 
L 475.87614 310.025585 
L 476.113421 310.945074 
L 476.126603 310.929808 
L 476.179332 311.029625 
L 476.271608 311.39836 
L 476.284791 311.333773 
L 476.311155 306.790344 
L 476.33752 282.153191 
L 476.416613 301.247571 
L 476.719806 308.751452 
L 476.930722 310.356742 
L 476.957087 307.51842 
L 476.996634 297.313612 
L 477.062545 306.391076 
L 477.233915 310.216998 
L 477.444832 311.411278 
L 477.906211 312.752347 
L 477.945758 312.690108 
L 477.985305 312.818109 
L 478.024852 312.724163 
L 478.090763 312.690108 
L 478.143493 312.767613 
L 478.288498 312.744127 
L 478.908065 313.002476 
L 479.422174 313.105816 
L 479.883554 313.206337 
L 480.015377 313.217611 
L 480.213111 313.129302 
L 480.239476 312.740604 
L 480.279022 291.3246 
L 480.292205 279.933733 
L 480.371298 303.948499 
L 480.542668 309.377362 
L 480.832678 311.55337 
L 481.214965 312.664273 
L 481.689527 313.099944 
L 481.82135 313.200701 
L 481.834532 313.175101 
L 481.874079 313.236752 
L 481.926808 313.232055 
L 482.23 313.273626 
L 482.243183 313.233699 
L 482.256365 313.190367 
L 482.282729 313.255659 
L 482.348641 313.255659 
L 482.375005 313.264818 
L 482.40137 312.955504 
L 482.480464 313.176275 
L 482.678198 313.264818 
L 482.796839 313.217611 
L 482.86275 313.152789 
L 482.889115 312.944935 
L 482.915479 300.930506 
L 483.073666 113.697537 
L 483.086849 137.418724 
L 483.192307 285.12421 
L 483.231854 273.134442 
L 483.258218 251.797118 
L 483.32413 291.582949 
L 483.482317 300.895277 
L 483.640505 303.901526 
L 483.851421 306.261901 
L 484.286437 307.988146 
L 484.523718 309.244664 
L 484.853275 311.273883 
L 484.932368 311.482911 
L 485.222379 312.124088 
L 485.275108 312.203941 
L 485.486024 312.556236 
L 485.657394 312.58442 
L 485.828764 312.664273 
L 485.960587 312.690108 
L 486.171503 312.785228 
L 486.276961 312.688934 
L 486.342873 311.105956 
L 486.369237 307.213097 
L 486.448331 311.014359 
L 486.619701 312.37774 
L 486.96244 312.58442 
L 486.975622 312.556236 
L 487.094263 312.664273 
L 487.489731 312.809888 
L 487.964294 312.908531 
L 488.122481 312.941412 
L 488.887053 313.048275 
L 489.137517 313.061192 
L 489.203428 312.997779 
L 489.242975 311.607389 
L 489.322069 311.682545 
L 489.414345 311.915059 
L 489.598897 313.036531 
L 489.691173 313.08233 
L 489.717537 312.842769 
L 489.796631 313.002476 
L 490.284375 313.111688 
L 490.640297 313.152789 
L 490.864396 313.135174 
L 490.877578 312.992847 
L 490.903943 300.977479 
L 490.996219 310.763055 
L 491.101677 311.471168 
L 491.128042 311.276231 
L 491.154406 296.08058 
L 491.2335 307.189611 
L 491.483963 310.68555 
L 491.668515 311.471168 
L 491.760791 311.694288 
L 491.773973 311.482911 
L 491.787156 311.447682 
L 491.800338 311.471168 
L 491.826703 307.811999 
L 491.905796 310.84056 
L 492.182624 312.725338 
L 492.195806 312.726512 
L 492.208989 312.604383 
L 492.288082 312.85921 
L 492.578093 313.054146 
L 493.052655 313.15866 
L 493.19766 313.176275 
L 493.303118 313.170403 
L 493.329483 312.275574 
L 493.421759 312.826329 
L 493.566764 313.135174 
L 493.738134 313.176275 
L 494.463159 313.129302 
L 494.502706 312.788751 
L 494.542253 308.504845 
L 494.660893 310.352045 
L 494.687258 311.096561 
L 494.70044 309.634537 
L 494.726805 301.952161 
L 494.805899 309.805988 
L 494.819081 309.911676 
L 494.845445 304.794006 
L 494.924539 309.922245 
L 495.095909 311.682545 
L 495.227732 312.176932 
L 495.240914 311.633224 
L 495.280461 123.444361 
L 495.346372 298.147377 
L 495.359554 298.217836 
L 495.372737 296.843886 
L 495.425466 302.785926 
L 495.596836 308.129064 
L 495.926393 311.55337 
L 496.150491 312.218033 
L 496.308679 312.482254 
L 496.506413 313.179798 
L 496.519595 313.175101 
L 497.903735 313.394228 
L 498.009193 313.420533 
L 498.022376 313.40738 
L 498.075105 313.400217 
L 498.088287 312.900193 
L 498.114652 301.047938 
L 498.193745 312.045408 
L 498.33875 313.190367 
L 498.628761 313.367454 
L 499.024229 313.465626 
L 499.037411 313.49839 
L 499.050594 312.935423 
L 499.090141 266.041573 
L 499.156052 306.55548 
L 499.353786 312.189849 
L 499.406515 312.579722 
L 501.252035 313.355593 
L 501.265217 313.282198 
L 501.357493 313.354888 
L 501.436587 313.238631 
L 501.542045 313.261178 
L 501.647504 313.282433 
L 501.752962 313.034183 
L 501.779326 313.051797 
L 501.884785 313.09055 
L 501.911149 312.993082 
L 501.937514 293.074331 
L 502.02979 308.78903 
L 502.253889 312.774659 
L 502.543899 313.03888 
L 502.636175 312.983687 
L 502.715269 312.826329 
L 502.754815 312.908531 
L 502.913003 312.986036 
L 502.965732 285.582194 
L 502.992096 291.418545 
L 503.005279 267.709102 
L 503.044826 298.311781 
L 503.097555 288.999454 
L 503.229378 307.612365 
L 503.387565 310.603348 
L 503.400747 309.669767 
L 503.440294 286.545133 
L 503.506206 307.659338 
L 503.53257 308.66925 
L 503.558935 307.436218 
L 503.572117 304.794006 
L 503.651211 308.907636 
L 503.848945 311.151754 
L 504.020315 311.848123 
L 504.152137 312.932017 
L 504.16532 312.822806 
L 504.204867 274.578851 
L 504.28396 304.829236 
L 504.468512 311.431241 
L 504.679429 312.825154 
L 504.784887 312.993082 
L 504.969439 313.148091 
L 504.982621 313.136348 
L 505.285814 313.263762 
L 505.444001 313.285721 
L 505.49673 313.215497 
L 505.509913 313.171578 
L 505.602189 313.23593 
L 505.6681 313.209156 
L 505.720829 313.254602 
L 505.905381 313.334103 
L 506.063568 313.334103 
L 506.577678 313.366632 
L 506.735865 313.376848 
L 506.854505 313.363226 
L 506.867688 313.345376 
L 507.329068 313.449421 
L 507.500437 313.475021 
L 507.658625 313.460929 
L 509.925977 313.440966 
L 509.93916 312.808714 
L 510.031436 313.376848 
L 510.40054 313.517296 
L 514.566141 313.428401 
L 514.579323 313.341619 
L 514.658417 313.539843 
L 514.829787 313.571315 
L 515.132979 313.582119 
L 515.304349 313.582119 
L 517.321238 313.571315 
L 517.347603 313.463982 
L 517.426697 313.574016 
L 517.439879 313.582119 
L 517.466243 312.923797 
L 517.558519 313.495689 
L 517.743071 313.589165 
L 518.494462 313.611946 
L 518.916295 313.608423 
L 519.298581 313.600438 
L 519.957695 313.600438 
L 520.906819 313.594801 
L 520.933184 313.358764 
L 521.012278 313.582119 
L 521.275923 313.600438 
L 526.746571 313.576952 
L 526.772935 313.268106 
L 526.7993 306.031735 
L 526.825665 287.590274 
L 526.878394 307.905944 
L 526.917941 295.152871 
L 527.049763 309.694428 
L 527.326591 312.223905 
L 527.748424 313.440261 
L 528.407539 313.623455 
L 531.215365 313.564974 
L 531.320823 313.154668 
L 531.386735 308.563561 
L 531.439464 311.628526 
L 531.571287 313.430514 
L 531.795385 313.583176 
L 531.848114 313.445898 
L 531.887661 304.887951 
L 531.953573 180.868422 
L 531.99312 295.728285 
L 532.124942 309.595785 
L 532.480864 312.861558 
L 532.770874 313.176275 
L 532.836786 313.09877 
L 532.942244 312.881522 
L 532.968609 312.749998 
L 533.03452 313.011871 
L 533.20589 313.195064 
L 533.535447 313.296995 
L 533.759546 313.371681 
L 533.904551 313.451887 
L 534.985498 313.523873 
L 535.183232 313.552056 
L 538.096517 313.467858 
L 538.201975 313.209156 
L 538.241522 313.274448 
L 538.465621 313.513656 
L 538.597444 313.491696 
L 538.729266 313.521524 
L 538.992912 313.556284 
L 539.968401 313.461399 
L 540.034312 313.432628 
L 540.087042 313.486647 
L 540.390234 313.565678 
L 543.606711 313.56333 
L 543.633076 313.293589 
L 543.65944 296.350673 
L 543.857175 36.19267 
L 543.738534 302.433631 
L 543.883539 77.763463 
L 544.041726 295.329018 
L 544.226278 299.838392 
L 544.542653 303.255652 
L 544.832663 306.531994 
L 545.162221 308.751452 
L 545.228132 309.030939 
L 545.241314 308.821911 
L 545.267679 303.009046 
L 545.320408 245.808105 
L 545.373137 294.389565 
L 545.544507 306.027038 
L 545.781788 308.645763 
L 546.361808 310.306246 
L 546.401355 310.372008 
L 546.612272 310.914542 
L 546.625454 310.827643 
L 546.796824 310.945074 
L 546.8891 310.915716 
L 546.902282 310.456559 
L 546.994558 310.88401 
L 547.073652 310.98735 
L 547.284568 311.057809 
L 547.561396 311.165846 
L 547.75913 311.231607 
L 547.772313 311.217516 
L 548.708255 311.320855 
L 548.866442 311.320855 
L 549.275093 311.424195 
L 549.446463 311.518141 
L 549.855113 311.626178 
L 550.06603 311.785885 
L 550.079212 311.769444 
L 550.145124 311.682545 
L 550.211035 311.753004 
L 550.316493 311.818765 
L 550.342858 311.753004 
L 550.382405 311.785885 
L 550.408769 311.32203 
L 550.487863 311.682545 
L 550.52741 311.769444 
L 550.64605 311.945592 
L 550.672415 311.930326 
L 550.804238 311.884527 
L 550.949243 312.006656 
L 550.98879 311.945592 
L 551.133795 311.682545 
L 551.160159 311.735389 
L 551.318347 311.945592 
L 551.45017 312.048931 
L 551.608357 312.156969 
L 551.621539 312.078289 
L 551.792909 311.835206 
L 551.647904 312.093555 
L 551.806091 311.883353 
L 551.964279 312.048931 
L 552.162013 312.28262 
L 552.280654 312.232125 
L 553.24296 312.307281 
L 553.256142 311.966729 
L 553.282507 282.66989 
L 553.308872 251.562255 
L 553.387965 279.593181 
L 553.53297 302.621521 
L 553.730705 308.15255 
L 554.047079 310.590431 
L 554.126173 310.846432 
L 554.403001 311.529884 
L 554.416183 311.518141 
L 555.299396 312.448199 
L 555.431219 312.503392 
L 555.470766 312.471685 
L 555.536677 312.513961 
L 555.760776 312.556236 
L 556.288068 312.664273 
L 556.47262 312.664273 
L 556.578078 312.690108 
L 556.749448 312.673668 
L 557.382197 312.614952 
L 557.408562 312.223905 
L 557.434926 305.263733 
L 557.461291 289.05817 
L 557.540385 305.604284 
L 557.579931 307.342272 
L 557.606296 304.218591 
L 557.68539 245.455811 
L 557.724936 282.587688 
L 557.751301 291.371572 
L 557.80403 274.144354 
L 557.817212 277.65556 
L 557.830395 278.007855 
L 557.856759 273.568939 
L 557.896306 287.707706 
L 558.054494 303.420056 
L 558.26541 307.07218 
L 558.674061 310.288632 
L 559.0168 311.471168 
L 559.280446 312.006656 
L 559.372722 312.108822 
L 559.504545 312.232125 
L 560.743679 312.785228 
L 560.756862 312.690108 
L 560.822773 312.706548 
L 560.849138 312.744127 
L 561.244606 312.842769 
L 561.402794 312.87565 
L 561.653257 312.522181 
L 561.679621 309.878795 
L 561.719168 296.655995 
L 561.78508 307.436218 
L 561.969632 310.811202 
L 562.272824 312.330767 
L 562.470558 312.556236 
L 562.602381 312.664273 
L 562.760569 312.690108 
L 562.773751 312.654879 
L 562.852845 312.120565 
L 562.892392 308.587047 
L 562.931938 269.247456 
L 562.945121 253.206297 
L 563.011032 297.48976 
L 563.195584 308.023376 
L 563.472412 311.127093 
L 563.788787 312.330767 
L 564.091979 312.715943 
L 564.118344 312.003133 
L 564.157891 222.791509 
L 564.250167 293.344424 
L 564.447901 306.074011 
L 564.737911 309.79307 
L 564.988375 311.39836 
L 565.436572 312.722206 
L 565.963864 313.146917 
L 566.385697 313.217611 
L 566.728436 313.141045 
L 566.767983 312.897962 
L 566.794347 310.195861 
L 566.820712 301.952161 
L 566.912988 307.412731 
L 567.110722 310.826468 
L 567.519373 312.513961 
L 567.743472 312.86743 
L 568.323492 313.105816 
L 568.60032 313.211974 
L 568.758508 313.23687 
L 568.77169 313.168994 
L 568.798054 312.565631 
L 568.877148 280.438689 
L 568.89033 258.608152 
L 568.982606 283.292277 
L 568.995789 282.247136 
L 569.008971 284.067326 
L 569.153976 302.997302 
L 569.417622 307.400988 
L 569.773543 310.457733 
L 569.879002 311.0719 
L 569.905366 310.855826 
L 570.024007 307.718053 
L 570.129465 256.764475 
L 570.15583 223.261235 
L 570.221741 284.865861 
L 570.379928 303.784094 
L 570.61721 306.473278 
L 570.986313 308.164294 
L 571.408147 310.945074 
L 571.750886 311.695462 
L 571.790433 311.7166 
L 571.843162 311.682545 
L 572.212266 312.141311 
L 573.095479 312.37774 
L 573.135026 312.245042 
L 573.227302 312.330767 
L 573.62277 312.424713 
L 573.820504 312.565631 
L 574.176426 312.459942 
L 574.281884 312.513961 
L 574.505983 312.58442 
L 574.532348 312.519832 
L 574.558712 310.862872 
L 574.598259 241.932862 
L 574.7169 278.230975 
L 574.730082 275.647479 
L 574.782811 284.807145 
L 574.795993 286.075407 
L 574.809176 281.624748 
L 574.83554 262.483395 
L 574.901452 293.285708 
L 574.914634 293.708462 
L 574.980545 181.573011 
L 575.033274 268.225801 
L 575.165097 298.440956 
L 575.415561 304.077673 
L 575.613295 305.874377 
L 575.652842 306.027038 
L 575.876941 306.719885 
L 575.903305 306.625939 
L 575.942852 303.725378 
L 576.127404 253.323729 
L 576.153768 227.9585 
L 576.21968 274.379218 
L 576.232862 275.459588 
L 576.259227 268.942134 
L 576.272409 261.543942 
L 576.351503 274.731512 
L 576.364685 276.586932 
L 576.377867 273.604169 
L 576.404232 251.327391 
L 576.470143 285.922745 
L 576.522872 284.290446 
L 576.641513 298.82848 
L 576.944705 305.111072 
L 577.195169 306.696398 
L 577.274263 307.013464 
L 577.524726 308.140807 
L 577.537908 308.129064 
L 577.564273 307.577136 
L 577.630184 291.230655 
L 577.696096 302.551062 
L 577.788372 306.391076 
L 577.814736 304.946667 
L 577.854283 299.967567 
L 577.920194 304.758777 
L 578.104746 307.530163 
L 578.289298 309.616923 
L 578.618855 311.682545 
L 578.803407 312.245042 
L 578.81659 312.218033 
L 578.842954 310.409586 
L 578.908866 198.835459 
L 578.948413 66.137733 
L 579.001142 253.206297 
L 579.132964 294.049013 
L 579.343881 300.120228 
L 579.475704 301.141883 
L 579.712985 305.122815 
L 579.937084 306.062268 
L 579.976631 305.88612 
L 580.016177 304.852722 
L 580.055724 226.431889 
L 580.134818 293.673232 
L 580.332552 304.441711 
L 580.569833 306.931262 
L 580.741203 307.92943 
L 581.189401 310.026759 
L 581.571687 310.79711 
L 581.584869 310.779496 
L 581.808968 310.88401 
L 581.953973 311.029625 
L 582.085796 311.114176 
L 582.257166 311.273883 
L 582.481264 311.320855 
L 582.57354 311.540453 
L 582.613087 311.471168 
L 582.652634 311.563939 
L 582.731728 311.459425 
L 582.863551 311.575682 
L 582.876733 311.565113 
L 583.03492 311.518141 
L 583.048103 311.541627 
L 583.20629 311.660233 
L 583.219472 311.644967 
L 583.311748 311.565113 
L 583.338113 311.607389 
L 583.443571 311.717774 
L 583.469936 311.769444 
L 583.522665 311.682545 
L 583.535847 311.682545 
L 584.142232 311.586251 
L 584.24769 311.607389 
L 584.405878 311.59682 
L 584.41906 311.754178 
L 584.432242 310.976781 
L 584.458607 298.922425 
L 584.484971 266.898824 
L 584.564065 301.235828 
L 584.735435 307.412731 
L 585.038627 309.808336 
L 585.368184 310.88401 
L 585.539554 311.114176 
L 585.658195 311.217516 
L 585.737288 311.563939 
L 585.816382 311.421847 
L 585.842747 305.621899 
L 586.000934 67.312049 
L 586.014116 79.7598 
L 586.172304 291.218911 
L 586.370038 298.887196 
L 586.580955 300.390321 
L 586.963241 302.926844 
L 587.319162 306.649426 
L 587.556443 308.211266 
L 587.793725 309.127233 
L 588.004641 309.615748 
L 588.070553 309.601657 
L 588.110099 309.643932 
L 588.162829 309.753143 
L 588.22874 309.950428 
L 588.281469 309.898759 
L 588.294651 309.872924 
L 588.373745 309.924594 
L 588.571479 310.305072 
L 588.597844 310.288632 
L 588.637391 309.884667 
L 588.716484 310.253402 
L 588.901036 310.606871 
L 588.98013 310.57399 
L 589.006495 310.623312 
L 589.204229 310.98735 
L 589.230593 310.807679 
L 589.362416 304.782263 
L 589.388781 306.872546 
L 589.546968 309.780153 
L 590.219265 310.973258 
L 590.337905 311.001441 
L 590.456546 311.165846 
L 590.496093 311.152928 
L 590.601551 311.217516 
L 590.733374 310.372008 
L 590.772921 310.55755 
L 590.970655 310.945074 
L 591.010202 310.904365 
L 591.062931 310.508229 
L 591.089295 300.942249 
L 591.128842 241.463136 
L 591.194754 295.364247 
L 591.366123 305.815661 
L 591.603404 308.305212 
L 592.196607 310.015016 
L 592.394341 310.339127 
L 592.684352 310.716083 
L 592.697534 310.57399 
L 592.842539 310.442467 
L 592.934815 310.508229 
L 593.053456 310.655018 
L 593.07982 310.639752 
L 593.264372 310.750138 
L 593.462106 310.827643 
L 594.17395 310.899276 
L 594.29259 311.001441 
L 594.345319 310.972084 
L 594.358502 310.733697 
L 594.450778 310.959166 
L 594.595783 311.242176 
L 594.608965 311.205772 
L 594.688059 310.306246 
L 594.819882 310.457733 
L 594.885793 310.78067 
L 594.938522 310.556376 
L 595.017616 310.093695 
L 595.04398 298.969398 
L 595.070345 259.899899 
L 595.149439 301.106653 
L 595.307626 307.26007 
L 595.571272 309.198866 
L 595.597636 309.005104 
L 595.610819 307.847228 
L 595.67673 170.299576 
L 595.729459 280.884929 
L 595.874464 300.143714 
L 596.296297 307.354015 
L 596.929047 310.639752 
L 596.994958 310.639752 
L 597.021323 309.845914 
L 597.17951 247.921874 
L 597.205875 263.528536 
L 597.364062 296.702968 
L 597.456338 302.527576 
L 597.482703 299.72096 
L 597.535432 284.748429 
L 597.588161 298.288295 
L 597.759531 305.639514 
L 598.009994 308.058605 
L 598.27364 310.061989 
L 598.603197 311.506397 
L 598.695473 311.735389 
L 599.038212 312.422364 
L 598.761384 311.684893 
L 599.051394 312.37774 
L 599.222764 312.471685 
L 599.235946 312.491649 
L 599.249129 312.401226 
L 599.341405 312.093555 
L 599.380952 312.216859 
L 599.433681 312.078289 
L 599.499592 312.459942 
L 599.512774 312.306107 
L 599.591868 312.521007 
L 599.644597 312.752347 
L 599.710509 312.63609 
L 599.934607 312.690108 
L 599.974154 312.834549 
L 600.053248 312.808714 
L 600.06643 312.733558 
L 600.119159 312.86743 
L 600.145524 312.834549 
L 600.224618 312.842769 
L 600.198253 312.768787 
L 600.250982 312.793448 
L 600.422352 312.801668 
L 600.685998 312.842769 
L 600.87055 312.900311 
L 600.936461 312.984861 
L 600.98919 312.941412 
L 601.028737 313.015394 
L 601.081466 313.014219 
L 601.094648 313.036531 
L 601.121013 312.87565 
L 601.186924 312.842769 
L 601.239653 312.87565 
L 601.424205 312.940237 
L 601.45057 296.503334 
L 601.490117 224.435551 
L 601.556028 271.314252 
L 601.608757 297.67765 
L 601.62194 293.039101 
L 601.661487 105.594756 
L 601.74058 245.690674 
L 601.872403 299.098573 
L 602.162413 305.580798 
L 602.360148 307.025207 
L 602.505153 307.694567 
L 602.702887 308.622277 
L 602.940168 310.167677 
L 603.203814 311.959683 
L 603.216996 311.297369 
L 603.309272 311.565113 
L 603.994751 312.941412 
L 604.179303 313.023614 
L 604.324308 313.190367 
L 604.33749 313.185669 
L 604.482495 312.977816 
L 604.535224 313.042403 
L 604.917511 313.23687 
L 605.365708 313.3388 
L 605.510713 313.367336 
L 605.537078 312.858035 
L 605.589807 289.210831 
L 605.655718 308.15255 
L 605.813906 311.471168 
L 606.143463 312.809888 
L 606.433473 313.117559 
L 606.59166 313.289831 
L 606.697119 313.286308 
L 606.815759 313.132825 
L 606.842124 311.794105 
L 606.881671 301.682068 
L 607.092587 312.365997 
L 607.329868 312.941412 
L 607.567149 313.157486 
L 608.133988 311.32203 
L 608.173534 311.55337 
L 608.542638 312.82398 
L 610.084966 313.338683 
L 610.098148 313.284312 
L 610.11133 310.626835 
L 610.164059 68.486365 
L 610.229971 260.874582 
L 610.2827 295.904433 
L 610.335429 255.789793 
L 610.480434 302.104822 
L 610.691351 304.5474 
L 611.15273 310.650321 
L 611.165913 310.24753 
L 611.20546 282.270622 
L 611.284553 307.565392 
L 611.482288 310.973258 
L 611.653657 312.077115 
L 611.798662 312.826329 
L 612.088673 313.036531 
L 612.167766 313.002476 
L 612.207313 313.036531 
L 612.470959 313.087027 
L 612.497323 313.03066 
L 612.576417 313.075284 
L 612.840063 313.129302 
L 612.932339 312.908531 
L 612.971886 312.986036 
L 613.156438 313.042403 
L 613.275078 313.111688 
L 613.28826 311.850472 
L 613.314625 297.137465 
L 613.393719 312.175758 
L 613.538724 313.088201 
L 614.435119 313.381076 
L 614.593306 313.381076 
L 614.883317 313.467036 
L 615.819259 313.521054 
L 615.858806 313.303336 
L 615.924717 313.397516 
L 616.096087 313.495454 
L 616.188363 313.450478 
L 616.201545 312.982043 
L 616.241092 287.919083 
L 616.320186 309.94808 
L 616.491555 312.25796 
L 616.715654 313.278206 
L 616.728836 313.085148 
L 616.794748 307.941174 
L 616.873841 311.832857 
L 617.058393 313.211974 
L 617.256128 313.363931 
L 617.38795 313.401391 
L 617.401133 313.181325 
L 617.427497 266.863594 
L 617.506591 307.976403 
L 617.55932 309.672116 
L 617.572502 309.45017 
L 617.612049 214.806159 
L 617.691143 299.192518 
L 617.717508 301.388489 
L 617.875695 308.587047 
L 618.007518 310.27454 
L 618.0207 309.343307 
L 618.047065 273.251874 
L 618.126158 306.391076 
L 618.284346 309.015673 
L 618.350257 310.373182 
L 618.547991 312.307281 
L 618.864366 313.03066 
L 619.048918 313.105816 
L 619.273017 313.206337 
L 619.378475 313.152789 
L 619.510298 313.05532 
L 619.576209 313.03066 
L 619.628939 313.068238 
L 619.734397 313.099944 
L 620.564881 313.384364 
L 620.578063 312.228132 
L 620.604428 295.44645 
L 620.683521 313.117559 
L 620.841709 313.374265 
L 621.329453 313.505553 
L 623.399072 313.49839 
L 623.425436 298.499672 
L 623.50453 310.802982 
L 623.807722 312.796971 
L 624.137279 313.328114 
L 624.42729 313.499682 
L 624.453654 249.213622 
L 624.532748 309.387931 
L 624.690935 310.895753 
L 624.88867 312.499869 
L 624.915034 312.324896 
L 624.954581 306.085754 
L 625.046857 309.339784 
L 625.191862 312.649007 
L 625.205044 312.692457 
L 625.218227 312.673668 
L 625.257774 308.293468 
L 625.323685 312.180455 
L 625.376414 312.673668 
L 625.389596 312.465814 
L 625.415961 298.746278 
L 625.455508 252.384276 
L 625.521419 305.428137 
L 625.666424 309.113141 
L 625.679607 308.338092 
L 625.692789 305.721716 
L 625.771883 309.960997 
L 626.048711 312.706548 
L 626.285992 313.313905 
L 626.813283 313.640365 
L 626.931924 313.645767 
L 626.945106 310.516919 
L 626.97147 206.233651 
L 627.050564 304.606116 
L 627.129658 308.082091 
L 627.14284 306.825573 
L 627.182387 267.110201 
L 627.248298 304.946667 
L 627.419668 309.488922 
L 627.722861 312.694805 
L 628.052418 313.428518 
L 628.276516 313.602787 
L 629.357464 313.623924 
L 629.383828 313.079042 
L 629.476104 313.371446 
L 629.673838 313.569319 
L 630.688874 313.68358 
L 631.005249 313.68311 
L 631.018431 312.332411 
L 631.031614 299.251234 
L 631.12389 313.009522 
L 631.347988 313.53268 
L 631.598452 313.651286 
L 632.204837 313.680526 
L 633.483518 313.68358 
L 636.344074 313.68358 
L 636.357256 313.210917 
L 636.396803 271.783979 
L 636.462714 312.112345 
L 636.541808 312.255611 
L 636.489079 312.05128 
L 636.594537 312.202767 
L 636.620902 312.189849 
L 636.884547 312.955504 
L 636.976823 122.387477 
L 637.01637 272.817377 
L 637.135011 305.663 
L 637.715031 312.404749 
L 637.952312 313.161009 
L 638.018224 313.235226 
L 638.031406 313.077632 
L 638.057771 312.54097 
L 638.136864 312.855687 
L 638.426875 313.319542 
L 639.652827 313.574955 
L 655.853853 313.548885 
L 655.8934 312.974293 
L 655.906582 304.136389 
L 655.998858 313.117559 
L 656.143863 313.564269 
L 656.565696 313.626508 
L 657.119352 313.61453 
L 657.39618 313.560159 
L 657.422545 313.007878 
L 657.448909 293.59103 
L 657.488456 209.05201 
L 657.554368 276.845282 
L 657.712555 304.394739 
L 658.226664 311.332599 
L 658.529856 312.482254 
L 658.556221 311.835206 
L 658.648497 312.016051 
L 658.925325 312.443502 
L 658.938507 312.415318 
L 658.978054 310.029108 
L 659.017601 296.996547 
L 659.083512 307.917687 
L 659.254882 311.082469 
L 659.610804 312.63609 
L 659.808538 313.138697 
L 659.99309 313.220664 
L 660.098548 313.300752 
L 660.124913 313.283373 
L 661.021308 313.212209 
L 661.153131 312.417667 
L 661.20586 271.607831 
L 661.337683 287.472843 
L 661.49587 306.943005 
L 661.746334 310.746615 
L 662.115438 312.87565 
L 662.181349 312.966072 
L 662.444995 313.204459 
L 663.077744 313.348665 
L 664.778259 313.459168 
L 665.47692 313.492753 
L 665.872388 313.387769 
L 665.885571 313.00365 
L 665.991029 241.110841 
L 666.030576 283.033928 
L 666.175581 303.243909 
L 666.491956 308.4109 
L 666.913789 311.754178 
L 667.177434 312.683062 
L 667.388351 312.996605 
L 667.414715 312.973118 
L 667.44108 312.900311 
L 667.546538 312.330767 
L 667.599267 312.542144 
L 667.797002 313.027137 
L 668.100194 313.094073 
L 668.245199 313.132825 
L 668.377022 313.087027 
L 668.456116 313.016568 
L 668.469298 312.384786 
L 668.508845 262.1311 
L 668.601121 299.955824 
L 668.772491 307.823742 
L 669.009772 310.65267 
L 669.497516 312.565631 
L 669.69525 312.800494 
L 670.552099 313.321655 
L 670.565281 313.29993 
L 670.683922 313.265053 
L 670.697104 313.278793 
L 671.145302 313.333398 
L 671.25076 313.341149 
L 671.3694 313.37356 
L 671.606681 313.370272 
L 672.028515 313.363696 
L 672.213066 313.374265 
L 672.648082 313.363696 
L 672.872181 313.363696 
L 673.649935 313.287365 
L 673.6763 313.023614 
L 673.755394 306.003552 
L 673.834487 310.058466 
L 674.005857 311.957335 
L 674.401326 312.957852 
L 674.691336 313.144568 
L 674.849523 313.185669 
L 675.113169 313.245677 
L 675.482273 313.317663 
L 675.482273 313.317663 
" clip-path="url(#p7cb5e9e603)" style="fill: none; stroke: #1f77b4; stroke-width: 1.5; stroke-linecap: square"/>
   </g>
   <g id="line2d_15">
    <path d="M 69.927727 313.613121 
L 675.482273 313.613121 
L 675.482273 313.613121 
" clip-path="url(#p7cb5e9e603)" style="fill: none; stroke: #ff7f0e; stroke-width: 1.5; stroke-linecap: square"/>
   </g>
   <g id="patch_3">
    <path d="M 39.65 327.558125 
L 39.65 22.318125 
" style="fill: none; stroke: #000000; stroke-width: 0.8; stroke-linejoin: miter; stroke-linecap: square"/>
   </g>
   <g id="patch_4">
    <path d="M 705.76 327.558125 
L 705.76 22.318125 
" style="fill: none; stroke: #000000; stroke-width: 0.8; stroke-linejoin: miter; stroke-linecap: square"/>
   </g>
   <g id="patch_5">
    <path d="M 39.65 327.558125 
L 705.76 327.558125 
" style="fill: none; stroke: #000000; stroke-width: 0.8; stroke-linejoin: miter; stroke-linecap: square"/>
   </g>
   <g id="patch_6">
    <path d="M 39.65 22.318125 
L 705.76 22.318125 
" style="fill: none; stroke: #000000; stroke-width: 0.8; stroke-linejoin: miter; stroke-linecap: square"/>
   </g>
   <g id="text_14">
    <!-- training -->
    <g transform="translate(349.461563 16.318125) scale(0.12 -0.12)">
     <defs>
      <path id="DejaVuSans-74" d="M 1172 4494 
L 1172 3500 
L 2356 3500 
L 2356 3053 
L 1172 3053 
L 1172 1153 
Q 1172 725 1289 603 
Q 1406 481 1766 481 
L 2356 481 
L 2356 0 
L 1766 0 
Q 1100 0 847 248 
Q 594 497 594 1153 
L 594 3053 
L 172 3053 
L 172 3500 
L 594 3500 
L 594 4494 
L 1172 4494 
z
" transform="scale(0.015625)"/>
      <path id="DejaVuSans-72" d="M 2631 2963 
Q 2534 3019 2420 3045 
Q 2306 3072 2169 3072 
Q 1681 3072 1420 2755 
Q 1159 2438 1159 1844 
L 1159 0 
L 581 0 
L 581 3500 
L 1159 3500 
L 1159 2956 
Q 1341 3275 1631 3429 
Q 1922 3584 2338 3584 
Q 2397 3584 2469 3576 
Q 2541 3569 2628 3553 
L 2631 2963 
z
" transform="scale(0.015625)"/>
      <path id="DejaVuSans-61" d="M 2194 1759 
Q 1497 1759 1228 1600 
Q 959 1441 959 1056 
Q 959 750 1161 570 
Q 1363 391 1709 391 
Q 2188 391 2477 730 
Q 2766 1069 2766 1631 
L 2766 1759 
L 2194 1759 
z
M 3341 1997 
L 3341 0 
L 2766 0 
L 2766 531 
Q 2569 213 2275 61 
Q 1981 -91 1556 -91 
Q 1019 -91 701 211 
Q 384 513 384 1019 
Q 384 1609 779 1909 
Q 1175 2209 1959 2209 
L 2766 2209 
L 2766 2266 
Q 2766 2663 2505 2880 
Q 2244 3097 1772 3097 
Q 1472 3097 1187 3025 
Q 903 2953 641 2809 
L 641 3341 
Q 956 3463 1253 3523 
Q 1550 3584 1831 3584 
Q 2591 3584 2966 3190 
Q 3341 2797 3341 1997 
z
" transform="scale(0.015625)"/>
      <path id="DejaVuSans-69" d="M 603 3500 
L 1178 3500 
L 1178 0 
L 603 0 
L 603 3500 
z
M 603 4863 
L 1178 4863 
L 1178 4134 
L 603 4134 
L 603 4863 
z
" transform="scale(0.015625)"/>
      <path id="DejaVuSans-6e" d="M 3513 2113 
L 3513 0 
L 2938 0 
L 2938 2094 
Q 2938 2591 2744 2837 
Q 2550 3084 2163 3084 
Q 1697 3084 1428 2787 
Q 1159 2491 1159 1978 
L 1159 0 
L 581 0 
L 581 3500 
L 1159 3500 
L 1159 2956 
Q 1366 3272 1645 3428 
Q 1925 3584 2291 3584 
Q 2894 3584 3203 3211 
Q 3513 2838 3513 2113 
z
" transform="scale(0.015625)"/>
      <path id="DejaVuSans-67" d="M 2906 1791 
Q 2906 2416 2648 2759 
Q 2391 3103 1925 3103 
Q 1463 3103 1205 2759 
Q 947 2416 947 1791 
Q 947 1169 1205 825 
Q 1463 481 1925 481 
Q 2391 481 2648 825 
Q 2906 1169 2906 1791 
z
M 3481 434 
Q 3481 -459 3084 -895 
Q 2688 -1331 1869 -1331 
Q 1566 -1331 1297 -1286 
Q 1028 -1241 775 -1147 
L 775 -588 
Q 1028 -725 1275 -790 
Q 1522 -856 1778 -856 
Q 2344 -856 2625 -561 
Q 2906 -266 2906 331 
L 2906 616 
Q 2728 306 2450 153 
Q 2172 0 1784 0 
Q 1141 0 747 490 
Q 353 981 353 1791 
Q 353 2603 747 3093 
Q 1141 3584 1784 3584 
Q 2172 3584 2450 3431 
Q 2728 3278 2906 2969 
L 2906 3500 
L 3481 3500 
L 3481 434 
z
" transform="scale(0.015625)"/>
     </defs>
     <use xlink:href="#DejaVuSans-74"/>
     <use xlink:href="#DejaVuSans-72" x="39.208984"/>
     <use xlink:href="#DejaVuSans-61" x="80.322266"/>
     <use xlink:href="#DejaVuSans-69" x="141.601562"/>
     <use xlink:href="#DejaVuSans-6e" x="169.384766"/>
     <use xlink:href="#DejaVuSans-69" x="232.763672"/>
     <use xlink:href="#DejaVuSans-6e" x="260.546875"/>
     <use xlink:href="#DejaVuSans-67" x="323.925781"/>
    </g>
   </g>
   <g id="legend_1">
    <g id="patch_7">
     <path d="M 617.36625 59.674375 
L 698.76 59.674375 
Q 700.76 59.674375 700.76 57.674375 
L 700.76 29.318125 
Q 700.76 27.318125 698.76 27.318125 
L 617.36625 27.318125 
Q 615.36625 27.318125 615.36625 29.318125 
L 615.36625 57.674375 
Q 615.36625 59.674375 617.36625 59.674375 
z
" style="fill: #ffffff; opacity: 0.8; stroke: #cccccc; stroke-linejoin: miter"/>
    </g>
    <g id="line2d_16">
     <path d="M 619.36625 35.416562 
L 629.36625 35.416562 
L 639.36625 35.416562 
" style="fill: none; stroke: #1f77b4; stroke-width: 1.5; stroke-linecap: square"/>
    </g>
    <g id="text_15">
     <!-- observed -->
     <g transform="translate(647.36625 38.916562) scale(0.1 -0.1)">
      <defs>
       <path id="DejaVuSans-6f" d="M 1959 3097 
Q 1497 3097 1228 2736 
Q 959 2375 959 1747 
Q 959 1119 1226 758 
Q 1494 397 1959 397 
Q 2419 397 2687 759 
Q 2956 1122 2956 1747 
Q 2956 2369 2687 2733 
Q 2419 3097 1959 3097 
z
M 1959 3584 
Q 2709 3584 3137 3096 
Q 3566 2609 3566 1747 
Q 3566 888 3137 398 
Q 2709 -91 1959 -91 
Q 1206 -91 779 398 
Q 353 888 353 1747 
Q 353 2609 779 3096 
Q 1206 3584 1959 3584 
z
" transform="scale(0.015625)"/>
       <path id="DejaVuSans-62" d="M 3116 1747 
Q 3116 2381 2855 2742 
Q 2594 3103 2138 3103 
Q 1681 3103 1420 2742 
Q 1159 2381 1159 1747 
Q 1159 1113 1420 752 
Q 1681 391 2138 391 
Q 2594 391 2855 752 
Q 3116 1113 3116 1747 
z
M 1159 2969 
Q 1341 3281 1617 3432 
Q 1894 3584 2278 3584 
Q 2916 3584 3314 3078 
Q 3713 2572 3713 1747 
Q 3713 922 3314 415 
Q 2916 -91 2278 -91 
Q 1894 -91 1617 61 
Q 1341 213 1159 525 
L 1159 0 
L 581 0 
L 581 4863 
L 1159 4863 
L 1159 2969 
z
" transform="scale(0.015625)"/>
       <path id="DejaVuSans-73" d="M 2834 3397 
L 2834 2853 
Q 2591 2978 2328 3040 
Q 2066 3103 1784 3103 
Q 1356 3103 1142 2972 
Q 928 2841 928 2578 
Q 928 2378 1081 2264 
Q 1234 2150 1697 2047 
L 1894 2003 
Q 2506 1872 2764 1633 
Q 3022 1394 3022 966 
Q 3022 478 2636 193 
Q 2250 -91 1575 -91 
Q 1294 -91 989 -36 
Q 684 19 347 128 
L 347 722 
Q 666 556 975 473 
Q 1284 391 1588 391 
Q 1994 391 2212 530 
Q 2431 669 2431 922 
Q 2431 1156 2273 1281 
Q 2116 1406 1581 1522 
L 1381 1569 
Q 847 1681 609 1914 
Q 372 2147 372 2553 
Q 372 3047 722 3315 
Q 1072 3584 1716 3584 
Q 2034 3584 2315 3537 
Q 2597 3491 2834 3397 
z
" transform="scale(0.015625)"/>
       <path id="DejaVuSans-65" d="M 3597 1894 
L 3597 1613 
L 953 1613 
Q 991 1019 1311 708 
Q 1631 397 2203 397 
Q 2534 397 2845 478 
Q 3156 559 3463 722 
L 3463 178 
Q 3153 47 2828 -22 
Q 2503 -91 2169 -91 
Q 1331 -91 842 396 
Q 353 884 353 1716 
Q 353 2575 817 3079 
Q 1281 3584 2069 3584 
Q 2775 3584 3186 3129 
Q 3597 2675 3597 1894 
z
M 3022 2063 
Q 3016 2534 2758 2815 
Q 2500 3097 2075 3097 
Q 1594 3097 1305 2825 
Q 1016 2553 972 2059 
L 3022 2063 
z
" transform="scale(0.015625)"/>
       <path id="DejaVuSans-76" d="M 191 3500 
L 800 3500 
L 1894 563 
L 2988 3500 
L 3597 3500 
L 2284 0 
L 1503 0 
L 191 3500 
z
" transform="scale(0.015625)"/>
       <path id="DejaVuSans-64" d="M 2906 2969 
L 2906 4863 
L 3481 4863 
L 3481 0 
L 2906 0 
L 2906 525 
Q 2725 213 2448 61 
Q 2172 -91 1784 -91 
Q 1150 -91 751 415 
Q 353 922 353 1747 
Q 353 2572 751 3078 
Q 1150 3584 1784 3584 
Q 2172 3584 2448 3432 
Q 2725 3281 2906 2969 
z
M 947 1747 
Q 947 1113 1208 752 
Q 1469 391 1925 391 
Q 2381 391 2643 752 
Q 2906 1113 2906 1747 
Q 2906 2381 2643 2742 
Q 2381 3103 1925 3103 
Q 1469 3103 1208 2742 
Q 947 2381 947 1747 
z
" transform="scale(0.015625)"/>
      </defs>
      <use xlink:href="#DejaVuSans-6f"/>
      <use xlink:href="#DejaVuSans-62" x="61.181641"/>
      <use xlink:href="#DejaVuSans-73" x="124.658203"/>
      <use xlink:href="#DejaVuSans-65" x="176.757812"/>
      <use xlink:href="#DejaVuSans-72" x="238.28125"/>
      <use xlink:href="#DejaVuSans-76" x="279.394531"/>
      <use xlink:href="#DejaVuSans-65" x="338.574219"/>
      <use xlink:href="#DejaVuSans-64" x="400.097656"/>
     </g>
    </g>
    <g id="line2d_17">
     <path d="M 619.36625 50.094688 
L 629.36625 50.094688 
L 639.36625 50.094688 
" style="fill: none; stroke: #ff7f0e; stroke-width: 1.5; stroke-linecap: square"/>
    </g>
    <g id="text_16">
     <!-- simulated -->
     <g transform="translate(647.36625 53.594688) scale(0.1 -0.1)">
      <defs>
       <path id="DejaVuSans-6d" d="M 3328 2828 
Q 3544 3216 3844 3400 
Q 4144 3584 4550 3584 
Q 5097 3584 5394 3201 
Q 5691 2819 5691 2113 
L 5691 0 
L 5113 0 
L 5113 2094 
Q 5113 2597 4934 2840 
Q 4756 3084 4391 3084 
Q 3944 3084 3684 2787 
Q 3425 2491 3425 1978 
L 3425 0 
L 2847 0 
L 2847 2094 
Q 2847 2600 2669 2842 
Q 2491 3084 2119 3084 
Q 1678 3084 1418 2786 
Q 1159 2488 1159 1978 
L 1159 0 
L 581 0 
L 581 3500 
L 1159 3500 
L 1159 2956 
Q 1356 3278 1631 3431 
Q 1906 3584 2284 3584 
Q 2666 3584 2933 3390 
Q 3200 3197 3328 2828 
z
" transform="scale(0.015625)"/>
       <path id="DejaVuSans-75" d="M 544 1381 
L 544 3500 
L 1119 3500 
L 1119 1403 
Q 1119 906 1312 657 
Q 1506 409 1894 409 
Q 2359 409 2629 706 
Q 2900 1003 2900 1516 
L 2900 3500 
L 3475 3500 
L 3475 0 
L 2900 0 
L 2900 538 
Q 2691 219 2414 64 
Q 2138 -91 1772 -91 
Q 1169 -91 856 284 
Q 544 659 544 1381 
z
M 1991 3584 
L 1991 3584 
z
" transform="scale(0.015625)"/>
       <path id="DejaVuSans-6c" d="M 603 4863 
L 1178 4863 
L 1178 0 
L 603 0 
L 603 4863 
z
" transform="scale(0.015625)"/>
      </defs>
      <use xlink:href="#DejaVuSans-73"/>
      <use xlink:href="#DejaVuSans-69" x="52.099609"/>
      <use xlink:href="#DejaVuSans-6d" x="79.882812"/>
      <use xlink:href="#DejaVuSans-75" x="177.294922"/>
      <use xlink:href="#DejaVuSans-6c" x="240.673828"/>
      <use xlink:href="#DejaVuSans-61" x="268.457031"/>
      <use xlink:href="#DejaVuSans-74" x="329.736328"/>
      <use xlink:href="#DejaVuSans-65" x="368.945312"/>
      <use xlink:href="#DejaVuSans-64" x="430.46875"/>
     </g>
    </g>
   </g>
  </g>
 </g>
 <defs>
  <clipPath id="p7cb5e9e603">
   <rect x="39.65" y="22.318125" width="666.11" height="305.24"/>
  </clipPath>
 </defs>
</svg>
