<?xml version="1.0" encoding="utf-8" standalone="no"?>
<!DOCTYPE svg PUBLIC "-//W3C//DTD SVG 1.1//EN"
  "http://www.w3.org/Graphics/SVG/1.1/DTD/svg11.dtd">
<svg xmlns:xlink="http://www.w3.org/1999/xlink" width="711.415525pt" height="351.43625pt" viewBox="0 0 711.415525 351.43625" xmlns="http://www.w3.org/2000/svg" version="1.1">
 <metadata>
  <rdf:RDF xmlns:dc="http://purl.org/dc/elements/1.1/" xmlns:cc="http://creativecommons.org/ns#" xmlns:rdf="http://www.w3.org/1999/02/22-rdf-syntax-ns#">
   <cc:Work>
    <dc:type rdf:resource="http://purl.org/dc/dcmitype/StillImage"/>
    <dc:date>2023-10-21T11:35:45.967261</dc:date>
    <dc:format>image/svg+xml</dc:format>
    <dc:creator>
     <cc:Agent>
      <dc:title>Matplotlib v3.7.1, https://matplotlib.org/</dc:title>
     </cc:Agent>
    </dc:creator>
   </cc:Work>
  </rdf:RDF>
 </metadata>
 <defs>
  <style type="text/css">*{stroke-linejoin: round; stroke-linecap: butt}</style>
 </defs>
 <g id="figure_1">
  <g id="patch_1">
   <path d="M -0 351.43625 
L 711.415525 351.43625 
L 711.415525 0 
L -0 0 
z
" style="fill: #ffffff"/>
  </g>
  <g id="axes_1">
   <g id="patch_2">
    <path d="M 41.667188 327.558125 
L 694.591371 327.558125 
L 694.591371 22.318125 
L 41.667188 22.318125 
z
" style="fill: #ffffff"/>
   </g>
   <g id="matplotlib.axis_1">
    <g id="xtick_1">
     <g id="line2d_1">
      <defs>
       <path id="m0d125a78b9" d="M 0 0 
L 0 3.5 
" style="stroke: #000000; stroke-width: 0.8"/>
      </defs>
      <g>
       <use xlink:href="#m0d125a78b9" x="81.933424" y="327.558125" style="stroke: #000000; stroke-width: 0.8"/>
      </g>
     </g>
     <g id="text_1">
      <!-- 2022-09 -->
      <g transform="translate(61.042018 342.156563) scale(0.1 -0.1)">
       <defs>
        <path id="DejaVuSans-32" d="M 1228 531 
L 3431 531 
L 3431 0 
L 469 0 
L 469 531 
Q 828 903 1448 1529 
Q 2069 2156 2228 2338 
Q 2531 2678 2651 2914 
Q 2772 3150 2772 3378 
Q 2772 3750 2511 3984 
Q 2250 4219 1831 4219 
Q 1534 4219 1204 4116 
Q 875 4013 500 3803 
L 500 4441 
Q 881 4594 1212 4672 
Q 1544 4750 1819 4750 
Q 2544 4750 2975 4387 
Q 3406 4025 3406 3419 
Q 3406 3131 3298 2873 
Q 3191 2616 2906 2266 
Q 2828 2175 2409 1742 
Q 1991 1309 1228 531 
z
" transform="scale(0.015625)"/>
        <path id="DejaVuSans-30" d="M 2034 4250 
Q 1547 4250 1301 3770 
Q 1056 3291 1056 2328 
Q 1056 1369 1301 889 
Q 1547 409 2034 409 
Q 2525 409 2770 889 
Q 3016 1369 3016 2328 
Q 3016 3291 2770 3770 
Q 2525 4250 2034 4250 
z
M 2034 4750 
Q 2819 4750 3233 4129 
Q 3647 3509 3647 2328 
Q 3647 1150 3233 529 
Q 2819 -91 2034 -91 
Q 1250 -91 836 529 
Q 422 1150 422 2328 
Q 422 3509 836 4129 
Q 1250 4750 2034 4750 
z
" transform="scale(0.015625)"/>
        <path id="DejaVuSans-2d" d="M 313 2009 
L 1997 2009 
L 1997 1497 
L 313 1497 
L 313 2009 
z
" transform="scale(0.015625)"/>
        <path id="DejaVuSans-39" d="M 703 97 
L 703 672 
Q 941 559 1184 500 
Q 1428 441 1663 441 
Q 2288 441 2617 861 
Q 2947 1281 2994 2138 
Q 2813 1869 2534 1725 
Q 2256 1581 1919 1581 
Q 1219 1581 811 2004 
Q 403 2428 403 3163 
Q 403 3881 828 4315 
Q 1253 4750 1959 4750 
Q 2769 4750 3195 4129 
Q 3622 3509 3622 2328 
Q 3622 1225 3098 567 
Q 2575 -91 1691 -91 
Q 1453 -91 1209 -44 
Q 966 3 703 97 
z
M 1959 2075 
Q 2384 2075 2632 2365 
Q 2881 2656 2881 3163 
Q 2881 3666 2632 3958 
Q 2384 4250 1959 4250 
Q 1534 4250 1286 3958 
Q 1038 3666 1038 3163 
Q 1038 2656 1286 2365 
Q 1534 2075 1959 2075 
z
" transform="scale(0.015625)"/>
       </defs>
       <use xlink:href="#DejaVuSans-32"/>
       <use xlink:href="#DejaVuSans-30" x="63.623047"/>
       <use xlink:href="#DejaVuSans-32" x="127.246094"/>
       <use xlink:href="#DejaVuSans-32" x="190.869141"/>
       <use xlink:href="#DejaVuSans-2d" x="254.492188"/>
       <use xlink:href="#DejaVuSans-30" x="290.576172"/>
       <use xlink:href="#DejaVuSans-39" x="354.199219"/>
      </g>
     </g>
    </g>
    <g id="xtick_2">
     <g id="line2d_2">
      <g>
       <use xlink:href="#m0d125a78b9" x="168.048054" y="327.558125" style="stroke: #000000; stroke-width: 0.8"/>
      </g>
     </g>
     <g id="text_2">
      <!-- 2022-11 -->
      <g transform="translate(147.156648 342.156563) scale(0.1 -0.1)">
       <defs>
        <path id="DejaVuSans-31" d="M 794 531 
L 1825 531 
L 1825 4091 
L 703 3866 
L 703 4441 
L 1819 4666 
L 2450 4666 
L 2450 531 
L 3481 531 
L 3481 0 
L 794 0 
L 794 531 
z
" transform="scale(0.015625)"/>
       </defs>
       <use xlink:href="#DejaVuSans-32"/>
       <use xlink:href="#DejaVuSans-30" x="63.623047"/>
       <use xlink:href="#DejaVuSans-32" x="127.246094"/>
       <use xlink:href="#DejaVuSans-32" x="190.869141"/>
       <use xlink:href="#DejaVuSans-2d" x="254.492188"/>
       <use xlink:href="#DejaVuSans-31" x="290.576172"/>
       <use xlink:href="#DejaVuSans-31" x="354.199219"/>
      </g>
     </g>
    </g>
    <g id="xtick_3">
     <g id="line2d_3">
      <g>
       <use xlink:href="#m0d125a78b9" x="254.162684" y="327.558125" style="stroke: #000000; stroke-width: 0.8"/>
      </g>
     </g>
     <g id="text_3">
      <!-- 2023-01 -->
      <g transform="translate(233.271278 342.156563) scale(0.1 -0.1)">
       <defs>
        <path id="DejaVuSans-33" d="M 2597 2516 
Q 3050 2419 3304 2112 
Q 3559 1806 3559 1356 
Q 3559 666 3084 287 
Q 2609 -91 1734 -91 
Q 1441 -91 1130 -33 
Q 819 25 488 141 
L 488 750 
Q 750 597 1062 519 
Q 1375 441 1716 441 
Q 2309 441 2620 675 
Q 2931 909 2931 1356 
Q 2931 1769 2642 2001 
Q 2353 2234 1838 2234 
L 1294 2234 
L 1294 2753 
L 1863 2753 
Q 2328 2753 2575 2939 
Q 2822 3125 2822 3475 
Q 2822 3834 2567 4026 
Q 2313 4219 1838 4219 
Q 1578 4219 1281 4162 
Q 984 4106 628 3988 
L 628 4550 
Q 988 4650 1302 4700 
Q 1616 4750 1894 4750 
Q 2613 4750 3031 4423 
Q 3450 4097 3450 3541 
Q 3450 3153 3228 2886 
Q 3006 2619 2597 2516 
z
" transform="scale(0.015625)"/>
       </defs>
       <use xlink:href="#DejaVuSans-32"/>
       <use xlink:href="#DejaVuSans-30" x="63.623047"/>
       <use xlink:href="#DejaVuSans-32" x="127.246094"/>
       <use xlink:href="#DejaVuSans-33" x="190.869141"/>
       <use xlink:href="#DejaVuSans-2d" x="254.492188"/>
       <use xlink:href="#DejaVuSans-30" x="290.576172"/>
       <use xlink:href="#DejaVuSans-31" x="354.199219"/>
      </g>
     </g>
    </g>
    <g id="xtick_4">
     <g id="line2d_4">
      <g>
       <use xlink:href="#m0d125a78b9" x="337.453883" y="327.558125" style="stroke: #000000; stroke-width: 0.8"/>
      </g>
     </g>
     <g id="text_4">
      <!-- 2023-03 -->
      <g transform="translate(316.562477 342.156563) scale(0.1 -0.1)">
       <use xlink:href="#DejaVuSans-32"/>
       <use xlink:href="#DejaVuSans-30" x="63.623047"/>
       <use xlink:href="#DejaVuSans-32" x="127.246094"/>
       <use xlink:href="#DejaVuSans-33" x="190.869141"/>
       <use xlink:href="#DejaVuSans-2d" x="254.492188"/>
       <use xlink:href="#DejaVuSans-30" x="290.576172"/>
       <use xlink:href="#DejaVuSans-33" x="354.199219"/>
      </g>
     </g>
    </g>
    <g id="xtick_5">
     <g id="line2d_5">
      <g>
       <use xlink:href="#m0d125a78b9" x="423.568513" y="327.558125" style="stroke: #000000; stroke-width: 0.8"/>
      </g>
     </g>
     <g id="text_5">
      <!-- 2023-05 -->
      <g transform="translate(402.677107 342.156563) scale(0.1 -0.1)">
       <defs>
        <path id="DejaVuSans-35" d="M 691 4666 
L 3169 4666 
L 3169 4134 
L 1269 4134 
L 1269 2991 
Q 1406 3038 1543 3061 
Q 1681 3084 1819 3084 
Q 2600 3084 3056 2656 
Q 3513 2228 3513 1497 
Q 3513 744 3044 326 
Q 2575 -91 1722 -91 
Q 1428 -91 1123 -41 
Q 819 9 494 109 
L 494 744 
Q 775 591 1075 516 
Q 1375 441 1709 441 
Q 2250 441 2565 725 
Q 2881 1009 2881 1497 
Q 2881 1984 2565 2268 
Q 2250 2553 1709 2553 
Q 1456 2553 1204 2497 
Q 953 2441 691 2322 
L 691 4666 
z
" transform="scale(0.015625)"/>
       </defs>
       <use xlink:href="#DejaVuSans-32"/>
       <use xlink:href="#DejaVuSans-30" x="63.623047"/>
       <use xlink:href="#DejaVuSans-32" x="127.246094"/>
       <use xlink:href="#DejaVuSans-33" x="190.869141"/>
       <use xlink:href="#DejaVuSans-2d" x="254.492188"/>
       <use xlink:href="#DejaVuSans-30" x="290.576172"/>
       <use xlink:href="#DejaVuSans-35" x="354.199219"/>
      </g>
     </g>
    </g>
    <g id="xtick_6">
     <g id="line2d_6">
      <g>
       <use xlink:href="#m0d125a78b9" x="509.683143" y="327.558125" style="stroke: #000000; stroke-width: 0.8"/>
      </g>
     </g>
     <g id="text_6">
      <!-- 2023-07 -->
      <g transform="translate(488.791737 342.156563) scale(0.1 -0.1)">
       <defs>
        <path id="DejaVuSans-37" d="M 525 4666 
L 3525 4666 
L 3525 4397 
L 1831 0 
L 1172 0 
L 2766 4134 
L 525 4134 
L 525 4666 
z
" transform="scale(0.015625)"/>
       </defs>
       <use xlink:href="#DejaVuSans-32"/>
       <use xlink:href="#DejaVuSans-30" x="63.623047"/>
       <use xlink:href="#DejaVuSans-32" x="127.246094"/>
       <use xlink:href="#DejaVuSans-33" x="190.869141"/>
       <use xlink:href="#DejaVuSans-2d" x="254.492188"/>
       <use xlink:href="#DejaVuSans-30" x="290.576172"/>
       <use xlink:href="#DejaVuSans-37" x="354.199219"/>
      </g>
     </g>
    </g>
    <g id="xtick_7">
     <g id="line2d_7">
      <g>
       <use xlink:href="#m0d125a78b9" x="597.209489" y="327.558125" style="stroke: #000000; stroke-width: 0.8"/>
      </g>
     </g>
     <g id="text_7">
      <!-- 2023-09 -->
      <g transform="translate(576.318082 342.156563) scale(0.1 -0.1)">
       <use xlink:href="#DejaVuSans-32"/>
       <use xlink:href="#DejaVuSans-30" x="63.623047"/>
       <use xlink:href="#DejaVuSans-32" x="127.246094"/>
       <use xlink:href="#DejaVuSans-33" x="190.869141"/>
       <use xlink:href="#DejaVuSans-2d" x="254.492188"/>
       <use xlink:href="#DejaVuSans-30" x="290.576172"/>
       <use xlink:href="#DejaVuSans-39" x="354.199219"/>
      </g>
     </g>
    </g>
    <g id="xtick_8">
     <g id="line2d_8">
      <g>
       <use xlink:href="#m0d125a78b9" x="683.324119" y="327.558125" style="stroke: #000000; stroke-width: 0.8"/>
      </g>
     </g>
     <g id="text_8">
      <!-- 2023-11 -->
      <g transform="translate(662.432712 342.156563) scale(0.1 -0.1)">
       <use xlink:href="#DejaVuSans-32"/>
       <use xlink:href="#DejaVuSans-30" x="63.623047"/>
       <use xlink:href="#DejaVuSans-32" x="127.246094"/>
       <use xlink:href="#DejaVuSans-33" x="190.869141"/>
       <use xlink:href="#DejaVuSans-2d" x="254.492188"/>
       <use xlink:href="#DejaVuSans-31" x="290.576172"/>
       <use xlink:href="#DejaVuSans-31" x="354.199219"/>
      </g>
     </g>
    </g>
   </g>
   <g id="matplotlib.axis_2">
    <g id="ytick_1">
     <g id="line2d_9">
      <defs>
       <path id="m2b2a1a87ec" d="M 0 0 
L -3.5 0 
" style="stroke: #000000; stroke-width: 0.8"/>
      </defs>
      <g>
       <use xlink:href="#m2b2a1a87ec" x="41.667188" y="297.07076" style="stroke: #000000; stroke-width: 0.8"/>
      </g>
     </g>
     <g id="text_9">
      <!-- −350 -->
      <g transform="translate(7.2 300.869979) scale(0.1 -0.1)">
       <defs>
        <path id="DejaVuSans-2212" d="M 678 2272 
L 4684 2272 
L 4684 1741 
L 678 1741 
L 678 2272 
z
" transform="scale(0.015625)"/>
       </defs>
       <use xlink:href="#DejaVuSans-2212"/>
       <use xlink:href="#DejaVuSans-33" x="83.789062"/>
       <use xlink:href="#DejaVuSans-35" x="147.412109"/>
       <use xlink:href="#DejaVuSans-30" x="211.035156"/>
      </g>
     </g>
    </g>
    <g id="ytick_2">
     <g id="line2d_10">
      <g>
       <use xlink:href="#m2b2a1a87ec" x="41.667188" y="259.96393" style="stroke: #000000; stroke-width: 0.8"/>
      </g>
     </g>
     <g id="text_10">
      <!-- −300 -->
      <g transform="translate(7.2 263.763149) scale(0.1 -0.1)">
       <use xlink:href="#DejaVuSans-2212"/>
       <use xlink:href="#DejaVuSans-33" x="83.789062"/>
       <use xlink:href="#DejaVuSans-30" x="147.412109"/>
       <use xlink:href="#DejaVuSans-30" x="211.035156"/>
      </g>
     </g>
    </g>
    <g id="ytick_3">
     <g id="line2d_11">
      <g>
       <use xlink:href="#m2b2a1a87ec" x="41.667188" y="222.857101" style="stroke: #000000; stroke-width: 0.8"/>
      </g>
     </g>
     <g id="text_11">
      <!-- −250 -->
      <g transform="translate(7.2 226.65632) scale(0.1 -0.1)">
       <use xlink:href="#DejaVuSans-2212"/>
       <use xlink:href="#DejaVuSans-32" x="83.789062"/>
       <use xlink:href="#DejaVuSans-35" x="147.412109"/>
       <use xlink:href="#DejaVuSans-30" x="211.035156"/>
      </g>
     </g>
    </g>
    <g id="ytick_4">
     <g id="line2d_12">
      <g>
       <use xlink:href="#m2b2a1a87ec" x="41.667188" y="185.750272" style="stroke: #000000; stroke-width: 0.8"/>
      </g>
     </g>
     <g id="text_12">
      <!-- −200 -->
      <g transform="translate(7.2 189.549491) scale(0.1 -0.1)">
       <use xlink:href="#DejaVuSans-2212"/>
       <use xlink:href="#DejaVuSans-32" x="83.789062"/>
       <use xlink:href="#DejaVuSans-30" x="147.412109"/>
       <use xlink:href="#DejaVuSans-30" x="211.035156"/>
      </g>
     </g>
    </g>
    <g id="ytick_5">
     <g id="line2d_13">
      <g>
       <use xlink:href="#m2b2a1a87ec" x="41.667188" y="148.643442" style="stroke: #000000; stroke-width: 0.8"/>
      </g>
     </g>
     <g id="text_13">
      <!-- −150 -->
      <g transform="translate(7.2 152.442661) scale(0.1 -0.1)">
       <use xlink:href="#DejaVuSans-2212"/>
       <use xlink:href="#DejaVuSans-31" x="83.789062"/>
       <use xlink:href="#DejaVuSans-35" x="147.412109"/>
       <use xlink:href="#DejaVuSans-30" x="211.035156"/>
      </g>
     </g>
    </g>
    <g id="ytick_6">
     <g id="line2d_14">
      <g>
       <use xlink:href="#m2b2a1a87ec" x="41.667188" y="111.536613" style="stroke: #000000; stroke-width: 0.8"/>
      </g>
     </g>
     <g id="text_14">
      <!-- −100 -->
      <g transform="translate(7.2 115.335832) scale(0.1 -0.1)">
       <use xlink:href="#DejaVuSans-2212"/>
       <use xlink:href="#DejaVuSans-31" x="83.789062"/>
       <use xlink:href="#DejaVuSans-30" x="147.412109"/>
       <use xlink:href="#DejaVuSans-30" x="211.035156"/>
      </g>
     </g>
    </g>
    <g id="ytick_7">
     <g id="line2d_15">
      <g>
       <use xlink:href="#m2b2a1a87ec" x="41.667188" y="74.429784" style="stroke: #000000; stroke-width: 0.8"/>
      </g>
     </g>
     <g id="text_15">
      <!-- −50 -->
      <g transform="translate(13.5625 78.229002) scale(0.1 -0.1)">
       <use xlink:href="#DejaVuSans-2212"/>
       <use xlink:href="#DejaVuSans-35" x="83.789062"/>
       <use xlink:href="#DejaVuSans-30" x="147.412109"/>
      </g>
     </g>
    </g>
    <g id="ytick_8">
     <g id="line2d_16">
      <g>
       <use xlink:href="#m2b2a1a87ec" x="41.667188" y="37.322954" style="stroke: #000000; stroke-width: 0.8"/>
      </g>
     </g>
     <g id="text_16">
      <!-- 0 -->
      <g transform="translate(28.304688 41.122173) scale(0.1 -0.1)">
       <use xlink:href="#DejaVuSans-30"/>
      </g>
     </g>
    </g>
   </g>
   <g id="line2d_17">
    <path d="M 71.345559 37.232077 
L 78.110028 37.127001 
L 78.462957 37.11483 
L 84.345104 37.176496 
L 85.050962 37.165137 
L 149.754577 37.275893 
L 153.166222 37.201244 
L 153.636794 37.197593 
L 156.107296 37.339588 
L 156.636689 37.359873 
L 157.460189 37.339588 
L 160.871835 37.210981 
L 161.695335 37.26859 
L 168.69509 37.183799 
L 171.871449 37.249117 
L 172.224378 37.218283 
L 172.871414 37.195158 
L 177.577132 37.202461 
L 178.753561 37.384215 
L 179.224133 37.330257 
L 180.165276 37.204084 
L 182.812242 37.200433 
L 185.694494 37.292527 
L 195.223572 37.197998 
L 195.92943 37.22802 
L 196.34118 37.223558 
L 199.51754 37.245465 
L 202.811542 37.251957 
L 205.576151 37.191101 
L 207.105509 37.24222 
L 219.516839 37.18177 
L 225.398986 37.194753 
L 228.104773 37.193536 
L 237.692673 37.150126 
L 239.57496 37.206924 
L 241.692533 37.204084 
L 242.574855 37.137549 
L 243.280712 37.125784 
L 243.927748 37.123755 
L 244.868892 37.158645 
L 245.927678 37.192724 
L 247.398215 37.196376 
L 253.162719 37.130246 
L 253.927398 37.106716 
L 256.280257 37.208141 
L 258.162544 37.215038 
L 259.63308 37.247088 
L 263.985869 37.23086 
L 264.868191 37.327011 
L 265.338763 37.316463 
L 267.279871 37.299424 
L 269.103337 37.255202 
L 271.867946 37.232889 
L 277.338342 37.165137 
L 277.338342 37.165137 
L 278.808879 37.110773 
L 280.161773 37.192319 
L 280.926452 37.200027 
L 281.338202 37.226397 
L 284.279276 37.218283 
L 284.985133 37.277922 
L 285.690991 37.292527 
L 287.279171 37.170816 
L 288.984993 37.157428 
L 289.337922 37.177713 
L 291.396673 37.284413 
L 292.573103 37.267373 
L 293.396603 37.232889 
L 294.690676 37.165542 
L 295.455355 37.17609 
L 296.808249 37.186233 
L 298.45525 37.24506 
L 301.984538 37.208141 
L 303.337432 37.209358 
L 305.219719 37.215849 
L 306.572612 37.195158 
L 310.572472 37.14688 
L 311.219508 37.14972 
L 312.690045 37.260476 
L 314.395868 37.287253 
L 315.042904 37.260071 
L 318.336906 37.200433 
L 318.925121 37.181365 
L 319.807443 37.140794 
L 320.336836 37.176902 
L 322.572052 37.22518 
L 323.924946 37.200433 
L 328.042448 37.393546 
L 328.807128 37.372856 
L 329.336521 37.297395 
L 330.9247 37.143229 
L 332.336416 37.209358 
L 333.101095 37.178525 
L 333.689309 37.186639 
L 335.218668 37.25074 
L 335.512775 37.249117 
L 347.629997 37.227615 
L 348.92407 37.211792 
L 353.512144 37.228426 
L 355.33561 37.223558 
L 359.923684 37.211792 
L 361.100114 37.153777 
L 361.511864 37.298207 
L 362.217722 37.423568 
L 363.452973 37.102659 
L 363.982366 37.04302 
L 364.511759 37.220718 
L 365.099974 37.322143 
L 365.394081 37.309972 
L 365.923474 37.281573 
L 369.041012 37.168382 
L 369.923334 37.208141 
L 371.393871 37.180148 
L 373.099693 37.208547 
L 373.687908 37.26859 
L 375.452552 37.243843 
L 376.805446 37.254391 
L 378.040697 37.217878 
L 379.39359 37.258448 
L 380.040627 37.217878 
L 381.099413 37.165542 
L 381.687628 37.195158 
L 381.922914 37.173251 
L 383.864022 37.126189 
L 384.746344 36.963909 
L 385.452202 37.108744 
L 389.687347 37.232889 
L 389.922633 37.24222 
L 390.334384 37.177713 
L 390.687312 37.210575 
L 390.863777 37.206112 
L 391.099063 37.22518 
L 391.569634 37.275487 
L 391.80492 37.285224 
L 392.746064 37.311595 
L 393.334279 37.296178 
L 393.981315 37.309972 
L 394.393065 37.280356 
L 394.863637 37.299829 
L 394.922458 37.170411 
L 394.98128 37.284413 
L 395.981245 37.408963 
L 396.216531 37.324171 
L 396.510638 37.248305 
L 396.569459 37.102253 
L 396.628281 37.234106 
L 397.745889 37.079939 
L 398.392925 37.142417 
L 398.628211 37.173251 
L 399.039961 37.276299 
L 399.098782 36.987439 
L 399.157604 37.253174 
L 399.686997 37.093733 
L 400.039926 37.073854 
L 400.334033 37.091705 
L 400.392855 37.118075 
L 400.451676 36.518043 
L 400.569319 37.180148 
L 401.745749 37.313623 
L 401.922213 36.876277 
L 401.981034 37.275082 
L 402.039856 37.251551 
L 402.863356 37.107121 
L 403.628036 37.108338 
L 407.039681 37.309161 
L 408.157289 37.138766 
L 408.921968 37.014216 
L 409.510182 37.206518 
L 410.274862 37.359062 
L 411.80422 37.259665 
L 413.686507 37.159457 
L 415.215865 37.216661 
L 419.862761 37.230049 
L 420.62744 37.238568 
L 423.803799 37.192319 
L 425.391979 37.206924 
L 427.627195 37.22518 
L 428.921267 37.249117 
L 430.097696 37.205707 
L 432.450555 37.225992 
L 433.391699 37.142823 
L 434.568128 37.26575 
L 435.979843 37.214226 
L 437.03863 37.28563 
L 437.097451 37.173656 
L 437.273916 37.312406 
L 438.273881 37.09211 
L 438.450345 37.061683 
L 438.567988 36.934698 
L 438.744452 37.056409 
L 439.273846 37.056003 
L 439.920882 37.075477 
L 440.097346 36.328986 
L 440.156168 36.462462 
L 440.27381 37.136737 
L 441.097311 37.23654 
L 441.685526 37.201244 
L 443.332527 37.150937 
L 444.27367 37.222746 
L 445.626564 37.264533 
L 446.508886 37.264533 
L 447.038279 37.277516 
L 448.508816 37.241003 
L 449.685245 37.185422 
L 461.802468 37.209764 
L 463.390648 37.292932 
L 468.214008 37.161485 
L 468.68458 37.166354 
L 470.978617 37.162297 
L 472.096225 37.182176 
L 473.625583 37.178525 
L 476.213728 37.107527 
L 476.919585 37.103064 
L 484.154626 37.244248 
L 487.389807 37.220718 
L 490.919095 37.215038 
L 491.860238 37.204895 
L 509.15375 37.148503 
L 509.212572 37.010159 
L 509.330215 37.163919 
L 509.918429 37.173251 
L 511.506609 37.163108 
L 513.447717 37.155805 
L 513.506539 37.011781 
L 513.56536 37.159457 
L 516.388791 37.218689 
L 516.565255 37.160674 
L 517.506399 37.088459 
L 519.623972 37.143634 
L 520.918044 37.198404 
L 521.447437 37.144851 
L 521.918009 37.105093 
L 521.97683 36.438525 
L 522.035652 36.965126 
L 522.212116 37.081968 
L 522.917974 37.172439 
L 523.447367 37.209764 
L 523.506189 36.92983 
L 523.682653 37.241003 
L 524.212046 37.296989 
L 526.270798 37.331474 
L 526.917834 37.313623 
L 528.682478 37.195564 
L 529.447157 37.175685 
L 534.564625 37.187856 
L 534.623446 37.062494 
L 534.741089 37.19597 
L 535.741054 37.17609 
L 535.97634 37.170816 
L 536.035161 36.769983 
L 536.152804 37.167571 
L 538.858592 37.183393 
L 538.917413 37.054786 
L 538.976235 37.190696 
L 540.270307 37.238974 
L 541.211451 37.259259 
L 542.623166 37.292527 
L 544.446631 37.280761 
L 544.564274 36.449885 
L 544.79956 37.258448 
L 545.681882 37.125784 
L 545.97599 36.303427 
L 546.034811 36.448668 
L 546.211275 37.123349 
L 546.740669 36.987439 
L 547.21124 36.987439 
L 547.328883 36.204841 
L 547.681812 36.205653 
L 547.917098 37.011781 
L 548.152384 37.032878 
L 548.211205 36.906705 
L 548.270027 37.040992 
L 548.328848 37.049512 
L 548.38767 36.92131 
L 548.505313 37.067363 
L 548.622956 36.681541 
L 548.681777 36.285576 
L 548.740599 36.294501 
L 549.152349 36.341969 
L 549.328813 37.200433 
L 550.034671 37.305104 
L 550.211135 36.497352 
L 550.328778 36.48437 
L 550.3876 36.618657 
L 550.505243 37.302669 
L 550.564064 37.158645 
L 550.622886 37.294555 
L 551.446386 37.295367 
L 551.505208 37.16108 
L 551.622851 36.473416 
L 551.681672 36.460028 
L 551.740493 36.590663 
L 551.858136 37.262911 
L 551.916958 37.126189 
L 551.975779 37.251551 
L 552.328708 37.205301 
L 552.916923 37.039775 
L 553.034566 36.382133 
L 553.093387 36.376859 
L 553.269852 37.174062 
L 554.210995 37.17609 
L 554.38746 36.782966 
L 554.446281 37.182582 
L 554.505102 36.641376 
L 554.563924 37.043832 
L 554.740388 37.172439 
L 556.152104 37.162297 
L 557.21089 37.195564 
L 557.269712 36.903459 
L 557.328533 37.188667 
L 557.387354 37.04302 
L 557.504997 37.175279 
L 561.151928 37.142417 
L 561.446036 37.14404 
L 562.504822 37.083185 
L 563.034215 37.142012 
L 564.03418 37.274676 
L 564.916502 37.264939 
L 565.62236 37.273459 
L 565.798824 36.979731 
L 565.975289 37.263722 
L 567.21054 37.225586 
L 569.269291 37.165542 
L 569.798684 37.139577 
L 569.857506 37.008942 
L 570.03397 37.170816 
L 571.916257 37.218689 
L 572.680936 37.20165 
L 572.739758 37.065334 
L 572.857401 37.209764 
L 573.916187 37.157428 
L 575.210259 37.202461 
L 578.03369 37.152154 
L 581.680621 37.224775 
L 583.151158 37.161485 
L 585.209909 37.200027 
L 586.915732 37.170005 
L 588.44509 37.238163 
L 588.562733 37.103064 
L 588.680376 37.23086 
L 590.092091 37.166354 
L 592.621414 37.166354 
L 593.562558 37.151748 
L 597.915346 37.223963 
L 598.680025 37.185016 
L 602.385778 37.163919 
L 602.444599 36.884391 
L 602.562242 37.151748 
L 603.738672 37.19597 
L 603.797493 37.205707 
L 603.856315 37.064117 
L 603.915136 37.190696 
L 606.797388 37.181365 
L 609.091425 37.217472 
L 614.09125 37.189479 
L 616.267645 37.2337 
L 617.149967 37.209358 
L 618.032289 37.189884 
L 619.620468 37.1412 
L 620.149861 37.129841 
L 623.267399 37.238163 
L 625.737901 37.091705 
L 629.973047 37.110773 
L 632.09062 37.174873 
L 633.384692 37.174468 
L 634.619943 37.140389 
L 638.619803 37.223152 
L 641.796162 37.202055 
L 642.560841 37.247088 
L 644.9137 37.185827 
L 647.501844 37.159862 
L 648.090059 37.197187 
L 649.384131 37.214632 
L 654.266313 37.232483 
L 655.619207 37.218283 
L 657.854423 37.248711 
L 659.677888 37.254797 
L 662.913069 37.275487 
L 664.912999 37.244654 
L 664.912999 37.244654 
" clip-path="url(#p3f79a6f7df)" style="fill: none; stroke: #1f77b4; stroke-width: 1.5; stroke-linecap: square"/>
   </g>
   <g id="line2d_18">
    <path d="M 71.345559 37.238163 
L 80.051137 37.208005 
L 81.756959 37.210226 
L 92.462467 37.207224 
L 95.580005 37.198319 
L 121.0497 37.309164 
L 123.284916 37.308285 
L 145.990003 37.2396 
L 147.87229 37.195415 
L 148.754612 37.192112 
L 154.401473 37.243717 
L 157.342547 37.126691 
L 163.283515 37.179392 
L 315.219368 37.39701 
L 317.513406 37.327309 
L 318.748656 37.266375 
L 333.924595 37.263644 
L 343.159566 37.36449 
L 344.453638 37.399048 
L 349.571106 37.211696 
L 354.629752 37.219449 
L 360.394256 37.11805 
L 361.217757 37.101132 
L 362.629472 37.319177 
L 363.982366 37.236973 
L 364.511759 37.406835 
L 365.099974 37.509654 
L 375.746659 37.576844 
L 377.687768 37.570256 
L 385.922774 38.053136 
L 388.628561 38.65172 
L 389.452062 39.196791 
L 390.040276 39.858763 
L 390.452027 40.677785 
L 390.804955 41.956469 
L 391.099063 44.061976 
L 391.334349 47.792204 
L 391.510813 54.906603 
L 391.628456 68.414039 
L 391.746099 132.971489 
L 391.922563 313.542817 
L 392.099028 313.593827 
L 430.568268 313.593763 
L 503.683354 313.593538 
L 514.682968 313.592244 
L 526.623726 313.593555 
L 547.270062 313.535579 
L 547.328883 313.458261 
L 547.505348 313.593475 
L 552.916923 313.584916 
L 553.034566 313.488372 
L 553.21103 313.593365 
L 593.739022 313.593685 
L 601.503456 313.593554 
L 664.912999 313.59351 
L 664.912999 313.59351 
" clip-path="url(#p3f79a6f7df)" style="fill: none; stroke: #ff7f0e; stroke-width: 1.5; stroke-linecap: square"/>
   </g>
   <g id="patch_3">
    <path d="M 41.667188 327.558125 
L 41.667188 22.318125 
" style="fill: none; stroke: #000000; stroke-width: 0.8; stroke-linejoin: miter; stroke-linecap: square"/>
   </g>
   <g id="patch_4">
    <path d="M 694.591371 327.558125 
L 694.591371 22.318125 
" style="fill: none; stroke: #000000; stroke-width: 0.8; stroke-linejoin: miter; stroke-linecap: square"/>
   </g>
   <g id="patch_5">
    <path d="M 41.667188 327.558125 
L 694.591371 327.558125 
" style="fill: none; stroke: #000000; stroke-width: 0.8; stroke-linejoin: miter; stroke-linecap: square"/>
   </g>
   <g id="patch_6">
    <path d="M 41.667188 22.318125 
L 694.591371 22.318125 
" style="fill: none; stroke: #000000; stroke-width: 0.8; stroke-linejoin: miter; stroke-linecap: square"/>
   </g>
   <g id="text_17">
    <!-- training -->
    <g transform="translate(344.885842 16.318125) scale(0.12 -0.12)">
     <defs>
      <path id="DejaVuSans-74" d="M 1172 4494 
L 1172 3500 
L 2356 3500 
L 2356 3053 
L 1172 3053 
L 1172 1153 
Q 1172 725 1289 603 
Q 1406 481 1766 481 
L 2356 481 
L 2356 0 
L 1766 0 
Q 1100 0 847 248 
Q 594 497 594 1153 
L 594 3053 
L 172 3053 
L 172 3500 
L 594 3500 
L 594 4494 
L 1172 4494 
z
" transform="scale(0.015625)"/>
      <path id="DejaVuSans-72" d="M 2631 2963 
Q 2534 3019 2420 3045 
Q 2306 3072 2169 3072 
Q 1681 3072 1420 2755 
Q 1159 2438 1159 1844 
L 1159 0 
L 581 0 
L 581 3500 
L 1159 3500 
L 1159 2956 
Q 1341 3275 1631 3429 
Q 1922 3584 2338 3584 
Q 2397 3584 2469 3576 
Q 2541 3569 2628 3553 
L 2631 2963 
z
" transform="scale(0.015625)"/>
      <path id="DejaVuSans-61" d="M 2194 1759 
Q 1497 1759 1228 1600 
Q 959 1441 959 1056 
Q 959 750 1161 570 
Q 1363 391 1709 391 
Q 2188 391 2477 730 
Q 2766 1069 2766 1631 
L 2766 1759 
L 2194 1759 
z
M 3341 1997 
L 3341 0 
L 2766 0 
L 2766 531 
Q 2569 213 2275 61 
Q 1981 -91 1556 -91 
Q 1019 -91 701 211 
Q 384 513 384 1019 
Q 384 1609 779 1909 
Q 1175 2209 1959 2209 
L 2766 2209 
L 2766 2266 
Q 2766 2663 2505 2880 
Q 2244 3097 1772 3097 
Q 1472 3097 1187 3025 
Q 903 2953 641 2809 
L 641 3341 
Q 956 3463 1253 3523 
Q 1550 3584 1831 3584 
Q 2591 3584 2966 3190 
Q 3341 2797 3341 1997 
z
" transform="scale(0.015625)"/>
      <path id="DejaVuSans-69" d="M 603 3500 
L 1178 3500 
L 1178 0 
L 603 0 
L 603 3500 
z
M 603 4863 
L 1178 4863 
L 1178 4134 
L 603 4134 
L 603 4863 
z
" transform="scale(0.015625)"/>
      <path id="DejaVuSans-6e" d="M 3513 2113 
L 3513 0 
L 2938 0 
L 2938 2094 
Q 2938 2591 2744 2837 
Q 2550 3084 2163 3084 
Q 1697 3084 1428 2787 
Q 1159 2491 1159 1978 
L 1159 0 
L 581 0 
L 581 3500 
L 1159 3500 
L 1159 2956 
Q 1366 3272 1645 3428 
Q 1925 3584 2291 3584 
Q 2894 3584 3203 3211 
Q 3513 2838 3513 2113 
z
" transform="scale(0.015625)"/>
      <path id="DejaVuSans-67" d="M 2906 1791 
Q 2906 2416 2648 2759 
Q 2391 3103 1925 3103 
Q 1463 3103 1205 2759 
Q 947 2416 947 1791 
Q 947 1169 1205 825 
Q 1463 481 1925 481 
Q 2391 481 2648 825 
Q 2906 1169 2906 1791 
z
M 3481 434 
Q 3481 -459 3084 -895 
Q 2688 -1331 1869 -1331 
Q 1566 -1331 1297 -1286 
Q 1028 -1241 775 -1147 
L 775 -588 
Q 1028 -725 1275 -790 
Q 1522 -856 1778 -856 
Q 2344 -856 2625 -561 
Q 2906 -266 2906 331 
L 2906 616 
Q 2728 306 2450 153 
Q 2172 0 1784 0 
Q 1141 0 747 490 
Q 353 981 353 1791 
Q 353 2603 747 3093 
Q 1141 3584 1784 3584 
Q 2172 3584 2450 3431 
Q 2728 3278 2906 2969 
L 2906 3500 
L 3481 3500 
L 3481 434 
z
" transform="scale(0.015625)"/>
     </defs>
     <use xlink:href="#DejaVuSans-74"/>
     <use xlink:href="#DejaVuSans-72" x="39.208984"/>
     <use xlink:href="#DejaVuSans-61" x="80.322266"/>
     <use xlink:href="#DejaVuSans-69" x="141.601562"/>
     <use xlink:href="#DejaVuSans-6e" x="169.384766"/>
     <use xlink:href="#DejaVuSans-69" x="232.763672"/>
     <use xlink:href="#DejaVuSans-6e" x="260.546875"/>
     <use xlink:href="#DejaVuSans-67" x="323.925781"/>
    </g>
   </g>
   <g id="legend_1">
    <g id="patch_7">
     <path d="M 48.667188 322.558125 
L 130.060938 322.558125 
Q 132.060938 322.558125 132.060938 320.558125 
L 132.060938 292.201875 
Q 132.060938 290.201875 130.060938 290.201875 
L 48.667188 290.201875 
Q 46.667188 290.201875 46.667188 292.201875 
L 46.667188 320.558125 
Q 46.667188 322.558125 48.667188 322.558125 
z
" style="fill: #ffffff; opacity: 0.8; stroke: #cccccc; stroke-linejoin: miter"/>
    </g>
    <g id="line2d_19">
     <path d="M 50.667188 298.300313 
L 60.667188 298.300313 
L 70.667188 298.300313 
" style="fill: none; stroke: #1f77b4; stroke-width: 1.5; stroke-linecap: square"/>
    </g>
    <g id="text_18">
     <!-- observed -->
     <g transform="translate(78.667188 301.800313) scale(0.1 -0.1)">
      <defs>
       <path id="DejaVuSans-6f" d="M 1959 3097 
Q 1497 3097 1228 2736 
Q 959 2375 959 1747 
Q 959 1119 1226 758 
Q 1494 397 1959 397 
Q 2419 397 2687 759 
Q 2956 1122 2956 1747 
Q 2956 2369 2687 2733 
Q 2419 3097 1959 3097 
z
M 1959 3584 
Q 2709 3584 3137 3096 
Q 3566 2609 3566 1747 
Q 3566 888 3137 398 
Q 2709 -91 1959 -91 
Q 1206 -91 779 398 
Q 353 888 353 1747 
Q 353 2609 779 3096 
Q 1206 3584 1959 3584 
z
" transform="scale(0.015625)"/>
       <path id="DejaVuSans-62" d="M 3116 1747 
Q 3116 2381 2855 2742 
Q 2594 3103 2138 3103 
Q 1681 3103 1420 2742 
Q 1159 2381 1159 1747 
Q 1159 1113 1420 752 
Q 1681 391 2138 391 
Q 2594 391 2855 752 
Q 3116 1113 3116 1747 
z
M 1159 2969 
Q 1341 3281 1617 3432 
Q 1894 3584 2278 3584 
Q 2916 3584 3314 3078 
Q 3713 2572 3713 1747 
Q 3713 922 3314 415 
Q 2916 -91 2278 -91 
Q 1894 -91 1617 61 
Q 1341 213 1159 525 
L 1159 0 
L 581 0 
L 581 4863 
L 1159 4863 
L 1159 2969 
z
" transform="scale(0.015625)"/>
       <path id="DejaVuSans-73" d="M 2834 3397 
L 2834 2853 
Q 2591 2978 2328 3040 
Q 2066 3103 1784 3103 
Q 1356 3103 1142 2972 
Q 928 2841 928 2578 
Q 928 2378 1081 2264 
Q 1234 2150 1697 2047 
L 1894 2003 
Q 2506 1872 2764 1633 
Q 3022 1394 3022 966 
Q 3022 478 2636 193 
Q 2250 -91 1575 -91 
Q 1294 -91 989 -36 
Q 684 19 347 128 
L 347 722 
Q 666 556 975 473 
Q 1284 391 1588 391 
Q 1994 391 2212 530 
Q 2431 669 2431 922 
Q 2431 1156 2273 1281 
Q 2116 1406 1581 1522 
L 1381 1569 
Q 847 1681 609 1914 
Q 372 2147 372 2553 
Q 372 3047 722 3315 
Q 1072 3584 1716 3584 
Q 2034 3584 2315 3537 
Q 2597 3491 2834 3397 
z
" transform="scale(0.015625)"/>
       <path id="DejaVuSans-65" d="M 3597 1894 
L 3597 1613 
L 953 1613 
Q 991 1019 1311 708 
Q 1631 397 2203 397 
Q 2534 397 2845 478 
Q 3156 559 3463 722 
L 3463 178 
Q 3153 47 2828 -22 
Q 2503 -91 2169 -91 
Q 1331 -91 842 396 
Q 353 884 353 1716 
Q 353 2575 817 3079 
Q 1281 3584 2069 3584 
Q 2775 3584 3186 3129 
Q 3597 2675 3597 1894 
z
M 3022 2063 
Q 3016 2534 2758 2815 
Q 2500 3097 2075 3097 
Q 1594 3097 1305 2825 
Q 1016 2553 972 2059 
L 3022 2063 
z
" transform="scale(0.015625)"/>
       <path id="DejaVuSans-76" d="M 191 3500 
L 800 3500 
L 1894 563 
L 2988 3500 
L 3597 3500 
L 2284 0 
L 1503 0 
L 191 3500 
z
" transform="scale(0.015625)"/>
       <path id="DejaVuSans-64" d="M 2906 2969 
L 2906 4863 
L 3481 4863 
L 3481 0 
L 2906 0 
L 2906 525 
Q 2725 213 2448 61 
Q 2172 -91 1784 -91 
Q 1150 -91 751 415 
Q 353 922 353 1747 
Q 353 2572 751 3078 
Q 1150 3584 1784 3584 
Q 2172 3584 2448 3432 
Q 2725 3281 2906 2969 
z
M 947 1747 
Q 947 1113 1208 752 
Q 1469 391 1925 391 
Q 2381 391 2643 752 
Q 2906 1113 2906 1747 
Q 2906 2381 2643 2742 
Q 2381 3103 1925 3103 
Q 1469 3103 1208 2742 
Q 947 2381 947 1747 
z
" transform="scale(0.015625)"/>
      </defs>
      <use xlink:href="#DejaVuSans-6f"/>
      <use xlink:href="#DejaVuSans-62" x="61.181641"/>
      <use xlink:href="#DejaVuSans-73" x="124.658203"/>
      <use xlink:href="#DejaVuSans-65" x="176.757812"/>
      <use xlink:href="#DejaVuSans-72" x="238.28125"/>
      <use xlink:href="#DejaVuSans-76" x="279.394531"/>
      <use xlink:href="#DejaVuSans-65" x="338.574219"/>
      <use xlink:href="#DejaVuSans-64" x="400.097656"/>
     </g>
    </g>
    <g id="line2d_20">
     <path d="M 50.667188 312.978438 
L 60.667188 312.978438 
L 70.667188 312.978438 
" style="fill: none; stroke: #ff7f0e; stroke-width: 1.5; stroke-linecap: square"/>
    </g>
    <g id="text_19">
     <!-- simulated -->
     <g transform="translate(78.667188 316.478438) scale(0.1 -0.1)">
      <defs>
       <path id="DejaVuSans-6d" d="M 3328 2828 
Q 3544 3216 3844 3400 
Q 4144 3584 4550 3584 
Q 5097 3584 5394 3201 
Q 5691 2819 5691 2113 
L 5691 0 
L 5113 0 
L 5113 2094 
Q 5113 2597 4934 2840 
Q 4756 3084 4391 3084 
Q 3944 3084 3684 2787 
Q 3425 2491 3425 1978 
L 3425 0 
L 2847 0 
L 2847 2094 
Q 2847 2600 2669 2842 
Q 2491 3084 2119 3084 
Q 1678 3084 1418 2786 
Q 1159 2488 1159 1978 
L 1159 0 
L 581 0 
L 581 3500 
L 1159 3500 
L 1159 2956 
Q 1356 3278 1631 3431 
Q 1906 3584 2284 3584 
Q 2666 3584 2933 3390 
Q 3200 3197 3328 2828 
z
" transform="scale(0.015625)"/>
       <path id="DejaVuSans-75" d="M 544 1381 
L 544 3500 
L 1119 3500 
L 1119 1403 
Q 1119 906 1312 657 
Q 1506 409 1894 409 
Q 2359 409 2629 706 
Q 2900 1003 2900 1516 
L 2900 3500 
L 3475 3500 
L 3475 0 
L 2900 0 
L 2900 538 
Q 2691 219 2414 64 
Q 2138 -91 1772 -91 
Q 1169 -91 856 284 
Q 544 659 544 1381 
z
M 1991 3584 
L 1991 3584 
z
" transform="scale(0.015625)"/>
       <path id="DejaVuSans-6c" d="M 603 4863 
L 1178 4863 
L 1178 0 
L 603 0 
L 603 4863 
z
" transform="scale(0.015625)"/>
      </defs>
      <use xlink:href="#DejaVuSans-73"/>
      <use xlink:href="#DejaVuSans-69" x="52.099609"/>
      <use xlink:href="#DejaVuSans-6d" x="79.882812"/>
      <use xlink:href="#DejaVuSans-75" x="177.294922"/>
      <use xlink:href="#DejaVuSans-6c" x="240.673828"/>
      <use xlink:href="#DejaVuSans-61" x="268.457031"/>
      <use xlink:href="#DejaVuSans-74" x="329.736328"/>
      <use xlink:href="#DejaVuSans-65" x="368.945312"/>
      <use xlink:href="#DejaVuSans-64" x="430.46875"/>
     </g>
    </g>
   </g>
  </g>
 </g>
 <defs>
  <clipPath id="p3f79a6f7df">
   <rect x="41.667188" y="22.318125" width="652.924184" height="305.24"/>
  </clipPath>
 </defs>
</svg>
