<?xml version="1.0" encoding="utf-8" standalone="no"?>
<!DOCTYPE svg PUBLIC "-//W3C//DTD SVG 1.1//EN"
  "http://www.w3.org/Graphics/SVG/1.1/DTD/svg11.dtd">
<svg xmlns:xlink="http://www.w3.org/1999/xlink" width="720pt" height="360pt" viewBox="0 0 720 360" xmlns="http://www.w3.org/2000/svg" version="1.1">
 <metadata>
  <rdf:RDF xmlns:dc="http://purl.org/dc/elements/1.1/" xmlns:cc="http://creativecommons.org/ns#" xmlns:rdf="http://www.w3.org/1999/02/22-rdf-syntax-ns#">
   <cc:Work>
    <dc:type rdf:resource="http://purl.org/dc/dcmitype/StillImage"/>
    <dc:date>2023-10-23T10:54:03.458209</dc:date>
    <dc:format>image/svg+xml</dc:format>
    <dc:creator>
     <cc:Agent>
      <dc:title>Matplotlib v3.7.1, https://matplotlib.org/</dc:title>
     </cc:Agent>
    </dc:creator>
   </cc:Work>
  </rdf:RDF>
 </metadata>
 <defs>
  <style type="text/css">*{stroke-linejoin: round; stroke-linecap: butt}</style>
 </defs>
 <g id="figure_1">
  <g id="patch_1">
   <path d="M 0 360 
L 720 360 
L 720 0 
L 0 0 
z
" style="fill: #ffffff"/>
  </g>
  <g id="axes_1">
   <g id="patch_2">
    <path d="M 90 288 
L 648 288 
L 648 43.2 
L 90 43.2 
z
" style="fill: #ffffff"/>
   </g>
   <g id="matplotlib.axis_1">
    <g id="xtick_1">
     <g id="line2d_1">
      <defs>
       <path id="m87b017ef0f" d="M 0 0 
L 0 3.5 
" style="stroke: #000000; stroke-width: 0.8"/>
      </defs>
      <g>
       <use xlink:href="#m87b017ef0f" x="149.370747" y="288" style="stroke: #000000; stroke-width: 0.8"/>
      </g>
     </g>
     <g id="text_1">
      <!-- 2023-08-15 -->
      <g transform="translate(87.727405 337.765903) rotate(-30) scale(0.12 -0.12)">
       <defs>
        <path id="DejaVuSans-32" d="M 1228 531 
L 3431 531 
L 3431 0 
L 469 0 
L 469 531 
Q 828 903 1448 1529 
Q 2069 2156 2228 2338 
Q 2531 2678 2651 2914 
Q 2772 3150 2772 3378 
Q 2772 3750 2511 3984 
Q 2250 4219 1831 4219 
Q 1534 4219 1204 4116 
Q 875 4013 500 3803 
L 500 4441 
Q 881 4594 1212 4672 
Q 1544 4750 1819 4750 
Q 2544 4750 2975 4387 
Q 3406 4025 3406 3419 
Q 3406 3131 3298 2873 
Q 3191 2616 2906 2266 
Q 2828 2175 2409 1742 
Q 1991 1309 1228 531 
z
" transform="scale(0.015625)"/>
        <path id="DejaVuSans-30" d="M 2034 4250 
Q 1547 4250 1301 3770 
Q 1056 3291 1056 2328 
Q 1056 1369 1301 889 
Q 1547 409 2034 409 
Q 2525 409 2770 889 
Q 3016 1369 3016 2328 
Q 3016 3291 2770 3770 
Q 2525 4250 2034 4250 
z
M 2034 4750 
Q 2819 4750 3233 4129 
Q 3647 3509 3647 2328 
Q 3647 1150 3233 529 
Q 2819 -91 2034 -91 
Q 1250 -91 836 529 
Q 422 1150 422 2328 
Q 422 3509 836 4129 
Q 1250 4750 2034 4750 
z
" transform="scale(0.015625)"/>
        <path id="DejaVuSans-33" d="M 2597 2516 
Q 3050 2419 3304 2112 
Q 3559 1806 3559 1356 
Q 3559 666 3084 287 
Q 2609 -91 1734 -91 
Q 1441 -91 1130 -33 
Q 819 25 488 141 
L 488 750 
Q 750 597 1062 519 
Q 1375 441 1716 441 
Q 2309 441 2620 675 
Q 2931 909 2931 1356 
Q 2931 1769 2642 2001 
Q 2353 2234 1838 2234 
L 1294 2234 
L 1294 2753 
L 1863 2753 
Q 2328 2753 2575 2939 
Q 2822 3125 2822 3475 
Q 2822 3834 2567 4026 
Q 2313 4219 1838 4219 
Q 1578 4219 1281 4162 
Q 984 4106 628 3988 
L 628 4550 
Q 988 4650 1302 4700 
Q 1616 4750 1894 4750 
Q 2613 4750 3031 4423 
Q 3450 4097 3450 3541 
Q 3450 3153 3228 2886 
Q 3006 2619 2597 2516 
z
" transform="scale(0.015625)"/>
        <path id="DejaVuSans-2d" d="M 313 2009 
L 1997 2009 
L 1997 1497 
L 313 1497 
L 313 2009 
z
" transform="scale(0.015625)"/>
        <path id="DejaVuSans-38" d="M 2034 2216 
Q 1584 2216 1326 1975 
Q 1069 1734 1069 1313 
Q 1069 891 1326 650 
Q 1584 409 2034 409 
Q 2484 409 2743 651 
Q 3003 894 3003 1313 
Q 3003 1734 2745 1975 
Q 2488 2216 2034 2216 
z
M 1403 2484 
Q 997 2584 770 2862 
Q 544 3141 544 3541 
Q 544 4100 942 4425 
Q 1341 4750 2034 4750 
Q 2731 4750 3128 4425 
Q 3525 4100 3525 3541 
Q 3525 3141 3298 2862 
Q 3072 2584 2669 2484 
Q 3125 2378 3379 2068 
Q 3634 1759 3634 1313 
Q 3634 634 3220 271 
Q 2806 -91 2034 -91 
Q 1263 -91 848 271 
Q 434 634 434 1313 
Q 434 1759 690 2068 
Q 947 2378 1403 2484 
z
M 1172 3481 
Q 1172 3119 1398 2916 
Q 1625 2713 2034 2713 
Q 2441 2713 2670 2916 
Q 2900 3119 2900 3481 
Q 2900 3844 2670 4047 
Q 2441 4250 2034 4250 
Q 1625 4250 1398 4047 
Q 1172 3844 1172 3481 
z
" transform="scale(0.015625)"/>
        <path id="DejaVuSans-31" d="M 794 531 
L 1825 531 
L 1825 4091 
L 703 3866 
L 703 4441 
L 1819 4666 
L 2450 4666 
L 2450 531 
L 3481 531 
L 3481 0 
L 794 0 
L 794 531 
z
" transform="scale(0.015625)"/>
        <path id="DejaVuSans-35" d="M 691 4666 
L 3169 4666 
L 3169 4134 
L 1269 4134 
L 1269 2991 
Q 1406 3038 1543 3061 
Q 1681 3084 1819 3084 
Q 2600 3084 3056 2656 
Q 3513 2228 3513 1497 
Q 3513 744 3044 326 
Q 2575 -91 1722 -91 
Q 1428 -91 1123 -41 
Q 819 9 494 109 
L 494 744 
Q 775 591 1075 516 
Q 1375 441 1709 441 
Q 2250 441 2565 725 
Q 2881 1009 2881 1497 
Q 2881 1984 2565 2268 
Q 2250 2553 1709 2553 
Q 1456 2553 1204 2497 
Q 953 2441 691 2322 
L 691 4666 
z
" transform="scale(0.015625)"/>
       </defs>
       <use xlink:href="#DejaVuSans-32"/>
       <use xlink:href="#DejaVuSans-30" x="63.623047"/>
       <use xlink:href="#DejaVuSans-32" x="127.246094"/>
       <use xlink:href="#DejaVuSans-33" x="190.869141"/>
       <use xlink:href="#DejaVuSans-2d" x="254.492188"/>
       <use xlink:href="#DejaVuSans-30" x="290.576172"/>
       <use xlink:href="#DejaVuSans-38" x="354.199219"/>
       <use xlink:href="#DejaVuSans-2d" x="417.822266"/>
       <use xlink:href="#DejaVuSans-31" x="453.90625"/>
       <use xlink:href="#DejaVuSans-35" x="517.529297"/>
      </g>
     </g>
    </g>
    <g id="xtick_2">
     <g id="line2d_2">
      <g>
       <use xlink:href="#m87b017ef0f" x="264.994921" y="288" style="stroke: #000000; stroke-width: 0.8"/>
      </g>
     </g>
     <g id="text_2">
      <!-- 2023-09-01 -->
      <g transform="translate(203.35158 337.765903) rotate(-30) scale(0.12 -0.12)">
       <defs>
        <path id="DejaVuSans-39" d="M 703 97 
L 703 672 
Q 941 559 1184 500 
Q 1428 441 1663 441 
Q 2288 441 2617 861 
Q 2947 1281 2994 2138 
Q 2813 1869 2534 1725 
Q 2256 1581 1919 1581 
Q 1219 1581 811 2004 
Q 403 2428 403 3163 
Q 403 3881 828 4315 
Q 1253 4750 1959 4750 
Q 2769 4750 3195 4129 
Q 3622 3509 3622 2328 
Q 3622 1225 3098 567 
Q 2575 -91 1691 -91 
Q 1453 -91 1209 -44 
Q 966 3 703 97 
z
M 1959 2075 
Q 2384 2075 2632 2365 
Q 2881 2656 2881 3163 
Q 2881 3666 2632 3958 
Q 2384 4250 1959 4250 
Q 1534 4250 1286 3958 
Q 1038 3666 1038 3163 
Q 1038 2656 1286 2365 
Q 1534 2075 1959 2075 
z
" transform="scale(0.015625)"/>
       </defs>
       <use xlink:href="#DejaVuSans-32"/>
       <use xlink:href="#DejaVuSans-30" x="63.623047"/>
       <use xlink:href="#DejaVuSans-32" x="127.246094"/>
       <use xlink:href="#DejaVuSans-33" x="190.869141"/>
       <use xlink:href="#DejaVuSans-2d" x="254.492188"/>
       <use xlink:href="#DejaVuSans-30" x="290.576172"/>
       <use xlink:href="#DejaVuSans-39" x="354.199219"/>
       <use xlink:href="#DejaVuSans-2d" x="417.822266"/>
       <use xlink:href="#DejaVuSans-30" x="453.90625"/>
       <use xlink:href="#DejaVuSans-31" x="517.529297"/>
      </g>
     </g>
    </g>
    <g id="xtick_3">
     <g id="line2d_3">
      <g>
       <use xlink:href="#m87b017ef0f" x="360.21483" y="288" style="stroke: #000000; stroke-width: 0.8"/>
      </g>
     </g>
     <g id="text_3">
      <!-- 2023-09-15 -->
      <g transform="translate(298.571488 337.765903) rotate(-30) scale(0.12 -0.12)">
       <use xlink:href="#DejaVuSans-32"/>
       <use xlink:href="#DejaVuSans-30" x="63.623047"/>
       <use xlink:href="#DejaVuSans-32" x="127.246094"/>
       <use xlink:href="#DejaVuSans-33" x="190.869141"/>
       <use xlink:href="#DejaVuSans-2d" x="254.492188"/>
       <use xlink:href="#DejaVuSans-30" x="290.576172"/>
       <use xlink:href="#DejaVuSans-39" x="354.199219"/>
       <use xlink:href="#DejaVuSans-2d" x="417.822266"/>
       <use xlink:href="#DejaVuSans-31" x="453.90625"/>
       <use xlink:href="#DejaVuSans-35" x="517.529297"/>
      </g>
     </g>
    </g>
    <g id="xtick_4">
     <g id="line2d_4">
      <g>
       <use xlink:href="#m87b017ef0f" x="469.037583" y="288" style="stroke: #000000; stroke-width: 0.8"/>
      </g>
     </g>
     <g id="text_4">
      <!-- 2023-10-01 -->
      <g transform="translate(407.394241 337.765903) rotate(-30) scale(0.12 -0.12)">
       <use xlink:href="#DejaVuSans-32"/>
       <use xlink:href="#DejaVuSans-30" x="63.623047"/>
       <use xlink:href="#DejaVuSans-32" x="127.246094"/>
       <use xlink:href="#DejaVuSans-33" x="190.869141"/>
       <use xlink:href="#DejaVuSans-2d" x="254.492188"/>
       <use xlink:href="#DejaVuSans-31" x="290.576172"/>
       <use xlink:href="#DejaVuSans-30" x="354.199219"/>
       <use xlink:href="#DejaVuSans-2d" x="417.822266"/>
       <use xlink:href="#DejaVuSans-30" x="453.90625"/>
       <use xlink:href="#DejaVuSans-31" x="517.529297"/>
      </g>
     </g>
    </g>
    <g id="xtick_5">
     <g id="line2d_5">
      <g>
       <use xlink:href="#m87b017ef0f" x="564.257491" y="288" style="stroke: #000000; stroke-width: 0.8"/>
      </g>
     </g>
     <g id="text_5">
      <!-- 2023-10-15 -->
      <g transform="translate(502.614149 337.765903) rotate(-30) scale(0.12 -0.12)">
       <use xlink:href="#DejaVuSans-32"/>
       <use xlink:href="#DejaVuSans-30" x="63.623047"/>
       <use xlink:href="#DejaVuSans-32" x="127.246094"/>
       <use xlink:href="#DejaVuSans-33" x="190.869141"/>
       <use xlink:href="#DejaVuSans-2d" x="254.492188"/>
       <use xlink:href="#DejaVuSans-31" x="290.576172"/>
       <use xlink:href="#DejaVuSans-30" x="354.199219"/>
       <use xlink:href="#DejaVuSans-2d" x="417.822266"/>
       <use xlink:href="#DejaVuSans-31" x="453.90625"/>
       <use xlink:href="#DejaVuSans-35" x="517.529297"/>
      </g>
     </g>
    </g>
   </g>
   <g id="matplotlib.axis_2">
    <g id="ytick_1">
     <g id="line2d_6">
      <defs>
       <path id="mf1aaee952c" d="M 0 0 
L -3.5 0 
" style="stroke: #000000; stroke-width: 0.8"/>
      </defs>
      <g>
       <use xlink:href="#mf1aaee952c" x="90" y="268.089157" style="stroke: #000000; stroke-width: 0.8"/>
      </g>
     </g>
     <g id="text_6">
      <!-- 0.5 -->
      <g transform="translate(63.91625 272.64822) scale(0.12 -0.12)">
       <defs>
        <path id="DejaVuSans-2e" d="M 684 794 
L 1344 794 
L 1344 0 
L 684 0 
L 684 794 
z
" transform="scale(0.015625)"/>
       </defs>
       <use xlink:href="#DejaVuSans-30"/>
       <use xlink:href="#DejaVuSans-2e" x="63.623047"/>
       <use xlink:href="#DejaVuSans-35" x="95.410156"/>
      </g>
     </g>
    </g>
    <g id="ytick_2">
     <g id="line2d_7">
      <g>
       <use xlink:href="#mf1aaee952c" x="90" y="229.20473" style="stroke: #000000; stroke-width: 0.8"/>
      </g>
     </g>
     <g id="text_7">
      <!-- 0.6 -->
      <g transform="translate(63.91625 233.763793) scale(0.12 -0.12)">
       <defs>
        <path id="DejaVuSans-36" d="M 2113 2584 
Q 1688 2584 1439 2293 
Q 1191 2003 1191 1497 
Q 1191 994 1439 701 
Q 1688 409 2113 409 
Q 2538 409 2786 701 
Q 3034 994 3034 1497 
Q 3034 2003 2786 2293 
Q 2538 2584 2113 2584 
z
M 3366 4563 
L 3366 3988 
Q 3128 4100 2886 4159 
Q 2644 4219 2406 4219 
Q 1781 4219 1451 3797 
Q 1122 3375 1075 2522 
Q 1259 2794 1537 2939 
Q 1816 3084 2150 3084 
Q 2853 3084 3261 2657 
Q 3669 2231 3669 1497 
Q 3669 778 3244 343 
Q 2819 -91 2113 -91 
Q 1303 -91 875 529 
Q 447 1150 447 2328 
Q 447 3434 972 4092 
Q 1497 4750 2381 4750 
Q 2619 4750 2861 4703 
Q 3103 4656 3366 4563 
z
" transform="scale(0.015625)"/>
       </defs>
       <use xlink:href="#DejaVuSans-30"/>
       <use xlink:href="#DejaVuSans-2e" x="63.623047"/>
       <use xlink:href="#DejaVuSans-36" x="95.410156"/>
      </g>
     </g>
    </g>
    <g id="ytick_3">
     <g id="line2d_8">
      <g>
       <use xlink:href="#mf1aaee952c" x="90" y="190.320304" style="stroke: #000000; stroke-width: 0.8"/>
      </g>
     </g>
     <g id="text_8">
      <!-- 0.7 -->
      <g transform="translate(63.91625 194.879366) scale(0.12 -0.12)">
       <defs>
        <path id="DejaVuSans-37" d="M 525 4666 
L 3525 4666 
L 3525 4397 
L 1831 0 
L 1172 0 
L 2766 4134 
L 525 4134 
L 525 4666 
z
" transform="scale(0.015625)"/>
       </defs>
       <use xlink:href="#DejaVuSans-30"/>
       <use xlink:href="#DejaVuSans-2e" x="63.623047"/>
       <use xlink:href="#DejaVuSans-37" x="95.410156"/>
      </g>
     </g>
    </g>
    <g id="ytick_4">
     <g id="line2d_9">
      <g>
       <use xlink:href="#mf1aaee952c" x="90" y="151.435877" style="stroke: #000000; stroke-width: 0.8"/>
      </g>
     </g>
     <g id="text_9">
      <!-- 0.8 -->
      <g transform="translate(63.91625 155.99494) scale(0.12 -0.12)">
       <use xlink:href="#DejaVuSans-30"/>
       <use xlink:href="#DejaVuSans-2e" x="63.623047"/>
       <use xlink:href="#DejaVuSans-38" x="95.410156"/>
      </g>
     </g>
    </g>
    <g id="ytick_5">
     <g id="line2d_10">
      <g>
       <use xlink:href="#mf1aaee952c" x="90" y="112.55145" style="stroke: #000000; stroke-width: 0.8"/>
      </g>
     </g>
     <g id="text_10">
      <!-- 0.9 -->
      <g transform="translate(63.91625 117.110513) scale(0.12 -0.12)">
       <use xlink:href="#DejaVuSans-30"/>
       <use xlink:href="#DejaVuSans-2e" x="63.623047"/>
       <use xlink:href="#DejaVuSans-39" x="95.410156"/>
      </g>
     </g>
    </g>
    <g id="ytick_6">
     <g id="line2d_11">
      <g>
       <use xlink:href="#mf1aaee952c" x="90" y="73.667024" style="stroke: #000000; stroke-width: 0.8"/>
      </g>
     </g>
     <g id="text_11">
      <!-- 1.0 -->
      <g transform="translate(63.91625 78.226086) scale(0.12 -0.12)">
       <use xlink:href="#DejaVuSans-31"/>
       <use xlink:href="#DejaVuSans-2e" x="63.623047"/>
       <use xlink:href="#DejaVuSans-30" x="95.410156"/>
      </g>
     </g>
    </g>
    <g id="text_12">
     <!-- Meters -->
     <g transform="translate(57.836562 182.6875) rotate(-90) scale(0.1 -0.1)">
      <defs>
       <path id="DejaVuSans-4d" d="M 628 4666 
L 1569 4666 
L 2759 1491 
L 3956 4666 
L 4897 4666 
L 4897 0 
L 4281 0 
L 4281 4097 
L 3078 897 
L 2444 897 
L 1241 4097 
L 1241 0 
L 628 0 
L 628 4666 
z
" transform="scale(0.015625)"/>
       <path id="DejaVuSans-65" d="M 3597 1894 
L 3597 1613 
L 953 1613 
Q 991 1019 1311 708 
Q 1631 397 2203 397 
Q 2534 397 2845 478 
Q 3156 559 3463 722 
L 3463 178 
Q 3153 47 2828 -22 
Q 2503 -91 2169 -91 
Q 1331 -91 842 396 
Q 353 884 353 1716 
Q 353 2575 817 3079 
Q 1281 3584 2069 3584 
Q 2775 3584 3186 3129 
Q 3597 2675 3597 1894 
z
M 3022 2063 
Q 3016 2534 2758 2815 
Q 2500 3097 2075 3097 
Q 1594 3097 1305 2825 
Q 1016 2553 972 2059 
L 3022 2063 
z
" transform="scale(0.015625)"/>
       <path id="DejaVuSans-74" d="M 1172 4494 
L 1172 3500 
L 2356 3500 
L 2356 3053 
L 1172 3053 
L 1172 1153 
Q 1172 725 1289 603 
Q 1406 481 1766 481 
L 2356 481 
L 2356 0 
L 1766 0 
Q 1100 0 847 248 
Q 594 497 594 1153 
L 594 3053 
L 172 3053 
L 172 3500 
L 594 3500 
L 594 4494 
L 1172 4494 
z
" transform="scale(0.015625)"/>
       <path id="DejaVuSans-72" d="M 2631 2963 
Q 2534 3019 2420 3045 
Q 2306 3072 2169 3072 
Q 1681 3072 1420 2755 
Q 1159 2438 1159 1844 
L 1159 0 
L 581 0 
L 581 3500 
L 1159 3500 
L 1159 2956 
Q 1341 3275 1631 3429 
Q 1922 3584 2338 3584 
Q 2397 3584 2469 3576 
Q 2541 3569 2628 3553 
L 2631 2963 
z
" transform="scale(0.015625)"/>
       <path id="DejaVuSans-73" d="M 2834 3397 
L 2834 2853 
Q 2591 2978 2328 3040 
Q 2066 3103 1784 3103 
Q 1356 3103 1142 2972 
Q 928 2841 928 2578 
Q 928 2378 1081 2264 
Q 1234 2150 1697 2047 
L 1894 2003 
Q 2506 1872 2764 1633 
Q 3022 1394 3022 966 
Q 3022 478 2636 193 
Q 2250 -91 1575 -91 
Q 1294 -91 989 -36 
Q 684 19 347 128 
L 347 722 
Q 666 556 975 473 
Q 1284 391 1588 391 
Q 1994 391 2212 530 
Q 2431 669 2431 922 
Q 2431 1156 2273 1281 
Q 2116 1406 1581 1522 
L 1381 1569 
Q 847 1681 609 1914 
Q 372 2147 372 2553 
Q 372 3047 722 3315 
Q 1072 3584 1716 3584 
Q 2034 3584 2315 3537 
Q 2597 3491 2834 3397 
z
" transform="scale(0.015625)"/>
      </defs>
      <use xlink:href="#DejaVuSans-4d"/>
      <use xlink:href="#DejaVuSans-65" x="86.279297"/>
      <use xlink:href="#DejaVuSans-74" x="147.802734"/>
      <use xlink:href="#DejaVuSans-65" x="187.011719"/>
      <use xlink:href="#DejaVuSans-72" x="248.535156"/>
      <use xlink:href="#DejaVuSans-73" x="289.648438"/>
     </g>
    </g>
   </g>
   <g id="line2d_12">
    <path d="M 115.363636 266.661699 
L 115.647029 267.607645 
L 116.497207 265.339967 
L 116.780599 265.793503 
L 117.063992 265.275176 
L 117.630777 264.75685 
L 118.197562 265.663921 
L 118.480955 264.821641 
L 118.764347 262.359591 
L 119.04774 263.655407 
L 119.331133 267.024528 
L 119.614525 268.579507 
L 119.897918 268.773879 
L 120.18131 267.931599 
L 120.464703 267.802017 
L 120.748095 269.033042 
L 121.031488 269.356996 
L 121.314881 268.968251 
L 121.598273 272.402163 
L 121.881666 274.151514 
L 122.165058 269.033042 
L 122.448451 270.588021 
L 122.731844 269.940113 
L 123.015236 269.875322 
L 123.298629 270.328858 
L 123.582021 270.004904 
L 123.865414 270.847184 
L 124.148807 270.069695 
L 124.432199 270.004904 
L 124.715592 270.588021 
L 124.998984 270.652812 
L 125.565769 269.616159 
L 125.849162 270.937891 
L 126.132555 270.976766 
L 126.415947 271.171138 
L 126.69934 270.069695 
L 126.982732 272.272581 
L 127.266125 269.810531 
L 127.549518 271.041556 
L 127.83291 266.570992 
L 128.116303 264.75685 
L 128.399695 261.970846 
L 128.683088 261.646892 
L 128.96648 260.61024 
L 129.249873 260.351077 
L 129.533266 260.415867 
L 129.816658 260.221495 
L 130.100051 261.063775 
L 130.666836 261.45252 
L 130.950229 259.379215 
L 131.233621 259.962332 
L 131.517014 258.018608 
L 131.800406 257.435491 
L 132.083799 257.3707 
L 132.367191 255.880512 
L 132.650584 257.629864 
L 132.933977 254.649487 
L 133.500762 253.871998 
L 133.784154 253.871998 
L 134.067547 254.001579 
L 134.35094 254.84386 
L 134.634332 255.038232 
L 134.917725 253.483253 
L 135.201117 257.694654 
L 135.48451 256.52842 
L 135.767902 254.649487 
L 136.051295 255.815721 
L 136.334688 255.491768 
L 136.61808 254.714278 
L 136.901473 255.491768 
L 137.184865 255.491768 
L 137.751651 255.68614 
L 138.035043 256.269257 
L 138.318436 256.269257 
L 138.601828 256.658002 
L 138.885221 256.269257 
L 139.168614 257.111537 
L 139.452006 258.407353 
L 139.735399 259.055261 
L 140.018791 258.342562 
L 140.302184 259.120052 
L 140.585576 259.249633 
L 140.868969 258.860888 
L 141.435754 263.201871 
L 141.719147 261.193357 
L 142.285932 263.979361 
L 142.569325 261.517311 
L 142.852717 261.582102 
L 143.13611 260.869403 
L 143.419502 260.804612 
L 143.702895 261.128566 
L 143.986287 261.063775 
L 144.26968 261.582102 
L 144.553073 261.776474 
L 144.836465 261.646892 
L 145.119858 261.970846 
L 145.40325 261.906055 
L 145.970036 260.156704 
L 146.253428 260.934194 
L 146.536821 261.128566 
L 146.820213 263.590616 
L 147.103606 263.91457 
L 147.386998 262.424382 
L 147.953784 261.841265 
L 148.237176 262.100428 
L 148.803961 263.590616 
L 149.370747 259.249633 
L 150.220924 257.3707 
L 150.504317 257.046746 
L 150.787709 261.841265 
L 151.071102 256.463629 
L 151.354495 256.52842 
L 151.637887 261.711683 
L 151.92128 256.52842 
L 152.488065 255.297395 
L 152.771458 252.964927 
L 153.05485 251.578404 
L 153.338243 251.345157 
L 153.621635 249.91976 
L 153.905028 249.854969 
L 154.188421 251.021203 
L 154.471813 253.483253 
L 154.755206 253.807207 
L 155.038598 255.103023 
L 155.321991 254.649487 
L 155.605383 255.945303 
L 156.172169 254.390324 
L 156.455561 253.094508 
L 156.738954 252.964927 
L 157.022346 253.159299 
L 157.305739 254.455115 
L 157.589132 253.936789 
L 157.872524 254.260743 
L 158.155917 253.159299 
L 158.722702 253.677625 
L 159.006094 253.677625 
L 159.289487 252.576182 
L 159.57288 254.455115 
L 159.856272 253.936789 
L 160.139665 253.807207 
L 160.989843 252.900136 
L 161.273235 253.418462 
L 161.84002 255.426977 
L 162.123413 253.742416 
L 162.406805 256.204466 
L 162.690198 257.565073 
L 163.256983 255.750931 
L 163.540376 255.815721 
L 163.823768 254.649487 
L 164.107161 254.973441 
L 164.390554 253.548044 
L 164.673946 253.677625 
L 164.957339 253.936789 
L 165.240731 254.519906 
L 165.524124 255.362186 
L 166.090909 254.325533 
L 166.374302 254.84386 
L 166.657694 256.398839 
L 167.224479 247.846455 
L 167.507872 243.764635 
L 167.791265 241.302585 
L 168.074657 240.201142 
L 168.35805 241.626539 
L 168.641442 242.274447 
L 168.924835 244.282961 
L 169.208228 244.023798 
L 169.49162 244.671706 
L 169.775013 244.218171 
L 170.058405 245.384405 
L 170.62519 244.023798 
L 170.908583 244.542125 
L 171.191976 244.15338 
L 171.475368 242.481777 
L 171.758761 239.747606 
L 172.042153 242.015284 
L 172.325546 241.393292 
L 172.608939 242.53361 
L 172.892331 238.840535 
L 173.175724 238.983075 
L 173.459116 240.006769 
L 174.025901 239.812397 
L 174.309294 239.164489 
L 174.876079 240.395514 
L 175.159472 242.144865 
L 175.442864 242.922355 
L 175.726257 240.330723 
L 176.293042 246.809802 
L 176.576435 244.606915 
L 176.859827 244.736497 
L 177.14322 244.542125 
L 177.710005 245.902731 
L 177.993398 245.83794 
L 178.27679 246.097103 
L 178.843575 247.328128 
L 179.126968 247.068965 
L 179.410361 248.29999 
L 179.693753 247.911245 
L 179.977146 249.323685 
L 180.260538 249.854969 
L 180.543931 250.114132 
L 180.827324 250.114132 
L 181.110716 250.891622 
L 181.394109 250.697249 
L 181.677501 251.150785 
L 181.960894 252.122647 
L 182.244286 253.871998 
L 182.527679 251.798693 
L 183.094464 256.334048 
L 183.377857 255.038232 
L 183.661249 254.84386 
L 183.944642 253.742416 
L 184.228035 253.677625 
L 184.79482 254.195952 
L 185.078212 254.455115 
L 185.644997 254.519906 
L 186.211783 254.584697 
L 186.495175 254.714278 
L 186.778568 253.159299 
L 187.06196 253.807207 
L 187.345353 254.779069 
L 187.628746 255.232604 
L 188.195531 255.68614 
L 188.478923 257.500282 
L 188.762316 257.694654 
L 189.045708 259.314424 
L 189.329101 257.759445 
L 189.612494 258.407353 
L 189.895886 258.666516 
L 190.179279 257.694654 
L 190.462671 257.30591 
L 190.746064 257.3707 
L 191.312849 258.666516 
L 191.596242 258.731307 
L 191.879634 258.666516 
L 192.163027 259.379215 
L 192.729812 259.573587 
L 193.013205 258.083399 
L 193.296597 258.407353 
L 193.57999 256.917165 
L 194.71356 262.165219 
L 194.996953 262.359591 
L 195.280345 263.07229 
L 195.563738 264.692059 
L 196.130523 262.877917 
L 196.413916 263.07229 
L 196.697308 263.525825 
L 197.264093 260.675031 
L 197.830879 262.230009 
L 198.397664 260.804612 
L 198.681056 261.646892 
L 198.964449 261.582102 
L 199.531234 261.128566 
L 199.814627 261.646892 
L 200.098019 261.646892 
L 200.381412 262.035637 
L 200.664804 262.100428 
L 200.948197 260.804612 
L 201.23159 260.869403 
L 201.514982 261.45252 
L 201.798375 262.424382 
L 202.081767 262.813126 
L 202.648553 265.016013 
L 203.215338 263.461034 
L 203.49873 264.368105 
L 203.782123 261.841265 
L 204.065515 261.517311 
L 204.348908 260.739821 
L 204.632301 260.998984 
L 204.915693 260.61024 
L 205.199086 260.545449 
L 205.482478 260.804612 
L 205.765871 260.804612 
L 206.049264 260.998984 
L 206.332656 260.934194 
L 206.616049 261.906055 
L 206.899441 257.565073 
L 207.182834 256.301652 
L 207.749619 253.029718 
L 208.033012 252.446601 
L 208.599797 254.06637 
L 208.883189 254.131161 
L 209.166582 254.84386 
L 209.449975 254.84386 
L 209.733367 254.195952 
L 210.01676 253.871998 
L 211.15033 250.178923 
L 212.000508 246.939384 
L 212.2839 246.291476 
L 212.567293 245.319614 
L 212.850686 244.866078 
L 213.134078 245.319614 
L 213.417471 245.190032 
L 213.700863 243.505472 
L 213.984256 243.635053 
L 214.267649 243.3111 
L 214.551041 243.440681 
L 214.834434 244.15338 
L 215.117826 243.278704 
L 215.401219 243.959007 
L 215.684611 248.559153 
L 215.968004 243.635053 
L 216.251397 243.829426 
L 216.534789 243.829426 
L 217.101574 244.866078 
L 217.384967 249.336643 
L 217.66836 244.99566 
L 217.951752 244.477334 
L 218.235145 245.060451 
L 218.80193 251.189659 
L 219.085322 246.213727 
L 219.368715 246.097103 
L 219.652108 246.291476 
L 219.9355 248.235199 
L 220.218893 247.263338 
L 220.502285 263.784988 
L 220.785678 250.308505 
L 221.069071 247.45771 
L 221.352463 247.716873 
L 221.919248 251.085994 
L 222.486034 252.511391 
L 222.769426 252.900136 
L 223.052819 254.390324 
L 223.336211 252.835345 
L 223.619604 253.353672 
L 223.902996 258.666516 
L 224.186389 253.418462 
L 224.753174 250.373295 
L 225.036567 249.660597 
L 225.319959 249.984551 
L 225.603352 250.114132 
L 225.886745 250.049341 
L 226.170137 250.308505 
L 226.45353 249.336643 
L 226.736922 249.466224 
L 227.303707 252.770554 
L 227.5871 248.105618 
L 227.870493 249.07748 
L 228.153885 248.883107 
L 228.437278 249.012689 
L 229.004063 251.215576 
L 229.287456 251.215576 
L 229.570848 250.891622 
L 229.854241 251.928274 
L 230.137633 251.60432 
L 230.421026 252.511391 
L 230.704418 258.083399 
L 230.987811 253.612835 
L 231.271204 253.22409 
L 231.554596 253.159299 
L 231.837989 253.807207 
L 232.121381 254.001579 
L 232.404774 253.094508 
L 232.688167 253.418462 
L 232.971559 253.353672 
L 233.254952 252.446601 
L 233.821737 252.446601 
L 234.10513 252.576182 
L 234.388522 254.649487 
L 234.671915 252.446601 
L 234.955307 255.362186 
L 235.2387 255.880512 
L 235.522092 255.750931 
L 235.805485 256.010094 
L 236.37227 258.601725 
L 236.655663 260.739821 
L 236.939055 257.694654 
L 237.222448 256.074885 
L 237.505841 260.934194 
L 237.789233 257.889027 
L 238.072626 262.813126 
L 238.356018 256.139675 
L 238.639411 255.776847 
L 238.922803 256.981956 
L 239.206196 256.010094 
L 239.489589 256.593211 
L 239.772981 256.722792 
L 240.056374 258.14819 
L 240.339766 257.694654 
L 240.623159 257.694654 
L 240.906552 258.277771 
L 241.189944 257.331826 
L 241.473337 255.426977 
L 242.040122 258.925679 
L 242.606907 259.83275 
L 242.8903 260.480658 
L 243.173692 262.2948 
L 243.457085 262.877917 
L 243.740477 261.063775 
L 244.02387 261.45252 
L 244.307263 266.37662 
L 244.590655 261.711683 
L 244.874048 260.027123 
L 245.15744 259.962332 
L 245.440833 259.379215 
L 245.724225 260.091913 
L 246.291011 260.415867 
L 246.574403 260.998984 
L 247.141188 260.286286 
L 247.424581 260.869403 
L 247.707974 260.130788 
L 247.991366 259.055261 
L 248.274759 260.091913 
L 248.558151 259.314424 
L 248.841544 255.038232 
L 249.124937 256.463629 
L 249.408329 254.84386 
L 249.691722 254.519906 
L 249.975114 257.435491 
L 250.541899 256.010094 
L 250.825292 255.750931 
L 251.108685 256.074885 
L 251.392077 255.880512 
L 251.67547 259.353298 
L 251.958862 258.277771 
L 252.242255 258.666516 
L 252.525648 256.787583 
L 252.80904 256.52842 
L 254.226003 253.094508 
L 255.076181 252.666889 
L 255.359573 254.455115 
L 255.642966 254.325533 
L 255.926359 254.001579 
L 256.209751 253.418462 
L 256.493144 254.325533 
L 257.059929 257.241119 
L 257.343321 253.548044 
L 257.626714 252.317019 
L 257.910107 261.711683 
L 258.193499 255.362186 
L 258.476892 253.807207 
L 258.760284 252.900136 
L 259.043677 253.029718 
L 259.32707 253.677625 
L 259.610462 254.001579 
L 259.893855 254.584697 
L 260.177247 254.584697 
L 260.46064 255.038232 
L 261.310818 255.556558 
L 261.59421 254.325533 
L 261.877603 252.122647 
L 262.160995 257.953817 
L 262.444388 259.962332 
L 262.727781 259.703169 
L 263.011173 259.703169 
L 263.294566 260.156704 
L 263.577958 262.2948 
L 263.861351 263.331453 
L 264.144744 259.962332 
L 264.428136 259.314424 
L 264.711529 267.089318 
L 264.994921 262.2948 
L 265.278314 260.804612 
L 265.561706 260.869403 
L 265.845099 260.804612 
L 266.128492 261.063775 
L 266.411884 261.646892 
L 266.695277 261.258148 
L 266.978669 260.675031 
L 267.262062 261.970846 
L 267.545455 262.165219 
L 267.828847 262.618754 
L 268.11224 262.553963 
L 268.679025 259.379215 
L 268.962417 262.618754 
L 269.24581 263.590616 
L 269.529203 263.655407 
L 269.812595 263.849779 
L 270.095988 263.525825 
L 270.662773 265.793503 
L 270.946166 262.877917 
L 271.229558 261.841265 
L 271.512951 267.802017 
L 272.079736 264.368105 
L 272.363128 264.368105 
L 272.646521 263.461034 
L 272.929914 264.432896 
L 273.213306 264.692059 
L 273.780091 264.303315 
L 274.063484 260.934194 
L 274.346877 261.45252 
L 274.630269 261.582102 
L 274.913662 262.553963 
L 275.480447 260.027123 
L 276.330625 260.286286 
L 276.614017 259.638378 
L 276.89741 260.091913 
L 277.180802 260.286286 
L 277.464195 262.877917 
L 277.747588 262.100428 
L 278.314373 267.2189 
L 278.881158 264.044151 
L 279.164551 263.525825 
L 279.731336 263.849779 
L 280.014728 264.329231 
L 280.581513 263.331453 
L 280.864906 263.13708 
L 281.148299 263.396244 
L 281.998476 262.230009 
L 282.281869 258.536935 
L 282.848654 262.165219 
L 283.132047 263.91457 
L 283.415439 263.655407 
L 283.698832 263.91457 
L 283.982224 262.748336 
L 284.265617 262.683545 
L 284.54901 261.45252 
L 284.832402 263.590616 
L 285.399187 263.849779 
L 285.68258 265.275176 
L 285.965973 263.91457 
L 286.249365 264.044151 
L 286.532758 264.692059 
L 286.81615 264.238524 
L 287.099543 264.75685 
L 287.382936 264.821641 
L 287.949721 265.663921 
L 288.233113 270.847184 
L 288.516506 265.59913 
L 288.799898 262.748336 
L 289.083291 264.044151 
L 289.366684 268.449925 
L 289.650076 266.182247 
L 289.933469 266.117457 
L 290.216861 265.210386 
L 290.500254 266.052666 
L 290.783647 269.097833 
L 291.067039 270.847184 
L 291.350432 266.635783 
L 291.633824 265.210386 
L 291.917217 273.762769 
L 292.484002 268.255553 
L 292.767395 268.320343 
L 293.050787 267.542854 
L 293.33418 267.737226 
L 293.617572 266.894946 
L 293.900965 267.089318 
L 294.184358 265.923084 
L 294.46775 265.53434 
L 294.751143 265.59913 
L 295.317928 264.108942 
L 295.884713 259.249633 
L 296.168106 261.763516 
L 296.451498 262.359591 
L 297.018283 261.322938 
L 297.301676 261.322938 
L 297.585069 262.683545 
L 297.868461 262.553963 
L 298.435246 258.925679 
L 298.718639 264.821641 
L 299.285424 261.128566 
L 299.568817 259.897541 
L 299.852209 257.889027 
L 300.135602 260.221495 
L 300.418994 260.091913 
L 300.702387 258.99047 
L 300.98578 258.796098 
L 301.269172 258.018608 
L 301.552565 257.759445 
L 301.835957 258.277771 
L 302.11935 259.508796 
L 302.402743 255.232604 
L 302.686135 255.556558 
L 302.969528 256.722792 
L 303.25292 256.658002 
L 303.536313 256.074885 
L 303.819705 257.3707 
L 304.103098 257.046746 
L 304.386491 256.917165 
L 304.669883 256.658002 
L 304.953276 257.629864 
L 305.236668 257.435491 
L 305.520061 258.601725 
L 305.803454 258.536935 
L 306.086846 259.055261 
L 306.370239 258.083399 
L 306.653631 258.342562 
L 306.937024 257.111537 
L 307.220416 257.694654 
L 307.503809 256.917165 
L 307.787202 257.111537 
L 308.070594 256.593211 
L 308.353987 256.463629 
L 308.637379 256.658002 
L 308.920772 256.463629 
L 309.204165 256.010094 
L 309.487557 256.204466 
L 309.77095 255.491768 
L 310.054342 255.945303 
L 310.337735 256.722792 
L 310.621127 255.621349 
L 310.90452 255.167814 
L 311.471305 255.103023 
L 311.754698 254.195952 
L 312.03809 254.455115 
L 312.321483 254.519906 
L 312.604876 254.714278 
L 312.888268 254.325533 
L 313.171661 253.677625 
L 313.455053 254.260743 
L 313.738446 254.001579 
L 314.021838 253.988621 
L 314.305231 253.742416 
L 314.588624 253.807207 
L 314.872016 254.688362 
L 315.155409 253.807207 
L 315.438801 254.260743 
L 315.722194 257.111537 
L 316.005587 254.649487 
L 316.288979 255.103023 
L 316.572372 256.010094 
L 316.855764 256.074885 
L 317.139157 256.463629 
L 317.42255 256.463629 
L 317.989335 257.565073 
L 318.272727 260.286286 
L 318.55612 258.277771 
L 318.839512 257.500282 
L 319.122905 259.767959 
L 319.406298 259.703169 
L 319.68969 258.925679 
L 319.973083 258.860888 
L 320.256475 259.184842 
L 320.539868 259.197801 
L 320.823261 260.091913 
L 321.106653 259.767959 
L 321.390046 259.184842 
L 321.673438 260.545449 
L 321.956831 259.897541 
L 322.240223 259.962332 
L 322.523616 260.480658 
L 322.807009 258.99047 
L 323.090401 256.593211 
L 323.373794 266.830155 
L 323.657186 263.525825 
L 323.940579 262.359591 
L 324.790757 260.545449 
L 325.074149 261.322938 
L 325.357542 260.934194 
L 325.640934 259.767959 
L 325.924327 266.182247 
L 326.20772 263.655407 
L 326.491112 262.618754 
L 326.774505 262.489173 
L 327.057897 262.553963 
L 327.34129 262.2948 
L 327.624683 263.13708 
L 327.908075 263.13708 
L 328.191468 263.396244 
L 328.47486 263.979361 
L 328.758253 263.201871 
L 329.041646 264.173733 
L 329.325038 263.849779 
L 329.608431 262.2948 
L 329.891823 259.314424 
L 330.175216 264.717976 
L 330.458608 266.117457 
L 330.742001 265.59913 
L 331.025394 265.53434 
L 331.592179 269.227414 
L 331.875571 268.190762 
L 332.158964 265.793503 
L 332.442357 266.117457 
L 332.725749 263.849779 
L 333.292534 263.940486 
L 333.575927 264.238524 
L 333.859319 263.720197 
L 334.142712 264.75685 
L 334.426105 264.173733 
L 334.709497 263.07229 
L 334.99289 263.396244 
L 335.559675 263.590616 
L 336.12646 264.238524 
L 336.409853 264.108942 
L 336.693245 264.627269 
L 336.976638 264.497687 
L 337.543423 263.266662 
L 337.826816 263.461034 
L 338.110208 263.91457 
L 338.393601 263.525825 
L 338.676993 264.432896 
L 338.960386 261.841265 
L 339.243779 260.441784 
L 339.527171 54.8347 
L 339.810564 259.120052 
L 343.211275 241.626539 
L 343.77806 242.598401 
L 344.061453 241.626539 
L 344.344845 242.948271 
L 344.91163 240.91384 
L 345.478415 238.970117 
L 346.045201 236.508067 
L 346.328593 235.795368 
L 346.895378 232.296666 
L 347.178771 232.167084 
L 347.462164 233.657272 
L 347.745556 231.324804 
L 348.028949 231.324804 
L 348.312341 232.037503 
L 348.879126 232.68541 
L 349.162519 233.138946 
L 349.445912 232.491038 
L 349.729304 232.361457 
L 350.012697 230.741687 
L 350.296089 231.674674 
L 350.579482 237.428096 
L 350.862875 237.220766 
L 351.146267 237.739092 
L 351.42966 239.812397 
L 351.713052 240.265933 
L 351.996445 242.663192 
L 352.279837 243.505472 
L 352.56323 240.330723 
L 352.846623 240.460305 
L 353.130015 243.181518 
L 353.413408 241.950493 
L 353.6968 241.69133 
L 353.980193 242.015284 
L 354.263586 242.727982 
L 354.546978 242.792773 
L 354.830371 243.505472 
L 355.113763 243.894217 
L 355.397156 248.883107 
L 355.680549 245.060451 
L 355.963941 245.125242 
L 356.247334 245.708359 
L 356.530726 246.745011 
L 356.814119 245.319614 
L 357.097511 247.166151 
L 357.380904 253.936789 
L 357.664297 249.984551 
L 357.947689 250.114132 
L 358.231082 249.854969 
L 358.514474 249.790178 
L 359.08126 251.863483 
L 359.364652 249.271852 
L 359.648045 250.178923 
L 359.931437 254.973441 
L 360.21483 251.798693 
L 360.498222 250.502877 
L 360.781615 250.373295 
L 361.3484 251.215576 
L 361.631793 250.826831 
L 361.915185 250.632459 
L 362.765363 252.576182 
L 363.048756 252.252228 
L 363.332148 252.900136 
L 363.615541 251.409948 
L 363.898933 253.988621 
L 364.182326 258.342562 
L 364.465719 254.06637 
L 364.749111 253.807207 
L 365.032504 253.742416 
L 365.315896 254.455115 
L 365.882682 257.3707 
L 366.166074 254.260743 
L 366.449467 254.519906 
L 366.732859 258.601725 
L 367.016252 256.658002 
L 367.299644 255.68614 
L 367.583037 255.945303 
L 367.86643 256.010094 
L 368.149822 255.945303 
L 368.433215 256.269257 
L 368.716607 257.111537 
L 369 262.463256 
L 369.283393 256.852374 
L 369.566785 256.398839 
L 370.13357 256.204466 
L 370.983748 255.103023 
L 371.267141 260.091913 
L 371.550533 255.556558 
L 371.833926 255.232604 
L 372.400711 256.787583 
L 372.684104 257.241119 
L 372.967496 256.398839 
L 373.250889 256.917165 
L 373.534281 257.889027 
L 373.817674 257.500282 
L 374.101067 257.629864 
L 374.384459 257.3707 
L 374.667852 258.407353 
L 374.951244 257.629864 
L 375.234637 257.694654 
L 375.518029 258.796098 
L 375.801422 259.120052 
L 376.084815 257.629864 
L 376.368207 257.824236 
L 376.6516 258.472144 
L 376.934992 257.241119 
L 377.218385 257.500282 
L 377.501778 258.018608 
L 377.78517 265.145595 
L 378.068563 261.970846 
L 378.351955 261.906055 
L 378.635348 261.582102 
L 379.202133 264.432896 
L 379.485526 265.663921 
L 379.768918 261.646892 
L 380.052311 259.703169 
L 380.335703 262.489173 
L 380.619096 260.480658 
L 381.185881 261.841265 
L 381.752666 261.776474 
L 382.036059 262.035637 
L 382.319451 261.387729 
L 382.602844 259.962332 
L 382.886237 261.776474 
L 383.169629 257.759445 
L 383.453022 258.472144 
L 383.736414 259.703169 
L 384.019807 259.508796 
L 384.3032 260.351077 
L 384.586592 263.849779 
L 384.869985 263.849779 
L 385.153377 262.2948 
L 385.720163 261.970846 
L 386.003555 262.683545 
L 386.286948 263.07229 
L 386.57034 261.970846 
L 386.853733 261.387729 
L 387.137125 264.951222 
L 387.420518 264.562478 
L 387.703911 263.590616 
L 387.987303 264.173733 
L 388.270696 263.979361 
L 388.554088 264.173733 
L 388.837481 265.016013 
L 389.120874 265.016013 
L 389.404266 264.303315 
L 389.687659 264.432896 
L 390.254444 265.275176 
L 390.537836 265.210386 
L 391.104622 259.897541 
L 391.954799 267.594687 
L 392.238192 273.82756 
L 392.521585 267.931599 
L 393.08837 271.819046 
L 393.655155 265.923084 
L 393.938547 266.700574 
L 394.505333 264.108942 
L 394.788725 264.303315 
L 395.072118 264.329231 
L 395.35551 264.173733 
L 396.489081 262.748336 
L 396.772473 263.720197 
L 397.055866 262.748336 
L 397.339259 262.553963 
L 397.622651 262.683545 
L 397.906044 262.553963 
L 398.189436 263.007499 
L 398.472829 263.91457 
L 398.756221 263.91457 
L 399.039614 265.663921 
L 399.323007 265.145595 
L 399.606399 266.37662 
L 399.889792 265.210386 
L 400.173184 265.469549 
L 400.456577 266.37662 
L 400.73997 265.016013 
L 401.023362 264.951222 
L 401.590147 265.145595 
L 401.87354 264.75685 
L 402.156932 265.469549 
L 402.440325 265.404758 
L 402.723718 265.59913 
L 403.00711 265.275176 
L 403.573895 266.052666 
L 404.140681 267.283691 
L 404.424073 268.190762 
L 404.707466 265.663921 
L 404.990858 268.125971 
L 405.274251 269.292205 
L 405.557643 269.162624 
L 405.841036 269.486578 
L 406.124429 268.773879 
L 406.407821 270.717602 
L 406.691214 271.235929 
L 406.974606 270.393649 
L 407.541392 270.328858 
L 407.824784 268.449925 
L 408.108177 267.413272 
L 408.391569 266.830155 
L 408.958354 268.190762 
L 409.241747 268.514716 
L 409.52514 267.866808 
L 409.808532 267.996389 
L 410.091925 268.449925 
L 410.375317 268.514716 
L 410.65871 268.968251 
L 410.942103 270.264067 
L 411.225495 270.652812 
L 411.508888 269.162624 
L 412.075673 273.438816 
L 412.359066 272.661326 
L 412.642458 273.244443 
L 412.925851 274.410677 
L 413.209243 271.948627 
L 413.492636 273.762769 
L 413.776028 271.30072 
L 414.059421 273.050071 
L 414.342814 272.596535 
L 414.626206 270.717602 
L 415.759777 271.689464 
L 416.043169 271.430301 
L 416.326562 271.689464 
L 416.609954 271.624674 
L 416.893347 272.272581 
L 417.176739 273.503606 
L 417.460132 273.179652 
L 417.743525 273.438816 
L 418.026917 272.337372 
L 418.31031 269.875322 
L 418.593702 272.337372 
L 419.160488 273.957142 
L 419.44388 276.872727 
L 419.727273 273.892351 
L 420.010665 275.252958 
L 420.294058 275.252958 
L 420.57745 272.596535 
L 420.860843 271.948627 
L 421.144236 274.475468 
L 421.427628 274.410677 
L 421.711021 273.050071 
L 422.277806 273.503606 
L 422.561199 272.855698 
L 422.844591 273.438816 
L 423.411376 271.883837 
L 423.694769 269.421787 
L 423.978162 268.190762 
L 424.261554 268.385134 
L 424.544947 267.802017 
L 424.828339 266.700574 
L 425.111732 262.489173 
L 425.395124 266.570992 
L 425.678517 266.830155 
L 425.96191 265.793503 
L 426.245302 264.173733 
L 426.528695 263.784988 
L 426.812087 264.303315 
L 427.09548 263.266662 
L 427.378873 258.536935 
L 427.662265 257.435491 
L 427.945658 258.212981 
L 429.646013 251.474739 
L 429.929406 251.021203 
L 430.496191 251.345157 
L 431.062976 250.502877 
L 431.346369 252.187437 
L 431.629761 252.122647 
L 431.913154 250.567668 
L 432.479939 252.640973 
L 432.763332 250.826831 
L 433.046724 252.640973 
L 433.330117 252.122647 
L 433.613509 253.094508 
L 433.896902 252.705764 
L 434.180295 251.733902 
L 434.463687 251.60432 
L 434.74708 251.669111 
L 435.030472 251.474739 
L 435.313865 251.733902 
L 435.88065 252.640973 
L 436.447435 252.705764 
L 436.730828 252.640973 
L 437.01422 252.252228 
L 437.297613 252.705764 
L 437.864398 254.779069 
L 438.147791 255.297395 
L 438.431183 255.556558 
L 438.997969 257.694654 
L 439.281361 256.981956 
L 439.564754 257.111537 
L 439.848146 255.880512 
L 440.131539 256.463629 
L 440.414931 255.945303 
L 440.698324 256.658002 
L 440.981717 254.584697 
L 441.265109 254.584697 
L 441.548502 254.779069 
L 442.115287 254.584697 
L 442.39868 254.999358 
L 442.682072 255.167814 
L 443.248857 256.722792 
L 443.53225 256.074885 
L 443.815642 256.398839 
L 444.099035 255.815721 
L 444.382428 255.945303 
L 444.66582 256.269257 
L 444.949213 257.565073 
L 445.232605 257.824236 
L 445.799391 258.99047 
L 446.082783 259.120052 
L 446.366176 258.666516 
L 446.649568 258.536935 
L 446.932961 258.731307 
L 447.216353 258.472144 
L 447.499746 258.860888 
L 448.066531 258.731307 
L 448.349924 258.925679 
L 448.633316 258.860888 
L 449.483494 259.314424 
L 449.766887 259.184842 
L 450.050279 260.545449 
L 450.333672 260.091913 
L 450.617064 260.415867 
L 450.900457 260.221495 
L 451.18385 260.286286 
L 451.467242 260.675031 
L 451.750635 261.582102 
L 452.034027 260.998984 
L 452.31742 261.063775 
L 452.600813 261.841265 
L 452.884205 261.646892 
L 453.167598 264.432896 
L 453.45099 265.016013 
L 453.734383 264.821641 
L 454.017776 265.987875 
L 454.301168 266.570992 
L 454.584561 265.016013 
L 455.151346 264.044151 
L 455.434738 264.821641 
L 455.718131 263.266662 
L 456.001524 254.001579 
L 456.284916 239.812397 
L 456.568309 238.063046 
L 456.851701 238.710954 
L 457.135094 239.877188 
L 457.418487 240.201142 
L 457.701879 240.784259 
L 457.985272 241.69133 
L 458.268664 242.015284 
L 459.402235 245.513986 
L 459.685627 246.226685 
L 459.96902 246.61543 
L 460.252412 247.522501 
L 461.10259 248.429572 
L 461.385983 248.364781 
L 461.669375 247.652082 
L 461.952768 247.781664 
L 462.23616 247.652082 
L 462.519553 247.198547 
L 462.802946 248.040827 
L 463.086338 249.595806 
L 463.369731 249.790178 
L 463.653123 249.336643 
L 464.219909 249.271852 
L 464.503301 249.984551 
L 465.070086 250.049341 
L 465.353479 248.818316 
L 465.636872 248.818316 
L 465.920264 249.271852 
L 466.203657 249.466224 
L 466.487049 248.494363 
L 466.770442 249.91976 
L 467.053834 250.632459 
L 467.337227 251.733902 
L 467.62062 253.353672 
L 467.904012 253.807207 
L 468.187405 251.345157 
L 468.470797 252.122647 
L 469.037583 250.502877 
L 469.604368 251.085994 
L 470.171153 251.150785 
L 470.737938 251.993065 
L 471.021331 253.094508 
L 471.304723 253.483253 
L 471.588116 253.418462 
L 471.871508 253.483253 
L 472.438294 254.455115 
L 472.721686 253.483253 
L 473.005079 253.029718 
L 473.571864 256.981956 
L 474.138649 257.565073 
L 474.422042 261.193357 
L 474.705434 263.201871 
L 474.988827 258.666516 
L 475.272219 259.379215 
L 475.555612 257.565073 
L 475.839005 257.111537 
L 476.122397 257.565073 
L 476.40579 257.759445 
L 476.972575 258.472144 
L 477.255967 258.342562 
L 477.53936 258.731307 
L 478.106145 260.221495 
L 478.389538 260.351077 
L 479.239716 263.720197 
L 479.523108 263.849779 
L 479.806501 267.024528 
L 480.089893 266.765364 
L 480.373286 266.700574 
L 480.940071 267.737226 
L 481.506856 270.069695 
L 481.790249 266.765364 
L 482.073641 268.579507 
L 482.357034 268.190762 
L 482.640427 266.959737 
L 482.923819 266.247038 
L 483.490604 266.959737 
L 483.773997 267.154109 
L 484.05739 267.802017 
L 484.340782 267.024528 
L 484.624175 266.894946 
L 484.907567 267.607645 
L 485.19096 268.968251 
L 485.757745 269.292205 
L 486.041138 269.356996 
L 486.32453 269.875322 
L 486.607923 271.883837 
L 486.891315 270.717602 
L 487.458101 269.227414 
L 487.741493 271.30072 
L 488.024886 272.143 
L 488.308278 272.337372 
L 488.591671 267.866808 
L 488.875063 272.402163 
L 489.158456 272.207791 
L 489.441849 270.588021 
L 489.725241 270.458439 
L 490.008634 270.004904 
L 490.292026 269.875322 
L 490.575419 269.486578 
L 490.858812 270.199276 
L 491.425597 270.264067 
L 491.992382 271.30072 
L 492.559167 271.171138 
L 492.84256 270.134485 
L 493.125952 270.004904 
L 493.409345 270.199276 
L 493.692737 268.968251 
L 493.97613 268.709088 
L 494.259523 267.737226 
L 494.542915 269.227414 
L 494.826308 269.616159 
L 495.1097 268.644297 
L 495.393093 268.83867 
L 495.676486 268.514716 
L 495.959878 271.041556 
L 496.243271 270.134485 
L 496.526663 267.089318 
L 497.093448 269.162624 
L 497.376841 268.83867 
L 497.660234 268.320343 
L 497.943626 268.125971 
L 498.227019 268.709088 
L 498.510411 268.83867 
L 498.793804 269.097833 
L 499.077197 270.588021 
L 499.643982 267.750184 
L 500.210767 266.570992 
L 500.494159 266.635783 
L 500.777552 267.024528 
L 501.060945 265.53434 
L 501.344337 265.210386 
L 501.62773 264.692059 
L 501.911122 263.91457 
L 502.477908 263.979361 
L 503.328085 262.230009 
L 503.611478 262.2948 
L 503.89487 266.37662 
L 504.178263 262.813126 
L 504.461656 261.776474 
L 505.311833 263.784988 
L 505.595226 263.590616 
L 505.878619 263.13708 
L 506.162011 263.784988 
L 506.445404 263.525825 
L 506.728796 263.707239 
L 507.012189 266.830155 
L 507.862367 263.201871 
L 508.145759 263.525825 
L 508.429152 265.016013 
L 508.995937 261.128566 
L 509.27933 261.45252 
L 509.562722 262.100428 
L 509.846115 258.925679 
L 510.129507 239.747606 
L 510.4129 230.547315 
L 510.696293 230.612105 
L 510.979685 231.519176 
L 511.263078 231.519176 
L 511.54647 233.786854 
L 511.829863 233.722063 
L 512.396648 236.378485 
L 512.680041 236.184113 
L 513.246826 237.415138 
L 513.813611 240.136351 
L 514.097004 240.719468 
L 514.663789 243.440681 
L 514.947181 242.922355 
L 515.513966 244.866078 
L 515.797359 245.319614 
L 516.080752 244.425501 
L 524.865922 258.886805 
L 525.149314 259.962332 
L 525.432707 260.221495 
L 525.7161 259.314424 
L 525.999492 259.379215 
L 526.282885 259.184842 
L 526.566277 259.444006 
L 526.84967 259.249633 
L 527.133062 260.351077 
L 527.416455 262.424382 
L 527.699848 263.201871 
L 527.98324 263.13708 
L 528.266633 262.748336 
L 528.550025 261.45252 
L 528.833418 262.618754 
L 529.116811 262.489173 
L 529.400203 262.553963 
L 529.683596 262.489173 
L 529.966988 263.007499 
L 530.250381 262.165219 
L 530.533773 262.2948 
L 530.817166 261.906055 
L 531.100559 262.230009 
L 531.383951 263.201871 
L 532.234129 262.618754 
L 532.517522 263.590616 
L 532.800914 265.275176 
L 533.084307 264.497687 
L 533.367699 264.173733 
L 533.651092 263.461034 
L 533.934485 263.396244 
L 534.217877 263.201871 
L 534.50127 263.525825 
L 534.784662 264.173733 
L 535.068055 264.108942 
L 535.63484 264.368105 
L 535.918233 263.525825 
L 536.201625 263.525825 
L 536.485018 263.13708 
L 536.76841 263.201871 
L 537.051803 263.525825 
L 537.335196 264.173733 
L 537.618588 263.396244 
L 538.185373 263.13708 
L 538.468766 263.266662 
L 539.035551 262.877917 
L 539.318944 263.461034 
L 539.602336 263.396244 
L 539.885729 264.044151 
L 540.735907 262.230009 
L 541.019299 262.230009 
L 541.302692 263.461034 
L 541.586084 263.396244 
L 541.869477 263.849779 
L 542.436262 264.368105 
L 542.719655 265.728712 
L 543.003047 263.655407 
L 543.569832 264.303315 
L 543.853225 263.266662 
L 544.136618 264.368105 
L 544.42001 264.497687 
L 544.703403 263.91457 
L 545.270188 264.75685 
L 545.55358 264.238524 
L 546.120366 263.849779 
L 546.403758 263.979361 
L 546.687151 264.692059 
L 546.970543 264.562478 
L 547.253936 262.877917 
L 547.537329 263.396244 
L 547.820721 267.478063 
L 548.670899 265.275176 
L 548.954292 267.154109 
L 549.521077 268.449925 
L 549.804469 264.432896 
L 550.371254 264.692059 
L 550.654647 263.201871 
L 550.93804 263.331453 
L 551.221432 263.266662 
L 551.504825 263.007499 
L 552.07161 263.331453 
L 552.355003 263.201871 
L 552.638395 263.461034 
L 552.921788 262.359591 
L 553.20518 262.230009 
L 553.771965 262.2948 
L 554.055358 262.553963 
L 554.622143 262.035637 
L 554.905536 262.100428 
L 555.188928 261.906055 
L 555.755714 262.877917 
L 556.039106 263.720197 
L 556.322499 263.396244 
L 556.605891 262.683545 
L 556.889284 262.424382 
L 557.172676 259.379215 
L 557.456069 258.536935 
L 557.739462 256.139675 
L 558.306247 253.677625 
L 558.589639 252.822387 
L 558.873032 251.150785 
L 559.72321 251.021203 
L 560.006602 250.76204 
L 560.289995 250.826831 
L 560.573388 250.567668 
L 561.423565 248.753526 
L 561.706958 248.559153 
L 561.99035 248.623944 
L 562.273743 247.846455 
L 562.557136 248.429572 
L 562.840528 248.040827 
L 563.123921 248.040827 
L 563.690706 245.643568 
L 563.974099 245.449196 
L 564.257491 243.570263 
L 565.107669 234.110808 
L 565.391061 232.879783 
L 565.674454 229.899407 
L 565.957847 229.31629 
L 566.241239 229.705034 
L 566.524632 230.288151 
L 566.808024 230.612105 
L 567.091417 231.84313 
L 567.37481 232.361457 
L 567.658202 232.491038 
L 568.50838 235.471414 
L 569.075165 239.423652 
L 569.925343 240.006769 
L 570.208735 239.941979 
L 570.492128 240.84905 
L 571.058913 240.784259 
L 571.342306 241.108213 
L 572.475876 243.959007 
L 573.609446 246.097103 
L 573.892839 246.485848 
L 574.176232 247.198547 
L 574.459624 247.45771 
L 575.026409 249.595806 
L 575.309802 249.401434 
L 575.593195 250.373295 
L 575.876587 250.567668 
L 576.15998 251.409948 
L 576.726765 257.629864 
L 577.010157 252.705764 
L 577.29355 252.317019 
L 577.576943 252.511391 
L 577.860335 252.122647 
L 578.143728 252.252228 
L 578.42712 252.511391 
L 578.710513 253.288881 
L 578.993906 253.029718 
L 579.560691 254.06637 
L 579.844083 254.001579 
L 580.127476 253.483253 
L 580.410868 254.90865 
L 580.694261 252.964927 
L 581.261046 252.446601 
L 581.544439 252.576182 
L 581.827831 253.612835 
L 582.111224 253.871998 
L 582.394617 254.584697 
L 582.678009 254.973441 
L 582.961402 255.167814 
L 583.244794 254.649487 
L 583.528187 255.750931 
L 583.811579 255.750931 
L 584.094972 255.556558 
L 584.378365 255.750931 
L 584.661757 255.167814 
L 584.94515 255.750931 
L 585.511935 255.945303 
L 585.795328 255.880512 
L 586.362113 256.52842 
L 586.645505 256.658002 
L 587.212291 258.472144 
L 587.495683 258.083399 
L 587.779076 258.342562 
L 588.062468 258.212981 
L 588.345861 258.212981 
L 588.629253 259.444006 
L 588.912646 258.407353 
L 589.196039 257.889027 
L 589.479431 258.796098 
L 589.762824 257.759445 
L 590.046216 258.601725 
L 590.329609 257.176328 
L 590.613002 257.176328 
L 590.896394 259.767959 
L 591.179787 258.018608 
L 591.463179 258.342562 
L 592.029964 257.3707 
L 592.313357 255.815721 
L 592.59675 257.241119 
L 593.163535 256.981956 
L 593.446927 256.658002 
L 593.73032 256.917165 
L 594.013713 257.694654 
L 594.297105 257.500282 
L 594.580498 257.694654 
L 595.147283 256.593211 
L 595.430675 256.917165 
L 595.714068 256.52842 
L 595.997461 256.52842 
L 596.280853 256.722792 
L 596.564246 257.241119 
L 597.131031 257.500282 
L 597.414424 256.981956 
L 597.697816 256.010094 
L 597.981209 256.074885 
L 598.547994 252.822387 
L 598.831386 251.215576 
L 599.114779 252.252228 
L 599.398172 250.826831 
L 599.681564 250.567668 
L 599.964957 250.502877 
L 600.248349 251.53953 
L 600.531742 251.53953 
L 600.815135 251.215576 
L 601.098527 250.697249 
L 601.38192 250.891622 
L 601.948705 249.984551 
L 602.232098 249.790178 
L 602.51549 249.336643 
L 602.798883 249.595806 
L 603.082275 249.07748 
L 603.365668 248.29999 
L 603.64906 248.170409 
L 603.932453 248.818316 
L 604.215846 248.494363 
L 604.499238 247.976036 
L 604.782631 247.198547 
L 605.066023 247.45771 
L 605.349416 247.328128 
L 605.632809 247.004174 
L 605.916201 247.587292 
L 606.199594 247.328128 
L 606.482986 247.652082 
L 606.766379 246.939384 
L 607.333164 247.45771 
L 607.616557 247.328128 
L 607.899949 247.328128 
L 608.183342 247.976036 
L 608.466734 248.040827 
L 609.03352 248.753526 
L 609.316912 248.559153 
L 609.883697 250.308505 
L 610.16709 250.567668 
L 610.450482 253.288881 
L 610.733875 253.612835 
L 611.017268 251.733902 
L 611.30066 251.474739 
L 611.584053 251.669111 
L 611.867445 251.021203 
L 612.434231 251.474739 
L 612.717623 252.640973 
L 613.001016 252.576182 
L 613.567801 253.22409 
L 613.851193 253.22409 
L 614.134586 253.353672 
L 614.417979 251.474739 
L 614.701371 252.770554 
L 614.984764 253.029718 
L 615.834942 254.714278 
L 616.118334 258.212981 
L 616.401727 259.508796 
L 616.685119 259.379215 
L 617.251905 263.849779 
L 617.535297 261.387729 
L 617.81869 256.981956 
L 618.102082 257.3707 
L 618.385475 259.055261 
L 618.668867 257.565073 
L 618.95226 257.629864 
L 619.235653 257.953817 
L 619.519045 258.601725 
L 620.08583 259.120052 
L 620.369223 257.953817 
L 620.652616 258.407353 
L 620.936008 258.407353 
L 621.502793 259.120052 
L 622.069578 258.277771 
L 622.352971 261.841265 
L 622.636364 262.230009 
L 622.636364 262.230009 
" clip-path="url(#pa5d74be738)" style="fill: none; stroke: #1f77b4; stroke-width: 1.5; stroke-linecap: square"/>
   </g>
   <g id="line2d_13">
    <path d="M 115.363636 264.706398 
L 115.930422 264.771802 
L 116.213814 266.830155 
L 117.630777 266.750506 
L 118.197562 266.413899 
L 118.480955 266.402432 
L 118.764347 266.633662 
L 119.04774 266.616874 
L 119.331133 266.444812 
L 119.897918 266.798187 
L 120.18131 266.472522 
L 120.748095 266.808606 
L 121.314881 267.939972 
L 121.598273 268.327978 
L 122.448451 268.738786 
L 122.731844 268.788677 
L 123.015236 269.940113 
L 128.116303 270.049078 
L 128.683088 269.614645 
L 128.96648 269.100526 
L 129.249873 268.293539 
L 129.533266 266.949015 
L 129.816658 260.415867 
L 130.100051 259.3624 
L 131.233621 259.65893 
L 131.800406 258.445165 
L 132.367191 258.201908 
L 132.650584 257.834668 
L 132.933977 254.450118 
L 133.217369 262.793007 
L 133.500762 264.753093 
L 134.35094 267.815704 
L 134.634332 268.252591 
L 135.201117 268.522166 
L 136.334688 268.543076 
L 136.61808 255.491768 
L 143.13611 256.193415 
L 143.419502 260.869403 
L 147.103606 261.121977 
L 147.386998 260.991953 
L 147.670391 260.687669 
L 147.953784 260.604106 
L 148.237176 260.752939 
L 148.520569 260.16104 
L 149.087354 258.08354 
L 149.937532 253.597294 
L 150.220924 257.694654 
L 150.504317 256.011946 
L 151.92128 252.750755 
L 152.488065 252.3354 
L 153.338243 252.350357 
L 156.738954 252.734243 
L 157.022346 252.964927 
L 163.540376 253.734062 
L 163.823768 255.815721 
L 166.374302 256.072541 
L 166.657694 255.979989 
L 167.507872 250.364402 
L 167.791265 249.002572 
L 168.35805 247.895067 
L 168.641442 247.812644 
L 169.49162 246.848255 
L 170.058405 246.840245 
L 170.341798 246.881983 
L 170.62519 244.671706 
L 171.191976 244.679236 
L 175.159472 245.452668 
L 177.14322 245.836413 
L 177.426612 244.542125 
L 183.944642 245.827902 
L 184.228035 253.742416 
L 184.511427 252.227802 
L 184.79482 251.97504 
L 185.078212 252.445885 
L 185.361605 252.211525 
L 185.92839 252.168385 
L 190.746064 252.814388 
L 191.029457 257.3707 
L 197.547486 257.97211 
L 197.830879 261.45252 
L 200.664804 261.630837 
L 200.948197 261.482955 
L 201.514982 260.203329 
L 202.081767 259.391317 
L 202.648553 259.219972 
L 204.348908 259.322077 
L 204.632301 260.739821 
L 204.915693 259.589121 
L 205.199086 259.677762 
L 205.482478 260.114661 
L 206.049264 260.443305 
L 206.616049 259.857745 
L 207.182834 199.950573 
L 207.749619 198.515989 
L 208.033012 197.981034 
L 208.883189 195.54815 
L 209.449975 194.640313 
L 209.733367 194.722804 
L 210.300152 54.327273 
L 210.583545 111.353035 
L 210.866938 115.455015 
L 211.15033 121.635752 
L 211.433723 124.931204 
L 212.850686 131.770981 
L 214.834434 139.282976 
L 215.684611 141.546297 
L 216.251397 140.60347 
L 216.818182 142.096424 
L 217.951752 144.437165 
L 218.80193 145.80556 
L 219.085322 145.784368 
L 219.368715 145.476034 
L 219.652108 145.47946 
L 220.785678 146.997086 
L 221.352463 146.597258 
L 221.635856 146.892728 
L 222.202641 147.726612 
L 223.336211 148.91609 
L 224.753174 150.066197 
L 226.45353 151.124202 
L 228.153885 151.924492 
L 230.137633 152.621928 
L 232.688167 153.255095 
L 235.522092 153.724276 
L 238.356018 154.032507 
L 238.639411 256.139675 
L 245.15744 254.782584 
L 245.440833 259.962332 
L 248.274759 259.411395 
L 249.408329 258.913208 
L 249.691722 258.851666 
L 249.975114 258.365966 
L 250.258507 258.156177 
L 250.825292 258.284421 
L 251.392077 258.571621 
L 251.67547 258.709713 
L 251.958862 259.270198 
L 252.242255 258.277771 
L 252.525648 258.40964 
L 253.092433 258.851539 
L 253.659218 258.942374 
L 255.076181 258.762695 
L 258.760284 258.106876 
L 259.043677 252.900136 
L 274.913662 257.695333 
L 275.480447 257.915206 
L 276.330625 258.078917 
L 278.03098 258.45258 
L 278.597765 256.524055 
L 278.881158 256.488895 
L 279.447943 256.939927 
L 280.581513 257.351972 
L 287.382936 259.29838 
L 287.666328 264.821641 
L 292.767395 265.529735 
L 293.050787 268.320343 
L 298.151854 268.327201 
L 298.718639 268.276787 
L 301.269172 268.256278 
L 301.835957 267.658398 
L 302.402743 267.7873 
L 304.669883 267.892741 
L 317.989335 268.235946 
L 336.409853 268.470486 
L 339.810564 268.495957 
L 343.211275 241.54879 
L 344.91163 241.720759 
L 345.478415 241.375521 
L 348.879126 241.909948 
L 350.579482 242.293893 
L 350.862875 231.674674 
L 356.247334 233.348866 
L 356.530726 245.047493 
L 363.048756 246.334815 
L 363.332148 252.433642 
L 369.850178 253.318013 
L 370.13357 256.476587 
L 375.801422 256.957751 
L 376.6516 257.042939 
L 376.934992 257.565073 
L 378.351955 257.637746 
L 383.453022 258.109786 
L 383.736414 257.876068 
L 390.254444 259.705903 
L 390.537836 265.10672 
L 397.055866 265.299713 
L 397.339259 263.62949 
L 397.906044 263.540204 
L 398.756221 263.582023 
L 403.857288 263.792155 
L 404.140681 266.039708 
L 406.407821 266.213596 
L 406.974606 266.217017 
L 407.541392 266.237054 
L 408.108177 265.900051 
L 409.52514 266.058055 
L 410.091925 266.025014 
L 411.225495 265.436519 
L 412.075673 265.524768 
L 412.359066 269.305163 
L 417.743525 269.154399 
L 418.026917 273.037113 
L 421.994413 272.175345 
L 426.528695 271.416776 
L 431.062976 270.834898 
L 431.346369 250.800915 
L 437.864398 252.642722 
L 438.147791 253.910872 
L 439.848146 253.628008 
L 440.414931 252.601862 
L 440.981717 253.225067 
L 441.265109 253.083046 
L 442.115287 253.903197 
L 442.682072 254.517616 
L 443.248857 254.817366 
L 444.099035 254.776551 
L 446.082783 254.364031 
L 446.366176 258.187064 
L 447.783139 257.930898 
L 448.066531 258.420311 
L 451.467242 257.800933 
L 451.750635 260.208537 
L 461.952768 258.509336 
L 465.070086 257.945159 
L 465.353479 250.023425 
L 471.871508 251.852423 
L 472.154901 253.444379 
L 478.67293 255.414413 
L 478.956323 260.364035 
L 485.474352 260.815764 
L 485.757745 268.994168 
L 492.559167 268.897544 
L 492.84256 271.482134 
L 497.093448 271.406264 
L 497.376841 270.979677 
L 497.943626 268.142803 
L 498.227019 267.481116 
L 498.793804 267.202808 
L 499.077197 267.169982 
L 499.360589 268.916419 
L 499.643982 268.178772 
L 499.927374 267.790711 
L 500.777552 266.148643 
L 501.060945 265.797851 
L 501.62773 264.60609 
L 501.911122 264.332925 
L 502.477908 263.264308 
L 503.044693 262.950554 
L 503.611478 262.764353 
L 505.028441 262.787242 
L 505.878619 262.829527 
L 506.162011 263.62949 
L 508.429152 263.705458 
L 509.27933 262.921611 
L 509.846115 262.857163 
L 511.263078 262.868548 
L 511.54647 262.494145 
L 512.113255 261.271555 
L 512.680041 260.377829 
L 512.963433 236.261862 
L 513.813611 235.728696 
L 514.380396 234.96777 
L 514.947181 234.536074 
L 515.797359 234.324574 
L 516.080752 234.187115 
L 525.7161 229.323566 
L 529.400203 227.744 
L 532.800914 226.027888 
L 533.084307 225.872211 
L 533.367699 265.339967 
L 535.068055 265.345124 
L 535.351447 265.203063 
L 537.051803 263.637939 
L 538.752158 263.427891 
L 544.42001 263.659648 
L 546.687151 263.75597 
L 546.970543 264.173733 
L 553.488573 264.417616 
L 553.771965 262.230009 
L 555.472321 262.548079 
L 556.039106 262.115052 
L 556.605891 261.678791 
L 556.889284 261.593936 
L 557.172676 261.335504 
L 557.739462 260.47464 
L 558.022854 260.355043 
L 558.306247 259.800213 
L 558.873032 257.501325 
L 559.439817 254.798628 
L 560.006602 253.232336 
L 560.573388 252.460782 
L 560.85678 250.723166 
L 564.257491 251.223265 
L 567.091417 251.643043 
L 567.37481 230.586189 
L 570.208735 231.401979 
L 570.492128 231.485394 
L 571.058913 231.415118 
L 573.892839 232.244635 
L 574.176232 246.135978 
L 580.694261 247.363917 
L 580.977654 254.921609 
L 587.495683 255.670249 
L 587.779076 258.187064 
L 592.029964 258.537422 
L 592.59675 258.030041 
L 592.880142 257.983392 
L 593.446927 257.348274 
L 594.297105 257.144572 
L 594.580498 257.565073 
L 595.147283 257.20065 
L 595.997461 257.139601 
L 597.131031 257.205168 
L 597.414424 257.001512 
L 597.981209 256.14509 
L 599.114779 255.026076 
L 600.248349 254.377965 
L 600.815135 252.308329 
L 601.098527 252.433839 
L 601.38192 251.189659 
L 601.948705 251.070236 
L 603.365668 251.236904 
L 607.899949 251.902745 
L 608.183342 247.224463 
L 608.750127 247.504116 
L 610.450482 247.943263 
L 613.001016 248.321343 
L 614.701371 248.631219 
L 614.984764 251.345157 
L 621.502793 252.273343 
L 621.786186 258.964554 
L 622.636364 259.033921 
L 622.636364 259.033921 
" clip-path="url(#pa5d74be738)" style="fill: none; stroke: #ff7f0e; stroke-width: 1.5; stroke-linecap: square"/>
   </g>
   <g id="patch_3">
    <path d="M 90 288 
L 90 43.2 
" style="fill: none; stroke: #000000; stroke-width: 0.8; stroke-linejoin: miter; stroke-linecap: square"/>
   </g>
   <g id="patch_4">
    <path d="M 648 288 
L 648 43.2 
" style="fill: none; stroke: #000000; stroke-width: 0.8; stroke-linejoin: miter; stroke-linecap: square"/>
   </g>
   <g id="patch_5">
    <path d="M 90 288 
L 648 288 
" style="fill: none; stroke: #000000; stroke-width: 0.8; stroke-linejoin: miter; stroke-linecap: square"/>
   </g>
   <g id="patch_6">
    <path d="M 90 43.2 
L 648 43.2 
" style="fill: none; stroke: #000000; stroke-width: 0.8; stroke-linejoin: miter; stroke-linecap: square"/>
   </g>
   <g id="text_13">
    <!-- MDOT2892 -->
    <g transform="translate(335.545313 37.2) scale(0.12 -0.12)">
     <defs>
      <path id="DejaVuSans-44" d="M 1259 4147 
L 1259 519 
L 2022 519 
Q 2988 519 3436 956 
Q 3884 1394 3884 2338 
Q 3884 3275 3436 3711 
Q 2988 4147 2022 4147 
L 1259 4147 
z
M 628 4666 
L 1925 4666 
Q 3281 4666 3915 4102 
Q 4550 3538 4550 2338 
Q 4550 1131 3912 565 
Q 3275 0 1925 0 
L 628 0 
L 628 4666 
z
" transform="scale(0.015625)"/>
      <path id="DejaVuSans-4f" d="M 2522 4238 
Q 1834 4238 1429 3725 
Q 1025 3213 1025 2328 
Q 1025 1447 1429 934 
Q 1834 422 2522 422 
Q 3209 422 3611 934 
Q 4013 1447 4013 2328 
Q 4013 3213 3611 3725 
Q 3209 4238 2522 4238 
z
M 2522 4750 
Q 3503 4750 4090 4092 
Q 4678 3434 4678 2328 
Q 4678 1225 4090 567 
Q 3503 -91 2522 -91 
Q 1538 -91 948 565 
Q 359 1222 359 2328 
Q 359 3434 948 4092 
Q 1538 4750 2522 4750 
z
" transform="scale(0.015625)"/>
      <path id="DejaVuSans-54" d="M -19 4666 
L 3928 4666 
L 3928 4134 
L 2272 4134 
L 2272 0 
L 1638 0 
L 1638 4134 
L -19 4134 
L -19 4666 
z
" transform="scale(0.015625)"/>
     </defs>
     <use xlink:href="#DejaVuSans-4d"/>
     <use xlink:href="#DejaVuSans-44" x="86.279297"/>
     <use xlink:href="#DejaVuSans-4f" x="163.28125"/>
     <use xlink:href="#DejaVuSans-54" x="241.992188"/>
     <use xlink:href="#DejaVuSans-32" x="303.076172"/>
     <use xlink:href="#DejaVuSans-38" x="366.699219"/>
     <use xlink:href="#DejaVuSans-39" x="430.322266"/>
     <use xlink:href="#DejaVuSans-32" x="493.945312"/>
    </g>
   </g>
   <g id="legend_1">
    <g id="patch_7">
     <path d="M 559.04375 80.55625 
L 641 80.55625 
Q 643 80.55625 643 78.55625 
L 643 50.2 
Q 643 48.2 641 48.2 
L 559.04375 48.2 
Q 557.04375 48.2 557.04375 50.2 
L 557.04375 78.55625 
Q 557.04375 80.55625 559.04375 80.55625 
z
" style="fill: #ffffff; opacity: 0.8; stroke: #cccccc; stroke-linejoin: miter"/>
    </g>
    <g id="line2d_14">
     <path d="M 561.04375 56.298437 
L 571.04375 56.298437 
L 581.04375 56.298437 
" style="fill: none; stroke: #1f77b4; stroke-width: 1.5; stroke-linecap: square"/>
    </g>
    <g id="text_14">
     <!-- measured -->
     <g transform="translate(589.04375 59.798437) scale(0.1 -0.1)">
      <defs>
       <path id="DejaVuSans-6d" d="M 3328 2828 
Q 3544 3216 3844 3400 
Q 4144 3584 4550 3584 
Q 5097 3584 5394 3201 
Q 5691 2819 5691 2113 
L 5691 0 
L 5113 0 
L 5113 2094 
Q 5113 2597 4934 2840 
Q 4756 3084 4391 3084 
Q 3944 3084 3684 2787 
Q 3425 2491 3425 1978 
L 3425 0 
L 2847 0 
L 2847 2094 
Q 2847 2600 2669 2842 
Q 2491 3084 2119 3084 
Q 1678 3084 1418 2786 
Q 1159 2488 1159 1978 
L 1159 0 
L 581 0 
L 581 3500 
L 1159 3500 
L 1159 2956 
Q 1356 3278 1631 3431 
Q 1906 3584 2284 3584 
Q 2666 3584 2933 3390 
Q 3200 3197 3328 2828 
z
" transform="scale(0.015625)"/>
       <path id="DejaVuSans-61" d="M 2194 1759 
Q 1497 1759 1228 1600 
Q 959 1441 959 1056 
Q 959 750 1161 570 
Q 1363 391 1709 391 
Q 2188 391 2477 730 
Q 2766 1069 2766 1631 
L 2766 1759 
L 2194 1759 
z
M 3341 1997 
L 3341 0 
L 2766 0 
L 2766 531 
Q 2569 213 2275 61 
Q 1981 -91 1556 -91 
Q 1019 -91 701 211 
Q 384 513 384 1019 
Q 384 1609 779 1909 
Q 1175 2209 1959 2209 
L 2766 2209 
L 2766 2266 
Q 2766 2663 2505 2880 
Q 2244 3097 1772 3097 
Q 1472 3097 1187 3025 
Q 903 2953 641 2809 
L 641 3341 
Q 956 3463 1253 3523 
Q 1550 3584 1831 3584 
Q 2591 3584 2966 3190 
Q 3341 2797 3341 1997 
z
" transform="scale(0.015625)"/>
       <path id="DejaVuSans-75" d="M 544 1381 
L 544 3500 
L 1119 3500 
L 1119 1403 
Q 1119 906 1312 657 
Q 1506 409 1894 409 
Q 2359 409 2629 706 
Q 2900 1003 2900 1516 
L 2900 3500 
L 3475 3500 
L 3475 0 
L 2900 0 
L 2900 538 
Q 2691 219 2414 64 
Q 2138 -91 1772 -91 
Q 1169 -91 856 284 
Q 544 659 544 1381 
z
M 1991 3584 
L 1991 3584 
z
" transform="scale(0.015625)"/>
       <path id="DejaVuSans-64" d="M 2906 2969 
L 2906 4863 
L 3481 4863 
L 3481 0 
L 2906 0 
L 2906 525 
Q 2725 213 2448 61 
Q 2172 -91 1784 -91 
Q 1150 -91 751 415 
Q 353 922 353 1747 
Q 353 2572 751 3078 
Q 1150 3584 1784 3584 
Q 2172 3584 2448 3432 
Q 2725 3281 2906 2969 
z
M 947 1747 
Q 947 1113 1208 752 
Q 1469 391 1925 391 
Q 2381 391 2643 752 
Q 2906 1113 2906 1747 
Q 2906 2381 2643 2742 
Q 2381 3103 1925 3103 
Q 1469 3103 1208 2742 
Q 947 2381 947 1747 
z
" transform="scale(0.015625)"/>
      </defs>
      <use xlink:href="#DejaVuSans-6d"/>
      <use xlink:href="#DejaVuSans-65" x="97.412109"/>
      <use xlink:href="#DejaVuSans-61" x="158.935547"/>
      <use xlink:href="#DejaVuSans-73" x="220.214844"/>
      <use xlink:href="#DejaVuSans-75" x="272.314453"/>
      <use xlink:href="#DejaVuSans-72" x="335.693359"/>
      <use xlink:href="#DejaVuSans-65" x="374.556641"/>
      <use xlink:href="#DejaVuSans-64" x="436.080078"/>
     </g>
    </g>
    <g id="line2d_15">
     <path d="M 561.04375 70.976562 
L 571.04375 70.976562 
L 581.04375 70.976562 
" style="fill: none; stroke: #ff7f0e; stroke-width: 1.5; stroke-linecap: square"/>
    </g>
    <g id="text_15">
     <!-- predicted -->
     <g transform="translate(589.04375 74.476562) scale(0.1 -0.1)">
      <defs>
       <path id="DejaVuSans-70" d="M 1159 525 
L 1159 -1331 
L 581 -1331 
L 581 3500 
L 1159 3500 
L 1159 2969 
Q 1341 3281 1617 3432 
Q 1894 3584 2278 3584 
Q 2916 3584 3314 3078 
Q 3713 2572 3713 1747 
Q 3713 922 3314 415 
Q 2916 -91 2278 -91 
Q 1894 -91 1617 61 
Q 1341 213 1159 525 
z
M 3116 1747 
Q 3116 2381 2855 2742 
Q 2594 3103 2138 3103 
Q 1681 3103 1420 2742 
Q 1159 2381 1159 1747 
Q 1159 1113 1420 752 
Q 1681 391 2138 391 
Q 2594 391 2855 752 
Q 3116 1113 3116 1747 
z
" transform="scale(0.015625)"/>
       <path id="DejaVuSans-69" d="M 603 3500 
L 1178 3500 
L 1178 0 
L 603 0 
L 603 3500 
z
M 603 4863 
L 1178 4863 
L 1178 4134 
L 603 4134 
L 603 4863 
z
" transform="scale(0.015625)"/>
       <path id="DejaVuSans-63" d="M 3122 3366 
L 3122 2828 
Q 2878 2963 2633 3030 
Q 2388 3097 2138 3097 
Q 1578 3097 1268 2742 
Q 959 2388 959 1747 
Q 959 1106 1268 751 
Q 1578 397 2138 397 
Q 2388 397 2633 464 
Q 2878 531 3122 666 
L 3122 134 
Q 2881 22 2623 -34 
Q 2366 -91 2075 -91 
Q 1284 -91 818 406 
Q 353 903 353 1747 
Q 353 2603 823 3093 
Q 1294 3584 2113 3584 
Q 2378 3584 2631 3529 
Q 2884 3475 3122 3366 
z
" transform="scale(0.015625)"/>
      </defs>
      <use xlink:href="#DejaVuSans-70"/>
      <use xlink:href="#DejaVuSans-72" x="63.476562"/>
      <use xlink:href="#DejaVuSans-65" x="102.339844"/>
      <use xlink:href="#DejaVuSans-64" x="163.863281"/>
      <use xlink:href="#DejaVuSans-69" x="227.339844"/>
      <use xlink:href="#DejaVuSans-63" x="255.123047"/>
      <use xlink:href="#DejaVuSans-74" x="310.103516"/>
      <use xlink:href="#DejaVuSans-65" x="349.3125"/>
      <use xlink:href="#DejaVuSans-64" x="410.835938"/>
     </g>
    </g>
   </g>
  </g>
 </g>
 <defs>
  <clipPath id="pa5d74be738">
   <rect x="90" y="43.2" width="558" height="244.8"/>
  </clipPath>
 </defs>
</svg>
