<?xml version="1.0" encoding="utf-8" standalone="no"?>
<!DOCTYPE svg PUBLIC "-//W3C//DTD SVG 1.1//EN"
  "http://www.w3.org/Graphics/SVG/1.1/DTD/svg11.dtd">
<svg xmlns:xlink="http://www.w3.org/1999/xlink" width="712.835pt" height="351.43625pt" viewBox="0 0 712.835 351.43625" xmlns="http://www.w3.org/2000/svg" version="1.1">
 <metadata>
  <rdf:RDF xmlns:dc="http://purl.org/dc/elements/1.1/" xmlns:cc="http://creativecommons.org/ns#" xmlns:rdf="http://www.w3.org/1999/02/22-rdf-syntax-ns#">
   <cc:Work>
    <dc:type rdf:resource="http://purl.org/dc/dcmitype/StillImage"/>
    <dc:date>2024-05-09T20:36:15.496503</dc:date>
    <dc:format>image/svg+xml</dc:format>
    <dc:creator>
     <cc:Agent>
      <dc:title>Matplotlib v3.8.4, https://matplotlib.org/</dc:title>
     </cc:Agent>
    </dc:creator>
   </cc:Work>
  </rdf:RDF>
 </metadata>
 <defs>
  <style type="text/css">*{stroke-linejoin: round; stroke-linecap: butt}</style>
 </defs>
 <g id="figure_1">
  <g id="patch_1">
   <path d="M 0 351.43625 
L 712.835 351.43625 
L 712.835 0 
L 0 0 
z
" style="fill: #ffffff"/>
  </g>
  <g id="axes_1">
   <g id="patch_2">
    <path d="M 26.925 327.558125 
L 705.635 327.558125 
L 705.635 22.318125 
L 26.925 22.318125 
z
" style="fill: #ffffff"/>
   </g>
   <g id="matplotlib.axis_1">
    <g id="xtick_1">
     <g id="line2d_1">
      <defs>
       <path id="ma8fa345f36" d="M 0 0 
L 0 3.5 
" style="stroke: #000000; stroke-width: 0.8"/>
      </defs>
      <g>
       <use xlink:href="#ma8fa345f36" x="82.851952" y="327.558125" style="stroke: #000000; stroke-width: 0.8"/>
      </g>
     </g>
     <g id="text_1">
      <!-- 2010 -->
      <g transform="translate(70.126952 342.156563) scale(0.1 -0.1)">
       <defs>
        <path id="DejaVuSans-32" d="M 1228 531 
L 3431 531 
L 3431 0 
L 469 0 
L 469 531 
Q 828 903 1448 1529 
Q 2069 2156 2228 2338 
Q 2531 2678 2651 2914 
Q 2772 3150 2772 3378 
Q 2772 3750 2511 3984 
Q 2250 4219 1831 4219 
Q 1534 4219 1204 4116 
Q 875 4013 500 3803 
L 500 4441 
Q 881 4594 1212 4672 
Q 1544 4750 1819 4750 
Q 2544 4750 2975 4387 
Q 3406 4025 3406 3419 
Q 3406 3131 3298 2873 
Q 3191 2616 2906 2266 
Q 2828 2175 2409 1742 
Q 1991 1309 1228 531 
z
" transform="scale(0.015625)"/>
        <path id="DejaVuSans-30" d="M 2034 4250 
Q 1547 4250 1301 3770 
Q 1056 3291 1056 2328 
Q 1056 1369 1301 889 
Q 1547 409 2034 409 
Q 2525 409 2770 889 
Q 3016 1369 3016 2328 
Q 3016 3291 2770 3770 
Q 2525 4250 2034 4250 
z
M 2034 4750 
Q 2819 4750 3233 4129 
Q 3647 3509 3647 2328 
Q 3647 1150 3233 529 
Q 2819 -91 2034 -91 
Q 1250 -91 836 529 
Q 422 1150 422 2328 
Q 422 3509 836 4129 
Q 1250 4750 2034 4750 
z
" transform="scale(0.015625)"/>
        <path id="DejaVuSans-31" d="M 794 531 
L 1825 531 
L 1825 4091 
L 703 3866 
L 703 4441 
L 1819 4666 
L 2450 4666 
L 2450 531 
L 3481 531 
L 3481 0 
L 794 0 
L 794 531 
z
" transform="scale(0.015625)"/>
       </defs>
       <use xlink:href="#DejaVuSans-32"/>
       <use xlink:href="#DejaVuSans-30" x="63.623047"/>
       <use xlink:href="#DejaVuSans-31" x="127.246094"/>
       <use xlink:href="#DejaVuSans-30" x="190.869141"/>
      </g>
     </g>
    </g>
    <g id="xtick_2">
     <g id="line2d_2">
      <g>
       <use xlink:href="#ma8fa345f36" x="178.132852" y="327.558125" style="stroke: #000000; stroke-width: 0.8"/>
      </g>
     </g>
     <g id="text_2">
      <!-- 2012 -->
      <g transform="translate(165.407852 342.156563) scale(0.1 -0.1)">
       <use xlink:href="#DejaVuSans-32"/>
       <use xlink:href="#DejaVuSans-30" x="63.623047"/>
       <use xlink:href="#DejaVuSans-31" x="127.246094"/>
       <use xlink:href="#DejaVuSans-32" x="190.869141"/>
      </g>
     </g>
    </g>
    <g id="xtick_3">
     <g id="line2d_3">
      <g>
       <use xlink:href="#ma8fa345f36" x="273.544274" y="327.558125" style="stroke: #000000; stroke-width: 0.8"/>
      </g>
     </g>
     <g id="text_3">
      <!-- 2014 -->
      <g transform="translate(260.819274 342.156563) scale(0.1 -0.1)">
       <defs>
        <path id="DejaVuSans-34" d="M 2419 4116 
L 825 1625 
L 2419 1625 
L 2419 4116 
z
M 2253 4666 
L 3047 4666 
L 3047 1625 
L 3713 1625 
L 3713 1100 
L 3047 1100 
L 3047 0 
L 2419 0 
L 2419 1100 
L 313 1100 
L 313 1709 
L 2253 4666 
z
" transform="scale(0.015625)"/>
       </defs>
       <use xlink:href="#DejaVuSans-32"/>
       <use xlink:href="#DejaVuSans-30" x="63.623047"/>
       <use xlink:href="#DejaVuSans-31" x="127.246094"/>
       <use xlink:href="#DejaVuSans-34" x="190.869141"/>
      </g>
     </g>
    </g>
    <g id="xtick_4">
     <g id="line2d_4">
      <g>
       <use xlink:href="#ma8fa345f36" x="368.825175" y="327.558125" style="stroke: #000000; stroke-width: 0.8"/>
      </g>
     </g>
     <g id="text_4">
      <!-- 2016 -->
      <g transform="translate(356.100175 342.156563) scale(0.1 -0.1)">
       <defs>
        <path id="DejaVuSans-36" d="M 2113 2584 
Q 1688 2584 1439 2293 
Q 1191 2003 1191 1497 
Q 1191 994 1439 701 
Q 1688 409 2113 409 
Q 2538 409 2786 701 
Q 3034 994 3034 1497 
Q 3034 2003 2786 2293 
Q 2538 2584 2113 2584 
z
M 3366 4563 
L 3366 3988 
Q 3128 4100 2886 4159 
Q 2644 4219 2406 4219 
Q 1781 4219 1451 3797 
Q 1122 3375 1075 2522 
Q 1259 2794 1537 2939 
Q 1816 3084 2150 3084 
Q 2853 3084 3261 2657 
Q 3669 2231 3669 1497 
Q 3669 778 3244 343 
Q 2819 -91 2113 -91 
Q 1303 -91 875 529 
Q 447 1150 447 2328 
Q 447 3434 972 4092 
Q 1497 4750 2381 4750 
Q 2619 4750 2861 4703 
Q 3103 4656 3366 4563 
z
" transform="scale(0.015625)"/>
       </defs>
       <use xlink:href="#DejaVuSans-32"/>
       <use xlink:href="#DejaVuSans-30" x="63.623047"/>
       <use xlink:href="#DejaVuSans-31" x="127.246094"/>
       <use xlink:href="#DejaVuSans-36" x="190.869141"/>
      </g>
     </g>
    </g>
    <g id="xtick_5">
     <g id="line2d_5">
      <g>
       <use xlink:href="#ma8fa345f36" x="464.236597" y="327.558125" style="stroke: #000000; stroke-width: 0.8"/>
      </g>
     </g>
     <g id="text_5">
      <!-- 2018 -->
      <g transform="translate(451.511597 342.156563) scale(0.1 -0.1)">
       <defs>
        <path id="DejaVuSans-38" d="M 2034 2216 
Q 1584 2216 1326 1975 
Q 1069 1734 1069 1313 
Q 1069 891 1326 650 
Q 1584 409 2034 409 
Q 2484 409 2743 651 
Q 3003 894 3003 1313 
Q 3003 1734 2745 1975 
Q 2488 2216 2034 2216 
z
M 1403 2484 
Q 997 2584 770 2862 
Q 544 3141 544 3541 
Q 544 4100 942 4425 
Q 1341 4750 2034 4750 
Q 2731 4750 3128 4425 
Q 3525 4100 3525 3541 
Q 3525 3141 3298 2862 
Q 3072 2584 2669 2484 
Q 3125 2378 3379 2068 
Q 3634 1759 3634 1313 
Q 3634 634 3220 271 
Q 2806 -91 2034 -91 
Q 1263 -91 848 271 
Q 434 634 434 1313 
Q 434 1759 690 2068 
Q 947 2378 1403 2484 
z
M 1172 3481 
Q 1172 3119 1398 2916 
Q 1625 2713 2034 2713 
Q 2441 2713 2670 2916 
Q 2900 3119 2900 3481 
Q 2900 3844 2670 4047 
Q 2441 4250 2034 4250 
Q 1625 4250 1398 4047 
Q 1172 3844 1172 3481 
z
" transform="scale(0.015625)"/>
       </defs>
       <use xlink:href="#DejaVuSans-32"/>
       <use xlink:href="#DejaVuSans-30" x="63.623047"/>
       <use xlink:href="#DejaVuSans-31" x="127.246094"/>
       <use xlink:href="#DejaVuSans-38" x="190.869141"/>
      </g>
     </g>
    </g>
    <g id="xtick_6">
     <g id="line2d_6">
      <g>
       <use xlink:href="#ma8fa345f36" x="559.517497" y="327.558125" style="stroke: #000000; stroke-width: 0.8"/>
      </g>
     </g>
     <g id="text_6">
      <!-- 2020 -->
      <g transform="translate(546.792497 342.156563) scale(0.1 -0.1)">
       <use xlink:href="#DejaVuSans-32"/>
       <use xlink:href="#DejaVuSans-30" x="63.623047"/>
       <use xlink:href="#DejaVuSans-32" x="127.246094"/>
       <use xlink:href="#DejaVuSans-30" x="190.869141"/>
      </g>
     </g>
    </g>
    <g id="xtick_7">
     <g id="line2d_7">
      <g>
       <use xlink:href="#ma8fa345f36" x="654.928919" y="327.558125" style="stroke: #000000; stroke-width: 0.8"/>
      </g>
     </g>
     <g id="text_7">
      <!-- 2022 -->
      <g transform="translate(642.203919 342.156563) scale(0.1 -0.1)">
       <use xlink:href="#DejaVuSans-32"/>
       <use xlink:href="#DejaVuSans-30" x="63.623047"/>
       <use xlink:href="#DejaVuSans-32" x="127.246094"/>
       <use xlink:href="#DejaVuSans-32" x="190.869141"/>
      </g>
     </g>
    </g>
   </g>
   <g id="matplotlib.axis_2">
    <g id="ytick_1">
     <g id="line2d_8">
      <defs>
       <path id="m57bfac05e3" d="M 0 0 
L -3.5 0 
" style="stroke: #000000; stroke-width: 0.8"/>
      </defs>
      <g>
       <use xlink:href="#m57bfac05e3" x="26.925" y="304.976918" style="stroke: #000000; stroke-width: 0.8"/>
      </g>
     </g>
     <g id="text_8">
      <!-- 0 -->
      <g transform="translate(13.5625 308.776137) scale(0.1 -0.1)">
       <use xlink:href="#DejaVuSans-30"/>
      </g>
     </g>
    </g>
    <g id="ytick_2">
     <g id="line2d_9">
      <g>
       <use xlink:href="#m57bfac05e3" x="26.925" y="257.658108" style="stroke: #000000; stroke-width: 0.8"/>
      </g>
     </g>
     <g id="text_9">
      <!-- 5 -->
      <g transform="translate(13.5625 261.457326) scale(0.1 -0.1)">
       <defs>
        <path id="DejaVuSans-35" d="M 691 4666 
L 3169 4666 
L 3169 4134 
L 1269 4134 
L 1269 2991 
Q 1406 3038 1543 3061 
Q 1681 3084 1819 3084 
Q 2600 3084 3056 2656 
Q 3513 2228 3513 1497 
Q 3513 744 3044 326 
Q 2575 -91 1722 -91 
Q 1428 -91 1123 -41 
Q 819 9 494 109 
L 494 744 
Q 775 591 1075 516 
Q 1375 441 1709 441 
Q 2250 441 2565 725 
Q 2881 1009 2881 1497 
Q 2881 1984 2565 2268 
Q 2250 2553 1709 2553 
Q 1456 2553 1204 2497 
Q 953 2441 691 2322 
L 691 4666 
z
" transform="scale(0.015625)"/>
       </defs>
       <use xlink:href="#DejaVuSans-35"/>
      </g>
     </g>
    </g>
    <g id="ytick_3">
     <g id="line2d_10">
      <g>
       <use xlink:href="#m57bfac05e3" x="26.925" y="210.339297" style="stroke: #000000; stroke-width: 0.8"/>
      </g>
     </g>
     <g id="text_10">
      <!-- 10 -->
      <g transform="translate(7.2 214.138516) scale(0.1 -0.1)">
       <use xlink:href="#DejaVuSans-31"/>
       <use xlink:href="#DejaVuSans-30" x="63.623047"/>
      </g>
     </g>
    </g>
    <g id="ytick_4">
     <g id="line2d_11">
      <g>
       <use xlink:href="#m57bfac05e3" x="26.925" y="163.020486" style="stroke: #000000; stroke-width: 0.8"/>
      </g>
     </g>
     <g id="text_11">
      <!-- 15 -->
      <g transform="translate(7.2 166.819705) scale(0.1 -0.1)">
       <use xlink:href="#DejaVuSans-31"/>
       <use xlink:href="#DejaVuSans-35" x="63.623047"/>
      </g>
     </g>
    </g>
    <g id="ytick_5">
     <g id="line2d_12">
      <g>
       <use xlink:href="#m57bfac05e3" x="26.925" y="115.701676" style="stroke: #000000; stroke-width: 0.8"/>
      </g>
     </g>
     <g id="text_12">
      <!-- 20 -->
      <g transform="translate(7.2 119.500894) scale(0.1 -0.1)">
       <use xlink:href="#DejaVuSans-32"/>
       <use xlink:href="#DejaVuSans-30" x="63.623047"/>
      </g>
     </g>
    </g>
    <g id="ytick_6">
     <g id="line2d_13">
      <g>
       <use xlink:href="#m57bfac05e3" x="26.925" y="68.382865" style="stroke: #000000; stroke-width: 0.8"/>
      </g>
     </g>
     <g id="text_13">
      <!-- 25 -->
      <g transform="translate(7.2 72.182084) scale(0.1 -0.1)">
       <use xlink:href="#DejaVuSans-32"/>
       <use xlink:href="#DejaVuSans-35" x="63.623047"/>
      </g>
     </g>
    </g>
   </g>
   <g id="line2d_14">
    <path d="M 57.775455 198.273 
L 58.161581 216.325127 
L 59.211194 248.998765 
L 59.29277 249.779526 
L 59.488553 251.270068 
L 59.662582 253.754306 
L 60.162915 264.566654 
L 60.951485 263.5493 
L 61.005869 261.94046 
L 61.065691 263.194409 
L 61.527956 278.099834 
L 61.587778 276.230741 
L 61.783561 262.129735 
L 61.848822 262.839517 
L 62.495992 274.503604 
L 62.501431 274.598242 
L 62.583007 274.243351 
L 62.81142 270.623462 
L 62.909311 268.210202 
L 63.067025 240.670655 
L 63.159478 246.41989 
L 63.496659 273.131359 
L 63.534728 271.948389 
L 63.594551 270.339549 
L 63.648935 271.451541 
L 63.964362 278.714978 
L 63.969801 278.691319 
L 63.996993 279.04621 
L 64.154707 280.300159 
L 64.160145 280.22918 
L 64.306982 260.73383 
L 64.31242 260.75749 
L 64.355928 261.964119 
L 64.948714 287.303343 
L 65.182566 291.254463 
L 65.275019 290.118812 
L 65.50887 285.647184 
L 65.650269 282.453164 
L 65.693776 282.713418 
L 66.194109 290.662978 
L 66.3627 292.295477 
L 66.389892 292.390115 
L 66.449715 292.484752 
L 66.482345 292.366455 
L 66.49866 292.390115 
L 66.520414 292.319137 
L 66.56936 292.555731 
L 66.574798 292.508412 
L 66.612867 292.674028 
L 66.645497 292.390115 
L 66.678128 292.461093 
L 66.716197 292.555731 
L 66.765142 292.626709 
L 66.781457 292.508412 
L 66.830403 292.57939 
L 66.852157 292.484752 
L 66.906541 292.697687 
L 66.911979 292.674028 
L 67.118639 293.951635 
L 67.254599 295.016309 
L 67.401436 295.702431 
L 67.412313 295.678772 
L 67.450382 295.607794 
L 67.602657 293.431129 
L 67.673356 292.461093 
L 67.733179 292.626709 
L 67.765809 292.674028 
L 67.803878 292.271818 
L 67.923523 290.97055 
L 68.005099 291.349101 
L 68.260704 294.56678 
L 68.402103 295.158265 
L 68.440172 294.921671 
L 68.641393 292.721346 
L 68.646831 292.839643 
L 68.65227 292.792325 
L 68.712092 293.241853 
L 68.853491 293.78602 
L 69.06015 256.640753 
L 69.125411 247.011375 
L 69.185234 253.091842 
L 69.381016 274.598242 
L 69.440839 274.503604 
L 69.614868 280.678709 
L 69.854158 285.221315 
L 69.924857 285.978416 
L 69.973803 286.498923 
L 70.006433 285.836459 
L 70.109763 266.293791 
L 70.15327 264.093466 
L 70.218531 266.104515 
L 70.506767 275.520959 
L 71.240952 286.380626 
L 71.355158 287.350661 
L 71.572695 289.692943 
L 71.648832 288.935842 
L 71.730408 284.771786 
L 71.763039 284.180301 
L 71.833738 284.890083 
L 71.855492 285.00838 
L 71.893561 284.062004 
L 71.953383 273.793822 
L 72.045836 227.563344 
L 72.23618 184.597864 
L 72.290564 183.95906 
L 72.334072 184.73982 
L 72.426525 191.766664 
L 72.698445 210.883463 
L 72.709322 210.62321 
L 72.747391 212.563281 
L 73.269478 237.68957 
L 73.655605 247.531882 
L 73.699112 246.656484 
L 73.753496 228.202148 
L 74.0798 159.518894 
L 74.117869 159.211322 
L 74.166815 159.660851 
L 74.172253 159.637191 
L 74.542065 172.153017 
L 74.569257 173.454284 
L 74.639956 171.703488 
L 74.917315 121.521889 
L 75.238181 97.294658 
L 75.308881 98.264694 
L 75.624308 101.955561 
L 75.820091 107.539181 
L 76.249725 124.006127 
L 76.461823 136.592931 
L 76.793566 165.410086 
L 77.168816 188.761919 
L 77.196008 189.164129 
L 77.234077 188.359709 
L 77.386352 184.929096 
L 77.451613 185.804494 
L 77.783356 197.350283 
L 78.522979 216.490742 
L 79.03419 224.227368 
L 79.045066 223.73052 
L 79.240849 215.213134 
L 79.344179 216.301467 
L 79.376809 216.798315 
L 79.637853 222.169 
L 79.643291 222.14534 
L 79.659607 222.429253 
L 79.81732 223.825158 
L 79.822759 223.564905 
L 80.067487 203.359772 
L 80.078364 203.549048 
L 80.747288 215.709982 
L 80.752726 215.709982 
L 80.959386 219.566465 
L 81.024647 220.938711 
L 81.302006 228.273126 
L 81.443404 232.650116 
L 81.775147 242.137538 
L 81.824093 240.031851 
L 81.883915 204.732018 
L 82.068821 137.941517 
L 82.270042 124.242721 
L 82.433194 121.829462 
L 82.438633 121.90044 
L 82.520209 121.521889 
L 82.819321 118.209573 
L 83.053173 121.190658 
L 83.374039 134.321628 
L 83.841742 174.566276 
L 84.467159 223.919796 
L 84.695572 230.710045 
L 85.369934 245.544492 
L 85.375373 245.544492 
L 85.571156 235.347288 
L 85.712554 218.833024 
L 85.783253 220.654798 
L 85.843076 222.618528 
L 85.881145 220.205269 
L 86.392355 180.694062 
L 86.403232 180.76504 
L 86.419547 180.646743 
L 86.441301 181.238228 
L 86.446739 181.238228 
L 86.528315 184.526886 
L 87.208116 221.719471 
L 87.393022 224.629578 
L 87.409337 224.700556 
L 87.431091 224.180049 
L 87.512667 215.331432 
L 87.795464 190.607353 
L 87.94774 187.200399 
L 88.040193 186.230363 
L 88.0837 186.514276 
L 88.170714 188.170434 
L 88.861392 211.00176 
L 88.959283 213.722592 
L 89.204012 220.15795 
L 89.437863 225.055447 
L 89.611892 227.705301 
L 89.649961 226.877221 
L 89.747853 225.575954 
L 89.82399 226.025483 
L 89.834867 226.072802 
L 90.536422 240.197467 
L 91.069386 249.424635 
L 91.25973 252.027169 
L 91.63498 256.640753 
L 91.640418 256.522456 
L 91.721995 257.019304 
L 91.863393 257.350535 
L 92.01023 215.875598 
L 92.097245 209.03803 
L 92.14619 210.883463 
L 92.227766 216.538061 
L 92.59214 235.323629 
L 92.945636 247.058694 
L 93.146857 249.708547 
L 93.228433 250.252714 
L 93.255625 249.874163 
L 93.326325 247.058694 
L 93.71789 223.683202 
L 93.755959 223.044398 
L 93.891919 218.998639 
L 93.940865 219.495487 
L 94.033318 220.678457 
L 94.076825 219.945016 
L 94.125771 215.899257 
L 94.397691 195.197278 
L 94.555405 193.4938 
L 94.57172 193.51746 
L 94.577158 193.470141 
L 94.615227 193.990648 
L 94.789256 198.69887 
L 94.94697 202.437056 
L 94.952409 202.342418 
L 95.403796 187.247717 
L 95.409235 187.295036 
L 95.414673 187.271377 
L 95.458181 187.460652 
L 96.083597 209.889768 
L 96.507793 228.982908 
L 96.796029 236.057071 
L 96.866728 237.594932 
L 97.590036 252.145466 
L 97.595475 251.19909 
L 97.774942 191.577389 
L 97.889149 181.309207 
L 97.932656 182.586815 
L 98.411236 215.922917 
L 98.530881 224.676897 
L 98.563511 219.566465 
L 98.851747 182.421199 
L 98.911569 184.455908 
L 99.721892 230.11856 
L 99.754522 231.112255 
L 99.803468 228.93559 
L 99.944867 219.803059 
L 100.031881 222.713166 
L 100.41257 238.06812 
L 100.418008 238.210076 
L 100.472392 236.743193 
L 100.673613 229.385118 
L 100.711682 229.692691 
L 100.92378 232.792073 
L 101.037987 235.749498 
L 101.048863 234.069681 
L 101.304469 186.656232 
L 101.309907 186.632573 
L 101.320784 186.932259 
L 101.342537 186.916486 
L 101.353414 187.011123 
L 101.407798 186.490616 
L 101.592704 182.231923 
L 101.647088 183.060003 
L 101.995146 206.956002 
L 102.430219 232.342544 
L 102.740208 242.019241 
L 103.169842 247.650179 
L 103.175281 247.60286 
L 103.229665 247.910433 
L 103.240542 247.910433 
L 103.719122 260.73383 
L 104.377169 277.390052 
L 104.382607 277.390052 
L 104.57839 280.087224 
L 104.649089 280.867984 
L 105.008024 285.197656 
L 105.024339 285.292293 
L 105.334329 287.114067 
L 105.715017 290.166131 
L 105.753086 289.78758 
L 105.818347 288.226059 
L 105.883608 288.912182 
L 105.916238 289.243414 
L 105.959745 288.935842 
L 106.095706 286.759176 
L 106.188159 284.724467 
L 106.237104 285.244974 
L 106.405695 288.888523 
L 106.954974 296.577829 
L 106.971289 296.530511 
L 107.025673 296.696127 
L 107.041989 296.672467 
L 107.210579 297.879097 
L 107.351978 299.062067 
L 107.357416 298.825473 
L 107.362855 298.56522 
L 107.438992 298.872792 
L 107.466184 298.801814 
L 107.645652 295.039968 
L 108.02634 278.66766 
L 108.135109 268.636072 
L 108.162301 268.943644 
L 108.33633 275.142408 
L 108.749649 285.718162 
L 108.863855 287.208705 
L 108.896486 286.61722 
L 108.9835 280.063565 
L 109.08683 273.557228 
L 109.141214 274.219691 
L 109.369627 281.601426 
L 109.962413 294.235548 
L 109.995044 294.306527 
L 110.31591 290.213449 
L 110.402924 287.82385 
L 110.468185 288.036784 
L 110.538885 287.752871 
L 110.495377 288.084103 
L 110.582392 288.013125 
L 111.093602 296.128301 
L 111.300262 297.831778 
L 111.588497 298.730835 
L 111.599374 298.683517 
L 111.653758 298.56522 
L 111.691827 298.849132 
L 111.849541 299.487936 
L 111.860418 299.464277 
L 111.903925 299.700871 
L 111.909363 299.700871 
L 111.985501 299.72453 
L 112.105146 300.1504 
L 112.110584 300.12674 
L 112.29549 300.12674 
L 112.371628 299.795509 
L 112.415135 299.866487 
L 112.540219 299.866487 
L 112.572849 299.677212 
L 112.632672 300.221378 
L 112.63811 300.1504 
L 112.812139 301.404348 
L 112.817577 301.357029 
L 112.991606 302.185109 
L 113.024237 302.279746 
L 113.040552 302.11413 
L 113.084059 302.13779 
L 113.089498 302.043152 
L 113.165636 302.469021 
L 113.171074 302.469021 
L 113.198266 302.563659 
L 113.230896 302.350724 
L 113.236335 302.350724 
L 113.394049 301.451667 
L 113.399487 301.498986 
L 113.453871 301.215073 
L 113.481063 301.238732 
L 113.519132 301.309711 
L 113.633339 301.593623 
L 113.638777 301.569964 
L 113.649654 301.546305 
L 113.687723 301.759239 
L 113.693161 301.759239 
L 113.845436 302.11413 
L 113.948766 302.066812 
L 113.856313 302.208768 
L 113.954205 302.090471 
L 114.122795 303.178804 
L 114.133672 303.084166 
L 114.275071 302.658297 
L 114.280509 302.681956 
L 114.31314 302.445362 
L 114.340332 302.51634 
L 114.400154 302.13779 
L 114.438223 302.563659 
L 114.4491 302.54 
L 114.508922 302.776594 
L 114.546991 302.398043 
L 114.655759 301.522645 
L 114.693828 301.782899 
L 114.715582 301.995833 
L 114.797158 301.73558 
L 114.802596 301.759239 
L 114.808035 301.688261 
L 114.851542 301.830217 
L 114.905926 301.830217 
L 114.987502 301.73558 
L 115.139777 300.339675 
L 115.156093 300.481631 
L 115.411698 303.060507 
L 115.428013 303.178804 
L 115.455205 302.989528 
L 115.536781 302.469021 
L 115.57485 302.51634 
L 115.580288 302.54 
L 115.618357 302.374384 
L 115.672741 302.469021 
L 115.808702 298.281307 
L 116.15676 267.973608 
L 116.287281 270.789078 
L 116.412365 273.770163 
L 116.619024 277.200777 
L 116.624463 277.153458 
L 116.657093 277.768602 
L 116.662532 277.768602 
L 116.793053 279.04621 
L 116.820245 278.762297 
L 117.037782 274.030416 
L 117.070412 274.314329 
L 117.619691 285.765481 
L 117.820912 287.516277 
L 117.826351 287.42164 
L 117.89705 288.013125 
L 117.902488 287.989465 
L 118.049325 288.793885 
L 118.081956 288.888523 
L 118.163532 289.101457 
L 118.207039 289.054139 
L 118.212478 288.98316 
L 118.304931 289.196095 
L 118.310369 289.148776 
L 118.457206 289.621964 
L 118.473521 289.598305 
L 118.663866 290.450043 
L 118.707373 290.544681 
L 119.207706 297.382249 
L 119.691725 299.038408 
L 119.70804 298.991089 
L 119.773301 299.204023 
L 119.784178 299.133045 
L 119.969083 299.795509 
L 119.996275 299.866487 
L 120.21925 300.860182 
L 120.251881 300.954819 
L 120.676076 302.610978 
L 120.719584 302.54 
L 120.735899 302.610978 
L 120.83379 302.469021 
L 120.855544 302.445362 
L 120.860982 302.350724 
L 120.942558 302.752934 
L 120.947997 302.752934 
L 121.138341 304.196158 
L 121.149218 304.172499 
L 121.274301 304.314455 
L 121.317808 304.267136 
L 121.323247 304.196158 
L 121.372193 304.385433 
L 121.4157 304.314455 
L 121.524468 304.574708 
L 121.459207 304.196158 
L 121.535345 304.50373 
L 121.595167 304.385433 
L 121.557098 304.52739 
L 121.606044 304.52739 
L 121.714812 304.834962 
L 121.725689 304.787643 
L 121.834457 304.669346 
L 121.763758 305.000578 
L 121.839896 304.693006 
L 121.850772 304.763984 
L 121.916033 304.551049 
L 121.943225 304.622027 
L 121.975856 304.385433 
L 122.073747 304.52739 
L 122.215146 304.716665 
L 122.220584 304.645687 
L 122.307599 304.834962 
L 122.313037 304.834962 
L 122.394613 304.882281 
L 122.465312 305.024237 
L 122.497943 304.858621 
L 122.503381 304.90594 
L 122.650218 304.740324 
L 122.764425 304.693006 
L 122.797055 304.574708 
L 122.818809 304.716665 
L 122.878631 304.622027 
L 122.88407 304.716665 
L 122.9167 304.50373 
L 122.981961 304.551049 
L 122.992838 304.50373 
L 123.036345 304.716665 
L 123.079852 304.574708 
L 123.243005 304.858621 
L 123.248443 304.811303 
L 123.340896 304.976918 
L 123.422472 304.858621 
L 123.384403 305.000578 
L 123.444226 304.90594 
L 123.520363 305.047897 
L 123.552994 304.976918 
L 123.558432 304.882281 
L 123.607378 305.071556 
L 123.656324 305.047897 
L 123.797722 304.90594 
L 123.993505 305.000578 
L 124.124027 305.166194 
L 124.004382 304.9296 
L 124.134904 305.142534 
L 124.140342 305.118875 
L 124.172972 305.260831 
L 124.232795 305.189853 
L 124.24911 305.237172 
L 124.319809 305.095215 
L 124.325248 305.166194 
L 124.35244 305.095215 
L 124.417701 305.30815 
L 124.428578 305.237172 
L 124.548223 305.379128 
L 124.439454 305.213512 
L 124.564538 305.355469 
L 124.684183 305.071556 
L 124.716813 305.142534 
L 124.76032 304.9296 
L 124.787512 305.024237 
L 124.918034 304.740324 
L 124.923473 304.787643 
L 124.961541 304.716665 
L 125.075748 304.361774 
L 125.086625 304.456411 
L 125.097502 304.52739 
L 125.119255 304.361774 
L 125.189955 304.456411 
L 125.195393 304.432752 
L 125.271531 304.574708 
L 125.315038 304.480071 
L 125.456437 304.267136 
L 125.363984 304.598368 
L 125.467313 304.290796 
L 125.521697 304.196158 
L 125.673973 303.486376 
L 125.554328 304.314455 
L 125.68485 303.510035 
L 125.706603 303.439057 
L 125.880632 299.771849 
L 126.027469 298.092031 
L 126.103607 296.459532 
L 126.478857 273.08404 
L 126.587625 276.561973 
L 126.821477 283.210265 
L 126.826915 283.162947 
L 126.886738 283.517838 
L 126.892176 283.470519 
L 127.039013 284.062004 
L 127.04989 283.991026 
L 127.126028 284.322258 
L 127.533908 286.546242 
L 127.789513 289.148776 
L 127.80039 289.243414 
L 127.838459 289.148776 
L 127.963542 290.426384 
L 128.556329 296.719786 
L 128.904387 298.849132 
L 128.909825 298.825473 
L 128.931579 298.896451 
L 129.072978 299.322321 
L 129.089293 299.298661 
L 129.219815 299.322321 
L 129.344898 299.677212 
L 129.350336 299.629893 
L 129.421036 299.842827 
L 129.437351 299.819168 
L 129.453666 299.890146 
L 129.595065 300.197718 
L 129.600503 300.174059 
L 129.616818 300.268697 
L 129.671202 300.245037 
L 129.779971 300.363334 
L 129.785409 300.339675 
L 129.796286 300.316016 
L 129.943123 300.741885 
L 130.100837 301.025798 
L 129.954 300.718225 
L 130.111713 301.002138 
L 130.171536 300.978479 
L 130.323811 300.055762 
L 130.470648 299.487936 
L 130.486964 299.535255 
L 130.492402 299.582574 
L 130.546786 299.180364 
L 130.818706 296.364895 
L 130.824145 296.435873 
L 130.905721 296.17562 
L 130.911159 296.17562 
L 131.128696 295.039968 
L 131.145011 295.063628 
L 131.362547 296.435873 
L 131.520261 297.713481 
L 131.525699 297.689822 
L 131.574645 297.926416 
L 131.737797 298.375944 
L 131.743236 298.328625 
L 131.781305 298.446923 
L 131.835689 298.399604 
L 131.895511 298.612538 
L 131.868319 298.375944 
L 131.955334 298.517901 
L 132.161993 299.109386 
L 132.167432 299.014748 
L 132.17287 298.967429 
L 132.227254 299.322321 
L 132.238131 299.322321 
L 132.270761 299.393299 
L 132.297953 299.204023 
L 132.346899 299.34598 
L 132.368653 299.298661 
L 132.423037 299.440618 
L 132.433913 299.440618 
L 132.586189 299.700871 
L 132.450229 299.34598 
L 132.591627 299.653552 
L 132.597066 299.606233 
L 132.662327 299.842827 
L 132.678642 299.795509 
L 132.792848 300.008443 
L 132.809164 299.961124 
L 132.841794 300.032103 
L 132.858109 300.008443 
L 132.956001 300.1504 
L 132.961439 300.12674 
L 133.015823 300.316016 
L 133.021261 300.316016 
L 133.173537 300.623588 
L 133.184414 300.55261 
L 133.249675 300.647247 
L 133.423704 301.191414 
L 133.521595 301.262392 
L 133.554225 301.309711 
L 133.603171 301.144095 
L 133.614048 301.215073 
L 133.739131 300.954819 
L 133.826146 301.120435 
L 133.853338 301.025798 
L 133.907722 301.096776 
L 133.91316 301.167754 
L 134.005613 301.025798 
L 134.01649 301.073116 
L 134.081751 301.215073 
L 134.125258 301.096776 
L 134.130697 301.073116 
L 134.168765 301.262392 
L 134.212273 301.191414 
L 134.342795 301.286051 
L 134.505947 301.569964 
L 134.544016 301.664602 
L 134.63103 299.74819 
L 134.772429 290.213449 
L 134.810498 290.733956 
L 134.930143 292.200839 
L 135.000842 291.77497 
L 135.283639 290.852253 
L 135.310831 290.899572 
L 135.430476 291.065188 
L 135.522929 290.686638 
L 135.560998 290.804935 
L 135.653451 291.349101 
L 135.69152 291.088847 
L 135.745904 290.875913 
L 135.805726 291.041529 
L 135.903618 291.940586 
L 136.0994 293.431129 
L 136.518158 295.418519 
L 136.572542 295.063628 
L 136.811832 293.36015 
L 136.8499 293.265513 
L 136.887969 293.052578 
L 136.964107 293.241853 
L 137.100067 293.596744 
L 137.116382 293.431129 
L 137.121821 293.38381 
L 137.165328 293.644063 
L 137.203397 293.620404 
L 137.301288 293.715041 
L 137.241466 293.478447 
L 137.317603 293.644063 
L 137.323042 293.573085 
L 137.377426 293.715041 
L 137.420933 293.691382 
L 137.453564 293.78602 
L 137.469879 293.856998 
L 137.546017 293.644063 
L 137.578647 292.603049 
L 137.643908 276.490994 
L 137.861444 200.473325 
L 137.964774 205.276184 
L 138.122488 213.036469 
L 138.155118 210.859804 
L 138.263886 203.217816 
L 138.329147 206.104263 
L 138.688082 226.711605 
L 138.747905 229.148524 
L 138.807727 227.279431 
L 138.818604 227.303091 
L 138.862111 227.113815 
L 138.932811 224.842512 
L 139.161224 213.036469 
L 139.253677 204.944953 
L 139.422267 188.123115 
L 139.438582 188.217753 
L 139.78664 198.202022 
L 139.922601 204.613721 
L 139.982423 206.056945 
L 140.031369 204.566402 
L 140.450126 187.011123 
L 140.466441 186.940145 
L 140.50451 187.413333 
L 140.71117 197.019052 
L 141.331148 230.378813 
L 141.537808 236.719534 
L 141.559561 235.134354 
L 141.690083 219.116936 
L 141.749906 221.553855 
L 141.891304 225.859867 
L 141.929373 225.623273 
L 141.956565 225.055447 
L 142.005511 223.091716 
L 142.152348 214.290418 
L 142.201293 215.213134 
L 142.369884 223.612223 
L 142.772326 241.593371 
L 142.810395 241.900944 
L 142.848464 241.214821 
L 142.881094 240.954568 
L 142.924602 241.711668 
L 143.310729 250.110757 
L 143.598964 255.954631 
L 143.64791 255.079233 
L 144.093859 240.150148 
L 144.099298 240.221126 
L 144.12649 236.908809 
L 144.289642 215.355091 
L 144.387533 217.744691 
L 144.458233 218.596429 
L 144.518055 218.265198 
L 144.556124 218.359835 
L 144.621385 219.826719 
L 144.925936 235.063376 
L 145.056457 234.140659 
L 145.132595 232.768413 
L 145.225048 219.613784 
L 145.350131 177.925912 
L 145.785204 49.833891 
L 145.921164 46.947444 
L 145.948356 48.556283 
L 146.00274 53.524758 
L 146.160454 66.18254 
L 146.372552 71.789819 
L 146.182208 65.78033 
L 146.383429 71.718841 
L 146.416059 71.387609 
L 146.465005 72.688877 
L 146.470443 72.617898 
L 146.475882 72.452283 
L 146.546581 73.658912 
L 146.552019 73.422318 
L 146.562896 73.540615 
L 146.579212 73.516956 
L 146.72061 77.610033 
L 146.726049 77.278801 
L 146.791309 79.786698 
L 147.052353 89.061185 
L 147.139368 91.450785 
L 147.362342 97.909803 
L 147.367781 97.862484 
L 147.389534 98.548607 
L 147.661455 106.995014 
L 147.840922 111.987149 
L 148.058458 117.547109 
L 148.254241 122.846816 
L 148.672998 141.277493 
L 148.776328 145.512526 
L 148.798082 142.791695 
L 148.93948 139.38474 
L 148.955796 139.242784 
L 149.01018 140.21282 
L 149.048249 141.419449 
L 149.135263 140.780645 
L 149.456129 134.723838 
L 149.472444 134.747497 
L 149.477883 134.818475 
L 149.526828 134.132352 
L 149.532267 134.132352 
L 149.592089 133.44623 
L 149.651912 133.777461 
L 149.706296 134.392606 
L 150.331713 156.821722 
L 151.392202 210.59955 
L 151.767452 218.643748 
L 151.897974 220.725776 
L 151.919728 221.057008 
L 151.995865 220.441863 
L 152.001304 220.465522 
L 152.039373 220.205269 
L 152.044811 220.134291 
L 152.104634 220.702117 
L 152.490761 225.646932 
L 152.496199 225.599613 
L 152.545145 225.646932 
L 152.637598 224.53494 
L 152.69742 224.440303 
L 152.713735 224.629578 
L 152.893203 227.161134 
L 153.143369 231.443487 
L 153.534935 236.364643 
L 153.540373 236.340983 
L 153.573004 236.553918 
L 153.58388 236.553918 
L 153.736156 237.523954 
L 153.779663 237.642251 
L 153.785102 237.594932 
L 153.910185 222.050703 
L 153.915623 222.192659 
L 153.937377 222.736825 
L 154.513848 239.014496 
L 154.715069 241.001886 
L 154.731384 240.883589 
L 154.736823 240.930908 
L 154.785769 240.386742 
L 154.840153 239.487684 
L 154.905414 239.913554 
L 154.992428 240.434061 
L 155.046812 240.410401 
L 155.199088 214.716287 
L 155.329609 221.269942 
L 155.732051 238.588627 
L 155.759243 236.908809 
L 155.895204 229.077546 
L 155.965903 230.071241 
L 155.982218 230.165879 
L 156.101863 231.135914 
L 156.2487 234.424572 
L 156.640266 244.266884 
L 157.92373 262.460967 
L 158.146704 268.257521 
L 158.33161 275.923169 
L 158.630723 284.937402 
L 158.761244 286.427945 
L 158.821067 286.073054 
L 159.076672 282.831715 
L 159.114741 282.737077 
L 159.250701 281.719723 
L 159.375785 280.678709 
L 159.402977 280.749687 
L 159.42473 280.63139 
L 159.66402 282.358527 
L 159.723843 283.04465 
L 159.729281 283.02099 
L 159.761911 280.205521 
L 159.843488 280.371137 
L 159.886995 280.134543 
L 159.941379 280.465774 
L 160.03927 281.341172 
L 160.610303 288.344356 
L 160.670126 288.131422 
L 160.811524 287.043089 
L 161.034499 284.251279 
L 161.045376 284.345917 
L 161.213966 285.126677 
L 161.224843 284.937402 
L 161.442379 286.333307 
L 161.621847 287.539937 
L 161.752369 286.877473 
L 161.795876 286.99577 
L 162.078673 290.047834 
L 162.182003 290.97055 
L 162.312525 291.230804 
L 162.551815 291.987905 
L 162.579007 291.916927 
L 162.606199 292.011564 
L 162.666021 292.106202 
L 162.671459 291.940586 
L 162.70409 291.964245 
L 162.758474 291.845948 
L 162.80742 292.035224 
L 162.812858 292.035224 
L 162.992326 293.620404 
L 163.003202 293.691382 
L 163.307753 296.270257 
L 163.340384 296.364895 
L 163.42196 296.459532 
L 163.438275 296.341235 
L 163.585112 295.820729 
L 163.601427 295.891707 
L 163.66125 295.465837 
L 163.79721 294.921671 
L 163.808087 294.945331 
L 163.982116 295.300222 
L 164.063692 292.95794 
L 164.156145 288.817545 
L 164.221406 289.338051 
L 164.509641 291.349101 
L 164.536833 291.159826 
L 164.759808 288.084103 
L 164.841384 288.60461 
L 164.895768 288.817545 
L 164.971906 288.746566 
L 165.086112 288.60461 
L 165.091551 288.651929 
L 165.36891 290.828594 
L 165.521185 291.491057 
L 165.5375 291.39642 
L 165.994327 285.315953 
L 166.124848 286.356966 
L 166.288001 288.699248 
L 166.505537 291.041529 
L 166.668689 291.751311 
L 166.695881 291.845948 
L 167.266914 294.803374 
L 167.58778 296.719786 
L 167.593218 296.672467 
L 167.62041 296.743445 
L 167.658479 296.909061 
L 167.685671 296.719786 
L 167.734617 296.767105 
L 167.783563 296.861742 
L 167.881454 296.980039 
L 167.832508 296.838083 
L 167.897769 296.932721 
L 167.946715 296.861742 
L 168.088113 296.55417 
L 168.387226 297.524206 
L 168.392664 297.405909 
L 168.47424 296.672467 
L 168.523186 296.743445 
L 168.626516 296.648808 
L 168.588447 296.767105 
L 168.637393 296.696127 
L 168.757038 296.909061 
L 168.778791 296.838083 
L 168.81686 296.909061 
L 169.230179 299.582574 
L 169.349824 299.416958 
L 169.387893 299.487936 
L 169.496661 299.582574 
L 169.741389 298.328625 
L 169.540168 299.653552 
L 169.746828 298.352285 
L 169.77402 298.257647 
L 169.850157 298.233988 
L 169.795773 298.352285 
L 169.882788 298.257647 
L 170.01331 298.16301 
L 170.018748 298.13935 
L 170.051379 298.352285 
L 170.078571 298.352285 
L 170.219969 298.446923 
L 170.459259 299.204023 
L 170.263476 298.399604 
L 170.470136 299.085726 
L 170.481013 298.920111 
L 170.551712 299.440618 
L 170.568027 299.369639 
L 170.687672 299.204023 
L 170.774687 299.393299 
L 170.807317 299.322321 
L 170.921524 299.251342 
L 170.948716 299.298661 
L 171.041169 299.180364 
L 171.122745 299.085726 
L 171.220636 297.784459 
L 171.400104 269.156579 
L 171.48168 272.161323 
L 171.737285 278.194472 
L 171.742723 278.170812 
L 171.748162 278.147153 
L 171.775354 278.454725 
L 171.99289 281.104578 
L 172.014644 279.874289 
L 172.052713 269.819042 
L 172.275687 210.741507 
L 172.302879 210.150022 
L 172.346387 211.971796 
L 172.5041 231.538124 
L 172.748829 255.221189 
L 172.776021 253.825284 
L 172.971803 229.432437 
L 173.18934 177.263448 
L 173.211093 177.287108 
L 173.374246 181.900692 
L 173.591782 192.807678 
L 173.640728 192.074236 
L 173.711427 191.056882 
L 173.754934 191.979598 
L 173.890894 196.806117 
L 173.950717 195.339234 
L 174.04317 192.263511 
L 174.102992 193.304525 
L 174.141061 194.558474 
L 174.271583 199.739883 
L 174.538065 213.273063 
L 174.581572 211.049079 
L 175.027521 143.217564 
L 175.196112 147.76017 
L 175.424525 157.744439 
L 175.734514 168.675084 
L 176.000996 184.266632 
L 176.060819 181.853373 
L 176.223971 177.239789 
L 176.22941 177.263448 
L 176.26204 176.955876 
L 176.267478 176.861238 
L 176.349054 177.334427 
L 177.485682 221.36458 
L 177.518312 219.093277 
L 177.735848 196.758798 
L 177.822863 198.012747 
L 177.947946 200.071115 
L 178.127414 206.317198 
L 178.644062 229.337799 
L 178.845284 233.407217 
L 179.122642 240.126488 
L 179.427193 246.727462 
L 179.454385 245.970361 
L 179.612099 239.085474 
L 179.715429 241.143843 
L 180.444175 260.000389 
L 181.004331 267.689696 
L 181.00977 267.263826 
L 181.162045 237.618591 
L 181.205552 239.014496 
L 181.319759 243.344167 
L 181.357828 241.214821 
L 181.618871 226.025483 
L 181.629748 226.072802 
L 181.667817 225.765229 
L 181.711324 225.173744 
L 181.852723 219.684762 
L 181.890792 219.282552 
L 181.945176 220.063313 
L 182.467263 237.949823 
L 182.521647 239.109134 
L 182.532524 238.233736 
L 182.831636 189.211448 
L 182.85339 189.826593 
L 183.544068 222.689507 
L 184.066155 235.228991 
L 184.104224 235.560223 
L 184.147731 234.779463 
L 184.327198 225.197404 
L 184.414213 225.954505 
L 184.490351 226.498671 
L 184.528419 226.14378 
L 184.582804 225.694251 
L 184.648064 226.001823 
L 184.767709 228.959249 
L 185.784692 252.618654 
L 186.034858 255.055573 
L 186.37204 258.959375 
L 186.921319 268.565094 
L 186.948511 267.429442 
L 187.149732 220.418204 
L 187.280254 228.10751 
L 187.410775 235.560223 
L 187.519544 234.400912 
L 187.60112 233.951384 
L 187.650065 234.211637 
L 187.802341 234.732144 
L 187.829533 234.590187 
L 187.894794 234.400912 
L 187.927424 234.684825 
L 187.960055 234.968738 
L 187.987247 234.258956 
L 188.041631 228.012873 
L 188.286359 211.498608 
L 188.411442 209.01437 
L 188.460388 209.771471 
L 188.596348 216.159511 
L 188.993352 217.082228 
L 189.232642 203.45441 
L 189.287026 203.927598 
L 189.727537 218.312517 
L 190.09191 229.361459 
L 191.864831 272.800127 
L 191.979038 273.48625 
L 191.989915 273.178678 
L 192.180259 270.055636 
L 192.196574 270.150274 
L 192.218328 270.244911 
L 192.941636 278.24179 
L 193.153734 279.117188 
L 193.257064 278.927913 
L 193.191803 279.164507 
L 193.278817 279.04621 
L 193.322324 279.140848 
L 193.360393 279.022551 
L 193.387585 279.04621 
L 193.447408 279.04621 
L 193.61056 280.205521 
L 193.784589 282.689759 
L 194.187031 289.077798 
L 194.197908 289.125117 
L 194.491582 291.538376 
L 194.741749 292.674028 
L 194.763502 292.390115 
L 195.008231 270.410527 
L 195.100684 272.539874 
L 195.584702 288.888523 
L 195.747854 289.834899 
L 195.785923 289.905877 
L 196.99325 299.606233 
L 197.004126 299.535255 
L 197.020442 299.393299 
L 197.085703 300.055762 
L 197.091141 300.055762 
L 197.482706 301.33337 
L 197.488145 301.309711 
L 197.553406 301.262392 
L 197.575159 301.357029 
L 197.857956 303.178804 
L 197.885148 303.084166 
L 198.026547 302.51634 
L 198.048301 302.634637 
L 198.097246 302.610978 
L 198.189699 302.894891 
L 198.233207 302.94221 
L 198.35829 303.178804 
L 198.586703 293.951635 
L 198.592141 293.904317 
L 198.635649 294.377505 
L 199.261066 305.663041 
L 199.288258 305.757679 
L 199.375272 305.970613 
L 199.386149 305.639382 
L 199.663508 301.972174 
L 199.707015 301.901196 
L 199.766837 301.948514 
L 200.218225 305.473766 
L 200.250856 305.260831 
L 200.501022 303.462716 
L 200.54453 303.628332 
L 201.104686 307.532134 
L 201.659403 309.945394 
L 201.724664 309.756118 
L 201.887816 309.803437 
L 201.915008 309.898075 
L 201.963954 309.637821 
L 201.991146 309.68514 
L 201.996585 309.661481 
L 202.034653 309.969053 
L 202.426219 311.29398 
L 202.431657 311.27032 
L 202.442534 311.223001 
L 202.507795 311.530574 
L 202.692701 312.689885 
L 202.703578 312.666225 
L 202.719893 312.595247 
L 202.86673 312.193037 
L 202.872168 312.240356 
L 202.953744 312.264015 
L 202.89936 312.027421 
L 202.964621 312.193037 
L 203.051636 311.364958 
L 203.13865 310.655176 
L 203.182157 310.844451 
L 203.236541 310.773473 
L 203.383378 306.301845 
L 203.551969 303.864926 
L 203.562846 303.912245 
L 203.638984 304.716665 
L 204.133879 311.506914 
L 204.171948 311.530574 
L 204.36773 310.040031 
L 204.487375 307.69775 
L 204.509129 307.745069 
L 204.715788 309.732459 
L 204.829995 309.566843 
L 204.840872 309.519524 
L 204.868064 309.779778 
L 205.074723 312.8555 
L 205.080162 312.831841 
L 205.134546 313.068435 
L 205.178053 313.68358 
L 623.891928 121.356273 
L 624.484714 139.692313 
L 625.0775 179.416454 
L 625.360298 193.162569 
L 625.800809 200.331369 
L 626.00203 211.167376 
L 626.355526 229.219502 
L 626.464294 232.153269 
L 626.507802 230.946639 
L 626.627447 225.197404 
L 626.736215 226.616968 
L 626.877613 228.273126 
L 626.915682 228.202148 
L 626.931997 228.273126 
L 627.078834 231.348849 
L 627.116903 229.598053 
L 627.312686 180.977975 
L 627.426892 184.148335 
L 627.622675 192.145214 
L 627.959856 208.067994 
L 628.074063 211.00176 
L 628.411244 218.927661 
L 628.432998 218.667408 
L 628.520012 216.774655 
L 628.585273 217.224184 
L 628.661411 219.495487 
L 629.569625 257.681767 
L 629.895929 265.181799 
L 630.282056 271.333244 
L 630.287495 271.214947 
L 630.363633 271.972048 
L 630.369071 271.948389 
L 630.40714 272.208642 
L 630.412578 272.161323 
L 630.67906 274.337988 
L 630.684499 274.29067 
L 630.706252 274.196032 
L 630.728006 273.651866 
L 630.793267 269.10926 
L 630.869404 266.151834 
L 630.929227 267.263826 
L 631.032557 269.724404 
L 631.12501 269.10926 
L 631.277285 267.382123 
L 631.288162 267.453102 
L 631.39693 267.997268 
L 631.418684 267.973608 
L 631.511137 267.50042 
L 631.42956 267.997268 
L 631.543767 267.855311 
L 631.880948 274.787517 
L 632.000593 275.828531 
L 632.0441 275.237046 
L 632.25076 269.724404 
L 632.49005 260.615533 
L 632.571626 258.817419 
L 632.620572 259.432563 
L 632.805478 263.289046 
L 632.963191 266.790638 
L 632.974068 266.270131 
L 632.984945 266.104515 
L 633.066521 266.766979 
L 633.071959 266.601363 
L 633.10459 266.625022 
L 633.115467 266.530385 
L 633.289496 268.541434 
L 633.294934 268.328499 
L 633.327565 268.70705 
L 633.398264 268.494115 
L 633.425456 268.943644 
L 633.724568 277.082479 
L 633.762637 276.869545 
L 633.980174 278.454725 
L 634.007366 278.076175 
L 634.192271 276.443676 
L 634.19771 276.490994 
L 634.219463 276.017806 
L 634.349985 274.503604 
L 634.415246 273.202337 
L 634.480507 273.935779 
L 634.57296 275.686575 
L 634.779619 278.66766 
L 634.953649 280.087224 
L 634.969964 279.874289 
L 635.269076 266.31745 
L 635.356091 267.760674 
L 636.068522 283.470519 
L 636.253428 285.765481 
L 636.275182 285.599865 
L 636.291497 285.505228 
L 636.432895 281.128238 
L 636.742885 272.066686 
L 636.819022 268.612412 
L 636.873406 269.629767 
L 637.020243 271.238606 
L 637.254095 273.983097 
L 637.547769 246.490868 
L 637.596715 246.703803 
L 637.661975 248.762171 
L 637.966526 264.140785 
L 638.385284 277.934218 
L 638.711588 286.238669 
L 638.787726 286.664539 
L 638.923686 287.208705 
L 638.94544 287.374321 
L 639.021577 287.161386 
L 639.032454 287.185046 
L 639.141222 286.61722 
L 639.239114 286.735517 
L 639.413143 287.563596 
L 639.445773 287.658234 
L 639.48928 287.516277 
L 639.500157 287.516277 
L 639.511034 287.563596 
L 639.55998 287.327002 
L 639.734009 265.016183 
L 639.750324 264.70861 
L 639.821023 265.442052 
L 639.869969 266.696001 
L 640.250657 276.869545 
L 640.479071 284.20396 
L 640.642223 286.948452 
L 640.658538 286.901133 
L 641.158872 291.633014 
L 641.191502 291.301782 
L 641.588506 289.40903 
L 641.610259 289.487894 
L 641.762535 289.976855 
L 641.800604 290.047834 
L 642.083401 291.562036 
L 642.088839 291.562036 
L 642.224799 292.461093 
L 642.230238 292.421661 
L 642.235676 292.413774 
L 642.251991 292.57939 
L 642.25743 292.555731 
L 642.861093 294.850693 
L 642.87197 294.779715 
L 643.056876 288.344356 
L 643.165644 270.69444 
L 643.345111 242.019241 
L 643.377742 242.894639 
L 643.638785 251.577641 
L 643.693169 250.915177 
L 643.807376 251.814235 
L 644.285956 264.874226 
L 644.291394 264.850567 
L 644.470862 266.057197 
L 644.487177 266.151834 
L 644.889619 275.024111 
L 645.362761 286.546242 
L 645.373637 286.522582 
L 645.384514 286.427945 
L 645.455214 286.924792 
L 645.542228 287.705552 
L 645.738011 289.740261 
L 645.743449 289.598305 
L 645.825025 290.213449 
L 645.906601 290.615659 
L 645.94467 290.308087 
L 646.031685 289.976855 
L 646.009931 290.331746 
L 646.069754 290.095152 
L 646.075192 290.095152 
L 646.124138 284.653489 
L 646.276413 268.588753 
L 646.281851 268.612412 
L 646.28729 268.588753 
L 646.314482 268.872666 
L 646.52658 271.759113 
L 646.548333 271.546179 
L 646.754993 268.990963 
L 646.776747 268.990963 
L 646.907268 269.91368 
L 646.923584 269.795383 
L 646.956214 269.724404 
L 647.054105 269.180238 
L 647.092174 269.345854 
L 647.113928 269.724404 
L 647.271642 271.782773 
L 647.500055 275.923169 
L 648.386515 287.232364 
L 648.440899 286.901133 
L 648.495283 286.167691 
L 648.565983 286.569901 
L 648.761765 287.729212 
L 648.810711 287.658234 
L 648.783519 287.80019 
L 648.865095 287.705552 
L 649.196838 291.869608 
L 649.207715 291.538376 
L 649.354552 285.978416 
L 649.365429 285.883778 
L 649.479635 284.866424 
L 649.501389 285.079358 
L 649.506827 285.00838 
L 649.577526 285.505228 
L 649.718925 286.144032 
L 649.740679 285.860119 
L 649.773309 285.599865 
L 649.833132 286.191351 
L 650.039791 288.746566 
L 650.137682 290.024174 
L 650.164874 289.976855 
L 650.170313 289.953196 
L 650.192066 290.284428 
L 650.208382 290.544681 
L 650.268204 290.260768 
L 650.300835 290.355406 
L 650.376972 290.118812 
L 650.344342 290.473703 
L 650.431356 290.260768 
L 650.474864 290.662978 
L 650.534686 290.237109 
L 650.578193 290.521022 
L 650.703277 289.834899 
L 650.719592 290.142471 
L 650.746784 289.716602 
L 650.812045 289.740261 
L 650.839237 289.740261 
L 650.844675 289.953196 
L 650.953444 289.882218 
L 650.958882 289.834899 
L 651.029581 290.166131 
L 651.073089 290.260768 
L 651.241679 291.230804 
L 651.252556 291.159826 
L 651.361324 292.200839 
L 651.415708 292.058883 
L 651.529915 291.562036 
L 651.551668 291.940586 
L 651.600614 290.923232 
L 651.633244 291.39642 
L 652.12814 280.844325 
L 652.139016 280.986281 
L 652.16077 281.246535 
L 652.198839 280.489434 
L 652.340237 278.052515 
L 652.519705 277.319074 
L 652.552335 277.484689 
L 652.67198 278.005196 
L 652.568651 277.437371 
L 652.677419 277.934218 
L 652.699172 277.957877 
L 652.726364 277.934218 
L 652.862325 278.904254 
L 652.922147 279.519398 
L 653.068984 269.345854 
L 653.672647 169.432185 
L 653.73247 170.638815 
L 653.86843 181.048953 
L 654.330695 221.033348 
L 654.85822 233.738449 
L 654.950673 234.732144 
L 654.96155 234.329934 
L 655.005057 205.228865 
L 655.20084 151.261762 
L 655.402061 144.116621 
L 655.407499 144.234918 
L 655.418376 144.234918 
L 655.722927 148.54093 
L 655.728365 148.54093 
L 655.956778 156.821722 
L 655.989409 155.283861 
L 656.185192 141.064558 
L 656.19063 141.111877 
L 656.196068 141.017239 
L 656.245014 141.916297 
L 656.402728 151.214443 
L 656.913938 182.989024 
L 656.957445 182.326561 
L 656.962884 182.279242 
L 656.990076 182.77609 
L 657.310942 199.668905 
L 657.89829 237.003447 
L 658.175649 247.886773 
L 658.54546 256.120246 
L 658.724928 259.716476 
L 659.040356 264.211763 
L 659.274207 266.175494 
L 659.317714 265.773284 
L 659.567881 261.893141 
L 659.57332 262.129735 
L 659.660334 261.254337 
L 659.676649 261.254337 
L 659.70928 261.041403 
L 659.74191 261.419953 
L 659.790856 261.183359 
L 659.839801 261.207018 
L 660.041023 259.621838 
L 660.476095 250.252714 
L 660.655563 246.490868 
L 660.666439 246.490868 
L 660.682755 246.372571 
L 660.764331 246.680144 
L 661.047128 250.678583 
L 661.052566 250.583945 
L 661.10695 250.986155 
L 661.123266 250.39467 
L 661.150458 245.520833 
L 661.335364 181.758735 
L 661.68886 147.973105 
L 662.259893 127.767972 
L 662.27077 127.696994 
L 662.384976 127.129168 
L 662.401291 127.318444 
L 662.727596 132.949382 
L 663.39652 166.167187 
L 663.445466 165.67034 
L 663.63581 146.766475 
L 663.777209 145.039338 
L 663.918607 145.275932 
L 664.179651 146.837453 
L 664.647354 169.479504 
L 665.174879 198.627891 
L 665.191195 198.840826 
L 665.223825 198.012747 
L 665.555568 174.944827 
L 665.729597 168.343853 
L 665.941695 164.203457 
L 666.023271 165.149833 
L 666.327822 179.58207 
L 666.512728 190.086846 
L 666.545358 186.561595 
L 666.77921 164.511029 
L 666.953239 148.398974 
L 667.15446 138.60398 
L 667.274105 139.550356 
L 667.681985 152.965239 
L 668.057235 176.033159 
L 668.253018 182.586815 
L 668.263895 181.59312 
L 668.318279 177.547361 
L 668.421609 161.033096 
L 668.660899 139.00619 
L 668.818612 127.342103 
L 669.036149 119.084971 
L 669.052464 119.155949 
L 669.112286 118.682761 
L 669.161232 119.061311 
L 669.248247 119.771093 
L 669.27 119.10863 
L 669.400522 117.996638 
L 669.416837 118.067616 
L 669.454906 117.92566 
L 669.427714 118.114935 
L 669.487536 118.114935 
L 669.835595 125.922539 
L 669.868225 124.053446 
L 669.976993 123.816852 
L 669.933486 124.124424 
L 669.982432 123.86417 
L 669.98787 123.86417 
L 670.0205 123.509279 
L 670.080323 124.195402 
L 670.085761 124.124424 
L 670.60241 137.752241 
L 670.87433 147.783829 
L 670.912399 144.992019 
L 671.124497 133.753802 
L 671.189758 133.895758 
L 671.200635 133.84844 
L 671.222389 133.943077 
L 671.412733 129.660725 
L 671.864121 117.831022 
L 671.902189 117.972979 
L 672.244809 127.649675 
L 673.316175 190.370759 
L 673.321614 190.536375 
L 673.343367 188.525325 
L 673.479328 179.960621 
L 673.522835 180.906997 
L 673.64248 185.875472 
L 673.756686 190.418078 
L 673.77844 187.507971 
L 673.974223 179.156201 
L 674.110183 176.837579 
L 674.131937 176.955876 
L 674.15369 177.003195 
L 674.164567 176.979535 
L 674.338596 180.836019 
L 674.784545 203.359772 
L 674.784545 203.359772 
" clip-path="url(#ped452db94f)" style="fill: none; stroke: #1f77b4; stroke-width: 1.5; stroke-linecap: square"/>
   </g>
   <g id="line2d_15">
    <path d="M 57.775455 197.918109 
L 59.173125 214.486648 
L 60.162915 224.644314 
L 60.962361 224.801822 
L 61.555148 230.292125 
L 61.593217 229.823257 
L 61.75093 228.379409 
L 61.848822 228.697396 
L 62.142496 230.992634 
L 63.56192 242.316186 
L 64.970468 252.081902 
L 65.416417 254.846451 
L 65.432732 254.403156 
L 65.617638 251.930698 
L 65.655707 251.913544 
L 65.699214 251.991474 
L 65.878682 252.808825 
L 68.494556 266.833959 
L 69.81065 272.350756 
L 71.230075 277.471595 
L 72.660376 281.819004 
L 74.101554 285.504747 
L 74.699779 286.85884 
L 74.732409 286.708851 
L 74.949946 286.131169 
L 75.031522 286.207196 
L 75.374141 286.878132 
L 76.902334 289.915037 
L 76.907772 289.903942 
L 77.000225 287.040628 
L 77.212323 282.820964 
L 77.337407 282.597805 
L 77.364599 282.612433 
L 77.533189 282.8923 
L 77.995454 284.014387 
L 78.066153 283.809836 
L 78.185798 283.551961 
L 78.218429 283.568378 
L 78.387019 283.854467 
L 79.017874 285.36547 
L 79.03419 285.157161 
L 79.251726 281.592504 
L 79.344179 281.472577 
L 79.387686 281.505626 
L 79.588907 281.921109 
L 79.795567 282.460596 
L 79.828197 282.228794 
L 80.045733 273.336587 
L 80.181694 272.779015 
L 80.208886 272.791574 
L 80.339407 273.069647 
L 80.426422 273.153776 
L 80.453614 273.066999 
L 80.518875 272.9916 
L 80.573259 273.050244 
L 80.779919 273.648227 
L 81.824093 277.232229 
L 81.845846 277.075145 
L 81.873038 274.597143 
L 82.248289 207.672409 
L 82.297234 207.534281 
L 82.357057 207.681768 
L 82.531086 209.021748 
L 85.380811 236.535062 
L 85.408003 235.805178 
L 85.603786 233.749198 
L 85.630978 233.780881 
L 85.745185 234.311862 
L 85.86483 235.175527 
L 85.924652 234.815034 
L 86.049735 233.859343 
L 86.13675 234.103048 
L 86.397794 235.939893 
L 87.441968 243.965271 
L 87.474598 243.689587 
L 87.703011 240.503791 
L 87.790026 240.717805 
L 88.32299 243.553922 
L 89.633646 252.445373 
L 89.682592 252.341182 
L 89.68803 252.355675 
L 89.720661 252.128665 
L 89.785921 251.960354 
L 89.845744 252.05598 
L 90.036088 252.954364 
L 91.651295 262.075852 
L 91.705679 261.878757 
L 91.760063 261.414856 
L 91.923216 259.883752 
L 92.211451 254.877375 
L 92.24952 254.869005 
L 92.293027 254.947331 
L 92.477933 255.755814 
L 93.244749 260.018643 
L 93.261064 259.540958 
L 93.543861 249.322368 
L 93.609122 249.189653 
L 93.663506 249.282581 
L 94.017003 250.660004 
L 94.09314 251.073773 
L 94.114894 250.667394 
L 94.305238 249.05149 
L 94.33243 249.077826 
L 94.452075 249.523411 
L 94.898025 252.232739 
L 94.908901 251.678712 
L 95.093807 244.582234 
L 95.191699 244.141585 
L 95.235206 244.20871 
L 95.387481 244.940277 
L 98.188261 261.438652 
L 98.878939 264.443411 
L 99.411903 266.84327 
L 99.749084 268.360952 
L 99.765399 268.12516 
L 99.96662 262.195283 
L 100.064512 261.880591 
L 100.113457 261.930566 
L 100.27661 262.479775 
L 100.41257 263.07362 
L 100.505023 262.976759 
L 100.575722 263.060955 
L 100.798697 263.895677 
L 101.043425 265.023187 
L 101.05974 264.583743 
L 101.244646 255.310802 
L 101.380606 254.494538 
L 101.407798 254.515509 
L 101.527443 254.894118 
L 102.006023 257.505147 
L 103.474393 265.185112 
L 104.872064 271.329985 
L 106.291488 276.61107 
L 107.357416 280.027784 
L 107.368293 279.925746 
L 107.444431 279.62393 
L 107.498815 279.694138 
L 107.846873 280.679536 
L 107.901257 280.841395 
L 107.923011 280.61115 
L 108.173177 279.416553 
L 108.249315 279.342383 
L 108.298261 279.389552 
L 108.521235 279.904506 
L 110.881504 286.069443 
L 112.344436 289.120228 
L 113.83456 291.722173 
L 115.357314 293.940555 
L 115.699933 294.382448 
L 115.721687 294.314187 
L 115.743441 293.094323 
L 115.960977 275.617275 
L 116.151321 273.88974 
L 116.232897 273.847671 
L 116.276405 273.890036 
L 116.472187 274.346698 
L 117.353209 277.313902 
L 118.788949 281.700832 
L 120.230127 285.405383 
L 121.68762 288.552578 
L 121.801827 288.781024 
L 121.812704 288.60367 
L 122.041117 286.518661 
L 122.13357 286.482996 
L 122.171638 286.516215 
L 122.427244 286.970802 
L 124.151219 290.305084 
L 124.357878 290.036438 
L 124.368755 290.041114 
L 124.559099 290.268261 
L 125.586958 291.949159 
L 125.603274 291.739064 
L 126.125361 284.793934 
L 126.201498 284.846831 
L 126.283075 284.975849 
L 126.288513 284.960446 
L 126.321143 279.304311 
L 126.489734 262.71623 
L 126.669201 260.617028 
L 126.712709 260.623354 
L 126.750778 260.691573 
L 126.94656 261.458072 
L 127.816705 265.717477 
L 127.849336 265.243442 
L 128.050557 262.203825 
L 128.099503 262.161978 
L 128.153887 262.244636 
L 128.355108 263.025467 
L 130.389072 271.964565 
L 130.470648 272.203626 
L 130.476087 272.054092 
L 130.688185 264.711975 
L 130.80783 264.225734 
L 130.84046 264.253108 
L 130.97642 264.653563 
L 131.748674 268.13959 
L 133.16266 273.90106 
L 134.587523 278.795714 
L 134.614715 278.882974 
L 134.63103 278.664346 
L 134.941019 264.785283 
L 135.00628 264.686297 
L 135.060664 264.750736 
L 135.251009 265.391456 
L 137.622154 275.145716 
L 137.654785 275.064058 
L 137.6711 271.990106 
L 137.834252 244.058932 
L 138.01372 240.998195 
L 138.04635 240.986382 
L 138.089857 241.071546 
L 138.111611 241.151303 
L 138.122488 240.966659 
L 138.372655 232.083479 
L 138.410723 232.027536 
L 138.465107 232.144755 
L 138.644575 233.270113 
L 138.753343 234.034612 
L 138.758781 233.780365 
L 138.938249 223.114635 
L 139.047017 222.275565 
L 139.090524 222.356276 
L 139.237361 223.294482 
L 139.900847 229.385111 
L 139.976985 228.678476 
L 140.151014 226.224862 
L 140.167329 226.234709 
L 140.248905 226.54379 
L 140.537141 228.841169 
L 141.396409 236.241414 
L 141.439916 235.889415 
L 141.467108 235.664959 
L 141.662891 234.148726 
L 141.695522 234.114757 
L 141.744467 234.219011 
L 141.918496 235.271554 
L 144.044914 250.305662 
L 145.448023 258.796307 
L 145.785204 260.631863 
L 145.942918 260.776673 
L 146.82394 265.211677 
L 146.878324 265.150525 
L 146.883762 265.153841 
L 146.916393 265.067397 
L 146.92727 265.053057 
L 146.970777 265.061032 
L 147.008846 265.129433 
L 147.014284 265.134626 
L 147.019723 265.05273 
L 147.19919 263.098417 
L 147.248136 263.067086 
L 147.297081 263.141814 
L 147.498302 263.90015 
L 147.759346 265.113959 
L 147.775661 264.741715 
L 147.976882 262.214034 
L 148.025828 262.172729 
L 148.074774 262.243121 
L 148.265118 262.960195 
L 148.982988 265.737785 
L 149.048249 265.955089 
L 149.053687 265.823914 
L 149.244031 258.615744 
L 149.390868 257.577187 
L 149.407183 257.584876 
L 149.505075 257.834688 
L 149.86401 259.635884 
L 151.375887 267.167991 
L 152.496199 271.938203 
L 152.507076 271.833219 
L 152.724612 270.492327 
L 152.740927 270.497232 
L 152.844257 270.692962 
L 153.235822 272.141445 
L 154.715069 277.490895 
L 155.112073 278.602142 
L 155.144703 278.535762 
L 155.209964 278.513873 
L 155.253472 278.564362 
L 155.481885 279.135086 
L 155.73749 279.903426 
L 155.786436 279.698035 
L 155.829943 279.689345 
L 155.87345 279.753293 
L 156.205193 280.672486 
L 157.679001 284.619464 
L 159.131056 287.881863 
L 159.729281 289.074789 
L 159.734719 288.988742 
L 159.93594 285.341944 
L 160.077339 285.004374 
L 160.099093 285.012771 
L 160.256807 285.242151 
L 161.638162 288.227234 
L 163.117409 290.957384 
L 164.54771 293.154124 
L 165.124181 293.926565 
L 165.396102 294.286797 
L 165.40154 294.227084 
L 165.678899 289.699337 
L 165.803982 289.568205 
L 165.831174 289.582673 
L 166.048711 289.875897 
L 168.365472 293.53662 
L 169.926295 295.494841 
L 170.470136 296.091311 
L 170.475574 296.025742 
L 170.693111 293.600032 
L 170.850824 293.409998 
L 171.024854 293.537246 
L 171.204321 293.758865 
L 171.209759 293.723449 
L 171.236951 288.461231 
L 171.400104 250.670537 
L 171.585009 245.312652 
L 171.655709 245.123312 
L 171.710093 245.208492 
L 171.884122 246.051136 
L 172.020082 246.927608 
L 172.036397 246.437592 
L 172.210426 242.294264 
L 172.270249 242.139522 
L 172.330071 242.255522 
L 172.520416 243.319024 
L 172.808651 245.363387 
L 172.824966 244.684232 
L 173.009872 233.443853 
L 173.18934 228.619309 
L 173.22197 228.582666 
L 173.276354 228.697463 
L 173.450383 229.757661 
L 173.542836 230.493841 
L 173.575467 229.882362 
L 173.798441 226.208851 
L 173.820195 226.200926 
L 173.825633 226.115947 
L 173.950717 222.200436 
L 174.097554 220.181627 
L 174.113869 220.190515 
L 174.190007 220.483964 
L 174.456489 222.733601 
L 174.570695 223.638118 
L 174.635956 223.405595 
L 174.897 218.633551 
L 174.994891 218.997495 
L 175.294003 221.646519 
L 175.788899 225.956063 
L 175.826967 225.791348 
L 175.854159 225.764756 
L 175.903105 225.874107 
L 175.941174 226.0611 
L 175.952051 225.762613 
L 176.12608 223.766391 
L 176.131518 223.767579 
L 176.191341 223.932192 
L 176.392562 225.418408 
L 176.615536 227.458077 
L 176.680797 227.048855 
L 176.751497 226.689324 
L 176.811319 226.826051 
L 177.001663 228.162216 
L 177.480243 232.356656 
L 177.496558 231.880867 
L 177.76304 216.045018 
L 177.817425 215.867138 
L 177.877247 216.018883 
L 178.056714 217.38881 
L 180.721534 241.306262 
L 181.015208 243.473905 
L 181.020647 243.030412 
L 181.183799 233.404487 
L 181.308882 232.343176 
L 181.341513 232.383896 
L 181.537295 233.187755 
L 181.99956 236.817197 
L 182.6141 241.623683 
L 182.673922 241.429257 
L 182.760937 241.116749 
L 182.831636 241.288628 
L 183.065488 242.718504 
L 183.919318 248.399 
L 183.968263 248.328377 
L 184.033524 248.458663 
L 184.098785 248.719562 
L 184.174923 248.586342 
L 184.245622 248.397835 
L 184.300006 248.490708 
L 184.484912 249.399808 
L 185.034191 252.024935 
L 185.485579 254.650792 
L 186.861496 262.266945 
L 186.926757 262.603567 
L 186.953949 262.271741 
L 187.209554 258.65801 
L 187.214993 258.658258 
L 187.291131 258.790031 
L 187.39446 259.186328 
L 187.443406 258.900714 
L 187.470598 258.702936 
L 187.590243 258.12491 
L 187.622873 258.154541 
L 187.753395 258.582139 
L 188.400566 261.925465 
L 188.596348 262.926649 
L 189.015106 263.063909 
L 190.429092 269.619053 
L 191.848516 275.168691 
L 191.979038 275.632235 
L 191.995353 275.452191 
L 192.196574 268.393504 
L 192.310781 267.980173 
L 192.34885 268.007807 
L 192.495687 268.408029 
L 193.50723 272.468533 
L 194.932093 277.588594 
L 196.362394 281.917509 
L 197.803572 285.587574 
L 199.261066 288.705472 
L 199.380711 288.939477 
L 199.402464 288.775296 
L 199.603685 288.082756 
L 199.734207 288.202488 
L 200.272609 289.201034 
L 201.77361 291.806665 
L 203.296364 294.010907 
L 204.770172 295.770395 
L 205.178053 296.211098 
L 623.95175 296.112637 
L 624.109464 293.610982 
L 624.468399 288.654516 
L 624.593482 288.627988 
L 624.609797 288.640011 
L 624.865402 288.991448 
L 624.919787 289.07858 
L 624.94154 288.936671 
L 625.142761 286.822681 
L 625.653972 270.24208 
L 625.724671 270.199118 
L 625.773617 270.253377 
L 625.969399 270.788176 
L 626.279388 271.901312 
L 626.312019 271.601763 
L 626.496925 269.335791 
L 626.763407 262.339984 
L 626.877613 262.099636 
L 626.915682 262.125588 
L 627.057081 262.447327 
L 627.078834 262.315749 
L 627.12778 257.607168 
L 627.459523 223.970202 
L 627.633552 221.288323 
L 627.677059 221.318837 
L 627.698813 221.376796 
L 627.807581 221.778514 
L 627.856527 221.542745 
L 627.889157 221.454444 
L 628.237215 213.198434 
L 628.318791 213.345584 
L 628.525451 214.304867 
L 628.878947 217.675309 
L 629.694708 225.782784 
L 629.705585 225.347624 
L 629.863299 222.270194 
L 629.901368 222.319433 
L 629.912245 222.355587 
L 630.06452 223.371023 
L 630.662745 228.011205 
L 630.717129 227.987393 
L 630.771513 227.907942 
L 630.825897 228.003582 
L 630.999926 228.634092 
L 631.005365 228.498654 
L 631.244655 220.675714 
L 631.299039 220.553873 
L 631.353423 220.677464 
L 631.527452 221.828598 
L 631.940771 225.581377 
L 632.006032 224.917496 
L 632.082169 223.746076 
L 632.25076 208.486627 
L 632.511804 195.811505 
L 632.636887 194.625849 
L 632.669517 194.689125 
L 632.789162 195.514257 
L 632.974068 197.435471 
L 633.066521 197.121211 
L 633.110028 197.220814 
L 633.20792 197.678343 
L 633.218797 197.296229 
L 633.381949 191.819976 
L 633.425456 191.694051 
L 633.47984 191.849668 
L 633.648431 193.322949 
L 634.023681 197.76807 
L 634.034558 196.6572 
L 634.23034 188.125365 
L 634.284724 187.880583 
L 634.344547 188.083096 
L 634.524014 189.915201 
L 634.931895 195.209148 
L 634.94821 194.049063 
L 635.269076 175.688691 
L 635.350652 176.064842 
L 635.589942 179.022917 
L 635.997823 184.910742 
L 636.030453 183.810843 
L 636.209921 180.532718 
L 636.291497 180.920692 
L 636.536225 183.893845 
L 636.55254 184.072758 
L 636.601486 183.383442 
L 636.606924 183.410306 
L 636.650432 171.008341 
L 636.900598 146.878309 
L 636.954982 146.558675 
L 637.014805 146.830344 
L 637.194272 149.281845 
L 637.259533 150.354364 
L 637.313917 149.574721 
L 637.672852 142.674957 
L 637.738113 142.889659 
L 637.895827 144.906965 
L 638.668081 157.243319 
L 638.755095 156.998942 
L 638.782287 156.929576 
L 638.831233 157.114277 
L 639.032454 159.026992 
L 639.130346 158.535863 
L 639.239114 157.533077 
L 639.271744 157.62742 
L 639.445773 159.150732 
L 639.554541 160.607684 
L 639.55998 160.270399 
L 639.750324 132.531982 
L 639.908038 131.196564 
L 639.989614 131.656312 
L 640.147328 133.066491 
L 640.261534 134.863306 
L 641.180625 149.773774 
L 641.251324 150.099181 
L 641.343777 150.272754 
L 641.360093 150.147221 
L 641.496053 149.977517 
L 641.501491 149.978529 
L 641.637451 150.370007 
L 641.88218 151.601079 
L 642.012702 152.740413 
L 642.616365 162.609299 
L 642.877408 166.767129 
L 642.937231 166.29464 
L 642.9753 165.252997 
L 643.38318 115.662015 
L 643.464756 114.821681 
L 643.51914 115.06202 
L 643.584401 115.798523 
L 643.595278 114.806073 
L 643.845445 97.805554 
L 643.883514 97.651661 
L 643.937898 97.913942 
L 644.10105 100.421195 
L 644.324025 105.064481 
L 644.416478 104.478777 
L 644.44367 104.389877 
L 644.492615 104.640597 
L 644.655768 107.280872 
L 645.003826 112.16179 
L 645.313815 118.055601 
L 645.928355 130.150205 
L 645.977301 129.853189 
L 646.075192 129.928191 
L 646.08063 129.638547 
L 646.270975 110.075134 
L 646.347112 109.254053 
L 646.401496 109.507317 
L 646.45588 110.082877 
L 646.472196 109.619244 
L 646.803939 88.520857 
L 646.814815 88.538223 
L 646.885515 89.105218 
L 647.108489 93.293545 
L 648.315816 119.744399 
L 648.343008 117.570618 
L 648.522475 110.892537 
L 648.565983 110.724674 
L 648.614928 110.963518 
L 648.778081 113.558801 
L 649.213153 122.803094 
L 649.300168 121.725121 
L 649.354552 121.294773 
L 649.414374 121.600269 
L 649.593842 124.453129 
L 650.143121 134.126459 
L 650.164874 133.701179 
L 650.31715 130.992582 
L 650.338903 131.04984 
L 650.436795 132.060309 
L 650.833799 139.474699 
L 651.57886 152.369189 
L 651.584299 152.334476 
L 651.758328 148.765682 
L 651.790958 148.849213 
L 651.910603 150.057545 
L 652.204277 154.737345 
L 652.318484 154.188044 
L 652.372868 154.460237 
L 652.563212 157.023662 
L 652.933024 162.069408 
L 652.949339 161.717197 
L 653.15056 152.915833 
L 653.417042 129.980219 
L 653.471426 129.759425 
L 653.52581 129.956276 
L 653.678086 131.698813 
L 654.178419 140.873562 
L 654.640684 148.088008 
L 654.651561 148.044443 
L 654.75489 147.704439 
L 654.782082 147.780913 
L 654.896289 148.963987 
L 654.945235 149.613176 
L 654.972427 148.817793 
L 655.054003 116.134237 
L 655.222593 90.613461 
L 655.309608 89.407235 
L 655.358554 89.646352 
L 655.510829 92.125381 
L 655.956778 101.427675 
L 655.983971 99.765005 
L 656.239576 79.28309 
L 656.315713 79.872743 
L 656.538688 84.640791 
L 656.859554 92.32928 
L 656.897623 90.922067 
L 657.033583 87.757878 
L 657.07709 87.981739 
L 657.223927 90.406875 
L 659.143685 131.204728 
L 659.192631 130.00243 
L 659.562443 111.460885 
L 659.627704 111.823576 
L 659.818048 114.90632 
L 661.112389 141.678179 
L 661.145019 139.404176 
L 661.400624 109.647782 
L 661.44957 109.41142 
L 661.503954 109.678247 
L 661.667106 112.085577 
L 661.770436 113.804318 
L 661.786751 112.340027 
L 661.987972 96.653802 
L 662.297962 84.873048 
L 662.363223 85.298777 
L 662.553567 88.842513 
L 663.412835 109.107881 
L 663.456343 107.666462 
L 663.66844 92.073371 
L 663.706509 91.937305 
L 663.755455 92.191452 
L 663.913169 94.817249 
L 664.946466 117.011385 
L 665.011727 115.776319 
L 665.098742 114.865371 
L 665.158564 115.197857 
L 665.34347 118.138327 
L 665.397854 118.995654 
L 665.425046 117.696262 
L 665.702405 99.130855 
L 665.71872 99.155999 
L 665.794858 99.809235 
L 666.045025 104.559782 
L 666.523604 115.122226 
L 666.534481 113.85341 
L 666.741141 89.931398 
L 666.817278 89.197503 
L 666.871662 89.4768 
L 667.040253 91.970447 
L 667.132706 93.779419 
L 667.214282 93.331408 
L 667.301297 92.776672 
L 667.350242 92.942398 
L 667.366558 93.031539 
L 667.371996 92.899387 
L 667.540587 85.374192 
L 667.567779 85.466599 
L 667.681985 87.030051 
L 668.106181 96.116422 
L 668.149688 93.958196 
L 668.492308 75.862997 
L 668.55213 75.381052 
L 668.611953 75.703679 
L 668.644583 75.869791 
L 668.693529 75.527137 
L 668.75879 75.158083 
L 668.818612 75.504626 
L 668.829489 75.549007 
L 668.856681 75.075204 
L 668.960011 70.07419 
L 669.036149 68.996915 
L 669.090533 69.333428 
L 669.259123 72.36358 
L 669.291754 70.644085 
L 669.503852 59.660863 
L 669.574551 60.227106 
L 669.781211 64.837438 
L 669.841033 66.295848 
L 669.862787 64.164076 
L 670.053131 46.784463 
L 670.085761 46.626939 
L 670.140145 47.009553 
L 670.308736 50.588328 
L 670.825385 63.632689 
L 670.858015 62.522672 
L 671.461678 39.468586 
L 671.472555 39.458467 
L 671.505186 39.598048 
L 671.624831 41.488699 
L 672.043588 53.003439 
L 672.3427 61.198673 
L 672.375331 59.797149 
L 672.4134 59.398748 
L 672.473222 60.016267 
L 672.745143 66.632005 
L 673.327052 80.905942 
L 673.332491 80.604796 
L 673.544589 53.150543 
L 673.609849 52.443243 
L 673.664233 52.800388 
L 673.718618 53.537131 
L 673.773002 52.824245 
L 673.908962 41.694169 
L 674.088429 36.34305 
L 674.12106 36.19267 
L 674.175444 36.565649 
L 674.338596 39.999423 
L 674.784545 52.94248 
L 674.784545 52.94248 
" clip-path="url(#ped452db94f)" style="fill: none; stroke: #ff7f0e; stroke-width: 1.5; stroke-linecap: square"/>
   </g>
   <g id="patch_3">
    <path d="M 26.925 327.558125 
L 26.925 22.318125 
" style="fill: none; stroke: #000000; stroke-width: 0.8; stroke-linejoin: miter; stroke-linecap: square"/>
   </g>
   <g id="patch_4">
    <path d="M 705.635 327.558125 
L 705.635 22.318125 
" style="fill: none; stroke: #000000; stroke-width: 0.8; stroke-linejoin: miter; stroke-linecap: square"/>
   </g>
   <g id="patch_5">
    <path d="M 26.925 327.558125 
L 705.635 327.558125 
" style="fill: none; stroke: #000000; stroke-width: 0.8; stroke-linejoin: miter; stroke-linecap: square"/>
   </g>
   <g id="patch_6">
    <path d="M 26.925 22.318125 
L 705.635 22.318125 
" style="fill: none; stroke: #000000; stroke-width: 0.8; stroke-linejoin: miter; stroke-linecap: square"/>
   </g>
   <g id="text_14">
    <!-- training -->
    <g transform="translate(343.036563 16.318125) scale(0.12 -0.12)">
     <defs>
      <path id="DejaVuSans-74" d="M 1172 4494 
L 1172 3500 
L 2356 3500 
L 2356 3053 
L 1172 3053 
L 1172 1153 
Q 1172 725 1289 603 
Q 1406 481 1766 481 
L 2356 481 
L 2356 0 
L 1766 0 
Q 1100 0 847 248 
Q 594 497 594 1153 
L 594 3053 
L 172 3053 
L 172 3500 
L 594 3500 
L 594 4494 
L 1172 4494 
z
" transform="scale(0.015625)"/>
      <path id="DejaVuSans-72" d="M 2631 2963 
Q 2534 3019 2420 3045 
Q 2306 3072 2169 3072 
Q 1681 3072 1420 2755 
Q 1159 2438 1159 1844 
L 1159 0 
L 581 0 
L 581 3500 
L 1159 3500 
L 1159 2956 
Q 1341 3275 1631 3429 
Q 1922 3584 2338 3584 
Q 2397 3584 2469 3576 
Q 2541 3569 2628 3553 
L 2631 2963 
z
" transform="scale(0.015625)"/>
      <path id="DejaVuSans-61" d="M 2194 1759 
Q 1497 1759 1228 1600 
Q 959 1441 959 1056 
Q 959 750 1161 570 
Q 1363 391 1709 391 
Q 2188 391 2477 730 
Q 2766 1069 2766 1631 
L 2766 1759 
L 2194 1759 
z
M 3341 1997 
L 3341 0 
L 2766 0 
L 2766 531 
Q 2569 213 2275 61 
Q 1981 -91 1556 -91 
Q 1019 -91 701 211 
Q 384 513 384 1019 
Q 384 1609 779 1909 
Q 1175 2209 1959 2209 
L 2766 2209 
L 2766 2266 
Q 2766 2663 2505 2880 
Q 2244 3097 1772 3097 
Q 1472 3097 1187 3025 
Q 903 2953 641 2809 
L 641 3341 
Q 956 3463 1253 3523 
Q 1550 3584 1831 3584 
Q 2591 3584 2966 3190 
Q 3341 2797 3341 1997 
z
" transform="scale(0.015625)"/>
      <path id="DejaVuSans-69" d="M 603 3500 
L 1178 3500 
L 1178 0 
L 603 0 
L 603 3500 
z
M 603 4863 
L 1178 4863 
L 1178 4134 
L 603 4134 
L 603 4863 
z
" transform="scale(0.015625)"/>
      <path id="DejaVuSans-6e" d="M 3513 2113 
L 3513 0 
L 2938 0 
L 2938 2094 
Q 2938 2591 2744 2837 
Q 2550 3084 2163 3084 
Q 1697 3084 1428 2787 
Q 1159 2491 1159 1978 
L 1159 0 
L 581 0 
L 581 3500 
L 1159 3500 
L 1159 2956 
Q 1366 3272 1645 3428 
Q 1925 3584 2291 3584 
Q 2894 3584 3203 3211 
Q 3513 2838 3513 2113 
z
" transform="scale(0.015625)"/>
      <path id="DejaVuSans-67" d="M 2906 1791 
Q 2906 2416 2648 2759 
Q 2391 3103 1925 3103 
Q 1463 3103 1205 2759 
Q 947 2416 947 1791 
Q 947 1169 1205 825 
Q 1463 481 1925 481 
Q 2391 481 2648 825 
Q 2906 1169 2906 1791 
z
M 3481 434 
Q 3481 -459 3084 -895 
Q 2688 -1331 1869 -1331 
Q 1566 -1331 1297 -1286 
Q 1028 -1241 775 -1147 
L 775 -588 
Q 1028 -725 1275 -790 
Q 1522 -856 1778 -856 
Q 2344 -856 2625 -561 
Q 2906 -266 2906 331 
L 2906 616 
Q 2728 306 2450 153 
Q 2172 0 1784 0 
Q 1141 0 747 490 
Q 353 981 353 1791 
Q 353 2603 747 3093 
Q 1141 3584 1784 3584 
Q 2172 3584 2450 3431 
Q 2728 3278 2906 2969 
L 2906 3500 
L 3481 3500 
L 3481 434 
z
" transform="scale(0.015625)"/>
     </defs>
     <use xlink:href="#DejaVuSans-74"/>
     <use xlink:href="#DejaVuSans-72" x="39.208984"/>
     <use xlink:href="#DejaVuSans-61" x="80.322266"/>
     <use xlink:href="#DejaVuSans-69" x="141.601562"/>
     <use xlink:href="#DejaVuSans-6e" x="169.384766"/>
     <use xlink:href="#DejaVuSans-69" x="232.763672"/>
     <use xlink:href="#DejaVuSans-6e" x="260.546875"/>
     <use xlink:href="#DejaVuSans-67" x="323.925781"/>
    </g>
   </g>
   <g id="legend_1">
    <g id="patch_7">
     <path d="M 33.925 59.674375 
L 115.31875 59.674375 
Q 117.31875 59.674375 117.31875 57.674375 
L 117.31875 29.318125 
Q 117.31875 27.318125 115.31875 27.318125 
L 33.925 27.318125 
Q 31.925 27.318125 31.925 29.318125 
L 31.925 57.674375 
Q 31.925 59.674375 33.925 59.674375 
z
" style="fill: #ffffff; opacity: 0.8; stroke: #cccccc; stroke-linejoin: miter"/>
    </g>
    <g id="line2d_16">
     <path d="M 35.925 35.416562 
L 45.925 35.416562 
L 55.925 35.416562 
" style="fill: none; stroke: #1f77b4; stroke-width: 1.5; stroke-linecap: square"/>
    </g>
    <g id="text_15">
     <!-- observed -->
     <g transform="translate(63.925 38.916562) scale(0.1 -0.1)">
      <defs>
       <path id="DejaVuSans-6f" d="M 1959 3097 
Q 1497 3097 1228 2736 
Q 959 2375 959 1747 
Q 959 1119 1226 758 
Q 1494 397 1959 397 
Q 2419 397 2687 759 
Q 2956 1122 2956 1747 
Q 2956 2369 2687 2733 
Q 2419 3097 1959 3097 
z
M 1959 3584 
Q 2709 3584 3137 3096 
Q 3566 2609 3566 1747 
Q 3566 888 3137 398 
Q 2709 -91 1959 -91 
Q 1206 -91 779 398 
Q 353 888 353 1747 
Q 353 2609 779 3096 
Q 1206 3584 1959 3584 
z
" transform="scale(0.015625)"/>
       <path id="DejaVuSans-62" d="M 3116 1747 
Q 3116 2381 2855 2742 
Q 2594 3103 2138 3103 
Q 1681 3103 1420 2742 
Q 1159 2381 1159 1747 
Q 1159 1113 1420 752 
Q 1681 391 2138 391 
Q 2594 391 2855 752 
Q 3116 1113 3116 1747 
z
M 1159 2969 
Q 1341 3281 1617 3432 
Q 1894 3584 2278 3584 
Q 2916 3584 3314 3078 
Q 3713 2572 3713 1747 
Q 3713 922 3314 415 
Q 2916 -91 2278 -91 
Q 1894 -91 1617 61 
Q 1341 213 1159 525 
L 1159 0 
L 581 0 
L 581 4863 
L 1159 4863 
L 1159 2969 
z
" transform="scale(0.015625)"/>
       <path id="DejaVuSans-73" d="M 2834 3397 
L 2834 2853 
Q 2591 2978 2328 3040 
Q 2066 3103 1784 3103 
Q 1356 3103 1142 2972 
Q 928 2841 928 2578 
Q 928 2378 1081 2264 
Q 1234 2150 1697 2047 
L 1894 2003 
Q 2506 1872 2764 1633 
Q 3022 1394 3022 966 
Q 3022 478 2636 193 
Q 2250 -91 1575 -91 
Q 1294 -91 989 -36 
Q 684 19 347 128 
L 347 722 
Q 666 556 975 473 
Q 1284 391 1588 391 
Q 1994 391 2212 530 
Q 2431 669 2431 922 
Q 2431 1156 2273 1281 
Q 2116 1406 1581 1522 
L 1381 1569 
Q 847 1681 609 1914 
Q 372 2147 372 2553 
Q 372 3047 722 3315 
Q 1072 3584 1716 3584 
Q 2034 3584 2315 3537 
Q 2597 3491 2834 3397 
z
" transform="scale(0.015625)"/>
       <path id="DejaVuSans-65" d="M 3597 1894 
L 3597 1613 
L 953 1613 
Q 991 1019 1311 708 
Q 1631 397 2203 397 
Q 2534 397 2845 478 
Q 3156 559 3463 722 
L 3463 178 
Q 3153 47 2828 -22 
Q 2503 -91 2169 -91 
Q 1331 -91 842 396 
Q 353 884 353 1716 
Q 353 2575 817 3079 
Q 1281 3584 2069 3584 
Q 2775 3584 3186 3129 
Q 3597 2675 3597 1894 
z
M 3022 2063 
Q 3016 2534 2758 2815 
Q 2500 3097 2075 3097 
Q 1594 3097 1305 2825 
Q 1016 2553 972 2059 
L 3022 2063 
z
" transform="scale(0.015625)"/>
       <path id="DejaVuSans-76" d="M 191 3500 
L 800 3500 
L 1894 563 
L 2988 3500 
L 3597 3500 
L 2284 0 
L 1503 0 
L 191 3500 
z
" transform="scale(0.015625)"/>
       <path id="DejaVuSans-64" d="M 2906 2969 
L 2906 4863 
L 3481 4863 
L 3481 0 
L 2906 0 
L 2906 525 
Q 2725 213 2448 61 
Q 2172 -91 1784 -91 
Q 1150 -91 751 415 
Q 353 922 353 1747 
Q 353 2572 751 3078 
Q 1150 3584 1784 3584 
Q 2172 3584 2448 3432 
Q 2725 3281 2906 2969 
z
M 947 1747 
Q 947 1113 1208 752 
Q 1469 391 1925 391 
Q 2381 391 2643 752 
Q 2906 1113 2906 1747 
Q 2906 2381 2643 2742 
Q 2381 3103 1925 3103 
Q 1469 3103 1208 2742 
Q 947 2381 947 1747 
z
" transform="scale(0.015625)"/>
      </defs>
      <use xlink:href="#DejaVuSans-6f"/>
      <use xlink:href="#DejaVuSans-62" x="61.181641"/>
      <use xlink:href="#DejaVuSans-73" x="124.658203"/>
      <use xlink:href="#DejaVuSans-65" x="176.757812"/>
      <use xlink:href="#DejaVuSans-72" x="238.28125"/>
      <use xlink:href="#DejaVuSans-76" x="279.394531"/>
      <use xlink:href="#DejaVuSans-65" x="338.574219"/>
      <use xlink:href="#DejaVuSans-64" x="400.097656"/>
     </g>
    </g>
    <g id="line2d_17">
     <path d="M 35.925 50.094688 
L 45.925 50.094688 
L 55.925 50.094688 
" style="fill: none; stroke: #ff7f0e; stroke-width: 1.5; stroke-linecap: square"/>
    </g>
    <g id="text_16">
     <!-- simulated -->
     <g transform="translate(63.925 53.594688) scale(0.1 -0.1)">
      <defs>
       <path id="DejaVuSans-6d" d="M 3328 2828 
Q 3544 3216 3844 3400 
Q 4144 3584 4550 3584 
Q 5097 3584 5394 3201 
Q 5691 2819 5691 2113 
L 5691 0 
L 5113 0 
L 5113 2094 
Q 5113 2597 4934 2840 
Q 4756 3084 4391 3084 
Q 3944 3084 3684 2787 
Q 3425 2491 3425 1978 
L 3425 0 
L 2847 0 
L 2847 2094 
Q 2847 2600 2669 2842 
Q 2491 3084 2119 3084 
Q 1678 3084 1418 2786 
Q 1159 2488 1159 1978 
L 1159 0 
L 581 0 
L 581 3500 
L 1159 3500 
L 1159 2956 
Q 1356 3278 1631 3431 
Q 1906 3584 2284 3584 
Q 2666 3584 2933 3390 
Q 3200 3197 3328 2828 
z
" transform="scale(0.015625)"/>
       <path id="DejaVuSans-75" d="M 544 1381 
L 544 3500 
L 1119 3500 
L 1119 1403 
Q 1119 906 1312 657 
Q 1506 409 1894 409 
Q 2359 409 2629 706 
Q 2900 1003 2900 1516 
L 2900 3500 
L 3475 3500 
L 3475 0 
L 2900 0 
L 2900 538 
Q 2691 219 2414 64 
Q 2138 -91 1772 -91 
Q 1169 -91 856 284 
Q 544 659 544 1381 
z
M 1991 3584 
L 1991 3584 
z
" transform="scale(0.015625)"/>
       <path id="DejaVuSans-6c" d="M 603 4863 
L 1178 4863 
L 1178 0 
L 603 0 
L 603 4863 
z
" transform="scale(0.015625)"/>
      </defs>
      <use xlink:href="#DejaVuSans-73"/>
      <use xlink:href="#DejaVuSans-69" x="52.099609"/>
      <use xlink:href="#DejaVuSans-6d" x="79.882812"/>
      <use xlink:href="#DejaVuSans-75" x="177.294922"/>
      <use xlink:href="#DejaVuSans-6c" x="240.673828"/>
      <use xlink:href="#DejaVuSans-61" x="268.457031"/>
      <use xlink:href="#DejaVuSans-74" x="329.736328"/>
      <use xlink:href="#DejaVuSans-65" x="368.945312"/>
      <use xlink:href="#DejaVuSans-64" x="430.46875"/>
     </g>
    </g>
   </g>
  </g>
 </g>
 <defs>
  <clipPath id="ped452db94f">
   <rect x="26.925" y="22.318125" width="678.71" height="305.24"/>
  </clipPath>
 </defs>
</svg>
